0, 0, Header, 0, 1, 480
1, 0, Start_track
1, 0, System_exclusive, 35, 127, 127, 11, 1, 9, 3, 1, 4, 2, 4, 3, 4, 4, 4, 5, 4, 6, 4, 10, 4, 7, 4, 8, 4, 11, 4, 12, 4, 13, 4, 14, 4, 15, 4, 247
1, 0, System_exclusive, 5, 126, 127, 9, 1, 247
1, 0, Copyright_t, "(C) 1998 by M-LIVE s.r.l.;Universal Music Publishing Italy  "
1, 0, Tempo, 582354
1, 0, SMPTE_offset, 96, 0, 0, 0, 0
1, 0, Time_signature, 4, 2, 24, 8
1, 0, Key_signature, -1, "minor"
1, 5, System_exclusive, 6, 0, 32, 36, 0, 68, 247
1, 10, System_exclusive, 6, 0, 32, 36, 0, 3, 247
1, 15, System_exclusive, 6, 0, 32, 36, 0, 0, 247
1, 50, System_exclusive, 9, 0, 0, 11, 52, 52, 16, 0, 127, 247
1, 235, System_exclusive, 27, 0, 32, 36, 0, 4, 34, 76, 69, 70, 84, 32, 79, 85, 84, 83, 73, 68, 69, 32, 65, 76, 79, 78, 69, 34, 10, 247
1, 240, System_exclusive, 10, 65, 16, 66, 18, 64, 0, 127, 0, 65, 247
1, 240, System_exclusive, 18, 0, 32, 36, 0, 5, 40, 65, 110, 97, 115, 116, 97, 99, 105, 97, 41, 10, 247
1, 245, System_exclusive, 39, 0, 32, 36, 0, 6, 85, 110, 105, 118, 101, 114, 115, 97, 108, 32, 77, 117, 115, 105, 99, 32, 80, 117, 98, 108, 105, 115, 104, 105, 110, 103, 32, 73, 116, 97, 108, 121, 10, 247
1, 250, System_exclusive, 7, 0, 32, 36, 0, 7, 10, 247
1, 260, System_exclusive, 6, 0, 32, 36, 0, 8, 247
1, 480, System_exclusive, 25, 65, 16, 66, 18, 64, 1, 16, 3, 0, 1, 1, 1, 0, 1, 2, 2, 2, 2, 2, 1, 2, 2, 2, 23, 247
1, 490, System_exclusive, 10, 65, 16, 66, 18, 64, 1, 48, 5, 10, 247
1, 500, System_exclusive, 10, 65, 16, 66, 18, 64, 1, 56, 2, 5, 247
1, 510, System_exclusive, 10, 65, 16, 66, 18, 64, 1, 58, 100, 33, 247
1, 520, System_exclusive, 10, 65, 16, 66, 18, 64, 1, 51, 100, 40, 247
1, 530, System_exclusive, 10, 65, 16, 66, 18, 64, 0, 4, 127, 61, 247
1, 540, System_exclusive, 25, 65, 16, 66, 18, 64, 1, 0, 40, 99, 41, 66, 121, 32, 77, 45, 76, 73, 86, 69, 32, 115, 114, 108, 21, 247
1, 570, Program_c, 1, 33
1, 570, Program_c, 5, 24
1, 575, Control_c, 1, 7, 115
1, 575, Control_c, 1, 10, 64
1, 575, Control_c, 1, 11, 127
1, 575, Control_c, 5, 7, 127
1, 575, Control_c, 5, 10, 64
1, 575, Control_c, 5, 11, 127
1, 580, Control_c, 1, 91, 0
1, 580, Control_c, 1, 93, 10
1, 580, Control_c, 5, 91, 90
1, 580, Control_c, 5, 93, 15
1, 580, System_exclusive, 6, 0, 32, 36, 0, 8, 247
1, 595, Program_c, 2, 119
1, 600, Control_c, 2, 7, 127
1, 600, Control_c, 2, 10, 64
1, 600, Control_c, 2, 11, 127
1, 605, Control_c, 2, 91, 127
1, 605, Control_c, 2, 93, 30
1, 620, Program_c, 3, 73
1, 625, Control_c, 3, 7, 103
1, 625, Control_c, 3, 10, 64
1, 625, Control_c, 3, 11, 127
1, 630, Control_c, 3, 91, 75
1, 630, Control_c, 3, 93, 0
1, 645, Program_c, 4, 52
1, 650, Control_c, 4, 7, 115
1, 650, Control_c, 4, 10, 64
1, 650, Control_c, 4, 11, 127
1, 655, Control_c, 4, 91, 40
1, 655, Control_c, 4, 93, 0
1, 660, Control_c, 4, 17, 8
1, 665, Control_c, 4, 16, 0
1, 695, Program_c, 6, 49
1, 700, Control_c, 6, 7, 127
1, 700, Control_c, 6, 10, 40
1, 700, Control_c, 6, 11, 127
1, 705, Control_c, 6, 91, 90
1, 705, Control_c, 6, 93, 10
1, 705, Pitch_bend_c, 6, 8442
1, 720, Program_c, 7, 49
1, 725, Control_c, 7, 7, 127
1, 725, Control_c, 7, 10, 55
1, 725, Control_c, 7, 11, 127
1, 730, Control_c, 7, 91, 90
1, 730, Control_c, 7, 93, 10
1, 730, Pitch_bend_c, 7, 8070
1, 745, Program_c, 8, 49
1, 750, Control_c, 8, 7, 127
1, 750, Control_c, 8, 10, 88
1, 750, Control_c, 8, 11, 127
1, 755, Control_c, 8, 91, 90
1, 755, Control_c, 8, 93, 10
1, 770, Program_c, 9, 48
1, 775, Control_c, 9, 7, 127
1, 775, Control_c, 9, 10, 64
1, 775, Control_c, 9, 11, 127
1, 780, Control_c, 9, 91, 127
1, 780, Control_c, 9, 93, 30
1, 805, Program_c, 10, 99
1, 810, Control_c, 10, 7, 127
1, 810, Control_c, 10, 10, 64
1, 810, Control_c, 10, 11, 101
1, 815, Control_c, 10, 91, 90
1, 815, Control_c, 10, 93, 30
1, 820, Program_c, 11, 28
1, 825, Control_c, 11, 7, 115
1, 825, Control_c, 11, 10, 64
1, 825, Control_c, 11, 11, 127
1, 830, Control_c, 11, 91, 50
1, 830, Control_c, 11, 93, 30
1, 845, Program_c, 12, 29
1, 850, Control_c, 12, 7, 73
1, 850, Control_c, 12, 10, 64
1, 850, Control_c, 12, 11, 127
1, 854, System_exclusive, 6, 0, 32, 36, 0, 8, 247
1, 855, Control_c, 12, 91, 50
1, 855, Control_c, 12, 93, 30
1, 870, Program_c, 13, 28
1, 875, Control_c, 13, 7, 115
1, 875, Control_c, 13, 10, 64
1, 875, Control_c, 13, 11, 127
1, 880, Control_c, 13, 91, 50
1, 880, Control_c, 13, 93, 30
1, 895, Program_c, 14, 30
1, 900, Control_c, 14, 7, 85
1, 900, Control_c, 14, 10, 16
1, 900, Control_c, 14, 11, 127
1, 905, Control_c, 14, 91, 90
1, 905, Control_c, 14, 93, 30
1, 905, Pitch_bend_c, 14, 8070
1, 920, Program_c, 15, 30
1, 925, Control_c, 15, 7, 85
1, 925, Control_c, 15, 10, 112
1, 925, Control_c, 15, 11, 127
1, 930, Control_c, 15, 91, 90
1, 930, Control_c, 15, 93, 30
1, 930, Pitch_bend_c, 15, 8442
1, 1552, Control_c, 10, 10, 15
1, 1578, Control_c, 10, 10, 17
1, 1590, Control_c, 10, 10, 18
1, 1617, Control_c, 10, 10, 20
1, 1644, Control_c, 10, 10, 22
1, 1678, Note_on_c, 5, 57, 97
1, 1682, Note_on_c, 10, 62, 75
1, 1722, Note_on_c, 10, 62, 0
1, 1778, Note_on_c, 5, 57, 0
1, 1798, Note_on_c, 5, 57, 100
1, 1799, Note_on_c, 10, 62, 74
1, 1839, Note_on_c, 10, 62, 0
1, 1898, Note_on_c, 5, 57, 0
1, 1920, Note_on_c, 5, 57, 123
1, 1922, Note_on_c, 10, 62, 75
1, 1959, Control_c, 10, 10, 23
1, 1962, Note_on_c, 10, 62, 0
1, 1971, Control_c, 10, 10, 26
1, 1984, Control_c, 10, 10, 32
1, 1997, Control_c, 10, 10, 38
1, 2012, Control_c, 10, 10, 45
1, 2023, Control_c, 10, 10, 51
1, 2037, Control_c, 10, 10, 56
1, 2041, Note_on_c, 10, 62, 55
1, 2049, Control_c, 10, 10, 60
1, 2062, Control_c, 10, 10, 64
1, 2077, Control_c, 10, 10, 67
1, 2080, Note_on_c, 5, 57, 0
1, 2081, Note_on_c, 10, 62, 0
1, 2089, Control_c, 10, 10, 70
1, 2102, Control_c, 10, 10, 74
1, 2103, Note_on_c, 5, 58, 87
1, 2115, Control_c, 10, 10, 82
1, 2129, Control_c, 10, 10, 88
1, 2143, Note_on_c, 5, 58, 0
1, 2143, Control_c, 10, 10, 91
1, 2155, Control_c, 10, 10, 95
1, 2160, Note_on_c, 5, 57, 88
1, 2162, Note_on_c, 10, 62, 74
1, 2168, Control_c, 10, 10, 98
1, 2181, Control_c, 10, 10, 101
1, 2196, Control_c, 10, 10, 105
1, 2202, Note_on_c, 10, 62, 0
1, 2208, Control_c, 10, 10, 108
1, 2220, Control_c, 10, 10, 111
1, 2233, Control_c, 10, 10, 114
1, 2260, Note_on_c, 5, 57, 0
1, 2261, Control_c, 10, 10, 116
1, 2279, Note_on_c, 10, 62, 75
1, 2282, Note_on_c, 5, 55, 95
1, 2319, Note_on_c, 10, 62, 0
1, 2382, Note_on_c, 5, 55, 0
1, 2400, Note_on_c, 5, 57, 124
1, 2403, Note_on_c, 10, 62, 54
1, 2406, Control_c, 10, 10, 113
1, 2418, Control_c, 10, 10, 111
1, 2430, Control_c, 10, 10, 108
1, 2436, System_exclusive, 36, 0, 32, 36, 0, 4, 65, 76, 76, 32, 77, 89, 32, 76, 73, 70, 69, 32, 73, 39, 86, 69, 32, 66, 69, 69, 78, 32, 87, 65, 73, 84, 73, 78, 71, 10, 247
1, 2441, System_exclusive, 43, 0, 32, 36, 0, 5, 70, 79, 82, 32, 89, 79, 85, 32, 84, 79, 32, 66, 82, 73, 78, 71, 32, 65, 32, 70, 65, 73, 82, 89, 32, 84, 65, 76, 69, 32, 77, 89, 32, 87, 65, 89, 10, 247
1, 2443, Note_on_c, 10, 62, 0
1, 2443, Control_c, 10, 10, 101
1, 2446, System_exclusive, 23, 0, 32, 36, 0, 6, 66, 69, 69, 78, 32, 76, 73, 86, 73, 78, 71, 32, 73, 78, 32, 65, 10, 247
1, 2451, System_exclusive, 7, 0, 32, 36, 0, 7, 10, 247
1, 2458, Control_c, 10, 10, 92
1, 2461, System_exclusive, 6, 0, 32, 36, 0, 8, 247
1, 2470, Control_c, 10, 10, 84
1, 2483, Control_c, 10, 10, 75
1, 2496, Control_c, 10, 10, 65
1, 2509, Pitch_bend_c, 5, 8576
1, 2510, Control_c, 10, 10, 54
1, 2520, Note_on_c, 10, 62, 40
1, 2524, Control_c, 10, 10, 44
1, 2528, Pitch_bend_c, 5, 8704
1, 2536, Control_c, 10, 10, 35
1, 2549, Control_c, 10, 10, 27
1, 2554, Pitch_bend_c, 5, 8576
1, 2559, Pitch_bend_c, 5, 8320
1, 2560, Note_on_c, 10, 62, 0
1, 2562, Control_c, 10, 10, 21
1, 2577, Control_c, 10, 10, 17
1, 2586, Pitch_bend_c, 5, 8192
1, 2602, Control_c, 10, 10, 16
1, 2630, Pitch_bend_c, 5, 8576
1, 2636, Pitch_bend_c, 5, 8704
1, 2643, Note_on_c, 10, 62, 75
1, 2643, Pitch_bend_c, 5, 8960
1, 2683, Note_on_c, 10, 62, 0
1, 2688, Pitch_bend_c, 5, 8832
1, 2693, Pitch_bend_c, 5, 8576
1, 2700, Pitch_bend_c, 5, 8192
1, 2707, Pitch_bend_c, 5, 8192
1, 2733, Pitch_bend_c, 5, 8320
1, 2757, Pitch_bend_c, 5, 8576
1, 2758, Note_on_c, 10, 62, 55
1, 2764, Pitch_bend_c, 5, 8704
1, 2789, Pitch_bend_c, 5, 8960
1, 2796, Pitch_bend_c, 5, 9088
1, 2798, Note_on_c, 10, 62, 0
1, 2834, Pitch_bend_c, 5, 8960
1, 2846, Pitch_bend_c, 5, 8832
1, 2853, Pitch_bend_c, 5, 8576
1, 2873, Pitch_bend_c, 5, 8192
1, 2882, Note_on_c, 10, 62, 40
1, 2883, Note_on_c, 2, 60, 95
1, 2905, Control_c, 10, 10, 18
1, 2917, Control_c, 10, 10, 23
1, 2922, Note_on_c, 10, 62, 0
1, 2923, Pitch_bend_c, 5, 8832
1, 2929, Pitch_bend_c, 5, 8960
1, 2930, Control_c, 10, 10, 32
1, 2941, Pitch_bend_c, 5, 9216
1, 2943, Control_c, 10, 10, 43
1, 2958, Control_c, 10, 10, 53
1, 2968, Pitch_bend_c, 5, 9088
1, 2969, Control_c, 10, 10, 62
1, 2982, Control_c, 10, 10, 70
1, 2993, Pitch_bend_c, 5, 8832
1, 2995, Control_c, 10, 10, 76
1, 3001, Note_on_c, 10, 62, 74
1, 3005, Pitch_bend_c, 5, 8448
1, 3008, Control_c, 10, 10, 82
1, 3023, Control_c, 10, 10, 87
1, 3025, Pitch_bend_c, 5, 8192
1, 3035, Control_c, 10, 10, 92
1, 3041, Note_on_c, 10, 62, 0
1, 3048, Control_c, 10, 10, 97
1, 3061, Control_c, 10, 10, 102
1, 3063, Pitch_bend_c, 5, 8576
1, 3069, Pitch_bend_c, 5, 8832
1, 3074, Control_c, 10, 10, 106
1, 3076, Pitch_bend_c, 5, 8960
1, 3089, Control_c, 10, 10, 110
1, 3100, Control_c, 10, 10, 112
1, 3114, Control_c, 10, 10, 114
1, 3119, Note_on_c, 10, 62, 55
1, 3140, Control_c, 10, 10, 116
1, 3153, Pitch_bend_c, 5, 8448
1, 3158, Pitch_bend_c, 5, 8576
1, 3159, Note_on_c, 10, 62, 0
1, 3223, Pitch_bend_c, 5, 8704
1, 3229, Pitch_bend_c, 5, 9088
1, 3241, Pitch_bend_c, 5, 9344
1, 3242, Note_on_c, 10, 62, 41
1, 3282, Note_on_c, 10, 62, 0
1, 3286, Pitch_bend_c, 5, 8960
1, 3292, Pitch_bend_c, 5, 8832
1, 3298, Pitch_bend_c, 5, 8448
1, 3318, Pitch_bend_c, 5, 8192
1, 3361, Note_on_c, 10, 62, 74
1, 3369, Pitch_bend_c, 5, 8576
1, 3375, Pitch_bend_c, 5, 8832
1, 3382, Pitch_bend_c, 5, 8960
1, 3387, Pitch_bend_c, 5, 9216
1, 3401, Note_on_c, 10, 62, 0
1, 3414, Pitch_bend_c, 5, 9088
1, 3426, Pitch_bend_c, 5, 8832
1, 3439, Pitch_bend_c, 5, 8448
1, 3444, Control_c, 10, 10, 114
1, 3451, Pitch_bend_c, 5, 8192
1, 3455, Control_c, 10, 10, 111
1, 3470, Control_c, 10, 10, 107
1, 3481, Note_on_c, 10, 62, 54
1, 3481, Control_c, 10, 10, 100
1, 3490, Pitch_bend_c, 5, 8576
1, 3495, Control_c, 10, 10, 93
1, 3503, Pitch_bend_c, 5, 8704
1, 3508, Control_c, 10, 10, 86
1, 3520, Control_c, 10, 10, 79
1, 3521, Note_on_c, 10, 62, 0
1, 3521, Pitch_bend_c, 5, 9088
1, 3535, Control_c, 10, 10, 71
1, 3547, Control_c, 10, 10, 64
1, 3560, Control_c, 10, 10, 56
1, 3566, Pitch_bend_c, 5, 9088
1, 3572, Pitch_bend_c, 5, 8704
1, 3574, Control_c, 10, 10, 50
1, 3579, Pitch_bend_c, 5, 8576
1, 3587, Control_c, 10, 10, 45
1, 3598, Note_on_c, 10, 62, 75
1, 3599, Control_c, 10, 10, 39
1, 3613, Control_c, 10, 10, 34
1, 3626, Control_c, 10, 10, 29
1, 3638, Note_on_c, 10, 62, 0
1, 3639, Control_c, 10, 10, 25
1, 3643, Pitch_bend_c, 5, 8960
1, 3649, Pitch_bend_c, 5, 8960
1, 3653, Control_c, 10, 10, 21
1, 3662, Pitch_bend_c, 5, 9344
1, 3665, Control_c, 10, 10, 19
1, 3678, Control_c, 10, 10, 16
1, 3692, Control_c, 10, 10, 13
1, 3694, Pitch_bend_c, 5, 9088
1, 3705, Control_c, 10, 10, 11
1, 3706, Pitch_bend_c, 5, 8704
1, 3712, Pitch_bend_c, 5, 8448
1, 3720, Pitch_bend_c, 5, 8320
1, 3722, Note_on_c, 10, 62, 74
1, 3762, Note_on_c, 10, 62, 0
1, 3823, Note_on_c, 2, 60, 0
1, 3832, Note_on_c, 5, 57, 0
1, 3840, Note_on_c, 1, 34, 117
1, 3840, Note_on_c, 3, 82, 105
1, 3840, Note_on_c, 8, 53, 81
1, 3842, Note_on_c, 8, 34, 80
1, 3842, Note_on_c, 9, 57, 91
1, 3843, Note_on_c, 8, 46, 81
1, 3843, Note_on_c, 8, 50, 81
1, 3843, Note_on_c, 10, 62, 75
1, 3862, Note_on_c, 9, 57, 0
1, 3883, Note_on_c, 10, 62, 0
1, 3960, Note_on_c, 10, 62, 55
1, 3975, Pitch_bend_c, 5, 8320
1, 3980, Note_on_c, 1, 34, 0
1, 3982, Control_c, 10, 10, 13
1, 3993, Control_c, 10, 10, 14
1, 4000, Note_on_c, 10, 62, 0
1, 4007, Control_c, 10, 10, 16
1, 4020, Control_c, 10, 10, 19
1, 4034, Control_c, 10, 10, 29
1, 4046, Control_c, 10, 10, 39
1, 4059, Control_c, 10, 10, 49
1, 4072, Control_c, 10, 10, 58
1, 4082, Note_on_c, 1, 34, 112
1, 4082, Note_on_c, 10, 62, 74
1, 4086, Control_c, 10, 10, 68
1, 4100, Control_c, 10, 10, 76
1, 4112, Control_c, 10, 10, 82
1, 4122, Note_on_c, 10, 62, 0
1, 4125, Control_c, 10, 10, 88
1, 4138, Control_c, 10, 10, 92
1, 4151, Control_c, 10, 10, 97
1, 4165, Control_c, 10, 10, 102
1, 4177, Control_c, 10, 10, 107
1, 4190, Control_c, 10, 10, 111
1, 4200, Note_on_c, 10, 62, 75
1, 4204, Control_c, 10, 10, 115
1, 4217, Control_c, 10, 10, 116
1, 4222, Note_on_c, 1, 34, 0
1, 4240, Note_on_c, 10, 62, 0
1, 4271, Control_c, 10, 10, 118
1, 4300, Note_on_c, 3, 82, 0
1, 4320, Note_on_c, 3, 82, 104
1, 4320, Note_on_c, 10, 62, 54
1, 4321, Note_on_c, 1, 34, 117
1, 4360, Note_on_c, 10, 62, 0
1, 4415, Control_c, 10, 10, 116
1, 4427, Control_c, 10, 10, 112
1, 4440, Control_c, 10, 10, 109
1, 4443, Note_on_c, 10, 62, 40
1, 4453, Control_c, 10, 10, 106
1, 4461, Note_on_c, 1, 34, 0
1, 4466, Control_c, 10, 10, 103
1, 4480, Control_c, 10, 10, 98
1, 4483, Note_on_c, 10, 62, 0
1, 4492, Control_c, 10, 10, 92
1, 4506, Control_c, 10, 10, 85
1, 4518, Control_c, 10, 10, 77
1, 4532, Control_c, 10, 10, 71
1, 4546, Control_c, 10, 10, 64
1, 4558, Note_on_c, 1, 34, 111
1, 4558, Control_c, 10, 10, 58
1, 4560, Note_on_c, 10, 62, 75
1, 4571, Control_c, 10, 10, 53
1, 4584, Control_c, 10, 10, 48
1, 4598, Control_c, 10, 10, 44
1, 4600, Note_on_c, 10, 62, 0
1, 4612, Control_c, 10, 10, 41
1, 4624, Control_c, 10, 10, 37
1, 4637, Control_c, 10, 10, 31
1, 4650, Control_c, 10, 10, 27
1, 4665, Control_c, 10, 10, 22
1, 4677, Control_c, 10, 10, 17
1, 4678, Note_on_c, 10, 62, 55
1, 4690, Control_c, 10, 10, 15
1, 4698, Note_on_c, 1, 34, 0
1, 4702, Control_c, 10, 10, 13
1, 4718, Note_on_c, 10, 62, 0
1, 4780, Note_on_c, 3, 82, 0
1, 4799, Note_on_c, 1, 34, 114
1, 4799, Note_on_c, 10, 62, 40
1, 4800, Note_on_c, 3, 82, 105
1, 4839, Note_on_c, 10, 62, 0
1, 4919, Note_on_c, 10, 62, 74
1, 4939, Note_on_c, 1, 34, 0
1, 4941, Control_c, 10, 10, 16
1, 4952, Control_c, 10, 10, 22
1, 4959, Note_on_c, 10, 62, 0
1, 4965, Control_c, 10, 10, 32
1, 4980, Control_c, 10, 10, 41
1, 4992, Control_c, 10, 10, 47
1, 5005, Control_c, 10, 10, 53
1, 5018, Control_c, 10, 10, 59
1, 5020, Note_on_c, 3, 82, 0
1, 5031, Control_c, 10, 10, 64
1, 5038, Note_on_c, 1, 34, 115
1, 5040, Note_on_c, 3, 81, 105
1, 5040, Note_on_c, 10, 62, 55
1, 5046, Control_c, 10, 10, 70
1, 5058, Control_c, 10, 10, 76
1, 5071, Control_c, 10, 10, 82
1, 5080, Note_on_c, 10, 62, 0
1, 5084, Control_c, 10, 10, 87
1, 5096, Control_c, 10, 10, 92
1, 5111, Control_c, 10, 10, 96
1, 5124, Control_c, 10, 10, 100
1, 5136, Control_c, 10, 10, 105
1, 5149, Control_c, 10, 10, 109
1, 5160, Note_on_c, 10, 62, 41
1, 5162, Control_c, 10, 10, 113
1, 5177, Control_c, 10, 10, 115
1, 5178, Note_on_c, 1, 34, 0
1, 5200, Note_on_c, 10, 62, 0
1, 5202, Control_c, 10, 10, 117
1, 5242, Control_c, 10, 10, 118
1, 5260, Note_on_c, 3, 81, 0
1, 5280, Note_on_c, 3, 79, 104
1, 5281, Note_on_c, 1, 34, 118
1, 5281, Note_on_c, 10, 62, 74
1, 5321, Note_on_c, 10, 62, 0
1, 5387, Control_c, 10, 10, 116
1, 5399, Control_c, 10, 10, 114
1, 5401, Note_on_c, 10, 62, 54
1, 5412, Control_c, 10, 10, 111
1, 5421, Note_on_c, 1, 34, 0
1, 5427, Control_c, 10, 10, 108
1, 5438, Control_c, 10, 10, 104
1, 5441, Note_on_c, 10, 62, 0
1, 5451, Control_c, 10, 10, 101
1, 5464, Control_c, 10, 10, 97
1, 5477, Control_c, 10, 10, 93
1, 5492, Control_c, 10, 10, 89
1, 5500, Note_on_c, 3, 79, 0
1, 5504, Control_c, 10, 10, 85
1, 5517, Control_c, 10, 10, 81
1, 5520, Note_on_c, 3, 76, 105
1, 5521, Note_on_c, 10, 62, 75
1, 5522, Note_on_c, 1, 34, 114
1, 5530, Control_c, 10, 10, 76
1, 5543, Control_c, 10, 10, 72
1, 5558, Control_c, 10, 10, 68
1, 5561, Note_on_c, 10, 62, 0
1, 5570, Control_c, 10, 10, 65
1, 5583, Control_c, 10, 10, 61
1, 5596, Control_c, 10, 10, 56
1, 5609, Control_c, 10, 10, 52
1, 5624, Control_c, 10, 10, 47
1, 5636, Control_c, 10, 10, 43
1, 5640, Note_on_c, 10, 62, 74
1, 5649, Control_c, 10, 10, 39
1, 5662, Note_on_c, 1, 34, 0
1, 5662, Control_c, 10, 10, 35
1, 5676, Control_c, 10, 10, 30
1, 5680, Note_on_c, 10, 62, 0
1, 5687, Control_c, 10, 10, 26
1, 5701, Control_c, 10, 10, 22
1, 5714, Control_c, 10, 10, 18
1, 5727, Control_c, 10, 10, 14
1, 5740, Note_on_c, 8, 53, 0
1, 5742, Note_on_c, 8, 34, 0
1, 5742, Control_c, 10, 10, 13
1, 5743, Note_on_c, 8, 46, 0
1, 5743, Note_on_c, 8, 50, 0
1, 5750, Program_c, 9, 0
1, 5753, Control_c, 10, 10, 11
1, 5759, Note_on_c, 8, 48, 80
1, 5759, Note_on_c, 9, 51, 95
1, 5759, Note_on_c, 10, 62, 75
1, 5760, Note_on_c, 8, 52, 81
1, 5760, Note_on_c, 8, 55, 80
1, 5761, Note_on_c, 8, 36, 80
1, 5763, Note_on_c, 1, 36, 115
1, 5779, Note_on_c, 9, 51, 0
1, 5799, Note_on_c, 10, 62, 0
1, 5881, Note_on_c, 10, 62, 55
1, 5921, Note_on_c, 10, 62, 0
1, 5944, System_exclusive, 6, 0, 32, 36, 0, 8, 247
1, 5952, Control_c, 10, 10, 13
1, 5964, Control_c, 10, 10, 14
1, 5977, Control_c, 10, 10, 18
1, 5980, Note_on_c, 3, 76, 0
1, 5991, Control_c, 10, 10, 25
1, 5999, Note_on_c, 10, 62, 74
1, 6000, Note_on_c, 3, 76, 104
1, 6005, Control_c, 10, 10, 29
1, 6017, Control_c, 10, 10, 33
1, 6039, Note_on_c, 10, 62, 0
1, 6043, Control_c, 10, 10, 38
1, 6056, Control_c, 10, 10, 40
1, 6068, Control_c, 10, 10, 43
1, 6082, Control_c, 10, 10, 46
1, 6095, Control_c, 10, 10, 50
1, 6108, Control_c, 10, 10, 58
1, 6121, Note_on_c, 10, 62, 75
1, 6123, Control_c, 10, 10, 65
1, 6134, Control_c, 10, 10, 71
1, 6147, Control_c, 10, 10, 76
1, 6161, Note_on_c, 10, 62, 0
1, 6161, Control_c, 10, 10, 80
1, 6174, Control_c, 10, 10, 84
1, 6188, Control_c, 10, 10, 88
1, 6200, Control_c, 10, 10, 91
1, 6213, Control_c, 10, 10, 95
1, 6226, Control_c, 10, 10, 99
1, 6239, Control_c, 10, 10, 102
1, 6241, Note_on_c, 10, 62, 54
1, 6254, Control_c, 10, 10, 107
1, 6266, Control_c, 10, 10, 110
1, 6279, Control_c, 10, 10, 113
1, 6281, Note_on_c, 10, 62, 0
1, 6292, Control_c, 10, 10, 116
1, 6333, Control_c, 10, 10, 118
1, 6361, Note_on_c, 10, 62, 40
1, 6401, Note_on_c, 10, 62, 0
1, 6424, Control_c, 10, 10, 119
1, 6460, Note_on_c, 3, 76, 0
1, 6480, Note_on_c, 3, 76, 104
1, 6483, Note_on_c, 10, 62, 75
1, 6503, Control_c, 10, 10, 117
1, 6515, Control_c, 10, 10, 114
1, 6523, Note_on_c, 10, 62, 0
1, 6528, Control_c, 10, 10, 110
1, 6542, Control_c, 10, 10, 106
1, 6555, Control_c, 10, 10, 102
1, 6569, Control_c, 10, 10, 98
1, 6581, Control_c, 10, 10, 93
1, 6594, Control_c, 10, 10, 89
1, 6601, Note_on_c, 10, 62, 55
1, 6607, Control_c, 10, 10, 86
1, 6620, Control_c, 10, 10, 82
1, 6634, Control_c, 10, 10, 78
1, 6641, Note_on_c, 10, 62, 0
1, 6646, Control_c, 10, 10, 75
1, 6659, Control_c, 10, 10, 70
1, 6673, Control_c, 10, 10, 65
1, 6687, Control_c, 10, 10, 60
1, 6700, Note_on_c, 3, 76, 0
1, 6700, Control_c, 10, 10, 56
1, 6712, Control_c, 10, 10, 51
1, 6720, Note_on_c, 3, 76, 105
1, 6720, Note_on_c, 10, 62, 40
1, 6725, Control_c, 10, 10, 47
1, 6739, Control_c, 10, 10, 43
1, 6752, Control_c, 10, 10, 39
1, 6760, Note_on_c, 10, 62, 0
1, 6765, Control_c, 10, 10, 36
1, 6778, Control_c, 10, 10, 32
1, 6791, Control_c, 10, 10, 29
1, 6804, Control_c, 10, 10, 26
1, 6818, Control_c, 10, 10, 23
1, 6831, Control_c, 10, 10, 20
1, 6841, Note_on_c, 10, 62, 74
1, 6844, Control_c, 10, 10, 17
1, 6856, Control_c, 10, 10, 15
1, 6870, Control_c, 10, 10, 13
1, 6881, Note_on_c, 10, 62, 0
1, 6940, Note_on_c, 3, 76, 0
1, 6960, Note_on_c, 3, 77, 105
1, 6962, Note_on_c, 10, 62, 55
1, 7002, Note_on_c, 10, 62, 0
1, 7028, Control_c, 10, 10, 15
1, 7040, Control_c, 10, 10, 19
1, 7053, Control_c, 10, 10, 25
1, 7068, Control_c, 10, 10, 29
1, 7079, Note_on_c, 10, 62, 41
1, 7080, Control_c, 10, 10, 33
1, 7093, Control_c, 10, 10, 38
1, 7106, Control_c, 10, 10, 42
1, 7119, Note_on_c, 10, 62, 0
1, 7119, Control_c, 10, 10, 48
1, 7134, Control_c, 10, 10, 54
1, 7146, Control_c, 10, 10, 61
1, 7159, Control_c, 10, 10, 67
1, 7171, Control_c, 10, 10, 72
1, 7180, Note_on_c, 3, 77, 0
1, 7185, Control_c, 10, 10, 77
1, 7199, Control_c, 10, 10, 81
1, 7200, Note_on_c, 3, 79, 104
1, 7200, Note_on_c, 9, 59, 93
1, 7201, Note_on_c, 10, 62, 74
1, 7211, Control_c, 10, 10, 85
1, 7220, Note_on_c, 9, 59, 0
1, 7224, Control_c, 10, 10, 88
1, 7228, Pitch_bend_c, 1, 7808
1, 7237, Control_c, 10, 10, 91
1, 7241, Note_on_c, 10, 62, 0
1, 7250, Control_c, 10, 10, 95
1, 7254, Pitch_bend_c, 1, 7424
1, 7265, Control_c, 10, 10, 99
1, 7266, Pitch_bend_c, 1, 7296
1, 7277, Control_c, 10, 10, 103
1, 7290, Control_c, 10, 10, 107
1, 7292, Pitch_bend_c, 1, 7040
1, 7303, Control_c, 10, 10, 110
1, 7316, Control_c, 10, 10, 114
1, 7319, Pitch_bend_c, 1, 6656
1, 7321, Note_on_c, 10, 62, 54
1, 7331, Control_c, 10, 10, 116
1, 7344, Pitch_bend_c, 1, 6272
1, 7361, Note_on_c, 10, 62, 0
1, 7368, Control_c, 10, 10, 117
1, 7372, Pitch_bend_c, 1, 5888
1, 7385, Pitch_bend_c, 1, 5632
1, 7411, Pitch_bend_c, 1, 5504
1, 7420, Note_on_c, 3, 79, 0
1, 7423, Control_c, 10, 10, 119
1, 7438, Note_on_c, 10, 62, 75
1, 7438, Pitch_bend_c, 1, 5248
1, 7440, Note_on_c, 3, 82, 104
1, 7450, Pitch_bend_c, 1, 4864
1, 7463, Pitch_bend_c, 1, 4608
1, 7478, Note_on_c, 10, 62, 0
1, 7489, Pitch_bend_c, 1, 4480
1, 7517, Pitch_bend_c, 1, 3968
1, 7528, Pitch_bend_c, 1, 3840
1, 7542, Pitch_bend_c, 1, 3584
1, 7555, Pitch_bend_c, 1, 3072
1, 7562, Note_on_c, 10, 62, 74
1, 7567, Control_c, 10, 10, 116
1, 7569, Pitch_bend_c, 1, 2816
1, 7580, Control_c, 10, 10, 114
1, 7581, Pitch_bend_c, 1, 2304
1, 7592, Control_c, 10, 10, 111
1, 7594, Pitch_bend_c, 1, 1792
1, 7602, Note_on_c, 10, 62, 0
1, 7606, Control_c, 10, 10, 107
1, 7607, Pitch_bend_c, 1, 1408
1, 7618, Control_c, 10, 10, 103
1, 7620, Pitch_bend_c, 1, 768
1, 7631, Control_c, 10, 10, 99
1, 7635, Pitch_bend_c, 1, 256
1, 7646, Control_c, 10, 10, 94
1, 7648, Pitch_bend_c, 1, 0
1, 7658, Control_c, 10, 10, 86
1, 7659, Note_on_c, 8, 48, 0
1, 7660, Note_on_c, 3, 82, 0
1, 7660, Note_on_c, 8, 52, 0
1, 7660, Note_on_c, 8, 55, 0
1, 7661, Note_on_c, 8, 36, 0
1, 7663, Note_on_c, 1, 36, 0
1, 7671, Control_c, 10, 10, 78
1, 7678, Note_on_c, 8, 38, 81
1, 7680, Note_on_c, 8, 57, 81
1, 7680, Note_on_c, 9, 59, 66
1, 7682, Note_on_c, 1, 28, 117
1, 7682, Note_on_c, 8, 50, 80
1, 7682, Note_on_c, 10, 62, 75
1, 7684, Control_c, 10, 10, 70
1, 7697, Control_c, 10, 10, 65
1, 7700, Note_on_c, 9, 59, 0
1, 7711, Control_c, 10, 10, 60
1, 7722, Note_on_c, 10, 62, 0
1, 7724, Control_c, 10, 10, 55
1, 7736, Control_c, 10, 10, 51
1, 7750, Control_c, 10, 10, 47
1, 7763, Control_c, 10, 10, 44
1, 7777, Control_c, 10, 10, 40
1, 7789, Control_c, 10, 10, 37
1, 7799, Note_on_c, 10, 62, 55
1, 7802, Control_c, 10, 10, 34
1, 7815, Control_c, 10, 10, 31
1, 7830, Control_c, 10, 10, 29
1, 7839, Note_on_c, 10, 62, 0
1, 7842, Control_c, 10, 10, 26
1, 7855, Control_c, 10, 10, 23
1, 7868, Control_c, 10, 10, 22
1, 7881, Control_c, 10, 10, 20
1, 7896, Control_c, 10, 10, 18
1, 7908, Control_c, 10, 10, 16
1, 7920, Note_on_c, 3, 81, 105
1, 7921, Note_on_c, 10, 62, 74
1, 7921, Control_c, 10, 10, 14
1, 7946, Control_c, 10, 10, 12
1, 7961, Note_on_c, 10, 62, 0
1, 8038, Note_on_c, 10, 62, 75
1, 8078, Note_on_c, 10, 62, 0
1, 8132, Control_c, 10, 10, 14
1, 8145, Control_c, 10, 10, 17
1, 8157, Control_c, 10, 10, 23
1, 8159, Note_on_c, 10, 62, 54
1, 8170, Control_c, 10, 10, 30
1, 8183, Control_c, 10, 10, 35
1, 8196, Control_c, 10, 10, 41
1, 8199, Note_on_c, 10, 62, 0
1, 8211, Control_c, 10, 10, 45
1, 8222, Control_c, 10, 10, 50
1, 8236, Control_c, 10, 10, 57
1, 8249, Control_c, 10, 10, 63
1, 8262, Control_c, 10, 10, 69
1, 8277, Control_c, 10, 10, 74
1, 8280, Note_on_c, 10, 62, 40
1, 8288, Control_c, 10, 10, 76
1, 8302, Control_c, 10, 10, 78
1, 8315, Control_c, 10, 10, 81
1, 8320, Note_on_c, 10, 62, 0
1, 8327, Control_c, 10, 10, 83
1, 8342, Control_c, 10, 10, 87
1, 8354, Control_c, 10, 10, 91
1, 8367, Control_c, 10, 10, 95
1, 8380, Note_on_c, 3, 81, 0
1, 8380, Control_c, 10, 10, 100
1, 8393, Control_c, 10, 10, 104
1, 8400, Note_on_c, 3, 81, 105
1, 8400, Note_on_c, 10, 62, 75
1, 8408, Control_c, 10, 10, 107
1, 8420, Control_c, 10, 10, 110
1, 8433, Control_c, 10, 10, 113
1, 8440, Note_on_c, 10, 62, 0
1, 8446, Control_c, 10, 10, 115
1, 8486, Control_c, 10, 10, 117
1, 8519, Note_on_c, 10, 62, 55
1, 8559, Note_on_c, 10, 62, 0
1, 8565, Control_c, 10, 10, 118
1, 8620, Note_on_c, 3, 81, 0
1, 8640, Note_on_c, 3, 79, 104
1, 8640, Note_on_c, 10, 62, 40
1, 8680, Note_on_c, 10, 62, 0
1, 8749, Control_c, 10, 10, 115
1, 8761, Control_c, 10, 10, 113
1, 8763, Note_on_c, 10, 62, 74
1, 8774, Control_c, 10, 10, 110
1, 8789, Control_c, 10, 10, 107
1, 8800, Control_c, 10, 10, 103
1, 8803, Note_on_c, 10, 62, 0
1, 8814, Control_c, 10, 10, 99
1, 8827, Control_c, 10, 10, 95
1, 8841, Control_c, 10, 10, 91
1, 8853, Control_c, 10, 10, 86
1, 8866, Control_c, 10, 10, 82
1, 8879, Note_on_c, 10, 62, 55
1, 8879, Control_c, 10, 10, 78
1, 8892, Control_c, 10, 10, 74
1, 8906, Control_c, 10, 10, 70
1, 8918, Control_c, 10, 10, 66
1, 8919, Note_on_c, 10, 62, 0
1, 8931, Control_c, 10, 10, 62
1, 8945, Control_c, 10, 10, 58
1, 8958, Control_c, 10, 10, 53
1, 8972, Control_c, 10, 10, 50
1, 8997, Control_c, 10, 10, 42
1, 9003, Note_on_c, 10, 62, 41
1, 9011, Control_c, 10, 10, 39
1, 9024, Control_c, 10, 10, 36
1, 9038, Control_c, 10, 10, 32
1, 9043, Note_on_c, 10, 62, 0
1, 9050, Control_c, 10, 10, 28
1, 9063, Control_c, 10, 10, 24
1, 9076, Control_c, 10, 10, 20
1, 9089, Control_c, 10, 10, 16
1, 9100, Note_on_c, 3, 79, 0
1, 9103, Control_c, 10, 10, 14
1, 9120, Note_on_c, 3, 81, 104
1, 9120, Note_on_c, 10, 62, 74
1, 9158, Control_c, 6, 11, 27
1, 9160, Note_on_c, 10, 62, 0
1, 9163, Control_c, 7, 11, 27
1, 9197, Control_c, 6, 11, 29
1, 9202, Control_c, 7, 11, 29
1, 9222, Control_c, 6, 11, 31
1, 9227, Control_c, 7, 11, 31
1, 9239, Note_on_c, 10, 62, 54
1, 9250, Control_c, 6, 11, 31
1, 9255, Control_c, 7, 11, 31
1, 9275, Control_c, 6, 11, 34
1, 9279, Note_on_c, 10, 62, 0
1, 9280, Control_c, 7, 11, 34
1, 9302, Control_c, 6, 11, 35
1, 9307, Control_c, 7, 11, 35
1, 9340, Note_on_c, 3, 81, 0
1, 9340, Control_c, 6, 11, 37
1, 9340, Control_c, 10, 10, 17
1, 9345, Control_c, 7, 11, 37
1, 9353, Control_c, 10, 10, 19
1, 9360, Note_on_c, 3, 77, 105
1, 9363, Note_on_c, 10, 62, 75
1, 9365, Control_c, 10, 10, 24
1, 9378, Control_c, 10, 10, 31
1, 9392, Control_c, 10, 10, 38
1, 9403, Note_on_c, 10, 62, 0
1, 9405, Control_c, 10, 10, 45
1, 9418, Control_c, 10, 10, 51
1, 9430, System_exclusive, 6, 0, 32, 36, 0, 8, 247
1, 9431, Control_c, 10, 10, 54
1, 9434, Control_c, 6, 11, 38
1, 9439, Control_c, 7, 11, 38
1, 9444, Control_c, 10, 10, 58
1, 9457, Control_c, 10, 10, 61
1, 9459, Control_c, 6, 11, 41
1, 9464, Control_c, 7, 11, 41
1, 9471, Control_c, 10, 10, 65
1, 9481, Note_on_c, 10, 62, 74
1, 9484, Control_c, 10, 10, 70
1, 9486, Control_c, 6, 11, 42
1, 9491, Control_c, 7, 11, 42
1, 9496, Control_c, 10, 10, 75
1, 9509, Control_c, 10, 10, 80
1, 9512, Control_c, 6, 11, 44
1, 9517, Control_c, 7, 11, 44
1, 9521, Note_on_c, 10, 62, 0
1, 9523, Note_on_c, 9, 51, 84
1, 9523, Control_c, 10, 10, 85
1, 9537, Control_c, 6, 11, 47
1, 9537, Control_c, 10, 10, 89
1, 9542, Control_c, 7, 11, 47
1, 9549, Control_c, 10, 10, 92
1, 9562, Control_c, 10, 10, 95
1, 9565, Control_c, 6, 11, 49
1, 9570, Control_c, 7, 11, 49
1, 9575, Control_c, 10, 10, 97
1, 9579, Note_on_c, 9, 51, 0
1, 9580, Note_on_c, 8, 57, 0
1, 9589, Control_c, 10, 10, 100
1, 9590, Control_c, 6, 11, 48
1, 9595, Control_c, 7, 11, 48
1, 9598, Note_on_c, 9, 51, 113
1, 9599, Note_on_c, 6, 72, 81
1, 9599, Note_on_c, 7, 65, 81
1, 9599, Note_on_c, 10, 62, 75
1, 9600, Note_on_c, 6, 76, 80
1, 9601, Note_on_c, 7, 67, 80
1, 9603, Note_on_c, 7, 62, 81
1, 9603, Note_on_c, 8, 53, 80
1, 9603, Control_c, 10, 10, 104
1, 9615, Control_c, 10, 10, 107
1, 9618, Control_c, 6, 11, 50
1, 9623, Control_c, 7, 11, 50
1, 9628, Control_c, 10, 10, 110
1, 9630, Control_c, 6, 11, 53
1, 9635, Control_c, 7, 11, 53
1, 9639, Note_on_c, 10, 62, 0
1, 9640, Control_c, 10, 10, 112
1, 9654, Control_c, 10, 10, 114
1, 9655, Control_c, 6, 11, 55
1, 9660, Control_c, 7, 11, 55
1, 9681, Control_c, 10, 10, 116
1, 9683, Control_c, 6, 11, 56
1, 9688, Control_c, 7, 11, 56
1, 9708, Control_c, 6, 11, 58
1, 9713, Control_c, 7, 11, 58
1, 9722, Note_on_c, 10, 62, 55
1, 9733, Note_on_c, 9, 51, 0
1, 9734, Control_c, 6, 11, 61
1, 9739, Control_c, 7, 11, 61
1, 9749, Control_c, 6, 11, 62
1, 9754, Control_c, 7, 11, 62
1, 9761, Control_c, 6, 11, 65
1, 9762, Note_on_c, 10, 62, 0
1, 9766, Control_c, 7, 11, 65
1, 9787, Control_c, 6, 11, 67
1, 9792, Control_c, 7, 11, 67
1, 9815, Control_c, 6, 11, 68
1, 9820, Control_c, 7, 11, 68
1, 9840, Note_on_c, 10, 62, 74
1, 9840, Control_c, 6, 11, 71
1, 9845, Control_c, 7, 11, 71
1, 9867, Control_c, 6, 11, 72
1, 9872, Control_c, 7, 11, 72
1, 9878, Control_c, 10, 10, 114
1, 9880, Note_on_c, 10, 62, 0
1, 9890, Control_c, 10, 10, 111
1, 9892, Control_c, 6, 11, 74
1, 9897, Control_c, 7, 11, 74
1, 9903, Control_c, 10, 10, 107
1, 9918, Control_c, 6, 11, 77
1, 9918, Control_c, 10, 10, 102
1, 9923, Control_c, 7, 11, 77
1, 9930, Control_c, 10, 10, 95
1, 9943, Control_c, 10, 10, 90
1, 9946, Control_c, 6, 11, 79
1, 9951, Control_c, 7, 11, 79
1, 9956, Control_c, 10, 10, 84
1, 9961, Note_on_c, 10, 62, 75
1, 9970, Control_c, 10, 10, 79
1, 9971, Control_c, 6, 11, 78
1, 9976, Control_c, 7, 11, 78
1, 9984, Control_c, 10, 10, 74
1, 9996, Control_c, 10, 10, 69
1, 9999, Control_c, 6, 11, 80
1, 10001, Note_on_c, 10, 62, 0
1, 10004, Control_c, 7, 11, 80
1, 10009, Control_c, 10, 10, 64
1, 10022, Control_c, 10, 10, 59
1, 10024, Control_c, 6, 11, 83
1, 10029, Control_c, 7, 11, 83
1, 10035, Control_c, 10, 10, 55
1, 10037, Control_c, 6, 11, 85
1, 10042, Control_c, 7, 11, 85
1, 10049, Control_c, 10, 10, 51
1, 10060, Note_on_c, 3, 77, 0
1, 10061, Control_c, 10, 10, 47
1, 10064, Control_c, 6, 11, 86
1, 10069, Control_c, 7, 11, 86
1, 10074, Control_c, 10, 10, 43
1, 10082, Note_on_c, 10, 62, 54
1, 10087, Control_c, 10, 10, 40
1, 10089, Control_c, 6, 11, 88
1, 10094, Control_c, 7, 11, 88
1, 10100, Control_c, 10, 10, 37
1, 10115, Control_c, 10, 10, 34
1, 10117, Control_c, 6, 11, 91
1, 10122, Note_on_c, 10, 62, 0
1, 10122, Control_c, 7, 11, 91
1, 10127, Control_c, 10, 10, 31
1, 10130, Control_c, 6, 11, 92
1, 10135, Control_c, 7, 11, 92
1, 10140, Control_c, 10, 10, 27
1, 10153, Control_c, 10, 10, 24
1, 10155, Control_c, 6, 11, 95
1, 10160, Control_c, 7, 11, 95
1, 10166, Control_c, 10, 10, 21
1, 10181, Control_c, 10, 10, 19
1, 10183, Control_c, 6, 11, 97
1, 10188, Control_c, 7, 11, 97
1, 10193, Control_c, 10, 10, 17
1, 10198, Note_on_c, 10, 62, 40
1, 10206, Control_c, 10, 10, 15
1, 10221, Control_c, 6, 11, 98
1, 10226, Control_c, 7, 11, 98
1, 10233, Control_c, 10, 10, 14
1, 10238, Note_on_c, 10, 62, 0
1, 10261, Control_c, 6, 11, 99
1, 10266, Control_c, 7, 11, 99
1, 10286, Control_c, 6, 11, 100
1, 10291, Control_c, 7, 11, 100
1, 10319, Note_on_c, 10, 62, 75
1, 10320, Note_on_c, 3, 74, 104
1, 10340, Control_c, 6, 11, 102
1, 10345, Control_c, 7, 11, 102
1, 10359, Note_on_c, 10, 62, 0
1, 10380, Control_c, 6, 11, 105
1, 10385, Control_c, 7, 11, 105
1, 10418, Control_c, 6, 11, 105
1, 10423, Control_c, 7, 11, 105
1, 10442, Note_on_c, 10, 62, 55
1, 10456, Control_c, 10, 10, 15
1, 10458, Control_c, 6, 11, 106
1, 10463, Control_c, 7, 11, 106
1, 10468, Control_c, 10, 10, 17
1, 10481, Control_c, 10, 10, 20
1, 10482, Note_on_c, 10, 62, 0
1, 10483, Control_c, 6, 11, 108
1, 10488, Control_c, 7, 11, 108
1, 10496, Control_c, 10, 10, 25
1, 10508, Control_c, 10, 10, 30
1, 10511, Control_c, 6, 11, 111
1, 10516, Control_c, 7, 11, 111
1, 10521, Control_c, 10, 10, 32
1, 10534, Control_c, 10, 10, 34
1, 10536, Control_c, 6, 11, 113
1, 10540, Note_on_c, 3, 74, 0
1, 10540, Note_on_c, 6, 76, 0
1, 10541, Control_c, 7, 11, 113
1, 10547, Control_c, 10, 10, 37
1, 10559, Note_on_c, 10, 62, 40
1, 10560, Note_on_c, 3, 74, 105
1, 10562, Note_on_c, 6, 77, 81
1, 10562, Control_c, 10, 10, 41
1, 10563, Control_c, 6, 11, 114
1, 10568, Control_c, 7, 11, 114
1, 10574, Control_c, 10, 10, 44
1, 10586, Control_c, 10, 10, 48
1, 10588, Control_c, 6, 11, 114
1, 10593, Control_c, 7, 11, 114
1, 10599, Note_on_c, 10, 62, 0
1, 10599, Control_c, 10, 10, 52
1, 10614, Control_c, 6, 11, 117
1, 10614, Control_c, 10, 10, 55
1, 10619, Control_c, 7, 11, 117
1, 10626, Control_c, 10, 10, 58
1, 10639, Control_c, 10, 10, 62
1, 10652, Control_c, 10, 10, 66
1, 10665, Control_c, 10, 10, 69
1, 10668, Control_c, 6, 11, 118
1, 10673, Control_c, 7, 11, 118
1, 10679, Note_on_c, 10, 62, 74
1, 10680, Control_c, 10, 10, 72
1, 10692, Control_c, 10, 10, 75
1, 10694, Control_c, 6, 11, 121
1, 10699, Control_c, 7, 11, 121
1, 10705, Control_c, 10, 10, 77
1, 10718, Control_c, 10, 10, 81
1, 10719, Note_on_c, 10, 62, 0
1, 10719, Control_c, 6, 11, 123
1, 10724, Control_c, 7, 11, 123
1, 10731, Control_c, 10, 10, 85
1, 10746, Control_c, 10, 10, 89
1, 10757, Control_c, 10, 10, 92
1, 10771, Control_c, 10, 10, 95
1, 10774, Control_c, 6, 11, 122
1, 10779, Control_c, 7, 11, 122
1, 10780, Note_on_c, 3, 74, 0
1, 10784, Control_c, 10, 10, 97
1, 10796, Control_c, 10, 10, 100
1, 10798, Control_c, 6, 11, 125
1, 10799, Note_on_c, 10, 62, 55
1, 10800, Note_on_c, 3, 76, 105
1, 10803, Control_c, 7, 11, 125
1, 10811, Control_c, 10, 10, 103
1, 10823, Control_c, 10, 10, 105
1, 10836, Control_c, 10, 10, 106
1, 10839, Note_on_c, 10, 62, 0
1, 10839, Control_c, 6, 11, 126
1, 10844, Control_c, 7, 11, 126
1, 10862, Control_c, 10, 10, 108
1, 10890, Control_c, 10, 10, 110
1, 10902, Control_c, 10, 10, 111
1, 10921, Note_on_c, 10, 62, 41
1, 10929, Control_c, 10, 10, 113
1, 10961, Note_on_c, 10, 62, 0
1, 10981, Control_c, 10, 10, 114
1, 11008, Control_c, 10, 10, 116
1, 11019, Note_on_c, 6, 72, 0
1, 11020, Note_on_c, 3, 76, 0
1, 11040, Note_on_c, 3, 77, 104
1, 11041, Note_on_c, 6, 72, 81
1, 11042, Note_on_c, 7, 60, 81
1, 11042, Note_on_c, 10, 62, 74
1, 11082, Note_on_c, 10, 62, 0
1, 11100, Control_c, 10, 10, 114
1, 11112, Control_c, 10, 10, 111
1, 11126, Control_c, 10, 10, 106
1, 11138, Control_c, 10, 10, 100
1, 11151, Control_c, 10, 10, 95
1, 11159, Note_on_c, 10, 62, 54
1, 11165, Control_c, 10, 10, 89
1, 11177, Control_c, 10, 10, 84
1, 11192, Control_c, 10, 10, 79
1, 11199, Note_on_c, 10, 62, 0
1, 11204, Control_c, 10, 10, 75
1, 11217, Control_c, 10, 10, 70
1, 11230, Control_c, 10, 10, 66
1, 11244, Control_c, 10, 10, 62
1, 11258, Control_c, 10, 10, 57
1, 11260, Note_on_c, 3, 77, 0
1, 11269, Control_c, 10, 10, 52
1, 11280, Note_on_c, 3, 81, 105
1, 11282, Note_on_c, 10, 62, 75
1, 11283, Control_c, 10, 10, 48
1, 11296, Control_c, 10, 10, 44
1, 11310, Control_c, 10, 10, 41
1, 11316, System_exclusive, 30, 0, 32, 36, 0, 4, 70, 65, 78, 84, 65, 83, 89, 32, 87, 73, 84, 72, 79, 85, 84, 32, 77, 69, 65, 78, 73, 78, 71, 10, 247
1, 11321, System_exclusive, 38, 0, 32, 36, 0, 5, 73, 84, 39, 83, 32, 78, 79, 84, 32, 79, 75, 65, 89, 32, 73, 32, 68, 79, 78, 39, 84, 32, 70, 69, 69, 76, 32, 83, 65, 70, 69, 10, 247
1, 11322, Note_on_c, 10, 62, 0
1, 11322, Control_c, 10, 10, 38
1, 11326, System_exclusive, 30, 0, 32, 36, 0, 6, 73, 32, 65, 77, 32, 70, 69, 69, 76, 32, 83, 65, 70, 69, 32, 79, 72, 32, 79, 72, 32, 79, 72, 10, 247
1, 11331, System_exclusive, 7, 0, 32, 36, 0, 7, 10, 247
1, 11335, Control_c, 10, 10, 34
1, 11341, System_exclusive, 6, 0, 32, 36, 0, 8, 247
1, 11348, Control_c, 10, 10, 31
1, 11362, Control_c, 10, 10, 29
1, 11375, Control_c, 10, 10, 26
1, 11387, Control_c, 10, 10, 24
1, 11400, Note_on_c, 10, 62, 74
1, 11401, Control_c, 10, 10, 23
1, 11427, Control_c, 10, 10, 21
1, 11440, Note_on_c, 10, 62, 0
1, 11498, Note_on_c, 8, 38, 0
1, 11500, Note_on_c, 3, 81, 0
1, 11501, Note_on_c, 7, 67, 0
1, 11502, Note_on_c, 1, 28, 0
1, 11502, Note_on_c, 6, 77, 0
1, 11502, Note_on_c, 8, 50, 0
1, 11503, Note_on_c, 8, 53, 0
1, 11505, Control_c, 9, 10, 96
1, 11510, Pitch_bend_c, 1, 8320
1, 11514, Control_c, 9, 11, 15
1, 11518, Note_on_c, 1, 34, 110
1, 11519, Note_on_c, 8, 53, 81
1, 11520, Note_on_c, 3, 82, 104
1, 11520, Note_on_c, 8, 46, 81
1, 11520, Note_on_c, 10, 62, 75
1, 11522, Note_on_c, 8, 34, 80
1, 11523, Note_on_c, 8, 50, 80
1, 11525, Note_on_c, 9, 52, 85
1, 11527, Control_c, 9, 11, 35
1, 11541, Control_c, 9, 11, 59
1, 11554, Control_c, 9, 11, 86
1, 11560, Note_on_c, 10, 62, 0
1, 11566, Control_c, 9, 11, 112
1, 11579, Control_c, 9, 11, 127
1, 11612, Control_c, 10, 10, 22
1, 11626, Control_c, 10, 10, 26
1, 11637, Control_c, 10, 10, 30
1, 11642, Note_on_c, 10, 62, 55
1, 11650, Control_c, 10, 10, 33
1, 11664, Control_c, 10, 10, 37
1, 11677, Control_c, 10, 10, 41
1, 11682, Note_on_c, 10, 62, 0
1, 11691, Control_c, 10, 10, 46
1, 11703, Control_c, 10, 10, 51
1, 11712, Control_c, 9, 11, 119
1, 11716, Control_c, 10, 10, 56
1, 11724, Control_c, 9, 11, 99
1, 11729, Control_c, 10, 10, 62
1, 11738, Control_c, 9, 11, 78
1, 11743, Control_c, 10, 10, 68
1, 11750, Control_c, 9, 11, 56
1, 11756, Control_c, 10, 10, 73
1, 11762, Control_c, 9, 11, 37
1, 11763, Note_on_c, 10, 62, 74
1, 11769, Control_c, 10, 10, 78
1, 11776, Control_c, 9, 11, 19
1, 11781, Control_c, 10, 10, 83
1, 11790, Control_c, 9, 11, 4
1, 11795, Control_c, 10, 10, 88
1, 11803, Note_on_c, 10, 62, 0
1, 11803, Control_c, 9, 11, 0
1, 11808, Control_c, 10, 10, 92
1, 11822, Control_c, 10, 10, 97
1, 11834, Control_c, 10, 10, 100
1, 11847, Control_c, 10, 10, 102
1, 11861, Control_c, 10, 10, 105
1, 11874, Control_c, 9, 11, 15
1, 11874, Control_c, 10, 10, 108
1, 11876, Note_on_c, 9, 52, 0
1, 11883, Note_on_c, 10, 62, 75
1, 11885, Note_on_c, 9, 52, 84
1, 11887, Control_c, 9, 11, 35
1, 11888, Control_c, 10, 10, 111
1, 11900, Control_c, 10, 10, 114
1, 11901, Control_c, 9, 11, 59
1, 11913, Control_c, 10, 10, 115
1, 11914, Control_c, 9, 11, 86
1, 11923, Note_on_c, 10, 62, 0
1, 11926, Control_c, 9, 11, 112
1, 11939, Control_c, 9, 11, 127
1, 11940, Control_c, 10, 10, 117
1, 11980, Note_on_c, 3, 82, 0
1, 11998, Note_on_c, 7, 64, 80
1, 11998, Note_on_c, 10, 62, 54
1, 12000, Note_on_c, 3, 82, 104
1, 12006, Control_c, 10, 10, 118
1, 12038, Note_on_c, 10, 62, 0
1, 12072, Control_c, 9, 11, 119
1, 12084, Control_c, 9, 11, 99
1, 12098, Control_c, 9, 11, 78
1, 12110, Control_c, 9, 11, 56
1, 12120, Note_on_c, 10, 62, 40
1, 12122, Control_c, 9, 11, 37
1, 12124, Control_c, 10, 10, 117
1, 12136, Control_c, 9, 11, 19
1, 12137, Control_c, 10, 10, 115
1, 12149, Control_c, 10, 10, 112
1, 12150, Control_c, 9, 11, 4
1, 12160, Note_on_c, 10, 62, 0
1, 12162, Control_c, 10, 10, 109
1, 12163, Control_c, 9, 11, 0
1, 12175, Control_c, 10, 10, 105
1, 12189, Control_c, 10, 10, 101
1, 12203, Control_c, 10, 10, 97
1, 12215, Control_c, 10, 10, 92
1, 12228, Control_c, 10, 10, 87
1, 12234, Control_c, 9, 11, 15
1, 12236, Note_on_c, 9, 52, 0
1, 12240, Note_on_c, 10, 62, 75
1, 12241, Control_c, 10, 10, 82
1, 12245, Note_on_c, 9, 52, 85
1, 12247, Control_c, 9, 11, 35
1, 12255, Control_c, 10, 10, 78
1, 12261, Control_c, 9, 11, 59
1, 12269, Control_c, 10, 10, 75
1, 12274, Control_c, 9, 11, 86
1, 12280, Note_on_c, 10, 62, 0
1, 12281, Control_c, 10, 10, 71
1, 12286, Control_c, 9, 11, 112
1, 12294, Control_c, 10, 10, 68
1, 12299, Control_c, 9, 11, 127
1, 12307, Control_c, 10, 10, 64
1, 12321, Control_c, 10, 10, 60
1, 12333, Control_c, 10, 10, 56
1, 12346, Control_c, 10, 10, 52
1, 12359, Control_c, 10, 10, 49
1, 12362, Note_on_c, 10, 62, 55
1, 12372, Control_c, 10, 10, 46
1, 12387, Control_c, 10, 10, 44
1, 12399, Control_c, 10, 10, 42
1, 12402, Note_on_c, 10, 62, 0
1, 12412, Control_c, 10, 10, 40
1, 12425, Control_c, 10, 10, 39
1, 12438, Control_c, 10, 10, 37
1, 12453, Control_c, 10, 10, 35
1, 12460, Note_on_c, 3, 82, 0
1, 12465, Control_c, 10, 10, 33
1, 12478, Control_c, 10, 10, 30
1, 12479, Note_on_c, 6, 74, 80
1, 12479, Note_on_c, 10, 62, 40
1, 12480, Note_on_c, 3, 82, 105
1, 12504, Control_c, 10, 10, 28
1, 12518, Control_c, 10, 10, 26
1, 12519, Note_on_c, 10, 62, 0
1, 12531, Control_c, 10, 10, 24
1, 12543, Control_c, 10, 10, 23
1, 12570, Control_c, 10, 10, 21
1, 12596, Note_on_c, 9, 52, 0
1, 12598, Note_on_c, 10, 62, 74
1, 12638, Note_on_c, 10, 62, 0
1, 12700, Note_on_c, 3, 82, 0
1, 12720, Note_on_c, 3, 81, 105
1, 12721, Note_on_c, 10, 62, 55
1, 12761, Note_on_c, 10, 62, 0
1, 12794, Control_c, 10, 10, 24
1, 12806, Control_c, 10, 10, 29
1, 12819, Control_c, 10, 10, 34
1, 12834, Control_c, 10, 10, 38
1, 12842, Note_on_c, 10, 62, 41
1, 12846, Control_c, 10, 10, 41
1, 12858, Control_c, 10, 10, 44
1, 12872, Control_c, 10, 10, 50
1, 12882, Note_on_c, 10, 62, 0
1, 12885, Control_c, 10, 10, 56
1, 12899, Control_c, 10, 10, 64
1, 12911, Control_c, 10, 10, 72
1, 12924, Control_c, 10, 10, 78
1, 12938, Control_c, 10, 10, 83
1, 12940, Note_on_c, 3, 81, 0
1, 12950, Control_c, 10, 10, 88
1, 12954, Control_c, 9, 11, 0
1, 12960, Note_on_c, 3, 79, 104
1, 12963, Note_on_c, 10, 62, 74
1, 12966, Control_c, 10, 10, 91
1, 12977, Control_c, 10, 10, 95
1, 12990, Control_c, 10, 10, 99
1, 13003, Note_on_c, 10, 62, 0
1, 13003, Control_c, 10, 10, 103
1, 13018, Control_c, 10, 10, 106
1, 13030, Control_c, 10, 10, 109
1, 13043, Control_c, 10, 10, 112
1, 13056, Control_c, 10, 10, 115
1, 13081, Note_on_c, 10, 62, 54
1, 13083, Control_c, 10, 10, 117
1, 13121, Note_on_c, 10, 62, 0
1, 13149, Control_c, 10, 10, 118
1, 13180, Note_on_c, 3, 79, 0
1, 13198, Note_on_c, 10, 62, 75
1, 13200, Note_on_c, 3, 76, 104
1, 13238, Note_on_c, 10, 62, 0
1, 13280, Control_c, 10, 10, 116
1, 13292, Control_c, 10, 10, 113
1, 13305, Control_c, 10, 10, 109
1, 13318, Control_c, 10, 10, 105
1, 13320, Note_on_c, 10, 62, 74
1, 13332, Control_c, 10, 10, 102
1, 13346, Control_c, 10, 10, 98
1, 13358, Control_c, 10, 10, 94
1, 13360, Note_on_c, 10, 62, 0
1, 13371, Control_c, 10, 10, 90
1, 13384, Control_c, 10, 10, 85
1, 13399, Control_c, 10, 10, 81
1, 13410, Control_c, 10, 10, 77
1, 13418, Note_on_c, 1, 34, 0
1, 13419, Note_on_c, 6, 74, 0
1, 13419, Note_on_c, 7, 65, 0
1, 13419, Note_on_c, 8, 53, 0
1, 13420, Note_on_c, 8, 46, 0
1, 13422, Note_on_c, 8, 34, 0
1, 13423, Note_on_c, 7, 62, 0
1, 13423, Note_on_c, 8, 50, 0
1, 13424, Control_c, 10, 10, 74
1, 13434, Control_c, 9, 11, 15
1, 13437, Control_c, 10, 10, 69
1, 13439, Note_on_c, 1, 36, 112
1, 13439, Note_on_c, 8, 48, 81
1, 13440, Note_on_c, 8, 36, 80
1, 13441, Note_on_c, 8, 55, 81
1, 13441, Note_on_c, 10, 62, 75
1, 13442, Note_on_c, 8, 52, 81
1, 13442, Note_on_c, 9, 52, 85
1, 13447, Control_c, 9, 11, 35
1, 13450, Control_c, 10, 10, 66
1, 13461, Control_c, 9, 11, 59
1, 13464, Control_c, 10, 10, 62
1, 13474, Control_c, 9, 11, 86
1, 13476, Control_c, 10, 10, 58
1, 13481, Note_on_c, 10, 62, 0
1, 13486, Control_c, 9, 11, 112
1, 13489, Control_c, 10, 10, 54
1, 13499, Control_c, 9, 11, 127
1, 13502, Control_c, 10, 10, 51
1, 13515, Control_c, 10, 10, 48
1, 13530, Control_c, 10, 10, 45
1, 13542, Control_c, 10, 10, 43
1, 13555, Control_c, 10, 10, 41
1, 13559, Note_on_c, 10, 62, 55
1, 13568, Control_c, 10, 10, 39
1, 13570, System_exclusive, 6, 0, 32, 36, 0, 8, 247
1, 13581, Control_c, 10, 10, 36
1, 13596, Control_c, 10, 10, 34
1, 13599, Note_on_c, 10, 62, 0
1, 13607, Control_c, 10, 10, 31
1, 13621, Control_c, 10, 10, 29
1, 13632, Control_c, 9, 11, 119
1, 13644, Control_c, 9, 11, 99
1, 13647, Control_c, 10, 10, 27
1, 13658, Control_c, 9, 11, 78
1, 13660, Note_on_c, 3, 76, 0
1, 13670, Control_c, 9, 11, 56
1, 13674, Control_c, 10, 10, 25
1, 13680, Note_on_c, 3, 76, 105
1, 13680, Note_on_c, 10, 62, 74
1, 13682, Control_c, 9, 11, 37
1, 13686, Control_c, 10, 10, 24
1, 13696, Control_c, 9, 11, 19
1, 13710, Control_c, 9, 11, 4
1, 13720, Note_on_c, 10, 62, 0
1, 13723, Control_c, 9, 11, 0
1, 13793, Note_on_c, 9, 52, 0
1, 13794, Control_c, 9, 11, 15
1, 13801, Note_on_c, 10, 62, 75
1, 13803, Note_on_c, 9, 52, 84
1, 13807, Control_c, 9, 11, 35
1, 13821, Control_c, 9, 11, 59
1, 13834, Control_c, 9, 11, 86
1, 13841, Note_on_c, 10, 62, 0
1, 13846, Control_c, 9, 11, 112
1, 13859, Control_c, 9, 11, 127
1, 13871, Control_c, 10, 10, 27
1, 13883, Control_c, 10, 10, 30
1, 13896, Control_c, 10, 10, 32
1, 13919, Note_on_c, 10, 62, 54
1, 13924, Control_c, 10, 10, 37
1, 13936, Control_c, 10, 10, 41
1, 13949, Control_c, 10, 10, 46
1, 13959, Note_on_c, 10, 62, 0
1, 13962, Control_c, 10, 10, 51
1, 13977, Control_c, 10, 10, 54
1, 13988, Control_c, 10, 10, 58
1, 13992, Control_c, 9, 11, 119
1, 14002, Control_c, 10, 10, 61
1, 14004, Control_c, 9, 11, 99
1, 14014, Control_c, 10, 10, 65
1, 14018, Control_c, 9, 11, 78
1, 14028, Control_c, 10, 10, 69
1, 14030, Control_c, 9, 11, 56
1, 14039, Note_on_c, 10, 62, 40
1, 14042, Control_c, 9, 11, 37
1, 14042, Control_c, 10, 10, 74
1, 14053, Control_c, 10, 10, 78
1, 14056, Control_c, 9, 11, 19
1, 14067, Control_c, 10, 10, 81
1, 14070, Control_c, 9, 11, 4
1, 14079, Note_on_c, 10, 62, 0
1, 14080, Control_c, 10, 10, 85
1, 14083, Control_c, 9, 11, 0
1, 14094, Control_c, 10, 10, 88
1, 14106, Control_c, 10, 10, 91
1, 14115, Control_c, 6, 11, 124
1, 14119, Control_c, 10, 10, 94
1, 14133, Control_c, 10, 10, 97
1, 14140, Control_c, 6, 11, 123
1, 14146, Control_c, 10, 10, 99
1, 14154, Note_on_c, 9, 52, 0
1, 14154, Control_c, 9, 11, 15
1, 14160, Control_c, 10, 10, 101
1, 14161, Note_on_c, 10, 62, 75
1, 14164, Note_on_c, 9, 52, 85
1, 14167, Control_c, 6, 11, 123
1, 14167, Control_c, 9, 11, 35
1, 14172, Control_c, 10, 10, 103
1, 14181, Control_c, 9, 11, 59
1, 14185, Control_c, 10, 10, 105
1, 14192, Control_c, 6, 11, 120
1, 14194, Control_c, 9, 11, 86
1, 14199, Control_c, 10, 10, 107
1, 14201, Note_on_c, 10, 62, 0
1, 14206, Control_c, 9, 11, 112
1, 14212, Control_c, 10, 10, 109
1, 14219, Control_c, 9, 11, 127
1, 14233, Control_c, 6, 11, 118
1, 14239, Control_c, 10, 10, 111
1, 14258, Control_c, 6, 11, 117
1, 14264, Control_c, 10, 10, 113
1, 14281, Note_on_c, 10, 62, 55
1, 14291, Control_c, 10, 10, 115
1, 14299, Control_c, 6, 11, 115
1, 14321, Note_on_c, 10, 62, 0
1, 14324, Control_c, 6, 11, 114
1, 14351, Control_c, 6, 11, 112
1, 14380, Note_on_c, 3, 76, 0
1, 14389, Control_c, 6, 11, 111
1, 14400, Note_on_c, 10, 62, 40
1, 14403, Note_on_c, 7, 62, 81
1, 14417, Control_c, 6, 11, 108
1, 14440, Note_on_c, 10, 62, 0
1, 14442, Control_c, 6, 11, 109
1, 14462, Control_c, 10, 10, 113
1, 14468, Control_c, 6, 11, 107
1, 14475, Control_c, 10, 10, 110
1, 14487, Control_c, 10, 10, 106
1, 14500, Control_c, 10, 10, 102
1, 14513, Control_c, 10, 10, 98
1, 14515, Note_on_c, 9, 52, 0
1, 14523, Note_on_c, 10, 62, 74
1, 14527, Control_c, 10, 10, 94
1, 14535, Control_c, 6, 11, 104
1, 14541, Control_c, 10, 10, 90
1, 14553, Control_c, 10, 10, 85
1, 14563, Note_on_c, 10, 62, 0
1, 14566, Control_c, 10, 10, 81
1, 14574, Control_c, 6, 11, 103
1, 14579, Control_c, 10, 10, 76
1, 14593, Control_c, 10, 10, 72
1, 14607, Control_c, 10, 10, 69
1, 14614, Control_c, 6, 11, 100
1, 14618, Control_c, 10, 10, 65
1, 14631, Control_c, 10, 10, 61
1, 14640, Note_on_c, 3, 81, 105
1, 14641, Note_on_c, 10, 62, 55
1, 14645, Control_c, 10, 10, 57
1, 14652, Control_c, 6, 11, 100
1, 14658, Control_c, 10, 10, 53
1, 14672, Control_c, 10, 10, 51
1, 14681, Note_on_c, 10, 62, 0
1, 14684, Control_c, 10, 10, 48
1, 14693, Control_c, 6, 11, 99
1, 14697, Control_c, 10, 10, 46
1, 14710, Control_c, 10, 10, 44
1, 14718, Control_c, 6, 11, 97
1, 14724, Control_c, 10, 10, 42
1, 14738, Control_c, 10, 10, 40
1, 14750, Control_c, 10, 10, 38
1, 14758, Control_c, 6, 11, 94
1, 14759, Note_on_c, 10, 62, 41
1, 14763, Control_c, 10, 10, 36
1, 14776, Control_c, 10, 10, 34
1, 14783, Control_c, 6, 11, 92
1, 14790, Control_c, 10, 10, 33
1, 14799, Note_on_c, 10, 62, 0
1, 14802, Control_c, 10, 10, 30
1, 14815, Control_c, 10, 10, 28
1, 14824, Control_c, 6, 11, 91
1, 14828, Control_c, 10, 10, 26
1, 14842, Control_c, 10, 10, 24
1, 14856, Control_c, 10, 10, 22
1, 14861, Note_on_c, 8, 55, 0
1, 14874, Control_c, 9, 11, 0
1, 14877, Control_c, 6, 11, 91
1, 14881, Note_on_c, 10, 62, 74
1, 14883, Note_on_c, 8, 57, 80
1, 14894, Control_c, 10, 10, 21
1, 14902, Control_c, 6, 11, 88
1, 14921, Note_on_c, 10, 62, 0
1, 14929, Control_c, 6, 11, 86
1, 14954, Control_c, 6, 11, 85
1, 14981, Control_c, 6, 11, 82
1, 15001, Note_on_c, 10, 62, 54
1, 15006, Control_c, 6, 11, 81
1, 15027, Control_c, 10, 10, 24
1, 15033, Control_c, 6, 11, 79
1, 15039, Control_c, 10, 10, 29
1, 15041, Note_on_c, 10, 62, 0
1, 15053, Control_c, 10, 10, 33
1, 15061, Control_c, 6, 11, 76
1, 15065, Control_c, 10, 10, 38
1, 15078, Control_c, 10, 10, 42
1, 15086, Control_c, 6, 11, 77
1, 15091, Control_c, 10, 10, 45
1, 15100, Note_on_c, 3, 81, 0
1, 15106, Control_c, 10, 10, 48
1, 15113, Control_c, 6, 11, 74
1, 15118, Control_c, 10, 10, 52
1, 15120, Note_on_c, 3, 81, 104
1, 15122, Note_on_c, 10, 62, 75
1, 15124, Control_c, 6, 11, 72
1, 15131, Control_c, 10, 10, 56
1, 15138, Control_c, 6, 11, 71
1, 15144, Control_c, 10, 10, 60
1, 15157, Control_c, 10, 10, 64
1, 15162, Note_on_c, 10, 62, 0
1, 15164, Control_c, 6, 11, 69
1, 15172, Control_c, 10, 10, 68
1, 15183, Control_c, 10, 10, 73
1, 15192, Control_c, 6, 11, 66
1, 15196, Control_c, 10, 10, 76
1, 15210, Control_c, 10, 10, 79
1, 15222, Control_c, 10, 10, 82
1, 15230, Control_c, 6, 11, 64
1, 15237, Control_c, 10, 10, 86
1, 15238, Note_on_c, 10, 62, 74
1, 15249, Control_c, 10, 10, 90
1, 15258, Control_c, 6, 11, 63
1, 15262, Control_c, 10, 10, 92
1, 15269, Control_c, 6, 11, 61
1, 15275, Control_c, 10, 10, 95
1, 15278, Note_on_c, 10, 62, 0
1, 15288, Control_c, 10, 10, 98
1, 15296, Control_c, 6, 11, 58
1, 15303, Control_c, 10, 10, 100
1, 15308, Control_c, 6, 11, 56
1, 15315, Control_c, 10, 10, 103
1, 15327, Control_c, 10, 10, 105
1, 15335, Control_c, 6, 11, 55
1, 15338, Note_on_c, 7, 64, 0
1, 15339, Note_on_c, 1, 36, 0
1, 15339, Note_on_c, 8, 48, 0
1, 15340, Note_on_c, 3, 81, 0
1, 15340, Note_on_c, 8, 36, 0
1, 15341, Note_on_c, 6, 72, 0
1, 15341, Control_c, 10, 10, 107
1, 15342, Note_on_c, 7, 60, 0
1, 15354, Control_c, 9, 11, 15
1, 15354, Control_c, 10, 10, 109
1, 15360, Note_on_c, 3, 79, 104
1, 15360, Note_on_c, 8, 33, 81
1, 15361, Note_on_c, 10, 62, 75
1, 15362, Note_on_c, 8, 45, 80
1, 15362, Control_c, 6, 11, 52
1, 15363, Note_on_c, 1, 33, 115
1, 15365, Note_on_c, 9, 52, 84
1, 15367, Control_c, 9, 11, 35
1, 15369, Control_c, 10, 10, 111
1, 15380, Control_c, 10, 10, 113
1, 15381, Control_c, 9, 11, 59
1, 15387, Control_c, 6, 11, 51
1, 15394, Control_c, 9, 11, 86
1, 15394, Control_c, 10, 10, 115
1, 15401, Note_on_c, 10, 62, 0
1, 15406, Control_c, 9, 11, 112
1, 15406, Control_c, 10, 10, 117
1, 15414, Control_c, 6, 11, 51
1, 15419, Control_c, 9, 11, 127
1, 15441, Control_c, 6, 11, 48
1, 15460, Control_c, 10, 10, 118
1, 15467, Control_c, 6, 11, 47
1, 15483, Note_on_c, 10, 62, 55
1, 15494, Control_c, 6, 11, 44
1, 15519, Control_c, 6, 11, 42
1, 15523, Note_on_c, 10, 62, 0
1, 15546, Control_c, 6, 11, 41
1, 15552, Control_c, 9, 11, 119
1, 15564, Control_c, 9, 11, 99
1, 15565, Control_c, 10, 10, 116
1, 15573, Control_c, 6, 11, 41
1, 15577, Control_c, 10, 10, 114
1, 15578, Control_c, 9, 11, 78
1, 15590, Control_c, 9, 11, 56
1, 15590, Control_c, 10, 10, 111
1, 15598, Control_c, 6, 11, 38
1, 15602, Note_on_c, 10, 62, 74
1, 15602, Control_c, 9, 11, 37
1, 15604, Control_c, 10, 10, 108
1, 15616, Control_c, 9, 11, 19
1, 15618, Control_c, 10, 10, 104
1, 15625, Control_c, 6, 11, 36
1, 15630, Control_c, 9, 11, 4
1, 15630, Control_c, 10, 10, 100
1, 15637, Control_c, 6, 11, 35
1, 15642, Note_on_c, 10, 62, 0
1, 15643, Control_c, 9, 11, 0
1, 15643, Control_c, 10, 10, 97
1, 15656, Control_c, 10, 10, 93
1, 15664, Control_c, 6, 11, 35
1, 15669, Control_c, 10, 10, 89
1, 15684, Control_c, 10, 10, 86
1, 15691, Control_c, 6, 11, 31
1, 15696, Control_c, 10, 10, 82
1, 15709, Control_c, 10, 10, 79
1, 15714, Control_c, 9, 11, 15
1, 15716, Note_on_c, 9, 52, 0
1, 15716, Control_c, 6, 11, 31
1, 15720, Note_on_c, 10, 62, 75
1, 15722, Control_c, 10, 10, 76
1, 15727, Note_on_c, 9, 52, 84
1, 15727, Control_c, 9, 11, 35
1, 15734, Control_c, 10, 10, 73
1, 15741, Control_c, 9, 11, 59
1, 15743, Control_c, 6, 11, 28
1, 15749, Control_c, 10, 10, 69
1, 15754, Control_c, 9, 11, 86
1, 15755, Control_c, 6, 11, 27
1, 15760, Note_on_c, 10, 62, 0
1, 15761, Control_c, 10, 10, 64
1, 15766, Control_c, 9, 11, 112
1, 15774, Control_c, 10, 10, 60
1, 15779, Control_c, 9, 11, 127
1, 15781, Control_c, 6, 11, 25
1, 15787, Control_c, 10, 10, 56
1, 15801, Control_c, 10, 10, 52
1, 15809, Control_c, 6, 11, 23
1, 15815, Control_c, 10, 10, 48
1, 15821, Control_c, 6, 11, 22
1, 15827, Control_c, 10, 10, 44
1, 15840, Control_c, 10, 10, 41
1, 15841, Note_on_c, 10, 62, 54
1, 15847, Control_c, 6, 11, 20
1, 15853, Control_c, 10, 10, 39
1, 15868, Control_c, 10, 10, 36
1, 15874, Control_c, 6, 11, 18
1, 15880, Control_c, 10, 10, 34
1, 15881, Note_on_c, 10, 62, 0
1, 15893, Control_c, 10, 10, 32
1, 15900, Control_c, 6, 11, 16
1, 15906, Control_c, 10, 10, 30
1, 15912, Control_c, 9, 11, 119
1, 15919, Control_c, 10, 10, 28
1, 15924, Control_c, 9, 11, 99
1, 15926, Control_c, 6, 11, 14
1, 15933, Control_c, 10, 10, 27
1, 15938, Control_c, 9, 11, 78
1, 15940, Control_c, 6, 11, 13
1, 15945, Control_c, 10, 10, 25
1, 15950, Control_c, 9, 11, 56
1, 15959, Note_on_c, 10, 62, 40
1, 15962, Control_c, 9, 11, 37
1, 15971, Control_c, 10, 10, 23
1, 15976, Control_c, 9, 11, 19
1, 15978, Control_c, 6, 11, 11
1, 15990, Control_c, 9, 11, 4
1, 15999, Note_on_c, 10, 62, 0
1, 16003, Control_c, 9, 11, 0
1, 16019, Control_c, 6, 11, 9
1, 16074, Control_c, 9, 11, 15
1, 16078, Note_on_c, 9, 52, 0
1, 16081, Note_on_c, 10, 62, 75
1, 16082, Note_on_c, 9, 52, 85
1, 16087, Control_c, 9, 11, 35
1, 16101, Control_c, 9, 11, 59
1, 16104, Control_c, 10, 10, 22
1, 16114, Control_c, 9, 11, 86
1, 16121, Note_on_c, 10, 62, 0
1, 16126, Control_c, 9, 11, 112
1, 16139, Control_c, 9, 11, 127
1, 16196, Control_c, 10, 10, 24
1, 16200, Note_on_c, 10, 62, 55
1, 16208, Control_c, 10, 10, 30
1, 16221, Control_c, 10, 10, 37
1, 16234, Control_c, 10, 10, 43
1, 16240, Note_on_c, 10, 62, 0
1, 16249, Control_c, 10, 10, 48
1, 16256, Control_c, 6, 11, 11
1, 16260, Control_c, 10, 10, 53
1, 16267, Control_c, 6, 11, 12
1, 16274, Control_c, 10, 10, 57
1, 16281, Control_c, 6, 11, 14
1, 16287, Control_c, 10, 10, 62
1, 16293, Control_c, 6, 11, 18
1, 16300, Control_c, 10, 10, 66
1, 16308, Control_c, 6, 11, 22
1, 16314, Control_c, 10, 10, 70
1, 16320, Control_c, 6, 11, 26
1, 16322, Note_on_c, 10, 62, 40
1, 16325, Control_c, 10, 10, 75
1, 16333, Control_c, 6, 11, 30
1, 16339, Control_c, 10, 10, 79
1, 16346, Control_c, 6, 11, 34
1, 16352, Control_c, 10, 10, 84
1, 16359, Control_c, 6, 11, 40
1, 16362, Note_on_c, 10, 62, 0
1, 16365, Control_c, 10, 10, 89
1, 16374, Control_c, 6, 11, 49
1, 16380, Control_c, 10, 10, 94
1, 16386, Control_c, 6, 11, 54
1, 16391, Control_c, 10, 10, 98
1, 16399, Control_c, 6, 11, 59
1, 16405, Control_c, 10, 10, 101
1, 16412, Control_c, 6, 11, 63
1, 16418, Control_c, 10, 10, 105
1, 16425, Control_c, 6, 11, 64
1, 16431, Control_c, 10, 10, 108
1, 16433, Note_on_c, 9, 52, 0
1, 16438, Note_on_c, 10, 62, 74
1, 16440, Control_c, 6, 11, 69
1, 16446, Control_c, 10, 10, 111
1, 16452, Control_c, 6, 11, 72
1, 16457, Control_c, 10, 10, 114
1, 16464, Control_c, 6, 11, 78
1, 16471, Control_c, 10, 10, 116
1, 16477, Control_c, 6, 11, 83
1, 16478, Note_on_c, 10, 62, 0
1, 16491, Control_c, 6, 11, 89
1, 16505, Control_c, 6, 11, 92
1, 16511, Control_c, 10, 10, 117
1, 16517, Control_c, 6, 11, 96
1, 16530, Control_c, 6, 11, 99
1, 16540, Note_on_c, 3, 79, 0
1, 16543, Control_c, 6, 11, 103
1, 16556, Control_c, 6, 11, 104
1, 16560, Note_on_c, 3, 79, 105
1, 16563, Note_on_c, 10, 62, 55
1, 16563, Control_c, 10, 10, 119
1, 16571, Control_c, 6, 11, 108
1, 16583, Control_c, 6, 11, 113
1, 16596, Control_c, 6, 11, 114
1, 16603, Note_on_c, 10, 62, 0
1, 16609, Control_c, 6, 11, 117
1, 16622, Control_c, 6, 11, 121
1, 16636, Control_c, 6, 11, 124
1, 16649, Control_c, 6, 11, 127
1, 16679, Note_on_c, 10, 62, 41
1, 16694, Control_c, 10, 10, 117
1, 16706, Control_c, 10, 10, 115
1, 16719, Note_on_c, 10, 62, 0
1, 16720, Control_c, 10, 10, 112
1, 16733, Control_c, 10, 10, 109
1, 16746, Control_c, 10, 10, 105
1, 16760, Control_c, 10, 10, 101
1, 16772, Control_c, 10, 10, 98
1, 16780, Note_on_c, 3, 79, 0
1, 16783, Note_on_c, 8, 57, 0
1, 16786, Control_c, 10, 10, 94
1, 16794, Control_c, 9, 11, 0
1, 16799, Control_c, 10, 10, 91
1, 16800, Note_on_c, 3, 81, 104
1, 16801, Note_on_c, 10, 62, 74
1, 16802, Note_on_c, 8, 57, 80
1, 16812, Control_c, 10, 10, 87
1, 16826, Control_c, 10, 10, 84
1, 16838, Control_c, 10, 10, 81
1, 16841, Note_on_c, 10, 62, 0
1, 16851, Control_c, 10, 10, 78
1, 16879, Control_c, 10, 10, 71
1, 16891, Control_c, 10, 10, 67
1, 16903, Control_c, 10, 10, 63
1, 16917, Control_c, 10, 10, 59
1, 16922, Note_on_c, 10, 62, 54
1, 16930, Control_c, 10, 10, 56
1, 16944, Control_c, 10, 10, 52
1, 16956, Control_c, 10, 10, 49
1, 16962, Note_on_c, 10, 62, 0
1, 16969, Control_c, 10, 10, 46
1, 16983, Control_c, 10, 10, 43
1, 16996, Control_c, 10, 10, 41
1, 17010, Control_c, 10, 10, 38
1, 17020, Note_on_c, 3, 81, 0
1, 17022, Control_c, 10, 10, 35
1, 17035, Control_c, 10, 10, 32
1, 17040, Note_on_c, 3, 79, 105
1, 17041, Note_on_c, 10, 62, 75
1, 17048, Control_c, 10, 10, 30
1, 17076, Control_c, 10, 10, 28
1, 17081, Note_on_c, 10, 62, 0
1, 17100, Control_c, 10, 10, 26
1, 17114, Control_c, 10, 10, 24
1, 17141, Control_c, 10, 10, 22
1, 17160, Note_on_c, 10, 62, 74
1, 17200, Note_on_c, 10, 62, 0
1, 17259, Control_c, 10, 10, 28
1, 17260, Note_on_c, 3, 79, 0
1, 17262, Note_on_c, 8, 57, 0
1, 17271, Control_c, 10, 10, 33
1, 17274, Control_c, 9, 11, 15
1, 17279, Note_on_c, 8, 57, 81
1, 17279, Note_on_c, 10, 62, 75
1, 17280, Note_on_c, 3, 79, 105
1, 17282, Note_on_c, 9, 52, 85
1, 17284, Control_c, 10, 10, 39
1, 17287, Control_c, 9, 11, 35
1, 17297, Control_c, 10, 10, 45
1, 17301, Control_c, 9, 11, 59
1, 17311, Control_c, 10, 10, 50
1, 17314, Control_c, 9, 11, 86
1, 17319, Note_on_c, 10, 62, 0
1, 17325, Control_c, 10, 10, 55
1, 17326, Control_c, 9, 11, 112
1, 17337, Control_c, 10, 10, 60
1, 17339, Control_c, 9, 11, 127
1, 17350, Control_c, 10, 10, 65
1, 17363, Control_c, 10, 10, 70
1, 17377, Control_c, 10, 10, 75
1, 17391, Control_c, 10, 10, 80
1, 17398, Note_on_c, 10, 62, 55
1, 17403, Control_c, 10, 10, 86
1, 17416, Control_c, 10, 10, 90
1, 17429, Control_c, 10, 10, 95
1, 17438, Note_on_c, 10, 62, 0
1, 17442, Control_c, 10, 10, 99
1, 17456, Control_c, 10, 10, 102
1, 17468, Control_c, 10, 10, 106
1, 17472, Control_c, 9, 11, 119
1, 17481, Control_c, 10, 10, 109
1, 17484, Control_c, 9, 11, 99
1, 17495, Control_c, 10, 10, 112
1, 17498, Control_c, 9, 11, 78
1, 17508, Control_c, 10, 10, 114
1, 17510, Control_c, 9, 11, 56
1, 17522, Note_on_c, 10, 62, 74
1, 17522, Control_c, 9, 11, 37
1, 17522, Control_c, 10, 10, 116
1, 17536, Control_c, 9, 11, 19
1, 17550, Control_c, 9, 11, 4
1, 17560, Control_c, 10, 10, 118
1, 17562, Note_on_c, 10, 62, 0
1, 17563, Control_c, 9, 11, 0
1, 17633, Note_on_c, 9, 52, 0
1, 17634, Control_c, 9, 11, 15
1, 17641, Note_on_c, 10, 62, 75
1, 17645, Note_on_c, 9, 52, 84
1, 17647, Control_c, 9, 11, 35
1, 17661, Control_c, 9, 11, 59
1, 17674, Control_c, 9, 11, 86
1, 17681, Note_on_c, 10, 62, 0
1, 17686, Control_c, 9, 11, 112
1, 17699, Control_c, 9, 11, 127
1, 17760, Note_on_c, 10, 62, 54
1, 17772, Control_c, 10, 10, 116
1, 17784, Control_c, 10, 10, 112
1, 17797, Control_c, 10, 10, 109
1, 17800, Note_on_c, 10, 62, 0
1, 17810, Control_c, 10, 10, 105
1, 17823, Control_c, 10, 10, 100
1, 17832, Control_c, 9, 11, 119
1, 17838, Control_c, 10, 10, 95
1, 17844, Control_c, 9, 11, 99
1, 17850, Control_c, 10, 10, 91
1, 17858, Control_c, 9, 11, 78
1, 17863, Control_c, 10, 10, 86
1, 17870, Control_c, 9, 11, 56
1, 17876, Control_c, 10, 10, 80
1, 17880, Note_on_c, 10, 62, 40
1, 17882, Control_c, 9, 11, 37
1, 17889, Control_c, 10, 10, 74
1, 17896, Control_c, 9, 11, 19
1, 17903, Control_c, 10, 10, 69
1, 17910, Control_c, 9, 11, 4
1, 17915, Control_c, 10, 10, 65
1, 17920, Note_on_c, 10, 62, 0
1, 17923, Control_c, 9, 11, 0
1, 17928, Control_c, 10, 10, 61
1, 17941, Control_c, 10, 10, 57
1, 17956, Control_c, 10, 10, 53
1, 17968, Control_c, 10, 10, 49
1, 17981, Control_c, 10, 10, 45
1, 17993, Control_c, 10, 10, 42
1, 17994, Control_c, 9, 11, 15
1, 17996, Note_on_c, 9, 52, 0
1, 18002, Note_on_c, 10, 62, 75
1, 18007, Note_on_c, 9, 52, 84
1, 18007, Control_c, 9, 11, 35
1, 18007, Control_c, 10, 10, 39
1, 18021, Control_c, 9, 11, 59
1, 18021, Control_c, 10, 10, 36
1, 18034, Control_c, 9, 11, 86
1, 18034, Control_c, 10, 10, 34
1, 18042, Note_on_c, 10, 62, 0
1, 18046, Control_c, 9, 11, 112
1, 18046, Control_c, 10, 10, 31
1, 18059, Control_c, 9, 11, 127
1, 18059, Control_c, 10, 10, 29
1, 18072, Control_c, 10, 10, 28
1, 18087, Control_c, 10, 10, 26
1, 18099, Control_c, 10, 10, 24
1, 18122, Note_on_c, 10, 62, 55
1, 18125, Control_c, 10, 10, 22
1, 18162, Note_on_c, 10, 62, 0
1, 18239, Note_on_c, 2, 60, 94
1, 18239, Note_on_c, 10, 62, 40
1, 18279, Note_on_c, 10, 62, 0
1, 18337, Control_c, 10, 10, 27
1, 18349, Control_c, 10, 10, 32
1, 18358, Note_on_c, 9, 52, 0
1, 18362, Note_on_c, 10, 62, 74
1, 18362, Control_c, 10, 10, 36
1, 18375, Control_c, 10, 10, 40
1, 18388, Control_c, 10, 10, 44
1, 18402, Note_on_c, 10, 62, 0
1, 18402, Control_c, 10, 10, 48
1, 18414, Control_c, 10, 10, 51
1, 18427, Control_c, 10, 10, 54
1, 18440, Control_c, 10, 10, 58
1, 18453, Control_c, 10, 10, 62
1, 18460, Note_on_c, 3, 79, 0
1, 18468, Control_c, 10, 10, 67
1, 18480, Note_on_c, 3, 77, 104
1, 18480, Control_c, 10, 10, 70
1, 18482, Note_on_c, 10, 62, 55
1, 18493, Control_c, 10, 10, 74
1, 18519, Control_c, 10, 10, 80
1, 18522, Note_on_c, 10, 62, 0
1, 18534, Control_c, 10, 10, 84
1, 18546, Control_c, 10, 10, 87
1, 18559, Control_c, 10, 10, 90
1, 18572, Control_c, 10, 10, 94
1, 18585, Control_c, 10, 10, 97
1, 18599, Note_on_c, 10, 62, 41
1, 18600, Control_c, 10, 10, 100
1, 18611, Control_c, 10, 10, 104
1, 18625, Control_c, 10, 10, 107
1, 18637, Control_c, 10, 10, 109
1, 18639, Note_on_c, 10, 62, 0
1, 18652, Control_c, 10, 10, 112
1, 18664, Control_c, 10, 10, 115
1, 18690, Control_c, 10, 10, 117
1, 18714, Control_c, 9, 11, 0
1, 18720, Note_on_c, 10, 62, 74
1, 18757, Control_c, 10, 10, 118
1, 18760, Note_on_c, 10, 62, 0
1, 18838, Note_on_c, 10, 62, 54
1, 18875, Control_c, 10, 10, 116
1, 18878, Note_on_c, 10, 62, 0
1, 18887, Control_c, 10, 10, 113
1, 18900, Control_c, 10, 10, 110
1, 18915, Control_c, 10, 10, 106
1, 18926, Control_c, 10, 10, 102
1, 18940, Control_c, 10, 10, 98
1, 18953, Control_c, 10, 10, 94
1, 18961, Note_on_c, 10, 62, 75
1, 18967, Control_c, 10, 10, 91
1, 18978, Control_c, 10, 10, 88
1, 18992, Control_c, 10, 10, 85
1, 19001, Note_on_c, 10, 62, 0
1, 19005, Control_c, 10, 10, 81
1, 19018, Control_c, 10, 10, 78
1, 19033, Control_c, 10, 10, 75
1, 19044, Control_c, 10, 10, 71
1, 19058, Control_c, 10, 10, 68
1, 19071, Control_c, 10, 10, 64
1, 19078, Note_on_c, 10, 62, 74
1, 19084, Control_c, 10, 10, 61
1, 19098, Control_c, 10, 10, 57
1, 19110, Control_c, 10, 10, 54
1, 19118, Note_on_c, 10, 62, 0
1, 19124, Control_c, 10, 10, 50
1, 19137, Control_c, 10, 10, 47
1, 19150, Control_c, 10, 10, 43
1, 19164, Control_c, 10, 10, 40
1, 19176, Control_c, 10, 10, 37
1, 19179, Note_on_c, 2, 60, 0
1, 19179, Note_on_c, 8, 57, 0
1, 19180, Note_on_c, 3, 77, 0
1, 19180, Note_on_c, 8, 33, 0
1, 19182, Note_on_c, 8, 45, 0
1, 19182, Note_on_c, 8, 52, 0
1, 19183, Note_on_c, 1, 33, 0
1, 19183, Note_on_c, 7, 62, 0
1, 19185, Program_c, 13, 28
1, 19185, Control_c, 9, 10, 64
1, 19189, Control_c, 10, 10, 34
1, 19190, Program_c, 9, 16
1, 19190, Control_c, 9, 11, 127
1, 19190, Control_c, 9, 91, 90
1, 19190, Control_c, 13, 10, 64
1, 19195, Control_c, 13, 91, 50
1, 19195, Pitch_bend_c, 13, 8320
1, 19199, Note_on_c, 13, 38, 115
1, 19200, Note_on_c, 3, 74, 105
1, 19200, Note_on_c, 10, 62, 75
1, 19201, Note_on_c, 1, 26, 117
1, 19202, Note_on_c, 9, 36, 127
1, 19202, Note_on_c, 9, 49, 51
1, 19222, Note_on_c, 9, 36, 0
1, 19222, Note_on_c, 9, 49, 0
1, 19239, Control_c, 10, 10, 23
1, 19240, Note_on_c, 10, 62, 0
1, 19251, Control_c, 10, 10, 26
1, 19264, Control_c, 10, 10, 32
1, 19277, Control_c, 10, 10, 38
1, 19292, Control_c, 10, 10, 45
1, 19303, Control_c, 10, 10, 51
1, 19317, Control_c, 10, 10, 56
1, 19321, Note_on_c, 10, 62, 55
1, 19329, Control_c, 10, 10, 60
1, 19339, Note_on_c, 13, 38, 0
1, 19341, Note_on_c, 1, 26, 0
1, 19342, Control_c, 10, 10, 64
1, 19357, Control_c, 10, 10, 67
1, 19361, Note_on_c, 10, 62, 0
1, 19369, Control_c, 10, 10, 70
1, 19382, Control_c, 10, 10, 74
1, 19395, Control_c, 10, 10, 82
1, 19409, Control_c, 10, 10, 88
1, 19423, Control_c, 10, 10, 91
1, 19435, Control_c, 10, 10, 95
1, 19439, Note_on_c, 13, 38, 114
1, 19440, Note_on_c, 1, 26, 112
1, 19441, Note_on_c, 10, 62, 74
1, 19442, Note_on_c, 9, 42, 91
1, 19448, Control_c, 10, 10, 98
1, 19461, Control_c, 10, 10, 101
1, 19462, Note_on_c, 9, 42, 0
1, 19476, Control_c, 10, 10, 105
1, 19481, Note_on_c, 10, 62, 0
1, 19488, Control_c, 10, 10, 108
1, 19500, Control_c, 10, 10, 111
1, 19513, Control_c, 10, 10, 114
1, 19539, Note_on_c, 13, 38, 0
1, 19540, Note_on_c, 1, 26, 0
1, 19541, Control_c, 10, 10, 116
1, 19558, Note_on_c, 13, 38, 115
1, 19559, Note_on_c, 1, 26, 110
1, 19562, Note_on_c, 10, 62, 75
1, 19602, Note_on_c, 10, 62, 0
1, 19658, Note_on_c, 13, 38, 0
1, 19659, Note_on_c, 1, 26, 0
1, 19678, Note_on_c, 9, 40, 127
1, 19679, Note_on_c, 9, 42, 126
1, 19680, Note_on_c, 13, 38, 115
1, 19682, Note_on_c, 1, 26, 117
1, 19682, Note_on_c, 10, 62, 54
1, 19686, Control_c, 10, 10, 113
1, 19698, Note_on_c, 9, 40, 0
1, 19698, Control_c, 10, 10, 111
1, 19699, Note_on_c, 9, 42, 0
1, 19710, Control_c, 10, 10, 108
1, 19722, Note_on_c, 10, 62, 0
1, 19723, Control_c, 10, 10, 101
1, 19738, Control_c, 10, 10, 92
1, 19750, Control_c, 10, 10, 84
1, 19763, Control_c, 10, 10, 75
1, 19776, Control_c, 10, 10, 65
1, 19780, Note_on_c, 13, 38, 0
1, 19782, Note_on_c, 1, 26, 0
1, 19790, Control_c, 10, 10, 54
1, 19801, Note_on_c, 10, 62, 40
1, 19804, Control_c, 10, 10, 44
1, 19816, Control_c, 10, 10, 35
1, 19829, Control_c, 10, 10, 27
1, 19841, Note_on_c, 10, 62, 0
1, 19842, Control_c, 10, 10, 21
1, 19857, Control_c, 10, 10, 17
1, 19882, Control_c, 10, 10, 16
1, 19920, Note_on_c, 13, 38, 114
1, 19921, Note_on_c, 1, 26, 118
1, 19921, Note_on_c, 9, 42, 95
1, 19922, Note_on_c, 10, 62, 75
1, 19941, Note_on_c, 9, 42, 0
1, 19962, Note_on_c, 10, 62, 0
1, 20020, Note_on_c, 13, 38, 0
1, 20021, Note_on_c, 1, 26, 0
1, 20040, Note_on_c, 13, 38, 115
1, 20042, Note_on_c, 10, 62, 55
1, 20043, Note_on_c, 1, 26, 117
1, 20082, Note_on_c, 10, 62, 0
1, 20140, Note_on_c, 3, 74, 0
1, 20140, Note_on_c, 13, 38, 0
1, 20143, Note_on_c, 1, 26, 0
1, 20158, Note_on_c, 9, 42, 127
1, 20158, Note_on_c, 13, 38, 114
1, 20159, Note_on_c, 1, 26, 113
1, 20162, Note_on_c, 9, 36, 126
1, 20163, Note_on_c, 10, 62, 40
1, 20178, Note_on_c, 9, 42, 0
1, 20182, Note_on_c, 9, 36, 0
1, 20185, Control_c, 10, 10, 18
1, 20197, Control_c, 10, 10, 23
1, 20203, Note_on_c, 10, 62, 0
1, 20210, Control_c, 10, 10, 32
1, 20223, Control_c, 10, 10, 43
1, 20238, Control_c, 10, 10, 53
1, 20249, Control_c, 10, 10, 62
1, 20262, Control_c, 10, 10, 70
1, 20275, Control_c, 10, 10, 76
1, 20283, Note_on_c, 10, 62, 74
1, 20288, Control_c, 10, 10, 82
1, 20298, Note_on_c, 13, 38, 0
1, 20299, Note_on_c, 1, 26, 0
1, 20303, Control_c, 10, 10, 87
1, 20315, Control_c, 10, 10, 92
1, 20323, Note_on_c, 10, 62, 0
1, 20328, Control_c, 10, 10, 97
1, 20341, Control_c, 10, 10, 102
1, 20354, Control_c, 10, 10, 106
1, 20369, Control_c, 10, 10, 110
1, 20380, Control_c, 10, 10, 112
1, 20394, Control_c, 10, 10, 114
1, 20398, Note_on_c, 10, 62, 55
1, 20401, Note_on_c, 13, 38, 114
1, 20402, Note_on_c, 9, 42, 96
1, 20403, Note_on_c, 1, 26, 114
1, 20420, Control_c, 10, 10, 116
1, 20422, Note_on_c, 9, 42, 0
1, 20438, Note_on_c, 10, 62, 0
1, 20522, Note_on_c, 10, 62, 41
1, 20541, Note_on_c, 13, 38, 0
1, 20543, Note_on_c, 1, 26, 0
1, 20562, Note_on_c, 10, 62, 0
1, 20640, Note_on_c, 1, 26, 115
1, 20640, Note_on_c, 10, 62, 74
1, 20641, Note_on_c, 9, 42, 127
1, 20642, Note_on_c, 9, 40, 126
1, 20642, Note_on_c, 13, 38, 115
1, 20661, Note_on_c, 9, 42, 0
1, 20662, Note_on_c, 9, 40, 0
1, 20680, Note_on_c, 10, 62, 0
1, 20724, Control_c, 10, 10, 114
1, 20735, Control_c, 10, 10, 111
1, 20750, Control_c, 10, 10, 107
1, 20760, Note_on_c, 10, 62, 54
1, 20761, Control_c, 10, 10, 100
1, 20775, Control_c, 10, 10, 93
1, 20780, Note_on_c, 1, 26, 0
1, 20782, Note_on_c, 13, 38, 0
1, 20788, Control_c, 10, 10, 86
1, 20800, Note_on_c, 10, 62, 0
1, 20800, Control_c, 10, 10, 79
1, 20815, Control_c, 10, 10, 71
1, 20827, Control_c, 10, 10, 64
1, 20840, Control_c, 10, 10, 56
1, 20854, Control_c, 10, 10, 50
1, 20867, Control_c, 10, 10, 45
1, 20879, Note_on_c, 10, 62, 75
1, 20879, Control_c, 10, 10, 39
1, 20880, Note_on_c, 1, 26, 112
1, 20880, Note_on_c, 13, 38, 115
1, 20883, Note_on_c, 9, 42, 94
1, 20893, Control_c, 10, 10, 34
1, 20903, Note_on_c, 9, 42, 0
1, 20906, Control_c, 10, 10, 29
1, 20919, Note_on_c, 10, 62, 0
1, 20919, Control_c, 10, 10, 25
1, 20933, Control_c, 10, 10, 21
1, 20945, Control_c, 10, 10, 19
1, 20958, Control_c, 10, 10, 16
1, 20972, Control_c, 10, 10, 13
1, 20980, Note_on_c, 1, 26, 0
1, 20980, Note_on_c, 13, 38, 0
1, 20985, Control_c, 10, 10, 11
1, 21000, Note_on_c, 10, 62, 74
1, 21001, Note_on_c, 13, 38, 114
1, 21003, Note_on_c, 1, 26, 112
1, 21040, Note_on_c, 10, 62, 0
1, 21101, Note_on_c, 13, 38, 0
1, 21103, Note_on_c, 1, 26, 0
1, 21118, Note_on_c, 13, 38, 114
1, 21119, Note_on_c, 1, 26, 115
1, 21120, Note_on_c, 9, 36, 127
1, 21120, Note_on_c, 10, 62, 75
1, 21123, Note_on_c, 9, 42, 126
1, 21140, Note_on_c, 9, 36, 0
1, 21143, Note_on_c, 9, 42, 0
1, 21160, Note_on_c, 10, 62, 0
1, 21238, Note_on_c, 10, 62, 55
1, 21258, Note_on_c, 13, 38, 0
1, 21259, Note_on_c, 1, 26, 0
1, 21262, Control_c, 10, 10, 13
1, 21273, Control_c, 10, 10, 14
1, 21278, Note_on_c, 10, 62, 0
1, 21287, Control_c, 10, 10, 16
1, 21300, Control_c, 10, 10, 19
1, 21314, Control_c, 10, 10, 29
1, 21326, Control_c, 10, 10, 39
1, 21339, Control_c, 10, 10, 49
1, 21352, Control_c, 10, 10, 58
1, 21359, Note_on_c, 1, 26, 111
1, 21359, Note_on_c, 9, 42, 91
1, 21360, Note_on_c, 13, 38, 115
1, 21362, Note_on_c, 10, 62, 74
1, 21366, Control_c, 10, 10, 68
1, 21379, Note_on_c, 9, 42, 0
1, 21380, Control_c, 10, 10, 76
1, 21392, Control_c, 10, 10, 82
1, 21402, Note_on_c, 10, 62, 0
1, 21405, Control_c, 10, 10, 88
1, 21418, Control_c, 10, 10, 92
1, 21431, Control_c, 10, 10, 97
1, 21445, Control_c, 10, 10, 102
1, 21457, Control_c, 10, 10, 107
1, 21459, Note_on_c, 1, 26, 0
1, 21460, Note_on_c, 13, 38, 0
1, 21470, Control_c, 10, 10, 111
1, 21480, Note_on_c, 1, 26, 118
1, 21480, Note_on_c, 10, 62, 75
1, 21481, Note_on_c, 13, 38, 115
1, 21484, Control_c, 10, 10, 115
1, 21497, Control_c, 10, 10, 116
1, 21520, Note_on_c, 10, 62, 0
1, 21551, Control_c, 10, 10, 118
1, 21580, Note_on_c, 1, 26, 0
1, 21581, Note_on_c, 13, 38, 0
1, 21599, Note_on_c, 1, 26, 114
1, 21599, Note_on_c, 9, 42, 127
1, 21599, Note_on_c, 13, 38, 114
1, 21603, Note_on_c, 9, 40, 127
1, 21603, Note_on_c, 10, 62, 54
1, 21619, Note_on_c, 9, 42, 0
1, 21623, Note_on_c, 9, 40, 0
1, 21643, Note_on_c, 10, 62, 0
1, 21695, Control_c, 10, 10, 116
1, 21707, Control_c, 10, 10, 112
1, 21718, Note_on_c, 10, 62, 40
1, 21720, Control_c, 10, 10, 109
1, 21733, Control_c, 10, 10, 106
1, 21739, Note_on_c, 1, 26, 0
1, 21739, Note_on_c, 13, 38, 0
1, 21746, Control_c, 10, 10, 103
1, 21758, Note_on_c, 10, 62, 0
1, 21760, Control_c, 10, 10, 98
1, 21772, Control_c, 10, 10, 92
1, 21786, Control_c, 10, 10, 85
1, 21798, Control_c, 10, 10, 77
1, 21812, Control_c, 10, 10, 71
1, 21826, Control_c, 10, 10, 64
1, 21838, Control_c, 10, 10, 58
1, 21839, Note_on_c, 1, 26, 115
1, 21840, Note_on_c, 10, 62, 75
1, 21840, Note_on_c, 13, 38, 114
1, 21841, Note_on_c, 9, 42, 94
1, 21851, Control_c, 10, 10, 53
1, 21861, Note_on_c, 9, 42, 0
1, 21864, Control_c, 10, 10, 48
1, 21878, Control_c, 10, 10, 44
1, 21880, Note_on_c, 10, 62, 0
1, 21892, Control_c, 10, 10, 41
1, 21904, Control_c, 10, 10, 37
1, 21917, Control_c, 10, 10, 31
1, 21930, Control_c, 10, 10, 27
1, 21939, Note_on_c, 1, 26, 0
1, 21940, Note_on_c, 13, 38, 0
1, 21945, Control_c, 10, 10, 22
1, 21957, Control_c, 10, 10, 17
1, 21960, Note_on_c, 10, 62, 55
1, 21961, Note_on_c, 1, 26, 119
1, 21962, Note_on_c, 13, 38, 115
1, 21970, Control_c, 10, 10, 15
1, 21982, Control_c, 10, 10, 13
1, 22000, Note_on_c, 10, 62, 0
1, 22061, Note_on_c, 1, 26, 0
1, 22062, Note_on_c, 13, 38, 0
1, 22078, Note_on_c, 13, 38, 114
1, 22080, Note_on_c, 1, 26, 112
1, 22080, Note_on_c, 9, 42, 126
1, 22080, Note_on_c, 10, 62, 40
1, 22081, Note_on_c, 9, 36, 127
1, 22100, Note_on_c, 9, 42, 0
1, 22101, Note_on_c, 9, 36, 0
1, 22120, Note_on_c, 10, 62, 0
1, 22178, Note_on_c, 13, 38, 0
1, 22180, Note_on_c, 1, 26, 0
1, 22199, Note_on_c, 1, 26, 114
1, 22202, Note_on_c, 10, 62, 74
1, 22202, Note_on_c, 13, 38, 115
1, 22221, Control_c, 10, 10, 16
1, 22232, Control_c, 10, 10, 22
1, 22242, Note_on_c, 10, 62, 0
1, 22245, Control_c, 10, 10, 32
1, 22260, Control_c, 10, 10, 41
1, 22272, Control_c, 10, 10, 47
1, 22285, Control_c, 10, 10, 53
1, 22298, Control_c, 10, 10, 59
1, 22299, Note_on_c, 1, 26, 0
1, 22302, Note_on_c, 13, 38, 0
1, 22311, Control_c, 10, 10, 64
1, 22320, Note_on_c, 9, 42, 97
1, 22321, Note_on_c, 1, 26, 119
1, 22321, Note_on_c, 9, 36, 126
1, 22321, Note_on_c, 10, 62, 55
1, 22321, Note_on_c, 13, 38, 115
1, 22326, Control_c, 10, 10, 70
1, 22338, Control_c, 10, 10, 76
1, 22340, Note_on_c, 9, 42, 0
1, 22341, Note_on_c, 9, 36, 0
1, 22351, Control_c, 10, 10, 82
1, 22361, Note_on_c, 10, 62, 0
1, 22364, Control_c, 10, 10, 87
1, 22376, Control_c, 10, 10, 92
1, 22391, Control_c, 10, 10, 96
1, 22404, Control_c, 10, 10, 100
1, 22416, Control_c, 10, 10, 105
1, 22429, Control_c, 10, 10, 109
1, 22438, Note_on_c, 10, 62, 41
1, 22442, Control_c, 10, 10, 113
1, 22454, Control_c, 10, 11, 126
1, 22457, Control_c, 10, 10, 115
1, 22461, Note_on_c, 1, 26, 0
1, 22461, Note_on_c, 13, 38, 0
1, 22478, Note_on_c, 10, 62, 0
1, 22479, Control_c, 10, 11, 125
1, 22482, Control_c, 10, 10, 117
1, 22506, Control_c, 10, 11, 123
1, 22518, Control_c, 10, 11, 120
1, 22522, Control_c, 10, 10, 118
1, 22544, Control_c, 10, 11, 119
1, 22558, Note_on_c, 10, 62, 74
1, 22561, Note_on_c, 1, 26, 112
1, 22561, Note_on_c, 9, 40, 127
1, 22561, Note_on_c, 9, 42, 127
1, 22562, Note_on_c, 13, 38, 114
1, 22581, Note_on_c, 9, 40, 0
1, 22581, Note_on_c, 9, 42, 0
1, 22585, Control_c, 10, 11, 116
1, 22598, Note_on_c, 10, 62, 0
1, 22665, Control_c, 10, 11, 116
1, 22667, Control_c, 10, 10, 116
1, 22679, Control_c, 10, 10, 114
1, 22681, Note_on_c, 10, 62, 54
1, 22690, System_exclusive, 6, 0, 32, 36, 0, 8, 247
1, 22692, Control_c, 10, 10, 111
1, 22701, Note_on_c, 1, 26, 0
1, 22702, Note_on_c, 13, 38, 0
1, 22707, Control_c, 10, 10, 108
1, 22718, Control_c, 10, 10, 104
1, 22721, Note_on_c, 10, 62, 0
1, 22729, Control_c, 10, 11, 115
1, 22731, Control_c, 10, 10, 101
1, 22744, Control_c, 10, 10, 97
1, 22757, Control_c, 10, 10, 93
1, 22772, Control_c, 10, 10, 89
1, 22782, Control_c, 10, 11, 113
1, 22784, Control_c, 10, 10, 85
1, 22797, Control_c, 10, 10, 81
1, 22798, Note_on_c, 1, 26, 117
1, 22799, Note_on_c, 13, 38, 115
1, 22800, Note_on_c, 10, 62, 75
1, 22801, Note_on_c, 9, 42, 94
1, 22810, Control_c, 10, 10, 76
1, 22821, Note_on_c, 9, 42, 0
1, 22823, Control_c, 10, 10, 72
1, 22834, Control_c, 10, 11, 110
1, 22838, Control_c, 10, 10, 68
1, 22840, Note_on_c, 10, 62, 0
1, 22850, Control_c, 10, 10, 65
1, 22860, Control_c, 10, 11, 110
1, 22863, Control_c, 10, 10, 61
1, 22876, Control_c, 10, 10, 56
1, 22889, Control_c, 10, 10, 52
1, 22898, Note_on_c, 1, 26, 0
1, 22899, Note_on_c, 13, 38, 0
1, 22900, Control_c, 10, 11, 109
1, 22904, Control_c, 10, 10, 47
1, 22916, Control_c, 10, 10, 43
1, 22918, Note_on_c, 10, 62, 74
1, 22922, Note_on_c, 1, 26, 113
1, 22922, Note_on_c, 13, 38, 114
1, 22929, Control_c, 10, 10, 39
1, 22942, Control_c, 10, 10, 35
1, 22953, Control_c, 10, 11, 107
1, 22956, Control_c, 10, 10, 30
1, 22958, Note_on_c, 10, 62, 0
1, 22967, Control_c, 10, 10, 26
1, 22981, Control_c, 10, 10, 22
1, 22991, Control_c, 10, 11, 104
1, 22994, Control_c, 10, 10, 18
1, 23007, Control_c, 10, 10, 14
1, 23019, Control_c, 10, 11, 104
1, 23022, Note_on_c, 1, 26, 0
1, 23022, Note_on_c, 13, 38, 0
1, 23022, Control_c, 10, 10, 13
1, 23033, Control_c, 10, 10, 11
1, 23040, Note_on_c, 9, 42, 126
1, 23041, Note_on_c, 11, 55, 101
1, 23041, Note_on_c, 12, 55, 101
1, 23041, Note_on_c, 13, 43, 114
1, 23042, Note_on_c, 1, 31, 110
1, 23042, Note_on_c, 9, 36, 127
1, 23043, Note_on_c, 10, 62, 75
1, 23043, Control_c, 10, 11, 103
1, 23060, Note_on_c, 9, 42, 0
1, 23062, Note_on_c, 9, 36, 0
1, 23071, Control_c, 10, 11, 100
1, 23083, Note_on_c, 10, 62, 0
1, 23109, Control_c, 10, 11, 99
1, 23122, Note_on_c, 11, 55, 0
1, 23122, Note_on_c, 12, 55, 0
1, 23123, Control_c, 10, 11, 99
1, 23148, Control_c, 10, 11, 96
1, 23161, Note_on_c, 10, 62, 55
1, 23175, Control_c, 10, 11, 95
1, 23181, Note_on_c, 13, 43, 0
1, 23182, Note_on_c, 1, 31, 0
1, 23201, Note_on_c, 10, 62, 0
1, 23203, Control_c, 10, 11, 92
1, 23228, Control_c, 10, 11, 90
1, 23232, Control_c, 10, 10, 13
1, 23241, Control_c, 10, 11, 89
1, 23244, Control_c, 10, 10, 14
1, 23255, Control_c, 10, 11, 87
1, 23257, Control_c, 10, 10, 18
1, 23266, Control_c, 10, 11, 84
1, 23271, Control_c, 10, 10, 25
1, 23279, Control_c, 10, 11, 84
1, 23280, Note_on_c, 1, 31, 111
1, 23280, Note_on_c, 12, 55, 86
1, 23282, Note_on_c, 9, 42, 91
1, 23282, Note_on_c, 11, 55, 86
1, 23282, Note_on_c, 13, 43, 115
1, 23283, Note_on_c, 10, 62, 74
1, 23285, Control_c, 10, 10, 29
1, 23293, Control_c, 10, 11, 83
1, 23297, Control_c, 10, 10, 33
1, 23302, Note_on_c, 9, 42, 0
1, 23306, Control_c, 10, 11, 81
1, 23323, Note_on_c, 10, 62, 0
1, 23323, Control_c, 10, 10, 38
1, 23334, Control_c, 10, 11, 78
1, 23336, Control_c, 10, 10, 40
1, 23348, Control_c, 10, 10, 43
1, 23352, Note_on_c, 12, 55, 0
1, 23354, Note_on_c, 11, 55, 0
1, 23359, Control_c, 10, 11, 76
1, 23362, Control_c, 10, 10, 46
1, 23372, Control_c, 10, 11, 75
1, 23375, Control_c, 10, 10, 50
1, 23380, Note_on_c, 1, 31, 0
1, 23382, Note_on_c, 13, 43, 0
1, 23388, Control_c, 10, 10, 58
1, 23399, Note_on_c, 10, 62, 75
1, 23399, Note_on_c, 11, 55, 61
1, 23400, Control_c, 10, 11, 72
1, 23401, Note_on_c, 12, 55, 61
1, 23401, Note_on_c, 13, 43, 115
1, 23403, Note_on_c, 1, 31, 114
1, 23403, Control_c, 10, 10, 65
1, 23414, Control_c, 10, 10, 71
1, 23425, Control_c, 10, 11, 71
1, 23427, Control_c, 10, 10, 76
1, 23439, Note_on_c, 10, 62, 0
1, 23441, Control_c, 10, 10, 80
1, 23452, Control_c, 10, 11, 69
1, 23453, Note_on_c, 11, 55, 0
1, 23454, Control_c, 10, 10, 84
1, 23455, Note_on_c, 12, 55, 0
1, 23468, Control_c, 10, 10, 88
1, 23477, Control_c, 10, 11, 66
1, 23480, Control_c, 10, 10, 91
1, 23490, Control_c, 10, 11, 65
1, 23493, Control_c, 10, 10, 95
1, 23501, Note_on_c, 13, 43, 0
1, 23503, Note_on_c, 1, 31, 0
1, 23504, Control_c, 10, 11, 62
1, 23506, Control_c, 10, 10, 99
1, 23518, Note_on_c, 9, 42, 126
1, 23519, Note_on_c, 1, 31, 116
1, 23519, Note_on_c, 12, 55, 28
1, 23519, Control_c, 10, 10, 102
1, 23522, Note_on_c, 9, 40, 126
1, 23522, Note_on_c, 11, 55, 28
1, 23522, Note_on_c, 13, 43, 114
1, 23529, Control_c, 10, 11, 60
1, 23538, Note_on_c, 9, 42, 0
1, 23542, Note_on_c, 9, 40, 0
1, 23556, Control_c, 10, 11, 57
1, 23570, Control_c, 10, 11, 55
1, 23581, Note_on_c, 12, 55, 0
1, 23582, Control_c, 10, 11, 54
1, 23584, Note_on_c, 11, 55, 0
1, 23595, Control_c, 10, 11, 50
1, 23608, Control_c, 10, 11, 49
1, 23619, Note_on_c, 1, 31, 0
1, 23622, Note_on_c, 13, 43, 0
1, 23622, Control_c, 10, 11, 47
1, 23635, Control_c, 10, 11, 44
1, 23647, Control_c, 10, 11, 42
1, 23660, Control_c, 10, 11, 41
1, 23674, Control_c, 10, 11, 38
1, 23687, Control_c, 10, 11, 37
1, 23701, Control_c, 10, 11, 35
1, 23713, Control_c, 10, 11, 31
1, 23727, Control_c, 10, 11, 29
1, 23740, Control_c, 10, 11, 27
1, 23753, Control_c, 10, 11, 25
1, 23759, Note_on_c, 11, 55, 97
1, 23761, Note_on_c, 1, 31, 117
1, 23761, Note_on_c, 12, 55, 97
1, 23762, Note_on_c, 9, 42, 95
1, 23762, Note_on_c, 13, 43, 114
1, 23767, Control_c, 10, 11, 23
1, 23770, Program_c, 7, 48
1, 23779, Control_c, 10, 11, 20
1, 23780, Program_c, 8, 48
1, 23782, Note_on_c, 9, 42, 0
1, 23792, Control_c, 10, 11, 18
1, 23805, Control_c, 10, 11, 17
1, 23819, Control_c, 10, 11, 15
1, 23831, Control_c, 10, 11, 13
1, 23843, Note_on_c, 11, 55, 0
1, 23844, Control_c, 10, 11, 11
1, 23845, Note_on_c, 12, 55, 0
1, 23861, Note_on_c, 1, 31, 0
1, 23862, Note_on_c, 13, 43, 0
1, 23882, Note_on_c, 1, 31, 115
1, 23882, Note_on_c, 13, 43, 115
1, 23977, Control_c, 10, 11, 18
1, 23982, Note_on_c, 1, 31, 0
1, 23982, Note_on_c, 13, 43, 0
1, 23989, Control_c, 10, 11, 34
1, 23998, Note_on_c, 13, 43, 115
1, 24000, Note_on_c, 11, 55, 54
1, 24000, Note_on_c, 12, 55, 54
1, 24002, Note_on_c, 9, 36, 126
1, 24002, Note_on_c, 9, 42, 127
1, 24003, Note_on_c, 1, 31, 110
1, 24003, Control_c, 10, 11, 51
1, 24016, Control_c, 10, 11, 64
1, 24022, Note_on_c, 9, 36, 0
1, 24022, Note_on_c, 9, 42, 0
1, 24028, Control_c, 10, 11, 74
1, 24041, Control_c, 10, 11, 83
1, 24054, Control_c, 10, 11, 89
1, 24059, Note_on_c, 11, 55, 0
1, 24059, Note_on_c, 12, 55, 0
1, 24068, Control_c, 10, 11, 96
1, 24082, Control_c, 10, 11, 106
1, 24094, Control_c, 10, 11, 117
1, 24107, Control_c, 10, 11, 127
1, 24119, Note_on_c, 12, 55, 77
1, 24120, Note_on_c, 11, 55, 77
1, 24138, Note_on_c, 13, 43, 0
1, 24143, Note_on_c, 1, 31, 0
1, 24175, Note_on_c, 12, 55, 0
1, 24176, Note_on_c, 11, 55, 0
1, 24238, Note_on_c, 9, 42, 96
1, 24239, Note_on_c, 12, 55, 56
1, 24240, Note_on_c, 13, 43, 114
1, 24242, Note_on_c, 1, 31, 116
1, 24243, Note_on_c, 11, 55, 56
1, 24258, Note_on_c, 9, 42, 0
1, 24281, Note_on_c, 12, 55, 0
1, 24285, Note_on_c, 11, 55, 0
1, 24380, Note_on_c, 13, 43, 0
1, 24382, Note_on_c, 1, 31, 0
1, 24479, Note_on_c, 9, 40, 127
1, 24480, Note_on_c, 1, 31, 117
1, 24480, Note_on_c, 9, 42, 127
1, 24481, Note_on_c, 13, 43, 114
1, 24482, Note_on_c, 12, 55, 100
1, 24483, Note_on_c, 11, 55, 100
1, 24499, Note_on_c, 9, 40, 0
1, 24500, Note_on_c, 9, 42, 0
1, 24561, Note_on_c, 12, 55, 0
1, 24562, Note_on_c, 11, 55, 0
1, 24620, Note_on_c, 1, 31, 0
1, 24621, Note_on_c, 13, 43, 0
1, 24720, Note_on_c, 12, 55, 101
1, 24721, Note_on_c, 1, 31, 117
1, 24722, Note_on_c, 9, 42, 94
1, 24722, Note_on_c, 11, 55, 101
1, 24723, Note_on_c, 13, 43, 115
1, 24742, Note_on_c, 9, 42, 0
1, 24793, Note_on_c, 12, 55, 0
1, 24795, Note_on_c, 11, 55, 0
1, 24821, Note_on_c, 1, 31, 0
1, 24823, Note_on_c, 13, 43, 0
1, 24838, Note_on_c, 11, 55, 65
1, 24838, Note_on_c, 12, 55, 65
1, 24839, Note_on_c, 1, 31, 110
1, 24842, Note_on_c, 13, 43, 114
1, 24890, Note_on_c, 11, 55, 0
1, 24890, Note_on_c, 12, 55, 0
1, 24939, Note_on_c, 1, 31, 0
1, 24942, Note_on_c, 13, 43, 0
1, 24960, Note_on_c, 1, 31, 116
1, 24960, Note_on_c, 13, 43, 115
1, 24961, Note_on_c, 9, 36, 126
1, 24962, Note_on_c, 9, 42, 126
1, 24962, Note_on_c, 11, 55, 100
1, 24962, Note_on_c, 12, 55, 100
1, 24981, Note_on_c, 9, 36, 0
1, 24982, Note_on_c, 9, 42, 0
1, 25043, Note_on_c, 11, 55, 0
1, 25043, Note_on_c, 12, 55, 0
1, 25100, Note_on_c, 1, 31, 0
1, 25100, Note_on_c, 13, 43, 0
1, 25199, Note_on_c, 13, 43, 115
1, 25200, Note_on_c, 9, 42, 91
1, 25202, Note_on_c, 12, 55, 86
1, 25203, Note_on_c, 1, 31, 117
1, 25203, Note_on_c, 11, 55, 86
1, 25220, Note_on_c, 9, 42, 0
1, 25274, Note_on_c, 12, 55, 0
1, 25275, Note_on_c, 11, 55, 0
1, 25299, Note_on_c, 13, 43, 0
1, 25303, Note_on_c, 1, 31, 0
1, 25318, Note_on_c, 1, 31, 112
1, 25318, Note_on_c, 13, 43, 114
1, 25319, Note_on_c, 12, 55, 61
1, 25320, Note_on_c, 11, 55, 61
1, 25373, Note_on_c, 12, 55, 0
1, 25374, Note_on_c, 11, 55, 0
1, 25418, Note_on_c, 1, 31, 0
1, 25418, Note_on_c, 13, 43, 0
1, 25438, Note_on_c, 9, 40, 126
1, 25439, Note_on_c, 11, 55, 28
1, 25439, Note_on_c, 13, 43, 115
1, 25440, Note_on_c, 12, 55, 28
1, 25442, Note_on_c, 1, 31, 117
1, 25442, Note_on_c, 9, 42, 127
1, 25458, Note_on_c, 9, 40, 0
1, 25462, Note_on_c, 9, 42, 0
1, 25501, Note_on_c, 11, 55, 0
1, 25502, Note_on_c, 12, 55, 0
1, 25579, Note_on_c, 13, 43, 0
1, 25582, Note_on_c, 1, 31, 0
1, 25678, Note_on_c, 1, 31, 113
1, 25679, Note_on_c, 11, 55, 97
1, 25680, Note_on_c, 13, 43, 114
1, 25681, Note_on_c, 9, 42, 94
1, 25681, Note_on_c, 12, 55, 97
1, 25701, Note_on_c, 9, 42, 0
1, 25763, Note_on_c, 11, 55, 0
1, 25765, Note_on_c, 12, 55, 0
1, 25778, Note_on_c, 1, 31, 0
1, 25780, Note_on_c, 13, 43, 0
1, 25800, Note_on_c, 1, 31, 112
1, 25802, Note_on_c, 13, 43, 114
1, 25900, Note_on_c, 1, 31, 0
1, 25902, Note_on_c, 13, 43, 0
1, 25918, Note_on_c, 8, 50, 81
1, 25919, Note_on_c, 7, 62, 80
1, 25919, Note_on_c, 11, 55, 54
1, 25919, Note_on_c, 13, 43, 115
1, 25920, Note_on_c, 1, 31, 117
1, 25920, Note_on_c, 9, 42, 126
1, 25921, Note_on_c, 9, 36, 127
1, 25922, Note_on_c, 12, 55, 54
1, 25940, Note_on_c, 9, 42, 0
1, 25941, Note_on_c, 9, 36, 0
1, 25978, Note_on_c, 11, 55, 0
1, 25981, Note_on_c, 12, 55, 0
1, 26019, Note_on_c, 13, 43, 0
1, 26020, Note_on_c, 1, 31, 0
1, 26040, Note_on_c, 12, 55, 76
1, 26040, Note_on_c, 13, 43, 115
1, 26041, Note_on_c, 11, 55, 76
1, 26042, Note_on_c, 1, 31, 114
1, 26096, Note_on_c, 12, 55, 0
1, 26097, Note_on_c, 11, 55, 0
1, 26140, Note_on_c, 13, 43, 0
1, 26142, Note_on_c, 1, 31, 0
1, 26158, Note_on_c, 12, 55, 57
1, 26160, Note_on_c, 1, 31, 112
1, 26160, Note_on_c, 3, 81, 104
1, 26160, Note_on_c, 9, 36, 127
1, 26161, Note_on_c, 9, 42, 97
1, 26162, Note_on_c, 11, 55, 57
1, 26162, Note_on_c, 13, 43, 114
1, 26180, Note_on_c, 9, 36, 0
1, 26181, Note_on_c, 9, 42, 0
1, 26200, Note_on_c, 12, 55, 0
1, 26204, Note_on_c, 11, 55, 0
1, 26300, Note_on_c, 1, 31, 0
1, 26302, Note_on_c, 13, 43, 0
1, 26378, Note_on_c, 8, 50, 0
1, 26379, Note_on_c, 7, 62, 0
1, 26380, Note_on_c, 3, 81, 0
1, 26398, Note_on_c, 9, 40, 126
1, 26399, Note_on_c, 7, 64, 80
1, 26399, Note_on_c, 8, 52, 80
1, 26399, Note_on_c, 9, 42, 127
1, 26399, Note_on_c, 11, 55, 100
1, 26400, Note_on_c, 3, 81, 104
1, 26400, Note_on_c, 12, 55, 100
1, 26400, Note_on_c, 13, 43, 114
1, 26401, Note_on_c, 1, 31, 115
1, 26418, Note_on_c, 9, 40, 0
1, 26419, Note_on_c, 9, 42, 0
1, 26478, Note_on_c, 11, 55, 0
1, 26479, Note_on_c, 12, 55, 0
1, 26499, Note_on_c, 7, 64, 0
1, 26499, Note_on_c, 8, 52, 0
1, 26519, Note_on_c, 7, 65, 81
1, 26522, Note_on_c, 8, 53, 80
1, 26540, Note_on_c, 13, 43, 0
1, 26541, Note_on_c, 1, 31, 0
1, 26619, Note_on_c, 7, 65, 0
1, 26620, Note_on_c, 3, 81, 0
1, 26622, Note_on_c, 8, 53, 0
1, 26640, Note_on_c, 1, 31, 117
1, 26640, Note_on_c, 3, 79, 105
1, 26640, Note_on_c, 8, 55, 81
1, 26640, Note_on_c, 11, 55, 101
1, 26640, Note_on_c, 12, 55, 101
1, 26640, Note_on_c, 13, 43, 115
1, 26641, Note_on_c, 7, 67, 81
1, 26643, Note_on_c, 9, 42, 94
1, 26663, Note_on_c, 9, 42, 0
1, 26713, Note_on_c, 11, 55, 0
1, 26713, Note_on_c, 12, 55, 0
1, 26740, Note_on_c, 1, 31, 0
1, 26740, Note_on_c, 13, 43, 0
1, 26760, Note_on_c, 12, 55, 65
1, 26761, Note_on_c, 11, 55, 65
1, 26762, Note_on_c, 1, 31, 116
1, 26762, Note_on_c, 13, 43, 115
1, 26812, Note_on_c, 12, 55, 0
1, 26813, Note_on_c, 11, 55, 0
1, 26860, Note_on_c, 3, 79, 0
1, 26860, Note_on_c, 8, 55, 0
1, 26861, Note_on_c, 7, 67, 0
1, 26862, Note_on_c, 1, 31, 0
1, 26862, Note_on_c, 13, 43, 0
1, 26878, Note_on_c, 7, 62, 80
1, 26880, Note_on_c, 1, 22, 112
1, 26880, Note_on_c, 3, 79, 105
1, 26880, Note_on_c, 9, 36, 126
1, 26880, Note_on_c, 9, 42, 126
1, 26880, Note_on_c, 11, 58, 100
1, 26880, Note_on_c, 13, 34, 114
1, 26882, Note_on_c, 8, 50, 81
1, 26883, Note_on_c, 12, 58, 100
1, 26900, Note_on_c, 9, 36, 0
1, 26900, Note_on_c, 9, 42, 0
1, 26961, Note_on_c, 11, 58, 0
1, 26964, Note_on_c, 12, 58, 0
1, 27020, Note_on_c, 1, 22, 0
1, 27020, Note_on_c, 13, 34, 0
1, 27119, Note_on_c, 12, 58, 87
1, 27119, Note_on_c, 13, 34, 114
1, 27121, Note_on_c, 1, 22, 115
1, 27121, Note_on_c, 9, 42, 91
1, 27123, Note_on_c, 11, 58, 87
1, 27141, Note_on_c, 9, 42, 0
1, 27191, Note_on_c, 12, 58, 0
1, 27195, Note_on_c, 11, 58, 0
1, 27219, Note_on_c, 13, 34, 0
1, 27221, Note_on_c, 1, 22, 0
1, 27238, Note_on_c, 1, 22, 117
1, 27238, Note_on_c, 13, 34, 115
1, 27241, Note_on_c, 11, 58, 60
1, 27242, Note_on_c, 12, 58, 60
1, 27295, Note_on_c, 11, 58, 0
1, 27296, Note_on_c, 12, 58, 0
1, 27338, Note_on_c, 1, 22, 0
1, 27338, Note_on_c, 13, 34, 0
1, 27360, Note_on_c, 12, 58, 28
1, 27360, Note_on_c, 13, 34, 114
1, 27361, Note_on_c, 11, 58, 28
1, 27362, Note_on_c, 1, 22, 114
1, 27362, Note_on_c, 9, 40, 127
1, 27362, Note_on_c, 9, 42, 126
1, 27382, Note_on_c, 9, 40, 0
1, 27382, Note_on_c, 9, 42, 0
1, 27422, Note_on_c, 12, 58, 0
1, 27423, Note_on_c, 11, 58, 0
1, 27460, Note_on_c, 13, 34, 0
1, 27462, Note_on_c, 1, 22, 0
1, 27598, Note_on_c, 13, 34, 115
1, 27599, Note_on_c, 9, 42, 95
1, 27602, Note_on_c, 1, 22, 110
1, 27603, Note_on_c, 11, 58, 96
1, 27603, Note_on_c, 12, 58, 96
1, 27619, Note_on_c, 9, 42, 0
1, 27687, Note_on_c, 11, 58, 0
1, 27687, Note_on_c, 12, 58, 0
1, 27698, Note_on_c, 13, 34, 0
1, 27702, Note_on_c, 1, 22, 0
1, 27720, Note_on_c, 1, 22, 119
1, 27722, Note_on_c, 13, 34, 115
1, 27820, Note_on_c, 1, 22, 0
1, 27820, Note_on_c, 3, 79, 0
1, 27822, Note_on_c, 13, 34, 0
1, 27840, Note_on_c, 11, 58, 55
1, 27841, Note_on_c, 9, 36, 126
1, 27841, Note_on_c, 12, 58, 55
1, 27842, Note_on_c, 1, 22, 110
1, 27842, Note_on_c, 9, 42, 127
1, 27843, Note_on_c, 13, 34, 114
1, 27861, Note_on_c, 9, 36, 0
1, 27862, Note_on_c, 9, 42, 0
1, 27899, Note_on_c, 11, 58, 0
1, 27900, Note_on_c, 12, 58, 0
1, 27961, Note_on_c, 11, 58, 77
1, 27961, Note_on_c, 12, 58, 77
1, 27982, Note_on_c, 1, 22, 0
1, 27983, Note_on_c, 13, 34, 0
1, 28017, Note_on_c, 11, 58, 0
1, 28017, Note_on_c, 12, 58, 0
1, 28079, Note_on_c, 11, 58, 56
1, 28080, Note_on_c, 9, 42, 96
1, 28080, Note_on_c, 12, 58, 56
1, 28080, Note_on_c, 13, 34, 115
1, 28083, Note_on_c, 1, 22, 117
1, 28100, Note_on_c, 9, 42, 0
1, 28121, Note_on_c, 11, 58, 0
1, 28122, Note_on_c, 12, 58, 0
1, 28220, Note_on_c, 13, 34, 0
1, 28223, Note_on_c, 1, 22, 0
1, 28319, Note_on_c, 13, 34, 114
1, 28320, Note_on_c, 9, 42, 127
1, 28321, Note_on_c, 1, 22, 117
1, 28321, Note_on_c, 11, 58, 100
1, 28322, Note_on_c, 12, 58, 100
1, 28323, Note_on_c, 9, 40, 127
1, 28340, Note_on_c, 9, 42, 0
1, 28343, Note_on_c, 9, 40, 0
1, 28400, Note_on_c, 11, 58, 0
1, 28401, Note_on_c, 12, 58, 0
1, 28459, Note_on_c, 13, 34, 0
1, 28461, Note_on_c, 1, 22, 0
1, 28558, Note_on_c, 11, 58, 101
1, 28560, Note_on_c, 1, 22, 116
1, 28560, Note_on_c, 3, 79, 104
1, 28560, Note_on_c, 13, 34, 114
1, 28561, Note_on_c, 12, 58, 101
1, 28562, Note_on_c, 9, 42, 94
1, 28582, Note_on_c, 9, 42, 0
1, 28631, Note_on_c, 11, 58, 0
1, 28634, Note_on_c, 12, 58, 0
1, 28660, Note_on_c, 1, 22, 0
1, 28660, Note_on_c, 13, 34, 0
1, 28680, Note_on_c, 12, 58, 65
1, 28681, Note_on_c, 1, 22, 115
1, 28682, Note_on_c, 11, 58, 65
1, 28683, Note_on_c, 13, 34, 115
1, 28732, Note_on_c, 12, 58, 0
1, 28734, Note_on_c, 11, 58, 0
1, 28778, Note_on_c, 7, 62, 0
1, 28780, Note_on_c, 3, 79, 0
1, 28781, Note_on_c, 1, 22, 0
1, 28782, Note_on_c, 8, 50, 0
1, 28783, Note_on_c, 13, 34, 0
1, 28799, Note_on_c, 8, 49, 80
1, 28799, Note_on_c, 9, 42, 126
1, 28800, Note_on_c, 3, 77, 104
1, 28800, Note_on_c, 13, 45, 115
1, 28801, Note_on_c, 1, 33, 116
1, 28801, Note_on_c, 7, 64, 80
1, 28802, Note_on_c, 9, 36, 127
1, 28802, Note_on_c, 12, 57, 100
1, 28803, Note_on_c, 11, 57, 100
1, 28819, Note_on_c, 9, 42, 0
1, 28822, Note_on_c, 9, 36, 0
1, 28883, Note_on_c, 12, 57, 0
1, 28884, Note_on_c, 11, 57, 0
1, 28940, Note_on_c, 13, 45, 0
1, 28941, Note_on_c, 1, 33, 0
1, 29039, Note_on_c, 12, 57, 86
1, 29041, Note_on_c, 9, 42, 91
1, 29041, Note_on_c, 11, 57, 86
1, 29042, Note_on_c, 1, 33, 114
1, 29042, Note_on_c, 13, 45, 114
1, 29061, Note_on_c, 9, 42, 0
1, 29111, Note_on_c, 12, 57, 0
1, 29113, Note_on_c, 11, 57, 0
1, 29142, Note_on_c, 1, 33, 0
1, 29142, Note_on_c, 13, 45, 0
1, 29159, Note_on_c, 11, 57, 61
1, 29160, Note_on_c, 12, 57, 61
1, 29161, Note_on_c, 1, 33, 113
1, 29162, Note_on_c, 13, 45, 114
1, 29213, Note_on_c, 11, 57, 0
1, 29214, Note_on_c, 12, 57, 0
1, 29261, Note_on_c, 1, 33, 0
1, 29262, Note_on_c, 13, 45, 0
1, 29279, Note_on_c, 9, 40, 126
1, 29279, Note_on_c, 9, 42, 127
1, 29280, Note_on_c, 1, 33, 119
1, 29281, Note_on_c, 12, 57, 28
1, 29281, Note_on_c, 13, 45, 115
1, 29283, Note_on_c, 11, 57, 28
1, 29299, Note_on_c, 9, 40, 0
1, 29299, Note_on_c, 9, 42, 0
1, 29343, Note_on_c, 12, 57, 0
1, 29345, Note_on_c, 11, 57, 0
1, 29420, Note_on_c, 1, 33, 0
1, 29421, Note_on_c, 13, 45, 0
1, 29518, Note_on_c, 11, 57, 96
1, 29519, Note_on_c, 12, 57, 96
1, 29521, Note_on_c, 1, 33, 112
1, 29522, Note_on_c, 9, 42, 94
1, 29522, Note_on_c, 13, 45, 115
1, 29542, Note_on_c, 9, 42, 0
1, 29602, Note_on_c, 11, 57, 0
1, 29603, Note_on_c, 12, 57, 0
1, 29621, Note_on_c, 1, 33, 0
1, 29622, Note_on_c, 13, 45, 0
1, 29640, Note_on_c, 13, 45, 114
1, 29641, Note_on_c, 1, 33, 112
1, 29740, Note_on_c, 3, 77, 0
1, 29740, Note_on_c, 13, 45, 0
1, 29741, Note_on_c, 1, 33, 0
1, 29748, Control_c, 7, 11, 124
1, 29759, Note_on_c, 12, 57, 55
1, 29760, Note_on_c, 3, 76, 105
1, 29760, Control_c, 7, 11, 123
1, 29761, Note_on_c, 9, 42, 126
1, 29761, Note_on_c, 13, 45, 114
1, 29762, Note_on_c, 11, 57, 55
1, 29763, Note_on_c, 1, 33, 117
1, 29763, Note_on_c, 9, 36, 127
1, 29772, Control_c, 7, 11, 121
1, 29781, Note_on_c, 9, 42, 0
1, 29783, Note_on_c, 9, 36, 0
1, 29785, Control_c, 7, 11, 120
1, 29812, Control_c, 7, 11, 118
1, 29818, Note_on_c, 12, 57, 0
1, 29821, Note_on_c, 11, 57, 0
1, 29852, Control_c, 7, 11, 117
1, 29861, Note_on_c, 13, 45, 0
1, 29863, Note_on_c, 1, 33, 0
1, 29879, Control_c, 7, 11, 115
1, 29880, Note_on_c, 1, 33, 111
1, 29880, Note_on_c, 13, 45, 115
1, 29882, Note_on_c, 12, 57, 77
1, 29883, Note_on_c, 11, 57, 77
1, 29904, Control_c, 7, 11, 112
1, 29929, Control_c, 7, 11, 110
1, 29938, Note_on_c, 12, 57, 0
1, 29939, Note_on_c, 11, 57, 0
1, 29970, Control_c, 7, 11, 109
1, 29980, Note_on_c, 1, 33, 0
1, 29980, Note_on_c, 13, 45, 0
1, 29999, Note_on_c, 12, 57, 56
1, 30001, Note_on_c, 9, 36, 126
1, 30001, Note_on_c, 9, 42, 97
1, 30001, Note_on_c, 11, 57, 56
1, 30002, Note_on_c, 1, 33, 114
1, 30002, Note_on_c, 13, 45, 114
1, 30010, Control_c, 7, 11, 106
1, 30021, Note_on_c, 9, 36, 0
1, 30021, Note_on_c, 9, 42, 0
1, 30035, Control_c, 7, 11, 107
1, 30041, Note_on_c, 12, 57, 0
1, 30043, Note_on_c, 11, 57, 0
1, 30076, Control_c, 7, 11, 105
1, 30114, Control_c, 7, 11, 102
1, 30142, Note_on_c, 1, 33, 0
1, 30142, Note_on_c, 13, 45, 0
1, 30167, Control_c, 7, 11, 101
1, 30220, Note_on_c, 3, 76, 0
1, 30233, Control_c, 7, 11, 98
1, 30238, Note_on_c, 12, 57, 101
1, 30239, Note_on_c, 13, 45, 115
1, 30240, Note_on_c, 1, 33, 110
1, 30240, Note_on_c, 9, 42, 127
1, 30241, Note_on_c, 9, 40, 126
1, 30242, Note_on_c, 11, 57, 101
1, 30259, Control_c, 7, 11, 96
1, 30260, Note_on_c, 9, 42, 0
1, 30261, Note_on_c, 9, 40, 0
1, 30271, Control_c, 7, 11, 97
1, 30284, Control_c, 7, 11, 95
1, 30298, Control_c, 7, 11, 92
1, 30310, Control_c, 7, 11, 90
1, 30317, Note_on_c, 12, 57, 0
1, 30321, Note_on_c, 11, 57, 0
1, 30325, Control_c, 7, 11, 89
1, 30336, Control_c, 7, 11, 85
1, 30350, Control_c, 7, 11, 82
1, 30363, Control_c, 7, 11, 78
1, 30376, Control_c, 7, 11, 77
1, 30379, Note_on_c, 13, 45, 0
1, 30380, Note_on_c, 1, 33, 0
1, 30391, Control_c, 7, 11, 72
1, 30402, Control_c, 7, 11, 71
1, 30416, Control_c, 7, 11, 67
1, 30429, Control_c, 7, 11, 64
1, 30442, Control_c, 7, 11, 63
1, 30456, Control_c, 7, 11, 58
1, 30469, Control_c, 7, 11, 56
1, 30478, Note_on_c, 12, 57, 100
1, 30480, Note_on_c, 1, 37, 111
1, 30480, Note_on_c, 9, 42, 94
1, 30481, Control_c, 7, 11, 55
1, 30482, Note_on_c, 11, 57, 100
1, 30482, Note_on_c, 13, 49, 115
1, 30494, Control_c, 7, 11, 53
1, 30500, Note_on_c, 9, 42, 0
1, 30509, Control_c, 7, 11, 48
1, 30522, Control_c, 7, 11, 48
1, 30551, Note_on_c, 12, 57, 0
1, 30555, Note_on_c, 11, 57, 0
1, 30560, Control_c, 7, 11, 47
1, 30588, Control_c, 7, 11, 45
1, 30602, Note_on_c, 11, 57, 64
1, 30603, Note_on_c, 12, 57, 64
1, 30620, Note_on_c, 1, 37, 0
1, 30622, Note_on_c, 13, 49, 0
1, 30654, Note_on_c, 11, 57, 0
1, 30655, Note_on_c, 12, 57, 0
1, 30699, Note_on_c, 8, 49, 0
1, 30701, Note_on_c, 7, 64, 0
1, 30719, Note_on_c, 8, 50, 80
1, 30720, Note_on_c, 9, 36, 126
1, 30721, Note_on_c, 11, 50, 101
1, 30721, Note_on_c, 11, 62, 101
1, 30721, Note_on_c, 12, 62, 101
1, 30721, Note_on_c, 13, 38, 114
1, 30722, Note_on_c, 1, 26, 114
1, 30722, Note_on_c, 9, 42, 126
1, 30722, Note_on_c, 12, 50, 101
1, 30723, Note_on_c, 7, 65, 115
1, 30732, Control_c, 7, 11, 44
1, 30740, Note_on_c, 9, 36, 0
1, 30742, Note_on_c, 9, 42, 0
1, 30757, Control_c, 7, 11, 46
1, 30785, Control_c, 7, 11, 49
1, 30796, Control_c, 7, 11, 50
1, 30802, Note_on_c, 11, 50, 0
1, 30802, Note_on_c, 11, 62, 0
1, 30802, Note_on_c, 12, 62, 0
1, 30803, Note_on_c, 12, 50, 0
1, 30823, Control_c, 7, 11, 53
1, 30837, Control_c, 7, 11, 55
1, 30861, Note_on_c, 13, 38, 0
1, 30862, Note_on_c, 1, 26, 0
1, 30875, Control_c, 7, 11, 54
1, 30916, Control_c, 7, 11, 57
1, 30955, Control_c, 7, 11, 58
1, 30959, Note_on_c, 11, 50, 86
1, 30959, Note_on_c, 12, 62, 86
1, 30960, Note_on_c, 9, 42, 91
1, 30960, Note_on_c, 11, 62, 86
1, 30960, Note_on_c, 12, 50, 86
1, 30960, Note_on_c, 13, 38, 115
1, 30962, Note_on_c, 1, 26, 117
1, 30980, Note_on_c, 9, 42, 0
1, 30980, Control_c, 7, 11, 60
1, 31021, Control_c, 7, 11, 63
1, 31031, Note_on_c, 11, 50, 0
1, 31031, Note_on_c, 12, 62, 0
1, 31032, Note_on_c, 11, 62, 0
1, 31032, Note_on_c, 12, 50, 0
1, 31060, Note_on_c, 13, 38, 0
1, 31062, Note_on_c, 1, 26, 0
1, 31079, Note_on_c, 11, 50, 61
1, 31079, Note_on_c, 12, 62, 61
1, 31080, Note_on_c, 1, 26, 115
1, 31080, Note_on_c, 12, 50, 61
1, 31081, Note_on_c, 13, 38, 114
1, 31083, Note_on_c, 11, 62, 61
1, 31086, Control_c, 7, 11, 63
1, 31133, Note_on_c, 11, 50, 0
1, 31133, Note_on_c, 12, 62, 0
1, 31134, Note_on_c, 12, 50, 0
1, 31137, Note_on_c, 11, 62, 0
1, 31138, Control_c, 7, 11, 64
1, 31179, Control_c, 7, 11, 66
1, 31180, Note_on_c, 1, 26, 0
1, 31181, Note_on_c, 13, 38, 0
1, 31199, Note_on_c, 1, 26, 110
1, 31199, Note_on_c, 9, 40, 127
1, 31199, Note_on_c, 12, 50, 28
1, 31200, Note_on_c, 13, 38, 114
1, 31201, Note_on_c, 11, 50, 28
1, 31201, Note_on_c, 11, 62, 28
1, 31202, Note_on_c, 9, 42, 126
1, 31203, Note_on_c, 12, 62, 28
1, 31219, Note_on_c, 9, 40, 0
1, 31222, Note_on_c, 9, 42, 0
1, 31257, Control_c, 7, 11, 69
1, 31261, Note_on_c, 12, 50, 0
1, 31263, Note_on_c, 11, 50, 0
1, 31263, Note_on_c, 11, 62, 0
1, 31265, Note_on_c, 12, 62, 0
1, 31299, Note_on_c, 1, 26, 0
1, 31300, Note_on_c, 13, 38, 0
1, 31323, Control_c, 7, 11, 69
1, 31389, Control_c, 7, 11, 70
1, 31428, Control_c, 7, 11, 72
1, 31439, Note_on_c, 13, 38, 115
1, 31440, Note_on_c, 12, 62, 96
1, 31441, Note_on_c, 1, 26, 117
1, 31441, Note_on_c, 9, 42, 95
1, 31441, Note_on_c, 11, 50, 96
1, 31442, Note_on_c, 11, 62, 96
1, 31442, Note_on_c, 12, 50, 96
1, 31461, Note_on_c, 9, 42, 0
1, 31467, Control_c, 7, 11, 75
1, 31493, Control_c, 7, 11, 74
1, 31524, Note_on_c, 12, 62, 0
1, 31525, Note_on_c, 11, 50, 0
1, 31526, Note_on_c, 11, 62, 0
1, 31526, Note_on_c, 12, 50, 0
1, 31539, Note_on_c, 13, 38, 0
1, 31541, Note_on_c, 1, 26, 0
1, 31561, Note_on_c, 1, 26, 112
1, 31562, Note_on_c, 13, 38, 115
1, 31573, Control_c, 7, 11, 77
1, 31661, Note_on_c, 1, 26, 0
1, 31662, Note_on_c, 13, 38, 0
1, 31677, Control_c, 7, 11, 79
1, 31678, Note_on_c, 1, 26, 112
1, 31679, Note_on_c, 9, 36, 127
1, 31679, Note_on_c, 11, 62, 55
1, 31679, Note_on_c, 12, 50, 55
1, 31679, Note_on_c, 13, 38, 114
1, 31680, Note_on_c, 11, 50, 54
1, 31681, Note_on_c, 9, 42, 127
1, 31682, Note_on_c, 12, 62, 54
1, 31699, Note_on_c, 9, 36, 0
1, 31701, Note_on_c, 9, 42, 0
1, 31738, Note_on_c, 11, 62, 0
1, 31738, Note_on_c, 12, 50, 0
1, 31739, Note_on_c, 11, 50, 0
1, 31741, Note_on_c, 12, 62, 0
1, 31799, Note_on_c, 11, 62, 77
1, 31800, Note_on_c, 11, 50, 77
1, 31800, Note_on_c, 12, 62, 77
1, 31801, Note_on_c, 12, 50, 77
1, 31818, Note_on_c, 1, 26, 0
1, 31819, Note_on_c, 13, 38, 0
1, 31855, Note_on_c, 11, 62, 0
1, 31856, Note_on_c, 11, 50, 0
1, 31856, Note_on_c, 12, 62, 0
1, 31857, Note_on_c, 12, 50, 0
1, 31918, Note_on_c, 1, 26, 113
1, 31918, Note_on_c, 13, 38, 114
1, 31920, Note_on_c, 12, 62, 56
1, 31921, Note_on_c, 12, 50, 57
1, 31922, Note_on_c, 9, 42, 96
1, 31922, Note_on_c, 11, 62, 56
1, 31923, Note_on_c, 11, 50, 57
1, 31942, Note_on_c, 9, 42, 0
1, 31954, Control_c, 7, 11, 80
1, 31962, Note_on_c, 12, 62, 0
1, 31963, Note_on_c, 12, 50, 0
1, 31964, Note_on_c, 11, 62, 0
1, 31965, Note_on_c, 11, 50, 0
1, 32058, Note_on_c, 1, 26, 0
1, 32058, Note_on_c, 13, 38, 0
1, 32160, Note_on_c, 11, 50, 100
1, 32160, Note_on_c, 11, 62, 100
1, 32161, Note_on_c, 9, 40, 127
1, 32161, Note_on_c, 12, 50, 100
1, 32161, Note_on_c, 12, 62, 100
1, 32161, Note_on_c, 13, 38, 115
1, 32163, Note_on_c, 1, 26, 119
1, 32163, Note_on_c, 9, 42, 127
1, 32181, Note_on_c, 9, 40, 0
1, 32183, Note_on_c, 9, 42, 0
1, 32232, Control_c, 2, 11, 52
1, 32239, Note_on_c, 11, 50, 0
1, 32239, Note_on_c, 11, 62, 0
1, 32240, Note_on_c, 12, 50, 0
1, 32240, Note_on_c, 12, 62, 0
1, 32244, Control_c, 2, 11, 51
1, 32256, Control_c, 2, 11, 47
1, 32270, Control_c, 2, 11, 42
1, 32283, Control_c, 2, 11, 39
1, 32296, Control_c, 2, 11, 36
1, 32301, Note_on_c, 13, 38, 0
1, 32303, Note_on_c, 1, 26, 0
1, 32310, Control_c, 2, 11, 34
1, 32322, Control_c, 2, 11, 31
1, 32335, Control_c, 2, 11, 30
1, 32348, Control_c, 2, 11, 28
1, 32376, Control_c, 2, 11, 26
1, 32398, Note_on_c, 1, 26, 116
1, 32398, Note_on_c, 12, 50, 101
1, 32399, Note_on_c, 9, 42, 94
1, 32401, Note_on_c, 11, 50, 101
1, 32401, Note_on_c, 11, 62, 101
1, 32401, Note_on_c, 13, 38, 115
1, 32402, Note_on_c, 12, 62, 101
1, 32414, Control_c, 7, 11, 81
1, 32419, Note_on_c, 9, 42, 0
1, 32471, Note_on_c, 12, 50, 0
1, 32474, Note_on_c, 11, 50, 0
1, 32474, Note_on_c, 11, 62, 0
1, 32475, Note_on_c, 12, 62, 0
1, 32498, Note_on_c, 1, 26, 0
1, 32501, Note_on_c, 13, 38, 0
1, 32505, Control_c, 7, 11, 82
1, 32518, Note_on_c, 12, 50, 64
1, 32519, Note_on_c, 11, 50, 64
1, 32519, Note_on_c, 11, 62, 64
1, 32519, Note_on_c, 12, 62, 64
1, 32522, Note_on_c, 13, 38, 114
1, 32523, Note_on_c, 1, 26, 118
1, 32530, Control_c, 7, 11, 84
1, 32558, Control_c, 7, 11, 87
1, 32570, Note_on_c, 12, 50, 0
1, 32571, Note_on_c, 11, 50, 0
1, 32571, Note_on_c, 11, 62, 0
1, 32571, Note_on_c, 12, 62, 0
1, 32573, Control_c, 2, 11, 28
1, 32583, Control_c, 7, 11, 89
1, 32585, Control_c, 2, 11, 29
1, 32612, Control_c, 2, 11, 31
1, 32622, Note_on_c, 13, 38, 0
1, 32623, Note_on_c, 1, 26, 0
1, 32623, Control_c, 7, 11, 88
1, 32625, Control_c, 2, 11, 33
1, 32640, Note_on_c, 1, 26, 117
1, 32640, Note_on_c, 11, 62, 101
1, 32641, Note_on_c, 12, 62, 101
1, 32642, Note_on_c, 2, 60, 95
1, 32642, Note_on_c, 9, 36, 126
1, 32642, Note_on_c, 9, 42, 126
1, 32642, Note_on_c, 11, 50, 101
1, 32642, Note_on_c, 12, 50, 101
1, 32642, Note_on_c, 13, 38, 114
1, 32650, Control_c, 2, 11, 37
1, 32662, Note_on_c, 9, 36, 0
1, 32662, Note_on_c, 9, 42, 0
1, 32663, Control_c, 2, 11, 38
1, 32676, Control_c, 2, 11, 40
1, 32691, Control_c, 2, 11, 43
1, 32702, Control_c, 7, 11, 90
1, 32721, Note_on_c, 11, 62, 0
1, 32722, Note_on_c, 12, 62, 0
1, 32723, Note_on_c, 11, 50, 0
1, 32723, Note_on_c, 12, 50, 0
1, 32742, Control_c, 7, 11, 93
1, 32757, Control_c, 2, 11, 45
1, 32780, Note_on_c, 1, 26, 0
1, 32782, Note_on_c, 13, 38, 0
1, 32794, Control_c, 7, 11, 95
1, 32795, Control_c, 2, 11, 44
1, 32832, Control_c, 7, 11, 94
1, 32835, Control_c, 2, 11, 46
1, 32873, Control_c, 7, 11, 96
1, 32875, Control_c, 2, 11, 49
1, 32879, Note_on_c, 1, 26, 113
1, 32879, Note_on_c, 9, 42, 91
1, 32879, Note_on_c, 12, 62, 86
1, 32880, Note_on_c, 11, 62, 86
1, 32880, Note_on_c, 13, 38, 115
1, 32881, Note_on_c, 12, 50, 86
1, 32882, Note_on_c, 11, 50, 86
1, 32899, Note_on_c, 9, 42, 0
1, 32900, Control_c, 2, 11, 50
1, 32911, Control_c, 7, 11, 99
1, 32926, Control_c, 2, 11, 53
1, 32939, Control_c, 7, 11, 100
1, 32951, Note_on_c, 12, 62, 0
1, 32952, Note_on_c, 11, 62, 0
1, 32952, System_exclusive, 35, 0, 32, 36, 0, 4, 76, 69, 70, 84, 32, 66, 82, 79, 75, 69, 78, 32, 69, 77, 80, 84, 89, 32, 73, 78, 32, 68, 69, 83, 80, 65, 73, 82, 10, 247
1, 32953, Note_on_c, 12, 50, 0
1, 32954, Note_on_c, 11, 50, 0
1, 32954, Control_c, 2, 11, 55
1, 32957, System_exclusive, 34, 0, 32, 36, 0, 5, 87, 65, 78, 78, 65, 32, 66, 82, 69, 65, 84, 72, 32, 67, 65, 78, 39, 84, 32, 70, 73, 78, 68, 32, 65, 73, 82, 10, 247
1, 32962, System_exclusive, 7, 0, 32, 36, 0, 6, 10, 247
1, 32964, Control_c, 7, 11, 101
1, 32967, System_exclusive, 7, 0, 32, 36, 0, 7, 10, 247
1, 32977, System_exclusive, 6, 0, 32, 36, 0, 8, 247
1, 32979, Note_on_c, 1, 26, 0
1, 32979, Control_c, 2, 11, 56
1, 32980, Note_on_c, 13, 38, 0
1, 32999, Note_on_c, 12, 50, 61
1, 33001, Note_on_c, 1, 26, 110
1, 33001, Note_on_c, 11, 50, 61
1, 33001, Note_on_c, 11, 62, 60
1, 33001, Note_on_c, 13, 38, 114
1, 33003, Note_on_c, 12, 62, 60
1, 33007, Control_c, 2, 11, 57
1, 33017, Control_c, 7, 11, 103
1, 33045, Control_c, 2, 11, 58
1, 33053, Note_on_c, 12, 50, 0
1, 33055, Note_on_c, 11, 50, 0
1, 33055, Note_on_c, 11, 62, 0
1, 33057, Note_on_c, 12, 62, 0
1, 33072, Control_c, 2, 11, 60
1, 33096, Control_c, 7, 11, 104
1, 33097, Control_c, 2, 11, 63
1, 33101, Note_on_c, 1, 26, 0
1, 33101, Note_on_c, 13, 38, 0
1, 33119, Note_on_c, 12, 50, 28
1, 33119, Note_on_c, 13, 38, 115
1, 33121, Note_on_c, 9, 40, 126
1, 33121, Note_on_c, 9, 42, 127
1, 33122, Note_on_c, 1, 26, 114
1, 33122, Note_on_c, 11, 62, 28
1, 33122, Note_on_c, 12, 62, 28
1, 33123, Note_on_c, 11, 50, 28
1, 33125, Control_c, 2, 11, 65
1, 33135, Control_c, 7, 11, 107
1, 33141, Note_on_c, 9, 40, 0
1, 33141, Note_on_c, 9, 42, 0
1, 33150, Control_c, 2, 11, 66
1, 33181, Note_on_c, 12, 50, 0
1, 33184, Note_on_c, 11, 62, 0
1, 33184, Note_on_c, 12, 62, 0
1, 33185, Note_on_c, 11, 50, 0
1, 33188, Control_c, 7, 11, 106
1, 33213, Control_c, 7, 11, 108
1, 33216, Control_c, 2, 11, 68
1, 33254, Control_c, 7, 11, 111
1, 33256, Control_c, 2, 11, 69
1, 33259, Note_on_c, 13, 38, 0
1, 33262, Note_on_c, 1, 26, 0
1, 33307, Control_c, 2, 11, 71
1, 33320, Control_c, 7, 11, 113
1, 33345, Control_c, 7, 11, 114
1, 33349, Control_c, 2, 11, 72
1, 33358, Note_on_c, 11, 50, 97
1, 33359, Note_on_c, 12, 62, 97
1, 33360, Note_on_c, 1, 26, 119
1, 33360, Note_on_c, 12, 50, 97
1, 33362, Note_on_c, 9, 42, 94
1, 33362, Note_on_c, 11, 62, 97
1, 33363, Note_on_c, 13, 38, 115
1, 33382, Note_on_c, 9, 42, 0
1, 33388, Control_c, 2, 11, 74
1, 33398, Control_c, 7, 11, 114
1, 33442, Note_on_c, 11, 50, 0
1, 33443, Note_on_c, 12, 62, 0
1, 33444, Note_on_c, 12, 50, 0
1, 33446, Note_on_c, 11, 62, 0
1, 33451, Control_c, 7, 11, 113
1, 33460, Note_on_c, 1, 26, 0
1, 33463, Note_on_c, 13, 38, 0
1, 33463, Control_c, 7, 11, 109
1, 33476, Control_c, 7, 11, 104
1, 33480, Note_on_c, 1, 26, 118
1, 33480, Note_on_c, 13, 38, 114
1, 33490, Control_c, 7, 11, 100
1, 33503, Control_c, 7, 11, 97
1, 33515, Control_c, 7, 11, 92
1, 33528, Control_c, 7, 11, 91
1, 33555, Control_c, 7, 11, 89
1, 33580, Note_on_c, 1, 26, 0
1, 33580, Note_on_c, 13, 38, 0
1, 33580, Control_c, 7, 11, 86
1, 33582, Note_on_c, 2, 60, 0
1, 33599, Note_on_c, 12, 50, 54
1, 33599, Note_on_c, 12, 62, 55
1, 33600, Note_on_c, 9, 36, 127
1, 33601, Note_on_c, 13, 38, 115
1, 33602, Note_on_c, 1, 26, 119
1, 33602, Note_on_c, 9, 42, 126
1, 33603, Note_on_c, 11, 50, 54
1, 33603, Note_on_c, 11, 62, 55
1, 33620, Note_on_c, 9, 36, 0
1, 33622, Note_on_c, 9, 42, 0
1, 33658, Note_on_c, 12, 50, 0
1, 33658, Note_on_c, 12, 62, 0
1, 33661, Control_c, 7, 11, 85
1, 33662, Note_on_c, 11, 50, 0
1, 33662, Note_on_c, 11, 62, 0
1, 33663, Control_c, 2, 11, 73
1, 33673, Control_c, 7, 11, 80
1, 33687, Control_c, 7, 11, 80
1, 33701, Note_on_c, 13, 38, 0
1, 33702, Note_on_c, 1, 26, 0
1, 33703, Control_c, 2, 11, 70
1, 33719, Note_on_c, 1, 26, 119
1, 33720, Note_on_c, 9, 40, 126
1, 33720, Note_on_c, 11, 50, 76
1, 33721, Note_on_c, 12, 62, 76
1, 33721, Note_on_c, 13, 38, 114
1, 33722, Note_on_c, 11, 62, 76
1, 33722, Note_on_c, 12, 50, 76
1, 33728, Control_c, 2, 11, 71
1, 33740, Note_on_c, 9, 40, 0
1, 33741, Control_c, 2, 11, 69
1, 33754, Control_c, 2, 11, 64
1, 33766, Control_c, 7, 11, 85
1, 33769, Control_c, 2, 11, 63
1, 33776, Note_on_c, 11, 50, 0
1, 33777, Note_on_c, 12, 62, 0
1, 33778, Note_on_c, 11, 62, 0
1, 33778, Note_on_c, 12, 50, 0
1, 33778, Control_c, 7, 11, 89
1, 33780, Control_c, 2, 11, 58
1, 33791, Control_c, 7, 11, 92
1, 33794, Control_c, 2, 11, 56
1, 33805, Control_c, 7, 11, 94
1, 33807, Control_c, 2, 11, 55
1, 33817, Control_c, 7, 11, 97
1, 33819, Note_on_c, 1, 26, 0
1, 33820, Control_c, 2, 11, 51
1, 33821, Note_on_c, 13, 38, 0
1, 33832, Control_c, 2, 11, 48
1, 33838, Note_on_c, 11, 50, 57
1, 33839, Note_on_c, 9, 36, 127
1, 33839, Note_on_c, 12, 62, 57
1, 33841, Note_on_c, 9, 42, 97
1, 33841, Note_on_c, 13, 38, 114
1, 33842, Note_on_c, 11, 62, 57
1, 33842, Note_on_c, 12, 50, 57
1, 33843, Note_on_c, 1, 26, 116
1, 33843, Control_c, 7, 11, 97
1, 33846, Control_c, 2, 11, 48
1, 33859, Note_on_c, 9, 36, 0
1, 33859, Control_c, 2, 11, 47
1, 33861, Note_on_c, 9, 42, 0
1, 33871, Control_c, 7, 11, 98
1, 33872, Control_c, 2, 11, 43
1, 33880, Note_on_c, 11, 50, 0
1, 33881, Note_on_c, 12, 62, 0
1, 33884, Note_on_c, 11, 62, 0
1, 33884, Note_on_c, 12, 50, 0
1, 33886, Control_c, 2, 11, 40
1, 33896, Control_c, 7, 11, 100
1, 33898, Control_c, 2, 11, 38
1, 33911, Control_c, 2, 11, 39
1, 33922, Control_c, 7, 11, 103
1, 33938, Control_c, 2, 11, 36
1, 33949, Control_c, 7, 11, 104
1, 33952, Control_c, 2, 11, 35
1, 33977, Control_c, 2, 11, 31
1, 33981, Note_on_c, 13, 38, 0
1, 33983, Note_on_c, 1, 26, 0
1, 33988, Control_c, 7, 11, 105
1, 34029, Control_c, 7, 11, 107
1, 34068, Control_c, 7, 11, 108
1, 34079, Note_on_c, 1, 26, 119
1, 34079, Note_on_c, 9, 42, 127
1, 34080, Note_on_c, 9, 40, 127
1, 34080, Note_on_c, 11, 62, 100
1, 34081, Note_on_c, 12, 62, 100
1, 34082, Note_on_c, 12, 50, 100
1, 34082, Note_on_c, 13, 38, 115
1, 34083, Note_on_c, 11, 50, 100
1, 34097, Control_c, 2, 11, 33
1, 34099, Note_on_c, 9, 42, 0
1, 34100, Note_on_c, 9, 40, 0
1, 34106, Control_c, 7, 11, 111
1, 34108, Control_c, 2, 11, 40
1, 34122, Control_c, 2, 11, 53
1, 34133, Control_c, 7, 11, 112
1, 34135, Control_c, 2, 11, 66
1, 34149, Control_c, 2, 11, 80
1, 34158, Control_c, 7, 11, 114
1, 34159, Note_on_c, 11, 62, 0
1, 34160, Note_on_c, 12, 62, 0
1, 34161, Note_on_c, 12, 50, 0
1, 34161, Control_c, 2, 11, 99
1, 34162, Note_on_c, 11, 50, 0
1, 34174, Control_c, 2, 11, 115
1, 34187, Control_c, 2, 11, 126
1, 34199, Control_c, 7, 11, 115
1, 34219, Note_on_c, 1, 26, 0
1, 34222, Note_on_c, 13, 38, 0
1, 34224, Control_c, 7, 11, 117
1, 34252, Control_c, 7, 11, 118
1, 34290, Control_c, 7, 11, 120
1, 34319, Note_on_c, 1, 26, 110
1, 34319, Note_on_c, 9, 42, 94
1, 34320, Note_on_c, 11, 62, 101
1, 34320, Note_on_c, 12, 62, 101
1, 34321, Note_on_c, 11, 50, 101
1, 34321, Note_on_c, 13, 38, 115
1, 34322, Note_on_c, 12, 50, 101
1, 34339, Note_on_c, 9, 42, 0
1, 34344, Control_c, 7, 11, 123
1, 34393, Note_on_c, 11, 62, 0
1, 34393, Note_on_c, 12, 62, 0
1, 34394, Note_on_c, 11, 50, 0
1, 34395, Note_on_c, 12, 50, 0
1, 34396, Control_c, 7, 11, 125
1, 34419, Note_on_c, 1, 26, 0
1, 34421, Note_on_c, 13, 38, 0
1, 34438, Note_on_c, 12, 62, 64
1, 34440, Note_on_c, 11, 62, 64
1, 34441, Note_on_c, 11, 50, 64
1, 34442, Note_on_c, 13, 38, 114
1, 34443, Note_on_c, 1, 26, 114
1, 34443, Note_on_c, 12, 50, 64
1, 34476, Control_c, 7, 11, 124
1, 34490, Note_on_c, 12, 62, 0
1, 34492, Note_on_c, 11, 62, 0
1, 34493, Note_on_c, 11, 50, 0
1, 34495, Note_on_c, 12, 50, 0
1, 34501, Control_c, 7, 11, 126
1, 34539, Note_on_c, 8, 50, 0
1, 34542, Note_on_c, 13, 38, 0
1, 34543, Note_on_c, 1, 26, 0
1, 34543, Note_on_c, 7, 65, 0
1, 34550, Program_c, 11, 27
1, 34550, Control_c, 11, 10, 64
1, 34550, Control_c, 11, 91, 127
1, 34560, Note_on_c, 9, 49, 70
1, 34560, Note_on_c, 12, 62, 85
1, 34561, Note_on_c, 1, 26, 117
1, 34562, Note_on_c, 9, 36, 126
1, 34562, Note_on_c, 11, 62, 85
1, 34580, Note_on_c, 9, 49, 0
1, 34582, Note_on_c, 9, 36, 0
1, 34701, Note_on_c, 1, 26, 0
1, 34800, Note_on_c, 3, 81, 105
1, 34800, Note_on_c, 4, 57, 1
1, 34801, Note_on_c, 11, 65, 84
1, 34802, Note_on_c, 9, 42, 90
1, 34802, Note_on_c, 12, 65, 84
1, 34803, Note_on_c, 1, 26, 117
1, 34822, Note_on_c, 9, 42, 0
1, 34903, Note_on_c, 1, 26, 0
1, 34921, Note_on_c, 1, 26, 118
1, 34923, Pitch_bend_c, 11, 8576
1, 34923, Pitch_bend_c, 12, 8576
1, 34932, Pitch_bend_c, 11, 8704
1, 34932, Pitch_bend_c, 12, 8704
1, 34942, Pitch_bend_c, 11, 8832
1, 34942, Pitch_bend_c, 12, 8832
1, 34946, Pitch_bend_c, 11, 9088
1, 34946, Pitch_bend_c, 12, 9088
1, 34955, Pitch_bend_c, 11, 9216
1, 34955, Pitch_bend_c, 12, 9216
1, 34984, Pitch_bend_c, 11, 9088
1, 34984, Pitch_bend_c, 12, 9088
1, 35016, Pitch_bend_c, 11, 8704
1, 35016, Pitch_bend_c, 12, 8704
1, 35020, Note_on_c, 3, 81, 0
1, 35020, Note_on_c, 4, 57, 0
1, 35021, Note_on_c, 1, 26, 0
1, 35021, Pitch_bend_c, 11, 8448
1, 35021, Pitch_bend_c, 12, 8448
1, 35026, Pitch_bend_c, 11, 8320
1, 35026, Pitch_bend_c, 12, 8320
1, 35039, Note_on_c, 1, 26, 112
1, 35039, Pitch_bend_c, 11, 8320
1, 35039, Pitch_bend_c, 12, 8320
1, 35040, Note_on_c, 3, 81, 104
1, 35040, Note_on_c, 4, 57, 1
1, 35042, Note_on_c, 9, 40, 126
1, 35042, Note_on_c, 9, 42, 127
1, 35062, Note_on_c, 9, 40, 0
1, 35062, Note_on_c, 9, 42, 0
1, 35096, Pitch_bend_c, 11, 7936
1, 35096, Pitch_bend_c, 12, 7936
1, 35105, Pitch_bend_c, 11, 7680
1, 35105, Pitch_bend_c, 12, 7680
1, 35133, Pitch_bend_c, 11, 7552
1, 35133, Pitch_bend_c, 12, 7552
1, 35139, Note_on_c, 1, 26, 0
1, 35142, Pitch_bend_c, 11, 7552
1, 35142, Pitch_bend_c, 12, 7552
1, 35161, Pitch_bend_c, 11, 7424
1, 35161, Pitch_bend_c, 12, 7424
1, 35170, Pitch_bend_c, 11, 7680
1, 35170, Pitch_bend_c, 12, 7680
1, 35173, Control_c, 12, 11, 124
1, 35180, Pitch_bend_c, 11, 8320
1, 35180, Pitch_bend_c, 12, 8320
1, 35197, Control_c, 12, 11, 123
1, 35225, Control_c, 12, 11, 121
1, 35227, Pitch_bend_c, 11, 8448
1, 35227, Pitch_bend_c, 12, 8448
1, 35231, Pitch_bend_c, 11, 8576
1, 35231, Pitch_bend_c, 12, 8576
1, 35250, Control_c, 12, 11, 118
1, 35260, Note_on_c, 3, 81, 0
1, 35260, Note_on_c, 4, 57, 0
1, 35269, Pitch_bend_c, 11, 8832
1, 35269, Pitch_bend_c, 12, 8832
1, 35278, Control_c, 12, 11, 117
1, 35278, Pitch_bend_c, 11, 8960
1, 35278, Pitch_bend_c, 12, 8960
1, 35280, Note_on_c, 3, 81, 104
1, 35280, Note_on_c, 4, 57, 1
1, 35281, Note_on_c, 1, 26, 115
1, 35282, Note_on_c, 9, 42, 94
1, 35302, Note_on_c, 9, 42, 0
1, 35303, Control_c, 12, 11, 116
1, 35306, Pitch_bend_c, 11, 8832
1, 35306, Pitch_bend_c, 12, 8832
1, 35315, Pitch_bend_c, 11, 8448
1, 35315, Pitch_bend_c, 12, 8448
1, 35320, Pitch_bend_c, 11, 8192
1, 35320, Pitch_bend_c, 12, 8192
1, 35324, Pitch_bend_c, 11, 8320
1, 35324, Pitch_bend_c, 12, 8320
1, 35344, Control_c, 12, 11, 114
1, 35362, Pitch_bend_c, 11, 8064
1, 35362, Pitch_bend_c, 12, 8064
1, 35369, Control_c, 12, 11, 113
1, 35371, Pitch_bend_c, 11, 7680
1, 35371, Pitch_bend_c, 12, 7680
1, 35381, Note_on_c, 1, 26, 0
1, 35390, Pitch_bend_c, 11, 7680
1, 35390, Pitch_bend_c, 12, 7680
1, 35395, Control_c, 12, 11, 111
1, 35398, Note_on_c, 1, 26, 115
1, 35399, Pitch_bend_c, 11, 7552
1, 35399, Pitch_bend_c, 12, 7552
1, 35409, Pitch_bend_c, 11, 7296
1, 35409, Pitch_bend_c, 12, 7296
1, 35418, Pitch_bend_c, 11, 7424
1, 35418, Pitch_bend_c, 12, 7424
1, 35422, Control_c, 12, 11, 108
1, 35427, Pitch_bend_c, 11, 7680
1, 35427, Pitch_bend_c, 12, 7680
1, 35437, Pitch_bend_c, 11, 8064
1, 35437, Pitch_bend_c, 12, 8064
1, 35446, Pitch_bend_c, 11, 8192
1, 35446, Pitch_bend_c, 12, 8192
1, 35448, Control_c, 12, 11, 106
1, 35475, Control_c, 12, 11, 107
1, 35479, Pitch_bend_c, 11, 8576
1, 35479, Pitch_bend_c, 12, 8576
1, 35486, Control_c, 12, 11, 105
1, 35488, Pitch_bend_c, 11, 8832
1, 35488, Pitch_bend_c, 12, 8832
1, 35498, Note_on_c, 1, 26, 0
1, 35498, Pitch_bend_c, 11, 8960
1, 35498, Pitch_bend_c, 12, 8960
1, 35500, Note_on_c, 3, 81, 0
1, 35500, Note_on_c, 4, 57, 0
1, 35513, Control_c, 12, 11, 102
1, 35520, Note_on_c, 3, 81, 105
1, 35520, Note_on_c, 4, 57, 1
1, 35521, Note_on_c, 1, 26, 116
1, 35521, Note_on_c, 9, 36, 127
1, 35521, Pitch_bend_c, 11, 9344
1, 35521, Pitch_bend_c, 12, 9344
1, 35522, Note_on_c, 9, 42, 127
1, 35530, Pitch_bend_c, 11, 9216
1, 35530, Pitch_bend_c, 12, 9216
1, 35541, Note_on_c, 9, 36, 0
1, 35541, Control_c, 12, 11, 100
1, 35542, Note_on_c, 9, 42, 0
1, 35566, Control_c, 12, 11, 99
1, 35568, Pitch_bend_c, 11, 9216
1, 35568, Pitch_bend_c, 12, 9216
1, 35581, Pitch_bend_c, 11, 8832
1, 35581, Pitch_bend_c, 12, 8832
1, 35586, Pitch_bend_c, 11, 8832
1, 35586, Pitch_bend_c, 12, 8832
1, 35592, Control_c, 12, 11, 96
1, 35596, Pitch_bend_c, 11, 8192
1, 35596, Pitch_bend_c, 12, 8192
1, 35605, Pitch_bend_c, 11, 8192
1, 35605, Pitch_bend_c, 12, 8192
1, 35618, Control_c, 12, 11, 95
1, 35644, Control_c, 12, 11, 93
1, 35661, Note_on_c, 1, 26, 0
1, 35662, Pitch_bend_c, 11, 8064
1, 35662, Pitch_bend_c, 12, 8064
1, 35672, Control_c, 12, 11, 90
1, 35680, Pitch_bend_c, 11, 7808
1, 35680, Pitch_bend_c, 12, 7808
1, 35697, Control_c, 12, 11, 89
1, 35703, Pitch_bend_c, 11, 7936
1, 35703, Pitch_bend_c, 12, 7936
1, 35722, Pitch_bend_c, 11, 8192
1, 35722, Pitch_bend_c, 12, 8192
1, 35724, Control_c, 12, 11, 86
1, 35740, Note_on_c, 3, 81, 0
1, 35740, Note_on_c, 4, 57, 0
1, 35749, Control_c, 12, 11, 84
1, 35759, Note_on_c, 1, 26, 116
1, 35759, Note_on_c, 9, 42, 97
1, 35760, Note_on_c, 3, 79, 104
1, 35760, Note_on_c, 4, 55, 1
1, 35769, Pitch_bend_c, 11, 8576
1, 35769, Pitch_bend_c, 12, 8576
1, 35776, Control_c, 12, 11, 85
1, 35778, Pitch_bend_c, 11, 8704
1, 35778, Pitch_bend_c, 12, 8704
1, 35779, Note_on_c, 9, 42, 0
1, 35787, Pitch_bend_c, 11, 9088
1, 35787, Pitch_bend_c, 12, 9088
1, 35803, Control_c, 12, 11, 83
1, 35815, Control_c, 12, 11, 80
1, 35820, Pitch_bend_c, 11, 9344
1, 35820, Pitch_bend_c, 12, 9344
1, 35841, Control_c, 12, 11, 78
1, 35853, Pitch_bend_c, 11, 8960
1, 35853, Pitch_bend_c, 12, 8960
1, 35860, Note_on_c, 3, 79, 0
1, 35860, Note_on_c, 4, 55, 0
1, 35867, Pitch_bend_c, 11, 8832
1, 35867, Pitch_bend_c, 12, 8832
1, 35869, Control_c, 12, 11, 77
1, 35876, Pitch_bend_c, 11, 8448
1, 35876, Pitch_bend_c, 12, 8448
1, 35880, Note_on_c, 3, 79, 105
1, 35880, Note_on_c, 4, 55, 1
1, 35881, Pitch_bend_c, 11, 8192
1, 35881, Pitch_bend_c, 12, 8192
1, 35890, Pitch_bend_c, 11, 8320
1, 35890, Pitch_bend_c, 12, 8320
1, 35894, Control_c, 12, 11, 75
1, 35899, Note_on_c, 1, 26, 0
1, 35922, Control_c, 12, 11, 72
1, 35942, Pitch_bend_c, 11, 8064
1, 35942, Pitch_bend_c, 12, 8064
1, 35946, Control_c, 12, 11, 70
1, 35956, Pitch_bend_c, 11, 7680
1, 35956, Pitch_bend_c, 12, 7680
1, 35959, Control_c, 12, 11, 71
1, 35987, Control_c, 12, 11, 68
1, 35998, Note_on_c, 1, 26, 115
1, 35998, Note_on_c, 9, 42, 126
1, 36002, Note_on_c, 9, 40, 127
1, 36012, Control_c, 12, 11, 67
1, 36012, Pitch_bend_c, 11, 8192
1, 36012, Pitch_bend_c, 12, 8192
1, 36018, Note_on_c, 9, 42, 0
1, 36022, Note_on_c, 9, 40, 0
1, 36039, Control_c, 12, 11, 65
1, 36054, Pitch_bend_c, 11, 8576
1, 36054, Pitch_bend_c, 12, 8576
1, 36063, Pitch_bend_c, 11, 8832
1, 36063, Pitch_bend_c, 12, 8832
1, 36064, Control_c, 12, 11, 62
1, 36077, Pitch_bend_c, 11, 8960
1, 36077, Pitch_bend_c, 12, 8960
1, 36086, Pitch_bend_c, 11, 9216
1, 36086, Pitch_bend_c, 12, 9216
1, 36091, Control_c, 12, 11, 61
1, 36095, Pitch_bend_c, 11, 9600
1, 36095, Pitch_bend_c, 12, 9600
1, 36119, Control_c, 12, 11, 58
1, 36138, Note_on_c, 1, 26, 0
1, 36138, Pitch_bend_c, 11, 9216
1, 36138, Pitch_bend_c, 12, 9216
1, 36147, Pitch_bend_c, 11, 9088
1, 36147, Pitch_bend_c, 12, 9088
1, 36156, Control_c, 12, 11, 56
1, 36157, Pitch_bend_c, 11, 8832
1, 36157, Pitch_bend_c, 12, 8832
1, 36161, Pitch_bend_c, 11, 8448
1, 36161, Pitch_bend_c, 12, 8448
1, 36165, Pitch_bend_c, 11, 8576
1, 36165, Pitch_bend_c, 12, 8576
1, 36175, Pitch_bend_c, 11, 8192
1, 36175, Pitch_bend_c, 12, 8192
1, 36197, Control_c, 12, 11, 53
1, 36220, Note_on_c, 3, 79, 0
1, 36220, Note_on_c, 4, 55, 0
1, 36220, System_exclusive, 6, 0, 32, 36, 0, 8, 247
1, 36222, Pitch_bend_c, 11, 7936
1, 36222, Pitch_bend_c, 12, 7936
1, 36223, Control_c, 12, 11, 51
1, 36239, Note_on_c, 1, 26, 112
1, 36239, Note_on_c, 9, 42, 95
1, 36240, Note_on_c, 3, 77, 105
1, 36240, Note_on_c, 4, 53, 1
1, 36241, Pitch_bend_c, 11, 7808
1, 36241, Pitch_bend_c, 12, 7808
1, 36250, Control_c, 12, 11, 50
1, 36250, Pitch_bend_c, 11, 7552
1, 36250, Pitch_bend_c, 12, 7552
1, 36259, Note_on_c, 9, 42, 0
1, 36275, Control_c, 12, 11, 48
1, 36292, Pitch_bend_c, 11, 7680
1, 36292, Pitch_bend_c, 12, 7680
1, 36306, Pitch_bend_c, 11, 7936
1, 36306, Pitch_bend_c, 12, 7936
1, 36311, Pitch_bend_c, 11, 8320
1, 36311, Pitch_bend_c, 12, 8320
1, 36339, Note_on_c, 1, 26, 0
1, 36340, Note_on_c, 3, 77, 0
1, 36340, Note_on_c, 4, 53, 0
1, 36353, Pitch_bend_c, 11, 8320
1, 36353, Pitch_bend_c, 12, 8320
1, 36360, Note_on_c, 1, 26, 115
1, 36360, Note_on_c, 3, 77, 104
1, 36360, Note_on_c, 4, 53, 1
1, 36362, Pitch_bend_c, 11, 8704
1, 36362, Pitch_bend_c, 12, 8704
1, 36371, Pitch_bend_c, 11, 8704
1, 36371, Pitch_bend_c, 12, 8704
1, 36432, Pitch_bend_c, 11, 8832
1, 36432, Pitch_bend_c, 12, 8832
1, 36434, Control_c, 12, 11, 55
1, 36441, Pitch_bend_c, 11, 8448
1, 36441, Pitch_bend_c, 12, 8448
1, 36445, Control_c, 12, 11, 63
1, 36456, Pitch_bend_c, 11, 8320
1, 36456, Pitch_bend_c, 12, 8320
1, 36458, Control_c, 12, 11, 76
1, 36460, Note_on_c, 1, 26, 0
1, 36460, Note_on_c, 12, 62, 0
1, 36461, Note_on_c, 11, 65, 0
1, 36462, Note_on_c, 11, 62, 0
1, 36462, Note_on_c, 12, 65, 0
1, 36470, Pitch_bend_c, 11, 8320
1, 36470, Pitch_bend_c, 12, 8320
1, 36472, Control_c, 12, 11, 96
1, 36478, Note_on_c, 1, 26, 115
1, 36478, Note_on_c, 9, 36, 126
1, 36480, Note_on_c, 11, 62, 85
1, 36481, Note_on_c, 9, 42, 126
1, 36481, Note_on_c, 12, 62, 85
1, 36486, Control_c, 12, 11, 113
1, 36498, Note_on_c, 9, 36, 0
1, 36498, Control_c, 12, 11, 126
1, 36501, Note_on_c, 9, 42, 0
1, 36618, Note_on_c, 1, 26, 0
1, 36720, Note_on_c, 11, 65, 85
1, 36721, Note_on_c, 1, 26, 110
1, 36721, Note_on_c, 9, 42, 90
1, 36722, Note_on_c, 12, 65, 85
1, 36741, Note_on_c, 9, 42, 0
1, 36821, Note_on_c, 1, 26, 0
1, 36843, Note_on_c, 1, 26, 111
1, 36843, Pitch_bend_c, 11, 8448
1, 36843, Pitch_bend_c, 12, 8448
1, 36852, Pitch_bend_c, 11, 8832
1, 36852, Pitch_bend_c, 12, 8832
1, 36862, Pitch_bend_c, 11, 8704
1, 36862, Pitch_bend_c, 12, 8704
1, 36866, Pitch_bend_c, 11, 8960
1, 36866, Pitch_bend_c, 12, 8960
1, 36875, Pitch_bend_c, 11, 9344
1, 36875, Pitch_bend_c, 12, 9344
1, 36904, Pitch_bend_c, 11, 9088
1, 36904, Pitch_bend_c, 12, 9088
1, 36936, Pitch_bend_c, 11, 8704
1, 36936, Pitch_bend_c, 12, 8704
1, 36941, Pitch_bend_c, 11, 8448
1, 36941, Pitch_bend_c, 12, 8448
1, 36943, Note_on_c, 1, 26, 0
1, 36946, Pitch_bend_c, 11, 8320
1, 36946, Pitch_bend_c, 12, 8320
1, 36959, Note_on_c, 9, 40, 127
1, 36959, Note_on_c, 9, 42, 127
1, 36959, Pitch_bend_c, 11, 8320
1, 36959, Pitch_bend_c, 12, 8320
1, 36962, Note_on_c, 1, 26, 114
1, 36972, Control_c, 12, 11, 125
1, 36979, Note_on_c, 9, 40, 0
1, 36979, Note_on_c, 9, 42, 0
1, 36985, Control_c, 12, 11, 123
1, 36997, Control_c, 12, 11, 118
1, 37010, Control_c, 12, 11, 117
1, 37016, Pitch_bend_c, 11, 7936
1, 37016, Pitch_bend_c, 12, 7936
1, 37023, Control_c, 12, 11, 114
1, 37025, Pitch_bend_c, 11, 7680
1, 37025, Pitch_bend_c, 12, 7680
1, 37036, Control_c, 12, 11, 112
1, 37051, Control_c, 12, 11, 111
1, 37053, Pitch_bend_c, 11, 7552
1, 37053, Pitch_bend_c, 12, 7552
1, 37062, Note_on_c, 1, 26, 0
1, 37062, Pitch_bend_c, 11, 7424
1, 37062, Pitch_bend_c, 12, 7424
1, 37076, Control_c, 12, 11, 109
1, 37081, Pitch_bend_c, 11, 7552
1, 37081, Pitch_bend_c, 12, 7552
1, 37089, Control_c, 12, 11, 106
1, 37090, Pitch_bend_c, 11, 7808
1, 37090, Pitch_bend_c, 12, 7808
1, 37100, Pitch_bend_c, 11, 8192
1, 37100, Pitch_bend_c, 12, 8192
1, 37116, Control_c, 12, 11, 106
1, 37142, Control_c, 12, 11, 105
1, 37147, Pitch_bend_c, 11, 8576
1, 37147, Pitch_bend_c, 12, 8576
1, 37151, Pitch_bend_c, 11, 8448
1, 37151, Pitch_bend_c, 12, 8448
1, 37154, Control_c, 12, 11, 103
1, 37180, Note_on_c, 3, 77, 0
1, 37180, Note_on_c, 4, 53, 0
1, 37182, Control_c, 12, 11, 100
1, 37189, Pitch_bend_c, 11, 8704
1, 37189, Pitch_bend_c, 12, 8704
1, 37194, Control_c, 12, 11, 98
1, 37198, Pitch_bend_c, 11, 9088
1, 37198, Pitch_bend_c, 12, 9088
1, 37200, Note_on_c, 3, 81, 105
1, 37200, Note_on_c, 4, 57, 1
1, 37201, Note_on_c, 9, 42, 95
1, 37203, Note_on_c, 1, 26, 114
1, 37207, Control_c, 12, 11, 97
1, 37220, Control_c, 12, 11, 94
1, 37221, Note_on_c, 9, 42, 0
1, 37226, Pitch_bend_c, 11, 8832
1, 37226, Pitch_bend_c, 12, 8832
1, 37233, Control_c, 12, 11, 95
1, 37235, Pitch_bend_c, 11, 8448
1, 37235, Pitch_bend_c, 12, 8448
1, 37240, Pitch_bend_c, 11, 8192
1, 37240, Pitch_bend_c, 12, 8192
1, 37244, Pitch_bend_c, 11, 8320
1, 37244, Pitch_bend_c, 12, 8320
1, 37261, Control_c, 12, 11, 91
1, 37282, Pitch_bend_c, 11, 8064
1, 37282, Pitch_bend_c, 12, 8064
1, 37286, Control_c, 12, 11, 88
1, 37291, Pitch_bend_c, 11, 7680
1, 37291, Pitch_bend_c, 12, 7680
1, 37300, Note_on_c, 3, 81, 0
1, 37300, Note_on_c, 4, 57, 0
1, 37303, Note_on_c, 1, 26, 0
1, 37310, Pitch_bend_c, 11, 7680
1, 37310, Pitch_bend_c, 12, 7680
1, 37313, Control_c, 12, 11, 87
1, 37318, Note_on_c, 1, 26, 119
1, 37319, Pitch_bend_c, 11, 7552
1, 37319, Pitch_bend_c, 12, 7552
1, 37320, Note_on_c, 3, 81, 104
1, 37320, Note_on_c, 4, 57, 1
1, 37329, Pitch_bend_c, 11, 7168
1, 37329, Pitch_bend_c, 12, 7168
1, 37338, Pitch_bend_c, 11, 7552
1, 37338, Pitch_bend_c, 12, 7552
1, 37339, Control_c, 12, 11, 84
1, 37347, Pitch_bend_c, 11, 7808
1, 37347, Pitch_bend_c, 12, 7808
1, 37357, Pitch_bend_c, 11, 7936
1, 37357, Pitch_bend_c, 12, 7936
1, 37366, Control_c, 12, 11, 82
1, 37366, Pitch_bend_c, 11, 8320
1, 37366, Pitch_bend_c, 12, 8320
1, 37391, Control_c, 12, 11, 81
1, 37399, Pitch_bend_c, 11, 8448
1, 37399, Pitch_bend_c, 12, 8448
1, 37408, Pitch_bend_c, 11, 8704
1, 37408, Pitch_bend_c, 12, 8704
1, 37417, Control_c, 12, 11, 81
1, 37418, Note_on_c, 1, 26, 0
1, 37418, Pitch_bend_c, 11, 9088
1, 37418, Pitch_bend_c, 12, 9088
1, 37420, Note_on_c, 3, 81, 0
1, 37420, Note_on_c, 4, 57, 0
1, 37439, Note_on_c, 1, 26, 113
1, 37440, Note_on_c, 3, 81, 104
1, 37440, Note_on_c, 4, 57, 1
1, 37440, Note_on_c, 9, 36, 126
1, 37441, Note_on_c, 9, 42, 126
1, 37441, Pitch_bend_c, 11, 9344
1, 37441, Pitch_bend_c, 12, 9344
1, 37445, Control_c, 12, 11, 78
1, 37450, Pitch_bend_c, 11, 9216
1, 37450, Pitch_bend_c, 12, 9216
1, 37460, Note_on_c, 9, 36, 0
1, 37461, Note_on_c, 9, 42, 0
1, 37470, Control_c, 12, 11, 76
1, 37488, Pitch_bend_c, 11, 9216
1, 37488, Pitch_bend_c, 12, 9216
1, 37498, Control_c, 12, 11, 75
1, 37501, Pitch_bend_c, 11, 8832
1, 37501, Pitch_bend_c, 12, 8832
1, 37506, Pitch_bend_c, 11, 8832
1, 37506, Pitch_bend_c, 12, 8832
1, 37516, Pitch_bend_c, 11, 8192
1, 37516, Pitch_bend_c, 12, 8192
1, 37523, Control_c, 12, 11, 75
1, 37525, Pitch_bend_c, 11, 8192
1, 37525, Pitch_bend_c, 12, 8192
1, 37563, Control_c, 12, 11, 72
1, 37579, Note_on_c, 1, 26, 0
1, 37582, Pitch_bend_c, 11, 8064
1, 37582, Pitch_bend_c, 12, 8064
1, 37588, Control_c, 12, 11, 70
1, 37600, Pitch_bend_c, 11, 7680
1, 37600, Pitch_bend_c, 12, 7680
1, 37614, Control_c, 12, 11, 69
1, 37623, Pitch_bend_c, 11, 8064
1, 37623, Pitch_bend_c, 12, 8064
1, 37642, Control_c, 12, 11, 66
1, 37642, Pitch_bend_c, 11, 8320
1, 37642, Pitch_bend_c, 12, 8320
1, 37660, Note_on_c, 3, 81, 0
1, 37660, Note_on_c, 4, 57, 0
1, 37680, Note_on_c, 3, 79, 105
1, 37680, Note_on_c, 4, 55, 1
1, 37681, Note_on_c, 9, 42, 96
1, 37681, Control_c, 12, 11, 65
1, 37682, Note_on_c, 1, 26, 114
1, 37682, Note_on_c, 9, 36, 127
1, 37689, Pitch_bend_c, 11, 8448
1, 37689, Pitch_bend_c, 12, 8448
1, 37698, Pitch_bend_c, 11, 8832
1, 37698, Pitch_bend_c, 12, 8832
1, 37701, Note_on_c, 9, 42, 0
1, 37702, Note_on_c, 9, 36, 0
1, 37707, Control_c, 12, 11, 65
1, 37707, Pitch_bend_c, 11, 8960
1, 37707, Pitch_bend_c, 12, 8960
1, 37732, Control_c, 12, 11, 62
1, 37740, Pitch_bend_c, 11, 9216
1, 37740, Pitch_bend_c, 12, 9216
1, 37760, Control_c, 12, 11, 61
1, 37773, Pitch_bend_c, 11, 9088
1, 37773, Pitch_bend_c, 12, 9088
1, 37785, Control_c, 12, 11, 58
1, 37787, Pitch_bend_c, 11, 8832
1, 37787, Pitch_bend_c, 12, 8832
1, 37796, Pitch_bend_c, 11, 8448
1, 37796, Pitch_bend_c, 12, 8448
1, 37801, Pitch_bend_c, 11, 8192
1, 37801, Pitch_bend_c, 12, 8192
1, 37810, Pitch_bend_c, 11, 8320
1, 37810, Pitch_bend_c, 12, 8320
1, 37813, Control_c, 12, 11, 56
1, 37822, Note_on_c, 1, 26, 0
1, 37838, Control_c, 12, 11, 55
1, 37862, Pitch_bend_c, 11, 8064
1, 37862, Pitch_bend_c, 12, 8064
1, 37864, Control_c, 12, 11, 53
1, 37876, Pitch_bend_c, 11, 7680
1, 37876, Pitch_bend_c, 12, 7680
1, 37891, Control_c, 12, 11, 50
1, 37900, Note_on_c, 3, 79, 0
1, 37900, Note_on_c, 4, 55, 0
1, 37916, Control_c, 12, 11, 48
1, 37919, Note_on_c, 1, 26, 116
1, 37920, Note_on_c, 3, 84, 105
1, 37920, Note_on_c, 4, 60, 1
1, 37920, Note_on_c, 9, 42, 127
1, 37922, Note_on_c, 9, 40, 126
1, 37932, Pitch_bend_c, 11, 8192
1, 37932, Pitch_bend_c, 12, 8192
1, 37940, Note_on_c, 9, 42, 0
1, 37942, Note_on_c, 9, 40, 0
1, 37957, Control_c, 12, 11, 49
1, 37974, Pitch_bend_c, 11, 8576
1, 37974, Pitch_bend_c, 12, 8576
1, 37982, Control_c, 12, 11, 47
1, 37983, Pitch_bend_c, 11, 8704
1, 37983, Pitch_bend_c, 12, 8704
1, 37997, Pitch_bend_c, 11, 9088
1, 37997, Pitch_bend_c, 12, 9088
1, 38006, Pitch_bend_c, 11, 9344
1, 38006, Pitch_bend_c, 12, 9344
1, 38015, Pitch_bend_c, 11, 9472
1, 38015, Pitch_bend_c, 12, 9472
1, 38023, Control_c, 12, 11, 44
1, 38058, Pitch_bend_c, 11, 9344
1, 38058, Pitch_bend_c, 12, 9344
1, 38059, Note_on_c, 1, 26, 0
1, 38067, Pitch_bend_c, 11, 8960
1, 38067, Pitch_bend_c, 12, 8960
1, 38075, Control_c, 12, 11, 42
1, 38077, Pitch_bend_c, 11, 8704
1, 38077, Pitch_bend_c, 12, 8704
1, 38081, Pitch_bend_c, 11, 8576
1, 38081, Pitch_bend_c, 12, 8576
1, 38085, Pitch_bend_c, 11, 8576
1, 38085, Pitch_bend_c, 12, 8576
1, 38095, Pitch_bend_c, 11, 8192
1, 38095, Pitch_bend_c, 12, 8192
1, 38113, Control_c, 12, 11, 41
1, 38140, Note_on_c, 3, 84, 0
1, 38140, Note_on_c, 4, 60, 0
1, 38142, Pitch_bend_c, 11, 7936
1, 38142, Pitch_bend_c, 12, 7936
1, 38160, Note_on_c, 3, 77, 104
1, 38160, Note_on_c, 4, 53, 1
1, 38161, Note_on_c, 9, 42, 95
1, 38161, Pitch_bend_c, 11, 7808
1, 38161, Pitch_bend_c, 12, 7808
1, 38163, Note_on_c, 1, 26, 117
1, 38167, Control_c, 12, 11, 40
1, 38170, Pitch_bend_c, 11, 7552
1, 38170, Pitch_bend_c, 12, 7552
1, 38181, Note_on_c, 9, 42, 0
1, 38212, Pitch_bend_c, 11, 7680
1, 38212, Pitch_bend_c, 12, 7680
1, 38226, Pitch_bend_c, 11, 7936
1, 38226, Pitch_bend_c, 12, 7936
1, 38231, Pitch_bend_c, 11, 8320
1, 38231, Pitch_bend_c, 12, 8320
1, 38263, Note_on_c, 1, 26, 0
1, 38273, Pitch_bend_c, 11, 8192
1, 38273, Pitch_bend_c, 12, 8192
1, 38279, Note_on_c, 1, 26, 117
1, 38282, Pitch_bend_c, 11, 8832
1, 38282, Pitch_bend_c, 12, 8832
1, 38291, Pitch_bend_c, 11, 8832
1, 38291, Pitch_bend_c, 12, 8832
1, 38323, System_exclusive, 42, 0, 32, 36, 0, 4, 84, 72, 79, 85, 71, 72, 84, 32, 89, 79, 85, 32, 87, 69, 82, 69, 32, 83, 69, 78, 84, 32, 70, 82, 79, 77, 32, 85, 80, 32, 65, 66, 79, 86, 69, 10, 247
1, 38328, System_exclusive, 36, 0, 32, 36, 0, 5, 66, 85, 84, 32, 89, 79, 85, 32, 65, 78, 68, 32, 77, 69, 32, 78, 69, 86, 69, 82, 32, 72, 65, 68, 32, 76, 79, 86, 69, 10, 247
1, 38333, System_exclusive, 7, 0, 32, 36, 0, 6, 10, 247
1, 38338, System_exclusive, 7, 0, 32, 36, 0, 7, 10, 247
1, 38348, System_exclusive, 6, 0, 32, 36, 0, 8, 247
1, 38352, Pitch_bend_c, 11, 8704
1, 38352, Pitch_bend_c, 12, 8704
1, 38361, Pitch_bend_c, 11, 8576
1, 38361, Pitch_bend_c, 12, 8576
1, 38364, Control_c, 12, 11, 43
1, 38376, Pitch_bend_c, 11, 8192
1, 38376, Pitch_bend_c, 12, 8192
1, 38377, Control_c, 12, 11, 51
1, 38379, Note_on_c, 1, 26, 0
1, 38380, Note_on_c, 3, 77, 0
1, 38380, Note_on_c, 4, 53, 0
1, 38380, Note_on_c, 11, 62, 0
1, 38380, Note_on_c, 11, 65, 0
1, 38381, Note_on_c, 12, 62, 0
1, 38382, Note_on_c, 12, 65, 0
1, 38389, Control_c, 12, 11, 62
1, 38390, Pitch_bend_c, 11, 8192
1, 38390, Pitch_bend_c, 12, 8192
1, 38401, Note_on_c, 11, 62, 84
1, 38401, Note_on_c, 12, 62, 84
1, 38402, Note_on_c, 1, 31, 110
1, 38402, Note_on_c, 9, 36, 127
1, 38402, Note_on_c, 9, 42, 126
1, 38402, Control_c, 12, 11, 75
1, 38416, Control_c, 12, 11, 88
1, 38422, Note_on_c, 9, 36, 0
1, 38422, Note_on_c, 9, 42, 0
1, 38429, Control_c, 12, 11, 102
1, 38442, Control_c, 12, 11, 117
1, 38454, Control_c, 12, 11, 127
1, 38542, Note_on_c, 1, 31, 0
1, 38639, Note_on_c, 9, 42, 90
1, 38640, Note_on_c, 3, 74, 104
1, 38640, Note_on_c, 4, 50, 1
1, 38640, Note_on_c, 11, 65, 85
1, 38641, Note_on_c, 1, 31, 114
1, 38641, Note_on_c, 12, 65, 85
1, 38659, Note_on_c, 9, 42, 0
1, 38741, Note_on_c, 1, 31, 0
1, 38761, Note_on_c, 1, 31, 115
1, 38763, Pitch_bend_c, 11, 8576
1, 38763, Pitch_bend_c, 12, 8576
1, 38772, Pitch_bend_c, 11, 8832
1, 38772, Pitch_bend_c, 12, 8832
1, 38782, Pitch_bend_c, 11, 8704
1, 38782, Pitch_bend_c, 12, 8704
1, 38786, Pitch_bend_c, 11, 8960
1, 38786, Pitch_bend_c, 12, 8960
1, 38795, Pitch_bend_c, 11, 9344
1, 38795, Pitch_bend_c, 12, 9344
1, 38798, Control_c, 12, 11, 122
1, 38810, Control_c, 12, 11, 120
1, 38824, Control_c, 12, 11, 117
1, 38824, Pitch_bend_c, 11, 9088
1, 38824, Pitch_bend_c, 12, 9088
1, 38836, Control_c, 12, 11, 117
1, 38848, Control_c, 12, 11, 114
1, 38856, Pitch_bend_c, 11, 8704
1, 38856, Pitch_bend_c, 12, 8704
1, 38860, Note_on_c, 3, 74, 0
1, 38860, Note_on_c, 4, 50, 0
1, 38861, Note_on_c, 1, 31, 0
1, 38861, Pitch_bend_c, 11, 8448
1, 38861, Pitch_bend_c, 12, 8448
1, 38866, Pitch_bend_c, 11, 8320
1, 38866, Pitch_bend_c, 12, 8320
1, 38875, Control_c, 12, 11, 112
1, 38879, Pitch_bend_c, 11, 8192
1, 38879, Pitch_bend_c, 12, 8192
1, 38880, Note_on_c, 3, 81, 105
1, 38880, Note_on_c, 4, 57, 1
1, 38880, Note_on_c, 9, 40, 127
1, 38881, Note_on_c, 1, 31, 114
1, 38881, Note_on_c, 9, 42, 127
1, 38900, Note_on_c, 9, 40, 0
1, 38901, Note_on_c, 9, 42, 0
1, 38903, Control_c, 12, 11, 111
1, 38928, Control_c, 12, 11, 108
1, 38936, Pitch_bend_c, 11, 8064
1, 38936, Pitch_bend_c, 12, 8064
1, 38941, Control_c, 12, 11, 107
1, 38945, Pitch_bend_c, 11, 7808
1, 38945, Pitch_bend_c, 12, 7808
1, 38968, Control_c, 12, 11, 105
1, 38973, Pitch_bend_c, 11, 7424
1, 38973, Pitch_bend_c, 12, 7424
1, 38980, Control_c, 12, 11, 102
1, 38981, Note_on_c, 1, 31, 0
1, 38982, Pitch_bend_c, 11, 7552
1, 38982, Pitch_bend_c, 12, 7552
1, 38993, Control_c, 12, 11, 101
1, 39001, Pitch_bend_c, 11, 7424
1, 39001, Pitch_bend_c, 12, 7424
1, 39010, Pitch_bend_c, 11, 7680
1, 39010, Pitch_bend_c, 12, 7680
1, 39020, Pitch_bend_c, 11, 8320
1, 39020, Pitch_bend_c, 12, 8320
1, 39021, Control_c, 12, 11, 98
1, 39033, Control_c, 12, 11, 98
1, 39059, Control_c, 12, 11, 97
1, 39067, Pitch_bend_c, 11, 8576
1, 39067, Pitch_bend_c, 12, 8576
1, 39071, Pitch_bend_c, 11, 8448
1, 39071, Pitch_bend_c, 12, 8448
1, 39086, Control_c, 12, 11, 95
1, 39100, Note_on_c, 3, 81, 0
1, 39100, Note_on_c, 4, 57, 0
1, 39109, Pitch_bend_c, 11, 8704
1, 39109, Pitch_bend_c, 12, 8704
1, 39111, Control_c, 12, 11, 92
1, 39118, Pitch_bend_c, 11, 9088
1, 39118, Pitch_bend_c, 12, 9088
1, 39119, Note_on_c, 1, 31, 119
1, 39120, Note_on_c, 3, 81, 105
1, 39120, Note_on_c, 4, 57, 1
1, 39122, Note_on_c, 9, 42, 94
1, 39139, Control_c, 12, 11, 90
1, 39142, Note_on_c, 9, 42, 0
1, 39146, Pitch_bend_c, 11, 8832
1, 39146, Pitch_bend_c, 12, 8832
1, 39155, Pitch_bend_c, 11, 8448
1, 39155, Pitch_bend_c, 12, 8448
1, 39160, Pitch_bend_c, 11, 8192
1, 39160, Pitch_bend_c, 12, 8192
1, 39164, Pitch_bend_c, 11, 8320
1, 39164, Pitch_bend_c, 12, 8320
1, 39177, Control_c, 12, 11, 89
1, 39202, Pitch_bend_c, 11, 7936
1, 39202, Pitch_bend_c, 12, 7936
1, 39205, Control_c, 12, 11, 87
1, 39211, Pitch_bend_c, 11, 7808
1, 39211, Pitch_bend_c, 12, 7808
1, 39219, Note_on_c, 1, 31, 0
1, 39230, Control_c, 12, 11, 84
1, 39230, Pitch_bend_c, 11, 7808
1, 39230, Pitch_bend_c, 12, 7808
1, 39239, Note_on_c, 1, 31, 119
1, 39239, Pitch_bend_c, 11, 7424
1, 39239, Pitch_bend_c, 12, 7424
1, 39249, Pitch_bend_c, 11, 7296
1, 39249, Pitch_bend_c, 12, 7296
1, 39256, Control_c, 12, 11, 82
1, 39258, Pitch_bend_c, 11, 7424
1, 39258, Pitch_bend_c, 12, 7424
1, 39267, Pitch_bend_c, 11, 7680
1, 39267, Pitch_bend_c, 12, 7680
1, 39277, Pitch_bend_c, 11, 8064
1, 39277, Pitch_bend_c, 12, 8064
1, 39283, Control_c, 12, 11, 81
1, 39286, Pitch_bend_c, 11, 8320
1, 39286, Pitch_bend_c, 12, 8320
1, 39308, Control_c, 12, 11, 78
1, 39319, Pitch_bend_c, 11, 8448
1, 39319, Pitch_bend_c, 12, 8448
1, 39328, Pitch_bend_c, 11, 8704
1, 39328, Pitch_bend_c, 12, 8704
1, 39338, Pitch_bend_c, 11, 9088
1, 39338, Pitch_bend_c, 12, 9088
1, 39339, Note_on_c, 1, 31, 0
1, 39340, Note_on_c, 3, 81, 0
1, 39340, Note_on_c, 4, 57, 0
1, 39349, Control_c, 12, 11, 79
1, 39358, Note_on_c, 9, 42, 127
1, 39360, Note_on_c, 3, 81, 104
1, 39360, Note_on_c, 4, 57, 1
1, 39361, Pitch_bend_c, 11, 9344
1, 39361, Pitch_bend_c, 12, 9344
1, 39362, Note_on_c, 1, 31, 116
1, 39363, Note_on_c, 9, 36, 126
1, 39370, Pitch_bend_c, 11, 9216
1, 39370, Pitch_bend_c, 12, 9216
1, 39374, Control_c, 12, 11, 77
1, 39378, Note_on_c, 9, 42, 0
1, 39383, Note_on_c, 9, 36, 0
1, 39401, Control_c, 12, 11, 74
1, 39408, Pitch_bend_c, 11, 9216
1, 39408, Pitch_bend_c, 12, 9216
1, 39421, Pitch_bend_c, 11, 8832
1, 39421, Pitch_bend_c, 12, 8832
1, 39426, Control_c, 12, 11, 73
1, 39426, Pitch_bend_c, 11, 8704
1, 39426, Pitch_bend_c, 12, 8704
1, 39436, Pitch_bend_c, 11, 8320
1, 39436, Pitch_bend_c, 12, 8320
1, 39445, Pitch_bend_c, 11, 8320
1, 39445, Pitch_bend_c, 12, 8320
1, 39467, Control_c, 12, 11, 72
1, 39492, Control_c, 12, 11, 70
1, 39502, Note_on_c, 1, 31, 0
1, 39502, Pitch_bend_c, 11, 7936
1, 39502, Pitch_bend_c, 12, 7936
1, 39520, Pitch_bend_c, 11, 7808
1, 39520, Pitch_bend_c, 12, 7808
1, 39533, Control_c, 12, 11, 69
1, 39543, Pitch_bend_c, 11, 7936
1, 39543, Pitch_bend_c, 12, 7936
1, 39562, Pitch_bend_c, 11, 8192
1, 39562, Pitch_bend_c, 12, 8192
1, 39571, Control_c, 12, 11, 67
1, 39580, Note_on_c, 3, 81, 0
1, 39580, Note_on_c, 4, 57, 0
1, 39598, Control_c, 12, 11, 64
1, 39599, Note_on_c, 1, 31, 117
1, 39600, Note_on_c, 3, 79, 104
1, 39600, Note_on_c, 4, 55, 1
1, 39602, Note_on_c, 9, 42, 97
1, 39609, Pitch_bend_c, 11, 8576
1, 39609, Pitch_bend_c, 12, 8576
1, 39618, Pitch_bend_c, 11, 8832
1, 39618, Pitch_bend_c, 12, 8832
1, 39622, Note_on_c, 9, 42, 0
1, 39623, Control_c, 12, 11, 62
1, 39627, Pitch_bend_c, 11, 8960
1, 39627, Pitch_bend_c, 12, 8960
1, 39651, Control_c, 12, 11, 61
1, 39660, Pitch_bend_c, 11, 9216
1, 39660, Pitch_bend_c, 12, 9216
1, 39676, Control_c, 12, 11, 59
1, 39693, Pitch_bend_c, 11, 9088
1, 39693, Pitch_bend_c, 12, 9088
1, 39702, Control_c, 12, 11, 56
1, 39707, Pitch_bend_c, 11, 8832
1, 39707, Pitch_bend_c, 12, 8832
1, 39716, Pitch_bend_c, 11, 8448
1, 39716, Pitch_bend_c, 12, 8448
1, 39721, Pitch_bend_c, 11, 8192
1, 39721, Pitch_bend_c, 12, 8192
1, 39730, Control_c, 12, 11, 56
1, 39730, Pitch_bend_c, 11, 8320
1, 39730, Pitch_bend_c, 12, 8320
1, 39739, Note_on_c, 1, 31, 0
1, 39755, Control_c, 12, 11, 55
1, 39770, Control_c, 12, 11, 52
1, 39782, Control_c, 12, 11, 51
1, 39782, Pitch_bend_c, 11, 7936
1, 39782, Pitch_bend_c, 12, 7936
1, 39796, Pitch_bend_c, 11, 7808
1, 39796, Pitch_bend_c, 12, 7808
1, 39808, Control_c, 12, 11, 49
1, 39820, Note_on_c, 3, 79, 0
1, 39820, Note_on_c, 4, 55, 0
1, 39835, Control_c, 12, 11, 46
1, 39839, Note_on_c, 1, 31, 112
1, 39840, Note_on_c, 3, 79, 105
1, 39840, Note_on_c, 4, 55, 1
1, 39840, Note_on_c, 9, 42, 126
1, 39843, Note_on_c, 9, 40, 126
1, 39852, Pitch_bend_c, 11, 8320
1, 39852, Pitch_bend_c, 12, 8320
1, 39860, Note_on_c, 9, 42, 0
1, 39860, Control_c, 12, 11, 47
1, 39863, Note_on_c, 9, 40, 0
1, 39894, Pitch_bend_c, 11, 8448
1, 39894, Pitch_bend_c, 12, 8448
1, 39901, Control_c, 12, 11, 44
1, 39903, Pitch_bend_c, 11, 8832
1, 39903, Pitch_bend_c, 12, 8832
1, 39917, Pitch_bend_c, 11, 8960
1, 39917, Pitch_bend_c, 12, 8960
1, 39926, Pitch_bend_c, 11, 9216
1, 39926, Pitch_bend_c, 12, 9216
1, 39935, Pitch_bend_c, 11, 9600
1, 39935, Pitch_bend_c, 12, 9600
1, 39939, Control_c, 12, 11, 42
1, 39978, Pitch_bend_c, 11, 9344
1, 39978, Pitch_bend_c, 12, 9344
1, 39979, Note_on_c, 1, 31, 0
1, 39980, Control_c, 12, 11, 41
1, 39987, Pitch_bend_c, 11, 8960
1, 39987, Pitch_bend_c, 12, 8960
1, 39997, Pitch_bend_c, 11, 8704
1, 39997, Pitch_bend_c, 12, 8704
1, 40001, Pitch_bend_c, 11, 8576
1, 40001, Pitch_bend_c, 12, 8576
1, 40005, Pitch_bend_c, 11, 8576
1, 40005, Pitch_bend_c, 12, 8576
1, 40015, Pitch_bend_c, 11, 8192
1, 40015, Pitch_bend_c, 12, 8192
1, 40045, Control_c, 12, 11, 39
1, 40060, Note_on_c, 3, 79, 0
1, 40060, Note_on_c, 4, 55, 0
1, 40062, Pitch_bend_c, 11, 7936
1, 40062, Pitch_bend_c, 12, 7936
1, 40078, Note_on_c, 1, 31, 116
1, 40080, Note_on_c, 3, 77, 104
1, 40080, Note_on_c, 4, 53, 1
1, 40081, Note_on_c, 9, 42, 95
1, 40081, Pitch_bend_c, 11, 7808
1, 40081, Pitch_bend_c, 12, 7808
1, 40090, Pitch_bend_c, 11, 7424
1, 40090, Pitch_bend_c, 12, 7424
1, 40101, Note_on_c, 9, 42, 0
1, 40111, Control_c, 12, 11, 38
1, 40132, Pitch_bend_c, 11, 7808
1, 40132, Pitch_bend_c, 12, 7808
1, 40146, Pitch_bend_c, 11, 8064
1, 40146, Pitch_bend_c, 12, 8064
1, 40151, Pitch_bend_c, 11, 8192
1, 40151, Pitch_bend_c, 12, 8192
1, 40178, Note_on_c, 1, 31, 0
1, 40180, Note_on_c, 3, 77, 0
1, 40180, Note_on_c, 4, 53, 0
1, 40193, Pitch_bend_c, 11, 8320
1, 40193, Pitch_bend_c, 12, 8320
1, 40200, Note_on_c, 3, 77, 105
1, 40200, Note_on_c, 4, 53, 1
1, 40202, Note_on_c, 1, 31, 113
1, 40202, Pitch_bend_c, 11, 8704
1, 40202, Pitch_bend_c, 12, 8704
1, 40211, Pitch_bend_c, 11, 8704
1, 40211, Pitch_bend_c, 12, 8704
1, 40269, Control_c, 12, 11, 40
1, 40272, Pitch_bend_c, 11, 8832
1, 40272, Pitch_bend_c, 12, 8832
1, 40281, Pitch_bend_c, 11, 8576
1, 40281, Pitch_bend_c, 12, 8576
1, 40282, Control_c, 12, 11, 51
1, 40294, Control_c, 12, 11, 65
1, 40296, Pitch_bend_c, 11, 8192
1, 40296, Pitch_bend_c, 12, 8192
1, 40300, Note_on_c, 11, 65, 0
1, 40301, Note_on_c, 11, 62, 0
1, 40301, Note_on_c, 12, 62, 0
1, 40301, Note_on_c, 12, 65, 0
1, 40302, Note_on_c, 1, 31, 0
1, 40307, Control_c, 12, 11, 80
1, 40310, Pitch_bend_c, 11, 8192
1, 40310, Pitch_bend_c, 12, 8192
1, 40318, Note_on_c, 11, 62, 84
1, 40319, Note_on_c, 12, 62, 84
1, 40320, Note_on_c, 1, 31, 119
1, 40320, Control_c, 12, 11, 98
1, 40322, Note_on_c, 9, 36, 126
1, 40323, Note_on_c, 9, 42, 126
1, 40333, Control_c, 12, 11, 113
1, 40342, Note_on_c, 9, 36, 0
1, 40343, Note_on_c, 9, 42, 0
1, 40347, Control_c, 12, 11, 124
1, 40359, Control_c, 12, 11, 127
1, 40390, System_exclusive, 6, 0, 32, 36, 0, 8, 247
1, 40460, Note_on_c, 1, 31, 0
1, 40540, Note_on_c, 3, 77, 0
1, 40540, Note_on_c, 4, 53, 0
1, 40560, Note_on_c, 3, 74, 105
1, 40560, Note_on_c, 4, 50, 1
1, 40560, Note_on_c, 11, 65, 84
1, 40560, Note_on_c, 12, 65, 84
1, 40561, Note_on_c, 9, 42, 90
1, 40562, Note_on_c, 1, 31, 116
1, 40581, Note_on_c, 9, 42, 0
1, 40662, Note_on_c, 1, 31, 0
1, 40678, Note_on_c, 1, 31, 112
1, 40683, Pitch_bend_c, 11, 8576
1, 40683, Pitch_bend_c, 12, 8576
1, 40692, Pitch_bend_c, 11, 8832
1, 40692, Pitch_bend_c, 12, 8832
1, 40702, Pitch_bend_c, 11, 8704
1, 40702, Pitch_bend_c, 12, 8704
1, 40706, Pitch_bend_c, 11, 8960
1, 40706, Pitch_bend_c, 12, 8960
1, 40715, Pitch_bend_c, 11, 9344
1, 40715, Pitch_bend_c, 12, 9344
1, 40742, Control_c, 12, 11, 125
1, 40744, Pitch_bend_c, 11, 8960
1, 40744, Pitch_bend_c, 12, 8960
1, 40753, Control_c, 12, 11, 120
1, 40767, Control_c, 12, 11, 119
1, 40776, Pitch_bend_c, 11, 8832
1, 40776, Pitch_bend_c, 12, 8832
1, 40778, Note_on_c, 1, 31, 0
1, 40780, Note_on_c, 3, 74, 0
1, 40780, Note_on_c, 4, 50, 0
1, 40780, Control_c, 12, 11, 118
1, 40781, Pitch_bend_c, 11, 8576
1, 40781, Pitch_bend_c, 12, 8576
1, 40786, Pitch_bend_c, 11, 8192
1, 40786, Pitch_bend_c, 12, 8192
1, 40799, Pitch_bend_c, 11, 8320
1, 40799, Pitch_bend_c, 12, 8320
1, 40800, Note_on_c, 9, 42, 127
1, 40802, Note_on_c, 1, 31, 117
1, 40802, Note_on_c, 9, 40, 126
1, 40807, Control_c, 12, 11, 116
1, 40820, Note_on_c, 9, 42, 0
1, 40822, Note_on_c, 9, 40, 0
1, 40832, Control_c, 12, 11, 115
1, 40856, Pitch_bend_c, 11, 7936
1, 40856, Pitch_bend_c, 12, 7936
1, 40860, Control_c, 12, 11, 113
1, 40865, Pitch_bend_c, 11, 7680
1, 40865, Pitch_bend_c, 12, 7680
1, 40872, Control_c, 12, 11, 110
1, 40885, Control_c, 12, 11, 108
1, 40893, Pitch_bend_c, 11, 7552
1, 40893, Pitch_bend_c, 12, 7552
1, 40898, Control_c, 12, 11, 107
1, 40902, Note_on_c, 1, 31, 0
1, 40902, Pitch_bend_c, 11, 7552
1, 40902, Pitch_bend_c, 12, 7552
1, 40913, Control_c, 12, 11, 107
1, 40920, Note_on_c, 3, 74, 104
1, 40920, Note_on_c, 4, 50, 1
1, 40921, Pitch_bend_c, 11, 7424
1, 40921, Pitch_bend_c, 12, 7424
1, 40930, Pitch_bend_c, 11, 7680
1, 40930, Pitch_bend_c, 12, 7680
1, 40937, Control_c, 12, 11, 104
1, 40940, Pitch_bend_c, 11, 8320
1, 40940, Pitch_bend_c, 12, 8320
1, 40964, Control_c, 12, 11, 102
1, 40978, Control_c, 12, 11, 101
1, 40987, Pitch_bend_c, 11, 8576
1, 40987, Pitch_bend_c, 12, 8576
1, 40989, Control_c, 12, 11, 100
1, 40991, Pitch_bend_c, 11, 8448
1, 40991, Pitch_bend_c, 12, 8448
1, 41003, Control_c, 12, 11, 99
1, 41016, Control_c, 12, 11, 97
1, 41020, Note_on_c, 3, 74, 0
1, 41020, Note_on_c, 4, 50, 0
1, 41029, Control_c, 12, 11, 94
1, 41029, Pitch_bend_c, 11, 8704
1, 41029, Pitch_bend_c, 12, 8704
1, 41038, Pitch_bend_c, 11, 9088
1, 41038, Pitch_bend_c, 12, 9088
1, 41040, Note_on_c, 1, 31, 117
1, 41040, Note_on_c, 3, 81, 105
1, 41040, Note_on_c, 4, 57, 1
1, 41042, Note_on_c, 9, 42, 95
1, 41043, Control_c, 12, 11, 93
1, 41055, Control_c, 12, 11, 90
1, 41062, Note_on_c, 9, 42, 0
1, 41066, Pitch_bend_c, 11, 8704
1, 41066, Pitch_bend_c, 12, 8704
1, 41075, Pitch_bend_c, 11, 8576
1, 41075, Pitch_bend_c, 12, 8576
1, 41080, Pitch_bend_c, 11, 8320
1, 41080, Pitch_bend_c, 12, 8320
1, 41082, Control_c, 12, 11, 88
1, 41084, Pitch_bend_c, 11, 8192
1, 41084, Pitch_bend_c, 12, 8192
1, 41109, Control_c, 12, 11, 87
1, 41122, Pitch_bend_c, 11, 8064
1, 41122, Pitch_bend_c, 12, 8064
1, 41131, Pitch_bend_c, 11, 7680
1, 41131, Pitch_bend_c, 12, 7680
1, 41135, Control_c, 12, 11, 85
1, 41140, Note_on_c, 1, 31, 0
1, 41140, Note_on_c, 3, 81, 0
1, 41140, Note_on_c, 4, 57, 0
1, 41150, Pitch_bend_c, 11, 7680
1, 41150, Pitch_bend_c, 12, 7680
1, 41159, Pitch_bend_c, 11, 7552
1, 41159, Pitch_bend_c, 12, 7552
1, 41160, Note_on_c, 3, 81, 104
1, 41160, Note_on_c, 4, 57, 1
1, 41162, Control_c, 12, 11, 82
1, 41163, Note_on_c, 1, 31, 112
1, 41169, Pitch_bend_c, 11, 7296
1, 41169, Pitch_bend_c, 12, 7296
1, 41178, Pitch_bend_c, 11, 7424
1, 41178, Pitch_bend_c, 12, 7424
1, 41186, Control_c, 12, 11, 80
1, 41187, Pitch_bend_c, 11, 7680
1, 41187, Pitch_bend_c, 12, 7680
1, 41197, Pitch_bend_c, 11, 8064
1, 41197, Pitch_bend_c, 12, 8064
1, 41206, Pitch_bend_c, 11, 8320
1, 41206, Pitch_bend_c, 12, 8320
1, 41213, Control_c, 12, 11, 77
1, 41239, Pitch_bend_c, 11, 8448
1, 41239, Pitch_bend_c, 12, 8448
1, 41241, Control_c, 12, 11, 75
1, 41248, Pitch_bend_c, 11, 8704
1, 41248, Pitch_bend_c, 12, 8704
1, 41258, Pitch_bend_c, 11, 9088
1, 41258, Pitch_bend_c, 12, 9088
1, 41260, Note_on_c, 3, 81, 0
1, 41260, Note_on_c, 4, 57, 0
1, 41263, Note_on_c, 1, 31, 0
1, 41265, Control_c, 12, 11, 74
1, 41279, Note_on_c, 1, 31, 118
1, 41279, Note_on_c, 9, 42, 126
1, 41280, Note_on_c, 3, 81, 104
1, 41280, Note_on_c, 4, 57, 1
1, 41280, Note_on_c, 9, 36, 127
1, 41281, Pitch_bend_c, 11, 9216
1, 41281, Pitch_bend_c, 12, 9216
1, 41290, Pitch_bend_c, 11, 9344
1, 41290, Pitch_bend_c, 12, 9344
1, 41293, Control_c, 12, 11, 72
1, 41299, Note_on_c, 9, 42, 0
1, 41300, Note_on_c, 9, 36, 0
1, 41317, Control_c, 12, 11, 71
1, 41328, Pitch_bend_c, 11, 9344
1, 41328, Pitch_bend_c, 12, 9344
1, 41341, Pitch_bend_c, 11, 8704
1, 41341, Pitch_bend_c, 12, 8704
1, 41346, Pitch_bend_c, 11, 8832
1, 41346, Pitch_bend_c, 12, 8832
1, 41356, Pitch_bend_c, 11, 8192
1, 41356, Pitch_bend_c, 12, 8192
1, 41359, Control_c, 12, 11, 68
1, 41365, Pitch_bend_c, 11, 8192
1, 41365, Pitch_bend_c, 12, 8192
1, 41397, Control_c, 12, 11, 69
1, 41419, Note_on_c, 1, 31, 0
1, 41422, Pitch_bend_c, 11, 8064
1, 41422, Pitch_bend_c, 12, 8064
1, 41440, Pitch_bend_c, 11, 7808
1, 41440, Pitch_bend_c, 12, 7808
1, 41451, Control_c, 12, 11, 67
1, 41463, Pitch_bend_c, 11, 7936
1, 41463, Pitch_bend_c, 12, 7936
1, 41482, Pitch_bend_c, 11, 8192
1, 41482, Pitch_bend_c, 12, 8192
1, 41490, Control_c, 12, 11, 64
1, 41500, Note_on_c, 3, 81, 0
1, 41500, Note_on_c, 4, 57, 0
1, 41519, Note_on_c, 1, 31, 115
1, 41519, Note_on_c, 9, 36, 127
1, 41520, Note_on_c, 3, 79, 105
1, 41520, Note_on_c, 4, 55, 1
1, 41521, Note_on_c, 9, 42, 96
1, 41528, Control_c, 12, 11, 63
1, 41529, Pitch_bend_c, 11, 8576
1, 41529, Pitch_bend_c, 12, 8576
1, 41538, Pitch_bend_c, 11, 8832
1, 41538, Pitch_bend_c, 12, 8832
1, 41539, Note_on_c, 9, 36, 0
1, 41541, Note_on_c, 9, 42, 0
1, 41547, Pitch_bend_c, 11, 8960
1, 41547, Pitch_bend_c, 12, 8960
1, 41555, Control_c, 12, 11, 60
1, 41580, Pitch_bend_c, 11, 9216
1, 41580, Pitch_bend_c, 12, 9216
1, 41581, Control_c, 12, 11, 58
1, 41608, Control_c, 12, 11, 59
1, 41613, Pitch_bend_c, 11, 9088
1, 41613, Pitch_bend_c, 12, 9088
1, 41627, Pitch_bend_c, 11, 8704
1, 41627, Pitch_bend_c, 12, 8704
1, 41636, Pitch_bend_c, 11, 8576
1, 41636, Pitch_bend_c, 12, 8576
1, 41641, Pitch_bend_c, 11, 8320
1, 41641, Pitch_bend_c, 12, 8320
1, 41646, Control_c, 12, 11, 57
1, 41650, Pitch_bend_c, 11, 8192
1, 41650, Pitch_bend_c, 12, 8192
1, 41659, Note_on_c, 1, 31, 0
1, 41674, Control_c, 12, 11, 52
1, 41686, Control_c, 12, 11, 52
1, 41702, Pitch_bend_c, 11, 8064
1, 41702, Pitch_bend_c, 12, 8064
1, 41712, Control_c, 12, 11, 51
1, 41716, Pitch_bend_c, 11, 7680
1, 41716, Pitch_bend_c, 12, 7680
1, 41739, Control_c, 12, 11, 49
1, 41740, Note_on_c, 3, 79, 0
1, 41740, Note_on_c, 4, 55, 0
1, 41759, Note_on_c, 1, 31, 116
1, 41759, Note_on_c, 9, 42, 127
1, 41760, Note_on_c, 3, 79, 105
1, 41760, Note_on_c, 4, 55, 1
1, 41762, Note_on_c, 9, 40, 127
1, 41772, Pitch_bend_c, 11, 8192
1, 41772, Pitch_bend_c, 12, 8192
1, 41777, Control_c, 12, 11, 46
1, 41779, Note_on_c, 9, 42, 0
1, 41782, Note_on_c, 9, 40, 0
1, 41805, Control_c, 12, 11, 44
1, 41814, Pitch_bend_c, 11, 8576
1, 41814, Pitch_bend_c, 12, 8576
1, 41823, Pitch_bend_c, 11, 8832
1, 41823, Pitch_bend_c, 12, 8832
1, 41837, Pitch_bend_c, 11, 8960
1, 41837, Pitch_bend_c, 12, 8960
1, 41846, Pitch_bend_c, 11, 9216
1, 41846, Pitch_bend_c, 12, 9216
1, 41855, Pitch_bend_c, 11, 9600
1, 41855, Pitch_bend_c, 12, 9600
1, 41858, Control_c, 12, 11, 43
1, 41896, Control_c, 12, 11, 40
1, 41898, Pitch_bend_c, 11, 9344
1, 41898, Pitch_bend_c, 12, 9344
1, 41899, Note_on_c, 1, 31, 0
1, 41907, Pitch_bend_c, 11, 8960
1, 41907, Pitch_bend_c, 12, 8960
1, 41917, Pitch_bend_c, 11, 8704
1, 41917, Pitch_bend_c, 12, 8704
1, 41921, Pitch_bend_c, 11, 8576
1, 41921, Pitch_bend_c, 12, 8576
1, 41925, Pitch_bend_c, 11, 8448
1, 41925, Pitch_bend_c, 12, 8448
1, 41935, Pitch_bend_c, 11, 8320
1, 41935, Pitch_bend_c, 12, 8320
1, 41949, Control_c, 12, 11, 39
1, 41980, Note_on_c, 3, 79, 0
1, 41980, Note_on_c, 4, 55, 0
1, 41982, Pitch_bend_c, 11, 8064
1, 41982, Pitch_bend_c, 12, 8064
1, 42000, Note_on_c, 1, 31, 119
1, 42000, Note_on_c, 3, 77, 104
1, 42000, Note_on_c, 4, 53, 1
1, 42001, Pitch_bend_c, 11, 7680
1, 42001, Pitch_bend_c, 12, 7680
1, 42002, Note_on_c, 9, 42, 95
1, 42002, Control_c, 12, 11, 39
1, 42010, Pitch_bend_c, 11, 7552
1, 42010, Pitch_bend_c, 12, 7552
1, 42022, Note_on_c, 9, 42, 0
1, 42052, Pitch_bend_c, 11, 7680
1, 42052, Pitch_bend_c, 12, 7680
1, 42066, Pitch_bend_c, 11, 7936
1, 42066, Pitch_bend_c, 12, 7936
1, 42071, Pitch_bend_c, 11, 8320
1, 42071, Pitch_bend_c, 12, 8320
1, 42100, Note_on_c, 1, 31, 0
1, 42113, Pitch_bend_c, 11, 8320
1, 42113, Pitch_bend_c, 12, 8320
1, 42119, Note_on_c, 1, 31, 119
1, 42122, Pitch_bend_c, 11, 8704
1, 42122, Pitch_bend_c, 12, 8704
1, 42131, Pitch_bend_c, 11, 8704
1, 42131, Pitch_bend_c, 12, 8704
1, 42186, Control_c, 12, 11, 42
1, 42192, Pitch_bend_c, 11, 8832
1, 42192, Pitch_bend_c, 12, 8832
1, 42198, Control_c, 12, 11, 53
1, 42201, Pitch_bend_c, 11, 8576
1, 42201, Pitch_bend_c, 12, 8576
1, 42211, Control_c, 12, 11, 66
1, 42216, Pitch_bend_c, 11, 8192
1, 42216, Pitch_bend_c, 12, 8192
1, 42218, Note_on_c, 11, 62, 0
1, 42219, Note_on_c, 1, 31, 0
1, 42219, Note_on_c, 12, 62, 0
1, 42220, Note_on_c, 3, 77, 0
1, 42220, Note_on_c, 4, 53, 0
1, 42220, Note_on_c, 11, 65, 0
1, 42220, Note_on_c, 12, 65, 0
1, 42224, Control_c, 12, 11, 80
1, 42230, Pitch_bend_c, 11, 8192
1, 42230, Pitch_bend_c, 12, 8192
1, 42239, Note_on_c, 11, 62, 85
1, 42239, Note_on_c, 12, 62, 85
1, 42239, Control_c, 12, 11, 93
1, 42240, Note_on_c, 3, 74, 104
1, 42240, Note_on_c, 4, 50, 1
1, 42240, Note_on_c, 9, 42, 126
1, 42241, Note_on_c, 1, 34, 110
1, 42243, Note_on_c, 9, 36, 126
1, 42251, Control_c, 12, 11, 105
1, 42260, Note_on_c, 9, 42, 0
1, 42263, Note_on_c, 9, 36, 0
1, 42264, Control_c, 12, 11, 116
1, 42277, Control_c, 12, 11, 126
1, 42314, System_exclusive, 33, 0, 32, 36, 0, 4, 83, 79, 32, 77, 85, 67, 72, 32, 77, 79, 82, 69, 32, 73, 32, 72, 65, 86, 69, 32, 84, 79, 32, 83, 65, 89, 10, 247
1, 42319, System_exclusive, 25, 0, 32, 36, 0, 5, 72, 69, 76, 80, 32, 77, 69, 32, 70, 73, 78, 68, 32, 65, 32, 87, 65, 89, 10, 247
1, 42324, System_exclusive, 7, 0, 32, 36, 0, 6, 10, 247
1, 42329, System_exclusive, 7, 0, 32, 36, 0, 7, 10, 247
1, 42339, System_exclusive, 6, 0, 32, 36, 0, 8, 247
1, 42381, Note_on_c, 1, 34, 0
1, 42479, Note_on_c, 9, 42, 90
1, 42480, Note_on_c, 12, 65, 85
1, 42481, Note_on_c, 11, 65, 85
1, 42482, Note_on_c, 1, 34, 117
1, 42499, Note_on_c, 9, 42, 0
1, 42580, Note_on_c, 3, 74, 0
1, 42580, Note_on_c, 4, 50, 0
1, 42582, Note_on_c, 1, 34, 0
1, 42593, Control_c, 12, 11, 121
1, 42601, Note_on_c, 1, 34, 112
1, 42603, Pitch_bend_c, 11, 8576
1, 42603, Pitch_bend_c, 12, 8576
1, 42605, Control_c, 12, 11, 119
1, 42612, Pitch_bend_c, 11, 8704
1, 42612, Pitch_bend_c, 12, 8704
1, 42620, Control_c, 12, 11, 114
1, 42622, Pitch_bend_c, 11, 8832
1, 42622, Pitch_bend_c, 12, 8832
1, 42626, Pitch_bend_c, 11, 9088
1, 42626, Pitch_bend_c, 12, 9088
1, 42631, Control_c, 12, 11, 112
1, 42635, Pitch_bend_c, 11, 9216
1, 42635, Pitch_bend_c, 12, 9216
1, 42645, Control_c, 12, 11, 111
1, 42657, Control_c, 12, 11, 108
1, 42664, Pitch_bend_c, 11, 9088
1, 42664, Pitch_bend_c, 12, 9088
1, 42671, Control_c, 12, 11, 107
1, 42685, Control_c, 12, 11, 107
1, 42696, Pitch_bend_c, 11, 8704
1, 42696, Pitch_bend_c, 12, 8704
1, 42697, Control_c, 12, 11, 104
1, 42701, Note_on_c, 1, 34, 0
1, 42701, Pitch_bend_c, 11, 8448
1, 42701, Pitch_bend_c, 12, 8448
1, 42706, Pitch_bend_c, 11, 8320
1, 42706, Pitch_bend_c, 12, 8320
1, 42710, Control_c, 12, 11, 103
1, 42718, Note_on_c, 9, 40, 127
1, 42719, Pitch_bend_c, 11, 8320
1, 42719, Pitch_bend_c, 12, 8320
1, 42720, Note_on_c, 1, 34, 112
1, 42722, Note_on_c, 9, 42, 127
1, 42736, Control_c, 12, 11, 100
1, 42738, Note_on_c, 9, 40, 0
1, 42742, Note_on_c, 9, 42, 0
1, 42751, Control_c, 12, 11, 98
1, 42776, Control_c, 12, 11, 97
1, 42776, Pitch_bend_c, 11, 7936
1, 42776, Pitch_bend_c, 12, 7936
1, 42785, Pitch_bend_c, 11, 7680
1, 42785, Pitch_bend_c, 12, 7680
1, 42802, Control_c, 12, 11, 93
1, 42813, Pitch_bend_c, 11, 7552
1, 42813, Pitch_bend_c, 12, 7552
1, 42820, Note_on_c, 1, 34, 0
1, 42822, Pitch_bend_c, 11, 7552
1, 42822, Pitch_bend_c, 12, 7552
1, 42830, Control_c, 12, 11, 90
1, 42841, Control_c, 12, 11, 90
1, 42841, Pitch_bend_c, 11, 7424
1, 42841, Pitch_bend_c, 12, 7424
1, 42850, Pitch_bend_c, 11, 7680
1, 42850, Pitch_bend_c, 12, 7680
1, 42860, Pitch_bend_c, 11, 8320
1, 42860, Pitch_bend_c, 12, 8320
1, 42867, Control_c, 12, 11, 89
1, 42895, Control_c, 12, 11, 87
1, 42907, Pitch_bend_c, 11, 8448
1, 42907, Pitch_bend_c, 12, 8448
1, 42911, Pitch_bend_c, 11, 8576
1, 42911, Pitch_bend_c, 12, 8576
1, 42935, Control_c, 12, 11, 84
1, 42949, Pitch_bend_c, 11, 8832
1, 42949, Pitch_bend_c, 12, 8832
1, 42958, Pitch_bend_c, 11, 8960
1, 42958, Pitch_bend_c, 12, 8960
1, 42960, Note_on_c, 3, 74, 105
1, 42960, Note_on_c, 4, 50, 1
1, 42960, Control_c, 12, 11, 82
1, 42961, Note_on_c, 9, 42, 94
1, 42962, Note_on_c, 1, 34, 117
1, 42981, Note_on_c, 9, 42, 0
1, 42986, Pitch_bend_c, 11, 8832
1, 42986, Pitch_bend_c, 12, 8832
1, 42995, Pitch_bend_c, 11, 8448
1, 42995, Pitch_bend_c, 12, 8448
1, 43000, Pitch_bend_c, 11, 8192
1, 43000, Pitch_bend_c, 12, 8192
1, 43001, Control_c, 12, 11, 81
1, 43004, Pitch_bend_c, 11, 8320
1, 43004, Pitch_bend_c, 12, 8320
1, 43039, Control_c, 12, 11, 80
1, 43042, Pitch_bend_c, 11, 8064
1, 43042, Pitch_bend_c, 12, 8064
1, 43051, Pitch_bend_c, 11, 7680
1, 43051, Pitch_bend_c, 12, 7680
1, 43060, Note_on_c, 3, 74, 0
1, 43060, Note_on_c, 4, 50, 0
1, 43062, Note_on_c, 1, 34, 0
1, 43066, Control_c, 12, 11, 79
1, 43070, Pitch_bend_c, 11, 7680
1, 43070, Pitch_bend_c, 12, 7680
1, 43079, Pitch_bend_c, 11, 7552
1, 43079, Pitch_bend_c, 12, 7552
1, 43080, Note_on_c, 3, 76, 105
1, 43080, Note_on_c, 4, 52, 1
1, 43081, Note_on_c, 1, 34, 115
1, 43089, Pitch_bend_c, 11, 7296
1, 43089, Pitch_bend_c, 12, 7296
1, 43098, Pitch_bend_c, 11, 7424
1, 43098, Pitch_bend_c, 12, 7424
1, 43104, Control_c, 12, 11, 77
1, 43107, Pitch_bend_c, 11, 7680
1, 43107, Pitch_bend_c, 12, 7680
1, 43117, Pitch_bend_c, 11, 8064
1, 43117, Pitch_bend_c, 12, 8064
1, 43126, Pitch_bend_c, 11, 8192
1, 43126, Pitch_bend_c, 12, 8192
1, 43132, Control_c, 12, 11, 74
1, 43157, Control_c, 12, 11, 73
1, 43159, Pitch_bend_c, 11, 8576
1, 43159, Pitch_bend_c, 12, 8576
1, 43168, Pitch_bend_c, 11, 8832
1, 43168, Pitch_bend_c, 12, 8832
1, 43178, Pitch_bend_c, 11, 8960
1, 43178, Pitch_bend_c, 12, 8960
1, 43180, Note_on_c, 3, 76, 0
1, 43180, Note_on_c, 4, 52, 0
1, 43181, Note_on_c, 1, 34, 0
1, 43183, Control_c, 12, 11, 70
1, 43198, Note_on_c, 1, 34, 116
1, 43200, Note_on_c, 3, 77, 104
1, 43200, Note_on_c, 4, 53, 1
1, 43201, Note_on_c, 9, 42, 127
1, 43201, Pitch_bend_c, 11, 9344
1, 43201, Pitch_bend_c, 12, 9344
1, 43203, Note_on_c, 9, 36, 126
1, 43210, Pitch_bend_c, 11, 9216
1, 43210, Pitch_bend_c, 12, 9216
1, 43221, Note_on_c, 9, 42, 0
1, 43223, Note_on_c, 9, 36, 0
1, 43237, Control_c, 12, 11, 68
1, 43248, Pitch_bend_c, 11, 9216
1, 43248, Pitch_bend_c, 12, 9216
1, 43261, Pitch_bend_c, 11, 8832
1, 43261, Pitch_bend_c, 12, 8832
1, 43263, Control_c, 12, 11, 67
1, 43266, Pitch_bend_c, 11, 8832
1, 43266, Pitch_bend_c, 12, 8832
1, 43276, Pitch_bend_c, 11, 8192
1, 43276, Pitch_bend_c, 12, 8192
1, 43285, Pitch_bend_c, 11, 8192
1, 43285, Pitch_bend_c, 12, 8192
1, 43316, Control_c, 12, 11, 67
1, 43338, Note_on_c, 1, 34, 0
1, 43341, Control_c, 12, 11, 64
1, 43342, Pitch_bend_c, 11, 8064
1, 43342, Pitch_bend_c, 12, 8064
1, 43360, Pitch_bend_c, 11, 7808
1, 43360, Pitch_bend_c, 12, 7808
1, 43381, Control_c, 12, 11, 62
1, 43383, Pitch_bend_c, 11, 7936
1, 43383, Pitch_bend_c, 12, 7936
1, 43402, Pitch_bend_c, 11, 8192
1, 43402, Pitch_bend_c, 12, 8192
1, 43420, Note_on_c, 3, 77, 0
1, 43420, Note_on_c, 4, 53, 0
1, 43420, Control_c, 12, 11, 61
1, 43440, Note_on_c, 1, 34, 110
1, 43440, Note_on_c, 3, 79, 104
1, 43440, Note_on_c, 4, 55, 1
1, 43441, Note_on_c, 9, 42, 97
1, 43447, Control_c, 12, 11, 61
1, 43449, Pitch_bend_c, 11, 8576
1, 43449, Pitch_bend_c, 12, 8576
1, 43458, Pitch_bend_c, 11, 8704
1, 43458, Pitch_bend_c, 12, 8704
1, 43461, Note_on_c, 9, 42, 0
1, 43467, Pitch_bend_c, 11, 9088
1, 43467, Pitch_bend_c, 12, 9088
1, 43485, Control_c, 12, 11, 58
1, 43500, Pitch_bend_c, 11, 9344
1, 43500, Pitch_bend_c, 12, 9344
1, 43526, Control_c, 12, 11, 56
1, 43533, Pitch_bend_c, 11, 8960
1, 43533, Pitch_bend_c, 12, 8960
1, 43547, Pitch_bend_c, 11, 8832
1, 43547, Pitch_bend_c, 12, 8832
1, 43551, Control_c, 12, 11, 55
1, 43556, Pitch_bend_c, 11, 8448
1, 43556, Pitch_bend_c, 12, 8448
1, 43561, Pitch_bend_c, 11, 8192
1, 43561, Pitch_bend_c, 12, 8192
1, 43570, Pitch_bend_c, 11, 8320
1, 43570, Pitch_bend_c, 12, 8320
1, 43580, Note_on_c, 1, 34, 0
1, 43591, Control_c, 12, 11, 52
1, 43617, Control_c, 12, 11, 53
1, 43622, Pitch_bend_c, 11, 8064
1, 43622, Pitch_bend_c, 12, 8064
1, 43636, Pitch_bend_c, 11, 7680
1, 43636, Pitch_bend_c, 12, 7680
1, 43644, Control_c, 12, 11, 51
1, 43660, Note_on_c, 3, 79, 0
1, 43660, Note_on_c, 4, 55, 0
1, 43680, Note_on_c, 3, 77, 105
1, 43680, Note_on_c, 4, 53, 1
1, 43680, Note_on_c, 9, 40, 126
1, 43682, Note_on_c, 1, 34, 113
1, 43682, Control_c, 12, 11, 48
1, 43683, Note_on_c, 9, 42, 126
1, 43692, Pitch_bend_c, 11, 8192
1, 43692, Pitch_bend_c, 12, 8192
1, 43700, Note_on_c, 9, 40, 0
1, 43703, Note_on_c, 9, 42, 0
1, 43734, Pitch_bend_c, 11, 8576
1, 43734, Pitch_bend_c, 12, 8576
1, 43743, Pitch_bend_c, 11, 8832
1, 43743, Pitch_bend_c, 12, 8832
1, 43749, Control_c, 12, 11, 47
1, 43757, Pitch_bend_c, 11, 8960
1, 43757, Pitch_bend_c, 12, 8960
1, 43766, Pitch_bend_c, 11, 9216
1, 43766, Pitch_bend_c, 12, 9216
1, 43775, Pitch_bend_c, 11, 9600
1, 43775, Pitch_bend_c, 12, 9600
1, 43789, Control_c, 12, 11, 44
1, 43818, Pitch_bend_c, 11, 9216
1, 43818, Pitch_bend_c, 12, 9216
1, 43822, Note_on_c, 1, 34, 0
1, 43827, Pitch_bend_c, 11, 9088
1, 43827, Pitch_bend_c, 12, 9088
1, 43837, Pitch_bend_c, 11, 8832
1, 43837, Pitch_bend_c, 12, 8832
1, 43841, Control_c, 12, 11, 42
1, 43841, Pitch_bend_c, 11, 8448
1, 43841, Pitch_bend_c, 12, 8448
1, 43845, Pitch_bend_c, 11, 8576
1, 43845, Pitch_bend_c, 12, 8576
1, 43855, Pitch_bend_c, 11, 8192
1, 43855, Pitch_bend_c, 12, 8192
1, 43893, Control_c, 12, 11, 41
1, 43900, Note_on_c, 3, 77, 0
1, 43900, Note_on_c, 4, 53, 0
1, 43902, Pitch_bend_c, 11, 7936
1, 43902, Pitch_bend_c, 12, 7936
1, 43918, Note_on_c, 9, 42, 95
1, 43920, Note_on_c, 3, 74, 104
1, 43920, Note_on_c, 4, 50, 1
1, 43921, Pitch_bend_c, 11, 7808
1, 43921, Pitch_bend_c, 12, 7808
1, 43922, Note_on_c, 1, 34, 115
1, 43930, Pitch_bend_c, 11, 7552
1, 43930, Pitch_bend_c, 12, 7552
1, 43938, Note_on_c, 9, 42, 0
1, 43946, Control_c, 12, 11, 41
1, 43972, Pitch_bend_c, 11, 7680
1, 43972, Pitch_bend_c, 12, 7680
1, 43986, Pitch_bend_c, 11, 7936
1, 43986, Pitch_bend_c, 12, 7936
1, 43991, Pitch_bend_c, 11, 8320
1, 43991, Pitch_bend_c, 12, 8320
1, 44020, Note_on_c, 3, 74, 0
1, 44020, Note_on_c, 4, 50, 0
1, 44022, Note_on_c, 1, 34, 0
1, 44033, Pitch_bend_c, 11, 8320
1, 44033, Pitch_bend_c, 12, 8320
1, 44040, Note_on_c, 1, 34, 110
1, 44040, Note_on_c, 3, 76, 105
1, 44040, Note_on_c, 4, 52, 1
1, 44042, Pitch_bend_c, 11, 8704
1, 44042, Pitch_bend_c, 12, 8704
1, 44051, Pitch_bend_c, 11, 8704
1, 44051, Pitch_bend_c, 12, 8704
1, 44091, Control_c, 12, 11, 42
1, 44102, Control_c, 12, 11, 50
1, 44112, Pitch_bend_c, 11, 8832
1, 44112, Pitch_bend_c, 12, 8832
1, 44116, Control_c, 12, 11, 61
1, 44121, Pitch_bend_c, 11, 8448
1, 44121, Pitch_bend_c, 12, 8448
1, 44129, Control_c, 12, 11, 75
1, 44136, Pitch_bend_c, 11, 8320
1, 44136, Pitch_bend_c, 12, 8320
1, 44139, Note_on_c, 11, 62, 0
1, 44139, Note_on_c, 12, 62, 0
1, 44140, Note_on_c, 1, 34, 0
1, 44140, Note_on_c, 12, 65, 0
1, 44141, Note_on_c, 11, 65, 0
1, 44143, Control_c, 12, 11, 90
1, 44150, Pitch_bend_c, 11, 8320
1, 44150, Pitch_bend_c, 12, 8320
1, 44155, Control_c, 12, 11, 106
1, 44159, Note_on_c, 9, 36, 127
1, 44160, Note_on_c, 9, 42, 126
1, 44160, Note_on_c, 11, 61, 84
1, 44160, Note_on_c, 12, 61, 84
1, 44163, Note_on_c, 1, 33, 116
1, 44168, Control_c, 12, 11, 125
1, 44179, Note_on_c, 9, 36, 0
1, 44180, Note_on_c, 9, 42, 0
1, 44182, Control_c, 12, 11, 126
1, 44303, Note_on_c, 1, 33, 0
1, 44320, System_exclusive, 6, 0, 32, 36, 0, 8, 247
1, 44380, Note_on_c, 3, 76, 0
1, 44380, Note_on_c, 4, 52, 0
1, 44398, Note_on_c, 1, 33, 115
1, 44399, Note_on_c, 9, 42, 90
1, 44400, Note_on_c, 11, 64, 84
1, 44400, Note_on_c, 12, 64, 84
1, 44419, Note_on_c, 9, 42, 0
1, 44498, Note_on_c, 1, 33, 0
1, 44520, Note_on_c, 1, 33, 114
1, 44523, Pitch_bend_c, 11, 8448
1, 44523, Pitch_bend_c, 12, 8448
1, 44532, Pitch_bend_c, 11, 8832
1, 44532, Pitch_bend_c, 12, 8832
1, 44542, Pitch_bend_c, 11, 8704
1, 44542, Pitch_bend_c, 12, 8704
1, 44546, Pitch_bend_c, 11, 8960
1, 44546, Pitch_bend_c, 12, 8960
1, 44550, Control_c, 12, 11, 125
1, 44555, Pitch_bend_c, 11, 9344
1, 44555, Pitch_bend_c, 12, 9344
1, 44562, Control_c, 12, 11, 123
1, 44584, Pitch_bend_c, 11, 9088
1, 44584, Pitch_bend_c, 12, 9088
1, 44589, Control_c, 12, 11, 120
1, 44616, Pitch_bend_c, 11, 8704
1, 44616, Pitch_bend_c, 12, 8704
1, 44620, Note_on_c, 1, 33, 0
1, 44621, Pitch_bend_c, 11, 8448
1, 44621, Pitch_bend_c, 12, 8448
1, 44626, Pitch_bend_c, 11, 8320
1, 44626, Pitch_bend_c, 12, 8320
1, 44627, Control_c, 12, 11, 119
1, 44638, Note_on_c, 9, 40, 126
1, 44639, Note_on_c, 9, 42, 127
1, 44639, Pitch_bend_c, 11, 8320
1, 44639, Pitch_bend_c, 12, 8320
1, 44642, Note_on_c, 1, 33, 115
1, 44656, Control_c, 12, 11, 116
1, 44658, Note_on_c, 9, 40, 0
1, 44659, Note_on_c, 9, 42, 0
1, 44680, Control_c, 12, 11, 114
1, 44693, Control_c, 12, 11, 113
1, 44696, Pitch_bend_c, 11, 7936
1, 44696, Pitch_bend_c, 12, 7936
1, 44705, Pitch_bend_c, 11, 7680
1, 44705, Pitch_bend_c, 12, 7680
1, 44708, Control_c, 12, 11, 113
1, 44720, Control_c, 12, 11, 110
1, 44733, Control_c, 12, 11, 108
1, 44733, Pitch_bend_c, 11, 7552
1, 44733, Pitch_bend_c, 12, 7552
1, 44742, Note_on_c, 1, 33, 0
1, 44742, Pitch_bend_c, 11, 7424
1, 44742, Pitch_bend_c, 12, 7424
1, 44746, Control_c, 12, 11, 107
1, 44759, Control_c, 12, 11, 105
1, 44761, Pitch_bend_c, 11, 7552
1, 44761, Pitch_bend_c, 12, 7552
1, 44770, Pitch_bend_c, 11, 7808
1, 44770, Pitch_bend_c, 12, 7808
1, 44780, Pitch_bend_c, 11, 8192
1, 44780, Pitch_bend_c, 12, 8192
1, 44786, Control_c, 12, 11, 102
1, 44798, Control_c, 12, 11, 100
1, 44811, Control_c, 12, 11, 101
1, 44827, Pitch_bend_c, 11, 8576
1, 44827, Pitch_bend_c, 12, 8576
1, 44831, Pitch_bend_c, 11, 8448
1, 44831, Pitch_bend_c, 12, 8448
1, 44839, Control_c, 12, 11, 96
1, 44851, Control_c, 12, 11, 97
1, 44864, Control_c, 12, 11, 95
1, 44869, Pitch_bend_c, 11, 8704
1, 44869, Pitch_bend_c, 12, 8704
1, 44878, Pitch_bend_c, 11, 9088
1, 44878, Pitch_bend_c, 12, 9088
1, 44879, Note_on_c, 9, 42, 95
1, 44880, Note_on_c, 1, 33, 115
1, 44891, Control_c, 12, 11, 90
1, 44899, Note_on_c, 9, 42, 0
1, 44905, Control_c, 12, 11, 91
1, 44906, Pitch_bend_c, 11, 8832
1, 44906, Pitch_bend_c, 12, 8832
1, 44915, Pitch_bend_c, 11, 8448
1, 44915, Pitch_bend_c, 12, 8448
1, 44920, Pitch_bend_c, 11, 8192
1, 44920, Pitch_bend_c, 12, 8192
1, 44924, Pitch_bend_c, 11, 8320
1, 44924, Pitch_bend_c, 12, 8320
1, 44930, Control_c, 12, 11, 88
1, 44957, Control_c, 12, 11, 86
1, 44962, Pitch_bend_c, 11, 8064
1, 44962, Pitch_bend_c, 12, 8064
1, 44971, Pitch_bend_c, 11, 7680
1, 44971, Pitch_bend_c, 12, 7680
1, 44980, Note_on_c, 1, 33, 0
1, 44983, Control_c, 12, 11, 85
1, 44990, Pitch_bend_c, 11, 7680
1, 44990, Pitch_bend_c, 12, 7680
1, 44999, Note_on_c, 1, 33, 116
1, 44999, Pitch_bend_c, 11, 7552
1, 44999, Pitch_bend_c, 12, 7552
1, 45009, Pitch_bend_c, 11, 7168
1, 45009, Pitch_bend_c, 12, 7168
1, 45018, Pitch_bend_c, 11, 7552
1, 45018, Pitch_bend_c, 12, 7552
1, 45022, Control_c, 12, 11, 83
1, 45027, Pitch_bend_c, 11, 7808
1, 45027, Pitch_bend_c, 12, 7808
1, 45037, Pitch_bend_c, 11, 7936
1, 45037, Pitch_bend_c, 12, 7936
1, 45046, Pitch_bend_c, 11, 8320
1, 45046, Pitch_bend_c, 12, 8320
1, 45049, Control_c, 12, 11, 80
1, 45074, Control_c, 12, 11, 78
1, 45079, Pitch_bend_c, 11, 8448
1, 45079, Pitch_bend_c, 12, 8448
1, 45088, Pitch_bend_c, 11, 8704
1, 45088, Pitch_bend_c, 12, 8704
1, 45098, Pitch_bend_c, 11, 9088
1, 45098, Pitch_bend_c, 12, 9088
1, 45099, Note_on_c, 1, 33, 0
1, 45102, Control_c, 12, 11, 77
1, 45120, Note_on_c, 3, 76, 105
1, 45120, Note_on_c, 4, 52, 1
1, 45121, Note_on_c, 1, 33, 113
1, 45121, Note_on_c, 9, 36, 126
1, 45121, Pitch_bend_c, 11, 9344
1, 45121, Pitch_bend_c, 12, 9344
1, 45122, Note_on_c, 9, 42, 126
1, 45127, Control_c, 12, 11, 77
1, 45130, Pitch_bend_c, 11, 9216
1, 45130, Pitch_bend_c, 12, 9216
1, 45141, Note_on_c, 9, 36, 0
1, 45142, Note_on_c, 9, 42, 0
1, 45155, Control_c, 12, 11, 74
1, 45168, Pitch_bend_c, 11, 9216
1, 45168, Pitch_bend_c, 12, 9216
1, 45181, Pitch_bend_c, 11, 8832
1, 45181, Pitch_bend_c, 12, 8832
1, 45186, Pitch_bend_c, 11, 8832
1, 45186, Pitch_bend_c, 12, 8832
1, 45193, Control_c, 12, 11, 72
1, 45196, Pitch_bend_c, 11, 8192
1, 45196, Pitch_bend_c, 12, 8192
1, 45205, Pitch_bend_c, 11, 8192
1, 45205, Pitch_bend_c, 12, 8192
1, 45233, Control_c, 12, 11, 71
1, 45261, Note_on_c, 1, 33, 0
1, 45262, Pitch_bend_c, 11, 8064
1, 45262, Pitch_bend_c, 12, 8064
1, 45271, Control_c, 12, 11, 68
1, 45280, Pitch_bend_c, 11, 7680
1, 45280, Pitch_bend_c, 12, 7680
1, 45299, Control_c, 12, 11, 67
1, 45303, Pitch_bend_c, 11, 8064
1, 45303, Pitch_bend_c, 12, 8064
1, 45322, Pitch_bend_c, 11, 8320
1, 45322, Pitch_bend_c, 12, 8320
1, 45324, Control_c, 12, 11, 65
1, 45340, Note_on_c, 3, 76, 0
1, 45340, Note_on_c, 4, 52, 0
1, 45360, Note_on_c, 3, 76, 104
1, 45360, Note_on_c, 4, 52, 1
1, 45362, Note_on_c, 1, 33, 118
1, 45362, Note_on_c, 9, 36, 127
1, 45362, Note_on_c, 9, 42, 96
1, 45364, Control_c, 12, 11, 62
1, 45369, Pitch_bend_c, 11, 8448
1, 45369, Pitch_bend_c, 12, 8448
1, 45378, Pitch_bend_c, 11, 8832
1, 45378, Pitch_bend_c, 12, 8832
1, 45382, Note_on_c, 9, 36, 0
1, 45382, Note_on_c, 9, 42, 0
1, 45387, Pitch_bend_c, 11, 8960
1, 45387, Pitch_bend_c, 12, 8960
1, 45389, Control_c, 12, 11, 61
1, 45404, Control_c, 12, 11, 58
1, 45420, Pitch_bend_c, 11, 9216
1, 45420, Pitch_bend_c, 12, 9216
1, 45429, Control_c, 12, 11, 56
1, 45453, Pitch_bend_c, 11, 9088
1, 45453, Pitch_bend_c, 12, 9088
1, 45455, Control_c, 12, 11, 57
1, 45467, Pitch_bend_c, 11, 8832
1, 45467, Pitch_bend_c, 12, 8832
1, 45470, Control_c, 12, 11, 55
1, 45476, Pitch_bend_c, 11, 8448
1, 45476, Pitch_bend_c, 12, 8448
1, 45481, Control_c, 12, 11, 52
1, 45481, Pitch_bend_c, 11, 8192
1, 45481, Pitch_bend_c, 12, 8192
1, 45490, Pitch_bend_c, 11, 8320
1, 45490, Pitch_bend_c, 12, 8320
1, 45502, Note_on_c, 1, 33, 0
1, 45508, Control_c, 12, 11, 50
1, 45542, Pitch_bend_c, 11, 8064
1, 45542, Pitch_bend_c, 12, 8064
1, 45548, Control_c, 12, 11, 49
1, 45556, Pitch_bend_c, 11, 7680
1, 45556, Pitch_bend_c, 12, 7680
1, 45573, Control_c, 12, 11, 49
1, 45580, Note_on_c, 3, 76, 0
1, 45580, Note_on_c, 4, 52, 0
1, 45599, Note_on_c, 1, 33, 114
1, 45600, Note_on_c, 3, 77, 105
1, 45600, Note_on_c, 4, 53, 1
1, 45601, Note_on_c, 9, 40, 127
1, 45603, Note_on_c, 9, 42, 127
1, 45612, Pitch_bend_c, 11, 8192
1, 45612, Pitch_bend_c, 12, 8192
1, 45614, Control_c, 12, 11, 46
1, 45621, Note_on_c, 9, 40, 0
1, 45623, Note_on_c, 9, 42, 0
1, 45654, Pitch_bend_c, 11, 8576
1, 45654, Pitch_bend_c, 12, 8576
1, 45663, Pitch_bend_c, 11, 8704
1, 45663, Pitch_bend_c, 12, 8704
1, 45667, Control_c, 12, 11, 44
1, 45677, Pitch_bend_c, 11, 9088
1, 45677, Pitch_bend_c, 12, 9088
1, 45686, Pitch_bend_c, 11, 9344
1, 45686, Pitch_bend_c, 12, 9344
1, 45695, Pitch_bend_c, 11, 9472
1, 45695, Pitch_bend_c, 12, 9472
1, 45718, Control_c, 12, 11, 43
1, 45738, Pitch_bend_c, 11, 9344
1, 45738, Pitch_bend_c, 12, 9344
1, 45739, Note_on_c, 1, 33, 0
1, 45747, Pitch_bend_c, 11, 8960
1, 45747, Pitch_bend_c, 12, 8960
1, 45757, Pitch_bend_c, 11, 8704
1, 45757, Pitch_bend_c, 12, 8704
1, 45761, Pitch_bend_c, 11, 8576
1, 45761, Pitch_bend_c, 12, 8576
1, 45765, Pitch_bend_c, 11, 8576
1, 45765, Pitch_bend_c, 12, 8576
1, 45771, Control_c, 12, 11, 40
1, 45775, Pitch_bend_c, 11, 8192
1, 45775, Pitch_bend_c, 12, 8192
1, 45820, Note_on_c, 3, 77, 0
1, 45820, Note_on_c, 4, 53, 0
1, 45822, Pitch_bend_c, 11, 7936
1, 45822, Pitch_bend_c, 12, 7936
1, 45838, Note_on_c, 1, 33, 119
1, 45839, Note_on_c, 9, 42, 95
1, 45840, Note_on_c, 3, 76, 104
1, 45840, Note_on_c, 4, 52, 1
1, 45841, Pitch_bend_c, 11, 7808
1, 45841, Pitch_bend_c, 12, 7808
1, 45850, Pitch_bend_c, 11, 7552
1, 45850, Pitch_bend_c, 12, 7552
1, 45859, Note_on_c, 9, 42, 0
1, 45892, Pitch_bend_c, 11, 7680
1, 45892, Pitch_bend_c, 12, 7680
1, 45906, Pitch_bend_c, 11, 7936
1, 45906, Pitch_bend_c, 12, 7936
1, 45911, Pitch_bend_c, 11, 8320
1, 45911, Pitch_bend_c, 12, 8320
1, 45938, Note_on_c, 1, 33, 0
1, 45940, Note_on_c, 3, 76, 0
1, 45940, Note_on_c, 4, 52, 0
1, 45953, Pitch_bend_c, 11, 8192
1, 45953, Pitch_bend_c, 12, 8192
1, 45960, Note_on_c, 3, 77, 104
1, 45960, Note_on_c, 4, 53, 1
1, 45961, Note_on_c, 1, 33, 111
1, 45962, Pitch_bend_c, 11, 8832
1, 45962, Pitch_bend_c, 12, 8832
1, 45971, Pitch_bend_c, 11, 8832
1, 45971, Pitch_bend_c, 12, 8832
1, 46032, Pitch_bend_c, 11, 8704
1, 46032, Pitch_bend_c, 12, 8704
1, 46035, Control_c, 12, 11, 47
1, 46041, Pitch_bend_c, 11, 8576
1, 46041, Pitch_bend_c, 12, 8576
1, 46048, Control_c, 12, 11, 53
1, 46056, Pitch_bend_c, 11, 8192
1, 46056, Pitch_bend_c, 12, 8192
1, 46059, Control_c, 12, 11, 64
1, 46060, Note_on_c, 11, 61, 0
1, 46060, Note_on_c, 11, 64, 0
1, 46060, Note_on_c, 12, 61, 0
1, 46060, Note_on_c, 12, 64, 0
1, 46061, Note_on_c, 1, 33, 0
1, 46070, Pitch_bend_c, 11, 8192
1, 46070, Pitch_bend_c, 12, 8192
1, 46073, Control_c, 12, 11, 77
1, 46079, Note_on_c, 9, 36, 127
1, 46079, Note_on_c, 9, 42, 126
1, 46080, Note_on_c, 1, 26, 112
1, 46080, Note_on_c, 12, 62, 85
1, 46081, Note_on_c, 11, 62, 85
1, 46086, Control_c, 12, 11, 90
1, 46099, Note_on_c, 9, 36, 0
1, 46099, Note_on_c, 9, 42, 0
1, 46101, Control_c, 12, 11, 104
1, 46112, Control_c, 12, 11, 119
1, 46125, Control_c, 12, 11, 127
1, 46180, Note_on_c, 3, 77, 0
1, 46180, Note_on_c, 4, 53, 0
1, 46200, Note_on_c, 3, 76, 105
1, 46200, Note_on_c, 4, 52, 1
1, 46220, Note_on_c, 1, 26, 0
1, 46300, Note_on_c, 3, 76, 0
1, 46300, Note_on_c, 4, 52, 0
1, 46318, Note_on_c, 12, 65, 85
1, 46320, Note_on_c, 1, 26, 118
1, 46320, Note_on_c, 3, 74, 105
1, 46320, Note_on_c, 4, 50, 1
1, 46321, Note_on_c, 9, 42, 90
1, 46323, Note_on_c, 11, 65, 85
1, 46341, Note_on_c, 9, 42, 0
1, 46420, Note_on_c, 1, 26, 0
1, 46440, Note_on_c, 1, 26, 117
1, 46443, Pitch_bend_c, 11, 8576
1, 46443, Pitch_bend_c, 12, 8576
1, 46452, Pitch_bend_c, 11, 8832
1, 46452, Pitch_bend_c, 12, 8832
1, 46462, Pitch_bend_c, 11, 8704
1, 46462, Pitch_bend_c, 12, 8704
1, 46466, Pitch_bend_c, 11, 8960
1, 46466, Pitch_bend_c, 12, 8960
1, 46475, Pitch_bend_c, 11, 9344
1, 46475, Pitch_bend_c, 12, 9344
1, 46504, Pitch_bend_c, 11, 9088
1, 46504, Pitch_bend_c, 12, 9088
1, 46521, Control_c, 12, 11, 122
1, 46532, Control_c, 12, 11, 120
1, 46536, Pitch_bend_c, 11, 8704
1, 46536, Pitch_bend_c, 12, 8704
1, 46540, Note_on_c, 1, 26, 0
1, 46541, Pitch_bend_c, 11, 8448
1, 46541, Pitch_bend_c, 12, 8448
1, 46546, Control_c, 12, 11, 119
1, 46546, Pitch_bend_c, 11, 8320
1, 46546, Pitch_bend_c, 12, 8320
1, 46558, Control_c, 12, 11, 117
1, 46559, Pitch_bend_c, 11, 8192
1, 46559, Pitch_bend_c, 12, 8192
1, 46560, Note_on_c, 1, 26, 113
1, 46561, Note_on_c, 9, 40, 127
1, 46561, Note_on_c, 9, 42, 127
1, 46571, Control_c, 12, 11, 114
1, 46581, Note_on_c, 9, 40, 0
1, 46581, Note_on_c, 9, 42, 0
1, 46585, Control_c, 12, 11, 112
1, 46598, Control_c, 12, 11, 111
1, 46616, Pitch_bend_c, 11, 8064
1, 46616, Pitch_bend_c, 12, 8064
1, 46625, Control_c, 12, 11, 108
1, 46625, Pitch_bend_c, 11, 7808
1, 46625, Pitch_bend_c, 12, 7808
1, 46651, Control_c, 12, 11, 107
1, 46653, Pitch_bend_c, 11, 7424
1, 46653, Pitch_bend_c, 12, 7424
1, 46660, Note_on_c, 1, 26, 0
1, 46662, Pitch_bend_c, 11, 7552
1, 46662, Pitch_bend_c, 12, 7552
1, 46664, Control_c, 12, 11, 105
1, 46678, Control_c, 12, 11, 102
1, 46681, Pitch_bend_c, 11, 7424
1, 46681, Pitch_bend_c, 12, 7424
1, 46690, Control_c, 12, 11, 103
1, 46690, Pitch_bend_c, 11, 7680
1, 46690, Pitch_bend_c, 12, 7680
1, 46700, Pitch_bend_c, 11, 8320
1, 46700, Pitch_bend_c, 12, 8320
1, 46702, Control_c, 12, 11, 100
1, 46716, Control_c, 12, 11, 98
1, 46729, Control_c, 12, 11, 97
1, 46743, Control_c, 12, 11, 95
1, 46747, Pitch_bend_c, 11, 8576
1, 46747, Pitch_bend_c, 12, 8576
1, 46751, Pitch_bend_c, 11, 8448
1, 46751, Pitch_bend_c, 12, 8448
1, 46755, Control_c, 12, 11, 92
1, 46768, Control_c, 12, 11, 92
1, 46782, Control_c, 12, 11, 91
1, 46789, Pitch_bend_c, 11, 8704
1, 46789, Pitch_bend_c, 12, 8704
1, 46798, Pitch_bend_c, 11, 9088
1, 46798, Pitch_bend_c, 12, 9088
1, 46800, Note_on_c, 1, 26, 112
1, 46801, Note_on_c, 9, 42, 94
1, 46809, Control_c, 12, 11, 89
1, 46821, Note_on_c, 9, 42, 0
1, 46821, Control_c, 12, 11, 86
1, 46826, Pitch_bend_c, 11, 8832
1, 46826, Pitch_bend_c, 12, 8832
1, 46834, Control_c, 12, 11, 84
1, 46835, Pitch_bend_c, 11, 8448
1, 46835, Pitch_bend_c, 12, 8448
1, 46840, Pitch_bend_c, 11, 8192
1, 46840, Pitch_bend_c, 12, 8192
1, 46844, Pitch_bend_c, 11, 8320
1, 46844, Pitch_bend_c, 12, 8320
1, 46862, Control_c, 12, 11, 83
1, 46874, Control_c, 12, 11, 80
1, 46882, Pitch_bend_c, 11, 7936
1, 46882, Pitch_bend_c, 12, 7936
1, 46887, Control_c, 12, 11, 81
1, 46891, Pitch_bend_c, 11, 7808
1, 46891, Pitch_bend_c, 12, 7808
1, 46899, Control_c, 12, 11, 79
1, 46900, Note_on_c, 1, 26, 0
1, 46910, Pitch_bend_c, 11, 7808
1, 46910, Pitch_bend_c, 12, 7808
1, 46913, Control_c, 12, 11, 76
1, 46918, Note_on_c, 1, 26, 116
1, 46919, Pitch_bend_c, 11, 7424
1, 46919, Pitch_bend_c, 12, 7424
1, 46929, Pitch_bend_c, 11, 7296
1, 46929, Pitch_bend_c, 12, 7296
1, 46938, Pitch_bend_c, 11, 7424
1, 46938, Pitch_bend_c, 12, 7424
1, 46940, Control_c, 12, 11, 75
1, 46947, Pitch_bend_c, 11, 7680
1, 46947, Pitch_bend_c, 12, 7680
1, 46957, Pitch_bend_c, 11, 8064
1, 46957, Pitch_bend_c, 12, 8064
1, 46966, Pitch_bend_c, 11, 8320
1, 46966, Pitch_bend_c, 12, 8320
1, 46979, Control_c, 12, 11, 74
1, 46999, Pitch_bend_c, 11, 8448
1, 46999, Pitch_bend_c, 12, 8448
1, 47006, Control_c, 12, 11, 72
1, 47008, Pitch_bend_c, 11, 8704
1, 47008, Pitch_bend_c, 12, 8704
1, 47018, Note_on_c, 1, 26, 0
1, 47018, Pitch_bend_c, 11, 9088
1, 47018, Pitch_bend_c, 12, 9088
1, 47020, Note_on_c, 3, 74, 0
1, 47020, Note_on_c, 4, 50, 0
1, 47031, Control_c, 12, 11, 71
1, 47039, Note_on_c, 9, 36, 126
1, 47041, Note_on_c, 1, 26, 111
1, 47041, Note_on_c, 9, 42, 127
1, 47041, Pitch_bend_c, 11, 9344
1, 47041, Pitch_bend_c, 12, 9344
1, 47050, Pitch_bend_c, 11, 9216
1, 47050, Pitch_bend_c, 12, 9216
1, 47059, Note_on_c, 9, 36, 0
1, 47061, Note_on_c, 9, 42, 0
1, 47085, Control_c, 12, 11, 69
1, 47088, Pitch_bend_c, 11, 9216
1, 47088, Pitch_bend_c, 12, 9216
1, 47096, Control_c, 12, 11, 68
1, 47101, Pitch_bend_c, 11, 8832
1, 47101, Pitch_bend_c, 12, 8832
1, 47106, Pitch_bend_c, 11, 8704
1, 47106, Pitch_bend_c, 12, 8704
1, 47116, Pitch_bend_c, 11, 8320
1, 47116, Pitch_bend_c, 12, 8320
1, 47125, Pitch_bend_c, 11, 8320
1, 47125, Pitch_bend_c, 12, 8320
1, 47138, Control_c, 12, 11, 66
1, 47163, Control_c, 12, 11, 65
1, 47181, Note_on_c, 1, 26, 0
1, 47182, Pitch_bend_c, 11, 7936
1, 47182, Pitch_bend_c, 12, 7936
1, 47200, Pitch_bend_c, 11, 7808
1, 47200, Pitch_bend_c, 12, 7808
1, 47217, Control_c, 12, 11, 63
1, 47223, Pitch_bend_c, 11, 7936
1, 47223, Pitch_bend_c, 12, 7936
1, 47242, Pitch_bend_c, 11, 8192
1, 47242, Pitch_bend_c, 12, 8192
1, 47255, Control_c, 12, 11, 60
1, 47279, Note_on_c, 1, 26, 112
1, 47280, Note_on_c, 9, 42, 97
1, 47280, Control_c, 12, 11, 60
1, 47289, Pitch_bend_c, 11, 8576
1, 47289, Pitch_bend_c, 12, 8576
1, 47298, Pitch_bend_c, 11, 8832
1, 47298, Pitch_bend_c, 12, 8832
1, 47300, Note_on_c, 9, 42, 0
1, 47307, Pitch_bend_c, 11, 8960
1, 47307, Pitch_bend_c, 12, 8960
1, 47308, Control_c, 12, 11, 59
1, 47340, Pitch_bend_c, 11, 9216
1, 47340, Pitch_bend_c, 12, 9216
1, 47360, Control_c, 12, 11, 56
1, 47373, Pitch_bend_c, 11, 9088
1, 47373, Pitch_bend_c, 12, 9088
1, 47387, Pitch_bend_c, 11, 8832
1, 47387, Pitch_bend_c, 12, 8832
1, 47396, Pitch_bend_c, 11, 8448
1, 47396, Pitch_bend_c, 12, 8448
1, 47401, Pitch_bend_c, 11, 8192
1, 47401, Pitch_bend_c, 12, 8192
1, 47410, Pitch_bend_c, 11, 8320
1, 47410, Pitch_bend_c, 12, 8320
1, 47414, Control_c, 12, 11, 55
1, 47419, Note_on_c, 1, 26, 0
1, 47453, Control_c, 12, 11, 55
1, 47462, Pitch_bend_c, 11, 7936
1, 47462, Pitch_bend_c, 12, 7936
1, 47476, Pitch_bend_c, 11, 7808
1, 47476, Pitch_bend_c, 12, 7808
1, 47505, Control_c, 12, 11, 52
1, 47519, Note_on_c, 9, 42, 126
1, 47521, Note_on_c, 1, 26, 113
1, 47522, Note_on_c, 9, 40, 126
1, 47532, Pitch_bend_c, 11, 8320
1, 47532, Pitch_bend_c, 12, 8320
1, 47539, Note_on_c, 9, 42, 0
1, 47542, Note_on_c, 9, 40, 0
1, 47558, Control_c, 12, 11, 51
1, 47562, System_exclusive, 31, 0, 32, 36, 0, 4, 65, 78, 68, 32, 73, 32, 87, 79, 78, 68, 69, 82, 32, 73, 70, 32, 89, 79, 85, 32, 75, 78, 79, 87, 10, 247
1, 47567, System_exclusive, 26, 0, 32, 36, 0, 5, 72, 79, 87, 32, 73, 84, 32, 82, 69, 65, 76, 76, 89, 32, 70, 69, 69, 76, 83, 10, 247
1, 47572, System_exclusive, 31, 0, 32, 36, 0, 6, 84, 79, 32, 66, 69, 32, 76, 69, 70, 84, 32, 79, 85, 84, 83, 73, 68, 69, 32, 65, 76, 79, 78, 69, 10, 247
1, 47574, Pitch_bend_c, 11, 8448
1, 47574, Pitch_bend_c, 12, 8448
1, 47577, System_exclusive, 30, 0, 32, 36, 0, 7, 87, 72, 69, 78, 32, 73, 84, 39, 83, 32, 67, 79, 76, 68, 32, 79, 85, 84, 32, 72, 69, 82, 69, 10, 247
1, 47583, Control_c, 12, 11, 48
1, 47583, Pitch_bend_c, 11, 8832
1, 47583, Pitch_bend_c, 12, 8832
1, 47587, System_exclusive, 6, 0, 32, 36, 0, 8, 247
1, 47597, Pitch_bend_c, 11, 8960
1, 47597, Pitch_bend_c, 12, 8960
1, 47606, Pitch_bend_c, 11, 9216
1, 47606, Pitch_bend_c, 12, 9216
1, 47615, Pitch_bend_c, 11, 9600
1, 47615, Pitch_bend_c, 12, 9600
1, 47658, Pitch_bend_c, 11, 9344
1, 47658, Pitch_bend_c, 12, 9344
1, 47661, Note_on_c, 1, 26, 0
1, 47663, Control_c, 12, 11, 48
1, 47667, Pitch_bend_c, 11, 8960
1, 47667, Pitch_bend_c, 12, 8960
1, 47677, Pitch_bend_c, 11, 8704
1, 47677, Pitch_bend_c, 12, 8704
1, 47681, Pitch_bend_c, 11, 8576
1, 47681, Pitch_bend_c, 12, 8576
1, 47685, Pitch_bend_c, 11, 8576
1, 47685, Pitch_bend_c, 12, 8576
1, 47695, Pitch_bend_c, 11, 8192
1, 47695, Pitch_bend_c, 12, 8192
1, 47702, Control_c, 12, 11, 47
1, 47742, Pitch_bend_c, 11, 7936
1, 47742, Pitch_bend_c, 12, 7936
1, 47759, Note_on_c, 1, 26, 119
1, 47761, Note_on_c, 9, 42, 95
1, 47761, Pitch_bend_c, 11, 7808
1, 47761, Pitch_bend_c, 12, 7808
1, 47770, Pitch_bend_c, 11, 7424
1, 47770, Pitch_bend_c, 12, 7424
1, 47781, Note_on_c, 9, 42, 0
1, 47812, Pitch_bend_c, 11, 7808
1, 47812, Pitch_bend_c, 12, 7808
1, 47826, Pitch_bend_c, 11, 8064
1, 47826, Pitch_bend_c, 12, 8064
1, 47831, Pitch_bend_c, 11, 8192
1, 47831, Pitch_bend_c, 12, 8192
1, 47859, Note_on_c, 1, 26, 0
1, 47873, Pitch_bend_c, 11, 8320
1, 47873, Pitch_bend_c, 12, 8320
1, 47881, Note_on_c, 1, 26, 112
1, 47882, Pitch_bend_c, 11, 8704
1, 47882, Pitch_bend_c, 12, 8704
1, 47891, Pitch_bend_c, 11, 8704
1, 47891, Pitch_bend_c, 12, 8704
1, 47926, Control_c, 12, 11, 49
1, 47939, Control_c, 12, 11, 54
1, 47951, Control_c, 12, 11, 62
1, 47952, Pitch_bend_c, 11, 8832
1, 47952, Pitch_bend_c, 12, 8832
1, 47961, Pitch_bend_c, 11, 8576
1, 47961, Pitch_bend_c, 12, 8576
1, 47964, Control_c, 12, 11, 75
1, 47976, Pitch_bend_c, 11, 8192
1, 47976, Pitch_bend_c, 12, 8192
1, 47977, Control_c, 12, 11, 87
1, 47978, Note_on_c, 12, 65, 0
1, 47980, Note_on_c, 12, 62, 0
1, 47981, Note_on_c, 1, 26, 0
1, 47981, Note_on_c, 11, 62, 0
1, 47983, Note_on_c, 11, 65, 0
1, 47990, Control_c, 12, 11, 100
1, 47990, Pitch_bend_c, 11, 8192
1, 47990, Pitch_bend_c, 12, 8192
1, 48000, Note_on_c, 1, 26, 113
1, 48000, Note_on_c, 9, 42, 126
1, 48000, Note_on_c, 12, 62, 84
1, 48001, Note_on_c, 9, 36, 127
1, 48001, Note_on_c, 11, 62, 84
1, 48005, Control_c, 12, 11, 114
1, 48017, Control_c, 12, 11, 127
1, 48020, Note_on_c, 9, 42, 0
1, 48021, Note_on_c, 9, 36, 0
1, 48140, Note_on_c, 1, 26, 0
1, 48239, Note_on_c, 9, 42, 90
1, 48240, Note_on_c, 11, 65, 84
1, 48242, Note_on_c, 12, 65, 84
1, 48243, Note_on_c, 1, 26, 116
1, 48259, Note_on_c, 9, 42, 0
1, 48343, Note_on_c, 1, 26, 0
1, 48360, Note_on_c, 1, 26, 116
1, 48363, Pitch_bend_c, 11, 8576
1, 48363, Pitch_bend_c, 12, 8576
1, 48372, Control_c, 12, 11, 122
1, 48372, Pitch_bend_c, 11, 8832
1, 48372, Pitch_bend_c, 12, 8832
1, 48382, Pitch_bend_c, 11, 8704
1, 48382, Pitch_bend_c, 12, 8704
1, 48386, Control_c, 12, 11, 121
1, 48386, Pitch_bend_c, 11, 8960
1, 48386, Pitch_bend_c, 12, 8960
1, 48395, Pitch_bend_c, 11, 9344
1, 48395, Pitch_bend_c, 12, 9344
1, 48397, Control_c, 12, 11, 117
1, 48411, Control_c, 12, 11, 114
1, 48424, Control_c, 12, 11, 115
1, 48424, Pitch_bend_c, 11, 8960
1, 48424, Pitch_bend_c, 12, 8960
1, 48437, Control_c, 12, 11, 112
1, 48451, Control_c, 12, 11, 110
1, 48456, Pitch_bend_c, 11, 8832
1, 48456, Pitch_bend_c, 12, 8832
1, 48460, Note_on_c, 1, 26, 0
1, 48461, Pitch_bend_c, 11, 8576
1, 48461, Pitch_bend_c, 12, 8576
1, 48462, Control_c, 12, 11, 109
1, 48466, Pitch_bend_c, 11, 8192
1, 48466, Pitch_bend_c, 12, 8192
1, 48478, Note_on_c, 9, 42, 127
1, 48479, Pitch_bend_c, 11, 8320
1, 48479, Pitch_bend_c, 12, 8320
1, 48480, Note_on_c, 9, 40, 126
1, 48482, Note_on_c, 1, 26, 117
1, 48489, Control_c, 12, 11, 107
1, 48498, Note_on_c, 9, 42, 0
1, 48500, Note_on_c, 9, 40, 0
1, 48517, Control_c, 12, 11, 104
1, 48536, Pitch_bend_c, 11, 7936
1, 48536, Pitch_bend_c, 12, 7936
1, 48542, Control_c, 12, 11, 102
1, 48545, Pitch_bend_c, 11, 7680
1, 48545, Pitch_bend_c, 12, 7680
1, 48555, Control_c, 12, 11, 101
1, 48569, Control_c, 12, 11, 99
1, 48573, Pitch_bend_c, 11, 7552
1, 48573, Pitch_bend_c, 12, 7552
1, 48581, Control_c, 12, 11, 96
1, 48582, Note_on_c, 1, 26, 0
1, 48582, Pitch_bend_c, 11, 7552
1, 48582, Pitch_bend_c, 12, 7552
1, 48594, Control_c, 12, 11, 94
1, 48601, Pitch_bend_c, 11, 7424
1, 48601, Pitch_bend_c, 12, 7424
1, 48608, Control_c, 12, 11, 93
1, 48610, Pitch_bend_c, 11, 7680
1, 48610, Pitch_bend_c, 12, 7680
1, 48620, Control_c, 12, 11, 90
1, 48620, Pitch_bend_c, 11, 8320
1, 48620, Pitch_bend_c, 12, 8320
1, 48635, Control_c, 12, 11, 91
1, 48660, Control_c, 12, 11, 89
1, 48667, Pitch_bend_c, 11, 8576
1, 48667, Pitch_bend_c, 12, 8576
1, 48671, Pitch_bend_c, 11, 8448
1, 48671, Pitch_bend_c, 12, 8448
1, 48686, Control_c, 12, 11, 86
1, 48709, Pitch_bend_c, 11, 8704
1, 48709, Pitch_bend_c, 12, 8704
1, 48714, Control_c, 12, 11, 85
1, 48718, Pitch_bend_c, 11, 9088
1, 48718, Pitch_bend_c, 12, 9088
1, 48720, Note_on_c, 3, 76, 104
1, 48720, Note_on_c, 9, 42, 95
1, 48721, Note_on_c, 1, 36, 117
1, 48739, Control_c, 12, 11, 82
1, 48740, Note_on_c, 9, 42, 0
1, 48746, Pitch_bend_c, 11, 8704
1, 48746, Pitch_bend_c, 12, 8704
1, 48755, Pitch_bend_c, 11, 8576
1, 48755, Pitch_bend_c, 12, 8576
1, 48760, Pitch_bend_c, 11, 8320
1, 48760, Pitch_bend_c, 12, 8320
1, 48764, Pitch_bend_c, 11, 8192
1, 48764, Pitch_bend_c, 12, 8192
1, 48766, Control_c, 12, 11, 80
1, 48791, Control_c, 12, 11, 79
1, 48802, Pitch_bend_c, 11, 8064
1, 48802, Pitch_bend_c, 12, 8064
1, 48804, Control_c, 12, 11, 77
1, 48811, Pitch_bend_c, 11, 7680
1, 48811, Pitch_bend_c, 12, 7680
1, 48820, Note_on_c, 3, 76, 0
1, 48821, Note_on_c, 1, 36, 0
1, 48830, Pitch_bend_c, 11, 7680
1, 48830, Pitch_bend_c, 12, 7680
1, 48832, Control_c, 12, 11, 74
1, 48839, Pitch_bend_c, 11, 7552
1, 48839, Pitch_bend_c, 12, 7552
1, 48840, Note_on_c, 1, 38, 116
1, 48840, Note_on_c, 3, 76, 104
1, 48849, Pitch_bend_c, 11, 7296
1, 48849, Pitch_bend_c, 12, 7296
1, 48858, Pitch_bend_c, 11, 7424
1, 48858, Pitch_bend_c, 12, 7424
1, 48867, Pitch_bend_c, 11, 7680
1, 48867, Pitch_bend_c, 12, 7680
1, 48877, Pitch_bend_c, 11, 8064
1, 48877, Pitch_bend_c, 12, 8064
1, 48884, Control_c, 12, 11, 74
1, 48886, Pitch_bend_c, 11, 8320
1, 48886, Pitch_bend_c, 12, 8320
1, 48919, Pitch_bend_c, 11, 8448
1, 48919, Pitch_bend_c, 12, 8448
1, 48922, Control_c, 12, 11, 73
1, 48928, Pitch_bend_c, 11, 8704
1, 48928, Pitch_bend_c, 12, 8704
1, 48938, Pitch_bend_c, 11, 9088
1, 48938, Pitch_bend_c, 12, 9088
1, 48940, Note_on_c, 1, 38, 0
1, 48940, Note_on_c, 3, 76, 0
1, 48950, Control_c, 12, 11, 71
1, 48960, Note_on_c, 3, 76, 105
1, 48961, Note_on_c, 1, 33, 116
1, 48961, Pitch_bend_c, 11, 9216
1, 48961, Pitch_bend_c, 12, 9216
1, 48962, Note_on_c, 9, 42, 126
1, 48963, Note_on_c, 9, 36, 126
1, 48970, Pitch_bend_c, 11, 9344
1, 48970, Pitch_bend_c, 12, 9344
1, 48975, Control_c, 12, 11, 68
1, 48982, Note_on_c, 9, 42, 0
1, 48983, Note_on_c, 9, 36, 0
1, 49008, Pitch_bend_c, 11, 9344
1, 49008, Pitch_bend_c, 12, 9344
1, 49021, Pitch_bend_c, 11, 8704
1, 49021, Pitch_bend_c, 12, 8704
1, 49026, Pitch_bend_c, 11, 8832
1, 49026, Pitch_bend_c, 12, 8832
1, 49029, Control_c, 12, 11, 68
1, 49036, Pitch_bend_c, 11, 8192
1, 49036, Pitch_bend_c, 12, 8192
1, 49045, Pitch_bend_c, 11, 8192
1, 49045, Pitch_bend_c, 12, 8192
1, 49060, Note_on_c, 3, 76, 0
1, 49061, Note_on_c, 1, 33, 0
1, 49080, Note_on_c, 3, 76, 105
1, 49082, Note_on_c, 1, 36, 115
1, 49083, Note_on_c, 9, 40, 127
1, 49095, Control_c, 12, 11, 67
1, 49102, Pitch_bend_c, 11, 8064
1, 49102, Pitch_bend_c, 12, 8064
1, 49103, Note_on_c, 9, 40, 0
1, 49120, Control_c, 12, 11, 64
1, 49120, Pitch_bend_c, 11, 7808
1, 49120, Pitch_bend_c, 12, 7808
1, 49143, Pitch_bend_c, 11, 7936
1, 49143, Pitch_bend_c, 12, 7936
1, 49160, Control_c, 12, 11, 63
1, 49162, Pitch_bend_c, 11, 8192
1, 49162, Pitch_bend_c, 12, 8192
1, 49180, Note_on_c, 3, 76, 0
1, 49182, Note_on_c, 1, 36, 0
1, 49186, Control_c, 12, 11, 61
1, 49199, Note_on_c, 9, 42, 96
1, 49200, Note_on_c, 3, 76, 104
1, 49200, Note_on_c, 9, 36, 126
1, 49201, Note_on_c, 1, 26, 119
1, 49209, Pitch_bend_c, 11, 8576
1, 49209, Pitch_bend_c, 12, 8576
1, 49212, Control_c, 12, 11, 60
1, 49218, Pitch_bend_c, 11, 8832
1, 49218, Pitch_bend_c, 12, 8832
1, 49219, Note_on_c, 9, 42, 0
1, 49220, Note_on_c, 9, 36, 0
1, 49227, Pitch_bend_c, 11, 8960
1, 49227, Pitch_bend_c, 12, 8960
1, 49251, Control_c, 12, 11, 59
1, 49260, Pitch_bend_c, 11, 9216
1, 49260, Pitch_bend_c, 12, 9216
1, 49293, Pitch_bend_c, 11, 9088
1, 49293, Pitch_bend_c, 12, 9088
1, 49305, Control_c, 12, 11, 56
1, 49307, Pitch_bend_c, 11, 8704
1, 49307, Pitch_bend_c, 12, 8704
1, 49316, Pitch_bend_c, 11, 8576
1, 49316, Pitch_bend_c, 12, 8576
1, 49321, Pitch_bend_c, 11, 8320
1, 49321, Pitch_bend_c, 12, 8320
1, 49330, Pitch_bend_c, 11, 8192
1, 49330, Pitch_bend_c, 12, 8192
1, 49341, Note_on_c, 1, 26, 0
1, 49344, Control_c, 12, 11, 54
1, 49382, Pitch_bend_c, 11, 8064
1, 49382, Pitch_bend_c, 12, 8064
1, 49396, Control_c, 12, 11, 55
1, 49396, Pitch_bend_c, 11, 7680
1, 49396, Pitch_bend_c, 12, 7680
1, 49420, Note_on_c, 3, 76, 0
1, 49439, Note_on_c, 9, 40, 126
1, 49440, Note_on_c, 3, 76, 104
1, 49441, Note_on_c, 9, 57, 80
1, 49442, Note_on_c, 1, 26, 116
1, 49448, Control_c, 12, 11, 53
1, 49452, Pitch_bend_c, 11, 8192
1, 49452, Pitch_bend_c, 12, 8192
1, 49459, Note_on_c, 9, 40, 0
1, 49461, Note_on_c, 9, 57, 0
1, 49494, Pitch_bend_c, 11, 8576
1, 49494, Pitch_bend_c, 12, 8576
1, 49503, Pitch_bend_c, 11, 8832
1, 49503, Pitch_bend_c, 12, 8832
1, 49515, Control_c, 12, 11, 50
1, 49517, Pitch_bend_c, 11, 8960
1, 49517, Pitch_bend_c, 12, 8960
1, 49526, Pitch_bend_c, 11, 9216
1, 49526, Pitch_bend_c, 12, 9216
1, 49535, Pitch_bend_c, 11, 9600
1, 49535, Pitch_bend_c, 12, 9600
1, 49578, Pitch_bend_c, 11, 9344
1, 49578, Pitch_bend_c, 12, 9344
1, 49581, Control_c, 12, 11, 48
1, 49582, Note_on_c, 1, 26, 0
1, 49587, Pitch_bend_c, 11, 8960
1, 49587, Pitch_bend_c, 12, 8960
1, 49597, Pitch_bend_c, 11, 8704
1, 49597, Pitch_bend_c, 12, 8704
1, 49601, Pitch_bend_c, 11, 8576
1, 49601, Pitch_bend_c, 12, 8576
1, 49605, Pitch_bend_c, 11, 8448
1, 49605, Pitch_bend_c, 12, 8448
1, 49615, Pitch_bend_c, 11, 8320
1, 49615, Pitch_bend_c, 12, 8320
1, 49632, Control_c, 12, 11, 47
1, 49660, Note_on_c, 3, 76, 0
1, 49662, Pitch_bend_c, 11, 8064
1, 49662, Pitch_bend_c, 12, 8064
1, 49680, Note_on_c, 1, 26, 116
1, 49680, Note_on_c, 3, 77, 105
1, 49681, Pitch_bend_c, 11, 7680
1, 49681, Pitch_bend_c, 12, 7680
1, 49690, Pitch_bend_c, 11, 7552
1, 49690, Pitch_bend_c, 12, 7552
1, 49732, Pitch_bend_c, 11, 7680
1, 49732, Pitch_bend_c, 12, 7680
1, 49738, Control_c, 12, 11, 47
1, 49746, Pitch_bend_c, 11, 7936
1, 49746, Pitch_bend_c, 12, 7936
1, 49751, Pitch_bend_c, 11, 8320
1, 49751, Pitch_bend_c, 12, 8320
1, 49793, Pitch_bend_c, 11, 8320
1, 49793, Pitch_bend_c, 12, 8320
1, 49802, Pitch_bend_c, 11, 8704
1, 49802, Pitch_bend_c, 12, 8704
1, 49811, Pitch_bend_c, 11, 8704
1, 49811, Pitch_bend_c, 12, 8704
1, 49820, Note_on_c, 1, 26, 0
1, 49872, Pitch_bend_c, 11, 8832
1, 49872, Pitch_bend_c, 12, 8832
1, 49881, Pitch_bend_c, 11, 8576
1, 49881, Pitch_bend_c, 12, 8576
1, 49896, Pitch_bend_c, 11, 8192
1, 49896, Pitch_bend_c, 12, 8192
1, 49900, Program_c, 13, 29
1, 49900, Note_on_c, 3, 77, 0
1, 49900, Note_on_c, 11, 65, 0
1, 49900, Note_on_c, 12, 62, 0
1, 49900, Control_c, 13, 10, 112
1, 49901, Note_on_c, 11, 62, 0
1, 49902, Note_on_c, 12, 65, 0
1, 49905, Program_c, 11, 29
1, 49905, Control_c, 11, 10, 16
1, 49905, Control_c, 13, 91, 127
1, 49905, Pitch_bend_c, 13, 7942
1, 49910, Control_c, 11, 91, 127
1, 49910, Pitch_bend_c, 11, 8192
1, 49910, Pitch_bend_c, 11, 8442
1, 49910, Pitch_bend_c, 12, 8192
1, 49911, Note_on_c, 14, 46, 99
1, 49913, Note_on_c, 14, 53, 98
1, 49918, Note_on_c, 7, 62, 61
1, 49920, Note_on_c, 1, 34, 113
1, 49920, Note_on_c, 3, 74, 104
1, 49920, Note_on_c, 6, 69, 61
1, 49920, Note_on_c, 8, 34, 61
1, 49922, Note_on_c, 8, 46, 60
1, 49922, Note_on_c, 8, 53, 61
1, 49922, Note_on_c, 9, 36, 127
1, 49922, Control_c, 12, 11, 46
1, 49923, Note_on_c, 9, 49, 71
1, 49930, Note_on_c, 15, 46, 99
1, 49930, System_exclusive, 6, 0, 32, 36, 0, 8, 247
1, 49932, Note_on_c, 15, 53, 98
1, 49934, Control_c, 12, 11, 54
1, 49942, Note_on_c, 9, 36, 0
1, 49943, Note_on_c, 9, 49, 0
1, 49946, Control_c, 12, 11, 69
1, 49961, Control_c, 12, 11, 88
1, 49973, Control_c, 12, 11, 113
1, 49986, Control_c, 12, 11, 127
1, 50060, Note_on_c, 1, 34, 0
1, 50131, Note_on_c, 14, 46, 0
1, 50133, Note_on_c, 14, 53, 0
1, 50149, Note_on_c, 11, 62, 63
1, 50150, Note_on_c, 15, 46, 0
1, 50151, Note_on_c, 14, 46, 99
1, 50151, Note_on_c, 14, 53, 99
1, 50152, Note_on_c, 15, 53, 0
1, 50162, Note_on_c, 1, 34, 114
1, 50162, Note_on_c, 9, 42, 91
1, 50169, Note_on_c, 13, 62, 62
1, 50171, Note_on_c, 15, 46, 99
1, 50173, Note_on_c, 15, 53, 99
1, 50182, Note_on_c, 9, 42, 0
1, 50260, Note_on_c, 3, 74, 0
1, 50262, Note_on_c, 1, 34, 0
1, 50281, Note_on_c, 1, 34, 113
1, 50381, Note_on_c, 1, 34, 0
1, 50388, Note_on_c, 11, 69, 62
1, 50399, Note_on_c, 1, 34, 113
1, 50402, Note_on_c, 9, 40, 127
1, 50403, Note_on_c, 9, 42, 127
1, 50409, Note_on_c, 13, 69, 63
1, 50422, Note_on_c, 9, 40, 0
1, 50423, Note_on_c, 9, 42, 0
1, 50499, Note_on_c, 1, 34, 0
1, 50611, Note_on_c, 14, 46, 0
1, 50611, Note_on_c, 14, 53, 0
1, 50629, Note_on_c, 14, 53, 98
1, 50631, Note_on_c, 15, 46, 0
1, 50632, Note_on_c, 14, 46, 99
1, 50633, Note_on_c, 15, 53, 0
1, 50639, Note_on_c, 1, 34, 110
1, 50639, Note_on_c, 9, 42, 94
1, 50640, Note_on_c, 3, 77, 105
1, 50651, Note_on_c, 15, 46, 98
1, 50652, Note_on_c, 15, 53, 99
1, 50659, Note_on_c, 9, 42, 0
1, 50729, Note_on_c, 14, 53, 0
1, 50732, Note_on_c, 14, 46, 0
1, 50739, Note_on_c, 1, 34, 0
1, 50740, Note_on_c, 3, 77, 0
1, 50749, Note_on_c, 14, 53, 98
1, 50751, Note_on_c, 15, 46, 0
1, 50752, Note_on_c, 15, 53, 0
1, 50752, Note_on_c, 14, 46, 98
1, 50760, Note_on_c, 1, 34, 113
1, 50760, Note_on_c, 3, 77, 105
1, 50769, Note_on_c, 15, 46, 98
1, 50773, Note_on_c, 15, 53, 98
1, 50848, Note_on_c, 11, 69, 0
1, 50849, Note_on_c, 14, 53, 0
1, 50852, Note_on_c, 14, 46, 0
1, 50860, Note_on_c, 1, 34, 0
1, 50860, Note_on_c, 3, 77, 0
1, 50860, Note_on_c, 6, 69, 0
1, 50868, Note_on_c, 14, 46, 99
1, 50868, Note_on_c, 14, 53, 99
1, 50869, Note_on_c, 13, 69, 0
1, 50869, Note_on_c, 15, 46, 0
1, 50872, Note_on_c, 11, 67, 63
1, 50873, Note_on_c, 15, 53, 0
1, 50879, Note_on_c, 9, 42, 126
1, 50880, Note_on_c, 3, 76, 104
1, 50881, Note_on_c, 9, 36, 127
1, 50882, Note_on_c, 1, 34, 118
1, 50882, Note_on_c, 6, 67, 60
1, 50888, Note_on_c, 15, 53, 99
1, 50891, Note_on_c, 15, 46, 99
1, 50893, Note_on_c, 13, 67, 63
1, 50899, Note_on_c, 9, 42, 0
1, 50901, Note_on_c, 9, 36, 0
1, 51022, Note_on_c, 1, 34, 0
1, 51088, Note_on_c, 14, 46, 0
1, 51088, Note_on_c, 14, 53, 0
1, 51092, Note_on_c, 11, 67, 0
1, 51100, Note_on_c, 3, 76, 0
1, 51102, Note_on_c, 6, 67, 0
1, 51108, Note_on_c, 15, 53, 0
1, 51109, Note_on_c, 11, 72, 63
1, 51110, Note_on_c, 14, 46, 98
1, 51111, Note_on_c, 15, 46, 0
1, 51111, Note_on_c, 11, 69, 62
1, 51113, Note_on_c, 13, 67, 0
1, 51113, Note_on_c, 14, 53, 98
1, 51120, Note_on_c, 3, 79, 105
1, 51120, Note_on_c, 6, 69, 60
1, 51122, Note_on_c, 1, 34, 118
1, 51122, Note_on_c, 6, 72, 61
1, 51122, Note_on_c, 9, 42, 97
1, 51128, Note_on_c, 15, 46, 98
1, 51130, Note_on_c, 13, 72, 62
1, 51132, Note_on_c, 15, 53, 98
1, 51133, Note_on_c, 13, 69, 62
1, 51142, Note_on_c, 9, 42, 0
1, 51262, Note_on_c, 1, 34, 0
1, 51330, Note_on_c, 14, 46, 0
1, 51333, Note_on_c, 14, 53, 0
1, 51340, Note_on_c, 3, 79, 0
1, 51348, Note_on_c, 15, 46, 0
1, 51348, Note_on_c, 14, 46, 99
1, 51351, Note_on_c, 14, 53, 99
1, 51352, Note_on_c, 15, 53, 0
1, 51359, Note_on_c, 9, 42, 126
1, 51360, Note_on_c, 3, 77, 104
1, 51361, Note_on_c, 9, 40, 127
1, 51362, Note_on_c, 1, 34, 117
1, 51372, Note_on_c, 15, 46, 99
1, 51372, Note_on_c, 15, 53, 99
1, 51379, Note_on_c, 9, 42, 0
1, 51381, Note_on_c, 9, 40, 0
1, 51502, Note_on_c, 1, 34, 0
1, 51568, Note_on_c, 14, 46, 0
1, 51571, Note_on_c, 14, 53, 0
1, 51592, Note_on_c, 15, 46, 0
1, 51592, Note_on_c, 15, 53, 0
1, 51592, Note_on_c, 14, 46, 98
1, 51593, Note_on_c, 14, 53, 98
1, 51599, Note_on_c, 1, 34, 119
1, 51599, Note_on_c, 9, 42, 95
1, 51611, Note_on_c, 15, 53, 98
1, 51613, Note_on_c, 15, 46, 98
1, 51619, Note_on_c, 9, 42, 0
1, 51670, System_exclusive, 6, 0, 32, 36, 0, 8, 247
1, 51699, Note_on_c, 1, 34, 0
1, 51719, Note_on_c, 1, 34, 114
1, 51809, Note_on_c, 11, 62, 0
1, 51809, Note_on_c, 11, 72, 0
1, 51811, Note_on_c, 11, 69, 0
1, 51812, Note_on_c, 14, 46, 0
1, 51813, Note_on_c, 14, 53, 0
1, 51819, Note_on_c, 1, 34, 0
1, 51820, Note_on_c, 3, 77, 0
1, 51820, Note_on_c, 8, 34, 0
1, 51822, Note_on_c, 6, 72, 0
1, 51822, Note_on_c, 8, 46, 0
1, 51822, Note_on_c, 8, 53, 0
1, 51828, Note_on_c, 14, 48, 99
1, 51829, Note_on_c, 13, 62, 0
1, 51829, Note_on_c, 14, 55, 98
1, 51830, Note_on_c, 13, 72, 0
1, 51831, Note_on_c, 15, 53, 0
1, 51833, Note_on_c, 13, 69, 0
1, 51833, Note_on_c, 15, 46, 0
1, 51838, Note_on_c, 9, 36, 126
1, 51839, Note_on_c, 1, 36, 112
1, 51839, Note_on_c, 8, 36, 61
1, 51839, Note_on_c, 8, 48, 60
1, 51839, Note_on_c, 8, 55, 61
1, 51842, Note_on_c, 9, 42, 127
1, 51851, Note_on_c, 15, 48, 99
1, 51853, Note_on_c, 15, 55, 98
1, 51858, Note_on_c, 9, 36, 0
1, 51862, Note_on_c, 9, 42, 0
1, 51979, Note_on_c, 1, 36, 0
1, 52048, Note_on_c, 14, 48, 0
1, 52049, Note_on_c, 14, 55, 0
1, 52071, Note_on_c, 15, 48, 0
1, 52071, Note_on_c, 11, 62, 63
1, 52072, Note_on_c, 14, 55, 99
1, 52073, Note_on_c, 15, 55, 0
1, 52073, Note_on_c, 14, 48, 99
1, 52082, Note_on_c, 1, 36, 115
1, 52082, Note_on_c, 9, 42, 90
1, 52091, Note_on_c, 15, 48, 99
1, 52093, Note_on_c, 13, 62, 63
1, 52093, Note_on_c, 15, 55, 99
1, 52102, Note_on_c, 9, 42, 0
1, 52182, Note_on_c, 1, 36, 0
1, 52198, Note_on_c, 1, 36, 115
1, 52298, Note_on_c, 1, 36, 0
1, 52312, Note_on_c, 11, 69, 62
1, 52318, Note_on_c, 9, 40, 126
1, 52321, Note_on_c, 1, 36, 114
1, 52323, Note_on_c, 9, 42, 127
1, 52333, Note_on_c, 13, 69, 62
1, 52338, Note_on_c, 9, 40, 0
1, 52343, Note_on_c, 9, 42, 0
1, 52421, Note_on_c, 1, 36, 0
1, 52532, Note_on_c, 14, 55, 0
1, 52533, Note_on_c, 14, 48, 0
1, 52549, Note_on_c, 14, 55, 98
1, 52551, Note_on_c, 15, 48, 0
1, 52552, Note_on_c, 14, 48, 99
1, 52553, Note_on_c, 15, 55, 0
1, 52560, Note_on_c, 3, 77, 104
1, 52562, Note_on_c, 1, 36, 110
1, 52563, Note_on_c, 9, 42, 94
1, 52571, Note_on_c, 15, 48, 98
1, 52572, Note_on_c, 15, 55, 99
1, 52583, Note_on_c, 9, 42, 0
1, 52649, Note_on_c, 14, 55, 0
1, 52652, Note_on_c, 14, 48, 0
1, 52660, Note_on_c, 3, 77, 0
1, 52662, Note_on_c, 1, 36, 0
1, 52668, Note_on_c, 14, 55, 98
1, 52671, Note_on_c, 15, 48, 0
1, 52671, Note_on_c, 14, 48, 98
1, 52672, Note_on_c, 15, 55, 0
1, 52680, Note_on_c, 3, 77, 105
1, 52682, Note_on_c, 1, 36, 119
1, 52691, Note_on_c, 15, 55, 98
1, 52692, Note_on_c, 15, 48, 98
1, 52768, Note_on_c, 14, 55, 0
1, 52771, Note_on_c, 14, 48, 0
1, 52772, Note_on_c, 11, 69, 0
1, 52780, Note_on_c, 3, 77, 0
1, 52780, Note_on_c, 6, 69, 0
1, 52782, Note_on_c, 1, 36, 0
1, 52789, Note_on_c, 14, 55, 99
1, 52790, Note_on_c, 11, 67, 62
1, 52791, Note_on_c, 15, 55, 0
1, 52792, Note_on_c, 15, 48, 0
1, 52792, Note_on_c, 14, 48, 99
1, 52793, Note_on_c, 13, 69, 0
1, 52798, Note_on_c, 9, 42, 126
1, 52799, Note_on_c, 9, 36, 126
1, 52800, Note_on_c, 1, 36, 116
1, 52800, Note_on_c, 3, 76, 105
1, 52802, Note_on_c, 6, 67, 61
1, 52809, Note_on_c, 15, 55, 99
1, 52810, Note_on_c, 13, 67, 63
1, 52811, Note_on_c, 15, 48, 99
1, 52818, Note_on_c, 9, 42, 0
1, 52819, Note_on_c, 9, 36, 0
1, 52940, Note_on_c, 1, 36, 0
1, 53009, Note_on_c, 14, 55, 0
1, 53010, Note_on_c, 11, 67, 0
1, 53012, Note_on_c, 14, 48, 0
1, 53020, Note_on_c, 3, 76, 0
1, 53022, Note_on_c, 6, 67, 0
1, 53029, Note_on_c, 15, 55, 0
1, 53029, Note_on_c, 11, 69, 63
1, 53030, Note_on_c, 13, 67, 0
1, 53030, Note_on_c, 14, 55, 98
1, 53031, Note_on_c, 15, 48, 0
1, 53031, Note_on_c, 11, 72, 63
1, 53032, Note_on_c, 14, 48, 98
1, 53040, Note_on_c, 3, 76, 104
1, 53041, Note_on_c, 6, 72, 60
1, 53042, Note_on_c, 1, 36, 117
1, 53042, Note_on_c, 6, 69, 60
1, 53042, Note_on_c, 9, 36, 127
1, 53042, Note_on_c, 9, 42, 97
1, 53048, Note_on_c, 15, 55, 98
1, 53050, Note_on_c, 13, 72, 63
1, 53050, Note_on_c, 15, 48, 98
1, 53051, Note_on_c, 13, 69, 62
1, 53062, Note_on_c, 9, 36, 0
1, 53062, Note_on_c, 9, 42, 0
1, 53182, Note_on_c, 1, 36, 0
1, 53260, Note_on_c, 3, 76, 0
1, 53278, Note_on_c, 1, 36, 113
1, 53280, Note_on_c, 3, 76, 104
1, 53282, Note_on_c, 9, 40, 127
1, 53283, Note_on_c, 9, 42, 127
1, 53302, Note_on_c, 9, 40, 0
1, 53303, Note_on_c, 9, 42, 0
1, 53418, Note_on_c, 1, 36, 0
1, 53490, Note_on_c, 14, 55, 0
1, 53492, Note_on_c, 14, 48, 0
1, 53500, Note_on_c, 3, 76, 0
1, 53508, Note_on_c, 15, 55, 0
1, 53510, Note_on_c, 15, 48, 0
1, 53511, Note_on_c, 14, 55, 99
1, 53512, Note_on_c, 14, 48, 99
1, 53520, Note_on_c, 1, 36, 112
1, 53520, Note_on_c, 3, 76, 105
1, 53520, Note_on_c, 9, 42, 94
1, 53531, Note_on_c, 15, 55, 99
1, 53533, Note_on_c, 15, 48, 99
1, 53540, Note_on_c, 9, 42, 0
1, 53611, Note_on_c, 14, 55, 0
1, 53612, Note_on_c, 14, 48, 0
1, 53620, Note_on_c, 1, 36, 0
1, 53620, Note_on_c, 3, 76, 0
1, 53630, Note_on_c, 14, 55, 98
1, 53631, Note_on_c, 15, 55, 0
1, 53633, Note_on_c, 15, 48, 0
1, 53633, Note_on_c, 14, 48, 98
1, 53640, Note_on_c, 3, 77, 105
1, 53641, Note_on_c, 1, 36, 115
1, 53650, Note_on_c, 15, 48, 98
1, 53652, Note_on_c, 15, 55, 98
1, 53729, Note_on_c, 11, 69, 0
1, 53730, Note_on_c, 14, 55, 0
1, 53731, Note_on_c, 11, 62, 0
1, 53731, Note_on_c, 11, 72, 0
1, 53733, Note_on_c, 14, 48, 0
1, 53739, Note_on_c, 8, 36, 0
1, 53739, Note_on_c, 8, 48, 0
1, 53739, Note_on_c, 8, 55, 0
1, 53741, Note_on_c, 1, 36, 0
1, 53741, Note_on_c, 6, 72, 0
1, 53749, Note_on_c, 14, 50, 99
1, 53750, Note_on_c, 13, 72, 0
1, 53750, Note_on_c, 15, 48, 0
1, 53750, Note_on_c, 14, 57, 98
1, 53751, Note_on_c, 13, 69, 0
1, 53752, Note_on_c, 15, 55, 0
1, 53753, Note_on_c, 13, 62, 0
1, 53759, Note_on_c, 1, 26, 114
1, 53760, Note_on_c, 8, 50, 60
1, 53760, Note_on_c, 9, 36, 127
1, 53760, Note_on_c, 9, 42, 126
1, 53761, Note_on_c, 8, 57, 60
1, 53762, Note_on_c, 8, 38, 61
1, 53769, Note_on_c, 15, 50, 99
1, 53773, Note_on_c, 15, 57, 98
1, 53780, Note_on_c, 9, 36, 0
1, 53780, Note_on_c, 9, 42, 0
1, 53860, Note_on_c, 3, 77, 0
1, 53860, System_exclusive, 6, 0, 32, 36, 0, 8, 247
1, 53880, Note_on_c, 3, 74, 104
1, 53899, Note_on_c, 1, 26, 0
1, 53969, Note_on_c, 14, 50, 0
1, 53970, Note_on_c, 14, 57, 0
1, 53989, Note_on_c, 15, 50, 0
1, 53989, Note_on_c, 11, 62, 62
1, 53989, Note_on_c, 14, 57, 99
1, 53992, Note_on_c, 14, 50, 99
1, 53993, Note_on_c, 15, 57, 0
1, 53999, Note_on_c, 1, 26, 118
1, 54001, Note_on_c, 9, 42, 91
1, 54009, Note_on_c, 15, 50, 99
1, 54009, Note_on_c, 15, 57, 99
1, 54012, Note_on_c, 13, 62, 63
1, 54021, Note_on_c, 9, 42, 0
1, 54099, Note_on_c, 1, 26, 0
1, 54123, Note_on_c, 1, 26, 115
1, 54220, Note_on_c, 3, 74, 0
1, 54223, Note_on_c, 1, 26, 0
1, 54229, Note_on_c, 11, 69, 62
1, 54238, Note_on_c, 1, 26, 113
1, 54239, Note_on_c, 9, 40, 126
1, 54240, Note_on_c, 9, 42, 127
1, 54248, Note_on_c, 13, 69, 62
1, 54259, Note_on_c, 9, 40, 0
1, 54260, Note_on_c, 9, 42, 0
1, 54338, Note_on_c, 1, 26, 0
1, 54449, Note_on_c, 14, 57, 0
1, 54452, Note_on_c, 14, 50, 0
1, 54469, Note_on_c, 15, 50, 0
1, 54469, Note_on_c, 15, 57, 0
1, 54469, Note_on_c, 14, 50, 98
1, 54471, Note_on_c, 14, 57, 99
1, 54480, Note_on_c, 1, 26, 112
1, 54480, Note_on_c, 3, 77, 104
1, 54480, Note_on_c, 9, 42, 94
1, 54489, Note_on_c, 15, 50, 98
1, 54489, Note_on_c, 15, 57, 99
1, 54500, Note_on_c, 9, 42, 0
1, 54569, Note_on_c, 14, 50, 0
1, 54571, Note_on_c, 14, 57, 0
1, 54580, Note_on_c, 1, 26, 0
1, 54580, Note_on_c, 3, 77, 0
1, 54589, Note_on_c, 15, 50, 0
1, 54589, Note_on_c, 15, 57, 0
1, 54591, Note_on_c, 14, 50, 98
1, 54593, Note_on_c, 14, 57, 98
1, 54600, Note_on_c, 1, 26, 114
1, 54600, Note_on_c, 3, 77, 105
1, 54609, Note_on_c, 15, 57, 98
1, 54610, Note_on_c, 15, 50, 98
1, 54689, Note_on_c, 11, 69, 0
1, 54691, Note_on_c, 14, 50, 0
1, 54693, Note_on_c, 14, 57, 0
1, 54700, Note_on_c, 1, 26, 0
1, 54700, Note_on_c, 3, 77, 0
1, 54702, Note_on_c, 6, 69, 0
1, 54708, Note_on_c, 13, 69, 0
1, 54708, Note_on_c, 14, 57, 99
1, 54709, Note_on_c, 15, 57, 0
1, 54710, Note_on_c, 15, 50, 0
1, 54712, Note_on_c, 11, 67, 63
1, 54712, Note_on_c, 14, 50, 99
1, 54718, Note_on_c, 9, 36, 126
1, 54718, Note_on_c, 9, 42, 126
1, 54719, Note_on_c, 6, 67, 61
1, 54720, Note_on_c, 1, 26, 119
1, 54720, Note_on_c, 3, 76, 104
1, 54729, Note_on_c, 13, 67, 62
1, 54730, Note_on_c, 15, 50, 99
1, 54730, Note_on_c, 15, 57, 99
1, 54738, Note_on_c, 9, 36, 0
1, 54738, Note_on_c, 9, 42, 0
1, 54860, Note_on_c, 1, 26, 0
1, 54928, Note_on_c, 14, 57, 0
1, 54932, Note_on_c, 11, 67, 0
1, 54932, Note_on_c, 14, 50, 0
1, 54939, Note_on_c, 6, 67, 0
1, 54940, Note_on_c, 3, 76, 0
1, 54948, Note_on_c, 11, 72, 63
1, 54949, Note_on_c, 13, 67, 0
1, 54949, Note_on_c, 11, 69, 62
1, 54949, Note_on_c, 14, 57, 98
1, 54950, Note_on_c, 15, 50, 0
1, 54950, Note_on_c, 15, 57, 0
1, 54951, Note_on_c, 14, 50, 98
1, 54960, Note_on_c, 3, 79, 105
1, 54961, Note_on_c, 6, 69, 61
1, 54961, Note_on_c, 9, 42, 97
1, 54962, Note_on_c, 1, 26, 119
1, 54963, Note_on_c, 6, 72, 60
1, 54969, Note_on_c, 13, 69, 63
1, 54972, Note_on_c, 13, 72, 63
1, 54972, Note_on_c, 15, 50, 98
1, 54973, Note_on_c, 15, 57, 98
1, 54981, Note_on_c, 9, 42, 0
1, 55102, Note_on_c, 1, 26, 0
1, 55180, Note_on_c, 3, 79, 0
1, 55200, Note_on_c, 3, 77, 105
1, 55200, Note_on_c, 9, 40, 126
1, 55201, Note_on_c, 1, 26, 116
1, 55202, Note_on_c, 9, 42, 126
1, 55220, Note_on_c, 9, 40, 0
1, 55222, Note_on_c, 9, 42, 0
1, 55341, Note_on_c, 1, 26, 0
1, 55409, Note_on_c, 14, 57, 0
1, 55411, Note_on_c, 14, 50, 0
1, 55429, Note_on_c, 14, 50, 99
1, 55431, Note_on_c, 14, 57, 99
1, 55432, Note_on_c, 15, 50, 0
1, 55433, Note_on_c, 15, 57, 0
1, 55439, Note_on_c, 9, 42, 95
1, 55441, Note_on_c, 1, 26, 110
1, 55451, Note_on_c, 15, 50, 99
1, 55452, Note_on_c, 15, 57, 99
1, 55459, Note_on_c, 9, 42, 0
1, 55461, System_exclusive, 33, 0, 32, 36, 0, 4, 87, 69, 76, 76, 32, 77, 65, 89, 66, 69, 32, 89, 79, 85, 32, 83, 72, 79, 85, 76, 68, 32, 75, 78, 79, 87, 10, 247
1, 55466, System_exclusive, 24, 0, 32, 36, 0, 5, 74, 85, 83, 84, 32, 72, 79, 87, 32, 73, 84, 32, 70, 69, 69, 76, 83, 10, 247
1, 55471, System_exclusive, 7, 0, 32, 36, 0, 6, 10, 247
1, 55476, System_exclusive, 7, 0, 32, 36, 0, 7, 10, 247
1, 55486, System_exclusive, 6, 0, 32, 36, 0, 8, 247
1, 55529, Note_on_c, 14, 50, 0
1, 55531, Note_on_c, 14, 57, 0
1, 55541, Note_on_c, 1, 26, 0
1, 55550, Note_on_c, 14, 50, 98
1, 55551, Note_on_c, 15, 50, 0
1, 55551, Note_on_c, 14, 57, 98
1, 55552, Note_on_c, 15, 57, 0
1, 55562, Note_on_c, 1, 26, 111
1, 55569, Note_on_c, 15, 50, 98
1, 55573, Note_on_c, 15, 57, 98
1, 55648, Note_on_c, 11, 72, 0
1, 55649, Note_on_c, 11, 62, 0
1, 55649, Note_on_c, 11, 69, 0
1, 55650, Note_on_c, 14, 50, 0
1, 55651, Note_on_c, 14, 57, 0
1, 55662, Note_on_c, 1, 26, 0
1, 55663, Note_on_c, 6, 72, 0
1, 55669, Note_on_c, 13, 69, 0
1, 55669, Note_on_c, 15, 50, 0
1, 55670, Note_on_c, 14, 50, 99
1, 55671, Note_on_c, 14, 57, 98
1, 55672, Note_on_c, 13, 62, 0
1, 55672, Note_on_c, 13, 72, 0
1, 55673, Note_on_c, 15, 57, 0
1, 55679, Note_on_c, 1, 26, 116
1, 55679, Note_on_c, 9, 42, 127
1, 55682, Note_on_c, 9, 36, 126
1, 55690, Note_on_c, 15, 50, 99
1, 55691, Note_on_c, 15, 57, 98
1, 55699, Note_on_c, 9, 42, 0
1, 55702, Note_on_c, 9, 36, 0
1, 55819, Note_on_c, 1, 26, 0
1, 55890, Note_on_c, 14, 50, 0
1, 55891, Note_on_c, 14, 57, 0
1, 55900, Note_on_c, 3, 77, 0
1, 55909, Note_on_c, 11, 62, 62
1, 55909, Note_on_c, 14, 57, 99
1, 55910, Note_on_c, 15, 50, 0
1, 55911, Note_on_c, 15, 57, 0
1, 55913, Note_on_c, 14, 50, 99
1, 55920, Note_on_c, 9, 42, 90
1, 55921, Note_on_c, 1, 26, 119
1, 55930, Note_on_c, 13, 62, 62
1, 55931, Note_on_c, 15, 50, 99
1, 55931, Note_on_c, 15, 57, 99
1, 55940, Note_on_c, 9, 42, 0
1, 56021, Note_on_c, 1, 26, 0
1, 56039, Note_on_c, 1, 26, 119
1, 56139, Note_on_c, 1, 26, 0
1, 56151, Note_on_c, 11, 69, 63
1, 56159, Note_on_c, 1, 26, 114
1, 56160, Note_on_c, 9, 40, 127
1, 56162, Note_on_c, 9, 42, 127
1, 56172, Note_on_c, 13, 69, 62
1, 56180, Note_on_c, 9, 40, 0
1, 56182, Note_on_c, 9, 42, 0
1, 56259, Note_on_c, 1, 26, 0
1, 56369, Note_on_c, 14, 57, 0
1, 56373, Note_on_c, 14, 50, 0
1, 56390, Note_on_c, 14, 57, 98
1, 56391, Note_on_c, 15, 50, 0
1, 56391, Note_on_c, 15, 57, 0
1, 56392, Note_on_c, 14, 50, 99
1, 56398, Note_on_c, 9, 42, 94
1, 56400, Note_on_c, 3, 77, 104
1, 56402, Note_on_c, 1, 26, 117
1, 56409, Note_on_c, 15, 57, 98
1, 56413, Note_on_c, 15, 50, 99
1, 56418, Note_on_c, 9, 42, 0
1, 56490, Note_on_c, 14, 57, 0
1, 56492, Note_on_c, 14, 50, 0
1, 56502, Note_on_c, 1, 26, 0
1, 56509, Note_on_c, 15, 57, 0
1, 56511, Note_on_c, 14, 50, 98
1, 56512, Note_on_c, 14, 57, 98
1, 56513, Note_on_c, 15, 50, 0
1, 56522, Note_on_c, 1, 26, 114
1, 56530, Note_on_c, 15, 50, 98
1, 56531, Note_on_c, 15, 57, 98
1, 56611, Note_on_c, 11, 69, 0
1, 56611, Note_on_c, 14, 50, 0
1, 56612, Note_on_c, 14, 57, 0
1, 56620, Note_on_c, 3, 77, 0
1, 56621, Note_on_c, 6, 69, 0
1, 56622, Note_on_c, 1, 26, 0
1, 56628, Note_on_c, 11, 67, 62
1, 56628, Note_on_c, 14, 57, 99
1, 56630, Note_on_c, 15, 50, 0
1, 56630, Note_on_c, 14, 50, 99
1, 56631, Note_on_c, 15, 57, 0
1, 56632, Note_on_c, 13, 69, 0
1, 56640, Note_on_c, 3, 76, 105
1, 56640, Note_on_c, 9, 36, 127
1, 56641, Note_on_c, 6, 67, 60
1, 56642, Note_on_c, 9, 42, 126
1, 56643, Note_on_c, 1, 26, 118
1, 56649, Note_on_c, 15, 50, 99
1, 56651, Note_on_c, 13, 67, 63
1, 56651, Note_on_c, 15, 57, 99
1, 56660, Note_on_c, 9, 36, 0
1, 56662, Note_on_c, 9, 42, 0
1, 56740, Note_on_c, 3, 76, 0
1, 56760, Note_on_c, 3, 76, 104
1, 56783, Note_on_c, 1, 26, 0
1, 56848, Note_on_c, 11, 67, 0
1, 56848, Note_on_c, 14, 57, 0
1, 56850, Note_on_c, 14, 50, 0
1, 56861, Note_on_c, 6, 67, 0
1, 56869, Note_on_c, 15, 50, 0
1, 56871, Note_on_c, 13, 67, 0
1, 56871, Note_on_c, 15, 57, 0
1, 56871, Note_on_c, 11, 69, 63
1, 56871, Note_on_c, 14, 50, 98
1, 56871, Note_on_c, 14, 57, 98
1, 56872, Note_on_c, 11, 72, 63
1, 56878, Note_on_c, 6, 69, 61
1, 56879, Note_on_c, 1, 26, 115
1, 56879, Note_on_c, 6, 72, 60
1, 56880, Note_on_c, 9, 42, 97
1, 56883, Note_on_c, 9, 36, 126
1, 56888, Note_on_c, 13, 72, 63
1, 56889, Note_on_c, 13, 69, 62
1, 56890, Note_on_c, 15, 50, 98
1, 56891, Note_on_c, 15, 57, 98
1, 56900, Note_on_c, 9, 42, 0
1, 56903, Note_on_c, 9, 36, 0
1, 56980, Note_on_c, 3, 76, 0
1, 57000, Note_on_c, 3, 76, 104
1, 57019, Note_on_c, 1, 26, 0
1, 57120, Note_on_c, 1, 26, 111
1, 57120, Note_on_c, 9, 42, 127
1, 57121, Note_on_c, 9, 40, 127
1, 57140, Note_on_c, 9, 42, 0
1, 57141, Note_on_c, 9, 40, 0
1, 57260, Note_on_c, 1, 26, 0
1, 57331, Note_on_c, 14, 50, 0
1, 57331, Note_on_c, 14, 57, 0
1, 57340, Note_on_c, 3, 76, 0
1, 57350, Note_on_c, 15, 50, 0
1, 57350, Note_on_c, 14, 57, 99
1, 57351, Note_on_c, 15, 57, 0
1, 57352, Note_on_c, 14, 50, 99
1, 57360, Note_on_c, 1, 26, 114
1, 57360, Note_on_c, 3, 77, 105
1, 57363, Note_on_c, 9, 42, 94
1, 57369, Note_on_c, 15, 50, 99
1, 57373, Note_on_c, 15, 57, 99
1, 57383, Note_on_c, 9, 42, 0
1, 57460, Note_on_c, 1, 26, 0
1, 57482, Note_on_c, 1, 26, 110
1, 57569, Note_on_c, 11, 62, 0
1, 57570, Note_on_c, 14, 57, 0
1, 57571, Note_on_c, 11, 69, 0
1, 57572, Note_on_c, 11, 72, 0
1, 57572, Note_on_c, 14, 50, 0
1, 57579, Note_on_c, 6, 72, 0
1, 57580, Note_on_c, 3, 77, 0
1, 57580, Note_on_c, 8, 50, 0
1, 57581, Note_on_c, 8, 57, 0
1, 57582, Note_on_c, 1, 26, 0
1, 57582, Note_on_c, 8, 38, 0
1, 57588, Note_on_c, 13, 72, 0
1, 57589, Note_on_c, 13, 69, 0
1, 57589, Note_on_c, 15, 50, 0
1, 57590, Note_on_c, 13, 62, 0
1, 57591, Note_on_c, 14, 53, 98
1, 57592, Note_on_c, 14, 46, 98
1, 57593, Note_on_c, 15, 57, 0
1, 57598, Note_on_c, 8, 34, 61
1, 57598, Note_on_c, 8, 53, 60
1, 57600, Note_on_c, 1, 34, 113
1, 57600, Note_on_c, 3, 74, 105
1, 57601, Note_on_c, 8, 46, 60
1, 57602, Note_on_c, 9, 49, 71
1, 57603, Note_on_c, 9, 36, 127
1, 57608, Note_on_c, 15, 46, 98
1, 57612, Note_on_c, 15, 53, 98
1, 57622, Note_on_c, 9, 49, 0
1, 57623, Note_on_c, 9, 36, 0
1, 57740, Note_on_c, 1, 34, 0
1, 57790, System_exclusive, 6, 0, 32, 36, 0, 8, 247
1, 57811, Note_on_c, 14, 53, 0
1, 57812, Note_on_c, 14, 46, 0
1, 57828, Note_on_c, 15, 46, 0
1, 57830, Note_on_c, 11, 62, 62
1, 57830, Note_on_c, 14, 46, 99
1, 57832, Note_on_c, 15, 53, 0
1, 57833, Note_on_c, 14, 53, 98
1, 57842, Note_on_c, 1, 34, 115
1, 57843, Note_on_c, 9, 42, 90
1, 57849, Note_on_c, 15, 46, 99
1, 57849, Note_on_c, 15, 53, 98
1, 57850, Note_on_c, 13, 62, 62
1, 57863, Note_on_c, 9, 42, 0
1, 57940, Note_on_c, 3, 74, 0
1, 57942, Note_on_c, 1, 34, 0
1, 57961, Note_on_c, 1, 34, 118
1, 58061, Note_on_c, 1, 34, 0
1, 58068, Note_on_c, 11, 69, 63
1, 58080, Note_on_c, 9, 40, 126
1, 58080, Note_on_c, 9, 42, 127
1, 58082, Note_on_c, 1, 34, 116
1, 58092, Note_on_c, 13, 69, 63
1, 58100, Note_on_c, 9, 40, 0
1, 58100, Note_on_c, 9, 42, 0
1, 58182, Note_on_c, 1, 34, 0
1, 58290, Note_on_c, 14, 46, 0
1, 58293, Note_on_c, 14, 53, 0
1, 58308, Note_on_c, 14, 46, 99
1, 58309, Note_on_c, 15, 46, 0
1, 58309, Note_on_c, 15, 53, 0
1, 58312, Note_on_c, 14, 53, 99
1, 58318, Note_on_c, 1, 34, 115
1, 58319, Note_on_c, 9, 42, 95
1, 58320, Note_on_c, 3, 77, 104
1, 58328, Note_on_c, 15, 46, 99
1, 58330, Note_on_c, 15, 53, 99
1, 58339, Note_on_c, 9, 42, 0
1, 58408, Note_on_c, 14, 46, 0
1, 58412, Note_on_c, 14, 53, 0
1, 58418, Note_on_c, 1, 34, 0
1, 58428, Note_on_c, 15, 46, 0
1, 58430, Note_on_c, 15, 53, 0
1, 58431, Note_on_c, 14, 46, 98
1, 58432, Note_on_c, 14, 53, 99
1, 58438, Note_on_c, 1, 34, 116
1, 58450, Note_on_c, 15, 53, 98
1, 58451, Note_on_c, 15, 46, 99
1, 58528, Note_on_c, 11, 69, 0
1, 58531, Note_on_c, 14, 46, 0
1, 58532, Note_on_c, 14, 53, 0
1, 58538, Note_on_c, 1, 34, 0
1, 58538, Note_on_c, 6, 69, 0
1, 58540, Note_on_c, 3, 77, 0
1, 58550, Note_on_c, 15, 53, 0
1, 58551, Note_on_c, 15, 46, 0
1, 58551, Note_on_c, 11, 67, 62
1, 58551, Note_on_c, 14, 46, 98
1, 58552, Note_on_c, 13, 69, 0
1, 58553, Note_on_c, 14, 53, 98
1, 58559, Note_on_c, 1, 34, 111
1, 58560, Note_on_c, 3, 76, 104
1, 58560, Note_on_c, 6, 67, 61
1, 58563, Note_on_c, 9, 36, 127
1, 58563, Note_on_c, 9, 42, 126
1, 58570, Note_on_c, 15, 46, 98
1, 58571, Note_on_c, 13, 67, 62
1, 58573, Note_on_c, 15, 53, 98
1, 58583, Note_on_c, 9, 36, 0
1, 58583, Note_on_c, 9, 42, 0
1, 58699, Note_on_c, 1, 34, 0
1, 58771, Note_on_c, 11, 67, 0
1, 58771, Note_on_c, 14, 46, 0
1, 58773, Note_on_c, 14, 53, 0
1, 58780, Note_on_c, 3, 76, 0
1, 58780, Note_on_c, 6, 67, 0
1, 58788, Note_on_c, 14, 46, 99
1, 58790, Note_on_c, 15, 46, 0
1, 58790, Note_on_c, 11, 69, 62
1, 58791, Note_on_c, 13, 67, 0
1, 58791, Note_on_c, 11, 72, 63
1, 58791, Note_on_c, 14, 53, 99
1, 58793, Note_on_c, 15, 53, 0
1, 58799, Note_on_c, 9, 42, 96
1, 58800, Note_on_c, 1, 34, 113
1, 58800, Note_on_c, 3, 79, 105
1, 58800, Note_on_c, 6, 69, 61
1, 58803, Note_on_c, 6, 72, 60
1, 58809, Note_on_c, 15, 53, 99
1, 58810, Note_on_c, 15, 46, 99
1, 58812, Note_on_c, 13, 69, 63
1, 58812, Note_on_c, 13, 72, 63
1, 58819, Note_on_c, 9, 42, 0
1, 58940, Note_on_c, 1, 34, 0
1, 59008, Note_on_c, 14, 46, 0
1, 59011, Note_on_c, 14, 53, 0
1, 59020, Note_on_c, 3, 79, 0
1, 59029, Note_on_c, 15, 53, 0
1, 59030, Note_on_c, 15, 46, 0
1, 59032, Note_on_c, 14, 46, 98
1, 59032, Note_on_c, 14, 53, 98
1, 59039, Note_on_c, 9, 40, 126
1, 59040, Note_on_c, 3, 77, 105
1, 59041, Note_on_c, 1, 34, 114
1, 59043, Note_on_c, 9, 42, 127
1, 59049, Note_on_c, 15, 46, 98
1, 59052, Note_on_c, 15, 53, 98
1, 59059, Note_on_c, 9, 40, 0
1, 59063, Note_on_c, 9, 42, 0
1, 59181, Note_on_c, 1, 34, 0
1, 59252, Note_on_c, 14, 46, 0
1, 59252, Note_on_c, 14, 53, 0
1, 59269, Note_on_c, 15, 46, 0
1, 59270, Note_on_c, 14, 53, 99
1, 59272, Note_on_c, 15, 53, 0
1, 59272, Note_on_c, 14, 46, 99
1, 59280, Note_on_c, 1, 34, 113
1, 59281, Note_on_c, 9, 42, 94
1, 59290, Note_on_c, 15, 53, 99
1, 59292, Note_on_c, 15, 46, 99
1, 59301, Note_on_c, 9, 42, 0
1, 59379, System_exclusive, 31, 0, 32, 36, 0, 4, 84, 79, 32, 66, 69, 32, 76, 69, 70, 84, 32, 79, 85, 84, 83, 73, 68, 69, 32, 65, 76, 79, 78, 69, 10, 247
1, 59380, Note_on_c, 1, 34, 0
1, 59384, System_exclusive, 31, 0, 32, 36, 0, 5, 84, 79, 32, 66, 69, 32, 76, 69, 70, 84, 32, 79, 85, 84, 83, 73, 68, 69, 32, 65, 76, 79, 78, 69, 10, 247
1, 59389, System_exclusive, 16, 0, 32, 36, 0, 6, 79, 72, 32, 84, 79, 32, 89, 79, 85, 10, 247
1, 59394, System_exclusive, 7, 0, 32, 36, 0, 7, 10, 247
1, 59403, Note_on_c, 1, 34, 118
1, 59404, System_exclusive, 6, 0, 32, 36, 0, 8, 247
1, 59490, Note_on_c, 11, 62, 0
1, 59490, Note_on_c, 11, 69, 0
1, 59490, Note_on_c, 14, 53, 0
1, 59491, Note_on_c, 11, 72, 0
1, 59492, Note_on_c, 14, 46, 0
1, 59498, Note_on_c, 8, 34, 0
1, 59498, Note_on_c, 8, 53, 0
1, 59501, Note_on_c, 8, 46, 0
1, 59503, Note_on_c, 1, 34, 0
1, 59503, Note_on_c, 6, 72, 0
1, 59509, Note_on_c, 14, 48, 98
1, 59510, Note_on_c, 13, 62, 0
1, 59510, Note_on_c, 15, 53, 0
1, 59510, Note_on_c, 14, 55, 98
1, 59512, Note_on_c, 13, 69, 0
1, 59512, Note_on_c, 13, 72, 0
1, 59512, Note_on_c, 15, 46, 0
1, 59518, Note_on_c, 9, 36, 126
1, 59519, Note_on_c, 8, 48, 61
1, 59520, Note_on_c, 9, 42, 127
1, 59521, Note_on_c, 1, 36, 116
1, 59521, Note_on_c, 8, 55, 61
1, 59523, Note_on_c, 8, 36, 60
1, 59528, Note_on_c, 15, 48, 98
1, 59530, Note_on_c, 15, 55, 98
1, 59538, Note_on_c, 9, 36, 0
1, 59540, Note_on_c, 9, 42, 0
1, 59661, Note_on_c, 1, 36, 0
1, 59729, Note_on_c, 14, 48, 0
1, 59730, Note_on_c, 14, 55, 0
1, 59748, Note_on_c, 15, 48, 0
1, 59749, Note_on_c, 14, 55, 99
1, 59750, Note_on_c, 15, 55, 0
1, 59751, Note_on_c, 11, 62, 63
1, 59752, Note_on_c, 14, 48, 98
1, 59761, Note_on_c, 1, 36, 111
1, 59761, Note_on_c, 9, 42, 91
1, 59769, Note_on_c, 13, 62, 62
1, 59770, Note_on_c, 15, 48, 99
1, 59770, Note_on_c, 15, 55, 98
1, 59781, Note_on_c, 9, 42, 0
1, 59861, Note_on_c, 1, 36, 0
1, 59881, Note_on_c, 1, 36, 115
1, 59980, Note_on_c, 3, 77, 0
1, 59981, Note_on_c, 1, 36, 0
1, 59990, Note_on_c, 11, 69, 62
1, 59998, Note_on_c, 1, 36, 116
1, 60000, Note_on_c, 9, 42, 126
1, 60003, Note_on_c, 9, 40, 127
1, 60013, Note_on_c, 13, 69, 63
1, 60020, Note_on_c, 9, 42, 0
1, 60023, Note_on_c, 9, 40, 0
1, 60098, Note_on_c, 1, 36, 0
1, 60209, Note_on_c, 14, 55, 0
1, 60212, Note_on_c, 14, 48, 0
1, 60230, Note_on_c, 15, 48, 0
1, 60230, Note_on_c, 15, 55, 0
1, 60230, Note_on_c, 14, 48, 99
1, 60231, Note_on_c, 14, 55, 99
1, 60239, Note_on_c, 1, 36, 116
1, 60240, Note_on_c, 3, 77, 104
1, 60242, Note_on_c, 9, 42, 95
1, 60251, Note_on_c, 15, 48, 99
1, 60252, Note_on_c, 15, 55, 99
1, 60262, Note_on_c, 9, 42, 0
1, 60330, Note_on_c, 14, 48, 0
1, 60331, Note_on_c, 14, 55, 0
1, 60339, Note_on_c, 1, 36, 0
1, 60340, Note_on_c, 3, 77, 0
1, 60349, Note_on_c, 14, 55, 98
1, 60350, Note_on_c, 14, 48, 99
1, 60351, Note_on_c, 15, 48, 0
1, 60352, Note_on_c, 15, 55, 0
1, 60360, Note_on_c, 3, 77, 104
1, 60362, Note_on_c, 1, 36, 119
1, 60369, Note_on_c, 15, 48, 98
1, 60373, Note_on_c, 15, 55, 99
1, 60449, Note_on_c, 14, 55, 0
1, 60450, Note_on_c, 11, 69, 0
1, 60450, Note_on_c, 14, 48, 0
1, 60460, Note_on_c, 3, 77, 0
1, 60460, Note_on_c, 6, 69, 0
1, 60462, Note_on_c, 1, 36, 0
1, 60469, Note_on_c, 15, 48, 0
1, 60470, Note_on_c, 11, 67, 62
1, 60470, Note_on_c, 14, 48, 98
1, 60471, Note_on_c, 14, 55, 98
1, 60473, Note_on_c, 13, 69, 0
1, 60473, Note_on_c, 15, 55, 0
1, 60478, Note_on_c, 6, 67, 61
1, 60479, Note_on_c, 9, 42, 126
1, 60480, Note_on_c, 1, 36, 117
1, 60480, Note_on_c, 3, 76, 105
1, 60480, Note_on_c, 9, 36, 127
1, 60490, Note_on_c, 15, 48, 98
1, 60490, Note_on_c, 15, 55, 98
1, 60493, Note_on_c, 13, 67, 62
1, 60499, Note_on_c, 9, 42, 0
1, 60500, Note_on_c, 9, 36, 0
1, 60620, Note_on_c, 1, 36, 0
1, 60690, Note_on_c, 11, 67, 0
1, 60690, Note_on_c, 14, 48, 0
1, 60691, Note_on_c, 14, 55, 0
1, 60698, Note_on_c, 6, 67, 0
1, 60700, Note_on_c, 3, 76, 0
1, 60709, Note_on_c, 11, 69, 63
1, 60709, Note_on_c, 14, 48, 99
1, 60710, Note_on_c, 15, 48, 0
1, 60710, Note_on_c, 15, 55, 0
1, 60711, Note_on_c, 11, 72, 63
1, 60711, Note_on_c, 14, 55, 99
1, 60713, Note_on_c, 13, 67, 0
1, 60718, Note_on_c, 9, 36, 126
1, 60719, Note_on_c, 6, 69, 60
1, 60720, Note_on_c, 3, 76, 104
1, 60720, Note_on_c, 9, 42, 96
1, 60721, Note_on_c, 1, 36, 118
1, 60722, Note_on_c, 6, 72, 60
1, 60729, Note_on_c, 13, 69, 62
1, 60730, Note_on_c, 15, 48, 99
1, 60731, Note_on_c, 15, 55, 99
1, 60732, Note_on_c, 13, 72, 63
1, 60738, Note_on_c, 9, 36, 0
1, 60740, Note_on_c, 9, 42, 0
1, 60861, Note_on_c, 1, 36, 0
1, 60940, Note_on_c, 3, 76, 0
1, 60959, Note_on_c, 1, 36, 118
1, 60959, Note_on_c, 9, 40, 127
1, 60959, Note_on_c, 9, 42, 127
1, 60960, Note_on_c, 3, 76, 105
1, 60979, Note_on_c, 9, 40, 0
1, 60979, Note_on_c, 9, 42, 0
1, 61099, Note_on_c, 1, 36, 0
1, 61169, Note_on_c, 14, 48, 0
1, 61171, Note_on_c, 14, 55, 0
1, 61180, Note_on_c, 3, 76, 0
1, 61190, Note_on_c, 15, 48, 0
1, 61190, Note_on_c, 14, 48, 98
1, 61190, Note_on_c, 14, 55, 98
1, 61191, Note_on_c, 15, 55, 0
1, 61200, Note_on_c, 3, 76, 105
1, 61202, Note_on_c, 1, 36, 119
1, 61202, Note_on_c, 9, 42, 95
1, 61210, Note_on_c, 15, 55, 98
1, 61212, Note_on_c, 15, 48, 98
1, 61222, Note_on_c, 9, 42, 0
1, 61290, Note_on_c, 14, 48, 0
1, 61290, Note_on_c, 14, 55, 0
1, 61300, Note_on_c, 3, 76, 0
1, 61302, Note_on_c, 1, 36, 0
1, 61309, Note_on_c, 14, 55, 99
1, 61310, Note_on_c, 15, 55, 0
1, 61312, Note_on_c, 15, 48, 0
1, 61313, Note_on_c, 14, 48, 99
1, 61319, Note_on_c, 1, 36, 114
1, 61320, Note_on_c, 3, 77, 104
1, 61328, Note_on_c, 15, 55, 99
1, 61330, Note_on_c, 15, 48, 99
1, 61409, Note_on_c, 11, 69, 0
1, 61409, Note_on_c, 14, 55, 0
1, 61411, Note_on_c, 11, 62, 0
1, 61411, Note_on_c, 11, 72, 0
1, 61413, Note_on_c, 14, 48, 0
1, 61419, Note_on_c, 1, 36, 0
1, 61419, Note_on_c, 8, 48, 0
1, 61421, Note_on_c, 8, 55, 0
1, 61422, Note_on_c, 6, 72, 0
1, 61423, Note_on_c, 8, 36, 0
1, 61428, Note_on_c, 15, 55, 0
1, 61429, Note_on_c, 13, 62, 0
1, 61429, Note_on_c, 13, 69, 0
1, 61429, Note_on_c, 11, 57, 62
1, 61429, Note_on_c, 11, 64, 62
1, 61430, Note_on_c, 15, 48, 0
1, 61432, Note_on_c, 13, 72, 0
1, 61432, Note_on_c, 11, 69, 63
1, 61433, Note_on_c, 14, 45, 98
1, 61433, Note_on_c, 14, 52, 98
1, 61439, Note_on_c, 8, 33, 60
1, 61441, Note_on_c, 8, 45, 61
1, 61441, Note_on_c, 9, 36, 126
1, 61441, Note_on_c, 9, 42, 126
1, 61442, Note_on_c, 7, 64, 60
1, 61443, Note_on_c, 1, 33, 117
1, 61443, Note_on_c, 8, 52, 60
1, 61450, Note_on_c, 13, 69, 63
1, 61450, Note_on_c, 15, 52, 98
1, 61451, Note_on_c, 13, 57, 62
1, 61452, Note_on_c, 15, 45, 98
1, 61453, Note_on_c, 13, 64, 62
1, 61461, Note_on_c, 9, 36, 0
1, 61461, Note_on_c, 9, 42, 0
1, 61540, System_exclusive, 6, 0, 32, 36, 0, 8, 247
1, 61583, Note_on_c, 1, 33, 0
1, 61649, Note_on_c, 11, 57, 0
1, 61649, Note_on_c, 11, 64, 0
1, 61652, Note_on_c, 11, 69, 0
1, 61653, Note_on_c, 14, 45, 0
1, 61653, Note_on_c, 14, 52, 0
1, 61660, Note_on_c, 3, 77, 0
1, 61669, Note_on_c, 11, 57, 62
1, 61669, Note_on_c, 11, 69, 63
1, 61670, Note_on_c, 13, 69, 0
1, 61670, Note_on_c, 15, 52, 0
1, 61671, Note_on_c, 13, 57, 0
1, 61672, Note_on_c, 15, 45, 0
1, 61672, Note_on_c, 11, 64, 63
1, 61672, Note_on_c, 14, 45, 99
1, 61672, Note_on_c, 14, 52, 98
1, 61673, Note_on_c, 13, 64, 0
1, 61679, Note_on_c, 1, 33, 113
1, 61680, Note_on_c, 3, 74, 105
1, 61682, Note_on_c, 9, 42, 90
1, 61688, Note_on_c, 13, 69, 63
1, 61690, Note_on_c, 15, 45, 99
1, 61691, Note_on_c, 13, 64, 63
1, 61692, Note_on_c, 15, 52, 98
1, 61693, Note_on_c, 13, 57, 62
1, 61702, Note_on_c, 9, 42, 0
1, 61779, Note_on_c, 1, 33, 0
1, 61803, Note_on_c, 1, 33, 114
1, 61889, Note_on_c, 11, 57, 0
1, 61889, Note_on_c, 11, 69, 0
1, 61903, Note_on_c, 1, 33, 0
1, 61908, Note_on_c, 13, 69, 0
1, 61909, Note_on_c, 11, 57, 62
1, 61911, Note_on_c, 11, 69, 63
1, 61913, Note_on_c, 13, 57, 0
1, 61921, Note_on_c, 1, 33, 113
1, 61921, Note_on_c, 9, 40, 126
1, 61921, Note_on_c, 9, 42, 127
1, 61930, Note_on_c, 13, 69, 62
1, 61933, Note_on_c, 13, 57, 63
1, 61941, Note_on_c, 9, 40, 0
1, 61941, Note_on_c, 9, 42, 0
1, 62020, Note_on_c, 3, 74, 0
1, 62021, Note_on_c, 1, 33, 0
1, 62129, Note_on_c, 11, 57, 0
1, 62131, Note_on_c, 11, 69, 0
1, 62132, Note_on_c, 11, 64, 0
1, 62132, Note_on_c, 14, 45, 0
1, 62132, Note_on_c, 14, 52, 0
1, 62148, Note_on_c, 11, 57, 62
1, 62149, Note_on_c, 14, 45, 99
1, 62150, Note_on_c, 13, 69, 0
1, 62150, Note_on_c, 15, 45, 0
1, 62150, Note_on_c, 11, 69, 62
1, 62151, Note_on_c, 13, 64, 0
1, 62152, Note_on_c, 15, 52, 0
1, 62152, Note_on_c, 11, 64, 63
1, 62152, Note_on_c, 14, 52, 99
1, 62153, Note_on_c, 13, 57, 0
1, 62158, Note_on_c, 1, 33, 118
1, 62160, Note_on_c, 3, 77, 104
1, 62160, Note_on_c, 9, 42, 95
1, 62170, Note_on_c, 13, 69, 62
1, 62170, Note_on_c, 15, 45, 99
1, 62171, Note_on_c, 13, 57, 63
1, 62171, Note_on_c, 15, 52, 99
1, 62172, Note_on_c, 13, 64, 63
1, 62180, Note_on_c, 9, 42, 0
1, 62249, Note_on_c, 14, 45, 0
1, 62252, Note_on_c, 14, 52, 0
1, 62258, Note_on_c, 1, 33, 0
1, 62260, Note_on_c, 3, 77, 0
1, 62270, Note_on_c, 15, 45, 0
1, 62271, Note_on_c, 15, 52, 0
1, 62271, Note_on_c, 14, 52, 98
1, 62272, Note_on_c, 14, 45, 99
1, 62279, Note_on_c, 1, 33, 118
1, 62280, Note_on_c, 3, 77, 104
1, 62288, Note_on_c, 15, 45, 98
1, 62289, Note_on_c, 15, 52, 99
1, 62368, Note_on_c, 11, 57, 0
1, 62370, Note_on_c, 11, 69, 0
1, 62371, Note_on_c, 14, 52, 0
1, 62372, Note_on_c, 11, 64, 0
1, 62372, Note_on_c, 14, 45, 0
1, 62379, Note_on_c, 1, 33, 0
1, 62380, Note_on_c, 3, 77, 0
1, 62388, Note_on_c, 15, 45, 0
1, 62389, Note_on_c, 15, 52, 0
1, 62390, Note_on_c, 13, 69, 0
1, 62390, Note_on_c, 11, 57, 63
1, 62391, Note_on_c, 13, 57, 0
1, 62391, Note_on_c, 11, 64, 62
1, 62391, Note_on_c, 11, 69, 62
1, 62392, Note_on_c, 13, 64, 0
1, 62392, Note_on_c, 14, 45, 98
1, 62392, Note_on_c, 14, 52, 98
1, 62400, Note_on_c, 1, 33, 115
1, 62400, Note_on_c, 3, 76, 105
1, 62400, Note_on_c, 9, 36, 127
1, 62401, Note_on_c, 9, 42, 126
1, 62409, Note_on_c, 15, 52, 98
1, 62410, Note_on_c, 13, 57, 62
1, 62410, Note_on_c, 13, 64, 63
1, 62410, Note_on_c, 15, 45, 98
1, 62411, Note_on_c, 13, 69, 62
1, 62420, Note_on_c, 9, 36, 0
1, 62421, Note_on_c, 9, 42, 0
1, 62540, Note_on_c, 1, 33, 0
1, 62610, Note_on_c, 11, 57, 0
1, 62611, Note_on_c, 11, 64, 0
1, 62611, Note_on_c, 11, 69, 0
1, 62612, Note_on_c, 14, 45, 0
1, 62612, Note_on_c, 14, 52, 0
1, 62620, Note_on_c, 3, 76, 0
1, 62628, Note_on_c, 11, 64, 63
1, 62629, Note_on_c, 15, 52, 0
1, 62629, Note_on_c, 11, 69, 63
1, 62629, Note_on_c, 14, 52, 99
1, 62630, Note_on_c, 13, 57, 0
1, 62630, Note_on_c, 13, 64, 0
1, 62630, Note_on_c, 15, 45, 0
1, 62630, Note_on_c, 11, 57, 62
1, 62631, Note_on_c, 13, 69, 0
1, 62632, Note_on_c, 14, 45, 99
1, 62640, Note_on_c, 3, 76, 105
1, 62643, Note_on_c, 1, 33, 117
1, 62643, Note_on_c, 9, 42, 96
1, 62649, Note_on_c, 13, 57, 62
1, 62649, Note_on_c, 15, 52, 99
1, 62650, Note_on_c, 13, 69, 63
1, 62652, Note_on_c, 13, 64, 63
1, 62653, Note_on_c, 15, 45, 99
1, 62663, Note_on_c, 9, 42, 0
1, 62783, Note_on_c, 1, 33, 0
1, 62848, Note_on_c, 11, 64, 0
1, 62849, Note_on_c, 11, 69, 0
1, 62850, Note_on_c, 11, 57, 0
1, 62860, Note_on_c, 3, 76, 0
1, 62868, Note_on_c, 11, 64, 62
1, 62869, Note_on_c, 13, 57, 0
1, 62870, Note_on_c, 13, 69, 0
1, 62870, Note_on_c, 11, 57, 63
1, 62870, Note_on_c, 11, 69, 62
1, 62872, Note_on_c, 13, 64, 0
1, 62879, Note_on_c, 9, 40, 126
1, 62880, Note_on_c, 3, 76, 104
1, 62880, Note_on_c, 9, 42, 127
1, 62882, Note_on_c, 1, 33, 116
1, 62889, Note_on_c, 13, 57, 62
1, 62889, Note_on_c, 13, 64, 62
1, 62890, Note_on_c, 13, 69, 63
1, 62899, Note_on_c, 9, 40, 0
1, 62900, Note_on_c, 9, 42, 0
1, 63022, Note_on_c, 1, 33, 0
1, 63088, Note_on_c, 11, 64, 0
1, 63089, Note_on_c, 14, 52, 0
1, 63090, Note_on_c, 11, 57, 0
1, 63090, Note_on_c, 11, 69, 0
1, 63092, Note_on_c, 14, 45, 0
1, 63100, Note_on_c, 3, 76, 0
1, 63109, Note_on_c, 13, 57, 0
1, 63109, Note_on_c, 13, 64, 0
1, 63109, Note_on_c, 15, 52, 0
1, 63109, Note_on_c, 11, 69, 63
1, 63110, Note_on_c, 13, 69, 0
1, 63110, Note_on_c, 11, 57, 63
1, 63110, Note_on_c, 11, 64, 62
1, 63111, Note_on_c, 14, 52, 98
1, 63112, Note_on_c, 14, 45, 98
1, 63113, Note_on_c, 15, 45, 0
1, 63119, Note_on_c, 1, 33, 114
1, 63120, Note_on_c, 3, 76, 104
1, 63122, Note_on_c, 9, 42, 94
1, 63129, Note_on_c, 15, 45, 98
1, 63129, Note_on_c, 15, 52, 98
1, 63131, Note_on_c, 13, 64, 63
1, 63132, Note_on_c, 13, 57, 62
1, 63133, Note_on_c, 13, 69, 62
1, 63142, Note_on_c, 9, 42, 0
1, 63211, Note_on_c, 14, 52, 0
1, 63212, Note_on_c, 14, 45, 0
1, 63219, Note_on_c, 1, 33, 0
1, 63220, Note_on_c, 3, 76, 0
1, 63228, Note_on_c, 14, 52, 99
1, 63229, Note_on_c, 15, 45, 0
1, 63229, Note_on_c, 15, 52, 0
1, 63231, Note_on_c, 14, 45, 99
1, 63238, Note_on_c, 1, 33, 119
1, 63240, Note_on_c, 3, 73, 105
1, 63248, Note_on_c, 15, 45, 99
1, 63249, Note_on_c, 15, 52, 99
1, 63328, Note_on_c, 14, 52, 0
1, 63329, Note_on_c, 11, 69, 0
1, 63330, Note_on_c, 11, 57, 0
1, 63330, Note_on_c, 11, 64, 0
1, 63331, Note_on_c, 14, 45, 0
1, 63338, Note_on_c, 1, 33, 0
1, 63338, Note_on_c, 7, 62, 0
1, 63348, Note_on_c, 15, 45, 0
1, 63349, Note_on_c, 15, 52, 0
1, 63351, Note_on_c, 13, 64, 0
1, 63351, Note_on_c, 11, 64, 63
1, 63351, Note_on_c, 14, 52, 98
1, 63352, Note_on_c, 13, 57, 0
1, 63352, Note_on_c, 11, 57, 62
1, 63352, Note_on_c, 11, 69, 62
1, 63352, Note_on_c, 14, 45, 98
1, 63353, Note_on_c, 13, 69, 0
1, 63361, Note_on_c, 9, 42, 127
1, 63362, Note_on_c, 7, 61, 60
1, 63363, Note_on_c, 1, 33, 117
1, 63363, Note_on_c, 9, 36, 127
1, 63369, Note_on_c, 15, 52, 98
1, 63370, Note_on_c, 13, 64, 63
1, 63370, Note_on_c, 15, 45, 98
1, 63371, Note_on_c, 13, 57, 62
1, 63371, Note_on_c, 13, 69, 63
1, 63381, Note_on_c, 9, 42, 0
1, 63383, Note_on_c, 9, 36, 0
1, 63460, Note_on_c, 3, 73, 0
1, 63480, Note_on_c, 3, 69, 105
1, 63503, Note_on_c, 1, 33, 0
1, 63550, System_exclusive, 6, 0, 32, 36, 0, 8, 247
1, 63571, Note_on_c, 11, 64, 0
1, 63571, Note_on_c, 14, 52, 0
1, 63572, Note_on_c, 11, 57, 0
1, 63572, Note_on_c, 11, 69, 0
1, 63572, Note_on_c, 14, 45, 0
1, 63589, Note_on_c, 15, 52, 0
1, 63590, Note_on_c, 13, 64, 0
1, 63590, Note_on_c, 15, 45, 0
1, 63590, Note_on_c, 11, 64, 63
1, 63590, Note_on_c, 14, 52, 99
1, 63591, Note_on_c, 13, 57, 0
1, 63591, Note_on_c, 13, 69, 0
1, 63591, Note_on_c, 11, 57, 63
1, 63592, Note_on_c, 11, 69, 62
1, 63592, Note_on_c, 14, 45, 98
1, 63599, Note_on_c, 1, 33, 116
1, 63599, Note_on_c, 9, 42, 91
1, 63609, Note_on_c, 15, 52, 99
1, 63610, Note_on_c, 13, 64, 63
1, 63611, Note_on_c, 13, 57, 62
1, 63612, Note_on_c, 13, 69, 63
1, 63612, Note_on_c, 15, 45, 98
1, 63619, Note_on_c, 9, 42, 0
1, 63699, Note_on_c, 1, 33, 0
1, 63720, Note_on_c, 1, 33, 114
1, 63810, Note_on_c, 11, 64, 0
1, 63811, Note_on_c, 11, 57, 0
1, 63812, Note_on_c, 11, 69, 0
1, 63820, Note_on_c, 1, 33, 0
1, 63828, Note_on_c, 11, 69, 62
1, 63830, Note_on_c, 13, 64, 0
1, 63830, Note_on_c, 11, 64, 63
1, 63831, Note_on_c, 13, 57, 0
1, 63832, Note_on_c, 13, 69, 0
1, 63833, Note_on_c, 11, 57, 63
1, 63838, Note_on_c, 9, 42, 126
1, 63840, Note_on_c, 1, 33, 115
1, 63841, Note_on_c, 9, 40, 127
1, 63850, Note_on_c, 13, 64, 62
1, 63851, Note_on_c, 13, 57, 62
1, 63852, Note_on_c, 13, 69, 63
1, 63858, Note_on_c, 9, 42, 0
1, 63861, Note_on_c, 9, 40, 0
1, 63940, Note_on_c, 1, 33, 0
1, 63940, Note_on_c, 3, 69, 0
1, 64048, Note_on_c, 11, 69, 0
1, 64050, Note_on_c, 11, 64, 0
1, 64050, Note_on_c, 14, 52, 0
1, 64052, Note_on_c, 14, 45, 0
1, 64053, Note_on_c, 11, 57, 0
1, 64068, Note_on_c, 14, 45, 99
1, 64068, Note_on_c, 14, 52, 99
1, 64069, Note_on_c, 15, 52, 0
1, 64069, Note_on_c, 11, 69, 62
1, 64070, Note_on_c, 13, 64, 0
1, 64071, Note_on_c, 13, 57, 0
1, 64071, Note_on_c, 11, 64, 62
1, 64072, Note_on_c, 13, 69, 0
1, 64072, Note_on_c, 15, 45, 0
1, 64073, Note_on_c, 11, 57, 63
1, 64080, Note_on_c, 1, 33, 110
1, 64080, Note_on_c, 9, 42, 95
1, 64088, Note_on_c, 13, 64, 63
1, 64089, Note_on_c, 13, 57, 62
1, 64091, Note_on_c, 13, 69, 62
1, 64091, Note_on_c, 15, 45, 99
1, 64093, Note_on_c, 15, 52, 99
1, 64100, Note_on_c, 9, 42, 0
1, 64168, Note_on_c, 14, 45, 0
1, 64168, Note_on_c, 14, 52, 0
1, 64180, Note_on_c, 1, 33, 0
1, 64191, Note_on_c, 15, 45, 0
1, 64191, Note_on_c, 14, 45, 98
1, 64193, Note_on_c, 15, 52, 0
1, 64193, Note_on_c, 14, 52, 99
1, 64201, Note_on_c, 1, 33, 119
1, 64210, Note_on_c, 15, 52, 98
1, 64211, Note_on_c, 15, 45, 99
1, 64289, Note_on_c, 11, 69, 0
1, 64291, Note_on_c, 11, 64, 0
1, 64291, Note_on_c, 14, 45, 0
1, 64293, Note_on_c, 11, 57, 0
1, 64293, Note_on_c, 14, 52, 0
1, 64301, Note_on_c, 1, 33, 0
1, 64308, Note_on_c, 13, 64, 0
1, 64309, Note_on_c, 13, 57, 0
1, 64309, Note_on_c, 11, 64, 62
1, 64309, Note_on_c, 11, 69, 63
1, 64310, Note_on_c, 15, 52, 0
1, 64310, Note_on_c, 11, 57, 63
1, 64310, Note_on_c, 14, 45, 98
1, 64310, Note_on_c, 14, 52, 98
1, 64311, Note_on_c, 13, 69, 0
1, 64311, Note_on_c, 15, 45, 0
1, 64319, Note_on_c, 1, 33, 113
1, 64320, Note_on_c, 9, 36, 126
1, 64322, Note_on_c, 9, 42, 126
1, 64329, Note_on_c, 13, 69, 63
1, 64330, Note_on_c, 13, 57, 63
1, 64331, Note_on_c, 13, 64, 62
1, 64331, Note_on_c, 15, 45, 98
1, 64332, Note_on_c, 15, 52, 98
1, 64340, Note_on_c, 9, 36, 0
1, 64342, Note_on_c, 9, 42, 0
1, 64440, Note_on_c, 3, 69, 104
1, 64459, Note_on_c, 1, 33, 0
1, 64529, Note_on_c, 11, 64, 0
1, 64529, Note_on_c, 11, 69, 0
1, 64530, Note_on_c, 11, 57, 0
1, 64530, Note_on_c, 14, 45, 0
1, 64530, Note_on_c, 14, 52, 0
1, 64549, Note_on_c, 13, 69, 0
1, 64549, Note_on_c, 11, 64, 62
1, 64549, Note_on_c, 14, 52, 99
1, 64550, Note_on_c, 13, 57, 0
1, 64551, Note_on_c, 13, 64, 0
1, 64551, Note_on_c, 15, 45, 0
1, 64552, Note_on_c, 15, 52, 0
1, 64552, Note_on_c, 11, 69, 63
1, 64552, Note_on_c, 14, 45, 99
1, 64553, Note_on_c, 11, 57, 62
1, 64560, Note_on_c, 9, 36, 126
1, 64560, Note_on_c, 9, 42, 96
1, 64561, Note_on_c, 1, 33, 114
1, 64568, Note_on_c, 15, 52, 99
1, 64570, Note_on_c, 13, 57, 62
1, 64570, Note_on_c, 13, 64, 63
1, 64570, Note_on_c, 15, 45, 99
1, 64572, Note_on_c, 13, 69, 62
1, 64580, Note_on_c, 9, 36, 0
1, 64580, Note_on_c, 9, 42, 0
1, 64701, Note_on_c, 1, 33, 0
1, 64769, Note_on_c, 11, 64, 0
1, 64772, Note_on_c, 11, 69, 0
1, 64773, Note_on_c, 11, 57, 0
1, 64780, Note_on_c, 3, 69, 0
1, 64788, Note_on_c, 11, 69, 62
1, 64789, Note_on_c, 11, 57, 63
1, 64790, Note_on_c, 13, 57, 0
1, 64790, Note_on_c, 13, 64, 0
1, 64791, Note_on_c, 11, 64, 63
1, 64792, Note_on_c, 13, 69, 0
1, 64798, Note_on_c, 9, 40, 126
1, 64800, Note_on_c, 3, 69, 104
1, 64800, Note_on_c, 9, 42, 127
1, 64801, Note_on_c, 1, 33, 113
1, 64811, Note_on_c, 13, 64, 63
1, 64812, Note_on_c, 13, 57, 63
1, 64812, Note_on_c, 13, 69, 62
1, 64818, Note_on_c, 9, 40, 0
1, 64820, Note_on_c, 9, 42, 0
1, 64941, Note_on_c, 1, 33, 0
1, 65008, Note_on_c, 11, 69, 0
1, 65009, Note_on_c, 11, 57, 0
1, 65009, Note_on_c, 14, 52, 0
1, 65011, Note_on_c, 11, 64, 0
1, 65012, Note_on_c, 14, 45, 0
1, 65020, Note_on_c, 3, 69, 0
1, 65028, Note_on_c, 15, 52, 0
1, 65028, Note_on_c, 11, 64, 62
1, 65029, Note_on_c, 11, 57, 62
1, 65029, Note_on_c, 14, 45, 98
1, 65030, Note_on_c, 15, 45, 0
1, 65031, Note_on_c, 13, 64, 0
1, 65031, Note_on_c, 11, 69, 63
1, 65031, Note_on_c, 14, 52, 98
1, 65032, Note_on_c, 13, 57, 0
1, 65032, Note_on_c, 13, 69, 0
1, 65040, Note_on_c, 1, 33, 112
1, 65040, Note_on_c, 3, 69, 105
1, 65041, Note_on_c, 9, 42, 95
1, 65050, Note_on_c, 13, 57, 63
1, 65050, Note_on_c, 15, 52, 98
1, 65051, Note_on_c, 13, 69, 62
1, 65052, Note_on_c, 13, 64, 62
1, 65052, Note_on_c, 15, 45, 98
1, 65061, Note_on_c, 9, 42, 0
1, 65140, Note_on_c, 1, 33, 0
1, 65160, Note_on_c, 1, 33, 114
1, 65231, System_exclusive, 36, 0, 32, 36, 0, 4, 65, 76, 76, 32, 77, 89, 32, 76, 73, 70, 69, 32, 73, 39, 86, 69, 32, 66, 69, 69, 78, 32, 87, 65, 73, 84, 73, 78, 71, 10, 247
1, 65236, System_exclusive, 42, 0, 32, 36, 0, 5, 70, 79, 82, 32, 89, 79, 85, 32, 84, 79, 32, 66, 82, 73, 78, 71, 32, 65, 32, 70, 65, 73, 82, 89, 84, 65, 76, 69, 32, 77, 89, 32, 87, 65, 89, 10, 247
1, 65241, System_exclusive, 7, 0, 32, 36, 0, 6, 10, 247
1, 65246, System_exclusive, 7, 0, 32, 36, 0, 7, 10, 247
1, 65248, Note_on_c, 11, 64, 0
1, 65249, Note_on_c, 11, 57, 0
1, 65249, Note_on_c, 14, 45, 0
1, 65251, Note_on_c, 11, 69, 0
1, 65251, Note_on_c, 14, 52, 0
1, 65256, System_exclusive, 6, 0, 32, 36, 0, 8, 247
1, 65259, Note_on_c, 6, 69, 0
1, 65259, Note_on_c, 8, 33, 0
1, 65260, Note_on_c, 1, 33, 0
1, 65260, Note_on_c, 3, 69, 0
1, 65261, Note_on_c, 8, 45, 0
1, 65262, Note_on_c, 7, 61, 0
1, 65262, Note_on_c, 7, 64, 0
1, 65263, Note_on_c, 8, 52, 0
1, 65269, Note_on_c, 11, 62, 61
1, 65269, Note_on_c, 11, 65, 60
1, 65270, Note_on_c, 13, 57, 0
1, 65270, Note_on_c, 15, 52, 0
1, 65270, Note_on_c, 14, 53, 99
1, 65271, Note_on_c, 13, 69, 0
1, 65272, Note_on_c, 13, 64, 0
1, 65272, Note_on_c, 15, 45, 0
1, 65273, Note_on_c, 11, 58, 60
1, 65273, Note_on_c, 14, 46, 99
1, 65278, Note_on_c, 7, 58, 61
1, 65279, Note_on_c, 7, 65, 60
1, 65280, Note_on_c, 3, 82, 104
1, 65280, Note_on_c, 8, 53, 61
1, 65280, Note_on_c, 9, 36, 127
1, 65280, Note_on_c, 9, 49, 70
1, 65281, Note_on_c, 7, 62, 61
1, 65282, Note_on_c, 1, 34, 117
1, 65282, Note_on_c, 8, 34, 61
1, 65282, Note_on_c, 8, 46, 60
1, 65289, Note_on_c, 13, 58, 61
1, 65290, Note_on_c, 15, 46, 99
1, 65291, Note_on_c, 15, 53, 99
1, 65292, Note_on_c, 13, 65, 61
1, 65293, Note_on_c, 13, 62, 60
1, 65300, Note_on_c, 9, 36, 0
1, 65300, Note_on_c, 9, 49, 0
1, 65422, Note_on_c, 1, 34, 0
1, 65489, Note_on_c, 11, 62, 0
1, 65489, Note_on_c, 11, 65, 0
1, 65490, Note_on_c, 14, 53, 0
1, 65493, Note_on_c, 11, 58, 0
1, 65493, Note_on_c, 14, 46, 0
1, 65508, Note_on_c, 11, 62, 61
1, 65508, Note_on_c, 14, 53, 98
1, 65509, Note_on_c, 13, 58, 0
1, 65509, Note_on_c, 11, 65, 60
1, 65510, Note_on_c, 15, 46, 0
1, 65511, Note_on_c, 15, 53, 0
1, 65512, Note_on_c, 13, 65, 0
1, 65512, Note_on_c, 11, 58, 61
1, 65513, Note_on_c, 13, 62, 0
1, 65513, Note_on_c, 14, 46, 98
1, 65522, Note_on_c, 9, 42, 90
1, 65523, Note_on_c, 1, 34, 117
1, 65529, Note_on_c, 15, 53, 98
1, 65530, Note_on_c, 13, 58, 60
1, 65530, Note_on_c, 13, 62, 61
1, 65530, Note_on_c, 15, 46, 98
1, 65532, Note_on_c, 13, 65, 61
1, 65542, Note_on_c, 9, 42, 0
1, 65623, Note_on_c, 1, 34, 0
1, 65639, Note_on_c, 1, 34, 114
1, 65728, Note_on_c, 11, 62, 0
1, 65729, Note_on_c, 11, 65, 0
1, 65732, Note_on_c, 11, 58, 0
1, 65739, Note_on_c, 1, 34, 0
1, 65740, Note_on_c, 3, 82, 0
1, 65749, Note_on_c, 11, 58, 61
1, 65750, Note_on_c, 13, 58, 0
1, 65750, Note_on_c, 13, 62, 0
1, 65750, Note_on_c, 11, 62, 60
1, 65752, Note_on_c, 13, 65, 0
1, 65752, Note_on_c, 11, 65, 61
1, 65758, Note_on_c, 1, 34, 112
1, 65759, Note_on_c, 9, 40, 127
1, 65759, Note_on_c, 9, 42, 126
1, 65760, Note_on_c, 3, 82, 105
1, 65771, Note_on_c, 13, 65, 60
1, 65772, Note_on_c, 13, 58, 60
1, 65772, Note_on_c, 13, 62, 61
1, 65779, Note_on_c, 9, 40, 0
1, 65779, Note_on_c, 9, 42, 0
1, 65858, Note_on_c, 1, 34, 0
1, 65968, Note_on_c, 14, 53, 0
1, 65969, Note_on_c, 11, 58, 0
1, 65970, Note_on_c, 11, 62, 0
1, 65972, Note_on_c, 11, 65, 0
1, 65973, Note_on_c, 14, 46, 0
1, 65989, Note_on_c, 15, 53, 0
1, 65989, Note_on_c, 11, 58, 60
1, 65989, Note_on_c, 11, 65, 60
1, 65989, Note_on_c, 14, 46, 99
1, 65990, Note_on_c, 15, 46, 0
1, 65990, Note_on_c, 11, 62, 61
1, 65990, Note_on_c, 14, 53, 98
1, 65991, Note_on_c, 13, 65, 0
1, 65992, Note_on_c, 13, 58, 0
1, 65992, Note_on_c, 13, 62, 0
1, 65998, Note_on_c, 9, 42, 95
1, 66000, Note_on_c, 1, 34, 115
1, 66010, Note_on_c, 13, 65, 60
1, 66011, Note_on_c, 13, 58, 61
1, 66011, Note_on_c, 15, 53, 99
1, 66012, Note_on_c, 13, 62, 61
1, 66012, Note_on_c, 15, 46, 98
1, 66018, Note_on_c, 9, 42, 0
1, 66089, Note_on_c, 14, 46, 0
1, 66090, Note_on_c, 14, 53, 0
1, 66100, Note_on_c, 1, 34, 0
1, 66111, Note_on_c, 15, 53, 0
1, 66112, Note_on_c, 15, 46, 0
1, 66112, Note_on_c, 14, 46, 99
1, 66112, Note_on_c, 14, 53, 99
1, 66119, Note_on_c, 1, 34, 115
1, 66131, Note_on_c, 15, 53, 99
1, 66132, Note_on_c, 15, 46, 99
1, 66209, Note_on_c, 11, 58, 0
1, 66209, Note_on_c, 11, 65, 0
1, 66210, Note_on_c, 11, 62, 0
1, 66212, Note_on_c, 14, 46, 0
1, 66212, Note_on_c, 14, 53, 0
1, 66219, Note_on_c, 1, 34, 0
1, 66220, Note_on_c, 3, 82, 0
1, 66228, Note_on_c, 11, 65, 61
1, 66230, Note_on_c, 13, 65, 0
1, 66231, Note_on_c, 13, 58, 0
1, 66231, Note_on_c, 15, 53, 0
1, 66231, Note_on_c, 14, 46, 98
1, 66232, Note_on_c, 13, 62, 0
1, 66232, Note_on_c, 15, 46, 0
1, 66232, Note_on_c, 14, 53, 99
1, 66233, Note_on_c, 11, 58, 60
1, 66233, Note_on_c, 11, 62, 60
1, 66240, Note_on_c, 1, 34, 118
1, 66240, Note_on_c, 3, 82, 105
1, 66240, Note_on_c, 9, 42, 127
1, 66243, Note_on_c, 9, 36, 127
1, 66249, Note_on_c, 15, 53, 98
1, 66250, Note_on_c, 13, 62, 60
1, 66250, Note_on_c, 13, 65, 61
1, 66252, Note_on_c, 13, 58, 60
1, 66253, Note_on_c, 15, 46, 99
1, 66260, Note_on_c, 9, 42, 0
1, 66263, Note_on_c, 9, 36, 0
1, 66380, Note_on_c, 1, 34, 0
1, 66448, Note_on_c, 11, 65, 0
1, 66451, Note_on_c, 14, 46, 0
1, 66452, Note_on_c, 14, 53, 0
1, 66453, Note_on_c, 11, 58, 0
1, 66453, Note_on_c, 11, 62, 0
1, 66460, Note_on_c, 3, 82, 0
1, 66469, Note_on_c, 15, 53, 0
1, 66469, Note_on_c, 11, 62, 61
1, 66469, Note_on_c, 11, 65, 61
1, 66470, Note_on_c, 13, 62, 0
1, 66470, Note_on_c, 13, 65, 0
1, 66470, Note_on_c, 14, 53, 98
1, 66471, Note_on_c, 14, 46, 98
1, 66472, Note_on_c, 13, 58, 0
1, 66472, Note_on_c, 11, 58, 60
1, 66473, Note_on_c, 15, 46, 0
1, 66480, Note_on_c, 3, 81, 104
1, 66481, Note_on_c, 9, 42, 96
1, 66482, Note_on_c, 1, 34, 116
1, 66489, Note_on_c, 15, 46, 98
1, 66490, Note_on_c, 13, 65, 60
1, 66491, Note_on_c, 13, 62, 61
1, 66491, Note_on_c, 15, 53, 98
1, 66493, Note_on_c, 13, 58, 61
1, 66501, Note_on_c, 9, 42, 0
1, 66622, Note_on_c, 1, 34, 0
1, 66689, Note_on_c, 11, 62, 0
1, 66689, Note_on_c, 11, 65, 0
1, 66690, Note_on_c, 14, 53, 0
1, 66691, Note_on_c, 14, 46, 0
1, 66692, Note_on_c, 11, 58, 0
1, 66700, Note_on_c, 3, 81, 0
1, 66708, Note_on_c, 14, 53, 99
1, 66709, Note_on_c, 15, 46, 0
1, 66709, Note_on_c, 11, 58, 60
1, 66709, Note_on_c, 11, 62, 61
1, 66710, Note_on_c, 13, 65, 0
1, 66710, Note_on_c, 11, 65, 60
1, 66710, Note_on_c, 14, 46, 99
1, 66711, Note_on_c, 13, 62, 0
1, 66711, Note_on_c, 15, 53, 0
1, 66713, Note_on_c, 13, 58, 0
1, 66718, Note_on_c, 1, 34, 119
1, 66720, Note_on_c, 3, 79, 105
1, 66721, Note_on_c, 9, 42, 126
1, 66722, Note_on_c, 9, 40, 127
1, 66730, Note_on_c, 13, 58, 60
1, 66732, Note_on_c, 15, 53, 99
1, 66733, Note_on_c, 13, 62, 60
1, 66733, Note_on_c, 13, 65, 61
1, 66733, Note_on_c, 15, 46, 99
1, 66741, Note_on_c, 9, 42, 0
1, 66742, Note_on_c, 9, 40, 0
1, 66858, Note_on_c, 1, 34, 0
1, 66928, Note_on_c, 14, 53, 0
1, 66929, Note_on_c, 11, 58, 0
1, 66929, Note_on_c, 11, 62, 0
1, 66930, Note_on_c, 11, 65, 0
1, 66930, Note_on_c, 14, 46, 0
1, 66940, Note_on_c, 3, 79, 0
1, 66949, Note_on_c, 11, 58, 61
1, 66949, Note_on_c, 11, 62, 61
1, 66949, Note_on_c, 14, 53, 98
1, 66950, Note_on_c, 13, 58, 0
1, 66950, Note_on_c, 14, 46, 98
1, 66952, Note_on_c, 15, 53, 0
1, 66953, Note_on_c, 13, 62, 0
1, 66953, Note_on_c, 13, 65, 0
1, 66953, Note_on_c, 15, 46, 0
1, 66953, Note_on_c, 11, 65, 60
1, 66959, Note_on_c, 9, 42, 95
1, 66960, Note_on_c, 3, 76, 104
1, 66961, Note_on_c, 1, 34, 116
1, 66970, Note_on_c, 13, 65, 61
1, 66971, Note_on_c, 13, 58, 60
1, 66971, Note_on_c, 15, 53, 98
1, 66972, Note_on_c, 13, 62, 60
1, 66972, Note_on_c, 15, 46, 98
1, 66979, Note_on_c, 9, 42, 0
1, 67061, Note_on_c, 1, 34, 0
1, 67081, Note_on_c, 1, 34, 115
1, 67169, Note_on_c, 11, 58, 0
1, 67169, Note_on_c, 11, 62, 0
1, 67169, Note_on_c, 14, 53, 0
1, 67170, Note_on_c, 14, 46, 0
1, 67173, Note_on_c, 11, 65, 0
1, 67178, Note_on_c, 7, 58, 0
1, 67179, Note_on_c, 7, 65, 0
1, 67180, Note_on_c, 8, 53, 0
1, 67181, Note_on_c, 1, 34, 0
1, 67182, Note_on_c, 8, 34, 0
1, 67182, Note_on_c, 8, 46, 0
1, 67188, Note_on_c, 14, 55, 99
1, 67189, Note_on_c, 11, 67, 61
1, 67190, Note_on_c, 13, 65, 0
1, 67191, Note_on_c, 13, 58, 0
1, 67191, Note_on_c, 15, 53, 0
1, 67191, Note_on_c, 14, 48, 99
1, 67192, Note_on_c, 13, 62, 0
1, 67192, Note_on_c, 15, 46, 0
1, 67192, Note_on_c, 11, 62, 60
1, 67192, Note_on_c, 11, 64, 60
1, 67199, Note_on_c, 9, 42, 126
1, 67200, Note_on_c, 1, 36, 115
1, 67200, Note_on_c, 8, 55, 61
1, 67201, Note_on_c, 8, 36, 60
1, 67202, Note_on_c, 7, 64, 61
1, 67202, Note_on_c, 8, 48, 60
1, 67202, Note_on_c, 9, 36, 126
1, 67209, Note_on_c, 15, 55, 99
1, 67210, Note_on_c, 13, 67, 61
1, 67210, Note_on_c, 15, 48, 99
1, 67211, Note_on_c, 13, 62, 60
1, 67211, Note_on_c, 13, 64, 61
1, 67219, Note_on_c, 9, 42, 0
1, 67222, Note_on_c, 9, 36, 0
1, 67340, Note_on_c, 1, 36, 0
1, 67408, Note_on_c, 14, 55, 0
1, 67409, Note_on_c, 11, 67, 0
1, 67411, Note_on_c, 14, 48, 0
1, 67412, Note_on_c, 11, 62, 0
1, 67412, Note_on_c, 11, 64, 0
1, 67412, System_exclusive, 6, 0, 32, 36, 0, 8, 247
1, 67420, Note_on_c, 3, 76, 0
1, 67429, Note_on_c, 15, 55, 0
1, 67430, Note_on_c, 13, 67, 0
1, 67430, Note_on_c, 15, 48, 0
1, 67430, Note_on_c, 11, 62, 61
1, 67430, Note_on_c, 11, 64, 61
1, 67431, Note_on_c, 13, 62, 0
1, 67431, Note_on_c, 13, 64, 0
1, 67432, Note_on_c, 14, 48, 98
1, 67432, Note_on_c, 14, 55, 98
1, 67433, Note_on_c, 11, 67, 60
1, 67440, Note_on_c, 3, 76, 104
1, 67440, Note_on_c, 9, 42, 91
1, 67442, Note_on_c, 1, 36, 112
1, 67449, Note_on_c, 13, 62, 61
1, 67449, Note_on_c, 13, 67, 60
1, 67451, Note_on_c, 13, 64, 61
1, 67451, Note_on_c, 15, 55, 98
1, 67453, Note_on_c, 15, 48, 98
1, 67460, Note_on_c, 9, 42, 0
1, 67542, Note_on_c, 1, 36, 0
1, 67559, Note_on_c, 1, 36, 115
1, 67650, Note_on_c, 11, 62, 0
1, 67650, Note_on_c, 11, 64, 0
1, 67653, Note_on_c, 11, 67, 0
1, 67659, Note_on_c, 1, 36, 0
1, 67661, Note_on_c, 7, 62, 0
1, 67668, Note_on_c, 11, 67, 60
1, 67669, Note_on_c, 13, 62, 0
1, 67669, Note_on_c, 13, 67, 0
1, 67671, Note_on_c, 13, 64, 0
1, 67671, Note_on_c, 11, 60, 61
1, 67671, Note_on_c, 11, 64, 61
1, 67678, Note_on_c, 9, 40, 126
1, 67680, Note_on_c, 7, 60, 60
1, 67680, Note_on_c, 9, 42, 127
1, 67682, Note_on_c, 1, 36, 116
1, 67688, Note_on_c, 13, 64, 60
1, 67689, Note_on_c, 13, 60, 60
1, 67689, Note_on_c, 13, 67, 61
1, 67698, Note_on_c, 9, 40, 0
1, 67700, Note_on_c, 9, 42, 0
1, 67782, Note_on_c, 1, 36, 0
1, 67888, Note_on_c, 11, 67, 0
1, 67891, Note_on_c, 11, 60, 0
1, 67891, Note_on_c, 11, 64, 0
1, 67892, Note_on_c, 14, 48, 0
1, 67892, Note_on_c, 14, 55, 0
1, 67900, Note_on_c, 3, 76, 0
1, 67908, Note_on_c, 13, 64, 0
1, 67908, Note_on_c, 14, 55, 99
1, 67909, Note_on_c, 13, 60, 0
1, 67909, Note_on_c, 13, 67, 0
1, 67909, Note_on_c, 11, 64, 60
1, 67909, Note_on_c, 14, 48, 98
1, 67911, Note_on_c, 15, 55, 0
1, 67911, Note_on_c, 11, 67, 60
1, 67912, Note_on_c, 11, 62, 61
1, 67913, Note_on_c, 15, 48, 0
1, 67920, Note_on_c, 3, 76, 105
1, 67921, Note_on_c, 9, 42, 94
1, 67923, Note_on_c, 1, 36, 118
1, 67929, Note_on_c, 15, 55, 99
1, 67930, Note_on_c, 13, 67, 61
1, 67931, Note_on_c, 13, 62, 60
1, 67931, Note_on_c, 15, 48, 98
1, 67932, Note_on_c, 13, 64, 60
1, 67941, Note_on_c, 9, 42, 0
1, 68008, Note_on_c, 14, 55, 0
1, 68009, Note_on_c, 11, 64, 0
1, 68009, Note_on_c, 14, 48, 0
1, 68011, Note_on_c, 11, 67, 0
1, 68012, Note_on_c, 11, 62, 0
1, 68023, Note_on_c, 1, 36, 0
1, 68029, Note_on_c, 15, 55, 0
1, 68029, Note_on_c, 11, 62, 60
1, 68029, Note_on_c, 14, 48, 99
1, 68029, Note_on_c, 14, 55, 99
1, 68030, Note_on_c, 13, 67, 0
1, 68031, Note_on_c, 13, 62, 0
1, 68031, Note_on_c, 15, 48, 0
1, 68031, Note_on_c, 11, 67, 61
1, 68032, Note_on_c, 13, 64, 0
1, 68033, Note_on_c, 11, 64, 61
1, 68040, Note_on_c, 1, 36, 117
1, 68049, Note_on_c, 13, 62, 61
1, 68050, Note_on_c, 13, 67, 61
1, 68050, Note_on_c, 15, 48, 99
1, 68051, Note_on_c, 13, 64, 60
1, 68053, Note_on_c, 15, 55, 99
1, 68129, Note_on_c, 11, 62, 0
1, 68129, Note_on_c, 14, 48, 0
1, 68129, Note_on_c, 14, 55, 0
1, 68131, Note_on_c, 11, 67, 0
1, 68133, Note_on_c, 11, 64, 0
1, 68140, Note_on_c, 1, 36, 0
1, 68140, Note_on_c, 3, 76, 0
1, 68140, Note_on_c, 7, 60, 0
1, 68149, Note_on_c, 13, 62, 0
1, 68149, Note_on_c, 11, 64, 60
1, 68150, Note_on_c, 13, 67, 0
1, 68150, Note_on_c, 15, 48, 0
1, 68150, Note_on_c, 14, 48, 98
1, 68150, Note_on_c, 14, 55, 99
1, 68151, Note_on_c, 13, 64, 0
1, 68152, Note_on_c, 11, 62, 61
1, 68153, Note_on_c, 15, 55, 0
1, 68153, Note_on_c, 11, 67, 60
1, 68159, Note_on_c, 9, 36, 126
1, 68160, Note_on_c, 3, 76, 105
1, 68160, Note_on_c, 9, 42, 127
1, 68162, Note_on_c, 1, 36, 111
1, 68162, Note_on_c, 7, 62, 61
1, 68171, Note_on_c, 13, 62, 60
1, 68171, Note_on_c, 13, 64, 61
1, 68171, Note_on_c, 13, 67, 60
1, 68173, Note_on_c, 15, 48, 98
1, 68173, Note_on_c, 15, 55, 99
1, 68179, Note_on_c, 9, 36, 0
1, 68180, Note_on_c, 9, 42, 0
1, 68302, Note_on_c, 1, 36, 0
1, 68369, Note_on_c, 11, 64, 0
1, 68370, Note_on_c, 14, 48, 0
1, 68370, Note_on_c, 14, 55, 0
1, 68372, Note_on_c, 11, 62, 0
1, 68373, Note_on_c, 11, 67, 0
1, 68380, Note_on_c, 3, 76, 0
1, 68382, Note_on_c, 7, 62, 0
1, 68388, Note_on_c, 11, 67, 60
1, 68388, Note_on_c, 14, 48, 98
1, 68389, Note_on_c, 11, 60, 61
1, 68389, Note_on_c, 14, 55, 98
1, 68391, Note_on_c, 13, 62, 0
1, 68391, Note_on_c, 13, 64, 0
1, 68391, Note_on_c, 13, 67, 0
1, 68391, Note_on_c, 11, 64, 61
1, 68393, Note_on_c, 15, 48, 0
1, 68393, Note_on_c, 15, 55, 0
1, 68399, Note_on_c, 9, 36, 127
1, 68400, Note_on_c, 3, 77, 104
1, 68401, Note_on_c, 1, 36, 112
1, 68401, Note_on_c, 9, 42, 96
1, 68402, Note_on_c, 7, 60, 60
1, 68409, Note_on_c, 13, 67, 61
1, 68410, Note_on_c, 13, 60, 61
1, 68410, Note_on_c, 13, 64, 60
1, 68411, Note_on_c, 15, 48, 98
1, 68411, Note_on_c, 15, 55, 98
1, 68419, Note_on_c, 9, 36, 0
1, 68421, Note_on_c, 9, 42, 0
1, 68541, Note_on_c, 1, 36, 0
1, 68608, Note_on_c, 11, 67, 0
1, 68609, Note_on_c, 11, 60, 0
1, 68611, Note_on_c, 11, 64, 0
1, 68620, Note_on_c, 3, 77, 0
1, 68629, Note_on_c, 13, 67, 0
1, 68630, Note_on_c, 13, 60, 0
1, 68630, Note_on_c, 13, 64, 0
1, 68630, Note_on_c, 11, 64, 60
1, 68630, Note_on_c, 11, 67, 60
1, 68631, Note_on_c, 11, 60, 61
1, 68640, Note_on_c, 3, 79, 104
1, 68641, Note_on_c, 1, 36, 112
1, 68641, Note_on_c, 9, 42, 126
1, 68642, Note_on_c, 9, 40, 127
1, 68648, Note_on_c, 13, 67, 61
1, 68651, Note_on_c, 13, 64, 60
1, 68653, Note_on_c, 13, 60, 60
1, 68661, Note_on_c, 9, 42, 0
1, 68662, Note_on_c, 9, 40, 0
1, 68781, Note_on_c, 1, 36, 0
1, 68848, Note_on_c, 14, 48, 0
1, 68849, Note_on_c, 14, 55, 0
1, 68850, Note_on_c, 11, 64, 0
1, 68850, Note_on_c, 11, 67, 0
1, 68851, Note_on_c, 11, 60, 0
1, 68860, Note_on_c, 3, 79, 0
1, 68868, Note_on_c, 13, 67, 0
1, 68869, Note_on_c, 14, 55, 99
1, 68870, Note_on_c, 11, 60, 61
1, 68870, Note_on_c, 11, 64, 60
1, 68871, Note_on_c, 13, 64, 0
1, 68871, Note_on_c, 15, 48, 0
1, 68871, Note_on_c, 15, 55, 0
1, 68871, Note_on_c, 14, 48, 99
1, 68873, Note_on_c, 13, 60, 0
1, 68873, Note_on_c, 11, 67, 60
1, 68880, Note_on_c, 1, 36, 119
1, 68880, Note_on_c, 3, 82, 105
1, 68882, Note_on_c, 9, 42, 95
1, 68888, Note_on_c, 15, 55, 99
1, 68889, Note_on_c, 13, 60, 61
1, 68891, Note_on_c, 13, 67, 61
1, 68891, Note_on_c, 15, 48, 99
1, 68892, Note_on_c, 13, 64, 60
1, 68902, Note_on_c, 9, 42, 0
1, 68969, Note_on_c, 14, 55, 0
1, 68971, Note_on_c, 14, 48, 0
1, 68980, Note_on_c, 1, 36, 0
1, 68988, Note_on_c, 15, 55, 0
1, 68991, Note_on_c, 15, 48, 0
1, 68991, Note_on_c, 14, 55, 98
1, 68992, Note_on_c, 14, 48, 98
1, 68999, Note_on_c, 1, 36, 115
1, 69010, Note_on_c, 15, 48, 98
1, 69010, Note_on_c, 15, 55, 98
1, 69090, Note_on_c, 11, 60, 0
1, 69090, Note_on_c, 11, 64, 0
1, 69091, Note_on_c, 14, 55, 0
1, 69092, Note_on_c, 14, 48, 0
1, 69093, Note_on_c, 11, 67, 0
1, 69099, Note_on_c, 1, 36, 0
1, 69100, Note_on_c, 8, 55, 0
1, 69101, Note_on_c, 8, 36, 0
1, 69102, Note_on_c, 7, 60, 0
1, 69102, Note_on_c, 7, 64, 0
1, 69102, Note_on_c, 8, 48, 0
1, 69108, Note_on_c, 14, 57, 99
1, 69109, Note_on_c, 13, 60, 0
1, 69109, Note_on_c, 14, 50, 99
1, 69110, Note_on_c, 15, 48, 0
1, 69110, Note_on_c, 15, 55, 0
1, 69110, Note_on_c, 11, 62, 61
1, 69110, Note_on_c, 11, 69, 60
1, 69111, Note_on_c, 13, 67, 0
1, 69111, Note_on_c, 11, 57, 61
1, 69112, Note_on_c, 13, 64, 0
1, 69119, Note_on_c, 7, 65, 60
1, 69120, Note_on_c, 9, 36, 126
1, 69121, Note_on_c, 1, 26, 114
1, 69121, Note_on_c, 8, 38, 61
1, 69122, Note_on_c, 7, 62, 61
1, 69122, Note_on_c, 9, 42, 127
1, 69123, Note_on_c, 8, 50, 61
1, 69123, Note_on_c, 8, 57, 60
1, 69128, Note_on_c, 13, 69, 60
1, 69130, Note_on_c, 13, 57, 61
1, 69130, Note_on_c, 15, 50, 99
1, 69131, Note_on_c, 15, 57, 99
1, 69133, Note_on_c, 13, 62, 61
1, 69140, Note_on_c, 9, 36, 0
1, 69142, Note_on_c, 9, 42, 0
1, 69261, Note_on_c, 1, 26, 0
1, 69328, Note_on_c, 14, 57, 0
1, 69329, Note_on_c, 14, 50, 0
1, 69330, Note_on_c, 11, 62, 0
1, 69330, Note_on_c, 11, 69, 0
1, 69331, Note_on_c, 11, 57, 0
1, 69340, Note_on_c, 3, 82, 0
1, 69348, Note_on_c, 13, 69, 0
1, 69350, Note_on_c, 13, 57, 0
1, 69350, Note_on_c, 15, 50, 0
1, 69350, Note_on_c, 14, 50, 98
1, 69351, Note_on_c, 15, 57, 0
1, 69351, Note_on_c, 11, 57, 61
1, 69351, Note_on_c, 14, 57, 98
1, 69352, Note_on_c, 11, 62, 60
1, 69353, Note_on_c, 13, 62, 0
1, 69353, Note_on_c, 11, 69, 61
1, 69360, Note_on_c, 3, 81, 105
1, 69360, Note_on_c, 9, 42, 90
1, 69361, Note_on_c, 1, 26, 112
1, 69370, Note_on_c, 15, 50, 98
1, 69371, Note_on_c, 13, 62, 60
1, 69371, Note_on_c, 15, 57, 98
1, 69372, Note_on_c, 13, 57, 60
1, 69373, Note_on_c, 13, 69, 61
1, 69380, Note_on_c, 9, 42, 0
1, 69461, Note_on_c, 1, 26, 0
1, 69480, Note_on_c, 1, 26, 111
1, 69571, Note_on_c, 11, 57, 0
1, 69572, Note_on_c, 11, 62, 0
1, 69573, Note_on_c, 11, 69, 0
1, 69580, Note_on_c, 1, 26, 0
1, 69588, Note_on_c, 11, 69, 60
1, 69590, Note_on_c, 11, 57, 60
1, 69590, Note_on_c, 11, 62, 61
1, 69591, Note_on_c, 13, 62, 0
1, 69592, Note_on_c, 13, 57, 0
1, 69593, Note_on_c, 13, 69, 0
1, 69600, Note_on_c, 1, 26, 110
1, 69601, Note_on_c, 9, 40, 126
1, 69602, Note_on_c, 9, 42, 126
1, 69610, Note_on_c, 13, 57, 60
1, 69611, Note_on_c, 13, 62, 61
1, 69613, Note_on_c, 13, 69, 61
1, 69621, Note_on_c, 9, 40, 0
1, 69622, Note_on_c, 9, 42, 0
1, 69700, Note_on_c, 1, 26, 0
1, 69808, Note_on_c, 11, 69, 0
1, 69810, Note_on_c, 11, 57, 0
1, 69810, Note_on_c, 11, 62, 0
1, 69810, Note_on_c, 14, 50, 0
1, 69811, Note_on_c, 14, 57, 0
1, 69820, Note_on_c, 3, 81, 0
1, 69828, Note_on_c, 11, 62, 61
1, 69829, Note_on_c, 11, 69, 60
1, 69830, Note_on_c, 13, 57, 0
1, 69830, Note_on_c, 15, 50, 0
1, 69830, Note_on_c, 11, 57, 60
1, 69831, Note_on_c, 13, 62, 0
1, 69831, Note_on_c, 15, 57, 0
1, 69831, Note_on_c, 14, 57, 99
1, 69833, Note_on_c, 13, 69, 0
1, 69833, Note_on_c, 14, 50, 98
1, 69839, Note_on_c, 9, 42, 95
1, 69840, Note_on_c, 3, 81, 104
1, 69841, Note_on_c, 1, 26, 115
1, 69848, Note_on_c, 13, 57, 60
1, 69849, Note_on_c, 15, 57, 99
1, 69850, Note_on_c, 13, 62, 61
1, 69852, Note_on_c, 13, 69, 60
1, 69853, Note_on_c, 15, 50, 98
1, 69859, Note_on_c, 9, 42, 0
1, 69928, Note_on_c, 11, 62, 0
1, 69929, Note_on_c, 11, 69, 0
1, 69930, Note_on_c, 11, 57, 0
1, 69931, Note_on_c, 14, 57, 0
1, 69933, Note_on_c, 14, 50, 0
1, 69941, Note_on_c, 1, 26, 0
1, 69948, Note_on_c, 13, 57, 0
1, 69948, Note_on_c, 11, 57, 61
1, 69949, Note_on_c, 15, 57, 0
1, 69950, Note_on_c, 13, 62, 0
1, 69950, Note_on_c, 14, 57, 99
1, 69951, Note_on_c, 11, 62, 61
1, 69951, Note_on_c, 14, 50, 99
1, 69952, Note_on_c, 13, 69, 0
1, 69953, Note_on_c, 15, 50, 0
1, 69953, Note_on_c, 11, 69, 60
1, 69961, Note_on_c, 1, 26, 117
1, 69969, Note_on_c, 13, 57, 60
1, 69970, Note_on_c, 13, 62, 61
1, 69970, Note_on_c, 15, 57, 99
1, 69971, Note_on_c, 13, 69, 61
1, 69971, Note_on_c, 15, 50, 99
1, 70048, Note_on_c, 11, 57, 0
1, 70050, Note_on_c, 14, 57, 0
1, 70051, Note_on_c, 11, 62, 0
1, 70051, Note_on_c, 14, 50, 0
1, 70053, Note_on_c, 11, 69, 0
1, 70061, Note_on_c, 1, 26, 0
1, 70068, Note_on_c, 11, 62, 60
1, 70069, Note_on_c, 13, 57, 0
1, 70070, Note_on_c, 13, 62, 0
1, 70070, Note_on_c, 15, 57, 0
1, 70071, Note_on_c, 13, 69, 0
1, 70071, Note_on_c, 15, 50, 0
1, 70071, Note_on_c, 14, 50, 98
1, 70072, Note_on_c, 11, 57, 61
1, 70072, Note_on_c, 11, 69, 60
1, 70073, Note_on_c, 14, 57, 99
1, 70080, Note_on_c, 1, 26, 110
1, 70080, Note_on_c, 9, 36, 127
1, 70080, Note_on_c, 9, 42, 127
1, 70088, Note_on_c, 13, 69, 60
1, 70089, Note_on_c, 13, 57, 60
1, 70089, Note_on_c, 15, 57, 98
1, 70091, Note_on_c, 15, 50, 99
1, 70092, Note_on_c, 13, 62, 61
1, 70100, Note_on_c, 9, 36, 0
1, 70100, Note_on_c, 9, 42, 0
1, 70180, Note_on_c, 3, 81, 0
1, 70200, Note_on_c, 3, 79, 104
1, 70220, Note_on_c, 1, 26, 0
1, 70288, Note_on_c, 11, 62, 0
1, 70291, Note_on_c, 14, 50, 0
1, 70292, Note_on_c, 11, 57, 0
1, 70292, Note_on_c, 11, 69, 0
1, 70293, Note_on_c, 14, 57, 0
1, 70308, Note_on_c, 13, 69, 0
1, 70308, Note_on_c, 14, 50, 98
1, 70309, Note_on_c, 13, 57, 0
1, 70309, Note_on_c, 15, 57, 0
1, 70309, Note_on_c, 14, 57, 98
1, 70311, Note_on_c, 15, 50, 0
1, 70311, Note_on_c, 11, 57, 61
1, 70311, Note_on_c, 11, 62, 61
1, 70311, Note_on_c, 11, 69, 60
1, 70312, Note_on_c, 13, 62, 0
1, 70318, Note_on_c, 9, 42, 96
1, 70320, Note_on_c, 1, 26, 115
1, 70330, Note_on_c, 13, 69, 61
1, 70330, Note_on_c, 15, 50, 98
1, 70332, Note_on_c, 15, 57, 98
1, 70333, Note_on_c, 13, 57, 60
1, 70333, Note_on_c, 13, 62, 60
1, 70338, Note_on_c, 9, 42, 0
1, 70460, Note_on_c, 1, 26, 0
1, 70531, Note_on_c, 11, 57, 0
1, 70531, Note_on_c, 11, 62, 0
1, 70531, Note_on_c, 11, 69, 0
1, 70540, Note_on_c, 3, 79, 0
1, 70550, Note_on_c, 13, 69, 0
1, 70550, Note_on_c, 11, 69, 61
1, 70551, Note_on_c, 11, 57, 60
1, 70551, Note_on_c, 11, 62, 60
1, 70553, Note_on_c, 13, 57, 0
1, 70553, Note_on_c, 13, 62, 0
1, 70558, Note_on_c, 9, 42, 126
1, 70560, Note_on_c, 3, 81, 105
1, 70560, Note_on_c, 9, 40, 126
1, 70561, Note_on_c, 1, 26, 116
1, 70570, Note_on_c, 13, 62, 61
1, 70571, Note_on_c, 13, 69, 60
1, 70573, Note_on_c, 13, 57, 61
1, 70578, Note_on_c, 9, 42, 0
1, 70580, Note_on_c, 9, 40, 0
1, 70701, Note_on_c, 1, 26, 0
1, 70768, Note_on_c, 14, 50, 0
1, 70769, Note_on_c, 14, 57, 0
1, 70770, Note_on_c, 11, 69, 0
1, 70771, Note_on_c, 11, 57, 0
1, 70771, Note_on_c, 11, 62, 0
1, 70780, Note_on_c, 3, 81, 0
1, 70788, Note_on_c, 11, 57, 61
1, 70789, Note_on_c, 11, 62, 61
1, 70789, Note_on_c, 14, 57, 99
1, 70790, Note_on_c, 13, 62, 0
1, 70790, Note_on_c, 15, 50, 0
1, 70791, Note_on_c, 13, 69, 0
1, 70791, Note_on_c, 14, 50, 99
1, 70792, Note_on_c, 15, 57, 0
1, 70792, Note_on_c, 11, 69, 60
1, 70793, Note_on_c, 13, 57, 0
1, 70799, Note_on_c, 9, 42, 95
1, 70800, Note_on_c, 3, 77, 104
1, 70801, Note_on_c, 1, 26, 118
1, 70809, Note_on_c, 15, 50, 99
1, 70809, Note_on_c, 15, 57, 99
1, 70811, Note_on_c, 13, 57, 61
1, 70811, Note_on_c, 13, 62, 60
1, 70811, Note_on_c, 13, 69, 61
1, 70819, Note_on_c, 9, 42, 0
1, 70888, Note_on_c, 11, 57, 0
1, 70889, Note_on_c, 11, 62, 0
1, 70889, Note_on_c, 14, 57, 0
1, 70891, Note_on_c, 14, 50, 0
1, 70892, Note_on_c, 11, 69, 0
1, 70901, Note_on_c, 1, 26, 0
1, 70909, Note_on_c, 15, 50, 0
1, 70909, Note_on_c, 15, 57, 0
1, 70910, Note_on_c, 11, 69, 60
1, 70910, Note_on_c, 14, 50, 98
1, 70911, Note_on_c, 13, 57, 0
1, 70911, Note_on_c, 13, 62, 0
1, 70911, Note_on_c, 13, 69, 0
1, 70911, Note_on_c, 11, 57, 61
1, 70912, Note_on_c, 11, 62, 61
1, 70913, Note_on_c, 14, 57, 98
1, 70920, Note_on_c, 1, 26, 111
1, 70929, Note_on_c, 13, 57, 60
1, 70931, Note_on_c, 13, 62, 60
1, 70931, Note_on_c, 13, 69, 61
1, 70931, Note_on_c, 15, 57, 98
1, 70933, Note_on_c, 15, 50, 98
1, 71010, Note_on_c, 11, 69, 0
1, 71010, Note_on_c, 14, 50, 0
1, 71011, Note_on_c, 11, 57, 0
1, 71012, Note_on_c, 11, 62, 0
1, 71013, Note_on_c, 14, 57, 0
1, 71020, Note_on_c, 1, 26, 0
1, 71028, Note_on_c, 11, 57, 60
1, 71028, Note_on_c, 14, 50, 99
1, 71029, Note_on_c, 13, 57, 0
1, 71030, Note_on_c, 11, 62, 60
1, 71030, Note_on_c, 14, 57, 99
1, 71031, Note_on_c, 13, 62, 0
1, 71031, Note_on_c, 13, 69, 0
1, 71031, Note_on_c, 15, 57, 0
1, 71033, Note_on_c, 15, 50, 0
1, 71033, Note_on_c, 11, 69, 61
1, 71038, Note_on_c, 1, 26, 115
1, 71038, Note_on_c, 9, 36, 127
1, 71040, Note_on_c, 9, 42, 126
1, 71048, Note_on_c, 13, 57, 61
1, 71049, Note_on_c, 13, 62, 60
1, 71050, Note_on_c, 13, 69, 60
1, 71053, Note_on_c, 15, 50, 99
1, 71053, Note_on_c, 15, 57, 99
1, 71058, Note_on_c, 9, 36, 0
1, 71060, Note_on_c, 9, 42, 0
1, 71178, Note_on_c, 1, 26, 0
1, 71198, System_exclusive, 23, 0, 32, 36, 0, 4, 66, 69, 69, 78, 32, 76, 73, 86, 73, 78, 71, 32, 73, 78, 32, 65, 10, 247
1, 71203, System_exclusive, 30, 0, 32, 36, 0, 5, 70, 65, 78, 84, 65, 83, 89, 32, 87, 73, 84, 72, 79, 85, 84, 32, 77, 69, 65, 78, 73, 78, 71, 10, 247
1, 71208, System_exclusive, 38, 0, 32, 36, 0, 6, 73, 84, 39, 83, 32, 78, 79, 84, 32, 79, 75, 65, 89, 32, 73, 32, 68, 79, 78, 39, 84, 32, 70, 69, 69, 76, 32, 83, 65, 70, 69, 10, 247
1, 71213, System_exclusive, 21, 0, 32, 36, 0, 7, 73, 32, 78, 69, 69, 68, 32, 84, 79, 32, 80, 82, 65, 89, 10, 247
1, 71223, System_exclusive, 6, 0, 32, 36, 0, 8, 247
1, 71248, Note_on_c, 11, 57, 0
1, 71248, Note_on_c, 14, 50, 0
1, 71250, Note_on_c, 11, 62, 0
1, 71250, Note_on_c, 14, 57, 0
1, 71253, Note_on_c, 11, 69, 0
1, 71260, Note_on_c, 3, 77, 0
1, 71268, Note_on_c, 13, 57, 0
1, 71268, Note_on_c, 11, 62, 60
1, 71269, Note_on_c, 13, 62, 0
1, 71269, Note_on_c, 11, 57, 61
1, 71269, Note_on_c, 14, 50, 98
1, 71270, Note_on_c, 13, 69, 0
1, 71271, Note_on_c, 11, 69, 61
1, 71272, Note_on_c, 14, 57, 98
1, 71273, Note_on_c, 15, 50, 0
1, 71273, Note_on_c, 15, 57, 0
1, 71280, Note_on_c, 3, 74, 105
1, 71281, Note_on_c, 1, 26, 116
1, 71282, Note_on_c, 9, 42, 91
1, 71288, Note_on_c, 13, 69, 61
1, 71289, Note_on_c, 13, 62, 61
1, 71290, Note_on_c, 15, 50, 98
1, 71290, Note_on_c, 15, 57, 98
1, 71291, Note_on_c, 13, 57, 60
1, 71302, Note_on_c, 9, 42, 0
1, 71381, Note_on_c, 1, 26, 0
1, 71402, Note_on_c, 1, 26, 118
1, 71488, Note_on_c, 11, 62, 0
1, 71489, Note_on_c, 11, 57, 0
1, 71491, Note_on_c, 11, 69, 0
1, 71502, Note_on_c, 1, 26, 0
1, 71508, Note_on_c, 13, 69, 0
1, 71509, Note_on_c, 13, 62, 0
1, 71510, Note_on_c, 11, 62, 60
1, 71510, Note_on_c, 11, 69, 61
1, 71511, Note_on_c, 13, 57, 0
1, 71513, Note_on_c, 11, 57, 60
1, 71519, Note_on_c, 9, 42, 127
1, 71520, Note_on_c, 9, 40, 127
1, 71521, Note_on_c, 1, 26, 115
1, 71530, Note_on_c, 13, 57, 60
1, 71531, Note_on_c, 13, 62, 61
1, 71531, Note_on_c, 13, 69, 60
1, 71539, Note_on_c, 9, 42, 0
1, 71540, Note_on_c, 9, 40, 0
1, 71621, Note_on_c, 1, 26, 0
1, 71729, Note_on_c, 14, 50, 0
1, 71730, Note_on_c, 11, 62, 0
1, 71730, Note_on_c, 11, 69, 0
1, 71732, Note_on_c, 14, 57, 0
1, 71733, Note_on_c, 11, 57, 0
1, 71740, Note_on_c, 3, 74, 0
1, 71749, Note_on_c, 11, 62, 60
1, 71750, Note_on_c, 13, 57, 0
1, 71750, Note_on_c, 15, 50, 0
1, 71750, Note_on_c, 15, 57, 0
1, 71750, Note_on_c, 14, 57, 99
1, 71751, Note_on_c, 13, 62, 0
1, 71751, Note_on_c, 13, 69, 0
1, 71751, Note_on_c, 11, 69, 61
1, 71752, Note_on_c, 11, 57, 61
1, 71753, Note_on_c, 14, 50, 98
1, 71759, Note_on_c, 1, 26, 111
1, 71760, Note_on_c, 3, 74, 105
1, 71762, Note_on_c, 9, 42, 94
1, 71770, Note_on_c, 13, 57, 61
1, 71771, Note_on_c, 13, 69, 61
1, 71771, Note_on_c, 15, 50, 99
1, 71772, Note_on_c, 15, 57, 98
1, 71773, Note_on_c, 13, 62, 60
1, 71782, Note_on_c, 9, 42, 0
1, 71850, Note_on_c, 14, 57, 0
1, 71853, Note_on_c, 14, 50, 0
1, 71859, Note_on_c, 1, 26, 0
1, 71871, Note_on_c, 15, 50, 0
1, 71872, Note_on_c, 15, 57, 0
1, 71872, Note_on_c, 14, 57, 99
1, 71873, Note_on_c, 14, 50, 99
1, 71880, Note_on_c, 1, 26, 116
1, 71888, Note_on_c, 15, 50, 99
1, 71890, Note_on_c, 15, 57, 99
1, 71969, Note_on_c, 11, 62, 0
1, 71971, Note_on_c, 11, 69, 0
1, 71972, Note_on_c, 11, 57, 0
1, 71972, Note_on_c, 14, 57, 0
1, 71973, Note_on_c, 14, 50, 0
1, 71980, Note_on_c, 1, 26, 0
1, 71980, Note_on_c, 3, 74, 0
1, 71988, Note_on_c, 15, 50, 0
1, 71989, Note_on_c, 14, 57, 98
1, 71990, Note_on_c, 13, 57, 0
1, 71990, Note_on_c, 15, 57, 0
1, 71990, Note_on_c, 11, 69, 60
1, 71991, Note_on_c, 13, 69, 0
1, 71991, Note_on_c, 11, 57, 60
1, 71991, Note_on_c, 14, 50, 99
1, 71992, Note_on_c, 11, 62, 61
1, 71993, Note_on_c, 13, 62, 0
1, 71999, Note_on_c, 9, 42, 127
1, 72000, Note_on_c, 1, 26, 116
1, 72000, Note_on_c, 3, 74, 104
1, 72001, Note_on_c, 9, 36, 126
1, 72009, Note_on_c, 15, 57, 98
1, 72010, Note_on_c, 13, 57, 61
1, 72010, Note_on_c, 13, 62, 60
1, 72010, Note_on_c, 13, 69, 60
1, 72011, Note_on_c, 15, 50, 99
1, 72019, Note_on_c, 9, 42, 0
1, 72021, Note_on_c, 9, 36, 0
1, 72140, Note_on_c, 1, 26, 0
1, 72209, Note_on_c, 14, 57, 0
1, 72210, Note_on_c, 11, 69, 0
1, 72211, Note_on_c, 11, 57, 0
1, 72211, Note_on_c, 14, 50, 0
1, 72212, Note_on_c, 11, 62, 0
1, 72220, Note_on_c, 3, 74, 0
1, 72229, Note_on_c, 15, 57, 0
1, 72229, Note_on_c, 11, 57, 61
1, 72229, Note_on_c, 14, 50, 98
1, 72230, Note_on_c, 13, 57, 0
1, 72230, Note_on_c, 13, 62, 0
1, 72230, Note_on_c, 13, 69, 0
1, 72231, Note_on_c, 15, 50, 0
1, 72232, Note_on_c, 11, 62, 60
1, 72232, Note_on_c, 11, 69, 60
1, 72232, Note_on_c, 14, 57, 98
1, 72239, Note_on_c, 9, 36, 127
1, 72239, Note_on_c, 9, 42, 96
1, 72240, Note_on_c, 3, 76, 105
1, 72241, Note_on_c, 1, 26, 113
1, 72248, Note_on_c, 15, 50, 98
1, 72251, Note_on_c, 13, 57, 61
1, 72251, Note_on_c, 13, 62, 61
1, 72252, Note_on_c, 13, 69, 60
1, 72253, Note_on_c, 15, 57, 98
1, 72259, Note_on_c, 9, 36, 0
1, 72259, Note_on_c, 9, 42, 0
1, 72329, Note_on_c, 11, 57, 0
1, 72332, Note_on_c, 11, 62, 0
1, 72332, Note_on_c, 11, 69, 0
1, 72350, Note_on_c, 11, 62, 61
1, 72350, Note_on_c, 11, 69, 60
1, 72351, Note_on_c, 13, 57, 0
1, 72351, Note_on_c, 13, 62, 0
1, 72351, Note_on_c, 11, 57, 61
1, 72352, Note_on_c, 13, 69, 0
1, 72369, Note_on_c, 13, 57, 60
1, 72370, Note_on_c, 13, 69, 61
1, 72372, Note_on_c, 13, 62, 61
1, 72381, Note_on_c, 1, 26, 0
1, 72450, Note_on_c, 11, 62, 0
1, 72450, Note_on_c, 11, 69, 0
1, 72451, Note_on_c, 11, 57, 0
1, 72460, Note_on_c, 3, 76, 0
1, 72469, Note_on_c, 13, 57, 0
1, 72469, Note_on_c, 11, 69, 61
1, 72470, Note_on_c, 13, 69, 0
1, 72470, Note_on_c, 11, 57, 60
1, 72472, Note_on_c, 13, 62, 0
1, 72473, Note_on_c, 11, 62, 61
1, 72479, Note_on_c, 9, 40, 127
1, 72480, Note_on_c, 3, 77, 104
1, 72480, Note_on_c, 9, 42, 126
1, 72482, Note_on_c, 1, 26, 112
1, 72489, Note_on_c, 13, 57, 60
1, 72489, Note_on_c, 13, 62, 60
1, 72489, Note_on_c, 13, 69, 61
1, 72499, Note_on_c, 9, 40, 0
1, 72500, Note_on_c, 9, 42, 0
1, 72622, Note_on_c, 1, 26, 0
1, 72689, Note_on_c, 11, 69, 0
1, 72689, Note_on_c, 14, 50, 0
1, 72690, Note_on_c, 11, 57, 0
1, 72692, Note_on_c, 14, 57, 0
1, 72693, Note_on_c, 11, 62, 0
1, 72700, Note_on_c, 3, 77, 0
1, 72708, Note_on_c, 15, 50, 0
1, 72709, Note_on_c, 13, 57, 0
1, 72709, Note_on_c, 13, 62, 0
1, 72709, Note_on_c, 13, 69, 0
1, 72709, Note_on_c, 11, 69, 60
1, 72710, Note_on_c, 14, 50, 99
1, 72712, Note_on_c, 11, 62, 60
1, 72712, Note_on_c, 14, 57, 99
1, 72713, Note_on_c, 15, 57, 0
1, 72713, Note_on_c, 11, 57, 61
1, 72718, Note_on_c, 1, 26, 113
1, 72719, Note_on_c, 9, 42, 95
1, 72720, Note_on_c, 3, 81, 104
1, 72729, Note_on_c, 13, 57, 60
1, 72730, Note_on_c, 15, 50, 99
1, 72730, Note_on_c, 15, 57, 99
1, 72733, Note_on_c, 13, 62, 61
1, 72733, Note_on_c, 13, 69, 61
1, 72739, Note_on_c, 9, 42, 0
1, 72760, System_exclusive, 6, 0, 32, 36, 0, 8, 247
1, 72818, Note_on_c, 1, 26, 0
1, 72840, Note_on_c, 1, 26, 113
1, 72929, Note_on_c, 11, 69, 0
1, 72930, Note_on_c, 14, 50, 0
1, 72932, Note_on_c, 11, 62, 0
1, 72932, Note_on_c, 14, 57, 0
1, 72933, Note_on_c, 11, 57, 0
1, 72940, Note_on_c, 1, 26, 0
1, 72940, Note_on_c, 3, 81, 0
1, 72941, Note_on_c, 8, 38, 0
1, 72943, Note_on_c, 8, 50, 0
1, 72943, Note_on_c, 8, 57, 0
1, 72949, Note_on_c, 13, 57, 0
1, 72950, Note_on_c, 15, 50, 0
1, 72950, Note_on_c, 15, 57, 0
1, 72950, Note_on_c, 11, 62, 61
1, 72950, Note_on_c, 14, 53, 98
1, 72951, Note_on_c, 14, 46, 98
1, 72952, Note_on_c, 11, 58, 60
1, 72952, Note_on_c, 11, 65, 60
1, 72953, Note_on_c, 13, 62, 0
1, 72953, Note_on_c, 13, 69, 0
1, 72958, Note_on_c, 7, 58, 61
1, 72960, Note_on_c, 1, 34, 116
1, 72960, Note_on_c, 3, 82, 105
1, 72960, Note_on_c, 8, 53, 60
1, 72961, Note_on_c, 8, 34, 61
1, 72961, Note_on_c, 9, 36, 126
1, 72962, Note_on_c, 8, 46, 61
1, 72962, Note_on_c, 9, 42, 127
1, 72969, Note_on_c, 13, 58, 60
1, 72970, Note_on_c, 15, 46, 98
1, 72971, Note_on_c, 13, 62, 61
1, 72972, Note_on_c, 13, 65, 60
1, 72972, Note_on_c, 15, 53, 98
1, 72981, Note_on_c, 9, 36, 0
1, 72982, Note_on_c, 9, 42, 0
1, 73100, Note_on_c, 1, 34, 0
1, 73170, Note_on_c, 11, 62, 0
1, 73170, Note_on_c, 14, 53, 0
1, 73171, Note_on_c, 14, 46, 0
1, 73172, Note_on_c, 11, 58, 0
1, 73172, Note_on_c, 11, 65, 0
1, 73189, Note_on_c, 13, 58, 0
1, 73189, Note_on_c, 11, 62, 61
1, 73190, Note_on_c, 15, 46, 0
1, 73190, Note_on_c, 11, 65, 61
1, 73190, Note_on_c, 14, 46, 99
1, 73190, Note_on_c, 14, 53, 99
1, 73191, Note_on_c, 13, 62, 0
1, 73192, Note_on_c, 13, 65, 0
1, 73192, Note_on_c, 15, 53, 0
1, 73192, Note_on_c, 11, 58, 60
1, 73200, Note_on_c, 1, 34, 119
1, 73202, Note_on_c, 9, 42, 90
1, 73209, Note_on_c, 13, 58, 60
1, 73209, Note_on_c, 13, 62, 61
1, 73210, Note_on_c, 15, 46, 99
1, 73211, Note_on_c, 13, 65, 61
1, 73211, Note_on_c, 15, 53, 99
1, 73222, Note_on_c, 9, 42, 0
1, 73300, Note_on_c, 1, 34, 0
1, 73321, Note_on_c, 1, 34, 112
1, 73409, Note_on_c, 11, 62, 0
1, 73410, Note_on_c, 11, 65, 0
1, 73412, Note_on_c, 11, 58, 0
1, 73420, Note_on_c, 3, 82, 0
1, 73421, Note_on_c, 1, 34, 0
1, 73429, Note_on_c, 13, 58, 0
1, 73429, Note_on_c, 13, 62, 0
1, 73431, Note_on_c, 13, 65, 0
1, 73431, Note_on_c, 11, 58, 60
1, 73431, Note_on_c, 11, 65, 61
1, 73432, Note_on_c, 11, 62, 60
1, 73439, Note_on_c, 1, 34, 112
1, 73440, Note_on_c, 3, 82, 105
1, 73442, Note_on_c, 9, 42, 126
1, 73443, Note_on_c, 9, 40, 126
1, 73448, Note_on_c, 13, 58, 60
1, 73448, Note_on_c, 13, 62, 60
1, 73450, Note_on_c, 13, 65, 61
1, 73462, Note_on_c, 9, 42, 0
1, 73463, Note_on_c, 9, 40, 0
1, 73539, Note_on_c, 1, 34, 0
1, 73650, Note_on_c, 14, 46, 0
1, 73650, Note_on_c, 14, 53, 0
1, 73651, Note_on_c, 11, 58, 0
1, 73651, Note_on_c, 11, 65, 0
1, 73652, Note_on_c, 11, 62, 0
1, 73668, Note_on_c, 13, 58, 0
1, 73668, Note_on_c, 13, 62, 0
1, 73669, Note_on_c, 11, 58, 61
1, 73669, Note_on_c, 14, 53, 98
1, 73670, Note_on_c, 13, 65, 0
1, 73670, Note_on_c, 15, 46, 0
1, 73671, Note_on_c, 15, 53, 0
1, 73672, Note_on_c, 11, 62, 61
1, 73673, Note_on_c, 11, 65, 60
1, 73673, Note_on_c, 14, 46, 98
1, 73678, Note_on_c, 9, 42, 95
1, 73682, Note_on_c, 1, 34, 115
1, 73689, Note_on_c, 13, 62, 61
1, 73689, Note_on_c, 15, 46, 98
1, 73691, Note_on_c, 13, 65, 60
1, 73692, Note_on_c, 13, 58, 60
1, 73692, Note_on_c, 15, 53, 98
1, 73698, Note_on_c, 9, 42, 0
1, 73769, Note_on_c, 14, 53, 0
1, 73773, Note_on_c, 14, 46, 0
1, 73782, Note_on_c, 1, 34, 0
1, 73789, Note_on_c, 15, 46, 0
1, 73789, Note_on_c, 14, 46, 99
1, 73790, Note_on_c, 14, 53, 98
1, 73792, Note_on_c, 15, 53, 0
1, 73799, Note_on_c, 1, 34, 117
1, 73809, Note_on_c, 15, 46, 99
1, 73812, Note_on_c, 15, 53, 98
1, 73889, Note_on_c, 11, 58, 0
1, 73889, Note_on_c, 14, 46, 0
1, 73890, Note_on_c, 14, 53, 0
1, 73892, Note_on_c, 11, 62, 0
1, 73893, Note_on_c, 11, 65, 0
1, 73899, Note_on_c, 1, 34, 0
1, 73900, Note_on_c, 3, 82, 0
1, 73908, Note_on_c, 11, 58, 61
1, 73909, Note_on_c, 13, 62, 0
1, 73909, Note_on_c, 15, 46, 0
1, 73909, Note_on_c, 11, 65, 60
1, 73909, Note_on_c, 14, 46, 99
1, 73910, Note_on_c, 14, 53, 99
1, 73911, Note_on_c, 13, 65, 0
1, 73912, Note_on_c, 13, 58, 0
1, 73912, Note_on_c, 15, 53, 0
1, 73913, Note_on_c, 11, 62, 60
1, 73920, Note_on_c, 3, 82, 104
1, 73921, Note_on_c, 9, 36, 126
1, 73921, Note_on_c, 9, 42, 127
1, 73922, Note_on_c, 1, 34, 118
1, 73929, Note_on_c, 15, 53, 99
1, 73930, Note_on_c, 13, 58, 61
1, 73930, Note_on_c, 15, 46, 99
1, 73931, Note_on_c, 13, 62, 60
1, 73931, Note_on_c, 13, 65, 61
1, 73941, Note_on_c, 9, 36, 0
1, 73941, Note_on_c, 9, 42, 0
1, 74062, Note_on_c, 1, 34, 0
1, 74128, Note_on_c, 11, 58, 0
1, 74129, Note_on_c, 11, 65, 0
1, 74129, Note_on_c, 14, 46, 0
1, 74130, Note_on_c, 14, 53, 0
1, 74133, Note_on_c, 11, 62, 0
1, 74140, Note_on_c, 3, 82, 0
1, 74148, Note_on_c, 11, 58, 61
1, 74149, Note_on_c, 15, 53, 0
1, 74150, Note_on_c, 13, 58, 0
1, 74150, Note_on_c, 15, 46, 0
1, 74150, Note_on_c, 11, 65, 61
1, 74150, Note_on_c, 14, 53, 98
1, 74151, Note_on_c, 13, 62, 0
1, 74151, Note_on_c, 13, 65, 0
1, 74152, Note_on_c, 11, 62, 60
1, 74152, Note_on_c, 14, 46, 99
1, 74160, Note_on_c, 3, 81, 104
1, 74162, Note_on_c, 1, 34, 118
1, 74162, Note_on_c, 9, 42, 96
1, 74168, Note_on_c, 13, 62, 61
1, 74169, Note_on_c, 15, 46, 98
1, 74170, Note_on_c, 13, 65, 60
1, 74171, Note_on_c, 13, 58, 61
1, 74171, Note_on_c, 15, 53, 99
1, 74182, Note_on_c, 9, 42, 0
1, 74302, Note_on_c, 1, 34, 0
1, 74368, Note_on_c, 11, 58, 0
1, 74370, Note_on_c, 11, 65, 0
1, 74370, Note_on_c, 14, 53, 0
1, 74372, Note_on_c, 11, 62, 0
1, 74372, Note_on_c, 14, 46, 0
1, 74380, Note_on_c, 3, 81, 0
1, 74388, Note_on_c, 13, 62, 0
1, 74388, Note_on_c, 11, 58, 60
1, 74389, Note_on_c, 15, 46, 0
1, 74389, Note_on_c, 14, 46, 98
1, 74390, Note_on_c, 13, 65, 0
1, 74391, Note_on_c, 13, 58, 0
1, 74391, Note_on_c, 15, 53, 0
1, 74392, Note_on_c, 11, 62, 61
1, 74392, Note_on_c, 14, 53, 98
1, 74393, Note_on_c, 11, 65, 61
1, 74398, Note_on_c, 9, 42, 126
1, 74399, Note_on_c, 1, 34, 119
1, 74399, Note_on_c, 9, 40, 126
1, 74400, Note_on_c, 3, 79, 105
1, 74409, Note_on_c, 13, 65, 60
1, 74409, Note_on_c, 15, 46, 98
1, 74411, Note_on_c, 13, 62, 60
1, 74412, Note_on_c, 13, 58, 61
1, 74413, Note_on_c, 15, 53, 98
1, 74418, Note_on_c, 9, 42, 0
1, 74419, Note_on_c, 9, 40, 0
1, 74539, Note_on_c, 1, 34, 0
1, 74608, Note_on_c, 11, 58, 0
1, 74609, Note_on_c, 14, 46, 0
1, 74612, Note_on_c, 11, 62, 0
1, 74612, Note_on_c, 14, 53, 0
1, 74613, Note_on_c, 11, 65, 0
1, 74620, Note_on_c, 3, 79, 0
1, 74628, Note_on_c, 11, 62, 60
1, 74629, Note_on_c, 13, 65, 0
1, 74629, Note_on_c, 15, 46, 0
1, 74630, Note_on_c, 11, 65, 60
1, 74630, Note_on_c, 14, 53, 99
1, 74631, Note_on_c, 13, 62, 0
1, 74632, Note_on_c, 13, 58, 0
1, 74632, Note_on_c, 11, 58, 61
1, 74633, Note_on_c, 15, 53, 0
1, 74633, Note_on_c, 14, 46, 99
1, 74639, Note_on_c, 9, 42, 95
1, 74640, Note_on_c, 3, 76, 105
1, 74643, Note_on_c, 1, 34, 115
1, 74648, Note_on_c, 15, 53, 99
1, 74649, Note_on_c, 13, 58, 61
1, 74649, Note_on_c, 13, 62, 60
1, 74649, Note_on_c, 13, 65, 60
1, 74651, Note_on_c, 15, 46, 99
1, 74659, Note_on_c, 9, 42, 0
1, 74743, Note_on_c, 1, 34, 0
1, 74761, Note_on_c, 1, 34, 114
1, 74848, Note_on_c, 11, 62, 0
1, 74850, Note_on_c, 11, 65, 0
1, 74850, Note_on_c, 14, 53, 0
1, 74852, Note_on_c, 11, 58, 0
1, 74853, Note_on_c, 14, 46, 0
1, 74858, Note_on_c, 7, 58, 0
1, 74859, Note_on_c, 7, 65, 0
1, 74860, Note_on_c, 8, 53, 0
1, 74861, Note_on_c, 1, 34, 0
1, 74861, Note_on_c, 8, 34, 0
1, 74862, Note_on_c, 8, 46, 0
1, 74868, Note_on_c, 15, 53, 0
1, 74869, Note_on_c, 13, 58, 0
1, 74869, Note_on_c, 13, 62, 0
1, 74869, Note_on_c, 13, 65, 0
1, 74869, Note_on_c, 11, 62, 60
1, 74869, Note_on_c, 11, 64, 61
1, 74869, Note_on_c, 11, 67, 61
1, 74870, Note_on_c, 14, 55, 98
1, 74871, Note_on_c, 15, 46, 0
1, 74872, Note_on_c, 14, 48, 98
1, 74878, Note_on_c, 7, 64, 60
1, 74879, Note_on_c, 9, 36, 127
1, 74880, Note_on_c, 8, 48, 60
1, 74880, Note_on_c, 9, 42, 126
1, 74881, Note_on_c, 1, 36, 116
1, 74882, Note_on_c, 8, 55, 60
1, 74883, Note_on_c, 8, 36, 61
1, 74891, Note_on_c, 15, 55, 98
1, 74892, Note_on_c, 13, 64, 61
1, 74892, Note_on_c, 13, 67, 61
1, 74893, Note_on_c, 13, 62, 60
1, 74893, Note_on_c, 15, 48, 98
1, 74899, Note_on_c, 9, 36, 0
1, 74900, Note_on_c, 9, 42, 0
1, 75010, System_exclusive, 6, 0, 32, 36, 0, 8, 247
1, 75021, Note_on_c, 1, 36, 0
1, 75089, Note_on_c, 11, 62, 0
1, 75089, Note_on_c, 11, 64, 0
1, 75089, Note_on_c, 11, 67, 0
1, 75090, Note_on_c, 14, 55, 0
1, 75092, Note_on_c, 14, 48, 0
1, 75100, Note_on_c, 3, 76, 0
1, 75110, Note_on_c, 11, 64, 60
1, 75111, Note_on_c, 15, 55, 0
1, 75111, Note_on_c, 11, 62, 61
1, 75111, Note_on_c, 14, 55, 99
1, 75112, Note_on_c, 13, 64, 0
1, 75112, Note_on_c, 13, 67, 0
1, 75112, Note_on_c, 14, 48, 99
1, 75113, Note_on_c, 13, 62, 0
1, 75113, Note_on_c, 15, 48, 0
1, 75113, Note_on_c, 11, 67, 60
1, 75120, Note_on_c, 3, 76, 104
1, 75122, Note_on_c, 1, 36, 113
1, 75123, Note_on_c, 9, 42, 91
1, 75129, Note_on_c, 13, 64, 60
1, 75129, Note_on_c, 13, 67, 61
1, 75129, Note_on_c, 15, 55, 99
1, 75130, Note_on_c, 15, 48, 99
1, 75131, Note_on_c, 13, 62, 60
1, 75143, Note_on_c, 9, 42, 0
1, 75222, Note_on_c, 1, 36, 0
1, 75243, Note_on_c, 1, 36, 118
1, 75330, Note_on_c, 11, 64, 0
1, 75331, Note_on_c, 11, 62, 0
1, 75333, Note_on_c, 11, 67, 0
1, 75342, Note_on_c, 7, 62, 0
1, 75343, Note_on_c, 1, 36, 0
1, 75349, Note_on_c, 13, 64, 0
1, 75349, Note_on_c, 13, 67, 0
1, 75349, Note_on_c, 11, 67, 60
1, 75350, Note_on_c, 11, 64, 61
1, 75351, Note_on_c, 13, 62, 0
1, 75353, Note_on_c, 11, 60, 61
1, 75360, Note_on_c, 1, 36, 119
1, 75361, Note_on_c, 9, 40, 127
1, 75361, Note_on_c, 9, 42, 127
1, 75363, Note_on_c, 7, 60, 60
1, 75370, Note_on_c, 13, 60, 61
1, 75370, Note_on_c, 13, 67, 61
1, 75372, Note_on_c, 13, 64, 60
1, 75381, Note_on_c, 9, 40, 0
1, 75381, Note_on_c, 9, 42, 0
1, 75460, Note_on_c, 1, 36, 0
1, 75569, Note_on_c, 11, 67, 0
1, 75570, Note_on_c, 11, 64, 0
1, 75571, Note_on_c, 14, 55, 0
1, 75572, Note_on_c, 14, 48, 0
1, 75573, Note_on_c, 11, 60, 0
1, 75580, Note_on_c, 3, 76, 0
1, 75589, Note_on_c, 15, 55, 0
1, 75589, Note_on_c, 14, 55, 98
1, 75590, Note_on_c, 13, 60, 0
1, 75590, Note_on_c, 13, 67, 0
1, 75590, Note_on_c, 15, 48, 0
1, 75591, Note_on_c, 11, 64, 60
1, 75592, Note_on_c, 13, 64, 0
1, 75592, Note_on_c, 11, 67, 60
1, 75593, Note_on_c, 11, 62, 61
1, 75593, Note_on_c, 14, 48, 98
1, 75599, Note_on_c, 9, 42, 94
1, 75603, Note_on_c, 1, 36, 117
1, 75608, Note_on_c, 15, 48, 98
1, 75611, Note_on_c, 15, 55, 98
1, 75612, Note_on_c, 13, 62, 61
1, 75612, Note_on_c, 13, 67, 60
1, 75613, Note_on_c, 13, 64, 60
1, 75619, Note_on_c, 9, 42, 0
1, 75689, Note_on_c, 14, 55, 0
1, 75691, Note_on_c, 11, 64, 0
1, 75692, Note_on_c, 11, 67, 0
1, 75693, Note_on_c, 11, 62, 0
1, 75693, Note_on_c, 14, 48, 0
1, 75703, Note_on_c, 1, 36, 0
1, 75708, Note_on_c, 15, 48, 0
1, 75708, Note_on_c, 14, 48, 99
1, 75709, Note_on_c, 11, 64, 61
1, 75709, Note_on_c, 14, 55, 98
1, 75711, Note_on_c, 15, 55, 0
1, 75711, Note_on_c, 11, 67, 60
1, 75712, Note_on_c, 13, 62, 0
1, 75712, Note_on_c, 13, 67, 0
1, 75712, Note_on_c, 11, 62, 60
1, 75713, Note_on_c, 13, 64, 0
1, 75720, Note_on_c, 1, 36, 118
1, 75728, Note_on_c, 15, 48, 99
1, 75729, Note_on_c, 13, 64, 61
1, 75731, Note_on_c, 13, 67, 61
1, 75731, Note_on_c, 15, 55, 98
1, 75732, Note_on_c, 13, 62, 60
1, 75808, Note_on_c, 14, 48, 0
1, 75809, Note_on_c, 11, 64, 0
1, 75809, Note_on_c, 14, 55, 0
1, 75811, Note_on_c, 11, 67, 0
1, 75812, Note_on_c, 11, 62, 0
1, 75820, Note_on_c, 1, 36, 0
1, 75823, Note_on_c, 7, 60, 0
1, 75828, Note_on_c, 15, 48, 0
1, 75829, Note_on_c, 13, 64, 0
1, 75829, Note_on_c, 11, 62, 61
1, 75830, Note_on_c, 11, 64, 60
1, 75830, Note_on_c, 14, 55, 99
1, 75831, Note_on_c, 13, 67, 0
1, 75831, Note_on_c, 15, 55, 0
1, 75831, Note_on_c, 14, 48, 99
1, 75832, Note_on_c, 13, 62, 0
1, 75832, Note_on_c, 11, 67, 61
1, 75839, Note_on_c, 9, 42, 127
1, 75842, Note_on_c, 1, 36, 119
1, 75842, Note_on_c, 9, 36, 127
1, 75843, Note_on_c, 7, 62, 61
1, 75849, Note_on_c, 15, 48, 99
1, 75849, Note_on_c, 15, 55, 99
1, 75851, Note_on_c, 13, 62, 60
1, 75852, Note_on_c, 13, 64, 61
1, 75852, Note_on_c, 13, 67, 61
1, 75859, Note_on_c, 9, 42, 0
1, 75862, Note_on_c, 9, 36, 0
1, 75982, Note_on_c, 1, 36, 0
1, 76049, Note_on_c, 11, 62, 0
1, 76050, Note_on_c, 11, 64, 0
1, 76050, Note_on_c, 14, 55, 0
1, 76051, Note_on_c, 14, 48, 0
1, 76052, Note_on_c, 11, 67, 0
1, 76063, Note_on_c, 7, 62, 0
1, 76068, Note_on_c, 11, 60, 61
1, 76068, Note_on_c, 11, 67, 60
1, 76068, Note_on_c, 14, 55, 98
1, 76069, Note_on_c, 15, 48, 0
1, 76069, Note_on_c, 15, 55, 0
1, 76069, Note_on_c, 14, 48, 99
1, 76071, Note_on_c, 13, 62, 0
1, 76072, Note_on_c, 13, 64, 0
1, 76072, Note_on_c, 13, 67, 0
1, 76072, Note_on_c, 11, 64, 61
1, 76079, Note_on_c, 1, 36, 110
1, 76079, Note_on_c, 9, 36, 126
1, 76080, Note_on_c, 3, 81, 104
1, 76080, Note_on_c, 9, 42, 96
1, 76082, Note_on_c, 7, 60, 61
1, 76089, Note_on_c, 13, 67, 60
1, 76089, Note_on_c, 15, 48, 98
1, 76090, Note_on_c, 13, 60, 60
1, 76090, Note_on_c, 13, 64, 61
1, 76092, Note_on_c, 15, 55, 99
1, 76099, Note_on_c, 9, 36, 0
1, 76100, Note_on_c, 9, 42, 0
1, 76219, Note_on_c, 1, 36, 0
1, 76288, Note_on_c, 11, 60, 0
1, 76288, Note_on_c, 11, 67, 0
1, 76292, Note_on_c, 11, 64, 0
1, 76308, Note_on_c, 11, 67, 60
1, 76309, Note_on_c, 13, 67, 0
1, 76309, Note_on_c, 11, 60, 60
1, 76310, Note_on_c, 13, 60, 0
1, 76310, Note_on_c, 13, 64, 0
1, 76311, Note_on_c, 11, 64, 61
1, 76318, Note_on_c, 9, 42, 126
1, 76320, Note_on_c, 1, 36, 114
1, 76323, Note_on_c, 9, 40, 127
1, 76329, Note_on_c, 13, 64, 60
1, 76331, Note_on_c, 13, 67, 61
1, 76333, Note_on_c, 13, 60, 61
1, 76338, Note_on_c, 9, 42, 0
1, 76343, Note_on_c, 9, 40, 0
1, 76460, Note_on_c, 1, 36, 0
1, 76528, Note_on_c, 11, 67, 0
1, 76528, Note_on_c, 14, 55, 0
1, 76529, Note_on_c, 11, 60, 0
1, 76529, Note_on_c, 14, 48, 0
1, 76531, Note_on_c, 11, 64, 0
1, 76540, Note_on_c, 3, 81, 0
1, 76549, Note_on_c, 13, 64, 0
1, 76549, Note_on_c, 15, 48, 0
1, 76550, Note_on_c, 14, 55, 98
1, 76551, Note_on_c, 13, 67, 0
1, 76552, Note_on_c, 15, 55, 0
1, 76552, Note_on_c, 11, 60, 61
1, 76552, Note_on_c, 11, 64, 60
1, 76552, Note_on_c, 11, 67, 60
1, 76552, Note_on_c, 14, 48, 98
1, 76553, Note_on_c, 13, 60, 0
1, 76560, Note_on_c, 3, 81, 105
1, 76560, Note_on_c, 9, 42, 95
1, 76562, Note_on_c, 1, 36, 111
1, 76568, Note_on_c, 15, 48, 98
1, 76569, Note_on_c, 15, 55, 98
1, 76570, Note_on_c, 13, 67, 60
1, 76572, Note_on_c, 13, 64, 61
1, 76573, Note_on_c, 13, 60, 60
1, 76580, Note_on_c, 9, 42, 0
1, 76650, Note_on_c, 14, 55, 0
1, 76652, Note_on_c, 14, 48, 0
1, 76660, Note_on_c, 3, 81, 0
1, 76662, Note_on_c, 1, 36, 0
1, 76668, Note_on_c, 15, 48, 0
1, 76669, Note_on_c, 15, 55, 0
1, 76672, Note_on_c, 14, 48, 99
1, 76673, Note_on_c, 14, 55, 99
1, 76680, Note_on_c, 3, 79, 104
1, 76682, Note_on_c, 1, 36, 111
1, 76692, Note_on_c, 15, 48, 99
1, 76692, Note_on_c, 15, 55, 99
1, 76772, Note_on_c, 11, 60, 0
1, 76772, Note_on_c, 11, 64, 0
1, 76772, Note_on_c, 11, 67, 0
1, 76772, Note_on_c, 14, 48, 0
1, 76773, Note_on_c, 14, 55, 0
1, 76778, Note_on_c, 7, 64, 0
1, 76780, Note_on_c, 8, 48, 0
1, 76782, Note_on_c, 1, 36, 0
1, 76782, Note_on_c, 7, 60, 0
1, 76782, Note_on_c, 8, 55, 0
1, 76783, Note_on_c, 8, 36, 0
1, 76788, Note_on_c, 14, 52, 98
1, 76790, Note_on_c, 13, 67, 0
1, 76791, Note_on_c, 11, 64, 61
1, 76791, Note_on_c, 14, 45, 98
1, 76792, Note_on_c, 13, 64, 0
1, 76792, Note_on_c, 15, 48, 0
1, 76792, Note_on_c, 15, 55, 0
1, 76792, Note_on_c, 11, 57, 61
1, 76793, Note_on_c, 13, 60, 0
1, 76793, Note_on_c, 11, 69, 60
1, 76798, Note_on_c, 8, 33, 60
1, 76799, Note_on_c, 1, 33, 116
1, 76799, Note_on_c, 7, 57, 60
1, 76799, Note_on_c, 7, 64, 60
1, 76800, Note_on_c, 8, 45, 61
1, 76801, Note_on_c, 9, 36, 126
1, 76802, Note_on_c, 8, 52, 61
1, 76802, Note_on_c, 9, 42, 127
1, 76809, Note_on_c, 13, 69, 60
1, 76809, Note_on_c, 15, 45, 98
1, 76810, Note_on_c, 13, 64, 61
1, 76811, Note_on_c, 13, 57, 61
1, 76812, Note_on_c, 15, 52, 98
1, 76821, Note_on_c, 9, 36, 0
1, 76822, Note_on_c, 9, 42, 0
1, 76900, Note_on_c, 3, 79, 0
1, 76920, Note_on_c, 3, 79, 105
1, 76939, Note_on_c, 1, 33, 0
1, 77008, Note_on_c, 14, 52, 0
1, 77011, Note_on_c, 11, 64, 0
1, 77011, Note_on_c, 14, 45, 0
1, 77012, Note_on_c, 11, 57, 0
1, 77013, Note_on_c, 11, 69, 0
1, 77029, Note_on_c, 13, 69, 0
1, 77029, Note_on_c, 15, 45, 0
1, 77029, Note_on_c, 14, 52, 99
1, 77030, Note_on_c, 13, 64, 0
1, 77030, Note_on_c, 11, 69, 60
1, 77030, Note_on_c, 14, 45, 99
1, 77031, Note_on_c, 13, 57, 0
1, 77031, Note_on_c, 11, 57, 61
1, 77032, Note_on_c, 15, 52, 0
1, 77033, Note_on_c, 11, 64, 60
1, 77039, Note_on_c, 1, 33, 110
1, 77042, Note_on_c, 9, 42, 90
1, 77049, Note_on_c, 13, 69, 60
1, 77049, Note_on_c, 15, 52, 99
1, 77051, Note_on_c, 13, 64, 60
1, 77051, Note_on_c, 15, 45, 99
1, 77053, Note_on_c, 13, 57, 61
1, 77062, Note_on_c, 9, 42, 0
1, 77139, Note_on_c, 1, 33, 0
1, 77159, Note_on_c, 1, 33, 111
1, 77250, Note_on_c, 11, 69, 0
1, 77251, Note_on_c, 11, 57, 0
1, 77253, Note_on_c, 11, 64, 0
1, 77259, Note_on_c, 1, 33, 0
1, 77268, Note_on_c, 11, 69, 61
1, 77269, Note_on_c, 13, 69, 0
1, 77271, Note_on_c, 13, 64, 0
1, 77272, Note_on_c, 11, 57, 61
1, 77272, Note_on_c, 11, 64, 60
1, 77273, Note_on_c, 13, 57, 0
1, 77279, Note_on_c, 9, 40, 126
1, 77279, Note_on_c, 9, 42, 126
1, 77282, Note_on_c, 1, 33, 119
1, 77288, Note_on_c, 13, 64, 61
1, 77289, Note_on_c, 13, 57, 60
1, 77291, Note_on_c, 13, 69, 60
1, 77299, Note_on_c, 9, 40, 0
1, 77299, Note_on_c, 9, 42, 0
1, 77382, Note_on_c, 1, 33, 0
1, 77488, Note_on_c, 11, 69, 0
1, 77489, Note_on_c, 14, 52, 0
1, 77490, Note_on_c, 14, 45, 0
1, 77492, Note_on_c, 11, 57, 0
1, 77492, Note_on_c, 11, 64, 0
1, 77500, Note_on_c, 3, 79, 0
1, 77508, Note_on_c, 13, 64, 0
1, 77509, Note_on_c, 13, 57, 0
1, 77509, Note_on_c, 15, 52, 0
1, 77509, Note_on_c, 14, 52, 98
1, 77510, Note_on_c, 11, 57, 61
1, 77511, Note_on_c, 13, 69, 0
1, 77511, Note_on_c, 15, 45, 0
1, 77511, Note_on_c, 14, 45, 98
1, 77512, Note_on_c, 11, 69, 60
1, 77513, Note_on_c, 11, 64, 60
1, 77519, Note_on_c, 9, 42, 95
1, 77520, Note_on_c, 3, 76, 105
1, 77521, Note_on_c, 1, 33, 116
1, 77528, Note_on_c, 13, 69, 61
1, 77529, Note_on_c, 13, 57, 60
1, 77531, Note_on_c, 13, 64, 61
1, 77531, Note_on_c, 15, 52, 98
1, 77532, Note_on_c, 15, 45, 98
1, 77539, Note_on_c, 9, 42, 0
1, 77609, Note_on_c, 14, 52, 0
1, 77610, Note_on_c, 11, 57, 0
1, 77611, Note_on_c, 14, 45, 0
1, 77612, Note_on_c, 11, 69, 0
1, 77613, Note_on_c, 11, 64, 0
1, 77621, Note_on_c, 1, 33, 0
1, 77628, Note_on_c, 13, 69, 0
1, 77628, Note_on_c, 11, 57, 61
1, 77629, Note_on_c, 13, 57, 0
1, 77629, Note_on_c, 11, 69, 61
1, 77630, Note_on_c, 11, 64, 60
1, 77631, Note_on_c, 13, 64, 0
1, 77631, Note_on_c, 15, 52, 0
1, 77632, Note_on_c, 15, 45, 0
1, 77632, Note_on_c, 14, 45, 99
1, 77633, Note_on_c, 14, 52, 98
1, 77642, Note_on_c, 1, 33, 112
1, 77648, Note_on_c, 13, 69, 61
1, 77648, Note_on_c, 15, 45, 99
1, 77652, Note_on_c, 13, 57, 60
1, 77652, Note_on_c, 13, 64, 61
1, 77652, Note_on_c, 15, 52, 98
1, 77728, Note_on_c, 11, 57, 0
1, 77729, Note_on_c, 11, 69, 0
1, 77730, Note_on_c, 11, 64, 0
1, 77732, Note_on_c, 14, 45, 0
1, 77733, Note_on_c, 14, 52, 0
1, 77739, Note_on_c, 7, 64, 0
1, 77742, Note_on_c, 1, 33, 0
1, 77748, Note_on_c, 13, 69, 0
1, 77748, Note_on_c, 15, 45, 0
1, 77749, Note_on_c, 14, 45, 99
1, 77750, Note_on_c, 11, 57, 60
1, 77750, Note_on_c, 14, 52, 99
1, 77751, Note_on_c, 11, 64, 61
1, 77752, Note_on_c, 13, 57, 0
1, 77752, Note_on_c, 13, 64, 0
1, 77752, Note_on_c, 15, 52, 0
1, 77752, Note_on_c, 11, 69, 61
1, 77762, Note_on_c, 1, 33, 117
1, 77762, Note_on_c, 7, 61, 61
1, 77762, Note_on_c, 9, 36, 127
1, 77762, Note_on_c, 9, 42, 127
1, 77768, Note_on_c, 13, 57, 60
1, 77768, Note_on_c, 15, 45, 99
1, 77771, Note_on_c, 13, 64, 60
1, 77772, Note_on_c, 13, 69, 61
1, 77773, Note_on_c, 15, 52, 99
1, 77782, Note_on_c, 9, 36, 0
1, 77782, Note_on_c, 9, 42, 0
1, 77860, Note_on_c, 3, 76, 0
1, 77902, Note_on_c, 1, 33, 0
1, 77969, Note_on_c, 14, 45, 0
1, 77970, Note_on_c, 11, 57, 0
1, 77970, Note_on_c, 14, 52, 0
1, 77971, Note_on_c, 11, 64, 0
1, 77972, Note_on_c, 11, 69, 0
1, 77988, Note_on_c, 13, 57, 0
1, 77988, Note_on_c, 15, 45, 0
1, 77988, Note_on_c, 11, 69, 60
1, 77988, Note_on_c, 14, 52, 98
1, 77990, Note_on_c, 11, 57, 60
1, 77990, Note_on_c, 14, 45, 99
1, 77991, Note_on_c, 13, 64, 0
1, 77991, Note_on_c, 11, 64, 61
1, 77992, Note_on_c, 13, 69, 0
1, 77993, Note_on_c, 15, 52, 0
1, 77999, Note_on_c, 9, 42, 96
1, 78000, Note_on_c, 3, 81, 104
1, 78003, Note_on_c, 1, 33, 116
1, 78008, Note_on_c, 13, 57, 61
1, 78008, Note_on_c, 13, 69, 60
1, 78009, Note_on_c, 15, 45, 98
1, 78010, Note_on_c, 15, 52, 99
1, 78011, Note_on_c, 13, 64, 60
1, 78019, Note_on_c, 9, 42, 0
1, 78143, Note_on_c, 1, 33, 0
1, 78208, Note_on_c, 11, 69, 0
1, 78210, Note_on_c, 11, 57, 0
1, 78211, Note_on_c, 11, 64, 0
1, 78220, Note_on_c, 3, 81, 0
1, 78228, Note_on_c, 13, 57, 0
1, 78228, Note_on_c, 13, 69, 0
1, 78229, Note_on_c, 11, 57, 60
1, 78230, Note_on_c, 11, 69, 61
1, 78231, Note_on_c, 13, 64, 0
1, 78231, Note_on_c, 11, 64, 61
1, 78239, Note_on_c, 1, 33, 113
1, 78240, Note_on_c, 3, 81, 105
1, 78240, Note_on_c, 9, 40, 126
1, 78242, Note_on_c, 9, 42, 126
1, 78252, Note_on_c, 13, 57, 61
1, 78252, Note_on_c, 13, 64, 61
1, 78253, Note_on_c, 13, 69, 60
1, 78260, Note_on_c, 9, 40, 0
1, 78262, Note_on_c, 9, 42, 0
1, 78379, Note_on_c, 1, 33, 0
1, 78448, Note_on_c, 14, 52, 0
1, 78449, Note_on_c, 11, 57, 0
1, 78450, Note_on_c, 11, 69, 0
1, 78450, Note_on_c, 14, 45, 0
1, 78451, Note_on_c, 11, 64, 0
1, 78460, Note_on_c, 3, 81, 0
1, 78468, Note_on_c, 14, 52, 98
1, 78469, Note_on_c, 15, 45, 0
1, 78469, Note_on_c, 11, 64, 60
1, 78470, Note_on_c, 15, 52, 0
1, 78471, Note_on_c, 14, 45, 98
1, 78472, Note_on_c, 13, 57, 0
1, 78472, Note_on_c, 13, 64, 0
1, 78472, Note_on_c, 11, 57, 61
1, 78473, Note_on_c, 13, 69, 0
1, 78473, Note_on_c, 11, 69, 60
1, 78479, Note_on_c, 1, 33, 117
1, 78480, Note_on_c, 3, 79, 104
1, 78480, Note_on_c, 9, 42, 95
1, 78488, Note_on_c, 15, 52, 98
1, 78489, Note_on_c, 13, 64, 60
1, 78489, Note_on_c, 13, 69, 61
1, 78490, Note_on_c, 15, 45, 98
1, 78492, Note_on_c, 13, 57, 60
1, 78500, Note_on_c, 9, 42, 0
1, 78568, Note_on_c, 14, 52, 0
1, 78569, Note_on_c, 11, 64, 0
1, 78571, Note_on_c, 14, 45, 0
1, 78572, Note_on_c, 11, 57, 0
1, 78573, Note_on_c, 11, 69, 0
1, 78579, Note_on_c, 1, 33, 0
1, 78588, Note_on_c, 15, 52, 0
1, 78588, Note_on_c, 11, 64, 60
1, 78588, Note_on_c, 14, 45, 99
1, 78589, Note_on_c, 13, 64, 0
1, 78589, Note_on_c, 13, 69, 0
1, 78589, Note_on_c, 11, 57, 61
1, 78590, Note_on_c, 15, 45, 0
1, 78591, Note_on_c, 14, 52, 99
1, 78592, Note_on_c, 13, 57, 0
1, 78593, Note_on_c, 11, 69, 61
1, 78599, Note_on_c, 1, 33, 116
1, 78609, Note_on_c, 15, 45, 99
1, 78611, Note_on_c, 13, 57, 61
1, 78611, Note_on_c, 13, 64, 61
1, 78611, Note_on_c, 13, 69, 60
1, 78611, Note_on_c, 15, 52, 99
1, 78688, Note_on_c, 11, 64, 0
1, 78688, Note_on_c, 14, 45, 0
1, 78689, Note_on_c, 11, 57, 0
1, 78691, Note_on_c, 14, 52, 0
1, 78693, Note_on_c, 11, 69, 0
1, 78699, Note_on_c, 1, 33, 0
1, 78700, Note_on_c, 3, 79, 0
1, 78709, Note_on_c, 15, 45, 0
1, 78709, Note_on_c, 11, 69, 60
1, 78709, Note_on_c, 14, 45, 98
1, 78710, Note_on_c, 14, 52, 98
1, 78711, Note_on_c, 13, 57, 0
1, 78711, Note_on_c, 13, 64, 0
1, 78711, Note_on_c, 13, 69, 0
1, 78711, Note_on_c, 15, 52, 0
1, 78711, Note_on_c, 11, 64, 60
1, 78713, Note_on_c, 11, 57, 61
1, 78719, Note_on_c, 1, 33, 119
1, 78719, Note_on_c, 9, 36, 127
1, 78719, Note_on_c, 9, 42, 126
1, 78720, Note_on_c, 3, 79, 104
1, 78721, Note_on_c, 7, 69, 60
1, 78729, Note_on_c, 13, 69, 61
1, 78730, Note_on_c, 13, 57, 60
1, 78730, Note_on_c, 15, 45, 98
1, 78731, Note_on_c, 15, 52, 98
1, 78733, Note_on_c, 13, 64, 60
1, 78739, Note_on_c, 9, 36, 0
1, 78739, Note_on_c, 9, 42, 0
1, 78859, Note_on_c, 1, 33, 0
1, 78929, Note_on_c, 11, 69, 0
1, 78929, Note_on_c, 14, 45, 0
1, 78930, Note_on_c, 14, 52, 0
1, 78931, Note_on_c, 11, 64, 0
1, 78933, Note_on_c, 11, 57, 0
1, 78949, Note_on_c, 13, 69, 0
1, 78950, Note_on_c, 13, 57, 0
1, 78950, Note_on_c, 15, 45, 0
1, 78950, Note_on_c, 11, 64, 61
1, 78950, Note_on_c, 14, 52, 99
1, 78951, Note_on_c, 15, 52, 0
1, 78951, Note_on_c, 11, 57, 60
1, 78951, Note_on_c, 14, 45, 99
1, 78952, Note_on_c, 11, 69, 60
1, 78953, Note_on_c, 13, 64, 0
1, 78958, Note_on_c, 9, 42, 91
1, 78961, Note_on_c, 1, 33, 116
1, 78968, Note_on_c, 13, 64, 61
1, 78969, Note_on_c, 15, 45, 99
1, 78971, Note_on_c, 13, 69, 61
1, 78972, Note_on_c, 13, 57, 60
1, 78972, Note_on_c, 15, 52, 99
1, 78978, Note_on_c, 9, 42, 0
1, 79030, System_exclusive, 6, 0, 32, 36, 0, 8, 247
1, 79061, Note_on_c, 1, 33, 0
1, 79081, Note_on_c, 1, 33, 114
1, 79170, Note_on_c, 11, 64, 0
1, 79171, Note_on_c, 11, 57, 0
1, 79172, Note_on_c, 11, 69, 0
1, 79181, Note_on_c, 1, 33, 0
1, 79188, Note_on_c, 13, 64, 0
1, 79190, Note_on_c, 11, 64, 61
1, 79191, Note_on_c, 13, 69, 0
1, 79192, Note_on_c, 13, 57, 0
1, 79192, Note_on_c, 11, 57, 60
1, 79192, Note_on_c, 11, 69, 61
1, 79199, Note_on_c, 9, 40, 127
1, 79201, Note_on_c, 1, 33, 117
1, 79201, Note_on_c, 9, 42, 127
1, 79211, Note_on_c, 13, 57, 60
1, 79211, Note_on_c, 13, 64, 61
1, 79211, Note_on_c, 13, 69, 61
1, 79219, Note_on_c, 9, 40, 0
1, 79221, Note_on_c, 9, 42, 0
1, 79301, Note_on_c, 1, 33, 0
1, 79410, Note_on_c, 11, 64, 0
1, 79410, Note_on_c, 14, 52, 0
1, 79411, Note_on_c, 14, 45, 0
1, 79412, Note_on_c, 11, 57, 0
1, 79412, Note_on_c, 11, 69, 0
1, 79429, Note_on_c, 15, 45, 0
1, 79430, Note_on_c, 11, 57, 61
1, 79430, Note_on_c, 11, 69, 60
1, 79431, Note_on_c, 13, 57, 0
1, 79431, Note_on_c, 13, 64, 0
1, 79431, Note_on_c, 13, 69, 0
1, 79431, Note_on_c, 14, 52, 98
1, 79432, Note_on_c, 15, 52, 0
1, 79432, Note_on_c, 14, 45, 98
1, 79433, Note_on_c, 11, 64, 61
1, 79442, Note_on_c, 9, 42, 94
1, 79443, Note_on_c, 1, 33, 119
1, 79449, Note_on_c, 13, 64, 60
1, 79450, Note_on_c, 13, 57, 60
1, 79450, Note_on_c, 15, 45, 98
1, 79450, Note_on_c, 15, 52, 98
1, 79452, Note_on_c, 13, 69, 61
1, 79462, Note_on_c, 9, 42, 0
1, 79531, Note_on_c, 14, 52, 0
1, 79532, Note_on_c, 14, 45, 0
1, 79543, Note_on_c, 1, 33, 0
1, 79549, Note_on_c, 14, 52, 99
1, 79550, Note_on_c, 15, 45, 0
1, 79550, Note_on_c, 15, 52, 0
1, 79550, Note_on_c, 14, 45, 98
1, 79563, Note_on_c, 1, 33, 118
1, 79568, Note_on_c, 15, 45, 99
1, 79572, Note_on_c, 15, 52, 98
1, 79649, Note_on_c, 14, 52, 0
1, 79650, Note_on_c, 11, 57, 0
1, 79650, Note_on_c, 11, 69, 0
1, 79650, Note_on_c, 14, 45, 0
1, 79653, Note_on_c, 11, 64, 0
1, 79660, Note_on_c, 3, 79, 0
1, 79663, Note_on_c, 1, 33, 0
1, 79668, Note_on_c, 15, 45, 0
1, 79668, Note_on_c, 11, 64, 60
1, 79669, Note_on_c, 13, 64, 0
1, 79669, Note_on_c, 11, 57, 60
1, 79670, Note_on_c, 13, 57, 0
1, 79671, Note_on_c, 11, 69, 61
1, 79671, Note_on_c, 14, 45, 99
1, 79672, Note_on_c, 13, 69, 0
1, 79672, Note_on_c, 15, 52, 0
1, 79673, Note_on_c, 14, 52, 99
1, 79679, Note_on_c, 9, 36, 126
1, 79681, Note_on_c, 1, 33, 112
1, 79681, Note_on_c, 9, 42, 127
1, 79689, Note_on_c, 15, 52, 99
1, 79690, Note_on_c, 13, 69, 60
1, 79690, Note_on_c, 15, 45, 99
1, 79692, Note_on_c, 13, 57, 61
1, 79693, Note_on_c, 13, 64, 61
1, 79699, Note_on_c, 9, 36, 0
1, 79701, Note_on_c, 9, 42, 0
1, 79821, Note_on_c, 1, 33, 0
1, 79888, Note_on_c, 11, 64, 0
1, 79889, Note_on_c, 11, 57, 0
1, 79891, Note_on_c, 11, 69, 0
1, 79891, Note_on_c, 14, 45, 0
1, 79893, Note_on_c, 14, 52, 0
1, 79908, Note_on_c, 11, 57, 61
1, 79909, Note_on_c, 15, 52, 0
1, 79910, Note_on_c, 13, 69, 0
1, 79910, Note_on_c, 15, 45, 0
1, 79910, Note_on_c, 14, 45, 98
1, 79911, Note_on_c, 14, 52, 99
1, 79912, Note_on_c, 13, 57, 0
1, 79912, Note_on_c, 11, 64, 60
1, 79913, Note_on_c, 13, 64, 0
1, 79913, Note_on_c, 11, 69, 60
1, 79919, Note_on_c, 9, 42, 96
1, 79920, Note_on_c, 3, 79, 105
1, 79922, Note_on_c, 1, 33, 117
1, 79922, Note_on_c, 9, 36, 126
1, 79928, Note_on_c, 15, 45, 98
1, 79929, Note_on_c, 13, 57, 60
1, 79930, Note_on_c, 13, 69, 61
1, 79931, Note_on_c, 13, 64, 60
1, 79931, Note_on_c, 15, 52, 99
1, 79939, Note_on_c, 9, 42, 0
1, 79942, Note_on_c, 9, 36, 0
1, 80008, Note_on_c, 11, 57, 0
1, 80012, Note_on_c, 11, 64, 0
1, 80013, Note_on_c, 11, 69, 0
1, 80029, Note_on_c, 13, 57, 0
1, 80029, Note_on_c, 11, 57, 61
1, 80030, Note_on_c, 13, 69, 0
1, 80031, Note_on_c, 13, 64, 0
1, 80033, Note_on_c, 11, 64, 61
1, 80033, Note_on_c, 11, 69, 60
1, 80053, Note_on_c, 13, 57, 60
1, 80053, Note_on_c, 13, 64, 61
1, 80053, Note_on_c, 13, 69, 61
1, 80062, Note_on_c, 1, 33, 0
1, 80129, Note_on_c, 11, 57, 0
1, 80133, Note_on_c, 11, 64, 0
1, 80133, Note_on_c, 11, 69, 0
1, 80140, Note_on_c, 3, 79, 0
1, 80152, Note_on_c, 11, 64, 60
1, 80152, Note_on_c, 11, 69, 61
1, 80153, Note_on_c, 13, 57, 0
1, 80153, Note_on_c, 13, 64, 0
1, 80153, Note_on_c, 13, 69, 0
1, 80153, Note_on_c, 11, 57, 60
1, 80159, Note_on_c, 9, 44, 127
1, 80160, Note_on_c, 3, 79, 105
1, 80162, Note_on_c, 1, 33, 119
1, 80163, Note_on_c, 9, 40, 126
1, 80171, Note_on_c, 13, 57, 60
1, 80171, Note_on_c, 13, 69, 60
1, 80172, Note_on_c, 13, 64, 61
1, 80179, Note_on_c, 9, 44, 0
1, 80183, Note_on_c, 9, 40, 0
1, 80280, Note_on_c, 9, 40, 101
1, 80300, Note_on_c, 9, 40, 0
1, 80302, Note_on_c, 1, 33, 0
1, 80370, Note_on_c, 14, 45, 0
1, 80371, Note_on_c, 14, 52, 0
1, 80372, Note_on_c, 11, 64, 0
1, 80372, Note_on_c, 11, 69, 0
1, 80373, Note_on_c, 11, 57, 0
1, 80380, Note_on_c, 3, 79, 0
1, 80388, Note_on_c, 15, 45, 0
1, 80389, Note_on_c, 11, 64, 61
1, 80390, Note_on_c, 14, 52, 98
1, 80391, Note_on_c, 13, 57, 0
1, 80391, Note_on_c, 13, 69, 0
1, 80391, Note_on_c, 15, 52, 0
1, 80391, Note_on_c, 11, 57, 61
1, 80391, Note_on_c, 11, 69, 60
1, 80391, Note_on_c, 14, 45, 98
1, 80392, Note_on_c, 13, 64, 0
1, 80400, Note_on_c, 3, 77, 104
1, 80400, Note_on_c, 9, 45, 105
1, 80403, Note_on_c, 1, 33, 116
1, 80408, Note_on_c, 15, 52, 98
1, 80410, Note_on_c, 13, 57, 61
1, 80410, Note_on_c, 15, 45, 98
1, 80411, Note_on_c, 13, 64, 60
1, 80412, Note_on_c, 13, 69, 60
1, 80420, Note_on_c, 9, 45, 0
1, 80503, Note_on_c, 1, 33, 0
1, 80518, Note_on_c, 9, 43, 65
1, 80520, Note_on_c, 1, 33, 116
1, 80538, Note_on_c, 9, 43, 0
1, 80609, Note_on_c, 11, 64, 0
1, 80610, Note_on_c, 14, 52, 0
1, 80611, Note_on_c, 11, 57, 0
1, 80611, Note_on_c, 11, 69, 0
1, 80611, Note_on_c, 14, 45, 0
1, 80618, Note_on_c, 8, 33, 0
1, 80619, Note_on_c, 7, 57, 0
1, 80620, Note_on_c, 1, 33, 0
1, 80620, Note_on_c, 3, 77, 0
1, 80620, Note_on_c, 8, 45, 0
1, 80621, Note_on_c, 7, 69, 0
1, 80622, Note_on_c, 7, 61, 0
1, 80622, Note_on_c, 8, 52, 0
1, 80628, Note_on_c, 15, 52, 0
1, 80630, Note_on_c, 13, 57, 0
1, 80630, Note_on_c, 15, 45, 0
1, 80630, Note_on_c, 11, 62, 61
1, 80631, Note_on_c, 13, 64, 0
1, 80631, Note_on_c, 11, 69, 60
1, 80632, Note_on_c, 13, 69, 0
1, 80632, Note_on_c, 11, 57, 60
1, 80633, Note_on_c, 14, 50, 99
1, 80633, Note_on_c, 14, 57, 99
1, 80638, Note_on_c, 1, 26, 115
1, 80639, Note_on_c, 9, 36, 127
1, 80639, Note_on_c, 9, 49, 71
1, 80640, Note_on_c, 7, 62, 61
1, 80642, Note_on_c, 8, 38, 60
1, 80642, Note_on_c, 8, 50, 61
1, 80642, Note_on_c, 8, 57, 60
1, 80649, Note_on_c, 13, 69, 61
1, 80650, Note_on_c, 15, 45, 99
1, 80650, Note_on_c, 15, 52, 99
1, 80651, Note_on_c, 13, 57, 60
1, 80651, Note_on_c, 13, 62, 61
1, 80659, Note_on_c, 9, 36, 0
1, 80659, Note_on_c, 9, 49, 0
1, 80778, Note_on_c, 1, 26, 0
1, 80879, Note_on_c, 1, 26, 118
1, 80881, Note_on_c, 9, 42, 90
1, 80901, Note_on_c, 9, 42, 0
1, 80979, Note_on_c, 1, 26, 0
1, 81001, Note_on_c, 1, 26, 111
1, 81101, Note_on_c, 1, 26, 0
1, 81120, Note_on_c, 9, 42, 127
1, 81121, Note_on_c, 9, 40, 127
1, 81123, Note_on_c, 1, 26, 119
1, 81140, Note_on_c, 9, 42, 0
1, 81141, Note_on_c, 9, 40, 0
1, 81223, Note_on_c, 1, 26, 0
1, 81360, Note_on_c, 1, 26, 112
1, 81360, Note_on_c, 3, 74, 104
1, 81361, Note_on_c, 9, 42, 95
1, 81381, Note_on_c, 9, 42, 0
1, 81449, Control_c, 14, 11, 124
1, 81454, Control_c, 13, 11, 124
1, 81459, Control_c, 11, 11, 124
1, 81460, Note_on_c, 1, 26, 0
1, 81464, Control_c, 7, 11, 125
1, 81464, Control_c, 15, 11, 124
1, 81469, Control_c, 8, 11, 124
1, 81474, Control_c, 14, 11, 123
1, 81479, Control_c, 13, 11, 123
1, 81481, Note_on_c, 1, 26, 119
1, 81484, Control_c, 11, 11, 123
1, 81489, Control_c, 7, 11, 122
1, 81489, Control_c, 15, 11, 123
1, 81494, Control_c, 8, 11, 123
1, 81515, Control_c, 14, 11, 121
1, 81520, Control_c, 13, 11, 121
1, 81525, Control_c, 11, 11, 121
1, 81530, Control_c, 7, 11, 121
1, 81530, Control_c, 15, 11, 121
1, 81535, Control_c, 8, 11, 121
1, 81552, Control_c, 14, 11, 118
1, 81557, Control_c, 13, 11, 118
1, 81562, Control_c, 11, 11, 118
1, 81567, Control_c, 7, 11, 119
1, 81567, Control_c, 15, 11, 118
1, 81572, Control_c, 8, 11, 118
1, 81580, Control_c, 14, 11, 117
1, 81581, Note_on_c, 1, 26, 0
1, 81585, Control_c, 13, 11, 117
1, 81590, Control_c, 11, 11, 117
1, 81595, Control_c, 7, 11, 116
1, 81595, Control_c, 15, 11, 117
1, 81600, Note_on_c, 1, 26, 118
1, 81600, Note_on_c, 9, 36, 126
1, 81600, Control_c, 8, 11, 117
1, 81602, Note_on_c, 9, 42, 126
1, 81620, Note_on_c, 9, 36, 0
1, 81622, Note_on_c, 9, 42, 0
1, 81632, Control_c, 14, 11, 116
1, 81637, Control_c, 13, 11, 116
1, 81642, Control_c, 11, 11, 116
1, 81647, Control_c, 7, 11, 117
1, 81647, Control_c, 15, 11, 116
1, 81652, Control_c, 8, 11, 116
1, 81672, Control_c, 14, 11, 114
1, 81677, Control_c, 13, 11, 114
1, 81682, Control_c, 11, 11, 114
1, 81687, Control_c, 7, 11, 114
1, 81687, Control_c, 15, 11, 114
1, 81692, Control_c, 8, 11, 114
1, 81711, Control_c, 14, 11, 113
1, 81716, Control_c, 13, 11, 113
1, 81721, Control_c, 11, 11, 113
1, 81726, Control_c, 7, 11, 112
1, 81726, Control_c, 15, 11, 113
1, 81731, Control_c, 8, 11, 113
1, 81740, Note_on_c, 1, 26, 0
1, 81750, Control_c, 14, 11, 111
1, 81755, Control_c, 13, 11, 111
1, 81760, Control_c, 11, 11, 111
1, 81765, Control_c, 7, 11, 111
1, 81765, Control_c, 15, 11, 111
1, 81770, Control_c, 8, 11, 111
1, 81803, Control_c, 14, 11, 108
1, 81808, Control_c, 13, 11, 108
1, 81813, Control_c, 11, 11, 108
1, 81818, Control_c, 7, 11, 109
1, 81818, Control_c, 15, 11, 108
1, 81823, Control_c, 8, 11, 108
1, 81838, Note_on_c, 9, 42, 96
1, 81842, Note_on_c, 1, 26, 112
1, 81843, Control_c, 14, 11, 108
1, 81848, Control_c, 13, 11, 108
1, 81853, Control_c, 11, 11, 108
1, 81858, Note_on_c, 9, 42, 0
1, 81858, Control_c, 7, 11, 108
1, 81858, Control_c, 15, 11, 108
1, 81863, Control_c, 8, 11, 108
1, 81881, Control_c, 14, 11, 107
1, 81886, Control_c, 13, 11, 107
1, 81891, Control_c, 11, 11, 107
1, 81896, Control_c, 7, 11, 106
1, 81896, Control_c, 15, 11, 107
1, 81901, Control_c, 8, 11, 107
1, 81921, Control_c, 14, 11, 105
1, 81926, Control_c, 13, 11, 105
1, 81931, Control_c, 11, 11, 105
1, 81936, Control_c, 7, 11, 105
1, 81936, Control_c, 15, 11, 105
1, 81941, Control_c, 8, 11, 105
1, 81961, Control_c, 14, 11, 102
1, 81966, Control_c, 13, 11, 102
1, 81971, Control_c, 11, 11, 102
1, 81976, Control_c, 7, 11, 103
1, 81976, Control_c, 15, 11, 102
1, 81981, Control_c, 8, 11, 102
1, 81982, Note_on_c, 1, 26, 0
1, 81999, Control_c, 14, 11, 100
1, 82004, Control_c, 13, 11, 100
1, 82009, Control_c, 11, 11, 100
1, 82014, Control_c, 7, 11, 100
1, 82014, Control_c, 15, 11, 100
1, 82019, Control_c, 8, 11, 100
1, 82040, Control_c, 14, 11, 101
1, 82045, Control_c, 13, 11, 101
1, 82050, Control_c, 11, 11, 101
1, 82055, Control_c, 7, 11, 100
1, 82055, Control_c, 15, 11, 101
1, 82060, Control_c, 8, 11, 101
1, 82065, Control_c, 14, 11, 98
1, 82070, Control_c, 13, 11, 98
1, 82075, Control_c, 11, 11, 98
1, 82079, Note_on_c, 9, 40, 126
1, 82080, Note_on_c, 9, 42, 127
1, 82080, Control_c, 7, 11, 99
1, 82080, Control_c, 15, 11, 98
1, 82081, Note_on_c, 1, 26, 119
1, 82085, Control_c, 8, 11, 98
1, 82093, Control_c, 14, 11, 97
1, 82098, Control_c, 13, 11, 97
1, 82099, Note_on_c, 9, 40, 0
1, 82100, Note_on_c, 9, 42, 0
1, 82103, Control_c, 11, 11, 97
1, 82108, Control_c, 7, 11, 96
1, 82108, Control_c, 15, 11, 97
1, 82113, Control_c, 8, 11, 97
1, 82117, Control_c, 14, 11, 95
1, 82122, Control_c, 13, 11, 95
1, 82127, Control_c, 11, 11, 95
1, 82132, Control_c, 7, 11, 95
1, 82132, Control_c, 15, 11, 95
1, 82137, Control_c, 8, 11, 95
1, 82145, Control_c, 14, 11, 92
1, 82150, Control_c, 13, 11, 92
1, 82155, Control_c, 11, 11, 92
1, 82157, Control_c, 14, 11, 91
1, 82160, Control_c, 7, 11, 93
1, 82160, Control_c, 15, 11, 92
1, 82162, Control_c, 13, 11, 91
1, 82165, Control_c, 8, 11, 92
1, 82167, Control_c, 11, 11, 91
1, 82172, Control_c, 7, 11, 90
1, 82172, Control_c, 15, 11, 91
1, 82177, Control_c, 8, 11, 91
1, 82183, Control_c, 14, 11, 90
1, 82188, Control_c, 13, 11, 90
1, 82193, Control_c, 11, 11, 90
1, 82198, Control_c, 7, 11, 91
1, 82198, Control_c, 15, 11, 90
1, 82203, Control_c, 8, 11, 90
1, 82221, Note_on_c, 1, 26, 0
1, 82224, Control_c, 14, 11, 88
1, 82229, Control_c, 13, 11, 88
1, 82234, Control_c, 11, 11, 88
1, 82239, Control_c, 7, 11, 88
1, 82239, Control_c, 15, 11, 88
1, 82244, Control_c, 8, 11, 88
1, 82276, Control_c, 14, 11, 87
1, 82281, Control_c, 13, 11, 87
1, 82286, Control_c, 11, 11, 87
1, 82291, Control_c, 7, 11, 86
1, 82291, Control_c, 15, 11, 87
1, 82296, Control_c, 8, 11, 87
1, 82320, Note_on_c, 1, 26, 117
1, 82321, Note_on_c, 9, 42, 95
1, 82327, Control_c, 14, 11, 85
1, 82332, Control_c, 13, 11, 85
1, 82337, Control_c, 11, 11, 85
1, 82341, Note_on_c, 9, 42, 0
1, 82342, Control_c, 7, 11, 85
1, 82342, Control_c, 15, 11, 85
1, 82347, Control_c, 8, 11, 85
1, 82368, Control_c, 14, 11, 84
1, 82373, Control_c, 13, 11, 84
1, 82378, Control_c, 11, 11, 84
1, 82383, Control_c, 7, 11, 85
1, 82383, Control_c, 15, 11, 84
1, 82388, Control_c, 8, 11, 84
1, 82394, Control_c, 14, 11, 82
1, 82399, Control_c, 13, 11, 82
1, 82404, Control_c, 11, 11, 82
1, 82409, Control_c, 7, 11, 82
1, 82409, Control_c, 15, 11, 82
1, 82414, Control_c, 8, 11, 82
1, 82419, Control_c, 14, 11, 81
1, 82420, Note_on_c, 1, 26, 0
1, 82424, Control_c, 13, 11, 81
1, 82429, Control_c, 11, 11, 81
1, 82434, Control_c, 7, 11, 80
1, 82434, Control_c, 15, 11, 81
1, 82439, Control_c, 8, 11, 81
1, 82440, Note_on_c, 1, 26, 114
1, 82459, Control_c, 14, 11, 79
1, 82464, Control_c, 13, 11, 79
1, 82469, Control_c, 11, 11, 79
1, 82474, Control_c, 7, 11, 79
1, 82474, Control_c, 15, 11, 79
1, 82479, Control_c, 8, 11, 79
1, 82485, Control_c, 14, 11, 76
1, 82490, Control_c, 13, 11, 76
1, 82495, Control_c, 11, 11, 76
1, 82500, Control_c, 7, 11, 77
1, 82500, Control_c, 15, 11, 76
1, 82505, Control_c, 8, 11, 76
1, 82511, Control_c, 14, 11, 74
1, 82516, Control_c, 13, 11, 74
1, 82521, Control_c, 11, 11, 74
1, 82526, Control_c, 7, 11, 74
1, 82526, Control_c, 15, 11, 74
1, 82531, Control_c, 8, 11, 74
1, 82540, Note_on_c, 1, 26, 0
1, 82540, Note_on_c, 3, 74, 0
1, 82552, Control_c, 14, 11, 75
1, 82557, Control_c, 13, 11, 75
1, 82558, Note_on_c, 9, 42, 126
1, 82560, Note_on_c, 1, 26, 112
1, 82560, Note_on_c, 9, 36, 127
1, 82562, Control_c, 11, 11, 75
1, 82567, Control_c, 7, 11, 74
1, 82567, Control_c, 15, 11, 75
1, 82572, Control_c, 8, 11, 75
1, 82578, Note_on_c, 9, 42, 0
1, 82580, Note_on_c, 9, 36, 0
1, 82631, Control_c, 14, 11, 72
1, 82636, Control_c, 13, 11, 72
1, 82641, Control_c, 11, 11, 72
1, 82646, Control_c, 7, 11, 73
1, 82646, Control_c, 15, 11, 72
1, 82651, Control_c, 8, 11, 72
1, 82686, System_exclusive, 37, 0, 32, 36, 0, 4, 87, 72, 89, 32, 68, 79, 32, 89, 79, 85, 32, 80, 76, 65, 89, 32, 77, 69, 32, 76, 73, 75, 69, 32, 65, 32, 71, 65, 77, 69, 10, 247
1, 82691, System_exclusive, 35, 0, 32, 36, 0, 5, 65, 76, 87, 65, 89, 83, 32, 83, 79, 77, 69, 79, 78, 69, 32, 69, 76, 83, 69, 32, 84, 79, 32, 66, 76, 65, 77, 69, 10, 247
1, 82696, System_exclusive, 7, 0, 32, 36, 0, 6, 10, 247
1, 82700, Note_on_c, 1, 26, 0
1, 82701, System_exclusive, 7, 0, 32, 36, 0, 7, 10, 247
1, 82710, Control_c, 14, 11, 71
1, 82711, System_exclusive, 6, 0, 32, 36, 0, 8, 247
1, 82715, Control_c, 13, 11, 71
1, 82720, Control_c, 11, 11, 71
1, 82725, Control_c, 7, 11, 70
1, 82725, Control_c, 15, 11, 71
1, 82730, Control_c, 8, 11, 71
1, 82762, Control_c, 14, 11, 69
1, 82767, Control_c, 13, 11, 69
1, 82772, Control_c, 11, 11, 69
1, 82777, Control_c, 7, 11, 69
1, 82777, Control_c, 15, 11, 69
1, 82782, Control_c, 8, 11, 69
1, 82789, Control_c, 14, 11, 68
1, 82794, Control_c, 13, 11, 68
1, 82799, Note_on_c, 1, 26, 113
1, 82799, Control_c, 11, 11, 68
1, 82803, Note_on_c, 9, 42, 90
1, 82804, Control_c, 7, 11, 69
1, 82804, Control_c, 15, 11, 68
1, 82809, Control_c, 8, 11, 68
1, 82823, Note_on_c, 9, 42, 0
1, 82827, Control_c, 14, 11, 67
1, 82832, Control_c, 13, 11, 67
1, 82837, Control_c, 11, 11, 67
1, 82842, Control_c, 7, 11, 66
1, 82842, Control_c, 15, 11, 67
1, 82847, Control_c, 8, 11, 67
1, 82867, Control_c, 14, 11, 64
1, 82872, Control_c, 13, 11, 64
1, 82877, Control_c, 11, 11, 64
1, 82882, Control_c, 7, 11, 65
1, 82882, Control_c, 15, 11, 64
1, 82887, Control_c, 8, 11, 64
1, 82899, Note_on_c, 1, 26, 0
1, 82920, Note_on_c, 1, 26, 119
1, 82920, Control_c, 14, 11, 62
1, 82925, Control_c, 13, 11, 62
1, 82930, Control_c, 11, 11, 62
1, 82935, Control_c, 7, 11, 62
1, 82935, Control_c, 15, 11, 62
1, 82940, Control_c, 8, 11, 62
1, 82958, Control_c, 14, 11, 61
1, 82963, Control_c, 13, 11, 61
1, 82968, Control_c, 11, 11, 61
1, 82973, Control_c, 7, 11, 60
1, 82973, Control_c, 15, 11, 61
1, 82978, Control_c, 8, 11, 61
1, 82985, Control_c, 14, 11, 59
1, 82990, Control_c, 13, 11, 59
1, 82995, Control_c, 11, 11, 59
1, 83000, Control_c, 7, 11, 59
1, 83000, Control_c, 15, 11, 59
1, 83005, Control_c, 8, 11, 59
1, 83020, Note_on_c, 1, 26, 0
1, 83038, Control_c, 14, 11, 58
1, 83042, Note_on_c, 1, 26, 116
1, 83042, Note_on_c, 9, 42, 127
1, 83043, Note_on_c, 9, 40, 127
1, 83043, Control_c, 13, 11, 58
1, 83048, Control_c, 11, 11, 58
1, 83053, Control_c, 7, 11, 59
1, 83053, Control_c, 15, 11, 58
1, 83058, Control_c, 8, 11, 58
1, 83062, Note_on_c, 9, 42, 0
1, 83062, Control_c, 14, 11, 56
1, 83063, Note_on_c, 9, 40, 0
1, 83067, Control_c, 13, 11, 56
1, 83072, Control_c, 11, 11, 56
1, 83077, Control_c, 7, 11, 56
1, 83077, Control_c, 15, 11, 56
1, 83082, Control_c, 8, 11, 56
1, 83090, Control_c, 14, 11, 55
1, 83095, Control_c, 13, 11, 55
1, 83100, Control_c, 11, 11, 55
1, 83105, Control_c, 7, 11, 54
1, 83105, Control_c, 15, 11, 55
1, 83110, Control_c, 8, 11, 55
1, 83115, Control_c, 14, 11, 53
1, 83120, Control_c, 13, 11, 53
1, 83125, Control_c, 11, 11, 53
1, 83130, Control_c, 7, 11, 53
1, 83130, Control_c, 15, 11, 53
1, 83135, Control_c, 8, 11, 53
1, 83142, Note_on_c, 1, 26, 0
1, 83142, Control_c, 14, 11, 50
1, 83147, Control_c, 13, 11, 50
1, 83152, Control_c, 11, 11, 50
1, 83157, Control_c, 7, 11, 51
1, 83157, Control_c, 15, 11, 50
1, 83162, Control_c, 8, 11, 50
1, 83169, Control_c, 14, 11, 48
1, 83174, Control_c, 13, 11, 48
1, 83179, Control_c, 11, 11, 48
1, 83184, Control_c, 7, 11, 48
1, 83184, Control_c, 15, 11, 48
1, 83189, Control_c, 8, 11, 48
1, 83194, Control_c, 14, 11, 49
1, 83199, Control_c, 13, 11, 49
1, 83204, Control_c, 11, 11, 49
1, 83209, Control_c, 7, 11, 48
1, 83209, Control_c, 15, 11, 49
1, 83214, Control_c, 8, 11, 49
1, 83235, Control_c, 14, 11, 46
1, 83240, Control_c, 13, 11, 46
1, 83245, Control_c, 11, 11, 46
1, 83250, Control_c, 7, 11, 47
1, 83250, Control_c, 15, 11, 46
1, 83255, Control_c, 8, 11, 46
1, 83273, Control_c, 14, 11, 45
1, 83278, Control_c, 13, 11, 45
1, 83280, Note_on_c, 1, 26, 110
1, 83280, Note_on_c, 9, 42, 94
1, 83283, Control_c, 11, 11, 45
1, 83288, Control_c, 7, 11, 44
1, 83288, Control_c, 15, 11, 45
1, 83293, Control_c, 8, 11, 45
1, 83300, Note_on_c, 9, 42, 0
1, 83300, Control_c, 14, 11, 43
1, 83305, Control_c, 13, 11, 43
1, 83310, Control_c, 11, 11, 43
1, 83312, Control_c, 14, 11, 42
1, 83315, Control_c, 7, 11, 43
1, 83315, Control_c, 15, 11, 43
1, 83317, Control_c, 13, 11, 42
1, 83320, Control_c, 8, 11, 43
1, 83322, Control_c, 11, 11, 42
1, 83327, Control_c, 7, 11, 43
1, 83327, Control_c, 15, 11, 42
1, 83332, Control_c, 8, 11, 42
1, 83379, Control_c, 14, 11, 41
1, 83380, Note_on_c, 1, 26, 0
1, 83384, Control_c, 13, 11, 41
1, 83389, Control_c, 11, 11, 41
1, 83394, Control_c, 7, 11, 40
1, 83394, Control_c, 15, 11, 41
1, 83399, Control_c, 8, 11, 41
1, 83401, Note_on_c, 1, 26, 115
1, 83445, Control_c, 14, 11, 38
1, 83450, Control_c, 13, 11, 38
1, 83455, Control_c, 11, 11, 38
1, 83460, Control_c, 7, 11, 39
1, 83460, Control_c, 15, 11, 38
1, 83465, Control_c, 8, 11, 38
1, 83497, Control_c, 14, 11, 36
1, 83501, Note_on_c, 1, 26, 0
1, 83502, Control_c, 13, 11, 36
1, 83507, Control_c, 11, 11, 36
1, 83512, Control_c, 7, 11, 36
1, 83512, Control_c, 15, 11, 36
1, 83517, Control_c, 8, 11, 36
1, 83519, Note_on_c, 9, 42, 127
1, 83521, Note_on_c, 1, 26, 110
1, 83521, Note_on_c, 9, 36, 127
1, 83522, Control_c, 14, 11, 35
1, 83527, Control_c, 13, 11, 35
1, 83532, Control_c, 11, 11, 35
1, 83537, Control_c, 7, 11, 34
1, 83537, Control_c, 15, 11, 35
1, 83539, Note_on_c, 9, 42, 0
1, 83541, Note_on_c, 9, 36, 0
1, 83542, Control_c, 8, 11, 35
1, 83550, Control_c, 14, 11, 35
1, 83555, Control_c, 13, 11, 35
1, 83560, Control_c, 11, 11, 35
1, 83565, Control_c, 7, 11, 35
1, 83565, Control_c, 15, 11, 35
1, 83570, Control_c, 8, 11, 35
1, 83575, Control_c, 14, 11, 31
1, 83580, Control_c, 13, 11, 31
1, 83585, Control_c, 11, 11, 31
1, 83590, Control_c, 7, 11, 31
1, 83590, Control_c, 15, 11, 31
1, 83595, Control_c, 8, 11, 31
1, 83615, Control_c, 14, 11, 31
1, 83620, Control_c, 13, 11, 31
1, 83625, Control_c, 11, 11, 31
1, 83630, Control_c, 7, 11, 31
1, 83630, Control_c, 15, 11, 31
1, 83635, Control_c, 8, 11, 31
1, 83640, Control_c, 14, 11, 29
1, 83645, Control_c, 13, 11, 29
1, 83650, Control_c, 11, 11, 29
1, 83654, Control_c, 14, 11, 27
1, 83655, Control_c, 7, 11, 29
1, 83655, Control_c, 15, 11, 29
1, 83659, Control_c, 13, 11, 27
1, 83660, Control_c, 8, 11, 29
1, 83661, Note_on_c, 1, 26, 0
1, 83664, Control_c, 11, 11, 27
1, 83668, Control_c, 14, 11, 26
1, 83669, Control_c, 7, 11, 27
1, 83669, Control_c, 15, 11, 27
1, 83673, Control_c, 13, 11, 26
1, 83674, Control_c, 8, 11, 27
1, 83678, Control_c, 11, 11, 26
1, 83680, Control_c, 14, 11, 24
1, 83683, Control_c, 7, 11, 26
1, 83683, Control_c, 15, 11, 26
1, 83685, Control_c, 13, 11, 24
1, 83688, Control_c, 8, 11, 26
1, 83690, Control_c, 11, 11, 24
1, 83695, Control_c, 7, 11, 24
1, 83695, Control_c, 15, 11, 24
1, 83700, Control_c, 8, 11, 24
1, 83706, Control_c, 14, 11, 22
1, 83711, Control_c, 13, 11, 22
1, 83716, Control_c, 11, 11, 22
1, 83721, Control_c, 7, 11, 22
1, 83721, Control_c, 15, 11, 22
1, 83726, Control_c, 8, 11, 22
1, 83734, Control_c, 14, 11, 19
1, 83739, Control_c, 13, 11, 19
1, 83744, Control_c, 11, 11, 19
1, 83746, Control_c, 14, 11, 17
1, 83749, Control_c, 7, 11, 19
1, 83749, Control_c, 15, 11, 19
1, 83751, Control_c, 13, 11, 17
1, 83754, Control_c, 8, 11, 19
1, 83756, Control_c, 11, 11, 17
1, 83759, Note_on_c, 9, 36, 126
1, 83759, Note_on_c, 9, 42, 97
1, 83759, Control_c, 14, 11, 16
1, 83761, Note_on_c, 1, 26, 115
1, 83761, Control_c, 7, 11, 17
1, 83761, Control_c, 15, 11, 17
1, 83764, Control_c, 13, 11, 16
1, 83766, Control_c, 8, 11, 17
1, 83769, Control_c, 11, 11, 16
1, 83772, Control_c, 14, 11, 14
1, 83774, Control_c, 7, 11, 16
1, 83774, Control_c, 15, 11, 16
1, 83777, Control_c, 13, 11, 14
1, 83779, Note_on_c, 9, 36, 0
1, 83779, Note_on_c, 9, 42, 0
1, 83779, Control_c, 8, 11, 16
1, 83782, Control_c, 11, 11, 14
1, 83787, Control_c, 7, 11, 14
1, 83787, Control_c, 14, 11, 12
1, 83787, Control_c, 15, 11, 14
1, 83792, Control_c, 8, 11, 14
1, 83792, Control_c, 13, 11, 12
1, 83797, Control_c, 11, 11, 12
1, 83802, Control_c, 7, 11, 12
1, 83802, Control_c, 15, 11, 12
1, 83807, Control_c, 8, 11, 12
1, 83838, Control_c, 14, 11, 11
1, 83843, Control_c, 13, 11, 11
1, 83848, Control_c, 11, 11, 11
1, 83853, Control_c, 7, 11, 11
1, 83853, Control_c, 15, 11, 11
1, 83858, Control_c, 8, 11, 11
1, 83891, Control_c, 14, 11, 9
1, 83896, Control_c, 13, 11, 9
1, 83901, Note_on_c, 1, 26, 0
1, 83901, Control_c, 11, 11, 9
1, 83906, Control_c, 7, 11, 9
1, 83906, Control_c, 15, 11, 9
1, 83911, Control_c, 8, 11, 9
1, 83944, Control_c, 14, 11, 7
1, 83949, Control_c, 13, 11, 7
1, 83954, Control_c, 11, 11, 7
1, 83959, Control_c, 7, 11, 7
1, 83959, Control_c, 15, 11, 7
1, 83964, Control_c, 8, 11, 7
1, 83969, Control_c, 14, 11, 4
1, 83974, Control_c, 13, 11, 4
1, 83979, Control_c, 11, 11, 4
1, 83984, Control_c, 7, 11, 4
1, 83984, Control_c, 14, 11, 3
1, 83984, Control_c, 15, 11, 4
1, 83989, Control_c, 8, 11, 4
1, 83989, Control_c, 13, 11, 3
1, 83994, Control_c, 11, 11, 3
1, 83999, Control_c, 7, 11, 3
1, 83999, Control_c, 15, 11, 3
1, 84000, Note_on_c, 3, 74, 105
1, 84000, Note_on_c, 4, 50, 1
1, 84002, Note_on_c, 9, 40, 126
1, 84002, Note_on_c, 9, 42, 126
1, 84003, Note_on_c, 1, 26, 117
1, 84004, Control_c, 8, 11, 3
1, 84009, Control_c, 14, 11, 1
1, 84014, Control_c, 13, 11, 1
1, 84019, Control_c, 11, 11, 1
1, 84022, Note_on_c, 9, 40, 0
1, 84022, Note_on_c, 9, 42, 0
1, 84024, Control_c, 7, 11, 1
1, 84024, Control_c, 15, 11, 1
1, 84029, Control_c, 8, 11, 1
1, 84143, Note_on_c, 1, 26, 0
1, 84239, Note_on_c, 9, 42, 95
1, 84243, Note_on_c, 1, 26, 118
1, 84259, Note_on_c, 9, 42, 0
1, 84340, Note_on_c, 3, 74, 0
1, 84340, Note_on_c, 4, 50, 0
1, 84343, Note_on_c, 1, 26, 0
1, 84360, Note_on_c, 3, 81, 105
1, 84360, Note_on_c, 4, 57, 1
1, 84363, Note_on_c, 1, 26, 119
1, 84450, Note_on_c, 11, 62, 0
1, 84451, Note_on_c, 11, 69, 0
1, 84452, Note_on_c, 11, 57, 0
1, 84453, Note_on_c, 14, 50, 0
1, 84453, Note_on_c, 14, 57, 0
1, 84460, Note_on_c, 7, 62, 0
1, 84460, Control_c, 13, 11, 126
1, 84462, Note_on_c, 8, 38, 0
1, 84462, Note_on_c, 8, 50, 0
1, 84462, Note_on_c, 8, 57, 0
1, 84463, Note_on_c, 1, 26, 0
1, 84465, Control_c, 11, 11, 126
1, 84469, Note_on_c, 13, 69, 0
1, 84470, Program_c, 11, 27
1, 84470, Note_on_c, 15, 45, 0
1, 84470, Note_on_c, 15, 52, 0
1, 84470, Control_c, 11, 10, 64
1, 84470, Control_c, 11, 91, 127
1, 84471, Note_on_c, 13, 57, 0
1, 84471, Note_on_c, 13, 62, 0
1, 84478, Note_on_c, 11, 62, 85
1, 84480, Note_on_c, 9, 36, 127
1, 84481, Note_on_c, 1, 26, 114
1, 84481, Note_on_c, 12, 62, 85
1, 84482, Note_on_c, 9, 49, 70
1, 84500, Note_on_c, 9, 36, 0
1, 84502, Note_on_c, 9, 49, 0
1, 84621, Note_on_c, 1, 26, 0
1, 84718, Note_on_c, 1, 26, 116
1, 84719, Control_c, 14, 11, 48
1, 84720, Note_on_c, 9, 42, 90
1, 84721, Note_on_c, 11, 65, 85
1, 84722, Note_on_c, 12, 65, 84
1, 84732, Control_c, 14, 11, 90
1, 84734, Control_c, 15, 11, 48
1, 84740, Note_on_c, 9, 42, 0
1, 84745, Control_c, 14, 11, 127
1, 84747, Control_c, 15, 11, 90
1, 84760, Control_c, 15, 11, 127
1, 84818, Note_on_c, 1, 26, 0
1, 84842, Note_on_c, 1, 26, 113
1, 84843, Pitch_bend_c, 11, 8448
1, 84843, Pitch_bend_c, 12, 8576
1, 84852, Pitch_bend_c, 11, 8832
1, 84852, Pitch_bend_c, 12, 8704
1, 84862, Pitch_bend_c, 11, 8832
1, 84862, Pitch_bend_c, 12, 8832
1, 84866, Pitch_bend_c, 11, 8960
1, 84866, Pitch_bend_c, 12, 9088
1, 84875, Pitch_bend_c, 11, 9344
1, 84875, Pitch_bend_c, 12, 9216
1, 84904, Pitch_bend_c, 11, 8960
1, 84904, Pitch_bend_c, 12, 9088
1, 84936, Pitch_bend_c, 11, 8704
1, 84936, Pitch_bend_c, 12, 8704
1, 84940, Note_on_c, 3, 81, 0
1, 84940, Note_on_c, 4, 57, 0
1, 84941, Pitch_bend_c, 11, 8576
1, 84941, Pitch_bend_c, 12, 8448
1, 84942, Note_on_c, 1, 26, 0
1, 84946, Pitch_bend_c, 11, 8320
1, 84946, Pitch_bend_c, 12, 8320
1, 84959, Note_on_c, 1, 26, 117
1, 84959, Pitch_bend_c, 11, 8192
1, 84959, Pitch_bend_c, 12, 8320
1, 84960, Note_on_c, 3, 81, 104
1, 84960, Note_on_c, 4, 57, 1
1, 84961, Note_on_c, 9, 40, 126
1, 84963, Note_on_c, 9, 42, 126
1, 84981, Note_on_c, 9, 40, 0
1, 84983, Note_on_c, 9, 42, 0
1, 85016, Pitch_bend_c, 11, 7936
1, 85016, Pitch_bend_c, 12, 7936
1, 85025, Pitch_bend_c, 11, 7808
1, 85025, Pitch_bend_c, 12, 7680
1, 85053, Pitch_bend_c, 11, 7552
1, 85053, Pitch_bend_c, 12, 7552
1, 85059, Note_on_c, 1, 26, 0
1, 85062, Pitch_bend_c, 11, 7424
1, 85062, Pitch_bend_c, 12, 7552
1, 85081, Pitch_bend_c, 11, 7424
1, 85081, Pitch_bend_c, 12, 7424
1, 85090, Pitch_bend_c, 11, 7808
1, 85090, Pitch_bend_c, 12, 7680
1, 85093, Control_c, 12, 11, 124
1, 85100, Pitch_bend_c, 11, 8192
1, 85100, Pitch_bend_c, 12, 8320
1, 85117, Control_c, 12, 11, 123
1, 85145, Control_c, 12, 11, 120
1, 85147, Pitch_bend_c, 11, 8576
1, 85147, Pitch_bend_c, 12, 8448
1, 85151, Pitch_bend_c, 11, 8576
1, 85151, Pitch_bend_c, 12, 8576
1, 85170, Control_c, 12, 11, 118
1, 85180, Note_on_c, 3, 81, 0
1, 85180, Note_on_c, 4, 57, 0
1, 85189, Pitch_bend_c, 11, 8704
1, 85189, Pitch_bend_c, 12, 8832
1, 85198, Note_on_c, 9, 42, 95
1, 85198, Control_c, 12, 11, 117
1, 85198, Pitch_bend_c, 11, 9088
1, 85198, Pitch_bend_c, 12, 8960
1, 85200, Note_on_c, 3, 81, 104
1, 85200, Note_on_c, 4, 57, 1
1, 85201, Note_on_c, 1, 26, 112
1, 85218, Note_on_c, 9, 42, 0
1, 85223, Control_c, 12, 11, 117
1, 85226, Pitch_bend_c, 11, 8704
1, 85226, Pitch_bend_c, 12, 8832
1, 85235, Pitch_bend_c, 11, 8448
1, 85235, Pitch_bend_c, 12, 8448
1, 85240, Pitch_bend_c, 11, 8320
1, 85240, Pitch_bend_c, 12, 8192
1, 85244, Pitch_bend_c, 11, 8320
1, 85244, Pitch_bend_c, 12, 8320
1, 85264, Control_c, 12, 11, 114
1, 85282, Pitch_bend_c, 11, 7936
1, 85282, Pitch_bend_c, 12, 8064
1, 85289, Control_c, 12, 11, 112
1, 85291, Pitch_bend_c, 11, 7680
1, 85291, Pitch_bend_c, 12, 7680
1, 85301, Note_on_c, 1, 26, 0
1, 85310, Pitch_bend_c, 11, 7808
1, 85310, Pitch_bend_c, 12, 7680
1, 85315, Control_c, 12, 11, 111
1, 85319, Pitch_bend_c, 11, 7552
1, 85319, Pitch_bend_c, 12, 7552
1, 85323, Note_on_c, 1, 26, 116
1, 85329, Pitch_bend_c, 11, 7168
1, 85329, Pitch_bend_c, 12, 7296
1, 85338, Pitch_bend_c, 11, 7424
1, 85338, Pitch_bend_c, 12, 7424
1, 85342, Control_c, 12, 11, 109
1, 85347, Pitch_bend_c, 11, 7808
1, 85347, Pitch_bend_c, 12, 7680
1, 85357, Pitch_bend_c, 11, 7936
1, 85357, Pitch_bend_c, 12, 8064
1, 85366, Pitch_bend_c, 11, 8320
1, 85366, Pitch_bend_c, 12, 8192
1, 85368, Control_c, 12, 11, 106
1, 85395, Control_c, 12, 11, 106
1, 85399, Pitch_bend_c, 11, 8576
1, 85399, Pitch_bend_c, 12, 8576
1, 85406, Control_c, 12, 11, 105
1, 85408, Pitch_bend_c, 11, 8704
1, 85408, Pitch_bend_c, 12, 8832
1, 85418, Pitch_bend_c, 11, 9088
1, 85418, Pitch_bend_c, 12, 8960
1, 85420, Note_on_c, 3, 81, 0
1, 85420, Note_on_c, 4, 57, 0
1, 85423, Note_on_c, 1, 26, 0
1, 85430, Control_c, 7, 11, 127
1, 85433, Control_c, 12, 11, 102
1, 85435, Control_c, 8, 11, 126
1, 85440, Note_on_c, 3, 81, 105
1, 85440, Note_on_c, 4, 57, 1
1, 85441, Pitch_bend_c, 11, 9216
1, 85441, Pitch_bend_c, 12, 9344
1, 85442, Note_on_c, 1, 26, 115
1, 85442, Note_on_c, 9, 36, 126
1, 85442, Note_on_c, 9, 42, 127
1, 85450, Pitch_bend_c, 11, 9216
1, 85450, Pitch_bend_c, 12, 9216
1, 85461, Control_c, 12, 11, 101
1, 85462, Note_on_c, 9, 36, 0
1, 85462, Note_on_c, 9, 42, 0
1, 85486, Control_c, 12, 11, 99
1, 85488, Pitch_bend_c, 11, 9344
1, 85488, Pitch_bend_c, 12, 9216
1, 85501, Pitch_bend_c, 11, 8832
1, 85501, Pitch_bend_c, 12, 8832
1, 85506, Pitch_bend_c, 11, 8704
1, 85506, Pitch_bend_c, 12, 8832
1, 85512, Control_c, 12, 11, 96
1, 85516, Pitch_bend_c, 11, 8192
1, 85516, Pitch_bend_c, 12, 8192
1, 85525, Pitch_bend_c, 11, 8320
1, 85525, Pitch_bend_c, 12, 8192
1, 85538, Control_c, 12, 11, 95
1, 85564, Control_c, 12, 11, 92
1, 85582, Note_on_c, 1, 26, 0
1, 85582, Pitch_bend_c, 11, 8064
1, 85582, Pitch_bend_c, 12, 8064
1, 85592, Control_c, 12, 11, 90
1, 85600, Pitch_bend_c, 11, 7680
1, 85600, Pitch_bend_c, 12, 7808
1, 85617, Control_c, 12, 11, 89
1, 85623, Pitch_bend_c, 11, 7936
1, 85623, Pitch_bend_c, 12, 7936
1, 85642, Pitch_bend_c, 11, 8320
1, 85642, Pitch_bend_c, 12, 8192
1, 85644, Control_c, 12, 11, 87
1, 85660, Note_on_c, 3, 81, 0
1, 85660, Note_on_c, 4, 57, 0
1, 85669, Control_c, 12, 11, 84
1, 85679, Note_on_c, 9, 42, 96
1, 85680, Note_on_c, 1, 26, 113
1, 85680, Note_on_c, 3, 79, 104
1, 85680, Note_on_c, 4, 55, 1
1, 85689, Pitch_bend_c, 11, 8448
1, 85689, Pitch_bend_c, 12, 8576
1, 85696, Control_c, 12, 11, 84
1, 85698, Pitch_bend_c, 11, 8832
1, 85698, Pitch_bend_c, 12, 8704
1, 85699, Note_on_c, 9, 42, 0
1, 85707, Pitch_bend_c, 11, 9088
1, 85707, Pitch_bend_c, 12, 9088
1, 85723, Control_c, 12, 11, 83
1, 85735, Control_c, 12, 11, 81
1, 85740, Pitch_bend_c, 11, 9216
1, 85740, Pitch_bend_c, 12, 9344
1, 85761, Control_c, 12, 11, 78
1, 85773, Pitch_bend_c, 11, 9088
1, 85773, Pitch_bend_c, 12, 8960
1, 85780, Note_on_c, 3, 79, 0
1, 85780, Note_on_c, 4, 55, 0
1, 85787, Pitch_bend_c, 11, 8704
1, 85787, Pitch_bend_c, 12, 8832
1, 85789, Control_c, 12, 11, 76
1, 85796, Pitch_bend_c, 11, 8448
1, 85796, Pitch_bend_c, 12, 8448
1, 85800, Note_on_c, 3, 79, 105
1, 85800, Note_on_c, 4, 55, 1
1, 85801, Pitch_bend_c, 11, 8320
1, 85801, Pitch_bend_c, 12, 8192
1, 85810, Pitch_bend_c, 11, 8320
1, 85810, Pitch_bend_c, 12, 8320
1, 85814, Control_c, 12, 11, 75
1, 85820, Note_on_c, 1, 26, 0
1, 85842, Control_c, 12, 11, 72
1, 85862, Pitch_bend_c, 11, 7936
1, 85862, Pitch_bend_c, 12, 8064
1, 85866, Control_c, 12, 11, 71
1, 85876, Pitch_bend_c, 11, 7680
1, 85876, Pitch_bend_c, 12, 7680
1, 85879, Control_c, 12, 11, 71
1, 85907, Control_c, 12, 11, 68
1, 85918, Note_on_c, 1, 26, 116
1, 85918, Note_on_c, 9, 40, 127
1, 85918, Note_on_c, 9, 42, 126
1, 85932, Control_c, 12, 11, 67
1, 85932, Pitch_bend_c, 11, 8320
1, 85932, Pitch_bend_c, 12, 8192
1, 85938, Note_on_c, 9, 40, 0
1, 85938, Note_on_c, 9, 42, 0
1, 85959, Control_c, 12, 11, 64
1, 85974, Pitch_bend_c, 11, 8576
1, 85974, Pitch_bend_c, 12, 8576
1, 85983, Pitch_bend_c, 11, 8704
1, 85983, Pitch_bend_c, 12, 8832
1, 85984, Control_c, 12, 11, 62
1, 85997, Pitch_bend_c, 11, 8960
1, 85997, Pitch_bend_c, 12, 8960
1, 86006, Pitch_bend_c, 11, 9344
1, 86006, Pitch_bend_c, 12, 9216
1, 86011, Control_c, 12, 11, 61
1, 86015, Pitch_bend_c, 11, 9472
1, 86015, Pitch_bend_c, 12, 9600
1, 86039, Control_c, 12, 11, 59
1, 86058, Note_on_c, 1, 26, 0
1, 86058, Pitch_bend_c, 11, 9344
1, 86058, Pitch_bend_c, 12, 9216
1, 86067, Pitch_bend_c, 11, 9088
1, 86067, Pitch_bend_c, 12, 9088
1, 86076, Control_c, 12, 11, 56
1, 86077, Pitch_bend_c, 11, 8704
1, 86077, Pitch_bend_c, 12, 8832
1, 86081, Pitch_bend_c, 11, 8576
1, 86081, Pitch_bend_c, 12, 8448
1, 86085, Pitch_bend_c, 11, 8448
1, 86085, Pitch_bend_c, 12, 8576
1, 86095, Pitch_bend_c, 11, 8192
1, 86095, Pitch_bend_c, 12, 8192
1, 86117, Control_c, 12, 11, 52
1, 86140, Note_on_c, 3, 79, 0
1, 86140, Note_on_c, 4, 55, 0
1, 86142, Pitch_bend_c, 11, 8064
1, 86142, Pitch_bend_c, 12, 7936
1, 86143, Control_c, 12, 11, 51
1, 86159, Note_on_c, 1, 26, 118
1, 86160, Note_on_c, 3, 77, 105
1, 86160, Note_on_c, 4, 53, 1
1, 86161, Pitch_bend_c, 11, 7808
1, 86161, Pitch_bend_c, 12, 7808
1, 86162, Note_on_c, 9, 42, 95
1, 86170, Control_c, 12, 11, 51
1, 86170, Pitch_bend_c, 11, 7424
1, 86170, Pitch_bend_c, 12, 7552
1, 86182, Note_on_c, 9, 42, 0
1, 86195, Control_c, 12, 11, 48
1, 86212, Pitch_bend_c, 11, 7680
1, 86212, Pitch_bend_c, 12, 7680
1, 86226, Pitch_bend_c, 11, 8064
1, 86226, Pitch_bend_c, 12, 7936
1, 86231, Pitch_bend_c, 11, 8320
1, 86231, Pitch_bend_c, 12, 8320
1, 86259, Note_on_c, 1, 26, 0
1, 86260, Note_on_c, 3, 77, 0
1, 86260, Note_on_c, 4, 53, 0
1, 86273, Pitch_bend_c, 11, 8192
1, 86273, Pitch_bend_c, 12, 8320
1, 86280, Note_on_c, 3, 77, 104
1, 86280, Note_on_c, 4, 53, 1
1, 86281, Note_on_c, 1, 26, 119
1, 86282, Pitch_bend_c, 11, 8704
1, 86282, Pitch_bend_c, 12, 8704
1, 86291, Pitch_bend_c, 11, 8832
1, 86291, Pitch_bend_c, 12, 8704
1, 86320, Program_c, 13, 28
1, 86325, Control_c, 13, 10, 64
1, 86330, Control_c, 13, 91, 50
1, 86330, Pitch_bend_c, 13, 8320
1, 86350, System_exclusive, 6, 0, 32, 36, 0, 8, 247
1, 86352, Pitch_bend_c, 11, 8704
1, 86352, Pitch_bend_c, 12, 8832
1, 86354, Control_c, 12, 11, 54
1, 86361, Pitch_bend_c, 11, 8576
1, 86361, Pitch_bend_c, 12, 8448
1, 86365, Control_c, 12, 11, 63
1, 86376, Pitch_bend_c, 11, 8320
1, 86376, Pitch_bend_c, 12, 8320
1, 86378, Note_on_c, 11, 62, 0
1, 86378, Control_c, 12, 11, 76
1, 86381, Note_on_c, 1, 26, 0
1, 86381, Note_on_c, 11, 65, 0
1, 86381, Note_on_c, 12, 62, 0
1, 86382, Note_on_c, 12, 65, 0
1, 86390, Pitch_bend_c, 11, 8192
1, 86390, Pitch_bend_c, 12, 8320
1, 86392, Control_c, 12, 11, 97
1, 86400, Note_on_c, 12, 62, 85
1, 86401, Note_on_c, 9, 36, 126
1, 86401, Note_on_c, 9, 42, 127
1, 86402, Note_on_c, 1, 26, 114
1, 86402, Note_on_c, 11, 62, 84
1, 86406, Control_c, 12, 11, 113
1, 86418, Control_c, 12, 11, 126
1, 86421, Note_on_c, 9, 36, 0
1, 86421, Note_on_c, 9, 42, 0
1, 86542, Note_on_c, 1, 26, 0
1, 86639, Note_on_c, 1, 26, 115
1, 86639, Note_on_c, 9, 42, 90
1, 86641, Note_on_c, 12, 65, 85
1, 86643, Note_on_c, 11, 65, 84
1, 86659, Note_on_c, 9, 42, 0
1, 86739, Note_on_c, 1, 26, 0
1, 86759, Note_on_c, 1, 26, 119
1, 86763, Pitch_bend_c, 11, 8576
1, 86763, Pitch_bend_c, 12, 8448
1, 86772, Pitch_bend_c, 11, 8704
1, 86772, Pitch_bend_c, 12, 8832
1, 86782, Pitch_bend_c, 11, 8704
1, 86782, Pitch_bend_c, 12, 8704
1, 86786, Pitch_bend_c, 11, 9088
1, 86786, Pitch_bend_c, 12, 8960
1, 86795, Pitch_bend_c, 11, 9344
1, 86795, Pitch_bend_c, 12, 9344
1, 86824, Pitch_bend_c, 11, 8960
1, 86824, Pitch_bend_c, 12, 9088
1, 86856, Pitch_bend_c, 11, 8704
1, 86856, Pitch_bend_c, 12, 8704
1, 86859, Note_on_c, 1, 26, 0
1, 86860, Note_on_c, 3, 77, 0
1, 86860, Note_on_c, 4, 53, 0
1, 86861, Pitch_bend_c, 11, 8576
1, 86861, Pitch_bend_c, 12, 8448
1, 86866, Pitch_bend_c, 11, 8320
1, 86866, Pitch_bend_c, 12, 8320
1, 86879, Pitch_bend_c, 11, 8192
1, 86879, Pitch_bend_c, 12, 8320
1, 86880, Note_on_c, 1, 26, 118
1, 86880, Note_on_c, 3, 81, 105
1, 86880, Note_on_c, 4, 57, 1
1, 86881, Note_on_c, 9, 40, 127
1, 86882, Note_on_c, 9, 42, 126
1, 86892, Control_c, 12, 11, 125
1, 86901, Note_on_c, 9, 40, 0
1, 86902, Note_on_c, 9, 42, 0
1, 86905, Control_c, 12, 11, 122
1, 86917, Control_c, 12, 11, 118
1, 86930, Control_c, 12, 11, 117
1, 86936, Pitch_bend_c, 11, 7936
1, 86936, Pitch_bend_c, 12, 7936
1, 86943, Control_c, 12, 11, 115
1, 86945, Pitch_bend_c, 11, 7808
1, 86945, Pitch_bend_c, 12, 7680
1, 86956, Control_c, 12, 11, 112
1, 86971, Control_c, 12, 11, 110
1, 86973, Pitch_bend_c, 11, 7424
1, 86973, Pitch_bend_c, 12, 7552
1, 86980, Note_on_c, 1, 26, 0
1, 86982, Pitch_bend_c, 11, 7552
1, 86982, Pitch_bend_c, 12, 7424
1, 86996, Control_c, 12, 11, 109
1, 87001, Pitch_bend_c, 11, 7552
1, 87001, Pitch_bend_c, 12, 7552
1, 87009, Control_c, 12, 11, 107
1, 87010, Pitch_bend_c, 11, 7680
1, 87010, Pitch_bend_c, 12, 7808
1, 87020, Pitch_bend_c, 11, 8320
1, 87020, Pitch_bend_c, 12, 8192
1, 87036, Control_c, 12, 11, 106
1, 87062, Control_c, 12, 11, 104
1, 87067, Pitch_bend_c, 11, 8448
1, 87067, Pitch_bend_c, 12, 8576
1, 87071, Pitch_bend_c, 11, 8448
1, 87071, Pitch_bend_c, 12, 8448
1, 87074, Control_c, 12, 11, 103
1, 87100, Note_on_c, 3, 81, 0
1, 87100, Note_on_c, 4, 57, 0
1, 87102, Control_c, 12, 11, 100
1, 87109, Pitch_bend_c, 11, 8832
1, 87109, Pitch_bend_c, 12, 8704
1, 87114, Control_c, 12, 11, 99
1, 87118, Pitch_bend_c, 11, 9088
1, 87118, Pitch_bend_c, 12, 9088
1, 87119, Note_on_c, 9, 42, 95
1, 87120, Note_on_c, 3, 81, 104
1, 87120, Note_on_c, 4, 57, 1
1, 87123, Note_on_c, 1, 26, 113
1, 87127, Control_c, 12, 11, 97
1, 87139, Note_on_c, 9, 42, 0
1, 87140, Control_c, 12, 11, 94
1, 87146, Pitch_bend_c, 11, 8704
1, 87146, Pitch_bend_c, 12, 8832
1, 87153, Control_c, 12, 11, 95
1, 87155, Pitch_bend_c, 11, 8448
1, 87155, Pitch_bend_c, 12, 8448
1, 87160, Pitch_bend_c, 11, 8320
1, 87160, Pitch_bend_c, 12, 8192
1, 87164, Pitch_bend_c, 11, 8320
1, 87164, Pitch_bend_c, 12, 8320
1, 87181, Control_c, 12, 11, 90
1, 87202, Pitch_bend_c, 11, 7936
1, 87202, Pitch_bend_c, 12, 8064
1, 87206, Control_c, 12, 11, 88
1, 87211, Pitch_bend_c, 11, 7680
1, 87211, Pitch_bend_c, 12, 7680
1, 87223, Note_on_c, 1, 26, 0
1, 87230, Pitch_bend_c, 11, 7808
1, 87230, Pitch_bend_c, 12, 7680
1, 87233, Control_c, 12, 11, 87
1, 87239, Pitch_bend_c, 11, 7424
1, 87239, Pitch_bend_c, 12, 7552
1, 87240, Note_on_c, 1, 26, 116
1, 87249, Pitch_bend_c, 11, 7296
1, 87249, Pitch_bend_c, 12, 7168
1, 87258, Pitch_bend_c, 11, 7552
1, 87258, Pitch_bend_c, 12, 7552
1, 87259, Control_c, 12, 11, 85
1, 87267, Pitch_bend_c, 11, 7680
1, 87267, Pitch_bend_c, 12, 7808
1, 87277, Pitch_bend_c, 11, 8064
1, 87277, Pitch_bend_c, 12, 7936
1, 87286, Control_c, 12, 11, 82
1, 87286, Pitch_bend_c, 11, 8192
1, 87286, Pitch_bend_c, 12, 8320
1, 87311, Control_c, 12, 11, 80
1, 87319, Pitch_bend_c, 11, 8448
1, 87319, Pitch_bend_c, 12, 8448
1, 87328, Pitch_bend_c, 11, 8832
1, 87328, Pitch_bend_c, 12, 8704
1, 87337, Control_c, 12, 11, 81
1, 87338, Pitch_bend_c, 11, 9088
1, 87338, Pitch_bend_c, 12, 9088
1, 87340, Note_on_c, 1, 26, 0
1, 87340, Note_on_c, 3, 81, 0
1, 87340, Note_on_c, 4, 57, 0
1, 87360, Note_on_c, 3, 81, 104
1, 87360, Note_on_c, 4, 57, 1
1, 87360, Note_on_c, 9, 36, 127
1, 87361, Pitch_bend_c, 11, 9216
1, 87361, Pitch_bend_c, 12, 9344
1, 87362, Note_on_c, 9, 42, 126
1, 87363, Note_on_c, 1, 26, 114
1, 87365, Control_c, 12, 11, 79
1, 87370, Pitch_bend_c, 11, 9216
1, 87370, Pitch_bend_c, 12, 9216
1, 87380, Note_on_c, 9, 36, 0
1, 87382, Note_on_c, 9, 42, 0
1, 87390, Control_c, 12, 11, 76
1, 87408, Pitch_bend_c, 11, 9344
1, 87408, Pitch_bend_c, 12, 9216
1, 87418, Control_c, 12, 11, 74
1, 87421, Pitch_bend_c, 11, 8832
1, 87421, Pitch_bend_c, 12, 8832
1, 87426, Pitch_bend_c, 11, 8704
1, 87426, Pitch_bend_c, 12, 8832
1, 87436, Pitch_bend_c, 11, 8192
1, 87436, Pitch_bend_c, 12, 8192
1, 87443, Control_c, 12, 11, 75
1, 87445, Pitch_bend_c, 11, 8320
1, 87445, Pitch_bend_c, 12, 8192
1, 87483, Control_c, 12, 11, 72
1, 87502, Pitch_bend_c, 11, 7936
1, 87502, Pitch_bend_c, 12, 8064
1, 87503, Note_on_c, 1, 26, 0
1, 87508, Control_c, 12, 11, 71
1, 87520, Pitch_bend_c, 11, 7808
1, 87520, Pitch_bend_c, 12, 7680
1, 87534, Control_c, 12, 11, 69
1, 87543, Pitch_bend_c, 11, 8064
1, 87543, Pitch_bend_c, 12, 8064
1, 87562, Control_c, 12, 11, 66
1, 87562, Pitch_bend_c, 11, 8192
1, 87562, Pitch_bend_c, 12, 8320
1, 87580, Note_on_c, 3, 81, 0
1, 87580, Note_on_c, 4, 57, 0
1, 87599, Note_on_c, 9, 42, 97
1, 87600, Note_on_c, 3, 79, 105
1, 87600, Note_on_c, 4, 55, 1
1, 87600, Note_on_c, 9, 36, 127
1, 87601, Control_c, 12, 11, 65
1, 87602, Note_on_c, 1, 26, 113
1, 87609, Pitch_bend_c, 11, 8576
1, 87609, Pitch_bend_c, 12, 8448
1, 87618, Pitch_bend_c, 11, 8704
1, 87618, Pitch_bend_c, 12, 8832
1, 87619, Note_on_c, 9, 42, 0
1, 87620, Note_on_c, 9, 36, 0
1, 87627, Control_c, 12, 11, 64
1, 87627, Pitch_bend_c, 11, 8960
1, 87627, Pitch_bend_c, 12, 8960
1, 87652, Control_c, 12, 11, 62
1, 87660, Pitch_bend_c, 11, 9344
1, 87660, Pitch_bend_c, 12, 9216
1, 87680, Control_c, 12, 11, 61
1, 87693, Pitch_bend_c, 11, 9088
1, 87693, Pitch_bend_c, 12, 9088
1, 87705, Control_c, 12, 11, 59
1, 87707, Pitch_bend_c, 11, 8704
1, 87707, Pitch_bend_c, 12, 8832
1, 87716, Pitch_bend_c, 11, 8448
1, 87716, Pitch_bend_c, 12, 8448
1, 87721, Pitch_bend_c, 11, 8320
1, 87721, Pitch_bend_c, 12, 8192
1, 87730, Pitch_bend_c, 11, 8320
1, 87730, Pitch_bend_c, 12, 8320
1, 87733, Control_c, 12, 11, 56
1, 87742, Note_on_c, 1, 26, 0
1, 87758, Control_c, 12, 11, 54
1, 87782, Pitch_bend_c, 11, 7936
1, 87782, Pitch_bend_c, 12, 8064
1, 87784, Control_c, 12, 11, 53
1, 87796, Pitch_bend_c, 11, 7680
1, 87796, Pitch_bend_c, 12, 7680
1, 87811, Control_c, 12, 11, 51
1, 87820, Note_on_c, 3, 79, 0
1, 87820, Note_on_c, 4, 55, 0
1, 87836, Control_c, 12, 11, 48
1, 87838, Note_on_c, 9, 40, 126
1, 87840, Note_on_c, 3, 84, 105
1, 87840, Note_on_c, 4, 60, 1
1, 87843, Note_on_c, 1, 26, 119
1, 87843, Note_on_c, 9, 42, 127
1, 87852, Pitch_bend_c, 11, 8320
1, 87852, Pitch_bend_c, 12, 8192
1, 87858, Note_on_c, 9, 40, 0
1, 87863, Note_on_c, 9, 42, 0
1, 87877, Control_c, 12, 11, 48
1, 87894, Pitch_bend_c, 11, 8448
1, 87894, Pitch_bend_c, 12, 8576
1, 87902, Control_c, 12, 11, 47
1, 87903, Pitch_bend_c, 11, 8832
1, 87903, Pitch_bend_c, 12, 8704
1, 87917, Pitch_bend_c, 11, 9088
1, 87917, Pitch_bend_c, 12, 9088
1, 87926, Pitch_bend_c, 11, 9216
1, 87926, Pitch_bend_c, 12, 9344
1, 87935, Pitch_bend_c, 11, 9600
1, 87935, Pitch_bend_c, 12, 9472
1, 87943, Control_c, 12, 11, 44
1, 87978, Pitch_bend_c, 11, 9216
1, 87978, Pitch_bend_c, 12, 9344
1, 87983, Note_on_c, 1, 26, 0
1, 87987, Pitch_bend_c, 11, 8960
1, 87987, Pitch_bend_c, 12, 8960
1, 87995, Control_c, 12, 11, 43
1, 87997, Pitch_bend_c, 11, 8832
1, 87997, Pitch_bend_c, 12, 8704
1, 88001, Pitch_bend_c, 11, 8576
1, 88001, Pitch_bend_c, 12, 8576
1, 88005, Pitch_bend_c, 11, 8448
1, 88005, Pitch_bend_c, 12, 8576
1, 88015, Pitch_bend_c, 11, 8192
1, 88015, Pitch_bend_c, 12, 8192
1, 88033, Control_c, 12, 11, 41
1, 88060, Note_on_c, 3, 84, 0
1, 88060, Note_on_c, 4, 60, 0
1, 88062, Pitch_bend_c, 11, 8064
1, 88062, Pitch_bend_c, 12, 7936
1, 88078, Note_on_c, 1, 26, 116
1, 88080, Note_on_c, 3, 77, 104
1, 88080, Note_on_c, 4, 53, 1
1, 88080, Note_on_c, 9, 42, 94
1, 88081, Pitch_bend_c, 11, 7808
1, 88081, Pitch_bend_c, 12, 7808
1, 88087, Control_c, 12, 11, 40
1, 88090, Pitch_bend_c, 11, 7424
1, 88090, Pitch_bend_c, 12, 7552
1, 88100, Note_on_c, 9, 42, 0
1, 88132, Pitch_bend_c, 11, 7680
1, 88132, Pitch_bend_c, 12, 7680
1, 88146, Pitch_bend_c, 11, 8064
1, 88146, Pitch_bend_c, 12, 7936
1, 88151, Pitch_bend_c, 11, 8192
1, 88151, Pitch_bend_c, 12, 8320
1, 88178, Note_on_c, 1, 26, 0
1, 88180, Note_on_c, 3, 77, 0
1, 88180, Note_on_c, 4, 53, 0
1, 88193, Pitch_bend_c, 11, 8320
1, 88193, Pitch_bend_c, 12, 8192
1, 88200, Note_on_c, 3, 77, 104
1, 88200, Note_on_c, 4, 53, 1
1, 88202, Note_on_c, 1, 26, 114
1, 88202, Pitch_bend_c, 11, 8832
1, 88202, Pitch_bend_c, 12, 8832
1, 88211, Pitch_bend_c, 11, 8704
1, 88211, Pitch_bend_c, 12, 8832
1, 88272, Pitch_bend_c, 11, 8832
1, 88272, Pitch_bend_c, 12, 8704
1, 88281, Pitch_bend_c, 11, 8448
1, 88281, Pitch_bend_c, 12, 8576
1, 88284, Control_c, 12, 11, 43
1, 88296, Pitch_bend_c, 11, 8192
1, 88296, Pitch_bend_c, 12, 8192
1, 88297, Control_c, 12, 11, 50
1, 88300, Note_on_c, 12, 62, 0
1, 88301, Note_on_c, 12, 65, 0
1, 88302, Note_on_c, 1, 26, 0
1, 88302, Note_on_c, 11, 62, 0
1, 88303, Note_on_c, 11, 65, 0
1, 88309, Control_c, 12, 11, 62
1, 88310, Pitch_bend_c, 11, 8320
1, 88310, Pitch_bend_c, 12, 8192
1, 88318, Note_on_c, 1, 31, 113
1, 88318, System_exclusive, 35, 0, 32, 36, 0, 4, 67, 65, 82, 69, 76, 69, 83, 83, 32, 72, 69, 76, 80, 76, 69, 83, 83, 32, 76, 73, 84, 84, 76, 69, 32, 77, 65, 78, 10, 247
1, 88320, Note_on_c, 12, 62, 84
1, 88321, Note_on_c, 9, 36, 126
1, 88321, Note_on_c, 9, 42, 127
1, 88322, Note_on_c, 11, 62, 85
1, 88322, Note_on_c, 13, 55, 101
1, 88322, Control_c, 12, 11, 75
1, 88323, System_exclusive, 35, 0, 32, 36, 0, 5, 83, 79, 77, 69, 68, 65, 89, 32, 89, 79, 85, 32, 77, 73, 71, 72, 84, 32, 85, 78, 68, 69, 82, 83, 84, 65, 78, 68, 10, 247
1, 88328, System_exclusive, 7, 0, 32, 36, 0, 6, 10, 247
1, 88333, System_exclusive, 7, 0, 32, 36, 0, 7, 10, 247
1, 88336, Control_c, 12, 11, 89
1, 88341, Note_on_c, 9, 36, 0
1, 88341, Note_on_c, 9, 42, 0
1, 88343, System_exclusive, 6, 0, 32, 36, 0, 8, 247
1, 88349, Control_c, 12, 11, 102
1, 88362, Control_c, 12, 11, 116
1, 88374, Control_c, 12, 11, 127
1, 88403, Note_on_c, 13, 55, 0
1, 88420, Note_on_c, 3, 77, 0
1, 88420, Note_on_c, 4, 53, 0
1, 88458, Note_on_c, 1, 31, 0
1, 88560, Note_on_c, 9, 42, 90
1, 88562, Note_on_c, 1, 31, 113
1, 88562, Note_on_c, 11, 65, 85
1, 88562, Note_on_c, 12, 65, 85
1, 88563, Note_on_c, 13, 55, 86
1, 88580, Note_on_c, 9, 42, 0
1, 88635, Note_on_c, 13, 55, 0
1, 88662, Note_on_c, 1, 31, 0
1, 88678, Note_on_c, 1, 31, 112
1, 88681, Note_on_c, 13, 55, 61
1, 88683, Pitch_bend_c, 11, 8576
1, 88683, Pitch_bend_c, 12, 8576
1, 88692, Pitch_bend_c, 11, 8704
1, 88692, Pitch_bend_c, 12, 8832
1, 88702, Pitch_bend_c, 11, 8704
1, 88702, Pitch_bend_c, 12, 8704
1, 88706, Pitch_bend_c, 11, 9088
1, 88706, Pitch_bend_c, 12, 8960
1, 88715, Pitch_bend_c, 11, 9344
1, 88715, Pitch_bend_c, 12, 9344
1, 88718, Control_c, 12, 11, 123
1, 88730, Control_c, 12, 11, 120
1, 88735, Note_on_c, 13, 55, 0
1, 88744, Control_c, 12, 11, 116
1, 88744, Pitch_bend_c, 11, 8960
1, 88744, Pitch_bend_c, 12, 9088
1, 88756, Control_c, 12, 11, 117
1, 88768, Control_c, 12, 11, 114
1, 88776, Pitch_bend_c, 11, 8704
1, 88776, Pitch_bend_c, 12, 8704
1, 88778, Note_on_c, 1, 31, 0
1, 88781, Pitch_bend_c, 11, 8576
1, 88781, Pitch_bend_c, 12, 8448
1, 88786, Pitch_bend_c, 11, 8192
1, 88786, Pitch_bend_c, 12, 8320
1, 88795, Control_c, 12, 11, 113
1, 88799, Pitch_bend_c, 11, 8320
1, 88799, Pitch_bend_c, 12, 8192
1, 88800, Note_on_c, 1, 31, 112
1, 88800, Note_on_c, 3, 81, 105
1, 88800, Note_on_c, 4, 57, 1
1, 88801, Note_on_c, 9, 42, 126
1, 88802, Note_on_c, 9, 40, 126
1, 88803, Note_on_c, 13, 55, 28
1, 88821, Note_on_c, 9, 42, 0
1, 88822, Note_on_c, 9, 40, 0
1, 88823, Control_c, 12, 11, 111
1, 88848, Control_c, 12, 11, 108
1, 88856, Pitch_bend_c, 11, 8064
1, 88856, Pitch_bend_c, 12, 8064
1, 88861, Control_c, 12, 11, 107
1, 88865, Note_on_c, 13, 55, 0
1, 88865, Pitch_bend_c, 11, 7680
1, 88865, Pitch_bend_c, 12, 7808
1, 88888, Control_c, 12, 11, 104
1, 88893, Pitch_bend_c, 11, 7552
1, 88893, Pitch_bend_c, 12, 7424
1, 88900, Note_on_c, 1, 31, 0
1, 88900, Control_c, 12, 11, 102
1, 88902, Pitch_bend_c, 11, 7424
1, 88902, Pitch_bend_c, 12, 7552
1, 88913, Control_c, 12, 11, 101
1, 88921, Pitch_bend_c, 11, 7424
1, 88921, Pitch_bend_c, 12, 7424
1, 88930, Pitch_bend_c, 11, 7808
1, 88930, Pitch_bend_c, 12, 7680
1, 88940, Pitch_bend_c, 11, 8320
1, 88940, Pitch_bend_c, 12, 8320
1, 88941, Control_c, 12, 11, 99
1, 88953, Control_c, 12, 11, 98
1, 88979, Control_c, 12, 11, 96
1, 88987, Pitch_bend_c, 11, 8448
1, 88987, Pitch_bend_c, 12, 8576
1, 88991, Pitch_bend_c, 11, 8448
1, 88991, Pitch_bend_c, 12, 8448
1, 89006, Control_c, 12, 11, 95
1, 89020, Note_on_c, 3, 81, 0
1, 89020, Note_on_c, 4, 57, 0
1, 89029, Pitch_bend_c, 11, 8832
1, 89029, Pitch_bend_c, 12, 8704
1, 89031, Control_c, 12, 11, 93
1, 89038, Pitch_bend_c, 11, 9088
1, 89038, Pitch_bend_c, 12, 9088
1, 89040, Note_on_c, 1, 31, 111
1, 89040, Note_on_c, 3, 81, 105
1, 89040, Note_on_c, 4, 57, 1
1, 89043, Note_on_c, 9, 42, 95
1, 89043, Note_on_c, 13, 55, 96
1, 89059, Control_c, 12, 11, 90
1, 89063, Note_on_c, 9, 42, 0
1, 89066, Pitch_bend_c, 11, 8704
1, 89066, Pitch_bend_c, 12, 8832
1, 89075, Pitch_bend_c, 11, 8448
1, 89075, Pitch_bend_c, 12, 8448
1, 89080, Pitch_bend_c, 11, 8320
1, 89080, Pitch_bend_c, 12, 8192
1, 89084, Pitch_bend_c, 11, 8192
1, 89084, Pitch_bend_c, 12, 8320
1, 89097, Control_c, 12, 11, 88
1, 89122, Pitch_bend_c, 11, 8064
1, 89122, Pitch_bend_c, 12, 7936
1, 89125, Control_c, 12, 11, 87
1, 89127, Note_on_c, 13, 55, 0
1, 89131, Pitch_bend_c, 11, 7808
1, 89131, Pitch_bend_c, 12, 7808
1, 89140, Note_on_c, 1, 31, 0
1, 89150, Control_c, 12, 11, 84
1, 89150, Pitch_bend_c, 11, 7680
1, 89150, Pitch_bend_c, 12, 7808
1, 89159, Pitch_bend_c, 11, 7552
1, 89159, Pitch_bend_c, 12, 7424
1, 89160, Note_on_c, 1, 31, 114
1, 89169, Pitch_bend_c, 11, 7168
1, 89169, Pitch_bend_c, 12, 7296
1, 89176, Control_c, 12, 11, 83
1, 89178, Pitch_bend_c, 11, 7424
1, 89178, Pitch_bend_c, 12, 7424
1, 89187, Pitch_bend_c, 11, 7808
1, 89187, Pitch_bend_c, 12, 7680
1, 89197, Pitch_bend_c, 11, 8064
1, 89197, Pitch_bend_c, 12, 8064
1, 89203, Control_c, 12, 11, 81
1, 89206, Pitch_bend_c, 11, 8192
1, 89206, Pitch_bend_c, 12, 8320
1, 89228, Control_c, 12, 11, 78
1, 89239, Pitch_bend_c, 11, 8448
1, 89239, Pitch_bend_c, 12, 8448
1, 89248, Pitch_bend_c, 11, 8832
1, 89248, Pitch_bend_c, 12, 8704
1, 89258, Pitch_bend_c, 11, 9088
1, 89258, Pitch_bend_c, 12, 9088
1, 89260, Note_on_c, 1, 31, 0
1, 89260, Note_on_c, 3, 81, 0
1, 89260, Note_on_c, 4, 57, 0
1, 89269, Control_c, 12, 11, 79
1, 89278, Note_on_c, 9, 36, 126
1, 89280, Note_on_c, 3, 81, 104
1, 89280, Note_on_c, 4, 57, 1
1, 89280, Note_on_c, 9, 42, 127
1, 89280, Note_on_c, 13, 55, 54
1, 89281, Note_on_c, 1, 31, 115
1, 89281, Pitch_bend_c, 11, 9216
1, 89281, Pitch_bend_c, 12, 9344
1, 89290, Pitch_bend_c, 11, 9216
1, 89290, Pitch_bend_c, 12, 9216
1, 89294, Control_c, 12, 11, 76
1, 89298, Note_on_c, 9, 36, 0
1, 89300, Note_on_c, 9, 42, 0
1, 89321, Control_c, 12, 11, 74
1, 89328, Pitch_bend_c, 11, 9344
1, 89328, Pitch_bend_c, 12, 9216
1, 89339, Note_on_c, 13, 55, 0
1, 89341, Pitch_bend_c, 11, 8704
1, 89341, Pitch_bend_c, 12, 8832
1, 89346, Control_c, 12, 11, 73
1, 89346, Pitch_bend_c, 11, 8832
1, 89346, Pitch_bend_c, 12, 8704
1, 89356, Pitch_bend_c, 11, 8320
1, 89356, Pitch_bend_c, 12, 8320
1, 89365, Pitch_bend_c, 11, 8192
1, 89365, Pitch_bend_c, 12, 8320
1, 89387, Control_c, 12, 11, 73
1, 89402, Note_on_c, 13, 55, 77
1, 89412, Control_c, 12, 11, 70
1, 89421, Note_on_c, 1, 31, 0
1, 89422, Pitch_bend_c, 11, 8064
1, 89422, Pitch_bend_c, 12, 7936
1, 89440, Pitch_bend_c, 11, 7680
1, 89440, Pitch_bend_c, 12, 7808
1, 89453, Control_c, 12, 11, 68
1, 89458, Note_on_c, 13, 55, 0
1, 89463, Pitch_bend_c, 11, 7936
1, 89463, Pitch_bend_c, 12, 7936
1, 89482, Pitch_bend_c, 11, 8320
1, 89482, Pitch_bend_c, 12, 8192
1, 89491, Control_c, 12, 11, 67
1, 89500, Note_on_c, 3, 81, 0
1, 89500, Note_on_c, 4, 57, 0
1, 89518, Control_c, 12, 11, 65
1, 89519, Note_on_c, 9, 42, 96
1, 89520, Note_on_c, 3, 79, 104
1, 89520, Note_on_c, 4, 55, 1
1, 89522, Note_on_c, 13, 55, 57
1, 89523, Note_on_c, 1, 31, 113
1, 89529, Pitch_bend_c, 11, 8576
1, 89529, Pitch_bend_c, 12, 8576
1, 89538, Pitch_bend_c, 11, 8704
1, 89538, Pitch_bend_c, 12, 8832
1, 89539, Note_on_c, 9, 42, 0
1, 89543, Control_c, 12, 11, 62
1, 89547, Pitch_bend_c, 11, 8960
1, 89547, Pitch_bend_c, 12, 8960
1, 89564, Note_on_c, 13, 55, 0
1, 89571, Control_c, 12, 11, 60
1, 89580, Pitch_bend_c, 11, 9344
1, 89580, Pitch_bend_c, 12, 9216
1, 89596, Control_c, 12, 11, 59
1, 89613, Pitch_bend_c, 11, 9088
1, 89613, Pitch_bend_c, 12, 9088
1, 89622, Control_c, 12, 11, 56
1, 89627, Pitch_bend_c, 11, 8704
1, 89627, Pitch_bend_c, 12, 8832
1, 89636, Pitch_bend_c, 11, 8448
1, 89636, Pitch_bend_c, 12, 8448
1, 89641, Pitch_bend_c, 11, 8320
1, 89641, Pitch_bend_c, 12, 8192
1, 89650, Control_c, 12, 11, 57
1, 89650, Pitch_bend_c, 11, 8192
1, 89650, Pitch_bend_c, 12, 8320
1, 89663, Note_on_c, 1, 31, 0
1, 89675, Control_c, 12, 11, 55
1, 89690, Control_c, 12, 11, 52
1, 89702, Control_c, 12, 11, 51
1, 89702, Pitch_bend_c, 11, 8064
1, 89702, Pitch_bend_c, 12, 7936
1, 89716, Pitch_bend_c, 11, 7808
1, 89716, Pitch_bend_c, 12, 7808
1, 89728, Control_c, 12, 11, 48
1, 89740, Note_on_c, 3, 79, 0
1, 89740, Note_on_c, 4, 55, 0
1, 89755, Control_c, 12, 11, 46
1, 89758, Note_on_c, 9, 42, 126
1, 89758, Note_on_c, 13, 55, 100
1, 89759, Note_on_c, 1, 31, 118
1, 89759, Note_on_c, 9, 40, 127
1, 89760, Note_on_c, 3, 79, 105
1, 89760, Note_on_c, 4, 55, 1
1, 89772, Pitch_bend_c, 11, 8192
1, 89772, Pitch_bend_c, 12, 8320
1, 89778, Note_on_c, 9, 42, 0
1, 89779, Note_on_c, 9, 40, 0
1, 89780, Control_c, 12, 11, 47
1, 89814, Pitch_bend_c, 11, 8576
1, 89814, Pitch_bend_c, 12, 8448
1, 89821, Control_c, 12, 11, 45
1, 89823, Pitch_bend_c, 11, 8704
1, 89823, Pitch_bend_c, 12, 8832
1, 89837, Note_on_c, 13, 55, 0
1, 89837, Pitch_bend_c, 11, 8960
1, 89837, Pitch_bend_c, 12, 8960
1, 89846, Pitch_bend_c, 11, 9344
1, 89846, Pitch_bend_c, 12, 9216
1, 89855, Pitch_bend_c, 11, 9600
1, 89855, Pitch_bend_c, 12, 9600
1, 89859, Control_c, 12, 11, 42
1, 89860, Note_on_c, 3, 79, 0
1, 89860, Note_on_c, 4, 55, 0
1, 89880, Note_on_c, 3, 77, 104
1, 89880, Note_on_c, 4, 53, 1
1, 89898, Pitch_bend_c, 11, 9216
1, 89898, Pitch_bend_c, 12, 9344
1, 89899, Note_on_c, 1, 31, 0
1, 89900, Control_c, 12, 11, 40
1, 89907, Pitch_bend_c, 11, 8960
1, 89907, Pitch_bend_c, 12, 8960
1, 89917, Pitch_bend_c, 11, 8832
1, 89917, Pitch_bend_c, 12, 8704
1, 89921, Pitch_bend_c, 11, 8576
1, 89921, Pitch_bend_c, 12, 8576
1, 89925, Pitch_bend_c, 11, 8448
1, 89925, Pitch_bend_c, 12, 8576
1, 89935, Pitch_bend_c, 11, 8192
1, 89935, Pitch_bend_c, 12, 8192
1, 89965, Control_c, 12, 11, 39
1, 89982, Pitch_bend_c, 11, 8064
1, 89982, Pitch_bend_c, 12, 7936
1, 89998, Note_on_c, 9, 42, 95
1, 90001, Note_on_c, 1, 31, 115
1, 90001, Note_on_c, 13, 55, 100
1, 90001, Pitch_bend_c, 11, 7680
1, 90001, Pitch_bend_c, 12, 7808
1, 90010, Pitch_bend_c, 11, 7552
1, 90010, Pitch_bend_c, 12, 7424
1, 90018, Note_on_c, 9, 42, 0
1, 90031, Control_c, 12, 11, 39
1, 90052, Pitch_bend_c, 11, 7808
1, 90052, Pitch_bend_c, 12, 7808
1, 90066, Pitch_bend_c, 11, 7936
1, 90066, Pitch_bend_c, 12, 8064
1, 90071, Pitch_bend_c, 11, 8320
1, 90071, Pitch_bend_c, 12, 8192
1, 90074, Note_on_c, 13, 55, 0
1, 90100, Note_on_c, 3, 77, 0
1, 90100, Note_on_c, 4, 53, 0
1, 90101, Note_on_c, 1, 31, 0
1, 90113, Pitch_bend_c, 11, 8192
1, 90113, Pitch_bend_c, 12, 8320
1, 90119, Note_on_c, 1, 31, 116
1, 90120, Note_on_c, 3, 77, 105
1, 90120, Note_on_c, 4, 53, 1
1, 90122, Pitch_bend_c, 11, 8704
1, 90122, Pitch_bend_c, 12, 8704
1, 90123, Note_on_c, 13, 55, 65
1, 90131, Pitch_bend_c, 11, 8832
1, 90131, Pitch_bend_c, 12, 8704
1, 90175, Note_on_c, 13, 55, 0
1, 90189, Control_c, 12, 11, 40
1, 90192, Pitch_bend_c, 11, 8832
1, 90192, Pitch_bend_c, 12, 8832
1, 90201, Pitch_bend_c, 11, 8448
1, 90201, Pitch_bend_c, 12, 8576
1, 90202, Control_c, 12, 11, 50
1, 90205, System_exclusive, 6, 0, 32, 36, 0, 8, 247
1, 90214, Control_c, 12, 11, 65
1, 90216, Pitch_bend_c, 11, 8192
1, 90216, Pitch_bend_c, 12, 8192
1, 90219, Note_on_c, 1, 31, 0
1, 90220, Note_on_c, 12, 62, 0
1, 90222, Note_on_c, 11, 62, 0
1, 90222, Note_on_c, 11, 65, 0
1, 90222, Note_on_c, 12, 65, 0
1, 90227, Control_c, 12, 11, 80
1, 90230, Pitch_bend_c, 11, 8320
1, 90230, Pitch_bend_c, 12, 8192
1, 90239, Note_on_c, 1, 31, 116
1, 90240, Note_on_c, 9, 36, 127
1, 90240, Control_c, 12, 11, 99
1, 90241, Note_on_c, 12, 62, 84
1, 90242, Note_on_c, 9, 42, 127
1, 90242, Note_on_c, 11, 62, 84
1, 90242, Note_on_c, 13, 55, 101
1, 90253, Control_c, 12, 11, 113
1, 90260, Note_on_c, 9, 36, 0
1, 90262, Note_on_c, 9, 42, 0
1, 90267, Control_c, 12, 11, 124
1, 90279, Control_c, 12, 11, 127
1, 90323, Note_on_c, 13, 55, 0
1, 90379, Note_on_c, 1, 31, 0
1, 90460, Note_on_c, 3, 77, 0
1, 90460, Note_on_c, 4, 53, 0
1, 90479, Note_on_c, 12, 65, 84
1, 90480, Note_on_c, 11, 65, 84
1, 90481, Note_on_c, 1, 31, 117
1, 90482, Note_on_c, 9, 42, 90
1, 90482, Note_on_c, 13, 55, 86
1, 90502, Note_on_c, 9, 42, 0
1, 90554, Note_on_c, 13, 55, 0
1, 90581, Note_on_c, 1, 31, 0
1, 90600, Note_on_c, 1, 31, 115
1, 90600, Note_on_c, 3, 74, 105
1, 90600, Note_on_c, 4, 50, 1
1, 90600, Note_on_c, 13, 55, 60
1, 90603, Pitch_bend_c, 11, 8576
1, 90603, Pitch_bend_c, 12, 8576
1, 90612, Pitch_bend_c, 11, 8704
1, 90612, Pitch_bend_c, 12, 8832
1, 90622, Pitch_bend_c, 11, 8704
1, 90622, Pitch_bend_c, 12, 8704
1, 90626, Pitch_bend_c, 11, 9088
1, 90626, Pitch_bend_c, 12, 8960
1, 90635, Pitch_bend_c, 11, 9216
1, 90635, Pitch_bend_c, 12, 9344
1, 90654, Note_on_c, 13, 55, 0
1, 90662, Control_c, 12, 11, 124
1, 90664, Pitch_bend_c, 11, 9088
1, 90664, Pitch_bend_c, 12, 8960
1, 90673, Control_c, 12, 11, 120
1, 90687, Control_c, 12, 11, 119
1, 90696, Pitch_bend_c, 11, 8832
1, 90696, Pitch_bend_c, 12, 8832
1, 90700, Note_on_c, 1, 31, 0
1, 90700, Note_on_c, 3, 74, 0
1, 90700, Note_on_c, 4, 50, 0
1, 90700, Control_c, 12, 11, 119
1, 90701, Pitch_bend_c, 11, 8448
1, 90701, Pitch_bend_c, 12, 8576
1, 90706, Pitch_bend_c, 11, 8320
1, 90706, Pitch_bend_c, 12, 8192
1, 90718, Note_on_c, 1, 31, 116
1, 90719, Note_on_c, 13, 55, 28
1, 90719, Pitch_bend_c, 11, 8192
1, 90719, Pitch_bend_c, 12, 8320
1, 90720, Note_on_c, 3, 81, 104
1, 90720, Note_on_c, 4, 57, 1
1, 90720, Note_on_c, 9, 40, 127
1, 90722, Note_on_c, 9, 42, 126
1, 90727, Control_c, 12, 11, 116
1, 90740, Note_on_c, 9, 40, 0
1, 90742, Note_on_c, 9, 42, 0
1, 90752, Control_c, 12, 11, 114
1, 90776, Pitch_bend_c, 11, 7936
1, 90776, Pitch_bend_c, 12, 7936
1, 90780, Control_c, 12, 11, 113
1, 90781, Note_on_c, 13, 55, 0
1, 90785, Pitch_bend_c, 11, 7808
1, 90785, Pitch_bend_c, 12, 7680
1, 90792, Control_c, 12, 11, 111
1, 90805, Control_c, 12, 11, 108
1, 90813, Pitch_bend_c, 11, 7552
1, 90813, Pitch_bend_c, 12, 7552
1, 90818, Note_on_c, 1, 31, 0
1, 90818, Control_c, 12, 11, 106
1, 90822, Pitch_bend_c, 11, 7424
1, 90822, Pitch_bend_c, 12, 7552
1, 90833, Control_c, 12, 11, 107
1, 90841, Pitch_bend_c, 11, 7424
1, 90841, Pitch_bend_c, 12, 7424
1, 90850, Pitch_bend_c, 11, 7808
1, 90850, Pitch_bend_c, 12, 7680
1, 90857, Control_c, 12, 11, 104
1, 90860, Pitch_bend_c, 11, 8320
1, 90860, Pitch_bend_c, 12, 8320
1, 90884, Control_c, 12, 11, 103
1, 90898, Control_c, 12, 11, 101
1, 90907, Pitch_bend_c, 11, 8448
1, 90907, Pitch_bend_c, 12, 8576
1, 90909, Control_c, 12, 11, 100
1, 90911, Pitch_bend_c, 11, 8448
1, 90911, Pitch_bend_c, 12, 8448
1, 90923, Control_c, 12, 11, 99
1, 90936, Control_c, 12, 11, 96
1, 90940, Note_on_c, 3, 81, 0
1, 90940, Note_on_c, 4, 57, 0
1, 90949, Control_c, 12, 11, 94
1, 90949, Pitch_bend_c, 11, 8832
1, 90949, Pitch_bend_c, 12, 8704
1, 90958, Pitch_bend_c, 11, 8960
1, 90958, Pitch_bend_c, 12, 9088
1, 90959, Note_on_c, 13, 55, 97
1, 90960, Note_on_c, 1, 31, 114
1, 90960, Note_on_c, 3, 81, 105
1, 90960, Note_on_c, 4, 57, 1
1, 90962, Note_on_c, 9, 42, 95
1, 90963, Control_c, 12, 11, 93
1, 90975, Control_c, 12, 11, 91
1, 90982, Note_on_c, 9, 42, 0
1, 90986, Pitch_bend_c, 11, 8832
1, 90986, Pitch_bend_c, 12, 8704
1, 90995, Pitch_bend_c, 11, 8576
1, 90995, Pitch_bend_c, 12, 8576
1, 91000, Pitch_bend_c, 11, 8192
1, 91000, Pitch_bend_c, 12, 8320
1, 91002, Control_c, 12, 11, 88
1, 91004, Pitch_bend_c, 11, 8320
1, 91004, Pitch_bend_c, 12, 8192
1, 91029, Control_c, 12, 11, 86
1, 91042, Pitch_bend_c, 11, 7936
1, 91042, Pitch_bend_c, 12, 8064
1, 91043, Note_on_c, 13, 55, 0
1, 91051, Pitch_bend_c, 11, 7680
1, 91051, Pitch_bend_c, 12, 7680
1, 91055, Control_c, 12, 11, 85
1, 91060, Note_on_c, 1, 31, 0
1, 91070, Pitch_bend_c, 11, 7808
1, 91070, Pitch_bend_c, 12, 7680
1, 91079, Pitch_bend_c, 11, 7552
1, 91079, Pitch_bend_c, 12, 7552
1, 91080, Note_on_c, 1, 31, 119
1, 91082, Control_c, 12, 11, 83
1, 91089, Pitch_bend_c, 11, 7168
1, 91089, Pitch_bend_c, 12, 7296
1, 91098, Pitch_bend_c, 11, 7424
1, 91098, Pitch_bend_c, 12, 7424
1, 91106, Control_c, 12, 11, 80
1, 91107, Pitch_bend_c, 11, 7808
1, 91107, Pitch_bend_c, 12, 7680
1, 91117, Pitch_bend_c, 11, 8064
1, 91117, Pitch_bend_c, 12, 8064
1, 91126, Pitch_bend_c, 11, 8192
1, 91126, Pitch_bend_c, 12, 8320
1, 91133, Control_c, 12, 11, 76
1, 91159, Pitch_bend_c, 11, 8448
1, 91159, Pitch_bend_c, 12, 8448
1, 91161, Control_c, 12, 11, 75
1, 91168, Pitch_bend_c, 11, 8832
1, 91168, Pitch_bend_c, 12, 8704
1, 91178, Pitch_bend_c, 11, 8960
1, 91178, Pitch_bend_c, 12, 9088
1, 91180, Note_on_c, 1, 31, 0
1, 91180, Note_on_c, 3, 81, 0
1, 91180, Note_on_c, 4, 57, 0
1, 91185, Control_c, 12, 11, 74
1, 91198, Note_on_c, 13, 55, 54
1, 91200, Note_on_c, 1, 31, 119
1, 91200, Note_on_c, 3, 81, 104
1, 91200, Note_on_c, 4, 57, 1
1, 91200, Note_on_c, 9, 36, 127
1, 91201, Pitch_bend_c, 11, 9344
1, 91201, Pitch_bend_c, 12, 9216
1, 91202, Note_on_c, 9, 42, 126
1, 91210, Pitch_bend_c, 11, 9344
1, 91210, Pitch_bend_c, 12, 9344
1, 91213, Control_c, 12, 11, 73
1, 91220, Note_on_c, 9, 36, 0
1, 91222, Note_on_c, 9, 42, 0
1, 91237, Control_c, 12, 11, 71
1, 91248, Pitch_bend_c, 11, 9216
1, 91248, Pitch_bend_c, 12, 9344
1, 91257, Note_on_c, 13, 55, 0
1, 91261, Pitch_bend_c, 11, 8832
1, 91261, Pitch_bend_c, 12, 8704
1, 91266, Pitch_bend_c, 11, 8704
1, 91266, Pitch_bend_c, 12, 8832
1, 91276, Pitch_bend_c, 11, 8192
1, 91276, Pitch_bend_c, 12, 8192
1, 91279, Control_c, 12, 11, 68
1, 91285, Pitch_bend_c, 11, 8320
1, 91285, Pitch_bend_c, 12, 8192
1, 91317, Control_c, 12, 11, 69
1, 91319, Note_on_c, 13, 55, 77
1, 91340, Note_on_c, 1, 31, 0
1, 91342, Pitch_bend_c, 11, 8064
1, 91342, Pitch_bend_c, 12, 8064
1, 91360, Pitch_bend_c, 11, 7680
1, 91360, Pitch_bend_c, 12, 7808
1, 91371, Control_c, 12, 11, 66
1, 91375, Note_on_c, 13, 55, 0
1, 91383, Pitch_bend_c, 11, 7936
1, 91383, Pitch_bend_c, 12, 7936
1, 91402, Pitch_bend_c, 11, 8320
1, 91402, Pitch_bend_c, 12, 8192
1, 91410, Control_c, 12, 11, 64
1, 91420, Note_on_c, 3, 81, 0
1, 91420, Note_on_c, 4, 57, 0
1, 91439, Note_on_c, 1, 31, 116
1, 91441, Note_on_c, 9, 36, 126
1, 91441, Note_on_c, 9, 42, 97
1, 91441, Note_on_c, 13, 55, 57
1, 91448, Control_c, 12, 11, 63
1, 91449, Pitch_bend_c, 11, 8576
1, 91449, Pitch_bend_c, 12, 8576
1, 91458, Pitch_bend_c, 11, 8704
1, 91458, Pitch_bend_c, 12, 8832
1, 91461, Note_on_c, 9, 36, 0
1, 91461, Note_on_c, 9, 42, 0
1, 91467, Pitch_bend_c, 11, 8960
1, 91467, Pitch_bend_c, 12, 8960
1, 91475, Control_c, 12, 11, 61
1, 91483, Note_on_c, 13, 55, 0
1, 91500, Pitch_bend_c, 11, 9344
1, 91500, Pitch_bend_c, 12, 9216
1, 91501, Control_c, 12, 11, 58
1, 91528, Control_c, 12, 11, 58
1, 91533, Pitch_bend_c, 11, 8960
1, 91533, Pitch_bend_c, 12, 9088
1, 91547, Pitch_bend_c, 11, 8832
1, 91547, Pitch_bend_c, 12, 8704
1, 91556, Pitch_bend_c, 11, 8576
1, 91556, Pitch_bend_c, 12, 8576
1, 91561, Pitch_bend_c, 11, 8192
1, 91561, Pitch_bend_c, 12, 8320
1, 91566, Control_c, 12, 11, 57
1, 91570, Pitch_bend_c, 11, 8320
1, 91570, Pitch_bend_c, 12, 8192
1, 91579, Note_on_c, 1, 31, 0
1, 91594, Control_c, 12, 11, 53
1, 91606, Control_c, 12, 11, 52
1, 91622, Pitch_bend_c, 11, 7936
1, 91622, Pitch_bend_c, 12, 8064
1, 91632, Control_c, 12, 11, 50
1, 91636, Pitch_bend_c, 11, 7680
1, 91636, Pitch_bend_c, 12, 7680
1, 91659, Control_c, 12, 11, 49
1, 91680, Note_on_c, 3, 84, 104
1, 91680, Note_on_c, 4, 60, 1
1, 91680, Note_on_c, 9, 40, 126
1, 91682, Note_on_c, 1, 31, 112
1, 91682, Note_on_c, 9, 42, 127
1, 91682, Note_on_c, 13, 55, 100
1, 91692, Pitch_bend_c, 11, 8320
1, 91692, Pitch_bend_c, 12, 8192
1, 91697, Control_c, 12, 11, 46
1, 91700, Note_on_c, 9, 40, 0
1, 91702, Note_on_c, 9, 42, 0
1, 91725, Control_c, 12, 11, 45
1, 91734, Pitch_bend_c, 11, 8576
1, 91734, Pitch_bend_c, 12, 8576
1, 91743, Pitch_bend_c, 11, 8704
1, 91743, Pitch_bend_c, 12, 8832
1, 91757, Pitch_bend_c, 11, 8960
1, 91757, Pitch_bend_c, 12, 8960
1, 91761, Note_on_c, 13, 55, 0
1, 91766, Pitch_bend_c, 11, 9344
1, 91766, Pitch_bend_c, 12, 9216
1, 91775, Pitch_bend_c, 11, 9600
1, 91775, Pitch_bend_c, 12, 9600
1, 91778, Control_c, 12, 11, 43
1, 91816, Control_c, 12, 11, 40
1, 91818, Pitch_bend_c, 11, 9216
1, 91818, Pitch_bend_c, 12, 9344
1, 91822, Note_on_c, 1, 31, 0
1, 91827, Pitch_bend_c, 11, 8960
1, 91827, Pitch_bend_c, 12, 8960
1, 91837, Pitch_bend_c, 11, 8832
1, 91837, Pitch_bend_c, 12, 8704
1, 91841, Pitch_bend_c, 11, 8448
1, 91841, Pitch_bend_c, 12, 8576
1, 91845, Pitch_bend_c, 11, 8576
1, 91845, Pitch_bend_c, 12, 8448
1, 91855, Pitch_bend_c, 11, 8320
1, 91855, Pitch_bend_c, 12, 8320
1, 91869, Control_c, 12, 11, 39
1, 91900, Note_on_c, 3, 84, 0
1, 91900, Note_on_c, 4, 60, 0
1, 91902, Pitch_bend_c, 11, 7936
1, 91902, Pitch_bend_c, 12, 8064
1, 91919, Note_on_c, 13, 55, 101
1, 91920, Note_on_c, 1, 31, 113
1, 91920, Note_on_c, 3, 77, 105
1, 91920, Note_on_c, 4, 53, 1
1, 91921, Note_on_c, 9, 42, 94
1, 91921, Pitch_bend_c, 11, 7808
1, 91921, Pitch_bend_c, 12, 7680
1, 91922, Control_c, 12, 11, 38
1, 91930, Pitch_bend_c, 11, 7424
1, 91930, Pitch_bend_c, 12, 7552
1, 91941, Note_on_c, 9, 42, 0
1, 91972, Pitch_bend_c, 11, 7680
1, 91972, Pitch_bend_c, 12, 7680
1, 91986, Pitch_bend_c, 11, 8064
1, 91986, Pitch_bend_c, 12, 7936
1, 91991, Pitch_bend_c, 11, 8320
1, 91991, Pitch_bend_c, 12, 8320
1, 91992, Note_on_c, 13, 55, 0
1, 92020, Note_on_c, 1, 31, 0
1, 92020, Note_on_c, 3, 77, 0
1, 92020, Note_on_c, 4, 53, 0
1, 92033, Pitch_bend_c, 11, 8192
1, 92033, Pitch_bend_c, 12, 8320
1, 92038, Note_on_c, 1, 31, 110
1, 92039, Note_on_c, 13, 55, 64
1, 92039, Note_on_c, 13, 57, 96
1, 92040, Note_on_c, 3, 77, 105
1, 92040, Note_on_c, 4, 53, 1
1, 92042, Pitch_bend_c, 11, 8704
1, 92042, Pitch_bend_c, 12, 8704
1, 92051, Pitch_bend_c, 11, 8832
1, 92051, Pitch_bend_c, 12, 8704
1, 92059, Note_on_c, 13, 57, 0
1, 92091, Note_on_c, 13, 55, 0
1, 92106, Control_c, 12, 11, 42
1, 92112, Pitch_bend_c, 11, 8832
1, 92112, Pitch_bend_c, 12, 8832
1, 92118, Control_c, 12, 11, 53
1, 92121, Pitch_bend_c, 11, 8448
1, 92121, Pitch_bend_c, 12, 8576
1, 92131, Control_c, 12, 11, 67
1, 92136, Pitch_bend_c, 11, 8192
1, 92136, Pitch_bend_c, 12, 8192
1, 92138, Note_on_c, 1, 31, 0
1, 92139, Note_on_c, 12, 65, 0
1, 92140, Note_on_c, 11, 65, 0
1, 92141, Note_on_c, 12, 62, 0
1, 92142, Note_on_c, 11, 62, 0
1, 92144, Control_c, 12, 11, 80
1, 92150, Pitch_bend_c, 11, 8320
1, 92150, Pitch_bend_c, 12, 8192
1, 92159, Note_on_c, 11, 62, 85
1, 92159, Note_on_c, 13, 58, 79
1, 92159, Control_c, 12, 11, 92
1, 92161, Note_on_c, 1, 34, 115
1, 92162, Note_on_c, 9, 36, 126
1, 92162, Note_on_c, 12, 62, 85
1, 92163, Note_on_c, 9, 42, 127
1, 92171, Control_c, 12, 11, 105
1, 92179, Note_on_c, 13, 58, 0
1, 92182, Note_on_c, 9, 36, 0
1, 92183, Note_on_c, 9, 42, 0
1, 92184, Control_c, 12, 11, 117
1, 92197, Control_c, 12, 11, 126
1, 92223, System_exclusive, 35, 0, 32, 36, 0, 4, 84, 72, 69, 82, 69, 39, 83, 32, 78, 79, 84, 32, 77, 85, 67, 72, 32, 77, 79, 82, 69, 32, 84, 79, 32, 83, 65, 89, 10, 247
1, 92228, System_exclusive, 32, 0, 32, 36, 0, 5, 66, 85, 84, 32, 73, 32, 72, 79, 80, 69, 32, 89, 79, 85, 32, 70, 73, 78, 68, 32, 65, 32, 87, 65, 89, 10, 247
1, 92233, System_exclusive, 7, 0, 32, 36, 0, 6, 10, 247
1, 92238, System_exclusive, 7, 0, 32, 36, 0, 7, 10, 247
1, 92248, System_exclusive, 6, 0, 32, 36, 0, 8, 247
1, 92279, Note_on_c, 13, 57, 99
1, 92299, Note_on_c, 13, 57, 0
1, 92301, Note_on_c, 1, 34, 0
1, 92380, Note_on_c, 3, 77, 0
1, 92380, Note_on_c, 4, 53, 0
1, 92398, Note_on_c, 1, 34, 113
1, 92400, Note_on_c, 9, 42, 90
1, 92400, Note_on_c, 11, 65, 84
1, 92401, Note_on_c, 12, 65, 85
1, 92401, Note_on_c, 13, 57, 84
1, 92420, Note_on_c, 9, 42, 0
1, 92421, Note_on_c, 13, 57, 0
1, 92498, Note_on_c, 1, 34, 0
1, 92513, Control_c, 12, 11, 120
1, 92521, Note_on_c, 13, 58, 78
1, 92522, Note_on_c, 1, 34, 118
1, 92523, Pitch_bend_c, 11, 8448
1, 92523, Pitch_bend_c, 12, 8576
1, 92525, Control_c, 12, 11, 119
1, 92532, Pitch_bend_c, 11, 8832
1, 92532, Pitch_bend_c, 12, 8704
1, 92540, Control_c, 12, 11, 114
1, 92541, Note_on_c, 13, 58, 0
1, 92542, Pitch_bend_c, 11, 8832
1, 92542, Pitch_bend_c, 12, 8832
1, 92546, Pitch_bend_c, 11, 8960
1, 92546, Pitch_bend_c, 12, 9088
1, 92551, Control_c, 12, 11, 113
1, 92555, Pitch_bend_c, 11, 9344
1, 92555, Pitch_bend_c, 12, 9216
1, 92565, Control_c, 12, 11, 111
1, 92577, Control_c, 12, 11, 108
1, 92584, Pitch_bend_c, 11, 8960
1, 92584, Pitch_bend_c, 12, 9088
1, 92591, Control_c, 12, 11, 107
1, 92605, Control_c, 12, 11, 106
1, 92616, Pitch_bend_c, 11, 8704
1, 92616, Pitch_bend_c, 12, 8704
1, 92617, Control_c, 12, 11, 104
1, 92621, Pitch_bend_c, 11, 8576
1, 92621, Pitch_bend_c, 12, 8448
1, 92622, Note_on_c, 1, 34, 0
1, 92626, Pitch_bend_c, 11, 8320
1, 92626, Pitch_bend_c, 12, 8320
1, 92630, Control_c, 12, 11, 103
1, 92638, Note_on_c, 9, 42, 126
1, 92639, Pitch_bend_c, 11, 8192
1, 92639, Pitch_bend_c, 12, 8320
1, 92642, Note_on_c, 1, 34, 111
1, 92642, Note_on_c, 9, 40, 126
1, 92656, Control_c, 12, 11, 101
1, 92658, Note_on_c, 9, 42, 0
1, 92662, Note_on_c, 9, 40, 0
1, 92671, Control_c, 12, 11, 98
1, 92696, Control_c, 12, 11, 96
1, 92696, Pitch_bend_c, 11, 7936
1, 92696, Pitch_bend_c, 12, 7936
1, 92705, Pitch_bend_c, 11, 7808
1, 92705, Pitch_bend_c, 12, 7680
1, 92722, Control_c, 12, 11, 93
1, 92733, Pitch_bend_c, 11, 7552
1, 92733, Pitch_bend_c, 12, 7552
1, 92742, Note_on_c, 1, 34, 0
1, 92742, Pitch_bend_c, 11, 7424
1, 92742, Pitch_bend_c, 12, 7552
1, 92750, Control_c, 12, 11, 91
1, 92761, Control_c, 12, 11, 90
1, 92761, Pitch_bend_c, 11, 7424
1, 92761, Pitch_bend_c, 12, 7424
1, 92762, Note_on_c, 13, 57, 93
1, 92770, Pitch_bend_c, 11, 7808
1, 92770, Pitch_bend_c, 12, 7680
1, 92780, Pitch_bend_c, 11, 8192
1, 92780, Pitch_bend_c, 12, 8320
1, 92782, Note_on_c, 13, 57, 0
1, 92787, Control_c, 12, 11, 88
1, 92815, Control_c, 12, 11, 87
1, 92827, Pitch_bend_c, 11, 8576
1, 92827, Pitch_bend_c, 12, 8448
1, 92831, Pitch_bend_c, 11, 8576
1, 92831, Pitch_bend_c, 12, 8576
1, 92855, Control_c, 12, 11, 84
1, 92869, Pitch_bend_c, 11, 8704
1, 92869, Pitch_bend_c, 12, 8832
1, 92878, Pitch_bend_c, 11, 9088
1, 92878, Pitch_bend_c, 12, 8960
1, 92879, Note_on_c, 1, 34, 118
1, 92880, Note_on_c, 3, 81, 104
1, 92880, Note_on_c, 4, 57, 1
1, 92880, Note_on_c, 9, 42, 95
1, 92880, Control_c, 12, 11, 83
1, 92883, Note_on_c, 13, 58, 87
1, 92900, Note_on_c, 9, 42, 0
1, 92903, Note_on_c, 13, 58, 0
1, 92906, Pitch_bend_c, 11, 8704
1, 92906, Pitch_bend_c, 12, 8832
1, 92915, Pitch_bend_c, 11, 8448
1, 92915, Pitch_bend_c, 12, 8448
1, 92920, Pitch_bend_c, 11, 8320
1, 92920, Pitch_bend_c, 12, 8192
1, 92921, Control_c, 12, 11, 81
1, 92924, Pitch_bend_c, 11, 8320
1, 92924, Pitch_bend_c, 12, 8320
1, 92959, Control_c, 12, 11, 80
1, 92962, Pitch_bend_c, 11, 7936
1, 92962, Pitch_bend_c, 12, 8064
1, 92971, Pitch_bend_c, 11, 7680
1, 92971, Pitch_bend_c, 12, 7680
1, 92979, Note_on_c, 1, 34, 0
1, 92986, Control_c, 12, 11, 79
1, 92990, Pitch_bend_c, 11, 7808
1, 92990, Pitch_bend_c, 12, 7680
1, 92999, Note_on_c, 1, 34, 114
1, 92999, Pitch_bend_c, 11, 7552
1, 92999, Pitch_bend_c, 12, 7552
1, 93002, Note_on_c, 13, 57, 90
1, 93009, Pitch_bend_c, 11, 7168
1, 93009, Pitch_bend_c, 12, 7296
1, 93018, Pitch_bend_c, 11, 7424
1, 93018, Pitch_bend_c, 12, 7424
1, 93022, Note_on_c, 13, 57, 0
1, 93024, Control_c, 12, 11, 76
1, 93027, Pitch_bend_c, 11, 7808
1, 93027, Pitch_bend_c, 12, 7680
1, 93037, Pitch_bend_c, 11, 7936
1, 93037, Pitch_bend_c, 12, 8064
1, 93046, Pitch_bend_c, 11, 8320
1, 93046, Pitch_bend_c, 12, 8192
1, 93052, Control_c, 12, 11, 74
1, 93077, Control_c, 12, 11, 73
1, 93079, Pitch_bend_c, 11, 8576
1, 93079, Pitch_bend_c, 12, 8576
1, 93088, Pitch_bend_c, 11, 8704
1, 93088, Pitch_bend_c, 12, 8832
1, 93098, Pitch_bend_c, 11, 9088
1, 93098, Pitch_bend_c, 12, 8960
1, 93099, Note_on_c, 1, 34, 0
1, 93100, Note_on_c, 3, 81, 0
1, 93100, Note_on_c, 4, 57, 0
1, 93103, Control_c, 12, 11, 71
1, 93118, Note_on_c, 1, 34, 113
1, 93120, Note_on_c, 3, 79, 104
1, 93120, Note_on_c, 4, 55, 1
1, 93121, Note_on_c, 9, 36, 127
1, 93121, Note_on_c, 9, 42, 127
1, 93121, Pitch_bend_c, 11, 9216
1, 93121, Pitch_bend_c, 12, 9344
1, 93122, Note_on_c, 13, 57, 80
1, 93130, Pitch_bend_c, 11, 9216
1, 93130, Pitch_bend_c, 12, 9216
1, 93141, Note_on_c, 9, 36, 0
1, 93141, Note_on_c, 9, 42, 0
1, 93142, Note_on_c, 13, 57, 0
1, 93157, Control_c, 12, 11, 68
1, 93168, Pitch_bend_c, 11, 9344
1, 93168, Pitch_bend_c, 12, 9216
1, 93181, Pitch_bend_c, 11, 8832
1, 93181, Pitch_bend_c, 12, 8832
1, 93183, Control_c, 12, 11, 66
1, 93186, Pitch_bend_c, 11, 8704
1, 93186, Pitch_bend_c, 12, 8832
1, 93196, Pitch_bend_c, 11, 8192
1, 93196, Pitch_bend_c, 12, 8192
1, 93205, Pitch_bend_c, 11, 8320
1, 93205, Pitch_bend_c, 12, 8192
1, 93236, Control_c, 12, 11, 67
1, 93243, Note_on_c, 13, 58, 85
1, 93258, Note_on_c, 1, 34, 0
1, 93261, Control_c, 12, 11, 65
1, 93262, Pitch_bend_c, 11, 8064
1, 93262, Pitch_bend_c, 12, 8064
1, 93263, Note_on_c, 13, 58, 0
1, 93280, Pitch_bend_c, 11, 7680
1, 93280, Pitch_bend_c, 12, 7808
1, 93301, Control_c, 12, 11, 62
1, 93303, Pitch_bend_c, 11, 7936
1, 93303, Pitch_bend_c, 12, 7936
1, 93322, Pitch_bend_c, 11, 8320
1, 93322, Pitch_bend_c, 12, 8192
1, 93340, Note_on_c, 3, 79, 0
1, 93340, Note_on_c, 4, 55, 0
1, 93340, Control_c, 12, 11, 60
1, 93360, Note_on_c, 3, 77, 105
1, 93360, Note_on_c, 4, 53, 1
1, 93361, Note_on_c, 9, 42, 96
1, 93362, Note_on_c, 1, 34, 117
1, 93367, Control_c, 12, 11, 61
1, 93369, Pitch_bend_c, 11, 8448
1, 93369, Pitch_bend_c, 12, 8576
1, 93378, Pitch_bend_c, 11, 8832
1, 93378, Pitch_bend_c, 12, 8704
1, 93381, Note_on_c, 9, 42, 0
1, 93387, Pitch_bend_c, 11, 9088
1, 93387, Pitch_bend_c, 12, 9088
1, 93405, Control_c, 12, 11, 58
1, 93420, Pitch_bend_c, 11, 9216
1, 93420, Pitch_bend_c, 12, 9344
1, 93446, Control_c, 12, 11, 57
1, 93453, Pitch_bend_c, 11, 9088
1, 93453, Pitch_bend_c, 12, 8960
1, 93467, Pitch_bend_c, 11, 8704
1, 93467, Pitch_bend_c, 12, 8832
1, 93471, Control_c, 12, 11, 55
1, 93476, Pitch_bend_c, 11, 8448
1, 93476, Pitch_bend_c, 12, 8448
1, 93481, Pitch_bend_c, 11, 8320
1, 93481, Pitch_bend_c, 12, 8192
1, 93483, Note_on_c, 13, 57, 92
1, 93490, Pitch_bend_c, 11, 8320
1, 93490, Pitch_bend_c, 12, 8320
1, 93502, Note_on_c, 1, 34, 0
1, 93503, Note_on_c, 13, 57, 0
1, 93511, Control_c, 12, 11, 52
1, 93537, Control_c, 12, 11, 53
1, 93542, Pitch_bend_c, 11, 7936
1, 93542, Pitch_bend_c, 12, 8064
1, 93556, Pitch_bend_c, 11, 7680
1, 93556, Pitch_bend_c, 12, 7680
1, 93564, Control_c, 12, 11, 50
1, 93580, Note_on_c, 3, 77, 0
1, 93580, Note_on_c, 4, 53, 0
1, 93598, Note_on_c, 1, 34, 112
1, 93598, Note_on_c, 13, 58, 99
1, 93600, Note_on_c, 3, 77, 105
1, 93600, Note_on_c, 4, 53, 1
1, 93602, Note_on_c, 9, 40, 127
1, 93602, Control_c, 12, 11, 48
1, 93603, Note_on_c, 9, 42, 126
1, 93612, Pitch_bend_c, 11, 8320
1, 93612, Pitch_bend_c, 12, 8192
1, 93618, Note_on_c, 13, 58, 0
1, 93622, Note_on_c, 9, 40, 0
1, 93623, Note_on_c, 9, 42, 0
1, 93654, Pitch_bend_c, 11, 8576
1, 93654, Pitch_bend_c, 12, 8576
1, 93663, Pitch_bend_c, 11, 8704
1, 93663, Pitch_bend_c, 12, 8832
1, 93669, Control_c, 12, 11, 47
1, 93677, Pitch_bend_c, 11, 8960
1, 93677, Pitch_bend_c, 12, 8960
1, 93686, Pitch_bend_c, 11, 9344
1, 93686, Pitch_bend_c, 12, 9216
1, 93695, Pitch_bend_c, 11, 9472
1, 93695, Pitch_bend_c, 12, 9600
1, 93709, Control_c, 12, 11, 45
1, 93723, Note_on_c, 13, 57, 93
1, 93738, Note_on_c, 1, 34, 0
1, 93738, Pitch_bend_c, 11, 9344
1, 93738, Pitch_bend_c, 12, 9216
1, 93743, Note_on_c, 13, 57, 0
1, 93747, Pitch_bend_c, 11, 9088
1, 93747, Pitch_bend_c, 12, 9088
1, 93757, Pitch_bend_c, 11, 8704
1, 93757, Pitch_bend_c, 12, 8832
1, 93761, Control_c, 12, 11, 42
1, 93761, Pitch_bend_c, 11, 8576
1, 93761, Pitch_bend_c, 12, 8448
1, 93765, Pitch_bend_c, 11, 8448
1, 93765, Pitch_bend_c, 12, 8576
1, 93775, Pitch_bend_c, 11, 8192
1, 93775, Pitch_bend_c, 12, 8192
1, 93813, Control_c, 12, 11, 40
1, 93820, Note_on_c, 3, 77, 0
1, 93820, Note_on_c, 4, 53, 0
1, 93822, Pitch_bend_c, 11, 8064
1, 93822, Pitch_bend_c, 12, 7936
1, 93840, Note_on_c, 3, 79, 104
1, 93840, Note_on_c, 4, 55, 1
1, 93840, Note_on_c, 9, 42, 95
1, 93841, Note_on_c, 1, 34, 114
1, 93841, Pitch_bend_c, 11, 7808
1, 93841, Pitch_bend_c, 12, 7808
1, 93842, Note_on_c, 13, 57, 76
1, 93850, Pitch_bend_c, 11, 7424
1, 93850, Pitch_bend_c, 12, 7552
1, 93860, Note_on_c, 9, 42, 0
1, 93862, Note_on_c, 13, 57, 0
1, 93866, Control_c, 12, 11, 41
1, 93892, Pitch_bend_c, 11, 7680
1, 93892, Pitch_bend_c, 12, 7680
1, 93906, Pitch_bend_c, 11, 8064
1, 93906, Pitch_bend_c, 12, 7936
1, 93911, Pitch_bend_c, 11, 8320
1, 93911, Pitch_bend_c, 12, 8320
1, 93940, Note_on_c, 3, 79, 0
1, 93940, Note_on_c, 4, 55, 0
1, 93941, Note_on_c, 1, 34, 0
1, 93953, Pitch_bend_c, 11, 8192
1, 93953, Pitch_bend_c, 12, 8320
1, 93960, Note_on_c, 3, 81, 104
1, 93960, Note_on_c, 4, 57, 1
1, 93962, Note_on_c, 1, 34, 117
1, 93962, Note_on_c, 13, 58, 113
1, 93962, Pitch_bend_c, 11, 8704
1, 93962, Pitch_bend_c, 12, 8704
1, 93971, Pitch_bend_c, 11, 8832
1, 93971, Pitch_bend_c, 12, 8704
1, 93982, Note_on_c, 13, 58, 0
1, 94011, Control_c, 12, 11, 43
1, 94022, Control_c, 12, 11, 50
1, 94032, Pitch_bend_c, 11, 8704
1, 94032, Pitch_bend_c, 12, 8832
1, 94036, Control_c, 12, 11, 60
1, 94041, Pitch_bend_c, 11, 8576
1, 94041, Pitch_bend_c, 12, 8448
1, 94049, Control_c, 12, 11, 75
1, 94056, Pitch_bend_c, 11, 8320
1, 94056, Pitch_bend_c, 12, 8320
1, 94059, Note_on_c, 11, 62, 0
1, 94060, Note_on_c, 11, 65, 0
1, 94061, Note_on_c, 12, 65, 0
1, 94062, Note_on_c, 1, 34, 0
1, 94062, Note_on_c, 12, 62, 0
1, 94063, Control_c, 12, 11, 90
1, 94070, Pitch_bend_c, 11, 8192
1, 94070, Pitch_bend_c, 12, 8320
1, 94075, Control_c, 12, 11, 107
1, 94078, Note_on_c, 1, 33, 117
1, 94078, Note_on_c, 11, 61, 85
1, 94079, Note_on_c, 12, 61, 84
1, 94080, Note_on_c, 9, 42, 127
1, 94082, Note_on_c, 9, 36, 126
1, 94088, Control_c, 12, 11, 125
1, 94100, Note_on_c, 9, 42, 0
1, 94102, Note_on_c, 9, 36, 0
1, 94102, Control_c, 12, 11, 126
1, 94124, System_exclusive, 6, 0, 32, 36, 0, 8, 247
1, 94201, Note_on_c, 13, 57, 96
1, 94218, Note_on_c, 1, 33, 0
1, 94221, Note_on_c, 13, 57, 0
1, 94318, Note_on_c, 1, 33, 114
1, 94319, Note_on_c, 11, 64, 85
1, 94320, Note_on_c, 12, 64, 84
1, 94321, Note_on_c, 9, 42, 90
1, 94321, Note_on_c, 13, 57, 78
1, 94341, Note_on_c, 9, 42, 0
1, 94341, Note_on_c, 13, 57, 0
1, 94418, Note_on_c, 1, 33, 0
1, 94439, Note_on_c, 1, 33, 114
1, 94439, Note_on_c, 13, 57, 99
1, 94443, Pitch_bend_c, 11, 8576
1, 94443, Pitch_bend_c, 12, 8448
1, 94452, Pitch_bend_c, 11, 8704
1, 94452, Pitch_bend_c, 12, 8832
1, 94459, Note_on_c, 13, 57, 0
1, 94462, Pitch_bend_c, 11, 8704
1, 94462, Pitch_bend_c, 12, 8704
1, 94466, Pitch_bend_c, 11, 9088
1, 94466, Pitch_bend_c, 12, 8960
1, 94470, Control_c, 12, 11, 125
1, 94475, Pitch_bend_c, 11, 9344
1, 94475, Pitch_bend_c, 12, 9344
1, 94482, Control_c, 12, 11, 122
1, 94504, Pitch_bend_c, 11, 8960
1, 94504, Pitch_bend_c, 12, 9088
1, 94509, Control_c, 12, 11, 120
1, 94536, Pitch_bend_c, 11, 8704
1, 94536, Pitch_bend_c, 12, 8704
1, 94539, Note_on_c, 1, 33, 0
1, 94540, Note_on_c, 3, 81, 0
1, 94540, Note_on_c, 4, 57, 0
1, 94541, Pitch_bend_c, 11, 8576
1, 94541, Pitch_bend_c, 12, 8448
1, 94546, Pitch_bend_c, 11, 8320
1, 94546, Pitch_bend_c, 12, 8320
1, 94547, Control_c, 12, 11, 119
1, 94559, Note_on_c, 1, 33, 115
1, 94559, Note_on_c, 9, 40, 126
1, 94559, Note_on_c, 9, 42, 126
1, 94559, Pitch_bend_c, 11, 8192
1, 94559, Pitch_bend_c, 12, 8320
1, 94561, Note_on_c, 13, 57, 85
1, 94576, Control_c, 12, 11, 117
1, 94579, Note_on_c, 9, 40, 0
1, 94579, Note_on_c, 9, 42, 0
1, 94581, Note_on_c, 13, 57, 0
1, 94600, Control_c, 12, 11, 114
1, 94613, Control_c, 12, 11, 112
1, 94616, Pitch_bend_c, 11, 7936
1, 94616, Pitch_bend_c, 12, 7936
1, 94625, Pitch_bend_c, 11, 7808
1, 94625, Pitch_bend_c, 12, 7680
1, 94628, Control_c, 12, 11, 113
1, 94640, Control_c, 12, 11, 111
1, 94653, Control_c, 12, 11, 108
1, 94653, Pitch_bend_c, 11, 7424
1, 94653, Pitch_bend_c, 12, 7552
1, 94659, Note_on_c, 1, 33, 0
1, 94662, Pitch_bend_c, 11, 7552
1, 94662, Pitch_bend_c, 12, 7424
1, 94666, Control_c, 12, 11, 106
1, 94678, Note_on_c, 13, 57, 78
1, 94679, Control_c, 12, 11, 105
1, 94681, Pitch_bend_c, 11, 7552
1, 94681, Pitch_bend_c, 12, 7552
1, 94690, Pitch_bend_c, 11, 7680
1, 94690, Pitch_bend_c, 12, 7808
1, 94698, Note_on_c, 13, 57, 0
1, 94700, Pitch_bend_c, 11, 8320
1, 94700, Pitch_bend_c, 12, 8192
1, 94706, Control_c, 12, 11, 102
1, 94718, Control_c, 12, 11, 101
1, 94731, Control_c, 12, 11, 101
1, 94747, Pitch_bend_c, 11, 8448
1, 94747, Pitch_bend_c, 12, 8576
1, 94751, Pitch_bend_c, 11, 8448
1, 94751, Pitch_bend_c, 12, 8448
1, 94759, Control_c, 12, 11, 96
1, 94771, Control_c, 12, 11, 97
1, 94784, Control_c, 12, 11, 94
1, 94789, Pitch_bend_c, 11, 8832
1, 94789, Pitch_bend_c, 12, 8704
1, 94798, Pitch_bend_c, 11, 9088
1, 94798, Pitch_bend_c, 12, 9088
1, 94799, Note_on_c, 1, 33, 116
1, 94800, Note_on_c, 3, 81, 105
1, 94800, Note_on_c, 4, 57, 1
1, 94801, Note_on_c, 9, 42, 95
1, 94811, Control_c, 12, 11, 90
1, 94821, Note_on_c, 9, 42, 0
1, 94825, Control_c, 12, 11, 91
1, 94826, Pitch_bend_c, 11, 8704
1, 94826, Pitch_bend_c, 12, 8832
1, 94835, Pitch_bend_c, 11, 8448
1, 94835, Pitch_bend_c, 12, 8448
1, 94840, Pitch_bend_c, 11, 8320
1, 94840, Pitch_bend_c, 12, 8192
1, 94844, Pitch_bend_c, 11, 8320
1, 94844, Pitch_bend_c, 12, 8320
1, 94850, Control_c, 12, 11, 89
1, 94877, Control_c, 12, 11, 86
1, 94882, Pitch_bend_c, 11, 7936
1, 94882, Pitch_bend_c, 12, 8064
1, 94891, Pitch_bend_c, 11, 7680
1, 94891, Pitch_bend_c, 12, 7680
1, 94899, Note_on_c, 1, 33, 0
1, 94900, Note_on_c, 3, 81, 0
1, 94900, Note_on_c, 4, 57, 0
1, 94903, Control_c, 12, 11, 84
1, 94910, Pitch_bend_c, 11, 7808
1, 94910, Pitch_bend_c, 12, 7680
1, 94919, Note_on_c, 1, 33, 117
1, 94919, Pitch_bend_c, 11, 7424
1, 94919, Pitch_bend_c, 12, 7552
1, 94920, Note_on_c, 3, 81, 104
1, 94920, Note_on_c, 4, 57, 1
1, 94921, Note_on_c, 13, 57, 92
1, 94929, Pitch_bend_c, 11, 7296
1, 94929, Pitch_bend_c, 12, 7168
1, 94938, Pitch_bend_c, 11, 7552
1, 94938, Pitch_bend_c, 12, 7552
1, 94941, Note_on_c, 13, 57, 0
1, 94942, Control_c, 12, 11, 83
1, 94947, Pitch_bend_c, 11, 7680
1, 94947, Pitch_bend_c, 12, 7808
1, 94957, Pitch_bend_c, 11, 8064
1, 94957, Pitch_bend_c, 12, 7936
1, 94966, Pitch_bend_c, 11, 8192
1, 94966, Pitch_bend_c, 12, 8320
1, 94969, Control_c, 12, 11, 81
1, 94994, Control_c, 12, 11, 78
1, 94999, Pitch_bend_c, 11, 8448
1, 94999, Pitch_bend_c, 12, 8448
1, 95008, Pitch_bend_c, 11, 8832
1, 95008, Pitch_bend_c, 12, 8704
1, 95018, Pitch_bend_c, 11, 9088
1, 95018, Pitch_bend_c, 12, 9088
1, 95019, Note_on_c, 1, 33, 0
1, 95020, Note_on_c, 3, 81, 0
1, 95020, Note_on_c, 4, 57, 0
1, 95022, Control_c, 12, 11, 76
1, 95038, Note_on_c, 1, 33, 117
1, 95038, Note_on_c, 9, 36, 127
1, 95040, Note_on_c, 3, 79, 105
1, 95040, Note_on_c, 4, 55, 1
1, 95041, Note_on_c, 9, 42, 126
1, 95041, Note_on_c, 13, 57, 87
1, 95041, Pitch_bend_c, 11, 9216
1, 95041, Pitch_bend_c, 12, 9344
1, 95047, Control_c, 12, 11, 77
1, 95050, Pitch_bend_c, 11, 9216
1, 95050, Pitch_bend_c, 12, 9216
1, 95058, Note_on_c, 9, 36, 0
1, 95061, Note_on_c, 9, 42, 0
1, 95061, Note_on_c, 13, 57, 0
1, 95075, Control_c, 12, 11, 74
1, 95088, Pitch_bend_c, 11, 9344
1, 95088, Pitch_bend_c, 12, 9216
1, 95101, Pitch_bend_c, 11, 8832
1, 95101, Pitch_bend_c, 12, 8832
1, 95106, Pitch_bend_c, 11, 8704
1, 95106, Pitch_bend_c, 12, 8832
1, 95113, Control_c, 12, 11, 73
1, 95116, Pitch_bend_c, 11, 8192
1, 95116, Pitch_bend_c, 12, 8192
1, 95125, Pitch_bend_c, 11, 8320
1, 95125, Pitch_bend_c, 12, 8192
1, 95153, Control_c, 12, 11, 71
1, 95160, Note_on_c, 13, 57, 91
1, 95178, Note_on_c, 1, 33, 0
1, 95180, Note_on_c, 13, 57, 0
1, 95182, Pitch_bend_c, 11, 7936
1, 95182, Pitch_bend_c, 12, 8064
1, 95191, Control_c, 12, 11, 68
1, 95200, Pitch_bend_c, 11, 7808
1, 95200, Pitch_bend_c, 12, 7680
1, 95219, Control_c, 12, 11, 67
1, 95223, Pitch_bend_c, 11, 8064
1, 95223, Pitch_bend_c, 12, 8064
1, 95242, Pitch_bend_c, 11, 8192
1, 95242, Pitch_bend_c, 12, 8320
1, 95244, Control_c, 12, 11, 64
1, 95260, Note_on_c, 3, 79, 0
1, 95260, Note_on_c, 4, 55, 0
1, 95280, Note_on_c, 3, 77, 105
1, 95280, Note_on_c, 4, 53, 1
1, 95281, Note_on_c, 1, 33, 114
1, 95281, Note_on_c, 9, 36, 127
1, 95283, Note_on_c, 9, 42, 97
1, 95283, Note_on_c, 13, 57, 80
1, 95284, Control_c, 12, 11, 62
1, 95289, Pitch_bend_c, 11, 8576
1, 95289, Pitch_bend_c, 12, 8448
1, 95298, Pitch_bend_c, 11, 8704
1, 95298, Pitch_bend_c, 12, 8832
1, 95301, Note_on_c, 9, 36, 0
1, 95303, Note_on_c, 9, 42, 0
1, 95303, Note_on_c, 13, 57, 0
1, 95307, Pitch_bend_c, 11, 8960
1, 95307, Pitch_bend_c, 12, 8960
1, 95309, Control_c, 12, 11, 61
1, 95324, Control_c, 12, 11, 59
1, 95340, Pitch_bend_c, 11, 9344
1, 95340, Pitch_bend_c, 12, 9216
1, 95349, Control_c, 12, 11, 56
1, 95373, Pitch_bend_c, 11, 9088
1, 95373, Pitch_bend_c, 12, 9088
1, 95375, Control_c, 12, 11, 56
1, 95387, Pitch_bend_c, 11, 8704
1, 95387, Pitch_bend_c, 12, 8832
1, 95390, Control_c, 12, 11, 55
1, 95396, Pitch_bend_c, 11, 8448
1, 95396, Pitch_bend_c, 12, 8448
1, 95401, Note_on_c, 13, 57, 84
1, 95401, Control_c, 12, 11, 53
1, 95401, Pitch_bend_c, 11, 8320
1, 95401, Pitch_bend_c, 12, 8192
1, 95410, Pitch_bend_c, 11, 8320
1, 95410, Pitch_bend_c, 12, 8320
1, 95421, Note_on_c, 1, 33, 0
1, 95421, Note_on_c, 13, 57, 0
1, 95428, Control_c, 12, 11, 50
1, 95462, Pitch_bend_c, 11, 7936
1, 95462, Pitch_bend_c, 12, 8064
1, 95468, Control_c, 12, 11, 48
1, 95476, Pitch_bend_c, 11, 7680
1, 95476, Pitch_bend_c, 12, 7680
1, 95493, Control_c, 12, 11, 49
1, 95500, Note_on_c, 3, 77, 0
1, 95500, Note_on_c, 4, 53, 0
1, 95520, Note_on_c, 3, 77, 104
1, 95520, Note_on_c, 4, 53, 1
1, 95521, Note_on_c, 9, 40, 127
1, 95522, Note_on_c, 1, 33, 119
1, 95522, Note_on_c, 9, 42, 127
1, 95532, Pitch_bend_c, 11, 8320
1, 95532, Pitch_bend_c, 12, 8192
1, 95534, Control_c, 12, 11, 46
1, 95541, Note_on_c, 9, 40, 0
1, 95542, Note_on_c, 9, 42, 0
1, 95574, Pitch_bend_c, 11, 8448
1, 95574, Pitch_bend_c, 12, 8576
1, 95583, Pitch_bend_c, 11, 8832
1, 95583, Pitch_bend_c, 12, 8704
1, 95587, Control_c, 12, 11, 45
1, 95597, Pitch_bend_c, 11, 9088
1, 95597, Pitch_bend_c, 12, 9088
1, 95606, Pitch_bend_c, 11, 9216
1, 95606, Pitch_bend_c, 12, 9344
1, 95615, Pitch_bend_c, 11, 9600
1, 95615, Pitch_bend_c, 12, 9472
1, 95638, Control_c, 12, 11, 43
1, 95641, Note_on_c, 13, 57, 93
1, 95658, Pitch_bend_c, 11, 9216
1, 95658, Pitch_bend_c, 12, 9344
1, 95661, Note_on_c, 13, 57, 0
1, 95662, Note_on_c, 1, 33, 0
1, 95667, Pitch_bend_c, 11, 8960
1, 95667, Pitch_bend_c, 12, 8960
1, 95677, Pitch_bend_c, 11, 8832
1, 95677, Pitch_bend_c, 12, 8704
1, 95681, Pitch_bend_c, 11, 8576
1, 95681, Pitch_bend_c, 12, 8576
1, 95685, Pitch_bend_c, 11, 8448
1, 95685, Pitch_bend_c, 12, 8576
1, 95691, Control_c, 12, 11, 40
1, 95695, Pitch_bend_c, 11, 8192
1, 95695, Pitch_bend_c, 12, 8192
1, 95742, Pitch_bend_c, 11, 8064
1, 95742, Pitch_bend_c, 12, 7936
1, 95759, Note_on_c, 1, 33, 112
1, 95759, Note_on_c, 13, 57, 98
1, 95761, Pitch_bend_c, 11, 7808
1, 95761, Pitch_bend_c, 12, 7808
1, 95762, Note_on_c, 9, 42, 94
1, 95770, Pitch_bend_c, 11, 7424
1, 95770, Pitch_bend_c, 12, 7552
1, 95779, Note_on_c, 13, 57, 0
1, 95782, Note_on_c, 9, 42, 0
1, 95812, Pitch_bend_c, 11, 7680
1, 95812, Pitch_bend_c, 12, 7680
1, 95826, Pitch_bend_c, 11, 8064
1, 95826, Pitch_bend_c, 12, 7936
1, 95831, Pitch_bend_c, 11, 8192
1, 95831, Pitch_bend_c, 12, 8320
1, 95859, Note_on_c, 1, 33, 0
1, 95860, Note_on_c, 3, 77, 0
1, 95860, Note_on_c, 4, 53, 0
1, 95873, Pitch_bend_c, 11, 8320
1, 95873, Pitch_bend_c, 12, 8192
1, 95879, Note_on_c, 1, 33, 112
1, 95880, Note_on_c, 3, 81, 105
1, 95880, Note_on_c, 4, 57, 1
1, 95881, Note_on_c, 13, 57, 93
1, 95882, Pitch_bend_c, 11, 8832
1, 95882, Pitch_bend_c, 12, 8832
1, 95891, Pitch_bend_c, 11, 8704
1, 95891, Pitch_bend_c, 12, 8832
1, 95901, Note_on_c, 13, 57, 0
1, 95952, Pitch_bend_c, 11, 8832
1, 95952, Pitch_bend_c, 12, 8704
1, 95955, Control_c, 12, 11, 47
1, 95961, Pitch_bend_c, 11, 8448
1, 95961, Pitch_bend_c, 12, 8576
1, 95968, Control_c, 12, 11, 52
1, 95976, Pitch_bend_c, 11, 8192
1, 95976, Pitch_bend_c, 12, 8192
1, 95978, Note_on_c, 11, 61, 0
1, 95979, Note_on_c, 1, 33, 0
1, 95979, Note_on_c, 11, 64, 0
1, 95979, Note_on_c, 12, 61, 0
1, 95979, Control_c, 12, 11, 64
1, 95980, Note_on_c, 3, 81, 0
1, 95980, Note_on_c, 4, 57, 0
1, 95980, Note_on_c, 12, 64, 0
1, 95990, Pitch_bend_c, 11, 8320
1, 95990, Pitch_bend_c, 12, 8192
1, 95993, Control_c, 12, 11, 77
1, 96000, Note_on_c, 3, 79, 104
1, 96000, Note_on_c, 4, 55, 1
1, 96000, Note_on_c, 9, 36, 126
1, 96000, Note_on_c, 12, 62, 85
1, 96000, Note_on_c, 13, 62, 101
1, 96001, Note_on_c, 9, 42, 127
1, 96002, Note_on_c, 1, 26, 111
1, 96002, Note_on_c, 11, 62, 84
1, 96006, Control_c, 12, 11, 91
1, 96020, Note_on_c, 9, 36, 0
1, 96021, Note_on_c, 9, 42, 0
1, 96021, Control_c, 12, 11, 104
1, 96032, Control_c, 12, 11, 118
1, 96045, Control_c, 12, 11, 127
1, 96081, Note_on_c, 13, 62, 0
1, 96100, Note_on_c, 3, 79, 0
1, 96100, Note_on_c, 4, 55, 0
1, 96120, Note_on_c, 3, 77, 104
1, 96120, Note_on_c, 4, 53, 1
1, 96142, Note_on_c, 1, 26, 0
1, 96220, Note_on_c, 3, 77, 0
1, 96220, Note_on_c, 4, 53, 0
1, 96239, Note_on_c, 1, 26, 119
1, 96239, Note_on_c, 13, 62, 86
1, 96240, Note_on_c, 3, 74, 105
1, 96240, Note_on_c, 4, 50, 1
1, 96240, Note_on_c, 11, 65, 85
1, 96242, Note_on_c, 12, 65, 85
1, 96243, Note_on_c, 9, 42, 90
1, 96263, Note_on_c, 9, 42, 0
1, 96311, Note_on_c, 13, 62, 0
1, 96339, Note_on_c, 1, 26, 0
1, 96361, Note_on_c, 1, 26, 116
1, 96361, Note_on_c, 13, 62, 61
1, 96363, Pitch_bend_c, 11, 8576
1, 96363, Pitch_bend_c, 12, 8576
1, 96372, Pitch_bend_c, 11, 8704
1, 96372, Pitch_bend_c, 12, 8832
1, 96382, Pitch_bend_c, 11, 8704
1, 96382, Pitch_bend_c, 12, 8704
1, 96386, Pitch_bend_c, 11, 9088
1, 96386, Pitch_bend_c, 12, 8960
1, 96395, Pitch_bend_c, 11, 9344
1, 96395, Pitch_bend_c, 12, 9344
1, 96415, Note_on_c, 13, 62, 0
1, 96424, Pitch_bend_c, 11, 8960
1, 96424, Pitch_bend_c, 12, 9088
1, 96441, Control_c, 12, 11, 123
1, 96452, Control_c, 12, 11, 120
1, 96456, Pitch_bend_c, 11, 8704
1, 96456, Pitch_bend_c, 12, 8704
1, 96461, Note_on_c, 1, 26, 0
1, 96461, Pitch_bend_c, 11, 8576
1, 96461, Pitch_bend_c, 12, 8448
1, 96466, Control_c, 12, 11, 118
1, 96466, Pitch_bend_c, 11, 8192
1, 96466, Pitch_bend_c, 12, 8320
1, 96478, Control_c, 12, 11, 117
1, 96479, Note_on_c, 9, 40, 127
1, 96479, Note_on_c, 9, 42, 126
1, 96479, Pitch_bend_c, 11, 8320
1, 96479, Pitch_bend_c, 12, 8192
1, 96480, Note_on_c, 1, 26, 114
1, 96480, Note_on_c, 13, 62, 28
1, 96491, Control_c, 12, 11, 114
1, 96499, Note_on_c, 9, 40, 0
1, 96499, Note_on_c, 9, 42, 0
1, 96505, Control_c, 12, 11, 113
1, 96518, Control_c, 12, 11, 111
1, 96536, Pitch_bend_c, 11, 8064
1, 96536, Pitch_bend_c, 12, 8064
1, 96542, Note_on_c, 13, 62, 0
1, 96545, Control_c, 12, 11, 108
1, 96545, Pitch_bend_c, 11, 7680
1, 96545, Pitch_bend_c, 12, 7808
1, 96571, Control_c, 12, 11, 107
1, 96573, Pitch_bend_c, 11, 7552
1, 96573, Pitch_bend_c, 12, 7424
1, 96580, Note_on_c, 1, 26, 0
1, 96582, Pitch_bend_c, 11, 7424
1, 96582, Pitch_bend_c, 12, 7552
1, 96584, Control_c, 12, 11, 104
1, 96598, Control_c, 12, 11, 102
1, 96601, Pitch_bend_c, 11, 7424
1, 96601, Pitch_bend_c, 12, 7424
1, 96610, Control_c, 12, 11, 103
1, 96610, Pitch_bend_c, 11, 7808
1, 96610, Pitch_bend_c, 12, 7680
1, 96620, Pitch_bend_c, 11, 8320
1, 96620, Pitch_bend_c, 12, 8320
1, 96622, Control_c, 12, 11, 101
1, 96636, Control_c, 12, 11, 98
1, 96649, Control_c, 12, 11, 96
1, 96663, Control_c, 12, 11, 95
1, 96667, Pitch_bend_c, 11, 8448
1, 96667, Pitch_bend_c, 12, 8576
1, 96671, Pitch_bend_c, 11, 8448
1, 96671, Pitch_bend_c, 12, 8448
1, 96675, Control_c, 12, 11, 93
1, 96688, Control_c, 12, 11, 92
1, 96702, Control_c, 12, 11, 90
1, 96709, Pitch_bend_c, 11, 8832
1, 96709, Pitch_bend_c, 12, 8704
1, 96718, Note_on_c, 13, 62, 96
1, 96718, Pitch_bend_c, 11, 9088
1, 96718, Pitch_bend_c, 12, 9088
1, 96720, Note_on_c, 1, 26, 115
1, 96721, Note_on_c, 9, 42, 95
1, 96729, Control_c, 12, 11, 89
1, 96741, Note_on_c, 9, 42, 0
1, 96741, Control_c, 12, 11, 86
1, 96746, Pitch_bend_c, 11, 8704
1, 96746, Pitch_bend_c, 12, 8832
1, 96754, Control_c, 12, 11, 85
1, 96755, Pitch_bend_c, 11, 8448
1, 96755, Pitch_bend_c, 12, 8448
1, 96760, Pitch_bend_c, 11, 8320
1, 96760, Pitch_bend_c, 12, 8192
1, 96764, Pitch_bend_c, 11, 8192
1, 96764, Pitch_bend_c, 12, 8320
1, 96782, Control_c, 12, 11, 83
1, 96794, Control_c, 12, 11, 80
1, 96802, Note_on_c, 13, 62, 0
1, 96802, Pitch_bend_c, 11, 8064
1, 96802, Pitch_bend_c, 12, 7936
1, 96807, Control_c, 12, 11, 81
1, 96811, Pitch_bend_c, 11, 7808
1, 96811, Pitch_bend_c, 12, 7808
1, 96819, Control_c, 12, 11, 78
1, 96820, Note_on_c, 1, 26, 0
1, 96830, Pitch_bend_c, 11, 7680
1, 96830, Pitch_bend_c, 12, 7808
1, 96833, Control_c, 12, 11, 76
1, 96838, Note_on_c, 1, 26, 113
1, 96839, Pitch_bend_c, 11, 7552
1, 96839, Pitch_bend_c, 12, 7424
1, 96849, Pitch_bend_c, 11, 7168
1, 96849, Pitch_bend_c, 12, 7296
1, 96858, Pitch_bend_c, 11, 7424
1, 96858, Pitch_bend_c, 12, 7424
1, 96860, Control_c, 12, 11, 75
1, 96867, Pitch_bend_c, 11, 7808
1, 96867, Pitch_bend_c, 12, 7680
1, 96877, Pitch_bend_c, 11, 8064
1, 96877, Pitch_bend_c, 12, 8064
1, 96886, Pitch_bend_c, 11, 8192
1, 96886, Pitch_bend_c, 12, 8320
1, 96899, Control_c, 12, 11, 75
1, 96919, Pitch_bend_c, 11, 8448
1, 96919, Pitch_bend_c, 12, 8448
1, 96926, Control_c, 12, 11, 72
1, 96928, Pitch_bend_c, 11, 8832
1, 96928, Pitch_bend_c, 12, 8704
1, 96938, Note_on_c, 1, 26, 0
1, 96938, Pitch_bend_c, 11, 9088
1, 96938, Pitch_bend_c, 12, 9088
1, 96940, Note_on_c, 3, 74, 0
1, 96940, Note_on_c, 4, 50, 0
1, 96951, Control_c, 12, 11, 70
1, 96959, Note_on_c, 9, 42, 127
1, 96960, Note_on_c, 1, 26, 118
1, 96960, Note_on_c, 9, 36, 127
1, 96961, Pitch_bend_c, 11, 9216
1, 96961, Pitch_bend_c, 12, 9344
1, 96962, Note_on_c, 13, 62, 54
1, 96970, Pitch_bend_c, 11, 9216
1, 96970, Pitch_bend_c, 12, 9216
1, 96979, Note_on_c, 9, 42, 0
1, 96980, Note_on_c, 9, 36, 0
1, 97005, Control_c, 12, 11, 69
1, 97008, Pitch_bend_c, 11, 9344
1, 97008, Pitch_bend_c, 12, 9216
1, 97016, Control_c, 12, 11, 69
1, 97021, Note_on_c, 13, 62, 0
1, 97021, Pitch_bend_c, 11, 8704
1, 97021, Pitch_bend_c, 12, 8832
1, 97026, Pitch_bend_c, 11, 8832
1, 97026, Pitch_bend_c, 12, 8704
1, 97036, Pitch_bend_c, 11, 8320
1, 97036, Pitch_bend_c, 12, 8320
1, 97045, Pitch_bend_c, 11, 8192
1, 97045, Pitch_bend_c, 12, 8320
1, 97058, Control_c, 12, 11, 66
1, 97079, Note_on_c, 13, 62, 77
1, 97083, Control_c, 12, 11, 64
1, 97100, Note_on_c, 1, 26, 0
1, 97102, Pitch_bend_c, 11, 8064
1, 97102, Pitch_bend_c, 12, 7936
1, 97120, Pitch_bend_c, 11, 7680
1, 97120, Pitch_bend_c, 12, 7808
1, 97135, Note_on_c, 13, 62, 0
1, 97137, Control_c, 12, 11, 63
1, 97143, Pitch_bend_c, 11, 7936
1, 97143, Pitch_bend_c, 12, 7936
1, 97162, Pitch_bend_c, 11, 8320
1, 97162, Pitch_bend_c, 12, 8192
1, 97175, Control_c, 12, 11, 60
1, 97199, Note_on_c, 1, 26, 112
1, 97200, Control_c, 12, 11, 61
1, 97201, Note_on_c, 9, 42, 96
1, 97203, Note_on_c, 13, 62, 57
1, 97209, Pitch_bend_c, 11, 8576
1, 97209, Pitch_bend_c, 12, 8576
1, 97218, Pitch_bend_c, 11, 8704
1, 97218, Pitch_bend_c, 12, 8832
1, 97221, Note_on_c, 9, 42, 0
1, 97227, Pitch_bend_c, 11, 8960
1, 97227, Pitch_bend_c, 12, 8960
1, 97228, Control_c, 12, 11, 59
1, 97245, Note_on_c, 13, 62, 0
1, 97260, Pitch_bend_c, 11, 9344
1, 97260, Pitch_bend_c, 12, 9216
1, 97280, Control_c, 12, 11, 56
1, 97293, Pitch_bend_c, 11, 9088
1, 97293, Pitch_bend_c, 12, 9088
1, 97307, Pitch_bend_c, 11, 8704
1, 97307, Pitch_bend_c, 12, 8832
1, 97316, Pitch_bend_c, 11, 8448
1, 97316, Pitch_bend_c, 12, 8448
1, 97321, Pitch_bend_c, 11, 8320
1, 97321, Pitch_bend_c, 12, 8192
1, 97330, Pitch_bend_c, 11, 8192
1, 97330, Pitch_bend_c, 12, 8320
1, 97334, Control_c, 12, 11, 55
1, 97339, Note_on_c, 1, 26, 0
1, 97373, Control_c, 12, 11, 54
1, 97382, Pitch_bend_c, 11, 8064
1, 97382, Pitch_bend_c, 12, 7936
1, 97396, Pitch_bend_c, 11, 7808
1, 97396, Pitch_bend_c, 12, 7808
1, 97398, System_exclusive, 33, 0, 32, 36, 0, 4, 83, 84, 73, 76, 76, 32, 73, 32, 87, 79, 78, 68, 69, 82, 32, 73, 70, 32, 89, 79, 85, 32, 75, 78, 79, 87, 10, 247
1, 97403, System_exclusive, 26, 0, 32, 36, 0, 5, 72, 79, 87, 32, 73, 84, 32, 82, 69, 65, 76, 76, 89, 32, 70, 69, 69, 76, 83, 10, 247
1, 97408, System_exclusive, 31, 0, 32, 36, 0, 6, 84, 79, 32, 66, 69, 32, 76, 69, 70, 84, 32, 79, 85, 84, 83, 73, 68, 69, 32, 65, 76, 79, 78, 69, 10, 247
1, 97413, System_exclusive, 30, 0, 32, 36, 0, 7, 87, 72, 69, 78, 32, 73, 84, 39, 83, 32, 67, 79, 76, 68, 32, 79, 85, 84, 32, 72, 69, 82, 69, 10, 247
1, 97423, System_exclusive, 6, 0, 32, 36, 0, 8, 247
1, 97425, Control_c, 12, 11, 52
1, 97439, Note_on_c, 9, 40, 126
1, 97439, Note_on_c, 9, 42, 126
1, 97440, Note_on_c, 1, 26, 115
1, 97442, Note_on_c, 13, 62, 100
1, 97452, Pitch_bend_c, 11, 8192
1, 97452, Pitch_bend_c, 12, 8320
1, 97459, Note_on_c, 9, 40, 0
1, 97459, Note_on_c, 9, 42, 0
1, 97478, Control_c, 12, 11, 51
1, 97494, Pitch_bend_c, 11, 8576
1, 97494, Pitch_bend_c, 12, 8448
1, 97503, Control_c, 12, 11, 49
1, 97503, Pitch_bend_c, 11, 8704
1, 97503, Pitch_bend_c, 12, 8832
1, 97517, Pitch_bend_c, 11, 8960
1, 97517, Pitch_bend_c, 12, 8960
1, 97521, Note_on_c, 13, 62, 0
1, 97526, Pitch_bend_c, 11, 9344
1, 97526, Pitch_bend_c, 12, 9216
1, 97535, Pitch_bend_c, 11, 9600
1, 97535, Pitch_bend_c, 12, 9600
1, 97578, Pitch_bend_c, 11, 9216
1, 97578, Pitch_bend_c, 12, 9344
1, 97580, Note_on_c, 1, 26, 0
1, 97583, Control_c, 12, 11, 48
1, 97587, Pitch_bend_c, 11, 8960
1, 97587, Pitch_bend_c, 12, 8960
1, 97597, Pitch_bend_c, 11, 8832
1, 97597, Pitch_bend_c, 12, 8704
1, 97601, Pitch_bend_c, 11, 8576
1, 97601, Pitch_bend_c, 12, 8576
1, 97605, Pitch_bend_c, 11, 8448
1, 97605, Pitch_bend_c, 12, 8576
1, 97615, Pitch_bend_c, 11, 8192
1, 97615, Pitch_bend_c, 12, 8192
1, 97622, Control_c, 12, 11, 46
1, 97662, Pitch_bend_c, 11, 8064
1, 97662, Pitch_bend_c, 12, 7936
1, 97679, Note_on_c, 1, 26, 112
1, 97679, Note_on_c, 13, 62, 100
1, 97681, Pitch_bend_c, 11, 7680
1, 97681, Pitch_bend_c, 12, 7808
1, 97683, Note_on_c, 9, 42, 95
1, 97690, Pitch_bend_c, 11, 7552
1, 97690, Pitch_bend_c, 12, 7424
1, 97703, Note_on_c, 9, 42, 0
1, 97732, Pitch_bend_c, 11, 7808
1, 97732, Pitch_bend_c, 12, 7808
1, 97746, Pitch_bend_c, 11, 7936
1, 97746, Pitch_bend_c, 12, 8064
1, 97751, Pitch_bend_c, 11, 8320
1, 97751, Pitch_bend_c, 12, 8192
1, 97752, Note_on_c, 13, 62, 0
1, 97779, Note_on_c, 1, 26, 0
1, 97793, Pitch_bend_c, 11, 8192
1, 97793, Pitch_bend_c, 12, 8320
1, 97799, Note_on_c, 1, 26, 119
1, 97799, Note_on_c, 13, 62, 65
1, 97802, Pitch_bend_c, 11, 8704
1, 97802, Pitch_bend_c, 12, 8704
1, 97811, Pitch_bend_c, 11, 8832
1, 97811, Pitch_bend_c, 12, 8704
1, 97846, Control_c, 12, 11, 49
1, 97851, Note_on_c, 13, 62, 0
1, 97859, Control_c, 12, 11, 55
1, 97871, Control_c, 12, 11, 62
1, 97872, Pitch_bend_c, 11, 8832
1, 97872, Pitch_bend_c, 12, 8832
1, 97881, Pitch_bend_c, 11, 8448
1, 97881, Pitch_bend_c, 12, 8576
1, 97884, Control_c, 12, 11, 74
1, 97896, Pitch_bend_c, 11, 8192
1, 97896, Pitch_bend_c, 12, 8192
1, 97897, Control_c, 12, 11, 87
1, 97899, Note_on_c, 1, 26, 0
1, 97900, Note_on_c, 11, 65, 0
1, 97900, Note_on_c, 12, 62, 0
1, 97902, Note_on_c, 11, 62, 0
1, 97902, Note_on_c, 12, 65, 0
1, 97910, Control_c, 12, 11, 100
1, 97910, Pitch_bend_c, 11, 8320
1, 97910, Pitch_bend_c, 12, 8192
1, 97919, Note_on_c, 9, 36, 126
1, 97921, Note_on_c, 11, 62, 84
1, 97922, Note_on_c, 12, 62, 84
1, 97923, Note_on_c, 1, 26, 119
1, 97923, Note_on_c, 9, 42, 127
1, 97923, Note_on_c, 13, 62, 101
1, 97925, Control_c, 12, 11, 115
1, 97937, Control_c, 12, 11, 127
1, 97939, Note_on_c, 9, 36, 0
1, 97943, Note_on_c, 9, 42, 0
1, 98004, Note_on_c, 13, 62, 0
1, 98063, Note_on_c, 1, 26, 0
1, 98158, Note_on_c, 9, 42, 90
1, 98158, Note_on_c, 11, 65, 84
1, 98161, Note_on_c, 12, 65, 84
1, 98161, Note_on_c, 13, 62, 86
1, 98163, Note_on_c, 1, 26, 116
1, 98178, Note_on_c, 9, 42, 0
1, 98233, Note_on_c, 13, 62, 0
1, 98263, Note_on_c, 1, 26, 0
1, 98278, Note_on_c, 1, 26, 117
1, 98282, Note_on_c, 13, 62, 60
1, 98283, Pitch_bend_c, 11, 8576
1, 98283, Pitch_bend_c, 12, 8576
1, 98292, Control_c, 12, 11, 122
1, 98292, Pitch_bend_c, 11, 8704
1, 98292, Pitch_bend_c, 12, 8832
1, 98302, Pitch_bend_c, 11, 8704
1, 98302, Pitch_bend_c, 12, 8704
1, 98306, Control_c, 12, 11, 121
1, 98306, Pitch_bend_c, 11, 9088
1, 98306, Pitch_bend_c, 12, 8960
1, 98315, Pitch_bend_c, 11, 9216
1, 98315, Pitch_bend_c, 12, 9344
1, 98317, Control_c, 12, 11, 116
1, 98331, Control_c, 12, 11, 114
1, 98336, Note_on_c, 13, 62, 0
1, 98344, Control_c, 12, 11, 115
1, 98344, Pitch_bend_c, 11, 9088
1, 98344, Pitch_bend_c, 12, 8960
1, 98357, Control_c, 12, 11, 113
1, 98371, Control_c, 12, 11, 110
1, 98376, Pitch_bend_c, 11, 8832
1, 98376, Pitch_bend_c, 12, 8832
1, 98378, Note_on_c, 1, 26, 0
1, 98381, Pitch_bend_c, 11, 8448
1, 98381, Pitch_bend_c, 12, 8576
1, 98382, Control_c, 12, 11, 108
1, 98386, Pitch_bend_c, 11, 8320
1, 98386, Pitch_bend_c, 12, 8192
1, 98399, Pitch_bend_c, 11, 8192
1, 98399, Pitch_bend_c, 12, 8320
1, 98400, Note_on_c, 3, 77, 105
1, 98400, Note_on_c, 9, 40, 127
1, 98400, Note_on_c, 9, 42, 126
1, 98401, Note_on_c, 13, 62, 28
1, 98402, Note_on_c, 1, 26, 118
1, 98409, Control_c, 12, 11, 107
1, 98420, Note_on_c, 9, 40, 0
1, 98420, Note_on_c, 9, 42, 0
1, 98437, Control_c, 12, 11, 105
1, 98456, Pitch_bend_c, 11, 7936
1, 98456, Pitch_bend_c, 12, 7936
1, 98462, Control_c, 12, 11, 102
1, 98463, Note_on_c, 13, 62, 0
1, 98465, Pitch_bend_c, 11, 7808
1, 98465, Pitch_bend_c, 12, 7680
1, 98475, Control_c, 12, 11, 100
1, 98489, Control_c, 12, 11, 99
1, 98493, Pitch_bend_c, 11, 7552
1, 98493, Pitch_bend_c, 12, 7552
1, 98501, Control_c, 12, 11, 96
1, 98502, Note_on_c, 1, 26, 0
1, 98502, Pitch_bend_c, 11, 7424
1, 98502, Pitch_bend_c, 12, 7552
1, 98514, Control_c, 12, 11, 95
1, 98521, Pitch_bend_c, 11, 7424
1, 98521, Pitch_bend_c, 12, 7424
1, 98528, Control_c, 12, 11, 93
1, 98530, Pitch_bend_c, 11, 7808
1, 98530, Pitch_bend_c, 12, 7680
1, 98540, Control_c, 12, 11, 90
1, 98540, Pitch_bend_c, 11, 8320
1, 98540, Pitch_bend_c, 12, 8320
1, 98555, Control_c, 12, 11, 91
1, 98580, Control_c, 12, 11, 88
1, 98587, Pitch_bend_c, 11, 8448
1, 98587, Pitch_bend_c, 12, 8576
1, 98591, Pitch_bend_c, 11, 8448
1, 98591, Pitch_bend_c, 12, 8448
1, 98606, Control_c, 12, 11, 86
1, 98620, Note_on_c, 3, 77, 0
1, 98629, Pitch_bend_c, 11, 8832
1, 98629, Pitch_bend_c, 12, 8704
1, 98634, Control_c, 12, 11, 85
1, 98638, Note_on_c, 13, 62, 97
1, 98638, Pitch_bend_c, 11, 8960
1, 98638, Pitch_bend_c, 12, 9088
1, 98639, Note_on_c, 9, 42, 95
1, 98640, Note_on_c, 3, 77, 104
1, 98640, Note_on_c, 4, 57, 1
1, 98640, Note_on_c, 4, 60, 1
1, 98640, Note_on_c, 4, 64, 1
1, 98643, Note_on_c, 1, 36, 112
1, 98659, Note_on_c, 9, 42, 0
1, 98659, Control_c, 12, 11, 83
1, 98666, Pitch_bend_c, 11, 8832
1, 98666, Pitch_bend_c, 12, 8704
1, 98675, Pitch_bend_c, 11, 8576
1, 98675, Pitch_bend_c, 12, 8576
1, 98680, Pitch_bend_c, 11, 8192
1, 98680, Pitch_bend_c, 12, 8320
1, 98684, Pitch_bend_c, 11, 8320
1, 98684, Pitch_bend_c, 12, 8192
1, 98686, Control_c, 12, 11, 80
1, 98711, Control_c, 12, 11, 78
1, 98722, Note_on_c, 13, 62, 0
1, 98722, Pitch_bend_c, 11, 7936
1, 98722, Pitch_bend_c, 12, 8064
1, 98724, Control_c, 12, 11, 77
1, 98731, Pitch_bend_c, 11, 7680
1, 98731, Pitch_bend_c, 12, 7680
1, 98743, Note_on_c, 1, 36, 0
1, 98750, Pitch_bend_c, 11, 7808
1, 98750, Pitch_bend_c, 12, 7680
1, 98752, Control_c, 12, 11, 75
1, 98759, Pitch_bend_c, 11, 7552
1, 98759, Pitch_bend_c, 12, 7552
1, 98762, Note_on_c, 1, 38, 115
1, 98769, Pitch_bend_c, 11, 7168
1, 98769, Pitch_bend_c, 12, 7296
1, 98778, Pitch_bend_c, 11, 7424
1, 98778, Pitch_bend_c, 12, 7424
1, 98787, Pitch_bend_c, 11, 7808
1, 98787, Pitch_bend_c, 12, 7680
1, 98797, Pitch_bend_c, 11, 8064
1, 98797, Pitch_bend_c, 12, 8064
1, 98804, Control_c, 12, 11, 74
1, 98806, Pitch_bend_c, 11, 8192
1, 98806, Pitch_bend_c, 12, 8320
1, 98839, Pitch_bend_c, 11, 8448
1, 98839, Pitch_bend_c, 12, 8448
1, 98842, Control_c, 12, 11, 72
1, 98848, Pitch_bend_c, 11, 8832
1, 98848, Pitch_bend_c, 12, 8704
1, 98858, Pitch_bend_c, 11, 8960
1, 98858, Pitch_bend_c, 12, 9088
1, 98860, Note_on_c, 3, 77, 0
1, 98860, Note_on_c, 4, 57, 0
1, 98860, Note_on_c, 4, 60, 0
1, 98860, Note_on_c, 4, 64, 0
1, 98862, Note_on_c, 1, 38, 0
1, 98870, Control_c, 12, 11, 71
1, 98880, Note_on_c, 3, 82, 104
1, 98880, Note_on_c, 4, 57, 1
1, 98880, Note_on_c, 4, 60, 1
1, 98880, Note_on_c, 4, 64, 1
1, 98880, Note_on_c, 9, 36, 126
1, 98880, Note_on_c, 9, 42, 126
1, 98881, Note_on_c, 13, 62, 54
1, 98881, Pitch_bend_c, 11, 9344
1, 98881, Pitch_bend_c, 12, 9216
1, 98882, Note_on_c, 1, 33, 117
1, 98890, Pitch_bend_c, 11, 9344
1, 98890, Pitch_bend_c, 12, 9344
1, 98895, Control_c, 12, 11, 68
1, 98900, Note_on_c, 9, 36, 0
1, 98900, Note_on_c, 9, 42, 0
1, 98928, Pitch_bend_c, 11, 9216
1, 98928, Pitch_bend_c, 12, 9344
1, 98940, Note_on_c, 13, 62, 0
1, 98941, Pitch_bend_c, 11, 8832
1, 98941, Pitch_bend_c, 12, 8704
1, 98946, Pitch_bend_c, 11, 8704
1, 98946, Pitch_bend_c, 12, 8832
1, 98949, Control_c, 12, 11, 69
1, 98956, Pitch_bend_c, 11, 8192
1, 98956, Pitch_bend_c, 12, 8192
1, 98965, Pitch_bend_c, 11, 8320
1, 98965, Pitch_bend_c, 12, 8192
1, 98980, Note_on_c, 3, 82, 0
1, 98980, Note_on_c, 4, 57, 0
1, 98980, Note_on_c, 4, 60, 0
1, 98980, Note_on_c, 4, 64, 0
1, 98982, Note_on_c, 1, 33, 0
1, 99000, Note_on_c, 3, 82, 105
1, 99000, Note_on_c, 4, 57, 1
1, 99000, Note_on_c, 4, 60, 1
1, 99000, Note_on_c, 4, 64, 1
1, 99001, Note_on_c, 1, 36, 118
1, 99002, Note_on_c, 13, 62, 77
1, 99015, Control_c, 12, 11, 67
1, 99022, Pitch_bend_c, 11, 8064
1, 99022, Pitch_bend_c, 12, 8064
1, 99040, Control_c, 12, 11, 64
1, 99040, Pitch_bend_c, 11, 7680
1, 99040, Pitch_bend_c, 12, 7808
1, 99058, Note_on_c, 13, 62, 0
1, 99063, Pitch_bend_c, 11, 7936
1, 99063, Pitch_bend_c, 12, 7936
1, 99080, Control_c, 12, 11, 63
1, 99082, Pitch_bend_c, 11, 8320
1, 99082, Pitch_bend_c, 12, 8192
1, 99100, Note_on_c, 3, 82, 0
1, 99100, Note_on_c, 4, 57, 0
1, 99100, Note_on_c, 4, 60, 0
1, 99100, Note_on_c, 4, 64, 0
1, 99101, Note_on_c, 1, 36, 0
1, 99106, Control_c, 12, 11, 60
1, 99120, Note_on_c, 3, 81, 105
1, 99120, Note_on_c, 4, 57, 1
1, 99120, Note_on_c, 4, 60, 1
1, 99120, Note_on_c, 4, 64, 1
1, 99120, Note_on_c, 9, 42, 97
1, 99121, Note_on_c, 13, 62, 57
1, 99123, Note_on_c, 1, 26, 118
1, 99123, Note_on_c, 9, 36, 127
1, 99129, Pitch_bend_c, 11, 8576
1, 99129, Pitch_bend_c, 12, 8576
1, 99132, Control_c, 12, 11, 60
1, 99138, Pitch_bend_c, 11, 8704
1, 99138, Pitch_bend_c, 12, 8832
1, 99140, Note_on_c, 9, 42, 0
1, 99143, Note_on_c, 9, 36, 0
1, 99147, Pitch_bend_c, 11, 8960
1, 99147, Pitch_bend_c, 12, 8960
1, 99163, Note_on_c, 13, 62, 0
1, 99171, Control_c, 12, 11, 59
1, 99180, Pitch_bend_c, 11, 9344
1, 99180, Pitch_bend_c, 12, 9216
1, 99213, Pitch_bend_c, 11, 8960
1, 99213, Pitch_bend_c, 12, 9088
1, 99225, Control_c, 12, 11, 57
1, 99227, Pitch_bend_c, 11, 8832
1, 99227, Pitch_bend_c, 12, 8704
1, 99236, Pitch_bend_c, 11, 8576
1, 99236, Pitch_bend_c, 12, 8576
1, 99241, Pitch_bend_c, 11, 8192
1, 99241, Pitch_bend_c, 12, 8320
1, 99250, Pitch_bend_c, 11, 8320
1, 99250, Pitch_bend_c, 12, 8192
1, 99263, Note_on_c, 1, 26, 0
1, 99264, Control_c, 12, 11, 54
1, 99302, Pitch_bend_c, 11, 7936
1, 99302, Pitch_bend_c, 12, 8064
1, 99316, Control_c, 12, 11, 54
1, 99316, Pitch_bend_c, 11, 7680
1, 99316, Pitch_bend_c, 12, 7680
1, 99340, Note_on_c, 3, 81, 0
1, 99340, Note_on_c, 4, 57, 0
1, 99340, Note_on_c, 4, 60, 0
1, 99340, Note_on_c, 4, 64, 0
1, 99358, Note_on_c, 9, 57, 81
1, 99360, Note_on_c, 1, 26, 119
1, 99360, Note_on_c, 3, 79, 104
1, 99360, Note_on_c, 4, 57, 1
1, 99360, Note_on_c, 4, 60, 1
1, 99360, Note_on_c, 4, 64, 1
1, 99361, Note_on_c, 9, 40, 126
1, 99362, Note_on_c, 13, 62, 100
1, 99368, Control_c, 12, 11, 53
1, 99372, Pitch_bend_c, 11, 8320
1, 99372, Pitch_bend_c, 12, 8192
1, 99378, Note_on_c, 9, 57, 0
1, 99381, Note_on_c, 9, 40, 0
1, 99414, Pitch_bend_c, 11, 8576
1, 99414, Pitch_bend_c, 12, 8576
1, 99423, Pitch_bend_c, 11, 8704
1, 99423, Pitch_bend_c, 12, 8832
1, 99435, Control_c, 12, 11, 51
1, 99437, Pitch_bend_c, 11, 8960
1, 99437, Pitch_bend_c, 12, 8960
1, 99441, Note_on_c, 13, 62, 0
1, 99446, Pitch_bend_c, 11, 9344
1, 99446, Pitch_bend_c, 12, 9216
1, 99455, Pitch_bend_c, 11, 9600
1, 99455, Pitch_bend_c, 12, 9600
1, 99498, Pitch_bend_c, 11, 9216
1, 99498, Pitch_bend_c, 12, 9344
1, 99500, Note_on_c, 1, 26, 0
1, 99501, Control_c, 12, 11, 48
1, 99507, Pitch_bend_c, 11, 8960
1, 99507, Pitch_bend_c, 12, 8960
1, 99517, Pitch_bend_c, 11, 8832
1, 99517, Pitch_bend_c, 12, 8704
1, 99521, Pitch_bend_c, 11, 8448
1, 99521, Pitch_bend_c, 12, 8576
1, 99525, Pitch_bend_c, 11, 8576
1, 99525, Pitch_bend_c, 12, 8448
1, 99535, Pitch_bend_c, 11, 8320
1, 99535, Pitch_bend_c, 12, 8320
1, 99552, Control_c, 12, 11, 46
1, 99580, Note_on_c, 3, 79, 0
1, 99580, Note_on_c, 4, 57, 0
1, 99580, Note_on_c, 4, 60, 0
1, 99580, Note_on_c, 4, 64, 0
1, 99582, Pitch_bend_c, 11, 7936
1, 99582, Pitch_bend_c, 12, 8064
1, 99600, Note_on_c, 3, 79, 104
1, 99600, Note_on_c, 4, 58, 1
1, 99600, Note_on_c, 4, 62, 1
1, 99600, Note_on_c, 4, 65, 1
1, 99600, Note_on_c, 13, 62, 101
1, 99601, Note_on_c, 1, 26, 113
1, 99601, Pitch_bend_c, 11, 7808
1, 99601, Pitch_bend_c, 12, 7680
1, 99610, Pitch_bend_c, 11, 7424
1, 99610, Pitch_bend_c, 12, 7552
1, 99652, Pitch_bend_c, 11, 7680
1, 99652, Pitch_bend_c, 12, 7680
1, 99658, Control_c, 12, 11, 47
1, 99666, Pitch_bend_c, 11, 8064
1, 99666, Pitch_bend_c, 12, 7936
1, 99671, Pitch_bend_c, 11, 8320
1, 99671, Pitch_bend_c, 12, 8320
1, 99673, Note_on_c, 13, 62, 0
1, 99713, Pitch_bend_c, 11, 8192
1, 99713, Pitch_bend_c, 12, 8320
1, 99721, Note_on_c, 13, 62, 64
1, 99722, Pitch_bend_c, 11, 8704
1, 99722, Pitch_bend_c, 12, 8704
1, 99731, Pitch_bend_c, 11, 8832
1, 99731, Pitch_bend_c, 12, 8704
1, 99741, Note_on_c, 1, 26, 0
1, 99773, Note_on_c, 13, 62, 0
1, 99792, Pitch_bend_c, 11, 8832
1, 99792, Pitch_bend_c, 12, 8832
1, 99801, Pitch_bend_c, 11, 8448
1, 99801, Pitch_bend_c, 12, 8576
1, 99816, Pitch_bend_c, 11, 8192
1, 99816, Pitch_bend_c, 12, 8192
1, 99818, Note_on_c, 11, 65, 0
1, 99820, Program_c, 13, 29
1, 99820, Note_on_c, 3, 79, 0
1, 99820, Control_c, 13, 10, 112
1, 99821, Note_on_c, 11, 62, 0
1, 99821, Note_on_c, 12, 65, 0
1, 99822, Note_on_c, 12, 62, 0
1, 99825, Program_c, 11, 29
1, 99825, Control_c, 11, 10, 16
1, 99825, Control_c, 13, 91, 127
1, 99825, Pitch_bend_c, 13, 8070
1, 99829, Note_on_c, 14, 46, 98
1, 99829, Note_on_c, 14, 53, 98
1, 99830, Control_c, 11, 91, 127
1, 99830, Pitch_bend_c, 11, 8320
1, 99830, Pitch_bend_c, 11, 8314
1, 99830, Pitch_bend_c, 12, 8192
1, 99840, Note_on_c, 1, 34, 110
1, 99840, Note_on_c, 3, 77, 105
1, 99841, Note_on_c, 7, 62, 61
1, 99841, Note_on_c, 8, 34, 60
1, 99841, Note_on_c, 9, 36, 127
1, 99842, Note_on_c, 8, 46, 61
1, 99842, Note_on_c, 8, 53, 61
1, 99842, Note_on_c, 9, 49, 70
1, 99842, Control_c, 12, 11, 46
1, 99843, Note_on_c, 6, 69, 61
1, 99849, Note_on_c, 15, 46, 98
1, 99853, Note_on_c, 15, 53, 98
1, 99854, Control_c, 12, 11, 55
1, 99861, Note_on_c, 9, 36, 0
1, 99862, Note_on_c, 9, 49, 0
1, 99866, Control_c, 12, 11, 69
1, 99881, Control_c, 12, 11, 88
1, 99893, Control_c, 12, 11, 113
1, 99906, Control_c, 12, 11, 126
1, 99980, Note_on_c, 1, 34, 0
1, 100030, System_exclusive, 6, 0, 32, 36, 0, 8, 247
1, 100049, Note_on_c, 14, 46, 0
1, 100049, Note_on_c, 14, 53, 0
1, 100069, Note_on_c, 15, 46, 0
1, 100069, Note_on_c, 11, 62, 63
1, 100072, Note_on_c, 14, 53, 99
1, 100073, Note_on_c, 15, 53, 0
1, 100073, Note_on_c, 14, 46, 99
1, 100079, Note_on_c, 1, 34, 116
1, 100079, Note_on_c, 9, 42, 91
1, 100089, Note_on_c, 13, 62, 62
1, 100090, Note_on_c, 15, 53, 99
1, 100091, Note_on_c, 15, 46, 99
1, 100099, Note_on_c, 9, 42, 0
1, 100179, Note_on_c, 1, 34, 0
1, 100201, Note_on_c, 1, 34, 113
1, 100300, Note_on_c, 3, 77, 0
1, 100300, Note_on_c, 4, 58, 0
1, 100300, Note_on_c, 4, 62, 0
1, 100300, Note_on_c, 4, 65, 0
1, 100301, Note_on_c, 1, 34, 0
1, 100310, Note_on_c, 11, 69, 63
1, 100320, Note_on_c, 1, 34, 118
1, 100322, Note_on_c, 9, 40, 126
1, 100323, Note_on_c, 9, 42, 126
1, 100332, Note_on_c, 13, 69, 63
1, 100342, Note_on_c, 9, 40, 0
1, 100343, Note_on_c, 9, 42, 0
1, 100420, Note_on_c, 1, 34, 0
1, 100532, Note_on_c, 14, 53, 0
1, 100533, Note_on_c, 14, 46, 0
1, 100549, Note_on_c, 14, 46, 98
1, 100550, Note_on_c, 15, 53, 0
1, 100551, Note_on_c, 15, 46, 0
1, 100552, Note_on_c, 14, 53, 98
1, 100560, Note_on_c, 1, 34, 119
1, 100560, Note_on_c, 3, 77, 104
1, 100560, Note_on_c, 4, 58, 1
1, 100560, Note_on_c, 4, 62, 1
1, 100560, Note_on_c, 4, 65, 1
1, 100563, Note_on_c, 9, 42, 95
1, 100568, Note_on_c, 15, 46, 98
1, 100572, Note_on_c, 15, 53, 98
1, 100583, Note_on_c, 9, 42, 0
1, 100649, Note_on_c, 14, 46, 0
1, 100652, Note_on_c, 14, 53, 0
1, 100660, Note_on_c, 1, 34, 0
1, 100660, Note_on_c, 3, 77, 0
1, 100660, Note_on_c, 4, 58, 0
1, 100660, Note_on_c, 4, 62, 0
1, 100660, Note_on_c, 4, 65, 0
1, 100668, Note_on_c, 15, 46, 0
1, 100670, Note_on_c, 14, 53, 99
1, 100671, Note_on_c, 14, 46, 98
1, 100672, Note_on_c, 15, 53, 0
1, 100680, Note_on_c, 3, 77, 105
1, 100680, Note_on_c, 4, 57, 1
1, 100680, Note_on_c, 4, 60, 1
1, 100680, Note_on_c, 4, 65, 1
1, 100681, Note_on_c, 1, 34, 113
1, 100692, Note_on_c, 15, 53, 99
1, 100693, Note_on_c, 15, 46, 98
1, 100770, Note_on_c, 11, 69, 0
1, 100770, Note_on_c, 14, 53, 0
1, 100771, Note_on_c, 14, 46, 0
1, 100780, Note_on_c, 3, 77, 0
1, 100780, Note_on_c, 4, 57, 0
1, 100780, Note_on_c, 4, 60, 0
1, 100780, Note_on_c, 4, 65, 0
1, 100781, Note_on_c, 1, 34, 0
1, 100783, Note_on_c, 6, 69, 0
1, 100788, Note_on_c, 11, 67, 62
1, 100788, Note_on_c, 14, 53, 99
1, 100790, Note_on_c, 14, 46, 99
1, 100792, Note_on_c, 13, 69, 0
1, 100792, Note_on_c, 15, 53, 0
1, 100793, Note_on_c, 15, 46, 0
1, 100798, Note_on_c, 9, 42, 126
1, 100800, Note_on_c, 1, 34, 116
1, 100800, Note_on_c, 3, 76, 105
1, 100800, Note_on_c, 4, 57, 1
1, 100800, Note_on_c, 4, 60, 1
1, 100800, Note_on_c, 4, 64, 1
1, 100800, Note_on_c, 6, 67, 61
1, 100801, Note_on_c, 9, 36, 126
1, 100809, Note_on_c, 15, 53, 99
1, 100810, Note_on_c, 15, 46, 99
1, 100812, Note_on_c, 13, 67, 63
1, 100818, Note_on_c, 9, 42, 0
1, 100821, Note_on_c, 9, 36, 0
1, 100940, Note_on_c, 1, 34, 0
1, 101008, Note_on_c, 11, 67, 0
1, 101008, Note_on_c, 14, 53, 0
1, 101010, Note_on_c, 14, 46, 0
1, 101020, Note_on_c, 3, 76, 0
1, 101020, Note_on_c, 4, 57, 0
1, 101020, Note_on_c, 4, 60, 0
1, 101020, Note_on_c, 4, 64, 0
1, 101020, Note_on_c, 6, 67, 0
1, 101029, Note_on_c, 15, 53, 0
1, 101029, Note_on_c, 11, 69, 62
1, 101029, Note_on_c, 14, 46, 98
1, 101029, Note_on_c, 14, 53, 99
1, 101030, Note_on_c, 15, 46, 0
1, 101031, Note_on_c, 11, 72, 63
1, 101032, Note_on_c, 13, 67, 0
1, 101039, Note_on_c, 1, 34, 117
1, 101039, Note_on_c, 6, 72, 60
1, 101040, Note_on_c, 3, 79, 104
1, 101040, Note_on_c, 4, 60, 1
1, 101040, Note_on_c, 4, 64, 1
1, 101040, Note_on_c, 4, 67, 1
1, 101041, Note_on_c, 9, 42, 96
1, 101042, Note_on_c, 6, 69, 60
1, 101050, Note_on_c, 15, 53, 98
1, 101051, Note_on_c, 15, 46, 99
1, 101052, Note_on_c, 13, 69, 62
1, 101053, Note_on_c, 13, 72, 62
1, 101061, Note_on_c, 9, 42, 0
1, 101179, Note_on_c, 1, 34, 0
1, 101249, Note_on_c, 14, 46, 0
1, 101249, Note_on_c, 14, 53, 0
1, 101260, Note_on_c, 3, 79, 0
1, 101260, Note_on_c, 4, 60, 0
1, 101260, Note_on_c, 4, 64, 0
1, 101260, Note_on_c, 4, 67, 0
1, 101270, Note_on_c, 15, 53, 0
1, 101271, Note_on_c, 15, 46, 0
1, 101271, Note_on_c, 14, 53, 98
1, 101272, Note_on_c, 14, 46, 98
1, 101279, Note_on_c, 9, 42, 127
1, 101280, Note_on_c, 3, 77, 105
1, 101280, Note_on_c, 4, 58, 1
1, 101280, Note_on_c, 4, 62, 1
1, 101280, Note_on_c, 4, 65, 1
1, 101282, Note_on_c, 1, 34, 118
1, 101282, Note_on_c, 9, 40, 127
1, 101291, Note_on_c, 15, 46, 98
1, 101291, Note_on_c, 15, 53, 98
1, 101299, Note_on_c, 9, 42, 0
1, 101302, Note_on_c, 9, 40, 0
1, 101422, Note_on_c, 1, 34, 0
1, 101491, Note_on_c, 14, 53, 0
1, 101492, Note_on_c, 14, 46, 0
1, 101509, Note_on_c, 14, 53, 99
1, 101510, Note_on_c, 14, 46, 99
1, 101511, Note_on_c, 15, 46, 0
1, 101511, Note_on_c, 15, 53, 0
1, 101522, Note_on_c, 9, 42, 95
1, 101523, Note_on_c, 1, 34, 112
1, 101528, Note_on_c, 15, 46, 99
1, 101532, Note_on_c, 15, 53, 99
1, 101542, Note_on_c, 9, 42, 0
1, 101590, System_exclusive, 6, 0, 32, 36, 0, 8, 247
1, 101623, Note_on_c, 1, 34, 0
1, 101641, Note_on_c, 1, 34, 111
1, 101729, Note_on_c, 11, 62, 0
1, 101729, Note_on_c, 11, 69, 0
1, 101729, Note_on_c, 14, 53, 0
1, 101730, Note_on_c, 14, 46, 0
1, 101731, Note_on_c, 11, 72, 0
1, 101739, Note_on_c, 6, 72, 0
1, 101740, Note_on_c, 3, 77, 0
1, 101740, Note_on_c, 4, 58, 0
1, 101740, Note_on_c, 4, 62, 0
1, 101740, Note_on_c, 4, 65, 0
1, 101741, Note_on_c, 1, 34, 0
1, 101741, Note_on_c, 8, 34, 0
1, 101742, Note_on_c, 8, 46, 0
1, 101742, Note_on_c, 8, 53, 0
1, 101748, Note_on_c, 15, 46, 0
1, 101749, Note_on_c, 13, 62, 0
1, 101750, Note_on_c, 14, 48, 98
1, 101750, Note_on_c, 14, 55, 98
1, 101752, Note_on_c, 13, 69, 0
1, 101752, Note_on_c, 15, 53, 0
1, 101753, Note_on_c, 13, 72, 0
1, 101759, Note_on_c, 8, 48, 60
1, 101759, Note_on_c, 9, 36, 126
1, 101760, Note_on_c, 1, 36, 111
1, 101760, Note_on_c, 8, 55, 60
1, 101762, Note_on_c, 8, 36, 61
1, 101763, Note_on_c, 9, 42, 126
1, 101770, Note_on_c, 15, 48, 98
1, 101770, Note_on_c, 15, 55, 98
1, 101779, Note_on_c, 9, 36, 0
1, 101783, Note_on_c, 9, 42, 0
1, 101900, Note_on_c, 1, 36, 0
1, 101970, Note_on_c, 14, 48, 0
1, 101970, Note_on_c, 14, 55, 0
1, 101990, Note_on_c, 15, 48, 0
1, 101990, Note_on_c, 15, 55, 0
1, 101990, Note_on_c, 11, 62, 63
1, 101992, Note_on_c, 14, 48, 99
1, 101992, Note_on_c, 14, 55, 99
1, 102000, Note_on_c, 9, 42, 90
1, 102001, Note_on_c, 1, 36, 118
1, 102009, Note_on_c, 15, 48, 99
1, 102011, Note_on_c, 13, 62, 63
1, 102011, Note_on_c, 15, 55, 99
1, 102020, Note_on_c, 9, 42, 0
1, 102101, Note_on_c, 1, 36, 0
1, 102119, Note_on_c, 1, 36, 110
1, 102219, Note_on_c, 1, 36, 0
1, 102230, Note_on_c, 11, 69, 62
1, 102238, Note_on_c, 1, 36, 117
1, 102241, Note_on_c, 9, 40, 127
1, 102243, Note_on_c, 9, 42, 127
1, 102252, Note_on_c, 13, 69, 63
1, 102261, Note_on_c, 9, 40, 0
1, 102263, Note_on_c, 9, 42, 0
1, 102338, Note_on_c, 1, 36, 0
1, 102452, Note_on_c, 14, 48, 0
1, 102452, Note_on_c, 14, 55, 0
1, 102469, Note_on_c, 15, 48, 0
1, 102470, Note_on_c, 14, 55, 98
1, 102471, Note_on_c, 15, 55, 0
1, 102471, Note_on_c, 14, 48, 98
1, 102480, Note_on_c, 3, 77, 104
1, 102480, Note_on_c, 4, 55, 1
1, 102480, Note_on_c, 4, 60, 1
1, 102480, Note_on_c, 4, 65, 1
1, 102481, Note_on_c, 1, 36, 119
1, 102483, Note_on_c, 9, 42, 95
1, 102488, Note_on_c, 15, 55, 98
1, 102493, Note_on_c, 15, 48, 98
1, 102503, Note_on_c, 9, 42, 0
1, 102570, Note_on_c, 14, 55, 0
1, 102571, Note_on_c, 14, 48, 0
1, 102580, Note_on_c, 3, 77, 0
1, 102580, Note_on_c, 4, 55, 0
1, 102580, Note_on_c, 4, 60, 0
1, 102580, Note_on_c, 4, 65, 0
1, 102581, Note_on_c, 1, 36, 0
1, 102588, Note_on_c, 15, 55, 0
1, 102589, Note_on_c, 14, 48, 99
1, 102592, Note_on_c, 14, 55, 98
1, 102593, Note_on_c, 15, 48, 0
1, 102600, Note_on_c, 1, 36, 116
1, 102600, Note_on_c, 3, 77, 104
1, 102600, Note_on_c, 4, 55, 1
1, 102600, Note_on_c, 4, 60, 1
1, 102600, Note_on_c, 4, 65, 1
1, 102609, Note_on_c, 15, 48, 99
1, 102610, Note_on_c, 15, 55, 98
1, 102689, Note_on_c, 14, 48, 0
1, 102690, Note_on_c, 11, 69, 0
1, 102692, Note_on_c, 14, 55, 0
1, 102700, Note_on_c, 1, 36, 0
1, 102700, Note_on_c, 3, 77, 0
1, 102700, Note_on_c, 4, 55, 0
1, 102700, Note_on_c, 4, 60, 0
1, 102700, Note_on_c, 4, 65, 0
1, 102702, Note_on_c, 6, 69, 0
1, 102709, Note_on_c, 15, 48, 0
1, 102710, Note_on_c, 15, 55, 0
1, 102710, Note_on_c, 14, 55, 99
1, 102711, Note_on_c, 11, 67, 62
1, 102711, Note_on_c, 14, 48, 99
1, 102712, Note_on_c, 13, 69, 0
1, 102718, Note_on_c, 6, 67, 61
1, 102720, Note_on_c, 3, 76, 105
1, 102720, Note_on_c, 4, 55, 1
1, 102720, Note_on_c, 4, 60, 1
1, 102720, Note_on_c, 4, 64, 1
1, 102721, Note_on_c, 1, 36, 118
1, 102721, Note_on_c, 9, 36, 127
1, 102722, Note_on_c, 9, 42, 126
1, 102728, Note_on_c, 15, 55, 99
1, 102731, Note_on_c, 13, 67, 62
1, 102731, Note_on_c, 15, 48, 99
1, 102741, Note_on_c, 9, 36, 0
1, 102742, Note_on_c, 9, 42, 0
1, 102861, Note_on_c, 1, 36, 0
1, 102930, Note_on_c, 14, 55, 0
1, 102931, Note_on_c, 11, 67, 0
1, 102931, Note_on_c, 14, 48, 0
1, 102938, Note_on_c, 6, 67, 0
1, 102940, Note_on_c, 3, 76, 0
1, 102940, Note_on_c, 4, 55, 0
1, 102940, Note_on_c, 4, 60, 0
1, 102940, Note_on_c, 4, 64, 0
1, 102948, Note_on_c, 15, 55, 0
1, 102949, Note_on_c, 11, 69, 63
1, 102950, Note_on_c, 14, 48, 98
1, 102951, Note_on_c, 13, 67, 0
1, 102951, Note_on_c, 15, 48, 0
1, 102951, Note_on_c, 11, 72, 62
1, 102952, Note_on_c, 14, 55, 99
1, 102959, Note_on_c, 1, 36, 113
1, 102960, Note_on_c, 3, 76, 105
1, 102960, Note_on_c, 4, 55, 1
1, 102960, Note_on_c, 4, 60, 1
1, 102960, Note_on_c, 4, 64, 1
1, 102961, Note_on_c, 6, 72, 61
1, 102961, Note_on_c, 9, 42, 96
1, 102962, Note_on_c, 6, 69, 60
1, 102963, Note_on_c, 9, 36, 127
1, 102968, Note_on_c, 13, 72, 62
1, 102969, Note_on_c, 15, 48, 98
1, 102970, Note_on_c, 13, 69, 63
1, 102973, Note_on_c, 15, 55, 99
1, 102981, Note_on_c, 9, 42, 0
1, 102983, Note_on_c, 9, 36, 0
1, 103099, Note_on_c, 1, 36, 0
1, 103180, Note_on_c, 3, 76, 0
1, 103180, Note_on_c, 4, 55, 0
1, 103180, Note_on_c, 4, 60, 0
1, 103180, Note_on_c, 4, 64, 0
1, 103199, Note_on_c, 1, 36, 118
1, 103200, Note_on_c, 3, 76, 104
1, 103200, Note_on_c, 4, 55, 1
1, 103200, Note_on_c, 4, 60, 1
1, 103200, Note_on_c, 4, 64, 1
1, 103200, Note_on_c, 9, 42, 127
1, 103202, Note_on_c, 9, 40, 126
1, 103220, Note_on_c, 9, 42, 0
1, 103222, Note_on_c, 9, 40, 0
1, 103339, Note_on_c, 1, 36, 0
1, 103410, Note_on_c, 14, 48, 0
1, 103412, Note_on_c, 14, 55, 0
1, 103420, Note_on_c, 3, 76, 0
1, 103420, Note_on_c, 4, 55, 0
1, 103420, Note_on_c, 4, 60, 0
1, 103420, Note_on_c, 4, 64, 0
1, 103429, Note_on_c, 15, 48, 0
1, 103431, Note_on_c, 14, 55, 98
1, 103432, Note_on_c, 14, 48, 98
1, 103433, Note_on_c, 15, 55, 0
1, 103440, Note_on_c, 3, 76, 104
1, 103440, Note_on_c, 4, 55, 1
1, 103440, Note_on_c, 4, 60, 1
1, 103440, Note_on_c, 4, 64, 1
1, 103441, Note_on_c, 1, 36, 117
1, 103442, Note_on_c, 9, 42, 94
1, 103450, Note_on_c, 15, 48, 98
1, 103450, Note_on_c, 15, 55, 98
1, 103462, Note_on_c, 9, 42, 0
1, 103531, Note_on_c, 14, 55, 0
1, 103532, Note_on_c, 14, 48, 0
1, 103540, Note_on_c, 3, 76, 0
1, 103540, Note_on_c, 4, 55, 0
1, 103540, Note_on_c, 4, 60, 0
1, 103540, Note_on_c, 4, 64, 0
1, 103541, Note_on_c, 1, 36, 0
1, 103549, Note_on_c, 14, 48, 99
1, 103549, Note_on_c, 14, 55, 99
1, 103550, Note_on_c, 15, 48, 0
1, 103550, Note_on_c, 15, 55, 0
1, 103559, Note_on_c, 1, 36, 119
1, 103560, Note_on_c, 3, 77, 105
1, 103560, Note_on_c, 4, 57, 1
1, 103560, Note_on_c, 4, 62, 1
1, 103560, Note_on_c, 4, 65, 1
1, 103569, Note_on_c, 15, 55, 99
1, 103571, Note_on_c, 15, 48, 99
1, 103649, Note_on_c, 11, 69, 0
1, 103649, Note_on_c, 14, 48, 0
1, 103649, Note_on_c, 14, 55, 0
1, 103650, Note_on_c, 11, 62, 0
1, 103651, Note_on_c, 11, 72, 0
1, 103659, Note_on_c, 1, 36, 0
1, 103659, Note_on_c, 8, 48, 0
1, 103660, Note_on_c, 8, 55, 0
1, 103661, Note_on_c, 6, 72, 0
1, 103662, Note_on_c, 8, 36, 0
1, 103668, Note_on_c, 13, 72, 0
1, 103669, Note_on_c, 15, 55, 0
1, 103669, Note_on_c, 14, 57, 98
1, 103670, Note_on_c, 13, 69, 0
1, 103670, Note_on_c, 14, 50, 98
1, 103671, Note_on_c, 13, 62, 0
1, 103671, Note_on_c, 15, 48, 0
1, 103679, Note_on_c, 8, 57, 61
1, 103679, Note_on_c, 9, 36, 126
1, 103680, Note_on_c, 1, 26, 118
1, 103681, Note_on_c, 8, 38, 60
1, 103681, Note_on_c, 8, 50, 60
1, 103681, Note_on_c, 9, 42, 127
1, 103689, Note_on_c, 15, 50, 98
1, 103692, Note_on_c, 15, 57, 98
1, 103699, Note_on_c, 9, 36, 0
1, 103701, Note_on_c, 9, 42, 0
1, 103780, Note_on_c, 3, 77, 0
1, 103780, System_exclusive, 6, 0, 32, 36, 0, 8, 247
1, 103800, Note_on_c, 3, 74, 105
1, 103820, Note_on_c, 1, 26, 0
1, 103889, Note_on_c, 14, 57, 0
1, 103890, Note_on_c, 14, 50, 0
1, 103900, Note_on_c, 4, 65, 0
1, 103908, Note_on_c, 14, 57, 99
1, 103909, Note_on_c, 15, 50, 0
1, 103910, Note_on_c, 11, 62, 63
1, 103912, Note_on_c, 15, 57, 0
1, 103913, Note_on_c, 14, 50, 99
1, 103918, Note_on_c, 1, 26, 117
1, 103919, Note_on_c, 9, 42, 91
1, 103930, Note_on_c, 15, 57, 99
1, 103931, Note_on_c, 13, 62, 62
1, 103932, Note_on_c, 15, 50, 99
1, 103939, Note_on_c, 9, 42, 0
1, 104018, Note_on_c, 1, 26, 0
1, 104039, Note_on_c, 1, 26, 116
1, 104139, Note_on_c, 1, 26, 0
1, 104140, Note_on_c, 3, 74, 0
1, 104140, Note_on_c, 4, 57, 0
1, 104140, Note_on_c, 4, 62, 0
1, 104150, Note_on_c, 11, 69, 63
1, 104158, Note_on_c, 9, 40, 126
1, 104161, Note_on_c, 1, 26, 116
1, 104161, Note_on_c, 9, 42, 126
1, 104173, Note_on_c, 13, 69, 63
1, 104178, Note_on_c, 9, 40, 0
1, 104181, Note_on_c, 9, 42, 0
1, 104261, Note_on_c, 1, 26, 0
1, 104368, Note_on_c, 14, 57, 0
1, 104373, Note_on_c, 14, 50, 0
1, 104390, Note_on_c, 15, 57, 0
1, 104390, Note_on_c, 14, 50, 98
1, 104390, Note_on_c, 14, 57, 98
1, 104392, Note_on_c, 15, 50, 0
1, 104400, Note_on_c, 1, 26, 113
1, 104400, Note_on_c, 3, 77, 104
1, 104400, Note_on_c, 4, 55, 1
1, 104400, Note_on_c, 4, 60, 1
1, 104400, Note_on_c, 4, 65, 1
1, 104401, Note_on_c, 9, 42, 95
1, 104410, Note_on_c, 15, 57, 98
1, 104412, Note_on_c, 15, 50, 98
1, 104421, Note_on_c, 9, 42, 0
1, 104490, Note_on_c, 14, 50, 0
1, 104490, Note_on_c, 14, 57, 0
1, 104500, Note_on_c, 1, 26, 0
1, 104500, Note_on_c, 3, 77, 0
1, 104500, Note_on_c, 4, 55, 0
1, 104500, Note_on_c, 4, 60, 0
1, 104500, Note_on_c, 4, 65, 0
1, 104508, Note_on_c, 14, 57, 99
1, 104510, Note_on_c, 15, 57, 0
1, 104512, Note_on_c, 15, 50, 0
1, 104513, Note_on_c, 14, 50, 98
1, 104520, Note_on_c, 3, 77, 104
1, 104520, Note_on_c, 4, 55, 1
1, 104520, Note_on_c, 4, 60, 1
1, 104520, Note_on_c, 4, 65, 1
1, 104522, Note_on_c, 1, 26, 115
1, 104531, Note_on_c, 15, 50, 99
1, 104531, Note_on_c, 15, 57, 98
1, 104608, Note_on_c, 14, 57, 0
1, 104610, Note_on_c, 11, 69, 0
1, 104613, Note_on_c, 14, 50, 0
1, 104620, Note_on_c, 3, 77, 0
1, 104620, Note_on_c, 4, 55, 0
1, 104620, Note_on_c, 4, 60, 0
1, 104620, Note_on_c, 4, 65, 0
1, 104622, Note_on_c, 1, 26, 0
1, 104622, Note_on_c, 6, 69, 0
1, 104629, Note_on_c, 14, 50, 99
1, 104631, Note_on_c, 15, 50, 0
1, 104631, Note_on_c, 15, 57, 0
1, 104631, Note_on_c, 11, 67, 62
1, 104632, Note_on_c, 14, 57, 99
1, 104633, Note_on_c, 13, 69, 0
1, 104639, Note_on_c, 9, 42, 126
1, 104640, Note_on_c, 1, 26, 118
1, 104640, Note_on_c, 3, 76, 105
1, 104640, Note_on_c, 4, 55, 1
1, 104640, Note_on_c, 4, 60, 1
1, 104640, Note_on_c, 4, 64, 1
1, 104641, Note_on_c, 9, 36, 126
1, 104642, Note_on_c, 6, 67, 60
1, 104648, Note_on_c, 13, 67, 63
1, 104649, Note_on_c, 15, 57, 99
1, 104650, Note_on_c, 15, 50, 99
1, 104659, Note_on_c, 9, 42, 0
1, 104661, Note_on_c, 9, 36, 0
1, 104780, Note_on_c, 1, 26, 0
1, 104849, Note_on_c, 14, 50, 0
1, 104851, Note_on_c, 11, 67, 0
1, 104852, Note_on_c, 14, 57, 0
1, 104860, Note_on_c, 3, 76, 0
1, 104860, Note_on_c, 4, 55, 0
1, 104860, Note_on_c, 4, 60, 0
1, 104860, Note_on_c, 4, 64, 0
1, 104862, Note_on_c, 6, 67, 0
1, 104868, Note_on_c, 13, 67, 0
1, 104869, Note_on_c, 15, 57, 0
1, 104870, Note_on_c, 15, 50, 0
1, 104870, Note_on_c, 11, 69, 63
1, 104872, Note_on_c, 11, 72, 62
1, 104872, Note_on_c, 14, 57, 98
1, 104873, Note_on_c, 14, 50, 99
1, 104879, Note_on_c, 6, 69, 61
1, 104880, Note_on_c, 3, 79, 104
1, 104880, Note_on_c, 4, 60, 1
1, 104880, Note_on_c, 4, 64, 1
1, 104880, Note_on_c, 4, 67, 1
1, 104880, Note_on_c, 6, 72, 60
1, 104881, Note_on_c, 1, 26, 114
1, 104882, Note_on_c, 9, 42, 96
1, 104888, Note_on_c, 13, 69, 62
1, 104889, Note_on_c, 13, 72, 63
1, 104889, Note_on_c, 15, 50, 98
1, 104892, Note_on_c, 15, 57, 99
1, 104902, Note_on_c, 9, 42, 0
1, 105021, Note_on_c, 1, 26, 0
1, 105100, Note_on_c, 3, 79, 0
1, 105100, Note_on_c, 4, 60, 0
1, 105100, Note_on_c, 4, 64, 0
1, 105100, Note_on_c, 4, 67, 0
1, 105120, Note_on_c, 1, 26, 119
1, 105120, Note_on_c, 3, 77, 105
1, 105120, Note_on_c, 4, 57, 1
1, 105120, Note_on_c, 4, 62, 1
1, 105120, Note_on_c, 4, 65, 1
1, 105122, Note_on_c, 9, 40, 127
1, 105122, Note_on_c, 9, 42, 127
1, 105142, Note_on_c, 9, 40, 0
1, 105142, Note_on_c, 9, 42, 0
1, 105260, Note_on_c, 1, 26, 0
1, 105332, Note_on_c, 14, 57, 0
1, 105333, Note_on_c, 14, 50, 0
1, 105349, Note_on_c, 15, 50, 0
1, 105352, Note_on_c, 15, 57, 0
1, 105352, Note_on_c, 14, 50, 98
1, 105352, Note_on_c, 14, 57, 98
1, 105360, Note_on_c, 9, 42, 95
1, 105363, Note_on_c, 1, 26, 117
1, 105371, Note_on_c, 15, 50, 98
1, 105371, Note_on_c, 15, 57, 98
1, 105380, Note_on_c, 9, 42, 0
1, 105381, System_exclusive, 33, 0, 32, 36, 0, 4, 87, 69, 76, 76, 32, 77, 65, 89, 66, 69, 32, 89, 79, 85, 32, 83, 72, 79, 85, 76, 68, 32, 75, 78, 79, 87, 10, 247
1, 105386, System_exclusive, 24, 0, 32, 36, 0, 5, 74, 85, 83, 84, 32, 72, 79, 87, 32, 73, 84, 32, 70, 69, 69, 76, 83, 10, 247
1, 105391, System_exclusive, 7, 0, 32, 36, 0, 6, 10, 247
1, 105396, System_exclusive, 7, 0, 32, 36, 0, 7, 10, 247
1, 105406, System_exclusive, 6, 0, 32, 36, 0, 8, 247
1, 105452, Note_on_c, 14, 50, 0
1, 105452, Note_on_c, 14, 57, 0
1, 105463, Note_on_c, 1, 26, 0
1, 105470, Note_on_c, 14, 57, 99
1, 105471, Note_on_c, 15, 50, 0
1, 105471, Note_on_c, 15, 57, 0
1, 105472, Note_on_c, 14, 50, 99
1, 105479, Note_on_c, 1, 26, 118
1, 105491, Note_on_c, 15, 50, 99
1, 105493, Note_on_c, 15, 57, 99
1, 105570, Note_on_c, 11, 62, 0
1, 105570, Note_on_c, 11, 69, 0
1, 105570, Note_on_c, 14, 57, 0
1, 105572, Note_on_c, 11, 72, 0
1, 105572, Note_on_c, 14, 50, 0
1, 105579, Note_on_c, 1, 26, 0
1, 105580, Note_on_c, 6, 72, 0
1, 105588, Note_on_c, 13, 69, 0
1, 105589, Note_on_c, 13, 72, 0
1, 105589, Note_on_c, 14, 50, 98
1, 105591, Note_on_c, 13, 62, 0
1, 105591, Note_on_c, 15, 50, 0
1, 105591, Note_on_c, 14, 57, 98
1, 105593, Note_on_c, 15, 57, 0
1, 105599, Note_on_c, 1, 26, 114
1, 105600, Note_on_c, 9, 42, 126
1, 105603, Note_on_c, 9, 36, 127
1, 105610, Note_on_c, 15, 50, 98
1, 105612, Note_on_c, 15, 57, 98
1, 105620, Note_on_c, 9, 42, 0
1, 105623, Note_on_c, 9, 36, 0
1, 105739, Note_on_c, 1, 26, 0
1, 105809, Note_on_c, 14, 50, 0
1, 105811, Note_on_c, 14, 57, 0
1, 105820, Note_on_c, 3, 77, 0
1, 105820, Note_on_c, 4, 57, 0
1, 105820, Note_on_c, 4, 62, 0
1, 105820, Note_on_c, 4, 65, 0
1, 105829, Note_on_c, 11, 62, 62
1, 105830, Note_on_c, 15, 50, 0
1, 105830, Note_on_c, 14, 57, 99
1, 105831, Note_on_c, 14, 50, 99
1, 105832, Note_on_c, 15, 57, 0
1, 105840, Note_on_c, 1, 26, 115
1, 105842, Note_on_c, 9, 42, 90
1, 105848, Note_on_c, 15, 50, 99
1, 105850, Note_on_c, 15, 57, 99
1, 105851, Note_on_c, 13, 62, 62
1, 105862, Note_on_c, 9, 42, 0
1, 105940, Note_on_c, 1, 26, 0
1, 105961, Note_on_c, 1, 26, 118
1, 106061, Note_on_c, 1, 26, 0
1, 106069, Note_on_c, 11, 69, 63
1, 106078, Note_on_c, 1, 26, 113
1, 106080, Note_on_c, 9, 40, 127
1, 106082, Note_on_c, 9, 42, 127
1, 106089, Note_on_c, 13, 69, 62
1, 106100, Note_on_c, 9, 40, 0
1, 106102, Note_on_c, 9, 42, 0
1, 106178, Note_on_c, 1, 26, 0
1, 106290, Note_on_c, 14, 57, 0
1, 106291, Note_on_c, 14, 50, 0
1, 106308, Note_on_c, 15, 50, 0
1, 106308, Note_on_c, 14, 57, 98
1, 106310, Note_on_c, 15, 57, 0
1, 106313, Note_on_c, 14, 50, 98
1, 106318, Note_on_c, 1, 26, 115
1, 106320, Note_on_c, 3, 77, 105
1, 106320, Note_on_c, 4, 57, 1
1, 106320, Note_on_c, 4, 62, 1
1, 106320, Note_on_c, 4, 65, 1
1, 106320, Note_on_c, 9, 42, 95
1, 106328, Note_on_c, 15, 50, 98
1, 106331, Note_on_c, 15, 57, 98
1, 106340, Note_on_c, 9, 42, 0
1, 106408, Note_on_c, 14, 57, 0
1, 106413, Note_on_c, 14, 50, 0
1, 106418, Note_on_c, 1, 26, 0
1, 106428, Note_on_c, 15, 50, 0
1, 106429, Note_on_c, 14, 50, 99
1, 106429, Note_on_c, 14, 57, 98
1, 106431, Note_on_c, 15, 57, 0
1, 106443, Note_on_c, 1, 26, 114
1, 106450, Note_on_c, 15, 57, 99
1, 106452, Note_on_c, 15, 50, 98
1, 106529, Note_on_c, 11, 69, 0
1, 106529, Note_on_c, 14, 50, 0
1, 106529, Note_on_c, 14, 57, 0
1, 106539, Note_on_c, 6, 69, 0
1, 106540, Note_on_c, 3, 77, 0
1, 106540, Note_on_c, 4, 57, 0
1, 106540, Note_on_c, 4, 62, 0
1, 106540, Note_on_c, 4, 65, 0
1, 106543, Note_on_c, 1, 26, 0
1, 106549, Note_on_c, 13, 69, 0
1, 106549, Note_on_c, 14, 57, 99
1, 106550, Note_on_c, 15, 57, 0
1, 106551, Note_on_c, 14, 50, 99
1, 106552, Note_on_c, 15, 50, 0
1, 106552, Note_on_c, 11, 67, 63
1, 106558, Note_on_c, 1, 26, 115
1, 106558, Note_on_c, 9, 42, 126
1, 106559, Note_on_c, 6, 67, 61
1, 106559, Note_on_c, 9, 36, 126
1, 106560, Note_on_c, 3, 76, 104
1, 106560, Note_on_c, 4, 55, 1
1, 106560, Note_on_c, 4, 60, 1
1, 106560, Note_on_c, 4, 64, 1
1, 106568, Note_on_c, 15, 50, 99
1, 106572, Note_on_c, 15, 57, 99
1, 106573, Note_on_c, 13, 67, 63
1, 106578, Note_on_c, 9, 42, 0
1, 106579, Note_on_c, 9, 36, 0
1, 106660, Note_on_c, 3, 76, 0
1, 106660, Note_on_c, 4, 55, 0
1, 106660, Note_on_c, 4, 60, 0
1, 106660, Note_on_c, 4, 64, 0
1, 106680, Note_on_c, 3, 76, 105
1, 106680, Note_on_c, 4, 55, 1
1, 106680, Note_on_c, 4, 60, 1
1, 106680, Note_on_c, 4, 64, 1
1, 106698, Note_on_c, 1, 26, 0
1, 106769, Note_on_c, 14, 57, 0
1, 106771, Note_on_c, 14, 50, 0
1, 106772, Note_on_c, 11, 67, 0
1, 106779, Note_on_c, 6, 67, 0
1, 106788, Note_on_c, 15, 50, 0
1, 106789, Note_on_c, 11, 69, 62
1, 106789, Note_on_c, 11, 72, 62
1, 106789, Note_on_c, 14, 50, 98
1, 106790, Note_on_c, 14, 57, 99
1, 106792, Note_on_c, 15, 57, 0
1, 106793, Note_on_c, 13, 67, 0
1, 106798, Note_on_c, 6, 69, 61
1, 106801, Note_on_c, 1, 26, 112
1, 106801, Note_on_c, 6, 72, 60
1, 106802, Note_on_c, 9, 36, 127
1, 106802, Note_on_c, 9, 42, 96
1, 106808, Note_on_c, 15, 50, 98
1, 106809, Note_on_c, 13, 72, 63
1, 106811, Note_on_c, 15, 57, 99
1, 106813, Note_on_c, 13, 69, 62
1, 106822, Note_on_c, 9, 36, 0
1, 106822, Note_on_c, 9, 42, 0
1, 106900, Note_on_c, 3, 76, 0
1, 106900, Note_on_c, 4, 55, 0
1, 106900, Note_on_c, 4, 60, 0
1, 106900, Note_on_c, 4, 64, 0
1, 106920, Note_on_c, 3, 76, 104
1, 106920, Note_on_c, 4, 55, 1
1, 106920, Note_on_c, 4, 60, 1
1, 106920, Note_on_c, 4, 64, 1
1, 106941, Note_on_c, 1, 26, 0
1, 107041, Note_on_c, 1, 26, 112
1, 107042, Note_on_c, 9, 40, 126
1, 107042, Note_on_c, 9, 42, 127
1, 107062, Note_on_c, 9, 40, 0
1, 107062, Note_on_c, 9, 42, 0
1, 107181, Note_on_c, 1, 26, 0
1, 107249, Note_on_c, 14, 50, 0
1, 107250, Note_on_c, 14, 57, 0
1, 107260, Note_on_c, 3, 76, 0
1, 107260, Note_on_c, 4, 55, 0
1, 107260, Note_on_c, 4, 60, 0
1, 107260, Note_on_c, 4, 64, 0
1, 107268, Note_on_c, 15, 50, 0
1, 107270, Note_on_c, 14, 50, 98
1, 107271, Note_on_c, 15, 57, 0
1, 107272, Note_on_c, 14, 57, 98
1, 107278, Note_on_c, 9, 42, 94
1, 107279, Note_on_c, 1, 26, 113
1, 107280, Note_on_c, 3, 77, 104
1, 107280, Note_on_c, 4, 57, 1
1, 107280, Note_on_c, 4, 62, 1
1, 107280, Note_on_c, 4, 65, 1
1, 107292, Note_on_c, 15, 57, 98
1, 107293, Note_on_c, 15, 50, 98
1, 107298, Note_on_c, 9, 42, 0
1, 107379, Note_on_c, 1, 26, 0
1, 107401, Note_on_c, 1, 26, 111
1, 107489, Note_on_c, 11, 62, 0
1, 107489, Note_on_c, 11, 69, 0
1, 107489, Note_on_c, 11, 72, 0
1, 107490, Note_on_c, 14, 50, 0
1, 107492, Note_on_c, 14, 57, 0
1, 107499, Note_on_c, 8, 57, 0
1, 107500, Note_on_c, 3, 77, 0
1, 107500, Note_on_c, 4, 57, 0
1, 107500, Note_on_c, 4, 62, 0
1, 107500, Note_on_c, 4, 65, 0
1, 107501, Note_on_c, 1, 26, 0
1, 107501, Note_on_c, 6, 72, 0
1, 107501, Note_on_c, 8, 38, 0
1, 107501, Note_on_c, 8, 50, 0
1, 107509, Note_on_c, 13, 72, 0
1, 107510, Note_on_c, 14, 46, 99
1, 107511, Note_on_c, 13, 62, 0
1, 107511, Note_on_c, 14, 53, 99
1, 107512, Note_on_c, 15, 57, 0
1, 107513, Note_on_c, 13, 69, 0
1, 107513, Note_on_c, 15, 50, 0
1, 107519, Note_on_c, 9, 36, 127
1, 107520, Note_on_c, 3, 74, 105
1, 107520, Note_on_c, 4, 53, 1
1, 107520, Note_on_c, 4, 58, 1
1, 107520, Note_on_c, 4, 62, 1
1, 107520, Note_on_c, 8, 46, 61
1, 107520, Note_on_c, 8, 53, 60
1, 107521, Note_on_c, 8, 34, 61
1, 107521, Note_on_c, 9, 49, 71
1, 107522, Note_on_c, 1, 34, 118
1, 107532, Note_on_c, 15, 46, 99
1, 107532, Note_on_c, 15, 53, 99
1, 107539, Note_on_c, 9, 36, 0
1, 107541, Note_on_c, 9, 49, 0
1, 107662, Note_on_c, 1, 34, 0
1, 107710, System_exclusive, 6, 0, 32, 36, 0, 8, 247
1, 107730, Note_on_c, 14, 46, 0
1, 107731, Note_on_c, 14, 53, 0
1, 107749, Note_on_c, 11, 62, 63
1, 107749, Note_on_c, 14, 46, 98
1, 107752, Note_on_c, 15, 46, 0
1, 107752, Note_on_c, 15, 53, 0
1, 107753, Note_on_c, 14, 53, 98
1, 107760, Note_on_c, 1, 34, 112
1, 107761, Note_on_c, 9, 42, 91
1, 107769, Note_on_c, 15, 46, 98
1, 107770, Note_on_c, 15, 53, 98
1, 107771, Note_on_c, 13, 62, 62
1, 107781, Note_on_c, 9, 42, 0
1, 107860, Note_on_c, 1, 34, 0
1, 107860, Note_on_c, 3, 74, 0
1, 107860, Note_on_c, 4, 53, 0
1, 107860, Note_on_c, 4, 58, 0
1, 107860, Note_on_c, 4, 62, 0
1, 107879, Note_on_c, 1, 34, 115
1, 107979, Note_on_c, 1, 34, 0
1, 107992, Note_on_c, 11, 69, 63
1, 108000, Note_on_c, 9, 40, 126
1, 108001, Note_on_c, 1, 34, 117
1, 108002, Note_on_c, 9, 42, 127
1, 108011, Note_on_c, 13, 69, 63
1, 108020, Note_on_c, 9, 40, 0
1, 108022, Note_on_c, 9, 42, 0
1, 108101, Note_on_c, 1, 34, 0
1, 108209, Note_on_c, 14, 46, 0
1, 108213, Note_on_c, 14, 53, 0
1, 108229, Note_on_c, 15, 46, 0
1, 108230, Note_on_c, 15, 53, 0
1, 108230, Note_on_c, 14, 46, 99
1, 108232, Note_on_c, 14, 53, 99
1, 108240, Note_on_c, 3, 77, 105
1, 108240, Note_on_c, 4, 57, 1
1, 108240, Note_on_c, 4, 62, 1
1, 108240, Note_on_c, 4, 65, 1
1, 108240, Note_on_c, 9, 42, 94
1, 108242, Note_on_c, 1, 34, 118
1, 108249, Note_on_c, 15, 46, 99
1, 108251, Note_on_c, 15, 53, 99
1, 108260, Note_on_c, 9, 42, 0
1, 108330, Note_on_c, 14, 46, 0
1, 108332, Note_on_c, 14, 53, 0
1, 108342, Note_on_c, 1, 34, 0
1, 108349, Note_on_c, 15, 46, 0
1, 108350, Note_on_c, 14, 46, 98
1, 108351, Note_on_c, 15, 53, 0
1, 108352, Note_on_c, 14, 53, 98
1, 108361, Note_on_c, 1, 34, 114
1, 108370, Note_on_c, 15, 46, 98
1, 108372, Note_on_c, 15, 53, 98
1, 108450, Note_on_c, 14, 46, 0
1, 108452, Note_on_c, 11, 69, 0
1, 108452, Note_on_c, 14, 53, 0
1, 108458, Note_on_c, 6, 69, 0
1, 108460, Note_on_c, 3, 77, 0
1, 108460, Note_on_c, 4, 57, 0
1, 108460, Note_on_c, 4, 62, 0
1, 108460, Note_on_c, 4, 65, 0
1, 108461, Note_on_c, 1, 34, 0
1, 108469, Note_on_c, 11, 67, 62
1, 108469, Note_on_c, 14, 53, 99
1, 108470, Note_on_c, 15, 46, 0
1, 108471, Note_on_c, 13, 69, 0
1, 108472, Note_on_c, 15, 53, 0
1, 108472, Note_on_c, 14, 46, 98
1, 108480, Note_on_c, 3, 81, 104
1, 108480, Note_on_c, 4, 55, 1
1, 108480, Note_on_c, 4, 60, 1
1, 108480, Note_on_c, 4, 69, 1
1, 108481, Note_on_c, 9, 36, 126
1, 108481, Note_on_c, 9, 42, 127
1, 108483, Note_on_c, 1, 34, 115
1, 108483, Note_on_c, 6, 67, 61
1, 108489, Note_on_c, 15, 46, 99
1, 108491, Note_on_c, 13, 67, 63
1, 108492, Note_on_c, 15, 53, 98
1, 108501, Note_on_c, 9, 36, 0
1, 108501, Note_on_c, 9, 42, 0
1, 108623, Note_on_c, 1, 34, 0
1, 108689, Note_on_c, 11, 67, 0
1, 108689, Note_on_c, 14, 53, 0
1, 108692, Note_on_c, 14, 46, 0
1, 108700, Note_on_c, 3, 81, 0
1, 108700, Note_on_c, 4, 55, 0
1, 108700, Note_on_c, 4, 60, 0
1, 108700, Note_on_c, 4, 69, 0
1, 108703, Note_on_c, 6, 67, 0
1, 108708, Note_on_c, 11, 72, 62
1, 108709, Note_on_c, 15, 46, 0
1, 108710, Note_on_c, 11, 69, 63
1, 108710, Note_on_c, 14, 46, 99
1, 108711, Note_on_c, 13, 67, 0
1, 108711, Note_on_c, 14, 53, 99
1, 108712, Note_on_c, 15, 53, 0
1, 108720, Note_on_c, 3, 79, 104
1, 108720, Note_on_c, 4, 58, 1
1, 108720, Note_on_c, 4, 64, 1
1, 108720, Note_on_c, 4, 67, 1
1, 108720, Note_on_c, 6, 72, 60
1, 108720, Note_on_c, 9, 42, 96
1, 108721, Note_on_c, 1, 34, 118
1, 108723, Note_on_c, 6, 69, 60
1, 108729, Note_on_c, 15, 46, 99
1, 108730, Note_on_c, 13, 72, 62
1, 108730, Note_on_c, 15, 53, 99
1, 108733, Note_on_c, 13, 69, 62
1, 108740, Note_on_c, 9, 42, 0
1, 108861, Note_on_c, 1, 34, 0
1, 108930, Note_on_c, 14, 46, 0
1, 108931, Note_on_c, 14, 53, 0
1, 108940, Note_on_c, 3, 79, 0
1, 108940, Note_on_c, 4, 58, 0
1, 108940, Note_on_c, 4, 64, 0
1, 108940, Note_on_c, 4, 67, 0
1, 108948, Note_on_c, 14, 53, 98
1, 108949, Note_on_c, 15, 46, 0
1, 108949, Note_on_c, 14, 46, 99
1, 108950, Note_on_c, 15, 53, 0
1, 108960, Note_on_c, 3, 79, 105
1, 108960, Note_on_c, 4, 58, 1
1, 108960, Note_on_c, 4, 62, 1
1, 108960, Note_on_c, 4, 67, 1
1, 108960, Note_on_c, 9, 42, 126
1, 108963, Note_on_c, 1, 34, 119
1, 108963, Note_on_c, 9, 40, 127
1, 108969, Note_on_c, 15, 46, 98
1, 108972, Note_on_c, 15, 53, 99
1, 108980, Note_on_c, 9, 42, 0
1, 108983, Note_on_c, 9, 40, 0
1, 109103, Note_on_c, 1, 34, 0
1, 109168, Note_on_c, 14, 53, 0
1, 109169, Note_on_c, 14, 46, 0
1, 109189, Note_on_c, 15, 46, 0
1, 109189, Note_on_c, 14, 46, 98
1, 109192, Note_on_c, 15, 53, 0
1, 109192, Note_on_c, 14, 53, 98
1, 109201, Note_on_c, 1, 34, 117
1, 109201, Note_on_c, 9, 42, 95
1, 109209, Note_on_c, 15, 53, 98
1, 109210, Note_on_c, 15, 46, 98
1, 109221, Note_on_c, 9, 42, 0
1, 109295, System_exclusive, 31, 0, 32, 36, 0, 4, 84, 79, 32, 66, 69, 32, 76, 69, 70, 84, 32, 79, 85, 84, 83, 73, 68, 69, 32, 65, 76, 79, 78, 69, 10, 247
1, 109300, System_exclusive, 31, 0, 32, 36, 0, 5, 84, 79, 32, 66, 69, 32, 76, 69, 70, 84, 32, 79, 85, 84, 83, 73, 68, 69, 32, 65, 76, 79, 78, 69, 10, 247
1, 109301, Note_on_c, 1, 34, 0
1, 109305, System_exclusive, 16, 0, 32, 36, 0, 6, 79, 72, 32, 84, 79, 32, 89, 79, 85, 10, 247
1, 109310, System_exclusive, 7, 0, 32, 36, 0, 7, 10, 247
1, 109318, Note_on_c, 1, 34, 114
1, 109320, System_exclusive, 6, 0, 32, 36, 0, 8, 247
1, 109408, Note_on_c, 11, 72, 0
1, 109409, Note_on_c, 11, 62, 0
1, 109409, Note_on_c, 14, 46, 0
1, 109410, Note_on_c, 11, 69, 0
1, 109412, Note_on_c, 14, 53, 0
1, 109418, Note_on_c, 1, 34, 0
1, 109420, Note_on_c, 6, 72, 0
1, 109420, Note_on_c, 8, 46, 0
1, 109420, Note_on_c, 8, 53, 0
1, 109421, Note_on_c, 8, 34, 0
1, 109429, Note_on_c, 15, 53, 0
1, 109430, Note_on_c, 13, 72, 0
1, 109430, Note_on_c, 15, 46, 0
1, 109431, Note_on_c, 13, 62, 0
1, 109431, Note_on_c, 14, 48, 99
1, 109432, Note_on_c, 14, 55, 99
1, 109433, Note_on_c, 13, 69, 0
1, 109440, Note_on_c, 8, 48, 61
1, 109441, Note_on_c, 9, 36, 127
1, 109441, Note_on_c, 9, 42, 127
1, 109442, Note_on_c, 1, 36, 113
1, 109442, Note_on_c, 8, 36, 60
1, 109442, Note_on_c, 8, 55, 61
1, 109451, Note_on_c, 15, 48, 99
1, 109453, Note_on_c, 15, 55, 99
1, 109461, Note_on_c, 9, 36, 0
1, 109461, Note_on_c, 9, 42, 0
1, 109582, Note_on_c, 1, 36, 0
1, 109651, Note_on_c, 14, 48, 0
1, 109652, Note_on_c, 14, 55, 0
1, 109669, Note_on_c, 14, 48, 98
1, 109671, Note_on_c, 15, 48, 0
1, 109672, Note_on_c, 11, 62, 62
1, 109672, Note_on_c, 14, 55, 98
1, 109673, Note_on_c, 15, 55, 0
1, 109679, Note_on_c, 1, 36, 112
1, 109681, Note_on_c, 9, 42, 90
1, 109689, Note_on_c, 15, 48, 98
1, 109689, Note_on_c, 15, 55, 98
1, 109692, Note_on_c, 13, 62, 63
1, 109701, Note_on_c, 9, 42, 0
1, 109779, Note_on_c, 1, 36, 0
1, 109799, Note_on_c, 1, 36, 116
1, 109899, Note_on_c, 1, 36, 0
1, 109900, Note_on_c, 3, 79, 0
1, 109900, Note_on_c, 4, 58, 0
1, 109900, Note_on_c, 4, 62, 0
1, 109900, Note_on_c, 4, 67, 0
1, 109909, Note_on_c, 11, 69, 63
1, 109922, Note_on_c, 1, 36, 117
1, 109922, Note_on_c, 9, 40, 126
1, 109923, Note_on_c, 9, 42, 126
1, 109931, Note_on_c, 13, 69, 62
1, 109942, Note_on_c, 9, 40, 0
1, 109943, Note_on_c, 9, 42, 0
1, 110022, Note_on_c, 1, 36, 0
1, 110129, Note_on_c, 14, 48, 0
1, 110132, Note_on_c, 14, 55, 0
1, 110149, Note_on_c, 15, 48, 0
1, 110149, Note_on_c, 15, 55, 0
1, 110149, Note_on_c, 14, 55, 99
1, 110151, Note_on_c, 14, 48, 99
1, 110159, Note_on_c, 1, 36, 113
1, 110159, Note_on_c, 9, 42, 95
1, 110160, Note_on_c, 3, 77, 105
1, 110160, Note_on_c, 4, 60, 1
1, 110160, Note_on_c, 4, 65, 1
1, 110168, Note_on_c, 15, 48, 99
1, 110169, Note_on_c, 15, 55, 99
1, 110179, Note_on_c, 9, 42, 0
1, 110249, Note_on_c, 14, 55, 0
1, 110251, Note_on_c, 14, 48, 0
1, 110259, Note_on_c, 1, 36, 0
1, 110260, Note_on_c, 3, 77, 0
1, 110260, Note_on_c, 4, 60, 0
1, 110260, Note_on_c, 4, 65, 0
1, 110268, Note_on_c, 15, 48, 0
1, 110269, Note_on_c, 15, 55, 0
1, 110269, Note_on_c, 14, 48, 98
1, 110272, Note_on_c, 14, 55, 98
1, 110280, Note_on_c, 3, 77, 104
1, 110280, Note_on_c, 4, 60, 1
1, 110280, Note_on_c, 4, 65, 1
1, 110282, Note_on_c, 1, 36, 110
1, 110291, Note_on_c, 15, 48, 98
1, 110291, Note_on_c, 15, 55, 98
1, 110369, Note_on_c, 11, 69, 0
1, 110369, Note_on_c, 14, 48, 0
1, 110372, Note_on_c, 14, 55, 0
1, 110380, Note_on_c, 3, 77, 0
1, 110380, Note_on_c, 4, 60, 0
1, 110380, Note_on_c, 4, 65, 0
1, 110382, Note_on_c, 1, 36, 0
1, 110383, Note_on_c, 6, 69, 0
1, 110390, Note_on_c, 14, 48, 99
1, 110390, Note_on_c, 14, 55, 98
1, 110391, Note_on_c, 13, 69, 0
1, 110391, Note_on_c, 15, 48, 0
1, 110391, Note_on_c, 15, 55, 0
1, 110392, Note_on_c, 11, 67, 63
1, 110398, Note_on_c, 6, 67, 61
1, 110398, Note_on_c, 9, 42, 127
1, 110399, Note_on_c, 1, 36, 118
1, 110400, Note_on_c, 3, 76, 104
1, 110400, Note_on_c, 4, 60, 1
1, 110400, Note_on_c, 4, 64, 1
1, 110400, Note_on_c, 9, 36, 126
1, 110410, Note_on_c, 15, 48, 99
1, 110411, Note_on_c, 13, 67, 63
1, 110412, Note_on_c, 15, 55, 98
1, 110418, Note_on_c, 9, 42, 0
1, 110420, Note_on_c, 9, 36, 0
1, 110539, Note_on_c, 1, 36, 0
1, 110610, Note_on_c, 14, 48, 0
1, 110610, Note_on_c, 14, 55, 0
1, 110612, Note_on_c, 11, 67, 0
1, 110618, Note_on_c, 6, 67, 0
1, 110620, Note_on_c, 3, 76, 0
1, 110620, Note_on_c, 4, 60, 0
1, 110620, Note_on_c, 4, 64, 0
1, 110628, Note_on_c, 11, 69, 62
1, 110630, Note_on_c, 15, 48, 0
1, 110630, Note_on_c, 14, 55, 99
1, 110631, Note_on_c, 13, 67, 0
1, 110632, Note_on_c, 15, 55, 0
1, 110632, Note_on_c, 11, 72, 63
1, 110632, Note_on_c, 14, 48, 99
1, 110638, Note_on_c, 1, 36, 113
1, 110639, Note_on_c, 9, 42, 96
1, 110640, Note_on_c, 3, 76, 105
1, 110640, Note_on_c, 4, 60, 1
1, 110640, Note_on_c, 4, 64, 1
1, 110640, Note_on_c, 9, 36, 126
1, 110642, Note_on_c, 6, 69, 61
1, 110643, Note_on_c, 6, 72, 60
1, 110649, Note_on_c, 13, 69, 63
1, 110649, Note_on_c, 13, 72, 62
1, 110650, Note_on_c, 15, 48, 99
1, 110650, Note_on_c, 15, 55, 99
1, 110659, Note_on_c, 9, 42, 0
1, 110660, Note_on_c, 9, 36, 0
1, 110778, Note_on_c, 1, 36, 0
1, 110860, Note_on_c, 3, 76, 0
1, 110860, Note_on_c, 4, 60, 0
1, 110860, Note_on_c, 4, 64, 0
1, 110880, Note_on_c, 3, 76, 104
1, 110880, Note_on_c, 4, 60, 1
1, 110880, Note_on_c, 4, 64, 1
1, 110881, Note_on_c, 1, 36, 117
1, 110881, Note_on_c, 9, 42, 126
1, 110883, Note_on_c, 9, 40, 127
1, 110901, Note_on_c, 9, 42, 0
1, 110903, Note_on_c, 9, 40, 0
1, 111021, Note_on_c, 1, 36, 0
1, 111090, Note_on_c, 14, 55, 0
1, 111092, Note_on_c, 14, 48, 0
1, 111100, Note_on_c, 3, 76, 0
1, 111100, Note_on_c, 4, 60, 0
1, 111100, Note_on_c, 4, 64, 0
1, 111108, Note_on_c, 14, 48, 98
1, 111110, Note_on_c, 15, 48, 0
1, 111110, Note_on_c, 15, 55, 0
1, 111112, Note_on_c, 14, 55, 99
1, 111118, Note_on_c, 1, 36, 118
1, 111120, Note_on_c, 3, 76, 105
1, 111120, Note_on_c, 4, 57, 1
1, 111120, Note_on_c, 4, 64, 1
1, 111121, Note_on_c, 9, 42, 95
1, 111128, Note_on_c, 15, 55, 98
1, 111130, Note_on_c, 15, 48, 99
1, 111141, Note_on_c, 9, 42, 0
1, 111208, Note_on_c, 14, 48, 0
1, 111212, Note_on_c, 14, 55, 0
1, 111218, Note_on_c, 1, 36, 0
1, 111220, Note_on_c, 3, 76, 0
1, 111220, Note_on_c, 4, 57, 0
1, 111220, Note_on_c, 4, 64, 0
1, 111228, Note_on_c, 15, 55, 0
1, 111229, Note_on_c, 14, 48, 98
1, 111230, Note_on_c, 15, 48, 0
1, 111233, Note_on_c, 14, 55, 98
1, 111240, Note_on_c, 3, 77, 105
1, 111240, Note_on_c, 4, 57, 1
1, 111240, Note_on_c, 4, 65, 1
1, 111241, Note_on_c, 1, 36, 116
1, 111248, Note_on_c, 15, 55, 98
1, 111253, Note_on_c, 15, 48, 98
1, 111328, Note_on_c, 11, 69, 0
1, 111329, Note_on_c, 14, 48, 0
1, 111332, Note_on_c, 11, 62, 0
1, 111332, Note_on_c, 11, 72, 0
1, 111333, Note_on_c, 14, 55, 0
1, 111340, Note_on_c, 8, 48, 0
1, 111341, Note_on_c, 1, 36, 0
1, 111342, Note_on_c, 8, 36, 0
1, 111342, Note_on_c, 8, 55, 0
1, 111343, Note_on_c, 6, 72, 0
1, 111348, Note_on_c, 15, 55, 0
1, 111349, Note_on_c, 13, 69, 0
1, 111349, Note_on_c, 13, 72, 0
1, 111349, Note_on_c, 11, 57, 62
1, 111350, Note_on_c, 11, 69, 62
1, 111352, Note_on_c, 13, 62, 0
1, 111352, Note_on_c, 14, 45, 99
1, 111352, Note_on_c, 14, 52, 99
1, 111353, Note_on_c, 15, 48, 0
1, 111353, Note_on_c, 11, 64, 63
1, 111359, Note_on_c, 7, 64, 60
1, 111359, Note_on_c, 9, 42, 126
1, 111360, Note_on_c, 8, 52, 60
1, 111360, Note_on_c, 9, 36, 127
1, 111362, Note_on_c, 1, 33, 117
1, 111362, Note_on_c, 8, 45, 60
1, 111363, Note_on_c, 8, 33, 61
1, 111369, Note_on_c, 13, 69, 63
1, 111369, Note_on_c, 15, 45, 99
1, 111370, Note_on_c, 13, 64, 62
1, 111370, Note_on_c, 15, 52, 99
1, 111371, Note_on_c, 13, 57, 62
1, 111379, Note_on_c, 9, 42, 0
1, 111380, Note_on_c, 9, 36, 0
1, 111460, System_exclusive, 6, 0, 32, 36, 0, 8, 247
1, 111502, Note_on_c, 1, 33, 0
1, 111569, Note_on_c, 11, 57, 0
1, 111570, Note_on_c, 11, 69, 0
1, 111572, Note_on_c, 14, 45, 0
1, 111572, Note_on_c, 14, 52, 0
1, 111573, Note_on_c, 11, 64, 0
1, 111580, Note_on_c, 3, 77, 0
1, 111580, Note_on_c, 4, 65, 0
1, 111589, Note_on_c, 13, 69, 0
1, 111589, Note_on_c, 15, 45, 0
1, 111589, Note_on_c, 14, 45, 98
1, 111590, Note_on_c, 13, 64, 0
1, 111590, Note_on_c, 15, 52, 0
1, 111590, Note_on_c, 11, 57, 63
1, 111591, Note_on_c, 13, 57, 0
1, 111592, Note_on_c, 14, 52, 98
1, 111593, Note_on_c, 11, 64, 62
1, 111593, Note_on_c, 11, 69, 62
1, 111600, Note_on_c, 3, 74, 104
1, 111600, Note_on_c, 4, 62, 1
1, 111601, Note_on_c, 1, 33, 116
1, 111602, Note_on_c, 9, 42, 91
1, 111610, Note_on_c, 13, 57, 63
1, 111610, Note_on_c, 13, 69, 63
1, 111613, Note_on_c, 13, 64, 62
1, 111613, Note_on_c, 15, 45, 98
1, 111613, Note_on_c, 15, 52, 98
1, 111622, Note_on_c, 9, 42, 0
1, 111701, Note_on_c, 1, 33, 0
1, 111722, Note_on_c, 1, 33, 117
1, 111810, Note_on_c, 11, 57, 0
1, 111813, Note_on_c, 11, 69, 0
1, 111822, Note_on_c, 1, 33, 0
1, 111828, Note_on_c, 11, 69, 63
1, 111829, Note_on_c, 11, 57, 63
1, 111830, Note_on_c, 13, 57, 0
1, 111830, Note_on_c, 13, 69, 0
1, 111839, Note_on_c, 9, 40, 127
1, 111840, Note_on_c, 1, 33, 111
1, 111840, Note_on_c, 9, 42, 127
1, 111849, Note_on_c, 13, 69, 62
1, 111853, Note_on_c, 13, 57, 63
1, 111859, Note_on_c, 9, 40, 0
1, 111860, Note_on_c, 9, 42, 0
1, 111940, Note_on_c, 1, 33, 0
1, 111940, Note_on_c, 3, 74, 0
1, 111940, Note_on_c, 4, 57, 0
1, 111940, Note_on_c, 4, 62, 0
1, 112048, Note_on_c, 11, 69, 0
1, 112049, Note_on_c, 11, 57, 0
1, 112049, Note_on_c, 14, 45, 0
1, 112052, Note_on_c, 14, 52, 0
1, 112053, Note_on_c, 11, 64, 0
1, 112069, Note_on_c, 13, 69, 0
1, 112069, Note_on_c, 11, 57, 62
1, 112069, Note_on_c, 11, 69, 62
1, 112072, Note_on_c, 14, 45, 99
1, 112073, Note_on_c, 13, 57, 0
1, 112073, Note_on_c, 13, 64, 0
1, 112073, Note_on_c, 15, 45, 0
1, 112073, Note_on_c, 15, 52, 0
1, 112073, Note_on_c, 11, 64, 63
1, 112073, Note_on_c, 14, 52, 99
1, 112079, Note_on_c, 9, 42, 94
1, 112080, Note_on_c, 3, 77, 105
1, 112080, Note_on_c, 4, 57, 1
1, 112080, Note_on_c, 4, 65, 1
1, 112083, Note_on_c, 1, 33, 112
1, 112089, Note_on_c, 13, 57, 63
1, 112089, Note_on_c, 15, 52, 99
1, 112091, Note_on_c, 13, 64, 62
1, 112091, Note_on_c, 15, 45, 99
1, 112093, Note_on_c, 13, 69, 62
1, 112099, Note_on_c, 9, 42, 0
1, 112172, Note_on_c, 14, 45, 0
1, 112173, Note_on_c, 14, 52, 0
1, 112180, Note_on_c, 3, 77, 0
1, 112180, Note_on_c, 4, 57, 0
1, 112180, Note_on_c, 4, 65, 0
1, 112183, Note_on_c, 1, 33, 0
1, 112188, Note_on_c, 14, 45, 98
1, 112189, Note_on_c, 15, 52, 0
1, 112189, Note_on_c, 14, 52, 98
1, 112191, Note_on_c, 15, 45, 0
1, 112200, Note_on_c, 3, 77, 104
1, 112200, Note_on_c, 4, 57, 1
1, 112200, Note_on_c, 4, 65, 1
1, 112202, Note_on_c, 1, 33, 117
1, 112208, Note_on_c, 15, 52, 98
1, 112212, Note_on_c, 15, 45, 98
1, 112288, Note_on_c, 14, 45, 0
1, 112289, Note_on_c, 11, 57, 0
1, 112289, Note_on_c, 11, 69, 0
1, 112289, Note_on_c, 14, 52, 0
1, 112293, Note_on_c, 11, 64, 0
1, 112300, Note_on_c, 3, 77, 0
1, 112300, Note_on_c, 4, 57, 0
1, 112300, Note_on_c, 4, 65, 0
1, 112302, Note_on_c, 1, 33, 0
1, 112308, Note_on_c, 15, 52, 0
1, 112309, Note_on_c, 13, 57, 0
1, 112309, Note_on_c, 11, 64, 62
1, 112311, Note_on_c, 13, 64, 0
1, 112311, Note_on_c, 11, 57, 63
1, 112312, Note_on_c, 15, 45, 0
1, 112312, Note_on_c, 11, 69, 63
1, 112312, Note_on_c, 14, 45, 99
1, 112312, Note_on_c, 14, 52, 98
1, 112313, Note_on_c, 13, 69, 0
1, 112320, Note_on_c, 3, 81, 104
1, 112320, Note_on_c, 4, 57, 1
1, 112320, Note_on_c, 4, 69, 1
1, 112321, Note_on_c, 1, 33, 116
1, 112322, Note_on_c, 9, 36, 127
1, 112322, Note_on_c, 9, 42, 127
1, 112329, Note_on_c, 13, 64, 63
1, 112329, Note_on_c, 15, 52, 99
1, 112331, Note_on_c, 13, 57, 62
1, 112332, Note_on_c, 13, 69, 63
1, 112332, Note_on_c, 15, 45, 98
1, 112342, Note_on_c, 9, 36, 0
1, 112342, Note_on_c, 9, 42, 0
1, 112461, Note_on_c, 1, 33, 0
1, 112529, Note_on_c, 11, 64, 0
1, 112531, Note_on_c, 11, 57, 0
1, 112532, Note_on_c, 11, 69, 0
1, 112532, Note_on_c, 14, 45, 0
1, 112532, Note_on_c, 14, 52, 0
1, 112540, Note_on_c, 3, 81, 0
1, 112540, Note_on_c, 4, 57, 0
1, 112540, Note_on_c, 4, 69, 0
1, 112549, Note_on_c, 13, 64, 0
1, 112549, Note_on_c, 15, 52, 0
1, 112549, Note_on_c, 11, 57, 62
1, 112549, Note_on_c, 14, 52, 99
1, 112550, Note_on_c, 11, 64, 63
1, 112551, Note_on_c, 13, 57, 0
1, 112551, Note_on_c, 11, 69, 62
1, 112551, Note_on_c, 14, 45, 99
1, 112552, Note_on_c, 13, 69, 0
1, 112552, Note_on_c, 15, 45, 0
1, 112560, Note_on_c, 3, 79, 105
1, 112560, Note_on_c, 4, 64, 1
1, 112560, Note_on_c, 4, 67, 1
1, 112560, Note_on_c, 9, 42, 96
1, 112562, Note_on_c, 1, 33, 112
1, 112569, Note_on_c, 13, 57, 63
1, 112569, Note_on_c, 15, 45, 99
1, 112571, Note_on_c, 15, 52, 99
1, 112572, Note_on_c, 13, 69, 62
1, 112573, Note_on_c, 13, 64, 63
1, 112580, Note_on_c, 9, 42, 0
1, 112702, Note_on_c, 1, 33, 0
1, 112769, Note_on_c, 11, 57, 0
1, 112770, Note_on_c, 11, 64, 0
1, 112771, Note_on_c, 11, 69, 0
1, 112780, Note_on_c, 3, 79, 0
1, 112780, Note_on_c, 4, 64, 0
1, 112780, Note_on_c, 4, 67, 0
1, 112789, Note_on_c, 13, 57, 0
1, 112790, Note_on_c, 11, 57, 62
1, 112792, Note_on_c, 13, 69, 0
1, 112793, Note_on_c, 13, 64, 0
1, 112793, Note_on_c, 11, 64, 63
1, 112793, Note_on_c, 11, 69, 63
1, 112799, Note_on_c, 1, 33, 115
1, 112800, Note_on_c, 3, 79, 105
1, 112800, Note_on_c, 4, 64, 1
1, 112800, Note_on_c, 4, 67, 1
1, 112802, Note_on_c, 9, 40, 126
1, 112802, Note_on_c, 9, 42, 126
1, 112809, Note_on_c, 13, 64, 62
1, 112810, Note_on_c, 13, 57, 62
1, 112811, Note_on_c, 13, 69, 63
1, 112822, Note_on_c, 9, 40, 0
1, 112822, Note_on_c, 9, 42, 0
1, 112939, Note_on_c, 1, 33, 0
1, 113009, Note_on_c, 14, 52, 0
1, 113010, Note_on_c, 11, 57, 0
1, 113011, Note_on_c, 14, 45, 0
1, 113013, Note_on_c, 11, 64, 0
1, 113013, Note_on_c, 11, 69, 0
1, 113020, Note_on_c, 3, 79, 0
1, 113020, Note_on_c, 4, 64, 0
1, 113020, Note_on_c, 4, 67, 0
1, 113029, Note_on_c, 13, 64, 0
1, 113029, Note_on_c, 15, 45, 0
1, 113029, Note_on_c, 11, 57, 62
1, 113030, Note_on_c, 13, 57, 0
1, 113030, Note_on_c, 11, 64, 62
1, 113030, Note_on_c, 14, 45, 98
1, 113030, Note_on_c, 14, 52, 99
1, 113031, Note_on_c, 13, 69, 0
1, 113031, Note_on_c, 15, 52, 0
1, 113031, Note_on_c, 11, 69, 63
1, 113040, Note_on_c, 3, 77, 104
1, 113040, Note_on_c, 4, 64, 1
1, 113040, Note_on_c, 4, 65, 1
1, 113041, Note_on_c, 1, 33, 117
1, 113043, Note_on_c, 9, 42, 95
1, 113048, Note_on_c, 13, 57, 63
1, 113051, Note_on_c, 13, 64, 62
1, 113052, Note_on_c, 13, 69, 62
1, 113052, Note_on_c, 15, 45, 98
1, 113052, Note_on_c, 15, 52, 99
1, 113063, Note_on_c, 9, 42, 0
1, 113130, Note_on_c, 14, 45, 0
1, 113130, Note_on_c, 14, 52, 0
1, 113140, Note_on_c, 3, 77, 0
1, 113140, Note_on_c, 4, 64, 0
1, 113140, Note_on_c, 4, 65, 0
1, 113141, Note_on_c, 1, 33, 0
1, 113148, Note_on_c, 14, 52, 98
1, 113151, Note_on_c, 14, 45, 98
1, 113152, Note_on_c, 15, 45, 0
1, 113152, Note_on_c, 15, 52, 0
1, 113160, Note_on_c, 3, 81, 104
1, 113160, Note_on_c, 4, 64, 1
1, 113160, Note_on_c, 4, 69, 1
1, 113163, Note_on_c, 1, 33, 116
1, 113173, Note_on_c, 15, 45, 98
1, 113173, Note_on_c, 15, 52, 98
1, 113248, Note_on_c, 14, 52, 0
1, 113249, Note_on_c, 11, 57, 0
1, 113250, Note_on_c, 11, 64, 0
1, 113251, Note_on_c, 11, 69, 0
1, 113251, Note_on_c, 14, 45, 0
1, 113261, Note_on_c, 7, 62, 0
1, 113263, Note_on_c, 1, 33, 0
1, 113268, Note_on_c, 13, 57, 0
1, 113268, Note_on_c, 11, 57, 63
1, 113270, Note_on_c, 11, 64, 62
1, 113270, Note_on_c, 14, 52, 99
1, 113271, Note_on_c, 13, 64, 0
1, 113272, Note_on_c, 13, 69, 0
1, 113272, Note_on_c, 11, 69, 62
1, 113272, Note_on_c, 14, 45, 99
1, 113273, Note_on_c, 15, 45, 0
1, 113273, Note_on_c, 15, 52, 0
1, 113279, Note_on_c, 9, 36, 126
1, 113280, Note_on_c, 1, 33, 116
1, 113282, Note_on_c, 7, 61, 61
1, 113283, Note_on_c, 9, 42, 127
1, 113289, Note_on_c, 15, 52, 99
1, 113290, Note_on_c, 13, 64, 63
1, 113291, Note_on_c, 13, 69, 63
1, 113292, Note_on_c, 13, 57, 62
1, 113292, Note_on_c, 15, 45, 99
1, 113299, Note_on_c, 9, 36, 0
1, 113303, Note_on_c, 9, 42, 0
1, 113380, Note_on_c, 3, 81, 0
1, 113380, Note_on_c, 4, 69, 0
1, 113400, Note_on_c, 3, 79, 105
1, 113400, Note_on_c, 4, 67, 1
1, 113420, Note_on_c, 1, 33, 0
1, 113488, Note_on_c, 11, 57, 0
1, 113490, Note_on_c, 11, 64, 0
1, 113490, Note_on_c, 14, 52, 0
1, 113492, Note_on_c, 11, 69, 0
1, 113492, Note_on_c, 14, 45, 0
1, 113500, System_exclusive, 6, 0, 32, 36, 0, 8, 247
1, 113509, Note_on_c, 15, 52, 0
1, 113509, Note_on_c, 14, 52, 98
1, 113510, Note_on_c, 13, 64, 0
1, 113510, Note_on_c, 11, 64, 63
1, 113511, Note_on_c, 13, 69, 0
1, 113511, Note_on_c, 14, 45, 98
1, 113512, Note_on_c, 13, 57, 0
1, 113512, Note_on_c, 15, 45, 0
1, 113512, Note_on_c, 11, 57, 62
1, 113512, Note_on_c, 11, 69, 63
1, 113523, Note_on_c, 1, 33, 119
1, 113523, Note_on_c, 9, 42, 90
1, 113529, Note_on_c, 15, 52, 98
1, 113531, Note_on_c, 13, 69, 62
1, 113532, Note_on_c, 13, 57, 63
1, 113532, Note_on_c, 13, 64, 62
1, 113532, Note_on_c, 15, 45, 98
1, 113543, Note_on_c, 9, 42, 0
1, 113623, Note_on_c, 1, 33, 0
1, 113640, Note_on_c, 1, 33, 119
1, 113730, Note_on_c, 11, 64, 0
1, 113732, Note_on_c, 11, 57, 0
1, 113732, Note_on_c, 11, 69, 0
1, 113740, Note_on_c, 1, 33, 0
1, 113749, Note_on_c, 11, 64, 63
1, 113751, Note_on_c, 13, 69, 0
1, 113751, Note_on_c, 11, 69, 62
1, 113752, Note_on_c, 13, 57, 0
1, 113752, Note_on_c, 13, 64, 0
1, 113752, Note_on_c, 11, 57, 63
1, 113759, Note_on_c, 9, 40, 127
1, 113763, Note_on_c, 1, 33, 112
1, 113763, Note_on_c, 9, 42, 126
1, 113770, Note_on_c, 13, 57, 63
1, 113770, Note_on_c, 13, 69, 63
1, 113772, Note_on_c, 13, 64, 62
1, 113779, Note_on_c, 9, 40, 0
1, 113783, Note_on_c, 9, 42, 0
1, 113860, Note_on_c, 3, 79, 0
1, 113860, Note_on_c, 4, 64, 0
1, 113860, Note_on_c, 4, 67, 0
1, 113863, Note_on_c, 1, 33, 0
1, 113969, Note_on_c, 11, 64, 0
1, 113969, Note_on_c, 14, 52, 0
1, 113971, Note_on_c, 11, 69, 0
1, 113971, Note_on_c, 14, 45, 0
1, 113972, Note_on_c, 11, 57, 0
1, 113988, Note_on_c, 14, 45, 99
1, 113989, Note_on_c, 15, 52, 0
1, 113989, Note_on_c, 11, 57, 62
1, 113990, Note_on_c, 13, 57, 0
1, 113990, Note_on_c, 13, 69, 0
1, 113991, Note_on_c, 11, 64, 62
1, 113991, Note_on_c, 14, 52, 99
1, 113992, Note_on_c, 13, 64, 0
1, 113992, Note_on_c, 15, 45, 0
1, 113992, Note_on_c, 11, 69, 63
1, 114000, Note_on_c, 1, 33, 114
1, 114002, Note_on_c, 9, 42, 95
1, 114009, Note_on_c, 13, 64, 63
1, 114009, Note_on_c, 13, 69, 62
1, 114009, Note_on_c, 15, 45, 99
1, 114011, Note_on_c, 15, 52, 99
1, 114012, Note_on_c, 13, 57, 62
1, 114022, Note_on_c, 9, 42, 0
1, 114088, Note_on_c, 14, 45, 0
1, 114091, Note_on_c, 14, 52, 0
1, 114100, Note_on_c, 1, 33, 0
1, 114108, Note_on_c, 14, 52, 98
1, 114109, Note_on_c, 15, 45, 0
1, 114111, Note_on_c, 15, 52, 0
1, 114112, Note_on_c, 14, 45, 98
1, 114119, Note_on_c, 1, 33, 117
1, 114129, Note_on_c, 15, 45, 98
1, 114130, Note_on_c, 15, 52, 98
1, 114208, Note_on_c, 14, 52, 0
1, 114209, Note_on_c, 11, 57, 0
1, 114211, Note_on_c, 11, 64, 0
1, 114212, Note_on_c, 11, 69, 0
1, 114212, Note_on_c, 14, 45, 0
1, 114219, Note_on_c, 1, 33, 0
1, 114228, Note_on_c, 14, 45, 99
1, 114229, Note_on_c, 13, 64, 0
1, 114229, Note_on_c, 13, 69, 0
1, 114229, Note_on_c, 15, 45, 0
1, 114229, Note_on_c, 11, 57, 63
1, 114229, Note_on_c, 11, 64, 62
1, 114229, Note_on_c, 11, 69, 62
1, 114230, Note_on_c, 15, 52, 0
1, 114231, Note_on_c, 14, 52, 98
1, 114232, Note_on_c, 13, 57, 0
1, 114239, Note_on_c, 1, 33, 110
1, 114239, Note_on_c, 9, 36, 126
1, 114241, Note_on_c, 9, 42, 127
1, 114248, Note_on_c, 15, 52, 99
1, 114249, Note_on_c, 13, 57, 63
1, 114249, Note_on_c, 13, 69, 63
1, 114252, Note_on_c, 15, 45, 98
1, 114253, Note_on_c, 13, 64, 62
1, 114259, Note_on_c, 9, 36, 0
1, 114261, Note_on_c, 9, 42, 0
1, 114360, Note_on_c, 9, 40, 126
1, 114379, Note_on_c, 1, 33, 0
1, 114380, Note_on_c, 9, 40, 0
1, 114448, Note_on_c, 14, 45, 0
1, 114449, Note_on_c, 11, 57, 0
1, 114449, Note_on_c, 11, 64, 0
1, 114449, Note_on_c, 11, 69, 0
1, 114451, Note_on_c, 14, 52, 0
1, 114468, Note_on_c, 15, 52, 0
1, 114469, Note_on_c, 13, 57, 0
1, 114469, Note_on_c, 13, 69, 0
1, 114471, Note_on_c, 11, 57, 63
1, 114471, Note_on_c, 14, 45, 99
1, 114471, Note_on_c, 14, 52, 99
1, 114472, Note_on_c, 15, 45, 0
1, 114473, Note_on_c, 13, 64, 0
1, 114473, Note_on_c, 11, 64, 63
1, 114473, Note_on_c, 11, 69, 62
1, 114479, Note_on_c, 1, 33, 115
1, 114480, Note_on_c, 3, 81, 105
1, 114482, Note_on_c, 9, 42, 96
1, 114489, Note_on_c, 13, 64, 62
1, 114490, Note_on_c, 13, 69, 63
1, 114491, Note_on_c, 15, 45, 99
1, 114492, Note_on_c, 13, 57, 63
1, 114492, Note_on_c, 15, 52, 99
1, 114502, Note_on_c, 9, 42, 0
1, 114602, Note_on_c, 9, 40, 126
1, 114619, Note_on_c, 1, 33, 0
1, 114622, Note_on_c, 9, 40, 0
1, 114691, Note_on_c, 11, 57, 0
1, 114693, Note_on_c, 11, 64, 0
1, 114693, Note_on_c, 11, 69, 0
1, 114700, Note_on_c, 3, 81, 0
1, 114709, Note_on_c, 13, 64, 0
1, 114710, Note_on_c, 13, 69, 0
1, 114710, Note_on_c, 11, 57, 62
1, 114710, Note_on_c, 11, 69, 63
1, 114711, Note_on_c, 11, 64, 62
1, 114712, Note_on_c, 13, 57, 0
1, 114719, Note_on_c, 9, 42, 126
1, 114720, Note_on_c, 3, 79, 104
1, 114721, Note_on_c, 1, 33, 119
1, 114722, Note_on_c, 9, 40, 127
1, 114729, Note_on_c, 13, 57, 62
1, 114730, Note_on_c, 13, 64, 62
1, 114731, Note_on_c, 13, 69, 63
1, 114739, Note_on_c, 9, 42, 0
1, 114742, Note_on_c, 9, 40, 0
1, 114841, Note_on_c, 9, 43, 64
1, 114861, Note_on_c, 1, 33, 0
1, 114861, Note_on_c, 9, 43, 0
1, 114930, Note_on_c, 11, 57, 0
1, 114930, Note_on_c, 11, 69, 0
1, 114931, Note_on_c, 11, 64, 0
1, 114931, Note_on_c, 14, 45, 0
1, 114931, Note_on_c, 14, 52, 0
1, 114940, Note_on_c, 3, 79, 0
1, 114948, Note_on_c, 14, 52, 98
1, 114949, Note_on_c, 13, 57, 0
1, 114949, Note_on_c, 11, 64, 63
1, 114949, Note_on_c, 11, 69, 63
1, 114950, Note_on_c, 13, 64, 0
1, 114950, Note_on_c, 14, 45, 99
1, 114951, Note_on_c, 13, 69, 0
1, 114951, Note_on_c, 15, 45, 0
1, 114951, Note_on_c, 11, 57, 62
1, 114952, Note_on_c, 15, 52, 0
1, 114958, Note_on_c, 9, 42, 95
1, 114959, Note_on_c, 9, 43, 105
1, 114960, Note_on_c, 1, 33, 112
1, 114960, Note_on_c, 3, 77, 104
1, 114969, Note_on_c, 15, 52, 98
1, 114971, Note_on_c, 13, 57, 62
1, 114971, Note_on_c, 13, 69, 63
1, 114971, Note_on_c, 15, 45, 99
1, 114973, Note_on_c, 13, 64, 63
1, 114978, Note_on_c, 9, 42, 0
1, 114979, Note_on_c, 9, 43, 0
1, 115060, Note_on_c, 1, 33, 0
1, 115080, Note_on_c, 1, 33, 117
1, 115149, System_exclusive, 36, 0, 32, 36, 0, 4, 65, 76, 76, 32, 77, 89, 32, 76, 73, 70, 69, 32, 73, 39, 86, 69, 32, 66, 69, 69, 78, 32, 87, 65, 73, 84, 73, 78, 71, 10, 247
1, 115154, System_exclusive, 42, 0, 32, 36, 0, 5, 70, 79, 82, 32, 89, 79, 85, 32, 84, 79, 32, 66, 82, 73, 78, 71, 32, 65, 32, 70, 65, 73, 82, 89, 84, 65, 76, 69, 32, 77, 89, 32, 87, 65, 89, 10, 247
1, 115159, System_exclusive, 7, 0, 32, 36, 0, 6, 10, 247
1, 115164, System_exclusive, 7, 0, 32, 36, 0, 7, 10, 247
1, 115168, Note_on_c, 14, 52, 0
1, 115169, Note_on_c, 11, 64, 0
1, 115169, Note_on_c, 11, 69, 0
1, 115170, Note_on_c, 14, 45, 0
1, 115171, Note_on_c, 11, 57, 0
1, 115174, System_exclusive, 6, 0, 32, 36, 0, 8, 247
1, 115179, Note_on_c, 7, 64, 0
1, 115180, Note_on_c, 1, 33, 0
1, 115180, Note_on_c, 3, 77, 0
1, 115180, Note_on_c, 8, 52, 0
1, 115182, Note_on_c, 6, 69, 0
1, 115182, Note_on_c, 7, 61, 0
1, 115182, Note_on_c, 8, 45, 0
1, 115183, Note_on_c, 8, 33, 0
1, 115189, Note_on_c, 15, 52, 0
1, 115189, Note_on_c, 14, 53, 98
1, 115190, Note_on_c, 11, 62, 61
1, 115191, Note_on_c, 13, 57, 0
1, 115191, Note_on_c, 13, 69, 0
1, 115191, Note_on_c, 15, 45, 0
1, 115191, Note_on_c, 11, 58, 60
1, 115191, Note_on_c, 14, 46, 98
1, 115192, Note_on_c, 11, 65, 60
1, 115193, Note_on_c, 13, 64, 0
1, 115199, Note_on_c, 8, 53, 61
1, 115200, Note_on_c, 1, 34, 114
1, 115200, Note_on_c, 3, 82, 105
1, 115201, Note_on_c, 7, 58, 60
1, 115201, Note_on_c, 7, 62, 60
1, 115201, Note_on_c, 8, 46, 60
1, 115201, Note_on_c, 9, 36, 127
1, 115201, Note_on_c, 9, 49, 71
1, 115202, Note_on_c, 7, 65, 61
1, 115203, Note_on_c, 8, 34, 60
1, 115208, Note_on_c, 13, 65, 60
1, 115210, Note_on_c, 15, 53, 98
1, 115211, Note_on_c, 13, 58, 61
1, 115211, Note_on_c, 13, 62, 60
1, 115211, Note_on_c, 15, 46, 98
1, 115221, Note_on_c, 9, 36, 0
1, 115221, Note_on_c, 9, 49, 0
1, 115340, Note_on_c, 1, 34, 0
1, 115409, Note_on_c, 14, 53, 0
1, 115410, Note_on_c, 11, 62, 0
1, 115411, Note_on_c, 11, 58, 0
1, 115411, Note_on_c, 14, 46, 0
1, 115412, Note_on_c, 11, 65, 0
1, 115428, Note_on_c, 13, 65, 0
1, 115428, Note_on_c, 11, 58, 61
1, 115428, Note_on_c, 11, 65, 61
1, 115429, Note_on_c, 14, 53, 99
1, 115430, Note_on_c, 15, 53, 0
1, 115430, Note_on_c, 11, 62, 60
1, 115431, Note_on_c, 13, 58, 0
1, 115431, Note_on_c, 13, 62, 0
1, 115431, Note_on_c, 15, 46, 0
1, 115432, Note_on_c, 14, 46, 99
1, 115439, Note_on_c, 1, 34, 116
1, 115442, Note_on_c, 9, 42, 90
1, 115450, Note_on_c, 13, 65, 60
1, 115450, Note_on_c, 15, 46, 99
1, 115452, Note_on_c, 13, 58, 61
1, 115452, Note_on_c, 13, 62, 61
1, 115452, Note_on_c, 15, 53, 99
1, 115462, Note_on_c, 9, 42, 0
1, 115539, Note_on_c, 1, 34, 0
1, 115563, Note_on_c, 1, 34, 113
1, 115648, Note_on_c, 11, 58, 0
1, 115648, Note_on_c, 11, 65, 0
1, 115650, Note_on_c, 11, 62, 0
1, 115660, Note_on_c, 3, 82, 0
1, 115663, Note_on_c, 1, 34, 0
1, 115668, Note_on_c, 11, 62, 60
1, 115670, Note_on_c, 13, 65, 0
1, 115670, Note_on_c, 11, 58, 61
1, 115670, Note_on_c, 11, 65, 61
1, 115672, Note_on_c, 13, 58, 0
1, 115672, Note_on_c, 13, 62, 0
1, 115679, Note_on_c, 1, 34, 115
1, 115680, Note_on_c, 3, 82, 104
1, 115680, Note_on_c, 9, 40, 127
1, 115681, Note_on_c, 9, 42, 127
1, 115691, Note_on_c, 13, 58, 60
1, 115692, Note_on_c, 13, 62, 60
1, 115693, Note_on_c, 13, 65, 61
1, 115700, Note_on_c, 9, 40, 0
1, 115701, Note_on_c, 9, 42, 0
1, 115779, Note_on_c, 1, 34, 0
1, 115888, Note_on_c, 11, 62, 0
1, 115889, Note_on_c, 14, 53, 0
1, 115890, Note_on_c, 11, 58, 0
1, 115890, Note_on_c, 11, 65, 0
1, 115892, Note_on_c, 14, 46, 0
1, 115908, Note_on_c, 11, 65, 60
1, 115909, Note_on_c, 11, 58, 60
1, 115909, Note_on_c, 14, 46, 98
1, 115910, Note_on_c, 15, 46, 0
1, 115911, Note_on_c, 13, 58, 0
1, 115912, Note_on_c, 13, 62, 0
1, 115912, Note_on_c, 15, 53, 0
1, 115912, Note_on_c, 14, 53, 98
1, 115913, Note_on_c, 13, 65, 0
1, 115913, Note_on_c, 11, 62, 61
1, 115922, Note_on_c, 1, 34, 110
1, 115922, Note_on_c, 9, 42, 95
1, 115929, Note_on_c, 13, 62, 61
1, 115929, Note_on_c, 15, 46, 98
1, 115930, Note_on_c, 15, 53, 98
1, 115931, Note_on_c, 13, 58, 60
1, 115933, Note_on_c, 13, 65, 60
1, 115942, Note_on_c, 9, 42, 0
1, 116009, Note_on_c, 14, 46, 0
1, 116012, Note_on_c, 14, 53, 0
1, 116022, Note_on_c, 1, 34, 0
1, 116028, Note_on_c, 14, 53, 99
1, 116029, Note_on_c, 15, 46, 0
1, 116030, Note_on_c, 15, 53, 0
1, 116032, Note_on_c, 14, 46, 99
1, 116039, Note_on_c, 1, 34, 118
1, 116050, Note_on_c, 15, 46, 99
1, 116053, Note_on_c, 15, 53, 99
1, 116128, Note_on_c, 11, 65, 0
1, 116128, Note_on_c, 14, 53, 0
1, 116129, Note_on_c, 11, 58, 0
1, 116132, Note_on_c, 14, 46, 0
1, 116133, Note_on_c, 11, 62, 0
1, 116139, Note_on_c, 1, 34, 0
1, 116140, Note_on_c, 3, 82, 0
1, 116149, Note_on_c, 13, 62, 0
1, 116149, Note_on_c, 14, 46, 98
1, 116150, Note_on_c, 15, 46, 0
1, 116150, Note_on_c, 11, 58, 60
1, 116150, Note_on_c, 11, 62, 61
1, 116151, Note_on_c, 13, 58, 0
1, 116152, Note_on_c, 14, 53, 98
1, 116153, Note_on_c, 13, 65, 0
1, 116153, Note_on_c, 15, 53, 0
1, 116153, Note_on_c, 11, 65, 61
1, 116159, Note_on_c, 1, 34, 117
1, 116159, Note_on_c, 9, 36, 127
1, 116160, Note_on_c, 3, 82, 105
1, 116161, Note_on_c, 9, 42, 126
1, 116168, Note_on_c, 13, 58, 61
1, 116170, Note_on_c, 13, 62, 60
1, 116170, Note_on_c, 13, 65, 61
1, 116170, Note_on_c, 15, 46, 98
1, 116170, Note_on_c, 15, 53, 98
1, 116179, Note_on_c, 9, 36, 0
1, 116181, Note_on_c, 9, 42, 0
1, 116299, Note_on_c, 1, 34, 0
1, 116369, Note_on_c, 14, 46, 0
1, 116370, Note_on_c, 11, 58, 0
1, 116370, Note_on_c, 11, 62, 0
1, 116372, Note_on_c, 14, 53, 0
1, 116373, Note_on_c, 11, 65, 0
1, 116380, Note_on_c, 3, 82, 0
1, 116388, Note_on_c, 13, 58, 0
1, 116388, Note_on_c, 11, 58, 60
1, 116390, Note_on_c, 13, 62, 0
1, 116390, Note_on_c, 13, 65, 0
1, 116390, Note_on_c, 15, 46, 0
1, 116390, Note_on_c, 15, 53, 0
1, 116390, Note_on_c, 11, 62, 61
1, 116391, Note_on_c, 11, 65, 60
1, 116391, Note_on_c, 14, 46, 99
1, 116392, Note_on_c, 14, 53, 98
1, 116400, Note_on_c, 1, 34, 117
1, 116400, Note_on_c, 3, 81, 105
1, 116401, Note_on_c, 9, 42, 97
1, 116410, Note_on_c, 13, 62, 61
1, 116410, Note_on_c, 15, 53, 99
1, 116411, Note_on_c, 13, 58, 60
1, 116411, Note_on_c, 15, 46, 98
1, 116413, Note_on_c, 13, 65, 61
1, 116421, Note_on_c, 9, 42, 0
1, 116540, Note_on_c, 1, 34, 0
1, 116608, Note_on_c, 11, 58, 0
1, 116610, Note_on_c, 11, 62, 0
1, 116611, Note_on_c, 11, 65, 0
1, 116611, Note_on_c, 14, 46, 0
1, 116612, Note_on_c, 14, 53, 0
1, 116620, Note_on_c, 3, 81, 0
1, 116629, Note_on_c, 11, 65, 60
1, 116630, Note_on_c, 13, 62, 0
1, 116630, Note_on_c, 15, 53, 0
1, 116630, Note_on_c, 11, 62, 61
1, 116631, Note_on_c, 13, 58, 0
1, 116631, Note_on_c, 15, 46, 0
1, 116632, Note_on_c, 11, 58, 61
1, 116632, Note_on_c, 14, 46, 99
1, 116633, Note_on_c, 13, 65, 0
1, 116633, Note_on_c, 14, 53, 99
1, 116639, Note_on_c, 9, 42, 126
1, 116640, Note_on_c, 3, 79, 104
1, 116640, Note_on_c, 9, 40, 126
1, 116642, Note_on_c, 1, 34, 116
1, 116650, Note_on_c, 13, 58, 60
1, 116650, Note_on_c, 15, 53, 99
1, 116651, Note_on_c, 15, 46, 99
1, 116652, Note_on_c, 13, 62, 60
1, 116652, Note_on_c, 13, 65, 61
1, 116659, Note_on_c, 9, 42, 0
1, 116660, Note_on_c, 9, 40, 0
1, 116782, Note_on_c, 1, 34, 0
1, 116849, Note_on_c, 11, 65, 0
1, 116850, Note_on_c, 11, 62, 0
1, 116852, Note_on_c, 11, 58, 0
1, 116852, Note_on_c, 14, 46, 0
1, 116853, Note_on_c, 14, 53, 0
1, 116860, Note_on_c, 3, 79, 0
1, 116868, Note_on_c, 11, 62, 60
1, 116869, Note_on_c, 11, 65, 60
1, 116869, Note_on_c, 14, 46, 98
1, 116870, Note_on_c, 13, 58, 0
1, 116870, Note_on_c, 15, 53, 0
1, 116870, Note_on_c, 14, 53, 99
1, 116871, Note_on_c, 15, 46, 0
1, 116871, Note_on_c, 11, 58, 61
1, 116872, Note_on_c, 13, 62, 0
1, 116872, Note_on_c, 13, 65, 0
1, 116880, Note_on_c, 3, 76, 105
1, 116880, Note_on_c, 9, 42, 94
1, 116882, Note_on_c, 1, 34, 118
1, 116889, Note_on_c, 15, 46, 98
1, 116890, Note_on_c, 15, 53, 99
1, 116891, Note_on_c, 13, 62, 61
1, 116891, Note_on_c, 13, 65, 60
1, 116892, Note_on_c, 13, 58, 60
1, 116900, Note_on_c, 9, 42, 0
1, 116982, Note_on_c, 1, 34, 0
1, 117002, Note_on_c, 1, 34, 115
1, 117088, Note_on_c, 11, 62, 0
1, 117089, Note_on_c, 11, 65, 0
1, 117089, Note_on_c, 14, 46, 0
1, 117090, Note_on_c, 14, 53, 0
1, 117091, Note_on_c, 11, 58, 0
1, 117099, Note_on_c, 8, 53, 0
1, 117101, Note_on_c, 7, 58, 0
1, 117101, Note_on_c, 8, 46, 0
1, 117102, Note_on_c, 1, 34, 0
1, 117102, Note_on_c, 7, 65, 0
1, 117103, Note_on_c, 8, 34, 0
1, 117109, Note_on_c, 15, 46, 0
1, 117109, Note_on_c, 14, 48, 98
1, 117110, Note_on_c, 15, 53, 0
1, 117111, Note_on_c, 13, 62, 0
1, 117111, Note_on_c, 13, 65, 0
1, 117111, Note_on_c, 11, 67, 61
1, 117112, Note_on_c, 13, 58, 0
1, 117112, Note_on_c, 11, 62, 60
1, 117112, Note_on_c, 11, 64, 60
1, 117112, Note_on_c, 14, 55, 98
1, 117119, Note_on_c, 7, 64, 61
1, 117120, Note_on_c, 8, 36, 61
1, 117121, Note_on_c, 8, 48, 61
1, 117121, Note_on_c, 9, 42, 127
1, 117122, Note_on_c, 1, 36, 114
1, 117122, Note_on_c, 9, 36, 126
1, 117123, Note_on_c, 8, 55, 60
1, 117129, Note_on_c, 13, 67, 61
1, 117132, Note_on_c, 15, 48, 98
1, 117132, Note_on_c, 15, 55, 98
1, 117133, Note_on_c, 13, 62, 61
1, 117133, Note_on_c, 13, 64, 60
1, 117141, Note_on_c, 9, 42, 0
1, 117142, Note_on_c, 9, 36, 0
1, 117262, Note_on_c, 1, 36, 0
1, 117329, Note_on_c, 14, 48, 0
1, 117331, Note_on_c, 11, 67, 0
1, 117332, Note_on_c, 11, 62, 0
1, 117332, Note_on_c, 11, 64, 0
1, 117332, Note_on_c, 14, 55, 0
1, 117332, System_exclusive, 6, 0, 32, 36, 0, 8, 247
1, 117340, Note_on_c, 3, 76, 0
1, 117349, Note_on_c, 13, 67, 0
1, 117349, Note_on_c, 11, 62, 61
1, 117350, Note_on_c, 11, 64, 60
1, 117350, Note_on_c, 11, 67, 61
1, 117350, Note_on_c, 14, 48, 99
1, 117350, Note_on_c, 14, 55, 99
1, 117352, Note_on_c, 15, 48, 0
1, 117352, Note_on_c, 15, 55, 0
1, 117353, Note_on_c, 13, 62, 0
1, 117353, Note_on_c, 13, 64, 0
1, 117360, Note_on_c, 3, 76, 104
1, 117361, Note_on_c, 9, 42, 91
1, 117363, Note_on_c, 1, 36, 115
1, 117370, Note_on_c, 15, 48, 99
1, 117371, Note_on_c, 15, 55, 99
1, 117372, Note_on_c, 13, 67, 60
1, 117373, Note_on_c, 13, 62, 61
1, 117373, Note_on_c, 13, 64, 60
1, 117381, Note_on_c, 9, 42, 0
1, 117463, Note_on_c, 1, 36, 0
1, 117481, Note_on_c, 1, 36, 117
1, 117569, Note_on_c, 11, 62, 0
1, 117570, Note_on_c, 11, 64, 0
1, 117570, Note_on_c, 11, 67, 0
1, 117581, Note_on_c, 1, 36, 0
1, 117581, Note_on_c, 7, 62, 0
1, 117589, Note_on_c, 11, 64, 61
1, 117591, Note_on_c, 11, 67, 60
1, 117592, Note_on_c, 13, 67, 0
1, 117592, Note_on_c, 11, 60, 61
1, 117593, Note_on_c, 13, 62, 0
1, 117593, Note_on_c, 13, 64, 0
1, 117599, Note_on_c, 7, 60, 60
1, 117600, Note_on_c, 9, 40, 126
1, 117601, Note_on_c, 9, 42, 126
1, 117602, Note_on_c, 1, 36, 112
1, 117610, Note_on_c, 13, 60, 61
1, 117611, Note_on_c, 13, 67, 61
1, 117612, Note_on_c, 13, 64, 60
1, 117620, Note_on_c, 9, 40, 0
1, 117621, Note_on_c, 9, 42, 0
1, 117702, Note_on_c, 1, 36, 0
1, 117809, Note_on_c, 11, 64, 0
1, 117810, Note_on_c, 14, 48, 0
1, 117810, Note_on_c, 14, 55, 0
1, 117811, Note_on_c, 11, 67, 0
1, 117812, Note_on_c, 11, 60, 0
1, 117820, Note_on_c, 3, 76, 0
1, 117828, Note_on_c, 11, 64, 60
1, 117830, Note_on_c, 13, 60, 0
1, 117830, Note_on_c, 15, 48, 0
1, 117831, Note_on_c, 13, 67, 0
1, 117831, Note_on_c, 15, 55, 0
1, 117831, Note_on_c, 11, 62, 60
1, 117831, Note_on_c, 14, 48, 98
1, 117831, Note_on_c, 14, 55, 98
1, 117832, Note_on_c, 13, 64, 0
1, 117833, Note_on_c, 11, 67, 61
1, 117839, Note_on_c, 1, 36, 115
1, 117840, Note_on_c, 3, 76, 104
1, 117840, Note_on_c, 9, 42, 94
1, 117848, Note_on_c, 13, 62, 61
1, 117849, Note_on_c, 13, 64, 60
1, 117849, Note_on_c, 13, 67, 60
1, 117853, Note_on_c, 15, 48, 98
1, 117853, Note_on_c, 15, 55, 98
1, 117860, Note_on_c, 9, 42, 0
1, 117928, Note_on_c, 11, 64, 0
1, 117931, Note_on_c, 11, 62, 0
1, 117931, Note_on_c, 14, 48, 0
1, 117931, Note_on_c, 14, 55, 0
1, 117933, Note_on_c, 11, 67, 0
1, 117939, Note_on_c, 1, 36, 0
1, 117948, Note_on_c, 13, 62, 0
1, 117949, Note_on_c, 13, 64, 0
1, 117949, Note_on_c, 13, 67, 0
1, 117949, Note_on_c, 11, 64, 61
1, 117949, Note_on_c, 11, 67, 60
1, 117950, Note_on_c, 14, 55, 99
1, 117952, Note_on_c, 11, 62, 60
1, 117952, Note_on_c, 14, 48, 99
1, 117953, Note_on_c, 15, 48, 0
1, 117953, Note_on_c, 15, 55, 0
1, 117960, Note_on_c, 1, 36, 118
1, 117968, Note_on_c, 13, 62, 61
1, 117969, Note_on_c, 15, 48, 99
1, 117971, Note_on_c, 13, 67, 61
1, 117972, Note_on_c, 13, 64, 60
1, 117972, Note_on_c, 15, 55, 99
1, 118049, Note_on_c, 11, 64, 0
1, 118049, Note_on_c, 11, 67, 0
1, 118050, Note_on_c, 14, 55, 0
1, 118052, Note_on_c, 11, 62, 0
1, 118052, Note_on_c, 14, 48, 0
1, 118059, Note_on_c, 7, 60, 0
1, 118060, Note_on_c, 1, 36, 0
1, 118060, Note_on_c, 3, 76, 0
1, 118068, Note_on_c, 13, 62, 0
1, 118069, Note_on_c, 15, 48, 0
1, 118069, Note_on_c, 11, 64, 61
1, 118070, Note_on_c, 11, 67, 61
1, 118071, Note_on_c, 13, 67, 0
1, 118072, Note_on_c, 13, 64, 0
1, 118072, Note_on_c, 15, 55, 0
1, 118072, Note_on_c, 11, 62, 60
1, 118072, Note_on_c, 14, 48, 98
1, 118072, Note_on_c, 14, 55, 98
1, 118079, Note_on_c, 7, 62, 60
1, 118080, Note_on_c, 1, 36, 116
1, 118080, Note_on_c, 3, 76, 105
1, 118080, Note_on_c, 9, 42, 127
1, 118082, Note_on_c, 9, 36, 126
1, 118088, Note_on_c, 15, 48, 98
1, 118089, Note_on_c, 13, 62, 60
1, 118089, Note_on_c, 13, 64, 61
1, 118091, Note_on_c, 13, 67, 61
1, 118092, Note_on_c, 15, 55, 98
1, 118100, Note_on_c, 9, 42, 0
1, 118102, Note_on_c, 9, 36, 0
1, 118220, Note_on_c, 1, 36, 0
1, 118289, Note_on_c, 11, 64, 0
1, 118290, Note_on_c, 11, 67, 0
1, 118292, Note_on_c, 11, 62, 0
1, 118292, Note_on_c, 14, 48, 0
1, 118292, Note_on_c, 14, 55, 0
1, 118299, Note_on_c, 7, 62, 0
1, 118300, Note_on_c, 3, 76, 0
1, 118308, Note_on_c, 15, 48, 0
1, 118308, Note_on_c, 14, 48, 99
1, 118309, Note_on_c, 13, 62, 0
1, 118309, Note_on_c, 13, 64, 0
1, 118311, Note_on_c, 13, 67, 0
1, 118311, Note_on_c, 11, 64, 60
1, 118312, Note_on_c, 15, 55, 0
1, 118312, Note_on_c, 11, 67, 61
1, 118312, Note_on_c, 14, 55, 98
1, 118313, Note_on_c, 11, 60, 60
1, 118319, Note_on_c, 9, 36, 127
1, 118319, Note_on_c, 9, 42, 97
1, 118320, Note_on_c, 3, 77, 105
1, 118321, Note_on_c, 1, 36, 111
1, 118322, Note_on_c, 7, 60, 61
1, 118328, Note_on_c, 13, 67, 60
1, 118329, Note_on_c, 13, 64, 60
1, 118330, Note_on_c, 13, 60, 61
1, 118331, Note_on_c, 15, 55, 99
1, 118332, Note_on_c, 15, 48, 98
1, 118339, Note_on_c, 9, 36, 0
1, 118339, Note_on_c, 9, 42, 0
1, 118461, Note_on_c, 1, 36, 0
1, 118531, Note_on_c, 11, 64, 0
1, 118532, Note_on_c, 11, 67, 0
1, 118533, Note_on_c, 11, 60, 0
1, 118540, Note_on_c, 3, 77, 0
1, 118548, Note_on_c, 13, 67, 0
1, 118548, Note_on_c, 11, 64, 61
1, 118549, Note_on_c, 13, 64, 0
1, 118550, Note_on_c, 13, 60, 0
1, 118550, Note_on_c, 11, 67, 61
1, 118551, Note_on_c, 11, 60, 60
1, 118559, Note_on_c, 1, 36, 113
1, 118559, Note_on_c, 9, 40, 127
1, 118559, Note_on_c, 9, 42, 126
1, 118560, Note_on_c, 3, 79, 104
1, 118570, Note_on_c, 13, 60, 60
1, 118571, Note_on_c, 13, 64, 61
1, 118571, Note_on_c, 13, 67, 61
1, 118579, Note_on_c, 9, 40, 0
1, 118579, Note_on_c, 9, 42, 0
1, 118699, Note_on_c, 1, 36, 0
1, 118768, Note_on_c, 11, 64, 0
1, 118768, Note_on_c, 14, 48, 0
1, 118770, Note_on_c, 11, 67, 0
1, 118771, Note_on_c, 11, 60, 0
1, 118772, Note_on_c, 14, 55, 0
1, 118780, Note_on_c, 3, 79, 0
1, 118789, Note_on_c, 11, 60, 61
1, 118790, Note_on_c, 13, 60, 0
1, 118790, Note_on_c, 11, 64, 60
1, 118790, Note_on_c, 14, 48, 99
1, 118790, Note_on_c, 14, 55, 99
1, 118791, Note_on_c, 13, 64, 0
1, 118791, Note_on_c, 13, 67, 0
1, 118791, Note_on_c, 15, 55, 0
1, 118792, Note_on_c, 15, 48, 0
1, 118792, Note_on_c, 11, 67, 60
1, 118800, Note_on_c, 1, 36, 114
1, 118800, Note_on_c, 3, 82, 104
1, 118801, Note_on_c, 9, 42, 94
1, 118809, Note_on_c, 15, 55, 99
1, 118810, Note_on_c, 13, 64, 60
1, 118810, Note_on_c, 13, 67, 61
1, 118810, Note_on_c, 15, 48, 99
1, 118813, Note_on_c, 13, 60, 60
1, 118821, Note_on_c, 9, 42, 0
1, 118890, Note_on_c, 14, 48, 0
1, 118890, Note_on_c, 14, 55, 0
1, 118900, Note_on_c, 1, 36, 0
1, 118909, Note_on_c, 15, 55, 0
1, 118910, Note_on_c, 15, 48, 0
1, 118910, Note_on_c, 14, 48, 98
1, 118910, Note_on_c, 14, 55, 99
1, 118921, Note_on_c, 1, 36, 112
1, 118930, Note_on_c, 15, 48, 98
1, 118930, Note_on_c, 15, 55, 99
1, 119009, Note_on_c, 11, 60, 0
1, 119010, Note_on_c, 11, 64, 0
1, 119010, Note_on_c, 14, 48, 0
1, 119010, Note_on_c, 14, 55, 0
1, 119012, Note_on_c, 11, 67, 0
1, 119019, Note_on_c, 7, 64, 0
1, 119020, Note_on_c, 8, 36, 0
1, 119021, Note_on_c, 1, 36, 0
1, 119021, Note_on_c, 8, 48, 0
1, 119022, Note_on_c, 7, 60, 0
1, 119023, Note_on_c, 8, 55, 0
1, 119029, Note_on_c, 14, 50, 98
1, 119030, Note_on_c, 13, 64, 0
1, 119030, Note_on_c, 13, 67, 0
1, 119030, Note_on_c, 15, 48, 0
1, 119030, Note_on_c, 15, 55, 0
1, 119030, Note_on_c, 11, 69, 61
1, 119032, Note_on_c, 11, 57, 61
1, 119032, Note_on_c, 11, 62, 60
1, 119032, Note_on_c, 14, 57, 98
1, 119033, Note_on_c, 13, 60, 0
1, 119039, Note_on_c, 8, 38, 60
1, 119041, Note_on_c, 7, 62, 61
1, 119041, Note_on_c, 8, 57, 61
1, 119041, Note_on_c, 9, 36, 126
1, 119042, Note_on_c, 1, 26, 117
1, 119042, Note_on_c, 7, 65, 60
1, 119042, Note_on_c, 8, 50, 60
1, 119042, Note_on_c, 9, 42, 127
1, 119049, Note_on_c, 13, 69, 60
1, 119050, Note_on_c, 13, 57, 61
1, 119050, Note_on_c, 15, 50, 98
1, 119050, Note_on_c, 15, 57, 98
1, 119052, Note_on_c, 13, 62, 61
1, 119061, Note_on_c, 9, 36, 0
1, 119062, Note_on_c, 9, 42, 0
1, 119182, Note_on_c, 1, 26, 0
1, 119249, Note_on_c, 14, 50, 0
1, 119250, Note_on_c, 11, 69, 0
1, 119252, Note_on_c, 11, 57, 0
1, 119252, Note_on_c, 11, 62, 0
1, 119252, Note_on_c, 14, 57, 0
1, 119260, Note_on_c, 3, 82, 0
1, 119269, Note_on_c, 13, 69, 0
1, 119269, Note_on_c, 11, 57, 60
1, 119270, Note_on_c, 13, 57, 0
1, 119270, Note_on_c, 15, 50, 0
1, 119270, Note_on_c, 15, 57, 0
1, 119270, Note_on_c, 11, 69, 61
1, 119270, Note_on_c, 14, 57, 99
1, 119271, Note_on_c, 11, 62, 61
1, 119272, Note_on_c, 13, 62, 0
1, 119272, Note_on_c, 14, 50, 99
1, 119280, Note_on_c, 1, 26, 119
1, 119280, Note_on_c, 3, 81, 105
1, 119281, Note_on_c, 9, 42, 90
1, 119288, Note_on_c, 15, 57, 99
1, 119289, Note_on_c, 15, 50, 99
1, 119291, Note_on_c, 13, 57, 60
1, 119291, Note_on_c, 13, 62, 60
1, 119293, Note_on_c, 13, 69, 61
1, 119301, Note_on_c, 9, 42, 0
1, 119380, Note_on_c, 1, 26, 0
1, 119402, Note_on_c, 1, 26, 112
1, 119489, Note_on_c, 11, 57, 0
1, 119490, Note_on_c, 11, 69, 0
1, 119491, Note_on_c, 11, 62, 0
1, 119502, Note_on_c, 1, 26, 0
1, 119509, Note_on_c, 11, 62, 60
1, 119510, Note_on_c, 11, 57, 60
1, 119510, Note_on_c, 11, 69, 61
1, 119511, Note_on_c, 13, 57, 0
1, 119511, Note_on_c, 13, 62, 0
1, 119513, Note_on_c, 13, 69, 0
1, 119518, Note_on_c, 1, 26, 114
1, 119518, Note_on_c, 9, 42, 127
1, 119522, Note_on_c, 9, 40, 127
1, 119529, Note_on_c, 13, 62, 61
1, 119529, Note_on_c, 13, 69, 60
1, 119533, Note_on_c, 13, 57, 60
1, 119538, Note_on_c, 9, 42, 0
1, 119542, Note_on_c, 9, 40, 0
1, 119618, Note_on_c, 1, 26, 0
1, 119729, Note_on_c, 11, 62, 0
1, 119730, Note_on_c, 11, 57, 0
1, 119730, Note_on_c, 11, 69, 0
1, 119730, Note_on_c, 14, 57, 0
1, 119732, Note_on_c, 14, 50, 0
1, 119740, Note_on_c, 3, 81, 0
1, 119748, Note_on_c, 15, 57, 0
1, 119749, Note_on_c, 13, 62, 0
1, 119749, Note_on_c, 13, 69, 0
1, 119749, Note_on_c, 15, 50, 0
1, 119750, Note_on_c, 11, 57, 60
1, 119751, Note_on_c, 11, 69, 61
1, 119752, Note_on_c, 14, 50, 98
1, 119752, Note_on_c, 14, 57, 98
1, 119753, Note_on_c, 13, 57, 0
1, 119753, Note_on_c, 11, 62, 61
1, 119760, Note_on_c, 3, 81, 105
1, 119761, Note_on_c, 1, 26, 115
1, 119762, Note_on_c, 9, 42, 95
1, 119768, Note_on_c, 13, 57, 61
1, 119769, Note_on_c, 13, 62, 60
1, 119769, Note_on_c, 13, 69, 61
1, 119772, Note_on_c, 15, 50, 98
1, 119772, Note_on_c, 15, 57, 98
1, 119782, Note_on_c, 9, 42, 0
1, 119850, Note_on_c, 11, 57, 0
1, 119851, Note_on_c, 11, 69, 0
1, 119852, Note_on_c, 14, 50, 0
1, 119852, Note_on_c, 14, 57, 0
1, 119853, Note_on_c, 11, 62, 0
1, 119861, Note_on_c, 1, 26, 0
1, 119868, Note_on_c, 13, 57, 0
1, 119869, Note_on_c, 13, 62, 0
1, 119869, Note_on_c, 13, 69, 0
1, 119869, Note_on_c, 11, 62, 60
1, 119870, Note_on_c, 11, 57, 61
1, 119871, Note_on_c, 11, 69, 60
1, 119872, Note_on_c, 15, 50, 0
1, 119872, Note_on_c, 15, 57, 0
1, 119872, Note_on_c, 14, 57, 99
1, 119873, Note_on_c, 14, 50, 99
1, 119882, Note_on_c, 1, 26, 114
1, 119888, Note_on_c, 13, 57, 61
1, 119888, Note_on_c, 13, 62, 60
1, 119891, Note_on_c, 13, 69, 61
1, 119891, Note_on_c, 15, 50, 99
1, 119891, Note_on_c, 15, 57, 99
1, 119969, Note_on_c, 11, 62, 0
1, 119970, Note_on_c, 11, 57, 0
1, 119971, Note_on_c, 11, 69, 0
1, 119972, Note_on_c, 14, 57, 0
1, 119973, Note_on_c, 14, 50, 0
1, 119982, Note_on_c, 1, 26, 0
1, 119988, Note_on_c, 13, 57, 0
1, 119988, Note_on_c, 13, 62, 0
1, 119990, Note_on_c, 11, 57, 60
1, 119991, Note_on_c, 13, 69, 0
1, 119991, Note_on_c, 15, 50, 0
1, 119991, Note_on_c, 15, 57, 0
1, 119992, Note_on_c, 11, 62, 61
1, 119992, Note_on_c, 11, 69, 61
1, 119993, Note_on_c, 14, 50, 98
1, 119993, Note_on_c, 14, 57, 98
1, 119998, Note_on_c, 9, 36, 127
1, 119999, Note_on_c, 9, 42, 126
1, 120002, Note_on_c, 1, 26, 115
1, 120010, Note_on_c, 15, 57, 98
1, 120011, Note_on_c, 13, 57, 60
1, 120011, Note_on_c, 15, 50, 98
1, 120012, Note_on_c, 13, 62, 60
1, 120012, Note_on_c, 13, 69, 61
1, 120018, Note_on_c, 9, 36, 0
1, 120019, Note_on_c, 9, 42, 0
1, 120100, Note_on_c, 3, 81, 0
1, 120120, Note_on_c, 3, 79, 104
1, 120142, Note_on_c, 1, 26, 0
1, 120210, Note_on_c, 11, 57, 0
1, 120212, Note_on_c, 11, 62, 0
1, 120212, Note_on_c, 11, 69, 0
1, 120213, Note_on_c, 14, 50, 0
1, 120213, Note_on_c, 14, 57, 0
1, 120228, Note_on_c, 11, 57, 60
1, 120228, Note_on_c, 14, 57, 99
1, 120229, Note_on_c, 11, 69, 60
1, 120230, Note_on_c, 15, 57, 0
1, 120231, Note_on_c, 13, 57, 0
1, 120231, Note_on_c, 15, 50, 0
1, 120232, Note_on_c, 13, 62, 0
1, 120232, Note_on_c, 13, 69, 0
1, 120232, Note_on_c, 11, 62, 61
1, 120232, Note_on_c, 14, 50, 98
1, 120239, Note_on_c, 1, 26, 113
1, 120241, Note_on_c, 9, 42, 97
1, 120249, Note_on_c, 13, 62, 61
1, 120249, Note_on_c, 13, 69, 60
1, 120250, Note_on_c, 13, 57, 60
1, 120252, Note_on_c, 15, 50, 99
1, 120253, Note_on_c, 15, 57, 98
1, 120261, Note_on_c, 9, 42, 0
1, 120379, Note_on_c, 1, 26, 0
1, 120448, Note_on_c, 11, 57, 0
1, 120449, Note_on_c, 11, 69, 0
1, 120452, Note_on_c, 11, 62, 0
1, 120460, Note_on_c, 3, 79, 0
1, 120469, Note_on_c, 13, 62, 0
1, 120469, Note_on_c, 13, 69, 0
1, 120470, Note_on_c, 13, 57, 0
1, 120470, Note_on_c, 11, 69, 61
1, 120471, Note_on_c, 11, 62, 60
1, 120472, Note_on_c, 11, 57, 60
1, 120480, Note_on_c, 1, 26, 114
1, 120480, Note_on_c, 3, 81, 104
1, 120480, Note_on_c, 9, 42, 126
1, 120481, Note_on_c, 9, 40, 126
1, 120488, Note_on_c, 13, 62, 61
1, 120489, Note_on_c, 13, 69, 61
1, 120491, Note_on_c, 13, 57, 60
1, 120500, Note_on_c, 9, 42, 0
1, 120501, Note_on_c, 9, 40, 0
1, 120620, Note_on_c, 1, 26, 0
1, 120688, Note_on_c, 14, 57, 0
1, 120690, Note_on_c, 11, 69, 0
1, 120691, Note_on_c, 11, 62, 0
1, 120692, Note_on_c, 11, 57, 0
1, 120692, Note_on_c, 14, 50, 0
1, 120700, Note_on_c, 3, 81, 0
1, 120708, Note_on_c, 13, 62, 0
1, 120709, Note_on_c, 13, 69, 0
1, 120709, Note_on_c, 14, 50, 99
1, 120711, Note_on_c, 13, 57, 0
1, 120711, Note_on_c, 11, 69, 61
1, 120712, Note_on_c, 15, 50, 0
1, 120712, Note_on_c, 11, 57, 60
1, 120713, Note_on_c, 15, 57, 0
1, 120713, Note_on_c, 11, 62, 61
1, 120713, Note_on_c, 14, 57, 99
1, 120720, Note_on_c, 1, 26, 111
1, 120720, Note_on_c, 3, 77, 105
1, 120723, Note_on_c, 9, 42, 94
1, 120729, Note_on_c, 13, 57, 60
1, 120731, Note_on_c, 13, 62, 61
1, 120731, Note_on_c, 13, 69, 60
1, 120731, Note_on_c, 15, 50, 99
1, 120731, Note_on_c, 15, 57, 99
1, 120743, Note_on_c, 9, 42, 0
1, 120809, Note_on_c, 14, 50, 0
1, 120811, Note_on_c, 11, 69, 0
1, 120812, Note_on_c, 11, 57, 0
1, 120813, Note_on_c, 11, 62, 0
1, 120813, Note_on_c, 14, 57, 0
1, 120820, Note_on_c, 1, 26, 0
1, 120829, Note_on_c, 13, 57, 0
1, 120829, Note_on_c, 11, 57, 61
1, 120829, Note_on_c, 14, 57, 98
1, 120831, Note_on_c, 13, 62, 0
1, 120831, Note_on_c, 13, 69, 0
1, 120831, Note_on_c, 15, 50, 0
1, 120831, Note_on_c, 15, 57, 0
1, 120832, Note_on_c, 11, 69, 60
1, 120833, Note_on_c, 11, 62, 61
1, 120833, Note_on_c, 14, 50, 99
1, 120838, Note_on_c, 1, 26, 116
1, 120850, Note_on_c, 13, 62, 61
1, 120851, Note_on_c, 15, 50, 98
1, 120852, Note_on_c, 13, 57, 61
1, 120852, Note_on_c, 13, 69, 60
1, 120852, Note_on_c, 15, 57, 99
1, 120929, Note_on_c, 11, 57, 0
1, 120929, Note_on_c, 14, 57, 0
1, 120932, Note_on_c, 11, 69, 0
1, 120933, Note_on_c, 11, 62, 0
1, 120933, Note_on_c, 14, 50, 0
1, 120938, Note_on_c, 1, 26, 0
1, 120949, Note_on_c, 11, 57, 60
1, 120950, Note_on_c, 13, 62, 0
1, 120950, Note_on_c, 11, 69, 60
1, 120951, Note_on_c, 15, 50, 0
1, 120951, Note_on_c, 14, 57, 98
1, 120952, Note_on_c, 13, 57, 0
1, 120952, Note_on_c, 13, 69, 0
1, 120952, Note_on_c, 15, 57, 0
1, 120952, Note_on_c, 14, 50, 98
1, 120953, Note_on_c, 11, 62, 61
1, 120960, Note_on_c, 1, 26, 112
1, 120960, Note_on_c, 9, 36, 127
1, 120961, Note_on_c, 9, 42, 127
1, 120971, Note_on_c, 13, 62, 61
1, 120971, Note_on_c, 13, 69, 60
1, 120971, Note_on_c, 15, 50, 98
1, 120971, Note_on_c, 15, 57, 98
1, 120972, Note_on_c, 13, 57, 60
1, 120980, Note_on_c, 9, 36, 0
1, 120981, Note_on_c, 9, 42, 0
1, 121100, Note_on_c, 1, 26, 0
1, 121123, System_exclusive, 23, 0, 32, 36, 0, 4, 66, 69, 69, 78, 32, 76, 73, 86, 73, 78, 71, 32, 73, 78, 32, 65, 10, 247
1, 121128, System_exclusive, 30, 0, 32, 36, 0, 5, 70, 65, 78, 84, 65, 83, 89, 32, 87, 73, 84, 72, 79, 85, 84, 32, 77, 69, 65, 78, 73, 78, 71, 10, 247
1, 121133, System_exclusive, 38, 0, 32, 36, 0, 6, 73, 84, 39, 83, 32, 78, 79, 84, 32, 79, 75, 65, 89, 32, 73, 32, 68, 79, 78, 39, 84, 32, 70, 69, 69, 76, 32, 83, 65, 70, 69, 10, 247
1, 121138, System_exclusive, 7, 0, 32, 36, 0, 7, 10, 247
1, 121148, System_exclusive, 6, 0, 32, 36, 0, 8, 247
1, 121169, Note_on_c, 11, 57, 0
1, 121170, Note_on_c, 11, 69, 0
1, 121171, Note_on_c, 14, 57, 0
1, 121172, Note_on_c, 14, 50, 0
1, 121173, Note_on_c, 11, 62, 0
1, 121180, Note_on_c, 3, 77, 0
1, 121188, Note_on_c, 14, 57, 99
1, 121189, Note_on_c, 11, 62, 61
1, 121189, Note_on_c, 14, 50, 99
1, 121191, Note_on_c, 13, 62, 0
1, 121191, Note_on_c, 13, 69, 0
1, 121191, Note_on_c, 15, 50, 0
1, 121191, Note_on_c, 15, 57, 0
1, 121192, Note_on_c, 13, 57, 0
1, 121192, Note_on_c, 11, 69, 60
1, 121193, Note_on_c, 11, 57, 60
1, 121200, Note_on_c, 3, 74, 104
1, 121201, Note_on_c, 1, 26, 115
1, 121203, Note_on_c, 9, 36, 110
1, 121203, Note_on_c, 9, 42, 91
1, 121210, Note_on_c, 13, 57, 61
1, 121210, Note_on_c, 15, 50, 99
1, 121211, Note_on_c, 13, 62, 61
1, 121211, Note_on_c, 13, 69, 60
1, 121211, Note_on_c, 15, 57, 99
1, 121223, Note_on_c, 9, 36, 0
1, 121223, Note_on_c, 9, 42, 0
1, 121301, Note_on_c, 1, 26, 0
1, 121319, Note_on_c, 1, 26, 117
1, 121409, Note_on_c, 11, 62, 0
1, 121412, Note_on_c, 11, 69, 0
1, 121413, Note_on_c, 11, 57, 0
1, 121419, Note_on_c, 1, 26, 0
1, 121428, Note_on_c, 11, 69, 61
1, 121429, Note_on_c, 11, 62, 61
1, 121430, Note_on_c, 13, 57, 0
1, 121431, Note_on_c, 13, 62, 0
1, 121431, Note_on_c, 13, 69, 0
1, 121431, Note_on_c, 11, 57, 60
1, 121438, Note_on_c, 9, 36, 127
1, 121439, Note_on_c, 1, 26, 112
1, 121440, Note_on_c, 9, 42, 126
1, 121441, Note_on_c, 9, 40, 126
1, 121449, Note_on_c, 13, 62, 60
1, 121450, Note_on_c, 13, 57, 61
1, 121450, Note_on_c, 13, 69, 61
1, 121458, Note_on_c, 9, 36, 0
1, 121460, Note_on_c, 9, 42, 0
1, 121461, Note_on_c, 9, 40, 0
1, 121539, Note_on_c, 1, 26, 0
1, 121648, Note_on_c, 11, 69, 0
1, 121648, Note_on_c, 14, 57, 0
1, 121649, Note_on_c, 11, 62, 0
1, 121649, Note_on_c, 14, 50, 0
1, 121651, Note_on_c, 11, 57, 0
1, 121660, Note_on_c, 3, 74, 0
1, 121669, Note_on_c, 13, 62, 0
1, 121669, Note_on_c, 14, 50, 98
1, 121670, Note_on_c, 13, 57, 0
1, 121670, Note_on_c, 13, 69, 0
1, 121670, Note_on_c, 15, 50, 0
1, 121670, Note_on_c, 11, 62, 60
1, 121671, Note_on_c, 15, 57, 0
1, 121671, Note_on_c, 11, 69, 61
1, 121671, Note_on_c, 14, 57, 98
1, 121672, Note_on_c, 11, 57, 60
1, 121680, Note_on_c, 1, 26, 118
1, 121680, Note_on_c, 3, 74, 105
1, 121680, Note_on_c, 9, 36, 110
1, 121681, Note_on_c, 9, 42, 94
1, 121688, Note_on_c, 13, 69, 60
1, 121689, Note_on_c, 13, 57, 60
1, 121691, Note_on_c, 15, 50, 98
1, 121691, Note_on_c, 15, 57, 98
1, 121692, Note_on_c, 13, 62, 61
1, 121700, Note_on_c, 9, 36, 0
1, 121701, Note_on_c, 9, 42, 0
1, 121769, Note_on_c, 14, 50, 0
1, 121771, Note_on_c, 14, 57, 0
1, 121780, Note_on_c, 1, 26, 0
1, 121788, Note_on_c, 14, 57, 99
1, 121790, Note_on_c, 14, 50, 99
1, 121791, Note_on_c, 15, 50, 0
1, 121791, Note_on_c, 15, 57, 0
1, 121798, Note_on_c, 1, 26, 119
1, 121810, Note_on_c, 15, 50, 99
1, 121810, Note_on_c, 15, 57, 99
1, 121888, Note_on_c, 14, 57, 0
1, 121890, Note_on_c, 11, 62, 0
1, 121890, Note_on_c, 14, 50, 0
1, 121891, Note_on_c, 11, 69, 0
1, 121892, Note_on_c, 11, 57, 0
1, 121898, Note_on_c, 1, 26, 0
1, 121900, Note_on_c, 3, 74, 0
1, 121908, Note_on_c, 13, 69, 0
1, 121908, Note_on_c, 11, 57, 61
1, 121909, Note_on_c, 13, 57, 0
1, 121909, Note_on_c, 14, 57, 98
1, 121910, Note_on_c, 15, 50, 0
1, 121910, Note_on_c, 15, 57, 0
1, 121910, Note_on_c, 11, 69, 61
1, 121910, Note_on_c, 14, 50, 98
1, 121912, Note_on_c, 13, 62, 0
1, 121913, Note_on_c, 11, 62, 60
1, 121920, Note_on_c, 3, 74, 105
1, 121921, Note_on_c, 1, 26, 117
1, 121921, Note_on_c, 9, 36, 126
1, 121923, Note_on_c, 9, 42, 127
1, 121928, Note_on_c, 13, 57, 60
1, 121928, Note_on_c, 15, 50, 98
1, 121929, Note_on_c, 15, 57, 98
1, 121932, Note_on_c, 13, 69, 61
1, 121933, Note_on_c, 13, 62, 61
1, 121941, Note_on_c, 9, 36, 0
1, 121943, Note_on_c, 9, 42, 0
1, 122061, Note_on_c, 1, 26, 0
1, 122128, Note_on_c, 11, 57, 0
1, 122129, Note_on_c, 14, 57, 0
1, 122130, Note_on_c, 11, 69, 0
1, 122130, Note_on_c, 14, 50, 0
1, 122133, Note_on_c, 11, 62, 0
1, 122140, Note_on_c, 3, 74, 0
1, 122148, Note_on_c, 13, 57, 0
1, 122148, Note_on_c, 15, 50, 0
1, 122149, Note_on_c, 15, 57, 0
1, 122149, Note_on_c, 11, 69, 61
1, 122150, Note_on_c, 11, 57, 60
1, 122150, Note_on_c, 11, 62, 60
1, 122150, Note_on_c, 14, 57, 99
1, 122151, Note_on_c, 14, 50, 98
1, 122152, Note_on_c, 13, 69, 0
1, 122153, Note_on_c, 13, 62, 0
1, 122159, Note_on_c, 9, 42, 97
1, 122160, Note_on_c, 3, 76, 104
1, 122160, Note_on_c, 9, 36, 127
1, 122162, Note_on_c, 1, 26, 116
1, 122170, Note_on_c, 15, 50, 99
1, 122171, Note_on_c, 15, 57, 98
1, 122172, Note_on_c, 13, 57, 60
1, 122172, Note_on_c, 13, 69, 61
1, 122173, Note_on_c, 13, 62, 60
1, 122179, Note_on_c, 9, 42, 0
1, 122180, Note_on_c, 9, 36, 0
1, 122249, Note_on_c, 11, 69, 0
1, 122250, Note_on_c, 11, 57, 0
1, 122250, Note_on_c, 11, 62, 0
1, 122269, Note_on_c, 11, 62, 61
1, 122271, Note_on_c, 11, 69, 61
1, 122272, Note_on_c, 13, 57, 0
1, 122272, Note_on_c, 13, 69, 0
1, 122272, Note_on_c, 11, 57, 60
1, 122273, Note_on_c, 13, 62, 0
1, 122288, Note_on_c, 13, 57, 60
1, 122290, Note_on_c, 13, 62, 61
1, 122291, Note_on_c, 13, 69, 61
1, 122302, Note_on_c, 1, 26, 0
1, 122369, Note_on_c, 11, 62, 0
1, 122371, Note_on_c, 11, 69, 0
1, 122372, Note_on_c, 11, 57, 0
1, 122380, Note_on_c, 3, 76, 0
1, 122388, Note_on_c, 13, 57, 0
1, 122388, Note_on_c, 11, 57, 60
1, 122389, Note_on_c, 11, 69, 61
1, 122390, Note_on_c, 13, 62, 0
1, 122390, Note_on_c, 11, 62, 61
1, 122391, Note_on_c, 13, 69, 0
1, 122399, Note_on_c, 9, 36, 127
1, 122400, Note_on_c, 3, 77, 105
1, 122400, Note_on_c, 9, 40, 127
1, 122401, Note_on_c, 1, 26, 116
1, 122402, Note_on_c, 9, 42, 126
1, 122409, Note_on_c, 13, 62, 60
1, 122409, Note_on_c, 13, 69, 60
1, 122412, Note_on_c, 13, 57, 61
1, 122419, Note_on_c, 9, 36, 0
1, 122420, Note_on_c, 9, 40, 0
1, 122422, Note_on_c, 9, 42, 0
1, 122541, Note_on_c, 1, 26, 0
1, 122608, Note_on_c, 11, 57, 0
1, 122609, Note_on_c, 11, 69, 0
1, 122610, Note_on_c, 11, 62, 0
1, 122610, Note_on_c, 14, 57, 0
1, 122611, Note_on_c, 14, 50, 0
1, 122620, Note_on_c, 3, 77, 0
1, 122629, Note_on_c, 13, 62, 0
1, 122629, Note_on_c, 13, 69, 0
1, 122629, Note_on_c, 11, 57, 60
1, 122630, Note_on_c, 15, 50, 0
1, 122630, Note_on_c, 11, 69, 60
1, 122630, Note_on_c, 14, 57, 99
1, 122631, Note_on_c, 15, 57, 0
1, 122631, Note_on_c, 11, 62, 61
1, 122632, Note_on_c, 13, 57, 0
1, 122632, Note_on_c, 14, 50, 99
1, 122639, Note_on_c, 1, 26, 117
1, 122640, Note_on_c, 3, 81, 104
1, 122643, Note_on_c, 9, 41, 119
1, 122643, Note_on_c, 9, 42, 94
1, 122651, Note_on_c, 13, 62, 61
1, 122651, Note_on_c, 13, 69, 60
1, 122652, Note_on_c, 13, 57, 60
1, 122653, Note_on_c, 15, 50, 99
1, 122653, Note_on_c, 15, 57, 99
1, 122663, Note_on_c, 9, 41, 0
1, 122663, Note_on_c, 9, 42, 0
1, 122710, System_exclusive, 6, 0, 32, 36, 0, 8, 247
1, 122739, Note_on_c, 1, 26, 0
1, 122761, Note_on_c, 1, 26, 118
1, 122849, Note_on_c, 11, 57, 0
1, 122850, Note_on_c, 11, 69, 0
1, 122850, Note_on_c, 14, 57, 0
1, 122851, Note_on_c, 11, 62, 0
1, 122852, Note_on_c, 14, 50, 0
1, 122859, Note_on_c, 8, 38, 0
1, 122860, Note_on_c, 3, 81, 0
1, 122861, Note_on_c, 1, 26, 0
1, 122861, Note_on_c, 8, 57, 0
1, 122862, Note_on_c, 8, 50, 0
1, 122869, Note_on_c, 11, 58, 60
1, 122869, Note_on_c, 14, 53, 98
1, 122871, Note_on_c, 13, 62, 0
1, 122871, Note_on_c, 13, 69, 0
1, 122871, Note_on_c, 11, 62, 61
1, 122871, Note_on_c, 11, 65, 61
1, 122871, Note_on_c, 14, 46, 99
1, 122872, Note_on_c, 13, 57, 0
1, 122873, Note_on_c, 15, 50, 0
1, 122873, Note_on_c, 15, 57, 0
1, 122879, Note_on_c, 7, 58, 60
1, 122880, Note_on_c, 1, 34, 115
1, 122880, Note_on_c, 8, 34, 61
1, 122880, Note_on_c, 8, 46, 61
1, 122880, Note_on_c, 9, 49, 70
1, 122881, Note_on_c, 9, 36, 126
1, 122882, Note_on_c, 8, 53, 60
1, 122889, Note_on_c, 15, 53, 98
1, 122891, Note_on_c, 13, 62, 61
1, 122892, Note_on_c, 13, 65, 60
1, 122892, Note_on_c, 15, 46, 99
1, 122893, Note_on_c, 13, 58, 61
1, 122900, Note_on_c, 9, 49, 0
1, 122901, Note_on_c, 9, 36, 0
1, 123020, Note_on_c, 1, 34, 0
1, 123089, Note_on_c, 11, 58, 0
1, 123089, Note_on_c, 14, 53, 0
1, 123091, Note_on_c, 11, 62, 0
1, 123091, Note_on_c, 11, 65, 0
1, 123091, Note_on_c, 14, 46, 0
1, 123108, Note_on_c, 11, 62, 60
1, 123109, Note_on_c, 15, 53, 0
1, 123111, Note_on_c, 13, 62, 0
1, 123111, Note_on_c, 11, 65, 61
1, 123111, Note_on_c, 14, 53, 98
1, 123112, Note_on_c, 13, 65, 0
1, 123112, Note_on_c, 15, 46, 0
1, 123112, Note_on_c, 11, 58, 60
1, 123112, Note_on_c, 14, 46, 98
1, 123113, Note_on_c, 13, 58, 0
1, 123118, Note_on_c, 1, 34, 115
1, 123120, Note_on_c, 3, 82, 104
1, 123121, Note_on_c, 9, 42, 91
1, 123129, Note_on_c, 13, 58, 61
1, 123129, Note_on_c, 15, 46, 98
1, 123131, Note_on_c, 13, 65, 60
1, 123131, Note_on_c, 15, 53, 98
1, 123132, Note_on_c, 13, 62, 61
1, 123141, Note_on_c, 9, 42, 0
1, 123218, Note_on_c, 1, 34, 0
1, 123240, Note_on_c, 1, 34, 116
1, 123328, Note_on_c, 11, 62, 0
1, 123331, Note_on_c, 11, 65, 0
1, 123332, Note_on_c, 11, 58, 0
1, 123340, Note_on_c, 1, 34, 0
1, 123349, Note_on_c, 13, 58, 0
1, 123350, Note_on_c, 11, 62, 60
1, 123350, Note_on_c, 11, 65, 61
1, 123351, Note_on_c, 13, 65, 0
1, 123351, Note_on_c, 11, 58, 61
1, 123352, Note_on_c, 13, 62, 0
1, 123360, Note_on_c, 9, 40, 126
1, 123361, Note_on_c, 9, 42, 126
1, 123362, Note_on_c, 1, 34, 111
1, 123369, Note_on_c, 13, 65, 60
1, 123372, Note_on_c, 13, 58, 60
1, 123372, Note_on_c, 13, 62, 61
1, 123380, Note_on_c, 9, 40, 0
1, 123381, Note_on_c, 9, 42, 0
1, 123462, Note_on_c, 1, 34, 0
1, 123570, Note_on_c, 11, 62, 0
1, 123570, Note_on_c, 11, 65, 0
1, 123571, Note_on_c, 11, 58, 0
1, 123571, Note_on_c, 14, 53, 0
1, 123572, Note_on_c, 14, 46, 0
1, 123580, Note_on_c, 3, 82, 0
1, 123588, Note_on_c, 14, 46, 99
1, 123589, Note_on_c, 13, 65, 0
1, 123589, Note_on_c, 15, 46, 0
1, 123590, Note_on_c, 11, 65, 60
1, 123590, Note_on_c, 14, 53, 99
1, 123591, Note_on_c, 15, 53, 0
1, 123591, Note_on_c, 11, 58, 60
1, 123591, Note_on_c, 11, 62, 61
1, 123592, Note_on_c, 13, 58, 0
1, 123592, Note_on_c, 13, 62, 0
1, 123598, Note_on_c, 1, 34, 112
1, 123600, Note_on_c, 3, 82, 105
1, 123603, Note_on_c, 9, 42, 95
1, 123609, Note_on_c, 13, 62, 61
1, 123610, Note_on_c, 15, 46, 99
1, 123611, Note_on_c, 13, 58, 60
1, 123611, Note_on_c, 13, 65, 60
1, 123611, Note_on_c, 15, 53, 99
1, 123623, Note_on_c, 9, 42, 0
1, 123688, Note_on_c, 14, 46, 0
1, 123690, Note_on_c, 14, 53, 0
1, 123698, Note_on_c, 1, 34, 0
1, 123708, Note_on_c, 14, 46, 98
1, 123710, Note_on_c, 15, 46, 0
1, 123711, Note_on_c, 15, 53, 0
1, 123712, Note_on_c, 14, 53, 98
1, 123718, Note_on_c, 1, 34, 114
1, 123730, Note_on_c, 15, 53, 98
1, 123733, Note_on_c, 15, 46, 98
1, 123808, Note_on_c, 14, 46, 0
1, 123810, Note_on_c, 11, 65, 0
1, 123811, Note_on_c, 11, 58, 0
1, 123811, Note_on_c, 11, 62, 0
1, 123812, Note_on_c, 14, 53, 0
1, 123818, Note_on_c, 1, 34, 0
1, 123820, Note_on_c, 3, 82, 0
1, 123828, Note_on_c, 14, 53, 99
1, 123829, Note_on_c, 13, 62, 0
1, 123830, Note_on_c, 15, 53, 0
1, 123830, Note_on_c, 11, 58, 61
1, 123831, Note_on_c, 13, 58, 0
1, 123831, Note_on_c, 13, 65, 0
1, 123831, Note_on_c, 14, 46, 99
1, 123832, Note_on_c, 11, 65, 60
1, 123833, Note_on_c, 15, 46, 0
1, 123833, Note_on_c, 11, 62, 60
1, 123840, Note_on_c, 1, 34, 113
1, 123840, Note_on_c, 3, 82, 105
1, 123840, Note_on_c, 9, 42, 127
1, 123842, Note_on_c, 9, 36, 126
1, 123849, Note_on_c, 15, 46, 99
1, 123850, Note_on_c, 13, 62, 61
1, 123851, Note_on_c, 13, 58, 61
1, 123851, Note_on_c, 13, 65, 60
1, 123851, Note_on_c, 15, 53, 99
1, 123860, Note_on_c, 9, 42, 0
1, 123862, Note_on_c, 9, 36, 0
1, 123980, Note_on_c, 1, 34, 0
1, 124048, Note_on_c, 14, 53, 0
1, 124050, Note_on_c, 11, 58, 0
1, 124051, Note_on_c, 14, 46, 0
1, 124052, Note_on_c, 11, 65, 0
1, 124053, Note_on_c, 11, 62, 0
1, 124060, Note_on_c, 3, 82, 0
1, 124069, Note_on_c, 15, 46, 0
1, 124070, Note_on_c, 13, 62, 0
1, 124070, Note_on_c, 11, 58, 61
1, 124070, Note_on_c, 11, 62, 60
1, 124070, Note_on_c, 11, 65, 61
1, 124071, Note_on_c, 13, 58, 0
1, 124071, Note_on_c, 13, 65, 0
1, 124071, Note_on_c, 15, 53, 0
1, 124072, Note_on_c, 14, 46, 98
1, 124072, Note_on_c, 14, 53, 98
1, 124079, Note_on_c, 9, 42, 96
1, 124080, Note_on_c, 3, 81, 104
1, 124081, Note_on_c, 1, 34, 113
1, 124088, Note_on_c, 15, 46, 98
1, 124089, Note_on_c, 13, 62, 60
1, 124091, Note_on_c, 13, 65, 61
1, 124091, Note_on_c, 15, 53, 98
1, 124092, Note_on_c, 13, 58, 60
1, 124099, Note_on_c, 9, 42, 0
1, 124221, Note_on_c, 1, 34, 0
1, 124290, Note_on_c, 11, 58, 0
1, 124290, Note_on_c, 11, 62, 0
1, 124290, Note_on_c, 11, 65, 0
1, 124292, Note_on_c, 14, 46, 0
1, 124292, Note_on_c, 14, 53, 0
1, 124300, Note_on_c, 3, 81, 0
1, 124308, Note_on_c, 15, 46, 0
1, 124309, Note_on_c, 13, 62, 0
1, 124309, Note_on_c, 11, 62, 61
1, 124309, Note_on_c, 14, 46, 99
1, 124310, Note_on_c, 11, 58, 60
1, 124310, Note_on_c, 14, 53, 98
1, 124311, Note_on_c, 13, 65, 0
1, 124311, Note_on_c, 15, 53, 0
1, 124312, Note_on_c, 13, 58, 0
1, 124312, Note_on_c, 11, 65, 61
1, 124319, Note_on_c, 9, 40, 127
1, 124320, Note_on_c, 1, 34, 116
1, 124320, Note_on_c, 3, 79, 104
1, 124323, Note_on_c, 9, 42, 127
1, 124328, Note_on_c, 15, 46, 99
1, 124329, Note_on_c, 13, 58, 61
1, 124329, Note_on_c, 13, 62, 61
1, 124329, Note_on_c, 15, 53, 98
1, 124332, Note_on_c, 13, 65, 60
1, 124339, Note_on_c, 9, 40, 0
1, 124343, Note_on_c, 9, 42, 0
1, 124460, Note_on_c, 1, 34, 0
1, 124529, Note_on_c, 11, 62, 0
1, 124529, Note_on_c, 14, 46, 0
1, 124530, Note_on_c, 11, 58, 0
1, 124530, Note_on_c, 14, 53, 0
1, 124532, Note_on_c, 11, 65, 0
1, 124540, Note_on_c, 3, 79, 0
1, 124548, Note_on_c, 15, 46, 0
1, 124549, Note_on_c, 13, 58, 0
1, 124549, Note_on_c, 13, 62, 0
1, 124549, Note_on_c, 15, 53, 0
1, 124549, Note_on_c, 11, 62, 60
1, 124549, Note_on_c, 14, 46, 99
1, 124550, Note_on_c, 11, 58, 60
1, 124550, Note_on_c, 14, 53, 99
1, 124552, Note_on_c, 13, 65, 0
1, 124552, Note_on_c, 11, 65, 61
1, 124559, Note_on_c, 1, 34, 118
1, 124560, Note_on_c, 3, 84, 105
1, 124561, Note_on_c, 9, 42, 94
1, 124568, Note_on_c, 13, 58, 61
1, 124568, Note_on_c, 15, 53, 99
1, 124569, Note_on_c, 15, 46, 99
1, 124570, Note_on_c, 13, 62, 60
1, 124573, Note_on_c, 13, 65, 60
1, 124581, Note_on_c, 9, 42, 0
1, 124659, Note_on_c, 1, 34, 0
1, 124683, Note_on_c, 1, 34, 119
1, 124769, Note_on_c, 11, 62, 0
1, 124769, Note_on_c, 14, 46, 0
1, 124770, Note_on_c, 11, 58, 0
1, 124770, Note_on_c, 14, 53, 0
1, 124772, Note_on_c, 11, 65, 0
1, 124779, Note_on_c, 7, 58, 0
1, 124780, Note_on_c, 8, 34, 0
1, 124780, Note_on_c, 8, 46, 0
1, 124782, Note_on_c, 7, 65, 0
1, 124782, Note_on_c, 8, 53, 0
1, 124783, Note_on_c, 1, 34, 0
1, 124788, Note_on_c, 13, 58, 0
1, 124788, Note_on_c, 15, 53, 0
1, 124789, Note_on_c, 15, 46, 0
1, 124789, Note_on_c, 11, 64, 61
1, 124789, Note_on_c, 11, 67, 60
1, 124790, Note_on_c, 13, 62, 0
1, 124790, Note_on_c, 11, 62, 60
1, 124790, Note_on_c, 14, 48, 98
1, 124790, Note_on_c, 14, 55, 99
1, 124793, Note_on_c, 13, 65, 0
1, 124798, Note_on_c, 9, 42, 126
1, 124799, Note_on_c, 8, 36, 61
1, 124800, Note_on_c, 7, 64, 61
1, 124800, Note_on_c, 8, 48, 60
1, 124801, Note_on_c, 9, 36, 127
1, 124803, Note_on_c, 1, 36, 115
1, 124803, Note_on_c, 8, 55, 60
1, 124809, Note_on_c, 13, 64, 61
1, 124809, Note_on_c, 15, 55, 98
1, 124810, Note_on_c, 15, 48, 99
1, 124811, Note_on_c, 13, 62, 61
1, 124813, Note_on_c, 13, 67, 60
1, 124818, Note_on_c, 9, 42, 0
1, 124821, Note_on_c, 9, 36, 0
1, 124930, System_exclusive, 6, 0, 32, 36, 0, 8, 247
1, 124943, Note_on_c, 1, 36, 0
1, 125009, Note_on_c, 11, 64, 0
1, 125009, Note_on_c, 11, 67, 0
1, 125010, Note_on_c, 11, 62, 0
1, 125010, Note_on_c, 14, 48, 0
1, 125010, Note_on_c, 14, 55, 0
1, 125020, Note_on_c, 3, 84, 0
1, 125029, Note_on_c, 13, 64, 0
1, 125029, Note_on_c, 15, 55, 0
1, 125029, Note_on_c, 14, 55, 98
1, 125030, Note_on_c, 15, 48, 0
1, 125030, Note_on_c, 14, 48, 98
1, 125031, Note_on_c, 13, 62, 0
1, 125031, Note_on_c, 11, 62, 61
1, 125033, Note_on_c, 13, 67, 0
1, 125033, Note_on_c, 11, 64, 61
1, 125033, Note_on_c, 11, 67, 60
1, 125040, Note_on_c, 3, 82, 105
1, 125042, Note_on_c, 1, 36, 118
1, 125042, Note_on_c, 9, 42, 91
1, 125049, Note_on_c, 13, 64, 60
1, 125049, Note_on_c, 15, 55, 98
1, 125052, Note_on_c, 13, 62, 61
1, 125052, Note_on_c, 13, 67, 61
1, 125053, Note_on_c, 15, 48, 98
1, 125062, Note_on_c, 9, 42, 0
1, 125142, Note_on_c, 1, 36, 0
1, 125158, Note_on_c, 1, 36, 112
1, 125251, Note_on_c, 11, 62, 0
1, 125253, Note_on_c, 11, 64, 0
1, 125253, Note_on_c, 11, 67, 0
1, 125258, Note_on_c, 1, 36, 0
1, 125261, Note_on_c, 7, 62, 0
1, 125269, Note_on_c, 13, 64, 0
1, 125270, Note_on_c, 11, 60, 60
1, 125271, Note_on_c, 11, 64, 61
1, 125271, Note_on_c, 11, 67, 60
1, 125272, Note_on_c, 13, 62, 0
1, 125272, Note_on_c, 13, 67, 0
1, 125279, Note_on_c, 9, 42, 127
1, 125281, Note_on_c, 7, 60, 60
1, 125281, Note_on_c, 9, 40, 127
1, 125282, Note_on_c, 1, 36, 111
1, 125289, Note_on_c, 13, 60, 60
1, 125289, Note_on_c, 13, 64, 60
1, 125292, Note_on_c, 13, 67, 61
1, 125299, Note_on_c, 9, 42, 0
1, 125301, Note_on_c, 9, 40, 0
1, 125382, Note_on_c, 1, 36, 0
1, 125489, Note_on_c, 14, 55, 0
1, 125490, Note_on_c, 11, 60, 0
1, 125490, Note_on_c, 14, 48, 0
1, 125491, Note_on_c, 11, 64, 0
1, 125491, Note_on_c, 11, 67, 0
1, 125500, Note_on_c, 3, 82, 0
1, 125508, Note_on_c, 11, 64, 61
1, 125508, Note_on_c, 14, 55, 99
1, 125509, Note_on_c, 13, 60, 0
1, 125509, Note_on_c, 13, 64, 0
1, 125509, Note_on_c, 15, 55, 0
1, 125511, Note_on_c, 14, 48, 99
1, 125512, Note_on_c, 13, 67, 0
1, 125512, Note_on_c, 11, 62, 61
1, 125512, Note_on_c, 11, 67, 60
1, 125513, Note_on_c, 15, 48, 0
1, 125518, Note_on_c, 1, 36, 116
1, 125519, Note_on_c, 9, 42, 94
1, 125528, Note_on_c, 15, 48, 99
1, 125529, Note_on_c, 13, 64, 60
1, 125530, Note_on_c, 15, 55, 99
1, 125532, Note_on_c, 13, 62, 61
1, 125533, Note_on_c, 13, 67, 61
1, 125539, Note_on_c, 9, 42, 0
1, 125608, Note_on_c, 11, 64, 0
1, 125608, Note_on_c, 14, 55, 0
1, 125611, Note_on_c, 14, 48, 0
1, 125612, Note_on_c, 11, 62, 0
1, 125612, Note_on_c, 11, 67, 0
1, 125618, Note_on_c, 1, 36, 0
1, 125628, Note_on_c, 15, 48, 0
1, 125628, Note_on_c, 11, 62, 61
1, 125629, Note_on_c, 13, 64, 0
1, 125629, Note_on_c, 14, 55, 98
1, 125630, Note_on_c, 15, 55, 0
1, 125631, Note_on_c, 11, 67, 60
1, 125632, Note_on_c, 13, 62, 0
1, 125632, Note_on_c, 11, 64, 60
1, 125632, Note_on_c, 14, 48, 98
1, 125633, Note_on_c, 13, 67, 0
1, 125642, Note_on_c, 1, 36, 115
1, 125650, Note_on_c, 13, 67, 60
1, 125651, Note_on_c, 13, 62, 61
1, 125652, Note_on_c, 13, 64, 60
1, 125652, Note_on_c, 15, 55, 98
1, 125653, Note_on_c, 15, 48, 98
1, 125728, Note_on_c, 11, 62, 0
1, 125729, Note_on_c, 14, 55, 0
1, 125731, Note_on_c, 11, 67, 0
1, 125732, Note_on_c, 11, 64, 0
1, 125732, Note_on_c, 14, 48, 0
1, 125741, Note_on_c, 7, 60, 0
1, 125742, Note_on_c, 1, 36, 0
1, 125748, Note_on_c, 11, 64, 61
1, 125750, Note_on_c, 13, 67, 0
1, 125750, Note_on_c, 14, 48, 99
1, 125750, Note_on_c, 14, 55, 99
1, 125751, Note_on_c, 13, 62, 0
1, 125751, Note_on_c, 11, 62, 61
1, 125751, Note_on_c, 11, 67, 60
1, 125752, Note_on_c, 13, 64, 0
1, 125752, Note_on_c, 15, 55, 0
1, 125753, Note_on_c, 15, 48, 0
1, 125759, Note_on_c, 9, 42, 126
1, 125760, Note_on_c, 9, 36, 127
1, 125761, Note_on_c, 1, 36, 117
1, 125762, Note_on_c, 7, 62, 61
1, 125769, Note_on_c, 13, 67, 60
1, 125770, Note_on_c, 13, 62, 61
1, 125770, Note_on_c, 15, 55, 99
1, 125771, Note_on_c, 15, 48, 99
1, 125772, Note_on_c, 13, 64, 61
1, 125779, Note_on_c, 9, 42, 0
1, 125780, Note_on_c, 9, 36, 0
1, 125901, Note_on_c, 1, 36, 0
1, 125968, Note_on_c, 11, 64, 0
1, 125970, Note_on_c, 14, 48, 0
1, 125970, Note_on_c, 14, 55, 0
1, 125971, Note_on_c, 11, 62, 0
1, 125971, Note_on_c, 11, 67, 0
1, 125982, Note_on_c, 7, 62, 0
1, 125988, Note_on_c, 11, 64, 60
1, 125988, Note_on_c, 14, 48, 98
1, 125989, Note_on_c, 13, 67, 0
1, 125990, Note_on_c, 13, 62, 0
1, 125990, Note_on_c, 15, 55, 0
1, 125990, Note_on_c, 14, 55, 98
1, 125991, Note_on_c, 15, 48, 0
1, 125992, Note_on_c, 13, 64, 0
1, 125992, Note_on_c, 11, 60, 61
1, 125993, Note_on_c, 11, 67, 61
1, 125998, Note_on_c, 1, 36, 114
1, 125998, Note_on_c, 9, 36, 126
1, 125999, Note_on_c, 7, 60, 61
1, 126000, Note_on_c, 3, 81, 104
1, 126001, Note_on_c, 9, 42, 97
1, 126010, Note_on_c, 13, 60, 60
1, 126010, Note_on_c, 13, 67, 60
1, 126010, Note_on_c, 15, 55, 98
1, 126012, Note_on_c, 15, 48, 98
1, 126013, Note_on_c, 13, 64, 61
1, 126018, Note_on_c, 9, 36, 0
1, 126021, Note_on_c, 9, 42, 0
1, 126138, Note_on_c, 1, 36, 0
1, 126208, Note_on_c, 11, 64, 0
1, 126212, Note_on_c, 11, 60, 0
1, 126213, Note_on_c, 11, 67, 0
1, 126228, Note_on_c, 11, 67, 60
1, 126230, Note_on_c, 13, 60, 0
1, 126230, Note_on_c, 13, 67, 0
1, 126230, Note_on_c, 11, 64, 60
1, 126231, Note_on_c, 11, 60, 61
1, 126233, Note_on_c, 13, 64, 0
1, 126240, Note_on_c, 1, 36, 115
1, 126240, Note_on_c, 9, 40, 126
1, 126240, Note_on_c, 9, 42, 127
1, 126249, Note_on_c, 13, 60, 61
1, 126249, Note_on_c, 13, 67, 60
1, 126251, Note_on_c, 13, 64, 60
1, 126260, Note_on_c, 9, 40, 0
1, 126260, Note_on_c, 9, 42, 0
1, 126380, Note_on_c, 1, 36, 0
1, 126448, Note_on_c, 11, 67, 0
1, 126448, Note_on_c, 14, 48, 0
1, 126450, Note_on_c, 11, 64, 0
1, 126450, Note_on_c, 14, 55, 0
1, 126451, Note_on_c, 11, 60, 0
1, 126460, Note_on_c, 3, 81, 0
1, 126469, Note_on_c, 13, 60, 0
1, 126469, Note_on_c, 13, 67, 0
1, 126469, Note_on_c, 11, 64, 60
1, 126470, Note_on_c, 15, 55, 0
1, 126471, Note_on_c, 13, 64, 0
1, 126471, Note_on_c, 11, 67, 61
1, 126471, Note_on_c, 14, 55, 99
1, 126472, Note_on_c, 15, 48, 0
1, 126472, Note_on_c, 14, 48, 98
1, 126473, Note_on_c, 11, 60, 61
1, 126480, Note_on_c, 3, 81, 104
1, 126482, Note_on_c, 1, 36, 116
1, 126483, Note_on_c, 9, 42, 94
1, 126490, Note_on_c, 13, 60, 61
1, 126491, Note_on_c, 13, 64, 60
1, 126492, Note_on_c, 13, 67, 61
1, 126492, Note_on_c, 15, 48, 99
1, 126493, Note_on_c, 15, 55, 98
1, 126503, Note_on_c, 9, 42, 0
1, 126571, Note_on_c, 14, 55, 0
1, 126572, Note_on_c, 14, 48, 0
1, 126580, Note_on_c, 3, 81, 0
1, 126582, Note_on_c, 1, 36, 0
1, 126590, Note_on_c, 14, 48, 99
1, 126591, Note_on_c, 14, 55, 99
1, 126592, Note_on_c, 15, 48, 0
1, 126593, Note_on_c, 15, 55, 0
1, 126600, Note_on_c, 1, 36, 112
1, 126600, Note_on_c, 3, 79, 105
1, 126608, Note_on_c, 15, 55, 99
1, 126612, Note_on_c, 15, 48, 99
1, 126689, Note_on_c, 11, 64, 0
1, 126690, Note_on_c, 14, 48, 0
1, 126691, Note_on_c, 11, 67, 0
1, 126691, Note_on_c, 14, 55, 0
1, 126693, Note_on_c, 11, 60, 0
1, 126699, Note_on_c, 7, 60, 0
1, 126699, Note_on_c, 8, 36, 0
1, 126700, Note_on_c, 1, 36, 0
1, 126700, Note_on_c, 7, 64, 0
1, 126700, Note_on_c, 8, 48, 0
1, 126703, Note_on_c, 8, 55, 0
1, 126708, Note_on_c, 15, 55, 0
1, 126708, Note_on_c, 11, 57, 60
1, 126709, Note_on_c, 14, 52, 98
1, 126710, Note_on_c, 13, 60, 0
1, 126710, Note_on_c, 11, 69, 61
1, 126711, Note_on_c, 13, 64, 0
1, 126711, Note_on_c, 11, 64, 60
1, 126712, Note_on_c, 13, 67, 0
1, 126712, Note_on_c, 15, 48, 0
1, 126713, Note_on_c, 14, 45, 99
1, 126719, Note_on_c, 8, 33, 61
1, 126719, Note_on_c, 8, 45, 61
1, 126720, Note_on_c, 7, 64, 60
1, 126720, Note_on_c, 9, 36, 126
1, 126720, Note_on_c, 9, 42, 126
1, 126722, Note_on_c, 7, 57, 61
1, 126722, Note_on_c, 8, 52, 60
1, 126723, Note_on_c, 1, 33, 113
1, 126728, Note_on_c, 15, 45, 98
1, 126730, Note_on_c, 13, 64, 61
1, 126731, Note_on_c, 13, 69, 60
1, 126732, Note_on_c, 13, 57, 61
1, 126732, Note_on_c, 15, 52, 99
1, 126740, Note_on_c, 9, 36, 0
1, 126740, Note_on_c, 9, 42, 0
1, 126820, Note_on_c, 3, 79, 0
1, 126840, Note_on_c, 3, 79, 104
1, 126863, Note_on_c, 1, 33, 0
1, 126928, Note_on_c, 11, 57, 0
1, 126929, Note_on_c, 14, 52, 0
1, 126930, Note_on_c, 11, 69, 0
1, 126931, Note_on_c, 11, 64, 0
1, 126933, Note_on_c, 14, 45, 0
1, 126948, Note_on_c, 15, 45, 0
1, 126948, Note_on_c, 11, 64, 60
1, 126948, Note_on_c, 14, 52, 98
1, 126950, Note_on_c, 13, 64, 0
1, 126951, Note_on_c, 13, 69, 0
1, 126951, Note_on_c, 14, 45, 98
1, 126952, Note_on_c, 13, 57, 0
1, 126952, Note_on_c, 15, 52, 0
1, 126952, Note_on_c, 11, 57, 61
1, 126952, Note_on_c, 11, 69, 61
1, 126959, Note_on_c, 9, 42, 91
1, 126962, Note_on_c, 1, 33, 113
1, 126968, Note_on_c, 13, 69, 60
1, 126970, Note_on_c, 13, 64, 60
1, 126973, Note_on_c, 13, 57, 61
1, 126973, Note_on_c, 15, 45, 98
1, 126973, Note_on_c, 15, 52, 98
1, 126979, Note_on_c, 9, 42, 0
1, 127062, Note_on_c, 1, 33, 0
1, 127083, Note_on_c, 1, 33, 114
1, 127168, Note_on_c, 11, 64, 0
1, 127172, Note_on_c, 11, 57, 0
1, 127172, Note_on_c, 11, 69, 0
1, 127183, Note_on_c, 1, 33, 0
1, 127188, Note_on_c, 13, 69, 0
1, 127188, Note_on_c, 11, 57, 60
1, 127190, Note_on_c, 13, 64, 0
1, 127190, Note_on_c, 11, 69, 60
1, 127191, Note_on_c, 11, 64, 61
1, 127193, Note_on_c, 13, 57, 0
1, 127199, Note_on_c, 9, 42, 126
1, 127202, Note_on_c, 1, 33, 116
1, 127202, Note_on_c, 9, 40, 127
1, 127209, Note_on_c, 13, 64, 61
1, 127210, Note_on_c, 13, 57, 60
1, 127211, Note_on_c, 13, 69, 60
1, 127219, Note_on_c, 9, 42, 0
1, 127222, Note_on_c, 9, 40, 0
1, 127302, Note_on_c, 1, 33, 0
1, 127408, Note_on_c, 11, 57, 0
1, 127408, Note_on_c, 14, 52, 0
1, 127410, Note_on_c, 11, 69, 0
1, 127411, Note_on_c, 11, 64, 0
1, 127411, Note_on_c, 14, 45, 0
1, 127420, Note_on_c, 3, 79, 0
1, 127428, Note_on_c, 14, 52, 99
1, 127429, Note_on_c, 13, 64, 0
1, 127429, Note_on_c, 11, 64, 61
1, 127430, Note_on_c, 13, 57, 0
1, 127430, Note_on_c, 11, 57, 60
1, 127431, Note_on_c, 13, 69, 0
1, 127431, Note_on_c, 11, 69, 60
1, 127431, Note_on_c, 14, 45, 99
1, 127433, Note_on_c, 15, 45, 0
1, 127433, Note_on_c, 15, 52, 0
1, 127439, Note_on_c, 9, 42, 95
1, 127440, Note_on_c, 1, 33, 115
1, 127440, Note_on_c, 3, 76, 105
1, 127448, Note_on_c, 13, 57, 61
1, 127449, Note_on_c, 13, 64, 61
1, 127450, Note_on_c, 13, 69, 60
1, 127450, Note_on_c, 15, 52, 99
1, 127453, Note_on_c, 15, 45, 99
1, 127459, Note_on_c, 9, 42, 0
1, 127528, Note_on_c, 14, 52, 0
1, 127529, Note_on_c, 11, 64, 0
1, 127530, Note_on_c, 11, 57, 0
1, 127531, Note_on_c, 11, 69, 0
1, 127531, Note_on_c, 14, 45, 0
1, 127540, Note_on_c, 1, 33, 0
1, 127548, Note_on_c, 13, 57, 0
1, 127548, Note_on_c, 14, 52, 98
1, 127549, Note_on_c, 13, 64, 0
1, 127549, Note_on_c, 11, 57, 61
1, 127550, Note_on_c, 13, 69, 0
1, 127550, Note_on_c, 15, 52, 0
1, 127550, Note_on_c, 14, 45, 98
1, 127552, Note_on_c, 11, 64, 60
1, 127552, Note_on_c, 11, 69, 61
1, 127553, Note_on_c, 15, 45, 0
1, 127561, Note_on_c, 1, 33, 113
1, 127569, Note_on_c, 13, 57, 60
1, 127570, Note_on_c, 13, 64, 61
1, 127572, Note_on_c, 13, 69, 60
1, 127573, Note_on_c, 15, 45, 98
1, 127573, Note_on_c, 15, 52, 98
1, 127648, Note_on_c, 14, 52, 0
1, 127649, Note_on_c, 11, 57, 0
1, 127650, Note_on_c, 14, 45, 0
1, 127652, Note_on_c, 11, 64, 0
1, 127652, Note_on_c, 11, 69, 0
1, 127660, Note_on_c, 7, 64, 0
1, 127661, Note_on_c, 1, 33, 0
1, 127669, Note_on_c, 13, 57, 0
1, 127669, Note_on_c, 11, 57, 61
1, 127669, Note_on_c, 11, 64, 60
1, 127670, Note_on_c, 13, 64, 0
1, 127670, Note_on_c, 14, 52, 99
1, 127672, Note_on_c, 13, 69, 0
1, 127672, Note_on_c, 14, 45, 99
1, 127673, Note_on_c, 15, 45, 0
1, 127673, Note_on_c, 15, 52, 0
1, 127673, Note_on_c, 11, 69, 61
1, 127678, Note_on_c, 7, 61, 60
1, 127681, Note_on_c, 1, 33, 116
1, 127681, Note_on_c, 9, 36, 127
1, 127682, Note_on_c, 9, 42, 127
1, 127691, Note_on_c, 13, 64, 61
1, 127691, Note_on_c, 13, 69, 61
1, 127692, Note_on_c, 13, 57, 60
1, 127692, Note_on_c, 15, 45, 99
1, 127692, Note_on_c, 15, 52, 99
1, 127701, Note_on_c, 9, 36, 0
1, 127702, Note_on_c, 9, 42, 0
1, 127780, Note_on_c, 3, 76, 0
1, 127821, Note_on_c, 1, 33, 0
1, 127889, Note_on_c, 11, 57, 0
1, 127889, Note_on_c, 11, 64, 0
1, 127890, Note_on_c, 14, 52, 0
1, 127892, Note_on_c, 14, 45, 0
1, 127893, Note_on_c, 11, 69, 0
1, 127909, Note_on_c, 11, 64, 60
1, 127910, Note_on_c, 14, 45, 98
1, 127911, Note_on_c, 13, 64, 0
1, 127911, Note_on_c, 13, 69, 0
1, 127911, Note_on_c, 14, 52, 98
1, 127912, Note_on_c, 13, 57, 0
1, 127912, Note_on_c, 15, 45, 0
1, 127912, Note_on_c, 15, 52, 0
1, 127912, Note_on_c, 11, 69, 60
1, 127913, Note_on_c, 11, 57, 61
1, 127918, Note_on_c, 9, 42, 96
1, 127920, Note_on_c, 3, 76, 105
1, 127922, Note_on_c, 1, 33, 116
1, 127930, Note_on_c, 13, 57, 61
1, 127930, Note_on_c, 13, 64, 60
1, 127930, Note_on_c, 15, 45, 98
1, 127930, Note_on_c, 15, 52, 98
1, 127931, Note_on_c, 13, 69, 60
1, 127938, Note_on_c, 9, 42, 0
1, 128062, Note_on_c, 1, 33, 0
1, 128129, Note_on_c, 11, 64, 0
1, 128132, Note_on_c, 11, 69, 0
1, 128133, Note_on_c, 11, 57, 0
1, 128140, Note_on_c, 3, 76, 0
1, 128149, Note_on_c, 11, 69, 61
1, 128150, Note_on_c, 13, 57, 0
1, 128150, Note_on_c, 13, 64, 0
1, 128151, Note_on_c, 13, 69, 0
1, 128152, Note_on_c, 11, 57, 60
1, 128152, Note_on_c, 11, 64, 60
1, 128158, Note_on_c, 1, 33, 117
1, 128159, Note_on_c, 9, 42, 127
1, 128160, Note_on_c, 3, 77, 104
1, 128162, Note_on_c, 9, 40, 126
1, 128168, Note_on_c, 13, 64, 61
1, 128172, Note_on_c, 13, 57, 61
1, 128172, Note_on_c, 13, 69, 60
1, 128179, Note_on_c, 9, 42, 0
1, 128182, Note_on_c, 9, 40, 0
1, 128298, Note_on_c, 1, 33, 0
1, 128369, Note_on_c, 11, 69, 0
1, 128370, Note_on_c, 14, 45, 0
1, 128371, Note_on_c, 14, 52, 0
1, 128372, Note_on_c, 11, 57, 0
1, 128372, Note_on_c, 11, 64, 0
1, 128380, Note_on_c, 3, 77, 0
1, 128388, Note_on_c, 13, 64, 0
1, 128389, Note_on_c, 11, 69, 61
1, 128390, Note_on_c, 15, 45, 0
1, 128390, Note_on_c, 15, 52, 0
1, 128390, Note_on_c, 11, 64, 61
1, 128390, Note_on_c, 14, 45, 99
1, 128390, Note_on_c, 14, 52, 98
1, 128392, Note_on_c, 13, 57, 0
1, 128392, Note_on_c, 13, 69, 0
1, 128392, Note_on_c, 11, 57, 60
1, 128399, Note_on_c, 1, 33, 110
1, 128400, Note_on_c, 3, 79, 105
1, 128403, Note_on_c, 9, 42, 94
1, 128408, Note_on_c, 13, 57, 60
1, 128410, Note_on_c, 13, 64, 61
1, 128410, Note_on_c, 13, 69, 61
1, 128410, Note_on_c, 15, 52, 99
1, 128412, Note_on_c, 15, 45, 98
1, 128423, Note_on_c, 9, 42, 0
1, 128489, Note_on_c, 11, 69, 0
1, 128490, Note_on_c, 11, 64, 0
1, 128490, Note_on_c, 14, 45, 0
1, 128490, Note_on_c, 14, 52, 0
1, 128492, Note_on_c, 11, 57, 0
1, 128499, Note_on_c, 1, 33, 0
1, 128508, Note_on_c, 13, 57, 0
1, 128509, Note_on_c, 11, 64, 60
1, 128509, Note_on_c, 11, 69, 61
1, 128510, Note_on_c, 13, 64, 0
1, 128510, Note_on_c, 13, 69, 0
1, 128510, Note_on_c, 15, 52, 0
1, 128510, Note_on_c, 11, 57, 60
1, 128510, Note_on_c, 14, 45, 99
1, 128511, Note_on_c, 14, 52, 99
1, 128512, Note_on_c, 15, 45, 0
1, 128521, Note_on_c, 1, 33, 113
1, 128528, Note_on_c, 13, 64, 60
1, 128530, Note_on_c, 15, 52, 99
1, 128531, Note_on_c, 13, 69, 60
1, 128532, Note_on_c, 13, 57, 61
1, 128533, Note_on_c, 15, 45, 99
1, 128609, Note_on_c, 11, 64, 0
1, 128609, Note_on_c, 11, 69, 0
1, 128610, Note_on_c, 11, 57, 0
1, 128610, Note_on_c, 14, 45, 0
1, 128611, Note_on_c, 14, 52, 0
1, 128620, Note_on_c, 3, 79, 0
1, 128621, Note_on_c, 1, 33, 0
1, 128628, Note_on_c, 13, 64, 0
1, 128629, Note_on_c, 11, 69, 61
1, 128629, Note_on_c, 14, 52, 98
1, 128630, Note_on_c, 15, 52, 0
1, 128631, Note_on_c, 13, 69, 0
1, 128632, Note_on_c, 13, 57, 0
1, 128632, Note_on_c, 11, 57, 61
1, 128633, Note_on_c, 15, 45, 0
1, 128633, Note_on_c, 11, 64, 60
1, 128633, Note_on_c, 14, 45, 99
1, 128638, Note_on_c, 7, 69, 60
1, 128638, Note_on_c, 9, 42, 126
1, 128639, Note_on_c, 1, 33, 117
1, 128640, Note_on_c, 3, 81, 104
1, 128641, Note_on_c, 9, 36, 126
1, 128649, Note_on_c, 13, 57, 60
1, 128649, Note_on_c, 15, 52, 98
1, 128651, Note_on_c, 15, 45, 99
1, 128652, Note_on_c, 13, 64, 61
1, 128653, Note_on_c, 13, 69, 61
1, 128658, Note_on_c, 9, 42, 0
1, 128661, Note_on_c, 9, 36, 0
1, 128779, Note_on_c, 1, 33, 0
1, 128849, Note_on_c, 11, 69, 0
1, 128849, Note_on_c, 14, 52, 0
1, 128852, Note_on_c, 11, 57, 0
1, 128853, Note_on_c, 11, 64, 0
1, 128853, Note_on_c, 14, 45, 0
1, 128869, Note_on_c, 13, 57, 0
1, 128869, Note_on_c, 15, 52, 0
1, 128869, Note_on_c, 11, 57, 61
1, 128869, Note_on_c, 11, 64, 60
1, 128869, Note_on_c, 11, 69, 60
1, 128871, Note_on_c, 15, 45, 0
1, 128871, Note_on_c, 14, 52, 98
1, 128872, Note_on_c, 13, 64, 0
1, 128872, Note_on_c, 14, 45, 98
1, 128873, Note_on_c, 13, 69, 0
1, 128878, Note_on_c, 9, 42, 91
1, 128880, Note_on_c, 1, 33, 118
1, 128889, Note_on_c, 13, 57, 60
1, 128890, Note_on_c, 13, 64, 61
1, 128890, Note_on_c, 13, 69, 60
1, 128891, Note_on_c, 15, 45, 98
1, 128891, Note_on_c, 15, 52, 98
1, 128898, Note_on_c, 9, 42, 0
1, 128954, System_exclusive, 32, 0, 32, 36, 0, 4, 73, 32, 78, 69, 69, 68, 32, 84, 79, 32, 80, 82, 65, 89, 32, 79, 72, 32, 79, 72, 32, 67, 65, 82, 69, 10, 247
1, 128959, System_exclusive, 25, 0, 32, 36, 0, 5, 79, 72, 32, 72, 69, 65, 86, 69, 78, 76, 89, 32, 70, 65, 84, 72, 69, 82, 10, 247
1, 128964, System_exclusive, 26, 0, 32, 36, 0, 6, 79, 72, 32, 83, 65, 86, 69, 32, 77, 69, 32, 79, 72, 32, 79, 72, 32, 79, 72, 10, 247
1, 128969, System_exclusive, 7, 0, 32, 36, 0, 7, 10, 247
1, 128979, System_exclusive, 6, 0, 32, 36, 0, 8, 247
1, 128980, Note_on_c, 1, 33, 0
1, 128999, Note_on_c, 1, 33, 115
1, 129089, Note_on_c, 11, 57, 0
1, 129089, Note_on_c, 11, 64, 0
1, 129089, Note_on_c, 11, 69, 0
1, 129099, Note_on_c, 1, 33, 0
1, 129108, Note_on_c, 11, 57, 61
1, 129109, Note_on_c, 13, 57, 0
1, 129109, Note_on_c, 11, 69, 61
1, 129110, Note_on_c, 13, 64, 0
1, 129110, Note_on_c, 13, 69, 0
1, 129112, Note_on_c, 11, 64, 60
1, 129118, Note_on_c, 1, 33, 118
1, 129118, Note_on_c, 9, 40, 126
1, 129120, Note_on_c, 9, 42, 127
1, 129129, Note_on_c, 13, 57, 60
1, 129129, Note_on_c, 13, 64, 61
1, 129132, Note_on_c, 13, 69, 61
1, 129138, Note_on_c, 9, 40, 0
1, 129140, Note_on_c, 9, 42, 0
1, 129218, Note_on_c, 1, 33, 0
1, 129328, Note_on_c, 11, 57, 0
1, 129329, Note_on_c, 11, 69, 0
1, 129331, Note_on_c, 14, 52, 0
1, 129332, Note_on_c, 11, 64, 0
1, 129332, Note_on_c, 14, 45, 0
1, 129348, Note_on_c, 14, 52, 99
1, 129349, Note_on_c, 13, 57, 0
1, 129349, Note_on_c, 13, 64, 0
1, 129349, Note_on_c, 11, 64, 60
1, 129350, Note_on_c, 11, 69, 61
1, 129351, Note_on_c, 15, 45, 0
1, 129351, Note_on_c, 15, 52, 0
1, 129351, Note_on_c, 11, 57, 61
1, 129352, Note_on_c, 13, 69, 0
1, 129352, Note_on_c, 14, 45, 99
1, 129359, Note_on_c, 1, 33, 118
1, 129359, Note_on_c, 9, 42, 94
1, 129368, Note_on_c, 13, 64, 60
1, 129369, Note_on_c, 13, 57, 60
1, 129370, Note_on_c, 15, 45, 99
1, 129371, Note_on_c, 13, 69, 61
1, 129372, Note_on_c, 15, 52, 99
1, 129379, Note_on_c, 9, 42, 0
1, 129448, Note_on_c, 14, 52, 0
1, 129452, Note_on_c, 14, 45, 0
1, 129459, Note_on_c, 1, 33, 0
1, 129470, Note_on_c, 15, 45, 0
1, 129470, Note_on_c, 14, 52, 98
1, 129471, Note_on_c, 14, 45, 98
1, 129472, Note_on_c, 15, 52, 0
1, 129482, Note_on_c, 1, 33, 117
1, 129489, Note_on_c, 15, 52, 98
1, 129492, Note_on_c, 15, 45, 98
1, 129569, Note_on_c, 11, 64, 0
1, 129570, Note_on_c, 11, 69, 0
1, 129570, Note_on_c, 14, 52, 0
1, 129571, Note_on_c, 11, 57, 0
1, 129571, Note_on_c, 14, 45, 0
1, 129580, Note_on_c, 3, 81, 0
1, 129582, Note_on_c, 1, 33, 0
1, 129588, Note_on_c, 13, 64, 0
1, 129588, Note_on_c, 11, 57, 60
1, 129589, Note_on_c, 13, 57, 0
1, 129589, Note_on_c, 15, 52, 0
1, 129589, Note_on_c, 14, 52, 99
1, 129590, Note_on_c, 11, 64, 60
1, 129591, Note_on_c, 13, 69, 0
1, 129592, Note_on_c, 15, 45, 0
1, 129592, Note_on_c, 11, 69, 61
1, 129593, Note_on_c, 14, 45, 99
1, 129598, Note_on_c, 1, 33, 113
1, 129601, Note_on_c, 9, 36, 127
1, 129602, Note_on_c, 9, 42, 126
1, 129608, Note_on_c, 15, 52, 99
1, 129610, Note_on_c, 13, 57, 61
1, 129610, Note_on_c, 13, 64, 60
1, 129610, Note_on_c, 15, 45, 99
1, 129613, Note_on_c, 13, 69, 60
1, 129621, Note_on_c, 9, 36, 0
1, 129622, Note_on_c, 9, 42, 0
1, 129738, Note_on_c, 1, 33, 0
1, 129808, Note_on_c, 11, 57, 0
1, 129809, Note_on_c, 14, 52, 0
1, 129810, Note_on_c, 11, 64, 0
1, 129812, Note_on_c, 11, 69, 0
1, 129813, Note_on_c, 14, 45, 0
1, 129828, Note_on_c, 15, 52, 0
1, 129829, Note_on_c, 11, 57, 60
1, 129830, Note_on_c, 13, 57, 0
1, 129830, Note_on_c, 13, 64, 0
1, 129830, Note_on_c, 15, 45, 0
1, 129830, Note_on_c, 14, 52, 98
1, 129831, Note_on_c, 11, 64, 61
1, 129831, Note_on_c, 11, 69, 61
1, 129832, Note_on_c, 14, 45, 98
1, 129833, Note_on_c, 13, 69, 0
1, 129839, Note_on_c, 9, 36, 127
1, 129839, Note_on_c, 9, 42, 97
1, 129840, Note_on_c, 3, 81, 104
1, 129842, Note_on_c, 1, 33, 112
1, 129849, Note_on_c, 13, 57, 61
1, 129849, Note_on_c, 13, 64, 60
1, 129849, Note_on_c, 15, 45, 98
1, 129851, Note_on_c, 13, 69, 61
1, 129852, Note_on_c, 15, 52, 98
1, 129859, Note_on_c, 9, 36, 0
1, 129859, Note_on_c, 9, 42, 0
1, 129929, Note_on_c, 11, 57, 0
1, 129931, Note_on_c, 11, 64, 0
1, 129931, Note_on_c, 11, 69, 0
1, 129949, Note_on_c, 13, 57, 0
1, 129949, Note_on_c, 13, 64, 0
1, 129951, Note_on_c, 13, 69, 0
1, 129952, Note_on_c, 11, 64, 60
1, 129952, Note_on_c, 11, 69, 61
1, 129953, Note_on_c, 11, 57, 60
1, 129971, Note_on_c, 13, 57, 61
1, 129971, Note_on_c, 13, 64, 60
1, 129972, Note_on_c, 13, 69, 61
1, 129982, Note_on_c, 1, 33, 0
1, 130052, Note_on_c, 11, 64, 0
1, 130052, Note_on_c, 11, 69, 0
1, 130053, Note_on_c, 11, 57, 0
1, 130060, Note_on_c, 3, 81, 0
1, 130069, Note_on_c, 11, 69, 60
1, 130071, Note_on_c, 13, 57, 0
1, 130071, Note_on_c, 13, 64, 0
1, 130071, Note_on_c, 11, 64, 61
1, 130072, Note_on_c, 13, 69, 0
1, 130073, Note_on_c, 11, 57, 61
1, 130078, Note_on_c, 9, 44, 126
1, 130080, Note_on_c, 1, 33, 116
1, 130080, Note_on_c, 3, 81, 105
1, 130082, Note_on_c, 9, 40, 127
1, 130088, Note_on_c, 13, 57, 60
1, 130089, Note_on_c, 13, 64, 60
1, 130089, Note_on_c, 13, 69, 61
1, 130098, Note_on_c, 9, 44, 0
1, 130102, Note_on_c, 9, 40, 0
1, 130200, Note_on_c, 9, 40, 101
1, 130220, Note_on_c, 1, 33, 0
1, 130220, Note_on_c, 9, 40, 0
1, 130289, Note_on_c, 11, 69, 0
1, 130290, Note_on_c, 14, 52, 0
1, 130291, Note_on_c, 11, 64, 0
1, 130292, Note_on_c, 14, 45, 0
1, 130293, Note_on_c, 11, 57, 0
1, 130300, Note_on_c, 3, 81, 0
1, 130308, Note_on_c, 13, 57, 0
1, 130309, Note_on_c, 13, 64, 0
1, 130309, Note_on_c, 13, 69, 0
1, 130309, Note_on_c, 15, 45, 0
1, 130309, Note_on_c, 11, 57, 60
1, 130309, Note_on_c, 11, 69, 60
1, 130309, Note_on_c, 14, 45, 99
1, 130310, Note_on_c, 11, 64, 61
1, 130311, Note_on_c, 14, 52, 98
1, 130312, Note_on_c, 15, 52, 0
1, 130320, Note_on_c, 3, 84, 105
1, 130322, Note_on_c, 1, 33, 113
1, 130322, Note_on_c, 9, 45, 104
1, 130329, Note_on_c, 13, 57, 61
1, 130331, Note_on_c, 13, 64, 60
1, 130331, Note_on_c, 13, 69, 60
1, 130331, Note_on_c, 15, 45, 99
1, 130331, Note_on_c, 15, 52, 98
1, 130342, Note_on_c, 9, 45, 0
1, 130422, Note_on_c, 1, 33, 0
1, 130440, Note_on_c, 1, 33, 115
1, 130442, Note_on_c, 9, 43, 65
1, 130462, Note_on_c, 9, 43, 0
1, 130529, Note_on_c, 11, 57, 0
1, 130529, Note_on_c, 11, 69, 0
1, 130529, Note_on_c, 14, 45, 0
1, 130530, Note_on_c, 11, 64, 0
1, 130531, Note_on_c, 14, 52, 0
1, 130538, Note_on_c, 7, 61, 0
1, 130538, Note_on_c, 7, 69, 0
1, 130539, Note_on_c, 8, 33, 0
1, 130539, Note_on_c, 8, 45, 0
1, 130540, Note_on_c, 1, 33, 0
1, 130542, Note_on_c, 7, 57, 0
1, 130542, Note_on_c, 8, 52, 0
1, 130548, Note_on_c, 11, 65, 61
1, 130549, Note_on_c, 13, 57, 0
1, 130551, Note_on_c, 13, 64, 0
1, 130551, Note_on_c, 13, 69, 0
1, 130551, Note_on_c, 15, 45, 0
1, 130551, Note_on_c, 15, 52, 0
1, 130551, Note_on_c, 11, 57, 60
1, 130551, Note_on_c, 14, 57, 99
1, 130552, Note_on_c, 11, 62, 60
1, 130552, Note_on_c, 14, 50, 99
1, 130558, Note_on_c, 8, 38, 72
1, 130559, Note_on_c, 7, 65, 73
1, 130559, Note_on_c, 8, 57, 73
1, 130560, Note_on_c, 1, 26, 112
1, 130560, Note_on_c, 9, 49, 70
1, 130561, Note_on_c, 7, 57, 73
1, 130561, Note_on_c, 8, 50, 73
1, 130563, Note_on_c, 7, 62, 72
1, 130563, Note_on_c, 9, 36, 126
1, 130568, Note_on_c, 13, 62, 61
1, 130568, Note_on_c, 15, 52, 99
1, 130569, Note_on_c, 13, 57, 61
1, 130569, Note_on_c, 13, 65, 60
1, 130569, Note_on_c, 15, 45, 99
1, 130580, Note_on_c, 9, 49, 0
1, 130583, Note_on_c, 9, 36, 0
1, 131369, Control_c, 14, 11, 125
1, 131384, Control_c, 15, 11, 125
1, 131394, Control_c, 14, 11, 122
1, 131409, Control_c, 15, 11, 122
1, 131435, Control_c, 14, 11, 120
1, 131450, Control_c, 15, 11, 120
1, 131472, Control_c, 14, 11, 119
1, 131487, Control_c, 15, 11, 119
1, 131500, Note_on_c, 3, 84, 0
1, 131500, Control_c, 14, 11, 116
1, 131515, Control_c, 15, 11, 116
1, 131552, Control_c, 14, 11, 117
1, 131567, Control_c, 15, 11, 117
1, 131592, Control_c, 14, 11, 115
1, 131607, Control_c, 15, 11, 115
1, 131631, Control_c, 14, 11, 112
1, 131646, Control_c, 15, 11, 112
1, 131670, Control_c, 14, 11, 111
1, 131685, Control_c, 15, 11, 111
1, 131723, Control_c, 14, 11, 108
1, 131738, Control_c, 15, 11, 108
1, 131763, Control_c, 14, 11, 108
1, 131778, Control_c, 15, 11, 108
1, 131801, Control_c, 14, 11, 107
1, 131816, Control_c, 15, 11, 107
1, 131841, Control_c, 14, 11, 105
1, 131856, Control_c, 15, 11, 105
1, 131881, Control_c, 14, 11, 102
1, 131896, Control_c, 15, 11, 102
1, 131919, Control_c, 14, 11, 100
1, 131934, Control_c, 15, 11, 100
1, 131960, Control_c, 14, 11, 101
1, 131975, Control_c, 15, 11, 101
1, 131985, Control_c, 14, 11, 99
1, 132000, Control_c, 15, 11, 99
1, 132013, Control_c, 14, 11, 96
1, 132028, Control_c, 15, 11, 96
1, 132037, Control_c, 14, 11, 94
1, 132052, Control_c, 15, 11, 94
1, 132065, Control_c, 14, 11, 93
1, 132077, Control_c, 14, 11, 90
1, 132080, Control_c, 15, 11, 93
1, 132092, Control_c, 15, 11, 90
1, 132103, Control_c, 14, 11, 91
1, 132118, Control_c, 15, 11, 91
1, 132144, Control_c, 14, 11, 89
1, 132159, Control_c, 15, 11, 89
1, 132196, Control_c, 14, 11, 86
1, 132211, Control_c, 15, 11, 86
1, 132247, Control_c, 14, 11, 85
1, 132262, Control_c, 15, 11, 85
1, 132288, Control_c, 14, 11, 84
1, 132303, Control_c, 15, 11, 84
1, 132314, Control_c, 14, 11, 82
1, 132329, Control_c, 15, 11, 82
1, 132339, Control_c, 14, 11, 81
1, 132354, Control_c, 15, 11, 81
1, 132379, Control_c, 14, 11, 79
1, 132394, Control_c, 15, 11, 79
1, 132405, Control_c, 14, 11, 76
1, 132420, Control_c, 15, 11, 76
1, 132431, Control_c, 14, 11, 74
1, 132446, Control_c, 15, 11, 74
1, 132470, Program_c, 9, 48
1, 132470, Control_c, 9, 10, 84
1, 132470, Control_c, 9, 91, 127
1, 132472, Control_c, 14, 11, 75
1, 132479, Note_on_c, 9, 36, 73
1, 132487, Control_c, 15, 11, 75
1, 132499, Note_on_c, 9, 36, 0
1, 132551, Control_c, 14, 11, 73
1, 132566, Control_c, 15, 11, 73
1, 132630, Control_c, 14, 11, 70
1, 132645, Control_c, 15, 11, 70
1, 132682, Control_c, 14, 11, 68
1, 132697, Control_c, 15, 11, 68
1, 132709, Control_c, 14, 11, 69
1, 132722, Note_on_c, 9, 36, 64
1, 132724, Control_c, 15, 11, 69
1, 132742, Note_on_c, 9, 36, 0
1, 132747, Control_c, 14, 11, 66
1, 132762, Control_c, 15, 11, 66
1, 132787, Control_c, 14, 11, 65
1, 132802, Control_c, 15, 11, 65
1, 132840, Control_c, 14, 11, 63
1, 132855, Control_c, 15, 11, 63
1, 132878, Control_c, 14, 11, 60
1, 132893, Control_c, 15, 11, 60
1, 132905, Control_c, 14, 11, 59
1, 132920, Control_c, 15, 11, 59
1, 132958, Control_c, 14, 11, 58
1, 132973, Control_c, 15, 11, 58
1, 132982, Control_c, 14, 11, 56
1, 132997, Control_c, 15, 11, 56
1, 133010, Control_c, 14, 11, 55
1, 133025, Control_c, 15, 11, 55
1, 133035, Control_c, 14, 11, 53
1, 133050, Control_c, 15, 11, 53
1, 133062, Control_c, 14, 11, 50
1, 133077, Control_c, 15, 11, 50
1, 133089, Control_c, 14, 11, 48
1, 133104, Control_c, 15, 11, 48
1, 133114, Control_c, 14, 11, 49
1, 133129, Control_c, 15, 11, 49
1, 133155, Control_c, 14, 11, 47
1, 133170, Control_c, 15, 11, 47
1, 133193, Control_c, 14, 11, 44
1, 133208, Control_c, 15, 11, 44
1, 133220, Control_c, 14, 11, 42
1, 133232, Control_c, 14, 11, 43
1, 133235, Control_c, 15, 11, 42
1, 133247, Control_c, 15, 11, 43
1, 133299, Control_c, 14, 11, 40
1, 133314, Control_c, 15, 11, 40
1, 133365, Control_c, 14, 11, 39
1, 133380, Control_c, 15, 11, 39
1, 133417, Control_c, 14, 11, 37
1, 133432, Control_c, 15, 11, 37
1, 133442, Control_c, 14, 11, 34
1, 133457, Control_c, 15, 11, 34
1, 133470, Control_c, 14, 11, 35
1, 133485, Control_c, 15, 11, 35
1, 133495, Control_c, 14, 11, 31
1, 133510, Control_c, 15, 11, 31
1, 133535, Control_c, 14, 11, 31
1, 133550, Control_c, 15, 11, 31
1, 133560, Control_c, 14, 11, 29
1, 133574, Control_c, 14, 11, 27
1, 133575, Control_c, 15, 11, 29
1, 133588, Control_c, 14, 11, 26
1, 133589, Control_c, 15, 11, 27
1, 133600, Control_c, 14, 11, 24
1, 133603, Control_c, 15, 11, 26
1, 133615, Control_c, 15, 11, 24
1, 133626, Control_c, 14, 11, 22
1, 133641, Control_c, 15, 11, 22
1, 133654, Control_c, 14, 11, 19
1, 133666, Control_c, 14, 11, 17
1, 133669, Control_c, 15, 11, 19
1, 133679, Control_c, 14, 11, 16
1, 133681, Control_c, 15, 11, 17
1, 133692, Control_c, 14, 11, 14
1, 133694, Control_c, 15, 11, 16
1, 133707, Control_c, 14, 11, 12
1, 133707, Control_c, 15, 11, 14
1, 133722, Control_c, 15, 11, 12
1, 133758, Control_c, 14, 11, 11
1, 133773, Control_c, 15, 11, 11
1, 133811, Control_c, 14, 11, 9
1, 133826, Control_c, 15, 11, 9
1, 133864, Control_c, 14, 11, 7
1, 133879, Control_c, 15, 11, 7
1, 133889, Control_c, 14, 11, 4
1, 133904, Control_c, 14, 11, 126
1, 133904, Control_c, 15, 11, 4
1, 133914, Control_c, 15, 11, 126
1, 134040, Note_on_c, 3, 72, 104
1, 134139, Note_on_c, 7, 65, 0
1, 134139, Note_on_c, 8, 57, 0
1, 134141, Note_on_c, 7, 57, 0
1, 134143, Note_on_c, 7, 62, 0
1, 134145, Program_c, 8, 49
1, 134161, Note_on_c, 7, 53, 96
1, 134162, Note_on_c, 7, 65, 97
1, 134162, Note_on_c, 8, 53, 108
1, 134163, Note_on_c, 7, 62, 97
1, 134261, Note_on_c, 7, 53, 0
1, 134262, Note_on_c, 7, 65, 0
1, 134262, Note_on_c, 8, 53, 0
1, 134263, Note_on_c, 7, 62, 0
1, 134281, Note_on_c, 7, 67, 96
1, 134281, Note_on_c, 8, 55, 108
1, 134283, Note_on_c, 7, 55, 96
1, 134283, Note_on_c, 7, 62, 97
1, 134368, Note_on_c, 11, 65, 0
1, 134371, Note_on_c, 11, 57, 0
1, 134371, Note_on_c, 14, 57, 0
1, 134372, Note_on_c, 11, 62, 0
1, 134372, Note_on_c, 14, 50, 0
1, 134378, Note_on_c, 8, 38, 0
1, 134380, Note_on_c, 1, 26, 0
1, 134380, Note_on_c, 3, 72, 0
1, 134381, Note_on_c, 7, 67, 0
1, 134381, Note_on_c, 8, 50, 0
1, 134381, Note_on_c, 8, 55, 0
1, 134383, Note_on_c, 7, 55, 0
1, 134383, Note_on_c, 7, 62, 0
1, 134388, Note_on_c, 13, 62, 0
1, 134388, Note_on_c, 15, 52, 0
1, 134389, Note_on_c, 13, 57, 0
1, 134389, Note_on_c, 13, 65, 0
1, 134389, Note_on_c, 15, 45, 0
1, 134390, Note_on_c, 14, 43, 98
1, 134392, Note_on_c, 14, 50, 99
1, 134399, Note_on_c, 1, 31, 102
1, 134399, Note_on_c, 9, 36, 102
1, 134400, Note_on_c, 3, 74, 104
1, 134400, Note_on_c, 9, 59, 65
1, 134401, Note_on_c, 7, 55, 96
1, 134401, Note_on_c, 7, 62, 97
1, 134401, Note_on_c, 8, 55, 109
1, 134403, Note_on_c, 7, 67, 97
1, 134403, Note_on_c, 8, 31, 108
1, 134410, Note_on_c, 15, 43, 98
1, 134411, Note_on_c, 15, 50, 99
1, 134419, Note_on_c, 9, 36, 0
1, 134420, Note_on_c, 9, 59, 0
1, 134690, Program_c, 7, 49
1, 134860, Note_on_c, 3, 74, 0
1, 134880, Note_on_c, 3, 79, 105
1, 135100, Note_on_c, 3, 79, 0
1, 135120, Note_on_c, 3, 77, 105
1, 135390, System_exclusive, 6, 0, 32, 36, 0, 8, 247
1, 135940, Note_on_c, 3, 77, 0
1, 136160, Note_on_c, 3, 77, 104
1, 136162, Note_on_c, 9, 36, 55
1, 136181, Note_on_c, 7, 55, 0
1, 136181, Note_on_c, 7, 62, 0
1, 136181, Note_on_c, 8, 55, 0
1, 136182, Note_on_c, 9, 36, 0
1, 136183, Note_on_c, 7, 67, 0
1, 136199, Note_on_c, 7, 65, 108
1, 136201, Note_on_c, 7, 53, 109
1, 136201, Note_on_c, 7, 62, 108
1, 136203, Note_on_c, 8, 53, 109
1, 136239, Note_on_c, 9, 36, 77
1, 136259, Note_on_c, 9, 36, 0
1, 136299, Note_on_c, 7, 65, 0
1, 136301, Note_on_c, 7, 53, 0
1, 136301, Note_on_c, 7, 62, 0
1, 136303, Note_on_c, 8, 53, 0
1, 136320, Note_on_c, 7, 55, 108
1, 136321, Note_on_c, 7, 62, 109
1, 136321, Note_on_c, 7, 67, 109
1, 136321, Note_on_c, 8, 55, 109
1, 136323, Note_on_c, 9, 36, 102
1, 136343, Note_on_c, 9, 36, 0
1, 136561, Note_on_c, 9, 36, 102
1, 136581, Note_on_c, 9, 36, 0
1, 136900, Note_on_c, 7, 55, 0
1, 136901, Note_on_c, 8, 55, 0
1, 136918, Note_on_c, 7, 54, 108
1, 136922, Note_on_c, 8, 54, 108
1, 137018, Note_on_c, 7, 54, 0
1, 137021, Note_on_c, 7, 62, 0
1, 137021, Note_on_c, 7, 67, 0
1, 137022, Note_on_c, 8, 54, 0
1, 137038, Note_on_c, 7, 55, 108
1, 137041, Note_on_c, 7, 62, 109
1, 137042, Note_on_c, 7, 65, 109
1, 137043, Note_on_c, 8, 55, 109
1, 137097, Note_on_c, 9, 43, 36
1, 137117, Note_on_c, 9, 43, 0
1, 137208, Note_on_c, 9, 45, 25
1, 137228, Note_on_c, 9, 45, 0
1, 137260, Note_on_c, 3, 77, 0
1, 137261, Note_on_c, 7, 62, 0
1, 137262, Note_on_c, 7, 65, 0
1, 137278, Note_on_c, 7, 67, 108
1, 137279, Note_on_c, 7, 64, 108
1, 137280, Note_on_c, 3, 76, 104
1, 137280, Note_on_c, 9, 43, 33
1, 137300, Note_on_c, 9, 43, 0
1, 137358, Note_on_c, 9, 45, 53
1, 137378, Note_on_c, 9, 45, 0
1, 137449, Note_on_c, 9, 43, 44
1, 137469, Note_on_c, 9, 43, 0
1, 137498, Note_on_c, 7, 55, 0
1, 137498, Note_on_c, 7, 67, 0
1, 137499, Note_on_c, 7, 64, 0
1, 137503, Note_on_c, 8, 55, 0
1, 137520, Note_on_c, 7, 53, 109
1, 137521, Note_on_c, 7, 65, 108
1, 137521, Note_on_c, 8, 53, 108
1, 137521, Note_on_c, 9, 45, 44
1, 137523, Note_on_c, 7, 62, 109
1, 137541, Note_on_c, 9, 45, 0
1, 137580, Note_on_c, 3, 76, 0
1, 137593, Note_on_c, 9, 43, 68
1, 137600, Note_on_c, 3, 77, 105
1, 137613, Note_on_c, 9, 43, 0
1, 137681, Note_on_c, 9, 45, 57
1, 137701, Note_on_c, 9, 45, 0
1, 137721, Note_on_c, 7, 65, 0
1, 137723, Note_on_c, 7, 62, 0
1, 137741, Note_on_c, 7, 53, 0
1, 137742, Note_on_c, 8, 53, 0
1, 137759, Note_on_c, 7, 64, 109
1, 137759, Note_on_c, 7, 67, 108
1, 137759, Note_on_c, 9, 43, 59
1, 137760, Note_on_c, 7, 52, 109
1, 137761, Note_on_c, 8, 52, 108
1, 137779, Note_on_c, 9, 43, 0
1, 137843, Note_on_c, 9, 45, 50
1, 137863, Note_on_c, 9, 45, 0
1, 137899, Note_on_c, 7, 64, 0
1, 137899, Note_on_c, 7, 67, 0
1, 137900, Note_on_c, 3, 77, 0
1, 137900, Note_on_c, 7, 52, 0
1, 137901, Note_on_c, 8, 52, 0
1, 137911, Note_on_c, 9, 43, 59
1, 137919, Note_on_c, 7, 50, 108
1, 137920, Note_on_c, 3, 76, 104
1, 137920, Note_on_c, 7, 65, 108
1, 137921, Note_on_c, 7, 62, 109
1, 137922, Note_on_c, 8, 50, 109
1, 137931, Note_on_c, 9, 43, 0
1, 137999, Note_on_c, 9, 45, 60
1, 138019, Note_on_c, 9, 45, 0
1, 138059, Note_on_c, 7, 50, 0
1, 138062, Note_on_c, 8, 50, 0
1, 138066, Note_on_c, 9, 43, 80
1, 138080, Note_on_c, 8, 48, 109
1, 138082, Note_on_c, 7, 48, 109
1, 138086, Note_on_c, 9, 43, 0
1, 138140, Note_on_c, 7, 65, 0
1, 138141, Note_on_c, 7, 62, 0
1, 138160, Note_on_c, 7, 64, 108
1, 138160, Note_on_c, 7, 67, 108
1, 138210, Note_on_c, 14, 43, 0
1, 138212, Note_on_c, 14, 50, 0
1, 138219, Note_on_c, 1, 31, 0
1, 138220, Note_on_c, 3, 76, 0
1, 138220, Note_on_c, 8, 48, 0
1, 138222, Note_on_c, 7, 48, 0
1, 138223, Note_on_c, 8, 31, 0
1, 138230, Note_on_c, 7, 64, 0
1, 138230, Note_on_c, 7, 67, 0
1, 138230, Note_on_c, 15, 43, 0
1, 138231, Note_on_c, 15, 50, 0
1, 138231, Note_on_c, 14, 53, 98
1, 138232, Note_on_c, 14, 46, 98
1, 138239, Note_on_c, 1, 34, 103
1, 138239, Note_on_c, 7, 46, 109
1, 138240, Note_on_c, 3, 76, 105
1, 138240, Note_on_c, 7, 58, 109
1, 138241, Note_on_c, 8, 34, 108
1, 138242, Note_on_c, 7, 62, 108
1, 138242, Note_on_c, 8, 46, 108
1, 138243, Note_on_c, 7, 65, 108
1, 138248, Note_on_c, 15, 46, 98
1, 138252, Note_on_c, 15, 53, 98
1, 138483, Note_on_c, 9, 36, 103
1, 138503, Note_on_c, 9, 36, 0
1, 138540, Note_on_c, 3, 76, 0
1, 138560, Note_on_c, 3, 74, 105
1, 138690, System_exclusive, 6, 0, 32, 36, 0, 8, 247
1, 139095, Note_on_c, 9, 43, 28
1, 139115, Note_on_c, 9, 43, 0
1, 139180, Note_on_c, 3, 74, 0
1, 139284, Note_on_c, 9, 43, 27
1, 139304, Note_on_c, 9, 43, 0
1, 139343, Note_on_c, 7, 65, 0
1, 139359, Note_on_c, 7, 67, 109
1, 139394, Note_on_c, 9, 45, 49
1, 139414, Note_on_c, 9, 45, 0
1, 139474, Note_on_c, 9, 43, 37
1, 139494, Note_on_c, 9, 43, 0
1, 139499, Note_on_c, 7, 67, 0
1, 139521, Note_on_c, 7, 65, 108
1, 139545, Note_on_c, 9, 45, 41
1, 139565, Note_on_c, 9, 45, 0
1, 139629, Note_on_c, 9, 43, 48
1, 139649, Note_on_c, 9, 43, 0
1, 139661, Note_on_c, 7, 65, 0
1, 139678, Note_on_c, 7, 67, 109
1, 139691, Note_on_c, 9, 45, 44
1, 139711, Note_on_c, 9, 45, 0
1, 139772, Note_on_c, 9, 43, 52
1, 139792, Note_on_c, 9, 43, 0
1, 139856, Note_on_c, 9, 45, 48
1, 139876, Note_on_c, 9, 45, 0
1, 139925, Note_on_c, 9, 43, 65
1, 139945, Note_on_c, 9, 43, 0
1, 139978, Note_on_c, 7, 67, 0
1, 139993, Note_on_c, 9, 45, 77
1, 139998, Note_on_c, 7, 65, 109
1, 140000, Note_on_c, 3, 74, 104
1, 140013, Note_on_c, 9, 45, 0
1, 140053, Note_on_c, 9, 43, 64
1, 140073, Note_on_c, 9, 43, 0
1, 140131, Note_on_c, 14, 53, 0
1, 140132, Note_on_c, 14, 46, 0
1, 140138, Note_on_c, 7, 65, 0
1, 140139, Note_on_c, 1, 34, 0
1, 140139, Note_on_c, 7, 46, 0
1, 140140, Note_on_c, 3, 74, 0
1, 140140, Note_on_c, 7, 58, 0
1, 140141, Note_on_c, 8, 34, 0
1, 140142, Note_on_c, 7, 62, 0
1, 140142, Note_on_c, 8, 46, 0
1, 140148, Note_on_c, 15, 46, 0
1, 140150, Note_on_c, 14, 45, 99
1, 140152, Note_on_c, 15, 53, 0
1, 140152, Note_on_c, 14, 52, 99
1, 140158, Note_on_c, 1, 33, 104
1, 140158, Note_on_c, 7, 57, 108
1, 140160, Note_on_c, 3, 79, 105
1, 140162, Note_on_c, 7, 45, 109
1, 140162, Note_on_c, 7, 64, 108
1, 140163, Note_on_c, 8, 33, 109
1, 140163, Note_on_c, 8, 45, 109
1, 140172, Note_on_c, 15, 45, 99
1, 140173, Note_on_c, 15, 52, 99
1, 140400, Note_on_c, 9, 36, 103
1, 140420, Note_on_c, 9, 36, 0
1, 140460, Note_on_c, 3, 79, 0
1, 140480, Note_on_c, 3, 77, 104
1, 140935, Note_on_c, 9, 43, 37
1, 140955, Note_on_c, 9, 43, 0
1, 141052, Note_on_c, 9, 45, 25
1, 141072, Note_on_c, 9, 45, 0
1, 141100, Note_on_c, 3, 77, 0
1, 141122, Note_on_c, 9, 43, 33
1, 141142, Note_on_c, 9, 43, 0
1, 141197, Note_on_c, 9, 45, 52
1, 141217, Note_on_c, 9, 45, 0
1, 141262, Note_on_c, 7, 64, 0
1, 141281, Note_on_c, 7, 65, 108
1, 141289, Note_on_c, 9, 43, 44
1, 141309, Note_on_c, 9, 43, 0
1, 141360, Note_on_c, 9, 45, 44
1, 141380, Note_on_c, 9, 45, 0
1, 141421, Note_on_c, 7, 65, 0
1, 141438, Note_on_c, 7, 64, 109
1, 141438, Note_on_c, 9, 43, 69
1, 141458, Note_on_c, 9, 43, 0
1, 141526, Note_on_c, 9, 45, 57
1, 141546, Note_on_c, 9, 45, 0
1, 141578, Note_on_c, 7, 64, 0
1, 141600, Note_on_c, 9, 43, 58
1, 141603, Note_on_c, 7, 62, 109
1, 141620, Note_on_c, 9, 43, 0
1, 141681, Note_on_c, 9, 45, 50
1, 141701, Note_on_c, 9, 45, 0
1, 141750, Note_on_c, 9, 43, 58
1, 141760, Note_on_c, 3, 77, 104
1, 141770, Note_on_c, 9, 43, 0
1, 141840, Note_on_c, 9, 45, 61
1, 141860, Note_on_c, 9, 45, 0
1, 141903, Note_on_c, 7, 62, 0
1, 141905, Note_on_c, 9, 43, 81
1, 141919, Note_on_c, 7, 61, 108
1, 141925, Note_on_c, 9, 43, 0
1, 142050, Note_on_c, 14, 45, 0
1, 142052, Note_on_c, 14, 52, 0
1, 142058, Note_on_c, 1, 33, 0
1, 142058, Note_on_c, 7, 57, 0
1, 142059, Note_on_c, 7, 61, 0
1, 142062, Note_on_c, 7, 45, 0
1, 142063, Note_on_c, 8, 33, 0
1, 142063, Note_on_c, 8, 45, 0
1, 142069, Note_on_c, 14, 50, 98
1, 142069, Note_on_c, 14, 57, 98
1, 142072, Note_on_c, 15, 45, 0
1, 142073, Note_on_c, 15, 52, 0
1, 142079, Note_on_c, 9, 36, 102
1, 142081, Note_on_c, 1, 26, 103
1, 142081, Note_on_c, 7, 62, 108
1, 142081, Note_on_c, 9, 59, 65
1, 142082, Note_on_c, 7, 38, 109
1, 142082, Note_on_c, 8, 38, 108
1, 142083, Note_on_c, 7, 57, 109
1, 142083, Note_on_c, 8, 26, 108
1, 142089, Note_on_c, 15, 50, 98
1, 142090, Note_on_c, 15, 57, 98
1, 142099, Note_on_c, 9, 36, 0
1, 142101, Note_on_c, 9, 59, 0
1, 142220, Note_on_c, 3, 77, 0
1, 142240, Note_on_c, 3, 79, 105
1, 142700, Note_on_c, 3, 79, 0
1, 142720, Note_on_c, 3, 81, 105
1, 142934, Note_on_c, 9, 43, 29
1, 142954, Note_on_c, 9, 43, 0
1, 143009, Note_on_c, 14, 50, 0
1, 143009, Note_on_c, 14, 57, 0
1, 143021, Note_on_c, 1, 26, 0
1, 143022, Note_on_c, 7, 38, 0
1, 143022, Note_on_c, 8, 38, 0
1, 143023, Note_on_c, 7, 57, 0
1, 143023, Note_on_c, 8, 26, 0
1, 143029, Note_on_c, 15, 50, 0
1, 143030, Note_on_c, 15, 57, 0
1, 143030, Note_on_c, 14, 40, 99
1, 143039, Note_on_c, 1, 28, 101
1, 143040, Note_on_c, 8, 40, 109
1, 143041, Note_on_c, 7, 55, 108
1, 143041, Note_on_c, 8, 28, 108
1, 143042, Note_on_c, 7, 40, 108
1, 143042, Note_on_c, 7, 67, 109
1, 143048, Note_on_c, 15, 40, 99
1, 143125, Note_on_c, 9, 43, 26
1, 143145, Note_on_c, 9, 43, 0
1, 143230, Note_on_c, 9, 45, 49
1, 143250, Note_on_c, 9, 45, 0
1, 143314, Note_on_c, 9, 43, 36
1, 143334, Note_on_c, 9, 43, 0
1, 143382, Note_on_c, 9, 45, 40
1, 143402, Note_on_c, 9, 45, 0
1, 143468, Note_on_c, 9, 43, 49
1, 143488, Note_on_c, 9, 43, 0
1, 143534, Note_on_c, 9, 45, 45
1, 143554, Note_on_c, 9, 45, 0
1, 143610, Note_on_c, 9, 43, 53
1, 143630, Note_on_c, 9, 43, 0
1, 143695, Note_on_c, 9, 45, 48
1, 143715, Note_on_c, 9, 45, 0
1, 143757, System_exclusive, 31, 0, 32, 36, 0, 4, 65, 78, 68, 32, 73, 32, 87, 79, 78, 68, 69, 82, 32, 73, 70, 32, 89, 79, 85, 32, 75, 78, 79, 87, 10, 247
1, 143762, Note_on_c, 9, 43, 64
1, 143762, System_exclusive, 26, 0, 32, 36, 0, 5, 72, 79, 87, 32, 73, 84, 32, 82, 69, 65, 76, 76, 89, 32, 70, 69, 69, 76, 83, 10, 247
1, 143767, System_exclusive, 31, 0, 32, 36, 0, 6, 84, 79, 32, 66, 69, 32, 76, 69, 70, 84, 32, 79, 85, 84, 83, 73, 68, 69, 32, 65, 76, 79, 78, 69, 10, 247
1, 143772, System_exclusive, 30, 0, 32, 36, 0, 7, 87, 72, 69, 78, 32, 73, 84, 39, 83, 32, 67, 79, 76, 68, 32, 79, 85, 84, 32, 72, 69, 82, 69, 10, 247
1, 143782, Note_on_c, 9, 43, 0
1, 143782, System_exclusive, 6, 0, 32, 36, 0, 8, 247
1, 143837, Note_on_c, 9, 45, 76
1, 143857, Note_on_c, 9, 45, 0
1, 143892, Note_on_c, 9, 43, 64
1, 143912, Note_on_c, 9, 43, 0
1, 143970, Note_on_c, 14, 40, 0
1, 143979, Note_on_c, 1, 28, 0
1, 143980, Note_on_c, 3, 81, 0
1, 143980, Note_on_c, 8, 40, 0
1, 143981, Note_on_c, 7, 55, 0
1, 143981, Note_on_c, 8, 28, 0
1, 143982, Note_on_c, 7, 40, 0
1, 143982, Note_on_c, 7, 67, 0
1, 143988, Note_on_c, 15, 40, 0
1, 143988, Note_on_c, 14, 41, 99
1, 144000, Note_on_c, 7, 41, 108
1, 144000, Note_on_c, 8, 29, 109
1, 144001, Note_on_c, 1, 29, 100
1, 144002, Note_on_c, 7, 57, 109
1, 144002, Note_on_c, 8, 41, 109
1, 144003, Note_on_c, 7, 69, 109
1, 144010, Note_on_c, 15, 41, 99
1, 144720, Note_on_c, 3, 76, 104
1, 144720, Note_on_c, 4, 57, 1
1, 144720, Note_on_c, 4, 60, 1
1, 144720, Note_on_c, 4, 64, 1
1, 144768, Note_on_c, 14, 41, 0
1, 144774, Note_on_c, 9, 43, 37
1, 144780, Note_on_c, 7, 41, 0
1, 144780, Note_on_c, 8, 29, 0
1, 144781, Note_on_c, 1, 29, 0
1, 144782, Note_on_c, 7, 57, 0
1, 144782, Note_on_c, 8, 41, 0
1, 144783, Note_on_c, 7, 69, 0
1, 144789, Note_on_c, 14, 43, 98
1, 144790, Note_on_c, 15, 41, 0
1, 144794, Note_on_c, 9, 43, 0
1, 144799, Note_on_c, 1, 31, 105
1, 144799, Note_on_c, 8, 31, 108
1, 144799, Note_on_c, 8, 43, 109
1, 144800, Note_on_c, 7, 67, 108
1, 144801, Note_on_c, 7, 43, 109
1, 144802, Note_on_c, 7, 55, 108
1, 144810, Note_on_c, 15, 43, 98
1, 144820, Note_on_c, 3, 76, 0
1, 144820, Note_on_c, 4, 57, 0
1, 144820, Note_on_c, 4, 60, 0
1, 144820, Note_on_c, 4, 64, 0
1, 144840, Note_on_c, 3, 76, 104
1, 144840, Note_on_c, 4, 57, 1
1, 144840, Note_on_c, 4, 60, 1
1, 144840, Note_on_c, 4, 64, 1
1, 144891, Note_on_c, 9, 45, 25
1, 144911, Note_on_c, 9, 45, 0
1, 144929, Note_on_c, 14, 43, 0
1, 144939, Note_on_c, 1, 31, 0
1, 144939, Note_on_c, 8, 31, 0
1, 144939, Note_on_c, 8, 43, 0
1, 144940, Note_on_c, 3, 76, 0
1, 144940, Note_on_c, 4, 57, 0
1, 144940, Note_on_c, 4, 60, 0
1, 144940, Note_on_c, 4, 64, 0
1, 144940, Note_on_c, 7, 67, 0
1, 144941, Note_on_c, 7, 43, 0
1, 144941, Note_on_c, 7, 62, 0
1, 144942, Note_on_c, 7, 55, 0
1, 144950, Note_on_c, 15, 43, 0
1, 144950, Note_on_c, 14, 45, 98
1, 144958, Note_on_c, 7, 45, 108
1, 144959, Note_on_c, 1, 33, 100
1, 144960, Note_on_c, 3, 76, 105
1, 144960, Note_on_c, 4, 57, 1
1, 144960, Note_on_c, 4, 60, 1
1, 144960, Note_on_c, 4, 64, 1
1, 144960, Note_on_c, 7, 69, 109
1, 144960, Note_on_c, 8, 45, 108
1, 144961, Note_on_c, 7, 57, 109
1, 144961, Note_on_c, 8, 33, 108
1, 144962, Note_on_c, 7, 62, 108
1, 144962, Note_on_c, 9, 43, 32
1, 144969, Note_on_c, 15, 45, 98
1, 144982, Note_on_c, 9, 43, 0
1, 145036, Note_on_c, 9, 45, 53
1, 145056, Note_on_c, 9, 45, 0
1, 145060, Note_on_c, 3, 76, 0
1, 145060, Note_on_c, 4, 57, 0
1, 145060, Note_on_c, 4, 60, 0
1, 145060, Note_on_c, 4, 64, 0
1, 145080, Note_on_c, 3, 76, 105
1, 145080, Note_on_c, 4, 57, 1
1, 145080, Note_on_c, 4, 60, 1
1, 145080, Note_on_c, 4, 64, 1
1, 145131, Note_on_c, 9, 43, 45
1, 145151, Note_on_c, 9, 43, 0
1, 145180, Note_on_c, 3, 76, 0
1, 145180, Note_on_c, 4, 57, 0
1, 145180, Note_on_c, 4, 60, 0
1, 145180, Note_on_c, 4, 64, 0
1, 145200, Note_on_c, 3, 76, 104
1, 145200, Note_on_c, 4, 57, 1
1, 145200, Note_on_c, 4, 60, 1
1, 145200, Note_on_c, 4, 64, 1
1, 145201, Note_on_c, 9, 45, 44
1, 145221, Note_on_c, 9, 45, 0
1, 145277, Note_on_c, 9, 43, 69
1, 145297, Note_on_c, 9, 43, 0
1, 145362, Note_on_c, 9, 45, 56
1, 145382, Note_on_c, 9, 45, 0
1, 145410, Note_on_c, 14, 45, 0
1, 145418, Note_on_c, 7, 45, 0
1, 145419, Note_on_c, 1, 33, 0
1, 145420, Note_on_c, 3, 76, 0
1, 145420, Note_on_c, 4, 57, 0
1, 145420, Note_on_c, 4, 60, 0
1, 145420, Note_on_c, 4, 64, 0
1, 145420, Note_on_c, 8, 45, 0
1, 145421, Note_on_c, 7, 57, 0
1, 145421, Note_on_c, 8, 33, 0
1, 145422, Note_on_c, 7, 62, 0
1, 145429, Note_on_c, 15, 45, 0
1, 145431, Note_on_c, 14, 48, 99
1, 145438, Note_on_c, 9, 43, 58
1, 145439, Note_on_c, 1, 36, 96
1, 145439, Note_on_c, 8, 36, 109
1, 145440, Note_on_c, 3, 76, 104
1, 145440, Note_on_c, 4, 57, 1
1, 145440, Note_on_c, 4, 60, 1
1, 145440, Note_on_c, 4, 64, 1
1, 145440, Note_on_c, 7, 48, 108
1, 145441, Note_on_c, 8, 48, 109
1, 145442, Note_on_c, 7, 60, 109
1, 145452, Note_on_c, 15, 48, 99
1, 145458, Note_on_c, 9, 43, 0
1, 145524, Note_on_c, 9, 45, 51
1, 145544, Note_on_c, 9, 45, 0
1, 145591, Note_on_c, 9, 43, 59
1, 145611, Note_on_c, 9, 43, 0
1, 145660, Note_on_c, 3, 76, 0
1, 145660, Note_on_c, 4, 57, 0
1, 145660, Note_on_c, 4, 60, 0
1, 145660, Note_on_c, 4, 64, 0
1, 145665, Program_c, 8, 48
1, 145670, Program_c, 7, 48
1, 145677, Note_on_c, 9, 45, 61
1, 145680, Note_on_c, 3, 77, 105
1, 145680, Note_on_c, 4, 58, 1
1, 145680, Note_on_c, 4, 62, 1
1, 145680, Note_on_c, 4, 65, 1
1, 145697, Note_on_c, 9, 45, 0
1, 145747, Note_on_c, 9, 43, 80
1, 145767, Note_on_c, 9, 43, 0
1, 145891, Note_on_c, 14, 48, 0
1, 145899, Note_on_c, 1, 36, 0
1, 145899, Note_on_c, 8, 36, 0
1, 145900, Program_c, 13, 29
1, 145900, Note_on_c, 3, 77, 0
1, 145900, Note_on_c, 4, 58, 0
1, 145900, Note_on_c, 4, 62, 0
1, 145900, Note_on_c, 4, 65, 0
1, 145900, Note_on_c, 7, 48, 0
1, 145900, Note_on_c, 7, 69, 0
1, 145900, Control_c, 13, 10, 112
1, 145901, Note_on_c, 8, 48, 0
1, 145902, Note_on_c, 7, 60, 0
1, 145905, Program_c, 11, 29
1, 145905, Control_c, 11, 10, 16
1, 145905, Control_c, 13, 91, 127
1, 145905, Pitch_bend_c, 13, 7942
1, 145909, Note_on_c, 14, 46, 98
1, 145910, Program_c, 9, 16
1, 145910, Control_c, 9, 10, 64
1, 145910, Control_c, 9, 91, 90
1, 145910, Control_c, 11, 91, 127
1, 145910, Pitch_bend_c, 11, 8320
1, 145910, Pitch_bend_c, 11, 8442
1, 145910, Pitch_bend_c, 12, 8320
1, 145911, Note_on_c, 11, 58, 61
1, 145911, Note_on_c, 11, 62, 60
1, 145911, Note_on_c, 11, 65, 61
1, 145912, Note_on_c, 15, 48, 0
1, 145913, Note_on_c, 14, 53, 99
1, 145920, Note_on_c, 1, 34, 111
1, 145920, Note_on_c, 3, 74, 104
1, 145920, Note_on_c, 4, 53, 1
1, 145920, Note_on_c, 4, 58, 1
1, 145920, Note_on_c, 4, 62, 1
1, 145920, Note_on_c, 6, 69, 66
1, 145920, Note_on_c, 8, 46, 60
1, 145920, Note_on_c, 9, 49, 71
1, 145921, Note_on_c, 8, 34, 60
1, 145921, Note_on_c, 9, 36, 126
1, 145922, Control_c, 12, 11, 46
1, 145923, Note_on_c, 7, 62, 61
1, 145923, Note_on_c, 8, 53, 61
1, 145928, Note_on_c, 15, 53, 98
1, 145929, Note_on_c, 13, 62, 60
1, 145930, Note_on_c, 15, 46, 99
1, 145930, System_exclusive, 6, 0, 32, 36, 0, 8, 247
1, 145931, Note_on_c, 13, 58, 61
1, 145932, Note_on_c, 13, 65, 60
1, 145934, Control_c, 12, 11, 55
1, 145940, Note_on_c, 9, 49, 0
1, 145941, Note_on_c, 9, 36, 0
1, 145946, Control_c, 12, 11, 69
1, 145961, Control_c, 12, 11, 88
1, 145973, Control_c, 12, 11, 112
1, 145986, Control_c, 12, 11, 127
1, 146060, Note_on_c, 1, 34, 0
1, 146129, Note_on_c, 14, 46, 0
1, 146131, Note_on_c, 11, 58, 0
1, 146131, Note_on_c, 11, 62, 0
1, 146131, Note_on_c, 11, 65, 0
1, 146133, Note_on_c, 14, 53, 0
1, 146140, Note_on_c, 4, 53, 0
1, 146140, Note_on_c, 4, 58, 0
1, 146140, Note_on_c, 4, 62, 0
1, 146148, Note_on_c, 15, 53, 0
1, 146148, Note_on_c, 11, 58, 61
1, 146148, Note_on_c, 14, 46, 99
1, 146149, Note_on_c, 13, 62, 0
1, 146150, Note_on_c, 15, 46, 0
1, 146150, Note_on_c, 11, 62, 60
1, 146150, Note_on_c, 11, 65, 61
1, 146151, Note_on_c, 13, 58, 0
1, 146151, Note_on_c, 14, 53, 98
1, 146152, Note_on_c, 13, 65, 0
1, 146159, Note_on_c, 9, 42, 91
1, 146161, Note_on_c, 1, 34, 119
1, 146169, Note_on_c, 13, 62, 61
1, 146169, Note_on_c, 13, 65, 61
1, 146169, Note_on_c, 15, 46, 99
1, 146171, Note_on_c, 13, 58, 60
1, 146173, Note_on_c, 15, 53, 98
1, 146179, Note_on_c, 9, 42, 0
1, 146261, Note_on_c, 1, 34, 0
1, 146280, Note_on_c, 1, 34, 112
1, 146368, Note_on_c, 11, 58, 0
1, 146370, Note_on_c, 11, 62, 0
1, 146370, Note_on_c, 11, 65, 0
1, 146380, Note_on_c, 1, 34, 0
1, 146380, Note_on_c, 3, 74, 0
1, 146389, Note_on_c, 13, 62, 0
1, 146389, Note_on_c, 13, 65, 0
1, 146390, Note_on_c, 11, 62, 60
1, 146391, Note_on_c, 13, 58, 0
1, 146391, Note_on_c, 11, 65, 60
1, 146392, Note_on_c, 11, 58, 61
1, 146398, Note_on_c, 9, 42, 126
1, 146399, Note_on_c, 9, 40, 126
1, 146402, Note_on_c, 1, 34, 118
1, 146408, Note_on_c, 13, 62, 61
1, 146409, Note_on_c, 13, 58, 60
1, 146412, Note_on_c, 13, 65, 60
1, 146418, Note_on_c, 9, 42, 0
1, 146419, Note_on_c, 9, 40, 0
1, 146502, Note_on_c, 1, 34, 0
1, 146608, Note_on_c, 14, 46, 0
1, 146610, Note_on_c, 11, 62, 0
1, 146611, Note_on_c, 11, 65, 0
1, 146611, Note_on_c, 14, 53, 0
1, 146612, Note_on_c, 11, 58, 0
1, 146628, Note_on_c, 13, 62, 0
1, 146629, Note_on_c, 13, 58, 0
1, 146629, Note_on_c, 15, 46, 0
1, 146629, Note_on_c, 14, 53, 99
1, 146630, Note_on_c, 11, 62, 61
1, 146631, Note_on_c, 11, 58, 60
1, 146631, Note_on_c, 11, 65, 60
1, 146631, Note_on_c, 14, 46, 98
1, 146632, Note_on_c, 13, 65, 0
1, 146633, Note_on_c, 15, 53, 0
1, 146639, Note_on_c, 9, 42, 94
1, 146640, Note_on_c, 1, 34, 119
1, 146640, Note_on_c, 3, 77, 105
1, 146640, Note_on_c, 4, 58, 1
1, 146640, Note_on_c, 4, 62, 1
1, 146640, Note_on_c, 4, 65, 1
1, 146649, Note_on_c, 13, 58, 61
1, 146649, Note_on_c, 13, 65, 61
1, 146650, Note_on_c, 13, 62, 60
1, 146650, Note_on_c, 15, 46, 99
1, 146650, Note_on_c, 15, 53, 98
1, 146659, Note_on_c, 9, 42, 0
1, 146729, Note_on_c, 14, 53, 0
1, 146730, Note_on_c, 11, 62, 0
1, 146731, Note_on_c, 11, 58, 0
1, 146731, Note_on_c, 11, 65, 0
1, 146731, Note_on_c, 14, 46, 0
1, 146740, Note_on_c, 1, 34, 0
1, 146740, Note_on_c, 3, 77, 0
1, 146740, Note_on_c, 4, 58, 0
1, 146740, Note_on_c, 4, 62, 0
1, 146740, Note_on_c, 4, 65, 0
1, 146749, Note_on_c, 13, 58, 0
1, 146749, Note_on_c, 13, 65, 0
1, 146749, Note_on_c, 11, 62, 61
1, 146750, Note_on_c, 13, 62, 0
1, 146750, Note_on_c, 15, 46, 0
1, 146750, Note_on_c, 15, 53, 0
1, 146752, Note_on_c, 11, 58, 61
1, 146752, Note_on_c, 11, 65, 60
1, 146753, Note_on_c, 14, 46, 98
1, 146753, Note_on_c, 14, 53, 99
1, 146760, Note_on_c, 3, 77, 105
1, 146760, Note_on_c, 4, 57, 1
1, 146760, Note_on_c, 4, 60, 1
1, 146760, Note_on_c, 4, 65, 1
1, 146761, Note_on_c, 1, 34, 119
1, 146769, Note_on_c, 13, 65, 60
1, 146771, Note_on_c, 15, 46, 98
1, 146772, Note_on_c, 13, 58, 61
1, 146772, Note_on_c, 13, 62, 61
1, 146772, Note_on_c, 15, 53, 99
1, 146849, Note_on_c, 11, 62, 0
1, 146852, Note_on_c, 11, 58, 0
1, 146852, Note_on_c, 11, 65, 0
1, 146853, Note_on_c, 14, 46, 0
1, 146853, Note_on_c, 14, 53, 0
1, 146860, Note_on_c, 3, 77, 0
1, 146860, Note_on_c, 4, 57, 0
1, 146860, Note_on_c, 4, 60, 0
1, 146860, Note_on_c, 4, 65, 0
1, 146860, Note_on_c, 6, 69, 0
1, 146861, Note_on_c, 1, 34, 0
1, 146869, Note_on_c, 13, 65, 0
1, 146869, Note_on_c, 11, 58, 60
1, 146869, Note_on_c, 11, 65, 61
1, 146870, Note_on_c, 14, 46, 99
1, 146870, Note_on_c, 14, 53, 98
1, 146871, Note_on_c, 15, 46, 0
1, 146872, Note_on_c, 13, 58, 0
1, 146872, Note_on_c, 13, 62, 0
1, 146872, Note_on_c, 15, 53, 0
1, 146872, Note_on_c, 11, 62, 60
1, 146879, Note_on_c, 6, 67, 67
1, 146879, Note_on_c, 9, 36, 127
1, 146880, Note_on_c, 3, 76, 104
1, 146880, Note_on_c, 4, 57, 1
1, 146880, Note_on_c, 4, 60, 1
1, 146880, Note_on_c, 4, 64, 1
1, 146881, Note_on_c, 1, 34, 118
1, 146882, Note_on_c, 9, 42, 127
1, 146889, Note_on_c, 13, 62, 60
1, 146889, Note_on_c, 15, 53, 99
1, 146890, Note_on_c, 15, 46, 98
1, 146893, Note_on_c, 13, 58, 60
1, 146893, Note_on_c, 13, 65, 61
1, 146899, Note_on_c, 9, 36, 0
1, 146902, Note_on_c, 9, 42, 0
1, 147021, Note_on_c, 1, 34, 0
1, 147089, Note_on_c, 11, 58, 0
1, 147089, Note_on_c, 11, 65, 0
1, 147090, Note_on_c, 14, 46, 0
1, 147090, Note_on_c, 14, 53, 0
1, 147092, Note_on_c, 11, 62, 0
1, 147099, Note_on_c, 6, 67, 0
1, 147100, Note_on_c, 3, 76, 0
1, 147100, Note_on_c, 4, 57, 0
1, 147100, Note_on_c, 4, 60, 0
1, 147100, Note_on_c, 4, 64, 0
1, 147109, Note_on_c, 13, 62, 0
1, 147109, Note_on_c, 15, 53, 0
1, 147109, Note_on_c, 11, 65, 61
1, 147109, Note_on_c, 14, 53, 98
1, 147110, Note_on_c, 15, 46, 0
1, 147110, Note_on_c, 11, 62, 61
1, 147110, Note_on_c, 14, 46, 99
1, 147111, Note_on_c, 11, 58, 60
1, 147113, Note_on_c, 13, 58, 0
1, 147113, Note_on_c, 13, 65, 0
1, 147119, Note_on_c, 9, 42, 96
1, 147120, Note_on_c, 1, 34, 116
1, 147120, Note_on_c, 3, 79, 105
1, 147120, Note_on_c, 4, 60, 1
1, 147120, Note_on_c, 4, 64, 1
1, 147120, Note_on_c, 4, 67, 1
1, 147122, Note_on_c, 6, 69, 67
1, 147122, Note_on_c, 6, 72, 66
1, 147128, Note_on_c, 13, 58, 60
1, 147128, Note_on_c, 13, 65, 61
1, 147129, Note_on_c, 15, 46, 98
1, 147131, Note_on_c, 13, 62, 61
1, 147131, Note_on_c, 15, 53, 99
1, 147139, Note_on_c, 9, 42, 0
1, 147260, Note_on_c, 1, 34, 0
1, 147329, Note_on_c, 11, 65, 0
1, 147329, Note_on_c, 14, 53, 0
1, 147330, Note_on_c, 11, 62, 0
1, 147330, Note_on_c, 14, 46, 0
1, 147331, Note_on_c, 11, 58, 0
1, 147340, Note_on_c, 3, 79, 0
1, 147340, Note_on_c, 4, 60, 0
1, 147340, Note_on_c, 4, 64, 0
1, 147340, Note_on_c, 4, 67, 0
1, 147348, Note_on_c, 13, 58, 0
1, 147348, Note_on_c, 13, 65, 0
1, 147349, Note_on_c, 15, 46, 0
1, 147350, Note_on_c, 11, 65, 61
1, 147351, Note_on_c, 13, 62, 0
1, 147351, Note_on_c, 15, 53, 0
1, 147352, Note_on_c, 11, 58, 60
1, 147352, Note_on_c, 14, 53, 99
1, 147353, Note_on_c, 11, 62, 60
1, 147353, Note_on_c, 14, 46, 98
1, 147359, Note_on_c, 1, 34, 113
1, 147360, Note_on_c, 3, 77, 104
1, 147360, Note_on_c, 4, 58, 1
1, 147360, Note_on_c, 4, 62, 1
1, 147360, Note_on_c, 4, 65, 1
1, 147360, Note_on_c, 9, 40, 126
1, 147360, Note_on_c, 9, 42, 127
1, 147369, Note_on_c, 15, 46, 99
1, 147370, Note_on_c, 13, 62, 60
1, 147370, Note_on_c, 15, 53, 98
1, 147371, Note_on_c, 13, 58, 61
1, 147372, Note_on_c, 13, 65, 60
1, 147380, Note_on_c, 9, 40, 0
1, 147380, Note_on_c, 9, 42, 0
1, 147499, Note_on_c, 1, 34, 0
1, 147570, Note_on_c, 11, 65, 0
1, 147572, Note_on_c, 11, 58, 0
1, 147572, Note_on_c, 14, 53, 0
1, 147573, Note_on_c, 11, 62, 0
1, 147573, Note_on_c, 14, 46, 0
1, 147589, Note_on_c, 15, 46, 0
1, 147589, Note_on_c, 14, 46, 98
1, 147590, Note_on_c, 13, 62, 0
1, 147590, Note_on_c, 15, 53, 0
1, 147590, Note_on_c, 11, 65, 61
1, 147590, Note_on_c, 14, 53, 99
1, 147591, Note_on_c, 13, 58, 0
1, 147591, Note_on_c, 11, 58, 61
1, 147591, Note_on_c, 11, 62, 60
1, 147592, Note_on_c, 13, 65, 0
1, 147600, Note_on_c, 9, 42, 95
1, 147601, Note_on_c, 1, 34, 114
1, 147608, Note_on_c, 15, 53, 98
1, 147609, Note_on_c, 13, 58, 60
1, 147610, Note_on_c, 13, 62, 61
1, 147611, Note_on_c, 15, 46, 99
1, 147612, Note_on_c, 13, 65, 61
1, 147620, Note_on_c, 9, 42, 0
1, 147670, System_exclusive, 6, 0, 32, 36, 0, 8, 247
1, 147701, Note_on_c, 1, 34, 0
1, 147722, Note_on_c, 1, 34, 117
1, 147809, Note_on_c, 14, 46, 0
1, 147810, Note_on_c, 11, 65, 0
1, 147810, Note_on_c, 14, 53, 0
1, 147811, Note_on_c, 11, 58, 0
1, 147811, Note_on_c, 11, 62, 0
1, 147820, Note_on_c, 3, 77, 0
1, 147820, Note_on_c, 4, 58, 0
1, 147820, Note_on_c, 4, 62, 0
1, 147820, Note_on_c, 4, 65, 0
1, 147820, Note_on_c, 8, 46, 0
1, 147821, Note_on_c, 8, 34, 0
1, 147822, Note_on_c, 1, 34, 0
1, 147822, Note_on_c, 6, 72, 0
1, 147823, Note_on_c, 8, 53, 0
1, 147828, Note_on_c, 15, 53, 0
1, 147829, Note_on_c, 13, 58, 0
1, 147829, Note_on_c, 11, 60, 60
1, 147829, Note_on_c, 14, 48, 98
1, 147830, Note_on_c, 13, 62, 0
1, 147831, Note_on_c, 15, 46, 0
1, 147831, Note_on_c, 14, 55, 99
1, 147832, Note_on_c, 13, 65, 0
1, 147832, Note_on_c, 11, 64, 61
1, 147832, Note_on_c, 11, 67, 61
1, 147839, Note_on_c, 1, 36, 117
1, 147839, Note_on_c, 9, 42, 126
1, 147841, Note_on_c, 8, 36, 61
1, 147843, Note_on_c, 8, 48, 60
1, 147843, Note_on_c, 8, 55, 60
1, 147843, Note_on_c, 9, 36, 126
1, 147849, Note_on_c, 13, 64, 60
1, 147850, Note_on_c, 15, 55, 98
1, 147851, Note_on_c, 15, 48, 99
1, 147852, Note_on_c, 13, 67, 60
1, 147853, Note_on_c, 13, 60, 61
1, 147859, Note_on_c, 9, 42, 0
1, 147863, Note_on_c, 9, 36, 0
1, 147979, Note_on_c, 1, 36, 0
1, 148049, Note_on_c, 11, 60, 0
1, 148049, Note_on_c, 14, 48, 0
1, 148051, Note_on_c, 14, 55, 0
1, 148052, Note_on_c, 11, 67, 0
1, 148069, Note_on_c, 14, 48, 99
1, 148070, Note_on_c, 15, 55, 0
1, 148071, Note_on_c, 15, 48, 0
1, 148071, Note_on_c, 11, 60, 60
1, 148071, Note_on_c, 11, 67, 60
1, 148072, Note_on_c, 13, 67, 0
1, 148072, Note_on_c, 14, 55, 98
1, 148073, Note_on_c, 13, 60, 0
1, 148079, Note_on_c, 1, 36, 118
1, 148083, Note_on_c, 9, 42, 91
1, 148089, Note_on_c, 13, 60, 61
1, 148089, Note_on_c, 13, 67, 60
1, 148089, Note_on_c, 15, 48, 99
1, 148092, Note_on_c, 15, 55, 98
1, 148103, Note_on_c, 9, 42, 0
1, 148179, Note_on_c, 1, 36, 0
1, 148202, Note_on_c, 1, 36, 115
1, 148291, Note_on_c, 11, 60, 0
1, 148291, Note_on_c, 11, 67, 0
1, 148292, Note_on_c, 11, 64, 0
1, 148302, Note_on_c, 1, 36, 0
1, 148309, Note_on_c, 13, 60, 0
1, 148309, Note_on_c, 13, 64, 0
1, 148309, Note_on_c, 13, 67, 0
1, 148309, Note_on_c, 11, 60, 61
1, 148309, Note_on_c, 11, 64, 60
1, 148309, Note_on_c, 11, 67, 61
1, 148321, Note_on_c, 1, 36, 110
1, 148322, Note_on_c, 9, 40, 127
1, 148322, Note_on_c, 9, 42, 126
1, 148330, Note_on_c, 13, 60, 60
1, 148331, Note_on_c, 13, 64, 61
1, 148331, Note_on_c, 13, 67, 60
1, 148342, Note_on_c, 9, 40, 0
1, 148342, Note_on_c, 9, 42, 0
1, 148421, Note_on_c, 1, 36, 0
1, 148529, Note_on_c, 11, 60, 0
1, 148529, Note_on_c, 11, 64, 0
1, 148529, Note_on_c, 11, 67, 0
1, 148529, Note_on_c, 14, 48, 0
1, 148532, Note_on_c, 14, 55, 0
1, 148549, Note_on_c, 15, 48, 0
1, 148549, Note_on_c, 14, 55, 99
1, 148550, Note_on_c, 13, 60, 0
1, 148550, Note_on_c, 11, 60, 61
1, 148551, Note_on_c, 13, 64, 0
1, 148551, Note_on_c, 13, 67, 0
1, 148551, Note_on_c, 11, 67, 60
1, 148552, Note_on_c, 15, 55, 0
1, 148552, Note_on_c, 11, 64, 61
1, 148552, Note_on_c, 14, 48, 98
1, 148559, Note_on_c, 9, 42, 94
1, 148560, Note_on_c, 3, 81, 104
1, 148560, Note_on_c, 4, 55, 1
1, 148560, Note_on_c, 4, 60, 1
1, 148560, Note_on_c, 4, 65, 1
1, 148561, Note_on_c, 1, 36, 116
1, 148571, Note_on_c, 13, 64, 61
1, 148571, Note_on_c, 13, 67, 61
1, 148571, Note_on_c, 15, 48, 99
1, 148571, Note_on_c, 15, 55, 98
1, 148572, Note_on_c, 13, 60, 60
1, 148579, Note_on_c, 9, 42, 0
1, 148649, Note_on_c, 14, 55, 0
1, 148650, Note_on_c, 11, 60, 0
1, 148651, Note_on_c, 11, 67, 0
1, 148652, Note_on_c, 11, 64, 0
1, 148652, Note_on_c, 14, 48, 0
1, 148660, Note_on_c, 3, 81, 0
1, 148660, Note_on_c, 4, 55, 0
1, 148660, Note_on_c, 4, 60, 0
1, 148660, Note_on_c, 4, 65, 0
1, 148661, Note_on_c, 1, 36, 0
1, 148668, Note_on_c, 14, 48, 98
1, 148670, Note_on_c, 11, 64, 60
1, 148671, Note_on_c, 13, 64, 0
1, 148671, Note_on_c, 13, 67, 0
1, 148671, Note_on_c, 15, 48, 0
1, 148671, Note_on_c, 15, 55, 0
1, 148671, Note_on_c, 14, 55, 99
1, 148672, Note_on_c, 13, 60, 0
1, 148672, Note_on_c, 11, 60, 60
1, 148672, Note_on_c, 11, 67, 61
1, 148680, Note_on_c, 3, 81, 105
1, 148680, Note_on_c, 4, 55, 1
1, 148680, Note_on_c, 4, 60, 1
1, 148680, Note_on_c, 4, 65, 1
1, 148682, Note_on_c, 1, 36, 113
1, 148690, Note_on_c, 15, 48, 98
1, 148690, Note_on_c, 15, 55, 99
1, 148691, Note_on_c, 13, 60, 61
1, 148692, Note_on_c, 13, 67, 60
1, 148693, Note_on_c, 13, 64, 60
1, 148768, Note_on_c, 14, 48, 0
1, 148770, Note_on_c, 11, 64, 0
1, 148771, Note_on_c, 14, 55, 0
1, 148772, Note_on_c, 11, 60, 0
1, 148772, Note_on_c, 11, 67, 0
1, 148780, Note_on_c, 3, 81, 0
1, 148780, Note_on_c, 4, 55, 0
1, 148780, Note_on_c, 4, 60, 0
1, 148780, Note_on_c, 4, 65, 0
1, 148782, Note_on_c, 1, 36, 0
1, 148782, Note_on_c, 6, 69, 0
1, 148790, Note_on_c, 15, 48, 0
1, 148790, Note_on_c, 15, 55, 0
1, 148791, Note_on_c, 13, 60, 0
1, 148791, Note_on_c, 11, 67, 61
1, 148791, Note_on_c, 14, 55, 99
1, 148792, Note_on_c, 13, 67, 0
1, 148792, Note_on_c, 11, 64, 60
1, 148792, Note_on_c, 14, 48, 98
1, 148793, Note_on_c, 13, 64, 0
1, 148793, Note_on_c, 11, 60, 60
1, 148798, Note_on_c, 9, 36, 127
1, 148800, Note_on_c, 3, 84, 105
1, 148800, Note_on_c, 4, 55, 1
1, 148800, Note_on_c, 4, 60, 1
1, 148800, Note_on_c, 4, 64, 1
1, 148800, Note_on_c, 6, 67, 66
1, 148800, Note_on_c, 9, 42, 127
1, 148801, Note_on_c, 1, 36, 117
1, 148809, Note_on_c, 13, 60, 61
1, 148809, Note_on_c, 15, 48, 99
1, 148810, Note_on_c, 13, 64, 61
1, 148810, Note_on_c, 15, 55, 98
1, 148811, Note_on_c, 13, 67, 60
1, 148818, Note_on_c, 9, 36, 0
1, 148820, Note_on_c, 9, 42, 0
1, 148941, Note_on_c, 1, 36, 0
1, 149011, Note_on_c, 11, 67, 0
1, 149011, Note_on_c, 14, 55, 0
1, 149012, Note_on_c, 11, 64, 0
1, 149012, Note_on_c, 14, 48, 0
1, 149013, Note_on_c, 11, 60, 0
1, 149020, Note_on_c, 3, 84, 0
1, 149020, Note_on_c, 4, 55, 0
1, 149020, Note_on_c, 4, 60, 0
1, 149020, Note_on_c, 4, 64, 0
1, 149020, Note_on_c, 6, 67, 0
1, 149028, Note_on_c, 14, 55, 98
1, 149029, Note_on_c, 13, 60, 0
1, 149029, Note_on_c, 15, 48, 0
1, 149029, Note_on_c, 11, 64, 61
1, 149030, Note_on_c, 13, 64, 0
1, 149030, Note_on_c, 15, 55, 0
1, 149030, Note_on_c, 11, 60, 61
1, 149030, Note_on_c, 14, 48, 99
1, 149031, Note_on_c, 13, 67, 0
1, 149033, Note_on_c, 11, 67, 60
1, 149039, Note_on_c, 6, 69, 67
1, 149039, Note_on_c, 9, 36, 127
1, 149040, Note_on_c, 3, 81, 104
1, 149040, Note_on_c, 4, 55, 1
1, 149040, Note_on_c, 4, 60, 1
1, 149040, Note_on_c, 4, 64, 1
1, 149041, Note_on_c, 9, 42, 97
1, 149042, Note_on_c, 6, 72, 66
1, 149043, Note_on_c, 1, 36, 110
1, 149048, Note_on_c, 13, 60, 60
1, 149049, Note_on_c, 13, 64, 61
1, 149049, Note_on_c, 15, 48, 98
1, 149051, Note_on_c, 13, 67, 61
1, 149052, Note_on_c, 15, 55, 99
1, 149059, Note_on_c, 9, 36, 0
1, 149061, Note_on_c, 9, 42, 0
1, 149183, Note_on_c, 1, 36, 0
1, 149249, Note_on_c, 11, 64, 0
1, 149250, Note_on_c, 11, 60, 0
1, 149253, Note_on_c, 11, 67, 0
1, 149260, Note_on_c, 3, 81, 0
1, 149260, Note_on_c, 4, 55, 0
1, 149260, Note_on_c, 4, 60, 0
1, 149260, Note_on_c, 4, 64, 0
1, 149268, Note_on_c, 13, 60, 0
1, 149269, Note_on_c, 13, 64, 0
1, 149269, Note_on_c, 11, 64, 60
1, 149271, Note_on_c, 13, 67, 0
1, 149272, Note_on_c, 11, 60, 61
1, 149273, Note_on_c, 11, 67, 60
1, 149280, Note_on_c, 3, 81, 104
1, 149280, Note_on_c, 4, 55, 1
1, 149280, Note_on_c, 4, 60, 1
1, 149280, Note_on_c, 4, 64, 1
1, 149280, Note_on_c, 9, 42, 126
1, 149281, Note_on_c, 1, 36, 110
1, 149281, Note_on_c, 9, 40, 127
1, 149289, Note_on_c, 13, 60, 60
1, 149289, Note_on_c, 13, 67, 60
1, 149292, Note_on_c, 13, 64, 61
1, 149300, Note_on_c, 9, 42, 0
1, 149301, Note_on_c, 9, 40, 0
1, 149421, Note_on_c, 1, 36, 0
1, 149488, Note_on_c, 14, 55, 0
1, 149489, Note_on_c, 11, 64, 0
1, 149490, Note_on_c, 14, 48, 0
1, 149492, Note_on_c, 11, 60, 0
1, 149493, Note_on_c, 11, 67, 0
1, 149500, Note_on_c, 3, 81, 0
1, 149500, Note_on_c, 4, 55, 0
1, 149500, Note_on_c, 4, 60, 0
1, 149500, Note_on_c, 4, 64, 0
1, 149509, Note_on_c, 13, 60, 0
1, 149509, Note_on_c, 13, 67, 0
1, 149509, Note_on_c, 15, 48, 0
1, 149509, Note_on_c, 11, 64, 61
1, 149511, Note_on_c, 11, 60, 61
1, 149512, Note_on_c, 13, 64, 0
1, 149512, Note_on_c, 15, 55, 0
1, 149512, Note_on_c, 11, 67, 60
1, 149512, Note_on_c, 14, 48, 99
1, 149512, Note_on_c, 14, 55, 98
1, 149520, Note_on_c, 1, 36, 113
1, 149520, Note_on_c, 3, 79, 105
1, 149520, Note_on_c, 4, 55, 1
1, 149520, Note_on_c, 4, 60, 1
1, 149520, Note_on_c, 4, 64, 1
1, 149523, Note_on_c, 9, 42, 94
1, 149529, Note_on_c, 15, 55, 99
1, 149530, Note_on_c, 13, 67, 60
1, 149531, Note_on_c, 13, 64, 61
1, 149531, Note_on_c, 15, 48, 98
1, 149532, Note_on_c, 13, 60, 61
1, 149543, Note_on_c, 9, 42, 0
1, 149612, Note_on_c, 14, 48, 0
1, 149612, Note_on_c, 14, 55, 0
1, 149620, Note_on_c, 1, 36, 0
1, 149620, Note_on_c, 3, 79, 0
1, 149620, Note_on_c, 4, 55, 0
1, 149620, Note_on_c, 4, 60, 0
1, 149620, Note_on_c, 4, 64, 0
1, 149629, Note_on_c, 15, 55, 0
1, 149630, Note_on_c, 14, 48, 98
1, 149631, Note_on_c, 15, 48, 0
1, 149631, Note_on_c, 14, 55, 99
1, 149640, Note_on_c, 3, 81, 105
1, 149640, Note_on_c, 4, 57, 1
1, 149640, Note_on_c, 4, 62, 1
1, 149640, Note_on_c, 4, 65, 1
1, 149643, Note_on_c, 1, 36, 111
1, 149649, Note_on_c, 15, 48, 98
1, 149649, Note_on_c, 15, 55, 99
1, 149729, Note_on_c, 11, 64, 0
1, 149730, Note_on_c, 14, 48, 0
1, 149731, Note_on_c, 11, 60, 0
1, 149731, Note_on_c, 14, 55, 0
1, 149732, Note_on_c, 11, 67, 0
1, 149741, Note_on_c, 8, 36, 0
1, 149742, Note_on_c, 6, 72, 0
1, 149743, Note_on_c, 1, 36, 0
1, 149743, Note_on_c, 8, 48, 0
1, 149743, Note_on_c, 8, 55, 0
1, 149748, Note_on_c, 14, 57, 98
1, 149749, Note_on_c, 15, 48, 0
1, 149749, Note_on_c, 15, 55, 0
1, 149749, Note_on_c, 11, 57, 61
1, 149749, Note_on_c, 14, 50, 99
1, 149750, Note_on_c, 13, 67, 0
1, 149751, Note_on_c, 13, 64, 0
1, 149751, Note_on_c, 11, 62, 60
1, 149752, Note_on_c, 13, 60, 0
1, 149752, Note_on_c, 11, 69, 60
1, 149758, Note_on_c, 8, 50, 61
1, 149759, Note_on_c, 9, 42, 127
1, 149760, Note_on_c, 9, 36, 126
1, 149761, Note_on_c, 1, 26, 112
1, 149761, Note_on_c, 8, 38, 60
1, 149761, Note_on_c, 8, 57, 61
1, 149769, Note_on_c, 13, 57, 60
1, 149769, Note_on_c, 13, 62, 61
1, 149770, Note_on_c, 13, 69, 60
1, 149771, Note_on_c, 15, 50, 98
1, 149772, Note_on_c, 15, 57, 99
1, 149779, Note_on_c, 9, 42, 0
1, 149780, Note_on_c, 9, 36, 0
1, 149860, Note_on_c, 3, 81, 0
1, 149860, System_exclusive, 6, 0, 32, 36, 0, 8, 247
1, 149880, Note_on_c, 3, 79, 104
1, 149901, Note_on_c, 1, 26, 0
1, 149968, Note_on_c, 14, 57, 0
1, 149969, Note_on_c, 11, 57, 0
1, 149969, Note_on_c, 14, 50, 0
1, 149971, Note_on_c, 11, 62, 0
1, 149972, Note_on_c, 11, 69, 0
1, 149980, Note_on_c, 4, 65, 0
1, 149989, Note_on_c, 13, 57, 0
1, 149989, Note_on_c, 13, 62, 0
1, 149989, Note_on_c, 11, 62, 61
1, 149990, Note_on_c, 13, 69, 0
1, 149991, Note_on_c, 15, 50, 0
1, 149991, Note_on_c, 11, 57, 61
1, 149991, Note_on_c, 11, 69, 60
1, 149992, Note_on_c, 15, 57, 0
1, 149992, Note_on_c, 14, 50, 99
1, 149992, Note_on_c, 14, 57, 98
1, 150001, Note_on_c, 1, 26, 112
1, 150003, Note_on_c, 9, 42, 91
1, 150008, Note_on_c, 13, 62, 60
1, 150010, Note_on_c, 13, 57, 61
1, 150011, Note_on_c, 15, 50, 99
1, 150011, Note_on_c, 15, 57, 98
1, 150013, Note_on_c, 13, 69, 61
1, 150023, Note_on_c, 9, 42, 0
1, 150101, Note_on_c, 1, 26, 0
1, 150120, Note_on_c, 1, 26, 115
1, 150209, Note_on_c, 11, 62, 0
1, 150211, Note_on_c, 11, 57, 0
1, 150211, Note_on_c, 11, 69, 0
1, 150220, Note_on_c, 1, 26, 0
1, 150220, Note_on_c, 3, 79, 0
1, 150220, Note_on_c, 4, 57, 0
1, 150220, Note_on_c, 4, 62, 0
1, 150228, Note_on_c, 13, 62, 0
1, 150228, Note_on_c, 11, 69, 60
1, 150230, Note_on_c, 13, 57, 0
1, 150230, Note_on_c, 11, 57, 61
1, 150230, Note_on_c, 11, 62, 61
1, 150233, Note_on_c, 13, 69, 0
1, 150239, Note_on_c, 1, 26, 116
1, 150240, Note_on_c, 9, 42, 126
1, 150243, Note_on_c, 9, 40, 126
1, 150249, Note_on_c, 13, 62, 60
1, 150250, Note_on_c, 13, 69, 60
1, 150253, Note_on_c, 13, 57, 61
1, 150260, Note_on_c, 9, 42, 0
1, 150263, Note_on_c, 9, 40, 0
1, 150339, Note_on_c, 1, 26, 0
1, 150448, Note_on_c, 11, 69, 0
1, 150450, Note_on_c, 11, 57, 0
1, 150450, Note_on_c, 11, 62, 0
1, 150452, Note_on_c, 14, 50, 0
1, 150452, Note_on_c, 14, 57, 0
1, 150468, Note_on_c, 14, 50, 99
1, 150468, Note_on_c, 14, 57, 98
1, 150469, Note_on_c, 13, 62, 0
1, 150470, Note_on_c, 13, 69, 0
1, 150470, Note_on_c, 11, 57, 60
1, 150470, Note_on_c, 11, 69, 60
1, 150471, Note_on_c, 15, 50, 0
1, 150471, Note_on_c, 15, 57, 0
1, 150472, Note_on_c, 11, 62, 61
1, 150473, Note_on_c, 13, 57, 0
1, 150479, Note_on_c, 9, 42, 94
1, 150480, Note_on_c, 1, 26, 119
1, 150480, Note_on_c, 3, 77, 104
1, 150480, Note_on_c, 4, 55, 1
1, 150480, Note_on_c, 4, 60, 1
1, 150480, Note_on_c, 4, 65, 1
1, 150489, Note_on_c, 15, 57, 99
1, 150491, Note_on_c, 13, 62, 61
1, 150492, Note_on_c, 13, 69, 60
1, 150493, Note_on_c, 13, 57, 60
1, 150493, Note_on_c, 15, 50, 98
1, 150499, Note_on_c, 9, 42, 0
1, 150568, Note_on_c, 14, 50, 0
1, 150568, Note_on_c, 14, 57, 0
1, 150570, Note_on_c, 11, 57, 0
1, 150570, Note_on_c, 11, 69, 0
1, 150572, Note_on_c, 11, 62, 0
1, 150580, Note_on_c, 1, 26, 0
1, 150580, Note_on_c, 3, 77, 0
1, 150580, Note_on_c, 4, 55, 0
1, 150580, Note_on_c, 4, 60, 0
1, 150580, Note_on_c, 4, 65, 0
1, 150588, Note_on_c, 11, 69, 60
1, 150589, Note_on_c, 15, 57, 0
1, 150590, Note_on_c, 11, 57, 61
1, 150590, Note_on_c, 11, 62, 61
1, 150590, Note_on_c, 14, 50, 98
1, 150591, Note_on_c, 13, 62, 0
1, 150591, Note_on_c, 14, 57, 99
1, 150592, Note_on_c, 13, 69, 0
1, 150593, Note_on_c, 13, 57, 0
1, 150593, Note_on_c, 15, 50, 0
1, 150600, Note_on_c, 1, 26, 111
1, 150600, Note_on_c, 3, 77, 105
1, 150600, Note_on_c, 4, 55, 1
1, 150600, Note_on_c, 4, 60, 1
1, 150600, Note_on_c, 4, 65, 1
1, 150608, Note_on_c, 15, 57, 98
1, 150609, Note_on_c, 15, 50, 99
1, 150610, Note_on_c, 13, 62, 61
1, 150610, Note_on_c, 13, 69, 60
1, 150611, Note_on_c, 13, 57, 61
1, 150690, Note_on_c, 11, 57, 0
1, 150690, Note_on_c, 11, 62, 0
1, 150690, Note_on_c, 14, 50, 0
1, 150691, Note_on_c, 14, 57, 0
1, 150699, Note_on_c, 6, 69, 0
1, 150700, Note_on_c, 1, 26, 0
1, 150700, Note_on_c, 3, 77, 0
1, 150700, Note_on_c, 4, 55, 0
1, 150700, Note_on_c, 4, 60, 0
1, 150700, Note_on_c, 4, 65, 0
1, 150708, Note_on_c, 15, 57, 0
1, 150709, Note_on_c, 15, 50, 0
1, 150709, Note_on_c, 14, 50, 99
1, 150709, Note_on_c, 14, 57, 98
1, 150710, Note_on_c, 13, 62, 0
1, 150710, Note_on_c, 11, 57, 60
1, 150711, Note_on_c, 13, 57, 0
1, 150711, Note_on_c, 11, 62, 61
1, 150719, Note_on_c, 6, 67, 67
1, 150720, Note_on_c, 3, 76, 104
1, 150720, Note_on_c, 4, 55, 1
1, 150720, Note_on_c, 4, 60, 1
1, 150720, Note_on_c, 4, 64, 1
1, 150720, Note_on_c, 9, 36, 127
1, 150721, Note_on_c, 1, 26, 116
1, 150722, Note_on_c, 9, 42, 127
1, 150729, Note_on_c, 13, 57, 61
1, 150731, Note_on_c, 13, 62, 60
1, 150732, Note_on_c, 15, 50, 99
1, 150732, Note_on_c, 15, 57, 98
1, 150740, Note_on_c, 9, 36, 0
1, 150742, Note_on_c, 9, 42, 0
1, 150861, Note_on_c, 1, 26, 0
1, 150928, Note_on_c, 11, 69, 0
1, 150929, Note_on_c, 14, 50, 0
1, 150929, Note_on_c, 14, 57, 0
1, 150930, Note_on_c, 11, 57, 0
1, 150931, Note_on_c, 11, 62, 0
1, 150939, Note_on_c, 6, 67, 0
1, 150940, Note_on_c, 3, 76, 0
1, 150940, Note_on_c, 4, 55, 0
1, 150940, Note_on_c, 4, 60, 0
1, 150940, Note_on_c, 4, 64, 0
1, 150948, Note_on_c, 14, 57, 98
1, 150949, Note_on_c, 13, 57, 0
1, 150949, Note_on_c, 14, 50, 99
1, 150950, Note_on_c, 13, 69, 0
1, 150950, Note_on_c, 11, 62, 60
1, 150951, Note_on_c, 13, 62, 0
1, 150952, Note_on_c, 15, 50, 0
1, 150952, Note_on_c, 15, 57, 0
1, 150952, Note_on_c, 11, 57, 60
1, 150952, Note_on_c, 11, 69, 61
1, 150959, Note_on_c, 6, 72, 67
1, 150959, Note_on_c, 9, 42, 96
1, 150960, Note_on_c, 3, 79, 105
1, 150960, Note_on_c, 4, 60, 1
1, 150960, Note_on_c, 4, 64, 1
1, 150960, Note_on_c, 4, 67, 1
1, 150960, Note_on_c, 6, 69, 66
1, 150962, Note_on_c, 1, 26, 117
1, 150969, Note_on_c, 15, 50, 98
1, 150969, Note_on_c, 15, 57, 99
1, 150970, Note_on_c, 13, 62, 61
1, 150971, Note_on_c, 13, 57, 60
1, 150973, Note_on_c, 13, 69, 60
1, 150979, Note_on_c, 9, 42, 0
1, 151102, Note_on_c, 1, 26, 0
1, 151170, Note_on_c, 11, 62, 0
1, 151172, Note_on_c, 11, 57, 0
1, 151172, Note_on_c, 11, 69, 0
1, 151180, Note_on_c, 3, 79, 0
1, 151180, Note_on_c, 4, 60, 0
1, 151180, Note_on_c, 4, 64, 0
1, 151180, Note_on_c, 4, 67, 0
1, 151188, Note_on_c, 11, 62, 61
1, 151190, Note_on_c, 13, 62, 0
1, 151191, Note_on_c, 13, 57, 0
1, 151192, Note_on_c, 11, 57, 60
1, 151192, Note_on_c, 11, 69, 60
1, 151193, Note_on_c, 13, 69, 0
1, 151200, Note_on_c, 1, 26, 112
1, 151200, Note_on_c, 3, 81, 105
1, 151200, Note_on_c, 4, 57, 1
1, 151200, Note_on_c, 4, 62, 1
1, 151200, Note_on_c, 4, 65, 1
1, 151200, Note_on_c, 9, 42, 127
1, 151201, Note_on_c, 9, 40, 126
1, 151209, Note_on_c, 13, 62, 61
1, 151213, Note_on_c, 13, 57, 61
1, 151213, Note_on_c, 13, 69, 60
1, 151220, Note_on_c, 9, 42, 0
1, 151221, Note_on_c, 9, 40, 0
1, 151340, Note_on_c, 1, 26, 0
1, 151408, Note_on_c, 11, 62, 0
1, 151408, Note_on_c, 14, 57, 0
1, 151409, Note_on_c, 14, 50, 0
1, 151412, Note_on_c, 11, 57, 0
1, 151412, Note_on_c, 11, 69, 0
1, 151428, Note_on_c, 11, 69, 61
1, 151429, Note_on_c, 13, 62, 0
1, 151429, Note_on_c, 15, 50, 0
1, 151429, Note_on_c, 15, 57, 0
1, 151429, Note_on_c, 11, 62, 61
1, 151429, Note_on_c, 14, 57, 99
1, 151430, Note_on_c, 11, 57, 60
1, 151433, Note_on_c, 13, 57, 0
1, 151433, Note_on_c, 13, 69, 0
1, 151433, Note_on_c, 14, 50, 98
1, 151439, Note_on_c, 1, 26, 118
1, 151441, Note_on_c, 9, 42, 95
1, 151449, Note_on_c, 13, 57, 60
1, 151449, Note_on_c, 13, 69, 61
1, 151451, Note_on_c, 15, 50, 99
1, 151452, Note_on_c, 15, 57, 98
1, 151453, Note_on_c, 13, 62, 61
1, 151461, Note_on_c, 9, 42, 0
1, 151461, System_exclusive, 33, 0, 32, 36, 0, 4, 87, 69, 76, 76, 32, 77, 65, 89, 66, 69, 32, 89, 79, 85, 32, 83, 72, 79, 85, 76, 68, 32, 75, 78, 79, 87, 10, 247
1, 151466, System_exclusive, 24, 0, 32, 36, 0, 5, 74, 85, 83, 84, 32, 72, 79, 87, 32, 73, 84, 32, 70, 69, 69, 76, 83, 10, 247
1, 151471, System_exclusive, 31, 0, 32, 36, 0, 6, 84, 79, 32, 66, 69, 32, 76, 69, 70, 84, 32, 79, 85, 84, 83, 73, 68, 69, 32, 65, 76, 79, 78, 69, 10, 247
1, 151476, System_exclusive, 31, 0, 32, 36, 0, 7, 84, 79, 32, 66, 69, 32, 76, 69, 70, 84, 32, 79, 85, 84, 83, 73, 68, 69, 32, 65, 76, 79, 78, 69, 10, 247
1, 151486, System_exclusive, 6, 0, 32, 36, 0, 8, 247
1, 151529, Note_on_c, 14, 57, 0
1, 151533, Note_on_c, 14, 50, 0
1, 151539, Note_on_c, 1, 26, 0
1, 151551, Note_on_c, 15, 50, 0
1, 151551, Note_on_c, 14, 57, 98
1, 151552, Note_on_c, 15, 57, 0
1, 151552, Note_on_c, 14, 50, 99
1, 151562, Note_on_c, 1, 26, 119
1, 151570, Note_on_c, 15, 50, 98
1, 151572, Note_on_c, 15, 57, 99
1, 151648, Note_on_c, 11, 69, 0
1, 151649, Note_on_c, 11, 62, 0
1, 151650, Note_on_c, 11, 57, 0
1, 151651, Note_on_c, 14, 57, 0
1, 151652, Note_on_c, 14, 50, 0
1, 151659, Note_on_c, 6, 72, 0
1, 151662, Note_on_c, 1, 26, 0
1, 151669, Note_on_c, 13, 57, 0
1, 151669, Note_on_c, 13, 69, 0
1, 151670, Note_on_c, 15, 50, 0
1, 151670, Note_on_c, 11, 57, 60
1, 151670, Note_on_c, 11, 62, 61
1, 151671, Note_on_c, 11, 69, 60
1, 151671, Note_on_c, 14, 50, 98
1, 151672, Note_on_c, 15, 57, 0
1, 151673, Note_on_c, 13, 62, 0
1, 151673, Note_on_c, 14, 57, 99
1, 151678, Note_on_c, 9, 42, 126
1, 151679, Note_on_c, 1, 26, 113
1, 151683, Note_on_c, 9, 36, 126
1, 151688, Note_on_c, 13, 69, 60
1, 151689, Note_on_c, 15, 50, 98
1, 151690, Note_on_c, 13, 62, 60
1, 151691, Note_on_c, 15, 57, 99
1, 151692, Note_on_c, 13, 57, 61
1, 151698, Note_on_c, 9, 42, 0
1, 151703, Note_on_c, 9, 36, 0
1, 151819, Note_on_c, 1, 26, 0
1, 151890, Note_on_c, 11, 57, 0
1, 151890, Note_on_c, 11, 62, 0
1, 151891, Note_on_c, 11, 69, 0
1, 151891, Note_on_c, 14, 50, 0
1, 151893, Note_on_c, 14, 57, 0
1, 151900, Note_on_c, 3, 81, 0
1, 151900, Note_on_c, 4, 57, 0
1, 151900, Note_on_c, 4, 62, 0
1, 151900, Note_on_c, 4, 65, 0
1, 151908, Note_on_c, 13, 69, 0
1, 151908, Note_on_c, 14, 50, 99
1, 151909, Note_on_c, 15, 50, 0
1, 151910, Note_on_c, 13, 62, 0
1, 151911, Note_on_c, 15, 57, 0
1, 151912, Note_on_c, 13, 57, 0
1, 151912, Note_on_c, 11, 57, 61
1, 151913, Note_on_c, 11, 62, 61
1, 151913, Note_on_c, 11, 69, 60
1, 151913, Note_on_c, 14, 57, 98
1, 151919, Note_on_c, 9, 42, 91
1, 151920, Note_on_c, 1, 26, 116
1, 151929, Note_on_c, 15, 50, 99
1, 151929, Note_on_c, 15, 57, 98
1, 151931, Note_on_c, 13, 62, 60
1, 151933, Note_on_c, 13, 57, 61
1, 151933, Note_on_c, 13, 69, 61
1, 151939, Note_on_c, 9, 42, 0
1, 152020, Note_on_c, 1, 26, 0
1, 152043, Note_on_c, 1, 26, 114
1, 152132, Note_on_c, 11, 57, 0
1, 152133, Note_on_c, 11, 62, 0
1, 152133, Note_on_c, 11, 69, 0
1, 152143, Note_on_c, 1, 26, 0
1, 152149, Note_on_c, 11, 57, 61
1, 152150, Note_on_c, 11, 62, 60
1, 152151, Note_on_c, 13, 62, 0
1, 152151, Note_on_c, 11, 69, 60
1, 152153, Note_on_c, 13, 57, 0
1, 152153, Note_on_c, 13, 69, 0
1, 152158, Note_on_c, 1, 26, 115
1, 152160, Note_on_c, 9, 42, 126
1, 152163, Note_on_c, 9, 40, 127
1, 152169, Note_on_c, 13, 62, 60
1, 152171, Note_on_c, 13, 57, 61
1, 152171, Note_on_c, 13, 69, 60
1, 152180, Note_on_c, 9, 42, 0
1, 152183, Note_on_c, 9, 40, 0
1, 152258, Note_on_c, 1, 26, 0
1, 152368, Note_on_c, 14, 50, 0
1, 152369, Note_on_c, 11, 57, 0
1, 152370, Note_on_c, 11, 62, 0
1, 152371, Note_on_c, 11, 69, 0
1, 152373, Note_on_c, 14, 57, 0
1, 152389, Note_on_c, 13, 62, 0
1, 152389, Note_on_c, 15, 50, 0
1, 152389, Note_on_c, 15, 57, 0
1, 152389, Note_on_c, 11, 57, 61
1, 152390, Note_on_c, 14, 50, 99
1, 152390, Note_on_c, 14, 57, 98
1, 152391, Note_on_c, 13, 57, 0
1, 152391, Note_on_c, 13, 69, 0
1, 152391, Note_on_c, 11, 62, 61
1, 152392, Note_on_c, 11, 69, 60
1, 152400, Note_on_c, 3, 77, 104
1, 152400, Note_on_c, 4, 57, 1
1, 152400, Note_on_c, 4, 62, 1
1, 152400, Note_on_c, 4, 65, 1
1, 152401, Note_on_c, 1, 26, 117
1, 152401, Note_on_c, 9, 42, 94
1, 152409, Note_on_c, 13, 57, 60
1, 152409, Note_on_c, 13, 62, 61
1, 152411, Note_on_c, 13, 69, 61
1, 152411, Note_on_c, 15, 57, 99
1, 152412, Note_on_c, 15, 50, 98
1, 152421, Note_on_c, 9, 42, 0
1, 152490, Note_on_c, 14, 50, 0
1, 152490, Note_on_c, 14, 57, 0
1, 152491, Note_on_c, 11, 62, 0
1, 152492, Note_on_c, 11, 69, 0
1, 152501, Note_on_c, 1, 26, 0
1, 152509, Note_on_c, 13, 62, 0
1, 152509, Note_on_c, 14, 57, 98
1, 152510, Note_on_c, 11, 62, 60
1, 152511, Note_on_c, 13, 69, 0
1, 152511, Note_on_c, 15, 57, 0
1, 152511, Note_on_c, 11, 57, 61
1, 152511, Note_on_c, 11, 69, 61
1, 152512, Note_on_c, 15, 50, 0
1, 152513, Note_on_c, 14, 50, 99
1, 152523, Note_on_c, 1, 26, 114
1, 152529, Note_on_c, 13, 62, 60
1, 152529, Note_on_c, 15, 50, 98
1, 152530, Note_on_c, 13, 69, 60
1, 152530, Note_on_c, 15, 57, 99
1, 152533, Note_on_c, 13, 57, 61
1, 152609, Note_on_c, 11, 57, 0
1, 152609, Note_on_c, 11, 57, 0
1, 152609, Note_on_c, 14, 57, 0
1, 152613, Note_on_c, 14, 50, 0
1, 152620, Note_on_c, 3, 77, 0
1, 152620, Note_on_c, 4, 57, 0
1, 152620, Note_on_c, 4, 62, 0
1, 152620, Note_on_c, 4, 65, 0
1, 152620, Note_on_c, 6, 69, 0
1, 152623, Note_on_c, 1, 26, 0
1, 152628, Note_on_c, 11, 57, 60
1, 152628, Note_on_c, 14, 57, 99
1, 152629, Note_on_c, 13, 57, 0
1, 152629, Note_on_c, 13, 57, 0
1, 152629, Note_on_c, 15, 50, 0
1, 152629, Note_on_c, 11, 62, 60
1, 152630, Note_on_c, 15, 57, 0
1, 152632, Note_on_c, 11, 69, 61
1, 152633, Note_on_c, 14, 50, 98
1, 152639, Note_on_c, 9, 42, 127
1, 152640, Note_on_c, 3, 77, 105
1, 152640, Note_on_c, 4, 55, 1
1, 152640, Note_on_c, 4, 60, 1
1, 152640, Note_on_c, 4, 64, 1
1, 152641, Note_on_c, 9, 36, 126
1, 152642, Note_on_c, 6, 67, 67
1, 152643, Note_on_c, 1, 26, 114
1, 152648, Note_on_c, 13, 57, 61
1, 152649, Note_on_c, 15, 50, 99
1, 152650, Note_on_c, 13, 69, 60
1, 152651, Note_on_c, 15, 57, 98
1, 152652, Note_on_c, 13, 62, 60
1, 152659, Note_on_c, 9, 42, 0
1, 152661, Note_on_c, 9, 36, 0
1, 152740, Note_on_c, 3, 77, 0
1, 152740, Note_on_c, 4, 55, 0
1, 152740, Note_on_c, 4, 60, 0
1, 152740, Note_on_c, 4, 64, 0
1, 152760, Note_on_c, 3, 79, 104
1, 152760, Note_on_c, 4, 55, 1
1, 152760, Note_on_c, 4, 60, 1
1, 152760, Note_on_c, 4, 64, 1
1, 152783, Note_on_c, 1, 26, 0
1, 152848, Note_on_c, 11, 57, 0
1, 152848, Note_on_c, 14, 57, 0
1, 152849, Note_on_c, 11, 62, 0
1, 152849, Note_on_c, 11, 62, 0
1, 152851, Note_on_c, 11, 69, 0
1, 152851, Note_on_c, 11, 69, 0
1, 152853, Note_on_c, 14, 50, 0
1, 152860, Note_on_c, 3, 79, 0
1, 152862, Note_on_c, 6, 67, 0
1, 152868, Note_on_c, 13, 57, 0
1, 152869, Note_on_c, 13, 62, 0
1, 152869, Note_on_c, 13, 62, 0
1, 152869, Note_on_c, 15, 50, 0
1, 152869, Note_on_c, 11, 57, 60
1, 152869, Note_on_c, 14, 57, 98
1, 152870, Note_on_c, 13, 69, 0
1, 152870, Note_on_c, 13, 69, 0
1, 152870, Note_on_c, 11, 62, 61
1, 152870, Note_on_c, 14, 50, 99
1, 152871, Note_on_c, 15, 57, 0
1, 152871, Note_on_c, 11, 69, 61
1, 152879, Note_on_c, 6, 69, 66
1, 152879, Note_on_c, 9, 36, 127
1, 152880, Note_on_c, 3, 81, 104
1, 152880, Note_on_c, 6, 72, 66
1, 152881, Note_on_c, 1, 26, 113
1, 152881, Note_on_c, 9, 42, 97
1, 152888, Note_on_c, 15, 50, 98
1, 152889, Note_on_c, 13, 57, 61
1, 152889, Note_on_c, 15, 57, 99
1, 152890, Note_on_c, 13, 62, 60
1, 152891, Note_on_c, 13, 69, 61
1, 152899, Note_on_c, 9, 36, 0
1, 152901, Note_on_c, 9, 42, 0
1, 152980, Note_on_c, 4, 55, 0
1, 152980, Note_on_c, 4, 60, 0
1, 152980, Note_on_c, 4, 64, 0
1, 153000, Note_on_c, 4, 55, 1
1, 153000, Note_on_c, 4, 60, 1
1, 153000, Note_on_c, 4, 64, 1
1, 153021, Note_on_c, 1, 26, 0
1, 153089, Note_on_c, 11, 57, 0
1, 153090, Note_on_c, 11, 62, 0
1, 153091, Note_on_c, 11, 69, 0
1, 153100, Note_on_c, 3, 81, 0
1, 153109, Note_on_c, 13, 57, 0
1, 153109, Note_on_c, 11, 57, 60
1, 153110, Note_on_c, 13, 62, 0
1, 153111, Note_on_c, 13, 69, 0
1, 153113, Note_on_c, 11, 62, 61
1, 153113, Note_on_c, 11, 69, 60
1, 153120, Note_on_c, 1, 26, 118
1, 153120, Note_on_c, 3, 84, 105
1, 153120, Note_on_c, 9, 42, 126
1, 153122, Note_on_c, 9, 40, 126
1, 153130, Note_on_c, 13, 57, 61
1, 153130, Note_on_c, 13, 69, 60
1, 153131, Note_on_c, 13, 62, 61
1, 153140, Note_on_c, 9, 42, 0
1, 153142, Note_on_c, 9, 40, 0
1, 153260, Note_on_c, 1, 26, 0
1, 153329, Note_on_c, 11, 57, 0
1, 153329, Note_on_c, 14, 57, 0
1, 153330, Note_on_c, 14, 50, 0
1, 153333, Note_on_c, 11, 62, 0
1, 153333, Note_on_c, 11, 69, 0
1, 153340, Note_on_c, 3, 84, 0
1, 153340, Note_on_c, 4, 55, 0
1, 153340, Note_on_c, 4, 60, 0
1, 153340, Note_on_c, 4, 64, 0
1, 153348, Note_on_c, 15, 50, 0
1, 153349, Note_on_c, 15, 57, 0
1, 153350, Note_on_c, 13, 57, 0
1, 153350, Note_on_c, 13, 69, 0
1, 153351, Note_on_c, 13, 62, 0
1, 153351, Note_on_c, 14, 50, 99
1, 153351, Note_on_c, 14, 57, 98
1, 153352, Note_on_c, 11, 57, 60
1, 153352, Note_on_c, 11, 62, 61
1, 153352, Note_on_c, 11, 69, 61
1, 153360, Note_on_c, 1, 26, 113
1, 153360, Note_on_c, 3, 79, 105
1, 153360, Note_on_c, 4, 57, 1
1, 153360, Note_on_c, 4, 62, 1
1, 153360, Note_on_c, 4, 65, 1
1, 153360, Note_on_c, 9, 42, 94
1, 153369, Note_on_c, 15, 57, 99
1, 153370, Note_on_c, 13, 57, 60
1, 153372, Note_on_c, 15, 50, 98
1, 153373, Note_on_c, 13, 62, 60
1, 153373, Note_on_c, 13, 69, 61
1, 153380, Note_on_c, 9, 42, 0
1, 153460, Note_on_c, 1, 26, 0
1, 153480, Note_on_c, 1, 26, 119
1, 153571, Note_on_c, 14, 50, 0
1, 153571, Note_on_c, 14, 57, 0
1, 153572, Note_on_c, 11, 57, 0
1, 153572, Note_on_c, 11, 62, 0
1, 153572, Note_on_c, 11, 69, 0
1, 153578, Note_on_c, 8, 50, 0
1, 153580, Note_on_c, 1, 26, 0
1, 153580, Note_on_c, 3, 79, 0
1, 153580, Note_on_c, 4, 57, 0
1, 153580, Note_on_c, 4, 62, 0
1, 153580, Note_on_c, 4, 65, 0
1, 153580, Note_on_c, 6, 72, 0
1, 153581, Note_on_c, 8, 38, 0
1, 153581, Note_on_c, 8, 57, 0
1, 153588, Note_on_c, 14, 53, 98
1, 153589, Note_on_c, 15, 57, 0
1, 153589, Note_on_c, 11, 65, 60
1, 153590, Note_on_c, 13, 57, 0
1, 153590, Note_on_c, 11, 58, 60
1, 153590, Note_on_c, 14, 46, 99
1, 153591, Note_on_c, 11, 62, 61
1, 153592, Note_on_c, 15, 50, 0
1, 153593, Note_on_c, 13, 62, 0
1, 153593, Note_on_c, 13, 69, 0
1, 153600, Note_on_c, 3, 77, 104
1, 153600, Note_on_c, 4, 53, 1
1, 153600, Note_on_c, 4, 58, 1
1, 153600, Note_on_c, 4, 62, 1
1, 153600, Note_on_c, 8, 53, 61
1, 153600, Note_on_c, 9, 49, 71
1, 153601, Note_on_c, 1, 34, 114
1, 153601, Note_on_c, 8, 34, 60
1, 153601, Note_on_c, 8, 46, 61
1, 153603, Note_on_c, 9, 36, 127
1, 153608, Note_on_c, 15, 53, 98
1, 153609, Note_on_c, 13, 58, 61
1, 153609, Note_on_c, 13, 62, 60
1, 153609, Note_on_c, 15, 46, 99
1, 153610, Note_on_c, 13, 65, 60
1, 153610, System_exclusive, 6, 0, 32, 36, 0, 8, 247
1, 153620, Note_on_c, 9, 49, 0
1, 153623, Note_on_c, 9, 36, 0
1, 153741, Note_on_c, 1, 34, 0
1, 153808, Note_on_c, 14, 53, 0
1, 153809, Note_on_c, 11, 65, 0
1, 153810, Note_on_c, 11, 58, 0
1, 153810, Note_on_c, 14, 46, 0
1, 153811, Note_on_c, 11, 62, 0
1, 153828, Note_on_c, 15, 53, 0
1, 153828, Note_on_c, 14, 46, 98
1, 153829, Note_on_c, 13, 58, 0
1, 153829, Note_on_c, 13, 62, 0
1, 153829, Note_on_c, 15, 46, 0
1, 153829, Note_on_c, 11, 58, 61
1, 153829, Note_on_c, 14, 53, 99
1, 153830, Note_on_c, 13, 65, 0
1, 153830, Note_on_c, 11, 65, 60
1, 153831, Note_on_c, 11, 62, 60
1, 153839, Note_on_c, 1, 34, 115
1, 153842, Note_on_c, 9, 42, 91
1, 153851, Note_on_c, 15, 53, 98
1, 153852, Note_on_c, 13, 65, 61
1, 153852, Note_on_c, 15, 46, 99
1, 153853, Note_on_c, 13, 58, 61
1, 153853, Note_on_c, 13, 62, 60
1, 153862, Note_on_c, 9, 42, 0
1, 153939, Note_on_c, 1, 34, 0
1, 153940, Note_on_c, 3, 77, 0
1, 153940, Note_on_c, 4, 53, 0
1, 153940, Note_on_c, 4, 58, 0
1, 153940, Note_on_c, 4, 62, 0
1, 153961, Note_on_c, 1, 34, 118
1, 154049, Note_on_c, 11, 58, 0
1, 154050, Note_on_c, 11, 65, 0
1, 154051, Note_on_c, 11, 62, 0
1, 154061, Note_on_c, 1, 34, 0
1, 154069, Note_on_c, 11, 58, 61
1, 154071, Note_on_c, 11, 62, 60
1, 154071, Note_on_c, 11, 65, 61
1, 154072, Note_on_c, 13, 65, 0
1, 154073, Note_on_c, 13, 58, 0
1, 154073, Note_on_c, 13, 62, 0
1, 154081, Note_on_c, 9, 40, 127
1, 154081, Note_on_c, 9, 42, 127
1, 154083, Note_on_c, 1, 34, 114
1, 154090, Note_on_c, 13, 58, 60
1, 154091, Note_on_c, 13, 62, 61
1, 154093, Note_on_c, 13, 65, 60
1, 154101, Note_on_c, 9, 40, 0
1, 154101, Note_on_c, 9, 42, 0
1, 154183, Note_on_c, 1, 34, 0
1, 154288, Note_on_c, 14, 46, 0
1, 154289, Note_on_c, 11, 58, 0
1, 154289, Note_on_c, 14, 53, 0
1, 154291, Note_on_c, 11, 62, 0
1, 154291, Note_on_c, 11, 65, 0
1, 154309, Note_on_c, 11, 58, 61
1, 154309, Note_on_c, 11, 62, 60
1, 154310, Note_on_c, 13, 58, 0
1, 154310, Note_on_c, 14, 46, 99
1, 154311, Note_on_c, 13, 62, 0
1, 154311, Note_on_c, 15, 53, 0
1, 154312, Note_on_c, 15, 46, 0
1, 154312, Note_on_c, 11, 65, 61
1, 154313, Note_on_c, 13, 65, 0
1, 154313, Note_on_c, 14, 53, 98
1, 154318, Note_on_c, 1, 34, 111
1, 154320, Note_on_c, 3, 77, 104
1, 154320, Note_on_c, 4, 57, 1
1, 154320, Note_on_c, 4, 62, 1
1, 154320, Note_on_c, 4, 65, 1
1, 154323, Note_on_c, 9, 42, 94
1, 154329, Note_on_c, 13, 58, 61
1, 154329, Note_on_c, 13, 62, 61
1, 154329, Note_on_c, 13, 65, 60
1, 154329, Note_on_c, 15, 53, 99
1, 154331, Note_on_c, 15, 46, 98
1, 154343, Note_on_c, 9, 42, 0
1, 154409, Note_on_c, 11, 58, 0
1, 154409, Note_on_c, 11, 62, 0
1, 154410, Note_on_c, 14, 46, 0
1, 154412, Note_on_c, 11, 65, 0
1, 154413, Note_on_c, 14, 53, 0
1, 154418, Note_on_c, 1, 34, 0
1, 154428, Note_on_c, 11, 62, 60
1, 154429, Note_on_c, 13, 58, 0
1, 154429, Note_on_c, 13, 62, 0
1, 154429, Note_on_c, 13, 65, 0
1, 154429, Note_on_c, 15, 53, 0
1, 154429, Note_on_c, 14, 46, 99
1, 154430, Note_on_c, 11, 58, 60
1, 154430, Note_on_c, 14, 53, 98
1, 154431, Note_on_c, 15, 46, 0
1, 154432, Note_on_c, 11, 65, 61
1, 154443, Note_on_c, 1, 34, 115
1, 154448, Note_on_c, 13, 62, 61
1, 154448, Note_on_c, 13, 65, 60
1, 154449, Note_on_c, 15, 46, 99
1, 154452, Note_on_c, 15, 53, 98
1, 154453, Note_on_c, 13, 58, 60
1, 154528, Note_on_c, 11, 62, 0
1, 154529, Note_on_c, 14, 46, 0
1, 154530, Note_on_c, 11, 58, 0
1, 154530, Note_on_c, 14, 53, 0
1, 154532, Note_on_c, 11, 65, 0
1, 154539, Note_on_c, 6, 69, 0
1, 154540, Note_on_c, 3, 77, 0
1, 154540, Note_on_c, 4, 57, 0
1, 154540, Note_on_c, 4, 62, 0
1, 154540, Note_on_c, 4, 65, 0
1, 154543, Note_on_c, 1, 34, 0
1, 154548, Note_on_c, 13, 62, 0
1, 154548, Note_on_c, 13, 65, 0
1, 154549, Note_on_c, 15, 46, 0
1, 154550, Note_on_c, 11, 62, 61
1, 154551, Note_on_c, 11, 58, 60
1, 154551, Note_on_c, 11, 65, 60
1, 154552, Note_on_c, 15, 53, 0
1, 154553, Note_on_c, 13, 58, 0
1, 154553, Note_on_c, 14, 46, 98
1, 154553, Note_on_c, 14, 53, 99
1, 154559, Note_on_c, 6, 67, 67
1, 154559, Note_on_c, 9, 36, 126
1, 154560, Note_on_c, 1, 34, 110
1, 154560, Note_on_c, 3, 81, 105
1, 154560, Note_on_c, 4, 55, 1
1, 154560, Note_on_c, 4, 60, 1
1, 154560, Note_on_c, 4, 69, 1
1, 154561, Note_on_c, 9, 42, 126
1, 154570, Note_on_c, 15, 46, 98
1, 154570, Note_on_c, 15, 53, 99
1, 154572, Note_on_c, 13, 58, 61
1, 154572, Note_on_c, 13, 62, 61
1, 154573, Note_on_c, 13, 65, 60
1, 154579, Note_on_c, 9, 36, 0
1, 154581, Note_on_c, 9, 42, 0
1, 154700, Note_on_c, 1, 34, 0
1, 154770, Note_on_c, 11, 62, 0
1, 154771, Note_on_c, 11, 58, 0
1, 154771, Note_on_c, 11, 65, 0
1, 154773, Note_on_c, 14, 46, 0
1, 154773, Note_on_c, 14, 53, 0
1, 154779, Note_on_c, 6, 67, 0
1, 154780, Note_on_c, 3, 81, 0
1, 154780, Note_on_c, 4, 55, 0
1, 154780, Note_on_c, 4, 60, 0
1, 154780, Note_on_c, 4, 69, 0
1, 154789, Note_on_c, 14, 46, 99
1, 154790, Note_on_c, 15, 46, 0
1, 154790, Note_on_c, 15, 53, 0
1, 154791, Note_on_c, 11, 65, 61
1, 154791, Note_on_c, 14, 53, 98
1, 154792, Note_on_c, 13, 58, 0
1, 154792, Note_on_c, 13, 62, 0
1, 154792, Note_on_c, 11, 58, 61
1, 154792, Note_on_c, 11, 62, 60
1, 154793, Note_on_c, 13, 65, 0
1, 154799, Note_on_c, 6, 72, 67
1, 154799, Note_on_c, 9, 42, 97
1, 154800, Note_on_c, 3, 79, 105
1, 154800, Note_on_c, 4, 58, 1
1, 154800, Note_on_c, 4, 64, 1
1, 154800, Note_on_c, 4, 67, 1
1, 154801, Note_on_c, 1, 34, 112
1, 154801, Note_on_c, 6, 69, 66
1, 154809, Note_on_c, 15, 46, 99
1, 154810, Note_on_c, 13, 58, 60
1, 154812, Note_on_c, 13, 62, 61
1, 154812, Note_on_c, 13, 65, 61
1, 154812, Note_on_c, 15, 53, 98
1, 154819, Note_on_c, 9, 42, 0
1, 154941, Note_on_c, 1, 34, 0
1, 155009, Note_on_c, 14, 46, 0
1, 155011, Note_on_c, 11, 65, 0
1, 155011, Note_on_c, 14, 53, 0
1, 155012, Note_on_c, 11, 58, 0
1, 155012, Note_on_c, 11, 62, 0
1, 155020, Note_on_c, 3, 79, 0
1, 155020, Note_on_c, 4, 58, 0
1, 155020, Note_on_c, 4, 64, 0
1, 155020, Note_on_c, 4, 67, 0
1, 155029, Note_on_c, 15, 46, 0
1, 155029, Note_on_c, 11, 65, 60
1, 155030, Note_on_c, 13, 58, 0
1, 155030, Note_on_c, 14, 53, 98
1, 155031, Note_on_c, 11, 58, 61
1, 155032, Note_on_c, 13, 62, 0
1, 155032, Note_on_c, 13, 65, 0
1, 155032, Note_on_c, 15, 53, 0
1, 155032, Note_on_c, 14, 46, 99
1, 155033, Note_on_c, 11, 62, 60
1, 155039, Note_on_c, 9, 40, 127
1, 155039, Note_on_c, 9, 42, 126
1, 155040, Note_on_c, 3, 79, 104
1, 155040, Note_on_c, 4, 58, 1
1, 155040, Note_on_c, 4, 62, 1
1, 155040, Note_on_c, 4, 67, 1
1, 155042, Note_on_c, 1, 34, 119
1, 155049, Note_on_c, 13, 62, 60
1, 155050, Note_on_c, 13, 58, 60
1, 155052, Note_on_c, 13, 65, 61
1, 155052, Note_on_c, 15, 53, 98
1, 155053, Note_on_c, 15, 46, 99
1, 155059, Note_on_c, 9, 40, 0
1, 155059, Note_on_c, 9, 42, 0
1, 155182, Note_on_c, 1, 34, 0
1, 155250, Note_on_c, 14, 53, 0
1, 155251, Note_on_c, 11, 58, 0
1, 155252, Note_on_c, 14, 46, 0
1, 155253, Note_on_c, 11, 62, 0
1, 155268, Note_on_c, 11, 65, 61
1, 155268, Note_on_c, 14, 53, 99
1, 155269, Note_on_c, 13, 62, 0
1, 155270, Note_on_c, 13, 58, 0
1, 155271, Note_on_c, 11, 62, 61
1, 155272, Note_on_c, 15, 53, 0
1, 155272, Note_on_c, 11, 58, 60
1, 155272, Note_on_c, 14, 46, 98
1, 155273, Note_on_c, 15, 46, 0
1, 155281, Note_on_c, 1, 34, 119
1, 155282, Note_on_c, 9, 42, 95
1, 155288, Note_on_c, 13, 65, 60
1, 155289, Note_on_c, 15, 53, 99
1, 155291, Note_on_c, 13, 62, 61
1, 155291, Note_on_c, 15, 46, 98
1, 155292, Note_on_c, 13, 58, 61
1, 155302, Note_on_c, 9, 42, 0
1, 155350, System_exclusive, 6, 0, 32, 36, 0, 8, 247
1, 155368, Note_on_c, 11, 65, 0
1, 155368, Note_on_c, 11, 65, 0
1, 155381, Note_on_c, 1, 34, 0
1, 155388, Note_on_c, 13, 65, 0
1, 155388, Note_on_c, 13, 65, 0
1, 155401, Note_on_c, 1, 34, 118
1, 155488, Note_on_c, 14, 53, 0
1, 155491, Note_on_c, 11, 62, 0
1, 155492, Note_on_c, 11, 58, 0
1, 155492, Note_on_c, 14, 46, 0
1, 155499, Note_on_c, 6, 72, 0
1, 155500, Note_on_c, 8, 53, 0
1, 155501, Note_on_c, 1, 34, 0
1, 155501, Note_on_c, 8, 34, 0
1, 155501, Note_on_c, 8, 46, 0
1, 155508, Note_on_c, 14, 48, 98
1, 155509, Note_on_c, 15, 53, 0
1, 155509, Note_on_c, 11, 60, 61
1, 155510, Note_on_c, 11, 64, 60
1, 155510, Note_on_c, 14, 55, 99
1, 155511, Note_on_c, 13, 62, 0
1, 155511, Note_on_c, 15, 46, 0
1, 155512, Note_on_c, 13, 58, 0
1, 155512, Note_on_c, 11, 67, 60
1, 155518, Note_on_c, 9, 36, 126
1, 155521, Note_on_c, 1, 36, 118
1, 155521, Note_on_c, 8, 36, 60
1, 155521, Note_on_c, 8, 55, 60
1, 155521, Note_on_c, 9, 42, 127
1, 155523, Note_on_c, 8, 48, 61
1, 155530, Note_on_c, 13, 60, 60
1, 155531, Note_on_c, 15, 48, 98
1, 155531, Note_on_c, 15, 55, 99
1, 155532, Note_on_c, 13, 64, 61
1, 155532, Note_on_c, 13, 67, 60
1, 155538, Note_on_c, 9, 36, 0
1, 155541, Note_on_c, 9, 42, 0
1, 155661, Note_on_c, 1, 36, 0
1, 155728, Note_on_c, 14, 48, 0
1, 155729, Note_on_c, 11, 60, 0
1, 155730, Note_on_c, 11, 64, 0
1, 155730, Note_on_c, 14, 55, 0
1, 155732, Note_on_c, 11, 67, 0
1, 155748, Note_on_c, 14, 55, 98
1, 155749, Note_on_c, 14, 48, 99
1, 155750, Note_on_c, 13, 60, 0
1, 155750, Note_on_c, 11, 67, 61
1, 155751, Note_on_c, 15, 48, 0
1, 155751, Note_on_c, 15, 55, 0
1, 155751, Note_on_c, 11, 60, 61
1, 155752, Note_on_c, 13, 64, 0
1, 155752, Note_on_c, 13, 67, 0
1, 155753, Note_on_c, 11, 64, 60
1, 155760, Note_on_c, 9, 42, 90
1, 155761, Note_on_c, 1, 36, 115
1, 155769, Note_on_c, 13, 60, 60
1, 155769, Note_on_c, 13, 67, 61
1, 155769, Note_on_c, 15, 48, 98
1, 155770, Note_on_c, 15, 55, 99
1, 155772, Note_on_c, 13, 64, 61
1, 155780, Note_on_c, 9, 42, 0
1, 155861, Note_on_c, 1, 36, 0
1, 155879, Note_on_c, 1, 36, 114
1, 155970, Note_on_c, 11, 67, 0
1, 155971, Note_on_c, 11, 60, 0
1, 155973, Note_on_c, 11, 64, 0
1, 155979, Note_on_c, 1, 36, 0
1, 155980, Note_on_c, 3, 79, 0
1, 155980, Note_on_c, 4, 58, 0
1, 155980, Note_on_c, 4, 62, 0
1, 155980, Note_on_c, 4, 67, 0
1, 155989, Note_on_c, 13, 60, 0
1, 155989, Note_on_c, 13, 67, 0
1, 155989, Note_on_c, 11, 60, 60
1, 155989, Note_on_c, 11, 64, 61
1, 155990, Note_on_c, 11, 67, 61
1, 155992, Note_on_c, 13, 64, 0
1, 155998, Note_on_c, 1, 36, 111
1, 156002, Note_on_c, 9, 42, 127
1, 156003, Note_on_c, 9, 40, 126
1, 156009, Note_on_c, 13, 64, 60
1, 156009, Note_on_c, 13, 67, 60
1, 156010, Note_on_c, 13, 60, 61
1, 156022, Note_on_c, 9, 42, 0
1, 156023, Note_on_c, 9, 40, 0
1, 156098, Note_on_c, 1, 36, 0
1, 156208, Note_on_c, 14, 55, 0
1, 156209, Note_on_c, 11, 60, 0
1, 156209, Note_on_c, 11, 64, 0
1, 156209, Note_on_c, 14, 48, 0
1, 156210, Note_on_c, 11, 67, 0
1, 156229, Note_on_c, 13, 64, 0
1, 156229, Note_on_c, 13, 67, 0
1, 156229, Note_on_c, 15, 48, 0
1, 156229, Note_on_c, 11, 60, 60
1, 156229, Note_on_c, 14, 48, 99
1, 156229, Note_on_c, 14, 55, 98
1, 156230, Note_on_c, 13, 60, 0
1, 156230, Note_on_c, 15, 55, 0
1, 156230, Note_on_c, 11, 64, 60
1, 156232, Note_on_c, 11, 67, 61
1, 156239, Note_on_c, 1, 36, 115
1, 156240, Note_on_c, 3, 77, 104
1, 156240, Note_on_c, 4, 60, 1
1, 156241, Note_on_c, 9, 42, 94
1, 156248, Note_on_c, 15, 55, 99
1, 156249, Note_on_c, 13, 64, 61
1, 156249, Note_on_c, 15, 48, 98
1, 156252, Note_on_c, 13, 60, 60
1, 156252, Note_on_c, 13, 67, 60
1, 156261, Note_on_c, 9, 42, 0
1, 156329, Note_on_c, 11, 60, 0
1, 156329, Note_on_c, 14, 48, 0
1, 156329, Note_on_c, 14, 55, 0
1, 156330, Note_on_c, 11, 64, 0
1, 156332, Note_on_c, 11, 67, 0
1, 156339, Note_on_c, 1, 36, 0
1, 156340, Note_on_c, 3, 77, 0
1, 156340, Note_on_c, 4, 60, 0
1, 156348, Note_on_c, 15, 55, 0
1, 156349, Note_on_c, 13, 64, 0
1, 156349, Note_on_c, 15, 48, 0
1, 156349, Note_on_c, 11, 60, 60
1, 156352, Note_on_c, 13, 60, 0
1, 156352, Note_on_c, 13, 67, 0
1, 156352, Note_on_c, 14, 48, 99
1, 156352, Note_on_c, 14, 55, 98
1, 156353, Note_on_c, 11, 64, 61
1, 156353, Note_on_c, 11, 67, 61
1, 156360, Note_on_c, 3, 77, 105
1, 156360, Note_on_c, 4, 60, 1
1, 156362, Note_on_c, 1, 36, 116
1, 156369, Note_on_c, 13, 60, 61
1, 156369, Note_on_c, 13, 67, 60
1, 156369, Note_on_c, 15, 48, 99
1, 156370, Note_on_c, 13, 64, 61
1, 156373, Note_on_c, 15, 55, 98
1, 156449, Note_on_c, 11, 60, 0
1, 156452, Note_on_c, 14, 48, 0
1, 156452, Note_on_c, 14, 55, 0
1, 156453, Note_on_c, 11, 64, 0
1, 156453, Note_on_c, 11, 67, 0
1, 156460, Note_on_c, 3, 77, 0
1, 156460, Note_on_c, 4, 60, 0
1, 156461, Note_on_c, 6, 69, 0
1, 156462, Note_on_c, 1, 36, 0
1, 156469, Note_on_c, 13, 60, 0
1, 156469, Note_on_c, 13, 67, 0
1, 156469, Note_on_c, 15, 48, 0
1, 156469, Note_on_c, 11, 60, 60
1, 156469, Note_on_c, 11, 67, 61
1, 156469, Note_on_c, 14, 48, 98
1, 156469, Note_on_c, 14, 55, 99
1, 156470, Note_on_c, 13, 64, 0
1, 156473, Note_on_c, 15, 55, 0
1, 156473, Note_on_c, 11, 64, 60
1, 156478, Note_on_c, 6, 67, 66
1, 156478, Note_on_c, 9, 36, 127
1, 156480, Note_on_c, 1, 36, 113
1, 156480, Note_on_c, 3, 81, 104
1, 156480, Note_on_c, 4, 60, 1
1, 156480, Note_on_c, 9, 42, 126
1, 156489, Note_on_c, 15, 48, 98
1, 156490, Note_on_c, 13, 64, 61
1, 156492, Note_on_c, 13, 67, 60
1, 156492, Note_on_c, 15, 55, 99
1, 156493, Note_on_c, 13, 60, 61
1, 156498, Note_on_c, 9, 36, 0
1, 156500, Note_on_c, 9, 42, 0
1, 156620, Note_on_c, 1, 36, 0
1, 156689, Note_on_c, 11, 60, 0
1, 156689, Note_on_c, 11, 67, 0
1, 156689, Note_on_c, 14, 48, 0
1, 156689, Note_on_c, 14, 55, 0
1, 156693, Note_on_c, 11, 64, 0
1, 156698, Note_on_c, 6, 67, 0
1, 156700, Note_on_c, 3, 81, 0
1, 156700, Note_on_c, 4, 60, 0
1, 156709, Note_on_c, 15, 48, 0
1, 156709, Note_on_c, 11, 67, 60
1, 156710, Note_on_c, 13, 64, 0
1, 156710, Note_on_c, 11, 64, 61
1, 156710, Note_on_c, 14, 55, 99
1, 156712, Note_on_c, 13, 67, 0
1, 156712, Note_on_c, 15, 55, 0
1, 156712, Note_on_c, 14, 48, 98
1, 156713, Note_on_c, 13, 60, 0
1, 156713, Note_on_c, 11, 60, 61
1, 156720, Note_on_c, 3, 79, 105
1, 156720, Note_on_c, 4, 60, 1
1, 156720, Note_on_c, 6, 69, 67
1, 156721, Note_on_c, 1, 36, 114
1, 156721, Note_on_c, 9, 36, 127
1, 156722, Note_on_c, 6, 72, 67
1, 156723, Note_on_c, 9, 42, 97
1, 156729, Note_on_c, 13, 60, 60
1, 156730, Note_on_c, 13, 64, 60
1, 156732, Note_on_c, 15, 55, 99
1, 156733, Note_on_c, 13, 67, 61
1, 156733, Note_on_c, 15, 48, 98
1, 156741, Note_on_c, 9, 36, 0
1, 156743, Note_on_c, 9, 42, 0
1, 156861, Note_on_c, 1, 36, 0
1, 156929, Note_on_c, 11, 67, 0
1, 156930, Note_on_c, 11, 64, 0
1, 156933, Note_on_c, 11, 60, 0
1, 156940, Note_on_c, 3, 79, 0
1, 156940, Note_on_c, 4, 60, 0
1, 156948, Note_on_c, 11, 67, 60
1, 156949, Note_on_c, 13, 60, 0
1, 156950, Note_on_c, 13, 64, 0
1, 156951, Note_on_c, 11, 60, 60
1, 156951, Note_on_c, 11, 64, 61
1, 156953, Note_on_c, 13, 67, 0
1, 156960, Note_on_c, 1, 36, 116
1, 156960, Note_on_c, 3, 79, 105
1, 156960, Note_on_c, 4, 60, 1
1, 156961, Note_on_c, 9, 40, 127
1, 156962, Note_on_c, 9, 42, 127
1, 156972, Note_on_c, 13, 60, 61
1, 156973, Note_on_c, 13, 64, 60
1, 156973, Note_on_c, 13, 67, 60
1, 156981, Note_on_c, 9, 40, 0
1, 156982, Note_on_c, 9, 42, 0
1, 157100, Note_on_c, 1, 36, 0
1, 157168, Note_on_c, 11, 67, 0
1, 157170, Note_on_c, 14, 55, 0
1, 157171, Note_on_c, 11, 60, 0
1, 157171, Note_on_c, 11, 64, 0
1, 157172, Note_on_c, 14, 48, 0
1, 157180, Note_on_c, 3, 79, 0
1, 157180, Note_on_c, 4, 60, 0
1, 157189, Note_on_c, 11, 64, 61
1, 157189, Note_on_c, 14, 55, 98
1, 157191, Note_on_c, 14, 48, 99
1, 157192, Note_on_c, 13, 60, 0
1, 157192, Note_on_c, 15, 55, 0
1, 157192, Note_on_c, 11, 60, 60
1, 157192, Note_on_c, 11, 67, 60
1, 157193, Note_on_c, 13, 64, 0
1, 157193, Note_on_c, 13, 67, 0
1, 157193, Note_on_c, 15, 48, 0
1, 157198, Note_on_c, 1, 36, 117
1, 157200, Note_on_c, 3, 77, 104
1, 157200, Note_on_c, 4, 57, 1
1, 157202, Note_on_c, 9, 42, 94
1, 157208, Note_on_c, 13, 67, 61
1, 157209, Note_on_c, 13, 64, 61
1, 157209, Note_on_c, 15, 55, 98
1, 157211, Note_on_c, 13, 60, 60
1, 157211, Note_on_c, 15, 48, 99
1, 157222, Note_on_c, 9, 42, 0
1, 157289, Note_on_c, 14, 55, 0
1, 157291, Note_on_c, 14, 48, 0
1, 157298, Note_on_c, 1, 36, 0
1, 157300, Note_on_c, 3, 77, 0
1, 157300, Note_on_c, 4, 57, 0
1, 157308, Note_on_c, 14, 55, 99
1, 157309, Note_on_c, 15, 55, 0
1, 157311, Note_on_c, 15, 48, 0
1, 157312, Note_on_c, 14, 48, 98
1, 157320, Note_on_c, 3, 77, 105
1, 157320, Note_on_c, 4, 57, 1
1, 157321, Note_on_c, 1, 36, 113
1, 157331, Note_on_c, 15, 55, 99
1, 157332, Note_on_c, 15, 48, 98
1, 157408, Note_on_c, 14, 55, 0
1, 157409, Note_on_c, 11, 64, 0
1, 157412, Note_on_c, 11, 60, 0
1, 157412, Note_on_c, 11, 67, 0
1, 157412, Note_on_c, 14, 48, 0
1, 157421, Note_on_c, 1, 36, 0
1, 157421, Note_on_c, 8, 36, 0
1, 157421, Note_on_c, 8, 55, 0
1, 157422, Note_on_c, 6, 72, 0
1, 157423, Note_on_c, 8, 48, 0
1, 157428, Note_on_c, 13, 67, 0
1, 157429, Note_on_c, 13, 64, 0
1, 157429, Note_on_c, 11, 57, 61
1, 157430, Note_on_c, 11, 64, 60
1, 157430, Note_on_c, 14, 45, 98
1, 157430, Note_on_c, 14, 52, 99
1, 157431, Note_on_c, 13, 60, 0
1, 157431, Note_on_c, 15, 55, 0
1, 157432, Note_on_c, 15, 48, 0
1, 157432, Note_on_c, 11, 69, 61
1, 157438, Note_on_c, 1, 33, 112
1, 157438, Note_on_c, 8, 45, 61
1, 157439, Note_on_c, 7, 64, 60
1, 157439, Note_on_c, 8, 33, 60
1, 157441, Note_on_c, 8, 52, 60
1, 157441, Note_on_c, 9, 42, 126
1, 157442, Note_on_c, 9, 36, 126
1, 157450, Note_on_c, 13, 57, 60
1, 157450, Note_on_c, 13, 64, 61
1, 157450, Note_on_c, 15, 52, 98
1, 157453, Note_on_c, 13, 69, 60
1, 157453, Note_on_c, 15, 45, 99
1, 157461, Note_on_c, 9, 42, 0
1, 157462, Note_on_c, 9, 36, 0
1, 157540, System_exclusive, 6, 0, 32, 36, 0, 8, 247
1, 157578, Note_on_c, 1, 33, 0
1, 157649, Note_on_c, 11, 57, 0
1, 157650, Note_on_c, 11, 64, 0
1, 157650, Note_on_c, 14, 45, 0
1, 157650, Note_on_c, 14, 52, 0
1, 157652, Note_on_c, 11, 69, 0
1, 157660, Note_on_c, 3, 77, 0
1, 157668, Note_on_c, 14, 45, 98
1, 157669, Note_on_c, 11, 69, 61
1, 157670, Note_on_c, 13, 57, 0
1, 157670, Note_on_c, 13, 64, 0
1, 157670, Note_on_c, 15, 52, 0
1, 157670, Note_on_c, 11, 57, 60
1, 157671, Note_on_c, 14, 52, 99
1, 157673, Note_on_c, 13, 69, 0
1, 157673, Note_on_c, 15, 45, 0
1, 157673, Note_on_c, 11, 64, 61
1, 157680, Note_on_c, 3, 76, 104
1, 157680, Note_on_c, 9, 42, 91
1, 157682, Note_on_c, 1, 33, 114
1, 157688, Note_on_c, 15, 45, 98
1, 157689, Note_on_c, 13, 64, 61
1, 157689, Note_on_c, 15, 52, 99
1, 157691, Note_on_c, 13, 57, 61
1, 157692, Note_on_c, 13, 69, 60
1, 157700, Note_on_c, 9, 42, 0
1, 157782, Note_on_c, 1, 33, 0
1, 157801, Note_on_c, 1, 33, 111
1, 157889, Note_on_c, 11, 69, 0
1, 157890, Note_on_c, 11, 57, 0
1, 157893, Note_on_c, 11, 64, 0
1, 157901, Note_on_c, 1, 33, 0
1, 157909, Note_on_c, 13, 64, 0
1, 157909, Note_on_c, 11, 57, 60
1, 157909, Note_on_c, 11, 64, 60
1, 157909, Note_on_c, 11, 69, 61
1, 157911, Note_on_c, 13, 57, 0
1, 157912, Note_on_c, 13, 69, 0
1, 157918, Note_on_c, 1, 33, 113
1, 157918, Note_on_c, 9, 42, 127
1, 157922, Note_on_c, 9, 40, 126
1, 157930, Note_on_c, 13, 57, 61
1, 157931, Note_on_c, 13, 64, 60
1, 157931, Note_on_c, 13, 69, 60
1, 157938, Note_on_c, 9, 42, 0
1, 157942, Note_on_c, 9, 40, 0
1, 158018, Note_on_c, 1, 33, 0
1, 158020, Note_on_c, 3, 76, 0
1, 158020, Note_on_c, 4, 57, 0
1, 158128, Note_on_c, 14, 45, 0
1, 158129, Note_on_c, 11, 57, 0
1, 158129, Note_on_c, 11, 64, 0
1, 158129, Note_on_c, 11, 69, 0
1, 158131, Note_on_c, 14, 52, 0
1, 158148, Note_on_c, 15, 45, 0
1, 158148, Note_on_c, 11, 64, 61
1, 158149, Note_on_c, 15, 52, 0
1, 158149, Note_on_c, 11, 69, 60
1, 158149, Note_on_c, 14, 45, 99
1, 158150, Note_on_c, 13, 57, 0
1, 158150, Note_on_c, 14, 52, 98
1, 158151, Note_on_c, 13, 64, 0
1, 158151, Note_on_c, 13, 69, 0
1, 158151, Note_on_c, 11, 57, 60
1, 158160, Note_on_c, 3, 74, 104
1, 158160, Note_on_c, 4, 57, 1
1, 158161, Note_on_c, 9, 42, 94
1, 158163, Note_on_c, 1, 33, 114
1, 158168, Note_on_c, 13, 64, 61
1, 158170, Note_on_c, 13, 57, 61
1, 158170, Note_on_c, 15, 52, 99
1, 158171, Note_on_c, 13, 69, 60
1, 158173, Note_on_c, 15, 45, 98
1, 158181, Note_on_c, 9, 42, 0
1, 158248, Note_on_c, 11, 64, 0
1, 158249, Note_on_c, 11, 69, 0
1, 158249, Note_on_c, 14, 45, 0
1, 158250, Note_on_c, 14, 52, 0
1, 158251, Note_on_c, 11, 57, 0
1, 158260, Note_on_c, 3, 74, 0
1, 158260, Note_on_c, 4, 57, 0
1, 158263, Note_on_c, 1, 33, 0
1, 158268, Note_on_c, 13, 64, 0
1, 158269, Note_on_c, 14, 45, 99
1, 158270, Note_on_c, 13, 57, 0
1, 158270, Note_on_c, 15, 52, 0
1, 158270, Note_on_c, 14, 52, 98
1, 158271, Note_on_c, 13, 69, 0
1, 158271, Note_on_c, 11, 57, 61
1, 158271, Note_on_c, 11, 69, 61
1, 158272, Note_on_c, 11, 64, 60
1, 158273, Note_on_c, 15, 45, 0
1, 158279, Note_on_c, 1, 33, 112
1, 158280, Note_on_c, 3, 74, 105
1, 158280, Note_on_c, 4, 57, 1
1, 158288, Note_on_c, 13, 57, 60
1, 158291, Note_on_c, 15, 45, 99
1, 158292, Note_on_c, 13, 69, 61
1, 158293, Note_on_c, 13, 64, 61
1, 158293, Note_on_c, 15, 52, 98
1, 158369, Note_on_c, 14, 45, 0
1, 158370, Note_on_c, 14, 52, 0
1, 158371, Note_on_c, 11, 57, 0
1, 158371, Note_on_c, 11, 69, 0
1, 158372, Note_on_c, 11, 64, 0
1, 158379, Note_on_c, 1, 33, 0
1, 158380, Note_on_c, 3, 74, 0
1, 158380, Note_on_c, 4, 57, 0
1, 158388, Note_on_c, 13, 57, 0
1, 158389, Note_on_c, 14, 45, 98
1, 158390, Note_on_c, 11, 64, 60
1, 158391, Note_on_c, 15, 45, 0
1, 158392, Note_on_c, 13, 69, 0
1, 158392, Note_on_c, 14, 52, 99
1, 158393, Note_on_c, 13, 64, 0
1, 158393, Note_on_c, 15, 52, 0
1, 158393, Note_on_c, 11, 57, 61
1, 158393, Note_on_c, 11, 69, 60
1, 158400, Note_on_c, 1, 33, 117
1, 158400, Note_on_c, 3, 74, 105
1, 158400, Note_on_c, 4, 57, 1
1, 158402, Note_on_c, 9, 36, 126
1, 158402, Note_on_c, 9, 42, 126
1, 158408, Note_on_c, 15, 45, 98
1, 158409, Note_on_c, 13, 57, 60
1, 158409, Note_on_c, 13, 64, 60
1, 158410, Note_on_c, 13, 69, 61
1, 158412, Note_on_c, 15, 52, 99
1, 158422, Note_on_c, 9, 36, 0
1, 158422, Note_on_c, 9, 42, 0
1, 158540, Note_on_c, 1, 33, 0
1, 158609, Note_on_c, 14, 45, 0
1, 158610, Note_on_c, 11, 64, 0
1, 158612, Note_on_c, 14, 52, 0
1, 158613, Note_on_c, 11, 57, 0
1, 158613, Note_on_c, 11, 69, 0
1, 158620, Note_on_c, 3, 74, 0
1, 158620, Note_on_c, 4, 57, 0
1, 158628, Note_on_c, 15, 45, 0
1, 158628, Note_on_c, 14, 45, 99
1, 158628, Note_on_c, 14, 52, 98
1, 158629, Note_on_c, 13, 57, 0
1, 158629, Note_on_c, 13, 64, 0
1, 158629, Note_on_c, 11, 64, 61
1, 158630, Note_on_c, 13, 69, 0
1, 158630, Note_on_c, 11, 57, 61
1, 158632, Note_on_c, 15, 52, 0
1, 158633, Note_on_c, 11, 69, 60
1, 158640, Note_on_c, 1, 33, 116
1, 158640, Note_on_c, 3, 76, 104
1, 158640, Note_on_c, 4, 57, 1
1, 158643, Note_on_c, 9, 42, 97
1, 158649, Note_on_c, 15, 52, 99
1, 158650, Note_on_c, 15, 45, 98
1, 158651, Note_on_c, 13, 57, 60
1, 158652, Note_on_c, 13, 64, 61
1, 158653, Note_on_c, 13, 69, 61
1, 158663, Note_on_c, 9, 42, 0
1, 158780, Note_on_c, 1, 33, 0
1, 158849, Note_on_c, 11, 64, 0
1, 158850, Note_on_c, 11, 57, 0
1, 158853, Note_on_c, 11, 69, 0
1, 158860, Note_on_c, 3, 76, 0
1, 158860, Note_on_c, 4, 57, 0
1, 158868, Note_on_c, 11, 57, 61
1, 158870, Note_on_c, 11, 64, 60
1, 158870, Note_on_c, 11, 69, 60
1, 158871, Note_on_c, 13, 57, 0
1, 158872, Note_on_c, 13, 64, 0
1, 158873, Note_on_c, 13, 69, 0
1, 158879, Note_on_c, 1, 33, 119
1, 158880, Note_on_c, 3, 77, 104
1, 158880, Note_on_c, 4, 57, 1
1, 158880, Note_on_c, 9, 40, 126
1, 158880, Note_on_c, 9, 42, 126
1, 158889, Note_on_c, 13, 64, 60
1, 158890, Note_on_c, 13, 69, 61
1, 158893, Note_on_c, 13, 57, 60
1, 158900, Note_on_c, 9, 40, 0
1, 158900, Note_on_c, 9, 42, 0
1, 159019, Note_on_c, 1, 33, 0
1, 159088, Note_on_c, 11, 57, 0
1, 159088, Note_on_c, 14, 45, 0
1, 159088, Note_on_c, 14, 52, 0
1, 159090, Note_on_c, 11, 64, 0
1, 159090, Note_on_c, 11, 69, 0
1, 159100, Note_on_c, 3, 77, 0
1, 159100, Note_on_c, 4, 57, 0
1, 159109, Note_on_c, 13, 64, 0
1, 159109, Note_on_c, 15, 52, 0
1, 159109, Note_on_c, 11, 57, 61
1, 159109, Note_on_c, 11, 69, 61
1, 159110, Note_on_c, 13, 69, 0
1, 159110, Note_on_c, 15, 45, 0
1, 159110, Note_on_c, 14, 52, 98
1, 159112, Note_on_c, 11, 64, 60
1, 159112, Note_on_c, 14, 45, 99
1, 159113, Note_on_c, 13, 57, 0
1, 159119, Note_on_c, 9, 42, 95
1, 159120, Note_on_c, 3, 79, 105
1, 159120, Note_on_c, 4, 57, 1
1, 159122, Note_on_c, 1, 33, 119
1, 159128, Note_on_c, 15, 45, 98
1, 159128, Note_on_c, 15, 52, 99
1, 159130, Note_on_c, 13, 64, 60
1, 159130, Note_on_c, 13, 69, 61
1, 159131, Note_on_c, 13, 57, 61
1, 159139, Note_on_c, 9, 42, 0
1, 159210, Note_on_c, 14, 52, 0
1, 159212, Note_on_c, 14, 45, 0
1, 159220, Note_on_c, 3, 79, 0
1, 159220, Note_on_c, 4, 57, 0
1, 159222, Note_on_c, 1, 33, 0
1, 159228, Note_on_c, 15, 45, 0
1, 159228, Note_on_c, 15, 52, 0
1, 159228, Note_on_c, 14, 52, 99
1, 159229, Note_on_c, 14, 45, 98
1, 159239, Note_on_c, 1, 33, 110
1, 159240, Note_on_c, 3, 81, 105
1, 159240, Note_on_c, 4, 57, 1
1, 159248, Note_on_c, 15, 52, 99
1, 159252, Note_on_c, 15, 45, 98
1, 159328, Note_on_c, 14, 52, 0
1, 159329, Note_on_c, 11, 69, 0
1, 159329, Note_on_c, 14, 45, 0
1, 159332, Note_on_c, 11, 64, 0
1, 159339, Note_on_c, 1, 33, 0
1, 159343, Note_on_c, 7, 62, 0
1, 159348, Note_on_c, 15, 52, 0
1, 159348, Note_on_c, 11, 57, 60
1, 159350, Note_on_c, 13, 64, 0
1, 159350, Note_on_c, 13, 69, 0
1, 159350, Note_on_c, 11, 64, 61
1, 159350, Note_on_c, 14, 52, 98
1, 159351, Note_on_c, 14, 45, 99
1, 159352, Note_on_c, 15, 45, 0
1, 159353, Note_on_c, 11, 69, 61
1, 159359, Note_on_c, 1, 33, 113
1, 159359, Note_on_c, 9, 36, 127
1, 159360, Note_on_c, 9, 42, 127
1, 159361, Note_on_c, 7, 61, 60
1, 159369, Note_on_c, 13, 57, 60
1, 159369, Note_on_c, 13, 64, 60
1, 159372, Note_on_c, 13, 69, 61
1, 159372, Note_on_c, 15, 45, 98
1, 159373, Note_on_c, 15, 52, 99
1, 159379, Note_on_c, 9, 36, 0
1, 159380, Note_on_c, 9, 42, 0
1, 159499, Note_on_c, 1, 33, 0
1, 159568, Note_on_c, 11, 57, 0
1, 159568, Note_on_c, 11, 57, 0
1, 159570, Note_on_c, 14, 52, 0
1, 159571, Note_on_c, 14, 45, 0
1, 159573, Note_on_c, 11, 69, 0
1, 159589, Note_on_c, 13, 57, 0
1, 159589, Note_on_c, 13, 57, 0
1, 159590, Note_on_c, 11, 64, 60
1, 159590, Note_on_c, 14, 45, 98
1, 159591, Note_on_c, 11, 69, 60
1, 159592, Note_on_c, 13, 69, 0
1, 159592, Note_on_c, 15, 45, 0
1, 159592, Note_on_c, 11, 57, 61
1, 159592, Note_on_c, 14, 52, 99
1, 159593, Note_on_c, 15, 52, 0
1, 159601, Note_on_c, 1, 33, 118
1, 159601, Note_on_c, 9, 42, 90
1, 159608, Note_on_c, 13, 57, 61
1, 159610, Note_on_c, 13, 64, 60
1, 159610, Note_on_c, 13, 69, 60
1, 159610, Note_on_c, 15, 45, 98
1, 159610, Note_on_c, 15, 52, 99
1, 159621, Note_on_c, 9, 42, 0
1, 159701, Note_on_c, 1, 33, 0
1, 159720, Note_on_c, 1, 33, 114
1, 159810, Note_on_c, 11, 64, 0
1, 159810, Note_on_c, 11, 64, 0
1, 159812, Note_on_c, 11, 57, 0
1, 159820, Note_on_c, 1, 33, 0
1, 159828, Note_on_c, 13, 57, 0
1, 159828, Note_on_c, 11, 64, 60
1, 159829, Note_on_c, 13, 64, 0
1, 159829, Note_on_c, 13, 64, 0
1, 159829, Note_on_c, 11, 69, 61
1, 159831, Note_on_c, 11, 57, 61
1, 159841, Note_on_c, 9, 40, 127
1, 159842, Note_on_c, 9, 42, 127
1, 159843, Note_on_c, 1, 33, 115
1, 159849, Note_on_c, 13, 57, 61
1, 159849, Note_on_c, 13, 64, 60
1, 159849, Note_on_c, 13, 69, 61
1, 159861, Note_on_c, 9, 40, 0
1, 159862, Note_on_c, 9, 42, 0
1, 159943, Note_on_c, 1, 33, 0
1, 160048, Note_on_c, 11, 64, 0
1, 160050, Note_on_c, 14, 45, 0
1, 160051, Note_on_c, 11, 57, 0
1, 160052, Note_on_c, 14, 52, 0
1, 160060, Note_on_c, 3, 81, 0
1, 160060, Note_on_c, 4, 57, 0
1, 160068, Note_on_c, 11, 57, 60
1, 160068, Note_on_c, 11, 64, 61
1, 160069, Note_on_c, 13, 57, 0
1, 160069, Note_on_c, 13, 64, 0
1, 160069, Note_on_c, 14, 45, 99
1, 160070, Note_on_c, 15, 45, 0
1, 160070, Note_on_c, 15, 52, 0
1, 160070, Note_on_c, 14, 52, 98
1, 160078, Note_on_c, 9, 42, 94
1, 160081, Note_on_c, 1, 33, 117
1, 160090, Note_on_c, 15, 52, 99
1, 160091, Note_on_c, 13, 57, 61
1, 160092, Note_on_c, 13, 64, 60
1, 160092, Note_on_c, 15, 45, 98
1, 160098, Note_on_c, 9, 42, 0
1, 160168, Note_on_c, 11, 57, 0
1, 160168, Note_on_c, 11, 64, 0
1, 160169, Note_on_c, 11, 69, 0
1, 160169, Note_on_c, 11, 69, 0
1, 160169, Note_on_c, 14, 45, 0
1, 160170, Note_on_c, 14, 52, 0
1, 160181, Note_on_c, 1, 33, 0
1, 160189, Note_on_c, 13, 69, 0
1, 160189, Note_on_c, 13, 69, 0
1, 160189, Note_on_c, 11, 69, 60
1, 160190, Note_on_c, 15, 52, 0
1, 160191, Note_on_c, 13, 57, 0
1, 160191, Note_on_c, 11, 64, 60
1, 160191, Note_on_c, 14, 45, 99
1, 160192, Note_on_c, 13, 64, 0
1, 160192, Note_on_c, 15, 45, 0
1, 160192, Note_on_c, 11, 57, 61
1, 160192, Note_on_c, 14, 52, 98
1, 160202, Note_on_c, 1, 33, 114
1, 160208, Note_on_c, 13, 64, 61
1, 160209, Note_on_c, 13, 69, 60
1, 160209, Note_on_c, 15, 45, 99
1, 160210, Note_on_c, 15, 52, 98
1, 160212, Note_on_c, 13, 57, 60
1, 160289, Note_on_c, 11, 69, 0
1, 160291, Note_on_c, 11, 64, 0
1, 160291, Note_on_c, 14, 45, 0
1, 160292, Note_on_c, 11, 57, 0
1, 160292, Note_on_c, 14, 52, 0
1, 160302, Note_on_c, 1, 33, 0
1, 160308, Note_on_c, 13, 64, 0
1, 160309, Note_on_c, 13, 69, 0
1, 160309, Note_on_c, 15, 45, 0
1, 160309, Note_on_c, 14, 45, 98
1, 160310, Note_on_c, 15, 52, 0
1, 160310, Note_on_c, 14, 52, 99
1, 160312, Note_on_c, 13, 57, 0
1, 160312, Note_on_c, 11, 69, 61
1, 160313, Note_on_c, 11, 57, 60
1, 160313, Note_on_c, 11, 64, 60
1, 160319, Note_on_c, 9, 42, 126
1, 160320, Note_on_c, 9, 36, 126
1, 160323, Note_on_c, 1, 33, 114
1, 160328, Note_on_c, 13, 64, 61
1, 160329, Note_on_c, 13, 57, 61
1, 160330, Note_on_c, 15, 52, 98
1, 160332, Note_on_c, 15, 45, 99
1, 160333, Note_on_c, 13, 69, 60
1, 160339, Note_on_c, 9, 42, 0
1, 160340, Note_on_c, 9, 36, 0
1, 160386, System_exclusive, 36, 0, 32, 36, 0, 4, 65, 76, 76, 32, 77, 89, 32, 76, 73, 70, 69, 32, 73, 39, 86, 69, 32, 66, 69, 69, 78, 32, 87, 65, 73, 84, 73, 78, 71, 10, 247
1, 160391, System_exclusive, 42, 0, 32, 36, 0, 5, 70, 79, 82, 32, 89, 79, 85, 32, 84, 79, 32, 66, 82, 73, 78, 71, 32, 65, 32, 70, 65, 73, 82, 89, 84, 65, 76, 69, 32, 77, 89, 32, 87, 65, 89, 10, 247
1, 160396, System_exclusive, 23, 0, 32, 36, 0, 6, 66, 69, 69, 78, 32, 76, 73, 86, 73, 78, 71, 32, 73, 78, 32, 65, 10, 247
1, 160401, System_exclusive, 33, 0, 32, 36, 0, 7, 70, 65, 78, 84, 65, 83, 89, 32, 87, 73, 84, 72, 79, 85, 84, 32, 77, 69, 65, 78, 73, 78, 71, 32, 79, 72, 10, 247
1, 160411, System_exclusive, 6, 0, 32, 36, 0, 8, 247
1, 160463, Note_on_c, 1, 33, 0
1, 160529, Note_on_c, 14, 45, 0
1, 160530, Note_on_c, 14, 52, 0
1, 160532, Note_on_c, 11, 69, 0
1, 160533, Note_on_c, 11, 57, 0
1, 160533, Note_on_c, 11, 64, 0
1, 160548, Note_on_c, 13, 64, 0
1, 160549, Note_on_c, 13, 57, 0
1, 160549, Note_on_c, 11, 57, 61
1, 160549, Note_on_c, 14, 52, 99
1, 160550, Note_on_c, 15, 52, 0
1, 160552, Note_on_c, 15, 45, 0
1, 160552, Note_on_c, 11, 69, 61
1, 160552, Note_on_c, 14, 45, 98
1, 160553, Note_on_c, 13, 69, 0
1, 160553, Note_on_c, 11, 64, 60
1, 160559, Note_on_c, 1, 33, 111
1, 160560, Note_on_c, 9, 36, 127
1, 160562, Note_on_c, 9, 42, 97
1, 160569, Note_on_c, 13, 57, 60
1, 160569, Note_on_c, 15, 45, 99
1, 160570, Note_on_c, 13, 69, 61
1, 160570, Note_on_c, 15, 52, 98
1, 160572, Note_on_c, 13, 64, 61
1, 160580, Note_on_c, 9, 36, 0
1, 160582, Note_on_c, 9, 42, 0
1, 160699, Note_on_c, 1, 33, 0
1, 160769, Note_on_c, 11, 57, 0
1, 160772, Note_on_c, 11, 69, 0
1, 160773, Note_on_c, 11, 64, 0
1, 160789, Note_on_c, 13, 57, 0
1, 160789, Note_on_c, 11, 57, 60
1, 160790, Note_on_c, 13, 69, 0
1, 160791, Note_on_c, 11, 64, 61
1, 160792, Note_on_c, 13, 64, 0
1, 160793, Note_on_c, 11, 69, 60
1, 160799, Note_on_c, 9, 57, 85
1, 160800, Note_on_c, 9, 40, 127
1, 160802, Note_on_c, 1, 33, 113
1, 160810, Note_on_c, 13, 64, 60
1, 160810, Note_on_c, 13, 69, 60
1, 160812, Note_on_c, 13, 57, 61
1, 160819, Note_on_c, 9, 57, 0
1, 160820, Note_on_c, 9, 40, 0
1, 160918, Note_on_c, 9, 40, 50
1, 160938, Note_on_c, 9, 40, 0
1, 160942, Note_on_c, 1, 33, 0
1, 161009, Note_on_c, 11, 57, 0
1, 161009, Note_on_c, 14, 52, 0
1, 161011, Note_on_c, 11, 64, 0
1, 161012, Note_on_c, 14, 45, 0
1, 161013, Note_on_c, 11, 69, 0
1, 161029, Note_on_c, 15, 45, 0
1, 161029, Note_on_c, 11, 64, 61
1, 161030, Note_on_c, 13, 64, 0
1, 161030, Note_on_c, 13, 69, 0
1, 161030, Note_on_c, 15, 52, 0
1, 161030, Note_on_c, 11, 57, 61
1, 161031, Note_on_c, 11, 69, 60
1, 161031, Note_on_c, 14, 45, 98
1, 161031, Note_on_c, 14, 52, 99
1, 161032, Note_on_c, 13, 57, 0
1, 161040, Note_on_c, 9, 40, 114
1, 161042, Note_on_c, 1, 33, 116
1, 161049, Note_on_c, 13, 64, 60
1, 161051, Note_on_c, 15, 45, 98
1, 161052, Note_on_c, 13, 69, 61
1, 161053, Note_on_c, 13, 57, 61
1, 161053, Note_on_c, 15, 52, 99
1, 161060, Note_on_c, 9, 40, 0
1, 161142, Note_on_c, 1, 33, 0
1, 161160, Note_on_c, 1, 33, 118
1, 161161, Note_on_c, 9, 40, 51
1, 161181, Note_on_c, 9, 40, 0
1, 161249, Note_on_c, 11, 64, 0
1, 161250, Note_on_c, 11, 57, 0
1, 161251, Note_on_c, 11, 69, 0
1, 161251, Note_on_c, 14, 45, 0
1, 161251, Note_on_c, 14, 52, 0
1, 161258, Note_on_c, 8, 45, 0
1, 161259, Note_on_c, 7, 64, 0
1, 161259, Note_on_c, 8, 33, 0
1, 161260, Note_on_c, 1, 33, 0
1, 161260, Note_on_c, 6, 69, 0
1, 161261, Note_on_c, 7, 61, 0
1, 161261, Note_on_c, 8, 52, 0
1, 161269, Note_on_c, 13, 64, 0
1, 161270, Note_on_c, 11, 62, 61
1, 161270, Note_on_c, 14, 53, 99
1, 161271, Note_on_c, 15, 45, 0
1, 161271, Note_on_c, 14, 46, 98
1, 161272, Note_on_c, 13, 69, 0
1, 161272, Note_on_c, 11, 58, 60
1, 161272, Note_on_c, 11, 65, 60
1, 161273, Note_on_c, 13, 57, 0
1, 161273, Note_on_c, 15, 52, 0
1, 161278, Note_on_c, 6, 74, 66
1, 161279, Note_on_c, 6, 77, 66
1, 161279, Note_on_c, 7, 58, 61
1, 161280, Note_on_c, 1, 34, 117
1, 161281, Note_on_c, 7, 65, 60
1, 161281, Note_on_c, 8, 34, 61
1, 161281, Note_on_c, 8, 46, 61
1, 161282, Note_on_c, 8, 53, 60
1, 161282, Note_on_c, 9, 36, 127
1, 161283, Note_on_c, 7, 62, 61
1, 161283, Note_on_c, 9, 49, 70
1, 161289, Note_on_c, 13, 62, 60
1, 161291, Note_on_c, 13, 58, 61
1, 161291, Note_on_c, 13, 65, 60
1, 161291, Note_on_c, 15, 46, 99
1, 161291, Note_on_c, 15, 53, 98
1, 161302, Note_on_c, 9, 36, 0
1, 161303, Note_on_c, 9, 49, 0
1, 161420, Note_on_c, 1, 34, 0
1, 161490, Note_on_c, 11, 62, 0
1, 161490, Note_on_c, 14, 53, 0
1, 161491, Note_on_c, 14, 46, 0
1, 161492, Note_on_c, 11, 58, 0
1, 161492, Note_on_c, 11, 65, 0
1, 161509, Note_on_c, 13, 62, 0
1, 161509, Note_on_c, 11, 62, 61
1, 161510, Note_on_c, 14, 46, 98
1, 161510, Note_on_c, 14, 53, 99
1, 161511, Note_on_c, 13, 58, 0
1, 161511, Note_on_c, 13, 65, 0
1, 161511, Note_on_c, 15, 46, 0
1, 161511, Note_on_c, 15, 53, 0
1, 161512, Note_on_c, 11, 65, 61
1, 161513, Note_on_c, 11, 58, 60
1, 161518, Note_on_c, 1, 34, 116
1, 161520, Note_on_c, 3, 82, 104
1, 161521, Note_on_c, 9, 42, 91
1, 161529, Note_on_c, 15, 53, 98
1, 161530, Note_on_c, 13, 58, 60
1, 161530, Note_on_c, 13, 62, 61
1, 161530, Note_on_c, 13, 65, 61
1, 161530, Note_on_c, 15, 46, 99
1, 161541, Note_on_c, 9, 42, 0
1, 161618, Note_on_c, 1, 34, 0
1, 161643, Note_on_c, 1, 34, 111
1, 161729, Note_on_c, 11, 62, 0
1, 161732, Note_on_c, 11, 65, 0
1, 161733, Note_on_c, 11, 58, 0
1, 161743, Note_on_c, 1, 34, 0
1, 161749, Note_on_c, 11, 65, 60
1, 161750, Note_on_c, 13, 58, 0
1, 161750, Note_on_c, 13, 62, 0
1, 161750, Note_on_c, 13, 65, 0
1, 161750, Note_on_c, 11, 58, 61
1, 161750, Note_on_c, 11, 62, 61
1, 161760, Note_on_c, 1, 34, 115
1, 161760, Note_on_c, 9, 42, 126
1, 161761, Note_on_c, 9, 40, 127
1, 161771, Note_on_c, 13, 58, 60
1, 161771, Note_on_c, 13, 65, 60
1, 161773, Note_on_c, 13, 62, 61
1, 161780, Note_on_c, 9, 42, 0
1, 161781, Note_on_c, 9, 40, 0
1, 161860, Note_on_c, 1, 34, 0
1, 161969, Note_on_c, 11, 65, 0
1, 161970, Note_on_c, 11, 58, 0
1, 161970, Note_on_c, 11, 62, 0
1, 161970, Note_on_c, 14, 46, 0
1, 161970, Note_on_c, 14, 53, 0
1, 161980, Note_on_c, 3, 82, 0
1, 161989, Note_on_c, 15, 53, 0
1, 161989, Note_on_c, 11, 62, 60
1, 161989, Note_on_c, 11, 65, 60
1, 161989, Note_on_c, 14, 46, 98
1, 161990, Note_on_c, 15, 46, 0
1, 161991, Note_on_c, 13, 58, 0
1, 161991, Note_on_c, 13, 65, 0
1, 161991, Note_on_c, 14, 53, 99
1, 161992, Note_on_c, 11, 58, 61
1, 161993, Note_on_c, 13, 62, 0
1, 162000, Note_on_c, 3, 82, 104
1, 162002, Note_on_c, 1, 34, 118
1, 162002, Note_on_c, 9, 42, 94
1, 162009, Note_on_c, 15, 46, 98
1, 162009, Note_on_c, 15, 53, 99
1, 162010, Note_on_c, 13, 62, 61
1, 162010, Note_on_c, 13, 65, 60
1, 162012, Note_on_c, 13, 58, 60
1, 162022, Note_on_c, 9, 42, 0
1, 162089, Note_on_c, 14, 46, 0
1, 162091, Note_on_c, 14, 53, 0
1, 162102, Note_on_c, 1, 34, 0
1, 162108, Note_on_c, 14, 53, 99
1, 162109, Note_on_c, 15, 46, 0
1, 162109, Note_on_c, 15, 53, 0
1, 162110, Note_on_c, 14, 46, 98
1, 162121, Note_on_c, 1, 34, 115
1, 162131, Note_on_c, 15, 46, 99
1, 162133, Note_on_c, 15, 53, 98
1, 162208, Note_on_c, 14, 53, 0
1, 162209, Note_on_c, 11, 62, 0
1, 162209, Note_on_c, 11, 65, 0
1, 162210, Note_on_c, 14, 46, 0
1, 162212, Note_on_c, 11, 58, 0
1, 162220, Note_on_c, 3, 82, 0
1, 162221, Note_on_c, 1, 34, 0
1, 162229, Note_on_c, 11, 58, 60
1, 162230, Note_on_c, 13, 62, 0
1, 162230, Note_on_c, 13, 65, 0
1, 162230, Note_on_c, 14, 46, 99
1, 162231, Note_on_c, 15, 46, 0
1, 162232, Note_on_c, 13, 58, 0
1, 162232, Note_on_c, 11, 62, 61
1, 162232, Note_on_c, 11, 65, 61
1, 162232, Note_on_c, 14, 53, 98
1, 162233, Note_on_c, 15, 53, 0
1, 162240, Note_on_c, 3, 82, 105
1, 162241, Note_on_c, 1, 34, 112
1, 162242, Note_on_c, 9, 36, 126
1, 162242, Note_on_c, 9, 42, 127
1, 162251, Note_on_c, 15, 53, 99
1, 162252, Note_on_c, 13, 62, 61
1, 162252, Note_on_c, 13, 65, 60
1, 162252, Note_on_c, 15, 46, 98
1, 162253, Note_on_c, 13, 58, 61
1, 162262, Note_on_c, 9, 36, 0
1, 162262, Note_on_c, 9, 42, 0
1, 162381, Note_on_c, 1, 34, 0
1, 162449, Note_on_c, 11, 58, 0
1, 162450, Note_on_c, 14, 46, 0
1, 162452, Note_on_c, 11, 62, 0
1, 162452, Note_on_c, 11, 65, 0
1, 162452, Note_on_c, 14, 53, 0
1, 162460, Note_on_c, 3, 82, 0
1, 162469, Note_on_c, 14, 46, 98
1, 162470, Note_on_c, 11, 58, 60
1, 162471, Note_on_c, 15, 53, 0
1, 162471, Note_on_c, 14, 53, 99
1, 162472, Note_on_c, 13, 62, 0
1, 162472, Note_on_c, 13, 65, 0
1, 162472, Note_on_c, 15, 46, 0
1, 162472, Note_on_c, 11, 62, 61
1, 162473, Note_on_c, 13, 58, 0
1, 162473, Note_on_c, 11, 65, 60
1, 162480, Note_on_c, 3, 81, 104
1, 162482, Note_on_c, 1, 34, 114
1, 162483, Note_on_c, 9, 42, 97
1, 162489, Note_on_c, 13, 65, 61
1, 162489, Note_on_c, 15, 53, 98
1, 162490, Note_on_c, 13, 62, 60
1, 162490, Note_on_c, 15, 46, 99
1, 162493, Note_on_c, 13, 58, 61
1, 162503, Note_on_c, 9, 42, 0
1, 162622, Note_on_c, 1, 34, 0
1, 162689, Note_on_c, 14, 46, 0
1, 162690, Note_on_c, 11, 58, 0
1, 162691, Note_on_c, 14, 53, 0
1, 162692, Note_on_c, 11, 62, 0
1, 162693, Note_on_c, 11, 65, 0
1, 162700, Note_on_c, 3, 81, 0
1, 162709, Note_on_c, 13, 65, 0
1, 162709, Note_on_c, 15, 53, 0
1, 162709, Note_on_c, 11, 58, 60
1, 162709, Note_on_c, 11, 62, 61
1, 162710, Note_on_c, 13, 62, 0
1, 162710, Note_on_c, 15, 46, 0
1, 162710, Note_on_c, 14, 46, 99
1, 162711, Note_on_c, 11, 65, 61
1, 162711, Note_on_c, 14, 53, 98
1, 162713, Note_on_c, 13, 58, 0
1, 162719, Note_on_c, 9, 42, 126
1, 162720, Note_on_c, 3, 79, 105
1, 162720, Note_on_c, 9, 40, 126
1, 162722, Note_on_c, 1, 34, 113
1, 162728, Note_on_c, 13, 58, 60
1, 162729, Note_on_c, 13, 65, 60
1, 162730, Note_on_c, 15, 46, 99
1, 162731, Note_on_c, 15, 53, 98
1, 162732, Note_on_c, 13, 62, 61
1, 162739, Note_on_c, 9, 42, 0
1, 162740, Note_on_c, 9, 40, 0
1, 162862, Note_on_c, 1, 34, 0
1, 162929, Note_on_c, 11, 58, 0
1, 162929, Note_on_c, 11, 62, 0
1, 162930, Note_on_c, 14, 46, 0
1, 162931, Note_on_c, 11, 65, 0
1, 162931, Note_on_c, 14, 53, 0
1, 162940, Note_on_c, 3, 79, 0
1, 162948, Note_on_c, 13, 58, 0
1, 162948, Note_on_c, 14, 53, 98
1, 162949, Note_on_c, 13, 65, 0
1, 162949, Note_on_c, 14, 46, 99
1, 162950, Note_on_c, 15, 46, 0
1, 162950, Note_on_c, 11, 58, 60
1, 162951, Note_on_c, 15, 53, 0
1, 162951, Note_on_c, 11, 65, 60
1, 162952, Note_on_c, 13, 62, 0
1, 162953, Note_on_c, 11, 62, 61
1, 162959, Note_on_c, 1, 34, 113
1, 162960, Note_on_c, 3, 84, 105
1, 162960, Note_on_c, 9, 42, 94
1, 162968, Note_on_c, 15, 53, 98
1, 162969, Note_on_c, 13, 62, 61
1, 162969, Note_on_c, 13, 65, 60
1, 162973, Note_on_c, 13, 58, 60
1, 162973, Note_on_c, 15, 46, 99
1, 162980, Note_on_c, 9, 42, 0
1, 163059, Note_on_c, 1, 34, 0
1, 163079, Note_on_c, 1, 34, 118
1, 163168, Note_on_c, 14, 53, 0
1, 163169, Note_on_c, 14, 46, 0
1, 163170, Note_on_c, 11, 58, 0
1, 163171, Note_on_c, 11, 65, 0
1, 163173, Note_on_c, 11, 62, 0
1, 163178, Note_on_c, 6, 74, 0
1, 163179, Note_on_c, 1, 34, 0
1, 163179, Note_on_c, 6, 77, 0
1, 163179, Note_on_c, 7, 58, 0
1, 163181, Note_on_c, 7, 65, 0
1, 163181, Note_on_c, 8, 34, 0
1, 163181, Note_on_c, 8, 46, 0
1, 163182, Note_on_c, 8, 53, 0
1, 163188, Note_on_c, 15, 53, 0
1, 163188, Note_on_c, 11, 62, 61
1, 163189, Note_on_c, 13, 62, 0
1, 163189, Note_on_c, 13, 65, 0
1, 163191, Note_on_c, 11, 64, 60
1, 163191, Note_on_c, 11, 67, 60
1, 163192, Note_on_c, 14, 48, 99
1, 163193, Note_on_c, 13, 58, 0
1, 163193, Note_on_c, 15, 46, 0
1, 163193, Note_on_c, 14, 55, 98
1, 163198, Note_on_c, 9, 36, 127
1, 163199, Note_on_c, 1, 36, 114
1, 163199, Note_on_c, 8, 55, 60
1, 163199, Note_on_c, 9, 42, 127
1, 163200, Note_on_c, 7, 64, 61
1, 163200, Note_on_c, 8, 36, 61
1, 163201, Note_on_c, 6, 76, 67
1, 163201, Note_on_c, 8, 48, 60
1, 163202, Note_on_c, 6, 79, 66
1, 163209, Note_on_c, 13, 64, 61
1, 163209, Note_on_c, 13, 67, 61
1, 163209, Note_on_c, 15, 48, 99
1, 163209, Note_on_c, 15, 55, 98
1, 163211, Note_on_c, 13, 62, 60
1, 163218, Note_on_c, 9, 36, 0
1, 163219, Note_on_c, 9, 42, 0
1, 163339, Note_on_c, 1, 36, 0
1, 163398, System_exclusive, 6, 0, 32, 36, 0, 8, 247
1, 163408, Note_on_c, 11, 62, 0
1, 163411, Note_on_c, 11, 64, 0
1, 163411, Note_on_c, 11, 67, 0
1, 163412, Note_on_c, 14, 48, 0
1, 163413, Note_on_c, 14, 55, 0
1, 163420, Note_on_c, 3, 84, 0
1, 163429, Note_on_c, 13, 64, 0
1, 163429, Note_on_c, 13, 67, 0
1, 163429, Note_on_c, 15, 48, 0
1, 163429, Note_on_c, 15, 55, 0
1, 163429, Note_on_c, 11, 64, 61
1, 163429, Note_on_c, 11, 67, 60
1, 163430, Note_on_c, 11, 62, 61
1, 163430, Note_on_c, 14, 48, 98
1, 163430, Note_on_c, 14, 55, 99
1, 163431, Note_on_c, 13, 62, 0
1, 163440, Note_on_c, 3, 82, 104
1, 163441, Note_on_c, 9, 42, 90
1, 163442, Note_on_c, 1, 36, 115
1, 163448, Note_on_c, 13, 62, 60
1, 163448, Note_on_c, 13, 64, 61
1, 163448, Note_on_c, 15, 48, 98
1, 163449, Note_on_c, 13, 67, 60
1, 163451, Note_on_c, 15, 55, 99
1, 163461, Note_on_c, 9, 42, 0
1, 163542, Note_on_c, 1, 36, 0
1, 163560, Note_on_c, 1, 36, 113
1, 163649, Note_on_c, 11, 64, 0
1, 163649, Note_on_c, 11, 67, 0
1, 163650, Note_on_c, 11, 62, 0
1, 163660, Note_on_c, 1, 36, 0
1, 163663, Note_on_c, 7, 62, 0
1, 163668, Note_on_c, 13, 62, 0
1, 163668, Note_on_c, 13, 64, 0
1, 163669, Note_on_c, 13, 67, 0
1, 163669, Note_on_c, 11, 67, 61
1, 163670, Note_on_c, 11, 64, 60
1, 163671, Note_on_c, 11, 60, 61
1, 163679, Note_on_c, 9, 40, 126
1, 163680, Note_on_c, 1, 36, 112
1, 163680, Note_on_c, 7, 60, 60
1, 163682, Note_on_c, 9, 42, 127
1, 163688, Note_on_c, 13, 60, 61
1, 163692, Note_on_c, 13, 64, 61
1, 163693, Note_on_c, 13, 67, 60
1, 163699, Note_on_c, 9, 40, 0
1, 163702, Note_on_c, 9, 42, 0
1, 163780, Note_on_c, 1, 36, 0
1, 163889, Note_on_c, 11, 67, 0
1, 163890, Note_on_c, 11, 64, 0
1, 163890, Note_on_c, 14, 48, 0
1, 163890, Note_on_c, 14, 55, 0
1, 163891, Note_on_c, 11, 60, 0
1, 163900, Note_on_c, 3, 82, 0
1, 163902, Note_on_c, 6, 79, 0
1, 163908, Note_on_c, 13, 60, 0
1, 163908, Note_on_c, 15, 48, 0
1, 163909, Note_on_c, 11, 67, 60
1, 163909, Note_on_c, 14, 48, 98
1, 163910, Note_on_c, 11, 62, 60
1, 163910, Note_on_c, 11, 64, 61
1, 163911, Note_on_c, 15, 55, 0
1, 163911, Note_on_c, 14, 55, 99
1, 163912, Note_on_c, 13, 64, 0
1, 163913, Note_on_c, 13, 67, 0
1, 163919, Note_on_c, 1, 36, 118
1, 163920, Note_on_c, 3, 82, 105
1, 163920, Note_on_c, 6, 77, 67
1, 163923, Note_on_c, 9, 42, 95
1, 163928, Note_on_c, 13, 64, 61
1, 163930, Note_on_c, 13, 62, 60
1, 163931, Note_on_c, 13, 67, 60
1, 163932, Note_on_c, 15, 55, 98
1, 163933, Note_on_c, 15, 48, 99
1, 163943, Note_on_c, 9, 42, 0
1, 164009, Note_on_c, 11, 67, 0
1, 164009, Note_on_c, 14, 48, 0
1, 164010, Note_on_c, 11, 62, 0
1, 164010, Note_on_c, 11, 64, 0
1, 164011, Note_on_c, 14, 55, 0
1, 164019, Note_on_c, 1, 36, 0
1, 164028, Note_on_c, 13, 64, 0
1, 164028, Note_on_c, 14, 55, 99
1, 164030, Note_on_c, 13, 62, 0
1, 164031, Note_on_c, 13, 67, 0
1, 164031, Note_on_c, 11, 67, 61
1, 164031, Note_on_c, 14, 48, 98
1, 164032, Note_on_c, 15, 55, 0
1, 164032, Note_on_c, 11, 62, 60
1, 164033, Note_on_c, 15, 48, 0
1, 164033, Note_on_c, 11, 64, 60
1, 164040, Note_on_c, 1, 36, 113
1, 164048, Note_on_c, 15, 55, 99
1, 164049, Note_on_c, 13, 62, 61
1, 164051, Note_on_c, 13, 67, 61
1, 164051, Note_on_c, 15, 48, 98
1, 164053, Note_on_c, 13, 64, 60
1, 164128, Note_on_c, 14, 55, 0
1, 164131, Note_on_c, 11, 67, 0
1, 164131, Note_on_c, 14, 48, 0
1, 164132, Note_on_c, 11, 62, 0
1, 164133, Note_on_c, 11, 64, 0
1, 164140, Note_on_c, 1, 36, 0
1, 164140, Note_on_c, 3, 82, 0
1, 164140, Note_on_c, 7, 60, 0
1, 164148, Note_on_c, 15, 55, 0
1, 164148, Note_on_c, 11, 67, 61
1, 164148, Note_on_c, 14, 48, 99
1, 164149, Note_on_c, 13, 62, 0
1, 164151, Note_on_c, 13, 67, 0
1, 164151, Note_on_c, 15, 48, 0
1, 164151, Note_on_c, 11, 64, 61
1, 164151, Note_on_c, 14, 55, 98
1, 164152, Note_on_c, 11, 62, 60
1, 164153, Note_on_c, 13, 64, 0
1, 164159, Note_on_c, 9, 36, 126
1, 164160, Note_on_c, 3, 82, 104
1, 164160, Note_on_c, 7, 62, 61
1, 164161, Note_on_c, 9, 42, 126
1, 164162, Note_on_c, 1, 36, 114
1, 164170, Note_on_c, 13, 62, 60
1, 164170, Note_on_c, 13, 64, 61
1, 164170, Note_on_c, 13, 67, 61
1, 164170, Note_on_c, 15, 48, 99
1, 164171, Note_on_c, 15, 55, 98
1, 164179, Note_on_c, 9, 36, 0
1, 164181, Note_on_c, 9, 42, 0
1, 164302, Note_on_c, 1, 36, 0
1, 164368, Note_on_c, 11, 67, 0
1, 164368, Note_on_c, 14, 48, 0
1, 164371, Note_on_c, 11, 64, 0
1, 164371, Note_on_c, 14, 55, 0
1, 164372, Note_on_c, 11, 62, 0
1, 164380, Note_on_c, 3, 82, 0
1, 164380, Note_on_c, 7, 62, 0
1, 164389, Note_on_c, 14, 55, 98
1, 164390, Note_on_c, 13, 62, 0
1, 164390, Note_on_c, 13, 64, 0
1, 164390, Note_on_c, 13, 67, 0
1, 164390, Note_on_c, 15, 48, 0
1, 164390, Note_on_c, 11, 60, 60
1, 164391, Note_on_c, 15, 55, 0
1, 164391, Note_on_c, 14, 48, 99
1, 164392, Note_on_c, 11, 64, 61
1, 164392, Note_on_c, 11, 67, 60
1, 164399, Note_on_c, 1, 36, 119
1, 164400, Note_on_c, 3, 81, 104
1, 164402, Note_on_c, 9, 36, 126
1, 164402, Note_on_c, 9, 42, 97
1, 164403, Note_on_c, 7, 60, 60
1, 164409, Note_on_c, 13, 60, 60
1, 164410, Note_on_c, 15, 48, 98
1, 164411, Note_on_c, 13, 64, 60
1, 164411, Note_on_c, 13, 67, 61
1, 164411, Note_on_c, 15, 55, 99
1, 164422, Note_on_c, 9, 36, 0
1, 164422, Note_on_c, 9, 42, 0
1, 164539, Note_on_c, 1, 36, 0
1, 164610, Note_on_c, 11, 60, 0
1, 164612, Note_on_c, 11, 64, 0
1, 164612, Note_on_c, 11, 67, 0
1, 164620, Note_on_c, 3, 81, 0
1, 164629, Note_on_c, 13, 60, 0
1, 164629, Note_on_c, 11, 60, 61
1, 164631, Note_on_c, 13, 64, 0
1, 164631, Note_on_c, 13, 67, 0
1, 164631, Note_on_c, 11, 64, 61
1, 164631, Note_on_c, 11, 67, 60
1, 164639, Note_on_c, 1, 36, 115
1, 164639, Note_on_c, 9, 40, 127
1, 164640, Note_on_c, 3, 81, 105
1, 164642, Note_on_c, 9, 42, 126
1, 164650, Note_on_c, 13, 60, 60
1, 164650, Note_on_c, 13, 67, 61
1, 164652, Note_on_c, 13, 64, 61
1, 164659, Note_on_c, 9, 40, 0
1, 164662, Note_on_c, 9, 42, 0
1, 164779, Note_on_c, 1, 36, 0
1, 164849, Note_on_c, 11, 60, 0
1, 164849, Note_on_c, 14, 55, 0
1, 164851, Note_on_c, 11, 64, 0
1, 164851, Note_on_c, 11, 67, 0
1, 164851, Note_on_c, 14, 48, 0
1, 164860, Note_on_c, 3, 81, 0
1, 164868, Note_on_c, 11, 60, 61
1, 164869, Note_on_c, 11, 67, 60
1, 164870, Note_on_c, 13, 60, 0
1, 164870, Note_on_c, 13, 67, 0
1, 164870, Note_on_c, 15, 48, 0
1, 164870, Note_on_c, 14, 48, 99
1, 164871, Note_on_c, 15, 55, 0
1, 164871, Note_on_c, 14, 55, 98
1, 164872, Note_on_c, 13, 64, 0
1, 164873, Note_on_c, 11, 64, 60
1, 164879, Note_on_c, 1, 36, 110
1, 164880, Note_on_c, 3, 79, 105
1, 164880, Note_on_c, 9, 42, 94
1, 164889, Note_on_c, 13, 60, 60
1, 164890, Note_on_c, 13, 64, 61
1, 164891, Note_on_c, 13, 67, 60
1, 164892, Note_on_c, 15, 48, 99
1, 164893, Note_on_c, 15, 55, 98
1, 164900, Note_on_c, 9, 42, 0
1, 164970, Note_on_c, 14, 48, 0
1, 164971, Note_on_c, 14, 55, 0
1, 164979, Note_on_c, 1, 36, 0
1, 164989, Note_on_c, 14, 55, 98
1, 164991, Note_on_c, 14, 48, 99
1, 164992, Note_on_c, 15, 48, 0
1, 164993, Note_on_c, 15, 55, 0
1, 164999, Note_on_c, 1, 36, 117
1, 165009, Note_on_c, 15, 48, 98
1, 165012, Note_on_c, 15, 55, 99
1, 165088, Note_on_c, 11, 60, 0
1, 165089, Note_on_c, 11, 67, 0
1, 165089, Note_on_c, 14, 55, 0
1, 165091, Note_on_c, 14, 48, 0
1, 165093, Note_on_c, 11, 64, 0
1, 165099, Note_on_c, 1, 36, 0
1, 165099, Note_on_c, 8, 55, 0
1, 165100, Note_on_c, 3, 79, 0
1, 165100, Note_on_c, 7, 64, 0
1, 165100, Note_on_c, 8, 36, 0
1, 165101, Note_on_c, 8, 48, 0
1, 165103, Note_on_c, 7, 60, 0
1, 165108, Note_on_c, 14, 57, 99
1, 165109, Note_on_c, 13, 60, 0
1, 165109, Note_on_c, 15, 48, 0
1, 165109, Note_on_c, 11, 57, 61
1, 165109, Note_on_c, 11, 69, 61
1, 165110, Note_on_c, 13, 64, 0
1, 165111, Note_on_c, 13, 67, 0
1, 165112, Note_on_c, 15, 55, 0
1, 165112, Note_on_c, 11, 62, 60
1, 165112, Note_on_c, 14, 50, 98
1, 165118, Note_on_c, 8, 57, 61
1, 165119, Note_on_c, 7, 65, 60
1, 165119, Note_on_c, 9, 36, 127
1, 165121, Note_on_c, 1, 26, 118
1, 165121, Note_on_c, 9, 42, 127
1, 165122, Note_on_c, 7, 62, 61
1, 165122, Note_on_c, 8, 38, 61
1, 165122, Note_on_c, 8, 50, 60
1, 165129, Note_on_c, 13, 57, 60
1, 165129, Note_on_c, 13, 69, 61
1, 165129, Note_on_c, 15, 50, 99
1, 165131, Note_on_c, 15, 57, 98
1, 165132, Note_on_c, 13, 62, 61
1, 165139, Note_on_c, 9, 36, 0
1, 165141, Note_on_c, 9, 42, 0
1, 165261, Note_on_c, 1, 26, 0
1, 165328, Note_on_c, 14, 57, 0
1, 165329, Note_on_c, 11, 57, 0
1, 165329, Note_on_c, 11, 69, 0
1, 165332, Note_on_c, 11, 62, 0
1, 165332, Note_on_c, 14, 50, 0
1, 165348, Note_on_c, 14, 57, 98
1, 165349, Note_on_c, 13, 57, 0
1, 165349, Note_on_c, 13, 69, 0
1, 165349, Note_on_c, 15, 50, 0
1, 165351, Note_on_c, 15, 57, 0
1, 165352, Note_on_c, 13, 62, 0
1, 165352, Note_on_c, 11, 57, 60
1, 165352, Note_on_c, 11, 62, 61
1, 165352, Note_on_c, 14, 50, 99
1, 165353, Note_on_c, 11, 69, 61
1, 165360, Note_on_c, 3, 81, 104
1, 165362, Note_on_c, 1, 26, 112
1, 165362, Note_on_c, 9, 42, 91
1, 165368, Note_on_c, 15, 50, 98
1, 165369, Note_on_c, 15, 57, 99
1, 165370, Note_on_c, 13, 69, 60
1, 165371, Note_on_c, 13, 57, 60
1, 165373, Note_on_c, 13, 62, 61
1, 165382, Note_on_c, 9, 42, 0
1, 165462, Note_on_c, 1, 26, 0
1, 165481, Note_on_c, 1, 26, 115
1, 165572, Note_on_c, 11, 57, 0
1, 165572, Note_on_c, 11, 62, 0
1, 165573, Note_on_c, 11, 69, 0
1, 165581, Note_on_c, 1, 26, 0
1, 165590, Note_on_c, 13, 69, 0
1, 165590, Note_on_c, 11, 62, 60
1, 165590, Note_on_c, 11, 69, 60
1, 165591, Note_on_c, 13, 57, 0
1, 165593, Note_on_c, 13, 62, 0
1, 165593, Note_on_c, 11, 57, 61
1, 165599, Note_on_c, 1, 26, 115
1, 165600, Note_on_c, 9, 42, 126
1, 165602, Note_on_c, 9, 40, 126
1, 165610, Note_on_c, 13, 62, 61
1, 165610, Note_on_c, 13, 69, 60
1, 165612, Note_on_c, 13, 57, 60
1, 165620, Note_on_c, 9, 42, 0
1, 165622, Note_on_c, 9, 40, 0
1, 165699, Note_on_c, 1, 26, 0
1, 165808, Note_on_c, 14, 57, 0
1, 165810, Note_on_c, 11, 62, 0
1, 165810, Note_on_c, 11, 69, 0
1, 165812, Note_on_c, 14, 50, 0
1, 165813, Note_on_c, 11, 57, 0
1, 165820, Note_on_c, 3, 81, 0
1, 165828, Note_on_c, 15, 50, 0
1, 165829, Note_on_c, 15, 57, 0
1, 165829, Note_on_c, 11, 69, 60
1, 165830, Note_on_c, 13, 62, 0
1, 165830, Note_on_c, 13, 69, 0
1, 165831, Note_on_c, 11, 57, 61
1, 165832, Note_on_c, 13, 57, 0
1, 165832, Note_on_c, 11, 62, 61
1, 165833, Note_on_c, 14, 50, 98
1, 165833, Note_on_c, 14, 57, 99
1, 165838, Note_on_c, 9, 42, 94
1, 165840, Note_on_c, 3, 79, 104
1, 165842, Note_on_c, 1, 26, 110
1, 165848, Note_on_c, 13, 69, 61
1, 165849, Note_on_c, 13, 62, 60
1, 165849, Note_on_c, 15, 57, 98
1, 165851, Note_on_c, 13, 57, 61
1, 165852, Note_on_c, 15, 50, 99
1, 165858, Note_on_c, 9, 42, 0
1, 165929, Note_on_c, 11, 69, 0
1, 165931, Note_on_c, 11, 57, 0
1, 165932, Note_on_c, 11, 62, 0
1, 165933, Note_on_c, 14, 50, 0
1, 165933, Note_on_c, 14, 57, 0
1, 165942, Note_on_c, 1, 26, 0
1, 165948, Note_on_c, 13, 69, 0
1, 165949, Note_on_c, 13, 62, 0
1, 165949, Note_on_c, 15, 57, 0
1, 165949, Note_on_c, 11, 57, 60
1, 165949, Note_on_c, 14, 57, 99
1, 165951, Note_on_c, 13, 57, 0
1, 165951, Note_on_c, 11, 62, 61
1, 165951, Note_on_c, 14, 50, 98
1, 165952, Note_on_c, 15, 50, 0
1, 165952, Note_on_c, 11, 69, 60
1, 165959, Note_on_c, 1, 26, 116
1, 165968, Note_on_c, 13, 62, 61
1, 165969, Note_on_c, 13, 57, 60
1, 165969, Note_on_c, 15, 57, 99
1, 165971, Note_on_c, 13, 69, 61
1, 165971, Note_on_c, 15, 50, 98
1, 166049, Note_on_c, 11, 57, 0
1, 166049, Note_on_c, 14, 57, 0
1, 166051, Note_on_c, 11, 62, 0
1, 166051, Note_on_c, 14, 50, 0
1, 166052, Note_on_c, 11, 69, 0
1, 166059, Note_on_c, 1, 26, 0
1, 166061, Note_on_c, 6, 76, 0
1, 166068, Note_on_c, 13, 62, 0
1, 166068, Note_on_c, 14, 50, 99
1, 166069, Note_on_c, 13, 57, 0
1, 166069, Note_on_c, 15, 57, 0
1, 166071, Note_on_c, 13, 69, 0
1, 166071, Note_on_c, 15, 50, 0
1, 166071, Note_on_c, 11, 62, 60
1, 166072, Note_on_c, 11, 69, 61
1, 166072, Note_on_c, 14, 57, 98
1, 166073, Note_on_c, 11, 57, 61
1, 166079, Note_on_c, 9, 36, 127
1, 166081, Note_on_c, 6, 74, 67
1, 166082, Note_on_c, 1, 26, 113
1, 166083, Note_on_c, 9, 42, 127
1, 166088, Note_on_c, 15, 50, 99
1, 166090, Note_on_c, 13, 57, 60
1, 166090, Note_on_c, 13, 69, 60
1, 166091, Note_on_c, 13, 62, 61
1, 166092, Note_on_c, 15, 57, 98
1, 166099, Note_on_c, 9, 36, 0
1, 166103, Note_on_c, 9, 42, 0
1, 166180, Note_on_c, 3, 79, 0
1, 166200, Note_on_c, 3, 81, 105
1, 166222, Note_on_c, 1, 26, 0
1, 166288, Note_on_c, 14, 50, 0
1, 166291, Note_on_c, 11, 62, 0
1, 166292, Note_on_c, 11, 69, 0
1, 166292, Note_on_c, 14, 57, 0
1, 166293, Note_on_c, 11, 57, 0
1, 166308, Note_on_c, 15, 50, 0
1, 166309, Note_on_c, 11, 69, 60
1, 166309, Note_on_c, 14, 50, 98
1, 166310, Note_on_c, 13, 57, 0
1, 166310, Note_on_c, 13, 69, 0
1, 166311, Note_on_c, 13, 62, 0
1, 166311, Note_on_c, 11, 57, 60
1, 166312, Note_on_c, 15, 57, 0
1, 166312, Note_on_c, 14, 57, 99
1, 166313, Note_on_c, 11, 62, 61
1, 166319, Note_on_c, 9, 42, 97
1, 166322, Note_on_c, 1, 26, 115
1, 166329, Note_on_c, 13, 62, 61
1, 166329, Note_on_c, 13, 69, 60
1, 166330, Note_on_c, 15, 50, 98
1, 166331, Note_on_c, 15, 57, 99
1, 166333, Note_on_c, 13, 57, 60
1, 166339, Note_on_c, 9, 42, 0
1, 166462, Note_on_c, 1, 26, 0
1, 166529, Note_on_c, 11, 69, 0
1, 166531, Note_on_c, 11, 57, 0
1, 166533, Note_on_c, 11, 62, 0
1, 166540, Note_on_c, 3, 81, 0
1, 166549, Note_on_c, 13, 62, 0
1, 166549, Note_on_c, 13, 69, 0
1, 166549, Note_on_c, 11, 57, 61
1, 166551, Note_on_c, 11, 62, 60
1, 166552, Note_on_c, 11, 69, 60
1, 166553, Note_on_c, 13, 57, 0
1, 166558, Note_on_c, 9, 42, 126
1, 166560, Note_on_c, 1, 26, 118
1, 166560, Note_on_c, 3, 79, 105
1, 166562, Note_on_c, 9, 40, 127
1, 166568, Note_on_c, 13, 57, 61
1, 166570, Note_on_c, 13, 69, 61
1, 166572, Note_on_c, 13, 62, 60
1, 166578, Note_on_c, 9, 42, 0
1, 166582, Note_on_c, 9, 40, 0
1, 166700, Note_on_c, 1, 26, 0
1, 166769, Note_on_c, 11, 57, 0
1, 166769, Note_on_c, 14, 50, 0
1, 166771, Note_on_c, 11, 62, 0
1, 166772, Note_on_c, 11, 69, 0
1, 166772, Note_on_c, 14, 57, 0
1, 166780, Note_on_c, 3, 79, 0
1, 166788, Note_on_c, 13, 57, 0
1, 166789, Note_on_c, 11, 62, 61
1, 166790, Note_on_c, 13, 69, 0
1, 166790, Note_on_c, 15, 50, 0
1, 166790, Note_on_c, 11, 57, 60
1, 166791, Note_on_c, 15, 57, 0
1, 166791, Note_on_c, 11, 69, 61
1, 166792, Note_on_c, 13, 62, 0
1, 166792, Note_on_c, 14, 50, 99
1, 166792, Note_on_c, 14, 57, 98
1, 166800, Note_on_c, 3, 79, 104
1, 166801, Note_on_c, 9, 42, 94
1, 166802, Note_on_c, 1, 26, 116
1, 166809, Note_on_c, 13, 62, 60
1, 166809, Note_on_c, 15, 50, 99
1, 166810, Note_on_c, 13, 69, 61
1, 166811, Note_on_c, 15, 57, 98
1, 166813, Note_on_c, 13, 57, 60
1, 166821, Note_on_c, 9, 42, 0
1, 166889, Note_on_c, 11, 62, 0
1, 166890, Note_on_c, 11, 57, 0
1, 166891, Note_on_c, 11, 69, 0
1, 166892, Note_on_c, 14, 50, 0
1, 166892, Note_on_c, 14, 57, 0
1, 166902, Note_on_c, 1, 26, 0
1, 166909, Note_on_c, 13, 62, 0
1, 166909, Note_on_c, 15, 50, 0
1, 166910, Note_on_c, 13, 69, 0
1, 166910, Note_on_c, 14, 50, 98
1, 166911, Note_on_c, 15, 57, 0
1, 166911, Note_on_c, 11, 57, 61
1, 166911, Note_on_c, 14, 57, 99
1, 166912, Note_on_c, 11, 62, 60
1, 166912, Note_on_c, 11, 69, 61
1, 166913, Note_on_c, 13, 57, 0
1, 166918, Note_on_c, 1, 26, 115
1, 166928, Note_on_c, 13, 57, 61
1, 166929, Note_on_c, 13, 69, 61
1, 166930, Note_on_c, 15, 50, 98
1, 166931, Note_on_c, 15, 57, 99
1, 166932, Note_on_c, 13, 62, 60
1, 167010, Note_on_c, 14, 50, 0
1, 167011, Note_on_c, 11, 57, 0
1, 167011, Note_on_c, 14, 57, 0
1, 167012, Note_on_c, 11, 62, 0
1, 167012, Note_on_c, 11, 69, 0
1, 167018, Note_on_c, 1, 26, 0
1, 167028, Note_on_c, 13, 57, 0
1, 167028, Note_on_c, 11, 57, 60
1, 167028, Note_on_c, 11, 62, 60
1, 167029, Note_on_c, 13, 69, 0
1, 167029, Note_on_c, 14, 50, 99
1, 167029, Note_on_c, 14, 57, 98
1, 167030, Note_on_c, 15, 50, 0
1, 167031, Note_on_c, 15, 57, 0
1, 167032, Note_on_c, 13, 62, 0
1, 167032, Note_on_c, 11, 69, 61
1, 167039, Note_on_c, 1, 26, 116
1, 167039, Note_on_c, 9, 42, 127
1, 167040, Note_on_c, 9, 36, 126
1, 167050, System_exclusive, 6, 0, 32, 36, 0, 8, 247
1, 167051, Note_on_c, 13, 57, 61
1, 167051, Note_on_c, 13, 62, 60
1, 167051, Note_on_c, 13, 69, 60
1, 167051, Note_on_c, 15, 50, 99
1, 167051, Note_on_c, 15, 57, 98
1, 167059, Note_on_c, 9, 42, 0
1, 167060, Note_on_c, 9, 36, 0
1, 167179, Note_on_c, 1, 26, 0
1, 167248, Note_on_c, 11, 57, 0
1, 167248, Note_on_c, 11, 62, 0
1, 167249, Note_on_c, 14, 50, 0
1, 167249, Note_on_c, 14, 57, 0
1, 167252, Note_on_c, 11, 69, 0
1, 167260, Note_on_c, 3, 79, 0
1, 167269, Note_on_c, 14, 57, 98
1, 167270, Note_on_c, 11, 57, 61
1, 167271, Note_on_c, 13, 57, 0
1, 167271, Note_on_c, 13, 62, 0
1, 167271, Note_on_c, 13, 69, 0
1, 167271, Note_on_c, 15, 50, 0
1, 167271, Note_on_c, 15, 57, 0
1, 167271, Note_on_c, 11, 62, 60
1, 167272, Note_on_c, 11, 69, 60
1, 167273, Note_on_c, 14, 50, 99
1, 167280, Note_on_c, 3, 77, 104
1, 167281, Note_on_c, 1, 26, 119
1, 167281, Note_on_c, 9, 42, 90
1, 167289, Note_on_c, 15, 57, 98
1, 167290, Note_on_c, 13, 57, 61
1, 167290, Note_on_c, 13, 69, 61
1, 167290, Note_on_c, 15, 50, 99
1, 167291, Note_on_c, 13, 62, 60
1, 167301, Note_on_c, 9, 42, 0
1, 167381, Note_on_c, 1, 26, 0
1, 167400, Note_on_c, 1, 26, 117
1, 167490, Note_on_c, 11, 57, 0
1, 167491, Note_on_c, 11, 62, 0
1, 167492, Note_on_c, 11, 69, 0
1, 167500, Note_on_c, 1, 26, 0
1, 167509, Note_on_c, 11, 69, 61
1, 167510, Note_on_c, 13, 57, 0
1, 167510, Note_on_c, 13, 69, 0
1, 167510, Note_on_c, 11, 57, 61
1, 167511, Note_on_c, 13, 62, 0
1, 167512, Note_on_c, 11, 62, 60
1, 167519, Note_on_c, 9, 40, 127
1, 167520, Note_on_c, 1, 26, 118
1, 167522, Note_on_c, 9, 42, 127
1, 167531, Note_on_c, 13, 62, 60
1, 167531, Note_on_c, 13, 69, 61
1, 167532, Note_on_c, 13, 57, 61
1, 167539, Note_on_c, 9, 40, 0
1, 167542, Note_on_c, 9, 42, 0
1, 167620, Note_on_c, 1, 26, 0
1, 167729, Note_on_c, 11, 69, 0
1, 167729, Note_on_c, 14, 57, 0
1, 167730, Note_on_c, 11, 57, 0
1, 167732, Note_on_c, 11, 62, 0
1, 167733, Note_on_c, 14, 50, 0
1, 167740, Note_on_c, 3, 77, 0
1, 167748, Note_on_c, 14, 50, 98
1, 167749, Note_on_c, 15, 57, 0
1, 167749, Note_on_c, 11, 62, 60
1, 167750, Note_on_c, 15, 50, 0
1, 167750, Note_on_c, 11, 69, 61
1, 167751, Note_on_c, 13, 62, 0
1, 167751, Note_on_c, 13, 69, 0
1, 167752, Note_on_c, 13, 57, 0
1, 167752, Note_on_c, 11, 57, 60
1, 167752, Note_on_c, 14, 57, 99
1, 167760, Note_on_c, 3, 74, 105
1, 167760, Note_on_c, 9, 42, 95
1, 167761, Note_on_c, 1, 26, 117
1, 167768, Note_on_c, 13, 57, 60
1, 167769, Note_on_c, 13, 62, 60
1, 167769, Note_on_c, 15, 50, 98
1, 167770, Note_on_c, 13, 69, 61
1, 167772, Note_on_c, 15, 57, 99
1, 167780, Note_on_c, 9, 42, 0
1, 167848, Note_on_c, 14, 50, 0
1, 167852, Note_on_c, 14, 57, 0
1, 167861, Note_on_c, 1, 26, 0
1, 167869, Note_on_c, 15, 50, 0
1, 167870, Note_on_c, 14, 50, 99
1, 167871, Note_on_c, 14, 57, 98
1, 167872, Note_on_c, 15, 57, 0
1, 167879, Note_on_c, 1, 26, 116
1, 167888, Note_on_c, 15, 50, 99
1, 167888, Note_on_c, 15, 57, 98
1, 167969, Note_on_c, 11, 62, 0
1, 167970, Note_on_c, 11, 69, 0
1, 167970, Note_on_c, 14, 50, 0
1, 167971, Note_on_c, 14, 57, 0
1, 167972, Note_on_c, 11, 57, 0
1, 167979, Note_on_c, 1, 26, 0
1, 167980, Note_on_c, 3, 74, 0
1, 167988, Note_on_c, 13, 57, 0
1, 167988, Note_on_c, 15, 50, 0
1, 167988, Note_on_c, 15, 57, 0
1, 167988, Note_on_c, 14, 57, 99
1, 167989, Note_on_c, 13, 62, 0
1, 167989, Note_on_c, 14, 50, 98
1, 167990, Note_on_c, 13, 69, 0
1, 167991, Note_on_c, 11, 62, 61
1, 167992, Note_on_c, 11, 57, 61
1, 167993, Note_on_c, 11, 69, 60
1, 167998, Note_on_c, 9, 36, 126
1, 167999, Note_on_c, 9, 42, 126
1, 168000, Note_on_c, 3, 74, 104
1, 168001, Note_on_c, 1, 26, 112
1, 168009, Note_on_c, 13, 69, 60
1, 168009, Note_on_c, 15, 50, 99
1, 168010, Note_on_c, 15, 57, 98
1, 168012, Note_on_c, 13, 62, 61
1, 168013, Note_on_c, 13, 57, 61
1, 168018, Note_on_c, 9, 36, 0
1, 168019, Note_on_c, 9, 42, 0
1, 168141, Note_on_c, 1, 26, 0
1, 168208, Note_on_c, 14, 57, 0
1, 168209, Note_on_c, 14, 50, 0
1, 168211, Note_on_c, 11, 62, 0
1, 168212, Note_on_c, 11, 57, 0
1, 168213, Note_on_c, 11, 69, 0
1, 168220, Note_on_c, 3, 74, 0
1, 168229, Note_on_c, 13, 69, 0
1, 168229, Note_on_c, 15, 50, 0
1, 168229, Note_on_c, 11, 69, 61
1, 168230, Note_on_c, 15, 57, 0
1, 168230, Note_on_c, 11, 57, 60
1, 168230, Note_on_c, 14, 57, 98
1, 168231, Note_on_c, 11, 62, 60
1, 168231, Note_on_c, 14, 50, 99
1, 168232, Note_on_c, 13, 62, 0
1, 168233, Note_on_c, 13, 57, 0
1, 168239, Note_on_c, 1, 26, 115
1, 168239, Note_on_c, 9, 42, 97
1, 168240, Note_on_c, 3, 76, 105
1, 168241, Note_on_c, 9, 36, 127
1, 168249, Note_on_c, 15, 57, 98
1, 168250, Note_on_c, 13, 69, 60
1, 168251, Note_on_c, 13, 62, 61
1, 168251, Note_on_c, 15, 50, 99
1, 168252, Note_on_c, 13, 57, 60
1, 168259, Note_on_c, 9, 42, 0
1, 168261, Note_on_c, 9, 36, 0
1, 168329, Note_on_c, 11, 69, 0
1, 168330, Note_on_c, 11, 57, 0
1, 168331, Note_on_c, 11, 62, 0
1, 168348, Note_on_c, 11, 57, 61
1, 168349, Note_on_c, 11, 62, 61
1, 168350, Note_on_c, 13, 69, 0
1, 168351, Note_on_c, 13, 62, 0
1, 168351, Note_on_c, 11, 69, 60
1, 168352, Note_on_c, 13, 57, 0
1, 168370, Note_on_c, 13, 62, 60
1, 168372, Note_on_c, 13, 57, 61
1, 168373, Note_on_c, 13, 69, 61
1, 168379, Note_on_c, 1, 26, 0
1, 168448, Note_on_c, 11, 57, 0
1, 168449, Note_on_c, 11, 62, 0
1, 168451, Note_on_c, 11, 69, 0
1, 168460, Note_on_c, 3, 76, 0
1, 168468, Note_on_c, 11, 69, 60
1, 168470, Note_on_c, 13, 62, 0
1, 168471, Note_on_c, 11, 57, 61
1, 168471, Note_on_c, 11, 62, 61
1, 168472, Note_on_c, 13, 57, 0
1, 168473, Note_on_c, 13, 69, 0
1, 168479, Note_on_c, 9, 42, 126
1, 168480, Note_on_c, 1, 26, 115
1, 168480, Note_on_c, 3, 77, 105
1, 168481, Note_on_c, 9, 40, 126
1, 168488, Note_on_c, 13, 69, 60
1, 168489, Note_on_c, 13, 57, 60
1, 168489, Note_on_c, 13, 62, 61
1, 168499, Note_on_c, 9, 42, 0
1, 168501, Note_on_c, 9, 40, 0
1, 168620, Note_on_c, 1, 26, 0
1, 168670, System_exclusive, 6, 0, 32, 36, 0, 8, 247
1, 168688, Note_on_c, 11, 69, 0
1, 168690, Note_on_c, 14, 57, 0
1, 168691, Note_on_c, 11, 57, 0
1, 168691, Note_on_c, 11, 62, 0
1, 168691, Note_on_c, 14, 50, 0
1, 168700, Note_on_c, 3, 77, 0
1, 168708, Note_on_c, 13, 69, 0
1, 168709, Note_on_c, 13, 57, 0
1, 168709, Note_on_c, 13, 62, 0
1, 168709, Note_on_c, 15, 57, 0
1, 168709, Note_on_c, 11, 62, 60
1, 168709, Note_on_c, 14, 57, 99
1, 168711, Note_on_c, 15, 50, 0
1, 168712, Note_on_c, 11, 57, 60
1, 168713, Note_on_c, 11, 69, 61
1, 168713, Note_on_c, 14, 50, 98
1, 168720, Note_on_c, 3, 74, 104
1, 168721, Note_on_c, 1, 26, 114
1, 168722, Note_on_c, 9, 42, 94
1, 168729, Note_on_c, 13, 57, 61
1, 168729, Note_on_c, 15, 50, 99
1, 168730, Note_on_c, 13, 62, 60
1, 168732, Note_on_c, 15, 57, 98
1, 168733, Note_on_c, 13, 69, 60
1, 168742, Note_on_c, 9, 42, 0
1, 168821, Note_on_c, 1, 26, 0
1, 168839, Note_on_c, 1, 26, 118
1, 168929, Note_on_c, 11, 62, 0
1, 168929, Note_on_c, 14, 57, 0
1, 168932, Note_on_c, 11, 57, 0
1, 168933, Note_on_c, 11, 69, 0
1, 168933, Note_on_c, 14, 50, 0
1, 168938, Note_on_c, 8, 57, 0
1, 168939, Note_on_c, 1, 26, 0
1, 168940, Note_on_c, 3, 74, 0
1, 168940, Note_on_c, 6, 77, 0
1, 168941, Note_on_c, 6, 74, 0
1, 168942, Note_on_c, 8, 38, 0
1, 168942, Note_on_c, 8, 50, 0
1, 168949, Note_on_c, 13, 57, 0
1, 168949, Note_on_c, 15, 50, 0
1, 168950, Note_on_c, 13, 62, 0
1, 168951, Note_on_c, 11, 58, 60
1, 168951, Note_on_c, 11, 62, 61
1, 168952, Note_on_c, 15, 57, 0
1, 168952, Note_on_c, 14, 46, 98
1, 168952, Note_on_c, 14, 53, 99
1, 168953, Note_on_c, 13, 69, 0
1, 168953, Note_on_c, 11, 65, 61
1, 168958, Note_on_c, 7, 58, 61
1, 168958, Note_on_c, 8, 53, 61
1, 168959, Note_on_c, 6, 74, 66
1, 168959, Note_on_c, 6, 77, 67
1, 168959, Note_on_c, 8, 46, 60
1, 168959, Note_on_c, 9, 36, 127
1, 168960, Note_on_c, 1, 34, 117
1, 168960, Note_on_c, 9, 42, 127
1, 168962, Note_on_c, 8, 34, 60
1, 168969, Note_on_c, 13, 58, 61
1, 168969, Note_on_c, 13, 62, 60
1, 168969, Note_on_c, 13, 65, 61
1, 168969, Note_on_c, 15, 53, 98
1, 168972, Note_on_c, 15, 46, 99
1, 168979, Note_on_c, 9, 36, 0
1, 168980, Note_on_c, 9, 42, 0
1, 169100, Note_on_c, 1, 34, 0
1, 169171, Note_on_c, 11, 58, 0
1, 169171, Note_on_c, 11, 62, 0
1, 169172, Note_on_c, 14, 46, 0
1, 169172, Note_on_c, 14, 53, 0
1, 169173, Note_on_c, 11, 65, 0
1, 169189, Note_on_c, 13, 58, 0
1, 169189, Note_on_c, 13, 62, 0
1, 169189, Note_on_c, 13, 65, 0
1, 169189, Note_on_c, 15, 53, 0
1, 169190, Note_on_c, 11, 58, 60
1, 169190, Note_on_c, 11, 62, 61
1, 169190, Note_on_c, 14, 46, 99
1, 169190, Note_on_c, 14, 53, 98
1, 169191, Note_on_c, 11, 65, 60
1, 169192, Note_on_c, 15, 46, 0
1, 169200, Note_on_c, 3, 82, 105
1, 169203, Note_on_c, 1, 34, 117
1, 169203, Note_on_c, 9, 42, 91
1, 169210, Note_on_c, 13, 62, 61
1, 169211, Note_on_c, 13, 65, 60
1, 169212, Note_on_c, 13, 58, 61
1, 169212, Note_on_c, 15, 46, 99
1, 169212, Note_on_c, 15, 53, 98
1, 169223, Note_on_c, 9, 42, 0
1, 169303, Note_on_c, 1, 34, 0
1, 169320, Note_on_c, 1, 34, 114
1, 169410, Note_on_c, 11, 58, 0
1, 169410, Note_on_c, 11, 62, 0
1, 169411, Note_on_c, 11, 65, 0
1, 169420, Note_on_c, 1, 34, 0
1, 169428, Note_on_c, 11, 62, 60
1, 169430, Note_on_c, 13, 62, 0
1, 169430, Note_on_c, 11, 58, 61
1, 169431, Note_on_c, 13, 65, 0
1, 169432, Note_on_c, 13, 58, 0
1, 169433, Note_on_c, 11, 65, 61
1, 169440, Note_on_c, 9, 42, 126
1, 169441, Note_on_c, 1, 34, 114
1, 169443, Note_on_c, 9, 40, 127
1, 169449, Note_on_c, 13, 62, 60
1, 169452, Note_on_c, 13, 58, 60
1, 169452, Note_on_c, 13, 65, 61
1, 169460, Note_on_c, 9, 42, 0
1, 169463, Note_on_c, 9, 40, 0
1, 169541, Note_on_c, 1, 34, 0
1, 169648, Note_on_c, 11, 62, 0
1, 169650, Note_on_c, 11, 58, 0
1, 169650, Note_on_c, 14, 46, 0
1, 169650, Note_on_c, 14, 53, 0
1, 169653, Note_on_c, 11, 65, 0
1, 169660, Note_on_c, 3, 82, 0
1, 169669, Note_on_c, 13, 62, 0
1, 169669, Note_on_c, 14, 53, 98
1, 169670, Note_on_c, 11, 58, 60
1, 169671, Note_on_c, 11, 62, 60
1, 169671, Note_on_c, 11, 65, 61
1, 169671, Note_on_c, 14, 46, 99
1, 169672, Note_on_c, 13, 58, 0
1, 169672, Note_on_c, 13, 65, 0
1, 169672, Note_on_c, 15, 46, 0
1, 169672, Note_on_c, 15, 53, 0
1, 169680, Note_on_c, 3, 81, 104
1, 169680, Note_on_c, 9, 42, 94
1, 169683, Note_on_c, 1, 34, 111
1, 169689, Note_on_c, 15, 53, 98
1, 169690, Note_on_c, 13, 58, 61
1, 169690, Note_on_c, 15, 46, 99
1, 169692, Note_on_c, 13, 62, 60
1, 169692, Note_on_c, 13, 65, 60
1, 169700, Note_on_c, 9, 42, 0
1, 169769, Note_on_c, 14, 53, 0
1, 169771, Note_on_c, 14, 46, 0
1, 169783, Note_on_c, 1, 34, 0
1, 169789, Note_on_c, 15, 53, 0
1, 169790, Note_on_c, 15, 46, 0
1, 169793, Note_on_c, 14, 46, 98
1, 169793, Note_on_c, 14, 53, 99
1, 169803, Note_on_c, 1, 34, 110
1, 169809, Note_on_c, 15, 46, 98
1, 169809, Note_on_c, 15, 53, 99
1, 169890, Note_on_c, 11, 58, 0
1, 169891, Note_on_c, 11, 62, 0
1, 169891, Note_on_c, 11, 65, 0
1, 169893, Note_on_c, 14, 46, 0
1, 169893, Note_on_c, 14, 53, 0
1, 169900, Note_on_c, 3, 81, 0
1, 169903, Note_on_c, 1, 34, 0
1, 169909, Note_on_c, 15, 46, 0
1, 169909, Note_on_c, 15, 53, 0
1, 169909, Note_on_c, 11, 62, 61
1, 169910, Note_on_c, 13, 58, 0
1, 169910, Note_on_c, 11, 65, 60
1, 169911, Note_on_c, 11, 58, 60
1, 169912, Note_on_c, 13, 62, 0
1, 169912, Note_on_c, 13, 65, 0
1, 169912, Note_on_c, 14, 53, 99
1, 169913, Note_on_c, 14, 46, 98
1, 169919, Note_on_c, 9, 36, 126
1, 169920, Note_on_c, 1, 34, 117
1, 169920, Note_on_c, 3, 79, 104
1, 169921, Note_on_c, 9, 42, 127
1, 169930, Note_on_c, 13, 65, 61
1, 169931, Note_on_c, 13, 58, 61
1, 169931, Note_on_c, 15, 46, 99
1, 169932, Note_on_c, 13, 62, 60
1, 169932, Note_on_c, 15, 53, 98
1, 169939, Note_on_c, 9, 36, 0
1, 169941, Note_on_c, 9, 42, 0
1, 170060, Note_on_c, 1, 34, 0
1, 170129, Note_on_c, 11, 62, 0
1, 170130, Note_on_c, 11, 65, 0
1, 170131, Note_on_c, 11, 58, 0
1, 170132, Note_on_c, 14, 53, 0
1, 170133, Note_on_c, 14, 46, 0
1, 170140, Note_on_c, 3, 79, 0
1, 170149, Note_on_c, 11, 58, 61
1, 170150, Note_on_c, 13, 65, 0
1, 170150, Note_on_c, 11, 62, 60
1, 170150, Note_on_c, 14, 53, 99
1, 170151, Note_on_c, 13, 58, 0
1, 170151, Note_on_c, 15, 46, 0
1, 170151, Note_on_c, 14, 46, 98
1, 170152, Note_on_c, 13, 62, 0
1, 170152, Note_on_c, 15, 53, 0
1, 170153, Note_on_c, 11, 65, 61
1, 170160, Note_on_c, 3, 82, 105
1, 170160, Note_on_c, 9, 42, 97
1, 170162, Note_on_c, 1, 34, 117
1, 170168, Note_on_c, 13, 65, 60
1, 170171, Note_on_c, 15, 53, 99
1, 170172, Note_on_c, 15, 46, 98
1, 170173, Note_on_c, 13, 58, 61
1, 170173, Note_on_c, 13, 62, 60
1, 170180, Note_on_c, 9, 42, 0
1, 170302, Note_on_c, 1, 34, 0
1, 170369, Note_on_c, 11, 58, 0
1, 170370, Note_on_c, 11, 62, 0
1, 170370, Note_on_c, 14, 53, 0
1, 170371, Note_on_c, 14, 46, 0
1, 170373, Note_on_c, 11, 65, 0
1, 170380, Note_on_c, 3, 82, 0
1, 170388, Note_on_c, 13, 65, 0
1, 170389, Note_on_c, 11, 65, 61
1, 170389, Note_on_c, 14, 53, 98
1, 170390, Note_on_c, 11, 58, 60
1, 170390, Note_on_c, 11, 62, 61
1, 170391, Note_on_c, 15, 53, 0
1, 170392, Note_on_c, 15, 46, 0
1, 170393, Note_on_c, 13, 58, 0
1, 170393, Note_on_c, 13, 62, 0
1, 170393, Note_on_c, 14, 46, 99
1, 170398, Note_on_c, 9, 40, 126
1, 170400, Note_on_c, 3, 79, 105
1, 170402, Note_on_c, 9, 42, 126
1, 170403, Note_on_c, 1, 34, 116
1, 170410, Note_on_c, 13, 58, 61
1, 170410, Note_on_c, 13, 65, 61
1, 170410, Note_on_c, 15, 53, 98
1, 170411, Note_on_c, 15, 46, 99
1, 170412, Note_on_c, 13, 62, 60
1, 170418, Note_on_c, 9, 40, 0
1, 170422, Note_on_c, 9, 42, 0
1, 170543, Note_on_c, 1, 34, 0
1, 170609, Note_on_c, 11, 65, 0
1, 170609, Note_on_c, 14, 53, 0
1, 170610, Note_on_c, 11, 58, 0
1, 170610, Note_on_c, 11, 62, 0
1, 170613, Note_on_c, 14, 46, 0
1, 170620, Note_on_c, 3, 79, 0
1, 170629, Note_on_c, 11, 58, 60
1, 170630, Note_on_c, 13, 58, 0
1, 170630, Note_on_c, 13, 65, 0
1, 170630, Note_on_c, 15, 53, 0
1, 170630, Note_on_c, 14, 53, 99
1, 170631, Note_on_c, 15, 46, 0
1, 170631, Note_on_c, 11, 62, 60
1, 170632, Note_on_c, 13, 62, 0
1, 170632, Note_on_c, 11, 65, 61
1, 170633, Note_on_c, 14, 46, 98
1, 170639, Note_on_c, 1, 34, 119
1, 170640, Note_on_c, 3, 84, 104
1, 170640, Note_on_c, 9, 42, 94
1, 170649, Note_on_c, 13, 65, 61
1, 170650, Note_on_c, 13, 62, 60
1, 170652, Note_on_c, 15, 53, 99
1, 170653, Note_on_c, 13, 58, 60
1, 170653, Note_on_c, 15, 46, 98
1, 170660, Note_on_c, 9, 42, 0
1, 170739, Note_on_c, 1, 34, 0
1, 170763, Note_on_c, 1, 34, 116
1, 170849, Note_on_c, 11, 58, 0
1, 170850, Note_on_c, 14, 53, 0
1, 170851, Note_on_c, 11, 62, 0
1, 170852, Note_on_c, 11, 65, 0
1, 170853, Note_on_c, 14, 46, 0
1, 170858, Note_on_c, 7, 58, 0
1, 170858, Note_on_c, 8, 53, 0
1, 170859, Note_on_c, 6, 74, 0
1, 170859, Note_on_c, 6, 77, 0
1, 170859, Note_on_c, 7, 65, 0
1, 170859, Note_on_c, 8, 46, 0
1, 170860, Note_on_c, 3, 84, 0
1, 170862, Note_on_c, 8, 34, 0
1, 170863, Note_on_c, 1, 34, 0
1, 170869, Note_on_c, 13, 65, 0
1, 170869, Note_on_c, 14, 55, 98
1, 170870, Note_on_c, 13, 62, 0
1, 170871, Note_on_c, 11, 62, 61
1, 170871, Note_on_c, 11, 64, 60
1, 170872, Note_on_c, 15, 53, 0
1, 170872, Note_on_c, 11, 67, 60
1, 170872, Note_on_c, 14, 48, 99
1, 170873, Note_on_c, 13, 58, 0
1, 170873, Note_on_c, 15, 46, 0
1, 170879, Note_on_c, 6, 79, 66
1, 170879, Note_on_c, 9, 36, 126
1, 170879, Note_on_c, 9, 42, 127
1, 170880, Note_on_c, 3, 82, 104
1, 170880, Note_on_c, 8, 55, 61
1, 170881, Note_on_c, 8, 48, 61
1, 170882, Note_on_c, 1, 36, 114
1, 170882, Note_on_c, 6, 76, 66
1, 170882, Note_on_c, 7, 64, 60
1, 170882, Note_on_c, 8, 36, 60
1, 170888, Note_on_c, 13, 67, 61
1, 170889, Note_on_c, 15, 55, 98
1, 170891, Note_on_c, 15, 48, 99
1, 170892, Note_on_c, 13, 62, 61
1, 170892, Note_on_c, 13, 64, 60
1, 170899, Note_on_c, 9, 36, 0
1, 170899, Note_on_c, 9, 42, 0
1, 171022, Note_on_c, 1, 36, 0
1, 171089, Note_on_c, 14, 55, 0
1, 171091, Note_on_c, 11, 62, 0
1, 171091, Note_on_c, 11, 64, 0
1, 171092, Note_on_c, 11, 67, 0
1, 171092, Note_on_c, 14, 48, 0
1, 171108, Note_on_c, 13, 67, 0
1, 171108, Note_on_c, 14, 48, 99
1, 171109, Note_on_c, 15, 55, 0
1, 171109, Note_on_c, 14, 55, 98
1, 171110, Note_on_c, 11, 62, 61
1, 171111, Note_on_c, 15, 48, 0
1, 171112, Note_on_c, 13, 62, 0
1, 171112, Note_on_c, 13, 64, 0
1, 171112, Note_on_c, 11, 67, 61
1, 171113, Note_on_c, 11, 64, 60
1, 171120, Note_on_c, 1, 36, 115
1, 171122, Note_on_c, 9, 42, 90
1, 171129, Note_on_c, 13, 67, 60
1, 171129, Note_on_c, 15, 55, 99
1, 171130, Note_on_c, 15, 48, 98
1, 171132, Note_on_c, 13, 62, 61
1, 171132, Note_on_c, 13, 64, 61
1, 171142, Note_on_c, 9, 42, 0
1, 171186, System_exclusive, 38, 0, 32, 36, 0, 4, 73, 84, 39, 83, 32, 78, 79, 84, 32, 79, 75, 65, 89, 32, 73, 32, 68, 79, 78, 39, 84, 32, 70, 69, 69, 76, 32, 83, 65, 70, 69, 10, 247
1, 171191, System_exclusive, 21, 0, 32, 36, 0, 5, 73, 32, 78, 69, 69, 68, 32, 84, 79, 32, 80, 82, 65, 89, 10, 247
1, 171196, System_exclusive, 7, 0, 32, 36, 0, 6, 10, 247
1, 171201, System_exclusive, 7, 0, 32, 36, 0, 7, 10, 247
1, 171211, System_exclusive, 6, 0, 32, 36, 0, 8, 247
1, 171220, Note_on_c, 1, 36, 0
1, 171242, Note_on_c, 1, 36, 113
1, 171330, Note_on_c, 11, 62, 0
1, 171332, Note_on_c, 11, 67, 0
1, 171333, Note_on_c, 11, 64, 0
1, 171340, Note_on_c, 3, 82, 0
1, 171342, Note_on_c, 1, 36, 0
1, 171342, Note_on_c, 7, 62, 0
1, 171349, Note_on_c, 13, 67, 0
1, 171350, Note_on_c, 11, 64, 60
1, 171350, Note_on_c, 11, 67, 61
1, 171352, Note_on_c, 13, 62, 0
1, 171352, Note_on_c, 13, 64, 0
1, 171352, Note_on_c, 11, 60, 60
1, 171358, Note_on_c, 1, 36, 118
1, 171360, Note_on_c, 3, 84, 105
1, 171361, Note_on_c, 7, 60, 60
1, 171361, Note_on_c, 9, 40, 126
1, 171361, Note_on_c, 9, 42, 127
1, 171369, Note_on_c, 13, 60, 60
1, 171369, Note_on_c, 13, 64, 60
1, 171372, Note_on_c, 13, 67, 61
1, 171381, Note_on_c, 9, 40, 0
1, 171381, Note_on_c, 9, 42, 0
1, 171458, Note_on_c, 1, 36, 0
1, 171568, Note_on_c, 14, 48, 0
1, 171569, Note_on_c, 14, 55, 0
1, 171570, Note_on_c, 11, 64, 0
1, 171570, Note_on_c, 11, 67, 0
1, 171572, Note_on_c, 11, 60, 0
1, 171579, Note_on_c, 6, 79, 0
1, 171588, Note_on_c, 14, 55, 98
1, 171589, Note_on_c, 13, 60, 0
1, 171589, Note_on_c, 13, 64, 0
1, 171589, Note_on_c, 15, 55, 0
1, 171590, Note_on_c, 15, 48, 0
1, 171592, Note_on_c, 13, 67, 0
1, 171592, Note_on_c, 11, 62, 61
1, 171592, Note_on_c, 11, 64, 61
1, 171592, Note_on_c, 11, 67, 60
1, 171592, Note_on_c, 14, 48, 99
1, 171599, Note_on_c, 1, 36, 112
1, 171600, Note_on_c, 6, 77, 67
1, 171600, Note_on_c, 9, 42, 95
1, 171608, Note_on_c, 15, 55, 98
1, 171610, Note_on_c, 13, 64, 60
1, 171611, Note_on_c, 13, 62, 61
1, 171611, Note_on_c, 15, 48, 99
1, 171612, Note_on_c, 13, 67, 61
1, 171620, Note_on_c, 9, 42, 0
1, 171688, Note_on_c, 14, 55, 0
1, 171692, Note_on_c, 11, 62, 0
1, 171692, Note_on_c, 11, 64, 0
1, 171692, Note_on_c, 11, 67, 0
1, 171692, Note_on_c, 14, 48, 0
1, 171699, Note_on_c, 1, 36, 0
1, 171708, Note_on_c, 15, 55, 0
1, 171709, Note_on_c, 11, 62, 61
1, 171710, Note_on_c, 13, 64, 0
1, 171711, Note_on_c, 13, 62, 0
1, 171711, Note_on_c, 15, 48, 0
1, 171711, Note_on_c, 14, 55, 98
1, 171712, Note_on_c, 13, 67, 0
1, 171712, Note_on_c, 11, 64, 60
1, 171712, Note_on_c, 11, 67, 60
1, 171712, Note_on_c, 14, 48, 99
1, 171723, Note_on_c, 1, 36, 115
1, 171728, Note_on_c, 13, 64, 60
1, 171729, Note_on_c, 15, 48, 98
1, 171730, Note_on_c, 13, 62, 61
1, 171732, Note_on_c, 15, 55, 99
1, 171733, Note_on_c, 13, 67, 60
1, 171809, Note_on_c, 11, 62, 0
1, 171811, Note_on_c, 14, 55, 0
1, 171812, Note_on_c, 11, 64, 0
1, 171812, Note_on_c, 11, 67, 0
1, 171812, Note_on_c, 14, 48, 0
1, 171820, Note_on_c, 3, 84, 0
1, 171821, Note_on_c, 7, 60, 0
1, 171823, Note_on_c, 1, 36, 0
1, 171828, Note_on_c, 13, 64, 0
1, 171828, Note_on_c, 14, 48, 99
1, 171829, Note_on_c, 15, 48, 0
1, 171829, Note_on_c, 11, 64, 61
1, 171830, Note_on_c, 13, 62, 0
1, 171830, Note_on_c, 11, 62, 61
1, 171832, Note_on_c, 15, 55, 0
1, 171832, Note_on_c, 11, 67, 60
1, 171833, Note_on_c, 13, 67, 0
1, 171833, Note_on_c, 14, 55, 98
1, 171839, Note_on_c, 9, 36, 127
1, 171839, Note_on_c, 9, 42, 126
1, 171840, Note_on_c, 7, 62, 61
1, 171841, Note_on_c, 1, 36, 117
1, 171848, Note_on_c, 13, 64, 60
1, 171850, Note_on_c, 13, 62, 61
1, 171850, Note_on_c, 13, 67, 61
1, 171850, Note_on_c, 15, 55, 99
1, 171851, Note_on_c, 15, 48, 98
1, 171859, Note_on_c, 9, 36, 0
1, 171859, Note_on_c, 9, 42, 0
1, 171981, Note_on_c, 1, 36, 0
1, 172048, Note_on_c, 14, 48, 0
1, 172049, Note_on_c, 11, 64, 0
1, 172050, Note_on_c, 11, 62, 0
1, 172052, Note_on_c, 11, 67, 0
1, 172053, Note_on_c, 14, 55, 0
1, 172060, Note_on_c, 7, 62, 0
1, 172068, Note_on_c, 13, 64, 0
1, 172070, Note_on_c, 13, 62, 0
1, 172070, Note_on_c, 13, 67, 0
1, 172070, Note_on_c, 15, 55, 0
1, 172070, Note_on_c, 11, 64, 60
1, 172070, Note_on_c, 11, 67, 61
1, 172071, Note_on_c, 15, 48, 0
1, 172071, Note_on_c, 14, 55, 99
1, 172072, Note_on_c, 11, 60, 61
1, 172072, Note_on_c, 14, 48, 98
1, 172079, Note_on_c, 9, 36, 126
1, 172080, Note_on_c, 3, 77, 105
1, 172080, Note_on_c, 9, 42, 97
1, 172081, Note_on_c, 7, 60, 61
1, 172082, Note_on_c, 1, 36, 112
1, 172088, Note_on_c, 13, 64, 60
1, 172089, Note_on_c, 13, 67, 60
1, 172090, Note_on_c, 15, 48, 99
1, 172091, Note_on_c, 15, 55, 98
1, 172093, Note_on_c, 13, 60, 61
1, 172099, Note_on_c, 9, 36, 0
1, 172100, Note_on_c, 9, 42, 0
1, 172222, Note_on_c, 1, 36, 0
1, 172290, Note_on_c, 11, 64, 0
1, 172290, Note_on_c, 11, 67, 0
1, 172292, Note_on_c, 11, 60, 0
1, 172308, Note_on_c, 13, 64, 0
1, 172308, Note_on_c, 11, 60, 60
1, 172309, Note_on_c, 13, 67, 0
1, 172309, Note_on_c, 11, 64, 60
1, 172311, Note_on_c, 11, 67, 61
1, 172313, Note_on_c, 13, 60, 0
1, 172320, Note_on_c, 1, 36, 118
1, 172320, Note_on_c, 9, 40, 127
1, 172322, Note_on_c, 9, 42, 126
1, 172329, Note_on_c, 13, 60, 61
1, 172329, Note_on_c, 13, 64, 60
1, 172332, Note_on_c, 13, 67, 60
1, 172340, Note_on_c, 9, 40, 0
1, 172342, Note_on_c, 9, 42, 0
1, 172460, Note_on_c, 1, 36, 0
1, 172528, Note_on_c, 11, 60, 0
1, 172529, Note_on_c, 11, 64, 0
1, 172531, Note_on_c, 11, 67, 0
1, 172531, Note_on_c, 14, 55, 0
1, 172532, Note_on_c, 14, 48, 0
1, 172540, Note_on_c, 3, 77, 0
1, 172549, Note_on_c, 13, 60, 0
1, 172549, Note_on_c, 13, 64, 0
1, 172550, Note_on_c, 15, 48, 0
1, 172550, Note_on_c, 14, 48, 98
1, 172550, Note_on_c, 14, 55, 99
1, 172551, Note_on_c, 15, 55, 0
1, 172551, Note_on_c, 11, 64, 60
1, 172551, Note_on_c, 11, 67, 61
1, 172552, Note_on_c, 13, 67, 0
1, 172552, Note_on_c, 11, 60, 61
1, 172559, Note_on_c, 1, 36, 119
1, 172560, Note_on_c, 3, 77, 104
1, 172562, Note_on_c, 9, 42, 94
1, 172568, Note_on_c, 13, 60, 61
1, 172569, Note_on_c, 13, 64, 60
1, 172570, Note_on_c, 15, 48, 98
1, 172570, Note_on_c, 15, 55, 99
1, 172573, Note_on_c, 13, 67, 61
1, 172582, Note_on_c, 9, 42, 0
1, 172650, Note_on_c, 14, 48, 0
1, 172650, Note_on_c, 14, 55, 0
1, 172659, Note_on_c, 1, 36, 0
1, 172660, Note_on_c, 3, 77, 0
1, 172670, Note_on_c, 15, 48, 0
1, 172670, Note_on_c, 15, 55, 0
1, 172670, Note_on_c, 14, 48, 99
1, 172670, Note_on_c, 14, 55, 98
1, 172678, Note_on_c, 1, 36, 114
1, 172680, Note_on_c, 3, 79, 104
1, 172691, Note_on_c, 15, 55, 99
1, 172693, Note_on_c, 15, 48, 98
1, 172770, Note_on_c, 14, 48, 0
1, 172770, Note_on_c, 14, 55, 0
1, 172771, Note_on_c, 11, 64, 0
1, 172771, Note_on_c, 11, 67, 0
1, 172772, Note_on_c, 11, 60, 0
1, 172778, Note_on_c, 1, 36, 0
1, 172780, Note_on_c, 6, 77, 0
1, 172780, Note_on_c, 8, 55, 0
1, 172781, Note_on_c, 7, 60, 0
1, 172781, Note_on_c, 8, 48, 0
1, 172782, Note_on_c, 6, 76, 0
1, 172782, Note_on_c, 7, 64, 0
1, 172782, Note_on_c, 8, 36, 0
1, 172788, Note_on_c, 13, 60, 0
1, 172789, Note_on_c, 13, 64, 0
1, 172790, Note_on_c, 14, 52, 98
1, 172791, Note_on_c, 15, 55, 0
1, 172791, Note_on_c, 11, 69, 60
1, 172791, Note_on_c, 14, 45, 99
1, 172792, Note_on_c, 11, 57, 61
1, 172792, Note_on_c, 11, 64, 60
1, 172793, Note_on_c, 13, 67, 0
1, 172793, Note_on_c, 15, 48, 0
1, 172799, Note_on_c, 7, 57, 60
1, 172800, Note_on_c, 8, 33, 60
1, 172800, Note_on_c, 9, 36, 127
1, 172800, Note_on_c, 9, 42, 127
1, 172801, Note_on_c, 8, 45, 61
1, 172802, Note_on_c, 1, 33, 115
1, 172802, Note_on_c, 6, 81, 67
1, 172802, Note_on_c, 7, 64, 60
1, 172802, Note_on_c, 8, 52, 61
1, 172803, Note_on_c, 6, 74, 66
1, 172809, Note_on_c, 15, 45, 98
1, 172810, Note_on_c, 15, 52, 99
1, 172811, Note_on_c, 13, 64, 61
1, 172811, Note_on_c, 13, 69, 60
1, 172812, Note_on_c, 13, 57, 61
1, 172820, Note_on_c, 9, 36, 0
1, 172820, Note_on_c, 9, 42, 0
1, 172900, Note_on_c, 3, 79, 0
1, 172920, Note_on_c, 3, 81, 105
1, 172942, Note_on_c, 1, 33, 0
1, 173010, Note_on_c, 14, 52, 0
1, 173011, Note_on_c, 11, 69, 0
1, 173011, Note_on_c, 14, 45, 0
1, 173012, Note_on_c, 11, 57, 0
1, 173012, Note_on_c, 11, 64, 0
1, 173028, Note_on_c, 11, 57, 60
1, 173029, Note_on_c, 15, 45, 0
1, 173030, Note_on_c, 15, 52, 0
1, 173030, Note_on_c, 11, 64, 61
1, 173030, Note_on_c, 14, 45, 99
1, 173031, Note_on_c, 13, 64, 0
1, 173031, Note_on_c, 13, 69, 0
1, 173031, Note_on_c, 11, 69, 61
1, 173032, Note_on_c, 13, 57, 0
1, 173032, Note_on_c, 14, 52, 98
1, 173040, Note_on_c, 9, 42, 91
1, 173041, Note_on_c, 1, 33, 117
1, 173048, Note_on_c, 15, 52, 99
1, 173051, Note_on_c, 13, 57, 60
1, 173051, Note_on_c, 13, 64, 60
1, 173053, Note_on_c, 13, 69, 61
1, 173053, Note_on_c, 15, 45, 98
1, 173060, Note_on_c, 9, 42, 0
1, 173141, Note_on_c, 1, 33, 0
1, 173162, Note_on_c, 1, 33, 116
1, 173248, Note_on_c, 11, 57, 0
1, 173250, Note_on_c, 11, 64, 0
1, 173251, Note_on_c, 11, 69, 0
1, 173262, Note_on_c, 1, 33, 0
1, 173269, Note_on_c, 11, 64, 60
1, 173270, Note_on_c, 11, 69, 60
1, 173271, Note_on_c, 13, 57, 0
1, 173271, Note_on_c, 13, 64, 0
1, 173271, Note_on_c, 11, 57, 61
1, 173273, Note_on_c, 13, 69, 0
1, 173278, Note_on_c, 9, 40, 127
1, 173279, Note_on_c, 9, 42, 126
1, 173283, Note_on_c, 1, 33, 111
1, 173291, Note_on_c, 13, 64, 61
1, 173292, Note_on_c, 13, 57, 60
1, 173292, Note_on_c, 13, 69, 60
1, 173298, Note_on_c, 9, 40, 0
1, 173299, Note_on_c, 9, 42, 0
1, 173383, Note_on_c, 1, 33, 0
1, 173489, Note_on_c, 11, 64, 0
1, 173490, Note_on_c, 11, 69, 0
1, 173490, Note_on_c, 14, 45, 0
1, 173491, Note_on_c, 11, 57, 0
1, 173492, Note_on_c, 14, 52, 0
1, 173500, Note_on_c, 3, 81, 0
1, 173508, Note_on_c, 15, 52, 0
1, 173508, Note_on_c, 14, 45, 98
1, 173509, Note_on_c, 11, 69, 61
1, 173511, Note_on_c, 13, 64, 0
1, 173511, Note_on_c, 14, 52, 99
1, 173512, Note_on_c, 13, 57, 0
1, 173512, Note_on_c, 13, 69, 0
1, 173512, Note_on_c, 11, 57, 60
1, 173512, Note_on_c, 11, 64, 60
1, 173513, Note_on_c, 15, 45, 0
1, 173519, Note_on_c, 9, 42, 94
1, 173520, Note_on_c, 1, 33, 118
1, 173528, Note_on_c, 13, 57, 61
1, 173529, Note_on_c, 15, 45, 98
1, 173529, Note_on_c, 15, 52, 99
1, 173530, Note_on_c, 13, 64, 61
1, 173533, Note_on_c, 13, 69, 60
1, 173539, Note_on_c, 9, 42, 0
1, 173608, Note_on_c, 14, 45, 0
1, 173609, Note_on_c, 11, 69, 0
1, 173611, Note_on_c, 14, 52, 0
1, 173612, Note_on_c, 11, 57, 0
1, 173612, Note_on_c, 11, 64, 0
1, 173620, Note_on_c, 1, 33, 0
1, 173628, Note_on_c, 13, 57, 0
1, 173629, Note_on_c, 15, 45, 0
1, 173629, Note_on_c, 15, 52, 0
1, 173629, Note_on_c, 11, 57, 61
1, 173629, Note_on_c, 11, 64, 60
1, 173630, Note_on_c, 13, 64, 0
1, 173630, Note_on_c, 14, 52, 98
1, 173631, Note_on_c, 14, 45, 99
1, 173633, Note_on_c, 13, 69, 0
1, 173633, Note_on_c, 11, 69, 61
1, 173639, Note_on_c, 1, 33, 118
1, 173648, Note_on_c, 15, 52, 98
1, 173649, Note_on_c, 13, 69, 60
1, 173649, Note_on_c, 15, 45, 99
1, 173651, Note_on_c, 13, 57, 61
1, 173651, Note_on_c, 13, 64, 60
1, 173729, Note_on_c, 11, 57, 0
1, 173729, Note_on_c, 11, 64, 0
1, 173730, Note_on_c, 14, 52, 0
1, 173731, Note_on_c, 14, 45, 0
1, 173733, Note_on_c, 11, 69, 0
1, 173739, Note_on_c, 1, 33, 0
1, 173742, Note_on_c, 7, 64, 0
1, 173748, Note_on_c, 15, 52, 0
1, 173748, Note_on_c, 11, 57, 61
1, 173749, Note_on_c, 13, 69, 0
1, 173749, Note_on_c, 15, 45, 0
1, 173750, Note_on_c, 11, 69, 60
1, 173750, Note_on_c, 14, 52, 99
1, 173751, Note_on_c, 13, 57, 0
1, 173751, Note_on_c, 13, 64, 0
1, 173752, Note_on_c, 14, 45, 98
1, 173753, Note_on_c, 11, 64, 61
1, 173759, Note_on_c, 9, 42, 127
1, 173761, Note_on_c, 1, 33, 117
1, 173761, Note_on_c, 9, 36, 127
1, 173763, Note_on_c, 7, 61, 61
1, 173770, Note_on_c, 13, 69, 61
1, 173771, Note_on_c, 13, 57, 61
1, 173771, Note_on_c, 15, 45, 99
1, 173771, Note_on_c, 15, 52, 98
1, 173772, Note_on_c, 13, 64, 60
1, 173779, Note_on_c, 9, 42, 0
1, 173781, Note_on_c, 9, 36, 0
1, 173901, Note_on_c, 1, 33, 0
1, 173968, Note_on_c, 11, 57, 0
1, 173970, Note_on_c, 11, 69, 0
1, 173970, Note_on_c, 14, 52, 0
1, 173972, Note_on_c, 14, 45, 0
1, 173973, Note_on_c, 11, 64, 0
1, 173989, Note_on_c, 11, 64, 60
1, 173990, Note_on_c, 13, 69, 0
1, 173990, Note_on_c, 14, 52, 99
1, 173991, Note_on_c, 13, 57, 0
1, 173991, Note_on_c, 15, 45, 0
1, 173991, Note_on_c, 15, 52, 0
1, 173991, Note_on_c, 11, 69, 60
1, 173992, Note_on_c, 13, 64, 0
1, 173992, Note_on_c, 11, 57, 61
1, 173992, Note_on_c, 14, 45, 98
1, 173999, Note_on_c, 9, 42, 97
1, 174000, Note_on_c, 3, 77, 104
1, 174003, Note_on_c, 1, 33, 119
1, 174009, Note_on_c, 13, 69, 61
1, 174009, Note_on_c, 15, 52, 99
1, 174011, Note_on_c, 13, 57, 60
1, 174012, Note_on_c, 15, 45, 98
1, 174013, Note_on_c, 13, 64, 60
1, 174019, Note_on_c, 9, 42, 0
1, 174143, Note_on_c, 1, 33, 0
1, 174209, Note_on_c, 11, 64, 0
1, 174211, Note_on_c, 11, 69, 0
1, 174212, Note_on_c, 11, 57, 0
1, 174220, Note_on_c, 3, 77, 0
1, 174228, Note_on_c, 11, 57, 61
1, 174229, Note_on_c, 13, 69, 0
1, 174231, Note_on_c, 13, 57, 0
1, 174231, Note_on_c, 11, 64, 60
1, 174232, Note_on_c, 11, 69, 60
1, 174233, Note_on_c, 13, 64, 0
1, 174238, Note_on_c, 9, 40, 126
1, 174240, Note_on_c, 3, 77, 105
1, 174240, Note_on_c, 9, 42, 126
1, 174241, Note_on_c, 1, 33, 116
1, 174249, Note_on_c, 13, 57, 61
1, 174249, Note_on_c, 13, 64, 61
1, 174251, Note_on_c, 13, 69, 60
1, 174258, Note_on_c, 9, 40, 0
1, 174260, Note_on_c, 9, 42, 0
1, 174381, Note_on_c, 1, 33, 0
1, 174448, Note_on_c, 11, 57, 0
1, 174450, Note_on_c, 14, 52, 0
1, 174451, Note_on_c, 11, 64, 0
1, 174452, Note_on_c, 11, 69, 0
1, 174452, Note_on_c, 14, 45, 0
1, 174460, Note_on_c, 3, 77, 0
1, 174469, Note_on_c, 13, 57, 0
1, 174469, Note_on_c, 13, 64, 0
1, 174469, Note_on_c, 15, 52, 0
1, 174469, Note_on_c, 14, 52, 98
1, 174470, Note_on_c, 11, 57, 61
1, 174471, Note_on_c, 13, 69, 0
1, 174471, Note_on_c, 11, 64, 61
1, 174471, Note_on_c, 11, 69, 60
1, 174471, Note_on_c, 14, 45, 99
1, 174472, Note_on_c, 15, 45, 0
1, 174480, Note_on_c, 3, 79, 105
1, 174480, Note_on_c, 9, 42, 94
1, 174481, Note_on_c, 1, 33, 118
1, 174490, Note_on_c, 13, 57, 60
1, 174490, Note_on_c, 13, 69, 61
1, 174490, Note_on_c, 15, 45, 98
1, 174490, Note_on_c, 15, 52, 99
1, 174492, Note_on_c, 13, 64, 61
1, 174500, Note_on_c, 9, 42, 0
1, 174569, Note_on_c, 14, 52, 0
1, 174570, Note_on_c, 11, 57, 0
1, 174571, Note_on_c, 11, 64, 0
1, 174571, Note_on_c, 11, 69, 0
1, 174571, Note_on_c, 14, 45, 0
1, 174581, Note_on_c, 1, 33, 0
1, 174590, Note_on_c, 13, 57, 0
1, 174590, Note_on_c, 13, 69, 0
1, 174590, Note_on_c, 15, 45, 0
1, 174590, Note_on_c, 15, 52, 0
1, 174590, Note_on_c, 11, 69, 60
1, 174590, Note_on_c, 14, 52, 99
1, 174591, Note_on_c, 11, 57, 61
1, 174591, Note_on_c, 14, 45, 98
1, 174592, Note_on_c, 13, 64, 0
1, 174592, Note_on_c, 11, 64, 60
1, 174600, Note_on_c, 1, 33, 115
1, 174608, Note_on_c, 13, 57, 60
1, 174608, Note_on_c, 13, 69, 60
1, 174609, Note_on_c, 15, 45, 99
1, 174610, Note_on_c, 15, 52, 98
1, 174611, Note_on_c, 13, 64, 61
1, 174690, Note_on_c, 11, 69, 0
1, 174690, Note_on_c, 14, 52, 0
1, 174691, Note_on_c, 11, 57, 0
1, 174691, Note_on_c, 14, 45, 0
1, 174692, Note_on_c, 11, 64, 0
1, 174700, Note_on_c, 1, 33, 0
1, 174700, Note_on_c, 3, 79, 0
1, 174703, Note_on_c, 6, 74, 0
1, 174708, Note_on_c, 13, 57, 0
1, 174708, Note_on_c, 13, 69, 0
1, 174709, Note_on_c, 15, 45, 0
1, 174709, Note_on_c, 11, 57, 61
1, 174710, Note_on_c, 15, 52, 0
1, 174710, Note_on_c, 11, 69, 61
1, 174711, Note_on_c, 13, 64, 0
1, 174711, Note_on_c, 11, 64, 60
1, 174711, Note_on_c, 14, 52, 98
1, 174712, Note_on_c, 14, 45, 99
1, 174718, Note_on_c, 6, 73, 66
1, 174720, Note_on_c, 3, 81, 104
1, 174720, Note_on_c, 9, 36, 126
1, 174721, Note_on_c, 1, 33, 117
1, 174721, Note_on_c, 7, 69, 60
1, 174721, Note_on_c, 9, 42, 127
1, 174729, Note_on_c, 13, 57, 60
1, 174729, Note_on_c, 13, 69, 61
1, 174729, Note_on_c, 15, 45, 98
1, 174730, Note_on_c, 15, 52, 99
1, 174731, Note_on_c, 13, 64, 61
1, 174740, Note_on_c, 9, 36, 0
1, 174741, Note_on_c, 9, 42, 0
1, 174861, Note_on_c, 1, 33, 0
1, 174929, Note_on_c, 11, 57, 0
1, 174930, Note_on_c, 11, 69, 0
1, 174931, Note_on_c, 11, 64, 0
1, 174931, Note_on_c, 14, 52, 0
1, 174932, Note_on_c, 14, 45, 0
1, 174941, System_exclusive, 6, 0, 32, 36, 0, 8, 247
1, 174949, Note_on_c, 13, 57, 0
1, 174949, Note_on_c, 13, 69, 0
1, 174949, Note_on_c, 15, 45, 0
1, 174949, Note_on_c, 14, 45, 99
1, 174950, Note_on_c, 15, 52, 0
1, 174950, Note_on_c, 11, 57, 61
1, 174950, Note_on_c, 11, 64, 60
1, 174950, Note_on_c, 11, 69, 60
1, 174951, Note_on_c, 13, 64, 0
1, 174951, Note_on_c, 14, 52, 98
1, 174960, Note_on_c, 9, 42, 90
1, 174962, Note_on_c, 1, 33, 116
1, 174969, Note_on_c, 15, 52, 99
1, 174970, Note_on_c, 13, 64, 60
1, 174971, Note_on_c, 13, 69, 61
1, 174972, Note_on_c, 13, 57, 60
1, 174972, Note_on_c, 15, 45, 98
1, 174980, Note_on_c, 9, 42, 0
1, 175062, Note_on_c, 1, 33, 0
1, 175080, Note_on_c, 1, 33, 114
1, 175170, Note_on_c, 11, 57, 0
1, 175170, Note_on_c, 11, 64, 0
1, 175170, Note_on_c, 11, 69, 0
1, 175180, Note_on_c, 1, 33, 0
1, 175190, Note_on_c, 13, 64, 0
1, 175191, Note_on_c, 13, 69, 0
1, 175191, Note_on_c, 11, 64, 61
1, 175192, Note_on_c, 13, 57, 0
1, 175193, Note_on_c, 11, 57, 61
1, 175193, Note_on_c, 11, 69, 60
1, 175198, Note_on_c, 9, 40, 126
1, 175201, Note_on_c, 1, 33, 117
1, 175201, Note_on_c, 9, 42, 127
1, 175208, Note_on_c, 13, 64, 60
1, 175209, Note_on_c, 13, 57, 61
1, 175209, Note_on_c, 13, 69, 61
1, 175218, Note_on_c, 9, 40, 0
1, 175221, Note_on_c, 9, 42, 0
1, 175301, Note_on_c, 1, 33, 0
1, 175409, Note_on_c, 14, 45, 0
1, 175411, Note_on_c, 11, 64, 0
1, 175411, Note_on_c, 14, 52, 0
1, 175413, Note_on_c, 11, 57, 0
1, 175413, Note_on_c, 11, 69, 0
1, 175428, Note_on_c, 13, 64, 0
1, 175428, Note_on_c, 14, 45, 98
1, 175429, Note_on_c, 13, 57, 0
1, 175429, Note_on_c, 13, 69, 0
1, 175429, Note_on_c, 15, 52, 0
1, 175429, Note_on_c, 11, 57, 60
1, 175429, Note_on_c, 11, 64, 61
1, 175429, Note_on_c, 11, 69, 61
1, 175432, Note_on_c, 15, 45, 0
1, 175433, Note_on_c, 14, 52, 99
1, 175440, Note_on_c, 1, 33, 118
1, 175441, Note_on_c, 9, 42, 95
1, 175449, Note_on_c, 13, 57, 60
1, 175450, Note_on_c, 15, 45, 98
1, 175451, Note_on_c, 13, 64, 60
1, 175451, Note_on_c, 13, 69, 61
1, 175451, Note_on_c, 15, 52, 99
1, 175461, Note_on_c, 9, 42, 0
1, 175528, Note_on_c, 14, 45, 0
1, 175533, Note_on_c, 14, 52, 0
1, 175540, Note_on_c, 1, 33, 0
1, 175550, Note_on_c, 15, 45, 0
1, 175551, Note_on_c, 15, 52, 0
1, 175551, Note_on_c, 14, 45, 98
1, 175551, Note_on_c, 14, 52, 99
1, 175563, Note_on_c, 1, 33, 113
1, 175569, Note_on_c, 15, 45, 98
1, 175573, Note_on_c, 15, 52, 99
1, 175649, Note_on_c, 11, 57, 0
1, 175649, Note_on_c, 11, 64, 0
1, 175649, Note_on_c, 11, 69, 0
1, 175651, Note_on_c, 14, 45, 0
1, 175651, Note_on_c, 14, 52, 0
1, 175660, Note_on_c, 3, 81, 0
1, 175663, Note_on_c, 1, 33, 0
1, 175668, Note_on_c, 11, 57, 60
1, 175669, Note_on_c, 13, 57, 0
1, 175669, Note_on_c, 15, 45, 0
1, 175669, Note_on_c, 11, 64, 60
1, 175670, Note_on_c, 14, 52, 99
1, 175671, Note_on_c, 13, 64, 0
1, 175671, Note_on_c, 13, 69, 0
1, 175671, Note_on_c, 14, 45, 98
1, 175673, Note_on_c, 15, 52, 0
1, 175673, Note_on_c, 11, 69, 61
1, 175679, Note_on_c, 9, 36, 127
1, 175679, Note_on_c, 9, 42, 126
1, 175681, Note_on_c, 6, 69, 67
1, 175682, Note_on_c, 1, 33, 119
1, 175689, Note_on_c, 15, 45, 99
1, 175689, Note_on_c, 15, 52, 98
1, 175691, Note_on_c, 13, 64, 61
1, 175692, Note_on_c, 13, 57, 60
1, 175693, Note_on_c, 13, 69, 60
1, 175699, Note_on_c, 9, 36, 0
1, 175699, Note_on_c, 9, 42, 0
1, 175822, Note_on_c, 1, 33, 0
1, 175888, Note_on_c, 11, 57, 0
1, 175889, Note_on_c, 11, 64, 0
1, 175890, Note_on_c, 14, 52, 0
1, 175891, Note_on_c, 14, 45, 0
1, 175893, Note_on_c, 11, 69, 0
1, 175909, Note_on_c, 15, 45, 0
1, 175909, Note_on_c, 15, 52, 0
1, 175909, Note_on_c, 14, 52, 99
1, 175910, Note_on_c, 11, 69, 60
1, 175911, Note_on_c, 13, 64, 0
1, 175912, Note_on_c, 13, 57, 0
1, 175912, Note_on_c, 14, 45, 98
1, 175913, Note_on_c, 13, 69, 0
1, 175913, Note_on_c, 11, 57, 61
1, 175913, Note_on_c, 11, 64, 61
1, 175920, Note_on_c, 3, 81, 105
1, 175922, Note_on_c, 9, 36, 126
1, 175923, Note_on_c, 1, 33, 114
1, 175923, Note_on_c, 9, 42, 97
1, 175928, Note_on_c, 15, 45, 99
1, 175929, Note_on_c, 13, 69, 61
1, 175930, Note_on_c, 13, 57, 60
1, 175930, Note_on_c, 15, 52, 98
1, 175933, Note_on_c, 13, 64, 61
1, 175942, Note_on_c, 9, 36, 0
1, 175943, Note_on_c, 9, 42, 0
1, 176010, Note_on_c, 11, 69, 0
1, 176013, Note_on_c, 11, 57, 0
1, 176013, Note_on_c, 11, 64, 0
1, 176028, Note_on_c, 11, 69, 60
1, 176029, Note_on_c, 13, 69, 0
1, 176029, Note_on_c, 11, 57, 61
1, 176030, Note_on_c, 13, 57, 0
1, 176031, Note_on_c, 11, 64, 60
1, 176033, Note_on_c, 13, 64, 0
1, 176050, Note_on_c, 13, 57, 61
1, 176052, Note_on_c, 13, 69, 60
1, 176053, Note_on_c, 13, 64, 61
1, 176063, Note_on_c, 1, 33, 0
1, 176128, Note_on_c, 11, 69, 0
1, 176129, Note_on_c, 11, 57, 0
1, 176131, Note_on_c, 11, 64, 0
1, 176140, Note_on_c, 3, 81, 0
1, 176148, Note_on_c, 11, 69, 60
1, 176149, Note_on_c, 11, 64, 61
1, 176150, Note_on_c, 13, 57, 0
1, 176150, Note_on_c, 11, 57, 61
1, 176150, Control_c, 9, 91, 127
1, 176152, Note_on_c, 13, 69, 0
1, 176153, Note_on_c, 13, 64, 0
1, 176159, Note_on_c, 9, 38, 111
1, 176160, Note_on_c, 1, 33, 119
1, 176160, Note_on_c, 3, 81, 104
1, 176162, Note_on_c, 9, 44, 127
1, 176171, Note_on_c, 13, 69, 60
1, 176172, Note_on_c, 13, 57, 60
1, 176172, Note_on_c, 13, 64, 61
1, 176179, Note_on_c, 9, 38, 0
1, 176182, Note_on_c, 9, 44, 0
1, 176300, Note_on_c, 1, 33, 0
1, 176368, Note_on_c, 11, 69, 0
1, 176369, Note_on_c, 11, 64, 0
1, 176369, Note_on_c, 14, 52, 0
1, 176370, Note_on_c, 11, 57, 0
1, 176372, Note_on_c, 14, 45, 0
1, 176380, Note_on_c, 3, 81, 0
1, 176388, Note_on_c, 15, 45, 0
1, 176388, Note_on_c, 11, 64, 60
1, 176390, Note_on_c, 15, 52, 0
1, 176390, Note_on_c, 11, 69, 60
1, 176390, Note_on_c, 14, 52, 98
1, 176391, Note_on_c, 13, 69, 0
1, 176391, Note_on_c, 14, 45, 99
1, 176392, Note_on_c, 13, 57, 0
1, 176392, Note_on_c, 13, 64, 0
1, 176392, Note_on_c, 11, 57, 61
1, 176398, Note_on_c, 1, 33, 112
1, 176400, Note_on_c, 3, 84, 104
1, 176409, Note_on_c, 13, 57, 61
1, 176409, Note_on_c, 13, 69, 60
1, 176409, Note_on_c, 15, 52, 98
1, 176411, Note_on_c, 13, 64, 60
1, 176411, Note_on_c, 15, 45, 99
1, 176498, Note_on_c, 1, 33, 0
1, 176519, Note_on_c, 1, 33, 112
1, 176608, Note_on_c, 11, 64, 0
1, 176610, Note_on_c, 11, 69, 0
1, 176610, Note_on_c, 14, 52, 0
1, 176611, Note_on_c, 14, 45, 0
1, 176612, Note_on_c, 11, 57, 0
1, 176618, Note_on_c, 6, 73, 0
1, 176619, Note_on_c, 1, 33, 0
1, 176619, Note_on_c, 7, 57, 0
1, 176620, Note_on_c, 8, 33, 0
1, 176621, Note_on_c, 6, 69, 0
1, 176621, Note_on_c, 7, 69, 0
1, 176621, Note_on_c, 8, 45, 0
1, 176622, Note_on_c, 6, 81, 0
1, 176622, Note_on_c, 8, 52, 0
1, 176623, Note_on_c, 7, 61, 0
1, 176629, Note_on_c, 13, 57, 0
1, 176629, Note_on_c, 13, 69, 0
1, 176629, Note_on_c, 15, 52, 0
1, 176629, Note_on_c, 11, 62, 61
1, 176630, Note_on_c, 11, 69, 60
1, 176631, Note_on_c, 13, 64, 0
1, 176631, Note_on_c, 15, 45, 0
1, 176631, Note_on_c, 14, 50, 99
1, 176631, Note_on_c, 14, 57, 98
1, 176632, Note_on_c, 11, 57, 60
1, 176639, Note_on_c, 6, 65, 67
1, 176640, Note_on_c, 1, 26, 115
1, 176640, Note_on_c, 8, 38, 60
1, 176640, Note_on_c, 8, 57, 60
1, 176640, Note_on_c, 9, 36, 126
1, 176640, Note_on_c, 9, 49, 70
1, 176643, Note_on_c, 8, 50, 61
1, 176643, Note_on_c, 8, 62, 60
1, 176649, Note_on_c, 13, 57, 61
1, 176650, Note_on_c, 13, 69, 61
1, 176651, Note_on_c, 13, 62, 60
1, 176652, Note_on_c, 15, 45, 99
1, 176652, Note_on_c, 15, 52, 98
1, 176660, Note_on_c, 9, 36, 0
1, 176660, Note_on_c, 9, 49, 0
1, 177449, Control_c, 14, 11, 124
1, 177454, Control_c, 13, 11, 124
1, 177459, Control_c, 11, 11, 124
1, 177464, Control_c, 15, 11, 124
1, 177474, Control_c, 14, 11, 123
1, 177479, Control_c, 13, 11, 123
1, 177484, Control_c, 11, 11, 123
1, 177489, Control_c, 15, 11, 123
1, 177515, Control_c, 14, 11, 121
1, 177520, Control_c, 13, 11, 121
1, 177525, Control_c, 11, 11, 121
1, 177530, Control_c, 15, 11, 121
1, 177552, Control_c, 14, 11, 118
1, 177557, Control_c, 13, 11, 118
1, 177562, Control_c, 11, 11, 118
1, 177567, Control_c, 15, 11, 118
1, 177580, Note_on_c, 3, 84, 0
1, 177580, Control_c, 14, 11, 116
1, 177585, Control_c, 13, 11, 116
1, 177590, Control_c, 11, 11, 116
1, 177595, Control_c, 15, 11, 116
1, 177632, Control_c, 14, 11, 117
1, 177637, Control_c, 13, 11, 117
1, 177642, Control_c, 11, 11, 117
1, 177647, Control_c, 15, 11, 117
1, 177672, Control_c, 14, 11, 115
1, 177677, Control_c, 13, 11, 114
1, 177682, Control_c, 11, 11, 114
1, 177687, Control_c, 15, 11, 115
1, 177711, Control_c, 14, 11, 112
1, 177716, Control_c, 13, 11, 113
1, 177721, Control_c, 11, 11, 113
1, 177726, Control_c, 15, 11, 112
1, 177750, Program_c, 2, 53
1, 177750, Control_c, 14, 11, 110
1, 177755, Control_c, 13, 11, 111
1, 177760, Control_c, 11, 11, 111
1, 177765, Control_c, 15, 11, 110
1, 177803, Control_c, 14, 11, 109
1, 177808, Control_c, 13, 11, 108
1, 177813, Control_c, 11, 11, 108
1, 177818, Control_c, 15, 11, 109
1, 177843, Control_c, 14, 11, 108
1, 177848, Control_c, 13, 11, 109
1, 177853, Control_c, 11, 11, 109
1, 177858, Control_c, 15, 11, 108
1, 177881, Control_c, 14, 11, 107
1, 177886, Control_c, 13, 11, 106
1, 177891, Control_c, 11, 11, 106
1, 177896, Control_c, 15, 11, 107
1, 177921, Control_c, 14, 11, 105
1, 177926, Control_c, 8, 11, 126
1, 177926, Control_c, 13, 11, 104
1, 177931, Control_c, 6, 11, 126
1, 177931, Control_c, 11, 11, 104
1, 177936, Control_c, 15, 11, 105
1, 177961, Control_c, 14, 11, 102
1, 177966, Control_c, 13, 11, 103
1, 177971, Control_c, 11, 11, 103
1, 177976, Control_c, 15, 11, 102
1, 177999, Control_c, 14, 11, 101
1, 178004, Control_c, 13, 11, 101
1, 178009, Control_c, 11, 11, 101
1, 178014, Control_c, 15, 11, 101
1, 178040, Control_c, 14, 11, 100
1, 178045, Control_c, 13, 11, 100
1, 178050, Control_c, 11, 11, 100
1, 178055, Control_c, 15, 11, 100
1, 178057, Control_c, 8, 11, 125
1, 178062, Control_c, 6, 11, 124
1, 178065, Control_c, 14, 11, 98
1, 178070, Control_c, 13, 11, 98
1, 178075, Control_c, 11, 11, 98
1, 178080, Note_on_c, 3, 77, 105
1, 178080, Control_c, 15, 11, 98
1, 178093, Control_c, 14, 11, 97
1, 178098, Control_c, 13, 11, 97
1, 178103, Control_c, 11, 11, 97
1, 178108, Control_c, 15, 11, 97
1, 178117, Control_c, 14, 11, 95
1, 178122, Control_c, 13, 11, 95
1, 178127, Control_c, 11, 11, 95
1, 178132, Control_c, 15, 11, 95
1, 178145, Control_c, 14, 11, 92
1, 178150, Control_c, 13, 11, 92
1, 178155, Control_c, 11, 11, 92
1, 178157, Control_c, 14, 11, 90
1, 178160, Control_c, 15, 11, 92
1, 178162, Control_c, 13, 11, 90
1, 178167, Control_c, 11, 11, 90
1, 178172, Control_c, 15, 11, 90
1, 178175, Control_c, 8, 11, 123
1, 178180, Control_c, 6, 11, 123
1, 178183, Control_c, 14, 11, 91
1, 178188, Control_c, 13, 11, 91
1, 178193, Control_c, 11, 11, 91
1, 178198, Control_c, 15, 11, 91
1, 178224, Control_c, 14, 11, 89
1, 178229, Control_c, 13, 11, 88
1, 178234, Control_c, 11, 11, 88
1, 178239, Control_c, 15, 11, 89
1, 178254, Control_c, 8, 11, 120
1, 178259, Control_c, 6, 11, 121
1, 178276, Control_c, 14, 11, 86
1, 178281, Control_c, 13, 11, 87
1, 178286, Control_c, 11, 11, 87
1, 178291, Control_c, 15, 11, 86
1, 178300, Note_on_c, 3, 77, 0
1, 178310, Control_c, 10, 11, 31
1, 178320, Note_on_c, 3, 74, 105
1, 178320, Note_on_c, 10, 60, 30
1, 178320, Control_c, 8, 11, 120
1, 178321, Note_on_c, 10, 65, 32
1, 178325, Control_c, 6, 11, 120
1, 178327, Control_c, 14, 11, 84
1, 178332, Control_c, 13, 11, 85
1, 178337, Control_c, 11, 11, 85
1, 178342, Control_c, 15, 11, 84
1, 178368, Control_c, 14, 11, 85
1, 178370, System_exclusive, 22, 0, 32, 36, 0, 4, 67, 72, 49, 58, 32, 83, 101, 116, 117, 112, 47, 84, 101, 120, 116, 10, 247
1, 178373, Control_c, 13, 11, 84
1, 178375, System_exclusive, 16, 0, 32, 36, 0, 5, 67, 72, 50, 58, 32, 66, 97, 115, 115, 10, 247
1, 178378, Control_c, 11, 11, 84
1, 178380, System_exclusive, 25, 0, 32, 36, 0, 6, 67, 72, 51, 58, 32, 82, 101, 118, 67, 121, 109, 98, 47, 67, 104, 111, 105, 114, 10, 247
1, 178383, Control_c, 15, 11, 85
1, 178385, System_exclusive, 19, 0, 32, 36, 0, 7, 67, 72, 52, 58, 32, 77, 101, 108, 111, 100, 105, 97, 10, 247
1, 178394, Control_c, 14, 11, 82
1, 178395, System_exclusive, 6, 0, 32, 36, 0, 8, 247
1, 178399, Control_c, 13, 11, 83
1, 178404, Control_c, 11, 11, 83
1, 178409, Control_c, 15, 11, 82
1, 178419, Control_c, 14, 11, 81
1, 178421, Control_c, 10, 11, 34
1, 178424, Control_c, 13, 11, 80
1, 178429, Control_c, 11, 11, 80
1, 178434, Control_c, 10, 11, 40
1, 178434, Control_c, 15, 11, 81
1, 178448, Control_c, 10, 11, 47
1, 178459, Control_c, 14, 11, 79
1, 178461, Control_c, 10, 11, 54
1, 178464, Control_c, 8, 11, 119
1, 178464, Control_c, 13, 11, 78
1, 178469, Control_c, 6, 11, 118
1, 178469, Control_c, 11, 11, 78
1, 178474, Control_c, 10, 11, 65
1, 178474, Control_c, 15, 11, 79
1, 178485, Control_c, 14, 11, 76
1, 178488, Control_c, 10, 11, 75
1, 178490, Control_c, 13, 11, 77
1, 178495, Control_c, 11, 11, 77
1, 178500, Control_c, 10, 11, 84
1, 178500, Control_c, 15, 11, 76
1, 178511, Control_c, 14, 11, 75
1, 178513, Control_c, 10, 11, 97
1, 178516, Control_c, 13, 11, 75
1, 178521, Control_c, 11, 11, 75
1, 178526, Control_c, 10, 11, 106
1, 178526, Control_c, 15, 11, 75
1, 178541, Control_c, 10, 11, 116
1, 178552, Control_c, 10, 11, 127
1, 178552, Control_c, 14, 11, 74
1, 178557, Control_c, 13, 11, 74
1, 178562, Control_c, 11, 11, 74
1, 178567, Control_c, 15, 11, 74
1, 178582, Control_c, 8, 11, 116
1, 178587, Control_c, 6, 11, 117
1, 178623, Control_c, 2, 11, 31
1, 178631, Control_c, 14, 11, 72
1, 178636, Control_c, 13, 11, 72
1, 178641, Control_c, 11, 11, 72
1, 178646, Control_c, 15, 11, 72
1, 178674, Control_c, 2, 11, 30
1, 178698, Control_c, 10, 11, 125
1, 178701, Control_c, 2, 11, 28
1, 178701, Control_c, 8, 11, 115
1, 178706, Control_c, 6, 11, 115
1, 178710, Control_c, 10, 11, 116
1, 178710, Control_c, 14, 11, 71
1, 178714, Control_c, 2, 11, 27
1, 178715, Control_c, 13, 11, 71
1, 178720, Control_c, 11, 11, 71
1, 178723, Control_c, 10, 11, 106
1, 178725, Control_c, 15, 11, 71
1, 178738, Control_c, 10, 11, 97
1, 178749, Control_c, 10, 11, 83
1, 178754, Control_c, 2, 11, 25
1, 178762, Control_c, 14, 11, 69
1, 178764, Control_c, 10, 11, 70
1, 178767, Control_c, 13, 11, 69
1, 178772, Control_c, 11, 11, 69
1, 178776, Control_c, 10, 11, 58
1, 178777, Control_c, 15, 11, 69
1, 178780, Note_on_c, 10, 60, 0
1, 178781, Note_on_c, 10, 65, 0
1, 178789, Control_c, 10, 11, 53
1, 178789, Control_c, 14, 11, 68
1, 178792, Control_c, 2, 11, 24
1, 178794, Control_c, 13, 11, 68
1, 178799, Control_c, 11, 11, 68
1, 178800, Note_on_c, 10, 67, 34
1, 178803, Note_on_c, 10, 62, 41
1, 178804, Control_c, 10, 11, 48
1, 178804, Control_c, 15, 11, 68
1, 178805, Control_c, 8, 11, 115
1, 178810, Control_c, 6, 11, 114
1, 178816, Control_c, 10, 11, 45
1, 178827, Control_c, 14, 11, 66
1, 178829, Control_c, 10, 11, 45
1, 178832, Control_c, 13, 11, 66
1, 178837, Control_c, 11, 11, 66
1, 178842, Control_c, 15, 11, 66
1, 178867, Control_c, 14, 11, 65
1, 178872, Control_c, 13, 11, 65
1, 178877, Control_c, 11, 11, 65
1, 178878, Note_on_c, 2, 50, 57
1, 178882, Control_c, 15, 11, 65
1, 178920, Control_c, 14, 11, 63
1, 178921, Control_c, 10, 11, 48
1, 178925, Control_c, 13, 11, 62
1, 178930, Control_c, 11, 11, 62
1, 178934, Control_c, 10, 11, 55
1, 178935, Control_c, 15, 11, 63
1, 178936, System_exclusive, 6, 0, 32, 36, 0, 8, 247
1, 178937, Control_c, 8, 11, 112
1, 178942, Control_c, 6, 11, 112
1, 178946, Control_c, 10, 11, 62
1, 178958, Control_c, 14, 11, 60
1, 178960, Control_c, 10, 11, 70
1, 178963, Control_c, 13, 11, 61
1, 178968, Control_c, 11, 11, 61
1, 178973, Control_c, 10, 11, 79
1, 178973, Control_c, 15, 11, 60
1, 178985, Control_c, 14, 11, 58
1, 178987, Control_c, 10, 11, 89
1, 178990, Control_c, 13, 11, 59
1, 178995, Control_c, 11, 11, 59
1, 178999, Control_c, 10, 11, 96
1, 179000, Control_c, 15, 11, 58
1, 179012, Control_c, 10, 11, 104
1, 179016, Control_c, 8, 11, 111
1, 179018, Note_on_c, 2, 50, 0
1, 179021, Control_c, 6, 11, 111
1, 179026, Control_c, 10, 11, 115
1, 179038, Control_c, 14, 11, 59
1, 179039, Control_c, 10, 11, 123
1, 179040, Note_on_c, 2, 50, 86
1, 179043, Control_c, 13, 11, 58
1, 179048, Control_c, 11, 11, 58
1, 179052, Control_c, 10, 11, 126
1, 179053, Control_c, 15, 11, 59
1, 179062, Control_c, 14, 11, 56
1, 179067, Control_c, 13, 11, 57
1, 179072, Control_c, 11, 11, 57
1, 179077, Control_c, 15, 11, 56
1, 179090, Control_c, 14, 11, 55
1, 179095, Control_c, 13, 11, 54
1, 179100, Control_c, 11, 11, 54
1, 179105, Control_c, 15, 11, 55
1, 179108, Control_c, 2, 11, 26
1, 179115, Control_c, 14, 11, 53
1, 179120, Control_c, 13, 11, 52
1, 179121, Control_c, 2, 11, 27
1, 179125, Control_c, 11, 11, 52
1, 179130, Control_c, 15, 11, 53
1, 179133, Control_c, 2, 11, 29
1, 179133, Control_c, 8, 11, 108
1, 179138, Control_c, 6, 11, 108
1, 179142, Control_c, 14, 11, 50
1, 179147, Control_c, 13, 11, 51
1, 179152, Control_c, 11, 11, 51
1, 179157, Control_c, 15, 11, 50
1, 179160, Control_c, 2, 11, 31
1, 179169, Control_c, 14, 11, 49
1, 179173, Control_c, 2, 11, 34
1, 179174, Control_c, 13, 11, 49
1, 179179, Control_c, 11, 11, 49
1, 179184, Control_c, 15, 11, 49
1, 179194, Control_c, 14, 11, 48
1, 179198, Control_c, 10, 11, 120
1, 179199, Control_c, 13, 11, 48
1, 179200, Control_c, 2, 11, 37
1, 179204, Control_c, 11, 11, 48
1, 179209, Control_c, 10, 11, 111
1, 179209, Control_c, 15, 11, 48
1, 179223, Control_c, 10, 11, 98
1, 179226, Control_c, 2, 11, 39
1, 179235, Control_c, 14, 11, 46
1, 179237, Control_c, 10, 11, 87
1, 179240, Control_c, 13, 11, 46
1, 179245, Control_c, 11, 11, 46
1, 179250, Control_c, 10, 11, 75
1, 179250, Control_c, 15, 11, 46
1, 179252, Control_c, 2, 11, 40
1, 179253, Control_c, 8, 11, 108
1, 179258, Control_c, 6, 11, 109
1, 179260, Note_on_c, 10, 67, 0
1, 179262, Control_c, 10, 11, 64
1, 179263, Note_on_c, 10, 62, 0
1, 179265, Control_c, 2, 11, 42
1, 179273, Control_c, 14, 11, 45
1, 179274, Control_c, 10, 11, 59
1, 179278, Control_c, 13, 11, 45
1, 179280, Note_on_c, 10, 65, 31
1, 179282, Note_on_c, 10, 60, 31
1, 179283, Control_c, 11, 11, 45
1, 179288, Control_c, 10, 11, 52
1, 179288, Control_c, 15, 11, 45
1, 179291, Control_c, 2, 11, 45
1, 179299, System_exclusive, 6, 0, 32, 36, 0, 8, 247
1, 179300, Control_c, 14, 11, 43
1, 179302, Control_c, 10, 11, 48
1, 179305, Control_c, 13, 11, 43
1, 179310, Control_c, 11, 11, 43
1, 179312, Control_c, 14, 11, 42
1, 179314, Control_c, 10, 11, 47
1, 179315, Control_c, 15, 11, 43
1, 179317, Control_c, 13, 11, 42
1, 179318, Control_c, 2, 11, 46
1, 179322, Control_c, 11, 11, 42
1, 179327, Control_c, 15, 11, 42
1, 179340, Control_c, 10, 11, 45
1, 179343, Control_c, 2, 11, 49
1, 179344, Control_c, 8, 11, 107
1, 179349, Control_c, 6, 11, 107
1, 179379, Control_c, 14, 11, 40
1, 179384, Control_c, 2, 11, 49
1, 179384, Control_c, 13, 11, 40
1, 179389, Control_c, 11, 11, 40
1, 179394, Control_c, 15, 11, 40
1, 179423, Control_c, 2, 11, 50
1, 179433, Control_c, 10, 11, 46
1, 179445, Control_c, 10, 11, 50
1, 179445, Control_c, 14, 11, 39
1, 179450, Control_c, 13, 11, 39
1, 179455, Control_c, 11, 11, 39
1, 179458, Control_c, 10, 11, 57
1, 179460, Control_c, 15, 11, 39
1, 179463, Control_c, 2, 11, 53
1, 179471, Control_c, 10, 11, 67
1, 179485, Control_c, 10, 11, 76
1, 179488, Control_c, 2, 11, 54
1, 179488, Control_c, 8, 11, 105
1, 179493, Control_c, 6, 11, 104
1, 179497, Control_c, 14, 11, 37
1, 179499, Control_c, 10, 11, 86
1, 179500, Note_on_c, 2, 50, 0
1, 179502, Control_c, 13, 11, 36
1, 179507, Control_c, 11, 11, 36
1, 179511, Control_c, 10, 11, 97
1, 179512, Control_c, 15, 11, 37
1, 179522, Control_c, 14, 11, 34
1, 179524, Control_c, 10, 11, 102
1, 179527, Control_c, 13, 11, 35
1, 179529, Control_c, 2, 11, 54
1, 179532, Control_c, 11, 11, 35
1, 179537, Control_c, 10, 11, 109
1, 179537, Control_c, 15, 11, 34
1, 179550, Control_c, 14, 11, 34
1, 179552, Control_c, 10, 11, 115
1, 179555, Control_c, 13, 11, 35
1, 179560, Control_c, 11, 11, 35
1, 179564, Control_c, 10, 11, 122
1, 179565, Control_c, 15, 11, 34
1, 179568, Control_c, 2, 11, 57
1, 179575, Control_c, 14, 11, 31
1, 179577, Control_c, 10, 11, 127
1, 179580, Control_c, 13, 11, 31
1, 179585, Control_c, 11, 11, 31
1, 179590, Control_c, 15, 11, 31
1, 179606, Control_c, 2, 11, 59
1, 179607, Control_c, 8, 11, 102
1, 179612, Control_c, 6, 11, 103
1, 179615, Control_c, 14, 11, 31
1, 179620, Control_c, 13, 11, 31
1, 179625, Control_c, 11, 11, 31
1, 179630, Control_c, 15, 11, 31
1, 179640, Control_c, 14, 11, 29
1, 179645, Control_c, 13, 11, 29
1, 179647, Control_c, 2, 11, 60
1, 179650, Control_c, 11, 11, 29
1, 179654, Control_c, 14, 11, 27
1, 179655, Control_c, 15, 11, 29
1, 179659, Control_c, 13, 11, 27
1, 179663, Control_c, 10, 11, 124
1, 179664, Control_c, 11, 11, 27
1, 179668, Control_c, 14, 11, 26
1, 179669, Control_c, 15, 11, 27
1, 179673, Control_c, 13, 11, 26
1, 179675, Control_c, 10, 11, 114
1, 179678, Control_c, 11, 11, 26
1, 179680, Control_c, 14, 11, 24
1, 179683, Control_c, 15, 11, 26
1, 179685, Control_c, 2, 11, 62
1, 179685, Control_c, 13, 11, 24
1, 179689, Control_c, 10, 11, 105
1, 179690, Control_c, 11, 11, 24
1, 179695, Control_c, 15, 11, 24
1, 179701, Control_c, 10, 11, 93
1, 179706, Control_c, 14, 11, 22
1, 179711, Control_c, 13, 11, 22
1, 179714, Control_c, 10, 11, 78
1, 179716, Control_c, 11, 11, 22
1, 179721, Control_c, 15, 11, 22
1, 179727, Control_c, 10, 11, 68
1, 179734, Control_c, 14, 11, 19
1, 179738, Control_c, 8, 11, 102
1, 179739, Control_c, 2, 11, 63
1, 179739, Control_c, 13, 11, 19
1, 179740, Note_on_c, 10, 65, 0
1, 179741, Control_c, 10, 11, 61
1, 179742, Note_on_c, 10, 60, 0
1, 179743, Control_c, 6, 11, 102
1, 179744, Control_c, 11, 11, 19
1, 179746, Control_c, 14, 11, 17
1, 179749, Control_c, 15, 11, 19
1, 179751, Control_c, 13, 11, 17
1, 179754, Control_c, 10, 11, 55
1, 179756, Control_c, 11, 11, 17
1, 179758, Note_on_c, 10, 62, 49
1, 179759, Control_c, 14, 11, 16
1, 179761, Control_c, 15, 11, 17
1, 179762, Note_on_c, 10, 67, 31
1, 179764, Control_c, 13, 11, 16
1, 179766, Control_c, 10, 11, 48
1, 179769, Control_c, 11, 11, 16
1, 179772, Control_c, 14, 11, 14
1, 179774, Control_c, 15, 11, 16
1, 179777, Control_c, 13, 11, 14
1, 179779, Control_c, 10, 11, 46
1, 179782, Control_c, 11, 11, 14
1, 179787, Control_c, 14, 11, 12
1, 179787, Control_c, 15, 11, 14
1, 179792, Control_c, 10, 11, 45
1, 179792, Control_c, 13, 11, 12
1, 179797, Control_c, 11, 11, 12
1, 179802, Control_c, 15, 11, 12
1, 179838, Control_c, 14, 11, 11
1, 179843, Control_c, 13, 11, 11
1, 179844, Control_c, 2, 11, 65
1, 179848, Control_c, 11, 11, 11
1, 179853, Control_c, 15, 11, 11
1, 179869, Control_c, 2, 11, 66
1, 179891, Control_c, 14, 11, 9
1, 179895, Control_c, 8, 11, 101
1, 179896, Control_c, 13, 11, 9
1, 179900, Control_c, 6, 11, 100
1, 179901, Control_c, 11, 11, 9
1, 179906, Control_c, 15, 11, 9
1, 179916, Control_c, 10, 11, 46
1, 179923, Control_c, 2, 11, 68
1, 179928, Control_c, 10, 11, 53
1, 179941, Control_c, 10, 11, 61
1, 179944, Control_c, 14, 11, 7
1, 179949, Control_c, 2, 11, 71
1, 179949, Control_c, 13, 11, 7
1, 179954, Control_c, 10, 11, 70
1, 179954, Control_c, 11, 11, 7
1, 179959, Control_c, 15, 11, 7
1, 179968, Control_c, 10, 11, 79
1, 179969, Control_c, 14, 11, 4
1, 179974, Control_c, 13, 11, 4
1, 179979, Control_c, 11, 11, 4
1, 179981, Control_c, 10, 11, 88
1, 179984, Control_c, 14, 11, 3
1, 179984, Control_c, 15, 11, 4
1, 179989, Control_c, 13, 11, 3
1, 179993, Control_c, 10, 11, 96
1, 179994, Control_c, 11, 11, 3
1, 179999, Control_c, 15, 11, 3
1, 180001, Control_c, 2, 11, 70
1, 180006, Control_c, 10, 11, 105
1, 180009, Control_c, 14, 11, 1
1, 180014, Control_c, 8, 11, 99
1, 180014, Control_c, 13, 11, 1
1, 180019, Control_c, 6, 11, 99
1, 180019, Control_c, 10, 11, 113
1, 180019, Control_c, 11, 11, 1
1, 180024, Control_c, 15, 11, 1
1, 180034, Control_c, 10, 11, 120
1, 180046, Control_c, 10, 11, 126
1, 180054, Control_c, 2, 11, 73
1, 180065, Control_c, 8, 11, 96
1, 180070, Control_c, 6, 11, 97
1, 180080, Control_c, 2, 11, 75
1, 180131, Control_c, 2, 11, 76
1, 180143, Control_c, 10, 11, 121
1, 180155, Control_c, 10, 11, 111
1, 180156, System_exclusive, 6, 0, 32, 36, 0, 8, 247
1, 180168, Control_c, 10, 11, 100
1, 180172, Control_c, 8, 11, 96
1, 180177, Control_c, 6, 11, 96
1, 180181, Control_c, 10, 11, 90
1, 180194, Control_c, 10, 11, 83
1, 180198, Control_c, 2, 11, 79
1, 180209, Control_c, 10, 11, 72
1, 180218, Note_on_c, 10, 62, 0
1, 180220, Control_c, 10, 11, 67
1, 180222, Note_on_c, 10, 67, 0
1, 180238, Note_on_c, 10, 65, 50
1, 180243, Note_on_c, 10, 60, 44
1, 180248, Control_c, 10, 11, 49
1, 180249, Control_c, 2, 11, 78
1, 180262, Control_c, 10, 11, 44
1, 180274, Control_c, 10, 11, 41
1, 180276, Control_c, 8, 11, 95
1, 180281, Control_c, 6, 11, 94
1, 180289, Control_c, 10, 11, 34
1, 180317, Control_c, 2, 11, 80
1, 180341, Control_c, 10, 11, 34
1, 180354, Control_c, 10, 11, 41
1, 180368, Control_c, 10, 11, 47
1, 180381, Control_c, 10, 11, 54
1, 180382, Control_c, 8, 11, 92
1, 180387, Control_c, 6, 11, 93
1, 180394, Control_c, 10, 11, 64
1, 180408, Control_c, 2, 11, 83
1, 180408, Control_c, 10, 11, 75
1, 180420, Control_c, 10, 11, 85
1, 180433, Control_c, 10, 11, 96
1, 180446, Control_c, 10, 11, 106
1, 180449, Note_on_c, 11, 62, 0
1, 180450, Note_on_c, 11, 69, 0
1, 180451, Note_on_c, 14, 50, 0
1, 180451, Note_on_c, 14, 57, 0
1, 180452, Note_on_c, 11, 57, 0
1, 180460, Note_on_c, 3, 74, 0
1, 180461, Control_c, 10, 11, 117
1, 180469, Note_on_c, 13, 57, 0
1, 180470, Note_on_c, 13, 69, 0
1, 180471, Note_on_c, 13, 62, 0
1, 180472, Note_on_c, 15, 45, 0
1, 180472, Note_on_c, 15, 52, 0
1, 180472, Control_c, 10, 11, 126
1, 180475, Control_c, 2, 11, 85
1, 180486, Control_c, 8, 11, 91
1, 180491, Control_c, 6, 11, 91
1, 180527, Control_c, 2, 11, 84
1, 180605, Control_c, 8, 11, 91
1, 180610, Control_c, 6, 11, 90
1, 180618, Control_c, 10, 11, 125
1, 180630, Control_c, 10, 11, 117
1, 180643, Control_c, 10, 11, 106
1, 180645, Control_c, 2, 11, 86
1, 180658, Control_c, 10, 11, 97
1, 180669, Control_c, 10, 11, 82
1, 180680, Program_c, 7, 49
1, 180680, Control_c, 7, 91, 127
1, 180684, Control_c, 10, 11, 70
1, 180696, Control_c, 2, 11, 89
1, 180696, Control_c, 10, 11, 59
1, 180698, Note_on_c, 10, 65, 0
1, 180703, Note_on_c, 10, 60, 0
1, 180709, Control_c, 10, 11, 53
1, 180720, Note_on_c, 10, 62, 59
1, 180721, Note_on_c, 10, 67, 49
1, 180724, Control_c, 10, 11, 48
1, 180736, Control_c, 10, 11, 44
1, 180749, Control_c, 2, 11, 91
1, 180749, Control_c, 10, 11, 45
1, 180775, Control_c, 8, 11, 88
1, 180780, Control_c, 6, 11, 88
1, 180801, Note_on_c, 2, 50, 57
1, 180841, Control_c, 10, 11, 49
1, 180854, Control_c, 10, 11, 54
1, 180855, Control_c, 2, 11, 90
1, 180866, Control_c, 10, 11, 62
1, 180880, Control_c, 10, 11, 71
1, 180893, Control_c, 10, 11, 78
1, 180907, Control_c, 10, 11, 89
1, 180919, Control_c, 10, 11, 97
1, 180932, Control_c, 10, 11, 104
1, 180941, Note_on_c, 2, 50, 0
1, 180946, Control_c, 10, 11, 115
1, 180959, Note_on_c, 2, 50, 86
1, 180959, Control_c, 10, 11, 122
1, 180960, Control_c, 2, 11, 92
1, 180972, Control_c, 10, 11, 126
1, 181001, System_exclusive, 20, 0, 32, 36, 0, 4, 67, 72, 53, 58, 32, 86, 111, 99, 97, 108, 105, 115, 116, 10, 247
1, 181006, System_exclusive, 22, 0, 32, 36, 0, 5, 67, 72, 54, 58, 32, 83, 112, 97, 110, 105, 115, 104, 71, 116, 114, 10, 247
1, 181011, System_exclusive, 20, 0, 32, 36, 0, 6, 67, 72, 55, 58, 32, 83, 116, 114, 105, 110, 103, 115, 49, 10, 247
1, 181012, Control_c, 8, 11, 87
1, 181016, System_exclusive, 20, 0, 32, 36, 0, 7, 67, 72, 56, 58, 32, 83, 116, 114, 105, 110, 103, 115, 50, 10, 247
1, 181017, Control_c, 6, 11, 87
1, 181026, System_exclusive, 6, 0, 32, 36, 0, 8, 247
1, 181078, Control_c, 2, 11, 95
1, 181118, Control_c, 10, 11, 121
1, 181129, Control_c, 10, 11, 111
1, 181143, Control_c, 10, 11, 98
1, 181157, Control_c, 10, 11, 86
1, 181170, Control_c, 10, 11, 75
1, 181180, Note_on_c, 10, 62, 0
1, 181181, Note_on_c, 10, 67, 0
1, 181182, Control_c, 10, 11, 65
1, 181194, Control_c, 10, 11, 58
1, 181199, Note_on_c, 10, 60, 42
1, 181203, Note_on_c, 10, 65, 44
1, 181208, Control_c, 10, 11, 52
1, 181209, Control_c, 2, 11, 96
1, 181221, Control_c, 8, 11, 84
1, 181222, Control_c, 10, 11, 49
1, 181226, Control_c, 6, 11, 84
1, 181234, Control_c, 10, 11, 46
1, 181260, Control_c, 10, 11, 45
1, 181272, System_exclusive, 6, 0, 32, 36, 0, 8, 247
1, 181315, Control_c, 2, 11, 97
1, 181353, Control_c, 10, 11, 47
1, 181365, Control_c, 10, 11, 50
1, 181378, Control_c, 10, 11, 57
1, 181391, Control_c, 10, 11, 66
1, 181393, Control_c, 2, 11, 99
1, 181405, Control_c, 10, 11, 76
1, 181419, Note_on_c, 2, 50, 0
1, 181419, Control_c, 10, 11, 87
1, 181431, Control_c, 10, 11, 97
1, 181444, Control_c, 10, 11, 102
1, 181449, System_exclusive, 6, 0, 32, 36, 0, 8, 247
1, 181457, Control_c, 10, 11, 108
1, 181472, Control_c, 10, 11, 115
1, 181484, Control_c, 10, 11, 123
1, 181497, Control_c, 8, 11, 84
1, 181497, Control_c, 10, 11, 126
1, 181502, Control_c, 6, 11, 85
1, 181583, Control_c, 10, 11, 124
1, 181595, Control_c, 10, 11, 115
1, 181609, Control_c, 10, 11, 104
1, 181621, Control_c, 10, 11, 93
1, 181634, Control_c, 10, 11, 79
1, 181647, Control_c, 10, 11, 68
1, 181655, Control_c, 8, 11, 83
1, 181659, Note_on_c, 10, 60, 0
1, 181660, Control_c, 6, 11, 83
1, 181661, Control_c, 10, 11, 61
1, 181663, Note_on_c, 10, 65, 0
1, 181674, Control_c, 10, 11, 54
1, 181679, Note_on_c, 10, 62, 67
1, 181681, Note_on_c, 10, 67, 42
1, 181686, Control_c, 10, 11, 48
1, 181699, Control_c, 10, 11, 47
1, 181712, Control_c, 10, 11, 45
1, 181722, Control_c, 2, 11, 100
1, 181774, System_exclusive, 6, 0, 32, 36, 0, 8, 247
1, 181836, Control_c, 10, 11, 46
1, 181848, Control_c, 10, 11, 52
1, 181861, Control_c, 10, 11, 61
1, 181874, Control_c, 10, 11, 71
1, 181888, Control_c, 10, 11, 78
1, 181901, Control_c, 10, 11, 88
1, 181913, Control_c, 10, 11, 97
1, 181918, Control_c, 8, 11, 81
1, 181923, Control_c, 6, 11, 80
1, 181926, Control_c, 10, 11, 104
1, 181939, Control_c, 10, 11, 113
1, 181954, Control_c, 10, 11, 121
1, 181959, Control_c, 2, 11, 103
1, 181966, Control_c, 10, 11, 126
1, 182063, Control_c, 10, 11, 121
1, 182075, Control_c, 10, 11, 110
1, 182088, Control_c, 10, 11, 100
1, 182101, Control_c, 10, 11, 91
1, 182102, Control_c, 2, 11, 102
1, 182114, Control_c, 10, 11, 83
1, 182122, Control_c, 7, 11, 74
1, 182129, Control_c, 10, 11, 72
1, 182139, Note_on_c, 10, 62, 0
1, 182140, Control_c, 10, 11, 66
1, 182141, Note_on_c, 10, 67, 0
1, 182161, Control_c, 7, 11, 72
1, 182162, Note_on_c, 10, 65, 67
1, 182163, Note_on_c, 10, 60, 59
1, 182167, Control_c, 8, 11, 78
1, 182168, Control_c, 10, 11, 49
1, 182172, Control_c, 6, 11, 79
1, 182181, Control_c, 2, 11, 104
1, 182182, Control_c, 10, 11, 45
1, 182186, Control_c, 7, 11, 73
1, 182194, Control_c, 10, 11, 40
1, 182209, Control_c, 10, 11, 34
1, 182213, Control_c, 7, 11, 71
1, 182251, Control_c, 7, 11, 68
1, 182261, Control_c, 10, 11, 35
1, 182274, Control_c, 10, 11, 40
1, 182286, Control_c, 2, 11, 107
1, 182288, Control_c, 10, 11, 47
1, 182292, Control_c, 7, 11, 66
1, 182301, Control_c, 10, 11, 55
1, 182314, Control_c, 10, 11, 64
1, 182328, Control_c, 10, 11, 75
1, 182340, Control_c, 10, 11, 84
1, 182353, Control_c, 10, 11, 96
1, 182358, Control_c, 7, 11, 65
1, 182366, Control_c, 10, 11, 107
1, 182381, Control_c, 10, 11, 117
1, 182391, Control_c, 2, 11, 109
1, 182392, Control_c, 10, 11, 126
1, 182402, System_exclusive, 20, 0, 32, 36, 0, 4, 67, 72, 57, 58, 32, 83, 116, 114, 105, 110, 103, 115, 51, 10, 247
1, 182407, System_exclusive, 17, 0, 32, 36, 0, 5, 67, 72, 49, 48, 58, 32, 68, 114, 117, 109, 10, 247
1, 182412, System_exclusive, 18, 0, 32, 36, 0, 6, 67, 72, 49, 49, 58, 32, 83, 121, 110, 116, 104, 10, 247
1, 182417, System_exclusive, 22, 0, 32, 36, 0, 7, 67, 72, 49, 50, 58, 32, 69, 108, 101, 99, 116, 71, 116, 114, 49, 10, 247
1, 182427, System_exclusive, 6, 0, 32, 36, 0, 8, 247
1, 182534, Control_c, 8, 11, 78
1, 182538, Control_c, 10, 11, 124
1, 182539, Control_c, 6, 11, 78
1, 182549, Control_c, 2, 11, 108
1, 182550, Control_c, 10, 11, 117
1, 182563, Control_c, 10, 11, 107
1, 182568, Control_c, 7, 11, 66
1, 182578, Control_c, 10, 11, 96
1, 182589, Control_c, 10, 11, 82
1, 182595, Control_c, 7, 11, 69
1, 182604, Control_c, 10, 11, 71
1, 182607, Control_c, 7, 11, 71
1, 182616, Control_c, 10, 11, 58
1, 182619, Control_c, 7, 11, 70
1, 182622, Note_on_c, 10, 65, 0
1, 182623, Note_on_c, 10, 60, 0
1, 182629, Control_c, 10, 11, 53
1, 182632, Control_c, 7, 11, 73
1, 182635, System_exclusive, 6, 0, 32, 36, 0, 8, 247
1, 182640, Note_on_c, 10, 67, 62
1, 182641, Note_on_c, 10, 62, 77
1, 182644, Control_c, 10, 11, 49
1, 182647, Control_c, 7, 11, 74
1, 182656, Control_c, 10, 11, 44
1, 182659, Control_c, 7, 11, 76
1, 182666, Control_c, 2, 11, 110
1, 182669, Control_c, 10, 11, 45
1, 182685, Control_c, 7, 11, 79
1, 182698, Control_c, 7, 11, 81
1, 182713, Control_c, 7, 11, 80
1, 182719, Note_on_c, 7, 60, 67
1, 182720, Note_on_c, 2, 50, 56
1, 182721, Note_on_c, 7, 53, 67
1, 182738, Control_c, 7, 11, 82
1, 182758, Control_c, 8, 11, 77
1, 182761, Control_c, 10, 11, 48
1, 182763, Control_c, 6, 11, 76
1, 182763, Control_c, 7, 11, 85
1, 182774, Control_c, 10, 11, 54
1, 182779, System_exclusive, 6, 0, 32, 36, 0, 8, 247
1, 182786, Control_c, 10, 11, 63
1, 182791, Control_c, 7, 11, 89
1, 182798, Control_c, 2, 11, 113
1, 182800, Control_c, 10, 11, 71
1, 182813, Control_c, 10, 11, 78
1, 182816, Control_c, 7, 11, 90
1, 182827, Control_c, 10, 11, 88
1, 182839, Control_c, 10, 11, 97
1, 182844, Control_c, 7, 11, 92
1, 182852, Control_c, 10, 11, 105
1, 182855, Control_c, 7, 11, 95
1, 182860, Note_on_c, 2, 50, 0
1, 182861, Note_on_c, 7, 53, 0
1, 182866, Control_c, 10, 11, 114
1, 182869, Control_c, 7, 11, 96
1, 182879, Note_on_c, 7, 52, 66
1, 182879, Control_c, 10, 11, 122
1, 182882, Note_on_c, 2, 50, 87
1, 182882, Control_c, 7, 11, 97
1, 182892, Control_c, 10, 11, 127
1, 182910, Control_c, 7, 11, 99
1, 182935, Control_c, 7, 11, 100
1, 182968, Control_c, 8, 11, 75
1, 182973, Control_c, 6, 11, 75
1, 182975, Control_c, 7, 11, 103
1, 183013, Control_c, 7, 11, 104
1, 183038, Control_c, 10, 11, 120
1, 183049, Control_c, 2, 11, 115
1, 183049, Control_c, 10, 11, 111
1, 183054, Control_c, 7, 11, 106
1, 183063, Control_c, 10, 11, 99
1, 183077, Control_c, 10, 11, 86
1, 183090, Control_c, 10, 11, 75
1, 183093, Control_c, 7, 11, 109
1, 183095, System_exclusive, 6, 0, 32, 36, 0, 8, 247
1, 183099, Control_c, 8, 11, 72
1, 183100, Note_on_c, 10, 67, 0
1, 183101, Note_on_c, 10, 62, 0
1, 183102, Control_c, 10, 11, 64
1, 183104, Control_c, 6, 11, 73
1, 183114, Control_c, 10, 11, 58
1, 183118, Note_on_c, 10, 65, 56
1, 183118, Control_c, 7, 11, 111
1, 183120, Note_on_c, 10, 60, 54
1, 183128, Control_c, 10, 11, 53
1, 183142, Control_c, 10, 11, 49
1, 183145, Control_c, 7, 11, 110
1, 183154, Control_c, 10, 11, 46
1, 183180, Control_c, 10, 11, 44
1, 183185, Control_c, 7, 11, 112
1, 183224, Control_c, 7, 11, 115
1, 183244, Control_c, 8, 11, 72
1, 183249, Control_c, 6, 11, 72
1, 183271, Control_c, 2, 11, 114
1, 183273, Control_c, 10, 11, 47
1, 183277, Control_c, 7, 11, 117
1, 183285, Control_c, 10, 11, 51
1, 183298, Control_c, 10, 11, 56
1, 183311, Control_c, 10, 11, 66
1, 183325, Control_c, 10, 11, 77
1, 183339, Note_on_c, 7, 60, 0
1, 183339, Control_c, 10, 11, 86
1, 183342, Note_on_c, 2, 50, 0
1, 183351, Control_c, 10, 11, 97
1, 183356, Control_c, 7, 11, 118
1, 183361, Note_on_c, 7, 57, 67
1, 183364, Control_c, 10, 11, 103
1, 183377, Control_c, 10, 11, 108
1, 183392, Control_c, 10, 11, 115
1, 183401, Control_c, 8, 11, 71
1, 183404, Control_c, 10, 11, 122
1, 183406, Control_c, 6, 11, 70
1, 183417, Control_c, 10, 11, 126
1, 183494, Control_c, 2, 11, 116
1, 183503, Control_c, 10, 11, 125
1, 183515, Control_c, 10, 11, 115
1, 183529, Control_c, 10, 11, 104
1, 183532, Control_c, 8, 11, 68
1, 183537, Control_c, 6, 11, 69
1, 183541, Control_c, 10, 11, 92
1, 183554, Control_c, 10, 11, 79
1, 183567, Control_c, 10, 11, 69
1, 183578, Note_on_c, 10, 65, 0
1, 183580, Note_on_c, 10, 60, 0
1, 183581, Control_c, 10, 11, 60
1, 183594, Control_c, 10, 11, 54
1, 183599, Note_on_c, 10, 62, 79
1, 183602, Note_on_c, 10, 67, 51
1, 183606, Control_c, 10, 11, 49
1, 183613, Control_c, 2, 11, 119
1, 183619, Control_c, 10, 11, 46
1, 183632, Control_c, 10, 11, 45
1, 183677, Control_c, 8, 11, 67
1, 183682, Control_c, 6, 11, 67
1, 183684, Control_c, 7, 11, 118
1, 183691, Control_c, 2, 11, 120
1, 183756, Control_c, 10, 11, 47
1, 183757, Control_c, 2, 11, 121
1, 183768, Control_c, 10, 11, 52
1, 183781, Control_c, 10, 11, 61
1, 183794, Control_c, 10, 11, 70
1, 183808, Control_c, 10, 11, 78
1, 183819, Note_on_c, 7, 52, 0
1, 183821, Control_c, 10, 11, 89
1, 183833, Control_c, 10, 11, 97
1, 183834, System_exclusive, 29, 0, 32, 36, 0, 4, 67, 72, 49, 51, 58, 32, 69, 108, 101, 99, 116, 71, 116, 114, 49, 79, 118, 101, 114, 68, 114, 118, 10, 247
1, 183839, Note_on_c, 7, 50, 66
1, 183839, System_exclusive, 22, 0, 32, 36, 0, 5, 67, 72, 49, 52, 58, 32, 69, 108, 101, 99, 116, 71, 116, 114, 50, 10, 247
1, 183844, System_exclusive, 20, 0, 32, 36, 0, 6, 67, 72, 49, 53, 58, 32, 68, 105, 115, 71, 116, 114, 49, 10, 247
1, 183846, Control_c, 10, 11, 104
1, 183849, System_exclusive, 20, 0, 32, 36, 0, 7, 67, 72, 49, 54, 58, 32, 68, 105, 115, 71, 116, 114, 50, 10, 247
1, 183859, Control_c, 10, 11, 112
1, 183859, System_exclusive, 6, 0, 32, 36, 0, 8, 247
1, 183874, Control_c, 8, 11, 67
1, 183874, Control_c, 10, 11, 121
1, 183879, Control_c, 6, 11, 66
1, 183886, Control_c, 10, 11, 127
1, 183901, Control_c, 2, 11, 123
1, 183921, Control_c, 7, 11, 121
1, 183983, Control_c, 10, 11, 120
1, 183993, Control_c, 2, 11, 124
1, 183995, Control_c, 10, 11, 110
1, 184008, Control_c, 10, 11, 101
1, 184021, Control_c, 10, 11, 90
1, 184034, Control_c, 10, 11, 83
1, 184039, Control_c, 7, 11, 122
1, 184049, Control_c, 10, 11, 73
1, 184058, Control_c, 8, 11, 64
1, 184059, Note_on_c, 10, 62, 0
1, 184060, Control_c, 10, 11, 66
1, 184062, Note_on_c, 10, 67, 0
1, 184063, Control_c, 6, 11, 64
1, 184072, Control_c, 2, 11, 127
1, 184079, Note_on_c, 10, 65, 68
1, 184083, Note_on_c, 10, 60, 60
1, 184088, Control_c, 10, 11, 49
1, 184094, System_exclusive, 6, 0, 32, 36, 0, 8, 247
1, 184102, Control_c, 10, 11, 44
1, 184105, Control_c, 7, 11, 125
1, 184114, Control_c, 10, 11, 40
1, 184129, Control_c, 10, 11, 35
1, 184141, Note_on_c, 7, 57, 0
1, 184160, Note_on_c, 7, 55, 66
1, 184181, Control_c, 10, 11, 35
1, 184183, Control_c, 7, 11, 125
1, 184194, Control_c, 10, 11, 40
1, 184208, Control_c, 10, 11, 46
1, 184221, Control_c, 10, 11, 55
1, 184230, System_exclusive, 6, 0, 32, 36, 0, 8, 247
1, 184234, Control_c, 10, 11, 65
1, 184248, Control_c, 10, 11, 74
1, 184249, Control_c, 7, 11, 126
1, 184260, Control_c, 10, 11, 84
1, 184273, Control_c, 10, 11, 97
1, 184286, Control_c, 10, 11, 106
1, 184300, Note_on_c, 7, 55, 0
1, 184301, Control_c, 10, 11, 117
1, 184307, Control_c, 8, 11, 63
1, 184312, Control_c, 6, 11, 63
1, 184312, Control_c, 10, 11, 127
1, 184323, Note_on_c, 7, 57, 67
1, 184458, Control_c, 10, 11, 124
1, 184470, Control_c, 10, 11, 117
1, 184483, Control_c, 10, 11, 106
1, 184498, Control_c, 10, 11, 96
1, 184509, Control_c, 10, 11, 83
1, 184524, Control_c, 10, 11, 71
1, 184536, Control_c, 10, 11, 58
1, 184539, Note_on_c, 10, 65, 0
1, 184543, Note_on_c, 10, 60, 0
1, 184547, System_exclusive, 6, 0, 32, 36, 0, 8, 247
1, 184549, Control_c, 10, 11, 52
1, 184561, Note_on_c, 10, 62, 69
1, 184562, Note_on_c, 10, 67, 57
1, 184564, Control_c, 10, 11, 49
1, 184570, Control_c, 8, 11, 60
1, 184575, Control_c, 6, 11, 60
1, 184576, Control_c, 10, 11, 45
1, 184589, Control_c, 10, 11, 44
1, 184641, Note_on_c, 2, 50, 57
1, 184681, Control_c, 10, 11, 48
1, 184694, Control_c, 10, 11, 55
1, 184706, Control_c, 10, 11, 62
1, 184720, Control_c, 10, 11, 71
1, 184728, Control_c, 8, 11, 60
1, 184733, Control_c, 6, 11, 61
1, 184733, Control_c, 10, 11, 79
1, 184747, Control_c, 10, 11, 88
1, 184759, Control_c, 10, 11, 97
1, 184772, Control_c, 10, 11, 104
1, 184781, Note_on_c, 2, 50, 0
1, 184786, Control_c, 10, 11, 114
1, 184799, Control_c, 10, 11, 123
1, 184801, Note_on_c, 2, 50, 86
1, 184812, Control_c, 10, 11, 127
1, 184938, Control_c, 8, 11, 59
1, 184943, Control_c, 6, 11, 59
1, 184958, Control_c, 10, 11, 120
1, 184969, Control_c, 10, 11, 110
1, 184983, Control_c, 10, 11, 99
1, 184997, Control_c, 10, 11, 87
1, 185010, Control_c, 10, 11, 74
1, 185021, Note_on_c, 10, 62, 0
1, 185022, Note_on_c, 10, 67, 0
1, 185022, Control_c, 10, 11, 64
1, 185034, Control_c, 10, 11, 59
1, 185038, Note_on_c, 10, 65, 44
1, 185042, Note_on_c, 10, 60, 42
1, 185048, Control_c, 10, 11, 52
1, 185062, Control_c, 10, 11, 49
1, 185074, Control_c, 10, 11, 47
1, 185100, Control_c, 10, 11, 44
1, 185102, Control_c, 7, 11, 125
1, 185103, Note_on_c, 7, 57, 0
1, 185109, Control_c, 8, 11, 57
1, 185114, Control_c, 6, 11, 56
1, 185121, Note_on_c, 7, 55, 67
1, 185128, Control_c, 7, 11, 124
1, 185153, Control_c, 7, 11, 122
1, 185181, Control_c, 7, 11, 121
1, 185193, Control_c, 10, 11, 47
1, 185205, Control_c, 10, 11, 50
1, 185206, Control_c, 7, 11, 119
1, 185214, Control_c, 2, 11, 124
1, 185218, Control_c, 10, 11, 56
1, 185226, Control_c, 8, 11, 54
1, 185231, Control_c, 6, 11, 55
1, 185231, Control_c, 10, 11, 67
1, 185245, Control_c, 10, 11, 77
1, 185246, Control_c, 7, 11, 118
1, 185259, Control_c, 10, 11, 86
1, 185261, Note_on_c, 2, 50, 0
1, 185261, Note_on_c, 7, 55, 0
1, 185271, Control_c, 10, 11, 96
1, 185279, Note_on_c, 7, 53, 66
1, 185284, Control_c, 7, 11, 116
1, 185284, Control_c, 10, 11, 103
1, 185293, Control_c, 2, 11, 122
1, 185297, Control_c, 10, 11, 109
1, 185312, Control_c, 10, 11, 114
1, 185319, Control_c, 8, 11, 54
1, 185324, Control_c, 6, 11, 54
1, 185324, Control_c, 10, 11, 122
1, 185337, Control_c, 10, 11, 127
1, 185339, Control_c, 7, 11, 115
1, 185359, Control_c, 2, 11, 123
1, 185423, Control_c, 10, 11, 124
1, 185435, Control_c, 10, 11, 115
1, 185438, Control_c, 2, 11, 121
1, 185444, Control_c, 7, 11, 113
1, 185449, Control_c, 10, 11, 105
1, 185461, Control_c, 10, 11, 92
1, 185474, Control_c, 10, 11, 79
1, 185476, Control_c, 8, 11, 53
1, 185481, Control_c, 6, 11, 52
1, 185487, Control_c, 10, 11, 68
1, 185498, Note_on_c, 10, 65, 0
1, 185501, Control_c, 10, 11, 60
1, 185502, Note_on_c, 10, 60, 0
1, 185514, Control_c, 10, 11, 55
1, 185516, Control_c, 2, 11, 118
1, 185521, Note_on_c, 10, 67, 35
1, 185522, Note_on_c, 10, 62, 54
1, 185526, Control_c, 10, 11, 49
1, 185539, Control_c, 10, 11, 46
1, 185552, Control_c, 10, 11, 44
1, 185562, Control_c, 7, 11, 112
1, 185581, Control_c, 8, 11, 51
1, 185586, Control_c, 6, 11, 51
1, 185595, Control_c, 2, 11, 116
1, 185667, Control_c, 7, 11, 110
1, 185674, Control_c, 2, 11, 117
1, 185676, Control_c, 10, 11, 47
1, 185688, Control_c, 10, 11, 53
1, 185701, Control_c, 10, 11, 60
1, 185714, Control_c, 10, 11, 70
1, 185726, Control_c, 2, 11, 115
1, 185728, Control_c, 10, 11, 79
1, 185738, Control_c, 8, 11, 48
1, 185741, Control_c, 10, 11, 88
1, 185743, Control_c, 6, 11, 49
1, 185746, Control_c, 7, 11, 109
1, 185753, Control_c, 10, 11, 97
1, 185766, Control_c, 2, 11, 112
1, 185766, Control_c, 10, 11, 105
1, 185779, Control_c, 10, 11, 112
1, 185794, Control_c, 10, 11, 121
1, 185797, Control_c, 7, 11, 106
1, 185806, Control_c, 10, 11, 126
1, 185817, Control_c, 2, 11, 110
1, 185837, Control_c, 7, 11, 107
1, 185877, Control_c, 7, 11, 105
1, 185883, Control_c, 2, 11, 111
1, 185896, Control_c, 8, 11, 48
1, 185901, Control_c, 6, 11, 48
1, 185903, Control_c, 10, 11, 120
1, 185915, Control_c, 7, 11, 102
1, 185915, Control_c, 10, 11, 111
1, 185928, Control_c, 10, 11, 101
1, 185941, Control_c, 10, 11, 90
1, 185943, Control_c, 7, 11, 101
1, 185949, Control_c, 2, 11, 108
1, 185954, Control_c, 10, 11, 82
1, 185969, Control_c, 10, 11, 73
1, 185980, Control_c, 10, 11, 67
1, 185981, Note_on_c, 10, 67, 0
1, 185981, Control_c, 7, 11, 100
1, 185982, Note_on_c, 10, 62, 0
1, 185989, Control_c, 2, 11, 107
1, 185999, Note_on_c, 10, 60, 43
1, 186000, Note_on_c, 10, 65, 47
1, 186001, Control_c, 8, 11, 47
1, 186006, Control_c, 6, 11, 46
1, 186008, Control_c, 7, 11, 98
1, 186008, Control_c, 10, 11, 48
1, 186014, Control_c, 2, 11, 105
1, 186022, Control_c, 10, 11, 44
1, 186034, Control_c, 10, 11, 41
1, 186046, Control_c, 7, 11, 97
1, 186049, Control_c, 10, 11, 34
1, 186067, Control_c, 2, 11, 104
1, 186079, Control_c, 8, 11, 44
1, 186084, Control_c, 6, 11, 45
1, 186087, Control_c, 7, 11, 95
1, 186094, Control_c, 2, 11, 103
1, 186101, Control_c, 10, 11, 35
1, 186112, Control_c, 7, 11, 94
1, 186114, Control_c, 10, 11, 41
1, 186119, Control_c, 8, 11, 43
1, 186124, Control_c, 6, 11, 43
1, 186128, Control_c, 10, 11, 46
1, 186140, Control_c, 7, 11, 92
1, 186141, Control_c, 10, 11, 55
1, 186146, Control_c, 2, 11, 100
1, 186154, Control_c, 10, 11, 64
1, 186168, Control_c, 10, 11, 74
1, 186180, Control_c, 10, 11, 85
1, 186185, Control_c, 2, 11, 98
1, 186185, Control_c, 8, 11, 43
1, 186190, Control_c, 6, 11, 42
1, 186193, Control_c, 10, 11, 97
1, 186205, Control_c, 7, 11, 91
1, 186206, Control_c, 10, 11, 106
1, 186212, Control_c, 2, 11, 99
1, 186219, Note_on_c, 6, 65, 0
1, 186220, Note_on_c, 8, 38, 0
1, 186220, Note_on_c, 8, 57, 0
1, 186221, Control_c, 10, 11, 116
1, 186223, Note_on_c, 8, 50, 0
1, 186223, Note_on_c, 8, 62, 0
1, 186232, Control_c, 10, 11, 127
1, 186263, Control_c, 2, 11, 97
1, 186277, Control_c, 8, 11, 40
1, 186282, Control_c, 6, 11, 40
1, 186284, Control_c, 7, 11, 89
1, 186304, Control_c, 2, 11, 94
1, 186329, Control_c, 2, 11, 92
1, 186342, Control_c, 8, 11, 39
1, 186347, Control_c, 6, 11, 39
1, 186362, Control_c, 7, 11, 88
1, 186370, Control_c, 2, 11, 91
1, 186378, Control_c, 10, 11, 125
1, 186390, Control_c, 10, 11, 116
1, 186395, Control_c, 2, 11, 89
1, 186403, Control_c, 10, 11, 106
1, 186408, Control_c, 8, 11, 36
1, 186413, Control_c, 6, 11, 36
1, 186418, Control_c, 10, 11, 97
1, 186423, Control_c, 2, 11, 86
1, 186429, Control_c, 10, 11, 82
1, 186444, Control_c, 10, 11, 71
1, 186446, Control_c, 8, 11, 34
1, 186448, Control_c, 2, 11, 84
1, 186451, Control_c, 6, 11, 35
1, 186455, Control_c, 7, 11, 86
1, 186456, Control_c, 10, 11, 59
1, 186459, Note_on_c, 10, 60, 0
1, 186460, Note_on_c, 10, 65, 0
1, 186469, Control_c, 10, 11, 52
1, 186475, Control_c, 2, 11, 83
1, 186478, Note_on_c, 10, 67, 36
1, 186479, Note_on_c, 10, 62, 45
1, 186484, Control_c, 10, 11, 49
1, 186496, Control_c, 10, 11, 44
1, 186500, Control_c, 2, 11, 80
1, 186500, Control_c, 8, 11, 35
1, 186505, Control_c, 6, 11, 35
1, 186509, Control_c, 10, 11, 44
1, 186539, Control_c, 8, 11, 31
1, 186540, Control_c, 2, 11, 81
1, 186544, Control_c, 6, 11, 31
1, 186560, Control_c, 7, 11, 85
1, 186563, Note_on_c, 2, 50, 56
1, 186578, Control_c, 8, 11, 31
1, 186579, Control_c, 2, 11, 79
1, 186583, Control_c, 6, 11, 31
1, 186601, Control_c, 10, 11, 49
1, 186614, Control_c, 10, 11, 55
1, 186618, Control_c, 8, 11, 29
1, 186619, Control_c, 2, 11, 76
1, 186623, Control_c, 6, 11, 29
1, 186626, Control_c, 10, 11, 62
1, 186638, Control_c, 7, 11, 82
1, 186640, Control_c, 10, 11, 70
1, 186653, Control_c, 10, 11, 79
1, 186658, Control_c, 2, 11, 75
1, 186667, Control_c, 10, 11, 89
1, 186671, Control_c, 8, 11, 28
1, 186676, Control_c, 6, 11, 28
1, 186679, Control_c, 10, 11, 96
1, 186692, Control_c, 10, 11, 104
1, 186703, Note_on_c, 2, 50, 0
1, 186704, Control_c, 7, 11, 83
1, 186706, Control_c, 10, 11, 115
1, 186718, Note_on_c, 2, 50, 87
1, 186719, Control_c, 10, 11, 122
1, 186724, Control_c, 2, 11, 74
1, 186732, Control_c, 10, 11, 127
1, 186737, Control_c, 8, 11, 26
1, 186742, Control_c, 6, 11, 26
1, 186761, Control_c, 8, 11, 24
1, 186766, Control_c, 6, 11, 24
1, 186769, Control_c, 7, 11, 81
1, 186776, Control_c, 2, 11, 72
1, 186802, Control_c, 8, 11, 22
1, 186807, Control_c, 6, 11, 22
1, 186842, Control_c, 2, 11, 71
1, 186849, Control_c, 7, 11, 78
1, 186855, Control_c, 8, 11, 21
1, 186860, Control_c, 6, 11, 21
1, 186878, Control_c, 10, 11, 121
1, 186889, Control_c, 10, 11, 110
1, 186892, Control_c, 8, 11, 19
1, 186893, Control_c, 2, 11, 69
1, 186897, Control_c, 6, 11, 19
1, 186903, Control_c, 10, 11, 99
1, 186914, Control_c, 7, 11, 77
1, 186917, Control_c, 10, 11, 86
1, 186930, Control_c, 10, 11, 74
1, 186933, Control_c, 8, 11, 18
1, 186938, Note_on_c, 10, 67, 0
1, 186938, Control_c, 6, 11, 18
1, 186939, Note_on_c, 10, 62, 0
1, 186942, Control_c, 10, 11, 65
1, 186954, Control_c, 10, 11, 59
1, 186959, Control_c, 8, 11, 16
1, 186960, Note_on_c, 10, 60, 26
1, 186960, Note_on_c, 10, 65, 27
1, 186961, Control_c, 2, 11, 68
1, 186964, Control_c, 6, 11, 16
1, 186968, Control_c, 10, 11, 52
1, 186982, Control_c, 10, 11, 48
1, 186993, Control_c, 7, 11, 76
1, 186994, Control_c, 10, 11, 47
1, 186999, Control_c, 8, 11, 14
1, 187004, Control_c, 6, 11, 14
1, 187020, Control_c, 10, 11, 45
1, 187026, Control_c, 2, 11, 66
1, 187038, Control_c, 8, 11, 12
1, 187043, Control_c, 6, 11, 12
1, 187059, Control_c, 7, 11, 74
1, 187089, Control_c, 8, 11, 11
1, 187094, Control_c, 6, 11, 11
1, 187105, Control_c, 2, 11, 65
1, 187113, Control_c, 10, 11, 46
1, 187125, Control_c, 10, 11, 50
1, 187138, Control_c, 7, 11, 73
1, 187138, Control_c, 10, 11, 57
1, 187151, Control_c, 10, 11, 66
1, 187165, Control_c, 10, 11, 77
1, 187170, Control_c, 8, 11, 9
1, 187175, Control_c, 6, 11, 9
1, 187178, Note_on_c, 2, 50, 0
1, 187179, Control_c, 10, 11, 87
1, 187184, Control_c, 2, 11, 63
1, 187191, Control_c, 10, 11, 96
1, 187204, Control_c, 10, 11, 103
1, 187217, Control_c, 10, 11, 108
1, 187232, Control_c, 10, 11, 114
1, 187243, Control_c, 7, 11, 71
1, 187244, Control_c, 10, 11, 123
1, 187257, Control_c, 10, 11, 127
1, 187274, Control_c, 8, 11, 8
1, 187276, Control_c, 2, 11, 62
1, 187279, Control_c, 6, 11, 8
1, 187343, Control_c, 10, 11, 124
1, 187354, Control_c, 2, 11, 60
1, 187355, Control_c, 10, 11, 114
1, 187369, Control_c, 10, 11, 105
1, 187374, Control_c, 7, 11, 70
1, 187381, Control_c, 10, 11, 93
1, 187394, Control_c, 10, 11, 78
1, 187407, Control_c, 10, 11, 68
1, 187420, Note_on_c, 10, 60, 0
1, 187420, Note_on_c, 10, 65, 0
1, 187421, Control_c, 10, 11, 61
1, 187434, Control_c, 10, 11, 54
1, 187440, Note_on_c, 10, 62, 31
1, 187443, Note_on_c, 10, 67, 20
1, 187445, Control_c, 8, 11, 9
1, 187446, Control_c, 10, 11, 49
1, 187450, Control_c, 6, 11, 9
1, 187457, Control_c, 8, 11, 11
1, 187459, Control_c, 10, 11, 47
1, 187460, Control_c, 2, 11, 59
1, 187462, Control_c, 6, 11, 11
1, 187470, Control_c, 8, 11, 13
1, 187472, Control_c, 10, 11, 44
1, 187475, Control_c, 6, 11, 13
1, 187479, Control_c, 7, 11, 68
1, 187485, Control_c, 8, 11, 17
1, 187490, Control_c, 6, 11, 17
1, 187497, Control_c, 8, 11, 20
1, 187502, Control_c, 6, 11, 20
1, 187510, Control_c, 8, 11, 23
1, 187515, Control_c, 6, 11, 23
1, 187523, Control_c, 8, 11, 25
1, 187525, Control_c, 2, 11, 56
1, 187528, Control_c, 6, 11, 25
1, 187536, Control_c, 8, 11, 28
1, 187541, Control_c, 6, 11, 28
1, 187544, Control_c, 7, 11, 67
1, 187551, Control_c, 8, 11, 31
1, 187556, Control_c, 6, 11, 31
1, 187562, Control_c, 8, 11, 35
1, 187567, Control_c, 6, 11, 34
1, 187576, Control_c, 8, 11, 40
1, 187581, Control_c, 6, 11, 41
1, 187589, Control_c, 8, 11, 46
1, 187594, Control_c, 6, 11, 46
1, 187596, Control_c, 10, 11, 47
1, 187603, Control_c, 8, 11, 51
1, 187608, Control_c, 6, 11, 50
1, 187608, Control_c, 10, 11, 52
1, 187616, Control_c, 8, 11, 55
1, 187617, Control_c, 2, 11, 57
1, 187621, Control_c, 6, 11, 55
1, 187621, Control_c, 10, 11, 60
1, 187623, Control_c, 7, 11, 65
1, 187628, Control_c, 8, 11, 58
1, 187633, Control_c, 6, 11, 59
1, 187634, Control_c, 10, 11, 71
1, 187642, Control_c, 8, 11, 62
1, 187647, Control_c, 6, 11, 62
1, 187648, Control_c, 10, 11, 79
1, 187654, Control_c, 8, 11, 65
1, 187659, Control_c, 6, 11, 64
1, 187661, Control_c, 10, 11, 88
1, 187668, Control_c, 8, 11, 68
1, 187673, Control_c, 6, 11, 69
1, 187673, Control_c, 10, 11, 96
1, 187680, Control_c, 8, 11, 73
1, 187685, Control_c, 6, 11, 73
1, 187686, Control_c, 10, 11, 105
1, 187688, Control_c, 7, 11, 64
1, 187693, Control_c, 8, 11, 75
1, 187698, Control_c, 6, 11, 74
1, 187699, Control_c, 10, 11, 113
1, 187707, Control_c, 8, 11, 78
1, 187712, Control_c, 6, 11, 78
1, 187714, Control_c, 10, 11, 120
1, 187720, Control_c, 8, 11, 81
1, 187725, Control_c, 6, 11, 81
1, 187726, Control_c, 10, 11, 126
1, 187734, Control_c, 8, 11, 82
1, 187739, Control_c, 6, 11, 82
1, 187746, Control_c, 8, 11, 86
1, 187749, Control_c, 2, 11, 55
1, 187751, Control_c, 6, 11, 87
1, 187754, Control_c, 7, 11, 62
1, 187760, Control_c, 8, 11, 89
1, 187765, Control_c, 6, 11, 89
1, 187773, Control_c, 8, 11, 91
1, 187778, Control_c, 6, 11, 90
1, 187786, Control_c, 8, 11, 94
1, 187791, Control_c, 6, 11, 95
1, 187794, Control_c, 7, 11, 61
1, 187800, Control_c, 8, 11, 96
1, 187805, Control_c, 6, 11, 96
1, 187812, Control_c, 8, 11, 99
1, 187817, Control_c, 6, 11, 98
1, 187823, Control_c, 10, 11, 121
1, 187825, Control_c, 8, 11, 101
1, 187830, Control_c, 6, 11, 101
1, 187833, Control_c, 7, 11, 58
1, 187835, Control_c, 10, 11, 110
1, 187838, Control_c, 8, 11, 104
1, 187843, Control_c, 6, 11, 105
1, 187848, Control_c, 10, 11, 101
1, 187852, Control_c, 8, 11, 106
1, 187857, Control_c, 6, 11, 106
1, 187861, Control_c, 10, 11, 91
1, 187866, Control_c, 8, 11, 109
1, 187871, Control_c, 6, 11, 108
1, 187871, Control_c, 7, 11, 57
1, 187874, Control_c, 10, 11, 82
1, 187877, Control_c, 8, 11, 112
1, 187880, Control_c, 2, 11, 52
1, 187882, Control_c, 6, 11, 113
1, 187889, Control_c, 10, 11, 73
1, 187890, Control_c, 8, 11, 115
1, 187895, Control_c, 6, 11, 115
1, 187899, Control_c, 7, 11, 55
1, 187900, Note_on_c, 10, 62, 0
1, 187900, Control_c, 10, 11, 66
1, 187903, Note_on_c, 10, 67, 0
1, 187904, Control_c, 8, 11, 119
1, 187909, Control_c, 6, 11, 118
1, 187910, Control_c, 7, 11, 54
1, 187917, Control_c, 8, 11, 120
1, 187920, Note_on_c, 10, 60, 22
1, 187920, Note_on_c, 10, 65, 25
1, 187922, Control_c, 6, 11, 120
1, 187928, Control_c, 10, 11, 48
1, 187931, Control_c, 8, 11, 123
1, 187936, Control_c, 6, 11, 123
1, 187937, Control_c, 7, 11, 53
1, 187942, Control_c, 10, 11, 45
1, 187943, Control_c, 8, 11, 126
1, 187948, Control_c, 6, 11, 126
1, 187954, Control_c, 10, 11, 41
1, 187969, Control_c, 10, 11, 34
1, 187978, Control_c, 7, 11, 50
1, 187984, Control_c, 2, 11, 51
1, 188021, Control_c, 10, 11, 34
1, 188030, Control_c, 1, 11, 124
1, 188034, Control_c, 10, 11, 41
1, 188048, Control_c, 10, 11, 47
1, 188057, Control_c, 7, 11, 48
1, 188061, Control_c, 10, 11, 54
1, 188064, Control_c, 2, 11, 50
1, 188069, Control_c, 1, 11, 123
1, 188074, Control_c, 10, 11, 64
1, 188088, Control_c, 10, 11, 75
1, 188095, Control_c, 1, 11, 123
1, 188100, Control_c, 10, 11, 84
1, 188113, Control_c, 10, 11, 97
1, 188126, Control_c, 10, 11, 107
1, 188133, Control_c, 1, 11, 120
1, 188135, Control_c, 7, 11, 49
1, 188141, Control_c, 10, 11, 116
1, 188143, Control_c, 2, 11, 48
1, 188152, Control_c, 10, 11, 127
1, 188195, Control_c, 2, 11, 47
1, 188201, Control_c, 1, 11, 119
1, 188228, Control_c, 7, 11, 47
1, 188279, Control_c, 1, 11, 116
1, 188293, Control_c, 7, 11, 44
1, 188298, Control_c, 10, 11, 124
1, 188300, Control_c, 2, 11, 45
1, 188310, Control_c, 10, 11, 116
1, 188318, Control_c, 1, 11, 116
1, 188323, Control_c, 10, 11, 107
1, 188338, Control_c, 10, 11, 97
1, 188345, Control_c, 7, 11, 42
1, 188349, Control_c, 10, 11, 82
1, 188364, Control_c, 10, 11, 70
1, 188376, Control_c, 10, 11, 59
1, 188379, Control_c, 2, 11, 44
1, 188380, Note_on_c, 10, 60, 0
1, 188380, Note_on_c, 10, 65, 0
1, 188384, Control_c, 1, 11, 115
1, 188389, Control_c, 10, 11, 53
1, 188397, Control_c, 7, 11, 43
1, 188399, Note_on_c, 10, 62, 21
1, 188401, Note_on_c, 10, 67, 17
1, 188404, Control_c, 10, 11, 48
1, 188416, Control_c, 10, 11, 44
1, 188429, Control_c, 10, 11, 45
1, 188431, Control_c, 2, 11, 42
1, 188436, Control_c, 1, 11, 113
1, 188438, Control_c, 7, 11, 41
1, 188477, Control_c, 7, 11, 38
1, 188480, Note_on_c, 2, 50, 57
1, 188489, Control_c, 1, 11, 110
1, 188521, Control_c, 10, 11, 48
1, 188523, Control_c, 2, 11, 41
1, 188527, Control_c, 1, 11, 110
1, 188534, Control_c, 10, 11, 55
1, 188542, Control_c, 7, 11, 36
1, 188546, Control_c, 10, 11, 63
1, 188560, Control_c, 10, 11, 70
1, 188568, Control_c, 1, 11, 109
1, 188573, Control_c, 10, 11, 79
1, 188587, Control_c, 10, 11, 88
1, 188599, Control_c, 10, 11, 96
1, 188602, Control_c, 2, 11, 39
1, 188607, Control_c, 1, 11, 107
1, 188608, Control_c, 7, 11, 37
1, 188612, Control_c, 10, 11, 105
1, 188620, Note_on_c, 2, 50, 0
1, 188626, Control_c, 10, 11, 115
1, 188639, Control_c, 10, 11, 122
1, 188640, Note_on_c, 2, 50, 86
1, 188652, Control_c, 10, 11, 126
1, 188658, Control_c, 1, 11, 104
1, 188673, Control_c, 7, 11, 34
1, 188695, Control_c, 2, 11, 38
1, 188699, Control_c, 1, 11, 104
1, 188739, Control_c, 1, 11, 103
1, 188739, Control_c, 7, 11, 33
1, 188763, System_exclusive, 35, 0, 32, 36, 0, 4, 40, 99, 41, 32, 48, 51, 45, 50, 48, 48, 52, 32, 98, 121, 32, 77, 45, 76, 105, 118, 101, 32, 83, 46, 114, 46, 108, 46, 10, 247
1, 188768, System_exclusive, 7, 0, 32, 36, 0, 5, 10, 247
1, 188773, System_exclusive, 7, 0, 32, 36, 0, 6, 10, 247
1, 188778, System_exclusive, 7, 0, 32, 36, 0, 7, 10, 247
1, 188788, System_exclusive, 6, 0, 32, 36, 0, 8, 247
1, 188792, Control_c, 1, 11, 100
1, 188798, Control_c, 10, 11, 121
1, 188805, Control_c, 7, 11, 31
1, 188809, Control_c, 10, 11, 111
1, 188823, Control_c, 10, 11, 98
1, 188837, Control_c, 10, 11, 86
1, 188843, Control_c, 1, 11, 99
1, 188850, Control_c, 10, 11, 75
1, 188859, Note_on_c, 10, 62, 0
1, 188861, Note_on_c, 10, 67, 0
1, 188862, Control_c, 10, 11, 64
1, 188865, Control_c, 2, 11, 36
1, 188874, Control_c, 10, 11, 59
1, 188880, Note_on_c, 10, 60, 10
1, 188881, Note_on_c, 10, 65, 11
1, 188883, Control_c, 1, 11, 99
1, 188888, Control_c, 10, 11, 53
1, 188897, Control_c, 7, 11, 30
1, 188902, Control_c, 10, 11, 48
1, 188914, Control_c, 10, 11, 47
1, 188922, Control_c, 1, 11, 96
1, 188940, Control_c, 10, 11, 44
1, 188961, Control_c, 1, 11, 95
1, 188976, Control_c, 7, 11, 28
1, 189009, Control_c, 2, 11, 35
1, 189015, Control_c, 1, 11, 92
1, 189027, Control_c, 7, 11, 27
1, 189033, Control_c, 10, 11, 46
1, 189045, Control_c, 10, 11, 51
1, 189053, Control_c, 1, 11, 90
1, 189058, Control_c, 10, 11, 57
1, 189071, Control_c, 10, 11, 66
1, 189085, Control_c, 10, 11, 76
1, 189092, Control_c, 1, 11, 91
1, 189095, Control_c, 7, 11, 25
1, 189099, Control_c, 10, 11, 87
1, 189100, Note_on_c, 2, 50, 0
1, 189111, Control_c, 10, 11, 97
1, 189124, Control_c, 10, 11, 102
1, 189137, Control_c, 10, 11, 108
1, 189146, Control_c, 1, 11, 89
1, 189152, Control_c, 10, 11, 115
1, 189153, Control_c, 2, 11, 32
1, 189164, Control_c, 10, 11, 122
1, 189173, Control_c, 7, 11, 24
1, 189177, Control_c, 10, 11, 127
1, 189198, Control_c, 1, 11, 86
1, 189219, Control_c, 2, 11, 31
1, 189250, Control_c, 1, 11, 84
1, 189251, Control_c, 7, 11, 22
1, 189263, Control_c, 10, 11, 125
1, 189271, Control_c, 2, 11, 30
1, 189275, Control_c, 10, 11, 114
1, 189289, Control_c, 10, 11, 105
1, 189301, Control_c, 10, 11, 92
1, 189303, Control_c, 1, 11, 85
1, 189314, Control_c, 10, 11, 78
1, 189327, Control_c, 10, 11, 69
1, 189328, Control_c, 1, 11, 83
1, 189340, Note_on_c, 10, 60, 0
1, 189341, Note_on_c, 10, 65, 0
1, 189341, Control_c, 10, 11, 61
1, 189350, Control_c, 2, 11, 28
1, 189354, Control_c, 10, 11, 54
1, 189357, Control_c, 7, 11, 21
1, 189360, Note_on_c, 10, 67, 6
1, 189361, Note_on_c, 10, 62, 9
1, 189366, Control_c, 10, 11, 48
1, 189379, Control_c, 10, 11, 47
1, 189381, Control_c, 1, 11, 80
1, 189392, Control_c, 10, 11, 45
1, 189416, Control_c, 2, 11, 27
1, 189447, Control_c, 1, 11, 78
1, 189448, Control_c, 7, 11, 19
1, 189494, Control_c, 2, 11, 25
1, 189501, Control_c, 1, 11, 77
1, 189516, Control_c, 10, 11, 46
1, 189528, Control_c, 10, 11, 52
1, 189534, Control_c, 2, 11, 24
1, 189541, Control_c, 7, 11, 18
1, 189541, Control_c, 10, 11, 61
1, 189553, Control_c, 1, 11, 76
1, 189554, Control_c, 10, 11, 70
1, 189568, Control_c, 10, 11, 79
1, 189581, Control_c, 10, 11, 89
1, 189587, Control_c, 2, 11, 22
1, 189593, Control_c, 10, 11, 96
1, 189603, Control_c, 1, 11, 75
1, 189606, Control_c, 10, 11, 105
1, 189612, Control_c, 2, 11, 21
1, 189619, Control_c, 10, 11, 112
1, 189632, Control_c, 7, 11, 16
1, 189634, Control_c, 10, 11, 120
1, 189639, Control_c, 2, 11, 19
1, 189644, Control_c, 1, 11, 73
1, 189646, Control_c, 10, 11, 127
1, 189669, Control_c, 1, 11, 70
1, 189677, Control_c, 2, 11, 18
1, 189698, Control_c, 7, 11, 15
1, 189711, Control_c, 1, 11, 71
1, 189718, Control_c, 2, 11, 16
1, 189735, Control_c, 1, 11, 68
1, 189743, Control_c, 2, 11, 15
1, 189743, Control_c, 10, 11, 121
1, 189755, Control_c, 10, 11, 110
1, 189768, Control_c, 10, 11, 100
1, 189771, Control_c, 2, 11, 13
1, 189775, Control_c, 1, 11, 66
1, 189777, Control_c, 7, 11, 13
1, 189781, Control_c, 10, 11, 91
1, 189788, Control_c, 1, 11, 65
1, 189794, Control_c, 10, 11, 83
1, 189809, Control_c, 10, 11, 72
1, 189815, Control_c, 1, 11, 65
1, 189820, Note_on_c, 10, 67, 0
1, 189820, Control_c, 10, 11, 66
1, 189821, Note_on_c, 10, 62, 0
1, 189839, Note_on_c, 10, 65, 3
1, 189840, Note_on_c, 10, 60, 3
1, 189842, Control_c, 7, 11, 12
1, 189848, Control_c, 10, 11, 49
1, 189854, Control_c, 1, 11, 62
1, 189862, Control_c, 10, 11, 44
1, 189874, Control_c, 10, 11, 41
1, 189881, Control_c, 1, 11, 60
1, 189888, Control_c, 2, 11, 11
1, 189889, Control_c, 10, 11, 35
1, 189906, Control_c, 1, 11, 59
1, 189908, Control_c, 7, 11, 10
1, 189934, Control_c, 1, 11, 57
1, 189941, Control_c, 10, 11, 34
1, 189954, Control_c, 10, 11, 41
1, 189959, Control_c, 1, 11, 56
1, 189961, Control_c, 7, 11, 9
1, 189968, Control_c, 10, 11, 46
1, 189981, Control_c, 10, 11, 54
1, 189985, Control_c, 1, 11, 54
1, 189994, Control_c, 10, 11, 65
1, 190007, Control_c, 2, 11, 10
1, 190008, Control_c, 10, 11, 75
1, 190012, Control_c, 1, 11, 53
1, 190020, Control_c, 10, 11, 84
1, 190033, Control_c, 10, 11, 96
1, 190037, Control_c, 1, 11, 50
1, 190039, Control_c, 7, 11, 7
1, 190045, Control_c, 2, 11, 8
1, 190046, Control_c, 10, 11, 107
1, 190059, Note_on_c, 7, 50, 0
1, 190059, Note_on_c, 7, 53, 0
1, 190060, Note_on_c, 1, 26, 0
1, 190061, Control_c, 10, 11, 117
1, 190065, Control_c, 1, 11, 49
1, 190072, Control_c, 10, 11, 126
1, 190090, Control_c, 1, 11, 47
1, 190105, Control_c, 7, 11, 6
1, 190112, Control_c, 2, 11, 6
1, 190117, Control_c, 1, 11, 44
1, 190138, Control_c, 2, 11, 5
1, 190143, Control_c, 1, 11, 43
1, 190145, Control_c, 7, 11, 4
1, 190150, Control_c, 2, 11, 3
1, 190168, Control_c, 1, 11, 40
1, 190176, Control_c, 2, 11, 2
1, 190183, Control_c, 1, 11, 38
1, 190183, Control_c, 7, 11, 2
1, 190204, Control_c, 2, 11, 0
1, 190208, Control_c, 1, 11, 37
1, 190222, Control_c, 7, 11, 0
1, 190234, Control_c, 1, 11, 35
1, 190262, Control_c, 1, 11, 31
1, 190274, Control_c, 1, 11, 30
1, 190287, Control_c, 1, 11, 28
1, 190299, Note_on_c, 10, 65, 0
1, 190300, Note_on_c, 10, 60, 0
1, 190300, Control_c, 1, 11, 26
1, 190315, Control_c, 1, 11, 24
1, 190326, Control_c, 1, 11, 21
1, 190339, Control_c, 1, 11, 19
1, 190353, Control_c, 1, 11, 16
1, 190365, Control_c, 1, 11, 14
1, 190380, Control_c, 1, 11, 12
1, 190391, Control_c, 1, 11, 11
1, 190418, Control_c, 1, 11, 9
1, 190446, Control_c, 1, 11, 7
1, 190457, Control_c, 1, 11, 6
1, 190471, Control_c, 1, 11, 4
1, 190484, Control_c, 1, 11, 0
1, 190722, Control_c, 1, 11, 2
1, 190734, Control_c, 1, 11, 13
1, 190747, Control_c, 1, 11, 28
1, 190760, Control_c, 1, 11, 42
1, 190773, Control_c, 1, 11, 54
1, 190786, Control_c, 1, 11, 69
1, 190799, Control_c, 1, 11, 83
1, 190813, Control_c, 1, 11, 98
1, 190826, Control_c, 1, 11, 112
1, 190838, Control_c, 1, 11, 127
1, 190880, Control_c, 7, 11, 4
1, 190892, Control_c, 7, 11, 10
1, 190905, Control_c, 7, 11, 14
1, 190918, Control_c, 7, 11, 18
1, 190933, Control_c, 7, 11, 23
1, 190944, Control_c, 7, 11, 28
1, 190957, Control_c, 7, 11, 35
1, 190970, Control_c, 7, 11, 42
1, 190979, Control_c, 2, 11, 9
1, 190983, Control_c, 7, 11, 51
1, 190990, Control_c, 2, 11, 20
1, 190998, Control_c, 7, 11, 58
1, 191003, Control_c, 2, 11, 29
1, 191010, Control_c, 7, 11, 68
1, 191018, Control_c, 2, 11, 39
1, 191023, Control_c, 7, 11, 75
1, 191030, Control_c, 2, 11, 47
1, 191036, Control_c, 7, 11, 83
1, 191043, Control_c, 2, 11, 56
1, 191049, Control_c, 7, 11, 92
1, 191056, Control_c, 2, 11, 67
1, 191064, Control_c, 7, 11, 100
1, 191069, Control_c, 2, 11, 80
1, 191076, Control_c, 7, 11, 111
1, 191084, Control_c, 2, 11, 92
1, 191089, Control_c, 7, 11, 121
1, 191096, Control_c, 2, 11, 105
1, 191102, Control_c, 7, 11, 126
1, 191109, Control_c, 2, 11, 117
1, 191122, Control_c, 2, 11, 126
1, 191426, Control_c, 2, 1, 17
1, 192000, System_exclusive, 10, 65, 16, 66, 18, 64, 0, 127, 127, 66, 247
1, 192010, System_exclusive, 10, 65, 16, 66, 18, 64, 0, 127, 0, 65, 247
1, 192010, End_track
0, 0, End_of_file
