0, 0, Header, 1, 17, 192
1, 0, Start_track
1, 0, Title_t, "untitled"
1, 0, Text_t, "Bass Drum\012"
1, 0, Text_t, "Snare\012"
1, 0, Text_t, "HiHat Cl\012"
1, 0, Text_t, "HiHat Op\012"
1, 0, Text_t, "Crash\012"
1, 0, Text_t, "Ride\012"
1, 0, Text_t, "Hi Tom\012"
1, 0, Text_t, "Mi Tom\012"
1, 0, Text_t, "Lo Tom\012"
1, 0, Text_t, "E.Piano\012"
1, 0, Text_t, "LeadGuitr\012"
1, 0, Text_t, "Polysynth\012"
1, 0, Text_t, "Clav\012"
1, 0, Text_t, "Slap Bass\012"
1, 0, Text_t, "Brass\012"
1, 0, Text_t, "Choir\012"
1, 0, Text_t, "GS/GM\012"
1, 0, MIDI_port, 0
1, 0, System_exclusive, 10, 65, 16, 66, 18, 64, 0, 127, 0, 65, 247
1, 0, System_exclusive, 5, 126, 0, 9, 1, 247
1, 0, MIDI_port, 0
1, 0, Time_signature, 4, 2, 24, 8
1, 0, Key_signature, 0, "major"
1, 0, Tempo, 526316
1, 0, End_track
2, 0, Start_track
2, 0, MIDI_port, 0
2, 0, Title_t, ""
2, 0, Control_c, 9, 0, 62
2, 0, Control_c, 9, 32, 0
2, 0, Program_c, 9, 0
2, 0, Control_c, 9, 7, 127
2, 0, Control_c, 9, 10, 64
2, 0, Control_c, 9, 91, 0
2, 0, Control_c, 9, 93, 0
2, 1982, Control_c, 9, 91, 0
2, 1982, Control_c, 9, 93, 0
2, 1982, Control_c, 9, 10, 64
2, 1982, Control_c, 9, 7, 127
2, 3842, Note_on_c, 9, 36, 127
2, 3854, Note_on_c, 9, 36, 0
2, 4225, Note_on_c, 9, 36, 127
2, 4237, Note_on_c, 9, 36, 0
2, 4609, Note_on_c, 9, 36, 127
2, 4621, Note_on_c, 9, 36, 0
2, 4993, Note_on_c, 9, 36, 127
2, 5005, Note_on_c, 9, 36, 0
2, 5379, Note_on_c, 9, 36, 127
2, 5391, Note_on_c, 9, 36, 0
2, 5761, Note_on_c, 9, 36, 127
2, 5773, Note_on_c, 9, 36, 0
2, 6144, Note_on_c, 9, 36, 127
2, 6156, Note_on_c, 9, 36, 0
2, 6529, Note_on_c, 9, 36, 127
2, 6541, Note_on_c, 9, 36, 0
2, 6912, Note_on_c, 9, 36, 127
2, 6924, Note_on_c, 9, 36, 0
2, 7297, Note_on_c, 9, 36, 127
2, 7309, Note_on_c, 9, 36, 0
2, 7681, Note_on_c, 9, 36, 127
2, 7693, Note_on_c, 9, 36, 0
2, 8064, Note_on_c, 9, 36, 127
2, 8076, Note_on_c, 9, 36, 0
2, 8453, Note_on_c, 9, 36, 127
2, 8465, Note_on_c, 9, 36, 0
2, 8833, Note_on_c, 9, 36, 127
2, 8845, Note_on_c, 9, 36, 0
2, 9217, Note_on_c, 9, 36, 127
2, 9229, Note_on_c, 9, 36, 0
2, 9601, Note_on_c, 9, 36, 127
2, 9613, Note_on_c, 9, 36, 0
2, 9985, Note_on_c, 9, 36, 127
2, 9997, Note_on_c, 9, 36, 0
2, 10370, Note_on_c, 9, 36, 127
2, 10382, Note_on_c, 9, 36, 0
2, 10753, Note_on_c, 9, 36, 127
2, 10765, Note_on_c, 9, 36, 0
2, 11136, Note_on_c, 9, 36, 127
2, 11148, Note_on_c, 9, 36, 0
2, 11524, Note_on_c, 9, 36, 127
2, 11536, Note_on_c, 9, 36, 0
2, 11905, Note_on_c, 9, 36, 127
2, 11917, Note_on_c, 9, 36, 0
2, 12288, Note_on_c, 9, 36, 127
2, 12300, Note_on_c, 9, 36, 0
2, 12676, Note_on_c, 9, 36, 127
2, 12688, Note_on_c, 9, 36, 0
2, 13057, Note_on_c, 9, 36, 127
2, 13069, Note_on_c, 9, 36, 0
2, 13441, Note_on_c, 9, 36, 127
2, 13453, Note_on_c, 9, 36, 0
2, 13825, Note_on_c, 9, 36, 127
2, 13837, Note_on_c, 9, 36, 0
2, 14209, Note_on_c, 9, 36, 127
2, 14221, Note_on_c, 9, 36, 0
2, 14595, Note_on_c, 9, 36, 127
2, 14607, Note_on_c, 9, 36, 0
2, 14977, Note_on_c, 9, 36, 127
2, 14989, Note_on_c, 9, 36, 0
2, 15361, Note_on_c, 9, 36, 127
2, 15373, Note_on_c, 9, 36, 0
2, 15746, Note_on_c, 9, 36, 127
2, 15758, Note_on_c, 9, 36, 0
2, 16129, Note_on_c, 9, 36, 127
2, 16141, Note_on_c, 9, 36, 0
2, 16514, Note_on_c, 9, 36, 127
2, 16526, Note_on_c, 9, 36, 0
2, 16897, Note_on_c, 9, 36, 127
2, 16909, Note_on_c, 9, 36, 0
2, 17281, Note_on_c, 9, 36, 127
2, 17293, Note_on_c, 9, 36, 0
2, 17667, Note_on_c, 9, 36, 127
2, 17679, Note_on_c, 9, 36, 0
2, 18050, Note_on_c, 9, 36, 127
2, 18062, Note_on_c, 9, 36, 0
2, 18433, Note_on_c, 9, 36, 127
2, 18445, Note_on_c, 9, 36, 0
2, 18820, Note_on_c, 9, 36, 127
2, 18832, Note_on_c, 9, 36, 0
2, 19201, Note_on_c, 9, 36, 127
2, 19213, Note_on_c, 9, 36, 0
2, 19680, Note_on_c, 9, 36, 127
2, 19692, Note_on_c, 9, 36, 0
2, 19971, Note_on_c, 9, 36, 127
2, 19983, Note_on_c, 9, 36, 0
2, 20355, Note_on_c, 9, 36, 127
2, 20367, Note_on_c, 9, 36, 0
2, 20739, Note_on_c, 9, 36, 127
2, 20751, Note_on_c, 9, 36, 0
2, 21121, Note_on_c, 9, 36, 127
2, 21133, Note_on_c, 9, 36, 0
2, 21507, Note_on_c, 9, 36, 127
2, 21519, Note_on_c, 9, 36, 0
2, 21889, Note_on_c, 9, 36, 127
2, 21901, Note_on_c, 9, 36, 0
2, 22275, Note_on_c, 9, 36, 127
2, 22287, Note_on_c, 9, 36, 0
2, 22752, Note_on_c, 9, 36, 127
2, 22764, Note_on_c, 9, 36, 0
2, 23040, Note_on_c, 9, 36, 127
2, 23052, Note_on_c, 9, 36, 0
2, 23427, Note_on_c, 9, 36, 127
2, 23439, Note_on_c, 9, 36, 0
2, 23810, Note_on_c, 9, 36, 127
2, 23822, Note_on_c, 9, 36, 0
2, 24193, Note_on_c, 9, 36, 127
2, 24205, Note_on_c, 9, 36, 0
2, 24577, Note_on_c, 9, 36, 127
2, 24589, Note_on_c, 9, 36, 0
2, 24964, Note_on_c, 9, 36, 127
2, 24976, Note_on_c, 9, 36, 0
2, 25345, Note_on_c, 9, 36, 127
2, 25357, Note_on_c, 9, 36, 0
2, 25632, Note_on_c, 9, 36, 127
2, 25644, Note_on_c, 9, 36, 0
2, 25734, Note_on_c, 9, 36, 127
2, 25746, Note_on_c, 9, 36, 0
2, 26118, Note_on_c, 9, 36, 127
2, 26130, Note_on_c, 9, 36, 0
2, 26498, Note_on_c, 9, 36, 127
2, 26510, Note_on_c, 9, 36, 0
2, 26881, Note_on_c, 9, 36, 127
2, 26893, Note_on_c, 9, 36, 0
2, 27265, Note_on_c, 9, 36, 127
2, 27277, Note_on_c, 9, 36, 0
2, 27649, Note_on_c, 9, 36, 127
2, 27661, Note_on_c, 9, 36, 0
2, 28033, Note_on_c, 9, 36, 127
2, 28045, Note_on_c, 9, 36, 0
2, 28417, Note_on_c, 9, 36, 127
2, 28429, Note_on_c, 9, 36, 0
2, 28801, Note_on_c, 9, 36, 127
2, 28813, Note_on_c, 9, 36, 0
2, 29187, Note_on_c, 9, 36, 127
2, 29199, Note_on_c, 9, 36, 0
2, 29570, Note_on_c, 9, 36, 127
2, 29582, Note_on_c, 9, 36, 0
2, 29953, Note_on_c, 9, 36, 127
2, 29965, Note_on_c, 9, 36, 0
2, 30338, Note_on_c, 9, 36, 127
2, 30350, Note_on_c, 9, 36, 0
2, 30721, Note_on_c, 9, 36, 127
2, 30733, Note_on_c, 9, 36, 0
2, 31106, Note_on_c, 9, 36, 127
2, 31118, Note_on_c, 9, 36, 0
2, 31489, Note_on_c, 9, 36, 127
2, 31501, Note_on_c, 9, 36, 0
2, 31873, Note_on_c, 9, 36, 127
2, 31885, Note_on_c, 9, 36, 0
2, 32259, Note_on_c, 9, 36, 127
2, 32271, Note_on_c, 9, 36, 0
2, 32642, Note_on_c, 9, 36, 127
2, 32654, Note_on_c, 9, 36, 0
2, 33025, Note_on_c, 9, 36, 127
2, 33037, Note_on_c, 9, 36, 0
2, 33410, Note_on_c, 9, 36, 127
2, 33422, Note_on_c, 9, 36, 0
2, 33793, Note_on_c, 9, 36, 127
2, 33805, Note_on_c, 9, 36, 0
2, 34177, Note_on_c, 9, 36, 127
2, 34189, Note_on_c, 9, 36, 0
2, 34561, Note_on_c, 9, 36, 127
2, 34573, Note_on_c, 9, 36, 0
2, 34946, Note_on_c, 9, 36, 127
2, 34958, Note_on_c, 9, 36, 0
2, 35331, Note_on_c, 9, 36, 127
2, 35343, Note_on_c, 9, 36, 0
2, 35713, Note_on_c, 9, 36, 127
2, 35725, Note_on_c, 9, 36, 0
2, 36097, Note_on_c, 9, 36, 127
2, 36109, Note_on_c, 9, 36, 0
2, 36481, Note_on_c, 9, 36, 127
2, 36493, Note_on_c, 9, 36, 0
2, 36864, Note_on_c, 9, 36, 127
2, 36876, Note_on_c, 9, 36, 0
2, 37345, Note_on_c, 9, 36, 127
2, 37357, Note_on_c, 9, 36, 0
2, 37631, Note_on_c, 9, 36, 127
2, 37643, Note_on_c, 9, 36, 0
2, 38017, Note_on_c, 9, 36, 127
2, 38029, Note_on_c, 9, 36, 0
2, 38400, Note_on_c, 9, 36, 127
2, 38412, Note_on_c, 9, 36, 0
2, 38785, Note_on_c, 9, 36, 127
2, 38797, Note_on_c, 9, 36, 0
2, 39171, Note_on_c, 9, 36, 127
2, 39183, Note_on_c, 9, 36, 0
2, 39553, Note_on_c, 9, 36, 127
2, 39565, Note_on_c, 9, 36, 0
2, 39938, Note_on_c, 9, 36, 127
2, 39950, Note_on_c, 9, 36, 0
2, 40415, Note_on_c, 9, 36, 127
2, 40427, Note_on_c, 9, 36, 0
2, 40705, Note_on_c, 9, 36, 127
2, 40717, Note_on_c, 9, 36, 0
2, 41090, Note_on_c, 9, 36, 127
2, 41102, Note_on_c, 9, 36, 0
2, 41472, Note_on_c, 9, 36, 127
2, 41484, Note_on_c, 9, 36, 0
2, 41857, Note_on_c, 9, 36, 127
2, 41869, Note_on_c, 9, 36, 0
2, 42242, Note_on_c, 9, 36, 127
2, 42254, Note_on_c, 9, 36, 0
2, 42626, Note_on_c, 9, 36, 127
2, 42638, Note_on_c, 9, 36, 0
2, 43008, Note_on_c, 9, 36, 127
2, 43020, Note_on_c, 9, 36, 0
2, 43487, Note_on_c, 9, 36, 127
2, 43499, Note_on_c, 9, 36, 0
2, 43776, Note_on_c, 9, 36, 127
2, 43824, Note_on_c, 9, 36, 0
2, 44161, Note_on_c, 9, 36, 127
2, 44173, Note_on_c, 9, 36, 0
2, 44544, Note_on_c, 9, 36, 127
2, 44556, Note_on_c, 9, 36, 0
2, 44929, Note_on_c, 9, 36, 127
2, 44941, Note_on_c, 9, 36, 0
2, 45315, Note_on_c, 9, 36, 127
2, 45327, Note_on_c, 9, 36, 0
2, 45697, Note_on_c, 9, 36, 127
2, 45709, Note_on_c, 9, 36, 0
2, 46082, Note_on_c, 9, 36, 127
2, 46094, Note_on_c, 9, 36, 0
2, 46559, Note_on_c, 9, 36, 127
2, 46571, Note_on_c, 9, 36, 0
2, 46848, Note_on_c, 9, 36, 127
2, 46860, Note_on_c, 9, 36, 0
2, 47234, Note_on_c, 9, 36, 127
2, 47246, Note_on_c, 9, 36, 0
2, 47619, Note_on_c, 9, 36, 127
2, 47631, Note_on_c, 9, 36, 0
2, 48001, Note_on_c, 9, 36, 127
2, 48013, Note_on_c, 9, 36, 0
2, 48384, Note_on_c, 9, 36, 127
2, 48396, Note_on_c, 9, 36, 0
2, 48769, Note_on_c, 9, 36, 127
2, 48781, Note_on_c, 9, 36, 0
2, 49153, Note_on_c, 9, 36, 127
2, 49165, Note_on_c, 9, 36, 0
2, 49441, Note_on_c, 9, 36, 127
2, 49453, Note_on_c, 9, 36, 0
2, 49825, Note_on_c, 9, 36, 127
2, 49837, Note_on_c, 9, 36, 0
2, 50016, Note_on_c, 9, 36, 127
2, 50028, Note_on_c, 9, 36, 0
2, 50208, Note_on_c, 9, 36, 127
2, 50220, Note_on_c, 9, 36, 0
2, 50400, Note_on_c, 9, 36, 127
2, 50412, Note_on_c, 9, 36, 0
2, 50692, Note_on_c, 9, 36, 127
2, 50704, Note_on_c, 9, 36, 0
2, 50977, Note_on_c, 9, 36, 127
2, 50989, Note_on_c, 9, 36, 0
2, 51362, Note_on_c, 9, 36, 127
2, 51374, Note_on_c, 9, 36, 0
2, 51552, Note_on_c, 9, 36, 127
2, 51564, Note_on_c, 9, 36, 0
2, 51743, Note_on_c, 9, 36, 127
2, 51755, Note_on_c, 9, 36, 0
2, 51936, Note_on_c, 9, 36, 127
2, 51948, Note_on_c, 9, 36, 0
2, 52033, Note_on_c, 9, 36, 127
2, 52045, Note_on_c, 9, 36, 0
2, 52224, Note_on_c, 9, 36, 127
2, 52236, Note_on_c, 9, 36, 0
2, 52609, Note_on_c, 9, 36, 127
2, 52621, Note_on_c, 9, 36, 0
2, 52991, Note_on_c, 9, 36, 127
2, 53003, Note_on_c, 9, 36, 0
2, 53378, Note_on_c, 9, 36, 127
2, 53390, Note_on_c, 9, 36, 0
2, 53761, Note_on_c, 9, 36, 127
2, 53773, Note_on_c, 9, 36, 0
2, 54145, Note_on_c, 9, 36, 127
2, 54157, Note_on_c, 9, 36, 0
2, 54528, Note_on_c, 9, 36, 127
2, 54540, Note_on_c, 9, 36, 0
2, 54914, Note_on_c, 9, 36, 127
2, 54926, Note_on_c, 9, 36, 0
2, 55296, Note_on_c, 9, 36, 127
2, 55308, Note_on_c, 9, 36, 0
2, 55683, Note_on_c, 9, 36, 127
2, 55695, Note_on_c, 9, 36, 0
2, 56066, Note_on_c, 9, 36, 127
2, 56078, Note_on_c, 9, 36, 0
2, 56449, Note_on_c, 9, 36, 127
2, 56461, Note_on_c, 9, 36, 0
2, 56835, Note_on_c, 9, 36, 127
2, 56847, Note_on_c, 9, 36, 0
2, 57217, Note_on_c, 9, 36, 127
2, 57229, Note_on_c, 9, 36, 0
2, 57600, Note_on_c, 9, 36, 127
2, 57612, Note_on_c, 9, 36, 0
2, 57986, Note_on_c, 9, 36, 127
2, 57998, Note_on_c, 9, 36, 0
2, 58370, Note_on_c, 9, 36, 127
2, 58382, Note_on_c, 9, 36, 0
2, 58754, Note_on_c, 9, 36, 127
2, 58766, Note_on_c, 9, 36, 0
2, 59138, Note_on_c, 9, 36, 127
2, 59150, Note_on_c, 9, 36, 0
2, 59521, Note_on_c, 9, 36, 127
2, 59533, Note_on_c, 9, 36, 0
2, 59906, Note_on_c, 9, 36, 127
2, 59918, Note_on_c, 9, 36, 0
2, 60291, Note_on_c, 9, 36, 127
2, 60303, Note_on_c, 9, 36, 0
2, 60675, Note_on_c, 9, 36, 127
2, 60687, Note_on_c, 9, 36, 0
2, 61060, Note_on_c, 9, 36, 127
2, 61072, Note_on_c, 9, 36, 0
2, 61443, Note_on_c, 9, 36, 127
2, 61455, Note_on_c, 9, 36, 0
2, 61825, Note_on_c, 9, 36, 127
2, 61837, Note_on_c, 9, 36, 0
2, 62210, Note_on_c, 9, 36, 127
2, 62222, Note_on_c, 9, 36, 0
2, 62592, Note_on_c, 9, 36, 127
2, 62604, Note_on_c, 9, 36, 0
2, 62976, Note_on_c, 9, 36, 127
2, 62988, Note_on_c, 9, 36, 0
2, 63362, Note_on_c, 9, 36, 127
2, 63374, Note_on_c, 9, 36, 0
2, 63744, Note_on_c, 9, 36, 127
2, 63756, Note_on_c, 9, 36, 0
2, 64129, Note_on_c, 9, 36, 127
2, 64141, Note_on_c, 9, 36, 0
2, 64515, Note_on_c, 9, 36, 127
2, 64527, Note_on_c, 9, 36, 0
2, 64897, Note_on_c, 9, 36, 127
2, 64909, Note_on_c, 9, 36, 0
2, 65283, Note_on_c, 9, 36, 127
2, 65295, Note_on_c, 9, 36, 0
2, 65664, Note_on_c, 9, 36, 127
2, 65676, Note_on_c, 9, 36, 0
2, 66048, Note_on_c, 9, 36, 127
2, 66060, Note_on_c, 9, 36, 0
2, 66437, Note_on_c, 9, 36, 127
2, 66449, Note_on_c, 9, 36, 0
2, 66816, Note_on_c, 9, 36, 127
2, 66828, Note_on_c, 9, 36, 0
2, 67203, Note_on_c, 9, 36, 127
2, 67215, Note_on_c, 9, 36, 0
2, 67591, Note_on_c, 9, 36, 127
2, 67603, Note_on_c, 9, 36, 0
2, 67971, Note_on_c, 9, 36, 127
2, 67983, Note_on_c, 9, 36, 0
2, 68351, Note_on_c, 9, 36, 127
2, 68363, Note_on_c, 9, 36, 0
2, 68737, Note_on_c, 9, 36, 127
2, 68749, Note_on_c, 9, 36, 0
2, 69120, Note_on_c, 9, 36, 127
2, 69132, Note_on_c, 9, 36, 0
2, 69599, Note_on_c, 9, 36, 127
2, 69611, Note_on_c, 9, 36, 0
2, 69892, Note_on_c, 9, 36, 127
2, 69904, Note_on_c, 9, 36, 0
2, 70273, Note_on_c, 9, 36, 127
2, 70285, Note_on_c, 9, 36, 0
2, 70659, Note_on_c, 9, 36, 127
2, 70671, Note_on_c, 9, 36, 0
2, 71041, Note_on_c, 9, 36, 127
2, 71053, Note_on_c, 9, 36, 0
2, 71424, Note_on_c, 9, 36, 127
2, 71436, Note_on_c, 9, 36, 0
2, 71811, Note_on_c, 9, 36, 127
2, 71823, Note_on_c, 9, 36, 0
2, 72194, Note_on_c, 9, 36, 127
2, 72206, Note_on_c, 9, 36, 0
2, 72671, Note_on_c, 9, 36, 127
2, 72683, Note_on_c, 9, 36, 0
2, 72961, Note_on_c, 9, 36, 127
2, 72973, Note_on_c, 9, 36, 0
2, 73346, Note_on_c, 9, 36, 127
2, 73358, Note_on_c, 9, 36, 0
2, 73728, Note_on_c, 9, 36, 127
2, 73740, Note_on_c, 9, 36, 0
2, 74113, Note_on_c, 9, 36, 127
2, 74125, Note_on_c, 9, 36, 0
2, 74498, Note_on_c, 9, 36, 127
2, 74510, Note_on_c, 9, 36, 0
2, 74881, Note_on_c, 9, 36, 127
2, 74893, Note_on_c, 9, 36, 0
2, 75266, Note_on_c, 9, 36, 127
2, 75278, Note_on_c, 9, 36, 0
2, 75744, Note_on_c, 9, 36, 127
2, 75756, Note_on_c, 9, 36, 0
2, 76036, Note_on_c, 9, 36, 127
2, 76048, Note_on_c, 9, 36, 0
2, 76417, Note_on_c, 9, 36, 127
2, 76429, Note_on_c, 9, 36, 0
2, 76803, Note_on_c, 9, 36, 127
2, 76815, Note_on_c, 9, 36, 0
2, 77185, Note_on_c, 9, 36, 127
2, 77197, Note_on_c, 9, 36, 0
2, 77568, Note_on_c, 9, 36, 127
2, 77580, Note_on_c, 9, 36, 0
2, 77955, Note_on_c, 9, 36, 127
2, 77967, Note_on_c, 9, 36, 0
2, 78338, Note_on_c, 9, 36, 127
2, 78350, Note_on_c, 9, 36, 0
2, 78815, Note_on_c, 9, 36, 127
2, 78827, Note_on_c, 9, 36, 0
2, 79104, Note_on_c, 9, 36, 127
2, 79116, Note_on_c, 9, 36, 0
2, 79492, Note_on_c, 9, 36, 127
2, 79504, Note_on_c, 9, 36, 0
2, 79872, Note_on_c, 9, 36, 127
2, 79884, Note_on_c, 9, 36, 0
2, 80258, Note_on_c, 9, 36, 127
2, 80270, Note_on_c, 9, 36, 0
2, 80640, Note_on_c, 9, 36, 127
2, 80652, Note_on_c, 9, 36, 0
2, 81025, Note_on_c, 9, 36, 127
2, 81037, Note_on_c, 9, 36, 0
2, 81408, Note_on_c, 9, 36, 127
2, 81420, Note_on_c, 9, 36, 0
2, 81695, Note_on_c, 9, 36, 127
2, 81707, Note_on_c, 9, 36, 0
2, 82080, Note_on_c, 9, 36, 127
2, 82092, Note_on_c, 9, 36, 0
2, 82847, Note_on_c, 9, 36, 127
2, 82859, Note_on_c, 9, 36, 0
2, 82944, Note_on_c, 9, 36, 127
2, 82956, Note_on_c, 9, 36, 0
2, 83234, Note_on_c, 9, 36, 127
2, 83246, Note_on_c, 9, 36, 0
2, 83618, Note_on_c, 9, 36, 127
2, 83630, Note_on_c, 9, 36, 0
2, 83630, End_track
3, 0, Start_track
3, 0, MIDI_port, 0
3, 0, Title_t, ""
3, 0, Control_c, 9, 7, 127
3, 0, Control_c, 9, 10, 64
3, 0, Control_c, 9, 91, 0
3, 0, Control_c, 9, 93, 0
3, 1982, Control_c, 9, 91, 0
3, 1982, Control_c, 9, 93, 0
3, 1982, Control_c, 9, 10, 64
3, 1982, Control_c, 9, 7, 127
3, 4035, Note_on_c, 9, 40, 104
3, 4047, Note_on_c, 9, 40, 0
3, 4416, Note_on_c, 9, 40, 104
3, 4428, Note_on_c, 9, 40, 0
3, 4799, Note_on_c, 9, 40, 127
3, 4811, Note_on_c, 9, 40, 0
3, 5185, Note_on_c, 9, 40, 127
3, 5197, Note_on_c, 9, 40, 0
3, 5567, Note_on_c, 9, 40, 127
3, 5579, Note_on_c, 9, 40, 0
3, 5953, Note_on_c, 9, 40, 127
3, 5965, Note_on_c, 9, 40, 0
3, 6334, Note_on_c, 9, 40, 127
3, 6346, Note_on_c, 9, 40, 0
3, 6721, Note_on_c, 9, 40, 127
3, 6733, Note_on_c, 9, 40, 0
3, 7103, Note_on_c, 9, 40, 127
3, 7115, Note_on_c, 9, 40, 0
3, 7489, Note_on_c, 9, 40, 127
3, 7501, Note_on_c, 9, 40, 0
3, 7867, Note_on_c, 9, 40, 127
3, 7879, Note_on_c, 9, 40, 0
3, 8258, Note_on_c, 9, 40, 127
3, 8270, Note_on_c, 9, 40, 0
3, 8639, Note_on_c, 9, 40, 127
3, 8651, Note_on_c, 9, 40, 0
3, 9025, Note_on_c, 9, 40, 127
3, 9037, Note_on_c, 9, 40, 0
3, 9406, Note_on_c, 9, 40, 127
3, 9418, Note_on_c, 9, 40, 0
3, 9794, Note_on_c, 9, 40, 127
3, 9806, Note_on_c, 9, 40, 0
3, 10177, Note_on_c, 9, 40, 127
3, 10189, Note_on_c, 9, 40, 0
3, 10564, Note_on_c, 9, 40, 127
3, 10576, Note_on_c, 9, 40, 0
3, 10945, Note_on_c, 9, 40, 127
3, 10957, Note_on_c, 9, 40, 0
3, 11330, Note_on_c, 9, 40, 127
3, 11342, Note_on_c, 9, 40, 0
3, 11713, Note_on_c, 9, 40, 127
3, 11725, Note_on_c, 9, 40, 0
3, 12098, Note_on_c, 9, 40, 127
3, 12110, Note_on_c, 9, 40, 0
3, 12481, Note_on_c, 9, 40, 127
3, 12493, Note_on_c, 9, 40, 0
3, 12865, Note_on_c, 9, 40, 127
3, 12877, Note_on_c, 9, 40, 0
3, 13247, Note_on_c, 9, 40, 127
3, 13259, Note_on_c, 9, 40, 0
3, 13634, Note_on_c, 9, 40, 127
3, 13646, Note_on_c, 9, 40, 0
3, 14015, Note_on_c, 9, 40, 127
3, 14027, Note_on_c, 9, 40, 0
3, 14402, Note_on_c, 9, 40, 127
3, 14414, Note_on_c, 9, 40, 0
3, 14785, Note_on_c, 9, 40, 127
3, 14797, Note_on_c, 9, 40, 0
3, 15172, Note_on_c, 9, 40, 127
3, 15184, Note_on_c, 9, 40, 0
3, 15553, Note_on_c, 9, 40, 127
3, 15565, Note_on_c, 9, 40, 0
3, 15937, Note_on_c, 9, 40, 127
3, 15949, Note_on_c, 9, 40, 0
3, 16324, Note_on_c, 9, 40, 127
3, 16336, Note_on_c, 9, 40, 0
3, 16705, Note_on_c, 9, 40, 127
3, 16717, Note_on_c, 9, 40, 0
3, 17091, Note_on_c, 9, 40, 127
3, 17103, Note_on_c, 9, 40, 0
3, 17473, Note_on_c, 9, 40, 127
3, 17485, Note_on_c, 9, 40, 0
3, 17857, Note_on_c, 9, 40, 127
3, 17869, Note_on_c, 9, 40, 0
3, 18242, Note_on_c, 9, 40, 127
3, 18254, Note_on_c, 9, 40, 0
3, 18625, Note_on_c, 9, 40, 127
3, 18637, Note_on_c, 9, 40, 0
3, 19009, Note_on_c, 9, 40, 127
3, 19021, Note_on_c, 9, 40, 0
3, 19393, Note_on_c, 9, 40, 127
3, 19405, Note_on_c, 9, 40, 0
3, 19586, Note_on_c, 9, 40, 127
3, 19598, Note_on_c, 9, 40, 0
3, 19871, Note_on_c, 9, 40, 127
3, 19883, Note_on_c, 9, 40, 0
3, 20164, Note_on_c, 9, 40, 127
3, 20176, Note_on_c, 9, 40, 0
3, 20545, Note_on_c, 9, 40, 127
3, 20557, Note_on_c, 9, 40, 0
3, 20929, Note_on_c, 9, 40, 127
3, 20941, Note_on_c, 9, 40, 0
3, 21312, Note_on_c, 9, 40, 127
3, 21324, Note_on_c, 9, 40, 0
3, 21697, Note_on_c, 9, 40, 127
3, 21709, Note_on_c, 9, 40, 0
3, 22081, Note_on_c, 9, 40, 127
3, 22093, Note_on_c, 9, 40, 0
3, 22465, Note_on_c, 9, 40, 127
3, 22477, Note_on_c, 9, 40, 0
3, 22657, Note_on_c, 9, 40, 127
3, 22669, Note_on_c, 9, 40, 0
3, 22944, Note_on_c, 9, 40, 127
3, 22956, Note_on_c, 9, 40, 0
3, 23233, Note_on_c, 9, 40, 127
3, 23245, Note_on_c, 9, 40, 0
3, 23618, Note_on_c, 9, 40, 127
3, 23630, Note_on_c, 9, 40, 0
3, 24001, Note_on_c, 9, 40, 127
3, 24013, Note_on_c, 9, 40, 0
3, 24383, Note_on_c, 9, 40, 127
3, 24395, Note_on_c, 9, 40, 0
3, 24769, Note_on_c, 9, 40, 127
3, 24781, Note_on_c, 9, 40, 0
3, 25153, Note_on_c, 9, 40, 127
3, 25165, Note_on_c, 9, 40, 0
3, 25537, Note_on_c, 9, 40, 127
3, 25549, Note_on_c, 9, 40, 0
3, 25921, Note_on_c, 9, 40, 127
3, 25933, Note_on_c, 9, 40, 0
3, 26303, Note_on_c, 9, 40, 127
3, 26315, Note_on_c, 9, 40, 0
3, 26689, Note_on_c, 9, 40, 127
3, 26701, Note_on_c, 9, 40, 0
3, 27073, Note_on_c, 9, 40, 127
3, 27085, Note_on_c, 9, 40, 0
3, 27457, Note_on_c, 9, 40, 127
3, 27469, Note_on_c, 9, 40, 0
3, 27841, Note_on_c, 9, 40, 127
3, 27853, Note_on_c, 9, 40, 0
3, 28225, Note_on_c, 9, 40, 127
3, 28237, Note_on_c, 9, 40, 0
3, 28606, Note_on_c, 9, 40, 127
3, 28618, Note_on_c, 9, 40, 0
3, 28993, Note_on_c, 9, 40, 127
3, 29005, Note_on_c, 9, 40, 0
3, 29377, Note_on_c, 9, 40, 127
3, 29389, Note_on_c, 9, 40, 0
3, 29760, Note_on_c, 9, 40, 127
3, 29772, Note_on_c, 9, 40, 0
3, 30145, Note_on_c, 9, 40, 127
3, 30157, Note_on_c, 9, 40, 0
3, 30529, Note_on_c, 9, 40, 127
3, 30541, Note_on_c, 9, 40, 0
3, 30913, Note_on_c, 9, 40, 127
3, 30925, Note_on_c, 9, 40, 0
3, 31298, Note_on_c, 9, 40, 127
3, 31310, Note_on_c, 9, 40, 0
3, 31681, Note_on_c, 9, 40, 127
3, 31693, Note_on_c, 9, 40, 0
3, 32066, Note_on_c, 9, 40, 127
3, 32078, Note_on_c, 9, 40, 0
3, 32450, Note_on_c, 9, 40, 127
3, 32462, Note_on_c, 9, 40, 0
3, 32833, Note_on_c, 9, 40, 127
3, 32845, Note_on_c, 9, 40, 0
3, 33217, Note_on_c, 9, 40, 127
3, 33229, Note_on_c, 9, 40, 0
3, 33601, Note_on_c, 9, 40, 127
3, 33613, Note_on_c, 9, 40, 0
3, 33985, Note_on_c, 9, 40, 127
3, 33997, Note_on_c, 9, 40, 0
3, 34369, Note_on_c, 9, 40, 127
3, 34381, Note_on_c, 9, 40, 0
3, 34755, Note_on_c, 9, 40, 127
3, 34767, Note_on_c, 9, 40, 0
3, 35137, Note_on_c, 9, 40, 127
3, 35149, Note_on_c, 9, 40, 0
3, 35521, Note_on_c, 9, 40, 127
3, 35533, Note_on_c, 9, 40, 0
3, 35904, Note_on_c, 9, 40, 127
3, 35916, Note_on_c, 9, 40, 0
3, 36291, Note_on_c, 9, 40, 127
3, 36303, Note_on_c, 9, 40, 0
3, 36673, Note_on_c, 9, 40, 127
3, 36685, Note_on_c, 9, 40, 0
3, 37058, Note_on_c, 9, 40, 127
3, 37070, Note_on_c, 9, 40, 0
3, 37249, Note_on_c, 9, 40, 127
3, 37261, Note_on_c, 9, 40, 0
3, 37537, Note_on_c, 9, 40, 127
3, 37549, Note_on_c, 9, 40, 0
3, 37825, Note_on_c, 9, 40, 127
3, 37837, Note_on_c, 9, 40, 0
3, 38209, Note_on_c, 9, 40, 127
3, 38221, Note_on_c, 9, 40, 0
3, 38593, Note_on_c, 9, 40, 127
3, 38605, Note_on_c, 9, 40, 0
3, 38977, Note_on_c, 9, 40, 127
3, 38989, Note_on_c, 9, 40, 0
3, 39361, Note_on_c, 9, 40, 127
3, 39373, Note_on_c, 9, 40, 0
3, 39745, Note_on_c, 9, 40, 127
3, 39757, Note_on_c, 9, 40, 0
3, 40133, Note_on_c, 9, 40, 127
3, 40145, Note_on_c, 9, 40, 0
3, 40321, Note_on_c, 9, 40, 127
3, 40333, Note_on_c, 9, 40, 0
3, 40607, Note_on_c, 9, 40, 127
3, 40619, Note_on_c, 9, 40, 0
3, 40897, Note_on_c, 9, 40, 127
3, 40909, Note_on_c, 9, 40, 0
3, 41281, Note_on_c, 9, 40, 127
3, 41293, Note_on_c, 9, 40, 0
3, 41665, Note_on_c, 9, 40, 127
3, 41677, Note_on_c, 9, 40, 0
3, 42050, Note_on_c, 9, 40, 127
3, 42062, Note_on_c, 9, 40, 0
3, 42434, Note_on_c, 9, 40, 127
3, 42446, Note_on_c, 9, 40, 0
3, 42817, Note_on_c, 9, 40, 127
3, 42829, Note_on_c, 9, 40, 0
3, 43202, Note_on_c, 9, 40, 127
3, 43214, Note_on_c, 9, 40, 0
3, 43393, Note_on_c, 9, 40, 127
3, 43405, Note_on_c, 9, 40, 0
3, 43679, Note_on_c, 9, 40, 127
3, 43691, Note_on_c, 9, 40, 0
3, 43969, Note_on_c, 9, 40, 127
3, 43981, Note_on_c, 9, 40, 0
3, 44353, Note_on_c, 9, 40, 127
3, 44365, Note_on_c, 9, 40, 0
3, 44737, Note_on_c, 9, 40, 127
3, 44749, Note_on_c, 9, 40, 0
3, 45121, Note_on_c, 9, 40, 127
3, 45133, Note_on_c, 9, 40, 0
3, 45505, Note_on_c, 9, 40, 127
3, 45517, Note_on_c, 9, 40, 0
3, 45889, Note_on_c, 9, 40, 127
3, 45901, Note_on_c, 9, 40, 0
3, 46277, Note_on_c, 9, 40, 127
3, 46289, Note_on_c, 9, 40, 0
3, 46465, Note_on_c, 9, 40, 127
3, 46477, Note_on_c, 9, 40, 0
3, 46751, Note_on_c, 9, 40, 127
3, 46763, Note_on_c, 9, 40, 0
3, 47043, Note_on_c, 9, 40, 127
3, 47055, Note_on_c, 9, 40, 0
3, 47428, Note_on_c, 9, 40, 127
3, 47440, Note_on_c, 9, 40, 0
3, 47812, Note_on_c, 9, 40, 127
3, 47824, Note_on_c, 9, 40, 0
3, 48194, Note_on_c, 9, 40, 127
3, 48206, Note_on_c, 9, 40, 0
3, 48577, Note_on_c, 9, 40, 127
3, 48589, Note_on_c, 9, 40, 0
3, 48961, Note_on_c, 9, 40, 127
3, 48973, Note_on_c, 9, 40, 0
3, 50497, Note_on_c, 9, 40, 127
3, 50509, Note_on_c, 9, 40, 0
3, 52033, Note_on_c, 9, 40, 127
3, 52045, Note_on_c, 9, 40, 0
3, 52417, Note_on_c, 9, 40, 127
3, 52429, Note_on_c, 9, 40, 0
3, 52801, Note_on_c, 9, 40, 127
3, 52813, Note_on_c, 9, 40, 0
3, 53185, Note_on_c, 9, 40, 127
3, 53197, Note_on_c, 9, 40, 0
3, 53570, Note_on_c, 9, 40, 127
3, 53582, Note_on_c, 9, 40, 0
3, 53953, Note_on_c, 9, 40, 127
3, 53965, Note_on_c, 9, 40, 0
3, 54337, Note_on_c, 9, 40, 127
3, 54349, Note_on_c, 9, 40, 0
3, 54721, Note_on_c, 9, 40, 127
3, 54733, Note_on_c, 9, 40, 0
3, 55105, Note_on_c, 9, 40, 127
3, 55117, Note_on_c, 9, 40, 0
3, 55487, Note_on_c, 9, 40, 127
3, 55499, Note_on_c, 9, 40, 0
3, 55873, Note_on_c, 9, 40, 127
3, 55885, Note_on_c, 9, 40, 0
3, 56257, Note_on_c, 9, 40, 127
3, 56269, Note_on_c, 9, 40, 0
3, 56641, Note_on_c, 9, 40, 127
3, 56653, Note_on_c, 9, 40, 0
3, 57025, Note_on_c, 9, 40, 127
3, 57037, Note_on_c, 9, 40, 0
3, 57409, Note_on_c, 9, 40, 127
3, 57421, Note_on_c, 9, 40, 0
3, 57793, Note_on_c, 9, 40, 127
3, 57805, Note_on_c, 9, 40, 0
3, 58177, Note_on_c, 9, 40, 127
3, 58189, Note_on_c, 9, 40, 0
3, 58563, Note_on_c, 9, 40, 127
3, 58575, Note_on_c, 9, 40, 0
3, 58946, Note_on_c, 9, 40, 127
3, 58958, Note_on_c, 9, 40, 0
3, 59330, Note_on_c, 9, 40, 127
3, 59342, Note_on_c, 9, 40, 0
3, 59713, Note_on_c, 9, 40, 127
3, 59725, Note_on_c, 9, 40, 0
3, 60096, Note_on_c, 9, 40, 127
3, 60108, Note_on_c, 9, 40, 0
3, 60481, Note_on_c, 9, 40, 127
3, 60493, Note_on_c, 9, 40, 0
3, 60865, Note_on_c, 9, 40, 127
3, 60877, Note_on_c, 9, 40, 0
3, 61249, Note_on_c, 9, 40, 127
3, 61261, Note_on_c, 9, 40, 0
3, 61634, Note_on_c, 9, 40, 127
3, 61646, Note_on_c, 9, 40, 0
3, 62020, Note_on_c, 9, 40, 127
3, 62032, Note_on_c, 9, 40, 0
3, 62399, Note_on_c, 9, 40, 127
3, 62411, Note_on_c, 9, 40, 0
3, 62786, Note_on_c, 9, 40, 127
3, 62798, Note_on_c, 9, 40, 0
3, 63169, Note_on_c, 9, 40, 127
3, 63181, Note_on_c, 9, 40, 0
3, 63553, Note_on_c, 9, 40, 127
3, 63565, Note_on_c, 9, 40, 0
3, 63935, Note_on_c, 9, 40, 127
3, 63947, Note_on_c, 9, 40, 0
3, 64322, Note_on_c, 9, 40, 127
3, 64334, Note_on_c, 9, 40, 0
3, 64705, Note_on_c, 9, 40, 127
3, 64717, Note_on_c, 9, 40, 0
3, 65089, Note_on_c, 9, 40, 127
3, 65101, Note_on_c, 9, 40, 0
3, 65473, Note_on_c, 9, 40, 127
3, 65485, Note_on_c, 9, 40, 0
3, 65857, Note_on_c, 9, 40, 127
3, 65869, Note_on_c, 9, 40, 0
3, 66244, Note_on_c, 9, 40, 127
3, 66256, Note_on_c, 9, 40, 0
3, 66628, Note_on_c, 9, 40, 127
3, 66640, Note_on_c, 9, 40, 0
3, 67011, Note_on_c, 9, 40, 127
3, 67023, Note_on_c, 9, 40, 0
3, 67394, Note_on_c, 9, 40, 127
3, 67406, Note_on_c, 9, 40, 0
3, 67778, Note_on_c, 9, 40, 127
3, 67790, Note_on_c, 9, 40, 0
3, 68165, Note_on_c, 9, 40, 127
3, 68177, Note_on_c, 9, 40, 0
3, 68543, Note_on_c, 9, 40, 127
3, 68555, Note_on_c, 9, 40, 0
3, 68929, Note_on_c, 9, 40, 127
3, 68941, Note_on_c, 9, 40, 0
3, 69313, Note_on_c, 9, 40, 127
3, 69325, Note_on_c, 9, 40, 0
3, 69505, Note_on_c, 9, 40, 127
3, 69517, Note_on_c, 9, 40, 0
3, 69791, Note_on_c, 9, 40, 127
3, 69803, Note_on_c, 9, 40, 0
3, 70081, Note_on_c, 9, 40, 127
3, 70093, Note_on_c, 9, 40, 0
3, 70465, Note_on_c, 9, 40, 127
3, 70477, Note_on_c, 9, 40, 0
3, 70848, Note_on_c, 9, 40, 127
3, 70860, Note_on_c, 9, 40, 0
3, 71233, Note_on_c, 9, 40, 127
3, 71245, Note_on_c, 9, 40, 0
3, 71617, Note_on_c, 9, 40, 127
3, 71629, Note_on_c, 9, 40, 0
3, 72001, Note_on_c, 9, 40, 127
3, 72013, Note_on_c, 9, 40, 0
3, 72385, Note_on_c, 9, 40, 127
3, 72397, Note_on_c, 9, 40, 0
3, 72577, Note_on_c, 9, 40, 127
3, 72589, Note_on_c, 9, 40, 0
3, 72867, Note_on_c, 9, 40, 127
3, 72879, Note_on_c, 9, 40, 0
3, 73153, Note_on_c, 9, 40, 127
3, 73165, Note_on_c, 9, 40, 0
3, 73537, Note_on_c, 9, 40, 127
3, 73549, Note_on_c, 9, 40, 0
3, 73919, Note_on_c, 9, 40, 127
3, 73931, Note_on_c, 9, 40, 0
3, 74305, Note_on_c, 9, 40, 127
3, 74317, Note_on_c, 9, 40, 0
3, 74690, Note_on_c, 9, 40, 127
3, 74702, Note_on_c, 9, 40, 0
3, 75073, Note_on_c, 9, 40, 127
3, 75085, Note_on_c, 9, 40, 0
3, 75455, Note_on_c, 9, 40, 127
3, 75467, Note_on_c, 9, 40, 0
3, 75649, Note_on_c, 9, 40, 127
3, 75661, Note_on_c, 9, 40, 0
3, 75935, Note_on_c, 9, 40, 127
3, 75947, Note_on_c, 9, 40, 0
3, 76225, Note_on_c, 9, 40, 127
3, 76237, Note_on_c, 9, 40, 0
3, 76609, Note_on_c, 9, 40, 127
3, 76621, Note_on_c, 9, 40, 0
3, 76992, Note_on_c, 9, 40, 127
3, 77004, Note_on_c, 9, 40, 0
3, 77377, Note_on_c, 9, 40, 127
3, 77389, Note_on_c, 9, 40, 0
3, 77761, Note_on_c, 9, 40, 127
3, 77773, Note_on_c, 9, 40, 0
3, 78145, Note_on_c, 9, 40, 127
3, 78157, Note_on_c, 9, 40, 0
3, 78529, Note_on_c, 9, 40, 127
3, 78541, Note_on_c, 9, 40, 0
3, 78721, Note_on_c, 9, 40, 127
3, 78733, Note_on_c, 9, 40, 0
3, 79011, Note_on_c, 9, 40, 127
3, 79023, Note_on_c, 9, 40, 0
3, 79297, Note_on_c, 9, 40, 127
3, 79309, Note_on_c, 9, 40, 0
3, 79681, Note_on_c, 9, 40, 127
3, 79693, Note_on_c, 9, 40, 0
3, 80065, Note_on_c, 9, 40, 127
3, 80077, Note_on_c, 9, 40, 0
3, 80450, Note_on_c, 9, 40, 127
3, 80462, Note_on_c, 9, 40, 0
3, 80834, Note_on_c, 9, 40, 127
3, 80846, Note_on_c, 9, 40, 0
3, 81219, Note_on_c, 9, 40, 127
3, 81231, Note_on_c, 9, 40, 0
3, 82367, Note_on_c, 9, 40, 127
3, 82379, Note_on_c, 9, 40, 0
3, 82656, Note_on_c, 9, 40, 127
3, 82668, Note_on_c, 9, 40, 0
3, 82668, End_track
4, 0, Start_track
4, 0, MIDI_port, 0
4, 0, Title_t, ""
4, 0, Control_c, 9, 7, 127
4, 0, Control_c, 9, 10, 64
4, 0, Control_c, 9, 91, 0
4, 0, Control_c, 9, 93, 0
4, 383, Note_on_c, 9, 42, 90
4, 395, Note_on_c, 9, 42, 0
4, 575, Note_on_c, 9, 42, 90
4, 587, Note_on_c, 9, 42, 0
4, 1982, Control_c, 9, 91, 0
4, 1982, Control_c, 9, 93, 0
4, 1982, Control_c, 9, 10, 64
4, 1982, Control_c, 9, 7, 127
4, 3936, Note_on_c, 9, 42, 90
4, 3948, Note_on_c, 9, 42, 0
4, 3983, Note_on_c, 9, 42, 90
4, 3995, Note_on_c, 9, 42, 0
4, 4035, Note_on_c, 9, 42, 90
4, 4047, Note_on_c, 9, 42, 0
4, 4127, Note_on_c, 9, 42, 90
4, 4139, Note_on_c, 9, 42, 0
4, 4175, Note_on_c, 9, 42, 90
4, 4187, Note_on_c, 9, 42, 0
4, 4225, Note_on_c, 9, 42, 90
4, 4237, Note_on_c, 9, 42, 0
4, 4319, Note_on_c, 9, 42, 90
4, 4331, Note_on_c, 9, 42, 0
4, 4367, Note_on_c, 9, 42, 90
4, 4379, Note_on_c, 9, 42, 0
4, 4417, Note_on_c, 9, 42, 90
4, 4429, Note_on_c, 9, 42, 0
4, 4511, Note_on_c, 9, 42, 90
4, 4523, Note_on_c, 9, 42, 0
4, 4559, Note_on_c, 9, 42, 90
4, 4571, Note_on_c, 9, 42, 0
4, 4609, Note_on_c, 9, 42, 114
4, 4621, Note_on_c, 9, 42, 0
4, 4703, Note_on_c, 9, 42, 114
4, 4715, Note_on_c, 9, 42, 0
4, 4751, Note_on_c, 9, 42, 114
4, 4763, Note_on_c, 9, 42, 0
4, 4801, Note_on_c, 9, 42, 114
4, 4813, Note_on_c, 9, 42, 0
4, 4896, Note_on_c, 9, 42, 114
4, 4908, Note_on_c, 9, 42, 0
4, 4945, Note_on_c, 9, 42, 114
4, 4957, Note_on_c, 9, 42, 0
4, 4993, Note_on_c, 9, 42, 114
4, 5005, Note_on_c, 9, 42, 0
4, 5088, Note_on_c, 9, 42, 114
4, 5100, Note_on_c, 9, 42, 0
4, 5136, Note_on_c, 9, 42, 114
4, 5148, Note_on_c, 9, 42, 0
4, 5185, Note_on_c, 9, 42, 114
4, 5197, Note_on_c, 9, 42, 0
4, 5279, Note_on_c, 9, 42, 114
4, 5291, Note_on_c, 9, 42, 0
4, 5328, Note_on_c, 9, 42, 114
4, 5340, Note_on_c, 9, 42, 0
4, 5472, Note_on_c, 9, 42, 114
4, 5484, Note_on_c, 9, 42, 0
4, 5519, Note_on_c, 9, 42, 114
4, 5531, Note_on_c, 9, 42, 0
4, 5664, Note_on_c, 9, 42, 114
4, 5676, Note_on_c, 9, 42, 0
4, 5711, Note_on_c, 9, 42, 114
4, 5723, Note_on_c, 9, 42, 0
4, 5856, Note_on_c, 9, 42, 114
4, 5868, Note_on_c, 9, 42, 0
4, 5903, Note_on_c, 9, 42, 114
4, 5915, Note_on_c, 9, 42, 0
4, 6047, Note_on_c, 9, 42, 114
4, 6059, Note_on_c, 9, 42, 0
4, 6096, Note_on_c, 9, 42, 114
4, 6108, Note_on_c, 9, 42, 0
4, 6147, Note_on_c, 9, 42, 114
4, 6159, Note_on_c, 9, 42, 0
4, 6240, Note_on_c, 9, 42, 114
4, 6252, Note_on_c, 9, 42, 0
4, 6285, Note_on_c, 9, 42, 114
4, 6297, Note_on_c, 9, 42, 0
4, 6334, Note_on_c, 9, 42, 114
4, 6346, Note_on_c, 9, 42, 0
4, 6432, Note_on_c, 9, 42, 114
4, 6444, Note_on_c, 9, 42, 0
4, 6480, Note_on_c, 9, 42, 114
4, 6492, Note_on_c, 9, 42, 0
4, 6529, Note_on_c, 9, 42, 114
4, 6541, Note_on_c, 9, 42, 0
4, 6623, Note_on_c, 9, 42, 114
4, 6635, Note_on_c, 9, 42, 0
4, 6669, Note_on_c, 9, 42, 114
4, 6681, Note_on_c, 9, 42, 0
4, 6721, Note_on_c, 9, 42, 114
4, 6733, Note_on_c, 9, 42, 0
4, 6814, Note_on_c, 9, 42, 114
4, 6826, Note_on_c, 9, 42, 0
4, 6864, Note_on_c, 9, 42, 114
4, 6876, Note_on_c, 9, 42, 0
4, 6915, Note_on_c, 9, 42, 114
4, 6927, Note_on_c, 9, 42, 0
4, 7008, Note_on_c, 9, 42, 114
4, 7020, Note_on_c, 9, 42, 0
4, 7054, Note_on_c, 9, 42, 114
4, 7066, Note_on_c, 9, 42, 0
4, 7106, Note_on_c, 9, 42, 114
4, 7118, Note_on_c, 9, 42, 0
4, 7199, Note_on_c, 9, 42, 114
4, 7211, Note_on_c, 9, 42, 0
4, 7247, Note_on_c, 9, 42, 114
4, 7259, Note_on_c, 9, 42, 0
4, 7297, Note_on_c, 9, 42, 114
4, 7309, Note_on_c, 9, 42, 0
4, 7391, Note_on_c, 9, 42, 114
4, 7403, Note_on_c, 9, 42, 0
4, 7437, Note_on_c, 9, 42, 114
4, 7449, Note_on_c, 9, 42, 0
4, 7489, Note_on_c, 9, 42, 114
4, 7501, Note_on_c, 9, 42, 0
4, 7583, Note_on_c, 9, 42, 114
4, 7595, Note_on_c, 9, 42, 0
4, 7632, Note_on_c, 9, 42, 114
4, 7644, Note_on_c, 9, 42, 0
4, 7683, Note_on_c, 9, 42, 114
4, 7695, Note_on_c, 9, 42, 0
4, 7776, Note_on_c, 9, 42, 114
4, 7788, Note_on_c, 9, 42, 0
4, 7823, Note_on_c, 9, 42, 114
4, 7835, Note_on_c, 9, 42, 0
4, 7873, Note_on_c, 9, 42, 114
4, 7885, Note_on_c, 9, 42, 0
4, 7968, Note_on_c, 9, 42, 114
4, 7980, Note_on_c, 9, 42, 0
4, 8018, Note_on_c, 9, 42, 114
4, 8030, Note_on_c, 9, 42, 0
4, 8064, Note_on_c, 9, 42, 114
4, 8076, Note_on_c, 9, 42, 0
4, 8160, Note_on_c, 9, 42, 114
4, 8172, Note_on_c, 9, 42, 0
4, 8208, Note_on_c, 9, 42, 114
4, 8220, Note_on_c, 9, 42, 0
4, 8258, Note_on_c, 9, 42, 114
4, 8270, Note_on_c, 9, 42, 0
4, 8351, Note_on_c, 9, 42, 114
4, 8363, Note_on_c, 9, 42, 0
4, 8402, Note_on_c, 9, 42, 114
4, 8414, Note_on_c, 9, 42, 0
4, 8544, Note_on_c, 9, 42, 114
4, 8556, Note_on_c, 9, 42, 0
4, 8590, Note_on_c, 9, 42, 114
4, 8602, Note_on_c, 9, 42, 0
4, 8736, Note_on_c, 9, 42, 114
4, 8748, Note_on_c, 9, 42, 0
4, 8783, Note_on_c, 9, 42, 114
4, 8795, Note_on_c, 9, 42, 0
4, 8928, Note_on_c, 9, 42, 114
4, 8940, Note_on_c, 9, 42, 0
4, 8976, Note_on_c, 9, 42, 114
4, 8988, Note_on_c, 9, 42, 0
4, 9119, Note_on_c, 9, 42, 114
4, 9131, Note_on_c, 9, 42, 0
4, 9168, Note_on_c, 9, 42, 114
4, 9180, Note_on_c, 9, 42, 0
4, 9219, Note_on_c, 9, 42, 114
4, 9231, Note_on_c, 9, 42, 0
4, 9312, Note_on_c, 9, 42, 114
4, 9324, Note_on_c, 9, 42, 0
4, 9358, Note_on_c, 9, 42, 114
4, 9370, Note_on_c, 9, 42, 0
4, 9409, Note_on_c, 9, 42, 114
4, 9421, Note_on_c, 9, 42, 0
4, 9504, Note_on_c, 9, 42, 114
4, 9516, Note_on_c, 9, 42, 0
4, 9552, Note_on_c, 9, 42, 114
4, 9564, Note_on_c, 9, 42, 0
4, 9601, Note_on_c, 9, 42, 114
4, 9613, Note_on_c, 9, 42, 0
4, 9696, Note_on_c, 9, 42, 114
4, 9708, Note_on_c, 9, 42, 0
4, 9742, Note_on_c, 9, 42, 114
4, 9754, Note_on_c, 9, 42, 0
4, 9794, Note_on_c, 9, 42, 114
4, 9806, Note_on_c, 9, 42, 0
4, 9889, Note_on_c, 9, 42, 114
4, 9901, Note_on_c, 9, 42, 0
4, 9936, Note_on_c, 9, 42, 114
4, 9948, Note_on_c, 9, 42, 0
4, 9985, Note_on_c, 9, 42, 114
4, 9997, Note_on_c, 9, 42, 0
4, 10079, Note_on_c, 9, 42, 114
4, 10091, Note_on_c, 9, 42, 0
4, 10128, Note_on_c, 9, 42, 114
4, 10140, Note_on_c, 9, 42, 0
4, 10177, Note_on_c, 9, 42, 114
4, 10189, Note_on_c, 9, 42, 0
4, 10272, Note_on_c, 9, 42, 114
4, 10284, Note_on_c, 9, 42, 0
4, 10320, Note_on_c, 9, 42, 114
4, 10332, Note_on_c, 9, 42, 0
4, 10370, Note_on_c, 9, 42, 114
4, 10382, Note_on_c, 9, 42, 0
4, 10464, Note_on_c, 9, 42, 114
4, 10476, Note_on_c, 9, 42, 0
4, 10513, Note_on_c, 9, 42, 114
4, 10525, Note_on_c, 9, 42, 0
4, 10564, Note_on_c, 9, 42, 114
4, 10576, Note_on_c, 9, 42, 0
4, 10655, Note_on_c, 9, 42, 114
4, 10667, Note_on_c, 9, 42, 0
4, 10703, Note_on_c, 9, 42, 114
4, 10715, Note_on_c, 9, 42, 0
4, 10753, Note_on_c, 9, 42, 114
4, 10765, Note_on_c, 9, 42, 0
4, 10847, Note_on_c, 9, 42, 114
4, 10859, Note_on_c, 9, 42, 0
4, 10895, Note_on_c, 9, 42, 114
4, 10907, Note_on_c, 9, 42, 0
4, 10945, Note_on_c, 9, 42, 114
4, 10957, Note_on_c, 9, 42, 0
4, 11040, Note_on_c, 9, 42, 114
4, 11052, Note_on_c, 9, 42, 0
4, 11088, Note_on_c, 9, 42, 114
4, 11100, Note_on_c, 9, 42, 0
4, 11136, Note_on_c, 9, 42, 114
4, 11148, Note_on_c, 9, 42, 0
4, 11232, Note_on_c, 9, 42, 114
4, 11244, Note_on_c, 9, 42, 0
4, 11278, Note_on_c, 9, 42, 114
4, 11290, Note_on_c, 9, 42, 0
4, 11330, Note_on_c, 9, 42, 114
4, 11342, Note_on_c, 9, 42, 0
4, 11423, Note_on_c, 9, 42, 114
4, 11435, Note_on_c, 9, 42, 0
4, 11472, Note_on_c, 9, 42, 114
4, 11484, Note_on_c, 9, 42, 0
4, 11525, Note_on_c, 9, 42, 114
4, 11537, Note_on_c, 9, 42, 0
4, 11615, Note_on_c, 9, 42, 114
4, 11627, Note_on_c, 9, 42, 0
4, 11665, Note_on_c, 9, 42, 114
4, 11677, Note_on_c, 9, 42, 0
4, 11713, Note_on_c, 9, 42, 114
4, 11725, Note_on_c, 9, 42, 0
4, 11809, Note_on_c, 9, 42, 114
4, 11821, Note_on_c, 9, 42, 0
4, 11855, Note_on_c, 9, 42, 114
4, 11867, Note_on_c, 9, 42, 0
4, 11908, Note_on_c, 9, 42, 114
4, 11920, Note_on_c, 9, 42, 0
4, 12001, Note_on_c, 9, 42, 114
4, 12013, Note_on_c, 9, 42, 0
4, 12046, Note_on_c, 9, 42, 114
4, 12058, Note_on_c, 9, 42, 0
4, 12099, Note_on_c, 9, 42, 114
4, 12111, Note_on_c, 9, 42, 0
4, 12193, Note_on_c, 9, 42, 114
4, 12205, Note_on_c, 9, 42, 0
4, 12239, Note_on_c, 9, 42, 114
4, 12251, Note_on_c, 9, 42, 0
4, 12288, Note_on_c, 9, 42, 114
4, 12300, Note_on_c, 9, 42, 0
4, 12383, Note_on_c, 9, 42, 114
4, 12395, Note_on_c, 9, 42, 0
4, 12429, Note_on_c, 9, 42, 114
4, 12441, Note_on_c, 9, 42, 0
4, 12481, Note_on_c, 9, 42, 114
4, 12493, Note_on_c, 9, 42, 0
4, 12576, Note_on_c, 9, 42, 114
4, 12588, Note_on_c, 9, 42, 0
4, 12623, Note_on_c, 9, 42, 114
4, 12635, Note_on_c, 9, 42, 0
4, 12676, Note_on_c, 9, 42, 114
4, 12688, Note_on_c, 9, 42, 0
4, 12768, Note_on_c, 9, 42, 114
4, 12780, Note_on_c, 9, 42, 0
4, 12817, Note_on_c, 9, 42, 114
4, 12829, Note_on_c, 9, 42, 0
4, 12868, Note_on_c, 9, 42, 114
4, 12880, Note_on_c, 9, 42, 0
4, 12960, Note_on_c, 9, 42, 114
4, 12972, Note_on_c, 9, 42, 0
4, 13008, Note_on_c, 9, 42, 114
4, 13020, Note_on_c, 9, 42, 0
4, 13057, Note_on_c, 9, 42, 114
4, 13069, Note_on_c, 9, 42, 0
4, 13151, Note_on_c, 9, 42, 114
4, 13163, Note_on_c, 9, 42, 0
4, 13199, Note_on_c, 9, 42, 114
4, 13211, Note_on_c, 9, 42, 0
4, 13249, Note_on_c, 9, 42, 114
4, 13261, Note_on_c, 9, 42, 0
4, 13343, Note_on_c, 9, 42, 114
4, 13355, Note_on_c, 9, 42, 0
4, 13391, Note_on_c, 9, 42, 114
4, 13403, Note_on_c, 9, 42, 0
4, 13441, Note_on_c, 9, 42, 114
4, 13453, Note_on_c, 9, 42, 0
4, 13536, Note_on_c, 9, 42, 114
4, 13548, Note_on_c, 9, 42, 0
4, 13583, Note_on_c, 9, 42, 114
4, 13595, Note_on_c, 9, 42, 0
4, 13636, Note_on_c, 9, 42, 114
4, 13648, Note_on_c, 9, 42, 0
4, 13727, Note_on_c, 9, 42, 114
4, 13739, Note_on_c, 9, 42, 0
4, 13777, Note_on_c, 9, 42, 114
4, 13789, Note_on_c, 9, 42, 0
4, 13825, Note_on_c, 9, 42, 114
4, 13837, Note_on_c, 9, 42, 0
4, 13920, Note_on_c, 9, 42, 114
4, 13932, Note_on_c, 9, 42, 0
4, 13968, Note_on_c, 9, 42, 114
4, 13980, Note_on_c, 9, 42, 0
4, 14017, Note_on_c, 9, 42, 114
4, 14029, Note_on_c, 9, 42, 0
4, 14112, Note_on_c, 9, 42, 114
4, 14124, Note_on_c, 9, 42, 0
4, 14160, Note_on_c, 9, 42, 114
4, 14172, Note_on_c, 9, 42, 0
4, 14209, Note_on_c, 9, 42, 114
4, 14221, Note_on_c, 9, 42, 0
4, 14304, Note_on_c, 9, 42, 114
4, 14316, Note_on_c, 9, 42, 0
4, 14352, Note_on_c, 9, 42, 114
4, 14364, Note_on_c, 9, 42, 0
4, 14402, Note_on_c, 9, 42, 114
4, 14414, Note_on_c, 9, 42, 0
4, 14497, Note_on_c, 9, 42, 114
4, 14509, Note_on_c, 9, 42, 0
4, 14544, Note_on_c, 9, 42, 114
4, 14556, Note_on_c, 9, 42, 0
4, 14598, Note_on_c, 9, 42, 114
4, 14610, Note_on_c, 9, 42, 0
4, 14688, Note_on_c, 9, 42, 114
4, 14700, Note_on_c, 9, 42, 0
4, 14735, Note_on_c, 9, 42, 114
4, 14747, Note_on_c, 9, 42, 0
4, 14787, Note_on_c, 9, 42, 114
4, 14799, Note_on_c, 9, 42, 0
4, 14880, Note_on_c, 9, 42, 114
4, 14892, Note_on_c, 9, 42, 0
4, 14928, Note_on_c, 9, 42, 114
4, 14940, Note_on_c, 9, 42, 0
4, 14977, Note_on_c, 9, 42, 114
4, 14989, Note_on_c, 9, 42, 0
4, 15073, Note_on_c, 9, 42, 114
4, 15085, Note_on_c, 9, 42, 0
4, 15119, Note_on_c, 9, 42, 114
4, 15131, Note_on_c, 9, 42, 0
4, 15172, Note_on_c, 9, 42, 114
4, 15184, Note_on_c, 9, 42, 0
4, 15264, Note_on_c, 9, 42, 114
4, 15276, Note_on_c, 9, 42, 0
4, 15312, Note_on_c, 9, 42, 114
4, 15324, Note_on_c, 9, 42, 0
4, 15361, Note_on_c, 9, 42, 114
4, 15373, Note_on_c, 9, 42, 0
4, 15456, Note_on_c, 9, 42, 114
4, 15468, Note_on_c, 9, 42, 0
4, 15505, Note_on_c, 9, 42, 114
4, 15517, Note_on_c, 9, 42, 0
4, 15553, Note_on_c, 9, 42, 114
4, 15565, Note_on_c, 9, 42, 0
4, 15648, Note_on_c, 9, 42, 114
4, 15660, Note_on_c, 9, 42, 0
4, 15696, Note_on_c, 9, 42, 114
4, 15708, Note_on_c, 9, 42, 0
4, 15746, Note_on_c, 9, 42, 114
4, 15758, Note_on_c, 9, 42, 0
4, 15840, Note_on_c, 9, 42, 114
4, 15852, Note_on_c, 9, 42, 0
4, 15886, Note_on_c, 9, 42, 114
4, 15898, Note_on_c, 9, 42, 0
4, 15940, Note_on_c, 9, 42, 114
4, 15952, Note_on_c, 9, 42, 0
4, 16032, Note_on_c, 9, 42, 114
4, 16044, Note_on_c, 9, 42, 0
4, 16080, Note_on_c, 9, 42, 114
4, 16092, Note_on_c, 9, 42, 0
4, 16129, Note_on_c, 9, 42, 114
4, 16141, Note_on_c, 9, 42, 0
4, 16223, Note_on_c, 9, 42, 114
4, 16235, Note_on_c, 9, 42, 0
4, 16272, Note_on_c, 9, 42, 114
4, 16284, Note_on_c, 9, 42, 0
4, 16324, Note_on_c, 9, 42, 114
4, 16336, Note_on_c, 9, 42, 0
4, 16416, Note_on_c, 9, 42, 114
4, 16428, Note_on_c, 9, 42, 0
4, 16464, Note_on_c, 9, 42, 114
4, 16476, Note_on_c, 9, 42, 0
4, 16514, Note_on_c, 9, 42, 114
4, 16526, Note_on_c, 9, 42, 0
4, 16607, Note_on_c, 9, 42, 114
4, 16619, Note_on_c, 9, 42, 0
4, 16657, Note_on_c, 9, 42, 114
4, 16669, Note_on_c, 9, 42, 0
4, 16705, Note_on_c, 9, 42, 114
4, 16717, Note_on_c, 9, 42, 0
4, 16799, Note_on_c, 9, 42, 114
4, 16811, Note_on_c, 9, 42, 0
4, 16847, Note_on_c, 9, 42, 114
4, 16859, Note_on_c, 9, 42, 0
4, 16897, Note_on_c, 9, 42, 114
4, 16909, Note_on_c, 9, 42, 0
4, 16992, Note_on_c, 9, 42, 114
4, 17004, Note_on_c, 9, 42, 0
4, 17038, Note_on_c, 9, 42, 114
4, 17050, Note_on_c, 9, 42, 0
4, 17091, Note_on_c, 9, 42, 114
4, 17103, Note_on_c, 9, 42, 0
4, 17184, Note_on_c, 9, 42, 114
4, 17196, Note_on_c, 9, 42, 0
4, 17231, Note_on_c, 9, 42, 114
4, 17243, Note_on_c, 9, 42, 0
4, 17281, Note_on_c, 9, 42, 114
4, 17293, Note_on_c, 9, 42, 0
4, 17376, Note_on_c, 9, 42, 114
4, 17388, Note_on_c, 9, 42, 0
4, 17422, Note_on_c, 9, 42, 114
4, 17434, Note_on_c, 9, 42, 0
4, 17473, Note_on_c, 9, 42, 114
4, 17485, Note_on_c, 9, 42, 0
4, 17567, Note_on_c, 9, 42, 114
4, 17579, Note_on_c, 9, 42, 0
4, 17615, Note_on_c, 9, 42, 114
4, 17627, Note_on_c, 9, 42, 0
4, 17667, Note_on_c, 9, 42, 114
4, 17679, Note_on_c, 9, 42, 0
4, 17760, Note_on_c, 9, 42, 114
4, 17772, Note_on_c, 9, 42, 0
4, 17809, Note_on_c, 9, 42, 114
4, 17821, Note_on_c, 9, 42, 0
4, 17857, Note_on_c, 9, 42, 114
4, 17869, Note_on_c, 9, 42, 0
4, 17952, Note_on_c, 9, 42, 114
4, 17964, Note_on_c, 9, 42, 0
4, 18000, Note_on_c, 9, 42, 114
4, 18012, Note_on_c, 9, 42, 0
4, 18050, Note_on_c, 9, 42, 114
4, 18062, Note_on_c, 9, 42, 0
4, 18145, Note_on_c, 9, 42, 114
4, 18157, Note_on_c, 9, 42, 0
4, 18194, Note_on_c, 9, 42, 114
4, 18206, Note_on_c, 9, 42, 0
4, 18244, Note_on_c, 9, 42, 114
4, 18256, Note_on_c, 9, 42, 0
4, 18335, Note_on_c, 9, 42, 114
4, 18347, Note_on_c, 9, 42, 0
4, 18384, Note_on_c, 9, 42, 114
4, 18396, Note_on_c, 9, 42, 0
4, 18433, Note_on_c, 9, 42, 114
4, 18445, Note_on_c, 9, 42, 0
4, 18528, Note_on_c, 9, 42, 114
4, 18540, Note_on_c, 9, 42, 0
4, 18574, Note_on_c, 9, 42, 114
4, 18586, Note_on_c, 9, 42, 0
4, 18625, Note_on_c, 9, 42, 114
4, 18637, Note_on_c, 9, 42, 0
4, 18720, Note_on_c, 9, 42, 114
4, 18732, Note_on_c, 9, 42, 0
4, 18767, Note_on_c, 9, 42, 114
4, 18779, Note_on_c, 9, 42, 0
4, 18820, Note_on_c, 9, 42, 114
4, 18832, Note_on_c, 9, 42, 0
4, 18911, Note_on_c, 9, 42, 114
4, 18923, Note_on_c, 9, 42, 0
4, 18959, Note_on_c, 9, 42, 114
4, 18971, Note_on_c, 9, 42, 0
4, 19009, Note_on_c, 9, 42, 114
4, 19021, Note_on_c, 9, 42, 0
4, 19103, Note_on_c, 9, 42, 114
4, 19115, Note_on_c, 9, 42, 0
4, 19152, Note_on_c, 9, 42, 114
4, 19164, Note_on_c, 9, 42, 0
4, 19201, Note_on_c, 9, 42, 114
4, 19213, Note_on_c, 9, 42, 0
4, 19296, Note_on_c, 9, 42, 114
4, 19308, Note_on_c, 9, 42, 0
4, 19343, Note_on_c, 9, 42, 114
4, 19355, Note_on_c, 9, 42, 0
4, 19393, Note_on_c, 9, 42, 114
4, 19405, Note_on_c, 9, 42, 0
4, 19487, Note_on_c, 9, 42, 114
4, 19499, Note_on_c, 9, 42, 0
4, 19535, Note_on_c, 9, 42, 114
4, 19547, Note_on_c, 9, 42, 0
4, 19586, Note_on_c, 9, 42, 114
4, 19598, Note_on_c, 9, 42, 0
4, 20017, Note_on_c, 9, 42, 114
4, 20029, Note_on_c, 9, 42, 0
4, 20114, Note_on_c, 9, 42, 114
4, 20126, Note_on_c, 9, 42, 0
4, 20164, Note_on_c, 9, 42, 114
4, 20176, Note_on_c, 9, 42, 0
4, 20209, Note_on_c, 9, 42, 114
4, 20221, Note_on_c, 9, 42, 0
4, 20305, Note_on_c, 9, 42, 114
4, 20317, Note_on_c, 9, 42, 0
4, 20355, Note_on_c, 9, 42, 114
4, 20367, Note_on_c, 9, 42, 0
4, 20402, Note_on_c, 9, 42, 114
4, 20414, Note_on_c, 9, 42, 0
4, 20497, Note_on_c, 9, 42, 114
4, 20509, Note_on_c, 9, 42, 0
4, 20548, Note_on_c, 9, 42, 114
4, 20560, Note_on_c, 9, 42, 0
4, 20594, Note_on_c, 9, 42, 114
4, 20606, Note_on_c, 9, 42, 0
4, 20687, Note_on_c, 9, 42, 114
4, 20699, Note_on_c, 9, 42, 0
4, 20739, Note_on_c, 9, 42, 114
4, 20751, Note_on_c, 9, 42, 0
4, 20783, Note_on_c, 9, 42, 114
4, 20795, Note_on_c, 9, 42, 0
4, 20879, Note_on_c, 9, 42, 114
4, 20891, Note_on_c, 9, 42, 0
4, 20929, Note_on_c, 9, 42, 114
4, 20941, Note_on_c, 9, 42, 0
4, 20975, Note_on_c, 9, 42, 114
4, 20987, Note_on_c, 9, 42, 0
4, 21071, Note_on_c, 9, 42, 114
4, 21083, Note_on_c, 9, 42, 0
4, 21121, Note_on_c, 9, 42, 114
4, 21133, Note_on_c, 9, 42, 0
4, 21167, Note_on_c, 9, 42, 114
4, 21179, Note_on_c, 9, 42, 0
4, 21264, Note_on_c, 9, 42, 114
4, 21276, Note_on_c, 9, 42, 0
4, 21312, Note_on_c, 9, 42, 114
4, 21324, Note_on_c, 9, 42, 0
4, 21359, Note_on_c, 9, 42, 114
4, 21371, Note_on_c, 9, 42, 0
4, 21456, Note_on_c, 9, 42, 114
4, 21468, Note_on_c, 9, 42, 0
4, 21507, Note_on_c, 9, 42, 114
4, 21519, Note_on_c, 9, 42, 0
4, 21551, Note_on_c, 9, 42, 114
4, 21563, Note_on_c, 9, 42, 0
4, 21645, Note_on_c, 9, 42, 114
4, 21657, Note_on_c, 9, 42, 0
4, 21697, Note_on_c, 9, 42, 114
4, 21709, Note_on_c, 9, 42, 0
4, 21744, Note_on_c, 9, 42, 114
4, 21756, Note_on_c, 9, 42, 0
4, 21839, Note_on_c, 9, 42, 114
4, 21851, Note_on_c, 9, 42, 0
4, 21892, Note_on_c, 9, 42, 114
4, 21904, Note_on_c, 9, 42, 0
4, 21936, Note_on_c, 9, 42, 114
4, 21948, Note_on_c, 9, 42, 0
4, 22032, Note_on_c, 9, 42, 114
4, 22044, Note_on_c, 9, 42, 0
4, 22081, Note_on_c, 9, 42, 114
4, 22093, Note_on_c, 9, 42, 0
4, 22127, Note_on_c, 9, 42, 114
4, 22139, Note_on_c, 9, 42, 0
4, 22224, Note_on_c, 9, 42, 114
4, 22236, Note_on_c, 9, 42, 0
4, 22275, Note_on_c, 9, 42, 114
4, 22287, Note_on_c, 9, 42, 0
4, 22368, Note_on_c, 9, 42, 114
4, 22380, Note_on_c, 9, 42, 0
4, 22416, Note_on_c, 9, 42, 114
4, 22428, Note_on_c, 9, 42, 0
4, 22465, Note_on_c, 9, 42, 114
4, 22477, Note_on_c, 9, 42, 0
4, 22560, Note_on_c, 9, 42, 114
4, 22572, Note_on_c, 9, 42, 0
4, 22608, Note_on_c, 9, 42, 114
4, 22620, Note_on_c, 9, 42, 0
4, 22657, Note_on_c, 9, 42, 114
4, 22669, Note_on_c, 9, 42, 0
4, 23047, Note_on_c, 9, 42, 114
4, 23059, Note_on_c, 9, 42, 0
4, 23087, Note_on_c, 9, 42, 114
4, 23099, Note_on_c, 9, 42, 0
4, 23184, Note_on_c, 9, 42, 114
4, 23196, Note_on_c, 9, 42, 0
4, 23233, Note_on_c, 9, 42, 114
4, 23245, Note_on_c, 9, 42, 0
4, 23280, Note_on_c, 9, 42, 114
4, 23292, Note_on_c, 9, 42, 0
4, 23375, Note_on_c, 9, 42, 114
4, 23387, Note_on_c, 9, 42, 0
4, 23427, Note_on_c, 9, 42, 114
4, 23439, Note_on_c, 9, 42, 0
4, 23472, Note_on_c, 9, 42, 114
4, 23484, Note_on_c, 9, 42, 0
4, 23568, Note_on_c, 9, 42, 114
4, 23580, Note_on_c, 9, 42, 0
4, 23618, Note_on_c, 9, 42, 114
4, 23630, Note_on_c, 9, 42, 0
4, 23664, Note_on_c, 9, 42, 114
4, 23676, Note_on_c, 9, 42, 0
4, 23763, Note_on_c, 9, 42, 114
4, 23775, Note_on_c, 9, 42, 0
4, 23811, Note_on_c, 9, 42, 114
4, 23823, Note_on_c, 9, 42, 0
4, 23855, Note_on_c, 9, 42, 114
4, 23867, Note_on_c, 9, 42, 0
4, 23951, Note_on_c, 9, 42, 114
4, 23963, Note_on_c, 9, 42, 0
4, 24001, Note_on_c, 9, 42, 114
4, 24013, Note_on_c, 9, 42, 0
4, 24047, Note_on_c, 9, 42, 114
4, 24059, Note_on_c, 9, 42, 0
4, 24144, Note_on_c, 9, 42, 114
4, 24156, Note_on_c, 9, 42, 0
4, 24195, Note_on_c, 9, 42, 114
4, 24207, Note_on_c, 9, 42, 0
4, 24239, Note_on_c, 9, 42, 114
4, 24251, Note_on_c, 9, 42, 0
4, 24335, Note_on_c, 9, 42, 114
4, 24347, Note_on_c, 9, 42, 0
4, 24383, Note_on_c, 9, 42, 114
4, 24395, Note_on_c, 9, 42, 0
4, 24432, Note_on_c, 9, 42, 114
4, 24444, Note_on_c, 9, 42, 0
4, 24528, Note_on_c, 9, 42, 114
4, 24540, Note_on_c, 9, 42, 0
4, 24577, Note_on_c, 9, 42, 114
4, 24589, Note_on_c, 9, 42, 0
4, 24623, Note_on_c, 9, 42, 114
4, 24635, Note_on_c, 9, 42, 0
4, 24719, Note_on_c, 9, 42, 114
4, 24731, Note_on_c, 9, 42, 0
4, 24769, Note_on_c, 9, 42, 114
4, 24781, Note_on_c, 9, 42, 0
4, 24815, Note_on_c, 9, 42, 114
4, 24827, Note_on_c, 9, 42, 0
4, 24912, Note_on_c, 9, 42, 114
4, 24924, Note_on_c, 9, 42, 0
4, 24964, Note_on_c, 9, 42, 114
4, 24976, Note_on_c, 9, 42, 0
4, 25008, Note_on_c, 9, 42, 114
4, 25020, Note_on_c, 9, 42, 0
4, 25103, Note_on_c, 9, 42, 114
4, 25115, Note_on_c, 9, 42, 0
4, 25153, Note_on_c, 9, 42, 114
4, 25165, Note_on_c, 9, 42, 0
4, 25199, Note_on_c, 9, 42, 114
4, 25211, Note_on_c, 9, 42, 0
4, 25295, Note_on_c, 9, 42, 114
4, 25307, Note_on_c, 9, 42, 0
4, 25345, Note_on_c, 9, 42, 114
4, 25357, Note_on_c, 9, 42, 0
4, 25394, Note_on_c, 9, 42, 114
4, 25406, Note_on_c, 9, 42, 0
4, 25487, Note_on_c, 9, 42, 114
4, 25499, Note_on_c, 9, 42, 0
4, 25538, Note_on_c, 9, 42, 114
4, 25550, Note_on_c, 9, 42, 0
4, 25583, Note_on_c, 9, 42, 114
4, 25595, Note_on_c, 9, 42, 0
4, 25684, Note_on_c, 9, 42, 114
4, 25696, Note_on_c, 9, 42, 0
4, 25735, Note_on_c, 9, 42, 114
4, 25747, Note_on_c, 9, 42, 0
4, 26208, Note_on_c, 9, 42, 114
4, 26220, Note_on_c, 9, 42, 0
4, 26256, Note_on_c, 9, 42, 114
4, 26268, Note_on_c, 9, 42, 0
4, 26400, Note_on_c, 9, 42, 114
4, 26412, Note_on_c, 9, 42, 0
4, 26448, Note_on_c, 9, 42, 114
4, 26460, Note_on_c, 9, 42, 0
4, 26591, Note_on_c, 9, 42, 114
4, 26603, Note_on_c, 9, 42, 0
4, 26638, Note_on_c, 9, 42, 114
4, 26650, Note_on_c, 9, 42, 0
4, 26783, Note_on_c, 9, 42, 114
4, 26795, Note_on_c, 9, 42, 0
4, 26832, Note_on_c, 9, 42, 114
4, 26844, Note_on_c, 9, 42, 0
4, 26883, Note_on_c, 9, 42, 114
4, 26895, Note_on_c, 9, 42, 0
4, 26975, Note_on_c, 9, 42, 114
4, 26987, Note_on_c, 9, 42, 0
4, 27021, Note_on_c, 9, 42, 114
4, 27033, Note_on_c, 9, 42, 0
4, 27073, Note_on_c, 9, 42, 114
4, 27085, Note_on_c, 9, 42, 0
4, 27168, Note_on_c, 9, 42, 114
4, 27180, Note_on_c, 9, 42, 0
4, 27216, Note_on_c, 9, 42, 114
4, 27228, Note_on_c, 9, 42, 0
4, 27265, Note_on_c, 9, 42, 114
4, 27277, Note_on_c, 9, 42, 0
4, 27360, Note_on_c, 9, 42, 114
4, 27372, Note_on_c, 9, 42, 0
4, 27407, Note_on_c, 9, 42, 114
4, 27419, Note_on_c, 9, 42, 0
4, 27457, Note_on_c, 9, 42, 114
4, 27469, Note_on_c, 9, 42, 0
4, 27553, Note_on_c, 9, 42, 114
4, 27565, Note_on_c, 9, 42, 0
4, 27600, Note_on_c, 9, 42, 114
4, 27612, Note_on_c, 9, 42, 0
4, 27649, Note_on_c, 9, 42, 114
4, 27661, Note_on_c, 9, 42, 0
4, 27743, Note_on_c, 9, 42, 114
4, 27755, Note_on_c, 9, 42, 0
4, 27792, Note_on_c, 9, 42, 114
4, 27804, Note_on_c, 9, 42, 0
4, 27841, Note_on_c, 9, 42, 114
4, 27853, Note_on_c, 9, 42, 0
4, 27936, Note_on_c, 9, 42, 114
4, 27948, Note_on_c, 9, 42, 0
4, 27983, Note_on_c, 9, 42, 114
4, 27995, Note_on_c, 9, 42, 0
4, 28034, Note_on_c, 9, 42, 114
4, 28046, Note_on_c, 9, 42, 0
4, 28128, Note_on_c, 9, 42, 114
4, 28140, Note_on_c, 9, 42, 0
4, 28174, Note_on_c, 9, 42, 114
4, 28186, Note_on_c, 9, 42, 0
4, 28225, Note_on_c, 9, 42, 114
4, 28237, Note_on_c, 9, 42, 0
4, 28320, Note_on_c, 9, 42, 114
4, 28332, Note_on_c, 9, 42, 0
4, 28367, Note_on_c, 9, 42, 114
4, 28379, Note_on_c, 9, 42, 0
4, 28417, Note_on_c, 9, 42, 114
4, 28429, Note_on_c, 9, 42, 0
4, 28511, Note_on_c, 9, 42, 114
4, 28523, Note_on_c, 9, 42, 0
4, 28558, Note_on_c, 9, 42, 114
4, 28570, Note_on_c, 9, 42, 0
4, 28609, Note_on_c, 9, 42, 114
4, 28621, Note_on_c, 9, 42, 0
4, 28703, Note_on_c, 9, 42, 114
4, 28715, Note_on_c, 9, 42, 0
4, 28751, Note_on_c, 9, 42, 114
4, 28763, Note_on_c, 9, 42, 0
4, 28801, Note_on_c, 9, 42, 114
4, 28813, Note_on_c, 9, 42, 0
4, 28895, Note_on_c, 9, 42, 114
4, 28907, Note_on_c, 9, 42, 0
4, 28942, Note_on_c, 9, 42, 114
4, 28954, Note_on_c, 9, 42, 0
4, 28993, Note_on_c, 9, 42, 114
4, 29005, Note_on_c, 9, 42, 0
4, 29087, Note_on_c, 9, 42, 114
4, 29099, Note_on_c, 9, 42, 0
4, 29135, Note_on_c, 9, 42, 114
4, 29147, Note_on_c, 9, 42, 0
4, 29187, Note_on_c, 9, 42, 114
4, 29199, Note_on_c, 9, 42, 0
4, 29280, Note_on_c, 9, 42, 114
4, 29292, Note_on_c, 9, 42, 0
4, 29331, Note_on_c, 9, 42, 114
4, 29343, Note_on_c, 9, 42, 0
4, 29377, Note_on_c, 9, 42, 114
4, 29389, Note_on_c, 9, 42, 0
4, 29473, Note_on_c, 9, 42, 114
4, 29485, Note_on_c, 9, 42, 0
4, 29521, Note_on_c, 9, 42, 114
4, 29533, Note_on_c, 9, 42, 0
4, 29572, Note_on_c, 9, 42, 114
4, 29584, Note_on_c, 9, 42, 0
4, 29666, Note_on_c, 9, 42, 114
4, 29678, Note_on_c, 9, 42, 0
4, 29711, Note_on_c, 9, 42, 114
4, 29723, Note_on_c, 9, 42, 0
4, 29760, Note_on_c, 9, 42, 114
4, 29772, Note_on_c, 9, 42, 0
4, 29857, Note_on_c, 9, 42, 114
4, 29869, Note_on_c, 9, 42, 0
4, 29904, Note_on_c, 9, 42, 114
4, 29916, Note_on_c, 9, 42, 0
4, 29953, Note_on_c, 9, 42, 114
4, 29965, Note_on_c, 9, 42, 0
4, 30048, Note_on_c, 9, 42, 114
4, 30060, Note_on_c, 9, 42, 0
4, 30094, Note_on_c, 9, 42, 114
4, 30106, Note_on_c, 9, 42, 0
4, 30145, Note_on_c, 9, 42, 114
4, 30157, Note_on_c, 9, 42, 0
4, 30240, Note_on_c, 9, 42, 114
4, 30252, Note_on_c, 9, 42, 0
4, 30288, Note_on_c, 9, 42, 114
4, 30300, Note_on_c, 9, 42, 0
4, 30338, Note_on_c, 9, 42, 114
4, 30350, Note_on_c, 9, 42, 0
4, 30432, Note_on_c, 9, 42, 114
4, 30444, Note_on_c, 9, 42, 0
4, 30477, Note_on_c, 9, 42, 114
4, 30489, Note_on_c, 9, 42, 0
4, 30529, Note_on_c, 9, 42, 114
4, 30541, Note_on_c, 9, 42, 0
4, 30625, Note_on_c, 9, 42, 114
4, 30637, Note_on_c, 9, 42, 0
4, 30672, Note_on_c, 9, 42, 114
4, 30684, Note_on_c, 9, 42, 0
4, 30721, Note_on_c, 9, 42, 114
4, 30733, Note_on_c, 9, 42, 0
4, 30816, Note_on_c, 9, 42, 114
4, 30828, Note_on_c, 9, 42, 0
4, 30864, Note_on_c, 9, 42, 114
4, 30876, Note_on_c, 9, 42, 0
4, 30913, Note_on_c, 9, 42, 114
4, 30925, Note_on_c, 9, 42, 0
4, 31007, Note_on_c, 9, 42, 114
4, 31019, Note_on_c, 9, 42, 0
4, 31056, Note_on_c, 9, 42, 114
4, 31068, Note_on_c, 9, 42, 0
4, 31106, Note_on_c, 9, 42, 114
4, 31118, Note_on_c, 9, 42, 0
4, 31199, Note_on_c, 9, 42, 114
4, 31211, Note_on_c, 9, 42, 0
4, 31248, Note_on_c, 9, 42, 114
4, 31260, Note_on_c, 9, 42, 0
4, 31298, Note_on_c, 9, 42, 114
4, 31310, Note_on_c, 9, 42, 0
4, 31392, Note_on_c, 9, 42, 114
4, 31404, Note_on_c, 9, 42, 0
4, 31439, Note_on_c, 9, 42, 114
4, 31451, Note_on_c, 9, 42, 0
4, 31489, Note_on_c, 9, 42, 114
4, 31501, Note_on_c, 9, 42, 0
4, 31586, Note_on_c, 9, 42, 114
4, 31598, Note_on_c, 9, 42, 0
4, 31631, Note_on_c, 9, 42, 114
4, 31643, Note_on_c, 9, 42, 0
4, 31683, Note_on_c, 9, 42, 114
4, 31695, Note_on_c, 9, 42, 0
4, 31777, Note_on_c, 9, 42, 114
4, 31789, Note_on_c, 9, 42, 0
4, 31826, Note_on_c, 9, 42, 114
4, 31838, Note_on_c, 9, 42, 0
4, 31875, Note_on_c, 9, 42, 114
4, 31887, Note_on_c, 9, 42, 0
4, 31969, Note_on_c, 9, 42, 114
4, 31981, Note_on_c, 9, 42, 0
4, 32017, Note_on_c, 9, 42, 114
4, 32029, Note_on_c, 9, 42, 0
4, 32068, Note_on_c, 9, 42, 114
4, 32080, Note_on_c, 9, 42, 0
4, 32162, Note_on_c, 9, 42, 114
4, 32174, Note_on_c, 9, 42, 0
4, 32207, Note_on_c, 9, 42, 114
4, 32219, Note_on_c, 9, 42, 0
4, 32259, Note_on_c, 9, 42, 114
4, 32271, Note_on_c, 9, 42, 0
4, 32353, Note_on_c, 9, 42, 114
4, 32365, Note_on_c, 9, 42, 0
4, 32404, Note_on_c, 9, 42, 114
4, 32416, Note_on_c, 9, 42, 0
4, 32452, Note_on_c, 9, 42, 114
4, 32464, Note_on_c, 9, 42, 0
4, 32545, Note_on_c, 9, 42, 114
4, 32557, Note_on_c, 9, 42, 0
4, 32594, Note_on_c, 9, 42, 114
4, 32606, Note_on_c, 9, 42, 0
4, 32644, Note_on_c, 9, 42, 114
4, 32656, Note_on_c, 9, 42, 0
4, 32740, Note_on_c, 9, 42, 114
4, 32752, Note_on_c, 9, 42, 0
4, 32783, Note_on_c, 9, 42, 114
4, 32795, Note_on_c, 9, 42, 0
4, 32835, Note_on_c, 9, 42, 114
4, 32847, Note_on_c, 9, 42, 0
4, 32926, Note_on_c, 9, 42, 114
4, 32938, Note_on_c, 9, 42, 0
4, 32976, Note_on_c, 9, 42, 114
4, 32988, Note_on_c, 9, 42, 0
4, 33025, Note_on_c, 9, 42, 114
4, 33037, Note_on_c, 9, 42, 0
4, 33120, Note_on_c, 9, 42, 114
4, 33132, Note_on_c, 9, 42, 0
4, 33167, Note_on_c, 9, 42, 114
4, 33179, Note_on_c, 9, 42, 0
4, 33219, Note_on_c, 9, 42, 114
4, 33231, Note_on_c, 9, 42, 0
4, 33311, Note_on_c, 9, 42, 114
4, 33323, Note_on_c, 9, 42, 0
4, 33360, Note_on_c, 9, 42, 114
4, 33372, Note_on_c, 9, 42, 0
4, 33410, Note_on_c, 9, 42, 114
4, 33422, Note_on_c, 9, 42, 0
4, 33504, Note_on_c, 9, 42, 114
4, 33516, Note_on_c, 9, 42, 0
4, 33550, Note_on_c, 9, 42, 114
4, 33562, Note_on_c, 9, 42, 0
4, 33603, Note_on_c, 9, 42, 114
4, 33615, Note_on_c, 9, 42, 0
4, 33695, Note_on_c, 9, 42, 114
4, 33707, Note_on_c, 9, 42, 0
4, 33745, Note_on_c, 9, 42, 114
4, 33757, Note_on_c, 9, 42, 0
4, 33793, Note_on_c, 9, 42, 114
4, 33805, Note_on_c, 9, 42, 0
4, 33887, Note_on_c, 9, 42, 114
4, 33899, Note_on_c, 9, 42, 0
4, 33933, Note_on_c, 9, 42, 114
4, 33945, Note_on_c, 9, 42, 0
4, 33985, Note_on_c, 9, 42, 114
4, 33997, Note_on_c, 9, 42, 0
4, 34080, Note_on_c, 9, 42, 114
4, 34092, Note_on_c, 9, 42, 0
4, 34128, Note_on_c, 9, 42, 114
4, 34140, Note_on_c, 9, 42, 0
4, 34177, Note_on_c, 9, 42, 114
4, 34189, Note_on_c, 9, 42, 0
4, 34271, Note_on_c, 9, 42, 114
4, 34283, Note_on_c, 9, 42, 0
4, 34321, Note_on_c, 9, 42, 114
4, 34333, Note_on_c, 9, 42, 0
4, 34369, Note_on_c, 9, 42, 114
4, 34381, Note_on_c, 9, 42, 0
4, 34463, Note_on_c, 9, 42, 114
4, 34475, Note_on_c, 9, 42, 0
4, 34511, Note_on_c, 9, 42, 114
4, 34523, Note_on_c, 9, 42, 0
4, 34561, Note_on_c, 9, 42, 114
4, 34573, Note_on_c, 9, 42, 0
4, 34656, Note_on_c, 9, 42, 114
4, 34668, Note_on_c, 9, 42, 0
4, 34703, Note_on_c, 9, 42, 114
4, 34715, Note_on_c, 9, 42, 0
4, 34755, Note_on_c, 9, 42, 114
4, 34767, Note_on_c, 9, 42, 0
4, 34848, Note_on_c, 9, 42, 114
4, 34860, Note_on_c, 9, 42, 0
4, 34895, Note_on_c, 9, 42, 114
4, 34907, Note_on_c, 9, 42, 0
4, 34946, Note_on_c, 9, 42, 114
4, 34958, Note_on_c, 9, 42, 0
4, 35041, Note_on_c, 9, 42, 114
4, 35053, Note_on_c, 9, 42, 0
4, 35087, Note_on_c, 9, 42, 114
4, 35099, Note_on_c, 9, 42, 0
4, 35139, Note_on_c, 9, 42, 114
4, 35151, Note_on_c, 9, 42, 0
4, 35232, Note_on_c, 9, 42, 114
4, 35244, Note_on_c, 9, 42, 0
4, 35279, Note_on_c, 9, 42, 114
4, 35291, Note_on_c, 9, 42, 0
4, 35333, Note_on_c, 9, 42, 114
4, 35345, Note_on_c, 9, 42, 0
4, 35424, Note_on_c, 9, 42, 114
4, 35436, Note_on_c, 9, 42, 0
4, 35475, Note_on_c, 9, 42, 114
4, 35487, Note_on_c, 9, 42, 0
4, 35523, Note_on_c, 9, 42, 114
4, 35535, Note_on_c, 9, 42, 0
4, 35617, Note_on_c, 9, 42, 114
4, 35629, Note_on_c, 9, 42, 0
4, 35664, Note_on_c, 9, 42, 114
4, 35676, Note_on_c, 9, 42, 0
4, 35715, Note_on_c, 9, 42, 114
4, 35727, Note_on_c, 9, 42, 0
4, 35808, Note_on_c, 9, 42, 114
4, 35820, Note_on_c, 9, 42, 0
4, 35855, Note_on_c, 9, 42, 114
4, 35867, Note_on_c, 9, 42, 0
4, 35904, Note_on_c, 9, 42, 114
4, 35916, Note_on_c, 9, 42, 0
4, 35999, Note_on_c, 9, 42, 114
4, 36011, Note_on_c, 9, 42, 0
4, 36047, Note_on_c, 9, 42, 114
4, 36059, Note_on_c, 9, 42, 0
4, 36097, Note_on_c, 9, 42, 114
4, 36109, Note_on_c, 9, 42, 0
4, 36192, Note_on_c, 9, 42, 114
4, 36204, Note_on_c, 9, 42, 0
4, 36239, Note_on_c, 9, 42, 114
4, 36251, Note_on_c, 9, 42, 0
4, 36291, Note_on_c, 9, 42, 114
4, 36303, Note_on_c, 9, 42, 0
4, 36383, Note_on_c, 9, 42, 114
4, 36395, Note_on_c, 9, 42, 0
4, 36432, Note_on_c, 9, 42, 114
4, 36444, Note_on_c, 9, 42, 0
4, 36481, Note_on_c, 9, 42, 114
4, 36493, Note_on_c, 9, 42, 0
4, 36575, Note_on_c, 9, 42, 114
4, 36587, Note_on_c, 9, 42, 0
4, 36621, Note_on_c, 9, 42, 114
4, 36633, Note_on_c, 9, 42, 0
4, 36673, Note_on_c, 9, 42, 114
4, 36685, Note_on_c, 9, 42, 0
4, 36766, Note_on_c, 9, 42, 114
4, 36778, Note_on_c, 9, 42, 0
4, 36815, Note_on_c, 9, 42, 114
4, 36827, Note_on_c, 9, 42, 0
4, 36864, Note_on_c, 9, 42, 114
4, 36876, Note_on_c, 9, 42, 0
4, 36960, Note_on_c, 9, 42, 114
4, 36972, Note_on_c, 9, 42, 0
4, 37008, Note_on_c, 9, 42, 114
4, 37020, Note_on_c, 9, 42, 0
4, 37058, Note_on_c, 9, 42, 114
4, 37070, Note_on_c, 9, 42, 0
4, 37152, Note_on_c, 9, 42, 114
4, 37164, Note_on_c, 9, 42, 0
4, 37199, Note_on_c, 9, 42, 114
4, 37211, Note_on_c, 9, 42, 0
4, 37249, Note_on_c, 9, 42, 114
4, 37261, Note_on_c, 9, 42, 0
4, 37682, Note_on_c, 9, 42, 114
4, 37694, Note_on_c, 9, 42, 0
4, 37775, Note_on_c, 9, 42, 114
4, 37787, Note_on_c, 9, 42, 0
4, 37825, Note_on_c, 9, 42, 114
4, 37837, Note_on_c, 9, 42, 0
4, 37871, Note_on_c, 9, 42, 114
4, 37883, Note_on_c, 9, 42, 0
4, 37967, Note_on_c, 9, 42, 114
4, 37979, Note_on_c, 9, 42, 0
4, 38017, Note_on_c, 9, 42, 114
4, 38029, Note_on_c, 9, 42, 0
4, 38064, Note_on_c, 9, 42, 114
4, 38076, Note_on_c, 9, 42, 0
4, 38160, Note_on_c, 9, 42, 114
4, 38172, Note_on_c, 9, 42, 0
4, 38209, Note_on_c, 9, 42, 114
4, 38221, Note_on_c, 9, 42, 0
4, 38255, Note_on_c, 9, 42, 114
4, 38267, Note_on_c, 9, 42, 0
4, 38352, Note_on_c, 9, 42, 114
4, 38364, Note_on_c, 9, 42, 0
4, 38400, Note_on_c, 9, 42, 114
4, 38412, Note_on_c, 9, 42, 0
4, 38448, Note_on_c, 9, 42, 114
4, 38460, Note_on_c, 9, 42, 0
4, 38543, Note_on_c, 9, 42, 114
4, 38555, Note_on_c, 9, 42, 0
4, 38593, Note_on_c, 9, 42, 114
4, 38605, Note_on_c, 9, 42, 0
4, 38640, Note_on_c, 9, 42, 114
4, 38652, Note_on_c, 9, 42, 0
4, 38736, Note_on_c, 9, 42, 114
4, 38748, Note_on_c, 9, 42, 0
4, 38785, Note_on_c, 9, 42, 114
4, 38797, Note_on_c, 9, 42, 0
4, 38831, Note_on_c, 9, 42, 114
4, 38843, Note_on_c, 9, 42, 0
4, 38927, Note_on_c, 9, 42, 114
4, 38939, Note_on_c, 9, 42, 0
4, 38977, Note_on_c, 9, 42, 114
4, 38989, Note_on_c, 9, 42, 0
4, 39023, Note_on_c, 9, 42, 114
4, 39035, Note_on_c, 9, 42, 0
4, 39119, Note_on_c, 9, 42, 114
4, 39131, Note_on_c, 9, 42, 0
4, 39171, Note_on_c, 9, 42, 114
4, 39183, Note_on_c, 9, 42, 0
4, 39217, Note_on_c, 9, 42, 114
4, 39229, Note_on_c, 9, 42, 0
4, 39314, Note_on_c, 9, 42, 114
4, 39326, Note_on_c, 9, 42, 0
4, 39361, Note_on_c, 9, 42, 114
4, 39373, Note_on_c, 9, 42, 0
4, 39408, Note_on_c, 9, 42, 114
4, 39420, Note_on_c, 9, 42, 0
4, 39504, Note_on_c, 9, 42, 114
4, 39516, Note_on_c, 9, 42, 0
4, 39555, Note_on_c, 9, 42, 114
4, 39567, Note_on_c, 9, 42, 0
4, 39600, Note_on_c, 9, 42, 114
4, 39612, Note_on_c, 9, 42, 0
4, 39696, Note_on_c, 9, 42, 114
4, 39708, Note_on_c, 9, 42, 0
4, 39745, Note_on_c, 9, 42, 114
4, 39757, Note_on_c, 9, 42, 0
4, 39792, Note_on_c, 9, 42, 114
4, 39804, Note_on_c, 9, 42, 0
4, 39889, Note_on_c, 9, 42, 114
4, 39901, Note_on_c, 9, 42, 0
4, 39938, Note_on_c, 9, 42, 114
4, 39950, Note_on_c, 9, 42, 0
4, 40034, Note_on_c, 9, 42, 114
4, 40046, Note_on_c, 9, 42, 0
4, 40081, Note_on_c, 9, 42, 114
4, 40093, Note_on_c, 9, 42, 0
4, 40133, Note_on_c, 9, 42, 114
4, 40145, Note_on_c, 9, 42, 0
4, 40225, Note_on_c, 9, 42, 114
4, 40237, Note_on_c, 9, 42, 0
4, 40274, Note_on_c, 9, 42, 114
4, 40286, Note_on_c, 9, 42, 0
4, 40323, Note_on_c, 9, 42, 114
4, 40335, Note_on_c, 9, 42, 0
4, 40753, Note_on_c, 9, 42, 114
4, 40765, Note_on_c, 9, 42, 0
4, 40848, Note_on_c, 9, 42, 114
4, 40860, Note_on_c, 9, 42, 0
4, 40897, Note_on_c, 9, 42, 114
4, 40909, Note_on_c, 9, 42, 0
4, 40944, Note_on_c, 9, 42, 114
4, 40956, Note_on_c, 9, 42, 0
4, 41040, Note_on_c, 9, 42, 114
4, 41052, Note_on_c, 9, 42, 0
4, 41091, Note_on_c, 9, 42, 114
4, 41103, Note_on_c, 9, 42, 0
4, 41136, Note_on_c, 9, 42, 114
4, 41148, Note_on_c, 9, 42, 0
4, 41232, Note_on_c, 9, 42, 114
4, 41244, Note_on_c, 9, 42, 0
4, 41281, Note_on_c, 9, 42, 114
4, 41293, Note_on_c, 9, 42, 0
4, 41331, Note_on_c, 9, 42, 114
4, 41343, Note_on_c, 9, 42, 0
4, 41424, Note_on_c, 9, 42, 114
4, 41436, Note_on_c, 9, 42, 0
4, 41472, Note_on_c, 9, 42, 114
4, 41484, Note_on_c, 9, 42, 0
4, 41519, Note_on_c, 9, 42, 114
4, 41531, Note_on_c, 9, 42, 0
4, 41616, Note_on_c, 9, 42, 114
4, 41628, Note_on_c, 9, 42, 0
4, 41665, Note_on_c, 9, 42, 114
4, 41677, Note_on_c, 9, 42, 0
4, 41711, Note_on_c, 9, 42, 114
4, 41723, Note_on_c, 9, 42, 0
4, 41808, Note_on_c, 9, 42, 114
4, 41820, Note_on_c, 9, 42, 0
4, 41857, Note_on_c, 9, 42, 114
4, 41869, Note_on_c, 9, 42, 0
4, 41904, Note_on_c, 9, 42, 114
4, 41916, Note_on_c, 9, 42, 0
4, 42000, Note_on_c, 9, 42, 114
4, 42012, Note_on_c, 9, 42, 0
4, 42050, Note_on_c, 9, 42, 114
4, 42062, Note_on_c, 9, 42, 0
4, 42095, Note_on_c, 9, 42, 114
4, 42107, Note_on_c, 9, 42, 0
4, 42191, Note_on_c, 9, 42, 114
4, 42203, Note_on_c, 9, 42, 0
4, 42242, Note_on_c, 9, 42, 114
4, 42254, Note_on_c, 9, 42, 0
4, 42288, Note_on_c, 9, 42, 114
4, 42300, Note_on_c, 9, 42, 0
4, 42384, Note_on_c, 9, 42, 114
4, 42396, Note_on_c, 9, 42, 0
4, 42434, Note_on_c, 9, 42, 114
4, 42446, Note_on_c, 9, 42, 0
4, 42480, Note_on_c, 9, 42, 114
4, 42492, Note_on_c, 9, 42, 0
4, 42575, Note_on_c, 9, 42, 114
4, 42587, Note_on_c, 9, 42, 0
4, 42626, Note_on_c, 9, 42, 114
4, 42638, Note_on_c, 9, 42, 0
4, 42671, Note_on_c, 9, 42, 114
4, 42683, Note_on_c, 9, 42, 0
4, 42768, Note_on_c, 9, 42, 114
4, 42780, Note_on_c, 9, 42, 0
4, 42817, Note_on_c, 9, 42, 114
4, 42829, Note_on_c, 9, 42, 0
4, 42863, Note_on_c, 9, 42, 114
4, 42875, Note_on_c, 9, 42, 0
4, 42960, Note_on_c, 9, 42, 114
4, 42972, Note_on_c, 9, 42, 0
4, 43008, Note_on_c, 9, 42, 114
4, 43020, Note_on_c, 9, 42, 0
4, 43104, Note_on_c, 9, 42, 114
4, 43116, Note_on_c, 9, 42, 0
4, 43151, Note_on_c, 9, 42, 114
4, 43163, Note_on_c, 9, 42, 0
4, 43202, Note_on_c, 9, 42, 114
4, 43214, Note_on_c, 9, 42, 0
4, 43295, Note_on_c, 9, 42, 114
4, 43307, Note_on_c, 9, 42, 0
4, 43344, Note_on_c, 9, 42, 114
4, 43356, Note_on_c, 9, 42, 0
4, 43393, Note_on_c, 9, 42, 114
4, 43405, Note_on_c, 9, 42, 0
4, 43826, Note_on_c, 9, 42, 114
4, 43838, Note_on_c, 9, 42, 0
4, 43919, Note_on_c, 9, 42, 114
4, 43931, Note_on_c, 9, 42, 0
4, 43969, Note_on_c, 9, 42, 114
4, 43981, Note_on_c, 9, 42, 0
4, 44015, Note_on_c, 9, 42, 114
4, 44027, Note_on_c, 9, 42, 0
4, 44111, Note_on_c, 9, 42, 114
4, 44123, Note_on_c, 9, 42, 0
4, 44161, Note_on_c, 9, 42, 114
4, 44173, Note_on_c, 9, 42, 0
4, 44208, Note_on_c, 9, 42, 114
4, 44220, Note_on_c, 9, 42, 0
4, 44304, Note_on_c, 9, 42, 114
4, 44316, Note_on_c, 9, 42, 0
4, 44353, Note_on_c, 9, 42, 114
4, 44365, Note_on_c, 9, 42, 0
4, 44399, Note_on_c, 9, 42, 114
4, 44411, Note_on_c, 9, 42, 0
4, 44496, Note_on_c, 9, 42, 114
4, 44508, Note_on_c, 9, 42, 0
4, 44544, Note_on_c, 9, 42, 114
4, 44556, Note_on_c, 9, 42, 0
4, 44592, Note_on_c, 9, 42, 114
4, 44604, Note_on_c, 9, 42, 0
4, 44687, Note_on_c, 9, 42, 114
4, 44699, Note_on_c, 9, 42, 0
4, 44737, Note_on_c, 9, 42, 114
4, 44749, Note_on_c, 9, 42, 0
4, 44784, Note_on_c, 9, 42, 114
4, 44796, Note_on_c, 9, 42, 0
4, 44880, Note_on_c, 9, 42, 114
4, 44892, Note_on_c, 9, 42, 0
4, 44929, Note_on_c, 9, 42, 114
4, 44941, Note_on_c, 9, 42, 0
4, 44975, Note_on_c, 9, 42, 114
4, 44987, Note_on_c, 9, 42, 0
4, 45071, Note_on_c, 9, 42, 114
4, 45083, Note_on_c, 9, 42, 0
4, 45121, Note_on_c, 9, 42, 114
4, 45133, Note_on_c, 9, 42, 0
4, 45167, Note_on_c, 9, 42, 114
4, 45179, Note_on_c, 9, 42, 0
4, 45263, Note_on_c, 9, 42, 114
4, 45275, Note_on_c, 9, 42, 0
4, 45315, Note_on_c, 9, 42, 114
4, 45327, Note_on_c, 9, 42, 0
4, 45361, Note_on_c, 9, 42, 114
4, 45373, Note_on_c, 9, 42, 0
4, 45458, Note_on_c, 9, 42, 114
4, 45470, Note_on_c, 9, 42, 0
4, 45505, Note_on_c, 9, 42, 114
4, 45517, Note_on_c, 9, 42, 0
4, 45552, Note_on_c, 9, 42, 114
4, 45564, Note_on_c, 9, 42, 0
4, 45648, Note_on_c, 9, 42, 114
4, 45660, Note_on_c, 9, 42, 0
4, 45699, Note_on_c, 9, 42, 114
4, 45711, Note_on_c, 9, 42, 0
4, 45744, Note_on_c, 9, 42, 114
4, 45756, Note_on_c, 9, 42, 0
4, 45840, Note_on_c, 9, 42, 114
4, 45852, Note_on_c, 9, 42, 0
4, 45889, Note_on_c, 9, 42, 114
4, 45901, Note_on_c, 9, 42, 0
4, 45936, Note_on_c, 9, 42, 114
4, 45948, Note_on_c, 9, 42, 0
4, 46033, Note_on_c, 9, 42, 114
4, 46045, Note_on_c, 9, 42, 0
4, 46082, Note_on_c, 9, 42, 114
4, 46094, Note_on_c, 9, 42, 0
4, 46178, Note_on_c, 9, 42, 114
4, 46190, Note_on_c, 9, 42, 0
4, 46225, Note_on_c, 9, 42, 114
4, 46237, Note_on_c, 9, 42, 0
4, 46277, Note_on_c, 9, 42, 114
4, 46289, Note_on_c, 9, 42, 0
4, 46369, Note_on_c, 9, 42, 114
4, 46381, Note_on_c, 9, 42, 0
4, 46418, Note_on_c, 9, 42, 114
4, 46430, Note_on_c, 9, 42, 0
4, 46467, Note_on_c, 9, 42, 114
4, 46479, Note_on_c, 9, 42, 0
4, 46901, Note_on_c, 9, 42, 114
4, 46913, Note_on_c, 9, 42, 0
4, 46996, Note_on_c, 9, 42, 114
4, 47008, Note_on_c, 9, 42, 0
4, 47043, Note_on_c, 9, 42, 114
4, 47055, Note_on_c, 9, 42, 0
4, 47090, Note_on_c, 9, 42, 114
4, 47102, Note_on_c, 9, 42, 0
4, 47187, Note_on_c, 9, 42, 114
4, 47199, Note_on_c, 9, 42, 0
4, 47234, Note_on_c, 9, 42, 114
4, 47246, Note_on_c, 9, 42, 0
4, 47280, Note_on_c, 9, 42, 114
4, 47292, Note_on_c, 9, 42, 0
4, 47375, Note_on_c, 9, 42, 114
4, 47387, Note_on_c, 9, 42, 0
4, 47428, Note_on_c, 9, 42, 114
4, 47440, Note_on_c, 9, 42, 0
4, 47471, Note_on_c, 9, 42, 114
4, 47483, Note_on_c, 9, 42, 0
4, 47569, Note_on_c, 9, 42, 114
4, 47581, Note_on_c, 9, 42, 0
4, 47619, Note_on_c, 9, 42, 114
4, 47631, Note_on_c, 9, 42, 0
4, 47666, Note_on_c, 9, 42, 114
4, 47678, Note_on_c, 9, 42, 0
4, 47761, Note_on_c, 9, 42, 114
4, 47773, Note_on_c, 9, 42, 0
4, 47812, Note_on_c, 9, 42, 114
4, 47824, Note_on_c, 9, 42, 0
4, 47857, Note_on_c, 9, 42, 114
4, 47869, Note_on_c, 9, 42, 0
4, 47953, Note_on_c, 9, 42, 114
4, 47965, Note_on_c, 9, 42, 0
4, 48003, Note_on_c, 9, 42, 114
4, 48015, Note_on_c, 9, 42, 0
4, 48047, Note_on_c, 9, 42, 114
4, 48059, Note_on_c, 9, 42, 0
4, 48144, Note_on_c, 9, 42, 114
4, 48156, Note_on_c, 9, 42, 0
4, 48196, Note_on_c, 9, 42, 114
4, 48208, Note_on_c, 9, 42, 0
4, 48239, Note_on_c, 9, 42, 114
4, 48251, Note_on_c, 9, 42, 0
4, 48335, Note_on_c, 9, 42, 114
4, 48347, Note_on_c, 9, 42, 0
4, 48384, Note_on_c, 9, 42, 114
4, 48396, Note_on_c, 9, 42, 0
4, 48431, Note_on_c, 9, 42, 114
4, 48443, Note_on_c, 9, 42, 0
4, 48528, Note_on_c, 9, 42, 114
4, 48540, Note_on_c, 9, 42, 0
4, 48577, Note_on_c, 9, 42, 114
4, 48589, Note_on_c, 9, 42, 0
4, 48624, Note_on_c, 9, 42, 114
4, 48636, Note_on_c, 9, 42, 0
4, 48719, Note_on_c, 9, 42, 114
4, 48731, Note_on_c, 9, 42, 0
4, 48769, Note_on_c, 9, 42, 114
4, 48781, Note_on_c, 9, 42, 0
4, 48815, Note_on_c, 9, 42, 114
4, 48827, Note_on_c, 9, 42, 0
4, 48912, Note_on_c, 9, 42, 114
4, 48924, Note_on_c, 9, 42, 0
4, 48961, Note_on_c, 9, 42, 114
4, 48973, Note_on_c, 9, 42, 0
4, 49008, Note_on_c, 9, 42, 114
4, 49020, Note_on_c, 9, 42, 0
4, 49103, Note_on_c, 9, 42, 114
4, 49115, Note_on_c, 9, 42, 0
4, 49249, Note_on_c, 9, 42, 114
4, 49261, Note_on_c, 9, 42, 0
4, 49343, Note_on_c, 9, 42, 114
4, 49355, Note_on_c, 9, 42, 0
4, 49536, Note_on_c, 9, 42, 114
4, 49548, Note_on_c, 9, 42, 0
4, 49632, Note_on_c, 9, 42, 114
4, 49644, Note_on_c, 9, 42, 0
4, 49729, Note_on_c, 9, 42, 114
4, 49741, Note_on_c, 9, 42, 0
4, 50785, Note_on_c, 9, 42, 114
4, 50797, Note_on_c, 9, 42, 0
4, 50881, Note_on_c, 9, 42, 114
4, 50893, Note_on_c, 9, 42, 0
4, 51072, Note_on_c, 9, 42, 114
4, 51084, Note_on_c, 9, 42, 0
4, 51168, Note_on_c, 9, 42, 114
4, 51180, Note_on_c, 9, 42, 0
4, 51265, Note_on_c, 9, 42, 114
4, 51277, Note_on_c, 9, 42, 0
4, 52321, Note_on_c, 9, 42, 114
4, 52333, Note_on_c, 9, 42, 0
4, 52368, Note_on_c, 9, 42, 114
4, 52380, Note_on_c, 9, 42, 0
4, 52517, Note_on_c, 9, 42, 114
4, 52529, Note_on_c, 9, 42, 0
4, 52561, Note_on_c, 9, 42, 114
4, 52573, Note_on_c, 9, 42, 0
4, 52705, Note_on_c, 9, 42, 114
4, 52717, Note_on_c, 9, 42, 0
4, 52751, Note_on_c, 9, 42, 114
4, 52763, Note_on_c, 9, 42, 0
4, 52896, Note_on_c, 9, 42, 114
4, 52908, Note_on_c, 9, 42, 0
4, 52944, Note_on_c, 9, 42, 114
4, 52956, Note_on_c, 9, 42, 0
4, 52991, Note_on_c, 9, 42, 114
4, 53003, Note_on_c, 9, 42, 0
4, 53090, Note_on_c, 9, 42, 114
4, 53102, Note_on_c, 9, 42, 0
4, 53133, Note_on_c, 9, 42, 114
4, 53145, Note_on_c, 9, 42, 0
4, 53187, Note_on_c, 9, 42, 114
4, 53199, Note_on_c, 9, 42, 0
4, 53280, Note_on_c, 9, 42, 114
4, 53292, Note_on_c, 9, 42, 0
4, 53328, Note_on_c, 9, 42, 114
4, 53340, Note_on_c, 9, 42, 0
4, 53378, Note_on_c, 9, 42, 114
4, 53390, Note_on_c, 9, 42, 0
4, 53472, Note_on_c, 9, 42, 114
4, 53484, Note_on_c, 9, 42, 0
4, 53520, Note_on_c, 9, 42, 114
4, 53532, Note_on_c, 9, 42, 0
4, 53570, Note_on_c, 9, 42, 114
4, 53582, Note_on_c, 9, 42, 0
4, 53664, Note_on_c, 9, 42, 114
4, 53676, Note_on_c, 9, 42, 0
4, 53712, Note_on_c, 9, 42, 114
4, 53724, Note_on_c, 9, 42, 0
4, 53761, Note_on_c, 9, 42, 114
4, 53773, Note_on_c, 9, 42, 0
4, 53855, Note_on_c, 9, 42, 114
4, 53867, Note_on_c, 9, 42, 0
4, 53905, Note_on_c, 9, 42, 114
4, 53917, Note_on_c, 9, 42, 0
4, 53955, Note_on_c, 9, 42, 114
4, 53967, Note_on_c, 9, 42, 0
4, 54047, Note_on_c, 9, 42, 114
4, 54059, Note_on_c, 9, 42, 0
4, 54096, Note_on_c, 9, 42, 114
4, 54108, Note_on_c, 9, 42, 0
4, 54145, Note_on_c, 9, 42, 114
4, 54157, Note_on_c, 9, 42, 0
4, 54239, Note_on_c, 9, 42, 114
4, 54251, Note_on_c, 9, 42, 0
4, 54287, Note_on_c, 9, 42, 114
4, 54299, Note_on_c, 9, 42, 0
4, 54337, Note_on_c, 9, 42, 114
4, 54349, Note_on_c, 9, 42, 0
4, 54431, Note_on_c, 9, 42, 114
4, 54443, Note_on_c, 9, 42, 0
4, 54479, Note_on_c, 9, 42, 114
4, 54491, Note_on_c, 9, 42, 0
4, 54528, Note_on_c, 9, 42, 114
4, 54540, Note_on_c, 9, 42, 0
4, 54624, Note_on_c, 9, 42, 114
4, 54636, Note_on_c, 9, 42, 0
4, 54672, Note_on_c, 9, 42, 114
4, 54684, Note_on_c, 9, 42, 0
4, 54724, Note_on_c, 9, 42, 114
4, 54736, Note_on_c, 9, 42, 0
4, 54816, Note_on_c, 9, 42, 114
4, 54828, Note_on_c, 9, 42, 0
4, 54864, Note_on_c, 9, 42, 114
4, 54876, Note_on_c, 9, 42, 0
4, 54914, Note_on_c, 9, 42, 114
4, 54926, Note_on_c, 9, 42, 0
4, 55007, Note_on_c, 9, 42, 114
4, 55019, Note_on_c, 9, 42, 0
4, 55055, Note_on_c, 9, 42, 114
4, 55067, Note_on_c, 9, 42, 0
4, 55105, Note_on_c, 9, 42, 114
4, 55117, Note_on_c, 9, 42, 0
4, 55200, Note_on_c, 9, 42, 114
4, 55212, Note_on_c, 9, 42, 0
4, 55247, Note_on_c, 9, 42, 114
4, 55259, Note_on_c, 9, 42, 0
4, 55391, Note_on_c, 9, 42, 114
4, 55403, Note_on_c, 9, 42, 0
4, 55439, Note_on_c, 9, 42, 114
4, 55451, Note_on_c, 9, 42, 0
4, 55583, Note_on_c, 9, 42, 114
4, 55595, Note_on_c, 9, 42, 0
4, 55632, Note_on_c, 9, 42, 114
4, 55644, Note_on_c, 9, 42, 0
4, 55776, Note_on_c, 9, 42, 114
4, 55788, Note_on_c, 9, 42, 0
4, 55826, Note_on_c, 9, 42, 114
4, 55838, Note_on_c, 9, 42, 0
4, 55967, Note_on_c, 9, 42, 114
4, 55979, Note_on_c, 9, 42, 0
4, 56017, Note_on_c, 9, 42, 114
4, 56029, Note_on_c, 9, 42, 0
4, 56066, Note_on_c, 9, 42, 114
4, 56078, Note_on_c, 9, 42, 0
4, 56159, Note_on_c, 9, 42, 114
4, 56171, Note_on_c, 9, 42, 0
4, 56207, Note_on_c, 9, 42, 114
4, 56219, Note_on_c, 9, 42, 0
4, 56257, Note_on_c, 9, 42, 114
4, 56269, Note_on_c, 9, 42, 0
4, 56351, Note_on_c, 9, 42, 114
4, 56363, Note_on_c, 9, 42, 0
4, 56400, Note_on_c, 9, 42, 114
4, 56412, Note_on_c, 9, 42, 0
4, 56449, Note_on_c, 9, 42, 114
4, 56461, Note_on_c, 9, 42, 0
4, 56543, Note_on_c, 9, 42, 114
4, 56555, Note_on_c, 9, 42, 0
4, 56593, Note_on_c, 9, 42, 114
4, 56605, Note_on_c, 9, 42, 0
4, 56641, Note_on_c, 9, 42, 114
4, 56653, Note_on_c, 9, 42, 0
4, 56737, Note_on_c, 9, 42, 114
4, 56749, Note_on_c, 9, 42, 0
4, 56784, Note_on_c, 9, 42, 114
4, 56796, Note_on_c, 9, 42, 0
4, 56835, Note_on_c, 9, 42, 114
4, 56847, Note_on_c, 9, 42, 0
4, 56927, Note_on_c, 9, 42, 114
4, 56939, Note_on_c, 9, 42, 0
4, 56975, Note_on_c, 9, 42, 114
4, 56987, Note_on_c, 9, 42, 0
4, 57025, Note_on_c, 9, 42, 114
4, 57037, Note_on_c, 9, 42, 0
4, 57119, Note_on_c, 9, 42, 114
4, 57131, Note_on_c, 9, 42, 0
4, 57167, Note_on_c, 9, 42, 114
4, 57179, Note_on_c, 9, 42, 0
4, 57217, Note_on_c, 9, 42, 114
4, 57229, Note_on_c, 9, 42, 0
4, 57311, Note_on_c, 9, 42, 114
4, 57323, Note_on_c, 9, 42, 0
4, 57359, Note_on_c, 9, 42, 114
4, 57371, Note_on_c, 9, 42, 0
4, 57409, Note_on_c, 9, 42, 114
4, 57421, Note_on_c, 9, 42, 0
4, 57505, Note_on_c, 9, 42, 114
4, 57517, Note_on_c, 9, 42, 0
4, 57551, Note_on_c, 9, 42, 114
4, 57563, Note_on_c, 9, 42, 0
4, 57600, Note_on_c, 9, 42, 114
4, 57612, Note_on_c, 9, 42, 0
4, 57696, Note_on_c, 9, 42, 114
4, 57708, Note_on_c, 9, 42, 0
4, 57744, Note_on_c, 9, 42, 114
4, 57756, Note_on_c, 9, 42, 0
4, 57793, Note_on_c, 9, 42, 114
4, 57805, Note_on_c, 9, 42, 0
4, 57887, Note_on_c, 9, 42, 114
4, 57899, Note_on_c, 9, 42, 0
4, 57936, Note_on_c, 9, 42, 114
4, 57948, Note_on_c, 9, 42, 0
4, 57986, Note_on_c, 9, 42, 114
4, 57998, Note_on_c, 9, 42, 0
4, 58079, Note_on_c, 9, 42, 114
4, 58091, Note_on_c, 9, 42, 0
4, 58129, Note_on_c, 9, 42, 114
4, 58141, Note_on_c, 9, 42, 0
4, 58177, Note_on_c, 9, 42, 114
4, 58189, Note_on_c, 9, 42, 0
4, 58271, Note_on_c, 9, 42, 114
4, 58283, Note_on_c, 9, 42, 0
4, 58320, Note_on_c, 9, 42, 114
4, 58332, Note_on_c, 9, 42, 0
4, 58464, Note_on_c, 9, 42, 114
4, 58476, Note_on_c, 9, 42, 0
4, 58512, Note_on_c, 9, 42, 114
4, 58524, Note_on_c, 9, 42, 0
4, 58655, Note_on_c, 9, 42, 114
4, 58667, Note_on_c, 9, 42, 0
4, 58704, Note_on_c, 9, 42, 114
4, 58716, Note_on_c, 9, 42, 0
4, 58848, Note_on_c, 9, 42, 114
4, 58860, Note_on_c, 9, 42, 0
4, 58897, Note_on_c, 9, 42, 114
4, 58909, Note_on_c, 9, 42, 0
4, 59039, Note_on_c, 9, 42, 114
4, 59051, Note_on_c, 9, 42, 0
4, 59087, Note_on_c, 9, 42, 114
4, 59099, Note_on_c, 9, 42, 0
4, 59138, Note_on_c, 9, 42, 114
4, 59150, Note_on_c, 9, 42, 0
4, 59232, Note_on_c, 9, 42, 114
4, 59244, Note_on_c, 9, 42, 0
4, 59280, Note_on_c, 9, 42, 114
4, 59292, Note_on_c, 9, 42, 0
4, 59332, Note_on_c, 9, 42, 114
4, 59344, Note_on_c, 9, 42, 0
4, 59424, Note_on_c, 9, 42, 114
4, 59436, Note_on_c, 9, 42, 0
4, 59472, Note_on_c, 9, 42, 114
4, 59484, Note_on_c, 9, 42, 0
4, 59521, Note_on_c, 9, 42, 114
4, 59533, Note_on_c, 9, 42, 0
4, 59616, Note_on_c, 9, 42, 114
4, 59628, Note_on_c, 9, 42, 0
4, 59663, Note_on_c, 9, 42, 114
4, 59675, Note_on_c, 9, 42, 0
4, 59713, Note_on_c, 9, 42, 114
4, 59725, Note_on_c, 9, 42, 0
4, 59807, Note_on_c, 9, 42, 114
4, 59819, Note_on_c, 9, 42, 0
4, 59856, Note_on_c, 9, 42, 114
4, 59868, Note_on_c, 9, 42, 0
4, 59907, Note_on_c, 9, 42, 114
4, 59919, Note_on_c, 9, 42, 0
4, 60000, Note_on_c, 9, 42, 114
4, 60012, Note_on_c, 9, 42, 0
4, 60047, Note_on_c, 9, 42, 114
4, 60059, Note_on_c, 9, 42, 0
4, 60097, Note_on_c, 9, 42, 114
4, 60109, Note_on_c, 9, 42, 0
4, 60192, Note_on_c, 9, 42, 114
4, 60204, Note_on_c, 9, 42, 0
4, 60240, Note_on_c, 9, 42, 114
4, 60252, Note_on_c, 9, 42, 0
4, 60291, Note_on_c, 9, 42, 114
4, 60303, Note_on_c, 9, 42, 0
4, 60383, Note_on_c, 9, 42, 114
4, 60395, Note_on_c, 9, 42, 0
4, 60433, Note_on_c, 9, 42, 114
4, 60445, Note_on_c, 9, 42, 0
4, 60481, Note_on_c, 9, 42, 114
4, 60493, Note_on_c, 9, 42, 0
4, 60576, Note_on_c, 9, 42, 114
4, 60588, Note_on_c, 9, 42, 0
4, 60624, Note_on_c, 9, 42, 114
4, 60636, Note_on_c, 9, 42, 0
4, 60675, Note_on_c, 9, 42, 114
4, 60687, Note_on_c, 9, 42, 0
4, 60770, Note_on_c, 9, 42, 114
4, 60782, Note_on_c, 9, 42, 0
4, 60818, Note_on_c, 9, 42, 114
4, 60830, Note_on_c, 9, 42, 0
4, 60867, Note_on_c, 9, 42, 114
4, 60879, Note_on_c, 9, 42, 0
4, 60962, Note_on_c, 9, 42, 114
4, 60974, Note_on_c, 9, 42, 0
4, 61010, Note_on_c, 9, 42, 114
4, 61022, Note_on_c, 9, 42, 0
4, 61060, Note_on_c, 9, 42, 114
4, 61072, Note_on_c, 9, 42, 0
4, 61154, Note_on_c, 9, 42, 114
4, 61166, Note_on_c, 9, 42, 0
4, 61202, Note_on_c, 9, 42, 114
4, 61214, Note_on_c, 9, 42, 0
4, 61251, Note_on_c, 9, 42, 114
4, 61263, Note_on_c, 9, 42, 0
4, 61345, Note_on_c, 9, 42, 114
4, 61357, Note_on_c, 9, 42, 0
4, 61394, Note_on_c, 9, 42, 114
4, 61406, Note_on_c, 9, 42, 0
4, 61536, Note_on_c, 9, 42, 114
4, 61548, Note_on_c, 9, 42, 0
4, 61582, Note_on_c, 9, 42, 114
4, 61594, Note_on_c, 9, 42, 0
4, 61727, Note_on_c, 9, 42, 114
4, 61739, Note_on_c, 9, 42, 0
4, 61775, Note_on_c, 9, 42, 114
4, 61787, Note_on_c, 9, 42, 0
4, 61922, Note_on_c, 9, 42, 114
4, 61934, Note_on_c, 9, 42, 0
4, 61966, Note_on_c, 9, 42, 114
4, 61978, Note_on_c, 9, 42, 0
4, 62118, Note_on_c, 9, 42, 114
4, 62130, Note_on_c, 9, 42, 0
4, 62159, Note_on_c, 9, 42, 114
4, 62171, Note_on_c, 9, 42, 0
4, 62210, Note_on_c, 9, 42, 114
4, 62222, Note_on_c, 9, 42, 0
4, 62304, Note_on_c, 9, 42, 114
4, 62316, Note_on_c, 9, 42, 0
4, 62351, Note_on_c, 9, 42, 114
4, 62363, Note_on_c, 9, 42, 0
4, 62401, Note_on_c, 9, 42, 114
4, 62413, Note_on_c, 9, 42, 0
4, 62495, Note_on_c, 9, 42, 114
4, 62507, Note_on_c, 9, 42, 0
4, 62544, Note_on_c, 9, 42, 114
4, 62556, Note_on_c, 9, 42, 0
4, 62592, Note_on_c, 9, 42, 114
4, 62604, Note_on_c, 9, 42, 0
4, 62688, Note_on_c, 9, 42, 114
4, 62700, Note_on_c, 9, 42, 0
4, 62735, Note_on_c, 9, 42, 114
4, 62747, Note_on_c, 9, 42, 0
4, 62786, Note_on_c, 9, 42, 114
4, 62798, Note_on_c, 9, 42, 0
4, 62879, Note_on_c, 9, 42, 114
4, 62891, Note_on_c, 9, 42, 0
4, 62927, Note_on_c, 9, 42, 114
4, 62939, Note_on_c, 9, 42, 0
4, 62976, Note_on_c, 9, 42, 114
4, 62988, Note_on_c, 9, 42, 0
4, 63071, Note_on_c, 9, 42, 114
4, 63083, Note_on_c, 9, 42, 0
4, 63119, Note_on_c, 9, 42, 114
4, 63131, Note_on_c, 9, 42, 0
4, 63169, Note_on_c, 9, 42, 114
4, 63181, Note_on_c, 9, 42, 0
4, 63263, Note_on_c, 9, 42, 114
4, 63275, Note_on_c, 9, 42, 0
4, 63312, Note_on_c, 9, 42, 114
4, 63324, Note_on_c, 9, 42, 0
4, 63362, Note_on_c, 9, 42, 114
4, 63374, Note_on_c, 9, 42, 0
4, 63455, Note_on_c, 9, 42, 114
4, 63467, Note_on_c, 9, 42, 0
4, 63503, Note_on_c, 9, 42, 114
4, 63515, Note_on_c, 9, 42, 0
4, 63553, Note_on_c, 9, 42, 114
4, 63565, Note_on_c, 9, 42, 0
4, 63647, Note_on_c, 9, 42, 114
4, 63659, Note_on_c, 9, 42, 0
4, 63696, Note_on_c, 9, 42, 114
4, 63708, Note_on_c, 9, 42, 0
4, 63747, Note_on_c, 9, 42, 114
4, 63759, Note_on_c, 9, 42, 0
4, 63839, Note_on_c, 9, 42, 114
4, 63851, Note_on_c, 9, 42, 0
4, 63888, Note_on_c, 9, 42, 114
4, 63900, Note_on_c, 9, 42, 0
4, 63935, Note_on_c, 9, 42, 114
4, 63947, Note_on_c, 9, 42, 0
4, 64032, Note_on_c, 9, 42, 114
4, 64044, Note_on_c, 9, 42, 0
4, 64080, Note_on_c, 9, 42, 114
4, 64092, Note_on_c, 9, 42, 0
4, 64129, Note_on_c, 9, 42, 114
4, 64141, Note_on_c, 9, 42, 0
4, 64223, Note_on_c, 9, 42, 114
4, 64235, Note_on_c, 9, 42, 0
4, 64271, Note_on_c, 9, 42, 114
4, 64283, Note_on_c, 9, 42, 0
4, 64322, Note_on_c, 9, 42, 114
4, 64334, Note_on_c, 9, 42, 0
4, 64415, Note_on_c, 9, 42, 114
4, 64427, Note_on_c, 9, 42, 0
4, 64464, Note_on_c, 9, 42, 114
4, 64476, Note_on_c, 9, 42, 0
4, 64608, Note_on_c, 9, 42, 114
4, 64620, Note_on_c, 9, 42, 0
4, 64655, Note_on_c, 9, 42, 114
4, 64667, Note_on_c, 9, 42, 0
4, 64800, Note_on_c, 9, 42, 114
4, 64812, Note_on_c, 9, 42, 0
4, 64848, Note_on_c, 9, 42, 114
4, 64860, Note_on_c, 9, 42, 0
4, 64991, Note_on_c, 9, 42, 114
4, 65003, Note_on_c, 9, 42, 0
4, 65039, Note_on_c, 9, 42, 114
4, 65051, Note_on_c, 9, 42, 0
4, 65183, Note_on_c, 9, 42, 114
4, 65195, Note_on_c, 9, 42, 0
4, 65232, Note_on_c, 9, 42, 114
4, 65244, Note_on_c, 9, 42, 0
4, 65283, Note_on_c, 9, 42, 114
4, 65295, Note_on_c, 9, 42, 0
4, 65378, Note_on_c, 9, 42, 114
4, 65390, Note_on_c, 9, 42, 0
4, 65424, Note_on_c, 9, 42, 114
4, 65436, Note_on_c, 9, 42, 0
4, 65473, Note_on_c, 9, 42, 114
4, 65485, Note_on_c, 9, 42, 0
4, 65567, Note_on_c, 9, 42, 114
4, 65579, Note_on_c, 9, 42, 0
4, 65618, Note_on_c, 9, 42, 114
4, 65630, Note_on_c, 9, 42, 0
4, 65664, Note_on_c, 9, 42, 114
4, 65676, Note_on_c, 9, 42, 0
4, 65760, Note_on_c, 9, 42, 114
4, 65772, Note_on_c, 9, 42, 0
4, 65808, Note_on_c, 9, 42, 114
4, 65820, Note_on_c, 9, 42, 0
4, 65857, Note_on_c, 9, 42, 114
4, 65869, Note_on_c, 9, 42, 0
4, 65952, Note_on_c, 9, 42, 114
4, 65964, Note_on_c, 9, 42, 0
4, 66000, Note_on_c, 9, 42, 114
4, 66012, Note_on_c, 9, 42, 0
4, 66048, Note_on_c, 9, 42, 114
4, 66060, Note_on_c, 9, 42, 0
4, 66143, Note_on_c, 9, 42, 114
4, 66155, Note_on_c, 9, 42, 0
4, 66192, Note_on_c, 9, 42, 114
4, 66204, Note_on_c, 9, 42, 0
4, 66244, Note_on_c, 9, 42, 114
4, 66256, Note_on_c, 9, 42, 0
4, 66341, Note_on_c, 9, 42, 114
4, 66353, Note_on_c, 9, 42, 0
4, 66384, Note_on_c, 9, 42, 114
4, 66396, Note_on_c, 9, 42, 0
4, 66439, Note_on_c, 9, 42, 114
4, 66451, Note_on_c, 9, 42, 0
4, 66531, Note_on_c, 9, 42, 114
4, 66543, Note_on_c, 9, 42, 0
4, 66578, Note_on_c, 9, 42, 114
4, 66590, Note_on_c, 9, 42, 0
4, 66628, Note_on_c, 9, 42, 114
4, 66640, Note_on_c, 9, 42, 0
4, 66724, Note_on_c, 9, 42, 114
4, 66736, Note_on_c, 9, 42, 0
4, 66771, Note_on_c, 9, 42, 114
4, 66783, Note_on_c, 9, 42, 0
4, 66819, Note_on_c, 9, 42, 114
4, 66831, Note_on_c, 9, 42, 0
4, 66911, Note_on_c, 9, 42, 114
4, 66923, Note_on_c, 9, 42, 0
4, 66960, Note_on_c, 9, 42, 114
4, 66972, Note_on_c, 9, 42, 0
4, 67011, Note_on_c, 9, 42, 114
4, 67023, Note_on_c, 9, 42, 0
4, 67105, Note_on_c, 9, 42, 114
4, 67117, Note_on_c, 9, 42, 0
4, 67151, Note_on_c, 9, 42, 114
4, 67163, Note_on_c, 9, 42, 0
4, 67203, Note_on_c, 9, 42, 114
4, 67215, Note_on_c, 9, 42, 0
4, 67297, Note_on_c, 9, 42, 114
4, 67309, Note_on_c, 9, 42, 0
4, 67348, Note_on_c, 9, 42, 114
4, 67360, Note_on_c, 9, 42, 0
4, 67394, Note_on_c, 9, 42, 114
4, 67406, Note_on_c, 9, 42, 0
4, 67487, Note_on_c, 9, 42, 114
4, 67499, Note_on_c, 9, 42, 0
4, 67535, Note_on_c, 9, 42, 114
4, 67547, Note_on_c, 9, 42, 0
4, 67591, Note_on_c, 9, 42, 114
4, 67603, Note_on_c, 9, 42, 0
4, 67680, Note_on_c, 9, 42, 114
4, 67692, Note_on_c, 9, 42, 0
4, 67728, Note_on_c, 9, 42, 114
4, 67740, Note_on_c, 9, 42, 0
4, 67778, Note_on_c, 9, 42, 114
4, 67790, Note_on_c, 9, 42, 0
4, 67874, Note_on_c, 9, 42, 114
4, 67886, Note_on_c, 9, 42, 0
4, 67922, Note_on_c, 9, 42, 114
4, 67934, Note_on_c, 9, 42, 0
4, 67971, Note_on_c, 9, 42, 114
4, 67983, Note_on_c, 9, 42, 0
4, 68070, Note_on_c, 9, 42, 114
4, 68082, Note_on_c, 9, 42, 0
4, 68116, Note_on_c, 9, 42, 114
4, 68128, Note_on_c, 9, 42, 0
4, 68165, Note_on_c, 9, 42, 114
4, 68177, Note_on_c, 9, 42, 0
4, 68259, Note_on_c, 9, 42, 114
4, 68271, Note_on_c, 9, 42, 0
4, 68303, Note_on_c, 9, 42, 114
4, 68315, Note_on_c, 9, 42, 0
4, 68354, Note_on_c, 9, 42, 114
4, 68366, Note_on_c, 9, 42, 0
4, 68448, Note_on_c, 9, 42, 114
4, 68460, Note_on_c, 9, 42, 0
4, 68496, Note_on_c, 9, 42, 114
4, 68508, Note_on_c, 9, 42, 0
4, 68545, Note_on_c, 9, 42, 114
4, 68557, Note_on_c, 9, 42, 0
4, 68640, Note_on_c, 9, 42, 114
4, 68652, Note_on_c, 9, 42, 0
4, 68688, Note_on_c, 9, 42, 114
4, 68700, Note_on_c, 9, 42, 0
4, 68740, Note_on_c, 9, 42, 114
4, 68752, Note_on_c, 9, 42, 0
4, 68834, Note_on_c, 9, 42, 114
4, 68846, Note_on_c, 9, 42, 0
4, 68880, Note_on_c, 9, 42, 114
4, 68892, Note_on_c, 9, 42, 0
4, 68929, Note_on_c, 9, 42, 114
4, 68941, Note_on_c, 9, 42, 0
4, 69023, Note_on_c, 9, 42, 114
4, 69035, Note_on_c, 9, 42, 0
4, 69071, Note_on_c, 9, 42, 114
4, 69083, Note_on_c, 9, 42, 0
4, 69120, Note_on_c, 9, 42, 114
4, 69132, Note_on_c, 9, 42, 0
4, 69215, Note_on_c, 9, 42, 114
4, 69227, Note_on_c, 9, 42, 0
4, 69263, Note_on_c, 9, 42, 114
4, 69275, Note_on_c, 9, 42, 0
4, 69313, Note_on_c, 9, 42, 114
4, 69325, Note_on_c, 9, 42, 0
4, 69409, Note_on_c, 9, 42, 114
4, 69421, Note_on_c, 9, 42, 0
4, 69456, Note_on_c, 9, 42, 114
4, 69468, Note_on_c, 9, 42, 0
4, 69505, Note_on_c, 9, 42, 114
4, 69517, Note_on_c, 9, 42, 0
4, 69938, Note_on_c, 9, 42, 114
4, 69950, Note_on_c, 9, 42, 0
4, 70031, Note_on_c, 9, 42, 114
4, 70043, Note_on_c, 9, 42, 0
4, 70083, Note_on_c, 9, 42, 114
4, 70095, Note_on_c, 9, 42, 0
4, 70127, Note_on_c, 9, 42, 114
4, 70139, Note_on_c, 9, 42, 0
4, 70223, Note_on_c, 9, 42, 114
4, 70235, Note_on_c, 9, 42, 0
4, 70273, Note_on_c, 9, 42, 114
4, 70285, Note_on_c, 9, 42, 0
4, 70319, Note_on_c, 9, 42, 114
4, 70331, Note_on_c, 9, 42, 0
4, 70416, Note_on_c, 9, 42, 114
4, 70428, Note_on_c, 9, 42, 0
4, 70467, Note_on_c, 9, 42, 114
4, 70479, Note_on_c, 9, 42, 0
4, 70512, Note_on_c, 9, 42, 114
4, 70524, Note_on_c, 9, 42, 0
4, 70608, Note_on_c, 9, 42, 114
4, 70620, Note_on_c, 9, 42, 0
4, 70659, Note_on_c, 9, 42, 114
4, 70671, Note_on_c, 9, 42, 0
4, 70703, Note_on_c, 9, 42, 114
4, 70715, Note_on_c, 9, 42, 0
4, 70801, Note_on_c, 9, 42, 114
4, 70813, Note_on_c, 9, 42, 0
4, 70848, Note_on_c, 9, 42, 114
4, 70860, Note_on_c, 9, 42, 0
4, 70896, Note_on_c, 9, 42, 114
4, 70908, Note_on_c, 9, 42, 0
4, 70992, Note_on_c, 9, 42, 114
4, 71004, Note_on_c, 9, 42, 0
4, 71041, Note_on_c, 9, 42, 114
4, 71053, Note_on_c, 9, 42, 0
4, 71088, Note_on_c, 9, 42, 114
4, 71100, Note_on_c, 9, 42, 0
4, 71183, Note_on_c, 9, 42, 114
4, 71195, Note_on_c, 9, 42, 0
4, 71235, Note_on_c, 9, 42, 114
4, 71247, Note_on_c, 9, 42, 0
4, 71280, Note_on_c, 9, 42, 114
4, 71292, Note_on_c, 9, 42, 0
4, 71376, Note_on_c, 9, 42, 114
4, 71388, Note_on_c, 9, 42, 0
4, 71424, Note_on_c, 9, 42, 114
4, 71436, Note_on_c, 9, 42, 0
4, 71471, Note_on_c, 9, 42, 114
4, 71483, Note_on_c, 9, 42, 0
4, 71567, Note_on_c, 9, 42, 114
4, 71579, Note_on_c, 9, 42, 0
4, 71620, Note_on_c, 9, 42, 114
4, 71632, Note_on_c, 9, 42, 0
4, 71664, Note_on_c, 9, 42, 114
4, 71676, Note_on_c, 9, 42, 0
4, 71760, Note_on_c, 9, 42, 114
4, 71772, Note_on_c, 9, 42, 0
4, 71811, Note_on_c, 9, 42, 114
4, 71823, Note_on_c, 9, 42, 0
4, 71856, Note_on_c, 9, 42, 114
4, 71868, Note_on_c, 9, 42, 0
4, 71952, Note_on_c, 9, 42, 114
4, 71964, Note_on_c, 9, 42, 0
4, 72004, Note_on_c, 9, 42, 114
4, 72016, Note_on_c, 9, 42, 0
4, 72048, Note_on_c, 9, 42, 114
4, 72060, Note_on_c, 9, 42, 0
4, 72143, Note_on_c, 9, 42, 114
4, 72155, Note_on_c, 9, 42, 0
4, 72194, Note_on_c, 9, 42, 114
4, 72206, Note_on_c, 9, 42, 0
4, 72290, Note_on_c, 9, 42, 114
4, 72302, Note_on_c, 9, 42, 0
4, 72336, Note_on_c, 9, 42, 114
4, 72348, Note_on_c, 9, 42, 0
4, 72387, Note_on_c, 9, 42, 114
4, 72399, Note_on_c, 9, 42, 0
4, 72480, Note_on_c, 9, 42, 114
4, 72492, Note_on_c, 9, 42, 0
4, 72527, Note_on_c, 9, 42, 114
4, 72539, Note_on_c, 9, 42, 0
4, 72579, Note_on_c, 9, 42, 114
4, 72591, Note_on_c, 9, 42, 0
4, 73011, Note_on_c, 9, 42, 114
4, 73023, Note_on_c, 9, 42, 0
4, 73103, Note_on_c, 9, 42, 114
4, 73115, Note_on_c, 9, 42, 0
4, 73153, Note_on_c, 9, 42, 114
4, 73165, Note_on_c, 9, 42, 0
4, 73200, Note_on_c, 9, 42, 114
4, 73212, Note_on_c, 9, 42, 0
4, 73296, Note_on_c, 9, 42, 114
4, 73308, Note_on_c, 9, 42, 0
4, 73347, Note_on_c, 9, 42, 114
4, 73359, Note_on_c, 9, 42, 0
4, 73391, Note_on_c, 9, 42, 114
4, 73403, Note_on_c, 9, 42, 0
4, 73487, Note_on_c, 9, 42, 114
4, 73499, Note_on_c, 9, 42, 0
4, 73537, Note_on_c, 9, 42, 114
4, 73549, Note_on_c, 9, 42, 0
4, 73583, Note_on_c, 9, 42, 114
4, 73595, Note_on_c, 9, 42, 0
4, 73680, Note_on_c, 9, 42, 114
4, 73692, Note_on_c, 9, 42, 0
4, 73728, Note_on_c, 9, 42, 114
4, 73740, Note_on_c, 9, 42, 0
4, 73775, Note_on_c, 9, 42, 114
4, 73787, Note_on_c, 9, 42, 0
4, 73871, Note_on_c, 9, 42, 114
4, 73883, Note_on_c, 9, 42, 0
4, 73919, Note_on_c, 9, 42, 114
4, 73931, Note_on_c, 9, 42, 0
4, 73967, Note_on_c, 9, 42, 114
4, 73979, Note_on_c, 9, 42, 0
4, 74063, Note_on_c, 9, 42, 114
4, 74075, Note_on_c, 9, 42, 0
4, 74113, Note_on_c, 9, 42, 114
4, 74125, Note_on_c, 9, 42, 0
4, 74159, Note_on_c, 9, 42, 114
4, 74171, Note_on_c, 9, 42, 0
4, 74255, Note_on_c, 9, 42, 114
4, 74267, Note_on_c, 9, 42, 0
4, 74305, Note_on_c, 9, 42, 114
4, 74317, Note_on_c, 9, 42, 0
4, 74351, Note_on_c, 9, 42, 114
4, 74363, Note_on_c, 9, 42, 0
4, 74447, Note_on_c, 9, 42, 114
4, 74459, Note_on_c, 9, 42, 0
4, 74498, Note_on_c, 9, 42, 114
4, 74510, Note_on_c, 9, 42, 0
4, 74543, Note_on_c, 9, 42, 114
4, 74555, Note_on_c, 9, 42, 0
4, 74640, Note_on_c, 9, 42, 114
4, 74652, Note_on_c, 9, 42, 0
4, 74690, Note_on_c, 9, 42, 114
4, 74702, Note_on_c, 9, 42, 0
4, 74736, Note_on_c, 9, 42, 114
4, 74748, Note_on_c, 9, 42, 0
4, 74831, Note_on_c, 9, 42, 114
4, 74843, Note_on_c, 9, 42, 0
4, 74881, Note_on_c, 9, 42, 114
4, 74893, Note_on_c, 9, 42, 0
4, 74927, Note_on_c, 9, 42, 114
4, 74939, Note_on_c, 9, 42, 0
4, 75023, Note_on_c, 9, 42, 114
4, 75035, Note_on_c, 9, 42, 0
4, 75073, Note_on_c, 9, 42, 114
4, 75085, Note_on_c, 9, 42, 0
4, 75119, Note_on_c, 9, 42, 114
4, 75131, Note_on_c, 9, 42, 0
4, 75215, Note_on_c, 9, 42, 114
4, 75227, Note_on_c, 9, 42, 0
4, 75266, Note_on_c, 9, 42, 114
4, 75278, Note_on_c, 9, 42, 0
4, 75360, Note_on_c, 9, 42, 114
4, 75372, Note_on_c, 9, 42, 0
4, 75408, Note_on_c, 9, 42, 114
4, 75420, Note_on_c, 9, 42, 0
4, 75455, Note_on_c, 9, 42, 114
4, 75467, Note_on_c, 9, 42, 0
4, 75552, Note_on_c, 9, 42, 114
4, 75564, Note_on_c, 9, 42, 0
4, 75599, Note_on_c, 9, 42, 114
4, 75611, Note_on_c, 9, 42, 0
4, 75649, Note_on_c, 9, 42, 114
4, 75661, Note_on_c, 9, 42, 0
4, 76082, Note_on_c, 9, 42, 114
4, 76094, Note_on_c, 9, 42, 0
4, 76175, Note_on_c, 9, 42, 114
4, 76187, Note_on_c, 9, 42, 0
4, 76227, Note_on_c, 9, 42, 114
4, 76239, Note_on_c, 9, 42, 0
4, 76271, Note_on_c, 9, 42, 114
4, 76283, Note_on_c, 9, 42, 0
4, 76367, Note_on_c, 9, 42, 114
4, 76379, Note_on_c, 9, 42, 0
4, 76417, Note_on_c, 9, 42, 114
4, 76429, Note_on_c, 9, 42, 0
4, 76463, Note_on_c, 9, 42, 114
4, 76475, Note_on_c, 9, 42, 0
4, 76560, Note_on_c, 9, 42, 114
4, 76572, Note_on_c, 9, 42, 0
4, 76611, Note_on_c, 9, 42, 114
4, 76623, Note_on_c, 9, 42, 0
4, 76656, Note_on_c, 9, 42, 114
4, 76668, Note_on_c, 9, 42, 0
4, 76752, Note_on_c, 9, 42, 114
4, 76764, Note_on_c, 9, 42, 0
4, 76803, Note_on_c, 9, 42, 114
4, 76815, Note_on_c, 9, 42, 0
4, 76847, Note_on_c, 9, 42, 114
4, 76859, Note_on_c, 9, 42, 0
4, 76945, Note_on_c, 9, 42, 114
4, 76957, Note_on_c, 9, 42, 0
4, 76992, Note_on_c, 9, 42, 114
4, 77004, Note_on_c, 9, 42, 0
4, 77040, Note_on_c, 9, 42, 114
4, 77052, Note_on_c, 9, 42, 0
4, 77136, Note_on_c, 9, 42, 114
4, 77148, Note_on_c, 9, 42, 0
4, 77185, Note_on_c, 9, 42, 114
4, 77197, Note_on_c, 9, 42, 0
4, 77232, Note_on_c, 9, 42, 114
4, 77244, Note_on_c, 9, 42, 0
4, 77327, Note_on_c, 9, 42, 114
4, 77339, Note_on_c, 9, 42, 0
4, 77379, Note_on_c, 9, 42, 114
4, 77391, Note_on_c, 9, 42, 0
4, 77424, Note_on_c, 9, 42, 114
4, 77436, Note_on_c, 9, 42, 0
4, 77520, Note_on_c, 9, 42, 114
4, 77532, Note_on_c, 9, 42, 0
4, 77568, Note_on_c, 9, 42, 114
4, 77580, Note_on_c, 9, 42, 0
4, 77615, Note_on_c, 9, 42, 114
4, 77627, Note_on_c, 9, 42, 0
4, 77711, Note_on_c, 9, 42, 114
4, 77723, Note_on_c, 9, 42, 0
4, 77764, Note_on_c, 9, 42, 114
4, 77776, Note_on_c, 9, 42, 0
4, 77808, Note_on_c, 9, 42, 114
4, 77820, Note_on_c, 9, 42, 0
4, 77904, Note_on_c, 9, 42, 114
4, 77916, Note_on_c, 9, 42, 0
4, 77955, Note_on_c, 9, 42, 114
4, 77967, Note_on_c, 9, 42, 0
4, 78000, Note_on_c, 9, 42, 114
4, 78012, Note_on_c, 9, 42, 0
4, 78096, Note_on_c, 9, 42, 114
4, 78108, Note_on_c, 9, 42, 0
4, 78148, Note_on_c, 9, 42, 114
4, 78160, Note_on_c, 9, 42, 0
4, 78192, Note_on_c, 9, 42, 114
4, 78204, Note_on_c, 9, 42, 0
4, 78287, Note_on_c, 9, 42, 114
4, 78299, Note_on_c, 9, 42, 0
4, 78338, Note_on_c, 9, 42, 114
4, 78350, Note_on_c, 9, 42, 0
4, 78434, Note_on_c, 9, 42, 114
4, 78446, Note_on_c, 9, 42, 0
4, 78480, Note_on_c, 9, 42, 114
4, 78492, Note_on_c, 9, 42, 0
4, 78531, Note_on_c, 9, 42, 114
4, 78543, Note_on_c, 9, 42, 0
4, 78624, Note_on_c, 9, 42, 114
4, 78636, Note_on_c, 9, 42, 0
4, 78671, Note_on_c, 9, 42, 114
4, 78683, Note_on_c, 9, 42, 0
4, 78723, Note_on_c, 9, 42, 114
4, 78735, Note_on_c, 9, 42, 0
4, 79152, Note_on_c, 9, 42, 114
4, 79164, Note_on_c, 9, 42, 0
4, 79248, Note_on_c, 9, 42, 114
4, 79260, Note_on_c, 9, 42, 0
4, 79297, Note_on_c, 9, 42, 114
4, 79309, Note_on_c, 9, 42, 0
4, 79344, Note_on_c, 9, 42, 114
4, 79356, Note_on_c, 9, 42, 0
4, 79439, Note_on_c, 9, 42, 114
4, 79451, Note_on_c, 9, 42, 0
4, 79492, Note_on_c, 9, 42, 114
4, 79504, Note_on_c, 9, 42, 0
4, 79536, Note_on_c, 9, 42, 114
4, 79548, Note_on_c, 9, 42, 0
4, 79632, Note_on_c, 9, 42, 114
4, 79644, Note_on_c, 9, 42, 0
4, 79681, Note_on_c, 9, 42, 114
4, 79693, Note_on_c, 9, 42, 0
4, 79727, Note_on_c, 9, 42, 114
4, 79739, Note_on_c, 9, 42, 0
4, 79823, Note_on_c, 9, 42, 114
4, 79835, Note_on_c, 9, 42, 0
4, 79872, Note_on_c, 9, 42, 114
4, 79884, Note_on_c, 9, 42, 0
4, 79919, Note_on_c, 9, 42, 114
4, 79931, Note_on_c, 9, 42, 0
4, 80016, Note_on_c, 9, 42, 114
4, 80028, Note_on_c, 9, 42, 0
4, 80065, Note_on_c, 9, 42, 114
4, 80077, Note_on_c, 9, 42, 0
4, 80111, Note_on_c, 9, 42, 114
4, 80123, Note_on_c, 9, 42, 0
4, 80207, Note_on_c, 9, 42, 114
4, 80219, Note_on_c, 9, 42, 0
4, 80258, Note_on_c, 9, 42, 114
4, 80270, Note_on_c, 9, 42, 0
4, 80303, Note_on_c, 9, 42, 114
4, 80315, Note_on_c, 9, 42, 0
4, 80400, Note_on_c, 9, 42, 114
4, 80412, Note_on_c, 9, 42, 0
4, 80450, Note_on_c, 9, 42, 114
4, 80462, Note_on_c, 9, 42, 0
4, 80498, Note_on_c, 9, 42, 114
4, 80510, Note_on_c, 9, 42, 0
4, 80591, Note_on_c, 9, 42, 114
4, 80603, Note_on_c, 9, 42, 0
4, 80640, Note_on_c, 9, 42, 114
4, 80652, Note_on_c, 9, 42, 0
4, 80687, Note_on_c, 9, 42, 114
4, 80699, Note_on_c, 9, 42, 0
4, 80783, Note_on_c, 9, 42, 114
4, 80795, Note_on_c, 9, 42, 0
4, 80835, Note_on_c, 9, 42, 114
4, 80847, Note_on_c, 9, 42, 0
4, 80880, Note_on_c, 9, 42, 114
4, 80892, Note_on_c, 9, 42, 0
4, 80976, Note_on_c, 9, 42, 114
4, 80988, Note_on_c, 9, 42, 0
4, 81025, Note_on_c, 9, 42, 114
4, 81037, Note_on_c, 9, 42, 0
4, 81071, Note_on_c, 9, 42, 114
4, 81083, Note_on_c, 9, 42, 0
4, 81167, Note_on_c, 9, 42, 114
4, 81179, Note_on_c, 9, 42, 0
4, 81219, Note_on_c, 9, 42, 114
4, 81231, Note_on_c, 9, 42, 0
4, 81263, Note_on_c, 9, 42, 114
4, 81275, Note_on_c, 9, 42, 0
4, 81360, Note_on_c, 9, 42, 114
4, 81372, Note_on_c, 9, 42, 0
4, 81372, End_track
5, 0, Start_track
5, 0, MIDI_port, 0
5, 0, Title_t, ""
5, 0, Control_c, 9, 7, 127
5, 0, Control_c, 9, 10, 64
5, 0, Control_c, 9, 91, 0
5, 0, Control_c, 9, 93, 0
5, 1982, Control_c, 9, 91, 0
5, 1982, Control_c, 9, 93, 0
5, 1982, Control_c, 9, 10, 64
5, 1982, Control_c, 9, 7, 127
5, 19680, Note_on_c, 9, 46, 114
5, 19692, Note_on_c, 9, 46, 0
5, 20066, Note_on_c, 9, 46, 114
5, 20078, Note_on_c, 9, 46, 0
5, 20258, Note_on_c, 9, 46, 114
5, 20270, Note_on_c, 9, 46, 0
5, 20449, Note_on_c, 9, 46, 114
5, 20461, Note_on_c, 9, 46, 0
5, 20639, Note_on_c, 9, 46, 114
5, 20651, Note_on_c, 9, 46, 0
5, 20834, Note_on_c, 9, 46, 114
5, 20846, Note_on_c, 9, 46, 0
5, 21023, Note_on_c, 9, 46, 114
5, 21035, Note_on_c, 9, 46, 0
5, 21215, Note_on_c, 9, 46, 114
5, 21227, Note_on_c, 9, 46, 0
5, 21407, Note_on_c, 9, 46, 114
5, 21419, Note_on_c, 9, 46, 0
5, 21599, Note_on_c, 9, 46, 114
5, 21611, Note_on_c, 9, 46, 0
5, 21792, Note_on_c, 9, 46, 114
5, 21804, Note_on_c, 9, 46, 0
5, 21983, Note_on_c, 9, 46, 114
5, 21995, Note_on_c, 9, 46, 0
5, 22175, Note_on_c, 9, 46, 114
5, 22187, Note_on_c, 9, 46, 0
5, 22752, Note_on_c, 9, 46, 114
5, 22764, Note_on_c, 9, 46, 0
5, 23136, Note_on_c, 9, 46, 114
5, 23148, Note_on_c, 9, 46, 0
5, 23328, Note_on_c, 9, 46, 114
5, 23340, Note_on_c, 9, 46, 0
5, 23518, Note_on_c, 9, 46, 114
5, 23530, Note_on_c, 9, 46, 0
5, 23714, Note_on_c, 9, 46, 114
5, 23726, Note_on_c, 9, 46, 0
5, 23904, Note_on_c, 9, 46, 114
5, 23916, Note_on_c, 9, 46, 0
5, 24095, Note_on_c, 9, 46, 114
5, 24107, Note_on_c, 9, 46, 0
5, 24288, Note_on_c, 9, 46, 114
5, 24300, Note_on_c, 9, 46, 0
5, 24480, Note_on_c, 9, 46, 114
5, 24492, Note_on_c, 9, 46, 0
5, 24671, Note_on_c, 9, 46, 114
5, 24683, Note_on_c, 9, 46, 0
5, 24863, Note_on_c, 9, 46, 114
5, 24875, Note_on_c, 9, 46, 0
5, 25056, Note_on_c, 9, 46, 114
5, 25068, Note_on_c, 9, 46, 0
5, 25247, Note_on_c, 9, 46, 114
5, 25259, Note_on_c, 9, 46, 0
5, 25439, Note_on_c, 9, 46, 114
5, 25451, Note_on_c, 9, 46, 0
5, 25634, Note_on_c, 9, 46, 114
5, 25646, Note_on_c, 9, 46, 0
5, 37345, Note_on_c, 9, 46, 114
5, 37357, Note_on_c, 9, 46, 0
5, 37727, Note_on_c, 9, 46, 114
5, 37739, Note_on_c, 9, 46, 0
5, 37919, Note_on_c, 9, 46, 114
5, 37931, Note_on_c, 9, 46, 0
5, 38112, Note_on_c, 9, 46, 114
5, 38124, Note_on_c, 9, 46, 0
5, 38303, Note_on_c, 9, 46, 114
5, 38315, Note_on_c, 9, 46, 0
5, 38495, Note_on_c, 9, 46, 114
5, 38507, Note_on_c, 9, 46, 0
5, 38687, Note_on_c, 9, 46, 114
5, 38699, Note_on_c, 9, 46, 0
5, 38879, Note_on_c, 9, 46, 114
5, 38891, Note_on_c, 9, 46, 0
5, 39071, Note_on_c, 9, 46, 114
5, 39083, Note_on_c, 9, 46, 0
5, 39264, Note_on_c, 9, 46, 114
5, 39276, Note_on_c, 9, 46, 0
5, 39456, Note_on_c, 9, 46, 114
5, 39468, Note_on_c, 9, 46, 0
5, 39647, Note_on_c, 9, 46, 114
5, 39659, Note_on_c, 9, 46, 0
5, 39840, Note_on_c, 9, 46, 114
5, 39852, Note_on_c, 9, 46, 0
5, 40415, Note_on_c, 9, 46, 114
5, 40427, Note_on_c, 9, 46, 0
5, 40800, Note_on_c, 9, 46, 114
5, 40812, Note_on_c, 9, 46, 0
5, 40992, Note_on_c, 9, 46, 114
5, 41004, Note_on_c, 9, 46, 0
5, 41183, Note_on_c, 9, 46, 114
5, 41195, Note_on_c, 9, 46, 0
5, 41376, Note_on_c, 9, 46, 114
5, 41388, Note_on_c, 9, 46, 0
5, 41568, Note_on_c, 9, 46, 114
5, 41580, Note_on_c, 9, 46, 0
5, 41760, Note_on_c, 9, 46, 114
5, 41772, Note_on_c, 9, 46, 0
5, 41952, Note_on_c, 9, 46, 114
5, 41964, Note_on_c, 9, 46, 0
5, 42143, Note_on_c, 9, 46, 114
5, 42155, Note_on_c, 9, 46, 0
5, 42335, Note_on_c, 9, 46, 114
5, 42347, Note_on_c, 9, 46, 0
5, 42528, Note_on_c, 9, 46, 114
5, 42540, Note_on_c, 9, 46, 0
5, 42719, Note_on_c, 9, 46, 114
5, 42731, Note_on_c, 9, 46, 0
5, 42912, Note_on_c, 9, 46, 114
5, 42924, Note_on_c, 9, 46, 0
5, 43487, Note_on_c, 9, 46, 114
5, 43499, Note_on_c, 9, 46, 0
5, 43871, Note_on_c, 9, 46, 114
5, 43883, Note_on_c, 9, 46, 0
5, 44063, Note_on_c, 9, 46, 114
5, 44075, Note_on_c, 9, 46, 0
5, 44256, Note_on_c, 9, 46, 114
5, 44268, Note_on_c, 9, 46, 0
5, 44447, Note_on_c, 9, 46, 114
5, 44459, Note_on_c, 9, 46, 0
5, 44639, Note_on_c, 9, 46, 114
5, 44651, Note_on_c, 9, 46, 0
5, 44831, Note_on_c, 9, 46, 114
5, 44843, Note_on_c, 9, 46, 0
5, 45023, Note_on_c, 9, 46, 114
5, 45035, Note_on_c, 9, 46, 0
5, 45215, Note_on_c, 9, 46, 114
5, 45227, Note_on_c, 9, 46, 0
5, 45408, Note_on_c, 9, 46, 114
5, 45420, Note_on_c, 9, 46, 0
5, 45600, Note_on_c, 9, 46, 114
5, 45612, Note_on_c, 9, 46, 0
5, 45791, Note_on_c, 9, 46, 114
5, 45803, Note_on_c, 9, 46, 0
5, 45984, Note_on_c, 9, 46, 114
5, 45996, Note_on_c, 9, 46, 0
5, 46559, Note_on_c, 9, 46, 114
5, 46571, Note_on_c, 9, 46, 0
5, 46947, Note_on_c, 9, 46, 114
5, 46959, Note_on_c, 9, 46, 0
5, 47138, Note_on_c, 9, 46, 114
5, 47150, Note_on_c, 9, 46, 0
5, 47327, Note_on_c, 9, 46, 114
5, 47339, Note_on_c, 9, 46, 0
5, 47521, Note_on_c, 9, 46, 114
5, 47533, Note_on_c, 9, 46, 0
5, 47713, Note_on_c, 9, 46, 114
5, 47725, Note_on_c, 9, 46, 0
5, 47905, Note_on_c, 9, 46, 114
5, 47917, Note_on_c, 9, 46, 0
5, 48098, Note_on_c, 9, 46, 114
5, 48110, Note_on_c, 9, 46, 0
5, 48288, Note_on_c, 9, 46, 114
5, 48300, Note_on_c, 9, 46, 0
5, 48479, Note_on_c, 9, 46, 114
5, 48491, Note_on_c, 9, 46, 0
5, 48672, Note_on_c, 9, 46, 114
5, 48684, Note_on_c, 9, 46, 0
5, 48863, Note_on_c, 9, 46, 114
5, 48875, Note_on_c, 9, 46, 0
5, 49056, Note_on_c, 9, 46, 114
5, 49068, Note_on_c, 9, 46, 0
5, 49441, Note_on_c, 9, 46, 114
5, 49453, Note_on_c, 9, 46, 0
5, 50497, Note_on_c, 9, 46, 114
5, 50509, Note_on_c, 9, 46, 0
5, 52035, Note_on_c, 9, 46, 114
5, 52047, Note_on_c, 9, 46, 0
5, 69599, Note_on_c, 9, 46, 114
5, 69611, Note_on_c, 9, 46, 0
5, 69984, Note_on_c, 9, 46, 114
5, 69996, Note_on_c, 9, 46, 0
5, 70175, Note_on_c, 9, 46, 114
5, 70187, Note_on_c, 9, 46, 0
5, 70368, Note_on_c, 9, 46, 114
5, 70380, Note_on_c, 9, 46, 0
5, 70559, Note_on_c, 9, 46, 114
5, 70571, Note_on_c, 9, 46, 0
5, 70752, Note_on_c, 9, 46, 114
5, 70764, Note_on_c, 9, 46, 0
5, 70944, Note_on_c, 9, 46, 114
5, 70956, Note_on_c, 9, 46, 0
5, 71136, Note_on_c, 9, 46, 114
5, 71148, Note_on_c, 9, 46, 0
5, 71328, Note_on_c, 9, 46, 114
5, 71340, Note_on_c, 9, 46, 0
5, 71519, Note_on_c, 9, 46, 114
5, 71531, Note_on_c, 9, 46, 0
5, 71711, Note_on_c, 9, 46, 114
5, 71723, Note_on_c, 9, 46, 0
5, 71904, Note_on_c, 9, 46, 114
5, 71916, Note_on_c, 9, 46, 0
5, 72096, Note_on_c, 9, 46, 114
5, 72108, Note_on_c, 9, 46, 0
5, 72673, Note_on_c, 9, 46, 114
5, 72685, Note_on_c, 9, 46, 0
5, 73056, Note_on_c, 9, 46, 114
5, 73068, Note_on_c, 9, 46, 0
5, 73248, Note_on_c, 9, 46, 114
5, 73260, Note_on_c, 9, 46, 0
5, 73439, Note_on_c, 9, 46, 114
5, 73451, Note_on_c, 9, 46, 0
5, 73632, Note_on_c, 9, 46, 114
5, 73644, Note_on_c, 9, 46, 0
5, 73823, Note_on_c, 9, 46, 114
5, 73835, Note_on_c, 9, 46, 0
5, 74015, Note_on_c, 9, 46, 114
5, 74027, Note_on_c, 9, 46, 0
5, 74207, Note_on_c, 9, 46, 114
5, 74219, Note_on_c, 9, 46, 0
5, 74399, Note_on_c, 9, 46, 114
5, 74411, Note_on_c, 9, 46, 0
5, 74592, Note_on_c, 9, 46, 114
5, 74604, Note_on_c, 9, 46, 0
5, 74786, Note_on_c, 9, 46, 114
5, 74798, Note_on_c, 9, 46, 0
5, 74976, Note_on_c, 9, 46, 114
5, 74988, Note_on_c, 9, 46, 0
5, 75167, Note_on_c, 9, 46, 114
5, 75179, Note_on_c, 9, 46, 0
5, 75744, Note_on_c, 9, 46, 114
5, 75756, Note_on_c, 9, 46, 0
5, 76128, Note_on_c, 9, 46, 114
5, 76140, Note_on_c, 9, 46, 0
5, 76319, Note_on_c, 9, 46, 114
5, 76331, Note_on_c, 9, 46, 0
5, 76512, Note_on_c, 9, 46, 114
5, 76524, Note_on_c, 9, 46, 0
5, 76703, Note_on_c, 9, 46, 114
5, 76715, Note_on_c, 9, 46, 0
5, 76896, Note_on_c, 9, 46, 114
5, 76908, Note_on_c, 9, 46, 0
5, 77088, Note_on_c, 9, 46, 114
5, 77100, Note_on_c, 9, 46, 0
5, 77280, Note_on_c, 9, 46, 114
5, 77292, Note_on_c, 9, 46, 0
5, 77472, Note_on_c, 9, 46, 114
5, 77484, Note_on_c, 9, 46, 0
5, 77663, Note_on_c, 9, 46, 114
5, 77675, Note_on_c, 9, 46, 0
5, 77855, Note_on_c, 9, 46, 114
5, 77867, Note_on_c, 9, 46, 0
5, 78048, Note_on_c, 9, 46, 114
5, 78060, Note_on_c, 9, 46, 0
5, 78240, Note_on_c, 9, 46, 114
5, 78252, Note_on_c, 9, 46, 0
5, 78817, Note_on_c, 9, 46, 114
5, 78829, Note_on_c, 9, 46, 0
5, 79200, Note_on_c, 9, 46, 114
5, 79212, Note_on_c, 9, 46, 0
5, 79392, Note_on_c, 9, 46, 114
5, 79404, Note_on_c, 9, 46, 0
5, 79584, Note_on_c, 9, 46, 114
5, 79596, Note_on_c, 9, 46, 0
5, 79775, Note_on_c, 9, 46, 114
5, 79787, Note_on_c, 9, 46, 0
5, 79968, Note_on_c, 9, 46, 114
5, 79980, Note_on_c, 9, 46, 0
5, 80159, Note_on_c, 9, 46, 114
5, 80171, Note_on_c, 9, 46, 0
5, 80351, Note_on_c, 9, 46, 114
5, 80363, Note_on_c, 9, 46, 0
5, 80544, Note_on_c, 9, 46, 114
5, 80556, Note_on_c, 9, 46, 0
5, 80735, Note_on_c, 9, 46, 114
5, 80747, Note_on_c, 9, 46, 0
5, 80928, Note_on_c, 9, 46, 114
5, 80940, Note_on_c, 9, 46, 0
5, 81120, Note_on_c, 9, 46, 114
5, 81132, Note_on_c, 9, 46, 0
5, 81312, Note_on_c, 9, 46, 114
5, 81324, Note_on_c, 9, 46, 0
5, 81324, End_track
6, 0, Start_track
6, 0, MIDI_port, 0
6, 0, Title_t, ""
6, 0, Control_c, 9, 7, 127
6, 0, Control_c, 9, 10, 64
6, 0, Control_c, 9, 91, 0
6, 0, Control_c, 9, 93, 0
6, 1982, Control_c, 9, 91, 0
6, 1982, Control_c, 9, 93, 0
6, 1982, Control_c, 9, 10, 64
6, 1982, Control_c, 9, 7, 127
6, 3842, Note_on_c, 9, 49, 93
6, 3854, Note_on_c, 9, 49, 0
6, 5377, Note_on_c, 9, 49, 117
6, 5389, Note_on_c, 9, 49, 0
6, 8451, Note_on_c, 9, 49, 117
6, 8463, Note_on_c, 9, 49, 0
6, 19871, Note_on_c, 9, 49, 117
6, 19883, Note_on_c, 9, 49, 0
6, 19971, Note_on_c, 9, 49, 117
6, 19983, Note_on_c, 9, 49, 0
6, 22944, Note_on_c, 9, 49, 117
6, 22956, Note_on_c, 9, 49, 0
6, 23043, Note_on_c, 9, 49, 117
6, 23055, Note_on_c, 9, 49, 0
6, 23813, Note_on_c, 9, 49, 117
6, 23825, Note_on_c, 9, 49, 0
6, 24582, Note_on_c, 9, 49, 117
6, 24594, Note_on_c, 9, 49, 0
6, 25922, Note_on_c, 9, 49, 117
6, 25934, Note_on_c, 9, 49, 0
6, 26117, Note_on_c, 9, 49, 117
6, 26129, Note_on_c, 9, 49, 0
6, 37537, Note_on_c, 9, 49, 117
6, 37549, Note_on_c, 9, 49, 0
6, 37631, Note_on_c, 9, 49, 117
6, 37643, Note_on_c, 9, 49, 0
6, 38400, Note_on_c, 9, 49, 117
6, 38412, Note_on_c, 9, 49, 0
6, 39173, Note_on_c, 9, 49, 117
6, 39185, Note_on_c, 9, 49, 0
6, 40607, Note_on_c, 9, 49, 117
6, 40619, Note_on_c, 9, 49, 0
6, 40707, Note_on_c, 9, 49, 117
6, 40719, Note_on_c, 9, 49, 0
6, 41475, Note_on_c, 9, 49, 117
6, 41487, Note_on_c, 9, 49, 0
6, 42245, Note_on_c, 9, 49, 117
6, 42257, Note_on_c, 9, 49, 0
6, 43679, Note_on_c, 9, 49, 117
6, 43691, Note_on_c, 9, 49, 0
6, 43776, Note_on_c, 9, 49, 118
6, 43824, Note_on_c, 9, 49, 0
6, 44544, Note_on_c, 9, 49, 117
6, 44556, Note_on_c, 9, 49, 0
6, 45317, Note_on_c, 9, 49, 117
6, 45329, Note_on_c, 9, 49, 0
6, 46751, Note_on_c, 9, 49, 117
6, 46763, Note_on_c, 9, 49, 0
6, 46848, Note_on_c, 9, 49, 117
6, 46860, Note_on_c, 9, 49, 0
6, 47621, Note_on_c, 9, 49, 117
6, 47633, Note_on_c, 9, 49, 0
6, 48384, Note_on_c, 9, 49, 117
6, 48396, Note_on_c, 9, 49, 0
6, 49153, Note_on_c, 9, 49, 117
6, 49165, Note_on_c, 9, 49, 0
6, 49825, Note_on_c, 9, 49, 117
6, 49837, Note_on_c, 9, 49, 0
6, 50694, Note_on_c, 9, 49, 117
6, 50706, Note_on_c, 9, 49, 0
6, 51362, Note_on_c, 9, 49, 117
6, 51374, Note_on_c, 9, 49, 0
6, 52224, Note_on_c, 9, 49, 117
6, 52236, Note_on_c, 9, 49, 0
6, 55296, Note_on_c, 9, 49, 117
6, 55308, Note_on_c, 9, 49, 0
6, 58370, Note_on_c, 9, 49, 117
6, 58382, Note_on_c, 9, 49, 0
6, 61443, Note_on_c, 9, 49, 117
6, 61455, Note_on_c, 9, 49, 0
6, 64513, Note_on_c, 9, 49, 117
6, 64525, Note_on_c, 9, 49, 0
6, 69791, Note_on_c, 9, 49, 117
6, 69803, Note_on_c, 9, 49, 0
6, 69892, Note_on_c, 9, 49, 117
6, 69904, Note_on_c, 9, 49, 0
6, 70661, Note_on_c, 9, 49, 117
6, 70673, Note_on_c, 9, 49, 0
6, 71424, Note_on_c, 9, 49, 117
6, 71436, Note_on_c, 9, 49, 0
6, 72867, Note_on_c, 9, 49, 117
6, 72879, Note_on_c, 9, 49, 0
6, 72961, Note_on_c, 9, 49, 117
6, 72973, Note_on_c, 9, 49, 0
6, 75935, Note_on_c, 9, 49, 117
6, 75947, Note_on_c, 9, 49, 0
6, 76036, Note_on_c, 9, 49, 117
6, 76048, Note_on_c, 9, 49, 0
6, 76805, Note_on_c, 9, 49, 117
6, 76817, Note_on_c, 9, 49, 0
6, 77568, Note_on_c, 9, 49, 117
6, 77580, Note_on_c, 9, 49, 0
6, 79011, Note_on_c, 9, 49, 117
6, 79023, Note_on_c, 9, 49, 0
6, 79104, Note_on_c, 9, 49, 117
6, 79116, Note_on_c, 9, 49, 0
6, 79872, Note_on_c, 9, 49, 117
6, 79884, Note_on_c, 9, 49, 0
6, 80640, Note_on_c, 9, 49, 117
6, 80652, Note_on_c, 9, 49, 0
6, 81408, Note_on_c, 9, 49, 117
6, 81420, Note_on_c, 9, 49, 0
6, 82080, Note_on_c, 9, 49, 117
6, 82092, Note_on_c, 9, 49, 0
6, 82944, Note_on_c, 9, 49, 117
6, 82956, Note_on_c, 9, 49, 0
6, 83618, Note_on_c, 9, 49, 117
6, 83630, Note_on_c, 9, 49, 0
6, 83630, End_track
7, 0, Start_track
7, 0, MIDI_port, 0
7, 0, Title_t, ""
7, 0, Control_c, 9, 7, 127
7, 0, Control_c, 9, 10, 64
7, 0, Control_c, 9, 91, 0
7, 0, Control_c, 9, 93, 0
7, 1982, Control_c, 9, 91, 0
7, 1982, Control_c, 9, 93, 0
7, 1982, Control_c, 9, 10, 64
7, 1982, Control_c, 9, 7, 127
7, 50977, Note_on_c, 9, 51, 119
7, 50989, Note_on_c, 9, 51, 0
7, 64608, Note_on_c, 9, 51, 119
7, 64620, Note_on_c, 9, 51, 0
7, 64801, Note_on_c, 9, 51, 119
7, 64813, Note_on_c, 9, 51, 0
7, 64993, Note_on_c, 9, 51, 119
7, 65005, Note_on_c, 9, 51, 0
7, 65185, Note_on_c, 9, 51, 119
7, 65197, Note_on_c, 9, 51, 0
7, 65379, Note_on_c, 9, 51, 119
7, 65391, Note_on_c, 9, 51, 0
7, 65570, Note_on_c, 9, 51, 119
7, 65582, Note_on_c, 9, 51, 0
7, 65762, Note_on_c, 9, 51, 119
7, 65774, Note_on_c, 9, 51, 0
7, 65954, Note_on_c, 9, 51, 119
7, 65966, Note_on_c, 9, 51, 0
7, 66145, Note_on_c, 9, 51, 119
7, 66157, Note_on_c, 9, 51, 0
7, 66343, Note_on_c, 9, 51, 119
7, 66355, Note_on_c, 9, 51, 0
7, 66535, Note_on_c, 9, 51, 119
7, 66547, Note_on_c, 9, 51, 0
7, 66725, Note_on_c, 9, 51, 119
7, 66737, Note_on_c, 9, 51, 0
7, 66913, Note_on_c, 9, 51, 119
7, 66925, Note_on_c, 9, 51, 0
7, 67106, Note_on_c, 9, 51, 119
7, 67118, Note_on_c, 9, 51, 0
7, 67301, Note_on_c, 9, 51, 119
7, 67313, Note_on_c, 9, 51, 0
7, 67489, Note_on_c, 9, 51, 119
7, 67501, Note_on_c, 9, 51, 0
7, 67681, Note_on_c, 9, 51, 119
7, 67693, Note_on_c, 9, 51, 0
7, 67875, Note_on_c, 9, 51, 119
7, 67887, Note_on_c, 9, 51, 0
7, 68070, Note_on_c, 9, 51, 119
7, 68082, Note_on_c, 9, 51, 0
7, 68260, Note_on_c, 9, 51, 119
7, 68272, Note_on_c, 9, 51, 0
7, 68449, Note_on_c, 9, 51, 119
7, 68461, Note_on_c, 9, 51, 0
7, 68641, Note_on_c, 9, 51, 119
7, 68653, Note_on_c, 9, 51, 0
7, 68835, Note_on_c, 9, 51, 119
7, 68847, Note_on_c, 9, 51, 0
7, 69026, Note_on_c, 9, 51, 119
7, 69038, Note_on_c, 9, 51, 0
7, 72290, Note_on_c, 9, 51, 119
7, 72302, Note_on_c, 9, 51, 0
7, 78434, Note_on_c, 9, 51, 119
7, 78446, Note_on_c, 9, 51, 0
7, 81695, Note_on_c, 9, 51, 119
7, 81707, Note_on_c, 9, 51, 0
7, 83234, Note_on_c, 9, 51, 119
7, 83246, Note_on_c, 9, 51, 0
7, 83246, End_track
8, 0, Start_track
8, 0, MIDI_port, 0
8, 0, Title_t, ""
8, 0, Control_c, 7, 0, 56
8, 0, Control_c, 7, 32, 0
8, 0, Program_c, 7, 7
8, 0, Control_c, 7, 7, 127
8, 0, Control_c, 7, 10, 75
8, 0, Control_c, 7, 91, 81
8, 0, Control_c, 7, 93, 36
8, 1316, Control_c, 7, 93, 36
8, 1410, Control_c, 7, 93, 39
8, 1423, Control_c, 7, 93, 42
8, 1456, Control_c, 7, 93, 42
8, 1460, Control_c, 7, 93, 45
8, 1942, Control_c, 7, 91, 81
8, 1982, Control_c, 7, 93, 0
8, 1982, Control_c, 7, 10, 75
8, 1982, Control_c, 7, 7, 127
8, 2036, Control_c, 7, 91, 81
8, 2044, Control_c, 7, 91, 78
8, 2068, Control_c, 7, 91, 75
8, 2726, Control_c, 7, 93, 0
8, 2741, Control_c, 7, 93, 3
8, 2885, Control_c, 7, 93, 6
8, 2893, Control_c, 7, 93, 9
8, 2909, Control_c, 7, 93, 12
8, 2937, Control_c, 7, 93, 14
8, 2977, Control_c, 7, 93, 17
8, 2992, Control_c, 7, 93, 17
8, 3008, Control_c, 7, 93, 20
8, 3040, Control_c, 7, 93, 23
8, 3072, Control_c, 7, 93, 25
8, 3080, Control_c, 7, 93, 28
8, 3105, Control_c, 7, 93, 28
8, 3113, Control_c, 7, 93, 31
8, 3169, Control_c, 7, 93, 34
8, 3689, Control_c, 7, 93, 36
8, 5376, Note_on_c, 7, 59, 93
8, 5376, Note_on_c, 7, 55, 93
8, 5376, Note_on_c, 7, 62, 93
8, 5448, Note_on_c, 7, 62, 0
8, 5448, Note_on_c, 7, 55, 0
8, 5448, Note_on_c, 7, 59, 0
8, 5472, Note_on_c, 7, 59, 93
8, 5472, Note_on_c, 7, 62, 93
8, 5472, Note_on_c, 7, 55, 93
8, 5496, Note_on_c, 7, 55, 0
8, 5496, Note_on_c, 7, 62, 0
8, 5496, Note_on_c, 7, 59, 0
8, 5520, Note_on_c, 7, 59, 93
8, 5520, Note_on_c, 7, 55, 93
8, 5520, Note_on_c, 7, 62, 93
8, 5544, Note_on_c, 7, 62, 0
8, 5544, Note_on_c, 7, 55, 0
8, 5544, Note_on_c, 7, 59, 0
8, 5664, Note_on_c, 7, 62, 93
8, 5664, Note_on_c, 7, 55, 93
8, 5664, Note_on_c, 7, 59, 93
8, 5688, Note_on_c, 7, 59, 0
8, 5688, Note_on_c, 7, 55, 0
8, 5688, Note_on_c, 7, 62, 0
8, 5856, Note_on_c, 7, 62, 93
8, 5856, Note_on_c, 7, 55, 93
8, 5856, Note_on_c, 7, 59, 93
8, 5880, Note_on_c, 7, 59, 0
8, 5880, Note_on_c, 7, 55, 0
8, 5880, Note_on_c, 7, 62, 0
8, 6000, Note_on_c, 7, 62, 93
8, 6000, Note_on_c, 7, 55, 93
8, 6000, Note_on_c, 7, 59, 93
8, 6024, Note_on_c, 7, 59, 0
8, 6024, Note_on_c, 7, 55, 0
8, 6024, Note_on_c, 7, 62, 0
8, 6144, Note_on_c, 7, 59, 93
8, 6144, Note_on_c, 7, 66, 93
8, 6144, Note_on_c, 7, 63, 93
8, 6240, Note_on_c, 7, 63, 0
8, 6240, Note_on_c, 7, 66, 0
8, 6240, Note_on_c, 7, 59, 0
8, 6288, Note_on_c, 7, 63, 93
8, 6288, Note_on_c, 7, 66, 93
8, 6288, Note_on_c, 7, 59, 93
8, 6312, Note_on_c, 7, 59, 0
8, 6312, Note_on_c, 7, 66, 0
8, 6312, Note_on_c, 7, 63, 0
8, 6336, Note_on_c, 7, 59, 93
8, 6336, Note_on_c, 7, 66, 93
8, 6336, Note_on_c, 7, 63, 93
8, 6360, Note_on_c, 7, 63, 0
8, 6360, Note_on_c, 7, 66, 0
8, 6360, Note_on_c, 7, 59, 0
8, 6432, Note_on_c, 7, 63, 93
8, 6432, Note_on_c, 7, 59, 93
8, 6432, Note_on_c, 7, 66, 93
8, 6456, Note_on_c, 7, 66, 0
8, 6456, Note_on_c, 7, 59, 0
8, 6456, Note_on_c, 7, 63, 0
8, 6480, Note_on_c, 7, 63, 93
8, 6480, Note_on_c, 7, 66, 93
8, 6480, Note_on_c, 7, 59, 93
8, 6504, Note_on_c, 7, 59, 0
8, 6504, Note_on_c, 7, 66, 0
8, 6504, Note_on_c, 7, 63, 0
8, 6624, Note_on_c, 7, 63, 93
8, 6624, Note_on_c, 7, 59, 93
8, 6624, Note_on_c, 7, 66, 93
8, 6648, Note_on_c, 7, 66, 0
8, 6648, Note_on_c, 7, 59, 0
8, 6648, Note_on_c, 7, 63, 0
8, 6721, Control_c, 7, 10, 75
8, 6768, Note_on_c, 7, 63, 93
8, 6768, Note_on_c, 7, 59, 93
8, 6768, Note_on_c, 7, 66, 93
8, 6792, Note_on_c, 7, 66, 0
8, 6792, Note_on_c, 7, 59, 0
8, 6792, Note_on_c, 7, 63, 0
8, 6826, Control_c, 7, 10, 78
8, 6912, Note_on_c, 7, 64, 93
8, 6912, Note_on_c, 7, 59, 93
8, 6912, Note_on_c, 7, 55, 93
8, 7008, Note_on_c, 7, 55, 0
8, 7008, Note_on_c, 7, 59, 0
8, 7008, Note_on_c, 7, 64, 0
8, 7044, Control_c, 7, 93, 0
8, 7056, Note_on_c, 7, 59, 93
8, 7056, Note_on_c, 7, 55, 93
8, 7056, Note_on_c, 7, 64, 93
8, 7063, Control_c, 7, 93, 3
8, 7080, Note_on_c, 7, 64, 0
8, 7080, Note_on_c, 7, 55, 0
8, 7080, Note_on_c, 7, 59, 0
8, 7084, Control_c, 7, 93, 6
8, 7092, Control_c, 7, 93, 9
8, 7104, Note_on_c, 7, 55, 93
8, 7104, Note_on_c, 7, 59, 93
8, 7104, Note_on_c, 7, 64, 93
8, 7106, Control_c, 7, 93, 12
8, 7118, Control_c, 7, 93, 14
8, 7128, Note_on_c, 7, 64, 0
8, 7128, Note_on_c, 7, 59, 0
8, 7128, Note_on_c, 7, 55, 0
8, 7128, Control_c, 7, 93, 17
8, 7148, Control_c, 7, 93, 20
8, 7164, Control_c, 7, 93, 23
8, 7200, Note_on_c, 7, 55, 93
8, 7200, Note_on_c, 7, 59, 93
8, 7200, Note_on_c, 7, 64, 93
8, 7200, Control_c, 7, 93, 25
8, 7224, Note_on_c, 7, 64, 0
8, 7224, Note_on_c, 7, 59, 0
8, 7224, Note_on_c, 7, 55, 0
8, 7248, Note_on_c, 7, 59, 93
8, 7248, Note_on_c, 7, 55, 93
8, 7248, Note_on_c, 7, 64, 93
8, 7272, Note_on_c, 7, 64, 0
8, 7272, Note_on_c, 7, 55, 0
8, 7272, Note_on_c, 7, 59, 0
8, 7392, Note_on_c, 7, 64, 93
8, 7392, Note_on_c, 7, 59, 93
8, 7392, Note_on_c, 7, 55, 93
8, 7416, Note_on_c, 7, 55, 0
8, 7416, Note_on_c, 7, 59, 0
8, 7416, Note_on_c, 7, 64, 0
8, 7468, Control_c, 7, 93, 28
8, 7484, Control_c, 7, 93, 56
8, 7489, Control_c, 7, 93, 58
8, 7516, Control_c, 7, 93, 61
8, 7536, Note_on_c, 7, 55, 93
8, 7536, Note_on_c, 7, 64, 93
8, 7536, Note_on_c, 7, 59, 93
8, 7560, Note_on_c, 7, 59, 0
8, 7560, Note_on_c, 7, 64, 0
8, 7560, Note_on_c, 7, 55, 0
8, 7576, Control_c, 7, 93, 58
8, 7595, Control_c, 7, 93, 56
8, 7612, Control_c, 7, 93, 53
8, 7620, Control_c, 7, 93, 50
8, 7650, Control_c, 7, 93, 47
8, 7680, Note_on_c, 7, 67, 93
8, 7680, Note_on_c, 7, 64, 93
8, 7680, Note_on_c, 7, 60, 93
8, 7684, Control_c, 7, 93, 45
8, 7708, Control_c, 7, 93, 42
8, 7776, Note_on_c, 7, 60, 0
8, 7776, Note_on_c, 7, 64, 0
8, 7776, Note_on_c, 7, 67, 0
8, 7824, Note_on_c, 7, 64, 93
8, 7824, Note_on_c, 7, 60, 93
8, 7824, Note_on_c, 7, 67, 93
8, 7848, Note_on_c, 7, 67, 0
8, 7848, Note_on_c, 7, 60, 0
8, 7848, Note_on_c, 7, 64, 0
8, 7860, Control_c, 7, 93, 39
8, 7872, Note_on_c, 7, 64, 93
8, 7872, Note_on_c, 7, 67, 93
8, 7872, Note_on_c, 7, 60, 93
8, 7896, Note_on_c, 7, 60, 0
8, 7896, Note_on_c, 7, 67, 0
8, 7896, Note_on_c, 7, 64, 0
8, 7968, Note_on_c, 7, 67, 93
8, 7968, Note_on_c, 7, 64, 93
8, 7968, Note_on_c, 7, 60, 93
8, 7992, Note_on_c, 7, 60, 0
8, 7992, Note_on_c, 7, 64, 0
8, 7992, Note_on_c, 7, 67, 0
8, 8016, Note_on_c, 7, 64, 93
8, 8016, Note_on_c, 7, 60, 93
8, 8016, Note_on_c, 7, 67, 93
8, 8040, Note_on_c, 7, 67, 0
8, 8040, Note_on_c, 7, 60, 0
8, 8040, Note_on_c, 7, 64, 0
8, 8124, Control_c, 7, 91, 0
8, 8140, Control_c, 7, 91, 3
8, 8160, Note_on_c, 7, 67, 93
8, 8160, Note_on_c, 7, 60, 93
8, 8160, Note_on_c, 7, 64, 93
8, 8160, Control_c, 7, 91, 6
8, 8168, Control_c, 7, 91, 9
8, 8180, Control_c, 7, 91, 20
8, 8184, Note_on_c, 7, 64, 0
8, 8184, Note_on_c, 7, 60, 0
8, 8184, Note_on_c, 7, 67, 0
8, 8188, Control_c, 7, 91, 23
8, 8204, Control_c, 7, 91, 25
8, 8208, Control_c, 7, 91, 28
8, 8220, Control_c, 7, 91, 31
8, 8236, Control_c, 7, 91, 34
8, 8244, Control_c, 7, 91, 45
8, 8270, Control_c, 7, 91, 58
8, 8284, Control_c, 7, 91, 72
8, 8284, Control_c, 7, 91, 75
8, 8300, Control_c, 7, 91, 78
8, 8304, Note_on_c, 7, 64, 93
8, 8304, Note_on_c, 7, 67, 93
8, 8304, Note_on_c, 7, 60, 93
8, 8328, Note_on_c, 7, 60, 0
8, 8328, Note_on_c, 7, 67, 0
8, 8328, Note_on_c, 7, 64, 0
8, 8428, Control_c, 7, 91, 75
8, 8448, Note_on_c, 7, 59, 93
8, 8448, Note_on_c, 7, 55, 93
8, 8448, Note_on_c, 7, 62, 93
8, 8451, Control_c, 7, 91, 72
8, 8465, Control_c, 7, 91, 70
8, 8516, Control_c, 7, 91, 67
8, 8520, Note_on_c, 7, 62, 0
8, 8520, Note_on_c, 7, 55, 0
8, 8520, Note_on_c, 7, 59, 0
8, 8544, Note_on_c, 7, 59, 93
8, 8544, Note_on_c, 7, 62, 93
8, 8544, Note_on_c, 7, 55, 93
8, 8561, Control_c, 7, 91, 64
8, 8568, Note_on_c, 7, 55, 0
8, 8568, Note_on_c, 7, 62, 0
8, 8568, Note_on_c, 7, 59, 0
8, 8579, Control_c, 7, 91, 61
8, 8592, Note_on_c, 7, 59, 93
8, 8592, Note_on_c, 7, 55, 93
8, 8592, Note_on_c, 7, 62, 93
8, 8616, Note_on_c, 7, 62, 0
8, 8616, Note_on_c, 7, 55, 0
8, 8616, Note_on_c, 7, 59, 0
8, 8616, Control_c, 7, 91, 58
8, 8736, Note_on_c, 7, 62, 93
8, 8736, Note_on_c, 7, 55, 93
8, 8736, Note_on_c, 7, 59, 93
8, 8760, Note_on_c, 7, 59, 0
8, 8760, Note_on_c, 7, 55, 0
8, 8760, Note_on_c, 7, 62, 0
8, 8812, Control_c, 7, 91, 56
8, 8928, Note_on_c, 7, 62, 93
8, 8928, Note_on_c, 7, 55, 93
8, 8928, Note_on_c, 7, 59, 93
8, 8952, Note_on_c, 7, 59, 0
8, 8952, Note_on_c, 7, 55, 0
8, 8952, Note_on_c, 7, 62, 0
8, 9072, Note_on_c, 7, 62, 93
8, 9072, Note_on_c, 7, 55, 93
8, 9072, Note_on_c, 7, 59, 93
8, 9096, Note_on_c, 7, 59, 0
8, 9096, Note_on_c, 7, 55, 0
8, 9096, Note_on_c, 7, 62, 0
8, 9216, Note_on_c, 7, 59, 93
8, 9216, Note_on_c, 7, 66, 93
8, 9216, Note_on_c, 7, 63, 93
8, 9312, Note_on_c, 7, 63, 0
8, 9312, Note_on_c, 7, 66, 0
8, 9312, Note_on_c, 7, 59, 0
8, 9360, Note_on_c, 7, 63, 93
8, 9360, Note_on_c, 7, 66, 93
8, 9360, Note_on_c, 7, 59, 93
8, 9384, Note_on_c, 7, 59, 0
8, 9384, Note_on_c, 7, 66, 0
8, 9384, Note_on_c, 7, 63, 0
8, 9408, Note_on_c, 7, 59, 93
8, 9408, Note_on_c, 7, 66, 93
8, 9408, Note_on_c, 7, 63, 93
8, 9432, Note_on_c, 7, 63, 0
8, 9432, Note_on_c, 7, 66, 0
8, 9432, Note_on_c, 7, 59, 0
8, 9504, Note_on_c, 7, 63, 93
8, 9504, Note_on_c, 7, 59, 93
8, 9504, Note_on_c, 7, 66, 93
8, 9528, Note_on_c, 7, 66, 0
8, 9528, Note_on_c, 7, 59, 0
8, 9528, Note_on_c, 7, 63, 0
8, 9552, Note_on_c, 7, 63, 93
8, 9552, Note_on_c, 7, 66, 93
8, 9552, Note_on_c, 7, 59, 93
8, 9576, Note_on_c, 7, 59, 0
8, 9576, Note_on_c, 7, 66, 0
8, 9576, Note_on_c, 7, 63, 0
8, 9696, Note_on_c, 7, 63, 93
8, 9696, Note_on_c, 7, 59, 93
8, 9696, Note_on_c, 7, 66, 93
8, 9720, Note_on_c, 7, 66, 0
8, 9720, Note_on_c, 7, 59, 0
8, 9720, Note_on_c, 7, 63, 0
8, 9840, Note_on_c, 7, 63, 93
8, 9840, Note_on_c, 7, 59, 93
8, 9840, Note_on_c, 7, 66, 93
8, 9864, Note_on_c, 7, 66, 0
8, 9864, Note_on_c, 7, 59, 0
8, 9864, Note_on_c, 7, 63, 0
8, 9984, Note_on_c, 7, 64, 93
8, 9984, Note_on_c, 7, 59, 93
8, 9984, Note_on_c, 7, 55, 93
8, 10080, Note_on_c, 7, 55, 0
8, 10080, Note_on_c, 7, 59, 0
8, 10080, Note_on_c, 7, 64, 0
8, 10128, Note_on_c, 7, 59, 93
8, 10128, Note_on_c, 7, 55, 93
8, 10128, Note_on_c, 7, 64, 93
8, 10152, Note_on_c, 7, 64, 0
8, 10152, Note_on_c, 7, 55, 0
8, 10152, Note_on_c, 7, 59, 0
8, 10176, Note_on_c, 7, 55, 93
8, 10176, Note_on_c, 7, 59, 93
8, 10176, Note_on_c, 7, 64, 93
8, 10200, Note_on_c, 7, 64, 0
8, 10200, Note_on_c, 7, 59, 0
8, 10200, Note_on_c, 7, 55, 0
8, 10272, Note_on_c, 7, 55, 93
8, 10272, Note_on_c, 7, 59, 93
8, 10272, Note_on_c, 7, 64, 93
8, 10296, Note_on_c, 7, 64, 0
8, 10296, Note_on_c, 7, 59, 0
8, 10296, Note_on_c, 7, 55, 0
8, 10320, Note_on_c, 7, 59, 93
8, 10320, Note_on_c, 7, 55, 93
8, 10320, Note_on_c, 7, 64, 93
8, 10344, Note_on_c, 7, 64, 0
8, 10344, Note_on_c, 7, 55, 0
8, 10344, Note_on_c, 7, 59, 0
8, 10464, Note_on_c, 7, 64, 93
8, 10464, Note_on_c, 7, 59, 93
8, 10464, Note_on_c, 7, 55, 93
8, 10488, Note_on_c, 7, 55, 0
8, 10488, Note_on_c, 7, 59, 0
8, 10488, Note_on_c, 7, 64, 0
8, 10608, Note_on_c, 7, 55, 93
8, 10608, Note_on_c, 7, 64, 93
8, 10608, Note_on_c, 7, 59, 93
8, 10632, Note_on_c, 7, 59, 0
8, 10632, Note_on_c, 7, 64, 0
8, 10632, Note_on_c, 7, 55, 0
8, 10752, Note_on_c, 7, 67, 93
8, 10752, Note_on_c, 7, 64, 93
8, 10752, Note_on_c, 7, 60, 93
8, 10848, Note_on_c, 7, 60, 0
8, 10848, Note_on_c, 7, 64, 0
8, 10848, Note_on_c, 7, 67, 0
8, 10896, Note_on_c, 7, 64, 93
8, 10896, Note_on_c, 7, 60, 93
8, 10896, Note_on_c, 7, 67, 93
8, 10920, Note_on_c, 7, 67, 0
8, 10920, Note_on_c, 7, 60, 0
8, 10920, Note_on_c, 7, 64, 0
8, 10944, Note_on_c, 7, 64, 93
8, 10944, Note_on_c, 7, 67, 93
8, 10944, Note_on_c, 7, 60, 93
8, 10968, Note_on_c, 7, 60, 0
8, 10968, Note_on_c, 7, 67, 0
8, 10968, Note_on_c, 7, 64, 0
8, 11040, Note_on_c, 7, 67, 93
8, 11040, Note_on_c, 7, 64, 93
8, 11040, Note_on_c, 7, 60, 93
8, 11064, Note_on_c, 7, 60, 0
8, 11064, Note_on_c, 7, 64, 0
8, 11064, Note_on_c, 7, 67, 0
8, 11088, Note_on_c, 7, 64, 93
8, 11088, Note_on_c, 7, 60, 93
8, 11088, Note_on_c, 7, 67, 93
8, 11112, Note_on_c, 7, 67, 0
8, 11112, Note_on_c, 7, 60, 0
8, 11112, Note_on_c, 7, 64, 0
8, 11232, Note_on_c, 7, 67, 93
8, 11232, Note_on_c, 7, 60, 93
8, 11232, Note_on_c, 7, 64, 93
8, 11256, Note_on_c, 7, 64, 0
8, 11256, Note_on_c, 7, 60, 0
8, 11256, Note_on_c, 7, 67, 0
8, 11376, Note_on_c, 7, 64, 93
8, 11376, Note_on_c, 7, 67, 93
8, 11376, Note_on_c, 7, 60, 93
8, 11400, Note_on_c, 7, 60, 0
8, 11400, Note_on_c, 7, 67, 0
8, 11400, Note_on_c, 7, 64, 0
8, 11520, Note_on_c, 7, 59, 93
8, 11520, Note_on_c, 7, 55, 93
8, 11520, Note_on_c, 7, 62, 93
8, 11592, Note_on_c, 7, 62, 0
8, 11592, Note_on_c, 7, 55, 0
8, 11592, Note_on_c, 7, 59, 0
8, 11616, Note_on_c, 7, 59, 93
8, 11616, Note_on_c, 7, 62, 93
8, 11616, Note_on_c, 7, 55, 93
8, 11640, Note_on_c, 7, 55, 0
8, 11640, Note_on_c, 7, 62, 0
8, 11640, Note_on_c, 7, 59, 0
8, 11664, Note_on_c, 7, 59, 93
8, 11664, Note_on_c, 7, 55, 93
8, 11664, Note_on_c, 7, 62, 93
8, 11688, Note_on_c, 7, 62, 0
8, 11688, Note_on_c, 7, 55, 0
8, 11688, Note_on_c, 7, 59, 0
8, 11808, Note_on_c, 7, 62, 93
8, 11808, Note_on_c, 7, 55, 93
8, 11808, Note_on_c, 7, 59, 93
8, 11832, Note_on_c, 7, 59, 0
8, 11832, Note_on_c, 7, 55, 0
8, 11832, Note_on_c, 7, 62, 0
8, 12000, Note_on_c, 7, 62, 93
8, 12000, Note_on_c, 7, 55, 93
8, 12000, Note_on_c, 7, 59, 93
8, 12024, Note_on_c, 7, 59, 0
8, 12024, Note_on_c, 7, 55, 0
8, 12024, Note_on_c, 7, 62, 0
8, 12046, Control_c, 7, 93, 39
8, 12046, Control_c, 7, 93, 39
8, 12076, Control_c, 7, 93, 42
8, 12144, Note_on_c, 7, 62, 93
8, 12144, Note_on_c, 7, 55, 93
8, 12144, Note_on_c, 7, 59, 93
8, 12168, Note_on_c, 7, 59, 0
8, 12168, Note_on_c, 7, 55, 0
8, 12168, Note_on_c, 7, 62, 0
8, 12185, Control_c, 7, 93, 45
8, 12205, Control_c, 7, 93, 47
8, 12288, Note_on_c, 7, 59, 93
8, 12288, Note_on_c, 7, 66, 93
8, 12288, Note_on_c, 7, 63, 93
8, 12340, Control_c, 7, 93, 45
8, 12364, Control_c, 7, 93, 42
8, 12384, Note_on_c, 7, 63, 0
8, 12384, Note_on_c, 7, 66, 0
8, 12384, Note_on_c, 7, 59, 0
8, 12395, Control_c, 7, 93, 39
8, 12432, Note_on_c, 7, 63, 93
8, 12432, Note_on_c, 7, 66, 93
8, 12432, Note_on_c, 7, 59, 93
8, 12456, Note_on_c, 7, 59, 0
8, 12456, Note_on_c, 7, 66, 0
8, 12456, Note_on_c, 7, 63, 0
8, 12480, Note_on_c, 7, 59, 93
8, 12480, Note_on_c, 7, 66, 93
8, 12480, Note_on_c, 7, 63, 93
8, 12504, Note_on_c, 7, 63, 0
8, 12504, Note_on_c, 7, 66, 0
8, 12504, Note_on_c, 7, 59, 0
8, 12576, Note_on_c, 7, 63, 93
8, 12576, Note_on_c, 7, 59, 93
8, 12576, Note_on_c, 7, 66, 93
8, 12600, Note_on_c, 7, 66, 0
8, 12600, Note_on_c, 7, 59, 0
8, 12600, Note_on_c, 7, 63, 0
8, 12624, Note_on_c, 7, 63, 93
8, 12624, Note_on_c, 7, 66, 93
8, 12624, Note_on_c, 7, 59, 93
8, 12648, Note_on_c, 7, 59, 0
8, 12648, Note_on_c, 7, 66, 0
8, 12648, Note_on_c, 7, 63, 0
8, 12768, Note_on_c, 7, 63, 93
8, 12768, Note_on_c, 7, 59, 93
8, 12768, Note_on_c, 7, 66, 93
8, 12792, Note_on_c, 7, 66, 0
8, 12792, Note_on_c, 7, 59, 0
8, 12792, Note_on_c, 7, 63, 0
8, 12912, Note_on_c, 7, 63, 93
8, 12912, Note_on_c, 7, 59, 93
8, 12912, Note_on_c, 7, 66, 93
8, 12936, Note_on_c, 7, 66, 0
8, 12936, Note_on_c, 7, 59, 0
8, 12936, Note_on_c, 7, 63, 0
8, 13056, Note_on_c, 7, 64, 93
8, 13056, Note_on_c, 7, 59, 93
8, 13056, Note_on_c, 7, 55, 93
8, 13152, Note_on_c, 7, 55, 0
8, 13152, Note_on_c, 7, 59, 0
8, 13152, Note_on_c, 7, 64, 0
8, 13200, Note_on_c, 7, 59, 93
8, 13200, Note_on_c, 7, 55, 93
8, 13200, Note_on_c, 7, 64, 93
8, 13224, Note_on_c, 7, 64, 0
8, 13224, Note_on_c, 7, 55, 0
8, 13224, Note_on_c, 7, 59, 0
8, 13248, Note_on_c, 7, 55, 93
8, 13248, Note_on_c, 7, 59, 93
8, 13248, Note_on_c, 7, 64, 93
8, 13272, Note_on_c, 7, 64, 0
8, 13272, Note_on_c, 7, 59, 0
8, 13272, Note_on_c, 7, 55, 0
8, 13344, Note_on_c, 7, 55, 93
8, 13344, Note_on_c, 7, 59, 93
8, 13344, Note_on_c, 7, 64, 93
8, 13368, Note_on_c, 7, 64, 0
8, 13368, Note_on_c, 7, 59, 0
8, 13368, Note_on_c, 7, 55, 0
8, 13392, Note_on_c, 7, 59, 93
8, 13392, Note_on_c, 7, 55, 93
8, 13392, Note_on_c, 7, 64, 93
8, 13416, Note_on_c, 7, 64, 0
8, 13416, Note_on_c, 7, 55, 0
8, 13416, Note_on_c, 7, 59, 0
8, 13536, Note_on_c, 7, 64, 93
8, 13536, Note_on_c, 7, 59, 93
8, 13536, Note_on_c, 7, 55, 93
8, 13560, Note_on_c, 7, 55, 0
8, 13560, Note_on_c, 7, 59, 0
8, 13560, Note_on_c, 7, 64, 0
8, 13584, Control_c, 7, 10, 78
8, 13648, Control_c, 7, 10, 75
8, 13680, Control_c, 7, 10, 72
8, 13680, Note_on_c, 7, 55, 93
8, 13680, Note_on_c, 7, 64, 93
8, 13680, Note_on_c, 7, 59, 93
8, 13696, Control_c, 7, 10, 70
8, 13704, Note_on_c, 7, 59, 0
8, 13704, Note_on_c, 7, 64, 0
8, 13704, Note_on_c, 7, 55, 0
8, 13714, Control_c, 7, 10, 67
8, 13739, Control_c, 7, 10, 64
8, 13772, Control_c, 7, 10, 61
8, 13789, Control_c, 7, 10, 58
8, 13812, Control_c, 7, 10, 56
8, 13824, Note_on_c, 7, 67, 93
8, 13824, Note_on_c, 7, 64, 93
8, 13824, Note_on_c, 7, 60, 93
8, 13825, Control_c, 7, 10, 53
8, 13843, Control_c, 7, 10, 50
8, 13876, Control_c, 7, 10, 47
8, 13900, Control_c, 7, 10, 45
8, 13908, Control_c, 7, 10, 42
8, 13920, Note_on_c, 7, 60, 0
8, 13920, Note_on_c, 7, 64, 0
8, 13920, Note_on_c, 7, 67, 0
8, 13932, Control_c, 7, 10, 39
8, 13968, Note_on_c, 7, 64, 93
8, 13968, Note_on_c, 7, 60, 93
8, 13968, Note_on_c, 7, 67, 93
8, 13992, Note_on_c, 7, 67, 0
8, 13992, Note_on_c, 7, 60, 0
8, 13992, Note_on_c, 7, 64, 0
8, 14016, Note_on_c, 7, 64, 93
8, 14016, Note_on_c, 7, 67, 93
8, 14016, Note_on_c, 7, 60, 93
8, 14040, Note_on_c, 7, 60, 0
8, 14040, Note_on_c, 7, 67, 0
8, 14040, Note_on_c, 7, 64, 0
8, 14076, Control_c, 7, 10, 39
8, 14112, Note_on_c, 7, 67, 93
8, 14112, Note_on_c, 7, 64, 93
8, 14112, Note_on_c, 7, 60, 93
8, 14136, Note_on_c, 7, 60, 0
8, 14136, Note_on_c, 7, 64, 0
8, 14136, Note_on_c, 7, 67, 0
8, 14160, Control_c, 7, 10, 42
8, 14160, Note_on_c, 7, 64, 93
8, 14160, Note_on_c, 7, 60, 93
8, 14160, Note_on_c, 7, 67, 93
8, 14184, Note_on_c, 7, 67, 0
8, 14184, Note_on_c, 7, 60, 0
8, 14184, Note_on_c, 7, 64, 0
8, 14252, Control_c, 7, 10, 45
8, 14304, Note_on_c, 7, 67, 93
8, 14304, Note_on_c, 7, 60, 93
8, 14304, Note_on_c, 7, 64, 93
8, 14328, Note_on_c, 7, 64, 0
8, 14328, Note_on_c, 7, 60, 0
8, 14328, Note_on_c, 7, 67, 0
8, 14448, Note_on_c, 7, 64, 93
8, 14448, Note_on_c, 7, 67, 93
8, 14448, Note_on_c, 7, 60, 93
8, 14472, Note_on_c, 7, 60, 0
8, 14472, Note_on_c, 7, 67, 0
8, 14472, Note_on_c, 7, 64, 0
8, 14592, Note_on_c, 7, 59, 93
8, 14592, Note_on_c, 7, 55, 93
8, 14592, Note_on_c, 7, 62, 93
8, 14664, Note_on_c, 7, 62, 0
8, 14664, Note_on_c, 7, 55, 0
8, 14664, Note_on_c, 7, 59, 0
8, 14688, Note_on_c, 7, 59, 93
8, 14688, Note_on_c, 7, 62, 93
8, 14688, Note_on_c, 7, 55, 93
8, 14712, Note_on_c, 7, 55, 0
8, 14712, Note_on_c, 7, 62, 0
8, 14712, Note_on_c, 7, 59, 0
8, 14736, Note_on_c, 7, 59, 93
8, 14736, Note_on_c, 7, 55, 93
8, 14736, Note_on_c, 7, 62, 93
8, 14760, Note_on_c, 7, 62, 0
8, 14760, Note_on_c, 7, 55, 0
8, 14760, Note_on_c, 7, 59, 0
8, 14880, Note_on_c, 7, 62, 93
8, 14880, Note_on_c, 7, 55, 93
8, 14880, Note_on_c, 7, 59, 93
8, 14904, Note_on_c, 7, 59, 0
8, 14904, Note_on_c, 7, 55, 0
8, 14904, Note_on_c, 7, 62, 0
8, 15072, Note_on_c, 7, 62, 93
8, 15072, Note_on_c, 7, 55, 93
8, 15072, Note_on_c, 7, 59, 93
8, 15096, Note_on_c, 7, 59, 0
8, 15096, Note_on_c, 7, 55, 0
8, 15096, Note_on_c, 7, 62, 0
8, 15216, Note_on_c, 7, 62, 93
8, 15216, Note_on_c, 7, 55, 93
8, 15216, Note_on_c, 7, 59, 93
8, 15240, Note_on_c, 7, 59, 0
8, 15240, Note_on_c, 7, 55, 0
8, 15240, Note_on_c, 7, 62, 0
8, 15360, Note_on_c, 7, 59, 93
8, 15360, Note_on_c, 7, 66, 93
8, 15360, Note_on_c, 7, 63, 93
8, 15456, Note_on_c, 7, 63, 0
8, 15456, Note_on_c, 7, 66, 0
8, 15456, Note_on_c, 7, 59, 0
8, 15504, Note_on_c, 7, 63, 93
8, 15504, Note_on_c, 7, 66, 93
8, 15504, Note_on_c, 7, 59, 93
8, 15528, Note_on_c, 7, 59, 0
8, 15528, Note_on_c, 7, 66, 0
8, 15528, Note_on_c, 7, 63, 0
8, 15552, Note_on_c, 7, 59, 93
8, 15552, Note_on_c, 7, 66, 93
8, 15552, Note_on_c, 7, 63, 93
8, 15576, Note_on_c, 7, 63, 0
8, 15576, Note_on_c, 7, 66, 0
8, 15576, Note_on_c, 7, 59, 0
8, 15648, Note_on_c, 7, 63, 93
8, 15648, Note_on_c, 7, 59, 93
8, 15648, Note_on_c, 7, 66, 93
8, 15672, Note_on_c, 7, 66, 0
8, 15672, Note_on_c, 7, 59, 0
8, 15672, Note_on_c, 7, 63, 0
8, 15696, Note_on_c, 7, 63, 93
8, 15696, Note_on_c, 7, 66, 93
8, 15696, Note_on_c, 7, 59, 93
8, 15720, Note_on_c, 7, 59, 0
8, 15720, Note_on_c, 7, 66, 0
8, 15720, Note_on_c, 7, 63, 0
8, 15840, Note_on_c, 7, 63, 93
8, 15840, Note_on_c, 7, 59, 93
8, 15840, Note_on_c, 7, 66, 93
8, 15864, Note_on_c, 7, 66, 0
8, 15864, Note_on_c, 7, 59, 0
8, 15864, Note_on_c, 7, 63, 0
8, 15984, Note_on_c, 7, 63, 93
8, 15984, Note_on_c, 7, 59, 93
8, 15984, Note_on_c, 7, 66, 93
8, 16008, Note_on_c, 7, 66, 0
8, 16008, Note_on_c, 7, 59, 0
8, 16008, Note_on_c, 7, 63, 0
8, 16128, Note_on_c, 7, 64, 93
8, 16128, Note_on_c, 7, 59, 93
8, 16128, Note_on_c, 7, 55, 93
8, 16224, Note_on_c, 7, 55, 0
8, 16224, Note_on_c, 7, 59, 0
8, 16224, Note_on_c, 7, 64, 0
8, 16272, Note_on_c, 7, 59, 93
8, 16272, Note_on_c, 7, 55, 93
8, 16272, Note_on_c, 7, 64, 93
8, 16296, Note_on_c, 7, 64, 0
8, 16296, Note_on_c, 7, 55, 0
8, 16296, Note_on_c, 7, 59, 0
8, 16320, Note_on_c, 7, 55, 93
8, 16320, Note_on_c, 7, 59, 93
8, 16320, Note_on_c, 7, 64, 93
8, 16344, Note_on_c, 7, 64, 0
8, 16344, Note_on_c, 7, 59, 0
8, 16344, Note_on_c, 7, 55, 0
8, 16416, Note_on_c, 7, 55, 93
8, 16416, Note_on_c, 7, 59, 93
8, 16416, Note_on_c, 7, 64, 93
8, 16440, Note_on_c, 7, 64, 0
8, 16440, Note_on_c, 7, 59, 0
8, 16440, Note_on_c, 7, 55, 0
8, 16464, Note_on_c, 7, 59, 93
8, 16464, Note_on_c, 7, 55, 93
8, 16464, Note_on_c, 7, 64, 93
8, 16488, Note_on_c, 7, 64, 0
8, 16488, Note_on_c, 7, 55, 0
8, 16488, Note_on_c, 7, 59, 0
8, 16608, Note_on_c, 7, 64, 93
8, 16608, Note_on_c, 7, 59, 93
8, 16608, Note_on_c, 7, 55, 93
8, 16632, Note_on_c, 7, 55, 0
8, 16632, Note_on_c, 7, 59, 0
8, 16632, Note_on_c, 7, 64, 0
8, 16752, Note_on_c, 7, 55, 93
8, 16752, Note_on_c, 7, 64, 93
8, 16752, Note_on_c, 7, 59, 93
8, 16776, Note_on_c, 7, 59, 0
8, 16776, Note_on_c, 7, 64, 0
8, 16776, Note_on_c, 7, 55, 0
8, 16896, Note_on_c, 7, 67, 93
8, 16896, Note_on_c, 7, 64, 93
8, 16896, Note_on_c, 7, 60, 93
8, 16992, Note_on_c, 7, 60, 0
8, 16992, Note_on_c, 7, 64, 0
8, 16992, Note_on_c, 7, 67, 0
8, 17040, Note_on_c, 7, 64, 93
8, 17040, Note_on_c, 7, 60, 93
8, 17040, Note_on_c, 7, 67, 93
8, 17064, Note_on_c, 7, 67, 0
8, 17064, Note_on_c, 7, 60, 0
8, 17064, Note_on_c, 7, 64, 0
8, 17088, Note_on_c, 7, 64, 93
8, 17088, Note_on_c, 7, 67, 93
8, 17088, Note_on_c, 7, 60, 93
8, 17112, Note_on_c, 7, 60, 0
8, 17112, Note_on_c, 7, 67, 0
8, 17112, Note_on_c, 7, 64, 0
8, 17184, Note_on_c, 7, 67, 93
8, 17184, Note_on_c, 7, 64, 93
8, 17184, Note_on_c, 7, 60, 93
8, 17208, Note_on_c, 7, 60, 0
8, 17208, Note_on_c, 7, 64, 0
8, 17208, Note_on_c, 7, 67, 0
8, 17232, Note_on_c, 7, 64, 93
8, 17232, Note_on_c, 7, 60, 93
8, 17232, Note_on_c, 7, 67, 93
8, 17256, Note_on_c, 7, 67, 0
8, 17256, Note_on_c, 7, 60, 0
8, 17256, Note_on_c, 7, 64, 0
8, 17376, Note_on_c, 7, 67, 93
8, 17376, Note_on_c, 7, 60, 93
8, 17376, Note_on_c, 7, 64, 93
8, 17400, Note_on_c, 7, 64, 0
8, 17400, Note_on_c, 7, 60, 0
8, 17400, Note_on_c, 7, 67, 0
8, 17520, Note_on_c, 7, 64, 93
8, 17520, Note_on_c, 7, 67, 93
8, 17520, Note_on_c, 7, 60, 93
8, 17544, Note_on_c, 7, 60, 0
8, 17544, Note_on_c, 7, 67, 0
8, 17544, Note_on_c, 7, 64, 0
8, 17664, Note_on_c, 7, 59, 93
8, 17664, Note_on_c, 7, 55, 93
8, 17664, Note_on_c, 7, 62, 93
8, 17736, Note_on_c, 7, 62, 0
8, 17736, Note_on_c, 7, 55, 0
8, 17736, Note_on_c, 7, 59, 0
8, 17760, Note_on_c, 7, 59, 93
8, 17760, Note_on_c, 7, 62, 93
8, 17760, Note_on_c, 7, 55, 93
8, 17784, Note_on_c, 7, 55, 0
8, 17784, Note_on_c, 7, 62, 0
8, 17784, Note_on_c, 7, 59, 0
8, 17808, Note_on_c, 7, 59, 93
8, 17808, Note_on_c, 7, 55, 93
8, 17808, Note_on_c, 7, 62, 93
8, 17832, Note_on_c, 7, 62, 0
8, 17832, Note_on_c, 7, 55, 0
8, 17832, Note_on_c, 7, 59, 0
8, 17952, Note_on_c, 7, 62, 93
8, 17952, Note_on_c, 7, 55, 93
8, 17952, Note_on_c, 7, 59, 93
8, 17976, Note_on_c, 7, 59, 0
8, 17976, Note_on_c, 7, 55, 0
8, 17976, Note_on_c, 7, 62, 0
8, 18144, Note_on_c, 7, 62, 93
8, 18144, Note_on_c, 7, 55, 93
8, 18144, Note_on_c, 7, 59, 93
8, 18168, Note_on_c, 7, 59, 0
8, 18168, Note_on_c, 7, 55, 0
8, 18168, Note_on_c, 7, 62, 0
8, 18288, Note_on_c, 7, 62, 93
8, 18288, Note_on_c, 7, 55, 93
8, 18288, Note_on_c, 7, 59, 93
8, 18312, Note_on_c, 7, 59, 0
8, 18312, Note_on_c, 7, 55, 0
8, 18312, Note_on_c, 7, 62, 0
8, 18364, Control_c, 7, 10, 45
8, 18432, Note_on_c, 7, 59, 93
8, 18432, Note_on_c, 7, 66, 93
8, 18432, Note_on_c, 7, 63, 93
8, 18528, Note_on_c, 7, 63, 0
8, 18528, Note_on_c, 7, 66, 0
8, 18528, Note_on_c, 7, 59, 0
8, 18576, Note_on_c, 7, 63, 93
8, 18576, Note_on_c, 7, 66, 93
8, 18576, Note_on_c, 7, 59, 93
8, 18578, Control_c, 7, 10, 42
8, 18600, Note_on_c, 7, 59, 0
8, 18600, Note_on_c, 7, 66, 0
8, 18600, Note_on_c, 7, 63, 0
8, 18624, Note_on_c, 7, 59, 93
8, 18624, Note_on_c, 7, 66, 93
8, 18624, Note_on_c, 7, 63, 93
8, 18648, Note_on_c, 7, 63, 0
8, 18648, Note_on_c, 7, 66, 0
8, 18648, Note_on_c, 7, 59, 0
8, 18720, Note_on_c, 7, 63, 93
8, 18720, Note_on_c, 7, 59, 93
8, 18720, Note_on_c, 7, 66, 93
8, 18744, Note_on_c, 7, 66, 0
8, 18744, Note_on_c, 7, 59, 0
8, 18744, Note_on_c, 7, 63, 0
8, 18768, Note_on_c, 7, 63, 93
8, 18768, Note_on_c, 7, 66, 93
8, 18768, Note_on_c, 7, 59, 93
8, 18792, Note_on_c, 7, 59, 0
8, 18792, Note_on_c, 7, 66, 0
8, 18792, Note_on_c, 7, 63, 0
8, 18912, Note_on_c, 7, 63, 93
8, 18912, Note_on_c, 7, 59, 93
8, 18912, Note_on_c, 7, 66, 93
8, 18936, Note_on_c, 7, 66, 0
8, 18936, Note_on_c, 7, 59, 0
8, 18936, Note_on_c, 7, 63, 0
8, 19056, Note_on_c, 7, 63, 93
8, 19056, Note_on_c, 7, 59, 93
8, 19056, Note_on_c, 7, 66, 93
8, 19080, Note_on_c, 7, 66, 0
8, 19080, Note_on_c, 7, 59, 0
8, 19080, Note_on_c, 7, 63, 0
8, 19200, Note_on_c, 7, 64, 93
8, 19200, Note_on_c, 7, 59, 93
8, 19200, Note_on_c, 7, 55, 93
8, 19296, Note_on_c, 7, 55, 0
8, 19296, Note_on_c, 7, 59, 0
8, 19296, Note_on_c, 7, 64, 0
8, 19344, Note_on_c, 7, 59, 93
8, 19344, Note_on_c, 7, 55, 93
8, 19344, Note_on_c, 7, 64, 93
8, 19368, Note_on_c, 7, 64, 0
8, 19368, Note_on_c, 7, 55, 0
8, 19368, Note_on_c, 7, 59, 0
8, 19392, Note_on_c, 7, 55, 93
8, 19392, Note_on_c, 7, 59, 93
8, 19392, Note_on_c, 7, 64, 93
8, 19416, Note_on_c, 7, 64, 0
8, 19416, Note_on_c, 7, 59, 0
8, 19416, Note_on_c, 7, 55, 0
8, 19488, Note_on_c, 7, 55, 93
8, 19488, Note_on_c, 7, 59, 93
8, 19488, Note_on_c, 7, 64, 93
8, 19512, Note_on_c, 7, 64, 0
8, 19512, Note_on_c, 7, 59, 0
8, 19512, Note_on_c, 7, 55, 0
8, 19536, Note_on_c, 7, 59, 93
8, 19536, Note_on_c, 7, 55, 93
8, 19536, Note_on_c, 7, 64, 93
8, 19560, Note_on_c, 7, 64, 0
8, 19560, Note_on_c, 7, 55, 0
8, 19560, Note_on_c, 7, 59, 0
8, 19680, Note_on_c, 7, 64, 93
8, 19680, Note_on_c, 7, 59, 93
8, 19680, Note_on_c, 7, 55, 93
8, 19776, Note_on_c, 7, 55, 0
8, 19776, Note_on_c, 7, 59, 0
8, 19776, Note_on_c, 7, 64, 0
8, 19824, Note_on_c, 7, 55, 93
8, 19824, Note_on_c, 7, 64, 93
8, 19824, Note_on_c, 7, 59, 93
8, 19920, Note_on_c, 7, 59, 0
8, 19920, Note_on_c, 7, 64, 0
8, 19920, Note_on_c, 7, 55, 0
8, 19968, Note_on_c, 7, 52, 78
8, 19984, Note_on_c, 7, 52, 0
8, 20016, Note_on_c, 7, 64, 78
8, 20032, Note_on_c, 7, 64, 0
8, 20064, Note_on_c, 7, 64, 78
8, 20080, Note_on_c, 7, 64, 0
8, 20112, Note_on_c, 7, 52, 78
8, 20128, Note_on_c, 7, 52, 0
8, 20160, Note_on_c, 7, 64, 78
8, 20176, Note_on_c, 7, 64, 0
8, 20208, Note_on_c, 7, 64, 78
8, 20224, Note_on_c, 7, 64, 0
8, 20256, Note_on_c, 7, 52, 78
8, 20272, Note_on_c, 7, 52, 0
8, 20304, Note_on_c, 7, 64, 78
8, 20320, Note_on_c, 7, 64, 0
8, 20352, Note_on_c, 7, 52, 78
8, 20368, Note_on_c, 7, 52, 0
8, 20400, Note_on_c, 7, 64, 78
8, 20416, Note_on_c, 7, 64, 0
8, 20448, Note_on_c, 7, 64, 78
8, 20464, Note_on_c, 7, 64, 0
8, 20496, Note_on_c, 7, 52, 78
8, 20512, Note_on_c, 7, 52, 0
8, 20544, Note_on_c, 7, 64, 78
8, 20560, Note_on_c, 7, 64, 0
8, 20592, Note_on_c, 7, 52, 78
8, 20608, Note_on_c, 7, 52, 0
8, 20640, Note_on_c, 7, 64, 78
8, 20656, Note_on_c, 7, 64, 0
8, 20688, Note_on_c, 7, 64, 78
8, 20704, Note_on_c, 7, 64, 0
8, 20736, Note_on_c, 7, 45, 78
8, 20752, Note_on_c, 7, 45, 0
8, 20784, Note_on_c, 7, 57, 78
8, 20800, Note_on_c, 7, 57, 0
8, 20832, Note_on_c, 7, 57, 78
8, 20848, Note_on_c, 7, 57, 0
8, 20880, Note_on_c, 7, 45, 78
8, 20896, Note_on_c, 7, 45, 0
8, 20928, Note_on_c, 7, 57, 78
8, 20944, Note_on_c, 7, 57, 0
8, 20976, Note_on_c, 7, 45, 78
8, 20992, Note_on_c, 7, 45, 0
8, 21024, Note_on_c, 7, 57, 78
8, 21040, Note_on_c, 7, 57, 0
8, 21072, Note_on_c, 7, 57, 78
8, 21088, Note_on_c, 7, 57, 0
8, 21120, Note_on_c, 7, 45, 78
8, 21136, Note_on_c, 7, 45, 0
8, 21168, Note_on_c, 7, 57, 78
8, 21184, Note_on_c, 7, 57, 0
8, 21216, Note_on_c, 7, 57, 78
8, 21232, Note_on_c, 7, 57, 0
8, 21264, Note_on_c, 7, 45, 78
8, 21280, Note_on_c, 7, 45, 0
8, 21312, Note_on_c, 7, 57, 78
8, 21328, Note_on_c, 7, 57, 0
8, 21360, Note_on_c, 7, 45, 78
8, 21376, Note_on_c, 7, 45, 0
8, 21408, Note_on_c, 7, 57, 78
8, 21424, Note_on_c, 7, 57, 0
8, 21456, Note_on_c, 7, 57, 78
8, 21472, Note_on_c, 7, 57, 0
8, 21504, Note_on_c, 7, 47, 78
8, 21520, Note_on_c, 7, 47, 0
8, 21552, Note_on_c, 7, 59, 78
8, 21568, Note_on_c, 7, 59, 0
8, 21600, Note_on_c, 7, 59, 78
8, 21616, Note_on_c, 7, 59, 0
8, 21648, Note_on_c, 7, 47, 78
8, 21664, Note_on_c, 7, 47, 0
8, 21696, Note_on_c, 7, 59, 78
8, 21712, Note_on_c, 7, 59, 0
8, 21744, Note_on_c, 7, 47, 78
8, 21760, Note_on_c, 7, 47, 0
8, 21792, Note_on_c, 7, 59, 78
8, 21808, Note_on_c, 7, 59, 0
8, 21840, Note_on_c, 7, 59, 78
8, 21856, Note_on_c, 7, 59, 0
8, 21888, Note_on_c, 7, 47, 78
8, 21904, Note_on_c, 7, 47, 0
8, 21936, Note_on_c, 7, 59, 78
8, 21952, Note_on_c, 7, 59, 0
8, 21984, Note_on_c, 7, 59, 78
8, 22000, Note_on_c, 7, 59, 0
8, 22032, Note_on_c, 7, 47, 78
8, 22048, Note_on_c, 7, 47, 0
8, 22080, Note_on_c, 7, 59, 78
8, 22096, Note_on_c, 7, 59, 0
8, 22128, Note_on_c, 7, 47, 78
8, 22144, Note_on_c, 7, 47, 0
8, 22176, Note_on_c, 7, 59, 78
8, 22192, Note_on_c, 7, 59, 0
8, 22224, Note_on_c, 7, 59, 78
8, 22240, Note_on_c, 7, 59, 0
8, 22272, Note_on_c, 7, 52, 78
8, 22288, Note_on_c, 7, 52, 0
8, 22320, Note_on_c, 7, 64, 78
8, 22336, Note_on_c, 7, 64, 0
8, 22368, Note_on_c, 7, 64, 78
8, 22384, Note_on_c, 7, 64, 0
8, 22416, Note_on_c, 7, 52, 78
8, 22432, Note_on_c, 7, 52, 0
8, 22464, Note_on_c, 7, 64, 78
8, 22480, Note_on_c, 7, 64, 0
8, 22512, Note_on_c, 7, 52, 78
8, 22528, Note_on_c, 7, 52, 0
8, 22560, Note_on_c, 7, 64, 78
8, 22560, Note_on_c, 7, 66, 78
8, 22576, Note_on_c, 7, 66, 0
8, 22576, Note_on_c, 7, 64, 0
8, 22608, Note_on_c, 7, 64, 78
8, 22624, Note_on_c, 7, 64, 0
8, 22656, Note_on_c, 7, 52, 78
8, 22672, Note_on_c, 7, 52, 0
8, 22704, Note_on_c, 7, 64, 78
8, 22720, Note_on_c, 7, 64, 0
8, 22752, Note_on_c, 7, 64, 78
8, 22768, Note_on_c, 7, 64, 0
8, 22800, Note_on_c, 7, 52, 78
8, 22816, Note_on_c, 7, 52, 0
8, 22848, Note_on_c, 7, 64, 78
8, 22864, Note_on_c, 7, 64, 0
8, 22896, Note_on_c, 7, 52, 78
8, 22912, Note_on_c, 7, 52, 0
8, 22944, Note_on_c, 7, 64, 78
8, 22960, Note_on_c, 7, 64, 0
8, 22992, Note_on_c, 7, 64, 78
8, 23008, Note_on_c, 7, 64, 0
8, 23040, Note_on_c, 7, 48, 78
8, 23056, Note_on_c, 7, 48, 0
8, 23088, Note_on_c, 7, 60, 78
8, 23104, Note_on_c, 7, 60, 0
8, 23136, Note_on_c, 7, 60, 78
8, 23152, Note_on_c, 7, 60, 0
8, 23184, Note_on_c, 7, 48, 78
8, 23200, Note_on_c, 7, 48, 0
8, 23232, Note_on_c, 7, 60, 78
8, 23248, Note_on_c, 7, 60, 0
8, 23280, Note_on_c, 7, 48, 78
8, 23296, Note_on_c, 7, 48, 0
8, 23328, Note_on_c, 7, 60, 78
8, 23344, Note_on_c, 7, 60, 0
8, 23376, Note_on_c, 7, 60, 78
8, 23392, Note_on_c, 7, 60, 0
8, 23424, Note_on_c, 7, 48, 78
8, 23440, Note_on_c, 7, 48, 0
8, 23472, Note_on_c, 7, 60, 78
8, 23488, Note_on_c, 7, 60, 0
8, 23520, Note_on_c, 7, 60, 78
8, 23536, Note_on_c, 7, 60, 0
8, 23568, Note_on_c, 7, 48, 78
8, 23584, Note_on_c, 7, 48, 0
8, 23616, Note_on_c, 7, 60, 78
8, 23632, Note_on_c, 7, 60, 0
8, 23664, Note_on_c, 7, 48, 78
8, 23680, Note_on_c, 7, 48, 0
8, 23712, Note_on_c, 7, 60, 78
8, 23728, Note_on_c, 7, 60, 0
8, 23760, Note_on_c, 7, 60, 78
8, 23776, Note_on_c, 7, 60, 0
8, 23808, Note_on_c, 7, 45, 78
8, 23824, Note_on_c, 7, 45, 0
8, 23856, Note_on_c, 7, 57, 78
8, 23872, Note_on_c, 7, 57, 0
8, 23904, Note_on_c, 7, 57, 78
8, 23920, Note_on_c, 7, 57, 0
8, 23952, Note_on_c, 7, 45, 78
8, 23968, Note_on_c, 7, 45, 0
8, 24000, Note_on_c, 7, 57, 78
8, 24016, Note_on_c, 7, 57, 0
8, 24048, Note_on_c, 7, 45, 78
8, 24064, Note_on_c, 7, 45, 0
8, 24096, Note_on_c, 7, 57, 78
8, 24112, Note_on_c, 7, 57, 0
8, 24144, Note_on_c, 7, 57, 78
8, 24160, Note_on_c, 7, 57, 0
8, 24192, Note_on_c, 7, 45, 78
8, 24208, Note_on_c, 7, 45, 0
8, 24240, Note_on_c, 7, 57, 78
8, 24256, Note_on_c, 7, 57, 0
8, 24288, Note_on_c, 7, 57, 78
8, 24304, Note_on_c, 7, 57, 0
8, 24336, Note_on_c, 7, 45, 78
8, 24352, Note_on_c, 7, 45, 0
8, 24384, Note_on_c, 7, 57, 78
8, 24400, Note_on_c, 7, 57, 0
8, 24432, Note_on_c, 7, 45, 78
8, 24448, Note_on_c, 7, 45, 0
8, 24480, Note_on_c, 7, 57, 78
8, 24496, Note_on_c, 7, 57, 0
8, 24528, Note_on_c, 7, 57, 78
8, 24544, Note_on_c, 7, 57, 0
8, 24576, Note_on_c, 7, 47, 78
8, 24592, Note_on_c, 7, 47, 0
8, 24624, Note_on_c, 7, 59, 78
8, 24640, Note_on_c, 7, 59, 0
8, 24672, Note_on_c, 7, 59, 78
8, 24688, Note_on_c, 7, 59, 0
8, 24720, Note_on_c, 7, 47, 78
8, 24736, Note_on_c, 7, 47, 0
8, 24768, Note_on_c, 7, 59, 78
8, 24784, Note_on_c, 7, 59, 0
8, 24816, Note_on_c, 7, 47, 78
8, 24832, Note_on_c, 7, 47, 0
8, 24864, Note_on_c, 7, 59, 78
8, 24880, Note_on_c, 7, 59, 0
8, 24912, Note_on_c, 7, 59, 78
8, 24928, Note_on_c, 7, 59, 0
8, 24960, Note_on_c, 7, 47, 78
8, 24976, Note_on_c, 7, 47, 0
8, 25008, Note_on_c, 7, 59, 78
8, 25024, Note_on_c, 7, 59, 0
8, 25056, Note_on_c, 7, 59, 78
8, 25072, Note_on_c, 7, 59, 0
8, 25104, Note_on_c, 7, 47, 78
8, 25120, Note_on_c, 7, 47, 0
8, 25152, Note_on_c, 7, 59, 78
8, 25168, Note_on_c, 7, 59, 0
8, 25200, Note_on_c, 7, 47, 78
8, 25216, Note_on_c, 7, 47, 0
8, 25248, Note_on_c, 7, 59, 78
8, 25264, Note_on_c, 7, 59, 0
8, 25296, Note_on_c, 7, 59, 78
8, 25312, Note_on_c, 7, 59, 0
8, 25344, Note_on_c, 7, 52, 78
8, 25360, Note_on_c, 7, 52, 0
8, 25392, Note_on_c, 7, 64, 78
8, 25408, Note_on_c, 7, 64, 0
8, 25440, Note_on_c, 7, 64, 78
8, 25456, Note_on_c, 7, 64, 0
8, 25488, Note_on_c, 7, 52, 78
8, 25504, Note_on_c, 7, 52, 0
8, 25536, Note_on_c, 7, 64, 78
8, 25552, Note_on_c, 7, 64, 0
8, 25584, Note_on_c, 7, 52, 78
8, 25600, Note_on_c, 7, 52, 0
8, 26112, Note_on_c, 7, 59, 93
8, 26112, Note_on_c, 7, 55, 93
8, 26112, Note_on_c, 7, 62, 93
8, 26184, Note_on_c, 7, 62, 0
8, 26184, Note_on_c, 7, 55, 0
8, 26184, Note_on_c, 7, 59, 0
8, 26208, Note_on_c, 7, 59, 93
8, 26208, Note_on_c, 7, 62, 93
8, 26208, Note_on_c, 7, 55, 93
8, 26232, Note_on_c, 7, 55, 0
8, 26232, Note_on_c, 7, 62, 0
8, 26232, Note_on_c, 7, 59, 0
8, 26256, Note_on_c, 7, 59, 93
8, 26256, Note_on_c, 7, 55, 93
8, 26256, Note_on_c, 7, 62, 93
8, 26280, Note_on_c, 7, 62, 0
8, 26280, Note_on_c, 7, 55, 0
8, 26280, Note_on_c, 7, 59, 0
8, 26400, Note_on_c, 7, 62, 93
8, 26400, Note_on_c, 7, 55, 93
8, 26400, Note_on_c, 7, 59, 93
8, 26424, Note_on_c, 7, 59, 0
8, 26424, Note_on_c, 7, 55, 0
8, 26424, Note_on_c, 7, 62, 0
8, 26592, Note_on_c, 7, 62, 93
8, 26592, Note_on_c, 7, 55, 93
8, 26592, Note_on_c, 7, 59, 93
8, 26616, Note_on_c, 7, 59, 0
8, 26616, Note_on_c, 7, 55, 0
8, 26616, Note_on_c, 7, 62, 0
8, 26736, Note_on_c, 7, 62, 93
8, 26736, Note_on_c, 7, 55, 93
8, 26736, Note_on_c, 7, 59, 93
8, 26760, Note_on_c, 7, 59, 0
8, 26760, Note_on_c, 7, 55, 0
8, 26760, Note_on_c, 7, 62, 0
8, 26880, Note_on_c, 7, 59, 93
8, 26880, Note_on_c, 7, 66, 93
8, 26880, Note_on_c, 7, 63, 93
8, 26976, Note_on_c, 7, 63, 0
8, 26976, Note_on_c, 7, 66, 0
8, 26976, Note_on_c, 7, 59, 0
8, 27024, Note_on_c, 7, 63, 93
8, 27024, Note_on_c, 7, 66, 93
8, 27024, Note_on_c, 7, 59, 93
8, 27048, Note_on_c, 7, 59, 0
8, 27048, Note_on_c, 7, 66, 0
8, 27048, Note_on_c, 7, 63, 0
8, 27072, Note_on_c, 7, 59, 93
8, 27072, Note_on_c, 7, 66, 93
8, 27072, Note_on_c, 7, 63, 93
8, 27096, Note_on_c, 7, 63, 0
8, 27096, Note_on_c, 7, 66, 0
8, 27096, Note_on_c, 7, 59, 0
8, 27168, Note_on_c, 7, 63, 93
8, 27168, Note_on_c, 7, 59, 93
8, 27168, Note_on_c, 7, 66, 93
8, 27192, Note_on_c, 7, 66, 0
8, 27192, Note_on_c, 7, 59, 0
8, 27192, Note_on_c, 7, 63, 0
8, 27216, Note_on_c, 7, 63, 93
8, 27216, Note_on_c, 7, 66, 93
8, 27216, Note_on_c, 7, 59, 93
8, 27240, Note_on_c, 7, 59, 0
8, 27240, Note_on_c, 7, 66, 0
8, 27240, Note_on_c, 7, 63, 0
8, 27360, Note_on_c, 7, 63, 93
8, 27360, Note_on_c, 7, 59, 93
8, 27360, Note_on_c, 7, 66, 93
8, 27384, Note_on_c, 7, 66, 0
8, 27384, Note_on_c, 7, 59, 0
8, 27384, Note_on_c, 7, 63, 0
8, 27504, Note_on_c, 7, 63, 93
8, 27504, Note_on_c, 7, 59, 93
8, 27504, Note_on_c, 7, 66, 93
8, 27528, Note_on_c, 7, 66, 0
8, 27528, Note_on_c, 7, 59, 0
8, 27528, Note_on_c, 7, 63, 0
8, 27648, Note_on_c, 7, 64, 93
8, 27648, Note_on_c, 7, 59, 93
8, 27648, Note_on_c, 7, 55, 93
8, 27744, Note_on_c, 7, 55, 0
8, 27744, Note_on_c, 7, 59, 0
8, 27744, Note_on_c, 7, 64, 0
8, 27792, Note_on_c, 7, 59, 93
8, 27792, Note_on_c, 7, 55, 93
8, 27792, Note_on_c, 7, 64, 93
8, 27816, Note_on_c, 7, 64, 0
8, 27816, Note_on_c, 7, 55, 0
8, 27816, Note_on_c, 7, 59, 0
8, 27840, Note_on_c, 7, 55, 93
8, 27840, Note_on_c, 7, 59, 93
8, 27840, Note_on_c, 7, 64, 93
8, 27864, Note_on_c, 7, 64, 0
8, 27864, Note_on_c, 7, 59, 0
8, 27864, Note_on_c, 7, 55, 0
8, 27936, Note_on_c, 7, 55, 93
8, 27936, Note_on_c, 7, 59, 93
8, 27936, Note_on_c, 7, 64, 93
8, 27960, Note_on_c, 7, 64, 0
8, 27960, Note_on_c, 7, 59, 0
8, 27960, Note_on_c, 7, 55, 0
8, 27984, Note_on_c, 7, 59, 93
8, 27984, Note_on_c, 7, 55, 93
8, 27984, Note_on_c, 7, 64, 93
8, 28008, Note_on_c, 7, 64, 0
8, 28008, Note_on_c, 7, 55, 0
8, 28008, Note_on_c, 7, 59, 0
8, 28128, Note_on_c, 7, 64, 93
8, 28128, Note_on_c, 7, 59, 93
8, 28128, Note_on_c, 7, 55, 93
8, 28152, Note_on_c, 7, 55, 0
8, 28152, Note_on_c, 7, 59, 0
8, 28152, Note_on_c, 7, 64, 0
8, 28272, Note_on_c, 7, 55, 93
8, 28272, Note_on_c, 7, 64, 93
8, 28272, Note_on_c, 7, 59, 93
8, 28296, Note_on_c, 7, 59, 0
8, 28296, Note_on_c, 7, 64, 0
8, 28296, Note_on_c, 7, 55, 0
8, 28416, Note_on_c, 7, 67, 93
8, 28416, Note_on_c, 7, 64, 93
8, 28416, Note_on_c, 7, 60, 93
8, 28512, Note_on_c, 7, 60, 0
8, 28512, Note_on_c, 7, 64, 0
8, 28512, Note_on_c, 7, 67, 0
8, 28560, Note_on_c, 7, 64, 93
8, 28560, Note_on_c, 7, 60, 93
8, 28560, Note_on_c, 7, 67, 93
8, 28584, Note_on_c, 7, 67, 0
8, 28584, Note_on_c, 7, 60, 0
8, 28584, Note_on_c, 7, 64, 0
8, 28608, Note_on_c, 7, 64, 93
8, 28608, Note_on_c, 7, 67, 93
8, 28608, Note_on_c, 7, 60, 93
8, 28632, Note_on_c, 7, 60, 0
8, 28632, Note_on_c, 7, 67, 0
8, 28632, Note_on_c, 7, 64, 0
8, 28704, Note_on_c, 7, 67, 93
8, 28704, Note_on_c, 7, 64, 93
8, 28704, Note_on_c, 7, 60, 93
8, 28728, Note_on_c, 7, 60, 0
8, 28728, Note_on_c, 7, 64, 0
8, 28728, Note_on_c, 7, 67, 0
8, 28752, Note_on_c, 7, 64, 93
8, 28752, Note_on_c, 7, 60, 93
8, 28752, Note_on_c, 7, 67, 93
8, 28776, Note_on_c, 7, 67, 0
8, 28776, Note_on_c, 7, 60, 0
8, 28776, Note_on_c, 7, 64, 0
8, 28896, Note_on_c, 7, 67, 93
8, 28896, Note_on_c, 7, 60, 93
8, 28896, Note_on_c, 7, 64, 93
8, 28920, Note_on_c, 7, 64, 0
8, 28920, Note_on_c, 7, 60, 0
8, 28920, Note_on_c, 7, 67, 0
8, 29040, Note_on_c, 7, 64, 93
8, 29040, Note_on_c, 7, 67, 93
8, 29040, Note_on_c, 7, 60, 93
8, 29064, Note_on_c, 7, 60, 0
8, 29064, Note_on_c, 7, 67, 0
8, 29064, Note_on_c, 7, 64, 0
8, 29184, Note_on_c, 7, 59, 93
8, 29184, Note_on_c, 7, 55, 93
8, 29184, Note_on_c, 7, 62, 93
8, 29256, Note_on_c, 7, 62, 0
8, 29256, Note_on_c, 7, 55, 0
8, 29256, Note_on_c, 7, 59, 0
8, 29280, Note_on_c, 7, 59, 93
8, 29280, Note_on_c, 7, 62, 93
8, 29280, Note_on_c, 7, 55, 93
8, 29304, Note_on_c, 7, 55, 0
8, 29304, Note_on_c, 7, 62, 0
8, 29304, Note_on_c, 7, 59, 0
8, 29328, Note_on_c, 7, 59, 93
8, 29328, Note_on_c, 7, 55, 93
8, 29328, Note_on_c, 7, 62, 93
8, 29352, Note_on_c, 7, 62, 0
8, 29352, Note_on_c, 7, 55, 0
8, 29352, Note_on_c, 7, 59, 0
8, 29472, Note_on_c, 7, 62, 93
8, 29472, Note_on_c, 7, 55, 93
8, 29472, Note_on_c, 7, 59, 93
8, 29496, Note_on_c, 7, 59, 0
8, 29496, Note_on_c, 7, 55, 0
8, 29496, Note_on_c, 7, 62, 0
8, 29664, Note_on_c, 7, 62, 93
8, 29664, Note_on_c, 7, 55, 93
8, 29664, Note_on_c, 7, 59, 93
8, 29688, Note_on_c, 7, 59, 0
8, 29688, Note_on_c, 7, 55, 0
8, 29688, Note_on_c, 7, 62, 0
8, 29808, Note_on_c, 7, 62, 93
8, 29808, Note_on_c, 7, 55, 93
8, 29808, Note_on_c, 7, 59, 93
8, 29832, Note_on_c, 7, 59, 0
8, 29832, Note_on_c, 7, 55, 0
8, 29832, Note_on_c, 7, 62, 0
8, 29952, Note_on_c, 7, 59, 93
8, 29952, Note_on_c, 7, 66, 93
8, 29952, Note_on_c, 7, 63, 93
8, 30048, Note_on_c, 7, 63, 0
8, 30048, Note_on_c, 7, 66, 0
8, 30048, Note_on_c, 7, 59, 0
8, 30096, Note_on_c, 7, 63, 93
8, 30096, Note_on_c, 7, 66, 93
8, 30096, Note_on_c, 7, 59, 93
8, 30120, Note_on_c, 7, 59, 0
8, 30120, Note_on_c, 7, 66, 0
8, 30120, Note_on_c, 7, 63, 0
8, 30144, Note_on_c, 7, 59, 93
8, 30144, Note_on_c, 7, 66, 93
8, 30144, Note_on_c, 7, 63, 93
8, 30168, Note_on_c, 7, 63, 0
8, 30168, Note_on_c, 7, 66, 0
8, 30168, Note_on_c, 7, 59, 0
8, 30240, Note_on_c, 7, 63, 93
8, 30240, Note_on_c, 7, 59, 93
8, 30240, Note_on_c, 7, 66, 93
8, 30264, Note_on_c, 7, 66, 0
8, 30264, Note_on_c, 7, 59, 0
8, 30264, Note_on_c, 7, 63, 0
8, 30288, Note_on_c, 7, 63, 93
8, 30288, Note_on_c, 7, 66, 93
8, 30288, Note_on_c, 7, 59, 93
8, 30312, Note_on_c, 7, 59, 0
8, 30312, Note_on_c, 7, 66, 0
8, 30312, Note_on_c, 7, 63, 0
8, 30432, Note_on_c, 7, 63, 93
8, 30432, Note_on_c, 7, 59, 93
8, 30432, Note_on_c, 7, 66, 93
8, 30456, Note_on_c, 7, 66, 0
8, 30456, Note_on_c, 7, 59, 0
8, 30456, Note_on_c, 7, 63, 0
8, 30576, Note_on_c, 7, 63, 93
8, 30576, Note_on_c, 7, 59, 93
8, 30576, Note_on_c, 7, 66, 93
8, 30600, Note_on_c, 7, 66, 0
8, 30600, Note_on_c, 7, 59, 0
8, 30600, Note_on_c, 7, 63, 0
8, 30720, Note_on_c, 7, 64, 93
8, 30720, Note_on_c, 7, 59, 93
8, 30720, Note_on_c, 7, 55, 93
8, 30816, Note_on_c, 7, 55, 0
8, 30816, Note_on_c, 7, 59, 0
8, 30816, Note_on_c, 7, 64, 0
8, 30864, Note_on_c, 7, 59, 93
8, 30864, Note_on_c, 7, 55, 93
8, 30864, Note_on_c, 7, 64, 93
8, 30888, Note_on_c, 7, 64, 0
8, 30888, Note_on_c, 7, 55, 0
8, 30888, Note_on_c, 7, 59, 0
8, 30912, Note_on_c, 7, 55, 93
8, 30912, Note_on_c, 7, 59, 93
8, 30912, Note_on_c, 7, 64, 93
8, 30936, Note_on_c, 7, 64, 0
8, 30936, Note_on_c, 7, 59, 0
8, 30936, Note_on_c, 7, 55, 0
8, 31008, Note_on_c, 7, 55, 93
8, 31008, Note_on_c, 7, 59, 93
8, 31008, Note_on_c, 7, 64, 93
8, 31032, Note_on_c, 7, 64, 0
8, 31032, Note_on_c, 7, 59, 0
8, 31032, Note_on_c, 7, 55, 0
8, 31056, Note_on_c, 7, 59, 93
8, 31056, Note_on_c, 7, 55, 93
8, 31056, Note_on_c, 7, 64, 93
8, 31080, Note_on_c, 7, 64, 0
8, 31080, Note_on_c, 7, 55, 0
8, 31080, Note_on_c, 7, 59, 0
8, 31200, Note_on_c, 7, 64, 93
8, 31200, Note_on_c, 7, 59, 93
8, 31200, Note_on_c, 7, 55, 93
8, 31224, Note_on_c, 7, 55, 0
8, 31224, Note_on_c, 7, 59, 0
8, 31224, Note_on_c, 7, 64, 0
8, 31344, Note_on_c, 7, 55, 93
8, 31344, Note_on_c, 7, 64, 93
8, 31344, Note_on_c, 7, 59, 93
8, 31368, Note_on_c, 7, 59, 0
8, 31368, Note_on_c, 7, 64, 0
8, 31368, Note_on_c, 7, 55, 0
8, 31488, Note_on_c, 7, 67, 93
8, 31488, Note_on_c, 7, 64, 93
8, 31488, Note_on_c, 7, 60, 93
8, 31584, Note_on_c, 7, 60, 0
8, 31584, Note_on_c, 7, 64, 0
8, 31584, Note_on_c, 7, 67, 0
8, 31632, Note_on_c, 7, 64, 93
8, 31632, Note_on_c, 7, 60, 93
8, 31632, Note_on_c, 7, 67, 93
8, 31656, Note_on_c, 7, 67, 0
8, 31656, Note_on_c, 7, 60, 0
8, 31656, Note_on_c, 7, 64, 0
8, 31680, Note_on_c, 7, 64, 93
8, 31680, Note_on_c, 7, 67, 93
8, 31680, Note_on_c, 7, 60, 93
8, 31704, Note_on_c, 7, 60, 0
8, 31704, Note_on_c, 7, 67, 0
8, 31704, Note_on_c, 7, 64, 0
8, 31776, Note_on_c, 7, 67, 93
8, 31776, Note_on_c, 7, 64, 93
8, 31776, Note_on_c, 7, 60, 93
8, 31800, Note_on_c, 7, 60, 0
8, 31800, Note_on_c, 7, 64, 0
8, 31800, Note_on_c, 7, 67, 0
8, 31824, Note_on_c, 7, 64, 93
8, 31824, Note_on_c, 7, 60, 93
8, 31824, Note_on_c, 7, 67, 93
8, 31848, Note_on_c, 7, 67, 0
8, 31848, Note_on_c, 7, 60, 0
8, 31848, Note_on_c, 7, 64, 0
8, 31968, Note_on_c, 7, 67, 93
8, 31968, Note_on_c, 7, 60, 93
8, 31968, Note_on_c, 7, 64, 93
8, 31992, Note_on_c, 7, 64, 0
8, 31992, Note_on_c, 7, 60, 0
8, 31992, Note_on_c, 7, 67, 0
8, 32112, Note_on_c, 7, 64, 93
8, 32112, Note_on_c, 7, 67, 93
8, 32112, Note_on_c, 7, 60, 93
8, 32136, Note_on_c, 7, 60, 0
8, 32136, Note_on_c, 7, 67, 0
8, 32136, Note_on_c, 7, 64, 0
8, 32256, Note_on_c, 7, 59, 93
8, 32256, Note_on_c, 7, 55, 93
8, 32256, Note_on_c, 7, 62, 93
8, 32328, Note_on_c, 7, 62, 0
8, 32328, Note_on_c, 7, 55, 0
8, 32328, Note_on_c, 7, 59, 0
8, 32352, Note_on_c, 7, 59, 93
8, 32352, Note_on_c, 7, 62, 93
8, 32352, Note_on_c, 7, 55, 93
8, 32376, Note_on_c, 7, 55, 0
8, 32376, Note_on_c, 7, 62, 0
8, 32376, Note_on_c, 7, 59, 0
8, 32400, Note_on_c, 7, 59, 93
8, 32400, Note_on_c, 7, 55, 93
8, 32400, Note_on_c, 7, 62, 93
8, 32424, Note_on_c, 7, 62, 0
8, 32424, Note_on_c, 7, 55, 0
8, 32424, Note_on_c, 7, 59, 0
8, 32544, Note_on_c, 7, 62, 93
8, 32544, Note_on_c, 7, 55, 93
8, 32544, Note_on_c, 7, 59, 93
8, 32568, Note_on_c, 7, 59, 0
8, 32568, Note_on_c, 7, 55, 0
8, 32568, Note_on_c, 7, 62, 0
8, 32736, Note_on_c, 7, 62, 93
8, 32736, Note_on_c, 7, 55, 93
8, 32736, Note_on_c, 7, 59, 93
8, 32760, Note_on_c, 7, 59, 0
8, 32760, Note_on_c, 7, 55, 0
8, 32760, Note_on_c, 7, 62, 0
8, 32880, Note_on_c, 7, 62, 93
8, 32880, Note_on_c, 7, 55, 93
8, 32880, Note_on_c, 7, 59, 93
8, 32904, Note_on_c, 7, 59, 0
8, 32904, Note_on_c, 7, 55, 0
8, 32904, Note_on_c, 7, 62, 0
8, 33024, Note_on_c, 7, 59, 93
8, 33024, Note_on_c, 7, 66, 93
8, 33024, Note_on_c, 7, 63, 93
8, 33120, Note_on_c, 7, 63, 0
8, 33120, Note_on_c, 7, 66, 0
8, 33120, Note_on_c, 7, 59, 0
8, 33168, Note_on_c, 7, 63, 93
8, 33168, Note_on_c, 7, 66, 93
8, 33168, Note_on_c, 7, 59, 93
8, 33192, Note_on_c, 7, 59, 0
8, 33192, Note_on_c, 7, 66, 0
8, 33192, Note_on_c, 7, 63, 0
8, 33216, Note_on_c, 7, 59, 93
8, 33216, Note_on_c, 7, 66, 93
8, 33216, Note_on_c, 7, 63, 93
8, 33240, Note_on_c, 7, 63, 0
8, 33240, Note_on_c, 7, 66, 0
8, 33240, Note_on_c, 7, 59, 0
8, 33312, Note_on_c, 7, 63, 93
8, 33312, Note_on_c, 7, 59, 93
8, 33312, Note_on_c, 7, 66, 93
8, 33336, Note_on_c, 7, 66, 0
8, 33336, Note_on_c, 7, 59, 0
8, 33336, Note_on_c, 7, 63, 0
8, 33360, Note_on_c, 7, 63, 93
8, 33360, Note_on_c, 7, 66, 93
8, 33360, Note_on_c, 7, 59, 93
8, 33384, Note_on_c, 7, 59, 0
8, 33384, Note_on_c, 7, 66, 0
8, 33384, Note_on_c, 7, 63, 0
8, 33504, Note_on_c, 7, 63, 93
8, 33504, Note_on_c, 7, 59, 93
8, 33504, Note_on_c, 7, 66, 93
8, 33528, Note_on_c, 7, 66, 0
8, 33528, Note_on_c, 7, 59, 0
8, 33528, Note_on_c, 7, 63, 0
8, 33648, Note_on_c, 7, 63, 93
8, 33648, Note_on_c, 7, 59, 93
8, 33648, Note_on_c, 7, 66, 93
8, 33672, Note_on_c, 7, 66, 0
8, 33672, Note_on_c, 7, 59, 0
8, 33672, Note_on_c, 7, 63, 0
8, 33792, Note_on_c, 7, 64, 93
8, 33792, Note_on_c, 7, 59, 93
8, 33792, Note_on_c, 7, 55, 93
8, 33888, Note_on_c, 7, 55, 0
8, 33888, Note_on_c, 7, 59, 0
8, 33888, Note_on_c, 7, 64, 0
8, 33936, Note_on_c, 7, 59, 93
8, 33936, Note_on_c, 7, 55, 93
8, 33936, Note_on_c, 7, 64, 93
8, 33960, Note_on_c, 7, 64, 0
8, 33960, Note_on_c, 7, 55, 0
8, 33960, Note_on_c, 7, 59, 0
8, 33984, Note_on_c, 7, 55, 93
8, 33984, Note_on_c, 7, 59, 93
8, 33984, Note_on_c, 7, 64, 93
8, 34008, Note_on_c, 7, 64, 0
8, 34008, Note_on_c, 7, 59, 0
8, 34008, Note_on_c, 7, 55, 0
8, 34080, Note_on_c, 7, 55, 93
8, 34080, Note_on_c, 7, 59, 93
8, 34080, Note_on_c, 7, 64, 93
8, 34104, Note_on_c, 7, 64, 0
8, 34104, Note_on_c, 7, 59, 0
8, 34104, Note_on_c, 7, 55, 0
8, 34128, Note_on_c, 7, 59, 93
8, 34128, Note_on_c, 7, 55, 93
8, 34128, Note_on_c, 7, 64, 93
8, 34152, Note_on_c, 7, 64, 0
8, 34152, Note_on_c, 7, 55, 0
8, 34152, Note_on_c, 7, 59, 0
8, 34272, Note_on_c, 7, 64, 93
8, 34272, Note_on_c, 7, 59, 93
8, 34272, Note_on_c, 7, 55, 93
8, 34296, Note_on_c, 7, 55, 0
8, 34296, Note_on_c, 7, 59, 0
8, 34296, Note_on_c, 7, 64, 0
8, 34416, Note_on_c, 7, 55, 93
8, 34416, Note_on_c, 7, 64, 93
8, 34416, Note_on_c, 7, 59, 93
8, 34440, Note_on_c, 7, 59, 0
8, 34440, Note_on_c, 7, 64, 0
8, 34440, Note_on_c, 7, 55, 0
8, 34560, Note_on_c, 7, 67, 93
8, 34560, Note_on_c, 7, 64, 93
8, 34560, Note_on_c, 7, 60, 93
8, 34656, Note_on_c, 7, 60, 0
8, 34656, Note_on_c, 7, 64, 0
8, 34656, Note_on_c, 7, 67, 0
8, 34704, Note_on_c, 7, 64, 93
8, 34704, Note_on_c, 7, 60, 93
8, 34704, Note_on_c, 7, 67, 93
8, 34728, Note_on_c, 7, 67, 0
8, 34728, Note_on_c, 7, 60, 0
8, 34728, Note_on_c, 7, 64, 0
8, 34752, Note_on_c, 7, 64, 93
8, 34752, Note_on_c, 7, 67, 93
8, 34752, Note_on_c, 7, 60, 93
8, 34776, Note_on_c, 7, 60, 0
8, 34776, Note_on_c, 7, 67, 0
8, 34776, Note_on_c, 7, 64, 0
8, 34848, Note_on_c, 7, 67, 93
8, 34848, Note_on_c, 7, 64, 93
8, 34848, Note_on_c, 7, 60, 93
8, 34872, Note_on_c, 7, 60, 0
8, 34872, Note_on_c, 7, 64, 0
8, 34872, Note_on_c, 7, 67, 0
8, 34896, Note_on_c, 7, 64, 93
8, 34896, Note_on_c, 7, 60, 93
8, 34896, Note_on_c, 7, 67, 93
8, 34920, Note_on_c, 7, 67, 0
8, 34920, Note_on_c, 7, 60, 0
8, 34920, Note_on_c, 7, 64, 0
8, 35040, Note_on_c, 7, 67, 93
8, 35040, Note_on_c, 7, 60, 93
8, 35040, Note_on_c, 7, 64, 93
8, 35064, Note_on_c, 7, 64, 0
8, 35064, Note_on_c, 7, 60, 0
8, 35064, Note_on_c, 7, 67, 0
8, 35184, Note_on_c, 7, 64, 93
8, 35184, Note_on_c, 7, 67, 93
8, 35184, Note_on_c, 7, 60, 93
8, 35208, Note_on_c, 7, 60, 0
8, 35208, Note_on_c, 7, 67, 0
8, 35208, Note_on_c, 7, 64, 0
8, 35328, Note_on_c, 7, 59, 93
8, 35328, Note_on_c, 7, 55, 93
8, 35328, Note_on_c, 7, 62, 93
8, 35400, Note_on_c, 7, 62, 0
8, 35400, Note_on_c, 7, 55, 0
8, 35400, Note_on_c, 7, 59, 0
8, 35424, Note_on_c, 7, 59, 93
8, 35424, Note_on_c, 7, 62, 93
8, 35424, Note_on_c, 7, 55, 93
8, 35448, Note_on_c, 7, 55, 0
8, 35448, Note_on_c, 7, 62, 0
8, 35448, Note_on_c, 7, 59, 0
8, 35472, Note_on_c, 7, 59, 93
8, 35472, Note_on_c, 7, 55, 93
8, 35472, Note_on_c, 7, 62, 93
8, 35496, Note_on_c, 7, 62, 0
8, 35496, Note_on_c, 7, 55, 0
8, 35496, Note_on_c, 7, 59, 0
8, 35616, Note_on_c, 7, 62, 93
8, 35616, Note_on_c, 7, 55, 93
8, 35616, Note_on_c, 7, 59, 93
8, 35640, Note_on_c, 7, 59, 0
8, 35640, Note_on_c, 7, 55, 0
8, 35640, Note_on_c, 7, 62, 0
8, 35808, Note_on_c, 7, 62, 93
8, 35808, Note_on_c, 7, 55, 93
8, 35808, Note_on_c, 7, 59, 93
8, 35832, Note_on_c, 7, 59, 0
8, 35832, Note_on_c, 7, 55, 0
8, 35832, Note_on_c, 7, 62, 0
8, 35952, Note_on_c, 7, 62, 93
8, 35952, Note_on_c, 7, 55, 93
8, 35952, Note_on_c, 7, 59, 93
8, 35976, Note_on_c, 7, 59, 0
8, 35976, Note_on_c, 7, 55, 0
8, 35976, Note_on_c, 7, 62, 0
8, 36096, Note_on_c, 7, 59, 93
8, 36096, Note_on_c, 7, 66, 93
8, 36096, Note_on_c, 7, 63, 93
8, 36192, Note_on_c, 7, 63, 0
8, 36192, Note_on_c, 7, 66, 0
8, 36192, Note_on_c, 7, 59, 0
8, 36240, Note_on_c, 7, 63, 93
8, 36240, Note_on_c, 7, 66, 93
8, 36240, Note_on_c, 7, 59, 93
8, 36264, Note_on_c, 7, 59, 0
8, 36264, Note_on_c, 7, 66, 0
8, 36264, Note_on_c, 7, 63, 0
8, 36288, Note_on_c, 7, 59, 93
8, 36288, Note_on_c, 7, 66, 93
8, 36288, Note_on_c, 7, 63, 93
8, 36312, Note_on_c, 7, 63, 0
8, 36312, Note_on_c, 7, 66, 0
8, 36312, Note_on_c, 7, 59, 0
8, 36384, Note_on_c, 7, 63, 93
8, 36384, Note_on_c, 7, 59, 93
8, 36384, Note_on_c, 7, 66, 93
8, 36408, Note_on_c, 7, 66, 0
8, 36408, Note_on_c, 7, 59, 0
8, 36408, Note_on_c, 7, 63, 0
8, 36432, Note_on_c, 7, 63, 93
8, 36432, Note_on_c, 7, 66, 93
8, 36432, Note_on_c, 7, 59, 93
8, 36456, Note_on_c, 7, 59, 0
8, 36456, Note_on_c, 7, 66, 0
8, 36456, Note_on_c, 7, 63, 0
8, 36576, Note_on_c, 7, 63, 93
8, 36576, Note_on_c, 7, 59, 93
8, 36576, Note_on_c, 7, 66, 93
8, 36600, Note_on_c, 7, 66, 0
8, 36600, Note_on_c, 7, 59, 0
8, 36600, Note_on_c, 7, 63, 0
8, 36720, Note_on_c, 7, 63, 93
8, 36720, Note_on_c, 7, 59, 93
8, 36720, Note_on_c, 7, 66, 93
8, 36744, Note_on_c, 7, 66, 0
8, 36744, Note_on_c, 7, 59, 0
8, 36744, Note_on_c, 7, 63, 0
8, 36864, Note_on_c, 7, 64, 93
8, 36864, Note_on_c, 7, 59, 93
8, 36864, Note_on_c, 7, 55, 93
8, 36960, Note_on_c, 7, 55, 0
8, 36960, Note_on_c, 7, 59, 0
8, 36960, Note_on_c, 7, 64, 0
8, 37008, Note_on_c, 7, 59, 93
8, 37008, Note_on_c, 7, 55, 93
8, 37008, Note_on_c, 7, 64, 93
8, 37032, Note_on_c, 7, 64, 0
8, 37032, Note_on_c, 7, 55, 0
8, 37032, Note_on_c, 7, 59, 0
8, 37056, Note_on_c, 7, 55, 93
8, 37056, Note_on_c, 7, 59, 93
8, 37056, Note_on_c, 7, 64, 93
8, 37080, Note_on_c, 7, 64, 0
8, 37080, Note_on_c, 7, 59, 0
8, 37080, Note_on_c, 7, 55, 0
8, 37152, Note_on_c, 7, 55, 93
8, 37152, Note_on_c, 7, 59, 93
8, 37152, Note_on_c, 7, 64, 93
8, 37176, Note_on_c, 7, 64, 0
8, 37176, Note_on_c, 7, 59, 0
8, 37176, Note_on_c, 7, 55, 0
8, 37200, Note_on_c, 7, 59, 93
8, 37200, Note_on_c, 7, 55, 93
8, 37200, Note_on_c, 7, 64, 93
8, 37224, Note_on_c, 7, 64, 0
8, 37224, Note_on_c, 7, 55, 0
8, 37224, Note_on_c, 7, 59, 0
8, 37344, Note_on_c, 7, 64, 93
8, 37344, Note_on_c, 7, 59, 93
8, 37344, Note_on_c, 7, 55, 93
8, 37440, Note_on_c, 7, 55, 0
8, 37440, Note_on_c, 7, 59, 0
8, 37440, Note_on_c, 7, 64, 0
8, 37488, Note_on_c, 7, 55, 93
8, 37488, Note_on_c, 7, 64, 93
8, 37488, Note_on_c, 7, 59, 93
8, 37584, Note_on_c, 7, 59, 0
8, 37584, Note_on_c, 7, 64, 0
8, 37584, Note_on_c, 7, 55, 0
8, 37632, Note_on_c, 7, 52, 78
8, 37656, Note_on_c, 7, 52, 0
8, 37680, Note_on_c, 7, 64, 78
8, 37704, Note_on_c, 7, 64, 0
8, 37728, Note_on_c, 7, 64, 78
8, 37752, Note_on_c, 7, 64, 0
8, 37776, Note_on_c, 7, 52, 78
8, 37800, Note_on_c, 7, 52, 0
8, 37824, Note_on_c, 7, 64, 78
8, 37848, Note_on_c, 7, 64, 0
8, 37872, Note_on_c, 7, 64, 78
8, 37896, Note_on_c, 7, 64, 0
8, 37920, Note_on_c, 7, 52, 78
8, 37944, Note_on_c, 7, 52, 0
8, 37968, Note_on_c, 7, 64, 78
8, 37992, Note_on_c, 7, 64, 0
8, 38016, Note_on_c, 7, 52, 78
8, 38040, Note_on_c, 7, 52, 0
8, 38064, Note_on_c, 7, 64, 78
8, 38088, Note_on_c, 7, 64, 0
8, 38112, Note_on_c, 7, 64, 78
8, 38136, Note_on_c, 7, 64, 0
8, 38160, Note_on_c, 7, 52, 78
8, 38184, Note_on_c, 7, 52, 0
8, 38208, Note_on_c, 7, 64, 78
8, 38232, Note_on_c, 7, 64, 0
8, 38256, Note_on_c, 7, 52, 78
8, 38280, Note_on_c, 7, 52, 0
8, 38304, Note_on_c, 7, 64, 78
8, 38328, Note_on_c, 7, 64, 0
8, 38352, Note_on_c, 7, 64, 78
8, 38376, Note_on_c, 7, 64, 0
8, 38400, Note_on_c, 7, 45, 78
8, 38424, Note_on_c, 7, 45, 0
8, 38448, Note_on_c, 7, 57, 78
8, 38472, Note_on_c, 7, 57, 0
8, 38496, Note_on_c, 7, 57, 78
8, 38520, Note_on_c, 7, 57, 0
8, 38544, Note_on_c, 7, 45, 78
8, 38568, Note_on_c, 7, 45, 0
8, 38592, Note_on_c, 7, 57, 78
8, 38616, Note_on_c, 7, 57, 0
8, 38640, Note_on_c, 7, 45, 78
8, 38664, Note_on_c, 7, 45, 0
8, 38688, Note_on_c, 7, 57, 78
8, 38712, Note_on_c, 7, 57, 0
8, 38736, Note_on_c, 7, 57, 78
8, 38760, Note_on_c, 7, 57, 0
8, 38784, Note_on_c, 7, 45, 78
8, 38808, Note_on_c, 7, 45, 0
8, 38832, Note_on_c, 7, 57, 78
8, 38856, Note_on_c, 7, 57, 0
8, 38880, Note_on_c, 7, 57, 78
8, 38904, Note_on_c, 7, 57, 0
8, 38928, Note_on_c, 7, 45, 78
8, 38952, Note_on_c, 7, 45, 0
8, 38976, Note_on_c, 7, 57, 78
8, 39000, Note_on_c, 7, 57, 0
8, 39024, Note_on_c, 7, 45, 78
8, 39048, Note_on_c, 7, 45, 0
8, 39072, Note_on_c, 7, 57, 78
8, 39096, Note_on_c, 7, 57, 0
8, 39120, Note_on_c, 7, 57, 78
8, 39144, Note_on_c, 7, 57, 0
8, 39168, Note_on_c, 7, 47, 78
8, 39192, Note_on_c, 7, 47, 0
8, 39216, Note_on_c, 7, 59, 78
8, 39240, Note_on_c, 7, 59, 0
8, 39264, Note_on_c, 7, 59, 78
8, 39288, Note_on_c, 7, 59, 0
8, 39312, Note_on_c, 7, 47, 78
8, 39336, Note_on_c, 7, 47, 0
8, 39360, Note_on_c, 7, 59, 78
8, 39384, Note_on_c, 7, 59, 0
8, 39408, Note_on_c, 7, 47, 78
8, 39432, Note_on_c, 7, 47, 0
8, 39456, Note_on_c, 7, 59, 78
8, 39480, Note_on_c, 7, 59, 0
8, 39504, Note_on_c, 7, 59, 78
8, 39528, Note_on_c, 7, 59, 0
8, 39552, Note_on_c, 7, 47, 78
8, 39576, Note_on_c, 7, 47, 0
8, 39600, Note_on_c, 7, 59, 78
8, 39624, Note_on_c, 7, 59, 0
8, 39648, Note_on_c, 7, 59, 78
8, 39672, Note_on_c, 7, 59, 0
8, 39696, Note_on_c, 7, 47, 78
8, 39720, Note_on_c, 7, 47, 0
8, 39744, Note_on_c, 7, 59, 78
8, 39768, Note_on_c, 7, 59, 0
8, 39792, Note_on_c, 7, 47, 78
8, 39816, Note_on_c, 7, 47, 0
8, 39840, Note_on_c, 7, 59, 78
8, 39864, Note_on_c, 7, 59, 0
8, 39888, Note_on_c, 7, 59, 78
8, 39912, Note_on_c, 7, 59, 0
8, 39936, Note_on_c, 7, 52, 78
8, 39960, Note_on_c, 7, 52, 0
8, 39984, Note_on_c, 7, 64, 78
8, 40008, Note_on_c, 7, 64, 0
8, 40032, Note_on_c, 7, 64, 78
8, 40056, Note_on_c, 7, 64, 0
8, 40080, Note_on_c, 7, 52, 78
8, 40104, Note_on_c, 7, 52, 0
8, 40128, Note_on_c, 7, 64, 78
8, 40152, Note_on_c, 7, 64, 0
8, 40176, Note_on_c, 7, 52, 78
8, 40200, Note_on_c, 7, 52, 0
8, 40224, Note_on_c, 7, 64, 78
8, 40224, Note_on_c, 7, 66, 78
8, 40248, Note_on_c, 7, 66, 0
8, 40248, Note_on_c, 7, 64, 0
8, 40272, Note_on_c, 7, 64, 78
8, 40296, Note_on_c, 7, 64, 0
8, 40320, Note_on_c, 7, 52, 78
8, 40344, Note_on_c, 7, 52, 0
8, 40368, Note_on_c, 7, 64, 78
8, 40392, Note_on_c, 7, 64, 0
8, 40416, Note_on_c, 7, 64, 78
8, 40440, Note_on_c, 7, 64, 0
8, 40464, Note_on_c, 7, 52, 78
8, 40488, Note_on_c, 7, 52, 0
8, 40512, Note_on_c, 7, 64, 78
8, 40536, Note_on_c, 7, 64, 0
8, 40560, Note_on_c, 7, 52, 78
8, 40584, Note_on_c, 7, 52, 0
8, 40608, Note_on_c, 7, 64, 78
8, 40632, Note_on_c, 7, 64, 0
8, 40656, Note_on_c, 7, 64, 78
8, 40680, Note_on_c, 7, 64, 0
8, 40704, Note_on_c, 7, 48, 78
8, 40728, Note_on_c, 7, 48, 0
8, 40752, Note_on_c, 7, 60, 78
8, 40776, Note_on_c, 7, 60, 0
8, 40800, Note_on_c, 7, 60, 78
8, 40824, Note_on_c, 7, 60, 0
8, 40848, Note_on_c, 7, 48, 78
8, 40872, Note_on_c, 7, 48, 0
8, 40896, Note_on_c, 7, 60, 78
8, 40920, Note_on_c, 7, 60, 0
8, 40944, Note_on_c, 7, 48, 78
8, 40968, Note_on_c, 7, 48, 0
8, 40992, Note_on_c, 7, 60, 78
8, 41016, Note_on_c, 7, 60, 0
8, 41040, Note_on_c, 7, 60, 78
8, 41064, Note_on_c, 7, 60, 0
8, 41088, Note_on_c, 7, 48, 78
8, 41112, Note_on_c, 7, 48, 0
8, 41136, Note_on_c, 7, 60, 78
8, 41160, Note_on_c, 7, 60, 0
8, 41184, Note_on_c, 7, 60, 78
8, 41208, Note_on_c, 7, 60, 0
8, 41232, Note_on_c, 7, 48, 78
8, 41256, Note_on_c, 7, 48, 0
8, 41280, Note_on_c, 7, 60, 78
8, 41304, Note_on_c, 7, 60, 0
8, 41328, Note_on_c, 7, 48, 78
8, 41352, Note_on_c, 7, 48, 0
8, 41376, Note_on_c, 7, 60, 78
8, 41400, Note_on_c, 7, 60, 0
8, 41424, Note_on_c, 7, 60, 78
8, 41448, Note_on_c, 7, 60, 0
8, 41472, Note_on_c, 7, 45, 78
8, 41496, Note_on_c, 7, 45, 0
8, 41520, Note_on_c, 7, 57, 78
8, 41544, Note_on_c, 7, 57, 0
8, 41568, Note_on_c, 7, 57, 78
8, 41592, Note_on_c, 7, 57, 0
8, 41616, Note_on_c, 7, 45, 78
8, 41640, Note_on_c, 7, 45, 0
8, 41664, Note_on_c, 7, 57, 78
8, 41688, Note_on_c, 7, 57, 0
8, 41712, Note_on_c, 7, 45, 78
8, 41736, Note_on_c, 7, 45, 0
8, 41760, Note_on_c, 7, 57, 78
8, 41784, Note_on_c, 7, 57, 0
8, 41808, Note_on_c, 7, 57, 78
8, 41832, Note_on_c, 7, 57, 0
8, 41856, Note_on_c, 7, 45, 78
8, 41880, Note_on_c, 7, 45, 0
8, 41904, Note_on_c, 7, 57, 78
8, 41928, Note_on_c, 7, 57, 0
8, 41952, Note_on_c, 7, 57, 78
8, 41976, Note_on_c, 7, 57, 0
8, 42000, Note_on_c, 7, 45, 78
8, 42024, Note_on_c, 7, 45, 0
8, 42048, Note_on_c, 7, 57, 78
8, 42072, Note_on_c, 7, 57, 0
8, 42096, Note_on_c, 7, 45, 78
8, 42120, Note_on_c, 7, 45, 0
8, 42144, Note_on_c, 7, 57, 78
8, 42168, Note_on_c, 7, 57, 0
8, 42192, Note_on_c, 7, 57, 78
8, 42216, Note_on_c, 7, 57, 0
8, 42240, Note_on_c, 7, 47, 78
8, 42264, Note_on_c, 7, 47, 0
8, 42288, Note_on_c, 7, 59, 78
8, 42312, Note_on_c, 7, 59, 0
8, 42336, Note_on_c, 7, 59, 78
8, 42360, Note_on_c, 7, 59, 0
8, 42384, Note_on_c, 7, 47, 78
8, 42408, Note_on_c, 7, 47, 0
8, 42432, Note_on_c, 7, 59, 78
8, 42456, Note_on_c, 7, 59, 0
8, 42480, Note_on_c, 7, 47, 78
8, 42504, Note_on_c, 7, 47, 0
8, 42528, Note_on_c, 7, 59, 78
8, 42552, Note_on_c, 7, 59, 0
8, 42576, Note_on_c, 7, 59, 78
8, 42600, Note_on_c, 7, 59, 0
8, 42624, Note_on_c, 7, 47, 78
8, 42648, Note_on_c, 7, 47, 0
8, 42672, Note_on_c, 7, 59, 78
8, 42696, Note_on_c, 7, 59, 0
8, 42720, Note_on_c, 7, 59, 78
8, 42744, Note_on_c, 7, 59, 0
8, 42768, Note_on_c, 7, 47, 78
8, 42792, Note_on_c, 7, 47, 0
8, 42816, Note_on_c, 7, 59, 78
8, 42840, Note_on_c, 7, 59, 0
8, 42864, Note_on_c, 7, 47, 78
8, 42888, Note_on_c, 7, 47, 0
8, 42912, Note_on_c, 7, 59, 78
8, 42936, Note_on_c, 7, 59, 0
8, 42960, Note_on_c, 7, 59, 78
8, 42984, Note_on_c, 7, 59, 0
8, 43008, Note_on_c, 7, 52, 78
8, 43032, Note_on_c, 7, 52, 0
8, 43056, Note_on_c, 7, 64, 78
8, 43080, Note_on_c, 7, 64, 0
8, 43104, Note_on_c, 7, 64, 78
8, 43128, Note_on_c, 7, 64, 0
8, 43152, Note_on_c, 7, 52, 78
8, 43176, Note_on_c, 7, 52, 0
8, 43200, Note_on_c, 7, 64, 78
8, 43224, Note_on_c, 7, 64, 0
8, 43248, Note_on_c, 7, 52, 78
8, 43272, Note_on_c, 7, 52, 0
8, 43296, Note_on_c, 7, 64, 78
8, 43320, Note_on_c, 7, 64, 0
8, 43344, Note_on_c, 7, 64, 78
8, 43368, Note_on_c, 7, 64, 0
8, 43392, Note_on_c, 7, 52, 78
8, 43416, Note_on_c, 7, 52, 0
8, 43440, Note_on_c, 7, 64, 78
8, 43464, Note_on_c, 7, 64, 0
8, 43488, Note_on_c, 7, 64, 78
8, 43512, Note_on_c, 7, 64, 0
8, 43536, Note_on_c, 7, 52, 78
8, 43560, Note_on_c, 7, 52, 0
8, 43584, Note_on_c, 7, 64, 78
8, 43608, Note_on_c, 7, 64, 0
8, 43632, Note_on_c, 7, 52, 78
8, 43656, Note_on_c, 7, 52, 0
8, 43680, Note_on_c, 7, 64, 78
8, 43704, Note_on_c, 7, 64, 0
8, 43728, Note_on_c, 7, 64, 78
8, 43752, Note_on_c, 7, 64, 0
8, 43776, Note_on_c, 7, 52, 78
8, 43800, Note_on_c, 7, 52, 0
8, 43824, Note_on_c, 7, 64, 78
8, 43848, Note_on_c, 7, 64, 0
8, 43872, Note_on_c, 7, 64, 78
8, 43896, Note_on_c, 7, 64, 0
8, 43920, Note_on_c, 7, 52, 78
8, 43944, Note_on_c, 7, 52, 0
8, 43968, Note_on_c, 7, 64, 78
8, 43992, Note_on_c, 7, 64, 0
8, 44016, Note_on_c, 7, 64, 78
8, 44040, Note_on_c, 7, 64, 0
8, 44064, Note_on_c, 7, 52, 78
8, 44088, Note_on_c, 7, 52, 0
8, 44112, Note_on_c, 7, 64, 78
8, 44136, Note_on_c, 7, 64, 0
8, 44160, Note_on_c, 7, 52, 78
8, 44184, Note_on_c, 7, 52, 0
8, 44208, Note_on_c, 7, 64, 78
8, 44232, Note_on_c, 7, 64, 0
8, 44256, Note_on_c, 7, 64, 78
8, 44280, Note_on_c, 7, 64, 0
8, 44304, Note_on_c, 7, 52, 78
8, 44328, Note_on_c, 7, 52, 0
8, 44352, Note_on_c, 7, 64, 78
8, 44376, Note_on_c, 7, 64, 0
8, 44400, Note_on_c, 7, 52, 78
8, 44424, Note_on_c, 7, 52, 0
8, 44448, Note_on_c, 7, 64, 78
8, 44472, Note_on_c, 7, 64, 0
8, 44496, Note_on_c, 7, 64, 78
8, 44520, Note_on_c, 7, 64, 0
8, 44544, Note_on_c, 7, 45, 78
8, 44568, Note_on_c, 7, 45, 0
8, 44592, Note_on_c, 7, 57, 78
8, 44616, Note_on_c, 7, 57, 0
8, 44640, Note_on_c, 7, 57, 78
8, 44664, Note_on_c, 7, 57, 0
8, 44688, Note_on_c, 7, 45, 78
8, 44712, Note_on_c, 7, 45, 0
8, 44736, Note_on_c, 7, 57, 78
8, 44760, Note_on_c, 7, 57, 0
8, 44784, Note_on_c, 7, 45, 78
8, 44808, Note_on_c, 7, 45, 0
8, 44832, Note_on_c, 7, 57, 78
8, 44856, Note_on_c, 7, 57, 0
8, 44880, Note_on_c, 7, 57, 78
8, 44904, Note_on_c, 7, 57, 0
8, 44928, Note_on_c, 7, 45, 78
8, 44952, Note_on_c, 7, 45, 0
8, 44976, Note_on_c, 7, 57, 78
8, 45000, Note_on_c, 7, 57, 0
8, 45024, Note_on_c, 7, 57, 78
8, 45048, Note_on_c, 7, 57, 0
8, 45072, Note_on_c, 7, 45, 78
8, 45096, Note_on_c, 7, 45, 0
8, 45120, Note_on_c, 7, 57, 78
8, 45144, Note_on_c, 7, 57, 0
8, 45168, Note_on_c, 7, 45, 78
8, 45192, Note_on_c, 7, 45, 0
8, 45216, Note_on_c, 7, 57, 78
8, 45240, Note_on_c, 7, 57, 0
8, 45264, Note_on_c, 7, 57, 78
8, 45288, Note_on_c, 7, 57, 0
8, 45312, Note_on_c, 7, 47, 78
8, 45336, Note_on_c, 7, 47, 0
8, 45360, Note_on_c, 7, 59, 78
8, 45384, Note_on_c, 7, 59, 0
8, 45408, Note_on_c, 7, 59, 78
8, 45432, Note_on_c, 7, 59, 0
8, 45456, Note_on_c, 7, 47, 78
8, 45480, Note_on_c, 7, 47, 0
8, 45504, Note_on_c, 7, 59, 78
8, 45528, Note_on_c, 7, 59, 0
8, 45552, Note_on_c, 7, 47, 78
8, 45576, Note_on_c, 7, 47, 0
8, 45600, Note_on_c, 7, 59, 78
8, 45624, Note_on_c, 7, 59, 0
8, 45648, Note_on_c, 7, 59, 78
8, 45672, Note_on_c, 7, 59, 0
8, 45696, Note_on_c, 7, 47, 78
8, 45720, Note_on_c, 7, 47, 0
8, 45744, Note_on_c, 7, 59, 78
8, 45768, Note_on_c, 7, 59, 0
8, 45792, Note_on_c, 7, 59, 78
8, 45816, Note_on_c, 7, 59, 0
8, 45840, Note_on_c, 7, 47, 78
8, 45864, Note_on_c, 7, 47, 0
8, 45888, Note_on_c, 7, 59, 78
8, 45912, Note_on_c, 7, 59, 0
8, 45936, Note_on_c, 7, 47, 78
8, 45960, Note_on_c, 7, 47, 0
8, 45984, Note_on_c, 7, 59, 78
8, 46008, Note_on_c, 7, 59, 0
8, 46032, Note_on_c, 7, 59, 78
8, 46056, Note_on_c, 7, 59, 0
8, 46080, Note_on_c, 7, 52, 78
8, 46104, Note_on_c, 7, 52, 0
8, 46128, Note_on_c, 7, 64, 78
8, 46152, Note_on_c, 7, 64, 0
8, 46176, Note_on_c, 7, 64, 78
8, 46200, Note_on_c, 7, 64, 0
8, 46224, Note_on_c, 7, 52, 78
8, 46248, Note_on_c, 7, 52, 0
8, 46272, Note_on_c, 7, 64, 78
8, 46296, Note_on_c, 7, 64, 0
8, 46320, Note_on_c, 7, 52, 78
8, 46344, Note_on_c, 7, 52, 0
8, 46368, Note_on_c, 7, 64, 78
8, 46368, Note_on_c, 7, 66, 78
8, 46392, Note_on_c, 7, 66, 0
8, 46392, Note_on_c, 7, 64, 0
8, 46416, Note_on_c, 7, 64, 78
8, 46440, Note_on_c, 7, 64, 0
8, 46464, Note_on_c, 7, 52, 78
8, 46488, Note_on_c, 7, 52, 0
8, 46512, Note_on_c, 7, 64, 78
8, 46536, Note_on_c, 7, 64, 0
8, 46560, Note_on_c, 7, 64, 78
8, 46584, Note_on_c, 7, 64, 0
8, 46608, Note_on_c, 7, 52, 78
8, 46632, Note_on_c, 7, 52, 0
8, 46656, Note_on_c, 7, 64, 78
8, 46680, Note_on_c, 7, 64, 0
8, 46704, Note_on_c, 7, 52, 78
8, 46728, Note_on_c, 7, 52, 0
8, 46752, Note_on_c, 7, 64, 78
8, 46776, Note_on_c, 7, 64, 0
8, 46800, Note_on_c, 7, 64, 78
8, 46824, Note_on_c, 7, 64, 0
8, 46848, Note_on_c, 7, 48, 78
8, 46872, Note_on_c, 7, 48, 0
8, 46896, Note_on_c, 7, 60, 78
8, 46920, Note_on_c, 7, 60, 0
8, 46944, Note_on_c, 7, 60, 78
8, 46968, Note_on_c, 7, 60, 0
8, 46992, Note_on_c, 7, 48, 78
8, 47016, Note_on_c, 7, 48, 0
8, 47040, Note_on_c, 7, 60, 78
8, 47064, Note_on_c, 7, 60, 0
8, 47088, Note_on_c, 7, 48, 78
8, 47112, Note_on_c, 7, 48, 0
8, 47136, Note_on_c, 7, 60, 78
8, 47160, Note_on_c, 7, 60, 0
8, 47184, Note_on_c, 7, 60, 78
8, 47208, Note_on_c, 7, 60, 0
8, 47232, Note_on_c, 7, 48, 78
8, 47256, Note_on_c, 7, 48, 0
8, 47280, Note_on_c, 7, 60, 78
8, 47304, Note_on_c, 7, 60, 0
8, 47328, Note_on_c, 7, 60, 78
8, 47352, Note_on_c, 7, 60, 0
8, 47376, Note_on_c, 7, 48, 78
8, 47400, Note_on_c, 7, 48, 0
8, 47424, Note_on_c, 7, 60, 78
8, 47448, Note_on_c, 7, 60, 0
8, 47472, Note_on_c, 7, 48, 78
8, 47496, Note_on_c, 7, 48, 0
8, 47520, Note_on_c, 7, 60, 78
8, 47544, Note_on_c, 7, 60, 0
8, 47568, Note_on_c, 7, 60, 78
8, 47592, Note_on_c, 7, 60, 0
8, 47616, Note_on_c, 7, 45, 78
8, 47640, Note_on_c, 7, 45, 0
8, 47664, Note_on_c, 7, 57, 78
8, 47688, Note_on_c, 7, 57, 0
8, 47712, Note_on_c, 7, 57, 78
8, 47736, Note_on_c, 7, 57, 0
8, 47760, Note_on_c, 7, 45, 78
8, 47784, Note_on_c, 7, 45, 0
8, 47808, Note_on_c, 7, 57, 78
8, 47832, Note_on_c, 7, 57, 0
8, 47856, Note_on_c, 7, 45, 78
8, 47880, Note_on_c, 7, 45, 0
8, 47904, Note_on_c, 7, 57, 78
8, 47928, Note_on_c, 7, 57, 0
8, 47952, Note_on_c, 7, 57, 78
8, 47976, Note_on_c, 7, 57, 0
8, 48000, Note_on_c, 7, 45, 78
8, 48024, Note_on_c, 7, 45, 0
8, 48048, Note_on_c, 7, 57, 78
8, 48072, Note_on_c, 7, 57, 0
8, 48096, Note_on_c, 7, 57, 78
8, 48120, Note_on_c, 7, 57, 0
8, 48144, Note_on_c, 7, 45, 78
8, 48168, Note_on_c, 7, 45, 0
8, 48192, Note_on_c, 7, 57, 78
8, 48216, Note_on_c, 7, 57, 0
8, 48240, Note_on_c, 7, 45, 78
8, 48264, Note_on_c, 7, 45, 0
8, 48288, Note_on_c, 7, 57, 78
8, 48312, Note_on_c, 7, 57, 0
8, 48336, Note_on_c, 7, 57, 78
8, 48360, Note_on_c, 7, 57, 0
8, 48384, Note_on_c, 7, 47, 78
8, 48408, Note_on_c, 7, 47, 0
8, 48432, Note_on_c, 7, 59, 78
8, 48456, Note_on_c, 7, 59, 0
8, 48480, Note_on_c, 7, 59, 78
8, 48504, Note_on_c, 7, 59, 0
8, 48528, Note_on_c, 7, 47, 78
8, 48552, Note_on_c, 7, 47, 0
8, 48576, Note_on_c, 7, 59, 78
8, 48600, Note_on_c, 7, 59, 0
8, 48624, Note_on_c, 7, 47, 78
8, 48648, Note_on_c, 7, 47, 0
8, 48672, Note_on_c, 7, 59, 78
8, 48696, Note_on_c, 7, 59, 0
8, 48720, Note_on_c, 7, 59, 78
8, 48744, Note_on_c, 7, 59, 0
8, 48768, Note_on_c, 7, 47, 78
8, 48792, Note_on_c, 7, 47, 0
8, 48816, Note_on_c, 7, 59, 78
8, 48840, Note_on_c, 7, 59, 0
8, 48864, Note_on_c, 7, 59, 78
8, 48888, Note_on_c, 7, 59, 0
8, 48912, Note_on_c, 7, 47, 78
8, 48936, Note_on_c, 7, 47, 0
8, 48960, Note_on_c, 7, 59, 78
8, 48984, Note_on_c, 7, 59, 0
8, 49008, Note_on_c, 7, 47, 78
8, 49032, Note_on_c, 7, 47, 0
8, 49056, Note_on_c, 7, 59, 78
8, 49076, Control_c, 7, 91, 127
8, 49080, Note_on_c, 7, 59, 0
8, 49104, Note_on_c, 7, 59, 78
8, 49128, Note_on_c, 7, 59, 0
8, 49152, Note_on_c, 7, 68, 114
8, 49152, Note_on_c, 7, 71, 114
8, 49392, Note_on_c, 7, 71, 0
8, 49392, Note_on_c, 7, 68, 0
8, 49432, Note_on_c, 7, 69, 114
8, 49432, Note_on_c, 7, 66, 114
8, 49792, Note_on_c, 7, 66, 0
8, 49792, Note_on_c, 7, 69, 0
8, 49832, Note_on_c, 7, 64, 114
8, 49832, Note_on_c, 7, 67, 114
8, 50624, Note_on_c, 7, 67, 0
8, 50624, Note_on_c, 7, 64, 0
8, 50680, Note_on_c, 7, 71, 114
8, 50680, Note_on_c, 7, 68, 114
8, 50928, Note_on_c, 7, 68, 0
8, 50928, Note_on_c, 7, 71, 0
8, 50984, Note_on_c, 7, 69, 114
8, 50984, Note_on_c, 7, 66, 114
8, 51320, Note_on_c, 7, 69, 0
8, 51328, Note_on_c, 7, 66, 0
8, 51360, Note_on_c, 7, 61, 114
8, 51360, Note_on_c, 7, 64, 114
8, 52184, Note_on_c, 7, 61, 0
8, 52224, Note_on_c, 7, 64, 0
8, 52224, Note_on_c, 7, 59, 93
8, 52224, Note_on_c, 7, 55, 93
8, 52224, Note_on_c, 7, 62, 93
8, 52280, Control_c, 7, 91, 21
8, 52320, Note_on_c, 7, 62, 0
8, 52320, Note_on_c, 7, 55, 0
8, 52320, Note_on_c, 7, 59, 0
8, 52368, Note_on_c, 7, 55, 93
8, 52368, Note_on_c, 7, 59, 93
8, 52368, Note_on_c, 7, 62, 93
8, 52392, Note_on_c, 7, 62, 0
8, 52392, Note_on_c, 7, 59, 0
8, 52392, Note_on_c, 7, 55, 0
8, 52416, Note_on_c, 7, 59, 93
8, 52416, Note_on_c, 7, 55, 93
8, 52416, Note_on_c, 7, 62, 93
8, 52440, Note_on_c, 7, 62, 0
8, 52440, Note_on_c, 7, 55, 0
8, 52440, Note_on_c, 7, 59, 0
8, 52512, Note_on_c, 7, 59, 93
8, 52512, Note_on_c, 7, 62, 93
8, 52512, Note_on_c, 7, 55, 93
8, 52536, Note_on_c, 7, 55, 0
8, 52536, Note_on_c, 7, 62, 0
8, 52536, Note_on_c, 7, 59, 0
8, 52560, Note_on_c, 7, 55, 93
8, 52560, Note_on_c, 7, 62, 93
8, 52560, Note_on_c, 7, 59, 93
8, 52584, Note_on_c, 7, 59, 0
8, 52584, Note_on_c, 7, 62, 0
8, 52584, Note_on_c, 7, 55, 0
8, 52704, Note_on_c, 7, 59, 93
8, 52704, Note_on_c, 7, 62, 93
8, 52704, Note_on_c, 7, 55, 93
8, 52728, Note_on_c, 7, 55, 0
8, 52728, Note_on_c, 7, 62, 0
8, 52728, Note_on_c, 7, 59, 0
8, 52848, Note_on_c, 7, 55, 93
8, 52848, Note_on_c, 7, 62, 93
8, 52848, Note_on_c, 7, 59, 93
8, 52872, Note_on_c, 7, 59, 0
8, 52872, Note_on_c, 7, 62, 0
8, 52872, Note_on_c, 7, 55, 0
8, 52992, Note_on_c, 7, 62, 93
8, 52992, Note_on_c, 7, 57, 93
8, 52992, Note_on_c, 7, 53, 93
8, 53088, Note_on_c, 7, 53, 0
8, 53088, Note_on_c, 7, 57, 0
8, 53088, Note_on_c, 7, 62, 0
8, 53136, Note_on_c, 7, 57, 93
8, 53136, Note_on_c, 7, 53, 93
8, 53136, Note_on_c, 7, 60, 93
8, 53160, Note_on_c, 7, 60, 0
8, 53160, Note_on_c, 7, 53, 0
8, 53160, Note_on_c, 7, 57, 0
8, 53184, Note_on_c, 7, 57, 93
8, 53184, Note_on_c, 7, 53, 93
8, 53184, Note_on_c, 7, 62, 93
8, 53208, Note_on_c, 7, 62, 0
8, 53208, Note_on_c, 7, 53, 0
8, 53208, Note_on_c, 7, 57, 0
8, 53280, Note_on_c, 7, 62, 93
8, 53280, Note_on_c, 7, 53, 93
8, 53280, Note_on_c, 7, 57, 93
8, 53304, Note_on_c, 7, 57, 0
8, 53304, Note_on_c, 7, 53, 0
8, 53304, Note_on_c, 7, 62, 0
8, 53328, Note_on_c, 7, 53, 93
8, 53328, Note_on_c, 7, 62, 93
8, 53328, Note_on_c, 7, 57, 93
8, 53352, Note_on_c, 7, 57, 0
8, 53352, Note_on_c, 7, 62, 0
8, 53352, Note_on_c, 7, 53, 0
8, 53472, Note_on_c, 7, 53, 93
8, 53472, Note_on_c, 7, 62, 93
8, 53472, Note_on_c, 7, 57, 93
8, 53496, Note_on_c, 7, 57, 0
8, 53496, Note_on_c, 7, 62, 0
8, 53496, Note_on_c, 7, 53, 0
8, 53616, Note_on_c, 7, 53, 93
8, 53616, Note_on_c, 7, 62, 93
8, 53616, Note_on_c, 7, 57, 93
8, 53640, Note_on_c, 7, 57, 0
8, 53640, Note_on_c, 7, 62, 0
8, 53640, Note_on_c, 7, 53, 0
8, 53760, Note_on_c, 7, 67, 93
8, 53760, Note_on_c, 7, 60, 93
8, 53760, Note_on_c, 7, 64, 93
8, 53856, Note_on_c, 7, 64, 0
8, 53856, Note_on_c, 7, 60, 0
8, 53856, Note_on_c, 7, 67, 0
8, 53904, Note_on_c, 7, 67, 93
8, 53904, Note_on_c, 7, 64, 93
8, 53904, Note_on_c, 7, 60, 93
8, 53928, Note_on_c, 7, 60, 0
8, 53928, Note_on_c, 7, 64, 0
8, 53928, Note_on_c, 7, 67, 0
8, 53952, Note_on_c, 7, 60, 93
8, 53952, Note_on_c, 7, 67, 93
8, 53952, Note_on_c, 7, 64, 93
8, 53976, Note_on_c, 7, 64, 0
8, 53976, Note_on_c, 7, 67, 0
8, 53976, Note_on_c, 7, 60, 0
8, 54048, Note_on_c, 7, 67, 93
8, 54048, Note_on_c, 7, 64, 93
8, 54048, Note_on_c, 7, 60, 93
8, 54072, Note_on_c, 7, 60, 0
8, 54072, Note_on_c, 7, 64, 0
8, 54072, Note_on_c, 7, 67, 0
8, 54096, Note_on_c, 7, 67, 93
8, 54096, Note_on_c, 7, 60, 93
8, 54096, Note_on_c, 7, 64, 93
8, 54120, Note_on_c, 7, 64, 0
8, 54120, Note_on_c, 7, 60, 0
8, 54120, Note_on_c, 7, 67, 0
8, 54240, Note_on_c, 7, 60, 93
8, 54240, Note_on_c, 7, 67, 93
8, 54240, Note_on_c, 7, 64, 93
8, 54264, Note_on_c, 7, 64, 0
8, 54264, Note_on_c, 7, 67, 0
8, 54264, Note_on_c, 7, 60, 0
8, 54384, Note_on_c, 7, 60, 93
8, 54384, Note_on_c, 7, 67, 93
8, 54384, Note_on_c, 7, 64, 93
8, 54408, Note_on_c, 7, 64, 0
8, 54408, Note_on_c, 7, 67, 0
8, 54408, Note_on_c, 7, 60, 0
8, 54528, Note_on_c, 7, 66, 93
8, 54528, Note_on_c, 7, 62, 93
8, 54528, Note_on_c, 7, 69, 93
8, 54624, Note_on_c, 7, 69, 0
8, 54624, Note_on_c, 7, 62, 0
8, 54624, Note_on_c, 7, 66, 0
8, 54672, Note_on_c, 7, 69, 93
8, 54672, Note_on_c, 7, 62, 93
8, 54672, Note_on_c, 7, 66, 93
8, 54696, Note_on_c, 7, 66, 0
8, 54696, Note_on_c, 7, 62, 0
8, 54696, Note_on_c, 7, 69, 0
8, 54720, Note_on_c, 7, 69, 93
8, 54720, Note_on_c, 7, 66, 93
8, 54720, Note_on_c, 7, 62, 93
8, 54744, Note_on_c, 7, 62, 0
8, 54744, Note_on_c, 7, 66, 0
8, 54744, Note_on_c, 7, 69, 0
8, 54816, Note_on_c, 7, 66, 93
8, 54816, Note_on_c, 7, 62, 93
8, 54816, Note_on_c, 7, 69, 93
8, 54840, Note_on_c, 7, 69, 0
8, 54840, Note_on_c, 7, 62, 0
8, 54840, Note_on_c, 7, 66, 0
8, 54864, Note_on_c, 7, 66, 93
8, 54864, Note_on_c, 7, 69, 93
8, 54864, Note_on_c, 7, 62, 93
8, 54888, Note_on_c, 7, 62, 0
8, 54888, Note_on_c, 7, 69, 0
8, 54888, Note_on_c, 7, 66, 0
8, 55008, Note_on_c, 7, 66, 93
8, 55008, Note_on_c, 7, 69, 93
8, 55008, Note_on_c, 7, 62, 93
8, 55032, Note_on_c, 7, 62, 0
8, 55032, Note_on_c, 7, 69, 0
8, 55032, Note_on_c, 7, 66, 0
8, 55152, Note_on_c, 7, 69, 93
8, 55152, Note_on_c, 7, 66, 93
8, 55152, Note_on_c, 7, 62, 93
8, 55176, Note_on_c, 7, 62, 0
8, 55176, Note_on_c, 7, 66, 0
8, 55176, Note_on_c, 7, 69, 0
8, 55296, Note_on_c, 7, 59, 93
8, 55296, Note_on_c, 7, 55, 93
8, 55296, Note_on_c, 7, 62, 93
8, 55392, Note_on_c, 7, 62, 0
8, 55392, Note_on_c, 7, 55, 0
8, 55392, Note_on_c, 7, 59, 0
8, 55440, Note_on_c, 7, 55, 93
8, 55440, Note_on_c, 7, 59, 93
8, 55440, Note_on_c, 7, 62, 93
8, 55464, Note_on_c, 7, 62, 0
8, 55464, Note_on_c, 7, 59, 0
8, 55464, Note_on_c, 7, 55, 0
8, 55488, Note_on_c, 7, 59, 93
8, 55488, Note_on_c, 7, 55, 93
8, 55488, Note_on_c, 7, 62, 93
8, 55512, Note_on_c, 7, 62, 0
8, 55512, Note_on_c, 7, 55, 0
8, 55512, Note_on_c, 7, 59, 0
8, 55584, Note_on_c, 7, 59, 93
8, 55584, Note_on_c, 7, 62, 93
8, 55584, Note_on_c, 7, 55, 93
8, 55608, Note_on_c, 7, 55, 0
8, 55608, Note_on_c, 7, 62, 0
8, 55608, Note_on_c, 7, 59, 0
8, 55632, Note_on_c, 7, 55, 93
8, 55632, Note_on_c, 7, 62, 93
8, 55632, Note_on_c, 7, 59, 93
8, 55656, Note_on_c, 7, 59, 0
8, 55656, Note_on_c, 7, 62, 0
8, 55656, Note_on_c, 7, 55, 0
8, 55776, Note_on_c, 7, 59, 93
8, 55776, Note_on_c, 7, 62, 93
8, 55776, Note_on_c, 7, 55, 93
8, 55800, Note_on_c, 7, 55, 0
8, 55800, Note_on_c, 7, 62, 0
8, 55800, Note_on_c, 7, 59, 0
8, 55920, Note_on_c, 7, 55, 93
8, 55920, Note_on_c, 7, 62, 93
8, 55920, Note_on_c, 7, 59, 93
8, 55944, Note_on_c, 7, 59, 0
8, 55944, Note_on_c, 7, 62, 0
8, 55944, Note_on_c, 7, 55, 0
8, 56064, Note_on_c, 7, 62, 93
8, 56064, Note_on_c, 7, 57, 93
8, 56064, Note_on_c, 7, 53, 93
8, 56160, Note_on_c, 7, 53, 0
8, 56160, Note_on_c, 7, 57, 0
8, 56160, Note_on_c, 7, 62, 0
8, 56208, Note_on_c, 7, 57, 93
8, 56208, Note_on_c, 7, 53, 93
8, 56208, Note_on_c, 7, 60, 93
8, 56232, Note_on_c, 7, 60, 0
8, 56232, Note_on_c, 7, 53, 0
8, 56232, Note_on_c, 7, 57, 0
8, 56256, Note_on_c, 7, 57, 93
8, 56256, Note_on_c, 7, 53, 93
8, 56256, Note_on_c, 7, 62, 93
8, 56280, Note_on_c, 7, 62, 0
8, 56280, Note_on_c, 7, 53, 0
8, 56280, Note_on_c, 7, 57, 0
8, 56352, Note_on_c, 7, 62, 93
8, 56352, Note_on_c, 7, 53, 93
8, 56352, Note_on_c, 7, 57, 93
8, 56376, Note_on_c, 7, 57, 0
8, 56376, Note_on_c, 7, 53, 0
8, 56376, Note_on_c, 7, 62, 0
8, 56400, Note_on_c, 7, 53, 93
8, 56400, Note_on_c, 7, 62, 93
8, 56400, Note_on_c, 7, 57, 93
8, 56424, Note_on_c, 7, 57, 0
8, 56424, Note_on_c, 7, 62, 0
8, 56424, Note_on_c, 7, 53, 0
8, 56544, Note_on_c, 7, 53, 93
8, 56544, Note_on_c, 7, 62, 93
8, 56544, Note_on_c, 7, 57, 93
8, 56568, Note_on_c, 7, 57, 0
8, 56568, Note_on_c, 7, 62, 0
8, 56568, Note_on_c, 7, 53, 0
8, 56688, Note_on_c, 7, 53, 93
8, 56688, Note_on_c, 7, 62, 93
8, 56688, Note_on_c, 7, 57, 93
8, 56712, Note_on_c, 7, 57, 0
8, 56712, Note_on_c, 7, 62, 0
8, 56712, Note_on_c, 7, 53, 0
8, 56832, Note_on_c, 7, 67, 93
8, 56832, Note_on_c, 7, 60, 93
8, 56832, Note_on_c, 7, 64, 93
8, 56928, Note_on_c, 7, 64, 0
8, 56928, Note_on_c, 7, 60, 0
8, 56928, Note_on_c, 7, 67, 0
8, 56976, Note_on_c, 7, 67, 93
8, 56976, Note_on_c, 7, 64, 93
8, 56976, Note_on_c, 7, 60, 93
8, 57000, Note_on_c, 7, 60, 0
8, 57000, Note_on_c, 7, 64, 0
8, 57000, Note_on_c, 7, 67, 0
8, 57024, Note_on_c, 7, 60, 93
8, 57024, Note_on_c, 7, 67, 93
8, 57024, Note_on_c, 7, 64, 93
8, 57048, Note_on_c, 7, 64, 0
8, 57048, Note_on_c, 7, 67, 0
8, 57048, Note_on_c, 7, 60, 0
8, 57120, Note_on_c, 7, 67, 93
8, 57120, Note_on_c, 7, 64, 93
8, 57120, Note_on_c, 7, 60, 93
8, 57144, Note_on_c, 7, 60, 0
8, 57144, Note_on_c, 7, 64, 0
8, 57144, Note_on_c, 7, 67, 0
8, 57168, Note_on_c, 7, 67, 93
8, 57168, Note_on_c, 7, 60, 93
8, 57168, Note_on_c, 7, 64, 93
8, 57192, Note_on_c, 7, 64, 0
8, 57192, Note_on_c, 7, 60, 0
8, 57192, Note_on_c, 7, 67, 0
8, 57312, Note_on_c, 7, 60, 93
8, 57312, Note_on_c, 7, 67, 93
8, 57312, Note_on_c, 7, 64, 93
8, 57336, Note_on_c, 7, 64, 0
8, 57336, Note_on_c, 7, 67, 0
8, 57336, Note_on_c, 7, 60, 0
8, 57456, Note_on_c, 7, 60, 93
8, 57456, Note_on_c, 7, 67, 93
8, 57456, Note_on_c, 7, 64, 93
8, 57480, Note_on_c, 7, 64, 0
8, 57480, Note_on_c, 7, 67, 0
8, 57480, Note_on_c, 7, 60, 0
8, 57600, Note_on_c, 7, 66, 93
8, 57600, Note_on_c, 7, 62, 93
8, 57600, Note_on_c, 7, 69, 93
8, 57696, Note_on_c, 7, 69, 0
8, 57696, Note_on_c, 7, 62, 0
8, 57696, Note_on_c, 7, 66, 0
8, 57744, Note_on_c, 7, 69, 93
8, 57744, Note_on_c, 7, 62, 93
8, 57744, Note_on_c, 7, 66, 93
8, 57768, Note_on_c, 7, 66, 0
8, 57768, Note_on_c, 7, 62, 0
8, 57768, Note_on_c, 7, 69, 0
8, 57792, Note_on_c, 7, 69, 93
8, 57792, Note_on_c, 7, 66, 93
8, 57792, Note_on_c, 7, 62, 93
8, 57816, Note_on_c, 7, 62, 0
8, 57816, Note_on_c, 7, 66, 0
8, 57816, Note_on_c, 7, 69, 0
8, 57888, Note_on_c, 7, 66, 93
8, 57888, Note_on_c, 7, 62, 93
8, 57888, Note_on_c, 7, 69, 93
8, 57912, Note_on_c, 7, 69, 0
8, 57912, Note_on_c, 7, 62, 0
8, 57912, Note_on_c, 7, 66, 0
8, 57936, Note_on_c, 7, 66, 93
8, 57936, Note_on_c, 7, 69, 93
8, 57936, Note_on_c, 7, 62, 93
8, 57960, Note_on_c, 7, 62, 0
8, 57960, Note_on_c, 7, 69, 0
8, 57960, Note_on_c, 7, 66, 0
8, 58080, Note_on_c, 7, 66, 93
8, 58080, Note_on_c, 7, 69, 93
8, 58080, Note_on_c, 7, 62, 93
8, 58104, Note_on_c, 7, 62, 0
8, 58104, Note_on_c, 7, 69, 0
8, 58104, Note_on_c, 7, 66, 0
8, 58224, Note_on_c, 7, 69, 93
8, 58224, Note_on_c, 7, 66, 93
8, 58224, Note_on_c, 7, 62, 93
8, 58248, Note_on_c, 7, 62, 0
8, 58248, Note_on_c, 7, 66, 0
8, 58248, Note_on_c, 7, 69, 0
8, 58368, Note_on_c, 7, 59, 93
8, 58368, Note_on_c, 7, 55, 93
8, 58368, Note_on_c, 7, 62, 93
8, 58464, Note_on_c, 7, 62, 0
8, 58464, Note_on_c, 7, 55, 0
8, 58464, Note_on_c, 7, 59, 0
8, 58512, Note_on_c, 7, 55, 93
8, 58512, Note_on_c, 7, 59, 93
8, 58512, Note_on_c, 7, 62, 93
8, 58536, Note_on_c, 7, 62, 0
8, 58536, Note_on_c, 7, 59, 0
8, 58536, Note_on_c, 7, 55, 0
8, 58560, Note_on_c, 7, 59, 93
8, 58560, Note_on_c, 7, 55, 93
8, 58560, Note_on_c, 7, 62, 93
8, 58584, Note_on_c, 7, 62, 0
8, 58584, Note_on_c, 7, 55, 0
8, 58584, Note_on_c, 7, 59, 0
8, 58656, Note_on_c, 7, 59, 93
8, 58656, Note_on_c, 7, 62, 93
8, 58656, Note_on_c, 7, 55, 93
8, 58680, Note_on_c, 7, 55, 0
8, 58680, Note_on_c, 7, 62, 0
8, 58680, Note_on_c, 7, 59, 0
8, 58704, Note_on_c, 7, 55, 93
8, 58704, Note_on_c, 7, 62, 93
8, 58704, Note_on_c, 7, 59, 93
8, 58728, Note_on_c, 7, 59, 0
8, 58728, Note_on_c, 7, 62, 0
8, 58728, Note_on_c, 7, 55, 0
8, 58848, Note_on_c, 7, 59, 93
8, 58848, Note_on_c, 7, 62, 93
8, 58848, Note_on_c, 7, 55, 93
8, 58872, Note_on_c, 7, 55, 0
8, 58872, Note_on_c, 7, 62, 0
8, 58872, Note_on_c, 7, 59, 0
8, 58992, Note_on_c, 7, 55, 93
8, 58992, Note_on_c, 7, 62, 93
8, 58992, Note_on_c, 7, 59, 93
8, 59016, Note_on_c, 7, 59, 0
8, 59016, Note_on_c, 7, 62, 0
8, 59016, Note_on_c, 7, 55, 0
8, 59136, Note_on_c, 7, 62, 93
8, 59136, Note_on_c, 7, 57, 93
8, 59136, Note_on_c, 7, 53, 93
8, 59232, Note_on_c, 7, 53, 0
8, 59232, Note_on_c, 7, 57, 0
8, 59232, Note_on_c, 7, 62, 0
8, 59280, Note_on_c, 7, 57, 93
8, 59280, Note_on_c, 7, 53, 93
8, 59280, Note_on_c, 7, 60, 93
8, 59304, Note_on_c, 7, 60, 0
8, 59304, Note_on_c, 7, 53, 0
8, 59304, Note_on_c, 7, 57, 0
8, 59328, Note_on_c, 7, 57, 93
8, 59328, Note_on_c, 7, 53, 93
8, 59328, Note_on_c, 7, 62, 93
8, 59352, Note_on_c, 7, 62, 0
8, 59352, Note_on_c, 7, 53, 0
8, 59352, Note_on_c, 7, 57, 0
8, 59424, Note_on_c, 7, 62, 93
8, 59424, Note_on_c, 7, 53, 93
8, 59424, Note_on_c, 7, 57, 93
8, 59448, Note_on_c, 7, 57, 0
8, 59448, Note_on_c, 7, 53, 0
8, 59448, Note_on_c, 7, 62, 0
8, 59472, Note_on_c, 7, 53, 93
8, 59472, Note_on_c, 7, 62, 93
8, 59472, Note_on_c, 7, 57, 93
8, 59496, Note_on_c, 7, 57, 0
8, 59496, Note_on_c, 7, 62, 0
8, 59496, Note_on_c, 7, 53, 0
8, 59616, Note_on_c, 7, 53, 93
8, 59616, Note_on_c, 7, 62, 93
8, 59616, Note_on_c, 7, 57, 93
8, 59640, Note_on_c, 7, 57, 0
8, 59640, Note_on_c, 7, 62, 0
8, 59640, Note_on_c, 7, 53, 0
8, 59760, Note_on_c, 7, 53, 93
8, 59760, Note_on_c, 7, 62, 93
8, 59760, Note_on_c, 7, 57, 93
8, 59784, Note_on_c, 7, 57, 0
8, 59784, Note_on_c, 7, 62, 0
8, 59784, Note_on_c, 7, 53, 0
8, 59904, Note_on_c, 7, 67, 93
8, 59904, Note_on_c, 7, 60, 93
8, 59904, Note_on_c, 7, 64, 93
8, 60000, Note_on_c, 7, 64, 0
8, 60000, Note_on_c, 7, 60, 0
8, 60000, Note_on_c, 7, 67, 0
8, 60048, Note_on_c, 7, 67, 93
8, 60048, Note_on_c, 7, 64, 93
8, 60048, Note_on_c, 7, 60, 93
8, 60072, Note_on_c, 7, 60, 0
8, 60072, Note_on_c, 7, 64, 0
8, 60072, Note_on_c, 7, 67, 0
8, 60096, Note_on_c, 7, 60, 93
8, 60096, Note_on_c, 7, 67, 93
8, 60096, Note_on_c, 7, 64, 93
8, 60120, Note_on_c, 7, 64, 0
8, 60120, Note_on_c, 7, 67, 0
8, 60120, Note_on_c, 7, 60, 0
8, 60192, Note_on_c, 7, 67, 93
8, 60192, Note_on_c, 7, 64, 93
8, 60192, Note_on_c, 7, 60, 93
8, 60216, Note_on_c, 7, 60, 0
8, 60216, Note_on_c, 7, 64, 0
8, 60216, Note_on_c, 7, 67, 0
8, 60240, Note_on_c, 7, 67, 93
8, 60240, Note_on_c, 7, 60, 93
8, 60240, Note_on_c, 7, 64, 93
8, 60264, Note_on_c, 7, 64, 0
8, 60264, Note_on_c, 7, 60, 0
8, 60264, Note_on_c, 7, 67, 0
8, 60384, Note_on_c, 7, 60, 93
8, 60384, Note_on_c, 7, 67, 93
8, 60384, Note_on_c, 7, 64, 93
8, 60408, Note_on_c, 7, 64, 0
8, 60408, Note_on_c, 7, 67, 0
8, 60408, Note_on_c, 7, 60, 0
8, 60528, Note_on_c, 7, 60, 93
8, 60528, Note_on_c, 7, 67, 93
8, 60528, Note_on_c, 7, 64, 93
8, 60552, Note_on_c, 7, 64, 0
8, 60552, Note_on_c, 7, 67, 0
8, 60552, Note_on_c, 7, 60, 0
8, 60672, Note_on_c, 7, 66, 93
8, 60672, Note_on_c, 7, 62, 93
8, 60672, Note_on_c, 7, 69, 93
8, 60768, Note_on_c, 7, 69, 0
8, 60768, Note_on_c, 7, 62, 0
8, 60768, Note_on_c, 7, 66, 0
8, 60816, Note_on_c, 7, 69, 93
8, 60816, Note_on_c, 7, 62, 93
8, 60816, Note_on_c, 7, 66, 93
8, 60840, Note_on_c, 7, 66, 0
8, 60840, Note_on_c, 7, 62, 0
8, 60840, Note_on_c, 7, 69, 0
8, 60864, Note_on_c, 7, 69, 93
8, 60864, Note_on_c, 7, 66, 93
8, 60864, Note_on_c, 7, 62, 93
8, 60888, Note_on_c, 7, 62, 0
8, 60888, Note_on_c, 7, 66, 0
8, 60888, Note_on_c, 7, 69, 0
8, 60960, Note_on_c, 7, 66, 93
8, 60960, Note_on_c, 7, 62, 93
8, 60960, Note_on_c, 7, 69, 93
8, 60984, Note_on_c, 7, 69, 0
8, 60984, Note_on_c, 7, 62, 0
8, 60984, Note_on_c, 7, 66, 0
8, 61008, Note_on_c, 7, 66, 93
8, 61008, Note_on_c, 7, 69, 93
8, 61008, Note_on_c, 7, 62, 93
8, 61032, Note_on_c, 7, 62, 0
8, 61032, Note_on_c, 7, 69, 0
8, 61032, Note_on_c, 7, 66, 0
8, 61152, Note_on_c, 7, 66, 93
8, 61152, Note_on_c, 7, 69, 93
8, 61152, Note_on_c, 7, 62, 93
8, 61176, Note_on_c, 7, 62, 0
8, 61176, Note_on_c, 7, 69, 0
8, 61176, Note_on_c, 7, 66, 0
8, 61296, Note_on_c, 7, 69, 93
8, 61296, Note_on_c, 7, 66, 93
8, 61296, Note_on_c, 7, 62, 93
8, 61320, Note_on_c, 7, 62, 0
8, 61320, Note_on_c, 7, 66, 0
8, 61320, Note_on_c, 7, 69, 0
8, 61440, Note_on_c, 7, 59, 93
8, 61440, Note_on_c, 7, 55, 93
8, 61440, Note_on_c, 7, 62, 93
8, 61536, Note_on_c, 7, 62, 0
8, 61536, Note_on_c, 7, 55, 0
8, 61536, Note_on_c, 7, 59, 0
8, 61584, Note_on_c, 7, 55, 93
8, 61584, Note_on_c, 7, 59, 93
8, 61584, Note_on_c, 7, 62, 93
8, 61608, Note_on_c, 7, 62, 0
8, 61608, Note_on_c, 7, 59, 0
8, 61608, Note_on_c, 7, 55, 0
8, 61632, Note_on_c, 7, 59, 93
8, 61632, Note_on_c, 7, 55, 93
8, 61632, Note_on_c, 7, 62, 93
8, 61656, Note_on_c, 7, 62, 0
8, 61656, Note_on_c, 7, 55, 0
8, 61656, Note_on_c, 7, 59, 0
8, 61728, Note_on_c, 7, 59, 93
8, 61728, Note_on_c, 7, 62, 93
8, 61728, Note_on_c, 7, 55, 93
8, 61752, Note_on_c, 7, 55, 0
8, 61752, Note_on_c, 7, 62, 0
8, 61752, Note_on_c, 7, 59, 0
8, 61776, Note_on_c, 7, 55, 93
8, 61776, Note_on_c, 7, 62, 93
8, 61776, Note_on_c, 7, 59, 93
8, 61800, Note_on_c, 7, 59, 0
8, 61800, Note_on_c, 7, 62, 0
8, 61800, Note_on_c, 7, 55, 0
8, 61920, Note_on_c, 7, 59, 93
8, 61920, Note_on_c, 7, 62, 93
8, 61920, Note_on_c, 7, 55, 93
8, 61944, Note_on_c, 7, 55, 0
8, 61944, Note_on_c, 7, 62, 0
8, 61944, Note_on_c, 7, 59, 0
8, 62064, Note_on_c, 7, 55, 93
8, 62064, Note_on_c, 7, 62, 93
8, 62064, Note_on_c, 7, 59, 93
8, 62088, Note_on_c, 7, 59, 0
8, 62088, Note_on_c, 7, 62, 0
8, 62088, Note_on_c, 7, 55, 0
8, 62208, Note_on_c, 7, 62, 93
8, 62208, Note_on_c, 7, 57, 93
8, 62208, Note_on_c, 7, 53, 93
8, 62304, Note_on_c, 7, 53, 0
8, 62304, Note_on_c, 7, 57, 0
8, 62304, Note_on_c, 7, 62, 0
8, 62352, Note_on_c, 7, 57, 93
8, 62352, Note_on_c, 7, 53, 93
8, 62352, Note_on_c, 7, 60, 93
8, 62376, Note_on_c, 7, 60, 0
8, 62376, Note_on_c, 7, 53, 0
8, 62376, Note_on_c, 7, 57, 0
8, 62400, Note_on_c, 7, 57, 93
8, 62400, Note_on_c, 7, 53, 93
8, 62400, Note_on_c, 7, 62, 93
8, 62424, Note_on_c, 7, 62, 0
8, 62424, Note_on_c, 7, 53, 0
8, 62424, Note_on_c, 7, 57, 0
8, 62496, Note_on_c, 7, 62, 93
8, 62496, Note_on_c, 7, 53, 93
8, 62496, Note_on_c, 7, 57, 93
8, 62520, Note_on_c, 7, 57, 0
8, 62520, Note_on_c, 7, 53, 0
8, 62520, Note_on_c, 7, 62, 0
8, 62544, Note_on_c, 7, 53, 93
8, 62544, Note_on_c, 7, 62, 93
8, 62544, Note_on_c, 7, 57, 93
8, 62568, Note_on_c, 7, 57, 0
8, 62568, Note_on_c, 7, 62, 0
8, 62568, Note_on_c, 7, 53, 0
8, 62688, Note_on_c, 7, 53, 93
8, 62688, Note_on_c, 7, 62, 93
8, 62688, Note_on_c, 7, 57, 93
8, 62712, Note_on_c, 7, 57, 0
8, 62712, Note_on_c, 7, 62, 0
8, 62712, Note_on_c, 7, 53, 0
8, 62832, Note_on_c, 7, 53, 93
8, 62832, Note_on_c, 7, 62, 93
8, 62832, Note_on_c, 7, 57, 93
8, 62856, Note_on_c, 7, 57, 0
8, 62856, Note_on_c, 7, 62, 0
8, 62856, Note_on_c, 7, 53, 0
8, 62976, Note_on_c, 7, 67, 93
8, 62976, Note_on_c, 7, 60, 93
8, 62976, Note_on_c, 7, 64, 93
8, 63072, Note_on_c, 7, 64, 0
8, 63072, Note_on_c, 7, 60, 0
8, 63072, Note_on_c, 7, 67, 0
8, 63120, Note_on_c, 7, 67, 93
8, 63120, Note_on_c, 7, 64, 93
8, 63120, Note_on_c, 7, 60, 93
8, 63144, Note_on_c, 7, 60, 0
8, 63144, Note_on_c, 7, 64, 0
8, 63144, Note_on_c, 7, 67, 0
8, 63168, Note_on_c, 7, 60, 93
8, 63168, Note_on_c, 7, 67, 93
8, 63168, Note_on_c, 7, 64, 93
8, 63192, Note_on_c, 7, 64, 0
8, 63192, Note_on_c, 7, 67, 0
8, 63192, Note_on_c, 7, 60, 0
8, 63264, Note_on_c, 7, 67, 93
8, 63264, Note_on_c, 7, 64, 93
8, 63264, Note_on_c, 7, 60, 93
8, 63288, Note_on_c, 7, 60, 0
8, 63288, Note_on_c, 7, 64, 0
8, 63288, Note_on_c, 7, 67, 0
8, 63312, Note_on_c, 7, 67, 93
8, 63312, Note_on_c, 7, 60, 93
8, 63312, Note_on_c, 7, 64, 93
8, 63336, Note_on_c, 7, 64, 0
8, 63336, Note_on_c, 7, 60, 0
8, 63336, Note_on_c, 7, 67, 0
8, 63456, Note_on_c, 7, 60, 93
8, 63456, Note_on_c, 7, 67, 93
8, 63456, Note_on_c, 7, 64, 93
8, 63480, Note_on_c, 7, 64, 0
8, 63480, Note_on_c, 7, 67, 0
8, 63480, Note_on_c, 7, 60, 0
8, 63600, Note_on_c, 7, 60, 93
8, 63600, Note_on_c, 7, 67, 93
8, 63600, Note_on_c, 7, 64, 93
8, 63624, Note_on_c, 7, 64, 0
8, 63624, Note_on_c, 7, 67, 0
8, 63624, Note_on_c, 7, 60, 0
8, 63744, Note_on_c, 7, 66, 93
8, 63744, Note_on_c, 7, 62, 93
8, 63744, Note_on_c, 7, 69, 93
8, 63840, Note_on_c, 7, 69, 0
8, 63840, Note_on_c, 7, 62, 0
8, 63840, Note_on_c, 7, 66, 0
8, 63888, Note_on_c, 7, 69, 93
8, 63888, Note_on_c, 7, 62, 93
8, 63888, Note_on_c, 7, 66, 93
8, 63912, Note_on_c, 7, 66, 0
8, 63912, Note_on_c, 7, 62, 0
8, 63912, Note_on_c, 7, 69, 0
8, 63936, Note_on_c, 7, 69, 93
8, 63936, Note_on_c, 7, 66, 93
8, 63936, Note_on_c, 7, 62, 93
8, 63960, Note_on_c, 7, 62, 0
8, 63960, Note_on_c, 7, 66, 0
8, 63960, Note_on_c, 7, 69, 0
8, 64032, Note_on_c, 7, 66, 93
8, 64032, Note_on_c, 7, 62, 93
8, 64032, Note_on_c, 7, 69, 93
8, 64056, Note_on_c, 7, 69, 0
8, 64056, Note_on_c, 7, 62, 0
8, 64056, Note_on_c, 7, 66, 0
8, 64080, Note_on_c, 7, 66, 93
8, 64080, Note_on_c, 7, 69, 93
8, 64080, Note_on_c, 7, 62, 93
8, 64104, Note_on_c, 7, 62, 0
8, 64104, Note_on_c, 7, 69, 0
8, 64104, Note_on_c, 7, 66, 0
8, 64224, Note_on_c, 7, 66, 93
8, 64224, Note_on_c, 7, 69, 93
8, 64224, Note_on_c, 7, 62, 93
8, 64248, Note_on_c, 7, 62, 0
8, 64248, Note_on_c, 7, 69, 0
8, 64248, Note_on_c, 7, 66, 0
8, 64368, Note_on_c, 7, 69, 93
8, 64368, Note_on_c, 7, 66, 93
8, 64368, Note_on_c, 7, 62, 93
8, 64392, Note_on_c, 7, 62, 0
8, 64392, Note_on_c, 7, 66, 0
8, 64392, Note_on_c, 7, 69, 0
8, 64512, Note_on_c, 7, 59, 93
8, 64512, Note_on_c, 7, 55, 93
8, 64512, Note_on_c, 7, 62, 93
8, 64584, Note_on_c, 7, 62, 0
8, 64584, Note_on_c, 7, 55, 0
8, 64584, Note_on_c, 7, 59, 0
8, 64608, Note_on_c, 7, 59, 93
8, 64608, Note_on_c, 7, 62, 93
8, 64608, Note_on_c, 7, 55, 93
8, 64632, Note_on_c, 7, 55, 0
8, 64632, Note_on_c, 7, 62, 0
8, 64632, Note_on_c, 7, 59, 0
8, 64656, Note_on_c, 7, 59, 93
8, 64656, Note_on_c, 7, 55, 93
8, 64656, Note_on_c, 7, 62, 93
8, 64680, Note_on_c, 7, 62, 0
8, 64680, Note_on_c, 7, 55, 0
8, 64680, Note_on_c, 7, 59, 0
8, 64800, Note_on_c, 7, 62, 93
8, 64800, Note_on_c, 7, 55, 93
8, 64800, Note_on_c, 7, 59, 93
8, 64824, Note_on_c, 7, 59, 0
8, 64824, Note_on_c, 7, 55, 0
8, 64824, Note_on_c, 7, 62, 0
8, 64992, Note_on_c, 7, 62, 93
8, 64992, Note_on_c, 7, 55, 93
8, 64992, Note_on_c, 7, 59, 93
8, 65016, Note_on_c, 7, 59, 0
8, 65016, Note_on_c, 7, 55, 0
8, 65016, Note_on_c, 7, 62, 0
8, 65136, Note_on_c, 7, 62, 93
8, 65136, Note_on_c, 7, 55, 93
8, 65136, Note_on_c, 7, 59, 93
8, 65160, Note_on_c, 7, 59, 0
8, 65160, Note_on_c, 7, 55, 0
8, 65160, Note_on_c, 7, 62, 0
8, 65280, Note_on_c, 7, 59, 93
8, 65280, Note_on_c, 7, 66, 93
8, 65280, Note_on_c, 7, 63, 93
8, 65376, Note_on_c, 7, 63, 0
8, 65376, Note_on_c, 7, 66, 0
8, 65376, Note_on_c, 7, 59, 0
8, 65424, Note_on_c, 7, 63, 93
8, 65424, Note_on_c, 7, 66, 93
8, 65424, Note_on_c, 7, 59, 93
8, 65448, Note_on_c, 7, 59, 0
8, 65448, Note_on_c, 7, 66, 0
8, 65448, Note_on_c, 7, 63, 0
8, 65472, Note_on_c, 7, 59, 93
8, 65472, Note_on_c, 7, 66, 93
8, 65472, Note_on_c, 7, 63, 93
8, 65496, Note_on_c, 7, 63, 0
8, 65496, Note_on_c, 7, 66, 0
8, 65496, Note_on_c, 7, 59, 0
8, 65568, Note_on_c, 7, 63, 93
8, 65568, Note_on_c, 7, 59, 93
8, 65568, Note_on_c, 7, 66, 93
8, 65592, Note_on_c, 7, 66, 0
8, 65592, Note_on_c, 7, 59, 0
8, 65592, Note_on_c, 7, 63, 0
8, 65616, Note_on_c, 7, 63, 93
8, 65616, Note_on_c, 7, 66, 93
8, 65616, Note_on_c, 7, 59, 93
8, 65640, Note_on_c, 7, 59, 0
8, 65640, Note_on_c, 7, 66, 0
8, 65640, Note_on_c, 7, 63, 0
8, 65760, Note_on_c, 7, 63, 93
8, 65760, Note_on_c, 7, 59, 93
8, 65760, Note_on_c, 7, 66, 93
8, 65784, Note_on_c, 7, 66, 0
8, 65784, Note_on_c, 7, 59, 0
8, 65784, Note_on_c, 7, 63, 0
8, 65904, Note_on_c, 7, 63, 93
8, 65904, Note_on_c, 7, 59, 93
8, 65904, Note_on_c, 7, 66, 93
8, 65928, Note_on_c, 7, 66, 0
8, 65928, Note_on_c, 7, 59, 0
8, 65928, Note_on_c, 7, 63, 0
8, 66048, Note_on_c, 7, 64, 93
8, 66048, Note_on_c, 7, 59, 93
8, 66048, Note_on_c, 7, 55, 93
8, 66144, Note_on_c, 7, 55, 0
8, 66144, Note_on_c, 7, 59, 0
8, 66144, Note_on_c, 7, 64, 0
8, 66192, Note_on_c, 7, 59, 93
8, 66192, Note_on_c, 7, 55, 93
8, 66192, Note_on_c, 7, 64, 93
8, 66216, Note_on_c, 7, 64, 0
8, 66216, Note_on_c, 7, 55, 0
8, 66216, Note_on_c, 7, 59, 0
8, 66240, Note_on_c, 7, 55, 93
8, 66240, Note_on_c, 7, 59, 93
8, 66240, Note_on_c, 7, 64, 93
8, 66264, Note_on_c, 7, 64, 0
8, 66264, Note_on_c, 7, 59, 0
8, 66264, Note_on_c, 7, 55, 0
8, 66336, Note_on_c, 7, 55, 93
8, 66336, Note_on_c, 7, 59, 93
8, 66336, Note_on_c, 7, 64, 93
8, 66360, Note_on_c, 7, 64, 0
8, 66360, Note_on_c, 7, 59, 0
8, 66360, Note_on_c, 7, 55, 0
8, 66384, Note_on_c, 7, 59, 93
8, 66384, Note_on_c, 7, 55, 93
8, 66384, Note_on_c, 7, 64, 93
8, 66408, Note_on_c, 7, 64, 0
8, 66408, Note_on_c, 7, 55, 0
8, 66408, Note_on_c, 7, 59, 0
8, 66528, Note_on_c, 7, 64, 93
8, 66528, Note_on_c, 7, 59, 93
8, 66528, Note_on_c, 7, 55, 93
8, 66552, Note_on_c, 7, 55, 0
8, 66552, Note_on_c, 7, 59, 0
8, 66552, Note_on_c, 7, 64, 0
8, 66672, Note_on_c, 7, 55, 93
8, 66672, Note_on_c, 7, 64, 93
8, 66672, Note_on_c, 7, 59, 93
8, 66696, Note_on_c, 7, 59, 0
8, 66696, Note_on_c, 7, 64, 0
8, 66696, Note_on_c, 7, 55, 0
8, 66816, Note_on_c, 7, 67, 93
8, 66816, Note_on_c, 7, 64, 93
8, 66816, Note_on_c, 7, 60, 93
8, 66912, Note_on_c, 7, 60, 0
8, 66912, Note_on_c, 7, 64, 0
8, 66912, Note_on_c, 7, 67, 0
8, 66960, Note_on_c, 7, 64, 93
8, 66960, Note_on_c, 7, 60, 93
8, 66960, Note_on_c, 7, 67, 93
8, 66984, Note_on_c, 7, 67, 0
8, 66984, Note_on_c, 7, 60, 0
8, 66984, Note_on_c, 7, 64, 0
8, 67008, Note_on_c, 7, 64, 93
8, 67008, Note_on_c, 7, 67, 93
8, 67008, Note_on_c, 7, 60, 93
8, 67032, Note_on_c, 7, 60, 0
8, 67032, Note_on_c, 7, 67, 0
8, 67032, Note_on_c, 7, 64, 0
8, 67104, Note_on_c, 7, 67, 93
8, 67104, Note_on_c, 7, 64, 93
8, 67104, Note_on_c, 7, 60, 93
8, 67128, Note_on_c, 7, 60, 0
8, 67128, Note_on_c, 7, 64, 0
8, 67128, Note_on_c, 7, 67, 0
8, 67152, Note_on_c, 7, 64, 93
8, 67152, Note_on_c, 7, 60, 93
8, 67152, Note_on_c, 7, 67, 93
8, 67176, Note_on_c, 7, 67, 0
8, 67176, Note_on_c, 7, 60, 0
8, 67176, Note_on_c, 7, 64, 0
8, 67296, Note_on_c, 7, 67, 93
8, 67296, Note_on_c, 7, 60, 93
8, 67296, Note_on_c, 7, 64, 93
8, 67320, Note_on_c, 7, 64, 0
8, 67320, Note_on_c, 7, 60, 0
8, 67320, Note_on_c, 7, 67, 0
8, 67440, Note_on_c, 7, 64, 93
8, 67440, Note_on_c, 7, 67, 93
8, 67440, Note_on_c, 7, 60, 93
8, 67464, Note_on_c, 7, 60, 0
8, 67464, Note_on_c, 7, 67, 0
8, 67464, Note_on_c, 7, 64, 0
8, 67584, Note_on_c, 7, 59, 93
8, 67584, Note_on_c, 7, 55, 93
8, 67584, Note_on_c, 7, 62, 93
8, 67656, Note_on_c, 7, 62, 0
8, 67656, Note_on_c, 7, 55, 0
8, 67656, Note_on_c, 7, 59, 0
8, 67680, Note_on_c, 7, 59, 93
8, 67680, Note_on_c, 7, 62, 93
8, 67680, Note_on_c, 7, 55, 93
8, 67704, Note_on_c, 7, 55, 0
8, 67704, Note_on_c, 7, 62, 0
8, 67704, Note_on_c, 7, 59, 0
8, 67728, Note_on_c, 7, 59, 93
8, 67728, Note_on_c, 7, 55, 93
8, 67728, Note_on_c, 7, 62, 93
8, 67752, Note_on_c, 7, 62, 0
8, 67752, Note_on_c, 7, 55, 0
8, 67752, Note_on_c, 7, 59, 0
8, 67872, Note_on_c, 7, 62, 93
8, 67872, Note_on_c, 7, 55, 93
8, 67872, Note_on_c, 7, 59, 93
8, 67896, Note_on_c, 7, 59, 0
8, 67896, Note_on_c, 7, 55, 0
8, 67896, Note_on_c, 7, 62, 0
8, 68064, Note_on_c, 7, 62, 93
8, 68064, Note_on_c, 7, 55, 93
8, 68064, Note_on_c, 7, 59, 93
8, 68088, Note_on_c, 7, 59, 0
8, 68088, Note_on_c, 7, 55, 0
8, 68088, Note_on_c, 7, 62, 0
8, 68208, Note_on_c, 7, 62, 93
8, 68208, Note_on_c, 7, 55, 93
8, 68208, Note_on_c, 7, 59, 93
8, 68232, Note_on_c, 7, 59, 0
8, 68232, Note_on_c, 7, 55, 0
8, 68232, Note_on_c, 7, 62, 0
8, 68352, Note_on_c, 7, 59, 93
8, 68352, Note_on_c, 7, 66, 93
8, 68352, Note_on_c, 7, 63, 93
8, 68448, Note_on_c, 7, 63, 0
8, 68448, Note_on_c, 7, 66, 0
8, 68448, Note_on_c, 7, 59, 0
8, 68496, Note_on_c, 7, 63, 93
8, 68496, Note_on_c, 7, 66, 93
8, 68496, Note_on_c, 7, 59, 93
8, 68520, Note_on_c, 7, 59, 0
8, 68520, Note_on_c, 7, 66, 0
8, 68520, Note_on_c, 7, 63, 0
8, 68544, Note_on_c, 7, 59, 93
8, 68544, Note_on_c, 7, 66, 93
8, 68544, Note_on_c, 7, 63, 93
8, 68568, Note_on_c, 7, 63, 0
8, 68568, Note_on_c, 7, 66, 0
8, 68568, Note_on_c, 7, 59, 0
8, 68640, Note_on_c, 7, 63, 93
8, 68640, Note_on_c, 7, 59, 93
8, 68640, Note_on_c, 7, 66, 93
8, 68664, Note_on_c, 7, 66, 0
8, 68664, Note_on_c, 7, 59, 0
8, 68664, Note_on_c, 7, 63, 0
8, 68688, Note_on_c, 7, 63, 93
8, 68688, Note_on_c, 7, 66, 93
8, 68688, Note_on_c, 7, 59, 93
8, 68712, Note_on_c, 7, 59, 0
8, 68712, Note_on_c, 7, 66, 0
8, 68712, Note_on_c, 7, 63, 0
8, 68832, Note_on_c, 7, 63, 93
8, 68832, Note_on_c, 7, 59, 93
8, 68832, Note_on_c, 7, 66, 93
8, 68856, Note_on_c, 7, 66, 0
8, 68856, Note_on_c, 7, 59, 0
8, 68856, Note_on_c, 7, 63, 0
8, 68976, Note_on_c, 7, 63, 93
8, 68976, Note_on_c, 7, 59, 93
8, 68976, Note_on_c, 7, 66, 93
8, 69000, Note_on_c, 7, 66, 0
8, 69000, Note_on_c, 7, 59, 0
8, 69000, Note_on_c, 7, 63, 0
8, 69120, Note_on_c, 7, 64, 93
8, 69120, Note_on_c, 7, 59, 93
8, 69120, Note_on_c, 7, 55, 93
8, 69216, Note_on_c, 7, 55, 0
8, 69216, Note_on_c, 7, 59, 0
8, 69216, Note_on_c, 7, 64, 0
8, 69264, Note_on_c, 7, 59, 93
8, 69264, Note_on_c, 7, 55, 93
8, 69264, Note_on_c, 7, 64, 93
8, 69288, Note_on_c, 7, 64, 0
8, 69288, Note_on_c, 7, 55, 0
8, 69288, Note_on_c, 7, 59, 0
8, 69312, Note_on_c, 7, 55, 93
8, 69312, Note_on_c, 7, 59, 93
8, 69312, Note_on_c, 7, 64, 93
8, 69336, Note_on_c, 7, 64, 0
8, 69336, Note_on_c, 7, 59, 0
8, 69336, Note_on_c, 7, 55, 0
8, 69408, Note_on_c, 7, 55, 93
8, 69408, Note_on_c, 7, 59, 93
8, 69408, Note_on_c, 7, 64, 93
8, 69432, Note_on_c, 7, 64, 0
8, 69432, Note_on_c, 7, 59, 0
8, 69432, Note_on_c, 7, 55, 0
8, 69456, Note_on_c, 7, 59, 93
8, 69456, Note_on_c, 7, 55, 93
8, 69456, Note_on_c, 7, 64, 93
8, 69480, Note_on_c, 7, 64, 0
8, 69480, Note_on_c, 7, 55, 0
8, 69480, Note_on_c, 7, 59, 0
8, 69600, Note_on_c, 7, 64, 93
8, 69600, Note_on_c, 7, 59, 93
8, 69600, Note_on_c, 7, 55, 93
8, 69696, Note_on_c, 7, 55, 0
8, 69696, Note_on_c, 7, 59, 0
8, 69696, Note_on_c, 7, 64, 0
8, 69744, Note_on_c, 7, 55, 93
8, 69744, Note_on_c, 7, 64, 93
8, 69744, Note_on_c, 7, 59, 93
8, 69840, Note_on_c, 7, 59, 0
8, 69840, Note_on_c, 7, 64, 0
8, 69840, Note_on_c, 7, 55, 0
8, 69888, Note_on_c, 7, 52, 78
8, 69912, Note_on_c, 7, 52, 0
8, 69936, Note_on_c, 7, 64, 78
8, 69960, Note_on_c, 7, 64, 0
8, 69984, Note_on_c, 7, 64, 78
8, 70008, Note_on_c, 7, 64, 0
8, 70032, Note_on_c, 7, 52, 78
8, 70056, Note_on_c, 7, 52, 0
8, 70080, Note_on_c, 7, 64, 78
8, 70104, Note_on_c, 7, 64, 0
8, 70128, Note_on_c, 7, 64, 78
8, 70152, Note_on_c, 7, 64, 0
8, 70176, Note_on_c, 7, 52, 78
8, 70200, Note_on_c, 7, 52, 0
8, 70224, Note_on_c, 7, 64, 78
8, 70248, Note_on_c, 7, 64, 0
8, 70272, Note_on_c, 7, 52, 78
8, 70296, Note_on_c, 7, 52, 0
8, 70320, Note_on_c, 7, 64, 78
8, 70344, Note_on_c, 7, 64, 0
8, 70368, Note_on_c, 7, 64, 78
8, 70392, Note_on_c, 7, 64, 0
8, 70416, Note_on_c, 7, 52, 78
8, 70440, Note_on_c, 7, 52, 0
8, 70464, Note_on_c, 7, 64, 78
8, 70488, Note_on_c, 7, 64, 0
8, 70512, Note_on_c, 7, 52, 78
8, 70536, Note_on_c, 7, 52, 0
8, 70560, Note_on_c, 7, 64, 78
8, 70584, Note_on_c, 7, 64, 0
8, 70608, Note_on_c, 7, 64, 78
8, 70632, Note_on_c, 7, 64, 0
8, 70656, Note_on_c, 7, 45, 78
8, 70680, Note_on_c, 7, 45, 0
8, 70704, Note_on_c, 7, 57, 78
8, 70728, Note_on_c, 7, 57, 0
8, 70752, Note_on_c, 7, 57, 78
8, 70776, Note_on_c, 7, 57, 0
8, 70800, Note_on_c, 7, 45, 78
8, 70824, Note_on_c, 7, 45, 0
8, 70848, Note_on_c, 7, 57, 78
8, 70872, Note_on_c, 7, 57, 0
8, 70896, Note_on_c, 7, 45, 78
8, 70920, Note_on_c, 7, 45, 0
8, 70944, Note_on_c, 7, 57, 78
8, 70968, Note_on_c, 7, 57, 0
8, 70992, Note_on_c, 7, 57, 78
8, 71016, Note_on_c, 7, 57, 0
8, 71040, Note_on_c, 7, 45, 78
8, 71064, Note_on_c, 7, 45, 0
8, 71088, Note_on_c, 7, 57, 78
8, 71112, Note_on_c, 7, 57, 0
8, 71136, Note_on_c, 7, 57, 78
8, 71160, Note_on_c, 7, 57, 0
8, 71184, Note_on_c, 7, 45, 78
8, 71208, Note_on_c, 7, 45, 0
8, 71232, Note_on_c, 7, 57, 78
8, 71256, Note_on_c, 7, 57, 0
8, 71280, Note_on_c, 7, 45, 78
8, 71304, Note_on_c, 7, 45, 0
8, 71328, Note_on_c, 7, 57, 78
8, 71352, Note_on_c, 7, 57, 0
8, 71376, Note_on_c, 7, 57, 78
8, 71400, Note_on_c, 7, 57, 0
8, 71424, Note_on_c, 7, 47, 78
8, 71448, Note_on_c, 7, 47, 0
8, 71472, Note_on_c, 7, 59, 78
8, 71496, Note_on_c, 7, 59, 0
8, 71520, Note_on_c, 7, 59, 78
8, 71544, Note_on_c, 7, 59, 0
8, 71568, Note_on_c, 7, 47, 78
8, 71592, Note_on_c, 7, 47, 0
8, 71616, Note_on_c, 7, 59, 78
8, 71640, Note_on_c, 7, 59, 0
8, 71664, Note_on_c, 7, 47, 78
8, 71688, Note_on_c, 7, 47, 0
8, 71712, Note_on_c, 7, 59, 78
8, 71736, Note_on_c, 7, 59, 0
8, 71760, Note_on_c, 7, 59, 78
8, 71784, Note_on_c, 7, 59, 0
8, 71808, Note_on_c, 7, 47, 78
8, 71832, Note_on_c, 7, 47, 0
8, 71856, Note_on_c, 7, 59, 78
8, 71880, Note_on_c, 7, 59, 0
8, 71904, Note_on_c, 7, 59, 78
8, 71928, Note_on_c, 7, 59, 0
8, 71952, Note_on_c, 7, 47, 78
8, 71976, Note_on_c, 7, 47, 0
8, 72000, Note_on_c, 7, 59, 78
8, 72024, Note_on_c, 7, 59, 0
8, 72048, Note_on_c, 7, 47, 78
8, 72072, Note_on_c, 7, 47, 0
8, 72096, Note_on_c, 7, 59, 78
8, 72120, Note_on_c, 7, 59, 0
8, 72144, Note_on_c, 7, 59, 78
8, 72168, Note_on_c, 7, 59, 0
8, 72192, Note_on_c, 7, 52, 78
8, 72216, Note_on_c, 7, 52, 0
8, 72240, Note_on_c, 7, 64, 78
8, 72264, Note_on_c, 7, 64, 0
8, 72288, Note_on_c, 7, 64, 78
8, 72312, Note_on_c, 7, 64, 0
8, 72336, Note_on_c, 7, 52, 78
8, 72360, Note_on_c, 7, 52, 0
8, 72384, Note_on_c, 7, 64, 78
8, 72408, Note_on_c, 7, 64, 0
8, 72432, Note_on_c, 7, 52, 78
8, 72456, Note_on_c, 7, 52, 0
8, 72480, Note_on_c, 7, 64, 78
8, 72504, Note_on_c, 7, 64, 0
8, 72528, Note_on_c, 7, 64, 78
8, 72552, Note_on_c, 7, 64, 0
8, 72576, Note_on_c, 7, 52, 78
8, 72600, Note_on_c, 7, 52, 0
8, 72624, Note_on_c, 7, 64, 78
8, 72648, Note_on_c, 7, 64, 0
8, 72672, Note_on_c, 7, 64, 78
8, 72696, Note_on_c, 7, 64, 0
8, 72720, Note_on_c, 7, 52, 78
8, 72744, Note_on_c, 7, 52, 0
8, 72768, Note_on_c, 7, 64, 78
8, 72792, Note_on_c, 7, 64, 0
8, 72816, Note_on_c, 7, 52, 78
8, 72840, Note_on_c, 7, 52, 0
8, 72864, Note_on_c, 7, 64, 78
8, 72888, Note_on_c, 7, 64, 0
8, 72912, Note_on_c, 7, 64, 78
8, 72936, Note_on_c, 7, 64, 0
8, 72960, Note_on_c, 7, 48, 78
8, 72984, Note_on_c, 7, 48, 0
8, 73008, Note_on_c, 7, 60, 78
8, 73032, Note_on_c, 7, 60, 0
8, 73056, Note_on_c, 7, 60, 78
8, 73080, Note_on_c, 7, 60, 0
8, 73104, Note_on_c, 7, 48, 78
8, 73128, Note_on_c, 7, 48, 0
8, 73152, Note_on_c, 7, 60, 78
8, 73176, Note_on_c, 7, 60, 0
8, 73200, Note_on_c, 7, 48, 78
8, 73224, Note_on_c, 7, 48, 0
8, 73248, Note_on_c, 7, 60, 78
8, 73272, Note_on_c, 7, 60, 0
8, 73296, Note_on_c, 7, 60, 78
8, 73320, Note_on_c, 7, 60, 0
8, 73344, Note_on_c, 7, 48, 78
8, 73368, Note_on_c, 7, 48, 0
8, 73392, Note_on_c, 7, 60, 78
8, 73416, Note_on_c, 7, 60, 0
8, 73440, Note_on_c, 7, 60, 78
8, 73464, Note_on_c, 7, 60, 0
8, 73488, Note_on_c, 7, 48, 78
8, 73512, Note_on_c, 7, 48, 0
8, 73536, Note_on_c, 7, 60, 78
8, 73560, Note_on_c, 7, 60, 0
8, 73584, Note_on_c, 7, 48, 78
8, 73608, Note_on_c, 7, 48, 0
8, 73632, Note_on_c, 7, 60, 78
8, 73656, Note_on_c, 7, 60, 0
8, 73680, Note_on_c, 7, 60, 78
8, 73704, Note_on_c, 7, 60, 0
8, 73728, Note_on_c, 7, 45, 78
8, 73752, Note_on_c, 7, 45, 0
8, 73776, Note_on_c, 7, 57, 78
8, 73800, Note_on_c, 7, 57, 0
8, 73824, Note_on_c, 7, 57, 78
8, 73848, Note_on_c, 7, 57, 0
8, 73872, Note_on_c, 7, 45, 78
8, 73896, Note_on_c, 7, 45, 0
8, 73920, Note_on_c, 7, 57, 78
8, 73944, Note_on_c, 7, 57, 0
8, 73968, Note_on_c, 7, 45, 78
8, 73992, Note_on_c, 7, 45, 0
8, 74016, Note_on_c, 7, 57, 78
8, 74040, Note_on_c, 7, 57, 0
8, 74064, Note_on_c, 7, 57, 78
8, 74088, Note_on_c, 7, 57, 0
8, 74112, Note_on_c, 7, 45, 78
8, 74136, Note_on_c, 7, 45, 0
8, 74160, Note_on_c, 7, 57, 78
8, 74184, Note_on_c, 7, 57, 0
8, 74208, Note_on_c, 7, 57, 78
8, 74232, Note_on_c, 7, 57, 0
8, 74256, Note_on_c, 7, 45, 78
8, 74280, Note_on_c, 7, 45, 0
8, 74304, Note_on_c, 7, 57, 78
8, 74328, Note_on_c, 7, 57, 0
8, 74352, Note_on_c, 7, 45, 78
8, 74376, Note_on_c, 7, 45, 0
8, 74400, Note_on_c, 7, 57, 78
8, 74424, Note_on_c, 7, 57, 0
8, 74448, Note_on_c, 7, 57, 78
8, 74472, Note_on_c, 7, 57, 0
8, 74496, Note_on_c, 7, 47, 78
8, 74520, Note_on_c, 7, 47, 0
8, 74544, Note_on_c, 7, 59, 78
8, 74568, Note_on_c, 7, 59, 0
8, 74592, Note_on_c, 7, 59, 78
8, 74616, Note_on_c, 7, 59, 0
8, 74640, Note_on_c, 7, 47, 78
8, 74664, Note_on_c, 7, 47, 0
8, 74688, Note_on_c, 7, 59, 78
8, 74712, Note_on_c, 7, 59, 0
8, 74736, Note_on_c, 7, 47, 78
8, 74760, Note_on_c, 7, 47, 0
8, 74784, Note_on_c, 7, 59, 78
8, 74808, Note_on_c, 7, 59, 0
8, 74832, Note_on_c, 7, 59, 78
8, 74856, Note_on_c, 7, 59, 0
8, 74880, Note_on_c, 7, 47, 78
8, 74904, Note_on_c, 7, 47, 0
8, 74928, Note_on_c, 7, 59, 78
8, 74952, Note_on_c, 7, 59, 0
8, 74976, Note_on_c, 7, 59, 78
8, 75000, Note_on_c, 7, 59, 0
8, 75024, Note_on_c, 7, 47, 78
8, 75048, Note_on_c, 7, 47, 0
8, 75072, Note_on_c, 7, 59, 78
8, 75096, Note_on_c, 7, 59, 0
8, 75120, Note_on_c, 7, 47, 78
8, 75144, Note_on_c, 7, 47, 0
8, 75168, Note_on_c, 7, 59, 78
8, 75192, Note_on_c, 7, 59, 0
8, 75216, Note_on_c, 7, 59, 78
8, 75240, Note_on_c, 7, 59, 0
8, 75264, Note_on_c, 7, 52, 78
8, 75288, Note_on_c, 7, 52, 0
8, 75312, Note_on_c, 7, 64, 78
8, 75336, Note_on_c, 7, 64, 0
8, 75360, Note_on_c, 7, 64, 78
8, 75384, Note_on_c, 7, 64, 0
8, 75408, Note_on_c, 7, 52, 78
8, 75432, Note_on_c, 7, 52, 0
8, 75456, Note_on_c, 7, 64, 78
8, 75480, Note_on_c, 7, 64, 0
8, 75504, Note_on_c, 7, 52, 78
8, 75528, Note_on_c, 7, 52, 0
8, 75552, Note_on_c, 7, 64, 78
8, 75576, Note_on_c, 7, 64, 0
8, 75600, Note_on_c, 7, 64, 78
8, 75624, Note_on_c, 7, 64, 0
8, 75648, Note_on_c, 7, 52, 78
8, 75672, Note_on_c, 7, 52, 0
8, 75696, Note_on_c, 7, 64, 78
8, 75720, Note_on_c, 7, 64, 0
8, 75744, Note_on_c, 7, 64, 78
8, 75768, Note_on_c, 7, 64, 0
8, 75792, Note_on_c, 7, 52, 78
8, 75816, Note_on_c, 7, 52, 0
8, 75840, Note_on_c, 7, 64, 78
8, 75864, Note_on_c, 7, 64, 0
8, 75888, Note_on_c, 7, 52, 78
8, 75912, Note_on_c, 7, 52, 0
8, 75936, Note_on_c, 7, 64, 78
8, 75960, Note_on_c, 7, 64, 0
8, 75984, Note_on_c, 7, 64, 78
8, 76008, Note_on_c, 7, 64, 0
8, 76032, Note_on_c, 7, 52, 78
8, 76056, Note_on_c, 7, 52, 0
8, 76080, Note_on_c, 7, 64, 78
8, 76104, Note_on_c, 7, 64, 0
8, 76128, Note_on_c, 7, 64, 78
8, 76152, Note_on_c, 7, 64, 0
8, 76176, Note_on_c, 7, 52, 78
8, 76200, Note_on_c, 7, 52, 0
8, 76224, Note_on_c, 7, 64, 78
8, 76248, Note_on_c, 7, 64, 0
8, 76272, Note_on_c, 7, 64, 78
8, 76296, Note_on_c, 7, 64, 0
8, 76320, Note_on_c, 7, 52, 78
8, 76344, Note_on_c, 7, 52, 0
8, 76368, Note_on_c, 7, 64, 78
8, 76392, Note_on_c, 7, 64, 0
8, 76416, Note_on_c, 7, 52, 78
8, 76440, Note_on_c, 7, 52, 0
8, 76464, Note_on_c, 7, 64, 78
8, 76488, Note_on_c, 7, 64, 0
8, 76512, Note_on_c, 7, 64, 78
8, 76536, Note_on_c, 7, 64, 0
8, 76560, Note_on_c, 7, 52, 78
8, 76584, Note_on_c, 7, 52, 0
8, 76608, Note_on_c, 7, 64, 78
8, 76632, Note_on_c, 7, 64, 0
8, 76656, Note_on_c, 7, 52, 78
8, 76680, Note_on_c, 7, 52, 0
8, 76704, Note_on_c, 7, 64, 78
8, 76728, Note_on_c, 7, 64, 0
8, 76752, Note_on_c, 7, 64, 78
8, 76776, Note_on_c, 7, 64, 0
8, 76800, Note_on_c, 7, 45, 78
8, 76824, Note_on_c, 7, 45, 0
8, 76848, Note_on_c, 7, 57, 78
8, 76872, Note_on_c, 7, 57, 0
8, 76896, Note_on_c, 7, 57, 78
8, 76920, Note_on_c, 7, 57, 0
8, 76944, Note_on_c, 7, 45, 78
8, 76968, Note_on_c, 7, 45, 0
8, 76992, Note_on_c, 7, 57, 78
8, 77016, Note_on_c, 7, 57, 0
8, 77040, Note_on_c, 7, 45, 78
8, 77064, Note_on_c, 7, 45, 0
8, 77088, Note_on_c, 7, 57, 78
8, 77112, Note_on_c, 7, 57, 0
8, 77136, Note_on_c, 7, 57, 78
8, 77160, Note_on_c, 7, 57, 0
8, 77184, Note_on_c, 7, 45, 78
8, 77208, Note_on_c, 7, 45, 0
8, 77232, Note_on_c, 7, 57, 78
8, 77256, Note_on_c, 7, 57, 0
8, 77280, Note_on_c, 7, 57, 78
8, 77304, Note_on_c, 7, 57, 0
8, 77328, Note_on_c, 7, 45, 78
8, 77352, Note_on_c, 7, 45, 0
8, 77376, Note_on_c, 7, 57, 78
8, 77400, Note_on_c, 7, 57, 0
8, 77424, Note_on_c, 7, 45, 78
8, 77448, Note_on_c, 7, 45, 0
8, 77472, Note_on_c, 7, 57, 78
8, 77496, Note_on_c, 7, 57, 0
8, 77520, Note_on_c, 7, 57, 78
8, 77544, Note_on_c, 7, 57, 0
8, 77568, Note_on_c, 7, 47, 78
8, 77592, Note_on_c, 7, 47, 0
8, 77616, Note_on_c, 7, 59, 78
8, 77640, Note_on_c, 7, 59, 0
8, 77664, Note_on_c, 7, 59, 78
8, 77688, Note_on_c, 7, 59, 0
8, 77712, Note_on_c, 7, 47, 78
8, 77736, Note_on_c, 7, 47, 0
8, 77760, Note_on_c, 7, 59, 78
8, 77784, Note_on_c, 7, 59, 0
8, 77808, Note_on_c, 7, 47, 78
8, 77832, Note_on_c, 7, 47, 0
8, 77856, Note_on_c, 7, 59, 78
8, 77880, Note_on_c, 7, 59, 0
8, 77904, Note_on_c, 7, 59, 78
8, 77928, Note_on_c, 7, 59, 0
8, 77952, Note_on_c, 7, 47, 78
8, 77976, Note_on_c, 7, 47, 0
8, 78000, Note_on_c, 7, 59, 78
8, 78024, Note_on_c, 7, 59, 0
8, 78048, Note_on_c, 7, 59, 78
8, 78072, Note_on_c, 7, 59, 0
8, 78096, Note_on_c, 7, 47, 78
8, 78120, Note_on_c, 7, 47, 0
8, 78144, Note_on_c, 7, 59, 78
8, 78168, Note_on_c, 7, 59, 0
8, 78192, Note_on_c, 7, 47, 78
8, 78216, Note_on_c, 7, 47, 0
8, 78240, Note_on_c, 7, 59, 78
8, 78264, Note_on_c, 7, 59, 0
8, 78288, Note_on_c, 7, 59, 78
8, 78312, Note_on_c, 7, 59, 0
8, 78336, Note_on_c, 7, 52, 78
8, 78360, Note_on_c, 7, 52, 0
8, 78384, Note_on_c, 7, 64, 78
8, 78408, Note_on_c, 7, 64, 0
8, 78432, Note_on_c, 7, 64, 78
8, 78456, Note_on_c, 7, 64, 0
8, 78480, Note_on_c, 7, 52, 78
8, 78504, Note_on_c, 7, 52, 0
8, 78528, Note_on_c, 7, 64, 78
8, 78552, Note_on_c, 7, 64, 0
8, 78576, Note_on_c, 7, 52, 78
8, 78600, Note_on_c, 7, 52, 0
8, 78624, Note_on_c, 7, 64, 78
8, 78648, Note_on_c, 7, 64, 0
8, 78672, Note_on_c, 7, 64, 78
8, 78696, Note_on_c, 7, 64, 0
8, 78720, Note_on_c, 7, 52, 78
8, 78744, Note_on_c, 7, 52, 0
8, 78768, Note_on_c, 7, 64, 78
8, 78792, Note_on_c, 7, 64, 0
8, 78816, Note_on_c, 7, 64, 78
8, 78840, Note_on_c, 7, 64, 0
8, 78864, Note_on_c, 7, 52, 78
8, 78888, Note_on_c, 7, 52, 0
8, 78912, Note_on_c, 7, 64, 78
8, 78936, Note_on_c, 7, 64, 0
8, 78960, Note_on_c, 7, 52, 78
8, 78984, Note_on_c, 7, 52, 0
8, 79008, Note_on_c, 7, 64, 78
8, 79032, Note_on_c, 7, 64, 0
8, 79056, Note_on_c, 7, 64, 78
8, 79080, Note_on_c, 7, 64, 0
8, 79104, Note_on_c, 7, 48, 78
8, 79128, Note_on_c, 7, 48, 0
8, 79152, Note_on_c, 7, 60, 78
8, 79176, Note_on_c, 7, 60, 0
8, 79200, Note_on_c, 7, 60, 78
8, 79224, Note_on_c, 7, 60, 0
8, 79248, Note_on_c, 7, 48, 78
8, 79272, Note_on_c, 7, 48, 0
8, 79296, Note_on_c, 7, 60, 78
8, 79320, Note_on_c, 7, 60, 0
8, 79344, Note_on_c, 7, 48, 78
8, 79368, Note_on_c, 7, 48, 0
8, 79392, Note_on_c, 7, 60, 78
8, 79416, Note_on_c, 7, 60, 0
8, 79440, Note_on_c, 7, 60, 78
8, 79464, Note_on_c, 7, 60, 0
8, 79488, Note_on_c, 7, 48, 78
8, 79512, Note_on_c, 7, 48, 0
8, 79536, Note_on_c, 7, 60, 78
8, 79560, Note_on_c, 7, 60, 0
8, 79584, Note_on_c, 7, 60, 78
8, 79608, Note_on_c, 7, 60, 0
8, 79632, Note_on_c, 7, 48, 78
8, 79656, Note_on_c, 7, 48, 0
8, 79680, Note_on_c, 7, 60, 78
8, 79704, Note_on_c, 7, 60, 0
8, 79728, Note_on_c, 7, 48, 78
8, 79752, Note_on_c, 7, 48, 0
8, 79776, Note_on_c, 7, 60, 78
8, 79800, Note_on_c, 7, 60, 0
8, 79824, Note_on_c, 7, 60, 78
8, 79848, Note_on_c, 7, 60, 0
8, 79872, Note_on_c, 7, 45, 78
8, 79896, Note_on_c, 7, 45, 0
8, 79920, Note_on_c, 7, 57, 78
8, 79944, Note_on_c, 7, 57, 0
8, 79968, Note_on_c, 7, 57, 78
8, 79992, Note_on_c, 7, 57, 0
8, 80016, Note_on_c, 7, 45, 78
8, 80040, Note_on_c, 7, 45, 0
8, 80064, Note_on_c, 7, 57, 78
8, 80088, Note_on_c, 7, 57, 0
8, 80112, Note_on_c, 7, 45, 78
8, 80136, Note_on_c, 7, 45, 0
8, 80160, Note_on_c, 7, 57, 78
8, 80184, Note_on_c, 7, 57, 0
8, 80208, Note_on_c, 7, 57, 78
8, 80232, Note_on_c, 7, 57, 0
8, 80256, Note_on_c, 7, 45, 78
8, 80280, Note_on_c, 7, 45, 0
8, 80304, Note_on_c, 7, 57, 78
8, 80328, Note_on_c, 7, 57, 0
8, 80352, Note_on_c, 7, 57, 78
8, 80376, Note_on_c, 7, 57, 0
8, 80400, Note_on_c, 7, 45, 78
8, 80424, Note_on_c, 7, 45, 0
8, 80448, Note_on_c, 7, 57, 78
8, 80472, Note_on_c, 7, 57, 0
8, 80496, Note_on_c, 7, 45, 78
8, 80520, Note_on_c, 7, 45, 0
8, 80544, Note_on_c, 7, 57, 78
8, 80568, Note_on_c, 7, 57, 0
8, 80592, Note_on_c, 7, 57, 78
8, 80616, Note_on_c, 7, 57, 0
8, 80640, Note_on_c, 7, 47, 78
8, 80664, Note_on_c, 7, 47, 0
8, 80688, Note_on_c, 7, 59, 78
8, 80712, Note_on_c, 7, 59, 0
8, 80736, Note_on_c, 7, 59, 78
8, 80760, Note_on_c, 7, 59, 0
8, 80784, Note_on_c, 7, 47, 78
8, 80808, Note_on_c, 7, 47, 0
8, 80832, Note_on_c, 7, 59, 78
8, 80856, Note_on_c, 7, 59, 0
8, 80880, Note_on_c, 7, 47, 78
8, 80904, Note_on_c, 7, 47, 0
8, 80928, Note_on_c, 7, 59, 78
8, 80952, Note_on_c, 7, 59, 0
8, 80976, Note_on_c, 7, 59, 78
8, 81000, Note_on_c, 7, 59, 0
8, 81024, Note_on_c, 7, 47, 78
8, 81048, Note_on_c, 7, 47, 0
8, 81072, Note_on_c, 7, 59, 78
8, 81096, Note_on_c, 7, 59, 0
8, 81120, Note_on_c, 7, 59, 78
8, 81144, Note_on_c, 7, 59, 0
8, 81168, Note_on_c, 7, 47, 78
8, 81192, Note_on_c, 7, 47, 0
8, 81216, Note_on_c, 7, 59, 78
8, 81240, Note_on_c, 7, 59, 0
8, 81264, Note_on_c, 7, 47, 78
8, 81288, Note_on_c, 7, 47, 0
8, 81312, Note_on_c, 7, 59, 78
8, 81336, Note_on_c, 7, 59, 0
8, 81352, Control_c, 7, 91, 122
8, 81360, Note_on_c, 7, 59, 78
8, 81384, Note_on_c, 7, 59, 0
8, 81408, Note_on_c, 7, 68, 114
8, 81408, Note_on_c, 7, 71, 114
8, 81648, Note_on_c, 7, 71, 0
8, 81648, Note_on_c, 7, 68, 0
8, 81688, Note_on_c, 7, 69, 114
8, 81688, Note_on_c, 7, 66, 114
8, 82048, Note_on_c, 7, 66, 0
8, 82048, Note_on_c, 7, 69, 0
8, 82088, Note_on_c, 7, 64, 114
8, 82088, Note_on_c, 7, 67, 114
8, 82880, Note_on_c, 7, 67, 0
8, 82880, Note_on_c, 7, 64, 0
8, 82936, Note_on_c, 7, 71, 114
8, 82936, Note_on_c, 7, 68, 114
8, 83184, Note_on_c, 7, 68, 0
8, 83184, Note_on_c, 7, 71, 0
8, 83240, Note_on_c, 7, 69, 114
8, 83240, Note_on_c, 7, 66, 114
8, 83576, Note_on_c, 7, 69, 0
8, 83584, Note_on_c, 7, 66, 0
8, 83616, Note_on_c, 7, 61, 114
8, 83616, Note_on_c, 7, 64, 114
8, 84440, Note_on_c, 7, 61, 0
8, 84480, Note_on_c, 7, 64, 0
8, 84480, End_track
9, 0, Start_track
9, 0, MIDI_port, 0
9, 0, Title_t, ""
9, 0, Control_c, 9, 7, 127
9, 0, Control_c, 9, 10, 64
9, 0, Control_c, 9, 91, 0
9, 0, Control_c, 9, 93, 0
9, 1982, Control_c, 9, 91, 0
9, 1982, Control_c, 9, 93, 0
9, 1982, Control_c, 9, 10, 64
9, 1982, Control_c, 9, 7, 127
9, 14620, Control_c, 9, 10, 64
9, 14690, Control_c, 9, 10, 67
9, 14716, Control_c, 9, 10, 70
9, 14764, Control_c, 9, 10, 72
9, 14785, Control_c, 9, 10, 75
9, 14820, Control_c, 9, 10, 78
9, 14880, Control_c, 9, 10, 81
9, 14900, Control_c, 9, 10, 83
9, 15060, Control_c, 9, 10, 86
9, 15308, Control_c, 9, 10, 83
9, 15308, End_track
10, 0, Start_track
10, 0, MIDI_port, 0
10, 0, Title_t, ""
10, 0, Control_c, 9, 7, 127
10, 0, Control_c, 9, 10, 64
10, 0, Control_c, 9, 91, 0
10, 0, Control_c, 9, 93, 0
10, 1982, Control_c, 9, 91, 0
10, 1982, Control_c, 9, 93, 0
10, 1982, Control_c, 9, 10, 64
10, 1982, Control_c, 9, 7, 127
10, 52035, Note_on_c, 9, 41, 119
10, 52047, Note_on_c, 9, 41, 0
10, 52047, End_track
11, 0, Start_track
11, 0, MIDI_port, 0
11, 0, Title_t, ""
11, 0, Control_c, 0, 0, 56
11, 0, Control_c, 0, 32, 0
11, 0, Program_c, 0, 50
11, 0, Control_c, 0, 7, 127
11, 0, Control_c, 0, 10, 64
11, 0, Control_c, 0, 91, 0
11, 0, Control_c, 0, 93, 0
11, 768, Note_on_c, 0, 68, 125
11, 771, Note_on_c, 0, 64, 85
11, 771, Note_on_c, 0, 59, 106
11, 774, Note_on_c, 0, 52, 101
11, 1125, Note_on_c, 0, 64, 0
11, 1127, Note_on_c, 0, 52, 0
11, 1128, Note_on_c, 0, 59, 0
11, 1147, Note_on_c, 0, 68, 0
11, 1149, Note_on_c, 0, 69, 125
11, 1154, Note_on_c, 0, 62, 92
11, 1156, Note_on_c, 0, 57, 123
11, 1157, Note_on_c, 0, 50, 106
11, 1417, Note_on_c, 0, 50, 0
11, 1425, Note_on_c, 0, 57, 0
11, 1425, Note_on_c, 0, 62, 0
11, 1430, Note_on_c, 0, 69, 0
11, 1454, Note_on_c, 0, 69, 125
11, 1456, Note_on_c, 0, 60, 103
11, 1459, Note_on_c, 0, 55, 123
11, 1460, Note_on_c, 0, 48, 109
11, 1982, Control_c, 0, 91, 0
11, 1982, Control_c, 0, 93, 0
11, 1982, Control_c, 0, 10, 64
11, 1982, Control_c, 0, 7, 127
11, 2237, Note_on_c, 0, 48, 0
11, 2248, Note_on_c, 0, 55, 0
11, 2259, Note_on_c, 0, 60, 0
11, 2284, Note_on_c, 0, 69, 0
11, 2303, Note_on_c, 0, 64, 106
11, 2305, Note_on_c, 0, 68, 125
11, 2305, Note_on_c, 0, 59, 123
11, 2306, Note_on_c, 0, 52, 114
11, 2656, Note_on_c, 0, 64, 0
11, 2657, Note_on_c, 0, 52, 0
11, 2658, Note_on_c, 0, 59, 0
11, 2681, Note_on_c, 0, 68, 0
11, 2686, Note_on_c, 0, 69, 125
11, 2691, Note_on_c, 0, 62, 96
11, 2692, Note_on_c, 0, 57, 125
11, 2694, Note_on_c, 0, 50, 106
11, 2710, Control_c, 0, 93, 0
11, 2741, Control_c, 0, 93, 3
11, 2765, Control_c, 0, 93, 6
11, 2837, Control_c, 0, 93, 9
11, 2853, Control_c, 0, 93, 20
11, 2869, Control_c, 0, 93, 23
11, 2893, Control_c, 0, 93, 25
11, 2915, Control_c, 0, 93, 28
11, 2924, Note_on_c, 0, 57, 0
11, 2924, Note_on_c, 0, 62, 0
11, 2924, Control_c, 0, 93, 31
11, 2928, Note_on_c, 0, 50, 0
11, 2928, Control_c, 0, 93, 34
11, 2944, Note_on_c, 0, 69, 0
11, 2968, Control_c, 0, 93, 45
11, 2980, Note_on_c, 0, 57, 106
11, 2981, Note_on_c, 0, 52, 125
11, 2981, Control_c, 0, 93, 47
11, 2983, Note_on_c, 0, 69, 125
11, 2984, Note_on_c, 0, 45, 111
11, 3477, Control_c, 0, 91, 0
11, 3526, Note_on_c, 0, 69, 0
11, 3526, Control_c, 0, 91, 3
11, 3534, Control_c, 0, 91, 6
11, 3542, Control_c, 0, 91, 9
11, 3557, Note_on_c, 0, 66, 125
11, 3557, Control_c, 0, 91, 9
11, 3565, Control_c, 0, 91, 12
11, 3573, Control_c, 0, 91, 23
11, 3592, Control_c, 0, 91, 25
11, 3599, Note_on_c, 0, 67, 120
11, 3602, Note_on_c, 0, 66, 0
11, 3602, Control_c, 0, 91, 28
11, 3618, Control_c, 0, 91, 31
11, 3634, Control_c, 0, 91, 34
11, 3645, Note_on_c, 0, 66, 125
11, 3645, Control_c, 0, 91, 36
11, 3657, Note_on_c, 0, 67, 0
11, 3657, Control_c, 0, 91, 39
11, 3673, Control_c, 0, 91, 42
11, 3689, Control_c, 0, 91, 45
11, 3728, Control_c, 0, 91, 47
11, 3734, Note_on_c, 0, 66, 0
11, 3735, Note_on_c, 0, 64, 125
11, 3751, Control_c, 0, 91, 50
11, 3759, Control_c, 0, 91, 53
11, 3807, Control_c, 0, 91, 56
11, 3821, Note_on_c, 0, 57, 0
11, 3822, Note_on_c, 0, 52, 0
11, 3828, Note_on_c, 0, 64, 0
11, 3830, Note_on_c, 0, 45, 0
11, 3831, Control_c, 0, 91, 58
11, 3838, Note_on_c, 0, 67, 125
11, 3840, Note_on_c, 0, 79, 125
11, 3862, Control_c, 0, 91, 61
11, 3876, Control_c, 0, 91, 64
11, 3998, Pitch_bend_c, 0, 7920
11, 4001, Pitch_bend_c, 0, 7280
11, 4005, Pitch_bend_c, 0, 6800
11, 4008, Pitch_bend_c, 0, 6368
11, 4011, Pitch_bend_c, 0, 5984
11, 4014, Pitch_bend_c, 0, 5584
11, 4017, Pitch_bend_c, 0, 5232
11, 4021, Pitch_bend_c, 0, 4976
11, 4024, Pitch_bend_c, 0, 4800
11, 4027, Pitch_bend_c, 0, 4704
11, 4030, Pitch_bend_c, 0, 4688
11, 4037, Pitch_bend_c, 0, 4736
11, 4040, Pitch_bend_c, 0, 4848
11, 4043, Pitch_bend_c, 0, 5232
11, 4046, Pitch_bend_c, 0, 5952
11, 4049, Pitch_bend_c, 0, 6768
11, 4053, Pitch_bend_c, 0, 7600
11, 4056, Pitch_bend_c, 0, 8192
11, 4084, Control_c, 0, 91, 67
11, 4164, Control_c, 0, 91, 70
11, 4194, Pitch_bend_c, 0, 8160
11, 4197, Pitch_bend_c, 0, 7808
11, 4200, Pitch_bend_c, 0, 7456
11, 4204, Pitch_bend_c, 0, 7264
11, 4207, Pitch_bend_c, 0, 6976
11, 4210, Pitch_bend_c, 0, 6800
11, 4213, Pitch_bend_c, 0, 6704
11, 4216, Pitch_bend_c, 0, 6624
11, 4220, Pitch_bend_c, 0, 6512
11, 4229, Pitch_bend_c, 0, 6656
11, 4234, Pitch_bend_c, 0, 7264
11, 4237, Pitch_bend_c, 0, 8016
11, 4240, Pitch_bend_c, 0, 8192
11, 4240, Control_c, 0, 91, 72
11, 4366, Pitch_bend_c, 0, 8096
11, 4369, Pitch_bend_c, 0, 7584
11, 4372, Pitch_bend_c, 0, 7136
11, 4376, Pitch_bend_c, 0, 6800
11, 4379, Pitch_bend_c, 0, 6480
11, 4382, Pitch_bend_c, 0, 6208
11, 4385, Pitch_bend_c, 0, 6016
11, 4388, Pitch_bend_c, 0, 5840
11, 4391, Pitch_bend_c, 0, 5728
11, 4395, Pitch_bend_c, 0, 5760
11, 4401, Pitch_bend_c, 0, 5808
11, 4404, Pitch_bend_c, 0, 6192
11, 4407, Pitch_bend_c, 0, 6736
11, 4411, Pitch_bend_c, 0, 7312
11, 4414, Pitch_bend_c, 0, 7840
11, 4417, Pitch_bend_c, 0, 8192
11, 4492, Control_c, 0, 91, 75
11, 4531, Control_c, 0, 91, 75
11, 4558, Pitch_bend_c, 0, 7776
11, 4558, Control_c, 0, 91, 78
11, 4561, Pitch_bend_c, 0, 7456
11, 4564, Pitch_bend_c, 0, 7168
11, 4567, Pitch_bend_c, 0, 6880
11, 4571, Pitch_bend_c, 0, 6736
11, 4574, Pitch_bend_c, 0, 6592
11, 4577, Pitch_bend_c, 0, 6512
11, 4580, Pitch_bend_c, 0, 6480
11, 4587, Pitch_bend_c, 0, 6448
11, 4590, Pitch_bend_c, 0, 6592
11, 4593, Pitch_bend_c, 0, 6880
11, 4596, Pitch_bend_c, 0, 7456
11, 4600, Pitch_bend_c, 0, 8192
11, 4758, Pitch_bend_c, 0, 8128
11, 4762, Pitch_bend_c, 0, 7520
11, 4766, Pitch_bend_c, 0, 7232
11, 4769, Pitch_bend_c, 0, 6912
11, 4772, Pitch_bend_c, 0, 6736
11, 4775, Pitch_bend_c, 0, 6592
11, 4779, Pitch_bend_c, 0, 6448
11, 4782, Pitch_bend_c, 0, 6368
11, 4785, Pitch_bend_c, 0, 6416
11, 4791, Pitch_bend_c, 0, 6560
11, 4795, Pitch_bend_c, 0, 6848
11, 4798, Pitch_bend_c, 0, 7312
11, 4801, Pitch_bend_c, 0, 8064
11, 4804, Pitch_bend_c, 0, 8192
11, 4939, Pitch_bend_c, 0, 7984
11, 4942, Pitch_bend_c, 0, 7488
11, 4946, Pitch_bend_c, 0, 7088
11, 4949, Pitch_bend_c, 0, 6704
11, 4952, Pitch_bend_c, 0, 6336
11, 4956, Pitch_bend_c, 0, 6064
11, 4959, Pitch_bend_c, 0, 5760
11, 4963, Pitch_bend_c, 0, 5632
11, 4966, Pitch_bend_c, 0, 5520
11, 4969, Pitch_bend_c, 0, 5488
11, 4975, Pitch_bend_c, 0, 5552
11, 4978, Pitch_bend_c, 0, 5728
11, 4982, Pitch_bend_c, 0, 6160
11, 4985, Pitch_bend_c, 0, 6624
11, 4988, Pitch_bend_c, 0, 7136
11, 4991, Pitch_bend_c, 0, 7728
11, 4994, Pitch_bend_c, 0, 8160
11, 4998, Pitch_bend_c, 0, 8192
11, 5384, Note_on_c, 0, 79, 0
11, 5387, Note_on_c, 0, 67, 0
11, 5556, Control_c, 0, 10, 64
11, 5604, Control_c, 0, 10, 67
11, 5636, Control_c, 0, 10, 70
11, 5672, Control_c, 0, 10, 72
11, 5692, Control_c, 0, 10, 72
11, 5700, Control_c, 0, 10, 75
11, 5723, Control_c, 0, 10, 78
11, 5761, Control_c, 0, 10, 81
11, 5781, Control_c, 0, 10, 83
11, 5804, Control_c, 0, 10, 86
11, 5820, Control_c, 0, 10, 89
11, 5904, Control_c, 0, 10, 86
11, 5912, Control_c, 0, 10, 83
11, 5923, Control_c, 0, 10, 81
11, 5932, Control_c, 0, 10, 78
11, 5940, Control_c, 0, 10, 75
11, 5953, Control_c, 0, 10, 64
11, 5980, Control_c, 0, 10, 61
11, 5988, Control_c, 0, 10, 58
11, 6000, Control_c, 0, 10, 47
11, 6011, Control_c, 0, 10, 45
11, 6032, Control_c, 0, 10, 42
11, 6044, Control_c, 0, 10, 39
11, 19680, Note_on_c, 0, 55, 109
11, 19680, Note_on_c, 0, 64, 116
11, 19809, Note_on_c, 0, 64, 0
11, 19817, Note_on_c, 0, 55, 0
11, 19824, Note_on_c, 0, 57, 92
11, 19824, Note_on_c, 0, 66, 114
11, 19954, Note_on_c, 0, 66, 0
11, 19965, Note_on_c, 0, 57, 0
11, 19968, Note_on_c, 0, 67, 100
11, 19968, Note_on_c, 0, 64, 106
11, 19968, Note_on_c, 0, 59, 109
11, 20676, Note_on_c, 0, 67, 0
11, 20683, Note_on_c, 0, 64, 0
11, 20685, Note_on_c, 0, 59, 0
11, 20712, Control_c, 0, 10, 39
11, 20736, Note_on_c, 0, 64, 87
11, 20736, Note_on_c, 0, 67, 95
11, 20736, Note_on_c, 0, 59, 95
11, 20752, Control_c, 0, 10, 42
11, 20764, Control_c, 0, 10, 53
11, 20784, Control_c, 0, 10, 56
11, 20808, Control_c, 0, 10, 58
11, 20831, Control_c, 0, 10, 61
11, 20842, Control_c, 0, 10, 72
11, 20904, Control_c, 0, 10, 75
11, 20930, Control_c, 0, 10, 78
11, 21088, Control_c, 0, 10, 81
11, 21100, Control_c, 0, 10, 83
11, 21116, Control_c, 0, 10, 86
11, 21244, Control_c, 0, 10, 83
11, 21280, Control_c, 0, 10, 81
11, 21435, Note_on_c, 0, 64, 0
11, 21455, Note_on_c, 0, 59, 0
11, 21489, Note_on_c, 0, 67, 0
11, 21504, Note_on_c, 0, 63, 116
11, 21504, Note_on_c, 0, 66, 85
11, 21504, Note_on_c, 0, 57, 92
11, 22216, Note_on_c, 0, 63, 0
11, 22217, Note_on_c, 0, 66, 0
11, 22218, Note_on_c, 0, 57, 0
11, 22272, Note_on_c, 0, 67, 100
11, 22272, Note_on_c, 0, 64, 102
11, 22272, Note_on_c, 0, 59, 82
11, 22693, Note_on_c, 0, 67, 0
11, 22694, Note_on_c, 0, 64, 0
11, 22701, Note_on_c, 0, 59, 0
11, 22752, Note_on_c, 0, 55, 95
11, 22752, Note_on_c, 0, 64, 116
11, 22883, Note_on_c, 0, 64, 0
11, 22891, Note_on_c, 0, 55, 0
11, 22896, Note_on_c, 0, 57, 97
11, 22896, Note_on_c, 0, 66, 111
11, 23025, Note_on_c, 0, 66, 0
11, 23029, Note_on_c, 0, 57, 0
11, 23040, Note_on_c, 0, 67, 95
11, 23040, Note_on_c, 0, 64, 95
11, 23040, Note_on_c, 0, 59, 92
11, 23770, Note_on_c, 0, 64, 0
11, 23770, Note_on_c, 0, 67, 0
11, 23773, Note_on_c, 0, 59, 0
11, 23808, Note_on_c, 0, 59, 89
11, 23808, Note_on_c, 0, 64, 102
11, 23808, Note_on_c, 0, 67, 95
11, 24485, Note_on_c, 0, 67, 0
11, 24487, Note_on_c, 0, 64, 0
11, 24488, Note_on_c, 0, 59, 0
11, 24576, Note_on_c, 0, 59, 116
11, 24576, Note_on_c, 0, 63, 116
11, 24576, Note_on_c, 0, 67, 115
11, 24683, Note_on_c, 0, 63, 0
11, 24684, Note_on_c, 0, 67, 0
11, 24684, Note_on_c, 0, 59, 0
11, 24704, Note_on_c, 0, 59, 116
11, 24704, Note_on_c, 0, 63, 116
11, 24704, Note_on_c, 0, 67, 116
11, 24748, Note_on_c, 0, 63, 0
11, 24751, Note_on_c, 0, 67, 0
11, 24753, Note_on_c, 0, 59, 0
11, 25344, Note_on_c, 0, 56, 89
11, 25344, Note_on_c, 0, 52, 80
11, 25632, Note_on_c, 0, 50, 85
11, 25632, Note_on_c, 0, 57, 82
11, 25633, Note_on_c, 0, 56, 0
11, 25634, Note_on_c, 0, 52, 0
11, 26103, Note_on_c, 0, 57, 0
11, 26110, Note_on_c, 0, 50, 0
11, 37344, Note_on_c, 0, 55, 109
11, 37344, Note_on_c, 0, 64, 116
11, 37473, Note_on_c, 0, 64, 0
11, 37481, Note_on_c, 0, 55, 0
11, 37488, Note_on_c, 0, 57, 92
11, 37488, Note_on_c, 0, 66, 114
11, 37618, Note_on_c, 0, 66, 0
11, 37629, Note_on_c, 0, 57, 0
11, 37632, Note_on_c, 0, 67, 100
11, 37632, Note_on_c, 0, 64, 106
11, 37632, Note_on_c, 0, 59, 109
11, 38340, Note_on_c, 0, 67, 0
11, 38347, Note_on_c, 0, 64, 0
11, 38349, Note_on_c, 0, 59, 0
11, 38400, Note_on_c, 0, 64, 87
11, 38400, Note_on_c, 0, 67, 95
11, 38400, Note_on_c, 0, 59, 95
11, 39099, Note_on_c, 0, 64, 0
11, 39119, Note_on_c, 0, 59, 0
11, 39153, Note_on_c, 0, 67, 0
11, 39168, Note_on_c, 0, 63, 116
11, 39168, Note_on_c, 0, 66, 85
11, 39168, Note_on_c, 0, 57, 92
11, 39880, Note_on_c, 0, 63, 0
11, 39881, Note_on_c, 0, 66, 0
11, 39882, Note_on_c, 0, 57, 0
11, 39936, Note_on_c, 0, 67, 100
11, 39936, Note_on_c, 0, 64, 102
11, 39936, Note_on_c, 0, 59, 82
11, 40357, Note_on_c, 0, 67, 0
11, 40358, Note_on_c, 0, 64, 0
11, 40365, Note_on_c, 0, 59, 0
11, 40416, Note_on_c, 0, 55, 95
11, 40416, Note_on_c, 0, 64, 116
11, 40547, Note_on_c, 0, 64, 0
11, 40555, Note_on_c, 0, 55, 0
11, 40560, Note_on_c, 0, 57, 97
11, 40560, Note_on_c, 0, 66, 111
11, 40689, Note_on_c, 0, 66, 0
11, 40693, Note_on_c, 0, 57, 0
11, 40704, Note_on_c, 0, 67, 95
11, 40704, Note_on_c, 0, 64, 95
11, 40704, Note_on_c, 0, 59, 92
11, 41434, Note_on_c, 0, 64, 0
11, 41434, Note_on_c, 0, 67, 0
11, 41437, Note_on_c, 0, 59, 0
11, 41472, Note_on_c, 0, 59, 89
11, 41472, Note_on_c, 0, 64, 102
11, 41472, Note_on_c, 0, 67, 95
11, 42149, Note_on_c, 0, 67, 0
11, 42151, Note_on_c, 0, 64, 0
11, 42152, Note_on_c, 0, 59, 0
11, 42240, Note_on_c, 0, 59, 116
11, 42240, Note_on_c, 0, 63, 116
11, 42240, Note_on_c, 0, 67, 115
11, 42347, Note_on_c, 0, 63, 0
11, 42348, Note_on_c, 0, 67, 0
11, 42348, Note_on_c, 0, 59, 0
11, 42368, Note_on_c, 0, 59, 116
11, 42368, Note_on_c, 0, 63, 116
11, 42368, Note_on_c, 0, 67, 116
11, 42412, Note_on_c, 0, 63, 0
11, 42415, Note_on_c, 0, 67, 0
11, 42417, Note_on_c, 0, 59, 0
11, 43488, Note_on_c, 0, 55, 95
11, 43488, Note_on_c, 0, 64, 116
11, 43619, Note_on_c, 0, 64, 0
11, 43627, Note_on_c, 0, 55, 0
11, 43632, Note_on_c, 0, 57, 97
11, 43632, Note_on_c, 0, 66, 111
11, 43761, Note_on_c, 0, 66, 0
11, 43765, Note_on_c, 0, 57, 0
11, 43776, Note_on_c, 0, 67, 100
11, 43776, Note_on_c, 0, 64, 106
11, 43776, Note_on_c, 0, 59, 109
11, 44484, Note_on_c, 0, 67, 0
11, 44491, Note_on_c, 0, 64, 0
11, 44493, Note_on_c, 0, 59, 0
11, 44544, Note_on_c, 0, 64, 87
11, 44544, Note_on_c, 0, 67, 95
11, 44544, Note_on_c, 0, 59, 95
11, 45243, Note_on_c, 0, 64, 0
11, 45263, Note_on_c, 0, 59, 0
11, 45297, Note_on_c, 0, 67, 0
11, 45312, Note_on_c, 0, 63, 116
11, 45312, Note_on_c, 0, 66, 85
11, 45312, Note_on_c, 0, 57, 92
11, 46024, Note_on_c, 0, 63, 0
11, 46025, Note_on_c, 0, 66, 0
11, 46026, Note_on_c, 0, 57, 0
11, 46080, Note_on_c, 0, 67, 100
11, 46080, Note_on_c, 0, 64, 102
11, 46080, Note_on_c, 0, 59, 82
11, 46501, Note_on_c, 0, 67, 0
11, 46502, Note_on_c, 0, 64, 0
11, 46509, Note_on_c, 0, 59, 0
11, 46560, Note_on_c, 0, 55, 95
11, 46560, Note_on_c, 0, 64, 116
11, 46691, Note_on_c, 0, 64, 0
11, 46699, Note_on_c, 0, 55, 0
11, 46704, Note_on_c, 0, 57, 97
11, 46704, Note_on_c, 0, 66, 111
11, 46833, Note_on_c, 0, 66, 0
11, 46837, Note_on_c, 0, 57, 0
11, 46848, Note_on_c, 0, 67, 95
11, 46848, Note_on_c, 0, 64, 95
11, 46848, Note_on_c, 0, 59, 92
11, 47578, Note_on_c, 0, 64, 0
11, 47578, Note_on_c, 0, 67, 0
11, 47581, Note_on_c, 0, 59, 0
11, 47616, Note_on_c, 0, 59, 89
11, 47616, Note_on_c, 0, 64, 102
11, 47616, Note_on_c, 0, 67, 95
11, 48293, Note_on_c, 0, 67, 0
11, 48295, Note_on_c, 0, 64, 0
11, 48296, Note_on_c, 0, 59, 0
11, 48384, Note_on_c, 0, 59, 116
11, 48384, Note_on_c, 0, 63, 116
11, 48384, Note_on_c, 0, 67, 115
11, 48491, Note_on_c, 0, 63, 0
11, 48492, Note_on_c, 0, 67, 0
11, 48492, Note_on_c, 0, 59, 0
11, 48512, Note_on_c, 0, 59, 116
11, 48512, Note_on_c, 0, 63, 116
11, 48512, Note_on_c, 0, 67, 116
11, 48556, Note_on_c, 0, 63, 0
11, 48559, Note_on_c, 0, 67, 0
11, 48561, Note_on_c, 0, 59, 0
11, 49154, Note_on_c, 0, 52, 100
11, 49155, Note_on_c, 0, 59, 116
11, 49163, Note_on_c, 0, 52, 114
11, 49166, Note_on_c, 0, 64, 125
11, 49167, Note_on_c, 0, 59, 125
11, 49444, Note_on_c, 0, 50, 109
11, 49444, Note_on_c, 0, 57, 82
11, 49445, Note_on_c, 0, 50, 114
11, 49447, Note_on_c, 0, 62, 120
11, 49448, Note_on_c, 0, 57, 120
11, 49450, Note_on_c, 0, 52, 0
11, 49452, Note_on_c, 0, 64, 0
11, 49454, Note_on_c, 0, 59, 0
11, 49454, Note_on_c, 0, 59, 0
11, 49454, Note_on_c, 0, 52, 0
11, 49813, Note_on_c, 0, 62, 0
11, 49816, Note_on_c, 0, 60, 111
11, 49817, Note_on_c, 0, 57, 0
11, 49817, Note_on_c, 0, 48, 125
11, 49818, Note_on_c, 0, 50, 0
11, 49820, Note_on_c, 0, 50, 0
11, 49821, Note_on_c, 0, 55, 125
11, 49823, Note_on_c, 0, 48, 97
11, 50638, Note_on_c, 0, 57, 0
11, 50640, Note_on_c, 0, 48, 0
11, 50658, Note_on_c, 0, 60, 0
11, 50666, Note_on_c, 0, 55, 0
11, 50675, Note_on_c, 0, 48, 0
11, 50689, Note_on_c, 0, 52, 125
11, 50695, Note_on_c, 0, 59, 106
11, 50696, Note_on_c, 0, 52, 116
11, 50697, Note_on_c, 0, 59, 125
11, 50698, Note_on_c, 0, 64, 125
11, 50980, Note_on_c, 0, 64, 0
11, 50981, Note_on_c, 0, 59, 0
11, 50981, Note_on_c, 0, 50, 120
11, 50983, Note_on_c, 0, 50, 106
11, 50984, Note_on_c, 0, 62, 111
11, 50984, Note_on_c, 0, 57, 100
11, 50985, Note_on_c, 0, 52, 0
11, 50985, Note_on_c, 0, 59, 0
11, 50985, Note_on_c, 0, 57, 116
11, 50987, Note_on_c, 0, 52, 0
11, 51320, Note_on_c, 0, 57, 0
11, 51335, Note_on_c, 0, 57, 0
11, 51345, Note_on_c, 0, 50, 0
11, 51353, Note_on_c, 0, 50, 0
11, 51355, Note_on_c, 0, 52, 101
11, 51360, Note_on_c, 0, 45, 89
11, 51362, Note_on_c, 0, 57, 125
11, 51367, Note_on_c, 0, 49, 108
11, 51368, Note_on_c, 0, 57, 106
11, 51371, Note_on_c, 0, 62, 0
11, 51841, Note_on_c, 0, 67, 125
11, 51931, Note_on_c, 0, 66, 125
11, 51941, Note_on_c, 0, 67, 0
11, 52020, Note_on_c, 0, 66, 0
11, 52023, Note_on_c, 0, 64, 125
11, 52191, Note_on_c, 0, 64, 0
11, 52210, Note_on_c, 0, 49, 0
11, 52212, Note_on_c, 0, 57, 0
11, 52229, Note_on_c, 0, 57, 0
11, 52230, Note_on_c, 0, 52, 0
11, 52234, Note_on_c, 0, 45, 0
11, 52235, Note_on_c, 0, 67, 101
11, 52236, Note_on_c, 0, 79, 106
11, 52405, Pitch_bend_c, 0, 7888
11, 52408, Pitch_bend_c, 0, 7456
11, 52412, Pitch_bend_c, 0, 6976
11, 52415, Pitch_bend_c, 0, 6592
11, 52418, Pitch_bend_c, 0, 6272
11, 52421, Pitch_bend_c, 0, 6064
11, 52425, Pitch_bend_c, 0, 6016
11, 52435, Pitch_bend_c, 0, 6096
11, 52438, Pitch_bend_c, 0, 6416
11, 52442, Pitch_bend_c, 0, 7088
11, 52445, Pitch_bend_c, 0, 8128
11, 52448, Pitch_bend_c, 0, 8192
11, 52573, Pitch_bend_c, 0, 7984
11, 52576, Pitch_bend_c, 0, 7584
11, 52580, Pitch_bend_c, 0, 7168
11, 52583, Pitch_bend_c, 0, 6768
11, 52586, Pitch_bend_c, 0, 6560
11, 52589, Pitch_bend_c, 0, 6384
11, 52593, Pitch_bend_c, 0, 6304
11, 52596, Pitch_bend_c, 0, 6336
11, 52599, Pitch_bend_c, 0, 6304
11, 52605, Pitch_bend_c, 0, 6416
11, 52609, Pitch_bend_c, 0, 6592
11, 52612, Pitch_bend_c, 0, 6816
11, 52615, Pitch_bend_c, 0, 7232
11, 52618, Pitch_bend_c, 0, 7696
11, 52621, Pitch_bend_c, 0, 8192
11, 52757, Pitch_bend_c, 0, 7840
11, 52760, Pitch_bend_c, 0, 7280
11, 52763, Pitch_bend_c, 0, 6848
11, 52766, Pitch_bend_c, 0, 6480
11, 52769, Pitch_bend_c, 0, 6240
11, 52773, Pitch_bend_c, 0, 6048
11, 52776, Pitch_bend_c, 0, 5872
11, 52779, Pitch_bend_c, 0, 5776
11, 52786, Pitch_bend_c, 0, 5808
11, 52789, Pitch_bend_c, 0, 5872
11, 52792, Pitch_bend_c, 0, 6272
11, 52795, Pitch_bend_c, 0, 6704
11, 52798, Pitch_bend_c, 0, 7344
11, 52802, Pitch_bend_c, 0, 8160
11, 52805, Pitch_bend_c, 0, 8192
11, 52939, Pitch_bend_c, 0, 8160
11, 52942, Pitch_bend_c, 0, 7984
11, 52945, Pitch_bend_c, 0, 7888
11, 52948, Pitch_bend_c, 0, 7872
11, 52952, Pitch_bend_c, 0, 7888
11, 52956, Pitch_bend_c, 0, 8016
11, 52959, Pitch_bend_c, 0, 8192
11, 52999, Note_on_c, 0, 79, 0
11, 52999, Note_on_c, 0, 67, 0
11, 55117, Note_on_c, 0, 83, 109
11, 55118, Note_on_c, 0, 71, 109
11, 55247, Pitch_bend_c, 0, 7952
11, 55251, Pitch_bend_c, 0, 7632
11, 55255, Pitch_bend_c, 0, 7280
11, 55259, Pitch_bend_c, 0, 6944
11, 55262, Pitch_bend_c, 0, 6816
11, 55265, Pitch_bend_c, 0, 6704
11, 55268, Pitch_bend_c, 0, 6528
11, 55271, Pitch_bend_c, 0, 6416
11, 55275, Pitch_bend_c, 0, 6304
11, 55278, Pitch_bend_c, 0, 6240
11, 55288, Pitch_bend_c, 0, 6272
11, 55291, Pitch_bend_c, 0, 6416
11, 55294, Pitch_bend_c, 0, 6848
11, 55297, Pitch_bend_c, 0, 7600
11, 55301, Pitch_bend_c, 0, 8192
11, 55426, Pitch_bend_c, 0, 7888
11, 55430, Pitch_bend_c, 0, 7552
11, 55433, Pitch_bend_c, 0, 7168
11, 55436, Pitch_bend_c, 0, 6816
11, 55439, Pitch_bend_c, 0, 6560
11, 55442, Pitch_bend_c, 0, 6336
11, 55446, Pitch_bend_c, 0, 6128
11, 55449, Pitch_bend_c, 0, 5872
11, 55452, Pitch_bend_c, 0, 5696
11, 55455, Pitch_bend_c, 0, 5600
11, 55458, Pitch_bend_c, 0, 5584
11, 55462, Pitch_bend_c, 0, 5552
11, 55465, Pitch_bend_c, 0, 5488
11, 55468, Pitch_bend_c, 0, 5520
11, 55472, Pitch_bend_c, 0, 5552
11, 55475, Pitch_bend_c, 0, 5728
11, 55478, Pitch_bend_c, 0, 6048
11, 55481, Pitch_bend_c, 0, 6384
11, 55484, Pitch_bend_c, 0, 6800
11, 55487, Pitch_bend_c, 0, 7264
11, 55491, Pitch_bend_c, 0, 7696
11, 55494, Pitch_bend_c, 0, 8016
11, 55498, Pitch_bend_c, 0, 8192
11, 55898, Note_on_c, 0, 71, 0
11, 55902, Note_on_c, 0, 83, 0
11, 58181, Note_on_c, 0, 71, 92
11, 58182, Note_on_c, 0, 83, 101
11, 58322, Pitch_bend_c, 0, 7984
11, 58326, Pitch_bend_c, 0, 7664
11, 58329, Pitch_bend_c, 0, 7232
11, 58332, Pitch_bend_c, 0, 6944
11, 58335, Pitch_bend_c, 0, 6704
11, 58338, Pitch_bend_c, 0, 6448
11, 58342, Pitch_bend_c, 0, 6304
11, 58345, Pitch_bend_c, 0, 6128
11, 58348, Pitch_bend_c, 0, 5952
11, 58351, Pitch_bend_c, 0, 5728
11, 58354, Pitch_bend_c, 0, 5600
11, 58358, Pitch_bend_c, 0, 5520
11, 58361, Pitch_bend_c, 0, 5488
11, 58364, Pitch_bend_c, 0, 5440
11, 58370, Pitch_bend_c, 0, 5520
11, 58374, Pitch_bend_c, 0, 5760
11, 58380, Pitch_bend_c, 0, 6976
11, 58383, Pitch_bend_c, 0, 7888
11, 58386, Pitch_bend_c, 0, 8192
11, 58518, Pitch_bend_c, 0, 7920
11, 58521, Pitch_bend_c, 0, 7552
11, 58524, Pitch_bend_c, 0, 7264
11, 58527, Pitch_bend_c, 0, 6880
11, 58530, Pitch_bend_c, 0, 6672
11, 58534, Pitch_bend_c, 0, 6416
11, 58537, Pitch_bend_c, 0, 6272
11, 58540, Pitch_bend_c, 0, 6128
11, 58543, Pitch_bend_c, 0, 5952
11, 58547, Pitch_bend_c, 0, 5904
11, 58550, Pitch_bend_c, 0, 5872
11, 58553, Pitch_bend_c, 0, 5840
11, 58559, Pitch_bend_c, 0, 5872
11, 58562, Pitch_bend_c, 0, 6128
11, 58566, Pitch_bend_c, 0, 6368
11, 58569, Pitch_bend_c, 0, 6880
11, 58572, Pitch_bend_c, 0, 7552
11, 58575, Pitch_bend_c, 0, 8192
11, 58968, Note_on_c, 0, 83, 0
11, 58977, Note_on_c, 0, 71, 0
11, 61254, Note_on_c, 0, 83, 101
11, 61254, Note_on_c, 0, 71, 96
11, 61389, Pitch_bend_c, 0, 7872
11, 61392, Pitch_bend_c, 0, 7488
11, 61395, Pitch_bend_c, 0, 7232
11, 61398, Pitch_bend_c, 0, 6944
11, 61402, Pitch_bend_c, 0, 6736
11, 61406, Pitch_bend_c, 0, 6560
11, 61409, Pitch_bend_c, 0, 6336
11, 61412, Pitch_bend_c, 0, 6272
11, 61415, Pitch_bend_c, 0, 6192
11, 61418, Pitch_bend_c, 0, 6128
11, 61422, Pitch_bend_c, 0, 6064
11, 61425, Pitch_bend_c, 0, 6096
11, 61428, Pitch_bend_c, 0, 6048
11, 61431, Pitch_bend_c, 0, 6064
11, 61435, Pitch_bend_c, 0, 6192
11, 61438, Pitch_bend_c, 0, 6416
11, 61441, Pitch_bend_c, 0, 6816
11, 61444, Pitch_bend_c, 0, 7376
11, 61449, Pitch_bend_c, 0, 8192
11, 61581, Pitch_bend_c, 0, 8160
11, 61584, Pitch_bend_c, 0, 7840
11, 61587, Pitch_bend_c, 0, 7488
11, 61591, Pitch_bend_c, 0, 7280
11, 61594, Pitch_bend_c, 0, 7024
11, 61597, Pitch_bend_c, 0, 6848
11, 61600, Pitch_bend_c, 0, 6768
11, 61603, Pitch_bend_c, 0, 6672
11, 61606, Pitch_bend_c, 0, 6528
11, 61610, Pitch_bend_c, 0, 6448
11, 61613, Pitch_bend_c, 0, 6336
11, 61616, Pitch_bend_c, 0, 6304
11, 61619, Pitch_bend_c, 0, 6336
11, 61626, Pitch_bend_c, 0, 6304
11, 61629, Pitch_bend_c, 0, 6368
11, 61636, Pitch_bend_c, 0, 6592
11, 61638, Pitch_bend_c, 0, 6816
11, 61642, Pitch_bend_c, 0, 7264
11, 61645, Pitch_bend_c, 0, 7728
11, 61648, Pitch_bend_c, 0, 8128
11, 61652, Pitch_bend_c, 0, 8192
11, 61758, Pitch_bend_c, 0, 8128
11, 61761, Pitch_bend_c, 0, 7872
11, 61764, Pitch_bend_c, 0, 7728
11, 61767, Pitch_bend_c, 0, 7520
11, 61770, Pitch_bend_c, 0, 7312
11, 61777, Pitch_bend_c, 0, 7024
11, 61780, Pitch_bend_c, 0, 6848
11, 61783, Pitch_bend_c, 0, 6816
11, 61787, Pitch_bend_c, 0, 6704
11, 61790, Pitch_bend_c, 0, 6656
11, 61793, Pitch_bend_c, 0, 6528
11, 61803, Pitch_bend_c, 0, 6480
11, 61806, Pitch_bend_c, 0, 6512
11, 61809, Pitch_bend_c, 0, 6528
11, 61813, Pitch_bend_c, 0, 6592
11, 61816, Pitch_bend_c, 0, 6768
11, 61819, Pitch_bend_c, 0, 6992
11, 61822, Pitch_bend_c, 0, 7376
11, 61825, Pitch_bend_c, 0, 7840
11, 61829, Pitch_bend_c, 0, 8192
11, 62205, Note_on_c, 0, 83, 0
11, 62209, Note_on_c, 0, 71, 0
11, 63945, Note_on_c, 0, 69, 125
11, 64128, Note_on_c, 0, 71, 125
11, 64132, Note_on_c, 0, 69, 0
11, 64171, Note_on_c, 0, 71, 0
11, 64191, Note_on_c, 0, 71, 125
11, 64252, Note_on_c, 0, 71, 0
11, 64285, Note_on_c, 0, 69, 125
11, 64331, Note_on_c, 0, 71, 125
11, 64340, Note_on_c, 0, 69, 0
11, 64424, Note_on_c, 0, 74, 125
11, 64429, Note_on_c, 0, 71, 0
11, 64516, Note_on_c, 0, 74, 0
11, 64517, Note_on_c, 0, 71, 125
11, 64850, Note_on_c, 0, 71, 0
11, 64903, Note_on_c, 0, 71, 125
11, 65026, Note_on_c, 0, 71, 0
11, 65030, Note_on_c, 0, 74, 125
11, 65172, Note_on_c, 0, 74, 0
11, 65172, Note_on_c, 0, 79, 125
11, 65292, Note_on_c, 0, 78, 125
11, 65306, Note_on_c, 0, 79, 0
11, 65436, Note_on_c, 0, 75, 125
11, 65445, Note_on_c, 0, 78, 0
11, 65563, Note_on_c, 0, 75, 0
11, 65565, Note_on_c, 0, 71, 125
11, 65631, Note_on_c, 0, 71, 0
11, 65679, Note_on_c, 0, 71, 125
11, 65858, Note_on_c, 0, 71, 0
11, 65863, Note_on_c, 0, 76, 125
11, 65886, Pitch_bend_c, 0, 8832
11, 65889, Pitch_bend_c, 0, 10176
11, 65893, Pitch_bend_c, 0, 11536
11, 65897, Pitch_bend_c, 0, 12400
11, 65900, Pitch_bend_c, 0, 12976
11, 65903, Pitch_bend_c, 0, 13424
11, 65907, Pitch_bend_c, 0, 13696
11, 65910, Pitch_bend_c, 0, 14016
11, 65914, Pitch_bend_c, 0, 14544
11, 65917, Pitch_bend_c, 0, 15200
11, 65921, Pitch_bend_c, 0, 15872
11, 65924, Pitch_bend_c, 0, 16383
11, 66050, Pitch_bend_c, 0, 15328
11, 66054, Pitch_bend_c, 0, 12992
11, 66060, Pitch_bend_c, 0, 8192
11, 66233, Note_on_c, 0, 86, 116
11, 66437, Note_on_c, 0, 84, 116
11, 66443, Note_on_c, 0, 86, 0
11, 66627, Note_on_c, 0, 83, 112
11, 66634, Note_on_c, 0, 84, 0
11, 66820, Note_on_c, 0, 79, 116
11, 66822, Note_on_c, 0, 83, 0
11, 66947, Note_on_c, 0, 76, 0
11, 67003, Note_on_c, 0, 74, 115
11, 67016, Note_on_c, 0, 79, 0
11, 67021, Note_on_c, 0, 74, 125
11, 67202, Note_on_c, 0, 72, 116
11, 67203, Note_on_c, 0, 72, 125
11, 67204, Note_on_c, 0, 74, 0
11, 67217, Note_on_c, 0, 74, 0
11, 67384, Note_on_c, 0, 71, 109
11, 67395, Note_on_c, 0, 72, 0
11, 67400, Note_on_c, 0, 71, 125
11, 67413, Note_on_c, 0, 72, 0
11, 67580, Note_on_c, 0, 67, 115
11, 67581, Note_on_c, 0, 71, 0
11, 67592, Note_on_c, 0, 67, 125
11, 67593, Note_on_c, 0, 71, 0
11, 67743, Note_on_c, 0, 67, 0
11, 67787, Note_on_c, 0, 71, 125
11, 67789, Note_on_c, 0, 69, 125
11, 67794, Note_on_c, 0, 69, 0
11, 67974, Note_on_c, 0, 74, 125
11, 67976, Note_on_c, 0, 71, 0
11, 68158, Note_on_c, 0, 74, 0
11, 68163, Note_on_c, 0, 79, 125
11, 68313, Note_on_c, 0, 67, 0
11, 68362, Note_on_c, 0, 79, 0
11, 68370, Note_on_c, 0, 78, 125
11, 68374, Note_on_c, 0, 79, 103
11, 68380, Note_on_c, 0, 79, 0
11, 68560, Note_on_c, 0, 75, 125
11, 68569, Note_on_c, 0, 78, 0
11, 68672, Note_on_c, 0, 75, 0
11, 68752, Note_on_c, 0, 83, 125
11, 68813, Pitch_bend_c, 0, 8496
11, 68816, Pitch_bend_c, 0, 8752
11, 68819, Pitch_bend_c, 0, 9200
11, 68823, Pitch_bend_c, 0, 9568
11, 68826, Pitch_bend_c, 0, 9936
11, 68830, Pitch_bend_c, 0, 10320
11, 68833, Pitch_bend_c, 0, 10656
11, 68837, Pitch_bend_c, 0, 10864
11, 68840, Pitch_bend_c, 0, 11056
11, 68844, Pitch_bend_c, 0, 11200
11, 68847, Pitch_bend_c, 0, 11232
11, 68851, Pitch_bend_c, 0, 11280
11, 68854, Pitch_bend_c, 0, 11424
11, 68857, Pitch_bend_c, 0, 11472
11, 68861, Pitch_bend_c, 0, 11680
11, 68865, Pitch_bend_c, 0, 11872
11, 68868, Pitch_bend_c, 0, 12048
11, 68872, Pitch_bend_c, 0, 12160
11, 68875, Pitch_bend_c, 0, 12240
11, 68878, Pitch_bend_c, 0, 12288
11, 68886, Pitch_bend_c, 0, 12384
11, 68889, Pitch_bend_c, 0, 12288
11, 68896, Pitch_bend_c, 0, 12320
11, 68903, Pitch_bend_c, 0, 12288
11, 68906, Pitch_bend_c, 0, 12272
11, 68910, Pitch_bend_c, 0, 12240
11, 68913, Pitch_bend_c, 0, 12096
11, 68917, Pitch_bend_c, 0, 12064
11, 68920, Pitch_bend_c, 0, 11840
11, 68923, Pitch_bend_c, 0, 11584
11, 68927, Pitch_bend_c, 0, 11312
11, 68930, Pitch_bend_c, 0, 10608
11, 68934, Pitch_bend_c, 0, 9680
11, 68940, Pitch_bend_c, 0, 8192
11, 69549, Note_on_c, 0, 83, 0
11, 69600, Note_on_c, 0, 55, 109
11, 69600, Note_on_c, 0, 64, 116
11, 69616, Note_on_c, 0, 76, 125
11, 69729, Note_on_c, 0, 64, 0
11, 69737, Note_on_c, 0, 55, 0
11, 69744, Note_on_c, 0, 57, 92
11, 69744, Note_on_c, 0, 66, 114
11, 69753, Note_on_c, 0, 76, 0
11, 69755, Note_on_c, 0, 78, 125
11, 69874, Note_on_c, 0, 66, 0
11, 69885, Note_on_c, 0, 57, 0
11, 69886, Note_on_c, 0, 78, 0
11, 69888, Note_on_c, 0, 79, 120
11, 69888, Note_on_c, 0, 67, 100
11, 69888, Note_on_c, 0, 64, 106
11, 69888, Note_on_c, 0, 59, 109
11, 70101, Note_on_c, 0, 79, 0
11, 70596, Note_on_c, 0, 67, 0
11, 70603, Note_on_c, 0, 64, 0
11, 70605, Note_on_c, 0, 59, 0
11, 70656, Note_on_c, 0, 64, 87
11, 70656, Note_on_c, 0, 67, 95
11, 70656, Note_on_c, 0, 59, 95
11, 71355, Note_on_c, 0, 64, 0
11, 71375, Note_on_c, 0, 59, 0
11, 71409, Note_on_c, 0, 67, 0
11, 71424, Note_on_c, 0, 63, 116
11, 71424, Note_on_c, 0, 66, 85
11, 71424, Note_on_c, 0, 57, 92
11, 72136, Note_on_c, 0, 63, 0
11, 72137, Note_on_c, 0, 66, 0
11, 72138, Note_on_c, 0, 57, 0
11, 72192, Note_on_c, 0, 67, 100
11, 72192, Note_on_c, 0, 64, 102
11, 72192, Note_on_c, 0, 59, 82
11, 72613, Note_on_c, 0, 67, 0
11, 72614, Note_on_c, 0, 64, 0
11, 72621, Note_on_c, 0, 59, 0
11, 72672, Note_on_c, 0, 55, 95
11, 72672, Note_on_c, 0, 64, 116
11, 72803, Note_on_c, 0, 64, 0
11, 72811, Note_on_c, 0, 55, 0
11, 72816, Note_on_c, 0, 57, 97
11, 72816, Note_on_c, 0, 66, 111
11, 72945, Note_on_c, 0, 66, 0
11, 72949, Note_on_c, 0, 57, 0
11, 72960, Note_on_c, 0, 67, 95
11, 72960, Note_on_c, 0, 64, 95
11, 72960, Note_on_c, 0, 59, 92
11, 73690, Note_on_c, 0, 64, 0
11, 73690, Note_on_c, 0, 67, 0
11, 73693, Note_on_c, 0, 59, 0
11, 73728, Note_on_c, 0, 59, 89
11, 73728, Note_on_c, 0, 64, 102
11, 73728, Note_on_c, 0, 67, 95
11, 74405, Note_on_c, 0, 67, 0
11, 74407, Note_on_c, 0, 64, 0
11, 74408, Note_on_c, 0, 59, 0
11, 74496, Note_on_c, 0, 59, 116
11, 74496, Note_on_c, 0, 63, 116
11, 74496, Note_on_c, 0, 67, 115
11, 74603, Note_on_c, 0, 63, 0
11, 74604, Note_on_c, 0, 67, 0
11, 74604, Note_on_c, 0, 59, 0
11, 74624, Note_on_c, 0, 59, 116
11, 74624, Note_on_c, 0, 63, 116
11, 74624, Note_on_c, 0, 67, 116
11, 74668, Note_on_c, 0, 63, 0
11, 74671, Note_on_c, 0, 67, 0
11, 74673, Note_on_c, 0, 59, 0
11, 75744, Note_on_c, 0, 55, 95
11, 75744, Note_on_c, 0, 64, 116
11, 75875, Note_on_c, 0, 64, 0
11, 75883, Note_on_c, 0, 55, 0
11, 75888, Note_on_c, 0, 57, 97
11, 75888, Note_on_c, 0, 66, 111
11, 76017, Note_on_c, 0, 66, 0
11, 76021, Note_on_c, 0, 57, 0
11, 76032, Note_on_c, 0, 67, 100
11, 76032, Note_on_c, 0, 64, 106
11, 76032, Note_on_c, 0, 59, 109
11, 76740, Note_on_c, 0, 67, 0
11, 76747, Note_on_c, 0, 64, 0
11, 76749, Note_on_c, 0, 59, 0
11, 76800, Note_on_c, 0, 64, 87
11, 76800, Note_on_c, 0, 67, 95
11, 76800, Note_on_c, 0, 59, 95
11, 77499, Note_on_c, 0, 64, 0
11, 77519, Note_on_c, 0, 59, 0
11, 77553, Note_on_c, 0, 67, 0
11, 77568, Note_on_c, 0, 63, 116
11, 77568, Note_on_c, 0, 66, 85
11, 77568, Note_on_c, 0, 57, 92
11, 78280, Note_on_c, 0, 63, 0
11, 78281, Note_on_c, 0, 66, 0
11, 78282, Note_on_c, 0, 57, 0
11, 78336, Note_on_c, 0, 67, 100
11, 78336, Note_on_c, 0, 64, 102
11, 78336, Note_on_c, 0, 59, 82
11, 78757, Note_on_c, 0, 67, 0
11, 78758, Note_on_c, 0, 64, 0
11, 78765, Note_on_c, 0, 59, 0
11, 78816, Note_on_c, 0, 55, 95
11, 78816, Note_on_c, 0, 64, 116
11, 78947, Note_on_c, 0, 64, 0
11, 78955, Note_on_c, 0, 55, 0
11, 78960, Note_on_c, 0, 57, 97
11, 78960, Note_on_c, 0, 66, 111
11, 79089, Note_on_c, 0, 66, 0
11, 79093, Note_on_c, 0, 57, 0
11, 79104, Note_on_c, 0, 67, 95
11, 79104, Note_on_c, 0, 64, 95
11, 79104, Note_on_c, 0, 59, 92
11, 79834, Note_on_c, 0, 64, 0
11, 79834, Note_on_c, 0, 67, 0
11, 79837, Note_on_c, 0, 59, 0
11, 79872, Note_on_c, 0, 59, 89
11, 79872, Note_on_c, 0, 64, 102
11, 79872, Note_on_c, 0, 67, 95
11, 80549, Note_on_c, 0, 67, 0
11, 80551, Note_on_c, 0, 64, 0
11, 80552, Note_on_c, 0, 59, 0
11, 80640, Note_on_c, 0, 59, 116
11, 80640, Note_on_c, 0, 63, 116
11, 80640, Note_on_c, 0, 67, 115
11, 80747, Note_on_c, 0, 63, 0
11, 80748, Note_on_c, 0, 67, 0
11, 80748, Note_on_c, 0, 59, 0
11, 80768, Note_on_c, 0, 59, 116
11, 80768, Note_on_c, 0, 63, 116
11, 80768, Note_on_c, 0, 67, 116
11, 80812, Note_on_c, 0, 63, 0
11, 80815, Note_on_c, 0, 67, 0
11, 80817, Note_on_c, 0, 59, 0
11, 81410, Note_on_c, 0, 52, 100
11, 81411, Note_on_c, 0, 59, 116
11, 81415, Note_on_c, 0, 59, 125
11, 81415, Note_on_c, 0, 52, 125
11, 81416, Note_on_c, 0, 64, 125
11, 81700, Note_on_c, 0, 50, 109
11, 81700, Note_on_c, 0, 57, 82
11, 81701, Note_on_c, 0, 64, 0
11, 81704, Note_on_c, 0, 62, 114
11, 81705, Note_on_c, 0, 59, 0
11, 81706, Note_on_c, 0, 52, 0
11, 81707, Note_on_c, 0, 57, 123
11, 81708, Note_on_c, 0, 50, 120
11, 81710, Note_on_c, 0, 59, 0
11, 81714, Note_on_c, 0, 52, 0
11, 82074, Note_on_c, 0, 50, 0
11, 82079, Note_on_c, 0, 48, 97
11, 82088, Note_on_c, 0, 62, 0
11, 82089, Note_on_c, 0, 48, 106
11, 82089, Note_on_c, 0, 60, 114
11, 82092, Note_on_c, 0, 55, 125
11, 82094, Note_on_c, 0, 57, 0
11, 82096, Note_on_c, 0, 50, 0
11, 82894, Note_on_c, 0, 57, 0
11, 82896, Note_on_c, 0, 48, 0
11, 82932, Note_on_c, 0, 60, 0
11, 82950, Note_on_c, 0, 48, 0
11, 82950, Note_on_c, 0, 52, 114
11, 82950, Note_on_c, 0, 59, 125
11, 82951, Note_on_c, 0, 59, 106
11, 82952, Note_on_c, 0, 55, 0
11, 82952, Note_on_c, 0, 64, 123
11, 82952, Note_on_c, 0, 52, 116
11, 83239, Note_on_c, 0, 50, 106
11, 83240, Note_on_c, 0, 57, 100
11, 83241, Note_on_c, 0, 52, 0
11, 83241, Note_on_c, 0, 59, 0
11, 83242, Note_on_c, 0, 62, 111
11, 83242, Note_on_c, 0, 50, 106
11, 83245, Note_on_c, 0, 57, 111
11, 83248, Note_on_c, 0, 59, 0
11, 83253, Note_on_c, 0, 52, 0
11, 83261, Note_on_c, 0, 64, 0
11, 83591, Note_on_c, 0, 57, 0
11, 83601, Note_on_c, 0, 50, 0
11, 83604, Note_on_c, 0, 57, 0
11, 83617, Note_on_c, 0, 62, 0
11, 83620, Note_on_c, 0, 52, 120
11, 83621, Note_on_c, 0, 57, 125
11, 83623, Note_on_c, 0, 50, 0
11, 83623, Note_on_c, 0, 49, 108
11, 83624, Note_on_c, 0, 45, 120
11, 83624, Note_on_c, 0, 57, 106
11, 84466, Note_on_c, 0, 49, 0
11, 84468, Note_on_c, 0, 57, 0
11, 84487, Note_on_c, 0, 52, 0
11, 84487, Note_on_c, 0, 45, 0
11, 84487, Note_on_c, 0, 57, 0
11, 84487, End_track
12, 0, Start_track
12, 0, MIDI_port, 0
12, 0, Title_t, ""
12, 0, Control_c, 1, 0, 56
12, 0, Control_c, 1, 32, 0
12, 0, Program_c, 1, 30
12, 0, Control_c, 1, 7, 100
12, 0, Control_c, 1, 10, 82
12, 0, Control_c, 1, 91, 80
12, 0, Control_c, 1, 93, 82
12, 761, Note_on_c, 1, 68, 125
12, 764, Note_on_c, 1, 64, 85
12, 764, Note_on_c, 1, 59, 106
12, 767, Note_on_c, 1, 52, 101
12, 1118, Note_on_c, 1, 64, 0
12, 1120, Note_on_c, 1, 52, 0
12, 1121, Note_on_c, 1, 59, 0
12, 1140, Note_on_c, 1, 68, 0
12, 1142, Note_on_c, 1, 69, 125
12, 1147, Note_on_c, 1, 62, 92
12, 1149, Note_on_c, 1, 57, 123
12, 1150, Note_on_c, 1, 50, 106
12, 1410, Note_on_c, 1, 50, 0
12, 1418, Note_on_c, 1, 57, 0
12, 1418, Note_on_c, 1, 62, 0
12, 1423, Note_on_c, 1, 69, 0
12, 1447, Note_on_c, 1, 69, 125
12, 1449, Note_on_c, 1, 60, 103
12, 1452, Note_on_c, 1, 55, 123
12, 1453, Note_on_c, 1, 48, 109
12, 1982, Control_c, 1, 91, 80
12, 1982, Control_c, 1, 93, 82
12, 1982, Control_c, 1, 10, 82
12, 1982, Control_c, 1, 7, 100
12, 2230, Note_on_c, 1, 48, 0
12, 2241, Note_on_c, 1, 55, 0
12, 2252, Note_on_c, 1, 60, 0
12, 2277, Note_on_c, 1, 69, 0
12, 2296, Note_on_c, 1, 64, 106
12, 2298, Note_on_c, 1, 68, 125
12, 2298, Note_on_c, 1, 59, 123
12, 2299, Note_on_c, 1, 52, 114
12, 2649, Note_on_c, 1, 64, 0
12, 2650, Note_on_c, 1, 52, 0
12, 2651, Note_on_c, 1, 59, 0
12, 2674, Note_on_c, 1, 68, 0
12, 2679, Note_on_c, 1, 69, 125
12, 2684, Note_on_c, 1, 62, 96
12, 2685, Note_on_c, 1, 57, 125
12, 2687, Note_on_c, 1, 50, 106
12, 2917, Note_on_c, 1, 57, 0
12, 2917, Note_on_c, 1, 62, 0
12, 2921, Note_on_c, 1, 50, 0
12, 2937, Note_on_c, 1, 69, 0
12, 2973, Note_on_c, 1, 57, 106
12, 2974, Note_on_c, 1, 52, 125
12, 2976, Note_on_c, 1, 69, 125
12, 2977, Note_on_c, 1, 45, 111
12, 3519, Note_on_c, 1, 69, 0
12, 3550, Note_on_c, 1, 66, 125
12, 3592, Note_on_c, 1, 67, 120
12, 3595, Note_on_c, 1, 66, 0
12, 3638, Note_on_c, 1, 66, 125
12, 3650, Note_on_c, 1, 67, 0
12, 3727, Note_on_c, 1, 66, 0
12, 3728, Note_on_c, 1, 64, 125
12, 3814, Note_on_c, 1, 57, 0
12, 3815, Note_on_c, 1, 52, 0
12, 3821, Note_on_c, 1, 64, 0
12, 3823, Note_on_c, 1, 45, 0
12, 3831, Note_on_c, 1, 67, 125
12, 3833, Note_on_c, 1, 79, 125
12, 3991, Pitch_bend_c, 1, 7920
12, 3994, Pitch_bend_c, 1, 7280
12, 3998, Pitch_bend_c, 1, 6800
12, 4001, Pitch_bend_c, 1, 6368
12, 4004, Pitch_bend_c, 1, 5984
12, 4007, Pitch_bend_c, 1, 5584
12, 4010, Pitch_bend_c, 1, 5232
12, 4014, Pitch_bend_c, 1, 4976
12, 4017, Pitch_bend_c, 1, 4800
12, 4020, Pitch_bend_c, 1, 4704
12, 4023, Pitch_bend_c, 1, 4688
12, 4030, Pitch_bend_c, 1, 4736
12, 4033, Pitch_bend_c, 1, 4848
12, 4036, Pitch_bend_c, 1, 5232
12, 4039, Pitch_bend_c, 1, 5952
12, 4042, Pitch_bend_c, 1, 6768
12, 4046, Pitch_bend_c, 1, 7600
12, 4049, Pitch_bend_c, 1, 8192
12, 4155, Control_c, 1, 91, 16
12, 4156, Control_c, 1, 91, 18
12, 4183, Control_c, 1, 91, 21
12, 4187, Pitch_bend_c, 1, 8160
12, 4190, Pitch_bend_c, 1, 7808
12, 4193, Control_c, 1, 91, 29
12, 4193, Pitch_bend_c, 1, 7456
12, 4197, Pitch_bend_c, 1, 7264
12, 4200, Pitch_bend_c, 1, 6976
12, 4203, Pitch_bend_c, 1, 6800
12, 4206, Control_c, 1, 91, 43
12, 4206, Pitch_bend_c, 1, 6704
12, 4209, Pitch_bend_c, 1, 6624
12, 4213, Control_c, 1, 91, 48
12, 4213, Pitch_bend_c, 1, 6512
12, 4222, Pitch_bend_c, 1, 6656
12, 4227, Control_c, 1, 91, 49
12, 4227, Pitch_bend_c, 1, 7264
12, 4230, Pitch_bend_c, 1, 8016
12, 4233, Pitch_bend_c, 1, 8192
12, 4252, Control_c, 1, 91, 51
12, 4276, Control_c, 1, 91, 55
12, 4316, Control_c, 1, 91, 70
12, 4320, Control_c, 1, 91, 73
12, 4331, Control_c, 1, 91, 75
12, 4356, Control_c, 1, 91, 77
12, 4359, Pitch_bend_c, 1, 8096
12, 4362, Pitch_bend_c, 1, 7584
12, 4365, Pitch_bend_c, 1, 7136
12, 4368, Control_c, 1, 91, 78
12, 4369, Pitch_bend_c, 1, 6800
12, 4372, Pitch_bend_c, 1, 6480
12, 4375, Pitch_bend_c, 1, 6208
12, 4378, Pitch_bend_c, 1, 6016
12, 4379, Control_c, 1, 91, 80
12, 4381, Pitch_bend_c, 1, 5840
12, 4384, Pitch_bend_c, 1, 5728
12, 4388, Pitch_bend_c, 1, 5760
12, 4394, Pitch_bend_c, 1, 5808
12, 4397, Pitch_bend_c, 1, 6192
12, 4400, Pitch_bend_c, 1, 6736
12, 4404, Pitch_bend_c, 1, 7312
12, 4407, Pitch_bend_c, 1, 7840
12, 4410, Pitch_bend_c, 1, 8192
12, 4551, Pitch_bend_c, 1, 7776
12, 4554, Pitch_bend_c, 1, 7456
12, 4557, Pitch_bend_c, 1, 7168
12, 4560, Pitch_bend_c, 1, 6880
12, 4564, Pitch_bend_c, 1, 6736
12, 4567, Pitch_bend_c, 1, 6592
12, 4570, Pitch_bend_c, 1, 6512
12, 4573, Pitch_bend_c, 1, 6480
12, 4580, Pitch_bend_c, 1, 6448
12, 4583, Pitch_bend_c, 1, 6592
12, 4586, Pitch_bend_c, 1, 6880
12, 4589, Pitch_bend_c, 1, 7456
12, 4593, Pitch_bend_c, 1, 8192
12, 4660, Control_c, 1, 93, 0
12, 4723, Control_c, 1, 93, 10
12, 4736, Control_c, 1, 93, 35
12, 4751, Control_c, 1, 93, 63
12, 4751, Pitch_bend_c, 1, 8128
12, 4755, Pitch_bend_c, 1, 7520
12, 4759, Pitch_bend_c, 1, 7232
12, 4762, Pitch_bend_c, 1, 6912
12, 4765, Control_c, 1, 93, 77
12, 4765, Pitch_bend_c, 1, 6736
12, 4768, Pitch_bend_c, 1, 6592
12, 4772, Pitch_bend_c, 1, 6448
12, 4775, Pitch_bend_c, 1, 6368
12, 4778, Pitch_bend_c, 1, 6416
12, 4784, Pitch_bend_c, 1, 6560
12, 4788, Pitch_bend_c, 1, 6848
12, 4791, Pitch_bend_c, 1, 7312
12, 4794, Pitch_bend_c, 1, 8064
12, 4797, Pitch_bend_c, 1, 8192
12, 4813, Control_c, 1, 93, 79
12, 4868, Control_c, 1, 93, 81
12, 4876, Control_c, 1, 93, 82
12, 4932, Pitch_bend_c, 1, 7984
12, 4935, Pitch_bend_c, 1, 7488
12, 4939, Pitch_bend_c, 1, 7088
12, 4942, Pitch_bend_c, 1, 6704
12, 4945, Pitch_bend_c, 1, 6336
12, 4949, Pitch_bend_c, 1, 6064
12, 4952, Pitch_bend_c, 1, 5760
12, 4956, Pitch_bend_c, 1, 5632
12, 4959, Pitch_bend_c, 1, 5520
12, 4962, Pitch_bend_c, 1, 5488
12, 4968, Pitch_bend_c, 1, 5552
12, 4971, Pitch_bend_c, 1, 5728
12, 4975, Pitch_bend_c, 1, 6160
12, 4978, Pitch_bend_c, 1, 6624
12, 4981, Pitch_bend_c, 1, 7136
12, 4984, Pitch_bend_c, 1, 7728
12, 4987, Pitch_bend_c, 1, 8160
12, 4991, Pitch_bend_c, 1, 8192
12, 5377, Note_on_c, 1, 79, 0
12, 5380, Note_on_c, 1, 67, 0
12, 22717, Control_c, 1, 10, 83
12, 22744, Control_c, 1, 10, 81
12, 22752, Control_c, 1, 10, 78
12, 22788, Control_c, 1, 10, 75
12, 22800, Control_c, 1, 10, 64
12, 22807, Control_c, 1, 10, 61
12, 22844, Control_c, 1, 10, 58
12, 22864, Control_c, 1, 10, 56
12, 22876, Control_c, 1, 10, 53
12, 22896, Control_c, 1, 10, 50
12, 22904, Control_c, 1, 10, 47
12, 22932, Control_c, 1, 10, 45
12, 23225, Control_c, 1, 10, 47
12, 49156, Note_on_c, 1, 52, 114
12, 49159, Note_on_c, 1, 64, 125
12, 49160, Note_on_c, 1, 59, 125
12, 49438, Note_on_c, 1, 50, 114
12, 49440, Note_on_c, 1, 62, 120
12, 49441, Note_on_c, 1, 57, 120
12, 49445, Note_on_c, 1, 64, 0
12, 49447, Note_on_c, 1, 52, 0
12, 49447, Note_on_c, 1, 59, 0
12, 49806, Note_on_c, 1, 62, 0
12, 49809, Note_on_c, 1, 60, 111
12, 49810, Note_on_c, 1, 57, 0
12, 49810, Note_on_c, 1, 48, 125
12, 49813, Note_on_c, 1, 50, 0
12, 49814, Note_on_c, 1, 55, 125
12, 50651, Note_on_c, 1, 60, 0
12, 50659, Note_on_c, 1, 55, 0
12, 50668, Note_on_c, 1, 48, 0
12, 50682, Note_on_c, 1, 52, 125
12, 50690, Note_on_c, 1, 59, 125
12, 50691, Note_on_c, 1, 64, 125
12, 50973, Note_on_c, 1, 64, 0
12, 50974, Note_on_c, 1, 59, 0
12, 50974, Note_on_c, 1, 50, 120
12, 50977, Note_on_c, 1, 62, 111
12, 50978, Note_on_c, 1, 57, 116
12, 50980, Note_on_c, 1, 52, 0
12, 51313, Note_on_c, 1, 57, 0
12, 51346, Note_on_c, 1, 50, 0
12, 51348, Note_on_c, 1, 52, 101
12, 51353, Note_on_c, 1, 45, 89
12, 51355, Note_on_c, 1, 57, 125
12, 51364, Note_on_c, 1, 62, 0
12, 51834, Note_on_c, 1, 67, 125
12, 51924, Note_on_c, 1, 66, 125
12, 51934, Note_on_c, 1, 67, 0
12, 52013, Note_on_c, 1, 66, 0
12, 52016, Note_on_c, 1, 64, 125
12, 52184, Note_on_c, 1, 64, 0
12, 52222, Note_on_c, 1, 57, 0
12, 52223, Note_on_c, 1, 52, 0
12, 52227, Note_on_c, 1, 45, 0
12, 52228, Note_on_c, 1, 67, 101
12, 52229, Note_on_c, 1, 79, 106
12, 52398, Pitch_bend_c, 1, 7888
12, 52401, Pitch_bend_c, 1, 7456
12, 52405, Pitch_bend_c, 1, 6976
12, 52408, Pitch_bend_c, 1, 6592
12, 52411, Pitch_bend_c, 1, 6272
12, 52414, Pitch_bend_c, 1, 6064
12, 52418, Pitch_bend_c, 1, 6016
12, 52428, Pitch_bend_c, 1, 6096
12, 52431, Pitch_bend_c, 1, 6416
12, 52435, Pitch_bend_c, 1, 7088
12, 52438, Pitch_bend_c, 1, 8128
12, 52441, Pitch_bend_c, 1, 8192
12, 52566, Pitch_bend_c, 1, 7984
12, 52569, Pitch_bend_c, 1, 7584
12, 52573, Pitch_bend_c, 1, 7168
12, 52576, Pitch_bend_c, 1, 6768
12, 52579, Pitch_bend_c, 1, 6560
12, 52582, Pitch_bend_c, 1, 6384
12, 52586, Pitch_bend_c, 1, 6304
12, 52589, Pitch_bend_c, 1, 6336
12, 52592, Pitch_bend_c, 1, 6304
12, 52598, Pitch_bend_c, 1, 6416
12, 52602, Pitch_bend_c, 1, 6592
12, 52605, Pitch_bend_c, 1, 6816
12, 52608, Pitch_bend_c, 1, 7232
12, 52611, Pitch_bend_c, 1, 7696
12, 52614, Pitch_bend_c, 1, 8192
12, 52750, Pitch_bend_c, 1, 7840
12, 52753, Pitch_bend_c, 1, 7280
12, 52756, Pitch_bend_c, 1, 6848
12, 52759, Pitch_bend_c, 1, 6480
12, 52762, Pitch_bend_c, 1, 6240
12, 52766, Pitch_bend_c, 1, 6048
12, 52769, Pitch_bend_c, 1, 5872
12, 52772, Pitch_bend_c, 1, 5776
12, 52779, Pitch_bend_c, 1, 5808
12, 52782, Pitch_bend_c, 1, 5872
12, 52785, Pitch_bend_c, 1, 6272
12, 52788, Pitch_bend_c, 1, 6704
12, 52791, Pitch_bend_c, 1, 7344
12, 52795, Pitch_bend_c, 1, 8160
12, 52798, Pitch_bend_c, 1, 8192
12, 52932, Pitch_bend_c, 1, 8160
12, 52935, Pitch_bend_c, 1, 7984
12, 52938, Pitch_bend_c, 1, 7888
12, 52941, Pitch_bend_c, 1, 7872
12, 52945, Pitch_bend_c, 1, 7888
12, 52949, Pitch_bend_c, 1, 8016
12, 52952, Pitch_bend_c, 1, 8192
12, 52992, Note_on_c, 1, 79, 0
12, 52992, Note_on_c, 1, 67, 0
12, 55110, Note_on_c, 1, 83, 109
12, 55111, Note_on_c, 1, 71, 109
12, 55240, Pitch_bend_c, 1, 7952
12, 55244, Pitch_bend_c, 1, 7632
12, 55248, Pitch_bend_c, 1, 7280
12, 55252, Pitch_bend_c, 1, 6944
12, 55255, Pitch_bend_c, 1, 6816
12, 55258, Pitch_bend_c, 1, 6704
12, 55261, Pitch_bend_c, 1, 6528
12, 55264, Pitch_bend_c, 1, 6416
12, 55268, Pitch_bend_c, 1, 6304
12, 55271, Pitch_bend_c, 1, 6240
12, 55281, Pitch_bend_c, 1, 6272
12, 55284, Pitch_bend_c, 1, 6416
12, 55287, Pitch_bend_c, 1, 6848
12, 55290, Pitch_bend_c, 1, 7600
12, 55294, Pitch_bend_c, 1, 8192
12, 55419, Pitch_bend_c, 1, 7888
12, 55423, Pitch_bend_c, 1, 7552
12, 55426, Pitch_bend_c, 1, 7168
12, 55429, Pitch_bend_c, 1, 6816
12, 55432, Pitch_bend_c, 1, 6560
12, 55435, Pitch_bend_c, 1, 6336
12, 55439, Pitch_bend_c, 1, 6128
12, 55442, Pitch_bend_c, 1, 5872
12, 55445, Pitch_bend_c, 1, 5696
12, 55448, Pitch_bend_c, 1, 5600
12, 55451, Pitch_bend_c, 1, 5584
12, 55455, Pitch_bend_c, 1, 5552
12, 55458, Pitch_bend_c, 1, 5488
12, 55461, Pitch_bend_c, 1, 5520
12, 55465, Pitch_bend_c, 1, 5552
12, 55468, Pitch_bend_c, 1, 5728
12, 55471, Pitch_bend_c, 1, 6048
12, 55474, Pitch_bend_c, 1, 6384
12, 55477, Pitch_bend_c, 1, 6800
12, 55480, Pitch_bend_c, 1, 7264
12, 55484, Pitch_bend_c, 1, 7696
12, 55487, Pitch_bend_c, 1, 8016
12, 55491, Pitch_bend_c, 1, 8192
12, 55891, Note_on_c, 1, 71, 0
12, 55895, Note_on_c, 1, 83, 0
12, 58174, Note_on_c, 1, 71, 92
12, 58175, Note_on_c, 1, 83, 101
12, 58315, Pitch_bend_c, 1, 7984
12, 58319, Pitch_bend_c, 1, 7664
12, 58322, Pitch_bend_c, 1, 7232
12, 58325, Pitch_bend_c, 1, 6944
12, 58328, Pitch_bend_c, 1, 6704
12, 58331, Pitch_bend_c, 1, 6448
12, 58335, Pitch_bend_c, 1, 6304
12, 58338, Pitch_bend_c, 1, 6128
12, 58341, Pitch_bend_c, 1, 5952
12, 58344, Pitch_bend_c, 1, 5728
12, 58347, Pitch_bend_c, 1, 5600
12, 58351, Pitch_bend_c, 1, 5520
12, 58354, Pitch_bend_c, 1, 5488
12, 58357, Pitch_bend_c, 1, 5440
12, 58363, Pitch_bend_c, 1, 5520
12, 58367, Pitch_bend_c, 1, 5760
12, 58373, Pitch_bend_c, 1, 6976
12, 58376, Pitch_bend_c, 1, 7888
12, 58379, Pitch_bend_c, 1, 8192
12, 58511, Pitch_bend_c, 1, 7920
12, 58514, Pitch_bend_c, 1, 7552
12, 58517, Pitch_bend_c, 1, 7264
12, 58520, Pitch_bend_c, 1, 6880
12, 58523, Pitch_bend_c, 1, 6672
12, 58527, Pitch_bend_c, 1, 6416
12, 58530, Pitch_bend_c, 1, 6272
12, 58533, Pitch_bend_c, 1, 6128
12, 58536, Pitch_bend_c, 1, 5952
12, 58540, Pitch_bend_c, 1, 5904
12, 58543, Pitch_bend_c, 1, 5872
12, 58546, Pitch_bend_c, 1, 5840
12, 58552, Pitch_bend_c, 1, 5872
12, 58555, Pitch_bend_c, 1, 6128
12, 58559, Pitch_bend_c, 1, 6368
12, 58562, Pitch_bend_c, 1, 6880
12, 58565, Pitch_bend_c, 1, 7552
12, 58568, Pitch_bend_c, 1, 8192
12, 58961, Note_on_c, 1, 83, 0
12, 58970, Note_on_c, 1, 71, 0
12, 61247, Note_on_c, 1, 83, 101
12, 61247, Note_on_c, 1, 71, 96
12, 61382, Pitch_bend_c, 1, 7872
12, 61385, Pitch_bend_c, 1, 7488
12, 61388, Pitch_bend_c, 1, 7232
12, 61391, Pitch_bend_c, 1, 6944
12, 61395, Pitch_bend_c, 1, 6736
12, 61399, Pitch_bend_c, 1, 6560
12, 61402, Pitch_bend_c, 1, 6336
12, 61405, Pitch_bend_c, 1, 6272
12, 61408, Pitch_bend_c, 1, 6192
12, 61411, Pitch_bend_c, 1, 6128
12, 61415, Pitch_bend_c, 1, 6064
12, 61418, Pitch_bend_c, 1, 6096
12, 61421, Pitch_bend_c, 1, 6048
12, 61424, Pitch_bend_c, 1, 6064
12, 61428, Pitch_bend_c, 1, 6192
12, 61431, Pitch_bend_c, 1, 6416
12, 61434, Pitch_bend_c, 1, 6816
12, 61437, Pitch_bend_c, 1, 7376
12, 61442, Pitch_bend_c, 1, 8192
12, 61574, Pitch_bend_c, 1, 8160
12, 61577, Pitch_bend_c, 1, 7840
12, 61580, Pitch_bend_c, 1, 7488
12, 61584, Pitch_bend_c, 1, 7280
12, 61587, Pitch_bend_c, 1, 7024
12, 61590, Pitch_bend_c, 1, 6848
12, 61593, Pitch_bend_c, 1, 6768
12, 61596, Pitch_bend_c, 1, 6672
12, 61599, Pitch_bend_c, 1, 6528
12, 61603, Pitch_bend_c, 1, 6448
12, 61606, Pitch_bend_c, 1, 6336
12, 61609, Pitch_bend_c, 1, 6304
12, 61612, Pitch_bend_c, 1, 6336
12, 61619, Pitch_bend_c, 1, 6304
12, 61622, Pitch_bend_c, 1, 6368
12, 61629, Pitch_bend_c, 1, 6592
12, 61631, Pitch_bend_c, 1, 6816
12, 61635, Pitch_bend_c, 1, 7264
12, 61638, Pitch_bend_c, 1, 7728
12, 61641, Pitch_bend_c, 1, 8128
12, 61645, Pitch_bend_c, 1, 8192
12, 61751, Pitch_bend_c, 1, 8128
12, 61754, Pitch_bend_c, 1, 7872
12, 61757, Pitch_bend_c, 1, 7728
12, 61760, Pitch_bend_c, 1, 7520
12, 61763, Pitch_bend_c, 1, 7312
12, 61770, Pitch_bend_c, 1, 7024
12, 61773, Pitch_bend_c, 1, 6848
12, 61776, Pitch_bend_c, 1, 6816
12, 61780, Pitch_bend_c, 1, 6704
12, 61783, Pitch_bend_c, 1, 6656
12, 61786, Pitch_bend_c, 1, 6528
12, 61796, Pitch_bend_c, 1, 6480
12, 61799, Pitch_bend_c, 1, 6512
12, 61802, Pitch_bend_c, 1, 6528
12, 61806, Pitch_bend_c, 1, 6592
12, 61809, Pitch_bend_c, 1, 6768
12, 61812, Pitch_bend_c, 1, 6992
12, 61815, Pitch_bend_c, 1, 7376
12, 61818, Pitch_bend_c, 1, 7840
12, 61822, Pitch_bend_c, 1, 8192
12, 62198, Note_on_c, 1, 83, 0
12, 62202, Note_on_c, 1, 71, 0
12, 63938, Note_on_c, 1, 69, 125
12, 64121, Note_on_c, 1, 71, 125
12, 64125, Note_on_c, 1, 69, 0
12, 64164, Note_on_c, 1, 71, 0
12, 64184, Note_on_c, 1, 71, 125
12, 64245, Note_on_c, 1, 71, 0
12, 64278, Note_on_c, 1, 69, 125
12, 64324, Note_on_c, 1, 71, 125
12, 64333, Note_on_c, 1, 69, 0
12, 64417, Note_on_c, 1, 74, 125
12, 64422, Note_on_c, 1, 71, 0
12, 64509, Note_on_c, 1, 74, 0
12, 64510, Note_on_c, 1, 71, 125
12, 64843, Note_on_c, 1, 71, 0
12, 64896, Note_on_c, 1, 71, 125
12, 65019, Note_on_c, 1, 71, 0
12, 65023, Note_on_c, 1, 74, 125
12, 65165, Note_on_c, 1, 74, 0
12, 65165, Note_on_c, 1, 79, 125
12, 65285, Note_on_c, 1, 78, 125
12, 65299, Note_on_c, 1, 79, 0
12, 65429, Note_on_c, 1, 75, 125
12, 65438, Note_on_c, 1, 78, 0
12, 65556, Note_on_c, 1, 75, 0
12, 65558, Note_on_c, 1, 71, 125
12, 65624, Note_on_c, 1, 71, 0
12, 65672, Note_on_c, 1, 71, 125
12, 65851, Note_on_c, 1, 71, 0
12, 65856, Note_on_c, 1, 76, 125
12, 65879, Pitch_bend_c, 1, 8832
12, 65882, Pitch_bend_c, 1, 10176
12, 65886, Pitch_bend_c, 1, 11536
12, 65890, Pitch_bend_c, 1, 12400
12, 65893, Pitch_bend_c, 1, 12976
12, 65896, Pitch_bend_c, 1, 13424
12, 65900, Pitch_bend_c, 1, 13696
12, 65903, Pitch_bend_c, 1, 14016
12, 65907, Pitch_bend_c, 1, 14544
12, 65910, Pitch_bend_c, 1, 15200
12, 65914, Pitch_bend_c, 1, 15872
12, 65917, Pitch_bend_c, 1, 16383
12, 66043, Pitch_bend_c, 1, 15328
12, 66047, Pitch_bend_c, 1, 12992
12, 66053, Pitch_bend_c, 1, 8192
12, 66940, Note_on_c, 1, 76, 0
12, 67014, Note_on_c, 1, 74, 125
12, 67196, Note_on_c, 1, 72, 125
12, 67210, Note_on_c, 1, 74, 0
12, 67393, Note_on_c, 1, 71, 125
12, 67406, Note_on_c, 1, 72, 0
12, 67585, Note_on_c, 1, 67, 125
12, 67586, Note_on_c, 1, 71, 0
12, 67736, Note_on_c, 1, 67, 0
12, 67780, Note_on_c, 1, 71, 125
12, 67782, Note_on_c, 1, 69, 125
12, 67787, Note_on_c, 1, 69, 0
12, 67967, Note_on_c, 1, 74, 125
12, 67969, Note_on_c, 1, 71, 0
12, 68151, Note_on_c, 1, 74, 0
12, 68156, Note_on_c, 1, 79, 125
12, 68355, Note_on_c, 1, 79, 0
12, 68363, Note_on_c, 1, 78, 125
12, 68367, Note_on_c, 1, 79, 103
12, 68373, Note_on_c, 1, 79, 0
12, 68553, Note_on_c, 1, 75, 125
12, 68562, Note_on_c, 1, 78, 0
12, 68665, Note_on_c, 1, 75, 0
12, 68745, Note_on_c, 1, 83, 125
12, 68806, Pitch_bend_c, 1, 8496
12, 68809, Pitch_bend_c, 1, 8752
12, 68812, Pitch_bend_c, 1, 9200
12, 68816, Pitch_bend_c, 1, 9568
12, 68819, Pitch_bend_c, 1, 9936
12, 68823, Pitch_bend_c, 1, 10320
12, 68826, Pitch_bend_c, 1, 10656
12, 68830, Pitch_bend_c, 1, 10864
12, 68833, Pitch_bend_c, 1, 11056
12, 68837, Pitch_bend_c, 1, 11200
12, 68840, Pitch_bend_c, 1, 11232
12, 68844, Pitch_bend_c, 1, 11280
12, 68847, Pitch_bend_c, 1, 11424
12, 68850, Pitch_bend_c, 1, 11472
12, 68854, Pitch_bend_c, 1, 11680
12, 68858, Pitch_bend_c, 1, 11872
12, 68861, Pitch_bend_c, 1, 12048
12, 68865, Pitch_bend_c, 1, 12160
12, 68868, Pitch_bend_c, 1, 12240
12, 68871, Pitch_bend_c, 1, 12288
12, 68879, Pitch_bend_c, 1, 12384
12, 68882, Pitch_bend_c, 1, 12288
12, 68889, Pitch_bend_c, 1, 12320
12, 68896, Pitch_bend_c, 1, 12288
12, 68899, Pitch_bend_c, 1, 12272
12, 68903, Pitch_bend_c, 1, 12240
12, 68906, Pitch_bend_c, 1, 12096
12, 68910, Pitch_bend_c, 1, 12064
12, 68913, Pitch_bend_c, 1, 11840
12, 68916, Pitch_bend_c, 1, 11584
12, 68920, Pitch_bend_c, 1, 11312
12, 68923, Pitch_bend_c, 1, 10608
12, 68927, Pitch_bend_c, 1, 9680
12, 68933, Pitch_bend_c, 1, 8192
12, 69542, Note_on_c, 1, 83, 0
12, 69609, Note_on_c, 1, 76, 125
12, 69746, Note_on_c, 1, 76, 0
12, 69748, Note_on_c, 1, 78, 125
12, 69879, Note_on_c, 1, 78, 0
12, 69881, Note_on_c, 1, 79, 120
12, 70094, Note_on_c, 1, 79, 0
12, 81408, Note_on_c, 1, 59, 125
12, 81408, Note_on_c, 1, 52, 125
12, 81409, Note_on_c, 1, 64, 125
12, 81694, Note_on_c, 1, 64, 0
12, 81697, Note_on_c, 1, 62, 114
12, 81698, Note_on_c, 1, 59, 0
12, 81700, Note_on_c, 1, 57, 123
12, 81701, Note_on_c, 1, 50, 120
12, 81707, Note_on_c, 1, 52, 0
12, 82081, Note_on_c, 1, 62, 0
12, 82082, Note_on_c, 1, 48, 106
12, 82082, Note_on_c, 1, 60, 114
12, 82085, Note_on_c, 1, 55, 125
12, 82087, Note_on_c, 1, 57, 0
12, 82089, Note_on_c, 1, 50, 0
12, 82925, Note_on_c, 1, 60, 0
12, 82943, Note_on_c, 1, 48, 0
12, 82943, Note_on_c, 1, 52, 114
12, 82943, Note_on_c, 1, 59, 125
12, 82945, Note_on_c, 1, 55, 0
12, 82945, Note_on_c, 1, 64, 123
12, 83235, Note_on_c, 1, 62, 111
12, 83235, Note_on_c, 1, 50, 106
12, 83238, Note_on_c, 1, 57, 111
12, 83241, Note_on_c, 1, 59, 0
12, 83246, Note_on_c, 1, 52, 0
12, 83254, Note_on_c, 1, 64, 0
12, 83597, Note_on_c, 1, 57, 0
12, 83610, Note_on_c, 1, 62, 0
12, 83613, Note_on_c, 1, 52, 120
12, 83614, Note_on_c, 1, 57, 125
12, 83616, Note_on_c, 1, 50, 0
12, 83617, Note_on_c, 1, 45, 120
12, 84480, Note_on_c, 1, 45, 0
12, 84480, Note_on_c, 1, 57, 0
12, 84480, Note_on_c, 1, 52, 0
12, 84480, End_track
13, 0, Start_track
13, 0, MIDI_port, 0
13, 0, Title_t, ""
13, 0, Control_c, 2, 0, 56
13, 0, Control_c, 2, 32, 0
13, 0, Program_c, 2, 83
13, 0, Control_c, 2, 7, 80
13, 0, Control_c, 2, 10, 64
13, 0, Control_c, 2, 91, 0
13, 0, Control_c, 2, 93, 0
13, 1982, Control_c, 2, 91, 94
13, 1982, Control_c, 2, 93, 64
13, 1982, Control_c, 2, 7, 80
13, 26294, Control_c, 2, 64, 127
13, 26479, Control_c, 2, 64, 0
13, 26495, Note_on_c, 2, 71, 117
13, 26678, Control_c, 2, 64, 127
13, 27444, Pitch_bend_c, 2, 7999
13, 27447, Pitch_bend_c, 2, 7517
13, 27450, Pitch_bend_c, 2, 6939
13, 27454, Pitch_bend_c, 2, 6489
13, 27456, Pitch_bend_c, 2, 6103
13, 27461, Pitch_bend_c, 2, 5814
13, 27475, Pitch_bend_c, 2, 5525
13, 27488, Pitch_bend_c, 2, 5493
13, 27490, Pitch_bend_c, 2, 5300
13, 27494, Pitch_bend_c, 2, 5107
13, 27496, Pitch_bend_c, 2, 4915
13, 27499, Pitch_bend_c, 2, 4722
13, 27503, Pitch_bend_c, 2, 4593
13, 27506, Pitch_bend_c, 2, 4465
13, 27509, Pitch_bend_c, 2, 4369
13, 27513, Pitch_bend_c, 2, 4272
13, 27515, Pitch_bend_c, 2, 4240
13, 27531, Pitch_bend_c, 2, 4272
13, 27534, Pitch_bend_c, 2, 4336
13, 27536, Pitch_bend_c, 2, 4401
13, 27539, Pitch_bend_c, 2, 4497
13, 27542, Pitch_bend_c, 2, 4561
13, 27546, Pitch_bend_c, 2, 4593
13, 27564, Pitch_bend_c, 2, 4626
13, 27571, Pitch_bend_c, 2, 4658
13, 27592, Pitch_bend_c, 2, 4690
13, 27596, Pitch_bend_c, 2, 4754
13, 27599, Pitch_bend_c, 2, 4818
13, 27601, Pitch_bend_c, 2, 4883
13, 27606, Pitch_bend_c, 2, 5011
13, 27609, Pitch_bend_c, 2, 5140
13, 27611, Pitch_bend_c, 2, 5268
13, 27615, Pitch_bend_c, 2, 5461
13, 27617, Pitch_bend_c, 2, 5589
13, 27620, Pitch_bend_c, 2, 5750
13, 27623, Pitch_bend_c, 2, 5943
13, 27626, Pitch_bend_c, 2, 6103
13, 27629, Pitch_bend_c, 2, 6328
13, 27633, Pitch_bend_c, 2, 6489
13, 27636, Pitch_bend_c, 2, 6714
13, 27639, Pitch_bend_c, 2, 6842
13, 27641, Pitch_bend_c, 2, 7163
13, 27645, Pitch_bend_c, 2, 7324
13, 27648, Pitch_bend_c, 2, 7517
13, 27653, Pitch_bend_c, 2, 7645
13, 27667, Pitch_bend_c, 2, 8192
13, 27838, Control_c, 2, 64, 0
13, 27926, Control_c, 2, 64, 127
13, 28315, Note_on_c, 2, 70, 69
13, 28327, Note_on_c, 2, 71, 0
13, 28352, Control_c, 2, 64, 0
13, 28361, Note_on_c, 2, 70, 0
13, 28366, Note_on_c, 2, 71, 80
13, 28407, Note_on_c, 2, 72, 90
13, 28421, Note_on_c, 2, 71, 0
13, 28621, Control_c, 2, 64, 127
13, 29180, Note_on_c, 2, 71, 97
13, 29206, Note_on_c, 2, 72, 0
13, 29207, Control_c, 2, 64, 0
13, 29389, Control_c, 2, 64, 127
13, 29905, Note_on_c, 2, 71, 0
13, 29971, Note_on_c, 2, 71, 90
13, 29988, Note_on_c, 2, 71, 0
13, 30502, Pitch_bend_c, 2, 7677
13, 30505, Pitch_bend_c, 2, 7163
13, 30508, Pitch_bend_c, 2, 6521
13, 30510, Pitch_bend_c, 2, 5911
13, 30513, Pitch_bend_c, 2, 5300
13, 30516, Pitch_bend_c, 2, 4722
13, 30520, Pitch_bend_c, 2, 4369
13, 30523, Pitch_bend_c, 2, 4047
13, 30526, Pitch_bend_c, 2, 3855
13, 30529, Pitch_bend_c, 2, 3822
13, 30545, Pitch_bend_c, 2, 3855
13, 30547, Pitch_bend_c, 2, 3919
13, 30550, Pitch_bend_c, 2, 3983
13, 30560, Pitch_bend_c, 2, 3951
13, 30563, Pitch_bend_c, 2, 3855
13, 30566, Pitch_bend_c, 2, 3790
13, 30570, Pitch_bend_c, 2, 3630
13, 30573, Pitch_bend_c, 2, 3501
13, 30575, Pitch_bend_c, 2, 3405
13, 30579, Pitch_bend_c, 2, 3373
13, 30593, Pitch_bend_c, 2, 3405
13, 30597, Pitch_bend_c, 2, 3501
13, 30600, Pitch_bend_c, 2, 3662
13, 30603, Pitch_bend_c, 2, 3758
13, 30607, Pitch_bend_c, 2, 3855
13, 30610, Pitch_bend_c, 2, 3951
13, 30613, Pitch_bend_c, 2, 4047
13, 30615, Pitch_bend_c, 2, 4144
13, 30618, Pitch_bend_c, 2, 4240
13, 30621, Pitch_bend_c, 2, 4304
13, 30625, Pitch_bend_c, 2, 4336
13, 30629, Pitch_bend_c, 2, 4369
13, 30632, Pitch_bend_c, 2, 4433
13, 30635, Pitch_bend_c, 2, 4497
13, 30637, Pitch_bend_c, 2, 4561
13, 30640, Pitch_bend_c, 2, 4593
13, 30643, Pitch_bend_c, 2, 4690
13, 30647, Pitch_bend_c, 2, 4850
13, 30650, Pitch_bend_c, 2, 4947
13, 30653, Pitch_bend_c, 2, 5140
13, 30655, Pitch_bend_c, 2, 5332
13, 30659, Pitch_bend_c, 2, 5493
13, 30662, Pitch_bend_c, 2, 5589
13, 30665, Pitch_bend_c, 2, 5654
13, 30668, Pitch_bend_c, 2, 5718
13, 30672, Pitch_bend_c, 2, 5782
13, 30675, Pitch_bend_c, 2, 5846
13, 30679, Pitch_bend_c, 2, 5878
13, 30680, Pitch_bend_c, 2, 5943
13, 30684, Pitch_bend_c, 2, 6007
13, 30687, Pitch_bend_c, 2, 6103
13, 30690, Pitch_bend_c, 2, 6168
13, 30693, Pitch_bend_c, 2, 6360
13, 30696, Pitch_bend_c, 2, 6489
13, 30699, Pitch_bend_c, 2, 6714
13, 30703, Pitch_bend_c, 2, 6842
13, 30705, Pitch_bend_c, 2, 7163
13, 30708, Pitch_bend_c, 2, 7324
13, 30712, Pitch_bend_c, 2, 7549
13, 30715, Pitch_bend_c, 2, 7677
13, 30717, Pitch_bend_c, 2, 7838
13, 30721, Pitch_bend_c, 2, 8031
13, 30725, Pitch_bend_c, 2, 8192
13, 31384, Note_on_c, 2, 70, 86
13, 31422, Note_on_c, 2, 70, 0
13, 31431, Note_on_c, 2, 71, 90
13, 31441, Control_c, 2, 64, 0
13, 31473, Note_on_c, 2, 72, 107
13, 31487, Note_on_c, 2, 71, 0
13, 31675, Control_c, 2, 64, 127
13, 32248, Note_on_c, 2, 71, 82
13, 32250, Control_c, 2, 64, 0
13, 32253, Note_on_c, 2, 72, 0
13, 32441, Control_c, 2, 64, 127
13, 32641, Note_on_c, 2, 74, 92
13, 32755, Control_c, 2, 64, 0
13, 32857, Control_c, 2, 64, 127
13, 33020, Control_c, 2, 64, 0
13, 33021, Note_on_c, 2, 75, 109
13, 33039, Note_on_c, 2, 74, 0
13, 33241, Control_c, 2, 64, 127
13, 33809, Note_on_c, 2, 75, 0
13, 33809, Note_on_c, 2, 76, 99
13, 33810, Control_c, 2, 64, 0
13, 33981, Control_c, 2, 64, 127
13, 34345, Note_on_c, 2, 71, 0
13, 34472, Note_on_c, 2, 70, 81
13, 34519, Note_on_c, 2, 71, 83
13, 34523, Note_on_c, 2, 70, 0
13, 34566, Note_on_c, 2, 72, 101
13, 34567, Control_c, 2, 64, 0
13, 34628, Note_on_c, 2, 71, 0
13, 34786, Control_c, 2, 64, 127
13, 35319, Note_on_c, 2, 71, 67
13, 35321, Note_on_c, 2, 74, 75
13, 35350, Note_on_c, 2, 72, 0
13, 35350, Note_on_c, 2, 76, 0
13, 35357, Control_c, 2, 64, 0
13, 35507, Control_c, 2, 64, 127
13, 35661, Note_on_c, 2, 74, 0
13, 35705, Note_on_c, 2, 74, 82
13, 36116, Note_on_c, 2, 74, 0
13, 36116, Note_on_c, 2, 75, 96
13, 36117, Control_c, 2, 64, 0
13, 36344, Control_c, 2, 64, 127
13, 36743, Note_on_c, 2, 75, 0
13, 36757, Note_on_c, 2, 71, 0
13, 36854, Note_on_c, 2, 76, 86
13, 36856, Note_on_c, 2, 71, 79
13, 36868, Control_c, 2, 64, 0
13, 37075, Control_c, 2, 64, 127
13, 37313, Note_on_c, 2, 71, 0
13, 37313, Note_on_c, 2, 76, 0
13, 37658, Control_c, 2, 64, 0
13, 37658, End_track
14, 0, Start_track
14, 0, MIDI_port, 0
14, 0, Title_t, ""
14, 0, Control_c, 5, 0, 56
14, 0, Control_c, 5, 32, 0
14, 0, Program_c, 5, 5
14, 0, Control_c, 5, 7, 70
14, 0, Control_c, 5, 10, 40
14, 0, Control_c, 5, 91, 0
14, 0, Control_c, 5, 93, 0
14, 1982, Control_c, 5, 91, 0
14, 1982, Control_c, 5, 93, 0
14, 1982, Control_c, 5, 10, 40
14, 1982, Control_c, 5, 7, 70
14, 5376, Note_on_c, 5, 67, 99
14, 5376, Note_on_c, 5, 59, 106
14, 5376, Note_on_c, 5, 62, 111
14, 5518, Note_on_c, 5, 62, 0
14, 5520, Note_on_c, 5, 67, 0
14, 5521, Note_on_c, 5, 59, 0
14, 5952, Note_on_c, 5, 67, 114
14, 5952, Note_on_c, 5, 59, 109
14, 5952, Note_on_c, 5, 62, 114
14, 6038, Note_on_c, 5, 62, 0
14, 6044, Note_on_c, 5, 59, 0
14, 6052, Note_on_c, 5, 67, 0
14, 6144, Note_on_c, 5, 63, 111
14, 6144, Note_on_c, 5, 57, 111
14, 6144, Note_on_c, 5, 66, 111
14, 6272, Note_on_c, 5, 66, 0
14, 6272, Note_on_c, 5, 57, 0
14, 6288, Note_on_c, 5, 63, 0
14, 6720, Note_on_c, 5, 57, 106
14, 6720, Note_on_c, 5, 63, 118
14, 6720, Note_on_c, 5, 66, 122
14, 6797, Note_on_c, 5, 66, 0
14, 6800, Note_on_c, 5, 63, 0
14, 6805, Note_on_c, 5, 57, 0
14, 6912, Note_on_c, 5, 55, 103
14, 6912, Note_on_c, 5, 59, 111
14, 6912, Note_on_c, 5, 64, 116
14, 7057, Note_on_c, 5, 59, 0
14, 7063, Note_on_c, 5, 64, 0
14, 7063, Note_on_c, 5, 55, 0
14, 7488, Note_on_c, 5, 59, 127
14, 7488, Note_on_c, 5, 55, 109
14, 7488, Note_on_c, 5, 64, 109
14, 7571, Note_on_c, 5, 64, 0
14, 7575, Note_on_c, 5, 59, 0
14, 7576, Note_on_c, 5, 55, 0
14, 7680, Note_on_c, 5, 64, 114
14, 7680, Note_on_c, 5, 55, 106
14, 7680, Note_on_c, 5, 60, 127
14, 7818, Note_on_c, 5, 64, 0
14, 7819, Note_on_c, 5, 60, 0
14, 7820, Note_on_c, 5, 55, 0
14, 8256, Note_on_c, 5, 64, 111
14, 8256, Note_on_c, 5, 60, 116
14, 8256, Note_on_c, 5, 55, 96
14, 8344, Note_on_c, 5, 64, 0
14, 8345, Note_on_c, 5, 60, 0
14, 8346, Note_on_c, 5, 55, 0
14, 8448, Note_on_c, 5, 67, 111
14, 8448, Note_on_c, 5, 59, 106
14, 8448, Note_on_c, 5, 62, 116
14, 8574, Note_on_c, 5, 62, 0
14, 8576, Note_on_c, 5, 67, 0
14, 8579, Note_on_c, 5, 59, 0
14, 9024, Note_on_c, 5, 62, 99
14, 9024, Note_on_c, 5, 59, 103
14, 9024, Note_on_c, 5, 67, 96
14, 9104, Note_on_c, 5, 59, 0
14, 9104, Note_on_c, 5, 62, 0
14, 9110, Note_on_c, 5, 67, 0
14, 9216, Note_on_c, 5, 57, 103
14, 9216, Note_on_c, 5, 63, 127
14, 9216, Note_on_c, 5, 66, 107
14, 9333, Note_on_c, 5, 66, 0
14, 9335, Note_on_c, 5, 63, 0
14, 9340, Note_on_c, 5, 57, 0
14, 9792, Note_on_c, 5, 57, 111
14, 9792, Note_on_c, 5, 63, 122
14, 9792, Note_on_c, 5, 66, 110
14, 9868, Note_on_c, 5, 66, 0
14, 9868, Note_on_c, 5, 63, 0
14, 9887, Note_on_c, 5, 57, 0
14, 9984, Note_on_c, 5, 55, 109
14, 9984, Note_on_c, 5, 64, 120
14, 9984, Note_on_c, 5, 59, 127
14, 10107, Note_on_c, 5, 59, 0
14, 10109, Note_on_c, 5, 64, 0
14, 10111, Note_on_c, 5, 55, 0
14, 10560, Note_on_c, 5, 55, 109
14, 10560, Note_on_c, 5, 59, 101
14, 10560, Note_on_c, 5, 64, 114
14, 10654, Note_on_c, 5, 64, 0
14, 10655, Note_on_c, 5, 55, 0
14, 10662, Note_on_c, 5, 59, 0
14, 10752, Note_on_c, 5, 55, 111
14, 10752, Note_on_c, 5, 60, 127
14, 10752, Note_on_c, 5, 64, 114
14, 10898, Note_on_c, 5, 55, 0
14, 10900, Note_on_c, 5, 60, 0
14, 10902, Note_on_c, 5, 64, 0
14, 11328, Note_on_c, 5, 64, 126
14, 11328, Note_on_c, 5, 60, 127
14, 11328, Note_on_c, 5, 55, 106
14, 11421, Note_on_c, 5, 55, 0
14, 11421, Note_on_c, 5, 60, 0
14, 11423, Note_on_c, 5, 64, 0
14, 11520, Note_on_c, 5, 62, 116
14, 11520, Note_on_c, 5, 67, 109
14, 11520, Note_on_c, 5, 59, 103
14, 11634, Note_on_c, 5, 62, 0
14, 11637, Note_on_c, 5, 67, 0
14, 11642, Note_on_c, 5, 59, 0
14, 12096, Note_on_c, 5, 62, 127
14, 12096, Note_on_c, 5, 67, 111
14, 12096, Note_on_c, 5, 59, 114
14, 12176, Note_on_c, 5, 62, 0
14, 12185, Note_on_c, 5, 59, 0
14, 12204, Note_on_c, 5, 67, 0
14, 12288, Note_on_c, 5, 57, 106
14, 12288, Note_on_c, 5, 63, 127
14, 12288, Note_on_c, 5, 66, 114
14, 12419, Note_on_c, 5, 63, 0
14, 12421, Note_on_c, 5, 66, 0
14, 12426, Note_on_c, 5, 57, 0
14, 12864, Note_on_c, 5, 57, 111
14, 12864, Note_on_c, 5, 63, 127
14, 12864, Note_on_c, 5, 66, 122
14, 12944, Note_on_c, 5, 66, 0
14, 12945, Note_on_c, 5, 63, 0
14, 12954, Note_on_c, 5, 57, 0
14, 13056, Note_on_c, 5, 55, 114
14, 13056, Note_on_c, 5, 59, 127
14, 13056, Note_on_c, 5, 64, 114
14, 13192, Note_on_c, 5, 59, 0
14, 13196, Note_on_c, 5, 55, 0
14, 13201, Note_on_c, 5, 64, 0
14, 13632, Note_on_c, 5, 55, 116
14, 13632, Note_on_c, 5, 64, 116
14, 13632, Note_on_c, 5, 59, 127
14, 13706, Note_on_c, 5, 64, 0
14, 13709, Note_on_c, 5, 55, 0
14, 13714, Note_on_c, 5, 59, 0
14, 13824, Note_on_c, 5, 55, 106
14, 13824, Note_on_c, 5, 64, 114
14, 13824, Note_on_c, 5, 60, 126
14, 13980, Note_on_c, 5, 55, 0
14, 13981, Note_on_c, 5, 60, 0
14, 13983, Note_on_c, 5, 64, 0
14, 14400, Note_on_c, 5, 64, 120
14, 14400, Note_on_c, 5, 60, 126
14, 14400, Note_on_c, 5, 55, 111
14, 14484, Note_on_c, 5, 60, 0
14, 14484, Note_on_c, 5, 64, 0
14, 14485, Note_on_c, 5, 55, 0
14, 14592, Note_on_c, 5, 62, 116
14, 14592, Note_on_c, 5, 67, 116
14, 14592, Note_on_c, 5, 59, 114
14, 14730, Note_on_c, 5, 62, 0
14, 14736, Note_on_c, 5, 59, 0
14, 14736, Note_on_c, 5, 67, 0
14, 15168, Note_on_c, 5, 62, 116
14, 15168, Note_on_c, 5, 59, 114
14, 15168, Note_on_c, 5, 67, 111
14, 15246, Note_on_c, 5, 62, 0
14, 15254, Note_on_c, 5, 59, 0
14, 15265, Note_on_c, 5, 67, 0
14, 15360, Note_on_c, 5, 66, 107
14, 15360, Note_on_c, 5, 63, 118
14, 15360, Note_on_c, 5, 57, 101
14, 15516, Note_on_c, 5, 66, 0
14, 15519, Note_on_c, 5, 63, 0
14, 15522, Note_on_c, 5, 57, 0
14, 15936, Note_on_c, 5, 57, 106
14, 15936, Note_on_c, 5, 66, 122
14, 15936, Note_on_c, 5, 63, 125
14, 16019, Note_on_c, 5, 66, 0
14, 16020, Note_on_c, 5, 63, 0
14, 16025, Note_on_c, 5, 57, 0
14, 16128, Note_on_c, 5, 59, 120
14, 16128, Note_on_c, 5, 55, 109
14, 16128, Note_on_c, 5, 64, 114
14, 16254, Note_on_c, 5, 59, 0
14, 16261, Note_on_c, 5, 55, 0
14, 16263, Note_on_c, 5, 64, 0
14, 16656, Control_c, 5, 10, 39
14, 16704, Note_on_c, 5, 59, 127
14, 16704, Note_on_c, 5, 55, 109
14, 16704, Note_on_c, 5, 64, 114
14, 16717, Control_c, 5, 10, 42
14, 16732, Control_c, 5, 10, 45
14, 16740, Control_c, 5, 10, 47
14, 16752, Control_c, 5, 10, 50
14, 16791, Note_on_c, 5, 59, 0
14, 16793, Note_on_c, 5, 55, 0
14, 16801, Note_on_c, 5, 64, 0
14, 16836, Control_c, 5, 10, 50
14, 16850, Control_c, 5, 10, 53
14, 16867, Control_c, 5, 10, 56
14, 16896, Note_on_c, 5, 55, 101
14, 16896, Note_on_c, 5, 64, 114
14, 16896, Note_on_c, 5, 60, 126
14, 16897, Control_c, 5, 10, 58
14, 16924, Control_c, 5, 10, 61
14, 16987, Control_c, 5, 10, 64
14, 17012, Control_c, 5, 10, 67
14, 17044, Note_on_c, 5, 55, 0
14, 17045, Note_on_c, 5, 60, 0
14, 17046, Note_on_c, 5, 64, 0
14, 17050, Control_c, 5, 10, 70
14, 17084, Control_c, 5, 10, 72
14, 17145, Control_c, 5, 10, 75
14, 17169, Control_c, 5, 10, 78
14, 17188, Control_c, 5, 10, 81
14, 17232, Control_c, 5, 10, 81
14, 17243, Control_c, 5, 10, 83
14, 17404, Control_c, 5, 10, 86
14, 17472, Note_on_c, 5, 60, 126
14, 17472, Note_on_c, 5, 55, 106
14, 17472, Note_on_c, 5, 64, 116
14, 17560, Note_on_c, 5, 60, 0
14, 17562, Note_on_c, 5, 55, 0
14, 17565, Note_on_c, 5, 64, 0
14, 17664, Note_on_c, 5, 62, 120
14, 17664, Note_on_c, 5, 59, 127
14, 17664, Note_on_c, 5, 55, 126
14, 17817, Note_on_c, 5, 59, 0
14, 17818, Note_on_c, 5, 62, 0
14, 17821, Note_on_c, 5, 55, 0
14, 18240, Note_on_c, 5, 67, 116
14, 18240, Note_on_c, 5, 62, 126
14, 18240, Note_on_c, 5, 59, 116
14, 18325, Note_on_c, 5, 62, 0
14, 18330, Note_on_c, 5, 59, 0
14, 18331, Note_on_c, 5, 67, 0
14, 18432, Note_on_c, 5, 66, 127
14, 18432, Note_on_c, 5, 57, 116
14, 18432, Note_on_c, 5, 63, 127
14, 18548, Note_on_c, 5, 63, 0
14, 18548, Note_on_c, 5, 66, 0
14, 18552, Note_on_c, 5, 57, 0
14, 19008, Note_on_c, 5, 63, 127
14, 19008, Note_on_c, 5, 66, 125
14, 19008, Note_on_c, 5, 57, 114
14, 19090, Note_on_c, 5, 63, 0
14, 19092, Note_on_c, 5, 66, 0
14, 19098, Note_on_c, 5, 57, 0
14, 19200, Note_on_c, 5, 59, 127
14, 19200, Note_on_c, 5, 55, 120
14, 19200, Note_on_c, 5, 64, 116
14, 19344, Note_on_c, 5, 64, 0
14, 19344, Note_on_c, 5, 55, 0
14, 19344, Note_on_c, 5, 59, 0
14, 19968, Note_on_c, 5, 59, 103
14, 20016, Note_on_c, 5, 60, 69
14, 20017, Note_on_c, 5, 59, 0
14, 20062, Note_on_c, 5, 60, 0
14, 20064, Note_on_c, 5, 64, 89
14, 20111, Note_on_c, 5, 64, 0
14, 20112, Note_on_c, 5, 59, 88
14, 20160, Note_on_c, 5, 60, 88
14, 20165, Note_on_c, 5, 59, 0
14, 20208, Note_on_c, 5, 64, 73
14, 20218, Note_on_c, 5, 60, 0
14, 20247, Note_on_c, 5, 64, 0
14, 20256, Note_on_c, 5, 59, 86
14, 20304, Note_on_c, 5, 60, 85
14, 20319, Note_on_c, 5, 59, 0
14, 20352, Note_on_c, 5, 64, 83
14, 20358, Note_on_c, 5, 60, 0
14, 20399, Note_on_c, 5, 64, 0
14, 20400, Note_on_c, 5, 59, 80
14, 20448, Note_on_c, 5, 60, 69
14, 20465, Note_on_c, 5, 59, 0
14, 20496, Note_on_c, 5, 64, 80
14, 20501, Note_on_c, 5, 60, 0
14, 20542, Note_on_c, 5, 64, 0
14, 20544, Note_on_c, 5, 59, 96
14, 20592, Note_on_c, 5, 60, 76
14, 20604, Note_on_c, 5, 59, 0
14, 20640, Note_on_c, 5, 64, 78
14, 20646, Note_on_c, 5, 60, 0
14, 20685, Note_on_c, 5, 64, 0
14, 20688, Note_on_c, 5, 59, 89
14, 20736, Note_on_c, 5, 60, 86
14, 20751, Note_on_c, 5, 59, 0
14, 20784, Note_on_c, 5, 64, 76
14, 20789, Note_on_c, 5, 60, 0
14, 20831, Note_on_c, 5, 64, 0
14, 20832, Note_on_c, 5, 59, 94
14, 20880, Note_on_c, 5, 60, 76
14, 20892, Note_on_c, 5, 59, 0
14, 20928, Note_on_c, 5, 64, 89
14, 20940, Note_on_c, 5, 60, 0
14, 20975, Note_on_c, 5, 64, 0
14, 20976, Note_on_c, 5, 59, 89
14, 21024, Note_on_c, 5, 60, 86
14, 21042, Note_on_c, 5, 59, 0
14, 21072, Note_on_c, 5, 64, 88
14, 21076, Note_on_c, 5, 60, 0
14, 21120, Note_on_c, 5, 59, 96
14, 21121, Note_on_c, 5, 64, 0
14, 21168, Note_on_c, 5, 60, 75
14, 21184, Note_on_c, 5, 59, 0
14, 21216, Note_on_c, 5, 64, 88
14, 21221, Note_on_c, 5, 60, 0
14, 21264, Note_on_c, 5, 59, 103
14, 21265, Note_on_c, 5, 64, 0
14, 21312, Note_on_c, 5, 60, 83
14, 21319, Note_on_c, 5, 59, 0
14, 21360, Note_on_c, 5, 64, 99
14, 21369, Note_on_c, 5, 60, 0
14, 21407, Note_on_c, 5, 64, 0
14, 21408, Note_on_c, 5, 59, 96
14, 21456, Note_on_c, 5, 60, 87
14, 21463, Note_on_c, 5, 59, 0
14, 21496, Note_on_c, 5, 60, 0
14, 21504, Note_on_c, 5, 59, 111
14, 21548, Note_on_c, 5, 59, 0
14, 21552, Note_on_c, 5, 63, 103
14, 21600, Note_on_c, 5, 63, 0
14, 21600, Note_on_c, 5, 66, 114
14, 21641, Note_on_c, 5, 66, 0
14, 21648, Note_on_c, 5, 59, 101
14, 21696, Note_on_c, 5, 63, 96
14, 21716, Note_on_c, 5, 59, 0
14, 21744, Note_on_c, 5, 66, 93
14, 21749, Note_on_c, 5, 63, 0
14, 21784, Note_on_c, 5, 66, 0
14, 21792, Note_on_c, 5, 59, 89
14, 21840, Note_on_c, 5, 63, 99
14, 21855, Note_on_c, 5, 59, 0
14, 21888, Note_on_c, 5, 66, 99
14, 21899, Note_on_c, 5, 63, 0
14, 21933, Note_on_c, 5, 66, 0
14, 21936, Note_on_c, 5, 59, 101
14, 21984, Note_on_c, 5, 63, 97
14, 22001, Note_on_c, 5, 59, 0
14, 22032, Note_on_c, 5, 66, 103
14, 22038, Note_on_c, 5, 63, 0
14, 22074, Note_on_c, 5, 66, 0
14, 22080, Note_on_c, 5, 59, 106
14, 22128, Note_on_c, 5, 63, 103
14, 22153, Note_on_c, 5, 59, 0
14, 22176, Note_on_c, 5, 66, 110
14, 22177, Note_on_c, 5, 63, 0
14, 22214, Note_on_c, 5, 66, 0
14, 22224, Note_on_c, 5, 63, 92
14, 22259, Note_on_c, 5, 63, 0
14, 22272, Note_on_c, 5, 55, 96
14, 22320, Note_on_c, 5, 59, 94
14, 22330, Note_on_c, 5, 55, 0
14, 22368, Note_on_c, 5, 64, 106
14, 22377, Note_on_c, 5, 59, 0
14, 22411, Note_on_c, 5, 64, 0
14, 22416, Note_on_c, 5, 55, 81
14, 22464, Note_on_c, 5, 59, 106
14, 22484, Note_on_c, 5, 55, 0
14, 22509, Note_on_c, 5, 59, 0
14, 22512, Note_on_c, 5, 64, 88
14, 22560, Note_on_c, 5, 55, 88
14, 22574, Note_on_c, 5, 64, 0
14, 22608, Note_on_c, 5, 59, 78
14, 22620, Note_on_c, 5, 55, 0
14, 22656, Note_on_c, 5, 64, 92
14, 22660, Note_on_c, 5, 59, 0
14, 22704, Note_on_c, 5, 55, 92
14, 22709, Note_on_c, 5, 64, 0
14, 22752, Note_on_c, 5, 59, 92
14, 22769, Note_on_c, 5, 55, 0
14, 22800, Note_on_c, 5, 64, 96
14, 22807, Note_on_c, 5, 59, 0
14, 22848, Note_on_c, 5, 55, 94
14, 22861, Note_on_c, 5, 64, 0
14, 22896, Note_on_c, 5, 59, 88
14, 22916, Note_on_c, 5, 55, 0
14, 22944, Note_on_c, 5, 64, 89
14, 22956, Note_on_c, 5, 59, 0
14, 22992, Note_on_c, 5, 55, 89
14, 23002, Note_on_c, 5, 64, 0
14, 23024, Note_on_c, 5, 55, 0
14, 23040, Note_on_c, 5, 59, 93
14, 23088, Note_on_c, 5, 60, 70
14, 23097, Note_on_c, 5, 59, 0
14, 23132, Note_on_c, 5, 60, 0
14, 23136, Note_on_c, 5, 64, 81
14, 23184, Note_on_c, 5, 59, 101
14, 23185, Note_on_c, 5, 64, 0
14, 23232, Note_on_c, 5, 60, 85
14, 23247, Note_on_c, 5, 59, 0
14, 23280, Note_on_c, 5, 64, 86
14, 23282, Note_on_c, 5, 60, 0
14, 23328, Note_on_c, 5, 64, 0
14, 23328, Note_on_c, 5, 59, 96
14, 23376, Note_on_c, 5, 60, 81
14, 23390, Note_on_c, 5, 59, 0
14, 23424, Note_on_c, 5, 64, 80
14, 23426, Note_on_c, 5, 60, 0
14, 23472, Note_on_c, 5, 59, 78
14, 23479, Note_on_c, 5, 64, 0
14, 23520, Note_on_c, 5, 60, 74
14, 23540, Note_on_c, 5, 59, 0
14, 23568, Note_on_c, 5, 64, 71
14, 23575, Note_on_c, 5, 60, 0
14, 23616, Note_on_c, 5, 59, 96
14, 23622, Note_on_c, 5, 64, 0
14, 23664, Note_on_c, 5, 60, 65
14, 23681, Note_on_c, 5, 59, 0
14, 23712, Note_on_c, 5, 64, 76
14, 23722, Note_on_c, 5, 60, 0
14, 23757, Note_on_c, 5, 64, 0
14, 23760, Note_on_c, 5, 59, 83
14, 23808, Note_on_c, 5, 60, 64
14, 23825, Note_on_c, 5, 59, 0
14, 23856, Note_on_c, 5, 64, 72
14, 23858, Note_on_c, 5, 60, 0
14, 23904, Note_on_c, 5, 59, 94
14, 23912, Note_on_c, 5, 64, 0
14, 23952, Note_on_c, 5, 60, 73
14, 23971, Note_on_c, 5, 59, 0
14, 24000, Note_on_c, 5, 64, 81
14, 24010, Note_on_c, 5, 60, 0
14, 24048, Note_on_c, 5, 64, 0
14, 24048, Note_on_c, 5, 59, 86
14, 24096, Note_on_c, 5, 60, 71
14, 24111, Note_on_c, 5, 59, 0
14, 24144, Note_on_c, 5, 64, 74
14, 24151, Note_on_c, 5, 60, 0
14, 24192, Note_on_c, 5, 59, 86
14, 24200, Note_on_c, 5, 64, 0
14, 24240, Note_on_c, 5, 60, 67
14, 24268, Note_on_c, 5, 59, 0
14, 24288, Note_on_c, 5, 64, 75
14, 24294, Note_on_c, 5, 60, 0
14, 24336, Note_on_c, 5, 64, 0
14, 24336, Note_on_c, 5, 59, 94
14, 24384, Note_on_c, 5, 60, 78
14, 24404, Note_on_c, 5, 59, 0
14, 24432, Note_on_c, 5, 64, 78
14, 24443, Note_on_c, 5, 60, 0
14, 24479, Note_on_c, 5, 64, 0
14, 24480, Note_on_c, 5, 59, 94
14, 24528, Note_on_c, 5, 60, 68
14, 24539, Note_on_c, 5, 59, 0
14, 24563, Note_on_c, 5, 60, 0
14, 24576, Note_on_c, 5, 59, 116
14, 24624, Note_on_c, 5, 63, 97
14, 24636, Note_on_c, 5, 59, 0
14, 24672, Note_on_c, 5, 66, 95
14, 24674, Note_on_c, 5, 63, 0
14, 24720, Note_on_c, 5, 66, 0
14, 24720, Note_on_c, 5, 59, 88
14, 24768, Note_on_c, 5, 63, 95
14, 24800, Note_on_c, 5, 59, 0
14, 24816, Note_on_c, 5, 66, 76
14, 24834, Note_on_c, 5, 63, 0
14, 24862, Note_on_c, 5, 66, 0
14, 24864, Note_on_c, 5, 59, 99
14, 24912, Note_on_c, 5, 63, 103
14, 24935, Note_on_c, 5, 59, 0
14, 24960, Note_on_c, 5, 66, 110
14, 24978, Note_on_c, 5, 63, 0
14, 25000, Note_on_c, 5, 66, 0
14, 25008, Note_on_c, 5, 59, 101
14, 25056, Note_on_c, 5, 63, 99
14, 25071, Note_on_c, 5, 59, 0
14, 25104, Note_on_c, 5, 66, 97
14, 25119, Note_on_c, 5, 63, 0
14, 25152, Note_on_c, 5, 59, 96
14, 25155, Note_on_c, 5, 66, 0
14, 25200, Note_on_c, 5, 63, 74
14, 25229, Note_on_c, 5, 59, 0
14, 25248, Note_on_c, 5, 66, 107
14, 25252, Note_on_c, 5, 63, 0
14, 25284, Note_on_c, 5, 66, 0
14, 25344, Note_on_c, 5, 52, 99
14, 25382, Note_on_c, 5, 52, 0
14, 25392, Note_on_c, 5, 52, 88
14, 25440, Note_on_c, 5, 55, 76
14, 25449, Note_on_c, 5, 52, 0
14, 25481, Note_on_c, 5, 55, 0
14, 25488, Note_on_c, 5, 52, 66
14, 25535, Note_on_c, 5, 52, 0
14, 25536, Note_on_c, 5, 57, 88
14, 25581, Note_on_c, 5, 57, 0
14, 25584, Note_on_c, 5, 52, 80
14, 25632, Note_on_c, 5, 59, 99
14, 25639, Note_on_c, 5, 52, 0
14, 25669, Note_on_c, 5, 59, 0
14, 25680, Note_on_c, 5, 52, 94
14, 25715, Note_on_c, 5, 52, 0
14, 26112, Note_on_c, 5, 67, 99
14, 26112, Note_on_c, 5, 59, 106
14, 26112, Note_on_c, 5, 62, 111
14, 26254, Note_on_c, 5, 62, 0
14, 26256, Note_on_c, 5, 67, 0
14, 26257, Note_on_c, 5, 59, 0
14, 26688, Note_on_c, 5, 67, 114
14, 26688, Note_on_c, 5, 59, 109
14, 26688, Note_on_c, 5, 62, 114
14, 26774, Note_on_c, 5, 62, 0
14, 26780, Note_on_c, 5, 59, 0
14, 26788, Note_on_c, 5, 67, 0
14, 26880, Note_on_c, 5, 63, 111
14, 26880, Note_on_c, 5, 57, 111
14, 26880, Note_on_c, 5, 66, 111
14, 27008, Note_on_c, 5, 66, 0
14, 27008, Note_on_c, 5, 57, 0
14, 27024, Note_on_c, 5, 63, 0
14, 27456, Note_on_c, 5, 57, 106
14, 27456, Note_on_c, 5, 63, 118
14, 27456, Note_on_c, 5, 66, 122
14, 27533, Note_on_c, 5, 66, 0
14, 27536, Note_on_c, 5, 63, 0
14, 27541, Note_on_c, 5, 57, 0
14, 27648, Note_on_c, 5, 55, 103
14, 27648, Note_on_c, 5, 59, 111
14, 27648, Note_on_c, 5, 64, 116
14, 27793, Note_on_c, 5, 59, 0
14, 27799, Note_on_c, 5, 64, 0
14, 27799, Note_on_c, 5, 55, 0
14, 28224, Note_on_c, 5, 59, 127
14, 28224, Note_on_c, 5, 55, 109
14, 28224, Note_on_c, 5, 64, 109
14, 28307, Note_on_c, 5, 64, 0
14, 28311, Note_on_c, 5, 59, 0
14, 28312, Note_on_c, 5, 55, 0
14, 28416, Note_on_c, 5, 64, 114
14, 28416, Note_on_c, 5, 55, 106
14, 28416, Note_on_c, 5, 60, 127
14, 28554, Note_on_c, 5, 64, 0
14, 28555, Note_on_c, 5, 60, 0
14, 28556, Note_on_c, 5, 55, 0
14, 28992, Note_on_c, 5, 64, 111
14, 28992, Note_on_c, 5, 60, 116
14, 28992, Note_on_c, 5, 55, 96
14, 29080, Note_on_c, 5, 64, 0
14, 29081, Note_on_c, 5, 60, 0
14, 29082, Note_on_c, 5, 55, 0
14, 29184, Note_on_c, 5, 67, 111
14, 29184, Note_on_c, 5, 59, 106
14, 29184, Note_on_c, 5, 62, 116
14, 29310, Note_on_c, 5, 62, 0
14, 29312, Note_on_c, 5, 67, 0
14, 29315, Note_on_c, 5, 59, 0
14, 29760, Note_on_c, 5, 62, 99
14, 29760, Note_on_c, 5, 59, 103
14, 29760, Note_on_c, 5, 67, 96
14, 29840, Note_on_c, 5, 59, 0
14, 29840, Note_on_c, 5, 62, 0
14, 29846, Note_on_c, 5, 67, 0
14, 29952, Note_on_c, 5, 57, 103
14, 29952, Note_on_c, 5, 63, 127
14, 29952, Note_on_c, 5, 66, 107
14, 30069, Note_on_c, 5, 66, 0
14, 30071, Note_on_c, 5, 63, 0
14, 30076, Note_on_c, 5, 57, 0
14, 30528, Note_on_c, 5, 57, 111
14, 30528, Note_on_c, 5, 63, 122
14, 30528, Note_on_c, 5, 66, 110
14, 30604, Note_on_c, 5, 66, 0
14, 30604, Note_on_c, 5, 63, 0
14, 30623, Note_on_c, 5, 57, 0
14, 30720, Note_on_c, 5, 55, 109
14, 30720, Note_on_c, 5, 64, 120
14, 30720, Note_on_c, 5, 59, 127
14, 30843, Note_on_c, 5, 59, 0
14, 30845, Note_on_c, 5, 64, 0
14, 30847, Note_on_c, 5, 55, 0
14, 31296, Note_on_c, 5, 55, 109
14, 31296, Note_on_c, 5, 59, 101
14, 31296, Note_on_c, 5, 64, 114
14, 31390, Note_on_c, 5, 64, 0
14, 31391, Note_on_c, 5, 55, 0
14, 31398, Note_on_c, 5, 59, 0
14, 31488, Note_on_c, 5, 55, 111
14, 31488, Note_on_c, 5, 60, 127
14, 31488, Note_on_c, 5, 64, 114
14, 31634, Note_on_c, 5, 55, 0
14, 31636, Note_on_c, 5, 60, 0
14, 31638, Note_on_c, 5, 64, 0
14, 32064, Note_on_c, 5, 64, 126
14, 32064, Note_on_c, 5, 60, 127
14, 32064, Note_on_c, 5, 55, 106
14, 32157, Note_on_c, 5, 55, 0
14, 32157, Note_on_c, 5, 60, 0
14, 32159, Note_on_c, 5, 64, 0
14, 32256, Note_on_c, 5, 62, 116
14, 32256, Note_on_c, 5, 67, 109
14, 32256, Note_on_c, 5, 59, 103
14, 32370, Note_on_c, 5, 62, 0
14, 32373, Note_on_c, 5, 67, 0
14, 32378, Note_on_c, 5, 59, 0
14, 32832, Note_on_c, 5, 62, 127
14, 32832, Note_on_c, 5, 67, 111
14, 32832, Note_on_c, 5, 59, 114
14, 32912, Note_on_c, 5, 62, 0
14, 32921, Note_on_c, 5, 59, 0
14, 32940, Note_on_c, 5, 67, 0
14, 33024, Note_on_c, 5, 57, 106
14, 33024, Note_on_c, 5, 63, 127
14, 33024, Note_on_c, 5, 66, 114
14, 33155, Note_on_c, 5, 63, 0
14, 33157, Note_on_c, 5, 66, 0
14, 33162, Note_on_c, 5, 57, 0
14, 33600, Note_on_c, 5, 57, 111
14, 33600, Note_on_c, 5, 63, 127
14, 33600, Note_on_c, 5, 66, 122
14, 33680, Note_on_c, 5, 66, 0
14, 33681, Note_on_c, 5, 63, 0
14, 33690, Note_on_c, 5, 57, 0
14, 33792, Note_on_c, 5, 55, 114
14, 33792, Note_on_c, 5, 59, 127
14, 33792, Note_on_c, 5, 64, 114
14, 33928, Note_on_c, 5, 59, 0
14, 33932, Note_on_c, 5, 55, 0
14, 33937, Note_on_c, 5, 64, 0
14, 34368, Note_on_c, 5, 55, 116
14, 34368, Note_on_c, 5, 64, 116
14, 34368, Note_on_c, 5, 59, 127
14, 34442, Note_on_c, 5, 64, 0
14, 34445, Note_on_c, 5, 55, 0
14, 34450, Note_on_c, 5, 59, 0
14, 34560, Note_on_c, 5, 55, 106
14, 34560, Note_on_c, 5, 64, 114
14, 34560, Note_on_c, 5, 60, 126
14, 34716, Note_on_c, 5, 55, 0
14, 34717, Note_on_c, 5, 60, 0
14, 34719, Note_on_c, 5, 64, 0
14, 35136, Note_on_c, 5, 64, 120
14, 35136, Note_on_c, 5, 60, 126
14, 35136, Note_on_c, 5, 55, 111
14, 35220, Note_on_c, 5, 60, 0
14, 35220, Note_on_c, 5, 64, 0
14, 35221, Note_on_c, 5, 55, 0
14, 35328, Note_on_c, 5, 62, 116
14, 35328, Note_on_c, 5, 67, 116
14, 35328, Note_on_c, 5, 59, 114
14, 35466, Note_on_c, 5, 62, 0
14, 35472, Note_on_c, 5, 59, 0
14, 35472, Note_on_c, 5, 67, 0
14, 35904, Note_on_c, 5, 62, 116
14, 35904, Note_on_c, 5, 59, 114
14, 35904, Note_on_c, 5, 67, 111
14, 35982, Note_on_c, 5, 62, 0
14, 35990, Note_on_c, 5, 59, 0
14, 36001, Note_on_c, 5, 67, 0
14, 36096, Note_on_c, 5, 66, 107
14, 36096, Note_on_c, 5, 63, 118
14, 36096, Note_on_c, 5, 57, 101
14, 36252, Note_on_c, 5, 66, 0
14, 36255, Note_on_c, 5, 63, 0
14, 36258, Note_on_c, 5, 57, 0
14, 36672, Note_on_c, 5, 57, 106
14, 36672, Note_on_c, 5, 66, 122
14, 36672, Note_on_c, 5, 63, 125
14, 36755, Note_on_c, 5, 66, 0
14, 36756, Note_on_c, 5, 63, 0
14, 36761, Note_on_c, 5, 57, 0
14, 36864, Note_on_c, 5, 59, 127
14, 36864, Note_on_c, 5, 55, 120
14, 36864, Note_on_c, 5, 64, 116
14, 37008, Note_on_c, 5, 64, 0
14, 37008, Note_on_c, 5, 55, 0
14, 37008, Note_on_c, 5, 59, 0
14, 37632, Note_on_c, 5, 59, 103
14, 37680, Note_on_c, 5, 60, 69
14, 37681, Note_on_c, 5, 59, 0
14, 37726, Note_on_c, 5, 60, 0
14, 37728, Note_on_c, 5, 64, 89
14, 37775, Note_on_c, 5, 64, 0
14, 37776, Note_on_c, 5, 59, 88
14, 37824, Note_on_c, 5, 60, 88
14, 37829, Note_on_c, 5, 59, 0
14, 37872, Note_on_c, 5, 64, 73
14, 37882, Note_on_c, 5, 60, 0
14, 37911, Note_on_c, 5, 64, 0
14, 37920, Note_on_c, 5, 59, 86
14, 37968, Note_on_c, 5, 60, 85
14, 37983, Note_on_c, 5, 59, 0
14, 38016, Note_on_c, 5, 64, 83
14, 38022, Note_on_c, 5, 60, 0
14, 38063, Note_on_c, 5, 64, 0
14, 38064, Note_on_c, 5, 59, 80
14, 38112, Note_on_c, 5, 60, 69
14, 38129, Note_on_c, 5, 59, 0
14, 38160, Note_on_c, 5, 64, 80
14, 38165, Note_on_c, 5, 60, 0
14, 38206, Note_on_c, 5, 64, 0
14, 38208, Note_on_c, 5, 59, 96
14, 38256, Note_on_c, 5, 60, 76
14, 38268, Note_on_c, 5, 59, 0
14, 38304, Note_on_c, 5, 64, 78
14, 38310, Note_on_c, 5, 60, 0
14, 38349, Note_on_c, 5, 64, 0
14, 38352, Note_on_c, 5, 59, 89
14, 38400, Note_on_c, 5, 60, 86
14, 38415, Note_on_c, 5, 59, 0
14, 38448, Note_on_c, 5, 64, 76
14, 38453, Note_on_c, 5, 60, 0
14, 38495, Note_on_c, 5, 64, 0
14, 38496, Note_on_c, 5, 59, 94
14, 38544, Note_on_c, 5, 60, 76
14, 38556, Note_on_c, 5, 59, 0
14, 38592, Note_on_c, 5, 64, 89
14, 38604, Note_on_c, 5, 60, 0
14, 38639, Note_on_c, 5, 64, 0
14, 38640, Note_on_c, 5, 59, 89
14, 38688, Note_on_c, 5, 60, 86
14, 38706, Note_on_c, 5, 59, 0
14, 38736, Note_on_c, 5, 64, 88
14, 38740, Note_on_c, 5, 60, 0
14, 38784, Note_on_c, 5, 59, 96
14, 38785, Note_on_c, 5, 64, 0
14, 38832, Note_on_c, 5, 60, 75
14, 38848, Note_on_c, 5, 59, 0
14, 38880, Note_on_c, 5, 64, 88
14, 38885, Note_on_c, 5, 60, 0
14, 38928, Note_on_c, 5, 59, 103
14, 38929, Note_on_c, 5, 64, 0
14, 38976, Note_on_c, 5, 60, 83
14, 38983, Note_on_c, 5, 59, 0
14, 39024, Note_on_c, 5, 64, 99
14, 39033, Note_on_c, 5, 60, 0
14, 39071, Note_on_c, 5, 64, 0
14, 39072, Note_on_c, 5, 59, 96
14, 39120, Note_on_c, 5, 60, 87
14, 39127, Note_on_c, 5, 59, 0
14, 39160, Note_on_c, 5, 60, 0
14, 39168, Note_on_c, 5, 59, 111
14, 39212, Note_on_c, 5, 59, 0
14, 39216, Note_on_c, 5, 63, 103
14, 39264, Note_on_c, 5, 63, 0
14, 39264, Note_on_c, 5, 66, 114
14, 39305, Note_on_c, 5, 66, 0
14, 39312, Note_on_c, 5, 59, 101
14, 39360, Note_on_c, 5, 63, 96
14, 39380, Note_on_c, 5, 59, 0
14, 39408, Note_on_c, 5, 66, 93
14, 39413, Note_on_c, 5, 63, 0
14, 39448, Note_on_c, 5, 66, 0
14, 39456, Note_on_c, 5, 59, 89
14, 39504, Note_on_c, 5, 63, 99
14, 39519, Note_on_c, 5, 59, 0
14, 39552, Note_on_c, 5, 66, 99
14, 39563, Note_on_c, 5, 63, 0
14, 39597, Note_on_c, 5, 66, 0
14, 39600, Note_on_c, 5, 59, 101
14, 39648, Note_on_c, 5, 63, 97
14, 39665, Note_on_c, 5, 59, 0
14, 39696, Note_on_c, 5, 66, 103
14, 39702, Note_on_c, 5, 63, 0
14, 39738, Note_on_c, 5, 66, 0
14, 39744, Note_on_c, 5, 59, 106
14, 39792, Note_on_c, 5, 63, 103
14, 39817, Note_on_c, 5, 59, 0
14, 39840, Note_on_c, 5, 66, 110
14, 39841, Note_on_c, 5, 63, 0
14, 39878, Note_on_c, 5, 66, 0
14, 39888, Note_on_c, 5, 63, 92
14, 39923, Note_on_c, 5, 63, 0
14, 39936, Note_on_c, 5, 55, 96
14, 39984, Note_on_c, 5, 59, 94
14, 39994, Note_on_c, 5, 55, 0
14, 40032, Note_on_c, 5, 64, 106
14, 40041, Note_on_c, 5, 59, 0
14, 40075, Note_on_c, 5, 64, 0
14, 40080, Note_on_c, 5, 55, 81
14, 40128, Note_on_c, 5, 59, 106
14, 40148, Note_on_c, 5, 55, 0
14, 40173, Note_on_c, 5, 59, 0
14, 40176, Note_on_c, 5, 64, 88
14, 40224, Note_on_c, 5, 55, 88
14, 40238, Note_on_c, 5, 64, 0
14, 40272, Note_on_c, 5, 59, 78
14, 40284, Note_on_c, 5, 55, 0
14, 40320, Note_on_c, 5, 64, 92
14, 40324, Note_on_c, 5, 59, 0
14, 40368, Note_on_c, 5, 55, 92
14, 40373, Note_on_c, 5, 64, 0
14, 40416, Note_on_c, 5, 59, 92
14, 40433, Note_on_c, 5, 55, 0
14, 40464, Note_on_c, 5, 64, 96
14, 40471, Note_on_c, 5, 59, 0
14, 40512, Note_on_c, 5, 55, 94
14, 40525, Note_on_c, 5, 64, 0
14, 40560, Note_on_c, 5, 59, 88
14, 40580, Note_on_c, 5, 55, 0
14, 40608, Note_on_c, 5, 64, 89
14, 40620, Note_on_c, 5, 59, 0
14, 40656, Note_on_c, 5, 55, 89
14, 40666, Note_on_c, 5, 64, 0
14, 40688, Note_on_c, 5, 55, 0
14, 40704, Note_on_c, 5, 59, 93
14, 40752, Note_on_c, 5, 60, 70
14, 40761, Note_on_c, 5, 59, 0
14, 40796, Note_on_c, 5, 60, 0
14, 40800, Note_on_c, 5, 64, 81
14, 40848, Note_on_c, 5, 59, 101
14, 40849, Note_on_c, 5, 64, 0
14, 40896, Note_on_c, 5, 60, 85
14, 40911, Note_on_c, 5, 59, 0
14, 40944, Note_on_c, 5, 64, 86
14, 40946, Note_on_c, 5, 60, 0
14, 40992, Note_on_c, 5, 64, 0
14, 40992, Note_on_c, 5, 59, 96
14, 41040, Note_on_c, 5, 60, 81
14, 41054, Note_on_c, 5, 59, 0
14, 41088, Note_on_c, 5, 64, 80
14, 41090, Note_on_c, 5, 60, 0
14, 41136, Note_on_c, 5, 59, 78
14, 41143, Note_on_c, 5, 64, 0
14, 41184, Note_on_c, 5, 60, 74
14, 41204, Note_on_c, 5, 59, 0
14, 41232, Note_on_c, 5, 64, 71
14, 41239, Note_on_c, 5, 60, 0
14, 41280, Note_on_c, 5, 59, 96
14, 41286, Note_on_c, 5, 64, 0
14, 41328, Note_on_c, 5, 60, 65
14, 41345, Note_on_c, 5, 59, 0
14, 41376, Note_on_c, 5, 64, 76
14, 41386, Note_on_c, 5, 60, 0
14, 41421, Note_on_c, 5, 64, 0
14, 41424, Note_on_c, 5, 59, 83
14, 41472, Note_on_c, 5, 60, 64
14, 41489, Note_on_c, 5, 59, 0
14, 41520, Note_on_c, 5, 64, 72
14, 41522, Note_on_c, 5, 60, 0
14, 41568, Note_on_c, 5, 59, 94
14, 41576, Note_on_c, 5, 64, 0
14, 41616, Note_on_c, 5, 60, 73
14, 41635, Note_on_c, 5, 59, 0
14, 41664, Note_on_c, 5, 64, 81
14, 41674, Note_on_c, 5, 60, 0
14, 41712, Note_on_c, 5, 64, 0
14, 41712, Note_on_c, 5, 59, 86
14, 41760, Note_on_c, 5, 60, 71
14, 41775, Note_on_c, 5, 59, 0
14, 41808, Note_on_c, 5, 64, 74
14, 41815, Note_on_c, 5, 60, 0
14, 41856, Note_on_c, 5, 59, 86
14, 41864, Note_on_c, 5, 64, 0
14, 41904, Note_on_c, 5, 60, 67
14, 41932, Note_on_c, 5, 59, 0
14, 41952, Note_on_c, 5, 64, 75
14, 41958, Note_on_c, 5, 60, 0
14, 42000, Note_on_c, 5, 64, 0
14, 42000, Note_on_c, 5, 59, 94
14, 42048, Note_on_c, 5, 60, 78
14, 42068, Note_on_c, 5, 59, 0
14, 42096, Note_on_c, 5, 64, 78
14, 42107, Note_on_c, 5, 60, 0
14, 42143, Note_on_c, 5, 64, 0
14, 42144, Note_on_c, 5, 59, 94
14, 42192, Note_on_c, 5, 60, 68
14, 42203, Note_on_c, 5, 59, 0
14, 42227, Note_on_c, 5, 60, 0
14, 42240, Note_on_c, 5, 59, 116
14, 42288, Note_on_c, 5, 63, 97
14, 42300, Note_on_c, 5, 59, 0
14, 42336, Note_on_c, 5, 66, 95
14, 42338, Note_on_c, 5, 63, 0
14, 42384, Note_on_c, 5, 66, 0
14, 42384, Note_on_c, 5, 59, 88
14, 42432, Note_on_c, 5, 63, 95
14, 42464, Note_on_c, 5, 59, 0
14, 42480, Note_on_c, 5, 66, 76
14, 42498, Note_on_c, 5, 63, 0
14, 42526, Note_on_c, 5, 66, 0
14, 42528, Note_on_c, 5, 59, 99
14, 42576, Note_on_c, 5, 63, 103
14, 42599, Note_on_c, 5, 59, 0
14, 42624, Note_on_c, 5, 66, 110
14, 42642, Note_on_c, 5, 63, 0
14, 42664, Note_on_c, 5, 66, 0
14, 42672, Note_on_c, 5, 59, 101
14, 42720, Note_on_c, 5, 63, 99
14, 42735, Note_on_c, 5, 59, 0
14, 42768, Note_on_c, 5, 66, 97
14, 42783, Note_on_c, 5, 63, 0
14, 42816, Note_on_c, 5, 59, 96
14, 42819, Note_on_c, 5, 66, 0
14, 42864, Note_on_c, 5, 63, 74
14, 42893, Note_on_c, 5, 59, 0
14, 42912, Note_on_c, 5, 66, 107
14, 42916, Note_on_c, 5, 63, 0
14, 42948, Note_on_c, 5, 66, 0
14, 43008, Note_on_c, 5, 52, 99
14, 43046, Note_on_c, 5, 52, 0
14, 43056, Note_on_c, 5, 52, 88
14, 43104, Note_on_c, 5, 55, 76
14, 43113, Note_on_c, 5, 52, 0
14, 43145, Note_on_c, 5, 55, 0
14, 43152, Note_on_c, 5, 52, 66
14, 43199, Note_on_c, 5, 52, 0
14, 43200, Note_on_c, 5, 57, 88
14, 43245, Note_on_c, 5, 57, 0
14, 43248, Note_on_c, 5, 52, 80
14, 43296, Note_on_c, 5, 59, 99
14, 43303, Note_on_c, 5, 52, 0
14, 43333, Note_on_c, 5, 59, 0
14, 43344, Note_on_c, 5, 52, 94
14, 43379, Note_on_c, 5, 52, 0
14, 43392, Note_on_c, 5, 52, 95
14, 43440, Note_on_c, 5, 52, 0
14, 43440, Note_on_c, 5, 52, 101
14, 43488, Note_on_c, 5, 52, 0
14, 43488, Note_on_c, 5, 55, 101
14, 43536, Note_on_c, 5, 55, 0
14, 43536, Note_on_c, 5, 52, 95
14, 43584, Note_on_c, 5, 52, 0
14, 43584, Note_on_c, 5, 57, 92
14, 43632, Note_on_c, 5, 57, 0
14, 43632, Note_on_c, 5, 52, 90
14, 43680, Note_on_c, 5, 52, 0
14, 43680, Note_on_c, 5, 59, 90
14, 43728, Note_on_c, 5, 59, 0
14, 43728, Note_on_c, 5, 52, 90
14, 43776, Note_on_c, 5, 52, 0
14, 43776, Note_on_c, 5, 59, 103
14, 43824, Note_on_c, 5, 60, 69
14, 43825, Note_on_c, 5, 59, 0
14, 43870, Note_on_c, 5, 60, 0
14, 43872, Note_on_c, 5, 64, 89
14, 43919, Note_on_c, 5, 64, 0
14, 43920, Note_on_c, 5, 59, 88
14, 43968, Note_on_c, 5, 60, 88
14, 43973, Note_on_c, 5, 59, 0
14, 44016, Note_on_c, 5, 64, 73
14, 44026, Note_on_c, 5, 60, 0
14, 44055, Note_on_c, 5, 64, 0
14, 44064, Note_on_c, 5, 59, 86
14, 44112, Note_on_c, 5, 60, 85
14, 44127, Note_on_c, 5, 59, 0
14, 44160, Note_on_c, 5, 64, 83
14, 44166, Note_on_c, 5, 60, 0
14, 44207, Note_on_c, 5, 64, 0
14, 44208, Note_on_c, 5, 59, 80
14, 44256, Note_on_c, 5, 60, 69
14, 44273, Note_on_c, 5, 59, 0
14, 44304, Note_on_c, 5, 64, 80
14, 44309, Note_on_c, 5, 60, 0
14, 44350, Note_on_c, 5, 64, 0
14, 44352, Note_on_c, 5, 59, 96
14, 44400, Note_on_c, 5, 60, 76
14, 44412, Note_on_c, 5, 59, 0
14, 44448, Note_on_c, 5, 64, 78
14, 44454, Note_on_c, 5, 60, 0
14, 44493, Note_on_c, 5, 64, 0
14, 44496, Note_on_c, 5, 59, 89
14, 44544, Note_on_c, 5, 60, 86
14, 44559, Note_on_c, 5, 59, 0
14, 44592, Note_on_c, 5, 64, 76
14, 44597, Note_on_c, 5, 60, 0
14, 44639, Note_on_c, 5, 64, 0
14, 44640, Note_on_c, 5, 59, 94
14, 44688, Note_on_c, 5, 60, 76
14, 44700, Note_on_c, 5, 59, 0
14, 44736, Note_on_c, 5, 64, 89
14, 44748, Note_on_c, 5, 60, 0
14, 44783, Note_on_c, 5, 64, 0
14, 44784, Note_on_c, 5, 59, 89
14, 44832, Note_on_c, 5, 60, 86
14, 44850, Note_on_c, 5, 59, 0
14, 44880, Note_on_c, 5, 64, 88
14, 44884, Note_on_c, 5, 60, 0
14, 44928, Note_on_c, 5, 59, 96
14, 44929, Note_on_c, 5, 64, 0
14, 44976, Note_on_c, 5, 60, 75
14, 44992, Note_on_c, 5, 59, 0
14, 45024, Note_on_c, 5, 64, 88
14, 45029, Note_on_c, 5, 60, 0
14, 45072, Note_on_c, 5, 59, 103
14, 45073, Note_on_c, 5, 64, 0
14, 45120, Note_on_c, 5, 60, 83
14, 45127, Note_on_c, 5, 59, 0
14, 45168, Note_on_c, 5, 64, 99
14, 45177, Note_on_c, 5, 60, 0
14, 45215, Note_on_c, 5, 64, 0
14, 45216, Note_on_c, 5, 59, 96
14, 45264, Note_on_c, 5, 60, 87
14, 45271, Note_on_c, 5, 59, 0
14, 45304, Note_on_c, 5, 60, 0
14, 45312, Note_on_c, 5, 59, 111
14, 45356, Note_on_c, 5, 59, 0
14, 45360, Note_on_c, 5, 63, 103
14, 45408, Note_on_c, 5, 63, 0
14, 45408, Note_on_c, 5, 66, 114
14, 45449, Note_on_c, 5, 66, 0
14, 45456, Note_on_c, 5, 59, 101
14, 45504, Note_on_c, 5, 63, 96
14, 45524, Note_on_c, 5, 59, 0
14, 45552, Note_on_c, 5, 66, 93
14, 45557, Note_on_c, 5, 63, 0
14, 45592, Note_on_c, 5, 66, 0
14, 45600, Note_on_c, 5, 59, 89
14, 45648, Note_on_c, 5, 63, 99
14, 45663, Note_on_c, 5, 59, 0
14, 45696, Note_on_c, 5, 66, 99
14, 45707, Note_on_c, 5, 63, 0
14, 45741, Note_on_c, 5, 66, 0
14, 45744, Note_on_c, 5, 59, 101
14, 45792, Note_on_c, 5, 63, 97
14, 45809, Note_on_c, 5, 59, 0
14, 45840, Note_on_c, 5, 66, 103
14, 45846, Note_on_c, 5, 63, 0
14, 45882, Note_on_c, 5, 66, 0
14, 45888, Note_on_c, 5, 59, 106
14, 45936, Note_on_c, 5, 63, 103
14, 45961, Note_on_c, 5, 59, 0
14, 45984, Note_on_c, 5, 66, 110
14, 45985, Note_on_c, 5, 63, 0
14, 46022, Note_on_c, 5, 66, 0
14, 46032, Note_on_c, 5, 63, 92
14, 46067, Note_on_c, 5, 63, 0
14, 46080, Note_on_c, 5, 55, 96
14, 46128, Note_on_c, 5, 59, 94
14, 46138, Note_on_c, 5, 55, 0
14, 46176, Note_on_c, 5, 64, 106
14, 46185, Note_on_c, 5, 59, 0
14, 46219, Note_on_c, 5, 64, 0
14, 46224, Note_on_c, 5, 55, 81
14, 46272, Note_on_c, 5, 59, 106
14, 46292, Note_on_c, 5, 55, 0
14, 46317, Note_on_c, 5, 59, 0
14, 46320, Note_on_c, 5, 64, 88
14, 46368, Note_on_c, 5, 55, 88
14, 46382, Note_on_c, 5, 64, 0
14, 46416, Note_on_c, 5, 59, 78
14, 46428, Note_on_c, 5, 55, 0
14, 46464, Note_on_c, 5, 64, 92
14, 46468, Note_on_c, 5, 59, 0
14, 46512, Note_on_c, 5, 55, 92
14, 46517, Note_on_c, 5, 64, 0
14, 46560, Note_on_c, 5, 59, 92
14, 46577, Note_on_c, 5, 55, 0
14, 46608, Note_on_c, 5, 64, 96
14, 46615, Note_on_c, 5, 59, 0
14, 46656, Note_on_c, 5, 55, 94
14, 46669, Note_on_c, 5, 64, 0
14, 46704, Note_on_c, 5, 59, 88
14, 46724, Note_on_c, 5, 55, 0
14, 46752, Note_on_c, 5, 64, 89
14, 46764, Note_on_c, 5, 59, 0
14, 46800, Note_on_c, 5, 55, 89
14, 46810, Note_on_c, 5, 64, 0
14, 46832, Note_on_c, 5, 55, 0
14, 46848, Note_on_c, 5, 59, 93
14, 46896, Note_on_c, 5, 60, 70
14, 46905, Note_on_c, 5, 59, 0
14, 46940, Note_on_c, 5, 60, 0
14, 46944, Note_on_c, 5, 64, 81
14, 46992, Note_on_c, 5, 59, 101
14, 46993, Note_on_c, 5, 64, 0
14, 47040, Note_on_c, 5, 60, 85
14, 47055, Note_on_c, 5, 59, 0
14, 47088, Note_on_c, 5, 64, 86
14, 47090, Note_on_c, 5, 60, 0
14, 47136, Note_on_c, 5, 64, 0
14, 47136, Note_on_c, 5, 59, 96
14, 47184, Note_on_c, 5, 60, 81
14, 47198, Note_on_c, 5, 59, 0
14, 47232, Note_on_c, 5, 64, 80
14, 47234, Note_on_c, 5, 60, 0
14, 47280, Note_on_c, 5, 59, 78
14, 47287, Note_on_c, 5, 64, 0
14, 47328, Note_on_c, 5, 60, 74
14, 47348, Note_on_c, 5, 59, 0
14, 47376, Note_on_c, 5, 64, 71
14, 47383, Note_on_c, 5, 60, 0
14, 47424, Note_on_c, 5, 59, 96
14, 47430, Note_on_c, 5, 64, 0
14, 47472, Note_on_c, 5, 60, 65
14, 47489, Note_on_c, 5, 59, 0
14, 47520, Note_on_c, 5, 64, 76
14, 47530, Note_on_c, 5, 60, 0
14, 47565, Note_on_c, 5, 64, 0
14, 47568, Note_on_c, 5, 59, 83
14, 47616, Note_on_c, 5, 60, 64
14, 47633, Note_on_c, 5, 59, 0
14, 47664, Note_on_c, 5, 64, 72
14, 47666, Note_on_c, 5, 60, 0
14, 47712, Note_on_c, 5, 59, 94
14, 47720, Note_on_c, 5, 64, 0
14, 47760, Note_on_c, 5, 60, 73
14, 47779, Note_on_c, 5, 59, 0
14, 47808, Note_on_c, 5, 64, 81
14, 47818, Note_on_c, 5, 60, 0
14, 47856, Note_on_c, 5, 64, 0
14, 47856, Note_on_c, 5, 59, 86
14, 47904, Note_on_c, 5, 60, 71
14, 47919, Note_on_c, 5, 59, 0
14, 47952, Note_on_c, 5, 64, 74
14, 47959, Note_on_c, 5, 60, 0
14, 48000, Note_on_c, 5, 59, 86
14, 48008, Note_on_c, 5, 64, 0
14, 48048, Note_on_c, 5, 60, 67
14, 48076, Note_on_c, 5, 59, 0
14, 48096, Note_on_c, 5, 64, 75
14, 48102, Note_on_c, 5, 60, 0
14, 48144, Note_on_c, 5, 64, 0
14, 48144, Note_on_c, 5, 59, 94
14, 48192, Note_on_c, 5, 60, 78
14, 48212, Note_on_c, 5, 59, 0
14, 48240, Note_on_c, 5, 64, 78
14, 48251, Note_on_c, 5, 60, 0
14, 48287, Note_on_c, 5, 64, 0
14, 48288, Note_on_c, 5, 59, 94
14, 48336, Note_on_c, 5, 60, 68
14, 48347, Note_on_c, 5, 59, 0
14, 48371, Note_on_c, 5, 60, 0
14, 48384, Note_on_c, 5, 59, 116
14, 48432, Note_on_c, 5, 63, 97
14, 48444, Note_on_c, 5, 59, 0
14, 48480, Note_on_c, 5, 66, 95
14, 48482, Note_on_c, 5, 63, 0
14, 48528, Note_on_c, 5, 66, 0
14, 48528, Note_on_c, 5, 59, 88
14, 48576, Note_on_c, 5, 63, 95
14, 48608, Note_on_c, 5, 59, 0
14, 48624, Note_on_c, 5, 66, 76
14, 48642, Note_on_c, 5, 63, 0
14, 48670, Note_on_c, 5, 66, 0
14, 48672, Note_on_c, 5, 59, 99
14, 48720, Note_on_c, 5, 63, 103
14, 48743, Note_on_c, 5, 59, 0
14, 48768, Note_on_c, 5, 66, 110
14, 48786, Note_on_c, 5, 63, 0
14, 48808, Note_on_c, 5, 66, 0
14, 48816, Note_on_c, 5, 59, 101
14, 48864, Note_on_c, 5, 63, 99
14, 48879, Note_on_c, 5, 59, 0
14, 48912, Note_on_c, 5, 66, 97
14, 48927, Note_on_c, 5, 63, 0
14, 48960, Note_on_c, 5, 59, 96
14, 48963, Note_on_c, 5, 66, 0
14, 49008, Note_on_c, 5, 63, 74
14, 49037, Note_on_c, 5, 59, 0
14, 49056, Note_on_c, 5, 66, 107
14, 49060, Note_on_c, 5, 63, 0
14, 49092, Note_on_c, 5, 66, 0
14, 49152, Note_on_c, 5, 52, 99
14, 49190, Note_on_c, 5, 52, 0
14, 49200, Note_on_c, 5, 52, 88
14, 49248, Note_on_c, 5, 55, 76
14, 49257, Note_on_c, 5, 52, 0
14, 49289, Note_on_c, 5, 55, 0
14, 49296, Note_on_c, 5, 52, 66
14, 49343, Note_on_c, 5, 52, 0
14, 49344, Note_on_c, 5, 57, 88
14, 49389, Note_on_c, 5, 57, 0
14, 49392, Note_on_c, 5, 52, 80
14, 49440, Note_on_c, 5, 59, 99
14, 49447, Note_on_c, 5, 52, 0
14, 49477, Note_on_c, 5, 59, 0
14, 49488, Note_on_c, 5, 52, 94
14, 49523, Note_on_c, 5, 52, 0
14, 49536, Note_on_c, 5, 52, 95
14, 49584, Note_on_c, 5, 52, 0
14, 49584, Note_on_c, 5, 52, 101
14, 49632, Note_on_c, 5, 52, 0
14, 49632, Note_on_c, 5, 55, 101
14, 49680, Note_on_c, 5, 55, 0
14, 49680, Note_on_c, 5, 52, 95
14, 49728, Note_on_c, 5, 52, 0
14, 49728, Note_on_c, 5, 57, 92
14, 49776, Note_on_c, 5, 57, 0
14, 49776, Note_on_c, 5, 52, 90
14, 49824, Note_on_c, 5, 52, 0
14, 49824, Note_on_c, 5, 59, 90
14, 49872, Note_on_c, 5, 59, 0
14, 49872, Note_on_c, 5, 52, 90
14, 49920, Note_on_c, 5, 52, 0
14, 52224, Note_on_c, 5, 62, 111
14, 52224, Note_on_c, 5, 67, 103
14, 52224, Note_on_c, 5, 59, 103
14, 52387, Note_on_c, 5, 67, 0
14, 52391, Note_on_c, 5, 62, 0
14, 52395, Note_on_c, 5, 59, 0
14, 52800, Note_on_c, 5, 59, 106
14, 52800, Note_on_c, 5, 67, 101
14, 52800, Note_on_c, 5, 62, 111
14, 52870, Note_on_c, 5, 59, 0
14, 52872, Note_on_c, 5, 62, 0
14, 52872, Note_on_c, 5, 67, 0
14, 52992, Note_on_c, 5, 57, 101
14, 52992, Note_on_c, 5, 65, 109
14, 52992, Note_on_c, 5, 60, 123
14, 53143, Note_on_c, 5, 60, 0
14, 53146, Note_on_c, 5, 65, 0
14, 53146, Note_on_c, 5, 57, 0
14, 53568, Note_on_c, 5, 57, 85
14, 53568, Note_on_c, 5, 60, 111
14, 53568, Note_on_c, 5, 65, 106
14, 53631, Note_on_c, 5, 60, 0
14, 53633, Note_on_c, 5, 57, 0
14, 53634, Note_on_c, 5, 65, 0
14, 53760, Note_on_c, 5, 60, 111
14, 53760, Note_on_c, 5, 64, 111
14, 53760, Note_on_c, 5, 55, 89
14, 53913, Note_on_c, 5, 60, 0
14, 53916, Note_on_c, 5, 64, 0
14, 53917, Note_on_c, 5, 55, 0
14, 54336, Note_on_c, 5, 64, 114
14, 54336, Note_on_c, 5, 60, 116
14, 54336, Note_on_c, 5, 55, 101
14, 54395, Note_on_c, 5, 60, 0
14, 54396, Note_on_c, 5, 55, 0
14, 54397, Note_on_c, 5, 64, 0
14, 54528, Note_on_c, 5, 57, 94
14, 54528, Note_on_c, 5, 66, 97
14, 54528, Note_on_c, 5, 62, 109
14, 54687, Note_on_c, 5, 66, 0
14, 54689, Note_on_c, 5, 62, 0
14, 54691, Note_on_c, 5, 57, 0
14, 55104, Note_on_c, 5, 57, 99
14, 55104, Note_on_c, 5, 62, 114
14, 55104, Note_on_c, 5, 66, 103
14, 55181, Note_on_c, 5, 62, 0
14, 55186, Note_on_c, 5, 66, 0
14, 55193, Note_on_c, 5, 57, 0
14, 55296, Note_on_c, 5, 59, 94
14, 55296, Note_on_c, 5, 62, 106
14, 55296, Note_on_c, 5, 67, 103
14, 55466, Note_on_c, 5, 67, 0
14, 55467, Note_on_c, 5, 62, 0
14, 55469, Note_on_c, 5, 59, 0
14, 55872, Note_on_c, 5, 59, 111
14, 55872, Note_on_c, 5, 62, 114
14, 55872, Note_on_c, 5, 67, 111
14, 55945, Note_on_c, 5, 62, 0
14, 55949, Note_on_c, 5, 67, 0
14, 55951, Note_on_c, 5, 59, 0
14, 56064, Note_on_c, 5, 57, 96
14, 56064, Note_on_c, 5, 65, 111
14, 56064, Note_on_c, 5, 60, 120
14, 56219, Note_on_c, 5, 65, 0
14, 56223, Note_on_c, 5, 60, 0
14, 56224, Note_on_c, 5, 57, 0
14, 56640, Note_on_c, 5, 60, 120
14, 56640, Note_on_c, 5, 57, 94
14, 56640, Note_on_c, 5, 65, 111
14, 56716, Note_on_c, 5, 65, 0
14, 56721, Note_on_c, 5, 60, 0
14, 56727, Note_on_c, 5, 57, 0
14, 56832, Note_on_c, 5, 60, 120
14, 56832, Note_on_c, 5, 64, 116
14, 56832, Note_on_c, 5, 55, 101
14, 57020, Note_on_c, 5, 60, 0
14, 57024, Note_on_c, 5, 64, 0
14, 57025, Note_on_c, 5, 55, 0
14, 57408, Note_on_c, 5, 60, 114
14, 57408, Note_on_c, 5, 64, 114
14, 57408, Note_on_c, 5, 55, 103
14, 57473, Note_on_c, 5, 60, 0
14, 57474, Note_on_c, 5, 55, 0
14, 57475, Note_on_c, 5, 64, 0
14, 57600, Note_on_c, 5, 57, 88
14, 57600, Note_on_c, 5, 66, 103
14, 57600, Note_on_c, 5, 62, 111
14, 57734, Note_on_c, 5, 66, 0
14, 57737, Note_on_c, 5, 62, 0
14, 57741, Note_on_c, 5, 57, 0
14, 58176, Note_on_c, 5, 57, 109
14, 58176, Note_on_c, 5, 66, 118
14, 58176, Note_on_c, 5, 62, 120
14, 58244, Note_on_c, 5, 62, 0
14, 58251, Note_on_c, 5, 66, 0
14, 58251, Note_on_c, 5, 57, 0
14, 58368, Note_on_c, 5, 59, 99
14, 58368, Note_on_c, 5, 62, 111
14, 58368, Note_on_c, 5, 67, 103
14, 58532, Note_on_c, 5, 62, 0
14, 58535, Note_on_c, 5, 67, 0
14, 58535, Note_on_c, 5, 59, 0
14, 58944, Note_on_c, 5, 62, 111
14, 58944, Note_on_c, 5, 59, 106
14, 58944, Note_on_c, 5, 67, 106
14, 59021, Note_on_c, 5, 62, 0
14, 59022, Note_on_c, 5, 67, 0
14, 59026, Note_on_c, 5, 59, 0
14, 59136, Note_on_c, 5, 65, 101
14, 59136, Note_on_c, 5, 60, 111
14, 59136, Note_on_c, 5, 57, 92
14, 59265, Note_on_c, 5, 65, 0
14, 59269, Note_on_c, 5, 60, 0
14, 59274, Note_on_c, 5, 57, 0
14, 59712, Note_on_c, 5, 65, 111
14, 59712, Note_on_c, 5, 57, 109
14, 59712, Note_on_c, 5, 60, 126
14, 59794, Note_on_c, 5, 65, 0
14, 59796, Note_on_c, 5, 60, 0
14, 59796, Note_on_c, 5, 57, 0
14, 59904, Note_on_c, 5, 64, 109
14, 59904, Note_on_c, 5, 55, 103
14, 59904, Note_on_c, 5, 60, 120
14, 60047, Note_on_c, 5, 60, 0
14, 60049, Note_on_c, 5, 55, 0
14, 60050, Note_on_c, 5, 64, 0
14, 60480, Note_on_c, 5, 55, 103
14, 60480, Note_on_c, 5, 60, 114
14, 60480, Note_on_c, 5, 64, 111
14, 60551, Note_on_c, 5, 60, 0
14, 60553, Note_on_c, 5, 55, 0
14, 60556, Note_on_c, 5, 64, 0
14, 60672, Note_on_c, 5, 62, 111
14, 60672, Note_on_c, 5, 57, 96
14, 60672, Note_on_c, 5, 66, 110
14, 60813, Note_on_c, 5, 66, 0
14, 60816, Note_on_c, 5, 62, 0
14, 60819, Note_on_c, 5, 57, 0
14, 61248, Note_on_c, 5, 62, 123
14, 61248, Note_on_c, 5, 57, 109
14, 61248, Note_on_c, 5, 66, 114
14, 61319, Note_on_c, 5, 62, 0
14, 61324, Note_on_c, 5, 66, 0
14, 61330, Note_on_c, 5, 57, 0
14, 61440, Note_on_c, 5, 59, 106
14, 61440, Note_on_c, 5, 62, 114
14, 61440, Note_on_c, 5, 67, 114
14, 61573, Note_on_c, 5, 67, 0
14, 61580, Note_on_c, 5, 62, 0
14, 61588, Note_on_c, 5, 59, 0
14, 62016, Note_on_c, 5, 67, 120
14, 62016, Note_on_c, 5, 62, 126
14, 62016, Note_on_c, 5, 59, 120
14, 62108, Note_on_c, 5, 62, 0
14, 62112, Note_on_c, 5, 59, 0
14, 62112, Note_on_c, 5, 67, 0
14, 62208, Note_on_c, 5, 65, 120
14, 62208, Note_on_c, 5, 57, 109
14, 62208, Note_on_c, 5, 60, 127
14, 62369, Note_on_c, 5, 60, 0
14, 62369, Note_on_c, 5, 65, 0
14, 62373, Note_on_c, 5, 57, 0
14, 62784, Note_on_c, 5, 60, 127
14, 62784, Note_on_c, 5, 65, 120
14, 62784, Note_on_c, 5, 57, 103
14, 62862, Note_on_c, 5, 60, 0
14, 62865, Note_on_c, 5, 57, 0
14, 62872, Note_on_c, 5, 65, 0
14, 62976, Note_on_c, 5, 55, 103
14, 62976, Note_on_c, 5, 64, 120
14, 62976, Note_on_c, 5, 60, 123
14, 63142, Note_on_c, 5, 60, 0
14, 63144, Note_on_c, 5, 64, 0
14, 63146, Note_on_c, 5, 55, 0
14, 63552, Note_on_c, 5, 55, 106
14, 63552, Note_on_c, 5, 64, 114
14, 63552, Note_on_c, 5, 60, 123
14, 63624, Note_on_c, 5, 60, 0
14, 63625, Note_on_c, 5, 55, 0
14, 63629, Note_on_c, 5, 64, 0
14, 63744, Note_on_c, 5, 66, 118
14, 63744, Note_on_c, 5, 62, 120
14, 63744, Note_on_c, 5, 57, 101
14, 63876, Note_on_c, 5, 66, 0
14, 63882, Note_on_c, 5, 62, 0
14, 63892, Note_on_c, 5, 57, 0
14, 64320, Note_on_c, 5, 62, 123
14, 64320, Note_on_c, 5, 57, 106
14, 64320, Note_on_c, 5, 66, 114
14, 64406, Note_on_c, 5, 62, 0
14, 64408, Note_on_c, 5, 66, 0
14, 64410, Note_on_c, 5, 57, 0
14, 64512, Note_on_c, 5, 67, 99
14, 64512, Note_on_c, 5, 59, 106
14, 64512, Note_on_c, 5, 62, 111
14, 64654, Note_on_c, 5, 62, 0
14, 64656, Note_on_c, 5, 67, 0
14, 64657, Note_on_c, 5, 59, 0
14, 65088, Note_on_c, 5, 67, 114
14, 65088, Note_on_c, 5, 59, 109
14, 65088, Note_on_c, 5, 62, 114
14, 65174, Note_on_c, 5, 62, 0
14, 65180, Note_on_c, 5, 59, 0
14, 65188, Note_on_c, 5, 67, 0
14, 65280, Note_on_c, 5, 63, 111
14, 65280, Note_on_c, 5, 57, 111
14, 65280, Note_on_c, 5, 66, 111
14, 65408, Note_on_c, 5, 66, 0
14, 65408, Note_on_c, 5, 57, 0
14, 65424, Note_on_c, 5, 63, 0
14, 65856, Note_on_c, 5, 57, 106
14, 65856, Note_on_c, 5, 63, 118
14, 65856, Note_on_c, 5, 66, 122
14, 65933, Note_on_c, 5, 66, 0
14, 65936, Note_on_c, 5, 63, 0
14, 65941, Note_on_c, 5, 57, 0
14, 66048, Note_on_c, 5, 55, 103
14, 66048, Note_on_c, 5, 59, 111
14, 66048, Note_on_c, 5, 64, 116
14, 66193, Note_on_c, 5, 59, 0
14, 66199, Note_on_c, 5, 64, 0
14, 66199, Note_on_c, 5, 55, 0
14, 66624, Note_on_c, 5, 59, 127
14, 66624, Note_on_c, 5, 55, 109
14, 66624, Note_on_c, 5, 64, 109
14, 66707, Note_on_c, 5, 64, 0
14, 66711, Note_on_c, 5, 59, 0
14, 66712, Note_on_c, 5, 55, 0
14, 66816, Note_on_c, 5, 64, 114
14, 66816, Note_on_c, 5, 55, 106
14, 66816, Note_on_c, 5, 60, 127
14, 66954, Note_on_c, 5, 64, 0
14, 66955, Note_on_c, 5, 60, 0
14, 66956, Note_on_c, 5, 55, 0
14, 67392, Note_on_c, 5, 64, 111
14, 67392, Note_on_c, 5, 60, 116
14, 67392, Note_on_c, 5, 55, 96
14, 67480, Note_on_c, 5, 64, 0
14, 67481, Note_on_c, 5, 60, 0
14, 67482, Note_on_c, 5, 55, 0
14, 67584, Note_on_c, 5, 67, 111
14, 67584, Note_on_c, 5, 59, 106
14, 67584, Note_on_c, 5, 62, 116
14, 67710, Note_on_c, 5, 62, 0
14, 67712, Note_on_c, 5, 67, 0
14, 67715, Note_on_c, 5, 59, 0
14, 68160, Note_on_c, 5, 62, 99
14, 68160, Note_on_c, 5, 59, 103
14, 68160, Note_on_c, 5, 67, 96
14, 68240, Note_on_c, 5, 59, 0
14, 68240, Note_on_c, 5, 62, 0
14, 68246, Note_on_c, 5, 67, 0
14, 68352, Note_on_c, 5, 57, 103
14, 68352, Note_on_c, 5, 63, 127
14, 68352, Note_on_c, 5, 66, 107
14, 68469, Note_on_c, 5, 66, 0
14, 68471, Note_on_c, 5, 63, 0
14, 68476, Note_on_c, 5, 57, 0
14, 68928, Note_on_c, 5, 57, 111
14, 68928, Note_on_c, 5, 63, 122
14, 68928, Note_on_c, 5, 66, 110
14, 69004, Note_on_c, 5, 66, 0
14, 69004, Note_on_c, 5, 63, 0
14, 69023, Note_on_c, 5, 57, 0
14, 69120, Note_on_c, 5, 59, 127
14, 69120, Note_on_c, 5, 55, 120
14, 69120, Note_on_c, 5, 64, 116
14, 69264, Note_on_c, 5, 64, 0
14, 69264, Note_on_c, 5, 55, 0
14, 69264, Note_on_c, 5, 59, 0
14, 69888, Note_on_c, 5, 59, 103
14, 69936, Note_on_c, 5, 60, 69
14, 69937, Note_on_c, 5, 59, 0
14, 69982, Note_on_c, 5, 60, 0
14, 69984, Note_on_c, 5, 64, 89
14, 70031, Note_on_c, 5, 64, 0
14, 70032, Note_on_c, 5, 59, 88
14, 70080, Note_on_c, 5, 60, 88
14, 70085, Note_on_c, 5, 59, 0
14, 70128, Note_on_c, 5, 64, 73
14, 70138, Note_on_c, 5, 60, 0
14, 70167, Note_on_c, 5, 64, 0
14, 70176, Note_on_c, 5, 59, 86
14, 70224, Note_on_c, 5, 60, 85
14, 70239, Note_on_c, 5, 59, 0
14, 70272, Note_on_c, 5, 64, 83
14, 70278, Note_on_c, 5, 60, 0
14, 70319, Note_on_c, 5, 64, 0
14, 70320, Note_on_c, 5, 59, 80
14, 70368, Note_on_c, 5, 60, 69
14, 70385, Note_on_c, 5, 59, 0
14, 70416, Note_on_c, 5, 64, 80
14, 70421, Note_on_c, 5, 60, 0
14, 70462, Note_on_c, 5, 64, 0
14, 70464, Note_on_c, 5, 59, 96
14, 70512, Note_on_c, 5, 60, 76
14, 70524, Note_on_c, 5, 59, 0
14, 70560, Note_on_c, 5, 64, 78
14, 70566, Note_on_c, 5, 60, 0
14, 70605, Note_on_c, 5, 64, 0
14, 70608, Note_on_c, 5, 59, 89
14, 70656, Note_on_c, 5, 60, 86
14, 70671, Note_on_c, 5, 59, 0
14, 70704, Note_on_c, 5, 64, 76
14, 70709, Note_on_c, 5, 60, 0
14, 70751, Note_on_c, 5, 64, 0
14, 70752, Note_on_c, 5, 59, 94
14, 70800, Note_on_c, 5, 60, 76
14, 70812, Note_on_c, 5, 59, 0
14, 70848, Note_on_c, 5, 64, 89
14, 70860, Note_on_c, 5, 60, 0
14, 70895, Note_on_c, 5, 64, 0
14, 70896, Note_on_c, 5, 59, 89
14, 70944, Note_on_c, 5, 60, 86
14, 70962, Note_on_c, 5, 59, 0
14, 70992, Note_on_c, 5, 64, 88
14, 70996, Note_on_c, 5, 60, 0
14, 71040, Note_on_c, 5, 59, 96
14, 71041, Note_on_c, 5, 64, 0
14, 71088, Note_on_c, 5, 60, 75
14, 71104, Note_on_c, 5, 59, 0
14, 71136, Note_on_c, 5, 64, 88
14, 71141, Note_on_c, 5, 60, 0
14, 71184, Note_on_c, 5, 59, 103
14, 71185, Note_on_c, 5, 64, 0
14, 71232, Note_on_c, 5, 60, 83
14, 71239, Note_on_c, 5, 59, 0
14, 71280, Note_on_c, 5, 64, 99
14, 71289, Note_on_c, 5, 60, 0
14, 71327, Note_on_c, 5, 64, 0
14, 71328, Note_on_c, 5, 59, 96
14, 71376, Note_on_c, 5, 60, 87
14, 71383, Note_on_c, 5, 59, 0
14, 71416, Note_on_c, 5, 60, 0
14, 71424, Note_on_c, 5, 59, 111
14, 71468, Note_on_c, 5, 59, 0
14, 71472, Note_on_c, 5, 63, 103
14, 71520, Note_on_c, 5, 63, 0
14, 71520, Note_on_c, 5, 66, 114
14, 71561, Note_on_c, 5, 66, 0
14, 71568, Note_on_c, 5, 59, 101
14, 71616, Note_on_c, 5, 63, 96
14, 71636, Note_on_c, 5, 59, 0
14, 71664, Note_on_c, 5, 66, 93
14, 71669, Note_on_c, 5, 63, 0
14, 71704, Note_on_c, 5, 66, 0
14, 71712, Note_on_c, 5, 59, 89
14, 71760, Note_on_c, 5, 63, 99
14, 71775, Note_on_c, 5, 59, 0
14, 71808, Note_on_c, 5, 66, 99
14, 71819, Note_on_c, 5, 63, 0
14, 71853, Note_on_c, 5, 66, 0
14, 71856, Note_on_c, 5, 59, 101
14, 71904, Note_on_c, 5, 63, 97
14, 71921, Note_on_c, 5, 59, 0
14, 71952, Note_on_c, 5, 66, 103
14, 71958, Note_on_c, 5, 63, 0
14, 71994, Note_on_c, 5, 66, 0
14, 72000, Note_on_c, 5, 59, 106
14, 72048, Note_on_c, 5, 63, 103
14, 72073, Note_on_c, 5, 59, 0
14, 72096, Note_on_c, 5, 66, 110
14, 72097, Note_on_c, 5, 63, 0
14, 72134, Note_on_c, 5, 66, 0
14, 72144, Note_on_c, 5, 63, 92
14, 72179, Note_on_c, 5, 63, 0
14, 72192, Note_on_c, 5, 55, 96
14, 72240, Note_on_c, 5, 59, 94
14, 72250, Note_on_c, 5, 55, 0
14, 72288, Note_on_c, 5, 64, 106
14, 72297, Note_on_c, 5, 59, 0
14, 72331, Note_on_c, 5, 64, 0
14, 72336, Note_on_c, 5, 55, 81
14, 72384, Note_on_c, 5, 59, 106
14, 72404, Note_on_c, 5, 55, 0
14, 72429, Note_on_c, 5, 59, 0
14, 72432, Note_on_c, 5, 64, 88
14, 72480, Note_on_c, 5, 55, 88
14, 72494, Note_on_c, 5, 64, 0
14, 72528, Note_on_c, 5, 59, 78
14, 72540, Note_on_c, 5, 55, 0
14, 72576, Note_on_c, 5, 64, 92
14, 72580, Note_on_c, 5, 59, 0
14, 72624, Note_on_c, 5, 55, 92
14, 72629, Note_on_c, 5, 64, 0
14, 72672, Note_on_c, 5, 59, 92
14, 72689, Note_on_c, 5, 55, 0
14, 72720, Note_on_c, 5, 64, 96
14, 72727, Note_on_c, 5, 59, 0
14, 72768, Note_on_c, 5, 55, 94
14, 72781, Note_on_c, 5, 64, 0
14, 72816, Note_on_c, 5, 59, 88
14, 72836, Note_on_c, 5, 55, 0
14, 72864, Note_on_c, 5, 64, 89
14, 72876, Note_on_c, 5, 59, 0
14, 72912, Note_on_c, 5, 55, 89
14, 72922, Note_on_c, 5, 64, 0
14, 72944, Note_on_c, 5, 55, 0
14, 72960, Note_on_c, 5, 59, 93
14, 73008, Note_on_c, 5, 60, 70
14, 73017, Note_on_c, 5, 59, 0
14, 73052, Note_on_c, 5, 60, 0
14, 73056, Note_on_c, 5, 64, 81
14, 73104, Note_on_c, 5, 59, 101
14, 73105, Note_on_c, 5, 64, 0
14, 73152, Note_on_c, 5, 60, 85
14, 73167, Note_on_c, 5, 59, 0
14, 73200, Note_on_c, 5, 64, 86
14, 73202, Note_on_c, 5, 60, 0
14, 73248, Note_on_c, 5, 64, 0
14, 73248, Note_on_c, 5, 59, 96
14, 73296, Note_on_c, 5, 60, 81
14, 73310, Note_on_c, 5, 59, 0
14, 73344, Note_on_c, 5, 64, 80
14, 73346, Note_on_c, 5, 60, 0
14, 73392, Note_on_c, 5, 59, 78
14, 73399, Note_on_c, 5, 64, 0
14, 73440, Note_on_c, 5, 60, 74
14, 73460, Note_on_c, 5, 59, 0
14, 73488, Note_on_c, 5, 64, 71
14, 73495, Note_on_c, 5, 60, 0
14, 73536, Note_on_c, 5, 59, 96
14, 73542, Note_on_c, 5, 64, 0
14, 73584, Note_on_c, 5, 60, 65
14, 73601, Note_on_c, 5, 59, 0
14, 73632, Note_on_c, 5, 64, 76
14, 73642, Note_on_c, 5, 60, 0
14, 73677, Note_on_c, 5, 64, 0
14, 73680, Note_on_c, 5, 59, 83
14, 73728, Note_on_c, 5, 60, 64
14, 73745, Note_on_c, 5, 59, 0
14, 73776, Note_on_c, 5, 64, 72
14, 73778, Note_on_c, 5, 60, 0
14, 73824, Note_on_c, 5, 59, 94
14, 73832, Note_on_c, 5, 64, 0
14, 73872, Note_on_c, 5, 60, 73
14, 73891, Note_on_c, 5, 59, 0
14, 73920, Note_on_c, 5, 64, 81
14, 73930, Note_on_c, 5, 60, 0
14, 73968, Note_on_c, 5, 64, 0
14, 73968, Note_on_c, 5, 59, 86
14, 74016, Note_on_c, 5, 60, 71
14, 74031, Note_on_c, 5, 59, 0
14, 74064, Note_on_c, 5, 64, 74
14, 74071, Note_on_c, 5, 60, 0
14, 74112, Note_on_c, 5, 59, 86
14, 74120, Note_on_c, 5, 64, 0
14, 74160, Note_on_c, 5, 60, 67
14, 74188, Note_on_c, 5, 59, 0
14, 74208, Note_on_c, 5, 64, 75
14, 74214, Note_on_c, 5, 60, 0
14, 74256, Note_on_c, 5, 64, 0
14, 74256, Note_on_c, 5, 59, 94
14, 74304, Note_on_c, 5, 60, 78
14, 74324, Note_on_c, 5, 59, 0
14, 74352, Note_on_c, 5, 64, 78
14, 74363, Note_on_c, 5, 60, 0
14, 74399, Note_on_c, 5, 64, 0
14, 74400, Note_on_c, 5, 59, 94
14, 74448, Note_on_c, 5, 60, 68
14, 74459, Note_on_c, 5, 59, 0
14, 74483, Note_on_c, 5, 60, 0
14, 74496, Note_on_c, 5, 59, 116
14, 74544, Note_on_c, 5, 63, 97
14, 74556, Note_on_c, 5, 59, 0
14, 74592, Note_on_c, 5, 66, 95
14, 74594, Note_on_c, 5, 63, 0
14, 74640, Note_on_c, 5, 66, 0
14, 74640, Note_on_c, 5, 59, 88
14, 74688, Note_on_c, 5, 63, 95
14, 74720, Note_on_c, 5, 59, 0
14, 74736, Note_on_c, 5, 66, 76
14, 74754, Note_on_c, 5, 63, 0
14, 74782, Note_on_c, 5, 66, 0
14, 74784, Note_on_c, 5, 59, 99
14, 74832, Note_on_c, 5, 63, 103
14, 74855, Note_on_c, 5, 59, 0
14, 74880, Note_on_c, 5, 66, 110
14, 74898, Note_on_c, 5, 63, 0
14, 74920, Note_on_c, 5, 66, 0
14, 74928, Note_on_c, 5, 59, 101
14, 74976, Note_on_c, 5, 63, 99
14, 74991, Note_on_c, 5, 59, 0
14, 75024, Note_on_c, 5, 66, 97
14, 75039, Note_on_c, 5, 63, 0
14, 75072, Note_on_c, 5, 59, 96
14, 75075, Note_on_c, 5, 66, 0
14, 75120, Note_on_c, 5, 63, 74
14, 75149, Note_on_c, 5, 59, 0
14, 75168, Note_on_c, 5, 66, 107
14, 75172, Note_on_c, 5, 63, 0
14, 75204, Note_on_c, 5, 66, 0
14, 75264, Note_on_c, 5, 52, 99
14, 75302, Note_on_c, 5, 52, 0
14, 75312, Note_on_c, 5, 52, 88
14, 75360, Note_on_c, 5, 55, 76
14, 75369, Note_on_c, 5, 52, 0
14, 75401, Note_on_c, 5, 55, 0
14, 75408, Note_on_c, 5, 52, 66
14, 75455, Note_on_c, 5, 52, 0
14, 75456, Note_on_c, 5, 57, 88
14, 75501, Note_on_c, 5, 57, 0
14, 75504, Note_on_c, 5, 52, 80
14, 75552, Note_on_c, 5, 59, 99
14, 75559, Note_on_c, 5, 52, 0
14, 75589, Note_on_c, 5, 59, 0
14, 75600, Note_on_c, 5, 52, 94
14, 75635, Note_on_c, 5, 52, 0
14, 75648, Note_on_c, 5, 52, 95
14, 75696, Note_on_c, 5, 52, 0
14, 75696, Note_on_c, 5, 52, 101
14, 75744, Note_on_c, 5, 52, 0
14, 75744, Note_on_c, 5, 55, 101
14, 75792, Note_on_c, 5, 55, 0
14, 75792, Note_on_c, 5, 52, 95
14, 75840, Note_on_c, 5, 52, 0
14, 75840, Note_on_c, 5, 57, 92
14, 75888, Note_on_c, 5, 57, 0
14, 75888, Note_on_c, 5, 52, 90
14, 75936, Note_on_c, 5, 52, 0
14, 75936, Note_on_c, 5, 59, 90
14, 75984, Note_on_c, 5, 59, 0
14, 75984, Note_on_c, 5, 52, 90
14, 76032, Note_on_c, 5, 52, 0
14, 76032, Note_on_c, 5, 59, 103
14, 76080, Note_on_c, 5, 60, 69
14, 76081, Note_on_c, 5, 59, 0
14, 76126, Note_on_c, 5, 60, 0
14, 76128, Note_on_c, 5, 64, 89
14, 76175, Note_on_c, 5, 64, 0
14, 76176, Note_on_c, 5, 59, 88
14, 76224, Note_on_c, 5, 60, 88
14, 76229, Note_on_c, 5, 59, 0
14, 76272, Note_on_c, 5, 64, 73
14, 76282, Note_on_c, 5, 60, 0
14, 76311, Note_on_c, 5, 64, 0
14, 76320, Note_on_c, 5, 59, 86
14, 76368, Note_on_c, 5, 60, 85
14, 76383, Note_on_c, 5, 59, 0
14, 76416, Note_on_c, 5, 64, 83
14, 76422, Note_on_c, 5, 60, 0
14, 76463, Note_on_c, 5, 64, 0
14, 76464, Note_on_c, 5, 59, 80
14, 76512, Note_on_c, 5, 60, 69
14, 76529, Note_on_c, 5, 59, 0
14, 76560, Note_on_c, 5, 64, 80
14, 76565, Note_on_c, 5, 60, 0
14, 76606, Note_on_c, 5, 64, 0
14, 76608, Note_on_c, 5, 59, 96
14, 76656, Note_on_c, 5, 60, 76
14, 76668, Note_on_c, 5, 59, 0
14, 76704, Note_on_c, 5, 64, 78
14, 76710, Note_on_c, 5, 60, 0
14, 76749, Note_on_c, 5, 64, 0
14, 76752, Note_on_c, 5, 59, 89
14, 76800, Note_on_c, 5, 60, 86
14, 76815, Note_on_c, 5, 59, 0
14, 76848, Note_on_c, 5, 64, 76
14, 76853, Note_on_c, 5, 60, 0
14, 76895, Note_on_c, 5, 64, 0
14, 76896, Note_on_c, 5, 59, 94
14, 76944, Note_on_c, 5, 60, 76
14, 76956, Note_on_c, 5, 59, 0
14, 76992, Note_on_c, 5, 64, 89
14, 77004, Note_on_c, 5, 60, 0
14, 77039, Note_on_c, 5, 64, 0
14, 77040, Note_on_c, 5, 59, 89
14, 77088, Note_on_c, 5, 60, 86
14, 77106, Note_on_c, 5, 59, 0
14, 77136, Note_on_c, 5, 64, 88
14, 77140, Note_on_c, 5, 60, 0
14, 77184, Note_on_c, 5, 59, 96
14, 77185, Note_on_c, 5, 64, 0
14, 77232, Note_on_c, 5, 60, 75
14, 77248, Note_on_c, 5, 59, 0
14, 77280, Note_on_c, 5, 64, 88
14, 77285, Note_on_c, 5, 60, 0
14, 77328, Note_on_c, 5, 59, 103
14, 77329, Note_on_c, 5, 64, 0
14, 77376, Note_on_c, 5, 60, 83
14, 77383, Note_on_c, 5, 59, 0
14, 77424, Note_on_c, 5, 64, 99
14, 77433, Note_on_c, 5, 60, 0
14, 77471, Note_on_c, 5, 64, 0
14, 77472, Note_on_c, 5, 59, 96
14, 77520, Note_on_c, 5, 60, 87
14, 77527, Note_on_c, 5, 59, 0
14, 77560, Note_on_c, 5, 60, 0
14, 77568, Note_on_c, 5, 59, 111
14, 77612, Note_on_c, 5, 59, 0
14, 77616, Note_on_c, 5, 63, 103
14, 77664, Note_on_c, 5, 63, 0
14, 77664, Note_on_c, 5, 66, 114
14, 77705, Note_on_c, 5, 66, 0
14, 77712, Note_on_c, 5, 59, 101
14, 77760, Note_on_c, 5, 63, 96
14, 77780, Note_on_c, 5, 59, 0
14, 77808, Note_on_c, 5, 66, 93
14, 77813, Note_on_c, 5, 63, 0
14, 77848, Note_on_c, 5, 66, 0
14, 77856, Note_on_c, 5, 59, 89
14, 77904, Note_on_c, 5, 63, 99
14, 77919, Note_on_c, 5, 59, 0
14, 77952, Note_on_c, 5, 66, 99
14, 77963, Note_on_c, 5, 63, 0
14, 77997, Note_on_c, 5, 66, 0
14, 78000, Note_on_c, 5, 59, 101
14, 78048, Note_on_c, 5, 63, 97
14, 78065, Note_on_c, 5, 59, 0
14, 78096, Note_on_c, 5, 66, 103
14, 78102, Note_on_c, 5, 63, 0
14, 78138, Note_on_c, 5, 66, 0
14, 78144, Note_on_c, 5, 59, 106
14, 78192, Note_on_c, 5, 63, 103
14, 78217, Note_on_c, 5, 59, 0
14, 78240, Note_on_c, 5, 66, 110
14, 78241, Note_on_c, 5, 63, 0
14, 78278, Note_on_c, 5, 66, 0
14, 78288, Note_on_c, 5, 63, 92
14, 78323, Note_on_c, 5, 63, 0
14, 78336, Note_on_c, 5, 55, 96
14, 78384, Note_on_c, 5, 59, 94
14, 78394, Note_on_c, 5, 55, 0
14, 78432, Note_on_c, 5, 64, 106
14, 78441, Note_on_c, 5, 59, 0
14, 78475, Note_on_c, 5, 64, 0
14, 78480, Note_on_c, 5, 55, 81
14, 78528, Note_on_c, 5, 59, 106
14, 78548, Note_on_c, 5, 55, 0
14, 78573, Note_on_c, 5, 59, 0
14, 78576, Note_on_c, 5, 64, 88
14, 78624, Note_on_c, 5, 55, 88
14, 78638, Note_on_c, 5, 64, 0
14, 78672, Note_on_c, 5, 59, 78
14, 78684, Note_on_c, 5, 55, 0
14, 78720, Note_on_c, 5, 64, 92
14, 78724, Note_on_c, 5, 59, 0
14, 78768, Note_on_c, 5, 55, 92
14, 78773, Note_on_c, 5, 64, 0
14, 78816, Note_on_c, 5, 59, 92
14, 78833, Note_on_c, 5, 55, 0
14, 78864, Note_on_c, 5, 64, 96
14, 78871, Note_on_c, 5, 59, 0
14, 78912, Note_on_c, 5, 55, 94
14, 78925, Note_on_c, 5, 64, 0
14, 78960, Note_on_c, 5, 59, 88
14, 78980, Note_on_c, 5, 55, 0
14, 79008, Note_on_c, 5, 64, 89
14, 79020, Note_on_c, 5, 59, 0
14, 79056, Note_on_c, 5, 55, 89
14, 79066, Note_on_c, 5, 64, 0
14, 79088, Note_on_c, 5, 55, 0
14, 79104, Note_on_c, 5, 59, 103
14, 79152, Note_on_c, 5, 60, 69
14, 79153, Note_on_c, 5, 59, 0
14, 79198, Note_on_c, 5, 60, 0
14, 79200, Note_on_c, 5, 64, 89
14, 79247, Note_on_c, 5, 64, 0
14, 79248, Note_on_c, 5, 59, 88
14, 79296, Note_on_c, 5, 60, 88
14, 79301, Note_on_c, 5, 59, 0
14, 79344, Note_on_c, 5, 64, 73
14, 79354, Note_on_c, 5, 60, 0
14, 79383, Note_on_c, 5, 64, 0
14, 79392, Note_on_c, 5, 59, 86
14, 79440, Note_on_c, 5, 60, 85
14, 79455, Note_on_c, 5, 59, 0
14, 79488, Note_on_c, 5, 64, 83
14, 79494, Note_on_c, 5, 60, 0
14, 79535, Note_on_c, 5, 64, 0
14, 79536, Note_on_c, 5, 59, 80
14, 79584, Note_on_c, 5, 60, 69
14, 79601, Note_on_c, 5, 59, 0
14, 79632, Note_on_c, 5, 64, 80
14, 79637, Note_on_c, 5, 60, 0
14, 79678, Note_on_c, 5, 64, 0
14, 79680, Note_on_c, 5, 59, 96
14, 79728, Note_on_c, 5, 60, 76
14, 79740, Note_on_c, 5, 59, 0
14, 79776, Note_on_c, 5, 64, 78
14, 79782, Note_on_c, 5, 60, 0
14, 79821, Note_on_c, 5, 64, 0
14, 79824, Note_on_c, 5, 59, 89
14, 79872, Note_on_c, 5, 60, 86
14, 79887, Note_on_c, 5, 59, 0
14, 79920, Note_on_c, 5, 64, 76
14, 79925, Note_on_c, 5, 60, 0
14, 79967, Note_on_c, 5, 64, 0
14, 79968, Note_on_c, 5, 59, 94
14, 80016, Note_on_c, 5, 60, 76
14, 80028, Note_on_c, 5, 59, 0
14, 80064, Note_on_c, 5, 64, 89
14, 80076, Note_on_c, 5, 60, 0
14, 80111, Note_on_c, 5, 64, 0
14, 80112, Note_on_c, 5, 59, 89
14, 80160, Note_on_c, 5, 60, 86
14, 80178, Note_on_c, 5, 59, 0
14, 80208, Note_on_c, 5, 64, 88
14, 80212, Note_on_c, 5, 60, 0
14, 80256, Note_on_c, 5, 59, 96
14, 80257, Note_on_c, 5, 64, 0
14, 80304, Note_on_c, 5, 60, 75
14, 80320, Note_on_c, 5, 59, 0
14, 80352, Note_on_c, 5, 64, 88
14, 80357, Note_on_c, 5, 60, 0
14, 80400, Note_on_c, 5, 59, 103
14, 80401, Note_on_c, 5, 64, 0
14, 80448, Note_on_c, 5, 60, 83
14, 80455, Note_on_c, 5, 59, 0
14, 80496, Note_on_c, 5, 64, 99
14, 80505, Note_on_c, 5, 60, 0
14, 80543, Note_on_c, 5, 64, 0
14, 80544, Note_on_c, 5, 59, 96
14, 80592, Note_on_c, 5, 60, 87
14, 80599, Note_on_c, 5, 59, 0
14, 80632, Note_on_c, 5, 60, 0
14, 80640, Note_on_c, 5, 59, 111
14, 80684, Note_on_c, 5, 59, 0
14, 80688, Note_on_c, 5, 63, 103
14, 80736, Note_on_c, 5, 63, 0
14, 80736, Note_on_c, 5, 66, 114
14, 80777, Note_on_c, 5, 66, 0
14, 80784, Note_on_c, 5, 59, 101
14, 80832, Note_on_c, 5, 63, 96
14, 80852, Note_on_c, 5, 59, 0
14, 80880, Note_on_c, 5, 66, 93
14, 80885, Note_on_c, 5, 63, 0
14, 80920, Note_on_c, 5, 66, 0
14, 80928, Note_on_c, 5, 59, 89
14, 80976, Note_on_c, 5, 63, 99
14, 80991, Note_on_c, 5, 59, 0
14, 81024, Note_on_c, 5, 66, 99
14, 81035, Note_on_c, 5, 63, 0
14, 81069, Note_on_c, 5, 66, 0
14, 81072, Note_on_c, 5, 59, 101
14, 81120, Note_on_c, 5, 63, 97
14, 81137, Note_on_c, 5, 59, 0
14, 81168, Note_on_c, 5, 66, 103
14, 81174, Note_on_c, 5, 63, 0
14, 81210, Note_on_c, 5, 66, 0
14, 81216, Note_on_c, 5, 59, 106
14, 81264, Note_on_c, 5, 63, 103
14, 81289, Note_on_c, 5, 59, 0
14, 81312, Note_on_c, 5, 66, 110
14, 81313, Note_on_c, 5, 63, 0
14, 81350, Note_on_c, 5, 66, 0
14, 81360, Note_on_c, 5, 63, 92
14, 81395, Note_on_c, 5, 63, 0
14, 81395, End_track
15, 0, Start_track
15, 0, MIDI_port, 0
15, 0, Title_t, ""
15, 0, Control_c, 6, 0, 56
15, 0, Control_c, 6, 32, 0
15, 0, Program_c, 6, 36
15, 0, Control_c, 6, 7, 127
15, 0, Control_c, 6, 10, 64
15, 0, Control_c, 6, 91, 0
15, 0, Control_c, 6, 93, 0
15, 1982, Control_c, 6, 91, 0
15, 1982, Control_c, 6, 93, 0
15, 1982, Control_c, 6, 10, 64
15, 1982, Control_c, 6, 7, 127
15, 3840, Note_on_c, 6, 31, 70
15, 3868, Note_on_c, 6, 31, 0
15, 3938, Note_on_c, 6, 31, 70
15, 3964, Note_on_c, 6, 31, 0
15, 3986, Note_on_c, 6, 31, 70
15, 4012, Note_on_c, 6, 31, 0
15, 4032, Note_on_c, 6, 31, 70
15, 4060, Note_on_c, 6, 31, 0
15, 4128, Note_on_c, 6, 31, 70
15, 4156, Note_on_c, 6, 31, 0
15, 4174, Note_on_c, 6, 31, 70
15, 4204, Note_on_c, 6, 31, 0
15, 4226, Note_on_c, 6, 31, 70
15, 4252, Note_on_c, 6, 31, 0
15, 4320, Note_on_c, 6, 31, 70
15, 4348, Note_on_c, 6, 31, 0
15, 4368, Note_on_c, 6, 31, 70
15, 4396, Note_on_c, 6, 31, 0
15, 4418, Note_on_c, 6, 31, 70
15, 4444, Note_on_c, 6, 31, 0
15, 4514, Note_on_c, 6, 31, 70
15, 4540, Note_on_c, 6, 31, 0
15, 4562, Note_on_c, 6, 31, 70
15, 4588, Note_on_c, 6, 31, 0
15, 4612, Note_on_c, 6, 31, 70
15, 4636, Note_on_c, 6, 31, 0
15, 4702, Note_on_c, 6, 31, 70
15, 4732, Note_on_c, 6, 31, 0
15, 4750, Note_on_c, 6, 31, 70
15, 4780, Note_on_c, 6, 31, 0
15, 4804, Note_on_c, 6, 31, 70
15, 4828, Note_on_c, 6, 31, 0
15, 4894, Note_on_c, 6, 31, 70
15, 4924, Note_on_c, 6, 31, 0
15, 4940, Note_on_c, 6, 31, 70
15, 4972, Note_on_c, 6, 31, 0
15, 4992, Note_on_c, 6, 31, 70
15, 5020, Note_on_c, 6, 31, 0
15, 5088, Note_on_c, 6, 31, 70
15, 5116, Note_on_c, 6, 31, 0
15, 5132, Note_on_c, 6, 31, 70
15, 5164, Note_on_c, 6, 31, 0
15, 5182, Note_on_c, 6, 31, 70
15, 5212, Note_on_c, 6, 31, 0
15, 5282, Note_on_c, 6, 31, 70
15, 5308, Note_on_c, 6, 31, 0
15, 5324, Note_on_c, 6, 31, 70
15, 5356, Note_on_c, 6, 31, 0
15, 5378, Note_on_c, 6, 31, 70
15, 5404, Note_on_c, 6, 31, 0
15, 5470, Note_on_c, 6, 31, 70
15, 5500, Note_on_c, 6, 31, 0
15, 5522, Note_on_c, 6, 31, 70
15, 5548, Note_on_c, 6, 31, 0
15, 5570, Note_on_c, 6, 35, 70
15, 5596, Note_on_c, 6, 35, 0
15, 5664, Note_on_c, 6, 35, 70
15, 5692, Note_on_c, 6, 35, 0
15, 5712, Note_on_c, 6, 35, 70
15, 5740, Note_on_c, 6, 35, 0
15, 5762, Note_on_c, 6, 38, 70
15, 5788, Note_on_c, 6, 38, 0
15, 5858, Note_on_c, 6, 38, 70
15, 5884, Note_on_c, 6, 38, 0
15, 5904, Note_on_c, 6, 38, 70
15, 5932, Note_on_c, 6, 38, 0
15, 5952, Note_on_c, 6, 43, 70
15, 5980, Note_on_c, 6, 43, 0
15, 6046, Note_on_c, 6, 43, 70
15, 6076, Note_on_c, 6, 43, 0
15, 6098, Note_on_c, 6, 43, 70
15, 6124, Note_on_c, 6, 43, 0
15, 6148, Note_on_c, 6, 35, 70
15, 6172, Note_on_c, 6, 35, 0
15, 6244, Note_on_c, 6, 35, 70
15, 6268, Note_on_c, 6, 35, 0
15, 6288, Note_on_c, 6, 35, 70
15, 6316, Note_on_c, 6, 35, 0
15, 6338, Note_on_c, 6, 39, 70
15, 6364, Note_on_c, 6, 39, 0
15, 6428, Note_on_c, 6, 39, 70
15, 6460, Note_on_c, 6, 39, 0
15, 6476, Note_on_c, 6, 39, 70
15, 6508, Note_on_c, 6, 39, 0
15, 6528, Note_on_c, 6, 42, 70
15, 6556, Note_on_c, 6, 42, 0
15, 6624, Note_on_c, 6, 42, 70
15, 6652, Note_on_c, 6, 42, 0
15, 6672, Note_on_c, 6, 42, 70
15, 6700, Note_on_c, 6, 42, 0
15, 6718, Note_on_c, 6, 47, 70
15, 6748, Note_on_c, 6, 47, 0
15, 6818, Note_on_c, 6, 47, 70
15, 6844, Note_on_c, 6, 47, 0
15, 6864, Note_on_c, 6, 47, 70
15, 6892, Note_on_c, 6, 47, 0
15, 6912, Note_on_c, 6, 28, 70
15, 6940, Note_on_c, 6, 28, 0
15, 7008, Note_on_c, 6, 28, 70
15, 7036, Note_on_c, 6, 28, 0
15, 7054, Note_on_c, 6, 28, 70
15, 7084, Note_on_c, 6, 28, 0
15, 7106, Note_on_c, 6, 31, 70
15, 7132, Note_on_c, 6, 31, 0
15, 7200, Note_on_c, 6, 31, 70
15, 7228, Note_on_c, 6, 31, 0
15, 7248, Note_on_c, 6, 31, 70
15, 7276, Note_on_c, 6, 31, 0
15, 7298, Note_on_c, 6, 35, 70
15, 7324, Note_on_c, 6, 35, 0
15, 7394, Note_on_c, 6, 35, 70
15, 7420, Note_on_c, 6, 35, 0
15, 7440, Note_on_c, 6, 35, 70
15, 7468, Note_on_c, 6, 35, 0
15, 7488, Note_on_c, 6, 40, 70
15, 7516, Note_on_c, 6, 40, 0
15, 7584, Note_on_c, 6, 40, 70
15, 7612, Note_on_c, 6, 40, 0
15, 7630, Note_on_c, 6, 40, 70
15, 7660, Note_on_c, 6, 40, 0
15, 7684, Note_on_c, 6, 36, 70
15, 7708, Note_on_c, 6, 36, 0
15, 7776, Note_on_c, 6, 36, 70
15, 7804, Note_on_c, 6, 36, 0
15, 7824, Note_on_c, 6, 36, 70
15, 7852, Note_on_c, 6, 36, 0
15, 7872, Note_on_c, 6, 40, 70
15, 7900, Note_on_c, 6, 40, 0
15, 7968, Note_on_c, 6, 40, 70
15, 7996, Note_on_c, 6, 40, 0
15, 8012, Note_on_c, 6, 40, 70
15, 8044, Note_on_c, 6, 40, 0
15, 8062, Note_on_c, 6, 43, 70
15, 8092, Note_on_c, 6, 43, 0
15, 8160, Note_on_c, 6, 43, 70
15, 8188, Note_on_c, 6, 43, 0
15, 8204, Note_on_c, 6, 43, 70
15, 8236, Note_on_c, 6, 43, 0
15, 8256, Note_on_c, 6, 48, 70
15, 8284, Note_on_c, 6, 48, 0
15, 8350, Note_on_c, 6, 48, 70
15, 8380, Note_on_c, 6, 48, 0
15, 8402, Note_on_c, 6, 48, 70
15, 8428, Note_on_c, 6, 48, 0
15, 8450, Note_on_c, 6, 31, 70
15, 8476, Note_on_c, 6, 31, 0
15, 8544, Note_on_c, 6, 31, 70
15, 8572, Note_on_c, 6, 31, 0
15, 8590, Note_on_c, 6, 31, 70
15, 8620, Note_on_c, 6, 31, 0
15, 8642, Note_on_c, 6, 35, 70
15, 8668, Note_on_c, 6, 35, 0
15, 8738, Note_on_c, 6, 35, 70
15, 8764, Note_on_c, 6, 35, 0
15, 8784, Note_on_c, 6, 35, 70
15, 8812, Note_on_c, 6, 35, 0
15, 8834, Note_on_c, 6, 38, 70
15, 8860, Note_on_c, 6, 38, 0
15, 8926, Note_on_c, 6, 38, 70
15, 8956, Note_on_c, 6, 38, 0
15, 8978, Note_on_c, 6, 38, 70
15, 9004, Note_on_c, 6, 38, 0
15, 9028, Note_on_c, 6, 43, 70
15, 9052, Note_on_c, 6, 43, 0
15, 9124, Note_on_c, 6, 43, 70
15, 9148, Note_on_c, 6, 43, 0
15, 9164, Note_on_c, 6, 43, 70
15, 9196, Note_on_c, 6, 43, 0
15, 9218, Note_on_c, 6, 35, 70
15, 9244, Note_on_c, 6, 35, 0
15, 9316, Note_on_c, 6, 35, 70
15, 9340, Note_on_c, 6, 35, 0
15, 9356, Note_on_c, 6, 35, 70
15, 9388, Note_on_c, 6, 35, 0
15, 9408, Note_on_c, 6, 39, 70
15, 9436, Note_on_c, 6, 39, 0
15, 9504, Note_on_c, 6, 39, 70
15, 9532, Note_on_c, 6, 39, 0
15, 9548, Note_on_c, 6, 39, 70
15, 9580, Note_on_c, 6, 39, 0
15, 9598, Note_on_c, 6, 42, 70
15, 9628, Note_on_c, 6, 42, 0
15, 9696, Note_on_c, 6, 42, 70
15, 9724, Note_on_c, 6, 42, 0
15, 9740, Note_on_c, 6, 42, 70
15, 9772, Note_on_c, 6, 42, 0
15, 9792, Note_on_c, 6, 47, 70
15, 9820, Note_on_c, 6, 47, 0
15, 9886, Note_on_c, 6, 47, 70
15, 9916, Note_on_c, 6, 47, 0
15, 9934, Note_on_c, 6, 47, 70
15, 9964, Note_on_c, 6, 47, 0
15, 9988, Note_on_c, 6, 28, 70
15, 10012, Note_on_c, 6, 28, 0
15, 10080, Note_on_c, 6, 28, 70
15, 10108, Note_on_c, 6, 28, 0
15, 10128, Note_on_c, 6, 28, 70
15, 10156, Note_on_c, 6, 28, 0
15, 10174, Note_on_c, 6, 31, 70
15, 10204, Note_on_c, 6, 31, 0
15, 10274, Note_on_c, 6, 31, 70
15, 10300, Note_on_c, 6, 31, 0
15, 10320, Note_on_c, 6, 31, 70
15, 10348, Note_on_c, 6, 31, 0
15, 10372, Note_on_c, 6, 35, 70
15, 10396, Note_on_c, 6, 35, 0
15, 10462, Note_on_c, 6, 35, 70
15, 10492, Note_on_c, 6, 35, 0
15, 10510, Note_on_c, 6, 35, 70
15, 10540, Note_on_c, 6, 35, 0
15, 10564, Note_on_c, 6, 40, 70
15, 10588, Note_on_c, 6, 40, 0
15, 10656, Note_on_c, 6, 40, 70
15, 10684, Note_on_c, 6, 40, 0
15, 10700, Note_on_c, 6, 40, 70
15, 10732, Note_on_c, 6, 40, 0
15, 10750, Note_on_c, 6, 36, 70
15, 10780, Note_on_c, 6, 36, 0
15, 10852, Note_on_c, 6, 36, 70
15, 10876, Note_on_c, 6, 36, 0
15, 10896, Note_on_c, 6, 36, 70
15, 10924, Note_on_c, 6, 36, 0
15, 10942, Note_on_c, 6, 40, 70
15, 10972, Note_on_c, 6, 40, 0
15, 11040, Note_on_c, 6, 40, 70
15, 11068, Note_on_c, 6, 40, 0
15, 11084, Note_on_c, 6, 40, 70
15, 11116, Note_on_c, 6, 40, 0
15, 11136, Note_on_c, 6, 43, 70
15, 11164, Note_on_c, 6, 43, 0
15, 11230, Note_on_c, 6, 43, 70
15, 11260, Note_on_c, 6, 43, 0
15, 11282, Note_on_c, 6, 43, 70
15, 11308, Note_on_c, 6, 43, 0
15, 11328, Note_on_c, 6, 48, 70
15, 11356, Note_on_c, 6, 48, 0
15, 11424, Note_on_c, 6, 48, 70
15, 11452, Note_on_c, 6, 48, 0
15, 11470, Note_on_c, 6, 48, 70
15, 11500, Note_on_c, 6, 48, 0
15, 11522, Note_on_c, 6, 31, 70
15, 11548, Note_on_c, 6, 31, 0
15, 11616, Note_on_c, 6, 31, 70
15, 11644, Note_on_c, 6, 31, 0
15, 11664, Note_on_c, 6, 31, 70
15, 11692, Note_on_c, 6, 31, 0
15, 11712, Note_on_c, 6, 35, 70
15, 11740, Note_on_c, 6, 35, 0
15, 11806, Note_on_c, 6, 35, 70
15, 11836, Note_on_c, 6, 35, 0
15, 11858, Note_on_c, 6, 35, 70
15, 11884, Note_on_c, 6, 35, 0
15, 11908, Note_on_c, 6, 38, 70
15, 11932, Note_on_c, 6, 38, 0
15, 12000, Note_on_c, 6, 38, 70
15, 12028, Note_on_c, 6, 38, 0
15, 12046, Note_on_c, 6, 38, 70
15, 12076, Note_on_c, 6, 38, 0
15, 12100, Note_on_c, 6, 43, 70
15, 12124, Note_on_c, 6, 43, 0
15, 12192, Note_on_c, 6, 43, 70
15, 12220, Note_on_c, 6, 43, 0
15, 12236, Note_on_c, 6, 43, 70
15, 12268, Note_on_c, 6, 43, 0
15, 12288, Note_on_c, 6, 35, 70
15, 12316, Note_on_c, 6, 35, 0
15, 12388, Note_on_c, 6, 35, 70
15, 12412, Note_on_c, 6, 35, 0
15, 12434, Note_on_c, 6, 35, 70
15, 12460, Note_on_c, 6, 35, 0
15, 12484, Note_on_c, 6, 39, 70
15, 12508, Note_on_c, 6, 39, 0
15, 12576, Note_on_c, 6, 39, 70
15, 12604, Note_on_c, 6, 39, 0
15, 12620, Note_on_c, 6, 39, 70
15, 12652, Note_on_c, 6, 39, 0
15, 12672, Note_on_c, 6, 42, 70
15, 12700, Note_on_c, 6, 42, 0
15, 12766, Note_on_c, 6, 42, 70
15, 12796, Note_on_c, 6, 42, 0
15, 12812, Note_on_c, 6, 42, 70
15, 12844, Note_on_c, 6, 42, 0
15, 12866, Note_on_c, 6, 47, 70
15, 12892, Note_on_c, 6, 47, 0
15, 12960, Note_on_c, 6, 47, 70
15, 12988, Note_on_c, 6, 47, 0
15, 13008, Note_on_c, 6, 47, 70
15, 13036, Note_on_c, 6, 47, 0
15, 13054, Note_on_c, 6, 28, 70
15, 13084, Note_on_c, 6, 28, 0
15, 13154, Note_on_c, 6, 28, 70
15, 13180, Note_on_c, 6, 28, 0
15, 13200, Note_on_c, 6, 28, 70
15, 13228, Note_on_c, 6, 28, 0
15, 13248, Note_on_c, 6, 31, 70
15, 13276, Note_on_c, 6, 31, 0
15, 13342, Note_on_c, 6, 31, 70
15, 13372, Note_on_c, 6, 31, 0
15, 13394, Note_on_c, 6, 31, 70
15, 13420, Note_on_c, 6, 31, 0
15, 13444, Note_on_c, 6, 35, 70
15, 13468, Note_on_c, 6, 35, 0
15, 13536, Note_on_c, 6, 35, 70
15, 13564, Note_on_c, 6, 35, 0
15, 13584, Note_on_c, 6, 35, 70
15, 13612, Note_on_c, 6, 35, 0
15, 13634, Note_on_c, 6, 40, 70
15, 13660, Note_on_c, 6, 40, 0
15, 13730, Note_on_c, 6, 40, 70
15, 13756, Note_on_c, 6, 40, 0
15, 13776, Note_on_c, 6, 40, 70
15, 13804, Note_on_c, 6, 40, 0
15, 13824, Note_on_c, 6, 36, 70
15, 13852, Note_on_c, 6, 36, 0
15, 13920, Note_on_c, 6, 36, 70
15, 13948, Note_on_c, 6, 36, 0
15, 13970, Note_on_c, 6, 36, 70
15, 13996, Note_on_c, 6, 36, 0
15, 14016, Note_on_c, 6, 40, 70
15, 14044, Note_on_c, 6, 40, 0
15, 14112, Note_on_c, 6, 40, 70
15, 14140, Note_on_c, 6, 40, 0
15, 14156, Note_on_c, 6, 40, 70
15, 14188, Note_on_c, 6, 40, 0
15, 14208, Note_on_c, 6, 43, 70
15, 14236, Note_on_c, 6, 43, 0
15, 14304, Note_on_c, 6, 43, 70
15, 14332, Note_on_c, 6, 43, 0
15, 14348, Note_on_c, 6, 43, 70
15, 14380, Note_on_c, 6, 43, 0
15, 14400, Note_on_c, 6, 48, 70
15, 14428, Note_on_c, 6, 48, 0
15, 14496, Note_on_c, 6, 48, 70
15, 14524, Note_on_c, 6, 48, 0
15, 14544, Note_on_c, 6, 48, 70
15, 14572, Note_on_c, 6, 48, 0
15, 14594, Note_on_c, 6, 31, 70
15, 14620, Note_on_c, 6, 31, 0
15, 14690, Note_on_c, 6, 31, 70
15, 14716, Note_on_c, 6, 31, 0
15, 14738, Note_on_c, 6, 31, 70
15, 14764, Note_on_c, 6, 31, 0
15, 14784, Note_on_c, 6, 35, 70
15, 14812, Note_on_c, 6, 35, 0
15, 14880, Note_on_c, 6, 35, 70
15, 14908, Note_on_c, 6, 35, 0
15, 14926, Note_on_c, 6, 35, 70
15, 14956, Note_on_c, 6, 35, 0
15, 14980, Note_on_c, 6, 38, 70
15, 15004, Note_on_c, 6, 38, 0
15, 15072, Note_on_c, 6, 38, 70
15, 15100, Note_on_c, 6, 38, 0
15, 15120, Note_on_c, 6, 38, 70
15, 15148, Note_on_c, 6, 38, 0
15, 15170, Note_on_c, 6, 43, 70
15, 15196, Note_on_c, 6, 43, 0
15, 15266, Note_on_c, 6, 43, 70
15, 15292, Note_on_c, 6, 43, 0
15, 15312, Note_on_c, 6, 43, 70
15, 15340, Note_on_c, 6, 43, 0
15, 15364, Note_on_c, 6, 35, 70
15, 15388, Note_on_c, 6, 35, 0
15, 15460, Note_on_c, 6, 35, 70
15, 15484, Note_on_c, 6, 35, 0
15, 15502, Note_on_c, 6, 35, 70
15, 15532, Note_on_c, 6, 35, 0
15, 15552, Note_on_c, 6, 39, 70
15, 15580, Note_on_c, 6, 39, 0
15, 15646, Note_on_c, 6, 39, 70
15, 15676, Note_on_c, 6, 39, 0
15, 15692, Note_on_c, 6, 39, 70
15, 15724, Note_on_c, 6, 39, 0
15, 15744, Note_on_c, 6, 42, 70
15, 15772, Note_on_c, 6, 42, 0
15, 15840, Note_on_c, 6, 42, 70
15, 15868, Note_on_c, 6, 42, 0
15, 15884, Note_on_c, 6, 42, 70
15, 15916, Note_on_c, 6, 42, 0
15, 15934, Note_on_c, 6, 47, 70
15, 15964, Note_on_c, 6, 47, 0
15, 16034, Note_on_c, 6, 47, 70
15, 16060, Note_on_c, 6, 47, 0
15, 16080, Note_on_c, 6, 47, 70
15, 16108, Note_on_c, 6, 47, 0
15, 16128, Note_on_c, 6, 28, 70
15, 16156, Note_on_c, 6, 28, 0
15, 16222, Note_on_c, 6, 28, 70
15, 16252, Note_on_c, 6, 28, 0
15, 16274, Note_on_c, 6, 28, 70
15, 16300, Note_on_c, 6, 28, 0
15, 16324, Note_on_c, 6, 31, 70
15, 16348, Note_on_c, 6, 31, 0
15, 16416, Note_on_c, 6, 31, 70
15, 16444, Note_on_c, 6, 31, 0
15, 16464, Note_on_c, 6, 31, 70
15, 16492, Note_on_c, 6, 31, 0
15, 16514, Note_on_c, 6, 35, 70
15, 16540, Note_on_c, 6, 35, 0
15, 16610, Note_on_c, 6, 35, 70
15, 16636, Note_on_c, 6, 35, 0
15, 16656, Note_on_c, 6, 35, 70
15, 16684, Note_on_c, 6, 35, 0
15, 16706, Note_on_c, 6, 40, 70
15, 16732, Note_on_c, 6, 40, 0
15, 16798, Note_on_c, 6, 40, 70
15, 16828, Note_on_c, 6, 40, 0
15, 16850, Note_on_c, 6, 40, 70
15, 16876, Note_on_c, 6, 40, 0
15, 16894, Note_on_c, 6, 36, 70
15, 16924, Note_on_c, 6, 36, 0
15, 16992, Note_on_c, 6, 36, 70
15, 17020, Note_on_c, 6, 36, 0
15, 17040, Note_on_c, 6, 36, 70
15, 17068, Note_on_c, 6, 36, 0
15, 17090, Note_on_c, 6, 40, 70
15, 17116, Note_on_c, 6, 40, 0
15, 17188, Note_on_c, 6, 40, 70
15, 17212, Note_on_c, 6, 40, 0
15, 17232, Note_on_c, 6, 40, 70
15, 17260, Note_on_c, 6, 40, 0
15, 17284, Note_on_c, 6, 43, 70
15, 17308, Note_on_c, 6, 43, 0
15, 17376, Note_on_c, 6, 43, 70
15, 17404, Note_on_c, 6, 43, 0
15, 17420, Note_on_c, 6, 43, 70
15, 17452, Note_on_c, 6, 43, 0
15, 17472, Note_on_c, 6, 48, 70
15, 17500, Note_on_c, 6, 48, 0
15, 17570, Note_on_c, 6, 48, 70
15, 17596, Note_on_c, 6, 48, 0
15, 17612, Note_on_c, 6, 48, 70
15, 17644, Note_on_c, 6, 48, 0
15, 17664, Note_on_c, 6, 31, 70
15, 17692, Note_on_c, 6, 31, 0
15, 17760, Note_on_c, 6, 31, 70
15, 17788, Note_on_c, 6, 31, 0
15, 17806, Note_on_c, 6, 31, 70
15, 17836, Note_on_c, 6, 31, 0
15, 17858, Note_on_c, 6, 35, 70
15, 17884, Note_on_c, 6, 35, 0
15, 17952, Note_on_c, 6, 35, 70
15, 17980, Note_on_c, 6, 35, 0
15, 18000, Note_on_c, 6, 35, 70
15, 18028, Note_on_c, 6, 35, 0
15, 18050, Note_on_c, 6, 38, 70
15, 18076, Note_on_c, 6, 38, 0
15, 18146, Note_on_c, 6, 38, 70
15, 18172, Note_on_c, 6, 38, 0
15, 18192, Note_on_c, 6, 38, 70
15, 18220, Note_on_c, 6, 38, 0
15, 18244, Note_on_c, 6, 43, 70
15, 18268, Note_on_c, 6, 43, 0
15, 18336, Note_on_c, 6, 43, 70
15, 18364, Note_on_c, 6, 43, 0
15, 18382, Note_on_c, 6, 43, 70
15, 18412, Note_on_c, 6, 43, 0
15, 18432, Note_on_c, 6, 35, 70
15, 18460, Note_on_c, 6, 35, 0
15, 18528, Note_on_c, 6, 35, 70
15, 18556, Note_on_c, 6, 35, 0
15, 18576, Note_on_c, 6, 35, 70
15, 18604, Note_on_c, 6, 35, 0
15, 18628, Note_on_c, 6, 39, 70
15, 18652, Note_on_c, 6, 39, 0
15, 18720, Note_on_c, 6, 39, 70
15, 18748, Note_on_c, 6, 39, 0
15, 18764, Note_on_c, 6, 39, 70
15, 18796, Note_on_c, 6, 39, 0
15, 18814, Note_on_c, 6, 42, 70
15, 18844, Note_on_c, 6, 42, 0
15, 18912, Note_on_c, 6, 42, 70
15, 18940, Note_on_c, 6, 42, 0
15, 18956, Note_on_c, 6, 42, 70
15, 18988, Note_on_c, 6, 42, 0
15, 19008, Note_on_c, 6, 47, 70
15, 19036, Note_on_c, 6, 47, 0
15, 19102, Note_on_c, 6, 47, 70
15, 19132, Note_on_c, 6, 47, 0
15, 19154, Note_on_c, 6, 47, 70
15, 19180, Note_on_c, 6, 47, 0
15, 19204, Note_on_c, 6, 28, 70
15, 19228, Note_on_c, 6, 28, 0
15, 19296, Note_on_c, 6, 28, 70
15, 19324, Note_on_c, 6, 28, 0
15, 19342, Note_on_c, 6, 28, 70
15, 19372, Note_on_c, 6, 28, 0
15, 19390, Note_on_c, 6, 31, 70
15, 19420, Note_on_c, 6, 31, 0
15, 19488, Note_on_c, 6, 31, 70
15, 19516, Note_on_c, 6, 31, 0
15, 19536, Note_on_c, 6, 31, 70
15, 19564, Note_on_c, 6, 31, 0
15, 19584, Note_on_c, 6, 35, 70
15, 19612, Note_on_c, 6, 35, 0
15, 19678, Note_on_c, 6, 33, 66
15, 19764, Note_on_c, 6, 33, 0
15, 19828, Note_on_c, 6, 35, 66
15, 19908, Note_on_c, 6, 35, 0
15, 19970, Note_on_c, 6, 36, 70
15, 19996, Note_on_c, 6, 36, 0
15, 20068, Note_on_c, 6, 36, 70
15, 20092, Note_on_c, 6, 36, 0
15, 20116, Note_on_c, 6, 36, 70
15, 20140, Note_on_c, 6, 36, 0
15, 20160, Note_on_c, 6, 40, 70
15, 20188, Note_on_c, 6, 40, 0
15, 20256, Note_on_c, 6, 40, 70
15, 20284, Note_on_c, 6, 40, 0
15, 20304, Note_on_c, 6, 40, 70
15, 20332, Note_on_c, 6, 40, 0
15, 20352, Note_on_c, 6, 43, 70
15, 20380, Note_on_c, 6, 43, 0
15, 20450, Note_on_c, 6, 43, 70
15, 20476, Note_on_c, 6, 43, 0
15, 20496, Note_on_c, 6, 43, 70
15, 20524, Note_on_c, 6, 43, 0
15, 20544, Note_on_c, 6, 48, 70
15, 20572, Note_on_c, 6, 48, 0
15, 20640, Note_on_c, 6, 48, 70
15, 20668, Note_on_c, 6, 48, 0
15, 20686, Note_on_c, 6, 48, 70
15, 20716, Note_on_c, 6, 48, 0
15, 20738, Note_on_c, 6, 33, 70
15, 20764, Note_on_c, 6, 33, 0
15, 20832, Note_on_c, 6, 33, 70
15, 20860, Note_on_c, 6, 33, 0
15, 20880, Note_on_c, 6, 33, 70
15, 20908, Note_on_c, 6, 33, 0
15, 20930, Note_on_c, 6, 36, 70
15, 20956, Note_on_c, 6, 36, 0
15, 21026, Note_on_c, 6, 36, 70
15, 21052, Note_on_c, 6, 36, 0
15, 21072, Note_on_c, 6, 36, 70
15, 21100, Note_on_c, 6, 36, 0
15, 21124, Note_on_c, 6, 40, 70
15, 21148, Note_on_c, 6, 40, 0
15, 21216, Note_on_c, 6, 40, 70
15, 21244, Note_on_c, 6, 40, 0
15, 21262, Note_on_c, 6, 40, 70
15, 21292, Note_on_c, 6, 40, 0
15, 21316, Note_on_c, 6, 45, 70
15, 21340, Note_on_c, 6, 45, 0
15, 21408, Note_on_c, 6, 45, 70
15, 21436, Note_on_c, 6, 45, 0
15, 21456, Note_on_c, 6, 45, 70
15, 21484, Note_on_c, 6, 45, 0
15, 21508, Note_on_c, 6, 35, 70
15, 21532, Note_on_c, 6, 35, 0
15, 21600, Note_on_c, 6, 35, 70
15, 21628, Note_on_c, 6, 35, 0
15, 21644, Note_on_c, 6, 35, 70
15, 21676, Note_on_c, 6, 35, 0
15, 21694, Note_on_c, 6, 39, 70
15, 21724, Note_on_c, 6, 39, 0
15, 21796, Note_on_c, 6, 39, 70
15, 21820, Note_on_c, 6, 39, 0
15, 21840, Note_on_c, 6, 39, 70
15, 21868, Note_on_c, 6, 39, 0
15, 21888, Note_on_c, 6, 42, 70
15, 21916, Note_on_c, 6, 42, 0
15, 21982, Note_on_c, 6, 42, 70
15, 22012, Note_on_c, 6, 42, 0
15, 22032, Note_on_c, 6, 42, 70
15, 22060, Note_on_c, 6, 42, 0
15, 22080, Note_on_c, 6, 47, 70
15, 22108, Note_on_c, 6, 47, 0
15, 22176, Note_on_c, 6, 47, 70
15, 22204, Note_on_c, 6, 47, 0
15, 22222, Note_on_c, 6, 47, 70
15, 22252, Note_on_c, 6, 47, 0
15, 22270, Note_on_c, 6, 28, 70
15, 22300, Note_on_c, 6, 28, 0
15, 22368, Note_on_c, 6, 28, 70
15, 22396, Note_on_c, 6, 28, 0
15, 22416, Note_on_c, 6, 28, 70
15, 22444, Note_on_c, 6, 28, 0
15, 22464, Note_on_c, 6, 31, 70
15, 22492, Note_on_c, 6, 31, 0
15, 22558, Note_on_c, 6, 31, 70
15, 22588, Note_on_c, 6, 31, 0
15, 22610, Note_on_c, 6, 31, 70
15, 22636, Note_on_c, 6, 31, 0
15, 22656, Note_on_c, 6, 35, 70
15, 22684, Note_on_c, 6, 35, 0
15, 22752, Note_on_c, 6, 35, 70
15, 22780, Note_on_c, 6, 35, 0
15, 22798, Note_on_c, 6, 35, 70
15, 22828, Note_on_c, 6, 35, 0
15, 22852, Note_on_c, 6, 40, 70
15, 22876, Note_on_c, 6, 40, 0
15, 22944, Note_on_c, 6, 40, 70
15, 22972, Note_on_c, 6, 40, 0
15, 22992, Note_on_c, 6, 40, 70
15, 23020, Note_on_c, 6, 40, 0
15, 23042, Note_on_c, 6, 36, 70
15, 23068, Note_on_c, 6, 36, 0
15, 23138, Note_on_c, 6, 36, 70
15, 23164, Note_on_c, 6, 36, 0
15, 23186, Note_on_c, 6, 36, 70
15, 23212, Note_on_c, 6, 36, 0
15, 23230, Note_on_c, 6, 40, 70
15, 23260, Note_on_c, 6, 40, 0
15, 23332, Note_on_c, 6, 40, 70
15, 23356, Note_on_c, 6, 40, 0
15, 23380, Note_on_c, 6, 40, 70
15, 23404, Note_on_c, 6, 40, 0
15, 23428, Note_on_c, 6, 43, 70
15, 23452, Note_on_c, 6, 43, 0
15, 23518, Note_on_c, 6, 43, 70
15, 23548, Note_on_c, 6, 43, 0
15, 23568, Note_on_c, 6, 43, 70
15, 23596, Note_on_c, 6, 43, 0
15, 23616, Note_on_c, 6, 48, 70
15, 23644, Note_on_c, 6, 48, 0
15, 23712, Note_on_c, 6, 48, 70
15, 23740, Note_on_c, 6, 48, 0
15, 23760, Note_on_c, 6, 48, 70
15, 23788, Note_on_c, 6, 48, 0
15, 23806, Note_on_c, 6, 33, 70
15, 23836, Note_on_c, 6, 33, 0
15, 23904, Note_on_c, 6, 33, 70
15, 23932, Note_on_c, 6, 33, 0
15, 23952, Note_on_c, 6, 33, 70
15, 23980, Note_on_c, 6, 33, 0
15, 24000, Note_on_c, 6, 36, 70
15, 24028, Note_on_c, 6, 36, 0
15, 24094, Note_on_c, 6, 36, 70
15, 24124, Note_on_c, 6, 36, 0
15, 24146, Note_on_c, 6, 36, 70
15, 24172, Note_on_c, 6, 36, 0
15, 24196, Note_on_c, 6, 40, 70
15, 24220, Note_on_c, 6, 40, 0
15, 24288, Note_on_c, 6, 40, 70
15, 24316, Note_on_c, 6, 40, 0
15, 24336, Note_on_c, 6, 40, 70
15, 24364, Note_on_c, 6, 40, 0
15, 24386, Note_on_c, 6, 45, 70
15, 24412, Note_on_c, 6, 45, 0
15, 24482, Note_on_c, 6, 45, 70
15, 24508, Note_on_c, 6, 45, 0
15, 24528, Note_on_c, 6, 45, 70
15, 24556, Note_on_c, 6, 45, 0
15, 24578, Note_on_c, 6, 35, 70
15, 24604, Note_on_c, 6, 35, 0
15, 24670, Note_on_c, 6, 35, 70
15, 24700, Note_on_c, 6, 35, 0
15, 24724, Note_on_c, 6, 35, 70
15, 24748, Note_on_c, 6, 35, 0
15, 24772, Note_on_c, 6, 39, 70
15, 24796, Note_on_c, 6, 39, 0
15, 24864, Note_on_c, 6, 39, 70
15, 24892, Note_on_c, 6, 39, 0
15, 24912, Note_on_c, 6, 39, 70
15, 24940, Note_on_c, 6, 39, 0
15, 24964, Note_on_c, 6, 42, 70
15, 24988, Note_on_c, 6, 42, 0
15, 25052, Note_on_c, 6, 42, 70
15, 25084, Note_on_c, 6, 42, 0
15, 25102, Note_on_c, 6, 42, 70
15, 25132, Note_on_c, 6, 42, 0
15, 25152, Note_on_c, 6, 47, 70
15, 25180, Note_on_c, 6, 47, 0
15, 25248, Note_on_c, 6, 47, 70
15, 25276, Note_on_c, 6, 47, 0
15, 25296, Note_on_c, 6, 47, 70
15, 25324, Note_on_c, 6, 47, 0
15, 25344, Note_on_c, 6, 28, 70
15, 25372, Note_on_c, 6, 28, 0
15, 25440, Note_on_c, 6, 28, 70
15, 25468, Note_on_c, 6, 28, 0
15, 25488, Note_on_c, 6, 28, 70
15, 25516, Note_on_c, 6, 28, 0
15, 25536, Note_on_c, 6, 28, 70
15, 25564, Note_on_c, 6, 28, 0
15, 25632, Note_on_c, 6, 26, 70
15, 25676, Note_on_c, 6, 26, 0
15, 25728, Note_on_c, 6, 26, 70
15, 25772, Note_on_c, 6, 26, 0
15, 25916, Control_c, 6, 1, 68
15, 25920, Note_on_c, 6, 38, 70
15, 26092, Note_on_c, 6, 38, 0
15, 26108, Control_c, 6, 1, 0
15, 26116, Note_on_c, 6, 31, 70
15, 26140, Note_on_c, 6, 31, 0
15, 26208, Note_on_c, 6, 31, 70
15, 26236, Note_on_c, 6, 31, 0
15, 26254, Note_on_c, 6, 31, 70
15, 26284, Note_on_c, 6, 31, 0
15, 26308, Note_on_c, 6, 35, 70
15, 26332, Note_on_c, 6, 35, 0
15, 26400, Note_on_c, 6, 35, 70
15, 26428, Note_on_c, 6, 35, 0
15, 26448, Note_on_c, 6, 35, 70
15, 26476, Note_on_c, 6, 35, 0
15, 26498, Note_on_c, 6, 38, 70
15, 26524, Note_on_c, 6, 38, 0
15, 26594, Note_on_c, 6, 38, 70
15, 26620, Note_on_c, 6, 38, 0
15, 26642, Note_on_c, 6, 38, 70
15, 26668, Note_on_c, 6, 38, 0
15, 26686, Note_on_c, 6, 43, 70
15, 26716, Note_on_c, 6, 43, 0
15, 26784, Note_on_c, 6, 43, 70
15, 26812, Note_on_c, 6, 43, 0
15, 26828, Note_on_c, 6, 43, 70
15, 26860, Note_on_c, 6, 43, 0
15, 26880, Note_on_c, 6, 35, 70
15, 26908, Note_on_c, 6, 35, 0
15, 26974, Note_on_c, 6, 35, 70
15, 27004, Note_on_c, 6, 35, 0
15, 27020, Note_on_c, 6, 35, 70
15, 27052, Note_on_c, 6, 35, 0
15, 27072, Note_on_c, 6, 39, 70
15, 27100, Note_on_c, 6, 39, 0
15, 27168, Note_on_c, 6, 39, 70
15, 27196, Note_on_c, 6, 39, 0
15, 27212, Note_on_c, 6, 39, 70
15, 27244, Note_on_c, 6, 39, 0
15, 27262, Note_on_c, 6, 42, 70
15, 27292, Note_on_c, 6, 42, 0
15, 27362, Note_on_c, 6, 42, 70
15, 27388, Note_on_c, 6, 42, 0
15, 27408, Note_on_c, 6, 42, 70
15, 27436, Note_on_c, 6, 42, 0
15, 27456, Note_on_c, 6, 47, 70
15, 27484, Note_on_c, 6, 47, 0
15, 27550, Note_on_c, 6, 47, 70
15, 27580, Note_on_c, 6, 47, 0
15, 27602, Note_on_c, 6, 47, 70
15, 27628, Note_on_c, 6, 47, 0
15, 27652, Note_on_c, 6, 28, 70
15, 27676, Note_on_c, 6, 28, 0
15, 27744, Note_on_c, 6, 28, 70
15, 27772, Note_on_c, 6, 28, 0
15, 27792, Note_on_c, 6, 28, 70
15, 27820, Note_on_c, 6, 28, 0
15, 27842, Note_on_c, 6, 31, 70
15, 27868, Note_on_c, 6, 31, 0
15, 27938, Note_on_c, 6, 31, 70
15, 27964, Note_on_c, 6, 31, 0
15, 27984, Note_on_c, 6, 31, 70
15, 28012, Note_on_c, 6, 31, 0
15, 28036, Note_on_c, 6, 35, 70
15, 28060, Note_on_c, 6, 35, 0
15, 28128, Note_on_c, 6, 35, 70
15, 28156, Note_on_c, 6, 35, 0
15, 28172, Note_on_c, 6, 35, 70
15, 28204, Note_on_c, 6, 35, 0
15, 28224, Note_on_c, 6, 40, 70
15, 28252, Note_on_c, 6, 40, 0
15, 28320, Note_on_c, 6, 40, 70
15, 28348, Note_on_c, 6, 40, 0
15, 28364, Note_on_c, 6, 40, 70
15, 28396, Note_on_c, 6, 40, 0
15, 28416, Note_on_c, 6, 36, 70
15, 28444, Note_on_c, 6, 36, 0
15, 28512, Note_on_c, 6, 36, 70
15, 28540, Note_on_c, 6, 36, 0
15, 28558, Note_on_c, 6, 36, 70
15, 28588, Note_on_c, 6, 36, 0
15, 28608, Note_on_c, 6, 40, 70
15, 28636, Note_on_c, 6, 40, 0
15, 28704, Note_on_c, 6, 40, 70
15, 28732, Note_on_c, 6, 40, 0
15, 28752, Note_on_c, 6, 40, 70
15, 28780, Note_on_c, 6, 40, 0
15, 28800, Note_on_c, 6, 43, 70
15, 28828, Note_on_c, 6, 43, 0
15, 28898, Note_on_c, 6, 43, 70
15, 28924, Note_on_c, 6, 43, 0
15, 28946, Note_on_c, 6, 43, 70
15, 28972, Note_on_c, 6, 43, 0
15, 28992, Note_on_c, 6, 48, 70
15, 29020, Note_on_c, 6, 48, 0
15, 29088, Note_on_c, 6, 48, 70
15, 29116, Note_on_c, 6, 48, 0
15, 29134, Note_on_c, 6, 48, 70
15, 29164, Note_on_c, 6, 48, 0
15, 29188, Note_on_c, 6, 31, 70
15, 29212, Note_on_c, 6, 31, 0
15, 29280, Note_on_c, 6, 31, 70
15, 29308, Note_on_c, 6, 31, 0
15, 29328, Note_on_c, 6, 31, 70
15, 29356, Note_on_c, 6, 31, 0
15, 29378, Note_on_c, 6, 35, 70
15, 29404, Note_on_c, 6, 35, 0
15, 29476, Note_on_c, 6, 35, 70
15, 29500, Note_on_c, 6, 35, 0
15, 29516, Note_on_c, 6, 35, 70
15, 29548, Note_on_c, 6, 35, 0
15, 29566, Note_on_c, 6, 38, 70
15, 29596, Note_on_c, 6, 38, 0
15, 29664, Note_on_c, 6, 38, 70
15, 29692, Note_on_c, 6, 38, 0
15, 29708, Note_on_c, 6, 38, 70
15, 29740, Note_on_c, 6, 38, 0
15, 29760, Note_on_c, 6, 43, 70
15, 29788, Note_on_c, 6, 43, 0
15, 29854, Note_on_c, 6, 43, 70
15, 29884, Note_on_c, 6, 43, 0
15, 29900, Note_on_c, 6, 43, 70
15, 29932, Note_on_c, 6, 43, 0
15, 29952, Note_on_c, 6, 35, 70
15, 29980, Note_on_c, 6, 35, 0
15, 30048, Note_on_c, 6, 35, 70
15, 30076, Note_on_c, 6, 35, 0
15, 30096, Note_on_c, 6, 35, 70
15, 30124, Note_on_c, 6, 35, 0
15, 30146, Note_on_c, 6, 39, 70
15, 30172, Note_on_c, 6, 39, 0
15, 30242, Note_on_c, 6, 39, 70
15, 30268, Note_on_c, 6, 39, 0
15, 30288, Note_on_c, 6, 39, 70
15, 30316, Note_on_c, 6, 39, 0
15, 30336, Note_on_c, 6, 42, 70
15, 30364, Note_on_c, 6, 42, 0
15, 30430, Note_on_c, 6, 42, 70
15, 30460, Note_on_c, 6, 42, 0
15, 30482, Note_on_c, 6, 42, 70
15, 30508, Note_on_c, 6, 42, 0
15, 30532, Note_on_c, 6, 47, 70
15, 30556, Note_on_c, 6, 47, 0
15, 30624, Note_on_c, 6, 47, 70
15, 30652, Note_on_c, 6, 47, 0
15, 30670, Note_on_c, 6, 47, 70
15, 30700, Note_on_c, 6, 47, 0
15, 30722, Note_on_c, 6, 28, 70
15, 30748, Note_on_c, 6, 28, 0
15, 30818, Note_on_c, 6, 28, 70
15, 30844, Note_on_c, 6, 28, 0
15, 30864, Note_on_c, 6, 28, 70
15, 30892, Note_on_c, 6, 28, 0
15, 30916, Note_on_c, 6, 31, 70
15, 30940, Note_on_c, 6, 31, 0
15, 31006, Note_on_c, 6, 31, 70
15, 31036, Note_on_c, 6, 31, 0
15, 31058, Note_on_c, 6, 31, 70
15, 31084, Note_on_c, 6, 31, 0
15, 31102, Note_on_c, 6, 35, 70
15, 31132, Note_on_c, 6, 35, 0
15, 31200, Note_on_c, 6, 35, 70
15, 31228, Note_on_c, 6, 35, 0
15, 31244, Note_on_c, 6, 35, 70
15, 31276, Note_on_c, 6, 35, 0
15, 31296, Note_on_c, 6, 40, 70
15, 31324, Note_on_c, 6, 40, 0
15, 31390, Note_on_c, 6, 40, 70
15, 31420, Note_on_c, 6, 40, 0
15, 31436, Note_on_c, 6, 40, 70
15, 31468, Note_on_c, 6, 40, 0
15, 31488, Note_on_c, 6, 36, 70
15, 31516, Note_on_c, 6, 36, 0
15, 31584, Note_on_c, 6, 36, 70
15, 31612, Note_on_c, 6, 36, 0
15, 31632, Note_on_c, 6, 36, 70
15, 31660, Note_on_c, 6, 36, 0
15, 31680, Note_on_c, 6, 40, 70
15, 31708, Note_on_c, 6, 40, 0
15, 31778, Note_on_c, 6, 40, 70
15, 31804, Note_on_c, 6, 40, 0
15, 31824, Note_on_c, 6, 40, 70
15, 31852, Note_on_c, 6, 40, 0
15, 31876, Note_on_c, 6, 43, 70
15, 31900, Note_on_c, 6, 43, 0
15, 31968, Note_on_c, 6, 43, 70
15, 31996, Note_on_c, 6, 43, 0
15, 32014, Note_on_c, 6, 43, 70
15, 32044, Note_on_c, 6, 43, 0
15, 32066, Note_on_c, 6, 48, 70
15, 32092, Note_on_c, 6, 48, 0
15, 32160, Note_on_c, 6, 48, 70
15, 32188, Note_on_c, 6, 48, 0
15, 32208, Note_on_c, 6, 48, 70
15, 32236, Note_on_c, 6, 48, 0
15, 32258, Note_on_c, 6, 31, 70
15, 32284, Note_on_c, 6, 31, 0
15, 32354, Note_on_c, 6, 31, 70
15, 32380, Note_on_c, 6, 31, 0
15, 32400, Note_on_c, 6, 31, 70
15, 32428, Note_on_c, 6, 31, 0
15, 32452, Note_on_c, 6, 35, 70
15, 32476, Note_on_c, 6, 35, 0
15, 32542, Note_on_c, 6, 35, 70
15, 32572, Note_on_c, 6, 35, 0
15, 32590, Note_on_c, 6, 35, 70
15, 32620, Note_on_c, 6, 35, 0
15, 32640, Note_on_c, 6, 38, 70
15, 32668, Note_on_c, 6, 38, 0
15, 32740, Note_on_c, 6, 38, 70
15, 32764, Note_on_c, 6, 38, 0
15, 32780, Note_on_c, 6, 38, 70
15, 32812, Note_on_c, 6, 38, 0
15, 32832, Note_on_c, 6, 43, 70
15, 32860, Note_on_c, 6, 43, 0
15, 32928, Note_on_c, 6, 43, 70
15, 32956, Note_on_c, 6, 43, 0
15, 32972, Note_on_c, 6, 43, 70
15, 33004, Note_on_c, 6, 43, 0
15, 33022, Note_on_c, 6, 35, 70
15, 33052, Note_on_c, 6, 35, 0
15, 33122, Note_on_c, 6, 35, 70
15, 33148, Note_on_c, 6, 35, 0
15, 33168, Note_on_c, 6, 35, 70
15, 33196, Note_on_c, 6, 35, 0
15, 33216, Note_on_c, 6, 39, 70
15, 33244, Note_on_c, 6, 39, 0
15, 33310, Note_on_c, 6, 39, 70
15, 33340, Note_on_c, 6, 39, 0
15, 33362, Note_on_c, 6, 39, 70
15, 33388, Note_on_c, 6, 39, 0
15, 33412, Note_on_c, 6, 42, 70
15, 33436, Note_on_c, 6, 42, 0
15, 33504, Note_on_c, 6, 42, 70
15, 33532, Note_on_c, 6, 42, 0
15, 33550, Note_on_c, 6, 42, 70
15, 33580, Note_on_c, 6, 42, 0
15, 33602, Note_on_c, 6, 47, 70
15, 33628, Note_on_c, 6, 47, 0
15, 33696, Note_on_c, 6, 47, 70
15, 33724, Note_on_c, 6, 47, 0
15, 33744, Note_on_c, 6, 47, 70
15, 33772, Note_on_c, 6, 47, 0
15, 33796, Note_on_c, 6, 28, 70
15, 33820, Note_on_c, 6, 28, 0
15, 33888, Note_on_c, 6, 28, 70
15, 33916, Note_on_c, 6, 28, 0
15, 33932, Note_on_c, 6, 28, 70
15, 33964, Note_on_c, 6, 28, 0
15, 33988, Note_on_c, 6, 31, 70
15, 34012, Note_on_c, 6, 31, 0
15, 34084, Note_on_c, 6, 31, 70
15, 34108, Note_on_c, 6, 31, 0
15, 34126, Note_on_c, 6, 31, 70
15, 34156, Note_on_c, 6, 31, 0
15, 34176, Note_on_c, 6, 35, 70
15, 34204, Note_on_c, 6, 35, 0
15, 34270, Note_on_c, 6, 35, 70
15, 34300, Note_on_c, 6, 35, 0
15, 34316, Note_on_c, 6, 35, 70
15, 34348, Note_on_c, 6, 35, 0
15, 34368, Note_on_c, 6, 40, 70
15, 34396, Note_on_c, 6, 40, 0
15, 34464, Note_on_c, 6, 40, 70
15, 34492, Note_on_c, 6, 40, 0
15, 34508, Note_on_c, 6, 40, 70
15, 34540, Note_on_c, 6, 40, 0
15, 34558, Note_on_c, 6, 36, 70
15, 34588, Note_on_c, 6, 36, 0
15, 34658, Note_on_c, 6, 36, 70
15, 34684, Note_on_c, 6, 36, 0
15, 34704, Note_on_c, 6, 36, 70
15, 34732, Note_on_c, 6, 36, 0
15, 34752, Note_on_c, 6, 40, 70
15, 34780, Note_on_c, 6, 40, 0
15, 34846, Note_on_c, 6, 40, 70
15, 34876, Note_on_c, 6, 40, 0
15, 34898, Note_on_c, 6, 40, 70
15, 34924, Note_on_c, 6, 40, 0
15, 34948, Note_on_c, 6, 43, 70
15, 34972, Note_on_c, 6, 43, 0
15, 35040, Note_on_c, 6, 43, 70
15, 35068, Note_on_c, 6, 43, 0
15, 35088, Note_on_c, 6, 43, 70
15, 35116, Note_on_c, 6, 43, 0
15, 35138, Note_on_c, 6, 48, 70
15, 35164, Note_on_c, 6, 48, 0
15, 35234, Note_on_c, 6, 48, 70
15, 35260, Note_on_c, 6, 48, 0
15, 35280, Note_on_c, 6, 48, 70
15, 35308, Note_on_c, 6, 48, 0
15, 35332, Note_on_c, 6, 31, 70
15, 35356, Note_on_c, 6, 31, 0
15, 35428, Note_on_c, 6, 31, 70
15, 35452, Note_on_c, 6, 31, 0
15, 35474, Note_on_c, 6, 31, 70
15, 35500, Note_on_c, 6, 31, 0
15, 35524, Note_on_c, 6, 35, 70
15, 35548, Note_on_c, 6, 35, 0
15, 35616, Note_on_c, 6, 35, 70
15, 35644, Note_on_c, 6, 35, 0
15, 35664, Note_on_c, 6, 35, 70
15, 35692, Note_on_c, 6, 35, 0
15, 35716, Note_on_c, 6, 38, 70
15, 35740, Note_on_c, 6, 38, 0
15, 35808, Note_on_c, 6, 38, 70
15, 35836, Note_on_c, 6, 38, 0
15, 35854, Note_on_c, 6, 38, 70
15, 35884, Note_on_c, 6, 38, 0
15, 35902, Note_on_c, 6, 43, 70
15, 35932, Note_on_c, 6, 43, 0
15, 36000, Note_on_c, 6, 43, 70
15, 36028, Note_on_c, 6, 43, 0
15, 36048, Note_on_c, 6, 43, 70
15, 36076, Note_on_c, 6, 43, 0
15, 36096, Note_on_c, 6, 35, 70
15, 36124, Note_on_c, 6, 35, 0
15, 36194, Note_on_c, 6, 35, 70
15, 36220, Note_on_c, 6, 35, 0
15, 36242, Note_on_c, 6, 35, 70
15, 36268, Note_on_c, 6, 35, 0
15, 36292, Note_on_c, 6, 39, 70
15, 36316, Note_on_c, 6, 39, 0
15, 36384, Note_on_c, 6, 39, 70
15, 36412, Note_on_c, 6, 39, 0
15, 36430, Note_on_c, 6, 39, 70
15, 36460, Note_on_c, 6, 39, 0
15, 36484, Note_on_c, 6, 42, 70
15, 36508, Note_on_c, 6, 42, 0
15, 36576, Note_on_c, 6, 42, 70
15, 36604, Note_on_c, 6, 42, 0
15, 36620, Note_on_c, 6, 42, 70
15, 36652, Note_on_c, 6, 42, 0
15, 36672, Note_on_c, 6, 47, 70
15, 36700, Note_on_c, 6, 47, 0
15, 36768, Note_on_c, 6, 47, 70
15, 36796, Note_on_c, 6, 47, 0
15, 36816, Note_on_c, 6, 47, 70
15, 36844, Note_on_c, 6, 47, 0
15, 36862, Note_on_c, 6, 28, 70
15, 36892, Note_on_c, 6, 28, 0
15, 36960, Note_on_c, 6, 28, 70
15, 36988, Note_on_c, 6, 28, 0
15, 37004, Note_on_c, 6, 28, 70
15, 37036, Note_on_c, 6, 28, 0
15, 37056, Note_on_c, 6, 31, 70
15, 37084, Note_on_c, 6, 31, 0
15, 37150, Note_on_c, 6, 31, 70
15, 37180, Note_on_c, 6, 31, 0
15, 37202, Note_on_c, 6, 31, 70
15, 37228, Note_on_c, 6, 31, 0
15, 37248, Note_on_c, 6, 35, 70
15, 37276, Note_on_c, 6, 35, 0
15, 37344, Note_on_c, 6, 33, 66
15, 37428, Note_on_c, 6, 33, 0
15, 37484, Note_on_c, 6, 35, 66
15, 37572, Note_on_c, 6, 35, 0
15, 37636, Note_on_c, 6, 36, 70
15, 37660, Note_on_c, 6, 36, 0
15, 37726, Note_on_c, 6, 36, 70
15, 37756, Note_on_c, 6, 36, 0
15, 37778, Note_on_c, 6, 36, 70
15, 37804, Note_on_c, 6, 36, 0
15, 37828, Note_on_c, 6, 40, 70
15, 37852, Note_on_c, 6, 40, 0
15, 37920, Note_on_c, 6, 40, 70
15, 37948, Note_on_c, 6, 40, 0
15, 37972, Note_on_c, 6, 40, 70
15, 37996, Note_on_c, 6, 40, 0
15, 38018, Note_on_c, 6, 43, 70
15, 38044, Note_on_c, 6, 43, 0
15, 38116, Note_on_c, 6, 43, 70
15, 38140, Note_on_c, 6, 43, 0
15, 38156, Note_on_c, 6, 43, 70
15, 38188, Note_on_c, 6, 43, 0
15, 38208, Note_on_c, 6, 48, 70
15, 38236, Note_on_c, 6, 48, 0
15, 38304, Note_on_c, 6, 48, 70
15, 38332, Note_on_c, 6, 48, 0
15, 38352, Note_on_c, 6, 48, 70
15, 38380, Note_on_c, 6, 48, 0
15, 38400, Note_on_c, 6, 33, 70
15, 38428, Note_on_c, 6, 33, 0
15, 38496, Note_on_c, 6, 33, 70
15, 38524, Note_on_c, 6, 33, 0
15, 38544, Note_on_c, 6, 33, 70
15, 38572, Note_on_c, 6, 33, 0
15, 38592, Note_on_c, 6, 36, 70
15, 38620, Note_on_c, 6, 36, 0
15, 38688, Note_on_c, 6, 36, 70
15, 38716, Note_on_c, 6, 36, 0
15, 38734, Note_on_c, 6, 36, 70
15, 38764, Note_on_c, 6, 36, 0
15, 38786, Note_on_c, 6, 40, 70
15, 38812, Note_on_c, 6, 40, 0
15, 38880, Note_on_c, 6, 40, 70
15, 38908, Note_on_c, 6, 40, 0
15, 38928, Note_on_c, 6, 40, 70
15, 38956, Note_on_c, 6, 40, 0
15, 38976, Note_on_c, 6, 45, 70
15, 39004, Note_on_c, 6, 45, 0
15, 39074, Note_on_c, 6, 45, 70
15, 39100, Note_on_c, 6, 45, 0
15, 39122, Note_on_c, 6, 45, 70
15, 39148, Note_on_c, 6, 45, 0
15, 39172, Note_on_c, 6, 35, 70
15, 39196, Note_on_c, 6, 35, 0
15, 39264, Note_on_c, 6, 35, 70
15, 39292, Note_on_c, 6, 35, 0
15, 39310, Note_on_c, 6, 35, 70
15, 39340, Note_on_c, 6, 35, 0
15, 39364, Note_on_c, 6, 39, 70
15, 39388, Note_on_c, 6, 39, 0
15, 39456, Note_on_c, 6, 39, 70
15, 39484, Note_on_c, 6, 39, 0
15, 39504, Note_on_c, 6, 39, 70
15, 39532, Note_on_c, 6, 39, 0
15, 39554, Note_on_c, 6, 42, 70
15, 39580, Note_on_c, 6, 42, 0
15, 39650, Note_on_c, 6, 42, 70
15, 39676, Note_on_c, 6, 42, 0
15, 39692, Note_on_c, 6, 42, 70
15, 39724, Note_on_c, 6, 42, 0
15, 39742, Note_on_c, 6, 47, 70
15, 39772, Note_on_c, 6, 47, 0
15, 39840, Note_on_c, 6, 47, 70
15, 39868, Note_on_c, 6, 47, 0
15, 39888, Note_on_c, 6, 47, 70
15, 39916, Note_on_c, 6, 47, 0
15, 39936, Note_on_c, 6, 28, 70
15, 39964, Note_on_c, 6, 28, 0
15, 40030, Note_on_c, 6, 28, 70
15, 40060, Note_on_c, 6, 28, 0
15, 40080, Note_on_c, 6, 28, 70
15, 40108, Note_on_c, 6, 28, 0
15, 40128, Note_on_c, 6, 31, 70
15, 40156, Note_on_c, 6, 31, 0
15, 40224, Note_on_c, 6, 31, 70
15, 40252, Note_on_c, 6, 31, 0
15, 40272, Note_on_c, 6, 31, 70
15, 40300, Note_on_c, 6, 31, 0
15, 40318, Note_on_c, 6, 35, 70
15, 40348, Note_on_c, 6, 35, 0
15, 40418, Note_on_c, 6, 35, 70
15, 40444, Note_on_c, 6, 35, 0
15, 40464, Note_on_c, 6, 35, 70
15, 40492, Note_on_c, 6, 35, 0
15, 40514, Note_on_c, 6, 40, 70
15, 40540, Note_on_c, 6, 40, 0
15, 40606, Note_on_c, 6, 40, 70
15, 40636, Note_on_c, 6, 40, 0
15, 40658, Note_on_c, 6, 40, 70
15, 40684, Note_on_c, 6, 40, 0
15, 40708, Note_on_c, 6, 36, 70
15, 40732, Note_on_c, 6, 36, 0
15, 40800, Note_on_c, 6, 36, 70
15, 40828, Note_on_c, 6, 36, 0
15, 40848, Note_on_c, 6, 36, 70
15, 40876, Note_on_c, 6, 36, 0
15, 40898, Note_on_c, 6, 40, 70
15, 40924, Note_on_c, 6, 40, 0
15, 40994, Note_on_c, 6, 40, 70
15, 41020, Note_on_c, 6, 40, 0
15, 41040, Note_on_c, 6, 40, 70
15, 41068, Note_on_c, 6, 40, 0
15, 41090, Note_on_c, 6, 43, 70
15, 41116, Note_on_c, 6, 43, 0
15, 41182, Note_on_c, 6, 43, 70
15, 41212, Note_on_c, 6, 43, 0
15, 41234, Note_on_c, 6, 43, 70
15, 41260, Note_on_c, 6, 43, 0
15, 41284, Note_on_c, 6, 48, 70
15, 41308, Note_on_c, 6, 48, 0
15, 41380, Note_on_c, 6, 48, 70
15, 41404, Note_on_c, 6, 48, 0
15, 41420, Note_on_c, 6, 48, 70
15, 41452, Note_on_c, 6, 48, 0
15, 41472, Note_on_c, 6, 33, 70
15, 41500, Note_on_c, 6, 33, 0
15, 41566, Note_on_c, 6, 33, 70
15, 41596, Note_on_c, 6, 33, 0
15, 41614, Note_on_c, 6, 33, 70
15, 41644, Note_on_c, 6, 33, 0
15, 41664, Note_on_c, 6, 36, 70
15, 41692, Note_on_c, 6, 36, 0
15, 41760, Note_on_c, 6, 36, 70
15, 41788, Note_on_c, 6, 36, 0
15, 41808, Note_on_c, 6, 36, 70
15, 41836, Note_on_c, 6, 36, 0
15, 41856, Note_on_c, 6, 40, 70
15, 41884, Note_on_c, 6, 40, 0
15, 41954, Note_on_c, 6, 40, 70
15, 41980, Note_on_c, 6, 40, 0
15, 42000, Note_on_c, 6, 40, 70
15, 42028, Note_on_c, 6, 40, 0
15, 42048, Note_on_c, 6, 45, 70
15, 42076, Note_on_c, 6, 45, 0
15, 42144, Note_on_c, 6, 45, 70
15, 42172, Note_on_c, 6, 45, 0
15, 42190, Note_on_c, 6, 45, 70
15, 42220, Note_on_c, 6, 45, 0
15, 42244, Note_on_c, 6, 35, 70
15, 42268, Note_on_c, 6, 35, 0
15, 42336, Note_on_c, 6, 35, 70
15, 42364, Note_on_c, 6, 35, 0
15, 42384, Note_on_c, 6, 35, 70
15, 42412, Note_on_c, 6, 35, 0
15, 42434, Note_on_c, 6, 39, 70
15, 42460, Note_on_c, 6, 39, 0
15, 42530, Note_on_c, 6, 39, 70
15, 42556, Note_on_c, 6, 39, 0
15, 42580, Note_on_c, 6, 39, 70
15, 42604, Note_on_c, 6, 39, 0
15, 42628, Note_on_c, 6, 42, 70
15, 42652, Note_on_c, 6, 42, 0
15, 42720, Note_on_c, 6, 42, 70
15, 42748, Note_on_c, 6, 42, 0
15, 42770, Note_on_c, 6, 42, 70
15, 42796, Note_on_c, 6, 42, 0
15, 42820, Note_on_c, 6, 47, 70
15, 42844, Note_on_c, 6, 47, 0
15, 42910, Note_on_c, 6, 47, 70
15, 42940, Note_on_c, 6, 47, 0
15, 42960, Note_on_c, 6, 47, 70
15, 42988, Note_on_c, 6, 47, 0
15, 43008, Note_on_c, 6, 28, 70
15, 43036, Note_on_c, 6, 28, 0
15, 43104, Note_on_c, 6, 28, 70
15, 43132, Note_on_c, 6, 28, 0
15, 43150, Note_on_c, 6, 28, 70
15, 43180, Note_on_c, 6, 28, 0
15, 43198, Note_on_c, 6, 31, 70
15, 43228, Note_on_c, 6, 31, 0
15, 43296, Note_on_c, 6, 31, 70
15, 43324, Note_on_c, 6, 31, 0
15, 43344, Note_on_c, 6, 31, 70
15, 43372, Note_on_c, 6, 31, 0
15, 43392, Note_on_c, 6, 35, 70
15, 43420, Note_on_c, 6, 35, 0
15, 43486, Note_on_c, 6, 35, 70
15, 43516, Note_on_c, 6, 35, 0
15, 43538, Note_on_c, 6, 35, 70
15, 43564, Note_on_c, 6, 35, 0
15, 43586, Note_on_c, 6, 40, 70
15, 43612, Note_on_c, 6, 40, 0
15, 43680, Note_on_c, 6, 40, 70
15, 43708, Note_on_c, 6, 40, 0
15, 43726, Note_on_c, 6, 40, 70
15, 43756, Note_on_c, 6, 40, 0
15, 43774, Note_on_c, 6, 36, 70
15, 43804, Note_on_c, 6, 36, 0
15, 43874, Note_on_c, 6, 36, 70
15, 43900, Note_on_c, 6, 36, 0
15, 43920, Note_on_c, 6, 36, 70
15, 43948, Note_on_c, 6, 36, 0
15, 43970, Note_on_c, 6, 40, 70
15, 43996, Note_on_c, 6, 40, 0
15, 44062, Note_on_c, 6, 40, 70
15, 44092, Note_on_c, 6, 40, 0
15, 44114, Note_on_c, 6, 40, 70
15, 44140, Note_on_c, 6, 40, 0
15, 44164, Note_on_c, 6, 43, 70
15, 44188, Note_on_c, 6, 43, 0
15, 44252, Note_on_c, 6, 43, 70
15, 44284, Note_on_c, 6, 43, 0
15, 44302, Note_on_c, 6, 43, 70
15, 44332, Note_on_c, 6, 43, 0
15, 44352, Note_on_c, 6, 48, 70
15, 44380, Note_on_c, 6, 48, 0
15, 44444, Note_on_c, 6, 48, 70
15, 44476, Note_on_c, 6, 48, 0
15, 44496, Note_on_c, 6, 48, 70
15, 44524, Note_on_c, 6, 48, 0
15, 44548, Note_on_c, 6, 33, 70
15, 44572, Note_on_c, 6, 33, 0
15, 44640, Note_on_c, 6, 33, 70
15, 44668, Note_on_c, 6, 33, 0
15, 44688, Note_on_c, 6, 33, 70
15, 44716, Note_on_c, 6, 33, 0
15, 44734, Note_on_c, 6, 36, 70
15, 44764, Note_on_c, 6, 36, 0
15, 44832, Note_on_c, 6, 36, 70
15, 44860, Note_on_c, 6, 36, 0
15, 44880, Note_on_c, 6, 36, 70
15, 44908, Note_on_c, 6, 36, 0
15, 44928, Note_on_c, 6, 40, 70
15, 44956, Note_on_c, 6, 40, 0
15, 45022, Note_on_c, 6, 40, 70
15, 45052, Note_on_c, 6, 40, 0
15, 45070, Note_on_c, 6, 40, 70
15, 45100, Note_on_c, 6, 40, 0
15, 45120, Note_on_c, 6, 45, 70
15, 45148, Note_on_c, 6, 45, 0
15, 45216, Note_on_c, 6, 45, 70
15, 45244, Note_on_c, 6, 45, 0
15, 45264, Note_on_c, 6, 45, 70
15, 45292, Note_on_c, 6, 45, 0
15, 45312, Note_on_c, 6, 35, 70
15, 45340, Note_on_c, 6, 35, 0
15, 45410, Note_on_c, 6, 35, 70
15, 45436, Note_on_c, 6, 35, 0
15, 45456, Note_on_c, 6, 35, 70
15, 45484, Note_on_c, 6, 35, 0
15, 45504, Note_on_c, 6, 39, 70
15, 45532, Note_on_c, 6, 39, 0
15, 45598, Note_on_c, 6, 39, 70
15, 45628, Note_on_c, 6, 39, 0
15, 45650, Note_on_c, 6, 39, 70
15, 45676, Note_on_c, 6, 39, 0
15, 45700, Note_on_c, 6, 42, 70
15, 45724, Note_on_c, 6, 42, 0
15, 45792, Note_on_c, 6, 42, 70
15, 45820, Note_on_c, 6, 42, 0
15, 45840, Note_on_c, 6, 42, 70
15, 45868, Note_on_c, 6, 42, 0
15, 45890, Note_on_c, 6, 47, 70
15, 45916, Note_on_c, 6, 47, 0
15, 45986, Note_on_c, 6, 47, 70
15, 46012, Note_on_c, 6, 47, 0
15, 46028, Note_on_c, 6, 47, 70
15, 46060, Note_on_c, 6, 47, 0
15, 46084, Note_on_c, 6, 28, 70
15, 46108, Note_on_c, 6, 28, 0
15, 46174, Note_on_c, 6, 28, 70
15, 46204, Note_on_c, 6, 28, 0
15, 46222, Note_on_c, 6, 28, 70
15, 46252, Note_on_c, 6, 28, 0
15, 46270, Note_on_c, 6, 31, 70
15, 46300, Note_on_c, 6, 31, 0
15, 46368, Note_on_c, 6, 31, 70
15, 46396, Note_on_c, 6, 31, 0
15, 46416, Note_on_c, 6, 31, 70
15, 46444, Note_on_c, 6, 31, 0
15, 46468, Note_on_c, 6, 35, 70
15, 46492, Note_on_c, 6, 35, 0
15, 46560, Note_on_c, 6, 35, 70
15, 46588, Note_on_c, 6, 35, 0
15, 46606, Note_on_c, 6, 35, 70
15, 46636, Note_on_c, 6, 35, 0
15, 46656, Note_on_c, 6, 40, 70
15, 46684, Note_on_c, 6, 40, 0
15, 46752, Note_on_c, 6, 40, 70
15, 46780, Note_on_c, 6, 40, 0
15, 46800, Note_on_c, 6, 40, 70
15, 46828, Note_on_c, 6, 40, 0
15, 46848, Note_on_c, 6, 36, 70
15, 46876, Note_on_c, 6, 36, 0
15, 46942, Note_on_c, 6, 36, 70
15, 46972, Note_on_c, 6, 36, 0
15, 46994, Note_on_c, 6, 36, 70
15, 47020, Note_on_c, 6, 36, 0
15, 47040, Note_on_c, 6, 40, 70
15, 47068, Note_on_c, 6, 40, 0
15, 47136, Note_on_c, 6, 40, 70
15, 47164, Note_on_c, 6, 40, 0
15, 47182, Note_on_c, 6, 40, 70
15, 47212, Note_on_c, 6, 40, 0
15, 47234, Note_on_c, 6, 43, 70
15, 47260, Note_on_c, 6, 43, 0
15, 47328, Note_on_c, 6, 43, 70
15, 47356, Note_on_c, 6, 43, 0
15, 47376, Note_on_c, 6, 43, 70
15, 47404, Note_on_c, 6, 43, 0
15, 47426, Note_on_c, 6, 48, 70
15, 47452, Note_on_c, 6, 48, 0
15, 47522, Note_on_c, 6, 48, 70
15, 47548, Note_on_c, 6, 48, 0
15, 47570, Note_on_c, 6, 48, 70
15, 47596, Note_on_c, 6, 48, 0
15, 47620, Note_on_c, 6, 33, 70
15, 47644, Note_on_c, 6, 33, 0
15, 47712, Note_on_c, 6, 33, 70
15, 47740, Note_on_c, 6, 33, 0
15, 47758, Note_on_c, 6, 33, 70
15, 47788, Note_on_c, 6, 33, 0
15, 47812, Note_on_c, 6, 36, 70
15, 47836, Note_on_c, 6, 36, 0
15, 47904, Note_on_c, 6, 36, 70
15, 47932, Note_on_c, 6, 36, 0
15, 47952, Note_on_c, 6, 36, 70
15, 47980, Note_on_c, 6, 36, 0
15, 48002, Note_on_c, 6, 40, 70
15, 48028, Note_on_c, 6, 40, 0
15, 48098, Note_on_c, 6, 40, 70
15, 48124, Note_on_c, 6, 40, 0
15, 48146, Note_on_c, 6, 40, 70
15, 48172, Note_on_c, 6, 40, 0
15, 48196, Note_on_c, 6, 45, 70
15, 48220, Note_on_c, 6, 45, 0
15, 48292, Note_on_c, 6, 45, 70
15, 48316, Note_on_c, 6, 45, 0
15, 48340, Note_on_c, 6, 45, 70
15, 48364, Note_on_c, 6, 45, 0
15, 48384, Note_on_c, 6, 35, 70
15, 48412, Note_on_c, 6, 35, 0
15, 48478, Note_on_c, 6, 35, 70
15, 48508, Note_on_c, 6, 35, 0
15, 48528, Note_on_c, 6, 35, 70
15, 48556, Note_on_c, 6, 35, 0
15, 48578, Note_on_c, 6, 39, 70
15, 48604, Note_on_c, 6, 39, 0
15, 48672, Note_on_c, 6, 39, 70
15, 48700, Note_on_c, 6, 39, 0
15, 48720, Note_on_c, 6, 39, 70
15, 48748, Note_on_c, 6, 39, 0
15, 48766, Note_on_c, 6, 42, 70
15, 48796, Note_on_c, 6, 42, 0
15, 48866, Note_on_c, 6, 42, 70
15, 48892, Note_on_c, 6, 42, 0
15, 48912, Note_on_c, 6, 42, 70
15, 48940, Note_on_c, 6, 42, 0
15, 48960, Note_on_c, 6, 47, 70
15, 48988, Note_on_c, 6, 47, 0
15, 49054, Note_on_c, 6, 47, 70
15, 49084, Note_on_c, 6, 47, 0
15, 49106, Note_on_c, 6, 47, 70
15, 49132, Note_on_c, 6, 47, 0
15, 49156, Note_on_c, 6, 28, 70
15, 49180, Note_on_c, 6, 28, 0
15, 49248, Note_on_c, 6, 28, 70
15, 49276, Note_on_c, 6, 28, 0
15, 49296, Note_on_c, 6, 28, 70
15, 49324, Note_on_c, 6, 28, 0
15, 49342, Note_on_c, 6, 28, 70
15, 49372, Note_on_c, 6, 28, 0
15, 49442, Note_on_c, 6, 28, 70
15, 49468, Note_on_c, 6, 28, 0
15, 49488, Note_on_c, 6, 28, 70
15, 49516, Note_on_c, 6, 28, 0
15, 49536, Note_on_c, 6, 26, 70
15, 49564, Note_on_c, 6, 26, 0
15, 49630, Note_on_c, 6, 26, 70
15, 49660, Note_on_c, 6, 26, 0
15, 49682, Note_on_c, 6, 26, 70
15, 49708, Note_on_c, 6, 26, 0
15, 49732, Note_on_c, 6, 26, 70
15, 49756, Note_on_c, 6, 26, 0
15, 49824, Note_on_c, 6, 26, 70
15, 49852, Note_on_c, 6, 26, 0
15, 49872, Note_on_c, 6, 26, 70
15, 49900, Note_on_c, 6, 26, 0
15, 49920, Note_on_c, 6, 36, 70
15, 49948, Note_on_c, 6, 36, 0
15, 50016, Note_on_c, 6, 36, 70
15, 50044, Note_on_c, 6, 36, 0
15, 50062, Note_on_c, 6, 36, 70
15, 50092, Note_on_c, 6, 36, 0
15, 50110, Note_on_c, 6, 36, 70
15, 50140, Note_on_c, 6, 36, 0
15, 50208, Note_on_c, 6, 36, 70
15, 50236, Note_on_c, 6, 36, 0
15, 50256, Note_on_c, 6, 36, 70
15, 50284, Note_on_c, 6, 36, 0
15, 50304, Note_on_c, 6, 36, 70
15, 50332, Note_on_c, 6, 36, 0
15, 50402, Note_on_c, 6, 36, 70
15, 50428, Note_on_c, 6, 36, 0
15, 50450, Note_on_c, 6, 36, 70
15, 50476, Note_on_c, 6, 36, 0
15, 50496, Note_on_c, 6, 36, 70
15, 50524, Note_on_c, 6, 36, 0
15, 50592, Note_on_c, 6, 36, 70
15, 50620, Note_on_c, 6, 36, 0
15, 50638, Note_on_c, 6, 36, 70
15, 50668, Note_on_c, 6, 36, 0
15, 50692, Note_on_c, 6, 28, 70
15, 50716, Note_on_c, 6, 28, 0
15, 50784, Note_on_c, 6, 28, 70
15, 50812, Note_on_c, 6, 28, 0
15, 50832, Note_on_c, 6, 28, 70
15, 50860, Note_on_c, 6, 28, 0
15, 50882, Note_on_c, 6, 28, 70
15, 50908, Note_on_c, 6, 28, 0
15, 50978, Note_on_c, 6, 28, 70
15, 51004, Note_on_c, 6, 28, 0
15, 51026, Note_on_c, 6, 28, 70
15, 51052, Note_on_c, 6, 28, 0
15, 51076, Note_on_c, 6, 26, 70
15, 51100, Note_on_c, 6, 26, 0
15, 51168, Note_on_c, 6, 26, 70
15, 51196, Note_on_c, 6, 26, 0
15, 51212, Note_on_c, 6, 26, 70
15, 51244, Note_on_c, 6, 26, 0
15, 51264, Note_on_c, 6, 26, 70
15, 51292, Note_on_c, 6, 26, 0
15, 51358, Note_on_c, 6, 26, 70
15, 51388, Note_on_c, 6, 26, 0
15, 51408, Note_on_c, 6, 26, 70
15, 51436, Note_on_c, 6, 26, 0
15, 51456, Note_on_c, 6, 33, 70
15, 51484, Note_on_c, 6, 33, 0
15, 51552, Note_on_c, 6, 33, 70
15, 51580, Note_on_c, 6, 33, 0
15, 51600, Note_on_c, 6, 33, 70
15, 51628, Note_on_c, 6, 33, 0
15, 51646, Note_on_c, 6, 33, 70
15, 51676, Note_on_c, 6, 33, 0
15, 51744, Note_on_c, 6, 33, 70
15, 51772, Note_on_c, 6, 33, 0
15, 51792, Note_on_c, 6, 33, 70
15, 51820, Note_on_c, 6, 33, 0
15, 51840, Note_on_c, 6, 36, 70
15, 51868, Note_on_c, 6, 36, 0
15, 51934, Note_on_c, 6, 36, 70
15, 51964, Note_on_c, 6, 36, 0
15, 51984, Note_on_c, 6, 36, 70
15, 52012, Note_on_c, 6, 36, 0
15, 52034, Note_on_c, 6, 36, 70
15, 52060, Note_on_c, 6, 36, 0
15, 52128, Note_on_c, 6, 36, 70
15, 52156, Note_on_c, 6, 36, 0
15, 52176, Note_on_c, 6, 36, 70
15, 52204, Note_on_c, 6, 36, 0
15, 52222, Note_on_c, 6, 31, 70
15, 52252, Note_on_c, 6, 31, 0
15, 52322, Note_on_c, 6, 31, 70
15, 52348, Note_on_c, 6, 31, 0
15, 52368, Note_on_c, 6, 31, 70
15, 52396, Note_on_c, 6, 31, 0
15, 52416, Note_on_c, 6, 35, 70
15, 52444, Note_on_c, 6, 35, 0
15, 52514, Note_on_c, 6, 35, 70
15, 52540, Note_on_c, 6, 35, 0
15, 52562, Note_on_c, 6, 35, 70
15, 52588, Note_on_c, 6, 35, 0
15, 52612, Note_on_c, 6, 38, 70
15, 52636, Note_on_c, 6, 38, 0
15, 52704, Note_on_c, 6, 38, 70
15, 52732, Note_on_c, 6, 38, 0
15, 52752, Note_on_c, 6, 38, 70
15, 52780, Note_on_c, 6, 38, 0
15, 52802, Note_on_c, 6, 43, 70
15, 52828, Note_on_c, 6, 43, 0
15, 52896, Note_on_c, 6, 43, 70
15, 52924, Note_on_c, 6, 43, 0
15, 52940, Note_on_c, 6, 43, 70
15, 52972, Note_on_c, 6, 43, 0
15, 52996, Note_on_c, 6, 29, 70
15, 53020, Note_on_c, 6, 29, 0
15, 53088, Note_on_c, 6, 29, 70
15, 53116, Note_on_c, 6, 29, 0
15, 53132, Note_on_c, 6, 29, 70
15, 53164, Note_on_c, 6, 29, 0
15, 53182, Note_on_c, 6, 33, 70
15, 53212, Note_on_c, 6, 33, 0
15, 53280, Note_on_c, 6, 33, 70
15, 53308, Note_on_c, 6, 33, 0
15, 53324, Note_on_c, 6, 33, 70
15, 53356, Note_on_c, 6, 33, 0
15, 53376, Note_on_c, 6, 36, 70
15, 53404, Note_on_c, 6, 36, 0
15, 53472, Note_on_c, 6, 36, 70
15, 53500, Note_on_c, 6, 36, 0
15, 53518, Note_on_c, 6, 36, 70
15, 53548, Note_on_c, 6, 36, 0
15, 53570, Note_on_c, 6, 41, 70
15, 53596, Note_on_c, 6, 41, 0
15, 53664, Note_on_c, 6, 41, 70
15, 53692, Note_on_c, 6, 41, 0
15, 53712, Note_on_c, 6, 41, 70
15, 53740, Note_on_c, 6, 41, 0
15, 53762, Note_on_c, 6, 36, 70
15, 53788, Note_on_c, 6, 36, 0
15, 53858, Note_on_c, 6, 36, 70
15, 53884, Note_on_c, 6, 36, 0
15, 53904, Note_on_c, 6, 36, 70
15, 53932, Note_on_c, 6, 36, 0
15, 53956, Note_on_c, 6, 40, 70
15, 53980, Note_on_c, 6, 40, 0
15, 54048, Note_on_c, 6, 40, 70
15, 54076, Note_on_c, 6, 40, 0
15, 54094, Note_on_c, 6, 40, 70
15, 54124, Note_on_c, 6, 40, 0
15, 54148, Note_on_c, 6, 43, 70
15, 54172, Note_on_c, 6, 43, 0
15, 54236, Note_on_c, 6, 43, 70
15, 54268, Note_on_c, 6, 43, 0
15, 54284, Note_on_c, 6, 43, 70
15, 54316, Note_on_c, 6, 43, 0
15, 54336, Note_on_c, 6, 48, 70
15, 54364, Note_on_c, 6, 48, 0
15, 54436, Note_on_c, 6, 48, 70
15, 54460, Note_on_c, 6, 48, 0
15, 54476, Note_on_c, 6, 48, 70
15, 54508, Note_on_c, 6, 48, 0
15, 54526, Note_on_c, 6, 38, 70
15, 54556, Note_on_c, 6, 38, 0
15, 54624, Note_on_c, 6, 38, 70
15, 54652, Note_on_c, 6, 38, 0
15, 54672, Note_on_c, 6, 38, 70
15, 54700, Note_on_c, 6, 38, 0
15, 54720, Note_on_c, 6, 42, 70
15, 54748, Note_on_c, 6, 42, 0
15, 54814, Note_on_c, 6, 42, 70
15, 54844, Note_on_c, 6, 42, 0
15, 54866, Note_on_c, 6, 42, 70
15, 54892, Note_on_c, 6, 42, 0
15, 54914, Note_on_c, 6, 45, 70
15, 54940, Note_on_c, 6, 45, 0
15, 55008, Note_on_c, 6, 45, 70
15, 55036, Note_on_c, 6, 45, 0
15, 55054, Note_on_c, 6, 45, 70
15, 55084, Note_on_c, 6, 45, 0
15, 55106, Note_on_c, 6, 50, 70
15, 55132, Note_on_c, 6, 50, 0
15, 55200, Note_on_c, 6, 50, 70
15, 55228, Note_on_c, 6, 50, 0
15, 55248, Note_on_c, 6, 50, 70
15, 55276, Note_on_c, 6, 50, 0
15, 55300, Note_on_c, 6, 31, 70
15, 55324, Note_on_c, 6, 31, 0
15, 55390, Note_on_c, 6, 31, 70
15, 55420, Note_on_c, 6, 31, 0
15, 55442, Note_on_c, 6, 31, 70
15, 55468, Note_on_c, 6, 31, 0
15, 55492, Note_on_c, 6, 35, 70
15, 55516, Note_on_c, 6, 35, 0
15, 55588, Note_on_c, 6, 35, 70
15, 55612, Note_on_c, 6, 35, 0
15, 55628, Note_on_c, 6, 35, 70
15, 55660, Note_on_c, 6, 35, 0
15, 55678, Note_on_c, 6, 38, 70
15, 55708, Note_on_c, 6, 38, 0
15, 55774, Note_on_c, 6, 38, 70
15, 55804, Note_on_c, 6, 38, 0
15, 55820, Note_on_c, 6, 38, 70
15, 55852, Note_on_c, 6, 38, 0
15, 55872, Note_on_c, 6, 43, 70
15, 55900, Note_on_c, 6, 43, 0
15, 55968, Note_on_c, 6, 43, 70
15, 55996, Note_on_c, 6, 43, 0
15, 56012, Note_on_c, 6, 43, 70
15, 56044, Note_on_c, 6, 43, 0
15, 56064, Note_on_c, 6, 29, 70
15, 56092, Note_on_c, 6, 29, 0
15, 56162, Note_on_c, 6, 29, 70
15, 56188, Note_on_c, 6, 29, 0
15, 56208, Note_on_c, 6, 29, 70
15, 56236, Note_on_c, 6, 29, 0
15, 56256, Note_on_c, 6, 33, 70
15, 56284, Note_on_c, 6, 33, 0
15, 56350, Note_on_c, 6, 33, 70
15, 56380, Note_on_c, 6, 33, 0
15, 56398, Note_on_c, 6, 33, 70
15, 56428, Note_on_c, 6, 33, 0
15, 56450, Note_on_c, 6, 36, 70
15, 56476, Note_on_c, 6, 36, 0
15, 56544, Note_on_c, 6, 36, 70
15, 56572, Note_on_c, 6, 36, 0
15, 56592, Note_on_c, 6, 36, 70
15, 56620, Note_on_c, 6, 36, 0
15, 56638, Note_on_c, 6, 41, 70
15, 56668, Note_on_c, 6, 41, 0
15, 56738, Note_on_c, 6, 41, 70
15, 56764, Note_on_c, 6, 41, 0
15, 56784, Note_on_c, 6, 41, 70
15, 56812, Note_on_c, 6, 41, 0
15, 56836, Note_on_c, 6, 36, 70
15, 56860, Note_on_c, 6, 36, 0
15, 56926, Note_on_c, 6, 36, 70
15, 56956, Note_on_c, 6, 36, 0
15, 56974, Note_on_c, 6, 36, 70
15, 57004, Note_on_c, 6, 36, 0
15, 57028, Note_on_c, 6, 40, 70
15, 57052, Note_on_c, 6, 40, 0
15, 57116, Note_on_c, 6, 40, 70
15, 57148, Note_on_c, 6, 40, 0
15, 57164, Note_on_c, 6, 40, 70
15, 57196, Note_on_c, 6, 40, 0
15, 57216, Note_on_c, 6, 43, 70
15, 57244, Note_on_c, 6, 43, 0
15, 57312, Note_on_c, 6, 43, 70
15, 57340, Note_on_c, 6, 43, 0
15, 57356, Note_on_c, 6, 43, 70
15, 57388, Note_on_c, 6, 43, 0
15, 57408, Note_on_c, 6, 48, 70
15, 57436, Note_on_c, 6, 48, 0
15, 57508, Note_on_c, 6, 48, 70
15, 57532, Note_on_c, 6, 48, 0
15, 57552, Note_on_c, 6, 48, 70
15, 57580, Note_on_c, 6, 48, 0
15, 57600, Note_on_c, 6, 38, 70
15, 57628, Note_on_c, 6, 38, 0
15, 57698, Note_on_c, 6, 38, 70
15, 57724, Note_on_c, 6, 38, 0
15, 57746, Note_on_c, 6, 38, 70
15, 57772, Note_on_c, 6, 38, 0
15, 57792, Note_on_c, 6, 42, 70
15, 57820, Note_on_c, 6, 42, 0
15, 57888, Note_on_c, 6, 42, 70
15, 57916, Note_on_c, 6, 42, 0
15, 57934, Note_on_c, 6, 42, 70
15, 57964, Note_on_c, 6, 42, 0
15, 57982, Note_on_c, 6, 45, 70
15, 58012, Note_on_c, 6, 45, 0
15, 58080, Note_on_c, 6, 45, 70
15, 58108, Note_on_c, 6, 45, 0
15, 58128, Note_on_c, 6, 45, 70
15, 58156, Note_on_c, 6, 45, 0
15, 58178, Note_on_c, 6, 50, 70
15, 58204, Note_on_c, 6, 50, 0
15, 58270, Note_on_c, 6, 50, 70
15, 58300, Note_on_c, 6, 50, 0
15, 58322, Note_on_c, 6, 50, 70
15, 58348, Note_on_c, 6, 50, 0
15, 58372, Note_on_c, 6, 31, 70
15, 58396, Note_on_c, 6, 31, 0
15, 58464, Note_on_c, 6, 31, 70
15, 58492, Note_on_c, 6, 31, 0
15, 58510, Note_on_c, 6, 31, 70
15, 58540, Note_on_c, 6, 31, 0
15, 58564, Note_on_c, 6, 35, 70
15, 58588, Note_on_c, 6, 35, 0
15, 58654, Note_on_c, 6, 35, 70
15, 58684, Note_on_c, 6, 35, 0
15, 58700, Note_on_c, 6, 35, 70
15, 58732, Note_on_c, 6, 35, 0
15, 58752, Note_on_c, 6, 38, 70
15, 58780, Note_on_c, 6, 38, 0
15, 58852, Note_on_c, 6, 38, 70
15, 58876, Note_on_c, 6, 38, 0
15, 58892, Note_on_c, 6, 38, 70
15, 58924, Note_on_c, 6, 38, 0
15, 58942, Note_on_c, 6, 43, 70
15, 58972, Note_on_c, 6, 43, 0
15, 59042, Note_on_c, 6, 43, 70
15, 59068, Note_on_c, 6, 43, 0
15, 59084, Note_on_c, 6, 43, 70
15, 59116, Note_on_c, 6, 43, 0
15, 59136, Note_on_c, 6, 29, 70
15, 59164, Note_on_c, 6, 29, 0
15, 59230, Note_on_c, 6, 29, 70
15, 59260, Note_on_c, 6, 29, 0
15, 59282, Note_on_c, 6, 29, 70
15, 59308, Note_on_c, 6, 29, 0
15, 59330, Note_on_c, 6, 33, 70
15, 59356, Note_on_c, 6, 33, 0
15, 59424, Note_on_c, 6, 33, 70
15, 59452, Note_on_c, 6, 33, 0
15, 59472, Note_on_c, 6, 33, 70
15, 59500, Note_on_c, 6, 33, 0
15, 59522, Note_on_c, 6, 36, 70
15, 59548, Note_on_c, 6, 36, 0
15, 59618, Note_on_c, 6, 36, 70
15, 59644, Note_on_c, 6, 36, 0
15, 59664, Note_on_c, 6, 36, 70
15, 59692, Note_on_c, 6, 36, 0
15, 59714, Note_on_c, 6, 41, 70
15, 59740, Note_on_c, 6, 41, 0
15, 59806, Note_on_c, 6, 41, 70
15, 59836, Note_on_c, 6, 41, 0
15, 59858, Note_on_c, 6, 41, 70
15, 59884, Note_on_c, 6, 41, 0
15, 59908, Note_on_c, 6, 36, 70
15, 59932, Note_on_c, 6, 36, 0
15, 59996, Note_on_c, 6, 36, 70
15, 60028, Note_on_c, 6, 36, 0
15, 60044, Note_on_c, 6, 36, 70
15, 60076, Note_on_c, 6, 36, 0
15, 60096, Note_on_c, 6, 40, 70
15, 60124, Note_on_c, 6, 40, 0
15, 60192, Note_on_c, 6, 40, 70
15, 60220, Note_on_c, 6, 40, 0
15, 60236, Note_on_c, 6, 40, 70
15, 60268, Note_on_c, 6, 40, 0
15, 60288, Note_on_c, 6, 43, 70
15, 60316, Note_on_c, 6, 43, 0
15, 60384, Note_on_c, 6, 43, 70
15, 60412, Note_on_c, 6, 43, 0
15, 60432, Note_on_c, 6, 43, 70
15, 60460, Note_on_c, 6, 43, 0
15, 60478, Note_on_c, 6, 48, 70
15, 60508, Note_on_c, 6, 48, 0
15, 60578, Note_on_c, 6, 48, 70
15, 60604, Note_on_c, 6, 48, 0
15, 60626, Note_on_c, 6, 48, 70
15, 60652, Note_on_c, 6, 48, 0
15, 60672, Note_on_c, 6, 38, 70
15, 60700, Note_on_c, 6, 38, 0
15, 60768, Note_on_c, 6, 38, 70
15, 60796, Note_on_c, 6, 38, 0
15, 60814, Note_on_c, 6, 38, 70
15, 60844, Note_on_c, 6, 38, 0
15, 60868, Note_on_c, 6, 42, 70
15, 60892, Note_on_c, 6, 42, 0
15, 60960, Note_on_c, 6, 42, 70
15, 60988, Note_on_c, 6, 42, 0
15, 61008, Note_on_c, 6, 42, 70
15, 61036, Note_on_c, 6, 42, 0
15, 61058, Note_on_c, 6, 45, 70
15, 61084, Note_on_c, 6, 45, 0
15, 61154, Note_on_c, 6, 45, 70
15, 61180, Note_on_c, 6, 45, 0
15, 61202, Note_on_c, 6, 45, 70
15, 61228, Note_on_c, 6, 45, 0
15, 61252, Note_on_c, 6, 50, 70
15, 61276, Note_on_c, 6, 50, 0
15, 61348, Note_on_c, 6, 50, 70
15, 61372, Note_on_c, 6, 50, 0
15, 61390, Note_on_c, 6, 50, 70
15, 61420, Note_on_c, 6, 50, 0
15, 61440, Note_on_c, 6, 31, 70
15, 61468, Note_on_c, 6, 31, 0
15, 61534, Note_on_c, 6, 31, 70
15, 61564, Note_on_c, 6, 31, 0
15, 61580, Note_on_c, 6, 31, 70
15, 61612, Note_on_c, 6, 31, 0
15, 61632, Note_on_c, 6, 35, 70
15, 61660, Note_on_c, 6, 35, 0
15, 61728, Note_on_c, 6, 35, 70
15, 61756, Note_on_c, 6, 35, 0
15, 61772, Note_on_c, 6, 35, 70
15, 61804, Note_on_c, 6, 35, 0
15, 61822, Note_on_c, 6, 38, 70
15, 61852, Note_on_c, 6, 38, 0
15, 61922, Note_on_c, 6, 38, 70
15, 61948, Note_on_c, 6, 38, 0
15, 61968, Note_on_c, 6, 38, 70
15, 61996, Note_on_c, 6, 38, 0
15, 62016, Note_on_c, 6, 43, 70
15, 62044, Note_on_c, 6, 43, 0
15, 62110, Note_on_c, 6, 43, 70
15, 62140, Note_on_c, 6, 43, 0
15, 62162, Note_on_c, 6, 43, 70
15, 62188, Note_on_c, 6, 43, 0
15, 62208, Note_on_c, 6, 29, 70
15, 62236, Note_on_c, 6, 29, 0
15, 62304, Note_on_c, 6, 29, 70
15, 62332, Note_on_c, 6, 29, 0
15, 62352, Note_on_c, 6, 29, 70
15, 62380, Note_on_c, 6, 29, 0
15, 62402, Note_on_c, 6, 33, 70
15, 62428, Note_on_c, 6, 33, 0
15, 62498, Note_on_c, 6, 33, 70
15, 62524, Note_on_c, 6, 33, 0
15, 62544, Note_on_c, 6, 33, 70
15, 62572, Note_on_c, 6, 33, 0
15, 62596, Note_on_c, 6, 36, 70
15, 62620, Note_on_c, 6, 36, 0
15, 62686, Note_on_c, 6, 36, 70
15, 62716, Note_on_c, 6, 36, 0
15, 62732, Note_on_c, 6, 36, 70
15, 62764, Note_on_c, 6, 36, 0
15, 62782, Note_on_c, 6, 41, 70
15, 62812, Note_on_c, 6, 41, 0
15, 62884, Note_on_c, 6, 41, 70
15, 62908, Note_on_c, 6, 41, 0
15, 62924, Note_on_c, 6, 41, 70
15, 62956, Note_on_c, 6, 41, 0
15, 62976, Note_on_c, 6, 36, 70
15, 63004, Note_on_c, 6, 36, 0
15, 63070, Note_on_c, 6, 36, 70
15, 63100, Note_on_c, 6, 36, 0
15, 63116, Note_on_c, 6, 36, 70
15, 63148, Note_on_c, 6, 36, 0
15, 63168, Note_on_c, 6, 40, 70
15, 63196, Note_on_c, 6, 40, 0
15, 63264, Note_on_c, 6, 40, 70
15, 63292, Note_on_c, 6, 40, 0
15, 63308, Note_on_c, 6, 40, 70
15, 63340, Note_on_c, 6, 40, 0
15, 63360, Note_on_c, 6, 43, 70
15, 63388, Note_on_c, 6, 43, 0
15, 63458, Note_on_c, 6, 43, 70
15, 63484, Note_on_c, 6, 43, 0
15, 63504, Note_on_c, 6, 43, 70
15, 63532, Note_on_c, 6, 43, 0
15, 63552, Note_on_c, 6, 48, 70
15, 63580, Note_on_c, 6, 48, 0
15, 63648, Note_on_c, 6, 48, 70
15, 63676, Note_on_c, 6, 48, 0
15, 63694, Note_on_c, 6, 48, 70
15, 63724, Note_on_c, 6, 48, 0
15, 63748, Note_on_c, 6, 38, 70
15, 63772, Note_on_c, 6, 38, 0
15, 63844, Note_on_c, 6, 38, 70
15, 63868, Note_on_c, 6, 38, 0
15, 63888, Note_on_c, 6, 38, 70
15, 63916, Note_on_c, 6, 38, 0
15, 63938, Note_on_c, 6, 42, 70
15, 63964, Note_on_c, 6, 42, 0
15, 64034, Note_on_c, 6, 42, 70
15, 64060, Note_on_c, 6, 42, 0
15, 64080, Note_on_c, 6, 42, 70
15, 64108, Note_on_c, 6, 42, 0
15, 64132, Note_on_c, 6, 45, 70
15, 64156, Note_on_c, 6, 45, 0
15, 64220, Note_on_c, 6, 45, 70
15, 64252, Note_on_c, 6, 45, 0
15, 64268, Note_on_c, 6, 45, 70
15, 64300, Note_on_c, 6, 45, 0
15, 64320, Note_on_c, 6, 50, 70
15, 64348, Note_on_c, 6, 50, 0
15, 64416, Note_on_c, 6, 50, 70
15, 64444, Note_on_c, 6, 50, 0
15, 64460, Note_on_c, 6, 50, 70
15, 64492, Note_on_c, 6, 50, 0
15, 64512, Note_on_c, 6, 31, 70
15, 64540, Note_on_c, 6, 31, 0
15, 64608, Note_on_c, 6, 31, 70
15, 64636, Note_on_c, 6, 31, 0
15, 64652, Note_on_c, 6, 31, 70
15, 64684, Note_on_c, 6, 31, 0
15, 64702, Note_on_c, 6, 35, 70
15, 64732, Note_on_c, 6, 35, 0
15, 64800, Note_on_c, 6, 35, 70
15, 64828, Note_on_c, 6, 35, 0
15, 64848, Note_on_c, 6, 35, 70
15, 64876, Note_on_c, 6, 35, 0
15, 64896, Note_on_c, 6, 38, 70
15, 64924, Note_on_c, 6, 38, 0
15, 64990, Note_on_c, 6, 38, 70
15, 65020, Note_on_c, 6, 38, 0
15, 65036, Note_on_c, 6, 38, 70
15, 65068, Note_on_c, 6, 38, 0
15, 65090, Note_on_c, 6, 43, 70
15, 65116, Note_on_c, 6, 43, 0
15, 65184, Note_on_c, 6, 43, 70
15, 65212, Note_on_c, 6, 43, 0
15, 65230, Note_on_c, 6, 43, 70
15, 65260, Note_on_c, 6, 43, 0
15, 65278, Note_on_c, 6, 35, 70
15, 65308, Note_on_c, 6, 35, 0
15, 65378, Note_on_c, 6, 35, 70
15, 65404, Note_on_c, 6, 35, 0
15, 65424, Note_on_c, 6, 35, 70
15, 65452, Note_on_c, 6, 35, 0
15, 65474, Note_on_c, 6, 39, 70
15, 65500, Note_on_c, 6, 39, 0
15, 65566, Note_on_c, 6, 39, 70
15, 65596, Note_on_c, 6, 39, 0
15, 65618, Note_on_c, 6, 39, 70
15, 65644, Note_on_c, 6, 39, 0
15, 65668, Note_on_c, 6, 42, 70
15, 65692, Note_on_c, 6, 42, 0
15, 65760, Note_on_c, 6, 42, 70
15, 65788, Note_on_c, 6, 42, 0
15, 65806, Note_on_c, 6, 42, 70
15, 65836, Note_on_c, 6, 42, 0
15, 65858, Note_on_c, 6, 47, 70
15, 65884, Note_on_c, 6, 47, 0
15, 65948, Note_on_c, 6, 47, 70
15, 65980, Note_on_c, 6, 47, 0
15, 65996, Note_on_c, 6, 47, 70
15, 66028, Note_on_c, 6, 47, 0
15, 66048, Note_on_c, 6, 28, 70
15, 66076, Note_on_c, 6, 28, 0
15, 66144, Note_on_c, 6, 28, 70
15, 66172, Note_on_c, 6, 28, 0
15, 66188, Note_on_c, 6, 28, 70
15, 66220, Note_on_c, 6, 28, 0
15, 66242, Note_on_c, 6, 31, 70
15, 66268, Note_on_c, 6, 31, 0
15, 66336, Note_on_c, 6, 31, 70
15, 66364, Note_on_c, 6, 31, 0
15, 66380, Note_on_c, 6, 31, 70
15, 66412, Note_on_c, 6, 31, 0
15, 66432, Note_on_c, 6, 35, 70
15, 66460, Note_on_c, 6, 35, 0
15, 66526, Note_on_c, 6, 35, 70
15, 66556, Note_on_c, 6, 35, 0
15, 66574, Note_on_c, 6, 35, 70
15, 66604, Note_on_c, 6, 35, 0
15, 66626, Note_on_c, 6, 40, 70
15, 66652, Note_on_c, 6, 40, 0
15, 66720, Note_on_c, 6, 40, 70
15, 66748, Note_on_c, 6, 40, 0
15, 66768, Note_on_c, 6, 40, 70
15, 66796, Note_on_c, 6, 40, 0
15, 66818, Note_on_c, 6, 36, 70
15, 66844, Note_on_c, 6, 36, 0
15, 66914, Note_on_c, 6, 36, 70
15, 66940, Note_on_c, 6, 36, 0
15, 66960, Note_on_c, 6, 36, 70
15, 66988, Note_on_c, 6, 36, 0
15, 67012, Note_on_c, 6, 40, 70
15, 67036, Note_on_c, 6, 40, 0
15, 67104, Note_on_c, 6, 40, 70
15, 67132, Note_on_c, 6, 40, 0
15, 67150, Note_on_c, 6, 40, 70
15, 67180, Note_on_c, 6, 40, 0
15, 67204, Note_on_c, 6, 43, 70
15, 67228, Note_on_c, 6, 43, 0
15, 67296, Note_on_c, 6, 43, 70
15, 67324, Note_on_c, 6, 43, 0
15, 67344, Note_on_c, 6, 43, 70
15, 67372, Note_on_c, 6, 43, 0
15, 67394, Note_on_c, 6, 48, 70
15, 67420, Note_on_c, 6, 48, 0
15, 67492, Note_on_c, 6, 48, 70
15, 67516, Note_on_c, 6, 48, 0
15, 67532, Note_on_c, 6, 48, 70
15, 67564, Note_on_c, 6, 48, 0
15, 67582, Note_on_c, 6, 31, 70
15, 67612, Note_on_c, 6, 31, 0
15, 67680, Note_on_c, 6, 31, 70
15, 67708, Note_on_c, 6, 31, 0
15, 67724, Note_on_c, 6, 31, 70
15, 67756, Note_on_c, 6, 31, 0
15, 67776, Note_on_c, 6, 35, 70
15, 67804, Note_on_c, 6, 35, 0
15, 67870, Note_on_c, 6, 35, 70
15, 67900, Note_on_c, 6, 35, 0
15, 67922, Note_on_c, 6, 35, 70
15, 67948, Note_on_c, 6, 35, 0
15, 67970, Note_on_c, 6, 38, 70
15, 67996, Note_on_c, 6, 38, 0
15, 68064, Note_on_c, 6, 38, 70
15, 68092, Note_on_c, 6, 38, 0
15, 68110, Note_on_c, 6, 38, 70
15, 68140, Note_on_c, 6, 38, 0
15, 68158, Note_on_c, 6, 43, 70
15, 68188, Note_on_c, 6, 43, 0
15, 68256, Note_on_c, 6, 43, 70
15, 68284, Note_on_c, 6, 43, 0
15, 68304, Note_on_c, 6, 43, 70
15, 68332, Note_on_c, 6, 43, 0
15, 68354, Note_on_c, 6, 35, 70
15, 68380, Note_on_c, 6, 35, 0
15, 68450, Note_on_c, 6, 35, 70
15, 68476, Note_on_c, 6, 35, 0
15, 68498, Note_on_c, 6, 35, 70
15, 68524, Note_on_c, 6, 35, 0
15, 68548, Note_on_c, 6, 39, 70
15, 68572, Note_on_c, 6, 39, 0
15, 68640, Note_on_c, 6, 39, 70
15, 68668, Note_on_c, 6, 39, 0
15, 68686, Note_on_c, 6, 39, 70
15, 68716, Note_on_c, 6, 39, 0
15, 68738, Note_on_c, 6, 42, 70
15, 68764, Note_on_c, 6, 42, 0
15, 68830, Note_on_c, 6, 42, 70
15, 68860, Note_on_c, 6, 42, 0
15, 68876, Note_on_c, 6, 42, 70
15, 68908, Note_on_c, 6, 42, 0
15, 68928, Note_on_c, 6, 47, 70
15, 68956, Note_on_c, 6, 47, 0
15, 69024, Note_on_c, 6, 47, 70
15, 69052, Note_on_c, 6, 47, 0
15, 69068, Note_on_c, 6, 47, 70
15, 69100, Note_on_c, 6, 47, 0
15, 69118, Note_on_c, 6, 28, 70
15, 69148, Note_on_c, 6, 28, 0
15, 69218, Note_on_c, 6, 28, 70
15, 69244, Note_on_c, 6, 28, 0
15, 69260, Note_on_c, 6, 28, 70
15, 69292, Note_on_c, 6, 28, 0
15, 69316, Note_on_c, 6, 31, 70
15, 69340, Note_on_c, 6, 31, 0
15, 69406, Note_on_c, 6, 31, 70
15, 69436, Note_on_c, 6, 31, 0
15, 69454, Note_on_c, 6, 31, 70
15, 69484, Note_on_c, 6, 31, 0
15, 69506, Note_on_c, 6, 35, 70
15, 69532, Note_on_c, 6, 35, 0
15, 69600, Note_on_c, 6, 33, 66
15, 69684, Note_on_c, 6, 33, 0
15, 69740, Note_on_c, 6, 35, 66
15, 69828, Note_on_c, 6, 35, 0
15, 69890, Note_on_c, 6, 36, 70
15, 69916, Note_on_c, 6, 36, 0
15, 69982, Note_on_c, 6, 36, 70
15, 70012, Note_on_c, 6, 36, 0
15, 70034, Note_on_c, 6, 36, 70
15, 70060, Note_on_c, 6, 36, 0
15, 70082, Note_on_c, 6, 40, 70
15, 70108, Note_on_c, 6, 40, 0
15, 70176, Note_on_c, 6, 40, 70
15, 70204, Note_on_c, 6, 40, 0
15, 70224, Note_on_c, 6, 40, 70
15, 70252, Note_on_c, 6, 40, 0
15, 70274, Note_on_c, 6, 43, 70
15, 70300, Note_on_c, 6, 43, 0
15, 70370, Note_on_c, 6, 43, 70
15, 70396, Note_on_c, 6, 43, 0
15, 70416, Note_on_c, 6, 43, 70
15, 70444, Note_on_c, 6, 43, 0
15, 70468, Note_on_c, 6, 48, 70
15, 70492, Note_on_c, 6, 48, 0
15, 70564, Note_on_c, 6, 48, 70
15, 70588, Note_on_c, 6, 48, 0
15, 70612, Note_on_c, 6, 48, 70
15, 70636, Note_on_c, 6, 48, 0
15, 70660, Note_on_c, 6, 33, 70
15, 70684, Note_on_c, 6, 33, 0
15, 70752, Note_on_c, 6, 33, 70
15, 70780, Note_on_c, 6, 33, 0
15, 70800, Note_on_c, 6, 33, 70
15, 70828, Note_on_c, 6, 33, 0
15, 70848, Note_on_c, 6, 36, 70
15, 70876, Note_on_c, 6, 36, 0
15, 70944, Note_on_c, 6, 36, 70
15, 70972, Note_on_c, 6, 36, 0
15, 70990, Note_on_c, 6, 36, 70
15, 71020, Note_on_c, 6, 36, 0
15, 71040, Note_on_c, 6, 40, 70
15, 71068, Note_on_c, 6, 40, 0
15, 71136, Note_on_c, 6, 40, 70
15, 71164, Note_on_c, 6, 40, 0
15, 71184, Note_on_c, 6, 40, 70
15, 71212, Note_on_c, 6, 40, 0
15, 71232, Note_on_c, 6, 45, 70
15, 71260, Note_on_c, 6, 45, 0
15, 71330, Note_on_c, 6, 45, 70
15, 71356, Note_on_c, 6, 45, 0
15, 71378, Note_on_c, 6, 45, 70
15, 71404, Note_on_c, 6, 45, 0
15, 71424, Note_on_c, 6, 35, 70
15, 71452, Note_on_c, 6, 35, 0
15, 71520, Note_on_c, 6, 35, 70
15, 71548, Note_on_c, 6, 35, 0
15, 71566, Note_on_c, 6, 35, 70
15, 71596, Note_on_c, 6, 35, 0
15, 71618, Note_on_c, 6, 39, 70
15, 71644, Note_on_c, 6, 39, 0
15, 71712, Note_on_c, 6, 39, 70
15, 71740, Note_on_c, 6, 39, 0
15, 71760, Note_on_c, 6, 39, 70
15, 71788, Note_on_c, 6, 39, 0
15, 71810, Note_on_c, 6, 42, 70
15, 71836, Note_on_c, 6, 42, 0
15, 71906, Note_on_c, 6, 42, 70
15, 71932, Note_on_c, 6, 42, 0
15, 71954, Note_on_c, 6, 42, 70
15, 71980, Note_on_c, 6, 42, 0
15, 72004, Note_on_c, 6, 47, 70
15, 72028, Note_on_c, 6, 47, 0
15, 72092, Note_on_c, 6, 47, 70
15, 72124, Note_on_c, 6, 47, 0
15, 72140, Note_on_c, 6, 47, 70
15, 72172, Note_on_c, 6, 47, 0
15, 72192, Note_on_c, 6, 28, 70
15, 72220, Note_on_c, 6, 28, 0
15, 72286, Note_on_c, 6, 28, 70
15, 72316, Note_on_c, 6, 28, 0
15, 72336, Note_on_c, 6, 28, 70
15, 72364, Note_on_c, 6, 28, 0
15, 72384, Note_on_c, 6, 31, 70
15, 72412, Note_on_c, 6, 31, 0
15, 72480, Note_on_c, 6, 31, 70
15, 72508, Note_on_c, 6, 31, 0
15, 72528, Note_on_c, 6, 31, 70
15, 72556, Note_on_c, 6, 31, 0
15, 72574, Note_on_c, 6, 35, 70
15, 72604, Note_on_c, 6, 35, 0
15, 72674, Note_on_c, 6, 35, 70
15, 72700, Note_on_c, 6, 35, 0
15, 72720, Note_on_c, 6, 35, 70
15, 72748, Note_on_c, 6, 35, 0
15, 72768, Note_on_c, 6, 40, 70
15, 72796, Note_on_c, 6, 40, 0
15, 72862, Note_on_c, 6, 40, 70
15, 72892, Note_on_c, 6, 40, 0
15, 72914, Note_on_c, 6, 40, 70
15, 72940, Note_on_c, 6, 40, 0
15, 72962, Note_on_c, 6, 36, 70
15, 72988, Note_on_c, 6, 36, 0
15, 73056, Note_on_c, 6, 36, 70
15, 73084, Note_on_c, 6, 36, 0
15, 73104, Note_on_c, 6, 36, 70
15, 73132, Note_on_c, 6, 36, 0
15, 73150, Note_on_c, 6, 40, 70
15, 73180, Note_on_c, 6, 40, 0
15, 73250, Note_on_c, 6, 40, 70
15, 73276, Note_on_c, 6, 40, 0
15, 73296, Note_on_c, 6, 40, 70
15, 73324, Note_on_c, 6, 40, 0
15, 73346, Note_on_c, 6, 43, 70
15, 73372, Note_on_c, 6, 43, 0
15, 73438, Note_on_c, 6, 43, 70
15, 73468, Note_on_c, 6, 43, 0
15, 73490, Note_on_c, 6, 43, 70
15, 73516, Note_on_c, 6, 43, 0
15, 73540, Note_on_c, 6, 48, 70
15, 73564, Note_on_c, 6, 48, 0
15, 73632, Note_on_c, 6, 48, 70
15, 73660, Note_on_c, 6, 48, 0
15, 73680, Note_on_c, 6, 48, 70
15, 73708, Note_on_c, 6, 48, 0
15, 73732, Note_on_c, 6, 33, 70
15, 73756, Note_on_c, 6, 33, 0
15, 73820, Note_on_c, 6, 33, 70
15, 73852, Note_on_c, 6, 33, 0
15, 73870, Note_on_c, 6, 33, 70
15, 73900, Note_on_c, 6, 33, 0
15, 73924, Note_on_c, 6, 36, 70
15, 73948, Note_on_c, 6, 36, 0
15, 74018, Note_on_c, 6, 36, 70
15, 74044, Note_on_c, 6, 36, 0
15, 74064, Note_on_c, 6, 36, 70
15, 74092, Note_on_c, 6, 36, 0
15, 74112, Note_on_c, 6, 40, 70
15, 74140, Note_on_c, 6, 40, 0
15, 74208, Note_on_c, 6, 40, 70
15, 74236, Note_on_c, 6, 40, 0
15, 74256, Note_on_c, 6, 40, 70
15, 74284, Note_on_c, 6, 40, 0
15, 74304, Note_on_c, 6, 45, 70
15, 74332, Note_on_c, 6, 45, 0
15, 74400, Note_on_c, 6, 45, 70
15, 74428, Note_on_c, 6, 45, 0
15, 74446, Note_on_c, 6, 45, 70
15, 74476, Note_on_c, 6, 45, 0
15, 74498, Note_on_c, 6, 35, 70
15, 74524, Note_on_c, 6, 35, 0
15, 74592, Note_on_c, 6, 35, 70
15, 74620, Note_on_c, 6, 35, 0
15, 74640, Note_on_c, 6, 35, 70
15, 74668, Note_on_c, 6, 35, 0
15, 74688, Note_on_c, 6, 39, 70
15, 74716, Note_on_c, 6, 39, 0
15, 74786, Note_on_c, 6, 39, 70
15, 74812, Note_on_c, 6, 39, 0
15, 74834, Note_on_c, 6, 39, 70
15, 74860, Note_on_c, 6, 39, 0
15, 74884, Note_on_c, 6, 42, 70
15, 74908, Note_on_c, 6, 42, 0
15, 74974, Note_on_c, 6, 42, 70
15, 75004, Note_on_c, 6, 42, 0
15, 75022, Note_on_c, 6, 42, 70
15, 75052, Note_on_c, 6, 42, 0
15, 75076, Note_on_c, 6, 47, 70
15, 75100, Note_on_c, 6, 47, 0
15, 75168, Note_on_c, 6, 47, 70
15, 75196, Note_on_c, 6, 47, 0
15, 75220, Note_on_c, 6, 47, 70
15, 75244, Note_on_c, 6, 47, 0
15, 75262, Note_on_c, 6, 28, 70
15, 75292, Note_on_c, 6, 28, 0
15, 75360, Note_on_c, 6, 28, 70
15, 75388, Note_on_c, 6, 28, 0
15, 75412, Note_on_c, 6, 28, 70
15, 75436, Note_on_c, 6, 28, 0
15, 75454, Note_on_c, 6, 31, 70
15, 75484, Note_on_c, 6, 31, 0
15, 75552, Note_on_c, 6, 31, 70
15, 75580, Note_on_c, 6, 31, 0
15, 75600, Note_on_c, 6, 31, 70
15, 75628, Note_on_c, 6, 31, 0
15, 75648, Note_on_c, 6, 35, 70
15, 75676, Note_on_c, 6, 35, 0
15, 75742, Note_on_c, 6, 35, 70
15, 75772, Note_on_c, 6, 35, 0
15, 75792, Note_on_c, 6, 35, 70
15, 75820, Note_on_c, 6, 35, 0
15, 75840, Note_on_c, 6, 40, 70
15, 75868, Note_on_c, 6, 40, 0
15, 75936, Note_on_c, 6, 40, 70
15, 75964, Note_on_c, 6, 40, 0
15, 75984, Note_on_c, 6, 40, 70
15, 76012, Note_on_c, 6, 40, 0
15, 76030, Note_on_c, 6, 36, 70
15, 76060, Note_on_c, 6, 36, 0
15, 76130, Note_on_c, 6, 36, 70
15, 76156, Note_on_c, 6, 36, 0
15, 76176, Note_on_c, 6, 36, 70
15, 76204, Note_on_c, 6, 36, 0
15, 76226, Note_on_c, 6, 40, 70
15, 76252, Note_on_c, 6, 40, 0
15, 76318, Note_on_c, 6, 40, 70
15, 76348, Note_on_c, 6, 40, 0
15, 76370, Note_on_c, 6, 40, 70
15, 76396, Note_on_c, 6, 40, 0
15, 76420, Note_on_c, 6, 43, 70
15, 76444, Note_on_c, 6, 43, 0
15, 76512, Note_on_c, 6, 43, 70
15, 76540, Note_on_c, 6, 43, 0
15, 76560, Note_on_c, 6, 43, 70
15, 76588, Note_on_c, 6, 43, 0
15, 76610, Note_on_c, 6, 48, 70
15, 76636, Note_on_c, 6, 48, 0
15, 76704, Note_on_c, 6, 48, 70
15, 76732, Note_on_c, 6, 48, 0
15, 76752, Note_on_c, 6, 48, 70
15, 76780, Note_on_c, 6, 48, 0
15, 76802, Note_on_c, 6, 33, 70
15, 76828, Note_on_c, 6, 33, 0
15, 76898, Note_on_c, 6, 33, 70
15, 76924, Note_on_c, 6, 33, 0
15, 76940, Note_on_c, 6, 33, 70
15, 76972, Note_on_c, 6, 33, 0
15, 76992, Note_on_c, 6, 36, 70
15, 77020, Note_on_c, 6, 36, 0
15, 77092, Note_on_c, 6, 36, 70
15, 77116, Note_on_c, 6, 36, 0
15, 77136, Note_on_c, 6, 36, 70
15, 77164, Note_on_c, 6, 36, 0
15, 77184, Note_on_c, 6, 40, 70
15, 77212, Note_on_c, 6, 40, 0
15, 77280, Note_on_c, 6, 40, 70
15, 77308, Note_on_c, 6, 40, 0
15, 77326, Note_on_c, 6, 40, 70
15, 77356, Note_on_c, 6, 40, 0
15, 77378, Note_on_c, 6, 45, 70
15, 77404, Note_on_c, 6, 45, 0
15, 77472, Note_on_c, 6, 45, 70
15, 77500, Note_on_c, 6, 45, 0
15, 77520, Note_on_c, 6, 45, 70
15, 77548, Note_on_c, 6, 45, 0
15, 77566, Note_on_c, 6, 35, 70
15, 77596, Note_on_c, 6, 35, 0
15, 77666, Note_on_c, 6, 35, 70
15, 77692, Note_on_c, 6, 35, 0
15, 77714, Note_on_c, 6, 35, 70
15, 77740, Note_on_c, 6, 35, 0
15, 77760, Note_on_c, 6, 39, 70
15, 77788, Note_on_c, 6, 39, 0
15, 77854, Note_on_c, 6, 39, 70
15, 77884, Note_on_c, 6, 39, 0
15, 77902, Note_on_c, 6, 39, 70
15, 77932, Note_on_c, 6, 39, 0
15, 77956, Note_on_c, 6, 42, 70
15, 77980, Note_on_c, 6, 42, 0
15, 78048, Note_on_c, 6, 42, 70
15, 78076, Note_on_c, 6, 42, 0
15, 78096, Note_on_c, 6, 42, 70
15, 78124, Note_on_c, 6, 42, 0
15, 78146, Note_on_c, 6, 47, 70
15, 78172, Note_on_c, 6, 47, 0
15, 78242, Note_on_c, 6, 47, 70
15, 78268, Note_on_c, 6, 47, 0
15, 78288, Note_on_c, 6, 47, 70
15, 78316, Note_on_c, 6, 47, 0
15, 78340, Note_on_c, 6, 28, 70
15, 78364, Note_on_c, 6, 28, 0
15, 78430, Note_on_c, 6, 28, 70
15, 78460, Note_on_c, 6, 28, 0
15, 78478, Note_on_c, 6, 28, 70
15, 78508, Note_on_c, 6, 28, 0
15, 78526, Note_on_c, 6, 31, 70
15, 78556, Note_on_c, 6, 31, 0
15, 78622, Note_on_c, 6, 31, 70
15, 78652, Note_on_c, 6, 31, 0
15, 78672, Note_on_c, 6, 31, 70
15, 78700, Note_on_c, 6, 31, 0
15, 78724, Note_on_c, 6, 35, 70
15, 78748, Note_on_c, 6, 35, 0
15, 78820, Note_on_c, 6, 35, 70
15, 78844, Note_on_c, 6, 35, 0
15, 78862, Note_on_c, 6, 35, 70
15, 78892, Note_on_c, 6, 35, 0
15, 78910, Note_on_c, 6, 40, 70
15, 78940, Note_on_c, 6, 40, 0
15, 79008, Note_on_c, 6, 40, 70
15, 79036, Note_on_c, 6, 40, 0
15, 79056, Note_on_c, 6, 40, 70
15, 79084, Note_on_c, 6, 40, 0
15, 79104, Note_on_c, 6, 36, 70
15, 79132, Note_on_c, 6, 36, 0
15, 79198, Note_on_c, 6, 36, 70
15, 79228, Note_on_c, 6, 36, 0
15, 79250, Note_on_c, 6, 36, 70
15, 79276, Note_on_c, 6, 36, 0
15, 79296, Note_on_c, 6, 40, 70
15, 79324, Note_on_c, 6, 40, 0
15, 79392, Note_on_c, 6, 40, 70
15, 79420, Note_on_c, 6, 40, 0
15, 79440, Note_on_c, 6, 40, 70
15, 79468, Note_on_c, 6, 40, 0
15, 79486, Note_on_c, 6, 43, 70
15, 79516, Note_on_c, 6, 43, 0
15, 79584, Note_on_c, 6, 43, 70
15, 79612, Note_on_c, 6, 43, 0
15, 79632, Note_on_c, 6, 43, 70
15, 79660, Note_on_c, 6, 43, 0
15, 79682, Note_on_c, 6, 48, 70
15, 79708, Note_on_c, 6, 48, 0
15, 79774, Note_on_c, 6, 48, 70
15, 79804, Note_on_c, 6, 48, 0
15, 79826, Note_on_c, 6, 48, 70
15, 79852, Note_on_c, 6, 48, 0
15, 79876, Note_on_c, 6, 33, 70
15, 79900, Note_on_c, 6, 33, 0
15, 79968, Note_on_c, 6, 33, 70
15, 79996, Note_on_c, 6, 33, 0
15, 80014, Note_on_c, 6, 33, 70
15, 80044, Note_on_c, 6, 33, 0
15, 80068, Note_on_c, 6, 36, 70
15, 80092, Note_on_c, 6, 36, 0
15, 80160, Note_on_c, 6, 36, 70
15, 80188, Note_on_c, 6, 36, 0
15, 80232, Note_on_c, 6, 36, 60
15, 80232, Note_on_c, 6, 36, 0
15, 80254, Note_on_c, 6, 40, 70
15, 80280, Note_on_c, 6, 40, 0
15, 80348, Note_on_c, 6, 40, 70
15, 80376, Note_on_c, 6, 40, 0
15, 80398, Note_on_c, 6, 40, 70
15, 80424, Note_on_c, 6, 40, 0
15, 80442, Note_on_c, 6, 45, 70
15, 80472, Note_on_c, 6, 45, 0
15, 80540, Note_on_c, 6, 45, 70
15, 80568, Note_on_c, 6, 45, 0
15, 80588, Note_on_c, 6, 45, 70
15, 80616, Note_on_c, 6, 45, 0
15, 80636, Note_on_c, 6, 35, 70
15, 80664, Note_on_c, 6, 35, 0
15, 80730, Note_on_c, 6, 35, 70
15, 80760, Note_on_c, 6, 35, 0
15, 80778, Note_on_c, 6, 35, 70
15, 80808, Note_on_c, 6, 35, 0
15, 80828, Note_on_c, 6, 39, 70
15, 80856, Note_on_c, 6, 39, 0
15, 80924, Note_on_c, 6, 39, 70
15, 80952, Note_on_c, 6, 39, 0
15, 80972, Note_on_c, 6, 39, 70
15, 81000, Note_on_c, 6, 39, 0
15, 81018, Note_on_c, 6, 42, 70
15, 81048, Note_on_c, 6, 42, 0
15, 81118, Note_on_c, 6, 42, 70
15, 81144, Note_on_c, 6, 42, 0
15, 81164, Note_on_c, 6, 42, 70
15, 81192, Note_on_c, 6, 42, 0
15, 81212, Note_on_c, 6, 47, 70
15, 81240, Note_on_c, 6, 47, 0
15, 81306, Note_on_c, 6, 47, 70
15, 81336, Note_on_c, 6, 47, 0
15, 81358, Note_on_c, 6, 47, 70
15, 81384, Note_on_c, 6, 47, 0
15, 81384, End_track
16, 0, Start_track
16, 0, MIDI_port, 0
16, 0, Title_t, ""
16, 0, Control_c, 12, 0, 56
16, 0, Control_c, 12, 32, 0
16, 0, Program_c, 12, 61
16, 0, Control_c, 12, 7, 127
16, 0, Control_c, 12, 10, 80
16, 0, Control_c, 12, 91, 0
16, 0, Control_c, 12, 93, 0
16, 1982, Control_c, 12, 91, 0
16, 1982, Control_c, 12, 93, 0
16, 1982, Control_c, 12, 10, 80
16, 1982, Control_c, 12, 7, 127
16, 23145, Note_on_c, 12, 64, 127
16, 23145, Note_on_c, 12, 76, 127
16, 23184, Note_on_c, 12, 62, 127
16, 23187, Note_on_c, 12, 74, 127
16, 23197, Note_on_c, 12, 76, 0
16, 23198, Note_on_c, 12, 64, 0
16, 23225, Note_on_c, 12, 62, 0
16, 23231, Note_on_c, 12, 74, 0
16, 23282, Note_on_c, 12, 62, 127
16, 23283, Note_on_c, 12, 74, 127
16, 23321, Note_on_c, 12, 74, 0
16, 23322, Note_on_c, 12, 71, 127
16, 23328, Note_on_c, 12, 59, 127
16, 23336, Note_on_c, 12, 62, 0
16, 23359, Note_on_c, 12, 71, 0
16, 23366, Note_on_c, 12, 59, 0
16, 23422, Note_on_c, 12, 57, 127
16, 23422, Note_on_c, 12, 69, 127
16, 23457, Note_on_c, 12, 57, 0
16, 23459, Note_on_c, 12, 69, 0
16, 23512, Note_on_c, 12, 55, 127
16, 23515, Note_on_c, 12, 67, 127
16, 23551, Note_on_c, 12, 55, 0
16, 23554, Note_on_c, 12, 67, 0
16, 23844, Control_c, 12, 10, 81
16, 23888, Control_c, 12, 10, 78
16, 23896, Control_c, 12, 10, 67
16, 23905, Note_on_c, 12, 64, 127
16, 23906, Note_on_c, 12, 76, 127
16, 23912, Control_c, 12, 10, 64
16, 23920, Control_c, 12, 10, 61
16, 23940, Control_c, 12, 10, 58
16, 23947, Note_on_c, 12, 74, 127
16, 23950, Note_on_c, 12, 62, 127
16, 23958, Note_on_c, 12, 76, 0
16, 23963, Note_on_c, 12, 64, 0
16, 23989, Note_on_c, 12, 62, 0
16, 23989, Control_c, 12, 10, 56
16, 23991, Note_on_c, 12, 74, 0
16, 24010, Control_c, 12, 10, 53
16, 24010, Control_c, 12, 10, 50
16, 24042, Control_c, 12, 10, 47
16, 24048, Note_on_c, 12, 74, 127
16, 24049, Note_on_c, 12, 62, 127
16, 24092, Note_on_c, 12, 74, 0
16, 24096, Note_on_c, 12, 59, 127
16, 24096, Note_on_c, 12, 71, 127
16, 24107, Note_on_c, 12, 62, 0
16, 24131, Note_on_c, 12, 71, 0
16, 24131, Note_on_c, 12, 59, 0
16, 24188, Note_on_c, 12, 57, 127
16, 24193, Note_on_c, 12, 69, 127
16, 24227, Note_on_c, 12, 59, 127
16, 24235, Note_on_c, 12, 71, 127
16, 24236, Note_on_c, 12, 57, 0
16, 24244, Note_on_c, 12, 69, 0
16, 24273, Note_on_c, 12, 59, 0
16, 24277, Note_on_c, 12, 71, 0
16, 24278, Note_on_c, 12, 55, 127
16, 24285, Note_on_c, 12, 67, 127
16, 24334, Note_on_c, 12, 67, 0
16, 24337, Note_on_c, 12, 55, 0
16, 24571, Note_on_c, 12, 79, 127
16, 24573, Note_on_c, 12, 71, 127
16, 24573, Note_on_c, 12, 83, 127
16, 24573, Note_on_c, 12, 75, 127
16, 24666, Note_on_c, 12, 83, 0
16, 24666, Note_on_c, 12, 79, 0
16, 24667, Note_on_c, 12, 75, 0
16, 24671, Note_on_c, 12, 71, 0
16, 24695, Note_on_c, 12, 83, 127
16, 24698, Note_on_c, 12, 75, 127
16, 24698, Note_on_c, 12, 71, 127
16, 24698, Note_on_c, 12, 79, 127
16, 24742, Note_on_c, 12, 79, 0
16, 24745, Note_on_c, 12, 71, 0
16, 24746, Note_on_c, 12, 75, 0
16, 24746, Note_on_c, 12, 83, 0
16, 40809, Note_on_c, 12, 64, 127
16, 40809, Note_on_c, 12, 76, 127
16, 40848, Note_on_c, 12, 62, 127
16, 40851, Note_on_c, 12, 74, 127
16, 40861, Note_on_c, 12, 76, 0
16, 40862, Note_on_c, 12, 64, 0
16, 40889, Note_on_c, 12, 62, 0
16, 40895, Note_on_c, 12, 74, 0
16, 40946, Note_on_c, 12, 62, 127
16, 40947, Note_on_c, 12, 74, 127
16, 40985, Note_on_c, 12, 74, 0
16, 40986, Note_on_c, 12, 71, 127
16, 40992, Note_on_c, 12, 59, 127
16, 41000, Note_on_c, 12, 62, 0
16, 41023, Note_on_c, 12, 71, 0
16, 41030, Note_on_c, 12, 59, 0
16, 41086, Note_on_c, 12, 57, 127
16, 41086, Note_on_c, 12, 69, 127
16, 41121, Note_on_c, 12, 57, 0
16, 41123, Note_on_c, 12, 69, 0
16, 41176, Note_on_c, 12, 55, 127
16, 41179, Note_on_c, 12, 67, 127
16, 41215, Note_on_c, 12, 55, 0
16, 41218, Note_on_c, 12, 67, 0
16, 41569, Note_on_c, 12, 64, 127
16, 41570, Note_on_c, 12, 76, 127
16, 41611, Note_on_c, 12, 74, 127
16, 41614, Note_on_c, 12, 62, 127
16, 41622, Note_on_c, 12, 76, 0
16, 41627, Note_on_c, 12, 64, 0
16, 41653, Note_on_c, 12, 62, 0
16, 41655, Note_on_c, 12, 74, 0
16, 41712, Note_on_c, 12, 74, 127
16, 41713, Note_on_c, 12, 62, 127
16, 41756, Note_on_c, 12, 74, 0
16, 41760, Note_on_c, 12, 59, 127
16, 41760, Note_on_c, 12, 71, 127
16, 41771, Note_on_c, 12, 62, 0
16, 41795, Note_on_c, 12, 71, 0
16, 41795, Note_on_c, 12, 59, 0
16, 41852, Note_on_c, 12, 57, 127
16, 41857, Note_on_c, 12, 69, 127
16, 41891, Note_on_c, 12, 59, 127
16, 41899, Note_on_c, 12, 71, 127
16, 41900, Note_on_c, 12, 57, 0
16, 41908, Note_on_c, 12, 69, 0
16, 41937, Note_on_c, 12, 59, 0
16, 41941, Note_on_c, 12, 71, 0
16, 41942, Note_on_c, 12, 55, 127
16, 41949, Note_on_c, 12, 67, 127
16, 41998, Note_on_c, 12, 67, 0
16, 42001, Note_on_c, 12, 55, 0
16, 42235, Note_on_c, 12, 79, 127
16, 42237, Note_on_c, 12, 71, 127
16, 42237, Note_on_c, 12, 83, 127
16, 42237, Note_on_c, 12, 75, 127
16, 42330, Note_on_c, 12, 83, 0
16, 42330, Note_on_c, 12, 79, 0
16, 42331, Note_on_c, 12, 75, 0
16, 42335, Note_on_c, 12, 71, 0
16, 42359, Note_on_c, 12, 83, 127
16, 42362, Note_on_c, 12, 75, 127
16, 42362, Note_on_c, 12, 71, 127
16, 42362, Note_on_c, 12, 79, 127
16, 42406, Note_on_c, 12, 79, 0
16, 42409, Note_on_c, 12, 71, 0
16, 42410, Note_on_c, 12, 75, 0
16, 42410, Note_on_c, 12, 83, 0
16, 46953, Note_on_c, 12, 64, 127
16, 46953, Note_on_c, 12, 76, 127
16, 46992, Note_on_c, 12, 62, 127
16, 46995, Note_on_c, 12, 74, 127
16, 47005, Note_on_c, 12, 76, 0
16, 47006, Note_on_c, 12, 64, 0
16, 47033, Note_on_c, 12, 62, 0
16, 47039, Note_on_c, 12, 74, 0
16, 47090, Note_on_c, 12, 62, 127
16, 47091, Note_on_c, 12, 74, 127
16, 47129, Note_on_c, 12, 74, 0
16, 47130, Note_on_c, 12, 71, 127
16, 47136, Note_on_c, 12, 59, 127
16, 47144, Note_on_c, 12, 62, 0
16, 47167, Note_on_c, 12, 71, 0
16, 47174, Note_on_c, 12, 59, 0
16, 47230, Note_on_c, 12, 57, 127
16, 47230, Note_on_c, 12, 69, 127
16, 47265, Note_on_c, 12, 57, 0
16, 47267, Note_on_c, 12, 69, 0
16, 47320, Note_on_c, 12, 55, 127
16, 47323, Note_on_c, 12, 67, 127
16, 47359, Note_on_c, 12, 55, 0
16, 47362, Note_on_c, 12, 67, 0
16, 47713, Note_on_c, 12, 64, 127
16, 47714, Note_on_c, 12, 76, 127
16, 47755, Note_on_c, 12, 74, 127
16, 47758, Note_on_c, 12, 62, 127
16, 47766, Note_on_c, 12, 76, 0
16, 47771, Note_on_c, 12, 64, 0
16, 47797, Note_on_c, 12, 62, 0
16, 47799, Note_on_c, 12, 74, 0
16, 47856, Note_on_c, 12, 74, 127
16, 47857, Note_on_c, 12, 62, 127
16, 47900, Note_on_c, 12, 74, 0
16, 47904, Note_on_c, 12, 59, 127
16, 47904, Note_on_c, 12, 71, 127
16, 47915, Note_on_c, 12, 62, 0
16, 47939, Note_on_c, 12, 71, 0
16, 47939, Note_on_c, 12, 59, 0
16, 47996, Note_on_c, 12, 57, 127
16, 48001, Note_on_c, 12, 69, 127
16, 48035, Note_on_c, 12, 59, 127
16, 48043, Note_on_c, 12, 71, 127
16, 48044, Note_on_c, 12, 57, 0
16, 48052, Note_on_c, 12, 69, 0
16, 48081, Note_on_c, 12, 59, 0
16, 48085, Note_on_c, 12, 71, 0
16, 48086, Note_on_c, 12, 55, 127
16, 48093, Note_on_c, 12, 67, 127
16, 48142, Note_on_c, 12, 67, 0
16, 48145, Note_on_c, 12, 55, 0
16, 48379, Note_on_c, 12, 79, 127
16, 48381, Note_on_c, 12, 71, 127
16, 48381, Note_on_c, 12, 83, 127
16, 48381, Note_on_c, 12, 75, 127
16, 48474, Note_on_c, 12, 83, 0
16, 48474, Note_on_c, 12, 79, 0
16, 48475, Note_on_c, 12, 75, 0
16, 48479, Note_on_c, 12, 71, 0
16, 48503, Note_on_c, 12, 83, 127
16, 48506, Note_on_c, 12, 75, 127
16, 48506, Note_on_c, 12, 71, 127
16, 48506, Note_on_c, 12, 79, 127
16, 48550, Note_on_c, 12, 79, 0
16, 48553, Note_on_c, 12, 71, 0
16, 48554, Note_on_c, 12, 75, 0
16, 48554, Note_on_c, 12, 83, 0
16, 73065, Note_on_c, 12, 64, 127
16, 73065, Note_on_c, 12, 76, 127
16, 73104, Note_on_c, 12, 62, 127
16, 73107, Note_on_c, 12, 74, 127
16, 73117, Note_on_c, 12, 76, 0
16, 73118, Note_on_c, 12, 64, 0
16, 73145, Note_on_c, 12, 62, 0
16, 73151, Note_on_c, 12, 74, 0
16, 73202, Note_on_c, 12, 62, 127
16, 73203, Note_on_c, 12, 74, 127
16, 73241, Note_on_c, 12, 74, 0
16, 73242, Note_on_c, 12, 71, 127
16, 73248, Note_on_c, 12, 59, 127
16, 73256, Note_on_c, 12, 62, 0
16, 73279, Note_on_c, 12, 71, 0
16, 73286, Note_on_c, 12, 59, 0
16, 73342, Note_on_c, 12, 57, 127
16, 73342, Note_on_c, 12, 69, 127
16, 73377, Note_on_c, 12, 57, 0
16, 73379, Note_on_c, 12, 69, 0
16, 73432, Note_on_c, 12, 55, 127
16, 73435, Note_on_c, 12, 67, 127
16, 73471, Note_on_c, 12, 55, 0
16, 73474, Note_on_c, 12, 67, 0
16, 73825, Note_on_c, 12, 64, 127
16, 73826, Note_on_c, 12, 76, 127
16, 73867, Note_on_c, 12, 74, 127
16, 73870, Note_on_c, 12, 62, 127
16, 73878, Note_on_c, 12, 76, 0
16, 73883, Note_on_c, 12, 64, 0
16, 73909, Note_on_c, 12, 62, 0
16, 73911, Note_on_c, 12, 74, 0
16, 73968, Note_on_c, 12, 74, 127
16, 73969, Note_on_c, 12, 62, 127
16, 74012, Note_on_c, 12, 74, 0
16, 74016, Note_on_c, 12, 59, 127
16, 74016, Note_on_c, 12, 71, 127
16, 74027, Note_on_c, 12, 62, 0
16, 74051, Note_on_c, 12, 71, 0
16, 74051, Note_on_c, 12, 59, 0
16, 74108, Note_on_c, 12, 57, 127
16, 74113, Note_on_c, 12, 69, 127
16, 74147, Note_on_c, 12, 59, 127
16, 74155, Note_on_c, 12, 71, 127
16, 74156, Note_on_c, 12, 57, 0
16, 74164, Note_on_c, 12, 69, 0
16, 74193, Note_on_c, 12, 59, 0
16, 74197, Note_on_c, 12, 71, 0
16, 74198, Note_on_c, 12, 55, 127
16, 74205, Note_on_c, 12, 67, 127
16, 74254, Note_on_c, 12, 67, 0
16, 74257, Note_on_c, 12, 55, 0
16, 74491, Note_on_c, 12, 79, 127
16, 74493, Note_on_c, 12, 71, 127
16, 74493, Note_on_c, 12, 83, 127
16, 74493, Note_on_c, 12, 75, 127
16, 74586, Note_on_c, 12, 83, 0
16, 74586, Note_on_c, 12, 79, 0
16, 74587, Note_on_c, 12, 75, 0
16, 74591, Note_on_c, 12, 71, 0
16, 74615, Note_on_c, 12, 83, 127
16, 74618, Note_on_c, 12, 75, 127
16, 74618, Note_on_c, 12, 71, 127
16, 74618, Note_on_c, 12, 79, 127
16, 74662, Note_on_c, 12, 79, 0
16, 74665, Note_on_c, 12, 71, 0
16, 74666, Note_on_c, 12, 75, 0
16, 74666, Note_on_c, 12, 83, 0
16, 79209, Note_on_c, 12, 64, 127
16, 79209, Note_on_c, 12, 76, 127
16, 79248, Note_on_c, 12, 62, 127
16, 79251, Note_on_c, 12, 74, 127
16, 79261, Note_on_c, 12, 76, 0
16, 79262, Note_on_c, 12, 64, 0
16, 79289, Note_on_c, 12, 62, 0
16, 79295, Note_on_c, 12, 74, 0
16, 79346, Note_on_c, 12, 62, 127
16, 79347, Note_on_c, 12, 74, 127
16, 79385, Note_on_c, 12, 74, 0
16, 79386, Note_on_c, 12, 71, 127
16, 79392, Note_on_c, 12, 59, 127
16, 79400, Note_on_c, 12, 62, 0
16, 79423, Note_on_c, 12, 71, 0
16, 79430, Note_on_c, 12, 59, 0
16, 79486, Note_on_c, 12, 57, 127
16, 79486, Note_on_c, 12, 69, 127
16, 79521, Note_on_c, 12, 57, 0
16, 79523, Note_on_c, 12, 69, 0
16, 79576, Note_on_c, 12, 55, 127
16, 79579, Note_on_c, 12, 67, 127
16, 79615, Note_on_c, 12, 55, 0
16, 79618, Note_on_c, 12, 67, 0
16, 79969, Note_on_c, 12, 64, 127
16, 79970, Note_on_c, 12, 76, 127
16, 80011, Note_on_c, 12, 74, 127
16, 80014, Note_on_c, 12, 62, 127
16, 80022, Note_on_c, 12, 76, 0
16, 80027, Note_on_c, 12, 64, 0
16, 80053, Note_on_c, 12, 62, 0
16, 80055, Note_on_c, 12, 74, 0
16, 80112, Note_on_c, 12, 74, 127
16, 80113, Note_on_c, 12, 62, 127
16, 80156, Note_on_c, 12, 74, 0
16, 80160, Note_on_c, 12, 59, 127
16, 80160, Note_on_c, 12, 71, 127
16, 80171, Note_on_c, 12, 62, 0
16, 80195, Note_on_c, 12, 71, 0
16, 80195, Note_on_c, 12, 59, 0
16, 80252, Note_on_c, 12, 57, 127
16, 80257, Note_on_c, 12, 69, 127
16, 80291, Note_on_c, 12, 59, 127
16, 80299, Note_on_c, 12, 71, 127
16, 80300, Note_on_c, 12, 57, 0
16, 80308, Note_on_c, 12, 69, 0
16, 80337, Note_on_c, 12, 59, 0
16, 80341, Note_on_c, 12, 71, 0
16, 80342, Note_on_c, 12, 55, 127
16, 80349, Note_on_c, 12, 67, 127
16, 80398, Note_on_c, 12, 67, 0
16, 80401, Note_on_c, 12, 55, 0
16, 80635, Note_on_c, 12, 79, 127
16, 80637, Note_on_c, 12, 71, 127
16, 80637, Note_on_c, 12, 83, 127
16, 80637, Note_on_c, 12, 75, 127
16, 80730, Note_on_c, 12, 83, 0
16, 80730, Note_on_c, 12, 79, 0
16, 80731, Note_on_c, 12, 75, 0
16, 80735, Note_on_c, 12, 71, 0
16, 80759, Note_on_c, 12, 83, 127
16, 80762, Note_on_c, 12, 75, 127
16, 80762, Note_on_c, 12, 71, 127
16, 80762, Note_on_c, 12, 79, 127
16, 80806, Note_on_c, 12, 79, 0
16, 80809, Note_on_c, 12, 71, 0
16, 80810, Note_on_c, 12, 75, 0
16, 80810, Note_on_c, 12, 83, 0
16, 80810, End_track
17, 0, Start_track
17, 0, MIDI_port, 0
17, 0, Title_t, "Console Automation Data"
17, 0, Control_c, 0, 93, 64
17, 0, Control_c, 0, 92, 0
17, 0, Control_c, 0, 96, 64
17, 0, Control_c, 0, 95, 127
17, 0, Control_c, 1, 93, 64
17, 0, Control_c, 1, 92, 0
17, 0, Control_c, 1, 96, 64
17, 0, Control_c, 1, 95, 127
17, 0, Control_c, 1, 40, 103
17, 0, Control_c, 0, 40, 103
17, 1982, Control_c, 0, 93, 64
17, 1982, Control_c, 0, 92, 0
17, 1982, Control_c, 0, 96, 64
17, 1982, Control_c, 0, 95, 127
17, 1982, Control_c, 1, 93, 64
17, 1982, Control_c, 1, 92, 0
17, 1982, Control_c, 1, 96, 64
17, 1982, Control_c, 1, 95, 127
17, 1982, Control_c, 1, 40, 103
17, 1982, Control_c, 0, 40, 103
17, 25723, Control_c, 0, 95, 127
17, 25755, Control_c, 0, 95, 127
17, 25772, Control_c, 0, 95, 100
17, 25780, Control_c, 0, 95, 70
17, 25788, Control_c, 0, 95, 67
17, 25828, Control_c, 0, 95, 64
17, 25844, Control_c, 0, 95, 56
17, 25863, Control_c, 0, 95, 54
17, 25863, Control_c, 0, 95, 52
17, 25879, Control_c, 0, 95, 40
17, 25887, Control_c, 0, 95, 26
17, 25903, Control_c, 0, 95, 16
17, 25903, Control_c, 0, 95, 9
17, 25921, Control_c, 0, 95, 7
17, 25934, Control_c, 0, 95, 5
17, 26487, Control_c, 0, 40, 104
17, 26524, Control_c, 0, 40, 98
17, 26532, Control_c, 0, 40, 90
17, 26540, Control_c, 0, 40, 84
17, 26564, Control_c, 0, 40, 83
17, 26572, Control_c, 0, 40, 83
17, 26580, Control_c, 0, 40, 79
17, 26594, Control_c, 0, 40, 78
17, 26628, Control_c, 0, 40, 77
17, 26642, Control_c, 0, 40, 76
17, 26650, Control_c, 0, 40, 75
17, 26658, Control_c, 0, 40, 75
17, 26668, Control_c, 0, 40, 74
17, 26709, Control_c, 0, 40, 75
17, 26736, Control_c, 0, 40, 88
17, 26744, Control_c, 0, 40, 94
17, 26752, Control_c, 0, 40, 105
17, 26768, Control_c, 0, 40, 113
17, 26774, Control_c, 0, 40, 117
17, 26795, Control_c, 0, 40, 120
17, 26812, Control_c, 0, 40, 127
17, 26876, Control_c, 0, 40, 127
17, 26883, Control_c, 0, 40, 126
17, 26895, Control_c, 0, 40, 125
17, 26932, Control_c, 0, 40, 121
17, 26940, Control_c, 0, 40, 120
17, 26964, Control_c, 0, 40, 120
17, 26976, Control_c, 0, 40, 116
17, 26987, Control_c, 0, 40, 109
17, 27509, Control_c, 0, 40, 110
17, 27541, Control_c, 0, 40, 109
17, 27553, Control_c, 0, 40, 108
17, 27561, Control_c, 0, 40, 105
17, 27571, Control_c, 0, 40, 100
17, 27580, Control_c, 0, 40, 99
17, 27649, Control_c, 0, 40, 103
17, 27661, Control_c, 0, 40, 113
17, 27667, Control_c, 0, 40, 119
17, 27676, Control_c, 0, 40, 120
17, 27693, Control_c, 0, 40, 123
17, 27701, Control_c, 0, 40, 124
17, 27725, Control_c, 0, 40, 125
17, 27733, Control_c, 0, 40, 127
17, 28715, Control_c, 1, 40, 104
17, 28740, Control_c, 1, 40, 107
17, 28752, Control_c, 1, 40, 113
17, 28763, Control_c, 1, 40, 120
17, 28778, Control_c, 1, 40, 127
17, 28788, Control_c, 1, 40, 127
17, 29220, Control_c, 0, 40, 127
17, 29264, Control_c, 0, 40, 127
17, 29280, Control_c, 0, 40, 123
17, 29292, Control_c, 0, 40, 119
17, 29300, Control_c, 0, 40, 114
17, 29331, Control_c, 0, 40, 113
17, 29343, Control_c, 0, 40, 113
17, 29356, Control_c, 0, 40, 109
17, 29364, Control_c, 0, 40, 108
17, 29397, Control_c, 0, 40, 107
17, 29493, Control_c, 0, 40, 106
17, 29824, Control_c, 1, 40, 127
17, 29854, Control_c, 1, 40, 121
17, 29865, Control_c, 1, 40, 117
17, 29878, Control_c, 1, 40, 116
17, 29884, Control_c, 1, 40, 113
17, 29892, Control_c, 1, 40, 108
17, 29905, Control_c, 1, 40, 107
17, 29916, Control_c, 1, 40, 106
17, 30052, Control_c, 1, 40, 103
17, 30060, Control_c, 1, 40, 102
17, 30180, Control_c, 1, 40, 101
17, 30995, Control_c, 0, 40, 106
17, 31019, Control_c, 0, 40, 115
17, 31032, Control_c, 0, 40, 127
17, 31310, Control_c, 1, 40, 101
17, 31327, Control_c, 1, 40, 106
17, 31327, Control_c, 1, 40, 119
17, 31344, Control_c, 1, 40, 127
17, 32120, Control_c, 0, 40, 127
17, 32144, Control_c, 0, 40, 121
17, 32157, Control_c, 0, 40, 106
17, 32162, Control_c, 0, 40, 95
17, 32174, Control_c, 0, 40, 90
17, 32188, Control_c, 0, 40, 81
17, 32196, Control_c, 0, 40, 72
17, 32208, Control_c, 0, 40, 62
17, 32219, Control_c, 0, 40, 53
17, 32227, Control_c, 0, 40, 44
17, 32238, Control_c, 0, 40, 35
17, 32253, Control_c, 0, 40, 23
17, 32259, Control_c, 0, 40, 22
17, 32292, Control_c, 0, 40, 21
17, 32300, Control_c, 0, 40, 20
17, 32516, Control_c, 1, 40, 127
17, 32516, Control_c, 1, 40, 127
17, 32532, Control_c, 1, 40, 120
17, 32532, Control_c, 1, 40, 103
17, 32545, Control_c, 1, 40, 85
17, 32557, Control_c, 1, 40, 68
17, 32568, Control_c, 1, 40, 53
17, 32580, Control_c, 1, 40, 41
17, 32594, Control_c, 1, 40, 34
17, 32602, Control_c, 1, 40, 30
17, 32614, Control_c, 1, 40, 23
17, 32620, Control_c, 1, 40, 23
17, 32636, Control_c, 1, 40, 19
17, 32644, Control_c, 1, 40, 15
17, 32656, Control_c, 1, 40, 10
17, 33116, Control_c, 1, 40, 10
17, 33140, Control_c, 1, 40, 13
17, 33149, Control_c, 1, 40, 20
17, 33157, Control_c, 1, 40, 29
17, 33168, Control_c, 1, 40, 41
17, 33179, Control_c, 1, 40, 55
17, 33192, Control_c, 1, 40, 68
17, 33204, Control_c, 1, 40, 74
17, 33212, Control_c, 1, 40, 81
17, 33227, Control_c, 1, 40, 90
17, 33241, Control_c, 1, 40, 98
17, 33244, Control_c, 1, 40, 103
17, 33252, Control_c, 1, 40, 104
17, 33268, Control_c, 1, 40, 107
17, 33276, Control_c, 1, 40, 112
17, 33284, Control_c, 1, 40, 119
17, 33300, Control_c, 1, 40, 125
17, 33312, Control_c, 1, 40, 126
17, 33323, Control_c, 1, 40, 127
17, 33602, Control_c, 0, 40, 20
17, 33615, Control_c, 0, 40, 23
17, 33623, Control_c, 0, 40, 36
17, 33628, Control_c, 0, 40, 60
17, 33644, Control_c, 0, 40, 87
17, 33648, Control_c, 0, 40, 105
17, 33664, Control_c, 0, 40, 116
17, 33672, Control_c, 0, 40, 127
17, 36641, Control_c, 0, 96, 65
17, 36641, Control_c, 0, 96, 63
17, 36681, Control_c, 0, 96, 74
17, 36700, Control_c, 0, 96, 89
17, 36700, Control_c, 0, 96, 104
17, 36716, Control_c, 0, 96, 119
17, 36720, Control_c, 0, 96, 122
17, 36736, Control_c, 0, 96, 127
17, 36744, Control_c, 0, 96, 127
17, 36756, Control_c, 0, 96, 127
17, 36778, Control_c, 0, 96, 127
17, 36918, Control_c, 0, 93, 64
17, 36918, Control_c, 0, 93, 67
17, 36968, Control_c, 0, 93, 70
17, 36972, Control_c, 0, 93, 102
17, 36988, Control_c, 0, 93, 127
17, 36996, Control_c, 0, 93, 127
17, 37008, Control_c, 0, 93, 127
17, 37020, Control_c, 0, 93, 127
17, 37365, Control_c, 1, 93, 64
17, 37381, Control_c, 1, 93, 67
17, 37397, Control_c, 1, 93, 70
17, 37413, Control_c, 1, 93, 102
17, 37421, Control_c, 1, 93, 118
17, 37428, Control_c, 1, 93, 121
17, 37704, Control_c, 1, 96, 65
17, 37728, Control_c, 1, 96, 77
17, 37739, Control_c, 1, 96, 110
17, 37756, Control_c, 1, 96, 127
17, 37764, Control_c, 1, 96, 127
17, 37778, Control_c, 1, 96, 127
17, 37787, Control_c, 1, 96, 127
17, 37800, Control_c, 1, 96, 127
17, 37972, Control_c, 1, 95, 127
17, 38012, Control_c, 1, 95, 127
17, 38018, Control_c, 1, 95, 127
17, 38029, Control_c, 1, 95, 127
17, 38029, Control_c, 1, 95, 127
17, 38044, Control_c, 1, 95, 127
17, 38044, Control_c, 1, 95, 127
17, 38129, Control_c, 1, 95, 127
17, 38129, Control_c, 1, 95, 127
17, 38172, Control_c, 1, 95, 125
17, 38177, Control_c, 1, 95, 125
17, 38188, Control_c, 1, 95, 118
17, 38188, Control_c, 1, 95, 118
17, 38204, Control_c, 1, 95, 113
17, 38209, Control_c, 1, 95, 112
17, 38209, Control_c, 1, 95, 112
17, 38229, Control_c, 1, 95, 105
17, 38229, Control_c, 1, 95, 105
17, 38244, Control_c, 1, 95, 104
17, 38244, Control_c, 1, 95, 104
17, 38264, Control_c, 1, 95, 101
17, 38268, Control_c, 1, 95, 101
17, 38280, Control_c, 1, 95, 98
17, 38280, Control_c, 1, 95, 98
17, 38296, Control_c, 1, 95, 94
17, 38303, Control_c, 1, 95, 94
17, 38304, Control_c, 1, 95, 87
17, 38304, Control_c, 1, 95, 87
17, 38315, Control_c, 1, 95, 82
17, 38315, Control_c, 1, 95, 82
17, 38332, Control_c, 1, 95, 79
17, 38332, Control_c, 1, 95, 79
17, 38332, Control_c, 1, 95, 79
17, 38340, Control_c, 1, 95, 79
17, 38380, Control_c, 1, 95, 78
17, 38380, Control_c, 1, 95, 78
17, 38396, Control_c, 1, 95, 77
17, 38400, Control_c, 1, 95, 77
17, 38415, Control_c, 1, 95, 76
17, 38415, Control_c, 1, 95, 76
17, 38428, Control_c, 1, 95, 74
17, 38428, Control_c, 1, 95, 74
17, 38448, Control_c, 1, 95, 70
17, 38453, Control_c, 1, 95, 65
17, 38453, Control_c, 1, 95, 65
17, 38472, Control_c, 1, 95, 61
17, 38472, Control_c, 1, 95, 61
17, 38504, Control_c, 1, 95, 66
17, 38504, Control_c, 1, 95, 66
17, 38515, Control_c, 1, 95, 72
17, 38515, Control_c, 1, 95, 72
17, 38524, Control_c, 1, 95, 77
17, 38532, Control_c, 1, 95, 77
17, 38544, Control_c, 1, 95, 82
17, 38544, Control_c, 1, 95, 87
17, 38544, Control_c, 1, 95, 87
17, 38564, Control_c, 1, 95, 90
17, 38568, Control_c, 1, 95, 90
17, 38568, Control_c, 1, 95, 93
17, 38572, Control_c, 1, 95, 93
17, 38588, Control_c, 1, 95, 96
17, 38588, Control_c, 1, 95, 96
17, 38613, Control_c, 1, 95, 105
17, 38613, Control_c, 1, 95, 105
17, 38620, Control_c, 1, 95, 106
17, 38620, Control_c, 1, 95, 106
17, 38680, Control_c, 1, 95, 107
17, 38680, Control_c, 1, 95, 107
17, 38696, Control_c, 1, 95, 109
17, 38699, Control_c, 1, 95, 109
17, 38712, Control_c, 1, 95, 113
17, 38712, Control_c, 1, 95, 113
17, 38731, Control_c, 1, 95, 114
17, 38731, Control_c, 1, 95, 114
17, 38748, Control_c, 1, 95, 117
17, 38748, Control_c, 1, 95, 117
17, 38764, Control_c, 1, 95, 117
17, 38764, Control_c, 1, 95, 117
17, 38764, End_track
0, 0, End_of_file
