0, 0, Header, 1, 12, 384
1, 0, Start_track
1, 0, Tempo, 571480
1, 0, Time_signature, 4, 2, 24, 8
1, 4608, Tempo, 833330
1, 6144, Tempo, 571480
1, 145920, End_track
2, 0, Start_track
2, 0, Title_t, "Melody"
2, 0, Control_c, 3, 121, 0
2, 0, Control_c, 3, 11, 127
2, 0, Control_c, 3, 91, 123
2, 0, Control_c, 3, 93, 40
2, 0, Control_c, 3, 1, 0
2, 435, Control_c, 3, 32, 0
2, 438, Program_c, 3, 68
2, 441, Control_c, 3, 7, 127
2, 441, Control_c, 3, 10, 64
2, 3072, Note_on_c, 3, 66, 80
2, 3449, Note_off_c, 3, 66, 0
2, 3456, Note_on_c, 3, 66, 80
2, 3641, Note_off_c, 3, 66, 0
2, 3648, Note_on_c, 3, 66, 80
2, 3833, Note_off_c, 3, 66, 0
2, 3840, Note_on_c, 3, 66, 80
2, 4864, Note_off_c, 3, 66, 0
2, 5184, Note_on_c, 3, 66, 80
2, 5369, Note_off_c, 3, 66, 0
2, 5376, Note_on_c, 3, 66, 80
2, 5561, Note_off_c, 3, 66, 0
2, 5568, Note_on_c, 3, 66, 80
2, 5945, Note_off_c, 3, 66, 0
2, 5952, Note_on_c, 3, 66, 80
2, 6137, Note_off_c, 3, 66, 0
2, 6144, Note_on_c, 3, 66, 80
2, 6329, Note_off_c, 3, 66, 0
2, 6336, Note_on_c, 3, 66, 80
2, 6521, Note_off_c, 3, 66, 0
2, 6528, Note_on_c, 3, 66, 80
2, 7225, Note_off_c, 3, 66, 0
2, 7488, Note_on_c, 3, 66, 80
2, 7760, Note_off_c, 3, 66, 0
2, 7766, Note_on_c, 3, 67, 80
2, 7952, Note_off_c, 3, 67, 0
2, 7958, Note_on_c, 3, 67, 80
2, 8144, Note_off_c, 3, 67, 0
2, 8150, Note_on_c, 3, 66, 80
2, 8416, Note_off_c, 3, 66, 0
2, 8448, Note_on_c, 3, 66, 80
2, 8633, Note_off_c, 3, 66, 0
2, 8640, Note_on_c, 3, 67, 80
2, 8825, Note_off_c, 3, 67, 0
2, 8832, Note_on_c, 3, 67, 80
2, 9017, Note_off_c, 3, 67, 0
2, 9024, Note_on_c, 3, 66, 80
2, 10169, Note_off_c, 3, 66, 0
2, 10560, Note_on_c, 3, 66, 80
2, 10745, Note_off_c, 3, 66, 0
2, 10752, Note_on_c, 3, 66, 80
2, 11193, Note_off_c, 3, 66, 0
2, 11328, Note_on_c, 3, 66, 80
2, 11513, Note_off_c, 3, 66, 0
2, 11520, Note_on_c, 3, 66, 80
2, 11705, Note_off_c, 3, 66, 0
2, 11712, Note_on_c, 3, 66, 80
2, 11897, Note_off_c, 3, 66, 0
2, 11904, Note_on_c, 3, 66, 80
2, 12089, Note_off_c, 3, 66, 0
2, 12096, Note_on_c, 3, 69, 80
2, 12281, Note_off_c, 3, 69, 0
2, 12288, Note_on_c, 3, 69, 80
2, 12905, Note_off_c, 3, 69, 0
2, 13056, Note_on_c, 3, 66, 80
2, 13241, Note_off_c, 3, 66, 0
2, 13248, Note_on_c, 3, 64, 80
2, 13433, Note_off_c, 3, 64, 0
2, 13440, Note_on_c, 3, 62, 80
2, 13625, Note_off_c, 3, 62, 0
2, 13632, Note_on_c, 3, 62, 80
2, 13817, Note_off_c, 3, 62, 0
2, 13824, Note_on_c, 3, 62, 80
2, 14201, Note_off_c, 3, 62, 0
2, 14208, Note_on_c, 3, 64, 80
2, 14480, Note_off_c, 3, 64, 0
2, 14496, Note_on_c, 3, 62, 80
2, 14761, Note_off_c, 3, 62, 0
2, 14784, Note_on_c, 3, 62, 80
2, 15929, Note_off_c, 3, 62, 0
2, 17280, Note_on_c, 3, 59, 127
2, 17408, Note_off_c, 3, 59, 0
2, 17472, Note_on_c, 3, 59, 127
2, 17600, Note_off_c, 3, 59, 0
2, 17664, Note_on_c, 3, 62, 127
2, 17792, Note_off_c, 3, 62, 0
2, 17856, Note_on_c, 3, 62, 127
2, 17984, Note_off_c, 3, 62, 0
2, 18048, Note_on_c, 3, 67, 127
2, 18176, Note_off_c, 3, 67, 0
2, 18240, Note_on_c, 3, 67, 127
2, 18368, Note_off_c, 3, 67, 0
2, 18432, Note_on_c, 3, 71, 127
2, 18560, Note_off_c, 3, 71, 0
2, 18624, Note_on_c, 3, 71, 127
2, 19392, Note_off_c, 3, 71, 0
2, 20352, Note_on_c, 3, 59, 127
2, 20480, Note_off_c, 3, 59, 0
2, 20544, Note_on_c, 3, 59, 127
2, 20672, Note_off_c, 3, 59, 0
2, 20736, Note_on_c, 3, 62, 127
2, 20864, Note_off_c, 3, 62, 0
2, 20928, Note_on_c, 3, 62, 127
2, 21056, Note_off_c, 3, 62, 0
2, 21120, Note_on_c, 3, 67, 127
2, 21248, Note_off_c, 3, 67, 0
2, 21312, Note_on_c, 3, 67, 127
2, 21440, Note_off_c, 3, 67, 0
2, 21504, Note_on_c, 3, 69, 127
2, 22784, Note_off_c, 3, 69, 0
2, 23424, Note_on_c, 3, 60, 127
2, 23552, Note_off_c, 3, 60, 0
2, 23616, Note_on_c, 3, 60, 127
2, 23744, Note_off_c, 3, 60, 0
2, 23808, Note_on_c, 3, 62, 127
2, 23936, Note_off_c, 3, 62, 0
2, 24000, Note_on_c, 3, 62, 127
2, 24128, Note_off_c, 3, 62, 0
2, 24192, Note_on_c, 3, 66, 127
2, 24320, Note_off_c, 3, 66, 0
2, 24384, Note_on_c, 3, 66, 127
2, 24512, Note_off_c, 3, 66, 0
2, 24576, Note_on_c, 3, 69, 127
2, 24704, Note_off_c, 3, 69, 0
2, 24768, Note_on_c, 3, 69, 127
2, 25536, Note_off_c, 3, 69, 0
2, 26496, Note_on_c, 3, 60, 127
2, 26624, Note_off_c, 3, 60, 0
2, 26688, Note_on_c, 3, 60, 127
2, 26816, Note_off_c, 3, 60, 0
2, 26880, Note_on_c, 3, 62, 127
2, 27008, Note_off_c, 3, 62, 0
2, 27072, Note_on_c, 3, 62, 127
2, 27200, Note_off_c, 3, 62, 0
2, 27264, Note_on_c, 3, 66, 127
2, 27392, Note_off_c, 3, 66, 0
2, 27456, Note_on_c, 3, 69, 127
2, 27584, Note_off_c, 3, 69, 0
2, 27648, Note_on_c, 3, 67, 127
2, 28544, Note_off_c, 3, 67, 0
2, 29568, Note_on_c, 3, 59, 127
2, 29696, Note_off_c, 3, 59, 0
2, 29760, Note_on_c, 3, 59, 127
2, 29888, Note_off_c, 3, 59, 0
2, 29952, Note_on_c, 3, 62, 127
2, 30080, Note_off_c, 3, 62, 0
2, 30144, Note_on_c, 3, 62, 127
2, 30272, Note_off_c, 3, 62, 0
2, 30336, Note_on_c, 3, 67, 127
2, 30464, Note_off_c, 3, 67, 0
2, 30528, Note_on_c, 3, 67, 127
2, 30656, Note_off_c, 3, 67, 0
2, 30720, Note_on_c, 3, 71, 127
2, 30848, Note_off_c, 3, 71, 0
2, 30912, Note_on_c, 3, 71, 127
2, 31808, Note_off_c, 3, 71, 0
2, 32640, Note_on_c, 3, 59, 127
2, 32768, Note_off_c, 3, 59, 0
2, 32832, Note_on_c, 3, 59, 127
2, 32960, Note_off_c, 3, 59, 0
2, 33024, Note_on_c, 3, 63, 127
2, 33152, Note_off_c, 3, 63, 0
2, 33216, Note_on_c, 3, 63, 127
2, 33344, Note_off_c, 3, 63, 0
2, 33408, Note_on_c, 3, 69, 127
2, 33536, Note_off_c, 3, 69, 0
2, 33600, Note_on_c, 3, 69, 127
2, 33728, Note_off_c, 3, 69, 0
2, 33792, Note_on_c, 3, 67, 127
2, 35072, Note_off_c, 3, 67, 0
2, 35712, Note_on_c, 3, 60, 127
2, 35840, Note_off_c, 3, 60, 0
2, 35904, Note_on_c, 3, 60, 127
2, 36032, Note_off_c, 3, 60, 0
2, 36096, Note_on_c, 3, 64, 127
2, 36224, Note_off_c, 3, 64, 0
2, 36288, Note_on_c, 3, 64, 127
2, 36416, Note_off_c, 3, 64, 0
2, 36480, Note_on_c, 3, 67, 127
2, 36608, Note_off_c, 3, 67, 0
2, 36672, Note_on_c, 3, 67, 127
2, 36800, Note_off_c, 3, 67, 0
2, 36864, Note_on_c, 3, 71, 127
2, 36992, Note_off_c, 3, 71, 0
2, 37056, Note_on_c, 3, 71, 127
2, 37184, Note_off_c, 3, 71, 0
2, 37248, Note_on_c, 3, 59, 127
2, 37376, Note_off_c, 3, 59, 0
2, 37440, Note_on_c, 3, 59, 127
2, 37568, Note_off_c, 3, 59, 0
2, 37632, Note_on_c, 3, 62, 127
2, 37760, Note_off_c, 3, 62, 0
2, 37824, Note_on_c, 3, 62, 127
2, 37952, Note_off_c, 3, 62, 0
2, 38016, Note_on_c, 3, 67, 127
2, 38144, Note_off_c, 3, 67, 0
2, 38208, Note_on_c, 3, 67, 127
2, 38336, Note_off_c, 3, 67, 0
2, 38400, Note_on_c, 3, 69, 127
2, 38528, Note_off_c, 3, 69, 0
2, 38592, Note_on_c, 3, 69, 127
2, 38720, Note_off_c, 3, 69, 0
2, 38784, Note_on_c, 3, 60, 127
2, 38912, Note_off_c, 3, 60, 0
2, 38976, Note_on_c, 3, 60, 127
2, 39104, Note_off_c, 3, 60, 0
2, 39168, Note_on_c, 3, 62, 127
2, 39296, Note_off_c, 3, 62, 0
2, 39360, Note_on_c, 3, 62, 127
2, 39488, Note_off_c, 3, 62, 0
2, 39552, Note_on_c, 3, 71, 127
2, 39808, Note_off_c, 3, 71, 0
2, 39840, Note_on_c, 3, 69, 127
2, 39897, Note_off_c, 3, 69, 0
2, 39936, Note_on_c, 3, 67, 127
2, 40960, Note_off_c, 3, 67, 0
2, 47616, Note_on_c, 3, 66, 80
2, 47993, Note_off_c, 3, 66, 0
2, 48000, Note_on_c, 3, 66, 80
2, 48185, Note_off_c, 3, 66, 0
2, 48192, Note_on_c, 3, 66, 80
2, 48377, Note_off_c, 3, 66, 0
2, 48384, Note_on_c, 3, 66, 80
2, 49408, Note_off_c, 3, 66, 0
2, 49728, Note_on_c, 3, 66, 80
2, 49913, Note_off_c, 3, 66, 0
2, 49920, Note_on_c, 3, 66, 80
2, 50105, Note_off_c, 3, 66, 0
2, 50112, Note_on_c, 3, 66, 80
2, 50489, Note_off_c, 3, 66, 0
2, 50496, Note_on_c, 3, 66, 80
2, 50681, Note_off_c, 3, 66, 0
2, 50688, Note_on_c, 3, 66, 80
2, 50873, Note_off_c, 3, 66, 0
2, 50880, Note_on_c, 3, 66, 80
2, 51065, Note_off_c, 3, 66, 0
2, 51072, Note_on_c, 3, 66, 80
2, 51769, Note_off_c, 3, 66, 0
2, 52032, Note_on_c, 3, 66, 80
2, 52304, Note_off_c, 3, 66, 0
2, 52310, Note_on_c, 3, 67, 80
2, 52496, Note_off_c, 3, 67, 0
2, 52502, Note_on_c, 3, 67, 80
2, 52688, Note_off_c, 3, 67, 0
2, 52694, Note_on_c, 3, 66, 80
2, 52960, Note_off_c, 3, 66, 0
2, 52992, Note_on_c, 3, 66, 80
2, 53177, Note_off_c, 3, 66, 0
2, 53184, Note_on_c, 3, 67, 80
2, 53369, Note_off_c, 3, 67, 0
2, 53376, Note_on_c, 3, 67, 80
2, 53561, Note_off_c, 3, 67, 0
2, 53568, Note_on_c, 3, 66, 80
2, 54713, Note_off_c, 3, 66, 0
2, 55104, Note_on_c, 3, 66, 80
2, 55289, Note_off_c, 3, 66, 0
2, 55296, Note_on_c, 3, 66, 80
2, 55737, Note_off_c, 3, 66, 0
2, 55872, Note_on_c, 3, 66, 80
2, 56057, Note_off_c, 3, 66, 0
2, 56064, Note_on_c, 3, 66, 80
2, 56249, Note_off_c, 3, 66, 0
2, 56256, Note_on_c, 3, 66, 80
2, 56441, Note_off_c, 3, 66, 0
2, 56448, Note_on_c, 3, 66, 80
2, 56633, Note_off_c, 3, 66, 0
2, 56640, Note_on_c, 3, 69, 80
2, 56825, Note_off_c, 3, 69, 0
2, 56832, Note_on_c, 3, 69, 80
2, 57449, Note_off_c, 3, 69, 0
2, 57600, Note_on_c, 3, 66, 80
2, 57785, Note_off_c, 3, 66, 0
2, 57792, Note_on_c, 3, 64, 80
2, 57977, Note_off_c, 3, 64, 0
2, 57984, Note_on_c, 3, 62, 80
2, 58169, Note_off_c, 3, 62, 0
2, 58176, Note_on_c, 3, 62, 80
2, 58361, Note_off_c, 3, 62, 0
2, 58368, Note_on_c, 3, 62, 80
2, 58745, Note_off_c, 3, 62, 0
2, 58752, Note_on_c, 3, 64, 80
2, 59024, Note_off_c, 3, 64, 0
2, 59040, Note_on_c, 3, 62, 80
2, 59305, Note_off_c, 3, 62, 0
2, 59328, Note_on_c, 3, 62, 80
2, 60473, Note_off_c, 3, 62, 0
2, 61824, Note_on_c, 3, 59, 127
2, 61952, Note_off_c, 3, 59, 0
2, 62016, Note_on_c, 3, 59, 127
2, 62144, Note_off_c, 3, 59, 0
2, 62208, Note_on_c, 3, 62, 127
2, 62336, Note_off_c, 3, 62, 0
2, 62400, Note_on_c, 3, 62, 127
2, 62528, Note_off_c, 3, 62, 0
2, 62592, Note_on_c, 3, 67, 127
2, 62720, Note_off_c, 3, 67, 0
2, 62784, Note_on_c, 3, 67, 127
2, 62912, Note_off_c, 3, 67, 0
2, 62976, Note_on_c, 3, 71, 127
2, 63104, Note_off_c, 3, 71, 0
2, 63168, Note_on_c, 3, 71, 127
2, 64064, Note_off_c, 3, 71, 0
2, 64896, Note_on_c, 3, 59, 127
2, 65024, Note_off_c, 3, 59, 0
2, 65088, Note_on_c, 3, 59, 127
2, 65216, Note_off_c, 3, 59, 0
2, 65280, Note_on_c, 3, 62, 127
2, 65408, Note_off_c, 3, 62, 0
2, 65472, Note_on_c, 3, 62, 127
2, 65600, Note_off_c, 3, 62, 0
2, 65664, Note_on_c, 3, 67, 127
2, 65792, Note_off_c, 3, 67, 0
2, 65856, Note_on_c, 3, 67, 127
2, 65984, Note_off_c, 3, 67, 0
2, 66048, Note_on_c, 3, 69, 127
2, 67328, Note_off_c, 3, 69, 0
2, 67968, Note_on_c, 3, 60, 127
2, 68096, Note_off_c, 3, 60, 0
2, 68160, Note_on_c, 3, 60, 127
2, 68288, Note_off_c, 3, 60, 0
2, 68352, Note_on_c, 3, 62, 127
2, 68480, Note_off_c, 3, 62, 0
2, 68544, Note_on_c, 3, 62, 127
2, 68672, Note_off_c, 3, 62, 0
2, 68736, Note_on_c, 3, 66, 127
2, 68864, Note_off_c, 3, 66, 0
2, 68928, Note_on_c, 3, 66, 127
2, 69056, Note_off_c, 3, 66, 0
2, 69120, Note_on_c, 3, 69, 127
2, 69248, Note_off_c, 3, 69, 0
2, 69312, Note_on_c, 3, 69, 127
2, 70208, Note_off_c, 3, 69, 0
2, 71040, Note_on_c, 3, 60, 127
2, 71168, Note_off_c, 3, 60, 0
2, 71232, Note_on_c, 3, 60, 127
2, 71360, Note_off_c, 3, 60, 0
2, 71424, Note_on_c, 3, 62, 127
2, 71552, Note_off_c, 3, 62, 0
2, 71616, Note_on_c, 3, 62, 127
2, 71744, Note_off_c, 3, 62, 0
2, 71808, Note_on_c, 3, 66, 127
2, 71936, Note_off_c, 3, 66, 0
2, 72000, Note_on_c, 3, 69, 127
2, 72128, Note_off_c, 3, 69, 0
2, 72192, Note_on_c, 3, 67, 127
2, 73088, Note_off_c, 3, 67, 0
2, 74112, Note_on_c, 3, 59, 127
2, 74240, Note_off_c, 3, 59, 0
2, 74304, Note_on_c, 3, 59, 127
2, 74432, Note_off_c, 3, 59, 0
2, 74496, Note_on_c, 3, 62, 127
2, 74624, Note_off_c, 3, 62, 0
2, 74688, Note_on_c, 3, 62, 127
2, 74816, Note_off_c, 3, 62, 0
2, 74880, Note_on_c, 3, 67, 127
2, 75008, Note_off_c, 3, 67, 0
2, 75072, Note_on_c, 3, 67, 127
2, 75200, Note_off_c, 3, 67, 0
2, 75264, Note_on_c, 3, 71, 127
2, 75392, Note_off_c, 3, 71, 0
2, 75456, Note_on_c, 3, 71, 127
2, 76352, Note_off_c, 3, 71, 0
2, 77184, Note_on_c, 3, 59, 127
2, 77312, Note_off_c, 3, 59, 0
2, 77376, Note_on_c, 3, 59, 127
2, 77504, Note_off_c, 3, 59, 0
2, 77568, Note_on_c, 3, 63, 127
2, 77696, Note_off_c, 3, 63, 0
2, 77760, Note_on_c, 3, 63, 127
2, 77888, Note_off_c, 3, 63, 0
2, 77952, Note_on_c, 3, 69, 127
2, 78080, Note_off_c, 3, 69, 0
2, 78144, Note_on_c, 3, 69, 127
2, 78272, Note_off_c, 3, 69, 0
2, 78336, Note_on_c, 3, 67, 127
2, 79232, Note_off_c, 3, 67, 0
2, 80256, Note_on_c, 3, 60, 127
2, 80384, Note_off_c, 3, 60, 0
2, 80448, Note_on_c, 3, 60, 127
2, 80576, Note_off_c, 3, 60, 0
2, 80640, Note_on_c, 3, 64, 127
2, 80768, Note_off_c, 3, 64, 0
2, 80832, Note_on_c, 3, 64, 127
2, 80960, Note_off_c, 3, 64, 0
2, 81024, Note_on_c, 3, 67, 127
2, 81152, Note_off_c, 3, 67, 0
2, 81216, Note_on_c, 3, 67, 127
2, 81344, Note_off_c, 3, 67, 0
2, 81408, Note_on_c, 3, 71, 127
2, 81536, Note_off_c, 3, 71, 0
2, 81600, Note_on_c, 3, 71, 127
2, 81728, Note_off_c, 3, 71, 0
2, 81792, Note_on_c, 3, 59, 127
2, 81920, Note_off_c, 3, 59, 0
2, 81984, Note_on_c, 3, 59, 127
2, 82112, Note_off_c, 3, 59, 0
2, 82176, Note_on_c, 3, 62, 127
2, 82304, Note_off_c, 3, 62, 0
2, 82368, Note_on_c, 3, 62, 127
2, 82496, Note_off_c, 3, 62, 0
2, 82560, Note_on_c, 3, 67, 127
2, 82688, Note_off_c, 3, 67, 0
2, 82752, Note_on_c, 3, 67, 127
2, 82880, Note_off_c, 3, 67, 0
2, 82944, Note_on_c, 3, 69, 127
2, 83072, Note_off_c, 3, 69, 0
2, 83136, Note_on_c, 3, 69, 127
2, 83264, Note_off_c, 3, 69, 0
2, 83328, Note_on_c, 3, 60, 127
2, 83456, Note_off_c, 3, 60, 0
2, 83520, Note_on_c, 3, 60, 127
2, 83648, Note_off_c, 3, 60, 0
2, 83712, Note_on_c, 3, 62, 127
2, 83840, Note_off_c, 3, 62, 0
2, 83904, Note_on_c, 3, 62, 127
2, 84032, Note_off_c, 3, 62, 0
2, 84096, Note_on_c, 3, 71, 127
2, 84352, Note_off_c, 3, 71, 0
2, 84384, Note_on_c, 3, 69, 127
2, 84441, Note_off_c, 3, 69, 0
2, 84480, Note_on_c, 3, 67, 127
2, 85504, Note_off_c, 3, 67, 0
2, 92160, Note_on_c, 3, 66, 80
2, 92537, Note_off_c, 3, 66, 0
2, 92544, Note_on_c, 3, 66, 80
2, 92729, Note_off_c, 3, 66, 0
2, 92736, Note_on_c, 3, 66, 80
2, 92921, Note_off_c, 3, 66, 0
2, 92928, Note_on_c, 3, 66, 80
2, 93952, Note_off_c, 3, 66, 0
2, 94272, Note_on_c, 3, 66, 80
2, 94457, Note_off_c, 3, 66, 0
2, 94464, Note_on_c, 3, 66, 80
2, 94649, Note_off_c, 3, 66, 0
2, 94656, Note_on_c, 3, 66, 80
2, 95033, Note_off_c, 3, 66, 0
2, 95040, Note_on_c, 3, 66, 80
2, 95225, Note_off_c, 3, 66, 0
2, 95232, Note_on_c, 3, 66, 80
2, 95417, Note_off_c, 3, 66, 0
2, 95424, Note_on_c, 3, 66, 80
2, 95609, Note_off_c, 3, 66, 0
2, 95616, Note_on_c, 3, 66, 80
2, 96313, Note_off_c, 3, 66, 0
2, 96576, Note_on_c, 3, 66, 80
2, 96848, Note_off_c, 3, 66, 0
2, 96854, Note_on_c, 3, 67, 80
2, 97040, Note_off_c, 3, 67, 0
2, 97046, Note_on_c, 3, 67, 80
2, 97232, Note_off_c, 3, 67, 0
2, 97238, Note_on_c, 3, 66, 80
2, 97504, Note_off_c, 3, 66, 0
2, 97536, Note_on_c, 3, 66, 80
2, 97721, Note_off_c, 3, 66, 0
2, 97728, Note_on_c, 3, 67, 80
2, 97913, Note_off_c, 3, 67, 0
2, 97920, Note_on_c, 3, 67, 80
2, 98105, Note_off_c, 3, 67, 0
2, 98112, Note_on_c, 3, 66, 80
2, 99257, Note_off_c, 3, 66, 0
2, 99648, Note_on_c, 3, 66, 80
2, 99833, Note_off_c, 3, 66, 0
2, 99840, Note_on_c, 3, 66, 80
2, 100281, Note_off_c, 3, 66, 0
2, 100416, Note_on_c, 3, 66, 80
2, 100601, Note_off_c, 3, 66, 0
2, 100608, Note_on_c, 3, 66, 80
2, 100793, Note_off_c, 3, 66, 0
2, 100800, Note_on_c, 3, 66, 80
2, 100985, Note_off_c, 3, 66, 0
2, 100992, Note_on_c, 3, 66, 80
2, 101177, Note_off_c, 3, 66, 0
2, 101184, Note_on_c, 3, 69, 80
2, 101369, Note_off_c, 3, 69, 0
2, 101376, Note_on_c, 3, 69, 80
2, 101993, Note_off_c, 3, 69, 0
2, 102144, Note_on_c, 3, 66, 80
2, 102329, Note_off_c, 3, 66, 0
2, 102336, Note_on_c, 3, 64, 80
2, 102521, Note_off_c, 3, 64, 0
2, 102528, Note_on_c, 3, 62, 80
2, 102713, Note_off_c, 3, 62, 0
2, 102720, Note_on_c, 3, 62, 80
2, 102905, Note_off_c, 3, 62, 0
2, 102912, Note_on_c, 3, 62, 80
2, 103289, Note_off_c, 3, 62, 0
2, 103296, Note_on_c, 3, 64, 80
2, 103568, Note_off_c, 3, 64, 0
2, 103584, Note_on_c, 3, 62, 80
2, 103849, Note_off_c, 3, 62, 0
2, 103872, Note_on_c, 3, 62, 80
2, 105017, Note_off_c, 3, 62, 0
2, 106368, Note_on_c, 3, 59, 127
2, 106496, Note_off_c, 3, 59, 0
2, 106560, Note_on_c, 3, 59, 127
2, 106688, Note_off_c, 3, 59, 0
2, 106752, Note_on_c, 3, 62, 127
2, 106880, Note_off_c, 3, 62, 0
2, 106944, Note_on_c, 3, 62, 127
2, 107072, Note_off_c, 3, 62, 0
2, 107136, Note_on_c, 3, 67, 127
2, 107264, Note_off_c, 3, 67, 0
2, 107328, Note_on_c, 3, 67, 127
2, 107456, Note_off_c, 3, 67, 0
2, 107520, Note_on_c, 3, 71, 127
2, 107648, Note_off_c, 3, 71, 0
2, 107712, Note_on_c, 3, 71, 127
2, 108608, Note_off_c, 3, 71, 0
2, 109440, Note_on_c, 3, 59, 127
2, 109568, Note_off_c, 3, 59, 0
2, 109632, Note_on_c, 3, 59, 127
2, 109760, Note_off_c, 3, 59, 0
2, 109824, Note_on_c, 3, 62, 127
2, 109952, Note_off_c, 3, 62, 0
2, 110016, Note_on_c, 3, 62, 127
2, 110144, Note_off_c, 3, 62, 0
2, 110208, Note_on_c, 3, 67, 127
2, 110336, Note_off_c, 3, 67, 0
2, 110400, Note_on_c, 3, 67, 127
2, 110528, Note_off_c, 3, 67, 0
2, 110592, Note_on_c, 3, 69, 127
2, 111488, Note_off_c, 3, 69, 0
2, 112512, Note_on_c, 3, 60, 127
2, 112640, Note_off_c, 3, 60, 0
2, 112704, Note_on_c, 3, 60, 127
2, 112832, Note_off_c, 3, 60, 0
2, 112896, Note_on_c, 3, 62, 127
2, 113024, Note_off_c, 3, 62, 0
2, 113088, Note_on_c, 3, 62, 127
2, 113216, Note_off_c, 3, 62, 0
2, 113280, Note_on_c, 3, 66, 127
2, 113408, Note_off_c, 3, 66, 0
2, 113472, Note_on_c, 3, 66, 127
2, 113600, Note_off_c, 3, 66, 0
2, 113664, Note_on_c, 3, 69, 127
2, 113792, Note_off_c, 3, 69, 0
2, 113856, Note_on_c, 3, 69, 127
2, 114752, Note_off_c, 3, 69, 0
2, 115584, Note_on_c, 3, 60, 127
2, 115712, Note_off_c, 3, 60, 0
2, 115776, Note_on_c, 3, 60, 127
2, 115904, Note_off_c, 3, 60, 0
2, 115968, Note_on_c, 3, 62, 127
2, 116096, Note_off_c, 3, 62, 0
2, 116160, Note_on_c, 3, 62, 127
2, 116288, Note_off_c, 3, 62, 0
2, 116352, Note_on_c, 3, 66, 127
2, 116480, Note_off_c, 3, 66, 0
2, 116544, Note_on_c, 3, 69, 127
2, 116672, Note_off_c, 3, 69, 0
2, 116736, Note_on_c, 3, 67, 127
2, 117632, Note_off_c, 3, 67, 0
2, 118656, Note_on_c, 3, 59, 127
2, 118784, Note_off_c, 3, 59, 0
2, 118848, Note_on_c, 3, 59, 127
2, 118976, Note_off_c, 3, 59, 0
2, 119040, Note_on_c, 3, 62, 127
2, 119168, Note_off_c, 3, 62, 0
2, 119232, Note_on_c, 3, 62, 127
2, 119360, Note_off_c, 3, 62, 0
2, 119424, Note_on_c, 3, 67, 127
2, 119552, Note_off_c, 3, 67, 0
2, 119616, Note_on_c, 3, 67, 127
2, 119744, Note_off_c, 3, 67, 0
2, 119808, Note_on_c, 3, 71, 127
2, 119936, Note_off_c, 3, 71, 0
2, 120000, Note_on_c, 3, 71, 127
2, 120896, Note_off_c, 3, 71, 0
2, 121728, Note_on_c, 3, 59, 127
2, 121856, Note_off_c, 3, 59, 0
2, 121920, Note_on_c, 3, 59, 127
2, 122048, Note_off_c, 3, 59, 0
2, 122112, Note_on_c, 3, 63, 127
2, 122240, Note_off_c, 3, 63, 0
2, 122304, Note_on_c, 3, 63, 127
2, 122432, Note_off_c, 3, 63, 0
2, 122496, Note_on_c, 3, 69, 127
2, 122624, Note_off_c, 3, 69, 0
2, 122688, Note_on_c, 3, 69, 127
2, 122816, Note_off_c, 3, 69, 0
2, 122880, Note_on_c, 3, 67, 127
2, 123776, Note_off_c, 3, 67, 0
2, 124800, Note_on_c, 3, 60, 127
2, 124928, Note_off_c, 3, 60, 0
2, 124992, Note_on_c, 3, 60, 127
2, 125120, Note_off_c, 3, 60, 0
2, 125184, Note_on_c, 3, 64, 127
2, 125312, Note_off_c, 3, 64, 0
2, 125376, Note_on_c, 3, 64, 127
2, 125504, Note_off_c, 3, 64, 0
2, 125568, Note_on_c, 3, 67, 127
2, 125696, Note_off_c, 3, 67, 0
2, 125760, Note_on_c, 3, 67, 127
2, 125888, Note_off_c, 3, 67, 0
2, 125952, Note_on_c, 3, 71, 127
2, 126080, Note_off_c, 3, 71, 0
2, 126144, Note_on_c, 3, 71, 127
2, 126272, Note_off_c, 3, 71, 0
2, 126336, Note_on_c, 3, 59, 127
2, 126464, Note_off_c, 3, 59, 0
2, 126528, Note_on_c, 3, 59, 127
2, 126656, Note_off_c, 3, 59, 0
2, 126720, Note_on_c, 3, 62, 127
2, 126848, Note_off_c, 3, 62, 0
2, 126912, Note_on_c, 3, 62, 127
2, 127040, Note_off_c, 3, 62, 0
2, 127104, Note_on_c, 3, 67, 127
2, 127232, Note_off_c, 3, 67, 0
2, 127296, Note_on_c, 3, 67, 127
2, 127424, Note_off_c, 3, 67, 0
2, 127488, Note_on_c, 3, 69, 127
2, 127616, Note_off_c, 3, 69, 0
2, 127680, Note_on_c, 3, 69, 127
2, 127808, Note_off_c, 3, 69, 0
2, 127872, Note_on_c, 3, 60, 127
2, 128000, Note_off_c, 3, 60, 0
2, 128064, Note_on_c, 3, 60, 127
2, 128192, Note_off_c, 3, 60, 0
2, 128256, Note_on_c, 3, 62, 127
2, 128384, Note_off_c, 3, 62, 0
2, 128448, Note_on_c, 3, 62, 127
2, 128576, Note_off_c, 3, 62, 0
2, 128640, Note_on_c, 3, 71, 127
2, 128896, Note_off_c, 3, 71, 0
2, 128928, Note_on_c, 3, 69, 127
2, 128985, Note_off_c, 3, 69, 0
2, 129024, Note_on_c, 3, 67, 127
2, 130048, Note_off_c, 3, 67, 0
2, 130560, End_track
3, 0, Start_track
3, 0, Title_t, "dudu"
3, 0, Control_c, 5, 121, 0
3, 0, Control_c, 5, 11, 127
3, 0, Control_c, 5, 91, 123
3, 0, Control_c, 5, 93, 127
3, 0, Control_c, 5, 1, 40
3, 464, Control_c, 5, 0, 0
3, 467, Control_c, 5, 32, 0
3, 470, Program_c, 5, 48
3, 473, Control_c, 5, 7, 100
3, 473, Control_c, 5, 10, 81
3, 15744, Note_on_c, 5, 59, 100
3, 15744, Note_on_c, 5, 50, 120
3, 16121, Note_off_c, 5, 50, 0
3, 16121, Note_off_c, 5, 59, 0
3, 16128, Note_on_c, 5, 60, 100
3, 16128, Note_on_c, 5, 52, 120
3, 16505, Note_off_c, 5, 52, 0
3, 16505, Note_off_c, 5, 60, 0
3, 16512, Note_on_c, 5, 60, 100
3, 16512, Note_on_c, 5, 54, 120
3, 16889, Note_off_c, 5, 54, 0
3, 16889, Note_off_c, 5, 60, 0
3, 16896, Note_on_c, 5, 50, 100
3, 16896, Note_on_c, 5, 55, 100
3, 18233, Note_off_c, 5, 55, 0
3, 18233, Note_off_c, 5, 50, 0
3, 18432, Note_on_c, 5, 55, 100
3, 18432, Note_on_c, 5, 50, 100
3, 19769, Note_off_c, 5, 50, 0
3, 19769, Note_off_c, 5, 55, 0
3, 19968, Note_on_c, 5, 50, 100
3, 19968, Note_on_c, 5, 55, 100
3, 21305, Note_off_c, 5, 55, 0
3, 21305, Note_off_c, 5, 50, 0
3, 21504, Note_on_c, 5, 57, 100
3, 21504, Note_on_c, 5, 54, 100
3, 22841, Note_off_c, 5, 54, 0
3, 22841, Note_off_c, 5, 57, 0
3, 23040, Note_on_c, 5, 54, 100
3, 23040, Note_on_c, 5, 57, 100
3, 24377, Note_off_c, 5, 57, 0
3, 24377, Note_off_c, 5, 54, 0
3, 24576, Note_on_c, 5, 57, 100
3, 24576, Note_on_c, 5, 54, 100
3, 25913, Note_off_c, 5, 54, 0
3, 25913, Note_off_c, 5, 57, 0
3, 26112, Note_on_c, 5, 57, 100
3, 26112, Note_on_c, 5, 54, 100
3, 27449, Note_off_c, 5, 54, 0
3, 27449, Note_off_c, 5, 57, 0
3, 27648, Note_on_c, 5, 50, 100
3, 27648, Note_on_c, 5, 55, 100
3, 28985, Note_off_c, 5, 55, 0
3, 28985, Note_off_c, 5, 50, 0
3, 29184, Note_on_c, 5, 55, 100
3, 29184, Note_on_c, 5, 50, 100
3, 30521, Note_off_c, 5, 50, 0
3, 30521, Note_off_c, 5, 55, 0
3, 30720, Note_on_c, 5, 50, 100
3, 30720, Note_on_c, 5, 55, 100
3, 32057, Note_off_c, 5, 55, 0
3, 32057, Note_off_c, 5, 50, 0
3, 32256, Note_on_c, 5, 54, 100
3, 32256, Note_on_c, 5, 59, 100
3, 33593, Note_off_c, 5, 59, 0
3, 33593, Note_off_c, 5, 54, 0
3, 33792, Note_on_c, 5, 52, 100
3, 33792, Note_on_c, 5, 55, 100
3, 35129, Note_off_c, 5, 55, 0
3, 35129, Note_off_c, 5, 52, 0
3, 35328, Note_on_c, 5, 55, 100
3, 35328, Note_on_c, 5, 48, 100
3, 36665, Note_off_c, 5, 48, 0
3, 36665, Note_off_c, 5, 55, 0
3, 36864, Note_on_c, 5, 50, 100
3, 36864, Note_on_c, 5, 55, 100
3, 38201, Note_off_c, 5, 55, 0
3, 38201, Note_off_c, 5, 50, 0
3, 38400, Note_on_c, 5, 54, 100
3, 38400, Note_on_c, 5, 50, 100
3, 39737, Note_off_c, 5, 50, 0
3, 39737, Note_off_c, 5, 54, 0
3, 39936, Note_on_c, 5, 50, 100
3, 39936, Note_on_c, 5, 55, 100
3, 41273, Note_off_c, 5, 55, 0
3, 41273, Note_off_c, 5, 50, 0
3, 60288, Note_on_c, 5, 59, 90
3, 60288, Note_on_c, 5, 50, 90
3, 60665, Note_off_c, 5, 50, 0
3, 60665, Note_off_c, 5, 59, 0
3, 60672, Note_on_c, 5, 60, 90
3, 60672, Note_on_c, 5, 52, 90
3, 61049, Note_off_c, 5, 52, 0
3, 61049, Note_off_c, 5, 60, 0
3, 61056, Note_on_c, 5, 60, 90
3, 61056, Note_on_c, 5, 54, 90
3, 61433, Note_off_c, 5, 54, 0
3, 61433, Note_off_c, 5, 60, 0
3, 61440, Note_on_c, 5, 50, 100
3, 61440, Note_on_c, 5, 55, 100
3, 62777, Note_off_c, 5, 55, 0
3, 62777, Note_off_c, 5, 50, 0
3, 62976, Note_on_c, 5, 55, 100
3, 62976, Note_on_c, 5, 50, 100
3, 64313, Note_off_c, 5, 50, 0
3, 64313, Note_off_c, 5, 55, 0
3, 64512, Note_on_c, 5, 50, 100
3, 64512, Note_on_c, 5, 55, 100
3, 65849, Note_off_c, 5, 55, 0
3, 65849, Note_off_c, 5, 50, 0
3, 66048, Note_on_c, 5, 57, 100
3, 66048, Note_on_c, 5, 54, 100
3, 67385, Note_off_c, 5, 54, 0
3, 67385, Note_off_c, 5, 57, 0
3, 67584, Note_on_c, 5, 54, 100
3, 67584, Note_on_c, 5, 57, 100
3, 68921, Note_off_c, 5, 57, 0
3, 68921, Note_off_c, 5, 54, 0
3, 69120, Note_on_c, 5, 57, 100
3, 69120, Note_on_c, 5, 54, 100
3, 70457, Note_off_c, 5, 54, 0
3, 70457, Note_off_c, 5, 57, 0
3, 70656, Note_on_c, 5, 54, 100
3, 70656, Note_on_c, 5, 57, 100
3, 71993, Note_off_c, 5, 57, 0
3, 71993, Note_off_c, 5, 54, 0
3, 72192, Note_on_c, 5, 50, 100
3, 72192, Note_on_c, 5, 55, 100
3, 73529, Note_off_c, 5, 55, 0
3, 73529, Note_off_c, 5, 50, 0
3, 73728, Note_on_c, 5, 50, 100
3, 73728, Note_on_c, 5, 55, 100
3, 75065, Note_off_c, 5, 55, 0
3, 75065, Note_off_c, 5, 50, 0
3, 75264, Note_on_c, 5, 50, 100
3, 75264, Note_on_c, 5, 55, 100
3, 76601, Note_off_c, 5, 55, 0
3, 76601, Note_off_c, 5, 50, 0
3, 76800, Note_on_c, 5, 54, 100
3, 76800, Note_on_c, 5, 59, 100
3, 78137, Note_off_c, 5, 59, 0
3, 78137, Note_off_c, 5, 54, 0
3, 78336, Note_on_c, 5, 52, 100
3, 78336, Note_on_c, 5, 55, 100
3, 79673, Note_off_c, 5, 55, 0
3, 79673, Note_off_c, 5, 52, 0
3, 79872, Note_on_c, 5, 55, 100
3, 79872, Note_on_c, 5, 48, 100
3, 81209, Note_off_c, 5, 48, 0
3, 81209, Note_off_c, 5, 55, 0
3, 81408, Note_on_c, 5, 50, 100
3, 81408, Note_on_c, 5, 55, 100
3, 82745, Note_off_c, 5, 55, 0
3, 82745, Note_off_c, 5, 50, 0
3, 82944, Note_on_c, 5, 54, 100
3, 82944, Note_on_c, 5, 50, 100
3, 84281, Note_off_c, 5, 50, 0
3, 84281, Note_off_c, 5, 54, 0
3, 84480, Note_on_c, 5, 50, 100
3, 84480, Note_on_c, 5, 55, 100
3, 85817, Note_off_c, 5, 55, 0
3, 85817, Note_off_c, 5, 50, 0
3, 104832, Note_on_c, 5, 59, 100
3, 104832, Note_on_c, 5, 50, 120
3, 105209, Note_off_c, 5, 50, 0
3, 105209, Note_off_c, 5, 59, 0
3, 105216, Note_on_c, 5, 60, 100
3, 105216, Note_on_c, 5, 52, 120
3, 105593, Note_off_c, 5, 52, 0
3, 105593, Note_off_c, 5, 60, 0
3, 105600, Note_on_c, 5, 60, 100
3, 105600, Note_on_c, 5, 54, 120
3, 105977, Note_off_c, 5, 54, 0
3, 105977, Note_off_c, 5, 60, 0
3, 105984, Note_on_c, 5, 50, 100
3, 105984, Note_on_c, 5, 55, 100
3, 107321, Note_off_c, 5, 55, 0
3, 107321, Note_off_c, 5, 50, 0
3, 107520, Note_on_c, 5, 55, 100
3, 107520, Note_on_c, 5, 50, 100
3, 108857, Note_off_c, 5, 50, 0
3, 108857, Note_off_c, 5, 55, 0
3, 109056, Note_on_c, 5, 50, 100
3, 109056, Note_on_c, 5, 55, 100
3, 110393, Note_off_c, 5, 55, 0
3, 110393, Note_off_c, 5, 50, 0
3, 110592, Note_on_c, 5, 57, 100
3, 110592, Note_on_c, 5, 54, 100
3, 111929, Note_off_c, 5, 54, 0
3, 111929, Note_off_c, 5, 57, 0
3, 112128, Note_on_c, 5, 54, 100
3, 112128, Note_on_c, 5, 57, 100
3, 113465, Note_off_c, 5, 57, 0
3, 113465, Note_off_c, 5, 54, 0
3, 113664, Note_on_c, 5, 57, 100
3, 113664, Note_on_c, 5, 54, 100
3, 115001, Note_off_c, 5, 54, 0
3, 115001, Note_off_c, 5, 57, 0
3, 115200, Note_on_c, 5, 54, 100
3, 115200, Note_on_c, 5, 57, 100
3, 116537, Note_off_c, 5, 57, 0
3, 116537, Note_off_c, 5, 54, 0
3, 116736, Note_on_c, 5, 50, 100
3, 116736, Note_on_c, 5, 55, 100
3, 118073, Note_off_c, 5, 55, 0
3, 118073, Note_off_c, 5, 50, 0
3, 118272, Note_on_c, 5, 50, 100
3, 118272, Note_on_c, 5, 55, 100
3, 119609, Note_off_c, 5, 55, 0
3, 119609, Note_off_c, 5, 50, 0
3, 119808, Note_on_c, 5, 50, 100
3, 119808, Note_on_c, 5, 55, 100
3, 121145, Note_off_c, 5, 55, 0
3, 121145, Note_off_c, 5, 50, 0
3, 121344, Note_on_c, 5, 54, 100
3, 121344, Note_on_c, 5, 59, 100
3, 122681, Note_off_c, 5, 59, 0
3, 122681, Note_off_c, 5, 54, 0
3, 122880, Note_on_c, 5, 52, 100
3, 122880, Note_on_c, 5, 55, 100
3, 124217, Note_off_c, 5, 55, 0
3, 124217, Note_off_c, 5, 52, 0
3, 124416, Note_on_c, 5, 55, 100
3, 124416, Note_on_c, 5, 48, 100
3, 125753, Note_off_c, 5, 48, 0
3, 125753, Note_off_c, 5, 55, 0
3, 125952, Note_on_c, 5, 50, 100
3, 125952, Note_on_c, 5, 55, 100
3, 127289, Note_off_c, 5, 55, 0
3, 127289, Note_off_c, 5, 50, 0
3, 127488, Note_on_c, 5, 54, 100
3, 127488, Note_on_c, 5, 50, 100
3, 128825, Note_off_c, 5, 50, 0
3, 128825, Note_off_c, 5, 54, 0
3, 129024, Note_on_c, 5, 50, 100
3, 129024, Note_on_c, 5, 55, 100
3, 130361, Note_off_c, 5, 55, 0
3, 130361, Note_off_c, 5, 50, 0
3, 130560, End_track
4, 0, Start_track
4, 0, Title_t, "choir"
4, 0, Control_c, 6, 121, 0
4, 0, Control_c, 6, 11, 127
4, 0, Control_c, 6, 91, 103
4, 0, Control_c, 6, 93, 70
4, 0, Control_c, 6, 1, 0
4, 480, Control_c, 6, 0, 0
4, 483, Control_c, 6, 32, 0
4, 486, Program_c, 6, 48
4, 489, Control_c, 6, 7, 84
4, 489, Control_c, 6, 10, 110
4, 16896, Note_on_c, 6, 62, 100
4, 16896, Note_on_c, 6, 67, 100
4, 16896, Note_on_c, 6, 71, 100
4, 21497, Note_off_c, 6, 71, 0
4, 21497, Note_off_c, 6, 67, 0
4, 21497, Note_off_c, 6, 62, 0
4, 21504, Note_on_c, 6, 69, 100
4, 21504, Note_on_c, 6, 66, 100
4, 21504, Note_on_c, 6, 62, 100
4, 27641, Note_off_c, 6, 62, 0
4, 27641, Note_off_c, 6, 66, 0
4, 27641, Note_off_c, 6, 69, 0
4, 27648, Note_on_c, 6, 59, 100
4, 27648, Note_on_c, 6, 62, 100
4, 27648, Note_on_c, 6, 67, 100
4, 29177, Note_off_c, 6, 67, 0
4, 29177, Note_off_c, 6, 62, 0
4, 29177, Note_off_c, 6, 59, 0
4, 29184, Note_on_c, 6, 71, 100
4, 29184, Note_on_c, 6, 67, 100
4, 29184, Note_on_c, 6, 62, 100
4, 32249, Note_off_c, 6, 62, 0
4, 32249, Note_off_c, 6, 67, 0
4, 32249, Note_off_c, 6, 71, 0
4, 32256, Note_on_c, 6, 63, 100
4, 32256, Note_on_c, 6, 66, 100
4, 32256, Note_on_c, 6, 71, 100
4, 33785, Note_off_c, 6, 71, 0
4, 33785, Note_off_c, 6, 66, 0
4, 33785, Note_off_c, 6, 63, 0
4, 33792, Note_on_c, 6, 64, 100
4, 33792, Note_on_c, 6, 67, 100
4, 33792, Note_on_c, 6, 71, 100
4, 35321, Note_off_c, 6, 71, 0
4, 35321, Note_off_c, 6, 67, 0
4, 35321, Note_off_c, 6, 64, 0
4, 35328, Note_on_c, 6, 60, 100
4, 35328, Note_on_c, 6, 64, 100
4, 35328, Note_on_c, 6, 67, 100
4, 36857, Note_off_c, 6, 67, 0
4, 36857, Note_off_c, 6, 64, 0
4, 36857, Note_off_c, 6, 60, 0
4, 36864, Note_on_c, 6, 59, 100
4, 36864, Note_on_c, 6, 62, 100
4, 36864, Note_on_c, 6, 67, 100
4, 38393, Note_off_c, 6, 67, 0
4, 38393, Note_off_c, 6, 62, 0
4, 38393, Note_off_c, 6, 59, 0
4, 38400, Note_on_c, 6, 57, 100
4, 38400, Note_on_c, 6, 62, 100
4, 38400, Note_on_c, 6, 66, 100
4, 39929, Note_off_c, 6, 66, 0
4, 39929, Note_off_c, 6, 62, 0
4, 39929, Note_off_c, 6, 57, 0
4, 39936, Note_on_c, 6, 59, 100
4, 39936, Note_on_c, 6, 62, 100
4, 39936, Note_on_c, 6, 67, 100
4, 41081, Note_off_c, 6, 67, 0
4, 41081, Note_off_c, 6, 62, 0
4, 41081, Note_off_c, 6, 59, 0
4, 41472, Note_on_c, 6, 60, 100
4, 41472, Note_on_c, 6, 64, 100
4, 41472, Note_on_c, 6, 67, 100
4, 43001, Note_off_c, 6, 67, 0
4, 43001, Note_off_c, 6, 64, 0
4, 43001, Note_off_c, 6, 60, 0
4, 43008, Note_on_c, 6, 59, 100
4, 43008, Note_on_c, 6, 62, 100
4, 43008, Note_on_c, 6, 67, 100
4, 44537, Note_off_c, 6, 67, 0
4, 44537, Note_off_c, 6, 62, 0
4, 44537, Note_off_c, 6, 59, 0
4, 44544, Note_on_c, 6, 57, 100
4, 44544, Note_on_c, 6, 62, 100
4, 44544, Note_on_c, 6, 66, 100
4, 46073, Note_off_c, 6, 66, 0
4, 46073, Note_off_c, 6, 62, 0
4, 46073, Note_off_c, 6, 57, 0
4, 46080, Note_on_c, 6, 59, 100
4, 46080, Note_on_c, 6, 62, 100
4, 46080, Note_on_c, 6, 67, 100
4, 47225, Note_off_c, 6, 67, 0
4, 47225, Note_off_c, 6, 62, 0
4, 47225, Note_off_c, 6, 59, 0
4, 61440, Note_on_c, 6, 62, 100
4, 61440, Note_on_c, 6, 67, 100
4, 61440, Note_on_c, 6, 71, 100
4, 66041, Note_off_c, 6, 71, 0
4, 66041, Note_off_c, 6, 67, 0
4, 66041, Note_off_c, 6, 62, 0
4, 66048, Note_on_c, 6, 69, 100
4, 66048, Note_on_c, 6, 66, 100
4, 66048, Note_on_c, 6, 62, 100
4, 72185, Note_off_c, 6, 62, 0
4, 72185, Note_off_c, 6, 66, 0
4, 72185, Note_off_c, 6, 69, 0
4, 72192, Note_on_c, 6, 59, 100
4, 72192, Note_on_c, 6, 62, 100
4, 72192, Note_on_c, 6, 67, 100
4, 73721, Note_off_c, 6, 67, 0
4, 73721, Note_off_c, 6, 62, 0
4, 73721, Note_off_c, 6, 59, 0
4, 73728, Note_on_c, 6, 71, 100
4, 73728, Note_on_c, 6, 67, 100
4, 73728, Note_on_c, 6, 62, 100
4, 76793, Note_off_c, 6, 62, 0
4, 76793, Note_off_c, 6, 67, 0
4, 76793, Note_off_c, 6, 71, 0
4, 76800, Note_on_c, 6, 63, 100
4, 76800, Note_on_c, 6, 66, 100
4, 76800, Note_on_c, 6, 71, 100
4, 78329, Note_off_c, 6, 71, 0
4, 78329, Note_off_c, 6, 66, 0
4, 78329, Note_off_c, 6, 63, 0
4, 78336, Note_on_c, 6, 64, 100
4, 78336, Note_on_c, 6, 67, 100
4, 78336, Note_on_c, 6, 71, 100
4, 79865, Note_off_c, 6, 71, 0
4, 79865, Note_off_c, 6, 67, 0
4, 79865, Note_off_c, 6, 64, 0
4, 79872, Note_on_c, 6, 60, 100
4, 79872, Note_on_c, 6, 64, 100
4, 79872, Note_on_c, 6, 67, 100
4, 81401, Note_off_c, 6, 67, 0
4, 81401, Note_off_c, 6, 64, 0
4, 81401, Note_off_c, 6, 60, 0
4, 81408, Note_on_c, 6, 59, 100
4, 81408, Note_on_c, 6, 62, 100
4, 81408, Note_on_c, 6, 67, 100
4, 82937, Note_off_c, 6, 67, 0
4, 82937, Note_off_c, 6, 62, 0
4, 82937, Note_off_c, 6, 59, 0
4, 82944, Note_on_c, 6, 57, 100
4, 82944, Note_on_c, 6, 62, 100
4, 82944, Note_on_c, 6, 66, 100
4, 84473, Note_off_c, 6, 66, 0
4, 84473, Note_off_c, 6, 62, 0
4, 84473, Note_off_c, 6, 57, 0
4, 84480, Note_on_c, 6, 59, 100
4, 84480, Note_on_c, 6, 62, 100
4, 84480, Note_on_c, 6, 67, 100
4, 85625, Note_off_c, 6, 67, 0
4, 85625, Note_off_c, 6, 62, 0
4, 85625, Note_off_c, 6, 59, 0
4, 86016, Note_on_c, 6, 60, 100
4, 86016, Note_on_c, 6, 64, 100
4, 86016, Note_on_c, 6, 67, 100
4, 87545, Note_off_c, 6, 67, 0
4, 87545, Note_off_c, 6, 64, 0
4, 87545, Note_off_c, 6, 60, 0
4, 87552, Note_on_c, 6, 59, 100
4, 87552, Note_on_c, 6, 62, 100
4, 87552, Note_on_c, 6, 67, 100
4, 89081, Note_off_c, 6, 67, 0
4, 89081, Note_off_c, 6, 62, 0
4, 89081, Note_off_c, 6, 59, 0
4, 89088, Note_on_c, 6, 57, 100
4, 89088, Note_on_c, 6, 62, 100
4, 89088, Note_on_c, 6, 66, 100
4, 90617, Note_off_c, 6, 66, 0
4, 90617, Note_off_c, 6, 62, 0
4, 90617, Note_off_c, 6, 57, 0
4, 90624, Note_on_c, 6, 59, 100
4, 90624, Note_on_c, 6, 62, 100
4, 90624, Note_on_c, 6, 67, 100
4, 91769, Note_off_c, 6, 67, 0
4, 91769, Note_off_c, 6, 62, 0
4, 91769, Note_off_c, 6, 59, 0
4, 105984, Note_on_c, 6, 62, 100
4, 105984, Note_on_c, 6, 67, 100
4, 105984, Note_on_c, 6, 71, 100
4, 110585, Note_off_c, 6, 71, 0
4, 110585, Note_off_c, 6, 67, 0
4, 110585, Note_off_c, 6, 62, 0
4, 110592, Note_on_c, 6, 69, 100
4, 110592, Note_on_c, 6, 66, 100
4, 110592, Note_on_c, 6, 62, 100
4, 116729, Note_off_c, 6, 62, 0
4, 116729, Note_off_c, 6, 66, 0
4, 116729, Note_off_c, 6, 69, 0
4, 116736, Note_on_c, 6, 59, 100
4, 116736, Note_on_c, 6, 62, 100
4, 116736, Note_on_c, 6, 67, 100
4, 118265, Note_off_c, 6, 67, 0
4, 118265, Note_off_c, 6, 62, 0
4, 118265, Note_off_c, 6, 59, 0
4, 118272, Note_on_c, 6, 71, 100
4, 118272, Note_on_c, 6, 67, 100
4, 118272, Note_on_c, 6, 62, 100
4, 121337, Note_off_c, 6, 62, 0
4, 121337, Note_off_c, 6, 67, 0
4, 121337, Note_off_c, 6, 71, 0
4, 121344, Note_on_c, 6, 63, 100
4, 121344, Note_on_c, 6, 66, 100
4, 121344, Note_on_c, 6, 71, 100
4, 122873, Note_off_c, 6, 71, 0
4, 122873, Note_off_c, 6, 66, 0
4, 122873, Note_off_c, 6, 63, 0
4, 122880, Note_on_c, 6, 64, 100
4, 122880, Note_on_c, 6, 67, 100
4, 122880, Note_on_c, 6, 71, 100
4, 124409, Note_off_c, 6, 71, 0
4, 124409, Note_off_c, 6, 67, 0
4, 124409, Note_off_c, 6, 64, 0
4, 124416, Note_on_c, 6, 60, 100
4, 124416, Note_on_c, 6, 64, 100
4, 124416, Note_on_c, 6, 67, 100
4, 125945, Note_off_c, 6, 67, 0
4, 125945, Note_off_c, 6, 64, 0
4, 125945, Note_off_c, 6, 60, 0
4, 125952, Note_on_c, 6, 59, 100
4, 125952, Note_on_c, 6, 62, 100
4, 125952, Note_on_c, 6, 67, 100
4, 127481, Note_off_c, 6, 67, 0
4, 127481, Note_off_c, 6, 62, 0
4, 127481, Note_off_c, 6, 59, 0
4, 127488, Note_on_c, 6, 57, 100
4, 127488, Note_on_c, 6, 62, 100
4, 127488, Note_on_c, 6, 66, 100
4, 129017, Note_off_c, 6, 66, 0
4, 129017, Note_off_c, 6, 62, 0
4, 129017, Note_off_c, 6, 57, 0
4, 129024, Note_on_c, 6, 59, 100
4, 129024, Note_on_c, 6, 62, 100
4, 129024, Note_on_c, 6, 67, 100
4, 130169, Note_off_c, 6, 67, 0
4, 130169, Note_off_c, 6, 62, 0
4, 130169, Note_off_c, 6, 59, 0
4, 130560, Note_on_c, 6, 60, 100
4, 130560, Note_on_c, 6, 64, 100
4, 130560, Note_on_c, 6, 67, 100
4, 132089, Note_off_c, 6, 67, 0
4, 132089, Note_off_c, 6, 64, 0
4, 132089, Note_off_c, 6, 60, 0
4, 132096, Note_on_c, 6, 59, 100
4, 132096, Note_on_c, 6, 62, 100
4, 132096, Note_on_c, 6, 67, 100
4, 133625, Note_off_c, 6, 67, 0
4, 133625, Note_off_c, 6, 62, 0
4, 133625, Note_off_c, 6, 59, 0
4, 133632, Note_on_c, 6, 57, 100
4, 133632, Note_on_c, 6, 62, 100
4, 133632, Note_on_c, 6, 66, 100
4, 135161, Note_off_c, 6, 66, 0
4, 135161, Note_off_c, 6, 62, 0
4, 135161, Note_off_c, 6, 57, 0
4, 135168, Note_on_c, 6, 59, 100
4, 135168, Note_on_c, 6, 62, 100
4, 135168, Note_on_c, 6, 67, 100
4, 136313, Note_off_c, 6, 67, 0
4, 136313, Note_off_c, 6, 62, 0
4, 136313, Note_off_c, 6, 59, 0
4, 136704, End_track
5, 0, Start_track
5, 0, Title_t, "bass"
5, 0, Control_c, 1, 121, 0
5, 0, Control_c, 1, 11, 127
5, 0, Control_c, 1, 91, 60
5, 0, Control_c, 1, 93, 30
5, 400, Control_c, 1, 0, 0
5, 403, Control_c, 1, 32, 0
5, 406, Program_c, 1, 32
5, 409, Control_c, 1, 7, 127
5, 409, Control_c, 1, 10, 63
5, 15744, Note_on_c, 1, 38, 110
5, 16076, Note_off_c, 1, 38, 0
5, 16128, Note_on_c, 1, 40, 110
5, 16460, Note_off_c, 1, 40, 0
5, 16512, Note_on_c, 1, 42, 110
5, 16844, Note_off_c, 1, 42, 0
5, 16896, Note_on_c, 1, 43, 110
5, 17561, Note_off_c, 1, 43, 0
5, 17664, Note_on_c, 1, 38, 110
5, 18329, Note_off_c, 1, 38, 0
5, 18432, Note_on_c, 1, 43, 110
5, 19097, Note_off_c, 1, 43, 0
5, 19200, Note_on_c, 1, 38, 110
5, 19865, Note_off_c, 1, 38, 0
5, 19968, Note_on_c, 1, 43, 110
5, 20633, Note_off_c, 1, 43, 0
5, 20736, Note_on_c, 1, 38, 110
5, 21401, Note_off_c, 1, 38, 0
5, 21504, Note_on_c, 1, 38, 110
5, 22169, Note_off_c, 1, 38, 0
5, 22272, Note_on_c, 1, 33, 110
5, 22937, Note_off_c, 1, 33, 0
5, 23040, Note_on_c, 1, 38, 110
5, 23705, Note_off_c, 1, 38, 0
5, 23808, Note_on_c, 1, 33, 110
5, 24473, Note_off_c, 1, 33, 0
5, 24576, Note_on_c, 1, 38, 110
5, 25241, Note_off_c, 1, 38, 0
5, 25344, Note_on_c, 1, 33, 110
5, 26009, Note_off_c, 1, 33, 0
5, 26112, Note_on_c, 1, 38, 110
5, 26777, Note_off_c, 1, 38, 0
5, 26880, Note_on_c, 1, 33, 110
5, 27545, Note_off_c, 1, 33, 0
5, 27648, Note_on_c, 1, 43, 110
5, 28313, Note_off_c, 1, 43, 0
5, 28416, Note_on_c, 1, 38, 110
5, 29081, Note_off_c, 1, 38, 0
5, 29184, Note_on_c, 1, 43, 110
5, 29849, Note_off_c, 1, 43, 0
5, 29952, Note_on_c, 1, 38, 110
5, 30617, Note_off_c, 1, 38, 0
5, 30720, Note_on_c, 1, 43, 110
5, 31385, Note_off_c, 1, 43, 0
5, 31488, Note_on_c, 1, 43, 110
5, 32153, Note_off_c, 1, 43, 0
5, 32256, Note_on_c, 1, 35, 110
5, 32921, Note_off_c, 1, 35, 0
5, 33024, Note_on_c, 1, 35, 110
5, 33689, Note_off_c, 1, 35, 0
5, 33792, Note_on_c, 1, 40, 110
5, 34457, Note_off_c, 1, 40, 0
5, 34560, Note_on_c, 1, 40, 110
5, 35225, Note_off_c, 1, 40, 0
5, 35328, Note_on_c, 1, 36, 110
5, 35993, Note_off_c, 1, 36, 0
5, 36096, Note_on_c, 1, 36, 110
5, 36761, Note_off_c, 1, 36, 0
5, 36864, Note_on_c, 1, 43, 110
5, 37529, Note_off_c, 1, 43, 0
5, 37632, Note_on_c, 1, 43, 110
5, 38297, Note_off_c, 1, 43, 0
5, 38400, Note_on_c, 1, 38, 110
5, 39065, Note_off_c, 1, 38, 0
5, 39168, Note_on_c, 1, 38, 110
5, 39833, Note_off_c, 1, 38, 0
5, 39936, Note_on_c, 1, 43, 110
5, 40611, Note_off_c, 1, 43, 0
5, 40704, Note_on_c, 1, 38, 110
5, 41369, Note_off_c, 1, 38, 0
5, 41472, Note_on_c, 1, 36, 110
5, 42137, Note_off_c, 1, 36, 0
5, 42240, Note_on_c, 1, 36, 110
5, 42905, Note_off_c, 1, 36, 0
5, 43008, Note_on_c, 1, 43, 110
5, 43673, Note_off_c, 1, 43, 0
5, 43776, Note_on_c, 1, 43, 110
5, 44441, Note_off_c, 1, 43, 0
5, 44544, Note_on_c, 1, 38, 110
5, 45209, Note_off_c, 1, 38, 0
5, 45312, Note_on_c, 1, 38, 110
5, 45977, Note_off_c, 1, 38, 0
5, 46080, Note_on_c, 1, 43, 110
5, 47411, Note_off_c, 1, 43, 0
5, 60288, Note_on_c, 1, 38, 110
5, 60620, Note_off_c, 1, 38, 0
5, 60672, Note_on_c, 1, 40, 110
5, 61004, Note_off_c, 1, 40, 0
5, 61056, Note_on_c, 1, 42, 110
5, 61388, Note_off_c, 1, 42, 0
5, 61440, Note_on_c, 1, 43, 110
5, 62105, Note_off_c, 1, 43, 0
5, 62208, Note_on_c, 1, 38, 110
5, 62873, Note_off_c, 1, 38, 0
5, 62976, Note_on_c, 1, 43, 110
5, 63641, Note_off_c, 1, 43, 0
5, 63744, Note_on_c, 1, 38, 110
5, 64409, Note_off_c, 1, 38, 0
5, 64512, Note_on_c, 1, 43, 110
5, 65177, Note_off_c, 1, 43, 0
5, 65280, Note_on_c, 1, 38, 110
5, 65945, Note_off_c, 1, 38, 0
5, 66048, Note_on_c, 1, 38, 110
5, 66713, Note_off_c, 1, 38, 0
5, 66816, Note_on_c, 1, 33, 110
5, 67481, Note_off_c, 1, 33, 0
5, 67584, Note_on_c, 1, 38, 110
5, 68249, Note_off_c, 1, 38, 0
5, 68352, Note_on_c, 1, 33, 110
5, 69017, Note_off_c, 1, 33, 0
5, 69120, Note_on_c, 1, 38, 110
5, 69785, Note_off_c, 1, 38, 0
5, 69888, Note_on_c, 1, 33, 110
5, 70553, Note_off_c, 1, 33, 0
5, 70656, Note_on_c, 1, 38, 110
5, 71321, Note_off_c, 1, 38, 0
5, 71424, Note_on_c, 1, 33, 110
5, 72089, Note_off_c, 1, 33, 0
5, 72192, Note_on_c, 1, 43, 110
5, 72857, Note_off_c, 1, 43, 0
5, 72960, Note_on_c, 1, 38, 110
5, 73625, Note_off_c, 1, 38, 0
5, 73728, Note_on_c, 1, 43, 110
5, 74393, Note_off_c, 1, 43, 0
5, 74496, Note_on_c, 1, 38, 110
5, 75161, Note_off_c, 1, 38, 0
5, 75264, Note_on_c, 1, 43, 110
5, 75929, Note_off_c, 1, 43, 0
5, 76032, Note_on_c, 1, 43, 110
5, 76697, Note_off_c, 1, 43, 0
5, 76800, Note_on_c, 1, 35, 110
5, 77465, Note_off_c, 1, 35, 0
5, 77568, Note_on_c, 1, 35, 110
5, 78233, Note_off_c, 1, 35, 0
5, 78336, Note_on_c, 1, 40, 110
5, 79001, Note_off_c, 1, 40, 0
5, 79104, Note_on_c, 1, 40, 110
5, 79769, Note_off_c, 1, 40, 0
5, 79872, Note_on_c, 1, 36, 110
5, 80537, Note_off_c, 1, 36, 0
5, 80640, Note_on_c, 1, 36, 110
5, 81305, Note_off_c, 1, 36, 0
5, 81408, Note_on_c, 1, 43, 110
5, 82073, Note_off_c, 1, 43, 0
5, 82176, Note_on_c, 1, 43, 110
5, 82841, Note_off_c, 1, 43, 0
5, 82944, Note_on_c, 1, 38, 110
5, 83609, Note_off_c, 1, 38, 0
5, 83712, Note_on_c, 1, 38, 110
5, 84377, Note_off_c, 1, 38, 0
5, 84480, Note_on_c, 1, 43, 110
5, 85155, Note_off_c, 1, 43, 0
5, 85248, Note_on_c, 1, 38, 110
5, 85913, Note_off_c, 1, 38, 0
5, 86016, Note_on_c, 1, 36, 110
5, 86681, Note_off_c, 1, 36, 0
5, 86784, Note_on_c, 1, 36, 110
5, 87449, Note_off_c, 1, 36, 0
5, 87552, Note_on_c, 1, 43, 110
5, 88217, Note_off_c, 1, 43, 0
5, 88320, Note_on_c, 1, 43, 110
5, 88985, Note_off_c, 1, 43, 0
5, 89088, Note_on_c, 1, 38, 110
5, 89753, Note_off_c, 1, 38, 0
5, 89856, Note_on_c, 1, 38, 110
5, 90521, Note_off_c, 1, 38, 0
5, 90624, Note_on_c, 1, 43, 110
5, 91955, Note_off_c, 1, 43, 0
5, 104832, Note_on_c, 1, 38, 110
5, 105164, Note_off_c, 1, 38, 0
5, 105216, Note_on_c, 1, 40, 110
5, 105548, Note_off_c, 1, 40, 0
5, 105600, Note_on_c, 1, 42, 110
5, 105932, Note_off_c, 1, 42, 0
5, 105984, Note_on_c, 1, 43, 110
5, 106649, Note_off_c, 1, 43, 0
5, 106752, Note_on_c, 1, 38, 110
5, 107417, Note_off_c, 1, 38, 0
5, 107520, Note_on_c, 1, 43, 110
5, 108185, Note_off_c, 1, 43, 0
5, 108288, Note_on_c, 1, 38, 110
5, 108953, Note_off_c, 1, 38, 0
5, 109056, Note_on_c, 1, 43, 110
5, 109721, Note_off_c, 1, 43, 0
5, 109824, Note_on_c, 1, 38, 110
5, 110489, Note_off_c, 1, 38, 0
5, 110592, Note_on_c, 1, 38, 110
5, 111257, Note_off_c, 1, 38, 0
5, 111360, Note_on_c, 1, 33, 110
5, 112025, Note_off_c, 1, 33, 0
5, 112128, Note_on_c, 1, 38, 110
5, 112793, Note_off_c, 1, 38, 0
5, 112896, Note_on_c, 1, 33, 110
5, 113561, Note_off_c, 1, 33, 0
5, 113664, Note_on_c, 1, 38, 110
5, 114329, Note_off_c, 1, 38, 0
5, 114432, Note_on_c, 1, 33, 110
5, 115097, Note_off_c, 1, 33, 0
5, 115200, Note_on_c, 1, 38, 110
5, 115865, Note_off_c, 1, 38, 0
5, 115968, Note_on_c, 1, 33, 110
5, 116633, Note_off_c, 1, 33, 0
5, 116736, Note_on_c, 1, 43, 110
5, 117401, Note_off_c, 1, 43, 0
5, 117504, Note_on_c, 1, 38, 110
5, 118169, Note_off_c, 1, 38, 0
5, 118272, Note_on_c, 1, 43, 110
5, 118937, Note_off_c, 1, 43, 0
5, 119040, Note_on_c, 1, 38, 110
5, 119705, Note_off_c, 1, 38, 0
5, 119808, Note_on_c, 1, 43, 110
5, 120473, Note_off_c, 1, 43, 0
5, 120576, Note_on_c, 1, 43, 110
5, 121241, Note_off_c, 1, 43, 0
5, 121344, Note_on_c, 1, 35, 110
5, 122009, Note_off_c, 1, 35, 0
5, 122112, Note_on_c, 1, 35, 110
5, 122777, Note_off_c, 1, 35, 0
5, 122880, Note_on_c, 1, 40, 110
5, 123545, Note_off_c, 1, 40, 0
5, 123648, Note_on_c, 1, 40, 110
5, 124313, Note_off_c, 1, 40, 0
5, 124416, Note_on_c, 1, 36, 110
5, 125081, Note_off_c, 1, 36, 0
5, 125184, Note_on_c, 1, 36, 110
5, 125849, Note_off_c, 1, 36, 0
5, 125952, Note_on_c, 1, 43, 110
5, 126617, Note_off_c, 1, 43, 0
5, 126720, Note_on_c, 1, 43, 110
5, 127385, Note_off_c, 1, 43, 0
5, 127488, Note_on_c, 1, 38, 110
5, 128153, Note_off_c, 1, 38, 0
5, 128256, Note_on_c, 1, 38, 110
5, 128921, Note_off_c, 1, 38, 0
5, 129024, Note_on_c, 1, 43, 110
5, 129699, Note_off_c, 1, 43, 0
5, 129792, Note_on_c, 1, 38, 110
5, 130457, Note_off_c, 1, 38, 0
5, 130560, Note_on_c, 1, 36, 110
5, 131225, Note_off_c, 1, 36, 0
5, 131328, Note_on_c, 1, 36, 110
5, 131993, Note_off_c, 1, 36, 0
5, 132096, Note_on_c, 1, 43, 110
5, 132761, Note_off_c, 1, 43, 0
5, 132864, Note_on_c, 1, 43, 110
5, 133529, Note_off_c, 1, 43, 0
5, 133632, Note_on_c, 1, 38, 110
5, 134297, Note_off_c, 1, 38, 0
5, 134400, Note_on_c, 1, 38, 110
5, 135065, Note_off_c, 1, 38, 0
5, 135168, Note_on_c, 1, 43, 110
5, 136499, Note_off_c, 1, 43, 0
5, 136704, End_track
6, 0, Start_track
6, 0, Title_t, "guitar"
6, 0, Control_c, 7, 121, 0
6, 0, Control_c, 7, 11, 127
6, 0, Control_c, 7, 91, 127
6, 0, Control_c, 7, 93, 20
6, 0, Control_c, 7, 1, 0
6, 496, Control_c, 7, 0, 0
6, 499, Control_c, 7, 32, 0
6, 502, Program_c, 7, 24
6, 505, Control_c, 7, 7, 90
6, 505, Control_c, 7, 10, 20
6, 17280, Note_on_c, 7, 67, 100
6, 17280, Note_on_c, 7, 71, 100
6, 17280, Note_on_c, 7, 62, 100
6, 17424, Note_off_c, 7, 62, 0
6, 17424, Note_off_c, 7, 71, 0
6, 17424, Note_off_c, 7, 67, 0
6, 17472, Note_on_c, 7, 62, 100
6, 17472, Note_on_c, 7, 67, 100
6, 17472, Note_on_c, 7, 71, 100
6, 17587, Note_off_c, 7, 71, 0
6, 17587, Note_off_c, 7, 67, 0
6, 17603, Note_off_c, 7, 62, 0
6, 18048, Note_on_c, 7, 62, 100
6, 18048, Note_on_c, 7, 67, 100
6, 18048, Note_on_c, 7, 71, 100
6, 18348, Note_off_c, 7, 71, 0
6, 18364, Note_off_c, 7, 67, 0
6, 18364, Note_off_c, 7, 62, 0
6, 18816, Note_on_c, 7, 62, 100
6, 18816, Note_on_c, 7, 67, 100
6, 18816, Note_on_c, 7, 71, 100
6, 18947, Note_off_c, 7, 71, 0
6, 18947, Note_off_c, 7, 67, 0
6, 18947, Note_off_c, 7, 62, 0
6, 19008, Note_on_c, 7, 62, 100
6, 19008, Note_on_c, 7, 71, 100
6, 19008, Note_on_c, 7, 67, 100
6, 19110, Note_off_c, 7, 67, 0
6, 19110, Note_off_c, 7, 71, 0
6, 19123, Note_off_c, 7, 62, 0
6, 19584, Note_on_c, 7, 62, 100
6, 19584, Note_on_c, 7, 67, 100
6, 19584, Note_on_c, 7, 71, 100
6, 19728, Note_off_c, 7, 71, 0
6, 19728, Note_off_c, 7, 67, 0
6, 19728, Note_off_c, 7, 62, 0
6, 19776, Note_on_c, 7, 67, 100
6, 19776, Note_on_c, 7, 62, 100
6, 19776, Note_on_c, 7, 71, 100
6, 19862, Note_off_c, 7, 71, 0
6, 19878, Note_off_c, 7, 62, 0
6, 19891, Note_off_c, 7, 67, 0
6, 20352, Note_on_c, 7, 71, 100
6, 20352, Note_on_c, 7, 67, 100
6, 20352, Note_on_c, 7, 62, 100
6, 20496, Note_off_c, 7, 62, 0
6, 20496, Note_off_c, 7, 67, 0
6, 20496, Note_off_c, 7, 71, 0
6, 20544, Note_on_c, 7, 67, 100
6, 20544, Note_on_c, 7, 62, 100
6, 20544, Note_on_c, 7, 71, 100
6, 20688, Note_off_c, 7, 71, 0
6, 20688, Note_off_c, 7, 62, 0
6, 20716, Note_off_c, 7, 67, 0
6, 21120, Note_on_c, 7, 67, 100
6, 21120, Note_on_c, 7, 62, 100
6, 21120, Note_on_c, 7, 71, 100
6, 21251, Note_off_c, 7, 71, 0
6, 21264, Note_off_c, 7, 62, 0
6, 21276, Note_off_c, 7, 67, 0
6, 21312, Note_on_c, 7, 67, 100
6, 21312, Note_on_c, 7, 62, 100
6, 21312, Note_on_c, 7, 71, 100
6, 21456, Note_off_c, 7, 71, 0
6, 21456, Note_off_c, 7, 62, 0
6, 21484, Note_off_c, 7, 67, 0
6, 21888, Note_on_c, 7, 69, 100
6, 21888, Note_on_c, 7, 62, 100
6, 21888, Note_on_c, 7, 66, 100
6, 22003, Note_off_c, 7, 66, 0
6, 22003, Note_off_c, 7, 62, 0
6, 22019, Note_off_c, 7, 69, 0
6, 22080, Note_on_c, 7, 66, 100
6, 22080, Note_on_c, 7, 62, 100
6, 22080, Note_on_c, 7, 69, 100
6, 22182, Note_off_c, 7, 62, 0
6, 22182, Note_off_c, 7, 66, 0
6, 22195, Note_off_c, 7, 69, 0
6, 22656, Note_on_c, 7, 69, 100
6, 22656, Note_on_c, 7, 62, 100
6, 22656, Note_on_c, 7, 66, 100
6, 22771, Note_off_c, 7, 66, 0
6, 22787, Note_off_c, 7, 62, 0
6, 22787, Note_off_c, 7, 69, 0
6, 22848, Note_on_c, 7, 62, 100
6, 22848, Note_on_c, 7, 66, 100
6, 22848, Note_on_c, 7, 69, 100
6, 22963, Note_off_c, 7, 66, 0
6, 22992, Note_off_c, 7, 69, 0
6, 22992, Note_off_c, 7, 62, 0
6, 23424, Note_on_c, 7, 60, 100
6, 23424, Note_on_c, 7, 69, 100
6, 23424, Note_on_c, 7, 66, 100
6, 23424, Note_on_c, 7, 62, 100
6, 23539, Note_off_c, 7, 62, 0
6, 23539, Note_off_c, 7, 66, 0
6, 23555, Note_off_c, 7, 60, 0
6, 23568, Note_off_c, 7, 69, 0
6, 23616, Note_on_c, 7, 66, 100
6, 23616, Note_on_c, 7, 60, 100
6, 23616, Note_on_c, 7, 69, 100
6, 23616, Note_on_c, 7, 62, 100
6, 23718, Note_off_c, 7, 62, 0
6, 23731, Note_off_c, 7, 66, 0
6, 23747, Note_off_c, 7, 60, 0
6, 23760, Note_off_c, 7, 69, 0
6, 24192, Note_on_c, 7, 66, 100
6, 24192, Note_on_c, 7, 60, 100
6, 24192, Note_on_c, 7, 69, 100
6, 24192, Note_on_c, 7, 62, 100
6, 24323, Note_off_c, 7, 62, 0
6, 24323, Note_off_c, 7, 60, 0
6, 24323, Note_off_c, 7, 66, 0
6, 24336, Note_off_c, 7, 69, 0
6, 24960, Note_on_c, 7, 62, 100
6, 24960, Note_on_c, 7, 60, 100
6, 24960, Note_on_c, 7, 66, 100
6, 24960, Note_on_c, 7, 69, 100
6, 25062, Note_off_c, 7, 66, 0
6, 25075, Note_off_c, 7, 62, 0
6, 25091, Note_off_c, 7, 69, 0
6, 25091, Note_off_c, 7, 60, 0
6, 25152, Note_on_c, 7, 69, 100
6, 25152, Note_on_c, 7, 66, 100
6, 25152, Note_on_c, 7, 60, 100
6, 25152, Note_on_c, 7, 62, 100
6, 25254, Note_off_c, 7, 62, 0
6, 25267, Note_off_c, 7, 66, 0
6, 25283, Note_off_c, 7, 60, 0
6, 25296, Note_off_c, 7, 69, 0
6, 25728, Note_on_c, 7, 60, 100
6, 25728, Note_on_c, 7, 66, 100
6, 25728, Note_on_c, 7, 69, 100
6, 25728, Note_on_c, 7, 62, 100
6, 25843, Note_off_c, 7, 62, 0
6, 25859, Note_off_c, 7, 69, 0
6, 25859, Note_off_c, 7, 66, 0
6, 25859, Note_off_c, 7, 60, 0
6, 25920, Note_on_c, 7, 60, 100
6, 25920, Note_on_c, 7, 66, 100
6, 25920, Note_on_c, 7, 62, 100
6, 25920, Note_on_c, 7, 69, 100
6, 26022, Note_off_c, 7, 62, 0
6, 26022, Note_off_c, 7, 66, 0
6, 26035, Note_off_c, 7, 69, 0
6, 26035, Note_off_c, 7, 60, 0
6, 26496, Note_on_c, 7, 60, 100
6, 26496, Note_on_c, 7, 69, 100
6, 26496, Note_on_c, 7, 66, 100
6, 26496, Note_on_c, 7, 62, 100
6, 26611, Note_off_c, 7, 62, 0
6, 26611, Note_off_c, 7, 66, 0
6, 26611, Note_off_c, 7, 69, 0
6, 26611, Note_off_c, 7, 60, 0
6, 26688, Note_on_c, 7, 60, 100
6, 26688, Note_on_c, 7, 69, 100
6, 26688, Note_on_c, 7, 66, 100
6, 26688, Note_on_c, 7, 62, 100
6, 26790, Note_off_c, 7, 62, 0
6, 26790, Note_off_c, 7, 66, 0
6, 26790, Note_off_c, 7, 60, 0
6, 26803, Note_off_c, 7, 69, 0
6, 27264, Note_on_c, 7, 66, 100
6, 27264, Note_on_c, 7, 69, 100
6, 27264, Note_on_c, 7, 62, 100
6, 27264, Note_on_c, 7, 60, 100
6, 27593, Note_off_c, 7, 60, 0
6, 27609, Note_off_c, 7, 62, 0
6, 27609, Note_off_c, 7, 69, 0
6, 27609, Note_off_c, 7, 66, 0
6, 28032, Note_on_c, 7, 62, 100
6, 28032, Note_on_c, 7, 67, 100
6, 28032, Note_on_c, 7, 71, 100
6, 28163, Note_off_c, 7, 71, 0
6, 28176, Note_off_c, 7, 67, 0
6, 28176, Note_off_c, 7, 62, 0
6, 28224, Note_on_c, 7, 62, 100
6, 28224, Note_on_c, 7, 71, 100
6, 28224, Note_on_c, 7, 67, 100
6, 28326, Note_off_c, 7, 71, 0
6, 28339, Note_off_c, 7, 67, 0
6, 28339, Note_off_c, 7, 62, 0
6, 28800, Note_on_c, 7, 62, 100
6, 28800, Note_on_c, 7, 67, 100
6, 28800, Note_on_c, 7, 71, 100
6, 28972, Note_off_c, 7, 67, 0
6, 28972, Note_off_c, 7, 62, 0
6, 28985, Note_off_c, 7, 71, 0
6, 29568, Note_on_c, 7, 62, 100
6, 29568, Note_on_c, 7, 67, 100
6, 29568, Note_on_c, 7, 71, 100
6, 29683, Note_off_c, 7, 71, 0
6, 29712, Note_off_c, 7, 67, 0
6, 29712, Note_off_c, 7, 62, 0
6, 29760, Note_on_c, 7, 67, 100
6, 29760, Note_on_c, 7, 62, 100
6, 29760, Note_on_c, 7, 71, 100
6, 29862, Note_off_c, 7, 71, 0
6, 29862, Note_off_c, 7, 62, 0
6, 29875, Note_off_c, 7, 67, 0
6, 30336, Note_on_c, 7, 62, 100
6, 30336, Note_on_c, 7, 71, 100
6, 30336, Note_on_c, 7, 67, 100
6, 30553, Note_off_c, 7, 71, 0
6, 30553, Note_off_c, 7, 62, 0
6, 30566, Note_off_c, 7, 67, 0
6, 31104, Note_on_c, 7, 71, 100
6, 31104, Note_on_c, 7, 62, 100
6, 31104, Note_on_c, 7, 67, 100
6, 31248, Note_off_c, 7, 67, 0
6, 31248, Note_off_c, 7, 71, 0
6, 31260, Note_off_c, 7, 62, 0
6, 31296, Note_on_c, 7, 67, 100
6, 31296, Note_on_c, 7, 62, 100
6, 31296, Note_on_c, 7, 71, 100
6, 31398, Note_off_c, 7, 71, 0
6, 31411, Note_off_c, 7, 62, 0
6, 31427, Note_off_c, 7, 67, 0
6, 31872, Note_on_c, 7, 67, 100
6, 31872, Note_on_c, 7, 71, 100
6, 31872, Note_on_c, 7, 62, 100
6, 32003, Note_off_c, 7, 71, 0
6, 32016, Note_off_c, 7, 62, 0
6, 32016, Note_off_c, 7, 67, 0
6, 32064, Note_on_c, 7, 62, 100
6, 32064, Note_on_c, 7, 71, 100
6, 32064, Note_on_c, 7, 67, 100
6, 32179, Note_off_c, 7, 67, 0
6, 32179, Note_off_c, 7, 71, 0
6, 32195, Note_off_c, 7, 62, 0
6, 32640, Note_on_c, 7, 71, 100
6, 32640, Note_on_c, 7, 63, 100
6, 32640, Note_on_c, 7, 66, 100
6, 32640, Note_on_c, 7, 59, 100
6, 32771, Note_off_c, 7, 59, 0
6, 32771, Note_off_c, 7, 63, 0
6, 32784, Note_off_c, 7, 66, 0
6, 32784, Note_off_c, 7, 71, 0
6, 32832, Note_on_c, 7, 59, 100
6, 32832, Note_on_c, 7, 63, 100
6, 32832, Note_on_c, 7, 66, 100
6, 32832, Note_on_c, 7, 71, 100
6, 32934, Note_off_c, 7, 66, 0
6, 32934, Note_off_c, 7, 63, 0
6, 32947, Note_off_c, 7, 59, 0
6, 32963, Note_off_c, 7, 71, 0
6, 33408, Note_on_c, 7, 69, 100
6, 33408, Note_on_c, 7, 59, 100
6, 33408, Note_on_c, 7, 66, 100
6, 33408, Note_on_c, 7, 63, 100
6, 33523, Note_off_c, 7, 66, 0
6, 33539, Note_off_c, 7, 63, 0
6, 33539, Note_off_c, 7, 69, 0
6, 33552, Note_off_c, 7, 59, 0
6, 33600, Note_on_c, 7, 63, 100
6, 33600, Note_on_c, 7, 69, 100
6, 33600, Note_on_c, 7, 59, 100
6, 33600, Note_on_c, 7, 66, 100
6, 33702, Note_off_c, 7, 66, 0
6, 33731, Note_off_c, 7, 63, 0
6, 33744, Note_off_c, 7, 59, 0
6, 33744, Note_off_c, 7, 69, 0
6, 34176, Note_on_c, 7, 67, 100
6, 34176, Note_on_c, 7, 64, 100
6, 34176, Note_on_c, 7, 59, 100
6, 34307, Note_off_c, 7, 59, 0
6, 34307, Note_off_c, 7, 64, 0
6, 34307, Note_off_c, 7, 67, 0
6, 34368, Note_on_c, 7, 59, 100
6, 34368, Note_on_c, 7, 64, 100
6, 34368, Note_on_c, 7, 67, 100
6, 34470, Note_off_c, 7, 67, 0
6, 34483, Note_off_c, 7, 64, 0
6, 34483, Note_off_c, 7, 59, 0
6, 34944, Note_on_c, 7, 59, 100
6, 34944, Note_on_c, 7, 64, 100
6, 34944, Note_on_c, 7, 67, 100
6, 35075, Note_off_c, 7, 67, 0
6, 35088, Note_off_c, 7, 64, 0
6, 35088, Note_off_c, 7, 59, 0
6, 35136, Note_on_c, 7, 67, 100
6, 35136, Note_on_c, 7, 59, 100
6, 35136, Note_on_c, 7, 64, 100
6, 35280, Note_off_c, 7, 64, 0
6, 35280, Note_off_c, 7, 59, 0
6, 35280, Note_off_c, 7, 67, 0
6, 35712, Note_on_c, 7, 67, 100
6, 35712, Note_on_c, 7, 64, 100
6, 35712, Note_on_c, 7, 60, 100
6, 35827, Note_off_c, 7, 60, 0
6, 35856, Note_off_c, 7, 64, 0
6, 35856, Note_off_c, 7, 67, 0
6, 35904, Note_on_c, 7, 60, 100
6, 35904, Note_on_c, 7, 64, 100
6, 35904, Note_on_c, 7, 67, 100
6, 36019, Note_off_c, 7, 64, 0
6, 36019, Note_off_c, 7, 60, 0
6, 36035, Note_off_c, 7, 67, 0
6, 36480, Note_on_c, 7, 64, 100
6, 36480, Note_on_c, 7, 60, 100
6, 36480, Note_on_c, 7, 67, 100
6, 36611, Note_off_c, 7, 67, 0
6, 36611, Note_off_c, 7, 60, 0
6, 36624, Note_off_c, 7, 64, 0
6, 36672, Note_on_c, 7, 60, 100
6, 36672, Note_on_c, 7, 67, 100
6, 36672, Note_on_c, 7, 64, 100
6, 36672, Note_on_c, 7, 65, 100
6, 36684, Note_off_c, 7, 65, 0
6, 36803, Note_off_c, 7, 60, 0
6, 36816, Note_off_c, 7, 64, 0
6, 36828, Note_off_c, 7, 67, 0
6, 37248, Note_on_c, 7, 71, 100
6, 37248, Note_on_c, 7, 62, 100
6, 37248, Note_on_c, 7, 67, 100
6, 37363, Note_off_c, 7, 71, 0
6, 37379, Note_off_c, 7, 67, 0
6, 37392, Note_off_c, 7, 62, 0
6, 37440, Note_on_c, 7, 62, 100
6, 37440, Note_on_c, 7, 71, 100
6, 37440, Note_on_c, 7, 67, 100
6, 37571, Note_off_c, 7, 67, 0
6, 37571, Note_off_c, 7, 71, 0
6, 37584, Note_off_c, 7, 62, 0
6, 38016, Note_on_c, 7, 62, 100
6, 38016, Note_on_c, 7, 67, 100
6, 38016, Note_on_c, 7, 71, 100
6, 38160, Note_off_c, 7, 71, 0
6, 38172, Note_off_c, 7, 67, 0
6, 38188, Note_off_c, 7, 62, 0
6, 38208, Note_on_c, 7, 67, 100
6, 38208, Note_on_c, 7, 62, 100
6, 38208, Note_on_c, 7, 71, 100
6, 38339, Note_off_c, 7, 71, 0
6, 38352, Note_off_c, 7, 62, 0
6, 38364, Note_off_c, 7, 67, 0
6, 38784, Note_on_c, 7, 62, 100
6, 38784, Note_on_c, 7, 66, 100
6, 38784, Note_on_c, 7, 69, 100
6, 38915, Note_off_c, 7, 69, 0
6, 38928, Note_off_c, 7, 66, 0
6, 38928, Note_off_c, 7, 62, 0
6, 38976, Note_on_c, 7, 66, 100
6, 38976, Note_on_c, 7, 69, 100
6, 38976, Note_on_c, 7, 62, 100
6, 39107, Note_off_c, 7, 62, 0
6, 39120, Note_off_c, 7, 66, 0
6, 39132, Note_off_c, 7, 69, 0
6, 39552, Note_on_c, 7, 66, 100
6, 39552, Note_on_c, 7, 62, 100
6, 39552, Note_on_c, 7, 69, 100
6, 39798, Note_off_c, 7, 66, 0
6, 39827, Note_off_c, 7, 69, 0
6, 39827, Note_off_c, 7, 62, 0
6, 40320, Note_on_c, 7, 67, 100
6, 40320, Note_on_c, 7, 71, 100
6, 40320, Note_on_c, 7, 62, 100
6, 40464, Note_off_c, 7, 62, 0
6, 40464, Note_off_c, 7, 71, 0
6, 40464, Note_off_c, 7, 67, 0
6, 40512, Note_on_c, 7, 62, 100
6, 40512, Note_on_c, 7, 67, 100
6, 40512, Note_on_c, 7, 71, 100
6, 40627, Note_off_c, 7, 71, 0
6, 40627, Note_off_c, 7, 67, 0
6, 40643, Note_off_c, 7, 62, 0
6, 41088, Note_on_c, 7, 62, 100
6, 41088, Note_on_c, 7, 67, 100
6, 41088, Note_on_c, 7, 71, 100
6, 41388, Note_off_c, 7, 71, 0
6, 41404, Note_off_c, 7, 67, 0
6, 41404, Note_off_c, 7, 62, 0
6, 41856, Note_on_c, 7, 67, 100
6, 41856, Note_on_c, 7, 64, 100
6, 41856, Note_on_c, 7, 60, 100
6, 41971, Note_off_c, 7, 60, 0
6, 42000, Note_off_c, 7, 64, 0
6, 42000, Note_off_c, 7, 67, 0
6, 42048, Note_on_c, 7, 60, 100
6, 42048, Note_on_c, 7, 64, 100
6, 42048, Note_on_c, 7, 67, 100
6, 42163, Note_off_c, 7, 64, 0
6, 42163, Note_off_c, 7, 60, 0
6, 42179, Note_off_c, 7, 67, 0
6, 42624, Note_on_c, 7, 64, 100
6, 42624, Note_on_c, 7, 60, 100
6, 42624, Note_on_c, 7, 67, 100
6, 42755, Note_off_c, 7, 67, 0
6, 42755, Note_off_c, 7, 60, 0
6, 42768, Note_off_c, 7, 64, 0
6, 42816, Note_on_c, 7, 60, 100
6, 42816, Note_on_c, 7, 67, 100
6, 42816, Note_on_c, 7, 64, 100
6, 42816, Note_on_c, 7, 65, 100
6, 42828, Note_off_c, 7, 65, 0
6, 42947, Note_off_c, 7, 60, 0
6, 42960, Note_off_c, 7, 64, 0
6, 42972, Note_off_c, 7, 67, 0
6, 43392, Note_on_c, 7, 71, 100
6, 43392, Note_on_c, 7, 62, 100
6, 43392, Note_on_c, 7, 67, 100
6, 43507, Note_off_c, 7, 71, 0
6, 43523, Note_off_c, 7, 67, 0
6, 43536, Note_off_c, 7, 62, 0
6, 43584, Note_on_c, 7, 62, 100
6, 43584, Note_on_c, 7, 71, 100
6, 43584, Note_on_c, 7, 67, 100
6, 43715, Note_off_c, 7, 67, 0
6, 43715, Note_off_c, 7, 71, 0
6, 43728, Note_off_c, 7, 62, 0
6, 44160, Note_on_c, 7, 62, 100
6, 44160, Note_on_c, 7, 67, 100
6, 44160, Note_on_c, 7, 71, 100
6, 44304, Note_off_c, 7, 71, 0
6, 44316, Note_off_c, 7, 67, 0
6, 44332, Note_off_c, 7, 62, 0
6, 44352, Note_on_c, 7, 67, 100
6, 44352, Note_on_c, 7, 62, 100
6, 44352, Note_on_c, 7, 71, 100
6, 44483, Note_off_c, 7, 71, 0
6, 44496, Note_off_c, 7, 62, 0
6, 44508, Note_off_c, 7, 67, 0
6, 44928, Note_on_c, 7, 62, 100
6, 44928, Note_on_c, 7, 66, 100
6, 44928, Note_on_c, 7, 69, 100
6, 45059, Note_off_c, 7, 69, 0
6, 45072, Note_off_c, 7, 66, 0
6, 45072, Note_off_c, 7, 62, 0
6, 45120, Note_on_c, 7, 66, 100
6, 45120, Note_on_c, 7, 69, 100
6, 45120, Note_on_c, 7, 62, 100
6, 45251, Note_off_c, 7, 62, 0
6, 45264, Note_off_c, 7, 66, 0
6, 45276, Note_off_c, 7, 69, 0
6, 45696, Note_on_c, 7, 66, 100
6, 45696, Note_on_c, 7, 62, 100
6, 45696, Note_on_c, 7, 69, 100
6, 45942, Note_off_c, 7, 66, 0
6, 45971, Note_off_c, 7, 69, 0
6, 45971, Note_off_c, 7, 62, 0
6, 46080, Note_on_c, 7, 71, 100
6, 46080, Note_on_c, 7, 62, 100
6, 46080, Note_on_c, 7, 67, 100
6, 47616, Note_off_c, 7, 67, 0
6, 47616, Note_off_c, 7, 71, 0
6, 47664, Note_off_c, 7, 62, 0
6, 61824, Note_on_c, 7, 67, 100
6, 61824, Note_on_c, 7, 71, 100
6, 61824, Note_on_c, 7, 62, 100
6, 61968, Note_off_c, 7, 62, 0
6, 61968, Note_off_c, 7, 71, 0
6, 61968, Note_off_c, 7, 67, 0
6, 62016, Note_on_c, 7, 62, 100
6, 62016, Note_on_c, 7, 67, 100
6, 62016, Note_on_c, 7, 71, 100
6, 62131, Note_off_c, 7, 71, 0
6, 62131, Note_off_c, 7, 67, 0
6, 62147, Note_off_c, 7, 62, 0
6, 62592, Note_on_c, 7, 62, 100
6, 62592, Note_on_c, 7, 67, 100
6, 62592, Note_on_c, 7, 71, 100
6, 62892, Note_off_c, 7, 71, 0
6, 62908, Note_off_c, 7, 67, 0
6, 62908, Note_off_c, 7, 62, 0
6, 63360, Note_on_c, 7, 62, 100
6, 63360, Note_on_c, 7, 67, 100
6, 63360, Note_on_c, 7, 71, 100
6, 63491, Note_off_c, 7, 71, 0
6, 63491, Note_off_c, 7, 67, 0
6, 63491, Note_off_c, 7, 62, 0
6, 63552, Note_on_c, 7, 62, 100
6, 63552, Note_on_c, 7, 71, 100
6, 63552, Note_on_c, 7, 67, 100
6, 63654, Note_off_c, 7, 67, 0
6, 63654, Note_off_c, 7, 71, 0
6, 63667, Note_off_c, 7, 62, 0
6, 64128, Note_on_c, 7, 62, 100
6, 64128, Note_on_c, 7, 67, 100
6, 64128, Note_on_c, 7, 71, 100
6, 64272, Note_off_c, 7, 71, 0
6, 64272, Note_off_c, 7, 67, 0
6, 64272, Note_off_c, 7, 62, 0
6, 64320, Note_on_c, 7, 67, 100
6, 64320, Note_on_c, 7, 62, 100
6, 64320, Note_on_c, 7, 71, 100
6, 64406, Note_off_c, 7, 71, 0
6, 64422, Note_off_c, 7, 62, 0
6, 64435, Note_off_c, 7, 67, 0
6, 64896, Note_on_c, 7, 71, 100
6, 64896, Note_on_c, 7, 67, 100
6, 64896, Note_on_c, 7, 62, 100
6, 65040, Note_off_c, 7, 62, 0
6, 65040, Note_off_c, 7, 67, 0
6, 65040, Note_off_c, 7, 71, 0
6, 65088, Note_on_c, 7, 67, 100
6, 65088, Note_on_c, 7, 62, 100
6, 65088, Note_on_c, 7, 71, 100
6, 65232, Note_off_c, 7, 71, 0
6, 65232, Note_off_c, 7, 62, 0
6, 65260, Note_off_c, 7, 67, 0
6, 65664, Note_on_c, 7, 67, 100
6, 65664, Note_on_c, 7, 62, 100
6, 65664, Note_on_c, 7, 71, 100
6, 65795, Note_off_c, 7, 71, 0
6, 65808, Note_off_c, 7, 62, 0
6, 65820, Note_off_c, 7, 67, 0
6, 65856, Note_on_c, 7, 67, 100
6, 65856, Note_on_c, 7, 62, 100
6, 65856, Note_on_c, 7, 71, 100
6, 66000, Note_off_c, 7, 71, 0
6, 66000, Note_off_c, 7, 62, 0
6, 66028, Note_off_c, 7, 67, 0
6, 66432, Note_on_c, 7, 69, 100
6, 66432, Note_on_c, 7, 62, 100
6, 66432, Note_on_c, 7, 66, 100
6, 66547, Note_off_c, 7, 66, 0
6, 66547, Note_off_c, 7, 62, 0
6, 66563, Note_off_c, 7, 69, 0
6, 66624, Note_on_c, 7, 66, 100
6, 66624, Note_on_c, 7, 62, 100
6, 66624, Note_on_c, 7, 69, 100
6, 66726, Note_off_c, 7, 62, 0
6, 66726, Note_off_c, 7, 66, 0
6, 66739, Note_off_c, 7, 69, 0
6, 67200, Note_on_c, 7, 69, 100
6, 67200, Note_on_c, 7, 62, 100
6, 67200, Note_on_c, 7, 66, 100
6, 67315, Note_off_c, 7, 66, 0
6, 67331, Note_off_c, 7, 62, 0
6, 67331, Note_off_c, 7, 69, 0
6, 67392, Note_on_c, 7, 62, 100
6, 67392, Note_on_c, 7, 66, 100
6, 67392, Note_on_c, 7, 69, 100
6, 67507, Note_off_c, 7, 66, 0
6, 67536, Note_off_c, 7, 69, 0
6, 67536, Note_off_c, 7, 62, 0
6, 67968, Note_on_c, 7, 60, 100
6, 67968, Note_on_c, 7, 69, 100
6, 67968, Note_on_c, 7, 66, 100
6, 67968, Note_on_c, 7, 62, 100
6, 68083, Note_off_c, 7, 62, 0
6, 68083, Note_off_c, 7, 66, 0
6, 68099, Note_off_c, 7, 60, 0
6, 68112, Note_off_c, 7, 69, 0
6, 68160, Note_on_c, 7, 66, 100
6, 68160, Note_on_c, 7, 60, 100
6, 68160, Note_on_c, 7, 69, 100
6, 68160, Note_on_c, 7, 62, 100
6, 68262, Note_off_c, 7, 62, 0
6, 68275, Note_off_c, 7, 66, 0
6, 68291, Note_off_c, 7, 60, 0
6, 68304, Note_off_c, 7, 69, 0
6, 68736, Note_on_c, 7, 66, 100
6, 68736, Note_on_c, 7, 60, 100
6, 68736, Note_on_c, 7, 69, 100
6, 68736, Note_on_c, 7, 62, 100
6, 68867, Note_off_c, 7, 62, 0
6, 68867, Note_off_c, 7, 60, 0
6, 68867, Note_off_c, 7, 66, 0
6, 68880, Note_off_c, 7, 69, 0
6, 69504, Note_on_c, 7, 62, 100
6, 69504, Note_on_c, 7, 60, 100
6, 69504, Note_on_c, 7, 66, 100
6, 69504, Note_on_c, 7, 69, 100
6, 69606, Note_off_c, 7, 66, 0
6, 69619, Note_off_c, 7, 62, 0
6, 69635, Note_off_c, 7, 69, 0
6, 69635, Note_off_c, 7, 60, 0
6, 69696, Note_on_c, 7, 69, 100
6, 69696, Note_on_c, 7, 66, 100
6, 69696, Note_on_c, 7, 60, 100
6, 69696, Note_on_c, 7, 62, 100
6, 69798, Note_off_c, 7, 62, 0
6, 69811, Note_off_c, 7, 66, 0
6, 69827, Note_off_c, 7, 60, 0
6, 69840, Note_off_c, 7, 69, 0
6, 70272, Note_on_c, 7, 60, 100
6, 70272, Note_on_c, 7, 66, 100
6, 70272, Note_on_c, 7, 69, 100
6, 70272, Note_on_c, 7, 62, 100
6, 70387, Note_off_c, 7, 62, 0
6, 70403, Note_off_c, 7, 69, 0
6, 70403, Note_off_c, 7, 66, 0
6, 70403, Note_off_c, 7, 60, 0
6, 70464, Note_on_c, 7, 60, 100
6, 70464, Note_on_c, 7, 66, 100
6, 70464, Note_on_c, 7, 62, 100
6, 70464, Note_on_c, 7, 69, 100
6, 70566, Note_off_c, 7, 62, 0
6, 70566, Note_off_c, 7, 66, 0
6, 70579, Note_off_c, 7, 69, 0
6, 70579, Note_off_c, 7, 60, 0
6, 71040, Note_on_c, 7, 60, 100
6, 71040, Note_on_c, 7, 69, 100
6, 71040, Note_on_c, 7, 66, 100
6, 71040, Note_on_c, 7, 62, 100
6, 71155, Note_off_c, 7, 62, 0
6, 71155, Note_off_c, 7, 66, 0
6, 71155, Note_off_c, 7, 69, 0
6, 71155, Note_off_c, 7, 60, 0
6, 71232, Note_on_c, 7, 60, 100
6, 71232, Note_on_c, 7, 69, 100
6, 71232, Note_on_c, 7, 66, 100
6, 71232, Note_on_c, 7, 62, 100
6, 71334, Note_off_c, 7, 62, 0
6, 71334, Note_off_c, 7, 66, 0
6, 71334, Note_off_c, 7, 60, 0
6, 71347, Note_off_c, 7, 69, 0
6, 71808, Note_on_c, 7, 66, 100
6, 71808, Note_on_c, 7, 69, 100
6, 71808, Note_on_c, 7, 62, 100
6, 71808, Note_on_c, 7, 60, 100
6, 72137, Note_off_c, 7, 60, 0
6, 72153, Note_off_c, 7, 62, 0
6, 72153, Note_off_c, 7, 69, 0
6, 72153, Note_off_c, 7, 66, 0
6, 72576, Note_on_c, 7, 62, 100
6, 72576, Note_on_c, 7, 67, 100
6, 72576, Note_on_c, 7, 71, 100
6, 72707, Note_off_c, 7, 71, 0
6, 72720, Note_off_c, 7, 67, 0
6, 72720, Note_off_c, 7, 62, 0
6, 72768, Note_on_c, 7, 62, 100
6, 72768, Note_on_c, 7, 71, 100
6, 72768, Note_on_c, 7, 67, 100
6, 72870, Note_off_c, 7, 71, 0
6, 72883, Note_off_c, 7, 67, 0
6, 72883, Note_off_c, 7, 62, 0
6, 73344, Note_on_c, 7, 62, 100
6, 73344, Note_on_c, 7, 67, 100
6, 73344, Note_on_c, 7, 71, 100
6, 73516, Note_off_c, 7, 67, 0
6, 73516, Note_off_c, 7, 62, 0
6, 73529, Note_off_c, 7, 71, 0
6, 74112, Note_on_c, 7, 62, 100
6, 74112, Note_on_c, 7, 67, 100
6, 74112, Note_on_c, 7, 71, 100
6, 74227, Note_off_c, 7, 71, 0
6, 74256, Note_off_c, 7, 67, 0
6, 74256, Note_off_c, 7, 62, 0
6, 74304, Note_on_c, 7, 67, 100
6, 74304, Note_on_c, 7, 62, 100
6, 74304, Note_on_c, 7, 71, 100
6, 74406, Note_off_c, 7, 71, 0
6, 74406, Note_off_c, 7, 62, 0
6, 74419, Note_off_c, 7, 67, 0
6, 74880, Note_on_c, 7, 62, 100
6, 74880, Note_on_c, 7, 71, 100
6, 74880, Note_on_c, 7, 67, 100
6, 75097, Note_off_c, 7, 71, 0
6, 75097, Note_off_c, 7, 62, 0
6, 75110, Note_off_c, 7, 67, 0
6, 75648, Note_on_c, 7, 71, 100
6, 75648, Note_on_c, 7, 62, 100
6, 75648, Note_on_c, 7, 67, 100
6, 75792, Note_off_c, 7, 67, 0
6, 75792, Note_off_c, 7, 71, 0
6, 75804, Note_off_c, 7, 62, 0
6, 75840, Note_on_c, 7, 67, 100
6, 75840, Note_on_c, 7, 62, 100
6, 75840, Note_on_c, 7, 71, 100
6, 75942, Note_off_c, 7, 71, 0
6, 75955, Note_off_c, 7, 62, 0
6, 75971, Note_off_c, 7, 67, 0
6, 76416, Note_on_c, 7, 67, 100
6, 76416, Note_on_c, 7, 71, 100
6, 76416, Note_on_c, 7, 62, 100
6, 76547, Note_off_c, 7, 71, 0
6, 76560, Note_off_c, 7, 62, 0
6, 76560, Note_off_c, 7, 67, 0
6, 76608, Note_on_c, 7, 62, 100
6, 76608, Note_on_c, 7, 71, 100
6, 76608, Note_on_c, 7, 67, 100
6, 76723, Note_off_c, 7, 67, 0
6, 76723, Note_off_c, 7, 71, 0
6, 76739, Note_off_c, 7, 62, 0
6, 77184, Note_on_c, 7, 71, 100
6, 77184, Note_on_c, 7, 63, 100
6, 77184, Note_on_c, 7, 66, 100
6, 77184, Note_on_c, 7, 59, 100
6, 77315, Note_off_c, 7, 59, 0
6, 77315, Note_off_c, 7, 63, 0
6, 77328, Note_off_c, 7, 66, 0
6, 77328, Note_off_c, 7, 71, 0
6, 77376, Note_on_c, 7, 59, 100
6, 77376, Note_on_c, 7, 63, 100
6, 77376, Note_on_c, 7, 66, 100
6, 77376, Note_on_c, 7, 71, 100
6, 77478, Note_off_c, 7, 66, 0
6, 77478, Note_off_c, 7, 63, 0
6, 77491, Note_off_c, 7, 59, 0
6, 77507, Note_off_c, 7, 71, 0
6, 77952, Note_on_c, 7, 69, 100
6, 77952, Note_on_c, 7, 59, 100
6, 77952, Note_on_c, 7, 66, 100
6, 77952, Note_on_c, 7, 63, 100
6, 78067, Note_off_c, 7, 66, 0
6, 78083, Note_off_c, 7, 63, 0
6, 78083, Note_off_c, 7, 69, 0
6, 78096, Note_off_c, 7, 59, 0
6, 78144, Note_on_c, 7, 63, 100
6, 78144, Note_on_c, 7, 69, 100
6, 78144, Note_on_c, 7, 59, 100
6, 78144, Note_on_c, 7, 66, 100
6, 78246, Note_off_c, 7, 66, 0
6, 78275, Note_off_c, 7, 63, 0
6, 78288, Note_off_c, 7, 59, 0
6, 78288, Note_off_c, 7, 69, 0
6, 78720, Note_on_c, 7, 67, 100
6, 78720, Note_on_c, 7, 64, 100
6, 78720, Note_on_c, 7, 59, 100
6, 78851, Note_off_c, 7, 59, 0
6, 78851, Note_off_c, 7, 64, 0
6, 78851, Note_off_c, 7, 67, 0
6, 78912, Note_on_c, 7, 59, 100
6, 78912, Note_on_c, 7, 64, 100
6, 78912, Note_on_c, 7, 67, 100
6, 79014, Note_off_c, 7, 67, 0
6, 79027, Note_off_c, 7, 64, 0
6, 79027, Note_off_c, 7, 59, 0
6, 79488, Note_on_c, 7, 59, 100
6, 79488, Note_on_c, 7, 64, 100
6, 79488, Note_on_c, 7, 67, 100
6, 79619, Note_off_c, 7, 67, 0
6, 79632, Note_off_c, 7, 64, 0
6, 79632, Note_off_c, 7, 59, 0
6, 79680, Note_on_c, 7, 67, 100
6, 79680, Note_on_c, 7, 59, 100
6, 79680, Note_on_c, 7, 64, 100
6, 79824, Note_off_c, 7, 64, 0
6, 79824, Note_off_c, 7, 59, 0
6, 79824, Note_off_c, 7, 67, 0
6, 80256, Note_on_c, 7, 67, 100
6, 80256, Note_on_c, 7, 64, 100
6, 80256, Note_on_c, 7, 60, 100
6, 80371, Note_off_c, 7, 60, 0
6, 80400, Note_off_c, 7, 64, 0
6, 80400, Note_off_c, 7, 67, 0
6, 80448, Note_on_c, 7, 60, 100
6, 80448, Note_on_c, 7, 64, 100
6, 80448, Note_on_c, 7, 67, 100
6, 80563, Note_off_c, 7, 64, 0
6, 80563, Note_off_c, 7, 60, 0
6, 80579, Note_off_c, 7, 67, 0
6, 81024, Note_on_c, 7, 64, 100
6, 81024, Note_on_c, 7, 60, 100
6, 81024, Note_on_c, 7, 67, 100
6, 81155, Note_off_c, 7, 67, 0
6, 81155, Note_off_c, 7, 60, 0
6, 81168, Note_off_c, 7, 64, 0
6, 81216, Note_on_c, 7, 60, 100
6, 81216, Note_on_c, 7, 67, 100
6, 81216, Note_on_c, 7, 64, 100
6, 81216, Note_on_c, 7, 65, 100
6, 81228, Note_off_c, 7, 65, 0
6, 81347, Note_off_c, 7, 60, 0
6, 81360, Note_off_c, 7, 64, 0
6, 81372, Note_off_c, 7, 67, 0
6, 81792, Note_on_c, 7, 71, 100
6, 81792, Note_on_c, 7, 62, 100
6, 81792, Note_on_c, 7, 67, 100
6, 81907, Note_off_c, 7, 71, 0
6, 81923, Note_off_c, 7, 67, 0
6, 81936, Note_off_c, 7, 62, 0
6, 81984, Note_on_c, 7, 62, 100
6, 81984, Note_on_c, 7, 71, 100
6, 81984, Note_on_c, 7, 67, 100
6, 82115, Note_off_c, 7, 67, 0
6, 82115, Note_off_c, 7, 71, 0
6, 82128, Note_off_c, 7, 62, 0
6, 82560, Note_on_c, 7, 62, 100
6, 82560, Note_on_c, 7, 67, 100
6, 82560, Note_on_c, 7, 71, 100
6, 82704, Note_off_c, 7, 71, 0
6, 82716, Note_off_c, 7, 67, 0
6, 82732, Note_off_c, 7, 62, 0
6, 82752, Note_on_c, 7, 67, 100
6, 82752, Note_on_c, 7, 62, 100
6, 82752, Note_on_c, 7, 71, 100
6, 82883, Note_off_c, 7, 71, 0
6, 82896, Note_off_c, 7, 62, 0
6, 82908, Note_off_c, 7, 67, 0
6, 83328, Note_on_c, 7, 62, 100
6, 83328, Note_on_c, 7, 66, 100
6, 83328, Note_on_c, 7, 69, 100
6, 83459, Note_off_c, 7, 69, 0
6, 83472, Note_off_c, 7, 66, 0
6, 83472, Note_off_c, 7, 62, 0
6, 83520, Note_on_c, 7, 66, 100
6, 83520, Note_on_c, 7, 69, 100
6, 83520, Note_on_c, 7, 62, 100
6, 83651, Note_off_c, 7, 62, 0
6, 83664, Note_off_c, 7, 66, 0
6, 83676, Note_off_c, 7, 69, 0
6, 84096, Note_on_c, 7, 66, 100
6, 84096, Note_on_c, 7, 62, 100
6, 84096, Note_on_c, 7, 69, 100
6, 84342, Note_off_c, 7, 66, 0
6, 84371, Note_off_c, 7, 69, 0
6, 84371, Note_off_c, 7, 62, 0
6, 84864, Note_on_c, 7, 67, 100
6, 84864, Note_on_c, 7, 71, 100
6, 84864, Note_on_c, 7, 62, 100
6, 85008, Note_off_c, 7, 62, 0
6, 85008, Note_off_c, 7, 71, 0
6, 85008, Note_off_c, 7, 67, 0
6, 85056, Note_on_c, 7, 62, 100
6, 85056, Note_on_c, 7, 67, 100
6, 85056, Note_on_c, 7, 71, 100
6, 85171, Note_off_c, 7, 71, 0
6, 85171, Note_off_c, 7, 67, 0
6, 85187, Note_off_c, 7, 62, 0
6, 85632, Note_on_c, 7, 62, 100
6, 85632, Note_on_c, 7, 67, 100
6, 85632, Note_on_c, 7, 71, 100
6, 85932, Note_off_c, 7, 71, 0
6, 85948, Note_off_c, 7, 67, 0
6, 85948, Note_off_c, 7, 62, 0
6, 86400, Note_on_c, 7, 67, 100
6, 86400, Note_on_c, 7, 64, 100
6, 86400, Note_on_c, 7, 60, 100
6, 86515, Note_off_c, 7, 60, 0
6, 86544, Note_off_c, 7, 64, 0
6, 86544, Note_off_c, 7, 67, 0
6, 86592, Note_on_c, 7, 60, 100
6, 86592, Note_on_c, 7, 64, 100
6, 86592, Note_on_c, 7, 67, 100
6, 86707, Note_off_c, 7, 64, 0
6, 86707, Note_off_c, 7, 60, 0
6, 86723, Note_off_c, 7, 67, 0
6, 87168, Note_on_c, 7, 64, 100
6, 87168, Note_on_c, 7, 60, 100
6, 87168, Note_on_c, 7, 67, 100
6, 87299, Note_off_c, 7, 67, 0
6, 87299, Note_off_c, 7, 60, 0
6, 87312, Note_off_c, 7, 64, 0
6, 87360, Note_on_c, 7, 60, 100
6, 87360, Note_on_c, 7, 67, 100
6, 87360, Note_on_c, 7, 64, 100
6, 87360, Note_on_c, 7, 65, 100
6, 87372, Note_off_c, 7, 65, 0
6, 87491, Note_off_c, 7, 60, 0
6, 87504, Note_off_c, 7, 64, 0
6, 87516, Note_off_c, 7, 67, 0
6, 87936, Note_on_c, 7, 71, 100
6, 87936, Note_on_c, 7, 62, 100
6, 87936, Note_on_c, 7, 67, 100
6, 88051, Note_off_c, 7, 71, 0
6, 88067, Note_off_c, 7, 67, 0
6, 88080, Note_off_c, 7, 62, 0
6, 88128, Note_on_c, 7, 62, 100
6, 88128, Note_on_c, 7, 71, 100
6, 88128, Note_on_c, 7, 67, 100
6, 88259, Note_off_c, 7, 67, 0
6, 88259, Note_off_c, 7, 71, 0
6, 88272, Note_off_c, 7, 62, 0
6, 88704, Note_on_c, 7, 62, 100
6, 88704, Note_on_c, 7, 67, 100
6, 88704, Note_on_c, 7, 71, 100
6, 88848, Note_off_c, 7, 71, 0
6, 88860, Note_off_c, 7, 67, 0
6, 88876, Note_off_c, 7, 62, 0
6, 88896, Note_on_c, 7, 67, 100
6, 88896, Note_on_c, 7, 62, 100
6, 88896, Note_on_c, 7, 71, 100
6, 89027, Note_off_c, 7, 71, 0
6, 89040, Note_off_c, 7, 62, 0
6, 89052, Note_off_c, 7, 67, 0
6, 89472, Note_on_c, 7, 62, 100
6, 89472, Note_on_c, 7, 66, 100
6, 89472, Note_on_c, 7, 69, 100
6, 89603, Note_off_c, 7, 69, 0
6, 89616, Note_off_c, 7, 66, 0
6, 89616, Note_off_c, 7, 62, 0
6, 89664, Note_on_c, 7, 66, 100
6, 89664, Note_on_c, 7, 69, 100
6, 89664, Note_on_c, 7, 62, 100
6, 89795, Note_off_c, 7, 62, 0
6, 89808, Note_off_c, 7, 66, 0
6, 89820, Note_off_c, 7, 69, 0
6, 90240, Note_on_c, 7, 66, 100
6, 90240, Note_on_c, 7, 62, 100
6, 90240, Note_on_c, 7, 69, 100
6, 90486, Note_off_c, 7, 66, 0
6, 90515, Note_off_c, 7, 69, 0
6, 90515, Note_off_c, 7, 62, 0
6, 90624, Note_on_c, 7, 71, 100
6, 90624, Note_on_c, 7, 62, 100
6, 90624, Note_on_c, 7, 67, 100
6, 92886, Note_off_c, 7, 67, 0
6, 92886, Note_off_c, 7, 62, 0
6, 92886, Note_off_c, 7, 71, 0
6, 106368, Note_on_c, 7, 67, 100
6, 106368, Note_on_c, 7, 71, 100
6, 106368, Note_on_c, 7, 62, 100
6, 106512, Note_off_c, 7, 62, 0
6, 106512, Note_off_c, 7, 71, 0
6, 106512, Note_off_c, 7, 67, 0
6, 106560, Note_on_c, 7, 62, 100
6, 106560, Note_on_c, 7, 67, 100
6, 106560, Note_on_c, 7, 71, 100
6, 106675, Note_off_c, 7, 71, 0
6, 106675, Note_off_c, 7, 67, 0
6, 106691, Note_off_c, 7, 62, 0
6, 107136, Note_on_c, 7, 62, 100
6, 107136, Note_on_c, 7, 67, 100
6, 107136, Note_on_c, 7, 71, 100
6, 107436, Note_off_c, 7, 71, 0
6, 107452, Note_off_c, 7, 67, 0
6, 107452, Note_off_c, 7, 62, 0
6, 107904, Note_on_c, 7, 62, 100
6, 107904, Note_on_c, 7, 67, 100
6, 107904, Note_on_c, 7, 71, 100
6, 108035, Note_off_c, 7, 71, 0
6, 108035, Note_off_c, 7, 67, 0
6, 108035, Note_off_c, 7, 62, 0
6, 108096, Note_on_c, 7, 62, 100
6, 108096, Note_on_c, 7, 71, 100
6, 108096, Note_on_c, 7, 67, 100
6, 108198, Note_off_c, 7, 67, 0
6, 108198, Note_off_c, 7, 71, 0
6, 108211, Note_off_c, 7, 62, 0
6, 108672, Note_on_c, 7, 62, 100
6, 108672, Note_on_c, 7, 67, 100
6, 108672, Note_on_c, 7, 71, 100
6, 108816, Note_off_c, 7, 71, 0
6, 108816, Note_off_c, 7, 67, 0
6, 108816, Note_off_c, 7, 62, 0
6, 108864, Note_on_c, 7, 67, 100
6, 108864, Note_on_c, 7, 62, 100
6, 108864, Note_on_c, 7, 71, 100
6, 108950, Note_off_c, 7, 71, 0
6, 108966, Note_off_c, 7, 62, 0
6, 108979, Note_off_c, 7, 67, 0
6, 109440, Note_on_c, 7, 71, 100
6, 109440, Note_on_c, 7, 67, 100
6, 109440, Note_on_c, 7, 62, 100
6, 109584, Note_off_c, 7, 62, 0
6, 109584, Note_off_c, 7, 67, 0
6, 109584, Note_off_c, 7, 71, 0
6, 109632, Note_on_c, 7, 67, 100
6, 109632, Note_on_c, 7, 62, 100
6, 109632, Note_on_c, 7, 71, 100
6, 109776, Note_off_c, 7, 71, 0
6, 109776, Note_off_c, 7, 62, 0
6, 109804, Note_off_c, 7, 67, 0
6, 110208, Note_on_c, 7, 67, 100
6, 110208, Note_on_c, 7, 62, 100
6, 110208, Note_on_c, 7, 71, 100
6, 110339, Note_off_c, 7, 71, 0
6, 110352, Note_off_c, 7, 62, 0
6, 110364, Note_off_c, 7, 67, 0
6, 110400, Note_on_c, 7, 67, 100
6, 110400, Note_on_c, 7, 62, 100
6, 110400, Note_on_c, 7, 71, 100
6, 110544, Note_off_c, 7, 71, 0
6, 110544, Note_off_c, 7, 62, 0
6, 110572, Note_off_c, 7, 67, 0
6, 110976, Note_on_c, 7, 69, 100
6, 110976, Note_on_c, 7, 62, 100
6, 110976, Note_on_c, 7, 66, 100
6, 111091, Note_off_c, 7, 66, 0
6, 111091, Note_off_c, 7, 62, 0
6, 111107, Note_off_c, 7, 69, 0
6, 111168, Note_on_c, 7, 66, 100
6, 111168, Note_on_c, 7, 62, 100
6, 111168, Note_on_c, 7, 69, 100
6, 111270, Note_off_c, 7, 62, 0
6, 111270, Note_off_c, 7, 66, 0
6, 111283, Note_off_c, 7, 69, 0
6, 111744, Note_on_c, 7, 69, 100
6, 111744, Note_on_c, 7, 62, 100
6, 111744, Note_on_c, 7, 66, 100
6, 111859, Note_off_c, 7, 66, 0
6, 111875, Note_off_c, 7, 62, 0
6, 111875, Note_off_c, 7, 69, 0
6, 111936, Note_on_c, 7, 62, 100
6, 111936, Note_on_c, 7, 66, 100
6, 111936, Note_on_c, 7, 69, 100
6, 112051, Note_off_c, 7, 66, 0
6, 112080, Note_off_c, 7, 69, 0
6, 112080, Note_off_c, 7, 62, 0
6, 112512, Note_on_c, 7, 60, 100
6, 112512, Note_on_c, 7, 69, 100
6, 112512, Note_on_c, 7, 66, 100
6, 112512, Note_on_c, 7, 62, 100
6, 112627, Note_off_c, 7, 62, 0
6, 112627, Note_off_c, 7, 66, 0
6, 112643, Note_off_c, 7, 60, 0
6, 112656, Note_off_c, 7, 69, 0
6, 112704, Note_on_c, 7, 66, 100
6, 112704, Note_on_c, 7, 60, 100
6, 112704, Note_on_c, 7, 69, 100
6, 112704, Note_on_c, 7, 62, 100
6, 112806, Note_off_c, 7, 62, 0
6, 112819, Note_off_c, 7, 66, 0
6, 112835, Note_off_c, 7, 60, 0
6, 112848, Note_off_c, 7, 69, 0
6, 113280, Note_on_c, 7, 66, 100
6, 113280, Note_on_c, 7, 60, 100
6, 113280, Note_on_c, 7, 69, 100
6, 113280, Note_on_c, 7, 62, 100
6, 113411, Note_off_c, 7, 62, 0
6, 113411, Note_off_c, 7, 60, 0
6, 113411, Note_off_c, 7, 66, 0
6, 113424, Note_off_c, 7, 69, 0
6, 114048, Note_on_c, 7, 62, 100
6, 114048, Note_on_c, 7, 60, 100
6, 114048, Note_on_c, 7, 66, 100
6, 114048, Note_on_c, 7, 69, 100
6, 114150, Note_off_c, 7, 66, 0
6, 114163, Note_off_c, 7, 62, 0
6, 114179, Note_off_c, 7, 69, 0
6, 114179, Note_off_c, 7, 60, 0
6, 114240, Note_on_c, 7, 69, 100
6, 114240, Note_on_c, 7, 66, 100
6, 114240, Note_on_c, 7, 60, 100
6, 114240, Note_on_c, 7, 62, 100
6, 114342, Note_off_c, 7, 62, 0
6, 114355, Note_off_c, 7, 66, 0
6, 114371, Note_off_c, 7, 60, 0
6, 114384, Note_off_c, 7, 69, 0
6, 114816, Note_on_c, 7, 60, 100
6, 114816, Note_on_c, 7, 66, 100
6, 114816, Note_on_c, 7, 69, 100
6, 114816, Note_on_c, 7, 62, 100
6, 114931, Note_off_c, 7, 62, 0
6, 114947, Note_off_c, 7, 69, 0
6, 114947, Note_off_c, 7, 66, 0
6, 114947, Note_off_c, 7, 60, 0
6, 115008, Note_on_c, 7, 60, 100
6, 115008, Note_on_c, 7, 66, 100
6, 115008, Note_on_c, 7, 62, 100
6, 115008, Note_on_c, 7, 69, 100
6, 115110, Note_off_c, 7, 62, 0
6, 115110, Note_off_c, 7, 66, 0
6, 115123, Note_off_c, 7, 69, 0
6, 115123, Note_off_c, 7, 60, 0
6, 115584, Note_on_c, 7, 60, 100
6, 115584, Note_on_c, 7, 69, 100
6, 115584, Note_on_c, 7, 66, 100
6, 115584, Note_on_c, 7, 62, 100
6, 115699, Note_off_c, 7, 62, 0
6, 115699, Note_off_c, 7, 66, 0
6, 115699, Note_off_c, 7, 69, 0
6, 115699, Note_off_c, 7, 60, 0
6, 115776, Note_on_c, 7, 60, 100
6, 115776, Note_on_c, 7, 69, 100
6, 115776, Note_on_c, 7, 66, 100
6, 115776, Note_on_c, 7, 62, 100
6, 115878, Note_off_c, 7, 62, 0
6, 115878, Note_off_c, 7, 66, 0
6, 115878, Note_off_c, 7, 60, 0
6, 115891, Note_off_c, 7, 69, 0
6, 116352, Note_on_c, 7, 66, 100
6, 116352, Note_on_c, 7, 69, 100
6, 116352, Note_on_c, 7, 62, 100
6, 116352, Note_on_c, 7, 60, 100
6, 116681, Note_off_c, 7, 60, 0
6, 116697, Note_off_c, 7, 62, 0
6, 116697, Note_off_c, 7, 69, 0
6, 116697, Note_off_c, 7, 66, 0
6, 117120, Note_on_c, 7, 62, 100
6, 117120, Note_on_c, 7, 67, 100
6, 117120, Note_on_c, 7, 71, 100
6, 117251, Note_off_c, 7, 71, 0
6, 117264, Note_off_c, 7, 67, 0
6, 117264, Note_off_c, 7, 62, 0
6, 117312, Note_on_c, 7, 62, 100
6, 117312, Note_on_c, 7, 71, 100
6, 117312, Note_on_c, 7, 67, 100
6, 117414, Note_off_c, 7, 71, 0
6, 117427, Note_off_c, 7, 67, 0
6, 117427, Note_off_c, 7, 62, 0
6, 117888, Note_on_c, 7, 62, 100
6, 117888, Note_on_c, 7, 67, 100
6, 117888, Note_on_c, 7, 71, 100
6, 118060, Note_off_c, 7, 67, 0
6, 118060, Note_off_c, 7, 62, 0
6, 118073, Note_off_c, 7, 71, 0
6, 118656, Note_on_c, 7, 62, 100
6, 118656, Note_on_c, 7, 67, 100
6, 118656, Note_on_c, 7, 71, 100
6, 118771, Note_off_c, 7, 71, 0
6, 118800, Note_off_c, 7, 67, 0
6, 118800, Note_off_c, 7, 62, 0
6, 118848, Note_on_c, 7, 67, 100
6, 118848, Note_on_c, 7, 62, 100
6, 118848, Note_on_c, 7, 71, 100
6, 118950, Note_off_c, 7, 71, 0
6, 118950, Note_off_c, 7, 62, 0
6, 118963, Note_off_c, 7, 67, 0
6, 119424, Note_on_c, 7, 62, 100
6, 119424, Note_on_c, 7, 71, 100
6, 119424, Note_on_c, 7, 67, 100
6, 119641, Note_off_c, 7, 71, 0
6, 119641, Note_off_c, 7, 62, 0
6, 119654, Note_off_c, 7, 67, 0
6, 120192, Note_on_c, 7, 71, 100
6, 120192, Note_on_c, 7, 62, 100
6, 120192, Note_on_c, 7, 67, 100
6, 120336, Note_off_c, 7, 67, 0
6, 120336, Note_off_c, 7, 71, 0
6, 120348, Note_off_c, 7, 62, 0
6, 120384, Note_on_c, 7, 67, 100
6, 120384, Note_on_c, 7, 62, 100
6, 120384, Note_on_c, 7, 71, 100
6, 120486, Note_off_c, 7, 71, 0
6, 120499, Note_off_c, 7, 62, 0
6, 120515, Note_off_c, 7, 67, 0
6, 120960, Note_on_c, 7, 67, 100
6, 120960, Note_on_c, 7, 71, 100
6, 120960, Note_on_c, 7, 62, 100
6, 121091, Note_off_c, 7, 71, 0
6, 121104, Note_off_c, 7, 62, 0
6, 121104, Note_off_c, 7, 67, 0
6, 121152, Note_on_c, 7, 62, 100
6, 121152, Note_on_c, 7, 71, 100
6, 121152, Note_on_c, 7, 67, 100
6, 121267, Note_off_c, 7, 67, 0
6, 121267, Note_off_c, 7, 71, 0
6, 121283, Note_off_c, 7, 62, 0
6, 121728, Note_on_c, 7, 71, 100
6, 121728, Note_on_c, 7, 63, 100
6, 121728, Note_on_c, 7, 66, 100
6, 121728, Note_on_c, 7, 59, 100
6, 121859, Note_off_c, 7, 59, 0
6, 121859, Note_off_c, 7, 63, 0
6, 121872, Note_off_c, 7, 66, 0
6, 121872, Note_off_c, 7, 71, 0
6, 121920, Note_on_c, 7, 59, 100
6, 121920, Note_on_c, 7, 63, 100
6, 121920, Note_on_c, 7, 66, 100
6, 121920, Note_on_c, 7, 71, 100
6, 122022, Note_off_c, 7, 66, 0
6, 122022, Note_off_c, 7, 63, 0
6, 122035, Note_off_c, 7, 59, 0
6, 122051, Note_off_c, 7, 71, 0
6, 122496, Note_on_c, 7, 69, 100
6, 122496, Note_on_c, 7, 59, 100
6, 122496, Note_on_c, 7, 66, 100
6, 122496, Note_on_c, 7, 63, 100
6, 122611, Note_off_c, 7, 66, 0
6, 122627, Note_off_c, 7, 63, 0
6, 122627, Note_off_c, 7, 69, 0
6, 122640, Note_off_c, 7, 59, 0
6, 122688, Note_on_c, 7, 63, 100
6, 122688, Note_on_c, 7, 69, 100
6, 122688, Note_on_c, 7, 59, 100
6, 122688, Note_on_c, 7, 66, 100
6, 122790, Note_off_c, 7, 66, 0
6, 122819, Note_off_c, 7, 63, 0
6, 122832, Note_off_c, 7, 59, 0
6, 122832, Note_off_c, 7, 69, 0
6, 123264, Note_on_c, 7, 67, 100
6, 123264, Note_on_c, 7, 64, 100
6, 123264, Note_on_c, 7, 59, 100
6, 123395, Note_off_c, 7, 59, 0
6, 123395, Note_off_c, 7, 64, 0
6, 123395, Note_off_c, 7, 67, 0
6, 123456, Note_on_c, 7, 59, 100
6, 123456, Note_on_c, 7, 64, 100
6, 123456, Note_on_c, 7, 67, 100
6, 123558, Note_off_c, 7, 67, 0
6, 123571, Note_off_c, 7, 64, 0
6, 123571, Note_off_c, 7, 59, 0
6, 124032, Note_on_c, 7, 59, 100
6, 124032, Note_on_c, 7, 64, 100
6, 124032, Note_on_c, 7, 67, 100
6, 124163, Note_off_c, 7, 67, 0
6, 124176, Note_off_c, 7, 64, 0
6, 124176, Note_off_c, 7, 59, 0
6, 124224, Note_on_c, 7, 67, 100
6, 124224, Note_on_c, 7, 59, 100
6, 124224, Note_on_c, 7, 64, 100
6, 124368, Note_off_c, 7, 64, 0
6, 124368, Note_off_c, 7, 59, 0
6, 124368, Note_off_c, 7, 67, 0
6, 124800, Note_on_c, 7, 67, 100
6, 124800, Note_on_c, 7, 64, 100
6, 124800, Note_on_c, 7, 60, 100
6, 124915, Note_off_c, 7, 60, 0
6, 124944, Note_off_c, 7, 64, 0
6, 124944, Note_off_c, 7, 67, 0
6, 124992, Note_on_c, 7, 60, 100
6, 124992, Note_on_c, 7, 64, 100
6, 124992, Note_on_c, 7, 67, 100
6, 125107, Note_off_c, 7, 64, 0
6, 125107, Note_off_c, 7, 60, 0
6, 125123, Note_off_c, 7, 67, 0
6, 125568, Note_on_c, 7, 64, 100
6, 125568, Note_on_c, 7, 60, 100
6, 125568, Note_on_c, 7, 67, 100
6, 125699, Note_off_c, 7, 67, 0
6, 125699, Note_off_c, 7, 60, 0
6, 125712, Note_off_c, 7, 64, 0
6, 125760, Note_on_c, 7, 60, 100
6, 125760, Note_on_c, 7, 67, 100
6, 125760, Note_on_c, 7, 64, 100
6, 125760, Note_on_c, 7, 65, 100
6, 125772, Note_off_c, 7, 65, 0
6, 125891, Note_off_c, 7, 60, 0
6, 125904, Note_off_c, 7, 64, 0
6, 125916, Note_off_c, 7, 67, 0
6, 126336, Note_on_c, 7, 71, 100
6, 126336, Note_on_c, 7, 62, 100
6, 126336, Note_on_c, 7, 67, 100
6, 126451, Note_off_c, 7, 71, 0
6, 126467, Note_off_c, 7, 67, 0
6, 126480, Note_off_c, 7, 62, 0
6, 126528, Note_on_c, 7, 62, 100
6, 126528, Note_on_c, 7, 71, 100
6, 126528, Note_on_c, 7, 67, 100
6, 126659, Note_off_c, 7, 67, 0
6, 126659, Note_off_c, 7, 71, 0
6, 126672, Note_off_c, 7, 62, 0
6, 127104, Note_on_c, 7, 62, 100
6, 127104, Note_on_c, 7, 67, 100
6, 127104, Note_on_c, 7, 71, 100
6, 127248, Note_off_c, 7, 71, 0
6, 127260, Note_off_c, 7, 67, 0
6, 127276, Note_off_c, 7, 62, 0
6, 127296, Note_on_c, 7, 67, 100
6, 127296, Note_on_c, 7, 62, 100
6, 127296, Note_on_c, 7, 71, 100
6, 127427, Note_off_c, 7, 71, 0
6, 127440, Note_off_c, 7, 62, 0
6, 127452, Note_off_c, 7, 67, 0
6, 127872, Note_on_c, 7, 62, 100
6, 127872, Note_on_c, 7, 66, 100
6, 127872, Note_on_c, 7, 69, 100
6, 128003, Note_off_c, 7, 69, 0
6, 128016, Note_off_c, 7, 66, 0
6, 128016, Note_off_c, 7, 62, 0
6, 128064, Note_on_c, 7, 66, 100
6, 128064, Note_on_c, 7, 69, 100
6, 128064, Note_on_c, 7, 62, 100
6, 128195, Note_off_c, 7, 62, 0
6, 128208, Note_off_c, 7, 66, 0
6, 128220, Note_off_c, 7, 69, 0
6, 128640, Note_on_c, 7, 66, 100
6, 128640, Note_on_c, 7, 62, 100
6, 128640, Note_on_c, 7, 69, 100
6, 128886, Note_off_c, 7, 66, 0
6, 128915, Note_off_c, 7, 69, 0
6, 128915, Note_off_c, 7, 62, 0
6, 129408, Note_on_c, 7, 67, 100
6, 129408, Note_on_c, 7, 71, 100
6, 129408, Note_on_c, 7, 62, 100
6, 129552, Note_off_c, 7, 62, 0
6, 129552, Note_off_c, 7, 71, 0
6, 129552, Note_off_c, 7, 67, 0
6, 129600, Note_on_c, 7, 62, 100
6, 129600, Note_on_c, 7, 67, 100
6, 129600, Note_on_c, 7, 71, 100
6, 129715, Note_off_c, 7, 71, 0
6, 129715, Note_off_c, 7, 67, 0
6, 129731, Note_off_c, 7, 62, 0
6, 130176, Note_on_c, 7, 62, 100
6, 130176, Note_on_c, 7, 67, 100
6, 130176, Note_on_c, 7, 71, 100
6, 130476, Note_off_c, 7, 71, 0
6, 130492, Note_off_c, 7, 67, 0
6, 130492, Note_off_c, 7, 62, 0
6, 130944, Note_on_c, 7, 67, 100
6, 130944, Note_on_c, 7, 64, 100
6, 130944, Note_on_c, 7, 60, 100
6, 131059, Note_off_c, 7, 60, 0
6, 131088, Note_off_c, 7, 64, 0
6, 131088, Note_off_c, 7, 67, 0
6, 131136, Note_on_c, 7, 60, 100
6, 131136, Note_on_c, 7, 64, 100
6, 131136, Note_on_c, 7, 67, 100
6, 131251, Note_off_c, 7, 64, 0
6, 131251, Note_off_c, 7, 60, 0
6, 131267, Note_off_c, 7, 67, 0
6, 131712, Note_on_c, 7, 64, 100
6, 131712, Note_on_c, 7, 60, 100
6, 131712, Note_on_c, 7, 67, 100
6, 131843, Note_off_c, 7, 67, 0
6, 131843, Note_off_c, 7, 60, 0
6, 131856, Note_off_c, 7, 64, 0
6, 131904, Note_on_c, 7, 60, 100
6, 131904, Note_on_c, 7, 67, 100
6, 131904, Note_on_c, 7, 64, 100
6, 131904, Note_on_c, 7, 65, 100
6, 131916, Note_off_c, 7, 65, 0
6, 132035, Note_off_c, 7, 60, 0
6, 132048, Note_off_c, 7, 64, 0
6, 132060, Note_off_c, 7, 67, 0
6, 132480, Note_on_c, 7, 71, 100
6, 132480, Note_on_c, 7, 62, 100
6, 132480, Note_on_c, 7, 67, 100
6, 132595, Note_off_c, 7, 71, 0
6, 132611, Note_off_c, 7, 67, 0
6, 132624, Note_off_c, 7, 62, 0
6, 132672, Note_on_c, 7, 62, 100
6, 132672, Note_on_c, 7, 71, 100
6, 132672, Note_on_c, 7, 67, 100
6, 132803, Note_off_c, 7, 67, 0
6, 132803, Note_off_c, 7, 71, 0
6, 132816, Note_off_c, 7, 62, 0
6, 133248, Note_on_c, 7, 62, 100
6, 133248, Note_on_c, 7, 67, 100
6, 133248, Note_on_c, 7, 71, 100
6, 133392, Note_off_c, 7, 71, 0
6, 133404, Note_off_c, 7, 67, 0
6, 133420, Note_off_c, 7, 62, 0
6, 133440, Note_on_c, 7, 67, 100
6, 133440, Note_on_c, 7, 62, 100
6, 133440, Note_on_c, 7, 71, 100
6, 133571, Note_off_c, 7, 71, 0
6, 133584, Note_off_c, 7, 62, 0
6, 133596, Note_off_c, 7, 67, 0
6, 134016, Note_on_c, 7, 62, 100
6, 134016, Note_on_c, 7, 66, 100
6, 134016, Note_on_c, 7, 69, 100
6, 134147, Note_off_c, 7, 69, 0
6, 134160, Note_off_c, 7, 66, 0
6, 134160, Note_off_c, 7, 62, 0
6, 134208, Note_on_c, 7, 66, 100
6, 134208, Note_on_c, 7, 69, 100
6, 134208, Note_on_c, 7, 62, 100
6, 134339, Note_off_c, 7, 62, 0
6, 134352, Note_off_c, 7, 66, 0
6, 134364, Note_off_c, 7, 69, 0
6, 134784, Note_on_c, 7, 66, 100
6, 134784, Note_on_c, 7, 62, 100
6, 134784, Note_on_c, 7, 69, 100
6, 135030, Note_off_c, 7, 66, 0
6, 135059, Note_off_c, 7, 69, 0
6, 135059, Note_off_c, 7, 62, 0
6, 135168, Note_on_c, 7, 71, 100
6, 135168, Note_on_c, 7, 62, 100
6, 135168, Note_on_c, 7, 67, 100
6, 137430, Note_off_c, 7, 67, 0
6, 137430, Note_off_c, 7, 62, 0
6, 137430, Note_off_c, 7, 71, 0
6, 138240, End_track
7, 0, Start_track
7, 0, Title_t, "drums"
7, 0, Control_c, 9, 121, 0
7, 0, Control_c, 9, 11, 127
7, 0, Control_c, 9, 91, 70
7, 0, Control_c, 9, 93, 0
7, 528, Control_c, 9, 0, 0
7, 531, Control_c, 9, 32, 0
7, 534, Program_c, 9, 40
7, 537, Control_c, 9, 7, 95
7, 537, Control_c, 9, 10, 64
7, 1536, Note_on_c, 9, 42, 100
7, 1792, Note_off_c, 9, 42, 0
7, 2304, Note_on_c, 9, 42, 100
7, 2560, Note_off_c, 9, 42, 0
7, 16896, Note_on_c, 9, 36, 100
7, 16896, Note_on_c, 9, 49, 86
7, 16985, Note_off_c, 9, 49, 0
7, 16985, Note_off_c, 9, 36, 0
7, 17088, Note_on_c, 9, 42, 100
7, 17177, Note_off_c, 9, 42, 0
7, 17280, Note_on_c, 9, 39, 100
7, 17280, Note_on_c, 9, 42, 100
7, 17369, Note_off_c, 9, 42, 0
7, 17369, Note_off_c, 9, 39, 0
7, 17472, Note_on_c, 9, 42, 100
7, 17561, Note_off_c, 9, 42, 0
7, 17664, Note_on_c, 9, 36, 100
7, 17664, Note_on_c, 9, 42, 100
7, 17753, Note_off_c, 9, 42, 0
7, 17753, Note_off_c, 9, 36, 0
7, 17856, Note_on_c, 9, 42, 100
7, 17945, Note_off_c, 9, 42, 0
7, 18048, Note_on_c, 9, 39, 100
7, 18048, Note_on_c, 9, 42, 100
7, 18137, Note_off_c, 9, 42, 0
7, 18137, Note_off_c, 9, 39, 0
7, 18240, Note_on_c, 9, 42, 100
7, 18329, Note_off_c, 9, 42, 0
7, 18432, Note_on_c, 9, 36, 100
7, 18432, Note_on_c, 9, 42, 100
7, 18521, Note_off_c, 9, 42, 0
7, 18521, Note_off_c, 9, 36, 0
7, 18624, Note_on_c, 9, 42, 100
7, 18713, Note_off_c, 9, 42, 0
7, 18816, Note_on_c, 9, 39, 100
7, 18816, Note_on_c, 9, 42, 100
7, 18905, Note_off_c, 9, 42, 0
7, 18905, Note_off_c, 9, 39, 0
7, 19008, Note_on_c, 9, 42, 100
7, 19097, Note_off_c, 9, 42, 0
7, 19200, Note_on_c, 9, 36, 100
7, 19200, Note_on_c, 9, 42, 100
7, 19289, Note_off_c, 9, 42, 0
7, 19289, Note_off_c, 9, 36, 0
7, 19392, Note_on_c, 9, 42, 100
7, 19481, Note_off_c, 9, 42, 0
7, 19584, Note_on_c, 9, 39, 100
7, 19584, Note_on_c, 9, 42, 100
7, 19673, Note_off_c, 9, 42, 0
7, 19673, Note_off_c, 9, 39, 0
7, 19776, Note_on_c, 9, 42, 100
7, 19865, Note_off_c, 9, 42, 0
7, 19968, Note_on_c, 9, 36, 100
7, 19968, Note_on_c, 9, 42, 100
7, 20057, Note_off_c, 9, 42, 0
7, 20057, Note_off_c, 9, 36, 0
7, 20160, Note_on_c, 9, 42, 100
7, 20249, Note_off_c, 9, 42, 0
7, 20352, Note_on_c, 9, 39, 100
7, 20352, Note_on_c, 9, 42, 100
7, 20441, Note_off_c, 9, 42, 0
7, 20441, Note_off_c, 9, 39, 0
7, 20544, Note_on_c, 9, 42, 100
7, 20633, Note_off_c, 9, 42, 0
7, 20736, Note_on_c, 9, 36, 100
7, 20736, Note_on_c, 9, 42, 100
7, 20825, Note_off_c, 9, 42, 0
7, 20825, Note_off_c, 9, 36, 0
7, 20928, Note_on_c, 9, 42, 100
7, 21017, Note_off_c, 9, 42, 0
7, 21120, Note_on_c, 9, 39, 100
7, 21120, Note_on_c, 9, 42, 100
7, 21209, Note_off_c, 9, 42, 0
7, 21209, Note_off_c, 9, 39, 0
7, 21312, Note_on_c, 9, 42, 100
7, 21401, Note_off_c, 9, 42, 0
7, 21504, Note_on_c, 9, 36, 100
7, 21504, Note_on_c, 9, 42, 100
7, 21593, Note_off_c, 9, 42, 0
7, 21593, Note_off_c, 9, 36, 0
7, 21696, Note_on_c, 9, 42, 100
7, 21785, Note_off_c, 9, 42, 0
7, 21888, Note_on_c, 9, 39, 100
7, 21888, Note_on_c, 9, 42, 100
7, 21977, Note_off_c, 9, 42, 0
7, 21977, Note_off_c, 9, 39, 0
7, 22080, Note_on_c, 9, 42, 100
7, 22169, Note_off_c, 9, 42, 0
7, 22272, Note_on_c, 9, 36, 100
7, 22272, Note_on_c, 9, 42, 100
7, 22361, Note_off_c, 9, 42, 0
7, 22361, Note_off_c, 9, 36, 0
7, 22464, Note_on_c, 9, 42, 100
7, 22553, Note_off_c, 9, 42, 0
7, 22656, Note_on_c, 9, 39, 100
7, 22656, Note_on_c, 9, 42, 100
7, 22745, Note_off_c, 9, 42, 0
7, 22745, Note_off_c, 9, 39, 0
7, 22848, Note_on_c, 9, 42, 100
7, 22937, Note_off_c, 9, 42, 0
7, 23040, Note_on_c, 9, 36, 100
7, 23040, Note_on_c, 9, 42, 100
7, 23129, Note_off_c, 9, 42, 0
7, 23129, Note_off_c, 9, 36, 0
7, 23232, Note_on_c, 9, 42, 100
7, 23321, Note_off_c, 9, 42, 0
7, 23424, Note_on_c, 9, 39, 100
7, 23424, Note_on_c, 9, 42, 100
7, 23513, Note_off_c, 9, 42, 0
7, 23513, Note_off_c, 9, 39, 0
7, 23616, Note_on_c, 9, 42, 100
7, 23705, Note_off_c, 9, 42, 0
7, 23808, Note_on_c, 9, 36, 100
7, 23808, Note_on_c, 9, 42, 100
7, 23897, Note_off_c, 9, 42, 0
7, 23897, Note_off_c, 9, 36, 0
7, 24000, Note_on_c, 9, 42, 100
7, 24089, Note_off_c, 9, 42, 0
7, 24192, Note_on_c, 9, 39, 100
7, 24192, Note_on_c, 9, 42, 100
7, 24281, Note_off_c, 9, 42, 0
7, 24281, Note_off_c, 9, 39, 0
7, 24384, Note_on_c, 9, 42, 100
7, 24473, Note_off_c, 9, 42, 0
7, 24576, Note_on_c, 9, 36, 100
7, 24576, Note_on_c, 9, 42, 100
7, 24665, Note_off_c, 9, 42, 0
7, 24665, Note_off_c, 9, 36, 0
7, 24768, Note_on_c, 9, 42, 100
7, 24857, Note_off_c, 9, 42, 0
7, 24960, Note_on_c, 9, 39, 100
7, 24960, Note_on_c, 9, 42, 100
7, 25049, Note_off_c, 9, 42, 0
7, 25049, Note_off_c, 9, 39, 0
7, 25152, Note_on_c, 9, 42, 100
7, 25241, Note_off_c, 9, 42, 0
7, 25344, Note_on_c, 9, 36, 100
7, 25344, Note_on_c, 9, 42, 100
7, 25433, Note_off_c, 9, 42, 0
7, 25433, Note_off_c, 9, 36, 0
7, 25536, Note_on_c, 9, 42, 100
7, 25625, Note_off_c, 9, 42, 0
7, 25728, Note_on_c, 9, 39, 100
7, 25728, Note_on_c, 9, 42, 100
7, 25817, Note_off_c, 9, 42, 0
7, 25817, Note_off_c, 9, 39, 0
7, 25920, Note_on_c, 9, 42, 100
7, 26009, Note_off_c, 9, 42, 0
7, 26112, Note_on_c, 9, 36, 100
7, 26112, Note_on_c, 9, 42, 100
7, 26201, Note_off_c, 9, 42, 0
7, 26201, Note_off_c, 9, 36, 0
7, 26304, Note_on_c, 9, 42, 100
7, 26393, Note_off_c, 9, 42, 0
7, 26496, Note_on_c, 9, 39, 100
7, 26496, Note_on_c, 9, 42, 100
7, 26585, Note_off_c, 9, 42, 0
7, 26585, Note_off_c, 9, 39, 0
7, 26688, Note_on_c, 9, 42, 100
7, 26777, Note_off_c, 9, 42, 0
7, 26880, Note_on_c, 9, 36, 100
7, 26880, Note_on_c, 9, 42, 100
7, 26969, Note_off_c, 9, 42, 0
7, 26969, Note_off_c, 9, 36, 0
7, 27072, Note_on_c, 9, 42, 100
7, 27161, Note_off_c, 9, 42, 0
7, 27264, Note_on_c, 9, 39, 100
7, 27264, Note_on_c, 9, 42, 100
7, 27353, Note_off_c, 9, 42, 0
7, 27353, Note_off_c, 9, 39, 0
7, 27456, Note_on_c, 9, 42, 100
7, 27545, Note_off_c, 9, 42, 0
7, 27648, Note_on_c, 9, 36, 100
7, 27648, Note_on_c, 9, 42, 100
7, 27737, Note_off_c, 9, 42, 0
7, 27737, Note_off_c, 9, 36, 0
7, 27840, Note_on_c, 9, 42, 100
7, 27929, Note_off_c, 9, 42, 0
7, 28032, Note_on_c, 9, 39, 100
7, 28032, Note_on_c, 9, 42, 100
7, 28121, Note_off_c, 9, 42, 0
7, 28121, Note_off_c, 9, 39, 0
7, 28224, Note_on_c, 9, 42, 100
7, 28313, Note_off_c, 9, 42, 0
7, 28416, Note_on_c, 9, 36, 100
7, 28416, Note_on_c, 9, 42, 100
7, 28505, Note_off_c, 9, 42, 0
7, 28505, Note_off_c, 9, 36, 0
7, 28608, Note_on_c, 9, 42, 100
7, 28697, Note_off_c, 9, 42, 0
7, 28800, Note_on_c, 9, 39, 100
7, 28800, Note_on_c, 9, 42, 100
7, 28889, Note_off_c, 9, 42, 0
7, 28889, Note_off_c, 9, 39, 0
7, 28992, Note_on_c, 9, 42, 100
7, 29081, Note_off_c, 9, 42, 0
7, 29184, Note_on_c, 9, 36, 100
7, 29184, Note_on_c, 9, 42, 100
7, 29273, Note_off_c, 9, 42, 0
7, 29273, Note_off_c, 9, 36, 0
7, 29376, Note_on_c, 9, 42, 100
7, 29465, Note_off_c, 9, 42, 0
7, 29568, Note_on_c, 9, 39, 100
7, 29568, Note_on_c, 9, 42, 100
7, 29657, Note_off_c, 9, 42, 0
7, 29657, Note_off_c, 9, 39, 0
7, 29760, Note_on_c, 9, 42, 100
7, 29849, Note_off_c, 9, 42, 0
7, 29952, Note_on_c, 9, 36, 100
7, 29952, Note_on_c, 9, 42, 100
7, 30041, Note_off_c, 9, 42, 0
7, 30041, Note_off_c, 9, 36, 0
7, 30144, Note_on_c, 9, 42, 100
7, 30233, Note_off_c, 9, 42, 0
7, 30336, Note_on_c, 9, 39, 100
7, 30336, Note_on_c, 9, 42, 100
7, 30425, Note_off_c, 9, 42, 0
7, 30425, Note_off_c, 9, 39, 0
7, 30528, Note_on_c, 9, 42, 100
7, 30617, Note_off_c, 9, 42, 0
7, 30720, Note_on_c, 9, 36, 100
7, 30720, Note_on_c, 9, 42, 100
7, 30809, Note_off_c, 9, 42, 0
7, 30809, Note_off_c, 9, 36, 0
7, 30912, Note_on_c, 9, 42, 100
7, 31001, Note_off_c, 9, 42, 0
7, 31104, Note_on_c, 9, 39, 100
7, 31104, Note_on_c, 9, 42, 100
7, 31193, Note_off_c, 9, 42, 0
7, 31193, Note_off_c, 9, 39, 0
7, 31296, Note_on_c, 9, 42, 100
7, 31385, Note_off_c, 9, 42, 0
7, 31488, Note_on_c, 9, 36, 100
7, 31488, Note_on_c, 9, 42, 100
7, 31577, Note_off_c, 9, 42, 0
7, 31577, Note_off_c, 9, 36, 0
7, 31680, Note_on_c, 9, 42, 100
7, 31769, Note_off_c, 9, 42, 0
7, 31872, Note_on_c, 9, 39, 100
7, 31872, Note_on_c, 9, 42, 100
7, 31961, Note_off_c, 9, 42, 0
7, 31961, Note_off_c, 9, 39, 0
7, 32064, Note_on_c, 9, 42, 100
7, 32153, Note_off_c, 9, 42, 0
7, 32256, Note_on_c, 9, 36, 100
7, 32256, Note_on_c, 9, 42, 100
7, 32345, Note_off_c, 9, 42, 0
7, 32345, Note_off_c, 9, 36, 0
7, 32448, Note_on_c, 9, 42, 100
7, 32537, Note_off_c, 9, 42, 0
7, 32640, Note_on_c, 9, 39, 100
7, 32640, Note_on_c, 9, 42, 100
7, 32729, Note_off_c, 9, 42, 0
7, 32729, Note_off_c, 9, 39, 0
7, 32832, Note_on_c, 9, 42, 100
7, 32921, Note_off_c, 9, 42, 0
7, 33024, Note_on_c, 9, 36, 100
7, 33024, Note_on_c, 9, 42, 100
7, 33113, Note_off_c, 9, 42, 0
7, 33113, Note_off_c, 9, 36, 0
7, 33216, Note_on_c, 9, 42, 100
7, 33305, Note_off_c, 9, 42, 0
7, 33408, Note_on_c, 9, 39, 100
7, 33408, Note_on_c, 9, 42, 100
7, 33497, Note_off_c, 9, 42, 0
7, 33497, Note_off_c, 9, 39, 0
7, 33600, Note_on_c, 9, 42, 100
7, 33689, Note_off_c, 9, 42, 0
7, 33792, Note_on_c, 9, 36, 100
7, 33792, Note_on_c, 9, 42, 100
7, 33881, Note_off_c, 9, 42, 0
7, 33881, Note_off_c, 9, 36, 0
7, 33984, Note_on_c, 9, 42, 100
7, 34073, Note_off_c, 9, 42, 0
7, 34176, Note_on_c, 9, 39, 100
7, 34176, Note_on_c, 9, 42, 100
7, 34265, Note_off_c, 9, 42, 0
7, 34265, Note_off_c, 9, 39, 0
7, 34368, Note_on_c, 9, 42, 100
7, 34457, Note_off_c, 9, 42, 0
7, 34560, Note_on_c, 9, 36, 100
7, 34560, Note_on_c, 9, 42, 100
7, 34649, Note_off_c, 9, 42, 0
7, 34649, Note_off_c, 9, 36, 0
7, 34752, Note_on_c, 9, 42, 100
7, 34841, Note_off_c, 9, 42, 0
7, 34944, Note_on_c, 9, 39, 100
7, 34944, Note_on_c, 9, 42, 100
7, 35033, Note_off_c, 9, 42, 0
7, 35033, Note_off_c, 9, 39, 0
7, 35136, Note_on_c, 9, 42, 100
7, 35225, Note_off_c, 9, 42, 0
7, 35328, Note_on_c, 9, 36, 100
7, 35328, Note_on_c, 9, 42, 100
7, 35417, Note_off_c, 9, 42, 0
7, 35417, Note_off_c, 9, 36, 0
7, 35520, Note_on_c, 9, 42, 100
7, 35609, Note_off_c, 9, 42, 0
7, 35712, Note_on_c, 9, 39, 100
7, 35712, Note_on_c, 9, 42, 100
7, 35801, Note_off_c, 9, 42, 0
7, 35801, Note_off_c, 9, 39, 0
7, 35904, Note_on_c, 9, 42, 100
7, 35993, Note_off_c, 9, 42, 0
7, 36096, Note_on_c, 9, 36, 100
7, 36096, Note_on_c, 9, 42, 100
7, 36185, Note_off_c, 9, 42, 0
7, 36185, Note_off_c, 9, 36, 0
7, 36288, Note_on_c, 9, 42, 100
7, 36377, Note_off_c, 9, 42, 0
7, 36480, Note_on_c, 9, 39, 100
7, 36480, Note_on_c, 9, 42, 100
7, 36569, Note_off_c, 9, 42, 0
7, 36569, Note_off_c, 9, 39, 0
7, 36672, Note_on_c, 9, 42, 100
7, 36761, Note_off_c, 9, 42, 0
7, 36864, Note_on_c, 9, 36, 100
7, 36864, Note_on_c, 9, 42, 100
7, 36953, Note_off_c, 9, 42, 0
7, 36953, Note_off_c, 9, 36, 0
7, 37056, Note_on_c, 9, 42, 100
7, 37145, Note_off_c, 9, 42, 0
7, 37248, Note_on_c, 9, 39, 100
7, 37248, Note_on_c, 9, 42, 100
7, 37337, Note_off_c, 9, 42, 0
7, 37337, Note_off_c, 9, 39, 0
7, 37440, Note_on_c, 9, 42, 100
7, 37529, Note_off_c, 9, 42, 0
7, 37632, Note_on_c, 9, 36, 100
7, 37632, Note_on_c, 9, 42, 100
7, 37721, Note_off_c, 9, 42, 0
7, 37721, Note_off_c, 9, 36, 0
7, 37824, Note_on_c, 9, 42, 100
7, 37913, Note_off_c, 9, 42, 0
7, 38016, Note_on_c, 9, 39, 100
7, 38016, Note_on_c, 9, 42, 100
7, 38105, Note_off_c, 9, 42, 0
7, 38105, Note_off_c, 9, 39, 0
7, 38208, Note_on_c, 9, 42, 100
7, 38297, Note_off_c, 9, 42, 0
7, 38400, Note_on_c, 9, 36, 100
7, 38400, Note_on_c, 9, 42, 100
7, 38489, Note_off_c, 9, 42, 0
7, 38489, Note_off_c, 9, 36, 0
7, 38592, Note_on_c, 9, 42, 100
7, 38681, Note_off_c, 9, 42, 0
7, 38784, Note_on_c, 9, 39, 100
7, 38784, Note_on_c, 9, 42, 100
7, 38873, Note_off_c, 9, 42, 0
7, 38873, Note_off_c, 9, 39, 0
7, 38976, Note_on_c, 9, 42, 100
7, 39065, Note_off_c, 9, 42, 0
7, 39168, Note_on_c, 9, 36, 100
7, 39168, Note_on_c, 9, 42, 100
7, 39257, Note_off_c, 9, 42, 0
7, 39257, Note_off_c, 9, 36, 0
7, 39360, Note_on_c, 9, 42, 100
7, 39449, Note_off_c, 9, 42, 0
7, 39552, Note_on_c, 9, 39, 100
7, 39552, Note_on_c, 9, 42, 100
7, 39641, Note_off_c, 9, 42, 0
7, 39641, Note_off_c, 9, 39, 0
7, 39744, Note_on_c, 9, 42, 100
7, 39833, Note_off_c, 9, 42, 0
7, 39936, Note_on_c, 9, 36, 100
7, 39936, Note_on_c, 9, 42, 100
7, 40025, Note_off_c, 9, 42, 0
7, 40025, Note_off_c, 9, 36, 0
7, 40128, Note_on_c, 9, 42, 100
7, 40217, Note_off_c, 9, 42, 0
7, 40320, Note_on_c, 9, 39, 100
7, 40320, Note_on_c, 9, 42, 100
7, 40409, Note_off_c, 9, 42, 0
7, 40409, Note_off_c, 9, 39, 0
7, 40512, Note_on_c, 9, 42, 100
7, 40601, Note_off_c, 9, 42, 0
7, 40704, Note_on_c, 9, 36, 100
7, 40704, Note_on_c, 9, 42, 100
7, 40793, Note_off_c, 9, 42, 0
7, 40793, Note_off_c, 9, 36, 0
7, 40896, Note_on_c, 9, 42, 100
7, 40985, Note_off_c, 9, 42, 0
7, 41088, Note_on_c, 9, 39, 100
7, 41088, Note_on_c, 9, 42, 100
7, 41177, Note_off_c, 9, 42, 0
7, 41177, Note_off_c, 9, 39, 0
7, 41280, Note_on_c, 9, 42, 100
7, 41369, Note_off_c, 9, 42, 0
7, 41472, Note_on_c, 9, 36, 100
7, 41472, Note_on_c, 9, 42, 100
7, 41561, Note_off_c, 9, 42, 0
7, 41561, Note_off_c, 9, 36, 0
7, 41664, Note_on_c, 9, 42, 100
7, 41753, Note_off_c, 9, 42, 0
7, 41856, Note_on_c, 9, 39, 100
7, 41856, Note_on_c, 9, 42, 100
7, 41945, Note_off_c, 9, 42, 0
7, 41945, Note_off_c, 9, 39, 0
7, 42048, Note_on_c, 9, 42, 100
7, 42137, Note_off_c, 9, 42, 0
7, 42240, Note_on_c, 9, 36, 100
7, 42240, Note_on_c, 9, 42, 100
7, 42329, Note_off_c, 9, 42, 0
7, 42329, Note_off_c, 9, 36, 0
7, 42432, Note_on_c, 9, 42, 100
7, 42521, Note_off_c, 9, 42, 0
7, 42624, Note_on_c, 9, 39, 100
7, 42624, Note_on_c, 9, 42, 100
7, 42713, Note_off_c, 9, 42, 0
7, 42713, Note_off_c, 9, 39, 0
7, 42816, Note_on_c, 9, 42, 100
7, 42905, Note_off_c, 9, 42, 0
7, 43008, Note_on_c, 9, 36, 100
7, 43008, Note_on_c, 9, 42, 100
7, 43097, Note_off_c, 9, 42, 0
7, 43097, Note_off_c, 9, 36, 0
7, 43200, Note_on_c, 9, 42, 100
7, 43289, Note_off_c, 9, 42, 0
7, 43392, Note_on_c, 9, 39, 100
7, 43392, Note_on_c, 9, 42, 100
7, 43481, Note_off_c, 9, 42, 0
7, 43481, Note_off_c, 9, 39, 0
7, 43584, Note_on_c, 9, 42, 100
7, 43673, Note_off_c, 9, 42, 0
7, 43776, Note_on_c, 9, 36, 100
7, 43776, Note_on_c, 9, 42, 100
7, 43865, Note_off_c, 9, 42, 0
7, 43865, Note_off_c, 9, 36, 0
7, 43968, Note_on_c, 9, 42, 100
7, 44057, Note_off_c, 9, 42, 0
7, 44160, Note_on_c, 9, 39, 100
7, 44160, Note_on_c, 9, 42, 100
7, 44249, Note_off_c, 9, 42, 0
7, 44249, Note_off_c, 9, 39, 0
7, 44352, Note_on_c, 9, 42, 100
7, 44441, Note_off_c, 9, 42, 0
7, 44544, Note_on_c, 9, 36, 100
7, 44544, Note_on_c, 9, 42, 100
7, 44633, Note_off_c, 9, 42, 0
7, 44633, Note_off_c, 9, 36, 0
7, 44736, Note_on_c, 9, 42, 100
7, 44825, Note_off_c, 9, 42, 0
7, 44928, Note_on_c, 9, 39, 100
7, 44928, Note_on_c, 9, 42, 100
7, 45017, Note_off_c, 9, 42, 0
7, 45017, Note_off_c, 9, 39, 0
7, 45120, Note_on_c, 9, 42, 100
7, 45209, Note_off_c, 9, 42, 0
7, 45312, Note_on_c, 9, 36, 100
7, 45312, Note_on_c, 9, 42, 100
7, 45401, Note_off_c, 9, 42, 0
7, 45401, Note_off_c, 9, 36, 0
7, 45504, Note_on_c, 9, 42, 100
7, 45593, Note_off_c, 9, 42, 0
7, 45696, Note_on_c, 9, 39, 100
7, 45696, Note_on_c, 9, 42, 100
7, 45785, Note_off_c, 9, 42, 0
7, 45785, Note_off_c, 9, 39, 0
7, 45888, Note_on_c, 9, 42, 100
7, 45977, Note_off_c, 9, 42, 0
7, 46080, Note_on_c, 9, 36, 100
7, 46080, Note_on_c, 9, 49, 71
7, 46169, Note_off_c, 9, 49, 0
7, 46169, Note_off_c, 9, 36, 0
7, 61440, Note_on_c, 9, 36, 100
7, 61440, Note_on_c, 9, 49, 86
7, 61529, Note_off_c, 9, 49, 0
7, 61529, Note_off_c, 9, 36, 0
7, 61632, Note_on_c, 9, 42, 100
7, 61721, Note_off_c, 9, 42, 0
7, 61824, Note_on_c, 9, 39, 100
7, 61824, Note_on_c, 9, 42, 100
7, 61913, Note_off_c, 9, 42, 0
7, 61913, Note_off_c, 9, 39, 0
7, 62016, Note_on_c, 9, 42, 100
7, 62105, Note_off_c, 9, 42, 0
7, 62208, Note_on_c, 9, 36, 100
7, 62208, Note_on_c, 9, 42, 100
7, 62297, Note_off_c, 9, 42, 0
7, 62297, Note_off_c, 9, 36, 0
7, 62400, Note_on_c, 9, 42, 100
7, 62489, Note_off_c, 9, 42, 0
7, 62592, Note_on_c, 9, 39, 100
7, 62592, Note_on_c, 9, 42, 100
7, 62681, Note_off_c, 9, 42, 0
7, 62681, Note_off_c, 9, 39, 0
7, 62784, Note_on_c, 9, 42, 100
7, 62873, Note_off_c, 9, 42, 0
7, 62976, Note_on_c, 9, 36, 100
7, 62976, Note_on_c, 9, 42, 100
7, 63065, Note_off_c, 9, 42, 0
7, 63065, Note_off_c, 9, 36, 0
7, 63168, Note_on_c, 9, 42, 100
7, 63257, Note_off_c, 9, 42, 0
7, 63360, Note_on_c, 9, 39, 100
7, 63360, Note_on_c, 9, 42, 100
7, 63449, Note_off_c, 9, 42, 0
7, 63449, Note_off_c, 9, 39, 0
7, 63552, Note_on_c, 9, 42, 100
7, 63641, Note_off_c, 9, 42, 0
7, 63744, Note_on_c, 9, 36, 100
7, 63744, Note_on_c, 9, 42, 100
7, 63833, Note_off_c, 9, 42, 0
7, 63833, Note_off_c, 9, 36, 0
7, 63936, Note_on_c, 9, 42, 100
7, 64025, Note_off_c, 9, 42, 0
7, 64128, Note_on_c, 9, 39, 100
7, 64128, Note_on_c, 9, 42, 100
7, 64217, Note_off_c, 9, 42, 0
7, 64217, Note_off_c, 9, 39, 0
7, 64320, Note_on_c, 9, 42, 100
7, 64409, Note_off_c, 9, 42, 0
7, 64512, Note_on_c, 9, 36, 100
7, 64512, Note_on_c, 9, 42, 100
7, 64601, Note_off_c, 9, 42, 0
7, 64601, Note_off_c, 9, 36, 0
7, 64704, Note_on_c, 9, 42, 100
7, 64793, Note_off_c, 9, 42, 0
7, 64896, Note_on_c, 9, 39, 100
7, 64896, Note_on_c, 9, 42, 100
7, 64985, Note_off_c, 9, 42, 0
7, 64985, Note_off_c, 9, 39, 0
7, 65088, Note_on_c, 9, 42, 100
7, 65177, Note_off_c, 9, 42, 0
7, 65280, Note_on_c, 9, 36, 100
7, 65280, Note_on_c, 9, 42, 100
7, 65369, Note_off_c, 9, 42, 0
7, 65369, Note_off_c, 9, 36, 0
7, 65472, Note_on_c, 9, 42, 100
7, 65561, Note_off_c, 9, 42, 0
7, 65664, Note_on_c, 9, 39, 100
7, 65664, Note_on_c, 9, 42, 100
7, 65753, Note_off_c, 9, 42, 0
7, 65753, Note_off_c, 9, 39, 0
7, 65856, Note_on_c, 9, 42, 100
7, 65945, Note_off_c, 9, 42, 0
7, 66048, Note_on_c, 9, 36, 100
7, 66048, Note_on_c, 9, 42, 100
7, 66137, Note_off_c, 9, 42, 0
7, 66137, Note_off_c, 9, 36, 0
7, 66240, Note_on_c, 9, 42, 100
7, 66329, Note_off_c, 9, 42, 0
7, 66432, Note_on_c, 9, 39, 100
7, 66432, Note_on_c, 9, 42, 100
7, 66521, Note_off_c, 9, 42, 0
7, 66521, Note_off_c, 9, 39, 0
7, 66624, Note_on_c, 9, 42, 100
7, 66713, Note_off_c, 9, 42, 0
7, 66816, Note_on_c, 9, 36, 100
7, 66816, Note_on_c, 9, 42, 100
7, 66905, Note_off_c, 9, 42, 0
7, 66905, Note_off_c, 9, 36, 0
7, 67008, Note_on_c, 9, 42, 100
7, 67097, Note_off_c, 9, 42, 0
7, 67200, Note_on_c, 9, 39, 100
7, 67200, Note_on_c, 9, 42, 100
7, 67289, Note_off_c, 9, 42, 0
7, 67289, Note_off_c, 9, 39, 0
7, 67392, Note_on_c, 9, 42, 100
7, 67481, Note_off_c, 9, 42, 0
7, 67584, Note_on_c, 9, 36, 100
7, 67584, Note_on_c, 9, 42, 100
7, 67673, Note_off_c, 9, 42, 0
7, 67673, Note_off_c, 9, 36, 0
7, 67776, Note_on_c, 9, 42, 100
7, 67865, Note_off_c, 9, 42, 0
7, 67968, Note_on_c, 9, 39, 100
7, 67968, Note_on_c, 9, 42, 100
7, 68057, Note_off_c, 9, 42, 0
7, 68057, Note_off_c, 9, 39, 0
7, 68160, Note_on_c, 9, 42, 100
7, 68249, Note_off_c, 9, 42, 0
7, 68352, Note_on_c, 9, 36, 100
7, 68352, Note_on_c, 9, 42, 100
7, 68441, Note_off_c, 9, 42, 0
7, 68441, Note_off_c, 9, 36, 0
7, 68544, Note_on_c, 9, 42, 100
7, 68633, Note_off_c, 9, 42, 0
7, 68736, Note_on_c, 9, 39, 100
7, 68736, Note_on_c, 9, 42, 100
7, 68825, Note_off_c, 9, 42, 0
7, 68825, Note_off_c, 9, 39, 0
7, 68928, Note_on_c, 9, 42, 100
7, 69017, Note_off_c, 9, 42, 0
7, 69120, Note_on_c, 9, 36, 100
7, 69120, Note_on_c, 9, 42, 100
7, 69209, Note_off_c, 9, 42, 0
7, 69209, Note_off_c, 9, 36, 0
7, 69312, Note_on_c, 9, 42, 100
7, 69401, Note_off_c, 9, 42, 0
7, 69504, Note_on_c, 9, 39, 100
7, 69504, Note_on_c, 9, 42, 100
7, 69593, Note_off_c, 9, 42, 0
7, 69593, Note_off_c, 9, 39, 0
7, 69696, Note_on_c, 9, 42, 100
7, 69785, Note_off_c, 9, 42, 0
7, 69888, Note_on_c, 9, 36, 100
7, 69888, Note_on_c, 9, 42, 100
7, 69977, Note_off_c, 9, 42, 0
7, 69977, Note_off_c, 9, 36, 0
7, 70080, Note_on_c, 9, 42, 100
7, 70169, Note_off_c, 9, 42, 0
7, 70272, Note_on_c, 9, 39, 100
7, 70272, Note_on_c, 9, 42, 100
7, 70361, Note_off_c, 9, 42, 0
7, 70361, Note_off_c, 9, 39, 0
7, 70464, Note_on_c, 9, 42, 100
7, 70553, Note_off_c, 9, 42, 0
7, 70656, Note_on_c, 9, 36, 100
7, 70656, Note_on_c, 9, 42, 100
7, 70745, Note_off_c, 9, 42, 0
7, 70745, Note_off_c, 9, 36, 0
7, 70848, Note_on_c, 9, 42, 100
7, 70937, Note_off_c, 9, 42, 0
7, 71040, Note_on_c, 9, 39, 100
7, 71040, Note_on_c, 9, 42, 100
7, 71129, Note_off_c, 9, 42, 0
7, 71129, Note_off_c, 9, 39, 0
7, 71232, Note_on_c, 9, 42, 100
7, 71321, Note_off_c, 9, 42, 0
7, 71424, Note_on_c, 9, 36, 100
7, 71424, Note_on_c, 9, 42, 100
7, 71513, Note_off_c, 9, 42, 0
7, 71513, Note_off_c, 9, 36, 0
7, 71616, Note_on_c, 9, 42, 100
7, 71705, Note_off_c, 9, 42, 0
7, 71808, Note_on_c, 9, 39, 100
7, 71808, Note_on_c, 9, 42, 100
7, 71897, Note_off_c, 9, 42, 0
7, 71897, Note_off_c, 9, 39, 0
7, 72000, Note_on_c, 9, 42, 100
7, 72089, Note_off_c, 9, 42, 0
7, 72192, Note_on_c, 9, 36, 100
7, 72192, Note_on_c, 9, 42, 100
7, 72281, Note_off_c, 9, 42, 0
7, 72281, Note_off_c, 9, 36, 0
7, 72384, Note_on_c, 9, 42, 100
7, 72473, Note_off_c, 9, 42, 0
7, 72576, Note_on_c, 9, 39, 100
7, 72576, Note_on_c, 9, 42, 100
7, 72665, Note_off_c, 9, 42, 0
7, 72665, Note_off_c, 9, 39, 0
7, 72768, Note_on_c, 9, 42, 100
7, 72857, Note_off_c, 9, 42, 0
7, 72960, Note_on_c, 9, 36, 100
7, 72960, Note_on_c, 9, 42, 100
7, 73049, Note_off_c, 9, 42, 0
7, 73049, Note_off_c, 9, 36, 0
7, 73152, Note_on_c, 9, 42, 100
7, 73241, Note_off_c, 9, 42, 0
7, 73344, Note_on_c, 9, 39, 100
7, 73344, Note_on_c, 9, 42, 100
7, 73433, Note_off_c, 9, 42, 0
7, 73433, Note_off_c, 9, 39, 0
7, 73536, Note_on_c, 9, 42, 100
7, 73625, Note_off_c, 9, 42, 0
7, 73728, Note_on_c, 9, 36, 100
7, 73728, Note_on_c, 9, 42, 100
7, 73817, Note_off_c, 9, 42, 0
7, 73817, Note_off_c, 9, 36, 0
7, 73920, Note_on_c, 9, 42, 100
7, 74009, Note_off_c, 9, 42, 0
7, 74112, Note_on_c, 9, 39, 100
7, 74112, Note_on_c, 9, 42, 100
7, 74201, Note_off_c, 9, 42, 0
7, 74201, Note_off_c, 9, 39, 0
7, 74304, Note_on_c, 9, 42, 100
7, 74393, Note_off_c, 9, 42, 0
7, 74496, Note_on_c, 9, 36, 100
7, 74496, Note_on_c, 9, 42, 100
7, 74585, Note_off_c, 9, 42, 0
7, 74585, Note_off_c, 9, 36, 0
7, 74688, Note_on_c, 9, 42, 100
7, 74777, Note_off_c, 9, 42, 0
7, 74880, Note_on_c, 9, 39, 100
7, 74880, Note_on_c, 9, 42, 100
7, 74969, Note_off_c, 9, 42, 0
7, 74969, Note_off_c, 9, 39, 0
7, 75072, Note_on_c, 9, 42, 100
7, 75161, Note_off_c, 9, 42, 0
7, 75264, Note_on_c, 9, 36, 100
7, 75264, Note_on_c, 9, 42, 100
7, 75353, Note_off_c, 9, 42, 0
7, 75353, Note_off_c, 9, 36, 0
7, 75456, Note_on_c, 9, 42, 100
7, 75545, Note_off_c, 9, 42, 0
7, 75648, Note_on_c, 9, 39, 100
7, 75648, Note_on_c, 9, 42, 100
7, 75737, Note_off_c, 9, 42, 0
7, 75737, Note_off_c, 9, 39, 0
7, 75840, Note_on_c, 9, 42, 100
7, 75929, Note_off_c, 9, 42, 0
7, 76032, Note_on_c, 9, 36, 100
7, 76032, Note_on_c, 9, 42, 100
7, 76121, Note_off_c, 9, 42, 0
7, 76121, Note_off_c, 9, 36, 0
7, 76224, Note_on_c, 9, 42, 100
7, 76313, Note_off_c, 9, 42, 0
7, 76416, Note_on_c, 9, 39, 100
7, 76416, Note_on_c, 9, 42, 100
7, 76505, Note_off_c, 9, 42, 0
7, 76505, Note_off_c, 9, 39, 0
7, 76608, Note_on_c, 9, 42, 100
7, 76697, Note_off_c, 9, 42, 0
7, 76800, Note_on_c, 9, 36, 100
7, 76800, Note_on_c, 9, 42, 100
7, 76889, Note_off_c, 9, 42, 0
7, 76889, Note_off_c, 9, 36, 0
7, 76992, Note_on_c, 9, 42, 100
7, 77081, Note_off_c, 9, 42, 0
7, 77184, Note_on_c, 9, 39, 100
7, 77184, Note_on_c, 9, 42, 100
7, 77273, Note_off_c, 9, 42, 0
7, 77273, Note_off_c, 9, 39, 0
7, 77376, Note_on_c, 9, 42, 100
7, 77465, Note_off_c, 9, 42, 0
7, 77568, Note_on_c, 9, 36, 100
7, 77568, Note_on_c, 9, 42, 100
7, 77657, Note_off_c, 9, 42, 0
7, 77657, Note_off_c, 9, 36, 0
7, 77760, Note_on_c, 9, 42, 100
7, 77849, Note_off_c, 9, 42, 0
7, 77952, Note_on_c, 9, 39, 100
7, 77952, Note_on_c, 9, 42, 100
7, 78041, Note_off_c, 9, 42, 0
7, 78041, Note_off_c, 9, 39, 0
7, 78144, Note_on_c, 9, 42, 100
7, 78233, Note_off_c, 9, 42, 0
7, 78336, Note_on_c, 9, 36, 100
7, 78336, Note_on_c, 9, 42, 100
7, 78425, Note_off_c, 9, 42, 0
7, 78425, Note_off_c, 9, 36, 0
7, 78528, Note_on_c, 9, 42, 100
7, 78617, Note_off_c, 9, 42, 0
7, 78720, Note_on_c, 9, 39, 100
7, 78720, Note_on_c, 9, 42, 100
7, 78809, Note_off_c, 9, 42, 0
7, 78809, Note_off_c, 9, 39, 0
7, 78912, Note_on_c, 9, 42, 100
7, 79001, Note_off_c, 9, 42, 0
7, 79104, Note_on_c, 9, 36, 100
7, 79104, Note_on_c, 9, 42, 100
7, 79193, Note_off_c, 9, 42, 0
7, 79193, Note_off_c, 9, 36, 0
7, 79296, Note_on_c, 9, 42, 100
7, 79385, Note_off_c, 9, 42, 0
7, 79488, Note_on_c, 9, 39, 100
7, 79488, Note_on_c, 9, 42, 100
7, 79577, Note_off_c, 9, 42, 0
7, 79577, Note_off_c, 9, 39, 0
7, 79680, Note_on_c, 9, 42, 100
7, 79769, Note_off_c, 9, 42, 0
7, 79872, Note_on_c, 9, 36, 100
7, 79872, Note_on_c, 9, 42, 100
7, 79961, Note_off_c, 9, 42, 0
7, 79961, Note_off_c, 9, 36, 0
7, 80064, Note_on_c, 9, 42, 100
7, 80153, Note_off_c, 9, 42, 0
7, 80256, Note_on_c, 9, 39, 100
7, 80256, Note_on_c, 9, 42, 100
7, 80345, Note_off_c, 9, 42, 0
7, 80345, Note_off_c, 9, 39, 0
7, 80448, Note_on_c, 9, 42, 100
7, 80537, Note_off_c, 9, 42, 0
7, 80640, Note_on_c, 9, 36, 100
7, 80640, Note_on_c, 9, 42, 100
7, 80729, Note_off_c, 9, 42, 0
7, 80729, Note_off_c, 9, 36, 0
7, 80832, Note_on_c, 9, 42, 100
7, 80921, Note_off_c, 9, 42, 0
7, 81024, Note_on_c, 9, 39, 100
7, 81024, Note_on_c, 9, 42, 100
7, 81113, Note_off_c, 9, 42, 0
7, 81113, Note_off_c, 9, 39, 0
7, 81216, Note_on_c, 9, 42, 100
7, 81305, Note_off_c, 9, 42, 0
7, 81408, Note_on_c, 9, 36, 100
7, 81408, Note_on_c, 9, 42, 100
7, 81497, Note_off_c, 9, 42, 0
7, 81497, Note_off_c, 9, 36, 0
7, 81600, Note_on_c, 9, 42, 100
7, 81689, Note_off_c, 9, 42, 0
7, 81792, Note_on_c, 9, 39, 100
7, 81792, Note_on_c, 9, 42, 100
7, 81881, Note_off_c, 9, 42, 0
7, 81881, Note_off_c, 9, 39, 0
7, 81984, Note_on_c, 9, 42, 100
7, 82073, Note_off_c, 9, 42, 0
7, 82176, Note_on_c, 9, 36, 100
7, 82176, Note_on_c, 9, 42, 100
7, 82265, Note_off_c, 9, 42, 0
7, 82265, Note_off_c, 9, 36, 0
7, 82368, Note_on_c, 9, 42, 100
7, 82457, Note_off_c, 9, 42, 0
7, 82560, Note_on_c, 9, 39, 100
7, 82560, Note_on_c, 9, 42, 100
7, 82649, Note_off_c, 9, 42, 0
7, 82649, Note_off_c, 9, 39, 0
7, 82752, Note_on_c, 9, 42, 100
7, 82841, Note_off_c, 9, 42, 0
7, 82944, Note_on_c, 9, 36, 100
7, 82944, Note_on_c, 9, 42, 100
7, 83033, Note_off_c, 9, 42, 0
7, 83033, Note_off_c, 9, 36, 0
7, 83136, Note_on_c, 9, 42, 100
7, 83225, Note_off_c, 9, 42, 0
7, 83328, Note_on_c, 9, 39, 100
7, 83328, Note_on_c, 9, 42, 100
7, 83417, Note_off_c, 9, 42, 0
7, 83417, Note_off_c, 9, 39, 0
7, 83520, Note_on_c, 9, 42, 100
7, 83609, Note_off_c, 9, 42, 0
7, 83712, Note_on_c, 9, 36, 100
7, 83712, Note_on_c, 9, 42, 100
7, 83801, Note_off_c, 9, 42, 0
7, 83801, Note_off_c, 9, 36, 0
7, 83904, Note_on_c, 9, 42, 100
7, 83993, Note_off_c, 9, 42, 0
7, 84096, Note_on_c, 9, 39, 100
7, 84096, Note_on_c, 9, 42, 100
7, 84185, Note_off_c, 9, 42, 0
7, 84185, Note_off_c, 9, 39, 0
7, 84288, Note_on_c, 9, 42, 100
7, 84377, Note_off_c, 9, 42, 0
7, 84480, Note_on_c, 9, 36, 100
7, 84480, Note_on_c, 9, 42, 100
7, 84569, Note_off_c, 9, 42, 0
7, 84569, Note_off_c, 9, 36, 0
7, 84672, Note_on_c, 9, 42, 100
7, 84761, Note_off_c, 9, 42, 0
7, 84864, Note_on_c, 9, 39, 100
7, 84864, Note_on_c, 9, 42, 100
7, 84953, Note_off_c, 9, 42, 0
7, 84953, Note_off_c, 9, 39, 0
7, 85056, Note_on_c, 9, 42, 100
7, 85145, Note_off_c, 9, 42, 0
7, 85248, Note_on_c, 9, 36, 100
7, 85248, Note_on_c, 9, 42, 100
7, 85337, Note_off_c, 9, 42, 0
7, 85337, Note_off_c, 9, 36, 0
7, 85440, Note_on_c, 9, 42, 100
7, 85529, Note_off_c, 9, 42, 0
7, 85632, Note_on_c, 9, 39, 100
7, 85632, Note_on_c, 9, 42, 100
7, 85721, Note_off_c, 9, 42, 0
7, 85721, Note_off_c, 9, 39, 0
7, 85824, Note_on_c, 9, 42, 100
7, 85913, Note_off_c, 9, 42, 0
7, 86016, Note_on_c, 9, 36, 100
7, 86016, Note_on_c, 9, 42, 100
7, 86105, Note_off_c, 9, 42, 0
7, 86105, Note_off_c, 9, 36, 0
7, 86208, Note_on_c, 9, 42, 100
7, 86297, Note_off_c, 9, 42, 0
7, 86400, Note_on_c, 9, 39, 100
7, 86400, Note_on_c, 9, 42, 100
7, 86489, Note_off_c, 9, 42, 0
7, 86489, Note_off_c, 9, 39, 0
7, 86592, Note_on_c, 9, 42, 100
7, 86681, Note_off_c, 9, 42, 0
7, 86784, Note_on_c, 9, 36, 100
7, 86784, Note_on_c, 9, 42, 100
7, 86873, Note_off_c, 9, 42, 0
7, 86873, Note_off_c, 9, 36, 0
7, 86976, Note_on_c, 9, 42, 100
7, 87065, Note_off_c, 9, 42, 0
7, 87168, Note_on_c, 9, 39, 100
7, 87168, Note_on_c, 9, 42, 100
7, 87257, Note_off_c, 9, 42, 0
7, 87257, Note_off_c, 9, 39, 0
7, 87360, Note_on_c, 9, 42, 100
7, 87449, Note_off_c, 9, 42, 0
7, 87552, Note_on_c, 9, 36, 100
7, 87552, Note_on_c, 9, 42, 100
7, 87641, Note_off_c, 9, 42, 0
7, 87641, Note_off_c, 9, 36, 0
7, 87744, Note_on_c, 9, 42, 100
7, 87833, Note_off_c, 9, 42, 0
7, 87936, Note_on_c, 9, 39, 100
7, 87936, Note_on_c, 9, 42, 100
7, 88025, Note_off_c, 9, 42, 0
7, 88025, Note_off_c, 9, 39, 0
7, 88128, Note_on_c, 9, 42, 100
7, 88217, Note_off_c, 9, 42, 0
7, 88320, Note_on_c, 9, 36, 100
7, 88320, Note_on_c, 9, 42, 100
7, 88409, Note_off_c, 9, 42, 0
7, 88409, Note_off_c, 9, 36, 0
7, 88512, Note_on_c, 9, 42, 100
7, 88601, Note_off_c, 9, 42, 0
7, 88704, Note_on_c, 9, 39, 100
7, 88704, Note_on_c, 9, 42, 100
7, 88793, Note_off_c, 9, 42, 0
7, 88793, Note_off_c, 9, 39, 0
7, 88896, Note_on_c, 9, 42, 100
7, 88985, Note_off_c, 9, 42, 0
7, 89088, Note_on_c, 9, 36, 100
7, 89088, Note_on_c, 9, 42, 100
7, 89177, Note_off_c, 9, 42, 0
7, 89177, Note_off_c, 9, 36, 0
7, 89280, Note_on_c, 9, 42, 100
7, 89369, Note_off_c, 9, 42, 0
7, 89472, Note_on_c, 9, 39, 100
7, 89472, Note_on_c, 9, 42, 100
7, 89561, Note_off_c, 9, 42, 0
7, 89561, Note_off_c, 9, 39, 0
7, 89664, Note_on_c, 9, 42, 100
7, 89753, Note_off_c, 9, 42, 0
7, 89856, Note_on_c, 9, 36, 100
7, 89856, Note_on_c, 9, 42, 100
7, 89945, Note_off_c, 9, 42, 0
7, 89945, Note_off_c, 9, 36, 0
7, 90048, Note_on_c, 9, 42, 100
7, 90137, Note_off_c, 9, 42, 0
7, 90240, Note_on_c, 9, 39, 100
7, 90240, Note_on_c, 9, 42, 100
7, 90329, Note_off_c, 9, 42, 0
7, 90329, Note_off_c, 9, 39, 0
7, 90432, Note_on_c, 9, 42, 100
7, 90521, Note_off_c, 9, 42, 0
7, 90624, Note_on_c, 9, 36, 100
7, 90624, Note_on_c, 9, 49, 71
7, 90713, Note_off_c, 9, 49, 0
7, 90713, Note_off_c, 9, 36, 0
7, 105984, Note_on_c, 9, 36, 100
7, 105984, Note_on_c, 9, 49, 86
7, 106073, Note_off_c, 9, 49, 0
7, 106073, Note_off_c, 9, 36, 0
7, 106176, Note_on_c, 9, 42, 100
7, 106265, Note_off_c, 9, 42, 0
7, 106368, Note_on_c, 9, 39, 100
7, 106368, Note_on_c, 9, 42, 100
7, 106457, Note_off_c, 9, 42, 0
7, 106457, Note_off_c, 9, 39, 0
7, 106560, Note_on_c, 9, 42, 100
7, 106649, Note_off_c, 9, 42, 0
7, 106752, Note_on_c, 9, 36, 100
7, 106752, Note_on_c, 9, 42, 100
7, 106841, Note_off_c, 9, 42, 0
7, 106841, Note_off_c, 9, 36, 0
7, 106944, Note_on_c, 9, 42, 100
7, 107033, Note_off_c, 9, 42, 0
7, 107136, Note_on_c, 9, 39, 100
7, 107136, Note_on_c, 9, 42, 100
7, 107225, Note_off_c, 9, 42, 0
7, 107225, Note_off_c, 9, 39, 0
7, 107328, Note_on_c, 9, 42, 100
7, 107417, Note_off_c, 9, 42, 0
7, 107520, Note_on_c, 9, 36, 100
7, 107520, Note_on_c, 9, 42, 100
7, 107609, Note_off_c, 9, 42, 0
7, 107609, Note_off_c, 9, 36, 0
7, 107712, Note_on_c, 9, 42, 100
7, 107801, Note_off_c, 9, 42, 0
7, 107904, Note_on_c, 9, 39, 100
7, 107904, Note_on_c, 9, 42, 100
7, 107993, Note_off_c, 9, 42, 0
7, 107993, Note_off_c, 9, 39, 0
7, 108096, Note_on_c, 9, 42, 100
7, 108185, Note_off_c, 9, 42, 0
7, 108288, Note_on_c, 9, 36, 100
7, 108288, Note_on_c, 9, 42, 100
7, 108377, Note_off_c, 9, 42, 0
7, 108377, Note_off_c, 9, 36, 0
7, 108480, Note_on_c, 9, 42, 100
7, 108569, Note_off_c, 9, 42, 0
7, 108672, Note_on_c, 9, 39, 100
7, 108672, Note_on_c, 9, 42, 100
7, 108761, Note_off_c, 9, 42, 0
7, 108761, Note_off_c, 9, 39, 0
7, 108864, Note_on_c, 9, 42, 100
7, 108953, Note_off_c, 9, 42, 0
7, 109056, Note_on_c, 9, 36, 100
7, 109056, Note_on_c, 9, 42, 100
7, 109145, Note_off_c, 9, 42, 0
7, 109145, Note_off_c, 9, 36, 0
7, 109248, Note_on_c, 9, 42, 100
7, 109337, Note_off_c, 9, 42, 0
7, 109440, Note_on_c, 9, 39, 100
7, 109440, Note_on_c, 9, 42, 100
7, 109529, Note_off_c, 9, 42, 0
7, 109529, Note_off_c, 9, 39, 0
7, 109632, Note_on_c, 9, 42, 100
7, 109721, Note_off_c, 9, 42, 0
7, 109824, Note_on_c, 9, 36, 100
7, 109824, Note_on_c, 9, 42, 100
7, 109913, Note_off_c, 9, 42, 0
7, 109913, Note_off_c, 9, 36, 0
7, 110016, Note_on_c, 9, 42, 100
7, 110105, Note_off_c, 9, 42, 0
7, 110208, Note_on_c, 9, 39, 100
7, 110208, Note_on_c, 9, 42, 100
7, 110297, Note_off_c, 9, 42, 0
7, 110297, Note_off_c, 9, 39, 0
7, 110400, Note_on_c, 9, 42, 100
7, 110489, Note_off_c, 9, 42, 0
7, 110592, Note_on_c, 9, 36, 100
7, 110592, Note_on_c, 9, 42, 100
7, 110681, Note_off_c, 9, 42, 0
7, 110681, Note_off_c, 9, 36, 0
7, 110784, Note_on_c, 9, 42, 100
7, 110873, Note_off_c, 9, 42, 0
7, 110976, Note_on_c, 9, 39, 100
7, 110976, Note_on_c, 9, 42, 100
7, 111065, Note_off_c, 9, 42, 0
7, 111065, Note_off_c, 9, 39, 0
7, 111168, Note_on_c, 9, 42, 100
7, 111257, Note_off_c, 9, 42, 0
7, 111360, Note_on_c, 9, 36, 100
7, 111360, Note_on_c, 9, 42, 100
7, 111449, Note_off_c, 9, 42, 0
7, 111449, Note_off_c, 9, 36, 0
7, 111552, Note_on_c, 9, 42, 100
7, 111641, Note_off_c, 9, 42, 0
7, 111744, Note_on_c, 9, 39, 100
7, 111744, Note_on_c, 9, 42, 100
7, 111833, Note_off_c, 9, 42, 0
7, 111833, Note_off_c, 9, 39, 0
7, 111936, Note_on_c, 9, 42, 100
7, 112025, Note_off_c, 9, 42, 0
7, 112128, Note_on_c, 9, 36, 100
7, 112128, Note_on_c, 9, 42, 100
7, 112217, Note_off_c, 9, 42, 0
7, 112217, Note_off_c, 9, 36, 0
7, 112320, Note_on_c, 9, 42, 100
7, 112409, Note_off_c, 9, 42, 0
7, 112512, Note_on_c, 9, 39, 100
7, 112512, Note_on_c, 9, 42, 100
7, 112601, Note_off_c, 9, 42, 0
7, 112601, Note_off_c, 9, 39, 0
7, 112704, Note_on_c, 9, 42, 100
7, 112793, Note_off_c, 9, 42, 0
7, 112896, Note_on_c, 9, 36, 100
7, 112896, Note_on_c, 9, 42, 100
7, 112985, Note_off_c, 9, 42, 0
7, 112985, Note_off_c, 9, 36, 0
7, 113088, Note_on_c, 9, 42, 100
7, 113177, Note_off_c, 9, 42, 0
7, 113280, Note_on_c, 9, 39, 100
7, 113280, Note_on_c, 9, 42, 100
7, 113369, Note_off_c, 9, 42, 0
7, 113369, Note_off_c, 9, 39, 0
7, 113472, Note_on_c, 9, 42, 100
7, 113561, Note_off_c, 9, 42, 0
7, 113664, Note_on_c, 9, 36, 100
7, 113664, Note_on_c, 9, 42, 100
7, 113753, Note_off_c, 9, 42, 0
7, 113753, Note_off_c, 9, 36, 0
7, 113856, Note_on_c, 9, 42, 100
7, 113945, Note_off_c, 9, 42, 0
7, 114048, Note_on_c, 9, 39, 100
7, 114048, Note_on_c, 9, 42, 100
7, 114137, Note_off_c, 9, 42, 0
7, 114137, Note_off_c, 9, 39, 0
7, 114240, Note_on_c, 9, 42, 100
7, 114329, Note_off_c, 9, 42, 0
7, 114432, Note_on_c, 9, 36, 100
7, 114432, Note_on_c, 9, 42, 100
7, 114521, Note_off_c, 9, 42, 0
7, 114521, Note_off_c, 9, 36, 0
7, 114624, Note_on_c, 9, 42, 100
7, 114713, Note_off_c, 9, 42, 0
7, 114816, Note_on_c, 9, 39, 100
7, 114816, Note_on_c, 9, 42, 100
7, 114905, Note_off_c, 9, 42, 0
7, 114905, Note_off_c, 9, 39, 0
7, 115008, Note_on_c, 9, 42, 100
7, 115097, Note_off_c, 9, 42, 0
7, 115200, Note_on_c, 9, 36, 100
7, 115200, Note_on_c, 9, 42, 100
7, 115289, Note_off_c, 9, 42, 0
7, 115289, Note_off_c, 9, 36, 0
7, 115392, Note_on_c, 9, 42, 100
7, 115481, Note_off_c, 9, 42, 0
7, 115584, Note_on_c, 9, 39, 100
7, 115584, Note_on_c, 9, 42, 100
7, 115673, Note_off_c, 9, 42, 0
7, 115673, Note_off_c, 9, 39, 0
7, 115776, Note_on_c, 9, 42, 100
7, 115865, Note_off_c, 9, 42, 0
7, 115968, Note_on_c, 9, 36, 100
7, 115968, Note_on_c, 9, 42, 100
7, 116057, Note_off_c, 9, 42, 0
7, 116057, Note_off_c, 9, 36, 0
7, 116160, Note_on_c, 9, 42, 100
7, 116249, Note_off_c, 9, 42, 0
7, 116352, Note_on_c, 9, 39, 100
7, 116352, Note_on_c, 9, 42, 100
7, 116441, Note_off_c, 9, 42, 0
7, 116441, Note_off_c, 9, 39, 0
7, 116544, Note_on_c, 9, 42, 100
7, 116633, Note_off_c, 9, 42, 0
7, 116736, Note_on_c, 9, 36, 100
7, 116736, Note_on_c, 9, 42, 100
7, 116825, Note_off_c, 9, 42, 0
7, 116825, Note_off_c, 9, 36, 0
7, 116928, Note_on_c, 9, 42, 100
7, 117017, Note_off_c, 9, 42, 0
7, 117120, Note_on_c, 9, 39, 100
7, 117120, Note_on_c, 9, 42, 100
7, 117209, Note_off_c, 9, 42, 0
7, 117209, Note_off_c, 9, 39, 0
7, 117312, Note_on_c, 9, 42, 100
7, 117401, Note_off_c, 9, 42, 0
7, 117504, Note_on_c, 9, 36, 100
7, 117504, Note_on_c, 9, 42, 100
7, 117593, Note_off_c, 9, 42, 0
7, 117593, Note_off_c, 9, 36, 0
7, 117696, Note_on_c, 9, 42, 100
7, 117785, Note_off_c, 9, 42, 0
7, 117888, Note_on_c, 9, 39, 100
7, 117888, Note_on_c, 9, 42, 100
7, 117977, Note_off_c, 9, 42, 0
7, 117977, Note_off_c, 9, 39, 0
7, 118080, Note_on_c, 9, 42, 100
7, 118169, Note_off_c, 9, 42, 0
7, 118272, Note_on_c, 9, 36, 100
7, 118272, Note_on_c, 9, 42, 100
7, 118361, Note_off_c, 9, 42, 0
7, 118361, Note_off_c, 9, 36, 0
7, 118464, Note_on_c, 9, 42, 100
7, 118553, Note_off_c, 9, 42, 0
7, 118656, Note_on_c, 9, 39, 100
7, 118656, Note_on_c, 9, 42, 100
7, 118745, Note_off_c, 9, 42, 0
7, 118745, Note_off_c, 9, 39, 0
7, 118848, Note_on_c, 9, 42, 100
7, 118937, Note_off_c, 9, 42, 0
7, 119040, Note_on_c, 9, 36, 100
7, 119040, Note_on_c, 9, 42, 100
7, 119129, Note_off_c, 9, 42, 0
7, 119129, Note_off_c, 9, 36, 0
7, 119232, Note_on_c, 9, 42, 100
7, 119321, Note_off_c, 9, 42, 0
7, 119424, Note_on_c, 9, 39, 100
7, 119424, Note_on_c, 9, 42, 100
7, 119513, Note_off_c, 9, 42, 0
7, 119513, Note_off_c, 9, 39, 0
7, 119616, Note_on_c, 9, 42, 100
7, 119705, Note_off_c, 9, 42, 0
7, 119808, Note_on_c, 9, 36, 100
7, 119808, Note_on_c, 9, 42, 100
7, 119897, Note_off_c, 9, 42, 0
7, 119897, Note_off_c, 9, 36, 0
7, 120000, Note_on_c, 9, 42, 100
7, 120089, Note_off_c, 9, 42, 0
7, 120192, Note_on_c, 9, 39, 100
7, 120192, Note_on_c, 9, 42, 100
7, 120281, Note_off_c, 9, 42, 0
7, 120281, Note_off_c, 9, 39, 0
7, 120384, Note_on_c, 9, 42, 100
7, 120473, Note_off_c, 9, 42, 0
7, 120576, Note_on_c, 9, 36, 100
7, 120576, Note_on_c, 9, 42, 100
7, 120665, Note_off_c, 9, 42, 0
7, 120665, Note_off_c, 9, 36, 0
7, 120768, Note_on_c, 9, 42, 100
7, 120857, Note_off_c, 9, 42, 0
7, 120960, Note_on_c, 9, 39, 100
7, 120960, Note_on_c, 9, 42, 100
7, 121049, Note_off_c, 9, 42, 0
7, 121049, Note_off_c, 9, 39, 0
7, 121152, Note_on_c, 9, 42, 100
7, 121241, Note_off_c, 9, 42, 0
7, 121344, Note_on_c, 9, 36, 100
7, 121344, Note_on_c, 9, 42, 100
7, 121433, Note_off_c, 9, 42, 0
7, 121433, Note_off_c, 9, 36, 0
7, 121536, Note_on_c, 9, 42, 100
7, 121625, Note_off_c, 9, 42, 0
7, 121728, Note_on_c, 9, 39, 100
7, 121728, Note_on_c, 9, 42, 100
7, 121817, Note_off_c, 9, 42, 0
7, 121817, Note_off_c, 9, 39, 0
7, 121920, Note_on_c, 9, 42, 100
7, 122009, Note_off_c, 9, 42, 0
7, 122112, Note_on_c, 9, 36, 100
7, 122112, Note_on_c, 9, 42, 100
7, 122201, Note_off_c, 9, 42, 0
7, 122201, Note_off_c, 9, 36, 0
7, 122304, Note_on_c, 9, 42, 100
7, 122393, Note_off_c, 9, 42, 0
7, 122496, Note_on_c, 9, 39, 100
7, 122496, Note_on_c, 9, 42, 100
7, 122585, Note_off_c, 9, 42, 0
7, 122585, Note_off_c, 9, 39, 0
7, 122688, Note_on_c, 9, 42, 100
7, 122777, Note_off_c, 9, 42, 0
7, 122880, Note_on_c, 9, 36, 100
7, 122880, Note_on_c, 9, 42, 100
7, 122969, Note_off_c, 9, 42, 0
7, 122969, Note_off_c, 9, 36, 0
7, 123072, Note_on_c, 9, 42, 100
7, 123161, Note_off_c, 9, 42, 0
7, 123264, Note_on_c, 9, 39, 100
7, 123264, Note_on_c, 9, 42, 100
7, 123353, Note_off_c, 9, 42, 0
7, 123353, Note_off_c, 9, 39, 0
7, 123456, Note_on_c, 9, 42, 100
7, 123545, Note_off_c, 9, 42, 0
7, 123648, Note_on_c, 9, 36, 100
7, 123648, Note_on_c, 9, 42, 100
7, 123737, Note_off_c, 9, 42, 0
7, 123737, Note_off_c, 9, 36, 0
7, 123840, Note_on_c, 9, 42, 100
7, 123929, Note_off_c, 9, 42, 0
7, 124032, Note_on_c, 9, 39, 100
7, 124032, Note_on_c, 9, 42, 100
7, 124121, Note_off_c, 9, 42, 0
7, 124121, Note_off_c, 9, 39, 0
7, 124224, Note_on_c, 9, 42, 100
7, 124313, Note_off_c, 9, 42, 0
7, 124416, Note_on_c, 9, 36, 100
7, 124416, Note_on_c, 9, 42, 100
7, 124505, Note_off_c, 9, 42, 0
7, 124505, Note_off_c, 9, 36, 0
7, 124608, Note_on_c, 9, 42, 100
7, 124697, Note_off_c, 9, 42, 0
7, 124800, Note_on_c, 9, 39, 100
7, 124800, Note_on_c, 9, 42, 100
7, 124889, Note_off_c, 9, 42, 0
7, 124889, Note_off_c, 9, 39, 0
7, 124992, Note_on_c, 9, 42, 100
7, 125081, Note_off_c, 9, 42, 0
7, 125184, Note_on_c, 9, 36, 100
7, 125184, Note_on_c, 9, 42, 100
7, 125273, Note_off_c, 9, 42, 0
7, 125273, Note_off_c, 9, 36, 0
7, 125376, Note_on_c, 9, 42, 100
7, 125465, Note_off_c, 9, 42, 0
7, 125568, Note_on_c, 9, 39, 100
7, 125568, Note_on_c, 9, 42, 100
7, 125657, Note_off_c, 9, 42, 0
7, 125657, Note_off_c, 9, 39, 0
7, 125760, Note_on_c, 9, 42, 100
7, 125849, Note_off_c, 9, 42, 0
7, 125952, Note_on_c, 9, 36, 100
7, 125952, Note_on_c, 9, 42, 100
7, 126041, Note_off_c, 9, 42, 0
7, 126041, Note_off_c, 9, 36, 0
7, 126144, Note_on_c, 9, 42, 100
7, 126233, Note_off_c, 9, 42, 0
7, 126336, Note_on_c, 9, 39, 100
7, 126336, Note_on_c, 9, 42, 100
7, 126425, Note_off_c, 9, 42, 0
7, 126425, Note_off_c, 9, 39, 0
7, 126528, Note_on_c, 9, 42, 100
7, 126617, Note_off_c, 9, 42, 0
7, 126720, Note_on_c, 9, 36, 100
7, 126720, Note_on_c, 9, 42, 100
7, 126809, Note_off_c, 9, 42, 0
7, 126809, Note_off_c, 9, 36, 0
7, 126912, Note_on_c, 9, 42, 100
7, 127001, Note_off_c, 9, 42, 0
7, 127104, Note_on_c, 9, 39, 100
7, 127104, Note_on_c, 9, 42, 100
7, 127193, Note_off_c, 9, 42, 0
7, 127193, Note_off_c, 9, 39, 0
7, 127296, Note_on_c, 9, 42, 100
7, 127385, Note_off_c, 9, 42, 0
7, 127488, Note_on_c, 9, 36, 100
7, 127488, Note_on_c, 9, 42, 100
7, 127577, Note_off_c, 9, 42, 0
7, 127577, Note_off_c, 9, 36, 0
7, 127680, Note_on_c, 9, 42, 100
7, 127769, Note_off_c, 9, 42, 0
7, 127872, Note_on_c, 9, 39, 100
7, 127872, Note_on_c, 9, 42, 100
7, 127961, Note_off_c, 9, 42, 0
7, 127961, Note_off_c, 9, 39, 0
7, 128064, Note_on_c, 9, 42, 100
7, 128153, Note_off_c, 9, 42, 0
7, 128256, Note_on_c, 9, 36, 100
7, 128256, Note_on_c, 9, 42, 100
7, 128345, Note_off_c, 9, 42, 0
7, 128345, Note_off_c, 9, 36, 0
7, 128448, Note_on_c, 9, 42, 100
7, 128537, Note_off_c, 9, 42, 0
7, 128640, Note_on_c, 9, 39, 100
7, 128640, Note_on_c, 9, 42, 100
7, 128729, Note_off_c, 9, 42, 0
7, 128729, Note_off_c, 9, 39, 0
7, 128832, Note_on_c, 9, 42, 100
7, 128921, Note_off_c, 9, 42, 0
7, 129024, Note_on_c, 9, 36, 100
7, 129024, Note_on_c, 9, 42, 100
7, 129113, Note_off_c, 9, 42, 0
7, 129113, Note_off_c, 9, 36, 0
7, 129216, Note_on_c, 9, 42, 100
7, 129305, Note_off_c, 9, 42, 0
7, 129408, Note_on_c, 9, 39, 100
7, 129408, Note_on_c, 9, 42, 100
7, 129497, Note_off_c, 9, 42, 0
7, 129497, Note_off_c, 9, 39, 0
7, 129600, Note_on_c, 9, 42, 100
7, 129689, Note_off_c, 9, 42, 0
7, 129792, Note_on_c, 9, 36, 100
7, 129792, Note_on_c, 9, 42, 100
7, 129881, Note_off_c, 9, 42, 0
7, 129881, Note_off_c, 9, 36, 0
7, 129984, Note_on_c, 9, 42, 100
7, 130073, Note_off_c, 9, 42, 0
7, 130176, Note_on_c, 9, 39, 100
7, 130176, Note_on_c, 9, 42, 100
7, 130265, Note_off_c, 9, 42, 0
7, 130265, Note_off_c, 9, 39, 0
7, 130368, Note_on_c, 9, 42, 100
7, 130457, Note_off_c, 9, 42, 0
7, 130560, Note_on_c, 9, 36, 100
7, 130560, Note_on_c, 9, 42, 100
7, 130649, Note_off_c, 9, 42, 0
7, 130649, Note_off_c, 9, 36, 0
7, 130752, Note_on_c, 9, 42, 100
7, 130841, Note_off_c, 9, 42, 0
7, 130944, Note_on_c, 9, 39, 100
7, 130944, Note_on_c, 9, 42, 100
7, 131033, Note_off_c, 9, 42, 0
7, 131033, Note_off_c, 9, 39, 0
7, 131136, Note_on_c, 9, 42, 100
7, 131225, Note_off_c, 9, 42, 0
7, 131328, Note_on_c, 9, 36, 100
7, 131328, Note_on_c, 9, 42, 100
7, 131417, Note_off_c, 9, 42, 0
7, 131417, Note_off_c, 9, 36, 0
7, 131520, Note_on_c, 9, 42, 100
7, 131609, Note_off_c, 9, 42, 0
7, 131712, Note_on_c, 9, 39, 100
7, 131712, Note_on_c, 9, 42, 100
7, 131801, Note_off_c, 9, 42, 0
7, 131801, Note_off_c, 9, 39, 0
7, 131904, Note_on_c, 9, 42, 100
7, 131993, Note_off_c, 9, 42, 0
7, 132096, Note_on_c, 9, 36, 100
7, 132096, Note_on_c, 9, 42, 100
7, 132185, Note_off_c, 9, 42, 0
7, 132185, Note_off_c, 9, 36, 0
7, 132288, Note_on_c, 9, 42, 100
7, 132377, Note_off_c, 9, 42, 0
7, 132480, Note_on_c, 9, 39, 100
7, 132480, Note_on_c, 9, 42, 100
7, 132569, Note_off_c, 9, 42, 0
7, 132569, Note_off_c, 9, 39, 0
7, 132672, Note_on_c, 9, 42, 100
7, 132761, Note_off_c, 9, 42, 0
7, 132864, Note_on_c, 9, 36, 100
7, 132864, Note_on_c, 9, 42, 100
7, 132953, Note_off_c, 9, 42, 0
7, 132953, Note_off_c, 9, 36, 0
7, 133056, Note_on_c, 9, 42, 100
7, 133145, Note_off_c, 9, 42, 0
7, 133248, Note_on_c, 9, 39, 100
7, 133248, Note_on_c, 9, 42, 100
7, 133337, Note_off_c, 9, 42, 0
7, 133337, Note_off_c, 9, 39, 0
7, 133440, Note_on_c, 9, 42, 100
7, 133529, Note_off_c, 9, 42, 0
7, 133632, Note_on_c, 9, 36, 100
7, 133632, Note_on_c, 9, 42, 100
7, 133721, Note_off_c, 9, 42, 0
7, 133721, Note_off_c, 9, 36, 0
7, 133824, Note_on_c, 9, 42, 100
7, 133913, Note_off_c, 9, 42, 0
7, 134016, Note_on_c, 9, 39, 100
7, 134016, Note_on_c, 9, 42, 100
7, 134105, Note_off_c, 9, 42, 0
7, 134105, Note_off_c, 9, 39, 0
7, 134208, Note_on_c, 9, 42, 100
7, 134297, Note_off_c, 9, 42, 0
7, 134400, Note_on_c, 9, 36, 100
7, 134400, Note_on_c, 9, 42, 100
7, 134489, Note_off_c, 9, 42, 0
7, 134489, Note_off_c, 9, 36, 0
7, 134592, Note_on_c, 9, 42, 100
7, 134681, Note_off_c, 9, 42, 0
7, 134784, Note_on_c, 9, 39, 100
7, 134784, Note_on_c, 9, 42, 100
7, 134873, Note_off_c, 9, 42, 0
7, 134873, Note_off_c, 9, 39, 0
7, 134976, Note_on_c, 9, 42, 100
7, 135065, Note_off_c, 9, 42, 0
7, 135168, Note_on_c, 9, 36, 100
7, 135168, Note_on_c, 9, 49, 71
7, 135257, Note_off_c, 9, 49, 0
7, 135257, Note_off_c, 9, 36, 0
7, 136704, End_track
8, 0, Start_track
8, 0, Title_t, "oh1"
8, 0, Control_c, 2, 121, 0
8, 0, Control_c, 2, 11, 127
8, 0, Control_c, 2, 91, 127
8, 0, Control_c, 2, 93, 29
8, 0, Control_c, 2, 1, 24
8, 416, Control_c, 2, 0, 0
8, 419, Control_c, 2, 32, 0
8, 422, Program_c, 2, 25
8, 425, Control_c, 2, 7, 110
8, 425, Control_c, 2, 10, 0
8, 3072, Note_on_c, 2, 62, 100
8, 3449, Note_off_c, 2, 62, 0
8, 3456, Note_on_c, 2, 62, 100
8, 3641, Note_off_c, 2, 62, 0
8, 3648, Note_on_c, 2, 62, 100
8, 3833, Note_off_c, 2, 62, 0
8, 3840, Note_on_c, 2, 62, 100
8, 4864, Note_off_c, 2, 62, 0
8, 5184, Note_on_c, 2, 62, 100
8, 5369, Note_off_c, 2, 62, 0
8, 5376, Note_on_c, 2, 62, 100
8, 5561, Note_off_c, 2, 62, 0
8, 5568, Note_on_c, 2, 62, 100
8, 5945, Note_off_c, 2, 62, 0
8, 5952, Note_on_c, 2, 62, 100
8, 6137, Note_off_c, 2, 62, 0
8, 6144, Note_on_c, 2, 62, 100
8, 6329, Note_off_c, 2, 62, 0
8, 6336, Note_on_c, 2, 62, 100
8, 6521, Note_off_c, 2, 62, 0
8, 6528, Note_on_c, 2, 62, 100
8, 7209, Note_off_c, 2, 62, 0
8, 7488, Note_on_c, 2, 62, 100
8, 7766, Note_on_c, 2, 62, 100
8, 7769, Note_off_c, 2, 62, 0
8, 7952, Note_off_c, 2, 62, 0
8, 7958, Note_on_c, 2, 62, 100
8, 8144, Note_off_c, 2, 62, 0
8, 8150, Note_on_c, 2, 62, 100
8, 8406, Note_off_c, 2, 62, 0
8, 8448, Note_on_c, 2, 62, 100
8, 8633, Note_off_c, 2, 62, 0
8, 8640, Note_on_c, 2, 62, 100
8, 8825, Note_off_c, 2, 62, 0
8, 8832, Note_on_c, 2, 62, 100
8, 9008, Note_off_c, 2, 62, 0
8, 9014, Note_on_c, 2, 62, 100
8, 10160, Note_off_c, 2, 62, 0
8, 10560, Note_on_c, 2, 62, 100
8, 10745, Note_off_c, 2, 62, 0
8, 10752, Note_on_c, 2, 62, 100
8, 11209, Note_off_c, 2, 62, 0
8, 11328, Note_on_c, 2, 62, 100
8, 11513, Note_off_c, 2, 62, 0
8, 11520, Note_on_c, 2, 62, 100
8, 11705, Note_off_c, 2, 62, 0
8, 11712, Note_on_c, 2, 62, 100
8, 11897, Note_off_c, 2, 62, 0
8, 11904, Note_on_c, 2, 62, 100
8, 12089, Note_off_c, 2, 62, 0
8, 12096, Note_on_c, 2, 66, 100
8, 12281, Note_off_c, 2, 66, 0
8, 12288, Note_on_c, 2, 66, 100
8, 12896, Note_off_c, 2, 66, 0
8, 13056, Note_on_c, 2, 66, 100
8, 13241, Note_off_c, 2, 66, 0
8, 13248, Note_on_c, 2, 64, 100
8, 13433, Note_off_c, 2, 64, 0
8, 13440, Note_on_c, 2, 62, 100
8, 13625, Note_off_c, 2, 62, 0
8, 13632, Note_on_c, 2, 62, 100
8, 13817, Note_off_c, 2, 62, 0
8, 13824, Note_on_c, 2, 62, 100
8, 14201, Note_off_c, 2, 62, 0
8, 14208, Note_on_c, 2, 64, 100
8, 14473, Note_off_c, 2, 64, 0
8, 14496, Note_on_c, 2, 62, 100
8, 14761, Note_off_c, 2, 62, 0
8, 14784, Note_on_c, 2, 62, 100
8, 15929, Note_off_c, 2, 62, 0
8, 47616, Note_on_c, 2, 62, 100
8, 47993, Note_off_c, 2, 62, 0
8, 48000, Note_on_c, 2, 62, 100
8, 48185, Note_off_c, 2, 62, 0
8, 48192, Note_on_c, 2, 62, 100
8, 48377, Note_off_c, 2, 62, 0
8, 48384, Note_on_c, 2, 62, 100
8, 49408, Note_off_c, 2, 62, 0
8, 49728, Note_on_c, 2, 62, 100
8, 49913, Note_off_c, 2, 62, 0
8, 49920, Note_on_c, 2, 62, 100
8, 50105, Note_off_c, 2, 62, 0
8, 50112, Note_on_c, 2, 62, 100
8, 50489, Note_off_c, 2, 62, 0
8, 50496, Note_on_c, 2, 62, 100
8, 50681, Note_off_c, 2, 62, 0
8, 50688, Note_on_c, 2, 62, 100
8, 50873, Note_off_c, 2, 62, 0
8, 50880, Note_on_c, 2, 62, 100
8, 51065, Note_off_c, 2, 62, 0
8, 51072, Note_on_c, 2, 62, 100
8, 51753, Note_off_c, 2, 62, 0
8, 52032, Note_on_c, 2, 62, 100
8, 52310, Note_on_c, 2, 62, 100
8, 52313, Note_off_c, 2, 62, 0
8, 52496, Note_off_c, 2, 62, 0
8, 52502, Note_on_c, 2, 62, 100
8, 52688, Note_off_c, 2, 62, 0
8, 52694, Note_on_c, 2, 62, 100
8, 52950, Note_off_c, 2, 62, 0
8, 52992, Note_on_c, 2, 62, 100
8, 53177, Note_off_c, 2, 62, 0
8, 53184, Note_on_c, 2, 62, 100
8, 53369, Note_off_c, 2, 62, 0
8, 53376, Note_on_c, 2, 62, 100
8, 53552, Note_off_c, 2, 62, 0
8, 53558, Note_on_c, 2, 62, 100
8, 54704, Note_off_c, 2, 62, 0
8, 55104, Note_on_c, 2, 62, 100
8, 55289, Note_off_c, 2, 62, 0
8, 55296, Note_on_c, 2, 62, 100
8, 55753, Note_off_c, 2, 62, 0
8, 55872, Note_on_c, 2, 62, 100
8, 56057, Note_off_c, 2, 62, 0
8, 56064, Note_on_c, 2, 62, 100
8, 56249, Note_off_c, 2, 62, 0
8, 56256, Note_on_c, 2, 62, 100
8, 56441, Note_off_c, 2, 62, 0
8, 56448, Note_on_c, 2, 62, 100
8, 56633, Note_off_c, 2, 62, 0
8, 56640, Note_on_c, 2, 66, 100
8, 56825, Note_off_c, 2, 66, 0
8, 56832, Note_on_c, 2, 66, 100
8, 57440, Note_off_c, 2, 66, 0
8, 57600, Note_on_c, 2, 66, 100
8, 57785, Note_off_c, 2, 66, 0
8, 57792, Note_on_c, 2, 64, 100
8, 57977, Note_off_c, 2, 64, 0
8, 57984, Note_on_c, 2, 62, 100
8, 58169, Note_off_c, 2, 62, 0
8, 58176, Note_on_c, 2, 62, 100
8, 58361, Note_off_c, 2, 62, 0
8, 58368, Note_on_c, 2, 62, 100
8, 58745, Note_off_c, 2, 62, 0
8, 58752, Note_on_c, 2, 64, 100
8, 59017, Note_off_c, 2, 64, 0
8, 59040, Note_on_c, 2, 62, 100
8, 59305, Note_off_c, 2, 62, 0
8, 59328, Note_on_c, 2, 62, 100
8, 60473, Note_off_c, 2, 62, 0
8, 92160, Note_on_c, 2, 62, 100
8, 92537, Note_off_c, 2, 62, 0
8, 92544, Note_on_c, 2, 62, 100
8, 92729, Note_off_c, 2, 62, 0
8, 92736, Note_on_c, 2, 62, 100
8, 92921, Note_off_c, 2, 62, 0
8, 92928, Note_on_c, 2, 62, 100
8, 93952, Note_off_c, 2, 62, 0
8, 94272, Note_on_c, 2, 62, 100
8, 94457, Note_off_c, 2, 62, 0
8, 94464, Note_on_c, 2, 62, 100
8, 94649, Note_off_c, 2, 62, 0
8, 94656, Note_on_c, 2, 62, 100
8, 95033, Note_off_c, 2, 62, 0
8, 95040, Note_on_c, 2, 62, 100
8, 95225, Note_off_c, 2, 62, 0
8, 95232, Note_on_c, 2, 62, 100
8, 95417, Note_off_c, 2, 62, 0
8, 95424, Note_on_c, 2, 62, 100
8, 95609, Note_off_c, 2, 62, 0
8, 95616, Note_on_c, 2, 62, 100
8, 96297, Note_off_c, 2, 62, 0
8, 96576, Note_on_c, 2, 62, 100
8, 96854, Note_on_c, 2, 62, 100
8, 96857, Note_off_c, 2, 62, 0
8, 97040, Note_off_c, 2, 62, 0
8, 97046, Note_on_c, 2, 62, 100
8, 97232, Note_off_c, 2, 62, 0
8, 97238, Note_on_c, 2, 62, 100
8, 97494, Note_off_c, 2, 62, 0
8, 97536, Note_on_c, 2, 62, 100
8, 97721, Note_off_c, 2, 62, 0
8, 97728, Note_on_c, 2, 62, 100
8, 97913, Note_off_c, 2, 62, 0
8, 97920, Note_on_c, 2, 62, 100
8, 98096, Note_off_c, 2, 62, 0
8, 98102, Note_on_c, 2, 62, 100
8, 99248, Note_off_c, 2, 62, 0
8, 99648, Note_on_c, 2, 62, 100
8, 99833, Note_off_c, 2, 62, 0
8, 99840, Note_on_c, 2, 62, 100
8, 100297, Note_off_c, 2, 62, 0
8, 100416, Note_on_c, 2, 62, 100
8, 100601, Note_off_c, 2, 62, 0
8, 100608, Note_on_c, 2, 62, 100
8, 100793, Note_off_c, 2, 62, 0
8, 100800, Note_on_c, 2, 62, 100
8, 100985, Note_off_c, 2, 62, 0
8, 100992, Note_on_c, 2, 62, 100
8, 101177, Note_off_c, 2, 62, 0
8, 101184, Note_on_c, 2, 66, 100
8, 101369, Note_off_c, 2, 66, 0
8, 101376, Note_on_c, 2, 66, 100
8, 101984, Note_off_c, 2, 66, 0
8, 102144, Note_on_c, 2, 66, 100
8, 102329, Note_off_c, 2, 66, 0
8, 102336, Note_on_c, 2, 64, 100
8, 102521, Note_off_c, 2, 64, 0
8, 102528, Note_on_c, 2, 62, 100
8, 102713, Note_off_c, 2, 62, 0
8, 102720, Note_on_c, 2, 62, 100
8, 102905, Note_off_c, 2, 62, 0
8, 102912, Note_on_c, 2, 62, 100
8, 103289, Note_off_c, 2, 62, 0
8, 103296, Note_on_c, 2, 64, 100
8, 103561, Note_off_c, 2, 64, 0
8, 103584, Note_on_c, 2, 62, 100
8, 103849, Note_off_c, 2, 62, 0
8, 103872, Note_on_c, 2, 62, 100
8, 105017, Note_off_c, 2, 62, 0
8, 105984, End_track
9, 0, Start_track
9, 0, Title_t, "oh3"
9, 0, Control_c, 8, 121, 0
9, 0, Control_c, 8, 11, 127
9, 0, Control_c, 8, 91, 124
9, 0, Control_c, 8, 93, 80
9, 0, Control_c, 8, 1, 24
9, 512, Control_c, 8, 0, 0
9, 515, Control_c, 8, 32, 0
9, 518, Program_c, 8, 24
9, 521, Control_c, 8, 7, 100
9, 521, Control_c, 8, 10, 92
9, 4608, Note_on_c, 8, 57, 110
9, 7766, Note_on_c, 8, 59, 110
9, 7776, Note_off_c, 8, 57, 0
9, 8134, Note_off_c, 8, 59, 0
9, 8150, Note_on_c, 8, 57, 110
9, 8630, Note_off_c, 8, 57, 0
9, 8640, Note_on_c, 8, 59, 110
9, 9008, Note_off_c, 8, 59, 0
9, 9024, Note_on_c, 8, 57, 110
9, 12096, Note_off_c, 8, 57, 0
9, 12096, Note_on_c, 8, 62, 110
9, 12281, Note_off_c, 8, 62, 0
9, 12288, Note_on_c, 8, 62, 110
9, 13241, Note_off_c, 8, 62, 0
9, 13440, Note_on_c, 8, 62, 110
9, 13625, Note_off_c, 8, 62, 0
9, 13632, Note_on_c, 8, 62, 110
9, 13817, Note_off_c, 8, 62, 0
9, 13824, Note_on_c, 8, 62, 110
9, 14201, Note_off_c, 8, 62, 0
9, 14208, Note_on_c, 8, 61, 110
9, 14473, Note_off_c, 8, 61, 0
9, 14486, Note_on_c, 8, 59, 110
9, 14736, Note_off_c, 8, 59, 0
9, 14784, Note_on_c, 8, 57, 110
9, 15929, Note_off_c, 8, 57, 0
9, 49152, Note_on_c, 8, 57, 110
9, 52310, Note_on_c, 8, 59, 110
9, 52320, Note_off_c, 8, 57, 0
9, 52678, Note_off_c, 8, 59, 0
9, 52694, Note_on_c, 8, 57, 110
9, 53174, Note_off_c, 8, 57, 0
9, 53184, Note_on_c, 8, 59, 110
9, 53552, Note_off_c, 8, 59, 0
9, 53568, Note_on_c, 8, 57, 110
9, 56640, Note_off_c, 8, 57, 0
9, 56640, Note_on_c, 8, 62, 110
9, 56825, Note_off_c, 8, 62, 0
9, 56832, Note_on_c, 8, 62, 110
9, 57785, Note_off_c, 8, 62, 0
9, 57984, Note_on_c, 8, 62, 110
9, 58169, Note_off_c, 8, 62, 0
9, 58176, Note_on_c, 8, 62, 110
9, 58361, Note_off_c, 8, 62, 0
9, 58368, Note_on_c, 8, 62, 110
9, 58745, Note_off_c, 8, 62, 0
9, 58752, Note_on_c, 8, 61, 110
9, 59017, Note_off_c, 8, 61, 0
9, 59030, Note_on_c, 8, 59, 110
9, 59280, Note_off_c, 8, 59, 0
9, 59328, Note_on_c, 8, 57, 110
9, 60473, Note_off_c, 8, 57, 0
9, 93696, Note_on_c, 8, 57, 110
9, 96854, Note_on_c, 8, 59, 110
9, 96912, Note_off_c, 8, 57, 0
9, 97222, Note_off_c, 8, 59, 0
9, 97238, Note_on_c, 8, 57, 110
9, 97718, Note_off_c, 8, 57, 0
9, 97728, Note_on_c, 8, 59, 110
9, 98096, Note_off_c, 8, 59, 0
9, 98112, Note_on_c, 8, 57, 110
9, 101136, Note_off_c, 8, 57, 0
9, 101184, Note_on_c, 8, 62, 110
9, 101369, Note_off_c, 8, 62, 0
9, 101376, Note_on_c, 8, 62, 110
9, 102329, Note_off_c, 8, 62, 0
9, 102528, Note_on_c, 8, 62, 110
9, 102713, Note_off_c, 8, 62, 0
9, 102720, Note_on_c, 8, 62, 110
9, 102905, Note_off_c, 8, 62, 0
9, 102912, Note_on_c, 8, 62, 110
9, 103289, Note_off_c, 8, 62, 0
9, 103296, Note_on_c, 8, 61, 110
9, 103561, Note_off_c, 8, 61, 0
9, 103574, Note_on_c, 8, 59, 110
9, 103824, Note_off_c, 8, 59, 0
9, 103872, Note_on_c, 8, 57, 110
9, 105017, Note_off_c, 8, 57, 0
9, 105984, End_track
10, 0, Start_track
10, 0, Title_t, "solo"
10, 0, Control_c, 10, 11, 127
10, 0, Control_c, 10, 91, 123
10, 0, Control_c, 10, 93, 127
10, 0, Control_c, 10, 1, 0
10, 544, Control_c, 10, 0, 0
10, 547, Control_c, 10, 32, 0
10, 550, Program_c, 10, 22
10, 553, Control_c, 10, 7, 120
10, 553, Control_c, 10, 10, 39
10, 41856, Note_on_c, 10, 60, 100
10, 41984, Note_off_c, 10, 60, 0
10, 42048, Note_on_c, 10, 60, 100
10, 42176, Note_off_c, 10, 60, 0
10, 42240, Note_on_c, 10, 64, 100
10, 42368, Note_off_c, 10, 64, 0
10, 42432, Note_on_c, 10, 64, 100
10, 42560, Note_off_c, 10, 64, 0
10, 42624, Note_on_c, 10, 67, 100
10, 42752, Note_off_c, 10, 67, 0
10, 42816, Note_on_c, 10, 67, 100
10, 42944, Note_off_c, 10, 67, 0
10, 43008, Note_on_c, 10, 71, 100
10, 43136, Note_off_c, 10, 71, 0
10, 43200, Note_on_c, 10, 71, 100
10, 43328, Note_off_c, 10, 71, 0
10, 43392, Note_on_c, 10, 59, 100
10, 43520, Note_off_c, 10, 59, 0
10, 43584, Note_on_c, 10, 59, 100
10, 43712, Note_off_c, 10, 59, 0
10, 43776, Note_on_c, 10, 62, 100
10, 43904, Note_off_c, 10, 62, 0
10, 43968, Note_on_c, 10, 62, 100
10, 44096, Note_off_c, 10, 62, 0
10, 44160, Note_on_c, 10, 67, 100
10, 44288, Note_off_c, 10, 67, 0
10, 44352, Note_on_c, 10, 67, 100
10, 44480, Note_off_c, 10, 67, 0
10, 44544, Note_on_c, 10, 69, 100
10, 44672, Note_off_c, 10, 69, 0
10, 44736, Note_on_c, 10, 69, 100
10, 44864, Note_off_c, 10, 69, 0
10, 44928, Note_on_c, 10, 60, 100
10, 45056, Note_off_c, 10, 60, 0
10, 45120, Note_on_c, 10, 60, 100
10, 45248, Note_off_c, 10, 60, 0
10, 45312, Note_on_c, 10, 62, 100
10, 45440, Note_off_c, 10, 62, 0
10, 45504, Note_on_c, 10, 62, 100
10, 45632, Note_off_c, 10, 62, 0
10, 45696, Note_on_c, 10, 71, 100
10, 45952, Note_off_c, 10, 71, 0
10, 45984, Note_on_c, 10, 69, 100
10, 46041, Note_off_c, 10, 69, 0
10, 46080, Note_on_c, 10, 67, 100
10, 47104, Note_off_c, 10, 67, 0
10, 86400, Note_on_c, 10, 60, 100
10, 86528, Note_off_c, 10, 60, 0
10, 86592, Note_on_c, 10, 60, 100
10, 86720, Note_off_c, 10, 60, 0
10, 86784, Note_on_c, 10, 64, 100
10, 86912, Note_off_c, 10, 64, 0
10, 86976, Note_on_c, 10, 64, 100
10, 87104, Note_off_c, 10, 64, 0
10, 87168, Note_on_c, 10, 67, 100
10, 87296, Note_off_c, 10, 67, 0
10, 87360, Note_on_c, 10, 67, 100
10, 87488, Note_off_c, 10, 67, 0
10, 87552, Note_on_c, 10, 71, 100
10, 87680, Note_off_c, 10, 71, 0
10, 87744, Note_on_c, 10, 71, 100
10, 87872, Note_off_c, 10, 71, 0
10, 87936, Note_on_c, 10, 59, 100
10, 88064, Note_off_c, 10, 59, 0
10, 88128, Note_on_c, 10, 59, 100
10, 88256, Note_off_c, 10, 59, 0
10, 88320, Note_on_c, 10, 62, 100
10, 88448, Note_off_c, 10, 62, 0
10, 88512, Note_on_c, 10, 62, 100
10, 88640, Note_off_c, 10, 62, 0
10, 88704, Note_on_c, 10, 67, 100
10, 88832, Note_off_c, 10, 67, 0
10, 88896, Note_on_c, 10, 67, 100
10, 89024, Note_off_c, 10, 67, 0
10, 89088, Note_on_c, 10, 69, 100
10, 89216, Note_off_c, 10, 69, 0
10, 89280, Note_on_c, 10, 69, 100
10, 89408, Note_off_c, 10, 69, 0
10, 89472, Note_on_c, 10, 60, 100
10, 89600, Note_off_c, 10, 60, 0
10, 89664, Note_on_c, 10, 60, 100
10, 89792, Note_off_c, 10, 60, 0
10, 89856, Note_on_c, 10, 62, 100
10, 89984, Note_off_c, 10, 62, 0
10, 90048, Note_on_c, 10, 62, 100
10, 90176, Note_off_c, 10, 62, 0
10, 90240, Note_on_c, 10, 71, 100
10, 90496, Note_off_c, 10, 71, 0
10, 90528, Note_on_c, 10, 69, 100
10, 90585, Note_off_c, 10, 69, 0
10, 90624, Note_on_c, 10, 67, 100
10, 91648, Note_off_c, 10, 67, 0
10, 130944, Note_on_c, 10, 60, 100
10, 131072, Note_off_c, 10, 60, 0
10, 131136, Note_on_c, 10, 60, 100
10, 131264, Note_off_c, 10, 60, 0
10, 131328, Note_on_c, 10, 64, 100
10, 131456, Note_off_c, 10, 64, 0
10, 131520, Note_on_c, 10, 64, 100
10, 131648, Note_off_c, 10, 64, 0
10, 131712, Note_on_c, 10, 67, 100
10, 131840, Note_off_c, 10, 67, 0
10, 131904, Note_on_c, 10, 67, 100
10, 132032, Note_off_c, 10, 67, 0
10, 132096, Note_on_c, 10, 71, 100
10, 132224, Note_off_c, 10, 71, 0
10, 132288, Note_on_c, 10, 71, 100
10, 132416, Note_off_c, 10, 71, 0
10, 132480, Note_on_c, 10, 59, 100
10, 132608, Note_off_c, 10, 59, 0
10, 132672, Note_on_c, 10, 59, 100
10, 132800, Note_off_c, 10, 59, 0
10, 132864, Note_on_c, 10, 62, 100
10, 132992, Note_off_c, 10, 62, 0
10, 133056, Note_on_c, 10, 62, 100
10, 133184, Note_off_c, 10, 62, 0
10, 133248, Note_on_c, 10, 67, 100
10, 133376, Note_off_c, 10, 67, 0
10, 133440, Note_on_c, 10, 67, 100
10, 133568, Note_off_c, 10, 67, 0
10, 133632, Note_on_c, 10, 69, 100
10, 133760, Note_off_c, 10, 69, 0
10, 133824, Note_on_c, 10, 69, 100
10, 133952, Note_off_c, 10, 69, 0
10, 134016, Note_on_c, 10, 60, 100
10, 134144, Note_off_c, 10, 60, 0
10, 134208, Note_on_c, 10, 60, 100
10, 134336, Note_off_c, 10, 60, 0
10, 134400, Note_on_c, 10, 62, 100
10, 134528, Note_off_c, 10, 62, 0
10, 134592, Note_on_c, 10, 62, 100
10, 134720, Note_off_c, 10, 62, 0
10, 134784, Note_on_c, 10, 71, 100
10, 135040, Note_off_c, 10, 71, 0
10, 135072, Note_on_c, 10, 69, 100
10, 135129, Note_off_c, 10, 69, 0
10, 135168, Note_on_c, 10, 67, 100
10, 136192, Note_off_c, 10, 67, 0
10, 136704, End_track
11, 0, Start_track
11, 0, Title_t, "bells"
11, 0, Control_c, 11, 11, 127
11, 0, Control_c, 11, 91, 127
11, 0, Control_c, 11, 93, 0
11, 560, Control_c, 11, 0, 0
11, 563, Control_c, 11, 32, 0
11, 566, Program_c, 11, 14
11, 569, Control_c, 11, 7, 127
11, 569, Control_c, 11, 10, 88
11, 15744, Note_on_c, 11, 62, 120
11, 16128, Note_on_c, 11, 64, 120
11, 16176, Note_off_c, 11, 62, 0
11, 16512, Note_on_c, 11, 66, 120
11, 16560, Note_off_c, 11, 64, 0
11, 16896, Note_on_c, 11, 67, 120
11, 16944, Note_off_c, 11, 66, 0
11, 17664, Note_off_c, 11, 67, 0
11, 41472, Note_on_c, 11, 72, 120
11, 42233, Note_off_c, 11, 72, 0
11, 43008, Note_on_c, 11, 71, 120
11, 43769, Note_off_c, 11, 71, 0
11, 44544, Note_on_c, 11, 69, 120
11, 45305, Note_off_c, 11, 69, 0
11, 46080, Note_on_c, 11, 67, 120
11, 46841, Note_off_c, 11, 67, 0
11, 60288, Note_on_c, 11, 62, 120
11, 60672, Note_on_c, 11, 64, 120
11, 60720, Note_off_c, 11, 62, 0
11, 61056, Note_on_c, 11, 66, 120
11, 61104, Note_off_c, 11, 64, 0
11, 61440, Note_on_c, 11, 67, 120
11, 61488, Note_off_c, 11, 66, 0
11, 62208, Note_off_c, 11, 67, 0
11, 86016, Note_on_c, 11, 72, 120
11, 86777, Note_off_c, 11, 72, 0
11, 87552, Note_on_c, 11, 71, 120
11, 88313, Note_off_c, 11, 71, 0
11, 89088, Note_on_c, 11, 69, 120
11, 89849, Note_off_c, 11, 69, 0
11, 90624, Note_on_c, 11, 67, 120
11, 91385, Note_off_c, 11, 67, 0
11, 104832, Note_on_c, 11, 62, 120
11, 105216, Note_on_c, 11, 64, 120
11, 105264, Note_off_c, 11, 62, 0
11, 105600, Note_on_c, 11, 66, 120
11, 105648, Note_off_c, 11, 64, 0
11, 105984, Note_on_c, 11, 67, 120
11, 106032, Note_off_c, 11, 66, 0
11, 106752, Note_off_c, 11, 67, 0
11, 130560, Note_on_c, 11, 72, 120
11, 131321, Note_off_c, 11, 72, 0
11, 132096, Note_on_c, 11, 71, 120
11, 132857, Note_off_c, 11, 71, 0
11, 133632, Note_on_c, 11, 69, 120
11, 134393, Note_off_c, 11, 69, 0
11, 135168, Note_on_c, 11, 67, 120
11, 135929, Note_off_c, 11, 67, 0
11, 136704, Note_on_c, 11, 67, 120
11, 137856, Note_off_c, 11, 67, 0
11, 137856, Note_on_c, 11, 62, 120
11, 139008, Note_off_c, 11, 62, 0
11, 139008, Note_on_c, 11, 67, 120
11, 140160, Note_off_c, 11, 67, 0
11, 140160, Note_on_c, 11, 62, 120
11, 141312, Note_off_c, 11, 62, 0
11, 141312, Note_on_c, 11, 67, 120
11, 142464, Note_off_c, 11, 67, 0
11, 142464, Note_on_c, 11, 62, 120
11, 143616, Note_off_c, 11, 62, 0
11, 143616, Note_on_c, 11, 67, 120
11, 144768, Note_off_c, 11, 67, 0
11, 145920, End_track
12, 0, Start_track
12, 0, Title_t, "choir2"
12, 0, Control_c, 0, 121, 0
12, 0, Control_c, 0, 11, 127
12, 0, Control_c, 0, 91, 127
12, 0, Control_c, 0, 93, 80
12, 0, Control_c, 0, 1, 24
12, 384, Control_c, 0, 0, 0
12, 387, Control_c, 0, 32, 8
12, 390, Program_c, 0, 48
12, 393, Control_c, 0, 7, 90
12, 393, Control_c, 0, 10, 64
12, 4608, Note_on_c, 0, 50, 100
12, 4608, Note_on_c, 0, 66, 100
12, 4608, Note_on_c, 0, 57, 100
12, 7680, Note_on_c, 0, 67, 100
12, 7728, Note_off_c, 0, 66, 0
12, 7776, Note_off_c, 0, 57, 0
12, 7776, Note_on_c, 0, 59, 100
12, 8112, Note_on_c, 0, 66, 100
12, 8160, Note_off_c, 0, 67, 0
12, 8160, Note_on_c, 0, 57, 100
12, 8208, Note_off_c, 0, 59, 0
12, 8640, Note_on_c, 0, 67, 100
12, 8640, Note_on_c, 0, 59, 100
12, 8688, Note_off_c, 0, 57, 0
12, 8688, Note_off_c, 0, 66, 0
12, 9024, Note_on_c, 0, 66, 100
12, 9024, Note_on_c, 0, 57, 100
12, 9072, Note_off_c, 0, 59, 0
12, 9072, Note_off_c, 0, 67, 0
12, 12096, Note_off_c, 0, 57, 0
12, 12096, Note_off_c, 0, 66, 0
12, 12096, Note_on_c, 0, 69, 100
12, 12096, Note_on_c, 0, 62, 100
12, 13440, Note_on_c, 0, 67, 100
12, 13488, Note_off_c, 0, 69, 0
12, 14208, Note_on_c, 0, 69, 100
12, 14208, Note_on_c, 0, 61, 100
12, 14256, Note_off_c, 0, 67, 0
12, 14256, Note_off_c, 0, 62, 0
12, 14473, Note_off_c, 0, 61, 0
12, 14473, Note_off_c, 0, 69, 0
12, 14486, Note_on_c, 0, 67, 100
12, 14486, Note_on_c, 0, 59, 100
12, 14736, Note_off_c, 0, 59, 0
12, 14742, Note_off_c, 0, 67, 0
12, 14784, Note_on_c, 0, 57, 100
12, 14784, Note_on_c, 0, 66, 100
12, 15792, Note_off_c, 0, 66, 0
12, 15792, Note_off_c, 0, 50, 0
12, 15936, Note_off_c, 0, 57, 0
12, 49152, Note_on_c, 0, 50, 100
12, 49152, Note_on_c, 0, 66, 100
12, 49152, Note_on_c, 0, 57, 100
12, 52320, Note_off_c, 0, 66, 0
12, 52320, Note_on_c, 0, 59, 100
12, 52320, Note_on_c, 0, 67, 100
12, 52368, Note_off_c, 0, 57, 0
12, 52656, Note_on_c, 0, 66, 100
12, 52694, Note_on_c, 0, 57, 100
12, 52704, Note_off_c, 0, 67, 0
12, 52704, Note_off_c, 0, 59, 0
12, 53184, Note_on_c, 0, 67, 100
12, 53184, Note_on_c, 0, 59, 100
12, 53222, Note_off_c, 0, 57, 0
12, 53232, Note_off_c, 0, 66, 0
12, 53568, Note_on_c, 0, 66, 100
12, 53568, Note_on_c, 0, 57, 100
12, 53616, Note_off_c, 0, 59, 0
12, 53616, Note_off_c, 0, 67, 0
12, 56640, Note_off_c, 0, 57, 0
12, 56640, Note_off_c, 0, 66, 0
12, 56640, Note_on_c, 0, 69, 100
12, 56640, Note_on_c, 0, 62, 100
12, 57984, Note_on_c, 0, 67, 100
12, 58032, Note_off_c, 0, 69, 0
12, 58752, Note_on_c, 0, 69, 100
12, 58752, Note_on_c, 0, 61, 100
12, 58800, Note_off_c, 0, 67, 0
12, 58800, Note_off_c, 0, 62, 0
12, 59017, Note_off_c, 0, 61, 0
12, 59017, Note_off_c, 0, 69, 0
12, 59030, Note_on_c, 0, 67, 100
12, 59030, Note_on_c, 0, 59, 100
12, 59280, Note_off_c, 0, 59, 0
12, 59286, Note_off_c, 0, 67, 0
12, 59328, Note_on_c, 0, 66, 100
12, 59328, Note_on_c, 0, 57, 100
12, 60336, Note_off_c, 0, 57, 0
12, 60336, Note_off_c, 0, 66, 0
12, 60336, Note_off_c, 0, 50, 0
12, 93696, Note_on_c, 0, 50, 100
12, 93696, Note_on_c, 0, 66, 100
12, 93696, Note_on_c, 0, 57, 100
12, 96768, Note_on_c, 0, 67, 100
12, 96816, Note_off_c, 0, 66, 0
12, 96864, Note_on_c, 0, 59, 100
12, 96912, Note_off_c, 0, 57, 0
12, 97200, Note_on_c, 0, 66, 100
12, 97248, Note_off_c, 0, 67, 0
12, 97296, Note_on_c, 0, 57, 100
12, 97344, Note_off_c, 0, 59, 0
12, 97728, Note_on_c, 0, 59, 100
12, 97728, Note_on_c, 0, 67, 100
12, 97776, Note_off_c, 0, 57, 0
12, 97776, Note_off_c, 0, 66, 0
12, 98112, Note_on_c, 0, 66, 100
12, 98112, Note_on_c, 0, 57, 100
12, 98160, Note_off_c, 0, 67, 0
12, 98160, Note_off_c, 0, 59, 0
12, 101184, Note_off_c, 0, 57, 0
12, 101184, Note_off_c, 0, 66, 0
12, 101184, Note_on_c, 0, 69, 100
12, 101184, Note_on_c, 0, 62, 100
12, 102528, Note_on_c, 0, 67, 100
12, 102576, Note_off_c, 0, 69, 0
12, 103296, Note_on_c, 0, 69, 100
12, 103296, Note_on_c, 0, 61, 100
12, 103344, Note_off_c, 0, 67, 0
12, 103344, Note_off_c, 0, 62, 0
12, 103561, Note_off_c, 0, 61, 0
12, 103561, Note_off_c, 0, 69, 0
12, 103574, Note_on_c, 0, 67, 100
12, 103574, Note_on_c, 0, 59, 100
12, 103824, Note_off_c, 0, 59, 0
12, 103830, Note_off_c, 0, 67, 0
12, 103872, Note_on_c, 0, 66, 100
12, 103872, Note_on_c, 0, 57, 100
12, 104880, Note_off_c, 0, 66, 0
12, 104880, Note_off_c, 0, 50, 0
12, 105024, Note_off_c, 0, 57, 0
12, 105984, End_track
0, 0, End_of_file
