0, 0, Header, 1, 26, 192
1, 0, Start_track
1, 0, Time_signature, 4, 2, 24, 8
1, 0, Key_signature, 0, "major"
1, 0, Tempo, 365854
1, 0, Marker_t, "Melody"
1, 0, End_track
2, 0, Start_track
2, 0, MIDI_port, 0
2, 0, Title_t, "Bass Gtr            "
2, 1536, Note_on_c, 1, 26, 104
2, 4512, Note_on_c, 1, 26, 0
2, 4608, Note_on_c, 1, 26, 99
2, 4826, Note_on_c, 1, 26, 0
2, 5312, Note_on_c, 1, 26, 82
2, 5359, Note_on_c, 1, 26, 0
2, 5375, Note_on_c, 1, 26, 99
2, 5597, Note_on_c, 1, 26, 0
2, 6143, Note_on_c, 1, 26, 91
2, 6361, Note_on_c, 1, 26, 0
2, 6463, Note_on_c, 1, 26, 90
2, 6511, Note_on_c, 1, 26, 0
2, 6848, Note_on_c, 1, 26, 82
2, 6894, Note_on_c, 1, 26, 0
2, 6912, Note_on_c, 1, 26, 100
2, 7135, Note_on_c, 1, 26, 0
2, 7679, Note_on_c, 1, 26, 101
2, 7887, Note_on_c, 1, 26, 0
2, 8384, Note_on_c, 1, 26, 82
2, 8433, Note_on_c, 1, 26, 0
2, 8447, Note_on_c, 1, 26, 103
2, 8660, Note_on_c, 1, 26, 0
2, 9216, Note_on_c, 1, 26, 101
2, 9440, Note_on_c, 1, 26, 0
2, 9536, Note_on_c, 1, 26, 90
2, 9572, Note_on_c, 1, 26, 0
2, 9920, Note_on_c, 1, 26, 87
2, 9967, Note_on_c, 1, 26, 0
2, 9983, Note_on_c, 1, 26, 101
2, 10203, Note_on_c, 1, 26, 0
2, 10751, Note_on_c, 1, 26, 100
2, 10955, Note_on_c, 1, 26, 0
2, 11456, Note_on_c, 1, 26, 85
2, 11503, Note_on_c, 1, 26, 0
2, 11520, Note_on_c, 1, 26, 100
2, 11709, Note_on_c, 1, 26, 0
2, 12287, Note_on_c, 1, 26, 101
2, 12518, Note_on_c, 1, 26, 0
2, 12608, Note_on_c, 1, 26, 101
2, 12646, Note_on_c, 1, 26, 0
2, 12992, Note_on_c, 1, 26, 82
2, 13031, Note_on_c, 1, 26, 0
2, 13056, Note_on_c, 1, 38, 103
2, 13216, Note_on_c, 1, 38, 0
2, 13440, Note_on_c, 1, 45, 87
2, 13632, Note_on_c, 1, 43, 97
2, 13637, Note_on_c, 1, 45, 0
2, 13824, Note_on_c, 1, 38, 94
2, 13826, Note_on_c, 1, 43, 0
2, 14015, Note_on_c, 1, 38, 0
2, 14015, Note_on_c, 1, 42, 82
2, 14207, Note_on_c, 1, 42, 0
2, 14208, Note_on_c, 1, 45, 90
2, 14390, Note_on_c, 1, 45, 0
2, 14400, Note_on_c, 1, 47, 91
2, 14592, Note_on_c, 1, 38, 93
2, 14601, Note_on_c, 1, 47, 0
2, 14784, Note_on_c, 1, 42, 86
2, 14801, Note_on_c, 1, 38, 0
2, 14973, Note_on_c, 1, 42, 0
2, 14976, Note_on_c, 1, 45, 89
2, 15154, Note_on_c, 1, 45, 0
2, 15167, Note_on_c, 1, 47, 91
2, 15360, Note_on_c, 1, 43, 97
2, 15365, Note_on_c, 1, 47, 0
2, 15552, Note_on_c, 1, 40, 93
2, 15556, Note_on_c, 1, 43, 0
2, 15735, Note_on_c, 1, 40, 0
2, 15744, Note_on_c, 1, 38, 93
2, 15924, Note_on_c, 1, 38, 0
2, 15935, Note_on_c, 1, 40, 90
2, 16006, Note_on_c, 1, 40, 0
2, 16064, Note_on_c, 1, 40, 89
2, 16127, Note_on_c, 1, 40, 0
2, 16128, Note_on_c, 1, 43, 93
2, 16205, Note_on_c, 1, 43, 0
2, 16256, Note_on_c, 1, 43, 82
2, 16311, Note_on_c, 1, 43, 0
2, 16320, Note_on_c, 1, 40, 87
2, 16506, Note_on_c, 1, 40, 0
2, 16512, Note_on_c, 1, 38, 93
2, 16695, Note_on_c, 1, 38, 0
2, 16702, Note_on_c, 1, 40, 89
2, 16896, Note_on_c, 1, 38, 87
2, 16906, Note_on_c, 1, 40, 0
2, 17088, Note_on_c, 1, 42, 82
2, 17110, Note_on_c, 1, 38, 0
2, 17279, Note_on_c, 1, 42, 0
2, 17279, Note_on_c, 1, 45, 91
2, 17463, Note_on_c, 1, 45, 0
2, 17471, Note_on_c, 1, 47, 93
2, 17660, Note_on_c, 1, 47, 0
2, 17664, Note_on_c, 1, 38, 93
2, 17855, Note_on_c, 1, 38, 0
2, 17855, Note_on_c, 1, 42, 88
2, 18034, Note_on_c, 1, 42, 0
2, 18048, Note_on_c, 1, 45, 94
2, 18230, Note_on_c, 1, 45, 0
2, 18240, Note_on_c, 1, 47, 97
2, 18423, Note_on_c, 1, 47, 0
2, 18432, Note_on_c, 1, 43, 99
2, 18623, Note_on_c, 1, 40, 93
2, 18637, Note_on_c, 1, 43, 0
2, 18811, Note_on_c, 1, 40, 0
2, 18816, Note_on_c, 1, 38, 86
2, 18994, Note_on_c, 1, 38, 0
2, 19007, Note_on_c, 1, 40, 90
2, 19084, Note_on_c, 1, 40, 0
2, 19135, Note_on_c, 1, 40, 82
2, 19200, Note_on_c, 1, 43, 99
2, 19205, Note_on_c, 1, 40, 0
2, 19287, Note_on_c, 1, 43, 0
2, 19328, Note_on_c, 1, 43, 82
2, 19391, Note_on_c, 1, 40, 86
2, 19396, Note_on_c, 1, 43, 0
2, 19582, Note_on_c, 1, 40, 0
2, 19585, Note_on_c, 1, 38, 89
2, 19754, Note_on_c, 1, 38, 0
2, 19775, Note_on_c, 1, 40, 90
2, 19968, Note_on_c, 1, 38, 86
2, 19976, Note_on_c, 1, 40, 0
2, 20160, Note_on_c, 1, 42, 83
2, 20171, Note_on_c, 1, 38, 0
2, 20349, Note_on_c, 1, 42, 0
2, 20352, Note_on_c, 1, 45, 90
2, 20527, Note_on_c, 1, 45, 0
2, 20543, Note_on_c, 1, 47, 99
2, 20736, Note_on_c, 1, 38, 96
2, 20741, Note_on_c, 1, 47, 0
2, 20926, Note_on_c, 1, 38, 0
2, 20928, Note_on_c, 1, 42, 86
2, 21119, Note_on_c, 1, 42, 0
2, 21119, Note_on_c, 1, 45, 91
2, 21303, Note_on_c, 1, 45, 0
2, 21311, Note_on_c, 1, 47, 96
2, 21495, Note_on_c, 1, 47, 0
2, 21504, Note_on_c, 1, 43, 97
2, 21694, Note_on_c, 1, 43, 0
2, 21695, Note_on_c, 1, 40, 94
2, 21882, Note_on_c, 1, 40, 0
2, 21887, Note_on_c, 1, 38, 91
2, 22055, Note_on_c, 1, 38, 0
2, 22079, Note_on_c, 1, 40, 91
2, 22154, Note_on_c, 1, 40, 0
2, 22208, Note_on_c, 1, 40, 82
2, 22271, Note_on_c, 1, 43, 96
2, 22280, Note_on_c, 1, 40, 0
2, 22351, Note_on_c, 1, 43, 0
2, 22399, Note_on_c, 1, 43, 82
2, 22452, Note_on_c, 1, 43, 0
2, 22464, Note_on_c, 1, 40, 87
2, 22655, Note_on_c, 1, 40, 0
2, 22655, Note_on_c, 1, 38, 91
2, 22826, Note_on_c, 1, 38, 0
2, 22848, Note_on_c, 1, 40, 91
2, 23040, Note_on_c, 1, 38, 82
2, 23045, Note_on_c, 1, 40, 0
2, 23232, Note_on_c, 1, 42, 86
2, 23238, Note_on_c, 1, 38, 0
2, 23422, Note_on_c, 1, 42, 0
2, 23424, Note_on_c, 1, 45, 90
2, 23615, Note_on_c, 1, 45, 0
2, 23615, Note_on_c, 1, 47, 90
2, 23807, Note_on_c, 1, 47, 0
2, 23807, Note_on_c, 1, 38, 90
2, 23983, Note_on_c, 1, 38, 0
2, 23999, Note_on_c, 1, 42, 88
2, 24183, Note_on_c, 1, 42, 0
2, 24191, Note_on_c, 1, 45, 87
2, 24375, Note_on_c, 1, 45, 0
2, 24383, Note_on_c, 1, 47, 90
2, 24557, Note_on_c, 1, 47, 0
2, 24575, Note_on_c, 1, 43, 91
2, 24759, Note_on_c, 1, 43, 0
2, 24767, Note_on_c, 1, 40, 94
2, 24959, Note_on_c, 1, 40, 0
2, 24959, Note_on_c, 1, 38, 93
2, 25116, Note_on_c, 1, 38, 0
2, 25152, Note_on_c, 1, 40, 85
2, 25231, Note_on_c, 1, 40, 0
2, 25280, Note_on_c, 1, 40, 82
2, 25327, Note_on_c, 1, 40, 0
2, 25343, Note_on_c, 1, 43, 96
2, 25436, Note_on_c, 1, 43, 0
2, 25472, Note_on_c, 1, 43, 82
2, 25524, Note_on_c, 1, 43, 0
2, 25536, Note_on_c, 1, 40, 87
2, 25716, Note_on_c, 1, 40, 0
2, 25728, Note_on_c, 1, 38, 93
2, 25903, Note_on_c, 1, 38, 0
2, 25919, Note_on_c, 1, 40, 90
2, 26110, Note_on_c, 1, 40, 0
2, 26112, Note_on_c, 1, 38, 91
2, 26303, Note_on_c, 1, 42, 83
2, 26310, Note_on_c, 1, 38, 0
2, 26495, Note_on_c, 1, 45, 90
2, 26502, Note_on_c, 1, 42, 0
2, 26685, Note_on_c, 1, 45, 0
2, 26687, Note_on_c, 1, 47, 94
2, 26878, Note_on_c, 1, 47, 0
2, 26879, Note_on_c, 1, 38, 93
2, 27066, Note_on_c, 1, 38, 0
2, 27072, Note_on_c, 1, 42, 83
2, 27255, Note_on_c, 1, 42, 0
2, 27263, Note_on_c, 1, 45, 90
2, 27446, Note_on_c, 1, 45, 0
2, 27456, Note_on_c, 1, 47, 93
2, 27642, Note_on_c, 1, 47, 0
2, 27648, Note_on_c, 1, 43, 94
2, 27838, Note_on_c, 1, 43, 0
2, 27840, Note_on_c, 1, 40, 91
2, 28014, Note_on_c, 1, 40, 0
2, 28032, Note_on_c, 1, 38, 82
2, 28207, Note_on_c, 1, 38, 0
2, 28223, Note_on_c, 1, 40, 91
2, 28294, Note_on_c, 1, 40, 0
2, 28352, Note_on_c, 1, 40, 82
2, 28415, Note_on_c, 1, 43, 96
2, 28429, Note_on_c, 1, 40, 0
2, 28499, Note_on_c, 1, 43, 0
2, 28543, Note_on_c, 1, 43, 82
2, 28604, Note_on_c, 1, 43, 0
2, 28607, Note_on_c, 1, 40, 87
2, 28799, Note_on_c, 1, 38, 91
2, 28802, Note_on_c, 1, 40, 0
2, 28962, Note_on_c, 1, 38, 0
2, 28992, Note_on_c, 1, 40, 96
2, 29184, Note_on_c, 1, 38, 93
2, 29187, Note_on_c, 1, 40, 0
2, 29372, Note_on_c, 1, 38, 0
2, 29375, Note_on_c, 1, 42, 82
2, 29568, Note_on_c, 1, 45, 87
2, 29574, Note_on_c, 1, 42, 0
2, 29754, Note_on_c, 1, 45, 0
2, 29760, Note_on_c, 1, 47, 91
2, 29952, Note_on_c, 1, 38, 90
2, 29957, Note_on_c, 1, 47, 0
2, 30127, Note_on_c, 1, 38, 0
2, 30144, Note_on_c, 1, 42, 84
2, 30326, Note_on_c, 1, 42, 0
2, 30336, Note_on_c, 1, 45, 93
2, 30525, Note_on_c, 1, 45, 0
2, 30527, Note_on_c, 1, 47, 99
2, 30716, Note_on_c, 1, 47, 0
2, 30719, Note_on_c, 1, 43, 96
2, 30912, Note_on_c, 1, 40, 96
2, 30916, Note_on_c, 1, 43, 0
2, 31089, Note_on_c, 1, 40, 0
2, 31104, Note_on_c, 1, 38, 93
2, 31274, Note_on_c, 1, 38, 0
2, 31296, Note_on_c, 1, 40, 87
2, 31364, Note_on_c, 1, 40, 0
2, 31424, Note_on_c, 1, 40, 82
2, 31485, Note_on_c, 1, 40, 0
2, 31488, Note_on_c, 1, 43, 96
2, 31564, Note_on_c, 1, 43, 0
2, 31615, Note_on_c, 1, 43, 82
2, 31679, Note_on_c, 1, 43, 0
2, 31679, Note_on_c, 1, 40, 86
2, 31859, Note_on_c, 1, 40, 0
2, 31872, Note_on_c, 1, 38, 94
2, 32031, Note_on_c, 1, 38, 0
2, 32063, Note_on_c, 1, 40, 93
2, 32256, Note_on_c, 1, 38, 90
2, 32263, Note_on_c, 1, 40, 0
2, 32379, Note_on_c, 1, 38, 0
2, 32447, Note_on_c, 1, 38, 82
2, 32556, Note_on_c, 1, 38, 0
2, 32640, Note_on_c, 1, 38, 87
2, 32741, Note_on_c, 1, 38, 0
2, 32832, Note_on_c, 1, 38, 90
2, 32939, Note_on_c, 1, 38, 0
2, 33024, Note_on_c, 1, 42, 91
2, 33134, Note_on_c, 1, 42, 0
2, 33216, Note_on_c, 1, 42, 89
2, 33324, Note_on_c, 1, 42, 0
2, 33408, Note_on_c, 1, 42, 93
2, 33500, Note_on_c, 1, 42, 0
2, 33600, Note_on_c, 1, 42, 94
2, 33761, Note_on_c, 1, 42, 0
2, 33791, Note_on_c, 1, 43, 91
2, 33902, Note_on_c, 1, 43, 0
2, 33984, Note_on_c, 1, 43, 91
2, 34081, Note_on_c, 1, 43, 0
2, 34176, Note_on_c, 1, 43, 91
2, 34283, Note_on_c, 1, 43, 0
2, 34368, Note_on_c, 1, 43, 93
2, 34462, Note_on_c, 1, 43, 0
2, 34560, Note_on_c, 1, 43, 87
2, 34669, Note_on_c, 1, 43, 0
2, 34752, Note_on_c, 1, 43, 93
2, 34838, Note_on_c, 1, 43, 0
2, 34944, Note_on_c, 1, 43, 91
2, 35041, Note_on_c, 1, 43, 0
2, 35136, Note_on_c, 1, 43, 93
2, 35327, Note_on_c, 1, 43, 0
2, 35327, Note_on_c, 1, 38, 94
2, 35427, Note_on_c, 1, 38, 0
2, 35520, Note_on_c, 1, 38, 89
2, 35607, Note_on_c, 1, 38, 0
2, 35711, Note_on_c, 1, 38, 93
2, 35811, Note_on_c, 1, 38, 0
2, 35904, Note_on_c, 1, 38, 82
2, 36009, Note_on_c, 1, 38, 0
2, 36096, Note_on_c, 1, 42, 86
2, 36202, Note_on_c, 1, 42, 0
2, 36288, Note_on_c, 1, 42, 82
2, 36390, Note_on_c, 1, 42, 0
2, 36480, Note_on_c, 1, 42, 89
2, 36583, Note_on_c, 1, 42, 0
2, 36672, Note_on_c, 1, 42, 90
2, 36838, Note_on_c, 1, 42, 0
2, 36865, Note_on_c, 1, 43, 91
2, 36982, Note_on_c, 1, 43, 0
2, 37056, Note_on_c, 1, 43, 91
2, 37148, Note_on_c, 1, 43, 0
2, 37248, Note_on_c, 1, 43, 93
2, 37355, Note_on_c, 1, 43, 0
2, 37440, Note_on_c, 1, 43, 91
2, 37550, Note_on_c, 1, 43, 0
2, 37632, Note_on_c, 1, 43, 90
2, 37746, Note_on_c, 1, 43, 0
2, 37824, Note_on_c, 1, 43, 91
2, 37930, Note_on_c, 1, 43, 0
2, 38017, Note_on_c, 1, 43, 91
2, 38127, Note_on_c, 1, 43, 0
2, 38208, Note_on_c, 1, 43, 91
2, 38313, Note_on_c, 1, 43, 0
2, 38400, Note_on_c, 1, 45, 85
2, 38515, Note_on_c, 1, 45, 0
2, 38592, Note_on_c, 1, 45, 86
2, 38693, Note_on_c, 1, 45, 0
2, 38785, Note_on_c, 1, 45, 85
2, 38879, Note_on_c, 1, 45, 0
2, 38975, Note_on_c, 1, 45, 89
2, 39139, Note_on_c, 1, 45, 0
2, 39168, Note_on_c, 1, 47, 86
2, 39285, Note_on_c, 1, 47, 0
2, 39360, Note_on_c, 1, 47, 89
2, 39475, Note_on_c, 1, 47, 0
2, 39552, Note_on_c, 1, 47, 89
2, 39663, Note_on_c, 1, 47, 0
2, 39744, Note_on_c, 1, 47, 87
2, 39922, Note_on_c, 1, 47, 0
2, 39936, Note_on_c, 1, 43, 93
2, 40057, Note_on_c, 1, 43, 0
2, 40128, Note_on_c, 1, 43, 91
2, 40223, Note_on_c, 1, 43, 0
2, 40320, Note_on_c, 1, 43, 91
2, 40423, Note_on_c, 1, 43, 0
2, 40512, Note_on_c, 1, 43, 96
2, 40701, Note_on_c, 1, 43, 0
2, 40703, Note_on_c, 1, 45, 96
2, 40890, Note_on_c, 1, 45, 0
2, 40896, Note_on_c, 1, 43, 91
2, 41065, Note_on_c, 1, 43, 0
2, 41088, Note_on_c, 1, 42, 83
2, 41281, Note_on_c, 1, 40, 94
2, 41284, Note_on_c, 1, 42, 0
2, 41471, Note_on_c, 1, 38, 85
2, 41482, Note_on_c, 1, 40, 0
2, 41663, Note_on_c, 1, 38, 0
2, 41663, Note_on_c, 1, 42, 84
2, 41845, Note_on_c, 1, 42, 0
2, 41856, Note_on_c, 1, 45, 86
2, 42039, Note_on_c, 1, 45, 0
2, 42048, Note_on_c, 1, 47, 91
2, 42236, Note_on_c, 1, 47, 0
2, 42240, Note_on_c, 1, 38, 90
2, 42432, Note_on_c, 1, 42, 82
2, 42445, Note_on_c, 1, 38, 0
2, 42623, Note_on_c, 1, 42, 0
2, 42623, Note_on_c, 1, 45, 86
2, 42803, Note_on_c, 1, 45, 0
2, 42816, Note_on_c, 1, 47, 89
2, 42999, Note_on_c, 1, 47, 0
2, 43008, Note_on_c, 1, 43, 91
2, 43200, Note_on_c, 1, 43, 0
2, 43200, Note_on_c, 1, 40, 93
2, 43382, Note_on_c, 1, 40, 0
2, 43392, Note_on_c, 1, 38, 82
2, 43555, Note_on_c, 1, 38, 0
2, 43583, Note_on_c, 1, 40, 82
2, 43655, Note_on_c, 1, 40, 0
2, 43712, Note_on_c, 1, 40, 82
2, 43775, Note_on_c, 1, 43, 90
2, 43787, Note_on_c, 1, 40, 0
2, 43855, Note_on_c, 1, 43, 0
2, 43905, Note_on_c, 1, 43, 82
2, 43963, Note_on_c, 1, 43, 0
2, 43967, Note_on_c, 1, 40, 94
2, 44160, Note_on_c, 1, 40, 0
2, 44160, Note_on_c, 1, 38, 82
2, 44335, Note_on_c, 1, 38, 0
2, 44351, Note_on_c, 1, 40, 85
2, 44535, Note_on_c, 1, 40, 0
2, 44545, Note_on_c, 1, 38, 90
2, 44735, Note_on_c, 1, 42, 82
2, 44754, Note_on_c, 1, 38, 0
2, 44927, Note_on_c, 1, 42, 0
2, 44928, Note_on_c, 1, 45, 85
2, 45116, Note_on_c, 1, 45, 0
2, 45120, Note_on_c, 1, 47, 91
2, 45310, Note_on_c, 1, 47, 0
2, 45312, Note_on_c, 1, 38, 90
2, 45498, Note_on_c, 1, 38, 0
2, 45504, Note_on_c, 1, 42, 82
2, 45692, Note_on_c, 1, 42, 0
2, 45696, Note_on_c, 1, 45, 86
2, 45878, Note_on_c, 1, 45, 0
2, 45888, Note_on_c, 1, 47, 90
2, 46075, Note_on_c, 1, 47, 0
2, 46080, Note_on_c, 1, 43, 91
2, 46270, Note_on_c, 1, 43, 0
2, 46272, Note_on_c, 1, 40, 91
2, 46452, Note_on_c, 1, 40, 0
2, 46463, Note_on_c, 1, 38, 82
2, 46649, Note_on_c, 1, 38, 0
2, 46656, Note_on_c, 1, 40, 87
2, 46722, Note_on_c, 1, 40, 0
2, 46784, Note_on_c, 1, 40, 82
2, 46848, Note_on_c, 1, 43, 90
2, 46862, Note_on_c, 1, 40, 0
2, 46930, Note_on_c, 1, 43, 0
2, 46975, Note_on_c, 1, 43, 82
2, 47036, Note_on_c, 1, 43, 0
2, 47040, Note_on_c, 1, 40, 96
2, 47217, Note_on_c, 1, 40, 0
2, 47231, Note_on_c, 1, 38, 86
2, 47397, Note_on_c, 1, 38, 0
2, 47423, Note_on_c, 1, 40, 91
2, 47604, Note_on_c, 1, 40, 0
2, 47616, Note_on_c, 1, 38, 94
2, 47812, Note_on_c, 1, 38, 0
2, 48319, Note_on_c, 1, 33, 86
2, 48383, Note_on_c, 1, 33, 0
2, 48384, Note_on_c, 1, 38, 97
2, 48575, Note_on_c, 1, 38, 0
2, 49152, Note_on_c, 1, 38, 100
2, 49371, Note_on_c, 1, 38, 0
2, 49471, Note_on_c, 1, 38, 100
2, 49511, Note_on_c, 1, 38, 0
2, 49856, Note_on_c, 1, 33, 86
2, 49903, Note_on_c, 1, 33, 0
2, 49920, Note_on_c, 1, 38, 90
2, 50111, Note_on_c, 1, 38, 0
2, 50687, Note_on_c, 1, 38, 99
2, 50903, Note_on_c, 1, 38, 0
2, 51392, Note_on_c, 1, 33, 82
2, 51446, Note_on_c, 1, 33, 0
2, 51455, Note_on_c, 1, 38, 90
2, 51622, Note_on_c, 1, 38, 0
2, 52223, Note_on_c, 1, 38, 100
2, 52457, Note_on_c, 1, 38, 0
2, 52543, Note_on_c, 1, 38, 97
2, 52578, Note_on_c, 1, 38, 0
2, 52928, Note_on_c, 1, 33, 82
2, 52965, Note_on_c, 1, 33, 0
2, 52992, Note_on_c, 1, 38, 91
2, 53170, Note_on_c, 1, 38, 0
2, 53760, Note_on_c, 1, 38, 96
2, 53952, Note_on_c, 1, 42, 83
2, 53963, Note_on_c, 1, 38, 0
2, 54141, Note_on_c, 1, 42, 0
2, 54144, Note_on_c, 1, 45, 91
2, 54321, Note_on_c, 1, 45, 0
2, 54336, Note_on_c, 1, 47, 87
2, 54528, Note_on_c, 1, 38, 91
2, 54536, Note_on_c, 1, 47, 0
2, 54715, Note_on_c, 1, 38, 0
2, 54720, Note_on_c, 1, 42, 84
2, 54911, Note_on_c, 1, 45, 89
2, 54913, Note_on_c, 1, 42, 0
2, 55100, Note_on_c, 1, 45, 0
2, 55103, Note_on_c, 1, 47, 94
2, 55296, Note_on_c, 1, 43, 91
2, 55299, Note_on_c, 1, 47, 0
2, 55488, Note_on_c, 1, 40, 93
2, 55490, Note_on_c, 1, 43, 0
2, 55670, Note_on_c, 1, 40, 0
2, 55680, Note_on_c, 1, 38, 82
2, 55865, Note_on_c, 1, 38, 0
2, 55871, Note_on_c, 1, 40, 87
2, 55937, Note_on_c, 1, 40, 0
2, 56000, Note_on_c, 1, 40, 82
2, 56063, Note_on_c, 1, 43, 94
2, 56067, Note_on_c, 1, 40, 0
2, 56157, Note_on_c, 1, 43, 0
2, 56193, Note_on_c, 1, 43, 82
2, 56249, Note_on_c, 1, 43, 0
2, 56256, Note_on_c, 1, 40, 85
2, 56435, Note_on_c, 1, 40, 0
2, 56448, Note_on_c, 1, 38, 93
2, 56609, Note_on_c, 1, 38, 0
2, 56639, Note_on_c, 1, 40, 90
2, 56830, Note_on_c, 1, 40, 0
2, 56832, Note_on_c, 1, 38, 91
2, 57024, Note_on_c, 1, 42, 84
2, 57027, Note_on_c, 1, 38, 0
2, 57215, Note_on_c, 1, 45, 85
2, 57225, Note_on_c, 1, 42, 0
2, 57395, Note_on_c, 1, 45, 0
2, 57407, Note_on_c, 1, 47, 90
2, 57594, Note_on_c, 1, 47, 0
2, 57600, Note_on_c, 1, 38, 93
2, 57787, Note_on_c, 1, 38, 0
2, 57791, Note_on_c, 1, 42, 84
2, 57984, Note_on_c, 1, 45, 87
2, 57987, Note_on_c, 1, 42, 0
2, 58169, Note_on_c, 1, 45, 0
2, 58176, Note_on_c, 1, 47, 96
2, 58363, Note_on_c, 1, 47, 0
2, 58368, Note_on_c, 1, 43, 93
2, 58549, Note_on_c, 1, 43, 0
2, 58560, Note_on_c, 1, 40, 91
2, 58747, Note_on_c, 1, 40, 0
2, 58752, Note_on_c, 1, 38, 89
2, 58934, Note_on_c, 1, 38, 0
2, 58943, Note_on_c, 1, 40, 91
2, 59017, Note_on_c, 1, 40, 0
2, 59072, Note_on_c, 1, 40, 82
2, 59135, Note_on_c, 1, 43, 91
2, 59145, Note_on_c, 1, 40, 0
2, 59223, Note_on_c, 1, 43, 0
2, 59263, Note_on_c, 1, 43, 82
2, 59322, Note_on_c, 1, 43, 0
2, 59328, Note_on_c, 1, 40, 87
2, 59503, Note_on_c, 1, 40, 0
2, 59520, Note_on_c, 1, 38, 91
2, 59702, Note_on_c, 1, 38, 0
2, 59712, Note_on_c, 1, 40, 90
2, 59903, Note_on_c, 1, 38, 91
2, 59916, Note_on_c, 1, 40, 0
2, 60086, Note_on_c, 1, 38, 0
2, 60096, Note_on_c, 1, 42, 83
2, 60288, Note_on_c, 1, 45, 87
2, 60293, Note_on_c, 1, 42, 0
2, 60469, Note_on_c, 1, 45, 0
2, 60480, Note_on_c, 1, 47, 93
2, 60669, Note_on_c, 1, 47, 0
2, 60672, Note_on_c, 1, 38, 91
2, 60864, Note_on_c, 1, 42, 86
2, 60874, Note_on_c, 1, 38, 0
2, 61050, Note_on_c, 1, 42, 0
2, 61056, Note_on_c, 1, 45, 87
2, 61236, Note_on_c, 1, 45, 0
2, 61247, Note_on_c, 1, 47, 90
2, 61430, Note_on_c, 1, 47, 0
2, 61439, Note_on_c, 1, 43, 86
2, 61631, Note_on_c, 1, 43, 0
2, 61631, Note_on_c, 1, 40, 93
2, 61814, Note_on_c, 1, 40, 0
2, 61823, Note_on_c, 1, 38, 82
2, 62006, Note_on_c, 1, 38, 0
2, 62016, Note_on_c, 1, 40, 89
2, 62092, Note_on_c, 1, 40, 0
2, 62144, Note_on_c, 1, 40, 82
2, 62208, Note_on_c, 1, 43, 94
2, 62210, Note_on_c, 1, 40, 0
2, 62303, Note_on_c, 1, 43, 0
2, 62335, Note_on_c, 1, 43, 82
2, 62394, Note_on_c, 1, 43, 0
2, 62400, Note_on_c, 1, 40, 85
2, 62591, Note_on_c, 1, 40, 0
2, 62591, Note_on_c, 1, 38, 91
2, 62766, Note_on_c, 1, 38, 0
2, 62783, Note_on_c, 1, 40, 94
2, 62971, Note_on_c, 1, 40, 0
2, 62976, Note_on_c, 1, 38, 86
2, 63168, Note_on_c, 1, 42, 82
2, 63170, Note_on_c, 1, 38, 0
2, 63348, Note_on_c, 1, 42, 0
2, 63359, Note_on_c, 1, 45, 89
2, 63543, Note_on_c, 1, 45, 0
2, 63551, Note_on_c, 1, 47, 91
2, 63735, Note_on_c, 1, 47, 0
2, 63744, Note_on_c, 1, 38, 91
2, 63915, Note_on_c, 1, 38, 0
2, 63936, Note_on_c, 1, 42, 84
2, 64121, Note_on_c, 1, 42, 0
2, 64128, Note_on_c, 1, 45, 93
2, 64308, Note_on_c, 1, 45, 0
2, 64319, Note_on_c, 1, 47, 93
2, 64503, Note_on_c, 1, 47, 0
2, 64511, Note_on_c, 1, 43, 91
2, 64695, Note_on_c, 1, 43, 0
2, 64703, Note_on_c, 1, 40, 91
2, 64892, Note_on_c, 1, 40, 0
2, 64896, Note_on_c, 1, 38, 91
2, 65062, Note_on_c, 1, 38, 0
2, 65088, Note_on_c, 1, 40, 90
2, 65157, Note_on_c, 1, 40, 0
2, 65216, Note_on_c, 1, 40, 82
2, 65273, Note_on_c, 1, 40, 0
2, 65280, Note_on_c, 1, 43, 91
2, 65374, Note_on_c, 1, 43, 0
2, 65408, Note_on_c, 1, 43, 82
2, 65468, Note_on_c, 1, 43, 0
2, 65472, Note_on_c, 1, 40, 96
2, 65652, Note_on_c, 1, 40, 0
2, 65664, Note_on_c, 1, 38, 93
2, 65824, Note_on_c, 1, 38, 0
2, 65856, Note_on_c, 1, 40, 91
2, 66039, Note_on_c, 1, 40, 0
2, 66047, Note_on_c, 1, 38, 87
2, 66165, Note_on_c, 1, 38, 0
2, 66240, Note_on_c, 1, 38, 90
2, 66345, Note_on_c, 1, 38, 0
2, 66432, Note_on_c, 1, 38, 84
2, 66545, Note_on_c, 1, 38, 0
2, 66624, Note_on_c, 1, 38, 87
2, 66735, Note_on_c, 1, 38, 0
2, 66816, Note_on_c, 1, 42, 91
2, 66917, Note_on_c, 1, 42, 0
2, 67008, Note_on_c, 1, 42, 86
2, 67114, Note_on_c, 1, 42, 0
2, 67200, Note_on_c, 1, 42, 82
2, 67303, Note_on_c, 1, 42, 0
2, 67392, Note_on_c, 1, 42, 91
2, 67552, Note_on_c, 1, 42, 0
2, 67583, Note_on_c, 1, 43, 85
2, 67699, Note_on_c, 1, 43, 0
2, 67777, Note_on_c, 1, 43, 86
2, 67895, Note_on_c, 1, 43, 0
2, 67968, Note_on_c, 1, 43, 84
2, 68065, Note_on_c, 1, 43, 0
2, 68160, Note_on_c, 1, 43, 91
2, 68260, Note_on_c, 1, 43, 0
2, 68351, Note_on_c, 1, 43, 91
2, 68461, Note_on_c, 1, 43, 0
2, 68543, Note_on_c, 1, 43, 91
2, 68634, Note_on_c, 1, 43, 0
2, 68736, Note_on_c, 1, 43, 86
2, 68830, Note_on_c, 1, 43, 0
2, 68928, Note_on_c, 1, 43, 91
2, 69110, Note_on_c, 1, 43, 0
2, 69120, Note_on_c, 1, 38, 84
2, 69229, Note_on_c, 1, 38, 0
2, 69311, Note_on_c, 1, 38, 93
2, 69408, Note_on_c, 1, 38, 0
2, 69503, Note_on_c, 1, 38, 91
2, 69610, Note_on_c, 1, 38, 0
2, 69696, Note_on_c, 1, 38, 91
2, 69798, Note_on_c, 1, 38, 0
2, 69888, Note_on_c, 1, 42, 91
2, 69993, Note_on_c, 1, 42, 0
2, 70080, Note_on_c, 1, 42, 82
2, 70167, Note_on_c, 1, 42, 0
2, 70272, Note_on_c, 1, 42, 91
2, 70367, Note_on_c, 1, 42, 0
2, 70464, Note_on_c, 1, 42, 82
2, 70642, Note_on_c, 1, 42, 0
2, 70656, Note_on_c, 1, 43, 90
2, 70766, Note_on_c, 1, 43, 0
2, 70847, Note_on_c, 1, 43, 91
2, 70945, Note_on_c, 1, 43, 0
2, 71040, Note_on_c, 1, 43, 91
2, 71135, Note_on_c, 1, 43, 0
2, 71232, Note_on_c, 1, 43, 91
2, 71332, Note_on_c, 1, 43, 0
2, 71424, Note_on_c, 1, 43, 91
2, 71521, Note_on_c, 1, 43, 0
2, 71616, Note_on_c, 1, 43, 86
2, 71719, Note_on_c, 1, 43, 0
2, 71808, Note_on_c, 1, 43, 87
2, 71909, Note_on_c, 1, 43, 0
2, 71998, Note_on_c, 1, 43, 93
2, 72188, Note_on_c, 1, 43, 0
2, 72192, Note_on_c, 1, 45, 91
2, 72285, Note_on_c, 1, 45, 0
2, 72383, Note_on_c, 1, 45, 87
2, 72470, Note_on_c, 1, 45, 0
2, 72575, Note_on_c, 1, 45, 87
2, 72667, Note_on_c, 1, 45, 0
2, 72768, Note_on_c, 1, 45, 90
2, 72953, Note_on_c, 1, 45, 0
2, 72961, Note_on_c, 1, 47, 94
2, 73071, Note_on_c, 1, 47, 0
2, 73152, Note_on_c, 1, 47, 90
2, 73263, Note_on_c, 1, 47, 0
2, 73344, Note_on_c, 1, 47, 89
2, 73457, Note_on_c, 1, 47, 0
2, 73536, Note_on_c, 1, 47, 90
2, 73687, Note_on_c, 1, 47, 0
2, 73728, Note_on_c, 1, 43, 90
2, 73836, Note_on_c, 1, 43, 0
2, 73919, Note_on_c, 1, 43, 91
2, 74031, Note_on_c, 1, 43, 0
2, 74111, Note_on_c, 1, 43, 93
2, 74249, Note_on_c, 1, 43, 0
2, 74304, Note_on_c, 1, 43, 93
2, 74490, Note_on_c, 1, 43, 0
2, 74495, Note_on_c, 1, 45, 94
2, 74671, Note_on_c, 1, 45, 0
2, 74688, Note_on_c, 1, 43, 90
2, 74866, Note_on_c, 1, 43, 0
2, 74879, Note_on_c, 1, 42, 82
2, 75067, Note_on_c, 1, 42, 0
2, 75071, Note_on_c, 1, 40, 94
2, 75263, Note_on_c, 1, 38, 93
2, 75274, Note_on_c, 1, 40, 0
2, 75444, Note_on_c, 1, 38, 0
2, 75456, Note_on_c, 1, 42, 82
2, 75647, Note_on_c, 1, 45, 84
2, 75654, Note_on_c, 1, 42, 0
2, 75834, Note_on_c, 1, 45, 0
2, 75840, Note_on_c, 1, 47, 86
2, 76032, Note_on_c, 1, 47, 0
2, 76032, Note_on_c, 1, 38, 93
2, 76223, Note_on_c, 1, 38, 0
2, 76223, Note_on_c, 1, 42, 82
2, 76404, Note_on_c, 1, 42, 0
2, 76416, Note_on_c, 1, 45, 82
2, 76595, Note_on_c, 1, 45, 0
2, 76607, Note_on_c, 1, 47, 89
2, 76797, Note_on_c, 1, 47, 0
2, 76800, Note_on_c, 1, 43, 91
2, 76992, Note_on_c, 1, 40, 91
2, 76995, Note_on_c, 1, 43, 0
2, 77179, Note_on_c, 1, 40, 0
2, 77183, Note_on_c, 1, 38, 86
2, 77365, Note_on_c, 1, 38, 0
2, 77376, Note_on_c, 1, 40, 87
2, 77455, Note_on_c, 1, 40, 0
2, 77504, Note_on_c, 1, 40, 82
2, 77567, Note_on_c, 1, 43, 91
2, 77577, Note_on_c, 1, 40, 0
2, 77647, Note_on_c, 1, 43, 0
2, 77696, Note_on_c, 1, 43, 82
2, 77758, Note_on_c, 1, 43, 0
2, 77760, Note_on_c, 1, 40, 91
2, 77942, Note_on_c, 1, 40, 0
2, 77952, Note_on_c, 1, 38, 82
2, 78135, Note_on_c, 1, 38, 0
2, 78143, Note_on_c, 1, 40, 87
2, 78335, Note_on_c, 1, 40, 0
2, 78335, Note_on_c, 1, 38, 86
2, 78526, Note_on_c, 1, 38, 0
2, 78528, Note_on_c, 1, 42, 82
2, 78718, Note_on_c, 1, 42, 0
2, 78719, Note_on_c, 1, 45, 86
2, 78902, Note_on_c, 1, 45, 0
2, 78911, Note_on_c, 1, 47, 86
2, 79102, Note_on_c, 1, 47, 0
2, 79104, Note_on_c, 1, 38, 85
2, 79296, Note_on_c, 1, 42, 82
2, 79305, Note_on_c, 1, 38, 0
2, 79486, Note_on_c, 1, 42, 0
2, 79487, Note_on_c, 1, 45, 90
2, 79670, Note_on_c, 1, 45, 0
2, 79679, Note_on_c, 1, 47, 89
2, 79870, Note_on_c, 1, 47, 0
2, 79871, Note_on_c, 1, 43, 91
2, 80059, Note_on_c, 1, 43, 0
2, 80064, Note_on_c, 1, 40, 93
2, 80250, Note_on_c, 1, 40, 0
2, 80256, Note_on_c, 1, 38, 86
2, 80427, Note_on_c, 1, 38, 0
2, 80448, Note_on_c, 1, 40, 82
2, 80516, Note_on_c, 1, 40, 0
2, 80576, Note_on_c, 1, 40, 82
2, 80640, Note_on_c, 1, 43, 94
2, 80651, Note_on_c, 1, 40, 0
2, 80727, Note_on_c, 1, 43, 0
2, 80767, Note_on_c, 1, 43, 82
2, 80832, Note_on_c, 1, 40, 93
2, 80835, Note_on_c, 1, 43, 0
2, 81019, Note_on_c, 1, 40, 0
2, 81023, Note_on_c, 1, 38, 86
2, 81194, Note_on_c, 1, 38, 0
2, 81215, Note_on_c, 1, 40, 89
2, 81399, Note_on_c, 1, 40, 0
2, 81408, Note_on_c, 1, 38, 97
2, 81613, Note_on_c, 1, 38, 0
2, 82113, Note_on_c, 1, 33, 85
2, 82171, Note_on_c, 1, 33, 0
2, 82176, Note_on_c, 1, 38, 99
2, 82372, Note_on_c, 1, 38, 0
2, 82944, Note_on_c, 1, 38, 97
2, 83183, Note_on_c, 1, 38, 0
2, 83264, Note_on_c, 1, 38, 96
2, 83308, Note_on_c, 1, 38, 0
2, 83648, Note_on_c, 1, 33, 90
2, 83703, Note_on_c, 1, 33, 0
2, 83712, Note_on_c, 1, 38, 93
2, 83933, Note_on_c, 1, 38, 0
2, 84480, Note_on_c, 1, 38, 97
2, 84657, Note_on_c, 1, 38, 0
2, 85184, Note_on_c, 1, 33, 82
2, 85247, Note_on_c, 1, 38, 96
2, 85251, Note_on_c, 1, 33, 0
2, 85431, Note_on_c, 1, 38, 0
2, 86015, Note_on_c, 1, 38, 94
2, 86237, Note_on_c, 1, 38, 0
2, 86336, Note_on_c, 1, 38, 100
2, 86375, Note_on_c, 1, 38, 0
2, 86720, Note_on_c, 1, 33, 86
2, 86765, Note_on_c, 1, 33, 0
2, 86784, Note_on_c, 1, 38, 91
2, 86944, Note_on_c, 1, 38, 0
2, 87551, Note_on_c, 1, 38, 93
2, 87744, Note_on_c, 1, 42, 84
2, 87763, Note_on_c, 1, 38, 0
2, 87927, Note_on_c, 1, 42, 0
2, 87936, Note_on_c, 1, 45, 90
2, 88124, Note_on_c, 1, 45, 0
2, 88129, Note_on_c, 1, 47, 87
2, 88308, Note_on_c, 1, 47, 0
2, 88319, Note_on_c, 1, 38, 90
2, 88375, Note_on_c, 1, 38, 0
2, 88448, Note_on_c, 1, 38, 82
2, 88507, Note_on_c, 1, 38, 0
2, 88511, Note_on_c, 1, 42, 82
2, 88704, Note_on_c, 1, 45, 90
2, 88708, Note_on_c, 1, 42, 0
2, 88895, Note_on_c, 1, 45, 0
2, 88895, Note_on_c, 1, 47, 89
2, 89084, Note_on_c, 1, 47, 0
2, 89088, Note_on_c, 1, 38, 91
2, 89261, Note_on_c, 1, 38, 0
2, 89280, Note_on_c, 1, 42, 84
2, 89471, Note_on_c, 1, 42, 0
2, 89471, Note_on_c, 1, 45, 90
2, 89657, Note_on_c, 1, 45, 0
2, 89664, Note_on_c, 1, 47, 91
2, 89855, Note_on_c, 1, 38, 90
2, 89858, Note_on_c, 1, 47, 0
2, 89911, Note_on_c, 1, 38, 0
2, 89984, Note_on_c, 1, 38, 84
2, 90043, Note_on_c, 1, 38, 0
2, 90048, Note_on_c, 1, 42, 84
2, 90239, Note_on_c, 1, 45, 87
2, 90253, Note_on_c, 1, 42, 0
2, 90415, Note_on_c, 1, 45, 0
2, 90432, Note_on_c, 1, 47, 90
2, 90623, Note_on_c, 1, 38, 90
2, 90625, Note_on_c, 1, 47, 0
2, 90805, Note_on_c, 1, 38, 0
2, 90815, Note_on_c, 1, 42, 83
2, 91008, Note_on_c, 1, 45, 89
2, 91017, Note_on_c, 1, 42, 0
2, 91199, Note_on_c, 1, 45, 0
2, 91199, Note_on_c, 1, 47, 94
2, 91391, Note_on_c, 1, 47, 0
2, 91391, Note_on_c, 1, 38, 91
2, 91455, Note_on_c, 1, 38, 0
2, 91520, Note_on_c, 1, 38, 84
2, 91566, Note_on_c, 1, 38, 0
2, 91584, Note_on_c, 1, 42, 86
2, 91775, Note_on_c, 1, 45, 94
2, 91788, Note_on_c, 1, 42, 0
2, 91954, Note_on_c, 1, 45, 0
2, 91968, Note_on_c, 1, 47, 89
2, 92151, Note_on_c, 1, 47, 0
2, 92160, Note_on_c, 1, 38, 91
2, 92343, Note_on_c, 1, 38, 0
2, 92350, Note_on_c, 1, 42, 88
2, 92543, Note_on_c, 1, 42, 0
2, 92544, Note_on_c, 1, 45, 94
2, 92724, Note_on_c, 1, 45, 0
2, 92736, Note_on_c, 1, 47, 94
2, 92925, Note_on_c, 1, 47, 0
2, 92928, Note_on_c, 1, 38, 97
2, 92988, Note_on_c, 1, 38, 0
2, 93056, Note_on_c, 1, 38, 82
2, 93095, Note_on_c, 1, 38, 0
2, 93119, Note_on_c, 1, 42, 90
2, 93303, Note_on_c, 1, 42, 0
2, 93312, Note_on_c, 1, 45, 91
2, 93504, Note_on_c, 1, 46, 92
2, 93507, Note_on_c, 1, 45, 0
2, 93683, Note_on_c, 1, 46, 0
2, 93695, Note_on_c, 1, 47, 82
2, 93837, Note_on_c, 1, 47, 0
2, 93888, Note_on_c, 1, 47, 89
2, 93993, Note_on_c, 1, 47, 0
2, 94080, Note_on_c, 1, 47, 89
2, 94189, Note_on_c, 1, 47, 0
2, 94272, Note_on_c, 1, 47, 87
2, 94450, Note_on_c, 1, 47, 0
2, 94464, Note_on_c, 1, 43, 90
2, 94577, Note_on_c, 1, 43, 0
2, 94656, Note_on_c, 1, 43, 91
2, 94762, Note_on_c, 1, 43, 0
2, 94847, Note_on_c, 1, 43, 86
2, 94946, Note_on_c, 1, 43, 0
2, 95040, Note_on_c, 1, 43, 91
2, 95220, Note_on_c, 1, 43, 0
2, 95232, Note_on_c, 1, 45, 90
2, 95342, Note_on_c, 1, 45, 0
2, 95424, Note_on_c, 1, 45, 89
2, 95535, Note_on_c, 1, 45, 0
2, 95616, Note_on_c, 1, 45, 84
2, 95724, Note_on_c, 1, 45, 0
2, 95808, Note_on_c, 1, 45, 86
2, 95917, Note_on_c, 1, 45, 0
2, 96001, Note_on_c, 1, 45, 85
2, 96101, Note_on_c, 1, 45, 0
2, 96191, Note_on_c, 1, 45, 86
2, 96283, Note_on_c, 1, 45, 0
2, 96384, Note_on_c, 1, 45, 85
2, 96478, Note_on_c, 1, 45, 0
2, 96576, Note_on_c, 1, 45, 86
2, 96759, Note_on_c, 1, 45, 0
2, 96768, Note_on_c, 1, 47, 89
2, 96869, Note_on_c, 1, 47, 0
2, 96960, Note_on_c, 1, 47, 86
2, 97060, Note_on_c, 1, 47, 0
2, 97152, Note_on_c, 1, 47, 84
2, 97258, Note_on_c, 1, 47, 0
2, 97344, Note_on_c, 1, 47, 85
2, 97507, Note_on_c, 1, 47, 0
2, 97536, Note_on_c, 1, 43, 87
2, 97655, Note_on_c, 1, 43, 0
2, 97727, Note_on_c, 1, 43, 86
2, 97841, Note_on_c, 1, 43, 0
2, 97920, Note_on_c, 1, 43, 87
2, 98033, Note_on_c, 1, 43, 0
2, 98112, Note_on_c, 1, 43, 94
2, 98294, Note_on_c, 1, 43, 0
2, 98304, Note_on_c, 1, 45, 91
2, 98414, Note_on_c, 1, 45, 0
2, 98496, Note_on_c, 1, 45, 84
2, 98595, Note_on_c, 1, 45, 0
2, 98687, Note_on_c, 1, 45, 85
2, 98780, Note_on_c, 1, 45, 0
2, 98880, Note_on_c, 1, 45, 84
2, 98974, Note_on_c, 1, 45, 0
2, 99071, Note_on_c, 1, 45, 84
2, 99174, Note_on_c, 1, 45, 0
2, 99263, Note_on_c, 1, 45, 84
2, 99357, Note_on_c, 1, 45, 0
2, 99456, Note_on_c, 1, 45, 86
2, 99540, Note_on_c, 1, 45, 0
2, 99648, Note_on_c, 1, 45, 89
2, 99840, Note_on_c, 1, 47, 89
2, 99847, Note_on_c, 1, 45, 0
2, 99942, Note_on_c, 1, 47, 0
2, 100032, Note_on_c, 1, 47, 85
2, 100131, Note_on_c, 1, 47, 0
2, 100224, Note_on_c, 1, 47, 87
2, 100321, Note_on_c, 1, 47, 0
2, 100416, Note_on_c, 1, 47, 84
2, 100579, Note_on_c, 1, 47, 0
2, 100607, Note_on_c, 1, 43, 93
2, 100723, Note_on_c, 1, 43, 0
2, 100800, Note_on_c, 1, 43, 93
2, 100905, Note_on_c, 1, 43, 0
2, 100992, Note_on_c, 1, 43, 90
2, 101091, Note_on_c, 1, 43, 0
2, 101184, Note_on_c, 1, 43, 91
2, 101370, Note_on_c, 1, 43, 0
2, 101375, Note_on_c, 1, 45, 87
2, 101489, Note_on_c, 1, 45, 0
2, 101567, Note_on_c, 1, 45, 86
2, 101664, Note_on_c, 1, 45, 0
2, 101759, Note_on_c, 1, 45, 87
2, 101853, Note_on_c, 1, 45, 0
2, 101951, Note_on_c, 1, 45, 86
2, 102046, Note_on_c, 1, 45, 0
2, 102144, Note_on_c, 1, 45, 85
2, 102243, Note_on_c, 1, 45, 0
2, 102336, Note_on_c, 1, 45, 87
2, 102431, Note_on_c, 1, 45, 0
2, 102528, Note_on_c, 1, 45, 86
2, 102618, Note_on_c, 1, 45, 0
2, 102720, Note_on_c, 1, 45, 86
2, 102910, Note_on_c, 1, 45, 0
2, 102911, Note_on_c, 1, 47, 87
2, 103012, Note_on_c, 1, 47, 0
2, 103104, Note_on_c, 1, 47, 87
2, 103202, Note_on_c, 1, 47, 0
2, 103295, Note_on_c, 1, 47, 89
2, 103388, Note_on_c, 1, 47, 0
2, 103488, Note_on_c, 1, 47, 87
2, 103662, Note_on_c, 1, 47, 0
2, 103679, Note_on_c, 1, 43, 91
2, 103796, Note_on_c, 1, 43, 0
2, 103871, Note_on_c, 1, 43, 93
2, 103981, Note_on_c, 1, 43, 0
2, 104064, Note_on_c, 1, 43, 91
2, 104169, Note_on_c, 1, 43, 0
2, 104256, Note_on_c, 1, 43, 93
2, 104429, Note_on_c, 1, 43, 0
2, 104448, Note_on_c, 1, 45, 94
2, 104574, Note_on_c, 1, 45, 0
2, 104640, Note_on_c, 1, 45, 85
2, 104746, Note_on_c, 1, 45, 0
2, 104831, Note_on_c, 1, 45, 84
2, 104943, Note_on_c, 1, 45, 0
2, 105024, Note_on_c, 1, 45, 85
2, 105150, Note_on_c, 1, 45, 0
2, 105216, Note_on_c, 1, 45, 93
2, 105388, Note_on_c, 1, 45, 0
2, 105408, Note_on_c, 1, 43, 91
2, 105589, Note_on_c, 1, 43, 0
2, 105599, Note_on_c, 1, 42, 86
2, 105780, Note_on_c, 1, 42, 0
2, 105792, Note_on_c, 1, 40, 94
2, 105975, Note_on_c, 1, 40, 0
2, 105984, Note_on_c, 1, 38, 100
2, 106139, Note_on_c, 1, 38, 0
2, 106176, Note_on_c, 1, 38, 99
2, 106249, Note_on_c, 1, 38, 0
2, 106303, Note_on_c, 1, 33, 82
2, 106337, Note_on_c, 1, 33, 0
2, 106368, Note_on_c, 1, 38, 99
2, 106470, Note_on_c, 1, 38, 0
2, 106560, Note_on_c, 1, 38, 94
2, 106663, Note_on_c, 1, 38, 0
2, 106688, Note_on_c, 1, 33, 82
2, 106711, Note_on_c, 1, 33, 0
2, 106751, Note_on_c, 1, 38, 96
2, 106849, Note_on_c, 1, 38, 0
2, 106944, Note_on_c, 1, 38, 87
2, 107049, Note_on_c, 1, 38, 0
2, 107072, Note_on_c, 1, 43, 82
2, 107113, Note_on_c, 1, 43, 0
2, 107135, Note_on_c, 1, 38, 94
2, 107238, Note_on_c, 1, 38, 0
2, 107328, Note_on_c, 1, 38, 94
2, 107422, Note_on_c, 1, 38, 0
2, 107456, Note_on_c, 1, 33, 82
2, 107494, Note_on_c, 1, 33, 0
2, 107520, Note_on_c, 1, 38, 96
2, 107631, Note_on_c, 1, 38, 0
2, 107712, Note_on_c, 1, 38, 97
2, 107790, Note_on_c, 1, 38, 0
2, 107840, Note_on_c, 1, 33, 82
2, 107877, Note_on_c, 1, 33, 0
2, 107903, Note_on_c, 1, 38, 99
2, 108036, Note_on_c, 1, 38, 0
2, 108096, Note_on_c, 1, 38, 94
2, 108175, Note_on_c, 1, 38, 0
2, 108224, Note_on_c, 1, 33, 82
2, 108255, Note_on_c, 1, 33, 0
2, 108288, Note_on_c, 1, 38, 99
2, 108391, Note_on_c, 1, 38, 0
2, 108480, Note_on_c, 1, 38, 100
2, 108582, Note_on_c, 1, 38, 0
2, 108608, Note_on_c, 1, 35, 82
2, 108642, Note_on_c, 1, 35, 0
2, 108672, Note_on_c, 1, 38, 99
2, 108799, Note_on_c, 1, 38, 0
2, 108864, Note_on_c, 1, 38, 90
2, 108965, Note_on_c, 1, 38, 0
2, 108992, Note_on_c, 1, 33, 82
2, 109023, Note_on_c, 1, 33, 0
2, 109055, Note_on_c, 1, 38, 99
2, 109163, Note_on_c, 1, 38, 0
2, 109248, Note_on_c, 1, 38, 89
2, 109343, Note_on_c, 1, 38, 0
2, 109374, Note_on_c, 1, 43, 82
2, 109409, Note_on_c, 1, 43, 0
2, 109439, Note_on_c, 1, 38, 97
2, 109551, Note_on_c, 1, 38, 0
2, 109632, Note_on_c, 1, 38, 99
2, 109751, Note_on_c, 1, 38, 0
2, 109760, Note_on_c, 1, 45, 87
2, 109803, Note_on_c, 1, 45, 0
2, 109824, Note_on_c, 1, 38, 89
2, 109929, Note_on_c, 1, 38, 0
2, 110016, Note_on_c, 1, 38, 99
2, 110106, Note_on_c, 1, 38, 0
2, 110145, Note_on_c, 1, 33, 82
2, 110185, Note_on_c, 1, 33, 0
2, 110207, Note_on_c, 1, 38, 93
2, 110330, Note_on_c, 1, 38, 0
2, 110400, Note_on_c, 1, 38, 97
2, 110490, Note_on_c, 1, 38, 0
2, 110528, Note_on_c, 1, 35, 82
2, 110574, Note_on_c, 1, 35, 0
2, 110591, Note_on_c, 1, 38, 97
2, 110739, Note_on_c, 1, 38, 0
2, 110784, Note_on_c, 1, 38, 85
2, 110893, Note_on_c, 1, 38, 0
2, 110911, Note_on_c, 1, 33, 82
2, 110945, Note_on_c, 1, 33, 0
2, 110976, Note_on_c, 1, 38, 96
2, 111095, Note_on_c, 1, 38, 0
2, 111167, Note_on_c, 1, 38, 87
2, 111296, Note_on_c, 1, 43, 82
2, 111298, Note_on_c, 1, 38, 0
2, 111334, Note_on_c, 1, 43, 0
2, 111359, Note_on_c, 1, 38, 99
2, 111487, Note_on_c, 1, 38, 0
2, 111552, Note_on_c, 1, 38, 97
2, 111645, Note_on_c, 1, 38, 0
2, 111679, Note_on_c, 1, 35, 87
2, 111723, Note_on_c, 1, 35, 0
2, 111744, Note_on_c, 1, 38, 99
2, 111865, Note_on_c, 1, 38, 0
2, 111936, Note_on_c, 1, 38, 101
2, 112051, Note_on_c, 1, 38, 0
2, 112064, Note_on_c, 1, 33, 84
2, 112103, Note_on_c, 1, 33, 0
2, 112128, Note_on_c, 1, 38, 94
2, 112255, Note_on_c, 1, 38, 0
2, 112320, Note_on_c, 1, 38, 90
2, 112398, Note_on_c, 1, 38, 0
2, 112448, Note_on_c, 1, 33, 82
2, 112477, Note_on_c, 1, 33, 0
2, 112512, Note_on_c, 1, 38, 97
2, 112628, Note_on_c, 1, 38, 0
2, 112703, Note_on_c, 1, 38, 100
2, 112800, Note_on_c, 1, 38, 0
2, 112832, Note_on_c, 1, 33, 84
2, 112866, Note_on_c, 1, 33, 0
2, 112896, Note_on_c, 1, 38, 94
2, 113009, Note_on_c, 1, 38, 0
2, 113088, Note_on_c, 1, 38, 90
2, 113205, Note_on_c, 1, 38, 0
2, 113215, Note_on_c, 1, 43, 82
2, 113234, Note_on_c, 1, 43, 0
2, 113280, Note_on_c, 1, 45, 89
2, 113402, Note_on_c, 1, 45, 0
2, 113472, Note_on_c, 1, 45, 89
2, 113567, Note_on_c, 1, 45, 0
2, 113600, Note_on_c, 1, 33, 86
2, 113643, Note_on_c, 1, 33, 0
2, 113664, Note_on_c, 1, 38, 93
2, 113775, Note_on_c, 1, 38, 0
2, 113856, Note_on_c, 1, 38, 99
2, 113948, Note_on_c, 1, 38, 0
2, 113983, Note_on_c, 1, 33, 86
2, 114020, Note_on_c, 1, 33, 0
2, 114048, Note_on_c, 1, 38, 97
2, 114151, Note_on_c, 1, 38, 0
2, 114240, Note_on_c, 1, 38, 94
2, 114340, Note_on_c, 1, 38, 0
2, 114369, Note_on_c, 1, 33, 82
2, 114403, Note_on_c, 1, 33, 0
2, 114431, Note_on_c, 1, 38, 99
2, 114537, Note_on_c, 1, 38, 0
2, 114624, Note_on_c, 1, 38, 99
2, 114748, Note_on_c, 1, 38, 0
2, 114751, Note_on_c, 1, 43, 82
2, 114787, Note_on_c, 1, 43, 0
2, 114816, Note_on_c, 1, 38, 93
2, 114957, Note_on_c, 1, 38, 0
2, 115008, Note_on_c, 1, 38, 89
2, 115107, Note_on_c, 1, 38, 0
2, 115136, Note_on_c, 1, 33, 84
2, 115170, Note_on_c, 1, 33, 0
2, 115200, Note_on_c, 1, 38, 94
2, 115339, Note_on_c, 1, 38, 0
2, 115392, Note_on_c, 1, 38, 87
2, 115486, Note_on_c, 1, 38, 0
2, 115520, Note_on_c, 1, 33, 82
2, 115556, Note_on_c, 1, 33, 0
2, 115583, Note_on_c, 1, 38, 97
2, 115711, Note_on_c, 1, 38, 0
2, 115776, Note_on_c, 1, 38, 90
2, 115866, Note_on_c, 1, 38, 0
2, 115904, Note_on_c, 1, 33, 86
2, 115940, Note_on_c, 1, 33, 0
2, 115967, Note_on_c, 1, 38, 97
2, 116092, Note_on_c, 1, 38, 0
2, 116159, Note_on_c, 1, 38, 94
2, 116285, Note_on_c, 1, 38, 0
2, 116289, Note_on_c, 1, 43, 87
2, 116322, Note_on_c, 1, 43, 0
2, 116352, Note_on_c, 1, 45, 93
2, 116503, Note_on_c, 1, 45, 0
2, 116544, Note_on_c, 1, 45, 97
2, 116645, Note_on_c, 1, 45, 0
2, 116672, Note_on_c, 1, 33, 84
2, 116719, Note_on_c, 1, 33, 0
2, 116736, Note_on_c, 1, 38, 96
2, 116859, Note_on_c, 1, 38, 0
2, 116927, Note_on_c, 1, 38, 90
2, 117018, Note_on_c, 1, 38, 0
2, 117055, Note_on_c, 1, 33, 82
2, 117089, Note_on_c, 1, 33, 0
2, 117120, Note_on_c, 1, 38, 97
2, 117251, Note_on_c, 1, 38, 0
2, 117312, Note_on_c, 1, 38, 93
2, 117399, Note_on_c, 1, 38, 0
2, 117439, Note_on_c, 1, 33, 82
2, 117472, Note_on_c, 1, 33, 0
2, 117504, Note_on_c, 1, 38, 96
2, 117618, Note_on_c, 1, 38, 0
2, 117696, Note_on_c, 1, 38, 84
2, 117824, Note_on_c, 1, 43, 87
2, 117833, Note_on_c, 1, 38, 0
2, 117866, Note_on_c, 1, 43, 0
2, 117887, Note_on_c, 1, 38, 97
2, 118015, Note_on_c, 1, 38, 0
2, 118080, Note_on_c, 1, 38, 97
2, 118194, Note_on_c, 1, 38, 0
2, 118208, Note_on_c, 1, 43, 87
2, 118255, Note_on_c, 1, 43, 0
2, 118272, Note_on_c, 1, 38, 89
2, 118458, Note_on_c, 1, 38, 0
2, 118464, Note_on_c, 1, 42, 88
2, 118651, Note_on_c, 1, 42, 0
2, 118655, Note_on_c, 1, 45, 93
2, 118834, Note_on_c, 1, 45, 0
2, 118848, Note_on_c, 1, 47, 96
2, 119039, Note_on_c, 1, 47, 0
2, 119040, Note_on_c, 1, 38, 94
2, 119222, Note_on_c, 1, 38, 0
2, 119231, Note_on_c, 1, 42, 84
2, 119424, Note_on_c, 1, 45, 91
2, 119430, Note_on_c, 1, 42, 0
2, 119594, Note_on_c, 1, 45, 0
2, 119615, Note_on_c, 1, 47, 96
2, 119796, Note_on_c, 1, 47, 0
2, 119808, Note_on_c, 1, 43, 91
2, 120000, Note_on_c, 1, 40, 90
2, 120004, Note_on_c, 1, 43, 0
2, 120188, Note_on_c, 1, 40, 0
2, 120192, Note_on_c, 1, 38, 91
2, 120353, Note_on_c, 1, 38, 0
2, 120384, Note_on_c, 1, 40, 91
2, 120450, Note_on_c, 1, 40, 0
2, 120512, Note_on_c, 1, 40, 82
2, 120567, Note_on_c, 1, 40, 0
2, 120576, Note_on_c, 1, 43, 91
2, 120655, Note_on_c, 1, 43, 0
2, 120704, Note_on_c, 1, 43, 82
2, 120762, Note_on_c, 1, 43, 0
2, 120768, Note_on_c, 1, 40, 94
2, 120959, Note_on_c, 1, 40, 0
2, 120959, Note_on_c, 1, 38, 90
2, 121121, Note_on_c, 1, 38, 0
2, 121151, Note_on_c, 1, 40, 90
2, 121340, Note_on_c, 1, 40, 0
2, 121343, Note_on_c, 1, 38, 82
2, 121535, Note_on_c, 1, 38, 0
2, 121536, Note_on_c, 1, 42, 82
2, 121728, Note_on_c, 1, 45, 85
2, 121732, Note_on_c, 1, 42, 0
2, 121905, Note_on_c, 1, 45, 0
2, 121920, Note_on_c, 1, 47, 86
2, 122111, Note_on_c, 1, 38, 89
2, 122116, Note_on_c, 1, 47, 0
2, 122297, Note_on_c, 1, 38, 0
2, 122304, Note_on_c, 1, 42, 82
2, 122496, Note_on_c, 1, 42, 0
2, 122496, Note_on_c, 1, 45, 84
2, 122674, Note_on_c, 1, 45, 0
2, 122688, Note_on_c, 1, 47, 89
2, 122870, Note_on_c, 1, 47, 0
2, 122880, Note_on_c, 1, 43, 91
2, 123072, Note_on_c, 1, 40, 89
2, 123075, Note_on_c, 1, 43, 0
2, 123260, Note_on_c, 1, 40, 0
2, 123264, Note_on_c, 1, 38, 82
2, 123427, Note_on_c, 1, 38, 0
2, 123455, Note_on_c, 1, 40, 84
2, 123535, Note_on_c, 1, 40, 0
2, 123584, Note_on_c, 1, 40, 82
2, 123641, Note_on_c, 1, 40, 0
2, 123648, Note_on_c, 1, 43, 94
2, 123726, Note_on_c, 1, 43, 0
2, 123776, Note_on_c, 1, 43, 82
2, 123829, Note_on_c, 1, 43, 0
2, 123839, Note_on_c, 1, 40, 91
2, 124030, Note_on_c, 1, 40, 0
2, 124031, Note_on_c, 1, 38, 86
2, 124207, Note_on_c, 1, 38, 0
2, 124224, Note_on_c, 1, 40, 90
2, 124416, Note_on_c, 1, 38, 87
2, 124423, Note_on_c, 1, 40, 0
2, 124608, Note_on_c, 1, 42, 83
2, 124617, Note_on_c, 1, 38, 0
2, 124800, Note_on_c, 1, 45, 87
2, 124809, Note_on_c, 1, 42, 0
2, 124977, Note_on_c, 1, 45, 0
2, 124991, Note_on_c, 1, 47, 89
2, 125183, Note_on_c, 1, 38, 90
2, 125186, Note_on_c, 1, 47, 0
2, 125372, Note_on_c, 1, 38, 0
2, 125376, Note_on_c, 1, 42, 86
2, 125569, Note_on_c, 1, 45, 87
2, 125575, Note_on_c, 1, 42, 0
2, 125748, Note_on_c, 1, 45, 0
2, 125760, Note_on_c, 1, 47, 94
2, 125948, Note_on_c, 1, 47, 0
2, 125952, Note_on_c, 1, 43, 93
2, 126140, Note_on_c, 1, 43, 0
2, 126144, Note_on_c, 1, 40, 93
2, 126329, Note_on_c, 1, 40, 0
2, 126335, Note_on_c, 1, 38, 87
2, 126517, Note_on_c, 1, 38, 0
2, 126527, Note_on_c, 1, 40, 87
2, 126594, Note_on_c, 1, 40, 0
2, 126656, Note_on_c, 1, 40, 82
2, 126719, Note_on_c, 1, 40, 0
2, 126720, Note_on_c, 1, 43, 91
2, 126804, Note_on_c, 1, 43, 0
2, 126848, Note_on_c, 1, 43, 82
2, 126910, Note_on_c, 1, 43, 0
2, 126912, Note_on_c, 1, 40, 96
2, 127104, Note_on_c, 1, 38, 90
2, 127105, Note_on_c, 1, 40, 0
2, 127276, Note_on_c, 1, 38, 0
2, 127296, Note_on_c, 1, 40, 93
2, 127473, Note_on_c, 1, 40, 0
2, 127487, Note_on_c, 1, 38, 91
2, 127679, Note_on_c, 1, 42, 84
2, 127693, Note_on_c, 1, 38, 0
2, 127872, Note_on_c, 1, 45, 87
2, 127884, Note_on_c, 1, 42, 0
2, 128053, Note_on_c, 1, 45, 0
2, 128064, Note_on_c, 1, 47, 90
2, 128255, Note_on_c, 1, 47, 0
2, 128255, Note_on_c, 1, 38, 91
2, 128428, Note_on_c, 1, 38, 0
2, 128448, Note_on_c, 1, 42, 83
2, 128640, Note_on_c, 1, 45, 90
2, 128644, Note_on_c, 1, 42, 0
2, 128815, Note_on_c, 1, 45, 0
2, 128831, Note_on_c, 1, 47, 89
2, 129021, Note_on_c, 1, 47, 0
2, 129024, Note_on_c, 1, 43, 91
2, 129215, Note_on_c, 1, 43, 0
2, 129216, Note_on_c, 1, 40, 93
2, 129388, Note_on_c, 1, 40, 0
2, 129408, Note_on_c, 1, 38, 90
2, 129591, Note_on_c, 1, 38, 0
2, 129599, Note_on_c, 1, 40, 86
2, 129666, Note_on_c, 1, 40, 0
2, 129728, Note_on_c, 1, 40, 85
2, 129788, Note_on_c, 1, 40, 0
2, 129792, Note_on_c, 1, 43, 91
2, 129863, Note_on_c, 1, 43, 0
2, 129920, Note_on_c, 1, 43, 82
2, 129975, Note_on_c, 1, 43, 0
2, 129983, Note_on_c, 1, 40, 85
2, 130162, Note_on_c, 1, 40, 0
2, 130176, Note_on_c, 1, 38, 90
2, 130336, Note_on_c, 1, 38, 0
2, 130368, Note_on_c, 1, 40, 97
2, 130506, Note_on_c, 1, 40, 0
2, 130752, Note_on_c, 1, 38, 99
2, 130829, Note_on_c, 1, 38, 0
2, 130880, Note_on_c, 1, 38, 93
2, 130926, Note_on_c, 1, 38, 0
2, 131456, Note_on_c, 1, 33, 82
2, 131496, Note_on_c, 1, 33, 0
2, 131519, Note_on_c, 1, 35, 97
2, 131623, Note_on_c, 1, 35, 0
2, 131712, Note_on_c, 1, 38, 99
2, 131791, Note_on_c, 1, 38, 0
2, 131840, Note_on_c, 1, 38, 93
2, 131887, Note_on_c, 1, 38, 0
2, 131902, Note_on_c, 1, 35, 101
2, 131986, Note_on_c, 1, 35, 0
2, 132031, Note_on_c, 1, 38, 104
2, 132159, Note_on_c, 1, 38, 0
2, 132288, Note_on_c, 1, 38, 100
2, 132367, Note_on_c, 1, 38, 0
2, 132416, Note_on_c, 1, 38, 90
2, 132469, Note_on_c, 1, 38, 0
2, 132672, Note_on_c, 1, 38, 100
2, 132739, Note_on_c, 1, 38, 0
2, 132800, Note_on_c, 1, 38, 91
2, 132841, Note_on_c, 1, 38, 0
2, 133056, Note_on_c, 1, 38, 96
2, 133113, Note_on_c, 1, 38, 0
2, 133184, Note_on_c, 1, 38, 89
2, 133229, Note_on_c, 1, 38, 0
2, 133376, Note_on_c, 1, 33, 90
2, 133439, Note_on_c, 1, 35, 105
2, 133454, Note_on_c, 1, 33, 0
2, 133584, Note_on_c, 1, 35, 0
2, 133632, Note_on_c, 1, 26, 105
2, 134399, Note_on_c, 1, 26, 0
2, 134400, Note_on_c, 1, 38, 105
2, 134442, Note_on_c, 1, 38, 0
2, 134442, End_track
3, 0, Start_track
3, 0, MIDI_port, 0
3, 0, Title_t, "SustGuitr           "
3, 1146, Note_on_c, 2, 62, 105
3, 1146, Note_on_c, 2, 57, 105
3, 1247, Note_on_c, 2, 57, 0
3, 1252, Note_on_c, 2, 62, 0
3, 1340, Note_on_c, 2, 59, 105
3, 1340, Note_on_c, 2, 55, 105
3, 1436, Note_on_c, 2, 55, 0
3, 1439, Note_on_c, 2, 59, 0
3, 1532, Note_on_c, 2, 62, 105
3, 1532, Note_on_c, 2, 57, 105
3, 1765, Note_on_c, 2, 62, 0
3, 1767, Note_on_c, 2, 57, 0
3, 1852, Note_on_c, 2, 62, 105
3, 1852, Note_on_c, 2, 57, 105
3, 1931, Note_on_c, 2, 62, 0
3, 1932, Note_on_c, 2, 57, 0
3, 2044, Note_on_c, 2, 62, 81
3, 2044, Note_on_c, 2, 57, 78
3, 2108, Note_on_c, 2, 59, 105
3, 2108, Note_on_c, 2, 55, 105
3, 2114, Note_on_c, 2, 62, 0
3, 2122, Note_on_c, 2, 57, 0
3, 2210, Note_on_c, 2, 59, 0
3, 2214, Note_on_c, 2, 55, 0
3, 2300, Note_on_c, 2, 62, 105
3, 2300, Note_on_c, 2, 57, 105
3, 2393, Note_on_c, 2, 62, 0
3, 2397, Note_on_c, 2, 57, 0
3, 2492, Note_on_c, 2, 59, 105
3, 2492, Note_on_c, 2, 55, 105
3, 2581, Note_on_c, 2, 59, 0
3, 2583, Note_on_c, 2, 55, 0
3, 2684, Note_on_c, 2, 62, 105
3, 2684, Note_on_c, 2, 57, 105
3, 2777, Note_on_c, 2, 57, 0
3, 2777, Note_on_c, 2, 62, 0
3, 2876, Note_on_c, 2, 59, 105
3, 2876, Note_on_c, 2, 55, 105
3, 2950, Note_on_c, 2, 55, 0
3, 2964, Note_on_c, 2, 59, 0
3, 3068, Note_on_c, 2, 62, 105
3, 3068, Note_on_c, 2, 57, 105
3, 3291, Note_on_c, 2, 62, 0
3, 3294, Note_on_c, 2, 57, 0
3, 3388, Note_on_c, 2, 62, 105
3, 3388, Note_on_c, 2, 57, 105
3, 3452, Note_on_c, 2, 57, 0
3, 3454, Note_on_c, 2, 62, 0
3, 3578, Note_on_c, 2, 62, 101
3, 3578, Note_on_c, 2, 57, 95
3, 3644, Note_on_c, 2, 59, 105
3, 3644, Note_on_c, 2, 55, 105
3, 3654, Note_on_c, 2, 57, 0
3, 3655, Note_on_c, 2, 62, 0
3, 3720, Note_on_c, 2, 55, 0
3, 3731, Note_on_c, 2, 59, 0
3, 3836, Note_on_c, 2, 62, 105
3, 3836, Note_on_c, 2, 57, 105
3, 3937, Note_on_c, 2, 62, 0
3, 3946, Note_on_c, 2, 57, 0
3, 4220, Note_on_c, 2, 62, 105
3, 4220, Note_on_c, 2, 57, 105
3, 4308, Note_on_c, 2, 57, 0
3, 4313, Note_on_c, 2, 62, 0
3, 4412, Note_on_c, 2, 59, 105
3, 4412, Note_on_c, 2, 55, 105
3, 4495, Note_on_c, 2, 59, 0
3, 4501, Note_on_c, 2, 55, 0
3, 4604, Note_on_c, 2, 62, 105
3, 4604, Note_on_c, 2, 57, 105
3, 4828, Note_on_c, 2, 62, 0
3, 4831, Note_on_c, 2, 57, 0
3, 4924, Note_on_c, 2, 62, 105
3, 4924, Note_on_c, 2, 57, 105
3, 4993, Note_on_c, 2, 62, 0
3, 4995, Note_on_c, 2, 57, 0
3, 5114, Note_on_c, 2, 62, 104
3, 5114, Note_on_c, 2, 57, 104
3, 5180, Note_on_c, 2, 59, 105
3, 5180, Note_on_c, 2, 55, 105
3, 5189, Note_on_c, 2, 62, 0
3, 5194, Note_on_c, 2, 57, 0
3, 5261, Note_on_c, 2, 55, 0
3, 5267, Note_on_c, 2, 59, 0
3, 5372, Note_on_c, 2, 62, 105
3, 5372, Note_on_c, 2, 57, 105
3, 5469, Note_on_c, 2, 62, 0
3, 5472, Note_on_c, 2, 57, 0
3, 5564, Note_on_c, 2, 59, 105
3, 5564, Note_on_c, 2, 55, 105
3, 5643, Note_on_c, 2, 55, 0
3, 5645, Note_on_c, 2, 59, 0
3, 5756, Note_on_c, 2, 62, 105
3, 5756, Note_on_c, 2, 57, 105
3, 5846, Note_on_c, 2, 57, 0
3, 5846, Note_on_c, 2, 62, 0
3, 5948, Note_on_c, 2, 59, 105
3, 5948, Note_on_c, 2, 55, 105
3, 6037, Note_on_c, 2, 55, 0
3, 6037, Note_on_c, 2, 59, 0
3, 6140, Note_on_c, 2, 62, 105
3, 6140, Note_on_c, 2, 57, 105
3, 6360, Note_on_c, 2, 62, 0
3, 6363, Note_on_c, 2, 57, 0
3, 6460, Note_on_c, 2, 62, 105
3, 6460, Note_on_c, 2, 57, 105
3, 6528, Note_on_c, 2, 62, 0
3, 6530, Note_on_c, 2, 57, 0
3, 6652, Note_on_c, 2, 62, 105
3, 6652, Note_on_c, 2, 57, 104
3, 6716, Note_on_c, 2, 59, 105
3, 6716, Note_on_c, 2, 55, 105
3, 6720, Note_on_c, 2, 57, 0
3, 6724, Note_on_c, 2, 62, 0
3, 6816, Note_on_c, 2, 59, 0
3, 6821, Note_on_c, 2, 55, 0
3, 6908, Note_on_c, 2, 62, 105
3, 6908, Note_on_c, 2, 57, 105
3, 7013, Note_on_c, 2, 62, 0
3, 7020, Note_on_c, 2, 57, 0
3, 7292, Note_on_c, 2, 62, 105
3, 7292, Note_on_c, 2, 57, 105
3, 7382, Note_on_c, 2, 57, 0
3, 7385, Note_on_c, 2, 62, 0
3, 7484, Note_on_c, 2, 59, 105
3, 7484, Note_on_c, 2, 55, 105
3, 7579, Note_on_c, 2, 59, 0
3, 7581, Note_on_c, 2, 55, 0
3, 7676, Note_on_c, 2, 62, 105
3, 7676, Note_on_c, 2, 57, 105
3, 7909, Note_on_c, 2, 62, 0
3, 7911, Note_on_c, 2, 57, 0
3, 7996, Note_on_c, 2, 62, 105
3, 7996, Note_on_c, 2, 57, 105
3, 8075, Note_on_c, 2, 62, 0
3, 8076, Note_on_c, 2, 57, 0
3, 8188, Note_on_c, 2, 62, 81
3, 8188, Note_on_c, 2, 57, 78
3, 8252, Note_on_c, 2, 59, 105
3, 8252, Note_on_c, 2, 55, 105
3, 8258, Note_on_c, 2, 62, 0
3, 8266, Note_on_c, 2, 57, 0
3, 8354, Note_on_c, 2, 59, 0
3, 8358, Note_on_c, 2, 55, 0
3, 8444, Note_on_c, 2, 62, 105
3, 8444, Note_on_c, 2, 57, 105
3, 8537, Note_on_c, 2, 62, 0
3, 8541, Note_on_c, 2, 57, 0
3, 8636, Note_on_c, 2, 59, 105
3, 8636, Note_on_c, 2, 55, 105
3, 8725, Note_on_c, 2, 59, 0
3, 8727, Note_on_c, 2, 55, 0
3, 8828, Note_on_c, 2, 62, 105
3, 8828, Note_on_c, 2, 57, 105
3, 8921, Note_on_c, 2, 57, 0
3, 8921, Note_on_c, 2, 62, 0
3, 9020, Note_on_c, 2, 59, 105
3, 9020, Note_on_c, 2, 55, 105
3, 9094, Note_on_c, 2, 55, 0
3, 9108, Note_on_c, 2, 59, 0
3, 9212, Note_on_c, 2, 62, 105
3, 9212, Note_on_c, 2, 57, 105
3, 9435, Note_on_c, 2, 62, 0
3, 9438, Note_on_c, 2, 57, 0
3, 9532, Note_on_c, 2, 62, 105
3, 9532, Note_on_c, 2, 57, 105
3, 9596, Note_on_c, 2, 57, 0
3, 9598, Note_on_c, 2, 62, 0
3, 9722, Note_on_c, 2, 62, 101
3, 9722, Note_on_c, 2, 57, 95
3, 9788, Note_on_c, 2, 59, 105
3, 9788, Note_on_c, 2, 55, 105
3, 9798, Note_on_c, 2, 57, 0
3, 9799, Note_on_c, 2, 62, 0
3, 9864, Note_on_c, 2, 55, 0
3, 9875, Note_on_c, 2, 59, 0
3, 9980, Note_on_c, 2, 62, 105
3, 9980, Note_on_c, 2, 57, 105
3, 10081, Note_on_c, 2, 62, 0
3, 10090, Note_on_c, 2, 57, 0
3, 10364, Note_on_c, 2, 62, 105
3, 10364, Note_on_c, 2, 57, 105
3, 10452, Note_on_c, 2, 57, 0
3, 10457, Note_on_c, 2, 62, 0
3, 10556, Note_on_c, 2, 59, 105
3, 10556, Note_on_c, 2, 55, 105
3, 10639, Note_on_c, 2, 59, 0
3, 10645, Note_on_c, 2, 55, 0
3, 10748, Note_on_c, 2, 62, 105
3, 10748, Note_on_c, 2, 57, 105
3, 10972, Note_on_c, 2, 62, 0
3, 10975, Note_on_c, 2, 57, 0
3, 11068, Note_on_c, 2, 62, 105
3, 11068, Note_on_c, 2, 57, 105
3, 11137, Note_on_c, 2, 62, 0
3, 11139, Note_on_c, 2, 57, 0
3, 11258, Note_on_c, 2, 62, 104
3, 11258, Note_on_c, 2, 57, 104
3, 11324, Note_on_c, 2, 59, 105
3, 11324, Note_on_c, 2, 55, 105
3, 11333, Note_on_c, 2, 62, 0
3, 11338, Note_on_c, 2, 57, 0
3, 11405, Note_on_c, 2, 55, 0
3, 11411, Note_on_c, 2, 59, 0
3, 11516, Note_on_c, 2, 62, 105
3, 11516, Note_on_c, 2, 57, 105
3, 11613, Note_on_c, 2, 62, 0
3, 11616, Note_on_c, 2, 57, 0
3, 11708, Note_on_c, 2, 59, 105
3, 11708, Note_on_c, 2, 55, 105
3, 11787, Note_on_c, 2, 55, 0
3, 11789, Note_on_c, 2, 59, 0
3, 11900, Note_on_c, 2, 62, 105
3, 11900, Note_on_c, 2, 57, 105
3, 11990, Note_on_c, 2, 57, 0
3, 11990, Note_on_c, 2, 62, 0
3, 12092, Note_on_c, 2, 59, 105
3, 12092, Note_on_c, 2, 55, 105
3, 12181, Note_on_c, 2, 55, 0
3, 12181, Note_on_c, 2, 59, 0
3, 12284, Note_on_c, 2, 62, 105
3, 12284, Note_on_c, 2, 57, 105
3, 12504, Note_on_c, 2, 62, 0
3, 12507, Note_on_c, 2, 57, 0
3, 12604, Note_on_c, 2, 62, 105
3, 12604, Note_on_c, 2, 57, 105
3, 12672, Note_on_c, 2, 62, 0
3, 12674, Note_on_c, 2, 57, 0
3, 12796, Note_on_c, 2, 62, 105
3, 12796, Note_on_c, 2, 57, 104
3, 12860, Note_on_c, 2, 59, 105
3, 12860, Note_on_c, 2, 55, 105
3, 12864, Note_on_c, 2, 57, 0
3, 12868, Note_on_c, 2, 62, 0
3, 12960, Note_on_c, 2, 59, 0
3, 12965, Note_on_c, 2, 55, 0
3, 13052, Note_on_c, 2, 62, 105
3, 13052, Note_on_c, 2, 57, 105
3, 13157, Note_on_c, 2, 62, 0
3, 13164, Note_on_c, 2, 57, 0
3, 13436, Note_on_c, 2, 62, 105
3, 13436, Note_on_c, 2, 57, 105
3, 13526, Note_on_c, 2, 57, 0
3, 13529, Note_on_c, 2, 62, 0
3, 47226, Note_on_c, 2, 62, 105
3, 47226, Note_on_c, 2, 57, 105
3, 47327, Note_on_c, 2, 57, 0
3, 47332, Note_on_c, 2, 62, 0
3, 47420, Note_on_c, 2, 59, 105
3, 47420, Note_on_c, 2, 55, 105
3, 47516, Note_on_c, 2, 55, 0
3, 47519, Note_on_c, 2, 59, 0
3, 47612, Note_on_c, 2, 62, 105
3, 47612, Note_on_c, 2, 57, 105
3, 47845, Note_on_c, 2, 62, 0
3, 47847, Note_on_c, 2, 57, 0
3, 47932, Note_on_c, 2, 62, 105
3, 47932, Note_on_c, 2, 57, 105
3, 48011, Note_on_c, 2, 62, 0
3, 48012, Note_on_c, 2, 57, 0
3, 48124, Note_on_c, 2, 62, 81
3, 48124, Note_on_c, 2, 57, 78
3, 48188, Note_on_c, 2, 59, 105
3, 48188, Note_on_c, 2, 55, 105
3, 48194, Note_on_c, 2, 62, 0
3, 48202, Note_on_c, 2, 57, 0
3, 48290, Note_on_c, 2, 59, 0
3, 48294, Note_on_c, 2, 55, 0
3, 48380, Note_on_c, 2, 62, 105
3, 48380, Note_on_c, 2, 57, 105
3, 48473, Note_on_c, 2, 62, 0
3, 48477, Note_on_c, 2, 57, 0
3, 48572, Note_on_c, 2, 59, 105
3, 48572, Note_on_c, 2, 55, 105
3, 48661, Note_on_c, 2, 59, 0
3, 48663, Note_on_c, 2, 55, 0
3, 48764, Note_on_c, 2, 62, 105
3, 48764, Note_on_c, 2, 57, 105
3, 48857, Note_on_c, 2, 57, 0
3, 48857, Note_on_c, 2, 62, 0
3, 48956, Note_on_c, 2, 59, 105
3, 48956, Note_on_c, 2, 55, 105
3, 49030, Note_on_c, 2, 55, 0
3, 49044, Note_on_c, 2, 59, 0
3, 49148, Note_on_c, 2, 62, 105
3, 49148, Note_on_c, 2, 57, 105
3, 49371, Note_on_c, 2, 62, 0
3, 49374, Note_on_c, 2, 57, 0
3, 49468, Note_on_c, 2, 62, 105
3, 49468, Note_on_c, 2, 57, 105
3, 49532, Note_on_c, 2, 57, 0
3, 49534, Note_on_c, 2, 62, 0
3, 49658, Note_on_c, 2, 62, 101
3, 49658, Note_on_c, 2, 57, 95
3, 49724, Note_on_c, 2, 59, 105
3, 49724, Note_on_c, 2, 55, 105
3, 49734, Note_on_c, 2, 57, 0
3, 49735, Note_on_c, 2, 62, 0
3, 49800, Note_on_c, 2, 55, 0
3, 49811, Note_on_c, 2, 59, 0
3, 49916, Note_on_c, 2, 62, 105
3, 49916, Note_on_c, 2, 57, 105
3, 50017, Note_on_c, 2, 62, 0
3, 50026, Note_on_c, 2, 57, 0
3, 50300, Note_on_c, 2, 62, 105
3, 50300, Note_on_c, 2, 57, 105
3, 50388, Note_on_c, 2, 57, 0
3, 50393, Note_on_c, 2, 62, 0
3, 50492, Note_on_c, 2, 59, 105
3, 50492, Note_on_c, 2, 55, 105
3, 50575, Note_on_c, 2, 59, 0
3, 50581, Note_on_c, 2, 55, 0
3, 50684, Note_on_c, 2, 62, 105
3, 50684, Note_on_c, 2, 57, 105
3, 50908, Note_on_c, 2, 62, 0
3, 50911, Note_on_c, 2, 57, 0
3, 51004, Note_on_c, 2, 62, 105
3, 51004, Note_on_c, 2, 57, 105
3, 51073, Note_on_c, 2, 62, 0
3, 51075, Note_on_c, 2, 57, 0
3, 51194, Note_on_c, 2, 62, 104
3, 51194, Note_on_c, 2, 57, 104
3, 51260, Note_on_c, 2, 59, 105
3, 51260, Note_on_c, 2, 55, 105
3, 51269, Note_on_c, 2, 62, 0
3, 51274, Note_on_c, 2, 57, 0
3, 51341, Note_on_c, 2, 55, 0
3, 51347, Note_on_c, 2, 59, 0
3, 51452, Note_on_c, 2, 62, 105
3, 51452, Note_on_c, 2, 57, 105
3, 51549, Note_on_c, 2, 62, 0
3, 51552, Note_on_c, 2, 57, 0
3, 51644, Note_on_c, 2, 59, 105
3, 51644, Note_on_c, 2, 55, 105
3, 51723, Note_on_c, 2, 55, 0
3, 51725, Note_on_c, 2, 59, 0
3, 51836, Note_on_c, 2, 62, 105
3, 51836, Note_on_c, 2, 57, 105
3, 51926, Note_on_c, 2, 57, 0
3, 51926, Note_on_c, 2, 62, 0
3, 52028, Note_on_c, 2, 59, 105
3, 52028, Note_on_c, 2, 55, 105
3, 52117, Note_on_c, 2, 55, 0
3, 52117, Note_on_c, 2, 59, 0
3, 52220, Note_on_c, 2, 62, 105
3, 52220, Note_on_c, 2, 57, 105
3, 52440, Note_on_c, 2, 62, 0
3, 52443, Note_on_c, 2, 57, 0
3, 52540, Note_on_c, 2, 62, 105
3, 52540, Note_on_c, 2, 57, 105
3, 52608, Note_on_c, 2, 62, 0
3, 52610, Note_on_c, 2, 57, 0
3, 52732, Note_on_c, 2, 62, 105
3, 52732, Note_on_c, 2, 57, 104
3, 52796, Note_on_c, 2, 59, 105
3, 52796, Note_on_c, 2, 55, 105
3, 52800, Note_on_c, 2, 57, 0
3, 52804, Note_on_c, 2, 62, 0
3, 52896, Note_on_c, 2, 59, 0
3, 52901, Note_on_c, 2, 55, 0
3, 52988, Note_on_c, 2, 62, 105
3, 52988, Note_on_c, 2, 57, 105
3, 53093, Note_on_c, 2, 62, 0
3, 53100, Note_on_c, 2, 57, 0
3, 53372, Note_on_c, 2, 62, 105
3, 53372, Note_on_c, 2, 57, 105
3, 53462, Note_on_c, 2, 57, 0
3, 53465, Note_on_c, 2, 62, 0
3, 53564, Note_on_c, 2, 59, 105
3, 53564, Note_on_c, 2, 55, 105
3, 53659, Note_on_c, 2, 59, 0
3, 53661, Note_on_c, 2, 55, 0
3, 81018, Note_on_c, 2, 62, 105
3, 81018, Note_on_c, 2, 57, 105
3, 81119, Note_on_c, 2, 57, 0
3, 81124, Note_on_c, 2, 62, 0
3, 81212, Note_on_c, 2, 59, 105
3, 81212, Note_on_c, 2, 55, 105
3, 81308, Note_on_c, 2, 55, 0
3, 81311, Note_on_c, 2, 59, 0
3, 81404, Note_on_c, 2, 62, 105
3, 81404, Note_on_c, 2, 57, 105
3, 81637, Note_on_c, 2, 62, 0
3, 81639, Note_on_c, 2, 57, 0
3, 81724, Note_on_c, 2, 62, 105
3, 81724, Note_on_c, 2, 57, 105
3, 81803, Note_on_c, 2, 62, 0
3, 81804, Note_on_c, 2, 57, 0
3, 81916, Note_on_c, 2, 62, 81
3, 81916, Note_on_c, 2, 57, 78
3, 81980, Note_on_c, 2, 59, 105
3, 81980, Note_on_c, 2, 55, 105
3, 81986, Note_on_c, 2, 62, 0
3, 81994, Note_on_c, 2, 57, 0
3, 82082, Note_on_c, 2, 59, 0
3, 82086, Note_on_c, 2, 55, 0
3, 82172, Note_on_c, 2, 62, 105
3, 82172, Note_on_c, 2, 57, 105
3, 82265, Note_on_c, 2, 62, 0
3, 82269, Note_on_c, 2, 57, 0
3, 82364, Note_on_c, 2, 59, 105
3, 82364, Note_on_c, 2, 55, 105
3, 82453, Note_on_c, 2, 59, 0
3, 82455, Note_on_c, 2, 55, 0
3, 82556, Note_on_c, 2, 62, 105
3, 82556, Note_on_c, 2, 57, 105
3, 82649, Note_on_c, 2, 57, 0
3, 82649, Note_on_c, 2, 62, 0
3, 82748, Note_on_c, 2, 59, 105
3, 82748, Note_on_c, 2, 55, 105
3, 82822, Note_on_c, 2, 55, 0
3, 82836, Note_on_c, 2, 59, 0
3, 82940, Note_on_c, 2, 62, 105
3, 82940, Note_on_c, 2, 57, 105
3, 83163, Note_on_c, 2, 62, 0
3, 83166, Note_on_c, 2, 57, 0
3, 83260, Note_on_c, 2, 62, 105
3, 83260, Note_on_c, 2, 57, 105
3, 83324, Note_on_c, 2, 57, 0
3, 83326, Note_on_c, 2, 62, 0
3, 83450, Note_on_c, 2, 62, 101
3, 83450, Note_on_c, 2, 57, 95
3, 83516, Note_on_c, 2, 59, 105
3, 83516, Note_on_c, 2, 55, 105
3, 83526, Note_on_c, 2, 57, 0
3, 83527, Note_on_c, 2, 62, 0
3, 83592, Note_on_c, 2, 55, 0
3, 83603, Note_on_c, 2, 59, 0
3, 83708, Note_on_c, 2, 62, 105
3, 83708, Note_on_c, 2, 57, 105
3, 83809, Note_on_c, 2, 62, 0
3, 83818, Note_on_c, 2, 57, 0
3, 84092, Note_on_c, 2, 62, 105
3, 84092, Note_on_c, 2, 57, 105
3, 84180, Note_on_c, 2, 57, 0
3, 84185, Note_on_c, 2, 62, 0
3, 84284, Note_on_c, 2, 59, 105
3, 84284, Note_on_c, 2, 55, 105
3, 84367, Note_on_c, 2, 59, 0
3, 84373, Note_on_c, 2, 55, 0
3, 84476, Note_on_c, 2, 62, 105
3, 84476, Note_on_c, 2, 57, 105
3, 84700, Note_on_c, 2, 62, 0
3, 84703, Note_on_c, 2, 57, 0
3, 84796, Note_on_c, 2, 62, 105
3, 84796, Note_on_c, 2, 57, 105
3, 84865, Note_on_c, 2, 62, 0
3, 84867, Note_on_c, 2, 57, 0
3, 84986, Note_on_c, 2, 62, 104
3, 84986, Note_on_c, 2, 57, 104
3, 85052, Note_on_c, 2, 59, 105
3, 85052, Note_on_c, 2, 55, 105
3, 85061, Note_on_c, 2, 62, 0
3, 85066, Note_on_c, 2, 57, 0
3, 85133, Note_on_c, 2, 55, 0
3, 85139, Note_on_c, 2, 59, 0
3, 85244, Note_on_c, 2, 62, 105
3, 85244, Note_on_c, 2, 57, 105
3, 85341, Note_on_c, 2, 62, 0
3, 85344, Note_on_c, 2, 57, 0
3, 85436, Note_on_c, 2, 59, 105
3, 85436, Note_on_c, 2, 55, 105
3, 85515, Note_on_c, 2, 55, 0
3, 85517, Note_on_c, 2, 59, 0
3, 85628, Note_on_c, 2, 62, 105
3, 85628, Note_on_c, 2, 57, 105
3, 85718, Note_on_c, 2, 57, 0
3, 85718, Note_on_c, 2, 62, 0
3, 85820, Note_on_c, 2, 59, 105
3, 85820, Note_on_c, 2, 55, 105
3, 85909, Note_on_c, 2, 55, 0
3, 85909, Note_on_c, 2, 59, 0
3, 86012, Note_on_c, 2, 62, 105
3, 86012, Note_on_c, 2, 57, 105
3, 86232, Note_on_c, 2, 62, 0
3, 86235, Note_on_c, 2, 57, 0
3, 86332, Note_on_c, 2, 62, 105
3, 86332, Note_on_c, 2, 57, 105
3, 86400, Note_on_c, 2, 62, 0
3, 86402, Note_on_c, 2, 57, 0
3, 86524, Note_on_c, 2, 62, 105
3, 86524, Note_on_c, 2, 57, 104
3, 86588, Note_on_c, 2, 59, 105
3, 86588, Note_on_c, 2, 55, 105
3, 86592, Note_on_c, 2, 57, 0
3, 86596, Note_on_c, 2, 62, 0
3, 86688, Note_on_c, 2, 59, 0
3, 86693, Note_on_c, 2, 55, 0
3, 86780, Note_on_c, 2, 62, 105
3, 86780, Note_on_c, 2, 57, 105
3, 86885, Note_on_c, 2, 62, 0
3, 86892, Note_on_c, 2, 57, 0
3, 87164, Note_on_c, 2, 62, 105
3, 87164, Note_on_c, 2, 57, 105
3, 87254, Note_on_c, 2, 57, 0
3, 87257, Note_on_c, 2, 62, 0
3, 87356, Note_on_c, 2, 59, 105
3, 87356, Note_on_c, 2, 55, 105
3, 87451, Note_on_c, 2, 59, 0
3, 87453, Note_on_c, 2, 55, 0
3, 87548, Note_on_c, 2, 62, 105
3, 87548, Note_on_c, 2, 57, 105
3, 87781, Note_on_c, 2, 62, 0
3, 87783, Note_on_c, 2, 57, 0
3, 87868, Note_on_c, 2, 62, 105
3, 87868, Note_on_c, 2, 57, 105
3, 87947, Note_on_c, 2, 62, 0
3, 87948, Note_on_c, 2, 57, 0
3, 88060, Note_on_c, 2, 62, 81
3, 88060, Note_on_c, 2, 57, 78
3, 88124, Note_on_c, 2, 59, 105
3, 88124, Note_on_c, 2, 55, 105
3, 88130, Note_on_c, 2, 62, 0
3, 88138, Note_on_c, 2, 57, 0
3, 88226, Note_on_c, 2, 59, 0
3, 88230, Note_on_c, 2, 55, 0
3, 88316, Note_on_c, 2, 62, 105
3, 88316, Note_on_c, 2, 57, 105
3, 88409, Note_on_c, 2, 62, 0
3, 88413, Note_on_c, 2, 57, 0
3, 88508, Note_on_c, 2, 59, 105
3, 88508, Note_on_c, 2, 55, 105
3, 88597, Note_on_c, 2, 59, 0
3, 88599, Note_on_c, 2, 55, 0
3, 88700, Note_on_c, 2, 62, 105
3, 88700, Note_on_c, 2, 57, 105
3, 88793, Note_on_c, 2, 57, 0
3, 88793, Note_on_c, 2, 62, 0
3, 88892, Note_on_c, 2, 59, 105
3, 88892, Note_on_c, 2, 55, 105
3, 88966, Note_on_c, 2, 55, 0
3, 88980, Note_on_c, 2, 59, 0
3, 89084, Note_on_c, 2, 62, 105
3, 89084, Note_on_c, 2, 57, 105
3, 89307, Note_on_c, 2, 62, 0
3, 89310, Note_on_c, 2, 57, 0
3, 89404, Note_on_c, 2, 62, 105
3, 89404, Note_on_c, 2, 57, 105
3, 89468, Note_on_c, 2, 57, 0
3, 89470, Note_on_c, 2, 62, 0
3, 89594, Note_on_c, 2, 62, 101
3, 89594, Note_on_c, 2, 57, 95
3, 89660, Note_on_c, 2, 59, 105
3, 89660, Note_on_c, 2, 55, 105
3, 89670, Note_on_c, 2, 57, 0
3, 89671, Note_on_c, 2, 62, 0
3, 89736, Note_on_c, 2, 55, 0
3, 89747, Note_on_c, 2, 59, 0
3, 89852, Note_on_c, 2, 62, 105
3, 89852, Note_on_c, 2, 57, 105
3, 89953, Note_on_c, 2, 62, 0
3, 89962, Note_on_c, 2, 57, 0
3, 90236, Note_on_c, 2, 62, 105
3, 90236, Note_on_c, 2, 57, 105
3, 90324, Note_on_c, 2, 57, 0
3, 90329, Note_on_c, 2, 62, 0
3, 90428, Note_on_c, 2, 59, 105
3, 90428, Note_on_c, 2, 55, 105
3, 90511, Note_on_c, 2, 59, 0
3, 90517, Note_on_c, 2, 55, 0
3, 90620, Note_on_c, 2, 62, 105
3, 90620, Note_on_c, 2, 57, 105
3, 90844, Note_on_c, 2, 62, 0
3, 90847, Note_on_c, 2, 57, 0
3, 90940, Note_on_c, 2, 62, 105
3, 90940, Note_on_c, 2, 57, 105
3, 91009, Note_on_c, 2, 62, 0
3, 91011, Note_on_c, 2, 57, 0
3, 91130, Note_on_c, 2, 62, 104
3, 91130, Note_on_c, 2, 57, 104
3, 91196, Note_on_c, 2, 59, 105
3, 91196, Note_on_c, 2, 55, 105
3, 91205, Note_on_c, 2, 62, 0
3, 91210, Note_on_c, 2, 57, 0
3, 91277, Note_on_c, 2, 55, 0
3, 91283, Note_on_c, 2, 59, 0
3, 91388, Note_on_c, 2, 62, 105
3, 91388, Note_on_c, 2, 57, 105
3, 91485, Note_on_c, 2, 62, 0
3, 91488, Note_on_c, 2, 57, 0
3, 91580, Note_on_c, 2, 59, 105
3, 91580, Note_on_c, 2, 55, 105
3, 91659, Note_on_c, 2, 55, 0
3, 91661, Note_on_c, 2, 59, 0
3, 91772, Note_on_c, 2, 62, 105
3, 91772, Note_on_c, 2, 57, 105
3, 91862, Note_on_c, 2, 57, 0
3, 91862, Note_on_c, 2, 62, 0
3, 91964, Note_on_c, 2, 59, 105
3, 91964, Note_on_c, 2, 55, 105
3, 92053, Note_on_c, 2, 55, 0
3, 92053, Note_on_c, 2, 59, 0
3, 92156, Note_on_c, 2, 62, 105
3, 92156, Note_on_c, 2, 57, 105
3, 92376, Note_on_c, 2, 62, 0
3, 92379, Note_on_c, 2, 57, 0
3, 92476, Note_on_c, 2, 62, 105
3, 92476, Note_on_c, 2, 57, 105
3, 92544, Note_on_c, 2, 62, 0
3, 92546, Note_on_c, 2, 57, 0
3, 92668, Note_on_c, 2, 62, 105
3, 92668, Note_on_c, 2, 57, 104
3, 92732, Note_on_c, 2, 59, 105
3, 92732, Note_on_c, 2, 55, 105
3, 92736, Note_on_c, 2, 57, 0
3, 92740, Note_on_c, 2, 62, 0
3, 92832, Note_on_c, 2, 59, 0
3, 92837, Note_on_c, 2, 55, 0
3, 92924, Note_on_c, 2, 62, 105
3, 92924, Note_on_c, 2, 57, 105
3, 93029, Note_on_c, 2, 62, 0
3, 93036, Note_on_c, 2, 57, 0
3, 105594, Note_on_c, 2, 62, 105
3, 105594, Note_on_c, 2, 57, 105
3, 105695, Note_on_c, 2, 57, 0
3, 105700, Note_on_c, 2, 62, 0
3, 105788, Note_on_c, 2, 59, 105
3, 105788, Note_on_c, 2, 55, 105
3, 105884, Note_on_c, 2, 55, 0
3, 105887, Note_on_c, 2, 59, 0
3, 105980, Note_on_c, 2, 62, 105
3, 105980, Note_on_c, 2, 57, 105
3, 106213, Note_on_c, 2, 62, 0
3, 106215, Note_on_c, 2, 57, 0
3, 106300, Note_on_c, 2, 62, 105
3, 106300, Note_on_c, 2, 57, 105
3, 106379, Note_on_c, 2, 62, 0
3, 106380, Note_on_c, 2, 57, 0
3, 106492, Note_on_c, 2, 62, 81
3, 106492, Note_on_c, 2, 57, 78
3, 106556, Note_on_c, 2, 59, 105
3, 106556, Note_on_c, 2, 55, 105
3, 106562, Note_on_c, 2, 62, 0
3, 106570, Note_on_c, 2, 57, 0
3, 106658, Note_on_c, 2, 59, 0
3, 106662, Note_on_c, 2, 55, 0
3, 106748, Note_on_c, 2, 62, 105
3, 106748, Note_on_c, 2, 57, 105
3, 106841, Note_on_c, 2, 62, 0
3, 106845, Note_on_c, 2, 57, 0
3, 106940, Note_on_c, 2, 59, 105
3, 106940, Note_on_c, 2, 55, 105
3, 107029, Note_on_c, 2, 59, 0
3, 107031, Note_on_c, 2, 55, 0
3, 107132, Note_on_c, 2, 62, 105
3, 107132, Note_on_c, 2, 57, 105
3, 107225, Note_on_c, 2, 57, 0
3, 107225, Note_on_c, 2, 62, 0
3, 107324, Note_on_c, 2, 59, 105
3, 107324, Note_on_c, 2, 55, 105
3, 107398, Note_on_c, 2, 55, 0
3, 107412, Note_on_c, 2, 59, 0
3, 107516, Note_on_c, 2, 62, 105
3, 107516, Note_on_c, 2, 57, 105
3, 107739, Note_on_c, 2, 62, 0
3, 107742, Note_on_c, 2, 57, 0
3, 107836, Note_on_c, 2, 62, 105
3, 107836, Note_on_c, 2, 57, 105
3, 107900, Note_on_c, 2, 57, 0
3, 107902, Note_on_c, 2, 62, 0
3, 108026, Note_on_c, 2, 62, 101
3, 108026, Note_on_c, 2, 57, 95
3, 108092, Note_on_c, 2, 59, 105
3, 108092, Note_on_c, 2, 55, 105
3, 108102, Note_on_c, 2, 57, 0
3, 108103, Note_on_c, 2, 62, 0
3, 108168, Note_on_c, 2, 55, 0
3, 108179, Note_on_c, 2, 59, 0
3, 108284, Note_on_c, 2, 62, 105
3, 108284, Note_on_c, 2, 57, 105
3, 108385, Note_on_c, 2, 62, 0
3, 108394, Note_on_c, 2, 57, 0
3, 108668, Note_on_c, 2, 62, 105
3, 108668, Note_on_c, 2, 57, 105
3, 108756, Note_on_c, 2, 57, 0
3, 108761, Note_on_c, 2, 62, 0
3, 108860, Note_on_c, 2, 59, 105
3, 108860, Note_on_c, 2, 55, 105
3, 108943, Note_on_c, 2, 59, 0
3, 108949, Note_on_c, 2, 55, 0
3, 109052, Note_on_c, 2, 62, 105
3, 109052, Note_on_c, 2, 57, 105
3, 109276, Note_on_c, 2, 62, 0
3, 109279, Note_on_c, 2, 57, 0
3, 109372, Note_on_c, 2, 62, 105
3, 109372, Note_on_c, 2, 57, 105
3, 109441, Note_on_c, 2, 62, 0
3, 109443, Note_on_c, 2, 57, 0
3, 109562, Note_on_c, 2, 62, 104
3, 109562, Note_on_c, 2, 57, 104
3, 109628, Note_on_c, 2, 59, 105
3, 109628, Note_on_c, 2, 55, 105
3, 109637, Note_on_c, 2, 62, 0
3, 109642, Note_on_c, 2, 57, 0
3, 109709, Note_on_c, 2, 55, 0
3, 109715, Note_on_c, 2, 59, 0
3, 109820, Note_on_c, 2, 62, 105
3, 109820, Note_on_c, 2, 57, 105
3, 109917, Note_on_c, 2, 62, 0
3, 109920, Note_on_c, 2, 57, 0
3, 110012, Note_on_c, 2, 59, 105
3, 110012, Note_on_c, 2, 55, 105
3, 110091, Note_on_c, 2, 55, 0
3, 110093, Note_on_c, 2, 59, 0
3, 110204, Note_on_c, 2, 62, 105
3, 110204, Note_on_c, 2, 57, 105
3, 110294, Note_on_c, 2, 57, 0
3, 110294, Note_on_c, 2, 62, 0
3, 110396, Note_on_c, 2, 59, 105
3, 110396, Note_on_c, 2, 55, 105
3, 110485, Note_on_c, 2, 55, 0
3, 110485, Note_on_c, 2, 59, 0
3, 110588, Note_on_c, 2, 62, 105
3, 110588, Note_on_c, 2, 57, 105
3, 110808, Note_on_c, 2, 62, 0
3, 110811, Note_on_c, 2, 57, 0
3, 110908, Note_on_c, 2, 62, 105
3, 110908, Note_on_c, 2, 57, 105
3, 110976, Note_on_c, 2, 62, 0
3, 110978, Note_on_c, 2, 57, 0
3, 111100, Note_on_c, 2, 62, 105
3, 111100, Note_on_c, 2, 57, 104
3, 111164, Note_on_c, 2, 59, 105
3, 111164, Note_on_c, 2, 55, 105
3, 111168, Note_on_c, 2, 57, 0
3, 111172, Note_on_c, 2, 62, 0
3, 111264, Note_on_c, 2, 59, 0
3, 111269, Note_on_c, 2, 55, 0
3, 111356, Note_on_c, 2, 62, 105
3, 111356, Note_on_c, 2, 57, 105
3, 111461, Note_on_c, 2, 62, 0
3, 111468, Note_on_c, 2, 57, 0
3, 111740, Note_on_c, 2, 62, 105
3, 111740, Note_on_c, 2, 57, 105
3, 111830, Note_on_c, 2, 57, 0
3, 111833, Note_on_c, 2, 62, 0
3, 111932, Note_on_c, 2, 59, 105
3, 111932, Note_on_c, 2, 55, 105
3, 112027, Note_on_c, 2, 59, 0
3, 112029, Note_on_c, 2, 55, 0
3, 112124, Note_on_c, 2, 62, 105
3, 112124, Note_on_c, 2, 57, 105
3, 112357, Note_on_c, 2, 62, 0
3, 112359, Note_on_c, 2, 57, 0
3, 112444, Note_on_c, 2, 62, 105
3, 112444, Note_on_c, 2, 57, 105
3, 112523, Note_on_c, 2, 62, 0
3, 112524, Note_on_c, 2, 57, 0
3, 112636, Note_on_c, 2, 62, 81
3, 112636, Note_on_c, 2, 57, 78
3, 112700, Note_on_c, 2, 59, 105
3, 112700, Note_on_c, 2, 55, 105
3, 112706, Note_on_c, 2, 62, 0
3, 112714, Note_on_c, 2, 57, 0
3, 112802, Note_on_c, 2, 59, 0
3, 112806, Note_on_c, 2, 55, 0
3, 112892, Note_on_c, 2, 62, 105
3, 112892, Note_on_c, 2, 57, 105
3, 112985, Note_on_c, 2, 62, 0
3, 112989, Note_on_c, 2, 57, 0
3, 113084, Note_on_c, 2, 59, 105
3, 113084, Note_on_c, 2, 55, 105
3, 113173, Note_on_c, 2, 59, 0
3, 113175, Note_on_c, 2, 55, 0
3, 113276, Note_on_c, 2, 62, 105
3, 113276, Note_on_c, 2, 57, 105
3, 113369, Note_on_c, 2, 57, 0
3, 113369, Note_on_c, 2, 62, 0
3, 113468, Note_on_c, 2, 59, 105
3, 113468, Note_on_c, 2, 55, 105
3, 113542, Note_on_c, 2, 55, 0
3, 113556, Note_on_c, 2, 59, 0
3, 113660, Note_on_c, 2, 62, 105
3, 113660, Note_on_c, 2, 57, 105
3, 113883, Note_on_c, 2, 62, 0
3, 113886, Note_on_c, 2, 57, 0
3, 113980, Note_on_c, 2, 62, 105
3, 113980, Note_on_c, 2, 57, 105
3, 114044, Note_on_c, 2, 57, 0
3, 114046, Note_on_c, 2, 62, 0
3, 114170, Note_on_c, 2, 62, 101
3, 114170, Note_on_c, 2, 57, 95
3, 114236, Note_on_c, 2, 59, 105
3, 114236, Note_on_c, 2, 55, 105
3, 114246, Note_on_c, 2, 57, 0
3, 114247, Note_on_c, 2, 62, 0
3, 114312, Note_on_c, 2, 55, 0
3, 114323, Note_on_c, 2, 59, 0
3, 114428, Note_on_c, 2, 62, 105
3, 114428, Note_on_c, 2, 57, 105
3, 114529, Note_on_c, 2, 62, 0
3, 114538, Note_on_c, 2, 57, 0
3, 114812, Note_on_c, 2, 62, 105
3, 114812, Note_on_c, 2, 57, 105
3, 114900, Note_on_c, 2, 57, 0
3, 114905, Note_on_c, 2, 62, 0
3, 115004, Note_on_c, 2, 59, 105
3, 115004, Note_on_c, 2, 55, 105
3, 115087, Note_on_c, 2, 59, 0
3, 115093, Note_on_c, 2, 55, 0
3, 115196, Note_on_c, 2, 62, 105
3, 115196, Note_on_c, 2, 57, 105
3, 115420, Note_on_c, 2, 62, 0
3, 115423, Note_on_c, 2, 57, 0
3, 115516, Note_on_c, 2, 62, 105
3, 115516, Note_on_c, 2, 57, 105
3, 115585, Note_on_c, 2, 62, 0
3, 115587, Note_on_c, 2, 57, 0
3, 115706, Note_on_c, 2, 62, 104
3, 115706, Note_on_c, 2, 57, 104
3, 115772, Note_on_c, 2, 59, 105
3, 115772, Note_on_c, 2, 55, 105
3, 115781, Note_on_c, 2, 62, 0
3, 115786, Note_on_c, 2, 57, 0
3, 115853, Note_on_c, 2, 55, 0
3, 115859, Note_on_c, 2, 59, 0
3, 115964, Note_on_c, 2, 62, 105
3, 115964, Note_on_c, 2, 57, 105
3, 116061, Note_on_c, 2, 62, 0
3, 116064, Note_on_c, 2, 57, 0
3, 116156, Note_on_c, 2, 59, 105
3, 116156, Note_on_c, 2, 55, 105
3, 116235, Note_on_c, 2, 55, 0
3, 116237, Note_on_c, 2, 59, 0
3, 116348, Note_on_c, 2, 62, 105
3, 116348, Note_on_c, 2, 57, 105
3, 116438, Note_on_c, 2, 57, 0
3, 116438, Note_on_c, 2, 62, 0
3, 116540, Note_on_c, 2, 59, 105
3, 116540, Note_on_c, 2, 55, 105
3, 116629, Note_on_c, 2, 55, 0
3, 116629, Note_on_c, 2, 59, 0
3, 116732, Note_on_c, 2, 62, 105
3, 116732, Note_on_c, 2, 57, 105
3, 116952, Note_on_c, 2, 62, 0
3, 116955, Note_on_c, 2, 57, 0
3, 117052, Note_on_c, 2, 62, 105
3, 117052, Note_on_c, 2, 57, 105
3, 117120, Note_on_c, 2, 62, 0
3, 117122, Note_on_c, 2, 57, 0
3, 117244, Note_on_c, 2, 62, 105
3, 117244, Note_on_c, 2, 57, 104
3, 117308, Note_on_c, 2, 59, 105
3, 117308, Note_on_c, 2, 55, 105
3, 117312, Note_on_c, 2, 57, 0
3, 117316, Note_on_c, 2, 62, 0
3, 117408, Note_on_c, 2, 59, 0
3, 117413, Note_on_c, 2, 55, 0
3, 117500, Note_on_c, 2, 62, 105
3, 117500, Note_on_c, 2, 57, 105
3, 117605, Note_on_c, 2, 62, 0
3, 117612, Note_on_c, 2, 57, 0
3, 117612, End_track
4, 0, Start_track
4, 0, MIDI_port, 0
4, 0, Title_t, "Melody              "
4, 19596, Note_on_c, 3, 66, 127
4, 19720, Note_on_c, 3, 66, 0
4, 19786, Note_on_c, 3, 67, 127
4, 19901, Note_on_c, 3, 67, 0
4, 19975, Note_on_c, 3, 67, 127
4, 20017, Pitch_bend_c, 3, 8624
4, 20022, Pitch_bend_c, 3, 9616
4, 20028, Pitch_bend_c, 3, 10688
4, 20033, Pitch_bend_c, 3, 11680
4, 20039, Pitch_bend_c, 3, 12816
4, 20044, Pitch_bend_c, 3, 13776
4, 20049, Pitch_bend_c, 3, 14992
4, 20054, Pitch_bend_c, 3, 16016
4, 20061, Pitch_bend_c, 3, 16383
4, 20246, Control_c, 3, 1, 9
4, 20251, Control_c, 3, 1, 18
4, 20257, Control_c, 3, 1, 27
4, 20262, Control_c, 3, 1, 37
4, 20268, Control_c, 3, 1, 48
4, 20273, Control_c, 3, 1, 59
4, 20279, Control_c, 3, 1, 70
4, 20284, Control_c, 3, 1, 82
4, 20292, Control_c, 3, 1, 97
4, 20297, Control_c, 3, 1, 109
4, 20303, Control_c, 3, 1, 117
4, 20308, Control_c, 3, 1, 124
4, 20313, Control_c, 3, 1, 127
4, 20415, Control_c, 3, 1, 126
4, 20420, Control_c, 3, 1, 93
4, 20425, Control_c, 3, 1, 55
4, 20431, Note_on_c, 3, 67, 0
4, 20431, Control_c, 3, 1, 16
4, 20436, Control_c, 3, 1, 0
4, 20555, Pitch_bend_c, 3, 14272
4, 20560, Pitch_bend_c, 3, 12880
4, 20565, Pitch_bend_c, 3, 11552
4, 20570, Pitch_bend_c, 3, 10112
4, 20576, Pitch_bend_c, 3, 8896
4, 20581, Pitch_bend_c, 3, 8192
4, 21888, Note_on_c, 3, 67, 127
4, 21985, Note_on_c, 3, 67, 0
4, 22072, Note_on_c, 3, 66, 127
4, 22179, Note_on_c, 3, 66, 0
4, 22274, Note_on_c, 3, 64, 127
4, 22558, Note_on_c, 3, 64, 0
4, 22558, Note_on_c, 3, 66, 96
4, 22610, Note_on_c, 3, 64, 113
4, 22621, Note_on_c, 3, 66, 0
4, 22644, Note_on_c, 3, 62, 126
4, 22655, Note_on_c, 3, 64, 0
4, 22788, Note_on_c, 3, 62, 0
4, 22840, Note_on_c, 3, 64, 127
4, 22942, Note_on_c, 3, 64, 0
4, 23030, Note_on_c, 3, 64, 127
4, 23057, Pitch_bend_c, 3, 9232
4, 23062, Pitch_bend_c, 3, 11296
4, 23067, Pitch_bend_c, 3, 13872
4, 23073, Pitch_bend_c, 3, 16383
4, 23235, Note_on_c, 3, 64, 0
4, 23238, Note_on_c, 3, 55, 120
4, 23357, Note_on_c, 3, 55, 0
4, 23430, Note_on_c, 3, 55, 126
4, 23677, Note_on_c, 3, 55, 0
4, 23893, Pitch_bend_c, 3, 15856
4, 23898, Pitch_bend_c, 3, 14944
4, 23903, Pitch_bend_c, 3, 13680
4, 23909, Pitch_bend_c, 3, 12288
4, 23914, Pitch_bend_c, 3, 10752
4, 23919, Pitch_bend_c, 3, 9504
4, 23924, Pitch_bend_c, 3, 8384
4, 23930, Pitch_bend_c, 3, 8192
4, 25740, Note_on_c, 3, 66, 127
4, 25897, Note_on_c, 3, 66, 0
4, 25930, Note_on_c, 3, 67, 127
4, 26045, Note_on_c, 3, 67, 0
4, 26118, Note_on_c, 3, 67, 120
4, 26161, Pitch_bend_c, 3, 8624
4, 26166, Pitch_bend_c, 3, 9616
4, 26172, Pitch_bend_c, 3, 10688
4, 26177, Pitch_bend_c, 3, 11680
4, 26183, Pitch_bend_c, 3, 12816
4, 26188, Pitch_bend_c, 3, 13776
4, 26193, Pitch_bend_c, 3, 14992
4, 26198, Pitch_bend_c, 3, 16016
4, 26205, Pitch_bend_c, 3, 16383
4, 26390, Control_c, 3, 1, 9
4, 26395, Control_c, 3, 1, 18
4, 26401, Control_c, 3, 1, 27
4, 26406, Control_c, 3, 1, 37
4, 26412, Control_c, 3, 1, 48
4, 26417, Control_c, 3, 1, 59
4, 26423, Control_c, 3, 1, 70
4, 26428, Control_c, 3, 1, 82
4, 26436, Control_c, 3, 1, 97
4, 26441, Control_c, 3, 1, 109
4, 26447, Control_c, 3, 1, 117
4, 26452, Control_c, 3, 1, 124
4, 26457, Control_c, 3, 1, 127
4, 26537, Note_on_c, 3, 67, 0
4, 26559, Control_c, 3, 1, 126
4, 26564, Control_c, 3, 1, 93
4, 26569, Control_c, 3, 1, 55
4, 26575, Control_c, 3, 1, 16
4, 26580, Control_c, 3, 1, 0
4, 26699, Pitch_bend_c, 3, 14272
4, 26704, Pitch_bend_c, 3, 12880
4, 26709, Pitch_bend_c, 3, 11552
4, 26714, Pitch_bend_c, 3, 10112
4, 26720, Pitch_bend_c, 3, 8896
4, 26725, Pitch_bend_c, 3, 8192
4, 28032, Note_on_c, 3, 67, 127
4, 28129, Note_on_c, 3, 67, 0
4, 28216, Note_on_c, 3, 66, 127
4, 28323, Note_on_c, 3, 66, 0
4, 28418, Note_on_c, 3, 64, 127
4, 28702, Note_on_c, 3, 64, 0
4, 28702, Note_on_c, 3, 66, 96
4, 28754, Note_on_c, 3, 64, 113
4, 28765, Note_on_c, 3, 66, 0
4, 28788, Note_on_c, 3, 62, 126
4, 28799, Note_on_c, 3, 64, 0
4, 28932, Note_on_c, 3, 62, 0
4, 28984, Note_on_c, 3, 64, 127
4, 29086, Note_on_c, 3, 64, 0
4, 29174, Note_on_c, 3, 64, 127
4, 29201, Pitch_bend_c, 3, 9232
4, 29206, Pitch_bend_c, 3, 11296
4, 29211, Pitch_bend_c, 3, 13872
4, 29217, Pitch_bend_c, 3, 16383
4, 29472, Note_on_c, 3, 64, 0
4, 30037, Pitch_bend_c, 3, 15856
4, 30042, Pitch_bend_c, 3, 14944
4, 30047, Pitch_bend_c, 3, 13680
4, 30053, Pitch_bend_c, 3, 12288
4, 30058, Pitch_bend_c, 3, 10752
4, 30063, Pitch_bend_c, 3, 9504
4, 30068, Pitch_bend_c, 3, 8384
4, 30074, Pitch_bend_c, 3, 8192
4, 32265, Note_on_c, 3, 69, 127
4, 32304, Pitch_bend_c, 3, 8976
4, 32310, Pitch_bend_c, 3, 10608
4, 32315, Pitch_bend_c, 3, 12288
4, 32321, Pitch_bend_c, 3, 14080
4, 32326, Pitch_bend_c, 3, 15600
4, 32331, Pitch_bend_c, 3, 16383
4, 32464, Pitch_bend_c, 3, 15136
4, 32469, Pitch_bend_c, 3, 12768
4, 32474, Pitch_bend_c, 3, 9568
4, 32479, Pitch_bend_c, 3, 8192
4, 32714, Note_on_c, 3, 69, 0
4, 32768, Note_on_c, 3, 69, 127
4, 32838, Note_on_c, 3, 71, 127
4, 32848, Note_on_c, 3, 69, 0
4, 33016, Note_on_c, 3, 71, 0
4, 33027, Note_on_c, 3, 64, 127
4, 33056, Pitch_bend_c, 3, 9040
4, 33061, Pitch_bend_c, 3, 10336
4, 33067, Pitch_bend_c, 3, 12240
4, 33072, Pitch_bend_c, 3, 13728
4, 33078, Pitch_bend_c, 3, 15056
4, 33083, Pitch_bend_c, 3, 16080
4, 33089, Pitch_bend_c, 3, 16383
4, 33515, Note_on_c, 3, 64, 0
4, 33524, Pitch_bend_c, 3, 15680
4, 33529, Pitch_bend_c, 3, 13456
4, 33535, Pitch_bend_c, 3, 11376
4, 33541, Pitch_bend_c, 3, 8816
4, 33546, Pitch_bend_c, 3, 8192
4, 33586, Note_on_c, 3, 64, 127
4, 33682, Note_on_c, 3, 66, 125
4, 33694, Note_on_c, 3, 64, 0
4, 33781, Note_on_c, 3, 66, 0
4, 33786, Note_on_c, 3, 62, 127
4, 34095, Control_c, 3, 1, 1
4, 34100, Control_c, 3, 1, 10
4, 34105, Control_c, 3, 1, 18
4, 34111, Control_c, 3, 1, 25
4, 34117, Control_c, 3, 1, 34
4, 34122, Control_c, 3, 1, 45
4, 34127, Control_c, 3, 1, 54
4, 34132, Control_c, 3, 1, 61
4, 34138, Control_c, 3, 1, 68
4, 34143, Control_c, 3, 1, 77
4, 34148, Control_c, 3, 1, 88
4, 34154, Control_c, 3, 1, 99
4, 34159, Control_c, 3, 1, 106
4, 34165, Control_c, 3, 1, 113
4, 34170, Control_c, 3, 1, 120
4, 34175, Control_c, 3, 1, 127
4, 34244, Control_c, 3, 1, 126
4, 34250, Control_c, 3, 1, 120
4, 34255, Control_c, 3, 1, 115
4, 34261, Control_c, 3, 1, 108
4, 34267, Control_c, 3, 1, 95
4, 34272, Control_c, 3, 1, 84
4, 34277, Control_c, 3, 1, 75
4, 34283, Control_c, 3, 1, 72
4, 34288, Control_c, 3, 1, 66
4, 34294, Control_c, 3, 1, 61
4, 34299, Control_c, 3, 1, 52
4, 34307, Control_c, 3, 1, 41
4, 34312, Control_c, 3, 1, 30
4, 34317, Control_c, 3, 1, 23
4, 34323, Control_c, 3, 1, 16
4, 34328, Control_c, 3, 1, 9
4, 34333, Control_c, 3, 1, 3
4, 34339, Control_c, 3, 1, 0
4, 34393, Note_on_c, 3, 62, 0
4, 35352, Note_on_c, 3, 69, 127
4, 35380, Pitch_bend_c, 3, 8592
4, 35386, Pitch_bend_c, 3, 10976
4, 35391, Pitch_bend_c, 3, 13120
4, 35396, Pitch_bend_c, 3, 15472
4, 35402, Pitch_bend_c, 3, 16383
4, 35605, Control_c, 3, 1, 1
4, 35626, Control_c, 3, 1, 0
4, 35642, Note_on_c, 3, 69, 0
4, 35679, Pitch_bend_c, 3, 15056
4, 35685, Pitch_bend_c, 3, 12592
4, 35690, Pitch_bend_c, 3, 9696
4, 35695, Pitch_bend_c, 3, 8192
4, 35731, Note_on_c, 3, 69, 127
4, 35818, Note_on_c, 3, 71, 127
4, 35826, Note_on_c, 3, 69, 0
4, 35902, Note_on_c, 3, 71, 0
4, 35922, Note_on_c, 3, 66, 127
4, 36030, Note_on_c, 3, 66, 0
4, 36111, Note_on_c, 3, 64, 127
4, 36376, Control_c, 3, 1, 16
4, 36382, Control_c, 3, 1, 36
4, 36387, Control_c, 3, 1, 52
4, 36393, Control_c, 3, 1, 64
4, 36398, Control_c, 3, 1, 73
4, 36403, Control_c, 3, 1, 81
4, 36408, Control_c, 3, 1, 88
4, 36414, Control_c, 3, 1, 95
4, 36420, Control_c, 3, 1, 102
4, 36426, Control_c, 3, 1, 108
4, 36431, Control_c, 3, 1, 111
4, 36437, Control_c, 3, 1, 117
4, 36442, Control_c, 3, 1, 120
4, 36447, Control_c, 3, 1, 126
4, 36453, Control_c, 3, 1, 127
4, 36496, Control_c, 3, 1, 126
4, 36502, Control_c, 3, 1, 97
4, 36507, Control_c, 3, 1, 68
4, 36512, Control_c, 3, 1, 41
4, 36518, Control_c, 3, 1, 16
4, 36523, Control_c, 3, 1, 0
4, 36551, Note_on_c, 3, 64, 0
4, 36681, Note_on_c, 3, 64, 127
4, 36699, Pitch_bend_c, 3, 8688
4, 36704, Pitch_bend_c, 3, 9840
4, 36709, Pitch_bend_c, 3, 10880
4, 36715, Pitch_bend_c, 3, 12080
4, 36720, Pitch_bend_c, 3, 13008
4, 36726, Pitch_bend_c, 3, 14032
4, 36731, Pitch_bend_c, 3, 15104
4, 36737, Pitch_bend_c, 3, 16160
4, 36742, Pitch_bend_c, 3, 16383
4, 36788, Note_on_c, 3, 64, 0
4, 36818, Pitch_bend_c, 3, 15584
4, 36825, Pitch_bend_c, 3, 13536
4, 36830, Pitch_bend_c, 3, 11600
4, 36836, Pitch_bend_c, 3, 9184
4, 36841, Pitch_bend_c, 3, 8192
4, 36881, Note_on_c, 3, 62, 123
4, 37161, Control_c, 3, 1, 5
4, 37166, Control_c, 3, 1, 12
4, 37172, Control_c, 3, 1, 21
4, 37177, Control_c, 3, 1, 30
4, 37183, Control_c, 3, 1, 37
4, 37188, Control_c, 3, 1, 46
4, 37194, Control_c, 3, 1, 54
4, 37199, Control_c, 3, 1, 61
4, 37205, Control_c, 3, 1, 68
4, 37210, Control_c, 3, 1, 75
4, 37216, Control_c, 3, 1, 84
4, 37221, Control_c, 3, 1, 93
4, 37227, Control_c, 3, 1, 102
4, 37232, Control_c, 3, 1, 111
4, 37238, Control_c, 3, 1, 120
4, 37243, Control_c, 3, 1, 127
4, 37385, Control_c, 3, 1, 81
4, 37390, Control_c, 3, 1, 16
4, 37396, Control_c, 3, 1, 0
4, 37401, Note_on_c, 3, 62, 0
4, 38336, Note_on_c, 3, 57, 121
4, 38400, Note_on_c, 3, 66, 127
4, 38406, Note_on_c, 3, 57, 0
4, 38776, Note_on_c, 3, 66, 0
4, 38784, Note_on_c, 3, 67, 127
4, 38871, Note_on_c, 3, 67, 0
4, 38899, Note_on_c, 3, 69, 127
4, 39040, Note_on_c, 3, 69, 0
4, 39098, Note_on_c, 3, 69, 127
4, 39359, Note_on_c, 3, 69, 0
4, 39680, Note_on_c, 3, 64, 127
4, 39744, Note_on_c, 3, 64, 0
4, 39744, Note_on_c, 3, 66, 126
4, 39934, Note_on_c, 3, 62, 127
4, 39936, Note_on_c, 3, 66, 0
4, 40149, Control_c, 3, 1, 1
4, 40154, Control_c, 3, 1, 9
4, 40160, Control_c, 3, 1, 18
4, 40165, Control_c, 3, 1, 27
4, 40171, Control_c, 3, 1, 34
4, 40176, Control_c, 3, 1, 41
4, 40182, Control_c, 3, 1, 45
4, 40187, Control_c, 3, 1, 46
4, 40192, Note_on_c, 3, 62, 0
4, 40193, Control_c, 3, 1, 50
4, 40198, Control_c, 3, 1, 52
4, 40204, Control_c, 3, 1, 54
4, 40214, Control_c, 3, 1, 55
4, 40225, Control_c, 3, 1, 59
4, 40230, Control_c, 3, 1, 63
4, 40240, Control_c, 3, 1, 57
4, 40246, Control_c, 3, 1, 43
4, 40251, Control_c, 3, 1, 27
4, 40258, Control_c, 3, 1, 10
4, 40263, Control_c, 3, 1, 0
4, 41282, Note_on_c, 3, 59, 127
4, 41399, Note_on_c, 3, 59, 0
4, 41473, Note_on_c, 3, 62, 127
4, 41630, Note_on_c, 3, 62, 0
4, 44356, Note_on_c, 3, 59, 127
4, 44472, Note_on_c, 3, 59, 0
4, 44546, Note_on_c, 3, 62, 127
4, 44687, Note_on_c, 3, 62, 0
4, 53384, Note_on_c, 3, 66, 127
4, 53507, Note_on_c, 3, 66, 0
4, 53578, Note_on_c, 3, 67, 127
4, 53693, Note_on_c, 3, 67, 0
4, 53772, Note_on_c, 3, 67, 127
4, 53809, Pitch_bend_c, 3, 8624
4, 53814, Pitch_bend_c, 3, 9616
4, 53820, Pitch_bend_c, 3, 10688
4, 53825, Pitch_bend_c, 3, 11680
4, 53831, Pitch_bend_c, 3, 12816
4, 53836, Pitch_bend_c, 3, 13776
4, 53841, Pitch_bend_c, 3, 14992
4, 53846, Pitch_bend_c, 3, 16016
4, 53853, Pitch_bend_c, 3, 16383
4, 54038, Control_c, 3, 1, 9
4, 54043, Control_c, 3, 1, 18
4, 54049, Control_c, 3, 1, 27
4, 54054, Control_c, 3, 1, 37
4, 54060, Control_c, 3, 1, 48
4, 54065, Control_c, 3, 1, 59
4, 54071, Control_c, 3, 1, 70
4, 54076, Control_c, 3, 1, 82
4, 54084, Control_c, 3, 1, 97
4, 54089, Control_c, 3, 1, 109
4, 54095, Control_c, 3, 1, 117
4, 54100, Control_c, 3, 1, 124
4, 54105, Control_c, 3, 1, 127
4, 54207, Control_c, 3, 1, 126
4, 54212, Control_c, 3, 1, 93
4, 54217, Control_c, 3, 1, 55
4, 54223, Control_c, 3, 1, 16
4, 54228, Control_c, 3, 1, 0
4, 54229, Note_on_c, 3, 67, 0
4, 54347, Pitch_bend_c, 3, 14272
4, 54352, Pitch_bend_c, 3, 12880
4, 54357, Pitch_bend_c, 3, 11552
4, 54362, Pitch_bend_c, 3, 10112
4, 54368, Pitch_bend_c, 3, 8896
4, 54373, Pitch_bend_c, 3, 8192
4, 55680, Note_on_c, 3, 67, 127
4, 55777, Note_on_c, 3, 67, 0
4, 55864, Note_on_c, 3, 66, 127
4, 55971, Note_on_c, 3, 66, 0
4, 56066, Note_on_c, 3, 64, 127
4, 56350, Note_on_c, 3, 64, 0
4, 56350, Note_on_c, 3, 66, 96
4, 56402, Note_on_c, 3, 64, 113
4, 56413, Note_on_c, 3, 66, 0
4, 56436, Note_on_c, 3, 62, 126
4, 56447, Note_on_c, 3, 64, 0
4, 56580, Note_on_c, 3, 62, 0
4, 56632, Note_on_c, 3, 64, 127
4, 56734, Note_on_c, 3, 64, 0
4, 56822, Note_on_c, 3, 64, 127
4, 56849, Pitch_bend_c, 3, 9232
4, 56854, Pitch_bend_c, 3, 11296
4, 56859, Pitch_bend_c, 3, 13872
4, 56865, Pitch_bend_c, 3, 16383
4, 57027, Note_on_c, 3, 64, 0
4, 57030, Note_on_c, 3, 55, 120
4, 57149, Note_on_c, 3, 55, 0
4, 57222, Note_on_c, 3, 55, 126
4, 57469, Note_on_c, 3, 55, 0
4, 57685, Pitch_bend_c, 3, 15856
4, 57690, Pitch_bend_c, 3, 14944
4, 57695, Pitch_bend_c, 3, 13680
4, 57701, Pitch_bend_c, 3, 12288
4, 57706, Pitch_bend_c, 3, 10752
4, 57711, Pitch_bend_c, 3, 9504
4, 57716, Pitch_bend_c, 3, 8384
4, 57722, Pitch_bend_c, 3, 8192
4, 59528, Note_on_c, 3, 66, 127
4, 59685, Note_on_c, 3, 66, 0
4, 59722, Note_on_c, 3, 67, 127
4, 59837, Note_on_c, 3, 67, 0
4, 59916, Note_on_c, 3, 67, 124
4, 59953, Pitch_bend_c, 3, 8624
4, 59958, Pitch_bend_c, 3, 9616
4, 59964, Pitch_bend_c, 3, 10688
4, 59969, Pitch_bend_c, 3, 11680
4, 59975, Pitch_bend_c, 3, 12816
4, 59980, Pitch_bend_c, 3, 13776
4, 59985, Pitch_bend_c, 3, 14992
4, 59990, Pitch_bend_c, 3, 16016
4, 59997, Pitch_bend_c, 3, 16383
4, 60182, Control_c, 3, 1, 9
4, 60187, Control_c, 3, 1, 18
4, 60193, Control_c, 3, 1, 27
4, 60198, Control_c, 3, 1, 37
4, 60204, Control_c, 3, 1, 48
4, 60209, Control_c, 3, 1, 59
4, 60215, Control_c, 3, 1, 70
4, 60220, Control_c, 3, 1, 82
4, 60228, Control_c, 3, 1, 97
4, 60233, Control_c, 3, 1, 109
4, 60239, Control_c, 3, 1, 117
4, 60244, Control_c, 3, 1, 124
4, 60249, Control_c, 3, 1, 127
4, 60336, Note_on_c, 3, 67, 0
4, 60351, Control_c, 3, 1, 126
4, 60356, Control_c, 3, 1, 93
4, 60361, Control_c, 3, 1, 55
4, 60367, Control_c, 3, 1, 16
4, 60372, Control_c, 3, 1, 0
4, 60491, Pitch_bend_c, 3, 14272
4, 60496, Pitch_bend_c, 3, 12880
4, 60501, Pitch_bend_c, 3, 11552
4, 60506, Pitch_bend_c, 3, 10112
4, 60512, Pitch_bend_c, 3, 8896
4, 60517, Pitch_bend_c, 3, 8192
4, 61824, Note_on_c, 3, 67, 127
4, 61921, Note_on_c, 3, 67, 0
4, 62008, Note_on_c, 3, 66, 127
4, 62115, Note_on_c, 3, 66, 0
4, 62210, Note_on_c, 3, 64, 127
4, 62494, Note_on_c, 3, 64, 0
4, 62494, Note_on_c, 3, 66, 96
4, 62546, Note_on_c, 3, 64, 113
4, 62557, Note_on_c, 3, 66, 0
4, 62580, Note_on_c, 3, 62, 126
4, 62591, Note_on_c, 3, 64, 0
4, 62724, Note_on_c, 3, 62, 0
4, 62776, Note_on_c, 3, 64, 127
4, 62878, Note_on_c, 3, 64, 0
4, 62966, Note_on_c, 3, 64, 127
4, 62993, Pitch_bend_c, 3, 9232
4, 62998, Pitch_bend_c, 3, 11296
4, 63003, Pitch_bend_c, 3, 13872
4, 63009, Pitch_bend_c, 3, 16383
4, 63264, Note_on_c, 3, 64, 0
4, 63829, Pitch_bend_c, 3, 15856
4, 63834, Pitch_bend_c, 3, 14944
4, 63839, Pitch_bend_c, 3, 13680
4, 63845, Pitch_bend_c, 3, 12288
4, 63850, Pitch_bend_c, 3, 10752
4, 63855, Pitch_bend_c, 3, 9504
4, 63860, Pitch_bend_c, 3, 8384
4, 63866, Pitch_bend_c, 3, 8192
4, 66059, Note_on_c, 3, 69, 127
4, 66096, Pitch_bend_c, 3, 8976
4, 66102, Pitch_bend_c, 3, 10608
4, 66107, Pitch_bend_c, 3, 12288
4, 66113, Pitch_bend_c, 3, 14080
4, 66118, Pitch_bend_c, 3, 15600
4, 66123, Pitch_bend_c, 3, 16383
4, 66256, Pitch_bend_c, 3, 15136
4, 66261, Pitch_bend_c, 3, 12768
4, 66266, Pitch_bend_c, 3, 9568
4, 66271, Pitch_bend_c, 3, 8192
4, 66508, Note_on_c, 3, 69, 0
4, 66560, Note_on_c, 3, 69, 127
4, 66624, Note_on_c, 3, 71, 127
4, 66631, Note_on_c, 3, 69, 0
4, 66802, Note_on_c, 3, 71, 0
4, 66819, Note_on_c, 3, 64, 127
4, 66848, Pitch_bend_c, 3, 9040
4, 66853, Pitch_bend_c, 3, 10336
4, 66859, Pitch_bend_c, 3, 12240
4, 66864, Pitch_bend_c, 3, 13728
4, 66870, Pitch_bend_c, 3, 15056
4, 66875, Pitch_bend_c, 3, 16080
4, 66881, Pitch_bend_c, 3, 16383
4, 67307, Note_on_c, 3, 64, 0
4, 67316, Pitch_bend_c, 3, 15680
4, 67321, Pitch_bend_c, 3, 13456
4, 67327, Pitch_bend_c, 3, 11376
4, 67333, Pitch_bend_c, 3, 8816
4, 67338, Pitch_bend_c, 3, 8192
4, 67378, Note_on_c, 3, 64, 127
4, 67474, Note_on_c, 3, 66, 125
4, 67486, Note_on_c, 3, 64, 0
4, 67573, Note_on_c, 3, 66, 0
4, 67578, Note_on_c, 3, 62, 120
4, 67887, Control_c, 3, 1, 1
4, 67892, Control_c, 3, 1, 10
4, 67897, Control_c, 3, 1, 18
4, 67903, Control_c, 3, 1, 25
4, 67909, Control_c, 3, 1, 34
4, 67914, Control_c, 3, 1, 45
4, 67919, Control_c, 3, 1, 54
4, 67924, Control_c, 3, 1, 61
4, 67930, Control_c, 3, 1, 68
4, 67935, Control_c, 3, 1, 77
4, 67940, Control_c, 3, 1, 88
4, 67946, Control_c, 3, 1, 99
4, 67951, Control_c, 3, 1, 106
4, 67957, Control_c, 3, 1, 113
4, 67962, Control_c, 3, 1, 120
4, 67967, Control_c, 3, 1, 127
4, 68036, Control_c, 3, 1, 126
4, 68042, Control_c, 3, 1, 120
4, 68047, Control_c, 3, 1, 115
4, 68053, Control_c, 3, 1, 108
4, 68059, Control_c, 3, 1, 95
4, 68064, Control_c, 3, 1, 84
4, 68069, Control_c, 3, 1, 75
4, 68075, Control_c, 3, 1, 72
4, 68080, Control_c, 3, 1, 66
4, 68086, Control_c, 3, 1, 61
4, 68091, Control_c, 3, 1, 52
4, 68099, Control_c, 3, 1, 41
4, 68104, Control_c, 3, 1, 30
4, 68109, Control_c, 3, 1, 23
4, 68115, Control_c, 3, 1, 16
4, 68120, Control_c, 3, 1, 9
4, 68125, Control_c, 3, 1, 3
4, 68131, Control_c, 3, 1, 0
4, 68185, Note_on_c, 3, 62, 0
4, 69132, Note_on_c, 3, 69, 127
4, 69172, Pitch_bend_c, 3, 8592
4, 69178, Pitch_bend_c, 3, 10976
4, 69183, Pitch_bend_c, 3, 13120
4, 69188, Pitch_bend_c, 3, 15472
4, 69194, Pitch_bend_c, 3, 16383
4, 69397, Control_c, 3, 1, 1
4, 69418, Control_c, 3, 1, 0
4, 69422, Note_on_c, 3, 69, 0
4, 69471, Pitch_bend_c, 3, 15056
4, 69477, Pitch_bend_c, 3, 12592
4, 69482, Pitch_bend_c, 3, 9696
4, 69487, Pitch_bend_c, 3, 8192
4, 69523, Note_on_c, 3, 69, 127
4, 69610, Note_on_c, 3, 71, 127
4, 69618, Note_on_c, 3, 69, 0
4, 69694, Note_on_c, 3, 71, 0
4, 69706, Note_on_c, 3, 66, 127
4, 69814, Note_on_c, 3, 66, 0
4, 69903, Note_on_c, 3, 64, 127
4, 70168, Control_c, 3, 1, 16
4, 70174, Control_c, 3, 1, 36
4, 70179, Control_c, 3, 1, 52
4, 70185, Control_c, 3, 1, 64
4, 70190, Control_c, 3, 1, 73
4, 70195, Control_c, 3, 1, 81
4, 70200, Control_c, 3, 1, 88
4, 70206, Control_c, 3, 1, 95
4, 70212, Control_c, 3, 1, 102
4, 70218, Control_c, 3, 1, 108
4, 70223, Control_c, 3, 1, 111
4, 70229, Control_c, 3, 1, 117
4, 70234, Control_c, 3, 1, 120
4, 70239, Control_c, 3, 1, 126
4, 70245, Control_c, 3, 1, 127
4, 70288, Control_c, 3, 1, 126
4, 70294, Control_c, 3, 1, 97
4, 70299, Control_c, 3, 1, 68
4, 70304, Control_c, 3, 1, 41
4, 70310, Control_c, 3, 1, 16
4, 70315, Control_c, 3, 1, 0
4, 70343, Note_on_c, 3, 64, 0
4, 70482, Note_on_c, 3, 64, 127
4, 70491, Pitch_bend_c, 3, 8688
4, 70496, Pitch_bend_c, 3, 9840
4, 70501, Pitch_bend_c, 3, 10880
4, 70507, Pitch_bend_c, 3, 12080
4, 70512, Pitch_bend_c, 3, 13008
4, 70518, Pitch_bend_c, 3, 14032
4, 70523, Pitch_bend_c, 3, 15104
4, 70529, Pitch_bend_c, 3, 16160
4, 70534, Pitch_bend_c, 3, 16383
4, 70590, Note_on_c, 3, 64, 0
4, 70610, Pitch_bend_c, 3, 15584
4, 70617, Pitch_bend_c, 3, 13536
4, 70622, Pitch_bend_c, 3, 11600
4, 70628, Pitch_bend_c, 3, 9184
4, 70633, Pitch_bend_c, 3, 8192
4, 70673, Note_on_c, 3, 62, 126
4, 70953, Control_c, 3, 1, 5
4, 70958, Control_c, 3, 1, 12
4, 70964, Control_c, 3, 1, 21
4, 70969, Control_c, 3, 1, 30
4, 70975, Control_c, 3, 1, 37
4, 70980, Control_c, 3, 1, 46
4, 70986, Control_c, 3, 1, 54
4, 70991, Control_c, 3, 1, 61
4, 70997, Control_c, 3, 1, 68
4, 71002, Control_c, 3, 1, 75
4, 71008, Control_c, 3, 1, 84
4, 71013, Control_c, 3, 1, 93
4, 71019, Control_c, 3, 1, 102
4, 71024, Control_c, 3, 1, 111
4, 71030, Control_c, 3, 1, 120
4, 71035, Control_c, 3, 1, 127
4, 71177, Control_c, 3, 1, 81
4, 71182, Control_c, 3, 1, 16
4, 71188, Control_c, 3, 1, 0
4, 71193, Note_on_c, 3, 62, 0
4, 72202, Note_on_c, 3, 69, 127
4, 72517, Note_on_c, 3, 69, 0
4, 72576, Note_on_c, 3, 69, 127
4, 72663, Note_on_c, 3, 69, 0
4, 72691, Note_on_c, 3, 69, 127
4, 72826, Note_on_c, 3, 69, 0
4, 72891, Note_on_c, 3, 72, 127
4, 73152, Note_on_c, 3, 72, 0
4, 73152, Note_on_c, 3, 69, 127
4, 73248, Note_on_c, 3, 69, 0
4, 73344, Note_on_c, 3, 72, 127
4, 73440, Note_on_c, 3, 72, 0
4, 73476, Note_on_c, 3, 74, 126
4, 73716, Note_on_c, 3, 74, 0
4, 73726, Note_on_c, 3, 62, 127
4, 73941, Control_c, 3, 1, 1
4, 73946, Control_c, 3, 1, 9
4, 73952, Control_c, 3, 1, 18
4, 73957, Control_c, 3, 1, 27
4, 73963, Control_c, 3, 1, 34
4, 73968, Control_c, 3, 1, 41
4, 73974, Control_c, 3, 1, 45
4, 73979, Control_c, 3, 1, 46
4, 73985, Control_c, 3, 1, 50
4, 73990, Control_c, 3, 1, 52
4, 73996, Control_c, 3, 1, 54
4, 74006, Control_c, 3, 1, 55
4, 74017, Control_c, 3, 1, 59
4, 74022, Control_c, 3, 1, 63
4, 74032, Control_c, 3, 1, 57
4, 74038, Control_c, 3, 1, 43
4, 74043, Note_on_c, 3, 62, 0
4, 74043, Control_c, 3, 1, 27
4, 74050, Control_c, 3, 1, 10
4, 74055, Control_c, 3, 1, 0
4, 75074, Note_on_c, 3, 59, 127
4, 75191, Note_on_c, 3, 59, 0
4, 75265, Note_on_c, 3, 62, 127
4, 75422, Note_on_c, 3, 62, 0
4, 78148, Note_on_c, 3, 59, 127
4, 78264, Note_on_c, 3, 59, 0
4, 78338, Note_on_c, 3, 62, 127
4, 78479, Note_on_c, 3, 62, 0
4, 78479, End_track
5, 0, Start_track
5, 0, MIDI_port, 0
5, 0, Title_t, "Strings             "
5, 13816, Note_on_c, 4, 62, 60
5, 13816, Note_on_c, 4, 57, 60
5, 13816, Note_on_c, 4, 54, 60
5, 15349, Note_on_c, 4, 57, 0
5, 15352, Note_on_c, 4, 54, 0
5, 15352, Note_on_c, 4, 59, 60
5, 15352, Note_on_c, 4, 55, 60
5, 16888, Note_on_c, 4, 55, 0
5, 16888, Note_on_c, 4, 59, 0
5, 16888, Note_on_c, 4, 57, 60
5, 16888, Note_on_c, 4, 54, 60
5, 18424, Note_on_c, 4, 54, 0
5, 18424, Note_on_c, 4, 57, 0
5, 18424, Note_on_c, 4, 59, 60
5, 18424, Note_on_c, 4, 55, 60
5, 19960, Note_on_c, 4, 55, 0
5, 19960, Note_on_c, 4, 59, 0
5, 19960, Note_on_c, 4, 57, 60
5, 19960, Note_on_c, 4, 54, 60
5, 21496, Note_on_c, 4, 54, 0
5, 21496, Note_on_c, 4, 57, 0
5, 21496, Note_on_c, 4, 59, 60
5, 21496, Note_on_c, 4, 55, 60
5, 23031, Note_on_c, 4, 62, 0
5, 23032, Note_on_c, 4, 55, 0
5, 23032, Note_on_c, 4, 59, 0
5, 23032, Note_on_c, 4, 62, 60
5, 23032, Note_on_c, 4, 57, 60
5, 23032, Note_on_c, 4, 54, 60
5, 24568, Note_on_c, 4, 54, 0
5, 24568, Note_on_c, 4, 57, 0
5, 24568, Note_on_c, 4, 59, 60
5, 24568, Note_on_c, 4, 55, 60
5, 26104, Note_on_c, 4, 55, 0
5, 26104, Note_on_c, 4, 59, 0
5, 26104, Note_on_c, 4, 57, 60
5, 26104, Note_on_c, 4, 54, 60
5, 27640, Note_on_c, 4, 54, 0
5, 27640, Note_on_c, 4, 57, 0
5, 27640, Note_on_c, 4, 59, 60
5, 27640, Note_on_c, 4, 55, 60
5, 29170, Note_on_c, 4, 55, 0
5, 29175, Note_on_c, 4, 62, 0
5, 29176, Note_on_c, 4, 59, 0
5, 29176, Note_on_c, 4, 62, 60
5, 29176, Note_on_c, 4, 57, 60
5, 29176, Note_on_c, 4, 54, 60
5, 30712, Note_on_c, 4, 54, 0
5, 30712, Note_on_c, 4, 57, 0
5, 30712, Note_on_c, 4, 59, 60
5, 30712, Note_on_c, 4, 55, 60
5, 32232, Note_on_c, 4, 62, 0
5, 32248, Note_on_c, 4, 55, 0
5, 32248, Note_on_c, 4, 59, 0
5, 32248, Note_on_c, 4, 62, 60
5, 32248, Note_on_c, 4, 57, 60
5, 32248, Note_on_c, 4, 54, 60
5, 33016, Note_on_c, 4, 66, 60
5, 33784, Note_on_c, 4, 66, 0
5, 33784, Note_on_c, 4, 54, 0
5, 33784, Note_on_c, 4, 57, 0
5, 33784, Note_on_c, 4, 67, 60
5, 33784, Note_on_c, 4, 59, 60
5, 35303, Note_on_c, 4, 62, 0
5, 35320, Note_on_c, 4, 59, 0
5, 35320, Note_on_c, 4, 67, 0
5, 35320, Note_on_c, 4, 62, 60
5, 35320, Note_on_c, 4, 57, 60
5, 35320, Note_on_c, 4, 54, 60
5, 36088, Note_on_c, 4, 66, 60
5, 36856, Note_on_c, 4, 66, 0
5, 36856, Note_on_c, 4, 54, 0
5, 36856, Note_on_c, 4, 57, 0
5, 36856, Note_on_c, 4, 67, 60
5, 36856, Note_on_c, 4, 59, 60
5, 38392, Note_on_c, 4, 59, 0
5, 38392, Note_on_c, 4, 67, 0
5, 38392, Note_on_c, 4, 69, 60
5, 38392, Note_on_c, 4, 66, 60
5, 38392, Note_on_c, 4, 57, 60
5, 39160, Note_on_c, 4, 57, 0
5, 39160, Note_on_c, 4, 59, 60
5, 39928, Note_on_c, 4, 69, 0
5, 39928, Note_on_c, 4, 67, 60
5, 39931, Note_on_c, 4, 66, 0
5, 40696, Note_on_c, 4, 59, 0
5, 40696, Note_on_c, 4, 67, 0
5, 40696, Note_on_c, 4, 69, 60
5, 40696, Note_on_c, 4, 64, 60
5, 40696, Note_on_c, 4, 61, 60
5, 40700, Note_on_c, 4, 62, 0
5, 41464, Note_on_c, 4, 69, 0
5, 41464, Note_on_c, 4, 61, 0
5, 41464, Note_on_c, 4, 66, 60
5, 41464, Note_on_c, 4, 62, 60
5, 41464, Note_on_c, 4, 57, 60
5, 41466, Note_on_c, 4, 64, 0
5, 43000, Note_on_c, 4, 66, 0
5, 43000, Note_on_c, 4, 57, 0
5, 43000, Note_on_c, 4, 67, 60
5, 43000, Note_on_c, 4, 59, 60
5, 44536, Note_on_c, 4, 59, 0
5, 44536, Note_on_c, 4, 67, 0
5, 44536, Note_on_c, 4, 66, 60
5, 44536, Note_on_c, 4, 57, 60
5, 46072, Note_on_c, 4, 57, 0
5, 46072, Note_on_c, 4, 66, 0
5, 46072, Note_on_c, 4, 67, 60
5, 46072, Note_on_c, 4, 59, 60
5, 47572, Note_on_c, 4, 59, 0
5, 47576, Note_on_c, 4, 67, 0
5, 47597, Note_on_c, 4, 62, 0
5, 53752, Note_on_c, 4, 62, 60
5, 53752, Note_on_c, 4, 57, 60
5, 53752, Note_on_c, 4, 54, 60
5, 55288, Note_on_c, 4, 54, 0
5, 55288, Note_on_c, 4, 57, 0
5, 55288, Note_on_c, 4, 59, 60
5, 55288, Note_on_c, 4, 55, 60
5, 56822, Note_on_c, 4, 55, 0
5, 56824, Note_on_c, 4, 59, 0
5, 56824, Note_on_c, 4, 57, 60
5, 56824, Note_on_c, 4, 54, 60
5, 58360, Note_on_c, 4, 54, 0
5, 58360, Note_on_c, 4, 57, 0
5, 58360, Note_on_c, 4, 59, 60
5, 58360, Note_on_c, 4, 55, 60
5, 59891, Note_on_c, 4, 62, 0
5, 59896, Note_on_c, 4, 55, 0
5, 59896, Note_on_c, 4, 59, 0
5, 59896, Note_on_c, 4, 62, 60
5, 59896, Note_on_c, 4, 57, 60
5, 59896, Note_on_c, 4, 54, 60
5, 61432, Note_on_c, 4, 54, 0
5, 61432, Note_on_c, 4, 57, 0
5, 61432, Note_on_c, 4, 59, 60
5, 61432, Note_on_c, 4, 55, 60
5, 62963, Note_on_c, 4, 55, 0
5, 62968, Note_on_c, 4, 59, 0
5, 62968, Note_on_c, 4, 57, 60
5, 62968, Note_on_c, 4, 54, 60
5, 64504, Note_on_c, 4, 54, 0
5, 64504, Note_on_c, 4, 57, 0
5, 64504, Note_on_c, 4, 59, 60
5, 64504, Note_on_c, 4, 55, 60
5, 66028, Note_on_c, 4, 62, 0
5, 66040, Note_on_c, 4, 55, 0
5, 66040, Note_on_c, 4, 59, 0
5, 66040, Note_on_c, 4, 62, 60
5, 66040, Note_on_c, 4, 57, 60
5, 66040, Note_on_c, 4, 54, 60
5, 66808, Note_on_c, 4, 66, 60
5, 67576, Note_on_c, 4, 66, 0
5, 67576, Note_on_c, 4, 57, 0
5, 67576, Note_on_c, 4, 67, 60
5, 67576, Note_on_c, 4, 59, 60
5, 67577, Note_on_c, 4, 54, 0
5, 69105, Note_on_c, 4, 62, 0
5, 69112, Note_on_c, 4, 67, 0
5, 69112, Note_on_c, 4, 59, 0
5, 69112, Note_on_c, 4, 62, 60
5, 69112, Note_on_c, 4, 57, 60
5, 69112, Note_on_c, 4, 54, 60
5, 69880, Note_on_c, 4, 66, 60
5, 70648, Note_on_c, 4, 66, 0
5, 70648, Note_on_c, 4, 54, 0
5, 70648, Note_on_c, 4, 57, 0
5, 70648, Note_on_c, 4, 67, 60
5, 70648, Note_on_c, 4, 59, 60
5, 72175, Note_on_c, 4, 62, 0
5, 72184, Note_on_c, 4, 59, 0
5, 72184, Note_on_c, 4, 67, 0
5, 72184, Note_on_c, 4, 69, 60
5, 72184, Note_on_c, 4, 66, 60
5, 72184, Note_on_c, 4, 62, 60
5, 72184, Note_on_c, 4, 57, 60
5, 72952, Note_on_c, 4, 57, 0
5, 72952, Note_on_c, 4, 59, 60
5, 73720, Note_on_c, 4, 69, 0
5, 73720, Note_on_c, 4, 66, 0
5, 73720, Note_on_c, 4, 67, 60
5, 74488, Note_on_c, 4, 67, 0
5, 74488, Note_on_c, 4, 62, 0
5, 74488, Note_on_c, 4, 59, 0
5, 74488, Note_on_c, 4, 69, 60
5, 74488, Note_on_c, 4, 64, 60
5, 74488, Note_on_c, 4, 61, 60
5, 75256, Note_on_c, 4, 61, 0
5, 75256, Note_on_c, 4, 64, 0
5, 75256, Note_on_c, 4, 69, 0
5, 75256, Note_on_c, 4, 62, 60
5, 75256, Note_on_c, 4, 57, 60
5, 75256, Note_on_c, 4, 54, 60
5, 76788, Note_on_c, 4, 57, 0
5, 76792, Note_on_c, 4, 54, 0
5, 76792, Note_on_c, 4, 59, 60
5, 76792, Note_on_c, 4, 55, 60
5, 78328, Note_on_c, 4, 55, 0
5, 78328, Note_on_c, 4, 59, 0
5, 78328, Note_on_c, 4, 57, 60
5, 78328, Note_on_c, 4, 54, 60
5, 79864, Note_on_c, 4, 54, 0
5, 79864, Note_on_c, 4, 57, 0
5, 79864, Note_on_c, 4, 59, 60
5, 79864, Note_on_c, 4, 55, 60
5, 81400, Note_on_c, 4, 55, 0
5, 81400, Note_on_c, 4, 59, 0
5, 81400, Note_on_c, 4, 62, 0
5, 93688, Note_on_c, 4, 66, 60
5, 93688, Note_on_c, 4, 62, 60
5, 93688, Note_on_c, 4, 59, 60
5, 94456, Note_on_c, 4, 66, 0
5, 94456, Note_on_c, 4, 67, 60
5, 95224, Note_on_c, 4, 67, 0
5, 95224, Note_on_c, 4, 59, 0
5, 95224, Note_on_c, 4, 62, 0
5, 95224, Note_on_c, 4, 64, 60
5, 95224, Note_on_c, 4, 61, 60
5, 95224, Note_on_c, 4, 57, 60
5, 96760, Note_on_c, 4, 57, 0
5, 96760, Note_on_c, 4, 61, 0
5, 96760, Note_on_c, 4, 64, 0
5, 96760, Note_on_c, 4, 66, 60
5, 96760, Note_on_c, 4, 62, 60
5, 96760, Note_on_c, 4, 59, 60
5, 97528, Note_on_c, 4, 66, 0
5, 97528, Note_on_c, 4, 67, 60
5, 98296, Note_on_c, 4, 67, 0
5, 98296, Note_on_c, 4, 59, 0
5, 98296, Note_on_c, 4, 62, 0
5, 98296, Note_on_c, 4, 69, 60
5, 98296, Note_on_c, 4, 64, 60
5, 98296, Note_on_c, 4, 61, 60
5, 99832, Note_on_c, 4, 61, 0
5, 99832, Note_on_c, 4, 64, 0
5, 99832, Note_on_c, 4, 69, 0
5, 99832, Note_on_c, 4, 71, 60
5, 99832, Note_on_c, 4, 66, 60
5, 99832, Note_on_c, 4, 62, 60
5, 100600, Note_on_c, 4, 66, 0
5, 100600, Note_on_c, 4, 67, 60
5, 101360, Note_on_c, 4, 67, 0
5, 101363, Note_on_c, 4, 62, 0
5, 101368, Note_on_c, 4, 71, 0
5, 101368, Note_on_c, 4, 73, 60
5, 101368, Note_on_c, 4, 69, 60
5, 101368, Note_on_c, 4, 64, 60
5, 102904, Note_on_c, 4, 64, 0
5, 102904, Note_on_c, 4, 69, 0
5, 102904, Note_on_c, 4, 73, 0
5, 102904, Note_on_c, 4, 78, 60
5, 102904, Note_on_c, 4, 74, 60
5, 102904, Note_on_c, 4, 71, 60
5, 102904, Note_on_c, 4, 66, 60
5, 102904, Note_on_c, 4, 62, 60
5, 103672, Note_on_c, 4, 66, 0
5, 103672, Note_on_c, 4, 78, 0
5, 103672, Note_on_c, 4, 79, 60
5, 103672, Note_on_c, 4, 67, 60
5, 104440, Note_on_c, 4, 67, 0
5, 104440, Note_on_c, 4, 74, 0
5, 104440, Note_on_c, 4, 62, 0
5, 104440, Note_on_c, 4, 71, 0
5, 104440, Note_on_c, 4, 79, 0
5, 104440, Note_on_c, 4, 81, 60
5, 104440, Note_on_c, 4, 76, 60
5, 104440, Note_on_c, 4, 73, 60
5, 104440, Note_on_c, 4, 69, 60
5, 104440, Note_on_c, 4, 64, 60
5, 105208, Note_on_c, 4, 57, 60
5, 105976, Note_on_c, 4, 64, 0
5, 105976, Note_on_c, 4, 73, 0
5, 105976, Note_on_c, 4, 78, 60
5, 105976, Note_on_c, 4, 74, 60
5, 105976, Note_on_c, 4, 66, 60
5, 105976, Note_on_c, 4, 62, 60
5, 105979, Note_on_c, 4, 76, 0
5, 106095, Note_on_c, 4, 57, 0
5, 106095, Note_on_c, 4, 69, 0
5, 106098, Note_on_c, 4, 66, 0
5, 106101, Note_on_c, 4, 62, 0
5, 106103, Note_on_c, 4, 81, 0
5, 106106, Note_on_c, 4, 74, 0
5, 106111, Note_on_c, 4, 78, 0
5, 118264, Note_on_c, 4, 66, 60
5, 118264, Note_on_c, 4, 69, 60
5, 118264, Note_on_c, 4, 74, 60
5, 119800, Note_on_c, 4, 69, 0
5, 119800, Note_on_c, 4, 66, 0
5, 119800, Note_on_c, 4, 67, 60
5, 119800, Note_on_c, 4, 71, 60
5, 121336, Note_on_c, 4, 71, 0
5, 121336, Note_on_c, 4, 67, 0
5, 121336, Note_on_c, 4, 66, 60
5, 121336, Note_on_c, 4, 69, 60
5, 122872, Note_on_c, 4, 69, 0
5, 122872, Note_on_c, 4, 66, 0
5, 122872, Note_on_c, 4, 67, 60
5, 122872, Note_on_c, 4, 71, 60
5, 124408, Note_on_c, 4, 71, 0
5, 124408, Note_on_c, 4, 67, 0
5, 124408, Note_on_c, 4, 66, 60
5, 124408, Note_on_c, 4, 69, 60
5, 125944, Note_on_c, 4, 69, 0
5, 125944, Note_on_c, 4, 66, 0
5, 125944, Note_on_c, 4, 67, 60
5, 125944, Note_on_c, 4, 71, 60
5, 127474, Note_on_c, 4, 74, 0
5, 127480, Note_on_c, 4, 67, 0
5, 127480, Note_on_c, 4, 66, 60
5, 127480, Note_on_c, 4, 69, 60
5, 127480, Note_on_c, 4, 74, 60
5, 127481, Note_on_c, 4, 71, 0
5, 129016, Note_on_c, 4, 66, 0
5, 129016, Note_on_c, 4, 69, 0
5, 129016, Note_on_c, 4, 67, 60
5, 129016, Note_on_c, 4, 71, 60
5, 130544, Note_on_c, 4, 71, 0
5, 130546, Note_on_c, 4, 67, 0
5, 130552, Note_on_c, 4, 74, 0
5, 130744, Note_on_c, 4, 74, 60
5, 130744, Note_on_c, 4, 86, 60
5, 130817, Note_on_c, 4, 74, 0
5, 130829, Note_on_c, 4, 86, 0
5, 130888, Note_on_c, 4, 74, 60
5, 130888, Note_on_c, 4, 86, 60
5, 130934, Note_on_c, 4, 74, 0
5, 130937, Note_on_c, 4, 86, 0
5, 131464, Note_on_c, 4, 81, 60
5, 131512, Note_on_c, 4, 83, 60
5, 131527, Note_on_c, 4, 81, 0
5, 131592, Note_on_c, 4, 83, 0
5, 131704, Note_on_c, 4, 86, 60
5, 131753, Note_on_c, 4, 86, 0
5, 131848, Note_on_c, 4, 86, 60
5, 131896, Note_on_c, 4, 83, 60
5, 131916, Note_on_c, 4, 86, 0
5, 131951, Note_on_c, 4, 83, 0
5, 131992, Note_on_c, 4, 86, 60
5, 132050, Note_on_c, 4, 86, 0
5, 132280, Note_on_c, 4, 74, 60
5, 132280, Note_on_c, 4, 86, 60
5, 132349, Note_on_c, 4, 86, 0
5, 132352, Note_on_c, 4, 74, 0
5, 132376, Note_on_c, 4, 74, 60
5, 132376, Note_on_c, 4, 86, 60
5, 132417, Note_on_c, 4, 74, 0
5, 132427, Note_on_c, 4, 86, 0
5, 132664, Note_on_c, 4, 74, 60
5, 132664, Note_on_c, 4, 86, 60
5, 132718, Note_on_c, 4, 74, 0
5, 132727, Note_on_c, 4, 86, 0
5, 132760, Note_on_c, 4, 74, 60
5, 132760, Note_on_c, 4, 86, 60
5, 132808, Note_on_c, 4, 74, 0
5, 132815, Note_on_c, 4, 86, 0
5, 133048, Note_on_c, 4, 74, 60
5, 133048, Note_on_c, 4, 86, 60
5, 133098, Note_on_c, 4, 74, 0
5, 133128, Note_on_c, 4, 86, 0
5, 133192, Note_on_c, 4, 74, 60
5, 133192, Note_on_c, 4, 86, 60
5, 133229, Note_on_c, 4, 74, 0
5, 133237, Note_on_c, 4, 86, 0
5, 133384, Note_on_c, 4, 69, 60
5, 133384, Note_on_c, 4, 81, 60
5, 133429, Note_on_c, 4, 69, 0
5, 133432, Note_on_c, 4, 81, 0
5, 133432, Note_on_c, 4, 71, 60
5, 133432, Note_on_c, 4, 83, 60
5, 133540, Note_on_c, 4, 83, 0
5, 133558, Note_on_c, 4, 71, 0
5, 133624, Note_on_c, 4, 74, 60
5, 133624, Note_on_c, 4, 81, 60
5, 133624, Note_on_c, 4, 86, 60
5, 133624, Note_on_c, 4, 90, 60
5, 134410, Note_on_c, 4, 86, 0
5, 134421, Note_on_c, 4, 90, 0
5, 134501, Note_on_c, 4, 81, 0
5, 134501, Note_on_c, 4, 74, 0
5, 134501, End_track
6, 0, Start_track
6, 0, MIDI_port, 0
6, 0, Title_t, "Brass               "
6, 14337, Note_on_c, 5, 57, 105
6, 14337, Note_on_c, 5, 69, 105
6, 14400, Note_on_c, 5, 69, 0
6, 14400, Note_on_c, 5, 57, 0
6, 14400, Note_on_c, 5, 59, 105
6, 14400, Note_on_c, 5, 71, 105
6, 14477, Note_on_c, 5, 59, 0
6, 14479, Note_on_c, 5, 71, 0
6, 14592, Note_on_c, 5, 62, 105
6, 14592, Note_on_c, 5, 74, 105
6, 14912, Note_on_c, 5, 62, 0
6, 14912, Note_on_c, 5, 59, 105
6, 14912, Note_on_c, 5, 71, 105
6, 14923, Note_on_c, 5, 74, 0
6, 15020, Note_on_c, 5, 71, 0
6, 15020, Note_on_c, 5, 59, 0
6, 15935, Note_on_c, 5, 62, 105
6, 15935, Note_on_c, 5, 74, 105
6, 15935, Note_on_c, 5, 86, 105
6, 16051, Note_on_c, 5, 86, 0
6, 16051, Note_on_c, 5, 74, 0
6, 16051, Note_on_c, 5, 62, 0
6, 16064, Note_on_c, 5, 62, 105
6, 16064, Note_on_c, 5, 74, 105
6, 16064, Note_on_c, 5, 86, 105
6, 16130, Note_on_c, 5, 62, 0
6, 16137, Note_on_c, 5, 86, 0
6, 16139, Note_on_c, 5, 74, 0
6, 17792, Note_on_c, 5, 57, 105
6, 17792, Note_on_c, 5, 69, 105
6, 17848, Note_on_c, 5, 57, 0
6, 17852, Note_on_c, 5, 69, 0
6, 17855, Note_on_c, 5, 59, 105
6, 17855, Note_on_c, 5, 71, 105
6, 17952, Note_on_c, 5, 71, 0
6, 17952, Note_on_c, 5, 59, 0
6, 18048, Note_on_c, 5, 62, 105
6, 18048, Note_on_c, 5, 74, 105
6, 18130, Note_on_c, 5, 74, 0
6, 18134, Note_on_c, 5, 62, 0
6, 18176, Note_on_c, 5, 62, 105
6, 18176, Note_on_c, 5, 74, 105
6, 18240, Note_on_c, 5, 59, 105
6, 18240, Note_on_c, 5, 71, 105
6, 18245, Note_on_c, 5, 62, 0
6, 18262, Note_on_c, 5, 74, 0
6, 18424, Note_on_c, 5, 59, 0
6, 18432, Note_on_c, 5, 62, 105
6, 18432, Note_on_c, 5, 74, 105
6, 18443, Note_on_c, 5, 71, 0
6, 18526, Note_on_c, 5, 62, 0
6, 18533, Note_on_c, 5, 74, 0
6, 19007, Note_on_c, 5, 62, 105
6, 19007, Note_on_c, 5, 74, 105
6, 19007, Note_on_c, 5, 86, 105
6, 19127, Note_on_c, 5, 86, 0
6, 19127, Note_on_c, 5, 74, 0
6, 19127, Note_on_c, 5, 62, 0
6, 19135, Note_on_c, 5, 62, 105
6, 19135, Note_on_c, 5, 74, 105
6, 19135, Note_on_c, 5, 86, 105
6, 19209, Note_on_c, 5, 74, 0
6, 19210, Note_on_c, 5, 86, 0
6, 19213, Note_on_c, 5, 62, 0
6, 20480, Note_on_c, 5, 57, 83
6, 20480, Note_on_c, 5, 69, 83
6, 20543, Note_on_c, 5, 59, 83
6, 20543, Note_on_c, 5, 71, 83
6, 20544, Note_on_c, 5, 69, 0
6, 20544, Note_on_c, 5, 57, 0
6, 20631, Note_on_c, 5, 59, 0
6, 20649, Note_on_c, 5, 71, 0
6, 20736, Note_on_c, 5, 62, 83
6, 20736, Note_on_c, 5, 74, 83
6, 21039, Note_on_c, 5, 62, 0
6, 21055, Note_on_c, 5, 59, 83
6, 21055, Note_on_c, 5, 71, 83
6, 21068, Note_on_c, 5, 74, 0
6, 21120, Note_on_c, 5, 59, 0
6, 21133, Note_on_c, 5, 71, 0
6, 23935, Note_on_c, 5, 57, 83
6, 23935, Note_on_c, 5, 69, 83
6, 23999, Note_on_c, 5, 59, 83
6, 23999, Note_on_c, 5, 71, 83
6, 24000, Note_on_c, 5, 69, 0
6, 24000, Note_on_c, 5, 57, 0
6, 24094, Note_on_c, 5, 59, 0
6, 24096, Note_on_c, 5, 71, 0
6, 24191, Note_on_c, 5, 62, 83
6, 24191, Note_on_c, 5, 74, 83
6, 24263, Note_on_c, 5, 74, 0
6, 24263, Note_on_c, 5, 62, 0
6, 24319, Note_on_c, 5, 62, 83
6, 24319, Note_on_c, 5, 74, 83
6, 24367, Note_on_c, 5, 62, 0
6, 24383, Note_on_c, 5, 74, 0
6, 24383, Note_on_c, 5, 59, 83
6, 24383, Note_on_c, 5, 71, 83
6, 24528, Note_on_c, 5, 59, 0
6, 24555, Note_on_c, 5, 71, 0
6, 24575, Note_on_c, 5, 62, 83
6, 24575, Note_on_c, 5, 74, 83
6, 24675, Note_on_c, 5, 62, 0
6, 24689, Note_on_c, 5, 74, 0
6, 25152, Note_on_c, 5, 62, 83
6, 25152, Note_on_c, 5, 74, 83
6, 25152, Note_on_c, 5, 86, 83
6, 25271, Note_on_c, 5, 86, 0
6, 25271, Note_on_c, 5, 74, 0
6, 25271, Note_on_c, 5, 62, 0
6, 25280, Note_on_c, 5, 62, 83
6, 25280, Note_on_c, 5, 74, 83
6, 25280, Note_on_c, 5, 86, 83
6, 25347, Note_on_c, 5, 62, 0
6, 25354, Note_on_c, 5, 74, 0
6, 25358, Note_on_c, 5, 86, 0
6, 26625, Note_on_c, 5, 57, 83
6, 26625, Note_on_c, 5, 69, 83
6, 26687, Note_on_c, 5, 59, 83
6, 26687, Note_on_c, 5, 71, 83
6, 26688, Note_on_c, 5, 69, 0
6, 26688, Note_on_c, 5, 57, 0
6, 26759, Note_on_c, 5, 59, 0
6, 26759, Note_on_c, 5, 71, 0
6, 26879, Note_on_c, 5, 62, 83
6, 26879, Note_on_c, 5, 74, 83
6, 27193, Note_on_c, 5, 62, 0
6, 27195, Note_on_c, 5, 74, 0
6, 27200, Note_on_c, 5, 59, 83
6, 27200, Note_on_c, 5, 71, 83
6, 27283, Note_on_c, 5, 71, 0
6, 27292, Note_on_c, 5, 59, 0
6, 30080, Note_on_c, 5, 57, 83
6, 30080, Note_on_c, 5, 69, 83
6, 30144, Note_on_c, 5, 69, 0
6, 30144, Note_on_c, 5, 57, 0
6, 30144, Note_on_c, 5, 59, 83
6, 30144, Note_on_c, 5, 71, 83
6, 30220, Note_on_c, 5, 59, 0
6, 30226, Note_on_c, 5, 71, 0
6, 30336, Note_on_c, 5, 62, 83
6, 30336, Note_on_c, 5, 74, 83
6, 30405, Note_on_c, 5, 74, 0
6, 30405, Note_on_c, 5, 62, 0
6, 30464, Note_on_c, 5, 62, 83
6, 30464, Note_on_c, 5, 74, 83
6, 30519, Note_on_c, 5, 62, 0
6, 30527, Note_on_c, 5, 59, 83
6, 30527, Note_on_c, 5, 71, 83
6, 30542, Note_on_c, 5, 74, 0
6, 30624, Note_on_c, 5, 59, 0
6, 30629, Note_on_c, 5, 71, 0
6, 30656, Note_on_c, 5, 62, 83
6, 30656, Note_on_c, 5, 74, 83
6, 30723, Note_on_c, 5, 62, 0
6, 30751, Note_on_c, 5, 74, 0
6, 31296, Note_on_c, 5, 62, 83
6, 31296, Note_on_c, 5, 74, 83
6, 31296, Note_on_c, 5, 86, 83
6, 31413, Note_on_c, 5, 86, 0
6, 31413, Note_on_c, 5, 74, 0
6, 31413, Note_on_c, 5, 62, 0
6, 31424, Note_on_c, 5, 62, 83
6, 31424, Note_on_c, 5, 74, 83
6, 31424, Note_on_c, 5, 86, 83
6, 31497, Note_on_c, 5, 62, 0
6, 31498, Note_on_c, 5, 86, 0
6, 31506, Note_on_c, 5, 74, 0
6, 32256, Note_on_c, 5, 50, 84
6, 32256, Note_on_c, 5, 62, 86
6, 33024, Note_on_c, 5, 62, 0
6, 33024, Note_on_c, 5, 50, 0
6, 33026, Note_on_c, 5, 54, 86
6, 33027, Note_on_c, 5, 66, 82
6, 33779, Note_on_c, 5, 66, 0
6, 33787, Note_on_c, 5, 54, 0
6, 33791, Note_on_c, 5, 55, 94
6, 33791, Note_on_c, 5, 67, 82
6, 35319, Note_on_c, 5, 55, 0
6, 35321, Note_on_c, 5, 67, 0
6, 35327, Note_on_c, 5, 50, 86
6, 35329, Note_on_c, 5, 62, 92
6, 36095, Note_on_c, 5, 66, 78
6, 36096, Note_on_c, 5, 62, 0
6, 36096, Note_on_c, 5, 50, 0
6, 36096, Note_on_c, 5, 54, 105
6, 36865, Note_on_c, 5, 55, 79
6, 36866, Note_on_c, 5, 67, 86
6, 36867, Note_on_c, 5, 54, 0
6, 36869, Note_on_c, 5, 66, 0
6, 38386, Note_on_c, 5, 55, 0
6, 38392, Note_on_c, 5, 67, 0
6, 38397, Note_on_c, 5, 57, 94
6, 38398, Note_on_c, 5, 69, 89
6, 41414, Note_on_c, 5, 69, 0
6, 41415, Note_on_c, 5, 57, 0
6, 42368, Note_on_c, 5, 57, 105
6, 42368, Note_on_c, 5, 69, 105
6, 42432, Note_on_c, 5, 57, 0
6, 42432, Note_on_c, 5, 59, 105
6, 42432, Note_on_c, 5, 71, 105
6, 42443, Note_on_c, 5, 69, 0
6, 42528, Note_on_c, 5, 71, 0
6, 42528, Note_on_c, 5, 59, 0
6, 42623, Note_on_c, 5, 62, 105
6, 42623, Note_on_c, 5, 74, 105
6, 42699, Note_on_c, 5, 62, 0
6, 42702, Note_on_c, 5, 74, 0
6, 42752, Note_on_c, 5, 62, 105
6, 42752, Note_on_c, 5, 74, 105
6, 42799, Note_on_c, 5, 62, 0
6, 42816, Note_on_c, 5, 59, 105
6, 42816, Note_on_c, 5, 71, 105
6, 42827, Note_on_c, 5, 74, 0
6, 42912, Note_on_c, 5, 59, 0
6, 42942, Note_on_c, 5, 71, 0
6, 43008, Note_on_c, 5, 62, 105
6, 43008, Note_on_c, 5, 74, 105
6, 43087, Note_on_c, 5, 62, 0
6, 43098, Note_on_c, 5, 74, 0
6, 43583, Note_on_c, 5, 62, 105
6, 43583, Note_on_c, 5, 74, 105
6, 43583, Note_on_c, 5, 86, 105
6, 43700, Note_on_c, 5, 86, 0
6, 43700, Note_on_c, 5, 74, 0
6, 43700, Note_on_c, 5, 62, 0
6, 43712, Note_on_c, 5, 62, 105
6, 43712, Note_on_c, 5, 74, 105
6, 43712, Note_on_c, 5, 86, 105
6, 43781, Note_on_c, 5, 62, 0
6, 43785, Note_on_c, 5, 74, 0
6, 43787, Note_on_c, 5, 86, 0
6, 45440, Note_on_c, 5, 65, 105
6, 45440, Note_on_c, 5, 77, 105
6, 45504, Note_on_c, 5, 77, 0
6, 45504, Note_on_c, 5, 65, 0
6, 45504, Note_on_c, 5, 64, 105
6, 45504, Note_on_c, 5, 76, 105
6, 45599, Note_on_c, 5, 64, 0
6, 45600, Note_on_c, 5, 76, 0
6, 45697, Note_on_c, 5, 62, 105
6, 45697, Note_on_c, 5, 74, 105
6, 45799, Note_on_c, 5, 62, 0
6, 45801, Note_on_c, 5, 74, 0
6, 45888, Note_on_c, 5, 64, 105
6, 45888, Note_on_c, 5, 76, 105
6, 46009, Note_on_c, 5, 64, 0
6, 46016, Note_on_c, 5, 76, 0
6, 46016, Note_on_c, 5, 62, 105
6, 46016, Note_on_c, 5, 74, 105
6, 46080, Note_on_c, 5, 74, 0
6, 46080, Note_on_c, 5, 62, 0
6, 46656, Note_on_c, 5, 62, 105
6, 46656, Note_on_c, 5, 74, 105
6, 46656, Note_on_c, 5, 86, 105
6, 46774, Note_on_c, 5, 86, 0
6, 46774, Note_on_c, 5, 62, 0
6, 46784, Note_on_c, 5, 62, 105
6, 46784, Note_on_c, 5, 86, 105
6, 46851, Note_on_c, 5, 74, 0
6, 46857, Note_on_c, 5, 62, 0
6, 46862, Note_on_c, 5, 86, 0
6, 54271, Note_on_c, 5, 57, 83
6, 54271, Note_on_c, 5, 69, 83
6, 54336, Note_on_c, 5, 69, 0
6, 54336, Note_on_c, 5, 59, 83
6, 54336, Note_on_c, 5, 71, 83
6, 54339, Note_on_c, 5, 57, 0
6, 54420, Note_on_c, 5, 59, 0
6, 54435, Note_on_c, 5, 71, 0
6, 54528, Note_on_c, 5, 62, 83
6, 54528, Note_on_c, 5, 74, 83
6, 54831, Note_on_c, 5, 62, 0
6, 54839, Note_on_c, 5, 74, 0
6, 54847, Note_on_c, 5, 59, 83
6, 54847, Note_on_c, 5, 71, 83
6, 54912, Note_on_c, 5, 59, 0
6, 54929, Note_on_c, 5, 71, 0
6, 57728, Note_on_c, 5, 57, 83
6, 57728, Note_on_c, 5, 69, 83
6, 57791, Note_on_c, 5, 59, 83
6, 57791, Note_on_c, 5, 71, 83
6, 57792, Note_on_c, 5, 69, 0
6, 57792, Note_on_c, 5, 57, 0
6, 57868, Note_on_c, 5, 59, 0
6, 57887, Note_on_c, 5, 71, 0
6, 57984, Note_on_c, 5, 62, 83
6, 57984, Note_on_c, 5, 74, 83
6, 58059, Note_on_c, 5, 62, 0
6, 58062, Note_on_c, 5, 74, 0
6, 58112, Note_on_c, 5, 62, 83
6, 58112, Note_on_c, 5, 74, 83
6, 58162, Note_on_c, 5, 62, 0
6, 58176, Note_on_c, 5, 74, 0
6, 58176, Note_on_c, 5, 59, 83
6, 58176, Note_on_c, 5, 71, 83
6, 58259, Note_on_c, 5, 59, 0
6, 58262, Note_on_c, 5, 71, 0
6, 58369, Note_on_c, 5, 62, 83
6, 58369, Note_on_c, 5, 74, 83
6, 58455, Note_on_c, 5, 62, 0
6, 58464, Note_on_c, 5, 74, 0
6, 58943, Note_on_c, 5, 62, 83
6, 58943, Note_on_c, 5, 74, 83
6, 58943, Note_on_c, 5, 86, 83
6, 59062, Note_on_c, 5, 86, 0
6, 59062, Note_on_c, 5, 74, 0
6, 59062, Note_on_c, 5, 62, 0
6, 59072, Note_on_c, 5, 62, 83
6, 59072, Note_on_c, 5, 74, 83
6, 59072, Note_on_c, 5, 86, 83
6, 59141, Note_on_c, 5, 74, 0
6, 59146, Note_on_c, 5, 86, 0
6, 59146, Note_on_c, 5, 62, 0
6, 60801, Note_on_c, 5, 57, 83
6, 60801, Note_on_c, 5, 69, 83
6, 60864, Note_on_c, 5, 69, 0
6, 60864, Note_on_c, 5, 57, 0
6, 60864, Note_on_c, 5, 59, 83
6, 60864, Note_on_c, 5, 71, 83
6, 60950, Note_on_c, 5, 59, 0
6, 60956, Note_on_c, 5, 71, 0
6, 61056, Note_on_c, 5, 62, 83
6, 61056, Note_on_c, 5, 74, 83
6, 61116, Note_on_c, 5, 62, 0
6, 61124, Note_on_c, 5, 74, 0
6, 61183, Note_on_c, 5, 62, 83
6, 61183, Note_on_c, 5, 74, 83
6, 61236, Note_on_c, 5, 62, 0
6, 61247, Note_on_c, 5, 59, 83
6, 61247, Note_on_c, 5, 71, 83
6, 61261, Note_on_c, 5, 74, 0
6, 61327, Note_on_c, 5, 59, 0
6, 61339, Note_on_c, 5, 71, 0
6, 61439, Note_on_c, 5, 62, 83
6, 61439, Note_on_c, 5, 74, 83
6, 61530, Note_on_c, 5, 62, 0
6, 61535, Note_on_c, 5, 74, 0
6, 63873, Note_on_c, 5, 57, 83
6, 63873, Note_on_c, 5, 69, 83
6, 63936, Note_on_c, 5, 69, 0
6, 63936, Note_on_c, 5, 57, 0
6, 63936, Note_on_c, 5, 59, 83
6, 63936, Note_on_c, 5, 71, 83
6, 64023, Note_on_c, 5, 59, 0
6, 64037, Note_on_c, 5, 71, 0
6, 64128, Note_on_c, 5, 62, 83
6, 64128, Note_on_c, 5, 74, 83
6, 64204, Note_on_c, 5, 74, 0
6, 64205, Note_on_c, 5, 62, 0
6, 64256, Note_on_c, 5, 62, 83
6, 64256, Note_on_c, 5, 74, 83
6, 64313, Note_on_c, 5, 62, 0
6, 64319, Note_on_c, 5, 59, 83
6, 64319, Note_on_c, 5, 71, 83
6, 64330, Note_on_c, 5, 74, 0
6, 64399, Note_on_c, 5, 59, 0
6, 64419, Note_on_c, 5, 71, 0
6, 64511, Note_on_c, 5, 62, 83
6, 64511, Note_on_c, 5, 74, 83
6, 64602, Note_on_c, 5, 62, 0
6, 64609, Note_on_c, 5, 74, 0
6, 65088, Note_on_c, 5, 62, 83
6, 65088, Note_on_c, 5, 74, 83
6, 65088, Note_on_c, 5, 86, 83
6, 65206, Note_on_c, 5, 86, 0
6, 65206, Note_on_c, 5, 74, 0
6, 65206, Note_on_c, 5, 62, 0
6, 65216, Note_on_c, 5, 62, 83
6, 65216, Note_on_c, 5, 74, 83
6, 65216, Note_on_c, 5, 86, 83
6, 65289, Note_on_c, 5, 62, 0
6, 65297, Note_on_c, 5, 74, 0
6, 65301, Note_on_c, 5, 86, 0
6, 66048, Note_on_c, 5, 50, 84
6, 66048, Note_on_c, 5, 62, 86
6, 66816, Note_on_c, 5, 62, 0
6, 66816, Note_on_c, 5, 50, 0
6, 66818, Note_on_c, 5, 54, 86
6, 66819, Note_on_c, 5, 66, 82
6, 67570, Note_on_c, 5, 54, 0
6, 67571, Note_on_c, 5, 66, 0
6, 67583, Note_on_c, 5, 55, 94
6, 67583, Note_on_c, 5, 67, 82
6, 69113, Note_on_c, 5, 67, 0
6, 69119, Note_on_c, 5, 50, 86
6, 69121, Note_on_c, 5, 62, 92
6, 69124, Note_on_c, 5, 55, 0
6, 69888, Note_on_c, 5, 62, 0
6, 69888, Note_on_c, 5, 50, 0
6, 69888, Note_on_c, 5, 66, 87
6, 69888, Note_on_c, 5, 54, 88
6, 70653, Note_on_c, 5, 66, 0
6, 70657, Note_on_c, 5, 55, 79
6, 70658, Note_on_c, 5, 67, 86
6, 70659, Note_on_c, 5, 54, 0
6, 72177, Note_on_c, 5, 55, 0
6, 72184, Note_on_c, 5, 67, 0
6, 72189, Note_on_c, 5, 57, 94
6, 72190, Note_on_c, 5, 69, 89
6, 75206, Note_on_c, 5, 69, 0
6, 75207, Note_on_c, 5, 57, 0
6, 76160, Note_on_c, 5, 57, 105
6, 76160, Note_on_c, 5, 69, 105
6, 76217, Note_on_c, 5, 57, 0
6, 76223, Note_on_c, 5, 59, 105
6, 76223, Note_on_c, 5, 71, 105
6, 76224, Note_on_c, 5, 69, 0
6, 76310, Note_on_c, 5, 71, 0
6, 76310, Note_on_c, 5, 59, 0
6, 76416, Note_on_c, 5, 62, 105
6, 76416, Note_on_c, 5, 74, 105
6, 76477, Note_on_c, 5, 62, 0
6, 76481, Note_on_c, 5, 74, 0
6, 76544, Note_on_c, 5, 62, 105
6, 76544, Note_on_c, 5, 74, 105
6, 76602, Note_on_c, 5, 62, 0
6, 76607, Note_on_c, 5, 59, 105
6, 76607, Note_on_c, 5, 71, 105
6, 76608, Note_on_c, 5, 74, 0
6, 76686, Note_on_c, 5, 59, 0
6, 76717, Note_on_c, 5, 71, 0
6, 76801, Note_on_c, 5, 62, 105
6, 76801, Note_on_c, 5, 74, 105
6, 76886, Note_on_c, 5, 62, 0
6, 76892, Note_on_c, 5, 74, 0
6, 77376, Note_on_c, 5, 62, 105
6, 77376, Note_on_c, 5, 74, 105
6, 77376, Note_on_c, 5, 86, 105
6, 77494, Note_on_c, 5, 86, 0
6, 77494, Note_on_c, 5, 74, 0
6, 77494, Note_on_c, 5, 62, 0
6, 77504, Note_on_c, 5, 62, 105
6, 77504, Note_on_c, 5, 74, 105
6, 77504, Note_on_c, 5, 86, 105
6, 77580, Note_on_c, 5, 62, 0
6, 77585, Note_on_c, 5, 74, 0
6, 77591, Note_on_c, 5, 86, 0
6, 79232, Note_on_c, 5, 65, 105
6, 79232, Note_on_c, 5, 77, 105
6, 79296, Note_on_c, 5, 77, 0
6, 79296, Note_on_c, 5, 65, 0
6, 79296, Note_on_c, 5, 64, 105
6, 79296, Note_on_c, 5, 76, 105
6, 79383, Note_on_c, 5, 64, 0
6, 79401, Note_on_c, 5, 76, 0
6, 79487, Note_on_c, 5, 62, 105
6, 79487, Note_on_c, 5, 74, 105
6, 79575, Note_on_c, 5, 62, 0
6, 79586, Note_on_c, 5, 74, 0
6, 79679, Note_on_c, 5, 64, 105
6, 79679, Note_on_c, 5, 76, 105
6, 79799, Note_on_c, 5, 64, 0
6, 79807, Note_on_c, 5, 76, 0
6, 79808, Note_on_c, 5, 62, 105
6, 79808, Note_on_c, 5, 74, 105
6, 79889, Note_on_c, 5, 62, 0
6, 79891, Note_on_c, 5, 74, 0
6, 80448, Note_on_c, 5, 62, 105
6, 80448, Note_on_c, 5, 74, 105
6, 80448, Note_on_c, 5, 86, 105
6, 80566, Note_on_c, 5, 86, 0
6, 80566, Note_on_c, 5, 74, 0
6, 80566, Note_on_c, 5, 62, 0
6, 80576, Note_on_c, 5, 62, 105
6, 80576, Note_on_c, 5, 74, 105
6, 80576, Note_on_c, 5, 86, 105
6, 80645, Note_on_c, 5, 74, 0
6, 80645, Note_on_c, 5, 62, 0
6, 80648, Note_on_c, 5, 86, 0
6, 119168, Note_on_c, 5, 57, 105
6, 119168, Note_on_c, 5, 69, 105
6, 119231, Note_on_c, 5, 59, 105
6, 119231, Note_on_c, 5, 71, 105
6, 119232, Note_on_c, 5, 69, 0
6, 119232, Note_on_c, 5, 57, 0
6, 119319, Note_on_c, 5, 59, 0
6, 119328, Note_on_c, 5, 71, 0
6, 119424, Note_on_c, 5, 62, 105
6, 119424, Note_on_c, 5, 74, 105
6, 119506, Note_on_c, 5, 62, 0
6, 119510, Note_on_c, 5, 74, 0
6, 119552, Note_on_c, 5, 62, 105
6, 119552, Note_on_c, 5, 74, 105
6, 119615, Note_on_c, 5, 59, 105
6, 119615, Note_on_c, 5, 71, 105
6, 119616, Note_on_c, 5, 62, 0
6, 119624, Note_on_c, 5, 74, 0
6, 119700, Note_on_c, 5, 59, 0
6, 119733, Note_on_c, 5, 71, 0
6, 119808, Note_on_c, 5, 62, 105
6, 119808, Note_on_c, 5, 74, 105
6, 119895, Note_on_c, 5, 62, 0
6, 119897, Note_on_c, 5, 74, 0
6, 120384, Note_on_c, 5, 65, 105
6, 120384, Note_on_c, 5, 77, 105
6, 120495, Note_on_c, 5, 77, 0
6, 120497, Note_on_c, 5, 65, 0
6, 120512, Note_on_c, 5, 62, 105
6, 120512, Note_on_c, 5, 74, 105
6, 120624, Note_on_c, 5, 74, 0
6, 120624, Note_on_c, 5, 62, 0
6, 122239, Note_on_c, 5, 65, 105
6, 122239, Note_on_c, 5, 77, 105
6, 122304, Note_on_c, 5, 77, 0
6, 122304, Note_on_c, 5, 64, 105
6, 122304, Note_on_c, 5, 76, 105
6, 122305, Note_on_c, 5, 65, 0
6, 122396, Note_on_c, 5, 64, 0
6, 122407, Note_on_c, 5, 76, 0
6, 122496, Note_on_c, 5, 62, 105
6, 122496, Note_on_c, 5, 74, 105
6, 122586, Note_on_c, 5, 62, 0
6, 122595, Note_on_c, 5, 74, 0
6, 122688, Note_on_c, 5, 64, 105
6, 122688, Note_on_c, 5, 76, 105
6, 122808, Note_on_c, 5, 64, 0
6, 122815, Note_on_c, 5, 76, 0
6, 122815, Note_on_c, 5, 62, 105
6, 122815, Note_on_c, 5, 74, 105
6, 122894, Note_on_c, 5, 62, 0
6, 122898, Note_on_c, 5, 74, 0
6, 123455, Note_on_c, 5, 62, 105
6, 123455, Note_on_c, 5, 74, 105
6, 123455, Note_on_c, 5, 86, 105
6, 123574, Note_on_c, 5, 86, 0
6, 123574, Note_on_c, 5, 74, 0
6, 123574, Note_on_c, 5, 62, 0
6, 123584, Note_on_c, 5, 62, 105
6, 123584, Note_on_c, 5, 74, 105
6, 123584, Note_on_c, 5, 86, 105
6, 123650, Note_on_c, 5, 62, 0
6, 123653, Note_on_c, 5, 74, 0
6, 123658, Note_on_c, 5, 86, 0
6, 125312, Note_on_c, 5, 57, 105
6, 125312, Note_on_c, 5, 69, 105
6, 125376, Note_on_c, 5, 69, 0
6, 125376, Note_on_c, 5, 57, 0
6, 125376, Note_on_c, 5, 59, 105
6, 125376, Note_on_c, 5, 71, 105
6, 125468, Note_on_c, 5, 71, 0
6, 125477, Note_on_c, 5, 59, 0
6, 125569, Note_on_c, 5, 62, 105
6, 125569, Note_on_c, 5, 74, 105
6, 125636, Note_on_c, 5, 62, 0
6, 125638, Note_on_c, 5, 74, 0
6, 125696, Note_on_c, 5, 62, 105
6, 125696, Note_on_c, 5, 74, 105
6, 125760, Note_on_c, 5, 74, 0
6, 125760, Note_on_c, 5, 62, 0
6, 125760, Note_on_c, 5, 59, 105
6, 125760, Note_on_c, 5, 71, 105
6, 125847, Note_on_c, 5, 71, 0
6, 125847, Note_on_c, 5, 59, 0
6, 125952, Note_on_c, 5, 62, 105
6, 125952, Note_on_c, 5, 74, 105
6, 126036, Note_on_c, 5, 62, 0
6, 126047, Note_on_c, 5, 74, 0
6, 126527, Note_on_c, 5, 65, 105
6, 126527, Note_on_c, 5, 77, 105
6, 126624, Note_on_c, 5, 65, 0
6, 126635, Note_on_c, 5, 77, 0
6, 126656, Note_on_c, 5, 62, 105
6, 126656, Note_on_c, 5, 74, 105
6, 126768, Note_on_c, 5, 74, 0
6, 126768, Note_on_c, 5, 62, 0
6, 128385, Note_on_c, 5, 65, 105
6, 128385, Note_on_c, 5, 77, 105
6, 128448, Note_on_c, 5, 77, 0
6, 128448, Note_on_c, 5, 65, 0
6, 128448, Note_on_c, 5, 64, 105
6, 128448, Note_on_c, 5, 76, 105
6, 128538, Note_on_c, 5, 64, 0
6, 128555, Note_on_c, 5, 76, 0
6, 128640, Note_on_c, 5, 62, 105
6, 128640, Note_on_c, 5, 74, 105
6, 128727, Note_on_c, 5, 62, 0
6, 128731, Note_on_c, 5, 74, 0
6, 128831, Note_on_c, 5, 64, 105
6, 128831, Note_on_c, 5, 76, 105
6, 128953, Note_on_c, 5, 64, 0
6, 128955, Note_on_c, 5, 76, 0
6, 128960, Note_on_c, 5, 62, 105
6, 128960, Note_on_c, 5, 74, 105
6, 129030, Note_on_c, 5, 62, 0
6, 129037, Note_on_c, 5, 74, 0
6, 129599, Note_on_c, 5, 62, 105
6, 129599, Note_on_c, 5, 74, 105
6, 129599, Note_on_c, 5, 86, 105
6, 129717, Note_on_c, 5, 86, 0
6, 129717, Note_on_c, 5, 74, 0
6, 129717, Note_on_c, 5, 62, 0
6, 129728, Note_on_c, 5, 62, 105
6, 129728, Note_on_c, 5, 74, 105
6, 129728, Note_on_c, 5, 86, 105
6, 129797, Note_on_c, 5, 86, 0
6, 129797, Note_on_c, 5, 62, 0
6, 129798, Note_on_c, 5, 74, 0
6, 129983, Note_on_c, 5, 62, 105
6, 129983, Note_on_c, 5, 74, 105
6, 129983, Note_on_c, 5, 86, 105
6, 130100, Note_on_c, 5, 62, 0
6, 130101, Note_on_c, 5, 74, 0
6, 130102, Note_on_c, 5, 86, 0
6, 130112, Note_on_c, 5, 62, 105
6, 130112, Note_on_c, 5, 74, 105
6, 130112, Note_on_c, 5, 86, 105
6, 130174, Note_on_c, 5, 62, 0
6, 130180, Note_on_c, 5, 74, 0
6, 130185, Note_on_c, 5, 86, 0
6, 130369, Note_on_c, 5, 62, 105
6, 130369, Note_on_c, 5, 74, 105
6, 130369, Note_on_c, 5, 86, 105
6, 130486, Note_on_c, 5, 86, 0
6, 130487, Note_on_c, 5, 74, 0
6, 130487, Note_on_c, 5, 62, 0
6, 130495, Note_on_c, 5, 62, 105
6, 130495, Note_on_c, 5, 74, 105
6, 130495, Note_on_c, 5, 86, 105
6, 130558, Note_on_c, 5, 62, 0
6, 130561, Note_on_c, 5, 74, 0
6, 130563, Note_on_c, 5, 86, 0
6, 130752, Note_on_c, 5, 62, 105
6, 130752, Note_on_c, 5, 74, 105
6, 130752, Note_on_c, 5, 86, 105
6, 130869, Note_on_c, 5, 86, 0
6, 130869, Note_on_c, 5, 74, 0
6, 130870, Note_on_c, 5, 62, 0
6, 130880, Note_on_c, 5, 62, 105
6, 130880, Note_on_c, 5, 74, 105
6, 130880, Note_on_c, 5, 86, 105
6, 130948, Note_on_c, 5, 62, 0
6, 130953, Note_on_c, 5, 74, 0
6, 130959, Note_on_c, 5, 86, 0
6, 131456, Note_on_c, 5, 57, 105
6, 131456, Note_on_c, 5, 69, 105
6, 131516, Note_on_c, 5, 57, 0
6, 131519, Note_on_c, 5, 59, 105
6, 131519, Note_on_c, 5, 71, 105
6, 131522, Note_on_c, 5, 69, 0
6, 131605, Note_on_c, 5, 59, 0
6, 131609, Note_on_c, 5, 71, 0
6, 131712, Note_on_c, 5, 62, 105
6, 131712, Note_on_c, 5, 74, 105
6, 131779, Note_on_c, 5, 62, 0
6, 131797, Note_on_c, 5, 74, 0
6, 131840, Note_on_c, 5, 62, 105
6, 131840, Note_on_c, 5, 74, 105
6, 131900, Note_on_c, 5, 62, 0
6, 131902, Note_on_c, 5, 74, 0
6, 131902, Note_on_c, 5, 59, 105
6, 131902, Note_on_c, 5, 71, 105
6, 131976, Note_on_c, 5, 59, 0
6, 131981, Note_on_c, 5, 71, 0
6, 132031, Note_on_c, 5, 62, 105
6, 132031, Note_on_c, 5, 74, 105
6, 132111, Note_on_c, 5, 62, 0
6, 132118, Note_on_c, 5, 74, 0
6, 132288, Note_on_c, 5, 62, 105
6, 132288, Note_on_c, 5, 74, 105
6, 132288, Note_on_c, 5, 86, 105
6, 132405, Note_on_c, 5, 74, 0
6, 132406, Note_on_c, 5, 86, 0
6, 132406, Note_on_c, 5, 62, 0
6, 132416, Note_on_c, 5, 62, 105
6, 132416, Note_on_c, 5, 74, 105
6, 132416, Note_on_c, 5, 86, 105
6, 132485, Note_on_c, 5, 62, 0
6, 132492, Note_on_c, 5, 74, 0
6, 132497, Note_on_c, 5, 86, 0
6, 132672, Note_on_c, 5, 62, 105
6, 132672, Note_on_c, 5, 74, 105
6, 132672, Note_on_c, 5, 86, 105
6, 132790, Note_on_c, 5, 86, 0
6, 132790, Note_on_c, 5, 74, 0
6, 132790, Note_on_c, 5, 62, 0
6, 132800, Note_on_c, 5, 62, 105
6, 132800, Note_on_c, 5, 74, 105
6, 132800, Note_on_c, 5, 86, 105
6, 132862, Note_on_c, 5, 62, 0
6, 132868, Note_on_c, 5, 86, 0
6, 132868, Note_on_c, 5, 74, 0
6, 133056, Note_on_c, 5, 62, 105
6, 133056, Note_on_c, 5, 74, 105
6, 133056, Note_on_c, 5, 86, 105
6, 133174, Note_on_c, 5, 86, 0
6, 133174, Note_on_c, 5, 74, 0
6, 133174, Note_on_c, 5, 62, 0
6, 133184, Note_on_c, 5, 62, 105
6, 133184, Note_on_c, 5, 74, 105
6, 133184, Note_on_c, 5, 86, 105
6, 133247, Note_on_c, 5, 86, 0
6, 133250, Note_on_c, 5, 62, 0
6, 133261, Note_on_c, 5, 74, 0
6, 133376, Note_on_c, 5, 57, 105
6, 133376, Note_on_c, 5, 69, 105
6, 133439, Note_on_c, 5, 59, 105
6, 133439, Note_on_c, 5, 71, 105
6, 133440, Note_on_c, 5, 69, 0
6, 133440, Note_on_c, 5, 57, 0
6, 133521, Note_on_c, 5, 59, 0
6, 133521, Note_on_c, 5, 71, 0
6, 133632, Note_on_c, 5, 74, 105
6, 133633, Note_on_c, 5, 62, 105
6, 133633, Note_on_c, 5, 69, 105
6, 133633, Note_on_c, 5, 78, 105
6, 134400, Note_on_c, 5, 78, 0
6, 134400, Note_on_c, 5, 74, 0
6, 134400, Note_on_c, 5, 62, 0
6, 134400, Note_on_c, 5, 69, 0
6, 134400, End_track
7, 0, Start_track
7, 0, MIDI_port, 0
7, 0, Title_t, "E.Guitar            "
7, 13952, Note_on_c, 6, 57, 48
7, 13989, Note_on_c, 6, 57, 0
7, 14015, Note_on_c, 6, 59, 80
7, 14068, Note_on_c, 6, 59, 0
7, 14144, Note_on_c, 6, 62, 82
7, 14182, Note_on_c, 6, 62, 0
7, 14337, Note_on_c, 6, 57, 48
7, 14362, Note_on_c, 6, 57, 0
7, 14400, Note_on_c, 6, 59, 81
7, 14445, Note_on_c, 6, 59, 0
7, 14528, Note_on_c, 6, 62, 82
7, 14570, Note_on_c, 6, 62, 0
7, 14720, Note_on_c, 6, 57, 49
7, 14745, Note_on_c, 6, 57, 0
7, 14785, Note_on_c, 6, 59, 78
7, 14829, Note_on_c, 6, 59, 0
7, 14912, Note_on_c, 6, 62, 82
7, 14950, Note_on_c, 6, 62, 0
7, 15104, Note_on_c, 6, 57, 60
7, 15129, Note_on_c, 6, 57, 0
7, 15167, Note_on_c, 6, 59, 79
7, 15211, Note_on_c, 6, 59, 0
7, 15297, Note_on_c, 6, 62, 82
7, 15338, Note_on_c, 6, 62, 0
7, 15488, Note_on_c, 6, 57, 57
7, 15518, Note_on_c, 6, 57, 0
7, 15552, Note_on_c, 6, 59, 67
7, 15584, Note_on_c, 6, 59, 0
7, 15680, Note_on_c, 6, 62, 82
7, 15718, Note_on_c, 6, 62, 0
7, 15872, Note_on_c, 6, 57, 49
7, 15897, Note_on_c, 6, 57, 0
7, 15935, Note_on_c, 6, 59, 78
7, 15971, Note_on_c, 6, 59, 0
7, 16064, Note_on_c, 6, 62, 82
7, 16102, Note_on_c, 6, 62, 0
7, 16256, Note_on_c, 6, 57, 54
7, 16279, Note_on_c, 6, 57, 0
7, 16320, Note_on_c, 6, 59, 78
7, 16355, Note_on_c, 6, 59, 0
7, 16448, Note_on_c, 6, 62, 82
7, 16489, Note_on_c, 6, 62, 0
7, 16641, Note_on_c, 6, 57, 46
7, 16663, Note_on_c, 6, 57, 0
7, 16702, Note_on_c, 6, 59, 77
7, 16733, Note_on_c, 6, 59, 0
7, 16832, Note_on_c, 6, 62, 82
7, 16871, Note_on_c, 6, 62, 0
7, 17024, Note_on_c, 6, 57, 46
7, 17049, Note_on_c, 6, 57, 0
7, 17088, Note_on_c, 6, 59, 72
7, 17126, Note_on_c, 6, 59, 0
7, 17216, Note_on_c, 6, 62, 82
7, 17254, Note_on_c, 6, 62, 0
7, 17409, Note_on_c, 6, 57, 46
7, 17429, Note_on_c, 6, 57, 0
7, 17471, Note_on_c, 6, 59, 77
7, 17507, Note_on_c, 6, 59, 0
7, 17600, Note_on_c, 6, 62, 82
7, 17647, Note_on_c, 6, 62, 0
7, 17792, Note_on_c, 6, 57, 46
7, 17818, Note_on_c, 6, 57, 0
7, 17855, Note_on_c, 6, 59, 76
7, 17894, Note_on_c, 6, 59, 0
7, 17983, Note_on_c, 6, 62, 82
7, 18037, Note_on_c, 6, 62, 0
7, 18176, Note_on_c, 6, 57, 48
7, 18201, Note_on_c, 6, 57, 0
7, 18240, Note_on_c, 6, 59, 78
7, 18274, Note_on_c, 6, 59, 0
7, 18368, Note_on_c, 6, 62, 82
7, 18413, Note_on_c, 6, 62, 0
7, 18560, Note_on_c, 6, 57, 49
7, 18583, Note_on_c, 6, 57, 0
7, 18623, Note_on_c, 6, 59, 72
7, 18656, Note_on_c, 6, 59, 0
7, 18751, Note_on_c, 6, 62, 82
7, 18799, Note_on_c, 6, 62, 0
7, 18944, Note_on_c, 6, 57, 51
7, 18967, Note_on_c, 6, 57, 0
7, 19007, Note_on_c, 6, 59, 70
7, 19044, Note_on_c, 6, 59, 0
7, 19135, Note_on_c, 6, 62, 82
7, 19196, Note_on_c, 6, 62, 0
7, 19328, Note_on_c, 6, 57, 58
7, 19353, Note_on_c, 6, 57, 0
7, 19391, Note_on_c, 6, 59, 70
7, 19424, Note_on_c, 6, 59, 0
7, 19520, Note_on_c, 6, 62, 82
7, 19565, Note_on_c, 6, 62, 0
7, 19712, Note_on_c, 6, 57, 51
7, 19735, Note_on_c, 6, 57, 0
7, 19775, Note_on_c, 6, 59, 81
7, 19818, Note_on_c, 6, 59, 0
7, 19903, Note_on_c, 6, 62, 82
7, 19951, Note_on_c, 6, 62, 0
7, 20096, Note_on_c, 6, 57, 46
7, 20119, Note_on_c, 6, 57, 0
7, 20160, Note_on_c, 6, 59, 79
7, 20194, Note_on_c, 6, 59, 0
7, 20288, Note_on_c, 6, 62, 82
7, 20348, Note_on_c, 6, 62, 0
7, 20480, Note_on_c, 6, 57, 46
7, 20503, Note_on_c, 6, 57, 0
7, 20543, Note_on_c, 6, 59, 78
7, 20575, Note_on_c, 6, 59, 0
7, 20672, Note_on_c, 6, 62, 82
7, 20716, Note_on_c, 6, 62, 0
7, 20863, Note_on_c, 6, 57, 48
7, 20885, Note_on_c, 6, 57, 0
7, 20928, Note_on_c, 6, 59, 76
7, 20955, Note_on_c, 6, 59, 0
7, 21055, Note_on_c, 6, 62, 82
7, 21105, Note_on_c, 6, 62, 0
7, 21248, Note_on_c, 6, 57, 49
7, 21269, Note_on_c, 6, 57, 0
7, 21311, Note_on_c, 6, 59, 82
7, 21346, Note_on_c, 6, 59, 0
7, 21440, Note_on_c, 6, 62, 82
7, 21492, Note_on_c, 6, 62, 0
7, 21632, Note_on_c, 6, 57, 58
7, 21658, Note_on_c, 6, 57, 0
7, 21695, Note_on_c, 6, 59, 69
7, 21725, Note_on_c, 6, 59, 0
7, 21823, Note_on_c, 6, 62, 82
7, 21876, Note_on_c, 6, 62, 0
7, 22016, Note_on_c, 6, 57, 48
7, 22039, Note_on_c, 6, 57, 0
7, 22079, Note_on_c, 6, 59, 82
7, 22118, Note_on_c, 6, 59, 0
7, 22208, Note_on_c, 6, 62, 82
7, 22258, Note_on_c, 6, 62, 0
7, 22399, Note_on_c, 6, 57, 50
7, 22428, Note_on_c, 6, 57, 0
7, 22464, Note_on_c, 6, 59, 79
7, 22502, Note_on_c, 6, 59, 0
7, 22592, Note_on_c, 6, 62, 82
7, 22642, Note_on_c, 6, 62, 0
7, 22784, Note_on_c, 6, 57, 70
7, 22813, Note_on_c, 6, 57, 0
7, 22848, Note_on_c, 6, 59, 74
7, 22880, Note_on_c, 6, 59, 0
7, 22976, Note_on_c, 6, 62, 82
7, 23023, Note_on_c, 6, 62, 0
7, 23168, Note_on_c, 6, 57, 51
7, 23191, Note_on_c, 6, 57, 0
7, 23232, Note_on_c, 6, 59, 79
7, 23264, Note_on_c, 6, 59, 0
7, 23360, Note_on_c, 6, 62, 82
7, 23396, Note_on_c, 6, 62, 0
7, 23552, Note_on_c, 6, 57, 54
7, 23571, Note_on_c, 6, 57, 0
7, 23615, Note_on_c, 6, 59, 82
7, 23650, Note_on_c, 6, 59, 0
7, 23744, Note_on_c, 6, 62, 82
7, 23796, Note_on_c, 6, 62, 0
7, 23935, Note_on_c, 6, 57, 48
7, 23959, Note_on_c, 6, 57, 0
7, 23999, Note_on_c, 6, 59, 76
7, 24032, Note_on_c, 6, 59, 0
7, 24129, Note_on_c, 6, 62, 82
7, 24167, Note_on_c, 6, 62, 0
7, 24319, Note_on_c, 6, 57, 46
7, 24343, Note_on_c, 6, 57, 0
7, 24383, Note_on_c, 6, 59, 80
7, 24421, Note_on_c, 6, 59, 0
7, 24512, Note_on_c, 6, 62, 82
7, 24566, Note_on_c, 6, 62, 0
7, 24704, Note_on_c, 6, 57, 48
7, 24727, Note_on_c, 6, 57, 0
7, 24767, Note_on_c, 6, 59, 82
7, 24805, Note_on_c, 6, 59, 0
7, 24896, Note_on_c, 6, 62, 82
7, 24943, Note_on_c, 6, 62, 0
7, 25088, Note_on_c, 6, 57, 66
7, 25114, Note_on_c, 6, 57, 0
7, 25152, Note_on_c, 6, 59, 82
7, 25194, Note_on_c, 6, 59, 0
7, 25283, Note_on_c, 6, 62, 82
7, 25327, Note_on_c, 6, 62, 0
7, 25472, Note_on_c, 6, 57, 53
7, 25495, Note_on_c, 6, 57, 0
7, 25536, Note_on_c, 6, 59, 81
7, 25577, Note_on_c, 6, 59, 0
7, 25664, Note_on_c, 6, 62, 82
7, 25705, Note_on_c, 6, 62, 0
7, 25856, Note_on_c, 6, 57, 60
7, 25881, Note_on_c, 6, 57, 0
7, 25919, Note_on_c, 6, 59, 82
7, 25956, Note_on_c, 6, 59, 0
7, 26048, Note_on_c, 6, 62, 82
7, 26095, Note_on_c, 6, 62, 0
7, 26240, Note_on_c, 6, 57, 49
7, 26261, Note_on_c, 6, 57, 0
7, 26303, Note_on_c, 6, 59, 67
7, 26327, Note_on_c, 6, 59, 0
7, 26432, Note_on_c, 6, 62, 82
7, 26482, Note_on_c, 6, 62, 0
7, 26625, Note_on_c, 6, 57, 53
7, 26650, Note_on_c, 6, 57, 0
7, 26687, Note_on_c, 6, 59, 74
7, 26729, Note_on_c, 6, 59, 0
7, 26816, Note_on_c, 6, 62, 82
7, 26862, Note_on_c, 6, 62, 0
7, 27008, Note_on_c, 6, 57, 59
7, 27033, Note_on_c, 6, 57, 0
7, 27072, Note_on_c, 6, 59, 82
7, 27116, Note_on_c, 6, 59, 0
7, 27200, Note_on_c, 6, 62, 82
7, 27247, Note_on_c, 6, 62, 0
7, 27393, Note_on_c, 6, 57, 56
7, 27415, Note_on_c, 6, 57, 0
7, 27456, Note_on_c, 6, 59, 70
7, 27497, Note_on_c, 6, 59, 0
7, 27584, Note_on_c, 6, 62, 82
7, 27633, Note_on_c, 6, 62, 0
7, 27776, Note_on_c, 6, 57, 60
7, 27799, Note_on_c, 6, 57, 0
7, 27840, Note_on_c, 6, 59, 82
7, 27881, Note_on_c, 6, 59, 0
7, 27968, Note_on_c, 6, 62, 82
7, 28018, Note_on_c, 6, 62, 0
7, 28160, Note_on_c, 6, 57, 69
7, 28185, Note_on_c, 6, 57, 0
7, 28223, Note_on_c, 6, 59, 82
7, 28260, Note_on_c, 6, 59, 0
7, 28352, Note_on_c, 6, 62, 82
7, 28404, Note_on_c, 6, 62, 0
7, 28543, Note_on_c, 6, 57, 55
7, 28567, Note_on_c, 6, 57, 0
7, 28607, Note_on_c, 6, 59, 81
7, 28644, Note_on_c, 6, 59, 0
7, 28737, Note_on_c, 6, 62, 82
7, 28793, Note_on_c, 6, 62, 0
7, 28928, Note_on_c, 6, 57, 63
7, 28954, Note_on_c, 6, 57, 0
7, 28992, Note_on_c, 6, 59, 82
7, 29037, Note_on_c, 6, 59, 0
7, 29120, Note_on_c, 6, 62, 82
7, 29154, Note_on_c, 6, 62, 0
7, 29312, Note_on_c, 6, 57, 66
7, 29335, Note_on_c, 6, 57, 0
7, 29375, Note_on_c, 6, 59, 82
7, 29414, Note_on_c, 6, 59, 0
7, 29504, Note_on_c, 6, 62, 82
7, 29556, Note_on_c, 6, 62, 0
7, 29696, Note_on_c, 6, 57, 46
7, 29718, Note_on_c, 6, 57, 0
7, 29761, Note_on_c, 6, 59, 82
7, 29798, Note_on_c, 6, 59, 0
7, 29889, Note_on_c, 6, 62, 82
7, 29940, Note_on_c, 6, 62, 0
7, 30080, Note_on_c, 6, 57, 46
7, 30105, Note_on_c, 6, 57, 0
7, 30144, Note_on_c, 6, 59, 79
7, 30182, Note_on_c, 6, 59, 0
7, 30272, Note_on_c, 6, 62, 82
7, 30331, Note_on_c, 6, 62, 0
7, 30464, Note_on_c, 6, 57, 54
7, 30487, Note_on_c, 6, 57, 0
7, 30527, Note_on_c, 6, 59, 78
7, 30569, Note_on_c, 6, 59, 0
7, 30656, Note_on_c, 6, 62, 82
7, 30711, Note_on_c, 6, 62, 0
7, 30848, Note_on_c, 6, 57, 53
7, 30867, Note_on_c, 6, 57, 0
7, 30912, Note_on_c, 6, 59, 80
7, 30950, Note_on_c, 6, 59, 0
7, 31040, Note_on_c, 6, 62, 82
7, 31089, Note_on_c, 6, 62, 0
7, 31232, Note_on_c, 6, 57, 58
7, 31253, Note_on_c, 6, 57, 0
7, 31296, Note_on_c, 6, 59, 82
7, 31331, Note_on_c, 6, 59, 0
7, 31424, Note_on_c, 6, 62, 82
7, 31477, Note_on_c, 6, 62, 0
7, 31615, Note_on_c, 6, 57, 50
7, 31637, Note_on_c, 6, 57, 0
7, 31679, Note_on_c, 6, 59, 79
7, 31716, Note_on_c, 6, 59, 0
7, 31807, Note_on_c, 6, 62, 82
7, 31871, Note_on_c, 6, 62, 0
7, 32000, Note_on_c, 6, 57, 62
7, 32025, Note_on_c, 6, 57, 0
7, 32063, Note_on_c, 6, 59, 82
7, 32101, Note_on_c, 6, 59, 0
7, 32193, Note_on_c, 6, 62, 82
7, 32238, Note_on_c, 6, 62, 0
7, 41599, Note_on_c, 6, 57, 69
7, 41636, Note_on_c, 6, 57, 0
7, 41663, Note_on_c, 6, 59, 79
7, 41700, Note_on_c, 6, 59, 0
7, 41792, Note_on_c, 6, 62, 82
7, 41828, Note_on_c, 6, 62, 0
7, 41984, Note_on_c, 6, 57, 46
7, 42007, Note_on_c, 6, 57, 0
7, 42048, Note_on_c, 6, 59, 79
7, 42091, Note_on_c, 6, 59, 0
7, 42176, Note_on_c, 6, 62, 82
7, 42212, Note_on_c, 6, 62, 0
7, 42368, Note_on_c, 6, 57, 48
7, 42391, Note_on_c, 6, 57, 0
7, 42432, Note_on_c, 6, 59, 67
7, 42461, Note_on_c, 6, 59, 0
7, 42560, Note_on_c, 6, 62, 82
7, 42594, Note_on_c, 6, 62, 0
7, 42752, Note_on_c, 6, 57, 52
7, 42774, Note_on_c, 6, 57, 0
7, 42816, Note_on_c, 6, 59, 69
7, 42850, Note_on_c, 6, 59, 0
7, 42944, Note_on_c, 6, 62, 82
7, 42981, Note_on_c, 6, 62, 0
7, 43135, Note_on_c, 6, 57, 48
7, 43159, Note_on_c, 6, 57, 0
7, 43200, Note_on_c, 6, 59, 68
7, 43227, Note_on_c, 6, 59, 0
7, 43328, Note_on_c, 6, 62, 82
7, 43373, Note_on_c, 6, 62, 0
7, 43520, Note_on_c, 6, 57, 46
7, 43543, Note_on_c, 6, 57, 0
7, 43583, Note_on_c, 6, 59, 70
7, 43618, Note_on_c, 6, 59, 0
7, 43712, Note_on_c, 6, 62, 82
7, 43758, Note_on_c, 6, 62, 0
7, 43906, Note_on_c, 6, 57, 48
7, 43929, Note_on_c, 6, 57, 0
7, 43967, Note_on_c, 6, 59, 66
7, 43999, Note_on_c, 6, 59, 0
7, 44095, Note_on_c, 6, 62, 82
7, 44150, Note_on_c, 6, 62, 0
7, 44288, Note_on_c, 6, 57, 59
7, 44318, Note_on_c, 6, 57, 0
7, 44351, Note_on_c, 6, 59, 64
7, 44384, Note_on_c, 6, 59, 0
7, 44480, Note_on_c, 6, 62, 82
7, 44534, Note_on_c, 6, 62, 0
7, 44672, Note_on_c, 6, 57, 70
7, 44704, Note_on_c, 6, 57, 0
7, 44735, Note_on_c, 6, 59, 74
7, 44770, Note_on_c, 6, 59, 0
7, 44864, Note_on_c, 6, 62, 82
7, 44907, Note_on_c, 6, 62, 0
7, 45055, Note_on_c, 6, 57, 50
7, 45073, Note_on_c, 6, 57, 0
7, 45120, Note_on_c, 6, 59, 64
7, 45154, Note_on_c, 6, 59, 0
7, 45248, Note_on_c, 6, 62, 82
7, 45302, Note_on_c, 6, 62, 0
7, 45440, Note_on_c, 6, 57, 60
7, 45466, Note_on_c, 6, 57, 0
7, 45504, Note_on_c, 6, 59, 77
7, 45540, Note_on_c, 6, 59, 0
7, 45631, Note_on_c, 6, 62, 82
7, 45679, Note_on_c, 6, 62, 0
7, 45826, Note_on_c, 6, 57, 67
7, 45851, Note_on_c, 6, 57, 0
7, 45888, Note_on_c, 6, 59, 81
7, 45922, Note_on_c, 6, 59, 0
7, 46016, Note_on_c, 6, 62, 82
7, 46066, Note_on_c, 6, 62, 0
7, 46208, Note_on_c, 6, 57, 71
7, 46234, Note_on_c, 6, 57, 0
7, 46272, Note_on_c, 6, 59, 69
7, 46308, Note_on_c, 6, 59, 0
7, 46400, Note_on_c, 6, 62, 82
7, 46449, Note_on_c, 6, 62, 0
7, 46591, Note_on_c, 6, 57, 59
7, 46614, Note_on_c, 6, 57, 0
7, 46656, Note_on_c, 6, 59, 80
7, 46692, Note_on_c, 6, 59, 0
7, 46784, Note_on_c, 6, 62, 82
7, 46833, Note_on_c, 6, 62, 0
7, 46975, Note_on_c, 6, 57, 69
7, 47006, Note_on_c, 6, 57, 0
7, 47040, Note_on_c, 6, 59, 81
7, 47076, Note_on_c, 6, 59, 0
7, 47167, Note_on_c, 6, 62, 82
7, 47215, Note_on_c, 6, 62, 0
7, 47360, Note_on_c, 6, 57, 66
7, 47386, Note_on_c, 6, 57, 0
7, 47423, Note_on_c, 6, 59, 73
7, 47462, Note_on_c, 6, 59, 0
7, 47552, Note_on_c, 6, 62, 82
7, 47593, Note_on_c, 6, 62, 0
7, 47616, Note_on_c, 6, 50, 90
7, 47616, Note_on_c, 6, 57, 90
7, 47616, Note_on_c, 6, 62, 90
7, 48960, Note_on_c, 6, 57, 0
7, 48960, Note_on_c, 6, 59, 52
7, 49082, Note_on_c, 6, 59, 0
7, 49088, Note_on_c, 6, 57, 53
7, 50523, Note_on_c, 6, 62, 0
7, 50525, Note_on_c, 6, 50, 0
7, 50545, Note_on_c, 6, 57, 0
7, 50687, Note_on_c, 6, 50, 81
7, 50687, Note_on_c, 6, 57, 81
7, 50687, Note_on_c, 6, 62, 81
7, 52033, Note_on_c, 6, 59, 52
7, 52035, Note_on_c, 6, 57, 0
7, 52141, Note_on_c, 6, 59, 0
7, 52161, Note_on_c, 6, 57, 47
7, 52940, Note_on_c, 6, 50, 0
7, 52944, Note_on_c, 6, 62, 0
7, 52969, Note_on_c, 6, 57, 0
7, 52992, Note_on_c, 6, 50, 64
7, 52992, Note_on_c, 6, 57, 64
7, 52992, Note_on_c, 6, 62, 64
7, 53068, Note_on_c, 6, 62, 0
7, 53075, Note_on_c, 6, 57, 0
7, 53095, Note_on_c, 6, 50, 0
7, 53119, Note_on_c, 6, 50, 61
7, 53119, Note_on_c, 6, 57, 61
7, 53119, Note_on_c, 6, 62, 61
7, 53158, Note_on_c, 6, 62, 0
7, 53161, Note_on_c, 6, 57, 0
7, 53161, Note_on_c, 6, 50, 0
7, 53184, Note_on_c, 6, 50, 66
7, 53184, Note_on_c, 6, 57, 66
7, 53184, Note_on_c, 6, 62, 66
7, 53223, Note_on_c, 6, 62, 0
7, 53223, Note_on_c, 6, 57, 0
7, 53223, Note_on_c, 6, 50, 0
7, 53503, Note_on_c, 6, 50, 66
7, 53503, Note_on_c, 6, 57, 66
7, 53503, Note_on_c, 6, 62, 66
7, 53542, Note_on_c, 6, 62, 0
7, 53542, Note_on_c, 6, 57, 0
7, 53542, Note_on_c, 6, 50, 0
7, 53888, Note_on_c, 6, 57, 46
7, 53918, Note_on_c, 6, 57, 0
7, 53952, Note_on_c, 6, 59, 73
7, 54003, Note_on_c, 6, 59, 0
7, 54079, Note_on_c, 6, 62, 79
7, 54127, Note_on_c, 6, 62, 0
7, 54271, Note_on_c, 6, 57, 48
7, 54304, Note_on_c, 6, 57, 0
7, 54336, Note_on_c, 6, 59, 67
7, 54377, Note_on_c, 6, 59, 0
7, 54464, Note_on_c, 6, 62, 82
7, 54516, Note_on_c, 6, 62, 0
7, 54656, Note_on_c, 6, 57, 58
7, 54687, Note_on_c, 6, 57, 0
7, 54720, Note_on_c, 6, 59, 71
7, 54763, Note_on_c, 6, 59, 0
7, 54847, Note_on_c, 6, 62, 82
7, 54903, Note_on_c, 6, 62, 0
7, 55040, Note_on_c, 6, 57, 59
7, 55071, Note_on_c, 6, 57, 0
7, 55103, Note_on_c, 6, 59, 65
7, 55147, Note_on_c, 6, 59, 0
7, 55232, Note_on_c, 6, 62, 79
7, 55278, Note_on_c, 6, 62, 0
7, 55424, Note_on_c, 6, 57, 49
7, 55455, Note_on_c, 6, 57, 0
7, 55488, Note_on_c, 6, 59, 65
7, 55527, Note_on_c, 6, 59, 0
7, 55615, Note_on_c, 6, 62, 79
7, 55661, Note_on_c, 6, 62, 0
7, 55808, Note_on_c, 6, 57, 53
7, 55839, Note_on_c, 6, 57, 0
7, 55871, Note_on_c, 6, 59, 69
7, 55906, Note_on_c, 6, 59, 0
7, 56000, Note_on_c, 6, 62, 80
7, 56047, Note_on_c, 6, 62, 0
7, 56193, Note_on_c, 6, 57, 52
7, 56219, Note_on_c, 6, 57, 0
7, 56256, Note_on_c, 6, 59, 46
7, 56279, Note_on_c, 6, 59, 0
7, 56384, Note_on_c, 6, 62, 74
7, 56443, Note_on_c, 6, 62, 0
7, 56576, Note_on_c, 6, 57, 56
7, 56607, Note_on_c, 6, 57, 0
7, 56639, Note_on_c, 6, 59, 70
7, 56665, Note_on_c, 6, 59, 0
7, 56768, Note_on_c, 6, 62, 79
7, 56815, Note_on_c, 6, 62, 0
7, 56960, Note_on_c, 6, 57, 56
7, 56987, Note_on_c, 6, 57, 0
7, 57024, Note_on_c, 6, 59, 68
7, 57063, Note_on_c, 6, 59, 0
7, 57151, Note_on_c, 6, 62, 82
7, 57190, Note_on_c, 6, 62, 0
7, 57344, Note_on_c, 6, 57, 46
7, 57375, Note_on_c, 6, 57, 0
7, 57407, Note_on_c, 6, 59, 71
7, 57455, Note_on_c, 6, 59, 0
7, 57537, Note_on_c, 6, 62, 82
7, 57594, Note_on_c, 6, 62, 0
7, 57728, Note_on_c, 6, 57, 58
7, 57761, Note_on_c, 6, 57, 0
7, 57791, Note_on_c, 6, 59, 73
7, 57834, Note_on_c, 6, 59, 0
7, 57920, Note_on_c, 6, 62, 82
7, 57965, Note_on_c, 6, 62, 0
7, 58112, Note_on_c, 6, 57, 59
7, 58139, Note_on_c, 6, 57, 0
7, 58176, Note_on_c, 6, 59, 70
7, 58212, Note_on_c, 6, 59, 0
7, 58304, Note_on_c, 6, 62, 82
7, 58355, Note_on_c, 6, 62, 0
7, 58495, Note_on_c, 6, 57, 46
7, 58521, Note_on_c, 6, 57, 0
7, 58560, Note_on_c, 6, 59, 65
7, 58601, Note_on_c, 6, 59, 0
7, 58688, Note_on_c, 6, 62, 82
7, 58740, Note_on_c, 6, 62, 0
7, 58880, Note_on_c, 6, 57, 65
7, 58907, Note_on_c, 6, 57, 0
7, 58943, Note_on_c, 6, 59, 74
7, 58989, Note_on_c, 6, 59, 0
7, 59072, Note_on_c, 6, 62, 82
7, 59118, Note_on_c, 6, 62, 0
7, 59263, Note_on_c, 6, 57, 59
7, 59289, Note_on_c, 6, 57, 0
7, 59328, Note_on_c, 6, 59, 73
7, 59371, Note_on_c, 6, 59, 0
7, 59455, Note_on_c, 6, 62, 82
7, 59492, Note_on_c, 6, 62, 0
7, 59648, Note_on_c, 6, 57, 54
7, 59671, Note_on_c, 6, 57, 0
7, 59712, Note_on_c, 6, 59, 80
7, 59755, Note_on_c, 6, 59, 0
7, 59840, Note_on_c, 6, 62, 82
7, 59879, Note_on_c, 6, 62, 0
7, 60031, Note_on_c, 6, 57, 49
7, 60060, Note_on_c, 6, 57, 0
7, 60096, Note_on_c, 6, 59, 70
7, 60137, Note_on_c, 6, 59, 0
7, 60224, Note_on_c, 6, 62, 82
7, 60274, Note_on_c, 6, 62, 0
7, 60415, Note_on_c, 6, 57, 47
7, 60442, Note_on_c, 6, 57, 0
7, 60480, Note_on_c, 6, 59, 52
7, 60505, Note_on_c, 6, 59, 0
7, 60608, Note_on_c, 6, 62, 82
7, 60663, Note_on_c, 6, 62, 0
7, 60801, Note_on_c, 6, 57, 49
7, 60828, Note_on_c, 6, 57, 0
7, 60866, Note_on_c, 6, 59, 66
7, 60891, Note_on_c, 6, 59, 0
7, 60992, Note_on_c, 6, 62, 82
7, 61046, Note_on_c, 6, 62, 0
7, 61183, Note_on_c, 6, 57, 51
7, 61211, Note_on_c, 6, 57, 0
7, 61247, Note_on_c, 6, 59, 61
7, 61274, Note_on_c, 6, 59, 0
7, 61377, Note_on_c, 6, 62, 82
7, 61434, Note_on_c, 6, 62, 0
7, 61568, Note_on_c, 6, 57, 48
7, 61595, Note_on_c, 6, 57, 0
7, 61631, Note_on_c, 6, 59, 68
7, 61668, Note_on_c, 6, 59, 0
7, 61759, Note_on_c, 6, 62, 82
7, 61820, Note_on_c, 6, 62, 0
7, 61952, Note_on_c, 6, 57, 67
7, 61982, Note_on_c, 6, 57, 0
7, 62016, Note_on_c, 6, 59, 71
7, 62043, Note_on_c, 6, 59, 0
7, 62144, Note_on_c, 6, 62, 82
7, 62201, Note_on_c, 6, 62, 0
7, 62335, Note_on_c, 6, 57, 46
7, 62361, Note_on_c, 6, 57, 0
7, 62401, Note_on_c, 6, 59, 66
7, 62431, Note_on_c, 6, 59, 0
7, 62528, Note_on_c, 6, 62, 82
7, 62579, Note_on_c, 6, 62, 0
7, 62719, Note_on_c, 6, 57, 46
7, 62747, Note_on_c, 6, 57, 0
7, 62783, Note_on_c, 6, 59, 72
7, 62829, Note_on_c, 6, 59, 0
7, 62912, Note_on_c, 6, 62, 82
7, 62967, Note_on_c, 6, 62, 0
7, 63104, Note_on_c, 6, 57, 51
7, 63132, Note_on_c, 6, 57, 0
7, 63168, Note_on_c, 6, 59, 66
7, 63193, Note_on_c, 6, 59, 0
7, 63295, Note_on_c, 6, 62, 82
7, 63351, Note_on_c, 6, 62, 0
7, 63488, Note_on_c, 6, 57, 46
7, 63513, Note_on_c, 6, 57, 0
7, 63551, Note_on_c, 6, 59, 65
7, 63588, Note_on_c, 6, 59, 0
7, 63680, Note_on_c, 6, 62, 82
7, 63727, Note_on_c, 6, 62, 0
7, 63873, Note_on_c, 6, 57, 56
7, 63903, Note_on_c, 6, 57, 0
7, 63936, Note_on_c, 6, 59, 71
7, 63959, Note_on_c, 6, 59, 0
7, 64063, Note_on_c, 6, 62, 82
7, 64121, Note_on_c, 6, 62, 0
7, 64256, Note_on_c, 6, 57, 55
7, 64282, Note_on_c, 6, 57, 0
7, 64319, Note_on_c, 6, 59, 65
7, 64343, Note_on_c, 6, 59, 0
7, 64448, Note_on_c, 6, 62, 82
7, 64503, Note_on_c, 6, 62, 0
7, 64640, Note_on_c, 6, 57, 48
7, 64667, Note_on_c, 6, 57, 0
7, 64703, Note_on_c, 6, 59, 68
7, 64729, Note_on_c, 6, 59, 0
7, 64832, Note_on_c, 6, 62, 82
7, 64873, Note_on_c, 6, 62, 0
7, 65024, Note_on_c, 6, 57, 59
7, 65060, Note_on_c, 6, 57, 0
7, 65088, Note_on_c, 6, 59, 71
7, 65122, Note_on_c, 6, 59, 0
7, 65216, Note_on_c, 6, 62, 82
7, 65263, Note_on_c, 6, 62, 0
7, 65408, Note_on_c, 6, 57, 64
7, 65440, Note_on_c, 6, 57, 0
7, 65472, Note_on_c, 6, 59, 64
7, 65509, Note_on_c, 6, 59, 0
7, 65599, Note_on_c, 6, 62, 82
7, 65639, Note_on_c, 6, 62, 0
7, 65792, Note_on_c, 6, 57, 52
7, 65822, Note_on_c, 6, 57, 0
7, 65856, Note_on_c, 6, 59, 68
7, 65899, Note_on_c, 6, 59, 0
7, 65984, Note_on_c, 6, 62, 82
7, 66026, Note_on_c, 6, 62, 0
7, 75392, Note_on_c, 6, 57, 46
7, 75422, Note_on_c, 6, 57, 0
7, 75456, Note_on_c, 6, 59, 79
7, 75509, Note_on_c, 6, 59, 0
7, 75583, Note_on_c, 6, 62, 82
7, 75623, Note_on_c, 6, 62, 0
7, 75776, Note_on_c, 6, 57, 52
7, 75801, Note_on_c, 6, 57, 0
7, 75841, Note_on_c, 6, 59, 78
7, 75887, Note_on_c, 6, 59, 0
7, 75968, Note_on_c, 6, 62, 82
7, 76009, Note_on_c, 6, 62, 0
7, 76160, Note_on_c, 6, 57, 58
7, 76190, Note_on_c, 6, 57, 0
7, 76223, Note_on_c, 6, 59, 71
7, 76271, Note_on_c, 6, 59, 0
7, 76352, Note_on_c, 6, 62, 82
7, 76394, Note_on_c, 6, 62, 0
7, 76544, Note_on_c, 6, 57, 53
7, 76571, Note_on_c, 6, 57, 0
7, 76607, Note_on_c, 6, 59, 67
7, 76645, Note_on_c, 6, 59, 0
7, 76736, Note_on_c, 6, 62, 77
7, 76777, Note_on_c, 6, 62, 0
7, 76927, Note_on_c, 6, 57, 46
7, 76956, Note_on_c, 6, 57, 0
7, 76992, Note_on_c, 6, 59, 72
7, 77042, Note_on_c, 6, 59, 0
7, 77120, Note_on_c, 6, 62, 69
7, 77151, Note_on_c, 6, 62, 0
7, 77312, Note_on_c, 6, 57, 56
7, 77348, Note_on_c, 6, 57, 0
7, 77376, Note_on_c, 6, 59, 67
7, 77419, Note_on_c, 6, 59, 0
7, 77504, Note_on_c, 6, 62, 70
7, 77545, Note_on_c, 6, 62, 0
7, 77696, Note_on_c, 6, 57, 52
7, 77729, Note_on_c, 6, 57, 0
7, 77760, Note_on_c, 6, 59, 58
7, 77803, Note_on_c, 6, 59, 0
7, 77887, Note_on_c, 6, 62, 82
7, 77942, Note_on_c, 6, 62, 0
7, 78080, Note_on_c, 6, 57, 52
7, 78111, Note_on_c, 6, 57, 0
7, 78143, Note_on_c, 6, 59, 71
7, 78189, Note_on_c, 6, 59, 0
7, 78272, Note_on_c, 6, 62, 82
7, 78323, Note_on_c, 6, 62, 0
7, 78464, Note_on_c, 6, 57, 48
7, 78494, Note_on_c, 6, 57, 0
7, 78528, Note_on_c, 6, 59, 66
7, 78579, Note_on_c, 6, 59, 0
7, 78656, Note_on_c, 6, 62, 82
7, 78710, Note_on_c, 6, 62, 0
7, 78848, Note_on_c, 6, 57, 51
7, 78875, Note_on_c, 6, 57, 0
7, 78911, Note_on_c, 6, 59, 65
7, 78961, Note_on_c, 6, 59, 0
7, 79040, Note_on_c, 6, 62, 82
7, 79079, Note_on_c, 6, 62, 0
7, 79232, Note_on_c, 6, 57, 47
7, 79259, Note_on_c, 6, 57, 0
7, 79296, Note_on_c, 6, 59, 68
7, 79345, Note_on_c, 6, 59, 0
7, 79424, Note_on_c, 6, 62, 82
7, 79465, Note_on_c, 6, 62, 0
7, 79615, Note_on_c, 6, 57, 46
7, 79641, Note_on_c, 6, 57, 0
7, 79679, Note_on_c, 6, 59, 66
7, 79730, Note_on_c, 6, 59, 0
7, 79808, Note_on_c, 6, 62, 82
7, 79863, Note_on_c, 6, 62, 0
7, 79999, Note_on_c, 6, 57, 52
7, 80027, Note_on_c, 6, 57, 0
7, 80064, Note_on_c, 6, 59, 65
7, 80109, Note_on_c, 6, 59, 0
7, 80192, Note_on_c, 6, 62, 80
7, 80239, Note_on_c, 6, 62, 0
7, 80384, Note_on_c, 6, 57, 48
7, 80409, Note_on_c, 6, 57, 0
7, 80448, Note_on_c, 6, 59, 52
7, 80484, Note_on_c, 6, 59, 0
7, 80576, Note_on_c, 6, 62, 82
7, 80634, Note_on_c, 6, 62, 0
7, 80768, Note_on_c, 6, 57, 46
7, 80798, Note_on_c, 6, 57, 0
7, 80833, Note_on_c, 6, 59, 63
7, 80877, Note_on_c, 6, 59, 0
7, 80961, Note_on_c, 6, 62, 82
7, 81023, Note_on_c, 6, 62, 0
7, 81152, Note_on_c, 6, 57, 46
7, 81183, Note_on_c, 6, 57, 0
7, 81215, Note_on_c, 6, 59, 65
7, 81266, Note_on_c, 6, 59, 0
7, 81344, Note_on_c, 6, 62, 81
7, 81385, Note_on_c, 6, 62, 0
7, 81536, Note_on_c, 6, 57, 47
7, 81557, Note_on_c, 6, 57, 0
7, 81600, Note_on_c, 6, 59, 50
7, 81621, Note_on_c, 6, 59, 0
7, 81728, Note_on_c, 6, 62, 74
7, 81777, Note_on_c, 6, 62, 0
7, 81920, Note_on_c, 6, 57, 46
7, 81946, Note_on_c, 6, 57, 0
7, 81984, Note_on_c, 6, 59, 67
7, 82018, Note_on_c, 6, 59, 0
7, 82113, Note_on_c, 6, 62, 82
7, 82157, Note_on_c, 6, 62, 0
7, 82303, Note_on_c, 6, 57, 46
7, 82327, Note_on_c, 6, 57, 0
7, 82369, Note_on_c, 6, 59, 46
7, 82391, Note_on_c, 6, 59, 0
7, 82496, Note_on_c, 6, 62, 80
7, 82539, Note_on_c, 6, 62, 0
7, 82688, Note_on_c, 6, 57, 48
7, 82720, Note_on_c, 6, 57, 0
7, 82751, Note_on_c, 6, 59, 72
7, 82786, Note_on_c, 6, 59, 0
7, 82880, Note_on_c, 6, 62, 81
7, 82925, Note_on_c, 6, 62, 0
7, 83072, Note_on_c, 6, 57, 46
7, 83103, Note_on_c, 6, 57, 0
7, 83135, Note_on_c, 6, 59, 54
7, 83157, Note_on_c, 6, 59, 0
7, 83264, Note_on_c, 6, 62, 78
7, 83306, Note_on_c, 6, 62, 0
7, 83456, Note_on_c, 6, 57, 66
7, 83488, Note_on_c, 6, 57, 0
7, 83520, Note_on_c, 6, 59, 68
7, 83549, Note_on_c, 6, 59, 0
7, 83649, Note_on_c, 6, 62, 80
7, 83691, Note_on_c, 6, 62, 0
7, 83840, Note_on_c, 6, 57, 46
7, 83866, Note_on_c, 6, 57, 0
7, 83904, Note_on_c, 6, 59, 64
7, 83937, Note_on_c, 6, 59, 0
7, 84032, Note_on_c, 6, 62, 80
7, 84073, Note_on_c, 6, 62, 0
7, 84224, Note_on_c, 6, 57, 48
7, 84247, Note_on_c, 6, 57, 0
7, 84287, Note_on_c, 6, 59, 65
7, 84328, Note_on_c, 6, 59, 0
7, 84416, Note_on_c, 6, 62, 80
7, 84450, Note_on_c, 6, 62, 0
7, 84608, Note_on_c, 6, 57, 48
7, 84631, Note_on_c, 6, 57, 0
7, 84671, Note_on_c, 6, 59, 64
7, 84717, Note_on_c, 6, 59, 0
7, 84800, Note_on_c, 6, 65, 82
7, 84843, Note_on_c, 6, 65, 0
7, 84992, Note_on_c, 6, 57, 46
7, 85013, Note_on_c, 6, 57, 0
7, 85055, Note_on_c, 6, 59, 70
7, 85097, Note_on_c, 6, 59, 0
7, 85184, Note_on_c, 6, 62, 82
7, 85229, Note_on_c, 6, 62, 0
7, 85376, Note_on_c, 6, 57, 48
7, 85402, Note_on_c, 6, 57, 0
7, 85440, Note_on_c, 6, 59, 71
7, 85471, Note_on_c, 6, 59, 0
7, 85568, Note_on_c, 6, 65, 82
7, 85599, Note_on_c, 6, 65, 0
7, 85760, Note_on_c, 6, 57, 48
7, 85786, Note_on_c, 6, 57, 0
7, 85824, Note_on_c, 6, 59, 63
7, 85858, Note_on_c, 6, 59, 0
7, 85953, Note_on_c, 6, 62, 80
7, 85997, Note_on_c, 6, 62, 0
7, 86143, Note_on_c, 6, 57, 49
7, 86170, Note_on_c, 6, 57, 0
7, 86207, Note_on_c, 6, 59, 71
7, 86232, Note_on_c, 6, 59, 0
7, 86336, Note_on_c, 6, 65, 82
7, 86376, Note_on_c, 6, 65, 0
7, 86528, Note_on_c, 6, 57, 46
7, 86553, Note_on_c, 6, 57, 0
7, 86592, Note_on_c, 6, 59, 72
7, 86634, Note_on_c, 6, 59, 0
7, 86720, Note_on_c, 6, 62, 82
7, 86761, Note_on_c, 6, 62, 0
7, 86912, Note_on_c, 6, 57, 49
7, 86939, Note_on_c, 6, 57, 0
7, 86976, Note_on_c, 6, 59, 68
7, 87007, Note_on_c, 6, 59, 0
7, 87103, Note_on_c, 6, 65, 82
7, 87149, Note_on_c, 6, 65, 0
7, 87296, Note_on_c, 6, 57, 46
7, 87324, Note_on_c, 6, 57, 0
7, 87360, Note_on_c, 6, 59, 66
7, 87407, Note_on_c, 6, 59, 0
7, 87488, Note_on_c, 6, 62, 82
7, 87539, Note_on_c, 6, 62, 0
7, 87680, Note_on_c, 6, 57, 58
7, 87710, Note_on_c, 6, 57, 0
7, 87744, Note_on_c, 6, 59, 70
7, 87776, Note_on_c, 6, 59, 0
7, 87872, Note_on_c, 6, 62, 82
7, 87918, Note_on_c, 6, 62, 0
7, 88064, Note_on_c, 6, 57, 52
7, 88093, Note_on_c, 6, 57, 0
7, 88129, Note_on_c, 6, 59, 64
7, 88151, Note_on_c, 6, 59, 0
7, 88256, Note_on_c, 6, 62, 77
7, 88287, Note_on_c, 6, 62, 0
7, 88448, Note_on_c, 6, 57, 46
7, 88473, Note_on_c, 6, 57, 0
7, 88511, Note_on_c, 6, 59, 52
7, 88537, Note_on_c, 6, 59, 0
7, 88641, Note_on_c, 6, 62, 82
7, 88681, Note_on_c, 6, 62, 0
7, 88831, Note_on_c, 6, 57, 46
7, 88860, Note_on_c, 6, 57, 0
7, 88895, Note_on_c, 6, 59, 53
7, 88918, Note_on_c, 6, 59, 0
7, 89024, Note_on_c, 6, 62, 82
7, 89062, Note_on_c, 6, 62, 0
7, 89215, Note_on_c, 6, 57, 53
7, 89243, Note_on_c, 6, 57, 0
7, 89280, Note_on_c, 6, 59, 69
7, 89309, Note_on_c, 6, 59, 0
7, 89407, Note_on_c, 6, 62, 82
7, 89447, Note_on_c, 6, 62, 0
7, 89601, Note_on_c, 6, 57, 46
7, 89623, Note_on_c, 6, 57, 0
7, 89664, Note_on_c, 6, 59, 67
7, 89696, Note_on_c, 6, 59, 0
7, 89793, Note_on_c, 6, 62, 82
7, 89830, Note_on_c, 6, 62, 0
7, 89985, Note_on_c, 6, 57, 55
7, 90014, Note_on_c, 6, 57, 0
7, 90048, Note_on_c, 6, 59, 68
7, 90091, Note_on_c, 6, 59, 0
7, 90176, Note_on_c, 6, 62, 82
7, 90210, Note_on_c, 6, 62, 0
7, 90368, Note_on_c, 6, 57, 51
7, 90397, Note_on_c, 6, 57, 0
7, 90432, Note_on_c, 6, 59, 69
7, 90473, Note_on_c, 6, 59, 0
7, 90561, Note_on_c, 6, 62, 82
7, 90596, Note_on_c, 6, 62, 0
7, 90752, Note_on_c, 6, 57, 51
7, 90780, Note_on_c, 6, 57, 0
7, 90815, Note_on_c, 6, 59, 67
7, 90843, Note_on_c, 6, 59, 0
7, 90943, Note_on_c, 6, 62, 82
7, 90982, Note_on_c, 6, 62, 0
7, 91136, Note_on_c, 6, 57, 46
7, 91161, Note_on_c, 6, 57, 0
7, 91199, Note_on_c, 6, 59, 63
7, 91232, Note_on_c, 6, 59, 0
7, 91328, Note_on_c, 6, 62, 82
7, 91369, Note_on_c, 6, 62, 0
7, 91520, Note_on_c, 6, 57, 49
7, 91550, Note_on_c, 6, 57, 0
7, 91584, Note_on_c, 6, 59, 56
7, 91611, Note_on_c, 6, 59, 0
7, 91711, Note_on_c, 6, 62, 82
7, 91751, Note_on_c, 6, 62, 0
7, 91904, Note_on_c, 6, 57, 46
7, 91934, Note_on_c, 6, 57, 0
7, 91968, Note_on_c, 6, 59, 52
7, 91989, Note_on_c, 6, 59, 0
7, 92096, Note_on_c, 6, 62, 82
7, 92138, Note_on_c, 6, 62, 0
7, 92288, Note_on_c, 6, 57, 55
7, 92315, Note_on_c, 6, 57, 0
7, 92350, Note_on_c, 6, 59, 67
7, 92390, Note_on_c, 6, 59, 0
7, 92480, Note_on_c, 6, 62, 82
7, 92519, Note_on_c, 6, 62, 0
7, 92672, Note_on_c, 6, 57, 48
7, 92697, Note_on_c, 6, 57, 0
7, 92736, Note_on_c, 6, 59, 71
7, 92770, Note_on_c, 6, 59, 0
7, 92864, Note_on_c, 6, 62, 82
7, 92902, Note_on_c, 6, 62, 0
7, 106111, Note_on_c, 6, 57, 57
7, 106137, Note_on_c, 6, 57, 0
7, 106176, Note_on_c, 6, 59, 58
7, 106199, Note_on_c, 6, 59, 0
7, 106304, Note_on_c, 6, 62, 82
7, 106333, Note_on_c, 6, 62, 0
7, 106496, Note_on_c, 6, 57, 57
7, 106528, Note_on_c, 6, 57, 0
7, 106560, Note_on_c, 6, 59, 52
7, 106583, Note_on_c, 6, 59, 0
7, 106688, Note_on_c, 6, 62, 79
7, 106717, Note_on_c, 6, 62, 0
7, 106880, Note_on_c, 6, 57, 46
7, 106907, Note_on_c, 6, 57, 0
7, 106944, Note_on_c, 6, 59, 66
7, 106969, Note_on_c, 6, 59, 0
7, 107072, Note_on_c, 6, 62, 71
7, 107095, Note_on_c, 6, 62, 0
7, 107265, Note_on_c, 6, 57, 52
7, 107293, Note_on_c, 6, 57, 0
7, 107328, Note_on_c, 6, 59, 67
7, 107359, Note_on_c, 6, 59, 0
7, 107456, Note_on_c, 6, 62, 78
7, 107484, Note_on_c, 6, 62, 0
7, 107648, Note_on_c, 6, 57, 48
7, 107679, Note_on_c, 6, 57, 0
7, 107712, Note_on_c, 6, 59, 68
7, 107740, Note_on_c, 6, 59, 0
7, 107840, Note_on_c, 6, 62, 77
7, 107872, Note_on_c, 6, 62, 0
7, 108032, Note_on_c, 6, 57, 46
7, 108057, Note_on_c, 6, 57, 0
7, 108096, Note_on_c, 6, 59, 66
7, 108123, Note_on_c, 6, 59, 0
7, 108224, Note_on_c, 6, 62, 76
7, 108252, Note_on_c, 6, 62, 0
7, 108416, Note_on_c, 6, 57, 47
7, 108441, Note_on_c, 6, 57, 0
7, 108480, Note_on_c, 6, 59, 62
7, 108507, Note_on_c, 6, 59, 0
7, 108608, Note_on_c, 6, 62, 66
7, 108639, Note_on_c, 6, 62, 0
7, 108799, Note_on_c, 6, 57, 54
7, 108825, Note_on_c, 6, 57, 0
7, 108864, Note_on_c, 6, 59, 60
7, 108889, Note_on_c, 6, 59, 0
7, 108992, Note_on_c, 6, 62, 80
7, 109021, Note_on_c, 6, 62, 0
7, 109184, Note_on_c, 6, 57, 50
7, 109209, Note_on_c, 6, 57, 0
7, 109248, Note_on_c, 6, 59, 72
7, 109271, Note_on_c, 6, 59, 0
7, 109374, Note_on_c, 6, 62, 73
7, 109396, Note_on_c, 6, 62, 0
7, 109568, Note_on_c, 6, 57, 46
7, 109594, Note_on_c, 6, 57, 0
7, 109632, Note_on_c, 6, 59, 52
7, 109657, Note_on_c, 6, 59, 0
7, 109760, Note_on_c, 6, 62, 78
7, 109802, Note_on_c, 6, 62, 0
7, 109951, Note_on_c, 6, 57, 55
7, 109981, Note_on_c, 6, 57, 0
7, 110016, Note_on_c, 6, 59, 65
7, 110045, Note_on_c, 6, 59, 0
7, 110146, Note_on_c, 6, 62, 82
7, 110189, Note_on_c, 6, 62, 0
7, 110335, Note_on_c, 6, 57, 58
7, 110361, Note_on_c, 6, 57, 0
7, 110400, Note_on_c, 6, 59, 70
7, 110426, Note_on_c, 6, 59, 0
7, 110528, Note_on_c, 6, 62, 81
7, 110559, Note_on_c, 6, 62, 0
7, 110721, Note_on_c, 6, 57, 51
7, 110739, Note_on_c, 6, 57, 0
7, 110784, Note_on_c, 6, 59, 67
7, 110807, Note_on_c, 6, 59, 0
7, 110911, Note_on_c, 6, 62, 81
7, 110941, Note_on_c, 6, 62, 0
7, 111104, Note_on_c, 6, 57, 60
7, 111125, Note_on_c, 6, 57, 0
7, 111167, Note_on_c, 6, 59, 65
7, 111196, Note_on_c, 6, 59, 0
7, 111297, Note_on_c, 6, 62, 78
7, 111324, Note_on_c, 6, 62, 0
7, 111488, Note_on_c, 6, 57, 49
7, 111509, Note_on_c, 6, 57, 0
7, 111553, Note_on_c, 6, 59, 54
7, 111574, Note_on_c, 6, 59, 0
7, 111680, Note_on_c, 6, 62, 82
7, 111713, Note_on_c, 6, 62, 0
7, 111872, Note_on_c, 6, 57, 52
7, 111898, Note_on_c, 6, 57, 0
7, 111936, Note_on_c, 6, 59, 65
7, 111977, Note_on_c, 6, 59, 0
7, 112064, Note_on_c, 6, 65, 72
7, 112104, Note_on_c, 6, 65, 0
7, 112255, Note_on_c, 6, 57, 51
7, 112279, Note_on_c, 6, 57, 0
7, 112320, Note_on_c, 6, 59, 68
7, 112339, Note_on_c, 6, 59, 0
7, 112448, Note_on_c, 6, 62, 77
7, 112469, Note_on_c, 6, 62, 0
7, 112639, Note_on_c, 6, 57, 51
7, 112661, Note_on_c, 6, 57, 0
7, 112703, Note_on_c, 6, 59, 69
7, 112726, Note_on_c, 6, 59, 0
7, 112832, Note_on_c, 6, 65, 73
7, 112875, Note_on_c, 6, 65, 0
7, 113023, Note_on_c, 6, 57, 49
7, 113046, Note_on_c, 6, 57, 0
7, 113088, Note_on_c, 6, 59, 71
7, 113113, Note_on_c, 6, 59, 0
7, 113216, Note_on_c, 6, 62, 82
7, 113239, Note_on_c, 6, 62, 0
7, 113407, Note_on_c, 6, 57, 52
7, 113435, Note_on_c, 6, 57, 0
7, 113472, Note_on_c, 6, 59, 70
7, 113501, Note_on_c, 6, 59, 0
7, 113600, Note_on_c, 6, 65, 76
7, 113630, Note_on_c, 6, 65, 0
7, 113791, Note_on_c, 6, 57, 56
7, 113821, Note_on_c, 6, 57, 0
7, 113856, Note_on_c, 6, 59, 55
7, 113881, Note_on_c, 6, 59, 0
7, 113983, Note_on_c, 6, 62, 80
7, 114019, Note_on_c, 6, 62, 0
7, 114176, Note_on_c, 6, 57, 51
7, 114205, Note_on_c, 6, 57, 0
7, 114240, Note_on_c, 6, 59, 66
7, 114276, Note_on_c, 6, 59, 0
7, 114369, Note_on_c, 6, 65, 79
7, 114400, Note_on_c, 6, 65, 0
7, 114560, Note_on_c, 6, 57, 46
7, 114583, Note_on_c, 6, 57, 0
7, 114624, Note_on_c, 6, 59, 52
7, 114649, Note_on_c, 6, 59, 0
7, 114752, Note_on_c, 6, 62, 82
7, 114793, Note_on_c, 6, 62, 0
7, 114944, Note_on_c, 6, 57, 70
7, 114974, Note_on_c, 6, 57, 0
7, 115008, Note_on_c, 6, 59, 71
7, 115049, Note_on_c, 6, 59, 0
7, 115136, Note_on_c, 6, 65, 82
7, 115172, Note_on_c, 6, 65, 0
7, 115328, Note_on_c, 6, 57, 59
7, 115353, Note_on_c, 6, 57, 0
7, 115392, Note_on_c, 6, 59, 69
7, 115422, Note_on_c, 6, 59, 0
7, 115520, Note_on_c, 6, 62, 82
7, 115566, Note_on_c, 6, 62, 0
7, 115712, Note_on_c, 6, 57, 64
7, 115737, Note_on_c, 6, 57, 0
7, 115776, Note_on_c, 6, 59, 65
7, 115807, Note_on_c, 6, 59, 0
7, 115904, Note_on_c, 6, 65, 70
7, 115938, Note_on_c, 6, 65, 0
7, 116095, Note_on_c, 6, 57, 57
7, 116119, Note_on_c, 6, 57, 0
7, 116159, Note_on_c, 6, 59, 55
7, 116186, Note_on_c, 6, 59, 0
7, 116289, Note_on_c, 6, 62, 80
7, 116332, Note_on_c, 6, 62, 0
7, 116481, Note_on_c, 6, 57, 62
7, 116508, Note_on_c, 6, 57, 0
7, 116544, Note_on_c, 6, 59, 66
7, 116575, Note_on_c, 6, 59, 0
7, 116673, Note_on_c, 6, 65, 82
7, 116706, Note_on_c, 6, 65, 0
7, 116864, Note_on_c, 6, 57, 48
7, 116883, Note_on_c, 6, 57, 0
7, 116927, Note_on_c, 6, 59, 67
7, 116964, Note_on_c, 6, 59, 0
7, 117055, Note_on_c, 6, 62, 82
7, 117093, Note_on_c, 6, 62, 0
7, 117248, Note_on_c, 6, 57, 60
7, 117274, Note_on_c, 6, 57, 0
7, 117313, Note_on_c, 6, 59, 68
7, 117346, Note_on_c, 6, 59, 0
7, 117439, Note_on_c, 6, 65, 82
7, 117474, Note_on_c, 6, 65, 0
7, 117632, Note_on_c, 6, 57, 48
7, 117653, Note_on_c, 6, 57, 0
7, 117696, Note_on_c, 6, 59, 67
7, 117732, Note_on_c, 6, 59, 0
7, 117824, Note_on_c, 6, 62, 82
7, 117866, Note_on_c, 6, 62, 0
7, 118015, Note_on_c, 6, 57, 59
7, 118043, Note_on_c, 6, 57, 0
7, 118080, Note_on_c, 6, 59, 68
7, 118114, Note_on_c, 6, 59, 0
7, 118208, Note_on_c, 6, 62, 82
7, 118233, Note_on_c, 6, 62, 0
7, 118400, Note_on_c, 6, 57, 46
7, 118423, Note_on_c, 6, 57, 0
7, 118465, Note_on_c, 6, 59, 65
7, 118498, Note_on_c, 6, 59, 0
7, 118592, Note_on_c, 6, 62, 82
7, 118628, Note_on_c, 6, 62, 0
7, 118783, Note_on_c, 6, 57, 47
7, 118807, Note_on_c, 6, 57, 0
7, 118849, Note_on_c, 6, 59, 65
7, 118879, Note_on_c, 6, 59, 0
7, 118976, Note_on_c, 6, 62, 82
7, 119017, Note_on_c, 6, 62, 0
7, 119170, Note_on_c, 6, 57, 46
7, 119193, Note_on_c, 6, 57, 0
7, 119231, Note_on_c, 6, 59, 65
7, 119275, Note_on_c, 6, 59, 0
7, 119360, Note_on_c, 6, 62, 82
7, 119398, Note_on_c, 6, 62, 0
7, 119552, Note_on_c, 6, 57, 51
7, 119574, Note_on_c, 6, 57, 0
7, 119615, Note_on_c, 6, 59, 67
7, 119654, Note_on_c, 6, 59, 0
7, 119744, Note_on_c, 6, 62, 82
7, 119785, Note_on_c, 6, 62, 0
7, 119935, Note_on_c, 6, 57, 46
7, 119957, Note_on_c, 6, 57, 0
7, 120000, Note_on_c, 6, 59, 68
7, 120037, Note_on_c, 6, 59, 0
7, 120128, Note_on_c, 6, 62, 82
7, 120174, Note_on_c, 6, 62, 0
7, 120320, Note_on_c, 6, 57, 46
7, 120345, Note_on_c, 6, 57, 0
7, 120384, Note_on_c, 6, 59, 59
7, 120429, Note_on_c, 6, 59, 0
7, 120512, Note_on_c, 6, 62, 82
7, 120566, Note_on_c, 6, 62, 0
7, 120704, Note_on_c, 6, 57, 49
7, 120727, Note_on_c, 6, 57, 0
7, 120768, Note_on_c, 6, 59, 60
7, 120802, Note_on_c, 6, 59, 0
7, 120896, Note_on_c, 6, 62, 82
7, 120942, Note_on_c, 6, 62, 0
7, 121089, Note_on_c, 6, 57, 53
7, 121115, Note_on_c, 6, 57, 0
7, 121152, Note_on_c, 6, 59, 71
7, 121193, Note_on_c, 6, 59, 0
7, 121280, Note_on_c, 6, 62, 82
7, 121327, Note_on_c, 6, 62, 0
7, 121471, Note_on_c, 6, 57, 48
7, 121499, Note_on_c, 6, 57, 0
7, 121536, Note_on_c, 6, 59, 66
7, 121579, Note_on_c, 6, 59, 0
7, 121663, Note_on_c, 6, 62, 82
7, 121709, Note_on_c, 6, 62, 0
7, 121856, Note_on_c, 6, 57, 48
7, 121884, Note_on_c, 6, 57, 0
7, 121920, Note_on_c, 6, 59, 72
7, 121961, Note_on_c, 6, 59, 0
7, 122048, Note_on_c, 6, 62, 82
7, 122094, Note_on_c, 6, 62, 0
7, 122239, Note_on_c, 6, 57, 49
7, 122271, Note_on_c, 6, 57, 0
7, 122304, Note_on_c, 6, 59, 73
7, 122347, Note_on_c, 6, 59, 0
7, 122432, Note_on_c, 6, 62, 82
7, 122475, Note_on_c, 6, 62, 0
7, 122623, Note_on_c, 6, 57, 69
7, 122649, Note_on_c, 6, 57, 0
7, 122688, Note_on_c, 6, 59, 71
7, 122733, Note_on_c, 6, 59, 0
7, 122815, Note_on_c, 6, 62, 82
7, 122859, Note_on_c, 6, 62, 0
7, 123008, Note_on_c, 6, 57, 46
7, 123031, Note_on_c, 6, 57, 0
7, 123072, Note_on_c, 6, 59, 64
7, 123107, Note_on_c, 6, 59, 0
7, 123199, Note_on_c, 6, 62, 82
7, 123253, Note_on_c, 6, 62, 0
7, 123392, Note_on_c, 6, 57, 49
7, 123417, Note_on_c, 6, 57, 0
7, 123455, Note_on_c, 6, 59, 67
7, 123494, Note_on_c, 6, 59, 0
7, 123584, Note_on_c, 6, 62, 82
7, 123622, Note_on_c, 6, 62, 0
7, 123776, Note_on_c, 6, 57, 46
7, 123801, Note_on_c, 6, 57, 0
7, 123839, Note_on_c, 6, 59, 52
7, 123867, Note_on_c, 6, 59, 0
7, 123968, Note_on_c, 6, 62, 82
7, 124006, Note_on_c, 6, 62, 0
7, 124160, Note_on_c, 6, 57, 52
7, 124187, Note_on_c, 6, 57, 0
7, 124224, Note_on_c, 6, 59, 66
7, 124260, Note_on_c, 6, 59, 0
7, 124352, Note_on_c, 6, 62, 82
7, 124399, Note_on_c, 6, 62, 0
7, 124544, Note_on_c, 6, 57, 47
7, 124567, Note_on_c, 6, 57, 0
7, 124608, Note_on_c, 6, 59, 68
7, 124643, Note_on_c, 6, 59, 0
7, 124735, Note_on_c, 6, 62, 82
7, 124775, Note_on_c, 6, 62, 0
7, 124927, Note_on_c, 6, 57, 55
7, 124952, Note_on_c, 6, 57, 0
7, 124991, Note_on_c, 6, 59, 72
7, 125027, Note_on_c, 6, 59, 0
7, 125121, Note_on_c, 6, 62, 82
7, 125167, Note_on_c, 6, 62, 0
7, 125312, Note_on_c, 6, 57, 46
7, 125334, Note_on_c, 6, 57, 0
7, 125376, Note_on_c, 6, 59, 68
7, 125403, Note_on_c, 6, 59, 0
7, 125504, Note_on_c, 6, 62, 82
7, 125551, Note_on_c, 6, 62, 0
7, 125696, Note_on_c, 6, 57, 54
7, 125719, Note_on_c, 6, 57, 0
7, 125760, Note_on_c, 6, 59, 63
7, 125791, Note_on_c, 6, 59, 0
7, 125888, Note_on_c, 6, 62, 82
7, 125931, Note_on_c, 6, 62, 0
7, 126081, Note_on_c, 6, 57, 50
7, 126102, Note_on_c, 6, 57, 0
7, 126144, Note_on_c, 6, 59, 74
7, 126173, Note_on_c, 6, 59, 0
7, 126272, Note_on_c, 6, 62, 82
7, 126315, Note_on_c, 6, 62, 0
7, 126464, Note_on_c, 6, 57, 64
7, 126487, Note_on_c, 6, 57, 0
7, 126527, Note_on_c, 6, 59, 68
7, 126565, Note_on_c, 6, 59, 0
7, 126656, Note_on_c, 6, 62, 82
7, 126697, Note_on_c, 6, 62, 0
7, 126848, Note_on_c, 6, 57, 65
7, 126867, Note_on_c, 6, 57, 0
7, 126912, Note_on_c, 6, 59, 72
7, 126944, Note_on_c, 6, 59, 0
7, 127040, Note_on_c, 6, 62, 82
7, 127090, Note_on_c, 6, 62, 0
7, 127232, Note_on_c, 6, 57, 65
7, 127260, Note_on_c, 6, 57, 0
7, 127296, Note_on_c, 6, 59, 69
7, 127333, Note_on_c, 6, 59, 0
7, 127424, Note_on_c, 6, 62, 82
7, 127473, Note_on_c, 6, 62, 0
7, 127616, Note_on_c, 6, 57, 70
7, 127641, Note_on_c, 6, 57, 0
7, 127679, Note_on_c, 6, 59, 69
7, 127716, Note_on_c, 6, 59, 0
7, 127809, Note_on_c, 6, 62, 82
7, 127849, Note_on_c, 6, 62, 0
7, 128000, Note_on_c, 6, 57, 53
7, 128025, Note_on_c, 6, 57, 0
7, 128064, Note_on_c, 6, 59, 67
7, 128097, Note_on_c, 6, 59, 0
7, 128192, Note_on_c, 6, 62, 82
7, 128239, Note_on_c, 6, 62, 0
7, 128385, Note_on_c, 6, 57, 56
7, 128405, Note_on_c, 6, 57, 0
7, 128448, Note_on_c, 6, 59, 71
7, 128469, Note_on_c, 6, 59, 0
7, 128576, Note_on_c, 6, 62, 82
7, 128623, Note_on_c, 6, 62, 0
7, 128768, Note_on_c, 6, 57, 70
7, 128797, Note_on_c, 6, 57, 0
7, 128831, Note_on_c, 6, 59, 64
7, 128865, Note_on_c, 6, 59, 0
7, 128960, Note_on_c, 6, 62, 82
7, 129001, Note_on_c, 6, 62, 0
7, 129152, Note_on_c, 6, 57, 48
7, 129169, Note_on_c, 6, 57, 0
7, 129216, Note_on_c, 6, 59, 54
7, 129243, Note_on_c, 6, 59, 0
7, 129343, Note_on_c, 6, 62, 82
7, 129396, Note_on_c, 6, 62, 0
7, 129536, Note_on_c, 6, 57, 56
7, 129553, Note_on_c, 6, 57, 0
7, 129599, Note_on_c, 6, 59, 69
7, 129627, Note_on_c, 6, 59, 0
7, 129728, Note_on_c, 6, 62, 82
7, 129766, Note_on_c, 6, 62, 0
7, 129920, Note_on_c, 6, 57, 55
7, 129937, Note_on_c, 6, 57, 0
7, 129983, Note_on_c, 6, 59, 76
7, 130021, Note_on_c, 6, 59, 0
7, 130112, Note_on_c, 6, 62, 82
7, 130162, Note_on_c, 6, 62, 0
7, 130304, Note_on_c, 6, 57, 66
7, 130329, Note_on_c, 6, 57, 0
7, 130371, Note_on_c, 6, 59, 74
7, 130407, Note_on_c, 6, 59, 0
7, 130495, Note_on_c, 6, 62, 82
7, 130545, Note_on_c, 6, 62, 0
7, 133635, Note_on_c, 6, 62, 66
7, 133635, Note_on_c, 6, 66, 66
7, 133635, Note_on_c, 6, 69, 66
7, 134400, Note_on_c, 6, 69, 0
7, 134400, Note_on_c, 6, 66, 0
7, 134400, Note_on_c, 6, 62, 0
7, 134400, End_track
8, 0, Start_track
8, 0, MIDI_port, 0
8, 0, Title_t, "Drums               "
8, 768, Note_on_c, 9, 69, 47
8, 776, Note_on_c, 9, 69, 0
8, 960, Note_on_c, 9, 69, 47
8, 968, Note_on_c, 9, 69, 0
8, 1151, Note_on_c, 9, 38, 96
8, 1159, Note_on_c, 9, 38, 0
8, 1215, Note_on_c, 9, 38, 105
8, 1223, Note_on_c, 9, 38, 0
8, 1279, Note_on_c, 9, 38, 105
8, 1287, Note_on_c, 9, 38, 0
8, 1343, Note_on_c, 9, 38, 105
8, 1351, Note_on_c, 9, 38, 0
8, 1471, Note_on_c, 9, 38, 105
8, 1479, Note_on_c, 9, 38, 0
8, 1535, Note_on_c, 9, 36, 105
8, 1535, Note_on_c, 9, 38, 80
8, 1535, Note_on_c, 9, 69, 70
8, 1543, Note_on_c, 9, 69, 0
8, 1543, Note_on_c, 9, 38, 0
8, 1543, Note_on_c, 9, 36, 0
8, 1663, Note_on_c, 9, 38, 64
8, 1663, Note_on_c, 9, 69, 54
8, 1671, Note_on_c, 9, 69, 0
8, 1671, Note_on_c, 9, 38, 0
8, 1727, Note_on_c, 9, 38, 80
8, 1727, Note_on_c, 9, 39, 105
8, 1727, Note_on_c, 9, 69, 70
8, 1735, Note_on_c, 9, 69, 0
8, 1735, Note_on_c, 9, 39, 0
8, 1735, Note_on_c, 9, 38, 0
8, 1855, Note_on_c, 9, 38, 64
8, 1855, Note_on_c, 9, 69, 54
8, 1863, Note_on_c, 9, 69, 0
8, 1863, Note_on_c, 9, 38, 0
8, 1919, Note_on_c, 9, 38, 105
8, 1919, Note_on_c, 9, 69, 70
8, 1927, Note_on_c, 9, 69, 0
8, 1927, Note_on_c, 9, 38, 0
8, 2047, Note_on_c, 9, 38, 64
8, 2047, Note_on_c, 9, 69, 54
8, 2055, Note_on_c, 9, 69, 0
8, 2055, Note_on_c, 9, 38, 0
8, 2111, Note_on_c, 9, 38, 80
8, 2111, Note_on_c, 9, 39, 105
8, 2111, Note_on_c, 9, 69, 70
8, 2119, Note_on_c, 9, 69, 0
8, 2119, Note_on_c, 9, 39, 0
8, 2119, Note_on_c, 9, 38, 0
8, 2239, Note_on_c, 9, 38, 64
8, 2239, Note_on_c, 9, 69, 54
8, 2247, Note_on_c, 9, 69, 0
8, 2247, Note_on_c, 9, 38, 0
8, 2303, Note_on_c, 9, 36, 105
8, 2303, Note_on_c, 9, 38, 80
8, 2303, Note_on_c, 9, 69, 70
8, 2311, Note_on_c, 9, 69, 0
8, 2311, Note_on_c, 9, 38, 0
8, 2311, Note_on_c, 9, 36, 0
8, 2431, Note_on_c, 9, 38, 64
8, 2431, Note_on_c, 9, 69, 54
8, 2439, Note_on_c, 9, 69, 0
8, 2439, Note_on_c, 9, 38, 0
8, 2495, Note_on_c, 9, 38, 80
8, 2495, Note_on_c, 9, 39, 105
8, 2495, Note_on_c, 9, 69, 70
8, 2503, Note_on_c, 9, 69, 0
8, 2503, Note_on_c, 9, 39, 0
8, 2503, Note_on_c, 9, 38, 0
8, 2623, Note_on_c, 9, 38, 64
8, 2623, Note_on_c, 9, 69, 54
8, 2631, Note_on_c, 9, 69, 0
8, 2631, Note_on_c, 9, 38, 0
8, 2687, Note_on_c, 9, 38, 105
8, 2687, Note_on_c, 9, 69, 70
8, 2695, Note_on_c, 9, 69, 0
8, 2695, Note_on_c, 9, 38, 0
8, 2815, Note_on_c, 9, 38, 64
8, 2815, Note_on_c, 9, 69, 54
8, 2823, Note_on_c, 9, 69, 0
8, 2823, Note_on_c, 9, 38, 0
8, 2879, Note_on_c, 9, 38, 80
8, 2879, Note_on_c, 9, 39, 105
8, 2879, Note_on_c, 9, 69, 70
8, 2887, Note_on_c, 9, 69, 0
8, 2887, Note_on_c, 9, 39, 0
8, 2887, Note_on_c, 9, 38, 0
8, 3007, Note_on_c, 9, 38, 64
8, 3007, Note_on_c, 9, 69, 54
8, 3015, Note_on_c, 9, 69, 0
8, 3015, Note_on_c, 9, 38, 0
8, 3071, Note_on_c, 9, 36, 105
8, 3071, Note_on_c, 9, 38, 80
8, 3071, Note_on_c, 9, 69, 70
8, 3079, Note_on_c, 9, 69, 0
8, 3079, Note_on_c, 9, 38, 0
8, 3079, Note_on_c, 9, 36, 0
8, 3199, Note_on_c, 9, 38, 64
8, 3199, Note_on_c, 9, 69, 54
8, 3207, Note_on_c, 9, 69, 0
8, 3207, Note_on_c, 9, 38, 0
8, 3263, Note_on_c, 9, 38, 80
8, 3263, Note_on_c, 9, 39, 105
8, 3263, Note_on_c, 9, 69, 70
8, 3271, Note_on_c, 9, 69, 0
8, 3271, Note_on_c, 9, 39, 0
8, 3271, Note_on_c, 9, 38, 0
8, 3391, Note_on_c, 9, 38, 64
8, 3391, Note_on_c, 9, 69, 54
8, 3399, Note_on_c, 9, 69, 0
8, 3399, Note_on_c, 9, 38, 0
8, 3455, Note_on_c, 9, 38, 105
8, 3455, Note_on_c, 9, 69, 70
8, 3463, Note_on_c, 9, 69, 0
8, 3463, Note_on_c, 9, 38, 0
8, 3583, Note_on_c, 9, 38, 64
8, 3583, Note_on_c, 9, 69, 54
8, 3591, Note_on_c, 9, 69, 0
8, 3591, Note_on_c, 9, 38, 0
8, 3647, Note_on_c, 9, 38, 80
8, 3647, Note_on_c, 9, 39, 105
8, 3647, Note_on_c, 9, 69, 70
8, 3655, Note_on_c, 9, 69, 0
8, 3655, Note_on_c, 9, 39, 0
8, 3655, Note_on_c, 9, 38, 0
8, 3775, Note_on_c, 9, 38, 64
8, 3775, Note_on_c, 9, 69, 54
8, 3783, Note_on_c, 9, 69, 0
8, 3783, Note_on_c, 9, 38, 0
8, 3839, Note_on_c, 9, 36, 105
8, 3839, Note_on_c, 9, 38, 80
8, 3839, Note_on_c, 9, 69, 70
8, 3847, Note_on_c, 9, 69, 0
8, 3847, Note_on_c, 9, 38, 0
8, 3847, Note_on_c, 9, 36, 0
8, 3967, Note_on_c, 9, 38, 64
8, 3967, Note_on_c, 9, 69, 54
8, 3975, Note_on_c, 9, 69, 0
8, 3975, Note_on_c, 9, 38, 0
8, 4031, Note_on_c, 9, 38, 80
8, 4031, Note_on_c, 9, 39, 105
8, 4031, Note_on_c, 9, 69, 70
8, 4039, Note_on_c, 9, 69, 0
8, 4039, Note_on_c, 9, 39, 0
8, 4039, Note_on_c, 9, 38, 0
8, 4159, Note_on_c, 9, 38, 64
8, 4159, Note_on_c, 9, 69, 54
8, 4167, Note_on_c, 9, 69, 0
8, 4167, Note_on_c, 9, 38, 0
8, 4223, Note_on_c, 9, 38, 105
8, 4223, Note_on_c, 9, 69, 70
8, 4231, Note_on_c, 9, 69, 0
8, 4231, Note_on_c, 9, 38, 0
8, 4351, Note_on_c, 9, 38, 64
8, 4351, Note_on_c, 9, 69, 54
8, 4359, Note_on_c, 9, 69, 0
8, 4359, Note_on_c, 9, 38, 0
8, 4415, Note_on_c, 9, 38, 80
8, 4415, Note_on_c, 9, 39, 105
8, 4415, Note_on_c, 9, 69, 70
8, 4423, Note_on_c, 9, 69, 0
8, 4423, Note_on_c, 9, 39, 0
8, 4423, Note_on_c, 9, 38, 0
8, 4543, Note_on_c, 9, 38, 64
8, 4543, Note_on_c, 9, 69, 54
8, 4551, Note_on_c, 9, 69, 0
8, 4551, Note_on_c, 9, 38, 0
8, 4607, Note_on_c, 9, 36, 105
8, 4607, Note_on_c, 9, 38, 80
8, 4607, Note_on_c, 9, 69, 70
8, 4615, Note_on_c, 9, 69, 0
8, 4615, Note_on_c, 9, 38, 0
8, 4615, Note_on_c, 9, 36, 0
8, 4735, Note_on_c, 9, 38, 64
8, 4735, Note_on_c, 9, 69, 54
8, 4743, Note_on_c, 9, 69, 0
8, 4743, Note_on_c, 9, 38, 0
8, 4799, Note_on_c, 9, 38, 80
8, 4799, Note_on_c, 9, 39, 105
8, 4799, Note_on_c, 9, 69, 70
8, 4807, Note_on_c, 9, 69, 0
8, 4807, Note_on_c, 9, 39, 0
8, 4807, Note_on_c, 9, 38, 0
8, 4927, Note_on_c, 9, 38, 64
8, 4927, Note_on_c, 9, 69, 54
8, 4935, Note_on_c, 9, 69, 0
8, 4935, Note_on_c, 9, 38, 0
8, 4991, Note_on_c, 9, 38, 105
8, 4991, Note_on_c, 9, 69, 70
8, 4999, Note_on_c, 9, 69, 0
8, 4999, Note_on_c, 9, 38, 0
8, 5119, Note_on_c, 9, 38, 64
8, 5119, Note_on_c, 9, 69, 54
8, 5127, Note_on_c, 9, 69, 0
8, 5127, Note_on_c, 9, 38, 0
8, 5183, Note_on_c, 9, 38, 80
8, 5183, Note_on_c, 9, 39, 105
8, 5183, Note_on_c, 9, 69, 70
8, 5191, Note_on_c, 9, 69, 0
8, 5191, Note_on_c, 9, 39, 0
8, 5191, Note_on_c, 9, 38, 0
8, 5311, Note_on_c, 9, 38, 64
8, 5311, Note_on_c, 9, 69, 54
8, 5319, Note_on_c, 9, 69, 0
8, 5319, Note_on_c, 9, 38, 0
8, 5375, Note_on_c, 9, 36, 105
8, 5375, Note_on_c, 9, 38, 80
8, 5375, Note_on_c, 9, 69, 70
8, 5383, Note_on_c, 9, 69, 0
8, 5383, Note_on_c, 9, 38, 0
8, 5383, Note_on_c, 9, 36, 0
8, 5503, Note_on_c, 9, 38, 64
8, 5503, Note_on_c, 9, 69, 54
8, 5511, Note_on_c, 9, 69, 0
8, 5511, Note_on_c, 9, 38, 0
8, 5567, Note_on_c, 9, 38, 80
8, 5567, Note_on_c, 9, 39, 105
8, 5567, Note_on_c, 9, 69, 70
8, 5575, Note_on_c, 9, 69, 0
8, 5575, Note_on_c, 9, 39, 0
8, 5575, Note_on_c, 9, 38, 0
8, 5695, Note_on_c, 9, 38, 64
8, 5695, Note_on_c, 9, 69, 54
8, 5703, Note_on_c, 9, 69, 0
8, 5703, Note_on_c, 9, 38, 0
8, 5759, Note_on_c, 9, 38, 105
8, 5759, Note_on_c, 9, 69, 70
8, 5767, Note_on_c, 9, 69, 0
8, 5767, Note_on_c, 9, 38, 0
8, 5887, Note_on_c, 9, 38, 64
8, 5887, Note_on_c, 9, 69, 54
8, 5895, Note_on_c, 9, 69, 0
8, 5895, Note_on_c, 9, 38, 0
8, 5951, Note_on_c, 9, 38, 80
8, 5951, Note_on_c, 9, 39, 105
8, 5951, Note_on_c, 9, 69, 70
8, 5959, Note_on_c, 9, 69, 0
8, 5959, Note_on_c, 9, 39, 0
8, 5959, Note_on_c, 9, 38, 0
8, 6079, Note_on_c, 9, 38, 64
8, 6079, Note_on_c, 9, 69, 54
8, 6087, Note_on_c, 9, 69, 0
8, 6087, Note_on_c, 9, 38, 0
8, 6143, Note_on_c, 9, 36, 105
8, 6143, Note_on_c, 9, 38, 80
8, 6143, Note_on_c, 9, 69, 70
8, 6151, Note_on_c, 9, 69, 0
8, 6151, Note_on_c, 9, 38, 0
8, 6151, Note_on_c, 9, 36, 0
8, 6271, Note_on_c, 9, 38, 64
8, 6271, Note_on_c, 9, 69, 54
8, 6279, Note_on_c, 9, 69, 0
8, 6279, Note_on_c, 9, 38, 0
8, 6335, Note_on_c, 9, 38, 80
8, 6335, Note_on_c, 9, 39, 105
8, 6335, Note_on_c, 9, 69, 70
8, 6343, Note_on_c, 9, 69, 0
8, 6343, Note_on_c, 9, 39, 0
8, 6343, Note_on_c, 9, 38, 0
8, 6463, Note_on_c, 9, 38, 64
8, 6463, Note_on_c, 9, 69, 54
8, 6471, Note_on_c, 9, 69, 0
8, 6471, Note_on_c, 9, 38, 0
8, 6527, Note_on_c, 9, 38, 105
8, 6527, Note_on_c, 9, 69, 70
8, 6535, Note_on_c, 9, 69, 0
8, 6535, Note_on_c, 9, 38, 0
8, 6655, Note_on_c, 9, 38, 64
8, 6655, Note_on_c, 9, 69, 54
8, 6663, Note_on_c, 9, 69, 0
8, 6663, Note_on_c, 9, 38, 0
8, 6719, Note_on_c, 9, 38, 80
8, 6719, Note_on_c, 9, 39, 105
8, 6719, Note_on_c, 9, 69, 70
8, 6727, Note_on_c, 9, 69, 0
8, 6727, Note_on_c, 9, 39, 0
8, 6727, Note_on_c, 9, 38, 0
8, 6847, Note_on_c, 9, 38, 64
8, 6847, Note_on_c, 9, 69, 54
8, 6855, Note_on_c, 9, 69, 0
8, 6855, Note_on_c, 9, 38, 0
8, 6911, Note_on_c, 9, 36, 105
8, 6911, Note_on_c, 9, 38, 80
8, 6911, Note_on_c, 9, 69, 70
8, 6919, Note_on_c, 9, 69, 0
8, 6919, Note_on_c, 9, 38, 0
8, 6919, Note_on_c, 9, 36, 0
8, 7039, Note_on_c, 9, 38, 64
8, 7039, Note_on_c, 9, 69, 54
8, 7047, Note_on_c, 9, 69, 0
8, 7047, Note_on_c, 9, 38, 0
8, 7103, Note_on_c, 9, 38, 80
8, 7103, Note_on_c, 9, 39, 105
8, 7103, Note_on_c, 9, 69, 70
8, 7111, Note_on_c, 9, 69, 0
8, 7111, Note_on_c, 9, 39, 0
8, 7111, Note_on_c, 9, 38, 0
8, 7231, Note_on_c, 9, 38, 64
8, 7231, Note_on_c, 9, 69, 54
8, 7239, Note_on_c, 9, 69, 0
8, 7239, Note_on_c, 9, 38, 0
8, 7295, Note_on_c, 9, 38, 105
8, 7295, Note_on_c, 9, 69, 70
8, 7303, Note_on_c, 9, 69, 0
8, 7303, Note_on_c, 9, 38, 0
8, 7359, Note_on_c, 9, 38, 105
8, 7367, Note_on_c, 9, 38, 0
8, 7423, Note_on_c, 9, 38, 105
8, 7423, Note_on_c, 9, 69, 54
8, 7431, Note_on_c, 9, 69, 0
8, 7431, Note_on_c, 9, 38, 0
8, 7487, Note_on_c, 9, 38, 105
8, 7487, Note_on_c, 9, 39, 105
8, 7487, Note_on_c, 9, 69, 70
8, 7495, Note_on_c, 9, 69, 0
8, 7495, Note_on_c, 9, 39, 0
8, 7495, Note_on_c, 9, 38, 0
8, 7615, Note_on_c, 9, 38, 105
8, 7615, Note_on_c, 9, 69, 54
8, 7623, Note_on_c, 9, 69, 0
8, 7623, Note_on_c, 9, 38, 0
8, 7679, Note_on_c, 9, 36, 105
8, 7679, Note_on_c, 9, 38, 80
8, 7679, Note_on_c, 9, 49, 108
8, 7679, Note_on_c, 9, 69, 70
8, 7687, Note_on_c, 9, 69, 0
8, 7687, Note_on_c, 9, 36, 0
8, 7687, Note_on_c, 9, 38, 0
8, 7687, Note_on_c, 9, 49, 0
8, 7807, Note_on_c, 9, 38, 64
8, 7807, Note_on_c, 9, 69, 54
8, 7815, Note_on_c, 9, 69, 0
8, 7815, Note_on_c, 9, 38, 0
8, 7871, Note_on_c, 9, 38, 80
8, 7871, Note_on_c, 9, 39, 105
8, 7871, Note_on_c, 9, 69, 70
8, 7879, Note_on_c, 9, 69, 0
8, 7879, Note_on_c, 9, 39, 0
8, 7879, Note_on_c, 9, 38, 0
8, 7999, Note_on_c, 9, 38, 64
8, 7999, Note_on_c, 9, 69, 54
8, 8007, Note_on_c, 9, 69, 0
8, 8007, Note_on_c, 9, 38, 0
8, 8063, Note_on_c, 9, 38, 105
8, 8063, Note_on_c, 9, 69, 70
8, 8071, Note_on_c, 9, 69, 0
8, 8071, Note_on_c, 9, 38, 0
8, 8191, Note_on_c, 9, 38, 64
8, 8191, Note_on_c, 9, 69, 54
8, 8199, Note_on_c, 9, 69, 0
8, 8199, Note_on_c, 9, 38, 0
8, 8255, Note_on_c, 9, 38, 80
8, 8255, Note_on_c, 9, 39, 105
8, 8255, Note_on_c, 9, 69, 70
8, 8263, Note_on_c, 9, 69, 0
8, 8263, Note_on_c, 9, 39, 0
8, 8263, Note_on_c, 9, 38, 0
8, 8383, Note_on_c, 9, 38, 64
8, 8383, Note_on_c, 9, 69, 54
8, 8391, Note_on_c, 9, 69, 0
8, 8391, Note_on_c, 9, 38, 0
8, 8447, Note_on_c, 9, 36, 105
8, 8447, Note_on_c, 9, 38, 80
8, 8447, Note_on_c, 9, 69, 70
8, 8455, Note_on_c, 9, 69, 0
8, 8455, Note_on_c, 9, 38, 0
8, 8455, Note_on_c, 9, 36, 0
8, 8575, Note_on_c, 9, 38, 64
8, 8575, Note_on_c, 9, 69, 54
8, 8583, Note_on_c, 9, 69, 0
8, 8583, Note_on_c, 9, 38, 0
8, 8639, Note_on_c, 9, 38, 80
8, 8639, Note_on_c, 9, 39, 105
8, 8639, Note_on_c, 9, 69, 70
8, 8647, Note_on_c, 9, 69, 0
8, 8647, Note_on_c, 9, 39, 0
8, 8647, Note_on_c, 9, 38, 0
8, 8766, Note_on_c, 9, 38, 64
8, 8766, Note_on_c, 9, 69, 54
8, 8774, Note_on_c, 9, 69, 0
8, 8774, Note_on_c, 9, 38, 0
8, 8831, Note_on_c, 9, 38, 105
8, 8831, Note_on_c, 9, 69, 70
8, 8839, Note_on_c, 9, 69, 0
8, 8839, Note_on_c, 9, 38, 0
8, 8959, Note_on_c, 9, 38, 64
8, 8959, Note_on_c, 9, 69, 54
8, 8967, Note_on_c, 9, 69, 0
8, 8967, Note_on_c, 9, 38, 0
8, 9023, Note_on_c, 9, 38, 80
8, 9023, Note_on_c, 9, 39, 105
8, 9023, Note_on_c, 9, 69, 70
8, 9031, Note_on_c, 9, 69, 0
8, 9031, Note_on_c, 9, 39, 0
8, 9031, Note_on_c, 9, 38, 0
8, 9151, Note_on_c, 9, 38, 64
8, 9151, Note_on_c, 9, 69, 54
8, 9159, Note_on_c, 9, 69, 0
8, 9159, Note_on_c, 9, 38, 0
8, 9215, Note_on_c, 9, 36, 105
8, 9215, Note_on_c, 9, 38, 80
8, 9215, Note_on_c, 9, 69, 70
8, 9223, Note_on_c, 9, 69, 0
8, 9223, Note_on_c, 9, 38, 0
8, 9223, Note_on_c, 9, 36, 0
8, 9343, Note_on_c, 9, 38, 64
8, 9343, Note_on_c, 9, 69, 54
8, 9351, Note_on_c, 9, 69, 0
8, 9351, Note_on_c, 9, 38, 0
8, 9407, Note_on_c, 9, 38, 80
8, 9407, Note_on_c, 9, 39, 105
8, 9407, Note_on_c, 9, 69, 70
8, 9415, Note_on_c, 9, 69, 0
8, 9415, Note_on_c, 9, 39, 0
8, 9415, Note_on_c, 9, 38, 0
8, 9534, Note_on_c, 9, 38, 64
8, 9534, Note_on_c, 9, 69, 54
8, 9542, Note_on_c, 9, 69, 0
8, 9542, Note_on_c, 9, 38, 0
8, 9599, Note_on_c, 9, 38, 105
8, 9599, Note_on_c, 9, 69, 70
8, 9607, Note_on_c, 9, 69, 0
8, 9607, Note_on_c, 9, 38, 0
8, 9727, Note_on_c, 9, 38, 64
8, 9727, Note_on_c, 9, 69, 54
8, 9735, Note_on_c, 9, 69, 0
8, 9735, Note_on_c, 9, 38, 0
8, 9791, Note_on_c, 9, 38, 80
8, 9791, Note_on_c, 9, 39, 105
8, 9791, Note_on_c, 9, 69, 70
8, 9799, Note_on_c, 9, 69, 0
8, 9799, Note_on_c, 9, 39, 0
8, 9799, Note_on_c, 9, 38, 0
8, 9919, Note_on_c, 9, 38, 64
8, 9919, Note_on_c, 9, 69, 54
8, 9927, Note_on_c, 9, 69, 0
8, 9927, Note_on_c, 9, 38, 0
8, 9983, Note_on_c, 9, 36, 105
8, 9983, Note_on_c, 9, 38, 80
8, 9983, Note_on_c, 9, 69, 70
8, 9991, Note_on_c, 9, 69, 0
8, 9991, Note_on_c, 9, 38, 0
8, 9991, Note_on_c, 9, 36, 0
8, 10111, Note_on_c, 9, 38, 64
8, 10111, Note_on_c, 9, 69, 54
8, 10119, Note_on_c, 9, 69, 0
8, 10119, Note_on_c, 9, 38, 0
8, 10175, Note_on_c, 9, 38, 80
8, 10175, Note_on_c, 9, 39, 105
8, 10175, Note_on_c, 9, 69, 70
8, 10183, Note_on_c, 9, 69, 0
8, 10183, Note_on_c, 9, 39, 0
8, 10183, Note_on_c, 9, 38, 0
8, 10303, Note_on_c, 9, 38, 64
8, 10303, Note_on_c, 9, 69, 54
8, 10311, Note_on_c, 9, 69, 0
8, 10311, Note_on_c, 9, 38, 0
8, 10367, Note_on_c, 9, 38, 105
8, 10367, Note_on_c, 9, 69, 70
8, 10375, Note_on_c, 9, 69, 0
8, 10375, Note_on_c, 9, 38, 0
8, 10495, Note_on_c, 9, 38, 64
8, 10495, Note_on_c, 9, 69, 54
8, 10503, Note_on_c, 9, 69, 0
8, 10503, Note_on_c, 9, 38, 0
8, 10559, Note_on_c, 9, 38, 80
8, 10559, Note_on_c, 9, 39, 105
8, 10559, Note_on_c, 9, 69, 70
8, 10567, Note_on_c, 9, 69, 0
8, 10567, Note_on_c, 9, 39, 0
8, 10567, Note_on_c, 9, 38, 0
8, 10687, Note_on_c, 9, 38, 64
8, 10687, Note_on_c, 9, 69, 54
8, 10695, Note_on_c, 9, 69, 0
8, 10695, Note_on_c, 9, 38, 0
8, 10751, Note_on_c, 9, 36, 105
8, 10751, Note_on_c, 9, 38, 80
8, 10751, Note_on_c, 9, 69, 70
8, 10759, Note_on_c, 9, 69, 0
8, 10759, Note_on_c, 9, 38, 0
8, 10759, Note_on_c, 9, 36, 0
8, 10879, Note_on_c, 9, 38, 64
8, 10879, Note_on_c, 9, 69, 54
8, 10887, Note_on_c, 9, 69, 0
8, 10887, Note_on_c, 9, 38, 0
8, 10943, Note_on_c, 9, 38, 80
8, 10943, Note_on_c, 9, 39, 105
8, 10943, Note_on_c, 9, 69, 70
8, 10951, Note_on_c, 9, 69, 0
8, 10951, Note_on_c, 9, 39, 0
8, 10951, Note_on_c, 9, 38, 0
8, 11071, Note_on_c, 9, 38, 64
8, 11071, Note_on_c, 9, 69, 54
8, 11079, Note_on_c, 9, 69, 0
8, 11079, Note_on_c, 9, 38, 0
8, 11135, Note_on_c, 9, 38, 105
8, 11135, Note_on_c, 9, 69, 70
8, 11143, Note_on_c, 9, 69, 0
8, 11143, Note_on_c, 9, 38, 0
8, 11263, Note_on_c, 9, 38, 64
8, 11263, Note_on_c, 9, 69, 54
8, 11271, Note_on_c, 9, 69, 0
8, 11271, Note_on_c, 9, 38, 0
8, 11326, Note_on_c, 9, 38, 80
8, 11327, Note_on_c, 9, 39, 105
8, 11327, Note_on_c, 9, 69, 70
8, 11334, Note_on_c, 9, 38, 0
8, 11335, Note_on_c, 9, 69, 0
8, 11335, Note_on_c, 9, 39, 0
8, 11455, Note_on_c, 9, 38, 64
8, 11455, Note_on_c, 9, 69, 54
8, 11463, Note_on_c, 9, 69, 0
8, 11463, Note_on_c, 9, 38, 0
8, 11519, Note_on_c, 9, 36, 105
8, 11519, Note_on_c, 9, 38, 80
8, 11519, Note_on_c, 9, 69, 70
8, 11527, Note_on_c, 9, 69, 0
8, 11527, Note_on_c, 9, 38, 0
8, 11527, Note_on_c, 9, 36, 0
8, 11647, Note_on_c, 9, 38, 64
8, 11647, Note_on_c, 9, 69, 54
8, 11655, Note_on_c, 9, 69, 0
8, 11655, Note_on_c, 9, 38, 0
8, 11711, Note_on_c, 9, 38, 80
8, 11711, Note_on_c, 9, 39, 105
8, 11711, Note_on_c, 9, 69, 70
8, 11719, Note_on_c, 9, 69, 0
8, 11719, Note_on_c, 9, 39, 0
8, 11719, Note_on_c, 9, 38, 0
8, 11839, Note_on_c, 9, 38, 64
8, 11839, Note_on_c, 9, 69, 54
8, 11847, Note_on_c, 9, 69, 0
8, 11847, Note_on_c, 9, 38, 0
8, 11903, Note_on_c, 9, 38, 105
8, 11903, Note_on_c, 9, 69, 70
8, 11911, Note_on_c, 9, 69, 0
8, 11911, Note_on_c, 9, 38, 0
8, 12031, Note_on_c, 9, 38, 64
8, 12031, Note_on_c, 9, 69, 54
8, 12039, Note_on_c, 9, 69, 0
8, 12039, Note_on_c, 9, 38, 0
8, 12095, Note_on_c, 9, 38, 80
8, 12095, Note_on_c, 9, 39, 105
8, 12095, Note_on_c, 9, 69, 70
8, 12103, Note_on_c, 9, 69, 0
8, 12103, Note_on_c, 9, 39, 0
8, 12103, Note_on_c, 9, 38, 0
8, 12223, Note_on_c, 9, 38, 64
8, 12223, Note_on_c, 9, 69, 54
8, 12231, Note_on_c, 9, 69, 0
8, 12231, Note_on_c, 9, 38, 0
8, 12287, Note_on_c, 9, 36, 105
8, 12287, Note_on_c, 9, 38, 80
8, 12287, Note_on_c, 9, 69, 70
8, 12295, Note_on_c, 9, 69, 0
8, 12295, Note_on_c, 9, 38, 0
8, 12295, Note_on_c, 9, 36, 0
8, 12415, Note_on_c, 9, 38, 64
8, 12415, Note_on_c, 9, 69, 54
8, 12423, Note_on_c, 9, 69, 0
8, 12423, Note_on_c, 9, 38, 0
8, 12479, Note_on_c, 9, 38, 80
8, 12479, Note_on_c, 9, 39, 105
8, 12479, Note_on_c, 9, 69, 70
8, 12487, Note_on_c, 9, 69, 0
8, 12487, Note_on_c, 9, 39, 0
8, 12487, Note_on_c, 9, 38, 0
8, 12607, Note_on_c, 9, 38, 64
8, 12607, Note_on_c, 9, 69, 54
8, 12615, Note_on_c, 9, 69, 0
8, 12615, Note_on_c, 9, 38, 0
8, 12671, Note_on_c, 9, 38, 105
8, 12671, Note_on_c, 9, 69, 70
8, 12679, Note_on_c, 9, 69, 0
8, 12679, Note_on_c, 9, 38, 0
8, 12799, Note_on_c, 9, 38, 64
8, 12799, Note_on_c, 9, 69, 54
8, 12807, Note_on_c, 9, 69, 0
8, 12807, Note_on_c, 9, 38, 0
8, 12863, Note_on_c, 9, 38, 80
8, 12863, Note_on_c, 9, 39, 105
8, 12863, Note_on_c, 9, 69, 70
8, 12871, Note_on_c, 9, 69, 0
8, 12871, Note_on_c, 9, 39, 0
8, 12871, Note_on_c, 9, 38, 0
8, 12991, Note_on_c, 9, 38, 64
8, 12991, Note_on_c, 9, 69, 54
8, 12999, Note_on_c, 9, 69, 0
8, 12999, Note_on_c, 9, 38, 0
8, 13055, Note_on_c, 9, 36, 105
8, 13055, Note_on_c, 9, 38, 80
8, 13055, Note_on_c, 9, 69, 70
8, 13063, Note_on_c, 9, 69, 0
8, 13063, Note_on_c, 9, 38, 0
8, 13063, Note_on_c, 9, 36, 0
8, 13183, Note_on_c, 9, 38, 64
8, 13183, Note_on_c, 9, 69, 54
8, 13191, Note_on_c, 9, 69, 0
8, 13191, Note_on_c, 9, 38, 0
8, 13247, Note_on_c, 9, 38, 105
8, 13247, Note_on_c, 9, 39, 105
8, 13247, Note_on_c, 9, 69, 70
8, 13255, Note_on_c, 9, 69, 0
8, 13255, Note_on_c, 9, 39, 0
8, 13255, Note_on_c, 9, 38, 0
8, 13375, Note_on_c, 9, 38, 64
8, 13375, Note_on_c, 9, 69, 54
8, 13383, Note_on_c, 9, 69, 0
8, 13383, Note_on_c, 9, 38, 0
8, 13439, Note_on_c, 9, 38, 96
8, 13439, Note_on_c, 9, 69, 70
8, 13447, Note_on_c, 9, 69, 0
8, 13447, Note_on_c, 9, 38, 0
8, 13503, Note_on_c, 9, 38, 98
8, 13511, Note_on_c, 9, 38, 0
8, 13566, Note_on_c, 9, 38, 99
8, 13566, Note_on_c, 9, 69, 99
8, 13574, Note_on_c, 9, 69, 0
8, 13574, Note_on_c, 9, 38, 0
8, 13631, Note_on_c, 9, 38, 105
8, 13631, Note_on_c, 9, 39, 105
8, 13631, Note_on_c, 9, 69, 70
8, 13639, Note_on_c, 9, 69, 0
8, 13639, Note_on_c, 9, 39, 0
8, 13639, Note_on_c, 9, 38, 0
8, 13759, Note_on_c, 9, 38, 112
8, 13759, Note_on_c, 9, 69, 54
8, 13767, Note_on_c, 9, 69, 0
8, 13767, Note_on_c, 9, 38, 0
8, 13823, Note_on_c, 9, 36, 105
8, 13823, Note_on_c, 9, 38, 80
8, 13823, Note_on_c, 9, 49, 108
8, 13823, Note_on_c, 9, 69, 70
8, 13831, Note_on_c, 9, 69, 0
8, 13831, Note_on_c, 9, 36, 0
8, 13831, Note_on_c, 9, 38, 0
8, 13831, Note_on_c, 9, 49, 0
8, 13951, Note_on_c, 9, 38, 64
8, 13951, Note_on_c, 9, 69, 54
8, 13959, Note_on_c, 9, 69, 0
8, 13959, Note_on_c, 9, 38, 0
8, 14015, Note_on_c, 9, 38, 105
8, 14015, Note_on_c, 9, 39, 105
8, 14015, Note_on_c, 9, 69, 70
8, 14023, Note_on_c, 9, 69, 0
8, 14023, Note_on_c, 9, 39, 0
8, 14023, Note_on_c, 9, 38, 0
8, 14143, Note_on_c, 9, 38, 64
8, 14143, Note_on_c, 9, 69, 54
8, 14151, Note_on_c, 9, 69, 0
8, 14151, Note_on_c, 9, 38, 0
8, 14207, Note_on_c, 9, 36, 105
8, 14207, Note_on_c, 9, 38, 80
8, 14207, Note_on_c, 9, 69, 70
8, 14215, Note_on_c, 9, 69, 0
8, 14215, Note_on_c, 9, 38, 0
8, 14215, Note_on_c, 9, 36, 0
8, 14335, Note_on_c, 9, 38, 64
8, 14335, Note_on_c, 9, 69, 54
8, 14343, Note_on_c, 9, 69, 0
8, 14343, Note_on_c, 9, 38, 0
8, 14399, Note_on_c, 9, 38, 105
8, 14399, Note_on_c, 9, 39, 105
8, 14399, Note_on_c, 9, 69, 70
8, 14407, Note_on_c, 9, 69, 0
8, 14407, Note_on_c, 9, 39, 0
8, 14407, Note_on_c, 9, 38, 0
8, 14527, Note_on_c, 9, 38, 64
8, 14527, Note_on_c, 9, 69, 54
8, 14535, Note_on_c, 9, 69, 0
8, 14535, Note_on_c, 9, 38, 0
8, 14591, Note_on_c, 9, 36, 105
8, 14591, Note_on_c, 9, 38, 80
8, 14591, Note_on_c, 9, 69, 70
8, 14599, Note_on_c, 9, 69, 0
8, 14599, Note_on_c, 9, 38, 0
8, 14599, Note_on_c, 9, 36, 0
8, 14719, Note_on_c, 9, 38, 64
8, 14719, Note_on_c, 9, 69, 54
8, 14727, Note_on_c, 9, 69, 0
8, 14727, Note_on_c, 9, 38, 0
8, 14783, Note_on_c, 9, 38, 105
8, 14783, Note_on_c, 9, 39, 105
8, 14783, Note_on_c, 9, 69, 70
8, 14791, Note_on_c, 9, 69, 0
8, 14791, Note_on_c, 9, 39, 0
8, 14791, Note_on_c, 9, 38, 0
8, 14911, Note_on_c, 9, 38, 64
8, 14911, Note_on_c, 9, 69, 54
8, 14919, Note_on_c, 9, 69, 0
8, 14919, Note_on_c, 9, 38, 0
8, 14975, Note_on_c, 9, 36, 105
8, 14975, Note_on_c, 9, 38, 80
8, 14975, Note_on_c, 9, 69, 70
8, 14983, Note_on_c, 9, 69, 0
8, 14983, Note_on_c, 9, 38, 0
8, 14983, Note_on_c, 9, 36, 0
8, 15103, Note_on_c, 9, 38, 64
8, 15103, Note_on_c, 9, 69, 54
8, 15111, Note_on_c, 9, 69, 0
8, 15111, Note_on_c, 9, 38, 0
8, 15167, Note_on_c, 9, 38, 105
8, 15167, Note_on_c, 9, 39, 105
8, 15167, Note_on_c, 9, 69, 70
8, 15175, Note_on_c, 9, 69, 0
8, 15175, Note_on_c, 9, 39, 0
8, 15175, Note_on_c, 9, 38, 0
8, 15295, Note_on_c, 9, 38, 64
8, 15295, Note_on_c, 9, 69, 54
8, 15303, Note_on_c, 9, 69, 0
8, 15303, Note_on_c, 9, 38, 0
8, 15359, Note_on_c, 9, 36, 105
8, 15359, Note_on_c, 9, 38, 80
8, 15359, Note_on_c, 9, 69, 70
8, 15367, Note_on_c, 9, 69, 0
8, 15367, Note_on_c, 9, 38, 0
8, 15367, Note_on_c, 9, 36, 0
8, 15487, Note_on_c, 9, 38, 64
8, 15487, Note_on_c, 9, 69, 54
8, 15495, Note_on_c, 9, 69, 0
8, 15495, Note_on_c, 9, 38, 0
8, 15551, Note_on_c, 9, 38, 105
8, 15551, Note_on_c, 9, 39, 105
8, 15551, Note_on_c, 9, 69, 70
8, 15559, Note_on_c, 9, 69, 0
8, 15559, Note_on_c, 9, 39, 0
8, 15559, Note_on_c, 9, 38, 0
8, 15679, Note_on_c, 9, 38, 64
8, 15679, Note_on_c, 9, 69, 54
8, 15687, Note_on_c, 9, 69, 0
8, 15687, Note_on_c, 9, 38, 0
8, 15742, Note_on_c, 9, 36, 105
8, 15742, Note_on_c, 9, 38, 80
8, 15742, Note_on_c, 9, 69, 70
8, 15750, Note_on_c, 9, 69, 0
8, 15750, Note_on_c, 9, 38, 0
8, 15750, Note_on_c, 9, 36, 0
8, 15871, Note_on_c, 9, 38, 64
8, 15871, Note_on_c, 9, 69, 54
8, 15879, Note_on_c, 9, 69, 0
8, 15879, Note_on_c, 9, 38, 0
8, 15935, Note_on_c, 9, 38, 105
8, 15935, Note_on_c, 9, 39, 105
8, 15935, Note_on_c, 9, 69, 70
8, 15943, Note_on_c, 9, 69, 0
8, 15943, Note_on_c, 9, 39, 0
8, 15943, Note_on_c, 9, 38, 0
8, 16063, Note_on_c, 9, 38, 64
8, 16063, Note_on_c, 9, 69, 54
8, 16071, Note_on_c, 9, 69, 0
8, 16071, Note_on_c, 9, 38, 0
8, 16127, Note_on_c, 9, 36, 105
8, 16127, Note_on_c, 9, 38, 80
8, 16127, Note_on_c, 9, 69, 70
8, 16135, Note_on_c, 9, 69, 0
8, 16135, Note_on_c, 9, 38, 0
8, 16135, Note_on_c, 9, 36, 0
8, 16255, Note_on_c, 9, 38, 64
8, 16255, Note_on_c, 9, 69, 54
8, 16263, Note_on_c, 9, 69, 0
8, 16263, Note_on_c, 9, 38, 0
8, 16318, Note_on_c, 9, 38, 105
8, 16318, Note_on_c, 9, 39, 105
8, 16318, Note_on_c, 9, 69, 70
8, 16326, Note_on_c, 9, 69, 0
8, 16326, Note_on_c, 9, 39, 0
8, 16326, Note_on_c, 9, 38, 0
8, 16446, Note_on_c, 9, 38, 64
8, 16446, Note_on_c, 9, 69, 54
8, 16454, Note_on_c, 9, 69, 0
8, 16454, Note_on_c, 9, 38, 0
8, 16511, Note_on_c, 9, 36, 105
8, 16511, Note_on_c, 9, 38, 80
8, 16511, Note_on_c, 9, 69, 70
8, 16519, Note_on_c, 9, 69, 0
8, 16519, Note_on_c, 9, 38, 0
8, 16519, Note_on_c, 9, 36, 0
8, 16639, Note_on_c, 9, 38, 64
8, 16639, Note_on_c, 9, 69, 54
8, 16647, Note_on_c, 9, 69, 0
8, 16647, Note_on_c, 9, 38, 0
8, 16702, Note_on_c, 9, 38, 105
8, 16702, Note_on_c, 9, 39, 105
8, 16702, Note_on_c, 9, 69, 70
8, 16710, Note_on_c, 9, 69, 0
8, 16710, Note_on_c, 9, 39, 0
8, 16710, Note_on_c, 9, 38, 0
8, 16831, Note_on_c, 9, 38, 64
8, 16831, Note_on_c, 9, 69, 54
8, 16839, Note_on_c, 9, 69, 0
8, 16839, Note_on_c, 9, 38, 0
8, 16895, Note_on_c, 9, 36, 105
8, 16895, Note_on_c, 9, 38, 80
8, 16895, Note_on_c, 9, 69, 70
8, 16903, Note_on_c, 9, 69, 0
8, 16903, Note_on_c, 9, 38, 0
8, 16903, Note_on_c, 9, 36, 0
8, 17023, Note_on_c, 9, 38, 64
8, 17023, Note_on_c, 9, 69, 54
8, 17031, Note_on_c, 9, 69, 0
8, 17031, Note_on_c, 9, 38, 0
8, 17087, Note_on_c, 9, 38, 105
8, 17087, Note_on_c, 9, 39, 105
8, 17087, Note_on_c, 9, 69, 70
8, 17095, Note_on_c, 9, 69, 0
8, 17095, Note_on_c, 9, 39, 0
8, 17095, Note_on_c, 9, 38, 0
8, 17215, Note_on_c, 9, 38, 64
8, 17215, Note_on_c, 9, 69, 54
8, 17223, Note_on_c, 9, 69, 0
8, 17223, Note_on_c, 9, 38, 0
8, 17279, Note_on_c, 9, 36, 105
8, 17279, Note_on_c, 9, 38, 80
8, 17279, Note_on_c, 9, 69, 70
8, 17287, Note_on_c, 9, 69, 0
8, 17287, Note_on_c, 9, 38, 0
8, 17287, Note_on_c, 9, 36, 0
8, 17407, Note_on_c, 9, 38, 64
8, 17407, Note_on_c, 9, 69, 54
8, 17415, Note_on_c, 9, 69, 0
8, 17415, Note_on_c, 9, 38, 0
8, 17471, Note_on_c, 9, 38, 105
8, 17471, Note_on_c, 9, 39, 105
8, 17471, Note_on_c, 9, 69, 70
8, 17479, Note_on_c, 9, 69, 0
8, 17479, Note_on_c, 9, 39, 0
8, 17479, Note_on_c, 9, 38, 0
8, 17599, Note_on_c, 9, 38, 64
8, 17599, Note_on_c, 9, 69, 54
8, 17607, Note_on_c, 9, 69, 0
8, 17607, Note_on_c, 9, 38, 0
8, 17663, Note_on_c, 9, 36, 105
8, 17663, Note_on_c, 9, 38, 80
8, 17663, Note_on_c, 9, 69, 70
8, 17671, Note_on_c, 9, 69, 0
8, 17671, Note_on_c, 9, 38, 0
8, 17671, Note_on_c, 9, 36, 0
8, 17791, Note_on_c, 9, 38, 64
8, 17791, Note_on_c, 9, 69, 54
8, 17799, Note_on_c, 9, 69, 0
8, 17799, Note_on_c, 9, 38, 0
8, 17855, Note_on_c, 9, 38, 105
8, 17855, Note_on_c, 9, 39, 105
8, 17855, Note_on_c, 9, 69, 70
8, 17863, Note_on_c, 9, 69, 0
8, 17863, Note_on_c, 9, 39, 0
8, 17863, Note_on_c, 9, 38, 0
8, 17983, Note_on_c, 9, 38, 64
8, 17983, Note_on_c, 9, 69, 54
8, 17991, Note_on_c, 9, 69, 0
8, 17991, Note_on_c, 9, 38, 0
8, 18047, Note_on_c, 9, 36, 105
8, 18047, Note_on_c, 9, 38, 80
8, 18047, Note_on_c, 9, 69, 70
8, 18055, Note_on_c, 9, 69, 0
8, 18055, Note_on_c, 9, 38, 0
8, 18055, Note_on_c, 9, 36, 0
8, 18175, Note_on_c, 9, 38, 64
8, 18175, Note_on_c, 9, 69, 54
8, 18183, Note_on_c, 9, 69, 0
8, 18183, Note_on_c, 9, 38, 0
8, 18239, Note_on_c, 9, 38, 105
8, 18239, Note_on_c, 9, 39, 105
8, 18239, Note_on_c, 9, 69, 70
8, 18247, Note_on_c, 9, 69, 0
8, 18247, Note_on_c, 9, 39, 0
8, 18247, Note_on_c, 9, 38, 0
8, 18367, Note_on_c, 9, 38, 64
8, 18367, Note_on_c, 9, 69, 54
8, 18375, Note_on_c, 9, 69, 0
8, 18375, Note_on_c, 9, 38, 0
8, 18431, Note_on_c, 9, 36, 105
8, 18431, Note_on_c, 9, 38, 80
8, 18431, Note_on_c, 9, 69, 70
8, 18439, Note_on_c, 9, 69, 0
8, 18439, Note_on_c, 9, 38, 0
8, 18439, Note_on_c, 9, 36, 0
8, 18559, Note_on_c, 9, 38, 64
8, 18559, Note_on_c, 9, 69, 54
8, 18567, Note_on_c, 9, 69, 0
8, 18567, Note_on_c, 9, 38, 0
8, 18623, Note_on_c, 9, 38, 105
8, 18623, Note_on_c, 9, 39, 105
8, 18623, Note_on_c, 9, 69, 70
8, 18631, Note_on_c, 9, 69, 0
8, 18631, Note_on_c, 9, 39, 0
8, 18631, Note_on_c, 9, 38, 0
8, 18751, Note_on_c, 9, 38, 64
8, 18751, Note_on_c, 9, 69, 54
8, 18759, Note_on_c, 9, 69, 0
8, 18759, Note_on_c, 9, 38, 0
8, 18815, Note_on_c, 9, 36, 105
8, 18815, Note_on_c, 9, 38, 80
8, 18815, Note_on_c, 9, 69, 70
8, 18823, Note_on_c, 9, 69, 0
8, 18823, Note_on_c, 9, 38, 0
8, 18823, Note_on_c, 9, 36, 0
8, 18943, Note_on_c, 9, 38, 64
8, 18943, Note_on_c, 9, 69, 54
8, 18951, Note_on_c, 9, 69, 0
8, 18951, Note_on_c, 9, 38, 0
8, 19007, Note_on_c, 9, 38, 105
8, 19007, Note_on_c, 9, 39, 105
8, 19007, Note_on_c, 9, 69, 70
8, 19015, Note_on_c, 9, 69, 0
8, 19015, Note_on_c, 9, 39, 0
8, 19015, Note_on_c, 9, 38, 0
8, 19135, Note_on_c, 9, 38, 64
8, 19135, Note_on_c, 9, 69, 54
8, 19143, Note_on_c, 9, 69, 0
8, 19143, Note_on_c, 9, 38, 0
8, 19199, Note_on_c, 9, 36, 105
8, 19199, Note_on_c, 9, 38, 80
8, 19199, Note_on_c, 9, 69, 70
8, 19207, Note_on_c, 9, 69, 0
8, 19207, Note_on_c, 9, 38, 0
8, 19207, Note_on_c, 9, 36, 0
8, 19327, Note_on_c, 9, 38, 64
8, 19327, Note_on_c, 9, 69, 54
8, 19335, Note_on_c, 9, 69, 0
8, 19335, Note_on_c, 9, 38, 0
8, 19391, Note_on_c, 9, 38, 105
8, 19391, Note_on_c, 9, 39, 105
8, 19391, Note_on_c, 9, 69, 70
8, 19399, Note_on_c, 9, 69, 0
8, 19399, Note_on_c, 9, 39, 0
8, 19399, Note_on_c, 9, 38, 0
8, 19519, Note_on_c, 9, 38, 64
8, 19519, Note_on_c, 9, 69, 54
8, 19527, Note_on_c, 9, 69, 0
8, 19527, Note_on_c, 9, 38, 0
8, 19583, Note_on_c, 9, 36, 105
8, 19583, Note_on_c, 9, 38, 80
8, 19583, Note_on_c, 9, 69, 70
8, 19591, Note_on_c, 9, 69, 0
8, 19591, Note_on_c, 9, 38, 0
8, 19591, Note_on_c, 9, 36, 0
8, 19711, Note_on_c, 9, 38, 64
8, 19711, Note_on_c, 9, 69, 54
8, 19719, Note_on_c, 9, 69, 0
8, 19719, Note_on_c, 9, 38, 0
8, 19775, Note_on_c, 9, 38, 105
8, 19775, Note_on_c, 9, 39, 105
8, 19775, Note_on_c, 9, 69, 70
8, 19783, Note_on_c, 9, 69, 0
8, 19783, Note_on_c, 9, 39, 0
8, 19783, Note_on_c, 9, 38, 0
8, 19903, Note_on_c, 9, 38, 105
8, 19903, Note_on_c, 9, 69, 54
8, 19911, Note_on_c, 9, 69, 0
8, 19911, Note_on_c, 9, 38, 0
8, 19967, Note_on_c, 9, 36, 105
8, 19967, Note_on_c, 9, 38, 80
8, 19967, Note_on_c, 9, 49, 108
8, 19967, Note_on_c, 9, 69, 70
8, 19975, Note_on_c, 9, 69, 0
8, 19975, Note_on_c, 9, 36, 0
8, 19975, Note_on_c, 9, 38, 0
8, 19975, Note_on_c, 9, 49, 0
8, 20095, Note_on_c, 9, 38, 64
8, 20095, Note_on_c, 9, 69, 54
8, 20103, Note_on_c, 9, 69, 0
8, 20103, Note_on_c, 9, 38, 0
8, 20159, Note_on_c, 9, 38, 105
8, 20159, Note_on_c, 9, 39, 105
8, 20159, Note_on_c, 9, 69, 70
8, 20167, Note_on_c, 9, 69, 0
8, 20167, Note_on_c, 9, 39, 0
8, 20167, Note_on_c, 9, 38, 0
8, 20287, Note_on_c, 9, 38, 64
8, 20287, Note_on_c, 9, 69, 54
8, 20295, Note_on_c, 9, 69, 0
8, 20295, Note_on_c, 9, 38, 0
8, 20351, Note_on_c, 9, 36, 105
8, 20351, Note_on_c, 9, 38, 80
8, 20351, Note_on_c, 9, 69, 70
8, 20359, Note_on_c, 9, 69, 0
8, 20359, Note_on_c, 9, 38, 0
8, 20359, Note_on_c, 9, 36, 0
8, 20479, Note_on_c, 9, 38, 64
8, 20479, Note_on_c, 9, 69, 54
8, 20487, Note_on_c, 9, 69, 0
8, 20487, Note_on_c, 9, 38, 0
8, 20543, Note_on_c, 9, 38, 105
8, 20543, Note_on_c, 9, 39, 105
8, 20543, Note_on_c, 9, 69, 70
8, 20551, Note_on_c, 9, 69, 0
8, 20551, Note_on_c, 9, 39, 0
8, 20551, Note_on_c, 9, 38, 0
8, 20671, Note_on_c, 9, 38, 64
8, 20671, Note_on_c, 9, 69, 54
8, 20679, Note_on_c, 9, 69, 0
8, 20679, Note_on_c, 9, 38, 0
8, 20735, Note_on_c, 9, 36, 105
8, 20735, Note_on_c, 9, 38, 80
8, 20735, Note_on_c, 9, 69, 70
8, 20743, Note_on_c, 9, 69, 0
8, 20743, Note_on_c, 9, 38, 0
8, 20743, Note_on_c, 9, 36, 0
8, 20863, Note_on_c, 9, 38, 64
8, 20863, Note_on_c, 9, 69, 54
8, 20871, Note_on_c, 9, 69, 0
8, 20871, Note_on_c, 9, 38, 0
8, 20927, Note_on_c, 9, 38, 105
8, 20927, Note_on_c, 9, 39, 105
8, 20927, Note_on_c, 9, 69, 70
8, 20935, Note_on_c, 9, 69, 0
8, 20935, Note_on_c, 9, 39, 0
8, 20935, Note_on_c, 9, 38, 0
8, 21055, Note_on_c, 9, 38, 64
8, 21055, Note_on_c, 9, 69, 54
8, 21063, Note_on_c, 9, 69, 0
8, 21063, Note_on_c, 9, 38, 0
8, 21119, Note_on_c, 9, 36, 105
8, 21119, Note_on_c, 9, 38, 80
8, 21119, Note_on_c, 9, 69, 70
8, 21127, Note_on_c, 9, 69, 0
8, 21127, Note_on_c, 9, 38, 0
8, 21127, Note_on_c, 9, 36, 0
8, 21247, Note_on_c, 9, 38, 64
8, 21247, Note_on_c, 9, 69, 54
8, 21255, Note_on_c, 9, 69, 0
8, 21255, Note_on_c, 9, 38, 0
8, 21311, Note_on_c, 9, 38, 105
8, 21311, Note_on_c, 9, 39, 105
8, 21311, Note_on_c, 9, 69, 70
8, 21319, Note_on_c, 9, 69, 0
8, 21319, Note_on_c, 9, 39, 0
8, 21319, Note_on_c, 9, 38, 0
8, 21439, Note_on_c, 9, 38, 64
8, 21439, Note_on_c, 9, 69, 54
8, 21447, Note_on_c, 9, 69, 0
8, 21447, Note_on_c, 9, 38, 0
8, 21503, Note_on_c, 9, 36, 105
8, 21503, Note_on_c, 9, 38, 80
8, 21503, Note_on_c, 9, 69, 70
8, 21511, Note_on_c, 9, 69, 0
8, 21511, Note_on_c, 9, 38, 0
8, 21511, Note_on_c, 9, 36, 0
8, 21630, Note_on_c, 9, 38, 64
8, 21630, Note_on_c, 9, 69, 54
8, 21638, Note_on_c, 9, 69, 0
8, 21638, Note_on_c, 9, 38, 0
8, 21695, Note_on_c, 9, 38, 105
8, 21695, Note_on_c, 9, 39, 105
8, 21695, Note_on_c, 9, 69, 70
8, 21703, Note_on_c, 9, 69, 0
8, 21703, Note_on_c, 9, 39, 0
8, 21703, Note_on_c, 9, 38, 0
8, 21823, Note_on_c, 9, 38, 64
8, 21823, Note_on_c, 9, 69, 54
8, 21831, Note_on_c, 9, 69, 0
8, 21831, Note_on_c, 9, 38, 0
8, 21887, Note_on_c, 9, 36, 105
8, 21887, Note_on_c, 9, 38, 80
8, 21887, Note_on_c, 9, 69, 70
8, 21895, Note_on_c, 9, 69, 0
8, 21895, Note_on_c, 9, 38, 0
8, 21895, Note_on_c, 9, 36, 0
8, 22015, Note_on_c, 9, 38, 64
8, 22015, Note_on_c, 9, 69, 54
8, 22023, Note_on_c, 9, 69, 0
8, 22023, Note_on_c, 9, 38, 0
8, 22079, Note_on_c, 9, 38, 105
8, 22079, Note_on_c, 9, 39, 105
8, 22079, Note_on_c, 9, 69, 70
8, 22087, Note_on_c, 9, 69, 0
8, 22087, Note_on_c, 9, 39, 0
8, 22087, Note_on_c, 9, 38, 0
8, 22207, Note_on_c, 9, 38, 64
8, 22207, Note_on_c, 9, 69, 54
8, 22215, Note_on_c, 9, 69, 0
8, 22215, Note_on_c, 9, 38, 0
8, 22271, Note_on_c, 9, 36, 105
8, 22271, Note_on_c, 9, 38, 80
8, 22271, Note_on_c, 9, 69, 70
8, 22279, Note_on_c, 9, 69, 0
8, 22279, Note_on_c, 9, 38, 0
8, 22279, Note_on_c, 9, 36, 0
8, 22399, Note_on_c, 9, 38, 64
8, 22399, Note_on_c, 9, 69, 54
8, 22407, Note_on_c, 9, 69, 0
8, 22407, Note_on_c, 9, 38, 0
8, 22463, Note_on_c, 9, 38, 105
8, 22463, Note_on_c, 9, 39, 105
8, 22463, Note_on_c, 9, 69, 70
8, 22471, Note_on_c, 9, 69, 0
8, 22471, Note_on_c, 9, 39, 0
8, 22471, Note_on_c, 9, 38, 0
8, 22590, Note_on_c, 9, 38, 64
8, 22590, Note_on_c, 9, 69, 54
8, 22598, Note_on_c, 9, 69, 0
8, 22598, Note_on_c, 9, 38, 0
8, 22655, Note_on_c, 9, 36, 105
8, 22655, Note_on_c, 9, 38, 80
8, 22655, Note_on_c, 9, 69, 70
8, 22663, Note_on_c, 9, 69, 0
8, 22663, Note_on_c, 9, 38, 0
8, 22663, Note_on_c, 9, 36, 0
8, 22783, Note_on_c, 9, 38, 64
8, 22783, Note_on_c, 9, 69, 54
8, 22791, Note_on_c, 9, 69, 0
8, 22791, Note_on_c, 9, 38, 0
8, 22847, Note_on_c, 9, 38, 105
8, 22847, Note_on_c, 9, 39, 105
8, 22847, Note_on_c, 9, 69, 70
8, 22855, Note_on_c, 9, 69, 0
8, 22855, Note_on_c, 9, 39, 0
8, 22855, Note_on_c, 9, 38, 0
8, 22975, Note_on_c, 9, 38, 64
8, 22975, Note_on_c, 9, 69, 54
8, 22983, Note_on_c, 9, 69, 0
8, 22983, Note_on_c, 9, 38, 0
8, 23039, Note_on_c, 9, 36, 105
8, 23039, Note_on_c, 9, 38, 80
8, 23039, Note_on_c, 9, 69, 70
8, 23047, Note_on_c, 9, 69, 0
8, 23047, Note_on_c, 9, 38, 0
8, 23047, Note_on_c, 9, 36, 0
8, 23167, Note_on_c, 9, 38, 64
8, 23167, Note_on_c, 9, 69, 54
8, 23175, Note_on_c, 9, 69, 0
8, 23175, Note_on_c, 9, 38, 0
8, 23231, Note_on_c, 9, 38, 105
8, 23231, Note_on_c, 9, 39, 105
8, 23231, Note_on_c, 9, 69, 70
8, 23239, Note_on_c, 9, 69, 0
8, 23239, Note_on_c, 9, 39, 0
8, 23239, Note_on_c, 9, 38, 0
8, 23359, Note_on_c, 9, 38, 64
8, 23359, Note_on_c, 9, 69, 54
8, 23367, Note_on_c, 9, 69, 0
8, 23367, Note_on_c, 9, 38, 0
8, 23423, Note_on_c, 9, 36, 105
8, 23423, Note_on_c, 9, 38, 80
8, 23423, Note_on_c, 9, 69, 70
8, 23431, Note_on_c, 9, 69, 0
8, 23431, Note_on_c, 9, 38, 0
8, 23431, Note_on_c, 9, 36, 0
8, 23550, Note_on_c, 9, 38, 64
8, 23551, Note_on_c, 9, 69, 54
8, 23558, Note_on_c, 9, 38, 0
8, 23559, Note_on_c, 9, 69, 0
8, 23615, Note_on_c, 9, 38, 105
8, 23615, Note_on_c, 9, 39, 105
8, 23615, Note_on_c, 9, 69, 70
8, 23623, Note_on_c, 9, 69, 0
8, 23623, Note_on_c, 9, 39, 0
8, 23623, Note_on_c, 9, 38, 0
8, 23743, Note_on_c, 9, 38, 64
8, 23743, Note_on_c, 9, 69, 54
8, 23751, Note_on_c, 9, 69, 0
8, 23751, Note_on_c, 9, 38, 0
8, 23807, Note_on_c, 9, 36, 105
8, 23807, Note_on_c, 9, 38, 80
8, 23807, Note_on_c, 9, 69, 70
8, 23815, Note_on_c, 9, 69, 0
8, 23815, Note_on_c, 9, 38, 0
8, 23815, Note_on_c, 9, 36, 0
8, 23935, Note_on_c, 9, 38, 64
8, 23935, Note_on_c, 9, 69, 54
8, 23943, Note_on_c, 9, 69, 0
8, 23943, Note_on_c, 9, 38, 0
8, 23999, Note_on_c, 9, 38, 105
8, 23999, Note_on_c, 9, 39, 105
8, 23999, Note_on_c, 9, 69, 70
8, 24007, Note_on_c, 9, 69, 0
8, 24007, Note_on_c, 9, 39, 0
8, 24007, Note_on_c, 9, 38, 0
8, 24127, Note_on_c, 9, 38, 64
8, 24127, Note_on_c, 9, 69, 54
8, 24135, Note_on_c, 9, 69, 0
8, 24135, Note_on_c, 9, 38, 0
8, 24191, Note_on_c, 9, 36, 105
8, 24191, Note_on_c, 9, 38, 80
8, 24191, Note_on_c, 9, 69, 70
8, 24199, Note_on_c, 9, 69, 0
8, 24199, Note_on_c, 9, 38, 0
8, 24199, Note_on_c, 9, 36, 0
8, 24319, Note_on_c, 9, 38, 64
8, 24319, Note_on_c, 9, 69, 54
8, 24327, Note_on_c, 9, 69, 0
8, 24327, Note_on_c, 9, 38, 0
8, 24383, Note_on_c, 9, 38, 105
8, 24383, Note_on_c, 9, 39, 105
8, 24383, Note_on_c, 9, 69, 70
8, 24391, Note_on_c, 9, 69, 0
8, 24391, Note_on_c, 9, 39, 0
8, 24391, Note_on_c, 9, 38, 0
8, 24511, Note_on_c, 9, 38, 64
8, 24511, Note_on_c, 9, 69, 54
8, 24519, Note_on_c, 9, 69, 0
8, 24519, Note_on_c, 9, 38, 0
8, 24575, Note_on_c, 9, 36, 105
8, 24575, Note_on_c, 9, 38, 80
8, 24575, Note_on_c, 9, 69, 70
8, 24583, Note_on_c, 9, 69, 0
8, 24583, Note_on_c, 9, 38, 0
8, 24583, Note_on_c, 9, 36, 0
8, 24703, Note_on_c, 9, 38, 64
8, 24703, Note_on_c, 9, 69, 54
8, 24711, Note_on_c, 9, 69, 0
8, 24711, Note_on_c, 9, 38, 0
8, 24767, Note_on_c, 9, 38, 105
8, 24767, Note_on_c, 9, 39, 105
8, 24767, Note_on_c, 9, 69, 70
8, 24775, Note_on_c, 9, 69, 0
8, 24775, Note_on_c, 9, 39, 0
8, 24775, Note_on_c, 9, 38, 0
8, 24895, Note_on_c, 9, 38, 64
8, 24895, Note_on_c, 9, 69, 54
8, 24903, Note_on_c, 9, 69, 0
8, 24903, Note_on_c, 9, 38, 0
8, 24959, Note_on_c, 9, 36, 105
8, 24959, Note_on_c, 9, 38, 80
8, 24959, Note_on_c, 9, 69, 70
8, 24967, Note_on_c, 9, 69, 0
8, 24967, Note_on_c, 9, 38, 0
8, 24967, Note_on_c, 9, 36, 0
8, 25087, Note_on_c, 9, 38, 64
8, 25087, Note_on_c, 9, 69, 54
8, 25095, Note_on_c, 9, 69, 0
8, 25095, Note_on_c, 9, 38, 0
8, 25151, Note_on_c, 9, 38, 105
8, 25151, Note_on_c, 9, 39, 105
8, 25151, Note_on_c, 9, 69, 70
8, 25159, Note_on_c, 9, 69, 0
8, 25159, Note_on_c, 9, 39, 0
8, 25159, Note_on_c, 9, 38, 0
8, 25279, Note_on_c, 9, 38, 64
8, 25279, Note_on_c, 9, 69, 54
8, 25287, Note_on_c, 9, 69, 0
8, 25287, Note_on_c, 9, 38, 0
8, 25343, Note_on_c, 9, 36, 105
8, 25343, Note_on_c, 9, 38, 80
8, 25343, Note_on_c, 9, 69, 70
8, 25351, Note_on_c, 9, 69, 0
8, 25351, Note_on_c, 9, 38, 0
8, 25351, Note_on_c, 9, 36, 0
8, 25471, Note_on_c, 9, 38, 64
8, 25471, Note_on_c, 9, 69, 54
8, 25479, Note_on_c, 9, 69, 0
8, 25479, Note_on_c, 9, 38, 0
8, 25535, Note_on_c, 9, 38, 105
8, 25535, Note_on_c, 9, 39, 105
8, 25535, Note_on_c, 9, 69, 70
8, 25543, Note_on_c, 9, 69, 0
8, 25543, Note_on_c, 9, 39, 0
8, 25543, Note_on_c, 9, 38, 0
8, 25663, Note_on_c, 9, 38, 64
8, 25663, Note_on_c, 9, 69, 54
8, 25671, Note_on_c, 9, 69, 0
8, 25671, Note_on_c, 9, 38, 0
8, 25727, Note_on_c, 9, 36, 105
8, 25727, Note_on_c, 9, 38, 80
8, 25727, Note_on_c, 9, 69, 70
8, 25735, Note_on_c, 9, 69, 0
8, 25735, Note_on_c, 9, 38, 0
8, 25735, Note_on_c, 9, 36, 0
8, 25855, Note_on_c, 9, 38, 64
8, 25855, Note_on_c, 9, 69, 54
8, 25863, Note_on_c, 9, 69, 0
8, 25863, Note_on_c, 9, 38, 0
8, 25919, Note_on_c, 9, 38, 105
8, 25919, Note_on_c, 9, 39, 105
8, 25919, Note_on_c, 9, 69, 70
8, 25927, Note_on_c, 9, 69, 0
8, 25927, Note_on_c, 9, 39, 0
8, 25927, Note_on_c, 9, 38, 0
8, 26046, Note_on_c, 9, 38, 64
8, 26046, Note_on_c, 9, 69, 54
8, 26054, Note_on_c, 9, 69, 0
8, 26054, Note_on_c, 9, 38, 0
8, 26111, Note_on_c, 9, 36, 105
8, 26111, Note_on_c, 9, 38, 80
8, 26111, Note_on_c, 9, 69, 70
8, 26119, Note_on_c, 9, 69, 0
8, 26119, Note_on_c, 9, 38, 0
8, 26119, Note_on_c, 9, 36, 0
8, 26239, Note_on_c, 9, 38, 64
8, 26239, Note_on_c, 9, 69, 54
8, 26247, Note_on_c, 9, 69, 0
8, 26247, Note_on_c, 9, 38, 0
8, 26303, Note_on_c, 9, 38, 105
8, 26303, Note_on_c, 9, 39, 105
8, 26303, Note_on_c, 9, 69, 70
8, 26311, Note_on_c, 9, 69, 0
8, 26311, Note_on_c, 9, 39, 0
8, 26311, Note_on_c, 9, 38, 0
8, 26431, Note_on_c, 9, 38, 64
8, 26431, Note_on_c, 9, 69, 54
8, 26439, Note_on_c, 9, 69, 0
8, 26439, Note_on_c, 9, 38, 0
8, 26495, Note_on_c, 9, 36, 105
8, 26495, Note_on_c, 9, 38, 80
8, 26495, Note_on_c, 9, 69, 70
8, 26503, Note_on_c, 9, 69, 0
8, 26503, Note_on_c, 9, 38, 0
8, 26503, Note_on_c, 9, 36, 0
8, 26623, Note_on_c, 9, 38, 64
8, 26623, Note_on_c, 9, 69, 54
8, 26631, Note_on_c, 9, 69, 0
8, 26631, Note_on_c, 9, 38, 0
8, 26687, Note_on_c, 9, 38, 105
8, 26687, Note_on_c, 9, 39, 105
8, 26687, Note_on_c, 9, 69, 70
8, 26695, Note_on_c, 9, 69, 0
8, 26695, Note_on_c, 9, 39, 0
8, 26695, Note_on_c, 9, 38, 0
8, 26815, Note_on_c, 9, 38, 64
8, 26815, Note_on_c, 9, 69, 54
8, 26823, Note_on_c, 9, 69, 0
8, 26823, Note_on_c, 9, 38, 0
8, 26879, Note_on_c, 9, 36, 105
8, 26879, Note_on_c, 9, 38, 80
8, 26879, Note_on_c, 9, 69, 70
8, 26887, Note_on_c, 9, 69, 0
8, 26887, Note_on_c, 9, 38, 0
8, 26887, Note_on_c, 9, 36, 0
8, 27007, Note_on_c, 9, 38, 64
8, 27007, Note_on_c, 9, 69, 54
8, 27015, Note_on_c, 9, 69, 0
8, 27015, Note_on_c, 9, 38, 0
8, 27071, Note_on_c, 9, 38, 105
8, 27071, Note_on_c, 9, 39, 105
8, 27071, Note_on_c, 9, 69, 70
8, 27079, Note_on_c, 9, 69, 0
8, 27079, Note_on_c, 9, 39, 0
8, 27079, Note_on_c, 9, 38, 0
8, 27199, Note_on_c, 9, 38, 64
8, 27199, Note_on_c, 9, 69, 54
8, 27207, Note_on_c, 9, 69, 0
8, 27207, Note_on_c, 9, 38, 0
8, 27263, Note_on_c, 9, 36, 105
8, 27263, Note_on_c, 9, 38, 80
8, 27263, Note_on_c, 9, 69, 70
8, 27271, Note_on_c, 9, 69, 0
8, 27271, Note_on_c, 9, 38, 0
8, 27271, Note_on_c, 9, 36, 0
8, 27391, Note_on_c, 9, 38, 64
8, 27391, Note_on_c, 9, 69, 54
8, 27399, Note_on_c, 9, 69, 0
8, 27399, Note_on_c, 9, 38, 0
8, 27455, Note_on_c, 9, 38, 105
8, 27455, Note_on_c, 9, 39, 105
8, 27455, Note_on_c, 9, 69, 70
8, 27463, Note_on_c, 9, 69, 0
8, 27463, Note_on_c, 9, 39, 0
8, 27463, Note_on_c, 9, 38, 0
8, 27583, Note_on_c, 9, 38, 64
8, 27583, Note_on_c, 9, 69, 54
8, 27591, Note_on_c, 9, 69, 0
8, 27591, Note_on_c, 9, 38, 0
8, 27647, Note_on_c, 9, 36, 105
8, 27647, Note_on_c, 9, 38, 80
8, 27647, Note_on_c, 9, 69, 70
8, 27655, Note_on_c, 9, 69, 0
8, 27655, Note_on_c, 9, 38, 0
8, 27655, Note_on_c, 9, 36, 0
8, 27775, Note_on_c, 9, 38, 64
8, 27775, Note_on_c, 9, 69, 54
8, 27783, Note_on_c, 9, 69, 0
8, 27783, Note_on_c, 9, 38, 0
8, 27839, Note_on_c, 9, 38, 105
8, 27839, Note_on_c, 9, 39, 105
8, 27839, Note_on_c, 9, 69, 70
8, 27847, Note_on_c, 9, 69, 0
8, 27847, Note_on_c, 9, 39, 0
8, 27847, Note_on_c, 9, 38, 0
8, 27967, Note_on_c, 9, 38, 64
8, 27967, Note_on_c, 9, 69, 54
8, 27975, Note_on_c, 9, 69, 0
8, 27975, Note_on_c, 9, 38, 0
8, 28031, Note_on_c, 9, 36, 105
8, 28031, Note_on_c, 9, 38, 80
8, 28031, Note_on_c, 9, 69, 70
8, 28039, Note_on_c, 9, 69, 0
8, 28039, Note_on_c, 9, 38, 0
8, 28039, Note_on_c, 9, 36, 0
8, 28159, Note_on_c, 9, 38, 64
8, 28159, Note_on_c, 9, 69, 54
8, 28167, Note_on_c, 9, 69, 0
8, 28167, Note_on_c, 9, 38, 0
8, 28223, Note_on_c, 9, 38, 105
8, 28223, Note_on_c, 9, 39, 105
8, 28223, Note_on_c, 9, 69, 70
8, 28231, Note_on_c, 9, 69, 0
8, 28231, Note_on_c, 9, 39, 0
8, 28231, Note_on_c, 9, 38, 0
8, 28351, Note_on_c, 9, 38, 64
8, 28351, Note_on_c, 9, 69, 54
8, 28359, Note_on_c, 9, 69, 0
8, 28359, Note_on_c, 9, 38, 0
8, 28415, Note_on_c, 9, 36, 105
8, 28415, Note_on_c, 9, 38, 80
8, 28415, Note_on_c, 9, 69, 70
8, 28423, Note_on_c, 9, 69, 0
8, 28423, Note_on_c, 9, 38, 0
8, 28423, Note_on_c, 9, 36, 0
8, 28543, Note_on_c, 9, 38, 64
8, 28543, Note_on_c, 9, 69, 54
8, 28551, Note_on_c, 9, 69, 0
8, 28551, Note_on_c, 9, 38, 0
8, 28607, Note_on_c, 9, 38, 105
8, 28607, Note_on_c, 9, 39, 105
8, 28607, Note_on_c, 9, 69, 70
8, 28615, Note_on_c, 9, 69, 0
8, 28615, Note_on_c, 9, 39, 0
8, 28615, Note_on_c, 9, 38, 0
8, 28735, Note_on_c, 9, 38, 64
8, 28735, Note_on_c, 9, 69, 54
8, 28743, Note_on_c, 9, 69, 0
8, 28743, Note_on_c, 9, 38, 0
8, 28799, Note_on_c, 9, 36, 105
8, 28799, Note_on_c, 9, 38, 80
8, 28799, Note_on_c, 9, 69, 70
8, 28807, Note_on_c, 9, 69, 0
8, 28807, Note_on_c, 9, 38, 0
8, 28807, Note_on_c, 9, 36, 0
8, 28926, Note_on_c, 9, 38, 64
8, 28926, Note_on_c, 9, 69, 54
8, 28934, Note_on_c, 9, 69, 0
8, 28934, Note_on_c, 9, 38, 0
8, 28991, Note_on_c, 9, 38, 105
8, 28991, Note_on_c, 9, 39, 105
8, 28991, Note_on_c, 9, 69, 70
8, 28999, Note_on_c, 9, 69, 0
8, 28999, Note_on_c, 9, 39, 0
8, 28999, Note_on_c, 9, 38, 0
8, 29119, Note_on_c, 9, 38, 64
8, 29119, Note_on_c, 9, 69, 54
8, 29127, Note_on_c, 9, 69, 0
8, 29127, Note_on_c, 9, 38, 0
8, 29183, Note_on_c, 9, 36, 105
8, 29183, Note_on_c, 9, 38, 80
8, 29183, Note_on_c, 9, 69, 70
8, 29191, Note_on_c, 9, 69, 0
8, 29191, Note_on_c, 9, 38, 0
8, 29191, Note_on_c, 9, 36, 0
8, 29311, Note_on_c, 9, 38, 64
8, 29311, Note_on_c, 9, 69, 54
8, 29319, Note_on_c, 9, 69, 0
8, 29319, Note_on_c, 9, 38, 0
8, 29375, Note_on_c, 9, 38, 105
8, 29375, Note_on_c, 9, 39, 105
8, 29375, Note_on_c, 9, 69, 70
8, 29383, Note_on_c, 9, 69, 0
8, 29383, Note_on_c, 9, 39, 0
8, 29383, Note_on_c, 9, 38, 0
8, 29503, Note_on_c, 9, 38, 64
8, 29503, Note_on_c, 9, 69, 54
8, 29511, Note_on_c, 9, 69, 0
8, 29511, Note_on_c, 9, 38, 0
8, 29567, Note_on_c, 9, 36, 105
8, 29567, Note_on_c, 9, 38, 80
8, 29567, Note_on_c, 9, 69, 70
8, 29575, Note_on_c, 9, 69, 0
8, 29575, Note_on_c, 9, 38, 0
8, 29575, Note_on_c, 9, 36, 0
8, 29695, Note_on_c, 9, 38, 64
8, 29695, Note_on_c, 9, 69, 54
8, 29703, Note_on_c, 9, 69, 0
8, 29703, Note_on_c, 9, 38, 0
8, 29759, Note_on_c, 9, 38, 105
8, 29759, Note_on_c, 9, 39, 105
8, 29759, Note_on_c, 9, 69, 70
8, 29767, Note_on_c, 9, 69, 0
8, 29767, Note_on_c, 9, 39, 0
8, 29767, Note_on_c, 9, 38, 0
8, 29887, Note_on_c, 9, 38, 64
8, 29887, Note_on_c, 9, 69, 54
8, 29895, Note_on_c, 9, 69, 0
8, 29895, Note_on_c, 9, 38, 0
8, 29951, Note_on_c, 9, 36, 105
8, 29951, Note_on_c, 9, 38, 80
8, 29951, Note_on_c, 9, 69, 70
8, 29959, Note_on_c, 9, 69, 0
8, 29959, Note_on_c, 9, 38, 0
8, 29959, Note_on_c, 9, 36, 0
8, 30079, Note_on_c, 9, 38, 64
8, 30079, Note_on_c, 9, 69, 54
8, 30087, Note_on_c, 9, 69, 0
8, 30087, Note_on_c, 9, 38, 0
8, 30143, Note_on_c, 9, 38, 105
8, 30143, Note_on_c, 9, 39, 105
8, 30143, Note_on_c, 9, 69, 70
8, 30151, Note_on_c, 9, 69, 0
8, 30151, Note_on_c, 9, 39, 0
8, 30151, Note_on_c, 9, 38, 0
8, 30271, Note_on_c, 9, 38, 64
8, 30271, Note_on_c, 9, 69, 54
8, 30279, Note_on_c, 9, 69, 0
8, 30279, Note_on_c, 9, 38, 0
8, 30335, Note_on_c, 9, 36, 105
8, 30335, Note_on_c, 9, 38, 80
8, 30335, Note_on_c, 9, 69, 70
8, 30343, Note_on_c, 9, 69, 0
8, 30343, Note_on_c, 9, 38, 0
8, 30343, Note_on_c, 9, 36, 0
8, 30463, Note_on_c, 9, 38, 64
8, 30463, Note_on_c, 9, 69, 54
8, 30471, Note_on_c, 9, 69, 0
8, 30471, Note_on_c, 9, 38, 0
8, 30527, Note_on_c, 9, 38, 105
8, 30527, Note_on_c, 9, 39, 105
8, 30527, Note_on_c, 9, 69, 70
8, 30535, Note_on_c, 9, 69, 0
8, 30535, Note_on_c, 9, 39, 0
8, 30535, Note_on_c, 9, 38, 0
8, 30655, Note_on_c, 9, 38, 64
8, 30655, Note_on_c, 9, 69, 54
8, 30663, Note_on_c, 9, 69, 0
8, 30663, Note_on_c, 9, 38, 0
8, 30719, Note_on_c, 9, 36, 105
8, 30719, Note_on_c, 9, 38, 80
8, 30719, Note_on_c, 9, 69, 70
8, 30727, Note_on_c, 9, 69, 0
8, 30727, Note_on_c, 9, 38, 0
8, 30727, Note_on_c, 9, 36, 0
8, 30847, Note_on_c, 9, 38, 64
8, 30847, Note_on_c, 9, 69, 54
8, 30855, Note_on_c, 9, 69, 0
8, 30855, Note_on_c, 9, 38, 0
8, 30911, Note_on_c, 9, 38, 105
8, 30911, Note_on_c, 9, 39, 105
8, 30911, Note_on_c, 9, 69, 70
8, 30919, Note_on_c, 9, 69, 0
8, 30919, Note_on_c, 9, 39, 0
8, 30919, Note_on_c, 9, 38, 0
8, 31039, Note_on_c, 9, 38, 64
8, 31039, Note_on_c, 9, 69, 54
8, 31047, Note_on_c, 9, 69, 0
8, 31047, Note_on_c, 9, 38, 0
8, 31103, Note_on_c, 9, 36, 105
8, 31103, Note_on_c, 9, 38, 80
8, 31103, Note_on_c, 9, 69, 70
8, 31111, Note_on_c, 9, 69, 0
8, 31111, Note_on_c, 9, 38, 0
8, 31111, Note_on_c, 9, 36, 0
8, 31231, Note_on_c, 9, 38, 64
8, 31231, Note_on_c, 9, 69, 54
8, 31239, Note_on_c, 9, 69, 0
8, 31239, Note_on_c, 9, 38, 0
8, 31295, Note_on_c, 9, 38, 105
8, 31295, Note_on_c, 9, 39, 105
8, 31295, Note_on_c, 9, 69, 70
8, 31303, Note_on_c, 9, 69, 0
8, 31303, Note_on_c, 9, 39, 0
8, 31303, Note_on_c, 9, 38, 0
8, 31423, Note_on_c, 9, 38, 64
8, 31423, Note_on_c, 9, 69, 54
8, 31431, Note_on_c, 9, 69, 0
8, 31431, Note_on_c, 9, 38, 0
8, 31487, Note_on_c, 9, 36, 105
8, 31487, Note_on_c, 9, 38, 80
8, 31487, Note_on_c, 9, 69, 70
8, 31495, Note_on_c, 9, 69, 0
8, 31495, Note_on_c, 9, 38, 0
8, 31495, Note_on_c, 9, 36, 0
8, 31615, Note_on_c, 9, 38, 64
8, 31615, Note_on_c, 9, 69, 54
8, 31623, Note_on_c, 9, 69, 0
8, 31623, Note_on_c, 9, 38, 0
8, 31679, Note_on_c, 9, 38, 105
8, 31679, Note_on_c, 9, 39, 105
8, 31679, Note_on_c, 9, 69, 70
8, 31687, Note_on_c, 9, 69, 0
8, 31687, Note_on_c, 9, 39, 0
8, 31687, Note_on_c, 9, 38, 0
8, 31807, Note_on_c, 9, 38, 64
8, 31807, Note_on_c, 9, 69, 54
8, 31815, Note_on_c, 9, 69, 0
8, 31815, Note_on_c, 9, 38, 0
8, 31871, Note_on_c, 9, 36, 105
8, 31871, Note_on_c, 9, 38, 96
8, 31871, Note_on_c, 9, 69, 70
8, 31879, Note_on_c, 9, 69, 0
8, 31879, Note_on_c, 9, 38, 0
8, 31879, Note_on_c, 9, 36, 0
8, 31935, Note_on_c, 9, 38, 105
8, 31943, Note_on_c, 9, 38, 0
8, 31999, Note_on_c, 9, 38, 105
8, 31999, Note_on_c, 9, 69, 54
8, 32007, Note_on_c, 9, 69, 0
8, 32007, Note_on_c, 9, 38, 0
8, 32063, Note_on_c, 9, 38, 105
8, 32063, Note_on_c, 9, 39, 105
8, 32063, Note_on_c, 9, 69, 70
8, 32071, Note_on_c, 9, 69, 0
8, 32071, Note_on_c, 9, 39, 0
8, 32071, Note_on_c, 9, 38, 0
8, 32191, Note_on_c, 9, 38, 105
8, 32191, Note_on_c, 9, 69, 54
8, 32199, Note_on_c, 9, 69, 0
8, 32199, Note_on_c, 9, 38, 0
8, 32255, Note_on_c, 9, 36, 105
8, 32255, Note_on_c, 9, 38, 80
8, 32255, Note_on_c, 9, 49, 108
8, 32255, Note_on_c, 9, 69, 70
8, 32263, Note_on_c, 9, 69, 0
8, 32263, Note_on_c, 9, 36, 0
8, 32263, Note_on_c, 9, 38, 0
8, 32263, Note_on_c, 9, 49, 0
8, 32383, Note_on_c, 9, 38, 64
8, 32383, Note_on_c, 9, 69, 54
8, 32391, Note_on_c, 9, 69, 0
8, 32391, Note_on_c, 9, 38, 0
8, 32447, Note_on_c, 9, 38, 105
8, 32447, Note_on_c, 9, 39, 105
8, 32447, Note_on_c, 9, 69, 70
8, 32455, Note_on_c, 9, 69, 0
8, 32455, Note_on_c, 9, 39, 0
8, 32455, Note_on_c, 9, 38, 0
8, 32575, Note_on_c, 9, 38, 64
8, 32575, Note_on_c, 9, 69, 54
8, 32583, Note_on_c, 9, 69, 0
8, 32583, Note_on_c, 9, 38, 0
8, 32639, Note_on_c, 9, 36, 105
8, 32639, Note_on_c, 9, 38, 80
8, 32639, Note_on_c, 9, 69, 70
8, 32647, Note_on_c, 9, 69, 0
8, 32647, Note_on_c, 9, 38, 0
8, 32647, Note_on_c, 9, 36, 0
8, 32767, Note_on_c, 9, 38, 64
8, 32767, Note_on_c, 9, 69, 54
8, 32775, Note_on_c, 9, 69, 0
8, 32775, Note_on_c, 9, 38, 0
8, 32831, Note_on_c, 9, 38, 105
8, 32831, Note_on_c, 9, 39, 105
8, 32831, Note_on_c, 9, 69, 70
8, 32839, Note_on_c, 9, 69, 0
8, 32839, Note_on_c, 9, 39, 0
8, 32839, Note_on_c, 9, 38, 0
8, 32959, Note_on_c, 9, 38, 64
8, 32959, Note_on_c, 9, 69, 54
8, 32967, Note_on_c, 9, 69, 0
8, 32967, Note_on_c, 9, 38, 0
8, 33023, Note_on_c, 9, 36, 105
8, 33023, Note_on_c, 9, 38, 80
8, 33023, Note_on_c, 9, 69, 70
8, 33031, Note_on_c, 9, 69, 0
8, 33031, Note_on_c, 9, 38, 0
8, 33031, Note_on_c, 9, 36, 0
8, 33150, Note_on_c, 9, 38, 64
8, 33150, Note_on_c, 9, 69, 54
8, 33158, Note_on_c, 9, 69, 0
8, 33158, Note_on_c, 9, 38, 0
8, 33215, Note_on_c, 9, 38, 105
8, 33215, Note_on_c, 9, 39, 105
8, 33215, Note_on_c, 9, 69, 70
8, 33223, Note_on_c, 9, 69, 0
8, 33223, Note_on_c, 9, 39, 0
8, 33223, Note_on_c, 9, 38, 0
8, 33343, Note_on_c, 9, 38, 64
8, 33343, Note_on_c, 9, 69, 54
8, 33351, Note_on_c, 9, 69, 0
8, 33351, Note_on_c, 9, 38, 0
8, 33407, Note_on_c, 9, 36, 105
8, 33407, Note_on_c, 9, 38, 80
8, 33407, Note_on_c, 9, 69, 70
8, 33415, Note_on_c, 9, 69, 0
8, 33415, Note_on_c, 9, 38, 0
8, 33415, Note_on_c, 9, 36, 0
8, 33535, Note_on_c, 9, 38, 64
8, 33535, Note_on_c, 9, 69, 54
8, 33543, Note_on_c, 9, 69, 0
8, 33543, Note_on_c, 9, 38, 0
8, 33599, Note_on_c, 9, 38, 105
8, 33599, Note_on_c, 9, 39, 105
8, 33599, Note_on_c, 9, 69, 70
8, 33607, Note_on_c, 9, 69, 0
8, 33607, Note_on_c, 9, 39, 0
8, 33607, Note_on_c, 9, 38, 0
8, 33727, Note_on_c, 9, 38, 64
8, 33727, Note_on_c, 9, 69, 54
8, 33735, Note_on_c, 9, 69, 0
8, 33735, Note_on_c, 9, 38, 0
8, 33791, Note_on_c, 9, 36, 105
8, 33791, Note_on_c, 9, 38, 80
8, 33791, Note_on_c, 9, 69, 70
8, 33799, Note_on_c, 9, 69, 0
8, 33799, Note_on_c, 9, 38, 0
8, 33799, Note_on_c, 9, 36, 0
8, 33919, Note_on_c, 9, 38, 64
8, 33919, Note_on_c, 9, 69, 54
8, 33927, Note_on_c, 9, 69, 0
8, 33927, Note_on_c, 9, 38, 0
8, 33983, Note_on_c, 9, 38, 105
8, 33983, Note_on_c, 9, 39, 105
8, 33983, Note_on_c, 9, 69, 70
8, 33991, Note_on_c, 9, 69, 0
8, 33991, Note_on_c, 9, 39, 0
8, 33991, Note_on_c, 9, 38, 0
8, 34111, Note_on_c, 9, 38, 64
8, 34111, Note_on_c, 9, 69, 54
8, 34119, Note_on_c, 9, 69, 0
8, 34119, Note_on_c, 9, 38, 0
8, 34175, Note_on_c, 9, 36, 105
8, 34175, Note_on_c, 9, 38, 80
8, 34175, Note_on_c, 9, 69, 70
8, 34183, Note_on_c, 9, 69, 0
8, 34183, Note_on_c, 9, 38, 0
8, 34183, Note_on_c, 9, 36, 0
8, 34303, Note_on_c, 9, 38, 64
8, 34303, Note_on_c, 9, 69, 54
8, 34311, Note_on_c, 9, 69, 0
8, 34311, Note_on_c, 9, 38, 0
8, 34367, Note_on_c, 9, 38, 105
8, 34367, Note_on_c, 9, 39, 105
8, 34367, Note_on_c, 9, 69, 70
8, 34375, Note_on_c, 9, 69, 0
8, 34375, Note_on_c, 9, 39, 0
8, 34375, Note_on_c, 9, 38, 0
8, 34495, Note_on_c, 9, 38, 64
8, 34495, Note_on_c, 9, 69, 54
8, 34503, Note_on_c, 9, 69, 0
8, 34503, Note_on_c, 9, 38, 0
8, 34559, Note_on_c, 9, 36, 105
8, 34559, Note_on_c, 9, 38, 80
8, 34559, Note_on_c, 9, 69, 70
8, 34567, Note_on_c, 9, 69, 0
8, 34567, Note_on_c, 9, 38, 0
8, 34567, Note_on_c, 9, 36, 0
8, 34687, Note_on_c, 9, 38, 64
8, 34687, Note_on_c, 9, 69, 54
8, 34695, Note_on_c, 9, 69, 0
8, 34695, Note_on_c, 9, 38, 0
8, 34751, Note_on_c, 9, 38, 105
8, 34751, Note_on_c, 9, 39, 105
8, 34751, Note_on_c, 9, 69, 70
8, 34759, Note_on_c, 9, 69, 0
8, 34759, Note_on_c, 9, 39, 0
8, 34759, Note_on_c, 9, 38, 0
8, 34879, Note_on_c, 9, 38, 64
8, 34879, Note_on_c, 9, 69, 54
8, 34887, Note_on_c, 9, 69, 0
8, 34887, Note_on_c, 9, 38, 0
8, 34943, Note_on_c, 9, 36, 105
8, 34943, Note_on_c, 9, 38, 80
8, 34943, Note_on_c, 9, 69, 70
8, 34951, Note_on_c, 9, 69, 0
8, 34951, Note_on_c, 9, 38, 0
8, 34951, Note_on_c, 9, 36, 0
8, 35071, Note_on_c, 9, 38, 64
8, 35071, Note_on_c, 9, 69, 54
8, 35079, Note_on_c, 9, 69, 0
8, 35079, Note_on_c, 9, 38, 0
8, 35135, Note_on_c, 9, 38, 105
8, 35135, Note_on_c, 9, 39, 105
8, 35135, Note_on_c, 9, 69, 70
8, 35143, Note_on_c, 9, 69, 0
8, 35143, Note_on_c, 9, 39, 0
8, 35143, Note_on_c, 9, 38, 0
8, 35263, Note_on_c, 9, 38, 64
8, 35263, Note_on_c, 9, 69, 54
8, 35271, Note_on_c, 9, 69, 0
8, 35271, Note_on_c, 9, 38, 0
8, 35327, Note_on_c, 9, 36, 105
8, 35327, Note_on_c, 9, 38, 80
8, 35327, Note_on_c, 9, 49, 108
8, 35327, Note_on_c, 9, 69, 70
8, 35335, Note_on_c, 9, 69, 0
8, 35335, Note_on_c, 9, 36, 0
8, 35335, Note_on_c, 9, 38, 0
8, 35335, Note_on_c, 9, 49, 0
8, 35455, Note_on_c, 9, 38, 64
8, 35455, Note_on_c, 9, 69, 54
8, 35463, Note_on_c, 9, 69, 0
8, 35463, Note_on_c, 9, 38, 0
8, 35519, Note_on_c, 9, 38, 105
8, 35519, Note_on_c, 9, 39, 105
8, 35519, Note_on_c, 9, 69, 70
8, 35527, Note_on_c, 9, 69, 0
8, 35527, Note_on_c, 9, 39, 0
8, 35527, Note_on_c, 9, 38, 0
8, 35647, Note_on_c, 9, 38, 64
8, 35647, Note_on_c, 9, 69, 54
8, 35655, Note_on_c, 9, 69, 0
8, 35655, Note_on_c, 9, 38, 0
8, 35711, Note_on_c, 9, 36, 105
8, 35711, Note_on_c, 9, 38, 80
8, 35711, Note_on_c, 9, 69, 70
8, 35719, Note_on_c, 9, 69, 0
8, 35719, Note_on_c, 9, 38, 0
8, 35719, Note_on_c, 9, 36, 0
8, 35839, Note_on_c, 9, 38, 64
8, 35839, Note_on_c, 9, 69, 54
8, 35847, Note_on_c, 9, 69, 0
8, 35847, Note_on_c, 9, 38, 0
8, 35903, Note_on_c, 9, 38, 105
8, 35903, Note_on_c, 9, 39, 105
8, 35903, Note_on_c, 9, 69, 70
8, 35911, Note_on_c, 9, 69, 0
8, 35911, Note_on_c, 9, 39, 0
8, 35911, Note_on_c, 9, 38, 0
8, 36031, Note_on_c, 9, 38, 64
8, 36031, Note_on_c, 9, 69, 54
8, 36039, Note_on_c, 9, 69, 0
8, 36039, Note_on_c, 9, 38, 0
8, 36095, Note_on_c, 9, 36, 105
8, 36095, Note_on_c, 9, 38, 80
8, 36095, Note_on_c, 9, 69, 70
8, 36103, Note_on_c, 9, 69, 0
8, 36103, Note_on_c, 9, 38, 0
8, 36103, Note_on_c, 9, 36, 0
8, 36223, Note_on_c, 9, 38, 64
8, 36223, Note_on_c, 9, 69, 54
8, 36231, Note_on_c, 9, 69, 0
8, 36231, Note_on_c, 9, 38, 0
8, 36287, Note_on_c, 9, 38, 105
8, 36287, Note_on_c, 9, 39, 105
8, 36287, Note_on_c, 9, 69, 70
8, 36295, Note_on_c, 9, 69, 0
8, 36295, Note_on_c, 9, 39, 0
8, 36295, Note_on_c, 9, 38, 0
8, 36414, Note_on_c, 9, 38, 64
8, 36414, Note_on_c, 9, 69, 54
8, 36422, Note_on_c, 9, 69, 0
8, 36422, Note_on_c, 9, 38, 0
8, 36479, Note_on_c, 9, 36, 105
8, 36479, Note_on_c, 9, 38, 80
8, 36479, Note_on_c, 9, 69, 70
8, 36487, Note_on_c, 9, 69, 0
8, 36487, Note_on_c, 9, 38, 0
8, 36487, Note_on_c, 9, 36, 0
8, 36607, Note_on_c, 9, 38, 64
8, 36607, Note_on_c, 9, 69, 54
8, 36615, Note_on_c, 9, 69, 0
8, 36615, Note_on_c, 9, 38, 0
8, 36671, Note_on_c, 9, 38, 105
8, 36671, Note_on_c, 9, 39, 105
8, 36671, Note_on_c, 9, 69, 70
8, 36679, Note_on_c, 9, 69, 0
8, 36679, Note_on_c, 9, 39, 0
8, 36679, Note_on_c, 9, 38, 0
8, 36799, Note_on_c, 9, 38, 64
8, 36799, Note_on_c, 9, 69, 54
8, 36807, Note_on_c, 9, 69, 0
8, 36807, Note_on_c, 9, 38, 0
8, 36863, Note_on_c, 9, 36, 105
8, 36863, Note_on_c, 9, 38, 80
8, 36863, Note_on_c, 9, 69, 70
8, 36871, Note_on_c, 9, 69, 0
8, 36871, Note_on_c, 9, 38, 0
8, 36871, Note_on_c, 9, 36, 0
8, 36991, Note_on_c, 9, 38, 64
8, 36991, Note_on_c, 9, 69, 54
8, 36999, Note_on_c, 9, 69, 0
8, 36999, Note_on_c, 9, 38, 0
8, 37055, Note_on_c, 9, 38, 105
8, 37055, Note_on_c, 9, 39, 105
8, 37055, Note_on_c, 9, 69, 70
8, 37063, Note_on_c, 9, 69, 0
8, 37063, Note_on_c, 9, 39, 0
8, 37063, Note_on_c, 9, 38, 0
8, 37183, Note_on_c, 9, 38, 64
8, 37183, Note_on_c, 9, 69, 54
8, 37191, Note_on_c, 9, 69, 0
8, 37191, Note_on_c, 9, 38, 0
8, 37247, Note_on_c, 9, 36, 105
8, 37247, Note_on_c, 9, 38, 80
8, 37247, Note_on_c, 9, 69, 70
8, 37255, Note_on_c, 9, 69, 0
8, 37255, Note_on_c, 9, 38, 0
8, 37255, Note_on_c, 9, 36, 0
8, 37375, Note_on_c, 9, 38, 64
8, 37375, Note_on_c, 9, 69, 54
8, 37383, Note_on_c, 9, 69, 0
8, 37383, Note_on_c, 9, 38, 0
8, 37439, Note_on_c, 9, 38, 105
8, 37439, Note_on_c, 9, 39, 105
8, 37439, Note_on_c, 9, 69, 70
8, 37447, Note_on_c, 9, 69, 0
8, 37447, Note_on_c, 9, 39, 0
8, 37447, Note_on_c, 9, 38, 0
8, 37567, Note_on_c, 9, 38, 64
8, 37567, Note_on_c, 9, 69, 54
8, 37575, Note_on_c, 9, 69, 0
8, 37575, Note_on_c, 9, 38, 0
8, 37631, Note_on_c, 9, 36, 105
8, 37631, Note_on_c, 9, 38, 80
8, 37631, Note_on_c, 9, 69, 70
8, 37639, Note_on_c, 9, 69, 0
8, 37639, Note_on_c, 9, 38, 0
8, 37639, Note_on_c, 9, 36, 0
8, 37759, Note_on_c, 9, 38, 64
8, 37759, Note_on_c, 9, 69, 54
8, 37767, Note_on_c, 9, 69, 0
8, 37767, Note_on_c, 9, 38, 0
8, 37823, Note_on_c, 9, 38, 105
8, 37823, Note_on_c, 9, 39, 105
8, 37823, Note_on_c, 9, 69, 70
8, 37831, Note_on_c, 9, 69, 0
8, 37831, Note_on_c, 9, 39, 0
8, 37831, Note_on_c, 9, 38, 0
8, 37951, Note_on_c, 9, 38, 64
8, 37951, Note_on_c, 9, 69, 54
8, 37959, Note_on_c, 9, 69, 0
8, 37959, Note_on_c, 9, 38, 0
8, 38015, Note_on_c, 9, 36, 105
8, 38015, Note_on_c, 9, 38, 80
8, 38015, Note_on_c, 9, 69, 70
8, 38023, Note_on_c, 9, 69, 0
8, 38023, Note_on_c, 9, 38, 0
8, 38023, Note_on_c, 9, 36, 0
8, 38143, Note_on_c, 9, 38, 64
8, 38143, Note_on_c, 9, 69, 54
8, 38151, Note_on_c, 9, 69, 0
8, 38151, Note_on_c, 9, 38, 0
8, 38207, Note_on_c, 9, 38, 105
8, 38207, Note_on_c, 9, 39, 105
8, 38207, Note_on_c, 9, 69, 70
8, 38215, Note_on_c, 9, 69, 0
8, 38215, Note_on_c, 9, 39, 0
8, 38215, Note_on_c, 9, 38, 0
8, 38335, Note_on_c, 9, 38, 64
8, 38335, Note_on_c, 9, 69, 54
8, 38343, Note_on_c, 9, 69, 0
8, 38343, Note_on_c, 9, 38, 0
8, 38399, Note_on_c, 9, 36, 105
8, 38399, Note_on_c, 9, 38, 80
8, 38399, Note_on_c, 9, 49, 108
8, 38399, Note_on_c, 9, 69, 70
8, 38407, Note_on_c, 9, 69, 0
8, 38407, Note_on_c, 9, 36, 0
8, 38407, Note_on_c, 9, 38, 0
8, 38407, Note_on_c, 9, 49, 0
8, 38526, Note_on_c, 9, 38, 64
8, 38526, Note_on_c, 9, 69, 54
8, 38534, Note_on_c, 9, 69, 0
8, 38534, Note_on_c, 9, 38, 0
8, 38591, Note_on_c, 9, 38, 105
8, 38591, Note_on_c, 9, 39, 105
8, 38591, Note_on_c, 9, 69, 70
8, 38599, Note_on_c, 9, 69, 0
8, 38599, Note_on_c, 9, 39, 0
8, 38599, Note_on_c, 9, 38, 0
8, 38719, Note_on_c, 9, 38, 64
8, 38719, Note_on_c, 9, 69, 54
8, 38727, Note_on_c, 9, 69, 0
8, 38727, Note_on_c, 9, 38, 0
8, 38783, Note_on_c, 9, 36, 105
8, 38783, Note_on_c, 9, 38, 80
8, 38783, Note_on_c, 9, 69, 70
8, 38791, Note_on_c, 9, 69, 0
8, 38791, Note_on_c, 9, 38, 0
8, 38791, Note_on_c, 9, 36, 0
8, 38911, Note_on_c, 9, 38, 64
8, 38911, Note_on_c, 9, 69, 54
8, 38919, Note_on_c, 9, 69, 0
8, 38919, Note_on_c, 9, 38, 0
8, 38975, Note_on_c, 9, 38, 105
8, 38975, Note_on_c, 9, 39, 105
8, 38975, Note_on_c, 9, 69, 70
8, 38983, Note_on_c, 9, 69, 0
8, 38983, Note_on_c, 9, 39, 0
8, 38983, Note_on_c, 9, 38, 0
8, 39103, Note_on_c, 9, 38, 64
8, 39103, Note_on_c, 9, 69, 54
8, 39111, Note_on_c, 9, 69, 0
8, 39111, Note_on_c, 9, 38, 0
8, 39167, Note_on_c, 9, 36, 105
8, 39167, Note_on_c, 9, 38, 80
8, 39167, Note_on_c, 9, 69, 70
8, 39175, Note_on_c, 9, 69, 0
8, 39175, Note_on_c, 9, 38, 0
8, 39175, Note_on_c, 9, 36, 0
8, 39295, Note_on_c, 9, 38, 64
8, 39295, Note_on_c, 9, 69, 54
8, 39303, Note_on_c, 9, 69, 0
8, 39303, Note_on_c, 9, 38, 0
8, 39359, Note_on_c, 9, 38, 105
8, 39359, Note_on_c, 9, 39, 105
8, 39359, Note_on_c, 9, 69, 70
8, 39367, Note_on_c, 9, 69, 0
8, 39367, Note_on_c, 9, 39, 0
8, 39367, Note_on_c, 9, 38, 0
8, 39487, Note_on_c, 9, 38, 64
8, 39487, Note_on_c, 9, 69, 54
8, 39495, Note_on_c, 9, 69, 0
8, 39495, Note_on_c, 9, 38, 0
8, 39551, Note_on_c, 9, 36, 105
8, 39551, Note_on_c, 9, 38, 80
8, 39551, Note_on_c, 9, 69, 70
8, 39559, Note_on_c, 9, 69, 0
8, 39559, Note_on_c, 9, 38, 0
8, 39559, Note_on_c, 9, 36, 0
8, 39679, Note_on_c, 9, 38, 64
8, 39679, Note_on_c, 9, 69, 54
8, 39687, Note_on_c, 9, 69, 0
8, 39687, Note_on_c, 9, 38, 0
8, 39743, Note_on_c, 9, 38, 105
8, 39743, Note_on_c, 9, 39, 105
8, 39743, Note_on_c, 9, 69, 70
8, 39751, Note_on_c, 9, 69, 0
8, 39751, Note_on_c, 9, 39, 0
8, 39751, Note_on_c, 9, 38, 0
8, 39871, Note_on_c, 9, 38, 64
8, 39871, Note_on_c, 9, 69, 54
8, 39879, Note_on_c, 9, 69, 0
8, 39879, Note_on_c, 9, 38, 0
8, 39935, Note_on_c, 9, 36, 105
8, 39935, Note_on_c, 9, 38, 80
8, 39935, Note_on_c, 9, 69, 70
8, 39943, Note_on_c, 9, 69, 0
8, 39943, Note_on_c, 9, 38, 0
8, 39943, Note_on_c, 9, 36, 0
8, 40063, Note_on_c, 9, 38, 64
8, 40063, Note_on_c, 9, 69, 54
8, 40071, Note_on_c, 9, 69, 0
8, 40071, Note_on_c, 9, 38, 0
8, 40127, Note_on_c, 9, 38, 105
8, 40127, Note_on_c, 9, 39, 105
8, 40127, Note_on_c, 9, 69, 70
8, 40135, Note_on_c, 9, 69, 0
8, 40135, Note_on_c, 9, 39, 0
8, 40135, Note_on_c, 9, 38, 0
8, 40255, Note_on_c, 9, 38, 64
8, 40255, Note_on_c, 9, 69, 54
8, 40263, Note_on_c, 9, 69, 0
8, 40263, Note_on_c, 9, 38, 0
8, 40319, Note_on_c, 9, 36, 105
8, 40319, Note_on_c, 9, 38, 80
8, 40319, Note_on_c, 9, 69, 70
8, 40327, Note_on_c, 9, 69, 0
8, 40327, Note_on_c, 9, 38, 0
8, 40327, Note_on_c, 9, 36, 0
8, 40447, Note_on_c, 9, 38, 64
8, 40447, Note_on_c, 9, 69, 54
8, 40455, Note_on_c, 9, 69, 0
8, 40455, Note_on_c, 9, 38, 0
8, 40511, Note_on_c, 9, 38, 105
8, 40511, Note_on_c, 9, 39, 105
8, 40511, Note_on_c, 9, 69, 70
8, 40519, Note_on_c, 9, 69, 0
8, 40519, Note_on_c, 9, 39, 0
8, 40519, Note_on_c, 9, 38, 0
8, 40639, Note_on_c, 9, 38, 64
8, 40639, Note_on_c, 9, 69, 54
8, 40647, Note_on_c, 9, 69, 0
8, 40647, Note_on_c, 9, 38, 0
8, 40703, Note_on_c, 9, 36, 105
8, 40703, Note_on_c, 9, 38, 80
8, 40703, Note_on_c, 9, 69, 70
8, 40711, Note_on_c, 9, 69, 0
8, 40711, Note_on_c, 9, 38, 0
8, 40711, Note_on_c, 9, 36, 0
8, 40831, Note_on_c, 9, 38, 64
8, 40831, Note_on_c, 9, 69, 54
8, 40839, Note_on_c, 9, 69, 0
8, 40839, Note_on_c, 9, 38, 0
8, 40895, Note_on_c, 9, 38, 105
8, 40895, Note_on_c, 9, 39, 105
8, 40895, Note_on_c, 9, 69, 70
8, 40903, Note_on_c, 9, 69, 0
8, 40903, Note_on_c, 9, 39, 0
8, 40903, Note_on_c, 9, 38, 0
8, 41023, Note_on_c, 9, 38, 64
8, 41023, Note_on_c, 9, 69, 54
8, 41031, Note_on_c, 9, 69, 0
8, 41031, Note_on_c, 9, 38, 0
8, 41087, Note_on_c, 9, 36, 105
8, 41087, Note_on_c, 9, 38, 80
8, 41087, Note_on_c, 9, 69, 70
8, 41095, Note_on_c, 9, 69, 0
8, 41095, Note_on_c, 9, 38, 0
8, 41095, Note_on_c, 9, 36, 0
8, 41215, Note_on_c, 9, 38, 64
8, 41215, Note_on_c, 9, 69, 54
8, 41223, Note_on_c, 9, 69, 0
8, 41223, Note_on_c, 9, 38, 0
8, 41279, Note_on_c, 9, 38, 105
8, 41279, Note_on_c, 9, 39, 105
8, 41279, Note_on_c, 9, 69, 70
8, 41287, Note_on_c, 9, 69, 0
8, 41287, Note_on_c, 9, 39, 0
8, 41287, Note_on_c, 9, 38, 0
8, 41407, Note_on_c, 9, 38, 105
8, 41407, Note_on_c, 9, 69, 54
8, 41415, Note_on_c, 9, 69, 0
8, 41415, Note_on_c, 9, 38, 0
8, 41471, Note_on_c, 9, 36, 105
8, 41471, Note_on_c, 9, 38, 80
8, 41471, Note_on_c, 9, 49, 108
8, 41471, Note_on_c, 9, 69, 70
8, 41479, Note_on_c, 9, 69, 0
8, 41479, Note_on_c, 9, 36, 0
8, 41479, Note_on_c, 9, 38, 0
8, 41479, Note_on_c, 9, 49, 0
8, 41599, Note_on_c, 9, 38, 64
8, 41599, Note_on_c, 9, 69, 54
8, 41607, Note_on_c, 9, 69, 0
8, 41607, Note_on_c, 9, 38, 0
8, 41663, Note_on_c, 9, 38, 105
8, 41663, Note_on_c, 9, 39, 105
8, 41663, Note_on_c, 9, 69, 70
8, 41671, Note_on_c, 9, 69, 0
8, 41671, Note_on_c, 9, 39, 0
8, 41671, Note_on_c, 9, 38, 0
8, 41791, Note_on_c, 9, 38, 64
8, 41791, Note_on_c, 9, 69, 54
8, 41799, Note_on_c, 9, 69, 0
8, 41799, Note_on_c, 9, 38, 0
8, 41855, Note_on_c, 9, 36, 105
8, 41855, Note_on_c, 9, 38, 80
8, 41855, Note_on_c, 9, 69, 70
8, 41863, Note_on_c, 9, 69, 0
8, 41863, Note_on_c, 9, 38, 0
8, 41863, Note_on_c, 9, 36, 0
8, 41983, Note_on_c, 9, 38, 64
8, 41983, Note_on_c, 9, 69, 54
8, 41991, Note_on_c, 9, 69, 0
8, 41991, Note_on_c, 9, 38, 0
8, 42047, Note_on_c, 9, 38, 105
8, 42047, Note_on_c, 9, 39, 105
8, 42047, Note_on_c, 9, 69, 70
8, 42055, Note_on_c, 9, 69, 0
8, 42055, Note_on_c, 9, 39, 0
8, 42055, Note_on_c, 9, 38, 0
8, 42175, Note_on_c, 9, 38, 64
8, 42175, Note_on_c, 9, 69, 54
8, 42183, Note_on_c, 9, 69, 0
8, 42183, Note_on_c, 9, 38, 0
8, 42239, Note_on_c, 9, 36, 105
8, 42239, Note_on_c, 9, 38, 80
8, 42239, Note_on_c, 9, 69, 70
8, 42247, Note_on_c, 9, 69, 0
8, 42247, Note_on_c, 9, 38, 0
8, 42247, Note_on_c, 9, 36, 0
8, 42367, Note_on_c, 9, 38, 64
8, 42367, Note_on_c, 9, 69, 54
8, 42375, Note_on_c, 9, 69, 0
8, 42375, Note_on_c, 9, 38, 0
8, 42431, Note_on_c, 9, 38, 105
8, 42431, Note_on_c, 9, 39, 105
8, 42431, Note_on_c, 9, 69, 70
8, 42439, Note_on_c, 9, 69, 0
8, 42439, Note_on_c, 9, 39, 0
8, 42439, Note_on_c, 9, 38, 0
8, 42559, Note_on_c, 9, 38, 64
8, 42559, Note_on_c, 9, 69, 54
8, 42567, Note_on_c, 9, 69, 0
8, 42567, Note_on_c, 9, 38, 0
8, 42623, Note_on_c, 9, 36, 105
8, 42623, Note_on_c, 9, 38, 80
8, 42623, Note_on_c, 9, 69, 70
8, 42631, Note_on_c, 9, 69, 0
8, 42631, Note_on_c, 9, 38, 0
8, 42631, Note_on_c, 9, 36, 0
8, 42751, Note_on_c, 9, 38, 64
8, 42751, Note_on_c, 9, 69, 54
8, 42759, Note_on_c, 9, 69, 0
8, 42759, Note_on_c, 9, 38, 0
8, 42815, Note_on_c, 9, 38, 105
8, 42815, Note_on_c, 9, 39, 105
8, 42815, Note_on_c, 9, 69, 70
8, 42823, Note_on_c, 9, 69, 0
8, 42823, Note_on_c, 9, 39, 0
8, 42823, Note_on_c, 9, 38, 0
8, 42943, Note_on_c, 9, 38, 64
8, 42943, Note_on_c, 9, 69, 54
8, 42951, Note_on_c, 9, 69, 0
8, 42951, Note_on_c, 9, 38, 0
8, 43007, Note_on_c, 9, 36, 105
8, 43007, Note_on_c, 9, 38, 80
8, 43007, Note_on_c, 9, 69, 70
8, 43015, Note_on_c, 9, 69, 0
8, 43015, Note_on_c, 9, 38, 0
8, 43015, Note_on_c, 9, 36, 0
8, 43135, Note_on_c, 9, 38, 64
8, 43135, Note_on_c, 9, 69, 54
8, 43143, Note_on_c, 9, 69, 0
8, 43143, Note_on_c, 9, 38, 0
8, 43199, Note_on_c, 9, 38, 105
8, 43199, Note_on_c, 9, 39, 105
8, 43199, Note_on_c, 9, 69, 70
8, 43207, Note_on_c, 9, 69, 0
8, 43207, Note_on_c, 9, 39, 0
8, 43207, Note_on_c, 9, 38, 0
8, 43327, Note_on_c, 9, 38, 64
8, 43327, Note_on_c, 9, 69, 54
8, 43335, Note_on_c, 9, 69, 0
8, 43335, Note_on_c, 9, 38, 0
8, 43391, Note_on_c, 9, 36, 105
8, 43391, Note_on_c, 9, 38, 80
8, 43391, Note_on_c, 9, 69, 70
8, 43399, Note_on_c, 9, 69, 0
8, 43399, Note_on_c, 9, 38, 0
8, 43399, Note_on_c, 9, 36, 0
8, 43519, Note_on_c, 9, 38, 64
8, 43519, Note_on_c, 9, 69, 54
8, 43527, Note_on_c, 9, 69, 0
8, 43527, Note_on_c, 9, 38, 0
8, 43583, Note_on_c, 9, 38, 105
8, 43583, Note_on_c, 9, 39, 105
8, 43583, Note_on_c, 9, 69, 70
8, 43591, Note_on_c, 9, 69, 0
8, 43591, Note_on_c, 9, 39, 0
8, 43591, Note_on_c, 9, 38, 0
8, 43711, Note_on_c, 9, 38, 64
8, 43711, Note_on_c, 9, 69, 54
8, 43719, Note_on_c, 9, 69, 0
8, 43719, Note_on_c, 9, 38, 0
8, 43775, Note_on_c, 9, 36, 105
8, 43775, Note_on_c, 9, 38, 80
8, 43775, Note_on_c, 9, 69, 70
8, 43783, Note_on_c, 9, 69, 0
8, 43783, Note_on_c, 9, 38, 0
8, 43783, Note_on_c, 9, 36, 0
8, 43903, Note_on_c, 9, 38, 64
8, 43903, Note_on_c, 9, 69, 54
8, 43911, Note_on_c, 9, 69, 0
8, 43911, Note_on_c, 9, 38, 0
8, 43967, Note_on_c, 9, 38, 105
8, 43967, Note_on_c, 9, 39, 105
8, 43967, Note_on_c, 9, 69, 70
8, 43975, Note_on_c, 9, 69, 0
8, 43975, Note_on_c, 9, 39, 0
8, 43975, Note_on_c, 9, 38, 0
8, 44095, Note_on_c, 9, 38, 64
8, 44095, Note_on_c, 9, 69, 54
8, 44103, Note_on_c, 9, 69, 0
8, 44103, Note_on_c, 9, 38, 0
8, 44159, Note_on_c, 9, 36, 105
8, 44159, Note_on_c, 9, 38, 80
8, 44159, Note_on_c, 9, 69, 70
8, 44167, Note_on_c, 9, 69, 0
8, 44167, Note_on_c, 9, 38, 0
8, 44167, Note_on_c, 9, 36, 0
8, 44287, Note_on_c, 9, 38, 64
8, 44287, Note_on_c, 9, 69, 54
8, 44295, Note_on_c, 9, 69, 0
8, 44295, Note_on_c, 9, 38, 0
8, 44351, Note_on_c, 9, 38, 105
8, 44351, Note_on_c, 9, 39, 105
8, 44351, Note_on_c, 9, 69, 70
8, 44359, Note_on_c, 9, 69, 0
8, 44359, Note_on_c, 9, 39, 0
8, 44359, Note_on_c, 9, 38, 0
8, 44479, Note_on_c, 9, 38, 64
8, 44479, Note_on_c, 9, 69, 54
8, 44487, Note_on_c, 9, 69, 0
8, 44487, Note_on_c, 9, 38, 0
8, 44543, Note_on_c, 9, 36, 105
8, 44543, Note_on_c, 9, 38, 80
8, 44543, Note_on_c, 9, 69, 70
8, 44551, Note_on_c, 9, 69, 0
8, 44551, Note_on_c, 9, 38, 0
8, 44551, Note_on_c, 9, 36, 0
8, 44671, Note_on_c, 9, 38, 64
8, 44671, Note_on_c, 9, 69, 54
8, 44679, Note_on_c, 9, 69, 0
8, 44679, Note_on_c, 9, 38, 0
8, 44735, Note_on_c, 9, 38, 105
8, 44735, Note_on_c, 9, 39, 105
8, 44735, Note_on_c, 9, 69, 70
8, 44743, Note_on_c, 9, 69, 0
8, 44743, Note_on_c, 9, 39, 0
8, 44743, Note_on_c, 9, 38, 0
8, 44863, Note_on_c, 9, 38, 64
8, 44863, Note_on_c, 9, 69, 54
8, 44871, Note_on_c, 9, 69, 0
8, 44871, Note_on_c, 9, 38, 0
8, 44927, Note_on_c, 9, 36, 105
8, 44927, Note_on_c, 9, 38, 80
8, 44927, Note_on_c, 9, 69, 70
8, 44935, Note_on_c, 9, 69, 0
8, 44935, Note_on_c, 9, 38, 0
8, 44935, Note_on_c, 9, 36, 0
8, 45055, Note_on_c, 9, 38, 64
8, 45055, Note_on_c, 9, 69, 54
8, 45063, Note_on_c, 9, 69, 0
8, 45063, Note_on_c, 9, 38, 0
8, 45119, Note_on_c, 9, 38, 105
8, 45119, Note_on_c, 9, 39, 105
8, 45119, Note_on_c, 9, 69, 70
8, 45127, Note_on_c, 9, 69, 0
8, 45127, Note_on_c, 9, 39, 0
8, 45127, Note_on_c, 9, 38, 0
8, 45247, Note_on_c, 9, 38, 64
8, 45247, Note_on_c, 9, 69, 54
8, 45255, Note_on_c, 9, 69, 0
8, 45255, Note_on_c, 9, 38, 0
8, 45311, Note_on_c, 9, 36, 105
8, 45311, Note_on_c, 9, 38, 80
8, 45311, Note_on_c, 9, 69, 70
8, 45319, Note_on_c, 9, 69, 0
8, 45319, Note_on_c, 9, 38, 0
8, 45319, Note_on_c, 9, 36, 0
8, 45439, Note_on_c, 9, 38, 64
8, 45439, Note_on_c, 9, 69, 54
8, 45447, Note_on_c, 9, 69, 0
8, 45447, Note_on_c, 9, 38, 0
8, 45503, Note_on_c, 9, 38, 105
8, 45503, Note_on_c, 9, 39, 105
8, 45503, Note_on_c, 9, 69, 70
8, 45511, Note_on_c, 9, 69, 0
8, 45511, Note_on_c, 9, 39, 0
8, 45511, Note_on_c, 9, 38, 0
8, 45631, Note_on_c, 9, 38, 64
8, 45631, Note_on_c, 9, 69, 54
8, 45639, Note_on_c, 9, 69, 0
8, 45639, Note_on_c, 9, 38, 0
8, 45695, Note_on_c, 9, 36, 105
8, 45695, Note_on_c, 9, 38, 80
8, 45695, Note_on_c, 9, 69, 70
8, 45703, Note_on_c, 9, 69, 0
8, 45703, Note_on_c, 9, 38, 0
8, 45703, Note_on_c, 9, 36, 0
8, 45823, Note_on_c, 9, 38, 64
8, 45823, Note_on_c, 9, 69, 54
8, 45831, Note_on_c, 9, 69, 0
8, 45831, Note_on_c, 9, 38, 0
8, 45887, Note_on_c, 9, 38, 105
8, 45887, Note_on_c, 9, 39, 105
8, 45887, Note_on_c, 9, 69, 70
8, 45895, Note_on_c, 9, 69, 0
8, 45895, Note_on_c, 9, 39, 0
8, 45895, Note_on_c, 9, 38, 0
8, 46015, Note_on_c, 9, 38, 64
8, 46015, Note_on_c, 9, 69, 54
8, 46023, Note_on_c, 9, 69, 0
8, 46023, Note_on_c, 9, 38, 0
8, 46079, Note_on_c, 9, 36, 105
8, 46079, Note_on_c, 9, 38, 80
8, 46079, Note_on_c, 9, 69, 70
8, 46087, Note_on_c, 9, 69, 0
8, 46087, Note_on_c, 9, 38, 0
8, 46087, Note_on_c, 9, 36, 0
8, 46207, Note_on_c, 9, 38, 64
8, 46207, Note_on_c, 9, 69, 54
8, 46215, Note_on_c, 9, 69, 0
8, 46215, Note_on_c, 9, 38, 0
8, 46271, Note_on_c, 9, 38, 105
8, 46271, Note_on_c, 9, 39, 105
8, 46271, Note_on_c, 9, 69, 70
8, 46279, Note_on_c, 9, 69, 0
8, 46279, Note_on_c, 9, 39, 0
8, 46279, Note_on_c, 9, 38, 0
8, 46399, Note_on_c, 9, 38, 64
8, 46399, Note_on_c, 9, 69, 54
8, 46407, Note_on_c, 9, 69, 0
8, 46407, Note_on_c, 9, 38, 0
8, 46463, Note_on_c, 9, 36, 105
8, 46463, Note_on_c, 9, 38, 80
8, 46463, Note_on_c, 9, 69, 70
8, 46471, Note_on_c, 9, 69, 0
8, 46471, Note_on_c, 9, 38, 0
8, 46471, Note_on_c, 9, 36, 0
8, 46591, Note_on_c, 9, 38, 64
8, 46591, Note_on_c, 9, 69, 54
8, 46599, Note_on_c, 9, 69, 0
8, 46599, Note_on_c, 9, 38, 0
8, 46655, Note_on_c, 9, 38, 105
8, 46655, Note_on_c, 9, 39, 105
8, 46655, Note_on_c, 9, 69, 70
8, 46663, Note_on_c, 9, 69, 0
8, 46663, Note_on_c, 9, 39, 0
8, 46663, Note_on_c, 9, 38, 0
8, 46783, Note_on_c, 9, 38, 64
8, 46783, Note_on_c, 9, 69, 54
8, 46791, Note_on_c, 9, 69, 0
8, 46791, Note_on_c, 9, 38, 0
8, 46847, Note_on_c, 9, 36, 105
8, 46847, Note_on_c, 9, 38, 80
8, 46847, Note_on_c, 9, 69, 70
8, 46855, Note_on_c, 9, 69, 0
8, 46855, Note_on_c, 9, 38, 0
8, 46855, Note_on_c, 9, 36, 0
8, 46975, Note_on_c, 9, 38, 64
8, 46975, Note_on_c, 9, 69, 54
8, 46983, Note_on_c, 9, 69, 0
8, 46983, Note_on_c, 9, 38, 0
8, 47039, Note_on_c, 9, 38, 105
8, 47039, Note_on_c, 9, 39, 105
8, 47039, Note_on_c, 9, 69, 70
8, 47047, Note_on_c, 9, 69, 0
8, 47047, Note_on_c, 9, 39, 0
8, 47047, Note_on_c, 9, 38, 0
8, 47166, Note_on_c, 9, 38, 64
8, 47166, Note_on_c, 9, 69, 54
8, 47174, Note_on_c, 9, 69, 0
8, 47174, Note_on_c, 9, 38, 0
8, 47231, Note_on_c, 9, 36, 105
8, 47231, Note_on_c, 9, 38, 80
8, 47231, Note_on_c, 9, 69, 70
8, 47239, Note_on_c, 9, 69, 0
8, 47239, Note_on_c, 9, 38, 0
8, 47239, Note_on_c, 9, 36, 0
8, 47359, Note_on_c, 9, 38, 64
8, 47359, Note_on_c, 9, 69, 54
8, 47367, Note_on_c, 9, 69, 0
8, 47367, Note_on_c, 9, 38, 0
8, 47423, Note_on_c, 9, 38, 105
8, 47423, Note_on_c, 9, 39, 105
8, 47423, Note_on_c, 9, 69, 70
8, 47431, Note_on_c, 9, 69, 0
8, 47431, Note_on_c, 9, 39, 0
8, 47431, Note_on_c, 9, 38, 0
8, 47551, Note_on_c, 9, 38, 105
8, 47551, Note_on_c, 9, 69, 54
8, 47559, Note_on_c, 9, 69, 0
8, 47559, Note_on_c, 9, 38, 0
8, 47615, Note_on_c, 9, 36, 105
8, 47615, Note_on_c, 9, 38, 80
8, 47615, Note_on_c, 9, 49, 108
8, 47615, Note_on_c, 9, 69, 70
8, 47623, Note_on_c, 9, 69, 0
8, 47623, Note_on_c, 9, 36, 0
8, 47623, Note_on_c, 9, 38, 0
8, 47623, Note_on_c, 9, 49, 0
8, 47743, Note_on_c, 9, 38, 64
8, 47743, Note_on_c, 9, 69, 54
8, 47751, Note_on_c, 9, 69, 0
8, 47751, Note_on_c, 9, 38, 0
8, 47807, Note_on_c, 9, 38, 105
8, 47807, Note_on_c, 9, 39, 105
8, 47807, Note_on_c, 9, 69, 70
8, 47815, Note_on_c, 9, 69, 0
8, 47815, Note_on_c, 9, 39, 0
8, 47815, Note_on_c, 9, 38, 0
8, 47935, Note_on_c, 9, 38, 64
8, 47935, Note_on_c, 9, 69, 54
8, 47943, Note_on_c, 9, 69, 0
8, 47943, Note_on_c, 9, 38, 0
8, 47999, Note_on_c, 9, 36, 105
8, 47999, Note_on_c, 9, 38, 80
8, 47999, Note_on_c, 9, 69, 70
8, 48007, Note_on_c, 9, 69, 0
8, 48007, Note_on_c, 9, 38, 0
8, 48007, Note_on_c, 9, 36, 0
8, 48127, Note_on_c, 9, 38, 64
8, 48127, Note_on_c, 9, 69, 54
8, 48135, Note_on_c, 9, 69, 0
8, 48135, Note_on_c, 9, 38, 0
8, 48191, Note_on_c, 9, 38, 105
8, 48191, Note_on_c, 9, 39, 105
8, 48191, Note_on_c, 9, 69, 70
8, 48199, Note_on_c, 9, 69, 0
8, 48199, Note_on_c, 9, 39, 0
8, 48199, Note_on_c, 9, 38, 0
8, 48319, Note_on_c, 9, 38, 64
8, 48319, Note_on_c, 9, 69, 54
8, 48327, Note_on_c, 9, 69, 0
8, 48327, Note_on_c, 9, 38, 0
8, 48383, Note_on_c, 9, 36, 105
8, 48383, Note_on_c, 9, 38, 80
8, 48383, Note_on_c, 9, 69, 70
8, 48391, Note_on_c, 9, 69, 0
8, 48391, Note_on_c, 9, 38, 0
8, 48391, Note_on_c, 9, 36, 0
8, 48511, Note_on_c, 9, 38, 64
8, 48511, Note_on_c, 9, 69, 54
8, 48519, Note_on_c, 9, 69, 0
8, 48519, Note_on_c, 9, 38, 0
8, 48575, Note_on_c, 9, 38, 105
8, 48575, Note_on_c, 9, 39, 105
8, 48575, Note_on_c, 9, 69, 70
8, 48583, Note_on_c, 9, 69, 0
8, 48583, Note_on_c, 9, 39, 0
8, 48583, Note_on_c, 9, 38, 0
8, 48703, Note_on_c, 9, 38, 64
8, 48703, Note_on_c, 9, 69, 54
8, 48711, Note_on_c, 9, 69, 0
8, 48711, Note_on_c, 9, 38, 0
8, 48767, Note_on_c, 9, 36, 105
8, 48767, Note_on_c, 9, 38, 80
8, 48767, Note_on_c, 9, 69, 70
8, 48775, Note_on_c, 9, 69, 0
8, 48775, Note_on_c, 9, 38, 0
8, 48775, Note_on_c, 9, 36, 0
8, 48895, Note_on_c, 9, 38, 64
8, 48895, Note_on_c, 9, 69, 54
8, 48903, Note_on_c, 9, 69, 0
8, 48903, Note_on_c, 9, 38, 0
8, 48959, Note_on_c, 9, 38, 105
8, 48959, Note_on_c, 9, 39, 105
8, 48959, Note_on_c, 9, 69, 70
8, 48967, Note_on_c, 9, 69, 0
8, 48967, Note_on_c, 9, 39, 0
8, 48967, Note_on_c, 9, 38, 0
8, 49087, Note_on_c, 9, 38, 64
8, 49087, Note_on_c, 9, 69, 54
8, 49095, Note_on_c, 9, 69, 0
8, 49095, Note_on_c, 9, 38, 0
8, 49151, Note_on_c, 9, 36, 105
8, 49151, Note_on_c, 9, 38, 80
8, 49151, Note_on_c, 9, 69, 70
8, 49159, Note_on_c, 9, 69, 0
8, 49159, Note_on_c, 9, 38, 0
8, 49159, Note_on_c, 9, 36, 0
8, 49279, Note_on_c, 9, 38, 64
8, 49279, Note_on_c, 9, 69, 54
8, 49287, Note_on_c, 9, 69, 0
8, 49287, Note_on_c, 9, 38, 0
8, 49343, Note_on_c, 9, 38, 105
8, 49343, Note_on_c, 9, 39, 105
8, 49343, Note_on_c, 9, 69, 70
8, 49351, Note_on_c, 9, 69, 0
8, 49351, Note_on_c, 9, 39, 0
8, 49351, Note_on_c, 9, 38, 0
8, 49471, Note_on_c, 9, 38, 64
8, 49471, Note_on_c, 9, 69, 54
8, 49479, Note_on_c, 9, 69, 0
8, 49479, Note_on_c, 9, 38, 0
8, 49535, Note_on_c, 9, 36, 105
8, 49535, Note_on_c, 9, 38, 80
8, 49535, Note_on_c, 9, 69, 70
8, 49543, Note_on_c, 9, 69, 0
8, 49543, Note_on_c, 9, 38, 0
8, 49543, Note_on_c, 9, 36, 0
8, 49662, Note_on_c, 9, 38, 64
8, 49662, Note_on_c, 9, 69, 54
8, 49670, Note_on_c, 9, 69, 0
8, 49670, Note_on_c, 9, 38, 0
8, 49727, Note_on_c, 9, 38, 105
8, 49727, Note_on_c, 9, 39, 105
8, 49727, Note_on_c, 9, 69, 70
8, 49735, Note_on_c, 9, 69, 0
8, 49735, Note_on_c, 9, 39, 0
8, 49735, Note_on_c, 9, 38, 0
8, 49855, Note_on_c, 9, 38, 64
8, 49855, Note_on_c, 9, 69, 54
8, 49863, Note_on_c, 9, 69, 0
8, 49863, Note_on_c, 9, 38, 0
8, 49919, Note_on_c, 9, 36, 105
8, 49919, Note_on_c, 9, 38, 80
8, 49919, Note_on_c, 9, 69, 70
8, 49927, Note_on_c, 9, 69, 0
8, 49927, Note_on_c, 9, 38, 0
8, 49927, Note_on_c, 9, 36, 0
8, 50047, Note_on_c, 9, 38, 64
8, 50047, Note_on_c, 9, 69, 54
8, 50055, Note_on_c, 9, 69, 0
8, 50055, Note_on_c, 9, 38, 0
8, 50111, Note_on_c, 9, 38, 105
8, 50111, Note_on_c, 9, 39, 105
8, 50111, Note_on_c, 9, 69, 70
8, 50119, Note_on_c, 9, 69, 0
8, 50119, Note_on_c, 9, 39, 0
8, 50119, Note_on_c, 9, 38, 0
8, 50239, Note_on_c, 9, 38, 64
8, 50239, Note_on_c, 9, 69, 54
8, 50247, Note_on_c, 9, 69, 0
8, 50247, Note_on_c, 9, 38, 0
8, 50303, Note_on_c, 9, 36, 105
8, 50303, Note_on_c, 9, 38, 80
8, 50303, Note_on_c, 9, 69, 70
8, 50311, Note_on_c, 9, 69, 0
8, 50311, Note_on_c, 9, 38, 0
8, 50311, Note_on_c, 9, 36, 0
8, 50431, Note_on_c, 9, 38, 64
8, 50431, Note_on_c, 9, 69, 54
8, 50439, Note_on_c, 9, 69, 0
8, 50439, Note_on_c, 9, 38, 0
8, 50495, Note_on_c, 9, 38, 105
8, 50495, Note_on_c, 9, 39, 105
8, 50495, Note_on_c, 9, 69, 70
8, 50503, Note_on_c, 9, 69, 0
8, 50503, Note_on_c, 9, 39, 0
8, 50503, Note_on_c, 9, 38, 0
8, 50623, Note_on_c, 9, 38, 64
8, 50623, Note_on_c, 9, 69, 54
8, 50631, Note_on_c, 9, 69, 0
8, 50631, Note_on_c, 9, 38, 0
8, 50687, Note_on_c, 9, 36, 105
8, 50687, Note_on_c, 9, 38, 80
8, 50687, Note_on_c, 9, 69, 70
8, 50695, Note_on_c, 9, 69, 0
8, 50695, Note_on_c, 9, 38, 0
8, 50695, Note_on_c, 9, 36, 0
8, 50815, Note_on_c, 9, 38, 64
8, 50815, Note_on_c, 9, 69, 54
8, 50823, Note_on_c, 9, 69, 0
8, 50823, Note_on_c, 9, 38, 0
8, 50879, Note_on_c, 9, 38, 105
8, 50879, Note_on_c, 9, 39, 105
8, 50879, Note_on_c, 9, 69, 70
8, 50887, Note_on_c, 9, 69, 0
8, 50887, Note_on_c, 9, 39, 0
8, 50887, Note_on_c, 9, 38, 0
8, 51007, Note_on_c, 9, 38, 64
8, 51007, Note_on_c, 9, 69, 54
8, 51015, Note_on_c, 9, 69, 0
8, 51015, Note_on_c, 9, 38, 0
8, 51071, Note_on_c, 9, 36, 105
8, 51071, Note_on_c, 9, 38, 80
8, 51071, Note_on_c, 9, 69, 70
8, 51079, Note_on_c, 9, 69, 0
8, 51079, Note_on_c, 9, 38, 0
8, 51079, Note_on_c, 9, 36, 0
8, 51199, Note_on_c, 9, 38, 64
8, 51199, Note_on_c, 9, 69, 54
8, 51207, Note_on_c, 9, 69, 0
8, 51207, Note_on_c, 9, 38, 0
8, 51263, Note_on_c, 9, 38, 105
8, 51263, Note_on_c, 9, 39, 105
8, 51263, Note_on_c, 9, 69, 70
8, 51271, Note_on_c, 9, 69, 0
8, 51271, Note_on_c, 9, 39, 0
8, 51271, Note_on_c, 9, 38, 0
8, 51391, Note_on_c, 9, 38, 64
8, 51391, Note_on_c, 9, 69, 54
8, 51399, Note_on_c, 9, 69, 0
8, 51399, Note_on_c, 9, 38, 0
8, 51455, Note_on_c, 9, 36, 105
8, 51455, Note_on_c, 9, 38, 80
8, 51455, Note_on_c, 9, 69, 70
8, 51463, Note_on_c, 9, 69, 0
8, 51463, Note_on_c, 9, 38, 0
8, 51463, Note_on_c, 9, 36, 0
8, 51583, Note_on_c, 9, 38, 64
8, 51583, Note_on_c, 9, 69, 54
8, 51591, Note_on_c, 9, 69, 0
8, 51591, Note_on_c, 9, 38, 0
8, 51647, Note_on_c, 9, 38, 105
8, 51647, Note_on_c, 9, 39, 105
8, 51647, Note_on_c, 9, 69, 70
8, 51655, Note_on_c, 9, 69, 0
8, 51655, Note_on_c, 9, 39, 0
8, 51655, Note_on_c, 9, 38, 0
8, 51775, Note_on_c, 9, 38, 64
8, 51775, Note_on_c, 9, 69, 54
8, 51783, Note_on_c, 9, 69, 0
8, 51783, Note_on_c, 9, 38, 0
8, 51839, Note_on_c, 9, 36, 105
8, 51839, Note_on_c, 9, 38, 80
8, 51839, Note_on_c, 9, 69, 70
8, 51847, Note_on_c, 9, 69, 0
8, 51847, Note_on_c, 9, 38, 0
8, 51847, Note_on_c, 9, 36, 0
8, 51967, Note_on_c, 9, 38, 64
8, 51967, Note_on_c, 9, 69, 54
8, 51975, Note_on_c, 9, 69, 0
8, 51975, Note_on_c, 9, 38, 0
8, 52031, Note_on_c, 9, 38, 105
8, 52031, Note_on_c, 9, 39, 105
8, 52031, Note_on_c, 9, 69, 70
8, 52039, Note_on_c, 9, 69, 0
8, 52039, Note_on_c, 9, 39, 0
8, 52039, Note_on_c, 9, 38, 0
8, 52159, Note_on_c, 9, 38, 64
8, 52159, Note_on_c, 9, 69, 54
8, 52167, Note_on_c, 9, 69, 0
8, 52167, Note_on_c, 9, 38, 0
8, 52223, Note_on_c, 9, 36, 105
8, 52223, Note_on_c, 9, 38, 80
8, 52223, Note_on_c, 9, 69, 70
8, 52231, Note_on_c, 9, 69, 0
8, 52231, Note_on_c, 9, 38, 0
8, 52231, Note_on_c, 9, 36, 0
8, 52351, Note_on_c, 9, 38, 64
8, 52351, Note_on_c, 9, 69, 54
8, 52359, Note_on_c, 9, 69, 0
8, 52359, Note_on_c, 9, 38, 0
8, 52415, Note_on_c, 9, 38, 105
8, 52415, Note_on_c, 9, 39, 105
8, 52415, Note_on_c, 9, 69, 70
8, 52423, Note_on_c, 9, 69, 0
8, 52423, Note_on_c, 9, 39, 0
8, 52423, Note_on_c, 9, 38, 0
8, 52543, Note_on_c, 9, 38, 64
8, 52543, Note_on_c, 9, 69, 54
8, 52551, Note_on_c, 9, 69, 0
8, 52551, Note_on_c, 9, 38, 0
8, 52607, Note_on_c, 9, 36, 105
8, 52607, Note_on_c, 9, 38, 80
8, 52607, Note_on_c, 9, 69, 70
8, 52615, Note_on_c, 9, 69, 0
8, 52615, Note_on_c, 9, 38, 0
8, 52615, Note_on_c, 9, 36, 0
8, 52735, Note_on_c, 9, 38, 64
8, 52735, Note_on_c, 9, 69, 54
8, 52743, Note_on_c, 9, 69, 0
8, 52743, Note_on_c, 9, 38, 0
8, 52799, Note_on_c, 9, 38, 105
8, 52799, Note_on_c, 9, 39, 105
8, 52799, Note_on_c, 9, 69, 70
8, 52807, Note_on_c, 9, 69, 0
8, 52807, Note_on_c, 9, 39, 0
8, 52807, Note_on_c, 9, 38, 0
8, 52927, Note_on_c, 9, 38, 64
8, 52927, Note_on_c, 9, 69, 54
8, 52935, Note_on_c, 9, 69, 0
8, 52935, Note_on_c, 9, 38, 0
8, 52991, Note_on_c, 9, 36, 105
8, 52991, Note_on_c, 9, 38, 80
8, 52991, Note_on_c, 9, 69, 70
8, 52999, Note_on_c, 9, 69, 0
8, 52999, Note_on_c, 9, 38, 0
8, 52999, Note_on_c, 9, 36, 0
8, 53055, Note_on_c, 9, 38, 64
8, 53063, Note_on_c, 9, 38, 0
8, 53119, Note_on_c, 9, 38, 80
8, 53119, Note_on_c, 9, 69, 54
8, 53127, Note_on_c, 9, 69, 0
8, 53127, Note_on_c, 9, 38, 0
8, 53183, Note_on_c, 9, 38, 105
8, 53183, Note_on_c, 9, 39, 105
8, 53183, Note_on_c, 9, 69, 70
8, 53191, Note_on_c, 9, 69, 0
8, 53191, Note_on_c, 9, 39, 0
8, 53191, Note_on_c, 9, 38, 0
8, 53311, Note_on_c, 9, 38, 105
8, 53311, Note_on_c, 9, 69, 54
8, 53319, Note_on_c, 9, 69, 0
8, 53319, Note_on_c, 9, 38, 0
8, 53375, Note_on_c, 9, 36, 105
8, 53375, Note_on_c, 9, 38, 80
8, 53375, Note_on_c, 9, 69, 70
8, 53383, Note_on_c, 9, 69, 0
8, 53383, Note_on_c, 9, 38, 0
8, 53383, Note_on_c, 9, 36, 0
8, 53439, Note_on_c, 9, 38, 64
8, 53447, Note_on_c, 9, 38, 0
8, 53503, Note_on_c, 9, 38, 80
8, 53503, Note_on_c, 9, 69, 54
8, 53511, Note_on_c, 9, 69, 0
8, 53511, Note_on_c, 9, 38, 0
8, 53567, Note_on_c, 9, 38, 105
8, 53567, Note_on_c, 9, 39, 105
8, 53567, Note_on_c, 9, 69, 70
8, 53575, Note_on_c, 9, 69, 0
8, 53575, Note_on_c, 9, 39, 0
8, 53575, Note_on_c, 9, 38, 0
8, 53695, Note_on_c, 9, 38, 105
8, 53695, Note_on_c, 9, 69, 54
8, 53703, Note_on_c, 9, 69, 0
8, 53703, Note_on_c, 9, 38, 0
8, 53759, Note_on_c, 9, 36, 105
8, 53759, Note_on_c, 9, 38, 80
8, 53759, Note_on_c, 9, 49, 108
8, 53759, Note_on_c, 9, 69, 70
8, 53767, Note_on_c, 9, 69, 0
8, 53767, Note_on_c, 9, 36, 0
8, 53767, Note_on_c, 9, 38, 0
8, 53767, Note_on_c, 9, 49, 0
8, 53887, Note_on_c, 9, 38, 64
8, 53887, Note_on_c, 9, 69, 54
8, 53895, Note_on_c, 9, 69, 0
8, 53895, Note_on_c, 9, 38, 0
8, 53951, Note_on_c, 9, 38, 105
8, 53951, Note_on_c, 9, 39, 105
8, 53951, Note_on_c, 9, 69, 70
8, 53959, Note_on_c, 9, 69, 0
8, 53959, Note_on_c, 9, 39, 0
8, 53959, Note_on_c, 9, 38, 0
8, 54079, Note_on_c, 9, 38, 64
8, 54079, Note_on_c, 9, 69, 54
8, 54087, Note_on_c, 9, 69, 0
8, 54087, Note_on_c, 9, 38, 0
8, 54143, Note_on_c, 9, 36, 105
8, 54143, Note_on_c, 9, 38, 80
8, 54143, Note_on_c, 9, 69, 70
8, 54151, Note_on_c, 9, 69, 0
8, 54151, Note_on_c, 9, 38, 0
8, 54151, Note_on_c, 9, 36, 0
8, 54271, Note_on_c, 9, 38, 64
8, 54271, Note_on_c, 9, 69, 54
8, 54279, Note_on_c, 9, 69, 0
8, 54279, Note_on_c, 9, 38, 0
8, 54335, Note_on_c, 9, 38, 105
8, 54335, Note_on_c, 9, 39, 105
8, 54335, Note_on_c, 9, 69, 70
8, 54343, Note_on_c, 9, 69, 0
8, 54343, Note_on_c, 9, 39, 0
8, 54343, Note_on_c, 9, 38, 0
8, 54463, Note_on_c, 9, 38, 64
8, 54463, Note_on_c, 9, 69, 54
8, 54471, Note_on_c, 9, 69, 0
8, 54471, Note_on_c, 9, 38, 0
8, 54527, Note_on_c, 9, 36, 105
8, 54527, Note_on_c, 9, 38, 80
8, 54527, Note_on_c, 9, 69, 70
8, 54535, Note_on_c, 9, 69, 0
8, 54535, Note_on_c, 9, 38, 0
8, 54535, Note_on_c, 9, 36, 0
8, 54655, Note_on_c, 9, 38, 64
8, 54655, Note_on_c, 9, 69, 54
8, 54663, Note_on_c, 9, 69, 0
8, 54663, Note_on_c, 9, 38, 0
8, 54719, Note_on_c, 9, 38, 105
8, 54719, Note_on_c, 9, 39, 105
8, 54719, Note_on_c, 9, 69, 70
8, 54727, Note_on_c, 9, 69, 0
8, 54727, Note_on_c, 9, 39, 0
8, 54727, Note_on_c, 9, 38, 0
8, 54847, Note_on_c, 9, 38, 64
8, 54847, Note_on_c, 9, 69, 54
8, 54855, Note_on_c, 9, 69, 0
8, 54855, Note_on_c, 9, 38, 0
8, 54911, Note_on_c, 9, 36, 105
8, 54911, Note_on_c, 9, 38, 80
8, 54911, Note_on_c, 9, 69, 70
8, 54919, Note_on_c, 9, 69, 0
8, 54919, Note_on_c, 9, 38, 0
8, 54919, Note_on_c, 9, 36, 0
8, 55039, Note_on_c, 9, 38, 64
8, 55039, Note_on_c, 9, 69, 54
8, 55047, Note_on_c, 9, 69, 0
8, 55047, Note_on_c, 9, 38, 0
8, 55103, Note_on_c, 9, 38, 105
8, 55103, Note_on_c, 9, 39, 105
8, 55103, Note_on_c, 9, 69, 70
8, 55111, Note_on_c, 9, 69, 0
8, 55111, Note_on_c, 9, 39, 0
8, 55111, Note_on_c, 9, 38, 0
8, 55231, Note_on_c, 9, 38, 64
8, 55231, Note_on_c, 9, 69, 54
8, 55239, Note_on_c, 9, 69, 0
8, 55239, Note_on_c, 9, 38, 0
8, 55295, Note_on_c, 9, 36, 105
8, 55295, Note_on_c, 9, 38, 80
8, 55295, Note_on_c, 9, 69, 70
8, 55303, Note_on_c, 9, 69, 0
8, 55303, Note_on_c, 9, 38, 0
8, 55303, Note_on_c, 9, 36, 0
8, 55423, Note_on_c, 9, 38, 64
8, 55423, Note_on_c, 9, 69, 54
8, 55431, Note_on_c, 9, 69, 0
8, 55431, Note_on_c, 9, 38, 0
8, 55487, Note_on_c, 9, 38, 105
8, 55487, Note_on_c, 9, 39, 105
8, 55487, Note_on_c, 9, 69, 70
8, 55495, Note_on_c, 9, 69, 0
8, 55495, Note_on_c, 9, 39, 0
8, 55495, Note_on_c, 9, 38, 0
8, 55615, Note_on_c, 9, 38, 64
8, 55615, Note_on_c, 9, 69, 54
8, 55623, Note_on_c, 9, 69, 0
8, 55623, Note_on_c, 9, 38, 0
8, 55679, Note_on_c, 9, 36, 105
8, 55679, Note_on_c, 9, 38, 80
8, 55679, Note_on_c, 9, 69, 70
8, 55687, Note_on_c, 9, 69, 0
8, 55687, Note_on_c, 9, 38, 0
8, 55687, Note_on_c, 9, 36, 0
8, 55807, Note_on_c, 9, 38, 64
8, 55807, Note_on_c, 9, 69, 54
8, 55815, Note_on_c, 9, 69, 0
8, 55815, Note_on_c, 9, 38, 0
8, 55871, Note_on_c, 9, 38, 105
8, 55871, Note_on_c, 9, 39, 105
8, 55871, Note_on_c, 9, 69, 70
8, 55879, Note_on_c, 9, 69, 0
8, 55879, Note_on_c, 9, 39, 0
8, 55879, Note_on_c, 9, 38, 0
8, 55999, Note_on_c, 9, 38, 64
8, 55999, Note_on_c, 9, 69, 54
8, 56007, Note_on_c, 9, 69, 0
8, 56007, Note_on_c, 9, 38, 0
8, 56063, Note_on_c, 9, 36, 105
8, 56063, Note_on_c, 9, 38, 80
8, 56063, Note_on_c, 9, 69, 70
8, 56071, Note_on_c, 9, 69, 0
8, 56071, Note_on_c, 9, 38, 0
8, 56071, Note_on_c, 9, 36, 0
8, 56191, Note_on_c, 9, 38, 64
8, 56191, Note_on_c, 9, 69, 54
8, 56199, Note_on_c, 9, 69, 0
8, 56199, Note_on_c, 9, 38, 0
8, 56255, Note_on_c, 9, 38, 105
8, 56255, Note_on_c, 9, 39, 105
8, 56255, Note_on_c, 9, 69, 70
8, 56263, Note_on_c, 9, 69, 0
8, 56263, Note_on_c, 9, 39, 0
8, 56263, Note_on_c, 9, 38, 0
8, 56383, Note_on_c, 9, 38, 64
8, 56383, Note_on_c, 9, 69, 54
8, 56391, Note_on_c, 9, 69, 0
8, 56391, Note_on_c, 9, 38, 0
8, 56447, Note_on_c, 9, 36, 105
8, 56447, Note_on_c, 9, 38, 80
8, 56447, Note_on_c, 9, 69, 70
8, 56455, Note_on_c, 9, 69, 0
8, 56455, Note_on_c, 9, 38, 0
8, 56455, Note_on_c, 9, 36, 0
8, 56575, Note_on_c, 9, 38, 64
8, 56575, Note_on_c, 9, 69, 54
8, 56583, Note_on_c, 9, 69, 0
8, 56583, Note_on_c, 9, 38, 0
8, 56639, Note_on_c, 9, 38, 105
8, 56639, Note_on_c, 9, 39, 105
8, 56639, Note_on_c, 9, 69, 70
8, 56647, Note_on_c, 9, 69, 0
8, 56647, Note_on_c, 9, 39, 0
8, 56647, Note_on_c, 9, 38, 0
8, 56767, Note_on_c, 9, 38, 64
8, 56767, Note_on_c, 9, 69, 54
8, 56775, Note_on_c, 9, 69, 0
8, 56775, Note_on_c, 9, 38, 0
8, 56831, Note_on_c, 9, 36, 105
8, 56831, Note_on_c, 9, 38, 80
8, 56831, Note_on_c, 9, 69, 70
8, 56839, Note_on_c, 9, 69, 0
8, 56839, Note_on_c, 9, 38, 0
8, 56839, Note_on_c, 9, 36, 0
8, 56959, Note_on_c, 9, 38, 64
8, 56959, Note_on_c, 9, 69, 54
8, 56967, Note_on_c, 9, 69, 0
8, 56967, Note_on_c, 9, 38, 0
8, 57023, Note_on_c, 9, 38, 105
8, 57023, Note_on_c, 9, 39, 105
8, 57023, Note_on_c, 9, 69, 70
8, 57031, Note_on_c, 9, 69, 0
8, 57031, Note_on_c, 9, 39, 0
8, 57031, Note_on_c, 9, 38, 0
8, 57151, Note_on_c, 9, 38, 64
8, 57151, Note_on_c, 9, 69, 54
8, 57159, Note_on_c, 9, 69, 0
8, 57159, Note_on_c, 9, 38, 0
8, 57215, Note_on_c, 9, 36, 105
8, 57215, Note_on_c, 9, 38, 80
8, 57215, Note_on_c, 9, 69, 70
8, 57223, Note_on_c, 9, 69, 0
8, 57223, Note_on_c, 9, 38, 0
8, 57223, Note_on_c, 9, 36, 0
8, 57343, Note_on_c, 9, 38, 64
8, 57343, Note_on_c, 9, 69, 54
8, 57351, Note_on_c, 9, 69, 0
8, 57351, Note_on_c, 9, 38, 0
8, 57407, Note_on_c, 9, 38, 105
8, 57407, Note_on_c, 9, 39, 105
8, 57407, Note_on_c, 9, 69, 70
8, 57415, Note_on_c, 9, 69, 0
8, 57415, Note_on_c, 9, 39, 0
8, 57415, Note_on_c, 9, 38, 0
8, 57535, Note_on_c, 9, 38, 64
8, 57535, Note_on_c, 9, 69, 54
8, 57543, Note_on_c, 9, 69, 0
8, 57543, Note_on_c, 9, 38, 0
8, 57599, Note_on_c, 9, 36, 105
8, 57599, Note_on_c, 9, 38, 80
8, 57599, Note_on_c, 9, 69, 70
8, 57607, Note_on_c, 9, 69, 0
8, 57607, Note_on_c, 9, 38, 0
8, 57607, Note_on_c, 9, 36, 0
8, 57727, Note_on_c, 9, 38, 64
8, 57727, Note_on_c, 9, 69, 54
8, 57735, Note_on_c, 9, 69, 0
8, 57735, Note_on_c, 9, 38, 0
8, 57790, Note_on_c, 9, 38, 105
8, 57790, Note_on_c, 9, 39, 105
8, 57790, Note_on_c, 9, 69, 70
8, 57798, Note_on_c, 9, 69, 0
8, 57798, Note_on_c, 9, 39, 0
8, 57798, Note_on_c, 9, 38, 0
8, 57919, Note_on_c, 9, 38, 64
8, 57919, Note_on_c, 9, 69, 54
8, 57927, Note_on_c, 9, 69, 0
8, 57927, Note_on_c, 9, 38, 0
8, 57983, Note_on_c, 9, 36, 105
8, 57983, Note_on_c, 9, 38, 80
8, 57983, Note_on_c, 9, 69, 70
8, 57991, Note_on_c, 9, 69, 0
8, 57991, Note_on_c, 9, 38, 0
8, 57991, Note_on_c, 9, 36, 0
8, 58111, Note_on_c, 9, 38, 64
8, 58111, Note_on_c, 9, 69, 54
8, 58119, Note_on_c, 9, 69, 0
8, 58119, Note_on_c, 9, 38, 0
8, 58175, Note_on_c, 9, 38, 105
8, 58175, Note_on_c, 9, 39, 105
8, 58175, Note_on_c, 9, 69, 70
8, 58183, Note_on_c, 9, 69, 0
8, 58183, Note_on_c, 9, 39, 0
8, 58183, Note_on_c, 9, 38, 0
8, 58302, Note_on_c, 9, 38, 64
8, 58302, Note_on_c, 9, 69, 54
8, 58310, Note_on_c, 9, 69, 0
8, 58310, Note_on_c, 9, 38, 0
8, 58367, Note_on_c, 9, 36, 105
8, 58367, Note_on_c, 9, 38, 80
8, 58367, Note_on_c, 9, 69, 70
8, 58375, Note_on_c, 9, 69, 0
8, 58375, Note_on_c, 9, 38, 0
8, 58375, Note_on_c, 9, 36, 0
8, 58495, Note_on_c, 9, 38, 64
8, 58495, Note_on_c, 9, 69, 54
8, 58503, Note_on_c, 9, 69, 0
8, 58503, Note_on_c, 9, 38, 0
8, 58559, Note_on_c, 9, 38, 105
8, 58559, Note_on_c, 9, 39, 105
8, 58559, Note_on_c, 9, 69, 70
8, 58567, Note_on_c, 9, 69, 0
8, 58567, Note_on_c, 9, 39, 0
8, 58567, Note_on_c, 9, 38, 0
8, 58687, Note_on_c, 9, 38, 64
8, 58687, Note_on_c, 9, 69, 54
8, 58695, Note_on_c, 9, 69, 0
8, 58695, Note_on_c, 9, 38, 0
8, 58751, Note_on_c, 9, 36, 105
8, 58751, Note_on_c, 9, 38, 80
8, 58751, Note_on_c, 9, 69, 70
8, 58759, Note_on_c, 9, 69, 0
8, 58759, Note_on_c, 9, 38, 0
8, 58759, Note_on_c, 9, 36, 0
8, 58879, Note_on_c, 9, 38, 64
8, 58879, Note_on_c, 9, 69, 54
8, 58887, Note_on_c, 9, 69, 0
8, 58887, Note_on_c, 9, 38, 0
8, 58943, Note_on_c, 9, 38, 105
8, 58943, Note_on_c, 9, 39, 105
8, 58943, Note_on_c, 9, 69, 70
8, 58951, Note_on_c, 9, 69, 0
8, 58951, Note_on_c, 9, 39, 0
8, 58951, Note_on_c, 9, 38, 0
8, 59071, Note_on_c, 9, 38, 64
8, 59071, Note_on_c, 9, 69, 54
8, 59079, Note_on_c, 9, 69, 0
8, 59079, Note_on_c, 9, 38, 0
8, 59135, Note_on_c, 9, 36, 105
8, 59135, Note_on_c, 9, 38, 80
8, 59135, Note_on_c, 9, 69, 70
8, 59143, Note_on_c, 9, 69, 0
8, 59143, Note_on_c, 9, 38, 0
8, 59143, Note_on_c, 9, 36, 0
8, 59263, Note_on_c, 9, 38, 64
8, 59263, Note_on_c, 9, 69, 54
8, 59271, Note_on_c, 9, 69, 0
8, 59271, Note_on_c, 9, 38, 0
8, 59327, Note_on_c, 9, 38, 105
8, 59327, Note_on_c, 9, 39, 105
8, 59327, Note_on_c, 9, 69, 70
8, 59335, Note_on_c, 9, 69, 0
8, 59335, Note_on_c, 9, 39, 0
8, 59335, Note_on_c, 9, 38, 0
8, 59455, Note_on_c, 9, 38, 64
8, 59455, Note_on_c, 9, 69, 54
8, 59463, Note_on_c, 9, 69, 0
8, 59463, Note_on_c, 9, 38, 0
8, 59519, Note_on_c, 9, 36, 105
8, 59519, Note_on_c, 9, 38, 80
8, 59519, Note_on_c, 9, 69, 70
8, 59527, Note_on_c, 9, 69, 0
8, 59527, Note_on_c, 9, 38, 0
8, 59527, Note_on_c, 9, 36, 0
8, 59647, Note_on_c, 9, 38, 64
8, 59647, Note_on_c, 9, 69, 54
8, 59655, Note_on_c, 9, 69, 0
8, 59655, Note_on_c, 9, 38, 0
8, 59711, Note_on_c, 9, 38, 105
8, 59711, Note_on_c, 9, 39, 105
8, 59711, Note_on_c, 9, 69, 70
8, 59719, Note_on_c, 9, 69, 0
8, 59719, Note_on_c, 9, 39, 0
8, 59719, Note_on_c, 9, 38, 0
8, 59839, Note_on_c, 9, 38, 64
8, 59839, Note_on_c, 9, 69, 54
8, 59847, Note_on_c, 9, 69, 0
8, 59847, Note_on_c, 9, 38, 0
8, 59903, Note_on_c, 9, 36, 105
8, 59903, Note_on_c, 9, 38, 80
8, 59903, Note_on_c, 9, 69, 70
8, 59911, Note_on_c, 9, 69, 0
8, 59911, Note_on_c, 9, 38, 0
8, 59911, Note_on_c, 9, 36, 0
8, 60031, Note_on_c, 9, 38, 64
8, 60031, Note_on_c, 9, 69, 54
8, 60039, Note_on_c, 9, 69, 0
8, 60039, Note_on_c, 9, 38, 0
8, 60095, Note_on_c, 9, 38, 105
8, 60095, Note_on_c, 9, 39, 105
8, 60095, Note_on_c, 9, 69, 70
8, 60103, Note_on_c, 9, 69, 0
8, 60103, Note_on_c, 9, 39, 0
8, 60103, Note_on_c, 9, 38, 0
8, 60223, Note_on_c, 9, 38, 64
8, 60223, Note_on_c, 9, 69, 54
8, 60231, Note_on_c, 9, 69, 0
8, 60231, Note_on_c, 9, 38, 0
8, 60287, Note_on_c, 9, 36, 105
8, 60287, Note_on_c, 9, 38, 80
8, 60287, Note_on_c, 9, 69, 70
8, 60295, Note_on_c, 9, 69, 0
8, 60295, Note_on_c, 9, 38, 0
8, 60295, Note_on_c, 9, 36, 0
8, 60415, Note_on_c, 9, 38, 64
8, 60415, Note_on_c, 9, 69, 54
8, 60423, Note_on_c, 9, 69, 0
8, 60423, Note_on_c, 9, 38, 0
8, 60479, Note_on_c, 9, 38, 105
8, 60479, Note_on_c, 9, 39, 105
8, 60479, Note_on_c, 9, 69, 70
8, 60487, Note_on_c, 9, 69, 0
8, 60487, Note_on_c, 9, 39, 0
8, 60487, Note_on_c, 9, 38, 0
8, 60606, Note_on_c, 9, 38, 64
8, 60606, Note_on_c, 9, 69, 54
8, 60614, Note_on_c, 9, 69, 0
8, 60614, Note_on_c, 9, 38, 0
8, 60671, Note_on_c, 9, 36, 105
8, 60671, Note_on_c, 9, 38, 80
8, 60671, Note_on_c, 9, 69, 70
8, 60679, Note_on_c, 9, 69, 0
8, 60679, Note_on_c, 9, 38, 0
8, 60679, Note_on_c, 9, 36, 0
8, 60799, Note_on_c, 9, 38, 64
8, 60799, Note_on_c, 9, 69, 54
8, 60807, Note_on_c, 9, 69, 0
8, 60807, Note_on_c, 9, 38, 0
8, 60863, Note_on_c, 9, 38, 105
8, 60863, Note_on_c, 9, 39, 105
8, 60863, Note_on_c, 9, 69, 70
8, 60871, Note_on_c, 9, 69, 0
8, 60871, Note_on_c, 9, 39, 0
8, 60871, Note_on_c, 9, 38, 0
8, 60991, Note_on_c, 9, 38, 64
8, 60991, Note_on_c, 9, 69, 54
8, 60999, Note_on_c, 9, 69, 0
8, 60999, Note_on_c, 9, 38, 0
8, 61055, Note_on_c, 9, 36, 105
8, 61055, Note_on_c, 9, 38, 80
8, 61055, Note_on_c, 9, 69, 70
8, 61063, Note_on_c, 9, 69, 0
8, 61063, Note_on_c, 9, 38, 0
8, 61063, Note_on_c, 9, 36, 0
8, 61183, Note_on_c, 9, 38, 64
8, 61183, Note_on_c, 9, 69, 54
8, 61191, Note_on_c, 9, 69, 0
8, 61191, Note_on_c, 9, 38, 0
8, 61247, Note_on_c, 9, 38, 105
8, 61247, Note_on_c, 9, 39, 105
8, 61247, Note_on_c, 9, 69, 70
8, 61255, Note_on_c, 9, 69, 0
8, 61255, Note_on_c, 9, 39, 0
8, 61255, Note_on_c, 9, 38, 0
8, 61375, Note_on_c, 9, 38, 64
8, 61375, Note_on_c, 9, 69, 54
8, 61383, Note_on_c, 9, 69, 0
8, 61383, Note_on_c, 9, 38, 0
8, 61439, Note_on_c, 9, 36, 105
8, 61439, Note_on_c, 9, 38, 80
8, 61439, Note_on_c, 9, 69, 70
8, 61447, Note_on_c, 9, 69, 0
8, 61447, Note_on_c, 9, 38, 0
8, 61447, Note_on_c, 9, 36, 0
8, 61567, Note_on_c, 9, 38, 64
8, 61567, Note_on_c, 9, 69, 54
8, 61575, Note_on_c, 9, 69, 0
8, 61575, Note_on_c, 9, 38, 0
8, 61631, Note_on_c, 9, 38, 105
8, 61631, Note_on_c, 9, 39, 105
8, 61631, Note_on_c, 9, 69, 70
8, 61639, Note_on_c, 9, 69, 0
8, 61639, Note_on_c, 9, 39, 0
8, 61639, Note_on_c, 9, 38, 0
8, 61759, Note_on_c, 9, 38, 64
8, 61759, Note_on_c, 9, 69, 54
8, 61767, Note_on_c, 9, 69, 0
8, 61767, Note_on_c, 9, 38, 0
8, 61823, Note_on_c, 9, 36, 105
8, 61823, Note_on_c, 9, 38, 80
8, 61823, Note_on_c, 9, 69, 70
8, 61831, Note_on_c, 9, 69, 0
8, 61831, Note_on_c, 9, 38, 0
8, 61831, Note_on_c, 9, 36, 0
8, 61951, Note_on_c, 9, 38, 64
8, 61951, Note_on_c, 9, 69, 54
8, 61959, Note_on_c, 9, 69, 0
8, 61959, Note_on_c, 9, 38, 0
8, 62015, Note_on_c, 9, 38, 105
8, 62015, Note_on_c, 9, 39, 105
8, 62015, Note_on_c, 9, 69, 70
8, 62023, Note_on_c, 9, 69, 0
8, 62023, Note_on_c, 9, 39, 0
8, 62023, Note_on_c, 9, 38, 0
8, 62143, Note_on_c, 9, 38, 64
8, 62143, Note_on_c, 9, 69, 54
8, 62151, Note_on_c, 9, 69, 0
8, 62151, Note_on_c, 9, 38, 0
8, 62207, Note_on_c, 9, 36, 105
8, 62207, Note_on_c, 9, 38, 80
8, 62207, Note_on_c, 9, 69, 70
8, 62215, Note_on_c, 9, 69, 0
8, 62215, Note_on_c, 9, 38, 0
8, 62215, Note_on_c, 9, 36, 0
8, 62335, Note_on_c, 9, 38, 64
8, 62335, Note_on_c, 9, 69, 54
8, 62343, Note_on_c, 9, 69, 0
8, 62343, Note_on_c, 9, 38, 0
8, 62399, Note_on_c, 9, 38, 105
8, 62399, Note_on_c, 9, 39, 105
8, 62399, Note_on_c, 9, 69, 70
8, 62407, Note_on_c, 9, 69, 0
8, 62407, Note_on_c, 9, 39, 0
8, 62407, Note_on_c, 9, 38, 0
8, 62527, Note_on_c, 9, 38, 64
8, 62527, Note_on_c, 9, 69, 54
8, 62535, Note_on_c, 9, 69, 0
8, 62535, Note_on_c, 9, 38, 0
8, 62591, Note_on_c, 9, 36, 105
8, 62591, Note_on_c, 9, 38, 80
8, 62591, Note_on_c, 9, 69, 70
8, 62599, Note_on_c, 9, 69, 0
8, 62599, Note_on_c, 9, 38, 0
8, 62599, Note_on_c, 9, 36, 0
8, 62719, Note_on_c, 9, 38, 64
8, 62719, Note_on_c, 9, 69, 54
8, 62727, Note_on_c, 9, 69, 0
8, 62727, Note_on_c, 9, 38, 0
8, 62783, Note_on_c, 9, 38, 105
8, 62783, Note_on_c, 9, 39, 105
8, 62783, Note_on_c, 9, 69, 70
8, 62791, Note_on_c, 9, 69, 0
8, 62791, Note_on_c, 9, 39, 0
8, 62791, Note_on_c, 9, 38, 0
8, 62911, Note_on_c, 9, 38, 64
8, 62911, Note_on_c, 9, 69, 54
8, 62919, Note_on_c, 9, 69, 0
8, 62919, Note_on_c, 9, 38, 0
8, 62975, Note_on_c, 9, 36, 105
8, 62975, Note_on_c, 9, 38, 80
8, 62975, Note_on_c, 9, 69, 70
8, 62983, Note_on_c, 9, 69, 0
8, 62983, Note_on_c, 9, 38, 0
8, 62983, Note_on_c, 9, 36, 0
8, 63103, Note_on_c, 9, 38, 64
8, 63103, Note_on_c, 9, 69, 54
8, 63111, Note_on_c, 9, 69, 0
8, 63111, Note_on_c, 9, 38, 0
8, 63167, Note_on_c, 9, 38, 105
8, 63167, Note_on_c, 9, 39, 105
8, 63167, Note_on_c, 9, 69, 70
8, 63175, Note_on_c, 9, 69, 0
8, 63175, Note_on_c, 9, 39, 0
8, 63175, Note_on_c, 9, 38, 0
8, 63295, Note_on_c, 9, 38, 64
8, 63295, Note_on_c, 9, 69, 54
8, 63303, Note_on_c, 9, 69, 0
8, 63303, Note_on_c, 9, 38, 0
8, 63359, Note_on_c, 9, 36, 105
8, 63359, Note_on_c, 9, 38, 80
8, 63359, Note_on_c, 9, 69, 70
8, 63367, Note_on_c, 9, 69, 0
8, 63367, Note_on_c, 9, 38, 0
8, 63367, Note_on_c, 9, 36, 0
8, 63487, Note_on_c, 9, 38, 64
8, 63487, Note_on_c, 9, 69, 54
8, 63495, Note_on_c, 9, 69, 0
8, 63495, Note_on_c, 9, 38, 0
8, 63551, Note_on_c, 9, 38, 105
8, 63551, Note_on_c, 9, 39, 105
8, 63551, Note_on_c, 9, 69, 70
8, 63559, Note_on_c, 9, 69, 0
8, 63559, Note_on_c, 9, 39, 0
8, 63559, Note_on_c, 9, 38, 0
8, 63679, Note_on_c, 9, 38, 64
8, 63679, Note_on_c, 9, 69, 54
8, 63687, Note_on_c, 9, 69, 0
8, 63687, Note_on_c, 9, 38, 0
8, 63743, Note_on_c, 9, 36, 105
8, 63743, Note_on_c, 9, 38, 80
8, 63743, Note_on_c, 9, 69, 70
8, 63751, Note_on_c, 9, 69, 0
8, 63751, Note_on_c, 9, 38, 0
8, 63751, Note_on_c, 9, 36, 0
8, 63871, Note_on_c, 9, 38, 64
8, 63871, Note_on_c, 9, 69, 54
8, 63879, Note_on_c, 9, 69, 0
8, 63879, Note_on_c, 9, 38, 0
8, 63935, Note_on_c, 9, 38, 105
8, 63935, Note_on_c, 9, 39, 105
8, 63935, Note_on_c, 9, 69, 70
8, 63943, Note_on_c, 9, 69, 0
8, 63943, Note_on_c, 9, 39, 0
8, 63943, Note_on_c, 9, 38, 0
8, 64063, Note_on_c, 9, 38, 64
8, 64063, Note_on_c, 9, 69, 54
8, 64071, Note_on_c, 9, 69, 0
8, 64071, Note_on_c, 9, 38, 0
8, 64127, Note_on_c, 9, 36, 105
8, 64127, Note_on_c, 9, 38, 80
8, 64127, Note_on_c, 9, 69, 70
8, 64135, Note_on_c, 9, 69, 0
8, 64135, Note_on_c, 9, 38, 0
8, 64135, Note_on_c, 9, 36, 0
8, 64255, Note_on_c, 9, 38, 64
8, 64255, Note_on_c, 9, 69, 54
8, 64263, Note_on_c, 9, 69, 0
8, 64263, Note_on_c, 9, 38, 0
8, 64319, Note_on_c, 9, 38, 105
8, 64319, Note_on_c, 9, 39, 105
8, 64319, Note_on_c, 9, 69, 70
8, 64327, Note_on_c, 9, 69, 0
8, 64327, Note_on_c, 9, 39, 0
8, 64327, Note_on_c, 9, 38, 0
8, 64447, Note_on_c, 9, 38, 64
8, 64447, Note_on_c, 9, 69, 54
8, 64455, Note_on_c, 9, 69, 0
8, 64455, Note_on_c, 9, 38, 0
8, 64511, Note_on_c, 9, 36, 105
8, 64511, Note_on_c, 9, 38, 80
8, 64511, Note_on_c, 9, 69, 70
8, 64519, Note_on_c, 9, 69, 0
8, 64519, Note_on_c, 9, 38, 0
8, 64519, Note_on_c, 9, 36, 0
8, 64639, Note_on_c, 9, 38, 64
8, 64639, Note_on_c, 9, 69, 54
8, 64647, Note_on_c, 9, 69, 0
8, 64647, Note_on_c, 9, 38, 0
8, 64703, Note_on_c, 9, 38, 105
8, 64703, Note_on_c, 9, 39, 105
8, 64703, Note_on_c, 9, 69, 70
8, 64711, Note_on_c, 9, 69, 0
8, 64711, Note_on_c, 9, 39, 0
8, 64711, Note_on_c, 9, 38, 0
8, 64831, Note_on_c, 9, 38, 64
8, 64831, Note_on_c, 9, 69, 54
8, 64839, Note_on_c, 9, 69, 0
8, 64839, Note_on_c, 9, 38, 0
8, 64895, Note_on_c, 9, 36, 105
8, 64895, Note_on_c, 9, 38, 80
8, 64895, Note_on_c, 9, 69, 70
8, 64903, Note_on_c, 9, 69, 0
8, 64903, Note_on_c, 9, 38, 0
8, 64903, Note_on_c, 9, 36, 0
8, 65023, Note_on_c, 9, 38, 64
8, 65023, Note_on_c, 9, 69, 54
8, 65031, Note_on_c, 9, 69, 0
8, 65031, Note_on_c, 9, 38, 0
8, 65087, Note_on_c, 9, 38, 105
8, 65087, Note_on_c, 9, 39, 105
8, 65087, Note_on_c, 9, 69, 70
8, 65095, Note_on_c, 9, 69, 0
8, 65095, Note_on_c, 9, 39, 0
8, 65095, Note_on_c, 9, 38, 0
8, 65215, Note_on_c, 9, 38, 64
8, 65215, Note_on_c, 9, 69, 54
8, 65223, Note_on_c, 9, 69, 0
8, 65223, Note_on_c, 9, 38, 0
8, 65279, Note_on_c, 9, 36, 105
8, 65279, Note_on_c, 9, 38, 80
8, 65279, Note_on_c, 9, 69, 70
8, 65287, Note_on_c, 9, 69, 0
8, 65287, Note_on_c, 9, 38, 0
8, 65287, Note_on_c, 9, 36, 0
8, 65407, Note_on_c, 9, 38, 64
8, 65407, Note_on_c, 9, 69, 54
8, 65415, Note_on_c, 9, 69, 0
8, 65415, Note_on_c, 9, 38, 0
8, 65471, Note_on_c, 9, 38, 105
8, 65471, Note_on_c, 9, 39, 105
8, 65471, Note_on_c, 9, 69, 70
8, 65479, Note_on_c, 9, 69, 0
8, 65479, Note_on_c, 9, 39, 0
8, 65479, Note_on_c, 9, 38, 0
8, 65599, Note_on_c, 9, 38, 64
8, 65599, Note_on_c, 9, 69, 54
8, 65607, Note_on_c, 9, 69, 0
8, 65607, Note_on_c, 9, 38, 0
8, 65663, Note_on_c, 9, 36, 105
8, 65663, Note_on_c, 9, 38, 96
8, 65663, Note_on_c, 9, 69, 70
8, 65671, Note_on_c, 9, 69, 0
8, 65671, Note_on_c, 9, 38, 0
8, 65671, Note_on_c, 9, 36, 0
8, 65727, Note_on_c, 9, 38, 105
8, 65735, Note_on_c, 9, 38, 0
8, 65791, Note_on_c, 9, 38, 105
8, 65791, Note_on_c, 9, 69, 54
8, 65799, Note_on_c, 9, 69, 0
8, 65799, Note_on_c, 9, 38, 0
8, 65855, Note_on_c, 9, 38, 105
8, 65855, Note_on_c, 9, 39, 105
8, 65855, Note_on_c, 9, 69, 70
8, 65863, Note_on_c, 9, 69, 0
8, 65863, Note_on_c, 9, 39, 0
8, 65863, Note_on_c, 9, 38, 0
8, 65983, Note_on_c, 9, 38, 105
8, 65983, Note_on_c, 9, 69, 54
8, 65991, Note_on_c, 9, 69, 0
8, 65991, Note_on_c, 9, 38, 0
8, 66047, Note_on_c, 9, 36, 105
8, 66047, Note_on_c, 9, 38, 80
8, 66047, Note_on_c, 9, 49, 108
8, 66047, Note_on_c, 9, 69, 70
8, 66055, Note_on_c, 9, 69, 0
8, 66055, Note_on_c, 9, 36, 0
8, 66055, Note_on_c, 9, 38, 0
8, 66055, Note_on_c, 9, 49, 0
8, 66175, Note_on_c, 9, 38, 64
8, 66175, Note_on_c, 9, 69, 54
8, 66183, Note_on_c, 9, 69, 0
8, 66183, Note_on_c, 9, 38, 0
8, 66239, Note_on_c, 9, 38, 105
8, 66239, Note_on_c, 9, 39, 105
8, 66239, Note_on_c, 9, 69, 70
8, 66247, Note_on_c, 9, 69, 0
8, 66247, Note_on_c, 9, 39, 0
8, 66247, Note_on_c, 9, 38, 0
8, 66367, Note_on_c, 9, 38, 64
8, 66367, Note_on_c, 9, 69, 54
8, 66375, Note_on_c, 9, 69, 0
8, 66375, Note_on_c, 9, 38, 0
8, 66431, Note_on_c, 9, 36, 105
8, 66431, Note_on_c, 9, 38, 80
8, 66431, Note_on_c, 9, 69, 70
8, 66439, Note_on_c, 9, 69, 0
8, 66439, Note_on_c, 9, 38, 0
8, 66439, Note_on_c, 9, 36, 0
8, 66559, Note_on_c, 9, 38, 64
8, 66559, Note_on_c, 9, 69, 54
8, 66567, Note_on_c, 9, 69, 0
8, 66567, Note_on_c, 9, 38, 0
8, 66623, Note_on_c, 9, 38, 105
8, 66623, Note_on_c, 9, 39, 105
8, 66623, Note_on_c, 9, 69, 70
8, 66631, Note_on_c, 9, 69, 0
8, 66631, Note_on_c, 9, 39, 0
8, 66631, Note_on_c, 9, 38, 0
8, 66751, Note_on_c, 9, 38, 64
8, 66751, Note_on_c, 9, 69, 54
8, 66759, Note_on_c, 9, 69, 0
8, 66759, Note_on_c, 9, 38, 0
8, 66815, Note_on_c, 9, 36, 105
8, 66815, Note_on_c, 9, 38, 80
8, 66815, Note_on_c, 9, 69, 70
8, 66823, Note_on_c, 9, 69, 0
8, 66823, Note_on_c, 9, 38, 0
8, 66823, Note_on_c, 9, 36, 0
8, 66943, Note_on_c, 9, 38, 64
8, 66943, Note_on_c, 9, 69, 54
8, 66951, Note_on_c, 9, 69, 0
8, 66951, Note_on_c, 9, 38, 0
8, 67007, Note_on_c, 9, 38, 105
8, 67007, Note_on_c, 9, 39, 105
8, 67007, Note_on_c, 9, 69, 70
8, 67015, Note_on_c, 9, 69, 0
8, 67015, Note_on_c, 9, 39, 0
8, 67015, Note_on_c, 9, 38, 0
8, 67135, Note_on_c, 9, 38, 64
8, 67135, Note_on_c, 9, 69, 54
8, 67143, Note_on_c, 9, 69, 0
8, 67143, Note_on_c, 9, 38, 0
8, 67199, Note_on_c, 9, 36, 105
8, 67199, Note_on_c, 9, 38, 80
8, 67199, Note_on_c, 9, 69, 70
8, 67207, Note_on_c, 9, 69, 0
8, 67207, Note_on_c, 9, 38, 0
8, 67207, Note_on_c, 9, 36, 0
8, 67327, Note_on_c, 9, 38, 64
8, 67327, Note_on_c, 9, 69, 54
8, 67335, Note_on_c, 9, 69, 0
8, 67335, Note_on_c, 9, 38, 0
8, 67391, Note_on_c, 9, 38, 105
8, 67391, Note_on_c, 9, 39, 105
8, 67391, Note_on_c, 9, 69, 70
8, 67399, Note_on_c, 9, 69, 0
8, 67399, Note_on_c, 9, 39, 0
8, 67399, Note_on_c, 9, 38, 0
8, 67519, Note_on_c, 9, 38, 64
8, 67519, Note_on_c, 9, 69, 54
8, 67527, Note_on_c, 9, 69, 0
8, 67527, Note_on_c, 9, 38, 0
8, 67583, Note_on_c, 9, 36, 105
8, 67583, Note_on_c, 9, 38, 80
8, 67583, Note_on_c, 9, 69, 70
8, 67591, Note_on_c, 9, 69, 0
8, 67591, Note_on_c, 9, 38, 0
8, 67591, Note_on_c, 9, 36, 0
8, 67711, Note_on_c, 9, 38, 64
8, 67711, Note_on_c, 9, 69, 54
8, 67719, Note_on_c, 9, 69, 0
8, 67719, Note_on_c, 9, 38, 0
8, 67775, Note_on_c, 9, 38, 105
8, 67775, Note_on_c, 9, 39, 105
8, 67775, Note_on_c, 9, 69, 70
8, 67783, Note_on_c, 9, 69, 0
8, 67783, Note_on_c, 9, 39, 0
8, 67783, Note_on_c, 9, 38, 0
8, 67903, Note_on_c, 9, 38, 64
8, 67903, Note_on_c, 9, 69, 54
8, 67911, Note_on_c, 9, 69, 0
8, 67911, Note_on_c, 9, 38, 0
8, 67967, Note_on_c, 9, 36, 105
8, 67967, Note_on_c, 9, 38, 80
8, 67967, Note_on_c, 9, 69, 70
8, 67975, Note_on_c, 9, 69, 0
8, 67975, Note_on_c, 9, 38, 0
8, 67975, Note_on_c, 9, 36, 0
8, 68095, Note_on_c, 9, 38, 64
8, 68095, Note_on_c, 9, 69, 54
8, 68103, Note_on_c, 9, 69, 0
8, 68103, Note_on_c, 9, 38, 0
8, 68159, Note_on_c, 9, 38, 105
8, 68159, Note_on_c, 9, 39, 105
8, 68159, Note_on_c, 9, 69, 70
8, 68167, Note_on_c, 9, 69, 0
8, 68167, Note_on_c, 9, 39, 0
8, 68167, Note_on_c, 9, 38, 0
8, 68287, Note_on_c, 9, 38, 64
8, 68287, Note_on_c, 9, 69, 54
8, 68295, Note_on_c, 9, 69, 0
8, 68295, Note_on_c, 9, 38, 0
8, 68351, Note_on_c, 9, 36, 105
8, 68351, Note_on_c, 9, 38, 80
8, 68351, Note_on_c, 9, 69, 70
8, 68359, Note_on_c, 9, 69, 0
8, 68359, Note_on_c, 9, 38, 0
8, 68359, Note_on_c, 9, 36, 0
8, 68479, Note_on_c, 9, 38, 64
8, 68479, Note_on_c, 9, 69, 54
8, 68487, Note_on_c, 9, 69, 0
8, 68487, Note_on_c, 9, 38, 0
8, 68543, Note_on_c, 9, 38, 105
8, 68543, Note_on_c, 9, 39, 105
8, 68543, Note_on_c, 9, 69, 70
8, 68551, Note_on_c, 9, 69, 0
8, 68551, Note_on_c, 9, 39, 0
8, 68551, Note_on_c, 9, 38, 0
8, 68671, Note_on_c, 9, 38, 64
8, 68671, Note_on_c, 9, 69, 54
8, 68679, Note_on_c, 9, 69, 0
8, 68679, Note_on_c, 9, 38, 0
8, 68735, Note_on_c, 9, 36, 105
8, 68735, Note_on_c, 9, 38, 80
8, 68735, Note_on_c, 9, 69, 70
8, 68743, Note_on_c, 9, 69, 0
8, 68743, Note_on_c, 9, 38, 0
8, 68743, Note_on_c, 9, 36, 0
8, 68863, Note_on_c, 9, 38, 64
8, 68863, Note_on_c, 9, 69, 54
8, 68871, Note_on_c, 9, 69, 0
8, 68871, Note_on_c, 9, 38, 0
8, 68927, Note_on_c, 9, 38, 105
8, 68927, Note_on_c, 9, 39, 105
8, 68927, Note_on_c, 9, 69, 70
8, 68935, Note_on_c, 9, 69, 0
8, 68935, Note_on_c, 9, 39, 0
8, 68935, Note_on_c, 9, 38, 0
8, 69054, Note_on_c, 9, 38, 64
8, 69054, Note_on_c, 9, 69, 54
8, 69062, Note_on_c, 9, 69, 0
8, 69062, Note_on_c, 9, 38, 0
8, 69119, Note_on_c, 9, 36, 105
8, 69119, Note_on_c, 9, 38, 80
8, 69119, Note_on_c, 9, 49, 108
8, 69119, Note_on_c, 9, 69, 70
8, 69127, Note_on_c, 9, 69, 0
8, 69127, Note_on_c, 9, 36, 0
8, 69127, Note_on_c, 9, 38, 0
8, 69127, Note_on_c, 9, 49, 0
8, 69247, Note_on_c, 9, 38, 64
8, 69247, Note_on_c, 9, 69, 54
8, 69255, Note_on_c, 9, 69, 0
8, 69255, Note_on_c, 9, 38, 0
8, 69311, Note_on_c, 9, 38, 105
8, 69311, Note_on_c, 9, 39, 105
8, 69311, Note_on_c, 9, 69, 70
8, 69319, Note_on_c, 9, 69, 0
8, 69319, Note_on_c, 9, 39, 0
8, 69319, Note_on_c, 9, 38, 0
8, 69439, Note_on_c, 9, 38, 64
8, 69439, Note_on_c, 9, 69, 54
8, 69447, Note_on_c, 9, 69, 0
8, 69447, Note_on_c, 9, 38, 0
8, 69503, Note_on_c, 9, 36, 105
8, 69503, Note_on_c, 9, 38, 80
8, 69503, Note_on_c, 9, 69, 70
8, 69511, Note_on_c, 9, 69, 0
8, 69511, Note_on_c, 9, 38, 0
8, 69511, Note_on_c, 9, 36, 0
8, 69631, Note_on_c, 9, 38, 64
8, 69631, Note_on_c, 9, 69, 54
8, 69639, Note_on_c, 9, 69, 0
8, 69639, Note_on_c, 9, 38, 0
8, 69695, Note_on_c, 9, 38, 105
8, 69695, Note_on_c, 9, 39, 105
8, 69695, Note_on_c, 9, 69, 70
8, 69703, Note_on_c, 9, 69, 0
8, 69703, Note_on_c, 9, 39, 0
8, 69703, Note_on_c, 9, 38, 0
8, 69823, Note_on_c, 9, 38, 64
8, 69823, Note_on_c, 9, 69, 54
8, 69831, Note_on_c, 9, 69, 0
8, 69831, Note_on_c, 9, 38, 0
8, 69887, Note_on_c, 9, 36, 105
8, 69887, Note_on_c, 9, 38, 80
8, 69887, Note_on_c, 9, 69, 70
8, 69895, Note_on_c, 9, 69, 0
8, 69895, Note_on_c, 9, 38, 0
8, 69895, Note_on_c, 9, 36, 0
8, 70015, Note_on_c, 9, 38, 64
8, 70015, Note_on_c, 9, 69, 54
8, 70023, Note_on_c, 9, 69, 0
8, 70023, Note_on_c, 9, 38, 0
8, 70079, Note_on_c, 9, 38, 105
8, 70079, Note_on_c, 9, 39, 105
8, 70079, Note_on_c, 9, 69, 70
8, 70087, Note_on_c, 9, 69, 0
8, 70087, Note_on_c, 9, 39, 0
8, 70087, Note_on_c, 9, 38, 0
8, 70207, Note_on_c, 9, 38, 64
8, 70207, Note_on_c, 9, 69, 54
8, 70215, Note_on_c, 9, 69, 0
8, 70215, Note_on_c, 9, 38, 0
8, 70271, Note_on_c, 9, 36, 105
8, 70271, Note_on_c, 9, 38, 80
8, 70271, Note_on_c, 9, 69, 70
8, 70279, Note_on_c, 9, 69, 0
8, 70279, Note_on_c, 9, 38, 0
8, 70279, Note_on_c, 9, 36, 0
8, 70399, Note_on_c, 9, 38, 64
8, 70399, Note_on_c, 9, 69, 54
8, 70407, Note_on_c, 9, 69, 0
8, 70407, Note_on_c, 9, 38, 0
8, 70463, Note_on_c, 9, 38, 105
8, 70463, Note_on_c, 9, 39, 105
8, 70463, Note_on_c, 9, 69, 70
8, 70471, Note_on_c, 9, 69, 0
8, 70471, Note_on_c, 9, 39, 0
8, 70471, Note_on_c, 9, 38, 0
8, 70591, Note_on_c, 9, 38, 64
8, 70591, Note_on_c, 9, 69, 54
8, 70599, Note_on_c, 9, 69, 0
8, 70599, Note_on_c, 9, 38, 0
8, 70655, Note_on_c, 9, 36, 105
8, 70655, Note_on_c, 9, 38, 80
8, 70655, Note_on_c, 9, 69, 70
8, 70663, Note_on_c, 9, 69, 0
8, 70663, Note_on_c, 9, 38, 0
8, 70663, Note_on_c, 9, 36, 0
8, 70783, Note_on_c, 9, 38, 64
8, 70783, Note_on_c, 9, 69, 54
8, 70791, Note_on_c, 9, 69, 0
8, 70791, Note_on_c, 9, 38, 0
8, 70847, Note_on_c, 9, 38, 105
8, 70847, Note_on_c, 9, 39, 105
8, 70847, Note_on_c, 9, 69, 70
8, 70855, Note_on_c, 9, 69, 0
8, 70855, Note_on_c, 9, 39, 0
8, 70855, Note_on_c, 9, 38, 0
8, 70975, Note_on_c, 9, 38, 64
8, 70975, Note_on_c, 9, 69, 54
8, 70983, Note_on_c, 9, 69, 0
8, 70983, Note_on_c, 9, 38, 0
8, 71039, Note_on_c, 9, 36, 105
8, 71039, Note_on_c, 9, 38, 80
8, 71039, Note_on_c, 9, 69, 70
8, 71047, Note_on_c, 9, 69, 0
8, 71047, Note_on_c, 9, 38, 0
8, 71047, Note_on_c, 9, 36, 0
8, 71167, Note_on_c, 9, 38, 64
8, 71167, Note_on_c, 9, 69, 54
8, 71175, Note_on_c, 9, 69, 0
8, 71175, Note_on_c, 9, 38, 0
8, 71231, Note_on_c, 9, 38, 105
8, 71231, Note_on_c, 9, 39, 105
8, 71231, Note_on_c, 9, 69, 70
8, 71239, Note_on_c, 9, 69, 0
8, 71239, Note_on_c, 9, 39, 0
8, 71239, Note_on_c, 9, 38, 0
8, 71359, Note_on_c, 9, 38, 64
8, 71359, Note_on_c, 9, 69, 54
8, 71367, Note_on_c, 9, 69, 0
8, 71367, Note_on_c, 9, 38, 0
8, 71423, Note_on_c, 9, 36, 105
8, 71423, Note_on_c, 9, 38, 80
8, 71423, Note_on_c, 9, 69, 70
8, 71431, Note_on_c, 9, 69, 0
8, 71431, Note_on_c, 9, 38, 0
8, 71431, Note_on_c, 9, 36, 0
8, 71551, Note_on_c, 9, 38, 64
8, 71551, Note_on_c, 9, 69, 54
8, 71559, Note_on_c, 9, 69, 0
8, 71559, Note_on_c, 9, 38, 0
8, 71615, Note_on_c, 9, 38, 105
8, 71615, Note_on_c, 9, 39, 105
8, 71615, Note_on_c, 9, 69, 70
8, 71623, Note_on_c, 9, 69, 0
8, 71623, Note_on_c, 9, 39, 0
8, 71623, Note_on_c, 9, 38, 0
8, 71743, Note_on_c, 9, 38, 64
8, 71743, Note_on_c, 9, 69, 54
8, 71751, Note_on_c, 9, 69, 0
8, 71751, Note_on_c, 9, 38, 0
8, 71807, Note_on_c, 9, 36, 105
8, 71807, Note_on_c, 9, 38, 80
8, 71807, Note_on_c, 9, 69, 70
8, 71815, Note_on_c, 9, 69, 0
8, 71815, Note_on_c, 9, 38, 0
8, 71815, Note_on_c, 9, 36, 0
8, 71934, Note_on_c, 9, 38, 64
8, 71934, Note_on_c, 9, 69, 54
8, 71942, Note_on_c, 9, 69, 0
8, 71942, Note_on_c, 9, 38, 0
8, 71998, Note_on_c, 9, 38, 105
8, 71998, Note_on_c, 9, 39, 105
8, 71998, Note_on_c, 9, 69, 70
8, 72006, Note_on_c, 9, 69, 0
8, 72006, Note_on_c, 9, 39, 0
8, 72006, Note_on_c, 9, 38, 0
8, 72127, Note_on_c, 9, 38, 64
8, 72127, Note_on_c, 9, 69, 54
8, 72135, Note_on_c, 9, 69, 0
8, 72135, Note_on_c, 9, 38, 0
8, 72191, Note_on_c, 9, 36, 105
8, 72191, Note_on_c, 9, 38, 80
8, 72191, Note_on_c, 9, 49, 108
8, 72191, Note_on_c, 9, 69, 70
8, 72199, Note_on_c, 9, 69, 0
8, 72199, Note_on_c, 9, 36, 0
8, 72199, Note_on_c, 9, 38, 0
8, 72199, Note_on_c, 9, 49, 0
8, 72319, Note_on_c, 9, 38, 64
8, 72319, Note_on_c, 9, 69, 54
8, 72327, Note_on_c, 9, 69, 0
8, 72327, Note_on_c, 9, 38, 0
8, 72383, Note_on_c, 9, 38, 105
8, 72383, Note_on_c, 9, 39, 105
8, 72383, Note_on_c, 9, 69, 70
8, 72391, Note_on_c, 9, 69, 0
8, 72391, Note_on_c, 9, 39, 0
8, 72391, Note_on_c, 9, 38, 0
8, 72510, Note_on_c, 9, 38, 64
8, 72510, Note_on_c, 9, 69, 54
8, 72518, Note_on_c, 9, 69, 0
8, 72518, Note_on_c, 9, 38, 0
8, 72575, Note_on_c, 9, 36, 105
8, 72575, Note_on_c, 9, 38, 80
8, 72575, Note_on_c, 9, 69, 70
8, 72583, Note_on_c, 9, 69, 0
8, 72583, Note_on_c, 9, 38, 0
8, 72583, Note_on_c, 9, 36, 0
8, 72703, Note_on_c, 9, 38, 64
8, 72703, Note_on_c, 9, 69, 54
8, 72711, Note_on_c, 9, 69, 0
8, 72711, Note_on_c, 9, 38, 0
8, 72767, Note_on_c, 9, 38, 105
8, 72767, Note_on_c, 9, 39, 105
8, 72767, Note_on_c, 9, 69, 70
8, 72775, Note_on_c, 9, 69, 0
8, 72775, Note_on_c, 9, 39, 0
8, 72775, Note_on_c, 9, 38, 0
8, 72895, Note_on_c, 9, 38, 64
8, 72895, Note_on_c, 9, 69, 54
8, 72903, Note_on_c, 9, 69, 0
8, 72903, Note_on_c, 9, 38, 0
8, 72959, Note_on_c, 9, 36, 105
8, 72959, Note_on_c, 9, 38, 80
8, 72959, Note_on_c, 9, 69, 70
8, 72967, Note_on_c, 9, 69, 0
8, 72967, Note_on_c, 9, 38, 0
8, 72967, Note_on_c, 9, 36, 0
8, 73087, Note_on_c, 9, 38, 64
8, 73087, Note_on_c, 9, 69, 54
8, 73095, Note_on_c, 9, 69, 0
8, 73095, Note_on_c, 9, 38, 0
8, 73151, Note_on_c, 9, 38, 105
8, 73151, Note_on_c, 9, 39, 105
8, 73151, Note_on_c, 9, 69, 70
8, 73159, Note_on_c, 9, 69, 0
8, 73159, Note_on_c, 9, 39, 0
8, 73159, Note_on_c, 9, 38, 0
8, 73279, Note_on_c, 9, 38, 64
8, 73279, Note_on_c, 9, 69, 54
8, 73287, Note_on_c, 9, 69, 0
8, 73287, Note_on_c, 9, 38, 0
8, 73343, Note_on_c, 9, 36, 105
8, 73343, Note_on_c, 9, 38, 80
8, 73343, Note_on_c, 9, 69, 70
8, 73351, Note_on_c, 9, 69, 0
8, 73351, Note_on_c, 9, 38, 0
8, 73351, Note_on_c, 9, 36, 0
8, 73471, Note_on_c, 9, 38, 64
8, 73471, Note_on_c, 9, 69, 54
8, 73479, Note_on_c, 9, 69, 0
8, 73479, Note_on_c, 9, 38, 0
8, 73535, Note_on_c, 9, 38, 105
8, 73535, Note_on_c, 9, 39, 105
8, 73535, Note_on_c, 9, 69, 70
8, 73543, Note_on_c, 9, 69, 0
8, 73543, Note_on_c, 9, 39, 0
8, 73543, Note_on_c, 9, 38, 0
8, 73663, Note_on_c, 9, 38, 64
8, 73663, Note_on_c, 9, 69, 54
8, 73671, Note_on_c, 9, 69, 0
8, 73671, Note_on_c, 9, 38, 0
8, 73727, Note_on_c, 9, 36, 105
8, 73727, Note_on_c, 9, 38, 80
8, 73727, Note_on_c, 9, 69, 70
8, 73735, Note_on_c, 9, 69, 0
8, 73735, Note_on_c, 9, 38, 0
8, 73735, Note_on_c, 9, 36, 0
8, 73855, Note_on_c, 9, 38, 64
8, 73855, Note_on_c, 9, 69, 54
8, 73863, Note_on_c, 9, 69, 0
8, 73863, Note_on_c, 9, 38, 0
8, 73919, Note_on_c, 9, 38, 105
8, 73919, Note_on_c, 9, 39, 105
8, 73919, Note_on_c, 9, 69, 70
8, 73927, Note_on_c, 9, 69, 0
8, 73927, Note_on_c, 9, 39, 0
8, 73927, Note_on_c, 9, 38, 0
8, 74046, Note_on_c, 9, 38, 64
8, 74046, Note_on_c, 9, 69, 54
8, 74054, Note_on_c, 9, 69, 0
8, 74054, Note_on_c, 9, 38, 0
8, 74111, Note_on_c, 9, 36, 105
8, 74111, Note_on_c, 9, 38, 80
8, 74111, Note_on_c, 9, 69, 70
8, 74119, Note_on_c, 9, 69, 0
8, 74119, Note_on_c, 9, 38, 0
8, 74119, Note_on_c, 9, 36, 0
8, 74239, Note_on_c, 9, 38, 64
8, 74239, Note_on_c, 9, 69, 54
8, 74247, Note_on_c, 9, 69, 0
8, 74247, Note_on_c, 9, 38, 0
8, 74303, Note_on_c, 9, 38, 105
8, 74303, Note_on_c, 9, 39, 105
8, 74303, Note_on_c, 9, 69, 70
8, 74311, Note_on_c, 9, 69, 0
8, 74311, Note_on_c, 9, 39, 0
8, 74311, Note_on_c, 9, 38, 0
8, 74431, Note_on_c, 9, 38, 64
8, 74431, Note_on_c, 9, 69, 54
8, 74439, Note_on_c, 9, 69, 0
8, 74439, Note_on_c, 9, 38, 0
8, 74495, Note_on_c, 9, 36, 105
8, 74495, Note_on_c, 9, 38, 80
8, 74495, Note_on_c, 9, 69, 70
8, 74503, Note_on_c, 9, 69, 0
8, 74503, Note_on_c, 9, 38, 0
8, 74503, Note_on_c, 9, 36, 0
8, 74622, Note_on_c, 9, 38, 64
8, 74623, Note_on_c, 9, 69, 54
8, 74630, Note_on_c, 9, 38, 0
8, 74631, Note_on_c, 9, 69, 0
8, 74687, Note_on_c, 9, 38, 105
8, 74687, Note_on_c, 9, 39, 105
8, 74687, Note_on_c, 9, 69, 70
8, 74695, Note_on_c, 9, 69, 0
8, 74695, Note_on_c, 9, 39, 0
8, 74695, Note_on_c, 9, 38, 0
8, 74815, Note_on_c, 9, 38, 64
8, 74815, Note_on_c, 9, 69, 54
8, 74823, Note_on_c, 9, 69, 0
8, 74823, Note_on_c, 9, 38, 0
8, 74879, Note_on_c, 9, 36, 105
8, 74879, Note_on_c, 9, 38, 96
8, 74879, Note_on_c, 9, 69, 70
8, 74887, Note_on_c, 9, 69, 0
8, 74887, Note_on_c, 9, 38, 0
8, 74887, Note_on_c, 9, 36, 0
8, 74943, Note_on_c, 9, 38, 105
8, 74951, Note_on_c, 9, 38, 0
8, 75007, Note_on_c, 9, 38, 105
8, 75007, Note_on_c, 9, 69, 54
8, 75015, Note_on_c, 9, 69, 0
8, 75015, Note_on_c, 9, 38, 0
8, 75071, Note_on_c, 9, 38, 105
8, 75071, Note_on_c, 9, 39, 105
8, 75071, Note_on_c, 9, 69, 70
8, 75079, Note_on_c, 9, 69, 0
8, 75079, Note_on_c, 9, 39, 0
8, 75079, Note_on_c, 9, 38, 0
8, 75199, Note_on_c, 9, 38, 105
8, 75199, Note_on_c, 9, 69, 54
8, 75207, Note_on_c, 9, 69, 0
8, 75207, Note_on_c, 9, 38, 0
8, 75263, Note_on_c, 9, 36, 105
8, 75263, Note_on_c, 9, 38, 80
8, 75263, Note_on_c, 9, 49, 108
8, 75263, Note_on_c, 9, 69, 70
8, 75271, Note_on_c, 9, 69, 0
8, 75271, Note_on_c, 9, 36, 0
8, 75271, Note_on_c, 9, 38, 0
8, 75271, Note_on_c, 9, 49, 0
8, 75390, Note_on_c, 9, 38, 64
8, 75390, Note_on_c, 9, 69, 54
8, 75398, Note_on_c, 9, 69, 0
8, 75398, Note_on_c, 9, 38, 0
8, 75455, Note_on_c, 9, 38, 105
8, 75455, Note_on_c, 9, 39, 105
8, 75455, Note_on_c, 9, 69, 70
8, 75463, Note_on_c, 9, 69, 0
8, 75463, Note_on_c, 9, 39, 0
8, 75463, Note_on_c, 9, 38, 0
8, 75583, Note_on_c, 9, 38, 64
8, 75583, Note_on_c, 9, 69, 54
8, 75591, Note_on_c, 9, 69, 0
8, 75591, Note_on_c, 9, 38, 0
8, 75647, Note_on_c, 9, 36, 105
8, 75647, Note_on_c, 9, 38, 80
8, 75647, Note_on_c, 9, 69, 70
8, 75655, Note_on_c, 9, 69, 0
8, 75655, Note_on_c, 9, 38, 0
8, 75655, Note_on_c, 9, 36, 0
8, 75775, Note_on_c, 9, 38, 64
8, 75775, Note_on_c, 9, 69, 54
8, 75783, Note_on_c, 9, 69, 0
8, 75783, Note_on_c, 9, 38, 0
8, 75839, Note_on_c, 9, 38, 105
8, 75839, Note_on_c, 9, 39, 105
8, 75839, Note_on_c, 9, 69, 70
8, 75847, Note_on_c, 9, 69, 0
8, 75847, Note_on_c, 9, 39, 0
8, 75847, Note_on_c, 9, 38, 0
8, 75967, Note_on_c, 9, 38, 64
8, 75967, Note_on_c, 9, 69, 54
8, 75975, Note_on_c, 9, 69, 0
8, 75975, Note_on_c, 9, 38, 0
8, 76031, Note_on_c, 9, 36, 105
8, 76031, Note_on_c, 9, 38, 80
8, 76031, Note_on_c, 9, 69, 70
8, 76039, Note_on_c, 9, 69, 0
8, 76039, Note_on_c, 9, 38, 0
8, 76039, Note_on_c, 9, 36, 0
8, 76159, Note_on_c, 9, 38, 64
8, 76159, Note_on_c, 9, 69, 54
8, 76167, Note_on_c, 9, 69, 0
8, 76167, Note_on_c, 9, 38, 0
8, 76223, Note_on_c, 9, 38, 105
8, 76223, Note_on_c, 9, 39, 105
8, 76223, Note_on_c, 9, 69, 70
8, 76231, Note_on_c, 9, 69, 0
8, 76231, Note_on_c, 9, 39, 0
8, 76231, Note_on_c, 9, 38, 0
8, 76351, Note_on_c, 9, 38, 64
8, 76351, Note_on_c, 9, 69, 54
8, 76359, Note_on_c, 9, 69, 0
8, 76359, Note_on_c, 9, 38, 0
8, 76415, Note_on_c, 9, 36, 105
8, 76415, Note_on_c, 9, 38, 80
8, 76415, Note_on_c, 9, 69, 70
8, 76423, Note_on_c, 9, 69, 0
8, 76423, Note_on_c, 9, 38, 0
8, 76423, Note_on_c, 9, 36, 0
8, 76543, Note_on_c, 9, 38, 64
8, 76543, Note_on_c, 9, 69, 54
8, 76551, Note_on_c, 9, 69, 0
8, 76551, Note_on_c, 9, 38, 0
8, 76607, Note_on_c, 9, 38, 105
8, 76607, Note_on_c, 9, 39, 105
8, 76607, Note_on_c, 9, 69, 70
8, 76615, Note_on_c, 9, 69, 0
8, 76615, Note_on_c, 9, 39, 0
8, 76615, Note_on_c, 9, 38, 0
8, 76735, Note_on_c, 9, 38, 64
8, 76735, Note_on_c, 9, 69, 54
8, 76743, Note_on_c, 9, 69, 0
8, 76743, Note_on_c, 9, 38, 0
8, 76799, Note_on_c, 9, 36, 105
8, 76799, Note_on_c, 9, 38, 80
8, 76799, Note_on_c, 9, 69, 70
8, 76807, Note_on_c, 9, 69, 0
8, 76807, Note_on_c, 9, 38, 0
8, 76807, Note_on_c, 9, 36, 0
8, 76927, Note_on_c, 9, 38, 64
8, 76927, Note_on_c, 9, 69, 54
8, 76935, Note_on_c, 9, 69, 0
8, 76935, Note_on_c, 9, 38, 0
8, 76991, Note_on_c, 9, 38, 105
8, 76991, Note_on_c, 9, 39, 105
8, 76991, Note_on_c, 9, 69, 70
8, 76999, Note_on_c, 9, 69, 0
8, 76999, Note_on_c, 9, 39, 0
8, 76999, Note_on_c, 9, 38, 0
8, 77119, Note_on_c, 9, 38, 64
8, 77119, Note_on_c, 9, 69, 54
8, 77127, Note_on_c, 9, 69, 0
8, 77127, Note_on_c, 9, 38, 0
8, 77183, Note_on_c, 9, 36, 105
8, 77183, Note_on_c, 9, 38, 80
8, 77183, Note_on_c, 9, 69, 70
8, 77191, Note_on_c, 9, 69, 0
8, 77191, Note_on_c, 9, 38, 0
8, 77191, Note_on_c, 9, 36, 0
8, 77311, Note_on_c, 9, 38, 64
8, 77311, Note_on_c, 9, 69, 54
8, 77319, Note_on_c, 9, 69, 0
8, 77319, Note_on_c, 9, 38, 0
8, 77375, Note_on_c, 9, 38, 105
8, 77375, Note_on_c, 9, 39, 105
8, 77375, Note_on_c, 9, 69, 70
8, 77383, Note_on_c, 9, 69, 0
8, 77383, Note_on_c, 9, 39, 0
8, 77383, Note_on_c, 9, 38, 0
8, 77503, Note_on_c, 9, 38, 64
8, 77503, Note_on_c, 9, 69, 54
8, 77511, Note_on_c, 9, 69, 0
8, 77511, Note_on_c, 9, 38, 0
8, 77567, Note_on_c, 9, 36, 105
8, 77567, Note_on_c, 9, 38, 80
8, 77567, Note_on_c, 9, 69, 70
8, 77575, Note_on_c, 9, 69, 0
8, 77575, Note_on_c, 9, 38, 0
8, 77575, Note_on_c, 9, 36, 0
8, 77695, Note_on_c, 9, 38, 64
8, 77695, Note_on_c, 9, 69, 54
8, 77703, Note_on_c, 9, 69, 0
8, 77703, Note_on_c, 9, 38, 0
8, 77759, Note_on_c, 9, 38, 105
8, 77759, Note_on_c, 9, 39, 105
8, 77759, Note_on_c, 9, 69, 70
8, 77767, Note_on_c, 9, 69, 0
8, 77767, Note_on_c, 9, 39, 0
8, 77767, Note_on_c, 9, 38, 0
8, 77887, Note_on_c, 9, 38, 64
8, 77887, Note_on_c, 9, 69, 54
8, 77895, Note_on_c, 9, 69, 0
8, 77895, Note_on_c, 9, 38, 0
8, 77951, Note_on_c, 9, 36, 105
8, 77951, Note_on_c, 9, 38, 80
8, 77951, Note_on_c, 9, 69, 70
8, 77959, Note_on_c, 9, 69, 0
8, 77959, Note_on_c, 9, 38, 0
8, 77959, Note_on_c, 9, 36, 0
8, 78079, Note_on_c, 9, 38, 64
8, 78079, Note_on_c, 9, 69, 54
8, 78087, Note_on_c, 9, 69, 0
8, 78087, Note_on_c, 9, 38, 0
8, 78143, Note_on_c, 9, 38, 105
8, 78143, Note_on_c, 9, 39, 105
8, 78143, Note_on_c, 9, 69, 70
8, 78151, Note_on_c, 9, 69, 0
8, 78151, Note_on_c, 9, 39, 0
8, 78151, Note_on_c, 9, 38, 0
8, 78271, Note_on_c, 9, 38, 64
8, 78271, Note_on_c, 9, 69, 54
8, 78279, Note_on_c, 9, 69, 0
8, 78279, Note_on_c, 9, 38, 0
8, 78335, Note_on_c, 9, 36, 105
8, 78335, Note_on_c, 9, 38, 80
8, 78335, Note_on_c, 9, 69, 70
8, 78343, Note_on_c, 9, 69, 0
8, 78343, Note_on_c, 9, 38, 0
8, 78343, Note_on_c, 9, 36, 0
8, 78463, Note_on_c, 9, 38, 64
8, 78463, Note_on_c, 9, 69, 54
8, 78471, Note_on_c, 9, 69, 0
8, 78471, Note_on_c, 9, 38, 0
8, 78527, Note_on_c, 9, 38, 105
8, 78527, Note_on_c, 9, 39, 105
8, 78527, Note_on_c, 9, 69, 70
8, 78535, Note_on_c, 9, 69, 0
8, 78535, Note_on_c, 9, 39, 0
8, 78535, Note_on_c, 9, 38, 0
8, 78654, Note_on_c, 9, 38, 64
8, 78655, Note_on_c, 9, 69, 54
8, 78662, Note_on_c, 9, 38, 0
8, 78663, Note_on_c, 9, 69, 0
8, 78719, Note_on_c, 9, 36, 105
8, 78719, Note_on_c, 9, 38, 80
8, 78719, Note_on_c, 9, 69, 70
8, 78727, Note_on_c, 9, 69, 0
8, 78727, Note_on_c, 9, 38, 0
8, 78727, Note_on_c, 9, 36, 0
8, 78847, Note_on_c, 9, 38, 64
8, 78847, Note_on_c, 9, 69, 54
8, 78855, Note_on_c, 9, 69, 0
8, 78855, Note_on_c, 9, 38, 0
8, 78911, Note_on_c, 9, 38, 105
8, 78911, Note_on_c, 9, 39, 105
8, 78911, Note_on_c, 9, 69, 70
8, 78919, Note_on_c, 9, 69, 0
8, 78919, Note_on_c, 9, 39, 0
8, 78919, Note_on_c, 9, 38, 0
8, 79039, Note_on_c, 9, 38, 64
8, 79039, Note_on_c, 9, 69, 54
8, 79047, Note_on_c, 9, 69, 0
8, 79047, Note_on_c, 9, 38, 0
8, 79103, Note_on_c, 9, 36, 105
8, 79103, Note_on_c, 9, 38, 80
8, 79103, Note_on_c, 9, 69, 70
8, 79111, Note_on_c, 9, 69, 0
8, 79111, Note_on_c, 9, 38, 0
8, 79111, Note_on_c, 9, 36, 0
8, 79231, Note_on_c, 9, 38, 64
8, 79231, Note_on_c, 9, 69, 54
8, 79239, Note_on_c, 9, 69, 0
8, 79239, Note_on_c, 9, 38, 0
8, 79295, Note_on_c, 9, 38, 105
8, 79295, Note_on_c, 9, 39, 105
8, 79295, Note_on_c, 9, 69, 70
8, 79303, Note_on_c, 9, 69, 0
8, 79303, Note_on_c, 9, 39, 0
8, 79303, Note_on_c, 9, 38, 0
8, 79423, Note_on_c, 9, 38, 64
8, 79423, Note_on_c, 9, 69, 54
8, 79431, Note_on_c, 9, 69, 0
8, 79431, Note_on_c, 9, 38, 0
8, 79487, Note_on_c, 9, 36, 105
8, 79487, Note_on_c, 9, 38, 80
8, 79487, Note_on_c, 9, 69, 70
8, 79495, Note_on_c, 9, 69, 0
8, 79495, Note_on_c, 9, 38, 0
8, 79495, Note_on_c, 9, 36, 0
8, 79615, Note_on_c, 9, 38, 64
8, 79615, Note_on_c, 9, 69, 54
8, 79623, Note_on_c, 9, 69, 0
8, 79623, Note_on_c, 9, 38, 0
8, 79679, Note_on_c, 9, 38, 105
8, 79679, Note_on_c, 9, 39, 105
8, 79679, Note_on_c, 9, 69, 70
8, 79687, Note_on_c, 9, 69, 0
8, 79687, Note_on_c, 9, 39, 0
8, 79687, Note_on_c, 9, 38, 0
8, 79807, Note_on_c, 9, 38, 64
8, 79807, Note_on_c, 9, 69, 54
8, 79815, Note_on_c, 9, 69, 0
8, 79815, Note_on_c, 9, 38, 0
8, 79871, Note_on_c, 9, 36, 105
8, 79871, Note_on_c, 9, 38, 80
8, 79871, Note_on_c, 9, 69, 70
8, 79879, Note_on_c, 9, 69, 0
8, 79879, Note_on_c, 9, 38, 0
8, 79879, Note_on_c, 9, 36, 0
8, 79999, Note_on_c, 9, 38, 64
8, 79999, Note_on_c, 9, 69, 54
8, 80007, Note_on_c, 9, 69, 0
8, 80007, Note_on_c, 9, 38, 0
8, 80063, Note_on_c, 9, 38, 105
8, 80063, Note_on_c, 9, 39, 105
8, 80063, Note_on_c, 9, 69, 70
8, 80071, Note_on_c, 9, 69, 0
8, 80071, Note_on_c, 9, 39, 0
8, 80071, Note_on_c, 9, 38, 0
8, 80191, Note_on_c, 9, 38, 64
8, 80191, Note_on_c, 9, 69, 54
8, 80199, Note_on_c, 9, 69, 0
8, 80199, Note_on_c, 9, 38, 0
8, 80255, Note_on_c, 9, 36, 105
8, 80255, Note_on_c, 9, 38, 80
8, 80255, Note_on_c, 9, 69, 70
8, 80263, Note_on_c, 9, 69, 0
8, 80263, Note_on_c, 9, 38, 0
8, 80263, Note_on_c, 9, 36, 0
8, 80383, Note_on_c, 9, 38, 64
8, 80383, Note_on_c, 9, 69, 54
8, 80391, Note_on_c, 9, 69, 0
8, 80391, Note_on_c, 9, 38, 0
8, 80447, Note_on_c, 9, 38, 105
8, 80447, Note_on_c, 9, 39, 105
8, 80447, Note_on_c, 9, 69, 70
8, 80455, Note_on_c, 9, 69, 0
8, 80455, Note_on_c, 9, 39, 0
8, 80455, Note_on_c, 9, 38, 0
8, 80575, Note_on_c, 9, 38, 64
8, 80575, Note_on_c, 9, 69, 54
8, 80583, Note_on_c, 9, 69, 0
8, 80583, Note_on_c, 9, 38, 0
8, 80639, Note_on_c, 9, 36, 105
8, 80639, Note_on_c, 9, 38, 80
8, 80639, Note_on_c, 9, 69, 70
8, 80647, Note_on_c, 9, 69, 0
8, 80647, Note_on_c, 9, 38, 0
8, 80647, Note_on_c, 9, 36, 0
8, 80767, Note_on_c, 9, 38, 64
8, 80767, Note_on_c, 9, 69, 54
8, 80775, Note_on_c, 9, 69, 0
8, 80775, Note_on_c, 9, 38, 0
8, 80831, Note_on_c, 9, 38, 105
8, 80831, Note_on_c, 9, 39, 105
8, 80831, Note_on_c, 9, 69, 70
8, 80839, Note_on_c, 9, 69, 0
8, 80839, Note_on_c, 9, 39, 0
8, 80839, Note_on_c, 9, 38, 0
8, 80959, Note_on_c, 9, 38, 64
8, 80959, Note_on_c, 9, 69, 54
8, 80967, Note_on_c, 9, 69, 0
8, 80967, Note_on_c, 9, 38, 0
8, 81023, Note_on_c, 9, 36, 105
8, 81023, Note_on_c, 9, 38, 80
8, 81023, Note_on_c, 9, 69, 70
8, 81031, Note_on_c, 9, 69, 0
8, 81031, Note_on_c, 9, 38, 0
8, 81031, Note_on_c, 9, 36, 0
8, 81151, Note_on_c, 9, 38, 64
8, 81151, Note_on_c, 9, 69, 54
8, 81159, Note_on_c, 9, 69, 0
8, 81159, Note_on_c, 9, 38, 0
8, 81215, Note_on_c, 9, 38, 105
8, 81215, Note_on_c, 9, 39, 105
8, 81215, Note_on_c, 9, 69, 70
8, 81223, Note_on_c, 9, 69, 0
8, 81223, Note_on_c, 9, 39, 0
8, 81223, Note_on_c, 9, 38, 0
8, 81343, Note_on_c, 9, 38, 105
8, 81343, Note_on_c, 9, 69, 54
8, 81351, Note_on_c, 9, 69, 0
8, 81351, Note_on_c, 9, 38, 0
8, 81407, Note_on_c, 9, 36, 105
8, 81407, Note_on_c, 9, 38, 80
8, 81407, Note_on_c, 9, 49, 108
8, 81407, Note_on_c, 9, 69, 70
8, 81415, Note_on_c, 9, 69, 0
8, 81415, Note_on_c, 9, 36, 0
8, 81415, Note_on_c, 9, 38, 0
8, 81415, Note_on_c, 9, 49, 0
8, 81535, Note_on_c, 9, 38, 64
8, 81535, Note_on_c, 9, 69, 54
8, 81543, Note_on_c, 9, 69, 0
8, 81543, Note_on_c, 9, 38, 0
8, 81599, Note_on_c, 9, 38, 105
8, 81599, Note_on_c, 9, 39, 105
8, 81599, Note_on_c, 9, 69, 70
8, 81607, Note_on_c, 9, 69, 0
8, 81607, Note_on_c, 9, 39, 0
8, 81607, Note_on_c, 9, 38, 0
8, 81727, Note_on_c, 9, 38, 64
8, 81727, Note_on_c, 9, 69, 54
8, 81735, Note_on_c, 9, 69, 0
8, 81735, Note_on_c, 9, 38, 0
8, 81791, Note_on_c, 9, 36, 105
8, 81791, Note_on_c, 9, 38, 80
8, 81791, Note_on_c, 9, 69, 70
8, 81799, Note_on_c, 9, 69, 0
8, 81799, Note_on_c, 9, 38, 0
8, 81799, Note_on_c, 9, 36, 0
8, 81919, Note_on_c, 9, 38, 64
8, 81919, Note_on_c, 9, 69, 54
8, 81927, Note_on_c, 9, 69, 0
8, 81927, Note_on_c, 9, 38, 0
8, 81983, Note_on_c, 9, 38, 105
8, 81983, Note_on_c, 9, 39, 105
8, 81983, Note_on_c, 9, 69, 70
8, 81991, Note_on_c, 9, 69, 0
8, 81991, Note_on_c, 9, 39, 0
8, 81991, Note_on_c, 9, 38, 0
8, 82111, Note_on_c, 9, 38, 64
8, 82111, Note_on_c, 9, 69, 54
8, 82119, Note_on_c, 9, 69, 0
8, 82119, Note_on_c, 9, 38, 0
8, 82175, Note_on_c, 9, 36, 105
8, 82175, Note_on_c, 9, 38, 80
8, 82175, Note_on_c, 9, 69, 70
8, 82183, Note_on_c, 9, 69, 0
8, 82183, Note_on_c, 9, 38, 0
8, 82183, Note_on_c, 9, 36, 0
8, 82303, Note_on_c, 9, 38, 64
8, 82303, Note_on_c, 9, 69, 54
8, 82311, Note_on_c, 9, 69, 0
8, 82311, Note_on_c, 9, 38, 0
8, 82367, Note_on_c, 9, 38, 105
8, 82367, Note_on_c, 9, 39, 105
8, 82367, Note_on_c, 9, 69, 70
8, 82375, Note_on_c, 9, 69, 0
8, 82375, Note_on_c, 9, 39, 0
8, 82375, Note_on_c, 9, 38, 0
8, 82495, Note_on_c, 9, 38, 64
8, 82495, Note_on_c, 9, 69, 54
8, 82503, Note_on_c, 9, 69, 0
8, 82503, Note_on_c, 9, 38, 0
8, 82559, Note_on_c, 9, 36, 105
8, 82559, Note_on_c, 9, 38, 80
8, 82559, Note_on_c, 9, 69, 70
8, 82567, Note_on_c, 9, 69, 0
8, 82567, Note_on_c, 9, 38, 0
8, 82567, Note_on_c, 9, 36, 0
8, 82687, Note_on_c, 9, 38, 64
8, 82687, Note_on_c, 9, 69, 54
8, 82695, Note_on_c, 9, 69, 0
8, 82695, Note_on_c, 9, 38, 0
8, 82751, Note_on_c, 9, 38, 105
8, 82751, Note_on_c, 9, 39, 105
8, 82751, Note_on_c, 9, 69, 70
8, 82759, Note_on_c, 9, 69, 0
8, 82759, Note_on_c, 9, 39, 0
8, 82759, Note_on_c, 9, 38, 0
8, 82879, Note_on_c, 9, 38, 64
8, 82879, Note_on_c, 9, 69, 54
8, 82887, Note_on_c, 9, 69, 0
8, 82887, Note_on_c, 9, 38, 0
8, 82943, Note_on_c, 9, 36, 105
8, 82943, Note_on_c, 9, 38, 80
8, 82943, Note_on_c, 9, 69, 70
8, 82951, Note_on_c, 9, 69, 0
8, 82951, Note_on_c, 9, 38, 0
8, 82951, Note_on_c, 9, 36, 0
8, 83071, Note_on_c, 9, 38, 64
8, 83071, Note_on_c, 9, 69, 54
8, 83079, Note_on_c, 9, 69, 0
8, 83079, Note_on_c, 9, 38, 0
8, 83135, Note_on_c, 9, 38, 105
8, 83135, Note_on_c, 9, 39, 105
8, 83135, Note_on_c, 9, 69, 70
8, 83143, Note_on_c, 9, 69, 0
8, 83143, Note_on_c, 9, 39, 0
8, 83143, Note_on_c, 9, 38, 0
8, 83263, Note_on_c, 9, 38, 64
8, 83263, Note_on_c, 9, 69, 54
8, 83271, Note_on_c, 9, 69, 0
8, 83271, Note_on_c, 9, 38, 0
8, 83327, Note_on_c, 9, 36, 105
8, 83327, Note_on_c, 9, 38, 80
8, 83327, Note_on_c, 9, 69, 70
8, 83335, Note_on_c, 9, 69, 0
8, 83335, Note_on_c, 9, 38, 0
8, 83335, Note_on_c, 9, 36, 0
8, 83455, Note_on_c, 9, 38, 64
8, 83455, Note_on_c, 9, 69, 54
8, 83463, Note_on_c, 9, 69, 0
8, 83463, Note_on_c, 9, 38, 0
8, 83519, Note_on_c, 9, 38, 105
8, 83519, Note_on_c, 9, 39, 105
8, 83519, Note_on_c, 9, 69, 70
8, 83527, Note_on_c, 9, 69, 0
8, 83527, Note_on_c, 9, 39, 0
8, 83527, Note_on_c, 9, 38, 0
8, 83647, Note_on_c, 9, 38, 64
8, 83647, Note_on_c, 9, 69, 54
8, 83655, Note_on_c, 9, 69, 0
8, 83655, Note_on_c, 9, 38, 0
8, 83711, Note_on_c, 9, 36, 105
8, 83711, Note_on_c, 9, 38, 80
8, 83711, Note_on_c, 9, 69, 70
8, 83719, Note_on_c, 9, 69, 0
8, 83719, Note_on_c, 9, 38, 0
8, 83719, Note_on_c, 9, 36, 0
8, 83839, Note_on_c, 9, 38, 64
8, 83839, Note_on_c, 9, 69, 54
8, 83847, Note_on_c, 9, 69, 0
8, 83847, Note_on_c, 9, 38, 0
8, 83903, Note_on_c, 9, 38, 105
8, 83903, Note_on_c, 9, 39, 105
8, 83903, Note_on_c, 9, 69, 70
8, 83911, Note_on_c, 9, 69, 0
8, 83911, Note_on_c, 9, 39, 0
8, 83911, Note_on_c, 9, 38, 0
8, 84031, Note_on_c, 9, 38, 64
8, 84031, Note_on_c, 9, 69, 54
8, 84039, Note_on_c, 9, 69, 0
8, 84039, Note_on_c, 9, 38, 0
8, 84095, Note_on_c, 9, 36, 105
8, 84095, Note_on_c, 9, 38, 80
8, 84095, Note_on_c, 9, 69, 70
8, 84103, Note_on_c, 9, 69, 0
8, 84103, Note_on_c, 9, 38, 0
8, 84103, Note_on_c, 9, 36, 0
8, 84223, Note_on_c, 9, 38, 64
8, 84223, Note_on_c, 9, 69, 54
8, 84231, Note_on_c, 9, 69, 0
8, 84231, Note_on_c, 9, 38, 0
8, 84287, Note_on_c, 9, 38, 105
8, 84287, Note_on_c, 9, 39, 105
8, 84287, Note_on_c, 9, 69, 70
8, 84295, Note_on_c, 9, 69, 0
8, 84295, Note_on_c, 9, 39, 0
8, 84295, Note_on_c, 9, 38, 0
8, 84415, Note_on_c, 9, 38, 64
8, 84415, Note_on_c, 9, 69, 54
8, 84423, Note_on_c, 9, 69, 0
8, 84423, Note_on_c, 9, 38, 0
8, 84479, Note_on_c, 9, 36, 105
8, 84479, Note_on_c, 9, 38, 80
8, 84479, Note_on_c, 9, 69, 70
8, 84487, Note_on_c, 9, 69, 0
8, 84487, Note_on_c, 9, 38, 0
8, 84487, Note_on_c, 9, 36, 0
8, 84607, Note_on_c, 9, 38, 64
8, 84607, Note_on_c, 9, 69, 54
8, 84615, Note_on_c, 9, 69, 0
8, 84615, Note_on_c, 9, 38, 0
8, 84671, Note_on_c, 9, 38, 105
8, 84671, Note_on_c, 9, 39, 105
8, 84671, Note_on_c, 9, 69, 70
8, 84679, Note_on_c, 9, 69, 0
8, 84679, Note_on_c, 9, 39, 0
8, 84679, Note_on_c, 9, 38, 0
8, 84799, Note_on_c, 9, 38, 64
8, 84799, Note_on_c, 9, 69, 54
8, 84807, Note_on_c, 9, 69, 0
8, 84807, Note_on_c, 9, 38, 0
8, 84863, Note_on_c, 9, 36, 105
8, 84863, Note_on_c, 9, 38, 80
8, 84863, Note_on_c, 9, 69, 70
8, 84871, Note_on_c, 9, 69, 0
8, 84871, Note_on_c, 9, 38, 0
8, 84871, Note_on_c, 9, 36, 0
8, 84991, Note_on_c, 9, 38, 64
8, 84991, Note_on_c, 9, 69, 54
8, 84999, Note_on_c, 9, 69, 0
8, 84999, Note_on_c, 9, 38, 0
8, 85055, Note_on_c, 9, 38, 105
8, 85055, Note_on_c, 9, 39, 105
8, 85055, Note_on_c, 9, 69, 70
8, 85063, Note_on_c, 9, 69, 0
8, 85063, Note_on_c, 9, 39, 0
8, 85063, Note_on_c, 9, 38, 0
8, 85183, Note_on_c, 9, 38, 64
8, 85183, Note_on_c, 9, 69, 54
8, 85191, Note_on_c, 9, 69, 0
8, 85191, Note_on_c, 9, 38, 0
8, 85247, Note_on_c, 9, 36, 105
8, 85247, Note_on_c, 9, 38, 80
8, 85247, Note_on_c, 9, 69, 70
8, 85255, Note_on_c, 9, 69, 0
8, 85255, Note_on_c, 9, 38, 0
8, 85255, Note_on_c, 9, 36, 0
8, 85375, Note_on_c, 9, 38, 64
8, 85375, Note_on_c, 9, 69, 54
8, 85383, Note_on_c, 9, 69, 0
8, 85383, Note_on_c, 9, 38, 0
8, 85439, Note_on_c, 9, 38, 105
8, 85439, Note_on_c, 9, 39, 105
8, 85439, Note_on_c, 9, 69, 70
8, 85447, Note_on_c, 9, 69, 0
8, 85447, Note_on_c, 9, 39, 0
8, 85447, Note_on_c, 9, 38, 0
8, 85567, Note_on_c, 9, 38, 64
8, 85567, Note_on_c, 9, 69, 54
8, 85575, Note_on_c, 9, 69, 0
8, 85575, Note_on_c, 9, 38, 0
8, 85631, Note_on_c, 9, 36, 105
8, 85631, Note_on_c, 9, 38, 80
8, 85631, Note_on_c, 9, 69, 70
8, 85639, Note_on_c, 9, 69, 0
8, 85639, Note_on_c, 9, 38, 0
8, 85639, Note_on_c, 9, 36, 0
8, 85759, Note_on_c, 9, 38, 64
8, 85759, Note_on_c, 9, 69, 54
8, 85767, Note_on_c, 9, 69, 0
8, 85767, Note_on_c, 9, 38, 0
8, 85823, Note_on_c, 9, 38, 105
8, 85823, Note_on_c, 9, 39, 105
8, 85823, Note_on_c, 9, 69, 70
8, 85831, Note_on_c, 9, 69, 0
8, 85831, Note_on_c, 9, 39, 0
8, 85831, Note_on_c, 9, 38, 0
8, 85951, Note_on_c, 9, 38, 64
8, 85951, Note_on_c, 9, 69, 54
8, 85959, Note_on_c, 9, 69, 0
8, 85959, Note_on_c, 9, 38, 0
8, 86015, Note_on_c, 9, 36, 105
8, 86015, Note_on_c, 9, 38, 80
8, 86015, Note_on_c, 9, 69, 70
8, 86023, Note_on_c, 9, 69, 0
8, 86023, Note_on_c, 9, 38, 0
8, 86023, Note_on_c, 9, 36, 0
8, 86143, Note_on_c, 9, 38, 64
8, 86143, Note_on_c, 9, 69, 54
8, 86151, Note_on_c, 9, 69, 0
8, 86151, Note_on_c, 9, 38, 0
8, 86207, Note_on_c, 9, 38, 105
8, 86207, Note_on_c, 9, 39, 105
8, 86207, Note_on_c, 9, 69, 70
8, 86215, Note_on_c, 9, 69, 0
8, 86215, Note_on_c, 9, 39, 0
8, 86215, Note_on_c, 9, 38, 0
8, 86335, Note_on_c, 9, 38, 64
8, 86335, Note_on_c, 9, 69, 54
8, 86343, Note_on_c, 9, 69, 0
8, 86343, Note_on_c, 9, 38, 0
8, 86399, Note_on_c, 9, 36, 105
8, 86399, Note_on_c, 9, 38, 80
8, 86399, Note_on_c, 9, 69, 70
8, 86407, Note_on_c, 9, 69, 0
8, 86407, Note_on_c, 9, 38, 0
8, 86407, Note_on_c, 9, 36, 0
8, 86527, Note_on_c, 9, 38, 64
8, 86527, Note_on_c, 9, 69, 54
8, 86535, Note_on_c, 9, 69, 0
8, 86535, Note_on_c, 9, 38, 0
8, 86591, Note_on_c, 9, 38, 105
8, 86591, Note_on_c, 9, 39, 105
8, 86591, Note_on_c, 9, 69, 70
8, 86599, Note_on_c, 9, 69, 0
8, 86599, Note_on_c, 9, 39, 0
8, 86599, Note_on_c, 9, 38, 0
8, 86719, Note_on_c, 9, 38, 64
8, 86719, Note_on_c, 9, 69, 54
8, 86727, Note_on_c, 9, 69, 0
8, 86727, Note_on_c, 9, 38, 0
8, 86783, Note_on_c, 9, 36, 105
8, 86783, Note_on_c, 9, 38, 80
8, 86783, Note_on_c, 9, 69, 70
8, 86791, Note_on_c, 9, 69, 0
8, 86791, Note_on_c, 9, 38, 0
8, 86791, Note_on_c, 9, 36, 0
8, 86911, Note_on_c, 9, 38, 64
8, 86911, Note_on_c, 9, 69, 54
8, 86919, Note_on_c, 9, 69, 0
8, 86919, Note_on_c, 9, 38, 0
8, 86975, Note_on_c, 9, 38, 105
8, 86975, Note_on_c, 9, 39, 105
8, 86975, Note_on_c, 9, 69, 70
8, 86983, Note_on_c, 9, 69, 0
8, 86983, Note_on_c, 9, 39, 0
8, 86983, Note_on_c, 9, 38, 0
8, 87103, Note_on_c, 9, 38, 64
8, 87103, Note_on_c, 9, 69, 54
8, 87111, Note_on_c, 9, 69, 0
8, 87111, Note_on_c, 9, 38, 0
8, 87167, Note_on_c, 9, 36, 105
8, 87167, Note_on_c, 9, 38, 96
8, 87167, Note_on_c, 9, 69, 70
8, 87175, Note_on_c, 9, 69, 0
8, 87175, Note_on_c, 9, 38, 0
8, 87175, Note_on_c, 9, 36, 0
8, 87231, Note_on_c, 9, 38, 105
8, 87239, Note_on_c, 9, 38, 0
8, 87295, Note_on_c, 9, 38, 105
8, 87295, Note_on_c, 9, 69, 54
8, 87303, Note_on_c, 9, 69, 0
8, 87303, Note_on_c, 9, 38, 0
8, 87359, Note_on_c, 9, 38, 105
8, 87359, Note_on_c, 9, 39, 105
8, 87359, Note_on_c, 9, 69, 70
8, 87367, Note_on_c, 9, 69, 0
8, 87367, Note_on_c, 9, 39, 0
8, 87367, Note_on_c, 9, 38, 0
8, 87487, Note_on_c, 9, 38, 105
8, 87487, Note_on_c, 9, 69, 54
8, 87495, Note_on_c, 9, 69, 0
8, 87495, Note_on_c, 9, 38, 0
8, 87551, Note_on_c, 9, 36, 105
8, 87551, Note_on_c, 9, 38, 80
8, 87551, Note_on_c, 9, 49, 108
8, 87551, Note_on_c, 9, 69, 70
8, 87559, Note_on_c, 9, 69, 0
8, 87559, Note_on_c, 9, 36, 0
8, 87559, Note_on_c, 9, 38, 0
8, 87559, Note_on_c, 9, 49, 0
8, 87679, Note_on_c, 9, 38, 64
8, 87679, Note_on_c, 9, 69, 54
8, 87687, Note_on_c, 9, 69, 0
8, 87687, Note_on_c, 9, 38, 0
8, 87743, Note_on_c, 9, 38, 105
8, 87743, Note_on_c, 9, 39, 105
8, 87743, Note_on_c, 9, 69, 70
8, 87751, Note_on_c, 9, 69, 0
8, 87751, Note_on_c, 9, 39, 0
8, 87751, Note_on_c, 9, 38, 0
8, 87871, Note_on_c, 9, 38, 64
8, 87871, Note_on_c, 9, 69, 54
8, 87879, Note_on_c, 9, 69, 0
8, 87879, Note_on_c, 9, 38, 0
8, 87935, Note_on_c, 9, 36, 105
8, 87935, Note_on_c, 9, 38, 80
8, 87935, Note_on_c, 9, 69, 70
8, 87943, Note_on_c, 9, 69, 0
8, 87943, Note_on_c, 9, 38, 0
8, 87943, Note_on_c, 9, 36, 0
8, 88063, Note_on_c, 9, 38, 64
8, 88063, Note_on_c, 9, 69, 54
8, 88071, Note_on_c, 9, 69, 0
8, 88071, Note_on_c, 9, 38, 0
8, 88127, Note_on_c, 9, 38, 105
8, 88127, Note_on_c, 9, 39, 105
8, 88127, Note_on_c, 9, 69, 70
8, 88135, Note_on_c, 9, 69, 0
8, 88135, Note_on_c, 9, 39, 0
8, 88135, Note_on_c, 9, 38, 0
8, 88254, Note_on_c, 9, 38, 64
8, 88254, Note_on_c, 9, 69, 54
8, 88262, Note_on_c, 9, 69, 0
8, 88262, Note_on_c, 9, 38, 0
8, 88319, Note_on_c, 9, 36, 105
8, 88319, Note_on_c, 9, 38, 80
8, 88319, Note_on_c, 9, 69, 70
8, 88327, Note_on_c, 9, 69, 0
8, 88327, Note_on_c, 9, 38, 0
8, 88327, Note_on_c, 9, 36, 0
8, 88447, Note_on_c, 9, 38, 64
8, 88447, Note_on_c, 9, 69, 54
8, 88455, Note_on_c, 9, 69, 0
8, 88455, Note_on_c, 9, 38, 0
8, 88511, Note_on_c, 9, 38, 105
8, 88511, Note_on_c, 9, 39, 105
8, 88511, Note_on_c, 9, 69, 70
8, 88519, Note_on_c, 9, 69, 0
8, 88519, Note_on_c, 9, 39, 0
8, 88519, Note_on_c, 9, 38, 0
8, 88639, Note_on_c, 9, 38, 64
8, 88639, Note_on_c, 9, 69, 54
8, 88647, Note_on_c, 9, 69, 0
8, 88647, Note_on_c, 9, 38, 0
8, 88703, Note_on_c, 9, 36, 105
8, 88703, Note_on_c, 9, 38, 80
8, 88703, Note_on_c, 9, 69, 70
8, 88711, Note_on_c, 9, 69, 0
8, 88711, Note_on_c, 9, 38, 0
8, 88711, Note_on_c, 9, 36, 0
8, 88831, Note_on_c, 9, 38, 64
8, 88831, Note_on_c, 9, 69, 54
8, 88839, Note_on_c, 9, 69, 0
8, 88839, Note_on_c, 9, 38, 0
8, 88895, Note_on_c, 9, 38, 105
8, 88895, Note_on_c, 9, 39, 105
8, 88895, Note_on_c, 9, 69, 70
8, 88903, Note_on_c, 9, 69, 0
8, 88903, Note_on_c, 9, 39, 0
8, 88903, Note_on_c, 9, 38, 0
8, 89023, Note_on_c, 9, 38, 64
8, 89023, Note_on_c, 9, 69, 54
8, 89031, Note_on_c, 9, 69, 0
8, 89031, Note_on_c, 9, 38, 0
8, 89087, Note_on_c, 9, 36, 105
8, 89087, Note_on_c, 9, 38, 80
8, 89087, Note_on_c, 9, 69, 70
8, 89095, Note_on_c, 9, 69, 0
8, 89095, Note_on_c, 9, 38, 0
8, 89095, Note_on_c, 9, 36, 0
8, 89215, Note_on_c, 9, 38, 64
8, 89215, Note_on_c, 9, 69, 54
8, 89223, Note_on_c, 9, 69, 0
8, 89223, Note_on_c, 9, 38, 0
8, 89279, Note_on_c, 9, 38, 105
8, 89279, Note_on_c, 9, 39, 105
8, 89279, Note_on_c, 9, 69, 70
8, 89287, Note_on_c, 9, 69, 0
8, 89287, Note_on_c, 9, 39, 0
8, 89287, Note_on_c, 9, 38, 0
8, 89407, Note_on_c, 9, 38, 64
8, 89407, Note_on_c, 9, 69, 54
8, 89415, Note_on_c, 9, 69, 0
8, 89415, Note_on_c, 9, 38, 0
8, 89471, Note_on_c, 9, 36, 105
8, 89471, Note_on_c, 9, 38, 80
8, 89471, Note_on_c, 9, 69, 70
8, 89479, Note_on_c, 9, 69, 0
8, 89479, Note_on_c, 9, 38, 0
8, 89479, Note_on_c, 9, 36, 0
8, 89599, Note_on_c, 9, 38, 64
8, 89599, Note_on_c, 9, 69, 54
8, 89607, Note_on_c, 9, 69, 0
8, 89607, Note_on_c, 9, 38, 0
8, 89663, Note_on_c, 9, 38, 105
8, 89663, Note_on_c, 9, 39, 105
8, 89663, Note_on_c, 9, 69, 70
8, 89671, Note_on_c, 9, 69, 0
8, 89671, Note_on_c, 9, 39, 0
8, 89671, Note_on_c, 9, 38, 0
8, 89791, Note_on_c, 9, 38, 64
8, 89791, Note_on_c, 9, 69, 54
8, 89799, Note_on_c, 9, 69, 0
8, 89799, Note_on_c, 9, 38, 0
8, 89855, Note_on_c, 9, 36, 105
8, 89855, Note_on_c, 9, 38, 80
8, 89855, Note_on_c, 9, 69, 70
8, 89863, Note_on_c, 9, 69, 0
8, 89863, Note_on_c, 9, 38, 0
8, 89863, Note_on_c, 9, 36, 0
8, 89983, Note_on_c, 9, 38, 64
8, 89983, Note_on_c, 9, 69, 54
8, 89991, Note_on_c, 9, 69, 0
8, 89991, Note_on_c, 9, 38, 0
8, 90047, Note_on_c, 9, 38, 105
8, 90047, Note_on_c, 9, 39, 105
8, 90047, Note_on_c, 9, 69, 70
8, 90055, Note_on_c, 9, 69, 0
8, 90055, Note_on_c, 9, 39, 0
8, 90055, Note_on_c, 9, 38, 0
8, 90175, Note_on_c, 9, 38, 64
8, 90175, Note_on_c, 9, 69, 54
8, 90183, Note_on_c, 9, 69, 0
8, 90183, Note_on_c, 9, 38, 0
8, 90239, Note_on_c, 9, 36, 105
8, 90239, Note_on_c, 9, 38, 80
8, 90239, Note_on_c, 9, 69, 70
8, 90247, Note_on_c, 9, 69, 0
8, 90247, Note_on_c, 9, 38, 0
8, 90247, Note_on_c, 9, 36, 0
8, 90367, Note_on_c, 9, 38, 64
8, 90367, Note_on_c, 9, 69, 54
8, 90375, Note_on_c, 9, 69, 0
8, 90375, Note_on_c, 9, 38, 0
8, 90431, Note_on_c, 9, 38, 105
8, 90431, Note_on_c, 9, 39, 105
8, 90431, Note_on_c, 9, 69, 70
8, 90439, Note_on_c, 9, 69, 0
8, 90439, Note_on_c, 9, 39, 0
8, 90439, Note_on_c, 9, 38, 0
8, 90559, Note_on_c, 9, 38, 64
8, 90559, Note_on_c, 9, 69, 54
8, 90567, Note_on_c, 9, 69, 0
8, 90567, Note_on_c, 9, 38, 0
8, 90623, Note_on_c, 9, 36, 105
8, 90623, Note_on_c, 9, 38, 80
8, 90623, Note_on_c, 9, 69, 70
8, 90631, Note_on_c, 9, 69, 0
8, 90631, Note_on_c, 9, 38, 0
8, 90631, Note_on_c, 9, 36, 0
8, 90751, Note_on_c, 9, 38, 64
8, 90751, Note_on_c, 9, 69, 54
8, 90759, Note_on_c, 9, 69, 0
8, 90759, Note_on_c, 9, 38, 0
8, 90815, Note_on_c, 9, 38, 105
8, 90815, Note_on_c, 9, 39, 105
8, 90815, Note_on_c, 9, 69, 70
8, 90823, Note_on_c, 9, 69, 0
8, 90823, Note_on_c, 9, 39, 0
8, 90823, Note_on_c, 9, 38, 0
8, 90943, Note_on_c, 9, 38, 64
8, 90943, Note_on_c, 9, 69, 54
8, 90951, Note_on_c, 9, 69, 0
8, 90951, Note_on_c, 9, 38, 0
8, 91007, Note_on_c, 9, 36, 105
8, 91007, Note_on_c, 9, 38, 80
8, 91007, Note_on_c, 9, 69, 70
8, 91015, Note_on_c, 9, 69, 0
8, 91015, Note_on_c, 9, 38, 0
8, 91015, Note_on_c, 9, 36, 0
8, 91135, Note_on_c, 9, 38, 64
8, 91135, Note_on_c, 9, 69, 54
8, 91143, Note_on_c, 9, 69, 0
8, 91143, Note_on_c, 9, 38, 0
8, 91199, Note_on_c, 9, 38, 105
8, 91199, Note_on_c, 9, 39, 105
8, 91199, Note_on_c, 9, 69, 70
8, 91207, Note_on_c, 9, 69, 0
8, 91207, Note_on_c, 9, 39, 0
8, 91207, Note_on_c, 9, 38, 0
8, 91327, Note_on_c, 9, 38, 64
8, 91327, Note_on_c, 9, 69, 54
8, 91335, Note_on_c, 9, 69, 0
8, 91335, Note_on_c, 9, 38, 0
8, 91391, Note_on_c, 9, 36, 105
8, 91391, Note_on_c, 9, 38, 80
8, 91391, Note_on_c, 9, 69, 70
8, 91399, Note_on_c, 9, 69, 0
8, 91399, Note_on_c, 9, 38, 0
8, 91399, Note_on_c, 9, 36, 0
8, 91519, Note_on_c, 9, 38, 64
8, 91519, Note_on_c, 9, 69, 54
8, 91527, Note_on_c, 9, 69, 0
8, 91527, Note_on_c, 9, 38, 0
8, 91583, Note_on_c, 9, 38, 105
8, 91583, Note_on_c, 9, 39, 105
8, 91583, Note_on_c, 9, 69, 70
8, 91591, Note_on_c, 9, 69, 0
8, 91591, Note_on_c, 9, 39, 0
8, 91591, Note_on_c, 9, 38, 0
8, 91711, Note_on_c, 9, 38, 64
8, 91711, Note_on_c, 9, 69, 54
8, 91719, Note_on_c, 9, 69, 0
8, 91719, Note_on_c, 9, 38, 0
8, 91775, Note_on_c, 9, 36, 105
8, 91775, Note_on_c, 9, 38, 80
8, 91775, Note_on_c, 9, 69, 70
8, 91783, Note_on_c, 9, 69, 0
8, 91783, Note_on_c, 9, 38, 0
8, 91783, Note_on_c, 9, 36, 0
8, 91903, Note_on_c, 9, 38, 64
8, 91903, Note_on_c, 9, 69, 54
8, 91911, Note_on_c, 9, 69, 0
8, 91911, Note_on_c, 9, 38, 0
8, 91967, Note_on_c, 9, 38, 105
8, 91967, Note_on_c, 9, 39, 105
8, 91967, Note_on_c, 9, 69, 70
8, 91975, Note_on_c, 9, 69, 0
8, 91975, Note_on_c, 9, 39, 0
8, 91975, Note_on_c, 9, 38, 0
8, 92095, Note_on_c, 9, 38, 64
8, 92095, Note_on_c, 9, 69, 54
8, 92103, Note_on_c, 9, 69, 0
8, 92103, Note_on_c, 9, 38, 0
8, 92159, Note_on_c, 9, 36, 105
8, 92159, Note_on_c, 9, 38, 80
8, 92159, Note_on_c, 9, 69, 70
8, 92167, Note_on_c, 9, 69, 0
8, 92167, Note_on_c, 9, 38, 0
8, 92167, Note_on_c, 9, 36, 0
8, 92287, Note_on_c, 9, 38, 64
8, 92287, Note_on_c, 9, 69, 54
8, 92295, Note_on_c, 9, 69, 0
8, 92295, Note_on_c, 9, 38, 0
8, 92350, Note_on_c, 9, 38, 105
8, 92350, Note_on_c, 9, 39, 105
8, 92350, Note_on_c, 9, 69, 70
8, 92358, Note_on_c, 9, 69, 0
8, 92358, Note_on_c, 9, 39, 0
8, 92358, Note_on_c, 9, 38, 0
8, 92479, Note_on_c, 9, 38, 64
8, 92479, Note_on_c, 9, 69, 54
8, 92487, Note_on_c, 9, 69, 0
8, 92487, Note_on_c, 9, 38, 0
8, 92543, Note_on_c, 9, 36, 105
8, 92543, Note_on_c, 9, 38, 80
8, 92543, Note_on_c, 9, 69, 70
8, 92551, Note_on_c, 9, 69, 0
8, 92551, Note_on_c, 9, 38, 0
8, 92551, Note_on_c, 9, 36, 0
8, 92671, Note_on_c, 9, 38, 64
8, 92671, Note_on_c, 9, 69, 54
8, 92679, Note_on_c, 9, 69, 0
8, 92679, Note_on_c, 9, 38, 0
8, 92735, Note_on_c, 9, 38, 105
8, 92735, Note_on_c, 9, 39, 105
8, 92735, Note_on_c, 9, 69, 70
8, 92743, Note_on_c, 9, 69, 0
8, 92743, Note_on_c, 9, 39, 0
8, 92743, Note_on_c, 9, 38, 0
8, 92863, Note_on_c, 9, 38, 64
8, 92863, Note_on_c, 9, 69, 54
8, 92871, Note_on_c, 9, 69, 0
8, 92871, Note_on_c, 9, 38, 0
8, 92927, Note_on_c, 9, 36, 105
8, 92927, Note_on_c, 9, 38, 105
8, 92927, Note_on_c, 9, 69, 70
8, 92935, Note_on_c, 9, 69, 0
8, 92935, Note_on_c, 9, 38, 0
8, 92935, Note_on_c, 9, 36, 0
8, 92991, Note_on_c, 9, 38, 105
8, 92999, Note_on_c, 9, 38, 0
8, 93055, Note_on_c, 9, 38, 105
8, 93055, Note_on_c, 9, 69, 54
8, 93063, Note_on_c, 9, 69, 0
8, 93063, Note_on_c, 9, 38, 0
8, 93119, Note_on_c, 9, 38, 105
8, 93119, Note_on_c, 9, 39, 105
8, 93119, Note_on_c, 9, 69, 70
8, 93127, Note_on_c, 9, 69, 0
8, 93127, Note_on_c, 9, 39, 0
8, 93127, Note_on_c, 9, 38, 0
8, 93247, Note_on_c, 9, 38, 64
8, 93247, Note_on_c, 9, 45, 108
8, 93247, Note_on_c, 9, 69, 54
8, 93255, Note_on_c, 9, 69, 0
8, 93255, Note_on_c, 9, 45, 0
8, 93255, Note_on_c, 9, 38, 0
8, 93310, Note_on_c, 9, 36, 105
8, 93310, Note_on_c, 9, 38, 80
8, 93310, Note_on_c, 9, 69, 70
8, 93318, Note_on_c, 9, 69, 0
8, 93318, Note_on_c, 9, 38, 0
8, 93318, Note_on_c, 9, 36, 0
8, 93439, Note_on_c, 9, 38, 72
8, 93439, Note_on_c, 9, 69, 54
8, 93447, Note_on_c, 9, 69, 0
8, 93447, Note_on_c, 9, 38, 0
8, 93469, Note_on_c, 9, 38, 86
8, 93477, Note_on_c, 9, 38, 0
8, 93503, Note_on_c, 9, 38, 105
8, 93503, Note_on_c, 9, 39, 105
8, 93503, Note_on_c, 9, 69, 70
8, 93511, Note_on_c, 9, 69, 0
8, 93511, Note_on_c, 9, 39, 0
8, 93511, Note_on_c, 9, 38, 0
8, 93631, Note_on_c, 9, 38, 105
8, 93631, Note_on_c, 9, 69, 54
8, 93639, Note_on_c, 9, 69, 0
8, 93639, Note_on_c, 9, 38, 0
8, 93695, Note_on_c, 9, 36, 105
8, 93695, Note_on_c, 9, 38, 80
8, 93695, Note_on_c, 9, 49, 108
8, 93695, Note_on_c, 9, 69, 70
8, 93703, Note_on_c, 9, 69, 0
8, 93703, Note_on_c, 9, 36, 0
8, 93703, Note_on_c, 9, 38, 0
8, 93703, Note_on_c, 9, 49, 0
8, 93823, Note_on_c, 9, 38, 64
8, 93823, Note_on_c, 9, 69, 54
8, 93831, Note_on_c, 9, 69, 0
8, 93831, Note_on_c, 9, 38, 0
8, 93887, Note_on_c, 9, 38, 105
8, 93887, Note_on_c, 9, 39, 105
8, 93887, Note_on_c, 9, 69, 70
8, 93895, Note_on_c, 9, 69, 0
8, 93895, Note_on_c, 9, 39, 0
8, 93895, Note_on_c, 9, 38, 0
8, 94015, Note_on_c, 9, 38, 64
8, 94015, Note_on_c, 9, 69, 54
8, 94023, Note_on_c, 9, 69, 0
8, 94023, Note_on_c, 9, 38, 0
8, 94079, Note_on_c, 9, 36, 105
8, 94079, Note_on_c, 9, 38, 80
8, 94079, Note_on_c, 9, 69, 70
8, 94087, Note_on_c, 9, 69, 0
8, 94087, Note_on_c, 9, 38, 0
8, 94087, Note_on_c, 9, 36, 0
8, 94207, Note_on_c, 9, 38, 64
8, 94207, Note_on_c, 9, 69, 54
8, 94215, Note_on_c, 9, 69, 0
8, 94215, Note_on_c, 9, 38, 0
8, 94271, Note_on_c, 9, 38, 105
8, 94271, Note_on_c, 9, 39, 105
8, 94271, Note_on_c, 9, 69, 70
8, 94279, Note_on_c, 9, 69, 0
8, 94279, Note_on_c, 9, 39, 0
8, 94279, Note_on_c, 9, 38, 0
8, 94399, Note_on_c, 9, 38, 64
8, 94399, Note_on_c, 9, 69, 54
8, 94407, Note_on_c, 9, 69, 0
8, 94407, Note_on_c, 9, 38, 0
8, 94463, Note_on_c, 9, 36, 105
8, 94463, Note_on_c, 9, 38, 80
8, 94463, Note_on_c, 9, 69, 70
8, 94471, Note_on_c, 9, 69, 0
8, 94471, Note_on_c, 9, 38, 0
8, 94471, Note_on_c, 9, 36, 0
8, 94591, Note_on_c, 9, 38, 64
8, 94591, Note_on_c, 9, 69, 54
8, 94599, Note_on_c, 9, 69, 0
8, 94599, Note_on_c, 9, 38, 0
8, 94655, Note_on_c, 9, 38, 105
8, 94655, Note_on_c, 9, 39, 105
8, 94655, Note_on_c, 9, 69, 70
8, 94663, Note_on_c, 9, 69, 0
8, 94663, Note_on_c, 9, 39, 0
8, 94663, Note_on_c, 9, 38, 0
8, 94783, Note_on_c, 9, 38, 64
8, 94783, Note_on_c, 9, 69, 54
8, 94791, Note_on_c, 9, 69, 0
8, 94791, Note_on_c, 9, 38, 0
8, 94847, Note_on_c, 9, 36, 105
8, 94847, Note_on_c, 9, 38, 80
8, 94847, Note_on_c, 9, 69, 70
8, 94855, Note_on_c, 9, 69, 0
8, 94855, Note_on_c, 9, 38, 0
8, 94855, Note_on_c, 9, 36, 0
8, 94975, Note_on_c, 9, 38, 64
8, 94975, Note_on_c, 9, 69, 54
8, 94983, Note_on_c, 9, 69, 0
8, 94983, Note_on_c, 9, 38, 0
8, 95039, Note_on_c, 9, 38, 105
8, 95039, Note_on_c, 9, 39, 105
8, 95039, Note_on_c, 9, 69, 70
8, 95047, Note_on_c, 9, 69, 0
8, 95047, Note_on_c, 9, 39, 0
8, 95047, Note_on_c, 9, 38, 0
8, 95167, Note_on_c, 9, 38, 64
8, 95167, Note_on_c, 9, 69, 54
8, 95175, Note_on_c, 9, 69, 0
8, 95175, Note_on_c, 9, 38, 0
8, 95231, Note_on_c, 9, 36, 105
8, 95231, Note_on_c, 9, 38, 80
8, 95231, Note_on_c, 9, 69, 70
8, 95239, Note_on_c, 9, 69, 0
8, 95239, Note_on_c, 9, 38, 0
8, 95239, Note_on_c, 9, 36, 0
8, 95359, Note_on_c, 9, 38, 64
8, 95359, Note_on_c, 9, 69, 54
8, 95367, Note_on_c, 9, 69, 0
8, 95367, Note_on_c, 9, 38, 0
8, 95423, Note_on_c, 9, 38, 105
8, 95423, Note_on_c, 9, 39, 105
8, 95423, Note_on_c, 9, 69, 70
8, 95431, Note_on_c, 9, 69, 0
8, 95431, Note_on_c, 9, 39, 0
8, 95431, Note_on_c, 9, 38, 0
8, 95551, Note_on_c, 9, 38, 64
8, 95551, Note_on_c, 9, 69, 54
8, 95559, Note_on_c, 9, 69, 0
8, 95559, Note_on_c, 9, 38, 0
8, 95615, Note_on_c, 9, 36, 105
8, 95615, Note_on_c, 9, 38, 80
8, 95615, Note_on_c, 9, 69, 70
8, 95623, Note_on_c, 9, 69, 0
8, 95623, Note_on_c, 9, 38, 0
8, 95623, Note_on_c, 9, 36, 0
8, 95743, Note_on_c, 9, 38, 64
8, 95743, Note_on_c, 9, 69, 54
8, 95751, Note_on_c, 9, 69, 0
8, 95751, Note_on_c, 9, 38, 0
8, 95807, Note_on_c, 9, 38, 105
8, 95807, Note_on_c, 9, 39, 105
8, 95807, Note_on_c, 9, 69, 70
8, 95815, Note_on_c, 9, 69, 0
8, 95815, Note_on_c, 9, 39, 0
8, 95815, Note_on_c, 9, 38, 0
8, 95935, Note_on_c, 9, 38, 64
8, 95935, Note_on_c, 9, 69, 54
8, 95943, Note_on_c, 9, 69, 0
8, 95943, Note_on_c, 9, 38, 0
8, 95999, Note_on_c, 9, 36, 105
8, 95999, Note_on_c, 9, 38, 80
8, 95999, Note_on_c, 9, 69, 70
8, 96007, Note_on_c, 9, 69, 0
8, 96007, Note_on_c, 9, 38, 0
8, 96007, Note_on_c, 9, 36, 0
8, 96127, Note_on_c, 9, 38, 64
8, 96127, Note_on_c, 9, 69, 54
8, 96135, Note_on_c, 9, 69, 0
8, 96135, Note_on_c, 9, 38, 0
8, 96191, Note_on_c, 9, 38, 105
8, 96191, Note_on_c, 9, 39, 105
8, 96191, Note_on_c, 9, 69, 70
8, 96199, Note_on_c, 9, 69, 0
8, 96199, Note_on_c, 9, 39, 0
8, 96199, Note_on_c, 9, 38, 0
8, 96319, Note_on_c, 9, 38, 64
8, 96319, Note_on_c, 9, 69, 54
8, 96327, Note_on_c, 9, 69, 0
8, 96327, Note_on_c, 9, 38, 0
8, 96383, Note_on_c, 9, 36, 105
8, 96383, Note_on_c, 9, 38, 80
8, 96383, Note_on_c, 9, 69, 70
8, 96391, Note_on_c, 9, 69, 0
8, 96391, Note_on_c, 9, 38, 0
8, 96391, Note_on_c, 9, 36, 0
8, 96511, Note_on_c, 9, 38, 64
8, 96511, Note_on_c, 9, 69, 54
8, 96519, Note_on_c, 9, 69, 0
8, 96519, Note_on_c, 9, 38, 0
8, 96575, Note_on_c, 9, 38, 105
8, 96575, Note_on_c, 9, 39, 105
8, 96575, Note_on_c, 9, 69, 70
8, 96583, Note_on_c, 9, 69, 0
8, 96583, Note_on_c, 9, 39, 0
8, 96583, Note_on_c, 9, 38, 0
8, 96703, Note_on_c, 9, 38, 64
8, 96703, Note_on_c, 9, 69, 54
8, 96711, Note_on_c, 9, 69, 0
8, 96711, Note_on_c, 9, 38, 0
8, 96767, Note_on_c, 9, 36, 105
8, 96767, Note_on_c, 9, 38, 80
8, 96767, Note_on_c, 9, 49, 108
8, 96767, Note_on_c, 9, 69, 70
8, 96775, Note_on_c, 9, 69, 0
8, 96775, Note_on_c, 9, 36, 0
8, 96775, Note_on_c, 9, 38, 0
8, 96775, Note_on_c, 9, 49, 0
8, 96895, Note_on_c, 9, 38, 64
8, 96895, Note_on_c, 9, 69, 54
8, 96903, Note_on_c, 9, 69, 0
8, 96903, Note_on_c, 9, 38, 0
8, 96959, Note_on_c, 9, 38, 105
8, 96959, Note_on_c, 9, 39, 105
8, 96959, Note_on_c, 9, 69, 70
8, 96967, Note_on_c, 9, 69, 0
8, 96967, Note_on_c, 9, 39, 0
8, 96967, Note_on_c, 9, 38, 0
8, 97087, Note_on_c, 9, 38, 64
8, 97087, Note_on_c, 9, 69, 54
8, 97095, Note_on_c, 9, 69, 0
8, 97095, Note_on_c, 9, 38, 0
8, 97151, Note_on_c, 9, 36, 105
8, 97151, Note_on_c, 9, 38, 80
8, 97151, Note_on_c, 9, 69, 70
8, 97159, Note_on_c, 9, 69, 0
8, 97159, Note_on_c, 9, 38, 0
8, 97159, Note_on_c, 9, 36, 0
8, 97279, Note_on_c, 9, 38, 64
8, 97279, Note_on_c, 9, 69, 54
8, 97287, Note_on_c, 9, 69, 0
8, 97287, Note_on_c, 9, 38, 0
8, 97343, Note_on_c, 9, 38, 105
8, 97343, Note_on_c, 9, 39, 105
8, 97343, Note_on_c, 9, 69, 70
8, 97351, Note_on_c, 9, 69, 0
8, 97351, Note_on_c, 9, 39, 0
8, 97351, Note_on_c, 9, 38, 0
8, 97470, Note_on_c, 9, 38, 64
8, 97470, Note_on_c, 9, 69, 54
8, 97478, Note_on_c, 9, 69, 0
8, 97478, Note_on_c, 9, 38, 0
8, 97535, Note_on_c, 9, 36, 105
8, 97535, Note_on_c, 9, 38, 80
8, 97535, Note_on_c, 9, 69, 70
8, 97543, Note_on_c, 9, 69, 0
8, 97543, Note_on_c, 9, 38, 0
8, 97543, Note_on_c, 9, 36, 0
8, 97662, Note_on_c, 9, 38, 64
8, 97662, Note_on_c, 9, 69, 54
8, 97670, Note_on_c, 9, 69, 0
8, 97670, Note_on_c, 9, 38, 0
8, 97727, Note_on_c, 9, 38, 105
8, 97727, Note_on_c, 9, 39, 105
8, 97727, Note_on_c, 9, 69, 70
8, 97735, Note_on_c, 9, 69, 0
8, 97735, Note_on_c, 9, 39, 0
8, 97735, Note_on_c, 9, 38, 0
8, 97855, Note_on_c, 9, 38, 64
8, 97855, Note_on_c, 9, 69, 54
8, 97863, Note_on_c, 9, 69, 0
8, 97863, Note_on_c, 9, 38, 0
8, 97919, Note_on_c, 9, 36, 105
8, 97919, Note_on_c, 9, 38, 80
8, 97919, Note_on_c, 9, 69, 70
8, 97927, Note_on_c, 9, 69, 0
8, 97927, Note_on_c, 9, 38, 0
8, 97927, Note_on_c, 9, 36, 0
8, 98047, Note_on_c, 9, 38, 64
8, 98047, Note_on_c, 9, 69, 54
8, 98055, Note_on_c, 9, 69, 0
8, 98055, Note_on_c, 9, 38, 0
8, 98111, Note_on_c, 9, 38, 105
8, 98111, Note_on_c, 9, 39, 105
8, 98111, Note_on_c, 9, 69, 70
8, 98119, Note_on_c, 9, 69, 0
8, 98119, Note_on_c, 9, 39, 0
8, 98119, Note_on_c, 9, 38, 0
8, 98239, Note_on_c, 9, 38, 64
8, 98239, Note_on_c, 9, 69, 54
8, 98247, Note_on_c, 9, 69, 0
8, 98247, Note_on_c, 9, 38, 0
8, 98303, Note_on_c, 9, 36, 105
8, 98303, Note_on_c, 9, 38, 80
8, 98303, Note_on_c, 9, 69, 70
8, 98311, Note_on_c, 9, 69, 0
8, 98311, Note_on_c, 9, 38, 0
8, 98311, Note_on_c, 9, 36, 0
8, 98431, Note_on_c, 9, 38, 64
8, 98431, Note_on_c, 9, 69, 54
8, 98439, Note_on_c, 9, 69, 0
8, 98439, Note_on_c, 9, 38, 0
8, 98495, Note_on_c, 9, 38, 105
8, 98495, Note_on_c, 9, 39, 105
8, 98495, Note_on_c, 9, 69, 70
8, 98503, Note_on_c, 9, 69, 0
8, 98503, Note_on_c, 9, 39, 0
8, 98503, Note_on_c, 9, 38, 0
8, 98623, Note_on_c, 9, 38, 64
8, 98623, Note_on_c, 9, 69, 54
8, 98631, Note_on_c, 9, 69, 0
8, 98631, Note_on_c, 9, 38, 0
8, 98687, Note_on_c, 9, 36, 105
8, 98687, Note_on_c, 9, 38, 80
8, 98687, Note_on_c, 9, 69, 70
8, 98695, Note_on_c, 9, 69, 0
8, 98695, Note_on_c, 9, 38, 0
8, 98695, Note_on_c, 9, 36, 0
8, 98814, Note_on_c, 9, 38, 64
8, 98814, Note_on_c, 9, 69, 54
8, 98822, Note_on_c, 9, 69, 0
8, 98822, Note_on_c, 9, 38, 0
8, 98879, Note_on_c, 9, 38, 105
8, 98879, Note_on_c, 9, 39, 105
8, 98879, Note_on_c, 9, 69, 70
8, 98887, Note_on_c, 9, 69, 0
8, 98887, Note_on_c, 9, 39, 0
8, 98887, Note_on_c, 9, 38, 0
8, 99007, Note_on_c, 9, 38, 64
8, 99007, Note_on_c, 9, 69, 54
8, 99015, Note_on_c, 9, 69, 0
8, 99015, Note_on_c, 9, 38, 0
8, 99071, Note_on_c, 9, 36, 105
8, 99071, Note_on_c, 9, 38, 80
8, 99071, Note_on_c, 9, 69, 70
8, 99079, Note_on_c, 9, 69, 0
8, 99079, Note_on_c, 9, 38, 0
8, 99079, Note_on_c, 9, 36, 0
8, 99199, Note_on_c, 9, 38, 64
8, 99199, Note_on_c, 9, 69, 54
8, 99207, Note_on_c, 9, 69, 0
8, 99207, Note_on_c, 9, 38, 0
8, 99263, Note_on_c, 9, 38, 105
8, 99263, Note_on_c, 9, 39, 105
8, 99263, Note_on_c, 9, 69, 70
8, 99271, Note_on_c, 9, 69, 0
8, 99271, Note_on_c, 9, 39, 0
8, 99271, Note_on_c, 9, 38, 0
8, 99391, Note_on_c, 9, 38, 64
8, 99391, Note_on_c, 9, 69, 54
8, 99399, Note_on_c, 9, 69, 0
8, 99399, Note_on_c, 9, 38, 0
8, 99455, Note_on_c, 9, 36, 105
8, 99455, Note_on_c, 9, 38, 80
8, 99455, Note_on_c, 9, 69, 70
8, 99463, Note_on_c, 9, 69, 0
8, 99463, Note_on_c, 9, 38, 0
8, 99463, Note_on_c, 9, 36, 0
8, 99583, Note_on_c, 9, 38, 64
8, 99583, Note_on_c, 9, 69, 54
8, 99591, Note_on_c, 9, 69, 0
8, 99591, Note_on_c, 9, 38, 0
8, 99647, Note_on_c, 9, 38, 105
8, 99647, Note_on_c, 9, 39, 105
8, 99647, Note_on_c, 9, 69, 70
8, 99655, Note_on_c, 9, 69, 0
8, 99655, Note_on_c, 9, 39, 0
8, 99655, Note_on_c, 9, 38, 0
8, 99775, Note_on_c, 9, 38, 64
8, 99775, Note_on_c, 9, 69, 54
8, 99783, Note_on_c, 9, 69, 0
8, 99783, Note_on_c, 9, 38, 0
8, 99839, Note_on_c, 9, 36, 105
8, 99839, Note_on_c, 9, 38, 80
8, 99839, Note_on_c, 9, 49, 108
8, 99839, Note_on_c, 9, 69, 70
8, 99847, Note_on_c, 9, 69, 0
8, 99847, Note_on_c, 9, 36, 0
8, 99847, Note_on_c, 9, 38, 0
8, 99847, Note_on_c, 9, 49, 0
8, 99967, Note_on_c, 9, 38, 64
8, 99967, Note_on_c, 9, 69, 54
8, 99975, Note_on_c, 9, 69, 0
8, 99975, Note_on_c, 9, 38, 0
8, 100031, Note_on_c, 9, 38, 105
8, 100031, Note_on_c, 9, 39, 105
8, 100031, Note_on_c, 9, 69, 70
8, 100039, Note_on_c, 9, 69, 0
8, 100039, Note_on_c, 9, 39, 0
8, 100039, Note_on_c, 9, 38, 0
8, 100159, Note_on_c, 9, 38, 64
8, 100159, Note_on_c, 9, 69, 54
8, 100167, Note_on_c, 9, 69, 0
8, 100167, Note_on_c, 9, 38, 0
8, 100223, Note_on_c, 9, 36, 105
8, 100223, Note_on_c, 9, 38, 80
8, 100223, Note_on_c, 9, 69, 70
8, 100231, Note_on_c, 9, 69, 0
8, 100231, Note_on_c, 9, 38, 0
8, 100231, Note_on_c, 9, 36, 0
8, 100351, Note_on_c, 9, 38, 64
8, 100351, Note_on_c, 9, 69, 54
8, 100359, Note_on_c, 9, 69, 0
8, 100359, Note_on_c, 9, 38, 0
8, 100415, Note_on_c, 9, 38, 105
8, 100415, Note_on_c, 9, 39, 105
8, 100415, Note_on_c, 9, 69, 70
8, 100423, Note_on_c, 9, 69, 0
8, 100423, Note_on_c, 9, 39, 0
8, 100423, Note_on_c, 9, 38, 0
8, 100543, Note_on_c, 9, 38, 64
8, 100543, Note_on_c, 9, 69, 54
8, 100551, Note_on_c, 9, 69, 0
8, 100551, Note_on_c, 9, 38, 0
8, 100607, Note_on_c, 9, 36, 105
8, 100607, Note_on_c, 9, 38, 80
8, 100607, Note_on_c, 9, 69, 70
8, 100615, Note_on_c, 9, 69, 0
8, 100615, Note_on_c, 9, 38, 0
8, 100615, Note_on_c, 9, 36, 0
8, 100735, Note_on_c, 9, 38, 64
8, 100735, Note_on_c, 9, 69, 54
8, 100743, Note_on_c, 9, 69, 0
8, 100743, Note_on_c, 9, 38, 0
8, 100799, Note_on_c, 9, 38, 105
8, 100799, Note_on_c, 9, 39, 105
8, 100799, Note_on_c, 9, 69, 70
8, 100807, Note_on_c, 9, 69, 0
8, 100807, Note_on_c, 9, 39, 0
8, 100807, Note_on_c, 9, 38, 0
8, 100927, Note_on_c, 9, 38, 64
8, 100927, Note_on_c, 9, 69, 54
8, 100935, Note_on_c, 9, 69, 0
8, 100935, Note_on_c, 9, 38, 0
8, 100990, Note_on_c, 9, 36, 105
8, 100990, Note_on_c, 9, 38, 80
8, 100990, Note_on_c, 9, 69, 70
8, 100998, Note_on_c, 9, 69, 0
8, 100998, Note_on_c, 9, 38, 0
8, 100998, Note_on_c, 9, 36, 0
8, 101119, Note_on_c, 9, 38, 64
8, 101119, Note_on_c, 9, 69, 54
8, 101127, Note_on_c, 9, 69, 0
8, 101127, Note_on_c, 9, 38, 0
8, 101183, Note_on_c, 9, 38, 105
8, 101183, Note_on_c, 9, 39, 105
8, 101183, Note_on_c, 9, 69, 70
8, 101191, Note_on_c, 9, 69, 0
8, 101191, Note_on_c, 9, 39, 0
8, 101191, Note_on_c, 9, 38, 0
8, 101311, Note_on_c, 9, 38, 64
8, 101311, Note_on_c, 9, 69, 54
8, 101319, Note_on_c, 9, 69, 0
8, 101319, Note_on_c, 9, 38, 0
8, 101375, Note_on_c, 9, 36, 105
8, 101375, Note_on_c, 9, 38, 80
8, 101375, Note_on_c, 9, 69, 70
8, 101383, Note_on_c, 9, 69, 0
8, 101383, Note_on_c, 9, 38, 0
8, 101383, Note_on_c, 9, 36, 0
8, 101503, Note_on_c, 9, 38, 64
8, 101503, Note_on_c, 9, 69, 54
8, 101511, Note_on_c, 9, 69, 0
8, 101511, Note_on_c, 9, 38, 0
8, 101567, Note_on_c, 9, 38, 105
8, 101567, Note_on_c, 9, 39, 105
8, 101567, Note_on_c, 9, 69, 70
8, 101575, Note_on_c, 9, 69, 0
8, 101575, Note_on_c, 9, 39, 0
8, 101575, Note_on_c, 9, 38, 0
8, 101695, Note_on_c, 9, 38, 64
8, 101695, Note_on_c, 9, 69, 54
8, 101703, Note_on_c, 9, 69, 0
8, 101703, Note_on_c, 9, 38, 0
8, 101759, Note_on_c, 9, 36, 105
8, 101759, Note_on_c, 9, 38, 80
8, 101759, Note_on_c, 9, 69, 70
8, 101767, Note_on_c, 9, 69, 0
8, 101767, Note_on_c, 9, 38, 0
8, 101767, Note_on_c, 9, 36, 0
8, 101887, Note_on_c, 9, 38, 64
8, 101887, Note_on_c, 9, 69, 54
8, 101895, Note_on_c, 9, 69, 0
8, 101895, Note_on_c, 9, 38, 0
8, 101951, Note_on_c, 9, 38, 105
8, 101951, Note_on_c, 9, 39, 105
8, 101951, Note_on_c, 9, 69, 70
8, 101959, Note_on_c, 9, 69, 0
8, 101959, Note_on_c, 9, 39, 0
8, 101959, Note_on_c, 9, 38, 0
8, 102079, Note_on_c, 9, 38, 64
8, 102079, Note_on_c, 9, 69, 54
8, 102087, Note_on_c, 9, 69, 0
8, 102087, Note_on_c, 9, 38, 0
8, 102143, Note_on_c, 9, 36, 105
8, 102143, Note_on_c, 9, 38, 80
8, 102143, Note_on_c, 9, 69, 70
8, 102151, Note_on_c, 9, 69, 0
8, 102151, Note_on_c, 9, 38, 0
8, 102151, Note_on_c, 9, 36, 0
8, 102271, Note_on_c, 9, 38, 64
8, 102271, Note_on_c, 9, 69, 54
8, 102279, Note_on_c, 9, 69, 0
8, 102279, Note_on_c, 9, 38, 0
8, 102335, Note_on_c, 9, 38, 105
8, 102335, Note_on_c, 9, 39, 105
8, 102335, Note_on_c, 9, 69, 70
8, 102343, Note_on_c, 9, 69, 0
8, 102343, Note_on_c, 9, 39, 0
8, 102343, Note_on_c, 9, 38, 0
8, 102463, Note_on_c, 9, 38, 64
8, 102463, Note_on_c, 9, 69, 54
8, 102471, Note_on_c, 9, 69, 0
8, 102471, Note_on_c, 9, 38, 0
8, 102527, Note_on_c, 9, 36, 105
8, 102527, Note_on_c, 9, 38, 80
8, 102527, Note_on_c, 9, 69, 70
8, 102535, Note_on_c, 9, 69, 0
8, 102535, Note_on_c, 9, 38, 0
8, 102535, Note_on_c, 9, 36, 0
8, 102655, Note_on_c, 9, 38, 64
8, 102655, Note_on_c, 9, 69, 54
8, 102663, Note_on_c, 9, 69, 0
8, 102663, Note_on_c, 9, 38, 0
8, 102719, Note_on_c, 9, 38, 105
8, 102719, Note_on_c, 9, 39, 105
8, 102719, Note_on_c, 9, 69, 70
8, 102727, Note_on_c, 9, 69, 0
8, 102727, Note_on_c, 9, 39, 0
8, 102727, Note_on_c, 9, 38, 0
8, 102847, Note_on_c, 9, 38, 64
8, 102847, Note_on_c, 9, 69, 54
8, 102855, Note_on_c, 9, 69, 0
8, 102855, Note_on_c, 9, 38, 0
8, 102911, Note_on_c, 9, 36, 105
8, 102911, Note_on_c, 9, 38, 80
8, 102911, Note_on_c, 9, 49, 108
8, 102911, Note_on_c, 9, 69, 70
8, 102919, Note_on_c, 9, 69, 0
8, 102919, Note_on_c, 9, 36, 0
8, 102919, Note_on_c, 9, 38, 0
8, 102919, Note_on_c, 9, 49, 0
8, 103039, Note_on_c, 9, 38, 64
8, 103039, Note_on_c, 9, 69, 54
8, 103047, Note_on_c, 9, 69, 0
8, 103047, Note_on_c, 9, 38, 0
8, 103103, Note_on_c, 9, 38, 105
8, 103103, Note_on_c, 9, 39, 105
8, 103103, Note_on_c, 9, 69, 70
8, 103111, Note_on_c, 9, 69, 0
8, 103111, Note_on_c, 9, 39, 0
8, 103111, Note_on_c, 9, 38, 0
8, 103231, Note_on_c, 9, 38, 64
8, 103231, Note_on_c, 9, 69, 54
8, 103239, Note_on_c, 9, 69, 0
8, 103239, Note_on_c, 9, 38, 0
8, 103295, Note_on_c, 9, 36, 105
8, 103295, Note_on_c, 9, 38, 80
8, 103295, Note_on_c, 9, 69, 70
8, 103303, Note_on_c, 9, 69, 0
8, 103303, Note_on_c, 9, 38, 0
8, 103303, Note_on_c, 9, 36, 0
8, 103423, Note_on_c, 9, 38, 64
8, 103423, Note_on_c, 9, 69, 54
8, 103431, Note_on_c, 9, 69, 0
8, 103431, Note_on_c, 9, 38, 0
8, 103487, Note_on_c, 9, 38, 105
8, 103487, Note_on_c, 9, 39, 105
8, 103487, Note_on_c, 9, 69, 70
8, 103495, Note_on_c, 9, 69, 0
8, 103495, Note_on_c, 9, 39, 0
8, 103495, Note_on_c, 9, 38, 0
8, 103615, Note_on_c, 9, 38, 64
8, 103615, Note_on_c, 9, 69, 54
8, 103623, Note_on_c, 9, 69, 0
8, 103623, Note_on_c, 9, 38, 0
8, 103679, Note_on_c, 9, 36, 105
8, 103679, Note_on_c, 9, 38, 80
8, 103679, Note_on_c, 9, 69, 70
8, 103687, Note_on_c, 9, 69, 0
8, 103687, Note_on_c, 9, 38, 0
8, 103687, Note_on_c, 9, 36, 0
8, 103807, Note_on_c, 9, 38, 64
8, 103807, Note_on_c, 9, 69, 54
8, 103815, Note_on_c, 9, 69, 0
8, 103815, Note_on_c, 9, 38, 0
8, 103871, Note_on_c, 9, 38, 105
8, 103871, Note_on_c, 9, 39, 105
8, 103871, Note_on_c, 9, 69, 70
8, 103879, Note_on_c, 9, 69, 0
8, 103879, Note_on_c, 9, 39, 0
8, 103879, Note_on_c, 9, 38, 0
8, 103999, Note_on_c, 9, 38, 64
8, 103999, Note_on_c, 9, 69, 54
8, 104007, Note_on_c, 9, 69, 0
8, 104007, Note_on_c, 9, 38, 0
8, 104063, Note_on_c, 9, 36, 105
8, 104063, Note_on_c, 9, 38, 80
8, 104063, Note_on_c, 9, 69, 70
8, 104071, Note_on_c, 9, 69, 0
8, 104071, Note_on_c, 9, 38, 0
8, 104071, Note_on_c, 9, 36, 0
8, 104191, Note_on_c, 9, 38, 64
8, 104191, Note_on_c, 9, 69, 54
8, 104199, Note_on_c, 9, 69, 0
8, 104199, Note_on_c, 9, 38, 0
8, 104255, Note_on_c, 9, 38, 105
8, 104255, Note_on_c, 9, 39, 105
8, 104255, Note_on_c, 9, 69, 70
8, 104263, Note_on_c, 9, 69, 0
8, 104263, Note_on_c, 9, 39, 0
8, 104263, Note_on_c, 9, 38, 0
8, 104383, Note_on_c, 9, 38, 64
8, 104383, Note_on_c, 9, 69, 54
8, 104391, Note_on_c, 9, 69, 0
8, 104391, Note_on_c, 9, 38, 0
8, 104447, Note_on_c, 9, 36, 105
8, 104447, Note_on_c, 9, 38, 80
8, 104447, Note_on_c, 9, 69, 70
8, 104455, Note_on_c, 9, 69, 0
8, 104455, Note_on_c, 9, 38, 0
8, 104455, Note_on_c, 9, 36, 0
8, 104575, Note_on_c, 9, 38, 64
8, 104575, Note_on_c, 9, 69, 54
8, 104583, Note_on_c, 9, 69, 0
8, 104583, Note_on_c, 9, 38, 0
8, 104639, Note_on_c, 9, 38, 105
8, 104639, Note_on_c, 9, 39, 105
8, 104639, Note_on_c, 9, 69, 70
8, 104647, Note_on_c, 9, 69, 0
8, 104647, Note_on_c, 9, 39, 0
8, 104647, Note_on_c, 9, 38, 0
8, 104767, Note_on_c, 9, 38, 64
8, 104767, Note_on_c, 9, 69, 54
8, 104775, Note_on_c, 9, 69, 0
8, 104775, Note_on_c, 9, 38, 0
8, 104831, Note_on_c, 9, 36, 105
8, 104831, Note_on_c, 9, 38, 80
8, 104831, Note_on_c, 9, 69, 70
8, 104839, Note_on_c, 9, 69, 0
8, 104839, Note_on_c, 9, 38, 0
8, 104839, Note_on_c, 9, 36, 0
8, 104959, Note_on_c, 9, 38, 64
8, 104959, Note_on_c, 9, 69, 54
8, 104967, Note_on_c, 9, 69, 0
8, 104967, Note_on_c, 9, 38, 0
8, 105023, Note_on_c, 9, 38, 105
8, 105023, Note_on_c, 9, 39, 105
8, 105023, Note_on_c, 9, 69, 70
8, 105031, Note_on_c, 9, 69, 0
8, 105031, Note_on_c, 9, 39, 0
8, 105031, Note_on_c, 9, 38, 0
8, 105150, Note_on_c, 9, 38, 64
8, 105150, Note_on_c, 9, 69, 54
8, 105158, Note_on_c, 9, 69, 0
8, 105158, Note_on_c, 9, 38, 0
8, 105215, Note_on_c, 9, 36, 105
8, 105215, Note_on_c, 9, 38, 105
8, 105215, Note_on_c, 9, 69, 70
8, 105223, Note_on_c, 9, 69, 0
8, 105223, Note_on_c, 9, 38, 0
8, 105223, Note_on_c, 9, 36, 0
8, 105279, Note_on_c, 9, 38, 105
8, 105287, Note_on_c, 9, 38, 0
8, 105343, Note_on_c, 9, 38, 105
8, 105343, Note_on_c, 9, 69, 54
8, 105351, Note_on_c, 9, 69, 0
8, 105351, Note_on_c, 9, 38, 0
8, 105407, Note_on_c, 9, 38, 105
8, 105407, Note_on_c, 9, 39, 105
8, 105407, Note_on_c, 9, 69, 70
8, 105415, Note_on_c, 9, 69, 0
8, 105415, Note_on_c, 9, 39, 0
8, 105415, Note_on_c, 9, 38, 0
8, 105535, Note_on_c, 9, 38, 80
8, 105535, Note_on_c, 9, 69, 54
8, 105543, Note_on_c, 9, 69, 0
8, 105543, Note_on_c, 9, 38, 0
8, 105599, Note_on_c, 9, 36, 105
8, 105599, Note_on_c, 9, 38, 96
8, 105599, Note_on_c, 9, 69, 70
8, 105607, Note_on_c, 9, 69, 0
8, 105607, Note_on_c, 9, 38, 0
8, 105607, Note_on_c, 9, 36, 0
8, 105663, Note_on_c, 9, 38, 105
8, 105671, Note_on_c, 9, 38, 0
8, 105726, Note_on_c, 9, 38, 105
8, 105726, Note_on_c, 9, 69, 54
8, 105734, Note_on_c, 9, 69, 0
8, 105734, Note_on_c, 9, 38, 0
8, 105791, Note_on_c, 9, 38, 105
8, 105791, Note_on_c, 9, 39, 105
8, 105791, Note_on_c, 9, 69, 70
8, 105799, Note_on_c, 9, 69, 0
8, 105799, Note_on_c, 9, 39, 0
8, 105799, Note_on_c, 9, 38, 0
8, 105919, Note_on_c, 9, 38, 105
8, 105919, Note_on_c, 9, 69, 54
8, 105927, Note_on_c, 9, 69, 0
8, 105927, Note_on_c, 9, 38, 0
8, 105983, Note_on_c, 9, 36, 105
8, 105983, Note_on_c, 9, 38, 80
8, 105983, Note_on_c, 9, 49, 108
8, 105983, Note_on_c, 9, 69, 70
8, 105991, Note_on_c, 9, 69, 0
8, 105991, Note_on_c, 9, 36, 0
8, 105991, Note_on_c, 9, 38, 0
8, 105991, Note_on_c, 9, 49, 0
8, 106111, Note_on_c, 9, 38, 64
8, 106111, Note_on_c, 9, 69, 54
8, 106119, Note_on_c, 9, 69, 0
8, 106119, Note_on_c, 9, 38, 0
8, 106175, Note_on_c, 9, 38, 105
8, 106175, Note_on_c, 9, 39, 105
8, 106175, Note_on_c, 9, 69, 70
8, 106183, Note_on_c, 9, 69, 0
8, 106183, Note_on_c, 9, 39, 0
8, 106183, Note_on_c, 9, 38, 0
8, 106303, Note_on_c, 9, 38, 64
8, 106303, Note_on_c, 9, 69, 54
8, 106311, Note_on_c, 9, 69, 0
8, 106311, Note_on_c, 9, 38, 0
8, 106367, Note_on_c, 9, 36, 105
8, 106367, Note_on_c, 9, 38, 80
8, 106367, Note_on_c, 9, 69, 70
8, 106375, Note_on_c, 9, 69, 0
8, 106375, Note_on_c, 9, 38, 0
8, 106375, Note_on_c, 9, 36, 0
8, 106495, Note_on_c, 9, 38, 64
8, 106495, Note_on_c, 9, 69, 54
8, 106503, Note_on_c, 9, 69, 0
8, 106503, Note_on_c, 9, 38, 0
8, 106559, Note_on_c, 9, 38, 105
8, 106559, Note_on_c, 9, 39, 105
8, 106559, Note_on_c, 9, 69, 70
8, 106567, Note_on_c, 9, 69, 0
8, 106567, Note_on_c, 9, 39, 0
8, 106567, Note_on_c, 9, 38, 0
8, 106687, Note_on_c, 9, 38, 64
8, 106687, Note_on_c, 9, 69, 54
8, 106695, Note_on_c, 9, 69, 0
8, 106695, Note_on_c, 9, 38, 0
8, 106751, Note_on_c, 9, 36, 105
8, 106751, Note_on_c, 9, 38, 80
8, 106751, Note_on_c, 9, 69, 70
8, 106759, Note_on_c, 9, 69, 0
8, 106759, Note_on_c, 9, 38, 0
8, 106759, Note_on_c, 9, 36, 0
8, 106879, Note_on_c, 9, 38, 64
8, 106879, Note_on_c, 9, 69, 54
8, 106887, Note_on_c, 9, 69, 0
8, 106887, Note_on_c, 9, 38, 0
8, 106943, Note_on_c, 9, 38, 105
8, 106943, Note_on_c, 9, 39, 105
8, 106943, Note_on_c, 9, 69, 70
8, 106951, Note_on_c, 9, 69, 0
8, 106951, Note_on_c, 9, 39, 0
8, 106951, Note_on_c, 9, 38, 0
8, 107071, Note_on_c, 9, 38, 64
8, 107071, Note_on_c, 9, 69, 54
8, 107079, Note_on_c, 9, 69, 0
8, 107079, Note_on_c, 9, 38, 0
8, 107135, Note_on_c, 9, 36, 105
8, 107135, Note_on_c, 9, 38, 80
8, 107135, Note_on_c, 9, 69, 70
8, 107143, Note_on_c, 9, 69, 0
8, 107143, Note_on_c, 9, 38, 0
8, 107143, Note_on_c, 9, 36, 0
8, 107263, Note_on_c, 9, 38, 64
8, 107263, Note_on_c, 9, 69, 54
8, 107271, Note_on_c, 9, 69, 0
8, 107271, Note_on_c, 9, 38, 0
8, 107327, Note_on_c, 9, 38, 105
8, 107327, Note_on_c, 9, 39, 105
8, 107327, Note_on_c, 9, 69, 70
8, 107335, Note_on_c, 9, 69, 0
8, 107335, Note_on_c, 9, 39, 0
8, 107335, Note_on_c, 9, 38, 0
8, 107455, Note_on_c, 9, 38, 64
8, 107455, Note_on_c, 9, 69, 54
8, 107463, Note_on_c, 9, 69, 0
8, 107463, Note_on_c, 9, 38, 0
8, 107519, Note_on_c, 9, 36, 105
8, 107519, Note_on_c, 9, 38, 80
8, 107519, Note_on_c, 9, 69, 70
8, 107527, Note_on_c, 9, 69, 0
8, 107527, Note_on_c, 9, 38, 0
8, 107527, Note_on_c, 9, 36, 0
8, 107647, Note_on_c, 9, 38, 64
8, 107647, Note_on_c, 9, 69, 54
8, 107655, Note_on_c, 9, 69, 0
8, 107655, Note_on_c, 9, 38, 0
8, 107711, Note_on_c, 9, 38, 105
8, 107711, Note_on_c, 9, 39, 105
8, 107711, Note_on_c, 9, 69, 70
8, 107719, Note_on_c, 9, 69, 0
8, 107719, Note_on_c, 9, 39, 0
8, 107719, Note_on_c, 9, 38, 0
8, 107839, Note_on_c, 9, 38, 64
8, 107839, Note_on_c, 9, 69, 54
8, 107847, Note_on_c, 9, 69, 0
8, 107847, Note_on_c, 9, 38, 0
8, 107903, Note_on_c, 9, 36, 105
8, 107903, Note_on_c, 9, 38, 80
8, 107903, Note_on_c, 9, 69, 70
8, 107911, Note_on_c, 9, 69, 0
8, 107911, Note_on_c, 9, 38, 0
8, 107911, Note_on_c, 9, 36, 0
8, 108031, Note_on_c, 9, 38, 64
8, 108031, Note_on_c, 9, 69, 54
8, 108039, Note_on_c, 9, 69, 0
8, 108039, Note_on_c, 9, 38, 0
8, 108095, Note_on_c, 9, 38, 105
8, 108095, Note_on_c, 9, 39, 105
8, 108095, Note_on_c, 9, 69, 70
8, 108103, Note_on_c, 9, 69, 0
8, 108103, Note_on_c, 9, 39, 0
8, 108103, Note_on_c, 9, 38, 0
8, 108223, Note_on_c, 9, 38, 64
8, 108223, Note_on_c, 9, 69, 54
8, 108231, Note_on_c, 9, 69, 0
8, 108231, Note_on_c, 9, 38, 0
8, 108287, Note_on_c, 9, 36, 105
8, 108287, Note_on_c, 9, 38, 80
8, 108287, Note_on_c, 9, 69, 70
8, 108295, Note_on_c, 9, 69, 0
8, 108295, Note_on_c, 9, 38, 0
8, 108295, Note_on_c, 9, 36, 0
8, 108415, Note_on_c, 9, 38, 64
8, 108415, Note_on_c, 9, 69, 54
8, 108423, Note_on_c, 9, 69, 0
8, 108423, Note_on_c, 9, 38, 0
8, 108479, Note_on_c, 9, 38, 105
8, 108479, Note_on_c, 9, 39, 105
8, 108479, Note_on_c, 9, 69, 70
8, 108487, Note_on_c, 9, 69, 0
8, 108487, Note_on_c, 9, 39, 0
8, 108487, Note_on_c, 9, 38, 0
8, 108607, Note_on_c, 9, 38, 64
8, 108607, Note_on_c, 9, 69, 54
8, 108615, Note_on_c, 9, 69, 0
8, 108615, Note_on_c, 9, 38, 0
8, 108671, Note_on_c, 9, 36, 105
8, 108671, Note_on_c, 9, 38, 80
8, 108671, Note_on_c, 9, 69, 70
8, 108679, Note_on_c, 9, 69, 0
8, 108679, Note_on_c, 9, 38, 0
8, 108679, Note_on_c, 9, 36, 0
8, 108799, Note_on_c, 9, 38, 64
8, 108799, Note_on_c, 9, 69, 54
8, 108807, Note_on_c, 9, 69, 0
8, 108807, Note_on_c, 9, 38, 0
8, 108863, Note_on_c, 9, 38, 105
8, 108863, Note_on_c, 9, 39, 105
8, 108863, Note_on_c, 9, 69, 70
8, 108871, Note_on_c, 9, 69, 0
8, 108871, Note_on_c, 9, 39, 0
8, 108871, Note_on_c, 9, 38, 0
8, 108991, Note_on_c, 9, 38, 64
8, 108991, Note_on_c, 9, 69, 54
8, 108999, Note_on_c, 9, 69, 0
8, 108999, Note_on_c, 9, 38, 0
8, 109055, Note_on_c, 9, 36, 105
8, 109055, Note_on_c, 9, 38, 80
8, 109055, Note_on_c, 9, 69, 70
8, 109063, Note_on_c, 9, 69, 0
8, 109063, Note_on_c, 9, 38, 0
8, 109063, Note_on_c, 9, 36, 0
8, 109183, Note_on_c, 9, 38, 64
8, 109183, Note_on_c, 9, 69, 54
8, 109191, Note_on_c, 9, 69, 0
8, 109191, Note_on_c, 9, 38, 0
8, 109247, Note_on_c, 9, 38, 105
8, 109247, Note_on_c, 9, 39, 105
8, 109247, Note_on_c, 9, 69, 70
8, 109255, Note_on_c, 9, 69, 0
8, 109255, Note_on_c, 9, 39, 0
8, 109255, Note_on_c, 9, 38, 0
8, 109374, Note_on_c, 9, 38, 64
8, 109374, Note_on_c, 9, 69, 54
8, 109382, Note_on_c, 9, 69, 0
8, 109382, Note_on_c, 9, 38, 0
8, 109439, Note_on_c, 9, 36, 105
8, 109439, Note_on_c, 9, 38, 80
8, 109439, Note_on_c, 9, 69, 70
8, 109447, Note_on_c, 9, 69, 0
8, 109447, Note_on_c, 9, 38, 0
8, 109447, Note_on_c, 9, 36, 0
8, 109567, Note_on_c, 9, 38, 64
8, 109567, Note_on_c, 9, 69, 54
8, 109575, Note_on_c, 9, 69, 0
8, 109575, Note_on_c, 9, 38, 0
8, 109631, Note_on_c, 9, 38, 105
8, 109631, Note_on_c, 9, 39, 105
8, 109631, Note_on_c, 9, 69, 70
8, 109639, Note_on_c, 9, 69, 0
8, 109639, Note_on_c, 9, 39, 0
8, 109639, Note_on_c, 9, 38, 0
8, 109758, Note_on_c, 9, 38, 64
8, 109758, Note_on_c, 9, 69, 54
8, 109766, Note_on_c, 9, 69, 0
8, 109766, Note_on_c, 9, 38, 0
8, 109823, Note_on_c, 9, 36, 105
8, 109823, Note_on_c, 9, 38, 80
8, 109823, Note_on_c, 9, 69, 70
8, 109831, Note_on_c, 9, 69, 0
8, 109831, Note_on_c, 9, 38, 0
8, 109831, Note_on_c, 9, 36, 0
8, 109951, Note_on_c, 9, 38, 64
8, 109951, Note_on_c, 9, 69, 54
8, 109959, Note_on_c, 9, 69, 0
8, 109959, Note_on_c, 9, 38, 0
8, 110015, Note_on_c, 9, 38, 105
8, 110015, Note_on_c, 9, 39, 105
8, 110015, Note_on_c, 9, 69, 70
8, 110023, Note_on_c, 9, 69, 0
8, 110023, Note_on_c, 9, 39, 0
8, 110023, Note_on_c, 9, 38, 0
8, 110143, Note_on_c, 9, 38, 64
8, 110143, Note_on_c, 9, 69, 54
8, 110151, Note_on_c, 9, 69, 0
8, 110151, Note_on_c, 9, 38, 0
8, 110207, Note_on_c, 9, 36, 105
8, 110207, Note_on_c, 9, 38, 80
8, 110207, Note_on_c, 9, 69, 70
8, 110215, Note_on_c, 9, 69, 0
8, 110215, Note_on_c, 9, 38, 0
8, 110215, Note_on_c, 9, 36, 0
8, 110335, Note_on_c, 9, 38, 64
8, 110335, Note_on_c, 9, 69, 54
8, 110343, Note_on_c, 9, 69, 0
8, 110343, Note_on_c, 9, 38, 0
8, 110399, Note_on_c, 9, 38, 105
8, 110399, Note_on_c, 9, 39, 105
8, 110399, Note_on_c, 9, 69, 70
8, 110407, Note_on_c, 9, 69, 0
8, 110407, Note_on_c, 9, 39, 0
8, 110407, Note_on_c, 9, 38, 0
8, 110527, Note_on_c, 9, 38, 64
8, 110527, Note_on_c, 9, 69, 54
8, 110535, Note_on_c, 9, 69, 0
8, 110535, Note_on_c, 9, 38, 0
8, 110591, Note_on_c, 9, 36, 105
8, 110591, Note_on_c, 9, 38, 80
8, 110591, Note_on_c, 9, 69, 70
8, 110599, Note_on_c, 9, 69, 0
8, 110599, Note_on_c, 9, 38, 0
8, 110599, Note_on_c, 9, 36, 0
8, 110719, Note_on_c, 9, 38, 64
8, 110719, Note_on_c, 9, 69, 54
8, 110727, Note_on_c, 9, 69, 0
8, 110727, Note_on_c, 9, 38, 0
8, 110783, Note_on_c, 9, 38, 105
8, 110783, Note_on_c, 9, 39, 105
8, 110783, Note_on_c, 9, 69, 70
8, 110791, Note_on_c, 9, 69, 0
8, 110791, Note_on_c, 9, 39, 0
8, 110791, Note_on_c, 9, 38, 0
8, 110911, Note_on_c, 9, 38, 64
8, 110911, Note_on_c, 9, 69, 54
8, 110919, Note_on_c, 9, 69, 0
8, 110919, Note_on_c, 9, 38, 0
8, 110975, Note_on_c, 9, 36, 105
8, 110975, Note_on_c, 9, 38, 80
8, 110975, Note_on_c, 9, 69, 70
8, 110983, Note_on_c, 9, 69, 0
8, 110983, Note_on_c, 9, 38, 0
8, 110983, Note_on_c, 9, 36, 0
8, 111102, Note_on_c, 9, 38, 64
8, 111102, Note_on_c, 9, 69, 54
8, 111110, Note_on_c, 9, 69, 0
8, 111110, Note_on_c, 9, 38, 0
8, 111167, Note_on_c, 9, 38, 105
8, 111167, Note_on_c, 9, 39, 105
8, 111167, Note_on_c, 9, 69, 70
8, 111175, Note_on_c, 9, 69, 0
8, 111175, Note_on_c, 9, 39, 0
8, 111175, Note_on_c, 9, 38, 0
8, 111295, Note_on_c, 9, 38, 64
8, 111295, Note_on_c, 9, 69, 54
8, 111303, Note_on_c, 9, 69, 0
8, 111303, Note_on_c, 9, 38, 0
8, 111359, Note_on_c, 9, 36, 105
8, 111359, Note_on_c, 9, 38, 80
8, 111359, Note_on_c, 9, 69, 70
8, 111367, Note_on_c, 9, 69, 0
8, 111367, Note_on_c, 9, 38, 0
8, 111367, Note_on_c, 9, 36, 0
8, 111487, Note_on_c, 9, 38, 64
8, 111487, Note_on_c, 9, 69, 54
8, 111495, Note_on_c, 9, 69, 0
8, 111495, Note_on_c, 9, 38, 0
8, 111551, Note_on_c, 9, 38, 105
8, 111551, Note_on_c, 9, 39, 105
8, 111551, Note_on_c, 9, 69, 70
8, 111559, Note_on_c, 9, 69, 0
8, 111559, Note_on_c, 9, 39, 0
8, 111559, Note_on_c, 9, 38, 0
8, 111679, Note_on_c, 9, 38, 64
8, 111679, Note_on_c, 9, 69, 54
8, 111687, Note_on_c, 9, 69, 0
8, 111687, Note_on_c, 9, 38, 0
8, 111743, Note_on_c, 9, 36, 105
8, 111743, Note_on_c, 9, 38, 80
8, 111743, Note_on_c, 9, 69, 70
8, 111751, Note_on_c, 9, 69, 0
8, 111751, Note_on_c, 9, 38, 0
8, 111751, Note_on_c, 9, 36, 0
8, 111871, Note_on_c, 9, 38, 64
8, 111871, Note_on_c, 9, 69, 54
8, 111879, Note_on_c, 9, 69, 0
8, 111879, Note_on_c, 9, 38, 0
8, 111935, Note_on_c, 9, 38, 105
8, 111935, Note_on_c, 9, 39, 105
8, 111935, Note_on_c, 9, 69, 70
8, 111943, Note_on_c, 9, 69, 0
8, 111943, Note_on_c, 9, 39, 0
8, 111943, Note_on_c, 9, 38, 0
8, 112063, Note_on_c, 9, 38, 105
8, 112063, Note_on_c, 9, 69, 54
8, 112071, Note_on_c, 9, 69, 0
8, 112071, Note_on_c, 9, 38, 0
8, 112127, Note_on_c, 9, 36, 105
8, 112127, Note_on_c, 9, 38, 80
8, 112127, Note_on_c, 9, 49, 108
8, 112127, Note_on_c, 9, 69, 70
8, 112135, Note_on_c, 9, 69, 0
8, 112135, Note_on_c, 9, 36, 0
8, 112135, Note_on_c, 9, 38, 0
8, 112135, Note_on_c, 9, 49, 0
8, 112255, Note_on_c, 9, 38, 64
8, 112255, Note_on_c, 9, 69, 54
8, 112263, Note_on_c, 9, 69, 0
8, 112263, Note_on_c, 9, 38, 0
8, 112319, Note_on_c, 9, 38, 105
8, 112319, Note_on_c, 9, 39, 105
8, 112319, Note_on_c, 9, 69, 70
8, 112327, Note_on_c, 9, 69, 0
8, 112327, Note_on_c, 9, 39, 0
8, 112327, Note_on_c, 9, 38, 0
8, 112447, Note_on_c, 9, 38, 64
8, 112447, Note_on_c, 9, 69, 54
8, 112455, Note_on_c, 9, 69, 0
8, 112455, Note_on_c, 9, 38, 0
8, 112511, Note_on_c, 9, 36, 105
8, 112511, Note_on_c, 9, 38, 80
8, 112511, Note_on_c, 9, 69, 70
8, 112519, Note_on_c, 9, 69, 0
8, 112519, Note_on_c, 9, 38, 0
8, 112519, Note_on_c, 9, 36, 0
8, 112639, Note_on_c, 9, 38, 64
8, 112639, Note_on_c, 9, 69, 54
8, 112647, Note_on_c, 9, 69, 0
8, 112647, Note_on_c, 9, 38, 0
8, 112703, Note_on_c, 9, 38, 105
8, 112703, Note_on_c, 9, 39, 105
8, 112703, Note_on_c, 9, 69, 70
8, 112711, Note_on_c, 9, 69, 0
8, 112711, Note_on_c, 9, 39, 0
8, 112711, Note_on_c, 9, 38, 0
8, 112831, Note_on_c, 9, 38, 64
8, 112831, Note_on_c, 9, 69, 54
8, 112839, Note_on_c, 9, 69, 0
8, 112839, Note_on_c, 9, 38, 0
8, 112895, Note_on_c, 9, 36, 105
8, 112895, Note_on_c, 9, 38, 80
8, 112895, Note_on_c, 9, 69, 70
8, 112903, Note_on_c, 9, 69, 0
8, 112903, Note_on_c, 9, 38, 0
8, 112903, Note_on_c, 9, 36, 0
8, 113023, Note_on_c, 9, 38, 64
8, 113023, Note_on_c, 9, 69, 54
8, 113031, Note_on_c, 9, 69, 0
8, 113031, Note_on_c, 9, 38, 0
8, 113087, Note_on_c, 9, 38, 105
8, 113087, Note_on_c, 9, 39, 105
8, 113087, Note_on_c, 9, 69, 70
8, 113095, Note_on_c, 9, 69, 0
8, 113095, Note_on_c, 9, 39, 0
8, 113095, Note_on_c, 9, 38, 0
8, 113215, Note_on_c, 9, 38, 64
8, 113215, Note_on_c, 9, 69, 54
8, 113223, Note_on_c, 9, 69, 0
8, 113223, Note_on_c, 9, 38, 0
8, 113279, Note_on_c, 9, 36, 105
8, 113279, Note_on_c, 9, 38, 80
8, 113279, Note_on_c, 9, 69, 70
8, 113287, Note_on_c, 9, 69, 0
8, 113287, Note_on_c, 9, 38, 0
8, 113287, Note_on_c, 9, 36, 0
8, 113407, Note_on_c, 9, 38, 64
8, 113407, Note_on_c, 9, 69, 54
8, 113415, Note_on_c, 9, 69, 0
8, 113415, Note_on_c, 9, 38, 0
8, 113471, Note_on_c, 9, 38, 105
8, 113471, Note_on_c, 9, 39, 105
8, 113471, Note_on_c, 9, 69, 70
8, 113479, Note_on_c, 9, 69, 0
8, 113479, Note_on_c, 9, 39, 0
8, 113479, Note_on_c, 9, 38, 0
8, 113599, Note_on_c, 9, 38, 64
8, 113599, Note_on_c, 9, 69, 54
8, 113607, Note_on_c, 9, 69, 0
8, 113607, Note_on_c, 9, 38, 0
8, 113663, Note_on_c, 9, 36, 105
8, 113663, Note_on_c, 9, 38, 80
8, 113663, Note_on_c, 9, 69, 70
8, 113671, Note_on_c, 9, 69, 0
8, 113671, Note_on_c, 9, 38, 0
8, 113671, Note_on_c, 9, 36, 0
8, 113791, Note_on_c, 9, 38, 64
8, 113791, Note_on_c, 9, 69, 54
8, 113799, Note_on_c, 9, 69, 0
8, 113799, Note_on_c, 9, 38, 0
8, 113855, Note_on_c, 9, 38, 105
8, 113855, Note_on_c, 9, 39, 105
8, 113855, Note_on_c, 9, 69, 70
8, 113863, Note_on_c, 9, 69, 0
8, 113863, Note_on_c, 9, 39, 0
8, 113863, Note_on_c, 9, 38, 0
8, 113983, Note_on_c, 9, 38, 64
8, 113983, Note_on_c, 9, 69, 54
8, 113991, Note_on_c, 9, 69, 0
8, 113991, Note_on_c, 9, 38, 0
8, 114047, Note_on_c, 9, 36, 105
8, 114047, Note_on_c, 9, 38, 80
8, 114047, Note_on_c, 9, 69, 70
8, 114055, Note_on_c, 9, 69, 0
8, 114055, Note_on_c, 9, 38, 0
8, 114055, Note_on_c, 9, 36, 0
8, 114175, Note_on_c, 9, 38, 64
8, 114175, Note_on_c, 9, 69, 54
8, 114183, Note_on_c, 9, 69, 0
8, 114183, Note_on_c, 9, 38, 0
8, 114239, Note_on_c, 9, 38, 105
8, 114239, Note_on_c, 9, 39, 105
8, 114239, Note_on_c, 9, 69, 70
8, 114247, Note_on_c, 9, 69, 0
8, 114247, Note_on_c, 9, 39, 0
8, 114247, Note_on_c, 9, 38, 0
8, 114367, Note_on_c, 9, 38, 64
8, 114367, Note_on_c, 9, 69, 54
8, 114375, Note_on_c, 9, 69, 0
8, 114375, Note_on_c, 9, 38, 0
8, 114431, Note_on_c, 9, 36, 105
8, 114431, Note_on_c, 9, 38, 80
8, 114431, Note_on_c, 9, 69, 70
8, 114439, Note_on_c, 9, 69, 0
8, 114439, Note_on_c, 9, 38, 0
8, 114439, Note_on_c, 9, 36, 0
8, 114559, Note_on_c, 9, 38, 64
8, 114559, Note_on_c, 9, 69, 54
8, 114567, Note_on_c, 9, 69, 0
8, 114567, Note_on_c, 9, 38, 0
8, 114623, Note_on_c, 9, 38, 105
8, 114623, Note_on_c, 9, 39, 105
8, 114623, Note_on_c, 9, 69, 70
8, 114631, Note_on_c, 9, 69, 0
8, 114631, Note_on_c, 9, 39, 0
8, 114631, Note_on_c, 9, 38, 0
8, 114751, Note_on_c, 9, 38, 64
8, 114751, Note_on_c, 9, 69, 54
8, 114759, Note_on_c, 9, 69, 0
8, 114759, Note_on_c, 9, 38, 0
8, 114815, Note_on_c, 9, 36, 105
8, 114815, Note_on_c, 9, 38, 80
8, 114815, Note_on_c, 9, 69, 70
8, 114823, Note_on_c, 9, 69, 0
8, 114823, Note_on_c, 9, 38, 0
8, 114823, Note_on_c, 9, 36, 0
8, 114943, Note_on_c, 9, 38, 64
8, 114943, Note_on_c, 9, 69, 54
8, 114951, Note_on_c, 9, 69, 0
8, 114951, Note_on_c, 9, 38, 0
8, 115007, Note_on_c, 9, 38, 105
8, 115007, Note_on_c, 9, 39, 105
8, 115007, Note_on_c, 9, 69, 70
8, 115015, Note_on_c, 9, 69, 0
8, 115015, Note_on_c, 9, 39, 0
8, 115015, Note_on_c, 9, 38, 0
8, 115135, Note_on_c, 9, 38, 64
8, 115135, Note_on_c, 9, 69, 54
8, 115143, Note_on_c, 9, 69, 0
8, 115143, Note_on_c, 9, 38, 0
8, 115199, Note_on_c, 9, 36, 105
8, 115199, Note_on_c, 9, 38, 80
8, 115199, Note_on_c, 9, 69, 70
8, 115207, Note_on_c, 9, 69, 0
8, 115207, Note_on_c, 9, 38, 0
8, 115207, Note_on_c, 9, 36, 0
8, 115327, Note_on_c, 9, 38, 64
8, 115327, Note_on_c, 9, 69, 54
8, 115335, Note_on_c, 9, 69, 0
8, 115335, Note_on_c, 9, 38, 0
8, 115391, Note_on_c, 9, 38, 105
8, 115391, Note_on_c, 9, 39, 105
8, 115391, Note_on_c, 9, 69, 70
8, 115399, Note_on_c, 9, 69, 0
8, 115399, Note_on_c, 9, 39, 0
8, 115399, Note_on_c, 9, 38, 0
8, 115519, Note_on_c, 9, 38, 64
8, 115519, Note_on_c, 9, 69, 54
8, 115527, Note_on_c, 9, 69, 0
8, 115527, Note_on_c, 9, 38, 0
8, 115583, Note_on_c, 9, 36, 105
8, 115583, Note_on_c, 9, 38, 80
8, 115583, Note_on_c, 9, 69, 70
8, 115591, Note_on_c, 9, 69, 0
8, 115591, Note_on_c, 9, 38, 0
8, 115591, Note_on_c, 9, 36, 0
8, 115711, Note_on_c, 9, 38, 64
8, 115711, Note_on_c, 9, 69, 54
8, 115719, Note_on_c, 9, 69, 0
8, 115719, Note_on_c, 9, 38, 0
8, 115775, Note_on_c, 9, 38, 105
8, 115775, Note_on_c, 9, 39, 105
8, 115775, Note_on_c, 9, 69, 70
8, 115783, Note_on_c, 9, 69, 0
8, 115783, Note_on_c, 9, 39, 0
8, 115783, Note_on_c, 9, 38, 0
8, 115903, Note_on_c, 9, 38, 64
8, 115903, Note_on_c, 9, 69, 54
8, 115911, Note_on_c, 9, 69, 0
8, 115911, Note_on_c, 9, 38, 0
8, 115967, Note_on_c, 9, 36, 105
8, 115967, Note_on_c, 9, 38, 80
8, 115967, Note_on_c, 9, 69, 70
8, 115975, Note_on_c, 9, 69, 0
8, 115975, Note_on_c, 9, 38, 0
8, 115975, Note_on_c, 9, 36, 0
8, 116095, Note_on_c, 9, 38, 64
8, 116095, Note_on_c, 9, 69, 54
8, 116103, Note_on_c, 9, 69, 0
8, 116103, Note_on_c, 9, 38, 0
8, 116159, Note_on_c, 9, 38, 105
8, 116159, Note_on_c, 9, 39, 105
8, 116159, Note_on_c, 9, 69, 70
8, 116167, Note_on_c, 9, 69, 0
8, 116167, Note_on_c, 9, 39, 0
8, 116167, Note_on_c, 9, 38, 0
8, 116287, Note_on_c, 9, 38, 64
8, 116287, Note_on_c, 9, 69, 54
8, 116295, Note_on_c, 9, 69, 0
8, 116295, Note_on_c, 9, 38, 0
8, 116351, Note_on_c, 9, 36, 105
8, 116351, Note_on_c, 9, 38, 80
8, 116351, Note_on_c, 9, 69, 70
8, 116359, Note_on_c, 9, 69, 0
8, 116359, Note_on_c, 9, 38, 0
8, 116359, Note_on_c, 9, 36, 0
8, 116479, Note_on_c, 9, 38, 64
8, 116479, Note_on_c, 9, 69, 54
8, 116487, Note_on_c, 9, 69, 0
8, 116487, Note_on_c, 9, 38, 0
8, 116543, Note_on_c, 9, 38, 105
8, 116543, Note_on_c, 9, 39, 105
8, 116543, Note_on_c, 9, 69, 70
8, 116551, Note_on_c, 9, 69, 0
8, 116551, Note_on_c, 9, 39, 0
8, 116551, Note_on_c, 9, 38, 0
8, 116671, Note_on_c, 9, 38, 64
8, 116671, Note_on_c, 9, 69, 54
8, 116679, Note_on_c, 9, 69, 0
8, 116679, Note_on_c, 9, 38, 0
8, 116735, Note_on_c, 9, 36, 105
8, 116735, Note_on_c, 9, 38, 80
8, 116735, Note_on_c, 9, 69, 70
8, 116743, Note_on_c, 9, 69, 0
8, 116743, Note_on_c, 9, 38, 0
8, 116743, Note_on_c, 9, 36, 0
8, 116863, Note_on_c, 9, 38, 64
8, 116863, Note_on_c, 9, 69, 54
8, 116871, Note_on_c, 9, 69, 0
8, 116871, Note_on_c, 9, 38, 0
8, 116927, Note_on_c, 9, 38, 105
8, 116927, Note_on_c, 9, 39, 105
8, 116927, Note_on_c, 9, 69, 70
8, 116935, Note_on_c, 9, 69, 0
8, 116935, Note_on_c, 9, 39, 0
8, 116935, Note_on_c, 9, 38, 0
8, 117055, Note_on_c, 9, 38, 64
8, 117055, Note_on_c, 9, 69, 54
8, 117063, Note_on_c, 9, 69, 0
8, 117063, Note_on_c, 9, 38, 0
8, 117119, Note_on_c, 9, 36, 105
8, 117119, Note_on_c, 9, 38, 80
8, 117119, Note_on_c, 9, 69, 70
8, 117127, Note_on_c, 9, 69, 0
8, 117127, Note_on_c, 9, 38, 0
8, 117127, Note_on_c, 9, 36, 0
8, 117247, Note_on_c, 9, 38, 64
8, 117247, Note_on_c, 9, 69, 54
8, 117255, Note_on_c, 9, 69, 0
8, 117255, Note_on_c, 9, 38, 0
8, 117311, Note_on_c, 9, 38, 105
8, 117311, Note_on_c, 9, 39, 105
8, 117311, Note_on_c, 9, 69, 70
8, 117319, Note_on_c, 9, 69, 0
8, 117319, Note_on_c, 9, 39, 0
8, 117319, Note_on_c, 9, 38, 0
8, 117439, Note_on_c, 9, 38, 64
8, 117439, Note_on_c, 9, 69, 54
8, 117447, Note_on_c, 9, 69, 0
8, 117447, Note_on_c, 9, 38, 0
8, 117503, Note_on_c, 9, 36, 105
8, 117503, Note_on_c, 9, 38, 105
8, 117503, Note_on_c, 9, 69, 70
8, 117504, Note_on_c, 9, 57, 108
8, 117511, Note_on_c, 9, 69, 0
8, 117511, Note_on_c, 9, 36, 0
8, 117511, Note_on_c, 9, 38, 0
8, 117512, Note_on_c, 9, 57, 0
8, 117567, Note_on_c, 9, 38, 110
8, 117575, Note_on_c, 9, 38, 0
8, 117631, Note_on_c, 9, 38, 113
8, 117631, Note_on_c, 9, 69, 54
8, 117639, Note_on_c, 9, 69, 0
8, 117639, Note_on_c, 9, 38, 0
8, 117695, Note_on_c, 9, 38, 117
8, 117695, Note_on_c, 9, 39, 105
8, 117695, Note_on_c, 9, 69, 70
8, 117703, Note_on_c, 9, 69, 0
8, 117703, Note_on_c, 9, 39, 0
8, 117703, Note_on_c, 9, 38, 0
8, 117823, Note_on_c, 9, 38, 80
8, 117823, Note_on_c, 9, 69, 54
8, 117831, Note_on_c, 9, 69, 0
8, 117831, Note_on_c, 9, 38, 0
8, 117887, Note_on_c, 9, 36, 105
8, 117887, Note_on_c, 9, 38, 96
8, 117887, Note_on_c, 9, 69, 70
8, 117895, Note_on_c, 9, 69, 0
8, 117895, Note_on_c, 9, 38, 0
8, 117895, Note_on_c, 9, 36, 0
8, 117951, Note_on_c, 9, 38, 105
8, 117959, Note_on_c, 9, 38, 0
8, 118015, Note_on_c, 9, 38, 110
8, 118015, Note_on_c, 9, 69, 54
8, 118023, Note_on_c, 9, 69, 0
8, 118023, Note_on_c, 9, 38, 0
8, 118079, Note_on_c, 9, 38, 115
8, 118079, Note_on_c, 9, 39, 105
8, 118079, Note_on_c, 9, 69, 70
8, 118087, Note_on_c, 9, 69, 0
8, 118087, Note_on_c, 9, 39, 0
8, 118087, Note_on_c, 9, 38, 0
8, 118207, Note_on_c, 9, 38, 105
8, 118207, Note_on_c, 9, 69, 54
8, 118215, Note_on_c, 9, 69, 0
8, 118215, Note_on_c, 9, 38, 0
8, 118271, Note_on_c, 9, 36, 105
8, 118271, Note_on_c, 9, 38, 80
8, 118271, Note_on_c, 9, 49, 108
8, 118271, Note_on_c, 9, 69, 70
8, 118279, Note_on_c, 9, 69, 0
8, 118279, Note_on_c, 9, 36, 0
8, 118279, Note_on_c, 9, 38, 0
8, 118279, Note_on_c, 9, 49, 0
8, 118399, Note_on_c, 9, 38, 64
8, 118399, Note_on_c, 9, 69, 54
8, 118407, Note_on_c, 9, 69, 0
8, 118407, Note_on_c, 9, 38, 0
8, 118463, Note_on_c, 9, 38, 105
8, 118463, Note_on_c, 9, 39, 105
8, 118463, Note_on_c, 9, 69, 70
8, 118471, Note_on_c, 9, 69, 0
8, 118471, Note_on_c, 9, 39, 0
8, 118471, Note_on_c, 9, 38, 0
8, 118591, Note_on_c, 9, 38, 64
8, 118591, Note_on_c, 9, 69, 54
8, 118599, Note_on_c, 9, 69, 0
8, 118599, Note_on_c, 9, 38, 0
8, 118655, Note_on_c, 9, 36, 105
8, 118655, Note_on_c, 9, 38, 80
8, 118655, Note_on_c, 9, 69, 70
8, 118663, Note_on_c, 9, 69, 0
8, 118663, Note_on_c, 9, 38, 0
8, 118663, Note_on_c, 9, 36, 0
8, 118783, Note_on_c, 9, 38, 64
8, 118783, Note_on_c, 9, 69, 54
8, 118791, Note_on_c, 9, 69, 0
8, 118791, Note_on_c, 9, 38, 0
8, 118847, Note_on_c, 9, 38, 105
8, 118847, Note_on_c, 9, 39, 105
8, 118847, Note_on_c, 9, 69, 70
8, 118855, Note_on_c, 9, 69, 0
8, 118855, Note_on_c, 9, 39, 0
8, 118855, Note_on_c, 9, 38, 0
8, 118975, Note_on_c, 9, 38, 64
8, 118975, Note_on_c, 9, 69, 54
8, 118983, Note_on_c, 9, 69, 0
8, 118983, Note_on_c, 9, 38, 0
8, 119039, Note_on_c, 9, 36, 105
8, 119039, Note_on_c, 9, 38, 80
8, 119039, Note_on_c, 9, 69, 70
8, 119047, Note_on_c, 9, 69, 0
8, 119047, Note_on_c, 9, 38, 0
8, 119047, Note_on_c, 9, 36, 0
8, 119167, Note_on_c, 9, 38, 64
8, 119167, Note_on_c, 9, 69, 54
8, 119175, Note_on_c, 9, 69, 0
8, 119175, Note_on_c, 9, 38, 0
8, 119231, Note_on_c, 9, 38, 105
8, 119231, Note_on_c, 9, 39, 105
8, 119231, Note_on_c, 9, 69, 70
8, 119239, Note_on_c, 9, 69, 0
8, 119239, Note_on_c, 9, 39, 0
8, 119239, Note_on_c, 9, 38, 0
8, 119359, Note_on_c, 9, 38, 64
8, 119359, Note_on_c, 9, 69, 54
8, 119367, Note_on_c, 9, 69, 0
8, 119367, Note_on_c, 9, 38, 0
8, 119423, Note_on_c, 9, 36, 105
8, 119423, Note_on_c, 9, 38, 80
8, 119423, Note_on_c, 9, 69, 70
8, 119431, Note_on_c, 9, 69, 0
8, 119431, Note_on_c, 9, 38, 0
8, 119431, Note_on_c, 9, 36, 0
8, 119551, Note_on_c, 9, 38, 64
8, 119551, Note_on_c, 9, 69, 54
8, 119559, Note_on_c, 9, 69, 0
8, 119559, Note_on_c, 9, 38, 0
8, 119615, Note_on_c, 9, 38, 105
8, 119615, Note_on_c, 9, 39, 105
8, 119615, Note_on_c, 9, 69, 70
8, 119623, Note_on_c, 9, 69, 0
8, 119623, Note_on_c, 9, 39, 0
8, 119623, Note_on_c, 9, 38, 0
8, 119743, Note_on_c, 9, 38, 64
8, 119743, Note_on_c, 9, 69, 54
8, 119751, Note_on_c, 9, 69, 0
8, 119751, Note_on_c, 9, 38, 0
8, 119807, Note_on_c, 9, 36, 105
8, 119807, Note_on_c, 9, 38, 80
8, 119807, Note_on_c, 9, 69, 70
8, 119815, Note_on_c, 9, 69, 0
8, 119815, Note_on_c, 9, 38, 0
8, 119815, Note_on_c, 9, 36, 0
8, 119935, Note_on_c, 9, 38, 64
8, 119935, Note_on_c, 9, 69, 54
8, 119943, Note_on_c, 9, 69, 0
8, 119943, Note_on_c, 9, 38, 0
8, 119999, Note_on_c, 9, 38, 105
8, 119999, Note_on_c, 9, 39, 105
8, 119999, Note_on_c, 9, 69, 70
8, 120007, Note_on_c, 9, 69, 0
8, 120007, Note_on_c, 9, 39, 0
8, 120007, Note_on_c, 9, 38, 0
8, 120127, Note_on_c, 9, 38, 64
8, 120127, Note_on_c, 9, 69, 54
8, 120135, Note_on_c, 9, 69, 0
8, 120135, Note_on_c, 9, 38, 0
8, 120191, Note_on_c, 9, 36, 105
8, 120191, Note_on_c, 9, 38, 80
8, 120191, Note_on_c, 9, 69, 70
8, 120199, Note_on_c, 9, 69, 0
8, 120199, Note_on_c, 9, 38, 0
8, 120199, Note_on_c, 9, 36, 0
8, 120319, Note_on_c, 9, 38, 64
8, 120319, Note_on_c, 9, 69, 54
8, 120327, Note_on_c, 9, 69, 0
8, 120327, Note_on_c, 9, 38, 0
8, 120383, Note_on_c, 9, 38, 105
8, 120383, Note_on_c, 9, 39, 105
8, 120383, Note_on_c, 9, 69, 70
8, 120391, Note_on_c, 9, 69, 0
8, 120391, Note_on_c, 9, 39, 0
8, 120391, Note_on_c, 9, 38, 0
8, 120511, Note_on_c, 9, 38, 64
8, 120511, Note_on_c, 9, 69, 54
8, 120519, Note_on_c, 9, 69, 0
8, 120519, Note_on_c, 9, 38, 0
8, 120575, Note_on_c, 9, 36, 105
8, 120575, Note_on_c, 9, 38, 80
8, 120575, Note_on_c, 9, 69, 70
8, 120583, Note_on_c, 9, 69, 0
8, 120583, Note_on_c, 9, 38, 0
8, 120583, Note_on_c, 9, 36, 0
8, 120703, Note_on_c, 9, 38, 64
8, 120703, Note_on_c, 9, 69, 54
8, 120711, Note_on_c, 9, 69, 0
8, 120711, Note_on_c, 9, 38, 0
8, 120767, Note_on_c, 9, 38, 105
8, 120767, Note_on_c, 9, 39, 105
8, 120767, Note_on_c, 9, 69, 70
8, 120775, Note_on_c, 9, 69, 0
8, 120775, Note_on_c, 9, 39, 0
8, 120775, Note_on_c, 9, 38, 0
8, 120895, Note_on_c, 9, 38, 64
8, 120895, Note_on_c, 9, 69, 54
8, 120903, Note_on_c, 9, 69, 0
8, 120903, Note_on_c, 9, 38, 0
8, 120959, Note_on_c, 9, 36, 105
8, 120959, Note_on_c, 9, 38, 80
8, 120959, Note_on_c, 9, 69, 70
8, 120967, Note_on_c, 9, 69, 0
8, 120967, Note_on_c, 9, 38, 0
8, 120967, Note_on_c, 9, 36, 0
8, 121087, Note_on_c, 9, 38, 64
8, 121087, Note_on_c, 9, 69, 54
8, 121095, Note_on_c, 9, 69, 0
8, 121095, Note_on_c, 9, 38, 0
8, 121151, Note_on_c, 9, 38, 105
8, 121151, Note_on_c, 9, 39, 105
8, 121151, Note_on_c, 9, 69, 70
8, 121159, Note_on_c, 9, 69, 0
8, 121159, Note_on_c, 9, 39, 0
8, 121159, Note_on_c, 9, 38, 0
8, 121279, Note_on_c, 9, 38, 64
8, 121279, Note_on_c, 9, 69, 54
8, 121287, Note_on_c, 9, 69, 0
8, 121287, Note_on_c, 9, 38, 0
8, 121343, Note_on_c, 9, 36, 105
8, 121343, Note_on_c, 9, 38, 80
8, 121343, Note_on_c, 9, 69, 70
8, 121351, Note_on_c, 9, 69, 0
8, 121351, Note_on_c, 9, 38, 0
8, 121351, Note_on_c, 9, 36, 0
8, 121471, Note_on_c, 9, 38, 64
8, 121471, Note_on_c, 9, 69, 54
8, 121479, Note_on_c, 9, 69, 0
8, 121479, Note_on_c, 9, 38, 0
8, 121535, Note_on_c, 9, 38, 105
8, 121535, Note_on_c, 9, 39, 105
8, 121535, Note_on_c, 9, 69, 70
8, 121543, Note_on_c, 9, 69, 0
8, 121543, Note_on_c, 9, 39, 0
8, 121543, Note_on_c, 9, 38, 0
8, 121663, Note_on_c, 9, 38, 64
8, 121663, Note_on_c, 9, 69, 54
8, 121671, Note_on_c, 9, 69, 0
8, 121671, Note_on_c, 9, 38, 0
8, 121727, Note_on_c, 9, 36, 105
8, 121727, Note_on_c, 9, 38, 80
8, 121727, Note_on_c, 9, 69, 70
8, 121735, Note_on_c, 9, 69, 0
8, 121735, Note_on_c, 9, 38, 0
8, 121735, Note_on_c, 9, 36, 0
8, 121855, Note_on_c, 9, 38, 64
8, 121855, Note_on_c, 9, 69, 54
8, 121863, Note_on_c, 9, 69, 0
8, 121863, Note_on_c, 9, 38, 0
8, 121919, Note_on_c, 9, 38, 105
8, 121919, Note_on_c, 9, 39, 105
8, 121919, Note_on_c, 9, 69, 70
8, 121927, Note_on_c, 9, 69, 0
8, 121927, Note_on_c, 9, 39, 0
8, 121927, Note_on_c, 9, 38, 0
8, 122047, Note_on_c, 9, 38, 64
8, 122047, Note_on_c, 9, 69, 54
8, 122055, Note_on_c, 9, 69, 0
8, 122055, Note_on_c, 9, 38, 0
8, 122111, Note_on_c, 9, 36, 105
8, 122111, Note_on_c, 9, 38, 80
8, 122111, Note_on_c, 9, 69, 70
8, 122119, Note_on_c, 9, 69, 0
8, 122119, Note_on_c, 9, 38, 0
8, 122119, Note_on_c, 9, 36, 0
8, 122239, Note_on_c, 9, 38, 64
8, 122239, Note_on_c, 9, 69, 54
8, 122247, Note_on_c, 9, 69, 0
8, 122247, Note_on_c, 9, 38, 0
8, 122303, Note_on_c, 9, 38, 105
8, 122303, Note_on_c, 9, 39, 105
8, 122303, Note_on_c, 9, 69, 70
8, 122311, Note_on_c, 9, 69, 0
8, 122311, Note_on_c, 9, 39, 0
8, 122311, Note_on_c, 9, 38, 0
8, 122431, Note_on_c, 9, 38, 64
8, 122431, Note_on_c, 9, 69, 54
8, 122439, Note_on_c, 9, 69, 0
8, 122439, Note_on_c, 9, 38, 0
8, 122495, Note_on_c, 9, 36, 105
8, 122495, Note_on_c, 9, 38, 80
8, 122495, Note_on_c, 9, 69, 70
8, 122503, Note_on_c, 9, 69, 0
8, 122503, Note_on_c, 9, 38, 0
8, 122503, Note_on_c, 9, 36, 0
8, 122623, Note_on_c, 9, 38, 64
8, 122623, Note_on_c, 9, 69, 54
8, 122631, Note_on_c, 9, 69, 0
8, 122631, Note_on_c, 9, 38, 0
8, 122687, Note_on_c, 9, 38, 105
8, 122687, Note_on_c, 9, 39, 105
8, 122687, Note_on_c, 9, 69, 70
8, 122695, Note_on_c, 9, 69, 0
8, 122695, Note_on_c, 9, 39, 0
8, 122695, Note_on_c, 9, 38, 0
8, 122815, Note_on_c, 9, 38, 64
8, 122815, Note_on_c, 9, 69, 54
8, 122823, Note_on_c, 9, 69, 0
8, 122823, Note_on_c, 9, 38, 0
8, 122879, Note_on_c, 9, 36, 105
8, 122879, Note_on_c, 9, 38, 80
8, 122879, Note_on_c, 9, 69, 70
8, 122887, Note_on_c, 9, 69, 0
8, 122887, Note_on_c, 9, 38, 0
8, 122887, Note_on_c, 9, 36, 0
8, 123007, Note_on_c, 9, 38, 64
8, 123007, Note_on_c, 9, 69, 54
8, 123015, Note_on_c, 9, 69, 0
8, 123015, Note_on_c, 9, 38, 0
8, 123071, Note_on_c, 9, 38, 105
8, 123071, Note_on_c, 9, 39, 105
8, 123071, Note_on_c, 9, 69, 70
8, 123079, Note_on_c, 9, 69, 0
8, 123079, Note_on_c, 9, 39, 0
8, 123079, Note_on_c, 9, 38, 0
8, 123199, Note_on_c, 9, 38, 64
8, 123199, Note_on_c, 9, 69, 54
8, 123207, Note_on_c, 9, 69, 0
8, 123207, Note_on_c, 9, 38, 0
8, 123263, Note_on_c, 9, 36, 105
8, 123263, Note_on_c, 9, 38, 80
8, 123263, Note_on_c, 9, 69, 70
8, 123271, Note_on_c, 9, 69, 0
8, 123271, Note_on_c, 9, 38, 0
8, 123271, Note_on_c, 9, 36, 0
8, 123391, Note_on_c, 9, 38, 64
8, 123391, Note_on_c, 9, 69, 54
8, 123399, Note_on_c, 9, 69, 0
8, 123399, Note_on_c, 9, 38, 0
8, 123455, Note_on_c, 9, 38, 105
8, 123455, Note_on_c, 9, 39, 105
8, 123455, Note_on_c, 9, 69, 70
8, 123463, Note_on_c, 9, 69, 0
8, 123463, Note_on_c, 9, 39, 0
8, 123463, Note_on_c, 9, 38, 0
8, 123583, Note_on_c, 9, 38, 64
8, 123583, Note_on_c, 9, 69, 54
8, 123591, Note_on_c, 9, 69, 0
8, 123591, Note_on_c, 9, 38, 0
8, 123647, Note_on_c, 9, 36, 105
8, 123647, Note_on_c, 9, 38, 80
8, 123647, Note_on_c, 9, 69, 70
8, 123655, Note_on_c, 9, 69, 0
8, 123655, Note_on_c, 9, 38, 0
8, 123655, Note_on_c, 9, 36, 0
8, 123775, Note_on_c, 9, 38, 64
8, 123775, Note_on_c, 9, 69, 54
8, 123783, Note_on_c, 9, 69, 0
8, 123783, Note_on_c, 9, 38, 0
8, 123839, Note_on_c, 9, 38, 105
8, 123839, Note_on_c, 9, 39, 105
8, 123839, Note_on_c, 9, 69, 70
8, 123847, Note_on_c, 9, 69, 0
8, 123847, Note_on_c, 9, 39, 0
8, 123847, Note_on_c, 9, 38, 0
8, 123967, Note_on_c, 9, 38, 64
8, 123967, Note_on_c, 9, 69, 54
8, 123975, Note_on_c, 9, 69, 0
8, 123975, Note_on_c, 9, 38, 0
8, 124031, Note_on_c, 9, 36, 105
8, 124031, Note_on_c, 9, 38, 80
8, 124031, Note_on_c, 9, 69, 70
8, 124039, Note_on_c, 9, 69, 0
8, 124039, Note_on_c, 9, 38, 0
8, 124039, Note_on_c, 9, 36, 0
8, 124159, Note_on_c, 9, 38, 64
8, 124159, Note_on_c, 9, 69, 54
8, 124167, Note_on_c, 9, 69, 0
8, 124167, Note_on_c, 9, 38, 0
8, 124223, Note_on_c, 9, 38, 105
8, 124223, Note_on_c, 9, 39, 105
8, 124223, Note_on_c, 9, 69, 70
8, 124231, Note_on_c, 9, 69, 0
8, 124231, Note_on_c, 9, 39, 0
8, 124231, Note_on_c, 9, 38, 0
8, 124351, Note_on_c, 9, 38, 64
8, 124351, Note_on_c, 9, 69, 54
8, 124359, Note_on_c, 9, 69, 0
8, 124359, Note_on_c, 9, 38, 0
8, 124415, Note_on_c, 9, 36, 105
8, 124415, Note_on_c, 9, 38, 80
8, 124415, Note_on_c, 9, 49, 108
8, 124415, Note_on_c, 9, 69, 70
8, 124423, Note_on_c, 9, 69, 0
8, 124423, Note_on_c, 9, 36, 0
8, 124423, Note_on_c, 9, 38, 0
8, 124423, Note_on_c, 9, 49, 0
8, 124543, Note_on_c, 9, 38, 64
8, 124543, Note_on_c, 9, 69, 54
8, 124551, Note_on_c, 9, 69, 0
8, 124551, Note_on_c, 9, 38, 0
8, 124607, Note_on_c, 9, 38, 105
8, 124607, Note_on_c, 9, 39, 105
8, 124607, Note_on_c, 9, 69, 70
8, 124615, Note_on_c, 9, 69, 0
8, 124615, Note_on_c, 9, 39, 0
8, 124615, Note_on_c, 9, 38, 0
8, 124735, Note_on_c, 9, 38, 64
8, 124735, Note_on_c, 9, 69, 54
8, 124743, Note_on_c, 9, 69, 0
8, 124743, Note_on_c, 9, 38, 0
8, 124799, Note_on_c, 9, 36, 105
8, 124799, Note_on_c, 9, 38, 80
8, 124799, Note_on_c, 9, 69, 70
8, 124807, Note_on_c, 9, 69, 0
8, 124807, Note_on_c, 9, 38, 0
8, 124807, Note_on_c, 9, 36, 0
8, 124927, Note_on_c, 9, 38, 64
8, 124927, Note_on_c, 9, 69, 54
8, 124935, Note_on_c, 9, 69, 0
8, 124935, Note_on_c, 9, 38, 0
8, 124991, Note_on_c, 9, 38, 105
8, 124991, Note_on_c, 9, 39, 105
8, 124991, Note_on_c, 9, 69, 70
8, 124999, Note_on_c, 9, 69, 0
8, 124999, Note_on_c, 9, 39, 0
8, 124999, Note_on_c, 9, 38, 0
8, 125119, Note_on_c, 9, 38, 64
8, 125119, Note_on_c, 9, 69, 54
8, 125127, Note_on_c, 9, 69, 0
8, 125127, Note_on_c, 9, 38, 0
8, 125183, Note_on_c, 9, 36, 105
8, 125183, Note_on_c, 9, 38, 80
8, 125183, Note_on_c, 9, 69, 70
8, 125191, Note_on_c, 9, 69, 0
8, 125191, Note_on_c, 9, 38, 0
8, 125191, Note_on_c, 9, 36, 0
8, 125311, Note_on_c, 9, 38, 64
8, 125311, Note_on_c, 9, 69, 54
8, 125319, Note_on_c, 9, 69, 0
8, 125319, Note_on_c, 9, 38, 0
8, 125375, Note_on_c, 9, 38, 105
8, 125375, Note_on_c, 9, 39, 105
8, 125375, Note_on_c, 9, 69, 70
8, 125383, Note_on_c, 9, 69, 0
8, 125383, Note_on_c, 9, 39, 0
8, 125383, Note_on_c, 9, 38, 0
8, 125503, Note_on_c, 9, 38, 64
8, 125503, Note_on_c, 9, 69, 54
8, 125511, Note_on_c, 9, 69, 0
8, 125511, Note_on_c, 9, 38, 0
8, 125567, Note_on_c, 9, 36, 105
8, 125567, Note_on_c, 9, 38, 80
8, 125567, Note_on_c, 9, 69, 70
8, 125575, Note_on_c, 9, 69, 0
8, 125575, Note_on_c, 9, 38, 0
8, 125575, Note_on_c, 9, 36, 0
8, 125695, Note_on_c, 9, 38, 64
8, 125695, Note_on_c, 9, 69, 54
8, 125703, Note_on_c, 9, 69, 0
8, 125703, Note_on_c, 9, 38, 0
8, 125759, Note_on_c, 9, 38, 105
8, 125759, Note_on_c, 9, 39, 105
8, 125759, Note_on_c, 9, 69, 70
8, 125767, Note_on_c, 9, 69, 0
8, 125767, Note_on_c, 9, 39, 0
8, 125767, Note_on_c, 9, 38, 0
8, 125887, Note_on_c, 9, 38, 64
8, 125887, Note_on_c, 9, 69, 54
8, 125895, Note_on_c, 9, 69, 0
8, 125895, Note_on_c, 9, 38, 0
8, 125951, Note_on_c, 9, 36, 105
8, 125951, Note_on_c, 9, 38, 80
8, 125951, Note_on_c, 9, 69, 70
8, 125959, Note_on_c, 9, 69, 0
8, 125959, Note_on_c, 9, 38, 0
8, 125959, Note_on_c, 9, 36, 0
8, 126079, Note_on_c, 9, 38, 64
8, 126079, Note_on_c, 9, 69, 54
8, 126087, Note_on_c, 9, 69, 0
8, 126087, Note_on_c, 9, 38, 0
8, 126143, Note_on_c, 9, 38, 105
8, 126143, Note_on_c, 9, 39, 105
8, 126143, Note_on_c, 9, 69, 70
8, 126151, Note_on_c, 9, 69, 0
8, 126151, Note_on_c, 9, 39, 0
8, 126151, Note_on_c, 9, 38, 0
8, 126271, Note_on_c, 9, 38, 64
8, 126271, Note_on_c, 9, 69, 54
8, 126279, Note_on_c, 9, 69, 0
8, 126279, Note_on_c, 9, 38, 0
8, 126335, Note_on_c, 9, 36, 105
8, 126335, Note_on_c, 9, 38, 80
8, 126335, Note_on_c, 9, 69, 70
8, 126343, Note_on_c, 9, 69, 0
8, 126343, Note_on_c, 9, 38, 0
8, 126343, Note_on_c, 9, 36, 0
8, 126463, Note_on_c, 9, 38, 64
8, 126463, Note_on_c, 9, 69, 54
8, 126471, Note_on_c, 9, 69, 0
8, 126471, Note_on_c, 9, 38, 0
8, 126527, Note_on_c, 9, 38, 105
8, 126527, Note_on_c, 9, 39, 105
8, 126527, Note_on_c, 9, 69, 70
8, 126535, Note_on_c, 9, 69, 0
8, 126535, Note_on_c, 9, 39, 0
8, 126535, Note_on_c, 9, 38, 0
8, 126655, Note_on_c, 9, 38, 64
8, 126655, Note_on_c, 9, 69, 54
8, 126663, Note_on_c, 9, 69, 0
8, 126663, Note_on_c, 9, 38, 0
8, 126719, Note_on_c, 9, 36, 105
8, 126719, Note_on_c, 9, 38, 80
8, 126719, Note_on_c, 9, 69, 70
8, 126727, Note_on_c, 9, 69, 0
8, 126727, Note_on_c, 9, 38, 0
8, 126727, Note_on_c, 9, 36, 0
8, 126847, Note_on_c, 9, 38, 64
8, 126847, Note_on_c, 9, 69, 54
8, 126855, Note_on_c, 9, 69, 0
8, 126855, Note_on_c, 9, 38, 0
8, 126911, Note_on_c, 9, 38, 105
8, 126911, Note_on_c, 9, 39, 105
8, 126911, Note_on_c, 9, 69, 70
8, 126919, Note_on_c, 9, 69, 0
8, 126919, Note_on_c, 9, 39, 0
8, 126919, Note_on_c, 9, 38, 0
8, 127039, Note_on_c, 9, 38, 64
8, 127039, Note_on_c, 9, 69, 54
8, 127047, Note_on_c, 9, 69, 0
8, 127047, Note_on_c, 9, 38, 0
8, 127103, Note_on_c, 9, 36, 105
8, 127103, Note_on_c, 9, 38, 80
8, 127103, Note_on_c, 9, 69, 70
8, 127111, Note_on_c, 9, 69, 0
8, 127111, Note_on_c, 9, 38, 0
8, 127111, Note_on_c, 9, 36, 0
8, 127231, Note_on_c, 9, 38, 64
8, 127231, Note_on_c, 9, 69, 54
8, 127239, Note_on_c, 9, 69, 0
8, 127239, Note_on_c, 9, 38, 0
8, 127295, Note_on_c, 9, 38, 105
8, 127295, Note_on_c, 9, 39, 105
8, 127295, Note_on_c, 9, 69, 70
8, 127303, Note_on_c, 9, 69, 0
8, 127303, Note_on_c, 9, 39, 0
8, 127303, Note_on_c, 9, 38, 0
8, 127423, Note_on_c, 9, 38, 64
8, 127423, Note_on_c, 9, 69, 54
8, 127431, Note_on_c, 9, 69, 0
8, 127431, Note_on_c, 9, 38, 0
8, 127487, Note_on_c, 9, 36, 105
8, 127487, Note_on_c, 9, 38, 80
8, 127487, Note_on_c, 9, 69, 70
8, 127495, Note_on_c, 9, 69, 0
8, 127495, Note_on_c, 9, 38, 0
8, 127495, Note_on_c, 9, 36, 0
8, 127615, Note_on_c, 9, 38, 64
8, 127615, Note_on_c, 9, 69, 54
8, 127623, Note_on_c, 9, 69, 0
8, 127623, Note_on_c, 9, 38, 0
8, 127679, Note_on_c, 9, 38, 105
8, 127679, Note_on_c, 9, 39, 105
8, 127679, Note_on_c, 9, 69, 70
8, 127687, Note_on_c, 9, 69, 0
8, 127687, Note_on_c, 9, 39, 0
8, 127687, Note_on_c, 9, 38, 0
8, 127807, Note_on_c, 9, 38, 64
8, 127807, Note_on_c, 9, 69, 54
8, 127815, Note_on_c, 9, 69, 0
8, 127815, Note_on_c, 9, 38, 0
8, 127871, Note_on_c, 9, 36, 105
8, 127871, Note_on_c, 9, 38, 80
8, 127871, Note_on_c, 9, 69, 70
8, 127879, Note_on_c, 9, 69, 0
8, 127879, Note_on_c, 9, 38, 0
8, 127879, Note_on_c, 9, 36, 0
8, 127999, Note_on_c, 9, 38, 64
8, 127999, Note_on_c, 9, 69, 54
8, 128007, Note_on_c, 9, 69, 0
8, 128007, Note_on_c, 9, 38, 0
8, 128063, Note_on_c, 9, 38, 105
8, 128063, Note_on_c, 9, 39, 105
8, 128063, Note_on_c, 9, 69, 70
8, 128071, Note_on_c, 9, 69, 0
8, 128071, Note_on_c, 9, 39, 0
8, 128071, Note_on_c, 9, 38, 0
8, 128191, Note_on_c, 9, 38, 64
8, 128191, Note_on_c, 9, 69, 54
8, 128199, Note_on_c, 9, 69, 0
8, 128199, Note_on_c, 9, 38, 0
8, 128255, Note_on_c, 9, 36, 105
8, 128255, Note_on_c, 9, 38, 80
8, 128255, Note_on_c, 9, 69, 70
8, 128263, Note_on_c, 9, 69, 0
8, 128263, Note_on_c, 9, 38, 0
8, 128263, Note_on_c, 9, 36, 0
8, 128383, Note_on_c, 9, 38, 64
8, 128383, Note_on_c, 9, 69, 54
8, 128391, Note_on_c, 9, 69, 0
8, 128391, Note_on_c, 9, 38, 0
8, 128447, Note_on_c, 9, 38, 105
8, 128447, Note_on_c, 9, 39, 105
8, 128447, Note_on_c, 9, 69, 70
8, 128455, Note_on_c, 9, 69, 0
8, 128455, Note_on_c, 9, 39, 0
8, 128455, Note_on_c, 9, 38, 0
8, 128575, Note_on_c, 9, 38, 64
8, 128575, Note_on_c, 9, 69, 54
8, 128583, Note_on_c, 9, 69, 0
8, 128583, Note_on_c, 9, 38, 0
8, 128639, Note_on_c, 9, 36, 105
8, 128639, Note_on_c, 9, 38, 80
8, 128639, Note_on_c, 9, 69, 70
8, 128647, Note_on_c, 9, 69, 0
8, 128647, Note_on_c, 9, 38, 0
8, 128647, Note_on_c, 9, 36, 0
8, 128767, Note_on_c, 9, 38, 64
8, 128767, Note_on_c, 9, 69, 54
8, 128775, Note_on_c, 9, 69, 0
8, 128775, Note_on_c, 9, 38, 0
8, 128831, Note_on_c, 9, 38, 105
8, 128831, Note_on_c, 9, 39, 105
8, 128831, Note_on_c, 9, 69, 70
8, 128839, Note_on_c, 9, 69, 0
8, 128839, Note_on_c, 9, 39, 0
8, 128839, Note_on_c, 9, 38, 0
8, 128959, Note_on_c, 9, 38, 64
8, 128959, Note_on_c, 9, 69, 54
8, 128967, Note_on_c, 9, 69, 0
8, 128967, Note_on_c, 9, 38, 0
8, 129023, Note_on_c, 9, 36, 105
8, 129023, Note_on_c, 9, 38, 80
8, 129023, Note_on_c, 9, 69, 70
8, 129031, Note_on_c, 9, 69, 0
8, 129031, Note_on_c, 9, 38, 0
8, 129031, Note_on_c, 9, 36, 0
8, 129151, Note_on_c, 9, 38, 64
8, 129151, Note_on_c, 9, 69, 54
8, 129159, Note_on_c, 9, 69, 0
8, 129159, Note_on_c, 9, 38, 0
8, 129215, Note_on_c, 9, 38, 105
8, 129215, Note_on_c, 9, 39, 105
8, 129215, Note_on_c, 9, 69, 70
8, 129223, Note_on_c, 9, 69, 0
8, 129223, Note_on_c, 9, 39, 0
8, 129223, Note_on_c, 9, 38, 0
8, 129343, Note_on_c, 9, 38, 64
8, 129343, Note_on_c, 9, 69, 54
8, 129351, Note_on_c, 9, 69, 0
8, 129351, Note_on_c, 9, 38, 0
8, 129407, Note_on_c, 9, 36, 105
8, 129407, Note_on_c, 9, 38, 80
8, 129407, Note_on_c, 9, 69, 70
8, 129415, Note_on_c, 9, 69, 0
8, 129415, Note_on_c, 9, 38, 0
8, 129415, Note_on_c, 9, 36, 0
8, 129535, Note_on_c, 9, 38, 64
8, 129535, Note_on_c, 9, 69, 54
8, 129543, Note_on_c, 9, 69, 0
8, 129543, Note_on_c, 9, 38, 0
8, 129598, Note_on_c, 9, 38, 105
8, 129598, Note_on_c, 9, 39, 105
8, 129598, Note_on_c, 9, 69, 70
8, 129606, Note_on_c, 9, 69, 0
8, 129606, Note_on_c, 9, 39, 0
8, 129606, Note_on_c, 9, 38, 0
8, 129727, Note_on_c, 9, 38, 64
8, 129727, Note_on_c, 9, 69, 54
8, 129735, Note_on_c, 9, 69, 0
8, 129735, Note_on_c, 9, 38, 0
8, 129791, Note_on_c, 9, 36, 105
8, 129791, Note_on_c, 9, 38, 80
8, 129791, Note_on_c, 9, 69, 70
8, 129799, Note_on_c, 9, 69, 0
8, 129799, Note_on_c, 9, 38, 0
8, 129799, Note_on_c, 9, 36, 0
8, 129919, Note_on_c, 9, 38, 64
8, 129919, Note_on_c, 9, 69, 54
8, 129927, Note_on_c, 9, 69, 0
8, 129927, Note_on_c, 9, 38, 0
8, 129983, Note_on_c, 9, 38, 105
8, 129983, Note_on_c, 9, 49, 108
8, 129983, Note_on_c, 9, 39, 105
8, 129983, Note_on_c, 9, 69, 70
8, 129991, Note_on_c, 9, 69, 0
8, 129991, Note_on_c, 9, 38, 0
8, 129991, Note_on_c, 9, 49, 0
8, 129991, Note_on_c, 9, 39, 0
8, 130111, Note_on_c, 9, 38, 105
8, 130111, Note_on_c, 9, 49, 108
8, 130111, Note_on_c, 9, 69, 54
8, 130119, Note_on_c, 9, 69, 0
8, 130119, Note_on_c, 9, 49, 0
8, 130119, Note_on_c, 9, 38, 0
8, 130175, Note_on_c, 9, 36, 105
8, 130175, Note_on_c, 9, 38, 80
8, 130175, Note_on_c, 9, 69, 70
8, 130183, Note_on_c, 9, 69, 0
8, 130183, Note_on_c, 9, 38, 0
8, 130183, Note_on_c, 9, 36, 0
8, 130303, Note_on_c, 9, 38, 64
8, 130303, Note_on_c, 9, 69, 54
8, 130311, Note_on_c, 9, 69, 0
8, 130311, Note_on_c, 9, 38, 0
8, 130367, Note_on_c, 9, 38, 105
8, 130367, Note_on_c, 9, 49, 108
8, 130367, Note_on_c, 9, 39, 105
8, 130367, Note_on_c, 9, 69, 70
8, 130375, Note_on_c, 9, 69, 0
8, 130375, Note_on_c, 9, 38, 0
8, 130375, Note_on_c, 9, 49, 0
8, 130375, Note_on_c, 9, 39, 0
8, 130495, Note_on_c, 9, 38, 105
8, 130495, Note_on_c, 9, 49, 108
8, 130495, Note_on_c, 9, 69, 54
8, 130503, Note_on_c, 9, 69, 0
8, 130503, Note_on_c, 9, 49, 0
8, 130503, Note_on_c, 9, 38, 0
8, 130559, Note_on_c, 9, 36, 105
8, 130559, Note_on_c, 9, 38, 80
8, 130559, Note_on_c, 9, 69, 70
8, 130567, Note_on_c, 9, 69, 0
8, 130567, Note_on_c, 9, 38, 0
8, 130567, Note_on_c, 9, 36, 0
8, 130687, Note_on_c, 9, 38, 64
8, 130687, Note_on_c, 9, 69, 54
8, 130695, Note_on_c, 9, 69, 0
8, 130695, Note_on_c, 9, 38, 0
8, 130751, Note_on_c, 9, 38, 105
8, 130751, Note_on_c, 9, 49, 108
8, 130751, Note_on_c, 9, 39, 105
8, 130751, Note_on_c, 9, 69, 70
8, 130759, Note_on_c, 9, 69, 0
8, 130759, Note_on_c, 9, 38, 0
8, 130759, Note_on_c, 9, 49, 0
8, 130759, Note_on_c, 9, 39, 0
8, 130879, Note_on_c, 9, 38, 105
8, 130879, Note_on_c, 9, 49, 108
8, 130879, Note_on_c, 9, 69, 54
8, 130887, Note_on_c, 9, 69, 0
8, 130887, Note_on_c, 9, 49, 0
8, 130887, Note_on_c, 9, 38, 0
8, 130943, Note_on_c, 9, 36, 105
8, 130943, Note_on_c, 9, 38, 80
8, 130943, Note_on_c, 9, 69, 70
8, 130951, Note_on_c, 9, 69, 0
8, 130951, Note_on_c, 9, 38, 0
8, 130951, Note_on_c, 9, 36, 0
8, 131071, Note_on_c, 9, 38, 64
8, 131071, Note_on_c, 9, 69, 54
8, 131079, Note_on_c, 9, 69, 0
8, 131079, Note_on_c, 9, 38, 0
8, 131135, Note_on_c, 9, 38, 105
8, 131135, Note_on_c, 9, 39, 105
8, 131135, Note_on_c, 9, 69, 70
8, 131143, Note_on_c, 9, 69, 0
8, 131143, Note_on_c, 9, 39, 0
8, 131143, Note_on_c, 9, 38, 0
8, 131263, Note_on_c, 9, 38, 64
8, 131263, Note_on_c, 9, 69, 54
8, 131271, Note_on_c, 9, 69, 0
8, 131271, Note_on_c, 9, 38, 0
8, 131327, Note_on_c, 9, 36, 105
8, 131327, Note_on_c, 9, 69, 70
8, 131335, Note_on_c, 9, 69, 0
8, 131335, Note_on_c, 9, 36, 0
8, 131455, Note_on_c, 9, 38, 105
8, 131455, Note_on_c, 9, 69, 54
8, 131463, Note_on_c, 9, 69, 0
8, 131463, Note_on_c, 9, 38, 0
8, 131519, Note_on_c, 9, 38, 105
8, 131519, Note_on_c, 9, 69, 70
8, 131527, Note_on_c, 9, 69, 0
8, 131527, Note_on_c, 9, 38, 0
8, 131647, Note_on_c, 9, 69, 54
8, 131655, Note_on_c, 9, 69, 0
8, 131711, Note_on_c, 9, 36, 105
8, 131711, Note_on_c, 9, 38, 105
8, 131711, Note_on_c, 9, 69, 70
8, 131719, Note_on_c, 9, 69, 0
8, 131719, Note_on_c, 9, 38, 0
8, 131719, Note_on_c, 9, 36, 0
8, 131839, Note_on_c, 9, 38, 105
8, 131839, Note_on_c, 9, 69, 54
8, 131847, Note_on_c, 9, 69, 0
8, 131847, Note_on_c, 9, 38, 0
8, 131902, Note_on_c, 9, 38, 105
8, 131902, Note_on_c, 9, 69, 70
8, 131910, Note_on_c, 9, 69, 0
8, 131910, Note_on_c, 9, 38, 0
8, 132031, Note_on_c, 9, 38, 105
8, 132031, Note_on_c, 9, 69, 54
8, 132039, Note_on_c, 9, 69, 0
8, 132039, Note_on_c, 9, 38, 0
8, 132095, Note_on_c, 9, 36, 105
8, 132103, Note_on_c, 9, 36, 0
8, 132287, Note_on_c, 9, 38, 105
8, 132287, Note_on_c, 9, 49, 108
8, 132295, Note_on_c, 9, 49, 0
8, 132295, Note_on_c, 9, 38, 0
8, 132415, Note_on_c, 9, 38, 105
8, 132415, Note_on_c, 9, 49, 108
8, 132423, Note_on_c, 9, 49, 0
8, 132423, Note_on_c, 9, 38, 0
8, 132479, Note_on_c, 9, 36, 105
8, 132487, Note_on_c, 9, 36, 0
8, 132671, Note_on_c, 9, 38, 105
8, 132671, Note_on_c, 9, 49, 108
8, 132679, Note_on_c, 9, 49, 0
8, 132679, Note_on_c, 9, 38, 0
8, 132799, Note_on_c, 9, 38, 105
8, 132799, Note_on_c, 9, 49, 108
8, 132807, Note_on_c, 9, 49, 0
8, 132807, Note_on_c, 9, 38, 0
8, 132863, Note_on_c, 9, 36, 105
8, 132871, Note_on_c, 9, 36, 0
8, 133055, Note_on_c, 9, 38, 105
8, 133055, Note_on_c, 9, 49, 108
8, 133063, Note_on_c, 9, 49, 0
8, 133063, Note_on_c, 9, 38, 0
8, 133183, Note_on_c, 9, 38, 105
8, 133183, Note_on_c, 9, 49, 108
8, 133191, Note_on_c, 9, 49, 0
8, 133191, Note_on_c, 9, 38, 0
8, 133247, Note_on_c, 9, 36, 105
8, 133255, Note_on_c, 9, 36, 0
8, 133375, Note_on_c, 9, 38, 105
8, 133383, Note_on_c, 9, 38, 0
8, 133439, Note_on_c, 9, 38, 105
8, 133447, Note_on_c, 9, 38, 0
8, 133565, Note_on_c, 9, 38, 105
8, 133573, Note_on_c, 9, 38, 0
8, 133631, Note_on_c, 9, 36, 105
8, 133631, Note_on_c, 9, 38, 39
8, 133631, Note_on_c, 9, 49, 108
8, 133639, Note_on_c, 9, 49, 0
8, 133639, Note_on_c, 9, 38, 0
8, 133639, Note_on_c, 9, 36, 0
8, 133663, Note_on_c, 9, 38, 39
8, 133671, Note_on_c, 9, 38, 0
8, 133695, Note_on_c, 9, 38, 39
8, 133703, Note_on_c, 9, 38, 0
8, 133727, Note_on_c, 9, 38, 48
8, 133735, Note_on_c, 9, 38, 0
8, 133759, Note_on_c, 9, 38, 48
8, 133767, Note_on_c, 9, 38, 0
8, 133791, Note_on_c, 9, 38, 48
8, 133799, Note_on_c, 9, 38, 0
8, 133823, Note_on_c, 9, 38, 59
8, 133831, Note_on_c, 9, 38, 0
8, 133855, Note_on_c, 9, 38, 64
8, 133863, Note_on_c, 9, 38, 0
8, 133887, Note_on_c, 9, 38, 64
8, 133895, Note_on_c, 9, 38, 0
8, 133919, Note_on_c, 9, 38, 73
8, 133927, Note_on_c, 9, 38, 0
8, 133950, Note_on_c, 9, 38, 76
8, 133958, Note_on_c, 9, 38, 0
8, 133983, Note_on_c, 9, 38, 80
8, 133991, Note_on_c, 9, 38, 0
8, 134015, Note_on_c, 9, 38, 81
8, 134023, Note_on_c, 9, 38, 0
8, 134047, Note_on_c, 9, 38, 85
8, 134055, Note_on_c, 9, 38, 0
8, 134079, Note_on_c, 9, 38, 87
8, 134087, Note_on_c, 9, 38, 0
8, 134111, Note_on_c, 9, 38, 88
8, 134119, Note_on_c, 9, 38, 0
8, 134143, Note_on_c, 9, 38, 92
8, 134151, Note_on_c, 9, 38, 0
8, 134175, Note_on_c, 9, 38, 93
8, 134183, Note_on_c, 9, 38, 0
8, 134207, Note_on_c, 9, 38, 93
8, 134215, Note_on_c, 9, 38, 0
8, 134239, Note_on_c, 9, 38, 97
8, 134247, Note_on_c, 9, 38, 0
8, 134271, Note_on_c, 9, 38, 100
8, 134279, Note_on_c, 9, 38, 0
8, 134303, Note_on_c, 9, 38, 102
8, 134311, Note_on_c, 9, 38, 0
8, 134335, Note_on_c, 9, 38, 105
8, 134343, Note_on_c, 9, 38, 0
8, 134367, Note_on_c, 9, 38, 105
8, 134375, Note_on_c, 9, 38, 0
8, 134399, Note_on_c, 9, 36, 105
8, 134399, Note_on_c, 9, 49, 108
8, 134407, Note_on_c, 9, 49, 0
8, 134407, Note_on_c, 9, 36, 0
8, 134407, End_track
9, 0, Start_track
9, 0, MIDI_port, 0
9, 0, Title_t, "Lead Gtr            "
9, 7301, Note_on_c, 7, 60, 127
9, 7589, Pitch_bend_c, 7, 8208
9, 7594, Pitch_bend_c, 7, 8352
9, 7599, Pitch_bend_c, 7, 8512
9, 7605, Pitch_bend_c, 7, 8736
9, 7610, Pitch_bend_c, 7, 8960
9, 7616, Pitch_bend_c, 7, 9200
9, 7621, Pitch_bend_c, 7, 9424
9, 7626, Pitch_bend_c, 7, 9568
9, 7632, Pitch_bend_c, 7, 9760
9, 7637, Pitch_bend_c, 7, 9888
9, 7642, Pitch_bend_c, 7, 10032
9, 7648, Pitch_bend_c, 7, 10256
9, 7653, Pitch_bend_c, 7, 10496
9, 7659, Pitch_bend_c, 7, 10752
9, 7664, Pitch_bend_c, 7, 11104
9, 7669, Pitch_bend_c, 7, 11408
9, 7674, Pitch_bend_c, 7, 11584
9, 7682, Pitch_bend_c, 7, 11856
9, 7688, Pitch_bend_c, 7, 12160
9, 7693, Pitch_bend_c, 7, 12384
9, 7698, Pitch_bend_c, 7, 12624
9, 7703, Pitch_bend_c, 7, 13008
9, 7709, Pitch_bend_c, 7, 13312
9, 7714, Pitch_bend_c, 7, 13728
9, 7720, Pitch_bend_c, 7, 14192
9, 7725, Pitch_bend_c, 7, 14672
9, 7731, Pitch_bend_c, 7, 15056
9, 7736, Pitch_bend_c, 7, 15376
9, 7742, Pitch_bend_c, 7, 15664
9, 7747, Pitch_bend_c, 7, 15968
9, 7753, Pitch_bend_c, 7, 16288
9, 7758, Pitch_bend_c, 7, 16383
9, 8227, Control_c, 7, 1, 1
9, 8238, Control_c, 7, 1, 5
9, 8243, Control_c, 7, 1, 7
9, 8249, Control_c, 7, 1, 10
9, 8254, Control_c, 7, 1, 12
9, 8260, Control_c, 7, 1, 14
9, 8270, Control_c, 7, 1, 18
9, 8276, Control_c, 7, 1, 19
9, 8286, Control_c, 7, 1, 23
9, 8302, Control_c, 7, 1, 25
9, 8313, Control_c, 7, 1, 27
9, 8328, Control_c, 7, 1, 28
9, 8339, Control_c, 7, 1, 30
9, 8349, Control_c, 7, 1, 34
9, 8360, Control_c, 7, 1, 36
9, 8365, Control_c, 7, 1, 37
9, 8370, Control_c, 7, 1, 39
9, 8381, Control_c, 7, 1, 41
9, 8388, Control_c, 7, 1, 45
9, 8393, Control_c, 7, 1, 46
9, 8414, Control_c, 7, 1, 48
9, 8420, Control_c, 7, 1, 50
9, 8425, Control_c, 7, 1, 52
9, 8430, Control_c, 7, 1, 54
9, 8441, Control_c, 7, 1, 55
9, 8450, Control_c, 7, 1, 57
9, 8455, Control_c, 7, 1, 59
9, 8466, Control_c, 7, 1, 61
9, 8472, Control_c, 7, 1, 64
9, 8477, Control_c, 7, 1, 66
9, 8482, Control_c, 7, 1, 68
9, 8487, Control_c, 7, 1, 70
9, 8493, Control_c, 7, 1, 72
9, 8504, Control_c, 7, 1, 73
9, 8514, Control_c, 7, 1, 77
9, 8519, Control_c, 7, 1, 79
9, 8530, Control_c, 7, 1, 81
9, 8541, Control_c, 7, 1, 82
9, 8546, Control_c, 7, 1, 84
9, 8551, Control_c, 7, 1, 86
9, 8557, Control_c, 7, 1, 88
9, 8567, Control_c, 7, 1, 91
9, 8604, Control_c, 7, 1, 93
9, 8609, Control_c, 7, 1, 95
9, 8620, Control_c, 7, 1, 97
9, 8625, Control_c, 7, 1, 99
9, 8630, Control_c, 7, 1, 100
9, 8637, Control_c, 7, 1, 102
9, 8651, Control_c, 7, 1, 100
9, 8673, Control_c, 7, 1, 102
9, 8679, Control_c, 7, 1, 104
9, 8689, Control_c, 7, 1, 106
9, 8695, Control_c, 7, 1, 109
9, 8700, Control_c, 7, 1, 111
9, 8705, Control_c, 7, 1, 113
9, 8721, Control_c, 7, 1, 115
9, 8737, Control_c, 7, 1, 117
9, 8747, Control_c, 7, 1, 118
9, 8763, Control_c, 7, 1, 117
9, 8770, Control_c, 7, 1, 115
9, 8775, Control_c, 7, 1, 113
9, 8830, Control_c, 7, 1, 111
9, 8841, Control_c, 7, 1, 113
9, 8846, Control_c, 7, 1, 117
9, 8852, Control_c, 7, 1, 118
9, 8867, Control_c, 7, 1, 120
9, 8936, Control_c, 7, 1, 122
9, 8946, Control_c, 7, 1, 126
9, 8952, Control_c, 7, 1, 127
9, 9114, Control_c, 7, 1, 124
9, 9120, Control_c, 7, 1, 122
9, 9126, Control_c, 7, 1, 120
9, 9131, Control_c, 7, 1, 117
9, 9136, Control_c, 7, 1, 115
9, 9162, Control_c, 7, 1, 113
9, 9173, Control_c, 7, 1, 111
9, 9188, Control_c, 7, 1, 108
9, 9194, Control_c, 7, 1, 104
9, 9199, Control_c, 7, 1, 99
9, 9204, Control_c, 7, 1, 95
9, 9209, Control_c, 7, 1, 91
9, 9230, Control_c, 7, 1, 95
9, 9235, Control_c, 7, 1, 99
9, 9240, Control_c, 7, 1, 102
9, 9246, Control_c, 7, 1, 104
9, 9261, Control_c, 7, 1, 106
9, 9272, Control_c, 7, 1, 108
9, 9282, Control_c, 7, 1, 104
9, 9288, Control_c, 7, 1, 99
9, 9293, Control_c, 7, 1, 88
9, 9298, Control_c, 7, 1, 77
9, 9303, Control_c, 7, 1, 70
9, 9309, Control_c, 7, 1, 64
9, 9314, Control_c, 7, 1, 61
9, 9320, Control_c, 7, 1, 57
9, 9325, Control_c, 7, 1, 55
9, 9341, Control_c, 7, 1, 59
9, 9346, Control_c, 7, 1, 61
9, 9367, Control_c, 7, 1, 59
9, 9378, Control_c, 7, 1, 57
9, 9409, Control_c, 7, 1, 59
9, 9415, Control_c, 7, 1, 61
9, 9426, Control_c, 7, 1, 63
9, 9469, Control_c, 7, 1, 64
9, 9490, Control_c, 7, 1, 63
9, 9495, Control_c, 7, 1, 59
9, 9501, Control_c, 7, 1, 55
9, 9506, Control_c, 7, 1, 50
9, 9511, Control_c, 7, 1, 45
9, 9517, Control_c, 7, 1, 41
9, 9522, Control_c, 7, 1, 37
9, 9528, Control_c, 7, 1, 34
9, 9536, Control_c, 7, 1, 32
9, 9542, Control_c, 7, 1, 30
9, 9552, Control_c, 7, 1, 28
9, 9563, Control_c, 7, 1, 27
9, 9568, Control_c, 7, 1, 25
9, 9578, Control_c, 7, 1, 21
9, 9584, Control_c, 7, 1, 19
9, 9606, Control_c, 7, 1, 18
9, 9611, Control_c, 7, 1, 16
9, 9622, Control_c, 7, 1, 14
9, 9632, Control_c, 7, 1, 12
9, 9654, Control_c, 7, 1, 10
9, 9670, Control_c, 7, 1, 9
9, 9681, Control_c, 7, 1, 7
9, 9686, Control_c, 7, 1, 3
9, 9691, Control_c, 7, 1, 0
9, 9866, Note_on_c, 7, 60, 0
9, 9940, Pitch_bend_c, 7, 15552
9, 9945, Pitch_bend_c, 7, 14368
9, 9950, Pitch_bend_c, 7, 13008
9, 9956, Pitch_bend_c, 7, 11664
9, 9961, Pitch_bend_c, 7, 10368
9, 9966, Pitch_bend_c, 7, 9312
9, 9971, Pitch_bend_c, 7, 8352
9, 9977, Pitch_bend_c, 7, 8192
9, 9992, Note_on_c, 7, 67, 127
9, 10031, Pitch_bend_c, 7, 8320
9, 10036, Pitch_bend_c, 7, 9424
9, 10041, Pitch_bend_c, 7, 10448
9, 10047, Pitch_bend_c, 7, 11632
9, 10052, Pitch_bend_c, 7, 12464
9, 10058, Pitch_bend_c, 7, 13232
9, 10063, Pitch_bend_c, 7, 13984
9, 10068, Pitch_bend_c, 7, 14528
9, 10073, Pitch_bend_c, 7, 14976
9, 10079, Pitch_bend_c, 7, 15328
9, 10084, Pitch_bend_c, 7, 15552
9, 10090, Pitch_bend_c, 7, 15584
9, 10095, Pitch_bend_c, 7, 15744
9, 10100, Pitch_bend_c, 7, 15792
9, 10105, Pitch_bend_c, 7, 15872
9, 10112, Pitch_bend_c, 7, 15968
9, 10117, Pitch_bend_c, 7, 16208
9, 10124, Pitch_bend_c, 7, 16383
9, 10709, Pitch_bend_c, 7, 16240
9, 10715, Pitch_bend_c, 7, 15600
9, 10720, Pitch_bend_c, 7, 14576
9, 10725, Pitch_bend_c, 7, 13456
9, 10730, Pitch_bend_c, 7, 12464
9, 10736, Pitch_bend_c, 7, 11440
9, 10741, Pitch_bend_c, 7, 10448
9, 10746, Pitch_bend_c, 7, 9760
9, 10753, Pitch_bend_c, 7, 9280
9, 10759, Pitch_bend_c, 7, 9040
9, 10764, Pitch_bend_c, 7, 9088
9, 10768, Note_on_c, 7, 70, 127
9, 10771, Note_on_c, 7, 67, 0
9, 10777, Pitch_bend_c, 7, 9152
9, 10782, Pitch_bend_c, 7, 9376
9, 10788, Pitch_bend_c, 7, 9568
9, 10793, Pitch_bend_c, 7, 9920
9, 10798, Pitch_bend_c, 7, 10368
9, 10803, Pitch_bend_c, 7, 10752
9, 10809, Pitch_bend_c, 7, 11376
9, 10814, Pitch_bend_c, 7, 12096
9, 10820, Pitch_bend_c, 7, 12896
9, 10825, Pitch_bend_c, 7, 13728
9, 10830, Pitch_bend_c, 7, 14384
9, 10835, Pitch_bend_c, 7, 15072
9, 10841, Pitch_bend_c, 7, 15600
9, 10846, Pitch_bend_c, 7, 16128
9, 10851, Pitch_bend_c, 7, 16383
9, 11978, Control_c, 7, 1, 3
9, 11984, Control_c, 7, 1, 5
9, 11989, Control_c, 7, 1, 7
9, 11995, Control_c, 7, 1, 9
9, 12010, Control_c, 7, 1, 12
9, 12026, Control_c, 7, 1, 14
9, 12032, Control_c, 7, 1, 16
9, 12038, Control_c, 7, 1, 21
9, 12043, Control_c, 7, 1, 25
9, 12049, Control_c, 7, 1, 30
9, 12054, Control_c, 7, 1, 36
9, 12059, Control_c, 7, 1, 37
9, 12065, Control_c, 7, 1, 41
9, 12070, Control_c, 7, 1, 43
9, 12075, Control_c, 7, 1, 45
9, 12086, Control_c, 7, 1, 48
9, 12094, Control_c, 7, 1, 50
9, 12105, Control_c, 7, 1, 52
9, 12111, Control_c, 7, 1, 54
9, 12116, Control_c, 7, 1, 55
9, 12127, Control_c, 7, 1, 57
9, 12137, Control_c, 7, 1, 59
9, 12148, Control_c, 7, 1, 57
9, 12153, Control_c, 7, 1, 55
9, 12159, Control_c, 7, 1, 54
9, 12164, Control_c, 7, 1, 52
9, 12169, Control_c, 7, 1, 46
9, 12175, Control_c, 7, 1, 41
9, 12180, Control_c, 7, 1, 36
9, 12186, Control_c, 7, 1, 28
9, 12191, Control_c, 7, 1, 21
9, 12196, Control_c, 7, 1, 16
9, 12201, Control_c, 7, 1, 12
9, 12206, Control_c, 7, 1, 5
9, 12212, Control_c, 7, 1, 0
9, 12266, Pitch_bend_c, 7, 16016
9, 12272, Pitch_bend_c, 7, 15296
9, 12275, Note_on_c, 7, 70, 0
9, 12277, Pitch_bend_c, 7, 14416
9, 12282, Pitch_bend_c, 7, 13728
9, 12290, Pitch_bend_c, 7, 12736
9, 12295, Pitch_bend_c, 7, 12240
9, 12301, Pitch_bend_c, 7, 11680
9, 12305, Note_on_c, 7, 72, 127
9, 12307, Pitch_bend_c, 7, 11376
9, 12313, Pitch_bend_c, 7, 11168
9, 12318, Pitch_bend_c, 7, 11104
9, 12323, Pitch_bend_c, 7, 11056
9, 12328, Pitch_bend_c, 7, 11216
9, 12334, Pitch_bend_c, 7, 11664
9, 12339, Pitch_bend_c, 7, 12272
9, 12345, Pitch_bend_c, 7, 13120
9, 12350, Pitch_bend_c, 7, 14080
9, 12355, Pitch_bend_c, 7, 15104
9, 12360, Pitch_bend_c, 7, 16160
9, 12366, Pitch_bend_c, 7, 16383
9, 12545, Control_c, 7, 1, 5
9, 12550, Control_c, 7, 1, 12
9, 12555, Control_c, 7, 1, 19
9, 12560, Control_c, 7, 1, 23
9, 12566, Control_c, 7, 1, 27
9, 12571, Control_c, 7, 1, 30
9, 12576, Control_c, 7, 1, 36
9, 12581, Control_c, 7, 1, 39
9, 12587, Control_c, 7, 1, 43
9, 12592, Control_c, 7, 1, 48
9, 12597, Control_c, 7, 1, 52
9, 12602, Control_c, 7, 1, 54
9, 12609, Control_c, 7, 1, 57
9, 12614, Control_c, 7, 1, 63
9, 12620, Control_c, 7, 1, 70
9, 12625, Control_c, 7, 1, 75
9, 12631, Control_c, 7, 1, 79
9, 12636, Control_c, 7, 1, 82
9, 12641, Control_c, 7, 1, 84
9, 12646, Control_c, 7, 1, 88
9, 12652, Control_c, 7, 1, 91
9, 12657, Control_c, 7, 1, 95
9, 12663, Control_c, 7, 1, 99
9, 12668, Control_c, 7, 1, 102
9, 12689, Control_c, 7, 1, 106
9, 12694, Control_c, 7, 1, 109
9, 12699, Control_c, 7, 1, 111
9, 12705, Control_c, 7, 1, 113
9, 12710, Control_c, 7, 1, 115
9, 12720, Control_c, 7, 1, 117
9, 12736, Control_c, 7, 1, 120
9, 12741, Control_c, 7, 1, 122
9, 12747, Control_c, 7, 1, 124
9, 12768, Control_c, 7, 1, 127
9, 13782, Control_c, 7, 1, 118
9, 13787, Control_c, 7, 1, 104
9, 13792, Control_c, 7, 1, 91
9, 13797, Control_c, 7, 1, 75
9, 13803, Control_c, 7, 1, 55
9, 13808, Note_on_c, 7, 72, 0
9, 13808, Control_c, 7, 1, 32
9, 13813, Control_c, 7, 1, 3
9, 13819, Control_c, 7, 1, 0
9, 13847, Pitch_bend_c, 7, 16272
9, 13853, Pitch_bend_c, 7, 14912
9, 13858, Pitch_bend_c, 7, 13392
9, 13864, Pitch_bend_c, 7, 11792
9, 13869, Pitch_bend_c, 7, 9568
9, 13875, Pitch_bend_c, 7, 8192
9, 71236, Note_on_c, 7, 81, 111
9, 71620, Note_on_c, 7, 80, 111
9, 71626, Note_on_c, 7, 81, 0
9, 71703, Note_on_c, 7, 80, 0
9, 71816, Note_on_c, 7, 81, 111
9, 71904, Note_on_c, 7, 81, 0
9, 72001, Note_on_c, 7, 80, 111
9, 72086, Note_on_c, 7, 80, 0
9, 72196, Note_on_c, 7, 79, 111
9, 72231, Pitch_bend_c, 7, 8512
9, 72237, Pitch_bend_c, 7, 8928
9, 72242, Pitch_bend_c, 7, 9488
9, 72248, Pitch_bend_c, 7, 9872
9, 72254, Pitch_bend_c, 7, 10384
9, 72259, Pitch_bend_c, 7, 11024
9, 72265, Pitch_bend_c, 7, 11664
9, 72270, Pitch_bend_c, 7, 12176
9, 72276, Pitch_bend_c, 7, 12624
9, 72281, Pitch_bend_c, 7, 13040
9, 72287, Pitch_bend_c, 7, 13728
9, 72292, Pitch_bend_c, 7, 14384
9, 72298, Pitch_bend_c, 7, 14944
9, 72303, Pitch_bend_c, 7, 15520
9, 72309, Pitch_bend_c, 7, 16128
9, 72314, Pitch_bend_c, 7, 16383
9, 72466, Control_c, 7, 1, 3
9, 72471, Control_c, 7, 1, 14
9, 72476, Control_c, 7, 1, 27
9, 72482, Control_c, 7, 1, 37
9, 72487, Control_c, 7, 1, 46
9, 72493, Control_c, 7, 1, 55
9, 72498, Control_c, 7, 1, 63
9, 72504, Control_c, 7, 1, 70
9, 72509, Control_c, 7, 1, 77
9, 72517, Control_c, 7, 1, 88
9, 72523, Control_c, 7, 1, 99
9, 72528, Control_c, 7, 1, 108
9, 72533, Control_c, 7, 1, 115
9, 72538, Control_c, 7, 1, 124
9, 72544, Control_c, 7, 1, 127
9, 72819, Control_c, 7, 1, 118
9, 72824, Control_c, 7, 1, 102
9, 72830, Control_c, 7, 1, 82
9, 72835, Control_c, 7, 1, 59
9, 72841, Control_c, 7, 1, 34
9, 72846, Control_c, 7, 1, 10
9, 72851, Control_c, 7, 1, 0
9, 72884, Note_on_c, 7, 79, 0
9, 72888, Pitch_bend_c, 7, 15904
9, 72896, Pitch_bend_c, 7, 14176
9, 72902, Pitch_bend_c, 7, 12512
9, 72908, Pitch_bend_c, 7, 10976
9, 72913, Pitch_bend_c, 7, 9696
9, 72918, Pitch_bend_c, 7, 8736
9, 72924, Pitch_bend_c, 7, 8192
9, 72953, Note_on_c, 7, 81, 111
9, 72989, Pitch_bend_c, 7, 8656
9, 72994, Pitch_bend_c, 7, 9808
9, 73000, Pitch_bend_c, 7, 11136
9, 73005, Pitch_bend_c, 7, 12656
9, 73011, Pitch_bend_c, 7, 14080
9, 73016, Pitch_bend_c, 7, 15488
9, 73021, Pitch_bend_c, 7, 16383
9, 73160, Control_c, 7, 1, 3
9, 73165, Control_c, 7, 1, 14
9, 73171, Control_c, 7, 1, 27
9, 73176, Control_c, 7, 1, 41
9, 73182, Control_c, 7, 1, 59
9, 73187, Control_c, 7, 1, 73
9, 73193, Control_c, 7, 1, 84
9, 73198, Control_c, 7, 1, 97
9, 73203, Control_c, 7, 1, 108
9, 73209, Control_c, 7, 1, 118
9, 73214, Control_c, 7, 1, 127
9, 73596, Note_on_c, 7, 81, 0
9, 73613, Control_c, 7, 1, 117
9, 73619, Control_c, 7, 1, 84
9, 73625, Control_c, 7, 1, 48
9, 73630, Control_c, 7, 1, 21
9, 73635, Control_c, 7, 1, 0
9, 73651, Pitch_bend_c, 7, 16288
9, 73657, Pitch_bend_c, 7, 15056
9, 73663, Pitch_bend_c, 7, 13392
9, 73669, Pitch_bend_c, 7, 11584
9, 73676, Pitch_bend_c, 7, 10032
9, 73681, Pitch_bend_c, 7, 9088
9, 73687, Pitch_bend_c, 7, 8288
9, 73692, Pitch_bend_c, 7, 8192
9, 73722, Note_on_c, 7, 84, 111
9, 73736, Pitch_bend_c, 7, 8544
9, 73742, Pitch_bend_c, 7, 9280
9, 73747, Pitch_bend_c, 7, 9920
9, 73752, Pitch_bend_c, 7, 10784
9, 73757, Pitch_bend_c, 7, 12016
9, 73763, Pitch_bend_c, 7, 13072
9, 73768, Pitch_bend_c, 7, 13888
9, 73774, Pitch_bend_c, 7, 14672
9, 73779, Pitch_bend_c, 7, 15168
9, 73785, Pitch_bend_c, 7, 15632
9, 73790, Pitch_bend_c, 7, 16080
9, 73795, Pitch_bend_c, 7, 16383
9, 73888, Control_c, 7, 1, 7
9, 73894, Control_c, 7, 1, 14
9, 73899, Control_c, 7, 1, 21
9, 73905, Control_c, 7, 1, 27
9, 73910, Control_c, 7, 1, 32
9, 73916, Control_c, 7, 1, 37
9, 73922, Control_c, 7, 1, 46
9, 73927, Control_c, 7, 1, 57
9, 73933, Control_c, 7, 1, 66
9, 73938, Control_c, 7, 1, 75
9, 73943, Control_c, 7, 1, 84
9, 73949, Control_c, 7, 1, 91
9, 73954, Control_c, 7, 1, 99
9, 73959, Control_c, 7, 1, 106
9, 73965, Control_c, 7, 1, 113
9, 73970, Control_c, 7, 1, 120
9, 73975, Control_c, 7, 1, 127
9, 75030, Control_c, 7, 1, 124
9, 75035, Control_c, 7, 1, 113
9, 75041, Control_c, 7, 1, 104
9, 75046, Control_c, 7, 1, 99
9, 75052, Control_c, 7, 1, 95
9, 75057, Control_c, 7, 1, 88
9, 75063, Control_c, 7, 1, 81
9, 75068, Control_c, 7, 1, 70
9, 75075, Control_c, 7, 1, 61
9, 75080, Control_c, 7, 1, 55
9, 75085, Control_c, 7, 1, 46
9, 75090, Control_c, 7, 1, 37
9, 75096, Control_c, 7, 1, 25
9, 75101, Control_c, 7, 1, 7
9, 75106, Control_c, 7, 1, 0
9, 75127, Pitch_bend_c, 7, 15664
9, 75132, Pitch_bend_c, 7, 14688
9, 75138, Pitch_bend_c, 7, 13616
9, 75143, Pitch_bend_c, 7, 12512
9, 75149, Pitch_bend_c, 7, 11216
9, 75154, Pitch_bend_c, 7, 10176
9, 75160, Pitch_bend_c, 7, 9280
9, 75165, Pitch_bend_c, 7, 8432
9, 75171, Pitch_bend_c, 7, 8192
9, 75174, Note_on_c, 7, 84, 0
9, 93497, Note_on_c, 7, 52, 127
9, 93548, Note_on_c, 7, 54, 127
9, 93569, Note_on_c, 7, 52, 0
9, 93607, Note_on_c, 7, 57, 127
9, 93615, Note_on_c, 7, 54, 0
9, 93657, Note_on_c, 7, 57, 0
9, 93696, Note_on_c, 7, 57, 127
9, 93747, Pitch_bend_c, 7, 8320
9, 93752, Pitch_bend_c, 7, 9184
9, 93757, Pitch_bend_c, 7, 9952
9, 93762, Pitch_bend_c, 7, 10800
9, 93767, Pitch_bend_c, 7, 11520
9, 93772, Pitch_bend_c, 7, 12016
9, 93777, Pitch_bend_c, 7, 12544
9, 93783, Pitch_bend_c, 7, 12976
9, 93787, Pitch_bend_c, 7, 13376
9, 93792, Pitch_bend_c, 7, 13776
9, 93797, Pitch_bend_c, 7, 14528
9, 93803, Pitch_bend_c, 7, 15104
9, 93808, Pitch_bend_c, 7, 15712
9, 93813, Pitch_bend_c, 7, 16208
9, 93817, Pitch_bend_c, 7, 16383
9, 93847, Note_on_c, 7, 57, 0
9, 93859, Pitch_bend_c, 7, 16272
9, 93864, Pitch_bend_c, 7, 14992
9, 93869, Pitch_bend_c, 7, 13648
9, 93875, Pitch_bend_c, 7, 12384
9, 93880, Pitch_bend_c, 7, 11776
9, 93882, Note_on_c, 7, 57, 127
9, 93884, Pitch_bend_c, 7, 11792
9, 93891, Pitch_bend_c, 7, 12672
9, 93896, Pitch_bend_c, 7, 14224
9, 93901, Pitch_bend_c, 7, 15824
9, 93907, Pitch_bend_c, 7, 16383
9, 94259, Control_c, 7, 1, 3
9, 94264, Control_c, 7, 1, 7
9, 94269, Control_c, 7, 1, 12
9, 94275, Control_c, 7, 1, 18
9, 94281, Control_c, 7, 1, 23
9, 94286, Control_c, 7, 1, 27
9, 94291, Control_c, 7, 1, 28
9, 94301, Control_c, 7, 1, 27
9, 94306, Control_c, 7, 1, 23
9, 94311, Control_c, 7, 1, 18
9, 94316, Control_c, 7, 1, 14
9, 94321, Control_c, 7, 1, 12
9, 94326, Control_c, 7, 1, 10
9, 94336, Control_c, 7, 1, 12
9, 94341, Control_c, 7, 1, 14
9, 94346, Control_c, 7, 1, 18
9, 94351, Control_c, 7, 1, 21
9, 94356, Control_c, 7, 1, 25
9, 94361, Control_c, 7, 1, 27
9, 94365, Control_c, 7, 1, 30
9, 94371, Control_c, 7, 1, 32
9, 94376, Control_c, 7, 1, 36
9, 94381, Control_c, 7, 1, 39
9, 94386, Control_c, 7, 1, 43
9, 94396, Control_c, 7, 1, 45
9, 94400, Control_c, 7, 1, 46
9, 94411, Control_c, 7, 1, 48
9, 94416, Control_c, 7, 1, 52
9, 94421, Control_c, 7, 1, 54
9, 94426, Control_c, 7, 1, 55
9, 94432, Control_c, 7, 1, 57
9, 94446, Control_c, 7, 1, 59
9, 94457, Control_c, 7, 1, 63
9, 94462, Control_c, 7, 1, 66
9, 94467, Control_c, 7, 1, 72
9, 94472, Control_c, 7, 1, 75
9, 94477, Control_c, 7, 1, 82
9, 94482, Control_c, 7, 1, 86
9, 94487, Control_c, 7, 1, 91
9, 94492, Control_c, 7, 1, 95
9, 94498, Control_c, 7, 1, 99
9, 94503, Control_c, 7, 1, 102
9, 94508, Control_c, 7, 1, 106
9, 94513, Control_c, 7, 1, 108
9, 94518, Control_c, 7, 1, 113
9, 94523, Control_c, 7, 1, 117
9, 94529, Control_c, 7, 1, 120
9, 94534, Control_c, 7, 1, 126
9, 94538, Control_c, 7, 1, 127
9, 94709, Control_c, 7, 1, 122
9, 94714, Control_c, 7, 1, 108
9, 94719, Control_c, 7, 1, 90
9, 94724, Control_c, 7, 1, 68
9, 94729, Control_c, 7, 1, 45
9, 94734, Control_c, 7, 1, 19
9, 94740, Control_c, 7, 1, 0
9, 94789, Pitch_bend_c, 7, 15632
9, 94795, Pitch_bend_c, 7, 14608
9, 94798, Note_on_c, 7, 57, 0
9, 94800, Pitch_bend_c, 7, 13472
9, 94805, Pitch_bend_c, 7, 12672
9, 94810, Pitch_bend_c, 7, 11792
9, 94815, Pitch_bend_c, 7, 11088
9, 94820, Pitch_bend_c, 7, 10608
9, 94824, Note_on_c, 7, 52, 127
9, 94826, Pitch_bend_c, 7, 10576
9, 94832, Pitch_bend_c, 7, 10912
9, 94837, Pitch_bend_c, 7, 11600
9, 94842, Pitch_bend_c, 7, 12656
9, 94849, Pitch_bend_c, 7, 14560
9, 94854, Pitch_bend_c, 7, 15632
9, 94860, Pitch_bend_c, 7, 16383
9, 94963, Note_on_c, 7, 52, 0
9, 94991, Pitch_bend_c, 7, 15936
9, 94996, Pitch_bend_c, 7, 14640
9, 95002, Pitch_bend_c, 7, 13088
9, 95007, Pitch_bend_c, 7, 11488
9, 95012, Pitch_bend_c, 7, 9680
9, 95017, Pitch_bend_c, 7, 8192
9, 95021, Note_on_c, 7, 52, 127
9, 95193, Control_c, 7, 1, 1
9, 95198, Control_c, 7, 1, 19
9, 95203, Control_c, 7, 1, 34
9, 95208, Control_c, 7, 1, 45
9, 95213, Control_c, 7, 1, 52
9, 95218, Control_c, 7, 1, 55
9, 95227, Control_c, 7, 1, 48
9, 95233, Control_c, 7, 1, 41
9, 95238, Control_c, 7, 1, 43
9, 95243, Control_c, 7, 1, 48
9, 95249, Control_c, 7, 1, 55
9, 95254, Control_c, 7, 1, 61
9, 95259, Control_c, 7, 1, 66
9, 95264, Control_c, 7, 1, 72
9, 95269, Control_c, 7, 1, 81
9, 95274, Control_c, 7, 1, 90
9, 95279, Control_c, 7, 1, 97
9, 95284, Control_c, 7, 1, 104
9, 95289, Control_c, 7, 1, 109
9, 95294, Control_c, 7, 1, 113
9, 95300, Control_c, 7, 1, 117
9, 95305, Control_c, 7, 1, 118
9, 95310, Control_c, 7, 1, 120
9, 95315, Control_c, 7, 1, 124
9, 95320, Control_c, 7, 1, 127
9, 95607, Control_c, 7, 1, 115
9, 95613, Control_c, 7, 1, 95
9, 95619, Control_c, 7, 1, 73
9, 95624, Control_c, 7, 1, 54
9, 95629, Control_c, 7, 1, 43
9, 95634, Control_c, 7, 1, 30
9, 95639, Control_c, 7, 1, 14
9, 95644, Control_c, 7, 1, 0
9, 95946, Note_on_c, 7, 52, 0
9, 96004, Note_on_c, 7, 52, 127
9, 96133, Pitch_bend_c, 7, 7904
9, 96138, Pitch_bend_c, 7, 7408
9, 96143, Pitch_bend_c, 7, 6896
9, 96147, Note_on_c, 7, 52, 0
9, 96148, Pitch_bend_c, 7, 6560
9, 96153, Pitch_bend_c, 7, 6240
9, 96158, Pitch_bend_c, 7, 6048
9, 96163, Pitch_bend_c, 7, 5808
9, 96168, Pitch_bend_c, 7, 5616
9, 96173, Pitch_bend_c, 7, 5552
9, 96178, Pitch_bend_c, 7, 5472
9, 96182, Pitch_bend_c, 7, 5440
9, 96187, Pitch_bend_c, 7, 5360
9, 96209, Pitch_bend_c, 7, 5392
9, 96213, Pitch_bend_c, 7, 5360
9, 96223, Pitch_bend_c, 7, 5392
9, 96228, Pitch_bend_c, 7, 5536
9, 96234, Pitch_bend_c, 7, 5696
9, 96239, Pitch_bend_c, 7, 6048
9, 96244, Pitch_bend_c, 7, 6352
9, 96249, Pitch_bend_c, 7, 6784
9, 96254, Pitch_bend_c, 7, 7296
9, 96259, Pitch_bend_c, 7, 7904
9, 96264, Pitch_bend_c, 7, 8192
9, 96588, Note_on_c, 7, 52, 127
9, 96630, Note_on_c, 7, 54, 122
9, 96659, Note_on_c, 7, 52, 0
9, 96699, Note_on_c, 7, 57, 127
9, 96711, Note_on_c, 7, 54, 0
9, 96748, Note_on_c, 7, 57, 0
9, 96780, Note_on_c, 7, 57, 127
9, 96814, Pitch_bend_c, 7, 8976
9, 96820, Pitch_bend_c, 7, 9728
9, 96825, Pitch_bend_c, 7, 10416
9, 96830, Pitch_bend_c, 7, 11248
9, 96835, Pitch_bend_c, 7, 11776
9, 96840, Pitch_bend_c, 7, 12240
9, 96845, Pitch_bend_c, 7, 12704
9, 96851, Pitch_bend_c, 7, 13312
9, 96856, Pitch_bend_c, 7, 14256
9, 96862, Pitch_bend_c, 7, 15136
9, 96866, Pitch_bend_c, 7, 15712
9, 96871, Pitch_bend_c, 7, 16128
9, 96876, Pitch_bend_c, 7, 16352
9, 96882, Pitch_bend_c, 7, 16383
9, 96892, Pitch_bend_c, 7, 16320
9, 96897, Pitch_bend_c, 7, 15776
9, 96902, Pitch_bend_c, 7, 14944
9, 96906, Note_on_c, 7, 57, 0
9, 96907, Pitch_bend_c, 7, 13872
9, 96913, Pitch_bend_c, 7, 12672
9, 96918, Pitch_bend_c, 7, 11408
9, 96923, Pitch_bend_c, 7, 9840
9, 96928, Pitch_bend_c, 7, 8736
9, 96933, Pitch_bend_c, 7, 8192
9, 96945, Note_on_c, 7, 57, 127
9, 96953, Pitch_bend_c, 7, 8272
9, 96961, Pitch_bend_c, 7, 9072
9, 96966, Pitch_bend_c, 7, 9728
9, 96971, Pitch_bend_c, 7, 10384
9, 96976, Pitch_bend_c, 7, 11184
9, 96981, Pitch_bend_c, 7, 11744
9, 96987, Pitch_bend_c, 7, 12480
9, 96992, Pitch_bend_c, 7, 13232
9, 96997, Pitch_bend_c, 7, 13984
9, 97002, Pitch_bend_c, 7, 14576
9, 97007, Pitch_bend_c, 7, 15136
9, 97012, Pitch_bend_c, 7, 15584
9, 97017, Pitch_bend_c, 7, 15664
9, 97023, Pitch_bend_c, 7, 15792
9, 97028, Pitch_bend_c, 7, 15872
9, 97033, Pitch_bend_c, 7, 15936
9, 97043, Pitch_bend_c, 7, 15968
9, 97049, Pitch_bend_c, 7, 16080
9, 97054, Pitch_bend_c, 7, 16240
9, 97059, Pitch_bend_c, 7, 16288
9, 97064, Pitch_bend_c, 7, 16383
9, 97074, Pitch_bend_c, 7, 16288
9, 97085, Pitch_bend_c, 7, 15984
9, 97090, Pitch_bend_c, 7, 15664
9, 97095, Pitch_bend_c, 7, 15280
9, 97096, Note_on_c, 7, 57, 0
9, 97101, Pitch_bend_c, 7, 14576
9, 97105, Pitch_bend_c, 7, 14064
9, 97110, Pitch_bend_c, 7, 13280
9, 97115, Pitch_bend_c, 7, 12672
9, 97121, Pitch_bend_c, 7, 12240
9, 97124, Note_on_c, 7, 57, 126
9, 97126, Pitch_bend_c, 7, 12160
9, 97131, Pitch_bend_c, 7, 12128
9, 97136, Pitch_bend_c, 7, 12704
9, 97141, Pitch_bend_c, 7, 13760
9, 97146, Pitch_bend_c, 7, 14832
9, 97155, Pitch_bend_c, 7, 16383
9, 97309, Control_c, 7, 1, 14
9, 97314, Control_c, 7, 1, 37
9, 97319, Control_c, 7, 1, 61
9, 97324, Control_c, 7, 1, 77
9, 97329, Control_c, 7, 1, 90
9, 97334, Control_c, 7, 1, 99
9, 97339, Control_c, 7, 1, 109
9, 97345, Control_c, 7, 1, 126
9, 97350, Control_c, 7, 1, 127
9, 97426, Control_c, 7, 1, 113
9, 97431, Control_c, 7, 1, 84
9, 97436, Control_c, 7, 1, 57
9, 97441, Control_c, 7, 1, 30
9, 97445, Control_c, 7, 1, 5
9, 97450, Control_c, 7, 1, 0
9, 97479, Note_on_c, 7, 57, 0
9, 97486, Pitch_bend_c, 7, 16128
9, 97491, Pitch_bend_c, 7, 14912
9, 97496, Pitch_bend_c, 7, 13280
9, 97501, Pitch_bend_c, 7, 11712
9, 97506, Pitch_bend_c, 7, 10336
9, 97511, Pitch_bend_c, 7, 9280
9, 97516, Pitch_bend_c, 7, 8352
9, 97521, Pitch_bend_c, 7, 8192
9, 97523, Note_on_c, 7, 57, 127
9, 97531, Pitch_bend_c, 7, 8240
9, 97537, Pitch_bend_c, 7, 9120
9, 97542, Pitch_bend_c, 7, 10256
9, 97547, Pitch_bend_c, 7, 11712
9, 97552, Pitch_bend_c, 7, 13088
9, 97558, Pitch_bend_c, 7, 14992
9, 97563, Pitch_bend_c, 7, 16352
9, 97568, Pitch_bend_c, 7, 16383
9, 97654, Note_on_c, 7, 60, 127
9, 97657, Note_on_c, 7, 57, 0
9, 97716, Note_on_c, 7, 60, 0
9, 97723, Note_on_c, 7, 57, 127
9, 97752, Pitch_bend_c, 7, 16240
9, 97757, Pitch_bend_c, 7, 15360
9, 97763, Pitch_bend_c, 7, 14720
9, 97768, Pitch_bend_c, 7, 14384
9, 97773, Pitch_bend_c, 7, 14336
9, 97778, Pitch_bend_c, 7, 14256
9, 97784, Pitch_bend_c, 7, 14336
9, 97788, Pitch_bend_c, 7, 14384
9, 97794, Pitch_bend_c, 7, 14448
9, 97799, Pitch_bend_c, 7, 14880
9, 97804, Pitch_bend_c, 7, 15584
9, 97809, Pitch_bend_c, 7, 16383
9, 97916, Control_c, 7, 1, 12
9, 97921, Control_c, 7, 1, 32
9, 97929, Control_c, 7, 1, 63
9, 97934, Control_c, 7, 1, 93
9, 97939, Control_c, 7, 1, 117
9, 97944, Control_c, 7, 1, 127
9, 98118, Control_c, 7, 1, 117
9, 98123, Control_c, 7, 1, 79
9, 98129, Control_c, 7, 1, 43
9, 98133, Control_c, 7, 1, 9
9, 98139, Control_c, 7, 1, 0
9, 98237, Pitch_bend_c, 7, 15856
9, 98243, Pitch_bend_c, 7, 15376
9, 98248, Pitch_bend_c, 7, 14576
9, 98250, Note_on_c, 7, 57, 0
9, 98253, Pitch_bend_c, 7, 13696
9, 98258, Pitch_bend_c, 7, 12480
9, 98263, Pitch_bend_c, 7, 11216
9, 98268, Pitch_bend_c, 7, 9952
9, 98273, Pitch_bend_c, 7, 8768
9, 98278, Pitch_bend_c, 7, 8192
9, 98300, Note_on_c, 7, 62, 127
9, 98300, Note_on_c, 7, 66, 127
9, 98397, Note_on_c, 7, 66, 0
9, 98397, Note_on_c, 7, 62, 0
9, 98425, Note_on_c, 7, 66, 127
9, 98427, Note_on_c, 7, 62, 127
9, 98488, Note_on_c, 7, 59, 120
9, 98498, Note_on_c, 7, 66, 0
9, 98504, Note_on_c, 7, 62, 0
9, 98608, Note_on_c, 7, 57, 108
9, 98609, Note_on_c, 7, 59, 0
9, 98673, Note_on_c, 7, 59, 127
9, 98696, Note_on_c, 7, 57, 0
9, 98804, Note_on_c, 7, 59, 0
9, 98855, Note_on_c, 7, 59, 127
9, 98974, Note_on_c, 7, 57, 123
9, 98991, Note_on_c, 7, 59, 0
9, 99019, Note_on_c, 7, 57, 0
9, 99052, Note_on_c, 7, 57, 127
9, 99065, Pitch_bend_c, 7, 9184
9, 99075, Pitch_bend_c, 7, 11600
9, 99080, Pitch_bend_c, 7, 12784
9, 99085, Pitch_bend_c, 7, 14000
9, 99090, Pitch_bend_c, 7, 14944
9, 99095, Pitch_bend_c, 7, 15984
9, 99100, Pitch_bend_c, 7, 16383
9, 99162, Note_on_c, 7, 57, 0
9, 99175, Pitch_bend_c, 7, 15664
9, 99180, Pitch_bend_c, 7, 14416
9, 99185, Pitch_bend_c, 7, 12976
9, 99190, Pitch_bend_c, 7, 11744
9, 99195, Pitch_bend_c, 7, 10640
9, 99200, Pitch_bend_c, 7, 10144
9, 99200, Note_on_c, 7, 57, 127
9, 99206, Pitch_bend_c, 7, 9984
9, 99211, Pitch_bend_c, 7, 10000
9, 99216, Pitch_bend_c, 7, 10480
9, 99221, Pitch_bend_c, 7, 11408
9, 99226, Pitch_bend_c, 7, 12272
9, 99231, Pitch_bend_c, 7, 13200
9, 99236, Pitch_bend_c, 7, 14336
9, 99241, Pitch_bend_c, 7, 15136
9, 99247, Pitch_bend_c, 7, 16160
9, 99252, Pitch_bend_c, 7, 16383
9, 99356, Control_c, 7, 1, 3
9, 99361, Control_c, 7, 1, 30
9, 99366, Control_c, 7, 1, 61
9, 99371, Control_c, 7, 1, 91
9, 99376, Control_c, 7, 1, 122
9, 99381, Control_c, 7, 1, 127
9, 99586, Control_c, 7, 1, 63
9, 99591, Control_c, 7, 1, 0
9, 99605, Pitch_bend_c, 7, 15984
9, 99608, Note_on_c, 7, 57, 0
9, 99610, Pitch_bend_c, 7, 14496
9, 99616, Pitch_bend_c, 7, 12432
9, 99621, Pitch_bend_c, 7, 10496
9, 99626, Pitch_bend_c, 7, 8736
9, 99631, Pitch_bend_c, 7, 8192
9, 99838, Note_on_c, 7, 64, 127
9, 99891, Pitch_bend_c, 7, 8432
9, 99897, Pitch_bend_c, 7, 8736
9, 99902, Pitch_bend_c, 7, 9040
9, 99907, Pitch_bend_c, 7, 9344
9, 99912, Pitch_bend_c, 7, 9584
9, 99917, Pitch_bend_c, 7, 9888
9, 99922, Pitch_bend_c, 7, 10256
9, 99927, Pitch_bend_c, 7, 10640
9, 99932, Pitch_bend_c, 7, 10864
9, 99938, Pitch_bend_c, 7, 11136
9, 99942, Pitch_bend_c, 7, 11376
9, 99948, Pitch_bend_c, 7, 11712
9, 99953, Pitch_bend_c, 7, 12096
9, 99958, Pitch_bend_c, 7, 12384
9, 99963, Pitch_bend_c, 7, 12928
9, 99968, Pitch_bend_c, 7, 13184
9, 99974, Pitch_bend_c, 7, 13536
9, 99979, Pitch_bend_c, 7, 13872
9, 99984, Pitch_bend_c, 7, 14192
9, 99989, Pitch_bend_c, 7, 14480
9, 99994, Pitch_bend_c, 7, 14800
9, 99999, Pitch_bend_c, 7, 14992
9, 100004, Pitch_bend_c, 7, 15296
9, 100009, Pitch_bend_c, 7, 15552
9, 100014, Pitch_bend_c, 7, 15712
9, 100020, Pitch_bend_c, 7, 15968
9, 100025, Pitch_bend_c, 7, 16272
9, 100030, Pitch_bend_c, 7, 16383
9, 100160, Control_c, 7, 1, 1
9, 100166, Control_c, 7, 1, 14
9, 100171, Control_c, 7, 1, 23
9, 100176, Control_c, 7, 1, 28
9, 100181, Control_c, 7, 1, 32
9, 100186, Control_c, 7, 1, 36
9, 100192, Control_c, 7, 1, 41
9, 100196, Control_c, 7, 1, 50
9, 100202, Control_c, 7, 1, 64
9, 100207, Control_c, 7, 1, 86
9, 100213, Control_c, 7, 1, 111
9, 100217, Control_c, 7, 1, 127
9, 100311, Control_c, 7, 1, 111
9, 100316, Control_c, 7, 1, 45
9, 100321, Control_c, 7, 1, 0
9, 100341, Pitch_bend_c, 7, 15136
9, 100347, Pitch_bend_c, 7, 13376
9, 100349, Note_on_c, 7, 64, 0
9, 100351, Pitch_bend_c, 7, 11680
9, 100356, Pitch_bend_c, 7, 9984
9, 100362, Pitch_bend_c, 7, 8400
9, 100367, Pitch_bend_c, 7, 8192
9, 100410, Note_on_c, 7, 64, 127
9, 100419, Pitch_bend_c, 7, 10384
9, 100424, Pitch_bend_c, 7, 12544
9, 100429, Pitch_bend_c, 7, 15072
9, 100434, Pitch_bend_c, 7, 16383
9, 100515, Note_on_c, 7, 64, 0
9, 100535, Pitch_bend_c, 7, 15408
9, 100540, Pitch_bend_c, 7, 12880
9, 100545, Pitch_bend_c, 7, 10032
9, 100547, Note_on_c, 7, 64, 127
9, 100551, Pitch_bend_c, 7, 8192
9, 100685, Control_c, 7, 1, 28
9, 100690, Control_c, 7, 1, 50
9, 100694, Control_c, 7, 1, 63
9, 100699, Control_c, 7, 1, 73
9, 100704, Control_c, 7, 1, 86
9, 100709, Control_c, 7, 1, 102
9, 100715, Control_c, 7, 1, 127
9, 101044, Control_c, 7, 1, 104
9, 101049, Control_c, 7, 1, 52
9, 101054, Control_c, 7, 1, 7
9, 101059, Note_on_c, 7, 64, 0
9, 101059, Control_c, 7, 1, 0
9, 101380, Note_on_c, 7, 64, 127
9, 101409, Pitch_bend_c, 7, 8272
9, 101414, Pitch_bend_c, 7, 8656
9, 101419, Pitch_bend_c, 7, 9264
9, 101424, Pitch_bend_c, 7, 9808
9, 101429, Pitch_bend_c, 7, 10384
9, 101435, Pitch_bend_c, 7, 10976
9, 101440, Pitch_bend_c, 7, 11520
9, 101445, Pitch_bend_c, 7, 12016
9, 101449, Pitch_bend_c, 7, 12384
9, 101454, Pitch_bend_c, 7, 12880
9, 101459, Pitch_bend_c, 7, 13280
9, 101465, Pitch_bend_c, 7, 13696
9, 101470, Pitch_bend_c, 7, 14256
9, 101475, Pitch_bend_c, 7, 15024
9, 101480, Pitch_bend_c, 7, 15712
9, 101485, Pitch_bend_c, 7, 16383
9, 101636, Control_c, 7, 1, 9
9, 101641, Control_c, 7, 1, 19
9, 101646, Control_c, 7, 1, 36
9, 101651, Control_c, 7, 1, 59
9, 101656, Control_c, 7, 1, 91
9, 101661, Control_c, 7, 1, 127
9, 101870, Note_on_c, 7, 64, 0
9, 101880, Control_c, 7, 1, 93
9, 101886, Control_c, 7, 1, 30
9, 101891, Control_c, 7, 1, 0
9, 101910, Pitch_bend_c, 7, 16208
9, 101915, Pitch_bend_c, 7, 15280
9, 101921, Pitch_bend_c, 7, 14064
9, 101926, Pitch_bend_c, 7, 12736
9, 101931, Pitch_bend_c, 7, 11472
9, 101935, Pitch_bend_c, 7, 10304
9, 101941, Pitch_bend_c, 7, 9344
9, 101945, Pitch_bend_c, 7, 8400
9, 101955, Pitch_bend_c, 7, 8192
9, 102119, Note_on_c, 7, 76, 127
9, 102135, Pitch_bend_c, 7, 8464
9, 102140, Pitch_bend_c, 7, 9152
9, 102147, Pitch_bend_c, 7, 10144
9, 102152, Pitch_bend_c, 7, 11024
9, 102157, Pitch_bend_c, 7, 11968
9, 102162, Pitch_bend_c, 7, 12880
9, 102166, Pitch_bend_c, 7, 13760
9, 102172, Pitch_bend_c, 7, 15024
9, 102177, Pitch_bend_c, 7, 15872
9, 102182, Pitch_bend_c, 7, 16383
9, 102222, Control_c, 7, 1, 12
9, 102227, Control_c, 7, 1, 30
9, 102232, Control_c, 7, 1, 48
9, 102237, Control_c, 7, 1, 63
9, 102242, Control_c, 7, 1, 75
9, 102247, Control_c, 7, 1, 86
9, 102252, Control_c, 7, 1, 95
9, 102257, Control_c, 7, 1, 106
9, 102262, Control_c, 7, 1, 122
9, 102267, Control_c, 7, 1, 127
9, 102529, Control_c, 7, 1, 55
9, 102531, Note_on_c, 7, 76, 0
9, 102534, Control_c, 7, 1, 0
9, 102564, Pitch_bend_c, 7, 15968
9, 102569, Pitch_bend_c, 7, 15024
9, 102574, Pitch_bend_c, 7, 13920
9, 102579, Pitch_bend_c, 7, 12784
9, 102584, Pitch_bend_c, 7, 11216
9, 102589, Pitch_bend_c, 7, 9952
9, 102595, Pitch_bend_c, 7, 8704
9, 102600, Pitch_bend_c, 7, 8192
9, 102716, Note_on_c, 7, 66, 127
9, 102840, Note_on_c, 7, 69, 127
9, 102850, Note_on_c, 7, 66, 0
9, 102910, Note_on_c, 7, 69, 0
9, 102910, Note_on_c, 7, 69, 127
9, 102910, Pitch_bend_c, 7, 11328
9, 102910, Pitch_bend_c, 7, 10064
9, 102910, Pitch_bend_c, 7, 8736
9, 102918, Pitch_bend_c, 7, 15488
9, 102923, Pitch_bend_c, 7, 15968
9, 102929, Pitch_bend_c, 7, 16240
9, 102934, Pitch_bend_c, 7, 16383
9, 103018, Pitch_bend_c, 7, 16128
9, 103023, Pitch_bend_c, 7, 14576
9, 103028, Note_on_c, 7, 69, 0
9, 103028, Pitch_bend_c, 7, 12656
9, 103033, Pitch_bend_c, 7, 10576
9, 103038, Pitch_bend_c, 7, 8736
9, 103045, Pitch_bend_c, 7, 8192
9, 103059, Note_on_c, 7, 69, 127
9, 103077, Pitch_bend_c, 7, 8208
9, 103082, Pitch_bend_c, 7, 9568
9, 103087, Pitch_bend_c, 7, 10448
9, 103092, Pitch_bend_c, 7, 11408
9, 103097, Pitch_bend_c, 7, 12176
9, 103107, Pitch_bend_c, 7, 13344
9, 103111, Pitch_bend_c, 7, 13728
9, 103117, Pitch_bend_c, 7, 14080
9, 103122, Pitch_bend_c, 7, 14384
9, 103127, Pitch_bend_c, 7, 14880
9, 103132, Pitch_bend_c, 7, 15376
9, 103137, Pitch_bend_c, 7, 16048
9, 103142, Pitch_bend_c, 7, 16383
9, 103253, Control_c, 7, 1, 3
9, 103258, Control_c, 7, 1, 9
9, 103263, Control_c, 7, 1, 12
9, 103269, Control_c, 7, 1, 14
9, 103274, Control_c, 7, 1, 18
9, 103279, Control_c, 7, 1, 28
9, 103284, Control_c, 7, 1, 45
9, 103289, Control_c, 7, 1, 59
9, 103294, Control_c, 7, 1, 72
9, 103299, Control_c, 7, 1, 86
9, 103304, Control_c, 7, 1, 104
9, 103309, Control_c, 7, 1, 124
9, 103314, Control_c, 7, 1, 127
9, 103630, Control_c, 7, 1, 93
9, 103635, Control_c, 7, 1, 34
9, 103641, Control_c, 7, 1, 0
9, 103652, Note_on_c, 7, 69, 0
9, 103666, Pitch_bend_c, 7, 15792
9, 103671, Pitch_bend_c, 7, 14576
9, 103683, Pitch_bend_c, 7, 10496
9, 103688, Pitch_bend_c, 7, 8624
9, 103693, Pitch_bend_c, 7, 8192
9, 103800, Note_on_c, 7, 76, 127
9, 103883, Note_on_c, 7, 76, 0
9, 103937, Note_on_c, 7, 74, 127
9, 103995, Note_on_c, 7, 74, 0
9, 104064, Note_on_c, 7, 76, 127
9, 104158, Note_on_c, 7, 76, 0
9, 104197, Note_on_c, 7, 74, 127
9, 104268, Note_on_c, 7, 74, 0
9, 104312, Note_on_c, 7, 76, 127
9, 104392, Note_on_c, 7, 76, 0
9, 104443, Note_on_c, 7, 76, 127
9, 104457, Pitch_bend_c, 7, 12128
9, 104462, Pitch_bend_c, 7, 13536
9, 104467, Pitch_bend_c, 7, 14880
9, 104473, Pitch_bend_c, 7, 16096
9, 104478, Pitch_bend_c, 7, 16383
9, 104588, Pitch_bend_c, 7, 13920
9, 104593, Pitch_bend_c, 7, 10528
9, 104598, Pitch_bend_c, 7, 8192
9, 104625, Note_on_c, 7, 76, 0
9, 104626, Note_on_c, 7, 74, 127
9, 104670, Note_on_c, 7, 74, 0
9, 104672, Note_on_c, 7, 71, 127
9, 104914, Control_c, 7, 1, 34
9, 104919, Control_c, 7, 1, 66
9, 104924, Control_c, 7, 1, 93
9, 104929, Control_c, 7, 1, 120
9, 104934, Control_c, 7, 1, 127
9, 105083, Note_on_c, 7, 71, 0
9, 105086, Control_c, 7, 1, 115
9, 105091, Control_c, 7, 1, 43
9, 105096, Control_c, 7, 1, 0
9, 105325, Note_on_c, 7, 72, 127
9, 105342, Pitch_bend_c, 7, 8576
9, 105350, Pitch_bend_c, 7, 9776
9, 105355, Pitch_bend_c, 7, 10688
9, 105360, Pitch_bend_c, 7, 11664
9, 105365, Pitch_bend_c, 7, 12320
9, 105370, Pitch_bend_c, 7, 13072
9, 105375, Pitch_bend_c, 7, 13536
9, 105381, Pitch_bend_c, 7, 14032
9, 105386, Pitch_bend_c, 7, 14368
9, 105391, Pitch_bend_c, 7, 14912
9, 105396, Pitch_bend_c, 7, 15216
9, 105401, Pitch_bend_c, 7, 15664
9, 105406, Pitch_bend_c, 7, 16048
9, 105416, Pitch_bend_c, 7, 16383
9, 105475, Control_c, 7, 1, 3
9, 105480, Control_c, 7, 1, 16
9, 105485, Control_c, 7, 1, 32
9, 105490, Control_c, 7, 1, 54
9, 105495, Control_c, 7, 1, 75
9, 105500, Control_c, 7, 1, 93
9, 105505, Control_c, 7, 1, 109
9, 105510, Control_c, 7, 1, 124
9, 105515, Control_c, 7, 1, 127
9, 105948, Control_c, 7, 1, 124
9, 105953, Control_c, 7, 1, 86
9, 105954, Note_on_c, 7, 72, 0
9, 105958, Control_c, 7, 1, 54
9, 105963, Control_c, 7, 1, 23
9, 105968, Control_c, 7, 1, 0
9, 106003, Pitch_bend_c, 7, 16096
9, 106009, Pitch_bend_c, 7, 14688
9, 106014, Pitch_bend_c, 7, 12960
9, 106018, Pitch_bend_c, 7, 11168
9, 106023, Pitch_bend_c, 7, 8240
9, 106029, Pitch_bend_c, 7, 8192
9, 106029, End_track
10, 0, Start_track
10, 0, MIDI_port, 0
10, 0, Title_t, "LeadGtr2            "
10, 7319, Note_on_c, 8, 60, 127
10, 7607, Pitch_bend_c, 8, 8208
10, 7612, Pitch_bend_c, 8, 8352
10, 7617, Pitch_bend_c, 8, 8512
10, 7623, Pitch_bend_c, 8, 8736
10, 7628, Pitch_bend_c, 8, 8960
10, 7634, Pitch_bend_c, 8, 9200
10, 7639, Pitch_bend_c, 8, 9424
10, 7644, Pitch_bend_c, 8, 9568
10, 7650, Pitch_bend_c, 8, 9760
10, 7655, Pitch_bend_c, 8, 9888
10, 7660, Pitch_bend_c, 8, 10032
10, 7666, Pitch_bend_c, 8, 10256
10, 7671, Pitch_bend_c, 8, 10496
10, 7677, Pitch_bend_c, 8, 10752
10, 7682, Pitch_bend_c, 8, 11104
10, 7687, Pitch_bend_c, 8, 11408
10, 7692, Pitch_bend_c, 8, 11584
10, 7700, Pitch_bend_c, 8, 11856
10, 7706, Pitch_bend_c, 8, 12160
10, 7711, Pitch_bend_c, 8, 12384
10, 7716, Pitch_bend_c, 8, 12624
10, 7721, Pitch_bend_c, 8, 13008
10, 7727, Pitch_bend_c, 8, 13312
10, 7732, Pitch_bend_c, 8, 13728
10, 7738, Pitch_bend_c, 8, 14192
10, 7743, Pitch_bend_c, 8, 14672
10, 7749, Pitch_bend_c, 8, 15056
10, 7754, Pitch_bend_c, 8, 15376
10, 7760, Pitch_bend_c, 8, 15664
10, 7765, Pitch_bend_c, 8, 15968
10, 7771, Pitch_bend_c, 8, 16288
10, 7776, Pitch_bend_c, 8, 16383
10, 8245, Control_c, 8, 1, 1
10, 8256, Control_c, 8, 1, 5
10, 8261, Control_c, 8, 1, 7
10, 8267, Control_c, 8, 1, 10
10, 8272, Control_c, 8, 1, 12
10, 8278, Control_c, 8, 1, 14
10, 8288, Control_c, 8, 1, 18
10, 8294, Control_c, 8, 1, 19
10, 8304, Control_c, 8, 1, 23
10, 8320, Control_c, 8, 1, 25
10, 8331, Control_c, 8, 1, 27
10, 8346, Control_c, 8, 1, 28
10, 8357, Control_c, 8, 1, 30
10, 8367, Control_c, 8, 1, 34
10, 8378, Control_c, 8, 1, 36
10, 8383, Control_c, 8, 1, 37
10, 8388, Control_c, 8, 1, 39
10, 8399, Control_c, 8, 1, 41
10, 8406, Control_c, 8, 1, 45
10, 8411, Control_c, 8, 1, 46
10, 8432, Control_c, 8, 1, 48
10, 8438, Control_c, 8, 1, 50
10, 8443, Control_c, 8, 1, 52
10, 8448, Control_c, 8, 1, 54
10, 8459, Control_c, 8, 1, 55
10, 8468, Control_c, 8, 1, 57
10, 8473, Control_c, 8, 1, 59
10, 8484, Control_c, 8, 1, 61
10, 8490, Control_c, 8, 1, 64
10, 8495, Control_c, 8, 1, 66
10, 8500, Control_c, 8, 1, 68
10, 8505, Control_c, 8, 1, 70
10, 8511, Control_c, 8, 1, 72
10, 8522, Control_c, 8, 1, 73
10, 8532, Control_c, 8, 1, 77
10, 8537, Control_c, 8, 1, 79
10, 8548, Control_c, 8, 1, 81
10, 8559, Control_c, 8, 1, 82
10, 8564, Control_c, 8, 1, 84
10, 8569, Control_c, 8, 1, 86
10, 8575, Control_c, 8, 1, 88
10, 8585, Control_c, 8, 1, 91
10, 8622, Control_c, 8, 1, 93
10, 8627, Control_c, 8, 1, 95
10, 8638, Control_c, 8, 1, 97
10, 8643, Control_c, 8, 1, 99
10, 8648, Control_c, 8, 1, 100
10, 8655, Control_c, 8, 1, 102
10, 8669, Control_c, 8, 1, 100
10, 8691, Control_c, 8, 1, 102
10, 8697, Control_c, 8, 1, 104
10, 8707, Control_c, 8, 1, 106
10, 8713, Control_c, 8, 1, 109
10, 8718, Control_c, 8, 1, 111
10, 8723, Control_c, 8, 1, 113
10, 8739, Control_c, 8, 1, 115
10, 8755, Control_c, 8, 1, 117
10, 8765, Control_c, 8, 1, 118
10, 8781, Control_c, 8, 1, 117
10, 8788, Control_c, 8, 1, 115
10, 8793, Control_c, 8, 1, 113
10, 8848, Control_c, 8, 1, 111
10, 8859, Control_c, 8, 1, 113
10, 8864, Control_c, 8, 1, 117
10, 8870, Control_c, 8, 1, 118
10, 8885, Control_c, 8, 1, 120
10, 8954, Control_c, 8, 1, 122
10, 8964, Control_c, 8, 1, 126
10, 8970, Control_c, 8, 1, 127
10, 9132, Control_c, 8, 1, 124
10, 9138, Control_c, 8, 1, 122
10, 9144, Control_c, 8, 1, 120
10, 9149, Control_c, 8, 1, 117
10, 9154, Control_c, 8, 1, 115
10, 9180, Control_c, 8, 1, 113
10, 9191, Control_c, 8, 1, 111
10, 9206, Control_c, 8, 1, 108
10, 9212, Control_c, 8, 1, 104
10, 9217, Control_c, 8, 1, 99
10, 9222, Control_c, 8, 1, 95
10, 9227, Control_c, 8, 1, 91
10, 9248, Control_c, 8, 1, 95
10, 9253, Control_c, 8, 1, 99
10, 9258, Control_c, 8, 1, 102
10, 9264, Control_c, 8, 1, 104
10, 9279, Control_c, 8, 1, 106
10, 9290, Control_c, 8, 1, 108
10, 9300, Control_c, 8, 1, 104
10, 9306, Control_c, 8, 1, 99
10, 9311, Control_c, 8, 1, 88
10, 9316, Control_c, 8, 1, 77
10, 9321, Control_c, 8, 1, 70
10, 9327, Control_c, 8, 1, 64
10, 9332, Control_c, 8, 1, 61
10, 9338, Control_c, 8, 1, 57
10, 9343, Control_c, 8, 1, 55
10, 9359, Control_c, 8, 1, 59
10, 9364, Control_c, 8, 1, 61
10, 9385, Control_c, 8, 1, 59
10, 9396, Control_c, 8, 1, 57
10, 9427, Control_c, 8, 1, 59
10, 9433, Control_c, 8, 1, 61
10, 9444, Control_c, 8, 1, 63
10, 9487, Control_c, 8, 1, 64
10, 9508, Control_c, 8, 1, 63
10, 9513, Control_c, 8, 1, 59
10, 9519, Control_c, 8, 1, 55
10, 9524, Control_c, 8, 1, 50
10, 9529, Control_c, 8, 1, 45
10, 9535, Control_c, 8, 1, 41
10, 9540, Control_c, 8, 1, 37
10, 9546, Control_c, 8, 1, 34
10, 9554, Control_c, 8, 1, 32
10, 9560, Control_c, 8, 1, 30
10, 9570, Control_c, 8, 1, 28
10, 9581, Control_c, 8, 1, 27
10, 9586, Control_c, 8, 1, 25
10, 9596, Control_c, 8, 1, 21
10, 9602, Control_c, 8, 1, 19
10, 9624, Control_c, 8, 1, 18
10, 9629, Control_c, 8, 1, 16
10, 9640, Control_c, 8, 1, 14
10, 9650, Control_c, 8, 1, 12
10, 9672, Control_c, 8, 1, 10
10, 9688, Control_c, 8, 1, 9
10, 9699, Control_c, 8, 1, 7
10, 9704, Control_c, 8, 1, 3
10, 9709, Control_c, 8, 1, 0
10, 9884, Note_on_c, 8, 60, 0
10, 9958, Pitch_bend_c, 8, 15552
10, 9963, Pitch_bend_c, 8, 14368
10, 9968, Pitch_bend_c, 8, 13008
10, 9974, Pitch_bend_c, 8, 11664
10, 9979, Pitch_bend_c, 8, 10368
10, 9984, Pitch_bend_c, 8, 9312
10, 9989, Pitch_bend_c, 8, 8352
10, 9995, Pitch_bend_c, 8, 8192
10, 10010, Note_on_c, 8, 67, 127
10, 10049, Pitch_bend_c, 8, 8320
10, 10054, Pitch_bend_c, 8, 9424
10, 10059, Pitch_bend_c, 8, 10448
10, 10065, Pitch_bend_c, 8, 11632
10, 10070, Pitch_bend_c, 8, 12464
10, 10076, Pitch_bend_c, 8, 13232
10, 10081, Pitch_bend_c, 8, 13984
10, 10086, Pitch_bend_c, 8, 14528
10, 10091, Pitch_bend_c, 8, 14976
10, 10097, Pitch_bend_c, 8, 15328
10, 10102, Pitch_bend_c, 8, 15552
10, 10108, Pitch_bend_c, 8, 15584
10, 10113, Pitch_bend_c, 8, 15744
10, 10118, Pitch_bend_c, 8, 15792
10, 10123, Pitch_bend_c, 8, 15872
10, 10130, Pitch_bend_c, 8, 15968
10, 10135, Pitch_bend_c, 8, 16208
10, 10142, Pitch_bend_c, 8, 16383
10, 10727, Pitch_bend_c, 8, 16240
10, 10733, Pitch_bend_c, 8, 15600
10, 10738, Pitch_bend_c, 8, 14576
10, 10743, Pitch_bend_c, 8, 13456
10, 10748, Pitch_bend_c, 8, 12464
10, 10754, Pitch_bend_c, 8, 11440
10, 10759, Pitch_bend_c, 8, 10448
10, 10764, Pitch_bend_c, 8, 9760
10, 10771, Pitch_bend_c, 8, 9280
10, 10777, Pitch_bend_c, 8, 9040
10, 10782, Pitch_bend_c, 8, 9088
10, 10786, Note_on_c, 8, 70, 127
10, 10789, Note_on_c, 8, 67, 0
10, 10795, Pitch_bend_c, 8, 9152
10, 10800, Pitch_bend_c, 8, 9376
10, 10806, Pitch_bend_c, 8, 9568
10, 10811, Pitch_bend_c, 8, 9920
10, 10816, Pitch_bend_c, 8, 10368
10, 10821, Pitch_bend_c, 8, 10752
10, 10827, Pitch_bend_c, 8, 11376
10, 10832, Pitch_bend_c, 8, 12096
10, 10838, Pitch_bend_c, 8, 12896
10, 10843, Pitch_bend_c, 8, 13728
10, 10848, Pitch_bend_c, 8, 14384
10, 10853, Pitch_bend_c, 8, 15072
10, 10859, Pitch_bend_c, 8, 15600
10, 10864, Pitch_bend_c, 8, 16128
10, 10869, Pitch_bend_c, 8, 16383
10, 11996, Control_c, 8, 1, 3
10, 12002, Control_c, 8, 1, 5
10, 12007, Control_c, 8, 1, 7
10, 12013, Control_c, 8, 1, 9
10, 12028, Control_c, 8, 1, 12
10, 12044, Control_c, 8, 1, 14
10, 12050, Control_c, 8, 1, 16
10, 12056, Control_c, 8, 1, 21
10, 12061, Control_c, 8, 1, 25
10, 12067, Control_c, 8, 1, 30
10, 12072, Control_c, 8, 1, 36
10, 12077, Control_c, 8, 1, 37
10, 12083, Control_c, 8, 1, 41
10, 12088, Control_c, 8, 1, 43
10, 12093, Control_c, 8, 1, 45
10, 12104, Control_c, 8, 1, 48
10, 12112, Control_c, 8, 1, 50
10, 12123, Control_c, 8, 1, 52
10, 12129, Control_c, 8, 1, 54
10, 12134, Control_c, 8, 1, 55
10, 12145, Control_c, 8, 1, 57
10, 12155, Control_c, 8, 1, 59
10, 12166, Control_c, 8, 1, 57
10, 12171, Control_c, 8, 1, 55
10, 12177, Control_c, 8, 1, 54
10, 12182, Control_c, 8, 1, 52
10, 12187, Control_c, 8, 1, 46
10, 12193, Control_c, 8, 1, 41
10, 12198, Control_c, 8, 1, 36
10, 12204, Control_c, 8, 1, 28
10, 12209, Control_c, 8, 1, 21
10, 12214, Control_c, 8, 1, 16
10, 12219, Control_c, 8, 1, 12
10, 12224, Control_c, 8, 1, 5
10, 12230, Control_c, 8, 1, 0
10, 12284, Pitch_bend_c, 8, 16016
10, 12290, Pitch_bend_c, 8, 15296
10, 12293, Note_on_c, 8, 70, 0
10, 12295, Pitch_bend_c, 8, 14416
10, 12300, Pitch_bend_c, 8, 13728
10, 12308, Pitch_bend_c, 8, 12736
10, 12313, Pitch_bend_c, 8, 12240
10, 12319, Pitch_bend_c, 8, 11680
10, 12323, Note_on_c, 8, 72, 127
10, 12325, Pitch_bend_c, 8, 11376
10, 12331, Pitch_bend_c, 8, 11168
10, 12336, Pitch_bend_c, 8, 11104
10, 12341, Pitch_bend_c, 8, 11056
10, 12346, Pitch_bend_c, 8, 11216
10, 12352, Pitch_bend_c, 8, 11664
10, 12357, Pitch_bend_c, 8, 12272
10, 12363, Pitch_bend_c, 8, 13120
10, 12368, Pitch_bend_c, 8, 14080
10, 12373, Pitch_bend_c, 8, 15104
10, 12378, Pitch_bend_c, 8, 16160
10, 12384, Pitch_bend_c, 8, 16383
10, 12563, Control_c, 8, 1, 5
10, 12568, Control_c, 8, 1, 12
10, 12573, Control_c, 8, 1, 19
10, 12578, Control_c, 8, 1, 23
10, 12584, Control_c, 8, 1, 27
10, 12589, Control_c, 8, 1, 30
10, 12594, Control_c, 8, 1, 36
10, 12599, Control_c, 8, 1, 39
10, 12605, Control_c, 8, 1, 43
10, 12610, Control_c, 8, 1, 48
10, 12615, Control_c, 8, 1, 52
10, 12620, Control_c, 8, 1, 54
10, 12627, Control_c, 8, 1, 57
10, 12632, Control_c, 8, 1, 63
10, 12638, Control_c, 8, 1, 70
10, 12643, Control_c, 8, 1, 75
10, 12649, Control_c, 8, 1, 79
10, 12654, Control_c, 8, 1, 82
10, 12659, Control_c, 8, 1, 84
10, 12664, Control_c, 8, 1, 88
10, 12670, Control_c, 8, 1, 91
10, 12675, Control_c, 8, 1, 95
10, 12681, Control_c, 8, 1, 99
10, 12686, Control_c, 8, 1, 102
10, 12707, Control_c, 8, 1, 106
10, 12712, Control_c, 8, 1, 109
10, 12717, Control_c, 8, 1, 111
10, 12723, Control_c, 8, 1, 113
10, 12728, Control_c, 8, 1, 115
10, 12738, Control_c, 8, 1, 117
10, 12754, Control_c, 8, 1, 120
10, 12759, Control_c, 8, 1, 122
10, 12765, Control_c, 8, 1, 124
10, 12786, Control_c, 8, 1, 127
10, 13800, Control_c, 8, 1, 118
10, 13805, Control_c, 8, 1, 104
10, 13810, Control_c, 8, 1, 91
10, 13815, Control_c, 8, 1, 75
10, 13821, Control_c, 8, 1, 55
10, 13826, Note_on_c, 8, 72, 0
10, 13826, Control_c, 8, 1, 32
10, 13831, Control_c, 8, 1, 3
10, 13837, Control_c, 8, 1, 0
10, 13865, Pitch_bend_c, 8, 16272
10, 13871, Pitch_bend_c, 8, 14912
10, 13876, Pitch_bend_c, 8, 13392
10, 13882, Pitch_bend_c, 8, 11792
10, 13887, Pitch_bend_c, 8, 9568
10, 13893, Pitch_bend_c, 8, 8192
10, 71254, Note_on_c, 8, 81, 111
10, 71638, Note_on_c, 8, 80, 111
10, 71644, Note_on_c, 8, 81, 0
10, 71721, Note_on_c, 8, 80, 0
10, 71834, Note_on_c, 8, 81, 111
10, 71922, Note_on_c, 8, 81, 0
10, 72019, Note_on_c, 8, 80, 111
10, 72104, Note_on_c, 8, 80, 0
10, 72214, Note_on_c, 8, 79, 111
10, 72249, Pitch_bend_c, 8, 8512
10, 72255, Pitch_bend_c, 8, 8928
10, 72260, Pitch_bend_c, 8, 9488
10, 72266, Pitch_bend_c, 8, 9872
10, 72272, Pitch_bend_c, 8, 10384
10, 72277, Pitch_bend_c, 8, 11024
10, 72283, Pitch_bend_c, 8, 11664
10, 72288, Pitch_bend_c, 8, 12176
10, 72294, Pitch_bend_c, 8, 12624
10, 72299, Pitch_bend_c, 8, 13040
10, 72305, Pitch_bend_c, 8, 13728
10, 72310, Pitch_bend_c, 8, 14384
10, 72316, Pitch_bend_c, 8, 14944
10, 72321, Pitch_bend_c, 8, 15520
10, 72327, Pitch_bend_c, 8, 16128
10, 72332, Pitch_bend_c, 8, 16383
10, 72484, Control_c, 8, 1, 3
10, 72489, Control_c, 8, 1, 14
10, 72494, Control_c, 8, 1, 27
10, 72500, Control_c, 8, 1, 37
10, 72505, Control_c, 8, 1, 46
10, 72511, Control_c, 8, 1, 55
10, 72516, Control_c, 8, 1, 63
10, 72522, Control_c, 8, 1, 70
10, 72527, Control_c, 8, 1, 77
10, 72535, Control_c, 8, 1, 88
10, 72541, Control_c, 8, 1, 99
10, 72546, Control_c, 8, 1, 108
10, 72551, Control_c, 8, 1, 115
10, 72556, Control_c, 8, 1, 124
10, 72562, Control_c, 8, 1, 127
10, 72837, Control_c, 8, 1, 118
10, 72842, Control_c, 8, 1, 102
10, 72848, Control_c, 8, 1, 82
10, 72853, Control_c, 8, 1, 59
10, 72859, Control_c, 8, 1, 34
10, 72864, Control_c, 8, 1, 10
10, 72869, Control_c, 8, 1, 0
10, 72902, Note_on_c, 8, 79, 0
10, 72906, Pitch_bend_c, 8, 15904
10, 72914, Pitch_bend_c, 8, 14176
10, 72920, Pitch_bend_c, 8, 12512
10, 72926, Pitch_bend_c, 8, 10976
10, 72931, Pitch_bend_c, 8, 9696
10, 72936, Pitch_bend_c, 8, 8736
10, 72942, Pitch_bend_c, 8, 8192
10, 72971, Note_on_c, 8, 81, 111
10, 73007, Pitch_bend_c, 8, 8656
10, 73012, Pitch_bend_c, 8, 9808
10, 73018, Pitch_bend_c, 8, 11136
10, 73023, Pitch_bend_c, 8, 12656
10, 73029, Pitch_bend_c, 8, 14080
10, 73034, Pitch_bend_c, 8, 15488
10, 73039, Pitch_bend_c, 8, 16383
10, 73178, Control_c, 8, 1, 3
10, 73183, Control_c, 8, 1, 14
10, 73189, Control_c, 8, 1, 27
10, 73194, Control_c, 8, 1, 41
10, 73200, Control_c, 8, 1, 59
10, 73205, Control_c, 8, 1, 73
10, 73211, Control_c, 8, 1, 84
10, 73216, Control_c, 8, 1, 97
10, 73221, Control_c, 8, 1, 108
10, 73227, Control_c, 8, 1, 118
10, 73232, Control_c, 8, 1, 127
10, 73614, Note_on_c, 8, 81, 0
10, 73631, Control_c, 8, 1, 117
10, 73637, Control_c, 8, 1, 84
10, 73643, Control_c, 8, 1, 48
10, 73648, Control_c, 8, 1, 21
10, 73653, Control_c, 8, 1, 0
10, 73669, Pitch_bend_c, 8, 16288
10, 73675, Pitch_bend_c, 8, 15056
10, 73681, Pitch_bend_c, 8, 13392
10, 73687, Pitch_bend_c, 8, 11584
10, 73694, Pitch_bend_c, 8, 10032
10, 73699, Pitch_bend_c, 8, 9088
10, 73705, Pitch_bend_c, 8, 8288
10, 73710, Pitch_bend_c, 8, 8192
10, 73740, Note_on_c, 8, 84, 111
10, 73754, Pitch_bend_c, 8, 8544
10, 73760, Pitch_bend_c, 8, 9280
10, 73765, Pitch_bend_c, 8, 9920
10, 73770, Pitch_bend_c, 8, 10784
10, 73775, Pitch_bend_c, 8, 12016
10, 73781, Pitch_bend_c, 8, 13072
10, 73786, Pitch_bend_c, 8, 13888
10, 73792, Pitch_bend_c, 8, 14672
10, 73797, Pitch_bend_c, 8, 15168
10, 73803, Pitch_bend_c, 8, 15632
10, 73808, Pitch_bend_c, 8, 16080
10, 73813, Pitch_bend_c, 8, 16383
10, 73906, Control_c, 8, 1, 7
10, 73912, Control_c, 8, 1, 14
10, 73917, Control_c, 8, 1, 21
10, 73923, Control_c, 8, 1, 27
10, 73928, Control_c, 8, 1, 32
10, 73934, Control_c, 8, 1, 37
10, 73940, Control_c, 8, 1, 46
10, 73945, Control_c, 8, 1, 57
10, 73951, Control_c, 8, 1, 66
10, 73956, Control_c, 8, 1, 75
10, 73961, Control_c, 8, 1, 84
10, 73967, Control_c, 8, 1, 91
10, 73972, Control_c, 8, 1, 99
10, 73977, Control_c, 8, 1, 106
10, 73983, Control_c, 8, 1, 113
10, 73988, Control_c, 8, 1, 120
10, 73993, Control_c, 8, 1, 127
10, 75048, Control_c, 8, 1, 124
10, 75053, Control_c, 8, 1, 113
10, 75059, Control_c, 8, 1, 104
10, 75064, Control_c, 8, 1, 99
10, 75070, Control_c, 8, 1, 95
10, 75075, Control_c, 8, 1, 88
10, 75081, Control_c, 8, 1, 81
10, 75086, Control_c, 8, 1, 70
10, 75093, Control_c, 8, 1, 61
10, 75098, Control_c, 8, 1, 55
10, 75103, Control_c, 8, 1, 46
10, 75108, Control_c, 8, 1, 37
10, 75114, Control_c, 8, 1, 25
10, 75119, Control_c, 8, 1, 7
10, 75124, Control_c, 8, 1, 0
10, 75145, Pitch_bend_c, 8, 15664
10, 75150, Pitch_bend_c, 8, 14688
10, 75156, Pitch_bend_c, 8, 13616
10, 75161, Pitch_bend_c, 8, 12512
10, 75167, Pitch_bend_c, 8, 11216
10, 75172, Pitch_bend_c, 8, 10176
10, 75178, Pitch_bend_c, 8, 9280
10, 75183, Pitch_bend_c, 8, 8432
10, 75189, Pitch_bend_c, 8, 8192
10, 75192, Note_on_c, 8, 84, 0
10, 93515, Note_on_c, 8, 52, 127
10, 93566, Note_on_c, 8, 54, 127
10, 93587, Note_on_c, 8, 52, 0
10, 93625, Note_on_c, 8, 57, 127
10, 93633, Note_on_c, 8, 54, 0
10, 93675, Note_on_c, 8, 57, 0
10, 93714, Note_on_c, 8, 57, 127
10, 93765, Pitch_bend_c, 8, 8320
10, 93770, Pitch_bend_c, 8, 9184
10, 93775, Pitch_bend_c, 8, 9952
10, 93780, Pitch_bend_c, 8, 10800
10, 93785, Pitch_bend_c, 8, 11520
10, 93790, Pitch_bend_c, 8, 12016
10, 93795, Pitch_bend_c, 8, 12544
10, 93801, Pitch_bend_c, 8, 12976
10, 93805, Pitch_bend_c, 8, 13376
10, 93810, Pitch_bend_c, 8, 13776
10, 93815, Pitch_bend_c, 8, 14528
10, 93821, Pitch_bend_c, 8, 15104
10, 93826, Pitch_bend_c, 8, 15712
10, 93831, Pitch_bend_c, 8, 16208
10, 93835, Pitch_bend_c, 8, 16383
10, 93865, Note_on_c, 8, 57, 0
10, 93877, Pitch_bend_c, 8, 16272
10, 93882, Pitch_bend_c, 8, 14992
10, 93887, Pitch_bend_c, 8, 13648
10, 93893, Pitch_bend_c, 8, 12384
10, 93898, Pitch_bend_c, 8, 11776
10, 93900, Note_on_c, 8, 57, 127
10, 93902, Pitch_bend_c, 8, 11792
10, 93909, Pitch_bend_c, 8, 12672
10, 93914, Pitch_bend_c, 8, 14224
10, 93919, Pitch_bend_c, 8, 15824
10, 93925, Pitch_bend_c, 8, 16383
10, 94277, Control_c, 8, 1, 3
10, 94282, Control_c, 8, 1, 7
10, 94287, Control_c, 8, 1, 12
10, 94293, Control_c, 8, 1, 18
10, 94299, Control_c, 8, 1, 23
10, 94304, Control_c, 8, 1, 27
10, 94309, Control_c, 8, 1, 28
10, 94319, Control_c, 8, 1, 27
10, 94324, Control_c, 8, 1, 23
10, 94329, Control_c, 8, 1, 18
10, 94334, Control_c, 8, 1, 14
10, 94339, Control_c, 8, 1, 12
10, 94344, Control_c, 8, 1, 10
10, 94354, Control_c, 8, 1, 12
10, 94359, Control_c, 8, 1, 14
10, 94364, Control_c, 8, 1, 18
10, 94369, Control_c, 8, 1, 21
10, 94374, Control_c, 8, 1, 25
10, 94379, Control_c, 8, 1, 27
10, 94383, Control_c, 8, 1, 30
10, 94389, Control_c, 8, 1, 32
10, 94394, Control_c, 8, 1, 36
10, 94399, Control_c, 8, 1, 39
10, 94404, Control_c, 8, 1, 43
10, 94414, Control_c, 8, 1, 45
10, 94418, Control_c, 8, 1, 46
10, 94429, Control_c, 8, 1, 48
10, 94434, Control_c, 8, 1, 52
10, 94439, Control_c, 8, 1, 54
10, 94444, Control_c, 8, 1, 55
10, 94450, Control_c, 8, 1, 57
10, 94464, Control_c, 8, 1, 59
10, 94475, Control_c, 8, 1, 63
10, 94480, Control_c, 8, 1, 66
10, 94485, Control_c, 8, 1, 72
10, 94490, Control_c, 8, 1, 75
10, 94495, Control_c, 8, 1, 82
10, 94500, Control_c, 8, 1, 86
10, 94505, Control_c, 8, 1, 91
10, 94510, Control_c, 8, 1, 95
10, 94516, Control_c, 8, 1, 99
10, 94521, Control_c, 8, 1, 102
10, 94526, Control_c, 8, 1, 106
10, 94531, Control_c, 8, 1, 108
10, 94536, Control_c, 8, 1, 113
10, 94541, Control_c, 8, 1, 117
10, 94547, Control_c, 8, 1, 120
10, 94552, Control_c, 8, 1, 126
10, 94556, Control_c, 8, 1, 127
10, 94727, Control_c, 8, 1, 122
10, 94732, Control_c, 8, 1, 108
10, 94737, Control_c, 8, 1, 90
10, 94742, Control_c, 8, 1, 68
10, 94747, Control_c, 8, 1, 45
10, 94752, Control_c, 8, 1, 19
10, 94758, Control_c, 8, 1, 0
10, 94807, Pitch_bend_c, 8, 15632
10, 94813, Pitch_bend_c, 8, 14608
10, 94816, Note_on_c, 8, 57, 0
10, 94818, Pitch_bend_c, 8, 13472
10, 94823, Pitch_bend_c, 8, 12672
10, 94828, Pitch_bend_c, 8, 11792
10, 94833, Pitch_bend_c, 8, 11088
10, 94838, Pitch_bend_c, 8, 10608
10, 94842, Note_on_c, 8, 52, 127
10, 94844, Pitch_bend_c, 8, 10576
10, 94850, Pitch_bend_c, 8, 10912
10, 94855, Pitch_bend_c, 8, 11600
10, 94860, Pitch_bend_c, 8, 12656
10, 94867, Pitch_bend_c, 8, 14560
10, 94872, Pitch_bend_c, 8, 15632
10, 94878, Pitch_bend_c, 8, 16383
10, 94981, Note_on_c, 8, 52, 0
10, 95009, Pitch_bend_c, 8, 15936
10, 95014, Pitch_bend_c, 8, 14640
10, 95020, Pitch_bend_c, 8, 13088
10, 95025, Pitch_bend_c, 8, 11488
10, 95030, Pitch_bend_c, 8, 9680
10, 95035, Pitch_bend_c, 8, 8192
10, 95039, Note_on_c, 8, 52, 127
10, 95211, Control_c, 8, 1, 1
10, 95216, Control_c, 8, 1, 19
10, 95221, Control_c, 8, 1, 34
10, 95226, Control_c, 8, 1, 45
10, 95231, Control_c, 8, 1, 52
10, 95236, Control_c, 8, 1, 55
10, 95245, Control_c, 8, 1, 48
10, 95251, Control_c, 8, 1, 41
10, 95256, Control_c, 8, 1, 43
10, 95261, Control_c, 8, 1, 48
10, 95267, Control_c, 8, 1, 55
10, 95272, Control_c, 8, 1, 61
10, 95277, Control_c, 8, 1, 66
10, 95282, Control_c, 8, 1, 72
10, 95287, Control_c, 8, 1, 81
10, 95292, Control_c, 8, 1, 90
10, 95297, Control_c, 8, 1, 97
10, 95302, Control_c, 8, 1, 104
10, 95307, Control_c, 8, 1, 109
10, 95312, Control_c, 8, 1, 113
10, 95318, Control_c, 8, 1, 117
10, 95323, Control_c, 8, 1, 118
10, 95328, Control_c, 8, 1, 120
10, 95333, Control_c, 8, 1, 124
10, 95338, Control_c, 8, 1, 127
10, 95625, Control_c, 8, 1, 115
10, 95631, Control_c, 8, 1, 95
10, 95637, Control_c, 8, 1, 73
10, 95642, Control_c, 8, 1, 54
10, 95647, Control_c, 8, 1, 43
10, 95652, Control_c, 8, 1, 30
10, 95657, Control_c, 8, 1, 14
10, 95662, Control_c, 8, 1, 0
10, 95964, Note_on_c, 8, 52, 0
10, 96022, Note_on_c, 8, 52, 127
10, 96151, Pitch_bend_c, 8, 7904
10, 96156, Pitch_bend_c, 8, 7408
10, 96161, Pitch_bend_c, 8, 6896
10, 96165, Note_on_c, 8, 52, 0
10, 96166, Pitch_bend_c, 8, 6560
10, 96171, Pitch_bend_c, 8, 6240
10, 96176, Pitch_bend_c, 8, 6048
10, 96181, Pitch_bend_c, 8, 5808
10, 96186, Pitch_bend_c, 8, 5616
10, 96191, Pitch_bend_c, 8, 5552
10, 96196, Pitch_bend_c, 8, 5472
10, 96200, Pitch_bend_c, 8, 5440
10, 96205, Pitch_bend_c, 8, 5360
10, 96227, Pitch_bend_c, 8, 5392
10, 96231, Pitch_bend_c, 8, 5360
10, 96241, Pitch_bend_c, 8, 5392
10, 96246, Pitch_bend_c, 8, 5536
10, 96252, Pitch_bend_c, 8, 5696
10, 96257, Pitch_bend_c, 8, 6048
10, 96262, Pitch_bend_c, 8, 6352
10, 96267, Pitch_bend_c, 8, 6784
10, 96272, Pitch_bend_c, 8, 7296
10, 96277, Pitch_bend_c, 8, 7904
10, 96282, Pitch_bend_c, 8, 8192
10, 96606, Note_on_c, 8, 52, 127
10, 96648, Note_on_c, 8, 54, 122
10, 96677, Note_on_c, 8, 52, 0
10, 96717, Note_on_c, 8, 57, 127
10, 96729, Note_on_c, 8, 54, 0
10, 96766, Note_on_c, 8, 57, 0
10, 96798, Note_on_c, 8, 57, 127
10, 96832, Pitch_bend_c, 8, 8976
10, 96838, Pitch_bend_c, 8, 9728
10, 96843, Pitch_bend_c, 8, 10416
10, 96848, Pitch_bend_c, 8, 11248
10, 96853, Pitch_bend_c, 8, 11776
10, 96858, Pitch_bend_c, 8, 12240
10, 96863, Pitch_bend_c, 8, 12704
10, 96869, Pitch_bend_c, 8, 13312
10, 96874, Pitch_bend_c, 8, 14256
10, 96880, Pitch_bend_c, 8, 15136
10, 96884, Pitch_bend_c, 8, 15712
10, 96889, Pitch_bend_c, 8, 16128
10, 96894, Pitch_bend_c, 8, 16352
10, 96900, Pitch_bend_c, 8, 16383
10, 96910, Pitch_bend_c, 8, 16320
10, 96915, Pitch_bend_c, 8, 15776
10, 96920, Pitch_bend_c, 8, 14944
10, 96924, Note_on_c, 8, 57, 0
10, 96925, Pitch_bend_c, 8, 13872
10, 96931, Pitch_bend_c, 8, 12672
10, 96936, Pitch_bend_c, 8, 11408
10, 96941, Pitch_bend_c, 8, 9840
10, 96946, Pitch_bend_c, 8, 8736
10, 96951, Pitch_bend_c, 8, 8192
10, 96963, Note_on_c, 8, 57, 127
10, 96971, Pitch_bend_c, 8, 8272
10, 96979, Pitch_bend_c, 8, 9072
10, 96984, Pitch_bend_c, 8, 9728
10, 96989, Pitch_bend_c, 8, 10384
10, 96994, Pitch_bend_c, 8, 11184
10, 96999, Pitch_bend_c, 8, 11744
10, 97005, Pitch_bend_c, 8, 12480
10, 97010, Pitch_bend_c, 8, 13232
10, 97015, Pitch_bend_c, 8, 13984
10, 97020, Pitch_bend_c, 8, 14576
10, 97025, Pitch_bend_c, 8, 15136
10, 97030, Pitch_bend_c, 8, 15584
10, 97035, Pitch_bend_c, 8, 15664
10, 97041, Pitch_bend_c, 8, 15792
10, 97046, Pitch_bend_c, 8, 15872
10, 97051, Pitch_bend_c, 8, 15936
10, 97061, Pitch_bend_c, 8, 15968
10, 97067, Pitch_bend_c, 8, 16080
10, 97072, Pitch_bend_c, 8, 16240
10, 97077, Pitch_bend_c, 8, 16288
10, 97082, Pitch_bend_c, 8, 16383
10, 97092, Pitch_bend_c, 8, 16288
10, 97103, Pitch_bend_c, 8, 15984
10, 97108, Pitch_bend_c, 8, 15664
10, 97113, Pitch_bend_c, 8, 15280
10, 97114, Note_on_c, 8, 57, 0
10, 97119, Pitch_bend_c, 8, 14576
10, 97123, Pitch_bend_c, 8, 14064
10, 97128, Pitch_bend_c, 8, 13280
10, 97133, Pitch_bend_c, 8, 12672
10, 97139, Pitch_bend_c, 8, 12240
10, 97142, Note_on_c, 8, 57, 126
10, 97144, Pitch_bend_c, 8, 12160
10, 97149, Pitch_bend_c, 8, 12128
10, 97154, Pitch_bend_c, 8, 12704
10, 97159, Pitch_bend_c, 8, 13760
10, 97164, Pitch_bend_c, 8, 14832
10, 97173, Pitch_bend_c, 8, 16383
10, 97327, Control_c, 8, 1, 14
10, 97332, Control_c, 8, 1, 37
10, 97337, Control_c, 8, 1, 61
10, 97342, Control_c, 8, 1, 77
10, 97347, Control_c, 8, 1, 90
10, 97352, Control_c, 8, 1, 99
10, 97357, Control_c, 8, 1, 109
10, 97363, Control_c, 8, 1, 126
10, 97368, Control_c, 8, 1, 127
10, 97444, Control_c, 8, 1, 113
10, 97449, Control_c, 8, 1, 84
10, 97454, Control_c, 8, 1, 57
10, 97459, Control_c, 8, 1, 30
10, 97463, Control_c, 8, 1, 5
10, 97468, Control_c, 8, 1, 0
10, 97497, Note_on_c, 8, 57, 0
10, 97504, Pitch_bend_c, 8, 16128
10, 97509, Pitch_bend_c, 8, 14912
10, 97514, Pitch_bend_c, 8, 13280
10, 97519, Pitch_bend_c, 8, 11712
10, 97524, Pitch_bend_c, 8, 10336
10, 97529, Pitch_bend_c, 8, 9280
10, 97534, Pitch_bend_c, 8, 8352
10, 97539, Pitch_bend_c, 8, 8192
10, 97541, Note_on_c, 8, 57, 127
10, 97549, Pitch_bend_c, 8, 8240
10, 97555, Pitch_bend_c, 8, 9120
10, 97560, Pitch_bend_c, 8, 10256
10, 97565, Pitch_bend_c, 8, 11712
10, 97570, Pitch_bend_c, 8, 13088
10, 97576, Pitch_bend_c, 8, 14992
10, 97581, Pitch_bend_c, 8, 16352
10, 97586, Pitch_bend_c, 8, 16383
10, 97672, Note_on_c, 8, 60, 127
10, 97675, Note_on_c, 8, 57, 0
10, 97734, Note_on_c, 8, 60, 0
10, 97741, Note_on_c, 8, 57, 127
10, 97770, Pitch_bend_c, 8, 16240
10, 97775, Pitch_bend_c, 8, 15360
10, 97781, Pitch_bend_c, 8, 14720
10, 97786, Pitch_bend_c, 8, 14384
10, 97791, Pitch_bend_c, 8, 14336
10, 97796, Pitch_bend_c, 8, 14256
10, 97802, Pitch_bend_c, 8, 14336
10, 97806, Pitch_bend_c, 8, 14384
10, 97812, Pitch_bend_c, 8, 14448
10, 97817, Pitch_bend_c, 8, 14880
10, 97822, Pitch_bend_c, 8, 15584
10, 97827, Pitch_bend_c, 8, 16383
10, 97934, Control_c, 8, 1, 12
10, 97939, Control_c, 8, 1, 32
10, 97947, Control_c, 8, 1, 63
10, 97952, Control_c, 8, 1, 93
10, 97957, Control_c, 8, 1, 117
10, 97962, Control_c, 8, 1, 127
10, 98136, Control_c, 8, 1, 117
10, 98141, Control_c, 8, 1, 79
10, 98147, Control_c, 8, 1, 43
10, 98151, Control_c, 8, 1, 9
10, 98157, Control_c, 8, 1, 0
10, 98255, Pitch_bend_c, 8, 15856
10, 98261, Pitch_bend_c, 8, 15376
10, 98266, Pitch_bend_c, 8, 14576
10, 98268, Note_on_c, 8, 57, 0
10, 98271, Pitch_bend_c, 8, 13696
10, 98276, Pitch_bend_c, 8, 12480
10, 98281, Pitch_bend_c, 8, 11216
10, 98286, Pitch_bend_c, 8, 9952
10, 98291, Pitch_bend_c, 8, 8768
10, 98296, Pitch_bend_c, 8, 8192
10, 98318, Note_on_c, 8, 66, 127
10, 98318, Note_on_c, 8, 62, 127
10, 98415, Note_on_c, 8, 62, 0
10, 98415, Note_on_c, 8, 66, 0
10, 98443, Note_on_c, 8, 66, 127
10, 98445, Note_on_c, 8, 62, 127
10, 98506, Note_on_c, 8, 59, 120
10, 98516, Note_on_c, 8, 66, 0
10, 98522, Note_on_c, 8, 62, 0
10, 98626, Note_on_c, 8, 57, 108
10, 98627, Note_on_c, 8, 59, 0
10, 98691, Note_on_c, 8, 59, 127
10, 98714, Note_on_c, 8, 57, 0
10, 98822, Note_on_c, 8, 59, 0
10, 98873, Note_on_c, 8, 59, 127
10, 98992, Note_on_c, 8, 57, 123
10, 99009, Note_on_c, 8, 59, 0
10, 99037, Note_on_c, 8, 57, 0
10, 99070, Note_on_c, 8, 57, 127
10, 99083, Pitch_bend_c, 8, 9184
10, 99093, Pitch_bend_c, 8, 11600
10, 99098, Pitch_bend_c, 8, 12784
10, 99103, Pitch_bend_c, 8, 14000
10, 99108, Pitch_bend_c, 8, 14944
10, 99113, Pitch_bend_c, 8, 15984
10, 99118, Pitch_bend_c, 8, 16383
10, 99180, Note_on_c, 8, 57, 0
10, 99193, Pitch_bend_c, 8, 15664
10, 99198, Pitch_bend_c, 8, 14416
10, 99203, Pitch_bend_c, 8, 12976
10, 99208, Pitch_bend_c, 8, 11744
10, 99213, Pitch_bend_c, 8, 10640
10, 99218, Note_on_c, 8, 57, 127
10, 99218, Pitch_bend_c, 8, 10144
10, 99224, Pitch_bend_c, 8, 9984
10, 99229, Pitch_bend_c, 8, 10000
10, 99234, Pitch_bend_c, 8, 10480
10, 99239, Pitch_bend_c, 8, 11408
10, 99244, Pitch_bend_c, 8, 12272
10, 99249, Pitch_bend_c, 8, 13200
10, 99254, Pitch_bend_c, 8, 14336
10, 99259, Pitch_bend_c, 8, 15136
10, 99265, Pitch_bend_c, 8, 16160
10, 99270, Pitch_bend_c, 8, 16383
10, 99374, Control_c, 8, 1, 3
10, 99379, Control_c, 8, 1, 30
10, 99384, Control_c, 8, 1, 61
10, 99389, Control_c, 8, 1, 91
10, 99394, Control_c, 8, 1, 122
10, 99399, Control_c, 8, 1, 127
10, 99604, Control_c, 8, 1, 63
10, 99609, Control_c, 8, 1, 0
10, 99623, Pitch_bend_c, 8, 15984
10, 99626, Note_on_c, 8, 57, 0
10, 99628, Pitch_bend_c, 8, 14496
10, 99634, Pitch_bend_c, 8, 12432
10, 99639, Pitch_bend_c, 8, 10496
10, 99644, Pitch_bend_c, 8, 8736
10, 99649, Pitch_bend_c, 8, 8192
10, 99856, Note_on_c, 8, 64, 127
10, 99909, Pitch_bend_c, 8, 8432
10, 99915, Pitch_bend_c, 8, 8736
10, 99920, Pitch_bend_c, 8, 9040
10, 99925, Pitch_bend_c, 8, 9344
10, 99930, Pitch_bend_c, 8, 9584
10, 99935, Pitch_bend_c, 8, 9888
10, 99940, Pitch_bend_c, 8, 10256
10, 99945, Pitch_bend_c, 8, 10640
10, 99950, Pitch_bend_c, 8, 10864
10, 99956, Pitch_bend_c, 8, 11136
10, 99960, Pitch_bend_c, 8, 11376
10, 99966, Pitch_bend_c, 8, 11712
10, 99971, Pitch_bend_c, 8, 12096
10, 99976, Pitch_bend_c, 8, 12384
10, 99981, Pitch_bend_c, 8, 12928
10, 99986, Pitch_bend_c, 8, 13184
10, 99992, Pitch_bend_c, 8, 13536
10, 99997, Pitch_bend_c, 8, 13872
10, 100002, Pitch_bend_c, 8, 14192
10, 100007, Pitch_bend_c, 8, 14480
10, 100012, Pitch_bend_c, 8, 14800
10, 100017, Pitch_bend_c, 8, 14992
10, 100022, Pitch_bend_c, 8, 15296
10, 100027, Pitch_bend_c, 8, 15552
10, 100032, Pitch_bend_c, 8, 15712
10, 100038, Pitch_bend_c, 8, 15968
10, 100043, Pitch_bend_c, 8, 16272
10, 100048, Pitch_bend_c, 8, 16383
10, 100178, Control_c, 8, 1, 1
10, 100184, Control_c, 8, 1, 14
10, 100189, Control_c, 8, 1, 23
10, 100194, Control_c, 8, 1, 28
10, 100199, Control_c, 8, 1, 32
10, 100204, Control_c, 8, 1, 36
10, 100210, Control_c, 8, 1, 41
10, 100214, Control_c, 8, 1, 50
10, 100220, Control_c, 8, 1, 64
10, 100225, Control_c, 8, 1, 86
10, 100231, Control_c, 8, 1, 111
10, 100235, Control_c, 8, 1, 127
10, 100329, Control_c, 8, 1, 111
10, 100334, Control_c, 8, 1, 45
10, 100339, Control_c, 8, 1, 0
10, 100359, Pitch_bend_c, 8, 15136
10, 100365, Pitch_bend_c, 8, 13376
10, 100367, Note_on_c, 8, 64, 0
10, 100369, Pitch_bend_c, 8, 11680
10, 100374, Pitch_bend_c, 8, 9984
10, 100380, Pitch_bend_c, 8, 8400
10, 100385, Pitch_bend_c, 8, 8192
10, 100428, Note_on_c, 8, 64, 127
10, 100437, Pitch_bend_c, 8, 10384
10, 100442, Pitch_bend_c, 8, 12544
10, 100447, Pitch_bend_c, 8, 15072
10, 100452, Pitch_bend_c, 8, 16383
10, 100533, Note_on_c, 8, 64, 0
10, 100553, Pitch_bend_c, 8, 15408
10, 100558, Pitch_bend_c, 8, 12880
10, 100563, Pitch_bend_c, 8, 10032
10, 100565, Note_on_c, 8, 64, 127
10, 100569, Pitch_bend_c, 8, 8192
10, 100703, Control_c, 8, 1, 28
10, 100708, Control_c, 8, 1, 50
10, 100712, Control_c, 8, 1, 63
10, 100717, Control_c, 8, 1, 73
10, 100722, Control_c, 8, 1, 86
10, 100727, Control_c, 8, 1, 102
10, 100733, Control_c, 8, 1, 127
10, 101062, Control_c, 8, 1, 104
10, 101067, Control_c, 8, 1, 52
10, 101072, Control_c, 8, 1, 7
10, 101077, Note_on_c, 8, 64, 0
10, 101077, Control_c, 8, 1, 0
10, 101398, Note_on_c, 8, 64, 127
10, 101427, Pitch_bend_c, 8, 8272
10, 101432, Pitch_bend_c, 8, 8656
10, 101437, Pitch_bend_c, 8, 9264
10, 101442, Pitch_bend_c, 8, 9808
10, 101447, Pitch_bend_c, 8, 10384
10, 101453, Pitch_bend_c, 8, 10976
10, 101458, Pitch_bend_c, 8, 11520
10, 101463, Pitch_bend_c, 8, 12016
10, 101467, Pitch_bend_c, 8, 12384
10, 101472, Pitch_bend_c, 8, 12880
10, 101477, Pitch_bend_c, 8, 13280
10, 101483, Pitch_bend_c, 8, 13696
10, 101488, Pitch_bend_c, 8, 14256
10, 101493, Pitch_bend_c, 8, 15024
10, 101498, Pitch_bend_c, 8, 15712
10, 101503, Pitch_bend_c, 8, 16383
10, 101654, Control_c, 8, 1, 9
10, 101659, Control_c, 8, 1, 19
10, 101664, Control_c, 8, 1, 36
10, 101669, Control_c, 8, 1, 59
10, 101674, Control_c, 8, 1, 91
10, 101679, Control_c, 8, 1, 127
10, 101888, Note_on_c, 8, 64, 0
10, 101898, Control_c, 8, 1, 93
10, 101904, Control_c, 8, 1, 30
10, 101909, Control_c, 8, 1, 0
10, 101928, Pitch_bend_c, 8, 16208
10, 101933, Pitch_bend_c, 8, 15280
10, 101939, Pitch_bend_c, 8, 14064
10, 101944, Pitch_bend_c, 8, 12736
10, 101949, Pitch_bend_c, 8, 11472
10, 101953, Pitch_bend_c, 8, 10304
10, 101959, Pitch_bend_c, 8, 9344
10, 101963, Pitch_bend_c, 8, 8400
10, 101973, Pitch_bend_c, 8, 8192
10, 102137, Note_on_c, 8, 76, 127
10, 102153, Pitch_bend_c, 8, 8464
10, 102158, Pitch_bend_c, 8, 9152
10, 102165, Pitch_bend_c, 8, 10144
10, 102170, Pitch_bend_c, 8, 11024
10, 102175, Pitch_bend_c, 8, 11968
10, 102180, Pitch_bend_c, 8, 12880
10, 102184, Pitch_bend_c, 8, 13760
10, 102190, Pitch_bend_c, 8, 15024
10, 102195, Pitch_bend_c, 8, 15872
10, 102200, Pitch_bend_c, 8, 16383
10, 102240, Control_c, 8, 1, 12
10, 102245, Control_c, 8, 1, 30
10, 102250, Control_c, 8, 1, 48
10, 102255, Control_c, 8, 1, 63
10, 102260, Control_c, 8, 1, 75
10, 102265, Control_c, 8, 1, 86
10, 102270, Control_c, 8, 1, 95
10, 102275, Control_c, 8, 1, 106
10, 102280, Control_c, 8, 1, 122
10, 102285, Control_c, 8, 1, 127
10, 102547, Control_c, 8, 1, 55
10, 102549, Note_on_c, 8, 76, 0
10, 102552, Control_c, 8, 1, 0
10, 102582, Pitch_bend_c, 8, 15968
10, 102587, Pitch_bend_c, 8, 15024
10, 102592, Pitch_bend_c, 8, 13920
10, 102597, Pitch_bend_c, 8, 12784
10, 102602, Pitch_bend_c, 8, 11216
10, 102607, Pitch_bend_c, 8, 9952
10, 102613, Pitch_bend_c, 8, 8704
10, 102618, Pitch_bend_c, 8, 8192
10, 102734, Note_on_c, 8, 66, 127
10, 102858, Note_on_c, 8, 69, 127
10, 102868, Note_on_c, 8, 66, 0
10, 102928, Note_on_c, 8, 69, 0
10, 102928, Pitch_bend_c, 8, 8736
10, 102928, Pitch_bend_c, 8, 10064
10, 102928, Pitch_bend_c, 8, 11328
10, 102928, Note_on_c, 8, 69, 127
10, 102936, Pitch_bend_c, 8, 15488
10, 102941, Pitch_bend_c, 8, 15968
10, 102947, Pitch_bend_c, 8, 16240
10, 102952, Pitch_bend_c, 8, 16383
10, 103036, Pitch_bend_c, 8, 16128
10, 103041, Pitch_bend_c, 8, 14576
10, 103046, Note_on_c, 8, 69, 0
10, 103046, Pitch_bend_c, 8, 12656
10, 103051, Pitch_bend_c, 8, 10576
10, 103056, Pitch_bend_c, 8, 8736
10, 103063, Pitch_bend_c, 8, 8192
10, 103077, Note_on_c, 8, 69, 127
10, 103095, Pitch_bend_c, 8, 8208
10, 103100, Pitch_bend_c, 8, 9568
10, 103105, Pitch_bend_c, 8, 10448
10, 103110, Pitch_bend_c, 8, 11408
10, 103115, Pitch_bend_c, 8, 12176
10, 103125, Pitch_bend_c, 8, 13344
10, 103129, Pitch_bend_c, 8, 13728
10, 103135, Pitch_bend_c, 8, 14080
10, 103140, Pitch_bend_c, 8, 14384
10, 103145, Pitch_bend_c, 8, 14880
10, 103150, Pitch_bend_c, 8, 15376
10, 103155, Pitch_bend_c, 8, 16048
10, 103160, Pitch_bend_c, 8, 16383
10, 103271, Control_c, 8, 1, 3
10, 103276, Control_c, 8, 1, 9
10, 103281, Control_c, 8, 1, 12
10, 103287, Control_c, 8, 1, 14
10, 103292, Control_c, 8, 1, 18
10, 103297, Control_c, 8, 1, 28
10, 103302, Control_c, 8, 1, 45
10, 103307, Control_c, 8, 1, 59
10, 103312, Control_c, 8, 1, 72
10, 103317, Control_c, 8, 1, 86
10, 103322, Control_c, 8, 1, 104
10, 103327, Control_c, 8, 1, 124
10, 103332, Control_c, 8, 1, 127
10, 103648, Control_c, 8, 1, 93
10, 103653, Control_c, 8, 1, 34
10, 103659, Control_c, 8, 1, 0
10, 103670, Note_on_c, 8, 69, 0
10, 103684, Pitch_bend_c, 8, 15792
10, 103689, Pitch_bend_c, 8, 14576
10, 103701, Pitch_bend_c, 8, 10496
10, 103706, Pitch_bend_c, 8, 8624
10, 103711, Pitch_bend_c, 8, 8192
10, 103818, Note_on_c, 8, 76, 127
10, 103901, Note_on_c, 8, 76, 0
10, 103955, Note_on_c, 8, 74, 127
10, 104013, Note_on_c, 8, 74, 0
10, 104082, Note_on_c, 8, 76, 127
10, 104176, Note_on_c, 8, 76, 0
10, 104215, Note_on_c, 8, 74, 127
10, 104286, Note_on_c, 8, 74, 0
10, 104330, Note_on_c, 8, 76, 127
10, 104410, Note_on_c, 8, 76, 0
10, 104461, Note_on_c, 8, 76, 127
10, 104475, Pitch_bend_c, 8, 12128
10, 104480, Pitch_bend_c, 8, 13536
10, 104485, Pitch_bend_c, 8, 14880
10, 104491, Pitch_bend_c, 8, 16096
10, 104496, Pitch_bend_c, 8, 16383
10, 104606, Pitch_bend_c, 8, 13920
10, 104611, Pitch_bend_c, 8, 10528
10, 104616, Pitch_bend_c, 8, 8192
10, 104643, Note_on_c, 8, 76, 0
10, 104644, Note_on_c, 8, 74, 127
10, 104688, Note_on_c, 8, 74, 0
10, 104690, Note_on_c, 8, 71, 127
10, 104932, Control_c, 8, 1, 34
10, 104937, Control_c, 8, 1, 66
10, 104942, Control_c, 8, 1, 93
10, 104947, Control_c, 8, 1, 120
10, 104952, Control_c, 8, 1, 127
10, 105101, Note_on_c, 8, 71, 0
10, 105104, Control_c, 8, 1, 115
10, 105109, Control_c, 8, 1, 43
10, 105114, Control_c, 8, 1, 0
10, 105343, Note_on_c, 8, 72, 127
10, 105360, Pitch_bend_c, 8, 8576
10, 105368, Pitch_bend_c, 8, 9776
10, 105373, Pitch_bend_c, 8, 10688
10, 105378, Pitch_bend_c, 8, 11664
10, 105383, Pitch_bend_c, 8, 12320
10, 105388, Pitch_bend_c, 8, 13072
10, 105393, Pitch_bend_c, 8, 13536
10, 105399, Pitch_bend_c, 8, 14032
10, 105404, Pitch_bend_c, 8, 14368
10, 105409, Pitch_bend_c, 8, 14912
10, 105414, Pitch_bend_c, 8, 15216
10, 105419, Pitch_bend_c, 8, 15664
10, 105424, Pitch_bend_c, 8, 16048
10, 105434, Pitch_bend_c, 8, 16383
10, 105493, Control_c, 8, 1, 3
10, 105498, Control_c, 8, 1, 16
10, 105503, Control_c, 8, 1, 32
10, 105508, Control_c, 8, 1, 54
10, 105513, Control_c, 8, 1, 75
10, 105518, Control_c, 8, 1, 93
10, 105523, Control_c, 8, 1, 109
10, 105528, Control_c, 8, 1, 124
10, 105533, Control_c, 8, 1, 127
10, 105966, Control_c, 8, 1, 124
10, 105971, Control_c, 8, 1, 86
10, 105972, Note_on_c, 8, 72, 0
10, 105976, Control_c, 8, 1, 54
10, 105981, Control_c, 8, 1, 23
10, 105986, Control_c, 8, 1, 0
10, 106021, Pitch_bend_c, 8, 16096
10, 106027, Pitch_bend_c, 8, 14688
10, 106032, Pitch_bend_c, 8, 12960
10, 106036, Pitch_bend_c, 8, 11168
10, 106041, Pitch_bend_c, 8, 8240
10, 106047, Pitch_bend_c, 8, 8192
10, 106047, End_track
11, 0, Start_track
11, 0, MIDI_port, 0
11, 0, Title_t, "GS/GM               "
11, 192, Control_c, 0, 121, 0
11, 228, Control_c, 0, 0, 0
11, 228, Control_c, 0, 32, 0
11, 228, Program_c, 0, 5
11, 230, Control_c, 0, 7, 127
11, 232, Control_c, 0, 10, 88
11, 234, Control_c, 0, 11, 127
11, 236, Control_c, 0, 91, 70
11, 238, Control_c, 0, 93, 127
11, 574, Control_c, 0, 101, 0
11, 576, Control_c, 0, 100, 0
11, 578, Control_c, 0, 6, 2
11, 580, Control_c, 0, 101, 0
11, 582, Control_c, 0, 100, 2
11, 584, Control_c, 0, 6, 64
11, 586, Control_c, 0, 101, 127
11, 588, Control_c, 0, 100, 127
11, 588, End_track
12, 0, Start_track
12, 0, MIDI_port, 0
12, 0, Title_t, "GS/GM             2 "
12, 194, Control_c, 1, 121, 0
12, 244, Control_c, 1, 0, 0
12, 244, Control_c, 1, 32, 0
12, 244, Program_c, 1, 35
12, 246, Control_c, 1, 7, 100
12, 248, Control_c, 1, 10, 61
12, 250, Control_c, 1, 11, 127
12, 252, Control_c, 1, 91, 15
12, 254, Control_c, 1, 93, 82
12, 590, Control_c, 1, 101, 0
12, 592, Control_c, 1, 100, 0
12, 594, Control_c, 1, 6, 2
12, 596, Control_c, 1, 101, 0
12, 598, Control_c, 1, 100, 2
12, 600, Control_c, 1, 6, 64
12, 602, Control_c, 1, 101, 127
12, 604, Control_c, 1, 100, 127
12, 604, End_track
13, 0, Start_track
13, 0, MIDI_port, 0
13, 0, Title_t, "GS/GM             3 "
13, 196, Control_c, 2, 121, 0
13, 260, Control_c, 2, 0, 0
13, 260, Control_c, 2, 32, 0
13, 260, Program_c, 2, 29
13, 262, Control_c, 2, 7, 95
13, 264, Control_c, 2, 10, 28
13, 266, Control_c, 2, 11, 127
13, 268, Control_c, 2, 91, 127
13, 270, Control_c, 2, 93, 127
13, 606, Control_c, 2, 101, 0
13, 608, Control_c, 2, 100, 0
13, 610, Control_c, 2, 6, 2
13, 612, Control_c, 2, 101, 0
13, 614, Control_c, 2, 100, 2
13, 616, Control_c, 2, 6, 64
13, 618, Control_c, 2, 101, 127
13, 620, Control_c, 2, 100, 127
13, 620, End_track
14, 0, Start_track
14, 0, MIDI_port, 0
14, 0, Title_t, "GS/GM             4 "
14, 198, Control_c, 3, 121, 0
14, 276, Control_c, 3, 0, 0
14, 276, Control_c, 3, 32, 0
14, 276, Program_c, 3, 65
14, 278, Control_c, 3, 7, 110
14, 280, Control_c, 3, 10, 72
14, 282, Control_c, 3, 11, 127
14, 284, Control_c, 3, 91, 127
14, 286, Control_c, 3, 93, 0
14, 622, Control_c, 3, 101, 0
14, 624, Control_c, 3, 100, 0
14, 626, Control_c, 3, 6, 2
14, 628, Control_c, 3, 101, 0
14, 630, Control_c, 3, 100, 2
14, 632, Control_c, 3, 6, 64
14, 634, Control_c, 3, 101, 127
14, 636, Control_c, 3, 100, 127
14, 636, End_track
15, 0, Start_track
15, 0, MIDI_port, 0
15, 0, Title_t, "GS/GM             5 "
15, 200, Control_c, 4, 121, 0
15, 292, Control_c, 4, 0, 0
15, 292, Control_c, 4, 32, 0
15, 292, Program_c, 4, 48
15, 294, Control_c, 4, 7, 110
15, 296, Control_c, 4, 10, 32
15, 298, Control_c, 4, 11, 127
15, 300, Control_c, 4, 91, 99
15, 302, Control_c, 4, 93, 84
15, 638, Control_c, 4, 101, 0
15, 640, Control_c, 4, 100, 0
15, 642, Control_c, 4, 6, 2
15, 644, Control_c, 4, 101, 0
15, 646, Control_c, 4, 100, 2
15, 648, Control_c, 4, 6, 64
15, 650, Control_c, 4, 101, 127
15, 652, Control_c, 4, 100, 127
15, 652, End_track
16, 0, Start_track
16, 0, MIDI_port, 0
16, 0, Title_t, "GS/GM             6 "
16, 202, Control_c, 5, 121, 0
16, 308, Control_c, 5, 0, 0
16, 308, Control_c, 5, 32, 0
16, 308, Program_c, 5, 61
16, 310, Control_c, 5, 7, 127
16, 312, Control_c, 5, 10, 106
16, 314, Control_c, 5, 11, 127
16, 316, Control_c, 5, 91, 99
16, 318, Control_c, 5, 93, 60
16, 654, Control_c, 5, 101, 0
16, 656, Control_c, 5, 100, 0
16, 658, Control_c, 5, 6, 2
16, 660, Control_c, 5, 101, 0
16, 662, Control_c, 5, 100, 2
16, 664, Control_c, 5, 6, 64
16, 666, Control_c, 5, 101, 127
16, 668, Control_c, 5, 100, 127
16, 668, End_track
17, 0, Start_track
17, 0, MIDI_port, 0
17, 0, Title_t, "GS/GM             7 "
17, 204, Control_c, 6, 121, 0
17, 324, Control_c, 6, 0, 0
17, 324, Control_c, 6, 32, 0
17, 324, Program_c, 6, 27
17, 326, Control_c, 6, 7, 110
17, 328, Control_c, 6, 10, 86
17, 330, Control_c, 6, 11, 127
17, 332, Control_c, 6, 91, 127
17, 334, Control_c, 6, 93, 127
17, 670, Control_c, 6, 101, 0
17, 672, Control_c, 6, 100, 0
17, 674, Control_c, 6, 6, 2
17, 676, Control_c, 6, 101, 0
17, 678, Control_c, 6, 100, 2
17, 680, Control_c, 6, 6, 64
17, 682, Control_c, 6, 101, 127
17, 684, Control_c, 6, 100, 127
17, 684, End_track
18, 0, Start_track
18, 0, MIDI_port, 0
18, 0, Title_t, "GS/GM             8 "
18, 206, Control_c, 7, 121, 0
18, 340, Control_c, 7, 0, 0
18, 340, Control_c, 7, 32, 0
18, 340, Program_c, 7, 30
18, 342, Control_c, 7, 7, 75
18, 344, Control_c, 7, 10, 108
18, 346, Control_c, 7, 11, 127
18, 348, Control_c, 7, 91, 127
18, 350, Control_c, 7, 93, 127
18, 686, Control_c, 7, 101, 0
18, 688, Control_c, 7, 100, 0
18, 690, Control_c, 7, 6, 2
18, 692, Control_c, 7, 101, 0
18, 694, Control_c, 7, 100, 2
18, 696, Control_c, 7, 6, 64
18, 698, Control_c, 7, 101, 127
18, 700, Control_c, 7, 100, 127
18, 700, End_track
19, 0, Start_track
19, 0, MIDI_port, 0
19, 0, Title_t, "GS/GM             9 "
19, 208, Control_c, 8, 121, 0
19, 356, Control_c, 8, 0, 0
19, 356, Control_c, 8, 32, 0
19, 356, Program_c, 8, 30
19, 358, Control_c, 8, 7, 73
19, 360, Control_c, 8, 10, 8
19, 362, Control_c, 8, 11, 127
19, 364, Control_c, 8, 91, 127
19, 366, Control_c, 8, 93, 127
19, 702, Control_c, 8, 101, 0
19, 704, Control_c, 8, 100, 0
19, 706, Control_c, 8, 6, 2
19, 708, Control_c, 8, 101, 0
19, 710, Control_c, 8, 100, 2
19, 712, Control_c, 8, 6, 64
19, 714, Control_c, 8, 101, 127
19, 716, Control_c, 8, 100, 127
19, 716, End_track
20, 0, Start_track
20, 0, MIDI_port, 0
20, 0, Title_t, "GS/GM            10 "
20, 210, Control_c, 9, 121, 0
20, 372, Control_c, 9, 0, 0
20, 372, Control_c, 9, 32, 0
20, 372, Program_c, 9, 0
20, 374, Control_c, 9, 7, 100
20, 376, Control_c, 9, 10, 64
20, 378, Control_c, 9, 11, 127
20, 380, Control_c, 9, 91, 88
20, 382, Control_c, 9, 93, 0
20, 718, Control_c, 9, 101, 0
20, 720, Control_c, 9, 100, 0
20, 722, Control_c, 9, 6, 2
20, 724, Control_c, 9, 101, 0
20, 726, Control_c, 9, 100, 2
20, 728, Control_c, 9, 6, 64
20, 730, Control_c, 9, 101, 127
20, 732, Control_c, 9, 100, 127
20, 732, End_track
21, 0, Start_track
21, 0, MIDI_port, 0
21, 0, Title_t, "GS/GM            11 "
21, 212, Control_c, 10, 121, 0
21, 388, Control_c, 10, 0, 0
21, 388, Control_c, 10, 32, 0
21, 388, Program_c, 10, 48
21, 390, Control_c, 10, 7, 100
21, 392, Control_c, 10, 10, 88
21, 394, Control_c, 10, 11, 127
21, 396, Control_c, 10, 91, 50
21, 398, Control_c, 10, 93, 80
21, 734, Control_c, 10, 101, 0
21, 736, Control_c, 10, 100, 0
21, 738, Control_c, 10, 6, 2
21, 740, Control_c, 10, 101, 0
21, 742, Control_c, 10, 100, 2
21, 744, Control_c, 10, 6, 64
21, 746, Control_c, 10, 101, 127
21, 748, Control_c, 10, 100, 127
21, 748, End_track
22, 0, Start_track
22, 0, MIDI_port, 0
22, 0, Title_t, "GS/GM            12 "
22, 214, Control_c, 11, 121, 0
22, 404, Control_c, 11, 0, 0
22, 404, Control_c, 11, 32, 0
22, 404, Program_c, 11, 1
22, 406, Control_c, 11, 7, 127
22, 408, Control_c, 11, 10, 40
22, 410, Control_c, 11, 11, 127
22, 412, Control_c, 11, 91, 60
22, 414, Control_c, 11, 93, 0
22, 750, Control_c, 11, 101, 0
22, 752, Control_c, 11, 100, 0
22, 754, Control_c, 11, 6, 2
22, 756, Control_c, 11, 101, 0
22, 758, Control_c, 11, 100, 2
22, 760, Control_c, 11, 6, 64
22, 762, Control_c, 11, 101, 127
22, 764, Control_c, 11, 100, 127
22, 764, End_track
23, 0, Start_track
23, 0, MIDI_port, 0
23, 0, Title_t, "GS/GM            13 "
23, 216, Control_c, 12, 121, 0
23, 420, Control_c, 12, 0, 0
23, 420, Control_c, 12, 32, 0
23, 420, Program_c, 12, 61
23, 422, Control_c, 12, 7, 127
23, 424, Control_c, 12, 10, 96
23, 426, Control_c, 12, 11, 127
23, 428, Control_c, 12, 91, 80
23, 430, Control_c, 12, 93, 50
23, 766, Control_c, 12, 101, 0
23, 768, Control_c, 12, 100, 0
23, 770, Control_c, 12, 6, 2
23, 772, Control_c, 12, 101, 0
23, 774, Control_c, 12, 100, 2
23, 776, Control_c, 12, 6, 64
23, 778, Control_c, 12, 101, 127
23, 780, Control_c, 12, 100, 127
23, 780, End_track
24, 0, Start_track
24, 0, MIDI_port, 0
24, 0, Title_t, "GS/GM            14 "
24, 218, Control_c, 13, 121, 0
24, 436, Control_c, 13, 0, 0
24, 436, Control_c, 13, 32, 0
24, 436, Program_c, 13, 25
24, 438, Control_c, 13, 7, 120
24, 440, Control_c, 13, 10, 38
24, 442, Control_c, 13, 11, 127
24, 444, Control_c, 13, 91, 70
24, 446, Control_c, 13, 93, 60
24, 782, Control_c, 13, 101, 0
24, 784, Control_c, 13, 100, 0
24, 786, Control_c, 13, 6, 2
24, 788, Control_c, 13, 101, 0
24, 790, Control_c, 13, 100, 2
24, 792, Control_c, 13, 6, 64
24, 794, Control_c, 13, 101, 127
24, 796, Control_c, 13, 100, 127
24, 796, End_track
25, 0, Start_track
25, 0, MIDI_port, 0
25, 0, Title_t, "GS/GM            15 "
25, 220, Control_c, 14, 121, 0
25, 452, Control_c, 14, 0, 0
25, 452, Control_c, 14, 32, 0
25, 452, Program_c, 14, 52
25, 454, Control_c, 14, 7, 127
25, 456, Control_c, 14, 10, 32
25, 458, Control_c, 14, 11, 127
25, 460, Control_c, 14, 91, 90
25, 462, Control_c, 14, 93, 55
25, 798, Control_c, 14, 101, 0
25, 800, Control_c, 14, 100, 0
25, 802, Control_c, 14, 6, 2
25, 804, Control_c, 14, 101, 0
25, 806, Control_c, 14, 100, 2
25, 808, Control_c, 14, 6, 64
25, 810, Control_c, 14, 101, 127
25, 812, Control_c, 14, 100, 127
25, 812, End_track
26, 0, Start_track
26, 0, MIDI_port, 0
26, 0, Title_t, "GS/GM            16 "
26, 222, Control_c, 15, 121, 0
26, 468, Control_c, 15, 0, 0
26, 468, Control_c, 15, 32, 0
26, 468, Program_c, 15, 27
26, 470, Control_c, 15, 7, 127
26, 472, Control_c, 15, 10, 90
26, 474, Control_c, 15, 11, 127
26, 476, Control_c, 15, 91, 80
26, 478, Control_c, 15, 93, 127
26, 814, Control_c, 15, 101, 0
26, 816, Control_c, 15, 100, 0
26, 818, Control_c, 15, 6, 2
26, 820, Control_c, 15, 101, 0
26, 822, Control_c, 15, 100, 2
26, 824, Control_c, 15, 6, 64
26, 826, Control_c, 15, 101, 127
26, 826, End_track
0, 0, End_of_file
