0, 0, Header, 0, 1, 96
1, 0, Start_track
1, 0, MIDI_port, 0
1, 0, System_exclusive, 5, 126, 127, 9, 1, 247
1, 0, MIDI_port, 0
1, 0, Time_signature, 4, 2, 24, 8
1, 0, Key_signature, 1, "major"
1, 0, Tempo, 483871
1, 0, Marker_t, "LET'S GROOVE                    ;Maurice White / Wayne Vaughan"
1, 0, Marker_t, "(C) 1994 Tune 1000 Corporation  ;EMI April Music Inc. Int'l Rights Secured."
1, 0, Marker_t, "Back Vocal"
1, 0, Lyric_t, "ALL rights reserved. Not for broadcast or "
1, 0, Lyric_t, ""
1, 0, Lyric_t, "\015"
1, 0, Lyric_t, "transmission of any kind. "
1, 0, Lyric_t, ""
1, 0, Lyric_t, "\015"
1, 0, Lyric_t, "DO NOT DUPLICATE. NOT FOR RENTAL. "
1, 0, Lyric_t, ""
1, 0, Lyric_t, "\015"
1, 98, Program_c, 0, 4
1, 99, Control_c, 0, 7, 80
1, 99, Control_c, 0, 10, 82
1, 99, Control_c, 0, 11, 127
1, 100, Control_c, 0, 91, 40
1, 100, Control_c, 0, 93, 50
1, 103, Program_c, 1, 35
1, 104, Control_c, 1, 11, 127
1, 104, Control_c, 1, 7, 95
1, 104, Control_c, 1, 10, 60
1, 105, Control_c, 1, 91, 20
1, 105, Control_c, 1, 93, 55
1, 108, Program_c, 2, 27
1, 109, Control_c, 2, 11, 127
1, 109, Control_c, 2, 7, 80
1, 109, Control_c, 2, 10, 84
1, 110, Control_c, 2, 91, 50
1, 110, Control_c, 2, 93, 64
1, 113, Program_c, 3, 82
1, 114, Control_c, 3, 10, 64
1, 114, Control_c, 3, 7, 100
1, 114, Control_c, 3, 11, 127
1, 115, Control_c, 3, 93, 10
1, 115, Control_c, 3, 91, 55
1, 118, Program_c, 4, 73
1, 119, Control_c, 4, 11, 127
1, 119, Control_c, 4, 7, 70
1, 119, Control_c, 4, 10, 51
1, 120, Control_c, 4, 93, 30
1, 120, Control_c, 4, 91, 40
1, 123, Program_c, 5, 7
1, 124, Control_c, 5, 7, 90
1, 124, Control_c, 5, 10, 30
1, 124, Control_c, 5, 11, 127
1, 125, Control_c, 5, 93, 30
1, 125, Control_c, 5, 91, 40
1, 128, Program_c, 6, 61
1, 129, Control_c, 6, 7, 105
1, 129, Control_c, 6, 10, 86
1, 129, Control_c, 6, 11, 127
1, 130, Control_c, 6, 91, 63
1, 130, Control_c, 6, 93, 40
1, 133, Program_c, 7, 49
1, 134, Control_c, 7, 10, 55
1, 134, Control_c, 7, 7, 100
1, 134, Control_c, 7, 11, 127
1, 135, Control_c, 7, 93, 35
1, 135, Control_c, 7, 91, 70
1, 138, Program_c, 8, 28
1, 139, Control_c, 8, 10, 99
1, 139, Control_c, 8, 7, 70
1, 139, Control_c, 8, 11, 127
1, 140, Control_c, 8, 93, 64
1, 140, Control_c, 8, 91, 35
1, 144, Control_c, 9, 7, 105
1, 144, Control_c, 9, 11, 127
1, 145, Control_c, 9, 93, 0
1, 145, Control_c, 9, 91, 40
1, 148, Program_c, 10, 57
1, 149, Control_c, 10, 10, 41
1, 149, Control_c, 10, 7, 105
1, 149, Control_c, 10, 11, 127
1, 150, Control_c, 10, 93, 0
1, 150, Control_c, 10, 91, 60
1, 719, Note_on_c, 9, 46, 84
1, 720, Note_on_c, 9, 46, 0
1, 720, Control_c, 9, 1, 0
1, 720, Pitch_bend_c, 9, 8192
1, 768, Note_on_c, 4, 40, 47
1, 768, Note_on_c, 9, 42, 82
1, 768, Note_on_c, 4, 52, 42
1, 768, Note_on_c, 0, 28, 114
1, 768, Note_on_c, 0, 40, 118
1, 768, Note_on_c, 4, 28, 42
1, 768, Note_on_c, 9, 36, 95
1, 769, Note_on_c, 9, 36, 0
1, 769, Note_on_c, 9, 42, 0
1, 769, Pitch_bend_c, 0, 8192
1, 769, Note_on_c, 5, 28, 84
1, 769, Pitch_bend_c, 4, 8192
1, 769, Control_c, 0, 1, 0
1, 769, Control_c, 4, 1, 0
1, 769, Note_on_c, 5, 40, 85
1, 770, Pitch_bend_c, 5, 8192
1, 770, Control_c, 5, 1, 0
1, 791, Note_on_c, 9, 42, 38
1, 792, Note_on_c, 9, 42, 0
1, 815, Note_on_c, 9, 42, 65
1, 816, Note_on_c, 9, 42, 0
1, 839, Note_on_c, 9, 42, 36
1, 840, Note_on_c, 9, 42, 0
1, 864, Note_on_c, 9, 42, 101
1, 865, Note_on_c, 9, 42, 0
1, 886, Note_on_c, 5, 28, 0
1, 888, Note_on_c, 5, 40, 0
1, 902, Note_on_c, 0, 40, 0
1, 904, Note_on_c, 0, 28, 0
1, 911, Note_on_c, 0, 31, 98
1, 911, Note_on_c, 5, 43, 78
1, 911, Note_on_c, 0, 43, 116
1, 912, Note_on_c, 4, 40, 0
1, 912, Note_on_c, 4, 52, 0
1, 912, Note_on_c, 4, 28, 0
1, 912, Note_on_c, 5, 31, 69
1, 912, Note_on_c, 4, 31, 41
1, 912, Note_on_c, 4, 55, 41
1, 912, Note_on_c, 9, 36, 78
1, 912, Note_on_c, 4, 43, 44
1, 913, Note_on_c, 9, 36, 0
1, 913, Note_on_c, 9, 42, 41
1, 914, Note_on_c, 9, 42, 0
1, 924, Note_on_c, 5, 43, 0
1, 925, Note_on_c, 0, 31, 0
1, 925, Note_on_c, 0, 43, 0
1, 927, Note_on_c, 5, 31, 0
1, 960, Note_on_c, 4, 43, 0
1, 960, Note_on_c, 4, 55, 0
1, 960, Note_on_c, 4, 31, 0
1, 960, Note_on_c, 4, 45, 38
1, 960, Note_on_c, 5, 45, 76
1, 960, Note_on_c, 4, 57, 45
1, 960, Note_on_c, 4, 33, 45
1, 960, Note_on_c, 9, 36, 108
1, 961, Note_on_c, 9, 36, 0
1, 961, Note_on_c, 0, 45, 127
1, 961, Note_on_c, 5, 33, 79
1, 961, Note_on_c, 9, 42, 93
1, 961, Note_on_c, 0, 33, 120
1, 962, Note_on_c, 9, 42, 0
1, 1009, Note_on_c, 9, 42, 42
1, 1010, Note_on_c, 9, 42, 0
1, 1036, Note_on_c, 5, 33, 0
1, 1038, Note_on_c, 5, 45, 0
1, 1043, Note_on_c, 0, 33, 0
1, 1044, Note_on_c, 0, 45, 0
1, 1056, Note_on_c, 4, 57, 0
1, 1056, Note_on_c, 4, 45, 0
1, 1056, Note_on_c, 4, 33, 0
1, 1056, Note_on_c, 4, 43, 47
1, 1056, Note_on_c, 4, 31, 42
1, 1056, Note_on_c, 4, 55, 42
1, 1056, Note_on_c, 9, 42, 93
1, 1057, Note_on_c, 9, 42, 0
1, 1057, Note_on_c, 5, 43, 79
1, 1057, Note_on_c, 5, 31, 79
1, 1057, Note_on_c, 0, 31, 110
1, 1057, Note_on_c, 0, 43, 120
1, 1104, Note_on_c, 9, 46, 99
1, 1105, Note_on_c, 9, 46, 0
1, 1133, Note_on_c, 0, 43, 0
1, 1135, Note_on_c, 0, 31, 0
1, 1136, Note_on_c, 5, 43, 0
1, 1136, Note_on_c, 5, 31, 0
1, 1152, Note_on_c, 4, 55, 0
1, 1152, Note_on_c, 4, 43, 0
1, 1152, Note_on_c, 4, 31, 0
1, 1152, Note_on_c, 4, 30, 31
1, 1152, Note_on_c, 4, 42, 43
1, 1152, Note_on_c, 9, 42, 82
1, 1152, Note_on_c, 4, 54, 31
1, 1153, Note_on_c, 9, 42, 0
1, 1153, Note_on_c, 0, 30, 114
1, 1153, Note_on_c, 0, 42, 111
1, 1153, Note_on_c, 5, 30, 78
1, 1153, Note_on_c, 5, 42, 78
1, 1175, Note_on_c, 9, 42, 38
1, 1176, Note_on_c, 9, 42, 0
1, 1199, Note_on_c, 9, 42, 65
1, 1200, Note_on_c, 9, 42, 0
1, 1223, Note_on_c, 9, 42, 36
1, 1224, Note_on_c, 9, 42, 0
1, 1248, Note_on_c, 9, 42, 101
1, 1249, Note_on_c, 9, 42, 0
1, 1251, Note_on_c, 0, 42, 0
1, 1260, Note_on_c, 0, 30, 0
1, 1261, Note_on_c, 5, 42, 0
1, 1262, Note_on_c, 5, 30, 0
1, 1295, Note_on_c, 5, 47, 91
1, 1295, Note_on_c, 0, 35, 112
1, 1295, Note_on_c, 0, 47, 120
1, 1295, Note_on_c, 5, 35, 90
1, 1296, Note_on_c, 4, 54, 0
1, 1296, Note_on_c, 4, 30, 0
1, 1296, Note_on_c, 4, 42, 0
1, 1296, Note_on_c, 9, 36, 63
1, 1296, Note_on_c, 4, 59, 35
1, 1296, Note_on_c, 4, 35, 35
1, 1296, Note_on_c, 4, 47, 33
1, 1297, Note_on_c, 9, 36, 0
1, 1297, Note_on_c, 9, 42, 41
1, 1298, Note_on_c, 9, 42, 0
1, 1344, Note_on_c, 9, 36, 110
1, 1345, Note_on_c, 9, 36, 0
1, 1345, Note_on_c, 9, 42, 93
1, 1346, Note_on_c, 9, 42, 0
1, 1391, Note_on_c, 5, 35, 0
1, 1391, Note_on_c, 0, 33, 100
1, 1392, Note_on_c, 4, 59, 0
1, 1392, Note_on_c, 4, 47, 0
1, 1392, Note_on_c, 0, 35, 0
1, 1392, Note_on_c, 4, 35, 0
1, 1392, Note_on_c, 4, 45, 30
1, 1392, Note_on_c, 4, 57, 31
1, 1392, Note_on_c, 4, 33, 31
1, 1393, Note_on_c, 0, 47, 0
1, 1393, Note_on_c, 5, 33, 74
1, 1393, Note_on_c, 0, 45, 105
1, 1393, Note_on_c, 5, 45, 74
1, 1393, Note_on_c, 9, 42, 42
1, 1394, Note_on_c, 9, 42, 0
1, 1395, Note_on_c, 5, 47, 0
1, 1407, Note_on_c, 0, 45, 0
1, 1409, Note_on_c, 5, 33, 0
1, 1409, Note_on_c, 0, 33, 0
1, 1412, Note_on_c, 5, 45, 0
1, 1440, Note_on_c, 4, 33, 0
1, 1440, Note_on_c, 4, 45, 0
1, 1440, Note_on_c, 4, 57, 0
1, 1440, Note_on_c, 5, 35, 88
1, 1440, Note_on_c, 4, 35, 42
1, 1440, Note_on_c, 4, 47, 42
1, 1440, Note_on_c, 9, 42, 93
1, 1440, Note_on_c, 4, 59, 42
1, 1440, Note_on_c, 5, 47, 87
1, 1441, Note_on_c, 9, 42, 0
1, 1441, Note_on_c, 0, 47, 124
1, 1441, Note_on_c, 0, 35, 114
1, 1488, Note_on_c, 9, 46, 99
1, 1489, Note_on_c, 9, 46, 0
1, 1504, Note_on_c, 5, 35, 0
1, 1505, Note_on_c, 5, 47, 0
1, 1511, Note_on_c, 0, 35, 0
1, 1512, Note_on_c, 0, 47, 0
1, 1536, Note_on_c, 4, 47, 0
1, 1536, Note_on_c, 4, 59, 0
1, 1536, Note_on_c, 4, 35, 0
1, 1536, Note_on_c, 4, 52, 42
1, 1536, Note_on_c, 0, 40, 118
1, 1536, Note_on_c, 4, 28, 42
1, 1536, Note_on_c, 0, 28, 114
1, 1536, Note_on_c, 9, 42, 82
1, 1536, Note_on_c, 4, 40, 47
1, 1537, Note_on_c, 9, 42, 0
1, 1537, Note_on_c, 5, 28, 80
1, 1537, Note_on_c, 5, 40, 88
1, 1559, Note_on_c, 9, 42, 38
1, 1560, Note_on_c, 9, 42, 0
1, 1583, Note_on_c, 9, 42, 65
1, 1584, Note_on_c, 9, 42, 0
1, 1607, Note_on_c, 9, 42, 36
1, 1608, Note_on_c, 9, 42, 0
1, 1632, Note_on_c, 9, 42, 101
1, 1633, Note_on_c, 9, 42, 0
1, 1654, Note_on_c, 5, 28, 0
1, 1656, Note_on_c, 5, 40, 0
1, 1670, Note_on_c, 0, 40, 0
1, 1672, Note_on_c, 0, 28, 0
1, 1679, Note_on_c, 0, 43, 116
1, 1679, Note_on_c, 5, 43, 72
1, 1679, Note_on_c, 0, 31, 98
1, 1680, Note_on_c, 4, 52, 0
1, 1680, Note_on_c, 4, 28, 0
1, 1680, Note_on_c, 4, 40, 0
1, 1680, Note_on_c, 4, 43, 44
1, 1680, Note_on_c, 9, 36, 80
1, 1680, Note_on_c, 4, 55, 41
1, 1680, Note_on_c, 5, 31, 72
1, 1680, Note_on_c, 4, 31, 41
1, 1681, Note_on_c, 9, 36, 0
1, 1681, Note_on_c, 9, 42, 41
1, 1682, Note_on_c, 9, 42, 0
1, 1692, Note_on_c, 5, 43, 0
1, 1693, Note_on_c, 0, 43, 0
1, 1693, Note_on_c, 0, 31, 0
1, 1695, Note_on_c, 5, 31, 0
1, 1728, Note_on_c, 4, 31, 0
1, 1728, Note_on_c, 4, 55, 0
1, 1728, Note_on_c, 4, 43, 0
1, 1728, Note_on_c, 4, 33, 45
1, 1728, Note_on_c, 9, 36, 110
1, 1728, Note_on_c, 4, 45, 38
1, 1728, Note_on_c, 5, 45, 80
1, 1728, Note_on_c, 4, 57, 45
1, 1729, Note_on_c, 9, 36, 0
1, 1729, Note_on_c, 9, 42, 93
1, 1729, Note_on_c, 0, 33, 120
1, 1729, Note_on_c, 5, 33, 80
1, 1729, Note_on_c, 0, 45, 127
1, 1730, Note_on_c, 9, 42, 0
1, 1777, Note_on_c, 9, 42, 42
1, 1778, Note_on_c, 9, 42, 0
1, 1804, Note_on_c, 5, 33, 0
1, 1806, Note_on_c, 5, 45, 0
1, 1811, Note_on_c, 0, 33, 0
1, 1812, Note_on_c, 0, 45, 0
1, 1824, Note_on_c, 4, 33, 0
1, 1824, Note_on_c, 4, 45, 0
1, 1824, Note_on_c, 4, 57, 0
1, 1824, Note_on_c, 4, 31, 42
1, 1824, Note_on_c, 9, 42, 93
1, 1824, Note_on_c, 4, 55, 42
1, 1824, Note_on_c, 4, 43, 47
1, 1825, Note_on_c, 9, 42, 0
1, 1825, Note_on_c, 0, 43, 120
1, 1825, Note_on_c, 0, 31, 110
1, 1825, Note_on_c, 5, 31, 79
1, 1825, Note_on_c, 5, 43, 79
1, 1872, Note_on_c, 9, 46, 99
1, 1873, Note_on_c, 9, 46, 0
1, 1901, Note_on_c, 0, 43, 0
1, 1903, Note_on_c, 0, 31, 0
1, 1904, Note_on_c, 5, 31, 0
1, 1904, Note_on_c, 5, 43, 0
1, 1920, Note_on_c, 4, 43, 0
1, 1920, Note_on_c, 4, 31, 0
1, 1920, Note_on_c, 4, 55, 0
1, 1920, Note_on_c, 9, 42, 82
1, 1920, Note_on_c, 4, 30, 31
1, 1920, Note_on_c, 4, 54, 31
1, 1920, Note_on_c, 4, 42, 43
1, 1921, Note_on_c, 9, 42, 0
1, 1921, Note_on_c, 5, 42, 78
1, 1921, Note_on_c, 0, 42, 111
1, 1921, Note_on_c, 5, 30, 78
1, 1921, Note_on_c, 0, 30, 114
1, 1943, Note_on_c, 9, 42, 38
1, 1944, Note_on_c, 9, 42, 0
1, 1967, Note_on_c, 9, 42, 65
1, 1968, Note_on_c, 9, 42, 0
1, 1991, Note_on_c, 9, 42, 36
1, 1992, Note_on_c, 9, 42, 0
1, 2016, Note_on_c, 10, 61, 72
1, 2016, Note_on_c, 9, 42, 101
1, 2017, Note_on_c, 9, 42, 0
1, 2017, Pitch_bend_c, 10, 8192
1, 2017, Control_c, 10, 1, 0
1, 2019, Note_on_c, 0, 42, 0
1, 2028, Note_on_c, 0, 30, 0
1, 2029, Note_on_c, 5, 42, 0
1, 2030, Note_on_c, 5, 30, 0
1, 2063, Note_on_c, 10, 61, 0
1, 2063, Note_on_c, 5, 35, 90
1, 2063, Note_on_c, 5, 47, 91
1, 2063, Note_on_c, 0, 35, 112
1, 2063, Note_on_c, 0, 47, 120
1, 2064, Note_on_c, 4, 42, 0
1, 2064, Note_on_c, 4, 30, 0
1, 2064, Note_on_c, 4, 54, 0
1, 2064, Note_on_c, 9, 36, 85
1, 2064, Note_on_c, 4, 59, 35
1, 2064, Note_on_c, 4, 47, 33
1, 2064, Note_on_c, 4, 35, 35
1, 2065, Note_on_c, 9, 36, 0
1, 2065, Note_on_c, 9, 42, 41
1, 2066, Note_on_c, 9, 42, 0
1, 2071, Note_on_c, 10, 59, 59
1, 2112, Note_on_c, 9, 36, 110
1, 2113, Note_on_c, 9, 36, 0
1, 2113, Note_on_c, 9, 42, 93
1, 2114, Note_on_c, 9, 42, 0
1, 2159, Note_on_c, 5, 35, 0
1, 2159, Note_on_c, 0, 33, 100
1, 2160, Note_on_c, 4, 35, 0
1, 2160, Note_on_c, 4, 47, 0
1, 2160, Note_on_c, 4, 59, 0
1, 2160, Note_on_c, 0, 35, 0
1, 2160, Note_on_c, 4, 57, 31
1, 2160, Note_on_c, 6, 67, 106
1, 2160, Note_on_c, 4, 45, 30
1, 2160, Note_on_c, 4, 33, 31
1, 2161, Note_on_c, 0, 47, 0
1, 2161, Pitch_bend_c, 6, 8192
1, 2161, Note_on_c, 0, 45, 105
1, 2161, Note_on_c, 9, 42, 42
1, 2161, Note_on_c, 5, 33, 74
1, 2161, Note_on_c, 5, 45, 74
1, 2161, Control_c, 6, 1, 0
1, 2162, Note_on_c, 9, 42, 0
1, 2163, Note_on_c, 5, 47, 0
1, 2174, Note_on_c, 6, 67, 0
1, 2175, Note_on_c, 0, 45, 0
1, 2177, Note_on_c, 5, 33, 0
1, 2177, Note_on_c, 0, 33, 0
1, 2180, Note_on_c, 5, 45, 0
1, 2208, Note_on_c, 4, 33, 0
1, 2208, Note_on_c, 4, 57, 0
1, 2208, Note_on_c, 4, 45, 0
1, 2208, Note_on_c, 5, 47, 87
1, 2208, Note_on_c, 4, 59, 42
1, 2208, Note_on_c, 9, 42, 93
1, 2208, Note_on_c, 4, 47, 42
1, 2208, Note_on_c, 5, 35, 88
1, 2208, Note_on_c, 4, 35, 42
1, 2208, Note_on_c, 6, 71, 100
1, 2209, Note_on_c, 9, 42, 0
1, 2209, Note_on_c, 0, 35, 114
1, 2209, Note_on_c, 0, 47, 124
1, 2232, Note_on_c, 6, 71, 0
1, 2256, Note_on_c, 9, 46, 99
1, 2256, Note_on_c, 6, 74, 98
1, 2257, Note_on_c, 9, 46, 0
1, 2271, Note_on_c, 6, 74, 0
1, 2272, Note_on_c, 5, 35, 0
1, 2273, Note_on_c, 5, 47, 0
1, 2279, Note_on_c, 0, 35, 0
1, 2280, Note_on_c, 0, 47, 0
1, 2304, Note_on_c, 4, 47, 0
1, 2304, Note_on_c, 4, 35, 0
1, 2304, Note_on_c, 4, 59, 0
1, 2304, Note_on_c, 4, 28, 42
1, 2304, Note_on_c, 6, 78, 119
1, 2304, Note_on_c, 4, 40, 47
1, 2304, Note_on_c, 9, 42, 82
1, 2304, Note_on_c, 4, 52, 42
1, 2304, Note_on_c, 0, 28, 114
1, 2304, Note_on_c, 0, 40, 118
1, 2305, Note_on_c, 9, 42, 0
1, 2305, Note_on_c, 5, 28, 80
1, 2305, Note_on_c, 5, 40, 88
1, 2327, Note_on_c, 9, 42, 38
1, 2328, Note_on_c, 9, 42, 0
1, 2341, Note_on_c, 6, 78, 0
1, 2342, Note_on_c, 6, 77, 95
1, 2350, Note_on_c, 6, 76, 58
1, 2351, Note_on_c, 9, 42, 65
1, 2352, Note_on_c, 9, 42, 0
1, 2361, Note_on_c, 6, 77, 0
1, 2363, Note_on_c, 6, 75, 68
1, 2369, Note_on_c, 6, 76, 0
1, 2370, Note_on_c, 6, 74, 73
1, 2374, Note_on_c, 6, 75, 0
1, 2375, Note_on_c, 9, 42, 36
1, 2376, Note_on_c, 9, 42, 0
1, 2376, Note_on_c, 6, 73, 70
1, 2378, Note_on_c, 6, 74, 0
1, 2383, Note_on_c, 6, 73, 0
1, 2383, Note_on_c, 6, 72, 55
1, 2388, Note_on_c, 6, 72, 0
1, 2400, Note_on_c, 9, 42, 101
1, 2401, Note_on_c, 9, 42, 0
1, 2422, Note_on_c, 5, 28, 0
1, 2424, Note_on_c, 5, 40, 0
1, 2438, Note_on_c, 0, 40, 0
1, 2440, Note_on_c, 0, 28, 0
1, 2447, Note_on_c, 0, 43, 116
1, 2447, Note_on_c, 5, 43, 72
1, 2447, Note_on_c, 0, 31, 98
1, 2448, Note_on_c, 4, 40, 0
1, 2448, Note_on_c, 4, 52, 0
1, 2448, Note_on_c, 4, 28, 0
1, 2448, Note_on_c, 4, 43, 44
1, 2448, Note_on_c, 4, 55, 41
1, 2448, Note_on_c, 5, 31, 72
1, 2448, Note_on_c, 9, 36, 85
1, 2448, Note_on_c, 4, 31, 41
1, 2449, Note_on_c, 9, 36, 0
1, 2449, Note_on_c, 9, 42, 41
1, 2450, Note_on_c, 9, 42, 0
1, 2460, Note_on_c, 5, 43, 0
1, 2461, Note_on_c, 0, 31, 0
1, 2461, Note_on_c, 0, 43, 0
1, 2463, Note_on_c, 5, 31, 0
1, 2496, Note_on_c, 4, 43, 0
1, 2496, Note_on_c, 4, 31, 0
1, 2496, Note_on_c, 4, 55, 0
1, 2496, Note_on_c, 4, 57, 45
1, 2496, Note_on_c, 5, 45, 80
1, 2496, Note_on_c, 9, 36, 89
1, 2496, Note_on_c, 4, 45, 38
1, 2496, Note_on_c, 4, 33, 45
1, 2497, Note_on_c, 9, 36, 0
1, 2497, Note_on_c, 0, 45, 127
1, 2497, Note_on_c, 9, 42, 93
1, 2497, Note_on_c, 5, 33, 80
1, 2497, Note_on_c, 0, 33, 120
1, 2498, Note_on_c, 9, 42, 0
1, 2545, Note_on_c, 9, 42, 42
1, 2546, Note_on_c, 9, 42, 0
1, 2572, Note_on_c, 5, 33, 0
1, 2574, Note_on_c, 5, 45, 0
1, 2579, Note_on_c, 0, 33, 0
1, 2580, Note_on_c, 0, 45, 0
1, 2592, Note_on_c, 4, 45, 0
1, 2592, Note_on_c, 4, 57, 0
1, 2592, Note_on_c, 4, 33, 0
1, 2592, Note_on_c, 4, 43, 47
1, 2592, Note_on_c, 4, 31, 42
1, 2592, Note_on_c, 9, 42, 93
1, 2592, Note_on_c, 4, 55, 42
1, 2593, Note_on_c, 9, 42, 0
1, 2593, Note_on_c, 0, 43, 120
1, 2593, Note_on_c, 5, 43, 79
1, 2593, Note_on_c, 0, 31, 110
1, 2593, Note_on_c, 5, 31, 79
1, 2640, Note_on_c, 9, 46, 99
1, 2641, Note_on_c, 9, 46, 0
1, 2669, Note_on_c, 0, 43, 0
1, 2671, Note_on_c, 0, 31, 0
1, 2672, Note_on_c, 5, 31, 0
1, 2672, Note_on_c, 5, 43, 0
1, 2688, Note_on_c, 4, 55, 0
1, 2688, Note_on_c, 4, 31, 0
1, 2688, Note_on_c, 4, 43, 0
1, 2688, Note_on_c, 9, 42, 82
1, 2688, Note_on_c, 4, 54, 31
1, 2688, Note_on_c, 7, 90, 60
1, 2688, Note_on_c, 4, 42, 43
1, 2688, Note_on_c, 4, 30, 31
1, 2689, Note_on_c, 9, 42, 0
1, 2689, Control_c, 7, 1, 0
1, 2689, Note_on_c, 5, 30, 78
1, 2689, Note_on_c, 5, 42, 78
1, 2689, Pitch_bend_c, 7, 8192
1, 2689, Note_on_c, 0, 30, 114
1, 2689, Note_on_c, 0, 42, 111
1, 2691, Note_on_c, 7, 83, 53
1, 2694, Note_on_c, 10, 59, 0
1, 2711, Note_on_c, 9, 42, 38
1, 2712, Note_on_c, 9, 42, 0
1, 2735, Note_on_c, 9, 42, 65
1, 2736, Note_on_c, 9, 42, 0
1, 2759, Note_on_c, 9, 42, 36
1, 2760, Note_on_c, 9, 42, 0
1, 2784, Note_on_c, 9, 42, 101
1, 2785, Note_on_c, 9, 42, 0
1, 2787, Note_on_c, 0, 42, 0
1, 2796, Note_on_c, 0, 30, 0
1, 2797, Note_on_c, 5, 42, 0
1, 2798, Note_on_c, 5, 30, 0
1, 2831, Note_on_c, 0, 47, 120
1, 2831, Note_on_c, 0, 35, 112
1, 2831, Note_on_c, 5, 47, 91
1, 2831, Note_on_c, 5, 35, 90
1, 2832, Note_on_c, 4, 54, 0
1, 2832, Note_on_c, 4, 42, 0
1, 2832, Note_on_c, 4, 30, 0
1, 2832, Note_on_c, 4, 35, 35
1, 2832, Note_on_c, 9, 36, 54
1, 2832, Note_on_c, 4, 47, 33
1, 2832, Note_on_c, 4, 59, 35
1, 2833, Note_on_c, 9, 36, 0
1, 2833, Note_on_c, 9, 42, 41
1, 2834, Note_on_c, 9, 42, 0
1, 2880, Note_on_c, 9, 36, 108
1, 2881, Note_on_c, 9, 36, 0
1, 2881, Note_on_c, 9, 42, 93
1, 2882, Note_on_c, 9, 42, 0
1, 2927, Note_on_c, 5, 35, 0
1, 2927, Note_on_c, 0, 33, 100
1, 2928, Note_on_c, 4, 59, 0
1, 2928, Note_on_c, 4, 47, 0
1, 2928, Note_on_c, 4, 35, 0
1, 2928, Note_on_c, 0, 35, 0
1, 2928, Note_on_c, 4, 45, 30
1, 2928, Note_on_c, 4, 57, 31
1, 2928, Note_on_c, 4, 33, 31
1, 2929, Note_on_c, 0, 47, 0
1, 2929, Note_on_c, 0, 45, 105
1, 2929, Note_on_c, 5, 45, 74
1, 2929, Note_on_c, 5, 33, 74
1, 2929, Note_on_c, 9, 42, 42
1, 2930, Note_on_c, 9, 42, 0
1, 2931, Note_on_c, 5, 47, 0
1, 2943, Note_on_c, 0, 45, 0
1, 2945, Note_on_c, 0, 33, 0
1, 2945, Note_on_c, 5, 33, 0
1, 2948, Note_on_c, 5, 45, 0
1, 2976, Note_on_c, 4, 45, 0
1, 2976, Note_on_c, 4, 33, 0
1, 2976, Note_on_c, 4, 57, 0
1, 2976, Note_on_c, 5, 47, 87
1, 2976, Note_on_c, 5, 35, 88
1, 2976, Note_on_c, 4, 35, 42
1, 2976, Note_on_c, 4, 47, 42
1, 2976, Note_on_c, 9, 42, 93
1, 2976, Note_on_c, 4, 59, 42
1, 2977, Note_on_c, 9, 42, 0
1, 2977, Note_on_c, 0, 47, 124
1, 2977, Note_on_c, 0, 35, 114
1, 3024, Note_on_c, 9, 46, 99
1, 3025, Note_on_c, 9, 46, 0
1, 3040, Note_on_c, 5, 35, 0
1, 3041, Note_on_c, 5, 47, 0
1, 3047, Note_on_c, 0, 35, 0
1, 3048, Note_on_c, 0, 47, 0
1, 3070, Note_on_c, 7, 95, 56
1, 3072, Note_on_c, 4, 59, 0
1, 3072, Note_on_c, 4, 35, 0
1, 3072, Note_on_c, 4, 47, 0
1, 3072, Note_on_c, 0, 28, 114
1, 3072, Note_on_c, 4, 40, 47
1, 3072, Note_on_c, 4, 52, 42
1, 3072, Note_on_c, 4, 28, 42
1, 3072, Note_on_c, 0, 40, 118
1, 3072, Note_on_c, 9, 42, 82
1, 3073, Note_on_c, 9, 42, 0
1, 3073, Note_on_c, 5, 40, 88
1, 3073, Note_on_c, 5, 28, 80
1, 3095, Note_on_c, 9, 42, 38
1, 3096, Note_on_c, 9, 42, 0
1, 3119, Note_on_c, 9, 42, 65
1, 3120, Note_on_c, 9, 42, 0
1, 3143, Note_on_c, 9, 42, 36
1, 3144, Note_on_c, 9, 42, 0
1, 3168, Note_on_c, 9, 42, 101
1, 3169, Note_on_c, 9, 42, 0
1, 3190, Note_on_c, 5, 28, 0
1, 3192, Note_on_c, 5, 40, 0
1, 3206, Note_on_c, 0, 40, 0
1, 3208, Note_on_c, 0, 28, 0
1, 3215, Note_on_c, 0, 43, 116
1, 3215, Note_on_c, 0, 31, 98
1, 3215, Note_on_c, 5, 43, 72
1, 3216, Note_on_c, 4, 52, 0
1, 3216, Note_on_c, 4, 40, 0
1, 3216, Note_on_c, 4, 28, 0
1, 3216, Note_on_c, 4, 43, 44
1, 3216, Note_on_c, 4, 55, 41
1, 3216, Note_on_c, 4, 31, 41
1, 3216, Note_on_c, 5, 31, 72
1, 3216, Note_on_c, 9, 36, 70
1, 3217, Note_on_c, 9, 36, 0
1, 3217, Note_on_c, 9, 42, 41
1, 3218, Note_on_c, 9, 42, 0
1, 3228, Note_on_c, 5, 43, 0
1, 3229, Note_on_c, 0, 31, 0
1, 3229, Note_on_c, 0, 43, 0
1, 3231, Note_on_c, 5, 31, 0
1, 3264, Note_on_c, 4, 43, 0
1, 3264, Note_on_c, 4, 31, 0
1, 3264, Note_on_c, 4, 55, 0
1, 3264, Note_on_c, 4, 33, 45
1, 3264, Note_on_c, 5, 45, 80
1, 3264, Note_on_c, 4, 57, 45
1, 3264, Note_on_c, 4, 45, 38
1, 3264, Note_on_c, 9, 36, 108
1, 3265, Note_on_c, 9, 36, 0
1, 3265, Note_on_c, 0, 33, 120
1, 3265, Note_on_c, 0, 45, 127
1, 3265, Note_on_c, 9, 42, 93
1, 3265, Note_on_c, 5, 33, 80
1, 3266, Note_on_c, 9, 42, 0
1, 3313, Note_on_c, 9, 42, 42
1, 3314, Note_on_c, 9, 42, 0
1, 3340, Note_on_c, 5, 33, 0
1, 3342, Note_on_c, 5, 45, 0
1, 3347, Note_on_c, 0, 33, 0
1, 3347, Lyric_t, ""
1, 3347, Lyric_t, "\015"
1, 3348, Note_on_c, 0, 45, 0
1, 3360, Note_on_c, 4, 57, 0
1, 3360, Note_on_c, 4, 33, 0
1, 3360, Note_on_c, 4, 45, 0
1, 3360, Note_on_c, 4, 43, 47
1, 3360, Note_on_c, 4, 55, 42
1, 3360, Note_on_c, 9, 42, 93
1, 3360, Note_on_c, 4, 31, 42
1, 3361, Note_on_c, 9, 42, 0
1, 3361, Note_on_c, 5, 43, 79
1, 3361, Note_on_c, 0, 43, 120
1, 3361, Note_on_c, 5, 31, 79
1, 3361, Note_on_c, 0, 31, 110
1, 3408, Note_on_c, 9, 46, 99
1, 3409, Note_on_c, 9, 46, 0
1, 3437, Note_on_c, 0, 43, 0
1, 3439, Note_on_c, 0, 31, 0
1, 3440, Note_on_c, 5, 43, 0
1, 3440, Note_on_c, 5, 31, 0
1, 3456, Note_on_c, 4, 31, 0
1, 3456, Note_on_c, 4, 43, 0
1, 3456, Note_on_c, 4, 55, 0
1, 3456, Note_on_c, 4, 42, 43
1, 3456, Note_on_c, 4, 30, 31
1, 3456, Note_on_c, 9, 42, 82
1, 3456, Pitch_bend_c, 6, 128
1, 3456, Note_on_c, 4, 54, 31
1, 3457, Note_on_c, 9, 42, 0
1, 3457, Note_on_c, 0, 30, 114
1, 3457, Note_on_c, 5, 30, 78
1, 3457, Note_on_c, 0, 42, 111
1, 3457, Note_on_c, 5, 42, 78
1, 3457, Note_on_c, 6, 80, 103
1, 3460, Pitch_bend_c, 6, 256
1, 3464, Pitch_bend_c, 6, 384
1, 3468, Pitch_bend_c, 6, 640
1, 3472, Pitch_bend_c, 6, 768
1, 3476, Pitch_bend_c, 6, 896
1, 3479, Note_on_c, 9, 42, 38
1, 3480, Note_on_c, 9, 42, 0
1, 3480, Pitch_bend_c, 6, 1152
1, 3484, Pitch_bend_c, 6, 1280
1, 3488, Pitch_bend_c, 6, 1408
1, 3492, Pitch_bend_c, 6, 1664
1, 3496, Pitch_bend_c, 6, 1792
1, 3500, Pitch_bend_c, 6, 1920
1, 3503, Note_on_c, 9, 42, 65
1, 3504, Note_on_c, 9, 42, 0
1, 3504, Pitch_bend_c, 6, 2176
1, 3508, Pitch_bend_c, 6, 2304
1, 3512, Pitch_bend_c, 6, 2432
1, 3516, Pitch_bend_c, 6, 2688
1, 3520, Pitch_bend_c, 6, 2816
1, 3524, Pitch_bend_c, 6, 2944
1, 3527, Note_on_c, 9, 42, 36
1, 3528, Note_on_c, 9, 42, 0
1, 3528, Pitch_bend_c, 6, 3200
1, 3532, Pitch_bend_c, 6, 3328
1, 3536, Pitch_bend_c, 6, 3456
1, 3540, Pitch_bend_c, 6, 3712
1, 3544, Pitch_bend_c, 6, 3840
1, 3548, Pitch_bend_c, 6, 3968
1, 3552, Note_on_c, 9, 42, 101
1, 3552, Pitch_bend_c, 6, 4224
1, 3553, Note_on_c, 9, 42, 0
1, 3555, Note_on_c, 0, 42, 0
1, 3556, Pitch_bend_c, 6, 4352
1, 3560, Pitch_bend_c, 6, 4480
1, 3564, Note_on_c, 0, 30, 0
1, 3564, Pitch_bend_c, 6, 4736
1, 3565, Note_on_c, 5, 42, 0
1, 3566, Note_on_c, 5, 30, 0
1, 3568, Pitch_bend_c, 6, 4864
1, 3572, Pitch_bend_c, 6, 4992
1, 3576, Pitch_bend_c, 6, 5248
1, 3580, Pitch_bend_c, 6, 5376
1, 3584, Pitch_bend_c, 6, 5504
1, 3588, Pitch_bend_c, 6, 5760
1, 3592, Pitch_bend_c, 6, 5888
1, 3596, Pitch_bend_c, 6, 6016
1, 3599, Note_on_c, 5, 47, 91
1, 3599, Note_on_c, 5, 35, 90
1, 3599, Note_on_c, 0, 47, 120
1, 3599, Note_on_c, 0, 35, 112
1, 3600, Note_on_c, 4, 42, 0
1, 3600, Note_on_c, 4, 30, 0
1, 3600, Note_on_c, 4, 54, 0
1, 3600, Pitch_bend_c, 6, 6272
1, 3600, Note_on_c, 4, 47, 33
1, 3600, Note_on_c, 4, 35, 35
1, 3600, Note_on_c, 9, 36, 81
1, 3600, Note_on_c, 4, 59, 35
1, 3601, Note_on_c, 9, 36, 0
1, 3601, Note_on_c, 9, 42, 41
1, 3602, Note_on_c, 9, 42, 0
1, 3604, Pitch_bend_c, 6, 6400
1, 3608, Pitch_bend_c, 6, 6528
1, 3612, Pitch_bend_c, 6, 6784
1, 3616, Pitch_bend_c, 6, 6912
1, 3620, Pitch_bend_c, 6, 7040
1, 3624, Pitch_bend_c, 6, 7296
1, 3628, Pitch_bend_c, 6, 7424
1, 3632, Pitch_bend_c, 6, 7552
1, 3636, Pitch_bend_c, 6, 7808
1, 3640, Pitch_bend_c, 6, 7936
1, 3644, Pitch_bend_c, 6, 8064
1, 3648, Pitch_bend_c, 6, 8320
1, 3648, Note_on_c, 9, 36, 75
1, 3649, Note_on_c, 9, 36, 0
1, 3649, Note_on_c, 9, 42, 93
1, 3650, Note_on_c, 9, 42, 0
1, 3652, Pitch_bend_c, 6, 8448
1, 3656, Pitch_bend_c, 6, 8576
1, 3660, Pitch_bend_c, 6, 8832
1, 3664, Pitch_bend_c, 6, 8960
1, 3668, Pitch_bend_c, 6, 9088
1, 3672, Pitch_bend_c, 6, 9344
1, 3676, Pitch_bend_c, 6, 9472
1, 3680, Pitch_bend_c, 6, 9600
1, 3684, Pitch_bend_c, 6, 9856
1, 3688, Pitch_bend_c, 6, 9984
1, 3692, Pitch_bend_c, 6, 10112
1, 3695, Note_on_c, 5, 35, 0
1, 3695, Note_on_c, 0, 33, 100
1, 3696, Note_on_c, 4, 47, 0
1, 3696, Note_on_c, 0, 35, 0
1, 3696, Note_on_c, 4, 35, 0
1, 3696, Note_on_c, 4, 59, 0
1, 3696, Note_on_c, 4, 57, 31
1, 3696, Note_on_c, 4, 45, 30
1, 3696, Pitch_bend_c, 6, 10368
1, 3696, Note_on_c, 4, 33, 31
1, 3697, Note_on_c, 0, 47, 0
1, 3697, Note_on_c, 0, 45, 105
1, 3697, Note_on_c, 5, 33, 74
1, 3697, Note_on_c, 9, 42, 42
1, 3697, Note_on_c, 5, 45, 74
1, 3698, Note_on_c, 9, 42, 0
1, 3699, Note_on_c, 5, 47, 0
1, 3700, Pitch_bend_c, 6, 10496
1, 3704, Pitch_bend_c, 6, 10624
1, 3708, Pitch_bend_c, 6, 10880
1, 3711, Note_on_c, 0, 45, 0
1, 3712, Pitch_bend_c, 6, 11008
1, 3713, Note_on_c, 5, 33, 0
1, 3713, Note_on_c, 0, 33, 0
1, 3716, Note_on_c, 5, 45, 0
1, 3716, Pitch_bend_c, 6, 11136
1, 3720, Note_on_c, 9, 40, 56
1, 3720, Pitch_bend_c, 6, 11392
1, 3721, Note_on_c, 9, 40, 0
1, 3724, Pitch_bend_c, 6, 11520
1, 3728, Pitch_bend_c, 6, 11648
1, 3732, Pitch_bend_c, 6, 11904
1, 3736, Pitch_bend_c, 6, 12032
1, 3740, Pitch_bend_c, 6, 12160
1, 3743, Note_on_c, 3, 76, 105
1, 3743, Lyric_t, "Let's "
1, 3744, Note_on_c, 4, 45, 0
1, 3744, Note_on_c, 4, 57, 0
1, 3744, Note_on_c, 4, 33, 0
1, 3744, Control_c, 3, 1, 0
1, 3744, Note_on_c, 9, 42, 93
1, 3744, Note_on_c, 9, 40, 83
1, 3744, Note_on_c, 4, 64, 47
1, 3744, Pitch_bend_c, 3, 8192
1, 3744, Note_on_c, 4, 52, 42
1, 3744, Note_on_c, 5, 47, 87
1, 3744, Pitch_bend_c, 6, 12416
1, 3744, Note_on_c, 5, 35, 88
1, 3745, Note_on_c, 9, 40, 0
1, 3745, Note_on_c, 9, 42, 0
1, 3745, Note_on_c, 0, 47, 124
1, 3745, Note_on_c, 0, 35, 114
1, 3748, Pitch_bend_c, 6, 12544
1, 3752, Pitch_bend_c, 6, 12672
1, 3756, Pitch_bend_c, 6, 12928
1, 3760, Pitch_bend_c, 6, 13056
1, 3764, Pitch_bend_c, 6, 13184
1, 3768, Pitch_bend_c, 6, 13440
1, 3772, Pitch_bend_c, 6, 13568
1, 3776, Pitch_bend_c, 6, 13696
1, 3780, Pitch_bend_c, 6, 13952
1, 3784, Pitch_bend_c, 6, 14080
1, 3788, Pitch_bend_c, 6, 14208
1, 3792, Note_on_c, 9, 46, 99
1, 3792, Note_on_c, 9, 47, 91
1, 3792, Pitch_bend_c, 6, 14464
1, 3793, Note_on_c, 9, 47, 0
1, 3793, Note_on_c, 9, 46, 0
1, 3795, Note_on_c, 3, 76, 0
1, 3796, Pitch_bend_c, 6, 14592
1, 3800, Pitch_bend_c, 6, 14720
1, 3804, Pitch_bend_c, 6, 14976
1, 3808, Note_on_c, 5, 35, 0
1, 3808, Pitch_bend_c, 6, 15104
1, 3809, Note_on_c, 5, 47, 0
1, 3812, Pitch_bend_c, 6, 15232
1, 3815, Note_on_c, 0, 35, 0
1, 3816, Note_on_c, 0, 47, 0
1, 3816, Pitch_bend_c, 6, 15488
1, 3827, Note_on_c, 7, 90, 0
1, 3833, Note_on_c, 7, 83, 0
1, 3833, Note_on_c, 6, 80, 0
1, 3834, Note_on_c, 7, 95, 0
1, 3836, Pitch_bend_c, 6, 8192
1, 3840, Note_on_c, 4, 52, 0
1, 3840, Note_on_c, 4, 64, 0
1, 3840, Note_on_c, 4, 66, 69
1, 3840, Note_on_c, 6, 83, 110
1, 3840, Note_on_c, 6, 79, 106
1, 3840, Note_on_c, 0, 59, 97
1, 3840, Note_on_c, 9, 36, 110
1, 3840, Note_on_c, 6, 88, 104
1, 3840, Note_on_c, 5, 28, 108
1, 3840, Lyric_t, "groove "
1, 3840, Note_on_c, 4, 54, 69
1, 3840, Note_on_c, 0, 62, 96
1, 3840, Note_on_c, 1, 28, 104
1, 3840, Note_on_c, 0, 55, 100
1, 3840, Note_on_c, 9, 43, 89
1, 3840, Note_on_c, 9, 49, 96
1, 3840, Note_on_c, 3, 78, 112
1, 3841, Note_on_c, 9, 49, 0
1, 3841, Note_on_c, 9, 43, 0
1, 3841, Note_on_c, 9, 36, 0
1, 3841, Control_c, 1, 1, 0
1, 3841, Pitch_bend_c, 1, 8192
1, 3841, Note_on_c, 1, 40, 110
1, 3887, Note_on_c, 9, 42, 37
1, 3888, Note_on_c, 9, 42, 0
1, 3912, Note_on_c, 6, 83, 0
1, 3915, Note_on_c, 6, 79, 0
1, 3915, Note_on_c, 6, 88, 0
1, 3935, Note_on_c, 9, 42, 110
1, 3936, Note_on_c, 9, 42, 0
1, 3936, Note_on_c, 4, 54, 0
1, 3936, Note_on_c, 4, 66, 0
1, 3936, Note_on_c, 4, 50, 69
1, 3936, Note_on_c, 9, 40, 95
1, 3936, Note_on_c, 9, 39, 110
1, 3936, Note_on_c, 9, 60, 77
1, 3936, Note_on_c, 4, 62, 50
1, 3937, Note_on_c, 9, 60, 0
1, 3937, Note_on_c, 9, 39, 0
1, 3937, Note_on_c, 9, 40, 0
1, 3937, Lyric_t, "to"
1, 3937, Pitch_bend_c, 9, 8192
1, 3937, Note_on_c, 3, 74, 93
1, 3937, Control_c, 9, 1, 0
1, 3938, Note_on_c, 3, 78, 0
1, 3952, Note_on_c, 1, 28, 0
1, 3954, Note_on_c, 0, 62, 0
1, 3956, Note_on_c, 0, 59, 0
1, 3956, Note_on_c, 0, 55, 0
1, 3956, Note_on_c, 1, 40, 0
1, 3969, Note_on_c, 5, 28, 0
1, 3982, Note_on_c, 3, 74, 0
1, 3983, Note_on_c, 4, 50, 0
1, 3983, Note_on_c, 4, 62, 0
1, 3983, Note_on_c, 5, 31, 88
1, 3983, Note_on_c, 0, 59, 86
1, 3983, Note_on_c, 0, 55, 94
1, 3983, Note_on_c, 0, 62, 78
1, 3983, Note_on_c, 1, 31, 114
1, 3983, Note_on_c, 1, 43, 100
1, 3984, Note_on_c, 9, 42, 44
1, 3984, Note_on_c, 9, 36, 91
1, 3984, Note_on_c, 4, 50, 50
1, 3984, Note_on_c, 4, 62, 54
1, 3985, Note_on_c, 9, 36, 0
1, 3985, Note_on_c, 9, 42, 0
1, 3985, Lyric_t, ""
1, 3985, Lyric_t, "\015"
1, 3985, Note_on_c, 3, 74, 97
1, 3985, Lyric_t, "night, "
1, 3995, Note_on_c, 0, 55, 0
1, 3995, Note_on_c, 0, 62, 0
1, 3995, Note_on_c, 0, 59, 0
1, 4001, Note_on_c, 1, 31, 0
1, 4001, Note_on_c, 1, 43, 0
1, 4006, Note_on_c, 5, 31, 0
1, 4031, Note_on_c, 9, 42, 95
1, 4031, Note_on_c, 6, 71, 104
1, 4031, Note_on_c, 0, 59, 87
1, 4031, Note_on_c, 0, 55, 102
1, 4031, Note_on_c, 10, 59, 106
1, 4031, Note_on_c, 0, 62, 87
1, 4032, Note_on_c, 9, 42, 0
1, 4032, Note_on_c, 3, 74, 0
1, 4032, Note_on_c, 4, 50, 0
1, 4032, Note_on_c, 4, 62, 0
1, 4032, Note_on_c, 4, 57, 45
1, 4032, Note_on_c, 9, 36, 110
1, 4032, Note_on_c, 4, 33, 45
1, 4032, Note_on_c, 4, 45, 38
1, 4032, Note_on_c, 1, 33, 112
1, 4032, Note_on_c, 1, 45, 117
1, 4033, Note_on_c, 9, 36, 0
1, 4033, Note_on_c, 5, 33, 108
1, 4078, Note_on_c, 6, 71, 0
1, 4079, Note_on_c, 9, 42, 39
1, 4080, Note_on_c, 9, 42, 0
1, 4081, Note_on_c, 10, 59, 0
1, 4081, Note_on_c, 10, 62, 98
1, 4081, Note_on_c, 6, 74, 97
1, 4110, Note_on_c, 0, 62, 0
1, 4110, Note_on_c, 0, 59, 0
1, 4110, Note_on_c, 0, 55, 0
1, 4112, Note_on_c, 1, 33, 0
1, 4116, Note_on_c, 5, 33, 0
1, 4118, Note_on_c, 1, 45, 0
1, 4120, Note_on_c, 10, 62, 0
1, 4124, Note_on_c, 6, 74, 0
1, 4127, Note_on_c, 5, 31, 102
1, 4127, Note_on_c, 10, 64, 94
1, 4127, Note_on_c, 9, 42, 110
1, 4128, Note_on_c, 9, 42, 0
1, 4128, Note_on_c, 4, 33, 0
1, 4128, Note_on_c, 4, 57, 0
1, 4128, Note_on_c, 4, 45, 0
1, 4128, Note_on_c, 1, 31, 100
1, 4128, Note_on_c, 9, 36, 110
1, 4128, Note_on_c, 1, 43, 112
1, 4128, Note_on_c, 9, 60, 77
1, 4128, Note_on_c, 4, 55, 42
1, 4128, Note_on_c, 4, 43, 47
1, 4128, Note_on_c, 4, 31, 42
1, 4128, Note_on_c, 9, 40, 110
1, 4128, Note_on_c, 9, 39, 110
1, 4129, Note_on_c, 9, 39, 0
1, 4129, Note_on_c, 9, 40, 0
1, 4129, Note_on_c, 9, 60, 0
1, 4129, Note_on_c, 9, 36, 0
1, 4129, Note_on_c, 0, 62, 87
1, 4129, Note_on_c, 0, 59, 93
1, 4129, Note_on_c, 0, 55, 104
1, 4129, Note_on_c, 6, 76, 88
1, 4174, Note_on_c, 10, 64, 0
1, 4176, Note_on_c, 6, 76, 0
1, 4177, Note_on_c, 6, 78, 95
1, 4177, Note_on_c, 9, 42, 42
1, 4177, Note_on_c, 10, 66, 99
1, 4178, Note_on_c, 9, 42, 0
1, 4182, Note_on_c, 0, 55, 0
1, 4185, Note_on_c, 0, 59, 0
1, 4188, Note_on_c, 0, 62, 0
1, 4204, Note_on_c, 5, 31, 0
1, 4205, Note_on_c, 1, 31, 0
1, 4207, Note_on_c, 1, 43, 0
1, 4210, Note_on_c, 6, 78, 0
1, 4224, Note_on_c, 4, 31, 0
1, 4224, Note_on_c, 4, 55, 0
1, 4224, Note_on_c, 4, 43, 0
1, 4224, Note_on_c, 4, 42, 43
1, 4224, Note_on_c, 4, 54, 31
1, 4224, Note_on_c, 9, 36, 110
1, 4224, Note_on_c, 4, 30, 31
1, 4224, Note_on_c, 9, 42, 96
1, 4225, Note_on_c, 9, 42, 0
1, 4225, Note_on_c, 10, 66, 0
1, 4225, Note_on_c, 9, 36, 0
1, 4225, Note_on_c, 0, 61, 95
1, 4225, Note_on_c, 0, 64, 97
1, 4225, Note_on_c, 1, 42, 99
1, 4225, Note_on_c, 0, 57, 94
1, 4225, Note_on_c, 1, 30, 97
1, 4225, Note_on_c, 5, 30, 107
1, 4271, Note_on_c, 9, 42, 37
1, 4272, Note_on_c, 9, 42, 0
1, 4273, Note_on_c, 10, 62, 102
1, 4273, Note_on_c, 6, 74, 98
1, 4299, Note_on_c, 6, 74, 0
1, 4310, Note_on_c, 10, 62, 0
1, 4319, Note_on_c, 9, 42, 110
1, 4320, Note_on_c, 9, 42, 0
1, 4320, Note_on_c, 9, 39, 110
1, 4320, Note_on_c, 9, 60, 77
1, 4320, Note_on_c, 9, 40, 95
1, 4321, Note_on_c, 9, 40, 0
1, 4321, Note_on_c, 9, 39, 0
1, 4321, Note_on_c, 9, 60, 0
1, 4331, Note_on_c, 0, 61, 0
1, 4332, Note_on_c, 1, 30, 0
1, 4332, Note_on_c, 0, 64, 0
1, 4332, Note_on_c, 0, 57, 0
1, 4335, Note_on_c, 1, 42, 0
1, 4343, Note_on_c, 5, 30, 0
1, 4368, Note_on_c, 4, 42, 0
1, 4368, Note_on_c, 4, 54, 0
1, 4368, Note_on_c, 4, 30, 0
1, 4368, Note_on_c, 0, 62, 110
1, 4368, Note_on_c, 1, 47, 110
1, 4368, Note_on_c, 0, 57, 97
1, 4368, Note_on_c, 9, 36, 91
1, 4368, Note_on_c, 4, 59, 35
1, 4368, Note_on_c, 4, 35, 35
1, 4368, Note_on_c, 0, 66, 99
1, 4368, Note_on_c, 1, 35, 98
1, 4368, Note_on_c, 10, 57, 104
1, 4368, Note_on_c, 9, 42, 44
1, 4368, Note_on_c, 4, 47, 33
1, 4369, Note_on_c, 9, 42, 0
1, 4369, Note_on_c, 9, 36, 0
1, 4369, Note_on_c, 6, 69, 93
1, 4369, Note_on_c, 5, 35, 102
1, 4415, Note_on_c, 9, 42, 95
1, 4416, Note_on_c, 9, 42, 0
1, 4416, Note_on_c, 9, 36, 110
1, 4417, Note_on_c, 9, 36, 0
1, 4439, Note_on_c, 0, 62, 0
1, 4442, Note_on_c, 0, 66, 0
1, 4446, Note_on_c, 0, 57, 0
1, 4456, Note_on_c, 10, 57, 0
1, 4456, Note_on_c, 1, 47, 0
1, 4462, Note_on_c, 1, 35, 0
1, 4463, Note_on_c, 5, 35, 0
1, 4463, Note_on_c, 1, 45, 97
1, 4463, Note_on_c, 1, 33, 100
1, 4463, Note_on_c, 6, 71, 84
1, 4463, Note_on_c, 9, 42, 39
1, 4463, Note_on_c, 0, 64, 87
1, 4463, Note_on_c, 5, 33, 87
1, 4463, Note_on_c, 0, 57, 84
1, 4463, Note_on_c, 10, 59, 94
1, 4463, Note_on_c, 0, 61, 88
1, 4464, Note_on_c, 9, 42, 0
1, 4464, Note_on_c, 6, 69, 0
1, 4464, Note_on_c, 4, 35, 0
1, 4464, Note_on_c, 4, 59, 0
1, 4464, Note_on_c, 4, 47, 0
1, 4464, Note_on_c, 4, 33, 31
1, 4464, Note_on_c, 4, 57, 31
1, 4464, Note_on_c, 4, 45, 30
1, 4478, Note_on_c, 0, 64, 0
1, 4478, Note_on_c, 0, 61, 0
1, 4479, Note_on_c, 1, 45, 0
1, 4480, Note_on_c, 0, 57, 0
1, 4480, Note_on_c, 1, 33, 0
1, 4482, Note_on_c, 5, 33, 0
1, 4504, Note_on_c, 10, 59, 0
1, 4508, Note_on_c, 6, 71, 0
1, 4511, Note_on_c, 1, 35, 97
1, 4511, Note_on_c, 0, 66, 107
1, 4511, Note_on_c, 3, 74, 101
1, 4511, Note_on_c, 9, 42, 110
1, 4511, Note_on_c, 0, 57, 100
1, 4511, Note_on_c, 0, 62, 118
1, 4511, Lyric_t, "share "
1, 4511, Note_on_c, 5, 35, 106
1, 4511, Note_on_c, 6, 74, 103
1, 4511, Note_on_c, 10, 62, 111
1, 4512, Note_on_c, 9, 42, 0
1, 4512, Note_on_c, 4, 45, 0
1, 4512, Note_on_c, 4, 33, 0
1, 4512, Note_on_c, 4, 57, 0
1, 4512, Note_on_c, 4, 62, 58
1, 4512, Note_on_c, 9, 39, 110
1, 4512, Note_on_c, 9, 40, 110
1, 4512, Note_on_c, 4, 50, 58
1, 4512, Note_on_c, 1, 47, 120
1, 4512, Note_on_c, 9, 60, 77
1, 4512, Note_on_c, 9, 36, 110
1, 4513, Note_on_c, 9, 36, 0
1, 4513, Note_on_c, 9, 39, 0
1, 4513, Note_on_c, 9, 60, 0
1, 4513, Note_on_c, 9, 40, 0
1, 4553, Note_on_c, 6, 74, 0
1, 4555, Note_on_c, 10, 62, 0
1, 4559, Note_on_c, 6, 74, 78
1, 4560, Note_on_c, 4, 62, 0
1, 4560, Note_on_c, 4, 50, 0
1, 4560, Lyric_t, "the "
1, 4560, Note_on_c, 3, 76, 87
1, 4560, Note_on_c, 4, 52, 44
1, 4560, Note_on_c, 4, 64, 44
1, 4561, Note_on_c, 3, 74, 0
1, 4561, Note_on_c, 10, 62, 79
1, 4561, Note_on_c, 9, 42, 42
1, 4562, Note_on_c, 9, 42, 0
1, 4588, Note_on_c, 0, 57, 0
1, 4588, Note_on_c, 0, 62, 0
1, 4588, Note_on_c, 0, 66, 0
1, 4590, Note_on_c, 6, 74, 0
1, 4598, Note_on_c, 1, 47, 0
1, 4598, Note_on_c, 1, 35, 0
1, 4600, Note_on_c, 10, 62, 0
1, 4604, Note_on_c, 3, 76, 0
1, 4605, Note_on_c, 5, 35, 0
1, 4608, Note_on_c, 4, 52, 0
1, 4608, Note_on_c, 4, 64, 0
1, 4608, Note_on_c, 0, 62, 96
1, 4608, Note_on_c, 4, 66, 63
1, 4608, Note_on_c, 9, 36, 110
1, 4608, Note_on_c, 9, 42, 96
1, 4608, Note_on_c, 0, 59, 97
1, 4608, Lyric_t, "spice "
1, 4608, Note_on_c, 4, 54, 58
1, 4608, Note_on_c, 3, 78, 106
1, 4608, Note_on_c, 1, 28, 104
1, 4608, Note_on_c, 0, 55, 100
1, 4609, Note_on_c, 9, 42, 0
1, 4609, Note_on_c, 9, 36, 0
1, 4609, Note_on_c, 9, 43, 86
1, 4609, Note_on_c, 1, 40, 110
1, 4609, Note_on_c, 5, 28, 98
1, 4610, Note_on_c, 9, 43, 0
1, 4654, Note_on_c, 3, 78, 0
1, 4655, Note_on_c, 9, 42, 37
1, 4655, Lyric_t, "of "
1, 4655, Note_on_c, 3, 74, 78
1, 4656, Note_on_c, 9, 42, 0
1, 4656, Note_on_c, 4, 66, 0
1, 4656, Note_on_c, 4, 54, 0
1, 4656, Note_on_c, 4, 50, 58
1, 4656, Note_on_c, 4, 62, 35
1, 4700, Note_on_c, 3, 74, 0
1, 4703, Note_on_c, 4, 62, 0
1, 4703, Note_on_c, 4, 50, 0
1, 4703, Note_on_c, 10, 59, 117
1, 4703, Note_on_c, 3, 74, 101
1, 4703, Lyric_t, ""
1, 4703, Lyric_t, "\015"
1, 4703, Lyric_t, "life. "
1, 4703, Note_on_c, 9, 42, 110
1, 4704, Note_on_c, 9, 42, 0
1, 4704, Note_on_c, 4, 50, 58
1, 4704, Note_on_c, 4, 62, 58
1, 4704, Note_on_c, 6, 83, 127
1, 4704, Note_on_c, 9, 39, 110
1, 4704, Note_on_c, 9, 60, 77
1, 4704, Note_on_c, 9, 40, 95
1, 4705, Note_on_c, 9, 40, 0
1, 4705, Note_on_c, 9, 60, 0
1, 4705, Note_on_c, 9, 39, 0
1, 4720, Note_on_c, 1, 28, 0
1, 4722, Note_on_c, 0, 62, 0
1, 4724, Note_on_c, 1, 40, 0
1, 4724, Note_on_c, 0, 59, 0
1, 4724, Note_on_c, 0, 55, 0
1, 4735, Note_on_c, 5, 28, 0
1, 4748, Note_on_c, 6, 83, 0
1, 4751, Note_on_c, 10, 59, 0
1, 4751, Note_on_c, 3, 74, 0
1, 4751, Note_on_c, 5, 31, 97
1, 4751, Note_on_c, 10, 57, 94
1, 4751, Note_on_c, 0, 62, 78
1, 4751, Note_on_c, 1, 43, 100
1, 4751, Note_on_c, 3, 76, 77
1, 4751, Note_on_c, 1, 31, 114
1, 4751, Note_on_c, 0, 59, 86
1, 4751, Note_on_c, 0, 55, 94
1, 4752, Note_on_c, 4, 50, 0
1, 4752, Note_on_c, 4, 62, 0
1, 4752, Note_on_c, 9, 42, 44
1, 4752, Note_on_c, 4, 52, 34
1, 4752, Note_on_c, 9, 36, 91
1, 4752, Note_on_c, 4, 64, 34
1, 4753, Note_on_c, 9, 36, 0
1, 4753, Note_on_c, 9, 42, 0
1, 4753, Note_on_c, 6, 81, 117
1, 4763, Note_on_c, 0, 55, 0
1, 4763, Note_on_c, 0, 59, 0
1, 4763, Note_on_c, 0, 62, 0
1, 4769, Note_on_c, 1, 31, 0
1, 4769, Note_on_c, 1, 43, 0
1, 4769, Note_on_c, 5, 31, 0
1, 4799, Note_on_c, 0, 55, 102
1, 4799, Note_on_c, 0, 59, 87
1, 4799, Note_on_c, 9, 42, 95
1, 4799, Note_on_c, 0, 62, 87
1, 4800, Note_on_c, 9, 42, 0
1, 4800, Note_on_c, 4, 64, 0
1, 4800, Note_on_c, 4, 52, 0
1, 4800, Note_on_c, 4, 45, 38
1, 4800, Note_on_c, 1, 45, 117
1, 4800, Note_on_c, 1, 33, 112
1, 4800, Note_on_c, 4, 57, 45
1, 4800, Note_on_c, 9, 36, 110
1, 4800, Note_on_c, 4, 33, 45
1, 4801, Note_on_c, 9, 36, 0
1, 4801, Note_on_c, 5, 33, 100
1, 4802, Note_on_c, 3, 76, 0
1, 4847, Note_on_c, 9, 42, 39
1, 4848, Note_on_c, 9, 42, 0
1, 4874, Note_on_c, 5, 33, 0
1, 4878, Note_on_c, 0, 62, 0
1, 4878, Note_on_c, 0, 59, 0
1, 4878, Note_on_c, 0, 55, 0
1, 4880, Note_on_c, 1, 33, 0
1, 4886, Note_on_c, 1, 45, 0
1, 4888, Note_on_c, 6, 81, 0
1, 4888, Note_on_c, 10, 57, 0
1, 4895, Note_on_c, 6, 79, 123
1, 4895, Note_on_c, 9, 42, 110
1, 4895, Note_on_c, 10, 55, 114
1, 4895, Lyric_t, ""
1, 4895, Lyric_t, "\015"
1, 4895, Note_on_c, 5, 31, 94
1, 4896, Note_on_c, 9, 42, 0
1, 4896, Note_on_c, 4, 45, 0
1, 4896, Note_on_c, 4, 57, 0
1, 4896, Note_on_c, 4, 33, 0
1, 4896, Note_on_c, 9, 40, 110
1, 4896, Note_on_c, 9, 36, 110
1, 4896, Note_on_c, 9, 39, 110
1, 4896, Note_on_c, 1, 43, 112
1, 4896, Note_on_c, 9, 60, 77
1, 4896, Note_on_c, 4, 31, 42
1, 4896, Note_on_c, 1, 31, 100
1, 4896, Note_on_c, 4, 43, 47
1, 4896, Note_on_c, 4, 55, 42
1, 4897, Note_on_c, 9, 60, 0
1, 4897, Note_on_c, 9, 39, 0
1, 4897, Note_on_c, 9, 40, 0
1, 4897, Note_on_c, 9, 36, 0
1, 4897, Note_on_c, 0, 55, 104
1, 4897, Note_on_c, 0, 59, 93
1, 4897, Note_on_c, 0, 62, 87
1, 4941, Note_on_c, 6, 79, 0
1, 4943, Note_on_c, 10, 55, 0
1, 4945, Note_on_c, 10, 54, 104
1, 4945, Note_on_c, 9, 42, 42
1, 4945, Note_on_c, 6, 78, 117
1, 4946, Note_on_c, 9, 42, 0
1, 4950, Note_on_c, 0, 55, 0
1, 4953, Note_on_c, 0, 59, 0
1, 4956, Note_on_c, 0, 62, 0
1, 4973, Note_on_c, 1, 31, 0
1, 4975, Note_on_c, 1, 43, 0
1, 4976, Note_on_c, 5, 31, 0
1, 4992, Note_on_c, 4, 31, 0
1, 4992, Note_on_c, 4, 55, 0
1, 4992, Note_on_c, 4, 43, 0
1, 4992, Note_on_c, 9, 36, 110
1, 4992, Note_on_c, 9, 42, 96
1, 4992, Note_on_c, 4, 42, 43
1, 4992, Note_on_c, 4, 30, 31
1, 4992, Note_on_c, 4, 54, 31
1, 4993, Note_on_c, 9, 42, 0
1, 4993, Note_on_c, 9, 36, 0
1, 4993, Note_on_c, 0, 64, 97
1, 4993, Note_on_c, 1, 30, 97
1, 4993, Note_on_c, 0, 61, 95
1, 4993, Note_on_c, 0, 57, 94
1, 4993, Note_on_c, 1, 42, 99
1, 4993, Note_on_c, 5, 30, 95
1, 5039, Note_on_c, 9, 42, 37
1, 5040, Note_on_c, 9, 42, 0
1, 5081, Note_on_c, 10, 54, 0
1, 5084, Note_on_c, 6, 78, 0
1, 5087, Note_on_c, 6, 85, 123
1, 5087, Note_on_c, 10, 61, 113
1, 5087, Note_on_c, 9, 42, 110
1, 5088, Note_on_c, 9, 42, 0
1, 5088, Note_on_c, 9, 60, 77
1, 5088, Note_on_c, 9, 39, 110
1, 5088, Note_on_c, 9, 40, 95
1, 5089, Note_on_c, 9, 40, 0
1, 5089, Note_on_c, 9, 39, 0
1, 5089, Note_on_c, 9, 60, 0
1, 5099, Note_on_c, 0, 61, 0
1, 5100, Note_on_c, 0, 57, 0
1, 5100, Note_on_c, 1, 30, 0
1, 5100, Note_on_c, 0, 64, 0
1, 5103, Note_on_c, 1, 42, 0
1, 5116, Note_on_c, 5, 30, 0
1, 5134, Note_on_c, 10, 61, 0
1, 5134, Note_on_c, 6, 85, 0
1, 5136, Note_on_c, 4, 54, 0
1, 5136, Note_on_c, 4, 42, 0
1, 5136, Note_on_c, 4, 30, 0
1, 5136, Note_on_c, 4, 47, 33
1, 5136, Note_on_c, 4, 59, 35
1, 5136, Note_on_c, 1, 47, 110
1, 5136, Note_on_c, 9, 36, 91
1, 5136, Note_on_c, 0, 57, 97
1, 5136, Note_on_c, 1, 35, 98
1, 5136, Note_on_c, 9, 42, 44
1, 5136, Note_on_c, 0, 62, 110
1, 5136, Note_on_c, 0, 66, 99
1, 5136, Note_on_c, 5, 35, 100
1, 5136, Note_on_c, 4, 35, 35
1, 5137, Note_on_c, 9, 42, 0
1, 5137, Note_on_c, 9, 36, 0
1, 5137, Note_on_c, 10, 59, 98
1, 5137, Note_on_c, 6, 83, 122
1, 5183, Note_on_c, 9, 42, 95
1, 5184, Note_on_c, 9, 42, 0
1, 5184, Note_on_c, 9, 36, 110
1, 5185, Note_on_c, 9, 36, 0
1, 5207, Note_on_c, 0, 62, 0
1, 5210, Note_on_c, 0, 66, 0
1, 5214, Note_on_c, 0, 57, 0
1, 5224, Note_on_c, 1, 47, 0
1, 5230, Note_on_c, 1, 35, 0
1, 5231, Note_on_c, 0, 64, 87
1, 5231, Note_on_c, 1, 33, 100
1, 5231, Note_on_c, 9, 42, 39
1, 5231, Note_on_c, 0, 61, 88
1, 5231, Note_on_c, 0, 57, 84
1, 5231, Note_on_c, 5, 33, 80
1, 5231, Note_on_c, 1, 45, 97
1, 5232, Note_on_c, 9, 42, 0
1, 5232, Note_on_c, 4, 35, 0
1, 5232, Note_on_c, 4, 47, 0
1, 5232, Note_on_c, 4, 59, 0
1, 5232, Note_on_c, 4, 33, 31
1, 5232, Note_on_c, 4, 45, 30
1, 5232, Note_on_c, 4, 57, 31
1, 5237, Note_on_c, 5, 35, 0
1, 5246, Note_on_c, 0, 61, 0
1, 5246, Note_on_c, 0, 64, 0
1, 5247, Note_on_c, 1, 45, 0
1, 5248, Note_on_c, 1, 33, 0
1, 5248, Note_on_c, 0, 57, 0
1, 5250, Note_on_c, 5, 33, 0
1, 5279, Note_on_c, 3, 74, 97
1, 5279, Note_on_c, 5, 35, 106
1, 5279, Note_on_c, 0, 62, 118
1, 5279, Note_on_c, 9, 42, 110
1, 5279, Lyric_t, "Ba"
1, 5279, Note_on_c, 0, 66, 107
1, 5279, Note_on_c, 0, 57, 100
1, 5279, Note_on_c, 1, 35, 97
1, 5280, Note_on_c, 9, 42, 0
1, 5280, Note_on_c, 4, 33, 0
1, 5280, Note_on_c, 4, 57, 0
1, 5280, Note_on_c, 4, 45, 0
1, 5280, Note_on_c, 6, 83, 0
1, 5280, Note_on_c, 4, 62, 54
1, 5280, Note_on_c, 9, 60, 77
1, 5280, Note_on_c, 9, 39, 110
1, 5280, Note_on_c, 4, 50, 54
1, 5280, Note_on_c, 9, 36, 110
1, 5280, Note_on_c, 1, 47, 120
1, 5280, Note_on_c, 9, 40, 110
1, 5281, Note_on_c, 9, 40, 0
1, 5281, Note_on_c, 9, 60, 0
1, 5281, Note_on_c, 9, 36, 0
1, 5281, Note_on_c, 9, 39, 0
1, 5286, Note_on_c, 10, 59, 0
1, 5327, Note_on_c, 3, 74, 0
1, 5327, Note_on_c, 3, 76, 81
1, 5327, Lyric_t, "by, "
1, 5328, Note_on_c, 4, 62, 0
1, 5328, Note_on_c, 4, 50, 0
1, 5328, Note_on_c, 4, 52, 54
1, 5328, Note_on_c, 4, 64, 38
1, 5329, Note_on_c, 9, 42, 42
1, 5330, Note_on_c, 9, 42, 0
1, 5356, Note_on_c, 0, 66, 0
1, 5356, Note_on_c, 0, 62, 0
1, 5356, Note_on_c, 0, 57, 0
1, 5366, Note_on_c, 1, 47, 0
1, 5366, Note_on_c, 1, 35, 0
1, 5368, Note_on_c, 5, 35, 0
1, 5372, Note_on_c, 3, 76, 0
1, 5375, Note_on_c, 3, 78, 100
1, 5375, Lyric_t, "slice "
1, 5376, Note_on_c, 4, 52, 0
1, 5376, Note_on_c, 4, 64, 0
1, 5376, Note_on_c, 0, 59, 97
1, 5376, Note_on_c, 4, 54, 54
1, 5376, Note_on_c, 0, 55, 100
1, 5376, Note_on_c, 1, 28, 104
1, 5376, Note_on_c, 4, 66, 57
1, 5376, Note_on_c, 9, 36, 110
1, 5376, Note_on_c, 0, 62, 96
1, 5376, Note_on_c, 9, 42, 96
1, 5377, Note_on_c, 9, 42, 0
1, 5377, Note_on_c, 9, 36, 0
1, 5377, Note_on_c, 9, 43, 84
1, 5377, Note_on_c, 5, 28, 98
1, 5377, Note_on_c, 1, 40, 110
1, 5378, Note_on_c, 9, 43, 0
1, 5423, Note_on_c, 3, 78, 0
1, 5423, Note_on_c, 9, 42, 37
1, 5424, Note_on_c, 9, 42, 0
1, 5424, Note_on_c, 4, 54, 0
1, 5424, Note_on_c, 4, 66, 0
1, 5424, Note_on_c, 6, 88, 100
1, 5424, Note_on_c, 3, 74, 77
1, 5424, Note_on_c, 4, 62, 34
1, 5424, Note_on_c, 10, 55, 108
1, 5424, Note_on_c, 10, 64, 108
1, 5424, Note_on_c, 6, 86, 100
1, 5424, Note_on_c, 6, 83, 100
1, 5424, Note_on_c, 4, 50, 54
1, 5424, Lyric_t, "it "
1, 5424, Note_on_c, 6, 79, 100
1, 5436, Note_on_c, 6, 79, 0
1, 5436, Note_on_c, 6, 83, 0
1, 5437, Note_on_c, 6, 86, 0
1, 5439, Note_on_c, 6, 88, 0
1, 5443, Note_on_c, 10, 64, 0
1, 5443, Note_on_c, 10, 55, 0
1, 5469, Note_on_c, 3, 74, 0
1, 5471, Note_on_c, 4, 62, 0
1, 5471, Note_on_c, 4, 50, 0
1, 5471, Note_on_c, 9, 42, 110
1, 5471, Note_on_c, 3, 74, 91
1, 5471, Lyric_t, ""
1, 5471, Lyric_t, "\015"
1, 5471, Lyric_t, "right, "
1, 5472, Note_on_c, 9, 42, 0
1, 5472, Note_on_c, 4, 50, 54
1, 5472, Note_on_c, 9, 39, 110
1, 5472, Note_on_c, 4, 62, 48
1, 5472, Note_on_c, 9, 40, 95
1, 5472, Note_on_c, 6, 79, 108
1, 5472, Note_on_c, 6, 83, 108
1, 5472, Note_on_c, 10, 64, 114
1, 5472, Note_on_c, 9, 60, 77
1, 5472, Note_on_c, 10, 55, 114
1, 5472, Note_on_c, 6, 88, 108
1, 5472, Note_on_c, 6, 86, 108
1, 5473, Note_on_c, 9, 60, 0
1, 5473, Note_on_c, 9, 39, 0
1, 5473, Note_on_c, 9, 40, 0
1, 5488, Note_on_c, 1, 28, 0
1, 5490, Note_on_c, 0, 62, 0
1, 5492, Note_on_c, 1, 40, 0
1, 5492, Note_on_c, 0, 59, 0
1, 5492, Note_on_c, 0, 55, 0
1, 5496, Note_on_c, 10, 55, 0
1, 5496, Note_on_c, 10, 64, 0
1, 5507, Note_on_c, 6, 79, 0
1, 5507, Note_on_c, 6, 88, 0
1, 5507, Note_on_c, 6, 86, 0
1, 5507, Note_on_c, 6, 83, 0
1, 5514, Note_on_c, 5, 28, 0
1, 5519, Note_on_c, 0, 55, 94
1, 5519, Note_on_c, 1, 43, 100
1, 5519, Note_on_c, 0, 62, 78
1, 5519, Note_on_c, 1, 31, 114
1, 5519, Note_on_c, 0, 59, 86
1, 5520, Note_on_c, 4, 50, 0
1, 5520, Note_on_c, 4, 62, 0
1, 5520, Note_on_c, 4, 31, 41
1, 5520, Note_on_c, 9, 42, 44
1, 5520, Note_on_c, 4, 55, 41
1, 5520, Note_on_c, 9, 36, 91
1, 5520, Note_on_c, 4, 43, 44
1, 5521, Note_on_c, 9, 36, 0
1, 5521, Note_on_c, 9, 42, 0
1, 5521, Note_on_c, 5, 31, 90
1, 5522, Note_on_c, 3, 74, 0
1, 5531, Note_on_c, 0, 59, 0
1, 5531, Note_on_c, 0, 55, 0
1, 5531, Note_on_c, 0, 62, 0
1, 5534, Note_on_c, 5, 31, 0
1, 5537, Note_on_c, 1, 31, 0
1, 5537, Note_on_c, 1, 43, 0
1, 5567, Note_on_c, 6, 71, 104
1, 5567, Note_on_c, 9, 42, 95
1, 5567, Note_on_c, 0, 59, 87
1, 5567, Note_on_c, 0, 55, 102
1, 5567, Note_on_c, 0, 62, 87
1, 5567, Note_on_c, 10, 59, 106
1, 5568, Note_on_c, 9, 42, 0
1, 5568, Note_on_c, 4, 31, 0
1, 5568, Note_on_c, 4, 55, 0
1, 5568, Note_on_c, 4, 43, 0
1, 5568, Note_on_c, 4, 45, 38
1, 5568, Note_on_c, 9, 36, 110
1, 5568, Note_on_c, 4, 57, 45
1, 5568, Note_on_c, 4, 33, 45
1, 5568, Note_on_c, 1, 45, 117
1, 5568, Note_on_c, 1, 33, 112
1, 5569, Note_on_c, 9, 36, 0
1, 5569, Note_on_c, 5, 33, 97
1, 5614, Note_on_c, 6, 71, 0
1, 5615, Note_on_c, 9, 42, 39
1, 5616, Note_on_c, 9, 42, 0
1, 5617, Note_on_c, 10, 59, 0
1, 5617, Note_on_c, 6, 74, 97
1, 5617, Note_on_c, 10, 62, 98
1, 5645, Note_on_c, 5, 33, 0
1, 5646, Note_on_c, 0, 62, 0
1, 5646, Note_on_c, 0, 59, 0
1, 5646, Note_on_c, 0, 55, 0
1, 5648, Note_on_c, 1, 33, 0
1, 5654, Note_on_c, 1, 45, 0
1, 5656, Note_on_c, 10, 62, 0
1, 5660, Note_on_c, 6, 74, 0
1, 5663, Note_on_c, 9, 42, 110
1, 5663, Note_on_c, 10, 64, 94
1, 5664, Note_on_c, 9, 42, 0
1, 5664, Note_on_c, 4, 45, 0
1, 5664, Note_on_c, 4, 33, 0
1, 5664, Note_on_c, 4, 57, 0
1, 5664, Note_on_c, 9, 60, 77
1, 5664, Note_on_c, 4, 55, 42
1, 5664, Note_on_c, 1, 31, 100
1, 5664, Note_on_c, 1, 43, 112
1, 5664, Note_on_c, 4, 31, 42
1, 5664, Note_on_c, 9, 39, 110
1, 5664, Note_on_c, 4, 43, 47
1, 5664, Note_on_c, 9, 36, 110
1, 5664, Note_on_c, 9, 40, 110
1, 5665, Note_on_c, 9, 40, 0
1, 5665, Note_on_c, 9, 36, 0
1, 5665, Note_on_c, 9, 39, 0
1, 5665, Note_on_c, 9, 60, 0
1, 5665, Note_on_c, 0, 59, 93
1, 5665, Note_on_c, 0, 62, 87
1, 5665, Note_on_c, 0, 55, 104
1, 5665, Note_on_c, 5, 31, 95
1, 5665, Note_on_c, 6, 76, 88
1, 5710, Note_on_c, 10, 64, 0
1, 5712, Note_on_c, 6, 76, 0
1, 5713, Note_on_c, 6, 78, 95
1, 5713, Note_on_c, 9, 42, 42
1, 5713, Note_on_c, 10, 66, 99
1, 5714, Note_on_c, 9, 42, 0
1, 5718, Note_on_c, 0, 55, 0
1, 5721, Note_on_c, 0, 59, 0
1, 5724, Note_on_c, 0, 62, 0
1, 5741, Note_on_c, 1, 31, 0
1, 5743, Note_on_c, 1, 43, 0
1, 5745, Note_on_c, 5, 31, 0
1, 5746, Note_on_c, 6, 78, 0
1, 5760, Note_on_c, 4, 43, 0
1, 5760, Note_on_c, 4, 31, 0
1, 5760, Note_on_c, 4, 55, 0
1, 5760, Note_on_c, 9, 36, 110
1, 5760, Note_on_c, 4, 42, 43
1, 5760, Note_on_c, 4, 54, 31
1, 5760, Note_on_c, 9, 42, 96
1, 5760, Note_on_c, 4, 30, 31
1, 5761, Note_on_c, 9, 42, 0
1, 5761, Note_on_c, 9, 36, 0
1, 5761, Note_on_c, 10, 66, 0
1, 5761, Note_on_c, 0, 57, 94
1, 5761, Note_on_c, 1, 42, 99
1, 5761, Note_on_c, 1, 30, 97
1, 5761, Note_on_c, 5, 30, 116
1, 5761, Note_on_c, 0, 61, 95
1, 5761, Note_on_c, 0, 64, 97
1, 5807, Note_on_c, 9, 42, 37
1, 5808, Note_on_c, 9, 42, 0
1, 5809, Note_on_c, 10, 62, 102
1, 5809, Note_on_c, 6, 74, 98
1, 5835, Note_on_c, 6, 74, 0
1, 5846, Note_on_c, 10, 62, 0
1, 5855, Note_on_c, 9, 42, 110
1, 5856, Note_on_c, 9, 42, 0
1, 5856, Note_on_c, 9, 40, 95
1, 5856, Note_on_c, 9, 60, 77
1, 5856, Note_on_c, 9, 39, 110
1, 5857, Note_on_c, 9, 39, 0
1, 5857, Note_on_c, 9, 40, 0
1, 5857, Note_on_c, 9, 60, 0
1, 5867, Note_on_c, 0, 61, 0
1, 5868, Note_on_c, 0, 64, 0
1, 5868, Note_on_c, 1, 30, 0
1, 5868, Note_on_c, 0, 57, 0
1, 5871, Note_on_c, 1, 42, 0
1, 5875, Note_on_c, 5, 30, 0
1, 5904, Note_on_c, 4, 54, 0
1, 5904, Note_on_c, 4, 30, 0
1, 5904, Note_on_c, 4, 42, 0
1, 5904, Note_on_c, 10, 57, 104
1, 5904, Note_on_c, 9, 36, 91
1, 5904, Note_on_c, 4, 59, 35
1, 5904, Note_on_c, 4, 47, 33
1, 5904, Note_on_c, 1, 47, 110
1, 5904, Note_on_c, 0, 57, 97
1, 5904, Note_on_c, 0, 62, 110
1, 5904, Note_on_c, 9, 42, 44
1, 5904, Note_on_c, 0, 66, 99
1, 5904, Note_on_c, 4, 35, 35
1, 5904, Note_on_c, 1, 35, 98
1, 5904, Note_on_c, 5, 35, 97
1, 5905, Note_on_c, 9, 42, 0
1, 5905, Note_on_c, 9, 36, 0
1, 5905, Note_on_c, 6, 69, 93
1, 5951, Note_on_c, 9, 42, 95
1, 5952, Note_on_c, 9, 42, 0
1, 5952, Note_on_c, 9, 36, 110
1, 5953, Note_on_c, 9, 36, 0
1, 5975, Note_on_c, 0, 62, 0
1, 5978, Note_on_c, 0, 66, 0
1, 5982, Note_on_c, 0, 57, 0
1, 5992, Note_on_c, 1, 47, 0
1, 5992, Note_on_c, 10, 57, 0
1, 5998, Note_on_c, 1, 35, 0
1, 5999, Note_on_c, 4, 47, 0
1, 5999, Note_on_c, 4, 59, 0
1, 5999, Note_on_c, 10, 59, 94
1, 5999, Note_on_c, 1, 45, 97
1, 5999, Lyric_t, "we're "
1, 5999, Note_on_c, 3, 71, 67
1, 5999, Note_on_c, 0, 64, 87
1, 5999, Note_on_c, 9, 42, 39
1, 5999, Note_on_c, 0, 61, 88
1, 5999, Note_on_c, 1, 33, 100
1, 5999, Note_on_c, 6, 71, 84
1, 5999, Note_on_c, 0, 57, 84
1, 6000, Note_on_c, 9, 42, 0
1, 6000, Note_on_c, 6, 69, 0
1, 6000, Note_on_c, 4, 35, 0
1, 6000, Note_on_c, 4, 59, 24
1, 6000, Note_on_c, 4, 47, 24
1, 6001, Note_on_c, 5, 33, 63
1, 6003, Note_on_c, 5, 35, 0
1, 6007, Note_on_c, 5, 33, 0
1, 6014, Note_on_c, 0, 61, 0
1, 6014, Note_on_c, 0, 64, 0
1, 6015, Note_on_c, 1, 45, 0
1, 6016, Note_on_c, 0, 57, 0
1, 6016, Note_on_c, 1, 33, 0
1, 6040, Note_on_c, 10, 59, 0
1, 6044, Note_on_c, 6, 71, 0
1, 6046, Note_on_c, 3, 71, 0
1, 6047, Note_on_c, 0, 57, 100
1, 6047, Note_on_c, 0, 66, 107
1, 6047, Note_on_c, 1, 35, 97
1, 6047, Note_on_c, 10, 62, 111
1, 6047, Lyric_t, "gon"
1, 6047, Note_on_c, 9, 42, 110
1, 6047, Note_on_c, 0, 62, 118
1, 6047, Note_on_c, 6, 74, 103
1, 6047, Note_on_c, 3, 74, 93
1, 6048, Note_on_c, 9, 42, 0
1, 6048, Note_on_c, 4, 47, 0
1, 6048, Note_on_c, 4, 59, 0
1, 6048, Note_on_c, 9, 39, 110
1, 6048, Note_on_c, 9, 36, 110
1, 6048, Note_on_c, 1, 47, 120
1, 6048, Note_on_c, 9, 40, 110
1, 6048, Note_on_c, 4, 50, 24
1, 6048, Note_on_c, 9, 60, 77
1, 6048, Note_on_c, 4, 62, 50
1, 6049, Note_on_c, 9, 60, 0
1, 6049, Note_on_c, 9, 36, 0
1, 6049, Note_on_c, 9, 39, 0
1, 6049, Note_on_c, 9, 40, 0
1, 6049, Note_on_c, 5, 35, 102
1, 6089, Note_on_c, 6, 74, 0
1, 6091, Note_on_c, 10, 62, 0
1, 6095, Note_on_c, 3, 74, 0
1, 6095, Lyric_t, "na "
1, 6095, Note_on_c, 3, 76, 85
1, 6095, Note_on_c, 6, 74, 78
1, 6096, Note_on_c, 4, 50, 0
1, 6096, Note_on_c, 4, 62, 0
1, 6096, Note_on_c, 4, 64, 42
1, 6096, Note_on_c, 4, 52, 24
1, 6097, Note_on_c, 10, 62, 79
1, 6097, Note_on_c, 9, 42, 42
1, 6098, Note_on_c, 9, 42, 0
1, 6124, Note_on_c, 0, 62, 0
1, 6124, Note_on_c, 0, 66, 0
1, 6124, Note_on_c, 0, 57, 0
1, 6126, Note_on_c, 6, 74, 0
1, 6126, Note_on_c, 5, 35, 0
1, 6134, Note_on_c, 1, 47, 0
1, 6134, Note_on_c, 1, 35, 0
1, 6136, Note_on_c, 10, 62, 0
1, 6141, Note_on_c, 3, 76, 0
1, 6144, Note_on_c, 4, 52, 0
1, 6144, Note_on_c, 4, 64, 0
1, 6144, Note_on_c, 9, 42, 96
1, 6144, Note_on_c, 0, 55, 100
1, 6144, Lyric_t, "groove "
1, 6144, Note_on_c, 4, 54, 42
1, 6144, Note_on_c, 3, 78, 100
1, 6144, Note_on_c, 0, 62, 96
1, 6144, Note_on_c, 9, 36, 110
1, 6144, Note_on_c, 0, 59, 97
1, 6144, Note_on_c, 1, 28, 104
1, 6144, Note_on_c, 4, 66, 57
1, 6145, Note_on_c, 9, 36, 0
1, 6145, Note_on_c, 9, 42, 0
1, 6145, Note_on_c, 9, 43, 86
1, 6145, Note_on_c, 1, 40, 110
1, 6145, Note_on_c, 5, 28, 102
1, 6146, Note_on_c, 9, 43, 0
1, 6191, Note_on_c, 3, 78, 0
1, 6191, Note_on_c, 9, 42, 37
1, 6192, Note_on_c, 9, 42, 0
1, 6192, Note_on_c, 4, 66, 0
1, 6192, Note_on_c, 4, 54, 0
1, 6192, Note_on_c, 3, 74, 87
1, 6192, Lyric_t, "to"
1, 6192, Note_on_c, 4, 62, 44
1, 6192, Note_on_c, 4, 50, 42
1, 6236, Note_on_c, 3, 74, 0
1, 6239, Note_on_c, 4, 50, 0
1, 6239, Note_on_c, 4, 62, 0
1, 6239, Lyric_t, ""
1, 6239, Lyric_t, "\015"
1, 6239, Lyric_t, "night. "
1, 6239, Note_on_c, 9, 42, 110
1, 6239, Note_on_c, 10, 59, 117
1, 6239, Note_on_c, 3, 74, 90
1, 6240, Note_on_c, 9, 42, 0
1, 6240, Note_on_c, 4, 50, 42
1, 6240, Note_on_c, 4, 62, 47
1, 6240, Note_on_c, 6, 83, 127
1, 6240, Note_on_c, 9, 40, 95
1, 6240, Note_on_c, 9, 39, 110
1, 6240, Note_on_c, 9, 60, 77
1, 6241, Note_on_c, 9, 60, 0
1, 6241, Note_on_c, 9, 39, 0
1, 6241, Note_on_c, 9, 40, 0
1, 6256, Note_on_c, 1, 28, 0
1, 6258, Note_on_c, 0, 62, 0
1, 6260, Note_on_c, 0, 55, 0
1, 6260, Note_on_c, 1, 40, 0
1, 6260, Note_on_c, 0, 59, 0
1, 6279, Note_on_c, 5, 28, 0
1, 6284, Note_on_c, 6, 83, 0
1, 6287, Note_on_c, 10, 59, 0
1, 6287, Note_on_c, 3, 74, 0
1, 6287, Note_on_c, 0, 55, 94
1, 6287, Note_on_c, 5, 31, 84
1, 6287, Note_on_c, 10, 57, 94
1, 6287, Note_on_c, 1, 43, 100
1, 6287, Note_on_c, 0, 59, 86
1, 6287, Note_on_c, 1, 31, 114
1, 6287, Note_on_c, 0, 62, 78
1, 6288, Note_on_c, 4, 50, 0
1, 6288, Note_on_c, 4, 62, 0
1, 6288, Note_on_c, 9, 42, 44
1, 6288, Note_on_c, 4, 52, 42
1, 6288, Note_on_c, 4, 64, 35
1, 6288, Note_on_c, 9, 36, 91
1, 6289, Note_on_c, 9, 36, 0
1, 6289, Note_on_c, 9, 42, 0
1, 6289, Note_on_c, 3, 76, 78
1, 6289, Note_on_c, 6, 81, 117
1, 6299, Note_on_c, 0, 62, 0
1, 6299, Note_on_c, 5, 31, 0
1, 6299, Note_on_c, 0, 59, 0
1, 6299, Note_on_c, 0, 55, 0
1, 6305, Note_on_c, 1, 31, 0
1, 6305, Note_on_c, 1, 43, 0
1, 6333, Note_on_c, 3, 76, 0
1, 6335, Note_on_c, 0, 59, 87
1, 6335, Note_on_c, 0, 62, 87
1, 6335, Note_on_c, 9, 42, 95
1, 6335, Note_on_c, 0, 55, 102
1, 6336, Note_on_c, 9, 42, 0
1, 6336, Note_on_c, 4, 64, 0
1, 6336, Note_on_c, 4, 52, 0
1, 6336, Note_on_c, 1, 33, 112
1, 6336, Note_on_c, 1, 45, 117
1, 6336, Note_on_c, 4, 57, 45
1, 6336, Note_on_c, 5, 33, 104
1, 6336, Note_on_c, 4, 45, 38
1, 6336, Note_on_c, 4, 33, 45
1, 6336, Note_on_c, 9, 36, 110
1, 6337, Note_on_c, 9, 36, 0
1, 6383, Note_on_c, 9, 42, 39
1, 6384, Note_on_c, 9, 42, 0
1, 6411, Note_on_c, 5, 33, 0
1, 6414, Note_on_c, 0, 55, 0
1, 6414, Note_on_c, 0, 59, 0
1, 6414, Note_on_c, 0, 62, 0
1, 6416, Note_on_c, 1, 33, 0
1, 6422, Note_on_c, 1, 45, 0
1, 6424, Note_on_c, 10, 57, 0
1, 6424, Note_on_c, 6, 81, 0
1, 6431, Note_on_c, 6, 79, 123
1, 6431, Note_on_c, 10, 55, 114
1, 6431, Note_on_c, 9, 42, 110
1, 6431, Note_on_c, 5, 31, 102
1, 6432, Note_on_c, 9, 42, 0
1, 6432, Note_on_c, 4, 33, 0
1, 6432, Note_on_c, 4, 57, 0
1, 6432, Note_on_c, 4, 45, 0
1, 6432, Note_on_c, 1, 43, 112
1, 6432, Note_on_c, 4, 43, 47
1, 6432, Note_on_c, 9, 36, 110
1, 6432, Note_on_c, 1, 31, 100
1, 6432, Note_on_c, 4, 55, 42
1, 6432, Note_on_c, 9, 60, 77
1, 6432, Note_on_c, 4, 31, 42
1, 6432, Note_on_c, 9, 39, 110
1, 6432, Note_on_c, 9, 40, 110
1, 6433, Note_on_c, 9, 40, 0
1, 6433, Note_on_c, 9, 60, 0
1, 6433, Note_on_c, 9, 36, 0
1, 6433, Note_on_c, 9, 39, 0
1, 6433, Note_on_c, 0, 55, 104
1, 6433, Note_on_c, 0, 62, 87
1, 6433, Note_on_c, 0, 59, 93
1, 6477, Note_on_c, 6, 79, 0
1, 6479, Note_on_c, 10, 55, 0
1, 6481, Note_on_c, 6, 78, 117
1, 6481, Note_on_c, 10, 54, 104
1, 6481, Note_on_c, 9, 42, 42
1, 6482, Note_on_c, 9, 42, 0
1, 6486, Note_on_c, 0, 55, 0
1, 6489, Note_on_c, 0, 59, 0
1, 6492, Note_on_c, 0, 62, 0
1, 6509, Note_on_c, 1, 31, 0
1, 6511, Note_on_c, 1, 43, 0
1, 6513, Note_on_c, 5, 31, 0
1, 6528, Note_on_c, 4, 55, 0
1, 6528, Note_on_c, 4, 31, 0
1, 6528, Note_on_c, 4, 43, 0
1, 6528, Note_on_c, 9, 36, 110
1, 6528, Note_on_c, 4, 54, 31
1, 6528, Note_on_c, 9, 42, 96
1, 6528, Note_on_c, 4, 42, 43
1, 6528, Note_on_c, 4, 30, 31
1, 6529, Note_on_c, 9, 42, 0
1, 6529, Note_on_c, 9, 36, 0
1, 6529, Note_on_c, 0, 61, 95
1, 6529, Note_on_c, 1, 42, 99
1, 6529, Note_on_c, 0, 64, 97
1, 6529, Note_on_c, 5, 30, 110
1, 6529, Note_on_c, 0, 57, 94
1, 6529, Note_on_c, 1, 30, 97
1, 6575, Note_on_c, 9, 42, 37
1, 6576, Note_on_c, 9, 42, 0
1, 6613, Lyric_t, ""
1, 6613, Lyric_t, "\015"
1, 6617, Note_on_c, 10, 54, 0
1, 6620, Note_on_c, 6, 78, 0
1, 6623, Note_on_c, 9, 42, 110
1, 6623, Note_on_c, 6, 85, 123
1, 6623, Note_on_c, 10, 61, 113
1, 6624, Note_on_c, 9, 42, 0
1, 6624, Note_on_c, 9, 60, 77
1, 6624, Note_on_c, 9, 40, 95
1, 6624, Note_on_c, 9, 39, 110
1, 6625, Note_on_c, 9, 39, 0
1, 6625, Note_on_c, 9, 40, 0
1, 6625, Note_on_c, 9, 60, 0
1, 6635, Note_on_c, 0, 61, 0
1, 6636, Note_on_c, 0, 64, 0
1, 6636, Note_on_c, 0, 57, 0
1, 6636, Note_on_c, 1, 30, 0
1, 6639, Note_on_c, 1, 42, 0
1, 6640, Note_on_c, 5, 30, 0
1, 6670, Note_on_c, 6, 85, 0
1, 6670, Note_on_c, 10, 61, 0
1, 6672, Note_on_c, 4, 42, 0
1, 6672, Note_on_c, 4, 30, 0
1, 6672, Note_on_c, 4, 54, 0
1, 6672, Note_on_c, 1, 47, 110
1, 6672, Note_on_c, 4, 35, 35
1, 6672, Note_on_c, 0, 57, 97
1, 6672, Note_on_c, 4, 47, 33
1, 6672, Note_on_c, 1, 35, 98
1, 6672, Note_on_c, 9, 42, 44
1, 6672, Note_on_c, 9, 36, 91
1, 6672, Note_on_c, 0, 62, 110
1, 6672, Note_on_c, 0, 66, 99
1, 6672, Note_on_c, 4, 59, 35
1, 6673, Note_on_c, 9, 36, 0
1, 6673, Note_on_c, 9, 42, 0
1, 6673, Note_on_c, 5, 35, 104
1, 6673, Note_on_c, 10, 59, 98
1, 6673, Note_on_c, 6, 83, 122
1, 6719, Note_on_c, 9, 42, 95
1, 6720, Note_on_c, 9, 42, 0
1, 6720, Note_on_c, 9, 36, 110
1, 6721, Note_on_c, 9, 36, 0
1, 6743, Note_on_c, 0, 62, 0
1, 6746, Note_on_c, 0, 66, 0
1, 6750, Note_on_c, 0, 57, 0
1, 6760, Note_on_c, 1, 47, 0
1, 6766, Note_on_c, 1, 35, 0
1, 6767, Note_on_c, 5, 35, 0
1, 6767, Note_on_c, 1, 45, 97
1, 6767, Note_on_c, 5, 33, 76
1, 6767, Note_on_c, 1, 33, 100
1, 6767, Note_on_c, 9, 46, 87
1, 6767, Note_on_c, 0, 61, 88
1, 6767, Note_on_c, 0, 57, 84
1, 6767, Note_on_c, 0, 64, 87
1, 6768, Note_on_c, 9, 46, 0
1, 6768, Note_on_c, 4, 35, 0
1, 6768, Note_on_c, 4, 59, 0
1, 6768, Note_on_c, 4, 47, 0
1, 6768, Note_on_c, 4, 45, 30
1, 6768, Note_on_c, 4, 33, 31
1, 6768, Note_on_c, 4, 57, 31
1, 6781, Note_on_c, 5, 33, 0
1, 6782, Note_on_c, 0, 61, 0
1, 6782, Note_on_c, 0, 64, 0
1, 6783, Note_on_c, 1, 45, 0
1, 6784, Note_on_c, 0, 57, 0
1, 6784, Note_on_c, 1, 33, 0
1, 6815, Note_on_c, 5, 35, 104
1, 6815, Note_on_c, 1, 35, 97
1, 6815, Note_on_c, 9, 42, 110
1, 6815, Note_on_c, 0, 62, 118
1, 6815, Note_on_c, 0, 66, 107
1, 6815, Note_on_c, 0, 57, 100
1, 6816, Note_on_c, 9, 42, 0
1, 6816, Note_on_c, 6, 83, 0
1, 6816, Note_on_c, 4, 57, 0
1, 6816, Note_on_c, 4, 45, 0
1, 6816, Note_on_c, 4, 33, 0
1, 6816, Note_on_c, 4, 59, 42
1, 6816, Note_on_c, 4, 35, 42
1, 6816, Note_on_c, 9, 39, 110
1, 6816, Note_on_c, 9, 60, 77
1, 6816, Note_on_c, 9, 40, 110
1, 6816, Note_on_c, 4, 47, 42
1, 6816, Note_on_c, 9, 36, 110
1, 6816, Note_on_c, 1, 47, 120
1, 6817, Note_on_c, 9, 36, 0
1, 6817, Note_on_c, 9, 60, 0
1, 6817, Note_on_c, 9, 39, 0
1, 6817, Note_on_c, 9, 40, 0
1, 6822, Note_on_c, 10, 59, 0
1, 6864, Note_on_c, 9, 40, 27
1, 6865, Note_on_c, 9, 40, 0
1, 6865, Note_on_c, 9, 42, 42
1, 6866, Note_on_c, 9, 42, 0
1, 6888, Note_on_c, 9, 40, 104
1, 6889, Note_on_c, 9, 40, 0
1, 6892, Note_on_c, 0, 62, 0
1, 6892, Note_on_c, 0, 66, 0
1, 6892, Note_on_c, 0, 57, 0
1, 6895, Note_on_c, 5, 35, 0
1, 6902, Note_on_c, 1, 35, 0
1, 6902, Note_on_c, 1, 47, 0
1, 6912, Note_on_c, 4, 35, 0
1, 6912, Note_on_c, 4, 59, 0
1, 6912, Note_on_c, 4, 47, 0
1, 6912, Note_on_c, 0, 55, 100
1, 6912, Note_on_c, 0, 62, 96
1, 6912, Note_on_c, 9, 49, 96
1, 6912, Note_on_c, 1, 28, 104
1, 6912, Note_on_c, 0, 59, 97
1, 6912, Note_on_c, 9, 36, 110
1, 6913, Note_on_c, 9, 36, 0
1, 6913, Note_on_c, 9, 49, 0
1, 6913, Note_on_c, 9, 43, 85
1, 6913, Note_on_c, 1, 40, 110
1, 6914, Note_on_c, 9, 43, 0
1, 6959, Note_on_c, 9, 42, 37
1, 6959, Note_on_c, 2, 62, 59
1, 6960, Note_on_c, 9, 42, 0
1, 6960, Control_c, 2, 1, 0
1, 6960, Note_on_c, 2, 67, 86
1, 6960, Pitch_bend_c, 2, 8192
1, 6961, Note_on_c, 2, 71, 72
1, 6979, Note_on_c, 2, 67, 0
1, 6979, Note_on_c, 2, 62, 0
1, 6982, Note_on_c, 2, 71, 0
1, 6984, Note_on_c, 2, 62, 81
1, 6984, Note_on_c, 2, 71, 81
1, 7005, Note_on_c, 2, 71, 0
1, 7005, Note_on_c, 2, 62, 0
1, 7006, Note_on_c, 2, 67, 99
1, 7007, Note_on_c, 9, 42, 110
1, 7007, Note_on_c, 2, 71, 101
1, 7008, Note_on_c, 9, 42, 0
1, 7008, Note_on_c, 9, 40, 95
1, 7008, Note_on_c, 9, 39, 110
1, 7008, Note_on_c, 4, 74, 47
1, 7008, Note_on_c, 9, 60, 77
1, 7009, Note_on_c, 9, 60, 0
1, 7009, Note_on_c, 9, 39, 0
1, 7009, Note_on_c, 9, 40, 0
1, 7009, Lyric_t, "Let "
1, 7009, Note_on_c, 3, 74, 105
1, 7011, Note_on_c, 2, 71, 0
1, 7012, Note_on_c, 2, 67, 0
1, 7024, Note_on_c, 1, 28, 0
1, 7026, Note_on_c, 0, 62, 0
1, 7028, Note_on_c, 1, 40, 0
1, 7028, Note_on_c, 0, 59, 0
1, 7028, Note_on_c, 0, 55, 0
1, 7054, Note_on_c, 3, 74, 0
1, 7055, Note_on_c, 4, 74, 0
1, 7055, Note_on_c, 0, 55, 94
1, 7055, Lyric_t, "this "
1, 7055, Note_on_c, 0, 59, 86
1, 7055, Note_on_c, 3, 74, 97
1, 7055, Note_on_c, 1, 43, 100
1, 7055, Note_on_c, 1, 31, 114
1, 7055, Note_on_c, 0, 62, 78
1, 7056, Note_on_c, 4, 74, 47
1, 7056, Note_on_c, 9, 36, 91
1, 7056, Note_on_c, 9, 42, 44
1, 7056, Note_on_c, 2, 62, 78
1, 7057, Note_on_c, 9, 42, 0
1, 7057, Note_on_c, 9, 36, 0
1, 7057, Note_on_c, 2, 67, 100
1, 7058, Note_on_c, 2, 71, 104
1, 7064, Note_on_c, 2, 62, 0
1, 7066, Note_on_c, 2, 71, 0
1, 7066, Note_on_c, 2, 67, 0
1, 7067, Note_on_c, 0, 62, 0
1, 7067, Note_on_c, 0, 55, 0
1, 7067, Note_on_c, 0, 59, 0
1, 7073, Note_on_c, 1, 31, 0
1, 7073, Note_on_c, 1, 43, 0
1, 7103, Note_on_c, 3, 74, 0
1, 7103, Note_on_c, 1, 33, 112
1, 7103, Note_on_c, 1, 45, 117
1, 7103, Note_on_c, 3, 71, 85
1, 7103, Note_on_c, 0, 62, 87
1, 7103, Note_on_c, 9, 42, 95
1, 7103, Note_on_c, 0, 59, 87
1, 7103, Note_on_c, 0, 55, 102
1, 7103, Lyric_t, "groove "
1, 7104, Note_on_c, 9, 42, 0
1, 7104, Note_on_c, 4, 74, 0
1, 7104, Note_on_c, 9, 36, 110
1, 7104, Note_on_c, 4, 71, 36
1, 7105, Note_on_c, 9, 36, 0
1, 7151, Note_on_c, 9, 42, 39
1, 7152, Note_on_c, 9, 42, 0
1, 7153, Note_on_c, 2, 67, 61
1, 7154, Note_on_c, 2, 62, 19
1, 7154, Note_on_c, 2, 71, 56
1, 7169, Note_on_c, 2, 71, 0
1, 7175, Note_on_c, 2, 71, 47
1, 7182, Note_on_c, 0, 62, 0
1, 7182, Note_on_c, 0, 55, 0
1, 7182, Note_on_c, 0, 59, 0
1, 7183, Note_on_c, 1, 33, 0
1, 7189, Note_on_c, 1, 45, 0
1, 7195, Note_on_c, 3, 71, 0
1, 7197, Note_on_c, 2, 67, 0
1, 7199, Note_on_c, 1, 43, 112
1, 7199, Note_on_c, 1, 31, 100
1, 7199, Note_on_c, 2, 67, 99
1, 7199, Note_on_c, 9, 42, 110
1, 7200, Note_on_c, 9, 42, 0
1, 7200, Note_on_c, 9, 40, 110
1, 7200, Note_on_c, 9, 36, 110
1, 7200, Note_on_c, 9, 60, 77
1, 7200, Note_on_c, 9, 39, 110
1, 7201, Note_on_c, 9, 39, 0
1, 7201, Note_on_c, 9, 60, 0
1, 7201, Note_on_c, 9, 40, 0
1, 7201, Note_on_c, 9, 36, 0
1, 7201, Note_on_c, 0, 55, 104
1, 7201, Note_on_c, 0, 59, 93
1, 7201, Note_on_c, 0, 62, 87
1, 7202, Note_on_c, 2, 71, 0
1, 7205, Note_on_c, 2, 67, 0
1, 7205, Note_on_c, 2, 62, 0
1, 7249, Note_on_c, 9, 42, 42
1, 7250, Note_on_c, 9, 42, 0
1, 7254, Note_on_c, 0, 55, 0
1, 7257, Note_on_c, 0, 59, 0
1, 7260, Note_on_c, 0, 62, 0
1, 7276, Note_on_c, 1, 31, 0
1, 7278, Note_on_c, 1, 43, 0
1, 7295, Note_on_c, 2, 68, 98
1, 7295, Note_on_c, 2, 63, 76
1, 7296, Note_on_c, 4, 71, 0
1, 7296, Note_on_c, 9, 36, 110
1, 7296, Note_on_c, 2, 72, 101
1, 7296, Lyric_t, "get "
1, 7296, Note_on_c, 9, 42, 96
1, 7296, Note_on_c, 4, 66, 27
1, 7296, Note_on_c, 3, 66, 82
1, 7297, Note_on_c, 9, 42, 0
1, 7297, Note_on_c, 9, 36, 0
1, 7297, Note_on_c, 1, 30, 97
1, 7297, Note_on_c, 0, 64, 97
1, 7297, Note_on_c, 0, 61, 95
1, 7297, Note_on_c, 0, 57, 94
1, 7297, Note_on_c, 1, 42, 99
1, 7310, Note_on_c, 2, 72, 0
1, 7313, Note_on_c, 2, 68, 0
1, 7316, Note_on_c, 2, 73, 83
1, 7317, Note_on_c, 2, 63, 0
1, 7317, Note_on_c, 2, 69, 90
1, 7318, Note_on_c, 2, 64, 73
1, 7343, Note_on_c, 3, 66, 0
1, 7343, Note_on_c, 9, 42, 37
1, 7343, Lyric_t, "you "
1, 7343, Note_on_c, 3, 69, 76
1, 7344, Note_on_c, 9, 42, 0
1, 7344, Note_on_c, 4, 66, 0
1, 7344, Note_on_c, 4, 69, 22
1, 7367, Note_on_c, 2, 69, 0
1, 7369, Note_on_c, 2, 73, 0
1, 7370, Note_on_c, 2, 73, 95
1, 7371, Note_on_c, 2, 69, 82
1, 7391, Note_on_c, 2, 64, 0
1, 7391, Note_on_c, 3, 69, 0
1, 7391, Note_on_c, 3, 73, 80
1, 7391, Lyric_t, "to "
1, 7391, Note_on_c, 9, 42, 110
1, 7392, Note_on_c, 9, 42, 0
1, 7392, Note_on_c, 2, 69, 0
1, 7392, Note_on_c, 2, 73, 0
1, 7392, Note_on_c, 4, 69, 0
1, 7392, Note_on_c, 4, 73, 34
1, 7392, Note_on_c, 9, 40, 95
1, 7392, Note_on_c, 9, 60, 77
1, 7392, Note_on_c, 9, 39, 110
1, 7393, Note_on_c, 9, 39, 0
1, 7393, Note_on_c, 9, 60, 0
1, 7393, Note_on_c, 9, 40, 0
1, 7393, Note_on_c, 2, 73, 82
1, 7393, Note_on_c, 2, 69, 82
1, 7403, Note_on_c, 0, 61, 0
1, 7404, Note_on_c, 0, 57, 0
1, 7404, Note_on_c, 0, 64, 0
1, 7404, Note_on_c, 2, 69, 0
1, 7404, Note_on_c, 2, 73, 0
1, 7404, Note_on_c, 1, 30, 0
1, 7407, Note_on_c, 1, 42, 0
1, 7438, Note_on_c, 3, 73, 0
1, 7439, Lyric_t, ""
1, 7439, Lyric_t, "\015"
1, 7439, Lyric_t, "move, "
1, 7439, Note_on_c, 3, 71, 91
1, 7440, Note_on_c, 4, 73, 0
1, 7440, Note_on_c, 0, 62, 110
1, 7440, Note_on_c, 9, 36, 91
1, 7440, Note_on_c, 1, 47, 110
1, 7440, Note_on_c, 0, 57, 97
1, 7440, Note_on_c, 1, 35, 98
1, 7440, Note_on_c, 9, 42, 44
1, 7440, Note_on_c, 0, 66, 99
1, 7440, Note_on_c, 4, 71, 26
1, 7441, Note_on_c, 9, 42, 0
1, 7441, Note_on_c, 9, 36, 0
1, 7441, Note_on_c, 2, 62, 78
1, 7441, Note_on_c, 2, 71, 104
1, 7441, Note_on_c, 2, 66, 101
1, 7479, Note_on_c, 2, 62, 0
1, 7483, Note_on_c, 2, 71, 0
1, 7486, Note_on_c, 2, 66, 0
1, 7487, Note_on_c, 9, 42, 95
1, 7488, Note_on_c, 9, 42, 0
1, 7488, Note_on_c, 9, 36, 110
1, 7489, Note_on_c, 9, 36, 0
1, 7511, Note_on_c, 0, 62, 0
1, 7514, Note_on_c, 0, 66, 0
1, 7518, Note_on_c, 0, 57, 0
1, 7528, Note_on_c, 1, 47, 0
1, 7534, Note_on_c, 1, 35, 0
1, 7534, Note_on_c, 3, 71, 0
1, 7535, Note_on_c, 9, 42, 39
1, 7535, Note_on_c, 1, 33, 100
1, 7535, Note_on_c, 0, 64, 87
1, 7535, Note_on_c, 0, 61, 88
1, 7535, Lyric_t, "it's "
1, 7535, Note_on_c, 0, 57, 84
1, 7535, Note_on_c, 1, 45, 97
1, 7535, Note_on_c, 3, 69, 72
1, 7536, Note_on_c, 9, 42, 0
1, 7536, Note_on_c, 4, 71, 0
1, 7536, Note_on_c, 2, 64, 103
1, 7536, Note_on_c, 4, 69, 12
1, 7550, Note_on_c, 0, 64, 0
1, 7550, Note_on_c, 0, 61, 0
1, 7551, Note_on_c, 1, 45, 0
1, 7552, Note_on_c, 0, 57, 0
1, 7552, Note_on_c, 1, 33, 0
1, 7582, Note_on_c, 3, 69, 0
1, 7583, Note_on_c, 0, 66, 107
1, 7583, Note_on_c, 1, 35, 97
1, 7583, Lyric_t, "all "
1, 7583, Note_on_c, 3, 74, 101
1, 7583, Note_on_c, 9, 42, 110
1, 7583, Note_on_c, 0, 57, 100
1, 7583, Note_on_c, 0, 62, 118
1, 7584, Note_on_c, 9, 42, 0
1, 7584, Note_on_c, 2, 64, 0
1, 7584, Note_on_c, 4, 69, 0
1, 7584, Note_on_c, 2, 66, 93
1, 7584, Note_on_c, 9, 39, 110
1, 7584, Note_on_c, 9, 36, 110
1, 7584, Note_on_c, 4, 74, 35
1, 7584, Note_on_c, 9, 60, 77
1, 7584, Note_on_c, 1, 47, 120
1, 7584, Note_on_c, 9, 40, 110
1, 7585, Note_on_c, 9, 40, 0
1, 7585, Note_on_c, 9, 36, 0
1, 7585, Note_on_c, 9, 39, 0
1, 7585, Note_on_c, 9, 60, 0
1, 7610, Note_on_c, 2, 66, 0
1, 7633, Note_on_c, 2, 69, 103
1, 7633, Note_on_c, 9, 42, 42
1, 7634, Note_on_c, 9, 42, 0
1, 7648, Note_on_c, 2, 69, 0
1, 7660, Note_on_c, 0, 57, 0
1, 7660, Note_on_c, 0, 62, 0
1, 7660, Note_on_c, 0, 66, 0
1, 7670, Note_on_c, 1, 35, 0
1, 7670, Note_on_c, 1, 47, 0
1, 7674, Note_on_c, 3, 74, 0
1, 7679, Note_on_c, 9, 43, 83
1, 7680, Note_on_c, 9, 43, 0
1, 7680, Note_on_c, 4, 74, 0
1, 7680, Note_on_c, 4, 71, 1
1, 7680, Note_on_c, 3, 71, 73
1, 7680, Note_on_c, 0, 62, 96
1, 7680, Note_on_c, 1, 28, 104
1, 7680, Note_on_c, 0, 55, 100
1, 7680, Lyric_t, "right, "
1, 7680, Note_on_c, 0, 59, 97
1, 7680, Note_on_c, 9, 42, 96
1, 7680, Note_on_c, 9, 36, 110
1, 7681, Note_on_c, 9, 36, 0
1, 7681, Note_on_c, 9, 42, 0
1, 7681, Note_on_c, 1, 40, 110
1, 7727, Note_on_c, 9, 42, 37
1, 7728, Note_on_c, 9, 42, 0
1, 7728, Note_on_c, 2, 62, 74
1, 7729, Note_on_c, 2, 67, 99
1, 7730, Note_on_c, 2, 71, 92
1, 7732, Note_on_c, 3, 71, 0
1, 7744, Note_on_c, 2, 71, 0
1, 7751, Note_on_c, 2, 67, 0
1, 7753, Note_on_c, 2, 67, 88
1, 7753, Note_on_c, 2, 71, 91
1, 7772, Note_on_c, 2, 67, 0
1, 7773, Note_on_c, 2, 71, 0
1, 7775, Note_on_c, 2, 67, 100
1, 7775, Note_on_c, 9, 42, 110
1, 7776, Note_on_c, 9, 42, 0
1, 7776, Note_on_c, 4, 71, 0
1, 7776, Note_on_c, 4, 74, 37
1, 7776, Note_on_c, 9, 40, 95
1, 7776, Note_on_c, 9, 39, 110
1, 7776, Note_on_c, 9, 60, 77
1, 7777, Note_on_c, 9, 60, 0
1, 7777, Note_on_c, 9, 39, 0
1, 7777, Note_on_c, 9, 40, 0
1, 7777, Lyric_t, "all "
1, 7777, Note_on_c, 3, 74, 103
1, 7779, Note_on_c, 2, 67, 0
1, 7780, Note_on_c, 2, 62, 0
1, 7792, Note_on_c, 1, 28, 0
1, 7794, Note_on_c, 0, 62, 0
1, 7796, Note_on_c, 0, 59, 0
1, 7796, Note_on_c, 0, 55, 0
1, 7796, Note_on_c, 1, 40, 0
1, 7823, Note_on_c, 2, 62, 82
1, 7823, Note_on_c, 0, 55, 94
1, 7823, Note_on_c, 1, 31, 114
1, 7823, Note_on_c, 1, 43, 100
1, 7823, Note_on_c, 0, 62, 78
1, 7823, Note_on_c, 2, 67, 99
1, 7823, Note_on_c, 0, 59, 86
1, 7824, Note_on_c, 9, 36, 91
1, 7824, Note_on_c, 9, 42, 44
1, 7824, Note_on_c, 2, 71, 102
1, 7825, Note_on_c, 9, 42, 0
1, 7825, Note_on_c, 9, 36, 0
1, 7834, Note_on_c, 2, 62, 0
1, 7834, Note_on_c, 2, 71, 0
1, 7835, Note_on_c, 0, 55, 0
1, 7835, Note_on_c, 0, 59, 0
1, 7835, Note_on_c, 0, 62, 0
1, 7839, Note_on_c, 2, 67, 0
1, 7841, Note_on_c, 1, 31, 0
1, 7841, Note_on_c, 1, 43, 0
1, 7866, Note_on_c, 3, 74, 0
1, 7871, Note_on_c, 1, 45, 117
1, 7871, Note_on_c, 9, 42, 95
1, 7871, Note_on_c, 0, 62, 87
1, 7871, Note_on_c, 1, 33, 112
1, 7871, Note_on_c, 0, 59, 87
1, 7871, Note_on_c, 0, 55, 102
1, 7872, Note_on_c, 9, 42, 0
1, 7872, Note_on_c, 4, 74, 0
1, 7872, Note_on_c, 4, 71, 10
1, 7872, Note_on_c, 9, 36, 110
1, 7873, Note_on_c, 9, 36, 0
1, 7873, Note_on_c, 3, 71, 81
1, 7873, Lyric_t, "right, "
1, 7919, Note_on_c, 9, 42, 39
1, 7920, Note_on_c, 9, 42, 0
1, 7943, Note_on_c, 2, 71, 40
1, 7950, Note_on_c, 0, 55, 0
1, 7950, Note_on_c, 0, 62, 0
1, 7950, Note_on_c, 0, 59, 0
1, 7951, Note_on_c, 1, 33, 0
1, 7957, Note_on_c, 1, 45, 0
1, 7962, Note_on_c, 2, 71, 0
1, 7966, Note_on_c, 2, 62, 61
1, 7967, Note_on_c, 9, 42, 110
1, 7967, Note_on_c, 2, 67, 99
1, 7967, Note_on_c, 1, 31, 100
1, 7967, Note_on_c, 1, 43, 112
1, 7967, Note_on_c, 2, 71, 99
1, 7968, Note_on_c, 9, 42, 0
1, 7968, Note_on_c, 9, 39, 110
1, 7968, Note_on_c, 9, 36, 110
1, 7968, Note_on_c, 9, 60, 77
1, 7968, Note_on_c, 9, 40, 110
1, 7969, Note_on_c, 9, 40, 0
1, 7969, Note_on_c, 9, 39, 0
1, 7969, Note_on_c, 9, 60, 0
1, 7969, Note_on_c, 9, 36, 0
1, 7969, Note_on_c, 0, 62, 87
1, 7969, Note_on_c, 0, 59, 93
1, 7969, Note_on_c, 0, 55, 104
1, 7970, Note_on_c, 3, 71, 0
1, 7976, Note_on_c, 2, 62, 0
1, 7980, Note_on_c, 2, 71, 0
1, 7984, Note_on_c, 2, 67, 0
1, 8017, Note_on_c, 9, 42, 42
1, 8018, Note_on_c, 9, 42, 0
1, 8022, Note_on_c, 0, 55, 0
1, 8025, Note_on_c, 0, 59, 0
1, 8028, Note_on_c, 0, 62, 0
1, 8044, Note_on_c, 1, 31, 0
1, 8046, Note_on_c, 1, 43, 0
1, 8063, Note_on_c, 3, 73, 103
1, 8063, Lyric_t, "all "
1, 8064, Note_on_c, 4, 71, 0
1, 8064, Note_on_c, 9, 42, 96
1, 8064, Note_on_c, 4, 73, 49
1, 8064, Note_on_c, 2, 63, 47
1, 8064, Note_on_c, 9, 36, 110
1, 8065, Note_on_c, 9, 36, 0
1, 8065, Note_on_c, 9, 42, 0
1, 8065, Note_on_c, 1, 30, 97
1, 8065, Note_on_c, 1, 42, 99
1, 8065, Note_on_c, 0, 57, 94
1, 8065, Note_on_c, 0, 61, 95
1, 8065, Note_on_c, 2, 68, 87
1, 8065, Note_on_c, 0, 64, 97
1, 8065, Note_on_c, 2, 72, 87
1, 8084, Note_on_c, 2, 72, 0
1, 8089, Note_on_c, 2, 69, 65
1, 8089, Note_on_c, 2, 64, 65
1, 8089, Note_on_c, 2, 73, 65
1, 8090, Note_on_c, 2, 68, 0
1, 8094, Note_on_c, 2, 63, 0
1, 8111, Note_on_c, 3, 73, 0
1, 8111, Note_on_c, 9, 42, 37
1, 8111, Note_on_c, 3, 69, 57
1, 8112, Note_on_c, 9, 42, 0
1, 8112, Note_on_c, 4, 73, 0
1, 8112, Note_on_c, 4, 69, 20
1, 8135, Note_on_c, 2, 73, 0
1, 8138, Note_on_c, 2, 69, 0
1, 8138, Note_on_c, 2, 64, 0
1, 8138, Note_on_c, 2, 73, 94
1, 8139, Note_on_c, 2, 64, 63
1, 8139, Note_on_c, 2, 69, 87
1, 8157, Note_on_c, 2, 69, 0
1, 8159, Note_on_c, 2, 64, 0
1, 8159, Note_on_c, 3, 69, 0
1, 8159, Note_on_c, 3, 66, 45
1, 8159, Note_on_c, 9, 42, 110
1, 8160, Note_on_c, 9, 42, 0
1, 8160, Note_on_c, 4, 69, 0
1, 8160, Note_on_c, 9, 60, 77
1, 8160, Note_on_c, 9, 40, 95
1, 8160, Note_on_c, 9, 39, 110
1, 8160, Note_on_c, 2, 69, 95
1, 8160, Note_on_c, 2, 64, 95
1, 8160, Note_on_c, 4, 66, 6
1, 8161, Note_on_c, 9, 39, 0
1, 8161, Note_on_c, 9, 40, 0
1, 8161, Note_on_c, 9, 60, 0
1, 8164, Note_on_c, 2, 73, 0
1, 8170, Note_on_c, 2, 69, 0
1, 8170, Note_on_c, 2, 64, 0
1, 8171, Note_on_c, 0, 61, 0
1, 8172, Note_on_c, 0, 57, 0
1, 8172, Note_on_c, 0, 64, 0
1, 8172, Note_on_c, 1, 30, 0
1, 8175, Note_on_c, 1, 42, 0
1, 8206, Note_on_c, 3, 66, 0
1, 8207, Lyric_t, "right. "
1, 8207, Note_on_c, 3, 71, 85
1, 8207, Lyric_t, ""
1, 8207, Lyric_t, "\015"
1, 8208, Note_on_c, 4, 66, 0
1, 8208, Note_on_c, 1, 47, 110
1, 8208, Note_on_c, 1, 35, 98
1, 8208, Note_on_c, 4, 71, 28
1, 8208, Note_on_c, 0, 66, 99
1, 8208, Note_on_c, 0, 62, 110
1, 8208, Note_on_c, 2, 62, 63
1, 8208, Note_on_c, 9, 42, 44
1, 8208, Note_on_c, 9, 36, 91
1, 8208, Note_on_c, 2, 66, 101
1, 8208, Note_on_c, 0, 57, 97
1, 8209, Note_on_c, 9, 36, 0
1, 8209, Note_on_c, 9, 42, 0
1, 8210, Note_on_c, 2, 71, 103
1, 8242, Note_on_c, 2, 71, 0
1, 8248, Note_on_c, 2, 66, 0
1, 8255, Note_on_c, 9, 42, 95
1, 8256, Note_on_c, 9, 42, 0
1, 8256, Note_on_c, 2, 62, 0
1, 8256, Note_on_c, 9, 36, 110
1, 8257, Note_on_c, 9, 36, 0
1, 8279, Note_on_c, 0, 62, 0
1, 8282, Note_on_c, 0, 66, 0
1, 8282, Note_on_c, 2, 69, 58
1, 8284, Note_on_c, 2, 69, 0
1, 8286, Note_on_c, 0, 57, 0
1, 8296, Note_on_c, 1, 47, 0
1, 8302, Note_on_c, 1, 35, 0
1, 8303, Note_on_c, 0, 61, 88
1, 8303, Note_on_c, 1, 45, 97
1, 8303, Note_on_c, 0, 57, 84
1, 8303, Note_on_c, 9, 42, 39
1, 8303, Note_on_c, 1, 33, 100
1, 8303, Note_on_c, 0, 64, 87
1, 8304, Note_on_c, 9, 42, 0
1, 8305, Note_on_c, 2, 64, 101
1, 8306, Note_on_c, 2, 69, 51
1, 8318, Note_on_c, 0, 64, 0
1, 8318, Note_on_c, 0, 61, 0
1, 8319, Note_on_c, 1, 45, 0
1, 8320, Note_on_c, 0, 57, 0
1, 8320, Note_on_c, 1, 33, 0
1, 8320, Lyric_t, ""
1, 8320, Lyric_t, "\015"
1, 8350, Note_on_c, 3, 71, 0
1, 8351, Note_on_c, 9, 42, 110
1, 8351, Note_on_c, 0, 62, 118
1, 8351, Note_on_c, 1, 35, 97
1, 8351, Note_on_c, 0, 57, 100
1, 8351, Note_on_c, 0, 66, 107
1, 8352, Note_on_c, 9, 42, 0
1, 8352, Note_on_c, 2, 64, 0
1, 8352, Note_on_c, 9, 36, 110
1, 8352, Note_on_c, 1, 47, 120
1, 8352, Note_on_c, 9, 39, 110
1, 8352, Note_on_c, 9, 60, 77
1, 8352, Note_on_c, 9, 40, 110
1, 8353, Note_on_c, 9, 40, 0
1, 8353, Note_on_c, 9, 36, 0
1, 8353, Note_on_c, 9, 60, 0
1, 8353, Note_on_c, 9, 39, 0
1, 8353, Note_on_c, 2, 69, 0
1, 8353, Note_on_c, 2, 66, 74
1, 8395, Note_on_c, 2, 66, 0
1, 8401, Note_on_c, 9, 42, 42
1, 8402, Note_on_c, 9, 42, 0
1, 8402, Note_on_c, 2, 69, 105
1, 8417, Note_on_c, 2, 69, 0
1, 8428, Note_on_c, 0, 57, 0
1, 8428, Note_on_c, 0, 62, 0
1, 8428, Note_on_c, 0, 66, 0
1, 8438, Note_on_c, 1, 47, 0
1, 8438, Note_on_c, 1, 35, 0
1, 8448, Note_on_c, 0, 62, 96
1, 8448, Note_on_c, 9, 36, 110
1, 8448, Note_on_c, 0, 55, 100
1, 8448, Note_on_c, 1, 28, 104
1, 8448, Note_on_c, 0, 59, 97
1, 8448, Note_on_c, 9, 42, 96
1, 8449, Note_on_c, 9, 42, 0
1, 8449, Note_on_c, 9, 36, 0
1, 8449, Note_on_c, 1, 40, 110
1, 8449, Note_on_c, 9, 43, 83
1, 8450, Note_on_c, 9, 43, 0
1, 8455, Note_on_c, 4, 71, 0
1, 8495, Note_on_c, 9, 42, 37
1, 8496, Note_on_c, 9, 42, 0
1, 8497, Note_on_c, 2, 67, 66
1, 8498, Note_on_c, 2, 71, 68
1, 8517, Note_on_c, 2, 71, 0
1, 8519, Note_on_c, 2, 71, 74
1, 8540, Note_on_c, 2, 67, 0
1, 8542, Note_on_c, 2, 71, 0
1, 8542, Note_on_c, 2, 67, 99
1, 8542, Note_on_c, 2, 62, 50
1, 8543, Note_on_c, 9, 42, 110
1, 8543, Note_on_c, 2, 71, 103
1, 8544, Note_on_c, 9, 42, 0
1, 8544, Note_on_c, 4, 74, 40
1, 8544, Note_on_c, 9, 60, 77
1, 8544, Note_on_c, 9, 39, 110
1, 8544, Note_on_c, 9, 40, 95
1, 8545, Note_on_c, 9, 40, 0
1, 8545, Note_on_c, 9, 60, 0
1, 8545, Note_on_c, 9, 39, 0
1, 8545, Note_on_c, 3, 74, 84
1, 8545, Lyric_t, "Let "
1, 8550, Note_on_c, 2, 62, 0
1, 8554, Note_on_c, 2, 71, 0
1, 8557, Note_on_c, 2, 67, 0
1, 8560, Note_on_c, 1, 28, 0
1, 8562, Note_on_c, 0, 62, 0
1, 8564, Note_on_c, 0, 55, 0
1, 8564, Note_on_c, 0, 59, 0
1, 8564, Note_on_c, 1, 40, 0
1, 8591, Note_on_c, 4, 74, 0
1, 8591, Note_on_c, 3, 74, 0
1, 8591, Note_on_c, 0, 55, 94
1, 8591, Note_on_c, 2, 62, 80
1, 8591, Note_on_c, 1, 31, 114
1, 8591, Note_on_c, 0, 59, 86
1, 8591, Note_on_c, 0, 62, 78
1, 8591, Note_on_c, 1, 43, 100
1, 8592, Note_on_c, 9, 36, 91
1, 8592, Note_on_c, 4, 74, 47
1, 8592, Note_on_c, 2, 67, 99
1, 8592, Note_on_c, 9, 42, 44
1, 8593, Note_on_c, 9, 42, 0
1, 8593, Note_on_c, 9, 36, 0
1, 8593, Note_on_c, 3, 74, 83
1, 8593, Lyric_t, "this "
1, 8594, Note_on_c, 2, 71, 103
1, 8603, Note_on_c, 0, 55, 0
1, 8603, Note_on_c, 0, 59, 0
1, 8603, Note_on_c, 0, 62, 0
1, 8606, Note_on_c, 2, 62, 0
1, 8607, Note_on_c, 2, 71, 0
1, 8609, Note_on_c, 1, 43, 0
1, 8609, Note_on_c, 1, 31, 0
1, 8610, Note_on_c, 2, 67, 0
1, 8639, Note_on_c, 3, 74, 0
1, 8639, Note_on_c, 0, 59, 87
1, 8639, Note_on_c, 9, 42, 95
1, 8639, Note_on_c, 0, 55, 102
1, 8639, Note_on_c, 0, 62, 87
1, 8640, Note_on_c, 9, 42, 0
1, 8640, Note_on_c, 4, 74, 0
1, 8640, Note_on_c, 4, 71, 21
1, 8640, Note_on_c, 1, 45, 117
1, 8640, Note_on_c, 9, 36, 110
1, 8640, Note_on_c, 1, 33, 112
1, 8641, Note_on_c, 9, 36, 0
1, 8641, Note_on_c, 3, 71, 85
1, 8641, Lyric_t, "groove "
1, 8687, Note_on_c, 2, 67, 37
1, 8687, Note_on_c, 9, 42, 39
1, 8688, Note_on_c, 9, 42, 0
1, 8689, Note_on_c, 2, 71, 30
1, 8691, Note_on_c, 3, 71, 0
1, 8705, Note_on_c, 2, 71, 0
1, 8711, Note_on_c, 2, 71, 51
1, 8718, Note_on_c, 0, 62, 0
1, 8718, Note_on_c, 0, 55, 0
1, 8718, Note_on_c, 0, 59, 0
1, 8720, Note_on_c, 1, 33, 0
1, 8726, Note_on_c, 1, 45, 0
1, 8735, Note_on_c, 2, 67, 0
1, 8735, Note_on_c, 9, 42, 110
1, 8735, Note_on_c, 2, 62, 90
1, 8736, Note_on_c, 9, 42, 0
1, 8736, Note_on_c, 2, 71, 0
1, 8736, Note_on_c, 1, 43, 112
1, 8736, Note_on_c, 1, 31, 100
1, 8736, Note_on_c, 9, 40, 110
1, 8736, Note_on_c, 9, 60, 77
1, 8736, Note_on_c, 9, 36, 110
1, 8736, Note_on_c, 9, 39, 110
1, 8737, Note_on_c, 9, 39, 0
1, 8737, Note_on_c, 9, 36, 0
1, 8737, Note_on_c, 9, 40, 0
1, 8737, Note_on_c, 9, 60, 0
1, 8737, Note_on_c, 2, 67, 96
1, 8737, Note_on_c, 2, 71, 104
1, 8737, Note_on_c, 0, 62, 87
1, 8737, Note_on_c, 0, 59, 93
1, 8737, Note_on_c, 0, 55, 104
1, 8744, Note_on_c, 2, 62, 0
1, 8749, Note_on_c, 2, 71, 0
1, 8750, Note_on_c, 2, 67, 0
1, 8785, Note_on_c, 9, 42, 42
1, 8786, Note_on_c, 9, 42, 0
1, 8790, Note_on_c, 0, 55, 0
1, 8793, Note_on_c, 0, 59, 0
1, 8796, Note_on_c, 0, 62, 0
1, 8813, Note_on_c, 1, 31, 0
1, 8816, Note_on_c, 1, 43, 0
1, 8831, Lyric_t, "set "
1, 8831, Note_on_c, 3, 66, 58
1, 8832, Note_on_c, 4, 71, 0
1, 8832, Note_on_c, 9, 36, 110
1, 8832, Note_on_c, 2, 72, 100
1, 8832, Note_on_c, 4, 66, 17
1, 8832, Note_on_c, 2, 68, 97
1, 8832, Note_on_c, 9, 42, 96
1, 8833, Note_on_c, 9, 42, 0
1, 8833, Note_on_c, 9, 36, 0
1, 8833, Note_on_c, 0, 64, 97
1, 8833, Note_on_c, 0, 57, 94
1, 8833, Note_on_c, 0, 61, 95
1, 8833, Note_on_c, 1, 30, 97
1, 8833, Note_on_c, 1, 42, 99
1, 8857, Note_on_c, 2, 72, 0
1, 8857, Note_on_c, 2, 73, 62
1, 8858, Note_on_c, 2, 69, 78
1, 8859, Note_on_c, 2, 68, 0
1, 8878, Note_on_c, 3, 66, 0
1, 8879, Note_on_c, 9, 42, 37
1, 8879, Lyric_t, "in "
1, 8879, Note_on_c, 3, 69, 63
1, 8880, Note_on_c, 9, 42, 0
1, 8880, Note_on_c, 4, 66, 0
1, 8880, Note_on_c, 4, 69, 21
1, 8904, Note_on_c, 2, 73, 0
1, 8906, Note_on_c, 2, 73, 94
1, 8921, Note_on_c, 2, 69, 0
1, 8925, Note_on_c, 2, 73, 0
1, 8926, Note_on_c, 3, 69, 0
1, 8926, Note_on_c, 2, 69, 56
1, 8926, Note_on_c, 2, 73, 56
1, 8927, Lyric_t, "your "
1, 8927, Note_on_c, 9, 42, 110
1, 8927, Note_on_c, 3, 73, 92
1, 8928, Note_on_c, 9, 42, 0
1, 8928, Note_on_c, 4, 69, 0
1, 8928, Note_on_c, 4, 73, 32
1, 8928, Note_on_c, 9, 39, 110
1, 8928, Note_on_c, 9, 40, 95
1, 8928, Note_on_c, 9, 60, 77
1, 8929, Note_on_c, 9, 60, 0
1, 8929, Note_on_c, 9, 39, 0
1, 8929, Note_on_c, 9, 40, 0
1, 8936, Note_on_c, 2, 73, 0
1, 8936, Note_on_c, 2, 69, 0
1, 8939, Note_on_c, 0, 61, 0
1, 8940, Note_on_c, 1, 30, 0
1, 8940, Note_on_c, 0, 57, 0
1, 8940, Note_on_c, 0, 64, 0
1, 8943, Note_on_c, 1, 42, 0
1, 8975, Note_on_c, 3, 73, 0
1, 8975, Lyric_t, "shoes, "
1, 8975, Lyric_t, ""
1, 8975, Lyric_t, "\015"
1, 8975, Note_on_c, 3, 71, 80
1, 8976, Note_on_c, 4, 73, 0
1, 8976, Note_on_c, 4, 71, 23
1, 8976, Note_on_c, 0, 57, 97
1, 8976, Note_on_c, 2, 66, 100
1, 8976, Note_on_c, 9, 36, 91
1, 8976, Note_on_c, 2, 62, 82
1, 8976, Note_on_c, 0, 62, 110
1, 8976, Note_on_c, 9, 42, 44
1, 8976, Note_on_c, 1, 47, 110
1, 8976, Note_on_c, 0, 66, 99
1, 8976, Note_on_c, 1, 35, 98
1, 8977, Note_on_c, 9, 42, 0
1, 8977, Note_on_c, 9, 36, 0
1, 8978, Note_on_c, 2, 71, 103
1, 9023, Note_on_c, 9, 42, 95
1, 9024, Note_on_c, 9, 42, 0
1, 9024, Note_on_c, 2, 62, 0
1, 9024, Note_on_c, 9, 36, 110
1, 9025, Note_on_c, 9, 36, 0
1, 9027, Note_on_c, 2, 66, 0
1, 9027, Note_on_c, 2, 71, 0
1, 9047, Note_on_c, 0, 62, 0
1, 9050, Note_on_c, 0, 66, 0
1, 9054, Note_on_c, 0, 57, 0
1, 9064, Note_on_c, 1, 47, 0
1, 9070, Note_on_c, 1, 35, 0
1, 9070, Note_on_c, 3, 71, 0
1, 9071, Note_on_c, 2, 64, 97
1, 9071, Note_on_c, 1, 45, 97
1, 9071, Note_on_c, 0, 61, 88
1, 9071, Note_on_c, 1, 33, 100
1, 9071, Note_on_c, 0, 64, 87
1, 9071, Note_on_c, 9, 42, 39
1, 9071, Note_on_c, 0, 57, 84
1, 9072, Note_on_c, 9, 42, 0
1, 9072, Note_on_c, 4, 71, 0
1, 9072, Note_on_c, 4, 69, 13
1, 9073, Note_on_c, 3, 69, 57
1, 9073, Lyric_t, "so "
1, 9086, Note_on_c, 0, 61, 0
1, 9086, Note_on_c, 0, 64, 0
1, 9087, Note_on_c, 1, 45, 0
1, 9088, Note_on_c, 0, 57, 0
1, 9088, Note_on_c, 1, 33, 0
1, 9117, Note_on_c, 3, 69, 0
1, 9119, Note_on_c, 2, 64, 0
1, 9119, Note_on_c, 1, 35, 97
1, 9119, Lyric_t, "stand "
1, 9119, Note_on_c, 0, 66, 107
1, 9119, Note_on_c, 0, 57, 100
1, 9119, Note_on_c, 9, 42, 110
1, 9119, Note_on_c, 3, 74, 90
1, 9119, Note_on_c, 0, 62, 118
1, 9120, Note_on_c, 9, 42, 0
1, 9120, Note_on_c, 4, 69, 0
1, 9120, Note_on_c, 2, 66, 62
1, 9120, Note_on_c, 9, 36, 110
1, 9120, Note_on_c, 9, 60, 77
1, 9120, Note_on_c, 4, 74, 30
1, 9120, Note_on_c, 9, 39, 110
1, 9120, Note_on_c, 1, 47, 120
1, 9120, Note_on_c, 9, 40, 110
1, 9121, Note_on_c, 9, 40, 0
1, 9121, Note_on_c, 9, 60, 0
1, 9121, Note_on_c, 9, 36, 0
1, 9121, Note_on_c, 9, 39, 0
1, 9168, Note_on_c, 2, 69, 91
1, 9169, Note_on_c, 9, 42, 42
1, 9170, Note_on_c, 9, 42, 0
1, 9170, Note_on_c, 2, 66, 0
1, 9174, Note_on_c, 3, 74, 0
1, 9185, Note_on_c, 2, 69, 0
1, 9196, Note_on_c, 0, 62, 0
1, 9196, Note_on_c, 0, 66, 0
1, 9196, Note_on_c, 0, 57, 0
1, 9206, Note_on_c, 1, 35, 0
1, 9206, Note_on_c, 1, 47, 0
1, 9216, Note_on_c, 4, 74, 0
1, 9216, Note_on_c, 9, 36, 110
1, 9216, Note_on_c, 0, 62, 96
1, 9216, Note_on_c, 0, 59, 97
1, 9216, Note_on_c, 0, 55, 100
1, 9216, Note_on_c, 3, 71, 57
1, 9216, Lyric_t, "up, "
1, 9216, Note_on_c, 4, 71, 23
1, 9216, Note_on_c, 9, 42, 96
1, 9216, Note_on_c, 1, 28, 104
1, 9217, Note_on_c, 9, 42, 0
1, 9217, Note_on_c, 9, 36, 0
1, 9217, Note_on_c, 9, 43, 83
1, 9217, Note_on_c, 1, 40, 110
1, 9218, Note_on_c, 9, 43, 0
1, 9263, Note_on_c, 2, 62, 30
1, 9263, Note_on_c, 9, 42, 37
1, 9264, Note_on_c, 9, 42, 0
1, 9265, Note_on_c, 2, 67, 83
1, 9266, Note_on_c, 2, 71, 81
1, 9270, Note_on_c, 3, 71, 0
1, 9287, Note_on_c, 2, 71, 0
1, 9289, Note_on_c, 2, 71, 80
1, 9307, Note_on_c, 2, 67, 0
1, 9309, Note_on_c, 2, 71, 0
1, 9310, Note_on_c, 2, 67, 81
1, 9311, Note_on_c, 4, 71, 0
1, 9311, Note_on_c, 2, 71, 102
1, 9311, Note_on_c, 9, 42, 110
1, 9312, Note_on_c, 9, 42, 0
1, 9312, Note_on_c, 9, 39, 110
1, 9312, Note_on_c, 9, 60, 77
1, 9312, Note_on_c, 4, 74, 35
1, 9312, Note_on_c, 4, 78, 32
1, 9312, Note_on_c, 4, 69, 25
1, 9312, Note_on_c, 9, 40, 95
1, 9313, Note_on_c, 9, 40, 0
1, 9313, Note_on_c, 9, 39, 0
1, 9313, Note_on_c, 9, 60, 0
1, 9313, Note_on_c, 3, 74, 87
1, 9313, Lyric_t, "all "
1, 9314, Note_on_c, 2, 62, 0
1, 9322, Note_on_c, 2, 71, 0
1, 9323, Note_on_c, 2, 67, 0
1, 9328, Note_on_c, 1, 28, 0
1, 9330, Note_on_c, 0, 62, 0
1, 9332, Note_on_c, 0, 55, 0
1, 9332, Note_on_c, 1, 40, 0
1, 9332, Note_on_c, 0, 59, 0
1, 9359, Note_on_c, 2, 62, 43
1, 9359, Note_on_c, 1, 43, 100
1, 9359, Note_on_c, 0, 59, 86
1, 9359, Note_on_c, 0, 55, 94
1, 9359, Note_on_c, 0, 62, 78
1, 9359, Note_on_c, 1, 31, 114
1, 9360, Note_on_c, 9, 42, 44
1, 9360, Note_on_c, 9, 36, 91
1, 9361, Note_on_c, 9, 36, 0
1, 9361, Note_on_c, 9, 42, 0
1, 9361, Note_on_c, 2, 67, 99
1, 9362, Note_on_c, 2, 71, 103
1, 9371, Note_on_c, 0, 62, 0
1, 9371, Note_on_c, 0, 59, 0
1, 9371, Note_on_c, 0, 55, 0
1, 9371, Note_on_c, 2, 62, 0
1, 9376, Note_on_c, 2, 71, 0
1, 9377, Note_on_c, 1, 31, 0
1, 9377, Note_on_c, 1, 43, 0
1, 9378, Note_on_c, 2, 67, 0
1, 9402, Note_on_c, 3, 74, 0
1, 9407, Note_on_c, 0, 62, 87
1, 9407, Note_on_c, 0, 59, 87
1, 9407, Note_on_c, 9, 42, 95
1, 9407, Note_on_c, 0, 55, 102
1, 9408, Note_on_c, 9, 42, 0
1, 9408, Note_on_c, 4, 74, 0
1, 9408, Note_on_c, 4, 78, 0
1, 9408, Note_on_c, 4, 69, 0
1, 9408, Note_on_c, 4, 71, 16
1, 9408, Note_on_c, 3, 71, 58
1, 9408, Note_on_c, 4, 66, 16
1, 9408, Note_on_c, 1, 45, 117
1, 9408, Note_on_c, 4, 76, 16
1, 9408, Note_on_c, 1, 33, 112
1, 9408, Lyric_t, "right, "
1, 9408, Note_on_c, 9, 36, 110
1, 9409, Note_on_c, 9, 36, 0
1, 9455, Note_on_c, 9, 42, 39
1, 9456, Note_on_c, 9, 42, 0
1, 9458, Note_on_c, 2, 67, 79
1, 9459, Note_on_c, 2, 71, 79
1, 9462, Note_on_c, 3, 71, 0
1, 9477, Note_on_c, 2, 71, 0
1, 9481, Note_on_c, 2, 71, 62
1, 9486, Note_on_c, 0, 55, 0
1, 9486, Note_on_c, 0, 62, 0
1, 9486, Note_on_c, 0, 59, 0
1, 9488, Note_on_c, 1, 33, 0
1, 9494, Note_on_c, 1, 45, 0
1, 9503, Note_on_c, 2, 67, 0
1, 9503, Note_on_c, 2, 71, 0
1, 9503, Note_on_c, 9, 42, 110
1, 9504, Note_on_c, 9, 42, 0
1, 9504, Note_on_c, 9, 40, 110
1, 9504, Note_on_c, 9, 60, 77
1, 9504, Note_on_c, 2, 71, 104
1, 9504, Note_on_c, 9, 39, 110
1, 9504, Note_on_c, 2, 67, 99
1, 9504, Note_on_c, 9, 36, 110
1, 9504, Note_on_c, 1, 43, 112
1, 9504, Note_on_c, 1, 31, 100
1, 9505, Note_on_c, 9, 36, 0
1, 9505, Note_on_c, 9, 39, 0
1, 9505, Note_on_c, 9, 40, 0
1, 9505, Note_on_c, 9, 60, 0
1, 9505, Note_on_c, 0, 59, 93
1, 9505, Note_on_c, 0, 55, 104
1, 9505, Note_on_c, 0, 62, 87
1, 9518, Note_on_c, 2, 71, 0
1, 9522, Note_on_c, 2, 67, 0
1, 9528, Note_on_c, 4, 71, 0
1, 9528, Note_on_c, 4, 66, 0
1, 9528, Note_on_c, 4, 76, 0
1, 9553, Note_on_c, 9, 42, 42
1, 9554, Note_on_c, 9, 42, 0
1, 9558, Note_on_c, 0, 55, 0
1, 9561, Note_on_c, 0, 59, 0
1, 9564, Note_on_c, 0, 62, 0
1, 9581, Note_on_c, 1, 31, 0
1, 9583, Note_on_c, 1, 43, 0
1, 9599, Note_on_c, 2, 63, 43
1, 9600, Note_on_c, 9, 36, 110
1, 9600, Note_on_c, 2, 68, 96
1, 9600, Note_on_c, 9, 42, 96
1, 9600, Note_on_c, 4, 73, 39
1, 9601, Note_on_c, 9, 42, 0
1, 9601, Note_on_c, 9, 36, 0
1, 9601, Note_on_c, 0, 64, 97
1, 9601, Note_on_c, 0, 57, 94
1, 9601, Lyric_t, "all "
1, 9601, Note_on_c, 2, 72, 101
1, 9601, Note_on_c, 0, 61, 95
1, 9601, Note_on_c, 1, 42, 99
1, 9601, Note_on_c, 1, 30, 97
1, 9601, Note_on_c, 3, 73, 100
1, 9616, Note_on_c, 2, 72, 0
1, 9620, Note_on_c, 2, 68, 0
1, 9620, Note_on_c, 2, 73, 87
1, 9622, Note_on_c, 2, 69, 83
1, 9625, Note_on_c, 2, 63, 0
1, 9625, Note_on_c, 2, 64, 57
1, 9647, Note_on_c, 3, 73, 0
1, 9647, Note_on_c, 9, 42, 37
1, 9647, Note_on_c, 3, 69, 66
1, 9648, Note_on_c, 9, 42, 0
1, 9648, Note_on_c, 4, 73, 0
1, 9648, Note_on_c, 4, 69, 20
1, 9673, Note_on_c, 2, 73, 0
1, 9673, Note_on_c, 2, 69, 0
1, 9674, Note_on_c, 2, 69, 74
1, 9674, Note_on_c, 2, 73, 96
1, 9687, Note_on_c, 2, 64, 0
1, 9692, Note_on_c, 2, 69, 0
1, 9695, Note_on_c, 9, 42, 110
1, 9696, Note_on_c, 9, 42, 0
1, 9696, Note_on_c, 4, 69, 0
1, 9696, Note_on_c, 2, 64, 87
1, 9696, Note_on_c, 2, 69, 87
1, 9696, Note_on_c, 9, 60, 77
1, 9696, Note_on_c, 9, 40, 95
1, 9696, Note_on_c, 9, 39, 110
1, 9696, Note_on_c, 4, 66, 16
1, 9696, Note_on_c, 3, 66, 38
1, 9697, Note_on_c, 9, 39, 0
1, 9697, Note_on_c, 9, 60, 0
1, 9697, Note_on_c, 3, 69, 0
1, 9697, Note_on_c, 9, 40, 0
1, 9700, Note_on_c, 2, 73, 0
1, 9707, Note_on_c, 2, 69, 0
1, 9707, Note_on_c, 2, 64, 0
1, 9707, Note_on_c, 0, 61, 0
1, 9708, Note_on_c, 1, 30, 0
1, 9708, Note_on_c, 0, 64, 0
1, 9708, Note_on_c, 0, 57, 0
1, 9711, Note_on_c, 1, 42, 0
1, 9742, Note_on_c, 3, 66, 0
1, 9743, Note_on_c, 2, 66, 99
1, 9743, Lyric_t, "right. "
1, 9743, Note_on_c, 2, 62, 78
1, 9743, Lyric_t, ""
1, 9743, Lyric_t, "\015"
1, 9743, Note_on_c, 3, 71, 80
1, 9744, Note_on_c, 4, 66, 0
1, 9744, Note_on_c, 2, 71, 103
1, 9744, Note_on_c, 9, 36, 91
1, 9744, Note_on_c, 1, 47, 110
1, 9744, Note_on_c, 9, 42, 44
1, 9744, Note_on_c, 0, 66, 99
1, 9744, Note_on_c, 0, 62, 110
1, 9744, Note_on_c, 4, 71, 30
1, 9744, Note_on_c, 1, 35, 98
1, 9744, Note_on_c, 0, 57, 97
1, 9745, Note_on_c, 9, 42, 0
1, 9745, Note_on_c, 9, 36, 0
1, 9785, Note_on_c, 2, 71, 0
1, 9788, Note_on_c, 2, 66, 0
1, 9790, Note_on_c, 2, 62, 0
1, 9791, Note_on_c, 9, 42, 95
1, 9792, Note_on_c, 9, 42, 0
1, 9792, Note_on_c, 9, 36, 110
1, 9793, Note_on_c, 9, 36, 0
1, 9815, Note_on_c, 0, 62, 0
1, 9818, Note_on_c, 0, 66, 0
1, 9822, Note_on_c, 0, 57, 0
1, 9832, Note_on_c, 1, 47, 0
1, 9838, Note_on_c, 1, 35, 0
1, 9838, Note_on_c, 2, 64, 92
1, 9839, Note_on_c, 1, 45, 97
1, 9839, Note_on_c, 0, 61, 88
1, 9839, Note_on_c, 0, 64, 87
1, 9839, Note_on_c, 0, 57, 84
1, 9839, Note_on_c, 9, 46, 87
1, 9839, Note_on_c, 1, 33, 100
1, 9840, Note_on_c, 9, 46, 0
1, 9854, Note_on_c, 0, 64, 0
1, 9854, Note_on_c, 0, 61, 0
1, 9855, Note_on_c, 1, 45, 0
1, 9855, Lyric_t, ""
1, 9855, Lyric_t, "\015"
1, 9856, Note_on_c, 1, 33, 0
1, 9856, Note_on_c, 0, 57, 0
1, 9887, Note_on_c, 0, 62, 118
1, 9887, Note_on_c, 0, 57, 100
1, 9887, Note_on_c, 1, 35, 97
1, 9887, Note_on_c, 0, 66, 107
1, 9887, Note_on_c, 9, 42, 110
1, 9888, Note_on_c, 9, 42, 0
1, 9888, Note_on_c, 2, 64, 0
1, 9888, Note_on_c, 9, 60, 77
1, 9888, Note_on_c, 9, 39, 110
1, 9888, Note_on_c, 9, 36, 110
1, 9888, Note_on_c, 1, 47, 120
1, 9888, Note_on_c, 9, 40, 110
1, 9889, Note_on_c, 9, 40, 0
1, 9889, Note_on_c, 9, 36, 0
1, 9889, Note_on_c, 9, 60, 0
1, 9889, Note_on_c, 9, 39, 0
1, 9889, Note_on_c, 2, 66, 82
1, 9892, Note_on_c, 3, 71, 0
1, 9931, Note_on_c, 2, 66, 0
1, 9935, Note_on_c, 2, 69, 98
1, 9937, Note_on_c, 9, 42, 42
1, 9938, Note_on_c, 9, 42, 0
1, 9955, Note_on_c, 2, 69, 0
1, 9959, Note_on_c, 9, 47, 80
1, 9960, Note_on_c, 9, 47, 0
1, 9964, Note_on_c, 0, 62, 0
1, 9964, Note_on_c, 0, 57, 0
1, 9964, Note_on_c, 0, 66, 0
1, 9974, Note_on_c, 1, 35, 0
1, 9974, Note_on_c, 1, 47, 0
1, 9984, Note_on_c, 9, 49, 96
1, 9984, Note_on_c, 9, 36, 110
1, 9984, Note_on_c, 1, 28, 104
1, 9985, Note_on_c, 9, 36, 0
1, 9985, Note_on_c, 9, 49, 0
1, 9985, Note_on_c, 9, 43, 85
1, 9985, Note_on_c, 0, 55, 94
1, 9985, Note_on_c, 0, 62, 104
1, 9985, Note_on_c, 1, 40, 110
1, 9985, Note_on_c, 0, 59, 101
1, 9986, Note_on_c, 9, 43, 0
1, 9986, Note_on_c, 4, 71, 0
1, 10031, Note_on_c, 9, 42, 37
1, 10032, Note_on_c, 9, 42, 0
1, 10033, Note_on_c, 8, 57, 91
1, 10034, Pitch_bend_c, 8, 8192
1, 10034, Control_c, 8, 1, 0
1, 10052, Note_on_c, 8, 57, 0
1, 10055, Note_on_c, 8, 57, 103
1, 10072, Note_on_c, 8, 57, 0
1, 10078, Note_on_c, 8, 57, 104
1, 10079, Note_on_c, 4, 62, 48
1, 10079, Note_on_c, 9, 42, 110
1, 10079, Note_on_c, 3, 74, 91
1, 10079, Lyric_t, "Gon"
1, 10080, Note_on_c, 9, 42, 0
1, 10080, Note_on_c, 9, 40, 95
1, 10080, Note_on_c, 9, 39, 110
1, 10080, Note_on_c, 9, 60, 77
1, 10081, Note_on_c, 9, 60, 0
1, 10081, Note_on_c, 9, 39, 0
1, 10081, Note_on_c, 9, 40, 0
1, 10096, Note_on_c, 8, 57, 0
1, 10096, Note_on_c, 1, 28, 0
1, 10100, Note_on_c, 1, 40, 0
1, 10126, Note_on_c, 3, 74, 0
1, 10126, Note_on_c, 4, 62, 0
1, 10127, Note_on_c, 4, 62, 47
1, 10127, Note_on_c, 1, 43, 100
1, 10127, Note_on_c, 8, 55, 103
1, 10127, Note_on_c, 3, 74, 90
1, 10127, Note_on_c, 1, 31, 114
1, 10127, Lyric_t, "na "
1, 10128, Note_on_c, 9, 36, 91
1, 10128, Note_on_c, 9, 42, 44
1, 10129, Note_on_c, 9, 42, 0
1, 10129, Note_on_c, 9, 36, 0
1, 10144, Note_on_c, 8, 55, 0
1, 10145, Note_on_c, 1, 31, 0
1, 10145, Note_on_c, 1, 43, 0
1, 10175, Note_on_c, 3, 74, 0
1, 10175, Note_on_c, 8, 54, 114
1, 10175, Note_on_c, 9, 42, 95
1, 10176, Note_on_c, 9, 42, 0
1, 10176, Note_on_c, 4, 62, 0
1, 10176, Note_on_c, 4, 59, 31
1, 10176, Note_on_c, 9, 36, 110
1, 10176, Note_on_c, 3, 71, 74
1, 10176, Lyric_t, "tell "
1, 10176, Note_on_c, 1, 45, 117
1, 10176, Note_on_c, 1, 33, 112
1, 10177, Note_on_c, 9, 36, 0
1, 10216, Note_on_c, 8, 54, 0
1, 10223, Note_on_c, 3, 71, 0
1, 10223, Note_on_c, 9, 42, 39
1, 10224, Note_on_c, 9, 42, 0
1, 10224, Note_on_c, 4, 59, 0
1, 10224, Note_on_c, 0, 71, 108
1, 10224, Note_on_c, 8, 54, 110
1, 10225, Note_on_c, 4, 59, 30
1, 10225, Lyric_t, "you "
1, 10225, Note_on_c, 3, 71, 73
1, 10229, Note_on_c, 8, 54, 0
1, 10248, Note_on_c, 8, 54, 110
1, 10253, Note_on_c, 8, 54, 0
1, 10256, Note_on_c, 1, 33, 0
1, 10262, Note_on_c, 1, 45, 0
1, 10271, Note_on_c, 9, 42, 110
1, 10271, Note_on_c, 8, 53, 114
1, 10272, Note_on_c, 9, 42, 0
1, 10272, Note_on_c, 3, 71, 0
1, 10272, Note_on_c, 9, 39, 110
1, 10272, Note_on_c, 9, 60, 77
1, 10272, Note_on_c, 9, 36, 110
1, 10272, Note_on_c, 1, 31, 100
1, 10272, Note_on_c, 9, 40, 110
1, 10272, Note_on_c, 1, 43, 112
1, 10273, Note_on_c, 9, 40, 0
1, 10273, Note_on_c, 9, 36, 0
1, 10273, Note_on_c, 9, 39, 0
1, 10273, Note_on_c, 9, 60, 0
1, 10291, Note_on_c, 8, 53, 0
1, 10291, Note_on_c, 8, 54, 91
1, 10320, Note_on_c, 8, 54, 0
1, 10320, Note_on_c, 8, 57, 93
1, 10321, Note_on_c, 9, 42, 42
1, 10322, Note_on_c, 9, 42, 0
1, 10337, Note_on_c, 8, 57, 0
1, 10349, Note_on_c, 1, 31, 0
1, 10351, Note_on_c, 1, 43, 0
1, 10367, Note_on_c, 4, 59, 0
1, 10367, Note_on_c, 0, 71, 0
1, 10367, Note_on_c, 4, 54, 29
1, 10367, Note_on_c, 3, 66, 72
1, 10367, Lyric_t, "what "
1, 10368, Note_on_c, 0, 62, 0
1, 10368, Note_on_c, 0, 55, 0
1, 10368, Note_on_c, 0, 59, 0
1, 10368, Note_on_c, 9, 42, 96
1, 10368, Note_on_c, 9, 36, 110
1, 10368, Note_on_c, 0, 64, 98
1, 10369, Note_on_c, 9, 36, 0
1, 10369, Note_on_c, 9, 42, 0
1, 10369, Note_on_c, 1, 30, 97
1, 10369, Note_on_c, 0, 61, 99
1, 10369, Note_on_c, 1, 42, 99
1, 10369, Note_on_c, 0, 57, 87
1, 10371, Note_on_c, 8, 53, 100
1, 10390, Note_on_c, 8, 54, 98
1, 10392, Note_on_c, 8, 53, 0
1, 10415, Note_on_c, 3, 66, 0
1, 10415, Note_on_c, 4, 54, 0
1, 10415, Lyric_t, "you "
1, 10415, Note_on_c, 9, 42, 37
1, 10415, Note_on_c, 4, 57, 30
1, 10415, Note_on_c, 3, 69, 73
1, 10416, Note_on_c, 9, 42, 0
1, 10416, Note_on_c, 8, 57, 82
1, 10418, Note_on_c, 8, 54, 0
1, 10434, Note_on_c, 8, 57, 0
1, 10463, Note_on_c, 4, 57, 0
1, 10463, Note_on_c, 3, 69, 0
1, 10463, Lyric_t, "can "
1, 10463, Note_on_c, 4, 61, 27
1, 10463, Note_on_c, 3, 73, 70
1, 10463, Note_on_c, 9, 42, 110
1, 10464, Note_on_c, 9, 42, 0
1, 10464, Note_on_c, 9, 60, 77
1, 10464, Note_on_c, 9, 39, 110
1, 10464, Note_on_c, 9, 40, 95
1, 10465, Note_on_c, 9, 40, 0
1, 10465, Note_on_c, 9, 39, 0
1, 10465, Note_on_c, 9, 60, 0
1, 10476, Note_on_c, 1, 30, 0
1, 10479, Note_on_c, 1, 42, 0
1, 10486, Note_on_c, 0, 57, 0
1, 10511, Note_on_c, 0, 64, 0
1, 10511, Note_on_c, 4, 61, 0
1, 10511, Note_on_c, 3, 73, 0
1, 10511, Note_on_c, 4, 59, 37
1, 10511, Lyric_t, ""
1, 10511, Lyric_t, "\015"
1, 10511, Lyric_t, "do "
1, 10511, Note_on_c, 0, 62, 112
1, 10511, Note_on_c, 0, 66, 97
1, 10511, Note_on_c, 3, 71, 80
1, 10511, Note_on_c, 0, 57, 100
1, 10511, Note_on_c, 8, 57, 100
1, 10512, Note_on_c, 0, 61, 0
1, 10512, Note_on_c, 9, 36, 91
1, 10512, Note_on_c, 1, 47, 110
1, 10512, Note_on_c, 1, 35, 98
1, 10512, Note_on_c, 9, 42, 44
1, 10513, Note_on_c, 9, 42, 0
1, 10513, Note_on_c, 9, 36, 0
1, 10528, Note_on_c, 8, 57, 0
1, 10559, Note_on_c, 9, 42, 95
1, 10560, Note_on_c, 9, 42, 0
1, 10560, Note_on_c, 9, 36, 110
1, 10561, Note_on_c, 9, 36, 0
1, 10562, Note_on_c, 8, 53, 100
1, 10579, Note_on_c, 8, 53, 0
1, 10579, Note_on_c, 8, 54, 95
1, 10600, Note_on_c, 1, 47, 0
1, 10606, Note_on_c, 8, 54, 0
1, 10606, Note_on_c, 1, 35, 0
1, 10606, Note_on_c, 3, 71, 0
1, 10607, Note_on_c, 4, 59, 0
1, 10607, Lyric_t, "with "
1, 10607, Note_on_c, 1, 33, 100
1, 10607, Note_on_c, 3, 69, 71
1, 10607, Note_on_c, 4, 57, 28
1, 10607, Note_on_c, 9, 42, 39
1, 10607, Note_on_c, 1, 45, 97
1, 10608, Note_on_c, 9, 42, 0
1, 10608, Note_on_c, 8, 57, 92
1, 10623, Note_on_c, 1, 45, 0
1, 10624, Note_on_c, 1, 33, 0
1, 10625, Note_on_c, 8, 57, 0
1, 10644, Note_on_c, 0, 62, 0
1, 10648, Note_on_c, 0, 66, 0
1, 10654, Note_on_c, 8, 58, 104
1, 10655, Note_on_c, 4, 57, 0
1, 10655, Note_on_c, 3, 69, 0
1, 10655, Note_on_c, 3, 74, 87
1, 10655, Note_on_c, 1, 35, 97
1, 10655, Note_on_c, 9, 42, 110
1, 10655, Lyric_t, "my "
1, 10655, Note_on_c, 4, 62, 44
1, 10656, Note_on_c, 9, 42, 0
1, 10656, Note_on_c, 9, 60, 77
1, 10656, Note_on_c, 9, 36, 110
1, 10656, Note_on_c, 9, 39, 110
1, 10656, Note_on_c, 1, 47, 120
1, 10656, Note_on_c, 9, 40, 110
1, 10657, Note_on_c, 9, 40, 0
1, 10657, Note_on_c, 9, 39, 0
1, 10657, Note_on_c, 9, 36, 0
1, 10657, Note_on_c, 9, 60, 0
1, 10657, Note_on_c, 0, 64, 105
1, 10657, Note_on_c, 0, 61, 105
1, 10669, Note_on_c, 8, 58, 0
1, 10669, Note_on_c, 8, 59, 86
1, 10704, Note_on_c, 8, 62, 112
1, 10705, Note_on_c, 9, 42, 42
1, 10706, Note_on_c, 9, 42, 0
1, 10706, Note_on_c, 8, 59, 0
1, 10730, Note_on_c, 8, 62, 0
1, 10734, Note_on_c, 0, 61, 0
1, 10736, Note_on_c, 0, 64, 0
1, 10742, Note_on_c, 1, 35, 0
1, 10742, Note_on_c, 1, 47, 0
1, 10745, Note_on_c, 0, 57, 0
1, 10750, Note_on_c, 3, 74, 0
1, 10751, Note_on_c, 9, 43, 83
1, 10752, Note_on_c, 9, 43, 0
1, 10752, Note_on_c, 1, 28, 104
1, 10752, Note_on_c, 9, 36, 110
1, 10752, Note_on_c, 9, 42, 96
1, 10753, Note_on_c, 9, 42, 0
1, 10753, Note_on_c, 9, 36, 0
1, 10753, Note_on_c, 4, 62, 0
1, 10753, Note_on_c, 0, 55, 94
1, 10753, Note_on_c, 3, 71, 73
1, 10753, Note_on_c, 4, 59, 30
1, 10753, Note_on_c, 1, 40, 110
1, 10753, Note_on_c, 0, 59, 101
1, 10753, Lyric_t, "love, "
1, 10753, Note_on_c, 0, 62, 104
1, 10799, Note_on_c, 8, 57, 98
1, 10799, Note_on_c, 9, 42, 37
1, 10800, Note_on_c, 9, 42, 0
1, 10802, Note_on_c, 3, 71, 0
1, 10819, Note_on_c, 8, 57, 0
1, 10825, Note_on_c, 8, 57, 95
1, 10839, Note_on_c, 8, 57, 0
1, 10846, Note_on_c, 8, 57, 107
1, 10847, Note_on_c, 9, 42, 110
1, 10848, Note_on_c, 9, 42, 0
1, 10848, Note_on_c, 9, 60, 77
1, 10848, Note_on_c, 9, 40, 95
1, 10848, Note_on_c, 9, 39, 110
1, 10849, Note_on_c, 9, 39, 0
1, 10849, Note_on_c, 9, 40, 0
1, 10849, Note_on_c, 9, 60, 0
1, 10862, Note_on_c, 8, 57, 0
1, 10864, Note_on_c, 1, 28, 0
1, 10868, Note_on_c, 1, 40, 0
1, 10895, Note_on_c, 1, 43, 100
1, 10895, Note_on_c, 8, 55, 111
1, 10895, Note_on_c, 1, 31, 114
1, 10896, Note_on_c, 9, 36, 91
1, 10896, Note_on_c, 9, 42, 44
1, 10897, Note_on_c, 9, 42, 0
1, 10897, Note_on_c, 9, 36, 0
1, 10898, Note_on_c, 0, 81, 87
1, 10901, Note_on_c, 4, 59, 0
1, 10910, Note_on_c, 8, 55, 0
1, 10913, Note_on_c, 1, 43, 0
1, 10913, Note_on_c, 1, 31, 0
1, 10921, Note_on_c, 0, 78, 76
1, 10943, Note_on_c, 8, 54, 115
1, 10943, Note_on_c, 9, 42, 95
1, 10944, Note_on_c, 9, 42, 0
1, 10944, Note_on_c, 1, 33, 112
1, 10944, Note_on_c, 9, 36, 110
1, 10944, Note_on_c, 1, 45, 117
1, 10945, Note_on_c, 9, 36, 0
1, 10954, Note_on_c, 0, 74, 66
1, 10985, Note_on_c, 8, 54, 0
1, 10991, Note_on_c, 9, 42, 39
1, 10992, Note_on_c, 9, 42, 0
1, 10992, Note_on_c, 8, 54, 110
1, 10997, Note_on_c, 8, 54, 0
1, 11016, Note_on_c, 8, 54, 110
1, 11021, Note_on_c, 8, 54, 0
1, 11024, Note_on_c, 1, 33, 0
1, 11030, Note_on_c, 1, 45, 0
1, 11035, Note_on_c, 0, 74, 0
1, 11039, Note_on_c, 8, 53, 110
1, 11039, Note_on_c, 1, 43, 112
1, 11039, Note_on_c, 9, 42, 110
1, 11039, Note_on_c, 1, 31, 100
1, 11040, Note_on_c, 9, 42, 0
1, 11040, Note_on_c, 9, 36, 110
1, 11040, Note_on_c, 9, 39, 110
1, 11040, Note_on_c, 9, 40, 110
1, 11040, Note_on_c, 9, 60, 77
1, 11041, Note_on_c, 9, 60, 0
1, 11041, Note_on_c, 9, 39, 0
1, 11041, Note_on_c, 9, 36, 0
1, 11041, Note_on_c, 9, 40, 0
1, 11060, Note_on_c, 8, 53, 0
1, 11060, Note_on_c, 8, 54, 87
1, 11088, Note_on_c, 8, 57, 100
1, 11089, Note_on_c, 9, 42, 42
1, 11090, Note_on_c, 9, 42, 0
1, 11091, Note_on_c, 8, 54, 0
1, 11106, Note_on_c, 8, 57, 0
1, 11112, Note_on_c, 0, 78, 0
1, 11113, Note_on_c, 0, 81, 0
1, 11116, Note_on_c, 1, 31, 0
1, 11118, Note_on_c, 1, 43, 0
1, 11135, Note_on_c, 8, 53, 113
1, 11135, Note_on_c, 3, 73, 94
1, 11135, Lyric_t, "all "
1, 11135, Note_on_c, 4, 61, 51
1, 11136, Note_on_c, 0, 55, 0
1, 11136, Note_on_c, 0, 59, 0
1, 11136, Note_on_c, 0, 62, 0
1, 11136, Note_on_c, 9, 36, 110
1, 11136, Note_on_c, 9, 42, 96
1, 11136, Note_on_c, 0, 64, 98
1, 11137, Note_on_c, 9, 42, 0
1, 11137, Note_on_c, 9, 36, 0
1, 11137, Note_on_c, 0, 76, 86
1, 11137, Note_on_c, 1, 30, 97
1, 11137, Note_on_c, 0, 61, 99
1, 11137, Note_on_c, 1, 42, 99
1, 11137, Note_on_c, 0, 57, 87
1, 11155, Note_on_c, 8, 53, 0
1, 11155, Note_on_c, 8, 54, 84
1, 11183, Note_on_c, 9, 42, 37
1, 11184, Note_on_c, 9, 42, 0
1, 11184, Note_on_c, 8, 57, 103
1, 11185, Note_on_c, 4, 61, 0
1, 11185, Note_on_c, 3, 73, 0
1, 11185, Note_on_c, 4, 57, 21
1, 11185, Note_on_c, 3, 69, 64
1, 11187, Note_on_c, 8, 54, 0
1, 11202, Note_on_c, 8, 57, 0
1, 11231, Note_on_c, 4, 57, 0
1, 11231, Note_on_c, 3, 66, 55
1, 11231, Note_on_c, 9, 42, 110
1, 11231, Note_on_c, 4, 54, 12
1, 11232, Note_on_c, 9, 42, 0
1, 11232, Note_on_c, 9, 39, 110
1, 11232, Note_on_c, 9, 60, 77
1, 11232, Note_on_c, 9, 40, 95
1, 11233, Note_on_c, 9, 40, 0
1, 11233, Note_on_c, 9, 39, 0
1, 11233, Note_on_c, 9, 60, 0
1, 11234, Note_on_c, 3, 69, 0
1, 11244, Note_on_c, 1, 30, 0
1, 11247, Note_on_c, 1, 42, 0
1, 11254, Note_on_c, 0, 57, 0
1, 11278, Note_on_c, 8, 57, 113
1, 11279, Note_on_c, 4, 54, 0
1, 11279, Note_on_c, 0, 64, 0
1, 11279, Lyric_t, "right. "
1, 11279, Note_on_c, 0, 57, 100
1, 11279, Note_on_c, 4, 59, 35
1, 11279, Lyric_t, ""
1, 11279, Lyric_t, "\015"
1, 11279, Note_on_c, 0, 66, 97
1, 11279, Note_on_c, 0, 62, 112
1, 11279, Note_on_c, 3, 71, 78
1, 11280, Note_on_c, 3, 66, 0
1, 11280, Note_on_c, 0, 61, 0
1, 11280, Note_on_c, 1, 47, 110
1, 11280, Note_on_c, 1, 35, 98
1, 11280, Note_on_c, 9, 36, 91
1, 11280, Note_on_c, 9, 42, 44
1, 11281, Note_on_c, 9, 42, 0
1, 11281, Note_on_c, 9, 36, 0
1, 11283, Note_on_c, 0, 78, 75
1, 11285, Note_on_c, 0, 76, 0
1, 11301, Note_on_c, 8, 57, 0
1, 11326, Note_on_c, 8, 53, 115
1, 11327, Note_on_c, 9, 42, 95
1, 11328, Note_on_c, 9, 42, 0
1, 11328, Note_on_c, 9, 36, 110
1, 11329, Note_on_c, 9, 36, 0
1, 11347, Note_on_c, 8, 53, 0
1, 11347, Note_on_c, 8, 54, 88
1, 11368, Note_on_c, 1, 47, 0
1, 11374, Note_on_c, 1, 35, 0
1, 11375, Note_on_c, 8, 54, 0
1, 11375, Note_on_c, 1, 33, 100
1, 11375, Note_on_c, 1, 45, 97
1, 11375, Note_on_c, 8, 57, 95
1, 11375, Note_on_c, 9, 42, 39
1, 11376, Note_on_c, 9, 42, 0
1, 11391, Note_on_c, 8, 57, 0
1, 11391, Note_on_c, 1, 45, 0
1, 11391, Lyric_t, ""
1, 11391, Lyric_t, "\015"
1, 11392, Note_on_c, 1, 33, 0
1, 11412, Note_on_c, 0, 62, 0
1, 11416, Note_on_c, 0, 66, 0
1, 11421, Note_on_c, 0, 78, 0
1, 11423, Note_on_c, 0, 76, 76
1, 11423, Note_on_c, 9, 42, 110
1, 11423, Note_on_c, 1, 35, 97
1, 11423, Note_on_c, 8, 59, 88
1, 11424, Note_on_c, 9, 42, 0
1, 11424, Note_on_c, 9, 60, 77
1, 11424, Note_on_c, 1, 47, 120
1, 11424, Note_on_c, 9, 39, 110
1, 11424, Note_on_c, 9, 40, 110
1, 11424, Note_on_c, 9, 36, 110
1, 11425, Note_on_c, 9, 36, 0
1, 11425, Note_on_c, 9, 60, 0
1, 11425, Note_on_c, 9, 40, 0
1, 11425, Note_on_c, 9, 39, 0
1, 11425, Note_on_c, 0, 61, 105
1, 11425, Note_on_c, 0, 64, 105
1, 11467, Note_on_c, 8, 59, 0
1, 11470, Note_on_c, 3, 71, 0
1, 11471, Note_on_c, 8, 62, 113
1, 11473, Note_on_c, 9, 42, 42
1, 11474, Note_on_c, 9, 42, 0
1, 11497, Note_on_c, 8, 62, 0
1, 11502, Note_on_c, 0, 61, 0
1, 11504, Note_on_c, 0, 64, 0
1, 11507, Note_on_c, 0, 76, 0
1, 11510, Note_on_c, 1, 47, 0
1, 11510, Note_on_c, 1, 35, 0
1, 11513, Note_on_c, 0, 57, 0
1, 11520, Note_on_c, 9, 42, 96
1, 11520, Note_on_c, 9, 36, 110
1, 11520, Note_on_c, 1, 28, 104
1, 11520, Note_on_c, 0, 74, 97
1, 11521, Note_on_c, 9, 36, 0
1, 11521, Note_on_c, 9, 42, 0
1, 11521, Note_on_c, 1, 40, 110
1, 11521, Note_on_c, 0, 62, 104
1, 11521, Note_on_c, 0, 55, 94
1, 11521, Note_on_c, 0, 59, 101
1, 11521, Note_on_c, 9, 43, 83
1, 11522, Note_on_c, 9, 43, 0
1, 11538, Note_on_c, 4, 59, 0
1, 11567, Note_on_c, 9, 42, 37
1, 11568, Note_on_c, 9, 42, 0
1, 11568, Note_on_c, 8, 57, 90
1, 11583, Note_on_c, 8, 57, 0
1, 11591, Note_on_c, 8, 57, 100
1, 11608, Note_on_c, 8, 57, 0
1, 11614, Note_on_c, 8, 57, 113
1, 11615, Note_on_c, 3, 74, 97
1, 11615, Note_on_c, 9, 42, 110
1, 11615, Note_on_c, 4, 62, 54
1, 11615, Lyric_t, "Let "
1, 11616, Note_on_c, 9, 42, 0
1, 11616, Note_on_c, 9, 60, 77
1, 11616, Note_on_c, 9, 39, 110
1, 11616, Note_on_c, 9, 40, 95
1, 11617, Note_on_c, 9, 40, 0
1, 11617, Note_on_c, 9, 60, 0
1, 11617, Note_on_c, 9, 39, 0
1, 11632, Note_on_c, 1, 28, 0
1, 11633, Note_on_c, 8, 57, 0
1, 11636, Note_on_c, 1, 40, 0
1, 11663, Note_on_c, 1, 31, 114
1, 11663, Note_on_c, 1, 43, 100
1, 11663, Note_on_c, 8, 55, 109
1, 11664, Note_on_c, 3, 74, 0
1, 11664, Note_on_c, 9, 36, 91
1, 11664, Note_on_c, 9, 42, 44
1, 11665, Note_on_c, 9, 42, 0
1, 11665, Note_on_c, 9, 36, 0
1, 11665, Note_on_c, 4, 62, 0
1, 11665, Lyric_t, "you "
1, 11665, Note_on_c, 4, 59, 28
1, 11665, Note_on_c, 3, 71, 71
1, 11681, Note_on_c, 8, 55, 0
1, 11681, Note_on_c, 1, 43, 0
1, 11681, Note_on_c, 1, 31, 0
1, 11709, Note_on_c, 3, 71, 0
1, 11711, Note_on_c, 8, 54, 117
1, 11711, Note_on_c, 9, 42, 95
1, 11712, Note_on_c, 9, 42, 0
1, 11712, Note_on_c, 9, 36, 110
1, 11712, Note_on_c, 1, 33, 112
1, 11712, Note_on_c, 1, 45, 117
1, 11713, Note_on_c, 9, 36, 0
1, 11713, Note_on_c, 4, 59, 0
1, 11713, Lyric_t, "know, "
1, 11713, Note_on_c, 3, 76, 99
1, 11713, Note_on_c, 4, 64, 56
1, 11751, Note_on_c, 0, 74, 0
1, 11758, Note_on_c, 8, 54, 0
1, 11759, Note_on_c, 9, 42, 39
1, 11759, Note_on_c, 0, 71, 94
1, 11760, Note_on_c, 9, 42, 0
1, 11784, Note_on_c, 8, 54, 110
1, 11789, Note_on_c, 8, 54, 0
1, 11792, Note_on_c, 1, 33, 0
1, 11798, Note_on_c, 1, 45, 0
1, 11806, Note_on_c, 3, 76, 0
1, 11806, Note_on_c, 8, 53, 98
1, 11807, Note_on_c, 4, 64, 0
1, 11807, Note_on_c, 9, 42, 110
1, 11807, Note_on_c, 3, 71, 83
1, 11807, Note_on_c, 4, 59, 40
1, 11807, Lyric_t, "girl, "
1, 11808, Note_on_c, 9, 42, 0
1, 11808, Note_on_c, 9, 39, 110
1, 11808, Note_on_c, 9, 36, 110
1, 11808, Note_on_c, 9, 60, 77
1, 11808, Note_on_c, 9, 40, 110
1, 11808, Note_on_c, 1, 43, 112
1, 11808, Note_on_c, 0, 74, 95
1, 11808, Note_on_c, 1, 31, 100
1, 11809, Note_on_c, 9, 40, 0
1, 11809, Note_on_c, 9, 60, 0
1, 11809, Note_on_c, 9, 36, 0
1, 11809, Note_on_c, 9, 39, 0
1, 11810, Note_on_c, 0, 71, 0
1, 11826, Note_on_c, 8, 53, 0
1, 11826, Note_on_c, 8, 54, 82
1, 11854, Note_on_c, 8, 54, 0
1, 11856, Note_on_c, 8, 57, 103
1, 11857, Note_on_c, 9, 42, 42
1, 11858, Note_on_c, 9, 42, 0
1, 11860, Note_on_c, 3, 71, 0
1, 11875, Note_on_c, 8, 57, 0
1, 11883, Note_on_c, 0, 74, 0
1, 11885, Note_on_c, 1, 31, 0
1, 11887, Note_on_c, 1, 43, 0
1, 11903, Note_on_c, 4, 59, 0
1, 11903, Lyric_t, "you're "
1, 11903, Note_on_c, 4, 54, 47
1, 11903, Note_on_c, 3, 66, 90
1, 11904, Note_on_c, 0, 55, 0
1, 11904, Note_on_c, 0, 62, 0
1, 11904, Note_on_c, 0, 59, 0
1, 11904, Note_on_c, 0, 64, 98
1, 11904, Note_on_c, 0, 76, 84
1, 11904, Note_on_c, 8, 53, 114
1, 11904, Note_on_c, 9, 36, 110
1, 11904, Note_on_c, 9, 42, 96
1, 11905, Note_on_c, 9, 42, 0
1, 11905, Note_on_c, 9, 36, 0
1, 11905, Note_on_c, 1, 42, 99
1, 11905, Note_on_c, 1, 30, 97
1, 11905, Note_on_c, 0, 57, 87
1, 11905, Note_on_c, 0, 73, 83
1, 11905, Note_on_c, 0, 61, 99
1, 11924, Note_on_c, 8, 53, 0
1, 11924, Note_on_c, 8, 54, 88
1, 11951, Note_on_c, 3, 66, 0
1, 11951, Note_on_c, 9, 42, 37
1, 11952, Note_on_c, 9, 42, 0
1, 11952, Note_on_c, 4, 54, 0
1, 11952, Note_on_c, 3, 69, 71
1, 11952, Note_on_c, 4, 57, 28
1, 11952, Lyric_t, "look"
1, 11952, Note_on_c, 8, 57, 96
1, 11956, Note_on_c, 8, 54, 0
1, 11970, Note_on_c, 8, 57, 0
1, 11999, Note_on_c, 3, 69, 0
1, 11999, Note_on_c, 4, 57, 0
1, 11999, Note_on_c, 9, 42, 110
1, 11999, Lyric_t, "ing "
1, 11999, Note_on_c, 3, 73, 60
1, 11999, Note_on_c, 4, 61, 17
1, 12000, Note_on_c, 9, 42, 0
1, 12000, Note_on_c, 9, 60, 77
1, 12000, Note_on_c, 9, 39, 110
1, 12000, Note_on_c, 9, 40, 95
1, 12001, Note_on_c, 9, 40, 0
1, 12001, Note_on_c, 9, 60, 0
1, 12001, Note_on_c, 9, 39, 0
1, 12012, Note_on_c, 1, 30, 0
1, 12015, Note_on_c, 1, 42, 0
1, 12022, Note_on_c, 0, 57, 0
1, 12024, Note_on_c, 0, 61, 0
1, 12024, Note_on_c, 0, 64, 0
1, 12047, Note_on_c, 0, 76, 0
1, 12047, Note_on_c, 4, 61, 0
1, 12047, Note_on_c, 3, 73, 0
1, 12047, Lyric_t, "good. "
1, 12047, Note_on_c, 0, 66, 97
1, 12047, Lyric_t, ""
1, 12047, Lyric_t, "\015"
1, 12047, Note_on_c, 0, 62, 112
1, 12047, Note_on_c, 4, 59, 33
1, 12047, Note_on_c, 0, 57, 100
1, 12047, Note_on_c, 3, 71, 76
1, 12048, Note_on_c, 0, 73, 0
1, 12048, Note_on_c, 0, 78, 81
1, 12048, Note_on_c, 1, 47, 110
1, 12048, Note_on_c, 1, 35, 98
1, 12048, Note_on_c, 8, 57, 101
1, 12048, Note_on_c, 9, 42, 44
1, 12048, Note_on_c, 9, 36, 91
1, 12049, Note_on_c, 9, 36, 0
1, 12049, Note_on_c, 9, 42, 0
1, 12049, Note_on_c, 0, 74, 85
1, 12067, Note_on_c, 8, 57, 0
1, 12072, Note_on_c, 8, 54, 110
1, 12077, Note_on_c, 8, 54, 0
1, 12094, Note_on_c, 8, 52, 107
1, 12095, Note_on_c, 9, 42, 95
1, 12096, Note_on_c, 9, 42, 0
1, 12096, Note_on_c, 9, 36, 110
1, 12097, Note_on_c, 9, 36, 0
1, 12102, Note_on_c, 8, 52, 0
1, 12102, Note_on_c, 8, 53, 107
1, 12114, Note_on_c, 8, 53, 0
1, 12115, Note_on_c, 8, 54, 103
1, 12136, Note_on_c, 1, 47, 0
1, 12142, Note_on_c, 1, 35, 0
1, 12142, Note_on_c, 3, 71, 0
1, 12143, Note_on_c, 4, 59, 0
1, 12143, Lyric_t, "You're "
1, 12143, Note_on_c, 3, 69, 59
1, 12143, Note_on_c, 4, 57, 16
1, 12143, Note_on_c, 1, 45, 97
1, 12143, Note_on_c, 8, 57, 97
1, 12143, Note_on_c, 9, 42, 39
1, 12143, Note_on_c, 1, 33, 100
1, 12144, Note_on_c, 9, 42, 0
1, 12146, Note_on_c, 8, 54, 0
1, 12158, Note_on_c, 8, 57, 0
1, 12159, Note_on_c, 1, 45, 0
1, 12160, Note_on_c, 1, 33, 0
1, 12180, Note_on_c, 0, 62, 0
1, 12184, Note_on_c, 0, 66, 0
1, 12190, Note_on_c, 3, 69, 0
1, 12191, Note_on_c, 0, 78, 0
1, 12191, Note_on_c, 4, 57, 0
1, 12191, Note_on_c, 4, 62, 41
1, 12191, Note_on_c, 1, 35, 97
1, 12191, Lyric_t, "out "
1, 12191, Note_on_c, 9, 42, 110
1, 12191, Note_on_c, 3, 74, 84
1, 12191, Note_on_c, 8, 58, 97
1, 12192, Note_on_c, 9, 42, 0
1, 12192, Note_on_c, 0, 74, 0
1, 12192, Note_on_c, 9, 36, 110
1, 12192, Note_on_c, 1, 47, 120
1, 12192, Note_on_c, 9, 40, 110
1, 12192, Note_on_c, 9, 60, 77
1, 12192, Note_on_c, 9, 39, 110
1, 12193, Note_on_c, 9, 39, 0
1, 12193, Note_on_c, 9, 60, 0
1, 12193, Note_on_c, 9, 36, 0
1, 12193, Note_on_c, 9, 40, 0
1, 12193, Note_on_c, 0, 64, 105
1, 12193, Note_on_c, 0, 61, 105
1, 12193, Note_on_c, 0, 73, 84
1, 12193, Note_on_c, 0, 76, 83
1, 12200, Note_on_c, 8, 58, 0
1, 12200, Note_on_c, 8, 59, 83
1, 12238, Note_on_c, 3, 74, 0
1, 12238, Note_on_c, 4, 62, 0
1, 12239, Note_on_c, 8, 62, 114
1, 12239, Note_on_c, 4, 62, 48
1, 12239, Lyric_t, "of "
1, 12239, Note_on_c, 3, 74, 91
1, 12241, Note_on_c, 9, 42, 42
1, 12242, Note_on_c, 9, 42, 0
1, 12242, Note_on_c, 8, 59, 0
1, 12264, Note_on_c, 8, 62, 0
1, 12270, Note_on_c, 0, 61, 0
1, 12272, Note_on_c, 0, 64, 0
1, 12274, Note_on_c, 0, 76, 0
1, 12277, Note_on_c, 0, 73, 0
1, 12278, Note_on_c, 1, 35, 0
1, 12278, Note_on_c, 1, 47, 0
1, 12281, Note_on_c, 0, 57, 0
1, 12287, Note_on_c, 3, 74, 0
1, 12287, Note_on_c, 4, 62, 0
1, 12287, Lyric_t, "sight, "
1, 12287, Note_on_c, 3, 71, 79
1, 12287, Note_on_c, 4, 59, 36
1, 12288, Note_on_c, 0, 74, 105
1, 12288, Note_on_c, 9, 42, 96
1, 12288, Note_on_c, 9, 36, 110
1, 12288, Note_on_c, 1, 28, 104
1, 12289, Note_on_c, 9, 36, 0
1, 12289, Note_on_c, 9, 42, 0
1, 12289, Note_on_c, 1, 40, 110
1, 12289, Note_on_c, 0, 55, 94
1, 12289, Note_on_c, 0, 62, 104
1, 12289, Note_on_c, 9, 43, 83
1, 12289, Note_on_c, 0, 59, 101
1, 12290, Note_on_c, 9, 43, 0
1, 12335, Note_on_c, 9, 42, 37
1, 12336, Note_on_c, 9, 42, 0
1, 12337, Note_on_c, 8, 57, 93
1, 12359, Note_on_c, 8, 57, 0
1, 12362, Note_on_c, 8, 57, 91
1, 12379, Note_on_c, 8, 57, 0
1, 12382, Note_on_c, 3, 71, 0
1, 12383, Note_on_c, 9, 42, 110
1, 12383, Note_on_c, 8, 57, 110
1, 12384, Note_on_c, 9, 42, 0
1, 12384, Note_on_c, 9, 39, 110
1, 12384, Note_on_c, 9, 40, 95
1, 12384, Note_on_c, 9, 60, 77
1, 12385, Note_on_c, 9, 60, 0
1, 12385, Note_on_c, 9, 40, 0
1, 12385, Note_on_c, 9, 39, 0
1, 12400, Note_on_c, 1, 28, 0
1, 12403, Note_on_c, 8, 57, 0
1, 12404, Note_on_c, 1, 40, 0
1, 12421, Note_on_c, 0, 74, 0
1, 12431, Note_on_c, 1, 43, 100
1, 12431, Note_on_c, 1, 31, 114
1, 12432, Note_on_c, 9, 42, 44
1, 12432, Note_on_c, 9, 36, 91
1, 12433, Note_on_c, 9, 36, 0
1, 12433, Note_on_c, 9, 42, 0
1, 12433, Note_on_c, 0, 74, 112
1, 12433, Note_on_c, 8, 55, 112
1, 12444, Note_on_c, 4, 59, 0
1, 12449, Note_on_c, 1, 43, 0
1, 12449, Note_on_c, 1, 31, 0
1, 12450, Note_on_c, 8, 55, 0
1, 12479, Note_on_c, 1, 45, 117
1, 12479, Note_on_c, 9, 42, 95
1, 12479, Note_on_c, 1, 33, 112
1, 12480, Note_on_c, 9, 42, 0
1, 12480, Note_on_c, 9, 36, 110
1, 12481, Note_on_c, 9, 36, 0
1, 12481, Note_on_c, 8, 54, 115
1, 12527, Note_on_c, 8, 54, 0
1, 12527, Note_on_c, 0, 74, 0
1, 12527, Note_on_c, 9, 42, 39
1, 12528, Note_on_c, 9, 42, 0
1, 12528, Note_on_c, 8, 54, 110
1, 12529, Note_on_c, 0, 71, 97
1, 12533, Note_on_c, 8, 54, 0
1, 12552, Note_on_c, 8, 54, 110
1, 12557, Note_on_c, 8, 54, 0
1, 12559, Note_on_c, 1, 33, 0
1, 12565, Note_on_c, 1, 45, 0
1, 12575, Note_on_c, 1, 43, 112
1, 12575, Note_on_c, 1, 31, 100
1, 12575, Note_on_c, 9, 42, 110
1, 12576, Note_on_c, 9, 42, 0
1, 12576, Note_on_c, 0, 71, 0
1, 12576, Note_on_c, 9, 39, 110
1, 12576, Note_on_c, 9, 40, 110
1, 12576, Note_on_c, 9, 36, 110
1, 12576, Note_on_c, 9, 60, 77
1, 12576, Note_on_c, 8, 53, 109
1, 12577, Note_on_c, 9, 60, 0
1, 12577, Note_on_c, 9, 36, 0
1, 12577, Note_on_c, 9, 40, 0
1, 12577, Note_on_c, 9, 39, 0
1, 12577, Note_on_c, 0, 74, 94
1, 12592, Note_on_c, 8, 53, 0
1, 12592, Note_on_c, 8, 54, 90
1, 12619, Note_on_c, 8, 54, 0
1, 12624, Note_on_c, 8, 57, 95
1, 12625, Note_on_c, 9, 42, 42
1, 12626, Note_on_c, 9, 42, 0
1, 12645, Note_on_c, 8, 57, 0
1, 12645, Note_on_c, 0, 74, 0
1, 12652, Note_on_c, 1, 31, 0
1, 12654, Note_on_c, 1, 43, 0
1, 12671, Lyric_t, "all "
1, 12671, Note_on_c, 4, 61, 49
1, 12671, Note_on_c, 3, 73, 92
1, 12672, Note_on_c, 0, 55, 0
1, 12672, Note_on_c, 0, 62, 0
1, 12672, Note_on_c, 0, 59, 0
1, 12672, Note_on_c, 9, 36, 110
1, 12672, Note_on_c, 9, 42, 96
1, 12672, Note_on_c, 0, 64, 98
1, 12672, Note_on_c, 8, 53, 109
1, 12673, Note_on_c, 9, 42, 0
1, 12673, Note_on_c, 9, 36, 0
1, 12673, Note_on_c, 0, 76, 87
1, 12673, Note_on_c, 0, 73, 84
1, 12673, Note_on_c, 0, 57, 87
1, 12673, Note_on_c, 1, 42, 99
1, 12673, Note_on_c, 1, 30, 97
1, 12673, Note_on_c, 0, 61, 99
1, 12687, Note_on_c, 8, 53, 0
1, 12687, Note_on_c, 8, 54, 109
1, 12715, Note_on_c, 8, 54, 0
1, 12719, Note_on_c, 4, 61, 0
1, 12719, Note_on_c, 3, 69, 65
1, 12719, Note_on_c, 9, 42, 37
1, 12719, Note_on_c, 4, 57, 22
1, 12720, Note_on_c, 9, 42, 0
1, 12721, Note_on_c, 8, 57, 91
1, 12722, Note_on_c, 3, 73, 0
1, 12735, Note_on_c, 8, 57, 0
1, 12767, Note_on_c, 4, 57, 0
1, 12767, Note_on_c, 9, 42, 110
1, 12767, Note_on_c, 4, 54, 8
1, 12767, Note_on_c, 3, 66, 51
1, 12768, Note_on_c, 9, 42, 0
1, 12768, Note_on_c, 3, 69, 0
1, 12768, Note_on_c, 9, 40, 95
1, 12768, Note_on_c, 9, 60, 77
1, 12768, Note_on_c, 9, 39, 110
1, 12769, Note_on_c, 9, 39, 0
1, 12769, Note_on_c, 9, 40, 0
1, 12769, Note_on_c, 9, 60, 0
1, 12780, Note_on_c, 1, 30, 0
1, 12783, Note_on_c, 1, 42, 0
1, 12790, Note_on_c, 0, 57, 0
1, 12792, Note_on_c, 0, 61, 0
1, 12792, Note_on_c, 0, 64, 0
1, 12792, Note_on_c, 8, 54, 110
1, 12797, Note_on_c, 8, 54, 0
1, 12814, Note_on_c, 3, 66, 0
1, 12815, Note_on_c, 0, 57, 100
1, 12815, Note_on_c, 0, 66, 97
1, 12815, Note_on_c, 8, 57, 98
1, 12815, Note_on_c, 0, 62, 112
1, 12816, Note_on_c, 0, 76, 0
1, 12816, Note_on_c, 4, 54, 0
1, 12816, Note_on_c, 0, 73, 0
1, 12816, Note_on_c, 9, 42, 44
1, 12816, Note_on_c, 4, 59, 30
1, 12816, Lyric_t, ""
1, 12816, Lyric_t, "\015"
1, 12816, Note_on_c, 9, 36, 91
1, 12816, Lyric_t, "right. "
1, 12816, Note_on_c, 1, 47, 110
1, 12816, Note_on_c, 1, 35, 98
1, 12816, Note_on_c, 3, 71, 73
1, 12817, Note_on_c, 9, 36, 0
1, 12817, Note_on_c, 9, 42, 0
1, 12817, Note_on_c, 0, 74, 95
1, 12817, Note_on_c, 0, 78, 89
1, 12832, Note_on_c, 8, 57, 0
1, 12840, Note_on_c, 8, 54, 110
1, 12845, Note_on_c, 8, 54, 0
1, 12863, Note_on_c, 9, 42, 95
1, 12864, Note_on_c, 9, 42, 0
1, 12864, Note_on_c, 9, 36, 110
1, 12865, Note_on_c, 9, 36, 0
1, 12865, Lyric_t, ""
1, 12865, Lyric_t, "\015"
1, 12869, Note_on_c, 8, 53, 100
1, 12883, Note_on_c, 8, 53, 0
1, 12883, Note_on_c, 8, 54, 97
1, 12904, Note_on_c, 1, 47, 0
1, 12906, Note_on_c, 8, 54, 0
1, 12910, Note_on_c, 1, 35, 0
1, 12911, Note_on_c, 1, 45, 97
1, 12911, Note_on_c, 9, 42, 58
1, 12911, Note_on_c, 1, 33, 100
1, 12912, Note_on_c, 9, 42, 0
1, 12912, Note_on_c, 8, 57, 96
1, 12926, Note_on_c, 8, 57, 0
1, 12927, Note_on_c, 1, 45, 0
1, 12928, Note_on_c, 1, 33, 0
1, 12948, Note_on_c, 0, 62, 0
1, 12952, Note_on_c, 0, 66, 0
1, 12955, Note_on_c, 3, 71, 0
1, 12958, Note_on_c, 8, 58, 104
1, 12959, Note_on_c, 4, 59, 0
1, 12959, Note_on_c, 0, 76, 84
1, 12959, Note_on_c, 9, 42, 110
1, 12959, Note_on_c, 1, 35, 97
1, 12960, Note_on_c, 9, 42, 0
1, 12960, Note_on_c, 0, 78, 0
1, 12960, Note_on_c, 0, 74, 0
1, 12960, Note_on_c, 0, 73, 82
1, 12960, Note_on_c, 9, 60, 77
1, 12960, Note_on_c, 4, 64, 42
1, 12960, Note_on_c, 9, 36, 110
1, 12960, Note_on_c, 9, 39, 110
1, 12960, Note_on_c, 9, 40, 110
1, 12960, Note_on_c, 1, 47, 120
1, 12960, Note_on_c, 4, 59, 47
1, 12961, Note_on_c, 9, 40, 0
1, 12961, Note_on_c, 9, 39, 0
1, 12961, Note_on_c, 9, 60, 0
1, 12961, Note_on_c, 9, 36, 0
1, 12961, Lyric_t, "Just "
1, 12961, Note_on_c, 0, 61, 105
1, 12961, Note_on_c, 3, 71, 90
1, 12961, Note_on_c, 0, 64, 105
1, 12975, Note_on_c, 8, 58, 0
1, 12975, Note_on_c, 8, 59, 84
1, 13008, Note_on_c, 8, 62, 111
1, 13009, Note_on_c, 9, 42, 42
1, 13010, Note_on_c, 9, 42, 0
1, 13010, Note_on_c, 8, 59, 0
1, 13013, Note_on_c, 3, 71, 0
1, 13031, Note_on_c, 0, 73, 0
1, 13031, Note_on_c, 8, 62, 0
1, 13038, Note_on_c, 0, 61, 0
1, 13038, Note_on_c, 0, 76, 0
1, 13040, Note_on_c, 0, 64, 0
1, 13046, Note_on_c, 1, 47, 0
1, 13046, Note_on_c, 1, 35, 0
1, 13049, Note_on_c, 0, 57, 0
1, 13056, Note_on_c, 4, 59, 0
1, 13056, Note_on_c, 4, 64, 0
1, 13056, Note_on_c, 9, 42, 64
1, 13056, Lyric_t, "move "
1, 13056, Note_on_c, 3, 74, 88
1, 13056, Note_on_c, 9, 36, 110
1, 13056, Note_on_c, 1, 28, 104
1, 13056, Note_on_c, 4, 62, 45
1, 13056, Note_on_c, 9, 43, 89
1, 13056, Note_on_c, 4, 66, 35
1, 13057, Note_on_c, 9, 43, 0
1, 13057, Note_on_c, 9, 36, 0
1, 13057, Note_on_c, 9, 42, 0
1, 13057, Note_on_c, 0, 55, 94
1, 13057, Note_on_c, 0, 59, 101
1, 13057, Note_on_c, 0, 74, 91
1, 13057, Note_on_c, 0, 62, 104
1, 13057, Note_on_c, 1, 40, 110
1, 13103, Note_on_c, 8, 57, 91
1, 13103, Note_on_c, 9, 42, 37
1, 13104, Note_on_c, 9, 42, 0
1, 13128, Note_on_c, 8, 57, 0
1, 13129, Note_on_c, 8, 57, 101
1, 13145, Note_on_c, 8, 57, 0
1, 13150, Note_on_c, 8, 57, 111
1, 13151, Note_on_c, 9, 42, 110
1, 13152, Note_on_c, 9, 42, 0
1, 13152, Note_on_c, 9, 39, 110
1, 13152, Note_on_c, 9, 60, 77
1, 13152, Note_on_c, 9, 40, 95
1, 13153, Note_on_c, 9, 40, 0
1, 13153, Note_on_c, 9, 60, 0
1, 13153, Note_on_c, 9, 39, 0
1, 13167, Note_on_c, 8, 57, 0
1, 13168, Note_on_c, 1, 28, 0
1, 13172, Note_on_c, 1, 40, 0
1, 13199, Note_on_c, 1, 43, 100
1, 13199, Note_on_c, 1, 31, 114
1, 13199, Note_on_c, 8, 55, 111
1, 13200, Note_on_c, 9, 36, 91
1, 13200, Note_on_c, 9, 42, 44
1, 13201, Note_on_c, 9, 42, 0
1, 13201, Note_on_c, 9, 36, 0
1, 13201, Note_on_c, 0, 81, 81
1, 13217, Note_on_c, 1, 31, 0
1, 13217, Note_on_c, 1, 43, 0
1, 13218, Note_on_c, 8, 55, 0
1, 13224, Note_on_c, 0, 78, 61
1, 13246, Note_on_c, 8, 54, 115
1, 13247, Note_on_c, 1, 45, 117
1, 13247, Note_on_c, 9, 42, 95
1, 13247, Note_on_c, 1, 33, 112
1, 13248, Note_on_c, 9, 42, 0
1, 13248, Note_on_c, 9, 36, 110
1, 13249, Note_on_c, 9, 36, 0
1, 13290, Note_on_c, 8, 54, 0
1, 13295, Note_on_c, 9, 42, 39
1, 13296, Note_on_c, 9, 42, 0
1, 13320, Note_on_c, 8, 54, 110
1, 13325, Note_on_c, 8, 54, 0
1, 13327, Note_on_c, 1, 33, 0
1, 13333, Note_on_c, 1, 45, 0
1, 13343, Note_on_c, 9, 42, 110
1, 13343, Note_on_c, 1, 43, 112
1, 13343, Note_on_c, 1, 31, 100
1, 13344, Note_on_c, 9, 42, 0
1, 13344, Note_on_c, 9, 36, 110
1, 13344, Note_on_c, 9, 39, 110
1, 13344, Note_on_c, 9, 60, 77
1, 13344, Note_on_c, 9, 40, 110
1, 13345, Note_on_c, 9, 40, 0
1, 13345, Note_on_c, 9, 36, 0
1, 13345, Note_on_c, 9, 60, 0
1, 13345, Note_on_c, 9, 39, 0
1, 13350, Note_on_c, 8, 53, 100
1, 13363, Note_on_c, 8, 53, 0
1, 13363, Note_on_c, 8, 54, 95
1, 13390, Note_on_c, 8, 54, 0
1, 13392, Note_on_c, 4, 66, 0
1, 13392, Note_on_c, 4, 62, 0
1, 13392, Note_on_c, 8, 57, 101
1, 13392, Note_on_c, 4, 59, 35
1, 13392, Note_on_c, 4, 64, 44
1, 13393, Note_on_c, 9, 42, 42
1, 13393, Note_on_c, 3, 71, 78
1, 13393, Lyric_t, "your"
1, 13394, Note_on_c, 9, 42, 0
1, 13395, Note_on_c, 3, 74, 0
1, 13412, Note_on_c, 8, 57, 0
1, 13418, Note_on_c, 0, 74, 0
1, 13420, Note_on_c, 1, 31, 0
1, 13422, Note_on_c, 1, 43, 0
1, 13439, Note_on_c, 0, 78, 0
1, 13440, Note_on_c, 0, 55, 0
1, 13440, Note_on_c, 0, 62, 0
1, 13440, Note_on_c, 0, 81, 0
1, 13440, Note_on_c, 0, 59, 0
1, 13440, Note_on_c, 0, 76, 83
1, 13440, Note_on_c, 0, 64, 98
1, 13440, Note_on_c, 0, 73, 83
1, 13440, Note_on_c, 9, 36, 110
1, 13440, Note_on_c, 9, 42, 96
1, 13441, Note_on_c, 9, 42, 0
1, 13441, Note_on_c, 9, 36, 0
1, 13441, Note_on_c, 1, 42, 99
1, 13441, Note_on_c, 0, 57, 87
1, 13441, Note_on_c, 1, 30, 97
1, 13441, Note_on_c, 0, 61, 99
1, 13446, Note_on_c, 8, 53, 106
1, 13463, Note_on_c, 8, 53, 0
1, 13463, Note_on_c, 8, 54, 101
1, 13483, Note_on_c, 8, 54, 0
1, 13487, Lyric_t, "self "
1, 13487, Note_on_c, 9, 42, 37
1, 13487, Lyric_t, ""
1, 13487, Lyric_t, "\015"
1, 13487, Note_on_c, 3, 69, 90
1, 13488, Note_on_c, 9, 42, 0
1, 13488, Note_on_c, 4, 59, 0
1, 13488, Note_on_c, 4, 64, 0
1, 13488, Note_on_c, 3, 71, 0
1, 13488, Note_on_c, 4, 61, 29
1, 13488, Note_on_c, 4, 57, 47
1, 13488, Note_on_c, 8, 57, 98
1, 13503, Note_on_c, 8, 57, 0
1, 13535, Note_on_c, 9, 42, 110
1, 13536, Note_on_c, 9, 42, 0
1, 13536, Note_on_c, 9, 40, 95
1, 13536, Note_on_c, 9, 39, 110
1, 13536, Note_on_c, 9, 60, 77
1, 13537, Note_on_c, 9, 60, 0
1, 13537, Note_on_c, 9, 39, 0
1, 13537, Note_on_c, 9, 40, 0
1, 13548, Note_on_c, 1, 30, 0
1, 13551, Note_on_c, 1, 42, 0
1, 13558, Note_on_c, 0, 57, 0
1, 13560, Note_on_c, 0, 61, 0
1, 13560, Note_on_c, 0, 64, 0
1, 13583, Note_on_c, 0, 76, 0
1, 13583, Note_on_c, 0, 73, 0
1, 13583, Note_on_c, 0, 66, 97
1, 13583, Note_on_c, 0, 57, 100
1, 13583, Note_on_c, 0, 62, 112
1, 13584, Note_on_c, 3, 69, 0
1, 13584, Note_on_c, 4, 57, 0
1, 13584, Note_on_c, 4, 61, 0
1, 13584, Note_on_c, 1, 47, 110
1, 13584, Note_on_c, 1, 35, 98
1, 13584, Note_on_c, 4, 55, 33
1, 13584, Note_on_c, 3, 67, 76
1, 13584, Note_on_c, 9, 36, 91
1, 13584, Note_on_c, 4, 59, 30
1, 13584, Note_on_c, 8, 57, 109
1, 13584, Note_on_c, 9, 42, 44
1, 13585, Note_on_c, 9, 42, 0
1, 13585, Note_on_c, 9, 36, 0
1, 13585, Note_on_c, 0, 78, 88
1, 13585, Note_on_c, 0, 74, 85
1, 13603, Note_on_c, 8, 57, 0
1, 13608, Note_on_c, 4, 55, 0
1, 13608, Note_on_c, 4, 59, 0
1, 13608, Note_on_c, 8, 54, 110
1, 13608, Note_on_c, 4, 54, 15
1, 13608, Note_on_c, 4, 57, 18
1, 13609, Note_on_c, 3, 66, 58
1, 13611, Note_on_c, 3, 67, 0
1, 13613, Note_on_c, 8, 54, 0
1, 13631, Note_on_c, 9, 42, 95
1, 13632, Note_on_c, 9, 42, 0
1, 13632, Note_on_c, 9, 36, 110
1, 13633, Note_on_c, 9, 36, 0
1, 13638, Note_on_c, 8, 53, 95
1, 13654, Note_on_c, 8, 53, 0
1, 13654, Note_on_c, 8, 54, 89
1, 13672, Note_on_c, 1, 47, 0
1, 13676, Note_on_c, 8, 54, 0
1, 13678, Note_on_c, 1, 35, 0
1, 13679, Note_on_c, 1, 45, 97
1, 13679, Note_on_c, 1, 33, 100
1, 13679, Note_on_c, 9, 42, 39
1, 13680, Note_on_c, 9, 42, 0
1, 13680, Note_on_c, 8, 57, 88
1, 13695, Note_on_c, 1, 45, 0
1, 13696, Note_on_c, 8, 57, 0
1, 13696, Note_on_c, 1, 33, 0
1, 13716, Note_on_c, 0, 62, 0
1, 13720, Note_on_c, 0, 66, 0
1, 13720, Note_on_c, 3, 66, 0
1, 13727, Note_on_c, 9, 42, 110
1, 13727, Note_on_c, 0, 73, 78
1, 13727, Note_on_c, 0, 76, 76
1, 13727, Note_on_c, 1, 35, 97
1, 13728, Note_on_c, 9, 42, 0
1, 13728, Note_on_c, 0, 74, 0
1, 13728, Note_on_c, 4, 57, 0
1, 13728, Note_on_c, 4, 54, 0
1, 13728, Note_on_c, 0, 78, 0
1, 13728, Lyric_t, "and "
1, 13728, Note_on_c, 9, 60, 77
1, 13728, Note_on_c, 9, 40, 110
1, 13728, Note_on_c, 9, 39, 110
1, 13728, Note_on_c, 4, 59, 50
1, 13728, Note_on_c, 8, 58, 98
1, 13728, Note_on_c, 1, 47, 120
1, 13728, Note_on_c, 3, 71, 93
1, 13728, Note_on_c, 9, 36, 110
1, 13729, Note_on_c, 9, 36, 0
1, 13729, Note_on_c, 9, 39, 0
1, 13729, Note_on_c, 9, 40, 0
1, 13729, Note_on_c, 9, 60, 0
1, 13729, Note_on_c, 0, 64, 105
1, 13729, Note_on_c, 0, 61, 105
1, 13740, Note_on_c, 8, 58, 0
1, 13740, Note_on_c, 8, 59, 97
1, 13773, Note_on_c, 8, 59, 0
1, 13775, Note_on_c, 8, 62, 113
1, 13777, Note_on_c, 9, 42, 42
1, 13778, Note_on_c, 9, 42, 0
1, 13782, Note_on_c, 3, 71, 0
1, 13795, Note_on_c, 8, 62, 0
1, 13799, Note_on_c, 0, 73, 0
1, 13804, Note_on_c, 0, 76, 0
1, 13806, Note_on_c, 0, 61, 0
1, 13808, Note_on_c, 0, 64, 0
1, 13814, Note_on_c, 1, 47, 0
1, 13814, Note_on_c, 1, 35, 0
1, 13817, Note_on_c, 0, 57, 0
1, 13824, Note_on_c, 1, 28, 104
1, 13824, Note_on_c, 9, 36, 110
1, 13824, Note_on_c, 9, 42, 96
1, 13825, Note_on_c, 9, 42, 0
1, 13825, Note_on_c, 9, 36, 0
1, 13825, Note_on_c, 4, 59, 0
1, 13825, Note_on_c, 0, 55, 94
1, 13825, Note_on_c, 9, 43, 86
1, 13825, Note_on_c, 1, 40, 110
1, 13825, Note_on_c, 0, 62, 104
1, 13825, Note_on_c, 0, 59, 101
1, 13825, Note_on_c, 0, 74, 98
1, 13825, Note_on_c, 3, 74, 78
1, 13825, Lyric_t, "glide "
1, 13825, Note_on_c, 4, 62, 35
1, 13826, Note_on_c, 9, 43, 0
1, 13871, Note_on_c, 8, 57, 86
1, 13871, Note_on_c, 9, 42, 37
1, 13872, Note_on_c, 9, 42, 0
1, 13893, Note_on_c, 8, 57, 0
1, 13895, Note_on_c, 8, 57, 96
1, 13914, Note_on_c, 8, 57, 0
1, 13919, Note_on_c, 8, 57, 88
1, 13919, Note_on_c, 9, 42, 110
1, 13920, Note_on_c, 9, 42, 0
1, 13920, Note_on_c, 9, 60, 77
1, 13920, Note_on_c, 9, 39, 110
1, 13920, Note_on_c, 9, 40, 95
1, 13921, Note_on_c, 9, 40, 0
1, 13921, Note_on_c, 9, 60, 0
1, 13921, Note_on_c, 9, 39, 0
1, 13936, Note_on_c, 8, 57, 0
1, 13936, Note_on_c, 1, 28, 0
1, 13940, Note_on_c, 1, 40, 0
1, 13967, Note_on_c, 1, 43, 100
1, 13967, Note_on_c, 1, 31, 114
1, 13967, Note_on_c, 8, 55, 104
1, 13968, Note_on_c, 9, 36, 91
1, 13968, Note_on_c, 9, 42, 44
1, 13969, Note_on_c, 9, 42, 0
1, 13969, Note_on_c, 9, 36, 0
1, 13984, Note_on_c, 8, 55, 0
1, 13985, Note_on_c, 1, 43, 0
1, 13985, Note_on_c, 1, 31, 0
1, 14015, Note_on_c, 9, 42, 95
1, 14015, Note_on_c, 8, 54, 111
1, 14016, Note_on_c, 9, 42, 0
1, 14016, Note_on_c, 1, 45, 117
1, 14016, Note_on_c, 1, 33, 112
1, 14016, Note_on_c, 9, 36, 110
1, 14017, Note_on_c, 9, 36, 0
1, 14053, Note_on_c, 8, 54, 0
1, 14058, Note_on_c, 0, 74, 0
1, 14063, Note_on_c, 9, 42, 39
1, 14064, Note_on_c, 9, 42, 0
1, 14064, Note_on_c, 8, 54, 110
1, 14065, Note_on_c, 0, 71, 95
1, 14069, Note_on_c, 8, 54, 0
1, 14088, Note_on_c, 8, 54, 110
1, 14093, Note_on_c, 8, 54, 0
1, 14096, Note_on_c, 1, 33, 0
1, 14102, Note_on_c, 1, 45, 0
1, 14108, Note_on_c, 3, 74, 0
1, 14109, Note_on_c, 8, 53, 101
1, 14111, Note_on_c, 4, 62, 0
1, 14111, Note_on_c, 3, 71, 80
1, 14111, Note_on_c, 9, 42, 110
1, 14111, Lyric_t, "like "
1, 14111, Note_on_c, 4, 59, 37
1, 14112, Note_on_c, 9, 42, 0
1, 14112, Note_on_c, 9, 60, 77
1, 14112, Note_on_c, 9, 39, 110
1, 14112, Note_on_c, 1, 43, 112
1, 14112, Note_on_c, 1, 31, 100
1, 14112, Note_on_c, 9, 40, 110
1, 14112, Note_on_c, 9, 36, 110
1, 14113, Note_on_c, 9, 36, 0
1, 14113, Note_on_c, 9, 60, 0
1, 14113, Note_on_c, 9, 40, 0
1, 14113, Note_on_c, 9, 39, 0
1, 14129, Note_on_c, 8, 53, 0
1, 14129, Note_on_c, 8, 54, 97
1, 14156, Note_on_c, 8, 54, 0
1, 14159, Note_on_c, 4, 59, 0
1, 14159, Note_on_c, 3, 69, 63
1, 14159, Note_on_c, 8, 57, 93
1, 14159, Note_on_c, 0, 74, 86
1, 14159, Note_on_c, 4, 57, 20
1, 14159, Lyric_t, "a "
1, 14160, Note_on_c, 0, 71, 0
1, 14160, Note_on_c, 3, 71, 0
1, 14161, Note_on_c, 9, 42, 42
1, 14162, Note_on_c, 9, 42, 0
1, 14177, Note_on_c, 8, 57, 0
1, 14189, Note_on_c, 1, 31, 0
1, 14191, Note_on_c, 1, 43, 0
1, 14205, Note_on_c, 8, 53, 111
1, 14206, Note_on_c, 3, 69, 0
1, 14208, Note_on_c, 0, 55, 0
1, 14208, Note_on_c, 0, 62, 0
1, 14208, Note_on_c, 0, 74, 0
1, 14208, Note_on_c, 0, 59, 0
1, 14208, Note_on_c, 9, 42, 96
1, 14208, Note_on_c, 9, 36, 110
1, 14208, Note_on_c, 0, 64, 98
1, 14209, Note_on_c, 9, 36, 0
1, 14209, Note_on_c, 9, 42, 0
1, 14209, Note_on_c, 4, 57, 0
1, 14209, Note_on_c, 3, 78, 102
1, 14209, Lyric_t, "7"
1, 14209, Note_on_c, 0, 73, 94
1, 14209, Note_on_c, 0, 61, 99
1, 14209, Note_on_c, 4, 66, 59
1, 14209, Note_on_c, 0, 57, 87
1, 14209, Note_on_c, 1, 42, 99
1, 14209, Note_on_c, 1, 30, 97
1, 14210, Note_on_c, 0, 76, 83
1, 14228, Note_on_c, 8, 53, 0
1, 14228, Note_on_c, 8, 54, 80
1, 14251, Note_on_c, 8, 54, 0
1, 14255, Note_on_c, 4, 66, 0
1, 14255, Note_on_c, 3, 78, 0
1, 14255, Note_on_c, 3, 74, 55
1, 14255, Note_on_c, 8, 57, 89
1, 14255, Note_on_c, 4, 62, 12
1, 14255, Note_on_c, 9, 42, 37
1, 14256, Note_on_c, 9, 42, 0
1, 14270, Note_on_c, 8, 57, 0
1, 14302, Note_on_c, 3, 74, 0
1, 14303, Note_on_c, 4, 62, 0
1, 14303, Note_on_c, 9, 42, 110
1, 14303, Note_on_c, 3, 76, 97
1, 14303, Note_on_c, 4, 64, 54
1, 14303, Lyric_t, "4"
1, 14304, Note_on_c, 9, 42, 0
1, 14304, Note_on_c, 9, 39, 110
1, 14304, Note_on_c, 9, 40, 95
1, 14304, Note_on_c, 9, 60, 77
1, 14305, Note_on_c, 9, 60, 0
1, 14305, Note_on_c, 9, 39, 0
1, 14305, Note_on_c, 9, 40, 0
1, 14316, Note_on_c, 1, 30, 0
1, 14319, Note_on_c, 1, 42, 0
1, 14326, Note_on_c, 0, 57, 0
1, 14328, Note_on_c, 0, 64, 0
1, 14328, Note_on_c, 0, 61, 0
1, 14346, Note_on_c, 0, 73, 0
1, 14351, Note_on_c, 4, 64, 0
1, 14351, Note_on_c, 3, 76, 0
1, 14351, Note_on_c, 0, 57, 100
1, 14351, Note_on_c, 0, 66, 97
1, 14351, Note_on_c, 4, 59, 12
1, 14351, Note_on_c, 0, 62, 112
1, 14351, Note_on_c, 3, 71, 55
1, 14352, Note_on_c, 9, 42, 44
1, 14352, Note_on_c, 9, 36, 91
1, 14352, Note_on_c, 1, 47, 110
1, 14352, Note_on_c, 8, 57, 98
1, 14352, Note_on_c, 1, 35, 98
1, 14353, Note_on_c, 9, 36, 0
1, 14353, Note_on_c, 9, 42, 0
1, 14353, Note_on_c, 0, 76, 0
1, 14353, Note_on_c, 0, 78, 83
1, 14353, Note_on_c, 0, 74, 83
1, 14367, Note_on_c, 8, 57, 0
1, 14376, Note_on_c, 8, 54, 110
1, 14381, Note_on_c, 8, 54, 0
1, 14396, Note_on_c, 8, 52, 110
1, 14398, Note_on_c, 3, 71, 0
1, 14399, Note_on_c, 4, 59, 0
1, 14399, Lyric_t, ""
1, 14399, Lyric_t, "\015"
1, 14399, Note_on_c, 4, 62, 54
1, 14399, Note_on_c, 9, 42, 95
1, 14399, Lyric_t, "7, "
1, 14399, Note_on_c, 3, 74, 97
1, 14400, Note_on_c, 9, 42, 0
1, 14400, Note_on_c, 9, 36, 110
1, 14401, Note_on_c, 9, 36, 0
1, 14405, Note_on_c, 8, 52, 0
1, 14405, Note_on_c, 8, 53, 106
1, 14421, Note_on_c, 8, 53, 0
1, 14421, Note_on_c, 8, 54, 105
1, 14440, Note_on_c, 8, 54, 0
1, 14440, Note_on_c, 1, 47, 0
1, 14446, Note_on_c, 1, 35, 0
1, 14447, Note_on_c, 4, 62, 0
1, 14447, Note_on_c, 3, 74, 0
1, 14447, Note_on_c, 1, 45, 97
1, 14447, Note_on_c, 3, 71, 68
1, 14447, Note_on_c, 1, 33, 100
1, 14447, Note_on_c, 9, 42, 39
1, 14447, Note_on_c, 4, 59, 25
1, 14448, Note_on_c, 9, 42, 0
1, 14448, Note_on_c, 8, 57, 80
1, 14448, Lyric_t, ""
1, 14448, Lyric_t, "\015"
1, 14462, Note_on_c, 8, 57, 0
1, 14463, Note_on_c, 1, 45, 0
1, 14464, Note_on_c, 1, 33, 0
1, 14484, Note_on_c, 0, 62, 0
1, 14488, Note_on_c, 0, 66, 0
1, 14493, Note_on_c, 3, 71, 0
1, 14493, Note_on_c, 8, 58, 97
1, 14495, Note_on_c, 1, 35, 97
1, 14495, Note_on_c, 9, 42, 110
1, 14496, Note_on_c, 9, 42, 0
1, 14496, Note_on_c, 0, 78, 0
1, 14496, Note_on_c, 0, 74, 0
1, 14496, Note_on_c, 9, 36, 110
1, 14496, Note_on_c, 9, 40, 110
1, 14496, Note_on_c, 9, 60, 77
1, 14496, Note_on_c, 1, 47, 120
1, 14496, Note_on_c, 9, 39, 110
1, 14497, Note_on_c, 9, 39, 0
1, 14497, Note_on_c, 9, 60, 0
1, 14497, Note_on_c, 9, 40, 0
1, 14497, Note_on_c, 9, 36, 0
1, 14497, Note_on_c, 0, 61, 105
1, 14497, Note_on_c, 0, 64, 105
1, 14497, Note_on_c, 0, 76, 80
1, 14498, Note_on_c, 0, 73, 76
1, 14509, Note_on_c, 8, 58, 0
1, 14509, Note_on_c, 8, 59, 82
1, 14541, Note_on_c, 8, 59, 0
1, 14542, Note_on_c, 8, 62, 107
1, 14543, Note_on_c, 4, 59, 0
1, 14544, Note_on_c, 4, 59, 40
1, 14544, Lyric_t, "and "
1, 14544, Note_on_c, 3, 71, 83
1, 14544, Note_on_c, 4, 64, 42
1, 14545, Note_on_c, 9, 42, 42
1, 14546, Note_on_c, 9, 42, 0
1, 14565, Note_on_c, 0, 73, 0
1, 14566, Note_on_c, 8, 62, 0
1, 14574, Note_on_c, 0, 61, 0
1, 14575, Note_on_c, 0, 76, 0
1, 14576, Note_on_c, 0, 64, 0
1, 14582, Note_on_c, 1, 47, 0
1, 14582, Note_on_c, 1, 35, 0
1, 14585, Note_on_c, 0, 57, 0
1, 14592, Note_on_c, 1, 28, 104
1, 14592, Note_on_c, 9, 42, 96
1, 14592, Note_on_c, 0, 74, 85
1, 14592, Note_on_c, 9, 36, 110
1, 14593, Note_on_c, 9, 36, 0
1, 14593, Note_on_c, 9, 42, 0
1, 14593, Note_on_c, 0, 71, 77
1, 14593, Note_on_c, 0, 67, 75
1, 14593, Note_on_c, 0, 55, 94
1, 14593, Note_on_c, 0, 59, 101
1, 14593, Note_on_c, 1, 40, 110
1, 14593, Note_on_c, 0, 62, 104
1, 14593, Note_on_c, 9, 43, 84
1, 14594, Note_on_c, 9, 43, 0
1, 14627, Pitch_bend_c, 4, 7723
1, 14627, Pitch_bend_c, 3, 7723
1, 14629, Pitch_bend_c, 4, 3745
1, 14629, Pitch_bend_c, 3, 3745
1, 14632, Pitch_bend_c, 4, 0
1, 14632, Pitch_bend_c, 3, 0
1, 14635, Lyric_t, "lose "
1, 14635, Note_on_c, 3, 76, 93
1, 14639, Note_on_c, 3, 71, 0
1, 14639, Note_on_c, 4, 64, 0
1, 14639, Note_on_c, 8, 57, 84
1, 14639, Note_on_c, 9, 42, 37
1, 14640, Note_on_c, 9, 42, 0
1, 14640, Note_on_c, 4, 59, 0
1, 14640, Note_on_c, 4, 64, 50
1, 14640, Note_on_c, 4, 67, 34
1, 14643, Pitch_bend_c, 4, 7138
1, 14643, Pitch_bend_c, 3, 7138
1, 14645, Pitch_bend_c, 3, 8192
1, 14645, Pitch_bend_c, 4, 8192
1, 14660, Note_on_c, 8, 57, 0
1, 14664, Note_on_c, 8, 57, 97
1, 14682, Note_on_c, 8, 57, 0
1, 14687, Note_on_c, 8, 57, 95
1, 14687, Note_on_c, 9, 42, 110
1, 14688, Note_on_c, 9, 42, 0
1, 14688, Note_on_c, 9, 60, 77
1, 14688, Note_on_c, 9, 40, 95
1, 14688, Note_on_c, 9, 39, 110
1, 14689, Note_on_c, 9, 39, 0
1, 14689, Note_on_c, 9, 40, 0
1, 14689, Note_on_c, 9, 60, 0
1, 14704, Note_on_c, 1, 28, 0
1, 14704, Note_on_c, 8, 57, 0
1, 14708, Note_on_c, 1, 40, 0
1, 14735, Note_on_c, 4, 67, 0
1, 14735, Note_on_c, 1, 43, 100
1, 14735, Note_on_c, 1, 31, 114
1, 14736, Note_on_c, 3, 76, 0
1, 14736, Note_on_c, 9, 42, 44
1, 14736, Note_on_c, 3, 74, 72
1, 14736, Note_on_c, 4, 67, 30
1, 14736, Note_on_c, 9, 36, 91
1, 14737, Note_on_c, 9, 36, 0
1, 14737, Note_on_c, 9, 42, 0
1, 14737, Note_on_c, 8, 55, 96
1, 14751, Note_on_c, 8, 55, 0
1, 14753, Note_on_c, 1, 43, 0
1, 14753, Note_on_c, 1, 31, 0
1, 14783, Note_on_c, 9, 42, 95
1, 14784, Note_on_c, 9, 42, 0
1, 14784, Note_on_c, 4, 64, 0
1, 14784, Note_on_c, 4, 67, 0
1, 14784, Note_on_c, 4, 66, 29
1, 14784, Note_on_c, 1, 45, 117
1, 14784, Note_on_c, 1, 33, 112
1, 14784, Note_on_c, 4, 62, 29
1, 14784, Note_on_c, 8, 54, 111
1, 14784, Note_on_c, 9, 36, 110
1, 14785, Note_on_c, 9, 36, 0
1, 14826, Note_on_c, 8, 54, 0
1, 14831, Note_on_c, 9, 42, 39
1, 14832, Note_on_c, 9, 42, 0
1, 14832, Note_on_c, 8, 54, 110
1, 14837, Note_on_c, 8, 54, 0
1, 14856, Note_on_c, 8, 54, 110
1, 14861, Note_on_c, 8, 54, 0
1, 14864, Note_on_c, 1, 33, 0
1, 14870, Note_on_c, 1, 45, 0
1, 14879, Note_on_c, 9, 42, 110
1, 14880, Note_on_c, 9, 42, 0
1, 14880, Note_on_c, 9, 40, 110
1, 14880, Note_on_c, 1, 43, 112
1, 14880, Note_on_c, 8, 53, 91
1, 14880, Note_on_c, 9, 36, 110
1, 14880, Note_on_c, 1, 31, 100
1, 14880, Note_on_c, 9, 39, 110
1, 14880, Note_on_c, 9, 60, 77
1, 14881, Note_on_c, 9, 60, 0
1, 14881, Note_on_c, 9, 39, 0
1, 14881, Note_on_c, 9, 36, 0
1, 14881, Note_on_c, 9, 40, 0
1, 14896, Note_on_c, 8, 53, 0
1, 14896, Note_on_c, 8, 54, 72
1, 14925, Note_on_c, 3, 71, 78
1, 14925, Lyric_t, "your"
1, 14927, Note_on_c, 8, 54, 0
1, 14927, Note_on_c, 4, 62, 0
1, 14927, Note_on_c, 3, 74, 0
1, 14927, Note_on_c, 8, 57, 96
1, 14928, Note_on_c, 4, 66, 0
1, 14928, Note_on_c, 4, 59, 35
1, 14928, Note_on_c, 4, 62, 44
1, 14929, Note_on_c, 9, 42, 42
1, 14930, Note_on_c, 9, 42, 0
1, 14934, Note_on_c, 0, 71, 0
1, 14936, Note_on_c, 0, 67, 0
1, 14940, Note_on_c, 0, 74, 0
1, 14949, Note_on_c, 8, 57, 0
1, 14957, Note_on_c, 1, 31, 0
1, 14959, Note_on_c, 1, 43, 0
1, 14973, Note_on_c, 8, 53, 106
1, 14976, Note_on_c, 0, 55, 0
1, 14976, Note_on_c, 0, 62, 0
1, 14976, Note_on_c, 0, 59, 0
1, 14976, Note_on_c, 0, 69, 74
1, 14976, Note_on_c, 9, 36, 110
1, 14976, Note_on_c, 9, 42, 96
1, 14976, Note_on_c, 0, 76, 79
1, 14976, Note_on_c, 0, 73, 78
1, 14976, Note_on_c, 0, 64, 98
1, 14977, Note_on_c, 9, 42, 0
1, 14977, Note_on_c, 9, 36, 0
1, 14977, Note_on_c, 0, 57, 87
1, 14977, Note_on_c, 1, 30, 97
1, 14977, Note_on_c, 0, 61, 99
1, 14977, Note_on_c, 1, 42, 99
1, 14992, Note_on_c, 8, 53, 0
1, 14992, Note_on_c, 8, 54, 77
1, 15015, Lyric_t, ""
1, 15015, Lyric_t, "\015"
1, 15015, Note_on_c, 3, 69, 84
1, 15015, Lyric_t, "self "
1, 15016, Note_on_c, 3, 71, 0
1, 15022, Note_on_c, 8, 54, 0
1, 15023, Note_on_c, 9, 42, 37
1, 15023, Note_on_c, 8, 57, 91
1, 15024, Note_on_c, 9, 42, 0
1, 15024, Note_on_c, 4, 59, 0
1, 15024, Note_on_c, 4, 62, 0
1, 15024, Note_on_c, 4, 57, 41
1, 15024, Note_on_c, 4, 61, 13
1, 15039, Note_on_c, 8, 57, 0
1, 15071, Note_on_c, 9, 42, 110
1, 15072, Note_on_c, 9, 42, 0
1, 15072, Note_on_c, 9, 60, 77
1, 15072, Note_on_c, 9, 40, 95
1, 15072, Note_on_c, 9, 39, 110
1, 15073, Note_on_c, 9, 39, 0
1, 15073, Note_on_c, 9, 40, 0
1, 15073, Note_on_c, 9, 60, 0
1, 15084, Note_on_c, 1, 30, 0
1, 15087, Note_on_c, 1, 42, 0
1, 15094, Note_on_c, 0, 57, 0
1, 15096, Note_on_c, 0, 64, 0
1, 15096, Note_on_c, 0, 61, 0
1, 15103, Note_on_c, 0, 69, 0
1, 15115, Note_on_c, 3, 67, 72
1, 15119, Note_on_c, 0, 73, 0
1, 15119, Note_on_c, 0, 76, 0
1, 15119, Note_on_c, 3, 69, 0
1, 15119, Note_on_c, 0, 62, 112
1, 15119, Note_on_c, 8, 57, 107
1, 15119, Note_on_c, 0, 57, 100
1, 15119, Note_on_c, 0, 66, 97
1, 15120, Note_on_c, 4, 57, 0
1, 15120, Note_on_c, 4, 61, 0
1, 15120, Note_on_c, 4, 55, 29
1, 15120, Note_on_c, 9, 42, 44
1, 15120, Note_on_c, 9, 36, 91
1, 15120, Note_on_c, 4, 59, 29
1, 15120, Note_on_c, 1, 47, 110
1, 15120, Note_on_c, 1, 35, 98
1, 15121, Note_on_c, 9, 36, 0
1, 15121, Note_on_c, 9, 42, 0
1, 15121, Note_on_c, 0, 74, 84
1, 15121, Note_on_c, 0, 78, 84
1, 15122, Note_on_c, 0, 69, 69
1, 15138, Note_on_c, 3, 67, 0
1, 15138, Note_on_c, 8, 57, 0
1, 15138, Note_on_c, 3, 66, 58
1, 15144, Note_on_c, 4, 59, 0
1, 15144, Note_on_c, 4, 55, 0
1, 15144, Note_on_c, 4, 57, 29
1, 15144, Note_on_c, 4, 54, 15
1, 15167, Note_on_c, 9, 42, 95
1, 15168, Note_on_c, 9, 42, 0
1, 15168, Note_on_c, 9, 36, 110
1, 15169, Note_on_c, 9, 36, 0
1, 15169, Note_on_c, 8, 53, 104
1, 15187, Note_on_c, 8, 53, 0
1, 15187, Note_on_c, 8, 54, 104
1, 15208, Note_on_c, 1, 47, 0
1, 15213, Note_on_c, 8, 54, 0
1, 15214, Note_on_c, 1, 35, 0
1, 15215, Note_on_c, 1, 33, 100
1, 15215, Note_on_c, 9, 42, 39
1, 15215, Note_on_c, 1, 45, 97
1, 15216, Note_on_c, 9, 42, 0
1, 15216, Note_on_c, 8, 57, 91
1, 15228, Note_on_c, 8, 57, 0
1, 15231, Note_on_c, 1, 45, 0
1, 15232, Note_on_c, 1, 33, 0
1, 15246, Note_on_c, 0, 69, 0
1, 15252, Note_on_c, 0, 62, 0
1, 15256, Note_on_c, 0, 66, 0
1, 15261, Note_on_c, 3, 66, 0
1, 15261, Note_on_c, 8, 58, 97
1, 15263, Note_on_c, 1, 35, 97
1, 15263, Note_on_c, 9, 42, 110
1, 15264, Note_on_c, 9, 42, 0
1, 15264, Note_on_c, 4, 54, 0
1, 15264, Note_on_c, 0, 78, 0
1, 15264, Note_on_c, 4, 57, 0
1, 15264, Note_on_c, 0, 74, 0
1, 15264, Note_on_c, 9, 39, 110
1, 15264, Note_on_c, 9, 60, 77
1, 15264, Note_on_c, 9, 36, 110
1, 15264, Note_on_c, 4, 59, 54
1, 15264, Lyric_t, "in "
1, 15264, Note_on_c, 1, 47, 120
1, 15264, Note_on_c, 9, 40, 110
1, 15264, Note_on_c, 3, 71, 97
1, 15265, Note_on_c, 9, 40, 0
1, 15265, Note_on_c, 9, 36, 0
1, 15265, Note_on_c, 9, 39, 0
1, 15265, Note_on_c, 9, 60, 0
1, 15265, Note_on_c, 0, 61, 105
1, 15265, Note_on_c, 0, 64, 105
1, 15265, Note_on_c, 0, 76, 80
1, 15266, Note_on_c, 0, 69, 76
1, 15266, Note_on_c, 0, 73, 80
1, 15279, Note_on_c, 8, 58, 0
1, 15280, Note_on_c, 8, 59, 72
1, 15310, Note_on_c, 8, 59, 0
1, 15311, Note_on_c, 4, 59, 0
1, 15311, Lyric_t, "the "
1, 15311, Note_on_c, 4, 57, 30
1, 15311, Note_on_c, 8, 62, 108
1, 15311, Note_on_c, 3, 69, 73
1, 15312, Note_on_c, 3, 71, 0
1, 15313, Note_on_c, 9, 42, 42
1, 15314, Note_on_c, 9, 42, 0
1, 15329, Note_on_c, 0, 73, 0
1, 15330, Note_on_c, 0, 76, 0
1, 15332, Note_on_c, 0, 69, 0
1, 15333, Note_on_c, 8, 62, 0
1, 15342, Note_on_c, 0, 61, 0
1, 15344, Note_on_c, 0, 64, 0
1, 15350, Note_on_c, 1, 35, 0
1, 15350, Note_on_c, 1, 47, 0
1, 15353, Note_on_c, 0, 57, 0
1, 15357, Note_on_c, 3, 69, 0
1, 15360, Note_on_c, 4, 57, 0
1, 15360, Note_on_c, 9, 36, 110
1, 15360, Note_on_c, 9, 42, 96
1, 15360, Note_on_c, 4, 62, 48
1, 15360, Note_on_c, 3, 74, 91
1, 15360, Note_on_c, 0, 67, 72
1, 15360, Lyric_t, "sky "
1, 15360, Note_on_c, 0, 74, 74
1, 15360, Note_on_c, 1, 28, 104
1, 15361, Note_on_c, 9, 42, 0
1, 15361, Note_on_c, 9, 36, 0
1, 15361, Note_on_c, 0, 59, 101
1, 15361, Note_on_c, 0, 55, 94
1, 15361, Note_on_c, 0, 71, 76
1, 15361, Note_on_c, 0, 62, 104
1, 15361, Note_on_c, 1, 40, 110
1, 15361, Note_on_c, 9, 43, 86
1, 15362, Note_on_c, 9, 43, 0
1, 15407, Note_on_c, 9, 42, 37
1, 15407, Note_on_c, 8, 57, 93
1, 15408, Note_on_c, 9, 42, 0
1, 15431, Note_on_c, 8, 57, 0
1, 15432, Note_on_c, 8, 57, 101
1, 15451, Note_on_c, 8, 57, 0
1, 15455, Note_on_c, 9, 42, 110
1, 15456, Note_on_c, 9, 42, 0
1, 15456, Note_on_c, 9, 39, 110
1, 15456, Note_on_c, 9, 40, 95
1, 15456, Note_on_c, 8, 57, 64
1, 15456, Note_on_c, 9, 60, 77
1, 15457, Note_on_c, 9, 60, 0
1, 15457, Note_on_c, 9, 40, 0
1, 15457, Note_on_c, 9, 39, 0
1, 15464, Note_on_c, 8, 57, 0
1, 15472, Note_on_c, 1, 28, 0
1, 15476, Note_on_c, 1, 40, 0
1, 15503, Note_on_c, 1, 43, 100
1, 15503, Note_on_c, 1, 31, 114
1, 15504, Note_on_c, 8, 55, 98
1, 15504, Note_on_c, 9, 36, 91
1, 15504, Note_on_c, 9, 42, 44
1, 15505, Note_on_c, 9, 42, 0
1, 15505, Note_on_c, 9, 36, 0
1, 15521, Note_on_c, 1, 43, 0
1, 15521, Note_on_c, 1, 31, 0
1, 15522, Note_on_c, 8, 55, 0
1, 15551, Note_on_c, 9, 42, 95
1, 15552, Note_on_c, 9, 42, 0
1, 15552, Note_on_c, 1, 45, 117
1, 15552, Note_on_c, 9, 36, 110
1, 15552, Note_on_c, 1, 33, 112
1, 15553, Note_on_c, 9, 36, 0
1, 15553, Note_on_c, 8, 54, 110
1, 15591, Note_on_c, 8, 54, 0
1, 15598, Note_on_c, 3, 74, 0
1, 15599, Note_on_c, 9, 42, 39
1, 15600, Note_on_c, 9, 42, 0
1, 15601, Note_on_c, 4, 62, 0
1, 15601, Note_on_c, 4, 57, 30
1, 15601, Lyric_t, "a"
1, 15601, Note_on_c, 3, 69, 73
1, 15624, Note_on_c, 8, 54, 110
1, 15629, Note_on_c, 8, 54, 0
1, 15632, Note_on_c, 1, 33, 0
1, 15638, Note_on_c, 1, 45, 0
1, 15644, Note_on_c, 3, 69, 0
1, 15645, Note_on_c, 8, 53, 97
1, 15647, Note_on_c, 9, 42, 110
1, 15648, Note_on_c, 9, 42, 0
1, 15648, Note_on_c, 9, 40, 110
1, 15648, Note_on_c, 9, 60, 77
1, 15648, Note_on_c, 1, 43, 112
1, 15648, Note_on_c, 9, 39, 110
1, 15648, Note_on_c, 1, 31, 100
1, 15648, Note_on_c, 9, 36, 110
1, 15649, Note_on_c, 9, 36, 0
1, 15649, Note_on_c, 9, 40, 0
1, 15649, Note_on_c, 4, 57, 0
1, 15649, Note_on_c, 9, 39, 0
1, 15649, Note_on_c, 9, 60, 0
1, 15649, Note_on_c, 4, 59, 50
1, 15649, Lyric_t, "mong "
1, 15649, Note_on_c, 3, 71, 93
1, 15662, Note_on_c, 8, 53, 0
1, 15662, Note_on_c, 8, 54, 78
1, 15691, Note_on_c, 8, 54, 0
1, 15695, Note_on_c, 3, 71, 0
1, 15695, Note_on_c, 4, 59, 0
1, 15695, Note_on_c, 3, 69, 72
1, 15695, Lyric_t, "the "
1, 15695, Note_on_c, 4, 57, 29
1, 15697, Note_on_c, 8, 57, 92
1, 15697, Note_on_c, 9, 42, 42
1, 15698, Note_on_c, 9, 42, 0
1, 15700, Note_on_c, 0, 67, 0
1, 15702, Note_on_c, 0, 71, 0
1, 15704, Note_on_c, 0, 74, 0
1, 15712, Note_on_c, 8, 57, 0
1, 15725, Note_on_c, 1, 31, 0
1, 15727, Note_on_c, 1, 43, 0
1, 15740, Note_on_c, 3, 69, 0
1, 15743, Note_on_c, 4, 57, 0
1, 15743, Note_on_c, 8, 53, 98
1, 15743, Note_on_c, 3, 78, 108
1, 15743, Note_on_c, 4, 66, 65
1, 15743, Lyric_t, "clouds "
1, 15744, Note_on_c, 0, 59, 0
1, 15744, Note_on_c, 0, 55, 0
1, 15744, Note_on_c, 0, 62, 0
1, 15744, Note_on_c, 9, 42, 96
1, 15744, Note_on_c, 0, 69, 72
1, 15744, Note_on_c, 0, 76, 82
1, 15744, Note_on_c, 0, 73, 77
1, 15744, Note_on_c, 0, 64, 98
1, 15744, Note_on_c, 9, 36, 110
1, 15745, Note_on_c, 9, 36, 0
1, 15745, Note_on_c, 9, 42, 0
1, 15745, Note_on_c, 0, 57, 87
1, 15745, Note_on_c, 0, 61, 99
1, 15745, Note_on_c, 1, 42, 99
1, 15745, Note_on_c, 1, 30, 97
1, 15759, Note_on_c, 8, 53, 0
1, 15759, Note_on_c, 8, 54, 80
1, 15790, Note_on_c, 8, 54, 0
1, 15791, Note_on_c, 9, 42, 37
1, 15792, Note_on_c, 9, 42, 0
1, 15792, Note_on_c, 4, 66, 0
1, 15792, Note_on_c, 3, 74, 46
1, 15792, Note_on_c, 4, 62, 9
1, 15793, Note_on_c, 3, 78, 0
1, 15793, Note_on_c, 8, 57, 100
1, 15810, Note_on_c, 8, 57, 0
1, 15836, Note_on_c, 3, 74, 0
1, 15839, Note_on_c, 9, 42, 110
1, 15840, Note_on_c, 9, 42, 0
1, 15840, Note_on_c, 4, 62, 0
1, 15840, Note_on_c, 9, 39, 110
1, 15840, Note_on_c, 9, 40, 95
1, 15840, Note_on_c, 4, 64, 37
1, 15840, Lyric_t, "in "
1, 15840, Note_on_c, 9, 60, 77
1, 15840, Note_on_c, 8, 54, 110
1, 15840, Note_on_c, 3, 76, 103
1, 15841, Note_on_c, 9, 60, 0
1, 15841, Note_on_c, 9, 39, 0
1, 15841, Note_on_c, 9, 40, 0
1, 15845, Note_on_c, 8, 54, 0
1, 15852, Note_on_c, 1, 30, 0
1, 15855, Note_on_c, 1, 42, 0
1, 15862, Note_on_c, 0, 57, 0
1, 15864, Note_on_c, 0, 64, 0
1, 15864, Note_on_c, 0, 61, 0
1, 15866, Note_on_c, 0, 69, 0
1, 15887, Note_on_c, 0, 73, 0
1, 15887, Note_on_c, 0, 76, 0
1, 15887, Note_on_c, 0, 62, 112
1, 15887, Note_on_c, 0, 66, 97
1, 15887, Note_on_c, 0, 57, 100
1, 15888, Note_on_c, 4, 64, 0
1, 15888, Note_on_c, 3, 76, 0
1, 15888, Note_on_c, 1, 47, 110
1, 15888, Note_on_c, 4, 59, 2
1, 15888, Note_on_c, 9, 42, 44
1, 15888, Note_on_c, 1, 35, 98
1, 15888, Lyric_t, "the "
1, 15888, Note_on_c, 3, 71, 55
1, 15888, Note_on_c, 9, 36, 91
1, 15888, Note_on_c, 8, 57, 101
1, 15889, Note_on_c, 9, 36, 0
1, 15889, Note_on_c, 9, 42, 0
1, 15889, Note_on_c, 0, 74, 87
1, 15889, Note_on_c, 0, 69, 71
1, 15889, Note_on_c, 0, 78, 81
1, 15907, Note_on_c, 8, 57, 0
1, 15931, Note_on_c, 3, 71, 0
1, 15935, Lyric_t, "heav"
1, 15935, Note_on_c, 9, 42, 95
1, 15935, Note_on_c, 3, 74, 99
1, 15936, Note_on_c, 9, 42, 0
1, 15936, Note_on_c, 4, 59, 0
1, 15936, Note_on_c, 4, 62, 24
1, 15936, Note_on_c, 9, 36, 110
1, 15937, Note_on_c, 9, 36, 0
1, 15939, Note_on_c, 8, 53, 73
1, 15952, Note_on_c, 8, 53, 0
1, 15953, Note_on_c, 8, 54, 66
1, 15976, Note_on_c, 1, 47, 0
1, 15978, Note_on_c, 8, 54, 0
1, 15982, Note_on_c, 1, 35, 0
1, 15983, Note_on_c, 9, 46, 87
1, 15983, Note_on_c, 1, 45, 97
1, 15983, Note_on_c, 1, 33, 100
1, 15984, Note_on_c, 9, 46, 0
1, 15984, Note_on_c, 4, 62, 0
1, 15984, Note_on_c, 8, 57, 97
1, 15984, Note_on_c, 4, 59, 2
1, 15985, Note_on_c, 3, 71, 53
1, 15985, Lyric_t, ""
1, 15985, Lyric_t, "\015"
1, 15985, Lyric_t, "en. "
1, 15986, Note_on_c, 3, 74, 0
1, 15998, Note_on_c, 8, 57, 0
1, 15999, Note_on_c, 1, 45, 0
1, 16000, Note_on_c, 1, 33, 0
1, 16001, Lyric_t, ""
1, 16001, Lyric_t, "\015"
1, 16007, Note_on_c, 0, 69, 0
1, 16020, Note_on_c, 0, 62, 0
1, 16024, Note_on_c, 0, 66, 0
1, 16029, Note_on_c, 3, 71, 0
1, 16031, Note_on_c, 4, 59, 0
1, 16031, Note_on_c, 1, 35, 97
1, 16031, Note_on_c, 9, 42, 110
1, 16031, Note_on_c, 0, 76, 79
1, 16031, Note_on_c, 0, 73, 77
1, 16031, Note_on_c, 0, 69, 76
1, 16032, Note_on_c, 9, 42, 0
1, 16032, Note_on_c, 0, 74, 0
1, 16032, Note_on_c, 0, 78, 0
1, 16032, Note_on_c, 9, 40, 110
1, 16032, Note_on_c, 3, 71, 91
1, 16032, Note_on_c, 8, 58, 78
1, 16032, Note_on_c, 9, 39, 110
1, 16032, Note_on_c, 4, 59, 28
1, 16032, Note_on_c, 9, 36, 110
1, 16032, Lyric_t, "'Cause "
1, 16032, Note_on_c, 1, 47, 120
1, 16032, Note_on_c, 9, 60, 77
1, 16033, Note_on_c, 9, 60, 0
1, 16033, Note_on_c, 9, 39, 0
1, 16033, Note_on_c, 9, 40, 0
1, 16033, Note_on_c, 9, 36, 0
1, 16033, Note_on_c, 0, 64, 105
1, 16033, Note_on_c, 0, 61, 105
1, 16049, Note_on_c, 8, 58, 0
1, 16049, Note_on_c, 8, 59, 73
1, 16080, Note_on_c, 8, 62, 114
1, 16080, Note_on_c, 9, 40, 26
1, 16081, Note_on_c, 9, 40, 0
1, 16081, Note_on_c, 9, 42, 42
1, 16082, Note_on_c, 9, 42, 0
1, 16083, Note_on_c, 3, 71, 0
1, 16084, Note_on_c, 8, 59, 0
1, 16103, Note_on_c, 8, 62, 0
1, 16104, Note_on_c, 9, 40, 104
1, 16105, Note_on_c, 9, 40, 0
1, 16110, Note_on_c, 0, 61, 0
1, 16112, Note_on_c, 0, 64, 0
1, 16118, Note_on_c, 1, 47, 0
1, 16118, Note_on_c, 1, 35, 0
1, 16119, Note_on_c, 0, 73, 0
1, 16120, Note_on_c, 0, 69, 0
1, 16121, Note_on_c, 0, 57, 0
1, 16128, Note_on_c, 0, 76, 0
1, 16128, Note_on_c, 9, 36, 110
1, 16128, Note_on_c, 9, 49, 96
1, 16128, Note_on_c, 1, 28, 104
1, 16128, Note_on_c, 9, 43, 89
1, 16128, Note_on_c, 0, 66, 96
1, 16129, Note_on_c, 9, 43, 0
1, 16129, Note_on_c, 9, 49, 0
1, 16129, Note_on_c, 9, 36, 0
1, 16129, Note_on_c, 0, 71, 81
1, 16129, Note_on_c, 0, 67, 81
1, 16129, Note_on_c, 0, 74, 82
1, 16129, Note_on_c, 1, 40, 110
1, 16131, Note_on_c, 4, 59, 0
1, 16175, Note_on_c, 2, 62, 59
1, 16175, Note_on_c, 9, 42, 37
1, 16176, Note_on_c, 9, 42, 0
1, 16176, Note_on_c, 2, 67, 86
1, 16177, Note_on_c, 2, 71, 72
1, 16195, Note_on_c, 2, 67, 0
1, 16195, Note_on_c, 2, 62, 0
1, 16198, Note_on_c, 2, 71, 0
1, 16200, Note_on_c, 2, 62, 81
1, 16200, Note_on_c, 2, 71, 81
1, 16221, Note_on_c, 2, 71, 0
1, 16221, Note_on_c, 2, 62, 0
1, 16222, Note_on_c, 2, 67, 99
1, 16223, Note_on_c, 9, 42, 110
1, 16223, Note_on_c, 2, 71, 101
1, 16224, Note_on_c, 9, 42, 0
1, 16224, Note_on_c, 4, 74, 47
1, 16224, Note_on_c, 9, 60, 77
1, 16224, Note_on_c, 9, 40, 95
1, 16224, Note_on_c, 9, 39, 110
1, 16225, Note_on_c, 9, 39, 0
1, 16225, Note_on_c, 9, 60, 0
1, 16225, Note_on_c, 9, 40, 0
1, 16225, Lyric_t, "let "
1, 16225, Note_on_c, 3, 74, 105
1, 16227, Note_on_c, 2, 71, 0
1, 16228, Note_on_c, 2, 67, 0
1, 16240, Note_on_c, 1, 28, 0
1, 16242, Note_on_c, 0, 66, 0
1, 16244, Note_on_c, 1, 40, 0
1, 16247, Note_on_c, 0, 71, 0
1, 16248, Note_on_c, 0, 74, 0
1, 16249, Note_on_c, 0, 67, 0
1, 16270, Note_on_c, 3, 74, 0
1, 16271, Note_on_c, 4, 74, 0
1, 16271, Note_on_c, 1, 43, 100
1, 16271, Lyric_t, "this "
1, 16271, Note_on_c, 0, 74, 76
1, 16271, Note_on_c, 0, 67, 69
1, 16271, Note_on_c, 1, 31, 114
1, 16271, Note_on_c, 0, 71, 78
1, 16271, Note_on_c, 3, 74, 97
1, 16271, Note_on_c, 0, 66, 78
1, 16272, Note_on_c, 9, 42, 44
1, 16272, Note_on_c, 4, 74, 47
1, 16272, Note_on_c, 9, 36, 91
1, 16272, Note_on_c, 2, 62, 78
1, 16273, Note_on_c, 9, 36, 0
1, 16273, Note_on_c, 9, 42, 0
1, 16273, Note_on_c, 2, 67, 100
1, 16274, Note_on_c, 2, 71, 104
1, 16280, Note_on_c, 0, 67, 0
1, 16280, Note_on_c, 2, 62, 0
1, 16280, Note_on_c, 0, 74, 0
1, 16282, Note_on_c, 2, 67, 0
1, 16282, Note_on_c, 0, 71, 0
1, 16282, Note_on_c, 2, 71, 0
1, 16283, Note_on_c, 0, 66, 0
1, 16289, Note_on_c, 1, 31, 0
1, 16289, Note_on_c, 1, 43, 0
1, 16319, Note_on_c, 3, 74, 0
1, 16319, Lyric_t, "groove "
1, 16319, Note_on_c, 3, 71, 85
1, 16319, Note_on_c, 0, 71, 81
1, 16319, Note_on_c, 0, 67, 82
1, 16319, Note_on_c, 0, 74, 83
1, 16319, Note_on_c, 9, 42, 95
1, 16319, Note_on_c, 0, 66, 87
1, 16320, Note_on_c, 9, 42, 0
1, 16320, Note_on_c, 4, 74, 0
1, 16320, Note_on_c, 9, 36, 110
1, 16320, Note_on_c, 1, 33, 112
1, 16320, Note_on_c, 4, 71, 36
1, 16320, Note_on_c, 1, 45, 117
1, 16321, Note_on_c, 9, 36, 0
1, 16367, Note_on_c, 9, 42, 39
1, 16368, Note_on_c, 9, 42, 0
1, 16369, Note_on_c, 2, 67, 61
1, 16370, Note_on_c, 2, 71, 56
1, 16370, Note_on_c, 2, 62, 19
1, 16385, Note_on_c, 2, 71, 0
1, 16391, Note_on_c, 2, 71, 47
1, 16397, Note_on_c, 0, 74, 0
1, 16397, Note_on_c, 0, 71, 0
1, 16398, Note_on_c, 0, 66, 0
1, 16398, Note_on_c, 0, 67, 0
1, 16400, Note_on_c, 1, 33, 0
1, 16406, Note_on_c, 1, 45, 0
1, 16411, Note_on_c, 3, 71, 0
1, 16413, Note_on_c, 2, 67, 0
1, 16415, Note_on_c, 2, 67, 99
1, 16415, Note_on_c, 9, 42, 110
1, 16416, Note_on_c, 9, 42, 0
1, 16416, Note_on_c, 9, 39, 110
1, 16416, Note_on_c, 9, 40, 110
1, 16416, Note_on_c, 1, 31, 100
1, 16416, Note_on_c, 9, 36, 110
1, 16416, Note_on_c, 0, 71, 81
1, 16416, Note_on_c, 0, 74, 81
1, 16416, Note_on_c, 9, 60, 77
1, 16416, Note_on_c, 0, 67, 79
1, 16416, Note_on_c, 1, 43, 112
1, 16417, Note_on_c, 9, 60, 0
1, 16417, Note_on_c, 9, 36, 0
1, 16417, Note_on_c, 9, 40, 0
1, 16417, Note_on_c, 9, 39, 0
1, 16417, Note_on_c, 0, 66, 87
1, 16418, Note_on_c, 2, 71, 0
1, 16421, Note_on_c, 2, 62, 0
1, 16421, Note_on_c, 2, 67, 0
1, 16465, Note_on_c, 9, 42, 42
1, 16466, Note_on_c, 9, 42, 0
1, 16476, Note_on_c, 0, 66, 0
1, 16482, Note_on_c, 0, 67, 0
1, 16483, Note_on_c, 0, 71, 0
1, 16484, Note_on_c, 0, 74, 0
1, 16493, Note_on_c, 1, 31, 0
1, 16495, Note_on_c, 1, 43, 0
1, 16511, Note_on_c, 2, 68, 98
1, 16511, Note_on_c, 2, 63, 76
1, 16512, Note_on_c, 4, 71, 0
1, 16512, Note_on_c, 4, 66, 27
1, 16512, Note_on_c, 3, 66, 82
1, 16512, Note_on_c, 9, 36, 110
1, 16512, Note_on_c, 2, 72, 101
1, 16512, Lyric_t, "light "
1, 16512, Note_on_c, 9, 42, 96
1, 16513, Note_on_c, 9, 42, 0
1, 16513, Note_on_c, 9, 36, 0
1, 16513, Note_on_c, 1, 30, 97
1, 16513, Note_on_c, 1, 42, 99
1, 16513, Note_on_c, 0, 73, 71
1, 16513, Note_on_c, 0, 69, 75
1, 16513, Note_on_c, 0, 76, 83
1, 16526, Note_on_c, 2, 72, 0
1, 16529, Note_on_c, 2, 68, 0
1, 16532, Note_on_c, 2, 73, 83
1, 16533, Note_on_c, 2, 63, 0
1, 16533, Note_on_c, 2, 69, 90
1, 16534, Note_on_c, 2, 64, 73
1, 16559, Note_on_c, 3, 66, 0
1, 16559, Note_on_c, 3, 69, 76
1, 16559, Lyric_t, "up "
1, 16559, Note_on_c, 9, 42, 37
1, 16560, Note_on_c, 9, 42, 0
1, 16560, Note_on_c, 4, 66, 0
1, 16560, Note_on_c, 4, 69, 22
1, 16583, Note_on_c, 2, 69, 0
1, 16585, Note_on_c, 2, 73, 0
1, 16586, Note_on_c, 2, 73, 95
1, 16587, Note_on_c, 2, 69, 82
1, 16607, Note_on_c, 2, 64, 0
1, 16607, Note_on_c, 3, 69, 0
1, 16607, Lyric_t, "your "
1, 16607, Note_on_c, 9, 42, 110
1, 16607, Note_on_c, 3, 73, 80
1, 16608, Note_on_c, 9, 42, 0
1, 16608, Note_on_c, 2, 73, 0
1, 16608, Note_on_c, 4, 69, 0
1, 16608, Note_on_c, 2, 69, 0
1, 16608, Note_on_c, 9, 39, 110
1, 16608, Note_on_c, 9, 40, 95
1, 16608, Note_on_c, 9, 60, 77
1, 16608, Note_on_c, 4, 73, 34
1, 16609, Note_on_c, 9, 60, 0
1, 16609, Note_on_c, 9, 40, 0
1, 16609, Note_on_c, 9, 39, 0
1, 16609, Note_on_c, 2, 73, 82
1, 16609, Note_on_c, 2, 69, 82
1, 16613, Note_on_c, 0, 76, 0
1, 16616, Note_on_c, 0, 73, 0
1, 16616, Note_on_c, 0, 69, 0
1, 16620, Note_on_c, 2, 69, 0
1, 16620, Note_on_c, 2, 73, 0
1, 16620, Note_on_c, 1, 30, 0
1, 16623, Note_on_c, 1, 42, 0
1, 16654, Note_on_c, 3, 73, 0
1, 16655, Lyric_t, ""
1, 16655, Lyric_t, "\015"
1, 16655, Lyric_t, "fuse, "
1, 16655, Note_on_c, 0, 74, 82
1, 16655, Note_on_c, 0, 69, 78
1, 16655, Note_on_c, 0, 78, 73
1, 16655, Note_on_c, 3, 71, 91
1, 16656, Note_on_c, 4, 73, 0
1, 16656, Note_on_c, 1, 35, 98
1, 16656, Note_on_c, 9, 42, 44
1, 16656, Note_on_c, 9, 36, 91
1, 16656, Note_on_c, 1, 47, 110
1, 16656, Note_on_c, 4, 71, 26
1, 16657, Note_on_c, 9, 36, 0
1, 16657, Note_on_c, 9, 42, 0
1, 16657, Note_on_c, 2, 66, 101
1, 16657, Note_on_c, 2, 71, 104
1, 16657, Note_on_c, 2, 62, 78
1, 16695, Note_on_c, 2, 62, 0
1, 16699, Note_on_c, 2, 71, 0
1, 16702, Note_on_c, 2, 66, 0
1, 16703, Note_on_c, 9, 42, 95
1, 16704, Note_on_c, 9, 42, 0
1, 16704, Note_on_c, 9, 36, 110
1, 16705, Note_on_c, 9, 36, 0
1, 16730, Note_on_c, 0, 74, 0
1, 16730, Note_on_c, 0, 78, 0
1, 16742, Note_on_c, 0, 69, 0
1, 16744, Note_on_c, 1, 47, 0
1, 16750, Note_on_c, 3, 71, 0
1, 16750, Note_on_c, 1, 35, 0
1, 16751, Note_on_c, 9, 42, 39
1, 16751, Note_on_c, 1, 45, 97
1, 16751, Lyric_t, "it's "
1, 16751, Note_on_c, 3, 69, 72
1, 16751, Note_on_c, 1, 33, 100
1, 16752, Note_on_c, 9, 42, 0
1, 16752, Note_on_c, 4, 71, 0
1, 16752, Note_on_c, 2, 64, 103
1, 16752, Note_on_c, 4, 69, 12
1, 16753, Note_on_c, 0, 76, 68
1, 16753, Note_on_c, 0, 69, 66
1, 16753, Note_on_c, 0, 73, 75
1, 16764, Note_on_c, 0, 76, 0
1, 16765, Note_on_c, 0, 69, 0
1, 16767, Note_on_c, 1, 45, 0
1, 16768, Note_on_c, 0, 73, 0
1, 16768, Note_on_c, 1, 33, 0
1, 16798, Note_on_c, 3, 69, 0
1, 16799, Note_on_c, 9, 42, 110
1, 16799, Note_on_c, 3, 74, 101
1, 16799, Lyric_t, "all "
1, 16799, Note_on_c, 1, 35, 97
1, 16800, Note_on_c, 9, 42, 0
1, 16800, Note_on_c, 4, 69, 0
1, 16800, Note_on_c, 2, 64, 0
1, 16800, Note_on_c, 1, 47, 120
1, 16800, Note_on_c, 9, 40, 110
1, 16800, Note_on_c, 9, 60, 77
1, 16800, Note_on_c, 9, 36, 110
1, 16800, Note_on_c, 4, 74, 35
1, 16800, Note_on_c, 2, 66, 93
1, 16800, Note_on_c, 9, 39, 110
1, 16801, Note_on_c, 9, 39, 0
1, 16801, Note_on_c, 9, 36, 0
1, 16801, Note_on_c, 9, 40, 0
1, 16801, Note_on_c, 9, 60, 0
1, 16801, Note_on_c, 0, 74, 91
1, 16801, Note_on_c, 0, 78, 71
1, 16801, Note_on_c, 0, 69, 84
1, 16826, Note_on_c, 2, 66, 0
1, 16849, Note_on_c, 9, 42, 42
1, 16849, Note_on_c, 2, 69, 103
1, 16850, Note_on_c, 9, 42, 0
1, 16859, Note_on_c, 0, 78, 0
1, 16864, Note_on_c, 2, 69, 0
1, 16865, Note_on_c, 0, 74, 0
1, 16868, Note_on_c, 0, 69, 0
1, 16886, Note_on_c, 1, 47, 0
1, 16886, Note_on_c, 1, 35, 0
1, 16890, Note_on_c, 3, 74, 0
1, 16896, Note_on_c, 4, 74, 0
1, 16896, Note_on_c, 0, 66, 96
1, 16896, Note_on_c, 9, 36, 110
1, 16896, Lyric_t, "right, "
1, 16896, Note_on_c, 1, 28, 104
1, 16896, Note_on_c, 9, 42, 96
1, 16896, Note_on_c, 3, 71, 73
1, 16896, Note_on_c, 4, 71, 1
1, 16897, Note_on_c, 9, 42, 0
1, 16897, Note_on_c, 9, 36, 0
1, 16897, Note_on_c, 1, 40, 110
1, 16897, Note_on_c, 0, 67, 81
1, 16897, Note_on_c, 9, 43, 86
1, 16897, Note_on_c, 0, 71, 81
1, 16897, Note_on_c, 0, 74, 82
1, 16898, Note_on_c, 9, 43, 0
1, 16943, Note_on_c, 9, 42, 37
1, 16944, Note_on_c, 9, 42, 0
1, 16944, Note_on_c, 2, 62, 74
1, 16945, Note_on_c, 2, 67, 99
1, 16946, Note_on_c, 2, 71, 92
1, 16948, Note_on_c, 3, 71, 0
1, 16960, Note_on_c, 2, 71, 0
1, 16967, Note_on_c, 2, 67, 0
1, 16969, Note_on_c, 2, 67, 88
1, 16969, Note_on_c, 2, 71, 91
1, 16988, Note_on_c, 2, 67, 0
1, 16989, Note_on_c, 2, 71, 0
1, 16991, Note_on_c, 2, 67, 100
1, 16991, Note_on_c, 9, 42, 110
1, 16992, Note_on_c, 9, 42, 0
1, 16992, Note_on_c, 4, 71, 0
1, 16992, Note_on_c, 9, 60, 77
1, 16992, Note_on_c, 9, 40, 95
1, 16992, Note_on_c, 9, 39, 110
1, 16992, Note_on_c, 4, 74, 37
1, 16993, Note_on_c, 9, 39, 0
1, 16993, Note_on_c, 9, 40, 0
1, 16993, Note_on_c, 9, 60, 0
1, 16993, Lyric_t, "all "
1, 16993, Note_on_c, 3, 74, 103
1, 16995, Note_on_c, 2, 67, 0
1, 16996, Note_on_c, 2, 62, 0
1, 17008, Note_on_c, 1, 28, 0
1, 17010, Note_on_c, 0, 66, 0
1, 17012, Note_on_c, 1, 40, 0
1, 17015, Note_on_c, 0, 71, 0
1, 17016, Note_on_c, 0, 74, 0
1, 17017, Note_on_c, 0, 67, 0
1, 17039, Note_on_c, 0, 67, 69
1, 17039, Note_on_c, 0, 74, 76
1, 17039, Note_on_c, 0, 66, 78
1, 17039, Note_on_c, 0, 71, 78
1, 17039, Note_on_c, 2, 62, 82
1, 17039, Note_on_c, 1, 43, 100
1, 17039, Note_on_c, 2, 67, 99
1, 17039, Note_on_c, 1, 31, 114
1, 17040, Note_on_c, 9, 42, 44
1, 17040, Note_on_c, 9, 36, 91
1, 17040, Note_on_c, 2, 71, 102
1, 17041, Note_on_c, 9, 36, 0
1, 17041, Note_on_c, 9, 42, 0
1, 17048, Note_on_c, 0, 74, 0
1, 17048, Note_on_c, 0, 67, 0
1, 17050, Note_on_c, 2, 62, 0
1, 17050, Note_on_c, 2, 71, 0
1, 17050, Note_on_c, 0, 71, 0
1, 17051, Note_on_c, 0, 66, 0
1, 17055, Note_on_c, 2, 67, 0
1, 17057, Note_on_c, 1, 31, 0
1, 17057, Note_on_c, 1, 43, 0
1, 17082, Note_on_c, 3, 74, 0
1, 17087, Note_on_c, 9, 42, 95
1, 17087, Note_on_c, 0, 67, 82
1, 17087, Note_on_c, 0, 66, 87
1, 17087, Note_on_c, 0, 71, 81
1, 17087, Note_on_c, 0, 74, 83
1, 17088, Note_on_c, 9, 42, 0
1, 17088, Note_on_c, 4, 74, 0
1, 17088, Note_on_c, 1, 33, 112
1, 17088, Note_on_c, 1, 45, 117
1, 17088, Note_on_c, 4, 71, 10
1, 17088, Note_on_c, 9, 36, 110
1, 17089, Note_on_c, 9, 36, 0
1, 17089, Note_on_c, 3, 71, 81
1, 17089, Lyric_t, "right, "
1, 17135, Note_on_c, 9, 42, 39
1, 17136, Note_on_c, 9, 42, 0
1, 17159, Note_on_c, 2, 71, 40
1, 17165, Note_on_c, 0, 71, 0
1, 17165, Note_on_c, 0, 74, 0
1, 17166, Note_on_c, 0, 67, 0
1, 17166, Note_on_c, 0, 66, 0
1, 17168, Note_on_c, 1, 33, 0
1, 17174, Note_on_c, 1, 45, 0
1, 17178, Note_on_c, 2, 71, 0
1, 17182, Note_on_c, 2, 62, 61
1, 17183, Note_on_c, 2, 67, 99
1, 17183, Note_on_c, 2, 71, 99
1, 17183, Note_on_c, 9, 42, 110
1, 17184, Note_on_c, 9, 42, 0
1, 17184, Note_on_c, 9, 40, 110
1, 17184, Note_on_c, 9, 36, 110
1, 17184, Note_on_c, 1, 43, 112
1, 17184, Note_on_c, 0, 74, 81
1, 17184, Note_on_c, 1, 31, 100
1, 17184, Note_on_c, 9, 60, 77
1, 17184, Note_on_c, 9, 39, 110
1, 17184, Note_on_c, 0, 71, 81
1, 17184, Note_on_c, 0, 67, 79
1, 17185, Note_on_c, 9, 39, 0
1, 17185, Note_on_c, 9, 36, 0
1, 17185, Note_on_c, 9, 60, 0
1, 17185, Note_on_c, 9, 40, 0
1, 17185, Note_on_c, 0, 66, 87
1, 17186, Note_on_c, 3, 71, 0
1, 17192, Note_on_c, 2, 62, 0
1, 17196, Note_on_c, 2, 71, 0
1, 17200, Note_on_c, 2, 67, 0
1, 17233, Note_on_c, 9, 42, 42
1, 17234, Note_on_c, 9, 42, 0
1, 17244, Note_on_c, 0, 66, 0
1, 17250, Note_on_c, 0, 67, 0
1, 17251, Note_on_c, 0, 71, 0
1, 17252, Note_on_c, 0, 74, 0
1, 17261, Note_on_c, 1, 31, 0
1, 17263, Note_on_c, 1, 43, 0
1, 17279, Note_on_c, 3, 73, 103
1, 17279, Lyric_t, "all "
1, 17280, Note_on_c, 4, 71, 0
1, 17280, Note_on_c, 9, 36, 110
1, 17280, Note_on_c, 4, 73, 49
1, 17280, Note_on_c, 9, 42, 96
1, 17280, Note_on_c, 2, 63, 47
1, 17281, Note_on_c, 9, 42, 0
1, 17281, Note_on_c, 9, 36, 0
1, 17281, Note_on_c, 0, 73, 71
1, 17281, Note_on_c, 0, 69, 75
1, 17281, Note_on_c, 1, 30, 97
1, 17281, Note_on_c, 0, 76, 83
1, 17281, Note_on_c, 1, 42, 99
1, 17281, Note_on_c, 2, 68, 87
1, 17281, Note_on_c, 2, 72, 87
1, 17300, Note_on_c, 2, 72, 0
1, 17305, Note_on_c, 2, 69, 65
1, 17305, Note_on_c, 2, 64, 65
1, 17305, Note_on_c, 2, 73, 65
1, 17306, Note_on_c, 2, 68, 0
1, 17310, Note_on_c, 2, 63, 0
1, 17327, Note_on_c, 3, 73, 0
1, 17327, Note_on_c, 3, 69, 57
1, 17327, Note_on_c, 9, 42, 37
1, 17328, Note_on_c, 9, 42, 0
1, 17328, Note_on_c, 4, 73, 0
1, 17328, Note_on_c, 4, 69, 20
1, 17351, Note_on_c, 2, 73, 0
1, 17354, Note_on_c, 2, 64, 0
1, 17354, Note_on_c, 2, 69, 0
1, 17354, Note_on_c, 2, 73, 94
1, 17355, Note_on_c, 2, 64, 63
1, 17355, Note_on_c, 2, 69, 87
1, 17373, Note_on_c, 2, 69, 0
1, 17375, Note_on_c, 2, 64, 0
1, 17375, Note_on_c, 3, 69, 0
1, 17375, Note_on_c, 3, 66, 45
1, 17375, Note_on_c, 9, 42, 110
1, 17376, Note_on_c, 9, 42, 0
1, 17376, Note_on_c, 4, 69, 0
1, 17376, Note_on_c, 4, 66, 6
1, 17376, Note_on_c, 2, 69, 95
1, 17376, Note_on_c, 9, 60, 77
1, 17376, Note_on_c, 2, 64, 95
1, 17376, Note_on_c, 9, 40, 95
1, 17376, Note_on_c, 9, 39, 110
1, 17377, Note_on_c, 9, 39, 0
1, 17377, Note_on_c, 9, 40, 0
1, 17377, Note_on_c, 9, 60, 0
1, 17380, Note_on_c, 2, 73, 0
1, 17381, Note_on_c, 0, 76, 0
1, 17384, Note_on_c, 0, 73, 0
1, 17384, Note_on_c, 0, 69, 0
1, 17386, Note_on_c, 2, 69, 0
1, 17386, Note_on_c, 2, 64, 0
1, 17388, Note_on_c, 1, 30, 0
1, 17391, Note_on_c, 1, 42, 0
1, 17422, Note_on_c, 3, 66, 0
1, 17423, Note_on_c, 0, 74, 82
1, 17423, Note_on_c, 3, 71, 85
1, 17423, Note_on_c, 0, 78, 73
1, 17423, Note_on_c, 0, 69, 78
1, 17423, Lyric_t, "right, "
1, 17424, Note_on_c, 4, 66, 0
1, 17424, Note_on_c, 2, 62, 63
1, 17424, Note_on_c, 9, 36, 91
1, 17424, Note_on_c, 2, 66, 101
1, 17424, Note_on_c, 4, 71, 28
1, 17424, Note_on_c, 9, 42, 44
1, 17424, Note_on_c, 1, 47, 110
1, 17424, Note_on_c, 1, 35, 98
1, 17425, Note_on_c, 9, 42, 0
1, 17425, Note_on_c, 9, 36, 0
1, 17426, Note_on_c, 2, 71, 103
1, 17458, Note_on_c, 2, 71, 0
1, 17464, Note_on_c, 2, 66, 0
1, 17471, Note_on_c, 9, 42, 95
1, 17472, Note_on_c, 9, 42, 0
1, 17472, Note_on_c, 2, 62, 0
1, 17472, Note_on_c, 9, 36, 110
1, 17473, Note_on_c, 9, 36, 0
1, 17498, Note_on_c, 0, 74, 0
1, 17498, Note_on_c, 0, 78, 0
1, 17498, Note_on_c, 2, 69, 58
1, 17500, Note_on_c, 2, 69, 0
1, 17510, Note_on_c, 0, 69, 0
1, 17512, Note_on_c, 1, 47, 0
1, 17518, Note_on_c, 1, 35, 0
1, 17518, Note_on_c, 3, 71, 0
1, 17519, Note_on_c, 1, 45, 97
1, 17519, Note_on_c, 1, 33, 100
1, 17519, Note_on_c, 9, 42, 39
1, 17520, Note_on_c, 9, 42, 0
1, 17520, Note_on_c, 4, 71, 0
1, 17520, Note_on_c, 3, 74, 76
1, 17520, Lyric_t, "oh. "
1, 17520, Note_on_c, 4, 74, 28
1, 17520, Lyric_t, ""
1, 17520, Lyric_t, "\015"
1, 17521, Note_on_c, 0, 73, 75
1, 17521, Note_on_c, 0, 76, 68
1, 17521, Note_on_c, 2, 64, 101
1, 17521, Note_on_c, 0, 69, 66
1, 17522, Note_on_c, 2, 69, 51
1, 17532, Note_on_c, 0, 76, 0
1, 17533, Note_on_c, 0, 69, 0
1, 17535, Note_on_c, 1, 45, 0
1, 17536, Note_on_c, 0, 73, 0
1, 17536, Note_on_c, 1, 33, 0
1, 17567, Note_on_c, 1, 35, 97
1, 17567, Note_on_c, 9, 42, 110
1, 17568, Note_on_c, 9, 42, 0
1, 17568, Note_on_c, 2, 64, 0
1, 17568, Note_on_c, 4, 74, 0
1, 17568, Note_on_c, 9, 60, 77
1, 17568, Note_on_c, 9, 39, 110
1, 17568, Note_on_c, 3, 71, 52
1, 17568, Note_on_c, 9, 36, 110
1, 17568, Note_on_c, 9, 40, 110
1, 17568, Note_on_c, 1, 47, 120
1, 17568, Note_on_c, 4, 71, 11
1, 17569, Note_on_c, 9, 40, 0
1, 17569, Note_on_c, 9, 36, 0
1, 17569, Note_on_c, 9, 60, 0
1, 17569, Note_on_c, 2, 69, 0
1, 17569, Note_on_c, 9, 39, 0
1, 17569, Note_on_c, 0, 74, 91
1, 17569, Note_on_c, 0, 78, 71
1, 17569, Note_on_c, 0, 69, 84
1, 17569, Note_on_c, 2, 66, 74
1, 17570, Note_on_c, 3, 74, 0
1, 17601, Lyric_t, ""
1, 17601, Lyric_t, "\015"
1, 17611, Note_on_c, 2, 66, 0
1, 17616, Note_on_c, 4, 71, 0
1, 17616, Note_on_c, 3, 74, 69
1, 17616, Note_on_c, 4, 74, 28
1, 17617, Note_on_c, 3, 71, 0
1, 17617, Note_on_c, 9, 42, 42
1, 17618, Note_on_c, 9, 42, 0
1, 17618, Note_on_c, 2, 69, 105
1, 17627, Note_on_c, 0, 78, 0
1, 17633, Note_on_c, 2, 69, 0
1, 17633, Note_on_c, 0, 74, 0
1, 17636, Note_on_c, 0, 69, 0
1, 17654, Note_on_c, 1, 47, 0
1, 17654, Note_on_c, 1, 35, 0
1, 17663, Note_on_c, 3, 74, 0
1, 17664, Note_on_c, 0, 66, 96
1, 17664, Note_on_c, 9, 42, 96
1, 17664, Note_on_c, 9, 36, 110
1, 17664, Note_on_c, 1, 28, 104
1, 17665, Note_on_c, 9, 36, 0
1, 17665, Note_on_c, 9, 42, 0
1, 17665, Note_on_c, 9, 43, 84
1, 17665, Note_on_c, 1, 40, 110
1, 17665, Note_on_c, 0, 74, 82
1, 17665, Note_on_c, 0, 71, 81
1, 17665, Note_on_c, 0, 67, 81
1, 17666, Note_on_c, 9, 43, 0
1, 17680, Note_on_c, 4, 74, 0
1, 17711, Note_on_c, 9, 42, 37
1, 17712, Note_on_c, 9, 42, 0
1, 17713, Note_on_c, 2, 67, 66
1, 17714, Note_on_c, 2, 71, 68
1, 17733, Note_on_c, 2, 71, 0
1, 17735, Note_on_c, 2, 71, 74
1, 17756, Note_on_c, 2, 67, 0
1, 17758, Note_on_c, 2, 71, 0
1, 17758, Note_on_c, 2, 62, 50
1, 17758, Note_on_c, 2, 67, 99
1, 17759, Note_on_c, 2, 71, 103
1, 17759, Note_on_c, 9, 42, 110
1, 17760, Note_on_c, 9, 42, 0
1, 17760, Note_on_c, 4, 74, 40
1, 17760, Note_on_c, 9, 40, 95
1, 17760, Note_on_c, 9, 39, 110
1, 17760, Note_on_c, 9, 60, 77
1, 17761, Note_on_c, 9, 60, 0
1, 17761, Note_on_c, 9, 39, 0
1, 17761, Note_on_c, 9, 40, 0
1, 17761, Note_on_c, 3, 74, 84
1, 17761, Lyric_t, "Let "
1, 17766, Note_on_c, 2, 62, 0
1, 17770, Note_on_c, 2, 71, 0
1, 17773, Note_on_c, 2, 67, 0
1, 17776, Note_on_c, 1, 28, 0
1, 17778, Note_on_c, 0, 66, 0
1, 17780, Note_on_c, 1, 40, 0
1, 17783, Note_on_c, 0, 71, 0
1, 17784, Note_on_c, 0, 74, 0
1, 17785, Note_on_c, 0, 67, 0
1, 17807, Note_on_c, 3, 74, 0
1, 17807, Note_on_c, 4, 74, 0
1, 17807, Note_on_c, 0, 74, 76
1, 17807, Note_on_c, 1, 43, 100
1, 17807, Note_on_c, 0, 66, 78
1, 17807, Note_on_c, 0, 71, 78
1, 17807, Note_on_c, 2, 62, 80
1, 17807, Note_on_c, 1, 31, 114
1, 17807, Note_on_c, 0, 67, 69
1, 17808, Note_on_c, 9, 36, 91
1, 17808, Note_on_c, 2, 67, 99
1, 17808, Note_on_c, 4, 74, 47
1, 17808, Note_on_c, 9, 42, 44
1, 17809, Note_on_c, 9, 42, 0
1, 17809, Note_on_c, 9, 36, 0
1, 17809, Note_on_c, 3, 74, 83
1, 17809, Lyric_t, "this "
1, 17810, Note_on_c, 2, 71, 103
1, 17816, Note_on_c, 0, 67, 0
1, 17816, Note_on_c, 0, 74, 0
1, 17818, Note_on_c, 0, 71, 0
1, 17819, Note_on_c, 0, 66, 0
1, 17822, Note_on_c, 2, 62, 0
1, 17823, Note_on_c, 2, 71, 0
1, 17825, Note_on_c, 1, 43, 0
1, 17825, Note_on_c, 1, 31, 0
1, 17826, Note_on_c, 2, 67, 0
1, 17855, Note_on_c, 3, 74, 0
1, 17855, Note_on_c, 0, 71, 81
1, 17855, Note_on_c, 0, 74, 83
1, 17855, Note_on_c, 0, 67, 82
1, 17855, Note_on_c, 9, 42, 95
1, 17855, Note_on_c, 0, 66, 87
1, 17856, Note_on_c, 9, 42, 0
1, 17856, Note_on_c, 4, 74, 0
1, 17856, Note_on_c, 1, 33, 112
1, 17856, Note_on_c, 4, 71, 21
1, 17856, Note_on_c, 9, 36, 110
1, 17856, Note_on_c, 1, 45, 117
1, 17857, Note_on_c, 9, 36, 0
1, 17857, Lyric_t, "groove "
1, 17857, Note_on_c, 3, 71, 85
1, 17903, Note_on_c, 2, 67, 37
1, 17903, Note_on_c, 9, 42, 39
1, 17904, Note_on_c, 9, 42, 0
1, 17905, Note_on_c, 2, 71, 30
1, 17907, Note_on_c, 3, 71, 0
1, 17921, Note_on_c, 2, 71, 0
1, 17927, Note_on_c, 2, 71, 51
1, 17933, Note_on_c, 0, 71, 0
1, 17933, Note_on_c, 0, 74, 0
1, 17934, Note_on_c, 0, 66, 0
1, 17934, Note_on_c, 0, 67, 0
1, 17936, Note_on_c, 1, 33, 0
1, 17942, Note_on_c, 1, 45, 0
1, 17951, Note_on_c, 2, 67, 0
1, 17951, Note_on_c, 2, 62, 90
1, 17951, Note_on_c, 9, 42, 110
1, 17952, Note_on_c, 9, 42, 0
1, 17952, Note_on_c, 2, 71, 0
1, 17952, Note_on_c, 0, 74, 81
1, 17952, Note_on_c, 1, 31, 100
1, 17952, Note_on_c, 9, 60, 77
1, 17952, Note_on_c, 9, 39, 110
1, 17952, Note_on_c, 0, 71, 81
1, 17952, Note_on_c, 0, 67, 79
1, 17952, Note_on_c, 1, 43, 112
1, 17952, Note_on_c, 9, 40, 110
1, 17952, Note_on_c, 9, 36, 110
1, 17953, Note_on_c, 9, 36, 0
1, 17953, Note_on_c, 9, 40, 0
1, 17953, Note_on_c, 9, 39, 0
1, 17953, Note_on_c, 9, 60, 0
1, 17953, Note_on_c, 2, 71, 104
1, 17953, Note_on_c, 0, 66, 87
1, 17953, Note_on_c, 2, 67, 96
1, 17960, Note_on_c, 2, 62, 0
1, 17965, Note_on_c, 2, 71, 0
1, 17966, Note_on_c, 2, 67, 0
1, 18001, Note_on_c, 9, 42, 42
1, 18002, Note_on_c, 9, 42, 0
1, 18012, Note_on_c, 0, 66, 0
1, 18018, Note_on_c, 0, 67, 0
1, 18019, Note_on_c, 0, 71, 0
1, 18020, Note_on_c, 0, 74, 0
1, 18029, Note_on_c, 1, 31, 0
1, 18031, Note_on_c, 1, 43, 0
1, 18047, Note_on_c, 3, 66, 58
1, 18047, Lyric_t, "set "
1, 18048, Note_on_c, 4, 71, 0
1, 18048, Note_on_c, 4, 66, 17
1, 18048, Note_on_c, 9, 42, 96
1, 18048, Note_on_c, 2, 68, 97
1, 18048, Note_on_c, 9, 36, 110
1, 18048, Note_on_c, 2, 72, 100
1, 18049, Note_on_c, 9, 36, 0
1, 18049, Note_on_c, 9, 42, 0
1, 18049, Note_on_c, 0, 69, 75
1, 18049, Note_on_c, 0, 76, 83
1, 18049, Note_on_c, 1, 30, 97
1, 18049, Note_on_c, 0, 73, 71
1, 18049, Note_on_c, 1, 42, 99
1, 18073, Note_on_c, 2, 72, 0
1, 18073, Note_on_c, 2, 73, 62
1, 18074, Note_on_c, 2, 69, 78
1, 18075, Note_on_c, 2, 68, 0
1, 18094, Note_on_c, 3, 66, 0
1, 18095, Note_on_c, 9, 42, 37
1, 18095, Note_on_c, 3, 69, 63
1, 18095, Lyric_t, "in "
1, 18096, Note_on_c, 9, 42, 0
1, 18096, Note_on_c, 4, 66, 0
1, 18096, Note_on_c, 4, 69, 21
1, 18120, Note_on_c, 2, 73, 0
1, 18122, Note_on_c, 2, 73, 94
1, 18137, Note_on_c, 2, 69, 0
1, 18141, Note_on_c, 2, 73, 0
1, 18142, Note_on_c, 3, 69, 0
1, 18142, Note_on_c, 2, 69, 56
1, 18142, Note_on_c, 2, 73, 56
1, 18143, Note_on_c, 3, 73, 92
1, 18143, Lyric_t, "your "
1, 18143, Note_on_c, 9, 42, 110
1, 18144, Note_on_c, 9, 42, 0
1, 18144, Note_on_c, 4, 69, 0
1, 18144, Note_on_c, 9, 39, 110
1, 18144, Note_on_c, 9, 60, 77
1, 18144, Note_on_c, 9, 40, 95
1, 18144, Note_on_c, 4, 73, 32
1, 18145, Note_on_c, 9, 40, 0
1, 18145, Note_on_c, 9, 60, 0
1, 18145, Note_on_c, 9, 39, 0
1, 18149, Note_on_c, 0, 76, 0
1, 18152, Note_on_c, 0, 73, 0
1, 18152, Note_on_c, 2, 73, 0
1, 18152, Note_on_c, 2, 69, 0
1, 18152, Note_on_c, 0, 69, 0
1, 18156, Note_on_c, 1, 30, 0
1, 18159, Note_on_c, 1, 42, 0
1, 18191, Note_on_c, 3, 73, 0
1, 18191, Note_on_c, 0, 78, 73
1, 18191, Lyric_t, ""
1, 18191, Lyric_t, "\015"
1, 18191, Lyric_t, "shoes, "
1, 18191, Note_on_c, 0, 69, 78
1, 18191, Note_on_c, 0, 74, 82
1, 18191, Note_on_c, 3, 71, 80
1, 18192, Note_on_c, 4, 73, 0
1, 18192, Note_on_c, 2, 62, 82
1, 18192, Note_on_c, 9, 42, 44
1, 18192, Note_on_c, 1, 35, 98
1, 18192, Note_on_c, 1, 47, 110
1, 18192, Note_on_c, 9, 36, 91
1, 18192, Note_on_c, 2, 66, 100
1, 18192, Note_on_c, 4, 71, 23
1, 18193, Note_on_c, 9, 36, 0
1, 18193, Note_on_c, 9, 42, 0
1, 18194, Note_on_c, 2, 71, 103
1, 18239, Note_on_c, 9, 42, 95
1, 18240, Note_on_c, 9, 42, 0
1, 18240, Note_on_c, 2, 62, 0
1, 18240, Note_on_c, 9, 36, 110
1, 18241, Note_on_c, 9, 36, 0
1, 18243, Note_on_c, 2, 66, 0
1, 18243, Note_on_c, 2, 71, 0
1, 18266, Note_on_c, 0, 74, 0
1, 18266, Note_on_c, 0, 78, 0
1, 18278, Note_on_c, 0, 69, 0
1, 18280, Note_on_c, 1, 47, 0
1, 18286, Note_on_c, 1, 35, 0
1, 18286, Note_on_c, 3, 71, 0
1, 18287, Note_on_c, 1, 33, 100
1, 18287, Note_on_c, 1, 45, 97
1, 18287, Note_on_c, 9, 42, 39
1, 18287, Note_on_c, 2, 64, 97
1, 18288, Note_on_c, 9, 42, 0
1, 18288, Note_on_c, 4, 71, 0
1, 18288, Note_on_c, 4, 69, 13
1, 18289, Note_on_c, 0, 69, 66
1, 18289, Note_on_c, 0, 73, 75
1, 18289, Note_on_c, 3, 69, 57
1, 18289, Note_on_c, 0, 76, 68
1, 18289, Lyric_t, "so "
1, 18300, Note_on_c, 0, 76, 0
1, 18301, Note_on_c, 0, 69, 0
1, 18303, Note_on_c, 1, 45, 0
1, 18304, Note_on_c, 1, 33, 0
1, 18304, Note_on_c, 0, 73, 0
1, 18333, Note_on_c, 3, 69, 0
1, 18335, Note_on_c, 2, 64, 0
1, 18335, Lyric_t, "stand "
1, 18335, Note_on_c, 9, 42, 110
1, 18335, Note_on_c, 1, 35, 97
1, 18335, Note_on_c, 3, 74, 90
1, 18336, Note_on_c, 9, 42, 0
1, 18336, Note_on_c, 4, 69, 0
1, 18336, Note_on_c, 9, 60, 77
1, 18336, Note_on_c, 9, 40, 110
1, 18336, Note_on_c, 9, 36, 110
1, 18336, Note_on_c, 2, 66, 62
1, 18336, Note_on_c, 9, 39, 110
1, 18336, Note_on_c, 4, 74, 30
1, 18336, Note_on_c, 1, 47, 120
1, 18337, Note_on_c, 9, 39, 0
1, 18337, Note_on_c, 9, 40, 0
1, 18337, Note_on_c, 9, 60, 0
1, 18337, Note_on_c, 9, 36, 0
1, 18337, Note_on_c, 0, 78, 71
1, 18337, Note_on_c, 0, 74, 91
1, 18337, Note_on_c, 0, 69, 84
1, 18384, Note_on_c, 2, 69, 91
1, 18385, Note_on_c, 9, 42, 42
1, 18386, Note_on_c, 9, 42, 0
1, 18386, Note_on_c, 2, 66, 0
1, 18390, Note_on_c, 3, 74, 0
1, 18395, Note_on_c, 0, 78, 0
1, 18401, Note_on_c, 2, 69, 0
1, 18401, Note_on_c, 0, 74, 0
1, 18404, Note_on_c, 0, 69, 0
1, 18422, Note_on_c, 1, 35, 0
1, 18422, Note_on_c, 1, 47, 0
1, 18432, Note_on_c, 4, 74, 0
1, 18432, Note_on_c, 4, 71, 23
1, 18432, Note_on_c, 0, 66, 96
1, 18432, Note_on_c, 1, 28, 104
1, 18432, Note_on_c, 9, 36, 110
1, 18432, Lyric_t, "up, "
1, 18432, Note_on_c, 9, 42, 96
1, 18432, Note_on_c, 3, 71, 57
1, 18433, Note_on_c, 9, 42, 0
1, 18433, Note_on_c, 9, 36, 0
1, 18433, Note_on_c, 0, 74, 82
1, 18433, Note_on_c, 9, 43, 86
1, 18433, Note_on_c, 0, 67, 81
1, 18433, Note_on_c, 1, 40, 110
1, 18433, Note_on_c, 0, 71, 81
1, 18434, Note_on_c, 9, 43, 0
1, 18479, Note_on_c, 2, 62, 30
1, 18479, Note_on_c, 9, 42, 37
1, 18480, Note_on_c, 9, 42, 0
1, 18481, Note_on_c, 2, 67, 83
1, 18482, Note_on_c, 2, 71, 81
1, 18486, Note_on_c, 3, 71, 0
1, 18503, Note_on_c, 2, 71, 0
1, 18505, Note_on_c, 2, 71, 80
1, 18523, Note_on_c, 2, 67, 0
1, 18525, Note_on_c, 2, 71, 0
1, 18526, Note_on_c, 2, 67, 81
1, 18527, Note_on_c, 4, 71, 0
1, 18527, Note_on_c, 2, 71, 102
1, 18527, Note_on_c, 9, 42, 110
1, 18528, Note_on_c, 9, 42, 0
1, 18528, Note_on_c, 4, 78, 32
1, 18528, Note_on_c, 4, 69, 25
1, 18528, Note_on_c, 4, 64, 25
1, 18528, Note_on_c, 9, 40, 95
1, 18528, Note_on_c, 9, 39, 110
1, 18528, Note_on_c, 4, 74, 35
1, 18528, Note_on_c, 9, 60, 77
1, 18529, Note_on_c, 9, 60, 0
1, 18529, Note_on_c, 9, 39, 0
1, 18529, Note_on_c, 9, 40, 0
1, 18529, Lyric_t, "all "
1, 18529, Note_on_c, 3, 74, 87
1, 18530, Note_on_c, 2, 62, 0
1, 18538, Note_on_c, 2, 71, 0
1, 18539, Note_on_c, 2, 67, 0
1, 18544, Note_on_c, 1, 28, 0
1, 18546, Note_on_c, 0, 66, 0
1, 18548, Note_on_c, 1, 40, 0
1, 18551, Note_on_c, 0, 71, 0
1, 18552, Note_on_c, 0, 74, 0
1, 18553, Note_on_c, 0, 67, 0
1, 18575, Note_on_c, 1, 31, 114
1, 18575, Note_on_c, 1, 43, 100
1, 18575, Note_on_c, 2, 62, 43
1, 18575, Note_on_c, 0, 74, 76
1, 18575, Note_on_c, 0, 67, 69
1, 18575, Note_on_c, 0, 71, 78
1, 18575, Note_on_c, 0, 66, 78
1, 18576, Note_on_c, 9, 42, 44
1, 18576, Note_on_c, 9, 36, 91
1, 18577, Note_on_c, 9, 36, 0
1, 18577, Note_on_c, 9, 42, 0
1, 18577, Note_on_c, 2, 67, 99
1, 18578, Note_on_c, 2, 71, 103
1, 18584, Note_on_c, 0, 74, 0
1, 18584, Note_on_c, 0, 67, 0
1, 18586, Note_on_c, 0, 71, 0
1, 18587, Note_on_c, 2, 62, 0
1, 18587, Note_on_c, 0, 66, 0
1, 18592, Note_on_c, 2, 71, 0
1, 18593, Note_on_c, 1, 43, 0
1, 18593, Note_on_c, 1, 31, 0
1, 18594, Note_on_c, 2, 67, 0
1, 18618, Note_on_c, 3, 74, 0
1, 18623, Note_on_c, 9, 42, 95
1, 18623, Note_on_c, 0, 74, 83
1, 18623, Note_on_c, 0, 66, 87
1, 18623, Note_on_c, 0, 67, 82
1, 18623, Note_on_c, 0, 71, 81
1, 18624, Note_on_c, 9, 42, 0
1, 18624, Note_on_c, 4, 64, 0
1, 18624, Note_on_c, 4, 69, 0
1, 18624, Note_on_c, 4, 74, 0
1, 18624, Note_on_c, 4, 78, 0
1, 18624, Note_on_c, 4, 71, 16
1, 18624, Note_on_c, 9, 36, 110
1, 18624, Note_on_c, 4, 59, 16
1, 18624, Note_on_c, 4, 66, 16
1, 18624, Note_on_c, 1, 33, 112
1, 18624, Note_on_c, 3, 71, 58
1, 18624, Note_on_c, 1, 45, 117
1, 18624, Note_on_c, 4, 76, 16
1, 18624, Lyric_t, "right, "
1, 18625, Note_on_c, 9, 36, 0
1, 18671, Note_on_c, 9, 42, 39
1, 18672, Note_on_c, 9, 42, 0
1, 18674, Note_on_c, 2, 67, 79
1, 18675, Note_on_c, 2, 71, 79
1, 18678, Note_on_c, 3, 71, 0
1, 18693, Note_on_c, 2, 71, 0
1, 18697, Note_on_c, 2, 71, 62
1, 18701, Note_on_c, 0, 71, 0
1, 18701, Note_on_c, 0, 74, 0
1, 18702, Note_on_c, 0, 66, 0
1, 18702, Note_on_c, 0, 67, 0
1, 18704, Note_on_c, 1, 33, 0
1, 18710, Note_on_c, 1, 45, 0
1, 18719, Note_on_c, 2, 67, 0
1, 18719, Note_on_c, 2, 71, 0
1, 18719, Note_on_c, 9, 42, 110
1, 18720, Note_on_c, 9, 42, 0
1, 18720, Note_on_c, 0, 67, 79
1, 18720, Note_on_c, 0, 74, 81
1, 18720, Note_on_c, 9, 60, 77
1, 18720, Note_on_c, 9, 36, 110
1, 18720, Note_on_c, 1, 31, 100
1, 18720, Note_on_c, 9, 39, 110
1, 18720, Note_on_c, 0, 71, 81
1, 18720, Note_on_c, 9, 40, 110
1, 18720, Note_on_c, 2, 67, 99
1, 18720, Note_on_c, 1, 43, 112
1, 18720, Note_on_c, 2, 71, 104
1, 18721, Note_on_c, 9, 40, 0
1, 18721, Note_on_c, 9, 36, 0
1, 18721, Note_on_c, 9, 60, 0
1, 18721, Note_on_c, 9, 39, 0
1, 18721, Note_on_c, 0, 66, 87
1, 18734, Note_on_c, 2, 71, 0
1, 18738, Note_on_c, 2, 67, 0
1, 18744, Note_on_c, 4, 76, 0
1, 18744, Note_on_c, 4, 71, 0
1, 18744, Note_on_c, 4, 59, 0
1, 18744, Note_on_c, 4, 66, 0
1, 18769, Note_on_c, 9, 42, 42
1, 18770, Note_on_c, 9, 42, 0
1, 18780, Note_on_c, 0, 66, 0
1, 18786, Note_on_c, 0, 67, 0
1, 18787, Note_on_c, 0, 71, 0
1, 18788, Note_on_c, 0, 74, 0
1, 18797, Note_on_c, 1, 31, 0
1, 18799, Note_on_c, 1, 43, 0
1, 18815, Note_on_c, 2, 63, 43
1, 18816, Note_on_c, 9, 42, 96
1, 18816, Note_on_c, 9, 36, 110
1, 18816, Note_on_c, 2, 68, 96
1, 18816, Note_on_c, 4, 73, 39
1, 18817, Note_on_c, 9, 36, 0
1, 18817, Note_on_c, 9, 42, 0
1, 18817, Note_on_c, 0, 73, 71
1, 18817, Note_on_c, 0, 76, 83
1, 18817, Note_on_c, 0, 69, 75
1, 18817, Note_on_c, 3, 73, 100
1, 18817, Note_on_c, 1, 30, 97
1, 18817, Note_on_c, 2, 72, 101
1, 18817, Note_on_c, 1, 42, 99
1, 18817, Lyric_t, "all "
1, 18832, Note_on_c, 2, 72, 0
1, 18836, Note_on_c, 2, 68, 0
1, 18836, Note_on_c, 2, 73, 87
1, 18838, Note_on_c, 2, 69, 83
1, 18841, Note_on_c, 2, 63, 0
1, 18841, Note_on_c, 2, 64, 57
1, 18863, Note_on_c, 3, 73, 0
1, 18863, Note_on_c, 3, 69, 66
1, 18863, Note_on_c, 9, 42, 37
1, 18864, Note_on_c, 9, 42, 0
1, 18864, Note_on_c, 4, 73, 0
1, 18864, Note_on_c, 4, 69, 20
1, 18889, Note_on_c, 2, 73, 0
1, 18889, Note_on_c, 2, 69, 0
1, 18890, Note_on_c, 2, 69, 74
1, 18890, Note_on_c, 2, 73, 96
1, 18903, Note_on_c, 2, 64, 0
1, 18908, Note_on_c, 2, 69, 0
1, 18911, Note_on_c, 9, 42, 110
1, 18912, Note_on_c, 9, 42, 0
1, 18912, Note_on_c, 4, 69, 0
1, 18912, Note_on_c, 9, 60, 77
1, 18912, Note_on_c, 3, 66, 38
1, 18912, Note_on_c, 9, 40, 95
1, 18912, Note_on_c, 2, 64, 87
1, 18912, Note_on_c, 2, 69, 87
1, 18912, Note_on_c, 9, 39, 110
1, 18912, Note_on_c, 4, 66, 16
1, 18913, Note_on_c, 9, 39, 0
1, 18913, Note_on_c, 9, 60, 0
1, 18913, Note_on_c, 3, 69, 0
1, 18913, Note_on_c, 9, 40, 0
1, 18916, Note_on_c, 2, 73, 0
1, 18917, Note_on_c, 0, 76, 0
1, 18920, Note_on_c, 0, 69, 0
1, 18920, Note_on_c, 0, 73, 0
1, 18923, Note_on_c, 2, 64, 0
1, 18923, Note_on_c, 2, 69, 0
1, 18924, Note_on_c, 1, 30, 0
1, 18927, Note_on_c, 1, 42, 0
1, 18958, Note_on_c, 3, 66, 0
1, 18959, Note_on_c, 0, 69, 78
1, 18959, Note_on_c, 3, 71, 80
1, 18959, Lyric_t, ""
1, 18959, Lyric_t, "\015"
1, 18959, Note_on_c, 0, 74, 82
1, 18959, Note_on_c, 2, 66, 99
1, 18959, Note_on_c, 2, 62, 78
1, 18959, Note_on_c, 0, 78, 73
1, 18959, Lyric_t, "right. "
1, 18960, Note_on_c, 4, 66, 0
1, 18960, Note_on_c, 2, 71, 103
1, 18960, Note_on_c, 1, 35, 98
1, 18960, Note_on_c, 9, 42, 44
1, 18960, Note_on_c, 4, 71, 30
1, 18960, Note_on_c, 9, 36, 91
1, 18960, Note_on_c, 1, 47, 110
1, 18961, Note_on_c, 9, 36, 0
1, 18961, Note_on_c, 9, 42, 0
1, 19001, Note_on_c, 2, 71, 0
1, 19004, Note_on_c, 2, 66, 0
1, 19006, Note_on_c, 2, 62, 0
1, 19007, Note_on_c, 9, 42, 95
1, 19008, Note_on_c, 9, 42, 0
1, 19008, Note_on_c, 9, 36, 110
1, 19009, Note_on_c, 9, 36, 0
1, 19034, Note_on_c, 0, 78, 0
1, 19034, Note_on_c, 0, 74, 0
1, 19046, Note_on_c, 0, 69, 0
1, 19048, Note_on_c, 1, 47, 0
1, 19054, Note_on_c, 1, 35, 0
1, 19054, Note_on_c, 2, 64, 92
1, 19055, Note_on_c, 9, 46, 87
1, 19055, Note_on_c, 1, 45, 97
1, 19055, Note_on_c, 1, 33, 100
1, 19056, Note_on_c, 9, 46, 0
1, 19057, Note_on_c, 0, 69, 66
1, 19057, Note_on_c, 0, 76, 68
1, 19057, Note_on_c, 0, 73, 75
1, 19068, Note_on_c, 0, 76, 0
1, 19069, Note_on_c, 0, 69, 0
1, 19071, Note_on_c, 1, 45, 0
1, 19071, Lyric_t, ""
1, 19071, Lyric_t, "\015"
1, 19072, Note_on_c, 0, 73, 0
1, 19072, Note_on_c, 1, 33, 0
1, 19103, Note_on_c, 1, 35, 97
1, 19103, Note_on_c, 9, 42, 110
1, 19104, Note_on_c, 9, 42, 0
1, 19104, Note_on_c, 2, 64, 0
1, 19104, Note_on_c, 9, 40, 110
1, 19104, Note_on_c, 9, 36, 110
1, 19104, Note_on_c, 9, 60, 77
1, 19104, Note_on_c, 1, 47, 120
1, 19104, Note_on_c, 9, 39, 110
1, 19105, Note_on_c, 9, 39, 0
1, 19105, Note_on_c, 9, 60, 0
1, 19105, Note_on_c, 9, 40, 0
1, 19105, Note_on_c, 9, 36, 0
1, 19105, Note_on_c, 2, 66, 82
1, 19105, Note_on_c, 0, 69, 84
1, 19105, Note_on_c, 0, 78, 71
1, 19105, Note_on_c, 0, 74, 91
1, 19108, Note_on_c, 3, 71, 0
1, 19147, Note_on_c, 2, 66, 0
1, 19151, Note_on_c, 2, 69, 98
1, 19152, Note_on_c, 9, 40, 28
1, 19153, Note_on_c, 9, 40, 0
1, 19153, Note_on_c, 9, 42, 42
1, 19154, Note_on_c, 9, 42, 0
1, 19163, Note_on_c, 0, 78, 0
1, 19165, Note_on_c, 2, 69, 0
1, 19169, Note_on_c, 0, 74, 0
1, 19172, Note_on_c, 0, 69, 0
1, 19176, Note_on_c, 9, 40, 104
1, 19177, Note_on_c, 9, 40, 0
1, 19190, Note_on_c, 1, 35, 0
1, 19190, Note_on_c, 1, 47, 0
1, 19200, Note_on_c, 4, 71, 0
1, 19200, Note_on_c, 9, 43, 89
1, 19200, Note_on_c, 9, 42, 64
1, 19200, Note_on_c, 1, 28, 104
1, 19200, Note_on_c, 0, 74, 85
1, 19200, Note_on_c, 9, 36, 110
1, 19201, Note_on_c, 9, 36, 0
1, 19201, Note_on_c, 9, 43, 0
1, 19201, Note_on_c, 9, 42, 0
1, 19201, Note_on_c, 0, 62, 104
1, 19201, Note_on_c, 1, 40, 110
1, 19201, Note_on_c, 0, 71, 77
1, 19201, Note_on_c, 0, 55, 94
1, 19201, Note_on_c, 0, 59, 101
1, 19201, Note_on_c, 0, 67, 75
1, 19247, Note_on_c, 9, 42, 37
1, 19248, Note_on_c, 9, 42, 0
1, 19249, Note_on_c, 8, 57, 91
1, 19268, Note_on_c, 8, 57, 0
1, 19271, Note_on_c, 8, 57, 103
1, 19288, Note_on_c, 8, 57, 0
1, 19294, Note_on_c, 8, 57, 104
1, 19295, Note_on_c, 4, 62, 48
1, 19295, Note_on_c, 9, 42, 110
1, 19295, Lyric_t, "Let "
1, 19295, Note_on_c, 3, 74, 91
1, 19296, Note_on_c, 9, 42, 0
1, 19296, Note_on_c, 9, 60, 77
1, 19296, Note_on_c, 9, 40, 95
1, 19296, Note_on_c, 9, 39, 110
1, 19297, Note_on_c, 9, 39, 0
1, 19297, Note_on_c, 9, 40, 0
1, 19297, Note_on_c, 9, 60, 0
1, 19312, Note_on_c, 1, 28, 0
1, 19312, Note_on_c, 8, 57, 0
1, 19316, Note_on_c, 1, 40, 0
1, 19342, Note_on_c, 4, 62, 0
1, 19342, Note_on_c, 3, 74, 0
1, 19343, Note_on_c, 8, 55, 103
1, 19343, Note_on_c, 1, 31, 114
1, 19343, Note_on_c, 1, 43, 100
1, 19343, Note_on_c, 4, 62, 47
1, 19343, Note_on_c, 3, 74, 90
1, 19343, Lyric_t, "me "
1, 19344, Note_on_c, 9, 42, 44
1, 19344, Note_on_c, 9, 36, 91
1, 19345, Note_on_c, 9, 36, 0
1, 19345, Note_on_c, 9, 42, 0
1, 19360, Note_on_c, 8, 55, 0
1, 19361, Note_on_c, 1, 43, 0
1, 19361, Note_on_c, 1, 31, 0
1, 19391, Note_on_c, 3, 74, 0
1, 19391, Note_on_c, 9, 42, 95
1, 19391, Note_on_c, 8, 54, 114
1, 19392, Note_on_c, 9, 42, 0
1, 19392, Note_on_c, 4, 62, 0
1, 19392, Lyric_t, "tell "
1, 19392, Note_on_c, 4, 59, 31
1, 19392, Note_on_c, 3, 71, 74
1, 19392, Note_on_c, 9, 36, 110
1, 19392, Note_on_c, 1, 33, 112
1, 19392, Note_on_c, 1, 45, 117
1, 19393, Note_on_c, 9, 36, 0
1, 19432, Note_on_c, 8, 54, 0
1, 19439, Note_on_c, 3, 71, 0
1, 19439, Note_on_c, 9, 42, 39
1, 19440, Note_on_c, 9, 42, 0
1, 19440, Note_on_c, 4, 59, 0
1, 19440, Note_on_c, 0, 67, 0
1, 19440, Note_on_c, 0, 66, 118
1, 19440, Note_on_c, 8, 54, 110
1, 19441, Lyric_t, "you "
1, 19441, Note_on_c, 4, 59, 30
1, 19441, Note_on_c, 3, 71, 73
1, 19445, Note_on_c, 8, 54, 0
1, 19464, Note_on_c, 0, 59, 0
1, 19464, Note_on_c, 8, 54, 110
1, 19469, Note_on_c, 8, 54, 0
1, 19472, Note_on_c, 1, 33, 0
1, 19478, Note_on_c, 1, 45, 0
1, 19487, Note_on_c, 9, 42, 110
1, 19487, Note_on_c, 8, 53, 114
1, 19488, Note_on_c, 9, 42, 0
1, 19488, Note_on_c, 3, 71, 0
1, 19488, Note_on_c, 0, 59, 103
1, 19488, Note_on_c, 1, 31, 100
1, 19488, Note_on_c, 9, 36, 110
1, 19488, Note_on_c, 9, 40, 110
1, 19488, Note_on_c, 1, 43, 112
1, 19488, Note_on_c, 9, 60, 77
1, 19488, Note_on_c, 9, 39, 110
1, 19489, Note_on_c, 9, 39, 0
1, 19489, Note_on_c, 9, 36, 0
1, 19489, Note_on_c, 9, 60, 0
1, 19489, Note_on_c, 9, 40, 0
1, 19504, Note_on_c, 0, 66, 0
1, 19507, Note_on_c, 8, 53, 0
1, 19507, Note_on_c, 8, 54, 91
1, 19536, Note_on_c, 8, 54, 0
1, 19536, Note_on_c, 8, 57, 93
1, 19537, Note_on_c, 9, 42, 42
1, 19538, Note_on_c, 9, 42, 0
1, 19553, Note_on_c, 8, 57, 0
1, 19556, Note_on_c, 0, 59, 0
1, 19565, Note_on_c, 1, 31, 0
1, 19567, Note_on_c, 1, 43, 0
1, 19583, Note_on_c, 0, 74, 0
1, 19583, Note_on_c, 4, 59, 0
1, 19583, Note_on_c, 3, 66, 72
1, 19583, Lyric_t, "what "
1, 19583, Note_on_c, 4, 54, 29
1, 19584, Note_on_c, 0, 55, 0
1, 19584, Note_on_c, 0, 62, 0
1, 19584, Note_on_c, 0, 71, 0
1, 19584, Note_on_c, 0, 69, 74
1, 19584, Note_on_c, 0, 76, 79
1, 19584, Note_on_c, 0, 64, 98
1, 19584, Note_on_c, 0, 73, 78
1, 19584, Note_on_c, 9, 42, 96
1, 19584, Note_on_c, 9, 36, 110
1, 19585, Note_on_c, 9, 36, 0
1, 19585, Note_on_c, 9, 42, 0
1, 19585, Note_on_c, 1, 42, 99
1, 19585, Note_on_c, 0, 61, 99
1, 19585, Note_on_c, 0, 57, 87
1, 19585, Note_on_c, 1, 30, 97
1, 19587, Note_on_c, 8, 53, 100
1, 19606, Note_on_c, 8, 54, 98
1, 19608, Note_on_c, 8, 53, 0
1, 19631, Note_on_c, 4, 54, 0
1, 19631, Note_on_c, 3, 66, 0
1, 19631, Note_on_c, 3, 69, 73
1, 19631, Note_on_c, 4, 57, 30
1, 19631, Lyric_t, "you "
1, 19631, Note_on_c, 9, 42, 37
1, 19632, Note_on_c, 9, 42, 0
1, 19632, Note_on_c, 8, 57, 82
1, 19634, Note_on_c, 8, 54, 0
1, 19650, Note_on_c, 8, 57, 0
1, 19679, Note_on_c, 4, 57, 0
1, 19679, Note_on_c, 3, 69, 0
1, 19679, Note_on_c, 4, 61, 27
1, 19679, Lyric_t, "can "
1, 19679, Note_on_c, 3, 73, 70
1, 19679, Note_on_c, 9, 42, 110
1, 19680, Note_on_c, 9, 42, 0
1, 19680, Note_on_c, 9, 40, 95
1, 19680, Note_on_c, 9, 60, 77
1, 19680, Note_on_c, 9, 39, 110
1, 19681, Note_on_c, 9, 39, 0
1, 19681, Note_on_c, 9, 60, 0
1, 19681, Note_on_c, 9, 40, 0
1, 19692, Note_on_c, 1, 30, 0
1, 19695, Note_on_c, 1, 42, 0
1, 19702, Note_on_c, 0, 57, 0
1, 19704, Note_on_c, 0, 61, 0
1, 19704, Note_on_c, 0, 64, 0
1, 19711, Note_on_c, 0, 69, 0
1, 19727, Note_on_c, 0, 76, 0
1, 19727, Note_on_c, 4, 61, 0
1, 19727, Note_on_c, 0, 73, 0
1, 19727, Note_on_c, 3, 73, 0
1, 19727, Note_on_c, 0, 62, 112
1, 19727, Lyric_t, "do "
1, 19727, Lyric_t, ""
1, 19727, Lyric_t, "\015"
1, 19727, Note_on_c, 0, 57, 100
1, 19727, Note_on_c, 4, 59, 37
1, 19727, Note_on_c, 8, 57, 100
1, 19727, Note_on_c, 0, 66, 97
1, 19727, Note_on_c, 3, 71, 80
1, 19728, Note_on_c, 9, 36, 91
1, 19728, Note_on_c, 1, 47, 110
1, 19728, Note_on_c, 9, 42, 44
1, 19728, Note_on_c, 1, 35, 98
1, 19729, Note_on_c, 9, 42, 0
1, 19729, Note_on_c, 9, 36, 0
1, 19729, Note_on_c, 0, 74, 84
1, 19729, Note_on_c, 0, 78, 84
1, 19730, Note_on_c, 0, 69, 69
1, 19744, Note_on_c, 8, 57, 0
1, 19775, Note_on_c, 9, 42, 95
1, 19776, Note_on_c, 9, 42, 0
1, 19776, Note_on_c, 9, 36, 110
1, 19777, Note_on_c, 9, 36, 0
1, 19778, Note_on_c, 8, 53, 100
1, 19795, Note_on_c, 8, 53, 0
1, 19795, Note_on_c, 8, 54, 95
1, 19816, Note_on_c, 1, 47, 0
1, 19822, Note_on_c, 8, 54, 0
1, 19822, Note_on_c, 1, 35, 0
1, 19822, Note_on_c, 3, 71, 0
1, 19823, Note_on_c, 4, 59, 0
1, 19823, Note_on_c, 1, 45, 97
1, 19823, Note_on_c, 1, 33, 100
1, 19823, Lyric_t, "with "
1, 19823, Note_on_c, 4, 57, 28
1, 19823, Note_on_c, 3, 69, 71
1, 19823, Note_on_c, 9, 42, 39
1, 19824, Note_on_c, 9, 42, 0
1, 19824, Note_on_c, 8, 57, 92
1, 19839, Note_on_c, 1, 45, 0
1, 19840, Note_on_c, 1, 33, 0
1, 19841, Note_on_c, 8, 57, 0
1, 19854, Note_on_c, 0, 69, 0
1, 19860, Note_on_c, 0, 62, 0
1, 19864, Note_on_c, 0, 66, 0
1, 19870, Note_on_c, 8, 58, 104
1, 19871, Note_on_c, 4, 57, 0
1, 19871, Note_on_c, 3, 69, 0
1, 19871, Note_on_c, 1, 35, 97
1, 19871, Note_on_c, 3, 74, 87
1, 19871, Note_on_c, 4, 62, 44
1, 19871, Note_on_c, 9, 42, 110
1, 19871, Lyric_t, "my "
1, 19872, Note_on_c, 9, 42, 0
1, 19872, Note_on_c, 0, 74, 0
1, 19872, Note_on_c, 0, 78, 0
1, 19872, Note_on_c, 9, 39, 110
1, 19872, Note_on_c, 9, 60, 77
1, 19872, Note_on_c, 9, 36, 110
1, 19872, Note_on_c, 9, 40, 110
1, 19872, Note_on_c, 1, 47, 120
1, 19873, Note_on_c, 9, 40, 0
1, 19873, Note_on_c, 9, 36, 0
1, 19873, Note_on_c, 9, 60, 0
1, 19873, Note_on_c, 9, 39, 0
1, 19873, Note_on_c, 0, 61, 105
1, 19873, Note_on_c, 0, 76, 80
1, 19873, Note_on_c, 0, 64, 105
1, 19874, Note_on_c, 0, 73, 80
1, 19874, Note_on_c, 0, 69, 76
1, 19885, Note_on_c, 8, 58, 0
1, 19885, Note_on_c, 8, 59, 86
1, 19920, Note_on_c, 8, 62, 112
1, 19921, Note_on_c, 9, 42, 42
1, 19922, Note_on_c, 9, 42, 0
1, 19922, Note_on_c, 8, 59, 0
1, 19937, Note_on_c, 0, 73, 0
1, 19938, Note_on_c, 0, 76, 0
1, 19940, Note_on_c, 0, 69, 0
1, 19946, Note_on_c, 8, 62, 0
1, 19950, Note_on_c, 0, 61, 0
1, 19952, Note_on_c, 0, 64, 0
1, 19958, Note_on_c, 1, 35, 0
1, 19958, Note_on_c, 1, 47, 0
1, 19961, Note_on_c, 0, 57, 0
1, 19966, Note_on_c, 3, 74, 0
1, 19968, Note_on_c, 9, 42, 96
1, 19968, Note_on_c, 1, 28, 104
1, 19968, Note_on_c, 9, 36, 110
1, 19968, Note_on_c, 0, 67, 72
1, 19968, Note_on_c, 0, 74, 74
1, 19969, Note_on_c, 9, 36, 0
1, 19969, Note_on_c, 9, 42, 0
1, 19969, Note_on_c, 4, 62, 0
1, 19969, Note_on_c, 0, 59, 101
1, 19969, Note_on_c, 0, 62, 104
1, 19969, Note_on_c, 3, 71, 73
1, 19969, Note_on_c, 0, 71, 76
1, 19969, Note_on_c, 9, 43, 86
1, 19969, Lyric_t, "love, "
1, 19969, Note_on_c, 4, 59, 30
1, 19969, Note_on_c, 0, 55, 94
1, 19969, Note_on_c, 1, 40, 110
1, 19970, Note_on_c, 9, 43, 0
1, 20015, Note_on_c, 9, 42, 37
1, 20015, Note_on_c, 8, 57, 98
1, 20016, Note_on_c, 9, 42, 0
1, 20018, Note_on_c, 3, 71, 0
1, 20035, Note_on_c, 8, 57, 0
1, 20041, Note_on_c, 8, 57, 95
1, 20055, Note_on_c, 8, 57, 0
1, 20062, Note_on_c, 8, 57, 107
1, 20063, Note_on_c, 9, 42, 110
1, 20064, Note_on_c, 9, 42, 0
1, 20064, Note_on_c, 9, 40, 95
1, 20064, Note_on_c, 9, 60, 77
1, 20064, Note_on_c, 9, 39, 110
1, 20065, Note_on_c, 9, 39, 0
1, 20065, Note_on_c, 9, 60, 0
1, 20065, Note_on_c, 9, 40, 0
1, 20076, Note_on_c, 4, 59, 0
1, 20078, Note_on_c, 8, 57, 0
1, 20080, Note_on_c, 1, 28, 0
1, 20084, Note_on_c, 1, 40, 0
1, 20111, Note_on_c, 1, 43, 100
1, 20111, Note_on_c, 8, 55, 111
1, 20111, Note_on_c, 1, 31, 114
1, 20112, Note_on_c, 9, 36, 91
1, 20112, Note_on_c, 9, 42, 44
1, 20113, Note_on_c, 9, 42, 0
1, 20113, Note_on_c, 9, 36, 0
1, 20126, Note_on_c, 8, 55, 0
1, 20129, Note_on_c, 1, 43, 0
1, 20129, Note_on_c, 1, 31, 0
1, 20159, Note_on_c, 9, 42, 95
1, 20159, Note_on_c, 1, 45, 117
1, 20159, Note_on_c, 1, 33, 112
1, 20159, Note_on_c, 8, 54, 115
1, 20160, Note_on_c, 9, 42, 0
1, 20160, Note_on_c, 9, 36, 110
1, 20161, Note_on_c, 9, 36, 0
1, 20201, Note_on_c, 8, 54, 0
1, 20207, Note_on_c, 9, 42, 39
1, 20208, Note_on_c, 9, 42, 0
1, 20208, Note_on_c, 8, 54, 110
1, 20213, Note_on_c, 8, 54, 0
1, 20232, Note_on_c, 8, 54, 110
1, 20237, Note_on_c, 8, 54, 0
1, 20239, Note_on_c, 1, 33, 0
1, 20245, Note_on_c, 1, 45, 0
1, 20255, Note_on_c, 9, 42, 110
1, 20255, Note_on_c, 1, 43, 112
1, 20255, Note_on_c, 1, 31, 100
1, 20255, Note_on_c, 8, 53, 110
1, 20256, Note_on_c, 9, 42, 0
1, 20256, Note_on_c, 9, 39, 110
1, 20256, Note_on_c, 9, 40, 110
1, 20256, Note_on_c, 9, 36, 110
1, 20256, Note_on_c, 9, 60, 77
1, 20257, Note_on_c, 9, 60, 0
1, 20257, Note_on_c, 9, 39, 0
1, 20257, Note_on_c, 9, 36, 0
1, 20257, Note_on_c, 9, 40, 0
1, 20276, Note_on_c, 8, 53, 0
1, 20276, Note_on_c, 8, 54, 87
1, 20304, Note_on_c, 8, 57, 100
1, 20305, Note_on_c, 9, 42, 42
1, 20306, Note_on_c, 9, 42, 0
1, 20307, Note_on_c, 8, 54, 0
1, 20308, Note_on_c, 0, 67, 0
1, 20310, Note_on_c, 0, 71, 0
1, 20312, Note_on_c, 0, 74, 0
1, 20322, Note_on_c, 8, 57, 0
1, 20332, Note_on_c, 1, 31, 0
1, 20334, Note_on_c, 1, 43, 0
1, 20351, Note_on_c, 3, 73, 94
1, 20351, Note_on_c, 4, 61, 51
1, 20351, Note_on_c, 8, 53, 113
1, 20351, Lyric_t, "all "
1, 20352, Note_on_c, 0, 59, 0
1, 20352, Note_on_c, 0, 55, 0
1, 20352, Note_on_c, 0, 62, 0
1, 20352, Note_on_c, 0, 73, 77
1, 20352, Note_on_c, 0, 64, 98
1, 20352, Note_on_c, 0, 76, 82
1, 20352, Note_on_c, 9, 36, 110
1, 20352, Note_on_c, 0, 69, 72
1, 20352, Note_on_c, 9, 42, 96
1, 20353, Note_on_c, 9, 42, 0
1, 20353, Note_on_c, 9, 36, 0
1, 20353, Note_on_c, 0, 61, 99
1, 20353, Note_on_c, 0, 57, 87
1, 20353, Note_on_c, 1, 30, 97
1, 20353, Note_on_c, 1, 42, 99
1, 20371, Note_on_c, 8, 53, 0
1, 20371, Note_on_c, 8, 54, 84
1, 20399, Note_on_c, 9, 42, 37
1, 20400, Note_on_c, 9, 42, 0
1, 20400, Note_on_c, 8, 57, 103
1, 20401, Note_on_c, 3, 73, 0
1, 20401, Note_on_c, 4, 61, 0
1, 20401, Note_on_c, 3, 69, 64
1, 20401, Note_on_c, 4, 57, 21
1, 20403, Note_on_c, 8, 54, 0
1, 20418, Note_on_c, 8, 57, 0
1, 20447, Note_on_c, 4, 57, 0
1, 20447, Note_on_c, 3, 66, 55
1, 20447, Note_on_c, 9, 42, 110
1, 20447, Note_on_c, 4, 54, 12
1, 20448, Note_on_c, 9, 42, 0
1, 20448, Note_on_c, 9, 39, 110
1, 20448, Note_on_c, 9, 60, 77
1, 20448, Note_on_c, 9, 40, 95
1, 20449, Note_on_c, 9, 40, 0
1, 20449, Note_on_c, 9, 60, 0
1, 20449, Note_on_c, 9, 39, 0
1, 20450, Note_on_c, 3, 69, 0
1, 20460, Note_on_c, 1, 30, 0
1, 20463, Note_on_c, 1, 42, 0
1, 20470, Note_on_c, 0, 57, 0
1, 20472, Note_on_c, 0, 61, 0
1, 20472, Note_on_c, 0, 64, 0
1, 20474, Note_on_c, 0, 69, 0
1, 20494, Note_on_c, 8, 57, 113
1, 20495, Note_on_c, 0, 76, 0
1, 20495, Note_on_c, 0, 73, 0
1, 20495, Note_on_c, 4, 54, 0
1, 20495, Note_on_c, 0, 57, 100
1, 20495, Lyric_t, "right. "
1, 20495, Note_on_c, 0, 66, 97
1, 20495, Note_on_c, 4, 59, 35
1, 20495, Note_on_c, 3, 71, 78
1, 20495, Lyric_t, ""
1, 20495, Lyric_t, "\015"
1, 20495, Note_on_c, 0, 62, 112
1, 20496, Note_on_c, 3, 66, 0
1, 20496, Note_on_c, 1, 35, 98
1, 20496, Note_on_c, 9, 42, 44
1, 20496, Note_on_c, 9, 36, 91
1, 20496, Note_on_c, 1, 47, 110
1, 20497, Note_on_c, 9, 36, 0
1, 20497, Note_on_c, 9, 42, 0
1, 20497, Note_on_c, 0, 78, 81
1, 20497, Note_on_c, 0, 74, 87
1, 20497, Note_on_c, 0, 69, 71
1, 20517, Note_on_c, 8, 57, 0
1, 20542, Note_on_c, 8, 53, 115
1, 20543, Note_on_c, 9, 42, 95
1, 20544, Note_on_c, 9, 42, 0
1, 20544, Note_on_c, 9, 36, 110
1, 20545, Note_on_c, 9, 36, 0
1, 20563, Note_on_c, 8, 53, 0
1, 20563, Note_on_c, 8, 54, 88
1, 20584, Note_on_c, 1, 47, 0
1, 20590, Note_on_c, 1, 35, 0
1, 20591, Note_on_c, 8, 54, 0
1, 20591, Note_on_c, 1, 33, 100
1, 20591, Note_on_c, 1, 45, 97
1, 20591, Note_on_c, 8, 57, 95
1, 20591, Note_on_c, 9, 42, 39
1, 20592, Note_on_c, 9, 42, 0
1, 20592, Lyric_t, ""
1, 20592, Lyric_t, "\015"
1, 20607, Note_on_c, 1, 45, 0
1, 20607, Note_on_c, 8, 57, 0
1, 20608, Note_on_c, 1, 33, 0
1, 20615, Note_on_c, 0, 69, 0
1, 20628, Note_on_c, 0, 62, 0
1, 20632, Note_on_c, 0, 66, 0
1, 20639, Note_on_c, 1, 35, 97
1, 20639, Note_on_c, 0, 76, 79
1, 20639, Note_on_c, 0, 73, 77
1, 20639, Note_on_c, 0, 69, 76
1, 20639, Note_on_c, 9, 42, 110
1, 20639, Note_on_c, 8, 59, 88
1, 20640, Note_on_c, 9, 42, 0
1, 20640, Note_on_c, 0, 78, 0
1, 20640, Note_on_c, 0, 74, 0
1, 20640, Note_on_c, 9, 39, 110
1, 20640, Note_on_c, 9, 40, 110
1, 20640, Note_on_c, 1, 47, 120
1, 20640, Note_on_c, 9, 36, 110
1, 20640, Note_on_c, 9, 60, 77
1, 20641, Note_on_c, 9, 60, 0
1, 20641, Note_on_c, 9, 39, 0
1, 20641, Note_on_c, 9, 36, 0
1, 20641, Note_on_c, 9, 40, 0
1, 20641, Note_on_c, 0, 64, 105
1, 20641, Note_on_c, 0, 61, 105
1, 20683, Note_on_c, 8, 59, 0
1, 20686, Note_on_c, 3, 71, 0
1, 20687, Note_on_c, 8, 62, 113
1, 20689, Note_on_c, 9, 42, 42
1, 20690, Note_on_c, 9, 42, 0
1, 20713, Note_on_c, 8, 62, 0
1, 20718, Note_on_c, 0, 61, 0
1, 20720, Note_on_c, 0, 64, 0
1, 20726, Note_on_c, 1, 35, 0
1, 20726, Note_on_c, 1, 47, 0
1, 20727, Note_on_c, 0, 73, 0
1, 20728, Note_on_c, 0, 69, 0
1, 20729, Note_on_c, 0, 57, 0
1, 20736, Note_on_c, 0, 76, 0
1, 20736, Note_on_c, 9, 36, 110
1, 20736, Note_on_c, 1, 28, 104
1, 20736, Note_on_c, 9, 42, 96
1, 20736, Note_on_c, 0, 74, 85
1, 20737, Note_on_c, 9, 42, 0
1, 20737, Note_on_c, 9, 36, 0
1, 20737, Note_on_c, 0, 55, 94
1, 20737, Note_on_c, 9, 43, 84
1, 20737, Note_on_c, 0, 59, 101
1, 20737, Note_on_c, 1, 40, 110
1, 20737, Note_on_c, 0, 71, 77
1, 20737, Note_on_c, 0, 62, 104
1, 20737, Note_on_c, 0, 67, 75
1, 20738, Note_on_c, 9, 43, 0
1, 20748, Note_on_c, 4, 59, 0
1, 20783, Note_on_c, 9, 42, 37
1, 20784, Note_on_c, 9, 42, 0
1, 20784, Note_on_c, 8, 57, 90
1, 20785, Lyric_t, "Gon"
1, 20785, Note_on_c, 3, 78, 108
1, 20785, Note_on_c, 4, 66, 65
1, 20799, Note_on_c, 8, 57, 0
1, 20806, Note_on_c, 3, 78, 0
1, 20807, Note_on_c, 8, 57, 100
1, 20809, Note_on_c, 4, 66, 0
1, 20809, Lyric_t, "na "
1, 20809, Note_on_c, 4, 64, 35
1, 20809, Note_on_c, 3, 76, 78
1, 20824, Note_on_c, 8, 57, 0
1, 20830, Note_on_c, 8, 57, 113
1, 20831, Note_on_c, 3, 76, 0
1, 20831, Note_on_c, 9, 42, 110
1, 20832, Note_on_c, 9, 42, 0
1, 20832, Note_on_c, 9, 39, 110
1, 20832, Note_on_c, 9, 40, 95
1, 20832, Note_on_c, 9, 60, 77
1, 20833, Note_on_c, 9, 60, 0
1, 20833, Note_on_c, 4, 64, 0
1, 20833, Note_on_c, 9, 40, 0
1, 20833, Note_on_c, 9, 39, 0
1, 20833, Lyric_t, "let "
1, 20833, Note_on_c, 4, 62, 37
1, 20833, Note_on_c, 3, 74, 80
1, 20848, Note_on_c, 1, 28, 0
1, 20849, Note_on_c, 8, 57, 0
1, 20852, Note_on_c, 1, 40, 0
1, 20878, Note_on_c, 3, 74, 0
1, 20879, Note_on_c, 1, 31, 114
1, 20879, Note_on_c, 8, 55, 109
1, 20879, Note_on_c, 1, 43, 100
1, 20880, Note_on_c, 9, 36, 91
1, 20880, Note_on_c, 9, 42, 44
1, 20881, Note_on_c, 9, 42, 0
1, 20881, Note_on_c, 4, 62, 0
1, 20881, Note_on_c, 9, 36, 0
1, 20881, Note_on_c, 4, 64, 45
1, 20881, Note_on_c, 3, 76, 88
1, 20881, Lyric_t, "you "
1, 20897, Note_on_c, 1, 31, 0
1, 20897, Note_on_c, 1, 43, 0
1, 20897, Note_on_c, 8, 55, 0
1, 20906, Note_on_c, 3, 76, 0
1, 20927, Note_on_c, 9, 42, 95
1, 20927, Note_on_c, 8, 54, 117
1, 20928, Note_on_c, 9, 42, 0
1, 20928, Note_on_c, 1, 45, 117
1, 20928, Note_on_c, 1, 33, 112
1, 20928, Note_on_c, 9, 36, 110
1, 20929, Note_on_c, 9, 36, 0
1, 20929, Note_on_c, 4, 64, 0
1, 20929, Lyric_t, "know, "
1, 20929, Note_on_c, 4, 66, 49
1, 20929, Note_on_c, 3, 78, 92
1, 20974, Note_on_c, 8, 54, 0
1, 20975, Note_on_c, 9, 42, 39
1, 20976, Note_on_c, 9, 42, 0
1, 21000, Note_on_c, 8, 54, 110
1, 21005, Note_on_c, 8, 54, 0
1, 21008, Note_on_c, 1, 33, 0
1, 21014, Note_on_c, 1, 45, 0
1, 21022, Note_on_c, 8, 53, 98
1, 21023, Note_on_c, 4, 66, 0
1, 21023, Note_on_c, 9, 42, 110
1, 21023, Note_on_c, 4, 62, 52
1, 21023, Note_on_c, 3, 74, 95
1, 21023, Lyric_t, "girl, "
1, 21024, Note_on_c, 9, 42, 0
1, 21024, Note_on_c, 3, 78, 0
1, 21024, Note_on_c, 9, 39, 110
1, 21024, Note_on_c, 1, 31, 100
1, 21024, Note_on_c, 9, 60, 77
1, 21024, Note_on_c, 9, 36, 110
1, 21024, Note_on_c, 1, 43, 112
1, 21024, Note_on_c, 9, 40, 110
1, 21025, Note_on_c, 9, 40, 0
1, 21025, Note_on_c, 9, 36, 0
1, 21025, Note_on_c, 9, 39, 0
1, 21025, Note_on_c, 9, 60, 0
1, 21042, Note_on_c, 8, 53, 0
1, 21042, Note_on_c, 8, 54, 82
1, 21070, Note_on_c, 8, 54, 0
1, 21072, Note_on_c, 8, 57, 103
1, 21073, Note_on_c, 9, 42, 42
1, 21074, Note_on_c, 9, 42, 0
1, 21078, Note_on_c, 0, 71, 0
1, 21080, Note_on_c, 0, 67, 0
1, 21084, Note_on_c, 0, 74, 0
1, 21091, Note_on_c, 8, 57, 0
1, 21096, Note_on_c, 3, 74, 0
1, 21101, Note_on_c, 1, 31, 0
1, 21103, Note_on_c, 1, 43, 0
1, 21120, Note_on_c, 4, 62, 0
1, 21120, Note_on_c, 0, 59, 0
1, 21120, Note_on_c, 0, 62, 0
1, 21120, Note_on_c, 0, 55, 0
1, 21120, Note_on_c, 0, 64, 98
1, 21120, Note_on_c, 3, 66, 71
1, 21120, Note_on_c, 4, 54, 28
1, 21120, Note_on_c, 0, 69, 74
1, 21120, Note_on_c, 0, 73, 78
1, 21120, Lyric_t, "you're "
1, 21120, Note_on_c, 8, 53, 114
1, 21120, Note_on_c, 9, 36, 110
1, 21120, Note_on_c, 0, 76, 79
1, 21120, Note_on_c, 9, 42, 96
1, 21121, Note_on_c, 9, 42, 0
1, 21121, Note_on_c, 9, 36, 0
1, 21121, Note_on_c, 0, 57, 87
1, 21121, Note_on_c, 1, 30, 97
1, 21121, Note_on_c, 0, 61, 99
1, 21121, Note_on_c, 1, 42, 99
1, 21140, Note_on_c, 8, 53, 0
1, 21140, Note_on_c, 8, 54, 88
1, 21167, Note_on_c, 3, 66, 0
1, 21167, Note_on_c, 9, 42, 37
1, 21168, Note_on_c, 9, 42, 0
1, 21168, Note_on_c, 4, 54, 0
1, 21168, Note_on_c, 3, 69, 71
1, 21168, Note_on_c, 4, 57, 28
1, 21168, Note_on_c, 8, 57, 96
1, 21168, Lyric_t, "look"
1, 21172, Note_on_c, 8, 54, 0
1, 21186, Note_on_c, 8, 57, 0
1, 21215, Note_on_c, 4, 57, 0
1, 21215, Note_on_c, 3, 69, 0
1, 21215, Lyric_t, "ing "
1, 21215, Note_on_c, 3, 73, 60
1, 21215, Note_on_c, 9, 42, 110
1, 21215, Note_on_c, 4, 61, 17
1, 21216, Note_on_c, 9, 42, 0
1, 21216, Note_on_c, 9, 39, 110
1, 21216, Note_on_c, 9, 60, 77
1, 21216, Note_on_c, 9, 40, 95
1, 21217, Note_on_c, 9, 40, 0
1, 21217, Note_on_c, 9, 60, 0
1, 21217, Note_on_c, 9, 39, 0
1, 21228, Note_on_c, 1, 30, 0
1, 21231, Note_on_c, 1, 42, 0
1, 21238, Note_on_c, 0, 57, 0
1, 21240, Note_on_c, 0, 64, 0
1, 21240, Note_on_c, 0, 61, 0
1, 21247, Note_on_c, 0, 69, 0
1, 21263, Note_on_c, 4, 61, 0
1, 21263, Note_on_c, 3, 73, 0
1, 21263, Note_on_c, 0, 76, 0
1, 21263, Note_on_c, 0, 73, 0
1, 21263, Lyric_t, "good. "
1, 21263, Lyric_t, ""
1, 21263, Lyric_t, "\015"
1, 21263, Note_on_c, 0, 66, 97
1, 21263, Note_on_c, 4, 59, 33
1, 21263, Note_on_c, 3, 71, 76
1, 21263, Note_on_c, 0, 62, 112
1, 21263, Note_on_c, 0, 57, 100
1, 21264, Note_on_c, 1, 47, 110
1, 21264, Note_on_c, 9, 36, 91
1, 21264, Note_on_c, 8, 57, 101
1, 21264, Note_on_c, 1, 35, 98
1, 21264, Note_on_c, 9, 42, 44
1, 21265, Note_on_c, 9, 42, 0
1, 21265, Note_on_c, 9, 36, 0
1, 21265, Note_on_c, 0, 74, 84
1, 21265, Note_on_c, 0, 78, 84
1, 21266, Note_on_c, 0, 69, 69
1, 21283, Note_on_c, 8, 57, 0
1, 21288, Note_on_c, 8, 54, 110
1, 21293, Note_on_c, 8, 54, 0
1, 21310, Note_on_c, 8, 52, 107
1, 21311, Note_on_c, 9, 42, 95
1, 21312, Note_on_c, 9, 42, 0
1, 21312, Note_on_c, 9, 36, 110
1, 21313, Note_on_c, 9, 36, 0
1, 21318, Note_on_c, 8, 52, 0
1, 21318, Note_on_c, 8, 53, 107
1, 21330, Note_on_c, 8, 53, 0
1, 21331, Note_on_c, 8, 54, 103
1, 21352, Note_on_c, 1, 47, 0
1, 21358, Note_on_c, 1, 35, 0
1, 21358, Note_on_c, 3, 71, 0
1, 21359, Note_on_c, 4, 59, 0
1, 21359, Note_on_c, 9, 42, 39
1, 21359, Note_on_c, 8, 57, 97
1, 21359, Note_on_c, 1, 33, 100
1, 21359, Note_on_c, 3, 69, 59
1, 21359, Note_on_c, 1, 45, 97
1, 21359, Lyric_t, "You're "
1, 21359, Note_on_c, 4, 57, 16
1, 21360, Note_on_c, 9, 42, 0
1, 21362, Note_on_c, 8, 54, 0
1, 21374, Note_on_c, 8, 57, 0
1, 21375, Note_on_c, 1, 45, 0
1, 21376, Note_on_c, 1, 33, 0
1, 21390, Note_on_c, 0, 69, 0
1, 21396, Note_on_c, 0, 62, 0
1, 21400, Note_on_c, 0, 66, 0
1, 21406, Note_on_c, 3, 69, 0
1, 21407, Note_on_c, 4, 57, 0
1, 21407, Note_on_c, 8, 58, 97
1, 21407, Note_on_c, 3, 74, 84
1, 21407, Note_on_c, 1, 35, 97
1, 21407, Lyric_t, "out "
1, 21407, Note_on_c, 4, 62, 41
1, 21407, Note_on_c, 9, 42, 110
1, 21408, Note_on_c, 9, 42, 0
1, 21408, Note_on_c, 0, 74, 0
1, 21408, Note_on_c, 0, 78, 0
1, 21408, Note_on_c, 9, 40, 110
1, 21408, Note_on_c, 1, 47, 120
1, 21408, Note_on_c, 9, 36, 110
1, 21408, Note_on_c, 9, 39, 110
1, 21408, Note_on_c, 9, 60, 77
1, 21409, Note_on_c, 9, 60, 0
1, 21409, Note_on_c, 9, 39, 0
1, 21409, Note_on_c, 9, 40, 0
1, 21409, Note_on_c, 9, 36, 0
1, 21409, Note_on_c, 0, 64, 105
1, 21409, Note_on_c, 0, 61, 105
1, 21409, Note_on_c, 0, 76, 80
1, 21410, Note_on_c, 0, 69, 76
1, 21410, Note_on_c, 0, 73, 80
1, 21416, Note_on_c, 8, 58, 0
1, 21416, Note_on_c, 8, 59, 83
1, 21454, Note_on_c, 3, 74, 0
1, 21454, Note_on_c, 4, 62, 0
1, 21455, Note_on_c, 3, 74, 91
1, 21455, Note_on_c, 4, 62, 48
1, 21455, Note_on_c, 8, 62, 114
1, 21455, Lyric_t, "of "
1, 21457, Note_on_c, 9, 42, 42
1, 21458, Note_on_c, 9, 42, 0
1, 21458, Note_on_c, 8, 59, 0
1, 21473, Note_on_c, 0, 73, 0
1, 21474, Note_on_c, 0, 76, 0
1, 21476, Note_on_c, 0, 69, 0
1, 21480, Note_on_c, 8, 62, 0
1, 21486, Note_on_c, 0, 61, 0
1, 21488, Note_on_c, 0, 64, 0
1, 21494, Note_on_c, 1, 35, 0
1, 21494, Note_on_c, 1, 47, 0
1, 21497, Note_on_c, 0, 57, 0
1, 21503, Note_on_c, 3, 74, 0
1, 21504, Note_on_c, 4, 62, 0
1, 21504, Note_on_c, 9, 36, 110
1, 21504, Note_on_c, 0, 67, 72
1, 21504, Note_on_c, 9, 42, 96
1, 21504, Note_on_c, 0, 74, 74
1, 21504, Note_on_c, 1, 28, 104
1, 21504, Note_on_c, 3, 71, 79
1, 21504, Lyric_t, "sight, "
1, 21504, Note_on_c, 4, 59, 36
1, 21505, Note_on_c, 9, 42, 0
1, 21505, Note_on_c, 9, 36, 0
1, 21505, Note_on_c, 0, 62, 104
1, 21505, Note_on_c, 1, 40, 110
1, 21505, Note_on_c, 0, 59, 101
1, 21505, Note_on_c, 9, 43, 86
1, 21505, Note_on_c, 0, 55, 94
1, 21505, Note_on_c, 0, 71, 76
1, 21506, Note_on_c, 9, 43, 0
1, 21551, Note_on_c, 9, 42, 37
1, 21552, Note_on_c, 9, 42, 0
1, 21553, Note_on_c, 8, 57, 93
1, 21575, Note_on_c, 8, 57, 0
1, 21578, Note_on_c, 8, 57, 91
1, 21595, Note_on_c, 8, 57, 0
1, 21599, Note_on_c, 3, 71, 0
1, 21599, Note_on_c, 9, 42, 110
1, 21599, Note_on_c, 8, 57, 110
1, 21600, Note_on_c, 9, 42, 0
1, 21600, Note_on_c, 9, 40, 95
1, 21600, Note_on_c, 9, 39, 110
1, 21600, Note_on_c, 9, 60, 77
1, 21601, Note_on_c, 9, 60, 0
1, 21601, Note_on_c, 9, 39, 0
1, 21601, Note_on_c, 9, 40, 0
1, 21616, Note_on_c, 1, 28, 0
1, 21619, Note_on_c, 8, 57, 0
1, 21620, Note_on_c, 1, 40, 0
1, 21647, Note_on_c, 1, 31, 114
1, 21647, Note_on_c, 1, 43, 100
1, 21648, Note_on_c, 9, 36, 91
1, 21648, Note_on_c, 9, 42, 44
1, 21649, Note_on_c, 9, 42, 0
1, 21649, Note_on_c, 9, 36, 0
1, 21649, Note_on_c, 8, 55, 112
1, 21652, Note_on_c, 4, 59, 0
1, 21665, Note_on_c, 1, 31, 0
1, 21665, Note_on_c, 1, 43, 0
1, 21666, Note_on_c, 8, 55, 0
1, 21695, Note_on_c, 9, 42, 95
1, 21696, Note_on_c, 9, 42, 0
1, 21696, Note_on_c, 1, 33, 112
1, 21696, Note_on_c, 9, 36, 110
1, 21696, Note_on_c, 1, 45, 117
1, 21697, Note_on_c, 9, 36, 0
1, 21697, Note_on_c, 8, 54, 115
1, 21719, Note_on_c, 0, 74, 0
1, 21743, Note_on_c, 8, 54, 0
1, 21743, Note_on_c, 9, 42, 39
1, 21744, Note_on_c, 9, 42, 0
1, 21744, Note_on_c, 0, 71, 0
1, 21744, Note_on_c, 8, 54, 110
1, 21747, Note_on_c, 0, 74, 114
1, 21749, Note_on_c, 8, 54, 0
1, 21768, Note_on_c, 8, 54, 110
1, 21773, Note_on_c, 8, 54, 0
1, 21776, Note_on_c, 1, 33, 0
1, 21782, Note_on_c, 1, 45, 0
1, 21791, Note_on_c, 9, 42, 110
1, 21792, Note_on_c, 9, 42, 0
1, 21792, Note_on_c, 9, 36, 110
1, 21792, Note_on_c, 9, 40, 110
1, 21792, Note_on_c, 8, 53, 109
1, 21792, Note_on_c, 9, 60, 77
1, 21792, Note_on_c, 1, 31, 100
1, 21792, Note_on_c, 1, 43, 112
1, 21792, Note_on_c, 9, 39, 110
1, 21793, Note_on_c, 9, 39, 0
1, 21793, Note_on_c, 9, 40, 0
1, 21793, Note_on_c, 9, 60, 0
1, 21793, Note_on_c, 9, 36, 0
1, 21808, Note_on_c, 8, 53, 0
1, 21808, Note_on_c, 8, 54, 90
1, 21830, Note_on_c, 0, 71, 89
1, 21835, Note_on_c, 8, 54, 0
1, 21840, Note_on_c, 8, 57, 95
1, 21841, Note_on_c, 9, 42, 42
1, 21842, Note_on_c, 9, 42, 0
1, 21844, Note_on_c, 0, 67, 0
1, 21861, Note_on_c, 8, 57, 0
1, 21869, Note_on_c, 1, 31, 0
1, 21871, Note_on_c, 1, 43, 0
1, 21887, Note_on_c, 0, 71, 0
1, 21887, Note_on_c, 3, 73, 92
1, 21887, Lyric_t, "all "
1, 21887, Note_on_c, 4, 61, 49
1, 21888, Note_on_c, 0, 59, 0
1, 21888, Note_on_c, 0, 74, 0
1, 21888, Note_on_c, 0, 62, 0
1, 21888, Note_on_c, 0, 55, 0
1, 21888, Note_on_c, 0, 76, 82
1, 21888, Note_on_c, 9, 36, 110
1, 21888, Note_on_c, 0, 69, 72
1, 21888, Note_on_c, 8, 53, 109
1, 21888, Note_on_c, 0, 64, 98
1, 21888, Note_on_c, 9, 42, 96
1, 21888, Note_on_c, 0, 73, 77
1, 21889, Note_on_c, 9, 42, 0
1, 21889, Note_on_c, 9, 36, 0
1, 21889, Note_on_c, 0, 61, 99
1, 21889, Note_on_c, 1, 30, 97
1, 21889, Note_on_c, 1, 42, 99
1, 21889, Note_on_c, 0, 57, 87
1, 21903, Note_on_c, 8, 53, 0
1, 21903, Note_on_c, 8, 54, 109
1, 21931, Note_on_c, 8, 54, 0
1, 21935, Note_on_c, 4, 61, 0
1, 21935, Note_on_c, 9, 42, 37
1, 21935, Note_on_c, 4, 57, 22
1, 21935, Note_on_c, 3, 69, 65
1, 21936, Note_on_c, 9, 42, 0
1, 21937, Note_on_c, 8, 57, 91
1, 21938, Note_on_c, 3, 73, 0
1, 21951, Note_on_c, 8, 57, 0
1, 21983, Note_on_c, 4, 57, 0
1, 21983, Note_on_c, 9, 42, 110
1, 21983, Note_on_c, 4, 54, 8
1, 21983, Note_on_c, 3, 66, 51
1, 21984, Note_on_c, 9, 42, 0
1, 21984, Note_on_c, 3, 69, 0
1, 21984, Note_on_c, 9, 39, 110
1, 21984, Note_on_c, 9, 40, 95
1, 21984, Note_on_c, 9, 60, 77
1, 21985, Note_on_c, 9, 60, 0
1, 21985, Note_on_c, 9, 40, 0
1, 21985, Note_on_c, 9, 39, 0
1, 21996, Note_on_c, 1, 30, 0
1, 21999, Note_on_c, 1, 42, 0
1, 22006, Note_on_c, 0, 57, 0
1, 22008, Note_on_c, 0, 61, 0
1, 22008, Note_on_c, 0, 64, 0
1, 22008, Note_on_c, 8, 54, 110
1, 22010, Note_on_c, 0, 69, 0
1, 22013, Note_on_c, 8, 54, 0
1, 22030, Note_on_c, 3, 66, 0
1, 22031, Note_on_c, 0, 73, 0
1, 22031, Note_on_c, 0, 76, 0
1, 22031, Note_on_c, 0, 66, 97
1, 22031, Note_on_c, 8, 57, 98
1, 22031, Note_on_c, 0, 57, 100
1, 22031, Note_on_c, 0, 62, 112
1, 22032, Note_on_c, 4, 54, 0
1, 22032, Note_on_c, 1, 47, 110
1, 22032, Note_on_c, 9, 36, 91
1, 22032, Note_on_c, 9, 42, 44
1, 22032, Note_on_c, 3, 71, 73
1, 22032, Lyric_t, ""
1, 22032, Lyric_t, "\015"
1, 22032, Note_on_c, 4, 59, 30
1, 22032, Lyric_t, "right. "
1, 22032, Note_on_c, 1, 35, 98
1, 22033, Note_on_c, 9, 42, 0
1, 22033, Note_on_c, 9, 36, 0
1, 22033, Note_on_c, 0, 69, 71
1, 22033, Note_on_c, 0, 74, 87
1, 22033, Note_on_c, 0, 78, 81
1, 22048, Note_on_c, 8, 57, 0
1, 22056, Note_on_c, 8, 54, 110
1, 22061, Note_on_c, 8, 54, 0
1, 22079, Note_on_c, 9, 42, 95
1, 22080, Note_on_c, 9, 42, 0
1, 22080, Note_on_c, 9, 36, 110
1, 22081, Note_on_c, 9, 36, 0
1, 22081, Lyric_t, ""
1, 22081, Lyric_t, "\015"
1, 22085, Note_on_c, 8, 53, 100
1, 22099, Note_on_c, 8, 53, 0
1, 22099, Note_on_c, 8, 54, 97
1, 22120, Note_on_c, 1, 47, 0
1, 22122, Note_on_c, 8, 54, 0
1, 22126, Note_on_c, 1, 35, 0
1, 22127, Note_on_c, 1, 45, 97
1, 22127, Note_on_c, 1, 33, 100
1, 22127, Note_on_c, 9, 46, 87
1, 22128, Note_on_c, 9, 46, 0
1, 22128, Note_on_c, 8, 57, 96
1, 22142, Note_on_c, 8, 57, 0
1, 22143, Note_on_c, 1, 45, 0
1, 22144, Note_on_c, 1, 33, 0
1, 22151, Note_on_c, 0, 69, 0
1, 22164, Note_on_c, 0, 62, 0
1, 22168, Note_on_c, 0, 66, 0
1, 22171, Note_on_c, 3, 71, 0
1, 22174, Note_on_c, 8, 58, 104
1, 22175, Note_on_c, 4, 59, 0
1, 22175, Note_on_c, 1, 35, 97
1, 22175, Note_on_c, 0, 69, 76
1, 22175, Note_on_c, 0, 76, 79
1, 22175, Note_on_c, 9, 42, 110
1, 22175, Note_on_c, 0, 73, 77
1, 22176, Note_on_c, 9, 42, 0
1, 22176, Note_on_c, 0, 74, 0
1, 22176, Note_on_c, 0, 78, 0
1, 22176, Note_on_c, 9, 60, 77
1, 22176, Note_on_c, 4, 59, 47
1, 22176, Note_on_c, 9, 39, 110
1, 22176, Note_on_c, 1, 47, 120
1, 22176, Note_on_c, 4, 64, 37
1, 22176, Note_on_c, 9, 36, 110
1, 22176, Note_on_c, 9, 40, 110
1, 22177, Note_on_c, 9, 40, 0
1, 22177, Note_on_c, 9, 60, 0
1, 22177, Note_on_c, 9, 36, 0
1, 22177, Note_on_c, 9, 39, 0
1, 22177, Note_on_c, 3, 71, 90
1, 22177, Note_on_c, 0, 64, 105
1, 22177, Lyric_t, "Just "
1, 22177, Note_on_c, 0, 61, 105
1, 22191, Note_on_c, 8, 58, 0
1, 22191, Note_on_c, 8, 59, 84
1, 22224, Note_on_c, 8, 62, 111
1, 22225, Note_on_c, 9, 42, 42
1, 22226, Note_on_c, 9, 42, 0
1, 22226, Note_on_c, 8, 59, 0
1, 22229, Note_on_c, 3, 71, 0
1, 22247, Note_on_c, 8, 62, 0
1, 22254, Note_on_c, 0, 61, 0
1, 22256, Note_on_c, 0, 64, 0
1, 22262, Note_on_c, 1, 47, 0
1, 22262, Note_on_c, 1, 35, 0
1, 22263, Note_on_c, 0, 73, 0
1, 22264, Note_on_c, 0, 69, 0
1, 22265, Note_on_c, 0, 57, 0
1, 22272, Note_on_c, 0, 76, 0
1, 22272, Note_on_c, 4, 59, 0
1, 22272, Note_on_c, 4, 64, 0
1, 22272, Note_on_c, 3, 74, 88
1, 22272, Note_on_c, 4, 62, 45
1, 22272, Note_on_c, 4, 66, 24
1, 22272, Lyric_t, "tell "
1, 22272, Note_on_c, 1, 28, 104
1, 22272, Note_on_c, 9, 49, 96
1, 22272, Note_on_c, 9, 43, 89
1, 22272, Note_on_c, 9, 36, 110
1, 22272, Note_on_c, 0, 74, 85
1, 22273, Note_on_c, 9, 36, 0
1, 22273, Note_on_c, 9, 43, 0
1, 22273, Note_on_c, 9, 49, 0
1, 22273, Note_on_c, 0, 59, 101
1, 22273, Note_on_c, 0, 67, 75
1, 22273, Note_on_c, 0, 71, 77
1, 22273, Note_on_c, 0, 55, 94
1, 22273, Note_on_c, 0, 62, 104
1, 22273, Note_on_c, 1, 40, 110
1, 22319, Note_on_c, 8, 57, 91
1, 22319, Note_on_c, 9, 42, 37
1, 22320, Note_on_c, 9, 42, 0
1, 22344, Note_on_c, 8, 57, 0
1, 22345, Note_on_c, 8, 57, 101
1, 22361, Note_on_c, 8, 57, 0
1, 22366, Note_on_c, 8, 57, 111
1, 22367, Note_on_c, 9, 42, 110
1, 22368, Note_on_c, 9, 42, 0
1, 22368, Note_on_c, 9, 39, 110
1, 22368, Note_on_c, 9, 40, 95
1, 22368, Note_on_c, 9, 60, 77
1, 22369, Note_on_c, 9, 60, 0
1, 22369, Note_on_c, 9, 40, 0
1, 22369, Note_on_c, 9, 39, 0
1, 22383, Note_on_c, 8, 57, 0
1, 22384, Note_on_c, 1, 28, 0
1, 22388, Note_on_c, 1, 40, 0
1, 22415, Note_on_c, 1, 43, 100
1, 22415, Note_on_c, 8, 55, 111
1, 22415, Note_on_c, 1, 31, 114
1, 22416, Note_on_c, 9, 36, 91
1, 22416, Note_on_c, 9, 42, 44
1, 22417, Note_on_c, 9, 42, 0
1, 22417, Note_on_c, 9, 36, 0
1, 22433, Note_on_c, 1, 43, 0
1, 22433, Note_on_c, 1, 31, 0
1, 22434, Note_on_c, 8, 55, 0
1, 22462, Note_on_c, 8, 54, 115
1, 22463, Note_on_c, 9, 42, 95
1, 22464, Note_on_c, 9, 42, 0
1, 22464, Note_on_c, 9, 36, 110
1, 22464, Note_on_c, 1, 45, 117
1, 22464, Note_on_c, 1, 33, 112
1, 22465, Note_on_c, 9, 36, 0
1, 22506, Note_on_c, 8, 54, 0
1, 22511, Note_on_c, 9, 42, 39
1, 22512, Note_on_c, 9, 42, 0
1, 22536, Note_on_c, 8, 54, 110
1, 22541, Note_on_c, 8, 54, 0
1, 22544, Note_on_c, 1, 33, 0
1, 22550, Note_on_c, 1, 45, 0
1, 22555, Note_on_c, 3, 74, 0
1, 22559, Note_on_c, 9, 42, 110
1, 22560, Note_on_c, 9, 42, 0
1, 22560, Note_on_c, 4, 66, 0
1, 22560, Note_on_c, 4, 62, 0
1, 22560, Note_on_c, 9, 36, 110
1, 22560, Note_on_c, 4, 59, 39
1, 22560, Note_on_c, 1, 43, 112
1, 22560, Note_on_c, 1, 31, 100
1, 22560, Note_on_c, 3, 71, 82
1, 22560, Note_on_c, 9, 40, 110
1, 22560, Note_on_c, 4, 64, 23
1, 22560, Note_on_c, 9, 39, 110
1, 22560, Note_on_c, 9, 60, 77
1, 22560, Lyric_t, "the "
1, 22561, Note_on_c, 9, 60, 0
1, 22561, Note_on_c, 9, 36, 0
1, 22561, Note_on_c, 9, 39, 0
1, 22561, Note_on_c, 9, 40, 0
1, 22566, Note_on_c, 8, 53, 100
1, 22579, Note_on_c, 8, 53, 0
1, 22579, Note_on_c, 8, 54, 95
1, 22606, Note_on_c, 8, 54, 0
1, 22608, Note_on_c, 8, 57, 101
1, 22609, Note_on_c, 9, 42, 42
1, 22610, Note_on_c, 9, 42, 0
1, 22614, Note_on_c, 0, 71, 0
1, 22616, Note_on_c, 0, 67, 0
1, 22620, Note_on_c, 0, 74, 0
1, 22628, Note_on_c, 8, 57, 0
1, 22631, Note_on_c, 3, 71, 0
1, 22637, Note_on_c, 1, 31, 0
1, 22639, Note_on_c, 1, 43, 0
1, 22655, Note_on_c, 4, 59, 0
1, 22655, Note_on_c, 4, 64, 0
1, 22655, Note_on_c, 3, 71, 90
1, 22655, Lyric_t, "D"
1, 22656, Note_on_c, 0, 55, 0
1, 22656, Note_on_c, 0, 62, 0
1, 22656, Note_on_c, 0, 59, 0
1, 22656, Note_on_c, 0, 76, 79
1, 22656, Note_on_c, 0, 69, 74
1, 22656, Note_on_c, 4, 64, 16
1, 22656, Note_on_c, 0, 73, 78
1, 22656, Note_on_c, 9, 42, 96
1, 22656, Note_on_c, 9, 36, 110
1, 22656, Note_on_c, 0, 64, 98
1, 22656, Note_on_c, 4, 59, 47
1, 22657, Note_on_c, 9, 36, 0
1, 22657, Note_on_c, 9, 42, 0
1, 22657, Note_on_c, 0, 61, 99
1, 22657, Note_on_c, 0, 57, 87
1, 22657, Note_on_c, 1, 30, 97
1, 22657, Note_on_c, 1, 42, 99
1, 22662, Note_on_c, 8, 53, 106
1, 22679, Note_on_c, 8, 53, 0
1, 22679, Note_on_c, 8, 54, 101
1, 22699, Note_on_c, 8, 54, 0
1, 22703, Note_on_c, 9, 42, 37
1, 22704, Note_on_c, 9, 42, 0
1, 22704, Note_on_c, 8, 57, 98
1, 22719, Note_on_c, 8, 57, 0
1, 22750, Note_on_c, 3, 71, 0
1, 22751, Note_on_c, 9, 42, 110
1, 22752, Note_on_c, 9, 42, 0
1, 22752, Note_on_c, 4, 59, 0
1, 22752, Note_on_c, 4, 64, 0
1, 22752, Lyric_t, "J "
1, 22752, Note_on_c, 4, 62, 36
1, 22752, Note_on_c, 3, 69, 76
1, 22752, Lyric_t, ""
1, 22752, Lyric_t, "\015"
1, 22752, Note_on_c, 4, 57, 33
1, 22752, Note_on_c, 9, 40, 95
1, 22752, Note_on_c, 9, 60, 77
1, 22752, Note_on_c, 9, 39, 110
1, 22753, Note_on_c, 9, 39, 0
1, 22753, Note_on_c, 9, 60, 0
1, 22753, Note_on_c, 9, 40, 0
1, 22764, Note_on_c, 1, 30, 0
1, 22767, Note_on_c, 1, 42, 0
1, 22774, Note_on_c, 0, 57, 0
1, 22776, Note_on_c, 0, 61, 0
1, 22776, Note_on_c, 0, 64, 0
1, 22783, Note_on_c, 0, 69, 0
1, 22799, Note_on_c, 0, 73, 0
1, 22799, Note_on_c, 0, 76, 0
1, 22799, Note_on_c, 0, 62, 112
1, 22799, Note_on_c, 0, 57, 100
1, 22799, Note_on_c, 0, 66, 97
1, 22800, Note_on_c, 4, 57, 0
1, 22800, Note_on_c, 4, 62, 0
1, 22800, Note_on_c, 4, 55, 26
1, 22800, Note_on_c, 9, 42, 44
1, 22800, Note_on_c, 8, 57, 109
1, 22800, Note_on_c, 4, 61, 25
1, 22800, Note_on_c, 1, 35, 98
1, 22800, Note_on_c, 3, 67, 69
1, 22800, Note_on_c, 9, 36, 91
1, 22800, Note_on_c, 1, 47, 110
1, 22801, Note_on_c, 9, 36, 0
1, 22801, Note_on_c, 9, 42, 0
1, 22801, Note_on_c, 0, 78, 84
1, 22801, Note_on_c, 0, 74, 84
1, 22802, Note_on_c, 3, 69, 0
1, 22802, Note_on_c, 0, 69, 69
1, 22819, Note_on_c, 8, 57, 0
1, 22824, Note_on_c, 8, 54, 110
1, 22829, Note_on_c, 8, 54, 0
1, 22847, Note_on_c, 9, 42, 95
1, 22848, Note_on_c, 9, 42, 0
1, 22848, Note_on_c, 4, 61, 0
1, 22848, Note_on_c, 4, 55, 0
1, 22848, Note_on_c, 9, 36, 110
1, 22848, Note_on_c, 4, 59, 16
1, 22848, Note_on_c, 3, 66, 58
1, 22848, Note_on_c, 4, 54, 15
1, 22849, Note_on_c, 9, 36, 0
1, 22850, Note_on_c, 3, 67, 0
1, 22854, Note_on_c, 8, 53, 95
1, 22870, Note_on_c, 8, 53, 0
1, 22870, Note_on_c, 8, 54, 89
1, 22888, Note_on_c, 1, 47, 0
1, 22892, Note_on_c, 8, 54, 0
1, 22894, Note_on_c, 1, 35, 0
1, 22895, Note_on_c, 1, 45, 97
1, 22895, Note_on_c, 1, 33, 100
1, 22895, Note_on_c, 9, 42, 39
1, 22896, Note_on_c, 9, 42, 0
1, 22896, Note_on_c, 8, 57, 88
1, 22911, Note_on_c, 1, 45, 0
1, 22912, Note_on_c, 1, 33, 0
1, 22912, Note_on_c, 8, 57, 0
1, 22919, Note_on_c, 3, 66, 0
1, 22926, Note_on_c, 0, 69, 0
1, 22932, Note_on_c, 0, 62, 0
1, 22936, Note_on_c, 0, 66, 0
1, 22943, Note_on_c, 4, 59, 0
1, 22943, Note_on_c, 1, 35, 97
1, 22943, Note_on_c, 9, 42, 110
1, 22944, Note_on_c, 9, 42, 0
1, 22944, Note_on_c, 4, 54, 0
1, 22944, Note_on_c, 0, 78, 0
1, 22944, Note_on_c, 0, 74, 0
1, 22944, Note_on_c, 9, 60, 77
1, 22944, Note_on_c, 9, 39, 110
1, 22944, Note_on_c, 1, 47, 120
1, 22944, Note_on_c, 3, 71, 93
1, 22944, Note_on_c, 9, 40, 110
1, 22944, Note_on_c, 8, 58, 98
1, 22944, Note_on_c, 9, 36, 110
1, 22944, Lyric_t, "to "
1, 22944, Note_on_c, 4, 59, 50
1, 22945, Note_on_c, 9, 36, 0
1, 22945, Note_on_c, 9, 40, 0
1, 22945, Note_on_c, 9, 60, 0
1, 22945, Note_on_c, 9, 39, 0
1, 22945, Note_on_c, 0, 64, 105
1, 22945, Note_on_c, 0, 76, 80
1, 22945, Note_on_c, 0, 61, 105
1, 22946, Note_on_c, 0, 73, 80
1, 22946, Note_on_c, 0, 69, 76
1, 22956, Note_on_c, 8, 58, 0
1, 22956, Note_on_c, 8, 59, 97
1, 22989, Note_on_c, 8, 59, 0
1, 22991, Note_on_c, 8, 62, 113
1, 22992, Note_on_c, 4, 59, 0
1, 22992, Note_on_c, 4, 57, 20
1, 22992, Note_on_c, 3, 69, 63
1, 22993, Note_on_c, 9, 42, 42
1, 22994, Note_on_c, 9, 42, 0
1, 22998, Note_on_c, 3, 71, 0
1, 23009, Note_on_c, 0, 73, 0
1, 23010, Note_on_c, 0, 76, 0
1, 23011, Note_on_c, 8, 62, 0
1, 23012, Note_on_c, 0, 69, 0
1, 23022, Note_on_c, 0, 61, 0
1, 23024, Note_on_c, 0, 64, 0
1, 23030, Note_on_c, 1, 47, 0
1, 23030, Note_on_c, 1, 35, 0
1, 23033, Note_on_c, 0, 57, 0
1, 23039, Note_on_c, 3, 69, 0
1, 23040, Note_on_c, 1, 28, 104
1, 23040, Note_on_c, 0, 74, 74
1, 23040, Note_on_c, 9, 42, 96
1, 23040, Note_on_c, 0, 67, 72
1, 23040, Note_on_c, 9, 36, 110
1, 23041, Note_on_c, 9, 36, 0
1, 23041, Note_on_c, 4, 57, 0
1, 23041, Note_on_c, 9, 42, 0
1, 23041, Note_on_c, 0, 62, 104
1, 23041, Lyric_t, "play "
1, 23041, Note_on_c, 0, 71, 76
1, 23041, Note_on_c, 1, 40, 110
1, 23041, Note_on_c, 0, 55, 94
1, 23041, Note_on_c, 4, 62, 35
1, 23041, Note_on_c, 9, 43, 86
1, 23041, Note_on_c, 0, 59, 101
1, 23041, Note_on_c, 3, 74, 78
1, 23042, Note_on_c, 9, 43, 0
1, 23087, Note_on_c, 9, 42, 37
1, 23087, Note_on_c, 8, 57, 86
1, 23088, Note_on_c, 9, 42, 0
1, 23109, Note_on_c, 8, 57, 0
1, 23111, Note_on_c, 8, 57, 96
1, 23130, Note_on_c, 8, 57, 0
1, 23135, Note_on_c, 9, 42, 110
1, 23135, Note_on_c, 8, 57, 88
1, 23136, Note_on_c, 9, 42, 0
1, 23136, Note_on_c, 9, 40, 95
1, 23136, Note_on_c, 9, 60, 77
1, 23136, Note_on_c, 9, 39, 110
1, 23137, Note_on_c, 9, 39, 0
1, 23137, Note_on_c, 9, 60, 0
1, 23137, Note_on_c, 9, 40, 0
1, 23152, Note_on_c, 8, 57, 0
1, 23152, Note_on_c, 1, 28, 0
1, 23156, Note_on_c, 1, 40, 0
1, 23183, Note_on_c, 1, 31, 114
1, 23183, Note_on_c, 8, 55, 104
1, 23183, Note_on_c, 1, 43, 100
1, 23184, Note_on_c, 9, 42, 44
1, 23184, Note_on_c, 9, 36, 91
1, 23185, Note_on_c, 9, 36, 0
1, 23185, Note_on_c, 9, 42, 0
1, 23200, Note_on_c, 8, 55, 0
1, 23201, Note_on_c, 1, 43, 0
1, 23201, Note_on_c, 1, 31, 0
1, 23231, Note_on_c, 8, 54, 111
1, 23231, Note_on_c, 9, 42, 95
1, 23232, Note_on_c, 9, 42, 0
1, 23232, Note_on_c, 1, 45, 117
1, 23232, Note_on_c, 1, 33, 112
1, 23232, Note_on_c, 9, 36, 110
1, 23233, Note_on_c, 9, 36, 0
1, 23256, Note_on_c, 0, 71, 0
1, 23269, Note_on_c, 8, 54, 0
1, 23279, Note_on_c, 0, 71, 96
1, 23279, Note_on_c, 9, 42, 39
1, 23280, Note_on_c, 9, 42, 0
1, 23280, Note_on_c, 8, 54, 110
1, 23285, Note_on_c, 8, 54, 0
1, 23304, Note_on_c, 8, 54, 110
1, 23309, Note_on_c, 8, 54, 0
1, 23312, Note_on_c, 1, 33, 0
1, 23318, Note_on_c, 1, 45, 0
1, 23324, Note_on_c, 3, 74, 0
1, 23325, Note_on_c, 8, 53, 101
1, 23327, Note_on_c, 0, 74, 0
1, 23327, Note_on_c, 4, 62, 0
1, 23327, Note_on_c, 9, 42, 110
1, 23327, Note_on_c, 3, 71, 80
1, 23327, Lyric_t, "your "
1, 23327, Note_on_c, 4, 59, 37
1, 23328, Note_on_c, 9, 42, 0
1, 23328, Note_on_c, 1, 31, 100
1, 23328, Note_on_c, 9, 39, 110
1, 23328, Note_on_c, 9, 60, 77
1, 23328, Note_on_c, 9, 40, 110
1, 23328, Note_on_c, 9, 36, 110
1, 23328, Note_on_c, 1, 43, 112
1, 23329, Note_on_c, 9, 36, 0
1, 23329, Note_on_c, 9, 39, 0
1, 23329, Note_on_c, 9, 40, 0
1, 23329, Note_on_c, 9, 60, 0
1, 23332, Note_on_c, 0, 74, 90
1, 23345, Note_on_c, 8, 53, 0
1, 23345, Note_on_c, 8, 54, 97
1, 23372, Note_on_c, 8, 54, 0
1, 23375, Note_on_c, 4, 59, 0
1, 23375, Note_on_c, 3, 69, 63
1, 23375, Note_on_c, 8, 57, 93
1, 23375, Note_on_c, 4, 57, 20
1, 23376, Note_on_c, 3, 71, 0
1, 23377, Note_on_c, 9, 42, 42
1, 23378, Note_on_c, 9, 42, 0
1, 23380, Note_on_c, 0, 67, 0
1, 23393, Note_on_c, 8, 57, 0
1, 23405, Note_on_c, 1, 31, 0
1, 23407, Note_on_c, 1, 43, 0
1, 23418, Note_on_c, 0, 74, 0
1, 23419, Note_on_c, 0, 71, 0
1, 23421, Note_on_c, 8, 53, 111
1, 23422, Note_on_c, 3, 69, 0
1, 23424, Note_on_c, 0, 59, 0
1, 23424, Note_on_c, 0, 55, 0
1, 23424, Note_on_c, 0, 62, 0
1, 23424, Note_on_c, 0, 69, 72
1, 23424, Note_on_c, 9, 36, 110
1, 23424, Note_on_c, 0, 73, 77
1, 23424, Note_on_c, 0, 64, 98
1, 23424, Note_on_c, 9, 42, 96
1, 23424, Note_on_c, 0, 76, 82
1, 23425, Note_on_c, 9, 42, 0
1, 23425, Note_on_c, 4, 57, 0
1, 23425, Note_on_c, 9, 36, 0
1, 23425, Note_on_c, 1, 30, 97
1, 23425, Note_on_c, 0, 61, 99
1, 23425, Note_on_c, 0, 57, 87
1, 23425, Lyric_t, "fa"
1, 23425, Note_on_c, 3, 78, 102
1, 23425, Note_on_c, 1, 42, 99
1, 23425, Note_on_c, 4, 66, 59
1, 23444, Note_on_c, 8, 53, 0
1, 23444, Note_on_c, 8, 54, 80
1, 23467, Note_on_c, 8, 54, 0
1, 23471, Note_on_c, 4, 66, 0
1, 23471, Note_on_c, 3, 78, 0
1, 23471, Note_on_c, 3, 74, 55
1, 23471, Note_on_c, 9, 42, 37
1, 23471, Note_on_c, 4, 62, 12
1, 23471, Note_on_c, 8, 57, 89
1, 23472, Note_on_c, 9, 42, 0
1, 23486, Note_on_c, 8, 57, 0
1, 23518, Note_on_c, 3, 74, 0
1, 23519, Note_on_c, 4, 62, 0
1, 23519, Note_on_c, 3, 76, 97
1, 23519, Note_on_c, 9, 42, 110
1, 23519, Lyric_t, "v'rite "
1, 23519, Note_on_c, 4, 64, 54
1, 23520, Note_on_c, 9, 42, 0
1, 23520, Note_on_c, 9, 40, 95
1, 23520, Note_on_c, 9, 60, 77
1, 23520, Note_on_c, 9, 39, 110
1, 23521, Note_on_c, 9, 39, 0
1, 23521, Note_on_c, 9, 60, 0
1, 23521, Note_on_c, 9, 40, 0
1, 23532, Note_on_c, 1, 30, 0
1, 23535, Note_on_c, 1, 42, 0
1, 23542, Note_on_c, 0, 57, 0
1, 23544, Note_on_c, 0, 64, 0
1, 23544, Note_on_c, 0, 61, 0
1, 23546, Note_on_c, 0, 69, 0
1, 23567, Note_on_c, 4, 64, 0
1, 23567, Note_on_c, 0, 73, 0
1, 23567, Note_on_c, 0, 76, 0
1, 23567, Note_on_c, 3, 76, 0
1, 23567, Note_on_c, 4, 59, 12
1, 23567, Note_on_c, 0, 62, 112
1, 23567, Note_on_c, 0, 66, 97
1, 23567, Note_on_c, 3, 71, 55
1, 23567, Note_on_c, 0, 57, 100
1, 23568, Note_on_c, 1, 35, 98
1, 23568, Note_on_c, 9, 36, 91
1, 23568, Note_on_c, 9, 42, 44
1, 23568, Note_on_c, 8, 57, 98
1, 23568, Note_on_c, 1, 47, 110
1, 23569, Note_on_c, 9, 42, 0
1, 23569, Note_on_c, 9, 36, 0
1, 23569, Note_on_c, 0, 69, 71
1, 23569, Note_on_c, 0, 74, 87
1, 23569, Note_on_c, 0, 78, 81
1, 23583, Note_on_c, 8, 57, 0
1, 23592, Note_on_c, 8, 54, 110
1, 23597, Note_on_c, 8, 54, 0
1, 23612, Note_on_c, 8, 52, 110
1, 23614, Note_on_c, 3, 71, 0
1, 23615, Note_on_c, 4, 59, 0
1, 23615, Note_on_c, 4, 62, 54
1, 23615, Lyric_t, "tune, "
1, 23615, Note_on_c, 3, 74, 97
1, 23615, Lyric_t, ""
1, 23615, Lyric_t, "\015"
1, 23615, Note_on_c, 9, 42, 95
1, 23616, Note_on_c, 9, 42, 0
1, 23616, Note_on_c, 9, 36, 110
1, 23617, Note_on_c, 9, 36, 0
1, 23621, Note_on_c, 8, 52, 0
1, 23621, Note_on_c, 8, 53, 106
1, 23637, Note_on_c, 8, 53, 0
1, 23637, Note_on_c, 8, 54, 105
1, 23656, Note_on_c, 8, 54, 0
1, 23656, Note_on_c, 1, 47, 0
1, 23662, Note_on_c, 1, 35, 0
1, 23663, Note_on_c, 1, 45, 97
1, 23663, Note_on_c, 9, 42, 39
1, 23663, Note_on_c, 1, 33, 100
1, 23664, Note_on_c, 9, 42, 0
1, 23664, Note_on_c, 8, 57, 80
1, 23664, Lyric_t, ""
1, 23664, Lyric_t, "\015"
1, 23678, Note_on_c, 8, 57, 0
1, 23679, Note_on_c, 1, 45, 0
1, 23680, Note_on_c, 1, 33, 0
1, 23687, Note_on_c, 0, 69, 0
1, 23700, Note_on_c, 0, 62, 0
1, 23704, Note_on_c, 0, 66, 0
1, 23709, Note_on_c, 8, 58, 97
1, 23711, Note_on_c, 0, 73, 77
1, 23711, Note_on_c, 0, 69, 76
1, 23711, Note_on_c, 0, 76, 79
1, 23711, Note_on_c, 1, 35, 97
1, 23711, Note_on_c, 9, 42, 110
1, 23712, Note_on_c, 9, 42, 0
1, 23712, Note_on_c, 0, 74, 0
1, 23712, Note_on_c, 0, 78, 0
1, 23712, Note_on_c, 9, 40, 110
1, 23712, Note_on_c, 1, 47, 120
1, 23712, Note_on_c, 9, 39, 110
1, 23712, Note_on_c, 9, 60, 77
1, 23712, Note_on_c, 9, 36, 110
1, 23713, Note_on_c, 9, 36, 0
1, 23713, Note_on_c, 9, 40, 0
1, 23713, Note_on_c, 9, 60, 0
1, 23713, Note_on_c, 9, 39, 0
1, 23713, Note_on_c, 0, 64, 105
1, 23713, Note_on_c, 0, 61, 105
1, 23725, Note_on_c, 8, 58, 0
1, 23725, Note_on_c, 8, 59, 82
1, 23754, Note_on_c, 4, 62, 0
1, 23757, Note_on_c, 8, 59, 0
1, 23758, Note_on_c, 8, 62, 107
1, 23760, Note_on_c, 3, 74, 0
1, 23760, Note_on_c, 4, 64, 42
1, 23760, Note_on_c, 4, 59, 40
1, 23761, Note_on_c, 9, 42, 42
1, 23761, Lyric_t, "then "
1, 23761, Note_on_c, 3, 71, 83
1, 23762, Note_on_c, 9, 42, 0
1, 23782, Note_on_c, 8, 62, 0
1, 23790, Note_on_c, 0, 61, 0
1, 23792, Note_on_c, 0, 64, 0
1, 23798, Note_on_c, 1, 35, 0
1, 23798, Note_on_c, 1, 47, 0
1, 23799, Note_on_c, 0, 73, 0
1, 23800, Note_on_c, 0, 69, 0
1, 23801, Note_on_c, 0, 57, 0
1, 23808, Note_on_c, 4, 59, 0
1, 23808, Note_on_c, 4, 64, 0
1, 23808, Note_on_c, 3, 71, 0
1, 23808, Note_on_c, 0, 76, 0
1, 23808, Note_on_c, 4, 62, 42
1, 23808, Note_on_c, 9, 42, 96
1, 23808, Note_on_c, 9, 36, 110
1, 23808, Note_on_c, 4, 57, 40
1, 23808, Note_on_c, 1, 28, 104
1, 23808, Lyric_t, "you "
1, 23808, Note_on_c, 0, 74, 85
1, 23808, Note_on_c, 3, 69, 83
1, 23809, Note_on_c, 9, 36, 0
1, 23809, Note_on_c, 9, 42, 0
1, 23809, Note_on_c, 9, 43, 84
1, 23809, Note_on_c, 0, 55, 94
1, 23809, Note_on_c, 1, 40, 110
1, 23809, Note_on_c, 0, 59, 101
1, 23809, Note_on_c, 0, 71, 77
1, 23809, Note_on_c, 0, 67, 75
1, 23809, Note_on_c, 0, 62, 104
1, 23810, Note_on_c, 9, 43, 0
1, 23843, Pitch_bend_c, 3, 7723
1, 23843, Pitch_bend_c, 4, 7723
1, 23845, Pitch_bend_c, 4, 3745
1, 23845, Pitch_bend_c, 3, 3745
1, 23848, Pitch_bend_c, 3, 0
1, 23848, Pitch_bend_c, 4, 0
1, 23855, Note_on_c, 3, 69, 0
1, 23855, Note_on_c, 8, 57, 84
1, 23855, Note_on_c, 9, 42, 37
1, 23856, Note_on_c, 9, 42, 0
1, 23856, Note_on_c, 4, 62, 0
1, 23856, Note_on_c, 4, 57, 0
1, 23856, Note_on_c, 4, 67, 34
1, 23856, Note_on_c, 4, 64, 50
1, 23856, Note_on_c, 3, 76, 93
1, 23856, Lyric_t, "know "
1, 23859, Pitch_bend_c, 3, 7138
1, 23859, Pitch_bend_c, 4, 7138
1, 23861, Pitch_bend_c, 3, 8192
1, 23861, Pitch_bend_c, 4, 8192
1, 23876, Note_on_c, 8, 57, 0
1, 23880, Note_on_c, 8, 57, 97
1, 23898, Note_on_c, 8, 57, 0
1, 23903, Note_on_c, 8, 57, 95
1, 23903, Note_on_c, 9, 42, 110
1, 23904, Note_on_c, 9, 42, 0
1, 23904, Note_on_c, 9, 60, 77
1, 23904, Note_on_c, 9, 39, 110
1, 23904, Note_on_c, 9, 40, 95
1, 23905, Note_on_c, 9, 40, 0
1, 23905, Note_on_c, 9, 39, 0
1, 23905, Note_on_c, 9, 60, 0
1, 23920, Note_on_c, 1, 28, 0
1, 23920, Note_on_c, 8, 57, 0
1, 23924, Note_on_c, 1, 40, 0
1, 23951, Note_on_c, 1, 43, 100
1, 23951, Note_on_c, 1, 31, 114
1, 23952, Note_on_c, 9, 36, 91
1, 23952, Note_on_c, 9, 42, 44
1, 23953, Note_on_c, 9, 42, 0
1, 23953, Note_on_c, 9, 36, 0
1, 23953, Note_on_c, 8, 55, 96
1, 23967, Note_on_c, 8, 55, 0
1, 23969, Note_on_c, 1, 43, 0
1, 23969, Note_on_c, 1, 31, 0
1, 23999, Note_on_c, 9, 42, 95
1, 24000, Note_on_c, 9, 42, 0
1, 24000, Note_on_c, 4, 64, 0
1, 24000, Note_on_c, 1, 33, 112
1, 24000, Note_on_c, 1, 45, 117
1, 24000, Note_on_c, 4, 66, 29
1, 24000, Note_on_c, 4, 62, 29
1, 24000, Note_on_c, 8, 54, 111
1, 24000, Note_on_c, 9, 36, 110
1, 24001, Note_on_c, 9, 36, 0
1, 24001, Note_on_c, 4, 67, 0
1, 24003, Note_on_c, 3, 76, 0
1, 24004, Note_on_c, 3, 74, 72
1, 24042, Note_on_c, 8, 54, 0
1, 24047, Note_on_c, 9, 42, 39
1, 24048, Note_on_c, 9, 42, 0
1, 24048, Note_on_c, 8, 54, 110
1, 24053, Note_on_c, 8, 54, 0
1, 24072, Note_on_c, 8, 54, 110
1, 24077, Note_on_c, 8, 54, 0
1, 24080, Note_on_c, 1, 33, 0
1, 24086, Note_on_c, 1, 45, 0
1, 24095, Note_on_c, 9, 42, 110
1, 24096, Note_on_c, 9, 42, 0
1, 24096, Note_on_c, 9, 36, 110
1, 24096, Note_on_c, 9, 39, 110
1, 24096, Note_on_c, 9, 40, 110
1, 24096, Note_on_c, 9, 60, 77
1, 24096, Note_on_c, 8, 53, 91
1, 24096, Note_on_c, 1, 31, 100
1, 24096, Note_on_c, 1, 43, 112
1, 24097, Note_on_c, 9, 60, 0
1, 24097, Note_on_c, 9, 36, 0
1, 24097, Note_on_c, 9, 40, 0
1, 24097, Note_on_c, 9, 39, 0
1, 24112, Note_on_c, 8, 53, 0
1, 24112, Note_on_c, 8, 54, 72
1, 24143, Note_on_c, 8, 54, 0
1, 24143, Note_on_c, 4, 62, 0
1, 24143, Note_on_c, 8, 57, 96
1, 24144, Note_on_c, 4, 66, 0
1, 24144, Note_on_c, 3, 74, 0
1, 24144, Note_on_c, 4, 62, 44
1, 24144, Note_on_c, 3, 71, 70
1, 24144, Note_on_c, 4, 59, 35
1, 24144, Lyric_t, "it's "
1, 24145, Note_on_c, 9, 42, 42
1, 24146, Note_on_c, 9, 42, 0
1, 24150, Note_on_c, 0, 71, 0
1, 24152, Note_on_c, 0, 67, 0
1, 24156, Note_on_c, 0, 74, 0
1, 24165, Note_on_c, 8, 57, 0
1, 24173, Note_on_c, 1, 31, 0
1, 24175, Note_on_c, 1, 43, 0
1, 24189, Note_on_c, 8, 53, 106
1, 24192, Note_on_c, 0, 55, 0
1, 24192, Note_on_c, 0, 59, 0
1, 24192, Note_on_c, 0, 62, 0
1, 24192, Note_on_c, 0, 69, 74
1, 24192, Note_on_c, 0, 64, 98
1, 24192, Note_on_c, 0, 76, 79
1, 24192, Note_on_c, 9, 42, 96
1, 24192, Note_on_c, 0, 73, 78
1, 24192, Note_on_c, 9, 36, 110
1, 24193, Note_on_c, 9, 36, 0
1, 24193, Note_on_c, 9, 42, 0
1, 24193, Note_on_c, 0, 61, 99
1, 24193, Note_on_c, 1, 30, 97
1, 24193, Note_on_c, 1, 42, 99
1, 24193, Note_on_c, 0, 57, 87
1, 24208, Note_on_c, 8, 53, 0
1, 24208, Note_on_c, 8, 54, 77
1, 24238, Note_on_c, 8, 54, 0
1, 24238, Note_on_c, 3, 71, 0
1, 24239, Note_on_c, 4, 59, 0
1, 24239, Note_on_c, 4, 62, 0
1, 24239, Note_on_c, 8, 57, 91
1, 24239, Note_on_c, 9, 42, 37
1, 24240, Note_on_c, 9, 42, 0
1, 24240, Note_on_c, 4, 59, 41
1, 24240, Lyric_t, "O"
1, 24240, Note_on_c, 4, 62, 13
1, 24240, Note_on_c, 3, 71, 72
1, 24255, Note_on_c, 8, 57, 0
1, 24287, Note_on_c, 9, 42, 110
1, 24288, Note_on_c, 9, 42, 0
1, 24288, Note_on_c, 9, 39, 110
1, 24288, Note_on_c, 9, 40, 95
1, 24288, Note_on_c, 9, 60, 77
1, 24289, Note_on_c, 9, 60, 0
1, 24289, Note_on_c, 9, 40, 0
1, 24289, Note_on_c, 9, 39, 0
1, 24300, Note_on_c, 1, 30, 0
1, 24303, Note_on_c, 1, 42, 0
1, 24310, Note_on_c, 0, 57, 0
1, 24312, Note_on_c, 0, 64, 0
1, 24312, Note_on_c, 0, 61, 0
1, 24319, Note_on_c, 0, 69, 0
1, 24335, Note_on_c, 0, 73, 0
1, 24335, Note_on_c, 0, 76, 0
1, 24335, Note_on_c, 0, 62, 112
1, 24335, Note_on_c, 0, 57, 100
1, 24335, Note_on_c, 8, 57, 107
1, 24335, Note_on_c, 0, 66, 97
1, 24336, Note_on_c, 4, 62, 0
1, 24336, Note_on_c, 4, 59, 0
1, 24336, Note_on_c, 1, 47, 110
1, 24336, Note_on_c, 9, 42, 44
1, 24336, Note_on_c, 4, 57, 29
1, 24336, Note_on_c, 1, 35, 98
1, 24336, Note_on_c, 4, 61, 29
1, 24336, Note_on_c, 9, 36, 91
1, 24337, Note_on_c, 9, 36, 0
1, 24337, Note_on_c, 9, 42, 0
1, 24337, Note_on_c, 0, 78, 84
1, 24337, Note_on_c, 0, 74, 84
1, 24338, Note_on_c, 0, 69, 69
1, 24343, Note_on_c, 3, 71, 0
1, 24343, Note_on_c, 3, 69, 68
1, 24343, Lyric_t, "K, "
1, 24343, Lyric_t, ""
1, 24343, Lyric_t, "\015"
1, 24354, Note_on_c, 8, 57, 0
1, 24360, Note_on_c, 4, 57, 0
1, 24360, Note_on_c, 4, 61, 0
1, 24360, Note_on_c, 4, 55, 15
1, 24360, Note_on_c, 4, 59, 29
1, 24365, Note_on_c, 3, 67, 58
1, 24370, Note_on_c, 3, 69, 0
1, 24383, Note_on_c, 9, 42, 95
1, 24384, Note_on_c, 9, 42, 0
1, 24384, Note_on_c, 4, 55, 0
1, 24384, Note_on_c, 4, 59, 0
1, 24384, Note_on_c, 4, 57, 29
1, 24384, Note_on_c, 4, 54, 29
1, 24384, Note_on_c, 3, 66, 58
1, 24384, Note_on_c, 9, 36, 110
1, 24385, Note_on_c, 9, 36, 0
1, 24385, Note_on_c, 8, 53, 104
1, 24386, Note_on_c, 3, 67, 0
1, 24403, Note_on_c, 8, 53, 0
1, 24403, Note_on_c, 8, 54, 104
1, 24424, Note_on_c, 1, 47, 0
1, 24429, Note_on_c, 8, 54, 0
1, 24430, Note_on_c, 1, 35, 0
1, 24431, Note_on_c, 1, 45, 97
1, 24431, Note_on_c, 1, 33, 100
1, 24431, Note_on_c, 9, 42, 39
1, 24432, Note_on_c, 9, 42, 0
1, 24432, Note_on_c, 8, 57, 91
1, 24444, Note_on_c, 8, 57, 0
1, 24447, Note_on_c, 1, 45, 0
1, 24448, Note_on_c, 1, 33, 0
1, 24462, Note_on_c, 0, 69, 0
1, 24468, Note_on_c, 0, 62, 0
1, 24472, Note_on_c, 0, 66, 0
1, 24476, Note_on_c, 3, 66, 0
1, 24477, Note_on_c, 8, 58, 97
1, 24479, Note_on_c, 9, 42, 110
1, 24479, Note_on_c, 3, 71, 97
1, 24479, Note_on_c, 1, 35, 97
1, 24479, Note_on_c, 4, 59, 54
1, 24479, Lyric_t, "what "
1, 24480, Note_on_c, 9, 42, 0
1, 24480, Note_on_c, 0, 74, 0
1, 24480, Note_on_c, 0, 78, 0
1, 24480, Note_on_c, 4, 54, 0
1, 24480, Note_on_c, 4, 57, 0
1, 24480, Note_on_c, 1, 47, 120
1, 24480, Note_on_c, 9, 40, 110
1, 24480, Note_on_c, 9, 60, 77
1, 24480, Note_on_c, 9, 36, 110
1, 24480, Note_on_c, 9, 39, 110
1, 24481, Note_on_c, 9, 39, 0
1, 24481, Note_on_c, 9, 36, 0
1, 24481, Note_on_c, 9, 40, 0
1, 24481, Note_on_c, 9, 60, 0
1, 24481, Note_on_c, 0, 61, 105
1, 24481, Note_on_c, 0, 64, 105
1, 24481, Note_on_c, 0, 76, 80
1, 24482, Note_on_c, 0, 73, 80
1, 24482, Note_on_c, 0, 69, 76
1, 24495, Note_on_c, 8, 58, 0
1, 24496, Note_on_c, 8, 59, 72
1, 24526, Note_on_c, 8, 59, 0
1, 24527, Note_on_c, 4, 59, 0
1, 24527, Note_on_c, 3, 71, 0
1, 24527, Note_on_c, 8, 62, 108
1, 24527, Note_on_c, 4, 57, 30
1, 24527, Lyric_t, "you "
1, 24527, Note_on_c, 3, 69, 73
1, 24529, Note_on_c, 9, 42, 42
1, 24530, Note_on_c, 9, 42, 0
1, 24545, Note_on_c, 0, 73, 0
1, 24546, Note_on_c, 0, 76, 0
1, 24548, Note_on_c, 0, 69, 0
1, 24549, Note_on_c, 8, 62, 0
1, 24558, Note_on_c, 0, 61, 0
1, 24560, Note_on_c, 0, 64, 0
1, 24566, Note_on_c, 1, 35, 0
1, 24566, Note_on_c, 1, 47, 0
1, 24569, Note_on_c, 0, 57, 0
1, 24573, Note_on_c, 3, 69, 0
1, 24576, Note_on_c, 4, 57, 0
1, 24576, Note_on_c, 9, 36, 110
1, 24576, Note_on_c, 9, 42, 96
1, 24576, Note_on_c, 0, 67, 72
1, 24576, Note_on_c, 4, 62, 48
1, 24576, Lyric_t, "found "
1, 24576, Note_on_c, 0, 74, 74
1, 24576, Note_on_c, 3, 74, 91
1, 24576, Note_on_c, 1, 28, 104
1, 24577, Note_on_c, 9, 42, 0
1, 24577, Note_on_c, 9, 36, 0
1, 24577, Note_on_c, 9, 43, 86
1, 24577, Note_on_c, 0, 59, 101
1, 24577, Note_on_c, 0, 71, 76
1, 24577, Note_on_c, 1, 40, 110
1, 24577, Note_on_c, 0, 62, 104
1, 24577, Note_on_c, 0, 55, 94
1, 24578, Note_on_c, 9, 43, 0
1, 24623, Note_on_c, 9, 42, 37
1, 24623, Note_on_c, 8, 57, 93
1, 24624, Note_on_c, 9, 42, 0
1, 24647, Note_on_c, 8, 57, 0
1, 24648, Note_on_c, 8, 57, 101
1, 24667, Note_on_c, 8, 57, 0
1, 24671, Note_on_c, 9, 42, 110
1, 24672, Note_on_c, 9, 42, 0
1, 24672, Note_on_c, 9, 39, 110
1, 24672, Note_on_c, 9, 60, 77
1, 24672, Note_on_c, 8, 57, 64
1, 24672, Note_on_c, 9, 40, 95
1, 24673, Note_on_c, 9, 40, 0
1, 24673, Note_on_c, 9, 60, 0
1, 24673, Note_on_c, 9, 39, 0
1, 24680, Note_on_c, 8, 57, 0
1, 24688, Note_on_c, 1, 28, 0
1, 24692, Note_on_c, 1, 40, 0
1, 24719, Note_on_c, 1, 31, 114
1, 24719, Note_on_c, 1, 43, 100
1, 24720, Note_on_c, 9, 42, 44
1, 24720, Note_on_c, 9, 36, 91
1, 24720, Note_on_c, 8, 55, 98
1, 24721, Note_on_c, 9, 36, 0
1, 24721, Note_on_c, 9, 42, 0
1, 24737, Note_on_c, 1, 43, 0
1, 24737, Note_on_c, 1, 31, 0
1, 24738, Note_on_c, 8, 55, 0
1, 24767, Note_on_c, 9, 42, 95
1, 24768, Note_on_c, 9, 42, 0
1, 24768, Note_on_c, 1, 33, 112
1, 24768, Note_on_c, 9, 36, 110
1, 24768, Note_on_c, 1, 45, 117
1, 24769, Note_on_c, 9, 36, 0
1, 24769, Note_on_c, 8, 54, 110
1, 24792, Note_on_c, 0, 71, 0
1, 24807, Note_on_c, 8, 54, 0
1, 24810, Note_on_c, 0, 71, 91
1, 24815, Note_on_c, 9, 42, 39
1, 24816, Note_on_c, 9, 42, 0
1, 24839, Note_on_c, 3, 74, 0
1, 24840, Note_on_c, 8, 54, 110
1, 24845, Note_on_c, 8, 54, 0
1, 24848, Note_on_c, 1, 33, 0
1, 24854, Note_on_c, 1, 45, 0
1, 24861, Note_on_c, 8, 53, 97
1, 24863, Note_on_c, 0, 74, 0
1, 24863, Note_on_c, 9, 42, 110
1, 24864, Note_on_c, 9, 42, 0
1, 24864, Note_on_c, 9, 40, 110
1, 24864, Note_on_c, 0, 74, 100
1, 24864, Note_on_c, 9, 39, 110
1, 24864, Note_on_c, 1, 31, 100
1, 24864, Note_on_c, 9, 36, 110
1, 24864, Note_on_c, 9, 60, 77
1, 24864, Note_on_c, 1, 43, 112
1, 24865, Note_on_c, 9, 60, 0
1, 24865, Note_on_c, 9, 40, 0
1, 24865, Note_on_c, 4, 62, 0
1, 24865, Note_on_c, 9, 36, 0
1, 24865, Note_on_c, 9, 39, 0
1, 24865, Note_on_c, 4, 59, 50
1, 24865, Lyric_t, "is "
1, 24865, Note_on_c, 3, 71, 93
1, 24878, Note_on_c, 8, 53, 0
1, 24878, Note_on_c, 8, 54, 78
1, 24907, Note_on_c, 8, 54, 0
1, 24913, Note_on_c, 8, 57, 92
1, 24913, Note_on_c, 9, 42, 42
1, 24914, Note_on_c, 9, 42, 0
1, 24916, Note_on_c, 0, 67, 0
1, 24928, Note_on_c, 8, 57, 0
1, 24936, Note_on_c, 3, 71, 0
1, 24941, Note_on_c, 1, 31, 0
1, 24943, Note_on_c, 1, 43, 0
1, 24959, Lyric_t, "hap"
1, 24959, Note_on_c, 3, 78, 108
1, 24959, Note_on_c, 8, 53, 98
1, 24960, Note_on_c, 0, 59, 0
1, 24960, Note_on_c, 0, 71, 0
1, 24960, Note_on_c, 0, 62, 0
1, 24960, Note_on_c, 4, 59, 0
1, 24960, Note_on_c, 0, 55, 0
1, 24960, Note_on_c, 9, 36, 110
1, 24960, Note_on_c, 4, 66, 54
1, 24960, Note_on_c, 9, 42, 96
1, 24960, Note_on_c, 0, 76, 82
1, 24960, Note_on_c, 0, 64, 98
1, 24960, Note_on_c, 0, 69, 72
1, 24960, Note_on_c, 0, 73, 77
1, 24961, Note_on_c, 9, 42, 0
1, 24961, Note_on_c, 0, 74, 0
1, 24961, Note_on_c, 9, 36, 0
1, 24961, Note_on_c, 0, 57, 87
1, 24961, Note_on_c, 1, 30, 97
1, 24961, Note_on_c, 0, 61, 99
1, 24961, Note_on_c, 1, 42, 99
1, 24975, Note_on_c, 8, 53, 0
1, 24975, Note_on_c, 8, 54, 80
1, 25006, Note_on_c, 8, 54, 0
1, 25007, Note_on_c, 9, 42, 37
1, 25008, Note_on_c, 9, 42, 0
1, 25008, Note_on_c, 4, 66, 0
1, 25008, Lyric_t, "pen"
1, 25008, Note_on_c, 4, 62, 21
1, 25008, Note_on_c, 3, 74, 46
1, 25009, Note_on_c, 3, 78, 0
1, 25009, Note_on_c, 8, 57, 100
1, 25026, Note_on_c, 8, 57, 0
1, 25052, Note_on_c, 3, 74, 0
1, 25055, Note_on_c, 9, 42, 110
1, 25056, Note_on_c, 9, 42, 0
1, 25056, Note_on_c, 4, 62, 0
1, 25056, Note_on_c, 4, 64, 38
1, 25056, Note_on_c, 3, 76, 103
1, 25056, Lyric_t, "ing "
1, 25056, Note_on_c, 9, 40, 95
1, 25056, Note_on_c, 8, 54, 110
1, 25056, Note_on_c, 9, 60, 77
1, 25056, Note_on_c, 9, 39, 110
1, 25057, Note_on_c, 9, 39, 0
1, 25057, Note_on_c, 9, 60, 0
1, 25057, Note_on_c, 9, 40, 0
1, 25061, Note_on_c, 8, 54, 0
1, 25068, Note_on_c, 1, 30, 0
1, 25071, Note_on_c, 1, 42, 0
1, 25078, Note_on_c, 0, 57, 0
1, 25080, Note_on_c, 0, 64, 0
1, 25080, Note_on_c, 0, 61, 0
1, 25082, Note_on_c, 0, 69, 0
1, 25103, Note_on_c, 0, 76, 0
1, 25103, Note_on_c, 0, 73, 0
1, 25103, Note_on_c, 0, 66, 97
1, 25103, Note_on_c, 0, 57, 100
1, 25103, Note_on_c, 0, 62, 112
1, 25104, Note_on_c, 4, 64, 0
1, 25104, Note_on_c, 3, 76, 0
1, 25104, Note_on_c, 3, 71, 55
1, 25104, Note_on_c, 8, 57, 101
1, 25104, Note_on_c, 9, 42, 44
1, 25104, Note_on_c, 9, 36, 91
1, 25104, Note_on_c, 1, 47, 110
1, 25104, Note_on_c, 4, 59, 18
1, 25104, Note_on_c, 1, 35, 98
1, 25105, Note_on_c, 9, 36, 0
1, 25105, Note_on_c, 9, 42, 0
1, 25105, Note_on_c, 0, 78, 81
1, 25105, Note_on_c, 0, 74, 87
1, 25105, Note_on_c, 0, 69, 71
1, 25123, Note_on_c, 8, 57, 0
1, 25147, Note_on_c, 3, 71, 0
1, 25151, Note_on_c, 3, 74, 99
1, 25151, Lyric_t, "now, "
1, 25151, Note_on_c, 9, 42, 95
1, 25152, Note_on_c, 9, 42, 0
1, 25152, Note_on_c, 4, 59, 0
1, 25152, Note_on_c, 9, 36, 110
1, 25152, Note_on_c, 4, 62, 35
1, 25153, Note_on_c, 9, 36, 0
1, 25155, Note_on_c, 8, 53, 73
1, 25168, Note_on_c, 8, 53, 0
1, 25169, Note_on_c, 8, 54, 66
1, 25192, Note_on_c, 1, 47, 0
1, 25194, Note_on_c, 8, 54, 0
1, 25198, Note_on_c, 1, 35, 0
1, 25199, Note_on_c, 1, 33, 100
1, 25199, Note_on_c, 9, 46, 87
1, 25199, Note_on_c, 1, 45, 97
1, 25200, Note_on_c, 9, 46, 0
1, 25200, Note_on_c, 4, 74, 47
1, 25200, Note_on_c, 4, 66, 51
1, 25200, Note_on_c, 8, 57, 97
1, 25200, Note_on_c, 4, 69, 34
1, 25201, Lyric_t, ""
1, 25201, Lyric_t, "\015"
1, 25201, Note_on_c, 3, 69, 53
1, 25201, Lyric_t, "oh. "
1, 25202, Note_on_c, 3, 74, 0
1, 25214, Note_on_c, 8, 57, 0
1, 25215, Note_on_c, 1, 45, 0
1, 25216, Note_on_c, 1, 33, 0
1, 25223, Note_on_c, 0, 69, 0
1, 25236, Note_on_c, 0, 62, 0
1, 25240, Note_on_c, 0, 66, 0
1, 25245, Note_on_c, 3, 69, 0
1, 25247, Note_on_c, 9, 42, 110
1, 25247, Note_on_c, 1, 35, 97
1, 25247, Note_on_c, 0, 69, 76
1, 25247, Note_on_c, 0, 73, 77
1, 25247, Note_on_c, 0, 76, 79
1, 25248, Note_on_c, 9, 42, 0
1, 25248, Note_on_c, 4, 66, 0
1, 25248, Note_on_c, 4, 69, 0
1, 25248, Note_on_c, 0, 74, 0
1, 25248, Note_on_c, 0, 78, 0
1, 25248, Note_on_c, 4, 74, 0
1, 25248, Note_on_c, 4, 62, 0
1, 25248, Note_on_c, 4, 59, 35
1, 25248, Note_on_c, 9, 36, 110
1, 25248, Note_on_c, 9, 40, 110
1, 25248, Note_on_c, 3, 71, 91
1, 25248, Note_on_c, 4, 67, 56
1, 25248, Note_on_c, 1, 47, 120
1, 25248, Note_on_c, 4, 71, 34
1, 25248, Note_on_c, 9, 39, 110
1, 25248, Note_on_c, 9, 60, 77
1, 25248, Note_on_c, 4, 76, 47
1, 25248, Note_on_c, 8, 58, 78
1, 25249, Note_on_c, 9, 60, 0
1, 25249, Note_on_c, 9, 36, 0
1, 25249, Note_on_c, 9, 39, 0
1, 25249, Note_on_c, 9, 40, 0
1, 25249, Note_on_c, 0, 61, 105
1, 25249, Note_on_c, 0, 64, 105
1, 25265, Note_on_c, 8, 58, 0
1, 25265, Note_on_c, 8, 59, 73
1, 25281, Lyric_t, ""
1, 25281, Lyric_t, "\015"
1, 25296, Note_on_c, 4, 67, 0
1, 25296, Note_on_c, 4, 71, 0
1, 25296, Note_on_c, 4, 59, 0
1, 25296, Note_on_c, 4, 76, 0
1, 25296, Note_on_c, 4, 69, 52
1, 25296, Note_on_c, 4, 74, 40
1, 25296, Note_on_c, 8, 62, 114
1, 25296, Note_on_c, 4, 62, 35
1, 25296, Note_on_c, 9, 40, 24
1, 25296, Note_on_c, 3, 74, 103
1, 25296, Note_on_c, 4, 78, 32
1, 25297, Note_on_c, 9, 40, 0
1, 25297, Note_on_c, 9, 42, 42
1, 25298, Note_on_c, 9, 42, 0
1, 25299, Note_on_c, 3, 71, 0
1, 25300, Note_on_c, 8, 59, 0
1, 25319, Note_on_c, 8, 62, 0
1, 25320, Note_on_c, 9, 40, 104
1, 25321, Note_on_c, 9, 40, 0
1, 25326, Note_on_c, 0, 61, 0
1, 25328, Note_on_c, 0, 64, 0
1, 25334, Note_on_c, 1, 47, 0
1, 25334, Note_on_c, 1, 35, 0
1, 25335, Note_on_c, 0, 73, 0
1, 25336, Note_on_c, 0, 69, 0
1, 25337, Note_on_c, 0, 57, 0
1, 25344, Note_on_c, 4, 78, 0
1, 25344, Note_on_c, 0, 76, 0
1, 25344, Note_on_c, 4, 74, 0
1, 25344, Note_on_c, 4, 69, 0
1, 25344, Note_on_c, 4, 62, 0
1, 25344, Note_on_c, 1, 28, 104
1, 25344, Note_on_c, 9, 43, 89
1, 25344, Note_on_c, 0, 66, 96
1, 25344, Note_on_c, 9, 49, 96
1, 25344, Note_on_c, 9, 36, 110
1, 25345, Note_on_c, 9, 36, 0
1, 25345, Note_on_c, 9, 43, 0
1, 25345, Note_on_c, 9, 49, 0
1, 25345, Note_on_c, 1, 40, 110
1, 25345, Note_on_c, 0, 74, 82
1, 25345, Note_on_c, 0, 67, 81
1, 25345, Note_on_c, 0, 71, 81
1, 25347, Note_on_c, 3, 74, 0
1, 25391, Note_on_c, 2, 62, 59
1, 25391, Note_on_c, 9, 42, 37
1, 25392, Note_on_c, 9, 42, 0
1, 25392, Note_on_c, 2, 67, 86
1, 25393, Note_on_c, 2, 71, 72
1, 25411, Note_on_c, 2, 67, 0
1, 25411, Note_on_c, 2, 62, 0
1, 25414, Note_on_c, 2, 71, 0
1, 25416, Note_on_c, 2, 71, 81
1, 25416, Note_on_c, 2, 62, 81
1, 25437, Note_on_c, 2, 62, 0
1, 25437, Note_on_c, 2, 71, 0
1, 25438, Note_on_c, 2, 67, 99
1, 25439, Note_on_c, 2, 71, 101
1, 25439, Note_on_c, 9, 42, 110
1, 25440, Note_on_c, 9, 42, 0
1, 25440, Note_on_c, 4, 74, 47
1, 25440, Note_on_c, 9, 39, 110
1, 25440, Note_on_c, 9, 60, 77
1, 25440, Note_on_c, 9, 40, 95
1, 25441, Note_on_c, 9, 40, 0
1, 25441, Note_on_c, 9, 39, 0
1, 25441, Note_on_c, 9, 60, 0
1, 25441, Lyric_t, "Let "
1, 25441, Note_on_c, 3, 74, 105
1, 25443, Note_on_c, 2, 71, 0
1, 25444, Note_on_c, 2, 67, 0
1, 25456, Note_on_c, 1, 28, 0
1, 25458, Note_on_c, 0, 66, 0
1, 25460, Note_on_c, 1, 40, 0
1, 25463, Note_on_c, 0, 71, 0
1, 25464, Note_on_c, 0, 74, 0
1, 25465, Note_on_c, 0, 67, 0
1, 25486, Note_on_c, 3, 74, 0
1, 25487, Note_on_c, 4, 74, 0
1, 25487, Note_on_c, 0, 66, 78
1, 25487, Note_on_c, 3, 74, 97
1, 25487, Note_on_c, 0, 67, 69
1, 25487, Note_on_c, 0, 71, 78
1, 25487, Note_on_c, 0, 74, 76
1, 25487, Lyric_t, "this "
1, 25487, Note_on_c, 1, 31, 114
1, 25487, Note_on_c, 1, 43, 100
1, 25488, Note_on_c, 9, 42, 44
1, 25488, Note_on_c, 4, 74, 47
1, 25488, Note_on_c, 2, 62, 78
1, 25488, Note_on_c, 9, 36, 91
1, 25489, Note_on_c, 9, 36, 0
1, 25489, Note_on_c, 9, 42, 0
1, 25489, Note_on_c, 2, 67, 100
1, 25490, Note_on_c, 2, 71, 104
1, 25496, Note_on_c, 0, 74, 0
1, 25496, Note_on_c, 0, 67, 0
1, 25496, Note_on_c, 2, 62, 0
1, 25498, Note_on_c, 2, 67, 0
1, 25498, Note_on_c, 0, 71, 0
1, 25498, Note_on_c, 2, 71, 0
1, 25499, Note_on_c, 0, 66, 0
1, 25505, Note_on_c, 1, 43, 0
1, 25505, Note_on_c, 1, 31, 0
1, 25535, Note_on_c, 3, 74, 0
1, 25535, Lyric_t, "groove "
1, 25535, Note_on_c, 0, 66, 87
1, 25535, Note_on_c, 0, 67, 82
1, 25535, Note_on_c, 1, 33, 112
1, 25535, Note_on_c, 0, 74, 83
1, 25535, Note_on_c, 1, 45, 117
1, 25535, Note_on_c, 3, 71, 85
1, 25535, Note_on_c, 9, 42, 95
1, 25535, Note_on_c, 0, 71, 81
1, 25536, Note_on_c, 9, 42, 0
1, 25536, Note_on_c, 4, 74, 0
1, 25536, Note_on_c, 4, 71, 36
1, 25536, Note_on_c, 9, 36, 110
1, 25537, Note_on_c, 9, 36, 0
1, 25583, Note_on_c, 9, 42, 39
1, 25584, Note_on_c, 9, 42, 0
1, 25585, Note_on_c, 2, 67, 61
1, 25586, Note_on_c, 2, 71, 56
1, 25586, Note_on_c, 2, 62, 19
1, 25601, Note_on_c, 2, 71, 0
1, 25607, Note_on_c, 2, 71, 47
1, 25613, Note_on_c, 0, 74, 0
1, 25613, Note_on_c, 0, 71, 0
1, 25614, Note_on_c, 0, 66, 0
1, 25614, Note_on_c, 0, 67, 0
1, 25615, Note_on_c, 1, 33, 0
1, 25621, Note_on_c, 1, 45, 0
1, 25627, Note_on_c, 3, 71, 0
1, 25629, Note_on_c, 2, 67, 0
1, 25631, Note_on_c, 2, 67, 99
1, 25631, Note_on_c, 9, 42, 110
1, 25631, Note_on_c, 1, 31, 100
1, 25631, Note_on_c, 1, 43, 112
1, 25632, Note_on_c, 9, 42, 0
1, 25632, Note_on_c, 9, 40, 110
1, 25632, Note_on_c, 0, 74, 81
1, 25632, Note_on_c, 9, 60, 77
1, 25632, Note_on_c, 9, 39, 110
1, 25632, Note_on_c, 9, 36, 110
1, 25632, Note_on_c, 0, 71, 81
1, 25632, Note_on_c, 0, 67, 79
1, 25633, Note_on_c, 9, 36, 0
1, 25633, Note_on_c, 9, 39, 0
1, 25633, Note_on_c, 9, 60, 0
1, 25633, Note_on_c, 9, 40, 0
1, 25633, Note_on_c, 0, 66, 87
1, 25634, Note_on_c, 2, 71, 0
1, 25637, Note_on_c, 2, 67, 0
1, 25637, Note_on_c, 2, 62, 0
1, 25681, Note_on_c, 9, 42, 42
1, 25682, Note_on_c, 9, 42, 0
1, 25692, Note_on_c, 0, 66, 0
1, 25698, Note_on_c, 0, 67, 0
1, 25699, Note_on_c, 0, 71, 0
1, 25700, Note_on_c, 0, 74, 0
1, 25708, Note_on_c, 1, 31, 0
1, 25710, Note_on_c, 1, 43, 0
1, 25727, Note_on_c, 2, 68, 98
1, 25727, Note_on_c, 2, 63, 76
1, 25728, Note_on_c, 4, 71, 0
1, 25728, Note_on_c, 9, 42, 96
1, 25728, Note_on_c, 4, 66, 27
1, 25728, Note_on_c, 9, 36, 110
1, 25728, Lyric_t, "light "
1, 25728, Note_on_c, 2, 72, 101
1, 25728, Note_on_c, 3, 66, 82
1, 25729, Note_on_c, 9, 36, 0
1, 25729, Note_on_c, 9, 42, 0
1, 25729, Note_on_c, 0, 69, 75
1, 25729, Note_on_c, 1, 42, 99
1, 25729, Note_on_c, 1, 30, 97
1, 25729, Note_on_c, 0, 73, 71
1, 25729, Note_on_c, 0, 76, 83
1, 25742, Note_on_c, 2, 72, 0
1, 25745, Note_on_c, 2, 68, 0
1, 25748, Note_on_c, 2, 73, 83
1, 25749, Note_on_c, 2, 63, 0
1, 25749, Note_on_c, 2, 69, 90
1, 25750, Note_on_c, 2, 64, 73
1, 25775, Note_on_c, 3, 66, 0
1, 25775, Note_on_c, 9, 42, 37
1, 25775, Lyric_t, "up "
1, 25775, Note_on_c, 3, 69, 76
1, 25776, Note_on_c, 9, 42, 0
1, 25776, Note_on_c, 4, 66, 0
1, 25776, Note_on_c, 4, 69, 22
1, 25799, Note_on_c, 2, 69, 0
1, 25801, Note_on_c, 2, 73, 0
1, 25802, Note_on_c, 2, 73, 95
1, 25803, Note_on_c, 2, 69, 82
1, 25823, Note_on_c, 2, 64, 0
1, 25823, Note_on_c, 3, 69, 0
1, 25823, Note_on_c, 3, 73, 80
1, 25823, Note_on_c, 9, 42, 110
1, 25823, Lyric_t, "your "
1, 25824, Note_on_c, 9, 42, 0
1, 25824, Note_on_c, 2, 69, 0
1, 25824, Note_on_c, 2, 73, 0
1, 25824, Note_on_c, 4, 69, 0
1, 25824, Note_on_c, 9, 40, 95
1, 25824, Note_on_c, 9, 39, 110
1, 25824, Note_on_c, 9, 60, 77
1, 25824, Note_on_c, 4, 73, 34
1, 25825, Note_on_c, 9, 60, 0
1, 25825, Note_on_c, 9, 39, 0
1, 25825, Note_on_c, 9, 40, 0
1, 25825, Note_on_c, 2, 73, 82
1, 25825, Note_on_c, 2, 69, 82
1, 25829, Note_on_c, 0, 76, 0
1, 25832, Note_on_c, 0, 73, 0
1, 25832, Note_on_c, 0, 69, 0
1, 25836, Note_on_c, 2, 73, 0
1, 25836, Note_on_c, 2, 69, 0
1, 25836, Note_on_c, 1, 30, 0
1, 25839, Note_on_c, 1, 42, 0
1, 25870, Note_on_c, 3, 73, 0
1, 25871, Note_on_c, 0, 78, 73
1, 25871, Note_on_c, 3, 71, 91
1, 25871, Note_on_c, 0, 69, 78
1, 25871, Lyric_t, ""
1, 25871, Lyric_t, "\015"
1, 25871, Note_on_c, 0, 74, 82
1, 25871, Lyric_t, "fuse, "
1, 25872, Note_on_c, 4, 73, 0
1, 25872, Note_on_c, 1, 47, 110
1, 25872, Note_on_c, 4, 71, 26
1, 25872, Note_on_c, 9, 36, 91
1, 25872, Note_on_c, 9, 42, 44
1, 25872, Note_on_c, 1, 35, 98
1, 25873, Note_on_c, 9, 42, 0
1, 25873, Note_on_c, 9, 36, 0
1, 25873, Note_on_c, 2, 66, 101
1, 25873, Note_on_c, 2, 71, 104
1, 25873, Note_on_c, 2, 62, 78
1, 25911, Note_on_c, 2, 62, 0
1, 25915, Note_on_c, 2, 71, 0
1, 25918, Note_on_c, 2, 66, 0
1, 25919, Note_on_c, 9, 42, 95
1, 25920, Note_on_c, 9, 42, 0
1, 25920, Note_on_c, 9, 36, 110
1, 25921, Note_on_c, 9, 36, 0
1, 25946, Note_on_c, 0, 74, 0
1, 25946, Note_on_c, 0, 78, 0
1, 25958, Note_on_c, 0, 69, 0
1, 25960, Note_on_c, 1, 47, 0
1, 25966, Note_on_c, 1, 35, 0
1, 25966, Note_on_c, 3, 71, 0
1, 25967, Note_on_c, 9, 42, 39
1, 25967, Note_on_c, 3, 69, 72
1, 25967, Lyric_t, "it's "
1, 25967, Note_on_c, 1, 45, 97
1, 25967, Note_on_c, 1, 33, 100
1, 25968, Note_on_c, 9, 42, 0
1, 25968, Note_on_c, 4, 71, 0
1, 25968, Note_on_c, 2, 64, 103
1, 25968, Note_on_c, 4, 69, 12
1, 25969, Note_on_c, 0, 69, 66
1, 25969, Note_on_c, 0, 73, 75
1, 25969, Note_on_c, 0, 76, 68
1, 25980, Note_on_c, 0, 76, 0
1, 25981, Note_on_c, 0, 69, 0
1, 25983, Note_on_c, 1, 45, 0
1, 25984, Note_on_c, 1, 33, 0
1, 25984, Note_on_c, 0, 73, 0
1, 26014, Note_on_c, 3, 69, 0
1, 26015, Note_on_c, 1, 35, 97
1, 26015, Note_on_c, 3, 74, 101
1, 26015, Note_on_c, 9, 42, 110
1, 26015, Lyric_t, "all "
1, 26016, Note_on_c, 9, 42, 0
1, 26016, Note_on_c, 2, 64, 0
1, 26016, Note_on_c, 4, 69, 0
1, 26016, Note_on_c, 1, 47, 120
1, 26016, Note_on_c, 9, 36, 110
1, 26016, Note_on_c, 9, 60, 77
1, 26016, Note_on_c, 9, 40, 110
1, 26016, Note_on_c, 2, 66, 93
1, 26016, Note_on_c, 9, 39, 110
1, 26016, Note_on_c, 4, 74, 35
1, 26017, Note_on_c, 9, 39, 0
1, 26017, Note_on_c, 9, 40, 0
1, 26017, Note_on_c, 9, 36, 0
1, 26017, Note_on_c, 9, 60, 0
1, 26017, Note_on_c, 0, 74, 91
1, 26017, Note_on_c, 0, 78, 71
1, 26017, Note_on_c, 0, 69, 84
1, 26042, Note_on_c, 2, 66, 0
1, 26065, Note_on_c, 9, 42, 42
1, 26065, Note_on_c, 2, 69, 103
1, 26066, Note_on_c, 9, 42, 0
1, 26075, Note_on_c, 0, 78, 0
1, 26080, Note_on_c, 2, 69, 0
1, 26081, Note_on_c, 0, 74, 0
1, 26084, Note_on_c, 0, 69, 0
1, 26102, Note_on_c, 1, 47, 0
1, 26102, Note_on_c, 1, 35, 0
1, 26106, Note_on_c, 3, 74, 0
1, 26112, Note_on_c, 4, 74, 0
1, 26112, Note_on_c, 9, 36, 110
1, 26112, Note_on_c, 9, 42, 96
1, 26112, Note_on_c, 0, 66, 96
1, 26112, Note_on_c, 4, 71, 1
1, 26112, Lyric_t, "right, "
1, 26112, Note_on_c, 1, 28, 104
1, 26112, Note_on_c, 3, 71, 73
1, 26113, Note_on_c, 9, 42, 0
1, 26113, Note_on_c, 9, 36, 0
1, 26113, Note_on_c, 0, 71, 81
1, 26113, Note_on_c, 9, 43, 86
1, 26113, Note_on_c, 0, 67, 81
1, 26113, Note_on_c, 0, 74, 82
1, 26113, Note_on_c, 1, 40, 110
1, 26114, Note_on_c, 9, 43, 0
1, 26159, Note_on_c, 9, 42, 37
1, 26160, Note_on_c, 9, 42, 0
1, 26160, Note_on_c, 2, 62, 74
1, 26161, Note_on_c, 2, 67, 99
1, 26162, Note_on_c, 2, 71, 92
1, 26164, Note_on_c, 3, 71, 0
1, 26176, Note_on_c, 2, 71, 0
1, 26183, Note_on_c, 2, 67, 0
1, 26185, Note_on_c, 2, 71, 91
1, 26185, Note_on_c, 2, 67, 88
1, 26204, Note_on_c, 2, 67, 0
1, 26205, Note_on_c, 2, 71, 0
1, 26207, Note_on_c, 9, 42, 110
1, 26207, Note_on_c, 2, 67, 100
1, 26208, Note_on_c, 9, 42, 0
1, 26208, Note_on_c, 4, 71, 0
1, 26208, Note_on_c, 9, 60, 77
1, 26208, Note_on_c, 4, 74, 37
1, 26208, Note_on_c, 9, 39, 110
1, 26208, Note_on_c, 9, 40, 95
1, 26209, Note_on_c, 9, 40, 0
1, 26209, Note_on_c, 9, 60, 0
1, 26209, Note_on_c, 9, 39, 0
1, 26209, Lyric_t, "all "
1, 26209, Note_on_c, 3, 74, 103
1, 26211, Note_on_c, 2, 67, 0
1, 26212, Note_on_c, 2, 62, 0
1, 26224, Note_on_c, 1, 28, 0
1, 26226, Note_on_c, 0, 66, 0
1, 26228, Note_on_c, 1, 40, 0
1, 26231, Note_on_c, 0, 71, 0
1, 26232, Note_on_c, 0, 74, 0
1, 26233, Note_on_c, 0, 67, 0
1, 26255, Note_on_c, 0, 74, 76
1, 26255, Note_on_c, 0, 71, 78
1, 26255, Note_on_c, 0, 66, 78
1, 26255, Note_on_c, 1, 43, 100
1, 26255, Note_on_c, 0, 67, 69
1, 26255, Note_on_c, 2, 62, 82
1, 26255, Note_on_c, 1, 31, 114
1, 26255, Note_on_c, 2, 67, 99
1, 26256, Note_on_c, 9, 36, 91
1, 26256, Note_on_c, 9, 42, 44
1, 26256, Note_on_c, 2, 71, 102
1, 26257, Note_on_c, 9, 42, 0
1, 26257, Note_on_c, 9, 36, 0
1, 26264, Note_on_c, 0, 67, 0
1, 26264, Note_on_c, 0, 74, 0
1, 26266, Note_on_c, 0, 71, 0
1, 26266, Note_on_c, 2, 62, 0
1, 26266, Note_on_c, 2, 71, 0
1, 26267, Note_on_c, 0, 66, 0
1, 26271, Note_on_c, 2, 67, 0
1, 26273, Note_on_c, 1, 31, 0
1, 26273, Note_on_c, 1, 43, 0
1, 26298, Note_on_c, 3, 74, 0
1, 26303, Note_on_c, 9, 42, 95
1, 26303, Note_on_c, 1, 33, 112
1, 26303, Note_on_c, 1, 45, 117
1, 26303, Note_on_c, 0, 66, 87
1, 26303, Note_on_c, 0, 74, 83
1, 26303, Note_on_c, 0, 71, 81
1, 26303, Note_on_c, 0, 67, 82
1, 26304, Note_on_c, 9, 42, 0
1, 26304, Note_on_c, 4, 74, 0
1, 26304, Note_on_c, 4, 71, 10
1, 26304, Note_on_c, 9, 36, 110
1, 26305, Note_on_c, 9, 36, 0
1, 26305, Note_on_c, 3, 71, 81
1, 26305, Lyric_t, "right, "
1, 26351, Note_on_c, 9, 42, 39
1, 26352, Note_on_c, 9, 42, 0
1, 26375, Note_on_c, 2, 71, 40
1, 26381, Note_on_c, 0, 74, 0
1, 26381, Note_on_c, 0, 71, 0
1, 26382, Note_on_c, 0, 67, 0
1, 26382, Note_on_c, 0, 66, 0
1, 26383, Note_on_c, 1, 33, 0
1, 26389, Note_on_c, 1, 45, 0
1, 26394, Note_on_c, 2, 71, 0
1, 26398, Note_on_c, 2, 62, 61
1, 26399, Note_on_c, 2, 67, 99
1, 26399, Note_on_c, 1, 43, 112
1, 26399, Note_on_c, 1, 31, 100
1, 26399, Note_on_c, 2, 71, 99
1, 26399, Note_on_c, 9, 42, 110
1, 26400, Note_on_c, 9, 42, 0
1, 26400, Note_on_c, 0, 67, 79
1, 26400, Note_on_c, 9, 36, 110
1, 26400, Note_on_c, 0, 71, 81
1, 26400, Note_on_c, 9, 39, 110
1, 26400, Note_on_c, 0, 74, 81
1, 26400, Note_on_c, 9, 60, 77
1, 26400, Note_on_c, 9, 40, 110
1, 26401, Note_on_c, 9, 40, 0
1, 26401, Note_on_c, 9, 36, 0
1, 26401, Note_on_c, 9, 60, 0
1, 26401, Note_on_c, 9, 39, 0
1, 26401, Note_on_c, 0, 66, 87
1, 26402, Note_on_c, 3, 71, 0
1, 26408, Note_on_c, 2, 62, 0
1, 26412, Note_on_c, 2, 71, 0
1, 26416, Note_on_c, 2, 67, 0
1, 26449, Note_on_c, 9, 42, 42
1, 26450, Note_on_c, 9, 42, 0
1, 26460, Note_on_c, 0, 66, 0
1, 26466, Note_on_c, 0, 67, 0
1, 26467, Note_on_c, 0, 71, 0
1, 26468, Note_on_c, 0, 74, 0
1, 26476, Note_on_c, 1, 31, 0
1, 26478, Note_on_c, 1, 43, 0
1, 26495, Note_on_c, 3, 73, 103
1, 26495, Lyric_t, "all "
1, 26496, Note_on_c, 4, 71, 0
1, 26496, Note_on_c, 9, 42, 96
1, 26496, Note_on_c, 2, 63, 47
1, 26496, Note_on_c, 4, 73, 49
1, 26496, Note_on_c, 9, 36, 110
1, 26497, Note_on_c, 9, 36, 0
1, 26497, Note_on_c, 9, 42, 0
1, 26497, Note_on_c, 0, 76, 83
1, 26497, Note_on_c, 2, 68, 87
1, 26497, Note_on_c, 2, 72, 87
1, 26497, Note_on_c, 0, 73, 71
1, 26497, Note_on_c, 1, 30, 97
1, 26497, Note_on_c, 0, 69, 75
1, 26497, Note_on_c, 1, 42, 99
1, 26516, Note_on_c, 2, 72, 0
1, 26521, Note_on_c, 2, 73, 65
1, 26521, Note_on_c, 2, 69, 65
1, 26521, Note_on_c, 2, 64, 65
1, 26522, Note_on_c, 2, 68, 0
1, 26526, Note_on_c, 2, 63, 0
1, 26543, Note_on_c, 3, 73, 0
1, 26543, Note_on_c, 9, 42, 37
1, 26543, Note_on_c, 3, 69, 57
1, 26544, Note_on_c, 9, 42, 0
1, 26544, Note_on_c, 4, 73, 0
1, 26544, Note_on_c, 4, 69, 20
1, 26567, Note_on_c, 2, 73, 0
1, 26570, Note_on_c, 2, 69, 0
1, 26570, Note_on_c, 2, 64, 0
1, 26570, Note_on_c, 2, 73, 94
1, 26571, Note_on_c, 2, 64, 63
1, 26571, Note_on_c, 2, 69, 87
1, 26589, Note_on_c, 2, 69, 0
1, 26591, Note_on_c, 2, 64, 0
1, 26591, Note_on_c, 3, 69, 0
1, 26591, Note_on_c, 3, 66, 45
1, 26591, Note_on_c, 9, 42, 110
1, 26592, Note_on_c, 9, 42, 0
1, 26592, Note_on_c, 4, 69, 0
1, 26592, Note_on_c, 4, 66, 6
1, 26592, Note_on_c, 9, 60, 77
1, 26592, Note_on_c, 9, 40, 95
1, 26592, Note_on_c, 9, 39, 110
1, 26592, Note_on_c, 2, 69, 95
1, 26592, Note_on_c, 2, 64, 95
1, 26593, Note_on_c, 9, 39, 0
1, 26593, Note_on_c, 9, 40, 0
1, 26593, Note_on_c, 9, 60, 0
1, 26596, Note_on_c, 2, 73, 0
1, 26597, Note_on_c, 0, 76, 0
1, 26600, Note_on_c, 0, 69, 0
1, 26600, Note_on_c, 0, 73, 0
1, 26602, Note_on_c, 2, 69, 0
1, 26602, Note_on_c, 2, 64, 0
1, 26604, Note_on_c, 1, 30, 0
1, 26607, Note_on_c, 1, 42, 0
1, 26638, Note_on_c, 3, 66, 0
1, 26639, Note_on_c, 3, 71, 85
1, 26639, Note_on_c, 0, 78, 73
1, 26639, Lyric_t, "right. "
1, 26639, Note_on_c, 0, 69, 78
1, 26639, Lyric_t, ""
1, 26639, Lyric_t, "\015"
1, 26639, Note_on_c, 0, 74, 82
1, 26640, Note_on_c, 4, 66, 0
1, 26640, Note_on_c, 9, 36, 91
1, 26640, Note_on_c, 2, 66, 101
1, 26640, Note_on_c, 2, 62, 63
1, 26640, Note_on_c, 9, 42, 44
1, 26640, Note_on_c, 1, 47, 110
1, 26640, Note_on_c, 4, 71, 28
1, 26640, Note_on_c, 1, 35, 98
1, 26641, Note_on_c, 9, 42, 0
1, 26641, Note_on_c, 9, 36, 0
1, 26642, Note_on_c, 2, 71, 103
1, 26674, Note_on_c, 2, 71, 0
1, 26680, Note_on_c, 2, 66, 0
1, 26687, Note_on_c, 9, 42, 95
1, 26688, Note_on_c, 9, 42, 0
1, 26688, Note_on_c, 2, 62, 0
1, 26688, Note_on_c, 9, 36, 110
1, 26689, Note_on_c, 9, 36, 0
1, 26714, Note_on_c, 0, 74, 0
1, 26714, Note_on_c, 0, 78, 0
1, 26714, Note_on_c, 2, 69, 58
1, 26716, Note_on_c, 2, 69, 0
1, 26726, Note_on_c, 0, 69, 0
1, 26728, Note_on_c, 1, 47, 0
1, 26734, Note_on_c, 1, 35, 0
1, 26735, Note_on_c, 1, 45, 97
1, 26735, Note_on_c, 1, 33, 100
1, 26735, Note_on_c, 9, 42, 39
1, 26736, Note_on_c, 9, 42, 0
1, 26737, Note_on_c, 0, 73, 75
1, 26737, Note_on_c, 2, 64, 101
1, 26737, Note_on_c, 0, 69, 66
1, 26737, Note_on_c, 0, 76, 68
1, 26738, Note_on_c, 2, 69, 51
1, 26748, Note_on_c, 0, 76, 0
1, 26749, Note_on_c, 0, 69, 0
1, 26751, Note_on_c, 1, 45, 0
1, 26752, Note_on_c, 0, 73, 0
1, 26752, Note_on_c, 1, 33, 0
1, 26752, Lyric_t, ""
1, 26752, Lyric_t, "\015"
1, 26782, Note_on_c, 3, 71, 0
1, 26783, Note_on_c, 1, 35, 97
1, 26783, Note_on_c, 9, 42, 110
1, 26784, Note_on_c, 9, 42, 0
1, 26784, Note_on_c, 2, 64, 0
1, 26784, Note_on_c, 9, 39, 110
1, 26784, Note_on_c, 9, 60, 77
1, 26784, Note_on_c, 9, 36, 110
1, 26784, Note_on_c, 1, 47, 120
1, 26784, Note_on_c, 9, 40, 110
1, 26785, Note_on_c, 9, 40, 0
1, 26785, Note_on_c, 9, 36, 0
1, 26785, Note_on_c, 9, 39, 0
1, 26785, Note_on_c, 2, 69, 0
1, 26785, Note_on_c, 9, 60, 0
1, 26785, Note_on_c, 2, 66, 74
1, 26785, Note_on_c, 0, 74, 91
1, 26785, Note_on_c, 0, 78, 71
1, 26785, Note_on_c, 0, 69, 84
1, 26827, Note_on_c, 2, 66, 0
1, 26833, Note_on_c, 9, 42, 42
1, 26834, Note_on_c, 9, 42, 0
1, 26834, Note_on_c, 2, 69, 105
1, 26843, Note_on_c, 0, 78, 0
1, 26849, Note_on_c, 0, 74, 0
1, 26849, Note_on_c, 2, 69, 0
1, 26852, Note_on_c, 0, 69, 0
1, 26870, Note_on_c, 1, 35, 0
1, 26870, Note_on_c, 1, 47, 0
1, 26880, Note_on_c, 0, 66, 96
1, 26880, Note_on_c, 9, 42, 96
1, 26880, Note_on_c, 9, 36, 110
1, 26880, Note_on_c, 1, 28, 104
1, 26881, Note_on_c, 9, 36, 0
1, 26881, Note_on_c, 9, 42, 0
1, 26881, Note_on_c, 0, 71, 81
1, 26881, Note_on_c, 0, 74, 82
1, 26881, Note_on_c, 0, 67, 81
1, 26881, Note_on_c, 9, 43, 84
1, 26881, Note_on_c, 1, 40, 110
1, 26882, Note_on_c, 9, 43, 0
1, 26884, Note_on_c, 4, 71, 0
1, 26927, Note_on_c, 9, 42, 37
1, 26928, Note_on_c, 9, 42, 0
1, 26929, Note_on_c, 2, 67, 66
1, 26930, Note_on_c, 2, 71, 68
1, 26949, Note_on_c, 2, 71, 0
1, 26951, Note_on_c, 2, 71, 74
1, 26972, Note_on_c, 2, 67, 0
1, 26974, Note_on_c, 2, 71, 0
1, 26974, Note_on_c, 2, 67, 99
1, 26974, Note_on_c, 2, 62, 50
1, 26975, Note_on_c, 2, 71, 103
1, 26975, Note_on_c, 9, 42, 110
1, 26976, Note_on_c, 9, 42, 0
1, 26976, Note_on_c, 9, 39, 110
1, 26976, Note_on_c, 9, 60, 77
1, 26976, Note_on_c, 9, 40, 95
1, 26976, Note_on_c, 4, 74, 40
1, 26977, Note_on_c, 9, 40, 0
1, 26977, Note_on_c, 9, 39, 0
1, 26977, Note_on_c, 9, 60, 0
1, 26977, Note_on_c, 3, 74, 84
1, 26977, Lyric_t, "Let "
1, 26982, Note_on_c, 2, 62, 0
1, 26986, Note_on_c, 2, 71, 0
1, 26989, Note_on_c, 2, 67, 0
1, 26992, Note_on_c, 1, 28, 0
1, 26994, Note_on_c, 0, 66, 0
1, 26996, Note_on_c, 1, 40, 0
1, 26999, Note_on_c, 0, 71, 0
1, 27000, Note_on_c, 0, 74, 0
1, 27001, Note_on_c, 0, 67, 0
1, 27023, Note_on_c, 3, 74, 0
1, 27023, Note_on_c, 4, 74, 0
1, 27023, Note_on_c, 2, 62, 80
1, 27023, Note_on_c, 1, 43, 100
1, 27023, Note_on_c, 0, 67, 69
1, 27023, Note_on_c, 1, 31, 114
1, 27023, Note_on_c, 0, 71, 78
1, 27023, Note_on_c, 0, 74, 76
1, 27023, Note_on_c, 0, 66, 78
1, 27024, Note_on_c, 9, 36, 91
1, 27024, Note_on_c, 2, 67, 99
1, 27024, Note_on_c, 9, 42, 44
1, 27024, Note_on_c, 4, 74, 47
1, 27025, Note_on_c, 9, 42, 0
1, 27025, Note_on_c, 9, 36, 0
1, 27025, Lyric_t, "this "
1, 27025, Note_on_c, 3, 74, 83
1, 27026, Note_on_c, 2, 71, 103
1, 27032, Note_on_c, 0, 74, 0
1, 27032, Note_on_c, 0, 67, 0
1, 27034, Note_on_c, 0, 71, 0
1, 27035, Note_on_c, 0, 66, 0
1, 27038, Note_on_c, 2, 62, 0
1, 27039, Note_on_c, 2, 71, 0
1, 27041, Note_on_c, 1, 43, 0
1, 27041, Note_on_c, 1, 31, 0
1, 27042, Note_on_c, 2, 67, 0
1, 27071, Note_on_c, 3, 74, 0
1, 27071, Note_on_c, 0, 71, 81
1, 27071, Note_on_c, 0, 74, 83
1, 27071, Note_on_c, 0, 67, 82
1, 27071, Note_on_c, 0, 66, 87
1, 27071, Note_on_c, 9, 42, 95
1, 27072, Note_on_c, 9, 42, 0
1, 27072, Note_on_c, 4, 74, 0
1, 27072, Note_on_c, 1, 33, 112
1, 27072, Note_on_c, 1, 45, 117
1, 27072, Note_on_c, 4, 71, 21
1, 27072, Note_on_c, 9, 36, 110
1, 27073, Note_on_c, 9, 36, 0
1, 27073, Note_on_c, 3, 71, 85
1, 27073, Lyric_t, "groove "
1, 27119, Note_on_c, 9, 42, 39
1, 27119, Note_on_c, 2, 67, 37
1, 27120, Note_on_c, 9, 42, 0
1, 27121, Note_on_c, 2, 71, 30
1, 27123, Note_on_c, 3, 71, 0
1, 27137, Note_on_c, 2, 71, 0
1, 27143, Note_on_c, 2, 71, 51
1, 27149, Note_on_c, 0, 71, 0
1, 27149, Note_on_c, 0, 74, 0
1, 27150, Note_on_c, 0, 67, 0
1, 27150, Note_on_c, 0, 66, 0
1, 27152, Note_on_c, 1, 33, 0
1, 27158, Note_on_c, 1, 45, 0
1, 27167, Note_on_c, 2, 67, 0
1, 27167, Note_on_c, 9, 42, 110
1, 27167, Note_on_c, 2, 62, 90
1, 27168, Note_on_c, 9, 42, 0
1, 27168, Note_on_c, 2, 71, 0
1, 27168, Note_on_c, 1, 31, 100
1, 27168, Note_on_c, 9, 40, 110
1, 27168, Note_on_c, 0, 71, 81
1, 27168, Note_on_c, 1, 43, 112
1, 27168, Note_on_c, 9, 60, 77
1, 27168, Note_on_c, 0, 67, 79
1, 27168, Note_on_c, 0, 74, 81
1, 27168, Note_on_c, 9, 39, 110
1, 27168, Note_on_c, 9, 36, 110
1, 27169, Note_on_c, 9, 36, 0
1, 27169, Note_on_c, 9, 39, 0
1, 27169, Note_on_c, 9, 60, 0
1, 27169, Note_on_c, 9, 40, 0
1, 27169, Note_on_c, 2, 67, 96
1, 27169, Note_on_c, 0, 66, 87
1, 27169, Note_on_c, 2, 71, 104
1, 27176, Note_on_c, 2, 62, 0
1, 27181, Note_on_c, 2, 71, 0
1, 27182, Note_on_c, 2, 67, 0
1, 27217, Note_on_c, 9, 42, 42
1, 27218, Note_on_c, 9, 42, 0
1, 27228, Note_on_c, 0, 66, 0
1, 27234, Note_on_c, 0, 67, 0
1, 27235, Note_on_c, 0, 71, 0
1, 27236, Note_on_c, 0, 74, 0
1, 27245, Note_on_c, 1, 31, 0
1, 27247, Note_on_c, 1, 43, 0
1, 27263, Note_on_c, 3, 66, 58
1, 27263, Lyric_t, "set "
1, 27264, Note_on_c, 4, 71, 0
1, 27264, Note_on_c, 4, 66, 17
1, 27264, Note_on_c, 9, 36, 110
1, 27264, Note_on_c, 2, 68, 97
1, 27264, Note_on_c, 2, 72, 100
1, 27264, Note_on_c, 9, 42, 96
1, 27265, Note_on_c, 9, 42, 0
1, 27265, Note_on_c, 9, 36, 0
1, 27265, Note_on_c, 1, 30, 97
1, 27265, Note_on_c, 0, 73, 71
1, 27265, Note_on_c, 0, 69, 75
1, 27265, Note_on_c, 0, 76, 83
1, 27265, Note_on_c, 1, 42, 99
1, 27289, Note_on_c, 2, 72, 0
1, 27289, Note_on_c, 2, 73, 62
1, 27290, Note_on_c, 2, 69, 78
1, 27291, Note_on_c, 2, 68, 0
1, 27310, Note_on_c, 3, 66, 0
1, 27311, Note_on_c, 3, 69, 63
1, 27311, Lyric_t, "in "
1, 27311, Note_on_c, 9, 42, 37
1, 27312, Note_on_c, 9, 42, 0
1, 27312, Note_on_c, 4, 66, 0
1, 27312, Note_on_c, 4, 69, 21
1, 27336, Note_on_c, 2, 73, 0
1, 27338, Note_on_c, 2, 73, 94
1, 27353, Note_on_c, 2, 69, 0
1, 27357, Note_on_c, 2, 73, 0
1, 27358, Note_on_c, 3, 69, 0
1, 27358, Note_on_c, 2, 69, 56
1, 27358, Note_on_c, 2, 73, 56
1, 27359, Note_on_c, 3, 73, 92
1, 27359, Lyric_t, "your "
1, 27359, Note_on_c, 9, 42, 110
1, 27360, Note_on_c, 9, 42, 0
1, 27360, Note_on_c, 4, 69, 0
1, 27360, Note_on_c, 4, 73, 32
1, 27360, Note_on_c, 9, 60, 77
1, 27360, Note_on_c, 9, 39, 110
1, 27360, Note_on_c, 9, 40, 95
1, 27361, Note_on_c, 9, 40, 0
1, 27361, Note_on_c, 9, 60, 0
1, 27361, Note_on_c, 9, 39, 0
1, 27365, Note_on_c, 0, 76, 0
1, 27368, Note_on_c, 0, 69, 0
1, 27368, Note_on_c, 2, 73, 0
1, 27368, Note_on_c, 0, 73, 0
1, 27368, Note_on_c, 2, 69, 0
1, 27372, Note_on_c, 1, 30, 0
1, 27375, Note_on_c, 1, 42, 0
1, 27407, Note_on_c, 3, 73, 0
1, 27407, Note_on_c, 0, 69, 78
1, 27407, Lyric_t, ""
1, 27407, Lyric_t, "\015"
1, 27407, Note_on_c, 0, 74, 82
1, 27407, Lyric_t, "shoes, "
1, 27407, Note_on_c, 0, 78, 73
1, 27407, Note_on_c, 3, 71, 80
1, 27408, Note_on_c, 4, 73, 0
1, 27408, Note_on_c, 9, 42, 44
1, 27408, Note_on_c, 1, 47, 110
1, 27408, Note_on_c, 2, 66, 100
1, 27408, Note_on_c, 9, 36, 91
1, 27408, Note_on_c, 2, 62, 82
1, 27408, Note_on_c, 1, 35, 98
1, 27408, Note_on_c, 4, 71, 23
1, 27409, Note_on_c, 9, 36, 0
1, 27409, Note_on_c, 9, 42, 0
1, 27410, Note_on_c, 2, 71, 103
1, 27455, Note_on_c, 9, 42, 95
1, 27456, Note_on_c, 9, 42, 0
1, 27456, Note_on_c, 2, 62, 0
1, 27456, Note_on_c, 9, 36, 110
1, 27457, Note_on_c, 9, 36, 0
1, 27459, Note_on_c, 2, 71, 0
1, 27459, Note_on_c, 2, 66, 0
1, 27482, Note_on_c, 0, 78, 0
1, 27482, Note_on_c, 0, 74, 0
1, 27494, Note_on_c, 0, 69, 0
1, 27496, Note_on_c, 1, 47, 0
1, 27502, Note_on_c, 1, 35, 0
1, 27502, Note_on_c, 3, 71, 0
1, 27503, Note_on_c, 9, 42, 39
1, 27503, Note_on_c, 2, 64, 97
1, 27503, Note_on_c, 1, 45, 97
1, 27503, Note_on_c, 1, 33, 100
1, 27504, Note_on_c, 9, 42, 0
1, 27504, Note_on_c, 4, 71, 0
1, 27504, Note_on_c, 4, 69, 13
1, 27505, Note_on_c, 0, 73, 75
1, 27505, Lyric_t, "so "
1, 27505, Note_on_c, 0, 69, 66
1, 27505, Note_on_c, 0, 76, 68
1, 27505, Note_on_c, 3, 69, 57
1, 27516, Note_on_c, 0, 76, 0
1, 27517, Note_on_c, 0, 69, 0
1, 27519, Note_on_c, 1, 45, 0
1, 27520, Note_on_c, 0, 73, 0
1, 27520, Note_on_c, 1, 33, 0
1, 27549, Note_on_c, 3, 69, 0
1, 27551, Note_on_c, 2, 64, 0
1, 27551, Note_on_c, 3, 74, 90
1, 27551, Note_on_c, 1, 35, 97
1, 27551, Note_on_c, 9, 42, 110
1, 27551, Lyric_t, "stand "
1, 27552, Note_on_c, 9, 42, 0
1, 27552, Note_on_c, 4, 69, 0
1, 27552, Note_on_c, 9, 39, 110
1, 27552, Note_on_c, 2, 66, 62
1, 27552, Note_on_c, 9, 60, 77
1, 27552, Note_on_c, 1, 47, 120
1, 27552, Note_on_c, 9, 36, 110
1, 27552, Note_on_c, 9, 40, 110
1, 27552, Note_on_c, 4, 74, 30
1, 27553, Note_on_c, 9, 40, 0
1, 27553, Note_on_c, 9, 36, 0
1, 27553, Note_on_c, 9, 39, 0
1, 27553, Note_on_c, 9, 60, 0
1, 27553, Note_on_c, 0, 74, 91
1, 27553, Note_on_c, 0, 78, 71
1, 27553, Note_on_c, 0, 69, 84
1, 27600, Note_on_c, 2, 69, 91
1, 27601, Note_on_c, 9, 42, 42
1, 27602, Note_on_c, 9, 42, 0
1, 27602, Note_on_c, 2, 66, 0
1, 27606, Note_on_c, 3, 74, 0
1, 27611, Note_on_c, 0, 78, 0
1, 27617, Note_on_c, 2, 69, 0
1, 27617, Note_on_c, 0, 74, 0
1, 27620, Note_on_c, 0, 69, 0
1, 27638, Note_on_c, 1, 47, 0
1, 27638, Note_on_c, 1, 35, 0
1, 27648, Note_on_c, 4, 74, 0
1, 27648, Note_on_c, 1, 28, 104
1, 27648, Lyric_t, "up, "
1, 27648, Note_on_c, 0, 66, 96
1, 27648, Note_on_c, 9, 42, 96
1, 27648, Note_on_c, 3, 71, 57
1, 27648, Note_on_c, 4, 71, 23
1, 27648, Note_on_c, 9, 36, 110
1, 27649, Note_on_c, 9, 36, 0
1, 27649, Note_on_c, 9, 42, 0
1, 27649, Note_on_c, 0, 71, 81
1, 27649, Note_on_c, 1, 40, 110
1, 27649, Note_on_c, 0, 74, 82
1, 27649, Note_on_c, 9, 43, 86
1, 27649, Note_on_c, 0, 67, 81
1, 27650, Note_on_c, 9, 43, 0
1, 27695, Note_on_c, 9, 42, 37
1, 27695, Note_on_c, 2, 62, 30
1, 27696, Note_on_c, 9, 42, 0
1, 27697, Note_on_c, 2, 67, 83
1, 27698, Note_on_c, 2, 71, 81
1, 27702, Note_on_c, 3, 71, 0
1, 27719, Note_on_c, 2, 71, 0
1, 27721, Note_on_c, 2, 71, 80
1, 27739, Note_on_c, 2, 67, 0
1, 27741, Note_on_c, 2, 71, 0
1, 27742, Note_on_c, 2, 67, 81
1, 27743, Note_on_c, 4, 71, 0
1, 27743, Note_on_c, 9, 42, 110
1, 27743, Note_on_c, 2, 71, 102
1, 27744, Note_on_c, 9, 42, 0
1, 27744, Note_on_c, 4, 64, 25
1, 27744, Note_on_c, 4, 74, 35
1, 27744, Note_on_c, 9, 40, 95
1, 27744, Note_on_c, 4, 78, 32
1, 27744, Note_on_c, 4, 69, 25
1, 27744, Note_on_c, 9, 60, 77
1, 27744, Note_on_c, 9, 39, 110
1, 27745, Note_on_c, 9, 39, 0
1, 27745, Note_on_c, 9, 60, 0
1, 27745, Note_on_c, 9, 40, 0
1, 27745, Note_on_c, 3, 74, 87
1, 27745, Lyric_t, "all "
1, 27746, Note_on_c, 2, 62, 0
1, 27754, Note_on_c, 2, 71, 0
1, 27755, Note_on_c, 2, 67, 0
1, 27760, Note_on_c, 1, 28, 0
1, 27762, Note_on_c, 0, 66, 0
1, 27764, Note_on_c, 1, 40, 0
1, 27767, Note_on_c, 0, 71, 0
1, 27768, Note_on_c, 0, 74, 0
1, 27769, Note_on_c, 0, 67, 0
1, 27791, Note_on_c, 0, 66, 78
1, 27791, Note_on_c, 2, 62, 43
1, 27791, Note_on_c, 0, 71, 78
1, 27791, Note_on_c, 1, 31, 114
1, 27791, Note_on_c, 0, 74, 76
1, 27791, Note_on_c, 1, 43, 100
1, 27791, Note_on_c, 0, 67, 69
1, 27792, Note_on_c, 9, 42, 44
1, 27792, Note_on_c, 9, 36, 91
1, 27793, Note_on_c, 9, 36, 0
1, 27793, Note_on_c, 9, 42, 0
1, 27793, Note_on_c, 2, 67, 99
1, 27794, Note_on_c, 2, 71, 103
1, 27800, Note_on_c, 0, 74, 0
1, 27800, Note_on_c, 0, 67, 0
1, 27802, Note_on_c, 0, 71, 0
1, 27803, Note_on_c, 2, 62, 0
1, 27803, Note_on_c, 0, 66, 0
1, 27808, Note_on_c, 2, 71, 0
1, 27809, Note_on_c, 1, 31, 0
1, 27809, Note_on_c, 1, 43, 0
1, 27810, Note_on_c, 2, 67, 0
1, 27834, Note_on_c, 3, 74, 0
1, 27839, Note_on_c, 0, 71, 81
1, 27839, Note_on_c, 0, 67, 82
1, 27839, Note_on_c, 0, 74, 83
1, 27839, Note_on_c, 0, 66, 87
1, 27839, Note_on_c, 9, 42, 95
1, 27840, Note_on_c, 9, 42, 0
1, 27840, Note_on_c, 4, 78, 0
1, 27840, Note_on_c, 4, 69, 0
1, 27840, Note_on_c, 4, 64, 0
1, 27840, Note_on_c, 4, 74, 0
1, 27840, Note_on_c, 3, 71, 58
1, 27840, Note_on_c, 4, 59, 16
1, 27840, Note_on_c, 4, 76, 16
1, 27840, Lyric_t, "right, "
1, 27840, Note_on_c, 9, 36, 110
1, 27840, Note_on_c, 4, 71, 16
1, 27840, Note_on_c, 1, 45, 117
1, 27840, Note_on_c, 4, 66, 16
1, 27840, Note_on_c, 1, 33, 112
1, 27841, Note_on_c, 9, 36, 0
1, 27887, Note_on_c, 9, 42, 39
1, 27888, Note_on_c, 9, 42, 0
1, 27890, Note_on_c, 2, 67, 79
1, 27891, Note_on_c, 2, 71, 79
1, 27894, Note_on_c, 3, 71, 0
1, 27909, Note_on_c, 2, 71, 0
1, 27913, Note_on_c, 2, 71, 62
1, 27917, Note_on_c, 0, 71, 0
1, 27917, Note_on_c, 0, 74, 0
1, 27918, Note_on_c, 0, 66, 0
1, 27918, Note_on_c, 0, 67, 0
1, 27920, Note_on_c, 1, 33, 0
1, 27926, Note_on_c, 1, 45, 0
1, 27935, Note_on_c, 2, 71, 0
1, 27935, Note_on_c, 2, 67, 0
1, 27935, Note_on_c, 9, 42, 110
1, 27936, Note_on_c, 9, 42, 0
1, 27936, Note_on_c, 9, 40, 110
1, 27936, Note_on_c, 2, 71, 104
1, 27936, Note_on_c, 1, 43, 112
1, 27936, Note_on_c, 9, 60, 77
1, 27936, Note_on_c, 9, 36, 110
1, 27936, Note_on_c, 1, 31, 100
1, 27936, Note_on_c, 9, 39, 110
1, 27936, Note_on_c, 0, 74, 81
1, 27936, Note_on_c, 0, 71, 81
1, 27936, Note_on_c, 2, 67, 99
1, 27936, Note_on_c, 0, 67, 79
1, 27937, Note_on_c, 9, 39, 0
1, 27937, Note_on_c, 9, 36, 0
1, 27937, Note_on_c, 9, 40, 0
1, 27937, Note_on_c, 9, 60, 0
1, 27937, Note_on_c, 0, 66, 87
1, 27950, Note_on_c, 2, 71, 0
1, 27954, Note_on_c, 2, 67, 0
1, 27960, Note_on_c, 4, 59, 0
1, 27960, Note_on_c, 4, 66, 0
1, 27960, Note_on_c, 4, 76, 0
1, 27960, Note_on_c, 4, 71, 0
1, 27985, Note_on_c, 9, 42, 42
1, 27986, Note_on_c, 9, 42, 0
1, 27996, Note_on_c, 0, 66, 0
1, 28002, Note_on_c, 0, 67, 0
1, 28003, Note_on_c, 0, 71, 0
1, 28004, Note_on_c, 0, 74, 0
1, 28013, Note_on_c, 1, 31, 0
1, 28015, Note_on_c, 1, 43, 0
1, 28031, Note_on_c, 2, 63, 43
1, 28032, Note_on_c, 2, 68, 96
1, 28032, Note_on_c, 9, 42, 96
1, 28032, Note_on_c, 9, 36, 110
1, 28032, Note_on_c, 4, 73, 39
1, 28033, Note_on_c, 9, 36, 0
1, 28033, Note_on_c, 9, 42, 0
1, 28033, Note_on_c, 0, 73, 71
1, 28033, Note_on_c, 0, 76, 83
1, 28033, Note_on_c, 3, 73, 100
1, 28033, Note_on_c, 1, 42, 99
1, 28033, Lyric_t, "all "
1, 28033, Note_on_c, 1, 30, 97
1, 28033, Note_on_c, 0, 69, 75
1, 28033, Note_on_c, 2, 72, 101
1, 28048, Note_on_c, 2, 72, 0
1, 28052, Note_on_c, 2, 68, 0
1, 28052, Note_on_c, 2, 73, 87
1, 28054, Note_on_c, 2, 69, 83
1, 28057, Note_on_c, 2, 63, 0
1, 28057, Note_on_c, 2, 64, 57
1, 28079, Note_on_c, 3, 73, 0
1, 28079, Note_on_c, 9, 42, 37
1, 28079, Note_on_c, 3, 69, 66
1, 28080, Note_on_c, 9, 42, 0
1, 28080, Note_on_c, 4, 73, 0
1, 28080, Note_on_c, 4, 69, 20
1, 28105, Note_on_c, 2, 69, 0
1, 28105, Note_on_c, 2, 73, 0
1, 28106, Note_on_c, 2, 69, 74
1, 28106, Note_on_c, 2, 73, 96
1, 28119, Note_on_c, 2, 64, 0
1, 28124, Note_on_c, 2, 69, 0
1, 28127, Note_on_c, 9, 42, 110
1, 28128, Note_on_c, 9, 42, 0
1, 28128, Note_on_c, 4, 69, 0
1, 28128, Note_on_c, 9, 60, 77
1, 28128, Note_on_c, 9, 39, 110
1, 28128, Note_on_c, 9, 40, 95
1, 28128, Note_on_c, 3, 66, 38
1, 28128, Note_on_c, 2, 64, 87
1, 28128, Note_on_c, 2, 69, 87
1, 28128, Note_on_c, 4, 66, 16
1, 28129, Note_on_c, 9, 40, 0
1, 28129, Note_on_c, 9, 39, 0
1, 28129, Note_on_c, 3, 69, 0
1, 28129, Note_on_c, 9, 60, 0
1, 28132, Note_on_c, 2, 73, 0
1, 28133, Note_on_c, 0, 76, 0
1, 28136, Note_on_c, 0, 69, 0
1, 28136, Note_on_c, 0, 73, 0
1, 28139, Note_on_c, 2, 64, 0
1, 28139, Note_on_c, 2, 69, 0
1, 28140, Note_on_c, 1, 30, 0
1, 28143, Note_on_c, 1, 42, 0
1, 28174, Note_on_c, 3, 66, 0
1, 28175, Note_on_c, 0, 78, 73
1, 28175, Note_on_c, 0, 69, 78
1, 28175, Note_on_c, 0, 74, 82
1, 28175, Lyric_t, ""
1, 28175, Lyric_t, "\015"
1, 28175, Note_on_c, 2, 66, 99
1, 28175, Note_on_c, 3, 71, 80
1, 28175, Note_on_c, 2, 62, 78
1, 28175, Lyric_t, "right. "
1, 28176, Note_on_c, 4, 66, 0
1, 28176, Note_on_c, 9, 42, 44
1, 28176, Note_on_c, 1, 47, 110
1, 28176, Note_on_c, 9, 36, 91
1, 28176, Note_on_c, 2, 71, 103
1, 28176, Note_on_c, 1, 35, 98
1, 28176, Note_on_c, 4, 71, 30
1, 28177, Note_on_c, 9, 36, 0
1, 28177, Note_on_c, 9, 42, 0
1, 28217, Note_on_c, 2, 71, 0
1, 28220, Note_on_c, 2, 66, 0
1, 28222, Note_on_c, 2, 62, 0
1, 28223, Note_on_c, 9, 42, 95
1, 28224, Note_on_c, 9, 42, 0
1, 28224, Note_on_c, 9, 36, 110
1, 28225, Note_on_c, 9, 36, 0
1, 28250, Note_on_c, 0, 78, 0
1, 28250, Note_on_c, 0, 74, 0
1, 28262, Note_on_c, 0, 69, 0
1, 28264, Note_on_c, 1, 47, 0
1, 28270, Note_on_c, 1, 35, 0
1, 28270, Note_on_c, 2, 64, 92
1, 28271, Note_on_c, 1, 45, 97
1, 28271, Note_on_c, 9, 46, 87
1, 28271, Note_on_c, 1, 33, 100
1, 28272, Note_on_c, 9, 46, 0
1, 28273, Note_on_c, 0, 73, 75
1, 28273, Note_on_c, 0, 69, 66
1, 28273, Note_on_c, 0, 76, 68
1, 28284, Note_on_c, 0, 76, 0
1, 28285, Note_on_c, 0, 69, 0
1, 28287, Note_on_c, 1, 45, 0
1, 28288, Note_on_c, 1, 33, 0
1, 28288, Note_on_c, 0, 73, 0
1, 28288, Lyric_t, ""
1, 28288, Lyric_t, "\015"
1, 28319, Note_on_c, 1, 35, 97
1, 28319, Note_on_c, 9, 42, 110
1, 28320, Note_on_c, 9, 42, 0
1, 28320, Note_on_c, 2, 64, 0
1, 28320, Note_on_c, 9, 39, 110
1, 28320, Note_on_c, 1, 47, 120
1, 28320, Note_on_c, 9, 36, 110
1, 28320, Note_on_c, 9, 40, 110
1, 28320, Note_on_c, 9, 60, 77
1, 28321, Note_on_c, 9, 60, 0
1, 28321, Note_on_c, 9, 40, 0
1, 28321, Note_on_c, 9, 39, 0
1, 28321, Note_on_c, 9, 36, 0
1, 28321, Note_on_c, 0, 74, 91
1, 28321, Note_on_c, 0, 78, 71
1, 28321, Note_on_c, 0, 69, 84
1, 28321, Note_on_c, 2, 66, 82
1, 28324, Note_on_c, 3, 71, 0
1, 28363, Note_on_c, 2, 66, 0
1, 28367, Note_on_c, 2, 69, 98
1, 28368, Note_on_c, 9, 40, 25
1, 28369, Note_on_c, 9, 40, 0
1, 28369, Note_on_c, 9, 42, 42
1, 28370, Note_on_c, 9, 42, 0
1, 28379, Note_on_c, 0, 78, 0
1, 28385, Note_on_c, 0, 74, 0
1, 28387, Note_on_c, 2, 69, 0
1, 28388, Note_on_c, 0, 69, 0
1, 28392, Note_on_c, 9, 40, 104
1, 28393, Note_on_c, 9, 40, 0
1, 28406, Note_on_c, 1, 47, 0
1, 28406, Note_on_c, 1, 35, 0
1, 28416, Note_on_c, 4, 71, 0
1, 28416, Note_on_c, 5, 71, 69
1, 28416, Note_on_c, 0, 55, 100
1, 28416, Note_on_c, 1, 28, 104
1, 28416, Note_on_c, 5, 66, 56
1, 28416, Note_on_c, 0, 59, 97
1, 28416, Note_on_c, 9, 49, 96
1, 28416, Note_on_c, 0, 62, 96
1, 28416, Note_on_c, 9, 36, 110
1, 28416, Note_on_c, 9, 43, 89
1, 28417, Note_on_c, 9, 43, 0
1, 28417, Note_on_c, 9, 36, 0
1, 28417, Note_on_c, 9, 49, 0
1, 28417, Note_on_c, 0, 67, 81
1, 28417, Note_on_c, 0, 71, 81
1, 28417, Note_on_c, 5, 62, 62
1, 28417, Note_on_c, 1, 40, 110
1, 28417, Note_on_c, 0, 74, 82
1, 28436, Note_on_c, 5, 71, 0
1, 28436, Note_on_c, 5, 66, 0
1, 28437, Note_on_c, 5, 62, 0
1, 28463, Note_on_c, 9, 42, 37
1, 28463, Note_on_c, 2, 62, 59
1, 28464, Note_on_c, 9, 42, 0
1, 28464, Note_on_c, 2, 67, 86
1, 28465, Note_on_c, 5, 71, 59
1, 28465, Note_on_c, 5, 62, 56
1, 28465, Note_on_c, 2, 71, 72
1, 28465, Note_on_c, 5, 66, 53
1, 28483, Note_on_c, 2, 67, 0
1, 28483, Note_on_c, 2, 62, 0
1, 28485, Note_on_c, 5, 71, 0
1, 28485, Note_on_c, 5, 66, 0
1, 28485, Note_on_c, 5, 62, 0
1, 28486, Note_on_c, 2, 71, 0
1, 28488, Note_on_c, 2, 62, 81
1, 28488, Note_on_c, 2, 71, 81
1, 28509, Note_on_c, 2, 71, 0
1, 28509, Note_on_c, 2, 62, 0
1, 28510, Note_on_c, 2, 67, 99
1, 28511, Note_on_c, 2, 71, 101
1, 28511, Note_on_c, 9, 42, 110
1, 28512, Note_on_c, 9, 42, 0
1, 28512, Note_on_c, 4, 74, 47
1, 28512, Note_on_c, 9, 39, 110
1, 28512, Note_on_c, 9, 60, 77
1, 28512, Note_on_c, 9, 40, 95
1, 28513, Note_on_c, 9, 40, 0
1, 28513, Note_on_c, 9, 60, 0
1, 28513, Note_on_c, 9, 39, 0
1, 28513, Note_on_c, 3, 74, 105
1, 28513, Note_on_c, 5, 66, 70
1, 28513, Lyric_t, "Let "
1, 28513, Note_on_c, 5, 62, 70
1, 28513, Note_on_c, 5, 71, 72
1, 28515, Note_on_c, 2, 71, 0
1, 28516, Note_on_c, 2, 67, 0
1, 28528, Note_on_c, 1, 28, 0
1, 28530, Note_on_c, 0, 62, 0
1, 28532, Note_on_c, 0, 59, 0
1, 28532, Note_on_c, 0, 55, 0
1, 28532, Note_on_c, 1, 40, 0
1, 28533, Note_on_c, 5, 62, 0
1, 28533, Note_on_c, 5, 66, 0
1, 28533, Note_on_c, 5, 71, 0
1, 28535, Note_on_c, 0, 71, 0
1, 28536, Note_on_c, 0, 74, 0
1, 28537, Note_on_c, 0, 67, 0
1, 28558, Note_on_c, 3, 74, 0
1, 28559, Note_on_c, 4, 74, 0
1, 28559, Note_on_c, 0, 62, 78
1, 28559, Note_on_c, 0, 74, 76
1, 28559, Note_on_c, 0, 59, 86
1, 28559, Note_on_c, 3, 74, 97
1, 28559, Note_on_c, 0, 71, 78
1, 28559, Note_on_c, 0, 55, 94
1, 28559, Note_on_c, 1, 43, 100
1, 28559, Lyric_t, "this "
1, 28559, Note_on_c, 1, 31, 114
1, 28559, Note_on_c, 0, 67, 69
1, 28560, Note_on_c, 5, 71, 80
1, 28560, Note_on_c, 4, 74, 47
1, 28560, Note_on_c, 9, 42, 44
1, 28560, Note_on_c, 2, 62, 78
1, 28560, Note_on_c, 5, 66, 78
1, 28560, Note_on_c, 5, 62, 71
1, 28560, Note_on_c, 9, 36, 91
1, 28561, Note_on_c, 9, 36, 0
1, 28561, Note_on_c, 9, 42, 0
1, 28561, Note_on_c, 2, 67, 100
1, 28562, Note_on_c, 2, 71, 104
1, 28568, Note_on_c, 0, 74, 0
1, 28568, Note_on_c, 2, 62, 0
1, 28568, Note_on_c, 0, 67, 0
1, 28570, Note_on_c, 2, 71, 0
1, 28570, Note_on_c, 0, 71, 0
1, 28570, Note_on_c, 2, 67, 0
1, 28571, Note_on_c, 0, 55, 0
1, 28571, Note_on_c, 0, 62, 0
1, 28571, Note_on_c, 0, 59, 0
1, 28577, Note_on_c, 1, 31, 0
1, 28577, Note_on_c, 1, 43, 0
1, 28580, Note_on_c, 5, 66, 0
1, 28580, Note_on_c, 5, 71, 0
1, 28580, Note_on_c, 5, 62, 0
1, 28607, Note_on_c, 3, 74, 0
1, 28607, Note_on_c, 3, 71, 85
1, 28607, Note_on_c, 0, 71, 81
1, 28607, Note_on_c, 0, 62, 87
1, 28607, Note_on_c, 0, 74, 83
1, 28607, Note_on_c, 0, 59, 87
1, 28607, Note_on_c, 0, 67, 82
1, 28607, Lyric_t, "groove "
1, 28607, Note_on_c, 9, 42, 95
1, 28607, Note_on_c, 0, 55, 102
1, 28608, Note_on_c, 9, 42, 0
1, 28608, Note_on_c, 4, 74, 0
1, 28608, Note_on_c, 1, 33, 112
1, 28608, Note_on_c, 1, 45, 117
1, 28608, Note_on_c, 9, 36, 110
1, 28608, Note_on_c, 4, 71, 36
1, 28609, Note_on_c, 9, 36, 0
1, 28655, Note_on_c, 9, 42, 39
1, 28656, Note_on_c, 9, 42, 0
1, 28657, Note_on_c, 2, 67, 61
1, 28658, Note_on_c, 2, 62, 19
1, 28658, Note_on_c, 2, 71, 56
1, 28673, Note_on_c, 2, 71, 0
1, 28679, Note_on_c, 2, 71, 47
1, 28685, Note_on_c, 0, 74, 0
1, 28685, Note_on_c, 0, 71, 0
1, 28686, Note_on_c, 0, 62, 0
1, 28686, Note_on_c, 0, 55, 0
1, 28686, Note_on_c, 0, 59, 0
1, 28686, Note_on_c, 0, 67, 0
1, 28688, Note_on_c, 1, 33, 0
1, 28694, Note_on_c, 1, 45, 0
1, 28699, Note_on_c, 3, 71, 0
1, 28701, Note_on_c, 2, 67, 0
1, 28703, Note_on_c, 1, 43, 112
1, 28703, Note_on_c, 9, 42, 110
1, 28703, Note_on_c, 1, 31, 100
1, 28703, Note_on_c, 2, 67, 99
1, 28704, Note_on_c, 9, 42, 0
1, 28704, Note_on_c, 9, 40, 110
1, 28704, Note_on_c, 0, 67, 79
1, 28704, Note_on_c, 0, 71, 81
1, 28704, Note_on_c, 0, 74, 81
1, 28704, Note_on_c, 9, 60, 77
1, 28704, Note_on_c, 9, 39, 110
1, 28704, Note_on_c, 9, 36, 110
1, 28705, Note_on_c, 9, 36, 0
1, 28705, Note_on_c, 9, 40, 0
1, 28705, Note_on_c, 9, 39, 0
1, 28705, Note_on_c, 9, 60, 0
1, 28705, Note_on_c, 0, 59, 93
1, 28705, Note_on_c, 0, 55, 104
1, 28705, Note_on_c, 0, 62, 87
1, 28706, Note_on_c, 2, 71, 0
1, 28709, Note_on_c, 2, 62, 0
1, 28709, Note_on_c, 2, 67, 0
1, 28753, Note_on_c, 9, 42, 42
1, 28754, Note_on_c, 9, 42, 0
1, 28758, Note_on_c, 0, 55, 0
1, 28761, Note_on_c, 0, 59, 0
1, 28764, Note_on_c, 0, 62, 0
1, 28770, Note_on_c, 0, 67, 0
1, 28771, Note_on_c, 0, 71, 0
1, 28772, Note_on_c, 0, 74, 0
1, 28780, Note_on_c, 1, 31, 0
1, 28782, Note_on_c, 1, 43, 0
1, 28799, Note_on_c, 2, 68, 98
1, 28799, Note_on_c, 2, 63, 76
1, 28800, Note_on_c, 4, 71, 0
1, 28800, Note_on_c, 3, 66, 82
1, 28800, Note_on_c, 2, 72, 101
1, 28800, Lyric_t, "get "
1, 28800, Note_on_c, 9, 36, 110
1, 28800, Note_on_c, 4, 66, 27
1, 28800, Note_on_c, 9, 42, 96
1, 28801, Note_on_c, 9, 42, 0
1, 28801, Note_on_c, 9, 36, 0
1, 28801, Note_on_c, 0, 76, 83
1, 28801, Note_on_c, 0, 69, 75
1, 28801, Note_on_c, 0, 73, 71
1, 28801, Note_on_c, 0, 64, 97
1, 28801, Note_on_c, 0, 61, 95
1, 28801, Note_on_c, 1, 30, 97
1, 28801, Note_on_c, 0, 57, 94
1, 28801, Note_on_c, 1, 42, 99
1, 28814, Note_on_c, 2, 72, 0
1, 28817, Note_on_c, 2, 68, 0
1, 28820, Note_on_c, 2, 73, 83
1, 28821, Note_on_c, 2, 63, 0
1, 28821, Note_on_c, 2, 69, 90
1, 28822, Note_on_c, 2, 64, 73
1, 28847, Note_on_c, 3, 66, 0
1, 28847, Note_on_c, 9, 42, 37
1, 28847, Lyric_t, "you "
1, 28847, Note_on_c, 3, 69, 76
1, 28848, Note_on_c, 9, 42, 0
1, 28848, Note_on_c, 4, 66, 0
1, 28848, Note_on_c, 4, 69, 22
1, 28871, Note_on_c, 2, 69, 0
1, 28873, Note_on_c, 2, 73, 0
1, 28874, Note_on_c, 2, 73, 95
1, 28875, Note_on_c, 2, 69, 82
1, 28895, Note_on_c, 2, 64, 0
1, 28895, Note_on_c, 3, 69, 0
1, 28895, Note_on_c, 9, 42, 110
1, 28895, Lyric_t, "to "
1, 28895, Note_on_c, 3, 73, 80
1, 28896, Note_on_c, 9, 42, 0
1, 28896, Note_on_c, 4, 69, 0
1, 28896, Note_on_c, 2, 73, 0
1, 28896, Note_on_c, 2, 69, 0
1, 28896, Note_on_c, 9, 40, 95
1, 28896, Note_on_c, 4, 73, 34
1, 28896, Note_on_c, 9, 60, 77
1, 28896, Note_on_c, 9, 39, 110
1, 28897, Note_on_c, 9, 39, 0
1, 28897, Note_on_c, 9, 60, 0
1, 28897, Note_on_c, 9, 40, 0
1, 28897, Note_on_c, 2, 73, 82
1, 28897, Note_on_c, 2, 69, 82
1, 28901, Note_on_c, 0, 76, 0
1, 28904, Note_on_c, 0, 73, 0
1, 28904, Note_on_c, 0, 69, 0
1, 28907, Note_on_c, 0, 61, 0
1, 28908, Note_on_c, 0, 64, 0
1, 28908, Note_on_c, 2, 73, 0
1, 28908, Note_on_c, 1, 30, 0
1, 28908, Note_on_c, 0, 57, 0
1, 28908, Note_on_c, 2, 69, 0
1, 28911, Note_on_c, 1, 42, 0
1, 28942, Note_on_c, 3, 73, 0
1, 28943, Note_on_c, 0, 74, 82
1, 28943, Lyric_t, ""
1, 28943, Lyric_t, "\015"
1, 28943, Note_on_c, 0, 69, 78
1, 28943, Lyric_t, "move, "
1, 28943, Note_on_c, 3, 71, 91
1, 28943, Note_on_c, 0, 78, 73
1, 28944, Note_on_c, 4, 73, 0
1, 28944, Note_on_c, 1, 47, 110
1, 28944, Note_on_c, 0, 57, 97
1, 28944, Note_on_c, 1, 35, 98
1, 28944, Note_on_c, 9, 36, 91
1, 28944, Note_on_c, 4, 71, 26
1, 28944, Note_on_c, 0, 62, 110
1, 28944, Note_on_c, 9, 42, 44
1, 28944, Note_on_c, 0, 66, 99
1, 28945, Note_on_c, 9, 42, 0
1, 28945, Note_on_c, 9, 36, 0
1, 28945, Note_on_c, 2, 71, 104
1, 28945, Note_on_c, 2, 62, 78
1, 28945, Note_on_c, 2, 66, 101
1, 28983, Note_on_c, 2, 62, 0
1, 28987, Note_on_c, 2, 71, 0
1, 28990, Note_on_c, 2, 66, 0
1, 28991, Note_on_c, 9, 42, 95
1, 28992, Note_on_c, 9, 42, 0
1, 28992, Note_on_c, 9, 36, 110
1, 28993, Note_on_c, 9, 36, 0
1, 29015, Note_on_c, 0, 62, 0
1, 29018, Note_on_c, 0, 74, 0
1, 29018, Note_on_c, 0, 78, 0
1, 29018, Note_on_c, 0, 66, 0
1, 29022, Note_on_c, 0, 57, 0
1, 29030, Note_on_c, 0, 69, 0
1, 29032, Note_on_c, 1, 47, 0
1, 29038, Note_on_c, 3, 71, 0
1, 29038, Note_on_c, 1, 35, 0
1, 29039, Note_on_c, 0, 64, 87
1, 29039, Note_on_c, 1, 33, 100
1, 29039, Note_on_c, 0, 57, 84
1, 29039, Note_on_c, 1, 45, 97
1, 29039, Note_on_c, 9, 42, 39
1, 29039, Note_on_c, 3, 69, 72
1, 29039, Note_on_c, 0, 61, 88
1, 29039, Lyric_t, "it's "
1, 29040, Note_on_c, 9, 42, 0
1, 29040, Note_on_c, 4, 71, 0
1, 29040, Note_on_c, 2, 64, 103
1, 29040, Note_on_c, 4, 69, 12
1, 29041, Note_on_c, 0, 73, 75
1, 29041, Note_on_c, 0, 76, 68
1, 29041, Note_on_c, 0, 69, 66
1, 29052, Note_on_c, 0, 76, 0
1, 29053, Note_on_c, 0, 69, 0
1, 29054, Note_on_c, 0, 64, 0
1, 29054, Note_on_c, 0, 61, 0
1, 29055, Note_on_c, 1, 45, 0
1, 29056, Note_on_c, 0, 73, 0
1, 29056, Note_on_c, 1, 33, 0
1, 29056, Note_on_c, 0, 57, 0
1, 29086, Note_on_c, 3, 69, 0
1, 29087, Note_on_c, 3, 74, 101
1, 29087, Note_on_c, 0, 57, 100
1, 29087, Note_on_c, 0, 62, 118
1, 29087, Note_on_c, 9, 42, 110
1, 29087, Lyric_t, "all "
1, 29087, Note_on_c, 0, 66, 107
1, 29087, Note_on_c, 1, 35, 97
1, 29088, Note_on_c, 9, 42, 0
1, 29088, Note_on_c, 4, 69, 0
1, 29088, Note_on_c, 2, 64, 0
1, 29088, Note_on_c, 4, 74, 35
1, 29088, Note_on_c, 9, 60, 77
1, 29088, Note_on_c, 2, 66, 93
1, 29088, Note_on_c, 1, 47, 120
1, 29088, Note_on_c, 9, 39, 110
1, 29088, Note_on_c, 9, 40, 110
1, 29088, Note_on_c, 9, 36, 110
1, 29089, Note_on_c, 9, 36, 0
1, 29089, Note_on_c, 9, 39, 0
1, 29089, Note_on_c, 9, 60, 0
1, 29089, Note_on_c, 9, 40, 0
1, 29089, Note_on_c, 0, 69, 84
1, 29089, Note_on_c, 0, 74, 91
1, 29089, Note_on_c, 0, 78, 71
1, 29114, Note_on_c, 2, 66, 0
1, 29137, Note_on_c, 2, 69, 103
1, 29137, Note_on_c, 9, 42, 42
1, 29138, Note_on_c, 9, 42, 0
1, 29147, Note_on_c, 0, 78, 0
1, 29152, Note_on_c, 2, 69, 0
1, 29153, Note_on_c, 0, 74, 0
1, 29156, Note_on_c, 0, 69, 0
1, 29164, Note_on_c, 0, 62, 0
1, 29164, Note_on_c, 0, 66, 0
1, 29164, Note_on_c, 0, 57, 0
1, 29174, Note_on_c, 1, 35, 0
1, 29174, Note_on_c, 1, 47, 0
1, 29178, Note_on_c, 3, 74, 0
1, 29184, Note_on_c, 4, 74, 0
1, 29184, Note_on_c, 3, 71, 73
1, 29184, Note_on_c, 0, 62, 96
1, 29184, Note_on_c, 0, 59, 97
1, 29184, Note_on_c, 4, 71, 1
1, 29184, Note_on_c, 0, 55, 100
1, 29184, Note_on_c, 9, 36, 110
1, 29184, Note_on_c, 9, 42, 96
1, 29184, Note_on_c, 1, 28, 104
1, 29184, Lyric_t, "right, "
1, 29185, Note_on_c, 9, 42, 0
1, 29185, Note_on_c, 9, 36, 0
1, 29185, Note_on_c, 0, 74, 83
1, 29185, Note_on_c, 1, 40, 110
1, 29185, Note_on_c, 0, 67, 83
1, 29185, Note_on_c, 5, 62, 46
1, 29185, Note_on_c, 0, 71, 81
1, 29185, Note_on_c, 9, 43, 86
1, 29185, Note_on_c, 5, 71, 57
1, 29185, Note_on_c, 5, 66, 49
1, 29186, Note_on_c, 9, 43, 0
1, 29205, Note_on_c, 5, 66, 0
1, 29205, Note_on_c, 5, 62, 0
1, 29205, Note_on_c, 5, 71, 0
1, 29231, Note_on_c, 9, 42, 37
1, 29232, Note_on_c, 9, 42, 0
1, 29232, Note_on_c, 2, 62, 74
1, 29233, Note_on_c, 2, 67, 99
1, 29233, Note_on_c, 5, 66, 61
1, 29234, Note_on_c, 5, 71, 65
1, 29234, Note_on_c, 2, 71, 92
1, 29234, Note_on_c, 5, 62, 54
1, 29236, Note_on_c, 3, 71, 0
1, 29248, Note_on_c, 2, 71, 0
1, 29253, Note_on_c, 5, 66, 0
1, 29254, Note_on_c, 5, 62, 0
1, 29254, Note_on_c, 5, 71, 0
1, 29255, Note_on_c, 2, 67, 0
1, 29257, Note_on_c, 2, 67, 88
1, 29257, Note_on_c, 2, 71, 91
1, 29276, Note_on_c, 2, 67, 0
1, 29277, Note_on_c, 2, 71, 0
1, 29279, Note_on_c, 9, 42, 110
1, 29279, Note_on_c, 2, 67, 100
1, 29280, Note_on_c, 9, 42, 0
1, 29280, Note_on_c, 4, 71, 0
1, 29280, Note_on_c, 4, 74, 37
1, 29280, Note_on_c, 9, 39, 110
1, 29280, Note_on_c, 9, 40, 95
1, 29280, Note_on_c, 9, 60, 77
1, 29281, Note_on_c, 9, 60, 0
1, 29281, Note_on_c, 9, 40, 0
1, 29281, Note_on_c, 9, 39, 0
1, 29281, Note_on_c, 3, 74, 103
1, 29281, Lyric_t, "all "
1, 29281, Note_on_c, 5, 66, 74
1, 29281, Note_on_c, 5, 71, 76
1, 29281, Note_on_c, 5, 62, 68
1, 29283, Note_on_c, 2, 67, 0
1, 29284, Note_on_c, 2, 62, 0
1, 29296, Note_on_c, 1, 28, 0
1, 29298, Note_on_c, 0, 67, 0
1, 29298, Note_on_c, 0, 71, 0
1, 29298, Note_on_c, 0, 62, 0
1, 29300, Note_on_c, 0, 55, 0
1, 29300, Note_on_c, 0, 59, 0
1, 29300, Note_on_c, 1, 40, 0
1, 29301, Note_on_c, 5, 71, 0
1, 29301, Note_on_c, 0, 74, 0
1, 29301, Note_on_c, 5, 66, 0
1, 29301, Note_on_c, 5, 62, 0
1, 29327, Note_on_c, 1, 31, 114
1, 29327, Note_on_c, 0, 55, 94
1, 29327, Note_on_c, 2, 67, 99
1, 29327, Note_on_c, 1, 43, 100
1, 29327, Note_on_c, 0, 62, 78
1, 29327, Note_on_c, 2, 62, 82
1, 29327, Note_on_c, 0, 59, 86
1, 29328, Note_on_c, 2, 71, 102
1, 29328, Note_on_c, 9, 36, 91
1, 29328, Note_on_c, 9, 42, 44
1, 29329, Note_on_c, 9, 42, 0
1, 29329, Note_on_c, 9, 36, 0
1, 29329, Note_on_c, 0, 74, 76
1, 29329, Note_on_c, 0, 71, 76
1, 29329, Note_on_c, 5, 62, 77
1, 29329, Note_on_c, 5, 71, 80
1, 29329, Note_on_c, 5, 66, 84
1, 29329, Note_on_c, 0, 67, 71
1, 29336, Note_on_c, 0, 67, 0
1, 29336, Note_on_c, 0, 71, 0
1, 29336, Note_on_c, 0, 74, 0
1, 29338, Note_on_c, 2, 71, 0
1, 29338, Note_on_c, 2, 62, 0
1, 29339, Note_on_c, 0, 62, 0
1, 29339, Note_on_c, 0, 59, 0
1, 29339, Note_on_c, 0, 55, 0
1, 29343, Note_on_c, 2, 67, 0
1, 29345, Note_on_c, 1, 31, 0
1, 29345, Note_on_c, 1, 43, 0
1, 29349, Note_on_c, 5, 71, 0
1, 29349, Note_on_c, 5, 62, 0
1, 29349, Note_on_c, 5, 66, 0
1, 29370, Note_on_c, 3, 74, 0
1, 29375, Note_on_c, 9, 42, 95
1, 29375, Note_on_c, 0, 59, 87
1, 29375, Note_on_c, 0, 55, 102
1, 29375, Note_on_c, 0, 62, 87
1, 29376, Note_on_c, 9, 42, 0
1, 29376, Note_on_c, 4, 74, 0
1, 29376, Note_on_c, 1, 33, 112
1, 29376, Note_on_c, 9, 36, 110
1, 29376, Note_on_c, 1, 45, 117
1, 29376, Note_on_c, 4, 71, 10
1, 29377, Note_on_c, 9, 36, 0
1, 29377, Note_on_c, 0, 67, 76
1, 29377, Note_on_c, 0, 74, 80
1, 29377, Note_on_c, 3, 71, 81
1, 29377, Note_on_c, 0, 71, 79
1, 29377, Lyric_t, "right, "
1, 29423, Note_on_c, 9, 42, 39
1, 29424, Note_on_c, 9, 42, 0
1, 29447, Note_on_c, 2, 71, 40
1, 29448, Note_on_c, 0, 74, 0
1, 29450, Note_on_c, 0, 67, 0
1, 29450, Note_on_c, 0, 71, 0
1, 29454, Note_on_c, 0, 62, 0
1, 29454, Note_on_c, 0, 55, 0
1, 29454, Note_on_c, 0, 59, 0
1, 29456, Note_on_c, 1, 33, 0
1, 29462, Note_on_c, 1, 45, 0
1, 29466, Note_on_c, 2, 71, 0
1, 29470, Note_on_c, 2, 62, 61
1, 29471, Note_on_c, 9, 42, 110
1, 29471, Note_on_c, 2, 71, 99
1, 29471, Note_on_c, 2, 67, 99
1, 29472, Note_on_c, 9, 42, 0
1, 29472, Note_on_c, 9, 40, 110
1, 29472, Note_on_c, 9, 60, 77
1, 29472, Note_on_c, 9, 36, 110
1, 29472, Note_on_c, 9, 39, 110
1, 29472, Note_on_c, 1, 31, 100
1, 29472, Note_on_c, 1, 43, 112
1, 29473, Note_on_c, 9, 39, 0
1, 29473, Note_on_c, 9, 36, 0
1, 29473, Note_on_c, 9, 60, 0
1, 29473, Note_on_c, 9, 40, 0
1, 29473, Note_on_c, 0, 74, 78
1, 29473, Note_on_c, 0, 55, 104
1, 29473, Note_on_c, 0, 71, 78
1, 29473, Note_on_c, 0, 62, 87
1, 29473, Note_on_c, 0, 67, 76
1, 29473, Note_on_c, 0, 59, 93
1, 29474, Note_on_c, 3, 71, 0
1, 29480, Note_on_c, 2, 62, 0
1, 29484, Note_on_c, 2, 71, 0
1, 29488, Note_on_c, 2, 67, 0
1, 29521, Note_on_c, 9, 42, 42
1, 29522, Note_on_c, 9, 42, 0
1, 29526, Note_on_c, 0, 55, 0
1, 29529, Note_on_c, 0, 59, 0
1, 29532, Note_on_c, 0, 62, 0
1, 29536, Note_on_c, 0, 67, 0
1, 29538, Note_on_c, 0, 71, 0
1, 29540, Note_on_c, 0, 74, 0
1, 29549, Note_on_c, 1, 31, 0
1, 29551, Note_on_c, 1, 43, 0
1, 29567, Note_on_c, 3, 73, 103
1, 29567, Lyric_t, "all "
1, 29567, Note_on_c, 0, 76, 77
1, 29567, Note_on_c, 0, 69, 70
1, 29567, Note_on_c, 0, 73, 73
1, 29568, Note_on_c, 4, 71, 0
1, 29568, Note_on_c, 9, 36, 110
1, 29568, Note_on_c, 9, 42, 96
1, 29568, Note_on_c, 2, 63, 47
1, 29568, Note_on_c, 4, 73, 49
1, 29569, Note_on_c, 9, 42, 0
1, 29569, Note_on_c, 9, 36, 0
1, 29569, Note_on_c, 2, 72, 87
1, 29569, Note_on_c, 0, 57, 94
1, 29569, Note_on_c, 1, 30, 97
1, 29569, Note_on_c, 0, 61, 95
1, 29569, Note_on_c, 2, 68, 87
1, 29569, Note_on_c, 1, 42, 99
1, 29569, Note_on_c, 0, 64, 97
1, 29588, Note_on_c, 2, 72, 0
1, 29593, Note_on_c, 2, 64, 65
1, 29593, Note_on_c, 2, 69, 65
1, 29593, Note_on_c, 2, 73, 65
1, 29594, Note_on_c, 2, 68, 0
1, 29598, Note_on_c, 2, 63, 0
1, 29615, Note_on_c, 3, 73, 0
1, 29615, Note_on_c, 3, 69, 57
1, 29615, Note_on_c, 9, 42, 37
1, 29616, Note_on_c, 9, 42, 0
1, 29616, Note_on_c, 4, 73, 0
1, 29616, Note_on_c, 4, 69, 20
1, 29639, Note_on_c, 2, 73, 0
1, 29642, Note_on_c, 2, 64, 0
1, 29642, Note_on_c, 2, 69, 0
1, 29642, Note_on_c, 2, 73, 94
1, 29643, Note_on_c, 2, 64, 63
1, 29643, Note_on_c, 2, 69, 87
1, 29661, Note_on_c, 2, 69, 0
1, 29663, Note_on_c, 2, 64, 0
1, 29663, Note_on_c, 3, 69, 0
1, 29663, Note_on_c, 3, 66, 45
1, 29663, Note_on_c, 9, 42, 110
1, 29664, Note_on_c, 9, 42, 0
1, 29664, Note_on_c, 4, 69, 0
1, 29664, Note_on_c, 4, 66, 6
1, 29664, Note_on_c, 2, 64, 95
1, 29664, Note_on_c, 9, 39, 110
1, 29664, Note_on_c, 9, 60, 77
1, 29664, Note_on_c, 9, 40, 95
1, 29664, Note_on_c, 2, 69, 95
1, 29665, Note_on_c, 9, 40, 0
1, 29665, Note_on_c, 9, 60, 0
1, 29665, Note_on_c, 9, 39, 0
1, 29668, Note_on_c, 0, 76, 0
1, 29668, Note_on_c, 2, 73, 0
1, 29669, Note_on_c, 0, 73, 0
1, 29671, Note_on_c, 0, 69, 0
1, 29674, Note_on_c, 2, 69, 0
1, 29674, Note_on_c, 2, 64, 0
1, 29675, Note_on_c, 0, 61, 0
1, 29676, Note_on_c, 0, 57, 0
1, 29676, Note_on_c, 0, 64, 0
1, 29676, Note_on_c, 1, 30, 0
1, 29679, Note_on_c, 1, 42, 0
1, 29710, Note_on_c, 3, 66, 0
1, 29711, Lyric_t, ""
1, 29711, Lyric_t, "\015"
1, 29711, Lyric_t, "right. "
1, 29711, Note_on_c, 0, 78, 76
1, 29711, Note_on_c, 3, 71, 85
1, 29712, Note_on_c, 4, 66, 0
1, 29712, Note_on_c, 0, 57, 97
1, 29712, Note_on_c, 1, 35, 98
1, 29712, Note_on_c, 9, 36, 91
1, 29712, Note_on_c, 2, 66, 101
1, 29712, Note_on_c, 1, 47, 110
1, 29712, Note_on_c, 0, 66, 99
1, 29712, Note_on_c, 0, 69, 79
1, 29712, Note_on_c, 2, 62, 63
1, 29712, Note_on_c, 9, 42, 44
1, 29712, Note_on_c, 4, 71, 28
1, 29712, Note_on_c, 0, 62, 110
1, 29713, Note_on_c, 9, 42, 0
1, 29713, Note_on_c, 9, 36, 0
1, 29713, Note_on_c, 0, 74, 84
1, 29714, Note_on_c, 2, 71, 103
1, 29746, Note_on_c, 2, 71, 0
1, 29752, Note_on_c, 2, 66, 0
1, 29759, Note_on_c, 9, 42, 95
1, 29760, Note_on_c, 9, 42, 0
1, 29760, Note_on_c, 2, 62, 0
1, 29760, Note_on_c, 9, 36, 110
1, 29761, Note_on_c, 9, 36, 0
1, 29780, Note_on_c, 0, 78, 0
1, 29781, Note_on_c, 0, 74, 0
1, 29783, Note_on_c, 0, 62, 0
1, 29786, Note_on_c, 0, 66, 0
1, 29786, Note_on_c, 2, 69, 58
1, 29788, Note_on_c, 2, 69, 0
1, 29790, Note_on_c, 0, 57, 0
1, 29791, Note_on_c, 0, 69, 0
1, 29800, Note_on_c, 1, 47, 0
1, 29806, Note_on_c, 1, 35, 0
1, 29807, Note_on_c, 0, 57, 84
1, 29807, Note_on_c, 1, 33, 100
1, 29807, Note_on_c, 0, 61, 88
1, 29807, Note_on_c, 9, 42, 39
1, 29807, Note_on_c, 1, 45, 97
1, 29807, Note_on_c, 0, 64, 87
1, 29808, Note_on_c, 9, 42, 0
1, 29809, Note_on_c, 2, 64, 101
1, 29809, Note_on_c, 0, 76, 76
1, 29809, Note_on_c, 0, 69, 63
1, 29809, Note_on_c, 0, 73, 68
1, 29810, Note_on_c, 2, 69, 51
1, 29819, Note_on_c, 0, 69, 0
1, 29821, Note_on_c, 0, 73, 0
1, 29821, Note_on_c, 0, 76, 0
1, 29822, Note_on_c, 0, 64, 0
1, 29822, Note_on_c, 0, 61, 0
1, 29823, Note_on_c, 1, 45, 0
1, 29824, Note_on_c, 1, 33, 0
1, 29824, Note_on_c, 0, 57, 0
1, 29824, Lyric_t, ""
1, 29824, Lyric_t, "\015"
1, 29854, Note_on_c, 3, 71, 0
1, 29855, Note_on_c, 9, 42, 110
1, 29855, Note_on_c, 0, 66, 107
1, 29855, Note_on_c, 1, 35, 97
1, 29855, Note_on_c, 0, 62, 118
1, 29855, Note_on_c, 0, 57, 100
1, 29856, Note_on_c, 9, 42, 0
1, 29856, Note_on_c, 2, 64, 0
1, 29856, Note_on_c, 9, 40, 110
1, 29856, Note_on_c, 9, 39, 110
1, 29856, Note_on_c, 9, 36, 110
1, 29856, Note_on_c, 1, 47, 120
1, 29856, Note_on_c, 9, 60, 77
1, 29857, Note_on_c, 9, 60, 0
1, 29857, Note_on_c, 9, 36, 0
1, 29857, Note_on_c, 9, 40, 0
1, 29857, Note_on_c, 9, 39, 0
1, 29857, Note_on_c, 2, 69, 0
1, 29857, Note_on_c, 0, 78, 82
1, 29857, Note_on_c, 2, 66, 74
1, 29857, Note_on_c, 0, 74, 94
1, 29857, Note_on_c, 0, 69, 86
1, 29899, Note_on_c, 2, 66, 0
1, 29905, Note_on_c, 9, 42, 42
1, 29906, Note_on_c, 9, 42, 0
1, 29906, Note_on_c, 2, 69, 105
1, 29911, Note_on_c, 0, 78, 0
1, 29913, Note_on_c, 0, 74, 0
1, 29920, Note_on_c, 0, 69, 0
1, 29921, Note_on_c, 2, 69, 0
1, 29932, Note_on_c, 0, 62, 0
1, 29932, Note_on_c, 0, 66, 0
1, 29932, Note_on_c, 0, 57, 0
1, 29942, Note_on_c, 1, 35, 0
1, 29942, Note_on_c, 1, 47, 0
1, 29951, Note_on_c, 0, 74, 72
1, 29952, Note_on_c, 1, 28, 104
1, 29952, Note_on_c, 9, 36, 110
1, 29952, Note_on_c, 0, 59, 97
1, 29952, Note_on_c, 0, 62, 96
1, 29952, Note_on_c, 0, 55, 100
1, 29952, Note_on_c, 9, 42, 96
1, 29953, Note_on_c, 9, 42, 0
1, 29953, Note_on_c, 9, 36, 0
1, 29953, Note_on_c, 1, 40, 110
1, 29953, Note_on_c, 9, 43, 84
1, 29953, Note_on_c, 5, 71, 58
1, 29953, Note_on_c, 5, 66, 51
1, 29953, Note_on_c, 0, 71, 76
1, 29953, Note_on_c, 0, 67, 78
1, 29953, Note_on_c, 5, 62, 47
1, 29954, Note_on_c, 9, 43, 0
1, 29958, Note_on_c, 4, 71, 0
1, 29973, Note_on_c, 5, 71, 0
1, 29973, Note_on_c, 5, 66, 0
1, 29973, Note_on_c, 5, 62, 0
1, 29999, Note_on_c, 9, 42, 37
1, 30000, Note_on_c, 9, 42, 0
1, 30001, Note_on_c, 5, 66, 61
1, 30001, Note_on_c, 2, 67, 66
1, 30001, Note_on_c, 5, 62, 60
1, 30001, Note_on_c, 5, 71, 67
1, 30002, Note_on_c, 2, 71, 68
1, 30021, Note_on_c, 2, 71, 0
1, 30021, Note_on_c, 5, 66, 0
1, 30021, Note_on_c, 5, 71, 0
1, 30021, Note_on_c, 5, 62, 0
1, 30023, Note_on_c, 2, 71, 74
1, 30044, Note_on_c, 2, 67, 0
1, 30046, Note_on_c, 2, 71, 0
1, 30046, Note_on_c, 2, 67, 99
1, 30046, Note_on_c, 2, 62, 50
1, 30047, Note_on_c, 2, 71, 103
1, 30047, Note_on_c, 9, 42, 110
1, 30048, Note_on_c, 9, 42, 0
1, 30048, Note_on_c, 4, 74, 40
1, 30048, Note_on_c, 9, 60, 77
1, 30048, Note_on_c, 9, 39, 110
1, 30048, Note_on_c, 9, 40, 95
1, 30049, Note_on_c, 9, 40, 0
1, 30049, Note_on_c, 9, 39, 0
1, 30049, Note_on_c, 9, 60, 0
1, 30049, Lyric_t, "Let "
1, 30049, Note_on_c, 3, 74, 84
1, 30049, Note_on_c, 5, 66, 84
1, 30049, Note_on_c, 5, 62, 72
1, 30049, Note_on_c, 5, 71, 80
1, 30054, Note_on_c, 2, 62, 0
1, 30058, Note_on_c, 2, 71, 0
1, 30061, Note_on_c, 2, 67, 0
1, 30064, Note_on_c, 1, 28, 0
1, 30066, Note_on_c, 0, 62, 0
1, 30068, Note_on_c, 0, 55, 0
1, 30068, Note_on_c, 0, 59, 0
1, 30068, Note_on_c, 1, 40, 0
1, 30069, Note_on_c, 5, 71, 0
1, 30069, Note_on_c, 5, 66, 0
1, 30069, Note_on_c, 5, 62, 0
1, 30074, Note_on_c, 0, 71, 0
1, 30076, Note_on_c, 0, 67, 0
1, 30079, Note_on_c, 0, 74, 0
1, 30095, Note_on_c, 4, 74, 0
1, 30095, Note_on_c, 3, 74, 0
1, 30095, Note_on_c, 2, 62, 80
1, 30095, Note_on_c, 1, 31, 114
1, 30095, Note_on_c, 0, 55, 94
1, 30095, Note_on_c, 0, 59, 86
1, 30095, Note_on_c, 1, 43, 100
1, 30095, Note_on_c, 0, 62, 78
1, 30096, Note_on_c, 9, 36, 91
1, 30096, Note_on_c, 2, 67, 99
1, 30096, Note_on_c, 4, 74, 47
1, 30096, Note_on_c, 9, 42, 44
1, 30097, Note_on_c, 9, 42, 0
1, 30097, Note_on_c, 9, 36, 0
1, 30097, Note_on_c, 0, 74, 69
1, 30097, Note_on_c, 0, 71, 71
1, 30097, Note_on_c, 3, 74, 83
1, 30097, Note_on_c, 5, 62, 77
1, 30097, Note_on_c, 0, 67, 73
1, 30097, Note_on_c, 5, 66, 87
1, 30097, Note_on_c, 5, 71, 83
1, 30097, Lyric_t, "this "
1, 30098, Note_on_c, 2, 71, 103
1, 30103, Note_on_c, 0, 74, 0
1, 30107, Note_on_c, 0, 71, 0
1, 30107, Note_on_c, 0, 55, 0
1, 30107, Note_on_c, 0, 62, 0
1, 30107, Note_on_c, 0, 59, 0
1, 30108, Note_on_c, 0, 67, 0
1, 30110, Note_on_c, 2, 62, 0
1, 30111, Note_on_c, 2, 71, 0
1, 30113, Note_on_c, 1, 31, 0
1, 30113, Note_on_c, 1, 43, 0
1, 30114, Note_on_c, 2, 67, 0
1, 30117, Note_on_c, 5, 66, 0
1, 30117, Note_on_c, 5, 71, 0
1, 30117, Note_on_c, 5, 62, 0
1, 30143, Note_on_c, 3, 74, 0
1, 30143, Note_on_c, 0, 55, 102
1, 30143, Note_on_c, 9, 42, 95
1, 30143, Note_on_c, 0, 59, 87
1, 30143, Note_on_c, 0, 62, 87
1, 30144, Note_on_c, 9, 42, 0
1, 30144, Note_on_c, 4, 74, 0
1, 30144, Note_on_c, 9, 36, 110
1, 30144, Note_on_c, 1, 45, 117
1, 30144, Note_on_c, 4, 71, 21
1, 30144, Note_on_c, 1, 33, 112
1, 30145, Note_on_c, 9, 36, 0
1, 30145, Note_on_c, 3, 71, 85
1, 30145, Note_on_c, 0, 67, 84
1, 30145, Note_on_c, 0, 74, 84
1, 30145, Note_on_c, 0, 71, 88
1, 30145, Lyric_t, "groove "
1, 30191, Note_on_c, 9, 42, 39
1, 30191, Note_on_c, 2, 67, 37
1, 30192, Note_on_c, 9, 42, 0
1, 30193, Note_on_c, 2, 71, 30
1, 30195, Note_on_c, 3, 71, 0
1, 30209, Note_on_c, 2, 71, 0
1, 30210, Note_on_c, 0, 71, 0
1, 30212, Note_on_c, 0, 67, 0
1, 30212, Note_on_c, 0, 74, 0
1, 30215, Note_on_c, 2, 71, 51
1, 30222, Note_on_c, 0, 62, 0
1, 30222, Note_on_c, 0, 55, 0
1, 30222, Note_on_c, 0, 59, 0
1, 30224, Note_on_c, 1, 33, 0
1, 30230, Note_on_c, 1, 45, 0
1, 30239, Note_on_c, 2, 67, 0
1, 30239, Note_on_c, 0, 74, 87
1, 30239, Note_on_c, 2, 62, 90
1, 30239, Note_on_c, 0, 71, 87
1, 30239, Note_on_c, 9, 42, 110
1, 30239, Note_on_c, 0, 67, 86
1, 30240, Note_on_c, 9, 42, 0
1, 30240, Note_on_c, 2, 71, 0
1, 30240, Note_on_c, 9, 60, 77
1, 30240, Note_on_c, 1, 31, 100
1, 30240, Note_on_c, 1, 43, 112
1, 30240, Note_on_c, 9, 39, 110
1, 30240, Note_on_c, 9, 40, 110
1, 30240, Note_on_c, 9, 36, 110
1, 30241, Note_on_c, 9, 36, 0
1, 30241, Note_on_c, 9, 60, 0
1, 30241, Note_on_c, 9, 40, 0
1, 30241, Note_on_c, 9, 39, 0
1, 30241, Note_on_c, 2, 71, 104
1, 30241, Note_on_c, 0, 55, 104
1, 30241, Note_on_c, 0, 59, 93
1, 30241, Note_on_c, 2, 67, 96
1, 30241, Note_on_c, 0, 62, 87
1, 30248, Note_on_c, 2, 62, 0
1, 30253, Note_on_c, 2, 71, 0
1, 30254, Note_on_c, 2, 67, 0
1, 30289, Note_on_c, 9, 42, 42
1, 30290, Note_on_c, 9, 42, 0
1, 30294, Note_on_c, 0, 55, 0
1, 30297, Note_on_c, 0, 59, 0
1, 30299, Note_on_c, 0, 67, 0
1, 30300, Note_on_c, 0, 71, 0
1, 30300, Note_on_c, 0, 62, 0
1, 30304, Note_on_c, 0, 74, 0
1, 30317, Note_on_c, 1, 31, 0
1, 30319, Note_on_c, 1, 43, 0
1, 30335, Lyric_t, "set "
1, 30335, Note_on_c, 3, 66, 58
1, 30336, Note_on_c, 4, 71, 0
1, 30336, Note_on_c, 9, 42, 96
1, 30336, Note_on_c, 2, 72, 100
1, 30336, Note_on_c, 2, 68, 97
1, 30336, Note_on_c, 9, 36, 110
1, 30336, Note_on_c, 4, 66, 17
1, 30337, Note_on_c, 9, 36, 0
1, 30337, Note_on_c, 9, 42, 0
1, 30337, Note_on_c, 0, 57, 94
1, 30337, Note_on_c, 0, 73, 77
1, 30337, Note_on_c, 0, 64, 97
1, 30337, Note_on_c, 1, 42, 99
1, 30337, Note_on_c, 0, 76, 83
1, 30337, Note_on_c, 0, 69, 75
1, 30337, Note_on_c, 1, 30, 97
1, 30337, Note_on_c, 0, 61, 95
1, 30361, Note_on_c, 2, 72, 0
1, 30361, Note_on_c, 2, 73, 62
1, 30362, Note_on_c, 2, 69, 78
1, 30363, Note_on_c, 2, 68, 0
1, 30382, Note_on_c, 3, 66, 0
1, 30383, Lyric_t, "in "
1, 30383, Note_on_c, 3, 69, 63
1, 30383, Note_on_c, 9, 42, 37
1, 30384, Note_on_c, 9, 42, 0
1, 30384, Note_on_c, 4, 66, 0
1, 30384, Note_on_c, 4, 69, 21
1, 30408, Note_on_c, 2, 73, 0
1, 30410, Note_on_c, 2, 73, 94
1, 30425, Note_on_c, 2, 69, 0
1, 30429, Note_on_c, 2, 73, 0
1, 30430, Note_on_c, 3, 69, 0
1, 30430, Note_on_c, 2, 69, 56
1, 30430, Note_on_c, 2, 73, 56
1, 30431, Lyric_t, "your "
1, 30431, Note_on_c, 3, 73, 92
1, 30431, Note_on_c, 9, 42, 110
1, 30432, Note_on_c, 9, 42, 0
1, 30432, Note_on_c, 4, 69, 0
1, 30432, Note_on_c, 9, 39, 110
1, 30432, Note_on_c, 9, 40, 95
1, 30432, Note_on_c, 4, 73, 32
1, 30432, Note_on_c, 9, 60, 77
1, 30433, Note_on_c, 9, 60, 0
1, 30433, Note_on_c, 9, 40, 0
1, 30433, Note_on_c, 9, 39, 0
1, 30434, Note_on_c, 0, 69, 0
1, 30434, Note_on_c, 0, 73, 0
1, 30439, Note_on_c, 0, 76, 0
1, 30440, Note_on_c, 2, 73, 0
1, 30440, Note_on_c, 2, 69, 0
1, 30443, Note_on_c, 0, 61, 0
1, 30444, Note_on_c, 0, 64, 0
1, 30444, Note_on_c, 1, 30, 0
1, 30444, Note_on_c, 0, 57, 0
1, 30447, Note_on_c, 1, 42, 0
1, 30479, Note_on_c, 3, 73, 0
1, 30479, Lyric_t, ""
1, 30479, Lyric_t, "\015"
1, 30479, Note_on_c, 3, 71, 80
1, 30479, Lyric_t, "shoes, "
1, 30479, Note_on_c, 0, 74, 90
1, 30479, Note_on_c, 0, 78, 80
1, 30479, Note_on_c, 0, 69, 83
1, 30480, Note_on_c, 4, 73, 0
1, 30480, Note_on_c, 2, 66, 100
1, 30480, Note_on_c, 0, 57, 97
1, 30480, Note_on_c, 0, 62, 110
1, 30480, Note_on_c, 2, 62, 82
1, 30480, Note_on_c, 9, 36, 91
1, 30480, Note_on_c, 1, 47, 110
1, 30480, Note_on_c, 4, 71, 23
1, 30480, Note_on_c, 0, 66, 99
1, 30480, Note_on_c, 1, 35, 98
1, 30480, Note_on_c, 9, 42, 44
1, 30481, Note_on_c, 9, 42, 0
1, 30481, Note_on_c, 9, 36, 0
1, 30482, Note_on_c, 2, 71, 103
1, 30527, Note_on_c, 9, 42, 95
1, 30528, Note_on_c, 9, 42, 0
1, 30528, Note_on_c, 2, 62, 0
1, 30528, Note_on_c, 9, 36, 110
1, 30529, Note_on_c, 9, 36, 0
1, 30531, Note_on_c, 2, 66, 0
1, 30531, Note_on_c, 2, 71, 0
1, 30551, Note_on_c, 0, 74, 0
1, 30551, Note_on_c, 0, 62, 0
1, 30554, Note_on_c, 0, 66, 0
1, 30554, Note_on_c, 0, 78, 0
1, 30558, Note_on_c, 0, 57, 0
1, 30562, Note_on_c, 0, 69, 0
1, 30568, Note_on_c, 1, 47, 0
1, 30574, Note_on_c, 3, 71, 0
1, 30574, Note_on_c, 1, 35, 0
1, 30575, Note_on_c, 1, 45, 97
1, 30575, Note_on_c, 0, 64, 87
1, 30575, Note_on_c, 2, 64, 97
1, 30575, Note_on_c, 1, 33, 100
1, 30575, Note_on_c, 0, 57, 84
1, 30575, Note_on_c, 9, 42, 39
1, 30575, Note_on_c, 0, 61, 88
1, 30576, Note_on_c, 9, 42, 0
1, 30576, Note_on_c, 4, 71, 0
1, 30576, Note_on_c, 4, 69, 13
1, 30577, Note_on_c, 0, 76, 77
1, 30577, Note_on_c, 0, 69, 74
1, 30577, Lyric_t, "so "
1, 30577, Note_on_c, 0, 73, 66
1, 30577, Note_on_c, 3, 69, 57
1, 30589, Note_on_c, 0, 73, 0
1, 30589, Note_on_c, 0, 69, 0
1, 30589, Note_on_c, 0, 76, 0
1, 30590, Note_on_c, 0, 61, 0
1, 30590, Note_on_c, 0, 64, 0
1, 30591, Note_on_c, 1, 45, 0
1, 30592, Note_on_c, 1, 33, 0
1, 30592, Note_on_c, 0, 57, 0
1, 30621, Note_on_c, 3, 69, 0
1, 30623, Note_on_c, 2, 64, 0
1, 30623, Note_on_c, 1, 35, 97
1, 30623, Lyric_t, "stand "
1, 30623, Note_on_c, 9, 42, 110
1, 30623, Note_on_c, 0, 62, 118
1, 30623, Note_on_c, 0, 57, 100
1, 30623, Note_on_c, 3, 74, 90
1, 30623, Note_on_c, 0, 66, 107
1, 30624, Note_on_c, 9, 42, 0
1, 30624, Note_on_c, 4, 69, 0
1, 30624, Note_on_c, 0, 78, 88
1, 30624, Note_on_c, 1, 47, 120
1, 30624, Note_on_c, 0, 74, 102
1, 30624, Note_on_c, 9, 40, 110
1, 30624, Note_on_c, 9, 36, 110
1, 30624, Note_on_c, 2, 66, 62
1, 30624, Note_on_c, 4, 74, 30
1, 30624, Note_on_c, 9, 39, 110
1, 30624, Note_on_c, 9, 60, 77
1, 30624, Note_on_c, 0, 69, 86
1, 30625, Note_on_c, 9, 60, 0
1, 30625, Note_on_c, 9, 40, 0
1, 30625, Note_on_c, 9, 39, 0
1, 30625, Note_on_c, 9, 36, 0
1, 30672, Note_on_c, 2, 69, 91
1, 30673, Note_on_c, 9, 42, 42
1, 30674, Note_on_c, 9, 42, 0
1, 30674, Note_on_c, 2, 66, 0
1, 30678, Note_on_c, 3, 74, 0
1, 30687, Note_on_c, 0, 78, 0
1, 30689, Note_on_c, 0, 74, 0
1, 30689, Note_on_c, 2, 69, 0
1, 30695, Note_on_c, 0, 69, 0
1, 30700, Note_on_c, 0, 66, 0
1, 30700, Note_on_c, 0, 62, 0
1, 30700, Note_on_c, 0, 57, 0
1, 30710, Note_on_c, 1, 35, 0
1, 30710, Note_on_c, 1, 47, 0
1, 30720, Note_on_c, 4, 74, 0
1, 30720, Lyric_t, "up, "
1, 30720, Note_on_c, 3, 71, 57
1, 30720, Note_on_c, 0, 55, 100
1, 30720, Note_on_c, 0, 62, 96
1, 30720, Note_on_c, 0, 74, 78
1, 30720, Note_on_c, 0, 59, 97
1, 30720, Note_on_c, 5, 66, 49
1, 30720, Note_on_c, 1, 28, 104
1, 30720, Note_on_c, 5, 62, 51
1, 30720, Note_on_c, 4, 71, 23
1, 30720, Note_on_c, 9, 36, 110
1, 30720, Note_on_c, 5, 71, 58
1, 30720, Note_on_c, 9, 42, 96
1, 30721, Note_on_c, 9, 42, 0
1, 30721, Note_on_c, 9, 36, 0
1, 30721, Note_on_c, 0, 71, 83
1, 30721, Note_on_c, 9, 43, 86
1, 30721, Note_on_c, 0, 67, 82
1, 30721, Note_on_c, 1, 40, 110
1, 30722, Note_on_c, 9, 43, 0
1, 30740, Note_on_c, 5, 71, 0
1, 30740, Note_on_c, 5, 62, 0
1, 30740, Note_on_c, 5, 66, 0
1, 30767, Note_on_c, 9, 42, 37
1, 30767, Note_on_c, 2, 62, 30
1, 30768, Note_on_c, 9, 42, 0
1, 30769, Note_on_c, 2, 67, 83
1, 30769, Note_on_c, 5, 71, 61
1, 30769, Note_on_c, 5, 62, 55
1, 30769, Note_on_c, 5, 66, 61
1, 30770, Note_on_c, 2, 71, 81
1, 30774, Note_on_c, 3, 71, 0
1, 30789, Note_on_c, 5, 66, 0
1, 30789, Note_on_c, 5, 62, 0
1, 30789, Note_on_c, 5, 71, 0
1, 30791, Note_on_c, 2, 71, 0
1, 30793, Note_on_c, 2, 71, 80
1, 30811, Note_on_c, 2, 67, 0
1, 30813, Note_on_c, 2, 71, 0
1, 30814, Note_on_c, 2, 67, 81
1, 30815, Note_on_c, 4, 71, 0
1, 30815, Note_on_c, 9, 42, 110
1, 30815, Note_on_c, 2, 71, 102
1, 30816, Note_on_c, 9, 42, 0
1, 30816, Note_on_c, 5, 66, 79
1, 30816, Note_on_c, 5, 62, 71
1, 30816, Note_on_c, 4, 64, 25
1, 30816, Note_on_c, 5, 71, 79
1, 30816, Note_on_c, 4, 69, 25
1, 30816, Note_on_c, 4, 74, 35
1, 30816, Note_on_c, 4, 78, 32
1, 30816, Note_on_c, 9, 40, 95
1, 30816, Note_on_c, 9, 39, 110
1, 30816, Note_on_c, 9, 60, 77
1, 30817, Note_on_c, 9, 60, 0
1, 30817, Note_on_c, 9, 39, 0
1, 30817, Note_on_c, 9, 40, 0
1, 30817, Note_on_c, 3, 74, 87
1, 30817, Lyric_t, "all "
1, 30818, Note_on_c, 2, 62, 0
1, 30826, Note_on_c, 2, 71, 0
1, 30827, Note_on_c, 2, 67, 0
1, 30832, Note_on_c, 1, 28, 0
1, 30834, Note_on_c, 0, 62, 0
1, 30836, Note_on_c, 0, 71, 0
1, 30836, Note_on_c, 0, 59, 0
1, 30836, Note_on_c, 0, 55, 0
1, 30836, Note_on_c, 1, 40, 0
1, 30836, Note_on_c, 5, 66, 0
1, 30836, Note_on_c, 5, 62, 0
1, 30836, Note_on_c, 5, 71, 0
1, 30837, Note_on_c, 0, 67, 0
1, 30841, Note_on_c, 0, 74, 0
1, 30863, Note_on_c, 2, 62, 43
1, 30863, Note_on_c, 0, 59, 86
1, 30863, Note_on_c, 0, 62, 78
1, 30863, Note_on_c, 1, 43, 100
1, 30863, Note_on_c, 0, 55, 94
1, 30863, Note_on_c, 1, 31, 114
1, 30863, Note_on_c, 5, 62, 74
1, 30863, Note_on_c, 5, 71, 80
1, 30863, Note_on_c, 5, 66, 85
1, 30864, Note_on_c, 0, 71, 78
1, 30864, Note_on_c, 0, 74, 80
1, 30864, Note_on_c, 9, 36, 91
1, 30864, Note_on_c, 9, 42, 44
1, 30865, Note_on_c, 9, 42, 0
1, 30865, Note_on_c, 9, 36, 0
1, 30865, Note_on_c, 2, 67, 99
1, 30865, Note_on_c, 0, 67, 65
1, 30866, Note_on_c, 2, 71, 103
1, 30875, Note_on_c, 0, 67, 0
1, 30875, Note_on_c, 0, 71, 0
1, 30875, Note_on_c, 0, 62, 0
1, 30875, Note_on_c, 0, 59, 0
1, 30875, Note_on_c, 0, 55, 0
1, 30875, Note_on_c, 2, 62, 0
1, 30878, Note_on_c, 0, 74, 0
1, 30880, Note_on_c, 2, 71, 0
1, 30881, Note_on_c, 1, 43, 0
1, 30881, Note_on_c, 1, 31, 0
1, 30882, Note_on_c, 2, 67, 0
1, 30883, Note_on_c, 5, 71, 0
1, 30883, Note_on_c, 5, 62, 0
1, 30883, Note_on_c, 5, 66, 0
1, 30906, Note_on_c, 3, 74, 0
1, 30911, Note_on_c, 9, 42, 95
1, 30911, Note_on_c, 0, 59, 87
1, 30911, Note_on_c, 0, 62, 87
1, 30911, Note_on_c, 0, 55, 102
1, 30912, Note_on_c, 9, 42, 0
1, 30912, Note_on_c, 4, 69, 0
1, 30912, Note_on_c, 4, 74, 0
1, 30912, Note_on_c, 4, 78, 0
1, 30912, Note_on_c, 4, 64, 0
1, 30912, Note_on_c, 9, 36, 110
1, 30912, Note_on_c, 1, 45, 117
1, 30912, Note_on_c, 4, 59, 16
1, 30912, Note_on_c, 1, 33, 112
1, 30912, Lyric_t, "right, "
1, 30912, Note_on_c, 3, 71, 58
1, 30912, Note_on_c, 4, 71, 16
1, 30912, Note_on_c, 4, 66, 16
1, 30912, Note_on_c, 4, 76, 16
1, 30913, Note_on_c, 9, 36, 0
1, 30913, Note_on_c, 0, 71, 90
1, 30913, Note_on_c, 0, 74, 84
1, 30913, Note_on_c, 0, 67, 87
1, 30959, Note_on_c, 9, 42, 39
1, 30960, Note_on_c, 9, 42, 0
1, 30962, Note_on_c, 2, 67, 79
1, 30963, Note_on_c, 2, 71, 79
1, 30966, Note_on_c, 3, 71, 0
1, 30980, Note_on_c, 0, 71, 0
1, 30980, Note_on_c, 0, 74, 0
1, 30981, Note_on_c, 2, 71, 0
1, 30982, Note_on_c, 0, 67, 0
1, 30985, Note_on_c, 2, 71, 62
1, 30990, Note_on_c, 0, 59, 0
1, 30990, Note_on_c, 0, 55, 0
1, 30990, Note_on_c, 0, 62, 0
1, 30992, Note_on_c, 1, 33, 0
1, 30998, Note_on_c, 1, 45, 0
1, 31007, Note_on_c, 2, 71, 0
1, 31007, Note_on_c, 2, 67, 0
1, 31007, Note_on_c, 9, 42, 110
1, 31007, Note_on_c, 0, 74, 83
1, 31007, Note_on_c, 0, 71, 84
1, 31007, Note_on_c, 0, 67, 80
1, 31008, Note_on_c, 9, 42, 0
1, 31008, Note_on_c, 9, 39, 110
1, 31008, Note_on_c, 9, 60, 77
1, 31008, Note_on_c, 2, 71, 104
1, 31008, Note_on_c, 1, 31, 100
1, 31008, Note_on_c, 2, 67, 99
1, 31008, Note_on_c, 1, 43, 112
1, 31008, Note_on_c, 9, 40, 110
1, 31008, Note_on_c, 9, 36, 110
1, 31009, Note_on_c, 9, 36, 0
1, 31009, Note_on_c, 9, 39, 0
1, 31009, Note_on_c, 9, 40, 0
1, 31009, Note_on_c, 9, 60, 0
1, 31009, Note_on_c, 0, 59, 93
1, 31009, Note_on_c, 0, 55, 104
1, 31009, Note_on_c, 0, 62, 87
1, 31022, Note_on_c, 2, 71, 0
1, 31026, Note_on_c, 2, 67, 0
1, 31032, Note_on_c, 4, 71, 0
1, 31032, Note_on_c, 4, 76, 0
1, 31032, Note_on_c, 4, 66, 0
1, 31032, Note_on_c, 4, 59, 0
1, 31057, Note_on_c, 9, 42, 42
1, 31058, Note_on_c, 9, 42, 0
1, 31059, Note_on_c, 0, 67, 0
1, 31062, Note_on_c, 0, 55, 0
1, 31062, Note_on_c, 0, 71, 0
1, 31065, Note_on_c, 0, 59, 0
1, 31065, Note_on_c, 0, 74, 0
1, 31068, Note_on_c, 0, 62, 0
1, 31085, Note_on_c, 1, 31, 0
1, 31087, Note_on_c, 1, 43, 0
1, 31103, Note_on_c, 2, 63, 43
1, 31104, Note_on_c, 0, 73, 76
1, 31104, Note_on_c, 9, 42, 96
1, 31104, Note_on_c, 0, 76, 82
1, 31104, Note_on_c, 0, 69, 70
1, 31104, Note_on_c, 9, 36, 110
1, 31104, Note_on_c, 4, 73, 39
1, 31104, Note_on_c, 2, 68, 96
1, 31105, Note_on_c, 9, 36, 0
1, 31105, Note_on_c, 9, 42, 0
1, 31105, Note_on_c, 0, 64, 97
1, 31105, Note_on_c, 0, 57, 94
1, 31105, Lyric_t, "all "
1, 31105, Note_on_c, 3, 73, 100
1, 31105, Note_on_c, 2, 72, 101
1, 31105, Note_on_c, 0, 61, 95
1, 31105, Note_on_c, 1, 30, 97
1, 31105, Note_on_c, 1, 42, 99
1, 31120, Note_on_c, 2, 72, 0
1, 31124, Note_on_c, 2, 68, 0
1, 31124, Note_on_c, 2, 73, 87
1, 31126, Note_on_c, 2, 69, 83
1, 31129, Note_on_c, 2, 63, 0
1, 31129, Note_on_c, 2, 64, 57
1, 31151, Note_on_c, 3, 73, 0
1, 31151, Note_on_c, 3, 69, 66
1, 31151, Note_on_c, 9, 42, 37
1, 31152, Note_on_c, 9, 42, 0
1, 31152, Note_on_c, 4, 73, 0
1, 31152, Note_on_c, 4, 69, 20
1, 31177, Note_on_c, 2, 73, 0
1, 31177, Note_on_c, 2, 69, 0
1, 31178, Note_on_c, 2, 73, 96
1, 31178, Note_on_c, 2, 69, 74
1, 31191, Note_on_c, 2, 64, 0
1, 31196, Note_on_c, 2, 69, 0
1, 31199, Note_on_c, 9, 42, 110
1, 31200, Note_on_c, 9, 42, 0
1, 31200, Note_on_c, 4, 69, 0
1, 31200, Note_on_c, 4, 66, 16
1, 31200, Note_on_c, 3, 66, 38
1, 31200, Note_on_c, 2, 64, 87
1, 31200, Note_on_c, 9, 39, 110
1, 31200, Note_on_c, 2, 69, 87
1, 31200, Note_on_c, 9, 40, 95
1, 31200, Note_on_c, 9, 60, 77
1, 31201, Note_on_c, 9, 60, 0
1, 31201, Note_on_c, 9, 40, 0
1, 31201, Note_on_c, 9, 39, 0
1, 31201, Note_on_c, 3, 69, 0
1, 31202, Note_on_c, 0, 69, 0
1, 31202, Note_on_c, 0, 73, 0
1, 31202, Note_on_c, 0, 76, 0
1, 31204, Note_on_c, 2, 73, 0
1, 31211, Note_on_c, 0, 61, 0
1, 31211, Note_on_c, 2, 64, 0
1, 31211, Note_on_c, 2, 69, 0
1, 31212, Note_on_c, 0, 64, 0
1, 31212, Note_on_c, 0, 57, 0
1, 31212, Note_on_c, 1, 30, 0
1, 31215, Note_on_c, 1, 42, 0
1, 31246, Note_on_c, 3, 66, 0
1, 31247, Note_on_c, 3, 71, 80
1, 31247, Note_on_c, 0, 74, 90
1, 31247, Lyric_t, ""
1, 31247, Lyric_t, "\015"
1, 31247, Lyric_t, "right. "
1, 31247, Note_on_c, 2, 66, 99
1, 31247, Note_on_c, 0, 69, 81
1, 31247, Note_on_c, 2, 62, 78
1, 31247, Note_on_c, 0, 78, 81
1, 31248, Note_on_c, 4, 66, 0
1, 31248, Note_on_c, 4, 71, 30
1, 31248, Note_on_c, 9, 42, 44
1, 31248, Note_on_c, 0, 57, 97
1, 31248, Note_on_c, 2, 71, 103
1, 31248, Note_on_c, 0, 62, 110
1, 31248, Note_on_c, 1, 47, 110
1, 31248, Note_on_c, 1, 35, 98
1, 31248, Note_on_c, 0, 66, 99
1, 31248, Note_on_c, 9, 36, 91
1, 31249, Note_on_c, 9, 36, 0
1, 31249, Note_on_c, 9, 42, 0
1, 31289, Note_on_c, 2, 71, 0
1, 31292, Note_on_c, 2, 66, 0
1, 31294, Note_on_c, 2, 62, 0
1, 31295, Note_on_c, 9, 42, 95
1, 31296, Note_on_c, 9, 42, 0
1, 31296, Note_on_c, 9, 36, 110
1, 31297, Note_on_c, 9, 36, 0
1, 31319, Note_on_c, 0, 62, 0
1, 31321, Note_on_c, 0, 74, 0
1, 31322, Note_on_c, 0, 66, 0
1, 31323, Note_on_c, 0, 78, 0
1, 31326, Note_on_c, 0, 57, 0
1, 31331, Note_on_c, 0, 69, 0
1, 31336, Note_on_c, 1, 47, 0
1, 31342, Note_on_c, 1, 35, 0
1, 31342, Note_on_c, 2, 64, 92
1, 31343, Note_on_c, 1, 33, 100
1, 31343, Note_on_c, 0, 61, 88
1, 31343, Note_on_c, 9, 46, 87
1, 31343, Note_on_c, 1, 45, 97
1, 31343, Note_on_c, 0, 57, 84
1, 31343, Note_on_c, 0, 64, 87
1, 31344, Note_on_c, 9, 46, 0
1, 31345, Note_on_c, 0, 73, 63
1, 31345, Note_on_c, 0, 76, 76
1, 31346, Note_on_c, 0, 69, 53
1, 31351, Note_on_c, 0, 69, 0
1, 31356, Note_on_c, 0, 73, 0
1, 31357, Note_on_c, 0, 76, 0
1, 31358, Note_on_c, 0, 64, 0
1, 31358, Note_on_c, 0, 61, 0
1, 31359, Note_on_c, 1, 45, 0
1, 31359, Lyric_t, ""
1, 31359, Lyric_t, "\015"
1, 31360, Note_on_c, 0, 57, 0
1, 31360, Note_on_c, 1, 33, 0
1, 31391, Note_on_c, 9, 42, 110
1, 31391, Note_on_c, 0, 66, 107
1, 31391, Note_on_c, 0, 78, 88
1, 31391, Note_on_c, 1, 35, 97
1, 31391, Note_on_c, 0, 74, 100
1, 31391, Note_on_c, 0, 62, 118
1, 31391, Note_on_c, 0, 69, 85
1, 31391, Note_on_c, 0, 57, 100
1, 31392, Note_on_c, 9, 42, 0
1, 31392, Note_on_c, 2, 64, 0
1, 31392, Note_on_c, 9, 39, 110
1, 31392, Note_on_c, 1, 47, 120
1, 31392, Note_on_c, 9, 36, 110
1, 31392, Note_on_c, 9, 40, 110
1, 31392, Note_on_c, 9, 60, 77
1, 31393, Note_on_c, 9, 60, 0
1, 31393, Note_on_c, 9, 40, 0
1, 31393, Note_on_c, 9, 39, 0
1, 31393, Note_on_c, 9, 36, 0
1, 31393, Note_on_c, 2, 66, 82
1, 31396, Note_on_c, 3, 71, 0
1, 31435, Note_on_c, 2, 66, 0
1, 31439, Note_on_c, 2, 69, 98
1, 31441, Note_on_c, 9, 42, 42
1, 31441, Note_on_c, 9, 47, 34
1, 31442, Note_on_c, 9, 47, 0
1, 31442, Note_on_c, 9, 42, 0
1, 31459, Note_on_c, 2, 69, 0
1, 31464, Note_on_c, 9, 47, 97
1, 31465, Note_on_c, 9, 47, 0
1, 31468, Note_on_c, 0, 57, 0
1, 31468, Note_on_c, 0, 62, 0
1, 31468, Note_on_c, 0, 66, 0
1, 31478, Note_on_c, 1, 47, 0
1, 31478, Note_on_c, 1, 35, 0
1, 31481, Note_on_c, 0, 78, 0
1, 31483, Note_on_c, 0, 69, 0
1, 31483, Note_on_c, 0, 74, 0
1, 31488, Note_on_c, 4, 71, 0
1, 31488, Note_on_c, 0, 76, 97
1, 31488, Note_on_c, 9, 36, 110
1, 31488, Note_on_c, 0, 72, 101
1, 31488, Note_on_c, 9, 49, 96
1, 31488, Note_on_c, 2, 60, 97
1, 31488, Note_on_c, 2, 64, 105
1, 31488, Note_on_c, 2, 55, 85
1, 31488, Note_on_c, 0, 67, 101
1, 31488, Note_on_c, 0, 71, 97
1, 31488, Note_on_c, 1, 45, 98
1, 31488, Note_on_c, 1, 33, 95
1, 31489, Note_on_c, 9, 49, 0
1, 31489, Note_on_c, 9, 36, 0
1, 31493, Note_on_c, 2, 69, 107
1, 31535, Note_on_c, 9, 42, 37
1, 31536, Note_on_c, 9, 42, 0
1, 31583, Note_on_c, 4, 59, 53
1, 31583, Lyric_t, "You "
1, 31583, Note_on_c, 3, 71, 96
1, 31583, Note_on_c, 9, 42, 110
1, 31584, Note_on_c, 9, 42, 0
1, 31584, Note_on_c, 9, 69, 52
1, 31584, Note_on_c, 10, 52, 97
1, 31584, Note_on_c, 9, 60, 77
1, 31584, Note_on_c, 9, 39, 110
1, 31584, Note_on_c, 9, 40, 95
1, 31584, Note_on_c, 6, 64, 90
1, 31585, Note_on_c, 9, 40, 0
1, 31585, Note_on_c, 9, 39, 0
1, 31585, Note_on_c, 9, 60, 0
1, 31585, Note_on_c, 9, 69, 0
1, 31602, Note_on_c, 3, 71, 0
1, 31604, Note_on_c, 1, 33, 0
1, 31605, Note_on_c, 1, 45, 0
1, 31609, Note_on_c, 4, 59, 0
1, 31609, Note_on_c, 3, 69, 73
1, 31609, Lyric_t, "will "
1, 31609, Note_on_c, 4, 57, 30
1, 31628, Note_on_c, 3, 69, 0
1, 31631, Note_on_c, 4, 57, 0
1, 31631, Lyric_t, "find "
1, 31631, Note_on_c, 4, 59, 30
1, 31631, Note_on_c, 3, 71, 73
1, 31632, Note_on_c, 9, 42, 44
1, 31632, Note_on_c, 9, 36, 91
1, 31632, Note_on_c, 9, 69, 81
1, 31633, Note_on_c, 9, 69, 0
1, 31633, Note_on_c, 9, 36, 0
1, 31633, Note_on_c, 9, 42, 0
1, 31633, Note_on_c, 1, 45, 80
1, 31633, Note_on_c, 1, 33, 88
1, 31640, Note_on_c, 1, 45, 0
1, 31643, Note_on_c, 1, 33, 0
1, 31679, Note_on_c, 9, 42, 95
1, 31679, Note_on_c, 1, 33, 108
1, 31680, Note_on_c, 9, 42, 0
1, 31680, Note_on_c, 1, 45, 100
1, 31680, Note_on_c, 9, 36, 110
1, 31681, Note_on_c, 9, 36, 0
1, 31703, Note_on_c, 3, 71, 0
1, 31718, Note_on_c, 6, 64, 0
1, 31721, Note_on_c, 10, 52, 0
1, 31727, Note_on_c, 9, 42, 39
1, 31728, Note_on_c, 9, 42, 0
1, 31728, Note_on_c, 9, 69, 78
1, 31728, Note_on_c, 10, 55, 108
1, 31728, Note_on_c, 6, 67, 95
1, 31729, Note_on_c, 9, 69, 0
1, 31729, Note_on_c, 0, 79, 94
1, 31758, Note_on_c, 1, 33, 0
1, 31758, Note_on_c, 1, 45, 0
1, 31774, Note_on_c, 4, 59, 0
1, 31775, Note_on_c, 3, 71, 97
1, 31775, Lyric_t, "peace "
1, 31775, Note_on_c, 9, 42, 110
1, 31775, Note_on_c, 4, 59, 54
1, 31776, Note_on_c, 9, 42, 0
1, 31776, Note_on_c, 9, 69, 56
1, 31776, Note_on_c, 9, 60, 77
1, 31776, Note_on_c, 9, 39, 110
1, 31776, Note_on_c, 9, 36, 110
1, 31776, Note_on_c, 1, 34, 95
1, 31776, Note_on_c, 9, 40, 110
1, 31776, Note_on_c, 1, 46, 95
1, 31777, Note_on_c, 9, 40, 0
1, 31777, Note_on_c, 9, 36, 0
1, 31777, Note_on_c, 9, 39, 0
1, 31777, Note_on_c, 9, 60, 0
1, 31777, Note_on_c, 9, 69, 0
1, 31782, Note_on_c, 2, 64, 0
1, 31791, Note_on_c, 2, 60, 0
1, 31793, Note_on_c, 2, 69, 0
1, 31795, Note_on_c, 2, 55, 0
1, 31796, Note_on_c, 3, 71, 0
1, 31801, Note_on_c, 4, 59, 0
1, 31801, Note_on_c, 3, 69, 81
1, 31801, Lyric_t, "of "
1, 31801, Note_on_c, 4, 57, 38
1, 31820, Note_on_c, 3, 69, 0
1, 31822, Note_on_c, 0, 67, 0
1, 31825, Note_on_c, 4, 57, 0
1, 31825, Note_on_c, 9, 42, 42
1, 31825, Note_on_c, 3, 71, 83
1, 31825, Note_on_c, 4, 59, 40
1, 31825, Lyric_t, ""
1, 31825, Lyric_t, "\015"
1, 31825, Lyric_t, "mind "
1, 31826, Note_on_c, 9, 42, 0
1, 31847, Note_on_c, 10, 55, 0
1, 31849, Note_on_c, 1, 34, 0
1, 31853, Note_on_c, 2, 57, 79
1, 31859, Note_on_c, 1, 46, 0
1, 31864, Note_on_c, 6, 67, 0
1, 31864, Note_on_c, 2, 62, 91
1, 31871, Note_on_c, 0, 76, 0
1, 31871, Note_on_c, 0, 71, 0
1, 31871, Note_on_c, 0, 72, 0
1, 31872, Note_on_c, 0, 79, 0
1, 31872, Note_on_c, 9, 42, 96
1, 31872, Note_on_c, 9, 36, 110
1, 31872, Note_on_c, 2, 66, 100
1, 31872, Note_on_c, 6, 74, 104
1, 31872, Note_on_c, 10, 62, 110
1, 31873, Note_on_c, 9, 36, 0
1, 31873, Note_on_c, 9, 42, 0
1, 31873, Note_on_c, 1, 47, 91
1, 31873, Note_on_c, 1, 35, 84
1, 31874, Note_on_c, 0, 73, 88
1, 31874, Note_on_c, 0, 78, 97
1, 31874, Note_on_c, 0, 69, 90
1, 31874, Note_on_c, 0, 74, 107
1, 31881, Note_on_c, 2, 71, 96
1, 31913, Note_on_c, 3, 71, 0
1, 31919, Note_on_c, 9, 42, 37
1, 31920, Note_on_c, 9, 42, 0
1, 31959, Note_on_c, 6, 74, 0
1, 31967, Note_on_c, 9, 42, 110
1, 31968, Note_on_c, 9, 42, 0
1, 31968, Note_on_c, 4, 59, 0
1, 31968, Note_on_c, 10, 62, 0
1, 31968, Note_on_c, 6, 76, 124
1, 31968, Note_on_c, 9, 39, 110
1, 31968, Note_on_c, 9, 69, 52
1, 31968, Note_on_c, 9, 60, 77
1, 31968, Note_on_c, 9, 40, 95
1, 31968, Note_on_c, 10, 64, 122
1, 31969, Note_on_c, 9, 40, 0
1, 31969, Note_on_c, 9, 60, 0
1, 31969, Note_on_c, 9, 69, 0
1, 31969, Note_on_c, 9, 39, 0
1, 31969, Lyric_t, "on "
1, 31969, Note_on_c, 3, 71, 96
1, 31969, Note_on_c, 4, 59, 53
1, 31986, Note_on_c, 1, 47, 0
1, 31987, Note_on_c, 3, 71, 0
1, 31991, Note_on_c, 1, 35, 0
1, 31993, Note_on_c, 4, 59, 0
1, 31993, Lyric_t, "the "
1, 31993, Note_on_c, 4, 57, 46
1, 31993, Note_on_c, 3, 69, 89
1, 32011, Note_on_c, 2, 57, 0
1, 32011, Note_on_c, 2, 66, 0
1, 32014, Note_on_c, 3, 69, 0
1, 32015, Note_on_c, 1, 40, 88
1, 32015, Note_on_c, 1, 52, 83
1, 32016, Note_on_c, 10, 64, 0
1, 32016, Note_on_c, 6, 76, 0
1, 32016, Note_on_c, 10, 59, 110
1, 32016, Note_on_c, 9, 42, 44
1, 32016, Note_on_c, 6, 71, 96
1, 32016, Note_on_c, 9, 36, 91
1, 32016, Note_on_c, 9, 69, 81
1, 32017, Note_on_c, 9, 69, 0
1, 32017, Note_on_c, 9, 36, 0
1, 32017, Note_on_c, 9, 42, 0
1, 32018, Note_on_c, 4, 57, 0
1, 32018, Note_on_c, 4, 59, 43
1, 32018, Lyric_t, "floor; "
1, 32018, Note_on_c, 3, 71, 86
1, 32028, Note_on_c, 1, 52, 0
1, 32031, Note_on_c, 2, 62, 0
1, 32031, Note_on_c, 1, 40, 0
1, 32040, Note_on_c, 10, 59, 0
1, 32040, Note_on_c, 6, 71, 0
1, 32043, Note_on_c, 2, 59, 76
1, 32051, Note_on_c, 2, 62, 88
1, 32059, Note_on_c, 2, 67, 99
1, 32061, Note_on_c, 2, 71, 0
1, 32063, Note_on_c, 1, 40, 104
1, 32063, Note_on_c, 1, 28, 87
1, 32063, Note_on_c, 9, 42, 95
1, 32064, Note_on_c, 9, 42, 0
1, 32064, Note_on_c, 0, 71, 93
1, 32064, Note_on_c, 9, 36, 110
1, 32065, Note_on_c, 9, 36, 0
1, 32066, Note_on_c, 2, 71, 99
1, 32089, Note_on_c, 0, 74, 0
1, 32101, Note_on_c, 3, 71, 0
1, 32111, Note_on_c, 9, 42, 39
1, 32112, Note_on_c, 9, 42, 0
1, 32112, Note_on_c, 9, 69, 78
1, 32113, Note_on_c, 9, 69, 0
1, 32131, Note_on_c, 0, 74, 91
1, 32142, Note_on_c, 0, 71, 0
1, 32146, Note_on_c, 1, 28, 0
1, 32149, Note_on_c, 1, 40, 0
1, 32158, Note_on_c, 4, 59, 0
1, 32159, Note_on_c, 1, 40, 98
1, 32159, Note_on_c, 1, 28, 100
1, 32159, Lyric_t, "take "
1, 32159, Note_on_c, 4, 59, 54
1, 32159, Note_on_c, 3, 71, 97
1, 32159, Note_on_c, 9, 42, 110
1, 32160, Note_on_c, 9, 42, 0
1, 32160, Note_on_c, 9, 39, 110
1, 32160, Note_on_c, 9, 69, 56
1, 32160, Note_on_c, 9, 36, 110
1, 32160, Note_on_c, 9, 40, 110
1, 32160, Note_on_c, 9, 60, 77
1, 32161, Note_on_c, 9, 60, 0
1, 32161, Note_on_c, 9, 40, 0
1, 32161, Note_on_c, 9, 36, 0
1, 32161, Note_on_c, 9, 69, 0
1, 32161, Note_on_c, 9, 39, 0
1, 32177, Note_on_c, 3, 71, 0
1, 32183, Note_on_c, 4, 59, 0
1, 32183, Note_on_c, 3, 69, 88
1, 32183, Note_on_c, 4, 57, 45
1, 32183, Lyric_t, "a "
1, 32193, Note_on_c, 2, 71, 0
1, 32198, Note_on_c, 2, 62, 0
1, 32199, Note_on_c, 2, 67, 0
1, 32201, Note_on_c, 2, 59, 0
1, 32207, Note_on_c, 4, 57, 0
1, 32207, Note_on_c, 3, 71, 76
1, 32207, Note_on_c, 4, 59, 33
1, 32207, Lyric_t, "lit"
1, 32208, Note_on_c, 0, 71, 78
1, 32209, Note_on_c, 3, 69, 0
1, 32209, Note_on_c, 9, 42, 42
1, 32210, Note_on_c, 9, 42, 0
1, 32230, Note_on_c, 3, 71, 0
1, 32231, Note_on_c, 4, 59, 0
1, 32231, Note_on_c, 4, 62, 55
1, 32231, Note_on_c, 3, 74, 98
1, 32231, Lyric_t, "tle "
1, 32239, Note_on_c, 1, 40, 0
1, 32242, Note_on_c, 1, 28, 0
1, 32242, Note_on_c, 2, 55, 74
1, 32247, Note_on_c, 2, 60, 90
1, 32250, Note_on_c, 0, 74, 0
1, 32254, Note_on_c, 2, 64, 103
1, 32255, Note_on_c, 0, 71, 0
1, 32255, Note_on_c, 3, 74, 0
1, 32256, Note_on_c, 4, 62, 0
1, 32256, Note_on_c, 3, 71, 86
1, 32256, Note_on_c, 9, 49, 96
1, 32256, Lyric_t, "time, "
1, 32256, Note_on_c, 4, 59, 43
1, 32256, Lyric_t, ""
1, 32256, Lyric_t, "\015"
1, 32256, Note_on_c, 9, 36, 110
1, 32257, Note_on_c, 9, 36, 0
1, 32257, Note_on_c, 9, 49, 0
1, 32257, Note_on_c, 0, 78, 0
1, 32257, Note_on_c, 0, 73, 0
1, 32257, Note_on_c, 0, 69, 0
1, 32257, Note_on_c, 1, 33, 83
1, 32257, Note_on_c, 1, 45, 106
1, 32258, Note_on_c, 0, 71, 98
1, 32258, Note_on_c, 0, 72, 97
1, 32258, Note_on_c, 0, 67, 98
1, 32258, Note_on_c, 0, 76, 91
1, 32268, Note_on_c, 2, 69, 93
1, 32289, Lyric_t, ""
1, 32289, Lyric_t, "\015"
1, 32296, Control_c, 10, 11, 79
1, 32296, Control_c, 6, 11, 65
1, 32300, Control_c, 10, 11, 80
1, 32300, Control_c, 6, 11, 66
1, 32303, Note_on_c, 9, 42, 37
1, 32304, Note_on_c, 9, 42, 0
1, 32304, Control_c, 10, 11, 81
1, 32304, Note_on_c, 10, 59, 126
1, 32304, Note_on_c, 6, 71, 126
1, 32304, Control_c, 6, 11, 68
1, 32308, Control_c, 10, 11, 83
1, 32308, Control_c, 6, 11, 69
1, 32312, Control_c, 10, 11, 84
1, 32312, Control_c, 6, 11, 71
1, 32316, Control_c, 6, 11, 72
1, 32316, Control_c, 10, 11, 85
1, 32320, Control_c, 10, 11, 87
1, 32320, Control_c, 6, 11, 74
1, 32323, Note_on_c, 3, 71, 0
1, 32324, Control_c, 10, 11, 88
1, 32324, Control_c, 6, 11, 76
1, 32328, Control_c, 10, 11, 89
1, 32328, Control_c, 6, 11, 77
1, 32332, Control_c, 10, 11, 91
1, 32332, Control_c, 6, 11, 79
1, 32336, Control_c, 10, 11, 92
1, 32336, Control_c, 6, 11, 80
1, 32340, Control_c, 6, 11, 82
1, 32340, Control_c, 10, 11, 94
1, 32344, Control_c, 6, 11, 84
1, 32344, Control_c, 10, 11, 95
1, 32348, Control_c, 6, 11, 85
1, 32348, Control_c, 10, 11, 96
1, 32351, Note_on_c, 9, 42, 110
1, 32352, Note_on_c, 9, 42, 0
1, 32352, Note_on_c, 4, 59, 0
1, 32352, Control_c, 10, 11, 98
1, 32352, Note_on_c, 9, 60, 77
1, 32352, Note_on_c, 9, 39, 110
1, 32352, Control_c, 6, 11, 87
1, 32352, Note_on_c, 9, 40, 95
1, 32352, Note_on_c, 9, 69, 52
1, 32353, Note_on_c, 9, 69, 0
1, 32353, Note_on_c, 9, 40, 0
1, 32353, Note_on_c, 9, 39, 0
1, 32353, Note_on_c, 9, 60, 0
1, 32353, Lyric_t, "come "
1, 32353, Note_on_c, 4, 59, 42
1, 32353, Note_on_c, 3, 71, 85
1, 32356, Control_c, 10, 11, 99
1, 32356, Control_c, 6, 11, 88
1, 32360, Control_c, 6, 11, 90
1, 32360, Control_c, 10, 11, 100
1, 32364, Note_on_c, 1, 33, 0
1, 32364, Control_c, 10, 11, 102
1, 32364, Control_c, 6, 11, 92
1, 32368, Control_c, 10, 11, 103
1, 32368, Control_c, 6, 11, 93
1, 32371, Note_on_c, 1, 45, 0
1, 32372, Control_c, 6, 11, 95
1, 32372, Control_c, 10, 11, 105
1, 32374, Note_on_c, 3, 71, 0
1, 32376, Control_c, 6, 11, 96
1, 32376, Control_c, 10, 11, 106
1, 32377, Note_on_c, 4, 59, 0
1, 32377, Note_on_c, 4, 57, 36
1, 32377, Lyric_t, "and "
1, 32377, Note_on_c, 3, 69, 79
1, 32380, Control_c, 6, 11, 98
1, 32380, Control_c, 10, 11, 107
1, 32384, Control_c, 10, 11, 109
1, 32384, Control_c, 6, 11, 99
1, 32388, Control_c, 6, 11, 101
1, 32388, Control_c, 10, 11, 110
1, 32392, Control_c, 6, 11, 103
1, 32392, Control_c, 10, 11, 111
1, 32396, Note_on_c, 3, 69, 0
1, 32396, Control_c, 6, 11, 104
1, 32396, Control_c, 10, 11, 113
1, 32399, Note_on_c, 1, 28, 90
1, 32399, Note_on_c, 1, 40, 92
1, 32400, Note_on_c, 9, 42, 44
1, 32400, Control_c, 6, 11, 106
1, 32400, Control_c, 10, 11, 114
1, 32400, Note_on_c, 9, 36, 91
1, 32400, Note_on_c, 9, 69, 81
1, 32401, Note_on_c, 9, 69, 0
1, 32401, Note_on_c, 9, 36, 0
1, 32401, Note_on_c, 9, 42, 0
1, 32401, Note_on_c, 4, 57, 0
1, 32401, Note_on_c, 3, 71, 82
1, 32401, Note_on_c, 4, 59, 39
1, 32401, Lyric_t, "see, "
1, 32404, Control_c, 10, 11, 116
1, 32404, Control_c, 6, 11, 107
1, 32408, Control_c, 10, 11, 117
1, 32408, Control_c, 6, 11, 109
1, 32409, Note_on_c, 1, 40, 0
1, 32412, Control_c, 6, 11, 111
1, 32412, Control_c, 10, 11, 118
1, 32415, Note_on_c, 1, 28, 0
1, 32416, Control_c, 6, 11, 112
1, 32416, Control_c, 10, 11, 120
1, 32420, Control_c, 6, 11, 114
1, 32420, Control_c, 10, 11, 121
1, 32424, Control_c, 10, 11, 122
1, 32424, Control_c, 6, 11, 115
1, 32428, Control_c, 10, 11, 124
1, 32428, Control_c, 6, 11, 117
1, 32432, Control_c, 10, 11, 125
1, 32432, Control_c, 6, 11, 119
1, 32436, Control_c, 10, 11, 127
1, 32436, Control_c, 6, 11, 120
1, 32440, Control_c, 6, 11, 122
1, 32444, Control_c, 6, 11, 123
1, 32447, Note_on_c, 9, 42, 95
1, 32448, Note_on_c, 9, 42, 0
1, 32448, Note_on_c, 9, 36, 110
1, 32448, Control_c, 6, 11, 125
1, 32448, Note_on_c, 1, 33, 102
1, 32448, Note_on_c, 1, 45, 112
1, 32449, Note_on_c, 9, 36, 0
1, 32452, Control_c, 6, 11, 127
1, 32464, Control_c, 10, 11, 126
1, 32468, Control_c, 10, 11, 125
1, 32472, Control_c, 6, 11, 125
1, 32472, Control_c, 10, 11, 123
1, 32476, Control_c, 10, 11, 121
1, 32476, Control_c, 6, 11, 122
1, 32480, Control_c, 6, 11, 119
1, 32480, Control_c, 10, 11, 119
1, 32484, Control_c, 6, 11, 116
1, 32484, Control_c, 10, 11, 118
1, 32488, Control_c, 10, 11, 116
1, 32488, Control_c, 6, 11, 113
1, 32492, Control_c, 6, 11, 110
1, 32492, Control_c, 10, 11, 114
1, 32495, Note_on_c, 9, 42, 39
1, 32496, Note_on_c, 9, 42, 0
1, 32496, Note_on_c, 9, 69, 78
1, 32496, Control_c, 6, 11, 107
1, 32496, Control_c, 10, 11, 112
1, 32496, Note_on_c, 0, 74, 97
1, 32497, Note_on_c, 9, 69, 0
1, 32498, Note_on_c, 3, 71, 0
1, 32500, Control_c, 6, 11, 105
1, 32500, Control_c, 10, 11, 111
1, 32504, Control_c, 6, 11, 102
1, 32504, Control_c, 10, 11, 109
1, 32508, Control_c, 6, 11, 99
1, 32508, Control_c, 10, 11, 107
1, 32512, Control_c, 10, 11, 105
1, 32512, Control_c, 6, 11, 96
1, 32516, Control_c, 6, 11, 93
1, 32516, Control_c, 10, 11, 104
1, 32520, Control_c, 6, 11, 90
1, 32520, Control_c, 10, 11, 102
1, 32524, Control_c, 6, 11, 87
1, 32524, Control_c, 10, 11, 100
1, 32528, Control_c, 6, 11, 85
1, 32528, Control_c, 10, 11, 98
1, 32530, Note_on_c, 1, 45, 0
1, 32530, Note_on_c, 1, 33, 0
1, 32532, Control_c, 6, 11, 82
1, 32532, Control_c, 10, 11, 97
1, 32536, Control_c, 6, 11, 79
1, 32536, Control_c, 10, 11, 95
1, 32540, Control_c, 10, 11, 93
1, 32540, Control_c, 6, 11, 76
1, 32543, Note_on_c, 4, 59, 0
1, 32543, Note_on_c, 9, 42, 110
1, 32544, Note_on_c, 9, 42, 0
1, 32544, Note_on_c, 9, 39, 110
1, 32544, Note_on_c, 9, 60, 77
1, 32544, Control_c, 6, 11, 73
1, 32544, Note_on_c, 9, 36, 110
1, 32544, Lyric_t, "groove "
1, 32544, Note_on_c, 9, 40, 110
1, 32544, Note_on_c, 1, 46, 93
1, 32544, Control_c, 10, 11, 91
1, 32544, Note_on_c, 1, 34, 99
1, 32544, Note_on_c, 4, 59, 54
1, 32544, Note_on_c, 3, 71, 97
1, 32544, Note_on_c, 9, 69, 56
1, 32545, Note_on_c, 9, 69, 0
1, 32545, Note_on_c, 9, 40, 0
1, 32545, Note_on_c, 9, 36, 0
1, 32545, Note_on_c, 9, 60, 0
1, 32545, Note_on_c, 9, 39, 0
1, 32548, Control_c, 6, 11, 70
1, 32548, Control_c, 10, 11, 89
1, 32552, Control_c, 6, 11, 67
1, 32556, Control_c, 6, 11, 64
1, 32556, Control_c, 10, 11, 88
1, 32559, Note_on_c, 2, 64, 0
1, 32559, Note_on_c, 2, 69, 0
1, 32560, Control_c, 10, 11, 87
1, 32564, Note_on_c, 2, 60, 0
1, 32564, Control_c, 10, 11, 85
1, 32568, Note_on_c, 3, 71, 0
1, 32568, Note_on_c, 2, 55, 0
1, 32568, Control_c, 10, 11, 84
1, 32569, Note_on_c, 4, 59, 0
1, 32569, Note_on_c, 0, 71, 0
1, 32569, Note_on_c, 0, 72, 0
1, 32569, Note_on_c, 4, 57, 40
1, 32569, Note_on_c, 3, 69, 83
1, 32572, Control_c, 10, 11, 82
1, 32573, Note_on_c, 0, 72, 90
1, 32576, Control_c, 10, 11, 81
1, 32580, Control_c, 10, 11, 79
1, 32584, Control_c, 10, 11, 77
1, 32588, Control_c, 10, 11, 76
1, 32589, Note_on_c, 3, 69, 0
1, 32592, Control_c, 10, 11, 74
1, 32593, Note_on_c, 4, 57, 0
1, 32593, Lyric_t, "me, "
1, 32593, Note_on_c, 3, 71, 83
1, 32593, Lyric_t, ""
1, 32593, Lyric_t, "\015"
1, 32593, Note_on_c, 9, 42, 42
1, 32593, Note_on_c, 4, 59, 40
1, 32594, Note_on_c, 9, 42, 0
1, 32596, Control_c, 10, 11, 73
1, 32600, Control_c, 10, 11, 71
1, 32604, Control_c, 10, 11, 69
1, 32608, Control_c, 10, 11, 68
1, 32612, Control_c, 10, 11, 66
1, 32614, Note_on_c, 1, 34, 0
1, 32615, Note_on_c, 6, 71, 0
1, 32615, Note_on_c, 10, 59, 0
1, 32616, Control_c, 10, 11, 65
1, 32620, Control_c, 10, 11, 63
1, 32621, Note_on_c, 1, 46, 0
1, 32624, Note_on_c, 0, 74, 0
1, 32624, Note_on_c, 2, 57, 72
1, 32624, Control_c, 10, 11, 61
1, 32625, Note_on_c, 0, 72, 0
1, 32630, Note_on_c, 2, 62, 87
1, 32636, Control_c, 6, 11, 127
1, 32636, Control_c, 10, 11, 127
1, 32639, Note_on_c, 0, 69, 85
1, 32640, Note_on_c, 2, 66, 66
1, 32640, Note_on_c, 9, 42, 96
1, 32640, Note_on_c, 9, 36, 110
1, 32640, Note_on_c, 0, 74, 104
1, 32640, Note_on_c, 1, 47, 100
1, 32640, Note_on_c, 0, 73, 85
1, 32641, Note_on_c, 9, 36, 0
1, 32641, Note_on_c, 9, 42, 0
1, 32641, Note_on_c, 0, 67, 0
1, 32641, Note_on_c, 0, 76, 0
1, 32641, Note_on_c, 1, 35, 78
1, 32641, Note_on_c, 0, 78, 88
1, 32643, Note_on_c, 2, 71, 96
1, 32687, Note_on_c, 9, 42, 37
1, 32688, Note_on_c, 9, 42, 0
1, 32688, Note_on_c, 3, 71, 0
1, 32734, Note_on_c, 4, 59, 0
1, 32735, Note_on_c, 3, 71, 96
1, 32735, Lyric_t, "give "
1, 32735, Note_on_c, 9, 42, 110
1, 32735, Note_on_c, 4, 59, 53
1, 32736, Note_on_c, 9, 42, 0
1, 32736, Note_on_c, 9, 40, 95
1, 32736, Note_on_c, 9, 60, 77
1, 32736, Note_on_c, 9, 39, 110
1, 32736, Note_on_c, 9, 69, 52
1, 32737, Note_on_c, 9, 69, 0
1, 32737, Note_on_c, 9, 39, 0
1, 32737, Note_on_c, 9, 60, 0
1, 32737, Note_on_c, 9, 40, 0
1, 32754, Note_on_c, 3, 71, 0
1, 32759, Note_on_c, 4, 59, 0
1, 32759, Lyric_t, "a "
1, 32759, Note_on_c, 3, 69, 82
1, 32759, Note_on_c, 4, 57, 39
1, 32760, Note_on_c, 1, 47, 0
1, 32761, Note_on_c, 1, 35, 0
1, 32781, Note_on_c, 3, 69, 0
1, 32782, Note_on_c, 2, 57, 0
1, 32783, Note_on_c, 0, 73, 0
1, 32783, Note_on_c, 4, 57, 0
1, 32783, Note_on_c, 3, 71, 78
1, 32783, Note_on_c, 1, 40, 86
1, 32783, Lyric_t, "lit"
1, 32783, Note_on_c, 4, 59, 35
1, 32783, Note_on_c, 1, 52, 88
1, 32784, Note_on_c, 9, 36, 91
1, 32784, Note_on_c, 0, 71, 87
1, 32784, Note_on_c, 9, 42, 44
1, 32784, Note_on_c, 9, 69, 81
1, 32785, Note_on_c, 9, 69, 0
1, 32785, Note_on_c, 9, 42, 0
1, 32785, Note_on_c, 9, 36, 0
1, 32796, Note_on_c, 1, 40, 0
1, 32800, Note_on_c, 1, 52, 0
1, 32803, Note_on_c, 2, 62, 0
1, 32804, Note_on_c, 2, 59, 74
1, 32806, Note_on_c, 3, 71, 0
1, 32807, Note_on_c, 4, 59, 0
1, 32807, Note_on_c, 2, 66, 0
1, 32807, Lyric_t, "tle "
1, 32807, Note_on_c, 3, 74, 98
1, 32807, Note_on_c, 4, 62, 55
1, 32811, Note_on_c, 2, 62, 88
1, 32818, Note_on_c, 2, 67, 98
1, 32820, Note_on_c, 2, 71, 0
1, 32827, Note_on_c, 2, 71, 100
1, 32831, Note_on_c, 4, 62, 0
1, 32831, Note_on_c, 3, 74, 0
1, 32831, Note_on_c, 9, 42, 95
1, 32831, Note_on_c, 4, 59, 46
1, 32831, Lyric_t, "sign. "
1, 32831, Lyric_t, ""
1, 32831, Lyric_t, "\015"
1, 32831, Note_on_c, 1, 28, 98
1, 32831, Note_on_c, 3, 71, 89
1, 32831, Note_on_c, 1, 40, 104
1, 32832, Note_on_c, 9, 42, 0
1, 32832, Note_on_c, 9, 36, 110
1, 32833, Note_on_c, 9, 36, 0
1, 32879, Note_on_c, 0, 74, 0
1, 32879, Note_on_c, 9, 42, 39
1, 32880, Note_on_c, 9, 42, 0
1, 32880, Note_on_c, 0, 74, 104
1, 32880, Note_on_c, 9, 69, 78
1, 32881, Note_on_c, 9, 69, 0
1, 32903, Note_on_c, 0, 71, 0
1, 32905, Note_on_c, 1, 28, 0
1, 32913, Note_on_c, 1, 40, 0
1, 32927, Note_on_c, 1, 28, 106
1, 32927, Note_on_c, 9, 42, 110
1, 32927, Note_on_c, 1, 40, 102
1, 32928, Note_on_c, 9, 42, 0
1, 32928, Note_on_c, 3, 71, 0
1, 32928, Note_on_c, 9, 40, 110
1, 32928, Lyric_t, ""
1, 32928, Lyric_t, "\015"
1, 32928, Note_on_c, 0, 71, 104
1, 32928, Note_on_c, 9, 36, 110
1, 32928, Note_on_c, 9, 60, 77
1, 32928, Note_on_c, 9, 39, 110
1, 32928, Note_on_c, 9, 69, 56
1, 32929, Note_on_c, 9, 69, 0
1, 32929, Note_on_c, 9, 39, 0
1, 32929, Note_on_c, 9, 40, 0
1, 32929, Note_on_c, 9, 60, 0
1, 32929, Note_on_c, 9, 36, 0
1, 32962, Note_on_c, 2, 62, 0
1, 32966, Note_on_c, 2, 59, 0
1, 32967, Note_on_c, 2, 71, 0
1, 32967, Note_on_c, 2, 67, 0
1, 32977, Note_on_c, 9, 42, 42
1, 32978, Note_on_c, 9, 42, 0
1, 33004, Note_on_c, 1, 40, 0
1, 33005, Note_on_c, 2, 58, 81
1, 33006, Note_on_c, 0, 69, 0
1, 33011, Note_on_c, 0, 71, 0
1, 33011, Note_on_c, 2, 63, 94
1, 33012, Note_on_c, 0, 78, 0
1, 33014, Note_on_c, 1, 28, 0
1, 33016, Note_on_c, 0, 74, 0
1, 33018, Note_on_c, 2, 67, 99
1, 33024, Note_on_c, 9, 42, 96
1, 33024, Note_on_c, 9, 36, 110
1, 33025, Note_on_c, 9, 36, 0
1, 33025, Note_on_c, 9, 42, 0
1, 33025, Note_on_c, 1, 48, 108
1, 33025, Note_on_c, 0, 79, 97
1, 33025, Note_on_c, 1, 36, 85
1, 33025, Note_on_c, 0, 74, 98
1, 33025, Note_on_c, 0, 75, 95
1, 33025, Note_on_c, 0, 70, 94
1, 33028, Note_on_c, 2, 72, 96
1, 33035, Note_on_c, 4, 59, 0
1, 33071, Note_on_c, 9, 42, 37
1, 33072, Note_on_c, 9, 42, 0
1, 33119, Note_on_c, 9, 42, 110
1, 33120, Note_on_c, 9, 42, 0
1, 33120, Note_on_c, 10, 55, 97
1, 33120, Note_on_c, 9, 69, 52
1, 33120, Note_on_c, 6, 67, 86
1, 33120, Note_on_c, 9, 40, 95
1, 33120, Note_on_c, 9, 39, 110
1, 33120, Note_on_c, 9, 60, 77
1, 33121, Note_on_c, 9, 60, 0
1, 33121, Note_on_c, 9, 39, 0
1, 33121, Note_on_c, 9, 40, 0
1, 33121, Note_on_c, 9, 69, 0
1, 33121, Lyric_t, "I'll "
1, 33121, Note_on_c, 3, 74, 120
1, 33121, Note_on_c, 4, 62, 77
1, 33146, Note_on_c, 1, 48, 0
1, 33148, Note_on_c, 1, 36, 0
1, 33162, Note_on_c, 3, 74, 0
1, 33167, Note_on_c, 1, 36, 84
1, 33167, Note_on_c, 1, 48, 80
1, 33168, Note_on_c, 9, 36, 91
1, 33168, Note_on_c, 9, 42, 44
1, 33168, Note_on_c, 9, 69, 81
1, 33169, Note_on_c, 9, 69, 0
1, 33169, Note_on_c, 9, 42, 0
1, 33169, Note_on_c, 9, 36, 0
1, 33169, Note_on_c, 4, 62, 0
1, 33169, Lyric_t, "be "
1, 33169, Note_on_c, 4, 60, 61
1, 33169, Note_on_c, 3, 72, 104
1, 33178, Note_on_c, 1, 36, 0
1, 33180, Note_on_c, 1, 48, 0
1, 33190, Note_on_c, 3, 72, 0
1, 33193, Note_on_c, 4, 60, 0
1, 33193, Note_on_c, 4, 62, 67
1, 33193, Lyric_t, "there "
1, 33193, Note_on_c, 3, 74, 110
1, 33215, Note_on_c, 9, 42, 95
1, 33216, Note_on_c, 9, 42, 0
1, 33216, Note_on_c, 9, 36, 110
1, 33217, Note_on_c, 9, 36, 0
1, 33217, Note_on_c, 1, 48, 102
1, 33217, Note_on_c, 1, 36, 97
1, 33251, Note_on_c, 6, 67, 0
1, 33257, Note_on_c, 10, 55, 0
1, 33262, Note_on_c, 3, 74, 0
1, 33263, Note_on_c, 9, 42, 39
1, 33264, Note_on_c, 9, 42, 0
1, 33264, Note_on_c, 10, 58, 100
1, 33264, Note_on_c, 9, 69, 78
1, 33264, Note_on_c, 6, 70, 100
1, 33265, Note_on_c, 9, 69, 0
1, 33288, Note_on_c, 1, 36, 0
1, 33294, Note_on_c, 1, 48, 0
1, 33311, Note_on_c, 4, 62, 0
1, 33311, Note_on_c, 1, 48, 97
1, 33311, Note_on_c, 9, 42, 110
1, 33312, Note_on_c, 9, 42, 0
1, 33312, Note_on_c, 2, 67, 0
1, 33312, Note_on_c, 9, 40, 110
1, 33312, Note_on_c, 4, 62, 77
1, 33312, Note_on_c, 9, 39, 110
1, 33312, Lyric_t, "af"
1, 33312, Note_on_c, 9, 36, 110
1, 33312, Note_on_c, 9, 69, 56
1, 33312, Note_on_c, 9, 60, 77
1, 33312, Note_on_c, 3, 74, 120
1, 33313, Note_on_c, 9, 60, 0
1, 33313, Note_on_c, 9, 69, 0
1, 33313, Note_on_c, 9, 36, 0
1, 33313, Note_on_c, 9, 39, 0
1, 33313, Note_on_c, 9, 40, 0
1, 33313, Note_on_c, 1, 36, 94
1, 33316, Note_on_c, 2, 72, 0
1, 33319, Note_on_c, 2, 63, 0
1, 33320, Note_on_c, 2, 58, 0
1, 33328, Note_on_c, 3, 74, 0
1, 33336, Note_on_c, 4, 62, 0
1, 33337, Lyric_t, "ter "
1, 33337, Note_on_c, 4, 62, 77
1, 33337, Note_on_c, 3, 74, 120
1, 33351, Note_on_c, 3, 74, 0
1, 33358, Note_on_c, 1, 48, 0
1, 33359, Note_on_c, 1, 37, 60
1, 33359, Note_on_c, 1, 49, 61
1, 33360, Note_on_c, 1, 36, 0
1, 33361, Note_on_c, 4, 62, 0
1, 33361, Note_on_c, 4, 60, 40
1, 33361, Note_on_c, 9, 42, 42
1, 33361, Lyric_t, "a"
1, 33361, Note_on_c, 3, 72, 83
1, 33362, Note_on_c, 9, 42, 0
1, 33373, Note_on_c, 3, 72, 0
1, 33382, Note_on_c, 1, 49, 0
1, 33382, Note_on_c, 1, 37, 0
1, 33385, Note_on_c, 4, 60, 0
1, 33385, Lyric_t, ""
1, 33385, Lyric_t, "\015"
1, 33385, Lyric_t, "while. "
1, 33385, Note_on_c, 4, 62, 77
1, 33385, Note_on_c, 2, 60, 72
1, 33385, Note_on_c, 3, 74, 120
1, 33393, Note_on_c, 2, 65, 82
1, 33396, Note_on_c, 6, 70, 0
1, 33396, Note_on_c, 10, 58, 0
1, 33397, Note_on_c, 10, 64, 91
1, 33400, Note_on_c, 6, 76, 88
1, 33401, Note_on_c, 2, 69, 95
1, 33407, Note_on_c, 10, 64, 0
1, 33408, Note_on_c, 0, 75, 0
1, 33408, Note_on_c, 0, 79, 0
1, 33408, Note_on_c, 0, 74, 0
1, 33408, Note_on_c, 0, 70, 0
1, 33408, Note_on_c, 0, 76, 89
1, 33408, Note_on_c, 6, 77, 114
1, 33408, Note_on_c, 0, 69, 94
1, 33408, Note_on_c, 9, 36, 110
1, 33408, Note_on_c, 10, 65, 122
1, 33408, Note_on_c, 9, 42, 96
1, 33408, Note_on_c, 2, 74, 86
1, 33408, Note_on_c, 0, 72, 88
1, 33408, Note_on_c, 0, 65, 93
1, 33409, Note_on_c, 9, 42, 0
1, 33409, Note_on_c, 9, 36, 0
1, 33409, Note_on_c, 1, 38, 102
1, 33409, Note_on_c, 1, 50, 106
1, 33411, Note_on_c, 6, 76, 0
1, 33451, Note_on_c, 3, 74, 0
1, 33455, Note_on_c, 9, 42, 37
1, 33456, Note_on_c, 9, 42, 0
1, 33503, Note_on_c, 9, 42, 110
1, 33504, Note_on_c, 9, 42, 0
1, 33504, Note_on_c, 10, 65, 0
1, 33504, Note_on_c, 6, 77, 0
1, 33504, Note_on_c, 9, 69, 52
1, 33504, Note_on_c, 10, 67, 102
1, 33504, Note_on_c, 6, 79, 122
1, 33504, Note_on_c, 9, 40, 95
1, 33504, Note_on_c, 9, 39, 110
1, 33504, Note_on_c, 9, 60, 77
1, 33505, Note_on_c, 9, 60, 0
1, 33505, Note_on_c, 9, 39, 0
1, 33505, Note_on_c, 9, 40, 0
1, 33505, Note_on_c, 9, 69, 0
1, 33506, Note_on_c, 4, 62, 0
1, 33507, Note_on_c, 3, 74, 120
1, 33507, Lyric_t, "If "
1, 33507, Note_on_c, 4, 62, 77
1, 33531, Note_on_c, 0, 69, 0
1, 33535, Note_on_c, 0, 65, 0
1, 33536, Note_on_c, 1, 50, 0
1, 33539, Note_on_c, 1, 38, 0
1, 33544, Note_on_c, 2, 74, 0
1, 33547, Note_on_c, 2, 69, 0
1, 33548, Note_on_c, 2, 60, 0
1, 33551, Note_on_c, 0, 72, 0
1, 33551, Note_on_c, 4, 62, 0
1, 33551, Note_on_c, 0, 76, 0
1, 33551, Note_on_c, 3, 74, 0
1, 33551, Note_on_c, 3, 70, 120
1, 33551, Note_on_c, 0, 74, 87
1, 33551, Note_on_c, 0, 69, 87
1, 33551, Lyric_t, "you "
1, 33551, Note_on_c, 0, 65, 75
1, 33551, Note_on_c, 1, 55, 88
1, 33551, Note_on_c, 4, 58, 77
1, 33551, Note_on_c, 0, 70, 78
1, 33552, Note_on_c, 10, 67, 0
1, 33552, Note_on_c, 6, 79, 0
1, 33552, Note_on_c, 9, 42, 44
1, 33552, Note_on_c, 10, 62, 120
1, 33552, Note_on_c, 9, 36, 91
1, 33552, Note_on_c, 0, 77, 87
1, 33552, Note_on_c, 9, 69, 81
1, 33552, Note_on_c, 6, 74, 99
1, 33553, Note_on_c, 9, 69, 0
1, 33553, Note_on_c, 9, 42, 0
1, 33553, Note_on_c, 9, 36, 0
1, 33553, Note_on_c, 1, 43, 91
1, 33568, Note_on_c, 1, 43, 0
1, 33570, Note_on_c, 1, 55, 0
1, 33572, Note_on_c, 2, 65, 0
1, 33587, Note_on_c, 2, 62, 73
1, 33588, Note_on_c, 2, 65, 84
1, 33596, Note_on_c, 2, 70, 96
1, 33599, Note_on_c, 1, 43, 110
1, 33599, Note_on_c, 9, 42, 95
1, 33600, Note_on_c, 9, 42, 0
1, 33600, Note_on_c, 4, 58, 0
1, 33600, Note_on_c, 3, 70, 0
1, 33600, Note_on_c, 4, 53, 61
1, 33600, Note_on_c, 3, 65, 104
1, 33600, Lyric_t, "want "
1, 33600, Note_on_c, 1, 31, 97
1, 33600, Note_on_c, 9, 36, 110
1, 33601, Note_on_c, 9, 36, 0
1, 33601, Note_on_c, 2, 74, 96
1, 33647, Note_on_c, 9, 42, 39
1, 33648, Note_on_c, 9, 42, 0
1, 33648, Note_on_c, 9, 69, 78
1, 33649, Note_on_c, 9, 69, 0
1, 33649, Note_on_c, 3, 65, 0
1, 33655, Note_on_c, 4, 53, 0
1, 33655, Note_on_c, 4, 65, 77
1, 33655, Note_on_c, 3, 77, 120
1, 33655, Lyric_t, "my "
1, 33679, Note_on_c, 1, 31, 0
1, 33681, Note_on_c, 1, 43, 0
1, 33695, Note_on_c, 9, 42, 110
1, 33696, Note_on_c, 9, 42, 0
1, 33696, Note_on_c, 9, 69, 56
1, 33696, Note_on_c, 9, 40, 110
1, 33696, Note_on_c, 9, 36, 110
1, 33696, Note_on_c, 9, 60, 77
1, 33696, Note_on_c, 9, 39, 110
1, 33697, Note_on_c, 9, 39, 0
1, 33697, Note_on_c, 9, 60, 0
1, 33697, Note_on_c, 9, 36, 0
1, 33697, Note_on_c, 9, 40, 0
1, 33697, Note_on_c, 9, 69, 0
1, 33697, Note_on_c, 1, 31, 87
1, 33697, Note_on_c, 1, 43, 112
1, 33706, Note_on_c, 2, 70, 0
1, 33708, Note_on_c, 2, 65, 0
1, 33718, Note_on_c, 2, 62, 0
1, 33720, Note_on_c, 2, 74, 0
1, 33726, Note_on_c, 3, 77, 0
1, 33743, Note_on_c, 10, 62, 0
1, 33743, Note_on_c, 6, 74, 0
1, 33745, Note_on_c, 9, 42, 42
1, 33746, Note_on_c, 9, 42, 0
1, 33752, Note_on_c, 4, 65, 0
1, 33752, Note_on_c, 4, 62, 77
1, 33752, Lyric_t, "love, "
1, 33752, Note_on_c, 3, 74, 120
1, 33773, Note_on_c, 1, 31, 0
1, 33773, Note_on_c, 1, 43, 0
1, 33780, Note_on_c, 2, 54, 47
1, 33786, Note_on_c, 0, 70, 0
1, 33786, Note_on_c, 0, 65, 0
1, 33786, Note_on_c, 0, 74, 0
1, 33787, Note_on_c, 0, 77, 0
1, 33788, Note_on_c, 0, 69, 0
1, 33788, Note_on_c, 2, 60, 71
1, 33792, Note_on_c, 0, 69, 101
1, 33792, Note_on_c, 9, 42, 96
1, 33792, Note_on_c, 0, 74, 90
1, 33792, Note_on_c, 9, 36, 110
1, 33792, Note_on_c, 0, 64, 104
1, 33792, Note_on_c, 0, 72, 88
1, 33792, Note_on_c, 0, 76, 80
1, 33793, Note_on_c, 9, 36, 0
1, 33793, Note_on_c, 9, 42, 0
1, 33793, Note_on_c, 1, 30, 107
1, 33793, Note_on_c, 1, 42, 91
1, 33795, Note_on_c, 2, 64, 89
1, 33804, Note_on_c, 2, 69, 87
1, 33813, Note_on_c, 1, 30, 0
1, 33817, Note_on_c, 1, 42, 0
1, 33839, Note_on_c, 9, 42, 37
1, 33839, Note_on_c, 1, 42, 91
1, 33840, Note_on_c, 9, 42, 0
1, 33841, Note_on_c, 1, 30, 85
1, 33859, Note_on_c, 1, 42, 0
1, 33861, Note_on_c, 1, 30, 0
1, 33885, Note_on_c, 6, 74, 95
1, 33887, Note_on_c, 1, 42, 101
1, 33887, Note_on_c, 1, 30, 97
1, 33887, Note_on_c, 9, 42, 110
1, 33888, Note_on_c, 9, 42, 0
1, 33888, Note_on_c, 9, 36, 99
1, 33888, Note_on_c, 9, 60, 77
1, 33888, Note_on_c, 9, 40, 95
1, 33888, Note_on_c, 9, 39, 110
1, 33888, Note_on_c, 9, 69, 52
1, 33888, Note_on_c, 10, 62, 100
1, 33889, Note_on_c, 9, 69, 0
1, 33889, Note_on_c, 9, 39, 0
1, 33889, Note_on_c, 9, 40, 0
1, 33889, Note_on_c, 9, 60, 0
1, 33889, Note_on_c, 9, 36, 0
1, 33906, Note_on_c, 1, 30, 0
1, 33913, Note_on_c, 1, 42, 0
1, 33935, Note_on_c, 1, 42, 99
1, 33936, Note_on_c, 1, 30, 75
1, 33936, Note_on_c, 9, 42, 44
1, 33936, Note_on_c, 9, 69, 81
1, 33937, Note_on_c, 9, 69, 0
1, 33937, Note_on_c, 9, 42, 0
1, 33954, Note_on_c, 1, 30, 0
1, 33959, Note_on_c, 1, 42, 0
1, 33983, Note_on_c, 9, 42, 95
1, 33983, Note_on_c, 1, 42, 99
1, 33983, Note_on_c, 1, 30, 113
1, 33984, Note_on_c, 9, 42, 0
1, 33984, Note_on_c, 9, 36, 110
1, 33985, Note_on_c, 9, 36, 0
1, 34002, Note_on_c, 1, 30, 0
1, 34005, Note_on_c, 1, 42, 0
1, 34031, Note_on_c, 9, 42, 39
1, 34031, Note_on_c, 1, 42, 104
1, 34031, Note_on_c, 1, 30, 104
1, 34032, Note_on_c, 9, 42, 0
1, 34032, Note_on_c, 9, 69, 78
1, 34033, Note_on_c, 9, 69, 0
1, 34044, Note_on_c, 2, 54, 0
1, 34048, Note_on_c, 2, 60, 0
1, 34048, Note_on_c, 2, 69, 0
1, 34049, Note_on_c, 3, 74, 0
1, 34054, Note_on_c, 1, 30, 0
1, 34056, Note_on_c, 2, 64, 0
1, 34056, Note_on_c, 1, 42, 0
1, 34076, Note_on_c, 4, 62, 0
1, 34077, Note_on_c, 4, 62, 77
1, 34077, Lyric_t, "we "
1, 34077, Note_on_c, 3, 74, 120
1, 34079, Note_on_c, 9, 42, 110
1, 34079, Note_on_c, 1, 42, 104
1, 34080, Note_on_c, 9, 42, 0
1, 34080, Note_on_c, 9, 69, 56
1, 34080, Note_on_c, 9, 60, 77
1, 34080, Note_on_c, 9, 39, 110
1, 34080, Note_on_c, 9, 36, 102
1, 34080, Note_on_c, 1, 30, 101
1, 34080, Note_on_c, 9, 40, 110
1, 34081, Note_on_c, 9, 40, 0
1, 34081, Note_on_c, 9, 36, 0
1, 34081, Note_on_c, 9, 39, 0
1, 34081, Note_on_c, 9, 69, 0
1, 34081, Note_on_c, 9, 60, 0
1, 34102, Note_on_c, 1, 30, 0
1, 34103, Note_on_c, 1, 42, 0
1, 34124, Note_on_c, 3, 74, 0
1, 34127, Note_on_c, 4, 62, 0
1, 34127, Note_on_c, 4, 59, 60
1, 34127, Note_on_c, 3, 71, 103
1, 34127, Note_on_c, 1, 42, 99
1, 34127, Lyric_t, ""
1, 34127, Lyric_t, "\015"
1, 34127, Lyric_t, "can "
1, 34128, Note_on_c, 10, 62, 0
1, 34128, Note_on_c, 10, 60, 102
1, 34129, Note_on_c, 6, 74, 0
1, 34129, Note_on_c, 6, 72, 83
1, 34129, Note_on_c, 9, 42, 42
1, 34129, Note_on_c, 1, 30, 107
1, 34130, Note_on_c, 9, 42, 0
1, 34139, Note_on_c, 0, 64, 0
1, 34141, Note_on_c, 0, 72, 0
1, 34143, Note_on_c, 0, 69, 0
1, 34143, Note_on_c, 0, 74, 0
1, 34144, Note_on_c, 1, 42, 0
1, 34146, Note_on_c, 0, 76, 0
1, 34151, Note_on_c, 1, 30, 0
1, 34173, Note_on_c, 3, 71, 0
1, 34173, Note_on_c, 2, 63, 97
1, 34175, Note_on_c, 1, 35, 102
1, 34175, Note_on_c, 2, 69, 94
1, 34175, Note_on_c, 1, 47, 102
1, 34176, Note_on_c, 10, 60, 0
1, 34176, Note_on_c, 4, 59, 0
1, 34176, Note_on_c, 0, 74, 104
1, 34176, Lyric_t, "boo"
1, 34176, Note_on_c, 10, 59, 108
1, 34176, Note_on_c, 2, 74, 92
1, 34176, Note_on_c, 9, 42, 96
1, 34176, Note_on_c, 9, 40, 95
1, 34176, Note_on_c, 4, 71, 66
1, 34176, Note_on_c, 3, 75, 109
1, 34176, Note_on_c, 9, 36, 110
1, 34176, Note_on_c, 4, 63, 66
1, 34177, Note_on_c, 9, 36, 0
1, 34177, Note_on_c, 9, 42, 0
1, 34177, Note_on_c, 9, 40, 0
1, 34177, Note_on_c, 0, 66, 99
1, 34177, Note_on_c, 0, 63, 94
1, 34178, Note_on_c, 6, 72, 0
1, 34178, Note_on_c, 0, 71, 104
1, 34178, Note_on_c, 0, 69, 93
1, 34182, Note_on_c, 6, 71, 83
1, 34199, Note_on_c, 6, 71, 0
1, 34200, Note_on_c, 10, 59, 0
1, 34218, Note_on_c, 2, 69, 0
1, 34220, Note_on_c, 2, 74, 0
1, 34220, Note_on_c, 2, 63, 0
1, 34222, Note_on_c, 0, 63, 0
1, 34222, Note_on_c, 0, 74, 0
1, 34223, Note_on_c, 3, 75, 0
1, 34223, Note_on_c, 0, 66, 0
1, 34224, Note_on_c, 0, 71, 0
1, 34227, Note_on_c, 0, 69, 0
1, 34232, Note_on_c, 1, 47, 0
1, 34234, Note_on_c, 1, 35, 0
1, 34270, Note_on_c, 6, 83, 125
1, 34270, Note_on_c, 10, 71, 127
1, 34271, Note_on_c, 4, 63, 0
1, 34271, Note_on_c, 4, 71, 0
1, 34271, Note_on_c, 2, 63, 99
1, 34272, Note_on_c, 9, 40, 95
1, 34272, Note_on_c, 9, 60, 77
1, 34272, Note_on_c, 4, 71, 66
1, 34272, Note_on_c, 4, 63, 77
1, 34272, Note_on_c, 0, 74, 107
1, 34272, Lyric_t, "gie "
1, 34272, Note_on_c, 9, 36, 102
1, 34272, Note_on_c, 3, 75, 120
1, 34272, Note_on_c, 9, 42, 37
1, 34273, Note_on_c, 9, 42, 0
1, 34273, Note_on_c, 9, 36, 0
1, 34273, Note_on_c, 9, 40, 0
1, 34273, Note_on_c, 9, 60, 0
1, 34273, Note_on_c, 1, 35, 108
1, 34273, Note_on_c, 1, 47, 122
1, 34273, Note_on_c, 2, 69, 79
1, 34274, Note_on_c, 0, 69, 105
1, 34274, Note_on_c, 0, 71, 107
1, 34274, Note_on_c, 2, 74, 87
1, 34274, Note_on_c, 0, 66, 105
1, 34274, Note_on_c, 0, 63, 103
1, 34317, Note_on_c, 10, 71, 0
1, 34317, Note_on_c, 6, 83, 0
1, 34318, Note_on_c, 10, 70, 105
1, 34319, Note_on_c, 3, 75, 0
1, 34320, Note_on_c, 6, 82, 104
1, 34323, Note_on_c, 2, 69, 0
1, 34323, Note_on_c, 10, 69, 103
1, 34325, Note_on_c, 2, 74, 0
1, 34325, Note_on_c, 2, 63, 0
1, 34330, Note_on_c, 6, 81, 92
1, 34331, Note_on_c, 10, 68, 94
1, 34333, Note_on_c, 0, 74, 0
1, 34335, Note_on_c, 0, 66, 0
1, 34335, Note_on_c, 10, 70, 0
1, 34335, Note_on_c, 0, 71, 0
1, 34335, Note_on_c, 6, 82, 0
1, 34337, Note_on_c, 0, 69, 0
1, 34337, Note_on_c, 6, 80, 82
1, 34338, Note_on_c, 10, 69, 0
1, 34338, Note_on_c, 10, 67, 88
1, 34339, Note_on_c, 0, 63, 0
1, 34344, Note_on_c, 10, 68, 0
1, 34344, Note_on_c, 10, 66, 84
1, 34345, Note_on_c, 6, 81, 0
1, 34345, Note_on_c, 6, 79, 69
1, 34349, Note_on_c, 6, 80, 0
1, 34351, Note_on_c, 10, 67, 0
1, 34351, Note_on_c, 6, 78, 66
1, 34351, Note_on_c, 10, 65, 77
1, 34355, Note_on_c, 10, 66, 0
1, 34355, Note_on_c, 6, 79, 0
1, 34357, Note_on_c, 6, 77, 62
1, 34358, Note_on_c, 10, 64, 71
1, 34360, Note_on_c, 10, 65, 0
1, 34360, Note_on_c, 6, 78, 0
1, 34361, Note_on_c, 10, 64, 0
1, 34364, Note_on_c, 6, 77, 0
1, 34368, Note_on_c, 9, 69, 78
1, 34369, Note_on_c, 9, 69, 0
1, 34372, Pitch_bend_c, 1, 8064
1, 34376, Pitch_bend_c, 1, 7936
1, 34380, Pitch_bend_c, 1, 7680
1, 34384, Pitch_bend_c, 1, 7552
1, 34388, Pitch_bend_c, 1, 7424
1, 34392, Pitch_bend_c, 1, 7168
1, 34396, Pitch_bend_c, 1, 7040
1, 34400, Pitch_bend_c, 1, 6912
1, 34404, Pitch_bend_c, 1, 6656
1, 34408, Pitch_bend_c, 1, 6528
1, 34412, Pitch_bend_c, 1, 6400
1, 34416, Pitch_bend_c, 1, 6144
1, 34420, Pitch_bend_c, 1, 6016
1, 34424, Pitch_bend_c, 1, 5888
1, 34428, Pitch_bend_c, 1, 5632
1, 34432, Pitch_bend_c, 1, 5504
1, 34436, Pitch_bend_c, 1, 5376
1, 34440, Pitch_bend_c, 1, 5120
1, 34444, Pitch_bend_c, 1, 4992
1, 34448, Pitch_bend_c, 1, 4864
1, 34452, Pitch_bend_c, 1, 4608
1, 34456, Pitch_bend_c, 1, 4480
1, 34460, Pitch_bend_c, 1, 4352
1, 34464, Note_on_c, 4, 63, 0
1, 34464, Note_on_c, 4, 71, 0
1, 34464, Note_on_c, 9, 60, 77
1, 34464, Pitch_bend_c, 1, 4096
1, 34464, Note_on_c, 9, 40, 110
1, 34464, Note_on_c, 9, 69, 71
1, 34465, Note_on_c, 9, 69, 0
1, 34465, Note_on_c, 9, 60, 0
1, 34465, Note_on_c, 9, 40, 0
1, 34465, Note_on_c, 4, 59, 77
1, 34467, Lyric_t, "on "
1, 34467, Note_on_c, 3, 71, 120
1, 34468, Pitch_bend_c, 1, 3968
1, 34472, Pitch_bend_c, 1, 3840
1, 34476, Pitch_bend_c, 1, 3584
1, 34480, Pitch_bend_c, 1, 3456
1, 34484, Pitch_bend_c, 1, 3328
1, 34488, Pitch_bend_c, 1, 3072
1, 34492, Pitch_bend_c, 1, 2944
1, 34496, Pitch_bend_c, 1, 2816
1, 34500, Pitch_bend_c, 1, 2560
1, 34504, Pitch_bend_c, 1, 2432
1, 34508, Pitch_bend_c, 1, 2304
1, 34512, Pitch_bend_c, 1, 2048
1, 34516, Pitch_bend_c, 1, 1920
1, 34520, Note_on_c, 3, 71, 0
1, 34520, Pitch_bend_c, 1, 1792
1, 34524, Pitch_bend_c, 1, 1536
1, 34528, Pitch_bend_c, 1, 1408
1, 34532, Pitch_bend_c, 1, 1280
1, 34534, Note_on_c, 1, 35, 0
1, 34536, Note_on_c, 1, 47, 0
1, 34536, Pitch_bend_c, 1, 1024
1, 34540, Pitch_bend_c, 1, 896
1, 34544, Pitch_bend_c, 1, 768
1, 34548, Pitch_bend_c, 1, 512
1, 34552, Pitch_bend_c, 1, 384
1, 34556, Pitch_bend_c, 1, 128
1, 34558, Pitch_bend_c, 1, 8192
1, 34560, Note_on_c, 4, 59, 0
1, 34560, Note_on_c, 9, 43, 89
1, 34560, Note_on_c, 3, 76, 114
1, 34560, Note_on_c, 1, 28, 104
1, 34560, Note_on_c, 4, 64, 71
1, 34560, Note_on_c, 0, 79, 78
1, 34560, Note_on_c, 0, 69, 90
1, 34560, Note_on_c, 0, 74, 95
1, 34560, Note_on_c, 9, 36, 110
1, 34560, Note_on_c, 9, 49, 96
1, 34560, Note_on_c, 0, 76, 86
1, 34560, Lyric_t, "down, "
1, 34561, Note_on_c, 9, 49, 0
1, 34561, Note_on_c, 9, 36, 0
1, 34561, Note_on_c, 9, 43, 0
1, 34561, Note_on_c, 5, 28, 80
1, 34561, Note_on_c, 1, 40, 110
1, 34561, Note_on_c, 0, 81, 80
1, 34561, Note_on_c, 5, 40, 88
1, 34574, Note_on_c, 0, 76, 0
1, 34575, Note_on_c, 0, 74, 0
1, 34576, Note_on_c, 0, 79, 0
1, 34576, Note_on_c, 0, 69, 0
1, 34578, Note_on_c, 0, 81, 0
1, 34607, Note_on_c, 9, 42, 37
1, 34608, Note_on_c, 9, 42, 0
1, 34609, Note_on_c, 0, 69, 74
1, 34609, Note_on_c, 0, 74, 78
1, 34609, Note_on_c, 0, 76, 70
1, 34609, Note_on_c, 0, 79, 80
1, 34609, Note_on_c, 0, 81, 67
1, 34619, Note_on_c, 0, 81, 0
1, 34619, Note_on_c, 0, 76, 0
1, 34622, Note_on_c, 0, 69, 0
1, 34624, Note_on_c, 0, 74, 0
1, 34624, Note_on_c, 0, 79, 0
1, 34655, Note_on_c, 9, 42, 110
1, 34656, Note_on_c, 9, 42, 0
1, 34656, Note_on_c, 0, 79, 93
1, 34656, Note_on_c, 9, 40, 95
1, 34656, Note_on_c, 9, 39, 110
1, 34656, Note_on_c, 9, 60, 77
1, 34657, Note_on_c, 9, 60, 0
1, 34657, Note_on_c, 9, 39, 0
1, 34657, Note_on_c, 9, 40, 0
1, 34657, Note_on_c, 0, 74, 95
1, 34657, Note_on_c, 0, 76, 83
1, 34657, Note_on_c, 0, 69, 91
1, 34657, Note_on_c, 0, 81, 78
1, 34668, Note_on_c, 0, 81, 0
1, 34668, Note_on_c, 0, 76, 0
1, 34672, Note_on_c, 0, 74, 0
1, 34672, Note_on_c, 1, 28, 0
1, 34672, Note_on_c, 0, 69, 0
1, 34674, Note_on_c, 0, 79, 0
1, 34676, Note_on_c, 1, 40, 0
1, 34676, Note_on_c, 3, 76, 0
1, 34678, Note_on_c, 5, 28, 0
1, 34680, Note_on_c, 5, 40, 0
1, 34703, Note_on_c, 1, 43, 100
1, 34703, Note_on_c, 1, 31, 114
1, 34703, Note_on_c, 5, 43, 72
1, 34704, Note_on_c, 9, 42, 44
1, 34704, Note_on_c, 9, 36, 91
1, 34704, Note_on_c, 5, 31, 72
1, 34705, Note_on_c, 9, 36, 0
1, 34705, Note_on_c, 9, 42, 0
1, 34705, Note_on_c, 0, 76, 94
1, 34705, Note_on_c, 0, 79, 96
1, 34705, Note_on_c, 0, 81, 90
1, 34705, Note_on_c, 0, 74, 104
1, 34705, Note_on_c, 0, 69, 100
1, 34716, Note_on_c, 5, 43, 0
1, 34719, Note_on_c, 5, 31, 0
1, 34721, Note_on_c, 1, 43, 0
1, 34721, Note_on_c, 1, 31, 0
1, 34732, Note_on_c, 0, 81, 0
1, 34732, Note_on_c, 0, 76, 0
1, 34734, Note_on_c, 0, 74, 0
1, 34734, Note_on_c, 0, 69, 0
1, 34736, Note_on_c, 0, 79, 0
1, 34751, Note_on_c, 9, 42, 95
1, 34752, Note_on_c, 9, 42, 0
1, 34752, Note_on_c, 1, 45, 117
1, 34752, Note_on_c, 1, 33, 112
1, 34752, Note_on_c, 5, 45, 80
1, 34752, Note_on_c, 9, 36, 110
1, 34753, Note_on_c, 9, 36, 0
1, 34753, Note_on_c, 5, 33, 80
1, 34756, Note_on_c, 4, 64, 0
1, 34799, Note_on_c, 9, 42, 39
1, 34800, Note_on_c, 9, 42, 0
1, 34828, Note_on_c, 5, 33, 0
1, 34830, Note_on_c, 5, 45, 0
1, 34832, Note_on_c, 1, 33, 0
1, 34838, Note_on_c, 1, 45, 0
1, 34847, Note_on_c, 9, 42, 110
1, 34848, Note_on_c, 9, 42, 0
1, 34848, Note_on_c, 1, 43, 112
1, 34848, Note_on_c, 9, 60, 77
1, 34848, Note_on_c, 9, 36, 110
1, 34848, Note_on_c, 9, 40, 110
1, 34848, Note_on_c, 1, 31, 100
1, 34848, Note_on_c, 9, 39, 110
1, 34849, Note_on_c, 9, 39, 0
1, 34849, Note_on_c, 9, 60, 0
1, 34849, Note_on_c, 9, 36, 0
1, 34849, Note_on_c, 9, 40, 0
1, 34849, Note_on_c, 5, 43, 79
1, 34849, Note_on_c, 5, 31, 79
1, 34897, Note_on_c, 9, 42, 42
1, 34898, Note_on_c, 9, 42, 0
1, 34925, Note_on_c, 1, 31, 0
1, 34927, Note_on_c, 1, 43, 0
1, 34928, Note_on_c, 5, 43, 0
1, 34928, Note_on_c, 5, 31, 0
1, 34943, Note_on_c, 0, 74, 89
1, 34944, Lyric_t, "down, "
1, 34944, Note_on_c, 0, 79, 89
1, 34944, Lyric_t, ""
1, 34944, Lyric_t, "\015"
1, 34944, Note_on_c, 3, 76, 112
1, 34944, Note_on_c, 9, 36, 110
1, 34944, Note_on_c, 9, 42, 96
1, 34944, Note_on_c, 4, 64, 69
1, 34944, Note_on_c, 4, 69, 69
1, 34945, Note_on_c, 9, 42, 0
1, 34945, Note_on_c, 9, 36, 0
1, 34945, Note_on_c, 5, 30, 78
1, 34945, Note_on_c, 0, 69, 89
1, 34945, Note_on_c, 1, 42, 99
1, 34945, Note_on_c, 5, 42, 78
1, 34945, Note_on_c, 1, 30, 97
1, 34945, Note_on_c, 0, 81, 89
1, 34945, Note_on_c, 0, 76, 89
1, 34980, Note_on_c, 0, 76, 0
1, 34982, Note_on_c, 0, 69, 0
1, 34982, Note_on_c, 0, 81, 0
1, 34984, Note_on_c, 0, 79, 0
1, 34984, Note_on_c, 0, 74, 0
1, 34991, Note_on_c, 9, 42, 37
1, 34992, Note_on_c, 9, 42, 0
1, 35008, Lyric_t, ""
1, 35008, Lyric_t, "\015"
1, 35039, Note_on_c, 9, 42, 110
1, 35040, Note_on_c, 9, 42, 0
1, 35040, Note_on_c, 9, 39, 110
1, 35040, Note_on_c, 9, 60, 77
1, 35040, Note_on_c, 9, 40, 95
1, 35041, Note_on_c, 9, 40, 0
1, 35041, Note_on_c, 9, 60, 0
1, 35041, Note_on_c, 9, 39, 0
1, 35042, Note_on_c, 3, 76, 0
1, 35052, Note_on_c, 1, 30, 0
1, 35053, Note_on_c, 5, 42, 0
1, 35054, Note_on_c, 5, 30, 0
1, 35055, Note_on_c, 1, 42, 0
1, 35087, Note_on_c, 5, 47, 91
1, 35087, Note_on_c, 5, 35, 90
1, 35088, Note_on_c, 4, 64, 0
1, 35088, Note_on_c, 4, 69, 0
1, 35088, Note_on_c, 1, 47, 110
1, 35088, Note_on_c, 9, 36, 91
1, 35088, Note_on_c, 9, 42, 44
1, 35088, Note_on_c, 1, 35, 98
1, 35089, Note_on_c, 9, 42, 0
1, 35089, Note_on_c, 9, 36, 0
1, 35135, Note_on_c, 4, 64, 56
1, 35135, Lyric_t, "boo"
1, 35135, Note_on_c, 3, 76, 99
1, 35135, Note_on_c, 9, 42, 95
1, 35136, Note_on_c, 9, 42, 0
1, 35136, Note_on_c, 4, 69, 69
1, 35136, Note_on_c, 9, 36, 110
1, 35137, Note_on_c, 9, 36, 0
1, 35176, Note_on_c, 1, 47, 0
1, 35182, Note_on_c, 1, 35, 0
1, 35183, Note_on_c, 5, 35, 0
1, 35183, Note_on_c, 9, 42, 39
1, 35183, Note_on_c, 1, 33, 100
1, 35183, Note_on_c, 1, 45, 97
1, 35184, Note_on_c, 9, 42, 0
1, 35184, Note_on_c, 4, 69, 0
1, 35185, Note_on_c, 4, 64, 0
1, 35185, Note_on_c, 4, 62, 30
1, 35185, Lyric_t, "gie "
1, 35185, Note_on_c, 5, 45, 74
1, 35185, Note_on_c, 3, 74, 73
1, 35185, Note_on_c, 5, 33, 74
1, 35186, Note_on_c, 3, 76, 0
1, 35187, Note_on_c, 5, 47, 0
1, 35199, Note_on_c, 1, 45, 0
1, 35200, Note_on_c, 1, 33, 0
1, 35201, Note_on_c, 5, 33, 0
1, 35204, Note_on_c, 5, 45, 0
1, 35228, Note_on_c, 3, 74, 0
1, 35231, Note_on_c, 4, 62, 0
1, 35231, Note_on_c, 9, 42, 110
1, 35231, Note_on_c, 4, 64, 45
1, 35231, Lyric_t, "on "
1, 35231, Note_on_c, 1, 35, 97
1, 35231, Note_on_c, 3, 76, 88
1, 35232, Note_on_c, 9, 42, 0
1, 35232, Note_on_c, 5, 35, 88
1, 35232, Note_on_c, 5, 47, 87
1, 35232, Note_on_c, 1, 47, 120
1, 35232, Note_on_c, 9, 36, 110
1, 35232, Note_on_c, 9, 39, 110
1, 35232, Note_on_c, 9, 40, 110
1, 35232, Note_on_c, 9, 60, 77
1, 35233, Note_on_c, 9, 60, 0
1, 35233, Note_on_c, 9, 40, 0
1, 35233, Note_on_c, 9, 36, 0
1, 35233, Note_on_c, 9, 39, 0
1, 35281, Note_on_c, 9, 42, 42
1, 35282, Note_on_c, 9, 42, 0
1, 35296, Note_on_c, 5, 35, 0
1, 35297, Note_on_c, 5, 47, 0
1, 35300, Note_on_c, 3, 76, 0
1, 35318, Note_on_c, 1, 35, 0
1, 35318, Note_on_c, 1, 47, 0
1, 35327, Note_on_c, 4, 64, 0
1, 35328, Note_on_c, 9, 42, 96
1, 35328, Note_on_c, 0, 69, 90
1, 35328, Lyric_t, "down, "
1, 35328, Note_on_c, 1, 28, 104
1, 35328, Note_on_c, 9, 36, 110
1, 35328, Note_on_c, 3, 76, 112
1, 35328, Note_on_c, 0, 74, 95
1, 35328, Note_on_c, 0, 79, 78
1, 35328, Note_on_c, 0, 76, 86
1, 35328, Note_on_c, 4, 64, 69
1, 35329, Note_on_c, 9, 36, 0
1, 35329, Note_on_c, 9, 42, 0
1, 35329, Note_on_c, 1, 40, 110
1, 35329, Note_on_c, 5, 40, 88
1, 35329, Note_on_c, 0, 81, 80
1, 35329, Note_on_c, 5, 28, 80
1, 35329, Note_on_c, 9, 43, 86
1, 35330, Note_on_c, 9, 43, 0
1, 35342, Note_on_c, 0, 76, 0
1, 35343, Note_on_c, 0, 74, 0
1, 35344, Note_on_c, 0, 69, 0
1, 35344, Note_on_c, 0, 79, 0
1, 35346, Note_on_c, 0, 81, 0
1, 35375, Note_on_c, 9, 42, 37
1, 35376, Note_on_c, 9, 42, 0
1, 35377, Note_on_c, 0, 81, 67
1, 35377, Note_on_c, 0, 74, 78
1, 35377, Note_on_c, 0, 69, 74
1, 35377, Note_on_c, 0, 76, 70
1, 35377, Note_on_c, 0, 79, 80
1, 35387, Note_on_c, 0, 76, 0
1, 35387, Note_on_c, 0, 81, 0
1, 35390, Note_on_c, 0, 69, 0
1, 35392, Note_on_c, 0, 74, 0
1, 35392, Note_on_c, 0, 79, 0
1, 35423, Note_on_c, 9, 42, 110
1, 35424, Note_on_c, 9, 42, 0
1, 35424, Note_on_c, 0, 79, 93
1, 35424, Note_on_c, 9, 60, 77
1, 35424, Note_on_c, 9, 39, 110
1, 35424, Note_on_c, 9, 40, 95
1, 35425, Note_on_c, 9, 40, 0
1, 35425, Note_on_c, 9, 39, 0
1, 35425, Note_on_c, 9, 60, 0
1, 35425, Note_on_c, 0, 81, 78
1, 35425, Note_on_c, 0, 74, 95
1, 35425, Note_on_c, 0, 69, 91
1, 35425, Note_on_c, 0, 76, 83
1, 35436, Note_on_c, 0, 76, 0
1, 35436, Note_on_c, 0, 81, 0
1, 35440, Note_on_c, 0, 74, 0
1, 35440, Note_on_c, 1, 28, 0
1, 35440, Note_on_c, 0, 69, 0
1, 35442, Note_on_c, 0, 79, 0
1, 35444, Note_on_c, 1, 40, 0
1, 35444, Note_on_c, 3, 76, 0
1, 35446, Note_on_c, 5, 28, 0
1, 35448, Note_on_c, 5, 40, 0
1, 35471, Note_on_c, 1, 43, 100
1, 35471, Note_on_c, 1, 31, 114
1, 35471, Note_on_c, 5, 43, 72
1, 35472, Note_on_c, 4, 64, 0
1, 35472, Note_on_c, 9, 42, 44
1, 35472, Note_on_c, 5, 31, 72
1, 35472, Note_on_c, 9, 36, 91
1, 35473, Note_on_c, 9, 36, 0
1, 35473, Note_on_c, 9, 42, 0
1, 35473, Note_on_c, 0, 69, 100
1, 35473, Note_on_c, 0, 81, 90
1, 35473, Note_on_c, 0, 74, 104
1, 35473, Note_on_c, 0, 76, 94
1, 35473, Note_on_c, 0, 79, 96
1, 35484, Note_on_c, 5, 43, 0
1, 35487, Note_on_c, 5, 31, 0
1, 35489, Note_on_c, 1, 43, 0
1, 35489, Note_on_c, 1, 31, 0
1, 35500, Note_on_c, 0, 76, 0
1, 35500, Note_on_c, 0, 81, 0
1, 35502, Note_on_c, 0, 74, 0
1, 35502, Note_on_c, 0, 69, 0
1, 35504, Note_on_c, 0, 79, 0
1, 35519, Note_on_c, 9, 42, 95
1, 35520, Note_on_c, 9, 42, 0
1, 35520, Note_on_c, 1, 45, 117
1, 35520, Note_on_c, 1, 33, 112
1, 35520, Note_on_c, 9, 36, 110
1, 35520, Note_on_c, 5, 45, 80
1, 35521, Note_on_c, 9, 36, 0
1, 35521, Note_on_c, 5, 33, 80
1, 35567, Note_on_c, 9, 42, 39
1, 35568, Note_on_c, 9, 42, 0
1, 35596, Note_on_c, 5, 33, 0
1, 35598, Note_on_c, 5, 45, 0
1, 35600, Note_on_c, 1, 33, 0
1, 35606, Note_on_c, 1, 45, 0
1, 35615, Note_on_c, 9, 42, 110
1, 35616, Note_on_c, 9, 42, 0
1, 35616, Note_on_c, 9, 40, 110
1, 35616, Note_on_c, 1, 31, 100
1, 35616, Note_on_c, 1, 43, 112
1, 35616, Note_on_c, 9, 60, 77
1, 35616, Note_on_c, 9, 39, 110
1, 35616, Note_on_c, 9, 36, 110
1, 35617, Note_on_c, 9, 36, 0
1, 35617, Note_on_c, 9, 60, 0
1, 35617, Note_on_c, 9, 40, 0
1, 35617, Note_on_c, 9, 39, 0
1, 35617, Note_on_c, 5, 43, 79
1, 35617, Note_on_c, 5, 31, 79
1, 35665, Note_on_c, 9, 42, 42
1, 35666, Note_on_c, 9, 42, 0
1, 35693, Note_on_c, 1, 31, 0
1, 35695, Note_on_c, 1, 43, 0
1, 35696, Note_on_c, 5, 43, 0
1, 35696, Note_on_c, 5, 31, 0
1, 35711, Note_on_c, 0, 74, 89
1, 35711, Lyric_t, ""
1, 35711, Lyric_t, "\015"
1, 35711, Note_on_c, 3, 76, 114
1, 35711, Lyric_t, "down, "
1, 35712, Note_on_c, 9, 36, 110
1, 35712, Note_on_c, 4, 64, 71
1, 35712, Note_on_c, 9, 42, 96
1, 35712, Note_on_c, 4, 69, 52
1, 35712, Note_on_c, 0, 79, 89
1, 35713, Note_on_c, 9, 42, 0
1, 35713, Note_on_c, 9, 36, 0
1, 35713, Note_on_c, 0, 81, 89
1, 35713, Note_on_c, 0, 69, 89
1, 35713, Note_on_c, 5, 42, 78
1, 35713, Note_on_c, 1, 42, 99
1, 35713, Note_on_c, 5, 30, 78
1, 35713, Note_on_c, 0, 76, 89
1, 35713, Note_on_c, 1, 30, 97
1, 35748, Note_on_c, 0, 76, 0
1, 35750, Note_on_c, 0, 69, 0
1, 35750, Note_on_c, 0, 81, 0
1, 35752, Note_on_c, 0, 79, 0
1, 35752, Note_on_c, 0, 74, 0
1, 35759, Note_on_c, 9, 42, 37
1, 35760, Note_on_c, 9, 42, 0
1, 35807, Note_on_c, 9, 42, 110
1, 35808, Note_on_c, 9, 42, 0
1, 35808, Note_on_c, 9, 60, 77
1, 35808, Note_on_c, 9, 39, 110
1, 35808, Note_on_c, 9, 40, 95
1, 35809, Note_on_c, 9, 40, 0
1, 35809, Note_on_c, 9, 39, 0
1, 35809, Note_on_c, 9, 60, 0
1, 35810, Note_on_c, 3, 76, 0
1, 35820, Note_on_c, 1, 30, 0
1, 35821, Note_on_c, 5, 42, 0
1, 35822, Note_on_c, 5, 30, 0
1, 35823, Note_on_c, 1, 42, 0
1, 35855, Note_on_c, 5, 35, 90
1, 35855, Note_on_c, 5, 47, 91
1, 35856, Note_on_c, 4, 64, 0
1, 35856, Note_on_c, 4, 69, 0
1, 35856, Note_on_c, 1, 47, 110
1, 35856, Note_on_c, 9, 36, 91
1, 35856, Note_on_c, 1, 35, 98
1, 35856, Note_on_c, 9, 42, 44
1, 35857, Note_on_c, 9, 42, 0
1, 35857, Note_on_c, 9, 36, 0
1, 35903, Lyric_t, "boo"
1, 35903, Note_on_c, 3, 76, 95
1, 35903, Note_on_c, 9, 42, 95
1, 35904, Note_on_c, 9, 42, 0
1, 35904, Note_on_c, 4, 64, 52
1, 35904, Note_on_c, 4, 69, 52
1, 35904, Note_on_c, 9, 36, 110
1, 35905, Note_on_c, 9, 36, 0
1, 35944, Note_on_c, 1, 47, 0
1, 35950, Note_on_c, 1, 35, 0
1, 35951, Note_on_c, 5, 35, 0
1, 35951, Note_on_c, 1, 33, 100
1, 35951, Note_on_c, 9, 42, 39
1, 35951, Note_on_c, 1, 45, 97
1, 35952, Note_on_c, 9, 42, 0
1, 35952, Note_on_c, 4, 69, 0
1, 35952, Note_on_c, 4, 64, 0
1, 35952, Note_on_c, 3, 76, 0
1, 35952, Note_on_c, 4, 62, 36
1, 35953, Note_on_c, 3, 74, 79
1, 35953, Note_on_c, 5, 33, 74
1, 35953, Lyric_t, "gie "
1, 35953, Note_on_c, 5, 45, 74
1, 35955, Note_on_c, 5, 47, 0
1, 35967, Note_on_c, 1, 45, 0
1, 35968, Note_on_c, 1, 33, 0
1, 35969, Note_on_c, 5, 33, 0
1, 35972, Note_on_c, 5, 45, 0
1, 35998, Note_on_c, 3, 74, 0
1, 35999, Note_on_c, 9, 42, 110
1, 35999, Note_on_c, 1, 35, 97
1, 36000, Note_on_c, 9, 42, 0
1, 36000, Note_on_c, 4, 62, 0
1, 36000, Note_on_c, 9, 60, 77
1, 36000, Note_on_c, 9, 40, 110
1, 36000, Note_on_c, 9, 39, 110
1, 36000, Note_on_c, 1, 47, 120
1, 36000, Note_on_c, 5, 47, 87
1, 36000, Note_on_c, 9, 36, 110
1, 36000, Note_on_c, 5, 35, 88
1, 36001, Note_on_c, 9, 36, 0
1, 36001, Note_on_c, 9, 40, 0
1, 36001, Note_on_c, 9, 60, 0
1, 36001, Note_on_c, 9, 39, 0
1, 36001, Note_on_c, 3, 76, 85
1, 36001, Lyric_t, "on "
1, 36001, Note_on_c, 4, 64, 42
1, 36049, Note_on_c, 9, 42, 42
1, 36050, Note_on_c, 9, 42, 0
1, 36064, Note_on_c, 5, 35, 0
1, 36065, Note_on_c, 5, 47, 0
1, 36070, Note_on_c, 3, 76, 0
1, 36086, Note_on_c, 1, 35, 0
1, 36086, Note_on_c, 1, 47, 0
1, 36095, Note_on_c, 4, 64, 0
1, 36096, Note_on_c, 0, 79, 78
1, 36096, Note_on_c, 0, 74, 95
1, 36096, Note_on_c, 3, 76, 110
1, 36096, Lyric_t, "down, "
1, 36096, Note_on_c, 0, 76, 86
1, 36096, Note_on_c, 4, 64, 67
1, 36096, Note_on_c, 0, 69, 90
1, 36096, Note_on_c, 1, 28, 104
1, 36096, Note_on_c, 9, 36, 110
1, 36096, Note_on_c, 9, 42, 96
1, 36097, Note_on_c, 9, 42, 0
1, 36097, Note_on_c, 9, 36, 0
1, 36097, Note_on_c, 0, 81, 80
1, 36097, Note_on_c, 9, 43, 84
1, 36097, Note_on_c, 5, 40, 88
1, 36097, Note_on_c, 1, 40, 110
1, 36097, Note_on_c, 5, 28, 80
1, 36098, Note_on_c, 9, 43, 0
1, 36110, Note_on_c, 0, 76, 0
1, 36111, Note_on_c, 0, 74, 0
1, 36112, Note_on_c, 0, 79, 0
1, 36112, Note_on_c, 0, 69, 0
1, 36114, Note_on_c, 0, 81, 0
1, 36143, Note_on_c, 9, 42, 37
1, 36144, Note_on_c, 9, 42, 0
1, 36145, Note_on_c, 0, 81, 67
1, 36145, Note_on_c, 0, 76, 70
1, 36145, Note_on_c, 0, 79, 80
1, 36145, Note_on_c, 0, 74, 78
1, 36145, Note_on_c, 0, 69, 74
1, 36155, Note_on_c, 0, 76, 0
1, 36155, Note_on_c, 0, 81, 0
1, 36158, Note_on_c, 0, 69, 0
1, 36160, Note_on_c, 0, 79, 0
1, 36160, Note_on_c, 0, 74, 0
1, 36167, Note_on_c, 4, 64, 0
1, 36167, Note_on_c, 3, 74, 72
1, 36167, Note_on_c, 4, 62, 29
1, 36168, Note_on_c, 3, 76, 0
1, 36191, Note_on_c, 4, 62, 0
1, 36191, Note_on_c, 4, 59, 20
1, 36191, Note_on_c, 9, 42, 110
1, 36191, Note_on_c, 3, 71, 63
1, 36192, Note_on_c, 9, 42, 0
1, 36192, Note_on_c, 0, 79, 93
1, 36192, Note_on_c, 9, 40, 95
1, 36192, Note_on_c, 9, 39, 110
1, 36192, Note_on_c, 9, 60, 77
1, 36193, Note_on_c, 9, 60, 0
1, 36193, Note_on_c, 3, 74, 0
1, 36193, Note_on_c, 9, 39, 0
1, 36193, Note_on_c, 9, 40, 0
1, 36193, Note_on_c, 0, 74, 95
1, 36193, Note_on_c, 0, 81, 78
1, 36193, Note_on_c, 0, 69, 91
1, 36193, Note_on_c, 0, 76, 83
1, 36204, Note_on_c, 0, 76, 0
1, 36204, Note_on_c, 0, 81, 0
1, 36208, Note_on_c, 0, 74, 0
1, 36208, Note_on_c, 1, 28, 0
1, 36208, Note_on_c, 0, 69, 0
1, 36210, Note_on_c, 0, 79, 0
1, 36212, Note_on_c, 1, 40, 0
1, 36214, Note_on_c, 5, 28, 0
1, 36216, Note_on_c, 5, 40, 0
1, 36239, Note_on_c, 1, 31, 114
1, 36239, Note_on_c, 1, 43, 100
1, 36239, Note_on_c, 5, 43, 72
1, 36240, Note_on_c, 5, 31, 72
1, 36240, Note_on_c, 9, 42, 44
1, 36240, Note_on_c, 9, 36, 91
1, 36241, Note_on_c, 9, 36, 0
1, 36241, Note_on_c, 9, 42, 0
1, 36241, Note_on_c, 0, 74, 104
1, 36241, Note_on_c, 0, 81, 90
1, 36241, Note_on_c, 0, 69, 100
1, 36241, Note_on_c, 0, 76, 94
1, 36241, Note_on_c, 0, 79, 96
1, 36242, Note_on_c, 3, 71, 0
1, 36252, Note_on_c, 5, 43, 0
1, 36255, Note_on_c, 5, 31, 0
1, 36257, Note_on_c, 1, 43, 0
1, 36257, Note_on_c, 1, 31, 0
1, 36268, Note_on_c, 0, 81, 0
1, 36268, Note_on_c, 0, 76, 0
1, 36270, Note_on_c, 0, 69, 0
1, 36270, Note_on_c, 0, 74, 0
1, 36272, Note_on_c, 0, 79, 0
1, 36287, Note_on_c, 9, 42, 95
1, 36288, Note_on_c, 9, 42, 0
1, 36288, Note_on_c, 5, 45, 80
1, 36288, Note_on_c, 1, 33, 112
1, 36288, Note_on_c, 1, 45, 117
1, 36288, Note_on_c, 9, 36, 110
1, 36289, Note_on_c, 9, 36, 0
1, 36289, Note_on_c, 5, 33, 80
1, 36335, Note_on_c, 9, 42, 39
1, 36336, Note_on_c, 9, 42, 0
1, 36348, Note_on_c, 4, 59, 0
1, 36364, Note_on_c, 5, 33, 0
1, 36366, Note_on_c, 5, 45, 0
1, 36368, Note_on_c, 1, 33, 0
1, 36374, Note_on_c, 1, 45, 0
1, 36383, Note_on_c, 9, 42, 110
1, 36384, Note_on_c, 9, 42, 0
1, 36384, Note_on_c, 9, 36, 110
1, 36384, Note_on_c, 9, 39, 110
1, 36384, Note_on_c, 9, 40, 110
1, 36384, Note_on_c, 1, 43, 112
1, 36384, Note_on_c, 9, 60, 77
1, 36384, Note_on_c, 1, 31, 100
1, 36385, Note_on_c, 9, 60, 0
1, 36385, Note_on_c, 9, 40, 0
1, 36385, Note_on_c, 9, 36, 0
1, 36385, Note_on_c, 9, 39, 0
1, 36385, Note_on_c, 5, 43, 79
1, 36385, Note_on_c, 5, 31, 79
1, 36433, Note_on_c, 9, 42, 42
1, 36434, Note_on_c, 9, 42, 0
1, 36461, Note_on_c, 1, 31, 0
1, 36463, Note_on_c, 1, 43, 0
1, 36464, Note_on_c, 5, 43, 0
1, 36464, Note_on_c, 5, 31, 0
1, 36479, Note_on_c, 0, 74, 89
1, 36480, Note_on_c, 4, 69, 67
1, 36480, Note_on_c, 9, 42, 96
1, 36480, Lyric_t, ""
1, 36480, Lyric_t, "\015"
1, 36480, Note_on_c, 0, 79, 89
1, 36480, Note_on_c, 9, 36, 110
1, 36480, Note_on_c, 4, 64, 67
1, 36480, Note_on_c, 3, 76, 110
1, 36480, Lyric_t, "down, "
1, 36481, Note_on_c, 9, 36, 0
1, 36481, Note_on_c, 9, 42, 0
1, 36481, Note_on_c, 5, 30, 78
1, 36481, Note_on_c, 0, 69, 89
1, 36481, Note_on_c, 0, 76, 89
1, 36481, Note_on_c, 0, 81, 89
1, 36481, Note_on_c, 5, 42, 78
1, 36481, Note_on_c, 1, 30, 97
1, 36481, Note_on_c, 1, 42, 99
1, 36516, Note_on_c, 0, 76, 0
1, 36518, Note_on_c, 0, 81, 0
1, 36518, Note_on_c, 0, 69, 0
1, 36520, Note_on_c, 0, 79, 0
1, 36520, Note_on_c, 0, 74, 0
1, 36527, Note_on_c, 9, 42, 37
1, 36528, Note_on_c, 9, 42, 0
1, 36575, Note_on_c, 9, 42, 110
1, 36576, Note_on_c, 9, 42, 0
1, 36576, Note_on_c, 9, 40, 95
1, 36576, Note_on_c, 9, 60, 77
1, 36576, Note_on_c, 9, 39, 110
1, 36577, Note_on_c, 9, 39, 0
1, 36577, Note_on_c, 9, 60, 0
1, 36577, Note_on_c, 9, 40, 0
1, 36579, Note_on_c, 3, 76, 0
1, 36588, Note_on_c, 1, 30, 0
1, 36589, Note_on_c, 5, 42, 0
1, 36590, Note_on_c, 5, 30, 0
1, 36591, Note_on_c, 1, 42, 0
1, 36623, Note_on_c, 5, 35, 90
1, 36623, Note_on_c, 5, 47, 91
1, 36624, Note_on_c, 4, 69, 0
1, 36624, Note_on_c, 4, 64, 0
1, 36624, Note_on_c, 1, 47, 110
1, 36624, Note_on_c, 9, 36, 91
1, 36624, Note_on_c, 9, 42, 44
1, 36624, Note_on_c, 1, 35, 98
1, 36625, Note_on_c, 9, 42, 0
1, 36625, Note_on_c, 9, 36, 0
1, 36671, Note_on_c, 3, 76, 95
1, 36671, Note_on_c, 9, 42, 95
1, 36671, Lyric_t, "boo"
1, 36672, Note_on_c, 9, 42, 0
1, 36672, Note_on_c, 9, 36, 110
1, 36672, Note_on_c, 4, 69, 67
1, 36672, Note_on_c, 4, 64, 52
1, 36673, Note_on_c, 9, 36, 0
1, 36712, Note_on_c, 1, 47, 0
1, 36718, Note_on_c, 1, 35, 0
1, 36719, Note_on_c, 3, 76, 0
1, 36719, Note_on_c, 5, 35, 0
1, 36719, Note_on_c, 9, 42, 39
1, 36719, Note_on_c, 1, 45, 97
1, 36719, Lyric_t, "gie "
1, 36719, Note_on_c, 1, 33, 100
1, 36719, Note_on_c, 3, 74, 73
1, 36720, Note_on_c, 9, 42, 0
1, 36720, Note_on_c, 4, 64, 0
1, 36720, Note_on_c, 4, 69, 0
1, 36720, Note_on_c, 4, 62, 30
1, 36721, Note_on_c, 5, 33, 74
1, 36721, Note_on_c, 5, 45, 74
1, 36723, Note_on_c, 5, 47, 0
1, 36735, Note_on_c, 1, 45, 0
1, 36736, Note_on_c, 1, 33, 0
1, 36737, Note_on_c, 5, 33, 0
1, 36740, Note_on_c, 5, 45, 0
1, 36766, Note_on_c, 3, 74, 0
1, 36767, Note_on_c, 9, 42, 110
1, 36767, Note_on_c, 1, 35, 97
1, 36768, Note_on_c, 9, 42, 0
1, 36768, Note_on_c, 4, 62, 0
1, 36768, Note_on_c, 9, 39, 110
1, 36768, Note_on_c, 9, 36, 110
1, 36768, Note_on_c, 5, 47, 87
1, 36768, Lyric_t, "on "
1, 36768, Note_on_c, 9, 40, 110
1, 36768, Note_on_c, 5, 35, 88
1, 36768, Note_on_c, 4, 64, 47
1, 36768, Note_on_c, 9, 60, 77
1, 36768, Note_on_c, 3, 76, 90
1, 36768, Note_on_c, 1, 47, 120
1, 36769, Note_on_c, 9, 60, 0
1, 36769, Note_on_c, 9, 40, 0
1, 36769, Note_on_c, 9, 36, 0
1, 36769, Note_on_c, 9, 39, 0
1, 36817, Note_on_c, 9, 42, 42
1, 36818, Note_on_c, 9, 42, 0
1, 36832, Note_on_c, 5, 35, 0
1, 36833, Note_on_c, 5, 47, 0
1, 36838, Note_on_c, 3, 76, 0
1, 36854, Note_on_c, 1, 47, 0
1, 36854, Note_on_c, 1, 35, 0
1, 36863, Note_on_c, 4, 64, 0
1, 36864, Note_on_c, 4, 64, 50
1, 36864, Note_on_c, 9, 36, 110
1, 36864, Note_on_c, 1, 28, 104
1, 36864, Lyric_t, "down, "
1, 36864, Note_on_c, 0, 74, 95
1, 36864, Note_on_c, 9, 42, 96
1, 36864, Note_on_c, 0, 69, 90
1, 36864, Note_on_c, 3, 76, 93
1, 36864, Note_on_c, 0, 76, 86
1, 36864, Note_on_c, 0, 79, 78
1, 36865, Note_on_c, 9, 42, 0
1, 36865, Note_on_c, 9, 36, 0
1, 36865, Note_on_c, 5, 40, 88
1, 36865, Note_on_c, 1, 40, 110
1, 36865, Note_on_c, 0, 81, 80
1, 36865, Note_on_c, 9, 43, 86
1, 36865, Note_on_c, 5, 28, 80
1, 36866, Note_on_c, 9, 43, 0
1, 36878, Note_on_c, 0, 76, 0
1, 36879, Note_on_c, 0, 74, 0
1, 36880, Note_on_c, 0, 79, 0
1, 36880, Note_on_c, 0, 69, 0
1, 36882, Note_on_c, 0, 81, 0
1, 36911, Note_on_c, 9, 42, 37
1, 36912, Note_on_c, 9, 42, 0
1, 36913, Note_on_c, 0, 74, 78
1, 36913, Note_on_c, 0, 69, 74
1, 36913, Note_on_c, 0, 79, 80
1, 36913, Note_on_c, 0, 81, 67
1, 36913, Note_on_c, 0, 76, 70
1, 36923, Note_on_c, 0, 76, 0
1, 36923, Note_on_c, 0, 81, 0
1, 36926, Note_on_c, 0, 69, 0
1, 36928, Note_on_c, 0, 74, 0
1, 36928, Note_on_c, 0, 79, 0
1, 36959, Note_on_c, 9, 42, 110
1, 36960, Note_on_c, 9, 42, 0
1, 36960, Note_on_c, 3, 76, 0
1, 36960, Note_on_c, 9, 39, 110
1, 36960, Note_on_c, 0, 79, 93
1, 36960, Note_on_c, 9, 60, 77
1, 36960, Note_on_c, 9, 40, 95
1, 36961, Note_on_c, 9, 40, 0
1, 36961, Note_on_c, 9, 60, 0
1, 36961, Note_on_c, 9, 39, 0
1, 36961, Note_on_c, 0, 76, 83
1, 36961, Note_on_c, 0, 81, 78
1, 36961, Note_on_c, 0, 74, 95
1, 36961, Note_on_c, 0, 69, 91
1, 36972, Note_on_c, 0, 81, 0
1, 36972, Note_on_c, 0, 76, 0
1, 36976, Note_on_c, 0, 74, 0
1, 36976, Note_on_c, 0, 69, 0
1, 36976, Note_on_c, 1, 28, 0
1, 36978, Note_on_c, 0, 79, 0
1, 36980, Note_on_c, 1, 40, 0
1, 36982, Note_on_c, 5, 28, 0
1, 36984, Note_on_c, 5, 40, 0
1, 37007, Note_on_c, 5, 43, 72
1, 37007, Note_on_c, 1, 43, 100
1, 37007, Note_on_c, 1, 31, 114
1, 37008, Note_on_c, 9, 36, 91
1, 37008, Note_on_c, 9, 42, 44
1, 37008, Note_on_c, 5, 31, 72
1, 37009, Note_on_c, 9, 42, 0
1, 37009, Note_on_c, 9, 36, 0
1, 37009, Note_on_c, 0, 81, 90
1, 37009, Note_on_c, 0, 76, 94
1, 37009, Note_on_c, 0, 69, 100
1, 37009, Note_on_c, 0, 74, 104
1, 37009, Note_on_c, 0, 79, 96
1, 37020, Note_on_c, 5, 43, 0
1, 37023, Note_on_c, 5, 31, 0
1, 37025, Note_on_c, 1, 43, 0
1, 37025, Note_on_c, 1, 31, 0
1, 37027, Note_on_c, 4, 64, 0
1, 37036, Note_on_c, 0, 76, 0
1, 37036, Note_on_c, 0, 81, 0
1, 37038, Note_on_c, 0, 69, 0
1, 37038, Note_on_c, 0, 74, 0
1, 37040, Note_on_c, 0, 79, 0
1, 37055, Note_on_c, 9, 42, 95
1, 37056, Note_on_c, 9, 42, 0
1, 37056, Note_on_c, 1, 45, 117
1, 37056, Note_on_c, 9, 36, 110
1, 37056, Note_on_c, 1, 33, 112
1, 37056, Note_on_c, 5, 45, 80
1, 37057, Note_on_c, 9, 36, 0
1, 37057, Note_on_c, 5, 33, 80
1, 37103, Note_on_c, 9, 42, 39
1, 37104, Note_on_c, 9, 42, 0
1, 37132, Note_on_c, 5, 33, 0
1, 37134, Note_on_c, 5, 45, 0
1, 37136, Note_on_c, 1, 33, 0
1, 37142, Note_on_c, 1, 45, 0
1, 37151, Lyric_t, "on "
1, 37151, Note_on_c, 4, 64, 52
1, 37151, Note_on_c, 9, 42, 110
1, 37151, Note_on_c, 3, 76, 95
1, 37152, Note_on_c, 9, 42, 0
1, 37152, Note_on_c, 9, 60, 77
1, 37152, Note_on_c, 9, 39, 110
1, 37152, Note_on_c, 1, 43, 112
1, 37152, Note_on_c, 9, 36, 110
1, 37152, Note_on_c, 1, 31, 100
1, 37152, Note_on_c, 9, 40, 110
1, 37153, Note_on_c, 9, 40, 0
1, 37153, Note_on_c, 9, 36, 0
1, 37153, Note_on_c, 9, 60, 0
1, 37153, Note_on_c, 9, 39, 0
1, 37153, Note_on_c, 5, 31, 79
1, 37153, Note_on_c, 5, 43, 79
1, 37201, Note_on_c, 9, 42, 42
1, 37202, Note_on_c, 9, 42, 0
1, 37222, Note_on_c, 3, 76, 0
1, 37229, Note_on_c, 1, 31, 0
1, 37231, Note_on_c, 1, 43, 0
1, 37232, Note_on_c, 5, 43, 0
1, 37232, Note_on_c, 5, 31, 0
1, 37247, Note_on_c, 0, 74, 89
1, 37248, Note_on_c, 9, 42, 96
1, 37248, Note_on_c, 0, 79, 89
1, 37248, Note_on_c, 9, 36, 110
1, 37249, Note_on_c, 9, 36, 0
1, 37249, Note_on_c, 9, 42, 0
1, 37249, Note_on_c, 4, 64, 0
1, 37249, Note_on_c, 1, 30, 97
1, 37249, Note_on_c, 5, 30, 78
1, 37249, Note_on_c, 5, 42, 78
1, 37249, Note_on_c, 1, 42, 99
1, 37249, Note_on_c, 0, 81, 89
1, 37249, Note_on_c, 4, 67, 77
1, 37249, Note_on_c, 0, 76, 89
1, 37249, Note_on_c, 3, 79, 120
1, 37249, Note_on_c, 0, 69, 89
1, 37249, Lyric_t, "down, "
1, 37284, Note_on_c, 0, 76, 0
1, 37286, Note_on_c, 0, 69, 0
1, 37286, Note_on_c, 0, 81, 0
1, 37288, Note_on_c, 0, 79, 0
1, 37288, Note_on_c, 0, 74, 0
1, 37295, Note_on_c, 9, 42, 37
1, 37296, Note_on_c, 9, 42, 0
1, 37341, Note_on_c, 3, 79, 0
1, 37343, Note_on_c, 9, 42, 110
1, 37344, Note_on_c, 9, 42, 0
1, 37344, Note_on_c, 9, 60, 77
1, 37344, Note_on_c, 9, 40, 95
1, 37344, Note_on_c, 9, 39, 110
1, 37345, Note_on_c, 9, 39, 0
1, 37345, Note_on_c, 9, 40, 0
1, 37345, Note_on_c, 9, 60, 0
1, 37356, Note_on_c, 1, 30, 0
1, 37357, Note_on_c, 5, 42, 0
1, 37358, Note_on_c, 5, 30, 0
1, 37359, Note_on_c, 1, 42, 0
1, 37391, Note_on_c, 5, 47, 91
1, 37391, Note_on_c, 5, 35, 90
1, 37392, Note_on_c, 9, 42, 44
1, 37392, Note_on_c, 1, 35, 98
1, 37392, Note_on_c, 1, 47, 110
1, 37392, Note_on_c, 9, 36, 91
1, 37393, Note_on_c, 9, 36, 0
1, 37393, Note_on_c, 9, 42, 0
1, 37439, Note_on_c, 4, 67, 0
1, 37439, Lyric_t, "boo"
1, 37439, Note_on_c, 4, 64, 56
1, 37439, Note_on_c, 9, 42, 95
1, 37439, Note_on_c, 4, 69, 50
1, 37439, Note_on_c, 3, 76, 99
1, 37440, Note_on_c, 9, 42, 0
1, 37440, Note_on_c, 9, 36, 110
1, 37441, Note_on_c, 9, 36, 0
1, 37480, Note_on_c, 1, 47, 0
1, 37486, Note_on_c, 1, 35, 0
1, 37486, Note_on_c, 3, 76, 0
1, 37487, Note_on_c, 4, 64, 0
1, 37487, Note_on_c, 4, 69, 0
1, 37487, Note_on_c, 5, 35, 0
1, 37487, Note_on_c, 3, 74, 71
1, 37487, Lyric_t, "gie\205 "
1, 37487, Lyric_t, ""
1, 37487, Lyric_t, "\015"
1, 37487, Note_on_c, 1, 33, 100
1, 37487, Note_on_c, 9, 46, 87
1, 37487, Note_on_c, 1, 45, 97
1, 37487, Note_on_c, 4, 62, 28
1, 37488, Note_on_c, 9, 46, 0
1, 37489, Note_on_c, 5, 33, 74
1, 37489, Note_on_c, 5, 45, 74
1, 37491, Note_on_c, 5, 47, 0
1, 37503, Note_on_c, 1, 45, 0
1, 37503, Lyric_t, ""
1, 37503, Lyric_t, "\015"
1, 37504, Note_on_c, 1, 33, 0
1, 37505, Note_on_c, 5, 33, 0
1, 37508, Note_on_c, 5, 45, 0
1, 37533, Note_on_c, 3, 74, 0
1, 37535, Note_on_c, 4, 62, 0
1, 37535, Note_on_c, 3, 76, 101
1, 37535, Note_on_c, 4, 64, 58
1, 37535, Lyric_t, "Let's "
1, 37535, Note_on_c, 4, 52, 58
1, 37535, Note_on_c, 9, 42, 110
1, 37535, Note_on_c, 1, 35, 97
1, 37536, Note_on_c, 9, 42, 0
1, 37536, Note_on_c, 9, 40, 110
1, 37536, Note_on_c, 9, 36, 110
1, 37536, Note_on_c, 1, 47, 120
1, 37536, Note_on_c, 5, 35, 88
1, 37536, Note_on_c, 9, 60, 77
1, 37536, Note_on_c, 5, 47, 87
1, 37536, Note_on_c, 9, 39, 110
1, 37537, Note_on_c, 9, 39, 0
1, 37537, Note_on_c, 9, 60, 0
1, 37537, Note_on_c, 9, 36, 0
1, 37537, Note_on_c, 9, 40, 0
1, 37584, Note_on_c, 9, 40, 29
1, 37585, Note_on_c, 9, 40, 0
1, 37585, Note_on_c, 9, 42, 42
1, 37586, Note_on_c, 9, 42, 0
1, 37588, Note_on_c, 3, 76, 0
1, 37600, Note_on_c, 5, 35, 0
1, 37601, Note_on_c, 5, 47, 0
1, 37608, Note_on_c, 9, 40, 104
1, 37609, Note_on_c, 9, 40, 0
1, 37622, Note_on_c, 1, 47, 0
1, 37622, Note_on_c, 1, 35, 0
1, 37631, Note_on_c, 4, 64, 0
1, 37631, Note_on_c, 4, 52, 0
1, 37632, Note_on_c, 9, 49, 96
1, 37632, Note_on_c, 1, 28, 104
1, 37632, Note_on_c, 0, 76, 86
1, 37632, Note_on_c, 0, 79, 78
1, 37632, Note_on_c, 4, 54, 69
1, 37632, Note_on_c, 3, 78, 112
1, 37632, Note_on_c, 0, 74, 95
1, 37632, Note_on_c, 4, 66, 69
1, 37632, Note_on_c, 0, 69, 90
1, 37632, Note_on_c, 9, 36, 110
1, 37632, Lyric_t, "groove "
1, 37633, Note_on_c, 9, 36, 0
1, 37633, Note_on_c, 9, 49, 0
1, 37633, Note_on_c, 5, 40, 88
1, 37633, Note_on_c, 5, 28, 80
1, 37633, Note_on_c, 0, 81, 80
1, 37633, Note_on_c, 1, 40, 110
1, 37633, Note_on_c, 9, 43, 85
1, 37634, Note_on_c, 9, 43, 0
1, 37646, Note_on_c, 0, 76, 0
1, 37647, Note_on_c, 0, 74, 0
1, 37648, Note_on_c, 0, 79, 0
1, 37648, Note_on_c, 0, 69, 0
1, 37650, Note_on_c, 0, 81, 0
1, 37679, Note_on_c, 9, 42, 37
1, 37680, Note_on_c, 9, 42, 0
1, 37681, Note_on_c, 0, 81, 67
1, 37681, Note_on_c, 0, 69, 74
1, 37681, Note_on_c, 0, 76, 70
1, 37681, Note_on_c, 0, 74, 78
1, 37681, Note_on_c, 0, 79, 80
1, 37691, Note_on_c, 0, 76, 0
1, 37691, Note_on_c, 0, 81, 0
1, 37694, Note_on_c, 0, 69, 0
1, 37696, Note_on_c, 0, 74, 0
1, 37696, Note_on_c, 0, 79, 0
1, 37727, Note_on_c, 9, 42, 110
1, 37728, Note_on_c, 9, 42, 0
1, 37728, Note_on_c, 4, 54, 0
1, 37728, Note_on_c, 4, 66, 0
1, 37728, Note_on_c, 4, 50, 69
1, 37728, Note_on_c, 9, 39, 110
1, 37728, Note_on_c, 9, 60, 77
1, 37728, Note_on_c, 9, 40, 95
1, 37728, Note_on_c, 4, 62, 50
1, 37728, Note_on_c, 0, 79, 93
1, 37729, Note_on_c, 9, 40, 0
1, 37729, Note_on_c, 9, 60, 0
1, 37729, Note_on_c, 9, 39, 0
1, 37729, Note_on_c, 0, 69, 91
1, 37729, Note_on_c, 0, 74, 95
1, 37729, Note_on_c, 0, 81, 78
1, 37729, Note_on_c, 0, 76, 83
1, 37729, Lyric_t, "to"
1, 37729, Note_on_c, 3, 74, 93
1, 37730, Note_on_c, 3, 78, 0
1, 37740, Note_on_c, 0, 81, 0
1, 37740, Note_on_c, 0, 76, 0
1, 37744, Note_on_c, 0, 69, 0
1, 37744, Note_on_c, 1, 28, 0
1, 37744, Note_on_c, 0, 74, 0
1, 37746, Note_on_c, 0, 79, 0
1, 37748, Note_on_c, 1, 40, 0
1, 37750, Note_on_c, 5, 28, 0
1, 37752, Note_on_c, 5, 40, 0
1, 37774, Note_on_c, 3, 74, 0
1, 37775, Note_on_c, 4, 50, 0
1, 37775, Note_on_c, 4, 62, 0
1, 37775, Note_on_c, 5, 43, 72
1, 37775, Note_on_c, 1, 43, 100
1, 37775, Note_on_c, 1, 31, 114
1, 37776, Note_on_c, 4, 50, 50
1, 37776, Note_on_c, 9, 42, 44
1, 37776, Note_on_c, 5, 31, 72
1, 37776, Note_on_c, 9, 36, 91
1, 37776, Note_on_c, 4, 62, 54
1, 37777, Note_on_c, 9, 36, 0
1, 37777, Note_on_c, 9, 42, 0
1, 37777, Note_on_c, 0, 76, 94
1, 37777, Note_on_c, 0, 81, 90
1, 37777, Note_on_c, 0, 74, 104
1, 37777, Note_on_c, 0, 79, 96
1, 37777, Note_on_c, 0, 69, 100
1, 37777, Note_on_c, 3, 74, 97
1, 37777, Lyric_t, ""
1, 37777, Lyric_t, "\015"
1, 37777, Lyric_t, "night, "
1, 37788, Note_on_c, 5, 43, 0
1, 37791, Note_on_c, 5, 31, 0
1, 37793, Note_on_c, 1, 43, 0
1, 37793, Note_on_c, 1, 31, 0
1, 37804, Note_on_c, 0, 81, 0
1, 37804, Note_on_c, 0, 76, 0
1, 37806, Note_on_c, 0, 74, 0
1, 37806, Note_on_c, 0, 69, 0
1, 37808, Note_on_c, 0, 79, 0
1, 37823, Note_on_c, 9, 42, 95
1, 37824, Note_on_c, 9, 42, 0
1, 37824, Note_on_c, 4, 50, 0
1, 37824, Note_on_c, 4, 62, 0
1, 37824, Note_on_c, 3, 74, 0
1, 37824, Note_on_c, 4, 33, 45
1, 37824, Note_on_c, 4, 57, 45
1, 37824, Note_on_c, 4, 45, 38
1, 37824, Note_on_c, 1, 45, 117
1, 37824, Note_on_c, 1, 33, 112
1, 37824, Note_on_c, 9, 36, 110
1, 37824, Note_on_c, 5, 45, 80
1, 37825, Note_on_c, 9, 36, 0
1, 37825, Note_on_c, 5, 33, 80
1, 37871, Note_on_c, 9, 42, 39
1, 37872, Note_on_c, 9, 42, 0
1, 37872, Note_on_c, 6, 69, 80
1, 37873, Note_on_c, 10, 57, 104
1, 37880, Note_on_c, 10, 57, 0
1, 37885, Note_on_c, 6, 69, 0
1, 37895, Note_on_c, 6, 69, 68
1, 37895, Note_on_c, 10, 57, 97
1, 37900, Note_on_c, 5, 33, 0
1, 37902, Note_on_c, 5, 45, 0
1, 37904, Note_on_c, 1, 33, 0
1, 37908, Note_on_c, 10, 57, 0
1, 37910, Note_on_c, 6, 69, 0
1, 37910, Note_on_c, 1, 45, 0
1, 37919, Note_on_c, 1, 43, 112
1, 37919, Note_on_c, 1, 31, 100
1, 37919, Note_on_c, 6, 67, 78
1, 37919, Note_on_c, 9, 42, 110
1, 37920, Note_on_c, 9, 42, 0
1, 37920, Note_on_c, 4, 45, 0
1, 37920, Note_on_c, 4, 57, 0
1, 37920, Note_on_c, 4, 33, 0
1, 37920, Note_on_c, 9, 36, 110
1, 37920, Note_on_c, 9, 40, 110
1, 37920, Note_on_c, 9, 39, 110
1, 37920, Note_on_c, 4, 55, 42
1, 37920, Note_on_c, 10, 55, 100
1, 37920, Note_on_c, 9, 60, 77
1, 37920, Note_on_c, 4, 43, 47
1, 37920, Note_on_c, 4, 31, 42
1, 37921, Note_on_c, 9, 60, 0
1, 37921, Note_on_c, 9, 39, 0
1, 37921, Note_on_c, 9, 36, 0
1, 37921, Note_on_c, 9, 40, 0
1, 37921, Note_on_c, 5, 31, 79
1, 37921, Note_on_c, 5, 43, 79
1, 37959, Note_on_c, 10, 55, 0
1, 37967, Note_on_c, 6, 67, 0
1, 37969, Note_on_c, 10, 57, 95
1, 37969, Note_on_c, 6, 69, 70
1, 37969, Note_on_c, 9, 42, 42
1, 37970, Note_on_c, 9, 42, 0
1, 37986, Note_on_c, 6, 69, 0
1, 37987, Note_on_c, 10, 57, 0
1, 37996, Note_on_c, 1, 31, 0
1, 37998, Note_on_c, 1, 43, 0
1, 38000, Note_on_c, 5, 43, 0
1, 38000, Note_on_c, 5, 31, 0
1, 38015, Note_on_c, 0, 74, 89
1, 38016, Note_on_c, 4, 55, 0
1, 38016, Note_on_c, 4, 31, 0
1, 38016, Note_on_c, 4, 43, 0
1, 38016, Note_on_c, 9, 36, 110
1, 38016, Note_on_c, 4, 30, 31
1, 38016, Note_on_c, 9, 42, 96
1, 38016, Note_on_c, 4, 42, 43
1, 38016, Note_on_c, 0, 79, 89
1, 38016, Note_on_c, 4, 54, 31
1, 38017, Note_on_c, 9, 42, 0
1, 38017, Note_on_c, 9, 36, 0
1, 38017, Note_on_c, 1, 30, 97
1, 38017, Note_on_c, 0, 81, 89
1, 38017, Note_on_c, 1, 42, 99
1, 38017, Note_on_c, 5, 30, 78
1, 38017, Note_on_c, 0, 69, 89
1, 38017, Note_on_c, 5, 42, 78
1, 38017, Note_on_c, 0, 76, 89
1, 38052, Note_on_c, 0, 76, 0
1, 38054, Note_on_c, 0, 81, 0
1, 38054, Note_on_c, 0, 69, 0
1, 38056, Note_on_c, 0, 74, 0
1, 38056, Note_on_c, 0, 79, 0
1, 38063, Note_on_c, 9, 42, 37
1, 38064, Note_on_c, 9, 42, 0
1, 38111, Note_on_c, 9, 42, 110
1, 38112, Note_on_c, 9, 42, 0
1, 38112, Note_on_c, 9, 40, 95
1, 38112, Note_on_c, 9, 60, 77
1, 38112, Note_on_c, 9, 39, 110
1, 38113, Note_on_c, 9, 39, 0
1, 38113, Note_on_c, 9, 60, 0
1, 38113, Note_on_c, 9, 40, 0
1, 38124, Note_on_c, 1, 30, 0
1, 38125, Note_on_c, 5, 42, 0
1, 38126, Note_on_c, 5, 30, 0
1, 38127, Note_on_c, 1, 42, 0
1, 38159, Note_on_c, 5, 47, 91
1, 38159, Note_on_c, 5, 35, 90
1, 38160, Note_on_c, 4, 42, 0
1, 38160, Note_on_c, 4, 54, 0
1, 38160, Note_on_c, 4, 30, 0
1, 38160, Note_on_c, 4, 47, 33
1, 38160, Note_on_c, 9, 36, 91
1, 38160, Note_on_c, 4, 59, 35
1, 38160, Note_on_c, 4, 35, 35
1, 38160, Note_on_c, 9, 42, 44
1, 38160, Note_on_c, 1, 35, 98
1, 38160, Note_on_c, 1, 47, 110
1, 38161, Note_on_c, 9, 42, 0
1, 38161, Note_on_c, 9, 36, 0
1, 38207, Note_on_c, 9, 42, 95
1, 38208, Note_on_c, 9, 42, 0
1, 38208, Note_on_c, 9, 36, 110
1, 38209, Note_on_c, 9, 36, 0
1, 38248, Note_on_c, 1, 47, 0
1, 38254, Note_on_c, 1, 35, 0
1, 38255, Note_on_c, 5, 35, 0
1, 38255, Note_on_c, 10, 59, 65
1, 38255, Note_on_c, 9, 42, 39
1, 38255, Note_on_c, 1, 33, 100
1, 38255, Note_on_c, 1, 45, 97
1, 38255, Note_on_c, 6, 71, 77
1, 38256, Note_on_c, 9, 42, 0
1, 38256, Note_on_c, 4, 35, 0
1, 38256, Note_on_c, 4, 59, 0
1, 38256, Note_on_c, 4, 47, 0
1, 38256, Note_on_c, 4, 57, 31
1, 38256, Note_on_c, 4, 33, 31
1, 38256, Note_on_c, 4, 45, 30
1, 38257, Note_on_c, 5, 33, 74
1, 38257, Note_on_c, 5, 45, 74
1, 38259, Note_on_c, 5, 47, 0
1, 38266, Note_on_c, 6, 71, 0
1, 38271, Note_on_c, 1, 45, 0
1, 38272, Note_on_c, 1, 33, 0
1, 38273, Note_on_c, 5, 33, 0
1, 38276, Note_on_c, 5, 45, 0
1, 38278, Note_on_c, 10, 59, 0
1, 38303, Note_on_c, 3, 74, 101
1, 38303, Note_on_c, 1, 35, 97
1, 38303, Note_on_c, 9, 42, 110
1, 38303, Lyric_t, "share "
1, 38304, Note_on_c, 9, 42, 0
1, 38304, Note_on_c, 4, 33, 0
1, 38304, Note_on_c, 4, 57, 0
1, 38304, Note_on_c, 4, 45, 0
1, 38304, Note_on_c, 5, 35, 88
1, 38304, Note_on_c, 9, 60, 77
1, 38304, Note_on_c, 9, 36, 110
1, 38304, Note_on_c, 9, 39, 110
1, 38304, Note_on_c, 4, 62, 58
1, 38304, Note_on_c, 9, 40, 110
1, 38304, Note_on_c, 1, 47, 120
1, 38304, Note_on_c, 4, 50, 58
1, 38304, Note_on_c, 5, 47, 87
1, 38305, Note_on_c, 9, 40, 0
1, 38305, Note_on_c, 9, 39, 0
1, 38305, Note_on_c, 9, 60, 0
1, 38305, Note_on_c, 9, 36, 0
1, 38351, Note_on_c, 10, 59, 61
1, 38352, Note_on_c, 4, 50, 0
1, 38352, Note_on_c, 4, 62, 0
1, 38352, Note_on_c, 3, 76, 87
1, 38352, Note_on_c, 4, 52, 44
1, 38352, Note_on_c, 4, 64, 44
1, 38352, Lyric_t, "the "
1, 38353, Note_on_c, 3, 74, 0
1, 38353, Note_on_c, 9, 42, 42
1, 38353, Note_on_c, 6, 71, 78
1, 38354, Note_on_c, 9, 42, 0
1, 38361, Note_on_c, 6, 71, 0
1, 38368, Note_on_c, 5, 35, 0
1, 38369, Note_on_c, 5, 47, 0
1, 38374, Note_on_c, 10, 59, 0
1, 38390, Note_on_c, 1, 47, 0
1, 38390, Note_on_c, 1, 35, 0
1, 38396, Note_on_c, 3, 76, 0
1, 38399, Note_on_c, 9, 43, 83
1, 38400, Note_on_c, 9, 43, 0
1, 38400, Note_on_c, 4, 52, 0
1, 38400, Note_on_c, 4, 64, 0
1, 38400, Note_on_c, 0, 76, 86
1, 38400, Lyric_t, "spice "
1, 38400, Note_on_c, 3, 78, 106
1, 38400, Note_on_c, 0, 79, 78
1, 38400, Note_on_c, 9, 42, 96
1, 38400, Note_on_c, 0, 69, 90
1, 38400, Note_on_c, 0, 74, 95
1, 38400, Note_on_c, 4, 66, 63
1, 38400, Note_on_c, 4, 54, 58
1, 38400, Note_on_c, 9, 36, 110
1, 38400, Note_on_c, 1, 28, 104
1, 38401, Note_on_c, 9, 36, 0
1, 38401, Note_on_c, 9, 42, 0
1, 38401, Note_on_c, 1, 40, 110
1, 38401, Note_on_c, 5, 40, 88
1, 38401, Note_on_c, 0, 81, 80
1, 38401, Note_on_c, 5, 28, 80
1, 38414, Note_on_c, 0, 76, 0
1, 38415, Note_on_c, 0, 74, 0
1, 38416, Note_on_c, 0, 69, 0
1, 38416, Note_on_c, 0, 79, 0
1, 38418, Note_on_c, 0, 81, 0
1, 38446, Note_on_c, 3, 78, 0
1, 38447, Note_on_c, 9, 42, 37
1, 38447, Note_on_c, 3, 74, 78
1, 38447, Lyric_t, "of "
1, 38448, Note_on_c, 9, 42, 0
1, 38448, Note_on_c, 4, 54, 0
1, 38448, Note_on_c, 4, 66, 0
1, 38448, Note_on_c, 4, 50, 58
1, 38448, Note_on_c, 4, 62, 35
1, 38449, Note_on_c, 0, 79, 80
1, 38449, Note_on_c, 0, 69, 74
1, 38449, Note_on_c, 0, 81, 67
1, 38449, Note_on_c, 0, 74, 78
1, 38449, Note_on_c, 0, 76, 70
1, 38459, Note_on_c, 0, 76, 0
1, 38459, Note_on_c, 0, 81, 0
1, 38462, Note_on_c, 0, 69, 0
1, 38464, Note_on_c, 0, 79, 0
1, 38464, Note_on_c, 0, 74, 0
1, 38492, Note_on_c, 3, 74, 0
1, 38495, Note_on_c, 4, 50, 0
1, 38495, Note_on_c, 4, 62, 0
1, 38495, Note_on_c, 9, 42, 110
1, 38495, Lyric_t, "life. "
1, 38495, Lyric_t, ""
1, 38495, Lyric_t, "\015"
1, 38495, Note_on_c, 3, 74, 101
1, 38496, Note_on_c, 9, 42, 0
1, 38496, Note_on_c, 0, 79, 93
1, 38496, Note_on_c, 4, 50, 58
1, 38496, Note_on_c, 9, 40, 95
1, 38496, Note_on_c, 4, 62, 58
1, 38496, Note_on_c, 9, 60, 77
1, 38496, Note_on_c, 9, 39, 110
1, 38497, Note_on_c, 9, 39, 0
1, 38497, Note_on_c, 9, 60, 0
1, 38497, Note_on_c, 9, 40, 0
1, 38497, Note_on_c, 0, 74, 95
1, 38497, Note_on_c, 0, 81, 78
1, 38497, Note_on_c, 0, 76, 83
1, 38497, Note_on_c, 0, 69, 91
1, 38508, Note_on_c, 0, 76, 0
1, 38508, Note_on_c, 0, 81, 0
1, 38512, Note_on_c, 0, 74, 0
1, 38512, Note_on_c, 1, 28, 0
1, 38512, Note_on_c, 0, 69, 0
1, 38514, Note_on_c, 0, 79, 0
1, 38516, Note_on_c, 1, 40, 0
1, 38518, Note_on_c, 5, 28, 0
1, 38520, Note_on_c, 5, 40, 0
1, 38543, Note_on_c, 3, 74, 0
1, 38543, Note_on_c, 1, 43, 100
1, 38543, Note_on_c, 3, 76, 77
1, 38543, Note_on_c, 5, 43, 72
1, 38543, Note_on_c, 1, 31, 114
1, 38544, Note_on_c, 4, 62, 0
1, 38544, Note_on_c, 4, 50, 0
1, 38544, Note_on_c, 9, 36, 91
1, 38544, Note_on_c, 5, 31, 72
1, 38544, Note_on_c, 4, 64, 34
1, 38544, Note_on_c, 9, 42, 44
1, 38544, Note_on_c, 4, 52, 34
1, 38545, Note_on_c, 9, 42, 0
1, 38545, Note_on_c, 9, 36, 0
1, 38545, Note_on_c, 0, 69, 100
1, 38545, Note_on_c, 0, 79, 96
1, 38545, Note_on_c, 0, 81, 90
1, 38545, Note_on_c, 0, 74, 104
1, 38545, Note_on_c, 0, 76, 94
1, 38556, Note_on_c, 5, 43, 0
1, 38559, Note_on_c, 5, 31, 0
1, 38561, Note_on_c, 1, 43, 0
1, 38561, Note_on_c, 1, 31, 0
1, 38572, Note_on_c, 0, 81, 0
1, 38572, Note_on_c, 0, 76, 0
1, 38574, Note_on_c, 0, 69, 0
1, 38574, Note_on_c, 0, 74, 0
1, 38576, Note_on_c, 0, 79, 0
1, 38591, Note_on_c, 9, 42, 95
1, 38592, Note_on_c, 9, 42, 0
1, 38592, Note_on_c, 4, 64, 0
1, 38592, Note_on_c, 4, 52, 0
1, 38592, Note_on_c, 9, 36, 110
1, 38592, Note_on_c, 4, 33, 45
1, 38592, Note_on_c, 5, 45, 80
1, 38592, Note_on_c, 1, 33, 112
1, 38592, Note_on_c, 4, 45, 38
1, 38592, Note_on_c, 4, 57, 45
1, 38592, Note_on_c, 1, 45, 117
1, 38593, Note_on_c, 9, 36, 0
1, 38593, Note_on_c, 5, 33, 80
1, 38594, Note_on_c, 3, 76, 0
1, 38639, Note_on_c, 9, 42, 39
1, 38640, Note_on_c, 9, 42, 0
1, 38640, Note_on_c, 6, 69, 80
1, 38641, Note_on_c, 10, 57, 104
1, 38648, Note_on_c, 10, 57, 0
1, 38653, Note_on_c, 6, 69, 0
1, 38663, Note_on_c, 6, 69, 68
1, 38663, Note_on_c, 10, 57, 97
1, 38668, Note_on_c, 5, 33, 0
1, 38670, Note_on_c, 5, 45, 0
1, 38672, Note_on_c, 1, 33, 0
1, 38676, Note_on_c, 10, 57, 0
1, 38678, Note_on_c, 1, 45, 0
1, 38678, Note_on_c, 6, 69, 0
1, 38687, Note_on_c, 6, 67, 78
1, 38687, Note_on_c, 9, 42, 110
1, 38687, Lyric_t, ""
1, 38687, Lyric_t, "\015"
1, 38688, Note_on_c, 9, 42, 0
1, 38688, Note_on_c, 4, 33, 0
1, 38688, Note_on_c, 4, 45, 0
1, 38688, Note_on_c, 4, 57, 0
1, 38688, Note_on_c, 4, 55, 42
1, 38688, Note_on_c, 4, 43, 47
1, 38688, Note_on_c, 10, 55, 100
1, 38688, Note_on_c, 4, 31, 42
1, 38688, Note_on_c, 9, 60, 77
1, 38688, Note_on_c, 9, 39, 110
1, 38688, Note_on_c, 1, 43, 112
1, 38688, Note_on_c, 9, 36, 110
1, 38688, Note_on_c, 1, 31, 100
1, 38688, Note_on_c, 9, 40, 110
1, 38689, Note_on_c, 9, 40, 0
1, 38689, Note_on_c, 9, 36, 0
1, 38689, Note_on_c, 9, 39, 0
1, 38689, Note_on_c, 9, 60, 0
1, 38689, Note_on_c, 5, 43, 79
1, 38689, Note_on_c, 5, 31, 79
1, 38727, Note_on_c, 10, 55, 0
1, 38735, Note_on_c, 6, 67, 0
1, 38737, Note_on_c, 6, 69, 70
1, 38737, Note_on_c, 10, 57, 95
1, 38737, Note_on_c, 9, 42, 42
1, 38738, Note_on_c, 9, 42, 0
1, 38754, Note_on_c, 6, 69, 0
1, 38755, Note_on_c, 10, 57, 0
1, 38765, Note_on_c, 1, 31, 0
1, 38767, Note_on_c, 1, 43, 0
1, 38768, Note_on_c, 5, 43, 0
1, 38768, Note_on_c, 5, 31, 0
1, 38783, Note_on_c, 0, 74, 89
1, 38784, Note_on_c, 4, 31, 0
1, 38784, Note_on_c, 4, 43, 0
1, 38784, Note_on_c, 4, 55, 0
1, 38784, Note_on_c, 9, 36, 110
1, 38784, Note_on_c, 4, 54, 31
1, 38784, Note_on_c, 9, 42, 96
1, 38784, Note_on_c, 4, 30, 31
1, 38784, Note_on_c, 0, 79, 89
1, 38784, Note_on_c, 4, 42, 43
1, 38785, Note_on_c, 9, 42, 0
1, 38785, Note_on_c, 9, 36, 0
1, 38785, Note_on_c, 0, 69, 89
1, 38785, Note_on_c, 0, 76, 89
1, 38785, Note_on_c, 1, 30, 97
1, 38785, Note_on_c, 1, 42, 99
1, 38785, Note_on_c, 5, 30, 78
1, 38785, Note_on_c, 0, 81, 89
1, 38785, Note_on_c, 5, 42, 78
1, 38820, Note_on_c, 0, 76, 0
1, 38822, Note_on_c, 0, 81, 0
1, 38822, Note_on_c, 0, 69, 0
1, 38824, Note_on_c, 0, 79, 0
1, 38824, Note_on_c, 0, 74, 0
1, 38831, Note_on_c, 9, 42, 37
1, 38832, Note_on_c, 9, 42, 0
1, 38879, Note_on_c, 9, 42, 110
1, 38880, Note_on_c, 9, 42, 0
1, 38880, Note_on_c, 9, 60, 77
1, 38880, Note_on_c, 9, 39, 110
1, 38880, Note_on_c, 9, 40, 95
1, 38881, Note_on_c, 9, 40, 0
1, 38881, Note_on_c, 9, 39, 0
1, 38881, Note_on_c, 9, 60, 0
1, 38892, Note_on_c, 1, 30, 0
1, 38893, Note_on_c, 5, 42, 0
1, 38894, Note_on_c, 5, 30, 0
1, 38895, Note_on_c, 1, 42, 0
1, 38927, Note_on_c, 5, 35, 90
1, 38927, Note_on_c, 5, 47, 91
1, 38928, Note_on_c, 4, 30, 0
1, 38928, Note_on_c, 4, 42, 0
1, 38928, Note_on_c, 4, 54, 0
1, 38928, Note_on_c, 4, 35, 35
1, 38928, Note_on_c, 9, 36, 91
1, 38928, Note_on_c, 1, 35, 98
1, 38928, Note_on_c, 1, 47, 110
1, 38928, Note_on_c, 9, 42, 44
1, 38928, Note_on_c, 4, 47, 33
1, 38928, Note_on_c, 4, 59, 35
1, 38929, Note_on_c, 9, 42, 0
1, 38929, Note_on_c, 9, 36, 0
1, 38975, Note_on_c, 9, 42, 95
1, 38976, Note_on_c, 9, 42, 0
1, 38976, Note_on_c, 9, 36, 110
1, 38977, Note_on_c, 9, 36, 0
1, 39016, Note_on_c, 1, 47, 0
1, 39022, Note_on_c, 1, 35, 0
1, 39023, Note_on_c, 5, 35, 0
1, 39023, Note_on_c, 10, 59, 65
1, 39023, Note_on_c, 6, 71, 77
1, 39023, Note_on_c, 1, 45, 97
1, 39023, Note_on_c, 9, 42, 39
1, 39023, Note_on_c, 1, 33, 100
1, 39024, Note_on_c, 9, 42, 0
1, 39024, Note_on_c, 4, 47, 0
1, 39024, Note_on_c, 4, 59, 0
1, 39024, Note_on_c, 4, 35, 0
1, 39024, Note_on_c, 4, 33, 31
1, 39024, Note_on_c, 4, 57, 31
1, 39024, Note_on_c, 4, 45, 30
1, 39025, Note_on_c, 5, 33, 74
1, 39025, Note_on_c, 5, 45, 74
1, 39027, Note_on_c, 5, 47, 0
1, 39034, Note_on_c, 6, 71, 0
1, 39039, Note_on_c, 1, 45, 0
1, 39040, Note_on_c, 1, 33, 0
1, 39041, Note_on_c, 5, 33, 0
1, 39044, Note_on_c, 5, 45, 0
1, 39046, Note_on_c, 10, 59, 0
1, 39071, Note_on_c, 3, 74, 97
1, 39071, Note_on_c, 1, 35, 97
1, 39071, Lyric_t, "Ba"
1, 39071, Note_on_c, 9, 42, 110
1, 39072, Note_on_c, 9, 42, 0
1, 39072, Note_on_c, 4, 57, 0
1, 39072, Note_on_c, 4, 33, 0
1, 39072, Note_on_c, 4, 45, 0
1, 39072, Note_on_c, 9, 39, 110
1, 39072, Note_on_c, 9, 36, 110
1, 39072, Note_on_c, 9, 40, 110
1, 39072, Note_on_c, 1, 47, 120
1, 39072, Note_on_c, 4, 62, 54
1, 39072, Note_on_c, 9, 60, 77
1, 39072, Note_on_c, 5, 35, 88
1, 39072, Note_on_c, 4, 50, 54
1, 39072, Note_on_c, 5, 47, 87
1, 39073, Note_on_c, 9, 60, 0
1, 39073, Note_on_c, 9, 40, 0
1, 39073, Note_on_c, 9, 36, 0
1, 39073, Note_on_c, 9, 39, 0
1, 39119, Note_on_c, 3, 74, 0
1, 39119, Note_on_c, 10, 59, 61
1, 39119, Lyric_t, "by, "
1, 39119, Note_on_c, 3, 76, 81
1, 39120, Note_on_c, 4, 50, 0
1, 39120, Note_on_c, 4, 62, 0
1, 39120, Note_on_c, 4, 64, 38
1, 39120, Note_on_c, 4, 52, 54
1, 39121, Note_on_c, 9, 42, 42
1, 39121, Note_on_c, 6, 71, 78
1, 39122, Note_on_c, 9, 42, 0
1, 39129, Note_on_c, 6, 71, 0
1, 39136, Note_on_c, 5, 35, 0
1, 39137, Note_on_c, 5, 47, 0
1, 39142, Note_on_c, 10, 59, 0
1, 39158, Note_on_c, 1, 35, 0
1, 39158, Note_on_c, 1, 47, 0
1, 39164, Note_on_c, 3, 76, 0
1, 39167, Lyric_t, "slice "
1, 39167, Note_on_c, 3, 78, 100
1, 39168, Note_on_c, 4, 64, 0
1, 39168, Note_on_c, 4, 52, 0
1, 39168, Note_on_c, 0, 74, 95
1, 39168, Note_on_c, 6, 83, 127
1, 39168, Note_on_c, 0, 79, 78
1, 39168, Note_on_c, 1, 28, 104
1, 39168, Note_on_c, 0, 69, 90
1, 39168, Note_on_c, 4, 66, 57
1, 39168, Note_on_c, 9, 36, 110
1, 39168, Note_on_c, 0, 76, 86
1, 39168, Note_on_c, 4, 54, 54
1, 39168, Note_on_c, 10, 71, 122
1, 39168, Note_on_c, 9, 42, 96
1, 39169, Note_on_c, 9, 42, 0
1, 39169, Note_on_c, 9, 36, 0
1, 39169, Note_on_c, 0, 81, 80
1, 39169, Note_on_c, 5, 40, 88
1, 39169, Note_on_c, 5, 28, 80
1, 39169, Note_on_c, 9, 43, 83
1, 39169, Note_on_c, 1, 40, 110
1, 39170, Note_on_c, 9, 43, 0
1, 39182, Note_on_c, 0, 76, 0
1, 39183, Note_on_c, 0, 74, 0
1, 39184, Note_on_c, 0, 79, 0
1, 39184, Note_on_c, 0, 69, 0
1, 39186, Note_on_c, 0, 81, 0
1, 39204, Note_on_c, 6, 82, 105
1, 39212, Note_on_c, 10, 71, 0
1, 39212, Note_on_c, 6, 83, 0
1, 39212, Note_on_c, 6, 81, 101
1, 39212, Note_on_c, 10, 70, 112
1, 39215, Note_on_c, 3, 78, 0
1, 39215, Note_on_c, 9, 42, 37
1, 39216, Note_on_c, 9, 42, 0
1, 39216, Note_on_c, 4, 54, 0
1, 39216, Note_on_c, 4, 66, 0
1, 39216, Note_on_c, 4, 62, 34
1, 39216, Lyric_t, "it "
1, 39216, Note_on_c, 3, 74, 77
1, 39216, Note_on_c, 4, 50, 54
1, 39217, Note_on_c, 0, 76, 70
1, 39217, Note_on_c, 0, 74, 78
1, 39217, Note_on_c, 0, 81, 67
1, 39217, Note_on_c, 0, 69, 74
1, 39217, Note_on_c, 6, 80, 96
1, 39217, Note_on_c, 0, 79, 80
1, 39220, Note_on_c, 6, 82, 0
1, 39220, Note_on_c, 10, 69, 106
1, 39223, Note_on_c, 6, 81, 0
1, 39224, Note_on_c, 6, 79, 89
1, 39224, Note_on_c, 10, 68, 103
1, 39226, Note_on_c, 10, 70, 0
1, 39227, Note_on_c, 0, 76, 0
1, 39227, Note_on_c, 0, 81, 0
1, 39229, Note_on_c, 6, 80, 0
1, 39229, Note_on_c, 6, 78, 81
1, 39230, Note_on_c, 0, 69, 0
1, 39232, Note_on_c, 6, 79, 0
1, 39232, Note_on_c, 10, 69, 0
1, 39232, Note_on_c, 0, 79, 0
1, 39232, Note_on_c, 0, 74, 0
1, 39232, Note_on_c, 10, 67, 99
1, 39235, Note_on_c, 10, 68, 0
1, 39235, Note_on_c, 6, 78, 0
1, 39235, Note_on_c, 6, 77, 78
1, 39239, Note_on_c, 6, 77, 0
1, 39239, Note_on_c, 6, 76, 76
1, 39240, Note_on_c, 10, 66, 93
1, 39241, Note_on_c, 10, 67, 0
1, 39244, Note_on_c, 6, 76, 0
1, 39244, Note_on_c, 10, 65, 90
1, 39246, Note_on_c, 10, 66, 0
1, 39251, Note_on_c, 10, 65, 0
1, 39253, Note_on_c, 10, 64, 86
1, 39260, Note_on_c, 10, 64, 0
1, 39261, Note_on_c, 3, 74, 0
1, 39263, Note_on_c, 4, 62, 0
1, 39263, Note_on_c, 4, 50, 0
1, 39263, Note_on_c, 9, 42, 110
1, 39263, Note_on_c, 3, 74, 91
1, 39263, Lyric_t, ""
1, 39263, Lyric_t, "\015"
1, 39263, Lyric_t, "right, "
1, 39264, Note_on_c, 9, 42, 0
1, 39264, Note_on_c, 9, 39, 110
1, 39264, Note_on_c, 9, 40, 95
1, 39264, Note_on_c, 4, 62, 48
1, 39264, Note_on_c, 0, 79, 93
1, 39264, Note_on_c, 4, 50, 54
1, 39264, Note_on_c, 9, 60, 77
1, 39265, Note_on_c, 9, 60, 0
1, 39265, Note_on_c, 9, 40, 0
1, 39265, Note_on_c, 9, 39, 0
1, 39265, Note_on_c, 0, 76, 83
1, 39265, Note_on_c, 0, 81, 78
1, 39265, Note_on_c, 0, 69, 91
1, 39265, Note_on_c, 0, 74, 95
1, 39276, Note_on_c, 0, 81, 0
1, 39276, Note_on_c, 0, 76, 0
1, 39280, Note_on_c, 0, 69, 0
1, 39280, Note_on_c, 1, 28, 0
1, 39280, Note_on_c, 0, 74, 0
1, 39282, Note_on_c, 0, 79, 0
1, 39284, Note_on_c, 1, 40, 0
1, 39286, Note_on_c, 5, 28, 0
1, 39288, Note_on_c, 5, 40, 0
1, 39311, Note_on_c, 5, 43, 72
1, 39311, Note_on_c, 1, 31, 114
1, 39311, Note_on_c, 1, 43, 100
1, 39312, Note_on_c, 4, 62, 0
1, 39312, Note_on_c, 4, 50, 0
1, 39312, Note_on_c, 4, 55, 41
1, 39312, Note_on_c, 4, 31, 41
1, 39312, Note_on_c, 5, 31, 72
1, 39312, Note_on_c, 9, 36, 91
1, 39312, Note_on_c, 4, 43, 44
1, 39312, Note_on_c, 9, 42, 44
1, 39313, Note_on_c, 9, 42, 0
1, 39313, Note_on_c, 9, 36, 0
1, 39313, Note_on_c, 0, 74, 104
1, 39313, Note_on_c, 0, 76, 94
1, 39313, Note_on_c, 0, 81, 90
1, 39313, Note_on_c, 0, 79, 96
1, 39313, Note_on_c, 0, 69, 100
1, 39314, Note_on_c, 3, 74, 0
1, 39324, Note_on_c, 5, 43, 0
1, 39327, Note_on_c, 5, 31, 0
1, 39329, Note_on_c, 1, 31, 0
1, 39329, Note_on_c, 1, 43, 0
1, 39340, Note_on_c, 0, 76, 0
1, 39340, Note_on_c, 0, 81, 0
1, 39342, Note_on_c, 0, 74, 0
1, 39342, Note_on_c, 0, 69, 0
1, 39344, Note_on_c, 0, 79, 0
1, 39359, Note_on_c, 9, 42, 95
1, 39360, Note_on_c, 9, 42, 0
1, 39360, Note_on_c, 4, 31, 0
1, 39360, Note_on_c, 4, 55, 0
1, 39360, Note_on_c, 4, 43, 0
1, 39360, Note_on_c, 9, 36, 110
1, 39360, Note_on_c, 1, 45, 117
1, 39360, Note_on_c, 4, 33, 45
1, 39360, Note_on_c, 1, 33, 112
1, 39360, Note_on_c, 4, 57, 45
1, 39360, Note_on_c, 4, 45, 38
1, 39360, Note_on_c, 5, 45, 80
1, 39361, Note_on_c, 9, 36, 0
1, 39361, Note_on_c, 5, 33, 80
1, 39407, Note_on_c, 9, 42, 39
1, 39408, Note_on_c, 9, 42, 0
1, 39409, Note_on_c, 6, 81, 114
1, 39409, Note_on_c, 10, 69, 88
1, 39413, Note_on_c, 10, 69, 0
1, 39417, Note_on_c, 6, 81, 0
1, 39431, Note_on_c, 10, 69, 98
1, 39431, Note_on_c, 6, 81, 87
1, 39436, Note_on_c, 5, 33, 0
1, 39438, Note_on_c, 5, 45, 0
1, 39440, Note_on_c, 1, 33, 0
1, 39441, Note_on_c, 6, 81, 0
1, 39441, Note_on_c, 10, 69, 0
1, 39446, Note_on_c, 1, 45, 0
1, 39454, Note_on_c, 6, 79, 111
1, 39455, Note_on_c, 10, 67, 120
1, 39455, Note_on_c, 1, 31, 100
1, 39455, Note_on_c, 9, 42, 110
1, 39455, Note_on_c, 1, 43, 112
1, 39456, Note_on_c, 9, 42, 0
1, 39456, Note_on_c, 4, 57, 0
1, 39456, Note_on_c, 4, 33, 0
1, 39456, Note_on_c, 4, 45, 0
1, 39456, Note_on_c, 9, 40, 110
1, 39456, Note_on_c, 4, 43, 47
1, 39456, Note_on_c, 4, 31, 42
1, 39456, Note_on_c, 9, 60, 77
1, 39456, Note_on_c, 4, 55, 42
1, 39456, Note_on_c, 9, 36, 110
1, 39456, Note_on_c, 9, 39, 110
1, 39457, Note_on_c, 9, 39, 0
1, 39457, Note_on_c, 9, 40, 0
1, 39457, Note_on_c, 9, 36, 0
1, 39457, Note_on_c, 9, 60, 0
1, 39457, Note_on_c, 5, 43, 79
1, 39457, Note_on_c, 5, 31, 79
1, 39503, Note_on_c, 6, 79, 0
1, 39505, Note_on_c, 6, 81, 104
1, 39505, Note_on_c, 9, 42, 42
1, 39505, Note_on_c, 10, 69, 112
1, 39506, Note_on_c, 9, 42, 0
1, 39506, Note_on_c, 10, 67, 0
1, 39519, Note_on_c, 6, 81, 0
1, 39524, Note_on_c, 10, 69, 0
1, 39532, Note_on_c, 1, 31, 0
1, 39534, Note_on_c, 1, 43, 0
1, 39536, Note_on_c, 5, 31, 0
1, 39536, Note_on_c, 5, 43, 0
1, 39551, Note_on_c, 0, 74, 89
1, 39552, Note_on_c, 4, 31, 0
1, 39552, Note_on_c, 4, 43, 0
1, 39552, Note_on_c, 4, 55, 0
1, 39552, Note_on_c, 4, 30, 31
1, 39552, Note_on_c, 0, 79, 89
1, 39552, Note_on_c, 9, 42, 96
1, 39552, Note_on_c, 9, 36, 110
1, 39552, Note_on_c, 4, 54, 31
1, 39552, Note_on_c, 4, 42, 43
1, 39553, Note_on_c, 9, 36, 0
1, 39553, Note_on_c, 9, 42, 0
1, 39553, Note_on_c, 1, 30, 97
1, 39553, Note_on_c, 5, 42, 78
1, 39553, Note_on_c, 0, 69, 89
1, 39553, Note_on_c, 0, 76, 89
1, 39553, Note_on_c, 5, 30, 78
1, 39553, Note_on_c, 0, 81, 89
1, 39553, Note_on_c, 1, 42, 99
1, 39588, Note_on_c, 0, 76, 0
1, 39590, Note_on_c, 0, 81, 0
1, 39590, Note_on_c, 0, 69, 0
1, 39592, Note_on_c, 0, 79, 0
1, 39592, Note_on_c, 0, 74, 0
1, 39599, Note_on_c, 9, 42, 37
1, 39600, Note_on_c, 9, 42, 0
1, 39647, Note_on_c, 9, 42, 110
1, 39648, Note_on_c, 9, 42, 0
1, 39648, Note_on_c, 9, 60, 77
1, 39648, Note_on_c, 9, 39, 110
1, 39648, Note_on_c, 9, 40, 95
1, 39649, Note_on_c, 9, 40, 0
1, 39649, Note_on_c, 9, 39, 0
1, 39649, Note_on_c, 9, 60, 0
1, 39660, Note_on_c, 1, 30, 0
1, 39661, Note_on_c, 5, 42, 0
1, 39662, Note_on_c, 5, 30, 0
1, 39663, Note_on_c, 1, 42, 0
1, 39695, Note_on_c, 5, 47, 91
1, 39695, Note_on_c, 5, 35, 90
1, 39696, Note_on_c, 4, 54, 0
1, 39696, Note_on_c, 4, 42, 0
1, 39696, Note_on_c, 4, 30, 0
1, 39696, Note_on_c, 9, 42, 44
1, 39696, Note_on_c, 1, 35, 98
1, 39696, Note_on_c, 4, 59, 35
1, 39696, Note_on_c, 4, 47, 33
1, 39696, Note_on_c, 1, 47, 110
1, 39696, Note_on_c, 9, 36, 91
1, 39696, Note_on_c, 4, 35, 35
1, 39697, Note_on_c, 9, 36, 0
1, 39697, Note_on_c, 9, 42, 0
1, 39743, Note_on_c, 9, 42, 95
1, 39744, Note_on_c, 9, 42, 0
1, 39744, Note_on_c, 9, 36, 110
1, 39745, Note_on_c, 9, 36, 0
1, 39784, Note_on_c, 1, 47, 0
1, 39789, Note_on_c, 6, 83, 127
1, 39790, Note_on_c, 1, 35, 0
1, 39791, Note_on_c, 4, 47, 0
1, 39791, Note_on_c, 4, 59, 0
1, 39791, Note_on_c, 5, 35, 0
1, 39791, Note_on_c, 10, 71, 104
1, 39791, Lyric_t, "we're "
1, 39791, Note_on_c, 1, 45, 97
1, 39791, Note_on_c, 9, 42, 39
1, 39791, Note_on_c, 1, 33, 100
1, 39791, Note_on_c, 3, 71, 67
1, 39792, Note_on_c, 9, 42, 0
1, 39792, Note_on_c, 4, 35, 0
1, 39792, Note_on_c, 4, 59, 24
1, 39792, Note_on_c, 4, 47, 24
1, 39793, Note_on_c, 5, 45, 74
1, 39793, Note_on_c, 5, 33, 74
1, 39795, Note_on_c, 5, 47, 0
1, 39807, Note_on_c, 1, 45, 0
1, 39808, Note_on_c, 1, 33, 0
1, 39809, Note_on_c, 5, 33, 0
1, 39811, Note_on_c, 10, 71, 0
1, 39812, Note_on_c, 5, 45, 0
1, 39822, Note_on_c, 6, 83, 0
1, 39838, Note_on_c, 3, 71, 0
1, 39839, Note_on_c, 1, 35, 97
1, 39839, Note_on_c, 9, 42, 110
1, 39839, Note_on_c, 3, 74, 93
1, 39839, Lyric_t, "gon"
1, 39840, Note_on_c, 9, 42, 0
1, 39840, Note_on_c, 4, 59, 0
1, 39840, Note_on_c, 4, 47, 0
1, 39840, Note_on_c, 9, 36, 110
1, 39840, Note_on_c, 9, 60, 77
1, 39840, Note_on_c, 1, 47, 120
1, 39840, Note_on_c, 9, 40, 110
1, 39840, Note_on_c, 9, 39, 110
1, 39840, Note_on_c, 4, 50, 24
1, 39840, Note_on_c, 5, 47, 87
1, 39840, Note_on_c, 4, 62, 50
1, 39840, Note_on_c, 5, 35, 88
1, 39841, Note_on_c, 9, 39, 0
1, 39841, Note_on_c, 9, 36, 0
1, 39841, Note_on_c, 9, 40, 0
1, 39841, Note_on_c, 9, 60, 0
1, 39884, Note_on_c, 6, 83, 125
1, 39887, Note_on_c, 3, 74, 0
1, 39887, Note_on_c, 3, 76, 85
1, 39887, Lyric_t, "na "
1, 39888, Note_on_c, 4, 50, 0
1, 39888, Note_on_c, 4, 62, 0
1, 39888, Note_on_c, 4, 52, 24
1, 39888, Note_on_c, 4, 64, 42
1, 39889, Note_on_c, 9, 42, 42
1, 39890, Note_on_c, 9, 42, 0
1, 39890, Note_on_c, 10, 71, 106
1, 39904, Note_on_c, 5, 35, 0
1, 39905, Note_on_c, 5, 47, 0
1, 39911, Note_on_c, 6, 83, 0
1, 39912, Note_on_c, 10, 71, 0
1, 39926, Note_on_c, 1, 47, 0
1, 39926, Note_on_c, 1, 35, 0
1, 39933, Note_on_c, 3, 76, 0
1, 39936, Note_on_c, 4, 52, 0
1, 39936, Note_on_c, 4, 64, 0
1, 39936, Note_on_c, 0, 74, 95
1, 39936, Lyric_t, "groove "
1, 39936, Note_on_c, 4, 66, 57
1, 39936, Note_on_c, 9, 42, 96
1, 39936, Note_on_c, 0, 79, 78
1, 39936, Note_on_c, 4, 54, 42
1, 39936, Note_on_c, 1, 28, 104
1, 39936, Note_on_c, 9, 36, 110
1, 39936, Note_on_c, 0, 76, 86
1, 39936, Note_on_c, 0, 69, 90
1, 39936, Note_on_c, 3, 78, 100
1, 39937, Note_on_c, 9, 36, 0
1, 39937, Note_on_c, 9, 42, 0
1, 39937, Note_on_c, 5, 40, 88
1, 39937, Note_on_c, 5, 28, 80
1, 39937, Note_on_c, 1, 40, 110
1, 39937, Note_on_c, 9, 43, 83
1, 39937, Note_on_c, 0, 81, 80
1, 39938, Note_on_c, 9, 43, 0
1, 39950, Note_on_c, 0, 76, 0
1, 39951, Note_on_c, 0, 74, 0
1, 39952, Note_on_c, 0, 79, 0
1, 39952, Note_on_c, 0, 69, 0
1, 39954, Note_on_c, 0, 81, 0
1, 39983, Note_on_c, 3, 78, 0
1, 39983, Note_on_c, 9, 42, 37
1, 39984, Note_on_c, 9, 42, 0
1, 39984, Note_on_c, 4, 54, 0
1, 39984, Note_on_c, 4, 66, 0
1, 39984, Note_on_c, 3, 74, 87
1, 39984, Note_on_c, 4, 50, 42
1, 39984, Note_on_c, 4, 62, 44
1, 39984, Lyric_t, "to"
1, 39985, Note_on_c, 0, 79, 80
1, 39985, Note_on_c, 0, 76, 70
1, 39985, Note_on_c, 0, 81, 67
1, 39985, Note_on_c, 0, 74, 78
1, 39985, Note_on_c, 0, 69, 74
1, 39995, Note_on_c, 0, 81, 0
1, 39995, Note_on_c, 0, 76, 0
1, 39998, Note_on_c, 0, 69, 0
1, 40000, Note_on_c, 0, 74, 0
1, 40000, Note_on_c, 0, 79, 0
1, 40028, Note_on_c, 3, 74, 0
1, 40031, Note_on_c, 4, 50, 0
1, 40031, Note_on_c, 4, 62, 0
1, 40031, Lyric_t, "night. "
1, 40031, Note_on_c, 9, 42, 110
1, 40031, Note_on_c, 3, 74, 90
1, 40031, Lyric_t, ""
1, 40031, Lyric_t, "\015"
1, 40032, Note_on_c, 9, 42, 0
1, 40032, Note_on_c, 9, 40, 95
1, 40032, Note_on_c, 9, 60, 77
1, 40032, Note_on_c, 4, 50, 42
1, 40032, Note_on_c, 9, 39, 110
1, 40032, Note_on_c, 0, 79, 93
1, 40032, Note_on_c, 4, 62, 47
1, 40033, Note_on_c, 9, 39, 0
1, 40033, Note_on_c, 9, 60, 0
1, 40033, Note_on_c, 9, 40, 0
1, 40033, Note_on_c, 0, 76, 83
1, 40033, Note_on_c, 0, 74, 95
1, 40033, Note_on_c, 0, 81, 78
1, 40033, Note_on_c, 0, 69, 91
1, 40044, Note_on_c, 0, 81, 0
1, 40044, Note_on_c, 0, 76, 0
1, 40048, Note_on_c, 0, 74, 0
1, 40048, Note_on_c, 1, 28, 0
1, 40048, Note_on_c, 0, 69, 0
1, 40050, Note_on_c, 0, 79, 0
1, 40052, Note_on_c, 1, 40, 0
1, 40054, Note_on_c, 5, 28, 0
1, 40056, Note_on_c, 5, 40, 0
1, 40079, Note_on_c, 3, 74, 0
1, 40079, Note_on_c, 5, 43, 72
1, 40079, Note_on_c, 1, 43, 100
1, 40079, Note_on_c, 1, 31, 114
1, 40080, Note_on_c, 4, 50, 0
1, 40080, Note_on_c, 4, 62, 0
1, 40080, Note_on_c, 4, 64, 35
1, 40080, Note_on_c, 9, 36, 91
1, 40080, Note_on_c, 4, 52, 42
1, 40080, Note_on_c, 9, 42, 44
1, 40080, Note_on_c, 5, 31, 72
1, 40081, Note_on_c, 9, 42, 0
1, 40081, Note_on_c, 9, 36, 0
1, 40081, Note_on_c, 0, 69, 100
1, 40081, Note_on_c, 0, 79, 96
1, 40081, Note_on_c, 0, 81, 90
1, 40081, Note_on_c, 0, 76, 94
1, 40081, Note_on_c, 0, 74, 104
1, 40081, Note_on_c, 3, 76, 78
1, 40092, Note_on_c, 5, 43, 0
1, 40095, Note_on_c, 5, 31, 0
1, 40097, Note_on_c, 1, 31, 0
1, 40097, Note_on_c, 1, 43, 0
1, 40108, Note_on_c, 0, 81, 0
1, 40108, Note_on_c, 0, 76, 0
1, 40110, Note_on_c, 0, 74, 0
1, 40110, Note_on_c, 0, 69, 0
1, 40112, Note_on_c, 0, 79, 0
1, 40125, Note_on_c, 3, 76, 0
1, 40127, Note_on_c, 9, 42, 95
1, 40128, Note_on_c, 9, 42, 0
1, 40128, Note_on_c, 4, 64, 0
1, 40128, Note_on_c, 4, 52, 0
1, 40128, Note_on_c, 4, 57, 45
1, 40128, Note_on_c, 1, 45, 117
1, 40128, Note_on_c, 4, 33, 45
1, 40128, Note_on_c, 5, 45, 80
1, 40128, Note_on_c, 4, 45, 38
1, 40128, Note_on_c, 1, 33, 112
1, 40128, Note_on_c, 9, 36, 110
1, 40129, Note_on_c, 9, 36, 0
1, 40129, Note_on_c, 5, 33, 80
1, 40175, Note_on_c, 10, 69, 88
1, 40175, Note_on_c, 9, 42, 39
1, 40176, Note_on_c, 9, 42, 0
1, 40177, Note_on_c, 6, 81, 114
1, 40182, Note_on_c, 10, 69, 0
1, 40185, Note_on_c, 6, 81, 0
1, 40198, Note_on_c, 10, 69, 102
1, 40199, Note_on_c, 6, 81, 87
1, 40204, Note_on_c, 5, 33, 0
1, 40206, Note_on_c, 10, 69, 0
1, 40206, Note_on_c, 5, 45, 0
1, 40208, Note_on_c, 1, 33, 0
1, 40209, Note_on_c, 6, 81, 0
1, 40214, Note_on_c, 1, 45, 0
1, 40222, Note_on_c, 6, 79, 111
1, 40222, Note_on_c, 10, 67, 119
1, 40223, Note_on_c, 1, 43, 112
1, 40223, Note_on_c, 1, 31, 100
1, 40223, Note_on_c, 9, 42, 110
1, 40224, Note_on_c, 9, 42, 0
1, 40224, Note_on_c, 4, 33, 0
1, 40224, Note_on_c, 4, 45, 0
1, 40224, Note_on_c, 4, 57, 0
1, 40224, Note_on_c, 9, 36, 110
1, 40224, Note_on_c, 9, 39, 110
1, 40224, Note_on_c, 9, 60, 77
1, 40224, Note_on_c, 4, 55, 42
1, 40224, Note_on_c, 4, 31, 42
1, 40224, Note_on_c, 4, 43, 47
1, 40224, Note_on_c, 9, 40, 110
1, 40225, Note_on_c, 9, 40, 0
1, 40225, Note_on_c, 9, 60, 0
1, 40225, Note_on_c, 9, 39, 0
1, 40225, Note_on_c, 9, 36, 0
1, 40225, Note_on_c, 5, 31, 79
1, 40225, Note_on_c, 5, 43, 79
1, 40271, Note_on_c, 6, 79, 0
1, 40273, Note_on_c, 6, 81, 104
1, 40273, Note_on_c, 10, 69, 104
1, 40273, Note_on_c, 9, 42, 42
1, 40274, Note_on_c, 9, 42, 0
1, 40274, Note_on_c, 10, 67, 0
1, 40287, Note_on_c, 6, 81, 0
1, 40298, Note_on_c, 10, 69, 0
1, 40300, Note_on_c, 1, 31, 0
1, 40302, Note_on_c, 1, 43, 0
1, 40304, Note_on_c, 5, 31, 0
1, 40304, Note_on_c, 5, 43, 0
1, 40319, Note_on_c, 0, 74, 89
1, 40320, Note_on_c, 4, 31, 0
1, 40320, Note_on_c, 4, 55, 0
1, 40320, Note_on_c, 4, 43, 0
1, 40320, Note_on_c, 4, 54, 31
1, 40320, Pitch_bend_c, 6, 128
1, 40320, Note_on_c, 4, 42, 43
1, 40320, Note_on_c, 4, 30, 31
1, 40320, Note_on_c, 0, 79, 89
1, 40320, Note_on_c, 9, 36, 110
1, 40320, Note_on_c, 9, 42, 96
1, 40321, Note_on_c, 9, 42, 0
1, 40321, Note_on_c, 9, 36, 0
1, 40321, Note_on_c, 0, 81, 89
1, 40321, Note_on_c, 6, 88, 85
1, 40321, Note_on_c, 0, 76, 89
1, 40321, Note_on_c, 5, 30, 78
1, 40321, Note_on_c, 5, 42, 78
1, 40321, Note_on_c, 6, 83, 87
1, 40321, Note_on_c, 1, 30, 97
1, 40321, Note_on_c, 1, 42, 99
1, 40321, Note_on_c, 0, 69, 89
1, 40324, Pitch_bend_c, 6, 256
1, 40328, Pitch_bend_c, 6, 384
1, 40332, Pitch_bend_c, 6, 640
1, 40336, Pitch_bend_c, 6, 768
1, 40340, Pitch_bend_c, 6, 896
1, 40344, Pitch_bend_c, 6, 1152
1, 40348, Pitch_bend_c, 6, 1280
1, 40352, Pitch_bend_c, 6, 1408
1, 40356, Note_on_c, 0, 76, 0
1, 40356, Pitch_bend_c, 6, 1664
1, 40358, Note_on_c, 0, 81, 0
1, 40358, Note_on_c, 0, 69, 0
1, 40360, Note_on_c, 0, 79, 0
1, 40360, Note_on_c, 0, 74, 0
1, 40360, Pitch_bend_c, 6, 1792
1, 40364, Pitch_bend_c, 6, 1920
1, 40367, Note_on_c, 9, 42, 37
1, 40368, Note_on_c, 9, 42, 0
1, 40368, Pitch_bend_c, 6, 2176
1, 40368, Note_on_c, 9, 40, 44
1, 40369, Note_on_c, 9, 40, 0
1, 40372, Pitch_bend_c, 6, 2304
1, 40376, Pitch_bend_c, 6, 2432
1, 40380, Pitch_bend_c, 6, 2688
1, 40384, Pitch_bend_c, 6, 2816
1, 40388, Pitch_bend_c, 6, 2944
1, 40392, Pitch_bend_c, 6, 3200
1, 40396, Pitch_bend_c, 6, 3328
1, 40400, Pitch_bend_c, 6, 3456
1, 40404, Pitch_bend_c, 6, 3712
1, 40408, Pitch_bend_c, 6, 3840
1, 40412, Pitch_bend_c, 6, 3968
1, 40415, Note_on_c, 9, 42, 110
1, 40416, Note_on_c, 9, 42, 0
1, 40416, Note_on_c, 9, 40, 59
1, 40416, Note_on_c, 9, 60, 77
1, 40416, Note_on_c, 9, 39, 110
1, 40416, Pitch_bend_c, 6, 4224
1, 40417, Note_on_c, 9, 39, 0
1, 40417, Note_on_c, 9, 40, 0
1, 40417, Note_on_c, 9, 60, 0
1, 40420, Pitch_bend_c, 6, 4352
1, 40424, Pitch_bend_c, 6, 4480
1, 40428, Note_on_c, 1, 30, 0
1, 40428, Pitch_bend_c, 6, 4736
1, 40429, Note_on_c, 5, 42, 0
1, 40430, Note_on_c, 5, 30, 0
1, 40431, Note_on_c, 1, 42, 0
1, 40432, Pitch_bend_c, 6, 4864
1, 40436, Pitch_bend_c, 6, 4992
1, 40440, Pitch_bend_c, 6, 5248
1, 40444, Pitch_bend_c, 6, 5376
1, 40448, Pitch_bend_c, 6, 5504
1, 40452, Pitch_bend_c, 6, 5760
1, 40456, Pitch_bend_c, 6, 5888
1, 40460, Pitch_bend_c, 6, 6016
1, 40463, Note_on_c, 5, 47, 91
1, 40463, Note_on_c, 5, 35, 90
1, 40464, Note_on_c, 4, 54, 0
1, 40464, Note_on_c, 4, 42, 0
1, 40464, Note_on_c, 4, 30, 0
1, 40464, Note_on_c, 9, 42, 44
1, 40464, Note_on_c, 1, 47, 110
1, 40464, Note_on_c, 9, 40, 71
1, 40464, Note_on_c, 9, 36, 91
1, 40464, Note_on_c, 1, 35, 98
1, 40464, Note_on_c, 4, 47, 33
1, 40464, Pitch_bend_c, 6, 6272
1, 40464, Note_on_c, 4, 59, 35
1, 40464, Note_on_c, 4, 35, 35
1, 40465, Note_on_c, 9, 36, 0
1, 40465, Note_on_c, 9, 40, 0
1, 40465, Note_on_c, 9, 42, 0
1, 40468, Pitch_bend_c, 6, 6400
1, 40472, Pitch_bend_c, 6, 6528
1, 40476, Pitch_bend_c, 6, 6784
1, 40480, Pitch_bend_c, 6, 6912
1, 40484, Pitch_bend_c, 6, 7040
1, 40488, Pitch_bend_c, 6, 7296
1, 40492, Pitch_bend_c, 6, 7424
1, 40496, Pitch_bend_c, 6, 7552
1, 40500, Pitch_bend_c, 6, 7808
1, 40504, Pitch_bend_c, 6, 7936
1, 40508, Pitch_bend_c, 6, 8064
1, 40511, Note_on_c, 9, 42, 95
1, 40512, Note_on_c, 9, 42, 0
1, 40512, Note_on_c, 9, 40, 78
1, 40512, Pitch_bend_c, 6, 8320
1, 40512, Note_on_c, 9, 36, 110
1, 40513, Note_on_c, 9, 36, 0
1, 40513, Note_on_c, 9, 40, 0
1, 40516, Pitch_bend_c, 6, 8448
1, 40520, Pitch_bend_c, 6, 8576
1, 40524, Pitch_bend_c, 6, 8832
1, 40528, Pitch_bend_c, 6, 8960
1, 40532, Pitch_bend_c, 6, 9088
1, 40536, Pitch_bend_c, 6, 9344
1, 40540, Pitch_bend_c, 6, 9472
1, 40544, Pitch_bend_c, 6, 9600
1, 40548, Pitch_bend_c, 6, 9856
1, 40552, Note_on_c, 1, 47, 0
1, 40552, Pitch_bend_c, 6, 9984
1, 40556, Lyric_t, "Wooh, "
1, 40556, Pitch_bend_c, 6, 10112
1, 40556, Note_on_c, 3, 81, 85
1, 40558, Note_on_c, 1, 35, 0
1, 40559, Note_on_c, 5, 35, 0
1, 40559, Note_on_c, 1, 45, 97
1, 40559, Note_on_c, 9, 46, 87
1, 40559, Note_on_c, 1, 33, 100
1, 40560, Note_on_c, 9, 46, 0
1, 40560, Note_on_c, 4, 59, 0
1, 40560, Note_on_c, 4, 35, 0
1, 40560, Note_on_c, 4, 47, 0
1, 40560, Pitch_bend_c, 6, 10368
1, 40560, Note_on_c, 4, 74, 47
1, 40560, Note_on_c, 4, 78, 54
1, 40560, Note_on_c, 9, 40, 91
1, 40560, Note_on_c, 4, 69, 36
1, 40561, Note_on_c, 9, 40, 0
1, 40561, Note_on_c, 5, 45, 74
1, 40561, Note_on_c, 5, 33, 74
1, 40563, Note_on_c, 5, 47, 0
1, 40564, Pitch_bend_c, 6, 10496
1, 40568, Pitch_bend_c, 6, 10624
1, 40572, Pitch_bend_c, 6, 10880
1, 40575, Note_on_c, 1, 45, 0
1, 40576, Note_on_c, 1, 33, 0
1, 40576, Pitch_bend_c, 6, 11008
1, 40577, Note_on_c, 5, 33, 0
1, 40580, Note_on_c, 5, 45, 0
1, 40580, Pitch_bend_c, 6, 11136
1, 40584, Pitch_bend_c, 6, 11392
1, 40588, Pitch_bend_c, 6, 11520
1, 40592, Pitch_bend_c, 6, 11648
1, 40596, Pitch_bend_c, 6, 11904
1, 40600, Pitch_bend_c, 6, 12032
1, 40604, Pitch_bend_c, 6, 12160
1, 40607, Note_on_c, 3, 81, 0
1, 40607, Note_on_c, 1, 35, 97
1, 40607, Note_on_c, 9, 42, 110
1, 40608, Note_on_c, 9, 42, 0
1, 40608, Note_on_c, 4, 74, 0
1, 40608, Note_on_c, 4, 69, 0
1, 40608, Note_on_c, 4, 78, 0
1, 40608, Note_on_c, 1, 47, 120
1, 40608, Note_on_c, 9, 39, 110
1, 40608, Note_on_c, 5, 47, 87
1, 40608, Note_on_c, 9, 36, 110
1, 40608, Note_on_c, 5, 35, 88
1, 40608, Note_on_c, 4, 76, 23
1, 40608, Note_on_c, 9, 60, 77
1, 40608, Pitch_bend_c, 6, 12416
1, 40608, Note_on_c, 9, 40, 98
1, 40608, Note_on_c, 4, 67, 27
1, 40608, Note_on_c, 4, 71, 30
1, 40609, Note_on_c, 9, 40, 0
1, 40609, Note_on_c, 9, 60, 0
1, 40609, Note_on_c, 9, 36, 0
1, 40609, Note_on_c, 9, 39, 0
1, 40612, Pitch_bend_c, 6, 12544
1, 40613, Note_on_c, 3, 79, 66
1, 40613, Lyric_t, "ah, "
1, 40616, Pitch_bend_c, 6, 12672
1, 40620, Pitch_bend_c, 6, 12928
1, 40624, Pitch_bend_c, 6, 13056
1, 40628, Pitch_bend_c, 6, 13184
1, 40632, Pitch_bend_c, 6, 13440
1, 40636, Pitch_bend_c, 6, 13568
1, 40640, Pitch_bend_c, 6, 13696
1, 40644, Pitch_bend_c, 6, 13952
1, 40648, Note_on_c, 3, 79, 0
1, 40648, Pitch_bend_c, 6, 14080
1, 40651, Lyric_t, ""
1, 40651, Lyric_t, "\015"
1, 40651, Note_on_c, 3, 81, 63
1, 40651, Lyric_t, "wooh. "
1, 40652, Pitch_bend_c, 6, 14208
1, 40656, Note_on_c, 4, 67, 0
1, 40656, Note_on_c, 4, 76, 0
1, 40656, Note_on_c, 4, 71, 0
1, 40656, Pitch_bend_c, 6, 14464
1, 40656, Note_on_c, 4, 78, 27
1, 40656, Note_on_c, 4, 69, 29
1, 40656, Note_on_c, 9, 40, 30
1, 40656, Note_on_c, 4, 74, 30
1, 40657, Note_on_c, 9, 40, 0
1, 40657, Note_on_c, 9, 42, 42
1, 40658, Note_on_c, 9, 42, 0
1, 40660, Pitch_bend_c, 6, 14592
1, 40661, Note_on_c, 6, 83, 0
1, 40662, Note_on_c, 6, 88, 0
1, 40664, Pitch_bend_c, 6, 14720
1, 40668, Pitch_bend_c, 6, 14976
1, 40672, Note_on_c, 5, 35, 0
1, 40672, Pitch_bend_c, 6, 15104
1, 40673, Note_on_c, 5, 47, 0
1, 40676, Pitch_bend_c, 6, 15232
1, 40680, Pitch_bend_c, 6, 15488
1, 40680, Note_on_c, 9, 40, 105
1, 40681, Note_on_c, 9, 40, 0
1, 40694, Note_on_c, 1, 47, 0
1, 40694, Note_on_c, 1, 35, 0
1, 40700, Pitch_bend_c, 6, 8192
1, 40704, Note_on_c, 4, 78, 0
1, 40704, Note_on_c, 4, 69, 0
1, 40704, Note_on_c, 4, 74, 0
1, 40704, Note_on_c, 10, 67, 85
1, 40704, Note_on_c, 9, 43, 89
1, 40704, Note_on_c, 0, 66, 96
1, 40704, Note_on_c, 9, 49, 96
1, 40704, Note_on_c, 10, 71, 127
1, 40704, Note_on_c, 9, 36, 110
1, 40704, Note_on_c, 1, 28, 104
1, 40705, Note_on_c, 9, 36, 0
1, 40705, Note_on_c, 9, 43, 0
1, 40705, Note_on_c, 9, 49, 0
1, 40705, Note_on_c, 1, 40, 110
1, 40705, Note_on_c, 0, 67, 81
1, 40705, Note_on_c, 0, 74, 82
1, 40705, Note_on_c, 0, 71, 81
1, 40709, Note_on_c, 3, 81, 0
1, 40709, Note_on_c, 6, 88, 125
1, 40709, Note_on_c, 6, 83, 127
1, 40751, Note_on_c, 10, 67, 0
1, 40751, Note_on_c, 10, 71, 0
1, 40751, Note_on_c, 9, 42, 37
1, 40752, Note_on_c, 9, 42, 0
1, 40762, Note_on_c, 6, 83, 0
1, 40765, Note_on_c, 6, 88, 0
1, 40799, Note_on_c, 9, 42, 110
1, 40800, Note_on_c, 9, 42, 0
1, 40800, Note_on_c, 9, 39, 110
1, 40800, Note_on_c, 9, 60, 77
1, 40800, Note_on_c, 9, 40, 95
1, 40801, Note_on_c, 9, 40, 0
1, 40801, Note_on_c, 9, 60, 0
1, 40801, Note_on_c, 9, 39, 0
1, 40816, Note_on_c, 1, 28, 0
1, 40818, Note_on_c, 0, 66, 0
1, 40820, Note_on_c, 1, 40, 0
1, 40823, Note_on_c, 0, 71, 0
1, 40824, Note_on_c, 0, 74, 0
1, 40825, Note_on_c, 0, 67, 0
1, 40847, Note_on_c, 0, 74, 76
1, 40847, Note_on_c, 0, 67, 69
1, 40847, Note_on_c, 0, 71, 78
1, 40847, Note_on_c, 0, 66, 78
1, 40847, Note_on_c, 1, 31, 114
1, 40847, Note_on_c, 1, 43, 100
1, 40848, Note_on_c, 9, 42, 44
1, 40848, Note_on_c, 9, 36, 91
1, 40849, Note_on_c, 9, 36, 0
1, 40849, Note_on_c, 9, 42, 0
1, 40856, Note_on_c, 0, 74, 0
1, 40856, Note_on_c, 0, 67, 0
1, 40858, Note_on_c, 0, 71, 0
1, 40859, Note_on_c, 0, 66, 0
1, 40865, Note_on_c, 1, 43, 0
1, 40865, Note_on_c, 1, 31, 0
1, 40895, Note_on_c, 9, 42, 95
1, 40895, Note_on_c, 0, 66, 87
1, 40895, Note_on_c, 0, 74, 83
1, 40895, Note_on_c, 0, 71, 81
1, 40895, Note_on_c, 0, 67, 82
1, 40896, Note_on_c, 9, 42, 0
1, 40896, Note_on_c, 1, 33, 112
1, 40896, Note_on_c, 1, 45, 117
1, 40896, Note_on_c, 9, 36, 110
1, 40897, Note_on_c, 9, 36, 0
1, 40943, Note_on_c, 9, 42, 39
1, 40944, Note_on_c, 9, 42, 0
1, 40944, Note_on_c, 10, 67, 102
1, 40945, Note_on_c, 6, 79, 127
1, 40973, Note_on_c, 0, 71, 0
1, 40973, Note_on_c, 0, 74, 0
1, 40974, Note_on_c, 0, 67, 0
1, 40974, Note_on_c, 0, 66, 0
1, 40976, Note_on_c, 1, 33, 0
1, 40979, Note_on_c, 6, 79, 0
1, 40980, Note_on_c, 10, 67, 0
1, 40982, Note_on_c, 1, 45, 0
1, 40991, Note_on_c, 1, 31, 100
1, 40991, Note_on_c, 1, 43, 112
1, 40991, Note_on_c, 9, 42, 110
1, 40992, Note_on_c, 9, 42, 0
1, 40992, Note_on_c, 0, 67, 79
1, 40992, Note_on_c, 0, 74, 81
1, 40992, Note_on_c, 9, 36, 110
1, 40992, Note_on_c, 9, 39, 110
1, 40992, Note_on_c, 9, 60, 77
1, 40992, Note_on_c, 0, 71, 81
1, 40992, Note_on_c, 9, 40, 110
1, 40993, Note_on_c, 9, 40, 0
1, 40993, Note_on_c, 9, 60, 0
1, 40993, Note_on_c, 9, 39, 0
1, 40993, Note_on_c, 9, 36, 0
1, 40993, Note_on_c, 0, 66, 87
1, 41040, Note_on_c, 10, 69, 104
1, 41041, Note_on_c, 9, 42, 42
1, 41041, Note_on_c, 6, 81, 117
1, 41042, Note_on_c, 9, 42, 0
1, 41052, Note_on_c, 0, 66, 0
1, 41058, Note_on_c, 0, 67, 0
1, 41059, Note_on_c, 0, 71, 0
1, 41060, Note_on_c, 0, 74, 0
1, 41068, Note_on_c, 1, 31, 0
1, 41070, Note_on_c, 1, 43, 0
1, 41077, Note_on_c, 10, 69, 0
1, 41080, Control_c, 10, 11, 64
1, 41082, Note_on_c, 6, 81, 0
1, 41088, Note_on_c, 9, 42, 96
1, 41088, Note_on_c, 9, 36, 110
1, 41088, Note_on_c, 6, 81, 126
1, 41088, Control_c, 10, 11, 65
1, 41088, Note_on_c, 10, 69, 102
1, 41089, Note_on_c, 9, 36, 0
1, 41089, Note_on_c, 9, 42, 0
1, 41089, Note_on_c, 1, 42, 99
1, 41089, Note_on_c, 1, 30, 97
1, 41089, Note_on_c, 0, 73, 71
1, 41089, Note_on_c, 0, 76, 83
1, 41089, Note_on_c, 0, 69, 75
1, 41096, Control_c, 10, 11, 66
1, 41100, Control_c, 10, 11, 67
1, 41108, Control_c, 10, 11, 68
1, 41112, Control_c, 10, 11, 69
1, 41120, Control_c, 10, 11, 70
1, 41124, Control_c, 10, 11, 71
1, 41132, Control_c, 10, 11, 72
1, 41135, Note_on_c, 9, 42, 37
1, 41136, Note_on_c, 9, 42, 0
1, 41136, Control_c, 10, 11, 73
1, 41144, Control_c, 10, 11, 74
1, 41148, Control_c, 10, 11, 75
1, 41156, Control_c, 10, 11, 76
1, 41164, Control_c, 10, 11, 77
1, 41168, Control_c, 10, 11, 78
1, 41176, Control_c, 10, 11, 79
1, 41180, Control_c, 10, 11, 80
1, 41183, Note_on_c, 9, 42, 110
1, 41184, Note_on_c, 9, 42, 0
1, 41184, Note_on_c, 9, 40, 95
1, 41184, Note_on_c, 9, 60, 77
1, 41184, Note_on_c, 9, 39, 110
1, 41185, Note_on_c, 9, 39, 0
1, 41185, Note_on_c, 9, 60, 0
1, 41185, Note_on_c, 9, 40, 0
1, 41188, Control_c, 10, 11, 81
1, 41189, Note_on_c, 0, 76, 0
1, 41192, Note_on_c, 0, 73, 0
1, 41192, Note_on_c, 0, 69, 0
1, 41192, Control_c, 10, 11, 82
1, 41196, Note_on_c, 1, 30, 0
1, 41199, Note_on_c, 1, 42, 0
1, 41200, Control_c, 10, 11, 83
1, 41204, Control_c, 10, 11, 84
1, 41212, Control_c, 10, 11, 85
1, 41216, Control_c, 10, 11, 86
1, 41224, Control_c, 10, 11, 87
1, 41228, Control_c, 10, 11, 88
1, 41231, Note_on_c, 0, 78, 73
1, 41231, Note_on_c, 0, 69, 78
1, 41231, Note_on_c, 0, 74, 82
1, 41232, Note_on_c, 1, 47, 110
1, 41232, Note_on_c, 9, 42, 44
1, 41232, Note_on_c, 1, 35, 98
1, 41232, Note_on_c, 9, 36, 91
1, 41233, Note_on_c, 9, 36, 0
1, 41233, Note_on_c, 9, 42, 0
1, 41236, Control_c, 10, 11, 89
1, 41244, Control_c, 10, 11, 90
1, 41248, Control_c, 10, 11, 91
1, 41256, Control_c, 10, 11, 92
1, 41260, Control_c, 10, 11, 93
1, 41268, Control_c, 10, 11, 94
1, 41272, Control_c, 10, 11, 95
1, 41279, Note_on_c, 9, 42, 95
1, 41280, Note_on_c, 9, 42, 0
1, 41280, Note_on_c, 9, 36, 110
1, 41280, Control_c, 10, 11, 96
1, 41281, Note_on_c, 9, 36, 0
1, 41284, Control_c, 10, 11, 97
1, 41292, Control_c, 10, 11, 98
1, 41296, Control_c, 10, 11, 99
1, 41304, Control_c, 10, 11, 100
1, 41306, Note_on_c, 0, 78, 0
1, 41306, Note_on_c, 0, 74, 0
1, 41308, Control_c, 10, 11, 101
1, 41316, Control_c, 10, 11, 102
1, 41318, Note_on_c, 0, 69, 0
1, 41320, Note_on_c, 1, 47, 0
1, 41324, Control_c, 10, 11, 103
1, 41326, Note_on_c, 1, 35, 0
1, 41327, Note_on_c, 9, 42, 39
1, 41327, Note_on_c, 1, 45, 97
1, 41327, Note_on_c, 1, 33, 100
1, 41328, Note_on_c, 9, 42, 0
1, 41328, Control_c, 10, 11, 104
1, 41329, Note_on_c, 0, 76, 68
1, 41329, Note_on_c, 0, 69, 66
1, 41329, Note_on_c, 0, 73, 75
1, 41336, Control_c, 10, 11, 105
1, 41340, Note_on_c, 0, 76, 0
1, 41340, Control_c, 10, 11, 106
1, 41341, Note_on_c, 0, 69, 0
1, 41343, Note_on_c, 1, 45, 0
1, 41344, Note_on_c, 1, 33, 0
1, 41344, Note_on_c, 0, 73, 0
1, 41348, Control_c, 10, 11, 107
1, 41352, Control_c, 10, 11, 108
1, 41360, Control_c, 10, 11, 109
1, 41364, Control_c, 10, 11, 110
1, 41372, Control_c, 10, 11, 111
1, 41375, Note_on_c, 9, 42, 110
1, 41375, Note_on_c, 1, 35, 97
1, 41376, Note_on_c, 9, 42, 0
1, 41376, Note_on_c, 1, 47, 120
1, 41376, Note_on_c, 9, 40, 110
1, 41376, Note_on_c, 9, 60, 77
1, 41376, Note_on_c, 9, 39, 110
1, 41376, Control_c, 10, 11, 112
1, 41376, Note_on_c, 9, 36, 110
1, 41377, Note_on_c, 9, 36, 0
1, 41377, Note_on_c, 9, 39, 0
1, 41377, Note_on_c, 9, 40, 0
1, 41377, Note_on_c, 9, 60, 0
1, 41377, Note_on_c, 0, 74, 91
1, 41377, Note_on_c, 0, 78, 71
1, 41377, Note_on_c, 0, 69, 84
1, 41384, Control_c, 10, 11, 113
1, 41388, Control_c, 10, 11, 114
1, 41396, Control_c, 10, 11, 115
1, 41404, Control_c, 10, 11, 116
1, 41408, Control_c, 10, 11, 117
1, 41416, Control_c, 10, 11, 118
1, 41420, Control_c, 10, 11, 119
1, 41425, Note_on_c, 9, 42, 42
1, 41426, Note_on_c, 9, 42, 0
1, 41428, Control_c, 10, 11, 120
1, 41432, Control_c, 10, 11, 121
1, 41435, Note_on_c, 0, 78, 0
1, 41440, Control_c, 10, 11, 122
1, 41441, Note_on_c, 0, 74, 0
1, 41444, Note_on_c, 0, 69, 0
1, 41444, Control_c, 10, 11, 123
1, 41452, Control_c, 10, 11, 124
1, 41456, Control_c, 10, 11, 125
1, 41460, Note_on_c, 6, 81, 0
1, 41462, Note_on_c, 1, 35, 0
1, 41462, Note_on_c, 10, 69, 0
1, 41462, Note_on_c, 1, 47, 0
1, 41464, Control_c, 10, 11, 126
1, 41468, Control_c, 10, 11, 127
1, 41472, Note_on_c, 9, 42, 96
1, 41472, Note_on_c, 0, 66, 96
1, 41472, Note_on_c, 1, 28, 104
1, 41472, Note_on_c, 9, 36, 110
1, 41473, Note_on_c, 9, 36, 0
1, 41473, Note_on_c, 9, 42, 0
1, 41473, Note_on_c, 0, 67, 81
1, 41473, Note_on_c, 1, 40, 110
1, 41473, Note_on_c, 9, 43, 86
1, 41473, Note_on_c, 0, 74, 82
1, 41473, Note_on_c, 0, 71, 81
1, 41474, Note_on_c, 9, 43, 0
1, 41519, Note_on_c, 9, 42, 37
1, 41520, Note_on_c, 9, 42, 0
1, 41567, Note_on_c, 9, 42, 110
1, 41568, Note_on_c, 9, 42, 0
1, 41568, Note_on_c, 9, 60, 77
1, 41568, Note_on_c, 9, 39, 110
1, 41568, Note_on_c, 9, 40, 95
1, 41569, Note_on_c, 9, 40, 0
1, 41569, Note_on_c, 9, 39, 0
1, 41569, Note_on_c, 9, 60, 0
1, 41584, Note_on_c, 1, 28, 0
1, 41586, Note_on_c, 0, 66, 0
1, 41588, Note_on_c, 1, 40, 0
1, 41591, Note_on_c, 0, 71, 0
1, 41592, Note_on_c, 0, 74, 0
1, 41593, Note_on_c, 0, 67, 0
1, 41615, Note_on_c, 0, 67, 69
1, 41615, Note_on_c, 0, 74, 76
1, 41615, Note_on_c, 1, 43, 100
1, 41615, Note_on_c, 0, 66, 78
1, 41615, Note_on_c, 1, 31, 114
1, 41615, Note_on_c, 0, 71, 78
1, 41616, Note_on_c, 9, 36, 91
1, 41616, Note_on_c, 9, 42, 44
1, 41617, Note_on_c, 9, 42, 0
1, 41617, Note_on_c, 9, 36, 0
1, 41624, Note_on_c, 0, 67, 0
1, 41624, Note_on_c, 0, 74, 0
1, 41626, Note_on_c, 0, 71, 0
1, 41627, Note_on_c, 0, 66, 0
1, 41633, Note_on_c, 1, 43, 0
1, 41633, Note_on_c, 1, 31, 0
1, 41663, Note_on_c, 1, 33, 112
1, 41663, Note_on_c, 0, 66, 87
1, 41663, Note_on_c, 1, 45, 117
1, 41663, Note_on_c, 0, 71, 81
1, 41663, Note_on_c, 0, 74, 83
1, 41663, Note_on_c, 6, 83, 117
1, 41663, Note_on_c, 9, 42, 95
1, 41663, Note_on_c, 0, 67, 82
1, 41664, Note_on_c, 9, 42, 0
1, 41664, Note_on_c, 9, 36, 110
1, 41665, Note_on_c, 9, 36, 0
1, 41710, Note_on_c, 6, 83, 0
1, 41711, Note_on_c, 9, 42, 39
1, 41712, Note_on_c, 9, 42, 0
1, 41713, Note_on_c, 6, 81, 97
1, 41729, Note_on_c, 6, 81, 0
1, 41741, Note_on_c, 0, 71, 0
1, 41741, Note_on_c, 0, 74, 0
1, 41742, Note_on_c, 0, 66, 0
1, 41742, Note_on_c, 0, 67, 0
1, 41743, Note_on_c, 1, 33, 0
1, 41749, Note_on_c, 1, 45, 0
1, 41759, Note_on_c, 9, 42, 110
1, 41760, Note_on_c, 9, 42, 0
1, 41760, Note_on_c, 0, 71, 81
1, 41760, Note_on_c, 0, 67, 79
1, 41760, Note_on_c, 0, 74, 81
1, 41760, Note_on_c, 1, 31, 100
1, 41760, Note_on_c, 1, 43, 112
1, 41760, Note_on_c, 9, 40, 110
1, 41760, Note_on_c, 9, 39, 110
1, 41760, Note_on_c, 9, 60, 77
1, 41760, Note_on_c, 9, 36, 110
1, 41761, Note_on_c, 9, 36, 0
1, 41761, Note_on_c, 9, 60, 0
1, 41761, Note_on_c, 9, 39, 0
1, 41761, Note_on_c, 9, 40, 0
1, 41761, Note_on_c, 6, 78, 114
1, 41761, Note_on_c, 0, 66, 87
1, 41808, Note_on_c, 6, 78, 0
1, 41809, Note_on_c, 9, 42, 42
1, 41809, Note_on_c, 6, 74, 86
1, 41810, Note_on_c, 9, 42, 0
1, 41820, Note_on_c, 0, 66, 0
1, 41826, Note_on_c, 0, 67, 0
1, 41827, Note_on_c, 6, 74, 0
1, 41827, Note_on_c, 0, 71, 0
1, 41828, Note_on_c, 0, 74, 0
1, 41837, Note_on_c, 1, 31, 0
1, 41839, Note_on_c, 1, 43, 0
1, 41855, Note_on_c, 10, 64, 87
1, 41855, Note_on_c, 10, 57, 73
1, 41855, Note_on_c, 10, 61, 87
1, 41856, Note_on_c, 9, 36, 110
1, 41856, Note_on_c, 9, 42, 96
1, 41856, Note_on_c, 6, 76, 119
1, 41857, Note_on_c, 9, 42, 0
1, 41857, Note_on_c, 9, 36, 0
1, 41857, Note_on_c, 0, 69, 75
1, 41857, Note_on_c, 0, 76, 83
1, 41857, Note_on_c, 0, 73, 71
1, 41857, Note_on_c, 1, 30, 97
1, 41857, Note_on_c, 1, 42, 99
1, 41903, Note_on_c, 9, 42, 37
1, 41904, Note_on_c, 9, 42, 0
1, 41951, Note_on_c, 9, 42, 110
1, 41952, Note_on_c, 9, 42, 0
1, 41952, Note_on_c, 9, 60, 77
1, 41952, Note_on_c, 9, 39, 110
1, 41952, Note_on_c, 9, 40, 95
1, 41953, Note_on_c, 9, 40, 0
1, 41953, Note_on_c, 9, 60, 0
1, 41953, Note_on_c, 9, 39, 0
1, 41957, Note_on_c, 0, 76, 0
1, 41960, Note_on_c, 0, 73, 0
1, 41960, Note_on_c, 0, 69, 0
1, 41964, Note_on_c, 1, 30, 0
1, 41967, Note_on_c, 1, 42, 0
1, 41979, Note_on_c, 10, 64, 0
1, 41981, Note_on_c, 10, 57, 0
1, 41982, Note_on_c, 10, 61, 0
1, 41994, Note_on_c, 6, 76, 0
1, 41999, Note_on_c, 0, 74, 82
1, 41999, Note_on_c, 0, 69, 78
1, 41999, Note_on_c, 6, 74, 112
1, 41999, Note_on_c, 0, 78, 73
1, 42000, Note_on_c, 9, 42, 44
1, 42000, Note_on_c, 10, 62, 100
1, 42000, Note_on_c, 9, 36, 91
1, 42000, Note_on_c, 1, 35, 98
1, 42000, Note_on_c, 1, 47, 110
1, 42000, Note_on_c, 10, 66, 104
1, 42000, Note_on_c, 10, 57, 91
1, 42001, Note_on_c, 9, 36, 0
1, 42001, Note_on_c, 9, 42, 0
1, 42021, Note_on_c, 10, 66, 0
1, 42023, Note_on_c, 6, 74, 0
1, 42025, Note_on_c, 10, 57, 0
1, 42025, Note_on_c, 10, 62, 0
1, 42047, Note_on_c, 9, 42, 95
1, 42048, Note_on_c, 9, 42, 0
1, 42048, Note_on_c, 9, 36, 110
1, 42049, Note_on_c, 9, 36, 0
1, 42074, Note_on_c, 0, 78, 0
1, 42074, Note_on_c, 0, 74, 0
1, 42086, Note_on_c, 0, 69, 0
1, 42088, Note_on_c, 1, 47, 0
1, 42094, Note_on_c, 1, 35, 0
1, 42095, Note_on_c, 1, 33, 100
1, 42095, Note_on_c, 9, 42, 39
1, 42095, Note_on_c, 1, 45, 97
1, 42096, Note_on_c, 9, 42, 0
1, 42097, Note_on_c, 6, 78, 104
1, 42097, Note_on_c, 0, 73, 75
1, 42097, Note_on_c, 0, 69, 66
1, 42097, Note_on_c, 0, 76, 68
1, 42108, Note_on_c, 0, 76, 0
1, 42109, Note_on_c, 0, 69, 0
1, 42111, Note_on_c, 1, 45, 0
1, 42112, Note_on_c, 1, 33, 0
1, 42112, Note_on_c, 0, 73, 0
1, 42120, Note_on_c, 6, 78, 0
1, 42143, Note_on_c, 1, 35, 97
1, 42143, Note_on_c, 9, 42, 110
1, 42144, Note_on_c, 9, 42, 0
1, 42144, Note_on_c, 9, 39, 110
1, 42144, Note_on_c, 9, 60, 77
1, 42144, Note_on_c, 9, 36, 110
1, 42144, Note_on_c, 1, 47, 120
1, 42144, Note_on_c, 9, 40, 110
1, 42145, Note_on_c, 9, 40, 0
1, 42145, Note_on_c, 9, 39, 0
1, 42145, Note_on_c, 9, 60, 0
1, 42145, Note_on_c, 9, 36, 0
1, 42145, Note_on_c, 0, 78, 71
1, 42145, Note_on_c, 0, 74, 91
1, 42145, Note_on_c, 6, 81, 112
1, 42145, Note_on_c, 0, 69, 84
1, 42192, Note_on_c, 6, 81, 0
1, 42193, Note_on_c, 9, 42, 42
1, 42193, Note_on_c, 6, 83, 119
1, 42194, Note_on_c, 9, 42, 0
1, 42203, Note_on_c, 0, 78, 0
1, 42209, Note_on_c, 0, 74, 0
1, 42211, Note_on_c, 6, 83, 0
1, 42212, Note_on_c, 0, 69, 0
1, 42230, Note_on_c, 1, 35, 0
1, 42230, Note_on_c, 1, 47, 0
1, 42240, Note_on_c, 1, 28, 104
1, 42240, Note_on_c, 0, 66, 96
1, 42240, Note_on_c, 9, 42, 96
1, 42240, Note_on_c, 9, 36, 110
1, 42240, Note_on_c, 10, 76, 127
1, 42240, Note_on_c, 6, 83, 127
1, 42241, Note_on_c, 9, 36, 0
1, 42241, Note_on_c, 9, 42, 0
1, 42241, Note_on_c, 1, 40, 110
1, 42241, Note_on_c, 0, 67, 81
1, 42241, Note_on_c, 9, 43, 84
1, 42241, Note_on_c, 0, 71, 81
1, 42241, Note_on_c, 0, 74, 82
1, 42242, Note_on_c, 9, 43, 0
1, 42276, Note_on_c, 6, 82, 105
1, 42284, Note_on_c, 6, 83, 0
1, 42284, Note_on_c, 10, 75, 112
1, 42284, Note_on_c, 6, 81, 101
1, 42287, Note_on_c, 10, 76, 0
1, 42287, Note_on_c, 9, 42, 37
1, 42288, Note_on_c, 9, 42, 0
1, 42289, Note_on_c, 6, 80, 96
1, 42292, Note_on_c, 6, 82, 0
1, 42292, Note_on_c, 10, 74, 106
1, 42295, Note_on_c, 6, 81, 0
1, 42296, Note_on_c, 6, 79, 89
1, 42296, Note_on_c, 10, 73, 103
1, 42298, Note_on_c, 10, 75, 0
1, 42301, Note_on_c, 6, 80, 0
1, 42301, Note_on_c, 6, 78, 81
1, 42304, Note_on_c, 6, 79, 0
1, 42304, Note_on_c, 10, 74, 0
1, 42304, Note_on_c, 10, 72, 99
1, 42307, Note_on_c, 10, 73, 0
1, 42307, Note_on_c, 6, 78, 0
1, 42307, Note_on_c, 6, 77, 78
1, 42311, Note_on_c, 6, 77, 0
1, 42311, Note_on_c, 6, 76, 76
1, 42312, Note_on_c, 10, 71, 93
1, 42313, Note_on_c, 10, 72, 0
1, 42316, Note_on_c, 6, 76, 0
1, 42316, Note_on_c, 10, 70, 90
1, 42318, Note_on_c, 10, 71, 0
1, 42318, Note_on_c, 6, 75, 76
1, 42323, Note_on_c, 6, 75, 0
1, 42323, Note_on_c, 10, 70, 0
1, 42325, Note_on_c, 10, 69, 86
1, 42332, Note_on_c, 10, 69, 0
1, 42335, Note_on_c, 9, 42, 110
1, 42336, Note_on_c, 9, 42, 0
1, 42336, Note_on_c, 9, 40, 95
1, 42336, Note_on_c, 9, 39, 110
1, 42336, Note_on_c, 9, 60, 77
1, 42337, Note_on_c, 9, 60, 0
1, 42337, Note_on_c, 9, 39, 0
1, 42337, Note_on_c, 9, 40, 0
1, 42352, Note_on_c, 1, 28, 0
1, 42354, Note_on_c, 0, 66, 0
1, 42356, Note_on_c, 1, 40, 0
1, 42359, Note_on_c, 0, 71, 0
1, 42360, Note_on_c, 0, 74, 0
1, 42361, Note_on_c, 0, 67, 0
1, 42383, Note_on_c, 0, 71, 78
1, 42383, Note_on_c, 0, 67, 69
1, 42383, Note_on_c, 1, 43, 100
1, 42383, Note_on_c, 0, 74, 76
1, 42383, Note_on_c, 1, 31, 114
1, 42383, Note_on_c, 0, 66, 78
1, 42384, Note_on_c, 9, 36, 91
1, 42384, Note_on_c, 9, 42, 44
1, 42385, Note_on_c, 9, 42, 0
1, 42385, Note_on_c, 9, 36, 0
1, 42392, Note_on_c, 0, 67, 0
1, 42392, Note_on_c, 0, 74, 0
1, 42394, Note_on_c, 0, 71, 0
1, 42395, Note_on_c, 0, 66, 0
1, 42401, Note_on_c, 1, 43, 0
1, 42401, Note_on_c, 1, 31, 0
1, 42431, Note_on_c, 1, 33, 112
1, 42431, Note_on_c, 1, 45, 117
1, 42431, Note_on_c, 0, 67, 82
1, 42431, Note_on_c, 0, 66, 87
1, 42431, Note_on_c, 9, 42, 95
1, 42431, Note_on_c, 0, 74, 83
1, 42431, Note_on_c, 0, 71, 81
1, 42432, Note_on_c, 9, 42, 0
1, 42432, Note_on_c, 9, 36, 110
1, 42433, Note_on_c, 9, 36, 0
1, 42479, Note_on_c, 9, 42, 39
1, 42480, Note_on_c, 9, 42, 0
1, 42480, Note_on_c, 10, 67, 102
1, 42481, Note_on_c, 6, 79, 127
1, 42509, Note_on_c, 0, 74, 0
1, 42509, Note_on_c, 0, 71, 0
1, 42510, Note_on_c, 0, 66, 0
1, 42510, Note_on_c, 0, 67, 0
1, 42511, Note_on_c, 1, 33, 0
1, 42515, Note_on_c, 6, 79, 0
1, 42516, Note_on_c, 10, 67, 0
1, 42517, Note_on_c, 1, 45, 0
1, 42527, Note_on_c, 1, 43, 112
1, 42527, Note_on_c, 9, 42, 110
1, 42527, Note_on_c, 1, 31, 100
1, 42528, Note_on_c, 9, 42, 0
1, 42528, Note_on_c, 9, 60, 77
1, 42528, Note_on_c, 0, 71, 81
1, 42528, Note_on_c, 0, 67, 79
1, 42528, Note_on_c, 9, 39, 110
1, 42528, Note_on_c, 0, 74, 81
1, 42528, Note_on_c, 9, 40, 110
1, 42528, Note_on_c, 9, 36, 110
1, 42529, Note_on_c, 9, 36, 0
1, 42529, Note_on_c, 9, 40, 0
1, 42529, Note_on_c, 9, 39, 0
1, 42529, Note_on_c, 9, 60, 0
1, 42529, Note_on_c, 0, 66, 87
1, 42576, Note_on_c, 10, 69, 104
1, 42577, Note_on_c, 9, 42, 42
1, 42577, Note_on_c, 6, 81, 117
1, 42578, Note_on_c, 9, 42, 0
1, 42588, Note_on_c, 0, 66, 0
1, 42594, Note_on_c, 0, 67, 0
1, 42595, Note_on_c, 0, 71, 0
1, 42596, Note_on_c, 0, 74, 0
1, 42604, Note_on_c, 1, 31, 0
1, 42606, Note_on_c, 1, 43, 0
1, 42613, Note_on_c, 10, 69, 0
1, 42616, Control_c, 10, 11, 64
1, 42618, Note_on_c, 6, 81, 0
1, 42624, Control_c, 10, 11, 65
1, 42624, Note_on_c, 6, 81, 126
1, 42624, Note_on_c, 9, 42, 96
1, 42624, Note_on_c, 10, 69, 120
1, 42624, Note_on_c, 9, 36, 110
1, 42625, Note_on_c, 9, 36, 0
1, 42625, Note_on_c, 9, 42, 0
1, 42625, Note_on_c, 0, 73, 71
1, 42625, Note_on_c, 0, 69, 75
1, 42625, Note_on_c, 1, 30, 97
1, 42625, Note_on_c, 1, 42, 99
1, 42625, Note_on_c, 0, 76, 83
1, 42632, Control_c, 10, 11, 66
1, 42636, Control_c, 10, 11, 67
1, 42644, Control_c, 10, 11, 68
1, 42648, Control_c, 10, 11, 69
1, 42656, Control_c, 10, 11, 70
1, 42660, Control_c, 10, 11, 71
1, 42668, Control_c, 10, 11, 72
1, 42671, Note_on_c, 9, 42, 37
1, 42672, Note_on_c, 9, 42, 0
1, 42672, Control_c, 10, 11, 73
1, 42680, Control_c, 10, 11, 74
1, 42684, Control_c, 10, 11, 75
1, 42692, Control_c, 10, 11, 76
1, 42700, Control_c, 10, 11, 77
1, 42704, Control_c, 10, 11, 78
1, 42712, Control_c, 10, 11, 79
1, 42716, Control_c, 10, 11, 80
1, 42719, Note_on_c, 9, 42, 110
1, 42720, Note_on_c, 9, 42, 0
1, 42720, Note_on_c, 9, 39, 110
1, 42720, Note_on_c, 9, 60, 77
1, 42720, Note_on_c, 9, 40, 95
1, 42721, Note_on_c, 9, 40, 0
1, 42721, Note_on_c, 9, 60, 0
1, 42721, Note_on_c, 9, 39, 0
1, 42724, Control_c, 10, 11, 81
1, 42725, Note_on_c, 0, 76, 0
1, 42728, Note_on_c, 0, 73, 0
1, 42728, Note_on_c, 0, 69, 0
1, 42728, Control_c, 10, 11, 82
1, 42732, Note_on_c, 1, 30, 0
1, 42735, Note_on_c, 1, 42, 0
1, 42736, Control_c, 10, 11, 83
1, 42740, Control_c, 10, 11, 84
1, 42748, Control_c, 10, 11, 85
1, 42752, Control_c, 10, 11, 86
1, 42760, Control_c, 10, 11, 87
1, 42764, Control_c, 10, 11, 88
1, 42767, Note_on_c, 0, 74, 82
1, 42767, Note_on_c, 0, 78, 73
1, 42767, Note_on_c, 0, 69, 78
1, 42768, Note_on_c, 1, 35, 98
1, 42768, Note_on_c, 1, 47, 110
1, 42768, Note_on_c, 9, 36, 91
1, 42768, Note_on_c, 9, 42, 44
1, 42769, Note_on_c, 9, 42, 0
1, 42769, Note_on_c, 9, 36, 0
1, 42772, Control_c, 10, 11, 89
1, 42780, Control_c, 10, 11, 90
1, 42784, Control_c, 10, 11, 91
1, 42792, Control_c, 10, 11, 92
1, 42796, Control_c, 10, 11, 93
1, 42804, Control_c, 10, 11, 94
1, 42808, Control_c, 10, 11, 95
1, 42815, Note_on_c, 9, 42, 95
1, 42816, Note_on_c, 9, 42, 0
1, 42816, Control_c, 10, 11, 96
1, 42816, Note_on_c, 9, 36, 110
1, 42817, Note_on_c, 9, 36, 0
1, 42820, Control_c, 10, 11, 97
1, 42828, Control_c, 10, 11, 98
1, 42832, Control_c, 10, 11, 99
1, 42840, Control_c, 10, 11, 100
1, 42842, Note_on_c, 0, 74, 0
1, 42842, Note_on_c, 0, 78, 0
1, 42844, Control_c, 10, 11, 101
1, 42852, Control_c, 10, 11, 102
1, 42854, Note_on_c, 0, 69, 0
1, 42856, Note_on_c, 1, 47, 0
1, 42860, Control_c, 10, 11, 103
1, 42862, Note_on_c, 1, 35, 0
1, 42863, Note_on_c, 9, 42, 39
1, 42863, Note_on_c, 1, 33, 100
1, 42863, Note_on_c, 1, 45, 97
1, 42864, Note_on_c, 9, 42, 0
1, 42864, Control_c, 10, 11, 104
1, 42865, Note_on_c, 0, 73, 75
1, 42865, Note_on_c, 0, 76, 68
1, 42865, Note_on_c, 0, 69, 66
1, 42872, Control_c, 10, 11, 105
1, 42876, Note_on_c, 0, 76, 0
1, 42876, Control_c, 10, 11, 106
1, 42877, Note_on_c, 0, 69, 0
1, 42879, Note_on_c, 1, 45, 0
1, 42880, Note_on_c, 1, 33, 0
1, 42880, Note_on_c, 0, 73, 0
1, 42884, Control_c, 10, 11, 107
1, 42888, Control_c, 10, 11, 108
1, 42896, Control_c, 10, 11, 109
1, 42900, Control_c, 10, 11, 110
1, 42908, Control_c, 10, 11, 111
1, 42911, Note_on_c, 1, 35, 97
1, 42911, Note_on_c, 9, 42, 110
1, 42912, Note_on_c, 9, 42, 0
1, 42912, Note_on_c, 9, 36, 110
1, 42912, Note_on_c, 9, 40, 110
1, 42912, Note_on_c, 9, 39, 110
1, 42912, Control_c, 10, 11, 112
1, 42912, Note_on_c, 1, 47, 120
1, 42912, Note_on_c, 9, 60, 77
1, 42913, Note_on_c, 9, 60, 0
1, 42913, Note_on_c, 9, 39, 0
1, 42913, Note_on_c, 9, 36, 0
1, 42913, Note_on_c, 9, 40, 0
1, 42913, Note_on_c, 0, 78, 71
1, 42913, Note_on_c, 0, 74, 91
1, 42913, Note_on_c, 0, 69, 84
1, 42920, Control_c, 10, 11, 113
1, 42924, Control_c, 10, 11, 114
1, 42932, Control_c, 10, 11, 115
1, 42940, Control_c, 10, 11, 116
1, 42944, Control_c, 10, 11, 117
1, 42952, Control_c, 10, 11, 118
1, 42956, Control_c, 10, 11, 119
1, 42961, Note_on_c, 9, 42, 42
1, 42962, Note_on_c, 9, 42, 0
1, 42964, Control_c, 10, 11, 120
1, 42968, Control_c, 10, 11, 121
1, 42971, Note_on_c, 0, 78, 0
1, 42976, Control_c, 10, 11, 122
1, 42977, Note_on_c, 0, 74, 0
1, 42980, Note_on_c, 0, 69, 0
1, 42980, Control_c, 10, 11, 123
1, 42988, Control_c, 10, 11, 124
1, 42992, Control_c, 10, 11, 125
1, 42996, Note_on_c, 6, 81, 0
1, 42998, Note_on_c, 10, 69, 0
1, 42998, Note_on_c, 1, 35, 0
1, 42998, Note_on_c, 1, 47, 0
1, 43000, Control_c, 10, 11, 126
1, 43004, Control_c, 10, 11, 127
1, 43008, Note_on_c, 1, 28, 104
1, 43008, Note_on_c, 9, 36, 110
1, 43008, Note_on_c, 9, 42, 96
1, 43008, Note_on_c, 0, 66, 96
1, 43009, Note_on_c, 9, 42, 0
1, 43009, Note_on_c, 9, 36, 0
1, 43009, Note_on_c, 1, 40, 110
1, 43009, Note_on_c, 0, 67, 81
1, 43009, Note_on_c, 0, 71, 81
1, 43009, Note_on_c, 9, 43, 86
1, 43009, Note_on_c, 0, 74, 82
1, 43010, Note_on_c, 9, 43, 0
1, 43055, Note_on_c, 9, 42, 37
1, 43056, Note_on_c, 9, 42, 0
1, 43103, Note_on_c, 9, 42, 110
1, 43104, Note_on_c, 9, 42, 0
1, 43104, Note_on_c, 9, 60, 77
1, 43104, Note_on_c, 9, 40, 95
1, 43104, Note_on_c, 9, 39, 110
1, 43105, Note_on_c, 9, 39, 0
1, 43105, Note_on_c, 9, 40, 0
1, 43105, Note_on_c, 9, 60, 0
1, 43120, Note_on_c, 1, 28, 0
1, 43122, Note_on_c, 0, 66, 0
1, 43124, Note_on_c, 1, 40, 0
1, 43127, Note_on_c, 0, 71, 0
1, 43128, Note_on_c, 0, 74, 0
1, 43129, Note_on_c, 0, 67, 0
1, 43151, Note_on_c, 0, 67, 69
1, 43151, Note_on_c, 1, 31, 114
1, 43151, Note_on_c, 0, 74, 76
1, 43151, Note_on_c, 0, 71, 78
1, 43151, Note_on_c, 1, 43, 100
1, 43151, Note_on_c, 0, 66, 78
1, 43152, Note_on_c, 9, 36, 91
1, 43152, Note_on_c, 9, 42, 44
1, 43153, Note_on_c, 9, 42, 0
1, 43153, Note_on_c, 9, 36, 0
1, 43160, Note_on_c, 0, 67, 0
1, 43160, Note_on_c, 0, 74, 0
1, 43162, Note_on_c, 0, 71, 0
1, 43163, Note_on_c, 0, 66, 0
1, 43169, Note_on_c, 1, 31, 0
1, 43169, Note_on_c, 1, 43, 0
1, 43199, Note_on_c, 0, 66, 87
1, 43199, Note_on_c, 0, 74, 83
1, 43199, Note_on_c, 6, 83, 117
1, 43199, Note_on_c, 1, 33, 112
1, 43199, Note_on_c, 9, 42, 95
1, 43199, Note_on_c, 0, 67, 82
1, 43199, Note_on_c, 1, 45, 117
1, 43199, Note_on_c, 0, 71, 81
1, 43200, Note_on_c, 9, 42, 0
1, 43200, Note_on_c, 9, 36, 110
1, 43201, Note_on_c, 9, 36, 0
1, 43246, Note_on_c, 6, 83, 0
1, 43247, Note_on_c, 9, 42, 39
1, 43248, Note_on_c, 9, 42, 0
1, 43249, Note_on_c, 6, 81, 97
1, 43265, Note_on_c, 6, 81, 0
1, 43277, Note_on_c, 0, 71, 0
1, 43277, Note_on_c, 0, 74, 0
1, 43278, Note_on_c, 0, 66, 0
1, 43278, Note_on_c, 0, 67, 0
1, 43279, Note_on_c, 1, 33, 0
1, 43285, Note_on_c, 1, 45, 0
1, 43295, Note_on_c, 1, 31, 100
1, 43295, Note_on_c, 1, 43, 112
1, 43295, Note_on_c, 9, 42, 110
1, 43296, Note_on_c, 9, 42, 0
1, 43296, Note_on_c, 0, 71, 81
1, 43296, Note_on_c, 9, 39, 110
1, 43296, Note_on_c, 0, 67, 79
1, 43296, Note_on_c, 9, 36, 110
1, 43296, Note_on_c, 9, 60, 77
1, 43296, Note_on_c, 9, 40, 110
1, 43296, Note_on_c, 0, 74, 81
1, 43297, Note_on_c, 9, 40, 0
1, 43297, Note_on_c, 9, 60, 0
1, 43297, Note_on_c, 9, 36, 0
1, 43297, Note_on_c, 9, 39, 0
1, 43297, Note_on_c, 0, 66, 87
1, 43297, Note_on_c, 6, 78, 114
1, 43344, Note_on_c, 6, 78, 0
1, 43345, Note_on_c, 9, 42, 42
1, 43345, Note_on_c, 6, 74, 86
1, 43346, Note_on_c, 9, 42, 0
1, 43356, Note_on_c, 0, 66, 0
1, 43362, Note_on_c, 0, 67, 0
1, 43363, Note_on_c, 6, 74, 0
1, 43363, Note_on_c, 0, 71, 0
1, 43364, Note_on_c, 0, 74, 0
1, 43372, Note_on_c, 1, 31, 0
1, 43374, Note_on_c, 1, 43, 0
1, 43392, Note_on_c, 6, 76, 119
1, 43392, Note_on_c, 10, 61, 81
1, 43392, Note_on_c, 9, 36, 110
1, 43392, Note_on_c, 10, 57, 88
1, 43392, Note_on_c, 10, 64, 87
1, 43392, Note_on_c, 9, 42, 96
1, 43393, Note_on_c, 9, 42, 0
1, 43393, Note_on_c, 9, 36, 0
1, 43393, Note_on_c, 1, 42, 99
1, 43393, Note_on_c, 0, 73, 71
1, 43393, Note_on_c, 0, 76, 83
1, 43393, Note_on_c, 1, 30, 97
1, 43393, Note_on_c, 0, 69, 75
1, 43439, Note_on_c, 9, 42, 37
1, 43440, Note_on_c, 9, 42, 0
1, 43487, Note_on_c, 9, 42, 110
1, 43488, Note_on_c, 9, 42, 0
1, 43488, Note_on_c, 9, 39, 110
1, 43488, Note_on_c, 9, 60, 77
1, 43488, Note_on_c, 9, 40, 95
1, 43489, Note_on_c, 9, 40, 0
1, 43489, Note_on_c, 9, 39, 0
1, 43489, Note_on_c, 9, 60, 0
1, 43493, Note_on_c, 0, 76, 0
1, 43496, Note_on_c, 0, 69, 0
1, 43496, Note_on_c, 0, 73, 0
1, 43500, Note_on_c, 1, 30, 0
1, 43503, Note_on_c, 1, 42, 0
1, 43522, Note_on_c, 10, 64, 0
1, 43524, Note_on_c, 10, 57, 0
1, 43524, Note_on_c, 10, 61, 0
1, 43530, Note_on_c, 6, 76, 0
1, 43535, Note_on_c, 0, 78, 73
1, 43535, Note_on_c, 0, 69, 78
1, 43535, Note_on_c, 0, 74, 82
1, 43535, Note_on_c, 6, 74, 112
1, 43535, Note_on_c, 10, 62, 110
1, 43536, Note_on_c, 10, 66, 123
1, 43536, Note_on_c, 10, 57, 100
1, 43536, Note_on_c, 9, 42, 44
1, 43536, Note_on_c, 9, 36, 91
1, 43536, Note_on_c, 1, 35, 98
1, 43536, Note_on_c, 1, 47, 110
1, 43537, Note_on_c, 9, 36, 0
1, 43537, Note_on_c, 9, 42, 0
1, 43558, Note_on_c, 10, 62, 0
1, 43559, Note_on_c, 6, 74, 0
1, 43559, Note_on_c, 10, 57, 0
1, 43560, Note_on_c, 10, 66, 0
1, 43583, Note_on_c, 9, 42, 95
1, 43584, Note_on_c, 9, 42, 0
1, 43584, Note_on_c, 9, 36, 110
1, 43585, Note_on_c, 9, 36, 0
1, 43610, Note_on_c, 0, 74, 0
1, 43610, Note_on_c, 0, 78, 0
1, 43622, Note_on_c, 0, 69, 0
1, 43624, Note_on_c, 1, 47, 0
1, 43630, Note_on_c, 1, 35, 0
1, 43631, Note_on_c, 9, 42, 35
1, 43631, Note_on_c, 1, 33, 100
1, 43631, Note_on_c, 1, 45, 97
1, 43632, Note_on_c, 9, 42, 0
1, 43633, Note_on_c, 0, 73, 75
1, 43633, Note_on_c, 0, 69, 66
1, 43633, Note_on_c, 0, 76, 68
1, 43644, Note_on_c, 0, 76, 0
1, 43645, Note_on_c, 0, 69, 0
1, 43647, Note_on_c, 1, 45, 0
1, 43648, Note_on_c, 0, 73, 0
1, 43648, Note_on_c, 1, 33, 0
1, 43679, Note_on_c, 9, 42, 98
1, 43679, Note_on_c, 1, 35, 97
1, 43680, Note_on_c, 9, 42, 0
1, 43680, Note_on_c, 9, 36, 110
1, 43680, Note_on_c, 9, 60, 77
1, 43680, Note_on_c, 1, 47, 120
1, 43680, Note_on_c, 9, 39, 110
1, 43680, Note_on_c, 9, 40, 110
1, 43681, Note_on_c, 9, 40, 0
1, 43681, Note_on_c, 9, 36, 0
1, 43681, Note_on_c, 9, 60, 0
1, 43681, Note_on_c, 9, 39, 0
1, 43681, Note_on_c, 0, 69, 84
1, 43681, Note_on_c, 0, 78, 71
1, 43681, Note_on_c, 0, 74, 91
1, 43729, Note_on_c, 9, 42, 42
1, 43730, Note_on_c, 9, 42, 0
1, 43739, Note_on_c, 0, 78, 0
1, 43745, Note_on_c, 0, 74, 0
1, 43748, Note_on_c, 0, 69, 0
1, 43766, Note_on_c, 1, 35, 0
1, 43766, Note_on_c, 1, 47, 0
1, 43776, Note_on_c, 9, 43, 89
1, 43776, Note_on_c, 10, 57, 91
1, 43776, Note_on_c, 9, 42, 96
1, 43776, Note_on_c, 0, 66, 96
1, 43776, Note_on_c, 1, 28, 104
1, 43776, Note_on_c, 9, 36, 110
1, 43777, Note_on_c, 9, 36, 0
1, 43777, Note_on_c, 9, 43, 0
1, 43777, Note_on_c, 9, 42, 0
1, 43777, Note_on_c, 0, 74, 82
1, 43777, Note_on_c, 0, 67, 81
1, 43777, Note_on_c, 1, 40, 110
1, 43777, Note_on_c, 0, 71, 81
1, 43823, Note_on_c, 9, 42, 37
1, 43824, Note_on_c, 9, 42, 0
1, 43824, Note_on_c, 2, 59, 51
1, 43825, Note_on_c, 8, 57, 91
1, 43826, Note_on_c, 2, 62, 87
1, 43827, Note_on_c, 2, 74, 99
1, 43827, Note_on_c, 2, 67, 99
1, 43842, Note_on_c, 2, 74, 0
1, 43844, Note_on_c, 8, 57, 0
1, 43847, Note_on_c, 10, 57, 0
1, 43847, Note_on_c, 2, 67, 0
1, 43847, Note_on_c, 8, 57, 103
1, 43849, Note_on_c, 2, 62, 0
1, 43849, Note_on_c, 2, 67, 100
1, 43850, Note_on_c, 2, 74, 100
1, 43850, Note_on_c, 2, 62, 90
1, 43864, Note_on_c, 8, 57, 0
1, 43867, Note_on_c, 2, 74, 0
1, 43868, Note_on_c, 2, 67, 0
1, 43869, Note_on_c, 2, 62, 0
1, 43870, Note_on_c, 8, 57, 104
1, 43870, Note_on_c, 2, 67, 96
1, 43871, Note_on_c, 2, 74, 97
1, 43871, Note_on_c, 10, 59, 98
1, 43871, Note_on_c, 9, 42, 110
1, 43872, Note_on_c, 9, 42, 0
1, 43872, Note_on_c, 9, 60, 77
1, 43872, Note_on_c, 9, 40, 95
1, 43872, Note_on_c, 9, 39, 110
1, 43873, Note_on_c, 9, 39, 0
1, 43873, Note_on_c, 9, 40, 0
1, 43873, Note_on_c, 9, 60, 0
1, 43875, Note_on_c, 2, 74, 0
1, 43875, Note_on_c, 2, 59, 0
1, 43879, Note_on_c, 2, 67, 0
1, 43888, Note_on_c, 8, 57, 0
1, 43888, Note_on_c, 1, 28, 0
1, 43890, Note_on_c, 0, 66, 0
1, 43892, Note_on_c, 1, 40, 0
1, 43895, Note_on_c, 0, 71, 0
1, 43896, Note_on_c, 0, 74, 0
1, 43897, Note_on_c, 0, 67, 0
1, 43919, Note_on_c, 10, 59, 0
1, 43919, Note_on_c, 0, 74, 76
1, 43919, Note_on_c, 0, 67, 69
1, 43919, Note_on_c, 1, 43, 100
1, 43919, Note_on_c, 0, 66, 78
1, 43919, Note_on_c, 8, 55, 103
1, 43919, Note_on_c, 0, 71, 78
1, 43919, Note_on_c, 1, 31, 114
1, 43920, Note_on_c, 9, 42, 44
1, 43920, Note_on_c, 9, 36, 91
1, 43921, Note_on_c, 9, 36, 0
1, 43921, Note_on_c, 9, 42, 0
1, 43921, Note_on_c, 10, 57, 86
1, 43921, Note_on_c, 2, 71, 101
1, 43922, Note_on_c, 2, 67, 99
1, 43927, Note_on_c, 2, 71, 0
1, 43928, Note_on_c, 0, 74, 0
1, 43928, Note_on_c, 0, 67, 0
1, 43929, Note_on_c, 2, 67, 0
1, 43930, Note_on_c, 0, 71, 0
1, 43931, Note_on_c, 0, 66, 0
1, 43936, Note_on_c, 8, 55, 0
1, 43937, Note_on_c, 1, 43, 0
1, 43937, Note_on_c, 1, 31, 0
1, 43939, Note_on_c, 10, 57, 0
1, 43967, Note_on_c, 0, 66, 87
1, 43967, Note_on_c, 0, 67, 82
1, 43967, Note_on_c, 0, 74, 83
1, 43967, Note_on_c, 8, 54, 114
1, 43967, Note_on_c, 9, 42, 95
1, 43967, Note_on_c, 0, 71, 81
1, 43968, Note_on_c, 9, 42, 0
1, 43968, Note_on_c, 1, 45, 117
1, 43968, Note_on_c, 9, 36, 110
1, 43968, Note_on_c, 1, 33, 112
1, 43969, Note_on_c, 9, 36, 0
1, 43969, Note_on_c, 10, 62, 98
1, 43969, Note_on_c, 2, 59, 81
1, 43970, Note_on_c, 2, 62, 101
1, 43972, Note_on_c, 2, 69, 94
1, 43972, Note_on_c, 2, 71, 16
1, 44008, Note_on_c, 8, 54, 0
1, 44015, Note_on_c, 9, 42, 39
1, 44016, Note_on_c, 9, 42, 0
1, 44016, Note_on_c, 8, 54, 110
1, 44017, Note_on_c, 6, 81, 120
1, 44021, Note_on_c, 8, 54, 0
1, 44025, Note_on_c, 6, 81, 0
1, 44039, Note_on_c, 6, 81, 104
1, 44040, Note_on_c, 8, 54, 110
1, 44045, Note_on_c, 8, 54, 0
1, 44045, Note_on_c, 0, 71, 0
1, 44045, Note_on_c, 0, 74, 0
1, 44046, Note_on_c, 0, 66, 0
1, 44046, Note_on_c, 0, 67, 0
1, 44048, Note_on_c, 1, 33, 0
1, 44049, Note_on_c, 6, 81, 0
1, 44054, Note_on_c, 1, 45, 0
1, 44057, Note_on_c, 10, 62, 0
1, 44061, Note_on_c, 2, 69, 0
1, 44062, Note_on_c, 2, 62, 0
1, 44062, Note_on_c, 6, 79, 111
1, 44063, Note_on_c, 9, 42, 110
1, 44063, Note_on_c, 10, 59, 87
1, 44063, Note_on_c, 8, 53, 114
1, 44064, Note_on_c, 9, 42, 0
1, 44064, Note_on_c, 0, 67, 79
1, 44064, Note_on_c, 0, 74, 81
1, 44064, Note_on_c, 0, 71, 81
1, 44064, Note_on_c, 9, 39, 110
1, 44064, Note_on_c, 9, 60, 77
1, 44064, Note_on_c, 9, 36, 110
1, 44064, Note_on_c, 10, 64, 102
1, 44064, Note_on_c, 1, 43, 112
1, 44064, Note_on_c, 9, 40, 110
1, 44064, Note_on_c, 1, 31, 100
1, 44065, Note_on_c, 9, 40, 0
1, 44065, Note_on_c, 9, 60, 0
1, 44065, Note_on_c, 9, 39, 0
1, 44065, Note_on_c, 9, 36, 0
1, 44065, Note_on_c, 0, 66, 87
1, 44065, Note_on_c, 2, 67, 55
1, 44066, Note_on_c, 2, 62, 91
1, 44083, Note_on_c, 8, 53, 0
1, 44083, Note_on_c, 8, 54, 91
1, 44090, Note_on_c, 2, 67, 0
1, 44093, Note_on_c, 2, 62, 0
1, 44094, Note_on_c, 2, 71, 0
1, 44099, Note_on_c, 2, 59, 0
1, 44108, Note_on_c, 10, 64, 0
1, 44111, Note_on_c, 6, 79, 0
1, 44112, Note_on_c, 8, 54, 0
1, 44112, Note_on_c, 8, 57, 93
1, 44112, Note_on_c, 10, 66, 111
1, 44113, Note_on_c, 10, 59, 0
1, 44113, Note_on_c, 10, 62, 106
1, 44113, Note_on_c, 6, 81, 104
1, 44113, Note_on_c, 9, 42, 42
1, 44114, Note_on_c, 9, 42, 0
1, 44124, Note_on_c, 0, 66, 0
1, 44127, Note_on_c, 6, 81, 0
1, 44129, Note_on_c, 8, 57, 0
1, 44130, Note_on_c, 0, 67, 0
1, 44131, Note_on_c, 0, 71, 0
1, 44132, Note_on_c, 0, 74, 0
1, 44133, Note_on_c, 10, 66, 0
1, 44134, Note_on_c, 10, 62, 0
1, 44141, Note_on_c, 1, 31, 0
1, 44143, Note_on_c, 1, 43, 0
1, 44160, Note_on_c, 9, 36, 110
1, 44160, Note_on_c, 9, 42, 96
1, 44161, Note_on_c, 9, 42, 0
1, 44161, Note_on_c, 9, 36, 0
1, 44161, Note_on_c, 0, 76, 83
1, 44161, Note_on_c, 0, 69, 75
1, 44161, Note_on_c, 0, 73, 71
1, 44161, Note_on_c, 1, 30, 97
1, 44161, Note_on_c, 1, 42, 99
1, 44162, Note_on_c, 2, 63, 94
1, 44163, Note_on_c, 2, 68, 97
1, 44163, Note_on_c, 8, 53, 100
1, 44164, Note_on_c, 2, 72, 102
1, 44182, Note_on_c, 2, 63, 0
1, 44182, Note_on_c, 8, 54, 98
1, 44184, Note_on_c, 8, 53, 0
1, 44186, Note_on_c, 2, 68, 0
1, 44188, Note_on_c, 2, 72, 0
1, 44188, Note_on_c, 2, 73, 81
1, 44189, Note_on_c, 2, 69, 88
1, 44192, Note_on_c, 2, 64, 90
1, 44207, Note_on_c, 9, 42, 37
1, 44208, Note_on_c, 9, 42, 0
1, 44208, Note_on_c, 8, 57, 82
1, 44210, Note_on_c, 8, 54, 0
1, 44226, Note_on_c, 8, 57, 0
1, 44235, Note_on_c, 2, 69, 0
1, 44235, Note_on_c, 2, 73, 0
1, 44236, Note_on_c, 2, 73, 97
1, 44237, Note_on_c, 2, 69, 97
1, 44255, Note_on_c, 9, 42, 110
1, 44256, Note_on_c, 9, 42, 0
1, 44256, Note_on_c, 9, 60, 77
1, 44256, Note_on_c, 9, 40, 95
1, 44256, Note_on_c, 9, 39, 110
1, 44257, Note_on_c, 9, 39, 0
1, 44257, Note_on_c, 9, 40, 0
1, 44257, Note_on_c, 9, 60, 0
1, 44260, Note_on_c, 2, 73, 0
1, 44261, Note_on_c, 0, 76, 0
1, 44262, Note_on_c, 2, 69, 0
1, 44264, Note_on_c, 0, 69, 0
1, 44264, Note_on_c, 0, 73, 0
1, 44265, Note_on_c, 2, 64, 0
1, 44268, Note_on_c, 1, 30, 0
1, 44271, Note_on_c, 1, 42, 0
1, 44303, Note_on_c, 0, 74, 82
1, 44303, Note_on_c, 0, 78, 73
1, 44303, Note_on_c, 0, 69, 78
1, 44303, Note_on_c, 8, 57, 100
1, 44304, Note_on_c, 10, 57, 97
1, 44304, Note_on_c, 1, 47, 110
1, 44304, Note_on_c, 9, 42, 44
1, 44304, Note_on_c, 1, 35, 98
1, 44304, Note_on_c, 9, 36, 91
1, 44305, Note_on_c, 9, 36, 0
1, 44305, Note_on_c, 9, 42, 0
1, 44320, Note_on_c, 8, 57, 0
1, 44326, Note_on_c, 10, 57, 0
1, 44351, Note_on_c, 9, 42, 95
1, 44352, Note_on_c, 9, 42, 0
1, 44352, Note_on_c, 9, 36, 110
1, 44353, Note_on_c, 9, 36, 0
1, 44354, Note_on_c, 8, 53, 100
1, 44371, Note_on_c, 8, 53, 0
1, 44371, Note_on_c, 8, 54, 95
1, 44378, Note_on_c, 0, 78, 0
1, 44378, Note_on_c, 0, 74, 0
1, 44390, Note_on_c, 0, 69, 0
1, 44392, Note_on_c, 1, 47, 0
1, 44397, Note_on_c, 6, 83, 127
1, 44398, Note_on_c, 8, 54, 0
1, 44398, Note_on_c, 1, 35, 0
1, 44398, Note_on_c, 2, 61, 44
1, 44399, Note_on_c, 1, 33, 100
1, 44399, Note_on_c, 1, 45, 97
1, 44399, Note_on_c, 9, 42, 39
1, 44400, Note_on_c, 9, 42, 0
1, 44400, Note_on_c, 10, 57, 92
1, 44400, Note_on_c, 8, 57, 92
1, 44401, Note_on_c, 0, 73, 75
1, 44401, Note_on_c, 0, 76, 68
1, 44401, Note_on_c, 2, 64, 66
1, 44401, Note_on_c, 0, 69, 66
1, 44412, Note_on_c, 0, 76, 0
1, 44413, Note_on_c, 0, 69, 0
1, 44415, Note_on_c, 1, 45, 0
1, 44416, Note_on_c, 1, 33, 0
1, 44416, Note_on_c, 0, 73, 0
1, 44417, Note_on_c, 8, 57, 0
1, 44421, Note_on_c, 10, 57, 0
1, 44430, Note_on_c, 6, 83, 0
1, 44446, Note_on_c, 8, 58, 104
1, 44447, Note_on_c, 10, 59, 106
1, 44447, Note_on_c, 1, 35, 97
1, 44447, Note_on_c, 9, 42, 110
1, 44448, Note_on_c, 9, 42, 0
1, 44448, Note_on_c, 2, 61, 0
1, 44448, Note_on_c, 2, 64, 0
1, 44448, Note_on_c, 2, 66, 40
1, 44448, Note_on_c, 6, 81, 120
1, 44448, Note_on_c, 9, 60, 77
1, 44448, Note_on_c, 9, 36, 110
1, 44448, Note_on_c, 9, 39, 110
1, 44448, Note_on_c, 9, 40, 110
1, 44448, Note_on_c, 1, 47, 120
1, 44449, Note_on_c, 9, 40, 0
1, 44449, Note_on_c, 9, 39, 0
1, 44449, Note_on_c, 9, 36, 0
1, 44449, Note_on_c, 9, 60, 0
1, 44449, Note_on_c, 0, 78, 71
1, 44449, Note_on_c, 0, 74, 91
1, 44449, Note_on_c, 0, 69, 84
1, 44449, Note_on_c, 2, 62, 70
1, 44461, Note_on_c, 8, 58, 0
1, 44461, Note_on_c, 6, 81, 0
1, 44461, Note_on_c, 8, 59, 86
1, 44467, Note_on_c, 2, 62, 0
1, 44472, Note_on_c, 6, 81, 120
1, 44474, Note_on_c, 2, 66, 0
1, 44480, Note_on_c, 6, 81, 0
1, 44492, Note_on_c, 6, 83, 125
1, 44494, Note_on_c, 10, 59, 0
1, 44496, Note_on_c, 8, 62, 112
1, 44496, Note_on_c, 10, 62, 106
1, 44496, Note_on_c, 10, 59, 106
1, 44497, Note_on_c, 9, 42, 42
1, 44498, Note_on_c, 9, 42, 0
1, 44498, Note_on_c, 8, 59, 0
1, 44507, Note_on_c, 0, 78, 0
1, 44513, Note_on_c, 0, 74, 0
1, 44516, Note_on_c, 0, 69, 0
1, 44518, Note_on_c, 10, 62, 0
1, 44518, Note_on_c, 10, 59, 0
1, 44519, Note_on_c, 6, 83, 0
1, 44522, Note_on_c, 8, 62, 0
1, 44534, Note_on_c, 1, 35, 0
1, 44534, Note_on_c, 1, 47, 0
1, 44544, Note_on_c, 0, 66, 96
1, 44544, Note_on_c, 9, 42, 96
1, 44544, Note_on_c, 10, 57, 91
1, 44544, Note_on_c, 1, 28, 104
1, 44544, Note_on_c, 9, 36, 110
1, 44545, Note_on_c, 9, 36, 0
1, 44545, Note_on_c, 9, 42, 0
1, 44545, Note_on_c, 0, 74, 82
1, 44545, Note_on_c, 9, 43, 86
1, 44545, Note_on_c, 0, 71, 81
1, 44545, Note_on_c, 0, 67, 81
1, 44545, Note_on_c, 1, 40, 110
1, 44546, Note_on_c, 9, 43, 0
1, 44591, Note_on_c, 8, 57, 98
1, 44591, Note_on_c, 9, 42, 37
1, 44592, Note_on_c, 9, 42, 0
1, 44593, Note_on_c, 2, 62, 56
1, 44594, Note_on_c, 2, 67, 97
1, 44595, Note_on_c, 2, 74, 97
1, 44611, Note_on_c, 8, 57, 0
1, 44613, Note_on_c, 2, 74, 0
1, 44615, Note_on_c, 10, 57, 0
1, 44617, Note_on_c, 2, 67, 0
1, 44617, Note_on_c, 8, 57, 95
1, 44617, Note_on_c, 2, 74, 97
1, 44618, Note_on_c, 2, 67, 96
1, 44631, Note_on_c, 8, 57, 0
1, 44634, Note_on_c, 2, 62, 0
1, 44635, Note_on_c, 2, 67, 0
1, 44637, Note_on_c, 2, 74, 0
1, 44637, Note_on_c, 2, 62, 87
1, 44638, Note_on_c, 8, 57, 107
1, 44638, Note_on_c, 2, 67, 100
1, 44639, Note_on_c, 2, 74, 99
1, 44639, Note_on_c, 9, 42, 110
1, 44639, Note_on_c, 10, 59, 98
1, 44640, Note_on_c, 9, 42, 0
1, 44640, Note_on_c, 9, 39, 110
1, 44640, Note_on_c, 9, 40, 95
1, 44640, Note_on_c, 9, 60, 77
1, 44641, Note_on_c, 9, 60, 0
1, 44641, Note_on_c, 9, 40, 0
1, 44641, Note_on_c, 9, 39, 0
1, 44653, Note_on_c, 2, 62, 0
1, 44654, Note_on_c, 8, 57, 0
1, 44656, Note_on_c, 1, 28, 0
1, 44657, Note_on_c, 2, 67, 0
1, 44657, Note_on_c, 2, 74, 0
1, 44658, Note_on_c, 0, 66, 0
1, 44660, Note_on_c, 1, 40, 0
1, 44663, Note_on_c, 0, 71, 0
1, 44664, Note_on_c, 0, 74, 0
1, 44665, Note_on_c, 0, 67, 0
1, 44687, Note_on_c, 10, 59, 0
1, 44687, Note_on_c, 0, 67, 69
1, 44687, Note_on_c, 8, 55, 111
1, 44687, Note_on_c, 1, 31, 114
1, 44687, Note_on_c, 0, 74, 76
1, 44687, Note_on_c, 0, 71, 78
1, 44687, Note_on_c, 1, 43, 100
1, 44687, Note_on_c, 0, 66, 78
1, 44688, Note_on_c, 9, 36, 91
1, 44688, Note_on_c, 9, 42, 44
1, 44689, Note_on_c, 9, 42, 0
1, 44689, Note_on_c, 9, 36, 0
1, 44689, Note_on_c, 2, 62, 72
1, 44689, Note_on_c, 10, 57, 86
1, 44690, Note_on_c, 2, 71, 103
1, 44690, Note_on_c, 2, 67, 99
1, 44696, Note_on_c, 0, 67, 0
1, 44696, Note_on_c, 0, 74, 0
1, 44698, Note_on_c, 0, 71, 0
1, 44699, Note_on_c, 2, 62, 0
1, 44699, Note_on_c, 0, 66, 0
1, 44700, Note_on_c, 2, 67, 0
1, 44701, Note_on_c, 2, 71, 0
1, 44702, Note_on_c, 8, 55, 0
1, 44705, Note_on_c, 1, 43, 0
1, 44705, Note_on_c, 1, 31, 0
1, 44707, Note_on_c, 10, 57, 0
1, 44735, Note_on_c, 0, 74, 83
1, 44735, Note_on_c, 0, 67, 82
1, 44735, Note_on_c, 0, 71, 81
1, 44735, Note_on_c, 0, 66, 87
1, 44735, Note_on_c, 9, 42, 95
1, 44735, Note_on_c, 8, 54, 115
1, 44736, Note_on_c, 9, 42, 0
1, 44736, Note_on_c, 9, 36, 110
1, 44736, Note_on_c, 1, 33, 112
1, 44736, Note_on_c, 1, 45, 117
1, 44737, Note_on_c, 9, 36, 0
1, 44737, Note_on_c, 10, 62, 98
1, 44738, Note_on_c, 2, 62, 83
1, 44740, Note_on_c, 2, 69, 94
1, 44777, Note_on_c, 8, 54, 0
1, 44783, Note_on_c, 9, 42, 39
1, 44784, Note_on_c, 9, 42, 0
1, 44784, Note_on_c, 8, 54, 110
1, 44785, Note_on_c, 6, 81, 120
1, 44789, Note_on_c, 8, 54, 0
1, 44789, Note_on_c, 10, 69, 110
1, 44793, Note_on_c, 6, 81, 0
1, 44797, Note_on_c, 10, 69, 0
1, 44806, Note_on_c, 2, 69, 0
1, 44807, Note_on_c, 6, 81, 104
1, 44807, Note_on_c, 10, 69, 74
1, 44808, Note_on_c, 8, 54, 110
1, 44809, Note_on_c, 2, 71, 101
1, 44813, Note_on_c, 8, 54, 0
1, 44813, Note_on_c, 0, 71, 0
1, 44813, Note_on_c, 0, 74, 0
1, 44814, Note_on_c, 0, 67, 0
1, 44814, Note_on_c, 0, 66, 0
1, 44816, Note_on_c, 1, 33, 0
1, 44817, Note_on_c, 6, 81, 0
1, 44820, Note_on_c, 10, 69, 0
1, 44822, Note_on_c, 1, 45, 0
1, 44825, Note_on_c, 2, 62, 0
1, 44825, Note_on_c, 10, 62, 0
1, 44830, Note_on_c, 2, 71, 0
1, 44830, Note_on_c, 6, 79, 111
1, 44830, Note_on_c, 2, 62, 80
1, 44831, Note_on_c, 8, 53, 110
1, 44831, Note_on_c, 2, 67, 97
1, 44831, Note_on_c, 9, 42, 110
1, 44832, Note_on_c, 9, 42, 0
1, 44832, Note_on_c, 0, 71, 81
1, 44832, Note_on_c, 0, 67, 79
1, 44832, Note_on_c, 9, 40, 110
1, 44832, Note_on_c, 0, 74, 81
1, 44832, Note_on_c, 10, 64, 113
1, 44832, Note_on_c, 9, 36, 110
1, 44832, Note_on_c, 1, 43, 112
1, 44832, Note_on_c, 9, 60, 77
1, 44832, Note_on_c, 10, 67, 114
1, 44832, Note_on_c, 2, 71, 94
1, 44832, Note_on_c, 9, 39, 110
1, 44832, Note_on_c, 1, 31, 100
1, 44833, Note_on_c, 9, 39, 0
1, 44833, Note_on_c, 9, 40, 0
1, 44833, Note_on_c, 9, 60, 0
1, 44833, Note_on_c, 9, 36, 0
1, 44833, Note_on_c, 0, 66, 87
1, 44852, Note_on_c, 8, 53, 0
1, 44852, Note_on_c, 8, 54, 87
1, 44876, Note_on_c, 10, 64, 0
1, 44877, Note_on_c, 2, 67, 0
1, 44878, Note_on_c, 10, 67, 0
1, 44878, Note_on_c, 2, 62, 0
1, 44879, Note_on_c, 6, 79, 0
1, 44879, Note_on_c, 2, 71, 0
1, 44879, Note_on_c, 2, 67, 97
1, 44880, Note_on_c, 8, 57, 100
1, 44881, Note_on_c, 10, 59, 97
1, 44881, Note_on_c, 2, 71, 101
1, 44881, Note_on_c, 6, 81, 104
1, 44881, Note_on_c, 10, 69, 91
1, 44881, Note_on_c, 9, 42, 42
1, 44882, Note_on_c, 9, 42, 0
1, 44883, Note_on_c, 8, 54, 0
1, 44886, Note_on_c, 2, 71, 0
1, 44886, Note_on_c, 2, 67, 0
1, 44892, Note_on_c, 0, 66, 0
1, 44895, Note_on_c, 6, 81, 0
1, 44897, Note_on_c, 10, 69, 0
1, 44898, Note_on_c, 8, 57, 0
1, 44898, Note_on_c, 0, 67, 0
1, 44899, Note_on_c, 0, 71, 0
1, 44900, Note_on_c, 0, 74, 0
1, 44902, Note_on_c, 10, 59, 0
1, 44909, Note_on_c, 1, 31, 0
1, 44911, Note_on_c, 1, 43, 0
1, 44927, Note_on_c, 2, 72, 101
1, 44927, Note_on_c, 8, 53, 113
1, 44928, Note_on_c, 6, 76, 116
1, 44928, Note_on_c, 6, 81, 116
1, 44928, Note_on_c, 2, 63, 97
1, 44928, Note_on_c, 6, 85, 116
1, 44928, Note_on_c, 9, 36, 110
1, 44928, Note_on_c, 9, 42, 96
1, 44929, Note_on_c, 9, 42, 0
1, 44929, Note_on_c, 9, 36, 0
1, 44929, Note_on_c, 0, 69, 75
1, 44929, Note_on_c, 1, 30, 97
1, 44929, Note_on_c, 0, 73, 71
1, 44929, Note_on_c, 2, 68, 101
1, 44929, Note_on_c, 0, 76, 83
1, 44929, Note_on_c, 1, 42, 99
1, 44946, Note_on_c, 2, 72, 0
1, 44946, Note_on_c, 2, 63, 0
1, 44947, Note_on_c, 2, 68, 0
1, 44947, Note_on_c, 8, 53, 0
1, 44947, Note_on_c, 2, 73, 84
1, 44947, Note_on_c, 8, 54, 84
1, 44949, Note_on_c, 2, 69, 93
1, 44949, Note_on_c, 2, 64, 88
1, 44975, Note_on_c, 9, 42, 37
1, 44976, Note_on_c, 9, 42, 0
1, 44976, Note_on_c, 8, 57, 103
1, 44979, Note_on_c, 8, 54, 0
1, 44994, Note_on_c, 8, 57, 0
1, 45000, Note_on_c, 2, 73, 0
1, 45001, Note_on_c, 2, 73, 103
1, 45002, Note_on_c, 2, 69, 0
1, 45003, Note_on_c, 2, 69, 99
1, 45023, Note_on_c, 9, 42, 110
1, 45024, Note_on_c, 9, 42, 0
1, 45024, Note_on_c, 9, 39, 110
1, 45024, Note_on_c, 9, 40, 95
1, 45024, Note_on_c, 9, 60, 77
1, 45025, Note_on_c, 9, 60, 0
1, 45025, Note_on_c, 9, 40, 0
1, 45025, Note_on_c, 9, 39, 0
1, 45026, Note_on_c, 2, 64, 0
1, 45027, Note_on_c, 2, 73, 0
1, 45029, Note_on_c, 0, 76, 0
1, 45031, Note_on_c, 2, 69, 0
1, 45032, Note_on_c, 0, 73, 0
1, 45032, Note_on_c, 0, 69, 0
1, 45036, Note_on_c, 1, 30, 0
1, 45039, Note_on_c, 1, 42, 0
1, 45070, Note_on_c, 8, 57, 113
1, 45071, Note_on_c, 6, 81, 0
1, 45071, Note_on_c, 6, 76, 0
1, 45071, Note_on_c, 6, 85, 0
1, 45071, Note_on_c, 0, 78, 73
1, 45071, Note_on_c, 6, 83, 108
1, 45071, Note_on_c, 0, 74, 82
1, 45071, Note_on_c, 0, 69, 78
1, 45072, Note_on_c, 2, 62, 81
1, 45072, Note_on_c, 1, 47, 110
1, 45072, Note_on_c, 6, 74, 100
1, 45072, Note_on_c, 9, 36, 91
1, 45072, Note_on_c, 1, 35, 98
1, 45072, Note_on_c, 9, 42, 44
1, 45072, Note_on_c, 6, 78, 99
1, 45073, Note_on_c, 9, 42, 0
1, 45073, Note_on_c, 9, 36, 0
1, 45074, Note_on_c, 2, 66, 103
1, 45075, Note_on_c, 2, 71, 101
1, 45075, Note_on_c, 2, 71, 0
1, 45090, Note_on_c, 6, 74, 0
1, 45090, Note_on_c, 6, 78, 0
1, 45091, Note_on_c, 2, 66, 0
1, 45092, Note_on_c, 2, 62, 0
1, 45093, Note_on_c, 8, 57, 0
1, 45094, Note_on_c, 6, 83, 0
1, 45118, Note_on_c, 8, 53, 115
1, 45119, Note_on_c, 9, 42, 95
1, 45120, Note_on_c, 9, 42, 0
1, 45120, Note_on_c, 9, 36, 110
1, 45121, Note_on_c, 9, 36, 0
1, 45139, Note_on_c, 8, 53, 0
1, 45139, Note_on_c, 8, 54, 88
1, 45146, Note_on_c, 0, 78, 0
1, 45146, Note_on_c, 0, 74, 0
1, 45158, Note_on_c, 0, 69, 0
1, 45160, Note_on_c, 1, 47, 0
1, 45166, Note_on_c, 1, 35, 0
1, 45167, Note_on_c, 8, 54, 0
1, 45167, Note_on_c, 8, 57, 95
1, 45167, Note_on_c, 1, 33, 100
1, 45167, Note_on_c, 9, 42, 39
1, 45167, Note_on_c, 1, 45, 97
1, 45168, Note_on_c, 9, 42, 0
1, 45168, Note_on_c, 2, 64, 101
1, 45169, Note_on_c, 0, 73, 75
1, 45169, Note_on_c, 0, 76, 68
1, 45169, Note_on_c, 0, 69, 66
1, 45180, Note_on_c, 0, 76, 0
1, 45181, Note_on_c, 0, 69, 0
1, 45183, Note_on_c, 8, 57, 0
1, 45183, Note_on_c, 1, 45, 0
1, 45184, Note_on_c, 0, 73, 0
1, 45184, Note_on_c, 1, 33, 0
1, 45214, Note_on_c, 2, 64, 0
1, 45215, Note_on_c, 1, 35, 97
1, 45215, Note_on_c, 9, 42, 110
1, 45215, Note_on_c, 8, 59, 88
1, 45216, Note_on_c, 9, 42, 0
1, 45216, Note_on_c, 9, 36, 110
1, 45216, Note_on_c, 9, 39, 110
1, 45216, Note_on_c, 9, 60, 77
1, 45216, Note_on_c, 9, 40, 110
1, 45216, Note_on_c, 2, 66, 101
1, 45216, Note_on_c, 1, 47, 120
1, 45216, Note_on_c, 2, 62, 87
1, 45217, Note_on_c, 9, 40, 0
1, 45217, Note_on_c, 9, 39, 0
1, 45217, Note_on_c, 9, 36, 0
1, 45217, Note_on_c, 9, 60, 0
1, 45217, Note_on_c, 0, 74, 91
1, 45217, Note_on_c, 0, 78, 71
1, 45217, Note_on_c, 0, 69, 84
1, 45237, Note_on_c, 2, 66, 0
1, 45238, Note_on_c, 2, 62, 0
1, 45259, Note_on_c, 8, 59, 0
1, 45263, Note_on_c, 8, 62, 113
1, 45265, Note_on_c, 9, 42, 42
1, 45266, Note_on_c, 9, 42, 0
1, 45275, Note_on_c, 0, 78, 0
1, 45281, Note_on_c, 0, 74, 0
1, 45284, Note_on_c, 0, 69, 0
1, 45289, Note_on_c, 8, 62, 0
1, 45302, Note_on_c, 1, 35, 0
1, 45302, Note_on_c, 1, 47, 0
1, 45312, Note_on_c, 10, 57, 91
1, 45312, Note_on_c, 6, 83, 127
1, 45312, Note_on_c, 0, 66, 96
1, 45312, Note_on_c, 1, 28, 104
1, 45312, Note_on_c, 9, 36, 110
1, 45312, Note_on_c, 9, 42, 96
1, 45313, Note_on_c, 9, 42, 0
1, 45313, Note_on_c, 9, 36, 0
1, 45313, Note_on_c, 0, 74, 82
1, 45313, Note_on_c, 1, 40, 110
1, 45313, Note_on_c, 9, 43, 84
1, 45313, Note_on_c, 0, 71, 81
1, 45313, Note_on_c, 0, 67, 81
1, 45314, Note_on_c, 9, 43, 0
1, 45348, Note_on_c, 6, 82, 105
1, 45356, Note_on_c, 6, 83, 0
1, 45356, Note_on_c, 6, 81, 101
1, 45359, Note_on_c, 9, 42, 37
1, 45360, Note_on_c, 9, 42, 0
1, 45360, Note_on_c, 8, 57, 90
1, 45361, Note_on_c, 6, 80, 96
1, 45361, Note_on_c, 2, 62, 76
1, 45362, Note_on_c, 2, 67, 97
1, 45363, Note_on_c, 2, 74, 97
1, 45364, Note_on_c, 6, 82, 0
1, 45367, Note_on_c, 6, 81, 0
1, 45368, Note_on_c, 6, 79, 89
1, 45373, Note_on_c, 6, 80, 0
1, 45373, Note_on_c, 6, 78, 81
1, 45375, Note_on_c, 8, 57, 0
1, 45376, Note_on_c, 6, 79, 0
1, 45379, Note_on_c, 6, 78, 0
1, 45379, Note_on_c, 6, 77, 78
1, 45383, Note_on_c, 6, 77, 0
1, 45383, Note_on_c, 10, 57, 0
1, 45383, Note_on_c, 2, 74, 0
1, 45383, Note_on_c, 6, 76, 76
1, 45383, Note_on_c, 8, 57, 100
1, 45385, Note_on_c, 2, 67, 0
1, 45385, Note_on_c, 2, 74, 99
1, 45386, Note_on_c, 2, 67, 100
1, 45387, Note_on_c, 2, 62, 0
1, 45388, Note_on_c, 6, 76, 0
1, 45388, Note_on_c, 2, 62, 89
1, 45397, Note_on_c, 2, 62, 0
1, 45400, Note_on_c, 8, 57, 0
1, 45401, Note_on_c, 2, 67, 0
1, 45404, Note_on_c, 2, 74, 0
1, 45405, Note_on_c, 2, 62, 79
1, 45406, Note_on_c, 8, 57, 113
1, 45406, Note_on_c, 2, 67, 99
1, 45407, Note_on_c, 10, 59, 98
1, 45407, Note_on_c, 9, 42, 110
1, 45407, Note_on_c, 2, 74, 99
1, 45408, Note_on_c, 9, 42, 0
1, 45408, Note_on_c, 9, 40, 95
1, 45408, Note_on_c, 9, 39, 110
1, 45408, Note_on_c, 9, 60, 77
1, 45409, Note_on_c, 9, 60, 0
1, 45409, Note_on_c, 9, 39, 0
1, 45409, Note_on_c, 9, 40, 0
1, 45412, Note_on_c, 2, 74, 0
1, 45413, Note_on_c, 2, 62, 0
1, 45418, Note_on_c, 2, 67, 0
1, 45424, Note_on_c, 1, 28, 0
1, 45425, Note_on_c, 8, 57, 0
1, 45426, Note_on_c, 0, 66, 0
1, 45428, Note_on_c, 1, 40, 0
1, 45431, Note_on_c, 0, 71, 0
1, 45432, Note_on_c, 0, 74, 0
1, 45433, Note_on_c, 0, 67, 0
1, 45455, Note_on_c, 10, 59, 0
1, 45455, Note_on_c, 0, 74, 76
1, 45455, Note_on_c, 8, 55, 109
1, 45455, Note_on_c, 1, 43, 100
1, 45455, Note_on_c, 2, 67, 85
1, 45455, Note_on_c, 0, 66, 78
1, 45455, Note_on_c, 1, 31, 114
1, 45455, Note_on_c, 0, 71, 78
1, 45455, Note_on_c, 0, 67, 69
1, 45455, Note_on_c, 2, 71, 100
1, 45456, Note_on_c, 9, 36, 91
1, 45456, Note_on_c, 9, 42, 44
1, 45457, Note_on_c, 9, 42, 0
1, 45457, Note_on_c, 9, 36, 0
1, 45457, Note_on_c, 10, 57, 86
1, 45463, Note_on_c, 2, 67, 0
1, 45464, Note_on_c, 0, 74, 0
1, 45464, Note_on_c, 0, 67, 0
1, 45466, Note_on_c, 2, 71, 0
1, 45466, Note_on_c, 0, 71, 0
1, 45467, Note_on_c, 0, 66, 0
1, 45473, Note_on_c, 1, 43, 0
1, 45473, Note_on_c, 8, 55, 0
1, 45473, Note_on_c, 1, 31, 0
1, 45475, Note_on_c, 10, 57, 0
1, 45503, Note_on_c, 0, 74, 83
1, 45503, Note_on_c, 0, 66, 87
1, 45503, Note_on_c, 9, 42, 95
1, 45503, Note_on_c, 8, 54, 117
1, 45503, Note_on_c, 0, 67, 82
1, 45503, Note_on_c, 2, 59, 49
1, 45503, Note_on_c, 0, 71, 81
1, 45504, Note_on_c, 9, 42, 0
1, 45504, Note_on_c, 9, 36, 110
1, 45504, Note_on_c, 1, 33, 112
1, 45504, Note_on_c, 2, 62, 101
1, 45504, Note_on_c, 1, 45, 117
1, 45505, Note_on_c, 9, 36, 0
1, 45505, Note_on_c, 10, 62, 98
1, 45506, Note_on_c, 2, 71, 26
1, 45506, Note_on_c, 2, 69, 96
1, 45527, Note_on_c, 2, 71, 0
1, 45550, Note_on_c, 8, 54, 0
1, 45551, Note_on_c, 9, 42, 39
1, 45552, Note_on_c, 9, 42, 0
1, 45553, Note_on_c, 6, 81, 114
1, 45555, Note_on_c, 2, 71, 66
1, 45561, Note_on_c, 6, 81, 0
1, 45571, Note_on_c, 2, 71, 0
1, 45575, Note_on_c, 6, 81, 87
1, 45575, Note_on_c, 2, 71, 78
1, 45576, Note_on_c, 8, 54, 110
1, 45581, Note_on_c, 8, 54, 0
1, 45581, Note_on_c, 0, 74, 0
1, 45581, Note_on_c, 0, 71, 0
1, 45582, Note_on_c, 0, 66, 0
1, 45582, Note_on_c, 0, 67, 0
1, 45584, Note_on_c, 1, 33, 0
1, 45585, Note_on_c, 6, 81, 0
1, 45590, Note_on_c, 1, 45, 0
1, 45593, Note_on_c, 10, 62, 0
1, 45596, Note_on_c, 2, 69, 0
1, 45598, Note_on_c, 6, 79, 111
1, 45598, Note_on_c, 8, 53, 98
1, 45599, Note_on_c, 1, 31, 100
1, 45599, Note_on_c, 1, 43, 112
1, 45599, Note_on_c, 9, 42, 110
1, 45599, Note_on_c, 10, 59, 87
1, 45600, Note_on_c, 9, 42, 0
1, 45600, Note_on_c, 2, 71, 0
1, 45600, Note_on_c, 10, 64, 102
1, 45600, Note_on_c, 0, 71, 81
1, 45600, Note_on_c, 9, 60, 77
1, 45600, Note_on_c, 0, 67, 79
1, 45600, Note_on_c, 9, 36, 110
1, 45600, Note_on_c, 9, 39, 110
1, 45600, Note_on_c, 0, 74, 81
1, 45600, Note_on_c, 9, 40, 110
1, 45600, Note_on_c, 2, 67, 90
1, 45601, Note_on_c, 9, 40, 0
1, 45601, Note_on_c, 9, 39, 0
1, 45601, Note_on_c, 9, 60, 0
1, 45601, Note_on_c, 9, 36, 0
1, 45601, Note_on_c, 0, 66, 87
1, 45601, Note_on_c, 2, 71, 79
1, 45618, Note_on_c, 8, 53, 0
1, 45618, Note_on_c, 8, 54, 82
1, 45642, Note_on_c, 2, 71, 0
1, 45642, Note_on_c, 2, 62, 0
1, 45644, Note_on_c, 10, 64, 0
1, 45646, Note_on_c, 2, 59, 0
1, 45646, Note_on_c, 8, 54, 0
1, 45647, Note_on_c, 6, 79, 0
1, 45648, Note_on_c, 8, 57, 103
1, 45648, Note_on_c, 10, 66, 111
1, 45649, Note_on_c, 10, 59, 0
1, 45649, Note_on_c, 9, 42, 42
1, 45649, Note_on_c, 6, 81, 104
1, 45649, Note_on_c, 10, 62, 106
1, 45650, Note_on_c, 9, 42, 0
1, 45651, Note_on_c, 2, 67, 0
1, 45660, Note_on_c, 0, 66, 0
1, 45663, Note_on_c, 6, 81, 0
1, 45666, Note_on_c, 0, 67, 0
1, 45667, Note_on_c, 8, 57, 0
1, 45667, Note_on_c, 0, 71, 0
1, 45668, Note_on_c, 0, 74, 0
1, 45669, Note_on_c, 10, 66, 0
1, 45670, Note_on_c, 10, 62, 0
1, 45676, Note_on_c, 1, 31, 0
1, 45678, Note_on_c, 1, 43, 0
1, 45696, Note_on_c, 8, 53, 114
1, 45696, Note_on_c, 9, 36, 110
1, 45696, Note_on_c, 9, 42, 96
1, 45697, Note_on_c, 9, 42, 0
1, 45697, Note_on_c, 9, 36, 0
1, 45697, Note_on_c, 0, 69, 75
1, 45697, Note_on_c, 1, 30, 97
1, 45697, Note_on_c, 0, 73, 71
1, 45697, Note_on_c, 1, 42, 99
1, 45697, Note_on_c, 2, 63, 100
1, 45697, Note_on_c, 0, 76, 83
1, 45698, Note_on_c, 2, 72, 99
1, 45698, Note_on_c, 2, 68, 99
1, 45698, Note_on_c, 2, 68, 0
1, 45714, Note_on_c, 2, 72, 0
1, 45716, Note_on_c, 8, 53, 0
1, 45716, Note_on_c, 8, 54, 88
1, 45719, Note_on_c, 2, 64, 89
1, 45720, Note_on_c, 2, 63, 0
1, 45721, Note_on_c, 2, 73, 85
1, 45722, Note_on_c, 2, 69, 81
1, 45743, Note_on_c, 9, 42, 37
1, 45744, Note_on_c, 9, 42, 0
1, 45744, Note_on_c, 8, 57, 96
1, 45748, Note_on_c, 8, 54, 0
1, 45762, Note_on_c, 8, 57, 0
1, 45771, Note_on_c, 2, 73, 0
1, 45772, Note_on_c, 2, 64, 0
1, 45772, Note_on_c, 2, 69, 0
1, 45772, Note_on_c, 2, 73, 101
1, 45773, Note_on_c, 2, 69, 97
1, 45774, Note_on_c, 2, 64, 87
1, 45783, Note_on_c, 2, 64, 0
1, 45787, Note_on_c, 2, 69, 0
1, 45789, Note_on_c, 2, 73, 0
1, 45791, Note_on_c, 9, 42, 110
1, 45792, Note_on_c, 9, 42, 0
1, 45792, Note_on_c, 9, 39, 110
1, 45792, Note_on_c, 9, 60, 77
1, 45792, Note_on_c, 9, 40, 95
1, 45793, Note_on_c, 9, 40, 0
1, 45793, Note_on_c, 9, 60, 0
1, 45793, Note_on_c, 9, 39, 0
1, 45797, Note_on_c, 0, 76, 0
1, 45800, Note_on_c, 0, 73, 0
1, 45800, Note_on_c, 0, 69, 0
1, 45804, Note_on_c, 1, 30, 0
1, 45807, Note_on_c, 1, 42, 0
1, 45839, Note_on_c, 0, 78, 73
1, 45839, Note_on_c, 0, 69, 78
1, 45839, Note_on_c, 0, 74, 82
1, 45840, Note_on_c, 1, 35, 98
1, 45840, Note_on_c, 10, 57, 97
1, 45840, Note_on_c, 8, 57, 101
1, 45840, Note_on_c, 9, 36, 91
1, 45840, Note_on_c, 1, 47, 110
1, 45840, Note_on_c, 9, 42, 44
1, 45841, Note_on_c, 9, 42, 0
1, 45841, Note_on_c, 9, 36, 0
1, 45842, Note_on_c, 2, 62, 16
1, 45843, Note_on_c, 2, 66, 81
1, 45859, Note_on_c, 8, 57, 0
1, 45862, Note_on_c, 10, 57, 0
1, 45864, Note_on_c, 8, 54, 110
1, 45869, Note_on_c, 8, 54, 0
1, 45886, Note_on_c, 8, 52, 107
1, 45887, Note_on_c, 9, 42, 95
1, 45888, Note_on_c, 9, 42, 0
1, 45888, Note_on_c, 9, 36, 110
1, 45889, Note_on_c, 9, 36, 0
1, 45894, Note_on_c, 8, 52, 0
1, 45894, Note_on_c, 8, 53, 107
1, 45906, Note_on_c, 8, 53, 0
1, 45907, Note_on_c, 8, 54, 103
1, 45914, Note_on_c, 0, 74, 0
1, 45914, Note_on_c, 0, 78, 0
1, 45923, Note_on_c, 2, 66, 0
1, 45924, Note_on_c, 2, 62, 0
1, 45926, Note_on_c, 0, 69, 0
1, 45928, Note_on_c, 1, 47, 0
1, 45933, Note_on_c, 6, 83, 127
1, 45934, Note_on_c, 1, 35, 0
1, 45935, Note_on_c, 9, 42, 39
1, 45935, Note_on_c, 8, 57, 97
1, 45935, Note_on_c, 1, 45, 97
1, 45935, Note_on_c, 1, 33, 100
1, 45936, Note_on_c, 9, 42, 0
1, 45936, Note_on_c, 10, 57, 92
1, 45936, Note_on_c, 2, 61, 101
1, 45937, Note_on_c, 0, 69, 66
1, 45937, Note_on_c, 2, 64, 101
1, 45937, Note_on_c, 0, 73, 75
1, 45937, Note_on_c, 0, 76, 68
1, 45938, Note_on_c, 8, 54, 0
1, 45948, Note_on_c, 0, 76, 0
1, 45949, Note_on_c, 0, 69, 0
1, 45950, Note_on_c, 8, 57, 0
1, 45951, Note_on_c, 1, 45, 0
1, 45952, Note_on_c, 0, 73, 0
1, 45952, Note_on_c, 1, 33, 0
1, 45957, Note_on_c, 10, 57, 0
1, 45966, Note_on_c, 6, 83, 0
1, 45983, Note_on_c, 2, 61, 0
1, 45983, Note_on_c, 1, 35, 97
1, 45983, Note_on_c, 8, 58, 97
1, 45983, Note_on_c, 9, 42, 110
1, 45983, Note_on_c, 10, 59, 106
1, 45984, Note_on_c, 9, 42, 0
1, 45984, Note_on_c, 2, 64, 0
1, 45984, Note_on_c, 1, 47, 120
1, 45984, Note_on_c, 9, 60, 77
1, 45984, Note_on_c, 9, 36, 110
1, 45984, Note_on_c, 9, 39, 110
1, 45984, Note_on_c, 9, 40, 110
1, 45984, Note_on_c, 6, 81, 122
1, 45985, Note_on_c, 9, 40, 0
1, 45985, Note_on_c, 9, 39, 0
1, 45985, Note_on_c, 9, 36, 0
1, 45985, Note_on_c, 9, 60, 0
1, 45985, Note_on_c, 0, 78, 71
1, 45985, Note_on_c, 0, 74, 91
1, 45985, Note_on_c, 2, 62, 75
1, 45985, Note_on_c, 0, 69, 84
1, 45985, Note_on_c, 2, 66, 101
1, 45992, Note_on_c, 8, 58, 0
1, 45992, Note_on_c, 8, 59, 83
1, 45999, Note_on_c, 6, 81, 0
1, 46002, Note_on_c, 2, 62, 0
1, 46004, Note_on_c, 2, 66, 0
1, 46008, Note_on_c, 6, 81, 114
1, 46016, Note_on_c, 6, 81, 0
1, 46028, Note_on_c, 6, 83, 125
1, 46030, Note_on_c, 10, 59, 0
1, 46031, Note_on_c, 8, 62, 114
1, 46032, Note_on_c, 10, 62, 106
1, 46032, Note_on_c, 10, 59, 106
1, 46033, Note_on_c, 9, 42, 42
1, 46034, Note_on_c, 9, 42, 0
1, 46034, Note_on_c, 8, 59, 0
1, 46043, Note_on_c, 0, 78, 0
1, 46049, Note_on_c, 0, 74, 0
1, 46052, Note_on_c, 0, 69, 0
1, 46054, Note_on_c, 10, 62, 0
1, 46054, Note_on_c, 10, 59, 0
1, 46055, Note_on_c, 6, 83, 0
1, 46056, Note_on_c, 8, 62, 0
1, 46070, Note_on_c, 1, 35, 0
1, 46070, Note_on_c, 1, 47, 0
1, 46080, Note_on_c, 1, 28, 104
1, 46080, Note_on_c, 0, 66, 96
1, 46080, Note_on_c, 10, 57, 91
1, 46080, Note_on_c, 9, 42, 96
1, 46080, Note_on_c, 9, 36, 110
1, 46081, Note_on_c, 9, 36, 0
1, 46081, Note_on_c, 9, 42, 0
1, 46081, Note_on_c, 0, 67, 81
1, 46081, Note_on_c, 9, 43, 86
1, 46081, Note_on_c, 1, 40, 110
1, 46081, Note_on_c, 0, 74, 82
1, 46081, Note_on_c, 0, 71, 81
1, 46082, Note_on_c, 9, 43, 0
1, 46127, Note_on_c, 9, 42, 37
1, 46127, Note_on_c, 2, 62, 97
1, 46128, Note_on_c, 9, 42, 0
1, 46129, Note_on_c, 8, 57, 93
1, 46129, Note_on_c, 2, 67, 100
1, 46130, Note_on_c, 2, 74, 99
1, 46144, Note_on_c, 2, 74, 0
1, 46150, Note_on_c, 2, 67, 0
1, 46150, Note_on_c, 2, 74, 101
1, 46151, Note_on_c, 10, 57, 0
1, 46151, Note_on_c, 8, 57, 0
1, 46151, Note_on_c, 2, 67, 99
1, 46154, Note_on_c, 8, 57, 91
1, 46171, Note_on_c, 8, 57, 0
1, 46171, Note_on_c, 2, 67, 0
1, 46173, Note_on_c, 2, 74, 0
1, 46174, Note_on_c, 2, 74, 96
1, 46174, Note_on_c, 2, 67, 101
1, 46175, Note_on_c, 10, 59, 98
1, 46175, Note_on_c, 9, 42, 110
1, 46175, Note_on_c, 8, 57, 110
1, 46176, Note_on_c, 9, 42, 0
1, 46176, Note_on_c, 9, 40, 95
1, 46176, Note_on_c, 9, 60, 77
1, 46176, Note_on_c, 9, 39, 110
1, 46177, Note_on_c, 9, 39, 0
1, 46177, Note_on_c, 9, 60, 0
1, 46177, Note_on_c, 9, 40, 0
1, 46182, Note_on_c, 2, 62, 0
1, 46184, Note_on_c, 2, 74, 0
1, 46191, Note_on_c, 2, 67, 0
1, 46192, Note_on_c, 1, 28, 0
1, 46194, Note_on_c, 0, 66, 0
1, 46195, Note_on_c, 8, 57, 0
1, 46196, Note_on_c, 1, 40, 0
1, 46199, Note_on_c, 0, 71, 0
1, 46200, Note_on_c, 0, 74, 0
1, 46201, Note_on_c, 0, 67, 0
1, 46223, Note_on_c, 10, 59, 0
1, 46223, Note_on_c, 0, 67, 69
1, 46223, Note_on_c, 0, 74, 76
1, 46223, Note_on_c, 2, 62, 83
1, 46223, Note_on_c, 0, 71, 78
1, 46223, Note_on_c, 1, 43, 100
1, 46223, Note_on_c, 0, 66, 78
1, 46223, Note_on_c, 1, 31, 114
1, 46224, Note_on_c, 9, 36, 91
1, 46224, Note_on_c, 9, 42, 44
1, 46225, Note_on_c, 9, 42, 0
1, 46225, Note_on_c, 9, 36, 0
1, 46225, Note_on_c, 10, 57, 86
1, 46225, Note_on_c, 8, 55, 112
1, 46225, Note_on_c, 2, 67, 99
1, 46226, Note_on_c, 2, 71, 101
1, 46232, Note_on_c, 0, 67, 0
1, 46232, Note_on_c, 0, 74, 0
1, 46234, Note_on_c, 0, 71, 0
1, 46235, Note_on_c, 0, 66, 0
1, 46236, Note_on_c, 2, 71, 0
1, 46236, Note_on_c, 2, 62, 0
1, 46238, Note_on_c, 2, 67, 0
1, 46241, Note_on_c, 1, 43, 0
1, 46241, Note_on_c, 1, 31, 0
1, 46242, Note_on_c, 8, 55, 0
1, 46243, Note_on_c, 10, 57, 0
1, 46271, Note_on_c, 2, 59, 50
1, 46271, Note_on_c, 0, 66, 87
1, 46271, Note_on_c, 9, 42, 95
1, 46271, Note_on_c, 0, 71, 81
1, 46271, Note_on_c, 0, 74, 83
1, 46271, Note_on_c, 0, 67, 82
1, 46272, Note_on_c, 9, 42, 0
1, 46272, Note_on_c, 1, 45, 117
1, 46272, Note_on_c, 1, 33, 112
1, 46272, Note_on_c, 9, 36, 110
1, 46273, Note_on_c, 9, 36, 0
1, 46273, Note_on_c, 2, 62, 101
1, 46273, Note_on_c, 10, 62, 98
1, 46273, Note_on_c, 8, 54, 115
1, 46274, Note_on_c, 2, 69, 94
1, 46319, Note_on_c, 8, 54, 0
1, 46319, Note_on_c, 9, 42, 39
1, 46320, Note_on_c, 9, 42, 0
1, 46320, Note_on_c, 8, 54, 110
1, 46321, Note_on_c, 6, 81, 120
1, 46325, Note_on_c, 8, 54, 0
1, 46329, Note_on_c, 6, 81, 0
1, 46341, Note_on_c, 2, 69, 0
1, 46343, Note_on_c, 6, 81, 104
1, 46344, Note_on_c, 8, 54, 110
1, 46345, Note_on_c, 2, 69, 84
1, 46349, Note_on_c, 8, 54, 0
1, 46349, Note_on_c, 0, 71, 0
1, 46349, Note_on_c, 0, 74, 0
1, 46350, Note_on_c, 0, 66, 0
1, 46350, Note_on_c, 0, 67, 0
1, 46352, Note_on_c, 1, 33, 0
1, 46353, Note_on_c, 6, 81, 0
1, 46356, Note_on_c, 2, 69, 0
1, 46358, Note_on_c, 1, 45, 0
1, 46361, Note_on_c, 10, 62, 0
1, 46362, Note_on_c, 2, 59, 0
1, 46365, Note_on_c, 2, 62, 0
1, 46365, Note_on_c, 2, 59, 72
1, 46366, Note_on_c, 6, 79, 111
1, 46367, Note_on_c, 9, 42, 110
1, 46367, Note_on_c, 2, 67, 94
1, 46367, Note_on_c, 2, 62, 97
1, 46368, Note_on_c, 9, 42, 0
1, 46368, Note_on_c, 9, 39, 110
1, 46368, Note_on_c, 2, 71, 51
1, 46368, Note_on_c, 0, 71, 81
1, 46368, Note_on_c, 1, 31, 100
1, 46368, Note_on_c, 9, 36, 110
1, 46368, Note_on_c, 1, 43, 112
1, 46368, Note_on_c, 0, 67, 79
1, 46368, Note_on_c, 9, 40, 110
1, 46368, Note_on_c, 0, 74, 81
1, 46368, Note_on_c, 8, 53, 109
1, 46368, Note_on_c, 9, 60, 77
1, 46368, Note_on_c, 10, 64, 113
1, 46369, Note_on_c, 9, 60, 0
1, 46369, Note_on_c, 9, 39, 0
1, 46369, Note_on_c, 9, 40, 0
1, 46369, Note_on_c, 9, 36, 0
1, 46369, Note_on_c, 0, 66, 87
1, 46384, Note_on_c, 8, 53, 0
1, 46384, Note_on_c, 8, 54, 90
1, 46407, Note_on_c, 2, 71, 0
1, 46411, Note_on_c, 8, 54, 0
1, 46412, Note_on_c, 10, 64, 0
1, 46414, Note_on_c, 2, 67, 0
1, 46415, Note_on_c, 6, 79, 0
1, 46416, Note_on_c, 2, 59, 0
1, 46416, Note_on_c, 8, 57, 95
1, 46417, Note_on_c, 2, 62, 0
1, 46417, Note_on_c, 9, 42, 42
1, 46417, Note_on_c, 6, 81, 104
1, 46417, Note_on_c, 10, 59, 97
1, 46418, Note_on_c, 9, 42, 0
1, 46428, Note_on_c, 0, 66, 0
1, 46431, Note_on_c, 6, 81, 0
1, 46434, Note_on_c, 0, 67, 0
1, 46435, Note_on_c, 0, 71, 0
1, 46436, Note_on_c, 0, 74, 0
1, 46437, Note_on_c, 8, 57, 0
1, 46438, Note_on_c, 10, 59, 0
1, 46445, Note_on_c, 1, 31, 0
1, 46447, Note_on_c, 1, 43, 0
1, 46464, Note_on_c, 8, 53, 109
1, 46464, Note_on_c, 6, 85, 117
1, 46464, Note_on_c, 9, 42, 96
1, 46464, Note_on_c, 6, 81, 117
1, 46464, Note_on_c, 9, 36, 110
1, 46464, Note_on_c, 6, 76, 117
1, 46465, Note_on_c, 9, 36, 0
1, 46465, Note_on_c, 9, 42, 0
1, 46465, Note_on_c, 0, 69, 75
1, 46465, Note_on_c, 1, 42, 99
1, 46465, Note_on_c, 0, 76, 83
1, 46465, Note_on_c, 1, 30, 97
1, 46465, Note_on_c, 0, 73, 71
1, 46467, Note_on_c, 2, 64, 88
1, 46469, Note_on_c, 2, 76, 94
1, 46479, Note_on_c, 8, 53, 0
1, 46479, Note_on_c, 8, 54, 109
1, 46481, Note_on_c, 2, 76, 0
1, 46487, Note_on_c, 2, 76, 94
1, 46490, Note_on_c, 2, 64, 0
1, 46491, Note_on_c, 2, 64, 83
1, 46503, Note_on_c, 2, 64, 0
1, 46507, Note_on_c, 8, 54, 0
1, 46510, Note_on_c, 2, 76, 0
1, 46511, Note_on_c, 9, 42, 37
1, 46511, Note_on_c, 2, 76, 95
1, 46512, Note_on_c, 9, 42, 0
1, 46513, Note_on_c, 2, 64, 82
1, 46513, Note_on_c, 8, 57, 91
1, 46527, Note_on_c, 8, 57, 0
1, 46533, Note_on_c, 2, 76, 0
1, 46534, Note_on_c, 2, 76, 96
1, 46537, Note_on_c, 2, 64, 0
1, 46538, Note_on_c, 2, 64, 99
1, 46549, Lyric_t, ""
1, 46549, Lyric_t, "\015"
1, 46555, Note_on_c, 2, 64, 0
1, 46559, Note_on_c, 2, 76, 0
1, 46559, Note_on_c, 9, 42, 110
1, 46559, Note_on_c, 2, 64, 99
1, 46560, Note_on_c, 9, 42, 0
1, 46560, Note_on_c, 9, 40, 95
1, 46560, Note_on_c, 9, 39, 110
1, 46560, Note_on_c, 9, 60, 77
1, 46561, Note_on_c, 9, 60, 0
1, 46561, Note_on_c, 9, 40, 0
1, 46561, Note_on_c, 9, 39, 0
1, 46561, Note_on_c, 2, 76, 95
1, 46565, Note_on_c, 0, 76, 0
1, 46568, Note_on_c, 0, 73, 0
1, 46568, Note_on_c, 0, 69, 0
1, 46572, Note_on_c, 1, 30, 0
1, 46575, Note_on_c, 1, 42, 0
1, 46577, Note_on_c, 2, 76, 0
1, 46581, Note_on_c, 2, 64, 0
1, 46584, Note_on_c, 8, 54, 110
1, 46589, Note_on_c, 8, 54, 0
1, 46607, Note_on_c, 6, 85, 0
1, 46607, Note_on_c, 6, 76, 0
1, 46607, Note_on_c, 6, 81, 0
1, 46607, Note_on_c, 0, 69, 78
1, 46607, Note_on_c, 0, 74, 82
1, 46607, Note_on_c, 0, 78, 73
1, 46607, Note_on_c, 8, 57, 98
1, 46607, Note_on_c, 6, 83, 108
1, 46608, Note_on_c, 6, 78, 99
1, 46608, Note_on_c, 6, 74, 100
1, 46608, Note_on_c, 1, 47, 110
1, 46608, Note_on_c, 1, 35, 98
1, 46608, Note_on_c, 9, 42, 44
1, 46608, Note_on_c, 9, 36, 91
1, 46608, Note_on_c, 2, 64, 87
1, 46609, Note_on_c, 9, 36, 0
1, 46609, Note_on_c, 9, 42, 0
1, 46610, Note_on_c, 2, 76, 95
1, 46621, Note_on_c, 2, 64, 0
1, 46622, Note_on_c, 2, 76, 0
1, 46624, Note_on_c, 8, 57, 0
1, 46626, Note_on_c, 6, 74, 0
1, 46626, Note_on_c, 6, 78, 0
1, 46630, Note_on_c, 6, 83, 0
1, 46632, Note_on_c, 8, 54, 110
1, 46637, Note_on_c, 8, 54, 0
1, 46655, Note_on_c, 9, 42, 95
1, 46656, Note_on_c, 9, 42, 0
1, 46656, Note_on_c, 9, 36, 110
1, 46657, Note_on_c, 9, 36, 0
1, 46658, Note_on_c, 2, 64, 101
1, 46659, Note_on_c, 2, 76, 82
1, 46661, Note_on_c, 8, 53, 100
1, 46675, Note_on_c, 8, 53, 0
1, 46675, Note_on_c, 8, 54, 97
1, 46682, Note_on_c, 0, 74, 0
1, 46682, Note_on_c, 0, 78, 0
1, 46694, Note_on_c, 0, 69, 0
1, 46696, Note_on_c, 1, 47, 0
1, 46698, Note_on_c, 8, 54, 0
1, 46702, Note_on_c, 1, 35, 0
1, 46703, Note_on_c, 2, 76, 0
1, 46703, Note_on_c, 1, 45, 97
1, 46703, Note_on_c, 1, 33, 100
1, 46703, Note_on_c, 9, 42, 35
1, 46704, Note_on_c, 9, 42, 0
1, 46704, Note_on_c, 6, 78, 77
1, 46704, Note_on_c, 8, 57, 96
1, 46705, Note_on_c, 0, 69, 66
1, 46705, Note_on_c, 0, 73, 75
1, 46705, Note_on_c, 0, 76, 68
1, 46706, Note_on_c, 2, 76, 97
1, 46716, Note_on_c, 0, 76, 0
1, 46717, Note_on_c, 0, 69, 0
1, 46718, Note_on_c, 8, 57, 0
1, 46719, Note_on_c, 1, 45, 0
1, 46720, Note_on_c, 0, 73, 0
1, 46720, Note_on_c, 1, 33, 0
1, 46723, Note_on_c, 2, 76, 0
1, 46727, Note_on_c, 6, 78, 0
1, 46727, Note_on_c, 2, 76, 96
1, 46728, Note_on_c, 2, 64, 0
1, 46730, Note_on_c, 2, 64, 91
1, 46749, Note_on_c, 2, 64, 0
1, 46750, Note_on_c, 8, 58, 104
1, 46751, Note_on_c, 2, 76, 0
1, 46751, Note_on_c, 1, 35, 97
1, 46751, Note_on_c, 2, 64, 98
1, 46751, Note_on_c, 9, 42, 98
1, 46752, Note_on_c, 9, 42, 0
1, 46752, Note_on_c, 9, 40, 110
1, 46752, Note_on_c, 2, 76, 95
1, 46752, Note_on_c, 9, 60, 77
1, 46752, Note_on_c, 9, 36, 110
1, 46752, Note_on_c, 9, 39, 110
1, 46752, Note_on_c, 6, 81, 110
1, 46752, Note_on_c, 1, 47, 120
1, 46753, Note_on_c, 9, 39, 0
1, 46753, Note_on_c, 9, 36, 0
1, 46753, Note_on_c, 9, 60, 0
1, 46753, Note_on_c, 9, 40, 0
1, 46753, Note_on_c, 0, 78, 71
1, 46753, Note_on_c, 0, 74, 91
1, 46753, Note_on_c, 0, 69, 84
1, 46767, Note_on_c, 8, 58, 0
1, 46767, Note_on_c, 8, 59, 84
1, 46770, Note_on_c, 2, 76, 0
1, 46776, Note_on_c, 2, 76, 97
1, 46799, Note_on_c, 6, 81, 0
1, 46800, Note_on_c, 8, 62, 111
1, 46800, Note_on_c, 6, 83, 112
1, 46801, Note_on_c, 9, 42, 42
1, 46802, Note_on_c, 9, 42, 0
1, 46802, Note_on_c, 8, 59, 0
1, 46811, Note_on_c, 0, 78, 0
1, 46817, Note_on_c, 0, 74, 0
1, 46818, Note_on_c, 6, 83, 0
1, 46820, Note_on_c, 0, 69, 0
1, 46821, Note_on_c, 2, 64, 0
1, 46822, Note_on_c, 2, 76, 0
1, 46823, Note_on_c, 8, 62, 0
1, 46838, Note_on_c, 1, 35, 0
1, 46838, Note_on_c, 1, 47, 0
1, 46848, Note_on_c, 10, 67, 85
1, 46848, Note_on_c, 0, 66, 96
1, 46848, Note_on_c, 9, 36, 110
1, 46848, Note_on_c, 10, 71, 127
1, 46848, Note_on_c, 9, 49, 96
1, 46848, Note_on_c, 1, 28, 104
1, 46848, Note_on_c, 9, 43, 89
1, 46848, Note_on_c, 6, 83, 127
1, 46849, Note_on_c, 9, 43, 0
1, 46849, Note_on_c, 9, 36, 0
1, 46849, Note_on_c, 9, 49, 0
1, 46849, Note_on_c, 1, 40, 110
1, 46849, Note_on_c, 0, 74, 82
1, 46849, Note_on_c, 0, 71, 81
1, 46849, Note_on_c, 0, 67, 81
1, 46853, Note_on_c, 6, 88, 125
1, 46895, Note_on_c, 10, 71, 0
1, 46895, Note_on_c, 10, 67, 0
1, 46895, Note_on_c, 2, 62, 81
1, 46895, Note_on_c, 8, 57, 91
1, 46895, Note_on_c, 9, 42, 37
1, 46896, Note_on_c, 9, 42, 0
1, 46897, Note_on_c, 2, 67, 99
1, 46899, Note_on_c, 2, 74, 99
1, 46901, Note_on_c, 6, 83, 0
1, 46909, Note_on_c, 6, 88, 0
1, 46911, Note_on_c, 2, 74, 0
1, 46918, Note_on_c, 2, 74, 96
1, 46920, Note_on_c, 8, 57, 0
1, 46921, Note_on_c, 8, 57, 101
1, 46937, Note_on_c, 8, 57, 0
1, 46937, Note_on_c, 2, 67, 0
1, 46941, Note_on_c, 2, 74, 0
1, 46942, Note_on_c, 2, 74, 97
1, 46942, Note_on_c, 8, 57, 111
1, 46942, Note_on_c, 2, 67, 99
1, 46943, Note_on_c, 9, 42, 110
1, 46944, Note_on_c, 9, 42, 0
1, 46944, Note_on_c, 9, 40, 95
1, 46944, Note_on_c, 9, 60, 77
1, 46944, Note_on_c, 4, 74, 47
1, 46944, Note_on_c, 9, 39, 110
1, 46945, Note_on_c, 9, 39, 0
1, 46945, Note_on_c, 9, 60, 0
1, 46945, Note_on_c, 9, 40, 0
1, 46945, Note_on_c, 3, 74, 105
1, 46945, Lyric_t, "Let "
1, 46949, Note_on_c, 2, 74, 0
1, 46951, Note_on_c, 2, 62, 0
1, 46958, Note_on_c, 2, 67, 0
1, 46959, Note_on_c, 8, 57, 0
1, 46960, Note_on_c, 1, 28, 0
1, 46962, Note_on_c, 0, 66, 0
1, 46964, Note_on_c, 1, 40, 0
1, 46967, Note_on_c, 0, 71, 0
1, 46968, Note_on_c, 0, 74, 0
1, 46969, Note_on_c, 0, 67, 0
1, 46990, Note_on_c, 3, 74, 0
1, 46991, Note_on_c, 4, 74, 0
1, 46991, Note_on_c, 8, 55, 111
1, 46991, Note_on_c, 2, 62, 90
1, 46991, Note_on_c, 3, 74, 97
1, 46991, Note_on_c, 2, 67, 101
1, 46991, Note_on_c, 0, 71, 78
1, 46991, Note_on_c, 0, 74, 76
1, 46991, Note_on_c, 1, 43, 100
1, 46991, Note_on_c, 0, 66, 78
1, 46991, Lyric_t, "this "
1, 46991, Note_on_c, 0, 67, 69
1, 46991, Note_on_c, 1, 31, 114
1, 46992, Note_on_c, 9, 42, 44
1, 46992, Note_on_c, 4, 74, 47
1, 46992, Note_on_c, 9, 36, 91
1, 46992, Note_on_c, 2, 71, 102
1, 46993, Note_on_c, 9, 36, 0
1, 46993, Note_on_c, 9, 42, 0
1, 47000, Note_on_c, 0, 67, 0
1, 47000, Note_on_c, 0, 74, 0
1, 47002, Note_on_c, 0, 71, 0
1, 47003, Note_on_c, 0, 66, 0
1, 47006, Note_on_c, 2, 62, 0
1, 47007, Note_on_c, 2, 67, 0
1, 47007, Note_on_c, 2, 71, 0
1, 47009, Note_on_c, 1, 31, 0
1, 47009, Note_on_c, 1, 43, 0
1, 47010, Note_on_c, 8, 55, 0
1, 47038, Note_on_c, 8, 54, 115
1, 47039, Note_on_c, 3, 74, 0
1, 47039, Note_on_c, 0, 71, 81
1, 47039, Note_on_c, 9, 42, 95
1, 47039, Note_on_c, 0, 67, 82
1, 47039, Lyric_t, "groove "
1, 47039, Note_on_c, 0, 74, 83
1, 47039, Note_on_c, 3, 71, 85
1, 47039, Note_on_c, 0, 66, 87
1, 47040, Note_on_c, 9, 42, 0
1, 47040, Note_on_c, 4, 74, 0
1, 47040, Note_on_c, 1, 45, 117
1, 47040, Note_on_c, 1, 33, 112
1, 47040, Note_on_c, 9, 36, 110
1, 47040, Note_on_c, 4, 71, 36
1, 47041, Note_on_c, 9, 36, 0
1, 47041, Note_on_c, 2, 62, 101
1, 47042, Note_on_c, 2, 69, 96
1, 47043, Note_on_c, 2, 71, 91
1, 47082, Note_on_c, 8, 54, 0
1, 47087, Note_on_c, 9, 42, 39
1, 47088, Note_on_c, 9, 42, 0
1, 47088, Note_on_c, 10, 67, 102
1, 47089, Note_on_c, 6, 79, 127
1, 47091, Note_on_c, 2, 71, 0
1, 47112, Note_on_c, 8, 54, 110
1, 47117, Note_on_c, 8, 54, 0
1, 47117, Note_on_c, 0, 74, 0
1, 47117, Note_on_c, 0, 71, 0
1, 47118, Note_on_c, 0, 66, 0
1, 47118, Note_on_c, 0, 67, 0
1, 47119, Note_on_c, 2, 69, 0
1, 47120, Note_on_c, 1, 33, 0
1, 47123, Note_on_c, 6, 79, 0
1, 47124, Note_on_c, 10, 67, 0
1, 47126, Note_on_c, 1, 45, 0
1, 47131, Note_on_c, 3, 71, 0
1, 47132, Note_on_c, 2, 62, 0
1, 47135, Note_on_c, 2, 67, 99
1, 47135, Note_on_c, 1, 31, 100
1, 47135, Note_on_c, 9, 42, 110
1, 47135, Note_on_c, 2, 62, 91
1, 47136, Note_on_c, 9, 42, 0
1, 47136, Note_on_c, 9, 36, 110
1, 47136, Note_on_c, 9, 40, 110
1, 47136, Note_on_c, 0, 71, 81
1, 47136, Note_on_c, 0, 74, 81
1, 47136, Note_on_c, 0, 67, 79
1, 47136, Note_on_c, 9, 60, 77
1, 47136, Note_on_c, 1, 43, 112
1, 47136, Note_on_c, 2, 71, 98
1, 47136, Note_on_c, 9, 39, 110
1, 47137, Note_on_c, 9, 39, 0
1, 47137, Note_on_c, 9, 40, 0
1, 47137, Note_on_c, 9, 60, 0
1, 47137, Note_on_c, 9, 36, 0
1, 47137, Note_on_c, 0, 66, 87
1, 47142, Note_on_c, 8, 53, 100
1, 47155, Note_on_c, 8, 53, 0
1, 47155, Note_on_c, 8, 54, 95
1, 47169, Note_on_c, 2, 67, 0
1, 47182, Note_on_c, 8, 54, 0
1, 47182, Note_on_c, 2, 62, 0
1, 47183, Note_on_c, 4, 71, 0
1, 47184, Note_on_c, 10, 69, 104
1, 47184, Note_on_c, 8, 57, 101
1, 47185, Note_on_c, 2, 71, 0
1, 47185, Note_on_c, 6, 81, 117
1, 47185, Note_on_c, 9, 42, 42
1, 47186, Note_on_c, 9, 42, 0
1, 47196, Note_on_c, 0, 66, 0
1, 47202, Note_on_c, 0, 67, 0
1, 47203, Note_on_c, 0, 71, 0
1, 47204, Note_on_c, 8, 57, 0
1, 47204, Note_on_c, 0, 74, 0
1, 47212, Note_on_c, 1, 31, 0
1, 47215, Note_on_c, 1, 43, 0
1, 47221, Note_on_c, 10, 69, 0
1, 47224, Control_c, 10, 11, 64
1, 47226, Note_on_c, 6, 81, 0
1, 47232, Note_on_c, 6, 81, 126
1, 47232, Note_on_c, 3, 66, 82
1, 47232, Note_on_c, 4, 66, 27
1, 47232, Note_on_c, 9, 36, 110
1, 47232, Control_c, 10, 11, 65
1, 47232, Lyric_t, "light "
1, 47232, Note_on_c, 9, 42, 96
1, 47232, Note_on_c, 10, 69, 107
1, 47233, Note_on_c, 9, 42, 0
1, 47233, Note_on_c, 9, 36, 0
1, 47233, Note_on_c, 0, 76, 83
1, 47233, Note_on_c, 1, 30, 97
1, 47233, Note_on_c, 0, 69, 75
1, 47233, Note_on_c, 0, 73, 71
1, 47233, Note_on_c, 1, 42, 99
1, 47234, Note_on_c, 2, 64, 97
1, 47234, Note_on_c, 2, 69, 97
1, 47235, Note_on_c, 2, 73, 40
1, 47238, Note_on_c, 8, 53, 106
1, 47240, Control_c, 10, 11, 66
1, 47244, Control_c, 10, 11, 67
1, 47252, Control_c, 10, 11, 68
1, 47255, Note_on_c, 8, 53, 0
1, 47255, Note_on_c, 8, 54, 101
1, 47256, Control_c, 10, 11, 69
1, 47264, Control_c, 10, 11, 70
1, 47268, Control_c, 10, 11, 71
1, 47275, Note_on_c, 8, 54, 0
1, 47276, Control_c, 10, 11, 72
1, 47279, Note_on_c, 3, 66, 0
1, 47279, Note_on_c, 3, 69, 76
1, 47279, Note_on_c, 9, 42, 37
1, 47279, Lyric_t, "up "
1, 47280, Note_on_c, 9, 42, 0
1, 47280, Note_on_c, 4, 66, 0
1, 47280, Note_on_c, 4, 69, 22
1, 47280, Note_on_c, 8, 57, 98
1, 47280, Control_c, 10, 11, 73
1, 47288, Control_c, 10, 11, 74
1, 47292, Control_c, 10, 11, 75
1, 47295, Note_on_c, 8, 57, 0
1, 47300, Control_c, 10, 11, 76
1, 47305, Note_on_c, 2, 64, 0
1, 47306, Note_on_c, 2, 73, 0
1, 47307, Note_on_c, 2, 69, 0
1, 47307, Note_on_c, 2, 73, 103
1, 47308, Note_on_c, 2, 69, 97
1, 47308, Control_c, 10, 11, 77
1, 47309, Note_on_c, 2, 64, 74
1, 47312, Control_c, 10, 11, 78
1, 47320, Control_c, 10, 11, 79
1, 47322, Note_on_c, 2, 64, 0
1, 47324, Control_c, 10, 11, 80
1, 47327, Note_on_c, 3, 69, 0
1, 47327, Note_on_c, 9, 42, 110
1, 47327, Note_on_c, 3, 73, 80
1, 47327, Lyric_t, "your "
1, 47328, Note_on_c, 9, 42, 0
1, 47328, Note_on_c, 4, 69, 0
1, 47328, Note_on_c, 9, 60, 77
1, 47328, Note_on_c, 4, 73, 34
1, 47328, Note_on_c, 9, 39, 110
1, 47328, Note_on_c, 9, 40, 95
1, 47329, Note_on_c, 9, 40, 0
1, 47329, Note_on_c, 2, 73, 0
1, 47329, Note_on_c, 9, 39, 0
1, 47329, Note_on_c, 9, 60, 0
1, 47332, Control_c, 10, 11, 81
1, 47333, Note_on_c, 2, 69, 0
1, 47333, Note_on_c, 0, 76, 0
1, 47336, Note_on_c, 0, 73, 0
1, 47336, Note_on_c, 0, 69, 0
1, 47336, Control_c, 10, 11, 82
1, 47340, Note_on_c, 1, 30, 0
1, 47343, Note_on_c, 1, 42, 0
1, 47344, Control_c, 10, 11, 83
1, 47348, Control_c, 10, 11, 84
1, 47356, Control_c, 10, 11, 85
1, 47360, Control_c, 10, 11, 86
1, 47368, Control_c, 10, 11, 87
1, 47372, Control_c, 10, 11, 88
1, 47374, Note_on_c, 3, 73, 0
1, 47375, Note_on_c, 0, 78, 73
1, 47375, Lyric_t, ""
1, 47375, Lyric_t, "\015"
1, 47375, Note_on_c, 3, 71, 91
1, 47375, Lyric_t, "fuse, "
1, 47375, Note_on_c, 0, 69, 78
1, 47375, Note_on_c, 2, 59, 30
1, 47375, Note_on_c, 0, 74, 82
1, 47376, Note_on_c, 4, 73, 0
1, 47376, Note_on_c, 8, 57, 109
1, 47376, Note_on_c, 4, 71, 26
1, 47376, Note_on_c, 1, 35, 98
1, 47376, Note_on_c, 9, 36, 91
1, 47376, Note_on_c, 2, 62, 99
1, 47376, Note_on_c, 9, 42, 44
1, 47376, Note_on_c, 1, 47, 110
1, 47377, Note_on_c, 9, 42, 0
1, 47377, Note_on_c, 9, 36, 0
1, 47378, Note_on_c, 2, 71, 103
1, 47378, Note_on_c, 2, 66, 103
1, 47380, Control_c, 10, 11, 89
1, 47388, Control_c, 10, 11, 90
1, 47392, Control_c, 10, 11, 91
1, 47395, Note_on_c, 8, 57, 0
1, 47400, Control_c, 10, 11, 92
1, 47400, Note_on_c, 8, 54, 110
1, 47404, Control_c, 10, 11, 93
1, 47405, Note_on_c, 8, 54, 0
1, 47412, Control_c, 10, 11, 94
1, 47416, Control_c, 10, 11, 95
1, 47422, Note_on_c, 2, 71, 0
1, 47423, Note_on_c, 9, 42, 95
1, 47424, Note_on_c, 9, 42, 0
1, 47424, Note_on_c, 9, 36, 110
1, 47424, Control_c, 10, 11, 96
1, 47425, Note_on_c, 9, 36, 0
1, 47428, Control_c, 10, 11, 97
1, 47429, Note_on_c, 2, 66, 0
1, 47430, Note_on_c, 8, 53, 95
1, 47432, Note_on_c, 2, 62, 0
1, 47436, Note_on_c, 2, 59, 0
1, 47436, Control_c, 10, 11, 98
1, 47440, Control_c, 10, 11, 99
1, 47446, Note_on_c, 8, 53, 0
1, 47446, Note_on_c, 8, 54, 89
1, 47448, Control_c, 10, 11, 100
1, 47450, Note_on_c, 0, 74, 0
1, 47450, Note_on_c, 0, 78, 0
1, 47450, Note_on_c, 2, 64, 76
1, 47452, Control_c, 10, 11, 101
1, 47458, Note_on_c, 2, 64, 0
1, 47460, Control_c, 10, 11, 102
1, 47462, Note_on_c, 0, 69, 0
1, 47464, Note_on_c, 1, 47, 0
1, 47468, Note_on_c, 8, 54, 0
1, 47468, Control_c, 10, 11, 103
1, 47470, Note_on_c, 3, 71, 0
1, 47470, Note_on_c, 1, 35, 0
1, 47471, Note_on_c, 9, 42, 39
1, 47471, Lyric_t, "it's "
1, 47471, Note_on_c, 1, 33, 100
1, 47471, Note_on_c, 1, 45, 97
1, 47471, Note_on_c, 3, 69, 72
1, 47472, Note_on_c, 9, 42, 0
1, 47472, Note_on_c, 4, 71, 0
1, 47472, Note_on_c, 2, 61, 87
1, 47472, Note_on_c, 4, 69, 12
1, 47472, Note_on_c, 8, 57, 88
1, 47472, Control_c, 10, 11, 104
1, 47473, Note_on_c, 0, 76, 68
1, 47473, Note_on_c, 0, 69, 66
1, 47473, Note_on_c, 0, 73, 75
1, 47474, Note_on_c, 2, 64, 96
1, 47480, Control_c, 10, 11, 105
1, 47484, Note_on_c, 0, 76, 0
1, 47484, Control_c, 10, 11, 106
1, 47485, Note_on_c, 0, 69, 0
1, 47487, Note_on_c, 1, 45, 0
1, 47488, Note_on_c, 8, 57, 0
1, 47488, Note_on_c, 1, 33, 0
1, 47488, Note_on_c, 0, 73, 0
1, 47492, Control_c, 10, 11, 107
1, 47496, Control_c, 10, 11, 108
1, 47504, Control_c, 10, 11, 109
1, 47508, Control_c, 10, 11, 110
1, 47516, Note_on_c, 2, 64, 0
1, 47516, Control_c, 10, 11, 111
1, 47518, Note_on_c, 3, 69, 0
1, 47518, Note_on_c, 2, 61, 0
1, 47519, Note_on_c, 9, 42, 110
1, 47519, Note_on_c, 3, 74, 101
1, 47519, Lyric_t, "all "
1, 47519, Note_on_c, 1, 35, 97
1, 47520, Note_on_c, 9, 42, 0
1, 47520, Note_on_c, 4, 69, 0
1, 47520, Note_on_c, 4, 74, 35
1, 47520, Note_on_c, 9, 60, 77
1, 47520, Note_on_c, 8, 58, 98
1, 47520, Note_on_c, 1, 47, 120
1, 47520, Note_on_c, 9, 39, 110
1, 47520, Note_on_c, 9, 40, 110
1, 47520, Note_on_c, 9, 36, 110
1, 47520, Control_c, 10, 11, 112
1, 47521, Note_on_c, 9, 36, 0
1, 47521, Note_on_c, 9, 60, 0
1, 47521, Note_on_c, 9, 40, 0
1, 47521, Note_on_c, 9, 39, 0
1, 47521, Note_on_c, 0, 74, 91
1, 47521, Note_on_c, 0, 78, 71
1, 47521, Note_on_c, 2, 62, 100
1, 47521, Note_on_c, 0, 69, 84
1, 47522, Note_on_c, 2, 66, 102
1, 47528, Control_c, 10, 11, 113
1, 47532, Note_on_c, 8, 58, 0
1, 47532, Note_on_c, 8, 59, 97
1, 47532, Control_c, 10, 11, 114
1, 47540, Control_c, 10, 11, 115
1, 47542, Note_on_c, 2, 66, 0
1, 47544, Note_on_c, 2, 62, 0
1, 47548, Control_c, 10, 11, 116
1, 47552, Control_c, 10, 11, 117
1, 47560, Control_c, 10, 11, 118
1, 47564, Control_c, 10, 11, 119
1, 47565, Note_on_c, 8, 59, 0
1, 47567, Note_on_c, 8, 62, 113
1, 47569, Note_on_c, 9, 42, 42
1, 47570, Note_on_c, 9, 42, 0
1, 47572, Control_c, 10, 11, 120
1, 47576, Control_c, 10, 11, 121
1, 47579, Note_on_c, 0, 78, 0
1, 47584, Control_c, 10, 11, 122
1, 47585, Note_on_c, 0, 74, 0
1, 47587, Note_on_c, 8, 62, 0
1, 47588, Note_on_c, 0, 69, 0
1, 47588, Control_c, 10, 11, 123
1, 47596, Control_c, 10, 11, 124
1, 47600, Control_c, 10, 11, 125
1, 47604, Note_on_c, 6, 81, 0
1, 47606, Note_on_c, 1, 47, 0
1, 47606, Note_on_c, 10, 69, 0
1, 47606, Note_on_c, 1, 35, 0
1, 47608, Control_c, 10, 11, 126
1, 47610, Note_on_c, 3, 74, 0
1, 47612, Control_c, 10, 11, 127
1, 47616, Note_on_c, 4, 74, 0
1, 47616, Lyric_t, "right, "
1, 47616, Note_on_c, 3, 71, 73
1, 47616, Note_on_c, 4, 71, 1
1, 47616, Note_on_c, 1, 28, 104
1, 47616, Note_on_c, 9, 36, 110
1, 47616, Note_on_c, 9, 42, 96
1, 47616, Note_on_c, 0, 66, 96
1, 47617, Note_on_c, 9, 42, 0
1, 47617, Note_on_c, 9, 36, 0
1, 47617, Note_on_c, 0, 71, 81
1, 47617, Note_on_c, 1, 40, 110
1, 47617, Note_on_c, 0, 74, 82
1, 47617, Note_on_c, 0, 67, 81
1, 47617, Note_on_c, 9, 43, 86
1, 47618, Note_on_c, 9, 43, 0
1, 47663, Note_on_c, 9, 42, 37
1, 47663, Note_on_c, 8, 57, 86
1, 47664, Note_on_c, 9, 42, 0
1, 47666, Note_on_c, 2, 59, 21
1, 47667, Note_on_c, 2, 62, 97
1, 47668, Note_on_c, 3, 71, 0
1, 47668, Note_on_c, 2, 67, 100
1, 47669, Note_on_c, 2, 74, 97
1, 47685, Note_on_c, 8, 57, 0
1, 47687, Note_on_c, 2, 74, 0
1, 47687, Note_on_c, 8, 57, 96
1, 47689, Note_on_c, 2, 67, 0
1, 47690, Note_on_c, 2, 74, 98
1, 47692, Note_on_c, 2, 67, 99
1, 47706, Note_on_c, 8, 57, 0
1, 47709, Note_on_c, 2, 67, 0
1, 47710, Note_on_c, 2, 74, 0
1, 47711, Note_on_c, 9, 42, 110
1, 47711, Note_on_c, 8, 57, 88
1, 47712, Note_on_c, 9, 42, 0
1, 47712, Note_on_c, 4, 71, 0
1, 47712, Note_on_c, 9, 60, 77
1, 47712, Note_on_c, 2, 67, 101
1, 47712, Note_on_c, 9, 39, 110
1, 47712, Note_on_c, 4, 74, 37
1, 47712, Note_on_c, 9, 40, 95
1, 47713, Note_on_c, 9, 40, 0
1, 47713, Note_on_c, 9, 39, 0
1, 47713, Note_on_c, 9, 60, 0
1, 47713, Lyric_t, "all "
1, 47713, Note_on_c, 3, 74, 103
1, 47713, Note_on_c, 2, 74, 99
1, 47718, Note_on_c, 2, 62, 0
1, 47719, Note_on_c, 2, 74, 0
1, 47724, Note_on_c, 2, 59, 0
1, 47728, Note_on_c, 8, 57, 0
1, 47728, Note_on_c, 2, 67, 0
1, 47728, Note_on_c, 1, 28, 0
1, 47730, Note_on_c, 0, 66, 0
1, 47732, Note_on_c, 1, 40, 0
1, 47735, Note_on_c, 0, 71, 0
1, 47736, Note_on_c, 0, 74, 0
1, 47737, Note_on_c, 0, 67, 0
1, 47759, Note_on_c, 1, 43, 100
1, 47759, Note_on_c, 0, 67, 69
1, 47759, Note_on_c, 0, 74, 76
1, 47759, Note_on_c, 1, 31, 114
1, 47759, Note_on_c, 0, 66, 78
1, 47759, Note_on_c, 8, 55, 104
1, 47759, Note_on_c, 0, 71, 78
1, 47760, Note_on_c, 9, 36, 91
1, 47760, Note_on_c, 9, 42, 44
1, 47761, Note_on_c, 9, 42, 0
1, 47761, Note_on_c, 9, 36, 0
1, 47761, Note_on_c, 2, 62, 94
1, 47762, Note_on_c, 2, 67, 101
1, 47763, Note_on_c, 2, 71, 101
1, 47768, Note_on_c, 0, 67, 0
1, 47768, Note_on_c, 0, 74, 0
1, 47770, Note_on_c, 0, 71, 0
1, 47771, Note_on_c, 0, 66, 0
1, 47775, Note_on_c, 2, 62, 0
1, 47776, Note_on_c, 8, 55, 0
1, 47776, Note_on_c, 2, 71, 0
1, 47777, Note_on_c, 1, 43, 0
1, 47777, Note_on_c, 2, 67, 0
1, 47777, Note_on_c, 1, 31, 0
1, 47802, Note_on_c, 3, 74, 0
1, 47807, Note_on_c, 2, 59, 33
1, 47807, Note_on_c, 0, 67, 82
1, 47807, Note_on_c, 0, 74, 83
1, 47807, Note_on_c, 8, 54, 111
1, 47807, Note_on_c, 9, 42, 95
1, 47807, Note_on_c, 1, 33, 112
1, 47807, Note_on_c, 0, 71, 81
1, 47807, Note_on_c, 0, 66, 87
1, 47807, Note_on_c, 6, 83, 117
1, 47807, Note_on_c, 1, 45, 117
1, 47808, Note_on_c, 9, 42, 0
1, 47808, Note_on_c, 4, 74, 0
1, 47808, Note_on_c, 4, 71, 10
1, 47808, Note_on_c, 9, 36, 110
1, 47809, Note_on_c, 9, 36, 0
1, 47809, Lyric_t, "right, "
1, 47809, Note_on_c, 2, 62, 101
1, 47809, Note_on_c, 3, 71, 81
1, 47810, Note_on_c, 2, 69, 97
1, 47811, Note_on_c, 2, 71, 100
1, 47845, Note_on_c, 8, 54, 0
1, 47854, Note_on_c, 6, 83, 0
1, 47855, Note_on_c, 9, 42, 39
1, 47856, Note_on_c, 9, 42, 0
1, 47856, Note_on_c, 8, 54, 110
1, 47857, Note_on_c, 6, 81, 97
1, 47861, Note_on_c, 8, 54, 0
1, 47866, Note_on_c, 2, 71, 0
1, 47873, Note_on_c, 6, 81, 0
1, 47876, Note_on_c, 2, 69, 0
1, 47880, Note_on_c, 8, 54, 110
1, 47881, Note_on_c, 2, 69, 82
1, 47885, Note_on_c, 8, 54, 0
1, 47885, Note_on_c, 0, 71, 0
1, 47885, Note_on_c, 0, 74, 0
1, 47886, Note_on_c, 0, 66, 0
1, 47886, Note_on_c, 0, 67, 0
1, 47887, Note_on_c, 1, 33, 0
1, 47892, Note_on_c, 2, 69, 0
1, 47893, Note_on_c, 1, 45, 0
1, 47901, Note_on_c, 8, 53, 101
1, 47902, Note_on_c, 2, 62, 0
1, 47903, Note_on_c, 9, 42, 110
1, 47903, Note_on_c, 2, 62, 96
1, 47903, Note_on_c, 1, 31, 100
1, 47903, Note_on_c, 1, 43, 112
1, 47904, Note_on_c, 9, 42, 0
1, 47904, Note_on_c, 9, 36, 110
1, 47904, Note_on_c, 9, 40, 110
1, 47904, Note_on_c, 0, 71, 81
1, 47904, Note_on_c, 0, 67, 79
1, 47904, Note_on_c, 2, 67, 99
1, 47904, Note_on_c, 0, 74, 81
1, 47904, Note_on_c, 9, 60, 77
1, 47904, Note_on_c, 9, 39, 110
1, 47905, Note_on_c, 9, 39, 0
1, 47905, Note_on_c, 9, 36, 0
1, 47905, Note_on_c, 9, 60, 0
1, 47905, Note_on_c, 9, 40, 0
1, 47905, Note_on_c, 0, 66, 87
1, 47905, Note_on_c, 6, 78, 114
1, 47906, Note_on_c, 3, 71, 0
1, 47906, Note_on_c, 2, 71, 82
1, 47921, Note_on_c, 8, 53, 0
1, 47921, Note_on_c, 8, 54, 97
1, 47944, Note_on_c, 2, 62, 0
1, 47945, Note_on_c, 2, 71, 0
1, 47947, Note_on_c, 2, 59, 0
1, 47948, Note_on_c, 8, 54, 0
1, 47949, Note_on_c, 2, 67, 0
1, 47951, Note_on_c, 8, 57, 93
1, 47952, Note_on_c, 6, 78, 0
1, 47953, Note_on_c, 6, 74, 86
1, 47953, Note_on_c, 9, 42, 42
1, 47954, Note_on_c, 9, 42, 0
1, 47956, Note_on_c, 4, 71, 0
1, 47964, Note_on_c, 0, 66, 0
1, 47969, Note_on_c, 8, 57, 0
1, 47970, Note_on_c, 0, 67, 0
1, 47971, Note_on_c, 6, 74, 0
1, 47971, Note_on_c, 0, 71, 0
1, 47972, Note_on_c, 0, 74, 0
1, 47980, Note_on_c, 1, 31, 0
1, 47982, Note_on_c, 1, 43, 0
1, 47997, Note_on_c, 8, 53, 111
1, 47999, Note_on_c, 10, 61, 87
1, 47999, Note_on_c, 3, 73, 103
1, 47999, Note_on_c, 10, 57, 73
1, 47999, Lyric_t, "all "
1, 47999, Note_on_c, 10, 64, 87
1, 48000, Note_on_c, 2, 63, 101
1, 48000, Note_on_c, 6, 76, 119
1, 48000, Note_on_c, 9, 36, 110
1, 48000, Note_on_c, 4, 73, 49
1, 48000, Note_on_c, 9, 42, 96
1, 48001, Note_on_c, 9, 42, 0
1, 48001, Note_on_c, 9, 36, 0
1, 48001, Note_on_c, 0, 69, 75
1, 48001, Note_on_c, 1, 30, 97
1, 48001, Note_on_c, 0, 76, 83
1, 48001, Note_on_c, 2, 68, 92
1, 48001, Note_on_c, 1, 42, 99
1, 48001, Note_on_c, 0, 73, 71
1, 48002, Note_on_c, 2, 72, 96
1, 48020, Note_on_c, 8, 53, 0
1, 48020, Note_on_c, 8, 54, 80
1, 48024, Note_on_c, 2, 72, 0
1, 48025, Note_on_c, 2, 73, 92
1, 48025, Note_on_c, 2, 69, 92
1, 48026, Note_on_c, 2, 68, 0
1, 48026, Note_on_c, 2, 64, 97
1, 48027, Note_on_c, 2, 63, 0
1, 48043, Note_on_c, 8, 54, 0
1, 48047, Note_on_c, 3, 73, 0
1, 48047, Note_on_c, 9, 42, 37
1, 48047, Note_on_c, 3, 69, 57
1, 48047, Note_on_c, 8, 57, 89
1, 48048, Note_on_c, 9, 42, 0
1, 48048, Note_on_c, 4, 73, 0
1, 48048, Note_on_c, 4, 69, 20
1, 48062, Note_on_c, 8, 57, 0
1, 48073, Note_on_c, 2, 69, 0
1, 48073, Note_on_c, 2, 73, 0
1, 48077, Note_on_c, 2, 73, 100
1, 48078, Note_on_c, 2, 69, 97
1, 48095, Note_on_c, 2, 69, 0
1, 48095, Note_on_c, 3, 69, 0
1, 48095, Note_on_c, 9, 42, 110
1, 48095, Note_on_c, 3, 66, 45
1, 48096, Note_on_c, 9, 42, 0
1, 48096, Note_on_c, 4, 69, 0
1, 48096, Note_on_c, 2, 73, 0
1, 48096, Note_on_c, 4, 66, 6
1, 48096, Note_on_c, 9, 40, 95
1, 48096, Note_on_c, 9, 39, 110
1, 48096, Note_on_c, 9, 60, 77
1, 48097, Note_on_c, 9, 60, 0
1, 48097, Note_on_c, 9, 39, 0
1, 48097, Note_on_c, 9, 40, 0
1, 48099, Note_on_c, 2, 64, 0
1, 48101, Note_on_c, 0, 76, 0
1, 48104, Note_on_c, 0, 73, 0
1, 48104, Note_on_c, 0, 69, 0
1, 48108, Note_on_c, 1, 30, 0
1, 48111, Note_on_c, 1, 42, 0
1, 48123, Note_on_c, 10, 64, 0
1, 48125, Note_on_c, 10, 57, 0
1, 48126, Note_on_c, 10, 61, 0
1, 48138, Note_on_c, 6, 76, 0
1, 48142, Note_on_c, 3, 66, 0
1, 48143, Lyric_t, "right, "
1, 48143, Note_on_c, 0, 74, 82
1, 48143, Note_on_c, 0, 78, 73
1, 48143, Note_on_c, 6, 74, 112
1, 48143, Note_on_c, 3, 71, 85
1, 48143, Note_on_c, 0, 69, 78
1, 48144, Note_on_c, 4, 66, 0
1, 48144, Note_on_c, 9, 36, 91
1, 48144, Note_on_c, 4, 71, 28
1, 48144, Note_on_c, 1, 47, 110
1, 48144, Note_on_c, 10, 57, 91
1, 48144, Note_on_c, 8, 57, 98
1, 48144, Note_on_c, 9, 42, 44
1, 48144, Note_on_c, 10, 66, 104
1, 48144, Note_on_c, 1, 35, 98
1, 48144, Note_on_c, 10, 62, 100
1, 48145, Note_on_c, 9, 42, 0
1, 48145, Note_on_c, 9, 36, 0
1, 48146, Note_on_c, 2, 62, 87
1, 48147, Note_on_c, 2, 66, 103
1, 48159, Note_on_c, 8, 57, 0
1, 48165, Note_on_c, 10, 66, 0
1, 48167, Note_on_c, 6, 74, 0
1, 48168, Note_on_c, 8, 54, 110
1, 48169, Note_on_c, 10, 57, 0
1, 48169, Note_on_c, 10, 62, 0
1, 48173, Note_on_c, 8, 54, 0
1, 48188, Note_on_c, 8, 52, 110
1, 48191, Note_on_c, 9, 42, 95
1, 48192, Note_on_c, 9, 42, 0
1, 48192, Note_on_c, 9, 36, 110
1, 48193, Note_on_c, 9, 36, 0
1, 48197, Note_on_c, 8, 52, 0
1, 48197, Note_on_c, 8, 53, 106
1, 48213, Note_on_c, 8, 53, 0
1, 48213, Note_on_c, 8, 54, 105
1, 48218, Note_on_c, 0, 74, 0
1, 48218, Note_on_c, 0, 78, 0
1, 48229, Note_on_c, 2, 62, 0
1, 48230, Note_on_c, 0, 69, 0
1, 48232, Note_on_c, 1, 47, 0
1, 48232, Note_on_c, 8, 54, 0
1, 48233, Note_on_c, 2, 66, 0
1, 48238, Note_on_c, 3, 71, 0
1, 48238, Note_on_c, 1, 35, 0
1, 48239, Note_on_c, 1, 45, 97
1, 48239, Note_on_c, 9, 42, 39
1, 48239, Note_on_c, 1, 33, 100
1, 48240, Note_on_c, 9, 42, 0
1, 48240, Note_on_c, 4, 71, 0
1, 48240, Note_on_c, 2, 61, 94
1, 48240, Note_on_c, 3, 74, 76
1, 48240, Note_on_c, 8, 57, 80
1, 48240, Lyric_t, ""
1, 48240, Lyric_t, "\015"
1, 48240, Note_on_c, 4, 74, 28
1, 48240, Lyric_t, "oh. "
1, 48241, Note_on_c, 2, 64, 101
1, 48241, Note_on_c, 6, 78, 104
1, 48241, Note_on_c, 0, 69, 66
1, 48241, Note_on_c, 0, 73, 75
1, 48241, Note_on_c, 0, 76, 68
1, 48252, Note_on_c, 0, 76, 0
1, 48253, Note_on_c, 0, 69, 0
1, 48254, Note_on_c, 8, 57, 0
1, 48255, Note_on_c, 1, 45, 0
1, 48256, Note_on_c, 1, 33, 0
1, 48256, Note_on_c, 0, 73, 0
1, 48264, Note_on_c, 6, 78, 0
1, 48285, Note_on_c, 8, 58, 97
1, 48286, Note_on_c, 2, 64, 0
1, 48287, Note_on_c, 2, 61, 0
1, 48287, Note_on_c, 1, 35, 97
1, 48287, Note_on_c, 2, 62, 81
1, 48287, Note_on_c, 9, 42, 110
1, 48288, Note_on_c, 9, 42, 0
1, 48288, Note_on_c, 4, 74, 0
1, 48288, Note_on_c, 3, 71, 52
1, 48288, Note_on_c, 9, 40, 110
1, 48288, Note_on_c, 9, 39, 110
1, 48288, Note_on_c, 9, 60, 77
1, 48288, Note_on_c, 4, 71, 11
1, 48288, Note_on_c, 9, 36, 110
1, 48288, Note_on_c, 1, 47, 120
1, 48289, Note_on_c, 9, 36, 0
1, 48289, Note_on_c, 9, 60, 0
1, 48289, Note_on_c, 9, 39, 0
1, 48289, Note_on_c, 9, 40, 0
1, 48289, Note_on_c, 0, 69, 84
1, 48289, Note_on_c, 6, 81, 112
1, 48289, Note_on_c, 0, 74, 91
1, 48289, Note_on_c, 2, 66, 103
1, 48289, Note_on_c, 0, 78, 71
1, 48290, Note_on_c, 3, 74, 0
1, 48301, Note_on_c, 8, 58, 0
1, 48301, Note_on_c, 8, 59, 82
1, 48304, Note_on_c, 2, 62, 0
1, 48311, Note_on_c, 2, 66, 0
1, 48321, Lyric_t, ""
1, 48321, Lyric_t, "\015"
1, 48333, Note_on_c, 8, 59, 0
1, 48334, Note_on_c, 8, 62, 107
1, 48336, Note_on_c, 6, 81, 0
1, 48336, Note_on_c, 4, 71, 0
1, 48336, Note_on_c, 3, 74, 69
1, 48336, Note_on_c, 4, 74, 28
1, 48337, Note_on_c, 3, 71, 0
1, 48337, Note_on_c, 6, 83, 119
1, 48337, Note_on_c, 9, 42, 42
1, 48338, Note_on_c, 9, 42, 0
1, 48347, Note_on_c, 0, 78, 0
1, 48353, Note_on_c, 0, 74, 0
1, 48355, Note_on_c, 6, 83, 0
1, 48356, Note_on_c, 0, 69, 0
1, 48358, Note_on_c, 8, 62, 0
1, 48374, Note_on_c, 1, 47, 0
1, 48374, Note_on_c, 1, 35, 0
1, 48383, Note_on_c, 3, 74, 0
1, 48384, Note_on_c, 9, 42, 96
1, 48384, Note_on_c, 0, 66, 96
1, 48384, Note_on_c, 1, 28, 104
1, 48384, Note_on_c, 6, 83, 127
1, 48384, Note_on_c, 10, 76, 127
1, 48384, Note_on_c, 9, 36, 110
1, 48385, Note_on_c, 9, 36, 0
1, 48385, Note_on_c, 9, 42, 0
1, 48385, Note_on_c, 0, 71, 81
1, 48385, Note_on_c, 0, 67, 81
1, 48385, Note_on_c, 9, 43, 84
1, 48385, Note_on_c, 1, 40, 110
1, 48385, Note_on_c, 0, 74, 82
1, 48386, Note_on_c, 9, 43, 0
1, 48420, Note_on_c, 6, 82, 105
1, 48428, Note_on_c, 6, 83, 0
1, 48428, Note_on_c, 6, 81, 101
1, 48428, Note_on_c, 10, 75, 112
1, 48431, Note_on_c, 4, 74, 0
1, 48431, Note_on_c, 10, 76, 0
1, 48431, Note_on_c, 9, 42, 37
1, 48431, Note_on_c, 8, 57, 84
1, 48432, Note_on_c, 9, 42, 0
1, 48433, Note_on_c, 6, 80, 96
1, 48433, Note_on_c, 2, 59, 63
1, 48434, Note_on_c, 2, 62, 97
1, 48435, Note_on_c, 2, 74, 99
1, 48435, Note_on_c, 2, 67, 99
1, 48436, Note_on_c, 6, 82, 0
1, 48436, Note_on_c, 10, 74, 106
1, 48439, Note_on_c, 6, 81, 0
1, 48440, Note_on_c, 6, 79, 89
1, 48440, Note_on_c, 10, 73, 103
1, 48442, Note_on_c, 10, 75, 0
1, 48445, Note_on_c, 6, 80, 0
1, 48445, Note_on_c, 6, 78, 81
1, 48448, Note_on_c, 6, 79, 0
1, 48448, Note_on_c, 10, 74, 0
1, 48448, Note_on_c, 10, 72, 99
1, 48451, Note_on_c, 10, 73, 0
1, 48451, Note_on_c, 6, 78, 0
1, 48451, Note_on_c, 6, 77, 78
1, 48452, Note_on_c, 8, 57, 0
1, 48452, Note_on_c, 2, 74, 0
1, 48455, Note_on_c, 6, 77, 0
1, 48455, Note_on_c, 6, 76, 76
1, 48456, Note_on_c, 8, 57, 97
1, 48456, Note_on_c, 10, 71, 93
1, 48457, Note_on_c, 2, 67, 0
1, 48457, Note_on_c, 10, 72, 0
1, 48458, Note_on_c, 2, 74, 94
1, 48458, Note_on_c, 2, 67, 99
1, 48460, Note_on_c, 6, 76, 0
1, 48460, Note_on_c, 10, 70, 90
1, 48462, Note_on_c, 10, 71, 0
1, 48462, Note_on_c, 6, 75, 76
1, 48467, Note_on_c, 6, 75, 0
1, 48467, Note_on_c, 10, 70, 0
1, 48469, Note_on_c, 10, 69, 86
1, 48474, Note_on_c, 8, 57, 0
1, 48475, Note_on_c, 2, 62, 0
1, 48476, Note_on_c, 10, 69, 0
1, 48476, Note_on_c, 2, 67, 0
1, 48478, Note_on_c, 2, 74, 0
1, 48478, Note_on_c, 2, 62, 81
1, 48479, Note_on_c, 8, 57, 95
1, 48479, Note_on_c, 2, 74, 97
1, 48479, Note_on_c, 9, 42, 110
1, 48479, Note_on_c, 2, 67, 100
1, 48480, Note_on_c, 9, 42, 0
1, 48480, Note_on_c, 9, 40, 95
1, 48480, Note_on_c, 4, 74, 40
1, 48480, Note_on_c, 9, 60, 77
1, 48480, Note_on_c, 9, 39, 110
1, 48481, Note_on_c, 9, 39, 0
1, 48481, Note_on_c, 9, 60, 0
1, 48481, Note_on_c, 9, 40, 0
1, 48481, Lyric_t, "Let "
1, 48481, Note_on_c, 3, 74, 84
1, 48489, Note_on_c, 2, 59, 0
1, 48489, Note_on_c, 2, 74, 0
1, 48492, Note_on_c, 2, 62, 0
1, 48495, Note_on_c, 2, 67, 0
1, 48496, Note_on_c, 8, 57, 0
1, 48496, Note_on_c, 1, 28, 0
1, 48498, Note_on_c, 0, 66, 0
1, 48500, Note_on_c, 1, 40, 0
1, 48503, Note_on_c, 0, 71, 0
1, 48504, Note_on_c, 0, 74, 0
1, 48505, Note_on_c, 0, 67, 0
1, 48527, Note_on_c, 4, 74, 0
1, 48527, Note_on_c, 3, 74, 0
1, 48527, Note_on_c, 0, 66, 78
1, 48527, Note_on_c, 1, 31, 114
1, 48527, Note_on_c, 0, 71, 78
1, 48527, Note_on_c, 2, 62, 87
1, 48527, Note_on_c, 0, 74, 76
1, 48527, Note_on_c, 1, 43, 100
1, 48527, Note_on_c, 0, 67, 69
1, 48528, Note_on_c, 4, 74, 47
1, 48528, Note_on_c, 9, 36, 91
1, 48528, Note_on_c, 2, 69, 94
1, 48528, Note_on_c, 9, 42, 44
1, 48529, Note_on_c, 9, 42, 0
1, 48529, Note_on_c, 9, 36, 0
1, 48529, Note_on_c, 3, 74, 83
1, 48529, Lyric_t, "this "
1, 48529, Note_on_c, 8, 55, 96
1, 48530, Note_on_c, 2, 71, 90
1, 48536, Note_on_c, 0, 67, 0
1, 48536, Note_on_c, 0, 74, 0
1, 48538, Note_on_c, 0, 71, 0
1, 48539, Note_on_c, 0, 66, 0
1, 48542, Note_on_c, 2, 62, 0
1, 48543, Note_on_c, 8, 55, 0
1, 48543, Note_on_c, 2, 71, 0
1, 48545, Note_on_c, 1, 31, 0
1, 48545, Note_on_c, 1, 43, 0
1, 48549, Note_on_c, 2, 69, 0
1, 48575, Note_on_c, 3, 74, 0
1, 48575, Note_on_c, 0, 71, 81
1, 48575, Note_on_c, 0, 74, 83
1, 48575, Note_on_c, 0, 67, 82
1, 48575, Note_on_c, 9, 42, 95
1, 48575, Note_on_c, 0, 66, 87
1, 48575, Note_on_c, 1, 45, 117
1, 48575, Note_on_c, 1, 33, 112
1, 48576, Note_on_c, 9, 42, 0
1, 48576, Note_on_c, 4, 74, 0
1, 48576, Note_on_c, 4, 71, 21
1, 48576, Note_on_c, 9, 36, 110
1, 48576, Note_on_c, 8, 54, 111
1, 48577, Note_on_c, 9, 36, 0
1, 48577, Note_on_c, 3, 71, 85
1, 48577, Lyric_t, "groove "
1, 48578, Note_on_c, 2, 67, 99
1, 48578, Note_on_c, 2, 62, 96
1, 48579, Note_on_c, 2, 71, 101
1, 48618, Note_on_c, 8, 54, 0
1, 48623, Note_on_c, 9, 42, 39
1, 48624, Note_on_c, 9, 42, 0
1, 48624, Note_on_c, 10, 67, 102
1, 48624, Note_on_c, 8, 54, 110
1, 48625, Note_on_c, 6, 79, 127
1, 48627, Note_on_c, 3, 71, 0
1, 48629, Note_on_c, 8, 54, 0
1, 48648, Note_on_c, 8, 54, 110
1, 48653, Note_on_c, 8, 54, 0
1, 48653, Note_on_c, 0, 71, 0
1, 48653, Note_on_c, 0, 74, 0
1, 48654, Note_on_c, 0, 67, 0
1, 48654, Note_on_c, 0, 66, 0
1, 48655, Note_on_c, 1, 33, 0
1, 48659, Note_on_c, 6, 79, 0
1, 48660, Note_on_c, 10, 67, 0
1, 48661, Note_on_c, 1, 45, 0
1, 48663, Note_on_c, 2, 67, 0
1, 48670, Note_on_c, 2, 71, 0
1, 48670, Note_on_c, 2, 62, 0
1, 48671, Note_on_c, 9, 42, 110
1, 48671, Note_on_c, 1, 31, 100
1, 48671, Note_on_c, 1, 43, 112
1, 48672, Note_on_c, 9, 42, 0
1, 48672, Note_on_c, 9, 40, 110
1, 48672, Note_on_c, 0, 71, 81
1, 48672, Note_on_c, 2, 62, 101
1, 48672, Note_on_c, 8, 53, 91
1, 48672, Note_on_c, 9, 60, 77
1, 48672, Note_on_c, 9, 36, 110
1, 48672, Note_on_c, 0, 67, 79
1, 48672, Note_on_c, 9, 39, 110
1, 48672, Note_on_c, 0, 74, 81
1, 48672, Note_on_c, 2, 69, 96
1, 48673, Note_on_c, 9, 39, 0
1, 48673, Note_on_c, 9, 36, 0
1, 48673, Note_on_c, 9, 40, 0
1, 48673, Note_on_c, 9, 60, 0
1, 48673, Note_on_c, 0, 66, 87
1, 48688, Note_on_c, 8, 53, 0
1, 48688, Note_on_c, 8, 54, 72
1, 48708, Note_on_c, 2, 69, 0
1, 48712, Note_on_c, 2, 62, 0
1, 48719, Note_on_c, 8, 54, 0
1, 48719, Note_on_c, 8, 57, 96
1, 48720, Note_on_c, 10, 69, 104
1, 48721, Note_on_c, 9, 42, 42
1, 48721, Note_on_c, 6, 81, 117
1, 48722, Note_on_c, 9, 42, 0
1, 48727, Note_on_c, 4, 71, 0
1, 48732, Note_on_c, 0, 66, 0
1, 48738, Note_on_c, 0, 67, 0
1, 48739, Note_on_c, 0, 71, 0
1, 48740, Note_on_c, 0, 74, 0
1, 48741, Note_on_c, 8, 57, 0
1, 48748, Note_on_c, 1, 31, 0
1, 48750, Note_on_c, 1, 43, 0
1, 48757, Note_on_c, 10, 69, 0
1, 48760, Control_c, 10, 11, 64
1, 48762, Note_on_c, 6, 81, 0
1, 48765, Note_on_c, 8, 53, 106
1, 48767, Lyric_t, "set "
1, 48767, Note_on_c, 3, 66, 58
1, 48768, Note_on_c, 4, 66, 17
1, 48768, Note_on_c, 9, 42, 96
1, 48768, Control_c, 10, 11, 65
1, 48768, Note_on_c, 2, 68, 94
1, 48768, Note_on_c, 6, 81, 126
1, 48768, Note_on_c, 9, 36, 110
1, 48768, Note_on_c, 10, 69, 120
1, 48769, Note_on_c, 9, 36, 0
1, 48769, Note_on_c, 9, 42, 0
1, 48769, Note_on_c, 0, 73, 71
1, 48769, Note_on_c, 1, 42, 99
1, 48769, Note_on_c, 2, 72, 101
1, 48769, Note_on_c, 0, 69, 75
1, 48769, Note_on_c, 0, 76, 83
1, 48769, Note_on_c, 1, 30, 97
1, 48770, Note_on_c, 2, 63, 100
1, 48776, Control_c, 10, 11, 66
1, 48780, Control_c, 10, 11, 67
1, 48784, Note_on_c, 8, 53, 0
1, 48784, Note_on_c, 8, 54, 77
1, 48787, Note_on_c, 2, 68, 0
1, 48788, Note_on_c, 2, 72, 0
1, 48788, Note_on_c, 2, 73, 66
1, 48788, Control_c, 10, 11, 68
1, 48792, Note_on_c, 2, 69, 66
1, 48792, Control_c, 10, 11, 69
1, 48795, Note_on_c, 2, 63, 0
1, 48795, Note_on_c, 2, 64, 81
1, 48800, Control_c, 10, 11, 70
1, 48804, Control_c, 10, 11, 71
1, 48812, Control_c, 10, 11, 72
1, 48814, Note_on_c, 3, 66, 0
1, 48814, Note_on_c, 8, 54, 0
1, 48815, Note_on_c, 9, 42, 37
1, 48815, Note_on_c, 3, 69, 63
1, 48815, Lyric_t, "in "
1, 48815, Note_on_c, 8, 57, 91
1, 48816, Note_on_c, 9, 42, 0
1, 48816, Note_on_c, 4, 66, 0
1, 48816, Control_c, 10, 11, 73
1, 48816, Note_on_c, 4, 69, 21
1, 48824, Control_c, 10, 11, 74
1, 48828, Control_c, 10, 11, 75
1, 48831, Note_on_c, 8, 57, 0
1, 48836, Control_c, 10, 11, 76
1, 48842, Note_on_c, 2, 73, 0
1, 48842, Note_on_c, 2, 69, 0
1, 48844, Note_on_c, 2, 73, 99
1, 48844, Control_c, 10, 11, 77
1, 48845, Note_on_c, 2, 69, 100
1, 48848, Control_c, 10, 11, 78
1, 48850, Note_on_c, 2, 69, 0
1, 48851, Note_on_c, 2, 73, 0
1, 48856, Control_c, 10, 11, 79
1, 48860, Control_c, 10, 11, 80
1, 48862, Note_on_c, 2, 64, 0
1, 48862, Note_on_c, 3, 69, 0
1, 48863, Note_on_c, 3, 73, 92
1, 48863, Lyric_t, "your "
1, 48863, Note_on_c, 9, 42, 110
1, 48864, Note_on_c, 9, 42, 0
1, 48864, Note_on_c, 4, 69, 0
1, 48864, Note_on_c, 9, 60, 77
1, 48864, Note_on_c, 9, 39, 110
1, 48864, Note_on_c, 4, 73, 32
1, 48864, Note_on_c, 9, 40, 95
1, 48865, Note_on_c, 9, 40, 0
1, 48865, Note_on_c, 9, 60, 0
1, 48865, Note_on_c, 9, 39, 0
1, 48868, Control_c, 10, 11, 81
1, 48869, Note_on_c, 0, 76, 0
1, 48872, Note_on_c, 0, 69, 0
1, 48872, Note_on_c, 0, 73, 0
1, 48872, Control_c, 10, 11, 82
1, 48876, Note_on_c, 1, 30, 0
1, 48879, Note_on_c, 1, 42, 0
1, 48880, Control_c, 10, 11, 83
1, 48884, Control_c, 10, 11, 84
1, 48892, Control_c, 10, 11, 85
1, 48896, Control_c, 10, 11, 86
1, 48904, Control_c, 10, 11, 87
1, 48908, Control_c, 10, 11, 88
1, 48911, Note_on_c, 3, 73, 0
1, 48911, Lyric_t, "shoes, "
1, 48911, Note_on_c, 8, 57, 107
1, 48911, Note_on_c, 0, 74, 82
1, 48911, Note_on_c, 0, 78, 73
1, 48911, Note_on_c, 3, 71, 80
1, 48911, Note_on_c, 0, 69, 78
1, 48911, Lyric_t, ""
1, 48911, Lyric_t, "\015"
1, 48912, Note_on_c, 4, 73, 0
1, 48912, Note_on_c, 4, 71, 23
1, 48912, Note_on_c, 9, 42, 44
1, 48912, Note_on_c, 9, 36, 91
1, 48912, Note_on_c, 1, 35, 98
1, 48912, Note_on_c, 1, 47, 110
1, 48913, Note_on_c, 9, 36, 0
1, 48913, Note_on_c, 9, 42, 0
1, 48913, Note_on_c, 2, 62, 84
1, 48914, Note_on_c, 2, 66, 103
1, 48915, Note_on_c, 2, 69, 97
1, 48916, Control_c, 10, 11, 89
1, 48924, Control_c, 10, 11, 90
1, 48928, Control_c, 10, 11, 91
1, 48930, Note_on_c, 8, 57, 0
1, 48936, Control_c, 10, 11, 92
1, 48940, Control_c, 10, 11, 93
1, 48948, Control_c, 10, 11, 94
1, 48952, Control_c, 10, 11, 95
1, 48959, Note_on_c, 9, 42, 95
1, 48960, Note_on_c, 9, 42, 0
1, 48960, Control_c, 10, 11, 96
1, 48960, Note_on_c, 9, 36, 110
1, 48961, Note_on_c, 9, 36, 0
1, 48961, Note_on_c, 8, 53, 104
1, 48964, Control_c, 10, 11, 97
1, 48972, Control_c, 10, 11, 98
1, 48976, Control_c, 10, 11, 99
1, 48979, Note_on_c, 8, 53, 0
1, 48979, Note_on_c, 8, 54, 104
1, 48984, Control_c, 10, 11, 100
1, 48986, Note_on_c, 0, 74, 0
1, 48986, Note_on_c, 0, 78, 0
1, 48988, Control_c, 10, 11, 101
1, 48996, Control_c, 10, 11, 102
1, 48997, Note_on_c, 2, 62, 0
1, 48998, Note_on_c, 0, 69, 0
1, 48999, Note_on_c, 2, 66, 0
1, 49000, Note_on_c, 1, 47, 0
1, 49004, Control_c, 10, 11, 103
1, 49005, Note_on_c, 8, 54, 0
1, 49006, Note_on_c, 1, 35, 0
1, 49006, Note_on_c, 3, 71, 0
1, 49007, Note_on_c, 2, 69, 0
1, 49007, Note_on_c, 1, 33, 100
1, 49007, Note_on_c, 1, 45, 97
1, 49007, Note_on_c, 2, 61, 80
1, 49007, Note_on_c, 9, 42, 39
1, 49008, Note_on_c, 9, 42, 0
1, 49008, Note_on_c, 4, 71, 0
1, 49008, Control_c, 10, 11, 104
1, 49008, Note_on_c, 8, 57, 91
1, 49008, Note_on_c, 4, 69, 13
1, 49009, Note_on_c, 0, 69, 66
1, 49009, Note_on_c, 0, 73, 75
1, 49009, Note_on_c, 3, 69, 57
1, 49009, Note_on_c, 2, 64, 101
1, 49009, Lyric_t, "so "
1, 49009, Note_on_c, 0, 76, 68
1, 49016, Control_c, 10, 11, 105
1, 49020, Note_on_c, 0, 76, 0
1, 49020, Note_on_c, 8, 57, 0
1, 49020, Control_c, 10, 11, 106
1, 49021, Note_on_c, 0, 69, 0
1, 49023, Note_on_c, 1, 45, 0
1, 49024, Note_on_c, 0, 73, 0
1, 49024, Note_on_c, 1, 33, 0
1, 49028, Control_c, 10, 11, 107
1, 49032, Control_c, 10, 11, 108
1, 49040, Control_c, 10, 11, 109
1, 49044, Control_c, 10, 11, 110
1, 49052, Note_on_c, 2, 64, 0
1, 49052, Note_on_c, 2, 61, 0
1, 49052, Control_c, 10, 11, 111
1, 49053, Note_on_c, 3, 69, 0
1, 49053, Note_on_c, 8, 58, 97
1, 49055, Note_on_c, 3, 74, 90
1, 49055, Note_on_c, 9, 42, 110
1, 49055, Note_on_c, 1, 35, 97
1, 49055, Lyric_t, "stand "
1, 49056, Note_on_c, 9, 42, 0
1, 49056, Note_on_c, 4, 69, 0
1, 49056, Note_on_c, 9, 36, 110
1, 49056, Note_on_c, 4, 74, 30
1, 49056, Note_on_c, 9, 40, 110
1, 49056, Control_c, 10, 11, 112
1, 49056, Note_on_c, 9, 39, 110
1, 49056, Note_on_c, 9, 60, 77
1, 49056, Note_on_c, 1, 47, 120
1, 49057, Note_on_c, 9, 60, 0
1, 49057, Note_on_c, 9, 39, 0
1, 49057, Note_on_c, 9, 36, 0
1, 49057, Note_on_c, 9, 40, 0
1, 49057, Note_on_c, 0, 69, 84
1, 49057, Note_on_c, 0, 78, 71
1, 49057, Note_on_c, 0, 74, 91
1, 49057, Note_on_c, 2, 62, 99
1, 49058, Note_on_c, 2, 66, 102
1, 49064, Control_c, 10, 11, 113
1, 49068, Control_c, 10, 11, 114
1, 49071, Note_on_c, 8, 58, 0
1, 49072, Note_on_c, 8, 59, 72
1, 49075, Note_on_c, 2, 66, 0
1, 49076, Control_c, 10, 11, 115
1, 49078, Note_on_c, 2, 62, 0
1, 49084, Control_c, 10, 11, 116
1, 49088, Control_c, 10, 11, 117
1, 49096, Control_c, 10, 11, 118
1, 49100, Control_c, 10, 11, 119
1, 49102, Note_on_c, 8, 59, 0
1, 49103, Note_on_c, 8, 62, 108
1, 49105, Note_on_c, 9, 42, 42
1, 49106, Note_on_c, 9, 42, 0
1, 49108, Control_c, 10, 11, 120
1, 49110, Note_on_c, 3, 74, 0
1, 49112, Control_c, 10, 11, 121
1, 49115, Note_on_c, 0, 78, 0
1, 49120, Control_c, 10, 11, 122
1, 49121, Note_on_c, 0, 74, 0
1, 49124, Note_on_c, 0, 69, 0
1, 49124, Control_c, 10, 11, 123
1, 49125, Note_on_c, 8, 62, 0
1, 49132, Control_c, 10, 11, 124
1, 49136, Control_c, 10, 11, 125
1, 49140, Note_on_c, 6, 81, 0
1, 49142, Note_on_c, 1, 47, 0
1, 49142, Note_on_c, 1, 35, 0
1, 49142, Note_on_c, 10, 69, 0
1, 49144, Control_c, 10, 11, 126
1, 49148, Control_c, 10, 11, 127
1, 49152, Note_on_c, 4, 74, 0
1, 49152, Note_on_c, 1, 28, 104
1, 49152, Note_on_c, 4, 71, 23
1, 49152, Note_on_c, 0, 66, 96
1, 49152, Note_on_c, 9, 36, 110
1, 49152, Note_on_c, 9, 42, 96
1, 49152, Note_on_c, 3, 71, 57
1, 49152, Lyric_t, "up, "
1, 49153, Note_on_c, 9, 42, 0
1, 49153, Note_on_c, 9, 36, 0
1, 49153, Note_on_c, 0, 74, 82
1, 49153, Note_on_c, 0, 67, 81
1, 49153, Note_on_c, 1, 40, 110
1, 49153, Note_on_c, 9, 43, 86
1, 49153, Note_on_c, 0, 71, 81
1, 49154, Note_on_c, 9, 43, 0
1, 49199, Note_on_c, 8, 57, 93
1, 49199, Note_on_c, 9, 42, 37
1, 49200, Note_on_c, 9, 42, 0
1, 49201, Note_on_c, 2, 59, 77
1, 49202, Note_on_c, 2, 62, 102
1, 49203, Note_on_c, 2, 67, 100
1, 49203, Note_on_c, 2, 74, 96
1, 49206, Note_on_c, 3, 71, 0
1, 49221, Note_on_c, 2, 74, 0
1, 49223, Note_on_c, 8, 57, 0
1, 49224, Note_on_c, 8, 57, 101
1, 49226, Note_on_c, 2, 67, 0
1, 49226, Note_on_c, 2, 74, 97
1, 49227, Note_on_c, 2, 67, 98
1, 49243, Note_on_c, 8, 57, 0
1, 49244, Note_on_c, 2, 67, 0
1, 49247, Note_on_c, 2, 74, 0
1, 49247, Note_on_c, 4, 71, 0
1, 49247, Note_on_c, 9, 42, 110
1, 49247, Note_on_c, 2, 67, 100
1, 49248, Note_on_c, 9, 42, 0
1, 49248, Note_on_c, 4, 74, 35
1, 49248, Note_on_c, 4, 64, 25
1, 49248, Note_on_c, 9, 40, 95
1, 49248, Note_on_c, 9, 39, 110
1, 49248, Note_on_c, 4, 78, 32
1, 49248, Note_on_c, 8, 57, 64
1, 49248, Note_on_c, 2, 74, 95
1, 49248, Note_on_c, 4, 69, 25
1, 49248, Note_on_c, 9, 60, 77
1, 49249, Note_on_c, 9, 60, 0
1, 49249, Note_on_c, 9, 39, 0
1, 49249, Note_on_c, 9, 40, 0
1, 49249, Lyric_t, "all "
1, 49249, Note_on_c, 3, 74, 87
1, 49255, Note_on_c, 2, 62, 0
1, 49256, Note_on_c, 8, 57, 0
1, 49259, Note_on_c, 2, 74, 0
1, 49260, Note_on_c, 2, 59, 0
1, 49264, Note_on_c, 1, 28, 0
1, 49264, Note_on_c, 2, 67, 0
1, 49266, Note_on_c, 0, 66, 0
1, 49268, Note_on_c, 1, 40, 0
1, 49271, Note_on_c, 0, 71, 0
1, 49272, Note_on_c, 0, 74, 0
1, 49273, Note_on_c, 0, 67, 0
1, 49295, Note_on_c, 1, 43, 100
1, 49295, Note_on_c, 2, 62, 85
1, 49295, Note_on_c, 0, 74, 76
1, 49295, Note_on_c, 1, 31, 114
1, 49295, Note_on_c, 0, 67, 69
1, 49295, Note_on_c, 0, 71, 78
1, 49295, Note_on_c, 0, 66, 78
1, 49296, Note_on_c, 9, 42, 44
1, 49296, Note_on_c, 8, 55, 98
1, 49296, Note_on_c, 9, 36, 91
1, 49297, Note_on_c, 9, 36, 0
1, 49297, Note_on_c, 9, 42, 0
1, 49297, Note_on_c, 2, 67, 99
1, 49298, Note_on_c, 2, 71, 103
1, 49304, Note_on_c, 0, 74, 0
1, 49304, Note_on_c, 0, 67, 0
1, 49306, Note_on_c, 0, 71, 0
1, 49307, Note_on_c, 2, 62, 0
1, 49307, Note_on_c, 0, 66, 0
1, 49313, Note_on_c, 1, 43, 0
1, 49313, Note_on_c, 1, 31, 0
1, 49313, Note_on_c, 2, 67, 0
1, 49313, Note_on_c, 2, 71, 0
1, 49314, Note_on_c, 8, 55, 0
1, 49338, Note_on_c, 3, 74, 0
1, 49343, Note_on_c, 9, 42, 95
1, 49343, Note_on_c, 0, 74, 83
1, 49343, Note_on_c, 0, 71, 81
1, 49343, Note_on_c, 6, 83, 117
1, 49343, Note_on_c, 0, 67, 82
1, 49343, Note_on_c, 0, 66, 87
1, 49344, Note_on_c, 9, 42, 0
1, 49344, Note_on_c, 4, 69, 0
1, 49344, Note_on_c, 4, 64, 0
1, 49344, Note_on_c, 4, 74, 0
1, 49344, Note_on_c, 4, 78, 0
1, 49344, Note_on_c, 9, 36, 110
1, 49344, Note_on_c, 4, 71, 16
1, 49344, Lyric_t, "right, "
1, 49344, Note_on_c, 4, 66, 16
1, 49344, Note_on_c, 3, 71, 58
1, 49344, Note_on_c, 1, 45, 117
1, 49344, Note_on_c, 4, 76, 16
1, 49344, Note_on_c, 4, 59, 16
1, 49344, Note_on_c, 1, 33, 112
1, 49345, Note_on_c, 9, 36, 0
1, 49345, Note_on_c, 8, 54, 110
1, 49346, Note_on_c, 2, 69, 87
1, 49346, Note_on_c, 2, 62, 102
1, 49347, Note_on_c, 2, 71, 103
1, 49383, Note_on_c, 8, 54, 0
1, 49390, Note_on_c, 6, 83, 0
1, 49391, Note_on_c, 9, 42, 39
1, 49392, Note_on_c, 9, 42, 0
1, 49393, Note_on_c, 6, 81, 97
1, 49398, Note_on_c, 3, 71, 0
1, 49409, Note_on_c, 6, 81, 0
1, 49416, Note_on_c, 8, 54, 110
1, 49421, Note_on_c, 8, 54, 0
1, 49421, Note_on_c, 0, 74, 0
1, 49421, Note_on_c, 0, 71, 0
1, 49422, Note_on_c, 0, 66, 0
1, 49422, Note_on_c, 0, 67, 0
1, 49424, Note_on_c, 1, 33, 0
1, 49430, Note_on_c, 1, 45, 0
1, 49435, Note_on_c, 2, 69, 0
1, 49437, Note_on_c, 8, 53, 97
1, 49438, Note_on_c, 2, 71, 0
1, 49439, Note_on_c, 2, 62, 0
1, 49439, Note_on_c, 9, 42, 110
1, 49440, Note_on_c, 9, 42, 0
1, 49440, Note_on_c, 0, 67, 79
1, 49440, Note_on_c, 0, 74, 81
1, 49440, Note_on_c, 1, 31, 100
1, 49440, Note_on_c, 0, 71, 81
1, 49440, Note_on_c, 9, 60, 77
1, 49440, Note_on_c, 9, 40, 110
1, 49440, Note_on_c, 9, 39, 110
1, 49440, Note_on_c, 1, 43, 112
1, 49440, Note_on_c, 9, 36, 110
1, 49441, Note_on_c, 9, 36, 0
1, 49441, Note_on_c, 9, 60, 0
1, 49441, Note_on_c, 9, 39, 0
1, 49441, Note_on_c, 9, 40, 0
1, 49441, Note_on_c, 2, 67, 100
1, 49441, Note_on_c, 6, 78, 114
1, 49441, Note_on_c, 0, 66, 87
1, 49442, Note_on_c, 2, 62, 103
1, 49443, Note_on_c, 2, 71, 104
1, 49454, Note_on_c, 8, 53, 0
1, 49454, Note_on_c, 8, 54, 78
1, 49464, Note_on_c, 4, 71, 0
1, 49464, Note_on_c, 4, 59, 0
1, 49464, Note_on_c, 4, 76, 0
1, 49464, Note_on_c, 4, 66, 0
1, 49481, Note_on_c, 2, 62, 0
1, 49481, Note_on_c, 2, 71, 0
1, 49483, Note_on_c, 8, 54, 0
1, 49488, Note_on_c, 6, 78, 0
1, 49489, Note_on_c, 2, 67, 0
1, 49489, Note_on_c, 9, 42, 42
1, 49489, Note_on_c, 6, 74, 86
1, 49489, Note_on_c, 8, 57, 92
1, 49490, Note_on_c, 9, 42, 0
1, 49500, Note_on_c, 0, 66, 0
1, 49504, Note_on_c, 8, 57, 0
1, 49506, Note_on_c, 0, 67, 0
1, 49507, Note_on_c, 6, 74, 0
1, 49507, Note_on_c, 0, 71, 0
1, 49508, Note_on_c, 0, 74, 0
1, 49517, Note_on_c, 1, 31, 0
1, 49519, Note_on_c, 1, 43, 0
1, 49535, Note_on_c, 8, 53, 98
1, 49536, Note_on_c, 10, 64, 87
1, 49536, Note_on_c, 10, 57, 88
1, 49536, Note_on_c, 10, 61, 81
1, 49536, Note_on_c, 9, 42, 96
1, 49536, Note_on_c, 9, 36, 110
1, 49536, Note_on_c, 6, 76, 119
1, 49537, Note_on_c, 9, 36, 0
1, 49537, Note_on_c, 9, 42, 0
1, 49537, Note_on_c, 4, 73, 57
1, 49537, Lyric_t, "all "
1, 49537, Note_on_c, 0, 69, 75
1, 49537, Note_on_c, 1, 42, 99
1, 49537, Note_on_c, 0, 73, 71
1, 49537, Note_on_c, 1, 30, 97
1, 49537, Note_on_c, 0, 76, 83
1, 49537, Note_on_c, 3, 73, 100
1, 49538, Note_on_c, 2, 63, 99
1, 49539, Note_on_c, 2, 72, 99
1, 49539, Note_on_c, 2, 68, 92
1, 49551, Note_on_c, 8, 53, 0
1, 49551, Note_on_c, 8, 54, 80
1, 49558, Note_on_c, 2, 72, 0
1, 49561, Note_on_c, 2, 63, 0
1, 49561, Note_on_c, 2, 73, 77
1, 49561, Note_on_c, 2, 64, 78
1, 49562, Note_on_c, 2, 68, 0
1, 49563, Note_on_c, 2, 69, 87
1, 49582, Note_on_c, 8, 54, 0
1, 49583, Note_on_c, 3, 73, 0
1, 49583, Note_on_c, 3, 69, 66
1, 49583, Note_on_c, 9, 42, 37
1, 49584, Note_on_c, 9, 42, 0
1, 49584, Note_on_c, 4, 73, 0
1, 49584, Note_on_c, 4, 69, 20
1, 49585, Note_on_c, 8, 57, 100
1, 49602, Note_on_c, 8, 57, 0
1, 49607, Note_on_c, 2, 69, 0
1, 49607, Note_on_c, 2, 73, 0
1, 49612, Note_on_c, 2, 73, 97
1, 49613, Note_on_c, 2, 69, 91
1, 49617, Note_on_c, 2, 64, 0
1, 49619, Note_on_c, 2, 73, 0
1, 49620, Note_on_c, 2, 69, 0
1, 49626, Note_on_c, 2, 64, 78
1, 49631, Note_on_c, 9, 42, 110
1, 49632, Note_on_c, 9, 42, 0
1, 49632, Note_on_c, 4, 69, 0
1, 49632, Note_on_c, 9, 40, 95
1, 49632, Note_on_c, 9, 60, 77
1, 49632, Note_on_c, 3, 66, 38
1, 49632, Note_on_c, 8, 54, 110
1, 49632, Note_on_c, 4, 66, 1
1, 49632, Note_on_c, 9, 39, 110
1, 49633, Note_on_c, 9, 39, 0
1, 49633, Note_on_c, 9, 60, 0
1, 49633, Note_on_c, 9, 40, 0
1, 49633, Note_on_c, 3, 69, 0
1, 49637, Note_on_c, 0, 76, 0
1, 49637, Note_on_c, 8, 54, 0
1, 49640, Note_on_c, 0, 73, 0
1, 49640, Note_on_c, 0, 69, 0
1, 49644, Note_on_c, 1, 30, 0
1, 49647, Note_on_c, 1, 42, 0
1, 49648, Note_on_c, 2, 64, 0
1, 49666, Note_on_c, 10, 64, 0
1, 49668, Note_on_c, 10, 61, 0
1, 49668, Note_on_c, 10, 57, 0
1, 49674, Note_on_c, 6, 76, 0
1, 49678, Note_on_c, 3, 66, 0
1, 49679, Note_on_c, 0, 74, 82
1, 49679, Lyric_t, "right. "
1, 49679, Note_on_c, 6, 74, 112
1, 49679, Note_on_c, 0, 78, 73
1, 49679, Note_on_c, 10, 62, 110
1, 49679, Lyric_t, ""
1, 49679, Lyric_t, "\015"
1, 49679, Note_on_c, 0, 69, 78
1, 49679, Note_on_c, 3, 71, 80
1, 49680, Note_on_c, 4, 66, 0
1, 49680, Note_on_c, 1, 35, 98
1, 49680, Note_on_c, 10, 57, 100
1, 49680, Note_on_c, 4, 71, 30
1, 49680, Note_on_c, 9, 42, 44
1, 49680, Note_on_c, 1, 47, 110
1, 49680, Note_on_c, 9, 36, 91
1, 49680, Note_on_c, 10, 66, 123
1, 49680, Note_on_c, 8, 57, 101
1, 49681, Note_on_c, 9, 36, 0
1, 49681, Note_on_c, 9, 42, 0
1, 49682, Note_on_c, 2, 62, 85
1, 49683, Note_on_c, 2, 66, 102
1, 49685, Note_on_c, 2, 69, 76
1, 49699, Note_on_c, 8, 57, 0
1, 49702, Note_on_c, 10, 62, 0
1, 49703, Note_on_c, 10, 57, 0
1, 49703, Note_on_c, 6, 74, 0
1, 49704, Note_on_c, 10, 66, 0
1, 49712, Lyric_t, ""
1, 49712, Lyric_t, "\015"
1, 49727, Note_on_c, 9, 42, 95
1, 49728, Note_on_c, 9, 42, 0
1, 49728, Note_on_c, 9, 36, 110
1, 49729, Note_on_c, 9, 36, 0
1, 49731, Note_on_c, 8, 53, 73
1, 49744, Note_on_c, 8, 53, 0
1, 49745, Note_on_c, 8, 54, 66
1, 49750, Note_on_c, 3, 71, 0
1, 49754, Note_on_c, 0, 78, 0
1, 49754, Note_on_c, 0, 74, 0
1, 49766, Note_on_c, 0, 69, 0
1, 49768, Note_on_c, 1, 47, 0
1, 49768, Note_on_c, 2, 62, 0
1, 49770, Note_on_c, 8, 54, 0
1, 49774, Note_on_c, 1, 35, 0
1, 49775, Note_on_c, 2, 66, 0
1, 49775, Note_on_c, 1, 33, 100
1, 49775, Note_on_c, 2, 61, 99
1, 49775, Note_on_c, 1, 45, 97
1, 49775, Note_on_c, 9, 42, 35
1, 49776, Note_on_c, 9, 42, 0
1, 49776, Note_on_c, 4, 71, 0
1, 49776, Lyric_t, "We're "
1, 49776, Note_on_c, 8, 57, 97
1, 49776, Note_on_c, 3, 71, 96
1, 49776, Note_on_c, 4, 59, 53
1, 49777, Note_on_c, 2, 64, 101
1, 49777, Note_on_c, 0, 73, 75
1, 49777, Note_on_c, 0, 76, 68
1, 49777, Note_on_c, 0, 69, 66
1, 49788, Note_on_c, 0, 76, 0
1, 49789, Note_on_c, 0, 69, 0
1, 49790, Note_on_c, 8, 57, 0
1, 49791, Note_on_c, 1, 45, 0
1, 49792, Note_on_c, 0, 73, 0
1, 49792, Note_on_c, 1, 33, 0
1, 49819, Note_on_c, 2, 69, 0
1, 49822, Note_on_c, 2, 64, 0
1, 49823, Note_on_c, 9, 42, 98
1, 49823, Note_on_c, 1, 35, 97
1, 49824, Note_on_c, 9, 42, 0
1, 49824, Note_on_c, 2, 61, 0
1, 49824, Note_on_c, 4, 59, 0
1, 49824, Note_on_c, 9, 40, 110
1, 49824, Note_on_c, 9, 36, 110
1, 49824, Note_on_c, 9, 39, 110
1, 49824, Note_on_c, 8, 58, 78
1, 49824, Note_on_c, 3, 74, 98
1, 49824, Lyric_t, "gon"
1, 49824, Note_on_c, 4, 62, 55
1, 49824, Note_on_c, 9, 60, 77
1, 49824, Note_on_c, 2, 62, 88
1, 49824, Note_on_c, 1, 47, 120
1, 49825, Note_on_c, 9, 60, 0
1, 49825, Note_on_c, 9, 39, 0
1, 49825, Note_on_c, 9, 36, 0
1, 49825, Note_on_c, 9, 40, 0
1, 49825, Note_on_c, 0, 78, 71
1, 49825, Note_on_c, 0, 74, 91
1, 49825, Note_on_c, 0, 69, 84
1, 49825, Note_on_c, 2, 69, 83
1, 49826, Note_on_c, 2, 66, 103
1, 49828, Note_on_c, 3, 71, 0
1, 49839, Note_on_c, 2, 69, 0
1, 49841, Note_on_c, 8, 58, 0
1, 49841, Note_on_c, 8, 59, 73
1, 49845, Note_on_c, 2, 62, 0
1, 49848, Note_on_c, 2, 66, 0
1, 49872, Note_on_c, 4, 62, 0
1, 49872, Lyric_t, "na "
1, 49872, Note_on_c, 4, 64, 53
1, 49872, Note_on_c, 3, 76, 96
1, 49872, Note_on_c, 8, 62, 114
1, 49873, Note_on_c, 9, 42, 42
1, 49874, Note_on_c, 9, 42, 0
1, 49876, Note_on_c, 8, 59, 0
1, 49876, Note_on_c, 3, 74, 0
1, 49883, Note_on_c, 0, 78, 0
1, 49889, Note_on_c, 0, 74, 0
1, 49892, Note_on_c, 0, 69, 0
1, 49895, Note_on_c, 8, 62, 0
1, 49910, Note_on_c, 1, 47, 0
1, 49910, Note_on_c, 1, 35, 0
1, 49920, Note_on_c, 4, 64, 0
1, 49920, Note_on_c, 4, 66, 65
1, 49920, Note_on_c, 1, 28, 104
1, 49920, Note_on_c, 3, 78, 108
1, 49920, Note_on_c, 10, 57, 91
1, 49920, Note_on_c, 9, 36, 110
1, 49920, Note_on_c, 0, 66, 96
1, 49920, Lyric_t, "groove "
1, 49920, Note_on_c, 9, 43, 89
1, 49920, Note_on_c, 9, 42, 96
1, 49921, Note_on_c, 9, 42, 0
1, 49921, Note_on_c, 9, 43, 0
1, 49921, Note_on_c, 9, 36, 0
1, 49921, Note_on_c, 1, 40, 110
1, 49921, Note_on_c, 0, 67, 81
1, 49921, Note_on_c, 0, 71, 81
1, 49921, Note_on_c, 0, 74, 82
1, 49924, Note_on_c, 3, 76, 0
1, 49967, Note_on_c, 9, 42, 37
1, 49968, Note_on_c, 9, 42, 0
1, 49968, Note_on_c, 2, 59, 60
1, 49970, Note_on_c, 2, 62, 98
1, 49971, Note_on_c, 2, 67, 101
1, 49972, Note_on_c, 2, 74, 98
1, 49982, Note_on_c, 2, 74, 0
1, 49991, Note_on_c, 10, 57, 0
1, 49992, Note_on_c, 2, 67, 0
1, 49992, Note_on_c, 2, 74, 98
1, 49994, Note_on_c, 2, 62, 0
1, 49994, Note_on_c, 2, 67, 99
1, 49995, Note_on_c, 2, 62, 88
1, 50011, Note_on_c, 2, 62, 0
1, 50014, Note_on_c, 2, 67, 0
1, 50015, Note_on_c, 2, 74, 0
1, 50015, Note_on_c, 10, 59, 98
1, 50015, Note_on_c, 9, 42, 110
1, 50015, Note_on_c, 2, 62, 101
1, 50016, Note_on_c, 9, 42, 0
1, 50016, Note_on_c, 2, 74, 97
1, 50016, Note_on_c, 9, 60, 77
1, 50016, Note_on_c, 2, 67, 99
1, 50016, Note_on_c, 9, 40, 95
1, 50016, Note_on_c, 9, 39, 110
1, 50017, Note_on_c, 9, 39, 0
1, 50017, Note_on_c, 9, 40, 0
1, 50017, Note_on_c, 9, 60, 0
1, 50017, Note_on_c, 4, 66, 0
1, 50017, Note_on_c, 3, 74, 93
1, 50017, Note_on_c, 4, 62, 50
1, 50017, Lyric_t, "to"
1, 50018, Note_on_c, 3, 78, 0
1, 50029, Note_on_c, 2, 74, 0
1, 50030, Note_on_c, 2, 62, 0
1, 50031, Note_on_c, 2, 59, 0
1, 50032, Note_on_c, 1, 28, 0
1, 50033, Note_on_c, 2, 67, 0
1, 50034, Note_on_c, 0, 66, 0
1, 50036, Note_on_c, 1, 40, 0
1, 50039, Note_on_c, 0, 71, 0
1, 50040, Note_on_c, 0, 74, 0
1, 50041, Note_on_c, 0, 67, 0
1, 50062, Note_on_c, 3, 74, 0
1, 50063, Note_on_c, 10, 59, 0
1, 50063, Note_on_c, 2, 62, 63
1, 50063, Note_on_c, 0, 74, 76
1, 50063, Note_on_c, 0, 71, 78
1, 50063, Note_on_c, 0, 66, 78
1, 50063, Note_on_c, 1, 43, 100
1, 50063, Note_on_c, 0, 67, 69
1, 50063, Note_on_c, 1, 31, 114
1, 50064, Note_on_c, 4, 62, 0
1, 50064, Note_on_c, 9, 36, 91
1, 50064, Note_on_c, 9, 42, 44
1, 50065, Note_on_c, 9, 42, 0
1, 50065, Note_on_c, 9, 36, 0
1, 50065, Note_on_c, 10, 57, 86
1, 50065, Lyric_t, "night, "
1, 50065, Note_on_c, 2, 67, 99
1, 50065, Note_on_c, 3, 74, 97
1, 50065, Lyric_t, ""
1, 50065, Lyric_t, "\015"
1, 50065, Note_on_c, 4, 62, 54
1, 50066, Note_on_c, 2, 71, 102
1, 50072, Note_on_c, 0, 67, 0
1, 50072, Note_on_c, 0, 74, 0
1, 50073, Note_on_c, 2, 62, 0
1, 50074, Note_on_c, 0, 71, 0
1, 50075, Note_on_c, 0, 66, 0
1, 50078, Note_on_c, 2, 71, 0
1, 50080, Note_on_c, 2, 67, 0
1, 50081, Note_on_c, 1, 31, 0
1, 50081, Note_on_c, 1, 43, 0
1, 50083, Note_on_c, 10, 57, 0
1, 50111, Note_on_c, 0, 66, 87
1, 50111, Note_on_c, 0, 71, 81
1, 50111, Note_on_c, 0, 74, 83
1, 50111, Note_on_c, 0, 67, 82
1, 50111, Note_on_c, 9, 42, 95
1, 50112, Note_on_c, 9, 42, 0
1, 50112, Note_on_c, 3, 74, 0
1, 50112, Note_on_c, 1, 45, 117
1, 50112, Note_on_c, 1, 33, 112
1, 50112, Note_on_c, 9, 36, 110
1, 50113, Note_on_c, 9, 36, 0
1, 50113, Note_on_c, 10, 62, 98
1, 50114, Note_on_c, 2, 71, 103
1, 50114, Note_on_c, 2, 62, 100
1, 50115, Note_on_c, 2, 69, 94
1, 50156, Note_on_c, 4, 62, 0
1, 50159, Note_on_c, 9, 42, 39
1, 50160, Note_on_c, 9, 42, 0
1, 50161, Note_on_c, 6, 81, 120
1, 50169, Note_on_c, 6, 81, 0
1, 50183, Note_on_c, 6, 81, 104
1, 50189, Note_on_c, 0, 71, 0
1, 50189, Note_on_c, 0, 74, 0
1, 50190, Note_on_c, 0, 66, 0
1, 50190, Note_on_c, 0, 67, 0
1, 50192, Note_on_c, 1, 33, 0
1, 50193, Note_on_c, 6, 81, 0
1, 50196, Note_on_c, 2, 69, 0
1, 50198, Note_on_c, 1, 45, 0
1, 50201, Note_on_c, 10, 62, 0
1, 50204, Note_on_c, 2, 71, 0
1, 50206, Note_on_c, 2, 62, 0
1, 50206, Note_on_c, 6, 79, 111
1, 50207, Note_on_c, 1, 31, 100
1, 50207, Note_on_c, 1, 43, 112
1, 50207, Note_on_c, 9, 42, 110
1, 50207, Note_on_c, 2, 62, 93
1, 50207, Note_on_c, 10, 59, 87
1, 50208, Note_on_c, 9, 42, 0
1, 50208, Note_on_c, 9, 40, 110
1, 50208, Note_on_c, 0, 71, 81
1, 50208, Note_on_c, 2, 67, 99
1, 50208, Note_on_c, 9, 39, 110
1, 50208, Note_on_c, 9, 36, 110
1, 50208, Note_on_c, 0, 74, 81
1, 50208, Note_on_c, 10, 64, 102
1, 50208, Note_on_c, 9, 60, 77
1, 50208, Note_on_c, 0, 67, 79
1, 50209, Note_on_c, 9, 60, 0
1, 50209, Note_on_c, 9, 39, 0
1, 50209, Note_on_c, 9, 40, 0
1, 50209, Note_on_c, 9, 36, 0
1, 50209, Note_on_c, 0, 66, 87
1, 50210, Note_on_c, 2, 71, 91
1, 50252, Note_on_c, 10, 64, 0
1, 50255, Note_on_c, 6, 79, 0
1, 50256, Note_on_c, 10, 66, 111
1, 50257, Note_on_c, 10, 59, 0
1, 50257, Note_on_c, 9, 42, 42
1, 50257, Note_on_c, 6, 81, 104
1, 50257, Note_on_c, 10, 62, 106
1, 50258, Note_on_c, 9, 42, 0
1, 50262, Note_on_c, 2, 71, 0
1, 50267, Note_on_c, 2, 62, 0
1, 50268, Note_on_c, 0, 66, 0
1, 50271, Note_on_c, 6, 81, 0
1, 50274, Note_on_c, 2, 67, 0
1, 50274, Note_on_c, 0, 67, 0
1, 50275, Note_on_c, 0, 71, 0
1, 50276, Note_on_c, 0, 74, 0
1, 50277, Note_on_c, 10, 66, 0
1, 50278, Note_on_c, 10, 62, 0
1, 50284, Note_on_c, 1, 31, 0
1, 50286, Note_on_c, 1, 43, 0
1, 50304, Lyric_t, "huh, "
1, 50304, Note_on_c, 3, 74, 97
1, 50304, Note_on_c, 4, 62, 54
1, 50304, Note_on_c, 9, 36, 110
1, 50304, Note_on_c, 9, 42, 96
1, 50305, Note_on_c, 9, 42, 0
1, 50305, Note_on_c, 9, 36, 0
1, 50305, Note_on_c, 1, 30, 97
1, 50305, Note_on_c, 0, 69, 75
1, 50305, Note_on_c, 1, 42, 99
1, 50305, Note_on_c, 0, 76, 83
1, 50305, Note_on_c, 2, 63, 100
1, 50305, Note_on_c, 0, 73, 71
1, 50306, Note_on_c, 2, 68, 93
1, 50330, Note_on_c, 2, 69, 86
1, 50331, Note_on_c, 2, 68, 0
1, 50333, Note_on_c, 2, 64, 86
1, 50336, Note_on_c, 2, 63, 0
1, 50351, Note_on_c, 3, 74, 0
1, 50351, Note_on_c, 9, 42, 37
1, 50352, Note_on_c, 9, 42, 0
1, 50379, Note_on_c, 2, 69, 0
1, 50379, Note_on_c, 2, 73, 103
1, 50380, Note_on_c, 2, 69, 97
1, 50393, Note_on_c, 2, 64, 0
1, 50399, Note_on_c, 9, 42, 110
1, 50400, Note_on_c, 9, 42, 0
1, 50400, Note_on_c, 9, 40, 95
1, 50400, Note_on_c, 9, 39, 110
1, 50400, Note_on_c, 9, 60, 77
1, 50401, Note_on_c, 9, 60, 0
1, 50401, Note_on_c, 9, 39, 0
1, 50401, Note_on_c, 9, 40, 0
1, 50405, Note_on_c, 2, 69, 0
1, 50405, Note_on_c, 0, 76, 0
1, 50406, Note_on_c, 2, 73, 0
1, 50408, Note_on_c, 0, 73, 0
1, 50408, Note_on_c, 0, 69, 0
1, 50412, Note_on_c, 1, 30, 0
1, 50413, Note_on_c, 4, 62, 0
1, 50415, Note_on_c, 1, 42, 0
1, 50447, Note_on_c, 0, 74, 82
1, 50447, Note_on_c, 0, 78, 73
1, 50447, Note_on_c, 0, 69, 78
1, 50448, Note_on_c, 1, 47, 110
1, 50448, Note_on_c, 1, 35, 98
1, 50448, Note_on_c, 2, 62, 90
1, 50448, Note_on_c, 9, 36, 91
1, 50448, Note_on_c, 10, 57, 97
1, 50448, Note_on_c, 9, 42, 44
1, 50448, Note_on_c, 2, 66, 103
1, 50449, Note_on_c, 9, 42, 0
1, 50449, Note_on_c, 9, 36, 0
1, 50450, Note_on_c, 2, 71, 103
1, 50462, Note_on_c, 2, 71, 0
1, 50469, Note_on_c, 2, 62, 0
1, 50470, Note_on_c, 10, 57, 0
1, 50473, Note_on_c, 2, 66, 0
1, 50495, Note_on_c, 9, 42, 95
1, 50496, Note_on_c, 9, 42, 0
1, 50496, Note_on_c, 9, 36, 110
1, 50497, Note_on_c, 9, 36, 0
1, 50521, Note_on_c, 2, 61, 70
1, 50521, Note_on_c, 2, 64, 80
1, 50522, Note_on_c, 0, 74, 0
1, 50522, Note_on_c, 0, 78, 0
1, 50534, Note_on_c, 0, 69, 0
1, 50536, Note_on_c, 1, 47, 0
1, 50536, Note_on_c, 2, 61, 0
1, 50541, Note_on_c, 6, 83, 127
1, 50542, Note_on_c, 1, 35, 0
1, 50542, Note_on_c, 2, 64, 0
1, 50543, Note_on_c, 1, 33, 100
1, 50543, Note_on_c, 9, 42, 39
1, 50543, Note_on_c, 1, 45, 97
1, 50544, Note_on_c, 9, 42, 0
1, 50544, Note_on_c, 10, 57, 92
1, 50544, Note_on_c, 2, 61, 91
1, 50545, Note_on_c, 0, 76, 68
1, 50545, Note_on_c, 0, 73, 75
1, 50545, Note_on_c, 0, 69, 66
1, 50556, Note_on_c, 0, 76, 0
1, 50557, Note_on_c, 0, 69, 0
1, 50559, Note_on_c, 1, 45, 0
1, 50560, Note_on_c, 1, 33, 0
1, 50560, Note_on_c, 0, 73, 0
1, 50565, Note_on_c, 10, 57, 0
1, 50574, Note_on_c, 6, 83, 0
1, 50590, Note_on_c, 2, 61, 0
1, 50591, Note_on_c, 4, 62, 58
1, 50591, Note_on_c, 1, 35, 97
1, 50591, Note_on_c, 3, 74, 101
1, 50591, Note_on_c, 9, 42, 110
1, 50591, Note_on_c, 10, 57, 106
1, 50591, Lyric_t, "share "
1, 50592, Note_on_c, 9, 42, 0
1, 50592, Note_on_c, 9, 60, 77
1, 50592, Note_on_c, 6, 81, 120
1, 50592, Note_on_c, 1, 47, 120
1, 50592, Note_on_c, 9, 39, 110
1, 50592, Note_on_c, 9, 36, 110
1, 50592, Note_on_c, 2, 62, 97
1, 50592, Note_on_c, 10, 66, 106
1, 50592, Note_on_c, 9, 40, 110
1, 50593, Note_on_c, 9, 40, 0
1, 50593, Note_on_c, 9, 39, 0
1, 50593, Note_on_c, 9, 60, 0
1, 50593, Note_on_c, 9, 36, 0
1, 50593, Note_on_c, 0, 78, 71
1, 50593, Note_on_c, 0, 69, 84
1, 50593, Note_on_c, 0, 74, 91
1, 50593, Note_on_c, 2, 66, 102
1, 50605, Note_on_c, 6, 81, 0
1, 50616, Note_on_c, 2, 62, 0
1, 50616, Note_on_c, 6, 81, 120
1, 50618, Note_on_c, 2, 66, 0
1, 50624, Note_on_c, 6, 81, 0
1, 50636, Note_on_c, 6, 83, 125
1, 50638, Note_on_c, 10, 57, 0
1, 50639, Note_on_c, 10, 66, 0
1, 50640, Note_on_c, 4, 62, 0
1, 50640, Lyric_t, "the "
1, 50640, Note_on_c, 4, 64, 44
1, 50640, Note_on_c, 3, 76, 87
1, 50640, Note_on_c, 10, 64, 106
1, 50640, Note_on_c, 10, 59, 106
1, 50641, Note_on_c, 3, 74, 0
1, 50641, Note_on_c, 9, 42, 42
1, 50642, Note_on_c, 9, 42, 0
1, 50651, Note_on_c, 0, 78, 0
1, 50657, Note_on_c, 0, 74, 0
1, 50660, Note_on_c, 0, 69, 0
1, 50662, Note_on_c, 10, 59, 0
1, 50662, Note_on_c, 10, 64, 0
1, 50663, Note_on_c, 6, 83, 0
1, 50678, Note_on_c, 1, 35, 0
1, 50678, Note_on_c, 1, 47, 0
1, 50684, Note_on_c, 3, 76, 0
1, 50688, Note_on_c, 4, 64, 0
1, 50688, Note_on_c, 4, 66, 63
1, 50688, Note_on_c, 1, 28, 104
1, 50688, Note_on_c, 9, 42, 96
1, 50688, Note_on_c, 0, 66, 96
1, 50688, Note_on_c, 9, 36, 110
1, 50688, Note_on_c, 3, 78, 106
1, 50688, Lyric_t, "spice "
1, 50688, Note_on_c, 10, 57, 91
1, 50689, Note_on_c, 9, 36, 0
1, 50689, Note_on_c, 9, 42, 0
1, 50689, Note_on_c, 0, 67, 81
1, 50689, Note_on_c, 0, 74, 82
1, 50689, Note_on_c, 1, 40, 110
1, 50689, Note_on_c, 0, 71, 81
1, 50689, Note_on_c, 9, 43, 86
1, 50690, Note_on_c, 9, 43, 0
1, 50711, Note_on_c, 2, 74, 96
1, 50712, Note_on_c, 2, 67, 93
1, 50714, Note_on_c, 2, 62, 50
1, 50729, Note_on_c, 2, 62, 0
1, 50732, Note_on_c, 2, 67, 0
1, 50733, Note_on_c, 2, 62, 78
1, 50734, Note_on_c, 3, 78, 0
1, 50735, Note_on_c, 2, 74, 0
1, 50735, Note_on_c, 4, 66, 0
1, 50735, Note_on_c, 4, 62, 35
1, 50735, Note_on_c, 9, 42, 37
1, 50735, Note_on_c, 2, 67, 96
1, 50735, Note_on_c, 3, 74, 78
1, 50735, Lyric_t, "of "
1, 50736, Note_on_c, 9, 42, 0
1, 50736, Note_on_c, 2, 74, 97
1, 50756, Note_on_c, 2, 74, 0
1, 50759, Note_on_c, 10, 57, 0
1, 50759, Note_on_c, 2, 67, 0
1, 50759, Note_on_c, 2, 74, 101
1, 50760, Note_on_c, 2, 67, 100
1, 50761, Note_on_c, 2, 62, 0
1, 50762, Note_on_c, 2, 62, 81
1, 50780, Note_on_c, 3, 74, 0
1, 50781, Note_on_c, 2, 67, 0
1, 50782, Note_on_c, 2, 74, 0
1, 50782, Note_on_c, 4, 62, 0
1, 50783, Note_on_c, 3, 74, 101
1, 50783, Note_on_c, 2, 67, 100
1, 50783, Lyric_t, "life. "
1, 50783, Note_on_c, 9, 42, 110
1, 50783, Note_on_c, 4, 62, 58
1, 50783, Lyric_t, ""
1, 50783, Lyric_t, "\015"
1, 50783, Note_on_c, 2, 74, 96
1, 50783, Note_on_c, 10, 59, 98
1, 50784, Note_on_c, 9, 42, 0
1, 50784, Note_on_c, 9, 40, 95
1, 50784, Note_on_c, 9, 60, 77
1, 50784, Note_on_c, 9, 39, 110
1, 50785, Note_on_c, 9, 39, 0
1, 50785, Note_on_c, 9, 60, 0
1, 50785, Note_on_c, 9, 40, 0
1, 50791, Note_on_c, 2, 62, 0
1, 50799, Note_on_c, 2, 74, 0
1, 50800, Note_on_c, 1, 28, 0
1, 50800, Note_on_c, 2, 67, 0
1, 50802, Note_on_c, 0, 66, 0
1, 50804, Note_on_c, 1, 40, 0
1, 50807, Note_on_c, 0, 71, 0
1, 50808, Note_on_c, 0, 74, 0
1, 50809, Note_on_c, 0, 67, 0
1, 50831, Note_on_c, 4, 62, 0
1, 50831, Note_on_c, 10, 59, 0
1, 50831, Note_on_c, 3, 74, 0
1, 50831, Note_on_c, 0, 71, 78
1, 50831, Note_on_c, 1, 43, 100
1, 50831, Note_on_c, 3, 76, 77
1, 50831, Note_on_c, 2, 67, 101
1, 50831, Note_on_c, 0, 74, 76
1, 50831, Note_on_c, 0, 67, 69
1, 50831, Note_on_c, 1, 31, 114
1, 50831, Note_on_c, 0, 66, 78
1, 50831, Note_on_c, 2, 62, 84
1, 50831, Note_on_c, 4, 64, 34
1, 50832, Note_on_c, 2, 71, 103
1, 50832, Note_on_c, 9, 42, 44
1, 50832, Note_on_c, 9, 36, 91
1, 50833, Note_on_c, 9, 36, 0
1, 50833, Note_on_c, 9, 42, 0
1, 50833, Note_on_c, 10, 57, 86
1, 50840, Note_on_c, 0, 74, 0
1, 50840, Note_on_c, 0, 67, 0
1, 50842, Note_on_c, 0, 71, 0
1, 50843, Note_on_c, 0, 66, 0
1, 50844, Note_on_c, 2, 71, 0
1, 50847, Note_on_c, 2, 67, 0
1, 50848, Note_on_c, 2, 62, 0
1, 50849, Note_on_c, 1, 43, 0
1, 50849, Note_on_c, 1, 31, 0
1, 50851, Note_on_c, 10, 57, 0
1, 50879, Note_on_c, 0, 66, 87
1, 50879, Note_on_c, 0, 74, 83
1, 50879, Note_on_c, 9, 42, 95
1, 50879, Note_on_c, 0, 71, 81
1, 50879, Note_on_c, 2, 59, 83
1, 50879, Note_on_c, 0, 67, 82
1, 50880, Note_on_c, 9, 42, 0
1, 50880, Note_on_c, 9, 36, 110
1, 50880, Note_on_c, 2, 62, 101
1, 50880, Note_on_c, 1, 45, 117
1, 50880, Note_on_c, 1, 33, 112
1, 50881, Note_on_c, 9, 36, 0
1, 50881, Note_on_c, 10, 62, 98
1, 50882, Note_on_c, 3, 76, 0
1, 50882, Note_on_c, 2, 69, 97
1, 50883, Note_on_c, 2, 71, 23
1, 50912, Lyric_t, ""
1, 50912, Lyric_t, "\015"
1, 50927, Note_on_c, 9, 42, 39
1, 50928, Note_on_c, 9, 42, 0
1, 50929, Note_on_c, 6, 81, 120
1, 50937, Note_on_c, 6, 81, 0
1, 50940, Note_on_c, 4, 64, 0
1, 50951, Note_on_c, 6, 81, 104
1, 50957, Note_on_c, 0, 74, 0
1, 50957, Note_on_c, 0, 71, 0
1, 50958, Note_on_c, 0, 67, 0
1, 50958, Note_on_c, 0, 66, 0
1, 50960, Note_on_c, 1, 33, 0
1, 50961, Note_on_c, 6, 81, 0
1, 50966, Note_on_c, 1, 45, 0
1, 50969, Note_on_c, 10, 62, 0
1, 50974, Note_on_c, 2, 62, 0
1, 50974, Note_on_c, 2, 69, 0
1, 50974, Note_on_c, 6, 79, 111
1, 50975, Note_on_c, 2, 71, 0
1, 50975, Note_on_c, 9, 42, 110
1, 50975, Note_on_c, 2, 62, 94
1, 50976, Note_on_c, 9, 42, 0
1, 50976, Note_on_c, 1, 43, 112
1, 50976, Note_on_c, 0, 74, 81
1, 50976, Note_on_c, 1, 31, 100
1, 50976, Note_on_c, 9, 40, 110
1, 50976, Note_on_c, 0, 67, 79
1, 50976, Note_on_c, 0, 71, 81
1, 50976, Note_on_c, 9, 60, 77
1, 50976, Note_on_c, 9, 36, 110
1, 50976, Note_on_c, 9, 39, 110
1, 50976, Note_on_c, 10, 64, 113
1, 50977, Note_on_c, 9, 39, 0
1, 50977, Note_on_c, 9, 60, 0
1, 50977, Note_on_c, 9, 40, 0
1, 50977, Note_on_c, 9, 36, 0
1, 50977, Note_on_c, 2, 67, 85
1, 50977, Note_on_c, 0, 66, 87
1, 50978, Note_on_c, 2, 71, 103
1, 51014, Note_on_c, 2, 59, 0
1, 51016, Note_on_c, 2, 71, 0
1, 51018, Note_on_c, 2, 62, 0
1, 51019, Note_on_c, 2, 67, 0
1, 51020, Note_on_c, 10, 64, 0
1, 51023, Note_on_c, 6, 79, 0
1, 51025, Note_on_c, 9, 42, 42
1, 51025, Note_on_c, 10, 59, 97
1, 51025, Note_on_c, 6, 81, 104
1, 51026, Note_on_c, 9, 42, 0
1, 51036, Note_on_c, 0, 66, 0
1, 51039, Note_on_c, 6, 81, 0
1, 51042, Note_on_c, 0, 67, 0
1, 51043, Note_on_c, 0, 71, 0
1, 51044, Note_on_c, 0, 74, 0
1, 51046, Note_on_c, 10, 59, 0
1, 51049, Note_on_c, 2, 68, 78
1, 51053, Note_on_c, 1, 31, 0
1, 51055, Note_on_c, 1, 43, 0
1, 51064, Note_on_c, 2, 68, 0
1, 51071, Note_on_c, 2, 63, 80
1, 51072, Note_on_c, 9, 42, 96
1, 51072, Note_on_c, 6, 76, 116
1, 51072, Note_on_c, 9, 36, 110
1, 51072, Note_on_c, 6, 85, 116
1, 51072, Note_on_c, 6, 81, 116
1, 51073, Note_on_c, 9, 36, 0
1, 51073, Note_on_c, 9, 42, 0
1, 51073, Note_on_c, 2, 72, 101
1, 51073, Note_on_c, 1, 42, 99
1, 51073, Note_on_c, 0, 69, 75
1, 51073, Note_on_c, 0, 73, 71
1, 51073, Note_on_c, 2, 68, 97
1, 51073, Note_on_c, 1, 30, 97
1, 51073, Note_on_c, 0, 76, 83
1, 51093, Note_on_c, 2, 72, 0
1, 51094, Note_on_c, 2, 73, 89
1, 51096, Note_on_c, 2, 64, 74
1, 51097, Note_on_c, 2, 63, 0
1, 51097, Note_on_c, 2, 69, 81
1, 51098, Note_on_c, 2, 68, 0
1, 51119, Note_on_c, 9, 42, 37
1, 51120, Note_on_c, 9, 42, 0
1, 51145, Note_on_c, 2, 73, 0
1, 51146, Note_on_c, 2, 69, 0
1, 51146, Note_on_c, 2, 73, 101
1, 51147, Note_on_c, 2, 64, 0
1, 51147, Note_on_c, 2, 69, 96
1, 51148, Note_on_c, 2, 64, 84
1, 51167, Note_on_c, 9, 42, 110
1, 51168, Note_on_c, 9, 42, 0
1, 51168, Lyric_t, "Hey, "
1, 51168, Note_on_c, 9, 39, 110
1, 51168, Note_on_c, 9, 40, 95
1, 51168, Note_on_c, 9, 60, 77
1, 51168, Note_on_c, 4, 69, 52
1, 51168, Note_on_c, 3, 81, 95
1, 51169, Note_on_c, 9, 60, 0
1, 51169, Note_on_c, 9, 40, 0
1, 51169, Note_on_c, 2, 73, 0
1, 51169, Note_on_c, 9, 39, 0
1, 51172, Note_on_c, 2, 64, 0
1, 51173, Note_on_c, 2, 69, 0
1, 51173, Note_on_c, 0, 76, 0
1, 51176, Note_on_c, 0, 73, 0
1, 51176, Note_on_c, 0, 69, 0
1, 51180, Note_on_c, 1, 30, 0
1, 51183, Note_on_c, 1, 42, 0
1, 51215, Note_on_c, 6, 81, 0
1, 51215, Note_on_c, 6, 76, 0
1, 51215, Note_on_c, 6, 85, 0
1, 51215, Note_on_c, 2, 66, 101
1, 51215, Note_on_c, 0, 69, 78
1, 51215, Note_on_c, 0, 78, 73
1, 51215, Note_on_c, 6, 83, 108
1, 51215, Note_on_c, 0, 74, 82
1, 51215, Note_on_c, 2, 62, 101
1, 51216, Note_on_c, 6, 78, 99
1, 51216, Note_on_c, 9, 42, 44
1, 51216, Note_on_c, 6, 74, 100
1, 51216, Note_on_c, 1, 35, 98
1, 51216, Note_on_c, 2, 71, 105
1, 51216, Note_on_c, 1, 47, 110
1, 51216, Note_on_c, 9, 36, 91
1, 51217, Note_on_c, 9, 36, 0
1, 51217, Note_on_c, 9, 42, 0
1, 51222, Note_on_c, 3, 81, 0
1, 51222, Note_on_c, 4, 69, 0
1, 51222, Note_on_c, 4, 66, 35
1, 51222, Note_on_c, 3, 78, 78
1, 51234, Note_on_c, 6, 78, 0
1, 51234, Note_on_c, 6, 74, 0
1, 51238, Note_on_c, 6, 83, 0
1, 51263, Note_on_c, 2, 66, 0
1, 51263, Note_on_c, 9, 42, 95
1, 51264, Note_on_c, 9, 42, 0
1, 51264, Note_on_c, 9, 36, 110
1, 51265, Note_on_c, 9, 36, 0
1, 51266, Note_on_c, 2, 71, 0
1, 51266, Note_on_c, 2, 62, 0
1, 51283, Note_on_c, 3, 78, 0
1, 51290, Note_on_c, 0, 78, 0
1, 51290, Note_on_c, 0, 74, 0
1, 51302, Note_on_c, 0, 69, 0
1, 51304, Note_on_c, 1, 47, 0
1, 51310, Note_on_c, 1, 35, 0
1, 51311, Note_on_c, 2, 61, 94
1, 51311, Note_on_c, 9, 42, 39
1, 51311, Note_on_c, 1, 33, 100
1, 51311, Note_on_c, 1, 45, 97
1, 51312, Note_on_c, 9, 42, 0
1, 51313, Note_on_c, 2, 64, 101
1, 51313, Note_on_c, 0, 73, 75
1, 51313, Note_on_c, 0, 69, 66
1, 51313, Note_on_c, 0, 76, 68
1, 51324, Note_on_c, 0, 76, 0
1, 51325, Note_on_c, 0, 69, 0
1, 51327, Note_on_c, 1, 45, 0
1, 51328, Note_on_c, 1, 33, 0
1, 51328, Note_on_c, 0, 73, 0
1, 51356, Note_on_c, 2, 61, 0
1, 51356, Note_on_c, 2, 64, 0
1, 51359, Note_on_c, 4, 66, 0
1, 51359, Note_on_c, 1, 35, 97
1, 51359, Note_on_c, 9, 42, 110
1, 51359, Note_on_c, 2, 62, 96
1, 51359, Lyric_t, "ba"
1, 51359, Note_on_c, 4, 62, 54
1, 51359, Note_on_c, 3, 74, 97
1, 51360, Note_on_c, 9, 42, 0
1, 51360, Note_on_c, 9, 36, 110
1, 51360, Note_on_c, 1, 47, 120
1, 51360, Note_on_c, 9, 40, 110
1, 51360, Note_on_c, 2, 66, 100
1, 51360, Note_on_c, 9, 39, 110
1, 51360, Note_on_c, 9, 60, 77
1, 51361, Note_on_c, 9, 60, 0
1, 51361, Note_on_c, 9, 39, 0
1, 51361, Note_on_c, 9, 40, 0
1, 51361, Note_on_c, 9, 36, 0
1, 51361, Note_on_c, 0, 78, 71
1, 51361, Note_on_c, 0, 69, 84
1, 51361, Note_on_c, 0, 74, 91
1, 51379, Note_on_c, 2, 62, 0
1, 51379, Note_on_c, 2, 66, 0
1, 51407, Note_on_c, 3, 74, 0
1, 51407, Note_on_c, 4, 62, 0
1, 51407, Note_on_c, 4, 64, 38
1, 51407, Lyric_t, "by, "
1, 51407, Note_on_c, 3, 76, 81
1, 51409, Note_on_c, 9, 42, 42
1, 51410, Note_on_c, 9, 42, 0
1, 51419, Note_on_c, 0, 78, 0
1, 51425, Note_on_c, 0, 74, 0
1, 51428, Note_on_c, 0, 69, 0
1, 51446, Note_on_c, 1, 35, 0
1, 51446, Note_on_c, 1, 47, 0
1, 51452, Note_on_c, 3, 76, 0
1, 51455, Note_on_c, 4, 64, 0
1, 51455, Note_on_c, 4, 66, 57
1, 51455, Lyric_t, "slice "
1, 51455, Note_on_c, 3, 78, 100
1, 51456, Note_on_c, 0, 66, 96
1, 51456, Note_on_c, 9, 42, 96
1, 51456, Note_on_c, 6, 83, 127
1, 51456, Note_on_c, 1, 28, 104
1, 51456, Note_on_c, 10, 57, 91
1, 51456, Note_on_c, 9, 36, 110
1, 51457, Note_on_c, 9, 36, 0
1, 51457, Note_on_c, 9, 42, 0
1, 51457, Note_on_c, 1, 40, 110
1, 51457, Note_on_c, 0, 74, 82
1, 51457, Note_on_c, 0, 71, 81
1, 51457, Note_on_c, 9, 43, 84
1, 51457, Note_on_c, 0, 67, 81
1, 51458, Note_on_c, 9, 43, 0
1, 51479, Note_on_c, 2, 74, 76
1, 51492, Note_on_c, 6, 82, 105
1, 51500, Note_on_c, 2, 74, 0
1, 51500, Note_on_c, 6, 83, 0
1, 51500, Note_on_c, 6, 81, 101
1, 51501, Note_on_c, 2, 62, 55
1, 51502, Note_on_c, 2, 67, 99
1, 51503, Note_on_c, 3, 78, 0
1, 51503, Note_on_c, 2, 74, 99
1, 51503, Note_on_c, 9, 42, 37
1, 51504, Note_on_c, 9, 42, 0
1, 51504, Note_on_c, 4, 66, 0
1, 51504, Note_on_c, 4, 62, 34
1, 51504, Note_on_c, 3, 74, 77
1, 51504, Lyric_t, "it "
1, 51505, Note_on_c, 6, 80, 96
1, 51508, Note_on_c, 6, 82, 0
1, 51511, Note_on_c, 6, 81, 0
1, 51512, Note_on_c, 6, 79, 89
1, 51517, Note_on_c, 6, 80, 0
1, 51517, Note_on_c, 6, 78, 81
1, 51520, Note_on_c, 6, 79, 0
1, 51523, Note_on_c, 6, 78, 0
1, 51523, Note_on_c, 2, 74, 0
1, 51523, Note_on_c, 6, 77, 78
1, 51526, Note_on_c, 2, 67, 0
1, 51526, Note_on_c, 2, 74, 101
1, 51527, Note_on_c, 10, 57, 0
1, 51527, Note_on_c, 6, 77, 0
1, 51527, Note_on_c, 2, 67, 101
1, 51527, Note_on_c, 6, 76, 76
1, 51528, Note_on_c, 2, 62, 0
1, 51529, Note_on_c, 2, 62, 93
1, 51530, Note_on_c, 2, 59, 49
1, 51532, Note_on_c, 6, 76, 0
1, 51546, Note_on_c, 2, 62, 0
1, 51547, Note_on_c, 2, 67, 0
1, 51548, Note_on_c, 2, 74, 0
1, 51549, Note_on_c, 3, 74, 0
1, 51549, Note_on_c, 2, 62, 101
1, 51550, Note_on_c, 4, 62, 0
1, 51550, Note_on_c, 2, 67, 101
1, 51551, Lyric_t, "right, "
1, 51551, Lyric_t, ""
1, 51551, Lyric_t, "\015"
1, 51551, Note_on_c, 10, 59, 98
1, 51551, Note_on_c, 4, 62, 48
1, 51551, Note_on_c, 3, 74, 91
1, 51551, Note_on_c, 9, 42, 110
1, 51552, Note_on_c, 9, 42, 0
1, 51552, Note_on_c, 9, 60, 77
1, 51552, Note_on_c, 9, 40, 95
1, 51552, Note_on_c, 9, 39, 110
1, 51553, Note_on_c, 9, 39, 0
1, 51553, Note_on_c, 9, 40, 0
1, 51553, Note_on_c, 9, 60, 0
1, 51553, Note_on_c, 2, 74, 96
1, 51563, Note_on_c, 2, 74, 0
1, 51566, Note_on_c, 2, 62, 0
1, 51568, Note_on_c, 2, 59, 0
1, 51568, Note_on_c, 1, 28, 0
1, 51570, Note_on_c, 0, 66, 0
1, 51571, Note_on_c, 2, 67, 0
1, 51572, Note_on_c, 1, 40, 0
1, 51575, Note_on_c, 0, 71, 0
1, 51576, Note_on_c, 0, 74, 0
1, 51577, Note_on_c, 0, 67, 0
1, 51598, Note_on_c, 2, 62, 83
1, 51599, Note_on_c, 10, 59, 0
1, 51599, Note_on_c, 0, 67, 69
1, 51599, Note_on_c, 2, 67, 99
1, 51599, Note_on_c, 1, 31, 114
1, 51599, Note_on_c, 0, 74, 76
1, 51599, Note_on_c, 1, 43, 100
1, 51599, Note_on_c, 0, 71, 78
1, 51599, Note_on_c, 0, 66, 78
1, 51600, Note_on_c, 9, 36, 91
1, 51600, Note_on_c, 9, 42, 44
1, 51600, Note_on_c, 2, 71, 101
1, 51601, Note_on_c, 9, 42, 0
1, 51601, Note_on_c, 9, 36, 0
1, 51601, Note_on_c, 10, 57, 86
1, 51602, Note_on_c, 3, 74, 0
1, 51608, Note_on_c, 0, 67, 0
1, 51608, Note_on_c, 0, 74, 0
1, 51610, Note_on_c, 0, 71, 0
1, 51611, Note_on_c, 0, 66, 0
1, 51613, Note_on_c, 2, 71, 0
1, 51616, Note_on_c, 2, 62, 0
1, 51616, Note_on_c, 2, 67, 0
1, 51617, Note_on_c, 1, 43, 0
1, 51617, Note_on_c, 1, 31, 0
1, 51619, Note_on_c, 10, 57, 0
1, 51646, Note_on_c, 2, 59, 69
1, 51647, Note_on_c, 0, 67, 82
1, 51647, Note_on_c, 0, 74, 83
1, 51647, Note_on_c, 2, 62, 102
1, 51647, Note_on_c, 0, 66, 87
1, 51647, Note_on_c, 2, 69, 94
1, 51647, Note_on_c, 0, 71, 81
1, 51647, Note_on_c, 9, 42, 95
1, 51648, Note_on_c, 9, 42, 0
1, 51648, Note_on_c, 9, 36, 110
1, 51648, Note_on_c, 1, 45, 117
1, 51648, Note_on_c, 1, 33, 112
1, 51649, Note_on_c, 9, 36, 0
1, 51649, Note_on_c, 10, 62, 98
1, 51650, Note_on_c, 2, 71, 94
1, 51669, Note_on_c, 4, 62, 0
1, 51695, Note_on_c, 9, 42, 39
1, 51696, Note_on_c, 9, 42, 0
1, 51697, Note_on_c, 6, 81, 114
1, 51705, Note_on_c, 6, 81, 0
1, 51715, Note_on_c, 2, 71, 0
1, 51718, Note_on_c, 2, 71, 75
1, 51719, Note_on_c, 6, 81, 87
1, 51725, Note_on_c, 0, 74, 0
1, 51725, Note_on_c, 0, 71, 0
1, 51726, Note_on_c, 0, 67, 0
1, 51726, Note_on_c, 0, 66, 0
1, 51728, Note_on_c, 1, 33, 0
1, 51729, Note_on_c, 6, 81, 0
1, 51734, Note_on_c, 1, 45, 0
1, 51735, Note_on_c, 2, 69, 0
1, 51737, Note_on_c, 10, 62, 0
1, 51740, Note_on_c, 2, 62, 0
1, 51742, Note_on_c, 2, 71, 0
1, 51742, Note_on_c, 2, 62, 98
1, 51742, Note_on_c, 6, 79, 111
1, 51743, Note_on_c, 9, 42, 110
1, 51743, Note_on_c, 10, 59, 87
1, 51743, Note_on_c, 2, 71, 103
1, 51744, Note_on_c, 9, 42, 0
1, 51744, Note_on_c, 0, 71, 81
1, 51744, Note_on_c, 9, 40, 110
1, 51744, Note_on_c, 1, 31, 100
1, 51744, Note_on_c, 0, 67, 79
1, 51744, Note_on_c, 1, 43, 112
1, 51744, Note_on_c, 9, 36, 110
1, 51744, Note_on_c, 9, 39, 110
1, 51744, Note_on_c, 0, 74, 81
1, 51744, Note_on_c, 9, 60, 77
1, 51744, Note_on_c, 10, 64, 102
1, 51745, Note_on_c, 9, 60, 0
1, 51745, Note_on_c, 9, 40, 0
1, 51745, Note_on_c, 9, 39, 0
1, 51745, Note_on_c, 9, 36, 0
1, 51745, Note_on_c, 0, 66, 87
1, 51746, Note_on_c, 2, 67, 97
1, 51761, Note_on_c, 2, 71, 0
1, 51767, Note_on_c, 2, 71, 101
1, 51779, Note_on_c, 2, 71, 0
1, 51779, Note_on_c, 2, 59, 0
1, 51781, Note_on_c, 2, 62, 0
1, 51783, Note_on_c, 2, 67, 0
1, 51788, Note_on_c, 10, 64, 0
1, 51791, Note_on_c, 6, 79, 0
1, 51792, Note_on_c, 10, 66, 111
1, 51792, Note_on_c, 2, 62, 60
1, 51793, Note_on_c, 10, 59, 0
1, 51793, Note_on_c, 9, 42, 42
1, 51793, Note_on_c, 6, 81, 104
1, 51793, Note_on_c, 10, 62, 106
1, 51794, Note_on_c, 9, 42, 0
1, 51796, Note_on_c, 2, 62, 0
1, 51804, Note_on_c, 0, 66, 0
1, 51807, Note_on_c, 6, 81, 0
1, 51810, Note_on_c, 0, 67, 0
1, 51811, Note_on_c, 0, 71, 0
1, 51812, Note_on_c, 0, 74, 0
1, 51813, Note_on_c, 10, 66, 0
1, 51814, Note_on_c, 10, 62, 0
1, 51821, Note_on_c, 1, 31, 0
1, 51823, Note_on_c, 1, 43, 0
1, 51840, Note_on_c, 9, 36, 110
1, 51840, Note_on_c, 9, 42, 96
1, 51841, Note_on_c, 9, 42, 0
1, 51841, Note_on_c, 9, 36, 0
1, 51841, Note_on_c, 2, 63, 33
1, 51841, Note_on_c, 0, 69, 75
1, 51841, Note_on_c, 2, 68, 97
1, 51841, Note_on_c, 0, 76, 83
1, 51841, Note_on_c, 1, 42, 99
1, 51841, Note_on_c, 0, 73, 71
1, 51841, Note_on_c, 1, 30, 97
1, 51842, Note_on_c, 2, 72, 100
1, 51867, Note_on_c, 2, 72, 0
1, 51867, Note_on_c, 2, 73, 83
1, 51867, Note_on_c, 2, 69, 81
1, 51868, Note_on_c, 2, 64, 26
1, 51869, Note_on_c, 2, 68, 0
1, 51872, Note_on_c, 2, 63, 0
1, 51887, Note_on_c, 9, 42, 37
1, 51888, Note_on_c, 9, 42, 0
1, 51898, Note_on_c, 2, 64, 0
1, 51908, Note_on_c, 2, 73, 0
1, 51909, Note_on_c, 2, 69, 0
1, 51911, Note_on_c, 2, 73, 100
1, 51913, Note_on_c, 2, 69, 87
1, 51935, Note_on_c, 9, 42, 110
1, 51936, Note_on_c, 9, 42, 0
1, 51936, Note_on_c, 2, 69, 0
1, 51936, Note_on_c, 9, 40, 95
1, 51936, Note_on_c, 9, 39, 110
1, 51936, Note_on_c, 9, 60, 77
1, 51937, Note_on_c, 9, 60, 0
1, 51937, Note_on_c, 9, 39, 0
1, 51937, Note_on_c, 9, 40, 0
1, 51938, Note_on_c, 2, 73, 0
1, 51941, Note_on_c, 0, 76, 0
1, 51944, Note_on_c, 0, 69, 0
1, 51944, Note_on_c, 0, 73, 0
1, 51948, Note_on_c, 1, 30, 0
1, 51951, Note_on_c, 1, 42, 0
1, 51982, Note_on_c, 2, 62, 89
1, 51983, Note_on_c, 0, 74, 82
1, 51983, Note_on_c, 0, 69, 78
1, 51983, Note_on_c, 0, 78, 73
1, 51983, Note_on_c, 2, 66, 103
1, 51984, Note_on_c, 1, 35, 98
1, 51984, Note_on_c, 1, 47, 110
1, 51984, Note_on_c, 10, 57, 97
1, 51984, Note_on_c, 9, 36, 91
1, 51984, Note_on_c, 9, 42, 44
1, 51985, Note_on_c, 9, 42, 0
1, 51985, Note_on_c, 9, 36, 0
1, 52006, Note_on_c, 10, 57, 0
1, 52031, Note_on_c, 9, 42, 95
1, 52032, Note_on_c, 9, 42, 0
1, 52032, Note_on_c, 9, 36, 110
1, 52033, Note_on_c, 9, 36, 0
1, 52058, Note_on_c, 0, 74, 0
1, 52058, Note_on_c, 0, 78, 0
1, 52070, Note_on_c, 0, 69, 0
1, 52071, Note_on_c, 2, 66, 0
1, 52072, Note_on_c, 1, 47, 0
1, 52076, Note_on_c, 2, 62, 0
1, 52077, Note_on_c, 2, 61, 91
1, 52077, Note_on_c, 6, 83, 127
1, 52078, Note_on_c, 1, 35, 0
1, 52079, Note_on_c, 4, 59, 24
1, 52079, Note_on_c, 9, 42, 39
1, 52079, Lyric_t, "just "
1, 52079, Note_on_c, 1, 33, 100
1, 52079, Note_on_c, 3, 71, 67
1, 52079, Note_on_c, 1, 45, 97
1, 52079, Note_on_c, 2, 64, 102
1, 52080, Note_on_c, 9, 42, 0
1, 52080, Note_on_c, 10, 57, 92
1, 52081, Note_on_c, 0, 73, 75
1, 52081, Note_on_c, 0, 76, 68
1, 52081, Note_on_c, 0, 69, 66
1, 52092, Note_on_c, 0, 76, 0
1, 52093, Note_on_c, 0, 69, 0
1, 52095, Note_on_c, 1, 45, 0
1, 52096, Note_on_c, 1, 33, 0
1, 52096, Note_on_c, 0, 73, 0
1, 52101, Note_on_c, 10, 57, 0
1, 52110, Note_on_c, 6, 83, 0
1, 52123, Note_on_c, 2, 64, 0
1, 52125, Note_on_c, 2, 61, 0
1, 52126, Note_on_c, 3, 71, 0
1, 52127, Note_on_c, 4, 59, 0
1, 52127, Note_on_c, 9, 42, 110
1, 52127, Note_on_c, 1, 35, 97
1, 52127, Note_on_c, 4, 62, 50
1, 52127, Note_on_c, 3, 74, 93
1, 52127, Note_on_c, 10, 59, 106
1, 52127, Note_on_c, 2, 62, 99
1, 52127, Lyric_t, "gon"
1, 52128, Note_on_c, 9, 42, 0
1, 52128, Note_on_c, 1, 47, 120
1, 52128, Note_on_c, 6, 81, 122
1, 52128, Note_on_c, 2, 66, 103
1, 52128, Note_on_c, 9, 60, 77
1, 52128, Note_on_c, 9, 36, 110
1, 52128, Note_on_c, 9, 40, 110
1, 52128, Note_on_c, 9, 39, 110
1, 52129, Note_on_c, 9, 39, 0
1, 52129, Note_on_c, 9, 36, 0
1, 52129, Note_on_c, 9, 60, 0
1, 52129, Note_on_c, 9, 40, 0
1, 52129, Note_on_c, 0, 69, 84
1, 52129, Note_on_c, 0, 78, 71
1, 52129, Note_on_c, 0, 74, 91
1, 52143, Note_on_c, 6, 81, 0
1, 52144, Note_on_c, 2, 66, 0
1, 52149, Note_on_c, 2, 62, 0
1, 52152, Note_on_c, 6, 81, 114
1, 52160, Note_on_c, 6, 81, 0
1, 52172, Note_on_c, 6, 83, 125
1, 52174, Note_on_c, 10, 59, 0
1, 52175, Note_on_c, 3, 74, 0
1, 52175, Note_on_c, 4, 62, 0
1, 52175, Lyric_t, "na "
1, 52175, Note_on_c, 3, 76, 85
1, 52175, Note_on_c, 4, 64, 42
1, 52176, Note_on_c, 10, 62, 106
1, 52176, Note_on_c, 10, 59, 106
1, 52177, Note_on_c, 9, 42, 42
1, 52178, Note_on_c, 9, 42, 0
1, 52187, Note_on_c, 0, 78, 0
1, 52193, Note_on_c, 0, 74, 0
1, 52196, Note_on_c, 0, 69, 0
1, 52198, Note_on_c, 10, 62, 0
1, 52198, Note_on_c, 10, 59, 0
1, 52199, Note_on_c, 6, 83, 0
1, 52214, Note_on_c, 1, 47, 0
1, 52214, Note_on_c, 1, 35, 0
1, 52221, Note_on_c, 3, 76, 0
1, 52224, Note_on_c, 4, 64, 0
1, 52224, Note_on_c, 1, 28, 104
1, 52224, Note_on_c, 3, 78, 100
1, 52224, Note_on_c, 9, 42, 96
1, 52224, Note_on_c, 10, 57, 91
1, 52224, Lyric_t, "groove "
1, 52224, Note_on_c, 0, 66, 96
1, 52224, Note_on_c, 9, 36, 110
1, 52224, Note_on_c, 4, 66, 57
1, 52225, Note_on_c, 9, 36, 0
1, 52225, Note_on_c, 9, 42, 0
1, 52225, Note_on_c, 1, 40, 110
1, 52225, Note_on_c, 9, 43, 86
1, 52225, Note_on_c, 0, 71, 81
1, 52225, Note_on_c, 0, 67, 81
1, 52225, Note_on_c, 0, 74, 82
1, 52226, Note_on_c, 9, 43, 0
1, 52248, Note_on_c, 2, 74, 77
1, 52250, Note_on_c, 2, 67, 74
1, 52268, Pitch_bend_c, 3, 7840
1, 52268, Pitch_bend_c, 4, 7840
1, 52269, Note_on_c, 2, 67, 0
1, 52270, Note_on_c, 2, 62, 55
1, 52271, Note_on_c, 2, 74, 0
1, 52271, Pitch_bend_c, 4, 6787
1, 52271, Note_on_c, 2, 67, 97
1, 52271, Pitch_bend_c, 3, 6787
1, 52271, Note_on_c, 9, 42, 37
1, 52272, Note_on_c, 9, 42, 0
1, 52272, Note_on_c, 2, 74, 96
1, 52274, Pitch_bend_c, 4, 5617
1, 52274, Pitch_bend_c, 3, 5617
1, 52278, Pitch_bend_c, 3, 4564
1, 52278, Pitch_bend_c, 4, 4564
1, 52281, Pitch_bend_c, 3, 3277
1, 52281, Pitch_bend_c, 4, 3277
1, 52284, Pitch_bend_c, 4, 2224
1, 52284, Pitch_bend_c, 3, 2224
1, 52287, Pitch_bend_c, 3, 1288
1, 52287, Pitch_bend_c, 4, 1288
1, 52291, Pitch_bend_c, 3, 469
1, 52291, Pitch_bend_c, 4, 469
1, 52293, Pitch_bend_c, 3, 0
1, 52293, Pitch_bend_c, 4, 0
1, 52295, Note_on_c, 2, 74, 0
1, 52295, Note_on_c, 10, 57, 0
1, 52296, Note_on_c, 2, 67, 0
1, 52296, Note_on_c, 2, 74, 99
1, 52297, Note_on_c, 2, 67, 95
1, 52300, Pitch_bend_c, 4, 118
1, 52300, Pitch_bend_c, 3, 118
1, 52302, Pitch_bend_c, 3, 6319
1, 52302, Pitch_bend_c, 4, 6319
1, 52306, Note_on_c, 3, 78, 0
1, 52306, Pitch_bend_c, 4, 8192
1, 52306, Pitch_bend_c, 3, 8192
1, 52317, Note_on_c, 2, 67, 0
1, 52318, Note_on_c, 2, 62, 0
1, 52318, Note_on_c, 2, 74, 0
1, 52319, Note_on_c, 4, 66, 0
1, 52319, Lyric_t, "to"
1, 52319, Note_on_c, 10, 59, 98
1, 52319, Note_on_c, 2, 62, 101
1, 52319, Note_on_c, 3, 74, 90
1, 52319, Note_on_c, 2, 74, 99
1, 52319, Note_on_c, 4, 62, 47
1, 52319, Note_on_c, 9, 42, 110
1, 52319, Note_on_c, 2, 67, 99
1, 52320, Note_on_c, 9, 42, 0
1, 52320, Note_on_c, 9, 60, 77
1, 52320, Note_on_c, 9, 40, 95
1, 52320, Note_on_c, 9, 39, 110
1, 52321, Note_on_c, 9, 39, 0
1, 52321, Note_on_c, 9, 40, 0
1, 52321, Note_on_c, 9, 60, 0
1, 52334, Note_on_c, 2, 74, 0
1, 52336, Note_on_c, 1, 28, 0
1, 52337, Note_on_c, 2, 62, 0
1, 52338, Note_on_c, 0, 66, 0
1, 52339, Note_on_c, 2, 67, 0
1, 52340, Note_on_c, 1, 40, 0
1, 52343, Note_on_c, 0, 71, 0
1, 52344, Note_on_c, 0, 74, 0
1, 52345, Note_on_c, 0, 67, 0
1, 52367, Note_on_c, 10, 59, 0
1, 52367, Note_on_c, 3, 74, 0
1, 52367, Note_on_c, 0, 74, 76
1, 52367, Note_on_c, 0, 66, 78
1, 52367, Note_on_c, 2, 67, 97
1, 52367, Note_on_c, 1, 43, 100
1, 52367, Note_on_c, 0, 71, 78
1, 52367, Note_on_c, 0, 67, 69
1, 52367, Note_on_c, 1, 31, 114
1, 52367, Note_on_c, 2, 62, 98
1, 52368, Note_on_c, 9, 36, 91
1, 52368, Note_on_c, 9, 42, 44
1, 52369, Note_on_c, 9, 42, 0
1, 52369, Note_on_c, 9, 36, 0
1, 52369, Note_on_c, 4, 62, 0
1, 52369, Note_on_c, 10, 57, 86
1, 52369, Note_on_c, 4, 64, 35
1, 52369, Lyric_t, "night, "
1, 52369, Note_on_c, 3, 76, 78
1, 52370, Note_on_c, 2, 71, 102
1, 52376, Note_on_c, 0, 74, 0
1, 52376, Note_on_c, 0, 67, 0
1, 52378, Note_on_c, 0, 71, 0
1, 52379, Note_on_c, 0, 66, 0
1, 52383, Note_on_c, 2, 71, 0
1, 52384, Note_on_c, 2, 62, 0
1, 52385, Note_on_c, 1, 31, 0
1, 52385, Note_on_c, 1, 43, 0
1, 52387, Note_on_c, 2, 67, 0
1, 52387, Note_on_c, 10, 57, 0
1, 52413, Note_on_c, 3, 76, 0
1, 52415, Note_on_c, 0, 71, 81
1, 52415, Note_on_c, 0, 67, 82
1, 52415, Note_on_c, 0, 66, 87
1, 52415, Note_on_c, 0, 74, 83
1, 52415, Note_on_c, 9, 42, 95
1, 52416, Note_on_c, 9, 42, 0
1, 52416, Note_on_c, 4, 64, 0
1, 52416, Note_on_c, 4, 66, 12
1, 52416, Note_on_c, 1, 33, 112
1, 52416, Note_on_c, 3, 78, 55
1, 52416, Note_on_c, 9, 36, 110
1, 52416, Note_on_c, 1, 45, 117
1, 52417, Note_on_c, 9, 36, 0
1, 52417, Note_on_c, 2, 59, 77
1, 52417, Note_on_c, 10, 62, 98
1, 52418, Note_on_c, 2, 62, 101
1, 52419, Note_on_c, 2, 69, 97
1, 52420, Note_on_c, 2, 71, 96
1, 52463, Note_on_c, 9, 42, 39
1, 52464, Note_on_c, 9, 42, 0
1, 52465, Note_on_c, 6, 81, 120
1, 52473, Note_on_c, 6, 81, 0
1, 52487, Note_on_c, 6, 81, 104
1, 52493, Note_on_c, 0, 74, 0
1, 52493, Note_on_c, 0, 71, 0
1, 52494, Note_on_c, 0, 66, 0
1, 52494, Note_on_c, 0, 67, 0
1, 52496, Note_on_c, 1, 33, 0
1, 52497, Note_on_c, 6, 81, 0
1, 52502, Note_on_c, 1, 45, 0
1, 52504, Note_on_c, 2, 69, 0
1, 52505, Note_on_c, 10, 62, 0
1, 52509, Note_on_c, 2, 71, 0
1, 52510, Note_on_c, 6, 79, 111
1, 52511, Note_on_c, 3, 78, 0
1, 52511, Note_on_c, 9, 42, 110
1, 52512, Note_on_c, 9, 42, 0
1, 52512, Note_on_c, 9, 39, 110
1, 52512, Note_on_c, 0, 67, 79
1, 52512, Note_on_c, 0, 71, 81
1, 52512, Note_on_c, 0, 74, 81
1, 52512, Note_on_c, 9, 40, 110
1, 52512, Note_on_c, 1, 43, 112
1, 52512, Note_on_c, 9, 36, 110
1, 52512, Note_on_c, 9, 60, 77
1, 52512, Note_on_c, 2, 67, 100
1, 52512, Note_on_c, 1, 31, 100
1, 52512, Note_on_c, 10, 64, 113
1, 52513, Note_on_c, 9, 60, 0
1, 52513, Note_on_c, 9, 40, 0
1, 52513, Note_on_c, 9, 39, 0
1, 52513, Note_on_c, 9, 36, 0
1, 52513, Note_on_c, 0, 66, 87
1, 52514, Note_on_c, 2, 71, 103
1, 52520, Note_on_c, 2, 59, 0
1, 52521, Note_on_c, 2, 62, 0
1, 52523, Note_on_c, 2, 71, 0
1, 52527, Note_on_c, 2, 67, 0
1, 52556, Note_on_c, 10, 64, 0
1, 52559, Note_on_c, 6, 79, 0
1, 52561, Note_on_c, 6, 81, 104
1, 52561, Note_on_c, 9, 42, 42
1, 52561, Note_on_c, 10, 59, 97
1, 52562, Note_on_c, 9, 42, 0
1, 52563, Note_on_c, 4, 66, 0
1, 52563, Note_on_c, 3, 81, 115
1, 52563, Lyric_t, "hey, "
1, 52563, Note_on_c, 4, 69, 72
1, 52572, Note_on_c, 0, 66, 0
1, 52575, Note_on_c, 6, 81, 0
1, 52578, Note_on_c, 0, 67, 0
1, 52579, Note_on_c, 0, 71, 0
1, 52580, Note_on_c, 0, 74, 0
1, 52582, Note_on_c, 10, 59, 0
1, 52589, Note_on_c, 1, 31, 0
1, 52591, Note_on_c, 1, 43, 0
1, 52607, Note_on_c, 2, 63, 53
1, 52608, Note_on_c, 3, 81, 0
1, 52608, Note_on_c, 6, 81, 117
1, 52608, Note_on_c, 9, 36, 110
1, 52608, Note_on_c, 6, 85, 117
1, 52608, Note_on_c, 9, 42, 96
1, 52608, Note_on_c, 6, 76, 117
1, 52609, Note_on_c, 9, 42, 0
1, 52609, Note_on_c, 9, 36, 0
1, 52609, Note_on_c, 0, 69, 75
1, 52609, Note_on_c, 0, 76, 83
1, 52609, Note_on_c, 2, 68, 92
1, 52609, Note_on_c, 1, 42, 99
1, 52609, Note_on_c, 0, 73, 71
1, 52609, Note_on_c, 1, 30, 97
1, 52610, Note_on_c, 2, 72, 100
1, 52615, Note_on_c, 4, 69, 0
1, 52615, Note_on_c, 3, 78, 88
1, 52615, Note_on_c, 4, 66, 45
1, 52631, Note_on_c, 2, 72, 0
1, 52632, Note_on_c, 2, 68, 0
1, 52632, Note_on_c, 2, 73, 88
1, 52632, Note_on_c, 2, 69, 94
1, 52633, Note_on_c, 2, 64, 49
1, 52634, Note_on_c, 2, 63, 0
1, 52655, Note_on_c, 9, 42, 37
1, 52656, Note_on_c, 9, 42, 0
1, 52668, Note_on_c, 3, 78, 0
1, 52681, Note_on_c, 2, 73, 0
1, 52682, Note_on_c, 2, 69, 0
1, 52682, Note_on_c, 2, 73, 100
1, 52683, Note_on_c, 2, 64, 0
1, 52683, Note_on_c, 2, 69, 97
1, 52684, Note_on_c, 2, 64, 90
1, 52703, Note_on_c, 2, 64, 0
1, 52703, Note_on_c, 9, 42, 110
1, 52704, Note_on_c, 9, 42, 0
1, 52704, Note_on_c, 9, 40, 95
1, 52704, Note_on_c, 9, 39, 110
1, 52704, Note_on_c, 9, 60, 77
1, 52705, Note_on_c, 9, 60, 0
1, 52705, Note_on_c, 9, 39, 0
1, 52705, Note_on_c, 2, 69, 0
1, 52705, Note_on_c, 9, 40, 0
1, 52707, Note_on_c, 2, 73, 0
1, 52709, Note_on_c, 0, 76, 0
1, 52712, Note_on_c, 0, 73, 0
1, 52712, Note_on_c, 0, 69, 0
1, 52716, Note_on_c, 1, 30, 0
1, 52719, Note_on_c, 1, 42, 0
1, 52751, Note_on_c, 6, 76, 0
1, 52751, Note_on_c, 6, 85, 0
1, 52751, Note_on_c, 6, 81, 0
1, 52751, Note_on_c, 2, 59, 58
1, 52751, Note_on_c, 6, 83, 108
1, 52751, Note_on_c, 0, 69, 78
1, 52751, Note_on_c, 0, 78, 73
1, 52751, Note_on_c, 0, 74, 82
1, 52752, Note_on_c, 9, 36, 91
1, 52752, Note_on_c, 1, 47, 110
1, 52752, Note_on_c, 6, 74, 100
1, 52752, Note_on_c, 1, 35, 98
1, 52752, Note_on_c, 9, 42, 44
1, 52752, Note_on_c, 6, 78, 99
1, 52753, Note_on_c, 9, 42, 0
1, 52753, Note_on_c, 9, 36, 0
1, 52753, Note_on_c, 2, 62, 99
1, 52754, Note_on_c, 2, 66, 102
1, 52755, Note_on_c, 2, 71, 105
1, 52759, Note_on_c, 4, 66, 0
1, 52759, Note_on_c, 4, 69, 64
1, 52759, Lyric_t, ""
1, 52759, Lyric_t, "\015"
1, 52759, Note_on_c, 3, 81, 107
1, 52759, Lyric_t, "oh. "
1, 52770, Note_on_c, 6, 74, 0
1, 52770, Note_on_c, 6, 78, 0
1, 52774, Note_on_c, 6, 83, 0
1, 52799, Note_on_c, 9, 42, 95
1, 52800, Note_on_c, 9, 42, 0
1, 52800, Note_on_c, 9, 36, 110
1, 52801, Note_on_c, 9, 36, 0
1, 52812, Note_on_c, 2, 71, 0
1, 52819, Note_on_c, 2, 66, 0
1, 52821, Note_on_c, 2, 59, 0
1, 52821, Note_on_c, 2, 62, 0
1, 52826, Note_on_c, 0, 74, 0
1, 52826, Note_on_c, 0, 78, 0
1, 52838, Note_on_c, 0, 69, 0
1, 52840, Note_on_c, 1, 47, 0
1, 52846, Note_on_c, 1, 35, 0
1, 52847, Note_on_c, 4, 69, 0
1, 52847, Note_on_c, 1, 33, 100
1, 52847, Note_on_c, 1, 45, 97
1, 52847, Note_on_c, 9, 42, 35
1, 52848, Note_on_c, 9, 42, 0
1, 52848, Note_on_c, 3, 81, 0
1, 52848, Note_on_c, 4, 62, 37
1, 52848, Note_on_c, 4, 66, 37
1, 52848, Note_on_c, 4, 69, 37
1, 52848, Note_on_c, 6, 78, 77
1, 52849, Note_on_c, 0, 76, 68
1, 52849, Note_on_c, 0, 73, 75
1, 52849, Note_on_c, 0, 69, 66
1, 52849, Note_on_c, 2, 61, 101
1, 52850, Note_on_c, 2, 64, 100
1, 52851, Lyric_t, "You "
1, 52851, Note_on_c, 3, 74, 107
1, 52860, Note_on_c, 0, 76, 0
1, 52861, Note_on_c, 0, 69, 0
1, 52863, Note_on_c, 1, 45, 0
1, 52864, Note_on_c, 0, 73, 0
1, 52864, Note_on_c, 1, 33, 0
1, 52871, Note_on_c, 6, 78, 0
1, 52894, Note_on_c, 3, 76, 80
1, 52894, Lyric_t, "just "
1, 52895, Note_on_c, 1, 35, 97
1, 52895, Note_on_c, 9, 42, 98
1, 52896, Note_on_c, 9, 42, 0
1, 52896, Note_on_c, 4, 69, 0
1, 52896, Note_on_c, 4, 66, 0
1, 52896, Note_on_c, 2, 61, 0
1, 52896, Note_on_c, 4, 62, 0
1, 52896, Note_on_c, 9, 60, 77
1, 52896, Note_on_c, 9, 39, 110
1, 52896, Note_on_c, 4, 71, 37
1, 52896, Note_on_c, 9, 36, 110
1, 52896, Note_on_c, 6, 81, 110
1, 52896, Note_on_c, 1, 47, 120
1, 52896, Note_on_c, 4, 67, 37
1, 52896, Note_on_c, 9, 40, 110
1, 52896, Note_on_c, 4, 64, 37
1, 52897, Note_on_c, 9, 40, 0
1, 52897, Note_on_c, 9, 39, 0
1, 52897, Note_on_c, 3, 74, 0
1, 52897, Note_on_c, 9, 36, 0
1, 52897, Note_on_c, 9, 60, 0
1, 52897, Note_on_c, 0, 69, 84
1, 52897, Note_on_c, 2, 62, 100
1, 52897, Note_on_c, 0, 78, 71
1, 52897, Note_on_c, 0, 74, 91
1, 52898, Note_on_c, 2, 64, 0
1, 52898, Note_on_c, 2, 66, 101
1, 52917, Note_on_c, 2, 66, 0
1, 52922, Note_on_c, 2, 62, 0
1, 52943, Note_on_c, 6, 81, 0
1, 52944, Note_on_c, 6, 83, 112
1, 52945, Note_on_c, 9, 42, 42
1, 52946, Note_on_c, 9, 42, 0
1, 52955, Note_on_c, 0, 78, 0
1, 52961, Note_on_c, 0, 74, 0
1, 52962, Note_on_c, 6, 83, 0
1, 52964, Note_on_c, 0, 69, 0
1, 52982, Note_on_c, 1, 35, 0
1, 52982, Note_on_c, 1, 47, 0
1, 52992, Note_on_c, 4, 64, 0
1, 52992, Note_on_c, 4, 67, 0
1, 52992, Note_on_c, 4, 71, 0
1, 52992, Note_on_c, 6, 83, 127
1, 52992, Note_on_c, 4, 74, 37
1, 52992, Note_on_c, 4, 66, 37
1, 52992, Note_on_c, 4, 69, 37
1, 52992, Note_on_c, 10, 67, 85
1, 52992, Note_on_c, 9, 42, 96
1, 52992, Note_on_c, 10, 71, 127
1, 52992, Note_on_c, 9, 43, 89
1, 52992, Note_on_c, 0, 66, 96
1, 52992, Note_on_c, 1, 28, 104
1, 52992, Note_on_c, 9, 36, 110
1, 52993, Note_on_c, 9, 36, 0
1, 52993, Note_on_c, 9, 42, 0
1, 52993, Note_on_c, 9, 43, 0
1, 52993, Note_on_c, 0, 71, 81
1, 52993, Note_on_c, 0, 74, 82
1, 52993, Note_on_c, 1, 40, 110
1, 52993, Note_on_c, 0, 67, 81
1, 52995, Note_on_c, 3, 76, 0
1, 52995, Lyric_t, ""
1, 52995, Lyric_t, "\015"
1, 52995, Note_on_c, 3, 78, 80
1, 52995, Lyric_t, "move. "
1, 52997, Note_on_c, 6, 88, 125
1, 53027, Lyric_t, ""
1, 53027, Lyric_t, "\015"
1, 53038, Note_on_c, 2, 59, 37
1, 53039, Note_on_c, 10, 71, 0
1, 53039, Note_on_c, 10, 67, 0
1, 53039, Note_on_c, 9, 42, 37
1, 53039, Note_on_c, 2, 62, 87
1, 53040, Note_on_c, 9, 42, 0
1, 53041, Note_on_c, 2, 67, 99
1, 53043, Note_on_c, 2, 74, 97
1, 53045, Note_on_c, 6, 83, 0
1, 53053, Note_on_c, 6, 88, 0
1, 53061, Note_on_c, 2, 74, 0
1, 53064, Note_on_c, 2, 74, 99
1, 53065, Note_on_c, 2, 67, 0
1, 53066, Note_on_c, 2, 67, 98
1, 53083, Note_on_c, 2, 67, 0
1, 53086, Note_on_c, 2, 74, 0
1, 53086, Note_on_c, 2, 67, 100
1, 53087, Note_on_c, 4, 74, 0
1, 53087, Note_on_c, 9, 42, 110
1, 53087, Note_on_c, 2, 74, 97
1, 53088, Note_on_c, 9, 42, 0
1, 53088, Note_on_c, 4, 69, 0
1, 53088, Note_on_c, 4, 66, 0
1, 53088, Note_on_c, 3, 78, 0
1, 53088, Note_on_c, 9, 39, 110
1, 53088, Note_on_c, 9, 60, 77
1, 53088, Note_on_c, 9, 40, 95
1, 53088, Note_on_c, 4, 74, 47
1, 53089, Note_on_c, 9, 40, 0
1, 53089, Note_on_c, 9, 60, 0
1, 53089, Note_on_c, 9, 39, 0
1, 53089, Note_on_c, 3, 74, 105
1, 53089, Lyric_t, "Let "
1, 53101, Note_on_c, 2, 62, 0
1, 53103, Note_on_c, 2, 74, 0
1, 53104, Note_on_c, 1, 28, 0
1, 53105, Note_on_c, 2, 59, 0
1, 53106, Note_on_c, 0, 66, 0
1, 53108, Note_on_c, 2, 67, 0
1, 53108, Note_on_c, 1, 40, 0
1, 53111, Note_on_c, 0, 71, 0
1, 53112, Note_on_c, 0, 74, 0
1, 53113, Note_on_c, 0, 67, 0
1, 53134, Note_on_c, 3, 74, 0
1, 53135, Note_on_c, 4, 74, 0
1, 53135, Note_on_c, 2, 67, 97
1, 53135, Note_on_c, 1, 43, 100
1, 53135, Note_on_c, 0, 66, 78
1, 53135, Note_on_c, 0, 71, 78
1, 53135, Note_on_c, 1, 31, 114
1, 53135, Note_on_c, 0, 67, 69
1, 53135, Note_on_c, 3, 74, 97
1, 53135, Lyric_t, "this "
1, 53135, Note_on_c, 0, 74, 76
1, 53136, Note_on_c, 9, 36, 91
1, 53136, Note_on_c, 9, 42, 44
1, 53136, Note_on_c, 4, 74, 47
1, 53136, Note_on_c, 2, 71, 102
1, 53137, Note_on_c, 9, 42, 0
1, 53137, Note_on_c, 9, 36, 0
1, 53144, Note_on_c, 0, 67, 0
1, 53144, Note_on_c, 0, 74, 0
1, 53146, Note_on_c, 0, 71, 0
1, 53147, Note_on_c, 0, 66, 0
1, 53147, Note_on_c, 2, 71, 0
1, 53149, Note_on_c, 2, 67, 0
1, 53153, Note_on_c, 1, 31, 0
1, 53153, Note_on_c, 1, 43, 0
1, 53183, Note_on_c, 3, 74, 0
1, 53183, Note_on_c, 0, 71, 81
1, 53183, Note_on_c, 9, 42, 95
1, 53183, Note_on_c, 0, 67, 82
1, 53183, Note_on_c, 3, 71, 85
1, 53183, Lyric_t, "groove "
1, 53183, Note_on_c, 0, 74, 83
1, 53183, Note_on_c, 1, 45, 117
1, 53183, Note_on_c, 1, 33, 112
1, 53183, Note_on_c, 0, 66, 87
1, 53184, Note_on_c, 9, 42, 0
1, 53184, Note_on_c, 4, 74, 0
1, 53184, Note_on_c, 9, 36, 110
1, 53184, Note_on_c, 4, 71, 36
1, 53184, Note_on_c, 2, 62, 99
1, 53185, Note_on_c, 9, 36, 0
1, 53185, Note_on_c, 2, 71, 43
1, 53186, Note_on_c, 2, 69, 97
1, 53231, Note_on_c, 9, 42, 39
1, 53232, Note_on_c, 9, 42, 0
1, 53232, Note_on_c, 10, 67, 102
1, 53233, Note_on_c, 6, 79, 127
1, 53261, Note_on_c, 0, 71, 0
1, 53261, Note_on_c, 0, 74, 0
1, 53262, Note_on_c, 0, 66, 0
1, 53262, Note_on_c, 0, 67, 0
1, 53263, Note_on_c, 1, 33, 0
1, 53267, Note_on_c, 6, 79, 0
1, 53268, Note_on_c, 10, 67, 0
1, 53269, Note_on_c, 1, 45, 0
1, 53273, Note_on_c, 2, 71, 0
1, 53275, Note_on_c, 3, 71, 0
1, 53276, Note_on_c, 2, 69, 0
1, 53279, Note_on_c, 2, 62, 0
1, 53279, Note_on_c, 9, 42, 110
1, 53279, Note_on_c, 1, 31, 100
1, 53279, Note_on_c, 1, 43, 112
1, 53280, Note_on_c, 9, 42, 0
1, 53280, Note_on_c, 2, 67, 101
1, 53280, Note_on_c, 0, 74, 81
1, 53280, Note_on_c, 0, 67, 79
1, 53280, Note_on_c, 9, 60, 77
1, 53280, Note_on_c, 9, 40, 110
1, 53280, Note_on_c, 2, 62, 96
1, 53280, Note_on_c, 9, 39, 110
1, 53280, Note_on_c, 0, 71, 81
1, 53280, Note_on_c, 9, 36, 110
1, 53281, Note_on_c, 9, 36, 0
1, 53281, Note_on_c, 9, 40, 0
1, 53281, Note_on_c, 9, 60, 0
1, 53281, Note_on_c, 9, 39, 0
1, 53281, Note_on_c, 0, 66, 87
1, 53282, Note_on_c, 2, 71, 99
1, 53315, Note_on_c, 2, 71, 0
1, 53322, Note_on_c, 2, 62, 0
1, 53328, Note_on_c, 4, 71, 0
1, 53328, Note_on_c, 10, 69, 104
1, 53329, Note_on_c, 9, 42, 42
1, 53329, Note_on_c, 6, 81, 117
1, 53330, Note_on_c, 9, 42, 0
1, 53330, Note_on_c, 2, 67, 0
1, 53340, Note_on_c, 0, 66, 0
1, 53346, Note_on_c, 0, 67, 0
1, 53347, Note_on_c, 0, 71, 0
1, 53348, Note_on_c, 0, 74, 0
1, 53356, Note_on_c, 1, 31, 0
1, 53358, Note_on_c, 1, 43, 0
1, 53365, Note_on_c, 10, 69, 0
1, 53368, Control_c, 10, 11, 64
1, 53370, Note_on_c, 6, 81, 0
1, 53376, Note_on_c, 9, 36, 110
1, 53376, Note_on_c, 9, 42, 96
1, 53376, Note_on_c, 4, 66, 27
1, 53376, Note_on_c, 2, 63, 101
1, 53376, Lyric_t, "light "
1, 53376, Note_on_c, 6, 81, 126
1, 53376, Note_on_c, 3, 66, 82
1, 53376, Note_on_c, 10, 69, 108
1, 53376, Control_c, 10, 11, 65
1, 53377, Note_on_c, 9, 42, 0
1, 53377, Note_on_c, 9, 36, 0
1, 53377, Note_on_c, 0, 69, 75
1, 53377, Note_on_c, 0, 73, 71
1, 53377, Note_on_c, 1, 42, 99
1, 53377, Note_on_c, 0, 76, 83
1, 53377, Note_on_c, 2, 68, 97
1, 53377, Note_on_c, 1, 30, 97
1, 53378, Note_on_c, 2, 72, 103
1, 53384, Control_c, 10, 11, 66
1, 53388, Control_c, 10, 11, 67
1, 53396, Note_on_c, 2, 72, 0
1, 53396, Control_c, 10, 11, 68
1, 53399, Note_on_c, 2, 63, 0
1, 53399, Note_on_c, 2, 73, 87
1, 53399, Note_on_c, 2, 64, 87
1, 53400, Control_c, 10, 11, 69
1, 53401, Note_on_c, 2, 68, 0
1, 53401, Note_on_c, 2, 69, 81
1, 53408, Control_c, 10, 11, 70
1, 53412, Control_c, 10, 11, 71
1, 53420, Control_c, 10, 11, 72
1, 53423, Note_on_c, 3, 66, 0
1, 53423, Note_on_c, 9, 42, 37
1, 53423, Lyric_t, "up "
1, 53423, Note_on_c, 3, 69, 76
1, 53424, Note_on_c, 9, 42, 0
1, 53424, Note_on_c, 4, 66, 0
1, 53424, Note_on_c, 4, 69, 22
1, 53424, Control_c, 10, 11, 73
1, 53432, Control_c, 10, 11, 74
1, 53436, Control_c, 10, 11, 75
1, 53444, Control_c, 10, 11, 76
1, 53448, Note_on_c, 2, 73, 0
1, 53448, Note_on_c, 2, 69, 0
1, 53451, Note_on_c, 2, 73, 98
1, 53452, Note_on_c, 2, 69, 87
1, 53452, Control_c, 10, 11, 77
1, 53453, Note_on_c, 2, 73, 0
1, 53456, Control_c, 10, 11, 78
1, 53458, Note_on_c, 2, 69, 0
1, 53464, Control_c, 10, 11, 79
1, 53468, Control_c, 10, 11, 80
1, 53471, Note_on_c, 3, 69, 0
1, 53471, Note_on_c, 3, 73, 80
1, 53471, Lyric_t, "your "
1, 53471, Note_on_c, 9, 42, 110
1, 53472, Note_on_c, 9, 42, 0
1, 53472, Note_on_c, 2, 64, 0
1, 53472, Note_on_c, 4, 69, 0
1, 53472, Note_on_c, 4, 73, 34
1, 53472, Note_on_c, 9, 60, 77
1, 53472, Note_on_c, 9, 39, 110
1, 53472, Note_on_c, 9, 40, 95
1, 53473, Note_on_c, 9, 40, 0
1, 53473, Note_on_c, 9, 60, 0
1, 53473, Note_on_c, 9, 39, 0
1, 53476, Control_c, 10, 11, 81
1, 53477, Note_on_c, 0, 76, 0
1, 53480, Note_on_c, 0, 69, 0
1, 53480, Note_on_c, 0, 73, 0
1, 53480, Control_c, 10, 11, 82
1, 53484, Note_on_c, 1, 30, 0
1, 53487, Note_on_c, 1, 42, 0
1, 53488, Control_c, 10, 11, 83
1, 53492, Control_c, 10, 11, 84
1, 53500, Control_c, 10, 11, 85
1, 53504, Control_c, 10, 11, 86
1, 53512, Control_c, 10, 11, 87
1, 53516, Control_c, 10, 11, 88
1, 53518, Note_on_c, 3, 73, 0
1, 53519, Note_on_c, 0, 69, 78
1, 53519, Lyric_t, ""
1, 53519, Lyric_t, "\015"
1, 53519, Note_on_c, 0, 78, 73
1, 53519, Note_on_c, 0, 74, 82
1, 53519, Note_on_c, 3, 71, 91
1, 53519, Lyric_t, "fuse, "
1, 53520, Note_on_c, 4, 73, 0
1, 53520, Note_on_c, 4, 71, 26
1, 53520, Note_on_c, 9, 42, 44
1, 53520, Note_on_c, 9, 36, 91
1, 53520, Note_on_c, 1, 35, 98
1, 53520, Note_on_c, 1, 47, 110
1, 53521, Note_on_c, 9, 36, 0
1, 53521, Note_on_c, 9, 42, 0
1, 53524, Control_c, 10, 11, 89
1, 53525, Note_on_c, 2, 66, 99
1, 53532, Control_c, 10, 11, 90
1, 53536, Control_c, 10, 11, 91
1, 53544, Control_c, 10, 11, 92
1, 53548, Control_c, 10, 11, 93
1, 53556, Control_c, 10, 11, 94
1, 53560, Control_c, 10, 11, 95
1, 53567, Note_on_c, 9, 42, 95
1, 53568, Note_on_c, 9, 42, 0
1, 53568, Note_on_c, 9, 36, 110
1, 53568, Control_c, 10, 11, 96
1, 53569, Note_on_c, 9, 36, 0
1, 53572, Control_c, 10, 11, 97
1, 53575, Note_on_c, 2, 66, 0
1, 53580, Control_c, 10, 11, 98
1, 53584, Control_c, 10, 11, 99
1, 53592, Control_c, 10, 11, 100
1, 53594, Note_on_c, 0, 78, 0
1, 53594, Note_on_c, 0, 74, 0
1, 53596, Control_c, 10, 11, 101
1, 53604, Control_c, 10, 11, 102
1, 53606, Note_on_c, 0, 69, 0
1, 53608, Note_on_c, 1, 47, 0
1, 53612, Control_c, 10, 11, 103
1, 53614, Note_on_c, 3, 71, 0
1, 53614, Note_on_c, 1, 35, 0
1, 53615, Note_on_c, 1, 33, 100
1, 53615, Note_on_c, 2, 61, 84
1, 53615, Note_on_c, 3, 69, 72
1, 53615, Lyric_t, "it's "
1, 53615, Note_on_c, 9, 42, 39
1, 53615, Note_on_c, 1, 45, 97
1, 53616, Note_on_c, 9, 42, 0
1, 53616, Note_on_c, 4, 71, 0
1, 53616, Note_on_c, 4, 69, 12
1, 53616, Control_c, 10, 11, 104
1, 53617, Note_on_c, 0, 76, 68
1, 53617, Note_on_c, 2, 64, 101
1, 53617, Note_on_c, 0, 73, 75
1, 53617, Note_on_c, 0, 69, 66
1, 53624, Control_c, 10, 11, 105
1, 53628, Note_on_c, 0, 76, 0
1, 53628, Control_c, 10, 11, 106
1, 53629, Note_on_c, 0, 69, 0
1, 53631, Note_on_c, 1, 45, 0
1, 53632, Note_on_c, 1, 33, 0
1, 53632, Note_on_c, 0, 73, 0
1, 53636, Control_c, 10, 11, 107
1, 53640, Control_c, 10, 11, 108
1, 53648, Control_c, 10, 11, 109
1, 53652, Control_c, 10, 11, 110
1, 53660, Control_c, 10, 11, 111
1, 53662, Note_on_c, 2, 61, 0
1, 53662, Note_on_c, 3, 69, 0
1, 53663, Note_on_c, 1, 35, 97
1, 53663, Note_on_c, 9, 42, 110
1, 53663, Note_on_c, 3, 74, 101
1, 53663, Lyric_t, "all "
1, 53664, Note_on_c, 9, 42, 0
1, 53664, Note_on_c, 4, 69, 0
1, 53664, Note_on_c, 2, 64, 0
1, 53664, Note_on_c, 9, 60, 77
1, 53664, Note_on_c, 1, 47, 120
1, 53664, Control_c, 10, 11, 112
1, 53664, Note_on_c, 9, 39, 110
1, 53664, Note_on_c, 9, 36, 110
1, 53664, Note_on_c, 4, 74, 35
1, 53664, Note_on_c, 9, 40, 110
1, 53665, Note_on_c, 9, 40, 0
1, 53665, Note_on_c, 9, 36, 0
1, 53665, Note_on_c, 9, 39, 0
1, 53665, Note_on_c, 9, 60, 0
1, 53665, Note_on_c, 0, 74, 91
1, 53665, Note_on_c, 0, 78, 71
1, 53665, Note_on_c, 0, 69, 84
1, 53666, Note_on_c, 2, 66, 103
1, 53666, Note_on_c, 2, 62, 104
1, 53672, Control_c, 10, 11, 113
1, 53676, Control_c, 10, 11, 114
1, 53684, Control_c, 10, 11, 115
1, 53685, Note_on_c, 2, 66, 0
1, 53686, Note_on_c, 2, 62, 0
1, 53692, Control_c, 10, 11, 116
1, 53696, Control_c, 10, 11, 117
1, 53704, Control_c, 10, 11, 118
1, 53708, Control_c, 10, 11, 119
1, 53713, Note_on_c, 9, 42, 42
1, 53714, Note_on_c, 9, 42, 0
1, 53716, Control_c, 10, 11, 120
1, 53720, Control_c, 10, 11, 121
1, 53723, Note_on_c, 0, 78, 0
1, 53728, Control_c, 10, 11, 122
1, 53729, Note_on_c, 0, 74, 0
1, 53732, Note_on_c, 0, 69, 0
1, 53732, Control_c, 10, 11, 123
1, 53740, Control_c, 10, 11, 124
1, 53744, Control_c, 10, 11, 125
1, 53748, Note_on_c, 6, 81, 0
1, 53750, Note_on_c, 1, 47, 0
1, 53750, Note_on_c, 1, 35, 0
1, 53750, Note_on_c, 10, 69, 0
1, 53752, Control_c, 10, 11, 126
1, 53754, Note_on_c, 3, 74, 0
1, 53756, Control_c, 10, 11, 127
1, 53760, Note_on_c, 4, 74, 0
1, 53760, Note_on_c, 1, 28, 104
1, 53760, Note_on_c, 9, 36, 110
1, 53760, Note_on_c, 4, 71, 1
1, 53760, Note_on_c, 3, 71, 73
1, 53760, Note_on_c, 0, 66, 96
1, 53760, Note_on_c, 9, 42, 96
1, 53760, Lyric_t, "right, "
1, 53761, Note_on_c, 9, 42, 0
1, 53761, Note_on_c, 9, 36, 0
1, 53761, Note_on_c, 0, 67, 81
1, 53761, Note_on_c, 0, 71, 81
1, 53761, Note_on_c, 1, 40, 110
1, 53761, Note_on_c, 0, 74, 82
1, 53761, Note_on_c, 9, 43, 86
1, 53762, Note_on_c, 9, 43, 0
1, 53805, Note_on_c, 2, 59, 43
1, 53807, Note_on_c, 9, 42, 37
1, 53807, Note_on_c, 2, 62, 86
1, 53808, Note_on_c, 9, 42, 0
1, 53809, Note_on_c, 2, 67, 97
1, 53810, Note_on_c, 2, 74, 93
1, 53812, Note_on_c, 3, 71, 0
1, 53829, Note_on_c, 2, 74, 0
1, 53832, Note_on_c, 2, 67, 0
1, 53833, Note_on_c, 2, 62, 0
1, 53833, Note_on_c, 2, 74, 93
1, 53833, Note_on_c, 2, 67, 98
1, 53834, Note_on_c, 2, 62, 76
1, 53849, Note_on_c, 2, 62, 0
1, 53852, Note_on_c, 2, 67, 0
1, 53854, Note_on_c, 2, 74, 0
1, 53854, Note_on_c, 2, 62, 94
1, 53855, Note_on_c, 9, 42, 110
1, 53855, Note_on_c, 2, 67, 96
1, 53856, Note_on_c, 9, 42, 0
1, 53856, Note_on_c, 9, 40, 95
1, 53856, Note_on_c, 2, 74, 91
1, 53856, Note_on_c, 9, 60, 77
1, 53856, Note_on_c, 9, 39, 110
1, 53857, Note_on_c, 9, 39, 0
1, 53857, Note_on_c, 9, 60, 0
1, 53857, Note_on_c, 9, 40, 0
1, 53863, Note_on_c, 2, 74, 0
1, 53866, Note_on_c, 2, 62, 0
1, 53867, Note_on_c, 2, 59, 0
1, 53868, Note_on_c, 2, 67, 0
1, 53872, Note_on_c, 1, 28, 0
1, 53874, Note_on_c, 0, 66, 0
1, 53876, Note_on_c, 1, 40, 0
1, 53879, Note_on_c, 0, 71, 0
1, 53880, Note_on_c, 0, 74, 0
1, 53881, Note_on_c, 0, 67, 0
1, 53902, Note_on_c, 2, 59, 16
1, 53903, Note_on_c, 2, 62, 96
1, 53903, Note_on_c, 0, 74, 76
1, 53903, Note_on_c, 0, 67, 69
1, 53903, Note_on_c, 0, 66, 78
1, 53903, Note_on_c, 0, 71, 78
1, 53903, Note_on_c, 1, 31, 114
1, 53903, Note_on_c, 1, 43, 100
1, 53904, Note_on_c, 2, 67, 100
1, 53904, Note_on_c, 9, 36, 91
1, 53904, Note_on_c, 9, 42, 44
1, 53905, Note_on_c, 9, 42, 0
1, 53905, Note_on_c, 9, 36, 0
1, 53906, Note_on_c, 2, 71, 97
1, 53910, Note_on_c, 4, 71, 0
1, 53912, Note_on_c, 0, 74, 0
1, 53912, Note_on_c, 0, 67, 0
1, 53913, Note_on_c, 2, 71, 0
1, 53913, Note_on_c, 2, 62, 0
1, 53914, Note_on_c, 0, 71, 0
1, 53915, Note_on_c, 2, 67, 0
1, 53915, Note_on_c, 0, 66, 0
1, 53916, Note_on_c, 2, 59, 0
1, 53921, Note_on_c, 1, 43, 0
1, 53921, Note_on_c, 1, 31, 0
1, 53951, Note_on_c, 9, 42, 95
1, 53951, Note_on_c, 0, 67, 82
1, 53951, Note_on_c, 6, 83, 117
1, 53951, Note_on_c, 0, 74, 83
1, 53951, Note_on_c, 2, 59, 69
1, 53951, Note_on_c, 1, 33, 112
1, 53951, Note_on_c, 0, 66, 87
1, 53951, Note_on_c, 0, 71, 81
1, 53951, Note_on_c, 1, 45, 117
1, 53952, Note_on_c, 9, 42, 0
1, 53952, Note_on_c, 9, 36, 110
1, 53953, Note_on_c, 9, 36, 0
1, 53953, Note_on_c, 2, 62, 100
1, 53954, Note_on_c, 2, 69, 97
1, 53955, Note_on_c, 2, 71, 19
1, 53998, Note_on_c, 6, 83, 0
1, 53999, Note_on_c, 9, 42, 39
1, 54000, Note_on_c, 9, 42, 0
1, 54001, Note_on_c, 6, 81, 97
1, 54017, Note_on_c, 6, 81, 0
1, 54029, Note_on_c, 0, 74, 0
1, 54029, Note_on_c, 0, 71, 0
1, 54030, Note_on_c, 0, 67, 0
1, 54030, Note_on_c, 0, 66, 0
1, 54031, Note_on_c, 1, 33, 0
1, 54035, Note_on_c, 2, 69, 0
1, 54037, Note_on_c, 1, 45, 0
1, 54042, Note_on_c, 2, 71, 0
1, 54043, Note_on_c, 2, 62, 0
1, 54046, Note_on_c, 2, 62, 100
1, 54047, Note_on_c, 1, 31, 100
1, 54047, Note_on_c, 1, 43, 112
1, 54047, Note_on_c, 9, 42, 110
1, 54048, Note_on_c, 9, 42, 0
1, 54048, Note_on_c, 9, 60, 77
1, 54048, Note_on_c, 9, 40, 110
1, 54048, Note_on_c, 2, 71, 103
1, 54048, Note_on_c, 9, 39, 110
1, 54048, Note_on_c, 0, 74, 81
1, 54048, Note_on_c, 0, 71, 81
1, 54048, Note_on_c, 9, 36, 110
1, 54048, Note_on_c, 0, 67, 79
1, 54049, Note_on_c, 9, 36, 0
1, 54049, Note_on_c, 9, 39, 0
1, 54049, Note_on_c, 9, 40, 0
1, 54049, Note_on_c, 9, 60, 0
1, 54049, Note_on_c, 0, 66, 87
1, 54049, Note_on_c, 6, 78, 114
1, 54051, Note_on_c, 2, 67, 93
1, 54081, Note_on_c, 2, 59, 0
1, 54081, Note_on_c, 2, 71, 0
1, 54084, Note_on_c, 2, 67, 0
1, 54084, Note_on_c, 2, 62, 0
1, 54096, Note_on_c, 6, 78, 0
1, 54097, Note_on_c, 6, 74, 86
1, 54097, Note_on_c, 9, 42, 42
1, 54098, Note_on_c, 9, 42, 0
1, 54108, Note_on_c, 0, 66, 0
1, 54114, Note_on_c, 0, 67, 0
1, 54115, Note_on_c, 0, 71, 0
1, 54115, Note_on_c, 6, 74, 0
1, 54116, Note_on_c, 0, 74, 0
1, 54121, Note_on_c, 2, 68, 61
1, 54124, Note_on_c, 1, 31, 0
1, 54126, Note_on_c, 1, 43, 0
1, 54142, Note_on_c, 2, 68, 0
1, 54143, Lyric_t, "all "
1, 54143, Note_on_c, 2, 68, 98
1, 54143, Note_on_c, 10, 57, 73
1, 54143, Note_on_c, 10, 64, 87
1, 54143, Note_on_c, 3, 73, 103
1, 54143, Note_on_c, 10, 61, 87
1, 54143, Note_on_c, 2, 63, 76
1, 54144, Note_on_c, 6, 76, 119
1, 54144, Note_on_c, 9, 36, 110
1, 54144, Note_on_c, 9, 42, 96
1, 54144, Note_on_c, 4, 73, 49
1, 54145, Note_on_c, 9, 42, 0
1, 54145, Note_on_c, 9, 36, 0
1, 54145, Note_on_c, 0, 69, 75
1, 54145, Note_on_c, 0, 76, 83
1, 54145, Note_on_c, 1, 30, 97
1, 54145, Note_on_c, 2, 72, 101
1, 54145, Note_on_c, 1, 42, 99
1, 54145, Note_on_c, 0, 73, 71
1, 54165, Note_on_c, 2, 72, 0
1, 54166, Note_on_c, 2, 73, 77
1, 54169, Note_on_c, 2, 68, 0
1, 54169, Note_on_c, 2, 69, 83
1, 54170, Note_on_c, 2, 63, 0
1, 54170, Note_on_c, 2, 64, 71
1, 54191, Note_on_c, 3, 73, 0
1, 54191, Note_on_c, 3, 69, 57
1, 54191, Note_on_c, 9, 42, 37
1, 54192, Note_on_c, 9, 42, 0
1, 54192, Note_on_c, 4, 73, 0
1, 54192, Note_on_c, 4, 69, 20
1, 54212, Note_on_c, 2, 69, 0
1, 54212, Note_on_c, 2, 64, 0
1, 54213, Note_on_c, 2, 73, 0
1, 54218, Note_on_c, 2, 69, 99
1, 54219, Note_on_c, 2, 64, 80
1, 54221, Note_on_c, 2, 73, 103
1, 54226, Note_on_c, 2, 73, 0
1, 54226, Note_on_c, 2, 64, 0
1, 54226, Note_on_c, 2, 69, 0
1, 54239, Note_on_c, 3, 69, 0
1, 54239, Note_on_c, 3, 66, 45
1, 54239, Note_on_c, 9, 42, 110
1, 54240, Note_on_c, 9, 42, 0
1, 54240, Note_on_c, 4, 69, 0
1, 54240, Note_on_c, 9, 40, 95
1, 54240, Note_on_c, 4, 66, 6
1, 54240, Note_on_c, 9, 60, 77
1, 54240, Note_on_c, 9, 39, 110
1, 54241, Note_on_c, 9, 39, 0
1, 54241, Note_on_c, 9, 60, 0
1, 54241, Note_on_c, 9, 40, 0
1, 54241, Note_on_c, 2, 64, 95
1, 54245, Note_on_c, 0, 76, 0
1, 54247, Note_on_c, 2, 64, 0
1, 54248, Note_on_c, 0, 69, 0
1, 54248, Note_on_c, 0, 73, 0
1, 54252, Note_on_c, 1, 30, 0
1, 54255, Note_on_c, 1, 42, 0
1, 54267, Note_on_c, 10, 64, 0
1, 54269, Note_on_c, 10, 57, 0
1, 54270, Note_on_c, 10, 61, 0
1, 54282, Note_on_c, 6, 76, 0
1, 54286, Note_on_c, 3, 66, 0
1, 54287, Note_on_c, 0, 74, 82
1, 54287, Note_on_c, 2, 59, 81
1, 54287, Lyric_t, "right. "
1, 54287, Note_on_c, 0, 78, 73
1, 54287, Note_on_c, 6, 74, 112
1, 54287, Lyric_t, ""
1, 54287, Lyric_t, "\015"
1, 54287, Note_on_c, 0, 69, 78
1, 54287, Note_on_c, 3, 71, 85
1, 54288, Note_on_c, 4, 66, 0
1, 54288, Note_on_c, 1, 35, 98
1, 54288, Note_on_c, 9, 36, 91
1, 54288, Note_on_c, 9, 42, 44
1, 54288, Note_on_c, 1, 47, 110
1, 54288, Note_on_c, 10, 57, 91
1, 54288, Note_on_c, 10, 62, 100
1, 54288, Note_on_c, 10, 66, 104
1, 54288, Note_on_c, 2, 62, 101
1, 54288, Note_on_c, 4, 71, 28
1, 54289, Note_on_c, 9, 42, 0
1, 54289, Note_on_c, 9, 36, 0
1, 54290, Note_on_c, 2, 66, 103
1, 54291, Note_on_c, 2, 71, 102
1, 54309, Note_on_c, 10, 66, 0
1, 54311, Note_on_c, 6, 74, 0
1, 54313, Note_on_c, 10, 57, 0
1, 54313, Note_on_c, 10, 62, 0
1, 54335, Note_on_c, 9, 42, 95
1, 54336, Note_on_c, 9, 42, 0
1, 54336, Note_on_c, 9, 36, 110
1, 54337, Note_on_c, 9, 36, 0
1, 54339, Note_on_c, 2, 71, 0
1, 54348, Note_on_c, 2, 66, 0
1, 54353, Note_on_c, 2, 62, 0
1, 54354, Note_on_c, 2, 59, 0
1, 54362, Note_on_c, 0, 74, 0
1, 54362, Note_on_c, 0, 78, 0
1, 54374, Note_on_c, 0, 69, 0
1, 54376, Note_on_c, 1, 47, 0
1, 54382, Note_on_c, 1, 35, 0
1, 54382, Note_on_c, 3, 71, 0
1, 54383, Note_on_c, 1, 45, 97
1, 54383, Note_on_c, 1, 33, 100
1, 54383, Note_on_c, 9, 42, 39
1, 54383, Note_on_c, 2, 61, 101
1, 54384, Note_on_c, 9, 42, 0
1, 54385, Note_on_c, 6, 78, 104
1, 54385, Note_on_c, 2, 64, 103
1, 54385, Note_on_c, 0, 69, 66
1, 54385, Note_on_c, 0, 73, 75
1, 54385, Note_on_c, 0, 76, 68
1, 54396, Note_on_c, 0, 76, 0
1, 54397, Note_on_c, 0, 69, 0
1, 54399, Note_on_c, 1, 45, 0
1, 54400, Note_on_c, 0, 73, 0
1, 54400, Note_on_c, 1, 33, 0
1, 54400, Lyric_t, ""
1, 54400, Lyric_t, "\015"
1, 54408, Note_on_c, 6, 78, 0
1, 54430, Note_on_c, 2, 61, 0
1, 54430, Note_on_c, 2, 64, 0
1, 54431, Note_on_c, 2, 62, 101
1, 54431, Note_on_c, 1, 35, 97
1, 54431, Note_on_c, 9, 42, 110
1, 54432, Note_on_c, 9, 42, 0
1, 54432, Note_on_c, 1, 47, 120
1, 54432, Note_on_c, 9, 60, 77
1, 54432, Note_on_c, 9, 39, 110
1, 54432, Note_on_c, 9, 40, 110
1, 54432, Note_on_c, 2, 66, 103
1, 54432, Note_on_c, 9, 36, 110
1, 54433, Note_on_c, 9, 36, 0
1, 54433, Note_on_c, 9, 40, 0
1, 54433, Note_on_c, 9, 39, 0
1, 54433, Note_on_c, 9, 60, 0
1, 54433, Note_on_c, 0, 69, 84
1, 54433, Note_on_c, 0, 74, 91
1, 54433, Note_on_c, 0, 78, 71
1, 54433, Note_on_c, 6, 81, 112
1, 54453, Note_on_c, 2, 66, 0
1, 54454, Note_on_c, 2, 62, 0
1, 54480, Note_on_c, 6, 81, 0
1, 54481, Note_on_c, 9, 42, 42
1, 54481, Note_on_c, 6, 83, 119
1, 54482, Note_on_c, 9, 42, 0
1, 54484, Note_on_c, 4, 71, 0
1, 54491, Note_on_c, 0, 78, 0
1, 54497, Note_on_c, 0, 74, 0
1, 54499, Note_on_c, 6, 83, 0
1, 54500, Note_on_c, 0, 69, 0
1, 54518, Note_on_c, 1, 47, 0
1, 54518, Note_on_c, 1, 35, 0
1, 54528, Note_on_c, 0, 66, 96
1, 54528, Note_on_c, 10, 76, 127
1, 54528, Note_on_c, 1, 28, 104
1, 54528, Note_on_c, 9, 36, 110
1, 54528, Note_on_c, 9, 42, 96
1, 54528, Note_on_c, 6, 83, 127
1, 54529, Note_on_c, 9, 42, 0
1, 54529, Note_on_c, 9, 36, 0
1, 54529, Note_on_c, 0, 67, 81
1, 54529, Note_on_c, 0, 71, 81
1, 54529, Note_on_c, 1, 40, 110
1, 54529, Note_on_c, 0, 74, 82
1, 54529, Note_on_c, 9, 43, 84
1, 54530, Note_on_c, 9, 43, 0
1, 54552, Note_on_c, 2, 74, 75
1, 54554, Note_on_c, 2, 67, 19
1, 54564, Note_on_c, 6, 82, 105
1, 54572, Note_on_c, 6, 83, 0
1, 54572, Note_on_c, 6, 81, 101
1, 54572, Note_on_c, 10, 75, 112
1, 54573, Note_on_c, 2, 67, 0
1, 54574, Note_on_c, 2, 62, 43
1, 54575, Note_on_c, 10, 76, 0
1, 54575, Note_on_c, 9, 42, 37
1, 54576, Note_on_c, 9, 42, 0
1, 54577, Note_on_c, 2, 74, 0
1, 54577, Note_on_c, 2, 67, 99
1, 54577, Note_on_c, 6, 80, 96
1, 54578, Note_on_c, 2, 74, 65
1, 54580, Note_on_c, 6, 82, 0
1, 54580, Note_on_c, 10, 74, 106
1, 54583, Note_on_c, 6, 81, 0
1, 54584, Note_on_c, 10, 73, 103
1, 54584, Note_on_c, 6, 79, 89
1, 54586, Note_on_c, 10, 75, 0
1, 54589, Note_on_c, 6, 80, 0
1, 54589, Note_on_c, 6, 78, 81
1, 54592, Note_on_c, 10, 74, 0
1, 54592, Note_on_c, 6, 79, 0
1, 54592, Note_on_c, 10, 72, 99
1, 54595, Note_on_c, 10, 73, 0
1, 54595, Note_on_c, 6, 78, 0
1, 54595, Note_on_c, 6, 77, 78
1, 54596, Note_on_c, 2, 74, 0
1, 54599, Note_on_c, 6, 77, 0
1, 54599, Note_on_c, 2, 74, 61
1, 54599, Note_on_c, 6, 76, 76
1, 54600, Note_on_c, 10, 71, 93
1, 54601, Note_on_c, 2, 67, 0
1, 54601, Note_on_c, 10, 72, 0
1, 54602, Note_on_c, 2, 62, 0
1, 54602, Note_on_c, 2, 67, 79
1, 54603, Note_on_c, 2, 62, 46
1, 54604, Note_on_c, 6, 76, 0
1, 54604, Note_on_c, 10, 70, 90
1, 54606, Note_on_c, 10, 71, 0
1, 54606, Note_on_c, 6, 75, 76
1, 54611, Note_on_c, 6, 75, 0
1, 54611, Note_on_c, 10, 70, 0
1, 54613, Note_on_c, 10, 69, 86
1, 54620, Note_on_c, 10, 69, 0
1, 54621, Note_on_c, 2, 62, 0
1, 54623, Note_on_c, 2, 67, 0
1, 54623, Note_on_c, 9, 42, 110
1, 54624, Note_on_c, 9, 42, 0
1, 54624, Note_on_c, 2, 74, 0
1, 54624, Note_on_c, 9, 39, 110
1, 54624, Note_on_c, 9, 40, 95
1, 54624, Note_on_c, 9, 60, 77
1, 54624, Note_on_c, 4, 74, 40
1, 54624, Note_on_c, 2, 62, 96
1, 54625, Note_on_c, 9, 60, 0
1, 54625, Note_on_c, 9, 40, 0
1, 54625, Note_on_c, 9, 39, 0
1, 54625, Note_on_c, 3, 74, 84
1, 54625, Lyric_t, "Let "
1, 54625, Note_on_c, 2, 67, 97
1, 54626, Note_on_c, 2, 74, 93
1, 54636, Note_on_c, 2, 67, 0
1, 54639, Note_on_c, 2, 62, 0
1, 54640, Note_on_c, 1, 28, 0
1, 54642, Note_on_c, 0, 66, 0
1, 54644, Note_on_c, 1, 40, 0
1, 54645, Note_on_c, 2, 74, 0
1, 54647, Note_on_c, 0, 71, 0
1, 54648, Note_on_c, 0, 74, 0
1, 54649, Note_on_c, 0, 67, 0
1, 54671, Note_on_c, 3, 74, 0
1, 54671, Note_on_c, 4, 74, 0
1, 54671, Note_on_c, 0, 66, 78
1, 54671, Note_on_c, 2, 62, 100
1, 54671, Note_on_c, 0, 71, 78
1, 54671, Note_on_c, 1, 31, 114
1, 54671, Note_on_c, 0, 74, 76
1, 54671, Note_on_c, 0, 67, 69
1, 54671, Note_on_c, 1, 43, 100
1, 54672, Note_on_c, 9, 36, 91
1, 54672, Note_on_c, 9, 42, 44
1, 54672, Note_on_c, 4, 74, 47
1, 54673, Note_on_c, 9, 42, 0
1, 54673, Note_on_c, 9, 36, 0
1, 54673, Note_on_c, 2, 67, 100
1, 54673, Note_on_c, 3, 74, 83
1, 54673, Lyric_t, "this "
1, 54674, Note_on_c, 2, 71, 101
1, 54680, Note_on_c, 0, 67, 0
1, 54680, Note_on_c, 0, 74, 0
1, 54682, Note_on_c, 0, 71, 0
1, 54683, Note_on_c, 0, 66, 0
1, 54688, Note_on_c, 2, 71, 0
1, 54688, Note_on_c, 2, 62, 0
1, 54689, Note_on_c, 1, 31, 0
1, 54689, Note_on_c, 1, 43, 0
1, 54693, Note_on_c, 2, 67, 0
1, 54719, Note_on_c, 3, 74, 0
1, 54719, Note_on_c, 0, 71, 81
1, 54719, Note_on_c, 0, 74, 83
1, 54719, Note_on_c, 0, 67, 82
1, 54719, Note_on_c, 0, 66, 87
1, 54719, Note_on_c, 2, 62, 101
1, 54719, Note_on_c, 9, 42, 95
1, 54720, Note_on_c, 9, 42, 0
1, 54720, Note_on_c, 4, 74, 0
1, 54720, Note_on_c, 1, 33, 112
1, 54720, Note_on_c, 4, 71, 21
1, 54720, Note_on_c, 9, 36, 110
1, 54720, Note_on_c, 1, 45, 117
1, 54721, Note_on_c, 9, 36, 0
1, 54721, Note_on_c, 3, 71, 85
1, 54721, Note_on_c, 2, 69, 91
1, 54721, Lyric_t, "groove "
1, 54722, Note_on_c, 2, 71, 99
1, 54767, Note_on_c, 9, 42, 39
1, 54768, Note_on_c, 9, 42, 0
1, 54768, Note_on_c, 10, 67, 102
1, 54769, Note_on_c, 6, 79, 127
1, 54771, Note_on_c, 3, 71, 0
1, 54797, Note_on_c, 0, 71, 0
1, 54797, Note_on_c, 0, 74, 0
1, 54798, Note_on_c, 0, 67, 0
1, 54798, Note_on_c, 0, 66, 0
1, 54800, Note_on_c, 1, 33, 0
1, 54803, Note_on_c, 6, 79, 0
1, 54804, Note_on_c, 10, 67, 0
1, 54806, Note_on_c, 1, 45, 0
1, 54806, Note_on_c, 2, 69, 0
1, 54814, Note_on_c, 2, 71, 0
1, 54815, Note_on_c, 2, 62, 0
1, 54815, Note_on_c, 9, 42, 110
1, 54816, Note_on_c, 9, 42, 0
1, 54816, Note_on_c, 9, 60, 77
1, 54816, Note_on_c, 9, 39, 110
1, 54816, Note_on_c, 1, 31, 100
1, 54816, Note_on_c, 9, 36, 110
1, 54816, Note_on_c, 2, 62, 101
1, 54816, Note_on_c, 0, 74, 81
1, 54816, Note_on_c, 0, 71, 81
1, 54816, Note_on_c, 0, 67, 79
1, 54816, Note_on_c, 9, 40, 110
1, 54816, Note_on_c, 1, 43, 112
1, 54817, Note_on_c, 9, 40, 0
1, 54817, Note_on_c, 9, 36, 0
1, 54817, Note_on_c, 9, 39, 0
1, 54817, Note_on_c, 9, 60, 0
1, 54817, Note_on_c, 0, 66, 87
1, 54818, Note_on_c, 2, 67, 93
1, 54819, Note_on_c, 2, 71, 103
1, 54828, Note_on_c, 4, 71, 0
1, 54852, Note_on_c, 2, 71, 0
1, 54855, Note_on_c, 2, 67, 0
1, 54860, Note_on_c, 2, 62, 0
1, 54864, Note_on_c, 10, 69, 104
1, 54865, Note_on_c, 9, 42, 42
1, 54865, Note_on_c, 6, 81, 117
1, 54866, Note_on_c, 9, 42, 0
1, 54876, Note_on_c, 0, 66, 0
1, 54882, Note_on_c, 0, 67, 0
1, 54883, Note_on_c, 0, 71, 0
1, 54884, Note_on_c, 0, 74, 0
1, 54893, Note_on_c, 1, 31, 0
1, 54895, Note_on_c, 1, 43, 0
1, 54901, Note_on_c, 10, 69, 0
1, 54904, Control_c, 10, 11, 64
1, 54906, Note_on_c, 6, 81, 0
1, 54911, Lyric_t, "set "
1, 54911, Note_on_c, 3, 66, 58
1, 54912, Note_on_c, 9, 42, 96
1, 54912, Control_c, 10, 11, 65
1, 54912, Note_on_c, 10, 69, 120
1, 54912, Note_on_c, 4, 66, 17
1, 54912, Note_on_c, 6, 81, 126
1, 54912, Note_on_c, 9, 36, 110
1, 54913, Note_on_c, 9, 36, 0
1, 54913, Note_on_c, 9, 42, 0
1, 54913, Note_on_c, 0, 69, 75
1, 54913, Note_on_c, 2, 63, 99
1, 54913, Note_on_c, 0, 76, 83
1, 54913, Note_on_c, 1, 30, 97
1, 54913, Note_on_c, 0, 73, 71
1, 54913, Note_on_c, 1, 42, 99
1, 54914, Note_on_c, 2, 68, 93
1, 54915, Note_on_c, 2, 72, 103
1, 54920, Control_c, 10, 11, 66
1, 54924, Control_c, 10, 11, 67
1, 54932, Note_on_c, 2, 72, 0
1, 54932, Control_c, 10, 11, 68
1, 54935, Note_on_c, 2, 73, 96
1, 54936, Control_c, 10, 11, 69
1, 54937, Note_on_c, 2, 68, 0
1, 54938, Note_on_c, 2, 69, 92
1, 54938, Note_on_c, 2, 64, 87
1, 54940, Note_on_c, 2, 63, 0
1, 54944, Control_c, 10, 11, 70
1, 54948, Control_c, 10, 11, 71
1, 54956, Control_c, 10, 11, 72
1, 54958, Note_on_c, 3, 66, 0
1, 54959, Note_on_c, 3, 69, 63
1, 54959, Note_on_c, 9, 42, 37
1, 54959, Lyric_t, "in "
1, 54960, Note_on_c, 9, 42, 0
1, 54960, Note_on_c, 4, 66, 0
1, 54960, Note_on_c, 4, 69, 21
1, 54960, Control_c, 10, 11, 73
1, 54968, Control_c, 10, 11, 74
1, 54972, Control_c, 10, 11, 75
1, 54980, Note_on_c, 2, 69, 0
1, 54980, Control_c, 10, 11, 76
1, 54981, Note_on_c, 2, 73, 0
1, 54986, Note_on_c, 2, 73, 102
1, 54987, Note_on_c, 2, 69, 96
1, 54988, Control_c, 10, 11, 77
1, 54992, Note_on_c, 2, 73, 0
1, 54992, Control_c, 10, 11, 78
1, 54997, Note_on_c, 2, 69, 0
1, 55000, Control_c, 10, 11, 79
1, 55004, Control_c, 10, 11, 80
1, 55005, Note_on_c, 2, 64, 0
1, 55006, Note_on_c, 3, 69, 0
1, 55007, Note_on_c, 9, 42, 110
1, 55007, Note_on_c, 3, 73, 92
1, 55007, Lyric_t, "your "
1, 55008, Note_on_c, 9, 42, 0
1, 55008, Note_on_c, 4, 69, 0
1, 55008, Note_on_c, 9, 60, 77
1, 55008, Note_on_c, 4, 73, 32
1, 55008, Note_on_c, 9, 39, 110
1, 55008, Note_on_c, 9, 40, 95
1, 55009, Note_on_c, 9, 40, 0
1, 55009, Note_on_c, 9, 60, 0
1, 55009, Note_on_c, 9, 39, 0
1, 55012, Control_c, 10, 11, 81
1, 55013, Note_on_c, 0, 76, 0
1, 55016, Note_on_c, 0, 69, 0
1, 55016, Note_on_c, 0, 73, 0
1, 55016, Control_c, 10, 11, 82
1, 55020, Note_on_c, 1, 30, 0
1, 55023, Note_on_c, 1, 42, 0
1, 55024, Control_c, 10, 11, 83
1, 55028, Control_c, 10, 11, 84
1, 55036, Control_c, 10, 11, 85
1, 55040, Control_c, 10, 11, 86
1, 55048, Control_c, 10, 11, 87
1, 55052, Control_c, 10, 11, 88
1, 55055, Note_on_c, 3, 73, 0
1, 55055, Note_on_c, 0, 69, 78
1, 55055, Note_on_c, 2, 59, 77
1, 55055, Note_on_c, 0, 78, 73
1, 55055, Lyric_t, ""
1, 55055, Lyric_t, "\015"
1, 55055, Note_on_c, 3, 71, 80
1, 55055, Note_on_c, 0, 74, 82
1, 55055, Lyric_t, "shoes, "
1, 55056, Note_on_c, 4, 73, 0
1, 55056, Note_on_c, 4, 71, 23
1, 55056, Note_on_c, 9, 42, 44
1, 55056, Note_on_c, 1, 47, 110
1, 55056, Note_on_c, 9, 36, 91
1, 55056, Note_on_c, 2, 62, 103
1, 55056, Note_on_c, 1, 35, 98
1, 55057, Note_on_c, 9, 36, 0
1, 55057, Note_on_c, 9, 42, 0
1, 55058, Note_on_c, 2, 66, 103
1, 55060, Control_c, 10, 11, 89
1, 55068, Control_c, 10, 11, 90
1, 55072, Control_c, 10, 11, 91
1, 55080, Control_c, 10, 11, 92
1, 55084, Control_c, 10, 11, 93
1, 55092, Control_c, 10, 11, 94
1, 55096, Control_c, 10, 11, 95
1, 55103, Note_on_c, 9, 42, 95
1, 55104, Note_on_c, 9, 42, 0
1, 55104, Control_c, 10, 11, 96
1, 55104, Note_on_c, 9, 36, 110
1, 55105, Note_on_c, 9, 36, 0
1, 55108, Control_c, 10, 11, 97
1, 55116, Note_on_c, 2, 62, 0
1, 55116, Control_c, 10, 11, 98
1, 55117, Note_on_c, 2, 66, 0
1, 55120, Control_c, 10, 11, 99
1, 55124, Note_on_c, 2, 59, 0
1, 55128, Control_c, 10, 11, 100
1, 55129, Note_on_c, 2, 64, 78
1, 55130, Note_on_c, 0, 74, 0
1, 55130, Note_on_c, 0, 78, 0
1, 55131, Note_on_c, 2, 59, 72
1, 55132, Control_c, 10, 11, 101
1, 55138, Note_on_c, 2, 59, 0
1, 55139, Note_on_c, 2, 64, 0
1, 55140, Control_c, 10, 11, 102
1, 55142, Note_on_c, 0, 69, 0
1, 55144, Note_on_c, 1, 47, 0
1, 55148, Control_c, 10, 11, 103
1, 55150, Note_on_c, 1, 35, 0
1, 55150, Note_on_c, 3, 71, 0
1, 55151, Note_on_c, 1, 45, 97
1, 55151, Note_on_c, 1, 33, 100
1, 55151, Note_on_c, 9, 42, 39
1, 55151, Note_on_c, 2, 61, 99
1, 55152, Note_on_c, 9, 42, 0
1, 55152, Note_on_c, 4, 71, 0
1, 55152, Control_c, 10, 11, 104
1, 55152, Note_on_c, 4, 69, 13
1, 55153, Note_on_c, 3, 69, 57
1, 55153, Lyric_t, "so "
1, 55153, Note_on_c, 2, 64, 102
1, 55153, Note_on_c, 0, 76, 68
1, 55153, Note_on_c, 0, 69, 66
1, 55153, Note_on_c, 0, 73, 75
1, 55160, Control_c, 10, 11, 105
1, 55164, Note_on_c, 0, 76, 0
1, 55164, Control_c, 10, 11, 106
1, 55165, Note_on_c, 0, 69, 0
1, 55167, Note_on_c, 1, 45, 0
1, 55168, Note_on_c, 1, 33, 0
1, 55168, Note_on_c, 0, 73, 0
1, 55172, Control_c, 10, 11, 107
1, 55176, Control_c, 10, 11, 108
1, 55184, Control_c, 10, 11, 109
1, 55188, Control_c, 10, 11, 110
1, 55194, Note_on_c, 2, 61, 0
1, 55196, Note_on_c, 2, 64, 0
1, 55196, Control_c, 10, 11, 111
1, 55197, Note_on_c, 3, 69, 0
1, 55198, Note_on_c, 2, 62, 97
1, 55199, Note_on_c, 9, 42, 110
1, 55199, Note_on_c, 2, 66, 103
1, 55199, Lyric_t, "stand "
1, 55199, Note_on_c, 3, 74, 90
1, 55199, Note_on_c, 1, 35, 97
1, 55200, Note_on_c, 9, 42, 0
1, 55200, Note_on_c, 4, 69, 0
1, 55200, Control_c, 10, 11, 112
1, 55200, Note_on_c, 9, 36, 110
1, 55200, Note_on_c, 9, 60, 77
1, 55200, Note_on_c, 4, 74, 30
1, 55200, Note_on_c, 9, 40, 110
1, 55200, Note_on_c, 9, 39, 110
1, 55200, Note_on_c, 1, 47, 120
1, 55201, Note_on_c, 9, 39, 0
1, 55201, Note_on_c, 9, 40, 0
1, 55201, Note_on_c, 9, 60, 0
1, 55201, Note_on_c, 9, 36, 0
1, 55201, Note_on_c, 0, 74, 91
1, 55201, Note_on_c, 0, 69, 84
1, 55201, Note_on_c, 0, 78, 71
1, 55208, Control_c, 10, 11, 113
1, 55212, Control_c, 10, 11, 114
1, 55220, Control_c, 10, 11, 115
1, 55221, Note_on_c, 2, 66, 0
1, 55225, Note_on_c, 2, 62, 0
1, 55228, Control_c, 10, 11, 116
1, 55232, Control_c, 10, 11, 117
1, 55240, Control_c, 10, 11, 118
1, 55244, Control_c, 10, 11, 119
1, 55249, Note_on_c, 9, 42, 42
1, 55250, Note_on_c, 9, 42, 0
1, 55252, Control_c, 10, 11, 120
1, 55254, Note_on_c, 3, 74, 0
1, 55256, Control_c, 10, 11, 121
1, 55259, Note_on_c, 0, 78, 0
1, 55264, Control_c, 10, 11, 122
1, 55265, Note_on_c, 0, 74, 0
1, 55268, Note_on_c, 0, 69, 0
1, 55268, Control_c, 10, 11, 123
1, 55276, Control_c, 10, 11, 124
1, 55280, Control_c, 10, 11, 125
1, 55284, Note_on_c, 6, 81, 0
1, 55286, Note_on_c, 1, 35, 0
1, 55286, Note_on_c, 1, 47, 0
1, 55286, Note_on_c, 10, 69, 0
1, 55288, Control_c, 10, 11, 126
1, 55292, Control_c, 10, 11, 127
1, 55296, Note_on_c, 4, 74, 0
1, 55296, Note_on_c, 9, 36, 110
1, 55296, Lyric_t, "up, "
1, 55296, Note_on_c, 0, 66, 96
1, 55296, Note_on_c, 9, 42, 96
1, 55296, Note_on_c, 1, 28, 104
1, 55296, Note_on_c, 4, 71, 23
1, 55296, Note_on_c, 3, 71, 57
1, 55297, Note_on_c, 9, 42, 0
1, 55297, Note_on_c, 9, 36, 0
1, 55297, Note_on_c, 0, 71, 81
1, 55297, Note_on_c, 9, 43, 86
1, 55297, Note_on_c, 0, 74, 82
1, 55297, Note_on_c, 1, 40, 110
1, 55297, Note_on_c, 0, 67, 81
1, 55298, Note_on_c, 9, 43, 0
1, 55318, Note_on_c, 2, 74, 73
1, 55343, Note_on_c, 9, 42, 37
1, 55343, Note_on_c, 2, 62, 90
1, 55344, Note_on_c, 9, 42, 0
1, 55345, Note_on_c, 2, 74, 0
1, 55345, Note_on_c, 2, 67, 100
1, 55346, Note_on_c, 2, 74, 94
1, 55350, Note_on_c, 3, 71, 0
1, 55366, Note_on_c, 2, 74, 0
1, 55368, Note_on_c, 2, 74, 99
1, 55369, Note_on_c, 2, 67, 0
1, 55370, Note_on_c, 2, 62, 0
1, 55370, Note_on_c, 2, 67, 99
1, 55371, Note_on_c, 2, 62, 81
1, 55388, Note_on_c, 2, 62, 0
1, 55391, Note_on_c, 2, 67, 0
1, 55391, Note_on_c, 4, 71, 0
1, 55391, Note_on_c, 9, 42, 110
1, 55392, Note_on_c, 9, 42, 0
1, 55392, Note_on_c, 2, 74, 0
1, 55392, Note_on_c, 4, 74, 35
1, 55392, Note_on_c, 4, 69, 25
1, 55392, Note_on_c, 9, 39, 110
1, 55392, Note_on_c, 4, 64, 25
1, 55392, Note_on_c, 4, 78, 32
1, 55392, Note_on_c, 9, 40, 95
1, 55392, Note_on_c, 2, 62, 100
1, 55392, Note_on_c, 9, 60, 77
1, 55392, Note_on_c, 2, 67, 98
1, 55393, Note_on_c, 9, 60, 0
1, 55393, Note_on_c, 9, 40, 0
1, 55393, Note_on_c, 9, 39, 0
1, 55393, Note_on_c, 3, 74, 87
1, 55393, Lyric_t, "all "
1, 55394, Note_on_c, 2, 74, 88
1, 55408, Note_on_c, 1, 28, 0
1, 55408, Note_on_c, 2, 67, 0
1, 55409, Note_on_c, 2, 74, 0
1, 55410, Note_on_c, 0, 66, 0
1, 55412, Note_on_c, 1, 40, 0
1, 55414, Note_on_c, 2, 62, 0
1, 55415, Note_on_c, 0, 71, 0
1, 55416, Note_on_c, 0, 74, 0
1, 55417, Note_on_c, 0, 67, 0
1, 55439, Note_on_c, 0, 66, 78
1, 55439, Note_on_c, 1, 43, 100
1, 55439, Note_on_c, 0, 67, 69
1, 55439, Note_on_c, 1, 31, 114
1, 55439, Note_on_c, 0, 74, 76
1, 55439, Note_on_c, 0, 71, 78
1, 55440, Note_on_c, 9, 36, 91
1, 55440, Note_on_c, 9, 42, 44
1, 55441, Note_on_c, 9, 42, 0
1, 55441, Note_on_c, 9, 36, 0
1, 55441, Note_on_c, 2, 62, 88
1, 55442, Note_on_c, 2, 67, 100
1, 55443, Note_on_c, 2, 71, 101
1, 55448, Note_on_c, 0, 67, 0
1, 55448, Note_on_c, 0, 74, 0
1, 55450, Note_on_c, 0, 71, 0
1, 55451, Note_on_c, 0, 66, 0
1, 55456, Note_on_c, 2, 62, 0
1, 55456, Note_on_c, 2, 71, 0
1, 55457, Note_on_c, 1, 31, 0
1, 55457, Note_on_c, 1, 43, 0
1, 55459, Note_on_c, 2, 67, 0
1, 55482, Note_on_c, 3, 74, 0
1, 55487, Note_on_c, 0, 74, 83
1, 55487, Note_on_c, 9, 42, 95
1, 55487, Note_on_c, 0, 66, 87
1, 55487, Note_on_c, 0, 71, 81
1, 55487, Note_on_c, 0, 67, 82
1, 55487, Note_on_c, 6, 83, 117
1, 55488, Note_on_c, 9, 42, 0
1, 55488, Note_on_c, 4, 78, 0
1, 55488, Note_on_c, 4, 74, 0
1, 55488, Note_on_c, 4, 64, 0
1, 55488, Note_on_c, 4, 69, 0
1, 55488, Note_on_c, 9, 36, 110
1, 55488, Note_on_c, 1, 33, 112
1, 55488, Note_on_c, 1, 45, 117
1, 55488, Note_on_c, 4, 76, 16
1, 55488, Note_on_c, 4, 59, 16
1, 55488, Note_on_c, 3, 71, 58
1, 55488, Note_on_c, 4, 66, 16
1, 55488, Note_on_c, 4, 71, 16
1, 55488, Lyric_t, "right, "
1, 55489, Note_on_c, 9, 36, 0
1, 55490, Note_on_c, 2, 62, 101
1, 55492, Note_on_c, 2, 71, 26
1, 55492, Note_on_c, 2, 69, 91
1, 55533, Note_on_c, 2, 71, 0
1, 55534, Note_on_c, 6, 83, 0
1, 55535, Note_on_c, 9, 42, 39
1, 55536, Note_on_c, 9, 42, 0
1, 55537, Note_on_c, 2, 71, 66
1, 55537, Note_on_c, 6, 81, 97
1, 55542, Note_on_c, 3, 71, 0
1, 55553, Note_on_c, 6, 81, 0
1, 55565, Note_on_c, 0, 74, 0
1, 55565, Note_on_c, 0, 71, 0
1, 55566, Note_on_c, 0, 66, 0
1, 55566, Note_on_c, 0, 67, 0
1, 55568, Note_on_c, 1, 33, 0
1, 55573, Note_on_c, 2, 69, 0
1, 55574, Note_on_c, 1, 45, 0
1, 55583, Note_on_c, 9, 42, 110
1, 55583, Note_on_c, 1, 31, 100
1, 55583, Note_on_c, 1, 43, 112
1, 55584, Note_on_c, 9, 42, 0
1, 55584, Note_on_c, 2, 62, 0
1, 55584, Note_on_c, 0, 71, 81
1, 55584, Note_on_c, 9, 39, 110
1, 55584, Note_on_c, 9, 36, 110
1, 55584, Note_on_c, 9, 40, 110
1, 55584, Note_on_c, 0, 67, 79
1, 55584, Note_on_c, 0, 74, 81
1, 55584, Note_on_c, 9, 60, 77
1, 55585, Note_on_c, 9, 60, 0
1, 55585, Note_on_c, 9, 36, 0
1, 55585, Note_on_c, 9, 39, 0
1, 55585, Note_on_c, 9, 40, 0
1, 55585, Note_on_c, 6, 78, 114
1, 55585, Note_on_c, 0, 66, 87
1, 55586, Note_on_c, 2, 71, 0
1, 55586, Note_on_c, 2, 62, 97
1, 55587, Note_on_c, 2, 67, 101
1, 55588, Note_on_c, 2, 71, 103
1, 55608, Note_on_c, 4, 71, 0
1, 55608, Note_on_c, 4, 76, 0
1, 55608, Note_on_c, 4, 66, 0
1, 55608, Note_on_c, 4, 59, 0
1, 55614, Note_on_c, 2, 71, 0
1, 55621, Note_on_c, 2, 62, 0
1, 55625, Note_on_c, 2, 67, 0
1, 55632, Note_on_c, 6, 78, 0
1, 55633, Note_on_c, 6, 74, 86
1, 55633, Note_on_c, 9, 42, 42
1, 55634, Note_on_c, 9, 42, 0
1, 55644, Note_on_c, 0, 66, 0
1, 55650, Note_on_c, 0, 67, 0
1, 55651, Note_on_c, 0, 71, 0
1, 55651, Note_on_c, 6, 74, 0
1, 55652, Note_on_c, 0, 74, 0
1, 55659, Note_on_c, 2, 72, 33
1, 55660, Note_on_c, 1, 31, 0
1, 55662, Note_on_c, 1, 43, 0
1, 55666, Note_on_c, 2, 72, 0
1, 55680, Note_on_c, 10, 61, 81
1, 55680, Note_on_c, 9, 36, 110
1, 55680, Note_on_c, 6, 76, 119
1, 55680, Note_on_c, 10, 57, 88
1, 55680, Note_on_c, 9, 42, 96
1, 55680, Note_on_c, 10, 64, 87
1, 55681, Note_on_c, 9, 42, 0
1, 55681, Note_on_c, 9, 36, 0
1, 55681, Note_on_c, 0, 73, 71
1, 55681, Note_on_c, 1, 42, 99
1, 55681, Note_on_c, 3, 73, 100
1, 55681, Note_on_c, 4, 73, 57
1, 55681, Lyric_t, "all "
1, 55681, Note_on_c, 0, 69, 75
1, 55681, Note_on_c, 0, 76, 83
1, 55681, Note_on_c, 1, 30, 97
1, 55681, Note_on_c, 2, 68, 91
1, 55682, Note_on_c, 2, 63, 91
1, 55682, Note_on_c, 2, 72, 99
1, 55721, Note_on_c, 2, 72, 0
1, 55725, Note_on_c, 2, 68, 0
1, 55727, Note_on_c, 3, 73, 0
1, 55727, Note_on_c, 3, 69, 66
1, 55727, Note_on_c, 9, 42, 37
1, 55727, Note_on_c, 2, 73, 62
1, 55728, Note_on_c, 9, 42, 0
1, 55728, Note_on_c, 4, 73, 0
1, 55728, Note_on_c, 4, 69, 20
1, 55729, Note_on_c, 2, 69, 51
1, 55735, Note_on_c, 2, 63, 0
1, 55753, Note_on_c, 2, 73, 0
1, 55754, Note_on_c, 2, 69, 0
1, 55754, Note_on_c, 2, 73, 99
1, 55755, Note_on_c, 2, 69, 96
1, 55762, Note_on_c, 2, 73, 0
1, 55766, Note_on_c, 2, 69, 0
1, 55775, Note_on_c, 9, 42, 110
1, 55776, Note_on_c, 9, 42, 0
1, 55776, Note_on_c, 4, 69, 0
1, 55776, Note_on_c, 9, 39, 110
1, 55776, Note_on_c, 4, 66, 1
1, 55776, Note_on_c, 9, 60, 77
1, 55776, Note_on_c, 3, 66, 38
1, 55776, Note_on_c, 9, 40, 95
1, 55777, Note_on_c, 9, 40, 0
1, 55777, Note_on_c, 3, 69, 0
1, 55777, Note_on_c, 9, 60, 0
1, 55777, Note_on_c, 9, 39, 0
1, 55781, Note_on_c, 0, 76, 0
1, 55784, Note_on_c, 0, 69, 0
1, 55784, Note_on_c, 0, 73, 0
1, 55788, Note_on_c, 1, 30, 0
1, 55791, Note_on_c, 1, 42, 0
1, 55810, Note_on_c, 10, 64, 0
1, 55812, Note_on_c, 10, 57, 0
1, 55812, Note_on_c, 10, 61, 0
1, 55818, Note_on_c, 6, 76, 0
1, 55822, Note_on_c, 3, 66, 0
1, 55823, Note_on_c, 3, 71, 80
1, 55823, Lyric_t, "right. "
1, 55823, Lyric_t, ""
1, 55823, Lyric_t, "\015"
1, 55823, Note_on_c, 0, 69, 78
1, 55823, Note_on_c, 2, 59, 66
1, 55823, Note_on_c, 0, 74, 82
1, 55823, Note_on_c, 10, 62, 110
1, 55823, Note_on_c, 6, 74, 112
1, 55823, Note_on_c, 0, 78, 73
1, 55824, Note_on_c, 4, 66, 0
1, 55824, Note_on_c, 1, 47, 110
1, 55824, Note_on_c, 1, 35, 98
1, 55824, Note_on_c, 9, 36, 91
1, 55824, Note_on_c, 10, 57, 100
1, 55824, Note_on_c, 4, 71, 30
1, 55824, Note_on_c, 10, 66, 123
1, 55824, Note_on_c, 9, 42, 44
1, 55824, Note_on_c, 2, 62, 101
1, 55825, Note_on_c, 9, 42, 0
1, 55825, Note_on_c, 9, 36, 0
1, 55826, Note_on_c, 2, 66, 103
1, 55826, Note_on_c, 2, 71, 103
1, 55846, Note_on_c, 10, 62, 0
1, 55847, Note_on_c, 10, 57, 0
1, 55847, Note_on_c, 6, 74, 0
1, 55848, Note_on_c, 10, 66, 0
1, 55851, Note_on_c, 2, 71, 0
1, 55852, Note_on_c, 2, 71, 76
1, 55871, Note_on_c, 9, 42, 95
1, 55872, Note_on_c, 9, 42, 0
1, 55872, Note_on_c, 9, 36, 110
1, 55873, Note_on_c, 9, 36, 0
1, 55876, Note_on_c, 2, 71, 0
1, 55881, Note_on_c, 2, 66, 0
1, 55882, Note_on_c, 2, 62, 0
1, 55888, Lyric_t, ""
1, 55888, Lyric_t, "\015"
1, 55893, Note_on_c, 2, 59, 0
1, 55894, Note_on_c, 3, 71, 0
1, 55898, Note_on_c, 0, 78, 0
1, 55898, Note_on_c, 0, 74, 0
1, 55898, Note_on_c, 2, 64, 91
1, 55899, Note_on_c, 2, 59, 82
1, 55903, Note_on_c, 2, 64, 0
1, 55907, Note_on_c, 2, 59, 0
1, 55910, Note_on_c, 0, 69, 0
1, 55912, Note_on_c, 1, 47, 0
1, 55918, Note_on_c, 1, 35, 0
1, 55919, Note_on_c, 1, 33, 100
1, 55919, Note_on_c, 2, 61, 91
1, 55919, Note_on_c, 1, 45, 97
1, 55919, Note_on_c, 9, 46, 83
1, 55920, Note_on_c, 9, 46, 0
1, 55920, Note_on_c, 4, 71, 0
1, 55920, Note_on_c, 4, 59, 53
1, 55921, Note_on_c, 0, 73, 75
1, 55921, Note_on_c, 0, 76, 68
1, 55921, Note_on_c, 2, 64, 99
1, 55921, Note_on_c, 0, 69, 66
1, 55932, Note_on_c, 0, 76, 0
1, 55933, Note_on_c, 0, 69, 0
1, 55935, Note_on_c, 1, 45, 0
1, 55936, Note_on_c, 0, 73, 0
1, 55936, Note_on_c, 1, 33, 0
1, 55967, Note_on_c, 1, 35, 97
1, 55967, Note_on_c, 9, 42, 98
1, 55968, Note_on_c, 9, 42, 0
1, 55968, Note_on_c, 2, 61, 0
1, 55968, Note_on_c, 4, 59, 0
1, 55968, Note_on_c, 2, 64, 0
1, 55968, Note_on_c, 9, 60, 77
1, 55968, Note_on_c, 2, 66, 100
1, 55968, Note_on_c, 9, 36, 110
1, 55968, Note_on_c, 9, 39, 110
1, 55968, Note_on_c, 2, 62, 80
1, 55968, Note_on_c, 1, 47, 120
1, 55968, Note_on_c, 4, 62, 55
1, 55968, Note_on_c, 9, 40, 110
1, 55969, Note_on_c, 9, 40, 0
1, 55969, Note_on_c, 9, 39, 0
1, 55969, Note_on_c, 9, 36, 0
1, 55969, Note_on_c, 9, 60, 0
1, 55969, Note_on_c, 0, 69, 84
1, 55969, Note_on_c, 0, 74, 91
1, 55969, Note_on_c, 0, 78, 71
1, 55991, Note_on_c, 2, 66, 0
1, 55993, Note_on_c, 2, 62, 0
1, 56016, Note_on_c, 4, 62, 0
1, 56016, Note_on_c, 9, 40, 30
1, 56016, Lyric_t, "Let's "
1, 56016, Note_on_c, 3, 66, 93
1, 56016, Note_on_c, 4, 64, 53
1, 56017, Note_on_c, 9, 40, 0
1, 56017, Note_on_c, 9, 42, 42
1, 56018, Note_on_c, 9, 42, 0
1, 56027, Note_on_c, 0, 78, 0
1, 56033, Note_on_c, 0, 74, 0
1, 56036, Note_on_c, 0, 69, 0
1, 56040, Note_on_c, 9, 40, 85
1, 56041, Note_on_c, 9, 40, 0
1, 56054, Note_on_c, 1, 47, 0
1, 56054, Note_on_c, 1, 35, 0
1, 56064, Note_on_c, 4, 64, 0
1, 56064, Note_on_c, 0, 66, 96
1, 56064, Note_on_c, 4, 66, 65
1, 56064, Lyric_t, "groove "
1, 56064, Note_on_c, 9, 43, 89
1, 56064, Note_on_c, 10, 57, 91
1, 56064, Note_on_c, 3, 78, 108
1, 56064, Note_on_c, 9, 49, 96
1, 56064, Note_on_c, 9, 36, 110
1, 56064, Note_on_c, 1, 28, 104
1, 56065, Note_on_c, 9, 36, 0
1, 56065, Note_on_c, 9, 49, 0
1, 56065, Note_on_c, 9, 43, 0
1, 56065, Note_on_c, 0, 74, 82
1, 56065, Note_on_c, 0, 71, 81
1, 56065, Note_on_c, 0, 67, 81
1, 56065, Note_on_c, 1, 40, 110
1, 56068, Note_on_c, 3, 66, 0
1, 56087, Note_on_c, 2, 74, 69
1, 56111, Note_on_c, 9, 42, 37
1, 56112, Note_on_c, 9, 42, 0
1, 56112, Note_on_c, 2, 62, 87
1, 56114, Note_on_c, 2, 74, 0
1, 56114, Note_on_c, 2, 67, 100
1, 56115, Note_on_c, 2, 74, 76
1, 56135, Note_on_c, 2, 74, 0
1, 56135, Note_on_c, 10, 57, 0
1, 56138, Note_on_c, 2, 67, 0
1, 56138, Note_on_c, 2, 74, 81
1, 56139, Note_on_c, 2, 67, 89
1, 56140, Note_on_c, 2, 62, 0
1, 56141, Note_on_c, 2, 62, 74
1, 56156, Note_on_c, 2, 62, 0
1, 56159, Note_on_c, 9, 42, 110
1, 56159, Note_on_c, 10, 59, 98
1, 56160, Note_on_c, 9, 42, 0
1, 56160, Note_on_c, 2, 67, 0
1, 56160, Note_on_c, 9, 40, 95
1, 56160, Note_on_c, 9, 39, 110
1, 56160, Note_on_c, 9, 60, 77
1, 56161, Note_on_c, 9, 60, 0
1, 56161, Note_on_c, 4, 66, 0
1, 56161, Note_on_c, 9, 39, 0
1, 56161, Note_on_c, 9, 40, 0
1, 56161, Note_on_c, 2, 62, 98
1, 56161, Note_on_c, 3, 74, 93
1, 56161, Note_on_c, 4, 62, 50
1, 56161, Lyric_t, "to"
1, 56162, Note_on_c, 3, 78, 0
1, 56162, Note_on_c, 2, 74, 0
1, 56162, Note_on_c, 2, 67, 97
1, 56163, Note_on_c, 2, 74, 101
1, 56176, Note_on_c, 1, 28, 0
1, 56178, Note_on_c, 0, 66, 0
1, 56178, Note_on_c, 2, 74, 0
1, 56180, Note_on_c, 1, 40, 0
1, 56183, Note_on_c, 0, 71, 0
1, 56184, Note_on_c, 2, 67, 0
1, 56184, Note_on_c, 0, 74, 0
1, 56185, Note_on_c, 0, 67, 0
1, 56185, Note_on_c, 2, 62, 0
1, 56206, Note_on_c, 3, 74, 0
1, 56207, Note_on_c, 10, 59, 0
1, 56207, Note_on_c, 1, 43, 100
1, 56207, Note_on_c, 1, 31, 114
1, 56207, Note_on_c, 0, 74, 76
1, 56207, Note_on_c, 0, 67, 69
1, 56207, Note_on_c, 0, 71, 78
1, 56207, Note_on_c, 0, 66, 78
1, 56208, Note_on_c, 4, 62, 0
1, 56208, Note_on_c, 9, 36, 91
1, 56208, Note_on_c, 9, 42, 44
1, 56209, Note_on_c, 9, 42, 0
1, 56209, Note_on_c, 9, 36, 0
1, 56209, Lyric_t, "night, "
1, 56209, Note_on_c, 4, 62, 54
1, 56209, Lyric_t, ""
1, 56209, Lyric_t, "\015"
1, 56209, Note_on_c, 10, 57, 86
1, 56209, Note_on_c, 3, 74, 97
1, 56210, Note_on_c, 2, 67, 99
1, 56211, Note_on_c, 2, 71, 95
1, 56216, Note_on_c, 0, 74, 0
1, 56216, Note_on_c, 0, 67, 0
1, 56218, Note_on_c, 0, 71, 0
1, 56219, Note_on_c, 0, 66, 0
1, 56225, Note_on_c, 1, 43, 0
1, 56225, Note_on_c, 1, 31, 0
1, 56227, Note_on_c, 10, 57, 0
1, 56232, Note_on_c, 2, 71, 0
1, 56233, Note_on_c, 2, 67, 0
1, 56255, Note_on_c, 0, 71, 81
1, 56255, Note_on_c, 0, 67, 82
1, 56255, Note_on_c, 9, 42, 95
1, 56255, Note_on_c, 0, 74, 83
1, 56255, Note_on_c, 0, 66, 87
1, 56256, Note_on_c, 9, 42, 0
1, 56256, Note_on_c, 3, 74, 0
1, 56256, Note_on_c, 1, 33, 112
1, 56256, Note_on_c, 9, 36, 110
1, 56256, Note_on_c, 1, 45, 117
1, 56257, Note_on_c, 9, 36, 0
1, 56257, Note_on_c, 2, 62, 100
1, 56257, Note_on_c, 10, 62, 98
1, 56258, Note_on_c, 2, 69, 92
1, 56300, Note_on_c, 4, 62, 0
1, 56303, Note_on_c, 9, 42, 39
1, 56304, Note_on_c, 9, 42, 0
1, 56305, Note_on_c, 6, 81, 120
1, 56313, Note_on_c, 6, 81, 0
1, 56327, Note_on_c, 6, 81, 104
1, 56333, Note_on_c, 0, 71, 0
1, 56333, Note_on_c, 0, 74, 0
1, 56334, Note_on_c, 0, 67, 0
1, 56334, Note_on_c, 0, 66, 0
1, 56336, Note_on_c, 1, 33, 0
1, 56337, Note_on_c, 6, 81, 0
1, 56342, Note_on_c, 2, 69, 0
1, 56342, Note_on_c, 1, 45, 0
1, 56345, Note_on_c, 10, 62, 0
1, 56350, Note_on_c, 2, 62, 0
1, 56350, Note_on_c, 6, 79, 111
1, 56351, Note_on_c, 10, 59, 87
1, 56351, Note_on_c, 9, 42, 110
1, 56352, Note_on_c, 9, 42, 0
1, 56352, Note_on_c, 9, 60, 77
1, 56352, Note_on_c, 0, 74, 81
1, 56352, Note_on_c, 9, 39, 110
1, 56352, Note_on_c, 0, 67, 79
1, 56352, Note_on_c, 1, 31, 100
1, 56352, Note_on_c, 1, 43, 112
1, 56352, Note_on_c, 2, 62, 103
1, 56352, Note_on_c, 0, 71, 81
1, 56352, Note_on_c, 9, 40, 110
1, 56352, Note_on_c, 10, 64, 102
1, 56352, Note_on_c, 9, 36, 110
1, 56353, Note_on_c, 9, 36, 0
1, 56353, Note_on_c, 9, 39, 0
1, 56353, Note_on_c, 9, 60, 0
1, 56353, Note_on_c, 9, 40, 0
1, 56353, Note_on_c, 2, 67, 95
1, 56353, Note_on_c, 0, 66, 87
1, 56353, Note_on_c, 2, 71, 104
1, 56386, Note_on_c, 2, 71, 0
1, 56388, Note_on_c, 2, 62, 0
1, 56391, Note_on_c, 2, 67, 0
1, 56396, Note_on_c, 10, 64, 0
1, 56399, Note_on_c, 6, 79, 0
1, 56400, Note_on_c, 10, 66, 111
1, 56401, Note_on_c, 10, 59, 0
1, 56401, Note_on_c, 6, 81, 104
1, 56401, Note_on_c, 9, 42, 42
1, 56401, Note_on_c, 10, 62, 106
1, 56402, Note_on_c, 9, 42, 0
1, 56412, Note_on_c, 0, 66, 0
1, 56415, Note_on_c, 6, 81, 0
1, 56418, Note_on_c, 0, 67, 0
1, 56419, Note_on_c, 0, 71, 0
1, 56420, Note_on_c, 0, 74, 0
1, 56421, Note_on_c, 10, 66, 0
1, 56422, Note_on_c, 10, 62, 0
1, 56426, Note_on_c, 2, 68, 56
1, 56427, Note_on_c, 2, 72, 86
1, 56429, Note_on_c, 1, 31, 0
1, 56431, Note_on_c, 1, 43, 0
1, 56447, Note_on_c, 2, 68, 0
1, 56447, Note_on_c, 2, 72, 0
1, 56448, Note_on_c, 4, 62, 54
1, 56448, Lyric_t, "huh, "
1, 56448, Note_on_c, 9, 42, 96
1, 56448, Note_on_c, 9, 36, 110
1, 56448, Note_on_c, 3, 74, 97
1, 56448, Note_on_c, 2, 63, 87
1, 56449, Note_on_c, 9, 36, 0
1, 56449, Note_on_c, 9, 42, 0
1, 56449, Note_on_c, 0, 73, 71
1, 56449, Note_on_c, 1, 30, 97
1, 56449, Note_on_c, 2, 68, 95
1, 56449, Note_on_c, 0, 69, 75
1, 56449, Note_on_c, 0, 76, 83
1, 56449, Note_on_c, 1, 42, 99
1, 56450, Note_on_c, 2, 72, 100
1, 56476, Note_on_c, 2, 73, 77
1, 56477, Note_on_c, 2, 69, 85
1, 56478, Note_on_c, 2, 72, 0
1, 56481, Note_on_c, 2, 68, 0
1, 56484, Note_on_c, 2, 63, 0
1, 56490, Note_on_c, 2, 64, 81
1, 56495, Note_on_c, 3, 74, 0
1, 56495, Note_on_c, 9, 42, 37
1, 56496, Note_on_c, 9, 42, 0
1, 56517, Note_on_c, 2, 73, 0
1, 56518, Note_on_c, 2, 64, 0
1, 56519, Note_on_c, 2, 69, 0
1, 56521, Note_on_c, 2, 73, 101
1, 56523, Note_on_c, 2, 69, 96
1, 56523, Note_on_c, 2, 64, 51
1, 56540, Note_on_c, 2, 69, 0
1, 56543, Note_on_c, 2, 73, 0
1, 56543, Note_on_c, 9, 42, 110
1, 56544, Note_on_c, 9, 42, 0
1, 56544, Note_on_c, 9, 60, 77
1, 56544, Note_on_c, 9, 39, 110
1, 56544, Note_on_c, 2, 69, 94
1, 56544, Note_on_c, 9, 40, 95
1, 56545, Note_on_c, 9, 40, 0
1, 56545, Note_on_c, 9, 39, 0
1, 56545, Note_on_c, 9, 60, 0
1, 56545, Note_on_c, 2, 73, 96
1, 56547, Note_on_c, 2, 64, 0
1, 56549, Note_on_c, 0, 76, 0
1, 56552, Note_on_c, 2, 73, 0
1, 56552, Note_on_c, 0, 73, 0
1, 56552, Note_on_c, 0, 69, 0
1, 56556, Note_on_c, 2, 69, 0
1, 56556, Note_on_c, 1, 30, 0
1, 56557, Note_on_c, 4, 62, 0
1, 56559, Note_on_c, 1, 42, 0
1, 56591, Note_on_c, 0, 69, 78
1, 56591, Note_on_c, 0, 78, 73
1, 56591, Note_on_c, 0, 74, 82
1, 56592, Note_on_c, 10, 57, 97
1, 56592, Note_on_c, 2, 62, 101
1, 56592, Note_on_c, 9, 42, 44
1, 56592, Note_on_c, 1, 35, 98
1, 56592, Note_on_c, 1, 47, 110
1, 56592, Note_on_c, 9, 36, 91
1, 56593, Note_on_c, 9, 36, 0
1, 56593, Note_on_c, 9, 42, 0
1, 56594, Note_on_c, 2, 66, 94
1, 56594, Note_on_c, 2, 71, 105
1, 56614, Note_on_c, 10, 57, 0
1, 56616, Note_on_c, 2, 71, 0
1, 56639, Note_on_c, 9, 42, 95
1, 56640, Note_on_c, 9, 42, 0
1, 56640, Note_on_c, 9, 36, 110
1, 56641, Note_on_c, 9, 36, 0
1, 56644, Note_on_c, 2, 62, 0
1, 56645, Note_on_c, 2, 66, 0
1, 56665, Note_on_c, 2, 61, 81
1, 56665, Note_on_c, 2, 64, 90
1, 56666, Note_on_c, 0, 74, 0
1, 56666, Note_on_c, 0, 78, 0
1, 56673, Note_on_c, 2, 61, 0
1, 56677, Note_on_c, 2, 64, 0
1, 56678, Note_on_c, 0, 69, 0
1, 56680, Note_on_c, 1, 47, 0
1, 56685, Note_on_c, 6, 83, 127
1, 56686, Note_on_c, 1, 35, 0
1, 56686, Note_on_c, 2, 61, 77
1, 56687, Note_on_c, 1, 45, 97
1, 56687, Note_on_c, 1, 33, 100
1, 56687, Note_on_c, 9, 42, 39
1, 56688, Note_on_c, 9, 42, 0
1, 56688, Note_on_c, 10, 57, 92
1, 56689, Note_on_c, 0, 73, 75
1, 56689, Note_on_c, 2, 64, 103
1, 56689, Note_on_c, 0, 76, 68
1, 56689, Note_on_c, 0, 69, 66
1, 56700, Note_on_c, 0, 76, 0
1, 56701, Note_on_c, 0, 69, 0
1, 56703, Note_on_c, 1, 45, 0
1, 56704, Note_on_c, 1, 33, 0
1, 56704, Note_on_c, 0, 73, 0
1, 56709, Note_on_c, 10, 57, 0
1, 56718, Note_on_c, 6, 83, 0
1, 56735, Note_on_c, 10, 57, 106
1, 56735, Note_on_c, 3, 74, 101
1, 56735, Note_on_c, 1, 35, 97
1, 56735, Note_on_c, 9, 42, 110
1, 56735, Lyric_t, "share "
1, 56735, Note_on_c, 4, 62, 58
1, 56736, Note_on_c, 9, 42, 0
1, 56736, Note_on_c, 2, 64, 0
1, 56736, Note_on_c, 2, 61, 0
1, 56736, Note_on_c, 9, 36, 110
1, 56736, Note_on_c, 1, 47, 120
1, 56736, Note_on_c, 9, 40, 110
1, 56736, Note_on_c, 6, 81, 120
1, 56736, Note_on_c, 2, 62, 97
1, 56736, Note_on_c, 9, 60, 77
1, 56736, Note_on_c, 10, 66, 106
1, 56736, Note_on_c, 9, 39, 110
1, 56737, Note_on_c, 9, 39, 0
1, 56737, Note_on_c, 9, 40, 0
1, 56737, Note_on_c, 9, 60, 0
1, 56737, Note_on_c, 9, 36, 0
1, 56737, Note_on_c, 0, 69, 84
1, 56737, Note_on_c, 0, 74, 91
1, 56737, Note_on_c, 0, 78, 71
1, 56738, Note_on_c, 2, 66, 100
1, 56747, Note_on_c, 2, 66, 0
1, 56748, Note_on_c, 2, 62, 0
1, 56749, Note_on_c, 6, 81, 0
1, 56760, Note_on_c, 6, 81, 120
1, 56768, Note_on_c, 6, 81, 0
1, 56780, Note_on_c, 6, 83, 125
1, 56782, Note_on_c, 10, 57, 0
1, 56783, Note_on_c, 10, 66, 0
1, 56784, Note_on_c, 4, 62, 0
1, 56784, Lyric_t, "the "
1, 56784, Note_on_c, 10, 64, 106
1, 56784, Note_on_c, 10, 59, 106
1, 56784, Note_on_c, 3, 76, 87
1, 56784, Note_on_c, 4, 64, 44
1, 56785, Note_on_c, 3, 74, 0
1, 56785, Note_on_c, 9, 42, 42
1, 56786, Note_on_c, 9, 42, 0
1, 56795, Note_on_c, 0, 78, 0
1, 56801, Note_on_c, 0, 74, 0
1, 56804, Note_on_c, 0, 69, 0
1, 56806, Note_on_c, 10, 59, 0
1, 56806, Note_on_c, 10, 64, 0
1, 56807, Note_on_c, 6, 83, 0
1, 56822, Note_on_c, 1, 47, 0
1, 56822, Note_on_c, 1, 35, 0
1, 56828, Note_on_c, 3, 76, 0
1, 56832, Note_on_c, 4, 64, 0
1, 56832, Note_on_c, 10, 57, 91
1, 56832, Note_on_c, 4, 66, 63
1, 56832, Note_on_c, 9, 36, 110
1, 56832, Lyric_t, "spice "
1, 56832, Note_on_c, 0, 66, 96
1, 56832, Note_on_c, 9, 42, 96
1, 56832, Note_on_c, 1, 28, 104
1, 56832, Note_on_c, 3, 78, 106
1, 56833, Note_on_c, 9, 42, 0
1, 56833, Note_on_c, 9, 36, 0
1, 56833, Note_on_c, 0, 74, 82
1, 56833, Note_on_c, 0, 67, 81
1, 56833, Note_on_c, 9, 43, 86
1, 56833, Note_on_c, 0, 71, 81
1, 56833, Note_on_c, 1, 40, 110
1, 56834, Note_on_c, 9, 43, 0
1, 56878, Note_on_c, 3, 78, 0
1, 56879, Note_on_c, 4, 66, 0
1, 56879, Note_on_c, 9, 42, 37
1, 56879, Note_on_c, 4, 62, 35
1, 56879, Note_on_c, 3, 74, 78
1, 56879, Lyric_t, "of "
1, 56880, Note_on_c, 9, 42, 0
1, 56880, Note_on_c, 2, 62, 100
1, 56881, Note_on_c, 2, 67, 99
1, 56882, Note_on_c, 2, 74, 96
1, 56903, Note_on_c, 2, 74, 0
1, 56903, Note_on_c, 10, 57, 0
1, 56904, Note_on_c, 2, 62, 0
1, 56906, Note_on_c, 2, 67, 0
1, 56906, Note_on_c, 2, 74, 100
1, 56907, Note_on_c, 2, 67, 99
1, 56908, Note_on_c, 2, 62, 83
1, 56923, Note_on_c, 2, 62, 0
1, 56924, Note_on_c, 3, 74, 0
1, 56925, Note_on_c, 2, 67, 0
1, 56926, Note_on_c, 4, 62, 0
1, 56927, Note_on_c, 10, 59, 98
1, 56927, Note_on_c, 4, 62, 58
1, 56927, Note_on_c, 9, 42, 110
1, 56927, Lyric_t, ""
1, 56927, Lyric_t, "\015"
1, 56927, Note_on_c, 3, 74, 101
1, 56927, Lyric_t, "life. "
1, 56928, Note_on_c, 9, 42, 0
1, 56928, Note_on_c, 9, 39, 110
1, 56928, Note_on_c, 9, 60, 77
1, 56928, Note_on_c, 2, 62, 101
1, 56928, Note_on_c, 9, 40, 95
1, 56929, Note_on_c, 9, 40, 0
1, 56929, Note_on_c, 2, 74, 0
1, 56929, Note_on_c, 9, 60, 0
1, 56929, Note_on_c, 9, 39, 0
1, 56929, Note_on_c, 2, 67, 97
1, 56930, Note_on_c, 2, 74, 95
1, 56944, Note_on_c, 1, 28, 0
1, 56946, Note_on_c, 0, 66, 0
1, 56948, Note_on_c, 1, 40, 0
1, 56949, Note_on_c, 2, 74, 0
1, 56950, Note_on_c, 2, 62, 0
1, 56951, Note_on_c, 0, 71, 0
1, 56951, Note_on_c, 2, 67, 0
1, 56952, Note_on_c, 0, 74, 0
1, 56953, Note_on_c, 0, 67, 0
1, 56975, Note_on_c, 4, 62, 0
1, 56975, Note_on_c, 10, 59, 0
1, 56975, Note_on_c, 3, 74, 0
1, 56975, Note_on_c, 1, 31, 114
1, 56975, Note_on_c, 1, 43, 100
1, 56975, Note_on_c, 0, 74, 76
1, 56975, Note_on_c, 3, 76, 77
1, 56975, Note_on_c, 0, 66, 78
1, 56975, Note_on_c, 0, 71, 78
1, 56975, Note_on_c, 0, 67, 69
1, 56975, Note_on_c, 4, 64, 34
1, 56976, Note_on_c, 9, 36, 91
1, 56976, Note_on_c, 9, 42, 44
1, 56976, Note_on_c, 2, 67, 101
1, 56977, Note_on_c, 9, 42, 0
1, 56977, Note_on_c, 9, 36, 0
1, 56977, Note_on_c, 10, 57, 86
1, 56978, Note_on_c, 2, 71, 104
1, 56984, Note_on_c, 0, 67, 0
1, 56984, Note_on_c, 0, 74, 0
1, 56986, Note_on_c, 0, 71, 0
1, 56987, Note_on_c, 0, 66, 0
1, 56993, Note_on_c, 2, 71, 0
1, 56993, Note_on_c, 1, 31, 0
1, 56993, Note_on_c, 1, 43, 0
1, 56995, Note_on_c, 2, 67, 0
1, 56995, Note_on_c, 10, 57, 0
1, 57023, Note_on_c, 0, 66, 87
1, 57023, Note_on_c, 9, 42, 95
1, 57023, Note_on_c, 0, 74, 83
1, 57023, Note_on_c, 2, 59, 66
1, 57023, Note_on_c, 0, 71, 81
1, 57023, Note_on_c, 0, 67, 82
1, 57024, Note_on_c, 9, 42, 0
1, 57024, Note_on_c, 1, 33, 112
1, 57024, Note_on_c, 1, 45, 117
1, 57024, Note_on_c, 9, 36, 110
1, 57025, Note_on_c, 9, 36, 0
1, 57025, Note_on_c, 10, 62, 98
1, 57026, Note_on_c, 3, 76, 0
1, 57026, Note_on_c, 2, 62, 102
1, 57027, Note_on_c, 2, 69, 87
1, 57028, Note_on_c, 2, 71, 83
1, 57071, Note_on_c, 9, 42, 39
1, 57072, Note_on_c, 9, 42, 0
1, 57073, Note_on_c, 6, 81, 120
1, 57081, Note_on_c, 6, 81, 0
1, 57084, Note_on_c, 4, 64, 0
1, 57095, Note_on_c, 6, 81, 104
1, 57101, Note_on_c, 0, 74, 0
1, 57101, Note_on_c, 0, 71, 0
1, 57102, Note_on_c, 0, 67, 0
1, 57102, Note_on_c, 0, 66, 0
1, 57104, Note_on_c, 1, 33, 0
1, 57105, Note_on_c, 6, 81, 0
1, 57107, Note_on_c, 2, 69, 0
1, 57110, Note_on_c, 1, 45, 0
1, 57113, Note_on_c, 10, 62, 0
1, 57117, Note_on_c, 2, 62, 0
1, 57118, Note_on_c, 2, 71, 0
1, 57118, Note_on_c, 6, 79, 111
1, 57119, Note_on_c, 9, 42, 110
1, 57119, Lyric_t, ""
1, 57119, Lyric_t, "\015"
1, 57120, Note_on_c, 9, 42, 0
1, 57120, Note_on_c, 0, 71, 81
1, 57120, Note_on_c, 9, 36, 110
1, 57120, Note_on_c, 0, 67, 79
1, 57120, Note_on_c, 9, 40, 110
1, 57120, Note_on_c, 9, 39, 110
1, 57120, Note_on_c, 0, 74, 81
1, 57120, Note_on_c, 9, 60, 77
1, 57120, Note_on_c, 1, 43, 112
1, 57120, Note_on_c, 1, 31, 100
1, 57120, Note_on_c, 10, 64, 113
1, 57121, Note_on_c, 9, 60, 0
1, 57121, Note_on_c, 9, 39, 0
1, 57121, Note_on_c, 9, 40, 0
1, 57121, Note_on_c, 9, 36, 0
1, 57121, Note_on_c, 2, 67, 100
1, 57121, Note_on_c, 2, 71, 105
1, 57121, Note_on_c, 0, 66, 87
1, 57121, Note_on_c, 2, 62, 103
1, 57151, Note_on_c, 2, 71, 0
1, 57156, Note_on_c, 2, 59, 0
1, 57158, Note_on_c, 2, 62, 0
1, 57159, Note_on_c, 2, 67, 0
1, 57164, Note_on_c, 10, 64, 0
1, 57167, Note_on_c, 6, 79, 0
1, 57169, Note_on_c, 6, 81, 104
1, 57169, Note_on_c, 9, 42, 42
1, 57169, Note_on_c, 10, 59, 97
1, 57170, Note_on_c, 9, 42, 0
1, 57180, Note_on_c, 0, 66, 0
1, 57183, Note_on_c, 6, 81, 0
1, 57186, Note_on_c, 0, 67, 0
1, 57187, Note_on_c, 0, 71, 0
1, 57188, Note_on_c, 0, 74, 0
1, 57190, Note_on_c, 10, 59, 0
1, 57194, Note_on_c, 2, 72, 21
1, 57194, Note_on_c, 2, 68, 73
1, 57195, Note_on_c, 2, 72, 0
1, 57197, Note_on_c, 1, 31, 0
1, 57199, Note_on_c, 1, 43, 0
1, 57215, Note_on_c, 2, 68, 0
1, 57215, Note_on_c, 2, 63, 75
1, 57216, Note_on_c, 9, 42, 96
1, 57216, Note_on_c, 9, 36, 110
1, 57216, Note_on_c, 6, 81, 116
1, 57216, Note_on_c, 6, 76, 116
1, 57216, Note_on_c, 6, 85, 116
1, 57217, Note_on_c, 9, 36, 0
1, 57217, Note_on_c, 9, 42, 0
1, 57217, Note_on_c, 0, 73, 71
1, 57217, Note_on_c, 1, 42, 99
1, 57217, Note_on_c, 0, 76, 83
1, 57217, Note_on_c, 0, 69, 75
1, 57217, Note_on_c, 2, 68, 96
1, 57217, Note_on_c, 1, 30, 97
1, 57218, Note_on_c, 2, 72, 95
1, 57242, Note_on_c, 2, 69, 88
1, 57243, Note_on_c, 2, 72, 0
1, 57244, Note_on_c, 2, 68, 0
1, 57245, Note_on_c, 2, 64, 72
1, 57250, Note_on_c, 2, 63, 0
1, 57263, Note_on_c, 9, 42, 37
1, 57264, Note_on_c, 9, 42, 0
1, 57286, Note_on_c, 2, 64, 0
1, 57288, Note_on_c, 2, 69, 0
1, 57289, Note_on_c, 2, 73, 103
1, 57290, Note_on_c, 2, 69, 99
1, 57291, Note_on_c, 2, 64, 78
1, 57308, Note_on_c, 2, 64, 0
1, 57310, Note_on_c, 2, 69, 0
1, 57311, Note_on_c, 9, 42, 110
1, 57311, Note_on_c, 2, 64, 94
1, 57312, Note_on_c, 9, 42, 0
1, 57312, Note_on_c, 2, 73, 0
1, 57312, Note_on_c, 9, 40, 95
1, 57312, Note_on_c, 4, 69, 52
1, 57312, Note_on_c, 2, 69, 92
1, 57312, Note_on_c, 9, 39, 110
1, 57312, Note_on_c, 9, 60, 77
1, 57313, Note_on_c, 9, 60, 0
1, 57313, Note_on_c, 9, 39, 0
1, 57313, Note_on_c, 9, 40, 0
1, 57317, Note_on_c, 0, 76, 0
1, 57317, Note_on_c, 2, 69, 0
1, 57318, Note_on_c, 2, 64, 0
1, 57320, Note_on_c, 0, 69, 0
1, 57320, Note_on_c, 0, 73, 0
1, 57324, Note_on_c, 1, 30, 0
1, 57327, Note_on_c, 1, 42, 0
1, 57359, Note_on_c, 6, 76, 0
1, 57359, Note_on_c, 6, 81, 0
1, 57359, Note_on_c, 6, 85, 0
1, 57359, Note_on_c, 0, 78, 73
1, 57359, Note_on_c, 6, 83, 108
1, 57359, Note_on_c, 0, 69, 78
1, 57359, Note_on_c, 2, 59, 56
1, 57359, Note_on_c, 0, 74, 82
1, 57360, Note_on_c, 6, 78, 99
1, 57360, Note_on_c, 2, 66, 102
1, 57360, Note_on_c, 6, 74, 100
1, 57360, Note_on_c, 2, 62, 103
1, 57360, Note_on_c, 9, 42, 44
1, 57360, Note_on_c, 9, 36, 91
1, 57360, Note_on_c, 1, 47, 110
1, 57360, Note_on_c, 1, 35, 98
1, 57361, Note_on_c, 9, 36, 0
1, 57361, Note_on_c, 9, 42, 0
1, 57362, Note_on_c, 2, 71, 103
1, 57366, Note_on_c, 4, 69, 0
1, 57366, Note_on_c, 4, 66, 35
1, 57378, Note_on_c, 6, 74, 0
1, 57378, Note_on_c, 6, 78, 0
1, 57382, Note_on_c, 6, 83, 0
1, 57407, Note_on_c, 9, 42, 95
1, 57408, Note_on_c, 9, 42, 0
1, 57408, Note_on_c, 2, 71, 0
1, 57408, Note_on_c, 9, 36, 110
1, 57409, Note_on_c, 9, 36, 0
1, 57419, Note_on_c, 2, 66, 0
1, 57423, Note_on_c, 2, 62, 0
1, 57428, Note_on_c, 2, 59, 0
1, 57433, Note_on_c, 2, 64, 101
1, 57434, Note_on_c, 0, 74, 0
1, 57434, Note_on_c, 0, 78, 0
1, 57434, Note_on_c, 2, 59, 105
1, 57442, Note_on_c, 2, 59, 0
1, 57443, Note_on_c, 2, 64, 0
1, 57446, Note_on_c, 0, 69, 0
1, 57448, Note_on_c, 1, 47, 0
1, 57454, Note_on_c, 1, 35, 0
1, 57454, Note_on_c, 2, 61, 80
1, 57455, Note_on_c, 1, 33, 100
1, 57455, Note_on_c, 9, 42, 39
1, 57455, Note_on_c, 2, 64, 103
1, 57455, Note_on_c, 1, 45, 97
1, 57456, Note_on_c, 9, 42, 0
1, 57456, Note_on_c, 2, 69, 103
1, 57457, Note_on_c, 0, 73, 75
1, 57457, Note_on_c, 0, 76, 68
1, 57457, Note_on_c, 0, 69, 66
1, 57468, Note_on_c, 0, 76, 0
1, 57469, Note_on_c, 0, 69, 0
1, 57471, Note_on_c, 1, 45, 0
1, 57472, Note_on_c, 1, 33, 0
1, 57472, Note_on_c, 0, 73, 0
1, 57474, Note_on_c, 2, 69, 0
1, 57478, Note_on_c, 2, 69, 81
1, 57503, Note_on_c, 4, 66, 0
1, 57503, Note_on_c, 2, 61, 0
1, 57503, Note_on_c, 1, 35, 97
1, 57503, Lyric_t, "Ba"
1, 57503, Note_on_c, 9, 42, 110
1, 57503, Note_on_c, 4, 62, 54
1, 57503, Note_on_c, 3, 74, 97
1, 57504, Note_on_c, 9, 42, 0
1, 57504, Note_on_c, 2, 64, 0
1, 57504, Note_on_c, 1, 47, 120
1, 57504, Note_on_c, 9, 36, 110
1, 57504, Note_on_c, 9, 40, 110
1, 57504, Note_on_c, 9, 60, 77
1, 57504, Note_on_c, 9, 39, 110
1, 57504, Note_on_c, 2, 62, 101
1, 57504, Note_on_c, 2, 66, 101
1, 57505, Note_on_c, 9, 39, 0
1, 57505, Note_on_c, 9, 60, 0
1, 57505, Note_on_c, 9, 40, 0
1, 57505, Note_on_c, 9, 36, 0
1, 57505, Note_on_c, 0, 69, 84
1, 57505, Note_on_c, 0, 74, 91
1, 57505, Note_on_c, 0, 78, 71
1, 57506, Note_on_c, 2, 69, 0
1, 57516, Note_on_c, 2, 66, 0
1, 57521, Note_on_c, 2, 62, 0
1, 57551, Note_on_c, 3, 74, 0
1, 57551, Note_on_c, 4, 62, 0
1, 57551, Lyric_t, "by, "
1, 57551, Note_on_c, 4, 64, 38
1, 57551, Note_on_c, 3, 76, 81
1, 57553, Note_on_c, 9, 42, 42
1, 57554, Note_on_c, 9, 42, 0
1, 57563, Note_on_c, 0, 78, 0
1, 57569, Note_on_c, 0, 74, 0
1, 57572, Note_on_c, 0, 69, 0
1, 57590, Note_on_c, 1, 47, 0
1, 57590, Note_on_c, 1, 35, 0
1, 57596, Note_on_c, 3, 76, 0
1, 57599, Note_on_c, 4, 64, 0
1, 57599, Note_on_c, 3, 78, 100
1, 57599, Note_on_c, 4, 66, 57
1, 57599, Lyric_t, "slice "
1, 57600, Note_on_c, 6, 83, 127
1, 57600, Note_on_c, 1, 28, 104
1, 57600, Note_on_c, 9, 42, 96
1, 57600, Note_on_c, 0, 66, 96
1, 57600, Note_on_c, 9, 36, 110
1, 57600, Note_on_c, 10, 57, 91
1, 57601, Note_on_c, 9, 36, 0
1, 57601, Note_on_c, 9, 42, 0
1, 57601, Note_on_c, 0, 74, 82
1, 57601, Note_on_c, 0, 71, 81
1, 57601, Note_on_c, 0, 67, 81
1, 57601, Note_on_c, 1, 40, 110
1, 57601, Note_on_c, 9, 43, 84
1, 57602, Note_on_c, 9, 43, 0
1, 57622, Note_on_c, 2, 74, 97
1, 57624, Note_on_c, 2, 67, 93
1, 57625, Note_on_c, 2, 62, 66
1, 57636, Note_on_c, 6, 82, 105
1, 57642, Note_on_c, 2, 62, 0
1, 57644, Note_on_c, 6, 83, 0
1, 57644, Note_on_c, 6, 81, 101
1, 57645, Note_on_c, 2, 67, 0
1, 57646, Note_on_c, 2, 62, 81
1, 57647, Note_on_c, 2, 74, 0
1, 57647, Note_on_c, 3, 78, 0
1, 57647, Note_on_c, 9, 42, 37
1, 57647, Note_on_c, 2, 67, 98
1, 57648, Note_on_c, 9, 42, 0
1, 57648, Note_on_c, 4, 66, 0
1, 57648, Note_on_c, 4, 62, 34
1, 57648, Lyric_t, "it "
1, 57648, Note_on_c, 2, 74, 99
1, 57648, Note_on_c, 3, 74, 77
1, 57649, Note_on_c, 6, 80, 96
1, 57652, Note_on_c, 6, 82, 0
1, 57655, Note_on_c, 6, 81, 0
1, 57656, Note_on_c, 6, 79, 89
1, 57661, Note_on_c, 6, 80, 0
1, 57661, Note_on_c, 6, 78, 81
1, 57664, Note_on_c, 6, 79, 0
1, 57667, Note_on_c, 6, 78, 0
1, 57667, Note_on_c, 6, 77, 78
1, 57668, Note_on_c, 2, 74, 0
1, 57671, Note_on_c, 10, 57, 0
1, 57671, Note_on_c, 6, 77, 0
1, 57671, Note_on_c, 2, 67, 0
1, 57671, Note_on_c, 2, 74, 94
1, 57671, Note_on_c, 6, 76, 76
1, 57672, Note_on_c, 2, 62, 0
1, 57672, Note_on_c, 2, 67, 100
1, 57673, Note_on_c, 2, 62, 75
1, 57676, Note_on_c, 6, 76, 0
1, 57691, Note_on_c, 2, 62, 0
1, 57693, Note_on_c, 3, 74, 0
1, 57694, Note_on_c, 2, 74, 0
1, 57694, Note_on_c, 2, 67, 0
1, 57694, Note_on_c, 4, 62, 0
1, 57694, Note_on_c, 2, 62, 99
1, 57695, Note_on_c, 2, 74, 96
1, 57695, Note_on_c, 4, 62, 48
1, 57695, Note_on_c, 10, 59, 98
1, 57695, Note_on_c, 3, 74, 91
1, 57695, Note_on_c, 9, 42, 110
1, 57695, Note_on_c, 2, 67, 100
1, 57695, Lyric_t, "right, "
1, 57695, Lyric_t, ""
1, 57695, Lyric_t, "\015"
1, 57696, Note_on_c, 9, 42, 0
1, 57696, Note_on_c, 9, 39, 110
1, 57696, Note_on_c, 9, 60, 77
1, 57696, Note_on_c, 9, 40, 95
1, 57697, Note_on_c, 9, 40, 0
1, 57697, Note_on_c, 9, 60, 0
1, 57697, Note_on_c, 9, 39, 0
1, 57706, Note_on_c, 2, 74, 0
1, 57709, Note_on_c, 2, 62, 0
1, 57712, Note_on_c, 2, 67, 0
1, 57712, Note_on_c, 1, 28, 0
1, 57714, Note_on_c, 0, 66, 0
1, 57716, Note_on_c, 1, 40, 0
1, 57719, Note_on_c, 0, 71, 0
1, 57720, Note_on_c, 0, 74, 0
1, 57721, Note_on_c, 0, 67, 0
1, 57742, Note_on_c, 2, 62, 100
1, 57743, Note_on_c, 10, 59, 0
1, 57743, Note_on_c, 2, 67, 101
1, 57743, Note_on_c, 0, 67, 69
1, 57743, Note_on_c, 0, 74, 76
1, 57743, Note_on_c, 0, 66, 78
1, 57743, Note_on_c, 0, 71, 78
1, 57743, Note_on_c, 1, 43, 100
1, 57743, Note_on_c, 1, 31, 114
1, 57744, Note_on_c, 9, 42, 44
1, 57744, Note_on_c, 9, 36, 91
1, 57744, Note_on_c, 2, 71, 103
1, 57745, Note_on_c, 9, 36, 0
1, 57745, Note_on_c, 9, 42, 0
1, 57745, Note_on_c, 10, 57, 86
1, 57746, Note_on_c, 3, 74, 0
1, 57752, Note_on_c, 0, 67, 0
1, 57752, Note_on_c, 2, 62, 0
1, 57752, Note_on_c, 0, 74, 0
1, 57753, Note_on_c, 2, 67, 0
1, 57754, Note_on_c, 0, 71, 0
1, 57755, Note_on_c, 0, 66, 0
1, 57756, Note_on_c, 2, 71, 0
1, 57761, Note_on_c, 1, 31, 0
1, 57761, Note_on_c, 1, 43, 0
1, 57763, Note_on_c, 10, 57, 0
1, 57791, Note_on_c, 0, 67, 82
1, 57791, Note_on_c, 9, 42, 95
1, 57791, Note_on_c, 2, 62, 101
1, 57791, Note_on_c, 0, 66, 87
1, 57791, Note_on_c, 0, 74, 83
1, 57791, Note_on_c, 0, 71, 81
1, 57792, Note_on_c, 9, 42, 0
1, 57792, Note_on_c, 1, 33, 112
1, 57792, Note_on_c, 1, 45, 117
1, 57792, Note_on_c, 9, 36, 110
1, 57793, Note_on_c, 9, 36, 0
1, 57793, Note_on_c, 10, 62, 98
1, 57795, Note_on_c, 2, 69, 69
1, 57813, Note_on_c, 4, 62, 0
1, 57838, Note_on_c, 2, 71, 16
1, 57839, Note_on_c, 9, 42, 39
1, 57840, Note_on_c, 9, 42, 0
1, 57841, Note_on_c, 6, 81, 114
1, 57849, Note_on_c, 6, 81, 0
1, 57860, Note_on_c, 2, 71, 0
1, 57861, Note_on_c, 2, 71, 83
1, 57863, Note_on_c, 6, 81, 87
1, 57869, Note_on_c, 0, 71, 0
1, 57869, Note_on_c, 0, 74, 0
1, 57870, Note_on_c, 0, 67, 0
1, 57870, Note_on_c, 0, 66, 0
1, 57872, Note_on_c, 1, 33, 0
1, 57873, Note_on_c, 6, 81, 0
1, 57875, Note_on_c, 2, 69, 0
1, 57878, Note_on_c, 1, 45, 0
1, 57881, Note_on_c, 10, 62, 0
1, 57882, Note_on_c, 2, 62, 0
1, 57885, Note_on_c, 2, 62, 99
1, 57886, Note_on_c, 2, 71, 0
1, 57886, Note_on_c, 6, 79, 111
1, 57886, Note_on_c, 2, 67, 100
1, 57887, Note_on_c, 9, 42, 110
1, 57887, Note_on_c, 2, 71, 103
1, 57887, Note_on_c, 10, 59, 87
1, 57888, Note_on_c, 9, 42, 0
1, 57888, Note_on_c, 9, 40, 110
1, 57888, Note_on_c, 9, 36, 110
1, 57888, Note_on_c, 0, 74, 81
1, 57888, Note_on_c, 0, 67, 79
1, 57888, Note_on_c, 10, 64, 102
1, 57888, Note_on_c, 9, 39, 110
1, 57888, Note_on_c, 1, 31, 100
1, 57888, Note_on_c, 1, 43, 112
1, 57888, Note_on_c, 0, 71, 81
1, 57888, Note_on_c, 9, 60, 77
1, 57889, Note_on_c, 9, 60, 0
1, 57889, Note_on_c, 9, 36, 0
1, 57889, Note_on_c, 9, 39, 0
1, 57889, Note_on_c, 9, 40, 0
1, 57889, Note_on_c, 0, 66, 87
1, 57917, Note_on_c, 2, 71, 0
1, 57920, Note_on_c, 2, 62, 0
1, 57922, Note_on_c, 2, 67, 0
1, 57932, Note_on_c, 10, 64, 0
1, 57935, Note_on_c, 6, 79, 0
1, 57936, Note_on_c, 10, 66, 111
1, 57937, Note_on_c, 10, 59, 0
1, 57937, Note_on_c, 6, 81, 104
1, 57937, Note_on_c, 10, 62, 106
1, 57937, Note_on_c, 9, 42, 42
1, 57938, Note_on_c, 9, 42, 0
1, 57948, Note_on_c, 0, 66, 0
1, 57951, Note_on_c, 6, 81, 0
1, 57954, Note_on_c, 0, 67, 0
1, 57955, Note_on_c, 0, 71, 0
1, 57956, Note_on_c, 0, 74, 0
1, 57957, Note_on_c, 10, 66, 0
1, 57958, Note_on_c, 10, 62, 0
1, 57959, Note_on_c, 2, 68, 26
1, 57960, Note_on_c, 2, 72, 19
1, 57965, Note_on_c, 1, 31, 0
1, 57967, Note_on_c, 1, 43, 0
1, 57983, Note_on_c, 2, 68, 0
1, 57983, Note_on_c, 2, 72, 0
1, 57983, Note_on_c, 2, 63, 93
1, 57984, Note_on_c, 2, 68, 98
1, 57984, Note_on_c, 9, 42, 96
1, 57984, Note_on_c, 9, 36, 110
1, 57985, Note_on_c, 9, 36, 0
1, 57985, Note_on_c, 9, 42, 0
1, 57985, Note_on_c, 2, 72, 97
1, 57985, Note_on_c, 1, 42, 99
1, 57985, Note_on_c, 0, 76, 83
1, 57985, Note_on_c, 1, 30, 97
1, 57985, Note_on_c, 0, 69, 75
1, 57985, Note_on_c, 0, 73, 71
1, 58011, Note_on_c, 2, 73, 35
1, 58012, Note_on_c, 2, 69, 84
1, 58013, Note_on_c, 2, 64, 88
1, 58014, Note_on_c, 2, 72, 0
1, 58016, Note_on_c, 2, 68, 0
1, 58019, Note_on_c, 2, 63, 0
1, 58029, Note_on_c, 2, 73, 0
1, 58031, Note_on_c, 9, 42, 37
1, 58032, Note_on_c, 9, 42, 0
1, 58033, Note_on_c, 2, 73, 80
1, 58053, Note_on_c, 2, 69, 0
1, 58054, Note_on_c, 2, 64, 0
1, 58055, Note_on_c, 2, 73, 0
1, 58056, Note_on_c, 2, 73, 101
1, 58058, Note_on_c, 2, 69, 98
1, 58059, Note_on_c, 2, 64, 94
1, 58075, Note_on_c, 2, 64, 0
1, 58077, Note_on_c, 2, 69, 0
1, 58079, Note_on_c, 2, 69, 94
1, 58079, Note_on_c, 9, 42, 110
1, 58080, Note_on_c, 9, 42, 0
1, 58080, Note_on_c, 2, 73, 0
1, 58080, Note_on_c, 9, 40, 95
1, 58080, Note_on_c, 9, 60, 77
1, 58080, Note_on_c, 9, 39, 110
1, 58081, Note_on_c, 9, 39, 0
1, 58081, Note_on_c, 9, 60, 0
1, 58081, Note_on_c, 9, 40, 0
1, 58084, Note_on_c, 2, 69, 0
1, 58085, Note_on_c, 0, 76, 0
1, 58088, Note_on_c, 0, 73, 0
1, 58088, Note_on_c, 0, 69, 0
1, 58092, Note_on_c, 1, 30, 0
1, 58095, Note_on_c, 1, 42, 0
1, 58126, Note_on_c, 2, 59, 51
1, 58127, Note_on_c, 0, 69, 78
1, 58127, Note_on_c, 0, 74, 82
1, 58127, Note_on_c, 0, 78, 73
1, 58127, Note_on_c, 2, 62, 100
1, 58128, Note_on_c, 1, 47, 110
1, 58128, Note_on_c, 10, 57, 97
1, 58128, Note_on_c, 9, 36, 91
1, 58128, Note_on_c, 1, 35, 98
1, 58128, Note_on_c, 9, 42, 44
1, 58129, Note_on_c, 9, 42, 0
1, 58129, Note_on_c, 9, 36, 0
1, 58129, Note_on_c, 2, 66, 101
1, 58130, Note_on_c, 2, 71, 103
1, 58150, Note_on_c, 10, 57, 0
1, 58151, Note_on_c, 2, 71, 0
1, 58175, Note_on_c, 9, 42, 95
1, 58176, Note_on_c, 9, 42, 0
1, 58176, Note_on_c, 2, 66, 0
1, 58176, Note_on_c, 9, 36, 110
1, 58177, Note_on_c, 9, 36, 0
1, 58177, Note_on_c, 2, 66, 99
1, 58180, Note_on_c, 2, 62, 0
1, 58182, Note_on_c, 2, 66, 0
1, 58191, Note_on_c, 2, 59, 0
1, 58201, Note_on_c, 2, 64, 97
1, 58202, Note_on_c, 0, 78, 0
1, 58202, Note_on_c, 0, 74, 0
1, 58203, Note_on_c, 2, 59, 87
1, 58212, Note_on_c, 2, 59, 0
1, 58214, Note_on_c, 0, 69, 0
1, 58214, Note_on_c, 2, 64, 0
1, 58216, Note_on_c, 1, 47, 0
1, 58221, Note_on_c, 6, 83, 127
1, 58222, Note_on_c, 1, 35, 0
1, 58223, Lyric_t, "we're "
1, 58223, Note_on_c, 1, 45, 97
1, 58223, Note_on_c, 1, 33, 100
1, 58223, Note_on_c, 4, 59, 24
1, 58223, Note_on_c, 9, 42, 39
1, 58223, Note_on_c, 2, 61, 86
1, 58223, Note_on_c, 3, 71, 67
1, 58224, Note_on_c, 9, 42, 0
1, 58224, Note_on_c, 10, 57, 92
1, 58224, Note_on_c, 2, 64, 103
1, 58225, Note_on_c, 0, 69, 66
1, 58225, Note_on_c, 0, 73, 75
1, 58225, Note_on_c, 0, 76, 68
1, 58236, Note_on_c, 0, 76, 0
1, 58237, Note_on_c, 0, 69, 0
1, 58239, Note_on_c, 1, 45, 0
1, 58240, Note_on_c, 0, 73, 0
1, 58240, Note_on_c, 1, 33, 0
1, 58245, Note_on_c, 10, 57, 0
1, 58254, Note_on_c, 6, 83, 0
1, 58262, Note_on_c, 2, 61, 0
1, 58269, Note_on_c, 2, 64, 0
1, 58270, Note_on_c, 3, 71, 0
1, 58271, Note_on_c, 4, 59, 0
1, 58271, Note_on_c, 3, 74, 93
1, 58271, Note_on_c, 9, 42, 110
1, 58271, Note_on_c, 1, 35, 97
1, 58271, Note_on_c, 4, 62, 50
1, 58271, Note_on_c, 10, 59, 106
1, 58271, Lyric_t, "gon"
1, 58272, Note_on_c, 9, 42, 0
1, 58272, Note_on_c, 6, 81, 122
1, 58272, Note_on_c, 1, 47, 120
1, 58272, Note_on_c, 9, 40, 110
1, 58272, Note_on_c, 9, 36, 110
1, 58272, Note_on_c, 9, 60, 77
1, 58272, Note_on_c, 2, 62, 100
1, 58272, Note_on_c, 9, 39, 110
1, 58273, Note_on_c, 9, 39, 0
1, 58273, Note_on_c, 9, 60, 0
1, 58273, Note_on_c, 9, 40, 0
1, 58273, Note_on_c, 9, 36, 0
1, 58273, Note_on_c, 0, 78, 71
1, 58273, Note_on_c, 0, 74, 91
1, 58273, Note_on_c, 0, 69, 84
1, 58274, Note_on_c, 2, 66, 98
1, 58287, Note_on_c, 6, 81, 0
1, 58296, Note_on_c, 6, 81, 114
1, 58297, Note_on_c, 2, 66, 0
1, 58297, Note_on_c, 2, 62, 0
1, 58304, Note_on_c, 6, 81, 0
1, 58316, Note_on_c, 6, 83, 125
1, 58318, Note_on_c, 10, 59, 0
1, 58319, Note_on_c, 4, 62, 0
1, 58319, Note_on_c, 3, 74, 0
1, 58319, Lyric_t, "na "
1, 58319, Note_on_c, 3, 76, 85
1, 58319, Note_on_c, 4, 64, 42
1, 58320, Note_on_c, 10, 62, 106
1, 58320, Note_on_c, 10, 59, 106
1, 58321, Note_on_c, 9, 42, 42
1, 58322, Note_on_c, 9, 42, 0
1, 58331, Note_on_c, 0, 78, 0
1, 58337, Note_on_c, 0, 74, 0
1, 58340, Note_on_c, 0, 69, 0
1, 58342, Note_on_c, 10, 62, 0
1, 58342, Note_on_c, 10, 59, 0
1, 58343, Note_on_c, 6, 83, 0
1, 58358, Note_on_c, 1, 47, 0
1, 58358, Note_on_c, 1, 35, 0
1, 58365, Note_on_c, 3, 76, 0
1, 58368, Note_on_c, 4, 64, 0
1, 58368, Note_on_c, 3, 78, 100
1, 58368, Note_on_c, 1, 28, 104
1, 58368, Note_on_c, 10, 57, 91
1, 58368, Note_on_c, 9, 42, 96
1, 58368, Lyric_t, "groove "
1, 58368, Note_on_c, 4, 66, 57
1, 58368, Note_on_c, 0, 66, 96
1, 58368, Note_on_c, 9, 36, 110
1, 58369, Note_on_c, 9, 36, 0
1, 58369, Note_on_c, 9, 42, 0
1, 58369, Note_on_c, 9, 43, 86
1, 58369, Note_on_c, 0, 74, 82
1, 58369, Note_on_c, 0, 71, 81
1, 58369, Note_on_c, 1, 40, 110
1, 58369, Note_on_c, 0, 67, 81
1, 58370, Note_on_c, 9, 43, 0
1, 58412, Pitch_bend_c, 4, 7840
1, 58412, Pitch_bend_c, 3, 7840
1, 58415, Note_on_c, 2, 62, 81
1, 58415, Pitch_bend_c, 3, 6787
1, 58415, Pitch_bend_c, 4, 6787
1, 58415, Note_on_c, 9, 42, 37
1, 58416, Note_on_c, 9, 42, 0
1, 58417, Note_on_c, 2, 67, 99
1, 58418, Pitch_bend_c, 4, 5617
1, 58418, Pitch_bend_c, 3, 5617
1, 58418, Note_on_c, 2, 74, 97
1, 58422, Pitch_bend_c, 4, 4564
1, 58422, Pitch_bend_c, 3, 4564
1, 58425, Pitch_bend_c, 4, 3277
1, 58425, Pitch_bend_c, 3, 3277
1, 58428, Pitch_bend_c, 4, 2224
1, 58428, Pitch_bend_c, 3, 2224
1, 58431, Pitch_bend_c, 4, 1288
1, 58431, Pitch_bend_c, 3, 1288
1, 58435, Pitch_bend_c, 3, 469
1, 58435, Pitch_bend_c, 4, 469
1, 58437, Pitch_bend_c, 4, 0
1, 58437, Pitch_bend_c, 3, 0
1, 58439, Note_on_c, 2, 74, 0
1, 58439, Note_on_c, 10, 57, 0
1, 58441, Note_on_c, 2, 67, 0
1, 58441, Note_on_c, 2, 74, 100
1, 58442, Note_on_c, 2, 62, 0
1, 58442, Note_on_c, 2, 67, 101
1, 58443, Note_on_c, 2, 62, 89
1, 58444, Pitch_bend_c, 4, 118
1, 58444, Pitch_bend_c, 3, 118
1, 58444, Note_on_c, 2, 59, 46
1, 58446, Pitch_bend_c, 3, 6319
1, 58446, Pitch_bend_c, 4, 6319
1, 58450, Note_on_c, 3, 78, 0
1, 58450, Pitch_bend_c, 4, 8192
1, 58450, Pitch_bend_c, 3, 8192
1, 58459, Note_on_c, 2, 62, 0
1, 58462, Note_on_c, 2, 67, 0
1, 58463, Note_on_c, 2, 74, 0
1, 58463, Note_on_c, 4, 66, 0
1, 58463, Note_on_c, 3, 74, 90
1, 58463, Note_on_c, 4, 62, 47
1, 58463, Lyric_t, "to"
1, 58463, Note_on_c, 9, 42, 110
1, 58463, Note_on_c, 2, 62, 101
1, 58463, Note_on_c, 10, 59, 98
1, 58464, Note_on_c, 9, 42, 0
1, 58464, Note_on_c, 9, 40, 95
1, 58464, Note_on_c, 9, 60, 77
1, 58464, Note_on_c, 9, 39, 110
1, 58465, Note_on_c, 9, 39, 0
1, 58465, Note_on_c, 9, 60, 0
1, 58465, Note_on_c, 9, 40, 0
1, 58465, Note_on_c, 2, 67, 98
1, 58466, Note_on_c, 2, 74, 95
1, 58474, Note_on_c, 2, 74, 0
1, 58475, Note_on_c, 2, 59, 0
1, 58475, Note_on_c, 2, 62, 0
1, 58479, Note_on_c, 2, 67, 0
1, 58480, Note_on_c, 1, 28, 0
1, 58482, Note_on_c, 0, 66, 0
1, 58484, Note_on_c, 1, 40, 0
1, 58487, Note_on_c, 0, 71, 0
1, 58488, Note_on_c, 0, 74, 0
1, 58489, Note_on_c, 0, 67, 0
1, 58511, Note_on_c, 3, 74, 0
1, 58511, Note_on_c, 10, 59, 0
1, 58511, Note_on_c, 0, 74, 76
1, 58511, Note_on_c, 1, 43, 100
1, 58511, Note_on_c, 2, 62, 81
1, 58511, Note_on_c, 0, 71, 78
1, 58511, Note_on_c, 0, 66, 78
1, 58511, Note_on_c, 1, 31, 114
1, 58511, Note_on_c, 0, 67, 69
1, 58512, Note_on_c, 9, 36, 91
1, 58512, Note_on_c, 9, 42, 44
1, 58513, Note_on_c, 9, 42, 0
1, 58513, Note_on_c, 9, 36, 0
1, 58513, Note_on_c, 4, 62, 0
1, 58513, Note_on_c, 4, 64, 35
1, 58513, Note_on_c, 10, 57, 86
1, 58513, Note_on_c, 3, 76, 78
1, 58513, Note_on_c, 2, 67, 99
1, 58513, Lyric_t, "night, "
1, 58514, Note_on_c, 2, 71, 105
1, 58520, Note_on_c, 0, 74, 0
1, 58520, Note_on_c, 0, 67, 0
1, 58522, Note_on_c, 0, 71, 0
1, 58523, Note_on_c, 2, 62, 0
1, 58523, Note_on_c, 0, 66, 0
1, 58527, Note_on_c, 2, 71, 0
1, 58529, Note_on_c, 2, 67, 0
1, 58529, Note_on_c, 1, 43, 0
1, 58529, Note_on_c, 1, 31, 0
1, 58531, Note_on_c, 10, 57, 0
1, 58557, Note_on_c, 3, 76, 0
1, 58559, Note_on_c, 0, 74, 83
1, 58559, Note_on_c, 0, 66, 87
1, 58559, Note_on_c, 0, 67, 82
1, 58559, Note_on_c, 0, 71, 81
1, 58559, Note_on_c, 9, 42, 95
1, 58560, Note_on_c, 9, 42, 0
1, 58560, Note_on_c, 4, 64, 0
1, 58560, Note_on_c, 3, 78, 55
1, 58560, Note_on_c, 1, 33, 112
1, 58560, Note_on_c, 9, 36, 110
1, 58560, Note_on_c, 4, 66, 12
1, 58560, Note_on_c, 1, 45, 117
1, 58561, Note_on_c, 9, 36, 0
1, 58561, Note_on_c, 10, 62, 98
1, 58561, Note_on_c, 2, 62, 100
1, 58562, Note_on_c, 2, 69, 93
1, 58564, Note_on_c, 2, 71, 101
1, 58607, Note_on_c, 9, 42, 39
1, 58608, Note_on_c, 9, 42, 0
1, 58609, Note_on_c, 6, 81, 120
1, 58617, Note_on_c, 6, 81, 0
1, 58631, Note_on_c, 6, 81, 104
1, 58637, Note_on_c, 0, 71, 0
1, 58637, Note_on_c, 0, 74, 0
1, 58638, Note_on_c, 0, 67, 0
1, 58638, Note_on_c, 0, 66, 0
1, 58640, Note_on_c, 1, 33, 0
1, 58641, Note_on_c, 2, 69, 0
1, 58641, Note_on_c, 6, 81, 0
1, 58646, Note_on_c, 1, 45, 0
1, 58649, Note_on_c, 10, 62, 0
1, 58652, Note_on_c, 2, 71, 0
1, 58654, Note_on_c, 2, 62, 0
1, 58654, Note_on_c, 6, 79, 111
1, 58655, Note_on_c, 3, 78, 0
1, 58655, Note_on_c, 9, 42, 110
1, 58655, Note_on_c, 2, 62, 99
1, 58656, Note_on_c, 9, 42, 0
1, 58656, Note_on_c, 2, 67, 101
1, 58656, Note_on_c, 2, 71, 105
1, 58656, Note_on_c, 0, 67, 79
1, 58656, Note_on_c, 0, 71, 81
1, 58656, Note_on_c, 1, 31, 100
1, 58656, Note_on_c, 1, 43, 112
1, 58656, Note_on_c, 10, 64, 113
1, 58656, Note_on_c, 9, 60, 77
1, 58656, Note_on_c, 9, 40, 110
1, 58656, Note_on_c, 9, 39, 110
1, 58656, Note_on_c, 0, 74, 81
1, 58656, Note_on_c, 9, 36, 110
1, 58657, Note_on_c, 9, 36, 0
1, 58657, Note_on_c, 9, 39, 0
1, 58657, Note_on_c, 9, 60, 0
1, 58657, Note_on_c, 9, 40, 0
1, 58657, Note_on_c, 0, 66, 87
1, 58689, Note_on_c, 2, 71, 0
1, 58689, Note_on_c, 2, 62, 0
1, 58696, Note_on_c, 2, 67, 0
1, 58700, Note_on_c, 10, 64, 0
1, 58703, Note_on_c, 6, 79, 0
1, 58705, Note_on_c, 9, 42, 42
1, 58705, Note_on_c, 6, 81, 104
1, 58705, Note_on_c, 10, 59, 97
1, 58706, Note_on_c, 9, 42, 0
1, 58707, Note_on_c, 4, 66, 0
1, 58707, Note_on_c, 3, 81, 115
1, 58707, Lyric_t, "hey, "
1, 58707, Note_on_c, 4, 69, 72
1, 58716, Note_on_c, 0, 66, 0
1, 58719, Note_on_c, 6, 81, 0
1, 58722, Note_on_c, 0, 67, 0
1, 58723, Note_on_c, 0, 71, 0
1, 58724, Note_on_c, 0, 74, 0
1, 58726, Note_on_c, 10, 59, 0
1, 58728, Note_on_c, 2, 68, 63
1, 58733, Note_on_c, 1, 31, 0
1, 58735, Note_on_c, 1, 43, 0
1, 58752, Note_on_c, 3, 81, 0
1, 58752, Note_on_c, 2, 68, 0
1, 58752, Note_on_c, 6, 76, 117
1, 58752, Note_on_c, 6, 81, 117
1, 58752, Note_on_c, 9, 42, 96
1, 58752, Note_on_c, 9, 36, 110
1, 58752, Note_on_c, 2, 63, 97
1, 58752, Note_on_c, 6, 85, 117
1, 58753, Note_on_c, 9, 36, 0
1, 58753, Note_on_c, 9, 42, 0
1, 58753, Note_on_c, 0, 73, 71
1, 58753, Note_on_c, 0, 69, 75
1, 58753, Note_on_c, 0, 76, 83
1, 58753, Note_on_c, 2, 68, 93
1, 58753, Note_on_c, 1, 42, 99
1, 58753, Note_on_c, 1, 30, 97
1, 58754, Note_on_c, 2, 72, 96
1, 58759, Note_on_c, 4, 69, 0
1, 58759, Note_on_c, 4, 66, 45
1, 58759, Note_on_c, 3, 78, 88
1, 58786, Note_on_c, 2, 72, 0
1, 58790, Note_on_c, 2, 68, 0
1, 58794, Note_on_c, 2, 63, 0
1, 58795, Note_on_c, 2, 69, 77
1, 58797, Note_on_c, 2, 64, 81
1, 58799, Note_on_c, 9, 42, 37
1, 58800, Note_on_c, 9, 42, 0
1, 58803, Note_on_c, 2, 73, 90
1, 58812, Note_on_c, 3, 78, 0
1, 58823, Note_on_c, 2, 73, 0
1, 58825, Note_on_c, 2, 69, 0
1, 58825, Note_on_c, 2, 73, 101
1, 58826, Note_on_c, 2, 69, 97
1, 58833, Note_on_c, 2, 64, 0
1, 58845, Note_on_c, 2, 69, 0
1, 58847, Note_on_c, 9, 42, 110
1, 58848, Note_on_c, 9, 42, 0
1, 58848, Note_on_c, 9, 39, 110
1, 58848, Note_on_c, 9, 60, 77
1, 58848, Note_on_c, 9, 40, 95
1, 58849, Note_on_c, 9, 40, 0
1, 58849, Note_on_c, 2, 73, 0
1, 58849, Note_on_c, 9, 60, 0
1, 58849, Note_on_c, 9, 39, 0
1, 58849, Note_on_c, 2, 64, 98
1, 58850, Note_on_c, 2, 69, 97
1, 58853, Note_on_c, 0, 76, 0
1, 58854, Note_on_c, 2, 69, 0
1, 58856, Note_on_c, 0, 69, 0
1, 58856, Note_on_c, 0, 73, 0
1, 58856, Note_on_c, 2, 64, 0
1, 58860, Note_on_c, 1, 30, 0
1, 58863, Note_on_c, 1, 42, 0
1, 58895, Note_on_c, 6, 81, 0
1, 58895, Note_on_c, 6, 85, 0
1, 58895, Note_on_c, 6, 76, 0
1, 58895, Note_on_c, 0, 78, 73
1, 58895, Note_on_c, 0, 69, 78
1, 58895, Note_on_c, 0, 74, 82
1, 58895, Note_on_c, 6, 83, 108
1, 58896, Note_on_c, 2, 62, 101
1, 58896, Note_on_c, 1, 47, 110
1, 58896, Note_on_c, 9, 36, 91
1, 58896, Note_on_c, 6, 74, 100
1, 58896, Note_on_c, 6, 78, 99
1, 58896, Note_on_c, 9, 42, 44
1, 58896, Note_on_c, 1, 35, 98
1, 58897, Note_on_c, 9, 42, 0
1, 58897, Note_on_c, 9, 36, 0
1, 58898, Note_on_c, 2, 66, 102
1, 58898, Note_on_c, 2, 71, 103
1, 58903, Note_on_c, 4, 66, 0
1, 58903, Note_on_c, 3, 81, 107
1, 58903, Note_on_c, 4, 69, 64
1, 58903, Lyric_t, "hey. "
1, 58903, Lyric_t, ""
1, 58903, Lyric_t, "\015"
1, 58914, Note_on_c, 6, 74, 0
1, 58914, Note_on_c, 6, 78, 0
1, 58918, Note_on_c, 6, 83, 0
1, 58943, Note_on_c, 9, 42, 95
1, 58944, Note_on_c, 9, 42, 0
1, 58944, Note_on_c, 9, 36, 110
1, 58945, Note_on_c, 9, 36, 0
1, 58968, Note_on_c, 2, 71, 0
1, 58970, Note_on_c, 0, 78, 0
1, 58970, Note_on_c, 0, 74, 0
1, 58970, Note_on_c, 2, 66, 0
1, 58970, Note_on_c, 2, 71, 103
1, 58971, Note_on_c, 2, 66, 98
1, 58972, Note_on_c, 2, 62, 0
1, 58973, Note_on_c, 2, 62, 73
1, 58982, Note_on_c, 0, 69, 0
1, 58983, Note_on_c, 2, 62, 0
1, 58984, Note_on_c, 1, 47, 0
1, 58989, Note_on_c, 2, 66, 0
1, 58990, Note_on_c, 1, 35, 0
1, 58991, Note_on_c, 4, 69, 0
1, 58991, Note_on_c, 9, 42, 35
1, 58991, Note_on_c, 2, 62, 97
1, 58991, Note_on_c, 1, 33, 100
1, 58991, Note_on_c, 1, 45, 97
1, 58992, Note_on_c, 9, 42, 0
1, 58992, Note_on_c, 2, 71, 0
1, 58992, Note_on_c, 4, 62, 37
1, 58992, Note_on_c, 4, 69, 37
1, 58992, Note_on_c, 4, 66, 37
1, 58992, Note_on_c, 6, 78, 77
1, 58993, Note_on_c, 3, 81, 0
1, 58993, Note_on_c, 0, 73, 75
1, 58993, Note_on_c, 2, 66, 97
1, 58993, Lyric_t, "You "
1, 58993, Note_on_c, 3, 74, 80
1, 58993, Note_on_c, 0, 76, 68
1, 58993, Note_on_c, 0, 69, 66
1, 59004, Note_on_c, 0, 76, 0
1, 59005, Note_on_c, 0, 69, 0
1, 59007, Note_on_c, 1, 45, 0
1, 59008, Note_on_c, 1, 33, 0
1, 59008, Note_on_c, 0, 73, 0
1, 59015, Note_on_c, 6, 78, 0
1, 59039, Note_on_c, 2, 66, 0
1, 59039, Note_on_c, 2, 62, 0
1, 59039, Note_on_c, 2, 59, 72
1, 59039, Note_on_c, 9, 42, 98
1, 59039, Note_on_c, 1, 35, 97
1, 59040, Note_on_c, 9, 42, 0
1, 59040, Note_on_c, 4, 62, 0
1, 59040, Note_on_c, 4, 69, 0
1, 59040, Note_on_c, 4, 66, 0
1, 59040, Note_on_c, 4, 71, 37
1, 59040, Note_on_c, 4, 64, 37
1, 59040, Note_on_c, 9, 36, 110
1, 59040, Note_on_c, 9, 39, 110
1, 59040, Note_on_c, 4, 67, 37
1, 59040, Note_on_c, 2, 62, 103
1, 59040, Note_on_c, 2, 66, 101
1, 59040, Note_on_c, 9, 60, 77
1, 59040, Note_on_c, 9, 40, 110
1, 59040, Note_on_c, 6, 81, 110
1, 59040, Note_on_c, 1, 47, 120
1, 59041, Note_on_c, 9, 40, 0
1, 59041, Note_on_c, 9, 39, 0
1, 59041, Note_on_c, 9, 60, 0
1, 59041, Note_on_c, 9, 36, 0
1, 59041, Note_on_c, 3, 74, 0
1, 59041, Lyric_t, "just "
1, 59041, Note_on_c, 0, 69, 84
1, 59041, Note_on_c, 0, 78, 71
1, 59041, Note_on_c, 0, 74, 91
1, 59041, Note_on_c, 3, 76, 80
1, 59042, Note_on_c, 2, 71, 103
1, 59064, Note_on_c, 2, 59, 0
1, 59065, Note_on_c, 2, 62, 0
1, 59065, Note_on_c, 2, 71, 0
1, 59070, Note_on_c, 2, 66, 0
1, 59087, Note_on_c, 6, 81, 0
1, 59088, Note_on_c, 6, 83, 112
1, 59089, Note_on_c, 9, 42, 42
1, 59089, Note_on_c, 2, 66, 100
1, 59090, Note_on_c, 9, 42, 0
1, 59090, Note_on_c, 2, 71, 76
1, 59099, Note_on_c, 0, 78, 0
1, 59103, Note_on_c, 2, 71, 0
1, 59105, Note_on_c, 0, 74, 0
1, 59106, Note_on_c, 6, 83, 0
1, 59108, Note_on_c, 0, 69, 0
1, 59112, Note_on_c, 2, 66, 0
1, 59126, Note_on_c, 1, 35, 0
1, 59126, Note_on_c, 1, 47, 0
1, 59135, Note_on_c, 3, 76, 0
1, 59136, Note_on_c, 4, 67, 0
1, 59136, Note_on_c, 4, 71, 0
1, 59136, Note_on_c, 4, 64, 0
1, 59136, Note_on_c, 4, 69, 37
1, 59136, Note_on_c, 0, 66, 96
1, 59136, Note_on_c, 1, 28, 104
1, 59136, Note_on_c, 9, 42, 96
1, 59136, Note_on_c, 6, 83, 127
1, 59136, Note_on_c, 4, 74, 37
1, 59136, Note_on_c, 10, 67, 85
1, 59136, Note_on_c, 4, 66, 37
1, 59136, Note_on_c, 10, 71, 127
1, 59136, Note_on_c, 9, 43, 89
1, 59136, Note_on_c, 9, 36, 110
1, 59137, Note_on_c, 9, 36, 0
1, 59137, Note_on_c, 9, 43, 0
1, 59137, Note_on_c, 9, 42, 0
1, 59137, Note_on_c, 3, 78, 80
1, 59137, Note_on_c, 0, 67, 81
1, 59137, Note_on_c, 1, 40, 110
1, 59137, Note_on_c, 0, 74, 82
1, 59137, Lyric_t, ""
1, 59137, Lyric_t, "\015"
1, 59137, Lyric_t, "move. "
1, 59137, Note_on_c, 0, 71, 81
1, 59141, Note_on_c, 6, 88, 125
1, 59169, Lyric_t, ""
1, 59169, Lyric_t, "\015"
1, 59183, Note_on_c, 10, 71, 0
1, 59183, Note_on_c, 10, 67, 0
1, 59183, Note_on_c, 2, 62, 81
1, 59183, Note_on_c, 9, 42, 37
1, 59184, Note_on_c, 9, 42, 0
1, 59185, Note_on_c, 2, 67, 99
1, 59187, Note_on_c, 2, 74, 99
1, 59189, Note_on_c, 6, 83, 0
1, 59197, Note_on_c, 6, 88, 0
1, 59199, Note_on_c, 2, 74, 0
1, 59206, Note_on_c, 2, 74, 96
1, 59225, Note_on_c, 2, 67, 0
1, 59229, Note_on_c, 2, 74, 0
1, 59230, Note_on_c, 2, 74, 97
1, 59230, Note_on_c, 2, 67, 99
1, 59231, Note_on_c, 3, 78, 0
1, 59231, Note_on_c, 4, 74, 0
1, 59231, Note_on_c, 9, 42, 110
1, 59232, Note_on_c, 9, 42, 0
1, 59232, Note_on_c, 4, 69, 0
1, 59232, Note_on_c, 4, 66, 0
1, 59232, Note_on_c, 4, 74, 47
1, 59232, Note_on_c, 9, 39, 110
1, 59232, Note_on_c, 9, 60, 77
1, 59232, Note_on_c, 9, 40, 95
1, 59233, Note_on_c, 9, 40, 0
1, 59233, Note_on_c, 9, 60, 0
1, 59233, Note_on_c, 9, 39, 0
1, 59233, Note_on_c, 3, 74, 105
1, 59233, Lyric_t, "Let "
1, 59237, Note_on_c, 2, 74, 0
1, 59239, Note_on_c, 2, 62, 0
1, 59246, Note_on_c, 2, 67, 0
1, 59248, Note_on_c, 1, 28, 0
1, 59250, Note_on_c, 0, 66, 0
1, 59252, Note_on_c, 1, 40, 0
1, 59255, Note_on_c, 0, 71, 0
1, 59256, Note_on_c, 0, 74, 0
1, 59257, Note_on_c, 0, 67, 0
1, 59278, Note_on_c, 3, 74, 0
1, 59279, Note_on_c, 4, 74, 0
1, 59279, Note_on_c, 1, 31, 114
1, 59279, Note_on_c, 0, 71, 78
1, 59279, Note_on_c, 0, 74, 76
1, 59279, Note_on_c, 2, 62, 90
1, 59279, Note_on_c, 2, 67, 101
1, 59279, Note_on_c, 0, 66, 78
1, 59279, Note_on_c, 1, 43, 100
1, 59279, Note_on_c, 0, 67, 69
1, 59279, Lyric_t, "this "
1, 59279, Note_on_c, 3, 74, 97
1, 59280, Note_on_c, 2, 71, 102
1, 59280, Note_on_c, 9, 36, 91
1, 59280, Note_on_c, 4, 74, 47
1, 59280, Note_on_c, 9, 42, 44
1, 59281, Note_on_c, 9, 42, 0
1, 59281, Note_on_c, 9, 36, 0
1, 59288, Note_on_c, 0, 67, 0
1, 59288, Note_on_c, 0, 74, 0
1, 59290, Note_on_c, 0, 71, 0
1, 59291, Note_on_c, 0, 66, 0
1, 59294, Note_on_c, 2, 62, 0
1, 59295, Note_on_c, 2, 71, 0
1, 59295, Note_on_c, 2, 67, 0
1, 59297, Note_on_c, 1, 31, 0
1, 59297, Note_on_c, 1, 43, 0
1, 59327, Note_on_c, 3, 74, 0
1, 59327, Note_on_c, 0, 67, 82
1, 59327, Note_on_c, 0, 71, 81
1, 59327, Lyric_t, "groove "
1, 59327, Note_on_c, 3, 71, 85
1, 59327, Note_on_c, 0, 74, 83
1, 59327, Note_on_c, 0, 66, 87
1, 59327, Note_on_c, 9, 42, 95
1, 59328, Note_on_c, 9, 42, 0
1, 59328, Note_on_c, 4, 74, 0
1, 59328, Note_on_c, 1, 33, 112
1, 59328, Note_on_c, 9, 36, 110
1, 59328, Note_on_c, 1, 45, 117
1, 59328, Note_on_c, 4, 71, 36
1, 59329, Note_on_c, 9, 36, 0
1, 59329, Note_on_c, 2, 62, 101
1, 59330, Note_on_c, 2, 69, 96
1, 59331, Note_on_c, 2, 71, 91
1, 59375, Note_on_c, 9, 42, 39
1, 59376, Note_on_c, 9, 42, 0
1, 59376, Note_on_c, 10, 67, 102
1, 59377, Note_on_c, 6, 79, 127
1, 59379, Note_on_c, 2, 71, 0
1, 59405, Note_on_c, 0, 74, 0
1, 59405, Note_on_c, 0, 71, 0
1, 59406, Note_on_c, 0, 66, 0
1, 59406, Note_on_c, 0, 67, 0
1, 59407, Note_on_c, 2, 69, 0
1, 59408, Note_on_c, 1, 33, 0
1, 59411, Note_on_c, 6, 79, 0
1, 59412, Note_on_c, 10, 67, 0
1, 59414, Note_on_c, 1, 45, 0
1, 59419, Note_on_c, 3, 71, 0
1, 59420, Note_on_c, 2, 62, 0
1, 59423, Note_on_c, 9, 42, 110
1, 59423, Note_on_c, 2, 67, 99
1, 59423, Note_on_c, 2, 62, 91
1, 59424, Note_on_c, 9, 42, 0
1, 59424, Note_on_c, 0, 74, 81
1, 59424, Note_on_c, 9, 60, 77
1, 59424, Note_on_c, 2, 71, 98
1, 59424, Note_on_c, 0, 67, 79
1, 59424, Note_on_c, 1, 43, 112
1, 59424, Note_on_c, 0, 71, 81
1, 59424, Note_on_c, 9, 40, 110
1, 59424, Note_on_c, 1, 31, 100
1, 59424, Note_on_c, 9, 39, 110
1, 59424, Note_on_c, 9, 36, 110
1, 59425, Note_on_c, 9, 36, 0
1, 59425, Note_on_c, 9, 60, 0
1, 59425, Note_on_c, 9, 39, 0
1, 59425, Note_on_c, 9, 40, 0
1, 59425, Note_on_c, 0, 66, 87
1, 59457, Note_on_c, 2, 67, 0
1, 59470, Note_on_c, 2, 62, 0
1, 59472, Note_on_c, 4, 71, 0
1, 59472, Note_on_c, 10, 69, 104
1, 59473, Note_on_c, 2, 71, 0
1, 59473, Note_on_c, 9, 42, 42
1, 59473, Note_on_c, 6, 81, 117
1, 59474, Note_on_c, 9, 42, 0
1, 59484, Note_on_c, 0, 66, 0
1, 59490, Note_on_c, 0, 67, 0
1, 59491, Note_on_c, 0, 71, 0
1, 59492, Note_on_c, 0, 74, 0
1, 59501, Note_on_c, 1, 31, 0
1, 59503, Note_on_c, 1, 43, 0
1, 59509, Note_on_c, 10, 69, 0
1, 59512, Control_c, 10, 11, 64
1, 59514, Note_on_c, 6, 81, 0
1, 59520, Note_on_c, 10, 69, 108
1, 59520, Control_c, 10, 11, 65
1, 59520, Note_on_c, 9, 36, 110
1, 59520, Note_on_c, 3, 66, 82
1, 59520, Lyric_t, "light "
1, 59520, Note_on_c, 4, 66, 27
1, 59520, Note_on_c, 9, 42, 96
1, 59520, Note_on_c, 6, 81, 126
1, 59521, Note_on_c, 9, 42, 0
1, 59521, Note_on_c, 9, 36, 0
1, 59521, Note_on_c, 0, 73, 71
1, 59521, Note_on_c, 1, 30, 97
1, 59521, Note_on_c, 0, 76, 83
1, 59521, Note_on_c, 1, 42, 99
1, 59521, Note_on_c, 0, 69, 75
1, 59522, Note_on_c, 2, 64, 97
1, 59522, Note_on_c, 2, 69, 97
1, 59523, Note_on_c, 2, 73, 40
1, 59528, Control_c, 10, 11, 66
1, 59532, Control_c, 10, 11, 67
1, 59540, Control_c, 10, 11, 68
1, 59544, Control_c, 10, 11, 69
1, 59552, Control_c, 10, 11, 70
1, 59556, Control_c, 10, 11, 71
1, 59564, Control_c, 10, 11, 72
1, 59567, Note_on_c, 3, 66, 0
1, 59567, Note_on_c, 9, 42, 37
1, 59567, Lyric_t, "up "
1, 59567, Note_on_c, 3, 69, 76
1, 59568, Note_on_c, 9, 42, 0
1, 59568, Note_on_c, 4, 66, 0
1, 59568, Control_c, 10, 11, 73
1, 59568, Note_on_c, 4, 69, 22
1, 59576, Control_c, 10, 11, 74
1, 59580, Control_c, 10, 11, 75
1, 59588, Control_c, 10, 11, 76
1, 59593, Note_on_c, 2, 64, 0
1, 59594, Note_on_c, 2, 73, 0
1, 59595, Note_on_c, 2, 69, 0
1, 59595, Note_on_c, 2, 73, 103
1, 59596, Note_on_c, 2, 69, 97
1, 59596, Control_c, 10, 11, 77
1, 59597, Note_on_c, 2, 64, 74
1, 59600, Control_c, 10, 11, 78
1, 59608, Control_c, 10, 11, 79
1, 59610, Note_on_c, 2, 64, 0
1, 59612, Control_c, 10, 11, 80
1, 59615, Note_on_c, 3, 69, 0
1, 59615, Note_on_c, 3, 73, 80
1, 59615, Lyric_t, "your "
1, 59615, Note_on_c, 9, 42, 110
1, 59616, Note_on_c, 9, 42, 0
1, 59616, Note_on_c, 4, 69, 0
1, 59616, Note_on_c, 9, 60, 77
1, 59616, Note_on_c, 9, 40, 95
1, 59616, Note_on_c, 4, 73, 34
1, 59616, Note_on_c, 9, 39, 110
1, 59617, Note_on_c, 9, 39, 0
1, 59617, Note_on_c, 2, 73, 0
1, 59617, Note_on_c, 9, 40, 0
1, 59617, Note_on_c, 9, 60, 0
1, 59620, Control_c, 10, 11, 81
1, 59621, Note_on_c, 2, 69, 0
1, 59621, Note_on_c, 0, 76, 0
1, 59624, Note_on_c, 0, 69, 0
1, 59624, Note_on_c, 0, 73, 0
1, 59624, Control_c, 10, 11, 82
1, 59628, Note_on_c, 1, 30, 0
1, 59631, Note_on_c, 1, 42, 0
1, 59632, Control_c, 10, 11, 83
1, 59636, Control_c, 10, 11, 84
1, 59644, Control_c, 10, 11, 85
1, 59648, Control_c, 10, 11, 86
1, 59656, Control_c, 10, 11, 87
1, 59660, Control_c, 10, 11, 88
1, 59662, Note_on_c, 3, 73, 0
1, 59663, Note_on_c, 3, 71, 91
1, 59663, Note_on_c, 0, 78, 73
1, 59663, Note_on_c, 0, 74, 82
1, 59663, Note_on_c, 0, 69, 78
1, 59663, Note_on_c, 2, 59, 30
1, 59663, Lyric_t, ""
1, 59663, Lyric_t, "\015"
1, 59663, Lyric_t, "fuse, "
1, 59664, Note_on_c, 4, 73, 0
1, 59664, Note_on_c, 1, 35, 98
1, 59664, Note_on_c, 1, 47, 110
1, 59664, Note_on_c, 9, 36, 91
1, 59664, Note_on_c, 4, 71, 26
1, 59664, Note_on_c, 9, 42, 44
1, 59664, Note_on_c, 2, 62, 99
1, 59665, Note_on_c, 9, 42, 0
1, 59665, Note_on_c, 9, 36, 0
1, 59666, Note_on_c, 2, 66, 103
1, 59666, Note_on_c, 2, 71, 103
1, 59668, Control_c, 10, 11, 89
1, 59676, Control_c, 10, 11, 90
1, 59680, Control_c, 10, 11, 91
1, 59688, Control_c, 10, 11, 92
1, 59692, Control_c, 10, 11, 93
1, 59700, Control_c, 10, 11, 94
1, 59704, Control_c, 10, 11, 95
1, 59710, Note_on_c, 2, 71, 0
1, 59711, Note_on_c, 9, 42, 95
1, 59712, Note_on_c, 9, 42, 0
1, 59712, Control_c, 10, 11, 96
1, 59712, Note_on_c, 9, 36, 110
1, 59713, Note_on_c, 9, 36, 0
1, 59716, Control_c, 10, 11, 97
1, 59717, Note_on_c, 2, 66, 0
1, 59720, Note_on_c, 2, 62, 0
1, 59724, Note_on_c, 2, 59, 0
1, 59724, Control_c, 10, 11, 98
1, 59728, Control_c, 10, 11, 99
1, 59736, Control_c, 10, 11, 100
1, 59738, Note_on_c, 0, 78, 0
1, 59738, Note_on_c, 0, 74, 0
1, 59738, Note_on_c, 2, 64, 76
1, 59740, Control_c, 10, 11, 101
1, 59746, Note_on_c, 2, 64, 0
1, 59748, Control_c, 10, 11, 102
1, 59750, Note_on_c, 0, 69, 0
1, 59752, Note_on_c, 1, 47, 0
1, 59756, Control_c, 10, 11, 103
1, 59758, Note_on_c, 1, 35, 0
1, 59758, Note_on_c, 3, 71, 0
1, 59759, Note_on_c, 9, 42, 39
1, 59759, Note_on_c, 1, 33, 100
1, 59759, Note_on_c, 3, 69, 72
1, 59759, Lyric_t, "it's "
1, 59759, Note_on_c, 1, 45, 97
1, 59760, Note_on_c, 9, 42, 0
1, 59760, Note_on_c, 4, 71, 0
1, 59760, Control_c, 10, 11, 104
1, 59760, Note_on_c, 2, 61, 87
1, 59760, Note_on_c, 4, 69, 12
1, 59761, Note_on_c, 0, 69, 66
1, 59761, Note_on_c, 0, 73, 75
1, 59761, Note_on_c, 0, 76, 68
1, 59762, Note_on_c, 2, 64, 96
1, 59768, Control_c, 10, 11, 105
1, 59772, Note_on_c, 0, 76, 0
1, 59772, Control_c, 10, 11, 106
1, 59773, Note_on_c, 0, 69, 0
1, 59775, Note_on_c, 1, 45, 0
1, 59776, Note_on_c, 0, 73, 0
1, 59776, Note_on_c, 1, 33, 0
1, 59780, Control_c, 10, 11, 107
1, 59784, Control_c, 10, 11, 108
1, 59792, Control_c, 10, 11, 109
1, 59796, Control_c, 10, 11, 110
1, 59804, Note_on_c, 2, 64, 0
1, 59804, Control_c, 10, 11, 111
1, 59806, Note_on_c, 3, 69, 0
1, 59806, Note_on_c, 2, 61, 0
1, 59807, Note_on_c, 9, 42, 110
1, 59807, Lyric_t, "all "
1, 59807, Note_on_c, 1, 35, 97
1, 59807, Note_on_c, 3, 74, 101
1, 59808, Note_on_c, 9, 42, 0
1, 59808, Note_on_c, 4, 69, 0
1, 59808, Note_on_c, 9, 40, 110
1, 59808, Control_c, 10, 11, 112
1, 59808, Note_on_c, 4, 74, 35
1, 59808, Note_on_c, 1, 47, 120
1, 59808, Note_on_c, 9, 60, 77
1, 59808, Note_on_c, 9, 36, 110
1, 59808, Note_on_c, 9, 39, 110
1, 59809, Note_on_c, 9, 39, 0
1, 59809, Note_on_c, 9, 36, 0
1, 59809, Note_on_c, 9, 40, 0
1, 59809, Note_on_c, 9, 60, 0
1, 59809, Note_on_c, 2, 62, 100
1, 59809, Note_on_c, 0, 78, 71
1, 59809, Note_on_c, 0, 69, 84
1, 59809, Note_on_c, 0, 74, 91
1, 59810, Note_on_c, 2, 66, 102
1, 59816, Control_c, 10, 11, 113
1, 59820, Control_c, 10, 11, 114
1, 59828, Control_c, 10, 11, 115
1, 59830, Note_on_c, 2, 66, 0
1, 59832, Note_on_c, 2, 62, 0
1, 59836, Control_c, 10, 11, 116
1, 59840, Control_c, 10, 11, 117
1, 59848, Control_c, 10, 11, 118
1, 59852, Control_c, 10, 11, 119
1, 59857, Note_on_c, 9, 42, 42
1, 59858, Note_on_c, 9, 42, 0
1, 59860, Control_c, 10, 11, 120
1, 59864, Control_c, 10, 11, 121
1, 59867, Note_on_c, 0, 78, 0
1, 59872, Control_c, 10, 11, 122
1, 59873, Note_on_c, 0, 74, 0
1, 59876, Note_on_c, 0, 69, 0
1, 59876, Control_c, 10, 11, 123
1, 59884, Control_c, 10, 11, 124
1, 59888, Control_c, 10, 11, 125
1, 59892, Note_on_c, 6, 81, 0
1, 59894, Note_on_c, 1, 35, 0
1, 59894, Note_on_c, 10, 69, 0
1, 59894, Note_on_c, 1, 47, 0
1, 59896, Control_c, 10, 11, 126
1, 59898, Note_on_c, 3, 74, 0
1, 59900, Control_c, 10, 11, 127
1, 59904, Note_on_c, 4, 74, 0
1, 59904, Lyric_t, "right, "
1, 59904, Note_on_c, 4, 71, 1
1, 59904, Note_on_c, 3, 71, 73
1, 59904, Note_on_c, 9, 36, 110
1, 59904, Note_on_c, 1, 28, 104
1, 59904, Note_on_c, 0, 66, 96
1, 59904, Note_on_c, 9, 42, 96
1, 59905, Note_on_c, 9, 42, 0
1, 59905, Note_on_c, 9, 36, 0
1, 59905, Note_on_c, 0, 67, 81
1, 59905, Note_on_c, 1, 40, 110
1, 59905, Note_on_c, 0, 74, 82
1, 59905, Note_on_c, 9, 43, 86
1, 59905, Note_on_c, 0, 71, 81
1, 59906, Note_on_c, 9, 43, 0
1, 59951, Note_on_c, 9, 42, 37
1, 59952, Note_on_c, 9, 42, 0
1, 59954, Note_on_c, 2, 59, 21
1, 59955, Note_on_c, 2, 62, 97
1, 59956, Note_on_c, 3, 71, 0
1, 59956, Note_on_c, 2, 67, 100
1, 59957, Note_on_c, 2, 74, 97
1, 59975, Note_on_c, 2, 74, 0
1, 59977, Note_on_c, 2, 67, 0
1, 59978, Note_on_c, 2, 74, 98
1, 59980, Note_on_c, 2, 67, 99
1, 59997, Note_on_c, 2, 67, 0
1, 59998, Note_on_c, 2, 74, 0
1, 59999, Note_on_c, 9, 42, 110
1, 60000, Note_on_c, 9, 42, 0
1, 60000, Note_on_c, 2, 67, 101
1, 60000, Note_on_c, 9, 39, 110
1, 60000, Note_on_c, 9, 40, 95
1, 60000, Note_on_c, 9, 60, 77
1, 60001, Note_on_c, 9, 60, 0
1, 60001, Note_on_c, 9, 40, 0
1, 60001, Note_on_c, 9, 39, 0
1, 60001, Note_on_c, 2, 74, 99
1, 60006, Note_on_c, 2, 62, 0
1, 60007, Note_on_c, 2, 74, 0
1, 60012, Note_on_c, 2, 59, 0
1, 60016, Note_on_c, 1, 28, 0
1, 60016, Note_on_c, 2, 67, 0
1, 60018, Note_on_c, 0, 66, 0
1, 60020, Note_on_c, 1, 40, 0
1, 60023, Note_on_c, 0, 71, 0
1, 60024, Note_on_c, 0, 74, 0
1, 60025, Note_on_c, 0, 67, 0
1, 60047, Note_on_c, 0, 66, 78
1, 60047, Note_on_c, 0, 71, 78
1, 60047, Note_on_c, 1, 31, 114
1, 60047, Note_on_c, 0, 74, 76
1, 60047, Note_on_c, 1, 43, 100
1, 60047, Note_on_c, 0, 67, 69
1, 60048, Note_on_c, 9, 42, 44
1, 60048, Note_on_c, 9, 36, 91
1, 60049, Note_on_c, 9, 36, 0
1, 60049, Note_on_c, 9, 42, 0
1, 60049, Note_on_c, 2, 62, 94
1, 60050, Note_on_c, 2, 67, 101
1, 60051, Note_on_c, 2, 71, 101
1, 60054, Note_on_c, 4, 71, 0
1, 60056, Note_on_c, 0, 74, 0
1, 60056, Note_on_c, 0, 67, 0
1, 60058, Note_on_c, 0, 71, 0
1, 60059, Note_on_c, 0, 66, 0
1, 60063, Note_on_c, 2, 62, 0
1, 60064, Note_on_c, 2, 71, 0
1, 60065, Note_on_c, 2, 67, 0
1, 60065, Note_on_c, 1, 31, 0
1, 60065, Note_on_c, 1, 43, 0
1, 60095, Note_on_c, 2, 59, 33
1, 60095, Note_on_c, 9, 42, 95
1, 60095, Note_on_c, 1, 33, 112
1, 60095, Note_on_c, 0, 71, 81
1, 60095, Note_on_c, 0, 66, 87
1, 60095, Note_on_c, 1, 45, 117
1, 60095, Note_on_c, 0, 67, 82
1, 60095, Note_on_c, 6, 83, 117
1, 60095, Note_on_c, 0, 74, 83
1, 60096, Note_on_c, 9, 42, 0
1, 60096, Note_on_c, 9, 36, 110
1, 60097, Note_on_c, 9, 36, 0
1, 60097, Note_on_c, 2, 62, 101
1, 60098, Note_on_c, 2, 69, 97
1, 60099, Note_on_c, 2, 71, 100
1, 60142, Note_on_c, 6, 83, 0
1, 60143, Note_on_c, 9, 42, 39
1, 60144, Note_on_c, 9, 42, 0
1, 60145, Note_on_c, 6, 81, 97
1, 60154, Note_on_c, 2, 71, 0
1, 60161, Note_on_c, 6, 81, 0
1, 60164, Note_on_c, 2, 69, 0
1, 60169, Note_on_c, 2, 69, 82
1, 60173, Note_on_c, 0, 71, 0
1, 60173, Note_on_c, 0, 74, 0
1, 60174, Note_on_c, 0, 66, 0
1, 60174, Note_on_c, 0, 67, 0
1, 60175, Note_on_c, 1, 33, 0
1, 60180, Note_on_c, 2, 69, 0
1, 60181, Note_on_c, 1, 45, 0
1, 60190, Note_on_c, 2, 62, 0
1, 60191, Note_on_c, 1, 43, 112
1, 60191, Note_on_c, 2, 62, 96
1, 60191, Note_on_c, 9, 42, 110
1, 60191, Note_on_c, 1, 31, 100
1, 60192, Note_on_c, 9, 42, 0
1, 60192, Note_on_c, 0, 67, 79
1, 60192, Note_on_c, 9, 40, 110
1, 60192, Note_on_c, 2, 67, 99
1, 60192, Note_on_c, 9, 60, 77
1, 60192, Note_on_c, 0, 74, 81
1, 60192, Note_on_c, 9, 39, 110
1, 60192, Note_on_c, 0, 71, 81
1, 60192, Note_on_c, 9, 36, 110
1, 60193, Note_on_c, 9, 36, 0
1, 60193, Note_on_c, 9, 60, 0
1, 60193, Note_on_c, 9, 40, 0
1, 60193, Note_on_c, 9, 39, 0
1, 60193, Note_on_c, 6, 78, 114
1, 60193, Note_on_c, 0, 66, 87
1, 60194, Note_on_c, 2, 71, 82
1, 60232, Note_on_c, 2, 62, 0
1, 60233, Note_on_c, 2, 71, 0
1, 60235, Note_on_c, 2, 59, 0
1, 60237, Note_on_c, 2, 67, 0
1, 60240, Note_on_c, 6, 78, 0
1, 60241, Note_on_c, 6, 74, 86
1, 60241, Note_on_c, 9, 42, 42
1, 60242, Note_on_c, 9, 42, 0
1, 60252, Note_on_c, 0, 66, 0
1, 60258, Note_on_c, 0, 67, 0
1, 60259, Note_on_c, 0, 71, 0
1, 60259, Note_on_c, 6, 74, 0
1, 60260, Note_on_c, 0, 74, 0
1, 60268, Note_on_c, 1, 31, 0
1, 60270, Note_on_c, 1, 43, 0
1, 60287, Lyric_t, "all "
1, 60287, Note_on_c, 10, 64, 87
1, 60287, Note_on_c, 10, 57, 73
1, 60287, Note_on_c, 3, 73, 103
1, 60287, Note_on_c, 10, 61, 87
1, 60288, Note_on_c, 4, 73, 49
1, 60288, Note_on_c, 2, 63, 101
1, 60288, Note_on_c, 6, 76, 119
1, 60288, Note_on_c, 9, 36, 110
1, 60288, Note_on_c, 9, 42, 96
1, 60289, Note_on_c, 9, 42, 0
1, 60289, Note_on_c, 9, 36, 0
1, 60289, Note_on_c, 1, 30, 97
1, 60289, Note_on_c, 0, 73, 71
1, 60289, Note_on_c, 1, 42, 99
1, 60289, Note_on_c, 0, 76, 83
1, 60289, Note_on_c, 2, 68, 92
1, 60289, Note_on_c, 0, 69, 75
1, 60290, Note_on_c, 2, 72, 96
1, 60312, Note_on_c, 2, 72, 0
1, 60313, Note_on_c, 2, 73, 92
1, 60313, Note_on_c, 2, 69, 92
1, 60314, Note_on_c, 2, 68, 0
1, 60314, Note_on_c, 2, 64, 97
1, 60315, Note_on_c, 2, 63, 0
1, 60335, Note_on_c, 3, 73, 0
1, 60335, Note_on_c, 3, 69, 57
1, 60335, Note_on_c, 9, 42, 37
1, 60336, Note_on_c, 9, 42, 0
1, 60336, Note_on_c, 4, 73, 0
1, 60336, Note_on_c, 4, 69, 20
1, 60361, Note_on_c, 2, 69, 0
1, 60361, Note_on_c, 2, 73, 0
1, 60365, Note_on_c, 2, 73, 100
1, 60366, Note_on_c, 2, 69, 97
1, 60383, Note_on_c, 2, 69, 0
1, 60383, Note_on_c, 3, 69, 0
1, 60383, Note_on_c, 9, 42, 110
1, 60383, Note_on_c, 3, 66, 45
1, 60384, Note_on_c, 9, 42, 0
1, 60384, Note_on_c, 4, 69, 0
1, 60384, Note_on_c, 2, 73, 0
1, 60384, Note_on_c, 4, 66, 6
1, 60384, Note_on_c, 9, 39, 110
1, 60384, Note_on_c, 9, 40, 95
1, 60384, Note_on_c, 9, 60, 77
1, 60385, Note_on_c, 9, 60, 0
1, 60385, Note_on_c, 9, 40, 0
1, 60385, Note_on_c, 9, 39, 0
1, 60387, Note_on_c, 2, 64, 0
1, 60389, Note_on_c, 0, 76, 0
1, 60392, Note_on_c, 0, 73, 0
1, 60392, Note_on_c, 0, 69, 0
1, 60396, Note_on_c, 1, 30, 0
1, 60399, Note_on_c, 1, 42, 0
1, 60411, Note_on_c, 10, 64, 0
1, 60413, Note_on_c, 10, 57, 0
1, 60414, Note_on_c, 10, 61, 0
1, 60426, Note_on_c, 6, 76, 0
1, 60430, Note_on_c, 3, 66, 0
1, 60431, Note_on_c, 6, 74, 112
1, 60431, Lyric_t, "right. "
1, 60431, Note_on_c, 0, 78, 73
1, 60431, Note_on_c, 3, 71, 85
1, 60431, Note_on_c, 0, 69, 78
1, 60431, Lyric_t, ""
1, 60431, Lyric_t, "\015"
1, 60431, Note_on_c, 0, 74, 82
1, 60432, Note_on_c, 4, 66, 0
1, 60432, Note_on_c, 1, 35, 98
1, 60432, Note_on_c, 10, 66, 104
1, 60432, Note_on_c, 10, 57, 91
1, 60432, Note_on_c, 10, 62, 100
1, 60432, Note_on_c, 9, 42, 44
1, 60432, Note_on_c, 9, 36, 91
1, 60432, Note_on_c, 4, 71, 28
1, 60432, Note_on_c, 1, 47, 110
1, 60433, Note_on_c, 9, 36, 0
1, 60433, Note_on_c, 9, 42, 0
1, 60434, Note_on_c, 2, 62, 87
1, 60435, Note_on_c, 2, 66, 103
1, 60453, Note_on_c, 10, 66, 0
1, 60455, Note_on_c, 6, 74, 0
1, 60457, Note_on_c, 10, 57, 0
1, 60457, Note_on_c, 10, 62, 0
1, 60479, Note_on_c, 9, 42, 95
1, 60480, Note_on_c, 9, 42, 0
1, 60480, Note_on_c, 9, 36, 110
1, 60481, Note_on_c, 9, 36, 0
1, 60506, Note_on_c, 0, 78, 0
1, 60506, Note_on_c, 0, 74, 0
1, 60517, Note_on_c, 2, 62, 0
1, 60518, Note_on_c, 0, 69, 0
1, 60520, Note_on_c, 1, 47, 0
1, 60521, Note_on_c, 2, 66, 0
1, 60526, Note_on_c, 1, 35, 0
1, 60527, Note_on_c, 1, 45, 97
1, 60527, Note_on_c, 9, 42, 39
1, 60527, Note_on_c, 1, 33, 100
1, 60528, Note_on_c, 9, 42, 0
1, 60528, Note_on_c, 2, 61, 94
1, 60529, Note_on_c, 0, 69, 66
1, 60529, Note_on_c, 2, 64, 101
1, 60529, Note_on_c, 0, 76, 68
1, 60529, Note_on_c, 6, 78, 104
1, 60529, Note_on_c, 0, 73, 75
1, 60540, Note_on_c, 0, 76, 0
1, 60541, Note_on_c, 0, 69, 0
1, 60543, Note_on_c, 1, 45, 0
1, 60544, Note_on_c, 1, 33, 0
1, 60544, Note_on_c, 0, 73, 0
1, 60544, Lyric_t, ""
1, 60544, Lyric_t, "\015"
1, 60550, Note_on_c, 3, 71, 0
1, 60552, Note_on_c, 6, 78, 0
1, 60574, Note_on_c, 2, 64, 0
1, 60575, Note_on_c, 2, 61, 0
1, 60575, Note_on_c, 9, 42, 110
1, 60575, Note_on_c, 1, 35, 97
1, 60575, Note_on_c, 2, 62, 81
1, 60576, Note_on_c, 9, 42, 0
1, 60576, Note_on_c, 9, 60, 77
1, 60576, Note_on_c, 9, 39, 110
1, 60576, Note_on_c, 9, 40, 110
1, 60576, Note_on_c, 1, 47, 120
1, 60576, Note_on_c, 9, 36, 110
1, 60577, Note_on_c, 9, 36, 0
1, 60577, Note_on_c, 9, 40, 0
1, 60577, Note_on_c, 9, 60, 0
1, 60577, Note_on_c, 9, 39, 0
1, 60577, Note_on_c, 0, 74, 91
1, 60577, Note_on_c, 2, 66, 103
1, 60577, Note_on_c, 0, 78, 71
1, 60577, Note_on_c, 6, 81, 112
1, 60577, Note_on_c, 0, 69, 84
1, 60592, Note_on_c, 2, 62, 0
1, 60599, Note_on_c, 2, 66, 0
1, 60624, Note_on_c, 6, 81, 0
1, 60625, Note_on_c, 9, 42, 42
1, 60625, Note_on_c, 6, 83, 119
1, 60626, Note_on_c, 9, 42, 0
1, 60635, Note_on_c, 0, 78, 0
1, 60641, Note_on_c, 0, 74, 0
1, 60643, Note_on_c, 6, 83, 0
1, 60644, Note_on_c, 0, 69, 0
1, 60662, Note_on_c, 1, 35, 0
1, 60662, Note_on_c, 1, 47, 0
1, 60672, Note_on_c, 1, 28, 104
1, 60672, Note_on_c, 10, 76, 127
1, 60672, Note_on_c, 0, 66, 96
1, 60672, Note_on_c, 9, 36, 110
1, 60672, Note_on_c, 9, 42, 96
1, 60672, Note_on_c, 6, 83, 127
1, 60673, Note_on_c, 9, 42, 0
1, 60673, Note_on_c, 9, 36, 0
1, 60673, Note_on_c, 0, 71, 81
1, 60673, Note_on_c, 0, 67, 81
1, 60673, Note_on_c, 0, 74, 82
1, 60673, Note_on_c, 1, 40, 110
1, 60673, Note_on_c, 9, 43, 84
1, 60674, Note_on_c, 9, 43, 0
1, 60674, Note_on_c, 4, 71, 0
1, 60708, Note_on_c, 6, 82, 105
1, 60716, Note_on_c, 6, 83, 0
1, 60716, Note_on_c, 10, 75, 112
1, 60716, Note_on_c, 6, 81, 101
1, 60719, Note_on_c, 10, 76, 0
1, 60719, Note_on_c, 9, 42, 37
1, 60720, Note_on_c, 9, 42, 0
1, 60721, Note_on_c, 2, 59, 63
1, 60721, Note_on_c, 6, 80, 96
1, 60722, Note_on_c, 2, 62, 97
1, 60723, Note_on_c, 2, 74, 99
1, 60723, Note_on_c, 2, 67, 99
1, 60724, Note_on_c, 6, 82, 0
1, 60724, Note_on_c, 10, 74, 106
1, 60727, Note_on_c, 6, 81, 0
1, 60728, Note_on_c, 10, 73, 103
1, 60728, Note_on_c, 6, 79, 89
1, 60730, Note_on_c, 10, 75, 0
1, 60733, Note_on_c, 6, 80, 0
1, 60733, Note_on_c, 6, 78, 81
1, 60736, Note_on_c, 6, 79, 0
1, 60736, Note_on_c, 10, 74, 0
1, 60736, Note_on_c, 10, 72, 99
1, 60739, Note_on_c, 10, 73, 0
1, 60739, Note_on_c, 6, 78, 0
1, 60739, Note_on_c, 6, 77, 78
1, 60740, Note_on_c, 2, 74, 0
1, 60743, Note_on_c, 6, 77, 0
1, 60743, Note_on_c, 6, 76, 76
1, 60744, Note_on_c, 10, 71, 93
1, 60745, Note_on_c, 2, 67, 0
1, 60745, Note_on_c, 10, 72, 0
1, 60746, Note_on_c, 2, 67, 99
1, 60746, Note_on_c, 2, 74, 94
1, 60748, Note_on_c, 6, 76, 0
1, 60748, Note_on_c, 10, 70, 90
1, 60750, Note_on_c, 10, 71, 0
1, 60750, Note_on_c, 6, 75, 76
1, 60755, Note_on_c, 6, 75, 0
1, 60755, Note_on_c, 10, 70, 0
1, 60757, Note_on_c, 10, 69, 86
1, 60763, Note_on_c, 2, 62, 0
1, 60764, Note_on_c, 10, 69, 0
1, 60764, Note_on_c, 2, 67, 0
1, 60766, Note_on_c, 2, 74, 0
1, 60766, Note_on_c, 2, 62, 81
1, 60767, Note_on_c, 2, 67, 100
1, 60767, Note_on_c, 2, 74, 97
1, 60767, Note_on_c, 9, 42, 110
1, 60768, Note_on_c, 9, 42, 0
1, 60768, Note_on_c, 9, 39, 110
1, 60768, Note_on_c, 4, 74, 40
1, 60768, Note_on_c, 9, 40, 95
1, 60768, Note_on_c, 9, 60, 77
1, 60769, Note_on_c, 9, 60, 0
1, 60769, Note_on_c, 9, 40, 0
1, 60769, Note_on_c, 9, 39, 0
1, 60769, Lyric_t, "Let "
1, 60769, Note_on_c, 3, 74, 84
1, 60777, Note_on_c, 2, 74, 0
1, 60777, Note_on_c, 2, 59, 0
1, 60780, Note_on_c, 2, 62, 0
1, 60783, Note_on_c, 2, 67, 0
1, 60784, Note_on_c, 1, 28, 0
1, 60786, Note_on_c, 0, 66, 0
1, 60788, Note_on_c, 1, 40, 0
1, 60791, Note_on_c, 0, 71, 0
1, 60792, Note_on_c, 0, 74, 0
1, 60793, Note_on_c, 0, 67, 0
1, 60815, Note_on_c, 4, 74, 0
1, 60815, Note_on_c, 3, 74, 0
1, 60815, Note_on_c, 0, 66, 78
1, 60815, Note_on_c, 1, 31, 114
1, 60815, Note_on_c, 0, 67, 69
1, 60815, Note_on_c, 1, 43, 100
1, 60815, Note_on_c, 0, 71, 78
1, 60815, Note_on_c, 0, 74, 76
1, 60815, Note_on_c, 2, 62, 87
1, 60816, Note_on_c, 9, 36, 91
1, 60816, Note_on_c, 4, 74, 47
1, 60816, Note_on_c, 9, 42, 44
1, 60816, Note_on_c, 2, 69, 94
1, 60817, Note_on_c, 9, 42, 0
1, 60817, Note_on_c, 9, 36, 0
1, 60817, Note_on_c, 3, 74, 83
1, 60817, Lyric_t, "this "
1, 60818, Note_on_c, 2, 71, 90
1, 60824, Note_on_c, 0, 74, 0
1, 60824, Note_on_c, 0, 67, 0
1, 60826, Note_on_c, 0, 71, 0
1, 60827, Note_on_c, 0, 66, 0
1, 60830, Note_on_c, 2, 62, 0
1, 60831, Note_on_c, 2, 71, 0
1, 60833, Note_on_c, 1, 31, 0
1, 60833, Note_on_c, 1, 43, 0
1, 60837, Note_on_c, 2, 69, 0
1, 60863, Note_on_c, 3, 74, 0
1, 60863, Note_on_c, 0, 66, 87
1, 60863, Note_on_c, 0, 71, 81
1, 60863, Note_on_c, 1, 45, 117
1, 60863, Note_on_c, 1, 33, 112
1, 60863, Note_on_c, 9, 42, 95
1, 60863, Note_on_c, 0, 74, 83
1, 60863, Note_on_c, 0, 67, 82
1, 60864, Note_on_c, 9, 42, 0
1, 60864, Note_on_c, 4, 74, 0
1, 60864, Note_on_c, 9, 36, 110
1, 60864, Note_on_c, 4, 71, 21
1, 60865, Note_on_c, 9, 36, 0
1, 60865, Lyric_t, "groove "
1, 60865, Note_on_c, 3, 71, 85
1, 60866, Note_on_c, 2, 67, 99
1, 60866, Note_on_c, 2, 62, 96
1, 60867, Note_on_c, 2, 71, 101
1, 60911, Note_on_c, 9, 42, 39
1, 60912, Note_on_c, 9, 42, 0
1, 60912, Note_on_c, 10, 67, 102
1, 60913, Note_on_c, 6, 79, 127
1, 60915, Note_on_c, 3, 71, 0
1, 60941, Note_on_c, 0, 74, 0
1, 60941, Note_on_c, 0, 71, 0
1, 60942, Note_on_c, 0, 67, 0
1, 60942, Note_on_c, 0, 66, 0
1, 60943, Note_on_c, 1, 33, 0
1, 60947, Note_on_c, 6, 79, 0
1, 60948, Note_on_c, 10, 67, 0
1, 60949, Note_on_c, 1, 45, 0
1, 60951, Note_on_c, 2, 67, 0
1, 60958, Note_on_c, 2, 62, 0
1, 60958, Note_on_c, 2, 71, 0
1, 60959, Note_on_c, 1, 31, 100
1, 60959, Note_on_c, 9, 42, 110
1, 60959, Note_on_c, 1, 43, 112
1, 60960, Note_on_c, 9, 42, 0
1, 60960, Note_on_c, 0, 74, 81
1, 60960, Note_on_c, 9, 40, 110
1, 60960, Note_on_c, 0, 71, 81
1, 60960, Note_on_c, 2, 69, 96
1, 60960, Note_on_c, 0, 67, 79
1, 60960, Note_on_c, 2, 62, 101
1, 60960, Note_on_c, 9, 39, 110
1, 60960, Note_on_c, 9, 60, 77
1, 60960, Note_on_c, 9, 36, 110
1, 60961, Note_on_c, 9, 36, 0
1, 60961, Note_on_c, 9, 39, 0
1, 60961, Note_on_c, 9, 40, 0
1, 60961, Note_on_c, 9, 60, 0
1, 60961, Note_on_c, 0, 66, 87
1, 60972, Note_on_c, 4, 71, 0
1, 60996, Note_on_c, 2, 69, 0
1, 61000, Note_on_c, 2, 62, 0
1, 61008, Note_on_c, 10, 69, 104
1, 61009, Note_on_c, 9, 42, 42
1, 61009, Note_on_c, 6, 81, 117
1, 61010, Note_on_c, 9, 42, 0
1, 61020, Note_on_c, 0, 66, 0
1, 61026, Note_on_c, 0, 67, 0
1, 61027, Note_on_c, 0, 71, 0
1, 61028, Note_on_c, 0, 74, 0
1, 61036, Note_on_c, 1, 31, 0
1, 61038, Note_on_c, 1, 43, 0
1, 61045, Note_on_c, 10, 69, 0
1, 61048, Control_c, 10, 11, 64
1, 61050, Note_on_c, 6, 81, 0
1, 61055, Lyric_t, "set "
1, 61055, Note_on_c, 3, 66, 58
1, 61056, Note_on_c, 2, 68, 94
1, 61056, Note_on_c, 9, 36, 110
1, 61056, Note_on_c, 9, 42, 96
1, 61056, Note_on_c, 10, 69, 120
1, 61056, Note_on_c, 4, 66, 17
1, 61056, Control_c, 10, 11, 65
1, 61056, Note_on_c, 6, 81, 126
1, 61057, Note_on_c, 9, 42, 0
1, 61057, Note_on_c, 9, 36, 0
1, 61057, Note_on_c, 1, 30, 97
1, 61057, Note_on_c, 2, 72, 101
1, 61057, Note_on_c, 1, 42, 99
1, 61057, Note_on_c, 0, 69, 75
1, 61057, Note_on_c, 0, 76, 83
1, 61057, Note_on_c, 0, 73, 71
1, 61058, Note_on_c, 2, 63, 100
1, 61064, Control_c, 10, 11, 66
1, 61068, Control_c, 10, 11, 67
1, 61075, Note_on_c, 2, 68, 0
1, 61076, Note_on_c, 2, 72, 0
1, 61076, Note_on_c, 2, 73, 66
1, 61076, Control_c, 10, 11, 68
1, 61080, Control_c, 10, 11, 69
1, 61080, Note_on_c, 2, 69, 66
1, 61083, Note_on_c, 2, 63, 0
1, 61083, Note_on_c, 2, 64, 81
1, 61088, Control_c, 10, 11, 70
1, 61092, Control_c, 10, 11, 71
1, 61100, Control_c, 10, 11, 72
1, 61102, Note_on_c, 3, 66, 0
1, 61103, Note_on_c, 9, 42, 37
1, 61103, Lyric_t, "in "
1, 61103, Note_on_c, 3, 69, 63
1, 61104, Note_on_c, 9, 42, 0
1, 61104, Note_on_c, 4, 66, 0
1, 61104, Control_c, 10, 11, 73
1, 61104, Note_on_c, 4, 69, 21
1, 61112, Control_c, 10, 11, 74
1, 61116, Control_c, 10, 11, 75
1, 61124, Control_c, 10, 11, 76
1, 61130, Note_on_c, 2, 73, 0
1, 61130, Note_on_c, 2, 69, 0
1, 61132, Control_c, 10, 11, 77
1, 61132, Note_on_c, 2, 73, 99
1, 61133, Note_on_c, 2, 69, 100
1, 61136, Control_c, 10, 11, 78
1, 61138, Note_on_c, 2, 69, 0
1, 61139, Note_on_c, 2, 73, 0
1, 61144, Control_c, 10, 11, 79
1, 61148, Control_c, 10, 11, 80
1, 61150, Note_on_c, 2, 64, 0
1, 61150, Note_on_c, 3, 69, 0
1, 61151, Note_on_c, 9, 42, 110
1, 61151, Lyric_t, "your "
1, 61151, Note_on_c, 3, 73, 92
1, 61152, Note_on_c, 9, 42, 0
1, 61152, Note_on_c, 4, 69, 0
1, 61152, Note_on_c, 9, 39, 110
1, 61152, Note_on_c, 9, 60, 77
1, 61152, Note_on_c, 9, 40, 95
1, 61152, Note_on_c, 4, 73, 32
1, 61153, Note_on_c, 9, 40, 0
1, 61153, Note_on_c, 9, 60, 0
1, 61153, Note_on_c, 9, 39, 0
1, 61156, Control_c, 10, 11, 81
1, 61157, Note_on_c, 0, 76, 0
1, 61160, Note_on_c, 0, 69, 0
1, 61160, Note_on_c, 0, 73, 0
1, 61160, Control_c, 10, 11, 82
1, 61164, Note_on_c, 1, 30, 0
1, 61167, Note_on_c, 1, 42, 0
1, 61168, Control_c, 10, 11, 83
1, 61172, Control_c, 10, 11, 84
1, 61180, Control_c, 10, 11, 85
1, 61184, Control_c, 10, 11, 86
1, 61192, Control_c, 10, 11, 87
1, 61196, Control_c, 10, 11, 88
1, 61199, Note_on_c, 3, 73, 0
1, 61199, Lyric_t, ""
1, 61199, Lyric_t, "\015"
1, 61199, Lyric_t, "shoes, "
1, 61199, Note_on_c, 0, 74, 82
1, 61199, Note_on_c, 3, 71, 80
1, 61199, Note_on_c, 0, 78, 73
1, 61199, Note_on_c, 0, 69, 78
1, 61200, Note_on_c, 4, 73, 0
1, 61200, Note_on_c, 9, 36, 91
1, 61200, Note_on_c, 9, 42, 44
1, 61200, Note_on_c, 1, 35, 98
1, 61200, Note_on_c, 1, 47, 110
1, 61200, Note_on_c, 4, 71, 23
1, 61201, Note_on_c, 9, 42, 0
1, 61201, Note_on_c, 9, 36, 0
1, 61201, Note_on_c, 2, 62, 84
1, 61202, Note_on_c, 2, 66, 103
1, 61203, Note_on_c, 2, 69, 97
1, 61204, Control_c, 10, 11, 89
1, 61212, Control_c, 10, 11, 90
1, 61216, Control_c, 10, 11, 91
1, 61224, Control_c, 10, 11, 92
1, 61228, Control_c, 10, 11, 93
1, 61236, Control_c, 10, 11, 94
1, 61240, Control_c, 10, 11, 95
1, 61247, Note_on_c, 9, 42, 95
1, 61248, Note_on_c, 9, 42, 0
1, 61248, Control_c, 10, 11, 96
1, 61248, Note_on_c, 9, 36, 110
1, 61249, Note_on_c, 9, 36, 0
1, 61252, Control_c, 10, 11, 97
1, 61260, Control_c, 10, 11, 98
1, 61264, Control_c, 10, 11, 99
1, 61272, Control_c, 10, 11, 100
1, 61274, Note_on_c, 0, 74, 0
1, 61274, Note_on_c, 0, 78, 0
1, 61276, Control_c, 10, 11, 101
1, 61284, Control_c, 10, 11, 102
1, 61285, Note_on_c, 2, 62, 0
1, 61286, Note_on_c, 0, 69, 0
1, 61287, Note_on_c, 2, 66, 0
1, 61288, Note_on_c, 1, 47, 0
1, 61292, Control_c, 10, 11, 103
1, 61294, Note_on_c, 1, 35, 0
1, 61294, Note_on_c, 3, 71, 0
1, 61295, Note_on_c, 2, 69, 0
1, 61295, Note_on_c, 1, 33, 100
1, 61295, Note_on_c, 9, 42, 39
1, 61295, Note_on_c, 1, 45, 97
1, 61295, Note_on_c, 2, 61, 80
1, 61296, Note_on_c, 9, 42, 0
1, 61296, Note_on_c, 4, 71, 0
1, 61296, Note_on_c, 4, 69, 13
1, 61296, Control_c, 10, 11, 104
1, 61297, Lyric_t, "so "
1, 61297, Note_on_c, 3, 69, 57
1, 61297, Note_on_c, 0, 73, 75
1, 61297, Note_on_c, 2, 64, 101
1, 61297, Note_on_c, 0, 69, 66
1, 61297, Note_on_c, 0, 76, 68
1, 61304, Control_c, 10, 11, 105
1, 61308, Note_on_c, 0, 76, 0
1, 61308, Control_c, 10, 11, 106
1, 61309, Note_on_c, 0, 69, 0
1, 61311, Note_on_c, 1, 45, 0
1, 61312, Note_on_c, 1, 33, 0
1, 61312, Note_on_c, 0, 73, 0
1, 61316, Control_c, 10, 11, 107
1, 61320, Control_c, 10, 11, 108
1, 61328, Control_c, 10, 11, 109
1, 61332, Control_c, 10, 11, 110
1, 61340, Note_on_c, 2, 61, 0
1, 61340, Note_on_c, 2, 64, 0
1, 61340, Control_c, 10, 11, 111
1, 61341, Note_on_c, 3, 69, 0
1, 61343, Note_on_c, 1, 35, 97
1, 61343, Note_on_c, 3, 74, 90
1, 61343, Note_on_c, 9, 42, 110
1, 61343, Lyric_t, "stand "
1, 61344, Note_on_c, 9, 42, 0
1, 61344, Note_on_c, 4, 69, 0
1, 61344, Control_c, 10, 11, 112
1, 61344, Note_on_c, 9, 40, 110
1, 61344, Note_on_c, 9, 36, 110
1, 61344, Note_on_c, 1, 47, 120
1, 61344, Note_on_c, 9, 39, 110
1, 61344, Note_on_c, 4, 74, 30
1, 61344, Note_on_c, 9, 60, 77
1, 61345, Note_on_c, 9, 60, 0
1, 61345, Note_on_c, 9, 39, 0
1, 61345, Note_on_c, 9, 36, 0
1, 61345, Note_on_c, 9, 40, 0
1, 61345, Note_on_c, 0, 74, 91
1, 61345, Note_on_c, 0, 78, 71
1, 61345, Note_on_c, 0, 69, 84
1, 61345, Note_on_c, 2, 62, 99
1, 61346, Note_on_c, 2, 66, 102
1, 61352, Control_c, 10, 11, 113
1, 61356, Control_c, 10, 11, 114
1, 61363, Note_on_c, 2, 66, 0
1, 61364, Control_c, 10, 11, 115
1, 61366, Note_on_c, 2, 62, 0
1, 61372, Control_c, 10, 11, 116
1, 61376, Control_c, 10, 11, 117
1, 61384, Control_c, 10, 11, 118
1, 61388, Control_c, 10, 11, 119
1, 61393, Note_on_c, 9, 42, 42
1, 61394, Note_on_c, 9, 42, 0
1, 61396, Control_c, 10, 11, 120
1, 61398, Note_on_c, 3, 74, 0
1, 61400, Control_c, 10, 11, 121
1, 61403, Note_on_c, 0, 78, 0
1, 61408, Control_c, 10, 11, 122
1, 61409, Note_on_c, 0, 74, 0
1, 61412, Note_on_c, 0, 69, 0
1, 61412, Control_c, 10, 11, 123
1, 61420, Control_c, 10, 11, 124
1, 61424, Control_c, 10, 11, 125
1, 61428, Note_on_c, 6, 81, 0
1, 61430, Note_on_c, 1, 47, 0
1, 61430, Note_on_c, 10, 69, 0
1, 61430, Note_on_c, 1, 35, 0
1, 61432, Control_c, 10, 11, 126
1, 61436, Control_c, 10, 11, 127
1, 61440, Note_on_c, 4, 74, 0
1, 61440, Note_on_c, 0, 66, 96
1, 61440, Note_on_c, 9, 36, 110
1, 61440, Note_on_c, 3, 71, 57
1, 61440, Note_on_c, 9, 42, 96
1, 61440, Note_on_c, 1, 28, 104
1, 61440, Lyric_t, "up, "
1, 61440, Note_on_c, 4, 71, 23
1, 61441, Note_on_c, 9, 42, 0
1, 61441, Note_on_c, 9, 36, 0
1, 61441, Note_on_c, 0, 67, 81
1, 61441, Note_on_c, 0, 71, 81
1, 61441, Note_on_c, 1, 40, 110
1, 61441, Note_on_c, 9, 43, 86
1, 61441, Note_on_c, 0, 74, 82
1, 61442, Note_on_c, 9, 43, 0
1, 61487, Note_on_c, 9, 42, 37
1, 61488, Note_on_c, 9, 42, 0
1, 61489, Note_on_c, 2, 59, 77
1, 61490, Note_on_c, 2, 62, 102
1, 61491, Note_on_c, 2, 74, 96
1, 61491, Note_on_c, 2, 67, 100
1, 61494, Note_on_c, 3, 71, 0
1, 61509, Note_on_c, 2, 74, 0
1, 61514, Note_on_c, 2, 67, 0
1, 61514, Note_on_c, 2, 74, 97
1, 61515, Note_on_c, 2, 67, 98
1, 61532, Note_on_c, 2, 67, 0
1, 61535, Note_on_c, 2, 74, 0
1, 61535, Note_on_c, 4, 71, 0
1, 61535, Note_on_c, 9, 42, 110
1, 61535, Note_on_c, 2, 67, 100
1, 61536, Note_on_c, 9, 42, 0
1, 61536, Note_on_c, 9, 40, 95
1, 61536, Note_on_c, 4, 64, 25
1, 61536, Note_on_c, 9, 60, 77
1, 61536, Note_on_c, 4, 78, 25
1, 61536, Note_on_c, 2, 74, 95
1, 61536, Note_on_c, 9, 39, 110
1, 61536, Note_on_c, 4, 74, 35
1, 61536, Note_on_c, 4, 69, 25
1, 61537, Note_on_c, 9, 39, 0
1, 61537, Note_on_c, 9, 60, 0
1, 61537, Note_on_c, 9, 40, 0
1, 61537, Lyric_t, "all "
1, 61537, Note_on_c, 3, 74, 87
1, 61543, Note_on_c, 2, 62, 0
1, 61547, Note_on_c, 2, 74, 0
1, 61548, Note_on_c, 2, 59, 0
1, 61552, Note_on_c, 2, 67, 0
1, 61552, Note_on_c, 1, 28, 0
1, 61554, Note_on_c, 0, 66, 0
1, 61556, Note_on_c, 1, 40, 0
1, 61559, Note_on_c, 0, 71, 0
1, 61560, Note_on_c, 0, 74, 0
1, 61561, Note_on_c, 0, 67, 0
1, 61583, Note_on_c, 1, 43, 100
1, 61583, Note_on_c, 0, 67, 69
1, 61583, Note_on_c, 0, 74, 76
1, 61583, Note_on_c, 2, 62, 85
1, 61583, Note_on_c, 1, 31, 114
1, 61583, Note_on_c, 0, 71, 78
1, 61583, Note_on_c, 0, 66, 78
1, 61584, Note_on_c, 9, 42, 44
1, 61584, Note_on_c, 9, 36, 91
1, 61585, Note_on_c, 9, 36, 0
1, 61585, Note_on_c, 9, 42, 0
1, 61585, Note_on_c, 2, 67, 99
1, 61586, Note_on_c, 2, 71, 103
1, 61592, Note_on_c, 0, 67, 0
1, 61592, Note_on_c, 0, 74, 0
1, 61594, Note_on_c, 0, 71, 0
1, 61595, Note_on_c, 2, 62, 0
1, 61595, Note_on_c, 0, 66, 0
1, 61601, Note_on_c, 1, 43, 0
1, 61601, Note_on_c, 1, 31, 0
1, 61601, Note_on_c, 2, 67, 0
1, 61601, Note_on_c, 2, 71, 0
1, 61626, Note_on_c, 3, 74, 0
1, 61631, Note_on_c, 1, 45, 117
1, 61631, Note_on_c, 0, 74, 83
1, 61631, Note_on_c, 1, 33, 112
1, 61631, Note_on_c, 0, 67, 82
1, 61631, Note_on_c, 9, 42, 95
1, 61631, Note_on_c, 0, 66, 87
1, 61631, Note_on_c, 6, 83, 117
1, 61631, Note_on_c, 0, 71, 81
1, 61632, Note_on_c, 9, 42, 0
1, 61632, Note_on_c, 4, 74, 0
1, 61632, Note_on_c, 4, 69, 0
1, 61632, Note_on_c, 4, 64, 0
1, 61632, Note_on_c, 4, 78, 0
1, 61632, Note_on_c, 4, 76, 16
1, 61632, Note_on_c, 3, 71, 58
1, 61632, Note_on_c, 4, 71, 16
1, 61632, Note_on_c, 9, 36, 110
1, 61632, Note_on_c, 4, 59, 16
1, 61632, Note_on_c, 4, 66, 16
1, 61632, Lyric_t, "right, "
1, 61633, Note_on_c, 9, 36, 0
1, 61634, Note_on_c, 2, 69, 87
1, 61634, Note_on_c, 2, 62, 102
1, 61635, Note_on_c, 2, 71, 103
1, 61678, Note_on_c, 6, 83, 0
1, 61679, Note_on_c, 9, 42, 39
1, 61680, Note_on_c, 9, 42, 0
1, 61681, Note_on_c, 6, 81, 97
1, 61686, Note_on_c, 3, 71, 0
1, 61697, Note_on_c, 6, 81, 0
1, 61709, Note_on_c, 0, 74, 0
1, 61709, Note_on_c, 0, 71, 0
1, 61710, Note_on_c, 0, 67, 0
1, 61710, Note_on_c, 0, 66, 0
1, 61711, Note_on_c, 1, 33, 0
1, 61717, Note_on_c, 1, 45, 0
1, 61723, Note_on_c, 2, 69, 0
1, 61726, Note_on_c, 2, 71, 0
1, 61727, Note_on_c, 2, 62, 0
1, 61727, Note_on_c, 9, 42, 110
1, 61727, Note_on_c, 1, 43, 112
1, 61727, Note_on_c, 1, 31, 100
1, 61728, Note_on_c, 9, 42, 0
1, 61728, Note_on_c, 0, 71, 81
1, 61728, Note_on_c, 0, 74, 81
1, 61728, Note_on_c, 0, 67, 79
1, 61728, Note_on_c, 9, 39, 110
1, 61728, Note_on_c, 9, 40, 110
1, 61728, Note_on_c, 9, 36, 110
1, 61728, Note_on_c, 9, 60, 77
1, 61729, Note_on_c, 9, 60, 0
1, 61729, Note_on_c, 9, 39, 0
1, 61729, Note_on_c, 9, 36, 0
1, 61729, Note_on_c, 9, 40, 0
1, 61729, Note_on_c, 0, 66, 87
1, 61729, Note_on_c, 2, 67, 100
1, 61729, Note_on_c, 6, 78, 114
1, 61730, Note_on_c, 2, 62, 103
1, 61731, Note_on_c, 2, 71, 104
1, 61752, Note_on_c, 4, 71, 0
1, 61752, Note_on_c, 4, 76, 0
1, 61752, Note_on_c, 4, 59, 0
1, 61752, Note_on_c, 4, 66, 0
1, 61769, Note_on_c, 2, 62, 0
1, 61769, Note_on_c, 2, 71, 0
1, 61776, Note_on_c, 6, 78, 0
1, 61777, Note_on_c, 2, 67, 0
1, 61777, Note_on_c, 9, 42, 42
1, 61777, Note_on_c, 6, 74, 86
1, 61778, Note_on_c, 9, 42, 0
1, 61788, Note_on_c, 0, 66, 0
1, 61794, Note_on_c, 0, 67, 0
1, 61795, Note_on_c, 6, 74, 0
1, 61795, Note_on_c, 0, 71, 0
1, 61796, Note_on_c, 0, 74, 0
1, 61804, Note_on_c, 1, 31, 0
1, 61806, Note_on_c, 1, 43, 0
1, 61824, Note_on_c, 10, 57, 88
1, 61824, Note_on_c, 9, 42, 96
1, 61824, Note_on_c, 10, 61, 81
1, 61824, Note_on_c, 10, 64, 87
1, 61824, Note_on_c, 4, 73, 39
1, 61824, Note_on_c, 9, 36, 110
1, 61824, Note_on_c, 6, 76, 119
1, 61825, Note_on_c, 9, 36, 0
1, 61825, Note_on_c, 9, 42, 0
1, 61825, Note_on_c, 0, 69, 75
1, 61825, Lyric_t, "all "
1, 61825, Note_on_c, 3, 73, 100
1, 61825, Note_on_c, 0, 73, 71
1, 61825, Note_on_c, 1, 42, 99
1, 61825, Note_on_c, 0, 76, 83
1, 61825, Note_on_c, 1, 30, 97
1, 61826, Note_on_c, 2, 63, 99
1, 61827, Note_on_c, 2, 72, 99
1, 61827, Note_on_c, 2, 68, 92
1, 61846, Note_on_c, 2, 72, 0
1, 61849, Note_on_c, 2, 63, 0
1, 61849, Note_on_c, 2, 64, 78
1, 61849, Note_on_c, 2, 73, 77
1, 61850, Note_on_c, 2, 68, 0
1, 61851, Note_on_c, 2, 69, 87
1, 61871, Note_on_c, 3, 73, 0
1, 61871, Note_on_c, 9, 42, 37
1, 61871, Note_on_c, 3, 69, 66
1, 61872, Note_on_c, 9, 42, 0
1, 61872, Note_on_c, 4, 73, 0
1, 61872, Note_on_c, 4, 69, 20
1, 61895, Note_on_c, 2, 73, 0
1, 61895, Note_on_c, 2, 69, 0
1, 61900, Note_on_c, 2, 73, 97
1, 61901, Note_on_c, 2, 69, 91
1, 61905, Note_on_c, 2, 64, 0
1, 61907, Note_on_c, 2, 73, 0
1, 61908, Note_on_c, 2, 69, 0
1, 61914, Note_on_c, 2, 64, 78
1, 61919, Note_on_c, 9, 42, 110
1, 61920, Note_on_c, 9, 42, 0
1, 61920, Note_on_c, 4, 69, 0
1, 61920, Note_on_c, 9, 60, 77
1, 61920, Note_on_c, 9, 40, 95
1, 61920, Note_on_c, 3, 66, 38
1, 61920, Note_on_c, 9, 39, 110
1, 61920, Note_on_c, 4, 66, 16
1, 61921, Note_on_c, 9, 39, 0
1, 61921, Note_on_c, 9, 40, 0
1, 61921, Note_on_c, 3, 69, 0
1, 61921, Note_on_c, 9, 60, 0
1, 61925, Note_on_c, 0, 76, 0
1, 61928, Note_on_c, 0, 73, 0
1, 61928, Note_on_c, 0, 69, 0
1, 61932, Note_on_c, 1, 30, 0
1, 61935, Note_on_c, 1, 42, 0
1, 61936, Note_on_c, 2, 64, 0
1, 61954, Note_on_c, 10, 64, 0
1, 61956, Note_on_c, 10, 57, 0
1, 61956, Note_on_c, 10, 61, 0
1, 61962, Note_on_c, 6, 76, 0
1, 61966, Note_on_c, 3, 66, 0
1, 61967, Lyric_t, ""
1, 61967, Lyric_t, "\015"
1, 61967, Lyric_t, "right. "
1, 61967, Note_on_c, 6, 74, 112
1, 61967, Note_on_c, 0, 74, 82
1, 61967, Note_on_c, 0, 78, 73
1, 61967, Note_on_c, 0, 69, 78
1, 61967, Note_on_c, 10, 62, 110
1, 61967, Note_on_c, 3, 71, 80
1, 61968, Note_on_c, 4, 66, 0
1, 61968, Note_on_c, 1, 47, 110
1, 61968, Note_on_c, 9, 42, 44
1, 61968, Note_on_c, 1, 35, 98
1, 61968, Note_on_c, 10, 66, 123
1, 61968, Note_on_c, 4, 71, 30
1, 61968, Note_on_c, 10, 57, 100
1, 61968, Note_on_c, 9, 36, 91
1, 61969, Note_on_c, 9, 36, 0
1, 61969, Note_on_c, 9, 42, 0
1, 61970, Note_on_c, 2, 62, 85
1, 61971, Note_on_c, 2, 66, 102
1, 61973, Note_on_c, 2, 69, 76
1, 61990, Note_on_c, 10, 62, 0
1, 61991, Note_on_c, 6, 74, 0
1, 61991, Note_on_c, 10, 57, 0
1, 61992, Note_on_c, 10, 66, 0
1, 62015, Note_on_c, 9, 42, 95
1, 62016, Note_on_c, 9, 42, 0
1, 62016, Note_on_c, 9, 36, 110
1, 62017, Note_on_c, 9, 36, 0
1, 62038, Note_on_c, 3, 71, 0
1, 62042, Note_on_c, 0, 74, 0
1, 62042, Note_on_c, 0, 78, 0
1, 62054, Note_on_c, 0, 69, 0
1, 62056, Note_on_c, 1, 47, 0
1, 62056, Note_on_c, 2, 62, 0
1, 62062, Note_on_c, 1, 35, 0
1, 62063, Note_on_c, 2, 66, 0
1, 62063, Note_on_c, 2, 61, 99
1, 62063, Note_on_c, 1, 45, 97
1, 62063, Note_on_c, 1, 33, 100
1, 62063, Note_on_c, 9, 42, 35
1, 62064, Note_on_c, 9, 42, 0
1, 62065, Note_on_c, 0, 69, 66
1, 62065, Note_on_c, 0, 76, 68
1, 62065, Note_on_c, 2, 64, 101
1, 62065, Note_on_c, 0, 73, 75
1, 62076, Note_on_c, 0, 76, 0
1, 62077, Note_on_c, 0, 69, 0
1, 62079, Note_on_c, 1, 45, 0
1, 62080, Note_on_c, 0, 73, 0
1, 62080, Note_on_c, 1, 33, 0
1, 62107, Note_on_c, 2, 69, 0
1, 62110, Note_on_c, 2, 64, 0
1, 62111, Note_on_c, 9, 42, 98
1, 62111, Note_on_c, 1, 35, 97
1, 62112, Note_on_c, 9, 42, 0
1, 62112, Note_on_c, 2, 61, 0
1, 62112, Note_on_c, 9, 39, 110
1, 62112, Note_on_c, 9, 36, 110
1, 62112, Note_on_c, 2, 62, 88
1, 62112, Note_on_c, 1, 47, 120
1, 62112, Note_on_c, 9, 40, 110
1, 62112, Note_on_c, 9, 60, 77
1, 62113, Note_on_c, 9, 60, 0
1, 62113, Note_on_c, 9, 40, 0
1, 62113, Note_on_c, 9, 39, 0
1, 62113, Note_on_c, 9, 36, 0
1, 62113, Note_on_c, 0, 74, 91
1, 62113, Note_on_c, 2, 69, 83
1, 62113, Note_on_c, 0, 78, 71
1, 62113, Note_on_c, 0, 69, 84
1, 62114, Note_on_c, 2, 66, 103
1, 62127, Note_on_c, 2, 69, 0
1, 62133, Note_on_c, 2, 62, 0
1, 62136, Note_on_c, 2, 66, 0
1, 62161, Note_on_c, 9, 42, 42
1, 62162, Note_on_c, 9, 42, 0
1, 62171, Note_on_c, 0, 78, 0
1, 62177, Note_on_c, 0, 74, 0
1, 62180, Note_on_c, 0, 69, 0
1, 62198, Note_on_c, 1, 35, 0
1, 62198, Note_on_c, 1, 47, 0
1, 62208, Note_on_c, 4, 71, 0
1, 62208, Note_on_c, 0, 66, 96
1, 62208, Note_on_c, 9, 36, 110
1, 62208, Note_on_c, 9, 43, 89
1, 62208, Note_on_c, 1, 28, 104
1, 62208, Note_on_c, 9, 42, 96
1, 62208, Note_on_c, 10, 57, 91
1, 62209, Note_on_c, 9, 42, 0
1, 62209, Note_on_c, 9, 43, 0
1, 62209, Note_on_c, 9, 36, 0
1, 62209, Note_on_c, 1, 40, 110
1, 62209, Note_on_c, 0, 67, 81
1, 62209, Note_on_c, 0, 71, 81
1, 62209, Note_on_c, 0, 74, 82
1, 62255, Note_on_c, 9, 42, 37
1, 62256, Note_on_c, 9, 42, 0
1, 62256, Note_on_c, 2, 59, 60
1, 62258, Note_on_c, 2, 62, 98
1, 62259, Note_on_c, 2, 67, 101
1, 62260, Note_on_c, 2, 74, 98
1, 62270, Note_on_c, 2, 74, 0
1, 62279, Note_on_c, 10, 57, 0
1, 62280, Note_on_c, 2, 67, 0
1, 62280, Note_on_c, 2, 74, 98
1, 62282, Note_on_c, 2, 62, 0
1, 62282, Note_on_c, 2, 67, 99
1, 62283, Note_on_c, 2, 62, 88
1, 62299, Note_on_c, 2, 62, 0
1, 62302, Note_on_c, 2, 67, 0
1, 62303, Note_on_c, 2, 74, 0
1, 62303, Note_on_c, 9, 42, 110
1, 62303, Note_on_c, 2, 62, 101
1, 62303, Note_on_c, 10, 59, 98
1, 62304, Note_on_c, 9, 42, 0
1, 62304, Note_on_c, 9, 40, 95
1, 62304, Note_on_c, 9, 39, 110
1, 62304, Note_on_c, 9, 60, 77
1, 62304, Note_on_c, 2, 67, 99
1, 62304, Note_on_c, 2, 74, 97
1, 62305, Note_on_c, 9, 60, 0
1, 62305, Note_on_c, 9, 40, 0
1, 62305, Note_on_c, 9, 39, 0
1, 62317, Note_on_c, 2, 74, 0
1, 62318, Note_on_c, 2, 62, 0
1, 62319, Note_on_c, 2, 59, 0
1, 62320, Note_on_c, 1, 28, 0
1, 62321, Note_on_c, 2, 67, 0
1, 62322, Note_on_c, 0, 66, 0
1, 62324, Note_on_c, 1, 40, 0
1, 62327, Note_on_c, 0, 71, 0
1, 62328, Note_on_c, 0, 74, 0
1, 62329, Note_on_c, 0, 67, 0
1, 62351, Note_on_c, 10, 59, 0
1, 62351, Note_on_c, 1, 31, 114
1, 62351, Note_on_c, 1, 43, 100
1, 62351, Note_on_c, 0, 71, 78
1, 62351, Note_on_c, 2, 62, 63
1, 62351, Note_on_c, 0, 74, 76
1, 62351, Note_on_c, 0, 66, 78
1, 62351, Note_on_c, 0, 67, 69
1, 62352, Note_on_c, 9, 42, 44
1, 62352, Note_on_c, 9, 36, 91
1, 62353, Note_on_c, 9, 36, 0
1, 62353, Note_on_c, 9, 42, 0
1, 62353, Note_on_c, 10, 57, 86
1, 62353, Note_on_c, 2, 67, 99
1, 62354, Note_on_c, 2, 71, 102
1, 62360, Note_on_c, 0, 67, 0
1, 62360, Note_on_c, 0, 74, 0
1, 62361, Note_on_c, 2, 62, 0
1, 62362, Note_on_c, 0, 71, 0
1, 62363, Note_on_c, 0, 66, 0
1, 62366, Note_on_c, 2, 71, 0
1, 62368, Note_on_c, 2, 67, 0
1, 62369, Note_on_c, 1, 31, 0
1, 62369, Note_on_c, 1, 43, 0
1, 62371, Note_on_c, 10, 57, 0
1, 62399, Note_on_c, 0, 66, 87
1, 62399, Note_on_c, 0, 67, 82
1, 62399, Note_on_c, 0, 74, 83
1, 62399, Note_on_c, 1, 33, 112
1, 62399, Note_on_c, 0, 71, 81
1, 62399, Note_on_c, 9, 42, 95
1, 62399, Note_on_c, 1, 45, 117
1, 62400, Note_on_c, 9, 42, 0
1, 62400, Note_on_c, 9, 36, 110
1, 62401, Note_on_c, 9, 36, 0
1, 62401, Note_on_c, 10, 62, 98
1, 62402, Note_on_c, 2, 71, 103
1, 62402, Note_on_c, 2, 62, 100
1, 62403, Note_on_c, 2, 69, 94
1, 62440, Lyric_t, ""
1, 62440, Lyric_t, "\015"
1, 62447, Note_on_c, 9, 42, 39
1, 62448, Note_on_c, 9, 42, 0
1, 62449, Note_on_c, 6, 81, 120
1, 62457, Note_on_c, 6, 81, 0
1, 62471, Note_on_c, 6, 81, 104
1, 62477, Note_on_c, 0, 71, 0
1, 62477, Note_on_c, 0, 74, 0
1, 62478, Note_on_c, 0, 66, 0
1, 62478, Note_on_c, 0, 67, 0
1, 62479, Note_on_c, 1, 33, 0
1, 62481, Note_on_c, 6, 81, 0
1, 62484, Note_on_c, 2, 69, 0
1, 62485, Note_on_c, 1, 45, 0
1, 62489, Note_on_c, 10, 62, 0
1, 62492, Note_on_c, 2, 71, 0
1, 62494, Note_on_c, 2, 62, 0
1, 62494, Note_on_c, 6, 79, 111
1, 62495, Note_on_c, 1, 43, 112
1, 62495, Note_on_c, 9, 42, 110
1, 62495, Note_on_c, 2, 62, 93
1, 62495, Note_on_c, 10, 59, 87
1, 62495, Note_on_c, 1, 31, 100
1, 62496, Note_on_c, 9, 42, 0
1, 62496, Note_on_c, 2, 67, 99
1, 62496, Note_on_c, 0, 71, 81
1, 62496, Note_on_c, 0, 74, 81
1, 62496, Note_on_c, 9, 36, 110
1, 62496, Note_on_c, 9, 39, 110
1, 62496, Note_on_c, 9, 60, 77
1, 62496, Note_on_c, 9, 40, 110
1, 62496, Note_on_c, 10, 64, 102
1, 62496, Note_on_c, 0, 67, 79
1, 62497, Note_on_c, 9, 40, 0
1, 62497, Note_on_c, 9, 39, 0
1, 62497, Note_on_c, 9, 36, 0
1, 62497, Note_on_c, 9, 60, 0
1, 62497, Note_on_c, 0, 66, 87
1, 62498, Note_on_c, 2, 71, 91
1, 62540, Note_on_c, 10, 64, 0
1, 62543, Note_on_c, 6, 79, 0
1, 62544, Note_on_c, 10, 66, 111
1, 62545, Note_on_c, 10, 59, 0
1, 62545, Note_on_c, 9, 42, 42
1, 62545, Note_on_c, 10, 62, 106
1, 62545, Note_on_c, 6, 81, 104
1, 62546, Note_on_c, 9, 42, 0
1, 62550, Note_on_c, 2, 71, 0
1, 62555, Note_on_c, 2, 62, 0
1, 62556, Note_on_c, 0, 66, 0
1, 62559, Note_on_c, 6, 81, 0
1, 62562, Note_on_c, 2, 67, 0
1, 62562, Note_on_c, 0, 67, 0
1, 62563, Note_on_c, 0, 71, 0
1, 62564, Note_on_c, 0, 74, 0
1, 62565, Note_on_c, 10, 66, 0
1, 62566, Note_on_c, 10, 62, 0
1, 62572, Note_on_c, 1, 31, 0
1, 62574, Note_on_c, 1, 43, 0
1, 62592, Note_on_c, 9, 42, 96
1, 62592, Note_on_c, 9, 36, 110
1, 62593, Note_on_c, 9, 36, 0
1, 62593, Note_on_c, 9, 42, 0
1, 62593, Note_on_c, 1, 42, 99
1, 62593, Note_on_c, 2, 63, 100
1, 62593, Note_on_c, 0, 76, 83
1, 62593, Note_on_c, 0, 73, 71
1, 62593, Note_on_c, 0, 69, 75
1, 62593, Note_on_c, 1, 30, 97
1, 62594, Note_on_c, 2, 68, 93
1, 62618, Note_on_c, 2, 69, 86
1, 62619, Note_on_c, 2, 68, 0
1, 62621, Note_on_c, 2, 64, 86
1, 62624, Note_on_c, 2, 63, 0
1, 62639, Note_on_c, 9, 42, 37
1, 62640, Note_on_c, 9, 42, 0
1, 62667, Note_on_c, 2, 69, 0
1, 62667, Note_on_c, 2, 73, 103
1, 62668, Note_on_c, 2, 69, 97
1, 62681, Note_on_c, 2, 64, 0
1, 62687, Note_on_c, 9, 42, 110
1, 62688, Note_on_c, 9, 42, 0
1, 62688, Note_on_c, 9, 60, 77
1, 62688, Note_on_c, 9, 39, 110
1, 62688, Note_on_c, 9, 40, 95
1, 62689, Note_on_c, 9, 40, 0
1, 62689, Note_on_c, 9, 39, 0
1, 62689, Note_on_c, 9, 60, 0
1, 62693, Note_on_c, 2, 69, 0
1, 62693, Note_on_c, 0, 76, 0
1, 62694, Note_on_c, 2, 73, 0
1, 62696, Note_on_c, 0, 73, 0
1, 62696, Note_on_c, 0, 69, 0
1, 62700, Note_on_c, 1, 30, 0
1, 62703, Note_on_c, 1, 42, 0
1, 62735, Note_on_c, 0, 74, 82
1, 62735, Note_on_c, 0, 78, 73
1, 62735, Note_on_c, 0, 69, 78
1, 62736, Note_on_c, 9, 42, 44
1, 62736, Note_on_c, 10, 57, 97
1, 62736, Note_on_c, 9, 36, 91
1, 62736, Note_on_c, 1, 35, 98
1, 62736, Note_on_c, 2, 66, 103
1, 62736, Note_on_c, 1, 47, 110
1, 62736, Note_on_c, 2, 62, 90
1, 62737, Note_on_c, 9, 36, 0
1, 62737, Note_on_c, 9, 42, 0
1, 62738, Note_on_c, 2, 71, 103
1, 62750, Note_on_c, 2, 71, 0
1, 62757, Note_on_c, 2, 62, 0
1, 62758, Note_on_c, 10, 57, 0
1, 62761, Note_on_c, 2, 66, 0
1, 62783, Note_on_c, 9, 42, 95
1, 62784, Note_on_c, 9, 42, 0
1, 62784, Note_on_c, 9, 36, 110
1, 62785, Note_on_c, 9, 36, 0
1, 62809, Note_on_c, 2, 61, 70
1, 62809, Note_on_c, 2, 64, 80
1, 62810, Note_on_c, 0, 74, 0
1, 62810, Note_on_c, 0, 78, 0
1, 62822, Note_on_c, 0, 69, 0
1, 62824, Note_on_c, 1, 47, 0
1, 62824, Note_on_c, 2, 61, 0
1, 62829, Note_on_c, 6, 83, 127
1, 62830, Note_on_c, 1, 35, 0
1, 62830, Note_on_c, 2, 64, 0
1, 62831, Note_on_c, 1, 33, 100
1, 62831, Note_on_c, 9, 42, 39
1, 62831, Note_on_c, 1, 45, 97
1, 62832, Note_on_c, 9, 42, 0
1, 62832, Note_on_c, 10, 57, 92
1, 62832, Note_on_c, 2, 61, 91
1, 62833, Note_on_c, 0, 76, 68
1, 62833, Note_on_c, 0, 69, 66
1, 62833, Note_on_c, 0, 73, 75
1, 62836, Note_on_c, 4, 69, 52
1, 62836, Lyric_t, "Hey, "
1, 62836, Note_on_c, 3, 81, 95
1, 62844, Note_on_c, 0, 76, 0
1, 62845, Note_on_c, 0, 69, 0
1, 62847, Note_on_c, 1, 45, 0
1, 62848, Note_on_c, 0, 73, 0
1, 62848, Note_on_c, 1, 33, 0
1, 62853, Note_on_c, 10, 57, 0
1, 62862, Note_on_c, 6, 83, 0
1, 62872, Note_on_c, 3, 81, 0
1, 62878, Note_on_c, 2, 61, 0
1, 62878, Note_on_c, 4, 69, 0
1, 62878, Note_on_c, 3, 78, 90
1, 62878, Note_on_c, 4, 66, 47
1, 62879, Note_on_c, 1, 35, 97
1, 62879, Note_on_c, 10, 57, 106
1, 62879, Note_on_c, 9, 42, 110
1, 62880, Note_on_c, 9, 42, 0
1, 62880, Note_on_c, 1, 47, 120
1, 62880, Note_on_c, 9, 39, 110
1, 62880, Note_on_c, 10, 66, 106
1, 62880, Note_on_c, 9, 36, 110
1, 62880, Note_on_c, 2, 62, 97
1, 62880, Note_on_c, 6, 81, 120
1, 62880, Note_on_c, 9, 40, 110
1, 62880, Note_on_c, 9, 60, 77
1, 62881, Note_on_c, 9, 60, 0
1, 62881, Note_on_c, 9, 36, 0
1, 62881, Note_on_c, 9, 39, 0
1, 62881, Note_on_c, 9, 40, 0
1, 62881, Note_on_c, 2, 66, 102
1, 62881, Note_on_c, 0, 69, 84
1, 62881, Note_on_c, 0, 74, 91
1, 62881, Note_on_c, 0, 78, 71
1, 62893, Note_on_c, 6, 81, 0
1, 62904, Note_on_c, 2, 62, 0
1, 62904, Note_on_c, 6, 81, 120
1, 62906, Note_on_c, 2, 66, 0
1, 62912, Note_on_c, 6, 81, 0
1, 62924, Note_on_c, 6, 83, 125
1, 62926, Note_on_c, 10, 57, 0
1, 62926, Pitch_bend_c, 4, 6787
1, 62926, Pitch_bend_c, 3, 6787
1, 62927, Note_on_c, 10, 66, 0
1, 62928, Note_on_c, 10, 59, 106
1, 62928, Note_on_c, 10, 64, 106
1, 62928, Pitch_bend_c, 4, 3628
1, 62928, Pitch_bend_c, 3, 3628
1, 62929, Note_on_c, 9, 42, 42
1, 62930, Note_on_c, 9, 42, 0
1, 62932, Pitch_bend_c, 3, 1639
1, 62932, Pitch_bend_c, 4, 1639
1, 62934, Pitch_bend_c, 4, 2224
1, 62934, Pitch_bend_c, 3, 2224
1, 62939, Note_on_c, 0, 78, 0
1, 62942, Pitch_bend_c, 3, 8192
1, 62942, Pitch_bend_c, 4, 8192
1, 62945, Note_on_c, 0, 74, 0
1, 62948, Note_on_c, 0, 69, 0
1, 62950, Note_on_c, 10, 59, 0
1, 62950, Note_on_c, 10, 64, 0
1, 62951, Note_on_c, 6, 83, 0
1, 62966, Note_on_c, 1, 35, 0
1, 62966, Note_on_c, 1, 47, 0
1, 62976, Note_on_c, 10, 57, 91
1, 62976, Note_on_c, 0, 66, 96
1, 62976, Note_on_c, 9, 42, 96
1, 62976, Note_on_c, 1, 28, 104
1, 62976, Note_on_c, 9, 36, 110
1, 62977, Note_on_c, 9, 36, 0
1, 62977, Note_on_c, 9, 42, 0
1, 62977, Note_on_c, 0, 71, 81
1, 62977, Note_on_c, 1, 40, 110
1, 62977, Note_on_c, 9, 43, 86
1, 62977, Note_on_c, 0, 74, 82
1, 62977, Note_on_c, 0, 67, 81
1, 62978, Note_on_c, 9, 43, 0
1, 62989, Note_on_c, 3, 78, 0
1, 62999, Note_on_c, 2, 74, 96
1, 63000, Note_on_c, 2, 67, 93
1, 63002, Note_on_c, 2, 62, 50
1, 63017, Note_on_c, 2, 62, 0
1, 63020, Note_on_c, 2, 67, 0
1, 63021, Note_on_c, 2, 62, 78
1, 63023, Note_on_c, 2, 74, 0
1, 63023, Note_on_c, 9, 42, 37
1, 63023, Note_on_c, 2, 67, 96
1, 63024, Note_on_c, 9, 42, 0
1, 63024, Note_on_c, 2, 74, 97
1, 63044, Note_on_c, 2, 74, 0
1, 63047, Note_on_c, 2, 67, 0
1, 63047, Note_on_c, 10, 57, 0
1, 63047, Note_on_c, 2, 74, 101
1, 63048, Note_on_c, 2, 67, 100
1, 63049, Note_on_c, 2, 62, 0
1, 63050, Note_on_c, 2, 62, 81
1, 63069, Note_on_c, 2, 67, 0
1, 63070, Note_on_c, 2, 74, 0
1, 63071, Note_on_c, 4, 66, 0
1, 63071, Note_on_c, 2, 67, 100
1, 63071, Note_on_c, 4, 62, 52
1, 63071, Note_on_c, 10, 59, 98
1, 63071, Lyric_t, "all "
1, 63071, Note_on_c, 2, 74, 96
1, 63071, Note_on_c, 9, 42, 110
1, 63071, Note_on_c, 3, 74, 95
1, 63072, Note_on_c, 9, 42, 0
1, 63072, Note_on_c, 9, 40, 95
1, 63072, Note_on_c, 9, 60, 77
1, 63072, Note_on_c, 9, 39, 110
1, 63073, Note_on_c, 9, 39, 0
1, 63073, Note_on_c, 9, 60, 0
1, 63073, Note_on_c, 9, 40, 0
1, 63079, Note_on_c, 2, 62, 0
1, 63087, Note_on_c, 2, 74, 0
1, 63088, Note_on_c, 1, 28, 0
1, 63088, Note_on_c, 2, 67, 0
1, 63090, Note_on_c, 0, 66, 0
1, 63092, Note_on_c, 1, 40, 0
1, 63095, Note_on_c, 0, 71, 0
1, 63096, Note_on_c, 0, 74, 0
1, 63097, Note_on_c, 0, 67, 0
1, 63118, Note_on_c, 3, 74, 0
1, 63119, Note_on_c, 10, 59, 0
1, 63119, Note_on_c, 0, 74, 76
1, 63119, Note_on_c, 1, 31, 114
1, 63119, Note_on_c, 0, 71, 78
1, 63119, Note_on_c, 2, 62, 84
1, 63119, Note_on_c, 0, 66, 78
1, 63119, Note_on_c, 2, 67, 101
1, 63119, Note_on_c, 0, 67, 69
1, 63119, Note_on_c, 1, 43, 100
1, 63120, Note_on_c, 9, 36, 91
1, 63120, Note_on_c, 9, 42, 44
1, 63120, Note_on_c, 2, 71, 103
1, 63121, Note_on_c, 9, 42, 0
1, 63121, Note_on_c, 9, 36, 0
1, 63121, Note_on_c, 10, 57, 86
1, 63128, Note_on_c, 0, 67, 0
1, 63128, Note_on_c, 0, 74, 0
1, 63130, Note_on_c, 0, 71, 0
1, 63131, Note_on_c, 0, 66, 0
1, 63132, Note_on_c, 2, 71, 0
1, 63135, Note_on_c, 2, 67, 0
1, 63136, Note_on_c, 2, 62, 0
1, 63137, Note_on_c, 1, 31, 0
1, 63137, Note_on_c, 1, 43, 0
1, 63139, Note_on_c, 10, 57, 0
1, 63166, Note_on_c, 4, 62, 0
1, 63167, Note_on_c, 2, 59, 83
1, 63167, Lyric_t, "right, "
1, 63167, Note_on_c, 0, 66, 87
1, 63167, Note_on_c, 3, 74, 101
1, 63167, Note_on_c, 0, 71, 81
1, 63167, Note_on_c, 4, 62, 58
1, 63167, Note_on_c, 9, 42, 95
1, 63167, Note_on_c, 1, 45, 117
1, 63167, Note_on_c, 1, 33, 112
1, 63167, Note_on_c, 0, 74, 83
1, 63167, Note_on_c, 0, 67, 82
1, 63168, Note_on_c, 9, 42, 0
1, 63168, Note_on_c, 9, 36, 110
1, 63168, Note_on_c, 2, 62, 101
1, 63169, Note_on_c, 9, 36, 0
1, 63169, Note_on_c, 10, 62, 98
1, 63170, Note_on_c, 2, 69, 97
1, 63171, Note_on_c, 2, 71, 23
1, 63215, Note_on_c, 4, 62, 0
1, 63215, Note_on_c, 3, 71, 76
1, 63215, Note_on_c, 9, 42, 39
1, 63215, Note_on_c, 4, 59, 33
1, 63216, Note_on_c, 9, 42, 0
1, 63217, Note_on_c, 6, 81, 120
1, 63218, Note_on_c, 3, 74, 0
1, 63225, Note_on_c, 6, 81, 0
1, 63239, Note_on_c, 6, 81, 104
1, 63245, Note_on_c, 0, 74, 0
1, 63245, Note_on_c, 0, 71, 0
1, 63246, Note_on_c, 0, 67, 0
1, 63246, Note_on_c, 0, 66, 0
1, 63247, Note_on_c, 1, 33, 0
1, 63249, Note_on_c, 6, 81, 0
1, 63253, Note_on_c, 1, 45, 0
1, 63257, Note_on_c, 10, 62, 0
1, 63262, Note_on_c, 2, 62, 0
1, 63262, Note_on_c, 2, 69, 0
1, 63262, Note_on_c, 6, 79, 111
1, 63263, Note_on_c, 2, 71, 0
1, 63263, Note_on_c, 1, 43, 112
1, 63263, Note_on_c, 9, 42, 110
1, 63263, Note_on_c, 2, 62, 94
1, 63263, Note_on_c, 1, 31, 100
1, 63264, Note_on_c, 9, 42, 0
1, 63264, Note_on_c, 9, 39, 110
1, 63264, Note_on_c, 9, 40, 110
1, 63264, Note_on_c, 10, 64, 113
1, 63264, Note_on_c, 9, 36, 110
1, 63264, Note_on_c, 0, 74, 81
1, 63264, Note_on_c, 0, 71, 81
1, 63264, Note_on_c, 9, 60, 77
1, 63264, Note_on_c, 0, 67, 79
1, 63265, Note_on_c, 9, 60, 0
1, 63265, Note_on_c, 9, 40, 0
1, 63265, Note_on_c, 9, 39, 0
1, 63265, Note_on_c, 9, 36, 0
1, 63265, Note_on_c, 0, 66, 87
1, 63265, Note_on_c, 2, 67, 85
1, 63266, Note_on_c, 2, 71, 103
1, 63277, Note_on_c, 3, 71, 0
1, 63302, Note_on_c, 2, 59, 0
1, 63304, Note_on_c, 2, 71, 0
1, 63306, Note_on_c, 2, 62, 0
1, 63307, Note_on_c, 2, 67, 0
1, 63308, Note_on_c, 10, 64, 0
1, 63311, Note_on_c, 6, 79, 0
1, 63313, Note_on_c, 6, 81, 104
1, 63313, Note_on_c, 9, 42, 42
1, 63313, Note_on_c, 10, 59, 97
1, 63314, Note_on_c, 9, 42, 0
1, 63324, Note_on_c, 0, 66, 0
1, 63327, Note_on_c, 6, 81, 0
1, 63330, Note_on_c, 0, 67, 0
1, 63331, Note_on_c, 0, 71, 0
1, 63332, Note_on_c, 0, 74, 0
1, 63334, Note_on_c, 10, 59, 0
1, 63337, Note_on_c, 2, 68, 78
1, 63340, Note_on_c, 1, 31, 0
1, 63342, Note_on_c, 1, 43, 0
1, 63352, Note_on_c, 2, 68, 0
1, 63359, Note_on_c, 2, 63, 80
1, 63360, Note_on_c, 9, 42, 96
1, 63360, Note_on_c, 6, 81, 116
1, 63360, Note_on_c, 9, 36, 110
1, 63360, Note_on_c, 6, 85, 116
1, 63360, Note_on_c, 6, 76, 116
1, 63361, Note_on_c, 9, 36, 0
1, 63361, Note_on_c, 9, 42, 0
1, 63361, Note_on_c, 4, 59, 0
1, 63361, Lyric_t, "ah! "
1, 63361, Note_on_c, 3, 76, 100
1, 63361, Note_on_c, 4, 64, 57
1, 63361, Note_on_c, 1, 30, 97
1, 63361, Note_on_c, 2, 68, 97
1, 63361, Lyric_t, ""
1, 63361, Lyric_t, "\015"
1, 63361, Note_on_c, 0, 69, 75
1, 63361, Note_on_c, 0, 73, 71
1, 63361, Note_on_c, 1, 42, 99
1, 63361, Note_on_c, 0, 76, 83
1, 63361, Note_on_c, 2, 72, 101
1, 63381, Note_on_c, 2, 72, 0
1, 63382, Note_on_c, 2, 73, 89
1, 63384, Note_on_c, 2, 64, 74
1, 63385, Note_on_c, 2, 63, 0
1, 63385, Note_on_c, 2, 69, 81
1, 63386, Note_on_c, 2, 68, 0
1, 63407, Note_on_c, 9, 42, 37
1, 63408, Note_on_c, 9, 42, 0
1, 63432, Note_on_c, 3, 76, 0
1, 63433, Note_on_c, 2, 73, 0
1, 63434, Note_on_c, 2, 69, 0
1, 63434, Note_on_c, 2, 73, 101
1, 63435, Note_on_c, 2, 64, 0
1, 63435, Note_on_c, 2, 69, 96
1, 63436, Note_on_c, 2, 64, 84
1, 63455, Note_on_c, 9, 42, 110
1, 63456, Note_on_c, 9, 42, 0
1, 63456, Note_on_c, 9, 60, 77
1, 63456, Note_on_c, 9, 39, 110
1, 63456, Note_on_c, 9, 40, 95
1, 63457, Note_on_c, 9, 40, 0
1, 63457, Note_on_c, 2, 73, 0
1, 63457, Note_on_c, 9, 39, 0
1, 63457, Note_on_c, 9, 60, 0
1, 63460, Note_on_c, 2, 64, 0
1, 63461, Note_on_c, 2, 69, 0
1, 63461, Note_on_c, 0, 76, 0
1, 63464, Note_on_c, 0, 69, 0
1, 63464, Note_on_c, 0, 73, 0
1, 63468, Note_on_c, 1, 30, 0
1, 63471, Note_on_c, 1, 42, 0
1, 63503, Note_on_c, 6, 85, 0
1, 63503, Note_on_c, 6, 81, 0
1, 63503, Note_on_c, 6, 76, 0
1, 63503, Note_on_c, 0, 74, 82
1, 63503, Note_on_c, 2, 62, 101
1, 63503, Note_on_c, 2, 66, 101
1, 63503, Note_on_c, 0, 78, 73
1, 63503, Note_on_c, 6, 83, 108
1, 63503, Note_on_c, 0, 69, 78
1, 63504, Note_on_c, 9, 42, 44
1, 63504, Note_on_c, 6, 78, 99
1, 63504, Note_on_c, 6, 74, 100
1, 63504, Note_on_c, 9, 36, 91
1, 63504, Note_on_c, 1, 47, 110
1, 63504, Note_on_c, 1, 35, 98
1, 63504, Note_on_c, 2, 71, 105
1, 63505, Note_on_c, 9, 36, 0
1, 63505, Note_on_c, 9, 42, 0
1, 63522, Note_on_c, 6, 74, 0
1, 63522, Note_on_c, 6, 78, 0
1, 63526, Note_on_c, 6, 83, 0
1, 63551, Note_on_c, 2, 66, 0
1, 63551, Note_on_c, 9, 42, 95
1, 63552, Note_on_c, 9, 42, 0
1, 63552, Note_on_c, 9, 36, 110
1, 63553, Note_on_c, 9, 36, 0
1, 63554, Note_on_c, 2, 62, 0
1, 63554, Note_on_c, 2, 71, 0
1, 63555, Note_on_c, 4, 64, 0
1, 63578, Note_on_c, 0, 74, 0
1, 63578, Note_on_c, 0, 78, 0
1, 63590, Note_on_c, 0, 69, 0
1, 63592, Note_on_c, 1, 47, 0
1, 63598, Note_on_c, 1, 35, 0
1, 63599, Note_on_c, 9, 42, 39
1, 63599, Note_on_c, 1, 33, 100
1, 63599, Note_on_c, 1, 45, 97
1, 63599, Note_on_c, 2, 61, 94
1, 63600, Note_on_c, 9, 42, 0
1, 63601, Note_on_c, 0, 69, 66
1, 63601, Note_on_c, 2, 64, 101
1, 63601, Note_on_c, 0, 76, 68
1, 63601, Note_on_c, 0, 73, 75
1, 63612, Note_on_c, 0, 76, 0
1, 63613, Note_on_c, 0, 69, 0
1, 63615, Note_on_c, 1, 45, 0
1, 63616, Note_on_c, 1, 33, 0
1, 63616, Note_on_c, 0, 73, 0
1, 63644, Note_on_c, 2, 61, 0
1, 63644, Note_on_c, 2, 64, 0
1, 63647, Note_on_c, 1, 35, 97
1, 63647, Note_on_c, 2, 62, 96
1, 63647, Note_on_c, 9, 42, 110
1, 63648, Note_on_c, 9, 42, 0
1, 63648, Note_on_c, 9, 36, 110
1, 63648, Note_on_c, 9, 39, 110
1, 63648, Note_on_c, 2, 66, 100
1, 63648, Note_on_c, 9, 40, 110
1, 63648, Note_on_c, 9, 60, 77
1, 63648, Note_on_c, 1, 47, 120
1, 63649, Note_on_c, 9, 60, 0
1, 63649, Note_on_c, 9, 36, 0
1, 63649, Note_on_c, 9, 39, 0
1, 63649, Note_on_c, 9, 40, 0
1, 63649, Note_on_c, 0, 78, 71
1, 63649, Note_on_c, 0, 69, 84
1, 63649, Note_on_c, 0, 74, 91
1, 63667, Note_on_c, 2, 66, 0
1, 63667, Note_on_c, 2, 62, 0
1, 63697, Note_on_c, 9, 42, 42
1, 63698, Note_on_c, 9, 42, 0
1, 63707, Note_on_c, 0, 78, 0
1, 63713, Note_on_c, 0, 74, 0
1, 63716, Note_on_c, 0, 69, 0
1, 63734, Note_on_c, 1, 35, 0
1, 63734, Note_on_c, 1, 47, 0
1, 63744, Note_on_c, 10, 57, 91
1, 63744, Note_on_c, 1, 28, 104
1, 63744, Note_on_c, 6, 83, 127
1, 63744, Note_on_c, 9, 42, 96
1, 63744, Note_on_c, 9, 36, 110
1, 63744, Note_on_c, 0, 66, 96
1, 63745, Note_on_c, 9, 36, 0
1, 63745, Note_on_c, 9, 42, 0
1, 63745, Note_on_c, 0, 71, 81
1, 63745, Note_on_c, 1, 40, 110
1, 63745, Note_on_c, 0, 74, 82
1, 63745, Note_on_c, 0, 67, 81
1, 63745, Note_on_c, 9, 43, 84
1, 63746, Note_on_c, 9, 43, 0
1, 63767, Note_on_c, 2, 74, 76
1, 63780, Note_on_c, 6, 82, 105
1, 63788, Note_on_c, 2, 74, 0
1, 63788, Note_on_c, 6, 83, 0
1, 63788, Note_on_c, 6, 81, 101
1, 63789, Note_on_c, 2, 62, 55
1, 63790, Note_on_c, 2, 67, 99
1, 63791, Note_on_c, 9, 42, 37
1, 63791, Note_on_c, 2, 74, 99
1, 63792, Note_on_c, 9, 42, 0
1, 63793, Note_on_c, 6, 80, 96
1, 63796, Note_on_c, 6, 82, 0
1, 63799, Note_on_c, 6, 81, 0
1, 63800, Note_on_c, 6, 79, 89
1, 63805, Note_on_c, 6, 80, 0
1, 63805, Note_on_c, 6, 78, 81
1, 63808, Note_on_c, 6, 79, 0
1, 63811, Note_on_c, 6, 78, 0
1, 63811, Note_on_c, 2, 74, 0
1, 63811, Note_on_c, 6, 77, 78
1, 63814, Note_on_c, 2, 67, 0
1, 63814, Note_on_c, 2, 74, 101
1, 63815, Note_on_c, 6, 77, 0
1, 63815, Note_on_c, 10, 57, 0
1, 63815, Note_on_c, 6, 76, 76
1, 63815, Note_on_c, 2, 67, 101
1, 63816, Note_on_c, 2, 62, 0
1, 63817, Note_on_c, 2, 62, 93
1, 63818, Note_on_c, 2, 59, 49
1, 63820, Note_on_c, 6, 76, 0
1, 63834, Note_on_c, 2, 62, 0
1, 63835, Note_on_c, 2, 67, 0
1, 63836, Note_on_c, 2, 74, 0
1, 63837, Note_on_c, 2, 62, 101
1, 63838, Note_on_c, 2, 67, 101
1, 63839, Note_on_c, 9, 42, 110
1, 63839, Note_on_c, 10, 59, 98
1, 63840, Note_on_c, 9, 42, 0
1, 63840, Note_on_c, 9, 40, 95
1, 63840, Note_on_c, 9, 60, 77
1, 63840, Note_on_c, 9, 39, 110
1, 63841, Note_on_c, 9, 39, 0
1, 63841, Note_on_c, 9, 60, 0
1, 63841, Note_on_c, 9, 40, 0
1, 63841, Note_on_c, 2, 74, 96
1, 63851, Note_on_c, 2, 74, 0
1, 63854, Note_on_c, 2, 62, 0
1, 63856, Note_on_c, 2, 59, 0
1, 63856, Note_on_c, 1, 28, 0
1, 63858, Note_on_c, 0, 66, 0
1, 63859, Note_on_c, 2, 67, 0
1, 63860, Note_on_c, 1, 40, 0
1, 63863, Note_on_c, 0, 71, 0
1, 63864, Note_on_c, 0, 74, 0
1, 63865, Note_on_c, 0, 67, 0
1, 63886, Note_on_c, 2, 62, 83
1, 63887, Note_on_c, 10, 59, 0
1, 63887, Note_on_c, 0, 66, 78
1, 63887, Note_on_c, 1, 43, 100
1, 63887, Note_on_c, 1, 31, 114
1, 63887, Note_on_c, 0, 71, 78
1, 63887, Note_on_c, 0, 67, 69
1, 63887, Note_on_c, 2, 67, 99
1, 63887, Note_on_c, 0, 74, 76
1, 63888, Note_on_c, 9, 42, 44
1, 63888, Note_on_c, 9, 36, 91
1, 63888, Note_on_c, 2, 71, 101
1, 63889, Note_on_c, 9, 36, 0
1, 63889, Note_on_c, 9, 42, 0
1, 63889, Note_on_c, 10, 57, 86
1, 63896, Note_on_c, 0, 67, 0
1, 63896, Note_on_c, 0, 74, 0
1, 63898, Note_on_c, 0, 71, 0
1, 63899, Note_on_c, 0, 66, 0
1, 63901, Note_on_c, 2, 71, 0
1, 63904, Note_on_c, 2, 62, 0
1, 63904, Note_on_c, 2, 67, 0
1, 63905, Note_on_c, 1, 31, 0
1, 63905, Note_on_c, 1, 43, 0
1, 63907, Note_on_c, 10, 57, 0
1, 63934, Note_on_c, 2, 59, 69
1, 63935, Note_on_c, 1, 45, 117
1, 63935, Note_on_c, 1, 33, 112
1, 63935, Note_on_c, 2, 62, 102
1, 63935, Note_on_c, 0, 71, 81
1, 63935, Note_on_c, 0, 74, 83
1, 63935, Note_on_c, 0, 66, 87
1, 63935, Note_on_c, 0, 67, 82
1, 63935, Note_on_c, 2, 69, 94
1, 63935, Note_on_c, 9, 42, 95
1, 63936, Note_on_c, 9, 42, 0
1, 63936, Note_on_c, 9, 36, 110
1, 63937, Note_on_c, 9, 36, 0
1, 63937, Note_on_c, 10, 62, 98
1, 63938, Note_on_c, 2, 71, 94
1, 63983, Note_on_c, 9, 42, 39
1, 63984, Note_on_c, 9, 42, 0
1, 63985, Note_on_c, 6, 81, 114
1, 63993, Note_on_c, 6, 81, 0
1, 64003, Note_on_c, 2, 71, 0
1, 64006, Note_on_c, 2, 71, 75
1, 64007, Note_on_c, 6, 81, 87
1, 64013, Note_on_c, 0, 74, 0
1, 64013, Note_on_c, 0, 71, 0
1, 64014, Note_on_c, 0, 67, 0
1, 64014, Note_on_c, 0, 66, 0
1, 64015, Note_on_c, 1, 33, 0
1, 64017, Note_on_c, 6, 81, 0
1, 64021, Note_on_c, 1, 45, 0
1, 64023, Note_on_c, 2, 69, 0
1, 64025, Note_on_c, 10, 62, 0
1, 64028, Note_on_c, 2, 62, 0
1, 64030, Note_on_c, 2, 71, 0
1, 64030, Note_on_c, 6, 79, 111
1, 64030, Note_on_c, 2, 62, 98
1, 64031, Note_on_c, 1, 31, 100
1, 64031, Note_on_c, 10, 59, 87
1, 64031, Note_on_c, 1, 43, 112
1, 64031, Note_on_c, 2, 71, 103
1, 64031, Note_on_c, 9, 42, 110
1, 64032, Note_on_c, 9, 42, 0
1, 64032, Note_on_c, 0, 67, 79
1, 64032, Note_on_c, 9, 39, 110
1, 64032, Note_on_c, 9, 60, 77
1, 64032, Note_on_c, 0, 71, 81
1, 64032, Note_on_c, 9, 36, 110
1, 64032, Note_on_c, 0, 74, 81
1, 64032, Note_on_c, 10, 64, 102
1, 64032, Note_on_c, 9, 40, 110
1, 64033, Note_on_c, 9, 40, 0
1, 64033, Note_on_c, 9, 39, 0
1, 64033, Note_on_c, 9, 36, 0
1, 64033, Note_on_c, 9, 60, 0
1, 64033, Note_on_c, 0, 66, 87
1, 64034, Note_on_c, 2, 67, 97
1, 64049, Note_on_c, 2, 71, 0
1, 64055, Note_on_c, 2, 71, 101
1, 64067, Note_on_c, 2, 71, 0
1, 64067, Note_on_c, 2, 59, 0
1, 64069, Note_on_c, 2, 62, 0
1, 64071, Note_on_c, 2, 67, 0
1, 64076, Note_on_c, 10, 64, 0
1, 64079, Note_on_c, 6, 79, 0
1, 64080, Note_on_c, 10, 66, 111
1, 64080, Note_on_c, 2, 62, 60
1, 64081, Note_on_c, 10, 59, 0
1, 64081, Note_on_c, 6, 81, 104
1, 64081, Note_on_c, 9, 42, 42
1, 64081, Note_on_c, 10, 62, 106
1, 64082, Note_on_c, 9, 42, 0
1, 64084, Note_on_c, 2, 62, 0
1, 64092, Note_on_c, 0, 66, 0
1, 64095, Note_on_c, 6, 81, 0
1, 64098, Note_on_c, 0, 67, 0
1, 64099, Note_on_c, 0, 71, 0
1, 64100, Note_on_c, 0, 74, 0
1, 64101, Note_on_c, 10, 66, 0
1, 64102, Note_on_c, 10, 62, 0
1, 64108, Note_on_c, 1, 31, 0
1, 64110, Note_on_c, 1, 43, 0
1, 64128, Note_on_c, 9, 42, 96
1, 64128, Note_on_c, 9, 36, 110
1, 64129, Note_on_c, 9, 36, 0
1, 64129, Note_on_c, 9, 42, 0
1, 64129, Note_on_c, 1, 42, 99
1, 64129, Note_on_c, 0, 69, 75
1, 64129, Note_on_c, 0, 76, 83
1, 64129, Note_on_c, 2, 63, 33
1, 64129, Note_on_c, 0, 73, 71
1, 64129, Note_on_c, 1, 30, 97
1, 64129, Note_on_c, 2, 68, 97
1, 64130, Note_on_c, 2, 72, 100
1, 64132, Lyric_t, "Mm, "
1, 64132, Note_on_c, 3, 76, 105
1, 64132, Note_on_c, 4, 64, 62
1, 64155, Note_on_c, 2, 72, 0
1, 64155, Note_on_c, 2, 69, 81
1, 64155, Note_on_c, 2, 73, 83
1, 64156, Note_on_c, 2, 64, 26
1, 64157, Note_on_c, 2, 68, 0
1, 64160, Note_on_c, 2, 63, 0
1, 64175, Note_on_c, 9, 42, 37
1, 64176, Note_on_c, 9, 42, 0
1, 64186, Note_on_c, 2, 64, 0
1, 64196, Note_on_c, 2, 73, 0
1, 64197, Note_on_c, 2, 69, 0
1, 64199, Note_on_c, 2, 73, 100
1, 64201, Note_on_c, 2, 69, 87
1, 64202, Note_on_c, 3, 76, 0
1, 64223, Note_on_c, 9, 42, 110
1, 64224, Note_on_c, 9, 42, 0
1, 64224, Note_on_c, 2, 69, 0
1, 64224, Note_on_c, 9, 39, 110
1, 64224, Note_on_c, 9, 40, 95
1, 64224, Note_on_c, 9, 60, 77
1, 64225, Note_on_c, 9, 60, 0
1, 64225, Note_on_c, 9, 40, 0
1, 64225, Note_on_c, 9, 39, 0
1, 64226, Note_on_c, 2, 73, 0
1, 64229, Note_on_c, 0, 76, 0
1, 64232, Note_on_c, 0, 73, 0
1, 64232, Note_on_c, 0, 69, 0
1, 64236, Note_on_c, 1, 30, 0
1, 64239, Note_on_c, 1, 42, 0
1, 64270, Note_on_c, 2, 62, 89
1, 64271, Note_on_c, 4, 64, 0
1, 64271, Note_on_c, 4, 59, 18
1, 64271, Note_on_c, 0, 78, 73
1, 64271, Lyric_t, "mm "
1, 64271, Note_on_c, 3, 71, 61
1, 64271, Note_on_c, 2, 66, 103
1, 64271, Note_on_c, 0, 74, 82
1, 64271, Note_on_c, 0, 69, 78
1, 64272, Note_on_c, 1, 47, 110
1, 64272, Note_on_c, 1, 35, 98
1, 64272, Note_on_c, 9, 42, 44
1, 64272, Note_on_c, 9, 36, 91
1, 64272, Note_on_c, 10, 57, 97
1, 64273, Note_on_c, 9, 36, 0
1, 64273, Note_on_c, 9, 42, 0
1, 64294, Note_on_c, 10, 57, 0
1, 64301, Note_on_c, 3, 71, 0
1, 64319, Note_on_c, 9, 42, 95
1, 64320, Note_on_c, 9, 42, 0
1, 64320, Note_on_c, 9, 36, 110
1, 64321, Note_on_c, 9, 36, 0
1, 64324, Note_on_c, 4, 59, 0
1, 64324, Note_on_c, 3, 74, 85
1, 64324, Note_on_c, 4, 62, 42
1, 64324, Lyric_t, ""
1, 64324, Lyric_t, "\015"
1, 64324, Lyric_t, "mm. "
1, 64346, Note_on_c, 0, 78, 0
1, 64346, Note_on_c, 0, 74, 0
1, 64358, Note_on_c, 0, 69, 0
1, 64359, Note_on_c, 2, 66, 0
1, 64360, Note_on_c, 1, 47, 0
1, 64364, Note_on_c, 2, 62, 0
1, 64365, Note_on_c, 6, 83, 127
1, 64365, Note_on_c, 2, 61, 91
1, 64366, Note_on_c, 1, 35, 0
1, 64367, Note_on_c, 2, 64, 102
1, 64367, Note_on_c, 1, 45, 97
1, 64367, Note_on_c, 9, 42, 39
1, 64367, Note_on_c, 1, 33, 100
1, 64368, Note_on_c, 9, 42, 0
1, 64368, Note_on_c, 10, 57, 92
1, 64369, Note_on_c, 0, 69, 66
1, 64369, Note_on_c, 0, 73, 75
1, 64369, Note_on_c, 0, 76, 68
1, 64380, Note_on_c, 0, 76, 0
1, 64381, Note_on_c, 0, 69, 0
1, 64383, Note_on_c, 1, 45, 0
1, 64384, Note_on_c, 1, 33, 0
1, 64384, Note_on_c, 0, 73, 0
1, 64389, Note_on_c, 10, 57, 0
1, 64398, Note_on_c, 6, 83, 0
1, 64411, Note_on_c, 2, 64, 0
1, 64413, Note_on_c, 2, 61, 0
1, 64413, Note_on_c, 3, 74, 0
1, 64415, Note_on_c, 2, 62, 99
1, 64415, Note_on_c, 9, 42, 110
1, 64415, Note_on_c, 1, 35, 97
1, 64415, Note_on_c, 10, 59, 106
1, 64416, Note_on_c, 9, 42, 0
1, 64416, Note_on_c, 2, 66, 103
1, 64416, Note_on_c, 9, 60, 77
1, 64416, Note_on_c, 1, 47, 120
1, 64416, Note_on_c, 9, 36, 110
1, 64416, Note_on_c, 6, 81, 122
1, 64416, Note_on_c, 9, 39, 110
1, 64416, Note_on_c, 9, 40, 110
1, 64417, Note_on_c, 9, 40, 0
1, 64417, Note_on_c, 9, 60, 0
1, 64417, Note_on_c, 9, 39, 0
1, 64417, Note_on_c, 9, 36, 0
1, 64417, Note_on_c, 0, 69, 84
1, 64417, Note_on_c, 0, 78, 71
1, 64417, Note_on_c, 0, 74, 91
1, 64431, Note_on_c, 6, 81, 0
1, 64432, Note_on_c, 2, 66, 0
1, 64437, Note_on_c, 2, 62, 0
1, 64440, Note_on_c, 6, 81, 114
1, 64448, Note_on_c, 6, 81, 0
1, 64460, Note_on_c, 6, 83, 125
1, 64462, Note_on_c, 10, 59, 0
1, 64464, Note_on_c, 10, 59, 106
1, 64464, Note_on_c, 10, 62, 106
1, 64465, Note_on_c, 9, 42, 42
1, 64466, Note_on_c, 9, 42, 0
1, 64475, Note_on_c, 0, 78, 0
1, 64481, Note_on_c, 0, 74, 0
1, 64484, Note_on_c, 0, 69, 0
1, 64486, Note_on_c, 10, 62, 0
1, 64486, Note_on_c, 10, 59, 0
1, 64487, Note_on_c, 6, 83, 0
1, 64502, Note_on_c, 1, 47, 0
1, 64502, Note_on_c, 1, 35, 0
1, 64512, Note_on_c, 0, 66, 96
1, 64512, Note_on_c, 9, 42, 96
1, 64512, Note_on_c, 9, 36, 110
1, 64512, Note_on_c, 10, 57, 91
1, 64512, Note_on_c, 1, 28, 104
1, 64513, Note_on_c, 9, 36, 0
1, 64513, Note_on_c, 9, 42, 0
1, 64513, Note_on_c, 0, 74, 82
1, 64513, Note_on_c, 1, 40, 110
1, 64513, Note_on_c, 0, 67, 81
1, 64513, Note_on_c, 0, 71, 81
1, 64513, Note_on_c, 9, 43, 86
1, 64514, Note_on_c, 9, 43, 0
1, 64516, Note_on_c, 4, 62, 0
1, 64536, Note_on_c, 2, 74, 77
1, 64538, Note_on_c, 2, 67, 74
1, 64557, Note_on_c, 2, 67, 0
1, 64558, Note_on_c, 2, 62, 55
1, 64559, Note_on_c, 2, 74, 0
1, 64559, Note_on_c, 2, 67, 97
1, 64559, Note_on_c, 9, 42, 37
1, 64560, Note_on_c, 9, 42, 0
1, 64560, Note_on_c, 2, 74, 96
1, 64583, Note_on_c, 2, 74, 0
1, 64583, Note_on_c, 10, 57, 0
1, 64584, Note_on_c, 2, 67, 0
1, 64584, Note_on_c, 2, 74, 99
1, 64585, Note_on_c, 2, 67, 95
1, 64605, Note_on_c, 2, 67, 0
1, 64606, Note_on_c, 2, 74, 0
1, 64606, Note_on_c, 2, 62, 0
1, 64607, Note_on_c, 9, 42, 110
1, 64607, Note_on_c, 2, 62, 101
1, 64607, Note_on_c, 10, 59, 98
1, 64607, Note_on_c, 2, 74, 99
1, 64607, Note_on_c, 2, 67, 99
1, 64608, Note_on_c, 9, 42, 0
1, 64608, Note_on_c, 9, 60, 77
1, 64608, Note_on_c, 9, 40, 95
1, 64608, Note_on_c, 9, 39, 110
1, 64609, Note_on_c, 9, 39, 0
1, 64609, Note_on_c, 9, 40, 0
1, 64609, Note_on_c, 9, 60, 0
1, 64622, Note_on_c, 2, 74, 0
1, 64624, Note_on_c, 1, 28, 0
1, 64625, Note_on_c, 2, 62, 0
1, 64626, Note_on_c, 0, 66, 0
1, 64627, Note_on_c, 2, 67, 0
1, 64628, Note_on_c, 1, 40, 0
1, 64631, Note_on_c, 0, 71, 0
1, 64632, Note_on_c, 0, 74, 0
1, 64633, Note_on_c, 0, 67, 0
1, 64655, Note_on_c, 10, 59, 0
1, 64655, Note_on_c, 0, 71, 78
1, 64655, Note_on_c, 0, 66, 78
1, 64655, Note_on_c, 0, 74, 76
1, 64655, Note_on_c, 1, 31, 114
1, 64655, Note_on_c, 0, 67, 69
1, 64655, Note_on_c, 2, 62, 98
1, 64655, Note_on_c, 2, 67, 97
1, 64655, Note_on_c, 1, 43, 100
1, 64656, Note_on_c, 9, 42, 44
1, 64656, Note_on_c, 9, 36, 91
1, 64657, Note_on_c, 9, 36, 0
1, 64657, Note_on_c, 9, 42, 0
1, 64657, Note_on_c, 10, 57, 86
1, 64658, Note_on_c, 2, 71, 102
1, 64664, Note_on_c, 0, 74, 0
1, 64664, Note_on_c, 0, 67, 0
1, 64666, Note_on_c, 0, 71, 0
1, 64667, Note_on_c, 0, 66, 0
1, 64671, Note_on_c, 2, 71, 0
1, 64672, Note_on_c, 2, 62, 0
1, 64673, Note_on_c, 1, 31, 0
1, 64673, Note_on_c, 1, 43, 0
1, 64675, Note_on_c, 10, 57, 0
1, 64675, Note_on_c, 2, 67, 0
1, 64703, Note_on_c, 0, 71, 81
1, 64703, Note_on_c, 0, 66, 87
1, 64703, Note_on_c, 0, 67, 82
1, 64703, Note_on_c, 9, 42, 95
1, 64703, Note_on_c, 0, 74, 83
1, 64704, Note_on_c, 9, 42, 0
1, 64704, Note_on_c, 1, 45, 117
1, 64704, Note_on_c, 1, 33, 112
1, 64704, Note_on_c, 9, 36, 110
1, 64705, Note_on_c, 9, 36, 0
1, 64705, Note_on_c, 2, 59, 77
1, 64705, Note_on_c, 10, 62, 98
1, 64706, Note_on_c, 2, 62, 101
1, 64707, Note_on_c, 2, 69, 97
1, 64708, Note_on_c, 2, 71, 96
1, 64751, Note_on_c, 9, 42, 39
1, 64752, Note_on_c, 9, 42, 0
1, 64753, Note_on_c, 6, 81, 120
1, 64761, Note_on_c, 6, 81, 0
1, 64775, Note_on_c, 6, 81, 104
1, 64781, Note_on_c, 0, 74, 0
1, 64781, Note_on_c, 0, 71, 0
1, 64782, Note_on_c, 0, 67, 0
1, 64782, Note_on_c, 0, 66, 0
1, 64784, Note_on_c, 1, 33, 0
1, 64785, Note_on_c, 6, 81, 0
1, 64790, Note_on_c, 1, 45, 0
1, 64792, Note_on_c, 2, 69, 0
1, 64793, Note_on_c, 10, 62, 0
1, 64797, Note_on_c, 2, 71, 0
1, 64798, Note_on_c, 6, 79, 111
1, 64799, Note_on_c, 9, 42, 110
1, 64800, Note_on_c, 9, 42, 0
1, 64800, Note_on_c, 0, 67, 79
1, 64800, Note_on_c, 9, 60, 77
1, 64800, Note_on_c, 9, 40, 110
1, 64800, Note_on_c, 0, 74, 81
1, 64800, Note_on_c, 0, 71, 81
1, 64800, Note_on_c, 10, 64, 113
1, 64800, Note_on_c, 1, 43, 112
1, 64800, Note_on_c, 9, 39, 110
1, 64800, Note_on_c, 1, 31, 100
1, 64800, Note_on_c, 9, 36, 110
1, 64800, Note_on_c, 2, 67, 100
1, 64801, Note_on_c, 9, 36, 0
1, 64801, Note_on_c, 9, 40, 0
1, 64801, Note_on_c, 9, 39, 0
1, 64801, Note_on_c, 9, 60, 0
1, 64801, Note_on_c, 0, 66, 87
1, 64802, Note_on_c, 2, 71, 103
1, 64808, Note_on_c, 2, 59, 0
1, 64809, Note_on_c, 2, 62, 0
1, 64811, Note_on_c, 2, 71, 0
1, 64815, Note_on_c, 2, 67, 0
1, 64844, Note_on_c, 10, 64, 0
1, 64847, Note_on_c, 6, 79, 0
1, 64849, Note_on_c, 10, 59, 97
1, 64849, Note_on_c, 6, 81, 104
1, 64849, Note_on_c, 9, 42, 42
1, 64850, Note_on_c, 9, 42, 0
1, 64860, Note_on_c, 0, 66, 0
1, 64863, Note_on_c, 6, 81, 0
1, 64866, Note_on_c, 0, 67, 0
1, 64867, Note_on_c, 0, 71, 0
1, 64868, Note_on_c, 0, 74, 0
1, 64870, Note_on_c, 10, 59, 0
1, 64877, Note_on_c, 1, 31, 0
1, 64879, Note_on_c, 1, 43, 0
1, 64895, Note_on_c, 2, 63, 53
1, 64896, Note_on_c, 9, 36, 110
1, 64896, Note_on_c, 9, 42, 96
1, 64896, Note_on_c, 6, 81, 117
1, 64896, Note_on_c, 6, 76, 117
1, 64896, Note_on_c, 6, 85, 117
1, 64897, Note_on_c, 9, 42, 0
1, 64897, Note_on_c, 9, 36, 0
1, 64897, Note_on_c, 1, 30, 97
1, 64897, Note_on_c, 2, 68, 92
1, 64897, Note_on_c, 0, 69, 75
1, 64897, Note_on_c, 1, 42, 99
1, 64897, Note_on_c, 0, 73, 71
1, 64897, Note_on_c, 0, 76, 83
1, 64898, Note_on_c, 2, 72, 100
1, 64919, Note_on_c, 2, 72, 0
1, 64920, Note_on_c, 2, 68, 0
1, 64920, Note_on_c, 2, 69, 94
1, 64920, Note_on_c, 2, 73, 88
1, 64921, Note_on_c, 2, 64, 49
1, 64922, Note_on_c, 2, 63, 0
1, 64943, Note_on_c, 9, 42, 37
1, 64944, Note_on_c, 9, 42, 0
1, 64969, Note_on_c, 2, 73, 0
1, 64970, Note_on_c, 2, 69, 0
1, 64970, Note_on_c, 2, 73, 100
1, 64971, Note_on_c, 2, 64, 0
1, 64971, Note_on_c, 2, 69, 97
1, 64972, Note_on_c, 2, 64, 90
1, 64981, Lyric_t, ""
1, 64981, Lyric_t, "\015"
1, 64991, Note_on_c, 2, 64, 0
1, 64991, Note_on_c, 9, 42, 110
1, 64992, Note_on_c, 9, 42, 0
1, 64992, Note_on_c, 9, 40, 95
1, 64992, Note_on_c, 9, 39, 110
1, 64992, Note_on_c, 9, 60, 77
1, 64993, Note_on_c, 9, 60, 0
1, 64993, Note_on_c, 2, 69, 0
1, 64993, Note_on_c, 9, 39, 0
1, 64993, Note_on_c, 9, 40, 0
1, 64995, Note_on_c, 2, 73, 0
1, 64997, Note_on_c, 0, 76, 0
1, 65000, Note_on_c, 0, 73, 0
1, 65000, Note_on_c, 0, 69, 0
1, 65004, Note_on_c, 1, 30, 0
1, 65007, Note_on_c, 1, 42, 0
1, 65039, Note_on_c, 6, 81, 0
1, 65039, Note_on_c, 6, 76, 0
1, 65039, Note_on_c, 6, 85, 0
1, 65039, Note_on_c, 6, 83, 108
1, 65039, Note_on_c, 0, 69, 78
1, 65039, Note_on_c, 2, 59, 58
1, 65039, Note_on_c, 0, 78, 73
1, 65039, Note_on_c, 0, 74, 82
1, 65040, Note_on_c, 6, 78, 99
1, 65040, Note_on_c, 6, 74, 100
1, 65040, Note_on_c, 9, 42, 44
1, 65040, Note_on_c, 9, 36, 91
1, 65040, Note_on_c, 1, 47, 110
1, 65040, Note_on_c, 1, 35, 98
1, 65041, Note_on_c, 9, 36, 0
1, 65041, Note_on_c, 9, 42, 0
1, 65041, Note_on_c, 2, 62, 99
1, 65042, Note_on_c, 2, 66, 102
1, 65043, Note_on_c, 2, 71, 105
1, 65058, Note_on_c, 6, 74, 0
1, 65058, Note_on_c, 6, 78, 0
1, 65062, Note_on_c, 6, 83, 0
1, 65087, Note_on_c, 9, 42, 95
1, 65088, Note_on_c, 9, 42, 0
1, 65088, Note_on_c, 9, 36, 110
1, 65089, Note_on_c, 9, 36, 0
1, 65100, Note_on_c, 2, 71, 0
1, 65107, Note_on_c, 2, 66, 0
1, 65109, Note_on_c, 2, 62, 0
1, 65109, Note_on_c, 2, 59, 0
1, 65114, Note_on_c, 0, 74, 0
1, 65114, Note_on_c, 0, 78, 0
1, 65126, Note_on_c, 0, 69, 0
1, 65128, Note_on_c, 1, 47, 0
1, 65134, Note_on_c, 1, 35, 0
1, 65135, Note_on_c, 1, 45, 97
1, 65135, Note_on_c, 1, 33, 100
1, 65135, Note_on_c, 9, 42, 35
1, 65136, Note_on_c, 9, 42, 0
1, 65136, Note_on_c, 6, 78, 77
1, 65137, Note_on_c, 0, 73, 75
1, 65137, Note_on_c, 0, 76, 68
1, 65137, Note_on_c, 2, 61, 101
1, 65137, Note_on_c, 0, 69, 66
1, 65138, Note_on_c, 2, 64, 100
1, 65148, Note_on_c, 0, 76, 0
1, 65149, Note_on_c, 0, 69, 0
1, 65151, Note_on_c, 1, 45, 0
1, 65152, Note_on_c, 1, 33, 0
1, 65152, Note_on_c, 0, 73, 0
1, 65159, Note_on_c, 6, 78, 0
1, 65183, Note_on_c, 1, 35, 97
1, 65183, Note_on_c, 9, 42, 98
1, 65184, Note_on_c, 9, 42, 0
1, 65184, Note_on_c, 2, 61, 0
1, 65184, Note_on_c, 9, 36, 110
1, 65184, Note_on_c, 9, 40, 110
1, 65184, Note_on_c, 9, 39, 110
1, 65184, Note_on_c, 1, 47, 120
1, 65184, Note_on_c, 9, 60, 77
1, 65184, Note_on_c, 6, 81, 110
1, 65185, Note_on_c, 9, 60, 0
1, 65185, Note_on_c, 9, 40, 0
1, 65185, Note_on_c, 9, 36, 0
1, 65185, Note_on_c, 9, 39, 0
1, 65185, Note_on_c, 0, 74, 91
1, 65185, Note_on_c, 2, 62, 100
1, 65185, Note_on_c, 0, 78, 71
1, 65185, Note_on_c, 0, 69, 84
1, 65186, Note_on_c, 2, 64, 0
1, 65186, Note_on_c, 2, 66, 101
1, 65205, Note_on_c, 2, 66, 0
1, 65210, Note_on_c, 2, 62, 0
1, 65231, Note_on_c, 6, 81, 0
1, 65232, Note_on_c, 6, 83, 112
1, 65233, Note_on_c, 9, 42, 42
1, 65234, Note_on_c, 9, 42, 0
1, 65243, Note_on_c, 0, 78, 0
1, 65249, Note_on_c, 0, 74, 0
1, 65250, Note_on_c, 6, 83, 0
1, 65252, Note_on_c, 0, 69, 0
1, 65270, Note_on_c, 1, 35, 0
1, 65270, Note_on_c, 1, 47, 0
1, 65280, Note_on_c, 9, 42, 96
1, 65280, Note_on_c, 10, 71, 127
1, 65280, Note_on_c, 1, 28, 104
1, 65280, Note_on_c, 10, 67, 85
1, 65280, Note_on_c, 9, 36, 110
1, 65280, Note_on_c, 0, 66, 96
1, 65280, Note_on_c, 9, 43, 89
1, 65280, Note_on_c, 6, 83, 127
1, 65281, Note_on_c, 9, 43, 0
1, 65281, Note_on_c, 9, 42, 0
1, 65281, Note_on_c, 9, 36, 0
1, 65281, Note_on_c, 0, 67, 81
1, 65281, Note_on_c, 0, 74, 82
1, 65281, Note_on_c, 0, 71, 81
1, 65281, Note_on_c, 1, 40, 110
1, 65285, Note_on_c, 6, 88, 125
1, 65296, Control_c, 6, 11, 126
1, 65296, Control_c, 9, 11, 126
1, 65296, Control_c, 10, 11, 126
1, 65296, Control_c, 4, 11, 126
1, 65296, Control_c, 1, 11, 126
1, 65296, Control_c, 0, 11, 126
1, 65296, Control_c, 2, 11, 126
1, 65304, Control_c, 3, 11, 126
1, 65320, Control_c, 10, 11, 125
1, 65320, Control_c, 4, 11, 125
1, 65320, Control_c, 9, 11, 125
1, 65320, Control_c, 1, 11, 125
1, 65320, Control_c, 0, 11, 125
1, 65320, Control_c, 2, 11, 125
1, 65320, Control_c, 6, 11, 125
1, 65326, Note_on_c, 2, 59, 37
1, 65327, Note_on_c, 10, 71, 0
1, 65327, Note_on_c, 10, 67, 0
1, 65327, Note_on_c, 9, 42, 37
1, 65327, Note_on_c, 2, 62, 87
1, 65328, Note_on_c, 9, 42, 0
1, 65328, Control_c, 3, 11, 125
1, 65329, Note_on_c, 2, 67, 99
1, 65331, Note_on_c, 2, 74, 97
1, 65333, Note_on_c, 6, 83, 0
1, 65341, Note_on_c, 6, 88, 0
1, 65344, Control_c, 2, 11, 124
1, 65344, Control_c, 9, 11, 124
1, 65344, Control_c, 6, 11, 124
1, 65344, Control_c, 1, 11, 124
1, 65344, Control_c, 10, 11, 124
1, 65344, Control_c, 4, 11, 124
1, 65344, Control_c, 0, 11, 124
1, 65349, Note_on_c, 2, 74, 0
1, 65352, Control_c, 3, 11, 124
1, 65352, Note_on_c, 2, 74, 99
1, 65353, Note_on_c, 2, 67, 0
1, 65354, Note_on_c, 2, 67, 98
1, 65368, Control_c, 2, 11, 123
1, 65368, Control_c, 10, 11, 123
1, 65368, Control_c, 9, 11, 123
1, 65368, Control_c, 4, 11, 123
1, 65368, Control_c, 6, 11, 123
1, 65368, Control_c, 0, 11, 123
1, 65368, Control_c, 1, 11, 123
1, 65371, Note_on_c, 2, 67, 0
1, 65374, Note_on_c, 2, 74, 0
1, 65374, Note_on_c, 2, 67, 100
1, 65375, Note_on_c, 2, 74, 97
1, 65375, Note_on_c, 9, 42, 110
1, 65376, Note_on_c, 9, 42, 0
1, 65376, Note_on_c, 9, 40, 95
1, 65376, Note_on_c, 9, 39, 110
1, 65376, Control_c, 3, 11, 123
1, 65376, Note_on_c, 9, 60, 77
1, 65376, Note_on_c, 4, 74, 47
1, 65377, Note_on_c, 9, 60, 0
1, 65377, Note_on_c, 9, 39, 0
1, 65377, Note_on_c, 9, 40, 0
1, 65377, Lyric_t, "Let "
1, 65377, Note_on_c, 3, 74, 105
1, 65389, Note_on_c, 2, 62, 0
1, 65391, Note_on_c, 2, 74, 0
1, 65392, Note_on_c, 1, 28, 0
1, 65392, Control_c, 0, 11, 122
1, 65392, Control_c, 10, 11, 122
1, 65392, Control_c, 4, 11, 122
1, 65392, Control_c, 2, 11, 122
1, 65392, Control_c, 1, 11, 122
1, 65392, Control_c, 9, 11, 122
1, 65392, Control_c, 6, 11, 122
1, 65393, Note_on_c, 2, 59, 0
1, 65394, Note_on_c, 0, 66, 0
1, 65396, Note_on_c, 1, 40, 0
1, 65396, Note_on_c, 2, 67, 0
1, 65399, Note_on_c, 0, 71, 0
1, 65400, Note_on_c, 0, 74, 0
1, 65400, Control_c, 3, 11, 122
1, 65401, Note_on_c, 0, 67, 0
1, 65416, Control_c, 2, 11, 121
1, 65416, Control_c, 0, 11, 121
1, 65416, Control_c, 4, 11, 121
1, 65416, Control_c, 1, 11, 121
1, 65416, Control_c, 10, 11, 121
1, 65416, Control_c, 9, 11, 121
1, 65416, Control_c, 6, 11, 121
1, 65422, Note_on_c, 3, 74, 0
1, 65423, Note_on_c, 4, 74, 0
1, 65423, Lyric_t, "this "
1, 65423, Note_on_c, 0, 67, 69
1, 65423, Note_on_c, 2, 67, 97
1, 65423, Note_on_c, 1, 43, 100
1, 65423, Note_on_c, 3, 74, 97
1, 65423, Note_on_c, 1, 31, 114
1, 65423, Note_on_c, 0, 74, 76
1, 65423, Note_on_c, 0, 66, 78
1, 65423, Note_on_c, 0, 71, 78
1, 65424, Note_on_c, 9, 42, 44
1, 65424, Note_on_c, 4, 74, 47
1, 65424, Note_on_c, 9, 36, 91
1, 65424, Note_on_c, 2, 71, 102
1, 65424, Control_c, 3, 11, 121
1, 65425, Note_on_c, 9, 36, 0
1, 65425, Note_on_c, 9, 42, 0
1, 65432, Note_on_c, 0, 74, 0
1, 65432, Note_on_c, 0, 67, 0
1, 65434, Note_on_c, 0, 71, 0
1, 65435, Note_on_c, 2, 71, 0
1, 65435, Note_on_c, 0, 66, 0
1, 65437, Note_on_c, 2, 67, 0
1, 65440, Control_c, 4, 11, 120
1, 65440, Control_c, 0, 11, 120
1, 65440, Control_c, 2, 11, 120
1, 65440, Control_c, 6, 11, 120
1, 65440, Control_c, 1, 11, 120
1, 65440, Control_c, 10, 11, 120
1, 65440, Control_c, 9, 11, 120
1, 65441, Note_on_c, 1, 43, 0
1, 65441, Note_on_c, 1, 31, 0
1, 65448, Control_c, 3, 11, 120
1, 65464, Control_c, 4, 11, 119
1, 65464, Control_c, 10, 11, 119
1, 65464, Control_c, 6, 11, 119
1, 65464, Control_c, 2, 11, 119
1, 65464, Control_c, 1, 11, 119
1, 65464, Control_c, 9, 11, 119
1, 65464, Control_c, 0, 11, 119
1, 65471, Note_on_c, 3, 74, 0
1, 65471, Note_on_c, 3, 71, 85
1, 65471, Note_on_c, 0, 66, 87
1, 65471, Lyric_t, "groove "
1, 65471, Note_on_c, 0, 71, 81
1, 65471, Note_on_c, 0, 74, 83
1, 65471, Note_on_c, 0, 67, 82
1, 65471, Note_on_c, 9, 42, 95
1, 65472, Note_on_c, 9, 42, 0
1, 65472, Note_on_c, 4, 74, 0
1, 65472, Control_c, 3, 11, 119
1, 65472, Note_on_c, 9, 36, 110
1, 65472, Note_on_c, 4, 71, 36
1, 65472, Note_on_c, 1, 45, 117
1, 65472, Note_on_c, 1, 33, 112
1, 65472, Note_on_c, 2, 62, 99
1, 65473, Note_on_c, 9, 36, 0
1, 65473, Note_on_c, 2, 71, 43
1, 65474, Note_on_c, 2, 69, 97
1, 65488, Control_c, 0, 11, 118
1, 65488, Control_c, 1, 11, 118
1, 65488, Control_c, 6, 11, 118
1, 65488, Control_c, 2, 11, 118
1, 65488, Control_c, 10, 11, 118
1, 65488, Control_c, 4, 11, 118
1, 65488, Control_c, 9, 11, 118
1, 65496, Control_c, 3, 11, 118
1, 65512, Control_c, 0, 11, 117
1, 65512, Control_c, 9, 11, 117
1, 65512, Control_c, 1, 11, 117
1, 65512, Control_c, 6, 11, 117
1, 65512, Control_c, 10, 11, 117
1, 65512, Control_c, 4, 11, 117
1, 65512, Control_c, 2, 11, 117
1, 65519, Note_on_c, 9, 42, 39
1, 65520, Note_on_c, 9, 42, 0
1, 65520, Note_on_c, 10, 67, 102
1, 65520, Control_c, 3, 11, 117
1, 65521, Note_on_c, 6, 79, 127
1, 65536, Control_c, 0, 11, 116
1, 65536, Control_c, 10, 11, 116
1, 65536, Control_c, 1, 11, 116
1, 65536, Control_c, 2, 11, 116
1, 65536, Control_c, 6, 11, 116
1, 65536, Control_c, 4, 11, 116
1, 65536, Control_c, 9, 11, 116
1, 65544, Control_c, 3, 11, 116
1, 65549, Note_on_c, 0, 71, 0
1, 65549, Note_on_c, 0, 74, 0
1, 65550, Note_on_c, 0, 66, 0
1, 65550, Note_on_c, 0, 67, 0
1, 65552, Note_on_c, 1, 33, 0
1, 65555, Note_on_c, 6, 79, 0
1, 65556, Note_on_c, 10, 67, 0
1, 65558, Note_on_c, 1, 45, 0
1, 65560, Control_c, 4, 11, 115
1, 65560, Control_c, 1, 11, 115
1, 65560, Control_c, 9, 11, 115
1, 65560, Control_c, 0, 11, 115
1, 65560, Control_c, 6, 11, 115
1, 65560, Control_c, 2, 11, 115
1, 65560, Control_c, 10, 11, 115
1, 65561, Note_on_c, 2, 71, 0
1, 65563, Note_on_c, 3, 71, 0
1, 65564, Note_on_c, 2, 69, 0
1, 65567, Note_on_c, 2, 62, 0
1, 65567, Note_on_c, 1, 31, 100
1, 65567, Note_on_c, 1, 43, 112
1, 65567, Note_on_c, 9, 42, 110
1, 65568, Note_on_c, 9, 42, 0
1, 65568, Note_on_c, 9, 60, 77
1, 65568, Note_on_c, 9, 39, 110
1, 65568, Note_on_c, 0, 71, 81
1, 65568, Control_c, 3, 11, 115
1, 65568, Note_on_c, 0, 67, 79
1, 65568, Note_on_c, 9, 36, 110
1, 65568, Note_on_c, 0, 74, 81
1, 65568, Note_on_c, 2, 67, 101
1, 65568, Note_on_c, 2, 62, 96
1, 65568, Note_on_c, 9, 40, 110
1, 65569, Note_on_c, 9, 40, 0
1, 65569, Note_on_c, 9, 39, 0
1, 65569, Note_on_c, 9, 60, 0
1, 65569, Note_on_c, 9, 36, 0
1, 65569, Note_on_c, 0, 66, 87
1, 65570, Note_on_c, 2, 71, 99
1, 65584, Control_c, 10, 11, 114
1, 65584, Control_c, 0, 11, 114
1, 65584, Control_c, 2, 11, 114
1, 65584, Control_c, 9, 11, 114
1, 65584, Control_c, 4, 11, 114
1, 65584, Control_c, 1, 11, 114
1, 65584, Control_c, 6, 11, 114
1, 65592, Control_c, 3, 11, 114
1, 65600, Control_c, 9, 11, 113
1, 65600, Control_c, 10, 11, 113
1, 65600, Control_c, 2, 11, 113
1, 65600, Control_c, 4, 11, 113
1, 65600, Control_c, 1, 11, 113
1, 65600, Control_c, 6, 11, 113
1, 65600, Control_c, 0, 11, 113
1, 65603, Note_on_c, 2, 71, 0
1, 65608, Control_c, 3, 11, 113
1, 65610, Note_on_c, 2, 62, 0
1, 65616, Note_on_c, 10, 69, 104
1, 65617, Note_on_c, 6, 81, 117
1, 65617, Note_on_c, 9, 42, 42
1, 65618, Note_on_c, 9, 42, 0
1, 65618, Note_on_c, 2, 67, 0
1, 65618, Note_on_c, 4, 71, 0
1, 65624, Control_c, 2, 11, 112
1, 65624, Control_c, 4, 11, 112
1, 65624, Control_c, 6, 11, 112
1, 65624, Control_c, 9, 11, 112
1, 65624, Control_c, 10, 11, 112
1, 65624, Control_c, 1, 11, 112
1, 65624, Control_c, 0, 11, 112
1, 65628, Note_on_c, 0, 66, 0
1, 65632, Control_c, 3, 11, 112
1, 65634, Note_on_c, 0, 67, 0
1, 65635, Note_on_c, 0, 71, 0
1, 65636, Note_on_c, 0, 74, 0
1, 65644, Note_on_c, 1, 31, 0
1, 65646, Note_on_c, 1, 43, 0
1, 65648, Control_c, 4, 11, 111
1, 65648, Control_c, 10, 11, 111
1, 65648, Control_c, 6, 11, 111
1, 65648, Control_c, 1, 11, 111
1, 65648, Control_c, 0, 11, 111
1, 65648, Control_c, 9, 11, 111
1, 65648, Control_c, 2, 11, 111
1, 65653, Note_on_c, 10, 69, 0
1, 65656, Control_c, 3, 11, 111
1, 65658, Note_on_c, 6, 81, 0
1, 65664, Note_on_c, 10, 69, 92
1, 65664, Note_on_c, 9, 42, 96
1, 65664, Note_on_c, 9, 36, 110
1, 65664, Note_on_c, 4, 66, 27
1, 65664, Note_on_c, 3, 66, 82
1, 65664, Lyric_t, "light "
1, 65664, Note_on_c, 6, 81, 126
1, 65664, Note_on_c, 2, 63, 101
1, 65665, Note_on_c, 9, 36, 0
1, 65665, Note_on_c, 9, 42, 0
1, 65665, Note_on_c, 0, 69, 75
1, 65665, Note_on_c, 1, 42, 99
1, 65665, Note_on_c, 0, 76, 83
1, 65665, Note_on_c, 0, 73, 71
1, 65665, Note_on_c, 1, 30, 97
1, 65665, Note_on_c, 2, 68, 97
1, 65666, Note_on_c, 2, 72, 103
1, 65672, Control_c, 2, 11, 110
1, 65672, Control_c, 0, 11, 110
1, 65672, Control_c, 9, 11, 110
1, 65672, Control_c, 10, 11, 110
1, 65672, Control_c, 4, 11, 110
1, 65672, Control_c, 6, 11, 110
1, 65672, Control_c, 1, 11, 110
1, 65680, Control_c, 3, 11, 110
1, 65684, Note_on_c, 2, 72, 0
1, 65687, Note_on_c, 2, 63, 0
1, 65687, Note_on_c, 2, 64, 87
1, 65687, Note_on_c, 2, 73, 87
1, 65689, Note_on_c, 2, 68, 0
1, 65689, Note_on_c, 2, 69, 81
1, 65696, Control_c, 1, 11, 109
1, 65696, Control_c, 4, 11, 109
1, 65696, Control_c, 0, 11, 109
1, 65696, Control_c, 9, 11, 109
1, 65696, Control_c, 6, 11, 109
1, 65696, Control_c, 10, 11, 109
1, 65696, Control_c, 2, 11, 109
1, 65704, Control_c, 3, 11, 109
1, 65711, Note_on_c, 3, 66, 0
1, 65711, Note_on_c, 3, 69, 76
1, 65711, Note_on_c, 9, 42, 37
1, 65711, Lyric_t, "up "
1, 65712, Note_on_c, 9, 42, 0
1, 65712, Note_on_c, 4, 66, 0
1, 65712, Note_on_c, 4, 69, 22
1, 65720, Control_c, 1, 11, 108
1, 65720, Control_c, 4, 11, 108
1, 65720, Control_c, 9, 11, 108
1, 65720, Control_c, 6, 11, 108
1, 65720, Control_c, 0, 11, 108
1, 65720, Control_c, 2, 11, 108
1, 65720, Control_c, 10, 11, 108
1, 65728, Control_c, 3, 11, 108
1, 65736, Note_on_c, 2, 73, 0
1, 65736, Note_on_c, 2, 69, 0
1, 65739, Note_on_c, 2, 73, 98
1, 65740, Note_on_c, 2, 69, 87
1, 65741, Note_on_c, 2, 73, 0
1, 65744, Control_c, 4, 11, 107
1, 65744, Control_c, 1, 11, 107
1, 65744, Control_c, 2, 11, 107
1, 65744, Control_c, 0, 11, 107
1, 65744, Control_c, 6, 11, 107
1, 65744, Control_c, 9, 11, 107
1, 65744, Control_c, 10, 11, 107
1, 65746, Note_on_c, 2, 69, 0
1, 65752, Control_c, 3, 11, 107
1, 65759, Note_on_c, 3, 69, 0
1, 65759, Note_on_c, 3, 73, 80
1, 65759, Lyric_t, "your "
1, 65759, Note_on_c, 9, 42, 110
1, 65760, Note_on_c, 9, 42, 0
1, 65760, Note_on_c, 2, 64, 0
1, 65760, Note_on_c, 4, 69, 0
1, 65760, Note_on_c, 9, 60, 77
1, 65760, Note_on_c, 9, 40, 95
1, 65760, Note_on_c, 4, 73, 34
1, 65760, Note_on_c, 9, 39, 110
1, 65761, Note_on_c, 9, 39, 0
1, 65761, Note_on_c, 9, 60, 0
1, 65761, Note_on_c, 9, 40, 0
1, 65765, Note_on_c, 0, 76, 0
1, 65768, Note_on_c, 0, 73, 0
1, 65768, Note_on_c, 0, 69, 0
1, 65768, Control_c, 4, 11, 106
1, 65768, Control_c, 0, 11, 106
1, 65768, Control_c, 9, 11, 106
1, 65768, Control_c, 2, 11, 106
1, 65768, Control_c, 10, 11, 106
1, 65768, Control_c, 1, 11, 106
1, 65768, Control_c, 6, 11, 106
1, 65772, Note_on_c, 1, 30, 0
1, 65775, Note_on_c, 1, 42, 0
1, 65776, Control_c, 3, 11, 106
1, 65792, Control_c, 9, 11, 105
1, 65792, Control_c, 10, 11, 105
1, 65792, Control_c, 2, 11, 105
1, 65792, Control_c, 4, 11, 105
1, 65792, Control_c, 0, 11, 105
1, 65792, Control_c, 1, 11, 105
1, 65792, Control_c, 6, 11, 105
1, 65800, Control_c, 3, 11, 105
1, 65806, Note_on_c, 3, 73, 0
1, 65807, Note_on_c, 0, 78, 73
1, 65807, Note_on_c, 3, 71, 91
1, 65807, Note_on_c, 0, 69, 78
1, 65807, Note_on_c, 0, 74, 82
1, 65807, Lyric_t, ""
1, 65807, Lyric_t, "\015"
1, 65807, Lyric_t, "fuse, "
1, 65808, Note_on_c, 4, 73, 0
1, 65808, Note_on_c, 9, 36, 91
1, 65808, Note_on_c, 4, 71, 26
1, 65808, Note_on_c, 9, 42, 44
1, 65808, Note_on_c, 1, 47, 110
1, 65808, Note_on_c, 1, 35, 98
1, 65809, Note_on_c, 9, 42, 0
1, 65809, Note_on_c, 9, 36, 0
1, 65813, Note_on_c, 2, 66, 99
1, 65816, Control_c, 10, 11, 104
1, 65816, Control_c, 4, 11, 104
1, 65816, Control_c, 9, 11, 104
1, 65816, Control_c, 0, 11, 104
1, 65816, Control_c, 6, 11, 104
1, 65816, Control_c, 1, 11, 104
1, 65816, Control_c, 2, 11, 104
1, 65824, Control_c, 3, 11, 104
1, 65840, Control_c, 10, 11, 103
1, 65840, Control_c, 4, 11, 103
1, 65840, Control_c, 2, 11, 103
1, 65840, Control_c, 0, 11, 103
1, 65840, Control_c, 9, 11, 103
1, 65840, Control_c, 6, 11, 103
1, 65840, Control_c, 1, 11, 103
1, 65848, Control_c, 3, 11, 103
1, 65855, Note_on_c, 9, 42, 95
1, 65856, Note_on_c, 9, 42, 0
1, 65856, Note_on_c, 9, 36, 110
1, 65857, Note_on_c, 9, 36, 0
1, 65863, Note_on_c, 2, 66, 0
1, 65864, Control_c, 2, 11, 102
1, 65864, Control_c, 1, 11, 102
1, 65864, Control_c, 6, 11, 102
1, 65864, Control_c, 4, 11, 102
1, 65864, Control_c, 10, 11, 102
1, 65864, Control_c, 0, 11, 102
1, 65864, Control_c, 9, 11, 102
1, 65872, Control_c, 3, 11, 102
1, 65882, Note_on_c, 0, 78, 0
1, 65882, Note_on_c, 0, 74, 0
1, 65888, Control_c, 1, 11, 101
1, 65888, Control_c, 6, 11, 101
1, 65888, Control_c, 10, 11, 101
1, 65888, Control_c, 4, 11, 101
1, 65888, Control_c, 2, 11, 101
1, 65888, Control_c, 9, 11, 101
1, 65888, Control_c, 0, 11, 101
1, 65894, Note_on_c, 0, 69, 0
1, 65896, Note_on_c, 1, 47, 0
1, 65896, Control_c, 3, 11, 101
1, 65902, Note_on_c, 1, 35, 0
1, 65902, Note_on_c, 3, 71, 0
1, 65903, Note_on_c, 3, 69, 72
1, 65903, Lyric_t, "it's "
1, 65903, Note_on_c, 1, 45, 97
1, 65903, Note_on_c, 1, 33, 100
1, 65903, Note_on_c, 9, 42, 39
1, 65903, Note_on_c, 2, 61, 84
1, 65904, Note_on_c, 9, 42, 0
1, 65904, Note_on_c, 4, 71, 0
1, 65904, Control_c, 9, 11, 100
1, 65904, Control_c, 0, 11, 100
1, 65904, Control_c, 6, 11, 100
1, 65904, Control_c, 1, 11, 100
1, 65904, Control_c, 10, 11, 100
1, 65904, Control_c, 4, 11, 100
1, 65904, Note_on_c, 4, 69, 12
1, 65904, Control_c, 2, 11, 100
1, 65905, Note_on_c, 0, 69, 66
1, 65905, Note_on_c, 0, 73, 75
1, 65905, Note_on_c, 2, 64, 101
1, 65905, Note_on_c, 0, 76, 68
1, 65912, Control_c, 3, 11, 100
1, 65916, Note_on_c, 0, 76, 0
1, 65917, Note_on_c, 0, 69, 0
1, 65919, Note_on_c, 1, 45, 0
1, 65920, Note_on_c, 0, 73, 0
1, 65920, Note_on_c, 1, 33, 0
1, 65928, Control_c, 9, 11, 99
1, 65928, Control_c, 2, 11, 99
1, 65928, Control_c, 1, 11, 99
1, 65928, Control_c, 6, 11, 99
1, 65928, Control_c, 10, 11, 99
1, 65928, Control_c, 4, 11, 99
1, 65928, Control_c, 0, 11, 99
1, 65936, Control_c, 3, 11, 99
1, 65950, Note_on_c, 2, 61, 0
1, 65950, Note_on_c, 3, 69, 0
1, 65951, Note_on_c, 1, 35, 97
1, 65951, Note_on_c, 9, 42, 110
1, 65951, Lyric_t, "all "
1, 65951, Note_on_c, 3, 74, 101
1, 65952, Note_on_c, 9, 42, 0
1, 65952, Note_on_c, 2, 64, 0
1, 65952, Note_on_c, 4, 69, 0
1, 65952, Note_on_c, 9, 60, 77
1, 65952, Note_on_c, 1, 47, 120
1, 65952, Control_c, 2, 11, 98
1, 65952, Control_c, 10, 11, 98
1, 65952, Control_c, 1, 11, 98
1, 65952, Control_c, 9, 11, 98
1, 65952, Control_c, 6, 11, 98
1, 65952, Control_c, 4, 11, 98
1, 65952, Note_on_c, 9, 39, 110
1, 65952, Note_on_c, 4, 74, 35
1, 65952, Control_c, 0, 11, 98
1, 65952, Note_on_c, 9, 36, 110
1, 65952, Note_on_c, 9, 40, 110
1, 65953, Note_on_c, 9, 40, 0
1, 65953, Note_on_c, 9, 36, 0
1, 65953, Note_on_c, 9, 39, 0
1, 65953, Note_on_c, 9, 60, 0
1, 65953, Note_on_c, 0, 69, 84
1, 65953, Note_on_c, 0, 78, 71
1, 65953, Note_on_c, 0, 74, 91
1, 65954, Note_on_c, 2, 62, 104
1, 65954, Note_on_c, 2, 66, 103
1, 65960, Control_c, 3, 11, 98
1, 65973, Note_on_c, 2, 66, 0
1, 65974, Note_on_c, 2, 62, 0
1, 65976, Control_c, 9, 11, 97
1, 65976, Control_c, 10, 11, 97
1, 65976, Control_c, 0, 11, 97
1, 65976, Control_c, 6, 11, 97
1, 65976, Control_c, 4, 11, 97
1, 65976, Control_c, 1, 11, 97
1, 65976, Control_c, 2, 11, 97
1, 65984, Control_c, 3, 11, 97
1, 66000, Control_c, 10, 11, 96
1, 66000, Control_c, 9, 11, 96
1, 66000, Control_c, 4, 11, 96
1, 66000, Control_c, 2, 11, 96
1, 66000, Control_c, 0, 11, 96
1, 66000, Control_c, 6, 11, 96
1, 66000, Control_c, 1, 11, 96
1, 66001, Note_on_c, 9, 42, 42
1, 66002, Note_on_c, 9, 42, 0
1, 66008, Control_c, 3, 11, 96
1, 66011, Note_on_c, 0, 78, 0
1, 66017, Note_on_c, 0, 74, 0
1, 66020, Note_on_c, 0, 69, 0
1, 66024, Control_c, 10, 11, 95
1, 66024, Control_c, 2, 11, 95
1, 66024, Control_c, 0, 11, 95
1, 66024, Control_c, 6, 11, 95
1, 66024, Control_c, 1, 11, 95
1, 66024, Control_c, 4, 11, 95
1, 66024, Control_c, 9, 11, 95
1, 66032, Control_c, 3, 11, 95
1, 66036, Note_on_c, 6, 81, 0
1, 66038, Note_on_c, 10, 69, 0
1, 66038, Note_on_c, 1, 35, 0
1, 66038, Note_on_c, 1, 47, 0
1, 66042, Note_on_c, 3, 74, 0
1, 66048, Note_on_c, 4, 74, 0
1, 66048, Control_c, 1, 11, 94
1, 66048, Note_on_c, 9, 36, 110
1, 66048, Note_on_c, 0, 66, 96
1, 66048, Control_c, 0, 11, 94
1, 66048, Lyric_t, "right, "
1, 66048, Control_c, 9, 11, 94
1, 66048, Control_c, 6, 11, 94
1, 66048, Control_c, 10, 11, 94
1, 66048, Note_on_c, 3, 71, 73
1, 66048, Note_on_c, 1, 28, 104
1, 66048, Control_c, 2, 11, 94
1, 66048, Note_on_c, 9, 42, 96
1, 66048, Control_c, 4, 11, 94
1, 66048, Note_on_c, 4, 71, 1
1, 66049, Note_on_c, 9, 42, 0
1, 66049, Note_on_c, 9, 36, 0
1, 66049, Note_on_c, 0, 74, 82
1, 66049, Note_on_c, 1, 40, 110
1, 66049, Note_on_c, 9, 43, 86
1, 66049, Note_on_c, 0, 67, 81
1, 66049, Note_on_c, 0, 71, 81
1, 66050, Note_on_c, 9, 43, 0
1, 66056, Control_c, 3, 11, 94
1, 66072, Control_c, 1, 11, 93
1, 66072, Control_c, 2, 11, 93
1, 66072, Control_c, 6, 11, 93
1, 66072, Control_c, 4, 11, 93
1, 66072, Control_c, 9, 11, 93
1, 66072, Control_c, 0, 11, 93
1, 66072, Control_c, 10, 11, 93
1, 66080, Control_c, 3, 11, 93
1, 66093, Note_on_c, 2, 59, 43
1, 66095, Note_on_c, 9, 42, 37
1, 66095, Note_on_c, 2, 62, 86
1, 66096, Note_on_c, 9, 42, 0
1, 66096, Control_c, 4, 11, 92
1, 66096, Control_c, 6, 11, 92
1, 66096, Control_c, 0, 11, 92
1, 66096, Control_c, 9, 11, 92
1, 66096, Control_c, 2, 11, 92
1, 66096, Control_c, 1, 11, 92
1, 66096, Control_c, 10, 11, 92
1, 66097, Note_on_c, 2, 67, 97
1, 66098, Note_on_c, 2, 74, 93
1, 66100, Note_on_c, 3, 71, 0
1, 66104, Control_c, 3, 11, 92
1, 66117, Note_on_c, 2, 74, 0
1, 66120, Note_on_c, 2, 67, 0
1, 66120, Control_c, 0, 11, 91
1, 66120, Control_c, 1, 11, 91
1, 66120, Control_c, 10, 11, 91
1, 66120, Control_c, 4, 11, 91
1, 66120, Control_c, 9, 11, 91
1, 66120, Control_c, 6, 11, 91
1, 66120, Control_c, 2, 11, 91
1, 66121, Note_on_c, 2, 62, 0
1, 66121, Note_on_c, 2, 67, 98
1, 66121, Note_on_c, 2, 74, 93
1, 66122, Note_on_c, 2, 62, 76
1, 66128, Control_c, 3, 11, 91
1, 66137, Note_on_c, 2, 62, 0
1, 66140, Note_on_c, 2, 67, 0
1, 66142, Note_on_c, 2, 74, 0
1, 66142, Note_on_c, 2, 62, 94
1, 66143, Note_on_c, 2, 67, 96
1, 66143, Note_on_c, 9, 42, 110
1, 66144, Note_on_c, 9, 42, 0
1, 66144, Note_on_c, 4, 71, 0
1, 66144, Control_c, 10, 11, 90
1, 66144, Note_on_c, 9, 40, 95
1, 66144, Note_on_c, 9, 39, 110
1, 66144, Control_c, 9, 11, 90
1, 66144, Control_c, 4, 11, 90
1, 66144, Control_c, 0, 11, 90
1, 66144, Note_on_c, 4, 74, 37
1, 66144, Control_c, 1, 11, 90
1, 66144, Note_on_c, 2, 74, 91
1, 66144, Control_c, 2, 11, 90
1, 66144, Control_c, 6, 11, 90
1, 66144, Note_on_c, 9, 60, 77
1, 66145, Note_on_c, 9, 60, 0
1, 66145, Note_on_c, 9, 40, 0
1, 66145, Note_on_c, 9, 39, 0
1, 66145, Note_on_c, 3, 74, 103
1, 66145, Lyric_t, "all "
1, 66151, Note_on_c, 2, 74, 0
1, 66152, Control_c, 3, 11, 90
1, 66154, Note_on_c, 2, 62, 0
1, 66155, Note_on_c, 2, 59, 0
1, 66156, Note_on_c, 2, 67, 0
1, 66160, Note_on_c, 1, 28, 0
1, 66162, Note_on_c, 0, 66, 0
1, 66164, Note_on_c, 1, 40, 0
1, 66167, Note_on_c, 0, 71, 0
1, 66168, Note_on_c, 0, 74, 0
1, 66168, Control_c, 1, 11, 89
1, 66168, Control_c, 2, 11, 89
1, 66168, Control_c, 10, 11, 89
1, 66168, Control_c, 6, 11, 89
1, 66168, Control_c, 4, 11, 89
1, 66168, Control_c, 9, 11, 89
1, 66168, Control_c, 0, 11, 89
1, 66169, Note_on_c, 0, 67, 0
1, 66176, Control_c, 3, 11, 89
1, 66184, Control_c, 2, 11, 88
1, 66184, Control_c, 1, 11, 88
1, 66184, Control_c, 4, 11, 88
1, 66184, Control_c, 6, 11, 88
1, 66184, Control_c, 9, 11, 88
1, 66184, Control_c, 10, 11, 88
1, 66184, Control_c, 0, 11, 88
1, 66190, Note_on_c, 2, 59, 16
1, 66191, Note_on_c, 1, 31, 114
1, 66191, Note_on_c, 0, 67, 69
1, 66191, Note_on_c, 0, 71, 78
1, 66191, Note_on_c, 0, 74, 76
1, 66191, Note_on_c, 0, 66, 78
1, 66191, Note_on_c, 2, 62, 96
1, 66191, Note_on_c, 1, 43, 100
1, 66192, Note_on_c, 9, 42, 44
1, 66192, Note_on_c, 9, 36, 91
1, 66192, Note_on_c, 2, 67, 100
1, 66192, Control_c, 3, 11, 88
1, 66193, Note_on_c, 9, 36, 0
1, 66193, Note_on_c, 9, 42, 0
1, 66194, Note_on_c, 2, 71, 97
1, 66200, Note_on_c, 0, 74, 0
1, 66200, Note_on_c, 0, 67, 0
1, 66201, Note_on_c, 2, 62, 0
1, 66201, Note_on_c, 2, 71, 0
1, 66202, Note_on_c, 0, 71, 0
1, 66203, Note_on_c, 0, 66, 0
1, 66203, Note_on_c, 2, 67, 0
1, 66204, Note_on_c, 2, 59, 0
1, 66208, Control_c, 6, 11, 87
1, 66208, Control_c, 9, 11, 87
1, 66208, Control_c, 4, 11, 87
1, 66208, Control_c, 2, 11, 87
1, 66208, Control_c, 0, 11, 87
1, 66208, Control_c, 10, 11, 87
1, 66208, Control_c, 1, 11, 87
1, 66209, Note_on_c, 1, 31, 0
1, 66209, Note_on_c, 1, 43, 0
1, 66216, Control_c, 3, 11, 87
1, 66232, Control_c, 2, 11, 86
1, 66232, Control_c, 9, 11, 86
1, 66232, Control_c, 0, 11, 86
1, 66232, Control_c, 6, 11, 86
1, 66232, Control_c, 1, 11, 86
1, 66232, Control_c, 4, 11, 86
1, 66232, Control_c, 10, 11, 86
1, 66234, Note_on_c, 3, 74, 0
1, 66239, Note_on_c, 9, 42, 95
1, 66239, Note_on_c, 0, 71, 81
1, 66239, Note_on_c, 0, 67, 82
1, 66239, Note_on_c, 6, 83, 117
1, 66239, Note_on_c, 2, 59, 69
1, 66239, Note_on_c, 0, 74, 83
1, 66239, Note_on_c, 0, 66, 87
1, 66240, Note_on_c, 9, 42, 0
1, 66240, Note_on_c, 4, 74, 0
1, 66240, Note_on_c, 4, 71, 10
1, 66240, Note_on_c, 1, 45, 117
1, 66240, Note_on_c, 1, 33, 112
1, 66240, Note_on_c, 9, 36, 110
1, 66240, Control_c, 3, 11, 86
1, 66241, Note_on_c, 9, 36, 0
1, 66241, Note_on_c, 2, 62, 100
1, 66241, Lyric_t, "right, "
1, 66241, Note_on_c, 3, 71, 81
1, 66242, Note_on_c, 2, 69, 97
1, 66243, Note_on_c, 2, 71, 19
1, 66256, Control_c, 6, 11, 85
1, 66256, Control_c, 4, 11, 85
1, 66256, Control_c, 10, 11, 85
1, 66256, Control_c, 0, 11, 85
1, 66256, Control_c, 1, 11, 85
1, 66256, Control_c, 9, 11, 85
1, 66256, Control_c, 2, 11, 85
1, 66264, Control_c, 3, 11, 85
1, 66280, Control_c, 10, 11, 84
1, 66280, Control_c, 0, 11, 84
1, 66280, Control_c, 2, 11, 84
1, 66280, Control_c, 1, 11, 84
1, 66280, Control_c, 9, 11, 84
1, 66280, Control_c, 6, 11, 84
1, 66280, Control_c, 4, 11, 84
1, 66286, Note_on_c, 6, 83, 0
1, 66287, Note_on_c, 9, 42, 39
1, 66288, Note_on_c, 9, 42, 0
1, 66288, Control_c, 3, 11, 84
1, 66289, Note_on_c, 6, 81, 97
1, 66304, Control_c, 1, 11, 83
1, 66304, Control_c, 10, 11, 83
1, 66304, Control_c, 2, 11, 83
1, 66304, Control_c, 9, 11, 83
1, 66304, Control_c, 6, 11, 83
1, 66304, Control_c, 0, 11, 83
1, 66304, Control_c, 4, 11, 83
1, 66305, Note_on_c, 6, 81, 0
1, 66312, Control_c, 3, 11, 83
1, 66317, Note_on_c, 0, 71, 0
1, 66317, Note_on_c, 0, 74, 0
1, 66318, Note_on_c, 0, 66, 0
1, 66318, Note_on_c, 0, 67, 0
1, 66320, Note_on_c, 1, 33, 0
1, 66323, Note_on_c, 2, 69, 0
1, 66326, Note_on_c, 1, 45, 0
1, 66328, Control_c, 2, 11, 82
1, 66328, Control_c, 6, 11, 82
1, 66328, Control_c, 9, 11, 82
1, 66328, Control_c, 10, 11, 82
1, 66328, Control_c, 1, 11, 82
1, 66328, Control_c, 0, 11, 82
1, 66328, Control_c, 4, 11, 82
1, 66330, Note_on_c, 2, 71, 0
1, 66331, Note_on_c, 2, 62, 0
1, 66334, Note_on_c, 2, 62, 100
1, 66335, Note_on_c, 9, 42, 110
1, 66336, Note_on_c, 9, 42, 0
1, 66336, Note_on_c, 0, 67, 79
1, 66336, Note_on_c, 1, 43, 112
1, 66336, Note_on_c, 9, 40, 110
1, 66336, Note_on_c, 0, 74, 81
1, 66336, Note_on_c, 0, 71, 81
1, 66336, Note_on_c, 9, 60, 77
1, 66336, Note_on_c, 2, 71, 103
1, 66336, Note_on_c, 9, 36, 110
1, 66336, Note_on_c, 9, 39, 110
1, 66336, Note_on_c, 1, 31, 100
1, 66336, Control_c, 3, 11, 82
1, 66337, Note_on_c, 9, 39, 0
1, 66337, Note_on_c, 9, 40, 0
1, 66337, Note_on_c, 9, 36, 0
1, 66337, Note_on_c, 9, 60, 0
1, 66337, Note_on_c, 6, 78, 114
1, 66337, Note_on_c, 0, 66, 87
1, 66338, Note_on_c, 3, 71, 0
1, 66339, Note_on_c, 2, 67, 93
1, 66352, Control_c, 1, 11, 81
1, 66352, Control_c, 6, 11, 81
1, 66352, Control_c, 9, 11, 81
1, 66352, Control_c, 0, 11, 81
1, 66352, Control_c, 10, 11, 81
1, 66352, Control_c, 4, 11, 81
1, 66352, Control_c, 2, 11, 81
1, 66360, Control_c, 3, 11, 81
1, 66369, Note_on_c, 2, 71, 0
1, 66369, Note_on_c, 2, 59, 0
1, 66372, Note_on_c, 2, 62, 0
1, 66372, Note_on_c, 2, 67, 0
1, 66376, Control_c, 9, 11, 80
1, 66376, Control_c, 1, 11, 80
1, 66376, Control_c, 4, 11, 80
1, 66376, Control_c, 0, 11, 80
1, 66376, Control_c, 6, 11, 80
1, 66376, Control_c, 2, 11, 80
1, 66376, Control_c, 10, 11, 80
1, 66384, Note_on_c, 6, 78, 0
1, 66384, Control_c, 3, 11, 80
1, 66385, Note_on_c, 6, 74, 86
1, 66385, Note_on_c, 9, 42, 42
1, 66386, Note_on_c, 9, 42, 0
1, 66388, Note_on_c, 4, 71, 0
1, 66396, Note_on_c, 0, 66, 0
1, 66400, Control_c, 9, 11, 79
1, 66400, Control_c, 0, 11, 79
1, 66400, Control_c, 2, 11, 79
1, 66400, Control_c, 4, 11, 79
1, 66400, Control_c, 1, 11, 79
1, 66400, Control_c, 10, 11, 79
1, 66400, Control_c, 6, 11, 79
1, 66402, Note_on_c, 0, 67, 0
1, 66403, Note_on_c, 6, 74, 0
1, 66403, Note_on_c, 0, 71, 0
1, 66404, Note_on_c, 0, 74, 0
1, 66408, Control_c, 3, 11, 79
1, 66409, Note_on_c, 2, 68, 61
1, 66413, Note_on_c, 1, 31, 0
1, 66415, Note_on_c, 1, 43, 0
1, 66424, Control_c, 2, 11, 78
1, 66424, Control_c, 1, 11, 78
1, 66424, Control_c, 9, 11, 78
1, 66424, Control_c, 10, 11, 78
1, 66424, Control_c, 6, 11, 78
1, 66424, Control_c, 0, 11, 78
1, 66424, Control_c, 4, 11, 78
1, 66430, Note_on_c, 2, 68, 0
1, 66431, Note_on_c, 10, 57, 73
1, 66431, Note_on_c, 2, 68, 98
1, 66431, Note_on_c, 10, 61, 87
1, 66431, Note_on_c, 3, 73, 103
1, 66431, Note_on_c, 2, 63, 76
1, 66431, Lyric_t, "all "
1, 66431, Note_on_c, 10, 64, 87
1, 66432, Control_c, 3, 11, 78
1, 66432, Note_on_c, 9, 36, 110
1, 66432, Note_on_c, 4, 73, 49
1, 66432, Note_on_c, 6, 76, 119
1, 66432, Note_on_c, 9, 42, 96
1, 66433, Note_on_c, 9, 42, 0
1, 66433, Note_on_c, 9, 36, 0
1, 66433, Note_on_c, 1, 42, 99
1, 66433, Note_on_c, 1, 30, 97
1, 66433, Note_on_c, 0, 73, 71
1, 66433, Note_on_c, 0, 76, 83
1, 66433, Note_on_c, 2, 72, 101
1, 66433, Note_on_c, 0, 69, 75
1, 66448, Control_c, 0, 11, 77
1, 66448, Control_c, 2, 11, 77
1, 66448, Control_c, 6, 11, 77
1, 66448, Control_c, 4, 11, 77
1, 66448, Control_c, 9, 11, 77
1, 66448, Control_c, 1, 11, 77
1, 66448, Control_c, 10, 11, 77
1, 66453, Note_on_c, 2, 72, 0
1, 66454, Note_on_c, 2, 73, 77
1, 66456, Control_c, 3, 11, 77
1, 66457, Note_on_c, 2, 68, 0
1, 66457, Note_on_c, 2, 69, 83
1, 66458, Note_on_c, 2, 63, 0
1, 66458, Note_on_c, 2, 64, 71
1, 66472, Control_c, 6, 11, 76
1, 66472, Control_c, 2, 11, 76
1, 66472, Control_c, 0, 11, 76
1, 66472, Control_c, 1, 11, 76
1, 66472, Control_c, 10, 11, 76
1, 66472, Control_c, 9, 11, 76
1, 66472, Control_c, 4, 11, 76
1, 66479, Note_on_c, 3, 73, 0
1, 66479, Note_on_c, 9, 42, 37
1, 66479, Note_on_c, 3, 69, 57
1, 66480, Note_on_c, 9, 42, 0
1, 66480, Note_on_c, 4, 73, 0
1, 66480, Control_c, 3, 11, 76
1, 66480, Note_on_c, 4, 69, 20
1, 66488, Control_c, 0, 11, 75
1, 66488, Control_c, 6, 11, 75
1, 66488, Control_c, 9, 11, 75
1, 66488, Control_c, 4, 11, 75
1, 66488, Control_c, 1, 11, 75
1, 66488, Control_c, 10, 11, 75
1, 66488, Control_c, 2, 11, 75
1, 66496, Control_c, 3, 11, 75
1, 66500, Note_on_c, 2, 64, 0
1, 66500, Note_on_c, 2, 69, 0
1, 66501, Note_on_c, 2, 73, 0
1, 66506, Note_on_c, 2, 69, 99
1, 66507, Note_on_c, 2, 64, 80
1, 66509, Note_on_c, 2, 73, 103
1, 66512, Control_c, 2, 11, 74
1, 66512, Control_c, 9, 11, 74
1, 66512, Control_c, 6, 11, 74
1, 66512, Control_c, 4, 11, 74
1, 66512, Control_c, 0, 11, 74
1, 66512, Control_c, 10, 11, 74
1, 66512, Control_c, 1, 11, 74
1, 66514, Note_on_c, 2, 73, 0
1, 66514, Note_on_c, 2, 64, 0
1, 66514, Note_on_c, 2, 69, 0
1, 66520, Control_c, 3, 11, 74
1, 66527, Note_on_c, 3, 69, 0
1, 66527, Note_on_c, 9, 42, 110
1, 66527, Note_on_c, 3, 66, 45
1, 66528, Note_on_c, 9, 42, 0
1, 66528, Note_on_c, 4, 69, 0
1, 66528, Note_on_c, 9, 40, 95
1, 66528, Note_on_c, 9, 60, 77
1, 66528, Note_on_c, 4, 66, 6
1, 66528, Note_on_c, 9, 39, 110
1, 66529, Note_on_c, 9, 39, 0
1, 66529, Note_on_c, 9, 60, 0
1, 66529, Note_on_c, 9, 40, 0
1, 66529, Note_on_c, 2, 64, 95
1, 66533, Note_on_c, 0, 76, 0
1, 66535, Note_on_c, 2, 64, 0
1, 66536, Note_on_c, 0, 69, 0
1, 66536, Note_on_c, 0, 73, 0
1, 66536, Control_c, 6, 11, 73
1, 66536, Control_c, 10, 11, 73
1, 66536, Control_c, 1, 11, 73
1, 66536, Control_c, 9, 11, 73
1, 66536, Control_c, 4, 11, 73
1, 66536, Control_c, 0, 11, 73
1, 66536, Control_c, 2, 11, 73
1, 66540, Note_on_c, 1, 30, 0
1, 66543, Note_on_c, 1, 42, 0
1, 66544, Control_c, 3, 11, 73
1, 66555, Note_on_c, 10, 64, 0
1, 66557, Note_on_c, 10, 57, 0
1, 66558, Note_on_c, 10, 61, 0
1, 66560, Control_c, 9, 11, 72
1, 66560, Control_c, 10, 11, 72
1, 66560, Control_c, 6, 11, 72
1, 66560, Control_c, 0, 11, 72
1, 66560, Control_c, 1, 11, 72
1, 66560, Control_c, 4, 11, 72
1, 66560, Control_c, 2, 11, 72
1, 66568, Control_c, 3, 11, 72
1, 66570, Note_on_c, 6, 76, 0
1, 66574, Note_on_c, 3, 66, 0
1, 66575, Note_on_c, 6, 74, 112
1, 66575, Note_on_c, 0, 69, 78
1, 66575, Note_on_c, 3, 71, 85
1, 66575, Lyric_t, ""
1, 66575, Lyric_t, "\015"
1, 66575, Lyric_t, "right. "
1, 66575, Note_on_c, 0, 74, 82
1, 66575, Note_on_c, 0, 78, 73
1, 66575, Note_on_c, 2, 59, 81
1, 66576, Note_on_c, 4, 66, 0
1, 66576, Note_on_c, 1, 47, 110
1, 66576, Note_on_c, 9, 42, 44
1, 66576, Note_on_c, 9, 36, 91
1, 66576, Note_on_c, 1, 35, 98
1, 66576, Note_on_c, 2, 62, 101
1, 66576, Note_on_c, 10, 62, 100
1, 66576, Note_on_c, 10, 66, 104
1, 66576, Note_on_c, 10, 57, 91
1, 66576, Note_on_c, 4, 71, 28
1, 66577, Note_on_c, 9, 36, 0
1, 66577, Note_on_c, 9, 42, 0
1, 66578, Note_on_c, 2, 66, 103
1, 66579, Note_on_c, 2, 71, 102
1, 66584, Control_c, 2, 11, 71
1, 66584, Control_c, 6, 11, 71
1, 66584, Control_c, 0, 11, 71
1, 66584, Control_c, 1, 11, 71
1, 66584, Control_c, 4, 11, 71
1, 66584, Control_c, 9, 11, 71
1, 66584, Control_c, 10, 11, 71
1, 66592, Control_c, 3, 11, 71
1, 66597, Note_on_c, 10, 66, 0
1, 66599, Note_on_c, 6, 74, 0
1, 66601, Note_on_c, 10, 62, 0
1, 66601, Note_on_c, 10, 57, 0
1, 66608, Control_c, 1, 11, 70
1, 66608, Control_c, 6, 11, 70
1, 66608, Control_c, 2, 11, 70
1, 66608, Control_c, 4, 11, 70
1, 66608, Control_c, 9, 11, 70
1, 66608, Control_c, 0, 11, 70
1, 66608, Control_c, 10, 11, 70
1, 66616, Control_c, 3, 11, 70
1, 66623, Note_on_c, 9, 42, 95
1, 66624, Note_on_c, 9, 42, 0
1, 66624, Note_on_c, 9, 36, 110
1, 66625, Note_on_c, 9, 36, 0
1, 66627, Note_on_c, 2, 71, 0
1, 66632, Control_c, 1, 11, 69
1, 66632, Control_c, 9, 11, 69
1, 66632, Control_c, 4, 11, 69
1, 66632, Control_c, 2, 11, 69
1, 66632, Control_c, 10, 11, 69
1, 66632, Control_c, 6, 11, 69
1, 66632, Control_c, 0, 11, 69
1, 66636, Note_on_c, 2, 66, 0
1, 66640, Control_c, 3, 11, 69
1, 66641, Note_on_c, 2, 62, 0
1, 66642, Note_on_c, 2, 59, 0
1, 66650, Note_on_c, 0, 78, 0
1, 66650, Note_on_c, 0, 74, 0
1, 66656, Control_c, 2, 11, 68
1, 66656, Control_c, 10, 11, 68
1, 66656, Control_c, 1, 11, 68
1, 66656, Control_c, 6, 11, 68
1, 66656, Control_c, 9, 11, 68
1, 66656, Control_c, 0, 11, 68
1, 66656, Control_c, 4, 11, 68
1, 66662, Note_on_c, 0, 69, 0
1, 66664, Note_on_c, 1, 47, 0
1, 66664, Control_c, 3, 11, 68
1, 66670, Note_on_c, 1, 35, 0
1, 66671, Note_on_c, 1, 33, 100
1, 66671, Note_on_c, 9, 42, 39
1, 66671, Note_on_c, 2, 61, 101
1, 66671, Note_on_c, 1, 45, 97
1, 66672, Note_on_c, 9, 42, 0
1, 66673, Note_on_c, 6, 78, 104
1, 66673, Note_on_c, 2, 64, 103
1, 66673, Note_on_c, 0, 73, 75
1, 66673, Note_on_c, 0, 69, 66
1, 66673, Note_on_c, 0, 76, 68
1, 66680, Control_c, 4, 11, 67
1, 66680, Control_c, 9, 11, 67
1, 66680, Control_c, 6, 11, 67
1, 66680, Control_c, 1, 11, 67
1, 66680, Control_c, 0, 11, 67
1, 66680, Control_c, 2, 11, 67
1, 66680, Control_c, 10, 11, 67
1, 66684, Note_on_c, 0, 76, 0
1, 66685, Note_on_c, 0, 69, 0
1, 66687, Note_on_c, 1, 45, 0
1, 66688, Note_on_c, 1, 33, 0
1, 66688, Note_on_c, 0, 73, 0
1, 66688, Control_c, 3, 11, 67
1, 66688, Lyric_t, ""
1, 66688, Lyric_t, "\015"
1, 66694, Note_on_c, 3, 71, 0
1, 66696, Note_on_c, 6, 78, 0
1, 66704, Control_c, 9, 11, 66
1, 66704, Control_c, 1, 11, 66
1, 66704, Control_c, 10, 11, 66
1, 66704, Control_c, 4, 11, 66
1, 66704, Control_c, 6, 11, 66
1, 66704, Control_c, 2, 11, 66
1, 66704, Control_c, 0, 11, 66
1, 66712, Control_c, 3, 11, 66
1, 66718, Note_on_c, 2, 64, 0
1, 66718, Note_on_c, 2, 61, 0
1, 66719, Note_on_c, 9, 42, 110
1, 66719, Note_on_c, 1, 35, 97
1, 66719, Note_on_c, 2, 62, 101
1, 66720, Note_on_c, 9, 42, 0
1, 66720, Note_on_c, 9, 60, 77
1, 66720, Note_on_c, 2, 66, 103
1, 66720, Note_on_c, 9, 39, 110
1, 66720, Note_on_c, 9, 40, 110
1, 66720, Note_on_c, 9, 36, 110
1, 66720, Note_on_c, 1, 47, 120
1, 66721, Note_on_c, 9, 36, 0
1, 66721, Note_on_c, 9, 40, 0
1, 66721, Note_on_c, 9, 39, 0
1, 66721, Note_on_c, 9, 60, 0
1, 66721, Note_on_c, 0, 74, 91
1, 66721, Note_on_c, 0, 78, 71
1, 66721, Note_on_c, 6, 81, 112
1, 66721, Note_on_c, 0, 69, 84
1, 66728, Control_c, 6, 11, 65
1, 66728, Control_c, 10, 11, 65
1, 66728, Control_c, 9, 11, 65
1, 66728, Control_c, 2, 11, 65
1, 66728, Control_c, 1, 11, 65
1, 66728, Control_c, 4, 11, 65
1, 66728, Control_c, 0, 11, 65
1, 66736, Control_c, 3, 11, 65
1, 66741, Note_on_c, 2, 66, 0
1, 66742, Note_on_c, 2, 62, 0
1, 66752, Control_c, 2, 11, 64
1, 66752, Control_c, 10, 11, 64
1, 66752, Control_c, 4, 11, 64
1, 66752, Control_c, 1, 11, 64
1, 66752, Control_c, 0, 11, 64
1, 66752, Control_c, 9, 11, 64
1, 66752, Control_c, 6, 11, 64
1, 66760, Control_c, 3, 11, 64
1, 66768, Note_on_c, 6, 81, 0
1, 66768, Control_c, 4, 11, 63
1, 66768, Control_c, 9, 11, 63
1, 66768, Control_c, 0, 11, 63
1, 66768, Control_c, 6, 11, 63
1, 66768, Control_c, 1, 11, 63
1, 66768, Control_c, 10, 11, 63
1, 66768, Control_c, 2, 11, 63
1, 66769, Note_on_c, 9, 42, 42
1, 66769, Note_on_c, 6, 83, 119
1, 66770, Note_on_c, 9, 42, 0
1, 66776, Control_c, 3, 11, 63
1, 66779, Note_on_c, 0, 78, 0
1, 66785, Note_on_c, 0, 74, 0
1, 66787, Note_on_c, 6, 83, 0
1, 66788, Note_on_c, 0, 69, 0
1, 66792, Control_c, 10, 11, 62
1, 66792, Control_c, 1, 11, 62
1, 66792, Control_c, 6, 11, 62
1, 66792, Control_c, 2, 11, 62
1, 66792, Control_c, 4, 11, 62
1, 66792, Control_c, 9, 11, 62
1, 66792, Control_c, 0, 11, 62
1, 66800, Control_c, 3, 11, 62
1, 66806, Note_on_c, 1, 35, 0
1, 66806, Note_on_c, 1, 47, 0
1, 66816, Control_c, 1, 11, 61
1, 66816, Control_c, 9, 11, 61
1, 66816, Note_on_c, 10, 76, 127
1, 66816, Note_on_c, 1, 28, 104
1, 66816, Control_c, 6, 11, 61
1, 66816, Note_on_c, 9, 42, 96
1, 66816, Control_c, 4, 11, 61
1, 66816, Control_c, 2, 11, 61
1, 66816, Note_on_c, 9, 36, 110
1, 66816, Note_on_c, 0, 66, 96
1, 66816, Control_c, 0, 11, 61
1, 66816, Note_on_c, 6, 83, 127
1, 66816, Control_c, 10, 11, 61
1, 66817, Note_on_c, 9, 36, 0
1, 66817, Note_on_c, 9, 42, 0
1, 66817, Note_on_c, 0, 71, 81
1, 66817, Note_on_c, 0, 67, 81
1, 66817, Note_on_c, 9, 43, 84
1, 66817, Note_on_c, 0, 74, 82
1, 66817, Note_on_c, 1, 40, 110
1, 66818, Note_on_c, 9, 43, 0
1, 66818, Note_on_c, 4, 71, 0
1, 66824, Control_c, 3, 11, 61
1, 66840, Note_on_c, 2, 74, 75
1, 66840, Control_c, 0, 11, 60
1, 66840, Control_c, 4, 11, 60
1, 66840, Control_c, 10, 11, 60
1, 66840, Control_c, 9, 11, 60
1, 66840, Control_c, 2, 11, 60
1, 66840, Control_c, 1, 11, 60
1, 66840, Control_c, 6, 11, 60
1, 66842, Note_on_c, 2, 67, 19
1, 66848, Control_c, 3, 11, 60
1, 66852, Note_on_c, 6, 82, 105
1, 66860, Note_on_c, 6, 83, 0
1, 66860, Note_on_c, 10, 75, 112
1, 66860, Note_on_c, 6, 81, 101
1, 66861, Note_on_c, 2, 67, 0
1, 66862, Note_on_c, 2, 62, 43
1, 66863, Note_on_c, 10, 76, 0
1, 66863, Note_on_c, 9, 42, 37
1, 66864, Note_on_c, 9, 42, 0
1, 66864, Control_c, 4, 11, 59
1, 66864, Control_c, 10, 11, 59
1, 66864, Control_c, 1, 11, 59
1, 66864, Control_c, 9, 11, 59
1, 66864, Control_c, 0, 11, 59
1, 66864, Control_c, 6, 11, 59
1, 66864, Control_c, 2, 11, 59
1, 66865, Note_on_c, 2, 74, 0
1, 66865, Note_on_c, 6, 80, 96
1, 66865, Note_on_c, 2, 67, 99
1, 66866, Note_on_c, 2, 74, 65
1, 66868, Note_on_c, 6, 82, 0
1, 66868, Note_on_c, 10, 74, 106
1, 66871, Note_on_c, 6, 81, 0
1, 66872, Note_on_c, 10, 73, 103
1, 66872, Note_on_c, 6, 79, 89
1, 66872, Control_c, 3, 11, 59
1, 66874, Note_on_c, 10, 75, 0
1, 66877, Note_on_c, 6, 80, 0
1, 66877, Note_on_c, 6, 78, 81
1, 66880, Note_on_c, 6, 79, 0
1, 66880, Note_on_c, 10, 74, 0
1, 66880, Note_on_c, 10, 72, 99
1, 66883, Note_on_c, 10, 73, 0
1, 66883, Note_on_c, 6, 78, 0
1, 66883, Note_on_c, 6, 77, 78
1, 66884, Note_on_c, 2, 74, 0
1, 66887, Note_on_c, 6, 77, 0
1, 66887, Note_on_c, 6, 76, 76
1, 66887, Note_on_c, 2, 74, 61
1, 66888, Control_c, 4, 11, 58
1, 66888, Control_c, 0, 11, 58
1, 66888, Control_c, 9, 11, 58
1, 66888, Control_c, 10, 11, 58
1, 66888, Control_c, 1, 11, 58
1, 66888, Control_c, 2, 11, 58
1, 66888, Control_c, 6, 11, 58
1, 66888, Note_on_c, 10, 71, 93
1, 66889, Note_on_c, 2, 67, 0
1, 66889, Note_on_c, 10, 72, 0
1, 66890, Note_on_c, 2, 62, 0
1, 66890, Note_on_c, 2, 67, 79
1, 66891, Note_on_c, 2, 62, 46
1, 66892, Note_on_c, 6, 76, 0
1, 66892, Note_on_c, 10, 70, 90
1, 66894, Note_on_c, 10, 71, 0
1, 66894, Note_on_c, 6, 75, 76
1, 66896, Control_c, 3, 11, 58
1, 66899, Note_on_c, 6, 75, 0
1, 66899, Note_on_c, 10, 70, 0
1, 66901, Note_on_c, 10, 69, 86
1, 66908, Note_on_c, 10, 69, 0
1, 66909, Note_on_c, 2, 62, 0
1, 66911, Note_on_c, 2, 67, 0
1, 66911, Note_on_c, 9, 42, 110
1, 66912, Note_on_c, 9, 42, 0
1, 66912, Note_on_c, 2, 74, 0
1, 66912, Note_on_c, 4, 74, 40
1, 66912, Note_on_c, 9, 39, 110
1, 66912, Note_on_c, 9, 60, 77
1, 66912, Note_on_c, 9, 40, 95
1, 66912, Control_c, 2, 11, 57
1, 66912, Control_c, 0, 11, 57
1, 66912, Note_on_c, 2, 62, 96
1, 66912, Control_c, 6, 11, 57
1, 66912, Control_c, 10, 11, 57
1, 66912, Control_c, 1, 11, 57
1, 66912, Control_c, 4, 11, 57
1, 66912, Control_c, 9, 11, 57
1, 66913, Note_on_c, 9, 40, 0
1, 66913, Note_on_c, 9, 60, 0
1, 66913, Note_on_c, 9, 39, 0
1, 66913, Lyric_t, "Let "
1, 66913, Note_on_c, 2, 67, 97
1, 66913, Note_on_c, 3, 74, 84
1, 66914, Note_on_c, 2, 74, 93
1, 66920, Control_c, 3, 11, 57
1, 66923, Note_on_c, 2, 62, 0
1, 66926, Note_on_c, 2, 67, 0
1, 66928, Note_on_c, 1, 28, 0
1, 66929, Note_on_c, 2, 74, 0
1, 66930, Note_on_c, 0, 66, 0
1, 66932, Note_on_c, 1, 40, 0
1, 66935, Note_on_c, 0, 71, 0
1, 66936, Note_on_c, 0, 74, 0
1, 66936, Control_c, 4, 11, 56
1, 66936, Control_c, 9, 11, 56
1, 66936, Control_c, 0, 11, 56
1, 66936, Control_c, 6, 11, 56
1, 66936, Control_c, 10, 11, 56
1, 66936, Control_c, 1, 11, 56
1, 66936, Control_c, 2, 11, 56
1, 66937, Note_on_c, 0, 67, 0
1, 66944, Control_c, 3, 11, 56
1, 66959, Note_on_c, 3, 74, 0
1, 66959, Note_on_c, 4, 74, 0
1, 66959, Note_on_c, 0, 71, 78
1, 66959, Note_on_c, 0, 66, 78
1, 66959, Note_on_c, 1, 43, 100
1, 66959, Note_on_c, 1, 31, 114
1, 66959, Note_on_c, 0, 74, 76
1, 66959, Note_on_c, 0, 67, 69
1, 66959, Note_on_c, 2, 62, 100
1, 66960, Control_c, 2, 11, 55
1, 66960, Note_on_c, 9, 42, 44
1, 66960, Control_c, 9, 11, 55
1, 66960, Note_on_c, 4, 74, 47
1, 66960, Control_c, 0, 11, 55
1, 66960, Control_c, 10, 11, 55
1, 66960, Control_c, 6, 11, 55
1, 66960, Note_on_c, 9, 36, 91
1, 66960, Control_c, 1, 11, 55
1, 66960, Control_c, 4, 11, 55
1, 66961, Note_on_c, 9, 36, 0
1, 66961, Note_on_c, 9, 42, 0
1, 66961, Note_on_c, 2, 67, 100
1, 66961, Note_on_c, 3, 74, 83
1, 66961, Lyric_t, "this "
1, 66962, Note_on_c, 2, 71, 101
1, 66968, Note_on_c, 0, 67, 0
1, 66968, Note_on_c, 0, 74, 0
1, 66968, Control_c, 3, 11, 55
1, 66970, Note_on_c, 0, 71, 0
1, 66971, Note_on_c, 0, 66, 0
1, 66976, Note_on_c, 2, 71, 0
1, 66976, Note_on_c, 2, 62, 0
1, 66977, Note_on_c, 1, 31, 0
1, 66977, Note_on_c, 1, 43, 0
1, 66981, Note_on_c, 2, 67, 0
1, 66984, Control_c, 2, 11, 54
1, 66984, Control_c, 0, 11, 54
1, 66984, Control_c, 10, 11, 54
1, 66984, Control_c, 9, 11, 54
1, 66984, Control_c, 4, 11, 54
1, 66984, Control_c, 1, 11, 54
1, 66984, Control_c, 6, 11, 54
1, 66992, Control_c, 3, 11, 54
1, 67007, Note_on_c, 3, 74, 0
1, 67007, Note_on_c, 0, 67, 82
1, 67007, Note_on_c, 0, 74, 83
1, 67007, Note_on_c, 0, 66, 87
1, 67007, Note_on_c, 9, 42, 95
1, 67007, Note_on_c, 0, 71, 81
1, 67007, Note_on_c, 2, 62, 101
1, 67008, Note_on_c, 9, 42, 0
1, 67008, Note_on_c, 4, 74, 0
1, 67008, Control_c, 9, 11, 53
1, 67008, Control_c, 1, 11, 53
1, 67008, Control_c, 10, 11, 53
1, 67008, Note_on_c, 9, 36, 110
1, 67008, Note_on_c, 1, 45, 117
1, 67008, Control_c, 0, 11, 53
1, 67008, Note_on_c, 1, 33, 112
1, 67008, Control_c, 6, 11, 53
1, 67008, Control_c, 4, 11, 53
1, 67008, Note_on_c, 4, 71, 21
1, 67008, Control_c, 2, 11, 53
1, 67009, Note_on_c, 9, 36, 0
1, 67009, Lyric_t, "groove "
1, 67009, Note_on_c, 3, 71, 85
1, 67009, Note_on_c, 2, 69, 91
1, 67010, Note_on_c, 2, 71, 99
1, 67016, Control_c, 3, 11, 53
1, 67032, Control_c, 10, 11, 52
1, 67032, Control_c, 2, 11, 52
1, 67032, Control_c, 9, 11, 52
1, 67032, Control_c, 0, 11, 52
1, 67032, Control_c, 4, 11, 52
1, 67032, Control_c, 6, 11, 52
1, 67032, Control_c, 1, 11, 52
1, 67040, Control_c, 3, 11, 52
1, 67055, Note_on_c, 9, 42, 39
1, 67056, Note_on_c, 9, 42, 0
1, 67056, Control_c, 2, 11, 51
1, 67056, Note_on_c, 10, 67, 102
1, 67056, Control_c, 9, 11, 51
1, 67056, Control_c, 4, 11, 51
1, 67056, Control_c, 10, 11, 51
1, 67056, Control_c, 0, 11, 51
1, 67056, Control_c, 1, 11, 51
1, 67056, Control_c, 6, 11, 51
1, 67057, Note_on_c, 6, 79, 127
1, 67059, Note_on_c, 3, 71, 0
1, 67064, Control_c, 3, 11, 51
1, 67072, Control_c, 2, 11, 50
1, 67072, Control_c, 10, 11, 50
1, 67072, Control_c, 4, 11, 50
1, 67072, Control_c, 0, 11, 50
1, 67072, Control_c, 1, 11, 50
1, 67072, Control_c, 9, 11, 50
1, 67072, Control_c, 6, 11, 50
1, 67080, Control_c, 3, 11, 50
1, 67085, Note_on_c, 0, 74, 0
1, 67085, Note_on_c, 0, 71, 0
1, 67086, Note_on_c, 0, 67, 0
1, 67086, Note_on_c, 0, 66, 0
1, 67088, Note_on_c, 1, 33, 0
1, 67091, Note_on_c, 6, 79, 0
1, 67092, Note_on_c, 10, 67, 0
1, 67094, Note_on_c, 2, 69, 0
1, 67094, Note_on_c, 1, 45, 0
1, 67096, Control_c, 4, 11, 49
1, 67096, Control_c, 10, 11, 49
1, 67096, Control_c, 1, 11, 49
1, 67096, Control_c, 6, 11, 49
1, 67096, Control_c, 2, 11, 49
1, 67096, Control_c, 0, 11, 49
1, 67096, Control_c, 9, 11, 49
1, 67102, Note_on_c, 2, 71, 0
1, 67103, Note_on_c, 2, 62, 0
1, 67103, Note_on_c, 9, 42, 110
1, 67104, Note_on_c, 9, 42, 0
1, 67104, Control_c, 3, 11, 49
1, 67104, Note_on_c, 9, 40, 110
1, 67104, Note_on_c, 9, 36, 110
1, 67104, Note_on_c, 0, 67, 79
1, 67104, Note_on_c, 2, 62, 101
1, 67104, Note_on_c, 1, 43, 112
1, 67104, Note_on_c, 0, 71, 81
1, 67104, Note_on_c, 0, 74, 81
1, 67104, Note_on_c, 1, 31, 100
1, 67104, Note_on_c, 9, 60, 77
1, 67104, Note_on_c, 9, 39, 110
1, 67105, Note_on_c, 9, 39, 0
1, 67105, Note_on_c, 9, 60, 0
1, 67105, Note_on_c, 9, 36, 0
1, 67105, Note_on_c, 9, 40, 0
1, 67105, Note_on_c, 0, 66, 87
1, 67106, Note_on_c, 2, 67, 93
1, 67107, Note_on_c, 2, 71, 103
1, 67120, Control_c, 10, 11, 48
1, 67120, Control_c, 0, 11, 48
1, 67120, Control_c, 6, 11, 48
1, 67120, Control_c, 2, 11, 48
1, 67120, Control_c, 4, 11, 48
1, 67120, Control_c, 1, 11, 48
1, 67120, Control_c, 9, 11, 48
1, 67128, Control_c, 3, 11, 48
1, 67140, Note_on_c, 2, 71, 0
1, 67143, Note_on_c, 2, 67, 0
1, 67144, Control_c, 0, 11, 47
1, 67144, Control_c, 6, 11, 47
1, 67144, Control_c, 1, 11, 47
1, 67144, Control_c, 10, 11, 47
1, 67144, Control_c, 2, 11, 47
1, 67144, Control_c, 9, 11, 47
1, 67144, Control_c, 4, 11, 47
1, 67148, Note_on_c, 2, 62, 0
1, 67152, Control_c, 3, 11, 47
1, 67152, Note_on_c, 10, 69, 104
1, 67153, Note_on_c, 6, 81, 117
1, 67153, Note_on_c, 9, 42, 42
1, 67154, Note_on_c, 9, 42, 0
1, 67164, Note_on_c, 0, 66, 0
1, 67168, Control_c, 4, 11, 46
1, 67168, Control_c, 2, 11, 46
1, 67168, Control_c, 0, 11, 46
1, 67168, Control_c, 9, 11, 46
1, 67168, Control_c, 6, 11, 46
1, 67168, Control_c, 10, 11, 46
1, 67168, Control_c, 1, 11, 46
1, 67170, Note_on_c, 0, 67, 0
1, 67171, Note_on_c, 0, 71, 0
1, 67172, Note_on_c, 0, 74, 0
1, 67176, Note_on_c, 4, 71, 0
1, 67176, Control_c, 3, 11, 46
1, 67181, Note_on_c, 1, 31, 0
1, 67183, Note_on_c, 1, 43, 0
1, 67189, Note_on_c, 10, 69, 0
1, 67192, Control_c, 6, 11, 45
1, 67192, Control_c, 10, 11, 45
1, 67192, Control_c, 9, 11, 45
1, 67192, Control_c, 1, 11, 45
1, 67192, Control_c, 2, 11, 45
1, 67192, Control_c, 0, 11, 45
1, 67192, Control_c, 4, 11, 45
1, 67194, Note_on_c, 6, 81, 0
1, 67199, Lyric_t, "set "
1, 67199, Note_on_c, 3, 66, 58
1, 67200, Note_on_c, 9, 42, 96
1, 67200, Control_c, 3, 11, 45
1, 67200, Note_on_c, 6, 81, 126
1, 67200, Note_on_c, 9, 36, 110
1, 67200, Note_on_c, 4, 66, 17
1, 67200, Note_on_c, 10, 69, 97
1, 67201, Note_on_c, 9, 36, 0
1, 67201, Note_on_c, 9, 42, 0
1, 67201, Note_on_c, 0, 76, 83
1, 67201, Note_on_c, 1, 42, 99
1, 67201, Note_on_c, 0, 69, 75
1, 67201, Note_on_c, 1, 30, 97
1, 67201, Note_on_c, 0, 73, 71
1, 67201, Note_on_c, 2, 63, 99
1, 67202, Note_on_c, 2, 68, 93
1, 67203, Note_on_c, 2, 72, 103
1, 67216, Control_c, 4, 11, 44
1, 67216, Control_c, 2, 11, 44
1, 67216, Control_c, 6, 11, 44
1, 67216, Control_c, 0, 11, 44
1, 67216, Control_c, 10, 11, 44
1, 67216, Control_c, 9, 11, 44
1, 67216, Control_c, 1, 11, 44
1, 67220, Note_on_c, 2, 72, 0
1, 67223, Note_on_c, 2, 73, 96
1, 67224, Control_c, 3, 11, 44
1, 67225, Note_on_c, 2, 68, 0
1, 67226, Note_on_c, 2, 64, 87
1, 67226, Note_on_c, 2, 69, 92
1, 67228, Note_on_c, 2, 63, 0
1, 67240, Control_c, 2, 11, 43
1, 67240, Control_c, 6, 11, 43
1, 67240, Control_c, 0, 11, 43
1, 67240, Control_c, 4, 11, 43
1, 67240, Control_c, 9, 11, 43
1, 67240, Control_c, 1, 11, 43
1, 67240, Control_c, 10, 11, 43
1, 67246, Note_on_c, 3, 66, 0
1, 67247, Lyric_t, "in "
1, 67247, Note_on_c, 9, 42, 37
1, 67247, Note_on_c, 3, 69, 63
1, 67248, Note_on_c, 9, 42, 0
1, 67248, Note_on_c, 4, 66, 0
1, 67248, Control_c, 3, 11, 43
1, 67248, Note_on_c, 4, 69, 21
1, 67264, Control_c, 1, 11, 42
1, 67264, Control_c, 6, 11, 42
1, 67264, Control_c, 9, 11, 42
1, 67264, Control_c, 4, 11, 42
1, 67264, Control_c, 2, 11, 42
1, 67264, Control_c, 10, 11, 42
1, 67264, Control_c, 0, 11, 42
1, 67268, Note_on_c, 2, 69, 0
1, 67269, Note_on_c, 2, 73, 0
1, 67272, Control_c, 3, 11, 42
1, 67274, Note_on_c, 2, 73, 102
1, 67275, Note_on_c, 2, 69, 96
1, 67280, Note_on_c, 2, 73, 0
1, 67285, Note_on_c, 2, 69, 0
1, 67288, Control_c, 6, 11, 41
1, 67288, Control_c, 9, 11, 41
1, 67288, Control_c, 4, 11, 41
1, 67288, Control_c, 2, 11, 41
1, 67288, Control_c, 0, 11, 41
1, 67288, Control_c, 1, 11, 41
1, 67288, Control_c, 10, 11, 41
1, 67293, Note_on_c, 2, 64, 0
1, 67294, Note_on_c, 3, 69, 0
1, 67295, Note_on_c, 3, 73, 92
1, 67295, Lyric_t, "your "
1, 67295, Note_on_c, 9, 42, 110
1, 67296, Note_on_c, 9, 42, 0
1, 67296, Note_on_c, 4, 69, 0
1, 67296, Note_on_c, 4, 73, 32
1, 67296, Note_on_c, 9, 60, 77
1, 67296, Note_on_c, 9, 40, 95
1, 67296, Note_on_c, 9, 39, 110
1, 67296, Control_c, 3, 11, 41
1, 67297, Note_on_c, 9, 39, 0
1, 67297, Note_on_c, 9, 60, 0
1, 67297, Note_on_c, 9, 40, 0
1, 67301, Note_on_c, 0, 76, 0
1, 67304, Note_on_c, 0, 69, 0
1, 67304, Note_on_c, 0, 73, 0
1, 67308, Note_on_c, 1, 30, 0
1, 67311, Note_on_c, 1, 42, 0
1, 67312, Control_c, 2, 11, 40
1, 67312, Control_c, 0, 11, 40
1, 67312, Control_c, 6, 11, 40
1, 67312, Control_c, 9, 11, 40
1, 67312, Control_c, 4, 11, 40
1, 67312, Control_c, 1, 11, 40
1, 67312, Control_c, 10, 11, 40
1, 67320, Control_c, 3, 11, 40
1, 67336, Control_c, 1, 11, 39
1, 67336, Control_c, 9, 11, 39
1, 67336, Control_c, 10, 11, 39
1, 67336, Control_c, 6, 11, 39
1, 67336, Control_c, 0, 11, 39
1, 67336, Control_c, 2, 11, 39
1, 67336, Control_c, 4, 11, 39
1, 67343, Note_on_c, 3, 73, 0
1, 67343, Lyric_t, ""
1, 67343, Lyric_t, "\015"
1, 67343, Note_on_c, 0, 69, 78
1, 67343, Note_on_c, 3, 71, 80
1, 67343, Note_on_c, 0, 74, 82
1, 67343, Note_on_c, 2, 59, 77
1, 67343, Note_on_c, 0, 78, 73
1, 67343, Lyric_t, "shoes, "
1, 67344, Note_on_c, 4, 73, 0
1, 67344, Note_on_c, 9, 42, 44
1, 67344, Control_c, 3, 11, 39
1, 67344, Note_on_c, 1, 47, 110
1, 67344, Note_on_c, 9, 36, 91
1, 67344, Note_on_c, 1, 35, 98
1, 67344, Note_on_c, 2, 62, 103
1, 67344, Note_on_c, 4, 71, 23
1, 67345, Note_on_c, 9, 36, 0
1, 67345, Note_on_c, 9, 42, 0
1, 67346, Note_on_c, 2, 66, 103
1, 67360, Control_c, 0, 11, 38
1, 67360, Control_c, 10, 11, 38
1, 67360, Control_c, 2, 11, 38
1, 67360, Control_c, 9, 11, 38
1, 67360, Control_c, 1, 11, 38
1, 67360, Control_c, 4, 11, 38
1, 67360, Control_c, 6, 11, 38
1, 67368, Control_c, 3, 11, 38
1, 67376, Control_c, 0, 11, 37
1, 67376, Control_c, 2, 11, 37
1, 67376, Control_c, 10, 11, 37
1, 67376, Control_c, 1, 11, 37
1, 67376, Control_c, 4, 11, 37
1, 67376, Control_c, 6, 11, 37
1, 67376, Control_c, 9, 11, 37
1, 67384, Control_c, 3, 11, 37
1, 67391, Note_on_c, 9, 42, 95
1, 67392, Note_on_c, 9, 42, 0
1, 67392, Note_on_c, 9, 36, 110
1, 67393, Note_on_c, 9, 36, 0
1, 67400, Control_c, 1, 11, 36
1, 67400, Control_c, 9, 11, 36
1, 67400, Control_c, 4, 11, 36
1, 67400, Control_c, 0, 11, 36
1, 67400, Control_c, 6, 11, 36
1, 67400, Control_c, 2, 11, 36
1, 67400, Control_c, 10, 11, 36
1, 67404, Note_on_c, 2, 62, 0
1, 67405, Note_on_c, 2, 66, 0
1, 67408, Control_c, 3, 11, 36
1, 67412, Note_on_c, 2, 59, 0
1, 67417, Note_on_c, 2, 64, 78
1, 67418, Note_on_c, 0, 78, 0
1, 67418, Note_on_c, 0, 74, 0
1, 67419, Note_on_c, 2, 59, 72
1, 67424, Control_c, 4, 11, 35
1, 67424, Control_c, 6, 11, 35
1, 67424, Control_c, 0, 11, 35
1, 67424, Control_c, 9, 11, 35
1, 67424, Control_c, 2, 11, 35
1, 67424, Control_c, 1, 11, 35
1, 67424, Control_c, 10, 11, 35
1, 67426, Note_on_c, 2, 59, 0
1, 67427, Note_on_c, 2, 64, 0
1, 67430, Note_on_c, 0, 69, 0
1, 67432, Note_on_c, 1, 47, 0
1, 67432, Control_c, 3, 11, 35
1, 67438, Note_on_c, 1, 35, 0
1, 67438, Note_on_c, 3, 71, 0
1, 67439, Note_on_c, 2, 61, 99
1, 67439, Note_on_c, 9, 42, 39
1, 67439, Note_on_c, 1, 33, 100
1, 67439, Note_on_c, 1, 45, 97
1, 67440, Note_on_c, 9, 42, 0
1, 67440, Note_on_c, 4, 71, 0
1, 67440, Note_on_c, 4, 69, 13
1, 67441, Note_on_c, 0, 76, 68
1, 67441, Note_on_c, 3, 69, 57
1, 67441, Note_on_c, 0, 69, 66
1, 67441, Note_on_c, 2, 64, 102
1, 67441, Note_on_c, 0, 73, 75
1, 67441, Lyric_t, "so "
1, 67448, Control_c, 0, 11, 34
1, 67448, Control_c, 2, 11, 34
1, 67448, Control_c, 6, 11, 34
1, 67448, Control_c, 4, 11, 34
1, 67448, Control_c, 9, 11, 34
1, 67448, Control_c, 1, 11, 34
1, 67448, Control_c, 10, 11, 34
1, 67452, Note_on_c, 0, 76, 0
1, 67453, Note_on_c, 0, 69, 0
1, 67455, Note_on_c, 1, 45, 0
1, 67456, Note_on_c, 1, 33, 0
1, 67456, Note_on_c, 0, 73, 0
1, 67456, Control_c, 3, 11, 34
1, 67472, Control_c, 1, 11, 33
1, 67472, Control_c, 2, 11, 33
1, 67472, Control_c, 0, 11, 33
1, 67472, Control_c, 6, 11, 33
1, 67472, Control_c, 4, 11, 33
1, 67472, Control_c, 10, 11, 33
1, 67472, Control_c, 9, 11, 33
1, 67480, Control_c, 3, 11, 33
1, 67482, Note_on_c, 2, 61, 0
1, 67484, Note_on_c, 2, 64, 0
1, 67485, Note_on_c, 3, 69, 0
1, 67486, Note_on_c, 2, 62, 97
1, 67487, Note_on_c, 3, 74, 90
1, 67487, Note_on_c, 1, 35, 97
1, 67487, Note_on_c, 2, 66, 103
1, 67487, Note_on_c, 9, 42, 110
1, 67487, Lyric_t, "stand "
1, 67488, Note_on_c, 9, 42, 0
1, 67488, Note_on_c, 4, 69, 0
1, 67488, Note_on_c, 9, 39, 110
1, 67488, Note_on_c, 1, 47, 120
1, 67488, Note_on_c, 9, 36, 110
1, 67488, Note_on_c, 9, 60, 77
1, 67488, Note_on_c, 9, 40, 110
1, 67488, Note_on_c, 4, 74, 30
1, 67489, Note_on_c, 9, 40, 0
1, 67489, Note_on_c, 9, 60, 0
1, 67489, Note_on_c, 9, 36, 0
1, 67489, Note_on_c, 9, 39, 0
1, 67489, Note_on_c, 0, 78, 71
1, 67489, Note_on_c, 0, 69, 84
1, 67489, Note_on_c, 0, 74, 91
1, 67496, Control_c, 0, 11, 32
1, 67496, Control_c, 1, 11, 32
1, 67496, Control_c, 9, 11, 32
1, 67496, Control_c, 10, 11, 32
1, 67496, Control_c, 2, 11, 32
1, 67496, Control_c, 6, 11, 32
1, 67496, Control_c, 4, 11, 32
1, 67504, Control_c, 3, 11, 32
1, 67509, Note_on_c, 2, 66, 0
1, 67513, Note_on_c, 2, 62, 0
1, 67520, Control_c, 0, 11, 31
1, 67520, Control_c, 2, 11, 31
1, 67520, Control_c, 10, 11, 31
1, 67520, Control_c, 6, 11, 31
1, 67520, Control_c, 4, 11, 31
1, 67520, Control_c, 9, 11, 31
1, 67520, Control_c, 1, 11, 31
1, 67528, Control_c, 3, 11, 31
1, 67537, Note_on_c, 9, 42, 42
1, 67538, Note_on_c, 9, 42, 0
1, 67542, Note_on_c, 3, 74, 0
1, 67544, Control_c, 10, 11, 30
1, 67544, Control_c, 9, 11, 30
1, 67544, Control_c, 2, 11, 30
1, 67544, Control_c, 0, 11, 30
1, 67544, Control_c, 1, 11, 30
1, 67544, Control_c, 4, 11, 30
1, 67544, Control_c, 6, 11, 30
1, 67547, Note_on_c, 0, 78, 0
1, 67552, Control_c, 3, 11, 30
1, 67553, Note_on_c, 0, 74, 0
1, 67556, Note_on_c, 0, 69, 0
1, 67568, Control_c, 9, 11, 29
1, 67568, Control_c, 4, 11, 29
1, 67568, Control_c, 10, 11, 29
1, 67568, Control_c, 2, 11, 29
1, 67568, Control_c, 0, 11, 29
1, 67568, Control_c, 6, 11, 29
1, 67568, Control_c, 1, 11, 29
1, 67572, Note_on_c, 6, 81, 0
1, 67574, Note_on_c, 1, 35, 0
1, 67574, Note_on_c, 1, 47, 0
1, 67574, Note_on_c, 10, 69, 0
1, 67576, Control_c, 3, 11, 29
1, 67584, Note_on_c, 4, 74, 0
1, 67584, Note_on_c, 4, 71, 23
1, 67584, Note_on_c, 3, 71, 57
1, 67584, Lyric_t, "up, "
1, 67584, Note_on_c, 1, 28, 104
1, 67584, Note_on_c, 9, 36, 110
1, 67584, Note_on_c, 9, 42, 96
1, 67584, Note_on_c, 0, 66, 96
1, 67585, Note_on_c, 9, 42, 0
1, 67585, Note_on_c, 9, 36, 0
1, 67585, Note_on_c, 0, 71, 81
1, 67585, Note_on_c, 0, 74, 82
1, 67585, Note_on_c, 1, 40, 110
1, 67585, Note_on_c, 9, 43, 86
1, 67585, Note_on_c, 0, 67, 81
1, 67586, Note_on_c, 9, 43, 0
1, 67592, Control_c, 10, 11, 28
1, 67592, Control_c, 0, 11, 28
1, 67592, Control_c, 2, 11, 28
1, 67592, Control_c, 9, 11, 28
1, 67592, Control_c, 4, 11, 28
1, 67592, Control_c, 1, 11, 28
1, 67592, Control_c, 6, 11, 28
1, 67600, Control_c, 3, 11, 28
1, 67606, Note_on_c, 2, 74, 73
1, 67616, Control_c, 2, 11, 27
1, 67616, Control_c, 9, 11, 27
1, 67616, Control_c, 1, 11, 27
1, 67616, Control_c, 0, 11, 27
1, 67616, Control_c, 10, 11, 27
1, 67616, Control_c, 4, 11, 27
1, 67616, Control_c, 6, 11, 27
1, 67624, Control_c, 3, 11, 27
1, 67631, Note_on_c, 2, 74, 0
1, 67631, Note_on_c, 2, 62, 90
1, 67631, Note_on_c, 9, 42, 37
1, 67632, Note_on_c, 9, 42, 0
1, 67633, Note_on_c, 2, 67, 100
1, 67634, Note_on_c, 2, 74, 94
1, 67638, Note_on_c, 3, 71, 0
1, 67640, Control_c, 2, 11, 26
1, 67640, Control_c, 4, 11, 26
1, 67640, Control_c, 1, 11, 26
1, 67640, Control_c, 0, 11, 26
1, 67640, Control_c, 10, 11, 26
1, 67640, Control_c, 9, 11, 26
1, 67640, Control_c, 6, 11, 26
1, 67648, Control_c, 3, 11, 26
1, 67654, Note_on_c, 2, 74, 0
1, 67656, Control_c, 10, 11, 25
1, 67656, Note_on_c, 2, 74, 99
1, 67656, Control_c, 6, 11, 25
1, 67656, Control_c, 0, 11, 25
1, 67656, Control_c, 9, 11, 25
1, 67656, Control_c, 4, 11, 25
1, 67656, Control_c, 1, 11, 25
1, 67656, Control_c, 2, 11, 25
1, 67657, Note_on_c, 2, 67, 0
1, 67658, Note_on_c, 2, 62, 0
1, 67658, Note_on_c, 2, 67, 99
1, 67659, Note_on_c, 2, 62, 81
1, 67664, Control_c, 3, 11, 25
1, 67676, Note_on_c, 2, 62, 0
1, 67679, Note_on_c, 2, 67, 0
1, 67679, Note_on_c, 4, 71, 0
1, 67679, Note_on_c, 9, 42, 110
1, 67680, Note_on_c, 9, 42, 0
1, 67680, Note_on_c, 2, 74, 0
1, 67680, Note_on_c, 4, 74, 35
1, 67680, Control_c, 10, 11, 24
1, 67680, Note_on_c, 2, 67, 98
1, 67680, Note_on_c, 9, 39, 110
1, 67680, Note_on_c, 4, 78, 32
1, 67680, Note_on_c, 2, 62, 100
1, 67680, Note_on_c, 4, 64, 25
1, 67680, Note_on_c, 4, 69, 25
1, 67680, Control_c, 9, 11, 24
1, 67680, Control_c, 2, 11, 24
1, 67680, Control_c, 0, 11, 24
1, 67680, Note_on_c, 9, 60, 77
1, 67680, Note_on_c, 9, 40, 95
1, 67680, Control_c, 1, 11, 24
1, 67680, Control_c, 6, 11, 24
1, 67680, Control_c, 4, 11, 24
1, 67681, Note_on_c, 9, 40, 0
1, 67681, Note_on_c, 9, 60, 0
1, 67681, Note_on_c, 9, 39, 0
1, 67681, Note_on_c, 3, 74, 87
1, 67681, Lyric_t, "all "
1, 67682, Note_on_c, 2, 74, 88
1, 67688, Control_c, 3, 11, 24
1, 67696, Note_on_c, 2, 62, 0
1, 67696, Note_on_c, 1, 28, 0
1, 67696, Note_on_c, 2, 67, 0
1, 67697, Note_on_c, 2, 74, 0
1, 67698, Note_on_c, 0, 66, 0
1, 67700, Note_on_c, 1, 40, 0
1, 67703, Note_on_c, 0, 71, 0
1, 67704, Note_on_c, 0, 74, 0
1, 67704, Control_c, 0, 11, 23
1, 67704, Control_c, 2, 11, 23
1, 67704, Control_c, 10, 11, 23
1, 67704, Control_c, 6, 11, 23
1, 67704, Control_c, 1, 11, 23
1, 67704, Control_c, 9, 11, 23
1, 67704, Control_c, 4, 11, 23
1, 67705, Note_on_c, 0, 67, 0
1, 67712, Control_c, 3, 11, 23
1, 67727, Note_on_c, 0, 66, 78
1, 67727, Note_on_c, 1, 31, 114
1, 67727, Note_on_c, 0, 74, 76
1, 67727, Note_on_c, 0, 71, 78
1, 67727, Note_on_c, 1, 43, 100
1, 67727, Note_on_c, 0, 67, 69
1, 67728, Control_c, 10, 11, 22
1, 67728, Control_c, 4, 11, 22
1, 67728, Control_c, 1, 11, 22
1, 67728, Control_c, 6, 11, 22
1, 67728, Control_c, 9, 11, 22
1, 67728, Note_on_c, 9, 42, 44
1, 67728, Note_on_c, 9, 36, 91
1, 67728, Control_c, 0, 11, 22
1, 67728, Control_c, 2, 11, 22
1, 67729, Note_on_c, 9, 36, 0
1, 67729, Note_on_c, 9, 42, 0
1, 67729, Note_on_c, 2, 62, 88
1, 67730, Note_on_c, 2, 67, 100
1, 67731, Note_on_c, 2, 71, 101
1, 67736, Note_on_c, 0, 74, 0
1, 67736, Note_on_c, 0, 67, 0
1, 67736, Control_c, 3, 11, 22
1, 67738, Note_on_c, 0, 71, 0
1, 67739, Note_on_c, 0, 66, 0
1, 67744, Note_on_c, 2, 62, 0
1, 67744, Note_on_c, 2, 71, 0
1, 67745, Note_on_c, 1, 43, 0
1, 67745, Note_on_c, 1, 31, 0
1, 67747, Note_on_c, 2, 67, 0
1, 67752, Control_c, 10, 11, 21
1, 67752, Control_c, 2, 11, 21
1, 67752, Control_c, 6, 11, 21
1, 67752, Control_c, 0, 11, 21
1, 67752, Control_c, 9, 11, 21
1, 67752, Control_c, 4, 11, 21
1, 67752, Control_c, 1, 11, 21
1, 67760, Control_c, 3, 11, 21
1, 67770, Note_on_c, 3, 74, 0
1, 67775, Note_on_c, 9, 42, 95
1, 67775, Note_on_c, 0, 66, 87
1, 67775, Note_on_c, 0, 74, 83
1, 67775, Note_on_c, 6, 83, 117
1, 67775, Note_on_c, 0, 71, 81
1, 67775, Note_on_c, 0, 67, 82
1, 67776, Note_on_c, 9, 42, 0
1, 67776, Note_on_c, 4, 69, 0
1, 67776, Note_on_c, 4, 78, 0
1, 67776, Note_on_c, 4, 74, 0
1, 67776, Note_on_c, 4, 64, 0
1, 67776, Control_c, 4, 11, 20
1, 67776, Control_c, 9, 11, 20
1, 67776, Control_c, 10, 11, 20
1, 67776, Note_on_c, 1, 45, 117
1, 67776, Control_c, 1, 11, 20
1, 67776, Note_on_c, 9, 36, 110
1, 67776, Control_c, 6, 11, 20
1, 67776, Note_on_c, 4, 66, 16
1, 67776, Control_c, 0, 11, 20
1, 67776, Note_on_c, 3, 71, 58
1, 67776, Lyric_t, "right, "
1, 67776, Control_c, 2, 11, 20
1, 67776, Note_on_c, 4, 71, 16
1, 67776, Note_on_c, 4, 76, 16
1, 67776, Note_on_c, 1, 33, 112
1, 67776, Note_on_c, 4, 59, 16
1, 67777, Note_on_c, 9, 36, 0
1, 67778, Note_on_c, 2, 62, 101
1, 67780, Note_on_c, 2, 69, 91
1, 67780, Note_on_c, 2, 71, 26
1, 67784, Control_c, 3, 11, 20
1, 67800, Control_c, 0, 11, 19
1, 67800, Control_c, 2, 11, 19
1, 67800, Control_c, 6, 11, 19
1, 67800, Control_c, 1, 11, 19
1, 67800, Control_c, 4, 11, 19
1, 67800, Control_c, 10, 11, 19
1, 67800, Control_c, 9, 11, 19
1, 67808, Control_c, 3, 11, 19
1, 67821, Note_on_c, 2, 71, 0
1, 67822, Note_on_c, 6, 83, 0
1, 67823, Note_on_c, 9, 42, 39
1, 67824, Note_on_c, 9, 42, 0
1, 67824, Control_c, 1, 11, 18
1, 67824, Control_c, 6, 11, 18
1, 67824, Control_c, 0, 11, 18
1, 67824, Control_c, 9, 11, 18
1, 67824, Control_c, 2, 11, 18
1, 67824, Control_c, 4, 11, 18
1, 67824, Control_c, 10, 11, 18
1, 67825, Note_on_c, 2, 71, 66
1, 67825, Note_on_c, 6, 81, 97
1, 67830, Note_on_c, 3, 71, 0
1, 67832, Control_c, 3, 11, 18
1, 67841, Note_on_c, 6, 81, 0
1, 67848, Control_c, 1, 11, 17
1, 67848, Control_c, 6, 11, 17
1, 67848, Control_c, 2, 11, 17
1, 67848, Control_c, 4, 11, 17
1, 67848, Control_c, 9, 11, 17
1, 67848, Control_c, 0, 11, 17
1, 67848, Control_c, 10, 11, 17
1, 67853, Note_on_c, 0, 71, 0
1, 67853, Note_on_c, 0, 74, 0
1, 67854, Note_on_c, 0, 67, 0
1, 67854, Note_on_c, 0, 66, 0
1, 67856, Note_on_c, 1, 33, 0
1, 67856, Control_c, 3, 11, 17
1, 67861, Note_on_c, 2, 69, 0
1, 67862, Note_on_c, 1, 45, 0
1, 67871, Note_on_c, 9, 42, 110
1, 67872, Note_on_c, 9, 42, 0
1, 67872, Note_on_c, 2, 62, 0
1, 67872, Note_on_c, 1, 31, 100
1, 67872, Control_c, 9, 11, 16
1, 67872, Control_c, 2, 11, 16
1, 67872, Control_c, 10, 11, 16
1, 67872, Control_c, 6, 11, 16
1, 67872, Note_on_c, 0, 74, 81
1, 67872, Note_on_c, 1, 43, 112
1, 67872, Control_c, 4, 11, 16
1, 67872, Control_c, 1, 11, 16
1, 67872, Note_on_c, 9, 40, 110
1, 67872, Note_on_c, 9, 36, 110
1, 67872, Note_on_c, 0, 71, 81
1, 67872, Control_c, 0, 11, 16
1, 67872, Note_on_c, 0, 67, 79
1, 67872, Note_on_c, 9, 60, 77
1, 67872, Note_on_c, 9, 39, 110
1, 67873, Note_on_c, 9, 39, 0
1, 67873, Note_on_c, 9, 40, 0
1, 67873, Note_on_c, 9, 60, 0
1, 67873, Note_on_c, 9, 36, 0
1, 67873, Note_on_c, 0, 66, 87
1, 67873, Note_on_c, 6, 78, 114
1, 67874, Note_on_c, 2, 71, 0
1, 67874, Note_on_c, 2, 62, 97
1, 67875, Note_on_c, 2, 67, 101
1, 67876, Note_on_c, 2, 71, 103
1, 67880, Control_c, 3, 11, 16
1, 67896, Note_on_c, 4, 59, 0
1, 67896, Note_on_c, 4, 71, 0
1, 67896, Note_on_c, 4, 76, 0
1, 67896, Note_on_c, 4, 66, 0
1, 67896, Control_c, 10, 11, 15
1, 67896, Control_c, 6, 11, 15
1, 67896, Control_c, 9, 11, 15
1, 67896, Control_c, 0, 11, 15
1, 67896, Control_c, 2, 11, 15
1, 67896, Control_c, 1, 11, 15
1, 67896, Control_c, 4, 11, 15
1, 67902, Note_on_c, 2, 71, 0
1, 67904, Control_c, 3, 11, 15
1, 67909, Note_on_c, 2, 62, 0
1, 67913, Note_on_c, 2, 67, 0
1, 67920, Note_on_c, 6, 78, 0
1, 67920, Control_c, 9, 11, 14
1, 67920, Control_c, 2, 11, 14
1, 67920, Control_c, 1, 11, 14
1, 67920, Control_c, 10, 11, 14
1, 67920, Control_c, 0, 11, 14
1, 67920, Control_c, 4, 11, 14
1, 67920, Control_c, 6, 11, 14
1, 67921, Note_on_c, 6, 74, 86
1, 67921, Note_on_c, 9, 42, 42
1, 67922, Note_on_c, 9, 42, 0
1, 67928, Control_c, 3, 11, 14
1, 67932, Note_on_c, 0, 66, 0
1, 67938, Note_on_c, 0, 67, 0
1, 67939, Note_on_c, 0, 71, 0
1, 67939, Note_on_c, 6, 74, 0
1, 67940, Note_on_c, 0, 74, 0
1, 67944, Control_c, 1, 11, 13
1, 67944, Control_c, 10, 11, 13
1, 67944, Control_c, 4, 11, 13
1, 67944, Control_c, 2, 11, 13
1, 67944, Control_c, 6, 11, 13
1, 67944, Control_c, 9, 11, 13
1, 67944, Control_c, 0, 11, 13
1, 67947, Note_on_c, 2, 72, 33
1, 67949, Note_on_c, 1, 31, 0
1, 67951, Note_on_c, 1, 43, 0
1, 67952, Control_c, 3, 11, 13
1, 67954, Note_on_c, 2, 72, 0
1, 67960, Control_c, 6, 11, 12
1, 67960, Control_c, 0, 11, 12
1, 67960, Control_c, 10, 11, 12
1, 67960, Control_c, 2, 11, 12
1, 67960, Control_c, 9, 11, 12
1, 67960, Control_c, 4, 11, 12
1, 67960, Control_c, 1, 11, 12
1, 67968, Note_on_c, 10, 64, 87
1, 67968, Note_on_c, 10, 61, 81
1, 67968, Note_on_c, 10, 57, 88
1, 67968, Note_on_c, 4, 73, 39
1, 67968, Note_on_c, 6, 76, 119
1, 67968, Control_c, 3, 11, 12
1, 67968, Note_on_c, 9, 36, 110
1, 67968, Note_on_c, 9, 42, 96
1, 67969, Note_on_c, 9, 42, 0
1, 67969, Note_on_c, 9, 36, 0
1, 67969, Note_on_c, 1, 30, 97
1, 67969, Note_on_c, 0, 69, 75
1, 67969, Note_on_c, 0, 73, 71
1, 67969, Note_on_c, 1, 42, 99
1, 67969, Note_on_c, 0, 76, 83
1, 67969, Lyric_t, "all "
1, 67969, Note_on_c, 3, 73, 100
1, 67969, Note_on_c, 2, 68, 91
1, 67970, Note_on_c, 2, 72, 99
1, 67970, Note_on_c, 2, 63, 91
1, 67984, Control_c, 0, 11, 11
1, 67984, Control_c, 2, 11, 11
1, 67984, Control_c, 10, 11, 11
1, 67984, Control_c, 9, 11, 11
1, 67984, Control_c, 4, 11, 11
1, 67984, Control_c, 1, 11, 11
1, 67984, Control_c, 6, 11, 11
1, 67992, Control_c, 3, 11, 11
1, 68008, Control_c, 9, 11, 10
1, 68008, Control_c, 4, 11, 10
1, 68008, Control_c, 6, 11, 10
1, 68008, Control_c, 2, 11, 10
1, 68008, Control_c, 10, 11, 10
1, 68008, Control_c, 1, 11, 10
1, 68008, Control_c, 0, 11, 10
1, 68009, Note_on_c, 2, 72, 0
1, 68013, Note_on_c, 2, 68, 0
1, 68015, Note_on_c, 3, 73, 0
1, 68015, Note_on_c, 9, 42, 37
1, 68015, Note_on_c, 3, 69, 66
1, 68015, Note_on_c, 2, 73, 62
1, 68016, Note_on_c, 9, 42, 0
1, 68016, Note_on_c, 4, 73, 0
1, 68016, Note_on_c, 4, 69, 20
1, 68016, Control_c, 3, 11, 10
1, 68017, Note_on_c, 2, 69, 51
1, 68023, Note_on_c, 2, 63, 0
1, 68032, Control_c, 1, 11, 9
1, 68032, Control_c, 0, 11, 9
1, 68032, Control_c, 10, 11, 9
1, 68032, Control_c, 2, 11, 9
1, 68032, Control_c, 6, 11, 9
1, 68032, Control_c, 4, 11, 9
1, 68032, Control_c, 9, 11, 9
1, 68040, Control_c, 3, 11, 9
1, 68041, Note_on_c, 2, 73, 0
1, 68042, Note_on_c, 2, 69, 0
1, 68042, Note_on_c, 2, 73, 99
1, 68043, Note_on_c, 2, 69, 96
1, 68050, Note_on_c, 2, 73, 0
1, 68054, Note_on_c, 2, 69, 0
1, 68056, Control_c, 0, 11, 8
1, 68056, Control_c, 2, 11, 8
1, 68056, Control_c, 6, 11, 8
1, 68056, Control_c, 1, 11, 8
1, 68056, Control_c, 4, 11, 8
1, 68056, Control_c, 10, 11, 8
1, 68056, Control_c, 9, 11, 8
1, 68063, Note_on_c, 9, 42, 110
1, 68064, Note_on_c, 9, 42, 0
1, 68064, Note_on_c, 4, 69, 0
1, 68064, Note_on_c, 9, 39, 110
1, 68064, Note_on_c, 9, 60, 77
1, 68064, Control_c, 3, 11, 8
1, 68064, Note_on_c, 9, 40, 95
1, 68064, Note_on_c, 4, 66, 16
1, 68064, Note_on_c, 3, 66, 38
1, 68065, Note_on_c, 9, 40, 0
1, 68065, Note_on_c, 3, 69, 0
1, 68065, Note_on_c, 9, 60, 0
1, 68065, Note_on_c, 9, 39, 0
1, 68069, Note_on_c, 0, 76, 0
1, 68072, Note_on_c, 0, 73, 0
1, 68072, Note_on_c, 0, 69, 0
1, 68076, Note_on_c, 1, 30, 0
1, 68079, Note_on_c, 1, 42, 0
1, 68080, Control_c, 0, 11, 7
1, 68080, Control_c, 2, 11, 7
1, 68080, Control_c, 10, 11, 7
1, 68080, Control_c, 9, 11, 7
1, 68080, Control_c, 4, 11, 7
1, 68080, Control_c, 1, 11, 7
1, 68080, Control_c, 6, 11, 7
1, 68088, Control_c, 3, 11, 7
1, 68098, Note_on_c, 10, 64, 0
1, 68100, Note_on_c, 10, 61, 0
1, 68100, Note_on_c, 10, 57, 0
1, 68104, Control_c, 9, 11, 6
1, 68104, Control_c, 2, 11, 6
1, 68104, Control_c, 0, 11, 6
1, 68104, Control_c, 4, 11, 6
1, 68104, Control_c, 10, 11, 6
1, 68104, Control_c, 6, 11, 6
1, 68104, Control_c, 1, 11, 6
1, 68106, Note_on_c, 6, 76, 0
1, 68110, Note_on_c, 3, 66, 0
1, 68111, Note_on_c, 10, 62, 110
1, 68111, Note_on_c, 2, 59, 66
1, 68111, Note_on_c, 3, 71, 80
1, 68111, Note_on_c, 6, 74, 112
1, 68111, Lyric_t, "right. "
1, 68111, Lyric_t, ""
1, 68111, Lyric_t, "\015"
1, 68111, Note_on_c, 0, 74, 82
1, 68111, Note_on_c, 0, 69, 78
1, 68111, Note_on_c, 0, 78, 73
1, 68112, Note_on_c, 4, 66, 0
1, 68112, Control_c, 3, 11, 6
1, 68112, Note_on_c, 4, 71, 30
1, 68112, Note_on_c, 9, 42, 44
1, 68112, Note_on_c, 9, 36, 91
1, 68112, Note_on_c, 10, 57, 100
1, 68112, Note_on_c, 1, 35, 98
1, 68112, Note_on_c, 10, 66, 123
1, 68112, Note_on_c, 2, 62, 101
1, 68112, Note_on_c, 1, 47, 110
1, 68113, Note_on_c, 9, 36, 0
1, 68113, Note_on_c, 9, 42, 0
1, 68114, Note_on_c, 2, 71, 103
1, 68114, Note_on_c, 2, 66, 103
1, 68128, Control_c, 0, 11, 5
1, 68128, Control_c, 4, 11, 5
1, 68128, Control_c, 1, 11, 5
1, 68128, Control_c, 2, 11, 5
1, 68128, Control_c, 6, 11, 5
1, 68128, Control_c, 10, 11, 5
1, 68128, Control_c, 9, 11, 5
1, 68134, Note_on_c, 10, 62, 0
1, 68135, Note_on_c, 6, 74, 0
1, 68135, Note_on_c, 10, 57, 0
1, 68136, Note_on_c, 10, 66, 0
1, 68136, Control_c, 3, 11, 5
1, 68139, Note_on_c, 2, 71, 0
1, 68140, Note_on_c, 2, 71, 76
1, 68152, Control_c, 2, 11, 4
1, 68152, Control_c, 1, 11, 4
1, 68152, Control_c, 6, 11, 4
1, 68152, Control_c, 0, 11, 4
1, 68152, Control_c, 4, 11, 4
1, 68152, Control_c, 9, 11, 4
1, 68152, Control_c, 10, 11, 4
1, 68159, Note_on_c, 9, 42, 95
1, 68160, Note_on_c, 9, 42, 0
1, 68160, Note_on_c, 9, 36, 110
1, 68160, Control_c, 3, 11, 4
1, 68161, Note_on_c, 9, 36, 0
1, 68164, Note_on_c, 2, 71, 0
1, 68169, Note_on_c, 2, 66, 0
1, 68170, Note_on_c, 2, 62, 0
1, 68176, Control_c, 9, 11, 3
1, 68176, Control_c, 10, 11, 3
1, 68176, Control_c, 4, 11, 3
1, 68176, Control_c, 1, 11, 3
1, 68176, Control_c, 2, 11, 3
1, 68176, Control_c, 0, 11, 3
1, 68176, Control_c, 6, 11, 3
1, 68181, Note_on_c, 2, 59, 0
1, 68182, Note_on_c, 3, 71, 0
1, 68184, Control_c, 3, 11, 3
1, 68186, Note_on_c, 0, 78, 0
1, 68186, Note_on_c, 0, 74, 0
1, 68186, Note_on_c, 2, 64, 91
1, 68187, Note_on_c, 2, 59, 82
1, 68191, Note_on_c, 2, 64, 0
1, 68195, Note_on_c, 2, 59, 0
1, 68198, Note_on_c, 0, 69, 0
1, 68200, Note_on_c, 1, 47, 0
1, 68200, Control_c, 10, 11, 2
1, 68200, Control_c, 2, 11, 2
1, 68200, Control_c, 9, 11, 2
1, 68200, Control_c, 0, 11, 2
1, 68200, Control_c, 6, 11, 2
1, 68200, Control_c, 4, 11, 2
1, 68200, Control_c, 1, 11, 2
1, 68206, Note_on_c, 1, 35, 0
1, 68207, Note_on_c, 1, 45, 97
1, 68207, Note_on_c, 2, 64, 91
1, 68207, Note_on_c, 9, 42, 35
1, 68207, Note_on_c, 1, 33, 100
1, 68208, Note_on_c, 9, 42, 0
1, 68208, Control_c, 3, 11, 2
1, 68209, Note_on_c, 2, 76, 99
1, 68209, Note_on_c, 0, 76, 68
1, 68209, Note_on_c, 0, 69, 66
1, 68209, Note_on_c, 0, 73, 75
1, 68220, Note_on_c, 0, 76, 0
1, 68221, Note_on_c, 0, 69, 0
1, 68223, Note_on_c, 1, 45, 0
1, 68224, Note_on_c, 0, 73, 0
1, 68224, Note_on_c, 1, 33, 0
1, 68224, Control_c, 10, 11, 1
1, 68224, Control_c, 6, 11, 1
1, 68224, Control_c, 0, 11, 1
1, 68224, Control_c, 2, 11, 1
1, 68224, Control_c, 4, 11, 1
1, 68224, Control_c, 9, 11, 1
1, 68224, Control_c, 1, 11, 1
1, 68232, Control_c, 3, 11, 1
1, 68240, Control_c, 0, 11, 0
1, 68240, Control_c, 4, 11, 0
1, 68240, Control_c, 6, 11, 0
1, 68240, Control_c, 2, 11, 0
1, 68240, Control_c, 10, 11, 0
1, 68240, Control_c, 1, 11, 0
1, 68240, Control_c, 9, 11, 0
1, 68248, Control_c, 3, 11, 0
1, 68250, Note_on_c, 2, 76, 0
1, 68255, Note_on_c, 2, 64, 0
1, 68255, Note_on_c, 1, 52, 97
1, 68255, Note_on_c, 9, 42, 98
1, 68256, Note_on_c, 9, 42, 0
1, 68256, Note_on_c, 4, 71, 0
1, 68256, Note_on_c, 9, 36, 110
1, 68256, Note_on_c, 1, 40, 120
1, 68256, Note_on_c, 6, 88, 127
1, 68256, Note_on_c, 10, 76, 114
1, 68256, Note_on_c, 2, 64, 80
1, 68256, Note_on_c, 2, 76, 100
1, 68256, Note_on_c, 9, 60, 77
1, 68256, Note_on_c, 9, 40, 110
1, 68256, Note_on_c, 6, 83, 127
1, 68256, Note_on_c, 9, 39, 110
1, 68256, Note_on_c, 10, 67, 114
1, 68257, Note_on_c, 9, 39, 0
1, 68257, Note_on_c, 9, 40, 0
1, 68257, Note_on_c, 9, 36, 0
1, 68257, Note_on_c, 9, 60, 0
1, 68257, Note_on_c, 0, 67, 84
1, 68257, Note_on_c, 0, 76, 71
1, 68257, Note_on_c, 0, 71, 91
1, 68279, Note_on_c, 2, 76, 0
1, 68281, Note_on_c, 2, 64, 0
1, 68295, Note_on_c, 10, 76, 0
1, 68297, Note_on_c, 10, 67, 0
1, 68301, Note_on_c, 2, 64, 99
1, 68301, Note_on_c, 2, 76, 99
1, 68302, Note_on_c, 1, 52, 0
1, 68303, Note_on_c, 6, 88, 0
1, 68303, Note_on_c, 0, 67, 0
1, 68303, Note_on_c, 1, 40, 0
1, 68303, Note_on_c, 0, 71, 0
1, 68303, Note_on_c, 0, 76, 0
1, 68303, Note_on_c, 6, 83, 0
1, 68304, Note_on_c, 9, 36, 110
1, 68304, Note_on_c, 6, 88, 125
1, 68304, Note_on_c, 0, 76, 71
1, 68304, Note_on_c, 0, 67, 71
1, 68304, Note_on_c, 0, 71, 71
1, 68304, Note_on_c, 1, 40, 110
1, 68304, Note_on_c, 9, 40, 110
1, 68304, Note_on_c, 1, 52, 110
1, 68304, Note_on_c, 10, 76, 100
1, 68304, Note_on_c, 6, 83, 127
1, 68304, Note_on_c, 10, 67, 114
1, 68305, Note_on_c, 9, 40, 0
1, 68305, Note_on_c, 9, 36, 0
1, 68305, Note_on_c, 9, 42, 42
1, 68306, Note_on_c, 9, 42, 0
1, 68320, Note_on_c, 2, 64, 0
1, 68320, Note_on_c, 2, 76, 0
1, 68351, Note_on_c, 0, 76, 0
1, 68351, Note_on_c, 1, 40, 0
1, 68351, Note_on_c, 0, 67, 0
1, 68351, Note_on_c, 0, 71, 0
1, 68351, Note_on_c, 10, 67, 0
1, 68351, Note_on_c, 10, 76, 0
1, 68351, Note_on_c, 6, 83, 0
1, 68351, Note_on_c, 1, 52, 0
1, 68355, Note_on_c, 6, 88, 0
1, 68440, Control_c, 0, 11, 126
1, 68440, Control_c, 4, 11, 126
1, 68440, Control_c, 6, 11, 126
1, 68440, Control_c, 2, 11, 126
1, 68440, Control_c, 1, 11, 126
1, 68440, Control_c, 9, 11, 126
1, 68440, Control_c, 10, 11, 126
1, 68448, Control_c, 3, 11, 126
1, 68448, End_track
0, 0, End_of_file
