0, 0, Header, 1, 13, 240
1, 0, Start_track
1, 0, Time_signature, 4, 2, 24, 8
1, 0, Tempo, 750000
1, 0, End_track
2, 0, Start_track
2, 0, Text_t, "Tubular Bells"
2, 0, Program_c, 0, 14
2, 0, Control_c, 0, 7, 119
2, 960, Note_on_c, 0, 91, 100
2, 1019, Note_off_c, 0, 91, 64
2, 1020, Note_on_c, 0, 93, 100
2, 1079, Note_off_c, 0, 93, 64
2, 1080, Note_on_c, 0, 89, 100
2, 1139, Note_off_c, 0, 89, 64
2, 1140, Note_on_c, 0, 101, 100
2, 1558, Note_off_c, 0, 101, 64
2, 1560, Note_on_c, 0, 96, 100
2, 1619, Note_off_c, 0, 96, 64
2, 1620, Note_on_c, 0, 93, 100
2, 1679, Note_off_c, 0, 93, 64
2, 1680, Note_on_c, 0, 84, 100
2, 1739, Note_off_c, 0, 84, 64
2, 1740, Note_on_c, 0, 79, 100
2, 1799, Note_off_c, 0, 79, 64
2, 1800, Note_on_c, 0, 81, 100
2, 1859, Note_off_c, 0, 81, 64
2, 1860, Note_on_c, 0, 89, 100
2, 1919, Note_off_c, 0, 89, 64
2, 1920, Note_on_c, 0, 82, 100
2, 1979, Note_off_c, 0, 82, 64
2, 1980, Note_on_c, 0, 84, 100
2, 2039, Note_off_c, 0, 84, 64
2, 2040, Note_on_c, 0, 86, 100
2, 2099, Note_off_c, 0, 86, 64
2, 2100, Note_on_c, 0, 89, 100
2, 2459, Note_off_c, 0, 89, 64
2, 2460, Note_on_c, 0, 74, 100
2, 2519, Note_off_c, 0, 74, 64
2, 2520, Note_on_c, 0, 82, 100
2, 2579, Note_off_c, 0, 82, 64
2, 2580, Note_on_c, 0, 77, 100
2, 2639, Note_off_c, 0, 77, 64
2, 2640, Note_on_c, 0, 86, 100
2, 2699, Note_off_c, 0, 86, 64
2, 2700, Note_on_c, 0, 82, 100
2, 2759, Note_off_c, 0, 82, 64
2, 2760, Note_on_c, 0, 74, 100
2, 2878, Note_off_c, 0, 74, 64
2, 2940, Note_on_c, 0, 77, 100
2, 2999, Note_off_c, 0, 77, 64
2, 3000, Note_on_c, 0, 65, 100
2, 3059, Note_off_c, 0, 65, 64
2, 3060, Note_on_c, 0, 72, 100
2, 3355, Note_off_c, 0, 72, 64
2, 3360, Note_on_c, 0, 79, 100
2, 3419, Note_off_c, 0, 79, 64
2, 3420, Note_on_c, 0, 81, 100
2, 3479, Note_off_c, 0, 81, 64
2, 3480, Note_on_c, 0, 72, 100
2, 3539, Note_off_c, 0, 72, 64
2, 3540, Note_on_c, 0, 69, 100
2, 3599, Note_off_c, 0, 69, 64
2, 3600, Note_on_c, 0, 77, 100
2, 3659, Note_off_c, 0, 77, 64
2, 3660, Note_on_c, 0, 74, 100
2, 3719, Note_off_c, 0, 74, 64
2, 3720, Note_on_c, 0, 72, 100
2, 3779, Note_off_c, 0, 72, 64
2, 3780, Note_on_c, 0, 69, 100
2, 3839, Note_off_c, 0, 69, 64
2, 3840, Note_on_c, 0, 70, 100
2, 3899, Note_off_c, 0, 70, 64
2, 3900, Note_on_c, 0, 72, 100
2, 3959, Note_off_c, 0, 72, 64
2, 3960, Note_on_c, 0, 65, 100
2, 4019, Note_off_c, 0, 65, 64
2, 4020, Note_on_c, 0, 70, 100
2, 4256, Note_off_c, 0, 70, 64
2, 4260, Note_on_c, 0, 65, 100
2, 4319, Note_off_c, 0, 65, 64
2, 4320, Note_on_c, 0, 70, 100
2, 4379, Note_off_c, 0, 70, 64
2, 4380, Note_on_c, 0, 72, 100
2, 4439, Note_off_c, 0, 72, 64
2, 4440, Note_on_c, 0, 70, 100
2, 4499, Note_off_c, 0, 70, 64
2, 4500, Note_on_c, 0, 65, 100
2, 4559, Note_off_c, 0, 65, 64
2, 4560, Note_on_c, 0, 70, 100
2, 4619, Note_off_c, 0, 70, 64
2, 4620, Note_on_c, 0, 72, 100
2, 4679, Note_off_c, 0, 72, 64
2, 4680, Note_on_c, 0, 70, 100
2, 4739, Note_off_c, 0, 70, 64
2, 4740, Note_on_c, 0, 65, 100
2, 4799, Note_off_c, 0, 65, 64
2, 4800, Note_on_c, 0, 81, 100
2, 4859, Note_off_c, 0, 81, 64
2, 4860, Note_on_c, 0, 84, 100
2, 5036, Note_off_c, 0, 84, 64
2, 5040, Note_on_c, 0, 84, 100
2, 5158, Note_off_c, 0, 84, 64
2, 5160, Note_on_c, 0, 81, 100
2, 5219, Note_off_c, 0, 81, 64
2, 5220, Note_on_c, 0, 86, 100
2, 5339, Note_off_c, 0, 86, 64
2, 5340, Note_on_c, 0, 86, 100
2, 5516, Note_off_c, 0, 86, 64
2, 5520, Note_on_c, 0, 86, 100
2, 5638, Note_off_c, 0, 86, 64
2, 5640, Note_on_c, 0, 77, 100
2, 5699, Note_off_c, 0, 77, 64
2, 5700, Note_on_c, 0, 81, 100
2, 6701, Note_off_c, 0, 81, 64
2, 7140, Note_on_c, 0, 77, 100
2, 7199, Note_off_c, 0, 77, 64
2, 7200, Note_on_c, 0, 89, 100
2, 7376, Note_off_c, 0, 89, 64
2, 7380, Note_on_c, 0, 89, 100
2, 7439, Note_off_c, 0, 89, 64
2, 7440, Note_on_c, 0, 88, 100
2, 7499, Note_off_c, 0, 88, 64
2, 7500, Note_on_c, 0, 86, 100
2, 7618, Note_off_c, 0, 86, 64
2, 7620, Note_on_c, 0, 86, 100
2, 7798, Note_off_c, 0, 86, 64
2, 7800, Note_on_c, 0, 84, 100
2, 7918, Note_off_c, 0, 84, 64
2, 7920, Note_on_c, 0, 81, 100
2, 7979, Note_off_c, 0, 81, 64
2, 7980, Note_on_c, 0, 79, 100
2, 8098, Note_off_c, 0, 79, 64
2, 8100, Note_on_c, 0, 81, 100
2, 8630, Note_off_c, 0, 81, 64
2, 9120, Note_on_c, 0, 84, 100
2, 9179, Note_off_c, 0, 84, 64
2, 9180, Note_on_c, 0, 81, 100
2, 9239, Note_off_c, 0, 81, 64
2, 9240, Note_on_c, 0, 84, 100
2, 9478, Note_off_c, 0, 84, 64
2, 9480, Note_on_c, 0, 81, 100
2, 9539, Note_off_c, 0, 81, 64
2, 9540, Note_on_c, 0, 89, 100
2, 9599, Note_off_c, 0, 89, 64
2, 9780, Note_on_c, 0, 86, 100
2, 10310, Note_off_c, 0, 86, 64
2, 10440, Note_on_c, 0, 81, 100
2, 10499, Note_off_c, 0, 81, 64
2, 10500, Note_on_c, 0, 82, 100
2, 10559, Note_off_c, 0, 82, 64
2, 10560, Note_on_c, 0, 84, 100
2, 10619, Note_off_c, 0, 84, 64
2, 10620, Note_on_c, 0, 84, 100
2, 10796, Note_off_c, 0, 84, 64
2, 10800, Note_on_c, 0, 84, 100
2, 10918, Note_off_c, 0, 84, 64
2, 10920, Note_on_c, 0, 81, 100
2, 10979, Note_off_c, 0, 81, 64
2, 10980, Note_on_c, 0, 86, 100
2, 11099, Note_off_c, 0, 86, 64
2, 11100, Note_on_c, 0, 84, 100
2, 11218, Note_off_c, 0, 84, 64
2, 11220, Note_on_c, 0, 84, 100
2, 11398, Note_off_c, 0, 84, 64
2, 11400, Note_on_c, 0, 84, 100
2, 11518, Note_off_c, 0, 84, 64
2, 11520, Note_on_c, 0, 81, 100
2, 11638, Note_off_c, 0, 81, 64
2, 11640, Note_on_c, 0, 79, 100
2, 12235, Note_off_c, 0, 79, 64
2, 12480, Note_on_c, 0, 81, 100
2, 12528, Note_off_c, 0, 81, 64
2, 12540, Note_on_c, 0, 84, 100
2, 12912, Note_off_c, 0, 84, 64
2, 12960, Note_on_c, 0, 86, 100
2, 13008, Note_off_c, 0, 86, 64
2, 13020, Note_on_c, 0, 86, 100
2, 13164, Note_off_c, 0, 86, 64
2, 13200, Note_on_c, 0, 86, 100
2, 13296, Note_off_c, 0, 86, 64
2, 13320, Note_on_c, 0, 77, 100
2, 13416, Note_off_c, 0, 77, 64
2, 13440, Note_on_c, 0, 81, 100
2, 13536, Note_off_c, 0, 81, 64
2, 13560, Note_on_c, 0, 81, 100
2, 14256, Note_off_c, 0, 81, 64
2, 14820, Note_on_c, 0, 77, 100
2, 14868, Note_off_c, 0, 77, 64
2, 14880, Note_on_c, 0, 89, 100
2, 14976, Note_off_c, 0, 89, 64
2, 15000, Note_on_c, 0, 89, 100
2, 15048, Note_off_c, 0, 89, 64
2, 15060, Note_on_c, 0, 88, 100
2, 15168, Note_off_c, 0, 88, 64
2, 15180, Note_on_c, 0, 86, 100
2, 15276, Note_off_c, 0, 86, 64
2, 15300, Note_on_c, 0, 86, 100
2, 15419, Note_off_c, 0, 86, 64
2, 15420, Note_on_c, 0, 84, 100
2, 16306, Note_off_c, 0, 84, 64
2, 16560, Note_on_c, 0, 84, 100
2, 16619, Note_off_c, 0, 84, 64
2, 16620, Note_on_c, 0, 84, 100
2, 16738, Note_off_c, 0, 84, 64
2, 16740, Note_on_c, 0, 84, 100
2, 17270, Note_off_c, 0, 84, 64
2, 17280, Note_on_c, 0, 89, 100
2, 17339, Note_off_c, 0, 89, 64
2, 17340, Note_on_c, 0, 86, 100
2, 17755, Note_off_c, 0, 86, 64
2, 18120, Note_on_c, 0, 81, 100
2, 18179, Note_off_c, 0, 81, 64
2, 18180, Note_on_c, 0, 82, 100
2, 18239, Note_off_c, 0, 82, 64
2, 18240, Note_on_c, 0, 84, 100
2, 18299, Note_off_c, 0, 84, 64
2, 18300, Note_on_c, 0, 84, 100
2, 18598, Note_off_c, 0, 84, 64
2, 18600, Note_on_c, 0, 81, 100
2, 18659, Note_off_c, 0, 81, 64
2, 18660, Note_on_c, 0, 84, 100
2, 18719, Note_off_c, 0, 84, 64
2, 18720, Note_on_c, 0, 86, 100
2, 18779, Note_off_c, 0, 86, 64
2, 18780, Note_on_c, 0, 84, 100
2, 19019, Note_off_c, 0, 84, 64
2, 19020, Note_on_c, 0, 84, 100
2, 19138, Note_off_c, 0, 84, 64
2, 19140, Note_on_c, 0, 81, 100
2, 19259, Note_off_c, 0, 81, 64
2, 19260, Note_on_c, 0, 79, 100
2, 19850, Note_off_c, 0, 79, 64
2, 20280, Note_on_c, 0, 81, 100
2, 20339, Note_off_c, 0, 81, 64
2, 20340, Note_on_c, 0, 84, 100
2, 20399, Note_off_c, 0, 84, 64
2, 20400, Note_on_c, 0, 86, 100
2, 20518, Note_off_c, 0, 86, 64
2, 20520, Note_on_c, 0, 88, 100
2, 20579, Note_off_c, 0, 88, 64
2, 20580, Note_on_c, 0, 91, 100
2, 20699, Note_off_c, 0, 91, 64
2, 20700, Note_on_c, 0, 93, 100
2, 20759, Note_off_c, 0, 93, 64
2, 20760, Note_on_c, 0, 91, 100
2, 20819, Note_off_c, 0, 91, 64
2, 20820, Note_on_c, 0, 93, 100
2, 20879, Note_off_c, 0, 93, 64
2, 20880, Note_on_c, 0, 89, 100
2, 20998, Note_off_c, 0, 89, 64
2, 21000, Note_on_c, 0, 86, 100
2, 21059, Note_off_c, 0, 86, 64
2, 21060, Note_on_c, 0, 88, 100
2, 21119, Note_off_c, 0, 88, 64
2, 21120, Note_on_c, 0, 91, 100
2, 21179, Note_off_c, 0, 91, 64
2, 21180, Note_on_c, 0, 93, 100
2, 21239, Note_off_c, 0, 93, 64
2, 21240, Note_on_c, 0, 89, 100
2, 21478, Note_off_c, 0, 89, 64
2, 21480, Note_on_c, 0, 86, 100
2, 21539, Note_off_c, 0, 86, 64
2, 21540, Note_on_c, 0, 89, 100
2, 21599, Note_off_c, 0, 89, 64
2, 21600, Note_on_c, 0, 91, 100
2, 21659, Note_off_c, 0, 91, 64
2, 21660, Note_on_c, 0, 93, 100
2, 21778, Note_off_c, 0, 93, 64
2, 21780, Note_on_c, 0, 89, 100
2, 21958, Note_off_c, 0, 89, 64
2, 21960, Note_on_c, 0, 86, 100
2, 22019, Note_off_c, 0, 86, 64
2, 22020, Note_on_c, 0, 91, 100
2, 22139, Note_off_c, 0, 91, 64
2, 22140, Note_on_c, 0, 93, 100
2, 22199, Note_off_c, 0, 93, 64
2, 22200, Note_on_c, 0, 89, 100
2, 22438, Note_off_c, 0, 89, 64
2, 22440, Note_on_c, 0, 86, 100
2, 22499, Note_off_c, 0, 86, 64
2, 22500, Note_on_c, 0, 89, 100
2, 22559, Note_off_c, 0, 89, 64
2, 22560, Note_on_c, 0, 91, 100
2, 22678, Note_off_c, 0, 91, 64
2, 22680, Note_on_c, 0, 93, 100
2, 22739, Note_off_c, 0, 93, 64
2, 22740, Note_on_c, 0, 89, 100
2, 23035, Note_off_c, 0, 89, 64
2, 23160, Note_on_c, 0, 91, 100
2, 23219, Note_off_c, 0, 91, 64
2, 23220, Note_on_c, 0, 93, 100
2, 23279, Note_off_c, 0, 93, 64
2, 23280, Note_on_c, 0, 89, 100
2, 23339, Note_off_c, 0, 89, 64
2, 23340, Note_on_c, 0, 86, 100
2, 23458, Note_off_c, 0, 86, 64
2, 23460, Note_on_c, 0, 91, 100
2, 23579, Note_off_c, 0, 91, 64
2, 23580, Note_on_c, 0, 93, 100
2, 23639, Note_off_c, 0, 93, 64
2, 23640, Note_on_c, 0, 89, 100
2, 23878, Note_off_c, 0, 89, 64
2, 23880, Note_on_c, 0, 86, 100
2, 23939, Note_off_c, 0, 86, 64
2, 23940, Note_on_c, 0, 86, 100
2, 24235, Note_off_c, 0, 86, 64
2, 24240, Note_on_c, 0, 84, 100
2, 24946, Note_off_c, 0, 84, 64
2, 25500, Note_on_c, 0, 86, 100
2, 25559, Note_off_c, 0, 86, 64
2, 25560, Note_on_c, 0, 86, 100
2, 25619, Note_off_c, 0, 86, 64
2, 25620, Note_on_c, 0, 89, 100
2, 25739, Note_off_c, 0, 89, 64
2, 25740, Note_on_c, 0, 89, 100
2, 25858, Note_off_c, 0, 89, 64
2, 25860, Note_on_c, 0, 92, 100
2, 25979, Note_off_c, 0, 92, 64
2, 25980, Note_on_c, 0, 89, 100
2, 26395, Note_off_c, 0, 89, 64
2, 26460, Note_on_c, 0, 84, 100
2, 26519, Note_off_c, 0, 84, 64
2, 26520, Note_on_c, 0, 86, 100
2, 26579, Note_off_c, 0, 86, 64
2, 26580, Note_on_c, 0, 89, 100
2, 26699, Note_off_c, 0, 89, 64
2, 26700, Note_on_c, 0, 89, 100
2, 26759, Note_off_c, 0, 89, 64
2, 26760, Note_on_c, 0, 86, 100
2, 26819, Note_off_c, 0, 86, 64
2, 26820, Note_on_c, 0, 92, 100
2, 26998, Note_off_c, 0, 92, 64
2, 27000, Note_on_c, 0, 86, 100
2, 27059, Note_off_c, 0, 86, 64
2, 27060, Note_on_c, 0, 84, 100
2, 27119, Note_off_c, 0, 84, 64
2, 27120, Note_on_c, 0, 86, 100
2, 27355, Note_off_c, 0, 86, 64
2, 27420, Note_on_c, 0, 84, 100
2, 27479, Note_off_c, 0, 84, 64
2, 27480, Note_on_c, 0, 86, 100
2, 27539, Note_off_c, 0, 86, 64
2, 27540, Note_on_c, 0, 89, 100
2, 27659, Note_off_c, 0, 89, 64
2, 27660, Note_on_c, 0, 89, 100
2, 27719, Note_off_c, 0, 89, 64
2, 27720, Note_on_c, 0, 86, 100
2, 27779, Note_off_c, 0, 86, 64
2, 27780, Note_on_c, 0, 92, 100
2, 27958, Note_off_c, 0, 92, 64
2, 27960, Note_on_c, 0, 89, 100
2, 28315, Note_off_c, 0, 89, 64
2, 28380, Note_on_c, 0, 84, 100
2, 28439, Note_off_c, 0, 84, 64
2, 28440, Note_on_c, 0, 86, 100
2, 28499, Note_off_c, 0, 86, 64
2, 28500, Note_on_c, 0, 89, 100
2, 28619, Note_off_c, 0, 89, 64
2, 28620, Note_on_c, 0, 86, 100
2, 28679, Note_off_c, 0, 86, 64
2, 28680, Note_on_c, 0, 89, 100
2, 28739, Note_off_c, 0, 89, 64
2, 28740, Note_on_c, 0, 86, 100
2, 28799, Note_off_c, 0, 86, 64
2, 28800, Note_on_c, 0, 93, 100
2, 28918, Note_off_c, 0, 93, 64
2, 28920, Note_on_c, 0, 91, 100
2, 28979, Note_off_c, 0, 91, 64
2, 28980, Note_on_c, 0, 89, 100
2, 29099, Note_off_c, 0, 89, 64
2, 29100, Note_on_c, 0, 91, 100
2, 29276, Note_off_c, 0, 91, 64
2, 29340, Note_on_c, 0, 84, 100
2, 29399, Note_off_c, 0, 84, 64
2, 29400, Note_on_c, 0, 86, 100
2, 29459, Note_off_c, 0, 86, 64
2, 29460, Note_on_c, 0, 89, 100
2, 29579, Note_off_c, 0, 89, 64
2, 29580, Note_on_c, 0, 89, 100
2, 29639, Note_off_c, 0, 89, 64
2, 29640, Note_on_c, 0, 86, 100
2, 29699, Note_off_c, 0, 86, 64
2, 29700, Note_on_c, 0, 92, 100
2, 29819, Note_off_c, 0, 92, 64
2, 29820, Note_on_c, 0, 89, 100
2, 30235, Note_off_c, 0, 89, 64
2, 30300, Note_on_c, 0, 84, 100
2, 30359, Note_off_c, 0, 84, 64
2, 30360, Note_on_c, 0, 86, 100
2, 30419, Note_off_c, 0, 86, 64
2, 30420, Note_on_c, 0, 89, 100
2, 30539, Note_off_c, 0, 89, 64
2, 30540, Note_on_c, 0, 89, 100
2, 30599, Note_off_c, 0, 89, 64
2, 30600, Note_on_c, 0, 86, 100
2, 30659, Note_off_c, 0, 86, 64
2, 30660, Note_on_c, 0, 92, 100
2, 30779, Note_off_c, 0, 92, 64
2, 30780, Note_on_c, 0, 86, 100
2, 30839, Note_off_c, 0, 86, 64
2, 30840, Note_on_c, 0, 84, 100
2, 30899, Note_off_c, 0, 84, 64
2, 30900, Note_on_c, 0, 86, 100
2, 31195, Note_off_c, 0, 86, 64
2, 31680, Note_on_c, 0, 94, 100
2, 31915, Note_off_c, 0, 94, 64
2, 31920, Note_on_c, 0, 93, 100
2, 32038, Note_off_c, 0, 93, 64
2, 32040, Note_on_c, 0, 89, 100
2, 32158, Note_off_c, 0, 89, 64
2, 32160, Note_on_c, 0, 89, 100
2, 32395, Note_off_c, 0, 89, 64
2, 32400, Note_on_c, 0, 86, 100
2, 32518, Note_off_c, 0, 86, 64
2, 32520, Note_on_c, 0, 84, 100
2, 32638, Note_off_c, 0, 84, 64
2, 32640, Note_on_c, 0, 84, 100
2, 32875, Note_off_c, 0, 84, 64
2, 32880, Note_on_c, 0, 84, 100
2, 33115, Note_off_c, 0, 84, 64
2, 33120, Note_on_c, 0, 84, 100
2, 33355, Note_off_c, 0, 84, 64
2, 33360, Note_on_c, 0, 84, 100
2, 33595, Note_off_c, 0, 84, 64
2, 33600, Note_on_c, 0, 77, 100
2, 34306, Note_off_c, 0, 77, 64
2, 34320, Note_on_c, 0, 77, 100
2, 34379, Note_off_c, 0, 77, 64
2, 34380, Note_on_c, 0, 72, 100
2, 34439, Note_off_c, 0, 72, 64
2, 34440, Note_on_c, 0, 74, 100
2, 34499, Note_off_c, 0, 74, 64
2, 34500, Note_on_c, 0, 77, 100
2, 34559, Note_off_c, 0, 77, 64
2, 34560, Note_on_c, 0, 77, 100
2, 35398, Note_off_c, 0, 77, 64
2, 35400, Note_on_c, 0, 86, 100
2, 35518, Note_off_c, 0, 86, 64
2, 35760, Note_on_c, 0, 84, 100
2, 35995, Note_off_c, 0, 84, 64
2, 36240, Note_on_c, 0, 79, 100
2, 36299, Note_off_c, 0, 79, 64
2, 36300, Note_on_c, 0, 77, 100
2, 36359, Note_off_c, 0, 77, 64
2, 36360, Note_on_c, 0, 79, 100
2, 36419, Note_off_c, 0, 79, 64
2, 36420, Note_on_c, 0, 74, 100
2, 36479, Note_off_c, 0, 74, 64
2, 36480, Note_on_c, 0, 77, 100
2, 37421, Note_off_c, 0, 77, 64
2, 37440, Note_on_c, 0, 81, 100
2, 37499, Note_off_c, 0, 81, 64
2, 37500, Note_on_c, 0, 84, 100
2, 37676, Note_off_c, 0, 84, 64
2, 37680, Note_on_c, 0, 84, 100
2, 37798, Note_off_c, 0, 84, 64
2, 37800, Note_on_c, 0, 81, 100
2, 37859, Note_off_c, 0, 81, 64
2, 37860, Note_on_c, 0, 86, 100
2, 37979, Note_off_c, 0, 86, 64
2, 37980, Note_on_c, 0, 86, 100
2, 38156, Note_off_c, 0, 86, 64
2, 38160, Note_on_c, 0, 86, 100
2, 38278, Note_off_c, 0, 86, 64
2, 38280, Note_on_c, 0, 77, 100
2, 38339, Note_off_c, 0, 77, 64
2, 38340, Note_on_c, 0, 81, 100
2, 38870, Note_off_c, 0, 81, 64
2, 39780, Note_on_c, 0, 77, 100
2, 39839, Note_off_c, 0, 77, 64
2, 39840, Note_on_c, 0, 89, 100
2, 40016, Note_off_c, 0, 89, 64
2, 40020, Note_on_c, 0, 89, 100
2, 40079, Note_off_c, 0, 89, 64
2, 40080, Note_on_c, 0, 88, 100
2, 40139, Note_off_c, 0, 88, 64
2, 40140, Note_on_c, 0, 86, 100
2, 40258, Note_off_c, 0, 86, 64
2, 40260, Note_on_c, 0, 86, 100
2, 40438, Note_off_c, 0, 86, 64
2, 40440, Note_on_c, 0, 84, 100
2, 40558, Note_off_c, 0, 84, 64
2, 40560, Note_on_c, 0, 81, 100
2, 40619, Note_off_c, 0, 81, 64
2, 40620, Note_on_c, 0, 79, 100
2, 40738, Note_off_c, 0, 79, 64
2, 40740, Note_on_c, 0, 81, 100
2, 41270, Note_off_c, 0, 81, 64
2, 41280, Note_on_c, 0, 84, 100
2, 41339, Note_off_c, 0, 84, 64
2, 41340, Note_on_c, 0, 84, 100
2, 41638, Note_off_c, 0, 84, 64
2, 41640, Note_on_c, 0, 79, 100
2, 41758, Note_off_c, 0, 79, 64
2, 41760, Note_on_c, 0, 84, 100
2, 41819, Note_off_c, 0, 84, 64
2, 41820, Note_on_c, 0, 81, 100
2, 41879, Note_off_c, 0, 81, 64
2, 41880, Note_on_c, 0, 84, 100
2, 42118, Note_off_c, 0, 84, 64
2, 42120, Note_on_c, 0, 81, 100
2, 42179, Note_off_c, 0, 81, 64
2, 42180, Note_on_c, 0, 89, 100
2, 42416, Note_off_c, 0, 89, 64
2, 42420, Note_on_c, 0, 86, 100
2, 42950, Note_off_c, 0, 86, 64
2, 43080, Note_on_c, 0, 81, 100
2, 43139, Note_off_c, 0, 81, 64
2, 43140, Note_on_c, 0, 82, 100
2, 43199, Note_off_c, 0, 82, 64
2, 43200, Note_on_c, 0, 84, 100
2, 43259, Note_off_c, 0, 84, 64
2, 43260, Note_on_c, 0, 84, 100
2, 43436, Note_off_c, 0, 84, 64
2, 43440, Note_on_c, 0, 84, 100
2, 43558, Note_off_c, 0, 84, 64
2, 43560, Note_on_c, 0, 81, 100
2, 43619, Note_off_c, 0, 81, 64
2, 43620, Note_on_c, 0, 86, 100
2, 43739, Note_off_c, 0, 86, 64
2, 43740, Note_on_c, 0, 84, 100
2, 43858, Note_off_c, 0, 84, 64
2, 43860, Note_on_c, 0, 84, 100
2, 44038, Note_off_c, 0, 84, 64
2, 44040, Note_on_c, 0, 84, 100
2, 44158, Note_off_c, 0, 84, 64
2, 44160, Note_on_c, 0, 81, 100
2, 44278, Note_off_c, 0, 81, 64
2, 44280, Note_on_c, 0, 79, 100
2, 44875, Note_off_c, 0, 79, 64
2, 45000, Note_on_c, 0, 84, 100
2, 45118, Note_off_c, 0, 84, 64
2, 45120, Note_on_c, 0, 93, 100
2, 45179, Note_off_c, 0, 93, 64
2, 45180, Note_on_c, 0, 93, 100
2, 45478, Note_off_c, 0, 93, 64
2, 45480, Note_on_c, 0, 84, 100
2, 45598, Note_off_c, 0, 84, 64
2, 45600, Note_on_c, 0, 94, 100
2, 45776, Note_off_c, 0, 94, 64
2, 45780, Note_on_c, 0, 93, 100
2, 45839, Note_off_c, 0, 93, 64
2, 45840, Note_on_c, 0, 89, 100
2, 46016, Note_off_c, 0, 89, 64
2, 46020, Note_on_c, 0, 86, 100
2, 46079, Note_off_c, 0, 86, 64
2, 46080, Note_on_c, 0, 89, 100
2, 46198, Note_off_c, 0, 89, 64
2, 46200, Note_on_c, 0, 86, 100
2, 46259, Note_off_c, 0, 86, 64
2, 46260, Note_on_c, 0, 84, 100
2, 47026, Note_off_c, 0, 84, 64
2, 47460, Note_on_c, 0, 89, 100
2, 47519, Note_off_c, 0, 89, 64
2, 47520, Note_on_c, 0, 89, 100
2, 47579, Note_off_c, 0, 89, 64
2, 47580, Note_on_c, 0, 91, 100
2, 47756, Note_off_c, 0, 91, 64
2, 47760, Note_on_c, 0, 89, 100
2, 47878, Note_off_c, 0, 89, 64
2, 47880, Note_on_c, 0, 86, 100
2, 47939, Note_off_c, 0, 86, 64
2, 47940, Note_on_c, 0, 86, 100
2, 48059, Note_off_c, 0, 86, 64
2, 48060, Note_on_c, 0, 84, 100
2, 48946, Note_off_c, 0, 84, 64
2, 49200, Note_on_c, 0, 84, 100
2, 49259, Note_off_c, 0, 84, 64
2, 49260, Note_on_c, 0, 84, 100
2, 49378, Note_off_c, 0, 84, 64
2, 49380, Note_on_c, 0, 84, 100
2, 49439, Note_off_c, 0, 84, 64
2, 49440, Note_on_c, 0, 84, 100
2, 49675, Note_off_c, 0, 84, 64
2, 49680, Note_on_c, 0, 89, 100
2, 49739, Note_off_c, 0, 89, 64
2, 49740, Note_on_c, 0, 91, 100
2, 49916, Note_off_c, 0, 91, 64
2, 49920, Note_on_c, 0, 93, 100
2, 49979, Note_off_c, 0, 93, 64
2, 49980, Note_on_c, 0, 89, 100
2, 50395, Note_off_c, 0, 89, 64
2, 50760, Note_on_c, 0, 81, 100
2, 50819, Note_off_c, 0, 81, 64
2, 50820, Note_on_c, 0, 82, 100
2, 50879, Note_off_c, 0, 82, 64
2, 50880, Note_on_c, 0, 84, 100
2, 50939, Note_off_c, 0, 84, 64
2, 50940, Note_on_c, 0, 84, 100
2, 51355, Note_off_c, 0, 84, 64
2, 51360, Note_on_c, 0, 86, 100
2, 51419, Note_off_c, 0, 86, 64
2, 51420, Note_on_c, 0, 89, 100
2, 51596, Note_off_c, 0, 89, 64
2, 51600, Note_on_c, 0, 89, 100
2, 51718, Note_off_c, 0, 89, 64
2, 51720, Note_on_c, 0, 86, 100
2, 51779, Note_off_c, 0, 86, 64
2, 51780, Note_on_c, 0, 91, 100
2, 51899, Note_off_c, 0, 91, 64
2, 51900, Note_on_c, 0, 86, 100
2, 52550, Note_off_c, 0, 86, 64
2, 52920, Note_on_c, 0, 81, 100
2, 52979, Note_off_c, 0, 81, 64
2, 52980, Note_on_c, 0, 84, 100
2, 53039, Note_off_c, 0, 84, 64
2, 53040, Note_on_c, 0, 86, 100
2, 53158, Note_off_c, 0, 86, 64
2, 53160, Note_on_c, 0, 88, 100
2, 53219, Note_off_c, 0, 88, 64
2, 53220, Note_on_c, 0, 91, 100
2, 53339, Note_off_c, 0, 91, 64
2, 53340, Note_on_c, 0, 93, 100
2, 53399, Note_off_c, 0, 93, 64
2, 53400, Note_on_c, 0, 91, 100
2, 53459, Note_off_c, 0, 91, 64
2, 53460, Note_on_c, 0, 93, 100
2, 53519, Note_off_c, 0, 93, 64
2, 53520, Note_on_c, 0, 89, 100
2, 53638, Note_off_c, 0, 89, 64
2, 53640, Note_on_c, 0, 86, 100
2, 53699, Note_off_c, 0, 86, 64
2, 53700, Note_on_c, 0, 88, 100
2, 53759, Note_off_c, 0, 88, 64
2, 53760, Note_on_c, 0, 91, 100
2, 53819, Note_off_c, 0, 91, 64
2, 53820, Note_on_c, 0, 93, 100
2, 53879, Note_off_c, 0, 93, 64
2, 53880, Note_on_c, 0, 89, 100
2, 54118, Note_off_c, 0, 89, 64
2, 54120, Note_on_c, 0, 86, 100
2, 54179, Note_off_c, 0, 86, 64
2, 54180, Note_on_c, 0, 89, 100
2, 54239, Note_off_c, 0, 89, 64
2, 54240, Note_on_c, 0, 91, 100
2, 54299, Note_off_c, 0, 91, 64
2, 54300, Note_on_c, 0, 93, 100
2, 54418, Note_off_c, 0, 93, 64
2, 54420, Note_on_c, 0, 89, 100
2, 54598, Note_off_c, 0, 89, 64
2, 54600, Note_on_c, 0, 86, 100
2, 54659, Note_off_c, 0, 86, 64
2, 54660, Note_on_c, 0, 91, 100
2, 54779, Note_off_c, 0, 91, 64
2, 54780, Note_on_c, 0, 93, 100
2, 54839, Note_off_c, 0, 93, 64
2, 54840, Note_on_c, 0, 89, 100
2, 55078, Note_off_c, 0, 89, 64
2, 55080, Note_on_c, 0, 86, 100
2, 55139, Note_off_c, 0, 86, 64
2, 55140, Note_on_c, 0, 89, 100
2, 55199, Note_off_c, 0, 89, 64
2, 55200, Note_on_c, 0, 91, 100
2, 55318, Note_off_c, 0, 91, 64
2, 55320, Note_on_c, 0, 93, 100
2, 55379, Note_off_c, 0, 93, 64
2, 55380, Note_on_c, 0, 89, 100
2, 55675, Note_off_c, 0, 89, 64
2, 55800, Note_on_c, 0, 91, 100
2, 55859, Note_off_c, 0, 91, 64
2, 55860, Note_on_c, 0, 93, 100
2, 55919, Note_off_c, 0, 93, 64
2, 55920, Note_on_c, 0, 89, 100
2, 55979, Note_off_c, 0, 89, 64
2, 55980, Note_on_c, 0, 86, 100
2, 56098, Note_off_c, 0, 86, 64
2, 56100, Note_on_c, 0, 91, 100
2, 56219, Note_off_c, 0, 91, 64
2, 56220, Note_on_c, 0, 93, 100
2, 56279, Note_off_c, 0, 93, 64
2, 56280, Note_on_c, 0, 89, 100
2, 56518, Note_off_c, 0, 89, 64
2, 56520, Note_on_c, 0, 86, 100
2, 56579, Note_off_c, 0, 86, 64
2, 56580, Note_on_c, 0, 86, 100
2, 56875, Note_off_c, 0, 86, 64
2, 56880, Note_on_c, 0, 84, 100
2, 57586, Note_off_c, 0, 84, 64
2, 58140, Note_on_c, 0, 86, 100
2, 58199, Note_off_c, 0, 86, 64
2, 58200, Note_on_c, 0, 86, 100
2, 58259, Note_off_c, 0, 86, 64
2, 58260, Note_on_c, 0, 89, 100
2, 58379, Note_off_c, 0, 89, 64
2, 58380, Note_on_c, 0, 89, 100
2, 58498, Note_off_c, 0, 89, 64
2, 58500, Note_on_c, 0, 92, 100
2, 58619, Note_off_c, 0, 92, 64
2, 58620, Note_on_c, 0, 89, 100
2, 59035, Note_off_c, 0, 89, 64
2, 59100, Note_on_c, 0, 84, 100
2, 59159, Note_off_c, 0, 84, 64
2, 59160, Note_on_c, 0, 86, 100
2, 59219, Note_off_c, 0, 86, 64
2, 59220, Note_on_c, 0, 89, 100
2, 59339, Note_off_c, 0, 89, 64
2, 59340, Note_on_c, 0, 89, 100
2, 59399, Note_off_c, 0, 89, 64
2, 59400, Note_on_c, 0, 86, 100
2, 59459, Note_off_c, 0, 86, 64
2, 59460, Note_on_c, 0, 92, 100
2, 59638, Note_off_c, 0, 92, 64
2, 59640, Note_on_c, 0, 86, 100
2, 59699, Note_off_c, 0, 86, 64
2, 59700, Note_on_c, 0, 84, 100
2, 59759, Note_off_c, 0, 84, 64
2, 59760, Note_on_c, 0, 86, 100
2, 59995, Note_off_c, 0, 86, 64
2, 60060, Note_on_c, 0, 84, 100
2, 60119, Note_off_c, 0, 84, 64
2, 60120, Note_on_c, 0, 86, 100
2, 60179, Note_off_c, 0, 86, 64
2, 60180, Note_on_c, 0, 89, 100
2, 60299, Note_off_c, 0, 89, 64
2, 60300, Note_on_c, 0, 89, 100
2, 60359, Note_off_c, 0, 89, 64
2, 60360, Note_on_c, 0, 86, 100
2, 60419, Note_off_c, 0, 86, 64
2, 60420, Note_on_c, 0, 92, 100
2, 60598, Note_off_c, 0, 92, 64
2, 60600, Note_on_c, 0, 89, 100
2, 60955, Note_off_c, 0, 89, 64
2, 61020, Note_on_c, 0, 84, 100
2, 61079, Note_off_c, 0, 84, 64
2, 61080, Note_on_c, 0, 86, 100
2, 61139, Note_off_c, 0, 86, 64
2, 61140, Note_on_c, 0, 89, 100
2, 61259, Note_off_c, 0, 89, 64
2, 61260, Note_on_c, 0, 86, 100
2, 61319, Note_off_c, 0, 86, 64
2, 61320, Note_on_c, 0, 89, 100
2, 61379, Note_off_c, 0, 89, 64
2, 61380, Note_on_c, 0, 86, 100
2, 61439, Note_off_c, 0, 86, 64
2, 61440, Note_on_c, 0, 93, 100
2, 61558, Note_off_c, 0, 93, 64
2, 61560, Note_on_c, 0, 91, 100
2, 61619, Note_off_c, 0, 91, 64
2, 61620, Note_on_c, 0, 89, 100
2, 61739, Note_off_c, 0, 89, 64
2, 61740, Note_on_c, 0, 91, 100
2, 61916, Note_off_c, 0, 91, 64
2, 61980, Note_on_c, 0, 84, 100
2, 62039, Note_off_c, 0, 84, 64
2, 62040, Note_on_c, 0, 86, 100
2, 62099, Note_off_c, 0, 86, 64
2, 62100, Note_on_c, 0, 89, 100
2, 62219, Note_off_c, 0, 89, 64
2, 62220, Note_on_c, 0, 89, 100
2, 62279, Note_off_c, 0, 89, 64
2, 62280, Note_on_c, 0, 86, 100
2, 62339, Note_off_c, 0, 86, 64
2, 62340, Note_on_c, 0, 92, 100
2, 62459, Note_off_c, 0, 92, 64
2, 62460, Note_on_c, 0, 89, 100
2, 62875, Note_off_c, 0, 89, 64
2, 62940, Note_on_c, 0, 84, 100
2, 62999, Note_off_c, 0, 84, 64
2, 63000, Note_on_c, 0, 86, 100
2, 63059, Note_off_c, 0, 86, 64
2, 63060, Note_on_c, 0, 89, 100
2, 63179, Note_off_c, 0, 89, 64
2, 63180, Note_on_c, 0, 89, 100
2, 63239, Note_off_c, 0, 89, 64
2, 63240, Note_on_c, 0, 86, 100
2, 63299, Note_off_c, 0, 86, 64
2, 63300, Note_on_c, 0, 92, 100
2, 63419, Note_off_c, 0, 92, 64
2, 63420, Note_on_c, 0, 86, 100
2, 63479, Note_off_c, 0, 86, 64
2, 63480, Note_on_c, 0, 84, 100
2, 63539, Note_off_c, 0, 84, 64
2, 63540, Note_on_c, 0, 86, 100
2, 63835, Note_off_c, 0, 86, 64
2, 64320, Note_on_c, 0, 94, 100
2, 64555, Note_off_c, 0, 94, 64
2, 64560, Note_on_c, 0, 93, 100
2, 64678, Note_off_c, 0, 93, 64
2, 64680, Note_on_c, 0, 89, 100
2, 64798, Note_off_c, 0, 89, 64
2, 64800, Note_on_c, 0, 89, 100
2, 65035, Note_off_c, 0, 89, 64
2, 65040, Note_on_c, 0, 86, 100
2, 65158, Note_off_c, 0, 86, 64
2, 65160, Note_on_c, 0, 84, 100
2, 65278, Note_off_c, 0, 84, 64
2, 65280, Note_on_c, 0, 84, 100
2, 65515, Note_off_c, 0, 84, 64
2, 65520, Note_on_c, 0, 84, 100
2, 65755, Note_off_c, 0, 84, 64
2, 65820, Note_on_c, 0, 84, 100
2, 65879, Note_off_c, 0, 84, 64
2, 65880, Note_on_c, 0, 86, 100
2, 65939, Note_off_c, 0, 86, 64
2, 65940, Note_on_c, 0, 89, 100
2, 66059, Note_off_c, 0, 89, 64
2, 66060, Note_on_c, 0, 89, 100
2, 66119, Note_off_c, 0, 89, 64
2, 66120, Note_on_c, 0, 86, 100
2, 66179, Note_off_c, 0, 86, 64
2, 66180, Note_on_c, 0, 92, 100
2, 66299, Note_off_c, 0, 92, 64
2, 66300, Note_on_c, 0, 89, 100
2, 66715, Note_off_c, 0, 89, 64
2, 66780, Note_on_c, 0, 84, 100
2, 66839, Note_off_c, 0, 84, 64
2, 66840, Note_on_c, 0, 86, 100
2, 66899, Note_off_c, 0, 86, 64
2, 66900, Note_on_c, 0, 89, 100
2, 67019, Note_off_c, 0, 89, 64
2, 67020, Note_on_c, 0, 89, 100
2, 67079, Note_off_c, 0, 89, 64
2, 67080, Note_on_c, 0, 86, 100
2, 67139, Note_off_c, 0, 86, 64
2, 67140, Note_on_c, 0, 92, 100
2, 67318, Note_off_c, 0, 92, 64
2, 67320, Note_on_c, 0, 86, 100
2, 67379, Note_off_c, 0, 86, 64
2, 67380, Note_on_c, 0, 84, 100
2, 67439, Note_off_c, 0, 84, 64
2, 67440, Note_on_c, 0, 86, 100
2, 67675, Note_off_c, 0, 86, 64
2, 67740, Note_on_c, 0, 84, 100
2, 67799, Note_off_c, 0, 84, 64
2, 67800, Note_on_c, 0, 86, 100
2, 67859, Note_off_c, 0, 86, 64
2, 67860, Note_on_c, 0, 89, 100
2, 67979, Note_off_c, 0, 89, 64
2, 67980, Note_on_c, 0, 89, 100
2, 68039, Note_off_c, 0, 89, 64
2, 68040, Note_on_c, 0, 86, 100
2, 68099, Note_off_c, 0, 86, 64
2, 68100, Note_on_c, 0, 92, 100
2, 68278, Note_off_c, 0, 92, 64
2, 68280, Note_on_c, 0, 89, 100
2, 68635, Note_off_c, 0, 89, 64
2, 68700, Note_on_c, 0, 84, 100
2, 68759, Note_off_c, 0, 84, 64
2, 68760, Note_on_c, 0, 86, 100
2, 68819, Note_off_c, 0, 86, 64
2, 68820, Note_on_c, 0, 89, 100
2, 68939, Note_off_c, 0, 89, 64
2, 68940, Note_on_c, 0, 86, 100
2, 68999, Note_off_c, 0, 86, 64
2, 69000, Note_on_c, 0, 89, 100
2, 69059, Note_off_c, 0, 89, 64
2, 69060, Note_on_c, 0, 86, 100
2, 69119, Note_off_c, 0, 86, 64
2, 69120, Note_on_c, 0, 93, 100
2, 69238, Note_off_c, 0, 93, 64
2, 69240, Note_on_c, 0, 91, 100
2, 69299, Note_off_c, 0, 91, 64
2, 69300, Note_on_c, 0, 89, 100
2, 69419, Note_off_c, 0, 89, 64
2, 69420, Note_on_c, 0, 91, 100
2, 69596, Note_off_c, 0, 91, 64
2, 69660, Note_on_c, 0, 84, 100
2, 69719, Note_off_c, 0, 84, 64
2, 69720, Note_on_c, 0, 86, 100
2, 69779, Note_off_c, 0, 86, 64
2, 69780, Note_on_c, 0, 89, 100
2, 69899, Note_off_c, 0, 89, 64
2, 69900, Note_on_c, 0, 89, 100
2, 69959, Note_off_c, 0, 89, 64
2, 69960, Note_on_c, 0, 86, 100
2, 70019, Note_off_c, 0, 86, 64
2, 70020, Note_on_c, 0, 92, 100
2, 70139, Note_off_c, 0, 92, 64
2, 70140, Note_on_c, 0, 89, 100
2, 70555, Note_off_c, 0, 89, 64
2, 70620, Note_on_c, 0, 84, 100
2, 70679, Note_off_c, 0, 84, 64
2, 70680, Note_on_c, 0, 86, 100
2, 70739, Note_off_c, 0, 86, 64
2, 70740, Note_on_c, 0, 89, 100
2, 70859, Note_off_c, 0, 89, 64
2, 70860, Note_on_c, 0, 89, 100
2, 70919, Note_off_c, 0, 89, 64
2, 70920, Note_on_c, 0, 86, 100
2, 70979, Note_off_c, 0, 86, 64
2, 70980, Note_on_c, 0, 92, 100
2, 71099, Note_off_c, 0, 92, 64
2, 71100, Note_on_c, 0, 86, 100
2, 71159, Note_off_c, 0, 86, 64
2, 71160, Note_on_c, 0, 84, 100
2, 71219, Note_off_c, 0, 84, 64
2, 71220, Note_on_c, 0, 86, 100
2, 71515, Note_off_c, 0, 86, 64
2, 72000, Note_on_c, 0, 94, 100
2, 72235, Note_off_c, 0, 94, 64
2, 72240, Note_on_c, 0, 93, 100
2, 72358, Note_off_c, 0, 93, 64
2, 72360, Note_on_c, 0, 89, 100
2, 72478, Note_off_c, 0, 89, 64
2, 72480, Note_on_c, 0, 89, 100
2, 72715, Note_off_c, 0, 89, 64
2, 72720, Note_on_c, 0, 86, 100
2, 72838, Note_off_c, 0, 86, 64
2, 72840, Note_on_c, 0, 84, 100
2, 72958, Note_off_c, 0, 84, 64
2, 72960, Note_on_c, 0, 84, 100
2, 73901, Note_off_c, 0, 84, 64
2, 73920, Note_on_c, 0, 77, 1
2, 74626, Note_off_c, 0, 77, 64
2, 74640, Note_on_c, 0, 77, 1
2, 74699, Note_off_c, 0, 77, 64
2, 74700, Note_on_c, 0, 72, 1
2, 74759, Note_off_c, 0, 72, 64
2, 74760, Note_on_c, 0, 74, 1
2, 74819, Note_off_c, 0, 74, 64
2, 74820, Note_on_c, 0, 77, 1
2, 74879, Note_off_c, 0, 77, 64
2, 74880, Note_on_c, 0, 77, 1
2, 75718, Note_off_c, 0, 77, 64
2, 75720, Note_on_c, 0, 86, 1
2, 75838, Note_off_c, 0, 86, 64
2, 76080, Note_on_c, 0, 84, 1
2, 76315, Note_off_c, 0, 84, 64
2, 76560, Note_on_c, 0, 79, 1
2, 76619, Note_off_c, 0, 79, 64
2, 76620, Note_on_c, 0, 77, 1
2, 76679, Note_off_c, 0, 77, 64
2, 76680, Note_on_c, 0, 79, 1
2, 76739, Note_off_c, 0, 79, 64
2, 76740, Note_on_c, 0, 74, 1
2, 76799, Note_off_c, 0, 74, 64
2, 76800, Note_on_c, 0, 77, 1
2, 77741, Note_off_c, 0, 77, 64
2, 77760, Note_on_c, 0, 77, 1
2, 78466, Note_off_c, 0, 77, 64
2, 78480, Note_on_c, 0, 77, 1
2, 78539, Note_off_c, 0, 77, 64
2, 78540, Note_on_c, 0, 72, 1
2, 78599, Note_off_c, 0, 72, 64
2, 78600, Note_on_c, 0, 74, 1
2, 78659, Note_off_c, 0, 74, 64
2, 78660, Note_on_c, 0, 77, 1
2, 78719, Note_off_c, 0, 77, 64
2, 78720, Note_on_c, 0, 77, 1
2, 79558, Note_off_c, 0, 77, 64
2, 79560, Note_on_c, 0, 86, 1
2, 79678, Note_off_c, 0, 86, 64
2, 79920, Note_on_c, 0, 84, 1
2, 80155, Note_off_c, 0, 84, 64
2, 80400, Note_on_c, 0, 79, 1
2, 80459, Note_off_c, 0, 79, 64
2, 80460, Note_on_c, 0, 77, 1
2, 80519, Note_off_c, 0, 77, 64
2, 80520, Note_on_c, 0, 79, 1
2, 80579, Note_off_c, 0, 79, 64
2, 80580, Note_on_c, 0, 74, 1
2, 80639, Note_off_c, 0, 74, 64
2, 80640, Note_on_c, 0, 77, 1
2, 81581, Note_off_c, 0, 77, 64
2, 81600, Note_on_c, 0, 77, 1
2, 82306, Note_off_c, 0, 77, 64
2, 82320, Note_on_c, 0, 77, 1
2, 82379, Note_off_c, 0, 77, 64
2, 82380, Note_on_c, 0, 72, 1
2, 82439, Note_off_c, 0, 72, 64
2, 82440, Note_on_c, 0, 74, 1
2, 82499, Note_off_c, 0, 74, 64
2, 82500, Note_on_c, 0, 77, 1
2, 82559, Note_off_c, 0, 77, 64
2, 82560, Note_on_c, 0, 77, 1
2, 83398, Note_off_c, 0, 77, 64
2, 83400, Note_on_c, 0, 86, 1
2, 83518, Note_off_c, 0, 86, 64
2, 83760, Note_on_c, 0, 84, 1
2, 83995, Note_off_c, 0, 84, 64
2, 84240, Note_on_c, 0, 79, 1
2, 84299, Note_off_c, 0, 79, 64
2, 84300, Note_on_c, 0, 77, 1
2, 84359, Note_off_c, 0, 77, 64
2, 84360, Note_on_c, 0, 79, 1
2, 84419, Note_off_c, 0, 79, 64
2, 84420, Note_on_c, 0, 74, 1
2, 84479, Note_off_c, 0, 74, 64
2, 84480, Note_on_c, 0, 77, 1
2, 85421, Note_off_c, 0, 77, 64
2, 85421, End_track
3, 0, Start_track
3, 0, Text_t, "Electric Grand Piano"
3, 0, Program_c, 1, 2
3, 0, Control_c, 1, 7, 125
3, 960, Note_on_c, 1, 72, 95
3, 960, Note_on_c, 1, 69, 95
3, 1901, Note_off_c, 1, 69, 64
3, 1901, Note_off_c, 1, 72, 64
3, 1920, Note_on_c, 1, 74, 95
3, 1920, Note_on_c, 1, 70, 95
3, 2626, Note_off_c, 1, 74, 64
3, 2816, Note_off_c, 1, 70, 64
3, 2820, Note_on_c, 1, 67, 95
3, 2879, Note_off_c, 1, 67, 64
3, 2880, Note_on_c, 1, 69, 95
3, 3350, Note_off_c, 1, 69, 64
3, 3840, Note_on_c, 1, 62, 95
3, 4310, Note_off_c, 1, 62, 64
3, 4320, Note_on_c, 1, 62, 95
3, 4555, Note_off_c, 1, 62, 64
3, 4560, Note_on_c, 1, 62, 95
3, 4795, Note_off_c, 1, 62, 64
3, 4800, Note_on_c, 1, 77, 95
3, 4800, Note_on_c, 1, 72, 95
3, 4859, Note_off_c, 1, 72, 64
3, 4859, Note_off_c, 1, 77, 64
3, 5040, Note_on_c, 1, 81, 95
3, 5040, Note_on_c, 1, 77, 95
3, 5158, Note_off_c, 1, 77, 64
3, 5158, Note_off_c, 1, 81, 64
3, 5220, Note_on_c, 1, 82, 95
3, 5220, Note_on_c, 1, 77, 95
3, 5398, Note_off_c, 1, 77, 64
3, 5398, Note_off_c, 1, 82, 64
3, 5400, Note_on_c, 1, 82, 95
3, 5400, Note_on_c, 1, 77, 95
3, 5518, Note_off_c, 1, 77, 64
3, 5518, Note_off_c, 1, 82, 64
3, 5520, Note_on_c, 1, 82, 95
3, 5520, Note_on_c, 1, 77, 95
3, 5638, Note_off_c, 1, 77, 64
3, 5638, Note_off_c, 1, 82, 64
3, 5700, Note_on_c, 1, 77, 95
3, 5700, Note_on_c, 1, 72, 95
3, 5936, Note_off_c, 1, 72, 64
3, 5936, Note_off_c, 1, 77, 64
3, 5940, Note_on_c, 1, 77, 95
3, 5940, Note_on_c, 1, 72, 95
3, 5999, Note_off_c, 1, 72, 64
3, 5999, Note_off_c, 1, 77, 64
3, 6000, Note_on_c, 1, 65, 95
3, 6059, Note_off_c, 1, 65, 64
3, 6060, Note_on_c, 1, 69, 95
3, 6119, Note_off_c, 1, 69, 64
3, 6120, Note_on_c, 1, 72, 95
3, 6238, Note_off_c, 1, 72, 64
3, 6240, Note_on_c, 1, 69, 95
3, 6299, Note_off_c, 1, 69, 64
3, 6300, Note_on_c, 1, 72, 95
3, 6359, Note_off_c, 1, 72, 64
3, 6360, Note_on_c, 1, 72, 95
3, 6419, Note_off_c, 1, 72, 64
3, 6420, Note_on_c, 1, 77, 95
3, 6420, Note_on_c, 1, 72, 95
3, 6539, Note_off_c, 1, 72, 64
3, 6539, Note_off_c, 1, 77, 64
3, 6540, Note_on_c, 1, 67, 95
3, 6599, Note_off_c, 1, 67, 64
3, 6600, Note_on_c, 1, 65, 95
3, 6718, Note_off_c, 1, 65, 64
3, 6720, Note_on_c, 1, 74, 95
3, 6720, Note_on_c, 1, 70, 95
3, 6720, Note_on_c, 1, 65, 95
3, 6896, Note_off_c, 1, 65, 64
3, 6896, Note_off_c, 1, 70, 64
3, 6896, Note_off_c, 1, 74, 64
3, 6900, Note_on_c, 1, 74, 95
3, 6900, Note_on_c, 1, 70, 95
3, 6900, Note_on_c, 1, 65, 95
3, 7136, Note_off_c, 1, 65, 64
3, 7136, Note_off_c, 1, 70, 64
3, 7136, Note_off_c, 1, 74, 64
3, 7140, Note_on_c, 1, 77, 95
3, 7199, Note_off_c, 1, 77, 64
3, 7200, Note_on_c, 1, 86, 95
3, 7200, Note_on_c, 1, 82, 95
3, 7435, Note_off_c, 1, 82, 64
3, 7435, Note_off_c, 1, 86, 64
3, 7440, Note_on_c, 1, 82, 95
3, 7440, Note_on_c, 1, 77, 95
3, 7675, Note_off_c, 1, 77, 64
3, 7675, Note_off_c, 1, 82, 64
3, 7680, Note_on_c, 1, 81, 95
3, 7680, Note_on_c, 1, 77, 95
3, 7915, Note_off_c, 1, 77, 64
3, 7915, Note_off_c, 1, 81, 64
3, 7920, Note_on_c, 1, 77, 95
3, 7920, Note_on_c, 1, 72, 95
3, 8096, Note_off_c, 1, 72, 64
3, 8096, Note_off_c, 1, 77, 64
3, 8100, Note_on_c, 1, 81, 95
3, 8100, Note_on_c, 1, 77, 95
3, 8336, Note_off_c, 1, 77, 64
3, 8336, Note_off_c, 1, 81, 64
3, 8340, Note_on_c, 1, 79, 95
3, 8340, Note_on_c, 1, 76, 95
3, 8459, Note_off_c, 1, 76, 64
3, 8459, Note_off_c, 1, 79, 64
3, 8460, Note_on_c, 1, 72, 95
3, 8519, Note_off_c, 1, 72, 64
3, 8520, Note_on_c, 1, 77, 95
3, 8520, Note_on_c, 1, 72, 95
3, 8638, Note_off_c, 1, 72, 64
3, 8638, Note_off_c, 1, 77, 64
3, 8640, Note_on_c, 1, 67, 95
3, 8699, Note_off_c, 1, 67, 64
3, 8700, Note_on_c, 1, 72, 95
3, 8759, Note_off_c, 1, 72, 64
3, 8760, Note_on_c, 1, 67, 95
3, 8819, Note_off_c, 1, 67, 64
3, 8820, Note_on_c, 1, 79, 95
3, 8820, Note_on_c, 1, 76, 95
3, 8820, Note_on_c, 1, 72, 95
3, 8939, Note_off_c, 1, 72, 64
3, 8939, Note_off_c, 1, 76, 64
3, 8939, Note_off_c, 1, 79, 64
3, 8940, Note_on_c, 1, 67, 95
3, 8999, Note_off_c, 1, 67, 64
3, 9000, Note_on_c, 1, 76, 95
3, 9000, Note_on_c, 1, 72, 95
3, 9000, Note_on_c, 1, 67, 95
3, 9118, Note_off_c, 1, 67, 64
3, 9118, Note_off_c, 1, 72, 64
3, 9118, Note_off_c, 1, 76, 64
3, 9120, Note_on_c, 1, 79, 95
3, 9120, Note_on_c, 1, 76, 95
3, 9296, Note_off_c, 1, 76, 64
3, 9296, Note_off_c, 1, 79, 64
3, 9300, Note_on_c, 1, 79, 95
3, 9359, Note_off_c, 1, 79, 64
3, 9360, Note_on_c, 1, 79, 95
3, 9360, Note_on_c, 1, 74, 95
3, 9419, Note_off_c, 1, 74, 64
3, 9419, Note_off_c, 1, 79, 64
3, 9420, Note_on_c, 1, 76, 95
3, 9538, Note_off_c, 1, 76, 64
3, 9540, Note_on_c, 1, 81, 95
3, 9540, Note_on_c, 1, 86, 95
3, 9599, Note_off_c, 1, 86, 64
3, 9599, Note_off_c, 1, 81, 64
3, 9660, Note_on_c, 1, 77, 95
3, 9719, Note_off_c, 1, 77, 64
3, 9720, Note_on_c, 1, 81, 95
3, 9779, Note_off_c, 1, 81, 64
3, 9780, Note_on_c, 1, 77, 95
3, 9780, Note_on_c, 1, 81, 95
3, 9899, Note_off_c, 1, 81, 64
3, 9899, Note_off_c, 1, 77, 64
3, 9960, Note_on_c, 1, 81, 95
3, 10078, Note_off_c, 1, 81, 64
3, 10080, Note_on_c, 1, 77, 95
3, 10139, Note_off_c, 1, 77, 64
3, 10140, Note_on_c, 1, 69, 95
3, 10199, Note_off_c, 1, 69, 64
3, 10200, Note_on_c, 1, 74, 95
3, 10259, Note_off_c, 1, 74, 64
3, 10260, Note_on_c, 1, 74, 95
3, 10260, Note_on_c, 1, 77, 95
3, 10379, Note_off_c, 1, 77, 64
3, 10379, Note_off_c, 1, 74, 64
3, 10380, Note_on_c, 1, 74, 95
3, 10439, Note_off_c, 1, 74, 64
3, 10440, Note_on_c, 1, 74, 95
3, 10440, Note_on_c, 1, 77, 95
3, 10499, Note_off_c, 1, 77, 64
3, 10499, Note_off_c, 1, 74, 64
3, 10560, Note_on_c, 1, 76, 95
3, 10560, Note_on_c, 1, 81, 95
3, 10619, Note_off_c, 1, 81, 64
3, 10619, Note_off_c, 1, 76, 64
3, 10620, Note_on_c, 1, 76, 95
3, 10620, Note_on_c, 1, 81, 95
3, 10796, Note_off_c, 1, 81, 64
3, 10796, Note_off_c, 1, 76, 64
3, 10800, Note_on_c, 1, 81, 95
3, 10859, Note_off_c, 1, 81, 64
3, 10980, Note_on_c, 1, 77, 95
3, 10980, Note_on_c, 1, 82, 95
3, 11099, Note_off_c, 1, 82, 64
3, 11099, Note_off_c, 1, 77, 64
3, 11100, Note_on_c, 1, 74, 95
3, 11100, Note_on_c, 1, 77, 95
3, 11218, Note_off_c, 1, 77, 64
3, 11218, Note_off_c, 1, 74, 64
3, 11220, Note_on_c, 1, 74, 95
3, 11220, Note_on_c, 1, 77, 95
3, 11398, Note_off_c, 1, 77, 64
3, 11398, Note_off_c, 1, 74, 64
3, 11520, Note_on_c, 1, 77, 95
3, 11520, Note_on_c, 1, 74, 95
3, 11696, Note_off_c, 1, 74, 64
3, 11696, Note_off_c, 1, 77, 64
3, 11700, Note_on_c, 1, 67, 95
3, 11759, Note_off_c, 1, 67, 64
3, 11760, Note_on_c, 1, 74, 95
3, 11760, Note_on_c, 1, 70, 95
3, 11819, Note_off_c, 1, 70, 64
3, 11819, Note_off_c, 1, 74, 64
3, 11820, Note_on_c, 1, 74, 95
3, 11820, Note_on_c, 1, 70, 95
3, 11938, Note_off_c, 1, 70, 64
3, 11938, Note_off_c, 1, 74, 64
3, 11940, Note_on_c, 1, 74, 95
3, 11940, Note_on_c, 1, 70, 95
3, 12059, Note_off_c, 1, 70, 64
3, 12059, Note_off_c, 1, 74, 64
3, 12060, Note_on_c, 1, 74, 95
3, 12060, Note_on_c, 1, 70, 95
3, 12178, Note_off_c, 1, 70, 64
3, 12178, Note_off_c, 1, 74, 64
3, 12180, Note_on_c, 1, 74, 95
3, 12180, Note_on_c, 1, 70, 95
3, 12299, Note_off_c, 1, 70, 64
3, 12299, Note_off_c, 1, 74, 64
3, 12300, Note_on_c, 1, 74, 95
3, 12300, Note_on_c, 1, 70, 95
3, 12418, Note_off_c, 1, 70, 64
3, 12418, Note_off_c, 1, 74, 64
3, 12420, Note_on_c, 1, 74, 95
3, 12420, Note_on_c, 1, 70, 95
3, 12479, Note_off_c, 1, 70, 64
3, 12479, Note_off_c, 1, 74, 64
3, 12480, Note_on_c, 1, 77, 95
3, 12480, Note_on_c, 1, 72, 95
3, 12715, Note_off_c, 1, 72, 64
3, 12715, Note_off_c, 1, 77, 64
3, 12720, Note_on_c, 1, 81, 95
3, 12720, Note_on_c, 1, 77, 95
3, 12955, Note_off_c, 1, 77, 64
3, 12955, Note_off_c, 1, 81, 64
3, 12960, Note_on_c, 1, 82, 95
3, 12960, Note_on_c, 1, 77, 95
3, 13019, Note_off_c, 1, 77, 64
3, 13019, Note_off_c, 1, 82, 64
3, 13020, Note_on_c, 1, 82, 95
3, 13020, Note_on_c, 1, 77, 95
3, 13196, Note_off_c, 1, 77, 64
3, 13196, Note_off_c, 1, 82, 64
3, 13200, Note_on_c, 1, 82, 95
3, 13200, Note_on_c, 1, 77, 95
3, 13318, Note_off_c, 1, 77, 64
3, 13318, Note_off_c, 1, 82, 64
3, 13440, Note_on_c, 1, 77, 95
3, 13440, Note_on_c, 1, 72, 95
3, 13558, Note_off_c, 1, 72, 64
3, 13558, Note_off_c, 1, 77, 64
3, 13560, Note_on_c, 1, 77, 95
3, 13560, Note_on_c, 1, 72, 95
3, 13619, Note_off_c, 1, 72, 64
3, 13619, Note_off_c, 1, 77, 64
3, 13620, Note_on_c, 1, 72, 95
3, 13679, Note_off_c, 1, 72, 64
3, 13680, Note_on_c, 1, 65, 95
3, 13739, Note_off_c, 1, 65, 64
3, 13740, Note_on_c, 1, 69, 95
3, 13799, Note_off_c, 1, 69, 64
3, 13800, Note_on_c, 1, 72, 95
3, 13918, Note_off_c, 1, 72, 64
3, 13920, Note_on_c, 1, 69, 95
3, 13979, Note_off_c, 1, 69, 64
3, 13980, Note_on_c, 1, 70, 95
3, 14039, Note_off_c, 1, 70, 64
3, 14040, Note_on_c, 1, 72, 95
3, 14099, Note_off_c, 1, 72, 64
3, 14100, Note_on_c, 1, 77, 95
3, 14100, Note_on_c, 1, 72, 95
3, 14219, Note_off_c, 1, 72, 64
3, 14219, Note_off_c, 1, 77, 64
3, 14220, Note_on_c, 1, 67, 95
3, 14279, Note_off_c, 1, 67, 64
3, 14280, Note_on_c, 1, 65, 95
3, 14398, Note_off_c, 1, 65, 64
3, 14400, Note_on_c, 1, 74, 95
3, 14400, Note_on_c, 1, 70, 95
3, 14400, Note_on_c, 1, 65, 95
3, 14576, Note_off_c, 1, 65, 64
3, 14576, Note_off_c, 1, 70, 64
3, 14576, Note_off_c, 1, 74, 64
3, 14580, Note_on_c, 1, 74, 95
3, 14580, Note_on_c, 1, 70, 95
3, 14580, Note_on_c, 1, 65, 95
3, 14816, Note_off_c, 1, 65, 64
3, 14816, Note_off_c, 1, 70, 64
3, 14816, Note_off_c, 1, 74, 64
3, 14820, Note_on_c, 1, 77, 95
3, 14879, Note_off_c, 1, 77, 64
3, 14880, Note_on_c, 1, 86, 95
3, 14880, Note_on_c, 1, 82, 95
3, 14998, Note_off_c, 1, 82, 64
3, 14998, Note_off_c, 1, 86, 64
3, 15060, Note_on_c, 1, 82, 95
3, 15060, Note_on_c, 1, 77, 95
3, 15179, Note_off_c, 1, 77, 64
3, 15179, Note_off_c, 1, 82, 64
3, 15300, Note_on_c, 1, 77, 95
3, 15300, Note_on_c, 1, 81, 95
3, 15595, Note_off_c, 1, 81, 64
3, 15595, Note_off_c, 1, 77, 64
3, 15600, Note_on_c, 1, 77, 95
3, 15600, Note_on_c, 1, 72, 95
3, 15776, Note_off_c, 1, 72, 64
3, 15776, Note_off_c, 1, 77, 64
3, 15780, Note_on_c, 1, 72, 95
3, 15839, Note_off_c, 1, 72, 64
3, 15840, Note_on_c, 1, 79, 95
3, 15840, Note_on_c, 1, 77, 95
3, 15899, Note_off_c, 1, 77, 64
3, 15899, Note_off_c, 1, 79, 64
3, 15900, Note_on_c, 1, 81, 95
3, 15900, Note_on_c, 1, 77, 95
3, 15959, Note_off_c, 1, 77, 64
3, 15959, Note_off_c, 1, 81, 64
3, 15960, Note_on_c, 1, 72, 95
3, 16019, Note_off_c, 1, 72, 64
3, 16020, Note_on_c, 1, 81, 95
3, 16020, Note_on_c, 1, 77, 95
3, 16139, Note_off_c, 1, 77, 64
3, 16139, Note_off_c, 1, 81, 64
3, 16140, Note_on_c, 1, 79, 95
3, 16140, Note_on_c, 1, 70, 95
3, 16199, Note_off_c, 1, 70, 64
3, 16199, Note_off_c, 1, 79, 64
3, 16200, Note_on_c, 1, 77, 95
3, 16200, Note_on_c, 1, 69, 95
3, 16318, Note_off_c, 1, 69, 64
3, 16318, Note_off_c, 1, 77, 64
3, 16320, Note_on_c, 1, 67, 95
3, 16379, Note_off_c, 1, 67, 64
3, 16380, Note_on_c, 1, 72, 95
3, 16439, Note_off_c, 1, 72, 64
3, 16440, Note_on_c, 1, 76, 95
3, 16499, Note_off_c, 1, 76, 64
3, 16500, Note_on_c, 1, 79, 95
3, 16559, Note_off_c, 1, 79, 64
3, 16560, Note_on_c, 1, 79, 95
3, 16560, Note_on_c, 1, 76, 95
3, 16619, Note_off_c, 1, 76, 64
3, 16619, Note_off_c, 1, 79, 64
3, 16620, Note_on_c, 1, 79, 95
3, 16620, Note_on_c, 1, 76, 95
3, 16738, Note_off_c, 1, 76, 64
3, 16738, Note_off_c, 1, 79, 64
3, 16740, Note_on_c, 1, 79, 95
3, 16740, Note_on_c, 1, 76, 95
3, 16859, Note_off_c, 1, 76, 64
3, 16859, Note_off_c, 1, 79, 64
3, 16860, Note_on_c, 1, 79, 95
3, 16919, Note_off_c, 1, 79, 64
3, 16920, Note_on_c, 1, 72, 95
3, 16979, Note_off_c, 1, 72, 64
3, 16980, Note_on_c, 1, 79, 95
3, 16980, Note_on_c, 1, 74, 95
3, 17099, Note_off_c, 1, 74, 64
3, 17099, Note_off_c, 1, 79, 64
3, 17100, Note_on_c, 1, 79, 95
3, 17100, Note_on_c, 1, 76, 95
3, 17276, Note_off_c, 1, 76, 64
3, 17276, Note_off_c, 1, 79, 64
3, 17280, Note_on_c, 1, 86, 95
3, 17280, Note_on_c, 1, 81, 95
3, 17339, Note_off_c, 1, 81, 64
3, 17339, Note_off_c, 1, 86, 64
3, 17340, Note_on_c, 1, 81, 95
3, 17340, Note_on_c, 1, 77, 95
3, 17516, Note_off_c, 1, 77, 64
3, 17516, Note_off_c, 1, 81, 64
3, 17520, Note_on_c, 1, 81, 95
3, 17520, Note_on_c, 1, 77, 95
3, 17579, Note_off_c, 1, 77, 64
3, 17579, Note_off_c, 1, 81, 64
3, 17580, Note_on_c, 1, 74, 95
3, 17639, Note_off_c, 1, 74, 64
3, 17640, Note_on_c, 1, 69, 95
3, 17758, Note_off_c, 1, 69, 64
3, 17760, Note_on_c, 1, 65, 95
3, 17819, Note_off_c, 1, 65, 64
3, 17820, Note_on_c, 1, 69, 95
3, 17879, Note_off_c, 1, 69, 64
3, 17880, Note_on_c, 1, 74, 95
3, 17939, Note_off_c, 1, 74, 64
3, 17940, Note_on_c, 1, 77, 95
3, 17940, Note_on_c, 1, 74, 95
3, 18059, Note_off_c, 1, 74, 64
3, 18059, Note_off_c, 1, 77, 64
3, 18060, Note_on_c, 1, 72, 95
3, 18119, Note_off_c, 1, 72, 64
3, 18120, Note_on_c, 1, 77, 95
3, 18120, Note_on_c, 1, 74, 95
3, 18179, Note_off_c, 1, 74, 64
3, 18179, Note_off_c, 1, 77, 64
3, 18240, Note_on_c, 1, 81, 95
3, 18240, Note_on_c, 1, 76, 95
3, 18416, Note_off_c, 1, 76, 64
3, 18416, Note_off_c, 1, 81, 64
3, 18420, Note_on_c, 1, 81, 95
3, 18420, Note_on_c, 1, 76, 95
3, 18598, Note_off_c, 1, 76, 64
3, 18598, Note_off_c, 1, 81, 64
3, 18600, Note_on_c, 1, 76, 95
3, 18600, Note_on_c, 1, 72, 95
3, 18718, Note_off_c, 1, 72, 64
3, 18718, Note_off_c, 1, 76, 64
3, 18720, Note_on_c, 1, 82, 95
3, 18720, Note_on_c, 1, 77, 95
3, 18896, Note_off_c, 1, 77, 64
3, 18896, Note_off_c, 1, 82, 64
3, 18900, Note_on_c, 1, 77, 95
3, 18900, Note_on_c, 1, 74, 95
3, 19136, Note_off_c, 1, 74, 64
3, 19136, Note_off_c, 1, 77, 64
3, 19140, Note_on_c, 1, 77, 95
3, 19140, Note_on_c, 1, 74, 95
3, 19259, Note_off_c, 1, 74, 64
3, 19259, Note_off_c, 1, 77, 64
3, 19260, Note_on_c, 1, 77, 95
3, 19260, Note_on_c, 1, 74, 95
3, 19378, Note_off_c, 1, 74, 64
3, 19378, Note_off_c, 1, 77, 64
3, 19380, Note_on_c, 1, 77, 95
3, 19380, Note_on_c, 1, 74, 95
3, 19439, Note_off_c, 1, 74, 64
3, 19439, Note_off_c, 1, 77, 64
3, 19440, Note_on_c, 1, 77, 95
3, 19440, Note_on_c, 1, 74, 95
3, 19616, Note_off_c, 1, 74, 64
3, 19616, Note_off_c, 1, 77, 64
3, 19620, Note_on_c, 1, 77, 95
3, 19620, Note_on_c, 1, 74, 95
3, 19679, Note_off_c, 1, 74, 64
3, 19679, Note_off_c, 1, 77, 64
3, 19680, Note_on_c, 1, 77, 95
3, 19680, Note_on_c, 1, 74, 95
3, 19915, Note_off_c, 1, 74, 64
3, 19915, Note_off_c, 1, 77, 64
3, 19920, Note_on_c, 1, 67, 95
3, 19979, Note_off_c, 1, 67, 64
3, 19980, Note_on_c, 1, 68, 95
3, 20156, Note_off_c, 1, 68, 64
3, 20160, Note_on_c, 1, 69, 95
3, 20278, Note_off_c, 1, 69, 64
3, 20280, Note_on_c, 1, 76, 95
3, 20280, Note_on_c, 1, 72, 95
3, 20339, Note_off_c, 1, 72, 64
3, 20339, Note_off_c, 1, 76, 64
3, 20400, Note_on_c, 1, 81, 95
3, 20400, Note_on_c, 1, 76, 95
3, 20518, Note_off_c, 1, 76, 64
3, 20518, Note_off_c, 1, 81, 64
3, 20580, Note_on_c, 1, 86, 95
3, 20580, Note_on_c, 1, 81, 95
3, 20699, Note_off_c, 1, 81, 64
3, 20699, Note_off_c, 1, 86, 64
3, 20880, Note_on_c, 1, 86, 95
3, 20880, Note_on_c, 1, 81, 95
3, 20998, Note_off_c, 1, 81, 64
3, 20998, Note_off_c, 1, 86, 64
3, 21120, Note_on_c, 1, 86, 95
3, 21120, Note_on_c, 1, 82, 95
3, 21179, Note_off_c, 1, 82, 64
3, 21179, Note_off_c, 1, 86, 64
3, 21240, Note_on_c, 1, 86, 95
3, 21240, Note_on_c, 1, 82, 95
3, 21478, Note_off_c, 1, 82, 64
3, 21478, Note_off_c, 1, 86, 64
3, 21480, Note_on_c, 1, 82, 95
3, 21480, Note_on_c, 1, 77, 95
3, 21539, Note_off_c, 1, 77, 64
3, 21539, Note_off_c, 1, 82, 64
3, 21600, Note_on_c, 1, 84, 95
3, 21600, Note_on_c, 1, 81, 95
3, 21659, Note_off_c, 1, 81, 64
3, 21659, Note_off_c, 1, 84, 64
3, 21780, Note_on_c, 1, 84, 95
3, 21780, Note_on_c, 1, 81, 95
3, 21958, Note_off_c, 1, 81, 64
3, 21958, Note_off_c, 1, 84, 64
3, 22020, Note_on_c, 1, 86, 95
3, 22020, Note_on_c, 1, 82, 95
3, 22139, Note_off_c, 1, 82, 64
3, 22139, Note_off_c, 1, 86, 64
3, 22200, Note_on_c, 1, 86, 95
3, 22200, Note_on_c, 1, 82, 95
3, 22438, Note_off_c, 1, 82, 64
3, 22438, Note_off_c, 1, 86, 64
3, 22440, Note_on_c, 1, 82, 95
3, 22440, Note_on_c, 1, 77, 95
3, 22499, Note_off_c, 1, 77, 64
3, 22499, Note_off_c, 1, 82, 64
3, 22560, Note_on_c, 1, 84, 95
3, 22560, Note_on_c, 1, 81, 95
3, 22678, Note_off_c, 1, 81, 64
3, 22678, Note_off_c, 1, 84, 64
3, 22680, Note_on_c, 1, 84, 95
3, 22680, Note_on_c, 1, 81, 95
3, 22859, Note_off_c, 1, 81, 64
3, 22859, Note_off_c, 1, 84, 64
3, 22860, Note_on_c, 1, 77, 95
3, 22919, Note_off_c, 1, 77, 64
3, 22920, Note_on_c, 1, 84, 95
3, 22920, Note_on_c, 1, 77, 95
3, 23038, Note_off_c, 1, 77, 64
3, 23038, Note_off_c, 1, 84, 64
3, 23160, Note_on_c, 1, 86, 95
3, 23160, Note_on_c, 1, 82, 95
3, 23219, Note_off_c, 1, 82, 64
3, 23219, Note_off_c, 1, 86, 64
3, 23280, Note_on_c, 1, 86, 95
3, 23280, Note_on_c, 1, 82, 95
3, 23339, Note_off_c, 1, 82, 64
3, 23339, Note_off_c, 1, 86, 64
3, 23460, Note_on_c, 1, 84, 95
3, 23460, Note_on_c, 1, 81, 95
3, 23579, Note_off_c, 1, 81, 64
3, 23579, Note_off_c, 1, 84, 64
3, 23640, Note_on_c, 1, 84, 95
3, 23640, Note_on_c, 1, 81, 95
3, 23878, Note_off_c, 1, 81, 64
3, 23878, Note_off_c, 1, 84, 64
3, 23940, Note_on_c, 1, 82, 95
3, 23940, Note_on_c, 1, 77, 95
3, 24235, Note_off_c, 1, 77, 64
3, 24235, Note_off_c, 1, 82, 64
3, 24240, Note_on_c, 1, 77, 95
3, 24240, Note_on_c, 1, 74, 95
3, 24475, Note_off_c, 1, 74, 64
3, 24475, Note_off_c, 1, 77, 64
3, 24480, Note_on_c, 1, 67, 95
3, 24539, Note_off_c, 1, 67, 64
3, 24540, Note_on_c, 1, 74, 95
3, 24658, Note_off_c, 1, 74, 64
3, 24660, Note_on_c, 1, 79, 95
3, 24779, Note_off_c, 1, 79, 64
3, 24780, Note_on_c, 1, 74, 95
3, 24898, Note_off_c, 1, 74, 64
3, 24900, Note_on_c, 1, 67, 95
3, 24959, Note_off_c, 1, 67, 64
3, 24960, Note_on_c, 1, 67, 95
3, 25195, Note_off_c, 1, 67, 64
3, 25200, Note_on_c, 1, 77, 95
3, 25200, Note_on_c, 1, 74, 95
3, 25200, Note_on_c, 1, 70, 95
3, 25259, Note_off_c, 1, 70, 64
3, 25259, Note_off_c, 1, 74, 64
3, 25259, Note_off_c, 1, 77, 64
3, 25260, Note_on_c, 1, 72, 95
3, 25319, Note_off_c, 1, 72, 64
3, 25320, Note_on_c, 1, 74, 95
3, 25379, Note_off_c, 1, 74, 64
3, 25380, Note_on_c, 1, 77, 95
3, 25439, Note_off_c, 1, 77, 64
3, 25440, Note_on_c, 1, 77, 95
3, 25440, Note_on_c, 1, 74, 95
3, 25440, Note_on_c, 1, 82, 95
3, 25499, Note_off_c, 1, 82, 64
3, 25499, Note_off_c, 1, 74, 64
3, 25499, Note_off_c, 1, 77, 64
3, 25860, Note_on_c, 1, 89, 95
3, 25860, Note_on_c, 1, 86, 95
3, 25979, Note_off_c, 1, 86, 64
3, 25979, Note_off_c, 1, 89, 64
3, 25980, Note_on_c, 1, 86, 95
3, 25980, Note_on_c, 1, 82, 95
3, 26156, Note_off_c, 1, 82, 64
3, 26156, Note_off_c, 1, 86, 64
3, 26160, Note_on_c, 1, 86, 95
3, 26160, Note_on_c, 1, 82, 95
3, 26219, Note_off_c, 1, 82, 64
3, 26219, Note_off_c, 1, 86, 64
3, 26220, Note_on_c, 1, 87, 95
3, 26220, Note_on_c, 1, 82, 95
3, 26338, Note_off_c, 1, 82, 64
3, 26338, Note_off_c, 1, 87, 64
3, 26340, Note_on_c, 1, 86, 95
3, 26340, Note_on_c, 1, 82, 95
3, 26459, Note_off_c, 1, 82, 64
3, 26459, Note_off_c, 1, 86, 64
3, 26580, Note_on_c, 1, 82, 95
3, 26580, Note_on_c, 1, 79, 95
3, 26699, Note_off_c, 1, 79, 64
3, 26699, Note_off_c, 1, 82, 64
3, 26700, Note_on_c, 1, 86, 95
3, 26700, Note_on_c, 1, 82, 95
3, 26759, Note_off_c, 1, 82, 64
3, 26759, Note_off_c, 1, 86, 64
3, 26880, Note_on_c, 1, 84, 95
3, 26880, Note_on_c, 1, 81, 95
3, 26998, Note_off_c, 1, 81, 64
3, 26998, Note_off_c, 1, 84, 64
3, 27120, Note_on_c, 1, 81, 95
3, 27120, Note_on_c, 1, 77, 95
3, 27238, Note_off_c, 1, 77, 64
3, 27238, Note_off_c, 1, 81, 64
3, 27240, Note_on_c, 1, 84, 95
3, 27240, Note_on_c, 1, 81, 95
3, 27358, Note_off_c, 1, 81, 64
3, 27358, Note_off_c, 1, 84, 64
3, 27540, Note_on_c, 1, 84, 95
3, 27540, Note_on_c, 1, 81, 95
3, 27659, Note_off_c, 1, 81, 64
3, 27659, Note_off_c, 1, 84, 64
3, 27780, Note_on_c, 1, 89, 95
3, 27780, Note_on_c, 1, 82, 95
3, 27958, Note_off_c, 1, 82, 64
3, 27958, Note_off_c, 1, 89, 64
3, 27960, Note_on_c, 1, 86, 95
3, 27960, Note_on_c, 1, 82, 95
3, 28078, Note_off_c, 1, 82, 64
3, 28078, Note_off_c, 1, 86, 64
3, 28080, Note_on_c, 1, 86, 95
3, 28080, Note_on_c, 1, 82, 95
3, 28139, Note_off_c, 1, 82, 64
3, 28139, Note_off_c, 1, 86, 64
3, 28140, Note_on_c, 1, 87, 95
3, 28140, Note_on_c, 1, 82, 95
3, 28258, Note_off_c, 1, 82, 64
3, 28258, Note_off_c, 1, 87, 64
3, 28260, Note_on_c, 1, 86, 95
3, 28260, Note_on_c, 1, 82, 95
3, 28379, Note_off_c, 1, 82, 64
3, 28379, Note_off_c, 1, 86, 64
3, 28500, Note_on_c, 1, 82, 95
3, 28500, Note_on_c, 1, 79, 95
3, 28619, Note_off_c, 1, 79, 64
3, 28619, Note_off_c, 1, 82, 64
3, 28680, Note_on_c, 1, 86, 95
3, 28680, Note_on_c, 1, 82, 95
3, 28739, Note_off_c, 1, 82, 64
3, 28739, Note_off_c, 1, 86, 64
3, 28800, Note_on_c, 1, 84, 95
3, 28800, Note_on_c, 1, 81, 95
3, 28918, Note_off_c, 1, 81, 64
3, 28918, Note_off_c, 1, 84, 64
3, 28980, Note_on_c, 1, 84, 95
3, 28980, Note_on_c, 1, 81, 95
3, 29099, Note_off_c, 1, 81, 64
3, 29099, Note_off_c, 1, 84, 64
3, 29700, Note_on_c, 1, 86, 95
3, 29700, Note_on_c, 1, 82, 95
3, 29819, Note_off_c, 1, 82, 64
3, 29819, Note_off_c, 1, 86, 64
3, 29820, Note_on_c, 1, 86, 95
3, 29820, Note_on_c, 1, 82, 95
3, 29996, Note_off_c, 1, 82, 64
3, 29996, Note_off_c, 1, 86, 64
3, 30000, Note_on_c, 1, 86, 95
3, 30000, Note_on_c, 1, 82, 95
3, 30059, Note_off_c, 1, 82, 64
3, 30059, Note_off_c, 1, 86, 64
3, 30060, Note_on_c, 1, 87, 95
3, 30060, Note_on_c, 1, 82, 95
3, 30178, Note_off_c, 1, 82, 64
3, 30178, Note_off_c, 1, 87, 64
3, 30180, Note_on_c, 1, 86, 95
3, 30180, Note_on_c, 1, 82, 95
3, 30299, Note_off_c, 1, 82, 64
3, 30299, Note_off_c, 1, 86, 64
3, 30420, Note_on_c, 1, 82, 95
3, 30420, Note_on_c, 1, 79, 95
3, 30539, Note_off_c, 1, 79, 64
3, 30539, Note_off_c, 1, 82, 64
3, 30660, Note_on_c, 1, 84, 95
3, 30660, Note_on_c, 1, 80, 95
3, 30779, Note_off_c, 1, 80, 64
3, 30779, Note_off_c, 1, 84, 64
3, 31020, Note_on_c, 1, 84, 95
3, 31020, Note_on_c, 1, 81, 95
3, 31196, Note_off_c, 1, 81, 64
3, 31196, Note_off_c, 1, 84, 64
3, 31200, Note_on_c, 1, 77, 95
3, 31200, Note_on_c, 1, 69, 95
3, 31318, Note_off_c, 1, 69, 64
3, 31318, Note_off_c, 1, 77, 64
3, 31320, Note_on_c, 1, 79, 95
3, 31320, Note_on_c, 1, 70, 95
3, 31438, Note_off_c, 1, 70, 64
3, 31438, Note_off_c, 1, 79, 64
3, 31440, Note_on_c, 1, 81, 95
3, 31440, Note_on_c, 1, 77, 95
3, 31558, Note_off_c, 1, 77, 64
3, 31558, Note_off_c, 1, 81, 64
3, 31560, Note_on_c, 1, 84, 95
3, 31560, Note_on_c, 1, 81, 95
3, 31678, Note_off_c, 1, 81, 64
3, 31678, Note_off_c, 1, 84, 64
3, 31680, Note_on_c, 1, 89, 95
3, 31680, Note_on_c, 1, 86, 95
3, 31915, Note_off_c, 1, 86, 64
3, 31915, Note_off_c, 1, 89, 64
3, 31920, Note_on_c, 1, 81, 95
3, 32038, Note_off_c, 1, 81, 64
3, 32040, Note_on_c, 1, 77, 95
3, 32158, Note_off_c, 1, 77, 64
3, 32160, Note_on_c, 1, 86, 95
3, 32160, Note_on_c, 1, 82, 95
3, 32395, Note_off_c, 1, 82, 64
3, 32395, Note_off_c, 1, 86, 64
3, 32400, Note_on_c, 1, 74, 95
3, 32518, Note_off_c, 1, 74, 64
3, 32520, Note_on_c, 1, 72, 95
3, 32638, Note_off_c, 1, 72, 64
3, 32640, Note_on_c, 1, 82, 95
3, 32640, Note_on_c, 1, 77, 95
3, 32875, Note_off_c, 1, 77, 64
3, 32875, Note_off_c, 1, 82, 64
3, 32880, Note_on_c, 1, 82, 95
3, 32880, Note_on_c, 1, 77, 95
3, 33115, Note_off_c, 1, 77, 64
3, 33115, Note_off_c, 1, 82, 64
3, 33120, Note_on_c, 1, 79, 95
3, 33120, Note_on_c, 1, 76, 95
3, 33296, Note_off_c, 1, 76, 64
3, 33296, Note_off_c, 1, 79, 64
3, 33300, Note_on_c, 1, 72, 95
3, 33359, Note_off_c, 1, 72, 64
3, 33360, Note_on_c, 1, 72, 95
3, 33419, Note_off_c, 1, 72, 64
3, 33420, Note_on_c, 1, 74, 95
3, 33479, Note_off_c, 1, 74, 64
3, 33480, Note_on_c, 1, 77, 95
3, 33539, Note_off_c, 1, 77, 64
3, 33540, Note_on_c, 1, 74, 95
3, 33599, Note_off_c, 1, 74, 64
3, 33600, Note_on_c, 1, 72, 95
3, 33600, Note_on_c, 1, 69, 95
3, 34306, Note_off_c, 1, 69, 64
3, 34306, Note_off_c, 1, 72, 64
3, 34320, Note_on_c, 1, 72, 95
3, 34320, Note_on_c, 1, 69, 95
3, 34379, Note_off_c, 1, 69, 64
3, 34379, Note_off_c, 1, 72, 64
3, 34560, Note_on_c, 1, 74, 95
3, 34560, Note_on_c, 1, 70, 95
3, 35398, Note_off_c, 1, 70, 64
3, 35398, Note_off_c, 1, 74, 64
3, 35400, Note_on_c, 1, 82, 95
3, 35400, Note_on_c, 1, 77, 95
3, 35518, Note_off_c, 1, 77, 64
3, 35518, Note_off_c, 1, 82, 64
3, 35760, Note_on_c, 1, 81, 95
3, 35760, Note_on_c, 1, 77, 95
3, 35995, Note_off_c, 1, 77, 64
3, 35995, Note_off_c, 1, 81, 64
3, 36240, Note_on_c, 1, 72, 95
3, 36240, Note_on_c, 1, 69, 95
3, 36299, Note_off_c, 1, 69, 64
3, 36299, Note_off_c, 1, 72, 64
3, 36480, Note_on_c, 1, 74, 95
3, 36480, Note_on_c, 1, 70, 95
3, 37421, Note_off_c, 1, 70, 64
3, 37421, Note_off_c, 1, 74, 64
3, 37440, Note_on_c, 1, 72, 95
3, 37440, Note_on_c, 1, 77, 95
3, 37499, Note_off_c, 1, 77, 64
3, 37499, Note_off_c, 1, 72, 64
3, 37680, Note_on_c, 1, 77, 95
3, 37680, Note_on_c, 1, 81, 95
3, 37798, Note_off_c, 1, 81, 64
3, 37798, Note_off_c, 1, 77, 64
3, 37860, Note_on_c, 1, 77, 95
3, 37860, Note_on_c, 1, 82, 95
3, 38038, Note_off_c, 1, 82, 64
3, 38038, Note_off_c, 1, 77, 64
3, 38040, Note_on_c, 1, 77, 95
3, 38040, Note_on_c, 1, 82, 95
3, 38158, Note_off_c, 1, 82, 64
3, 38158, Note_off_c, 1, 77, 64
3, 38160, Note_on_c, 1, 77, 95
3, 38160, Note_on_c, 1, 82, 95
3, 38278, Note_off_c, 1, 82, 64
3, 38278, Note_off_c, 1, 77, 64
3, 38340, Note_on_c, 1, 72, 95
3, 38340, Note_on_c, 1, 77, 95
3, 38576, Note_off_c, 1, 77, 64
3, 38576, Note_off_c, 1, 72, 64
3, 38580, Note_on_c, 1, 72, 95
3, 38580, Note_on_c, 1, 77, 95
3, 38639, Note_off_c, 1, 77, 64
3, 38639, Note_off_c, 1, 72, 64
3, 38640, Note_on_c, 1, 65, 95
3, 38699, Note_off_c, 1, 65, 64
3, 38700, Note_on_c, 1, 69, 95
3, 38759, Note_off_c, 1, 69, 64
3, 38760, Note_on_c, 1, 72, 95
3, 38878, Note_off_c, 1, 72, 64
3, 38880, Note_on_c, 1, 69, 95
3, 38939, Note_off_c, 1, 69, 64
3, 38940, Note_on_c, 1, 72, 95
3, 38999, Note_off_c, 1, 72, 64
3, 39000, Note_on_c, 1, 72, 95
3, 39059, Note_off_c, 1, 72, 64
3, 39060, Note_on_c, 1, 72, 95
3, 39060, Note_on_c, 1, 77, 95
3, 39179, Note_off_c, 1, 77, 64
3, 39179, Note_off_c, 1, 72, 64
3, 39180, Note_on_c, 1, 67, 95
3, 39239, Note_off_c, 1, 67, 64
3, 39240, Note_on_c, 1, 65, 95
3, 39358, Note_off_c, 1, 65, 64
3, 39360, Note_on_c, 1, 65, 95
3, 39360, Note_on_c, 1, 70, 95
3, 39360, Note_on_c, 1, 74, 95
3, 39536, Note_off_c, 1, 74, 64
3, 39536, Note_off_c, 1, 70, 64
3, 39536, Note_off_c, 1, 65, 64
3, 39540, Note_on_c, 1, 65, 95
3, 39540, Note_on_c, 1, 70, 95
3, 39540, Note_on_c, 1, 74, 95
3, 39776, Note_off_c, 1, 74, 64
3, 39776, Note_off_c, 1, 70, 64
3, 39776, Note_off_c, 1, 65, 64
3, 39780, Note_on_c, 1, 77, 95
3, 39839, Note_off_c, 1, 77, 64
3, 39840, Note_on_c, 1, 82, 95
3, 39840, Note_on_c, 1, 86, 95
3, 40075, Note_off_c, 1, 86, 64
3, 40075, Note_off_c, 1, 82, 64
3, 40080, Note_on_c, 1, 77, 95
3, 40080, Note_on_c, 1, 82, 95
3, 40315, Note_off_c, 1, 82, 64
3, 40315, Note_off_c, 1, 77, 64
3, 40320, Note_on_c, 1, 77, 95
3, 40320, Note_on_c, 1, 81, 95
3, 40555, Note_off_c, 1, 81, 64
3, 40555, Note_off_c, 1, 77, 64
3, 40560, Note_on_c, 1, 72, 95
3, 40560, Note_on_c, 1, 77, 95
3, 40736, Note_off_c, 1, 77, 64
3, 40736, Note_off_c, 1, 72, 64
3, 40740, Note_on_c, 1, 77, 95
3, 40740, Note_on_c, 1, 81, 95
3, 40976, Note_off_c, 1, 81, 64
3, 40976, Note_off_c, 1, 77, 64
3, 40980, Note_on_c, 1, 76, 95
3, 40980, Note_on_c, 1, 79, 95
3, 41099, Note_off_c, 1, 79, 64
3, 41099, Note_off_c, 1, 76, 64
3, 41100, Note_on_c, 1, 72, 95
3, 41159, Note_off_c, 1, 72, 64
3, 41160, Note_on_c, 1, 72, 95
3, 41160, Note_on_c, 1, 77, 95
3, 41278, Note_off_c, 1, 77, 64
3, 41278, Note_off_c, 1, 72, 64
3, 41280, Note_on_c, 1, 67, 95
3, 41339, Note_off_c, 1, 67, 64
3, 41340, Note_on_c, 1, 72, 95
3, 41399, Note_off_c, 1, 72, 64
3, 41400, Note_on_c, 1, 67, 95
3, 41459, Note_off_c, 1, 67, 64
3, 41460, Note_on_c, 1, 72, 95
3, 41460, Note_on_c, 1, 76, 95
3, 41460, Note_on_c, 1, 79, 95
3, 41579, Note_off_c, 1, 79, 64
3, 41579, Note_off_c, 1, 76, 64
3, 41579, Note_off_c, 1, 72, 64
3, 41580, Note_on_c, 1, 67, 95
3, 41639, Note_off_c, 1, 67, 64
3, 41640, Note_on_c, 1, 67, 95
3, 41640, Note_on_c, 1, 72, 95
3, 41640, Note_on_c, 1, 76, 95
3, 41758, Note_off_c, 1, 76, 64
3, 41758, Note_off_c, 1, 72, 64
3, 41758, Note_off_c, 1, 67, 64
3, 41760, Note_on_c, 1, 76, 95
3, 41760, Note_on_c, 1, 79, 95
3, 41936, Note_off_c, 1, 79, 64
3, 41936, Note_off_c, 1, 76, 64
3, 41940, Note_on_c, 1, 79, 95
3, 41999, Note_off_c, 1, 79, 64
3, 42000, Note_on_c, 1, 74, 95
3, 42000, Note_on_c, 1, 79, 95
3, 42059, Note_off_c, 1, 79, 64
3, 42059, Note_off_c, 1, 74, 64
3, 42060, Note_on_c, 1, 76, 95
3, 42178, Note_off_c, 1, 76, 64
3, 42180, Note_on_c, 1, 86, 95
3, 42180, Note_on_c, 1, 81, 95
3, 42299, Note_off_c, 1, 81, 64
3, 42299, Note_off_c, 1, 86, 64
3, 42300, Note_on_c, 1, 77, 95
3, 42359, Note_off_c, 1, 77, 64
3, 42360, Note_on_c, 1, 81, 95
3, 42419, Note_off_c, 1, 81, 64
3, 42420, Note_on_c, 1, 77, 95
3, 42420, Note_on_c, 1, 81, 95
3, 42539, Note_off_c, 1, 81, 64
3, 42539, Note_off_c, 1, 77, 64
3, 42600, Note_on_c, 1, 81, 95
3, 42718, Note_off_c, 1, 81, 64
3, 42720, Note_on_c, 1, 77, 95
3, 42779, Note_off_c, 1, 77, 64
3, 42780, Note_on_c, 1, 69, 95
3, 42839, Note_off_c, 1, 69, 64
3, 42840, Note_on_c, 1, 74, 95
3, 42899, Note_off_c, 1, 74, 64
3, 42900, Note_on_c, 1, 74, 95
3, 42900, Note_on_c, 1, 77, 95
3, 43019, Note_off_c, 1, 77, 64
3, 43019, Note_off_c, 1, 74, 64
3, 43020, Note_on_c, 1, 74, 95
3, 43079, Note_off_c, 1, 74, 64
3, 43080, Note_on_c, 1, 74, 95
3, 43080, Note_on_c, 1, 77, 95
3, 43139, Note_off_c, 1, 77, 64
3, 43139, Note_off_c, 1, 74, 64
3, 43200, Note_on_c, 1, 76, 95
3, 43200, Note_on_c, 1, 81, 95
3, 43259, Note_off_c, 1, 81, 64
3, 43259, Note_off_c, 1, 76, 64
3, 43260, Note_on_c, 1, 76, 95
3, 43260, Note_on_c, 1, 81, 95
3, 43436, Note_off_c, 1, 81, 64
3, 43436, Note_off_c, 1, 76, 64
3, 43440, Note_on_c, 1, 81, 95
3, 43499, Note_off_c, 1, 81, 64
3, 43620, Note_on_c, 1, 77, 95
3, 43620, Note_on_c, 1, 82, 95
3, 43739, Note_off_c, 1, 82, 64
3, 43739, Note_off_c, 1, 77, 64
3, 43740, Note_on_c, 1, 74, 95
3, 43740, Note_on_c, 1, 77, 95
3, 43858, Note_off_c, 1, 77, 64
3, 43858, Note_off_c, 1, 74, 64
3, 43860, Note_on_c, 1, 74, 95
3, 43860, Note_on_c, 1, 77, 95
3, 44038, Note_off_c, 1, 77, 64
3, 44038, Note_off_c, 1, 74, 64
3, 44160, Note_on_c, 1, 74, 95
3, 44160, Note_on_c, 1, 77, 95
3, 44336, Note_off_c, 1, 77, 64
3, 44336, Note_off_c, 1, 74, 64
3, 44340, Note_on_c, 1, 67, 95
3, 44399, Note_off_c, 1, 67, 64
3, 44400, Note_on_c, 1, 70, 95
3, 44400, Note_on_c, 1, 74, 95
3, 44459, Note_off_c, 1, 74, 64
3, 44459, Note_off_c, 1, 70, 64
3, 44460, Note_on_c, 1, 70, 95
3, 44460, Note_on_c, 1, 74, 95
3, 44578, Note_off_c, 1, 74, 64
3, 44578, Note_off_c, 1, 70, 64
3, 44580, Note_on_c, 1, 70, 95
3, 44580, Note_on_c, 1, 74, 95
3, 44699, Note_off_c, 1, 74, 64
3, 44699, Note_off_c, 1, 70, 64
3, 44700, Note_on_c, 1, 70, 95
3, 44700, Note_on_c, 1, 74, 95
3, 44818, Note_off_c, 1, 74, 64
3, 44818, Note_off_c, 1, 70, 64
3, 44820, Note_on_c, 1, 70, 95
3, 44820, Note_on_c, 1, 74, 95
3, 44939, Note_off_c, 1, 74, 64
3, 44939, Note_off_c, 1, 70, 64
3, 44940, Note_on_c, 1, 70, 95
3, 44940, Note_on_c, 1, 74, 95
3, 45058, Note_off_c, 1, 74, 64
3, 45058, Note_off_c, 1, 70, 64
3, 45060, Note_on_c, 1, 70, 95
3, 45060, Note_on_c, 1, 74, 95
3, 45119, Note_off_c, 1, 74, 64
3, 45119, Note_off_c, 1, 70, 64
3, 45120, Note_on_c, 1, 72, 95
3, 45120, Note_on_c, 1, 77, 95
3, 45355, Note_off_c, 1, 77, 64
3, 45355, Note_off_c, 1, 72, 64
3, 45360, Note_on_c, 1, 77, 95
3, 45360, Note_on_c, 1, 81, 95
3, 45595, Note_off_c, 1, 81, 64
3, 45595, Note_off_c, 1, 77, 64
3, 45600, Note_on_c, 1, 77, 95
3, 45600, Note_on_c, 1, 82, 95
3, 45659, Note_off_c, 1, 82, 64
3, 45659, Note_off_c, 1, 77, 64
3, 45660, Note_on_c, 1, 77, 95
3, 45660, Note_on_c, 1, 82, 95
3, 45836, Note_off_c, 1, 82, 64
3, 45836, Note_off_c, 1, 77, 64
3, 45840, Note_on_c, 1, 77, 95
3, 45840, Note_on_c, 1, 82, 95
3, 45958, Note_off_c, 1, 82, 64
3, 45958, Note_off_c, 1, 77, 64
3, 46080, Note_on_c, 1, 72, 95
3, 46080, Note_on_c, 1, 77, 95
3, 46198, Note_off_c, 1, 77, 64
3, 46198, Note_off_c, 1, 72, 64
3, 46200, Note_on_c, 1, 72, 95
3, 46200, Note_on_c, 1, 77, 95
3, 46259, Note_off_c, 1, 77, 64
3, 46259, Note_off_c, 1, 72, 64
3, 46260, Note_on_c, 1, 72, 95
3, 46319, Note_off_c, 1, 72, 64
3, 46320, Note_on_c, 1, 65, 95
3, 46379, Note_off_c, 1, 65, 64
3, 46380, Note_on_c, 1, 69, 95
3, 46439, Note_off_c, 1, 69, 64
3, 46440, Note_on_c, 1, 72, 95
3, 46558, Note_off_c, 1, 72, 64
3, 46560, Note_on_c, 1, 69, 95
3, 46619, Note_off_c, 1, 69, 64
3, 46620, Note_on_c, 1, 70, 95
3, 46679, Note_off_c, 1, 70, 64
3, 46680, Note_on_c, 1, 72, 95
3, 46739, Note_off_c, 1, 72, 64
3, 46740, Note_on_c, 1, 72, 95
3, 46740, Note_on_c, 1, 77, 95
3, 46859, Note_off_c, 1, 77, 64
3, 46859, Note_off_c, 1, 72, 64
3, 46860, Note_on_c, 1, 67, 95
3, 46919, Note_off_c, 1, 67, 64
3, 46920, Note_on_c, 1, 65, 95
3, 47038, Note_off_c, 1, 65, 64
3, 47040, Note_on_c, 1, 65, 95
3, 47040, Note_on_c, 1, 70, 95
3, 47040, Note_on_c, 1, 74, 95
3, 47216, Note_off_c, 1, 74, 64
3, 47216, Note_off_c, 1, 70, 64
3, 47216, Note_off_c, 1, 65, 64
3, 47220, Note_on_c, 1, 65, 95
3, 47220, Note_on_c, 1, 70, 95
3, 47220, Note_on_c, 1, 74, 95
3, 47456, Note_off_c, 1, 74, 64
3, 47456, Note_off_c, 1, 70, 64
3, 47456, Note_off_c, 1, 65, 64
3, 47460, Note_on_c, 1, 77, 95
3, 47519, Note_off_c, 1, 77, 64
3, 47520, Note_on_c, 1, 82, 95
3, 47520, Note_on_c, 1, 86, 95
3, 47638, Note_off_c, 1, 86, 64
3, 47638, Note_off_c, 1, 82, 64
3, 47700, Note_on_c, 1, 77, 95
3, 47700, Note_on_c, 1, 82, 95
3, 47819, Note_off_c, 1, 82, 64
3, 47819, Note_off_c, 1, 77, 64
3, 47940, Note_on_c, 1, 81, 95
3, 47940, Note_on_c, 1, 77, 95
3, 48235, Note_off_c, 1, 77, 64
3, 48235, Note_off_c, 1, 81, 64
3, 48240, Note_on_c, 1, 72, 95
3, 48240, Note_on_c, 1, 77, 95
3, 48416, Note_off_c, 1, 77, 64
3, 48416, Note_off_c, 1, 72, 64
3, 48420, Note_on_c, 1, 72, 95
3, 48479, Note_off_c, 1, 72, 64
3, 48480, Note_on_c, 1, 77, 95
3, 48480, Note_on_c, 1, 79, 95
3, 48539, Note_off_c, 1, 79, 64
3, 48539, Note_off_c, 1, 77, 64
3, 48540, Note_on_c, 1, 77, 95
3, 48540, Note_on_c, 1, 81, 95
3, 48599, Note_off_c, 1, 81, 64
3, 48599, Note_off_c, 1, 77, 64
3, 48600, Note_on_c, 1, 72, 95
3, 48659, Note_off_c, 1, 72, 64
3, 48660, Note_on_c, 1, 77, 95
3, 48660, Note_on_c, 1, 81, 95
3, 48779, Note_off_c, 1, 81, 64
3, 48779, Note_off_c, 1, 77, 64
3, 48780, Note_on_c, 1, 70, 95
3, 48780, Note_on_c, 1, 79, 95
3, 48839, Note_off_c, 1, 79, 64
3, 48839, Note_off_c, 1, 70, 64
3, 48840, Note_on_c, 1, 69, 95
3, 48840, Note_on_c, 1, 77, 95
3, 48958, Note_off_c, 1, 77, 64
3, 48958, Note_off_c, 1, 69, 64
3, 48960, Note_on_c, 1, 67, 95
3, 49019, Note_off_c, 1, 67, 64
3, 49020, Note_on_c, 1, 72, 95
3, 49079, Note_off_c, 1, 72, 64
3, 49080, Note_on_c, 1, 76, 95
3, 49139, Note_off_c, 1, 76, 64
3, 49140, Note_on_c, 1, 79, 95
3, 49199, Note_off_c, 1, 79, 64
3, 49200, Note_on_c, 1, 76, 95
3, 49200, Note_on_c, 1, 79, 95
3, 49259, Note_off_c, 1, 79, 64
3, 49259, Note_off_c, 1, 76, 64
3, 49260, Note_on_c, 1, 76, 95
3, 49260, Note_on_c, 1, 79, 95
3, 49378, Note_off_c, 1, 79, 64
3, 49378, Note_off_c, 1, 76, 64
3, 49380, Note_on_c, 1, 76, 95
3, 49380, Note_on_c, 1, 79, 95
3, 49499, Note_off_c, 1, 79, 64
3, 49499, Note_off_c, 1, 76, 64
3, 49500, Note_on_c, 1, 79, 95
3, 49559, Note_off_c, 1, 79, 64
3, 49560, Note_on_c, 1, 72, 95
3, 49619, Note_off_c, 1, 72, 64
3, 49620, Note_on_c, 1, 74, 95
3, 49620, Note_on_c, 1, 79, 95
3, 49739, Note_off_c, 1, 79, 64
3, 49739, Note_off_c, 1, 74, 64
3, 49740, Note_on_c, 1, 76, 95
3, 49740, Note_on_c, 1, 79, 95
3, 49916, Note_off_c, 1, 79, 64
3, 49916, Note_off_c, 1, 76, 64
3, 49920, Note_on_c, 1, 81, 95
3, 49920, Note_on_c, 1, 86, 95
3, 49979, Note_off_c, 1, 86, 64
3, 49979, Note_off_c, 1, 81, 64
3, 49980, Note_on_c, 1, 77, 95
3, 49980, Note_on_c, 1, 81, 95
3, 50156, Note_off_c, 1, 81, 64
3, 50156, Note_off_c, 1, 77, 64
3, 50160, Note_on_c, 1, 77, 95
3, 50160, Note_on_c, 1, 81, 95
3, 50219, Note_off_c, 1, 81, 64
3, 50219, Note_off_c, 1, 77, 64
3, 50220, Note_on_c, 1, 74, 95
3, 50279, Note_off_c, 1, 74, 64
3, 50280, Note_on_c, 1, 69, 95
3, 50398, Note_off_c, 1, 69, 64
3, 50400, Note_on_c, 1, 65, 95
3, 50459, Note_off_c, 1, 65, 64
3, 50460, Note_on_c, 1, 69, 95
3, 50519, Note_off_c, 1, 69, 64
3, 50520, Note_on_c, 1, 74, 95
3, 50579, Note_off_c, 1, 74, 64
3, 50580, Note_on_c, 1, 74, 95
3, 50580, Note_on_c, 1, 77, 95
3, 50699, Note_off_c, 1, 77, 64
3, 50699, Note_off_c, 1, 74, 64
3, 50700, Note_on_c, 1, 72, 95
3, 50759, Note_off_c, 1, 72, 64
3, 50760, Note_on_c, 1, 74, 95
3, 50760, Note_on_c, 1, 77, 95
3, 50819, Note_off_c, 1, 77, 64
3, 50819, Note_off_c, 1, 74, 64
3, 50880, Note_on_c, 1, 76, 95
3, 50880, Note_on_c, 1, 81, 95
3, 51056, Note_off_c, 1, 81, 64
3, 51056, Note_off_c, 1, 76, 64
3, 51060, Note_on_c, 1, 76, 95
3, 51060, Note_on_c, 1, 81, 95
3, 51238, Note_off_c, 1, 81, 64
3, 51238, Note_off_c, 1, 76, 64
3, 51240, Note_on_c, 1, 72, 95
3, 51240, Note_on_c, 1, 76, 95
3, 51358, Note_off_c, 1, 76, 64
3, 51358, Note_off_c, 1, 72, 64
3, 51360, Note_on_c, 1, 77, 95
3, 51360, Note_on_c, 1, 82, 95
3, 51536, Note_off_c, 1, 82, 64
3, 51536, Note_off_c, 1, 77, 64
3, 51540, Note_on_c, 1, 74, 95
3, 51540, Note_on_c, 1, 77, 95
3, 51776, Note_off_c, 1, 77, 64
3, 51776, Note_off_c, 1, 74, 64
3, 51780, Note_on_c, 1, 74, 95
3, 51780, Note_on_c, 1, 77, 95
3, 51899, Note_off_c, 1, 77, 64
3, 51899, Note_off_c, 1, 74, 64
3, 51900, Note_on_c, 1, 74, 95
3, 51900, Note_on_c, 1, 77, 95
3, 52018, Note_off_c, 1, 77, 64
3, 52018, Note_off_c, 1, 74, 64
3, 52020, Note_on_c, 1, 74, 95
3, 52020, Note_on_c, 1, 77, 95
3, 52079, Note_off_c, 1, 77, 64
3, 52079, Note_off_c, 1, 74, 64
3, 52080, Note_on_c, 1, 74, 95
3, 52080, Note_on_c, 1, 77, 95
3, 52256, Note_off_c, 1, 77, 64
3, 52256, Note_off_c, 1, 74, 64
3, 52260, Note_on_c, 1, 74, 95
3, 52260, Note_on_c, 1, 77, 95
3, 52319, Note_off_c, 1, 77, 64
3, 52319, Note_off_c, 1, 74, 64
3, 52320, Note_on_c, 1, 74, 95
3, 52320, Note_on_c, 1, 77, 95
3, 52555, Note_off_c, 1, 77, 64
3, 52555, Note_off_c, 1, 74, 64
3, 52560, Note_on_c, 1, 67, 95
3, 52619, Note_off_c, 1, 67, 64
3, 52620, Note_on_c, 1, 68, 95
3, 52796, Note_off_c, 1, 68, 64
3, 52800, Note_on_c, 1, 69, 95
3, 52918, Note_off_c, 1, 69, 64
3, 52920, Note_on_c, 1, 72, 95
3, 52920, Note_on_c, 1, 76, 95
3, 52979, Note_off_c, 1, 76, 64
3, 52979, Note_off_c, 1, 72, 64
3, 53040, Note_on_c, 1, 76, 95
3, 53040, Note_on_c, 1, 81, 95
3, 53158, Note_off_c, 1, 81, 64
3, 53158, Note_off_c, 1, 76, 64
3, 53220, Note_on_c, 1, 81, 95
3, 53220, Note_on_c, 1, 86, 95
3, 53339, Note_off_c, 1, 86, 64
3, 53339, Note_off_c, 1, 81, 64
3, 53520, Note_on_c, 1, 81, 95
3, 53520, Note_on_c, 1, 86, 95
3, 53638, Note_off_c, 1, 86, 64
3, 53638, Note_off_c, 1, 81, 64
3, 53760, Note_on_c, 1, 82, 95
3, 53760, Note_on_c, 1, 86, 95
3, 53819, Note_off_c, 1, 86, 64
3, 53819, Note_off_c, 1, 82, 64
3, 53880, Note_on_c, 1, 82, 95
3, 53880, Note_on_c, 1, 86, 95
3, 54118, Note_off_c, 1, 86, 64
3, 54118, Note_off_c, 1, 82, 64
3, 54120, Note_on_c, 1, 77, 95
3, 54120, Note_on_c, 1, 82, 95
3, 54179, Note_off_c, 1, 82, 64
3, 54179, Note_off_c, 1, 77, 64
3, 54240, Note_on_c, 1, 81, 95
3, 54240, Note_on_c, 1, 84, 95
3, 54299, Note_off_c, 1, 84, 64
3, 54299, Note_off_c, 1, 81, 64
3, 54420, Note_on_c, 1, 81, 95
3, 54420, Note_on_c, 1, 84, 95
3, 54598, Note_off_c, 1, 84, 64
3, 54598, Note_off_c, 1, 81, 64
3, 54660, Note_on_c, 1, 82, 95
3, 54660, Note_on_c, 1, 86, 95
3, 54779, Note_off_c, 1, 86, 64
3, 54779, Note_off_c, 1, 82, 64
3, 54840, Note_on_c, 1, 82, 95
3, 54840, Note_on_c, 1, 86, 95
3, 55078, Note_off_c, 1, 86, 64
3, 55078, Note_off_c, 1, 82, 64
3, 55080, Note_on_c, 1, 77, 95
3, 55080, Note_on_c, 1, 82, 95
3, 55139, Note_off_c, 1, 82, 64
3, 55139, Note_off_c, 1, 77, 64
3, 55200, Note_on_c, 1, 81, 95
3, 55200, Note_on_c, 1, 84, 95
3, 55318, Note_off_c, 1, 84, 64
3, 55318, Note_off_c, 1, 81, 64
3, 55320, Note_on_c, 1, 81, 95
3, 55320, Note_on_c, 1, 84, 95
3, 55499, Note_off_c, 1, 84, 64
3, 55499, Note_off_c, 1, 81, 64
3, 55500, Note_on_c, 1, 77, 95
3, 55559, Note_off_c, 1, 77, 64
3, 55560, Note_on_c, 1, 77, 95
3, 55560, Note_on_c, 1, 84, 95
3, 55678, Note_off_c, 1, 84, 64
3, 55678, Note_off_c, 1, 77, 64
3, 55800, Note_on_c, 1, 82, 95
3, 55800, Note_on_c, 1, 86, 95
3, 55859, Note_off_c, 1, 86, 64
3, 55859, Note_off_c, 1, 82, 64
3, 55920, Note_on_c, 1, 82, 95
3, 55920, Note_on_c, 1, 86, 95
3, 55979, Note_off_c, 1, 86, 64
3, 55979, Note_off_c, 1, 82, 64
3, 56100, Note_on_c, 1, 81, 95
3, 56100, Note_on_c, 1, 84, 95
3, 56219, Note_off_c, 1, 84, 64
3, 56219, Note_off_c, 1, 81, 64
3, 56280, Note_on_c, 1, 81, 95
3, 56280, Note_on_c, 1, 84, 95
3, 56518, Note_off_c, 1, 84, 64
3, 56518, Note_off_c, 1, 81, 64
3, 56580, Note_on_c, 1, 77, 95
3, 56580, Note_on_c, 1, 82, 95
3, 56875, Note_off_c, 1, 82, 64
3, 56875, Note_off_c, 1, 77, 64
3, 56880, Note_on_c, 1, 74, 95
3, 56880, Note_on_c, 1, 77, 95
3, 57115, Note_off_c, 1, 77, 64
3, 57115, Note_off_c, 1, 74, 64
3, 57120, Note_on_c, 1, 67, 95
3, 57179, Note_off_c, 1, 67, 64
3, 57180, Note_on_c, 1, 74, 95
3, 57298, Note_off_c, 1, 74, 64
3, 57300, Note_on_c, 1, 79, 95
3, 57419, Note_off_c, 1, 79, 64
3, 57420, Note_on_c, 1, 74, 95
3, 57538, Note_off_c, 1, 74, 64
3, 57540, Note_on_c, 1, 67, 95
3, 57599, Note_off_c, 1, 67, 64
3, 57600, Note_on_c, 1, 67, 95
3, 57835, Note_off_c, 1, 67, 64
3, 57840, Note_on_c, 1, 70, 95
3, 57840, Note_on_c, 1, 74, 95
3, 57840, Note_on_c, 1, 77, 95
3, 57899, Note_off_c, 1, 77, 64
3, 57899, Note_off_c, 1, 74, 64
3, 57899, Note_off_c, 1, 70, 64
3, 57900, Note_on_c, 1, 72, 95
3, 57959, Note_off_c, 1, 72, 64
3, 57960, Note_on_c, 1, 74, 95
3, 58019, Note_off_c, 1, 74, 64
3, 58020, Note_on_c, 1, 77, 95
3, 58079, Note_off_c, 1, 77, 64
3, 58080, Note_on_c, 1, 82, 95
3, 58080, Note_on_c, 1, 74, 95
3, 58080, Note_on_c, 1, 77, 95
3, 58139, Note_off_c, 1, 77, 64
3, 58139, Note_off_c, 1, 74, 64
3, 58139, Note_off_c, 1, 82, 64
3, 58500, Note_on_c, 1, 86, 95
3, 58500, Note_on_c, 1, 89, 95
3, 58619, Note_off_c, 1, 89, 64
3, 58619, Note_off_c, 1, 86, 64
3, 58620, Note_on_c, 1, 82, 95
3, 58620, Note_on_c, 1, 86, 95
3, 58796, Note_off_c, 1, 86, 64
3, 58796, Note_off_c, 1, 82, 64
3, 58800, Note_on_c, 1, 82, 95
3, 58800, Note_on_c, 1, 86, 95
3, 58859, Note_off_c, 1, 86, 64
3, 58859, Note_off_c, 1, 82, 64
3, 58860, Note_on_c, 1, 82, 95
3, 58860, Note_on_c, 1, 87, 95
3, 58978, Note_off_c, 1, 87, 64
3, 58978, Note_off_c, 1, 82, 64
3, 58980, Note_on_c, 1, 82, 95
3, 58980, Note_on_c, 1, 86, 95
3, 59099, Note_off_c, 1, 86, 64
3, 59099, Note_off_c, 1, 82, 64
3, 59220, Note_on_c, 1, 79, 95
3, 59220, Note_on_c, 1, 82, 95
3, 59339, Note_off_c, 1, 82, 64
3, 59339, Note_off_c, 1, 79, 64
3, 59340, Note_on_c, 1, 82, 95
3, 59340, Note_on_c, 1, 86, 95
3, 59399, Note_off_c, 1, 86, 64
3, 59399, Note_off_c, 1, 82, 64
3, 59520, Note_on_c, 1, 81, 95
3, 59520, Note_on_c, 1, 84, 95
3, 59638, Note_off_c, 1, 84, 64
3, 59638, Note_off_c, 1, 81, 64
3, 59760, Note_on_c, 1, 77, 95
3, 59760, Note_on_c, 1, 81, 95
3, 59878, Note_off_c, 1, 81, 64
3, 59878, Note_off_c, 1, 77, 64
3, 59880, Note_on_c, 1, 81, 95
3, 59880, Note_on_c, 1, 84, 95
3, 59998, Note_off_c, 1, 84, 64
3, 59998, Note_off_c, 1, 81, 64
3, 60180, Note_on_c, 1, 81, 95
3, 60180, Note_on_c, 1, 84, 95
3, 60299, Note_off_c, 1, 84, 64
3, 60299, Note_off_c, 1, 81, 64
3, 60420, Note_on_c, 1, 82, 95
3, 60420, Note_on_c, 1, 89, 95
3, 60598, Note_off_c, 1, 89, 64
3, 60598, Note_off_c, 1, 82, 64
3, 60600, Note_on_c, 1, 82, 95
3, 60600, Note_on_c, 1, 86, 95
3, 60718, Note_off_c, 1, 86, 64
3, 60718, Note_off_c, 1, 82, 64
3, 60720, Note_on_c, 1, 82, 95
3, 60720, Note_on_c, 1, 86, 95
3, 60779, Note_off_c, 1, 86, 64
3, 60779, Note_off_c, 1, 82, 64
3, 60780, Note_on_c, 1, 82, 95
3, 60780, Note_on_c, 1, 87, 95
3, 60898, Note_off_c, 1, 87, 64
3, 60898, Note_off_c, 1, 82, 64
3, 60900, Note_on_c, 1, 82, 95
3, 60900, Note_on_c, 1, 86, 95
3, 61019, Note_off_c, 1, 86, 64
3, 61019, Note_off_c, 1, 82, 64
3, 61140, Note_on_c, 1, 79, 95
3, 61140, Note_on_c, 1, 82, 95
3, 61259, Note_off_c, 1, 82, 64
3, 61259, Note_off_c, 1, 79, 64
3, 61320, Note_on_c, 1, 82, 95
3, 61320, Note_on_c, 1, 86, 95
3, 61379, Note_off_c, 1, 86, 64
3, 61379, Note_off_c, 1, 82, 64
3, 61440, Note_on_c, 1, 81, 95
3, 61440, Note_on_c, 1, 84, 95
3, 61558, Note_off_c, 1, 84, 64
3, 61558, Note_off_c, 1, 81, 64
3, 61620, Note_on_c, 1, 81, 95
3, 61620, Note_on_c, 1, 84, 95
3, 61739, Note_off_c, 1, 84, 64
3, 61739, Note_off_c, 1, 81, 64
3, 62340, Note_on_c, 1, 82, 95
3, 62340, Note_on_c, 1, 86, 95
3, 62459, Note_off_c, 1, 86, 64
3, 62459, Note_off_c, 1, 82, 64
3, 62460, Note_on_c, 1, 82, 95
3, 62460, Note_on_c, 1, 86, 95
3, 62636, Note_off_c, 1, 86, 64
3, 62636, Note_off_c, 1, 82, 64
3, 62640, Note_on_c, 1, 82, 95
3, 62640, Note_on_c, 1, 86, 95
3, 62699, Note_off_c, 1, 86, 64
3, 62699, Note_off_c, 1, 82, 64
3, 62700, Note_on_c, 1, 82, 95
3, 62700, Note_on_c, 1, 87, 95
3, 62818, Note_off_c, 1, 87, 64
3, 62818, Note_off_c, 1, 82, 64
3, 62820, Note_on_c, 1, 82, 95
3, 62820, Note_on_c, 1, 86, 95
3, 62939, Note_off_c, 1, 86, 64
3, 62939, Note_off_c, 1, 82, 64
3, 63060, Note_on_c, 1, 79, 95
3, 63060, Note_on_c, 1, 82, 95
3, 63179, Note_off_c, 1, 82, 64
3, 63179, Note_off_c, 1, 79, 64
3, 63300, Note_on_c, 1, 80, 95
3, 63300, Note_on_c, 1, 84, 95
3, 63419, Note_off_c, 1, 84, 64
3, 63419, Note_off_c, 1, 80, 64
3, 63660, Note_on_c, 1, 81, 95
3, 63660, Note_on_c, 1, 84, 95
3, 63836, Note_off_c, 1, 84, 64
3, 63836, Note_off_c, 1, 81, 64
3, 63840, Note_on_c, 1, 69, 95
3, 63840, Note_on_c, 1, 77, 95
3, 63958, Note_off_c, 1, 77, 64
3, 63958, Note_off_c, 1, 69, 64
3, 63960, Note_on_c, 1, 70, 95
3, 63960, Note_on_c, 1, 79, 95
3, 64078, Note_off_c, 1, 79, 64
3, 64078, Note_off_c, 1, 70, 64
3, 64080, Note_on_c, 1, 77, 95
3, 64080, Note_on_c, 1, 81, 95
3, 64198, Note_off_c, 1, 81, 64
3, 64198, Note_off_c, 1, 77, 64
3, 64200, Note_on_c, 1, 81, 95
3, 64200, Note_on_c, 1, 84, 95
3, 64318, Note_off_c, 1, 84, 64
3, 64318, Note_off_c, 1, 81, 64
3, 64320, Note_on_c, 1, 86, 95
3, 64320, Note_on_c, 1, 89, 95
3, 64555, Note_off_c, 1, 89, 64
3, 64555, Note_off_c, 1, 86, 64
3, 64560, Note_on_c, 1, 81, 95
3, 64678, Note_off_c, 1, 81, 64
3, 64680, Note_on_c, 1, 77, 95
3, 64798, Note_off_c, 1, 77, 64
3, 64800, Note_on_c, 1, 82, 95
3, 64800, Note_on_c, 1, 86, 95
3, 65035, Note_off_c, 1, 86, 64
3, 65035, Note_off_c, 1, 82, 64
3, 65040, Note_on_c, 1, 74, 95
3, 65158, Note_off_c, 1, 74, 64
3, 65160, Note_on_c, 1, 72, 95
3, 65278, Note_off_c, 1, 72, 64
3, 65280, Note_on_c, 1, 82, 95
3, 65280, Note_on_c, 1, 77, 95
3, 65515, Note_off_c, 1, 77, 64
3, 65515, Note_off_c, 1, 82, 64
3, 65520, Note_on_c, 1, 82, 95
3, 65520, Note_on_c, 1, 77, 95
3, 65755, Note_off_c, 1, 77, 64
3, 65755, Note_off_c, 1, 82, 64
3, 65760, Note_on_c, 1, 79, 95
3, 65760, Note_on_c, 1, 76, 95
3, 65995, Note_off_c, 1, 76, 64
3, 65995, Note_off_c, 1, 79, 64
3, 66180, Note_on_c, 1, 89, 95
3, 66180, Note_on_c, 1, 86, 95
3, 66299, Note_off_c, 1, 86, 64
3, 66299, Note_off_c, 1, 89, 64
3, 66300, Note_on_c, 1, 86, 95
3, 66300, Note_on_c, 1, 82, 95
3, 66476, Note_off_c, 1, 82, 64
3, 66476, Note_off_c, 1, 86, 64
3, 66480, Note_on_c, 1, 86, 95
3, 66480, Note_on_c, 1, 82, 95
3, 66539, Note_off_c, 1, 82, 64
3, 66539, Note_off_c, 1, 86, 64
3, 66540, Note_on_c, 1, 87, 95
3, 66540, Note_on_c, 1, 82, 95
3, 66658, Note_off_c, 1, 82, 64
3, 66658, Note_off_c, 1, 87, 64
3, 66660, Note_on_c, 1, 86, 95
3, 66660, Note_on_c, 1, 82, 95
3, 66779, Note_off_c, 1, 82, 64
3, 66779, Note_off_c, 1, 86, 64
3, 66900, Note_on_c, 1, 82, 95
3, 66900, Note_on_c, 1, 79, 95
3, 67019, Note_off_c, 1, 79, 64
3, 67019, Note_off_c, 1, 82, 64
3, 67020, Note_on_c, 1, 86, 95
3, 67020, Note_on_c, 1, 82, 95
3, 67079, Note_off_c, 1, 82, 64
3, 67079, Note_off_c, 1, 86, 64
3, 67200, Note_on_c, 1, 84, 95
3, 67200, Note_on_c, 1, 81, 95
3, 67318, Note_off_c, 1, 81, 64
3, 67318, Note_off_c, 1, 84, 64
3, 67440, Note_on_c, 1, 81, 95
3, 67440, Note_on_c, 1, 77, 95
3, 67558, Note_off_c, 1, 77, 64
3, 67558, Note_off_c, 1, 81, 64
3, 67560, Note_on_c, 1, 84, 95
3, 67560, Note_on_c, 1, 81, 95
3, 67678, Note_off_c, 1, 81, 64
3, 67678, Note_off_c, 1, 84, 64
3, 67860, Note_on_c, 1, 84, 95
3, 67860, Note_on_c, 1, 81, 95
3, 67979, Note_off_c, 1, 81, 64
3, 67979, Note_off_c, 1, 84, 64
3, 68100, Note_on_c, 1, 89, 95
3, 68100, Note_on_c, 1, 82, 95
3, 68278, Note_off_c, 1, 82, 64
3, 68278, Note_off_c, 1, 89, 64
3, 68280, Note_on_c, 1, 86, 95
3, 68280, Note_on_c, 1, 82, 95
3, 68398, Note_off_c, 1, 82, 64
3, 68398, Note_off_c, 1, 86, 64
3, 68400, Note_on_c, 1, 86, 95
3, 68400, Note_on_c, 1, 82, 95
3, 68459, Note_off_c, 1, 82, 64
3, 68459, Note_off_c, 1, 86, 64
3, 68460, Note_on_c, 1, 87, 95
3, 68460, Note_on_c, 1, 82, 95
3, 68578, Note_off_c, 1, 82, 64
3, 68578, Note_off_c, 1, 87, 64
3, 68580, Note_on_c, 1, 86, 95
3, 68580, Note_on_c, 1, 82, 95
3, 68699, Note_off_c, 1, 82, 64
3, 68699, Note_off_c, 1, 86, 64
3, 68820, Note_on_c, 1, 82, 95
3, 68820, Note_on_c, 1, 79, 95
3, 68939, Note_off_c, 1, 79, 64
3, 68939, Note_off_c, 1, 82, 64
3, 69000, Note_on_c, 1, 86, 95
3, 69000, Note_on_c, 1, 82, 95
3, 69059, Note_off_c, 1, 82, 64
3, 69059, Note_off_c, 1, 86, 64
3, 69120, Note_on_c, 1, 84, 95
3, 69120, Note_on_c, 1, 81, 95
3, 69238, Note_off_c, 1, 81, 64
3, 69238, Note_off_c, 1, 84, 64
3, 69300, Note_on_c, 1, 84, 95
3, 69300, Note_on_c, 1, 81, 95
3, 69419, Note_off_c, 1, 81, 64
3, 69419, Note_off_c, 1, 84, 64
3, 70020, Note_on_c, 1, 86, 95
3, 70020, Note_on_c, 1, 82, 95
3, 70139, Note_off_c, 1, 82, 64
3, 70139, Note_off_c, 1, 86, 64
3, 70140, Note_on_c, 1, 86, 95
3, 70140, Note_on_c, 1, 82, 95
3, 70316, Note_off_c, 1, 82, 64
3, 70316, Note_off_c, 1, 86, 64
3, 70320, Note_on_c, 1, 86, 95
3, 70320, Note_on_c, 1, 82, 95
3, 70379, Note_off_c, 1, 82, 64
3, 70379, Note_off_c, 1, 86, 64
3, 70380, Note_on_c, 1, 87, 95
3, 70380, Note_on_c, 1, 82, 95
3, 70498, Note_off_c, 1, 82, 64
3, 70498, Note_off_c, 1, 87, 64
3, 70500, Note_on_c, 1, 86, 95
3, 70500, Note_on_c, 1, 82, 95
3, 70619, Note_off_c, 1, 82, 64
3, 70619, Note_off_c, 1, 86, 64
3, 70740, Note_on_c, 1, 82, 95
3, 70740, Note_on_c, 1, 79, 95
3, 70859, Note_off_c, 1, 79, 64
3, 70859, Note_off_c, 1, 82, 64
3, 70980, Note_on_c, 1, 84, 95
3, 70980, Note_on_c, 1, 80, 95
3, 71099, Note_off_c, 1, 80, 64
3, 71099, Note_off_c, 1, 84, 64
3, 71340, Note_on_c, 1, 84, 95
3, 71340, Note_on_c, 1, 81, 95
3, 71516, Note_off_c, 1, 81, 64
3, 71516, Note_off_c, 1, 84, 64
3, 71520, Note_on_c, 1, 77, 95
3, 71520, Note_on_c, 1, 69, 95
3, 71638, Note_off_c, 1, 69, 64
3, 71638, Note_off_c, 1, 77, 64
3, 71640, Note_on_c, 1, 79, 95
3, 71640, Note_on_c, 1, 70, 95
3, 71758, Note_off_c, 1, 70, 64
3, 71758, Note_off_c, 1, 79, 64
3, 71760, Note_on_c, 1, 81, 95
3, 71760, Note_on_c, 1, 77, 95
3, 71878, Note_off_c, 1, 77, 64
3, 71878, Note_off_c, 1, 81, 64
3, 71880, Note_on_c, 1, 84, 95
3, 71880, Note_on_c, 1, 81, 95
3, 71998, Note_off_c, 1, 81, 64
3, 71998, Note_off_c, 1, 84, 64
3, 72000, Note_on_c, 1, 89, 95
3, 72000, Note_on_c, 1, 86, 95
3, 72235, Note_off_c, 1, 86, 64
3, 72235, Note_off_c, 1, 89, 64
3, 72240, Note_on_c, 1, 81, 95
3, 72358, Note_off_c, 1, 81, 64
3, 72360, Note_on_c, 1, 77, 95
3, 72478, Note_off_c, 1, 77, 64
3, 72480, Note_on_c, 1, 86, 95
3, 72480, Note_on_c, 1, 82, 95
3, 72715, Note_off_c, 1, 82, 64
3, 72715, Note_off_c, 1, 86, 64
3, 72720, Note_on_c, 1, 74, 95
3, 72838, Note_off_c, 1, 74, 64
3, 72840, Note_on_c, 1, 72, 95
3, 72958, Note_off_c, 1, 72, 64
3, 72960, Note_on_c, 1, 82, 95
3, 72960, Note_on_c, 1, 77, 95
3, 73195, Note_off_c, 1, 77, 64
3, 73195, Note_off_c, 1, 82, 64
3, 73200, Note_on_c, 1, 82, 95
3, 73200, Note_on_c, 1, 77, 95
3, 73435, Note_off_c, 1, 77, 64
3, 73435, Note_off_c, 1, 82, 64
3, 73440, Note_on_c, 1, 79, 95
3, 73440, Note_on_c, 1, 76, 95
3, 73616, Note_off_c, 1, 76, 64
3, 73616, Note_off_c, 1, 79, 64
3, 73620, Note_on_c, 1, 72, 95
3, 73679, Note_off_c, 1, 72, 64
3, 73680, Note_on_c, 1, 72, 95
3, 73739, Note_off_c, 1, 72, 64
3, 73740, Note_on_c, 1, 74, 95
3, 73799, Note_off_c, 1, 74, 64
3, 73800, Note_on_c, 1, 77, 95
3, 73859, Note_off_c, 1, 77, 64
3, 73860, Note_on_c, 1, 74, 95
3, 73919, Note_off_c, 1, 74, 64
3, 73920, Note_on_c, 1, 69, 95
3, 73920, Note_on_c, 1, 72, 95
3, 74626, Note_off_c, 1, 72, 64
3, 74626, Note_off_c, 1, 69, 64
3, 74640, Note_on_c, 1, 69, 91
3, 74640, Note_on_c, 1, 72, 91
3, 74699, Note_off_c, 1, 72, 64
3, 74699, Note_off_c, 1, 69, 64
3, 74880, Note_on_c, 1, 70, 89
3, 74880, Note_on_c, 1, 74, 89
3, 75718, Note_off_c, 1, 74, 64
3, 75718, Note_off_c, 1, 70, 64
3, 75720, Note_on_c, 1, 77, 84
3, 75720, Note_on_c, 1, 82, 84
3, 75838, Note_off_c, 1, 82, 64
3, 75838, Note_off_c, 1, 77, 64
3, 76080, Note_on_c, 1, 77, 82
3, 76080, Note_on_c, 1, 81, 82
3, 76315, Note_off_c, 1, 81, 64
3, 76315, Note_off_c, 1, 77, 64
3, 76560, Note_on_c, 1, 69, 79
3, 76560, Note_on_c, 1, 72, 79
3, 76619, Note_off_c, 1, 72, 64
3, 76619, Note_off_c, 1, 69, 64
3, 76800, Note_on_c, 1, 70, 77
3, 76800, Note_on_c, 1, 74, 77
3, 77741, Note_off_c, 1, 74, 64
3, 77741, Note_off_c, 1, 70, 64
3, 77760, Note_on_c, 1, 72, 71
3, 77760, Note_on_c, 1, 69, 71
3, 78466, Note_off_c, 1, 69, 64
3, 78466, Note_off_c, 1, 72, 64
3, 78480, Note_on_c, 1, 72, 67
3, 78480, Note_on_c, 1, 69, 67
3, 78539, Note_off_c, 1, 69, 64
3, 78539, Note_off_c, 1, 72, 64
3, 78720, Note_on_c, 1, 74, 66
3, 78720, Note_on_c, 1, 70, 66
3, 79558, Note_off_c, 1, 70, 64
3, 79558, Note_off_c, 1, 74, 64
3, 79560, Note_on_c, 1, 82, 60
3, 79560, Note_on_c, 1, 77, 60
3, 79678, Note_off_c, 1, 77, 64
3, 79678, Note_off_c, 1, 82, 64
3, 79920, Note_on_c, 1, 81, 58
3, 79920, Note_on_c, 1, 77, 58
3, 80155, Note_off_c, 1, 77, 64
3, 80155, Note_off_c, 1, 81, 64
3, 80400, Note_on_c, 1, 72, 55
3, 80400, Note_on_c, 1, 69, 55
3, 80459, Note_off_c, 1, 69, 64
3, 80459, Note_off_c, 1, 72, 64
3, 80640, Note_on_c, 1, 74, 54
3, 80640, Note_on_c, 1, 70, 54
3, 81581, Note_off_c, 1, 70, 64
3, 81581, Note_off_c, 1, 74, 64
3, 81600, Note_on_c, 1, 72, 48
3, 81600, Note_on_c, 1, 69, 48
3, 82306, Note_off_c, 1, 69, 64
3, 82306, Note_off_c, 1, 72, 64
3, 82320, Note_on_c, 1, 72, 44
3, 82320, Note_on_c, 1, 69, 44
3, 82379, Note_off_c, 1, 69, 64
3, 82379, Note_off_c, 1, 72, 64
3, 82560, Note_on_c, 1, 74, 42
3, 82560, Note_on_c, 1, 70, 42
3, 83398, Note_off_c, 1, 70, 64
3, 83398, Note_off_c, 1, 74, 64
3, 83400, Note_on_c, 1, 82, 37
3, 83400, Note_on_c, 1, 77, 37
3, 83518, Note_off_c, 1, 77, 64
3, 83518, Note_off_c, 1, 82, 64
3, 83760, Note_on_c, 1, 81, 35
3, 83760, Note_on_c, 1, 77, 35
3, 83995, Note_off_c, 1, 77, 64
3, 83995, Note_off_c, 1, 81, 64
3, 84240, Note_on_c, 1, 72, 32
3, 84240, Note_on_c, 1, 69, 32
3, 84299, Note_off_c, 1, 69, 64
3, 84299, Note_off_c, 1, 72, 64
3, 84480, Note_on_c, 1, 74, 30
3, 84480, Note_on_c, 1, 70, 30
3, 85421, Note_off_c, 1, 70, 64
3, 85421, Note_off_c, 1, 74, 64
3, 85421, End_track
4, 0, Start_track
4, 0, Text_t, "Bright Acoustic Piano"
4, 0, Program_c, 2, 1
4, 0, Control_c, 2, 7, 127
4, 960, Note_on_c, 2, 79, 100
4, 1019, Note_off_c, 2, 79, 64
4, 1020, Note_on_c, 2, 81, 100
4, 1079, Note_off_c, 2, 81, 64
4, 1080, Note_on_c, 2, 77, 100
4, 1139, Note_off_c, 2, 77, 64
4, 1140, Note_on_c, 2, 89, 100
4, 1558, Note_off_c, 2, 89, 64
4, 1560, Note_on_c, 2, 84, 100
4, 1619, Note_off_c, 2, 84, 64
4, 1620, Note_on_c, 2, 81, 100
4, 1679, Note_off_c, 2, 81, 64
4, 1680, Note_on_c, 2, 72, 100
4, 1739, Note_off_c, 2, 72, 64
4, 1740, Note_on_c, 2, 67, 100
4, 1799, Note_off_c, 2, 67, 64
4, 1800, Note_on_c, 2, 69, 100
4, 1859, Note_off_c, 2, 69, 64
4, 1860, Note_on_c, 2, 77, 100
4, 1919, Note_off_c, 2, 77, 64
4, 1920, Note_on_c, 2, 70, 100
4, 1979, Note_off_c, 2, 70, 64
4, 1980, Note_on_c, 2, 72, 100
4, 2039, Note_off_c, 2, 72, 64
4, 2040, Note_on_c, 2, 74, 100
4, 2099, Note_off_c, 2, 74, 64
4, 2100, Note_on_c, 2, 77, 100
4, 2459, Note_off_c, 2, 77, 64
4, 2460, Note_on_c, 2, 62, 100
4, 2519, Note_off_c, 2, 62, 64
4, 2520, Note_on_c, 2, 70, 100
4, 2579, Note_off_c, 2, 70, 64
4, 2580, Note_on_c, 2, 65, 100
4, 2639, Note_off_c, 2, 65, 64
4, 2640, Note_on_c, 2, 74, 100
4, 2699, Note_off_c, 2, 74, 64
4, 2700, Note_on_c, 2, 70, 100
4, 2759, Note_off_c, 2, 70, 64
4, 2760, Note_on_c, 2, 62, 100
4, 2878, Note_off_c, 2, 62, 64
4, 2940, Note_on_c, 2, 65, 100
4, 2999, Note_off_c, 2, 65, 64
4, 3000, Note_on_c, 2, 53, 100
4, 3059, Note_off_c, 2, 53, 64
4, 3060, Note_on_c, 2, 60, 100
4, 3355, Note_off_c, 2, 60, 64
4, 3360, Note_on_c, 2, 67, 100
4, 3419, Note_off_c, 2, 67, 64
4, 3420, Note_on_c, 2, 69, 100
4, 3479, Note_off_c, 2, 69, 64
4, 3480, Note_on_c, 2, 60, 100
4, 3539, Note_off_c, 2, 60, 64
4, 3540, Note_on_c, 2, 57, 100
4, 3599, Note_off_c, 2, 57, 64
4, 3600, Note_on_c, 2, 65, 100
4, 3659, Note_off_c, 2, 65, 64
4, 3660, Note_on_c, 2, 62, 100
4, 3719, Note_off_c, 2, 62, 64
4, 3720, Note_on_c, 2, 60, 100
4, 3779, Note_off_c, 2, 60, 64
4, 3780, Note_on_c, 2, 57, 100
4, 3839, Note_off_c, 2, 57, 64
4, 3840, Note_on_c, 2, 58, 100
4, 3899, Note_off_c, 2, 58, 64
4, 3900, Note_on_c, 2, 60, 100
4, 3959, Note_off_c, 2, 60, 64
4, 3960, Note_on_c, 2, 53, 100
4, 4019, Note_off_c, 2, 53, 64
4, 4020, Note_on_c, 2, 58, 100
4, 4256, Note_off_c, 2, 58, 64
4, 4260, Note_on_c, 2, 53, 100
4, 4319, Note_off_c, 2, 53, 64
4, 4320, Note_on_c, 2, 58, 100
4, 4379, Note_off_c, 2, 58, 64
4, 4380, Note_on_c, 2, 60, 100
4, 4439, Note_off_c, 2, 60, 64
4, 4440, Note_on_c, 2, 58, 100
4, 4499, Note_off_c, 2, 58, 64
4, 4500, Note_on_c, 2, 53, 100
4, 4559, Note_off_c, 2, 53, 64
4, 4560, Note_on_c, 2, 58, 100
4, 4619, Note_off_c, 2, 58, 64
4, 4620, Note_on_c, 2, 60, 100
4, 4679, Note_off_c, 2, 60, 64
4, 4680, Note_on_c, 2, 58, 100
4, 4739, Note_off_c, 2, 58, 64
4, 4740, Note_on_c, 2, 53, 100
4, 4799, Note_off_c, 2, 53, 64
4, 4800, Note_on_c, 2, 69, 100
4, 4859, Note_off_c, 2, 69, 64
4, 4860, Note_on_c, 2, 72, 100
4, 5036, Note_off_c, 2, 72, 64
4, 5040, Note_on_c, 2, 72, 100
4, 5158, Note_off_c, 2, 72, 64
4, 5160, Note_on_c, 2, 69, 100
4, 5219, Note_off_c, 2, 69, 64
4, 5220, Note_on_c, 2, 74, 100
4, 5339, Note_off_c, 2, 74, 64
4, 5340, Note_on_c, 2, 74, 100
4, 5516, Note_off_c, 2, 74, 64
4, 5520, Note_on_c, 2, 74, 100
4, 5638, Note_off_c, 2, 74, 64
4, 5640, Note_on_c, 2, 65, 100
4, 5699, Note_off_c, 2, 65, 64
4, 5700, Note_on_c, 2, 69, 100
4, 6701, Note_off_c, 2, 69, 64
4, 7140, Note_on_c, 2, 65, 100
4, 7199, Note_off_c, 2, 65, 64
4, 7200, Note_on_c, 2, 77, 100
4, 7376, Note_off_c, 2, 77, 64
4, 7380, Note_on_c, 2, 77, 100
4, 7439, Note_off_c, 2, 77, 64
4, 7440, Note_on_c, 2, 76, 100
4, 7499, Note_off_c, 2, 76, 64
4, 7500, Note_on_c, 2, 74, 100
4, 7618, Note_off_c, 2, 74, 64
4, 7620, Note_on_c, 2, 74, 100
4, 7798, Note_off_c, 2, 74, 64
4, 7800, Note_on_c, 2, 72, 100
4, 7918, Note_off_c, 2, 72, 64
4, 7920, Note_on_c, 2, 69, 100
4, 7979, Note_off_c, 2, 69, 64
4, 7980, Note_on_c, 2, 67, 100
4, 8098, Note_off_c, 2, 67, 64
4, 8100, Note_on_c, 2, 69, 100
4, 8630, Note_off_c, 2, 69, 64
4, 9120, Note_on_c, 2, 72, 100
4, 9179, Note_off_c, 2, 72, 64
4, 9180, Note_on_c, 2, 69, 100
4, 9239, Note_off_c, 2, 69, 64
4, 9240, Note_on_c, 2, 72, 100
4, 9478, Note_off_c, 2, 72, 64
4, 9480, Note_on_c, 2, 69, 100
4, 9539, Note_off_c, 2, 69, 64
4, 9540, Note_on_c, 2, 77, 100
4, 9599, Note_off_c, 2, 77, 64
4, 9780, Note_on_c, 2, 74, 100
4, 10310, Note_off_c, 2, 74, 64
4, 10440, Note_on_c, 2, 69, 100
4, 10499, Note_off_c, 2, 69, 64
4, 10500, Note_on_c, 2, 70, 100
4, 10559, Note_off_c, 2, 70, 64
4, 10560, Note_on_c, 2, 72, 100
4, 10619, Note_off_c, 2, 72, 64
4, 10620, Note_on_c, 2, 72, 100
4, 10796, Note_off_c, 2, 72, 64
4, 10800, Note_on_c, 2, 72, 100
4, 10918, Note_off_c, 2, 72, 64
4, 10920, Note_on_c, 2, 69, 100
4, 10979, Note_off_c, 2, 69, 64
4, 10980, Note_on_c, 2, 74, 100
4, 11099, Note_off_c, 2, 74, 64
4, 11100, Note_on_c, 2, 72, 100
4, 11218, Note_off_c, 2, 72, 64
4, 11220, Note_on_c, 2, 72, 100
4, 11398, Note_off_c, 2, 72, 64
4, 11400, Note_on_c, 2, 72, 100
4, 11518, Note_off_c, 2, 72, 64
4, 11520, Note_on_c, 2, 69, 100
4, 11638, Note_off_c, 2, 69, 64
4, 11640, Note_on_c, 2, 67, 100
4, 12235, Note_off_c, 2, 67, 64
4, 12480, Note_on_c, 2, 69, 100
4, 12528, Note_off_c, 2, 69, 64
4, 12540, Note_on_c, 2, 72, 100
4, 12912, Note_off_c, 2, 72, 64
4, 12960, Note_on_c, 2, 74, 100
4, 13008, Note_off_c, 2, 74, 64
4, 13020, Note_on_c, 2, 74, 100
4, 13164, Note_off_c, 2, 74, 64
4, 13200, Note_on_c, 2, 74, 100
4, 13296, Note_off_c, 2, 74, 64
4, 13320, Note_on_c, 2, 65, 100
4, 13416, Note_off_c, 2, 65, 64
4, 13440, Note_on_c, 2, 69, 100
4, 13536, Note_off_c, 2, 69, 64
4, 13560, Note_on_c, 2, 69, 100
4, 14256, Note_off_c, 2, 69, 64
4, 14820, Note_on_c, 2, 65, 100
4, 14868, Note_off_c, 2, 65, 64
4, 14880, Note_on_c, 2, 77, 100
4, 14976, Note_off_c, 2, 77, 64
4, 15000, Note_on_c, 2, 77, 100
4, 15048, Note_off_c, 2, 77, 64
4, 15060, Note_on_c, 2, 76, 100
4, 15168, Note_off_c, 2, 76, 64
4, 15180, Note_on_c, 2, 74, 100
4, 15276, Note_off_c, 2, 74, 64
4, 15300, Note_on_c, 2, 74, 100
4, 15419, Note_off_c, 2, 74, 64
4, 15420, Note_on_c, 2, 72, 100
4, 16306, Note_off_c, 2, 72, 64
4, 16560, Note_on_c, 2, 72, 100
4, 16619, Note_off_c, 2, 72, 64
4, 16620, Note_on_c, 2, 72, 100
4, 16738, Note_off_c, 2, 72, 64
4, 16740, Note_on_c, 2, 72, 100
4, 17270, Note_off_c, 2, 72, 64
4, 17280, Note_on_c, 2, 77, 100
4, 17339, Note_off_c, 2, 77, 64
4, 17340, Note_on_c, 2, 74, 100
4, 17755, Note_off_c, 2, 74, 64
4, 18120, Note_on_c, 2, 69, 100
4, 18179, Note_off_c, 2, 69, 64
4, 18180, Note_on_c, 2, 70, 100
4, 18239, Note_off_c, 2, 70, 64
4, 18240, Note_on_c, 2, 72, 100
4, 18299, Note_off_c, 2, 72, 64
4, 18300, Note_on_c, 2, 72, 100
4, 18598, Note_off_c, 2, 72, 64
4, 18600, Note_on_c, 2, 69, 100
4, 18659, Note_off_c, 2, 69, 64
4, 18660, Note_on_c, 2, 72, 100
4, 18719, Note_off_c, 2, 72, 64
4, 18720, Note_on_c, 2, 74, 100
4, 18779, Note_off_c, 2, 74, 64
4, 18780, Note_on_c, 2, 72, 100
4, 19019, Note_off_c, 2, 72, 64
4, 19020, Note_on_c, 2, 72, 100
4, 19138, Note_off_c, 2, 72, 64
4, 19140, Note_on_c, 2, 69, 100
4, 19259, Note_off_c, 2, 69, 64
4, 19260, Note_on_c, 2, 67, 100
4, 19850, Note_off_c, 2, 67, 64
4, 20280, Note_on_c, 2, 69, 100
4, 20339, Note_off_c, 2, 69, 64
4, 20340, Note_on_c, 2, 72, 100
4, 20399, Note_off_c, 2, 72, 64
4, 20400, Note_on_c, 2, 74, 100
4, 20518, Note_off_c, 2, 74, 64
4, 20520, Note_on_c, 2, 76, 100
4, 20579, Note_off_c, 2, 76, 64
4, 20580, Note_on_c, 2, 79, 100
4, 20699, Note_off_c, 2, 79, 64
4, 20700, Note_on_c, 2, 81, 100
4, 20759, Note_off_c, 2, 81, 64
4, 20760, Note_on_c, 2, 79, 100
4, 20819, Note_off_c, 2, 79, 64
4, 20820, Note_on_c, 2, 81, 100
4, 20879, Note_off_c, 2, 81, 64
4, 20880, Note_on_c, 2, 77, 100
4, 20998, Note_off_c, 2, 77, 64
4, 21000, Note_on_c, 2, 74, 100
4, 21059, Note_off_c, 2, 74, 64
4, 21060, Note_on_c, 2, 76, 100
4, 21119, Note_off_c, 2, 76, 64
4, 21120, Note_on_c, 2, 79, 100
4, 21179, Note_off_c, 2, 79, 64
4, 21180, Note_on_c, 2, 81, 100
4, 21239, Note_off_c, 2, 81, 64
4, 21240, Note_on_c, 2, 77, 100
4, 21478, Note_off_c, 2, 77, 64
4, 21480, Note_on_c, 2, 74, 100
4, 21539, Note_off_c, 2, 74, 64
4, 21540, Note_on_c, 2, 77, 100
4, 21599, Note_off_c, 2, 77, 64
4, 21600, Note_on_c, 2, 79, 100
4, 21659, Note_off_c, 2, 79, 64
4, 21660, Note_on_c, 2, 81, 100
4, 21778, Note_off_c, 2, 81, 64
4, 21780, Note_on_c, 2, 77, 100
4, 21958, Note_off_c, 2, 77, 64
4, 21960, Note_on_c, 2, 74, 100
4, 22019, Note_off_c, 2, 74, 64
4, 22020, Note_on_c, 2, 79, 100
4, 22139, Note_off_c, 2, 79, 64
4, 22140, Note_on_c, 2, 81, 100
4, 22199, Note_off_c, 2, 81, 64
4, 22200, Note_on_c, 2, 77, 100
4, 22438, Note_off_c, 2, 77, 64
4, 22440, Note_on_c, 2, 74, 100
4, 22499, Note_off_c, 2, 74, 64
4, 22500, Note_on_c, 2, 77, 100
4, 22559, Note_off_c, 2, 77, 64
4, 22560, Note_on_c, 2, 79, 100
4, 22678, Note_off_c, 2, 79, 64
4, 22680, Note_on_c, 2, 81, 100
4, 22739, Note_off_c, 2, 81, 64
4, 22740, Note_on_c, 2, 77, 100
4, 23035, Note_off_c, 2, 77, 64
4, 23160, Note_on_c, 2, 79, 100
4, 23219, Note_off_c, 2, 79, 64
4, 23220, Note_on_c, 2, 81, 100
4, 23279, Note_off_c, 2, 81, 64
4, 23280, Note_on_c, 2, 77, 100
4, 23339, Note_off_c, 2, 77, 64
4, 23340, Note_on_c, 2, 74, 100
4, 23458, Note_off_c, 2, 74, 64
4, 23460, Note_on_c, 2, 79, 100
4, 23579, Note_off_c, 2, 79, 64
4, 23580, Note_on_c, 2, 81, 100
4, 23639, Note_off_c, 2, 81, 64
4, 23640, Note_on_c, 2, 77, 100
4, 23878, Note_off_c, 2, 77, 64
4, 23880, Note_on_c, 2, 74, 100
4, 23939, Note_off_c, 2, 74, 64
4, 23940, Note_on_c, 2, 74, 100
4, 24235, Note_off_c, 2, 74, 64
4, 24240, Note_on_c, 2, 72, 100
4, 24946, Note_off_c, 2, 72, 64
4, 25500, Note_on_c, 2, 74, 100
4, 25559, Note_off_c, 2, 74, 64
4, 25560, Note_on_c, 2, 74, 100
4, 25619, Note_off_c, 2, 74, 64
4, 25620, Note_on_c, 2, 77, 100
4, 25739, Note_off_c, 2, 77, 64
4, 25740, Note_on_c, 2, 77, 100
4, 25858, Note_off_c, 2, 77, 64
4, 25860, Note_on_c, 2, 80, 100
4, 25979, Note_off_c, 2, 80, 64
4, 25980, Note_on_c, 2, 77, 100
4, 26395, Note_off_c, 2, 77, 64
4, 26460, Note_on_c, 2, 72, 100
4, 26519, Note_off_c, 2, 72, 64
4, 26520, Note_on_c, 2, 74, 100
4, 26579, Note_off_c, 2, 74, 64
4, 26580, Note_on_c, 2, 77, 100
4, 26699, Note_off_c, 2, 77, 64
4, 26700, Note_on_c, 2, 77, 100
4, 26759, Note_off_c, 2, 77, 64
4, 26760, Note_on_c, 2, 74, 100
4, 26819, Note_off_c, 2, 74, 64
4, 26820, Note_on_c, 2, 80, 100
4, 26998, Note_off_c, 2, 80, 64
4, 27000, Note_on_c, 2, 74, 100
4, 27059, Note_off_c, 2, 74, 64
4, 27060, Note_on_c, 2, 72, 100
4, 27119, Note_off_c, 2, 72, 64
4, 27120, Note_on_c, 2, 74, 100
4, 27355, Note_off_c, 2, 74, 64
4, 27420, Note_on_c, 2, 72, 100
4, 27479, Note_off_c, 2, 72, 64
4, 27480, Note_on_c, 2, 74, 100
4, 27539, Note_off_c, 2, 74, 64
4, 27540, Note_on_c, 2, 77, 100
4, 27659, Note_off_c, 2, 77, 64
4, 27660, Note_on_c, 2, 77, 100
4, 27719, Note_off_c, 2, 77, 64
4, 27720, Note_on_c, 2, 74, 100
4, 27779, Note_off_c, 2, 74, 64
4, 27780, Note_on_c, 2, 80, 100
4, 27958, Note_off_c, 2, 80, 64
4, 27960, Note_on_c, 2, 77, 100
4, 28315, Note_off_c, 2, 77, 64
4, 28380, Note_on_c, 2, 72, 100
4, 28439, Note_off_c, 2, 72, 64
4, 28440, Note_on_c, 2, 74, 100
4, 28499, Note_off_c, 2, 74, 64
4, 28500, Note_on_c, 2, 77, 100
4, 28619, Note_off_c, 2, 77, 64
4, 28620, Note_on_c, 2, 74, 100
4, 28679, Note_off_c, 2, 74, 64
4, 28680, Note_on_c, 2, 77, 100
4, 28739, Note_off_c, 2, 77, 64
4, 28740, Note_on_c, 2, 74, 100
4, 28799, Note_off_c, 2, 74, 64
4, 28800, Note_on_c, 2, 81, 100
4, 28918, Note_off_c, 2, 81, 64
4, 28920, Note_on_c, 2, 79, 100
4, 28979, Note_off_c, 2, 79, 64
4, 28980, Note_on_c, 2, 77, 100
4, 29099, Note_off_c, 2, 77, 64
4, 29100, Note_on_c, 2, 79, 100
4, 29276, Note_off_c, 2, 79, 64
4, 29340, Note_on_c, 2, 72, 100
4, 29399, Note_off_c, 2, 72, 64
4, 29400, Note_on_c, 2, 74, 100
4, 29459, Note_off_c, 2, 74, 64
4, 29460, Note_on_c, 2, 77, 100
4, 29579, Note_off_c, 2, 77, 64
4, 29580, Note_on_c, 2, 77, 100
4, 29639, Note_off_c, 2, 77, 64
4, 29640, Note_on_c, 2, 74, 100
4, 29699, Note_off_c, 2, 74, 64
4, 29700, Note_on_c, 2, 80, 100
4, 29819, Note_off_c, 2, 80, 64
4, 29820, Note_on_c, 2, 77, 100
4, 30235, Note_off_c, 2, 77, 64
4, 30300, Note_on_c, 2, 72, 100
4, 30359, Note_off_c, 2, 72, 64
4, 30360, Note_on_c, 2, 74, 100
4, 30419, Note_off_c, 2, 74, 64
4, 30420, Note_on_c, 2, 77, 100
4, 30539, Note_off_c, 2, 77, 64
4, 30540, Note_on_c, 2, 77, 100
4, 30599, Note_off_c, 2, 77, 64
4, 30600, Note_on_c, 2, 74, 100
4, 30659, Note_off_c, 2, 74, 64
4, 30660, Note_on_c, 2, 80, 100
4, 30779, Note_off_c, 2, 80, 64
4, 30780, Note_on_c, 2, 74, 100
4, 30839, Note_off_c, 2, 74, 64
4, 30840, Note_on_c, 2, 72, 100
4, 30899, Note_off_c, 2, 72, 64
4, 30900, Note_on_c, 2, 74, 100
4, 31195, Note_off_c, 2, 74, 64
4, 31680, Note_on_c, 2, 82, 100
4, 31915, Note_off_c, 2, 82, 64
4, 31920, Note_on_c, 2, 81, 100
4, 32038, Note_off_c, 2, 81, 64
4, 32040, Note_on_c, 2, 77, 100
4, 32158, Note_off_c, 2, 77, 64
4, 32160, Note_on_c, 2, 77, 100
4, 32395, Note_off_c, 2, 77, 64
4, 32400, Note_on_c, 2, 74, 100
4, 32518, Note_off_c, 2, 74, 64
4, 32520, Note_on_c, 2, 72, 100
4, 32638, Note_off_c, 2, 72, 64
4, 32640, Note_on_c, 2, 72, 100
4, 32875, Note_off_c, 2, 72, 64
4, 32880, Note_on_c, 2, 72, 100
4, 33115, Note_off_c, 2, 72, 64
4, 33120, Note_on_c, 2, 72, 100
4, 33355, Note_off_c, 2, 72, 64
4, 33360, Note_on_c, 2, 72, 100
4, 33595, Note_off_c, 2, 72, 64
4, 33600, Note_on_c, 2, 65, 100
4, 34306, Note_off_c, 2, 65, 64
4, 34320, Note_on_c, 2, 65, 100
4, 34379, Note_off_c, 2, 65, 64
4, 34380, Note_on_c, 2, 60, 100
4, 34439, Note_off_c, 2, 60, 64
4, 34440, Note_on_c, 2, 62, 100
4, 34499, Note_off_c, 2, 62, 64
4, 34500, Note_on_c, 2, 65, 100
4, 34559, Note_off_c, 2, 65, 64
4, 34560, Note_on_c, 2, 65, 100
4, 35398, Note_off_c, 2, 65, 64
4, 35400, Note_on_c, 2, 74, 100
4, 35518, Note_off_c, 2, 74, 64
4, 35760, Note_on_c, 2, 72, 100
4, 35995, Note_off_c, 2, 72, 64
4, 36240, Note_on_c, 2, 67, 100
4, 36299, Note_off_c, 2, 67, 64
4, 36300, Note_on_c, 2, 65, 100
4, 36359, Note_off_c, 2, 65, 64
4, 36360, Note_on_c, 2, 67, 100
4, 36419, Note_off_c, 2, 67, 64
4, 36420, Note_on_c, 2, 62, 100
4, 36479, Note_off_c, 2, 62, 64
4, 36480, Note_on_c, 2, 65, 100
4, 37421, Note_off_c, 2, 65, 64
4, 37440, Note_on_c, 2, 69, 100
4, 37499, Note_off_c, 2, 69, 64
4, 37500, Note_on_c, 2, 72, 100
4, 37676, Note_off_c, 2, 72, 64
4, 37680, Note_on_c, 2, 72, 100
4, 37798, Note_off_c, 2, 72, 64
4, 37800, Note_on_c, 2, 69, 100
4, 37859, Note_off_c, 2, 69, 64
4, 37860, Note_on_c, 2, 74, 100
4, 37979, Note_off_c, 2, 74, 64
4, 37980, Note_on_c, 2, 74, 100
4, 38156, Note_off_c, 2, 74, 64
4, 38160, Note_on_c, 2, 74, 100
4, 38278, Note_off_c, 2, 74, 64
4, 38280, Note_on_c, 2, 65, 100
4, 38339, Note_off_c, 2, 65, 64
4, 38340, Note_on_c, 2, 69, 100
4, 38870, Note_off_c, 2, 69, 64
4, 39780, Note_on_c, 2, 65, 100
4, 39839, Note_off_c, 2, 65, 64
4, 39840, Note_on_c, 2, 77, 100
4, 40016, Note_off_c, 2, 77, 64
4, 40020, Note_on_c, 2, 77, 100
4, 40079, Note_off_c, 2, 77, 64
4, 40080, Note_on_c, 2, 76, 100
4, 40139, Note_off_c, 2, 76, 64
4, 40140, Note_on_c, 2, 74, 100
4, 40258, Note_off_c, 2, 74, 64
4, 40260, Note_on_c, 2, 74, 100
4, 40438, Note_off_c, 2, 74, 64
4, 40440, Note_on_c, 2, 72, 100
4, 40558, Note_off_c, 2, 72, 64
4, 40560, Note_on_c, 2, 69, 100
4, 40619, Note_off_c, 2, 69, 64
4, 40620, Note_on_c, 2, 67, 100
4, 40738, Note_off_c, 2, 67, 64
4, 40740, Note_on_c, 2, 69, 100
4, 41270, Note_off_c, 2, 69, 64
4, 41280, Note_on_c, 2, 72, 100
4, 41339, Note_off_c, 2, 72, 64
4, 41340, Note_on_c, 2, 72, 100
4, 41638, Note_off_c, 2, 72, 64
4, 41640, Note_on_c, 2, 67, 100
4, 41758, Note_off_c, 2, 67, 64
4, 41760, Note_on_c, 2, 72, 100
4, 41819, Note_off_c, 2, 72, 64
4, 41820, Note_on_c, 2, 69, 100
4, 41879, Note_off_c, 2, 69, 64
4, 41880, Note_on_c, 2, 72, 100
4, 42118, Note_off_c, 2, 72, 64
4, 42120, Note_on_c, 2, 69, 100
4, 42179, Note_off_c, 2, 69, 64
4, 42180, Note_on_c, 2, 77, 100
4, 42416, Note_off_c, 2, 77, 64
4, 42420, Note_on_c, 2, 74, 100
4, 42950, Note_off_c, 2, 74, 64
4, 43080, Note_on_c, 2, 69, 100
4, 43139, Note_off_c, 2, 69, 64
4, 43140, Note_on_c, 2, 70, 100
4, 43199, Note_off_c, 2, 70, 64
4, 43200, Note_on_c, 2, 72, 100
4, 43259, Note_off_c, 2, 72, 64
4, 43260, Note_on_c, 2, 72, 100
4, 43436, Note_off_c, 2, 72, 64
4, 43440, Note_on_c, 2, 72, 100
4, 43558, Note_off_c, 2, 72, 64
4, 43560, Note_on_c, 2, 69, 100
4, 43619, Note_off_c, 2, 69, 64
4, 43620, Note_on_c, 2, 74, 100
4, 43739, Note_off_c, 2, 74, 64
4, 43740, Note_on_c, 2, 72, 100
4, 43858, Note_off_c, 2, 72, 64
4, 43860, Note_on_c, 2, 72, 100
4, 44038, Note_off_c, 2, 72, 64
4, 44040, Note_on_c, 2, 72, 100
4, 44158, Note_off_c, 2, 72, 64
4, 44160, Note_on_c, 2, 69, 100
4, 44278, Note_off_c, 2, 69, 64
4, 44280, Note_on_c, 2, 67, 100
4, 44875, Note_off_c, 2, 67, 64
4, 45000, Note_on_c, 2, 72, 100
4, 45118, Note_off_c, 2, 72, 64
4, 45120, Note_on_c, 2, 81, 100
4, 45179, Note_off_c, 2, 81, 64
4, 45180, Note_on_c, 2, 81, 100
4, 45478, Note_off_c, 2, 81, 64
4, 45480, Note_on_c, 2, 72, 100
4, 45598, Note_off_c, 2, 72, 64
4, 45600, Note_on_c, 2, 82, 100
4, 45776, Note_off_c, 2, 82, 64
4, 45780, Note_on_c, 2, 81, 100
4, 45839, Note_off_c, 2, 81, 64
4, 45840, Note_on_c, 2, 77, 100
4, 46016, Note_off_c, 2, 77, 64
4, 46020, Note_on_c, 2, 74, 100
4, 46079, Note_off_c, 2, 74, 64
4, 46080, Note_on_c, 2, 77, 80
4, 46176, Note_off_c, 2, 77, 64
4, 46200, Note_on_c, 2, 74, 80
4, 46248, Note_off_c, 2, 74, 64
4, 46260, Note_on_c, 2, 72, 80
4, 46896, Note_off_c, 2, 72, 64
4, 47460, Note_on_c, 2, 77, 80
4, 47508, Note_off_c, 2, 77, 64
4, 47520, Note_on_c, 2, 77, 80
4, 47568, Note_off_c, 2, 77, 64
4, 47580, Note_on_c, 2, 79, 80
4, 47724, Note_off_c, 2, 79, 64
4, 47760, Note_on_c, 2, 77, 80
4, 47856, Note_off_c, 2, 77, 64
4, 47880, Note_on_c, 2, 74, 80
4, 47928, Note_off_c, 2, 74, 64
4, 47940, Note_on_c, 2, 74, 80
4, 48048, Note_off_c, 2, 74, 64
4, 48060, Note_on_c, 2, 72, 80
4, 48816, Note_off_c, 2, 72, 64
4, 49200, Note_on_c, 2, 72, 80
4, 49248, Note_off_c, 2, 72, 64
4, 49260, Note_on_c, 2, 72, 80
4, 49356, Note_off_c, 2, 72, 64
4, 49380, Note_on_c, 2, 72, 80
4, 49428, Note_off_c, 2, 72, 64
4, 49440, Note_on_c, 2, 72, 80
4, 49632, Note_off_c, 2, 72, 64
4, 49680, Note_on_c, 2, 77, 80
4, 49728, Note_off_c, 2, 77, 64
4, 49740, Note_on_c, 2, 79, 80
4, 49884, Note_off_c, 2, 79, 64
4, 49920, Note_on_c, 2, 81, 80
4, 49968, Note_off_c, 2, 81, 64
4, 49980, Note_on_c, 2, 77, 80
4, 50352, Note_off_c, 2, 77, 64
4, 50760, Note_on_c, 2, 69, 80
4, 50808, Note_off_c, 2, 69, 64
4, 50820, Note_on_c, 2, 70, 80
4, 50868, Note_off_c, 2, 70, 64
4, 50880, Note_on_c, 2, 72, 80
4, 50928, Note_off_c, 2, 72, 64
4, 50940, Note_on_c, 2, 72, 80
4, 51312, Note_off_c, 2, 72, 64
4, 51360, Note_on_c, 2, 74, 80
4, 51408, Note_off_c, 2, 74, 64
4, 51420, Note_on_c, 2, 77, 80
4, 51564, Note_off_c, 2, 77, 64
4, 51600, Note_on_c, 2, 77, 80
4, 51696, Note_off_c, 2, 77, 64
4, 51720, Note_on_c, 2, 74, 80
4, 51768, Note_off_c, 2, 74, 64
4, 51780, Note_on_c, 2, 79, 80
4, 51888, Note_off_c, 2, 79, 64
4, 51900, Note_on_c, 2, 74, 80
4, 52464, Note_off_c, 2, 74, 64
4, 52920, Note_on_c, 2, 69, 100
4, 52979, Note_off_c, 2, 69, 64
4, 52980, Note_on_c, 2, 72, 100
4, 53039, Note_off_c, 2, 72, 64
4, 53040, Note_on_c, 2, 74, 100
4, 53158, Note_off_c, 2, 74, 64
4, 53160, Note_on_c, 2, 76, 100
4, 53219, Note_off_c, 2, 76, 64
4, 53220, Note_on_c, 2, 79, 100
4, 53339, Note_off_c, 2, 79, 64
4, 53340, Note_on_c, 2, 81, 100
4, 53399, Note_off_c, 2, 81, 64
4, 53400, Note_on_c, 2, 79, 100
4, 53459, Note_off_c, 2, 79, 64
4, 53460, Note_on_c, 2, 81, 100
4, 53519, Note_off_c, 2, 81, 64
4, 53520, Note_on_c, 2, 77, 100
4, 53638, Note_off_c, 2, 77, 64
4, 53640, Note_on_c, 2, 74, 100
4, 53699, Note_off_c, 2, 74, 64
4, 53700, Note_on_c, 2, 76, 100
4, 53759, Note_off_c, 2, 76, 64
4, 53760, Note_on_c, 2, 79, 100
4, 53819, Note_off_c, 2, 79, 64
4, 53820, Note_on_c, 2, 81, 100
4, 53879, Note_off_c, 2, 81, 64
4, 53880, Note_on_c, 2, 77, 100
4, 54118, Note_off_c, 2, 77, 64
4, 54120, Note_on_c, 2, 74, 100
4, 54179, Note_off_c, 2, 74, 64
4, 54180, Note_on_c, 2, 77, 100
4, 54239, Note_off_c, 2, 77, 64
4, 54240, Note_on_c, 2, 79, 100
4, 54299, Note_off_c, 2, 79, 64
4, 54300, Note_on_c, 2, 81, 100
4, 54418, Note_off_c, 2, 81, 64
4, 54420, Note_on_c, 2, 77, 100
4, 54598, Note_off_c, 2, 77, 64
4, 54600, Note_on_c, 2, 74, 100
4, 54659, Note_off_c, 2, 74, 64
4, 54660, Note_on_c, 2, 79, 100
4, 54779, Note_off_c, 2, 79, 64
4, 54780, Note_on_c, 2, 81, 100
4, 54839, Note_off_c, 2, 81, 64
4, 54840, Note_on_c, 2, 77, 100
4, 55078, Note_off_c, 2, 77, 64
4, 55080, Note_on_c, 2, 74, 100
4, 55139, Note_off_c, 2, 74, 64
4, 55140, Note_on_c, 2, 77, 100
4, 55199, Note_off_c, 2, 77, 64
4, 55200, Note_on_c, 2, 79, 100
4, 55318, Note_off_c, 2, 79, 64
4, 55320, Note_on_c, 2, 81, 100
4, 55379, Note_off_c, 2, 81, 64
4, 55380, Note_on_c, 2, 77, 100
4, 55675, Note_off_c, 2, 77, 64
4, 55800, Note_on_c, 2, 79, 100
4, 55859, Note_off_c, 2, 79, 64
4, 55860, Note_on_c, 2, 81, 100
4, 55919, Note_off_c, 2, 81, 64
4, 55920, Note_on_c, 2, 77, 100
4, 55979, Note_off_c, 2, 77, 64
4, 55980, Note_on_c, 2, 74, 100
4, 56098, Note_off_c, 2, 74, 64
4, 56100, Note_on_c, 2, 79, 100
4, 56219, Note_off_c, 2, 79, 64
4, 56220, Note_on_c, 2, 81, 100
4, 56279, Note_off_c, 2, 81, 64
4, 56280, Note_on_c, 2, 77, 100
4, 56518, Note_off_c, 2, 77, 64
4, 56520, Note_on_c, 2, 74, 100
4, 56579, Note_off_c, 2, 74, 64
4, 56580, Note_on_c, 2, 74, 100
4, 56875, Note_off_c, 2, 74, 64
4, 56880, Note_on_c, 2, 72, 100
4, 57586, Note_off_c, 2, 72, 64
4, 58140, Note_on_c, 2, 74, 100
4, 58199, Note_off_c, 2, 74, 64
4, 58200, Note_on_c, 2, 74, 100
4, 58259, Note_off_c, 2, 74, 64
4, 58260, Note_on_c, 2, 77, 100
4, 58379, Note_off_c, 2, 77, 64
4, 58380, Note_on_c, 2, 77, 100
4, 58498, Note_off_c, 2, 77, 64
4, 58500, Note_on_c, 2, 80, 100
4, 58619, Note_off_c, 2, 80, 64
4, 58620, Note_on_c, 2, 77, 100
4, 59035, Note_off_c, 2, 77, 64
4, 59100, Note_on_c, 2, 72, 100
4, 59159, Note_off_c, 2, 72, 64
4, 59160, Note_on_c, 2, 74, 100
4, 59219, Note_off_c, 2, 74, 64
4, 59220, Note_on_c, 2, 77, 100
4, 59339, Note_off_c, 2, 77, 64
4, 59340, Note_on_c, 2, 77, 100
4, 59399, Note_off_c, 2, 77, 64
4, 59400, Note_on_c, 2, 74, 100
4, 59459, Note_off_c, 2, 74, 64
4, 59460, Note_on_c, 2, 80, 100
4, 59638, Note_off_c, 2, 80, 64
4, 59640, Note_on_c, 2, 74, 100
4, 59699, Note_off_c, 2, 74, 64
4, 59700, Note_on_c, 2, 72, 100
4, 59759, Note_off_c, 2, 72, 64
4, 59760, Note_on_c, 2, 74, 100
4, 59995, Note_off_c, 2, 74, 64
4, 60060, Note_on_c, 2, 72, 100
4, 60119, Note_off_c, 2, 72, 64
4, 60120, Note_on_c, 2, 74, 100
4, 60179, Note_off_c, 2, 74, 64
4, 60180, Note_on_c, 2, 77, 100
4, 60299, Note_off_c, 2, 77, 64
4, 60300, Note_on_c, 2, 77, 100
4, 60359, Note_off_c, 2, 77, 64
4, 60360, Note_on_c, 2, 74, 100
4, 60419, Note_off_c, 2, 74, 64
4, 60420, Note_on_c, 2, 80, 100
4, 60598, Note_off_c, 2, 80, 64
4, 60600, Note_on_c, 2, 77, 100
4, 60955, Note_off_c, 2, 77, 64
4, 61020, Note_on_c, 2, 72, 100
4, 61079, Note_off_c, 2, 72, 64
4, 61080, Note_on_c, 2, 74, 100
4, 61139, Note_off_c, 2, 74, 64
4, 61140, Note_on_c, 2, 77, 100
4, 61259, Note_off_c, 2, 77, 64
4, 61260, Note_on_c, 2, 74, 100
4, 61319, Note_off_c, 2, 74, 64
4, 61320, Note_on_c, 2, 77, 100
4, 61379, Note_off_c, 2, 77, 64
4, 61380, Note_on_c, 2, 74, 100
4, 61439, Note_off_c, 2, 74, 64
4, 61440, Note_on_c, 2, 81, 100
4, 61558, Note_off_c, 2, 81, 64
4, 61560, Note_on_c, 2, 79, 100
4, 61619, Note_off_c, 2, 79, 64
4, 61620, Note_on_c, 2, 77, 100
4, 61739, Note_off_c, 2, 77, 64
4, 61740, Note_on_c, 2, 79, 100
4, 61916, Note_off_c, 2, 79, 64
4, 61980, Note_on_c, 2, 72, 100
4, 62039, Note_off_c, 2, 72, 64
4, 62040, Note_on_c, 2, 74, 100
4, 62099, Note_off_c, 2, 74, 64
4, 62100, Note_on_c, 2, 77, 100
4, 62219, Note_off_c, 2, 77, 64
4, 62220, Note_on_c, 2, 77, 100
4, 62279, Note_off_c, 2, 77, 64
4, 62280, Note_on_c, 2, 74, 100
4, 62339, Note_off_c, 2, 74, 64
4, 62340, Note_on_c, 2, 80, 100
4, 62459, Note_off_c, 2, 80, 64
4, 62460, Note_on_c, 2, 77, 100
4, 62875, Note_off_c, 2, 77, 64
4, 62940, Note_on_c, 2, 72, 100
4, 62999, Note_off_c, 2, 72, 64
4, 63000, Note_on_c, 2, 74, 100
4, 63059, Note_off_c, 2, 74, 64
4, 63060, Note_on_c, 2, 77, 100
4, 63179, Note_off_c, 2, 77, 64
4, 63180, Note_on_c, 2, 77, 100
4, 63239, Note_off_c, 2, 77, 64
4, 63240, Note_on_c, 2, 74, 100
4, 63299, Note_off_c, 2, 74, 64
4, 63300, Note_on_c, 2, 80, 100
4, 63419, Note_off_c, 2, 80, 64
4, 63420, Note_on_c, 2, 74, 100
4, 63479, Note_off_c, 2, 74, 64
4, 63480, Note_on_c, 2, 72, 100
4, 63539, Note_off_c, 2, 72, 64
4, 63540, Note_on_c, 2, 74, 100
4, 63835, Note_off_c, 2, 74, 64
4, 64320, Note_on_c, 2, 82, 100
4, 64555, Note_off_c, 2, 82, 64
4, 64560, Note_on_c, 2, 81, 100
4, 64678, Note_off_c, 2, 81, 64
4, 64680, Note_on_c, 2, 77, 100
4, 64798, Note_off_c, 2, 77, 64
4, 64800, Note_on_c, 2, 77, 100
4, 65035, Note_off_c, 2, 77, 64
4, 65040, Note_on_c, 2, 74, 100
4, 65158, Note_off_c, 2, 74, 64
4, 65160, Note_on_c, 2, 72, 100
4, 65278, Note_off_c, 2, 72, 64
4, 65280, Note_on_c, 2, 72, 100
4, 65515, Note_off_c, 2, 72, 64
4, 65520, Note_on_c, 2, 72, 100
4, 65755, Note_off_c, 2, 72, 64
4, 65820, Note_on_c, 2, 72, 100
4, 65879, Note_off_c, 2, 72, 64
4, 65880, Note_on_c, 2, 74, 100
4, 65939, Note_off_c, 2, 74, 64
4, 65940, Note_on_c, 2, 77, 100
4, 66059, Note_off_c, 2, 77, 64
4, 66060, Note_on_c, 2, 77, 100
4, 66119, Note_off_c, 2, 77, 64
4, 66120, Note_on_c, 2, 74, 100
4, 66179, Note_off_c, 2, 74, 64
4, 66180, Note_on_c, 2, 80, 100
4, 66299, Note_off_c, 2, 80, 64
4, 66300, Note_on_c, 2, 77, 100
4, 66715, Note_off_c, 2, 77, 64
4, 66780, Note_on_c, 2, 72, 100
4, 66839, Note_off_c, 2, 72, 64
4, 66840, Note_on_c, 2, 74, 100
4, 66899, Note_off_c, 2, 74, 64
4, 66900, Note_on_c, 2, 77, 100
4, 67019, Note_off_c, 2, 77, 64
4, 67020, Note_on_c, 2, 77, 100
4, 67079, Note_off_c, 2, 77, 64
4, 67080, Note_on_c, 2, 74, 100
4, 67139, Note_off_c, 2, 74, 64
4, 67140, Note_on_c, 2, 80, 100
4, 67318, Note_off_c, 2, 80, 64
4, 67320, Note_on_c, 2, 74, 100
4, 67379, Note_off_c, 2, 74, 64
4, 67380, Note_on_c, 2, 72, 100
4, 67439, Note_off_c, 2, 72, 64
4, 67440, Note_on_c, 2, 74, 100
4, 67675, Note_off_c, 2, 74, 64
4, 67740, Note_on_c, 2, 72, 100
4, 67799, Note_off_c, 2, 72, 64
4, 67800, Note_on_c, 2, 74, 100
4, 67859, Note_off_c, 2, 74, 64
4, 67860, Note_on_c, 2, 77, 100
4, 67979, Note_off_c, 2, 77, 64
4, 67980, Note_on_c, 2, 77, 100
4, 68039, Note_off_c, 2, 77, 64
4, 68040, Note_on_c, 2, 74, 100
4, 68099, Note_off_c, 2, 74, 64
4, 68100, Note_on_c, 2, 80, 100
4, 68278, Note_off_c, 2, 80, 64
4, 68280, Note_on_c, 2, 77, 100
4, 68635, Note_off_c, 2, 77, 64
4, 68700, Note_on_c, 2, 72, 100
4, 68759, Note_off_c, 2, 72, 64
4, 68760, Note_on_c, 2, 74, 100
4, 68819, Note_off_c, 2, 74, 64
4, 68820, Note_on_c, 2, 77, 100
4, 68939, Note_off_c, 2, 77, 64
4, 68940, Note_on_c, 2, 74, 100
4, 68999, Note_off_c, 2, 74, 64
4, 69000, Note_on_c, 2, 77, 100
4, 69059, Note_off_c, 2, 77, 64
4, 69060, Note_on_c, 2, 74, 100
4, 69119, Note_off_c, 2, 74, 64
4, 69120, Note_on_c, 2, 81, 100
4, 69238, Note_off_c, 2, 81, 64
4, 69240, Note_on_c, 2, 79, 100
4, 69299, Note_off_c, 2, 79, 64
4, 69300, Note_on_c, 2, 77, 100
4, 69419, Note_off_c, 2, 77, 64
4, 69420, Note_on_c, 2, 79, 100
4, 69596, Note_off_c, 2, 79, 64
4, 69660, Note_on_c, 2, 72, 100
4, 69719, Note_off_c, 2, 72, 64
4, 69720, Note_on_c, 2, 74, 100
4, 69779, Note_off_c, 2, 74, 64
4, 69780, Note_on_c, 2, 77, 100
4, 69899, Note_off_c, 2, 77, 64
4, 69900, Note_on_c, 2, 77, 100
4, 69959, Note_off_c, 2, 77, 64
4, 69960, Note_on_c, 2, 74, 100
4, 70019, Note_off_c, 2, 74, 64
4, 70020, Note_on_c, 2, 80, 100
4, 70139, Note_off_c, 2, 80, 64
4, 70140, Note_on_c, 2, 77, 100
4, 70555, Note_off_c, 2, 77, 64
4, 70620, Note_on_c, 2, 72, 100
4, 70679, Note_off_c, 2, 72, 64
4, 70680, Note_on_c, 2, 74, 100
4, 70739, Note_off_c, 2, 74, 64
4, 70740, Note_on_c, 2, 77, 100
4, 70859, Note_off_c, 2, 77, 64
4, 70860, Note_on_c, 2, 77, 100
4, 70919, Note_off_c, 2, 77, 64
4, 70920, Note_on_c, 2, 74, 100
4, 70979, Note_off_c, 2, 74, 64
4, 70980, Note_on_c, 2, 80, 100
4, 71099, Note_off_c, 2, 80, 64
4, 71100, Note_on_c, 2, 74, 100
4, 71159, Note_off_c, 2, 74, 64
4, 71160, Note_on_c, 2, 72, 100
4, 71219, Note_off_c, 2, 72, 64
4, 71220, Note_on_c, 2, 74, 100
4, 71515, Note_off_c, 2, 74, 64
4, 72000, Note_on_c, 2, 82, 100
4, 72235, Note_off_c, 2, 82, 64
4, 72240, Note_on_c, 2, 81, 100
4, 72358, Note_off_c, 2, 81, 64
4, 72360, Note_on_c, 2, 77, 100
4, 72478, Note_off_c, 2, 77, 64
4, 72480, Note_on_c, 2, 77, 100
4, 72715, Note_off_c, 2, 77, 64
4, 72720, Note_on_c, 2, 74, 100
4, 72838, Note_off_c, 2, 74, 64
4, 72840, Note_on_c, 2, 72, 100
4, 72958, Note_off_c, 2, 72, 64
4, 72960, Note_on_c, 2, 72, 100
4, 73901, Note_off_c, 2, 72, 64
4, 73920, Note_on_c, 2, 65, 100
4, 74626, Note_off_c, 2, 65, 64
4, 74640, Note_on_c, 2, 65, 95
4, 74699, Note_off_c, 2, 65, 64
4, 74700, Note_on_c, 2, 60, 95
4, 74759, Note_off_c, 2, 60, 64
4, 74760, Note_on_c, 2, 62, 95
4, 74819, Note_off_c, 2, 62, 64
4, 74820, Note_on_c, 2, 65, 94
4, 74879, Note_off_c, 2, 65, 64
4, 74880, Note_on_c, 2, 65, 94
4, 75718, Note_off_c, 2, 65, 64
4, 75720, Note_on_c, 2, 74, 88
4, 75838, Note_off_c, 2, 74, 64
4, 76080, Note_on_c, 2, 72, 86
4, 76315, Note_off_c, 2, 72, 64
4, 76560, Note_on_c, 2, 67, 83
4, 76619, Note_off_c, 2, 67, 64
4, 76620, Note_on_c, 2, 65, 83
4, 76679, Note_off_c, 2, 65, 64
4, 76680, Note_on_c, 2, 67, 82
4, 76739, Note_off_c, 2, 67, 64
4, 76740, Note_on_c, 2, 62, 82
4, 76799, Note_off_c, 2, 62, 64
4, 76800, Note_on_c, 2, 65, 81
4, 77741, Note_off_c, 2, 65, 64
4, 77760, Note_on_c, 2, 65, 75
4, 78466, Note_off_c, 2, 65, 64
4, 78480, Note_on_c, 2, 65, 71
4, 78539, Note_off_c, 2, 65, 64
4, 78540, Note_on_c, 2, 60, 70
4, 78599, Note_off_c, 2, 60, 64
4, 78600, Note_on_c, 2, 62, 70
4, 78659, Note_off_c, 2, 62, 64
4, 78660, Note_on_c, 2, 65, 69
4, 78719, Note_off_c, 2, 65, 64
4, 78720, Note_on_c, 2, 65, 69
4, 79558, Note_off_c, 2, 65, 64
4, 79560, Note_on_c, 2, 74, 64
4, 79678, Note_off_c, 2, 74, 64
4, 79920, Note_on_c, 2, 72, 61
4, 80155, Note_off_c, 2, 72, 64
4, 80400, Note_on_c, 2, 67, 58
4, 80459, Note_off_c, 2, 67, 64
4, 80460, Note_on_c, 2, 65, 58
4, 80519, Note_off_c, 2, 65, 64
4, 80520, Note_on_c, 2, 67, 57
4, 80579, Note_off_c, 2, 67, 64
4, 80580, Note_on_c, 2, 62, 57
4, 80639, Note_off_c, 2, 62, 64
4, 80640, Note_on_c, 2, 65, 57
4, 81581, Note_off_c, 2, 65, 64
4, 81600, Note_on_c, 2, 65, 50
4, 82306, Note_off_c, 2, 65, 64
4, 82320, Note_on_c, 2, 65, 46
4, 82379, Note_off_c, 2, 65, 64
4, 82380, Note_on_c, 2, 60, 45
4, 82439, Note_off_c, 2, 60, 64
4, 82440, Note_on_c, 2, 62, 45
4, 82499, Note_off_c, 2, 62, 64
4, 82500, Note_on_c, 2, 65, 45
4, 82559, Note_off_c, 2, 65, 64
4, 82560, Note_on_c, 2, 65, 44
4, 83398, Note_off_c, 2, 65, 64
4, 83400, Note_on_c, 2, 74, 39
4, 83518, Note_off_c, 2, 74, 64
4, 83760, Note_on_c, 2, 72, 37
4, 83995, Note_off_c, 2, 72, 64
4, 84240, Note_on_c, 2, 67, 33
4, 84299, Note_off_c, 2, 67, 64
4, 84300, Note_on_c, 2, 65, 33
4, 84359, Note_off_c, 2, 65, 64
4, 84360, Note_on_c, 2, 67, 33
4, 84419, Note_off_c, 2, 67, 64
4, 84420, Note_on_c, 2, 62, 32
4, 84479, Note_off_c, 2, 62, 64
4, 84480, Note_on_c, 2, 65, 32
4, 85421, Note_off_c, 2, 65, 64
4, 85421, End_track
5, 0, Start_track
5, 0, Text_t, "Electric Grand Piano"
5, 0, Program_c, 3, 2
5, 0, Control_c, 3, 7, 127
5, 960, Note_on_c, 3, 57, 95
5, 960, Note_on_c, 3, 60, 95
5, 1901, Note_off_c, 3, 60, 64
5, 1901, Note_off_c, 3, 57, 64
5, 1920, Note_on_c, 3, 58, 95
5, 1920, Note_on_c, 3, 62, 95
5, 2626, Note_off_c, 3, 62, 64
5, 2816, Note_off_c, 3, 58, 64
5, 2820, Note_on_c, 3, 55, 95
5, 2879, Note_off_c, 3, 55, 64
5, 2880, Note_on_c, 3, 57, 95
5, 3350, Note_off_c, 3, 57, 64
5, 3840, Note_on_c, 3, 50, 95
5, 4310, Note_off_c, 3, 50, 64
5, 4320, Note_on_c, 3, 50, 95
5, 4555, Note_off_c, 3, 50, 64
5, 4560, Note_on_c, 3, 50, 95
5, 4795, Note_off_c, 3, 50, 64
5, 4800, Note_on_c, 3, 60, 95
5, 4800, Note_on_c, 3, 65, 95
5, 4859, Note_off_c, 3, 65, 64
5, 4859, Note_off_c, 3, 60, 64
5, 5040, Note_on_c, 3, 65, 95
5, 5040, Note_on_c, 3, 69, 95
5, 5158, Note_off_c, 3, 69, 64
5, 5158, Note_off_c, 3, 65, 64
5, 5220, Note_on_c, 3, 65, 95
5, 5220, Note_on_c, 3, 70, 95
5, 5398, Note_off_c, 3, 70, 64
5, 5398, Note_off_c, 3, 65, 64
5, 5400, Note_on_c, 3, 65, 95
5, 5400, Note_on_c, 3, 70, 95
5, 5518, Note_off_c, 3, 70, 64
5, 5518, Note_off_c, 3, 65, 64
5, 5520, Note_on_c, 3, 65, 95
5, 5520, Note_on_c, 3, 70, 95
5, 5638, Note_off_c, 3, 70, 64
5, 5638, Note_off_c, 3, 65, 64
5, 5700, Note_on_c, 3, 60, 95
5, 5700, Note_on_c, 3, 65, 95
5, 5936, Note_off_c, 3, 65, 64
5, 5936, Note_off_c, 3, 60, 64
5, 5940, Note_on_c, 3, 60, 95
5, 5940, Note_on_c, 3, 65, 95
5, 5999, Note_off_c, 3, 65, 64
5, 5999, Note_off_c, 3, 60, 64
5, 6000, Note_on_c, 3, 53, 95
5, 6059, Note_off_c, 3, 53, 64
5, 6060, Note_on_c, 3, 57, 95
5, 6119, Note_off_c, 3, 57, 64
5, 6120, Note_on_c, 3, 60, 95
5, 6238, Note_off_c, 3, 60, 64
5, 6240, Note_on_c, 3, 57, 95
5, 6299, Note_off_c, 3, 57, 64
5, 6300, Note_on_c, 3, 60, 95
5, 6359, Note_off_c, 3, 60, 64
5, 6360, Note_on_c, 3, 60, 95
5, 6419, Note_off_c, 3, 60, 64
5, 6420, Note_on_c, 3, 60, 95
5, 6420, Note_on_c, 3, 65, 95
5, 6539, Note_off_c, 3, 65, 64
5, 6539, Note_off_c, 3, 60, 64
5, 6540, Note_on_c, 3, 55, 95
5, 6599, Note_off_c, 3, 55, 64
5, 6600, Note_on_c, 3, 53, 95
5, 6718, Note_off_c, 3, 53, 64
5, 6720, Note_on_c, 3, 53, 95
5, 6720, Note_on_c, 3, 58, 95
5, 6720, Note_on_c, 3, 62, 95
5, 6896, Note_off_c, 3, 62, 64
5, 6896, Note_off_c, 3, 58, 64
5, 6896, Note_off_c, 3, 53, 64
5, 6900, Note_on_c, 3, 53, 95
5, 6900, Note_on_c, 3, 58, 95
5, 6900, Note_on_c, 3, 62, 95
5, 7136, Note_off_c, 3, 62, 64
5, 7136, Note_off_c, 3, 58, 64
5, 7136, Note_off_c, 3, 53, 64
5, 7140, Note_on_c, 3, 65, 95
5, 7199, Note_off_c, 3, 65, 64
5, 7200, Note_on_c, 3, 70, 95
5, 7200, Note_on_c, 3, 74, 95
5, 7435, Note_off_c, 3, 74, 64
5, 7435, Note_off_c, 3, 70, 64
5, 7440, Note_on_c, 3, 65, 95
5, 7440, Note_on_c, 3, 70, 95
5, 7675, Note_off_c, 3, 70, 64
5, 7675, Note_off_c, 3, 65, 64
5, 7680, Note_on_c, 3, 65, 95
5, 7680, Note_on_c, 3, 69, 95
5, 7915, Note_off_c, 3, 69, 64
5, 7915, Note_off_c, 3, 65, 64
5, 7920, Note_on_c, 3, 60, 95
5, 7920, Note_on_c, 3, 65, 95
5, 8096, Note_off_c, 3, 65, 64
5, 8096, Note_off_c, 3, 60, 64
5, 8100, Note_on_c, 3, 65, 95
5, 8100, Note_on_c, 3, 69, 95
5, 8336, Note_off_c, 3, 69, 64
5, 8336, Note_off_c, 3, 65, 64
5, 8340, Note_on_c, 3, 64, 95
5, 8340, Note_on_c, 3, 67, 95
5, 8459, Note_off_c, 3, 67, 64
5, 8459, Note_off_c, 3, 64, 64
5, 8460, Note_on_c, 3, 60, 95
5, 8519, Note_off_c, 3, 60, 64
5, 8520, Note_on_c, 3, 60, 95
5, 8520, Note_on_c, 3, 65, 95
5, 8638, Note_off_c, 3, 65, 64
5, 8638, Note_off_c, 3, 60, 64
5, 8640, Note_on_c, 3, 55, 95
5, 8688, Note_off_c, 3, 55, 64
5, 8700, Note_on_c, 3, 60, 95
5, 8748, Note_off_c, 3, 60, 64
5, 8760, Note_on_c, 3, 55, 95
5, 8808, Note_off_c, 3, 55, 64
5, 8820, Note_on_c, 3, 60, 95
5, 8820, Note_on_c, 3, 64, 95
5, 8820, Note_on_c, 3, 67, 95
5, 8928, Note_off_c, 3, 67, 64
5, 8928, Note_off_c, 3, 64, 64
5, 8928, Note_off_c, 3, 60, 64
5, 8940, Note_on_c, 3, 55, 95
5, 8988, Note_off_c, 3, 55, 64
5, 9000, Note_on_c, 3, 55, 95
5, 9000, Note_on_c, 3, 60, 95
5, 9000, Note_on_c, 3, 64, 95
5, 9096, Note_off_c, 3, 64, 64
5, 9096, Note_off_c, 3, 60, 64
5, 9096, Note_off_c, 3, 55, 64
5, 9120, Note_on_c, 3, 64, 95
5, 9120, Note_on_c, 3, 67, 95
5, 9264, Note_off_c, 3, 67, 64
5, 9264, Note_off_c, 3, 64, 64
5, 9300, Note_on_c, 3, 67, 95
5, 9348, Note_off_c, 3, 67, 64
5, 9360, Note_on_c, 3, 62, 95
5, 9360, Note_on_c, 3, 67, 95
5, 9408, Note_off_c, 3, 67, 64
5, 9408, Note_off_c, 3, 62, 64
5, 9420, Note_on_c, 3, 64, 95
5, 9516, Note_off_c, 3, 64, 64
5, 9540, Note_on_c, 3, 74, 95
5, 9540, Note_on_c, 3, 69, 95
5, 9588, Note_off_c, 3, 69, 64
5, 9588, Note_off_c, 3, 74, 64
5, 9660, Note_on_c, 3, 65, 95
5, 9708, Note_off_c, 3, 65, 64
5, 9720, Note_on_c, 3, 69, 95
5, 9768, Note_off_c, 3, 69, 64
5, 9780, Note_on_c, 3, 69, 95
5, 9780, Note_on_c, 3, 65, 95
5, 9888, Note_off_c, 3, 65, 64
5, 9888, Note_off_c, 3, 69, 64
5, 9960, Note_on_c, 3, 69, 95
5, 10056, Note_off_c, 3, 69, 64
5, 10080, Note_on_c, 3, 65, 95
5, 10128, Note_off_c, 3, 65, 64
5, 10140, Note_on_c, 3, 57, 95
5, 10188, Note_off_c, 3, 57, 64
5, 10200, Note_on_c, 3, 62, 95
5, 10248, Note_off_c, 3, 62, 64
5, 10260, Note_on_c, 3, 65, 95
5, 10260, Note_on_c, 3, 62, 95
5, 10368, Note_off_c, 3, 62, 64
5, 10368, Note_off_c, 3, 65, 64
5, 10380, Note_on_c, 3, 62, 95
5, 10428, Note_off_c, 3, 62, 64
5, 10440, Note_on_c, 3, 65, 95
5, 10440, Note_on_c, 3, 62, 95
5, 10488, Note_off_c, 3, 62, 64
5, 10488, Note_off_c, 3, 65, 64
5, 10560, Note_on_c, 3, 69, 95
5, 10560, Note_on_c, 3, 64, 95
5, 10608, Note_off_c, 3, 64, 64
5, 10608, Note_off_c, 3, 69, 64
5, 10620, Note_on_c, 3, 69, 95
5, 10620, Note_on_c, 3, 64, 95
5, 10764, Note_off_c, 3, 64, 64
5, 10764, Note_off_c, 3, 69, 64
5, 10800, Note_on_c, 3, 69, 95
5, 10848, Note_off_c, 3, 69, 64
5, 10980, Note_on_c, 3, 70, 95
5, 10980, Note_on_c, 3, 65, 95
5, 11088, Note_off_c, 3, 65, 64
5, 11088, Note_off_c, 3, 70, 64
5, 11100, Note_on_c, 3, 65, 95
5, 11100, Note_on_c, 3, 62, 95
5, 11196, Note_off_c, 3, 62, 64
5, 11196, Note_off_c, 3, 65, 64
5, 11220, Note_on_c, 3, 65, 95
5, 11220, Note_on_c, 3, 62, 95
5, 11376, Note_off_c, 3, 62, 64
5, 11376, Note_off_c, 3, 65, 64
5, 11520, Note_on_c, 3, 62, 95
5, 11520, Note_on_c, 3, 65, 95
5, 11696, Note_off_c, 3, 65, 64
5, 11696, Note_off_c, 3, 62, 64
5, 11700, Note_on_c, 3, 55, 95
5, 11759, Note_off_c, 3, 55, 64
5, 11760, Note_on_c, 3, 58, 95
5, 11760, Note_on_c, 3, 62, 95
5, 11819, Note_off_c, 3, 62, 64
5, 11819, Note_off_c, 3, 58, 64
5, 11820, Note_on_c, 3, 58, 95
5, 11820, Note_on_c, 3, 62, 95
5, 11938, Note_off_c, 3, 62, 64
5, 11938, Note_off_c, 3, 58, 64
5, 11940, Note_on_c, 3, 58, 95
5, 11940, Note_on_c, 3, 62, 95
5, 12059, Note_off_c, 3, 62, 64
5, 12059, Note_off_c, 3, 58, 64
5, 12060, Note_on_c, 3, 58, 95
5, 12060, Note_on_c, 3, 62, 95
5, 12178, Note_off_c, 3, 62, 64
5, 12178, Note_off_c, 3, 58, 64
5, 12180, Note_on_c, 3, 58, 95
5, 12180, Note_on_c, 3, 62, 95
5, 12299, Note_off_c, 3, 62, 64
5, 12299, Note_off_c, 3, 58, 64
5, 12300, Note_on_c, 3, 58, 95
5, 12300, Note_on_c, 3, 62, 95
5, 12418, Note_off_c, 3, 62, 64
5, 12418, Note_off_c, 3, 58, 64
5, 12420, Note_on_c, 3, 58, 95
5, 12420, Note_on_c, 3, 62, 95
5, 12479, Note_off_c, 3, 62, 64
5, 12479, Note_off_c, 3, 58, 64
5, 12480, Note_on_c, 3, 60, 95
5, 12480, Note_on_c, 3, 65, 95
5, 12672, Note_off_c, 3, 65, 64
5, 12672, Note_off_c, 3, 60, 64
5, 12720, Note_on_c, 3, 65, 95
5, 12720, Note_on_c, 3, 69, 95
5, 12912, Note_off_c, 3, 69, 64
5, 12912, Note_off_c, 3, 65, 64
5, 12960, Note_on_c, 3, 65, 95
5, 12960, Note_on_c, 3, 70, 95
5, 13008, Note_off_c, 3, 70, 64
5, 13008, Note_off_c, 3, 65, 64
5, 13020, Note_on_c, 3, 65, 95
5, 13020, Note_on_c, 3, 70, 95
5, 13164, Note_off_c, 3, 70, 64
5, 13164, Note_off_c, 3, 65, 64
5, 13200, Note_on_c, 3, 65, 95
5, 13200, Note_on_c, 3, 70, 95
5, 13296, Note_off_c, 3, 70, 64
5, 13296, Note_off_c, 3, 65, 64
5, 13440, Note_on_c, 3, 60, 95
5, 13440, Note_on_c, 3, 65, 95
5, 13536, Note_off_c, 3, 65, 64
5, 13536, Note_off_c, 3, 60, 64
5, 13560, Note_on_c, 3, 60, 95
5, 13560, Note_on_c, 3, 65, 95
5, 13608, Note_off_c, 3, 65, 64
5, 13608, Note_off_c, 3, 60, 64
5, 13620, Note_on_c, 3, 60, 95
5, 13668, Note_off_c, 3, 60, 64
5, 13680, Note_on_c, 3, 53, 95
5, 13728, Note_off_c, 3, 53, 64
5, 13740, Note_on_c, 3, 57, 95
5, 13788, Note_off_c, 3, 57, 64
5, 13800, Note_on_c, 3, 60, 95
5, 13896, Note_off_c, 3, 60, 64
5, 13920, Note_on_c, 3, 57, 95
5, 13968, Note_off_c, 3, 57, 64
5, 13980, Note_on_c, 3, 58, 95
5, 14028, Note_off_c, 3, 58, 64
5, 14040, Note_on_c, 3, 60, 95
5, 14088, Note_off_c, 3, 60, 64
5, 14100, Note_on_c, 3, 60, 95
5, 14100, Note_on_c, 3, 65, 95
5, 14208, Note_off_c, 3, 65, 64
5, 14208, Note_off_c, 3, 60, 64
5, 14220, Note_on_c, 3, 55, 95
5, 14268, Note_off_c, 3, 55, 64
5, 14280, Note_on_c, 3, 53, 95
5, 14376, Note_off_c, 3, 53, 64
5, 14400, Note_on_c, 3, 53, 95
5, 14400, Note_on_c, 3, 58, 95
5, 14400, Note_on_c, 3, 62, 95
5, 14544, Note_off_c, 3, 62, 64
5, 14544, Note_off_c, 3, 58, 64
5, 14544, Note_off_c, 3, 53, 64
5, 14580, Note_on_c, 3, 53, 95
5, 14580, Note_on_c, 3, 58, 95
5, 14580, Note_on_c, 3, 62, 95
5, 14784, Note_off_c, 3, 62, 64
5, 14784, Note_off_c, 3, 58, 64
5, 14784, Note_off_c, 3, 53, 64
5, 14820, Note_on_c, 3, 65, 95
5, 14868, Note_off_c, 3, 65, 64
5, 14880, Note_on_c, 3, 70, 95
5, 14880, Note_on_c, 3, 74, 95
5, 14976, Note_off_c, 3, 74, 64
5, 14976, Note_off_c, 3, 70, 64
5, 15060, Note_on_c, 3, 65, 95
5, 15060, Note_on_c, 3, 70, 95
5, 15168, Note_off_c, 3, 70, 64
5, 15168, Note_off_c, 3, 65, 64
5, 15300, Note_on_c, 3, 69, 95
5, 15300, Note_on_c, 3, 65, 95
5, 15595, Note_off_c, 3, 65, 64
5, 15595, Note_off_c, 3, 69, 64
5, 15600, Note_on_c, 3, 60, 95
5, 15600, Note_on_c, 3, 65, 95
5, 15776, Note_off_c, 3, 65, 64
5, 15776, Note_off_c, 3, 60, 64
5, 15780, Note_on_c, 3, 60, 95
5, 15839, Note_off_c, 3, 60, 64
5, 15840, Note_on_c, 3, 65, 95
5, 15840, Note_on_c, 3, 67, 95
5, 15899, Note_off_c, 3, 67, 64
5, 15899, Note_off_c, 3, 65, 64
5, 15900, Note_on_c, 3, 65, 95
5, 15900, Note_on_c, 3, 69, 95
5, 15959, Note_off_c, 3, 69, 64
5, 15959, Note_off_c, 3, 65, 64
5, 15960, Note_on_c, 3, 60, 95
5, 16019, Note_off_c, 3, 60, 64
5, 16020, Note_on_c, 3, 65, 95
5, 16020, Note_on_c, 3, 69, 95
5, 16139, Note_off_c, 3, 69, 64
5, 16139, Note_off_c, 3, 65, 64
5, 16140, Note_on_c, 3, 58, 95
5, 16140, Note_on_c, 3, 67, 95
5, 16199, Note_off_c, 3, 67, 64
5, 16199, Note_off_c, 3, 58, 64
5, 16200, Note_on_c, 3, 57, 95
5, 16200, Note_on_c, 3, 65, 95
5, 16318, Note_off_c, 3, 65, 64
5, 16318, Note_off_c, 3, 57, 64
5, 16320, Note_on_c, 3, 55, 95
5, 16379, Note_off_c, 3, 55, 64
5, 16380, Note_on_c, 3, 60, 95
5, 16439, Note_off_c, 3, 60, 64
5, 16440, Note_on_c, 3, 64, 95
5, 16499, Note_off_c, 3, 64, 64
5, 16500, Note_on_c, 3, 67, 95
5, 16559, Note_off_c, 3, 67, 64
5, 16560, Note_on_c, 3, 67, 95
5, 16560, Note_on_c, 3, 64, 95
5, 16619, Note_off_c, 3, 64, 64
5, 16619, Note_off_c, 3, 67, 64
5, 16620, Note_on_c, 3, 67, 95
5, 16620, Note_on_c, 3, 64, 95
5, 16738, Note_off_c, 3, 64, 64
5, 16738, Note_off_c, 3, 67, 64
5, 16740, Note_on_c, 3, 67, 95
5, 16740, Note_on_c, 3, 64, 95
5, 16859, Note_off_c, 3, 64, 64
5, 16859, Note_off_c, 3, 67, 64
5, 16860, Note_on_c, 3, 67, 95
5, 16919, Note_off_c, 3, 67, 64
5, 16920, Note_on_c, 3, 60, 95
5, 16979, Note_off_c, 3, 60, 64
5, 16980, Note_on_c, 3, 67, 95
5, 16980, Note_on_c, 3, 62, 95
5, 17099, Note_off_c, 3, 62, 64
5, 17099, Note_off_c, 3, 67, 64
5, 17100, Note_on_c, 3, 67, 95
5, 17100, Note_on_c, 3, 64, 95
5, 17276, Note_off_c, 3, 64, 64
5, 17276, Note_off_c, 3, 67, 64
5, 17280, Note_on_c, 3, 69, 95
5, 17280, Note_on_c, 3, 74, 95
5, 17339, Note_off_c, 3, 74, 64
5, 17339, Note_off_c, 3, 69, 64
5, 17340, Note_on_c, 3, 65, 95
5, 17340, Note_on_c, 3, 69, 95
5, 17516, Note_off_c, 3, 69, 64
5, 17516, Note_off_c, 3, 65, 64
5, 17520, Note_on_c, 3, 65, 95
5, 17520, Note_on_c, 3, 69, 95
5, 17579, Note_off_c, 3, 69, 64
5, 17579, Note_off_c, 3, 65, 64
5, 17580, Note_on_c, 3, 62, 95
5, 17639, Note_off_c, 3, 62, 64
5, 17640, Note_on_c, 3, 57, 95
5, 17758, Note_off_c, 3, 57, 64
5, 17760, Note_on_c, 3, 53, 95
5, 17819, Note_off_c, 3, 53, 64
5, 17820, Note_on_c, 3, 57, 95
5, 17879, Note_off_c, 3, 57, 64
5, 17880, Note_on_c, 3, 62, 95
5, 17939, Note_off_c, 3, 62, 64
5, 17940, Note_on_c, 3, 62, 95
5, 17940, Note_on_c, 3, 65, 95
5, 18059, Note_off_c, 3, 65, 64
5, 18059, Note_off_c, 3, 62, 64
5, 18060, Note_on_c, 3, 60, 95
5, 18119, Note_off_c, 3, 60, 64
5, 18120, Note_on_c, 3, 62, 95
5, 18120, Note_on_c, 3, 65, 95
5, 18179, Note_off_c, 3, 65, 64
5, 18179, Note_off_c, 3, 62, 64
5, 18240, Note_on_c, 3, 64, 95
5, 18240, Note_on_c, 3, 69, 95
5, 18416, Note_off_c, 3, 69, 64
5, 18416, Note_off_c, 3, 64, 64
5, 18420, Note_on_c, 3, 64, 95
5, 18420, Note_on_c, 3, 69, 95
5, 18598, Note_off_c, 3, 69, 64
5, 18598, Note_off_c, 3, 64, 64
5, 18600, Note_on_c, 3, 60, 95
5, 18600, Note_on_c, 3, 64, 95
5, 18718, Note_off_c, 3, 64, 64
5, 18718, Note_off_c, 3, 60, 64
5, 18720, Note_on_c, 3, 65, 95
5, 18720, Note_on_c, 3, 70, 95
5, 18896, Note_off_c, 3, 70, 64
5, 18896, Note_off_c, 3, 65, 64
5, 18900, Note_on_c, 3, 62, 95
5, 18900, Note_on_c, 3, 65, 95
5, 19136, Note_off_c, 3, 65, 64
5, 19136, Note_off_c, 3, 62, 64
5, 19140, Note_on_c, 3, 62, 95
5, 19140, Note_on_c, 3, 65, 95
5, 19248, Note_off_c, 3, 65, 64
5, 19248, Note_off_c, 3, 62, 64
5, 19260, Note_on_c, 3, 62, 95
5, 19260, Note_on_c, 3, 65, 95
5, 19356, Note_off_c, 3, 65, 64
5, 19356, Note_off_c, 3, 62, 64
5, 19380, Note_on_c, 3, 62, 95
5, 19380, Note_on_c, 3, 65, 95
5, 19428, Note_off_c, 3, 65, 64
5, 19428, Note_off_c, 3, 62, 64
5, 19440, Note_on_c, 3, 62, 95
5, 19440, Note_on_c, 3, 65, 95
5, 19584, Note_off_c, 3, 65, 64
5, 19584, Note_off_c, 3, 62, 64
5, 19620, Note_on_c, 3, 62, 95
5, 19620, Note_on_c, 3, 65, 95
5, 19668, Note_off_c, 3, 65, 64
5, 19668, Note_off_c, 3, 62, 64
5, 19680, Note_on_c, 3, 62, 95
5, 19680, Note_on_c, 3, 65, 95
5, 19872, Note_off_c, 3, 65, 64
5, 19872, Note_off_c, 3, 62, 64
5, 19920, Note_on_c, 3, 55, 95
5, 19968, Note_off_c, 3, 55, 64
5, 19980, Note_on_c, 3, 56, 95
5, 20124, Note_off_c, 3, 56, 64
5, 20160, Note_on_c, 3, 57, 95
5, 20278, Note_off_c, 3, 57, 64
5, 20280, Note_on_c, 3, 60, 95
5, 20280, Note_on_c, 3, 64, 95
5, 20339, Note_off_c, 3, 64, 64
5, 20339, Note_off_c, 3, 60, 64
5, 20400, Note_on_c, 3, 64, 95
5, 20400, Note_on_c, 3, 69, 95
5, 20518, Note_off_c, 3, 69, 64
5, 20518, Note_off_c, 3, 64, 64
5, 20580, Note_on_c, 3, 69, 95
5, 20580, Note_on_c, 3, 74, 95
5, 20699, Note_off_c, 3, 74, 64
5, 20699, Note_off_c, 3, 69, 64
5, 20880, Note_on_c, 3, 69, 95
5, 20880, Note_on_c, 3, 74, 95
5, 20998, Note_off_c, 3, 74, 64
5, 20998, Note_off_c, 3, 69, 64
5, 21120, Note_on_c, 3, 70, 95
5, 21120, Note_on_c, 3, 74, 95
5, 21179, Note_off_c, 3, 74, 64
5, 21179, Note_off_c, 3, 70, 64
5, 21240, Note_on_c, 3, 70, 95
5, 21240, Note_on_c, 3, 74, 95
5, 21478, Note_off_c, 3, 74, 64
5, 21478, Note_off_c, 3, 70, 64
5, 21480, Note_on_c, 3, 65, 95
5, 21480, Note_on_c, 3, 70, 95
5, 21539, Note_off_c, 3, 70, 64
5, 21539, Note_off_c, 3, 65, 64
5, 21600, Note_on_c, 3, 69, 95
5, 21600, Note_on_c, 3, 72, 95
5, 21659, Note_off_c, 3, 72, 64
5, 21659, Note_off_c, 3, 69, 64
5, 21780, Note_on_c, 3, 69, 95
5, 21780, Note_on_c, 3, 72, 95
5, 21958, Note_off_c, 3, 72, 64
5, 21958, Note_off_c, 3, 69, 64
5, 22020, Note_on_c, 3, 70, 95
5, 22020, Note_on_c, 3, 74, 95
5, 22139, Note_off_c, 3, 74, 64
5, 22139, Note_off_c, 3, 70, 64
5, 22200, Note_on_c, 3, 70, 95
5, 22200, Note_on_c, 3, 74, 95
5, 22438, Note_off_c, 3, 74, 64
5, 22438, Note_off_c, 3, 70, 64
5, 22440, Note_on_c, 3, 65, 95
5, 22440, Note_on_c, 3, 70, 95
5, 22499, Note_off_c, 3, 70, 64
5, 22499, Note_off_c, 3, 65, 64
5, 22560, Note_on_c, 3, 69, 95
5, 22560, Note_on_c, 3, 72, 95
5, 22678, Note_off_c, 3, 72, 64
5, 22678, Note_off_c, 3, 69, 64
5, 22680, Note_on_c, 3, 69, 95
5, 22680, Note_on_c, 3, 72, 95
5, 22859, Note_off_c, 3, 72, 64
5, 22859, Note_off_c, 3, 69, 64
5, 22860, Note_on_c, 3, 65, 95
5, 22919, Note_off_c, 3, 65, 64
5, 22920, Note_on_c, 3, 65, 95
5, 22920, Note_on_c, 3, 72, 95
5, 23038, Note_off_c, 3, 72, 64
5, 23038, Note_off_c, 3, 65, 64
5, 23160, Note_on_c, 3, 70, 95
5, 23160, Note_on_c, 3, 74, 95
5, 23219, Note_off_c, 3, 74, 64
5, 23219, Note_off_c, 3, 70, 64
5, 23280, Note_on_c, 3, 70, 95
5, 23280, Note_on_c, 3, 74, 95
5, 23339, Note_off_c, 3, 74, 64
5, 23339, Note_off_c, 3, 70, 64
5, 23460, Note_on_c, 3, 69, 95
5, 23460, Note_on_c, 3, 72, 95
5, 23579, Note_off_c, 3, 72, 64
5, 23579, Note_off_c, 3, 69, 64
5, 23640, Note_on_c, 3, 69, 95
5, 23640, Note_on_c, 3, 72, 95
5, 23878, Note_off_c, 3, 72, 64
5, 23878, Note_off_c, 3, 69, 64
5, 23940, Note_on_c, 3, 65, 95
5, 23940, Note_on_c, 3, 70, 95
5, 24235, Note_off_c, 3, 70, 64
5, 24235, Note_off_c, 3, 65, 64
5, 24240, Note_on_c, 3, 62, 95
5, 24240, Note_on_c, 3, 65, 95
5, 24475, Note_off_c, 3, 65, 64
5, 24475, Note_off_c, 3, 62, 64
5, 24480, Note_on_c, 3, 67, 95
5, 24480, Note_on_c, 3, 55, 95
5, 24539, Note_off_c, 3, 55, 64
5, 24539, Note_off_c, 3, 67, 64
5, 24540, Note_on_c, 3, 74, 95
5, 24540, Note_on_c, 3, 62, 95
5, 24658, Note_off_c, 3, 62, 64
5, 24658, Note_off_c, 3, 74, 64
5, 24660, Note_on_c, 3, 79, 95
5, 24660, Note_on_c, 3, 67, 95
5, 24779, Note_off_c, 3, 67, 64
5, 24779, Note_off_c, 3, 79, 64
5, 24780, Note_on_c, 3, 74, 95
5, 24780, Note_on_c, 3, 62, 95
5, 24898, Note_off_c, 3, 62, 64
5, 24898, Note_off_c, 3, 74, 64
5, 24900, Note_on_c, 3, 67, 95
5, 24900, Note_on_c, 3, 55, 95
5, 24959, Note_off_c, 3, 55, 64
5, 24959, Note_off_c, 3, 67, 64
5, 24960, Note_on_c, 3, 55, 95
5, 25195, Note_off_c, 3, 55, 64
5, 25200, Note_on_c, 3, 58, 95
5, 25200, Note_on_c, 3, 62, 95
5, 25200, Note_on_c, 3, 65, 95
5, 25259, Note_off_c, 3, 65, 64
5, 25259, Note_off_c, 3, 62, 64
5, 25259, Note_off_c, 3, 58, 64
5, 25260, Note_on_c, 3, 60, 95
5, 25319, Note_off_c, 3, 60, 64
5, 25320, Note_on_c, 3, 62, 95
5, 25379, Note_off_c, 3, 62, 64
5, 25380, Note_on_c, 3, 65, 95
5, 25439, Note_off_c, 3, 65, 64
5, 25440, Note_on_c, 3, 70, 95
5, 25440, Note_on_c, 3, 62, 95
5, 25440, Note_on_c, 3, 65, 95
5, 25499, Note_off_c, 3, 65, 64
5, 25499, Note_off_c, 3, 62, 64
5, 25499, Note_off_c, 3, 70, 64
5, 25860, Note_on_c, 3, 74, 95
5, 25860, Note_on_c, 3, 77, 95
5, 25979, Note_off_c, 3, 77, 64
5, 25979, Note_off_c, 3, 74, 64
5, 25980, Note_on_c, 3, 70, 95
5, 25980, Note_on_c, 3, 74, 95
5, 26156, Note_off_c, 3, 74, 64
5, 26156, Note_off_c, 3, 70, 64
5, 26160, Note_on_c, 3, 70, 95
5, 26160, Note_on_c, 3, 74, 95
5, 26219, Note_off_c, 3, 74, 64
5, 26219, Note_off_c, 3, 70, 64
5, 26220, Note_on_c, 3, 70, 95
5, 26220, Note_on_c, 3, 75, 95
5, 26338, Note_off_c, 3, 75, 64
5, 26338, Note_off_c, 3, 70, 64
5, 26340, Note_on_c, 3, 70, 95
5, 26340, Note_on_c, 3, 74, 95
5, 26459, Note_off_c, 3, 74, 64
5, 26459, Note_off_c, 3, 70, 64
5, 26580, Note_on_c, 3, 67, 95
5, 26580, Note_on_c, 3, 70, 95
5, 26699, Note_off_c, 3, 70, 64
5, 26699, Note_off_c, 3, 67, 64
5, 26700, Note_on_c, 3, 70, 95
5, 26700, Note_on_c, 3, 74, 95
5, 26759, Note_off_c, 3, 74, 64
5, 26759, Note_off_c, 3, 70, 64
5, 26880, Note_on_c, 3, 69, 95
5, 26880, Note_on_c, 3, 72, 95
5, 26998, Note_off_c, 3, 72, 64
5, 26998, Note_off_c, 3, 69, 64
5, 27120, Note_on_c, 3, 65, 95
5, 27120, Note_on_c, 3, 69, 95
5, 27238, Note_off_c, 3, 69, 64
5, 27238, Note_off_c, 3, 65, 64
5, 27240, Note_on_c, 3, 69, 95
5, 27240, Note_on_c, 3, 72, 95
5, 27358, Note_off_c, 3, 72, 64
5, 27358, Note_off_c, 3, 69, 64
5, 27540, Note_on_c, 3, 69, 95
5, 27540, Note_on_c, 3, 72, 95
5, 27659, Note_off_c, 3, 72, 64
5, 27659, Note_off_c, 3, 69, 64
5, 27780, Note_on_c, 3, 70, 95
5, 27780, Note_on_c, 3, 77, 95
5, 27958, Note_off_c, 3, 77, 64
5, 27958, Note_off_c, 3, 70, 64
5, 27960, Note_on_c, 3, 70, 95
5, 27960, Note_on_c, 3, 74, 95
5, 28078, Note_off_c, 3, 74, 64
5, 28078, Note_off_c, 3, 70, 64
5, 28080, Note_on_c, 3, 70, 95
5, 28080, Note_on_c, 3, 74, 95
5, 28139, Note_off_c, 3, 74, 64
5, 28139, Note_off_c, 3, 70, 64
5, 28140, Note_on_c, 3, 70, 95
5, 28140, Note_on_c, 3, 75, 95
5, 28258, Note_off_c, 3, 75, 64
5, 28258, Note_off_c, 3, 70, 64
5, 28260, Note_on_c, 3, 70, 95
5, 28260, Note_on_c, 3, 74, 95
5, 28379, Note_off_c, 3, 74, 64
5, 28379, Note_off_c, 3, 70, 64
5, 28500, Note_on_c, 3, 67, 95
5, 28500, Note_on_c, 3, 70, 95
5, 28619, Note_off_c, 3, 70, 64
5, 28619, Note_off_c, 3, 67, 64
5, 28680, Note_on_c, 3, 70, 95
5, 28680, Note_on_c, 3, 74, 95
5, 28739, Note_off_c, 3, 74, 64
5, 28739, Note_off_c, 3, 70, 64
5, 28800, Note_on_c, 3, 69, 95
5, 28800, Note_on_c, 3, 72, 95
5, 28918, Note_off_c, 3, 72, 64
5, 28918, Note_off_c, 3, 69, 64
5, 28980, Note_on_c, 3, 69, 95
5, 28980, Note_on_c, 3, 72, 95
5, 29099, Note_off_c, 3, 72, 64
5, 29099, Note_off_c, 3, 69, 64
5, 29700, Note_on_c, 3, 70, 95
5, 29700, Note_on_c, 3, 74, 95
5, 29819, Note_off_c, 3, 74, 64
5, 29819, Note_off_c, 3, 70, 64
5, 29820, Note_on_c, 3, 70, 95
5, 29820, Note_on_c, 3, 74, 95
5, 29996, Note_off_c, 3, 74, 64
5, 29996, Note_off_c, 3, 70, 64
5, 30000, Note_on_c, 3, 70, 95
5, 30000, Note_on_c, 3, 74, 95
5, 30059, Note_off_c, 3, 74, 64
5, 30059, Note_off_c, 3, 70, 64
5, 30060, Note_on_c, 3, 70, 95
5, 30060, Note_on_c, 3, 75, 95
5, 30178, Note_off_c, 3, 75, 64
5, 30178, Note_off_c, 3, 70, 64
5, 30180, Note_on_c, 3, 70, 95
5, 30180, Note_on_c, 3, 74, 95
5, 30299, Note_off_c, 3, 74, 64
5, 30299, Note_off_c, 3, 70, 64
5, 30420, Note_on_c, 3, 67, 95
5, 30420, Note_on_c, 3, 70, 95
5, 30539, Note_off_c, 3, 70, 64
5, 30539, Note_off_c, 3, 67, 64
5, 30660, Note_on_c, 3, 68, 95
5, 30660, Note_on_c, 3, 72, 95
5, 30779, Note_off_c, 3, 72, 64
5, 30779, Note_off_c, 3, 68, 64
5, 31020, Note_on_c, 3, 69, 95
5, 31020, Note_on_c, 3, 72, 95
5, 31196, Note_off_c, 3, 72, 64
5, 31196, Note_off_c, 3, 69, 64
5, 31200, Note_on_c, 3, 57, 95
5, 31200, Note_on_c, 3, 65, 95
5, 31318, Note_off_c, 3, 65, 64
5, 31318, Note_off_c, 3, 57, 64
5, 31320, Note_on_c, 3, 58, 95
5, 31320, Note_on_c, 3, 67, 95
5, 31438, Note_off_c, 3, 67, 64
5, 31438, Note_off_c, 3, 58, 64
5, 31440, Note_on_c, 3, 65, 95
5, 31440, Note_on_c, 3, 69, 95
5, 31558, Note_off_c, 3, 69, 64
5, 31558, Note_off_c, 3, 65, 64
5, 31560, Note_on_c, 3, 69, 95
5, 31560, Note_on_c, 3, 72, 95
5, 31678, Note_off_c, 3, 72, 64
5, 31678, Note_off_c, 3, 69, 64
5, 31680, Note_on_c, 3, 74, 95
5, 31680, Note_on_c, 3, 77, 95
5, 31915, Note_off_c, 3, 77, 64
5, 31915, Note_off_c, 3, 74, 64
5, 31920, Note_on_c, 3, 69, 95
5, 32038, Note_off_c, 3, 69, 64
5, 32040, Note_on_c, 3, 65, 95
5, 32158, Note_off_c, 3, 65, 64
5, 32160, Note_on_c, 3, 70, 95
5, 32160, Note_on_c, 3, 74, 95
5, 32395, Note_off_c, 3, 74, 64
5, 32395, Note_off_c, 3, 70, 64
5, 32400, Note_on_c, 3, 62, 95
5, 32518, Note_off_c, 3, 62, 64
5, 32520, Note_on_c, 3, 60, 95
5, 32638, Note_off_c, 3, 60, 64
5, 32640, Note_on_c, 3, 65, 95
5, 32640, Note_on_c, 3, 70, 95
5, 32875, Note_off_c, 3, 70, 64
5, 32875, Note_off_c, 3, 65, 64
5, 32880, Note_on_c, 3, 65, 95
5, 32880, Note_on_c, 3, 70, 95
5, 33115, Note_off_c, 3, 70, 64
5, 33115, Note_off_c, 3, 65, 64
5, 33120, Note_on_c, 3, 64, 95
5, 33120, Note_on_c, 3, 67, 95
5, 33296, Note_off_c, 3, 67, 64
5, 33296, Note_off_c, 3, 64, 64
5, 33300, Note_on_c, 3, 60, 95
5, 33359, Note_off_c, 3, 60, 64
5, 33360, Note_on_c, 3, 60, 95
5, 33419, Note_off_c, 3, 60, 64
5, 33420, Note_on_c, 3, 62, 95
5, 33479, Note_off_c, 3, 62, 64
5, 33480, Note_on_c, 3, 65, 95
5, 33539, Note_off_c, 3, 65, 64
5, 33540, Note_on_c, 3, 62, 95
5, 33599, Note_off_c, 3, 62, 64
5, 33600, Note_on_c, 3, 57, 95
5, 33600, Note_on_c, 3, 60, 95
5, 34306, Note_off_c, 3, 60, 64
5, 34306, Note_off_c, 3, 57, 64
5, 34320, Note_on_c, 3, 57, 95
5, 34320, Note_on_c, 3, 60, 95
5, 34379, Note_off_c, 3, 60, 64
5, 34379, Note_off_c, 3, 57, 64
5, 34560, Note_on_c, 3, 58, 95
5, 34560, Note_on_c, 3, 62, 95
5, 35398, Note_off_c, 3, 62, 64
5, 35398, Note_off_c, 3, 58, 64
5, 35400, Note_on_c, 3, 65, 95
5, 35400, Note_on_c, 3, 70, 95
5, 35518, Note_off_c, 3, 70, 64
5, 35518, Note_off_c, 3, 65, 64
5, 35760, Note_on_c, 3, 65, 95
5, 35760, Note_on_c, 3, 69, 95
5, 35995, Note_off_c, 3, 69, 64
5, 35995, Note_off_c, 3, 65, 64
5, 36240, Note_on_c, 3, 57, 95
5, 36240, Note_on_c, 3, 60, 95
5, 36299, Note_off_c, 3, 60, 64
5, 36299, Note_off_c, 3, 57, 64
5, 36480, Note_on_c, 3, 58, 95
5, 36480, Note_on_c, 3, 62, 95
5, 37421, Note_off_c, 3, 62, 64
5, 37421, Note_off_c, 3, 58, 64
5, 37440, Note_on_c, 3, 65, 95
5, 37440, Note_on_c, 3, 60, 95
5, 37499, Note_off_c, 3, 60, 64
5, 37499, Note_off_c, 3, 65, 64
5, 37680, Note_on_c, 3, 69, 95
5, 37680, Note_on_c, 3, 65, 95
5, 37798, Note_off_c, 3, 65, 64
5, 37798, Note_off_c, 3, 69, 64
5, 37860, Note_on_c, 3, 70, 95
5, 37860, Note_on_c, 3, 65, 95
5, 38038, Note_off_c, 3, 65, 64
5, 38038, Note_off_c, 3, 70, 64
5, 38040, Note_on_c, 3, 70, 95
5, 38040, Note_on_c, 3, 65, 95
5, 38158, Note_off_c, 3, 65, 64
5, 38158, Note_off_c, 3, 70, 64
5, 38160, Note_on_c, 3, 70, 95
5, 38160, Note_on_c, 3, 65, 95
5, 38278, Note_off_c, 3, 65, 64
5, 38278, Note_off_c, 3, 70, 64
5, 38340, Note_on_c, 3, 65, 95
5, 38340, Note_on_c, 3, 60, 95
5, 38576, Note_off_c, 3, 60, 64
5, 38576, Note_off_c, 3, 65, 64
5, 38580, Note_on_c, 3, 65, 95
5, 38580, Note_on_c, 3, 60, 95
5, 38639, Note_off_c, 3, 60, 64
5, 38639, Note_off_c, 3, 65, 64
5, 38640, Note_on_c, 3, 53, 95
5, 38699, Note_off_c, 3, 53, 64
5, 38700, Note_on_c, 3, 57, 95
5, 38759, Note_off_c, 3, 57, 64
5, 38760, Note_on_c, 3, 60, 95
5, 38878, Note_off_c, 3, 60, 64
5, 38880, Note_on_c, 3, 57, 95
5, 38939, Note_off_c, 3, 57, 64
5, 38940, Note_on_c, 3, 60, 95
5, 38999, Note_off_c, 3, 60, 64
5, 39000, Note_on_c, 3, 60, 95
5, 39059, Note_off_c, 3, 60, 64
5, 39060, Note_on_c, 3, 65, 95
5, 39060, Note_on_c, 3, 60, 95
5, 39179, Note_off_c, 3, 60, 64
5, 39179, Note_off_c, 3, 65, 64
5, 39180, Note_on_c, 3, 55, 95
5, 39239, Note_off_c, 3, 55, 64
5, 39240, Note_on_c, 3, 53, 95
5, 39358, Note_off_c, 3, 53, 64
5, 39360, Note_on_c, 3, 62, 95
5, 39360, Note_on_c, 3, 58, 95
5, 39360, Note_on_c, 3, 53, 95
5, 39536, Note_off_c, 3, 53, 64
5, 39536, Note_off_c, 3, 58, 64
5, 39536, Note_off_c, 3, 62, 64
5, 39540, Note_on_c, 3, 62, 95
5, 39540, Note_on_c, 3, 58, 95
5, 39540, Note_on_c, 3, 53, 95
5, 39776, Note_off_c, 3, 53, 64
5, 39776, Note_off_c, 3, 58, 64
5, 39776, Note_off_c, 3, 62, 64
5, 39780, Note_on_c, 3, 65, 95
5, 39839, Note_off_c, 3, 65, 64
5, 39840, Note_on_c, 3, 74, 95
5, 39840, Note_on_c, 3, 70, 95
5, 40075, Note_off_c, 3, 70, 64
5, 40075, Note_off_c, 3, 74, 64
5, 40080, Note_on_c, 3, 70, 95
5, 40080, Note_on_c, 3, 65, 95
5, 40315, Note_off_c, 3, 65, 64
5, 40315, Note_off_c, 3, 70, 64
5, 40320, Note_on_c, 3, 69, 95
5, 40320, Note_on_c, 3, 65, 95
5, 40555, Note_off_c, 3, 65, 64
5, 40555, Note_off_c, 3, 69, 64
5, 40560, Note_on_c, 3, 65, 95
5, 40560, Note_on_c, 3, 60, 95
5, 40736, Note_off_c, 3, 60, 64
5, 40736, Note_off_c, 3, 65, 64
5, 40740, Note_on_c, 3, 69, 95
5, 40740, Note_on_c, 3, 65, 95
5, 40976, Note_off_c, 3, 65, 64
5, 40976, Note_off_c, 3, 69, 64
5, 40980, Note_on_c, 3, 67, 95
5, 40980, Note_on_c, 3, 64, 95
5, 41099, Note_off_c, 3, 64, 64
5, 41099, Note_off_c, 3, 67, 64
5, 41100, Note_on_c, 3, 60, 95
5, 41159, Note_off_c, 3, 60, 64
5, 41160, Note_on_c, 3, 65, 95
5, 41160, Note_on_c, 3, 60, 95
5, 41278, Note_off_c, 3, 60, 64
5, 41278, Note_off_c, 3, 65, 64
5, 41280, Note_on_c, 3, 55, 95
5, 41339, Note_off_c, 3, 55, 64
5, 41340, Note_on_c, 3, 60, 95
5, 41399, Note_off_c, 3, 60, 64
5, 41400, Note_on_c, 3, 55, 95
5, 41459, Note_off_c, 3, 55, 64
5, 41460, Note_on_c, 3, 67, 95
5, 41460, Note_on_c, 3, 64, 95
5, 41460, Note_on_c, 3, 60, 95
5, 41579, Note_off_c, 3, 60, 64
5, 41579, Note_off_c, 3, 64, 64
5, 41579, Note_off_c, 3, 67, 64
5, 41580, Note_on_c, 3, 55, 95
5, 41639, Note_off_c, 3, 55, 64
5, 41640, Note_on_c, 3, 64, 95
5, 41640, Note_on_c, 3, 60, 95
5, 41640, Note_on_c, 3, 55, 95
5, 41758, Note_off_c, 3, 55, 64
5, 41758, Note_off_c, 3, 60, 64
5, 41758, Note_off_c, 3, 64, 64
5, 41760, Note_on_c, 3, 67, 95
5, 41760, Note_on_c, 3, 64, 95
5, 41936, Note_off_c, 3, 64, 64
5, 41936, Note_off_c, 3, 67, 64
5, 41940, Note_on_c, 3, 67, 95
5, 41999, Note_off_c, 3, 67, 64
5, 42000, Note_on_c, 3, 67, 95
5, 42000, Note_on_c, 3, 62, 95
5, 42059, Note_off_c, 3, 62, 64
5, 42059, Note_off_c, 3, 67, 64
5, 42060, Note_on_c, 3, 64, 95
5, 42178, Note_off_c, 3, 64, 64
5, 42180, Note_on_c, 3, 69, 95
5, 42180, Note_on_c, 3, 74, 95
5, 42288, Note_off_c, 3, 74, 64
5, 42288, Note_off_c, 3, 69, 64
5, 42300, Note_on_c, 3, 65, 95
5, 42348, Note_off_c, 3, 65, 64
5, 42360, Note_on_c, 3, 69, 95
5, 42408, Note_off_c, 3, 69, 64
5, 42420, Note_on_c, 3, 69, 95
5, 42420, Note_on_c, 3, 65, 95
5, 42528, Note_off_c, 3, 65, 64
5, 42528, Note_off_c, 3, 69, 64
5, 42600, Note_on_c, 3, 69, 95
5, 42696, Note_off_c, 3, 69, 64
5, 42720, Note_on_c, 3, 65, 95
5, 42768, Note_off_c, 3, 65, 64
5, 42780, Note_on_c, 3, 57, 95
5, 42828, Note_off_c, 3, 57, 64
5, 42840, Note_on_c, 3, 62, 95
5, 42888, Note_off_c, 3, 62, 64
5, 42900, Note_on_c, 3, 65, 95
5, 42900, Note_on_c, 3, 62, 95
5, 43008, Note_off_c, 3, 62, 64
5, 43008, Note_off_c, 3, 65, 64
5, 43020, Note_on_c, 3, 62, 95
5, 43068, Note_off_c, 3, 62, 64
5, 43080, Note_on_c, 3, 65, 95
5, 43080, Note_on_c, 3, 62, 95
5, 43128, Note_off_c, 3, 62, 64
5, 43128, Note_off_c, 3, 65, 64
5, 43200, Note_on_c, 3, 69, 95
5, 43200, Note_on_c, 3, 64, 95
5, 43248, Note_off_c, 3, 64, 64
5, 43248, Note_off_c, 3, 69, 64
5, 43260, Note_on_c, 3, 69, 95
5, 43260, Note_on_c, 3, 64, 95
5, 43404, Note_off_c, 3, 64, 64
5, 43404, Note_off_c, 3, 69, 64
5, 43440, Note_on_c, 3, 69, 95
5, 43488, Note_off_c, 3, 69, 64
5, 43620, Note_on_c, 3, 70, 95
5, 43620, Note_on_c, 3, 65, 95
5, 43728, Note_off_c, 3, 65, 64
5, 43728, Note_off_c, 3, 70, 64
5, 43740, Note_on_c, 3, 65, 95
5, 43740, Note_on_c, 3, 62, 95
5, 43836, Note_off_c, 3, 62, 64
5, 43836, Note_off_c, 3, 65, 64
5, 43860, Note_on_c, 3, 65, 95
5, 43860, Note_on_c, 3, 62, 95
5, 44016, Note_off_c, 3, 62, 64
5, 44016, Note_off_c, 3, 65, 64
5, 44160, Note_on_c, 3, 65, 95
5, 44160, Note_on_c, 3, 62, 95
5, 44336, Note_off_c, 3, 62, 64
5, 44336, Note_off_c, 3, 65, 64
5, 44340, Note_on_c, 3, 55, 95
5, 44399, Note_off_c, 3, 55, 64
5, 44400, Note_on_c, 3, 62, 95
5, 44400, Note_on_c, 3, 58, 95
5, 44459, Note_off_c, 3, 58, 64
5, 44459, Note_off_c, 3, 62, 64
5, 44460, Note_on_c, 3, 62, 95
5, 44460, Note_on_c, 3, 58, 95
5, 44578, Note_off_c, 3, 58, 64
5, 44578, Note_off_c, 3, 62, 64
5, 44580, Note_on_c, 3, 62, 95
5, 44580, Note_on_c, 3, 58, 95
5, 44699, Note_off_c, 3, 58, 64
5, 44699, Note_off_c, 3, 62, 64
5, 44700, Note_on_c, 3, 62, 95
5, 44700, Note_on_c, 3, 58, 95
5, 44818, Note_off_c, 3, 58, 64
5, 44818, Note_off_c, 3, 62, 64
5, 44820, Note_on_c, 3, 62, 95
5, 44820, Note_on_c, 3, 58, 95
5, 44939, Note_off_c, 3, 58, 64
5, 44939, Note_off_c, 3, 62, 64
5, 44940, Note_on_c, 3, 62, 95
5, 44940, Note_on_c, 3, 58, 95
5, 45058, Note_off_c, 3, 58, 64
5, 45058, Note_off_c, 3, 62, 64
5, 45060, Note_on_c, 3, 62, 95
5, 45060, Note_on_c, 3, 58, 95
5, 45119, Note_off_c, 3, 58, 64
5, 45119, Note_off_c, 3, 62, 64
5, 45120, Note_on_c, 3, 65, 95
5, 45120, Note_on_c, 3, 60, 95
5, 45355, Note_off_c, 3, 60, 64
5, 45355, Note_off_c, 3, 65, 64
5, 45360, Note_on_c, 3, 69, 95
5, 45360, Note_on_c, 3, 65, 95
5, 45595, Note_off_c, 3, 65, 64
5, 45595, Note_off_c, 3, 69, 64
5, 45600, Note_on_c, 3, 70, 95
5, 45600, Note_on_c, 3, 65, 95
5, 45659, Note_off_c, 3, 65, 64
5, 45659, Note_off_c, 3, 70, 64
5, 45660, Note_on_c, 3, 70, 95
5, 45660, Note_on_c, 3, 65, 95
5, 45836, Note_off_c, 3, 65, 64
5, 45836, Note_off_c, 3, 70, 64
5, 45840, Note_on_c, 3, 70, 95
5, 45840, Note_on_c, 3, 65, 95
5, 45958, Note_off_c, 3, 65, 64
5, 45958, Note_off_c, 3, 70, 64
5, 46080, Note_on_c, 3, 65, 95
5, 46080, Note_on_c, 3, 60, 95
5, 46198, Note_off_c, 3, 60, 64
5, 46198, Note_off_c, 3, 65, 64
5, 46200, Note_on_c, 3, 65, 95
5, 46200, Note_on_c, 3, 60, 95
5, 46259, Note_off_c, 3, 60, 64
5, 46259, Note_off_c, 3, 65, 64
5, 46260, Note_on_c, 3, 60, 95
5, 46319, Note_off_c, 3, 60, 64
5, 46320, Note_on_c, 3, 53, 95
5, 46379, Note_off_c, 3, 53, 64
5, 46380, Note_on_c, 3, 57, 95
5, 46439, Note_off_c, 3, 57, 64
5, 46440, Note_on_c, 3, 60, 95
5, 46558, Note_off_c, 3, 60, 64
5, 46560, Note_on_c, 3, 57, 95
5, 46619, Note_off_c, 3, 57, 64
5, 46620, Note_on_c, 3, 58, 95
5, 46679, Note_off_c, 3, 58, 64
5, 46680, Note_on_c, 3, 60, 95
5, 46739, Note_off_c, 3, 60, 64
5, 46740, Note_on_c, 3, 65, 95
5, 46740, Note_on_c, 3, 60, 95
5, 46859, Note_off_c, 3, 60, 64
5, 46859, Note_off_c, 3, 65, 64
5, 46860, Note_on_c, 3, 55, 95
5, 46919, Note_off_c, 3, 55, 64
5, 46920, Note_on_c, 3, 53, 95
5, 47038, Note_off_c, 3, 53, 64
5, 47040, Note_on_c, 3, 62, 95
5, 47040, Note_on_c, 3, 58, 95
5, 47040, Note_on_c, 3, 53, 95
5, 47216, Note_off_c, 3, 53, 64
5, 47216, Note_off_c, 3, 58, 64
5, 47216, Note_off_c, 3, 62, 64
5, 47220, Note_on_c, 3, 62, 95
5, 47220, Note_on_c, 3, 58, 95
5, 47220, Note_on_c, 3, 53, 95
5, 47456, Note_off_c, 3, 53, 64
5, 47456, Note_off_c, 3, 58, 64
5, 47456, Note_off_c, 3, 62, 64
5, 47460, Note_on_c, 3, 65, 95
5, 47519, Note_off_c, 3, 65, 64
5, 47520, Note_on_c, 3, 74, 95
5, 47520, Note_on_c, 3, 70, 95
5, 47638, Note_off_c, 3, 70, 64
5, 47638, Note_off_c, 3, 74, 64
5, 47700, Note_on_c, 3, 70, 95
5, 47700, Note_on_c, 3, 65, 95
5, 47819, Note_off_c, 3, 65, 64
5, 47819, Note_off_c, 3, 70, 64
5, 47940, Note_on_c, 3, 65, 95
5, 47940, Note_on_c, 3, 69, 95
5, 48235, Note_off_c, 3, 69, 64
5, 48235, Note_off_c, 3, 65, 64
5, 48240, Note_on_c, 3, 65, 95
5, 48240, Note_on_c, 3, 60, 95
5, 48416, Note_off_c, 3, 60, 64
5, 48416, Note_off_c, 3, 65, 64
5, 48420, Note_on_c, 3, 60, 95
5, 48479, Note_off_c, 3, 60, 64
5, 48480, Note_on_c, 3, 67, 95
5, 48480, Note_on_c, 3, 65, 95
5, 48539, Note_off_c, 3, 65, 64
5, 48539, Note_off_c, 3, 67, 64
5, 48540, Note_on_c, 3, 69, 95
5, 48540, Note_on_c, 3, 65, 95
5, 48599, Note_off_c, 3, 65, 64
5, 48599, Note_off_c, 3, 69, 64
5, 48600, Note_on_c, 3, 60, 95
5, 48659, Note_off_c, 3, 60, 64
5, 48660, Note_on_c, 3, 69, 95
5, 48660, Note_on_c, 3, 65, 95
5, 48779, Note_off_c, 3, 65, 64
5, 48779, Note_off_c, 3, 69, 64
5, 48780, Note_on_c, 3, 67, 95
5, 48780, Note_on_c, 3, 58, 95
5, 48839, Note_off_c, 3, 58, 64
5, 48839, Note_off_c, 3, 67, 64
5, 48840, Note_on_c, 3, 65, 95
5, 48840, Note_on_c, 3, 57, 95
5, 48958, Note_off_c, 3, 57, 64
5, 48958, Note_off_c, 3, 65, 64
5, 48960, Note_on_c, 3, 55, 95
5, 49019, Note_off_c, 3, 55, 64
5, 49020, Note_on_c, 3, 60, 95
5, 49079, Note_off_c, 3, 60, 64
5, 49080, Note_on_c, 3, 64, 95
5, 49139, Note_off_c, 3, 64, 64
5, 49140, Note_on_c, 3, 67, 95
5, 49199, Note_off_c, 3, 67, 64
5, 49200, Note_on_c, 3, 67, 95
5, 49200, Note_on_c, 3, 64, 95
5, 49259, Note_off_c, 3, 64, 64
5, 49259, Note_off_c, 3, 67, 64
5, 49260, Note_on_c, 3, 67, 95
5, 49260, Note_on_c, 3, 64, 95
5, 49378, Note_off_c, 3, 64, 64
5, 49378, Note_off_c, 3, 67, 64
5, 49380, Note_on_c, 3, 67, 95
5, 49380, Note_on_c, 3, 64, 95
5, 49499, Note_off_c, 3, 64, 64
5, 49499, Note_off_c, 3, 67, 64
5, 49500, Note_on_c, 3, 67, 95
5, 49559, Note_off_c, 3, 67, 64
5, 49560, Note_on_c, 3, 60, 95
5, 49619, Note_off_c, 3, 60, 64
5, 49620, Note_on_c, 3, 67, 95
5, 49620, Note_on_c, 3, 62, 95
5, 49739, Note_off_c, 3, 62, 64
5, 49739, Note_off_c, 3, 67, 64
5, 49740, Note_on_c, 3, 67, 95
5, 49740, Note_on_c, 3, 64, 95
5, 49916, Note_off_c, 3, 64, 64
5, 49916, Note_off_c, 3, 67, 64
5, 49920, Note_on_c, 3, 74, 95
5, 49920, Note_on_c, 3, 69, 95
5, 49979, Note_off_c, 3, 69, 64
5, 49979, Note_off_c, 3, 74, 64
5, 49980, Note_on_c, 3, 69, 95
5, 49980, Note_on_c, 3, 65, 95
5, 50156, Note_off_c, 3, 65, 64
5, 50156, Note_off_c, 3, 69, 64
5, 50160, Note_on_c, 3, 69, 95
5, 50160, Note_on_c, 3, 65, 95
5, 50219, Note_off_c, 3, 65, 64
5, 50219, Note_off_c, 3, 69, 64
5, 50220, Note_on_c, 3, 62, 95
5, 50279, Note_off_c, 3, 62, 64
5, 50280, Note_on_c, 3, 57, 95
5, 50398, Note_off_c, 3, 57, 64
5, 50400, Note_on_c, 3, 53, 95
5, 50459, Note_off_c, 3, 53, 64
5, 50460, Note_on_c, 3, 57, 95
5, 50519, Note_off_c, 3, 57, 64
5, 50520, Note_on_c, 3, 62, 95
5, 50579, Note_off_c, 3, 62, 64
5, 50580, Note_on_c, 3, 65, 95
5, 50580, Note_on_c, 3, 62, 95
5, 50699, Note_off_c, 3, 62, 64
5, 50699, Note_off_c, 3, 65, 64
5, 50700, Note_on_c, 3, 60, 95
5, 50759, Note_off_c, 3, 60, 64
5, 50760, Note_on_c, 3, 65, 95
5, 50760, Note_on_c, 3, 62, 95
5, 50819, Note_off_c, 3, 62, 64
5, 50819, Note_off_c, 3, 65, 64
5, 50880, Note_on_c, 3, 69, 95
5, 50880, Note_on_c, 3, 64, 95
5, 51056, Note_off_c, 3, 64, 64
5, 51056, Note_off_c, 3, 69, 64
5, 51060, Note_on_c, 3, 69, 95
5, 51060, Note_on_c, 3, 64, 95
5, 51238, Note_off_c, 3, 64, 64
5, 51238, Note_off_c, 3, 69, 64
5, 51240, Note_on_c, 3, 64, 95
5, 51240, Note_on_c, 3, 60, 95
5, 51358, Note_off_c, 3, 60, 64
5, 51358, Note_off_c, 3, 64, 64
5, 51360, Note_on_c, 3, 70, 95
5, 51360, Note_on_c, 3, 65, 95
5, 51536, Note_off_c, 3, 65, 64
5, 51536, Note_off_c, 3, 70, 64
5, 51540, Note_on_c, 3, 65, 95
5, 51540, Note_on_c, 3, 62, 95
5, 51776, Note_off_c, 3, 62, 64
5, 51776, Note_off_c, 3, 65, 64
5, 51780, Note_on_c, 3, 65, 95
5, 51780, Note_on_c, 3, 62, 95
5, 51899, Note_off_c, 3, 62, 64
5, 51899, Note_off_c, 3, 65, 64
5, 51900, Note_on_c, 3, 65, 95
5, 51900, Note_on_c, 3, 62, 95
5, 52018, Note_off_c, 3, 62, 64
5, 52018, Note_off_c, 3, 65, 64
5, 52020, Note_on_c, 3, 65, 95
5, 52020, Note_on_c, 3, 62, 95
5, 52079, Note_off_c, 3, 62, 64
5, 52079, Note_off_c, 3, 65, 64
5, 52080, Note_on_c, 3, 65, 95
5, 52080, Note_on_c, 3, 62, 95
5, 52256, Note_off_c, 3, 62, 64
5, 52256, Note_off_c, 3, 65, 64
5, 52260, Note_on_c, 3, 65, 95
5, 52260, Note_on_c, 3, 62, 95
5, 52319, Note_off_c, 3, 62, 64
5, 52319, Note_off_c, 3, 65, 64
5, 52320, Note_on_c, 3, 65, 95
5, 52320, Note_on_c, 3, 62, 95
5, 52555, Note_off_c, 3, 62, 64
5, 52555, Note_off_c, 3, 65, 64
5, 52560, Note_on_c, 3, 55, 95
5, 52619, Note_off_c, 3, 55, 64
5, 52620, Note_on_c, 3, 56, 95
5, 52796, Note_off_c, 3, 56, 64
5, 52800, Note_on_c, 3, 57, 95
5, 52918, Note_off_c, 3, 57, 64
5, 52920, Note_on_c, 3, 64, 95
5, 52920, Note_on_c, 3, 60, 95
5, 52979, Note_off_c, 3, 60, 64
5, 52979, Note_off_c, 3, 64, 64
5, 53040, Note_on_c, 3, 69, 95
5, 53040, Note_on_c, 3, 64, 95
5, 53158, Note_off_c, 3, 64, 64
5, 53158, Note_off_c, 3, 69, 64
5, 53220, Note_on_c, 3, 74, 95
5, 53220, Note_on_c, 3, 69, 95
5, 53339, Note_off_c, 3, 69, 64
5, 53339, Note_off_c, 3, 74, 64
5, 53520, Note_on_c, 3, 74, 95
5, 53520, Note_on_c, 3, 69, 95
5, 53638, Note_off_c, 3, 69, 64
5, 53638, Note_off_c, 3, 74, 64
5, 53760, Note_on_c, 3, 74, 95
5, 53760, Note_on_c, 3, 70, 95
5, 53819, Note_off_c, 3, 70, 64
5, 53819, Note_off_c, 3, 74, 64
5, 53880, Note_on_c, 3, 74, 95
5, 53880, Note_on_c, 3, 70, 95
5, 54118, Note_off_c, 3, 70, 64
5, 54118, Note_off_c, 3, 74, 64
5, 54120, Note_on_c, 3, 70, 95
5, 54120, Note_on_c, 3, 65, 95
5, 54179, Note_off_c, 3, 65, 64
5, 54179, Note_off_c, 3, 70, 64
5, 54240, Note_on_c, 3, 72, 95
5, 54240, Note_on_c, 3, 69, 95
5, 54299, Note_off_c, 3, 69, 64
5, 54299, Note_off_c, 3, 72, 64
5, 54420, Note_on_c, 3, 72, 95
5, 54420, Note_on_c, 3, 69, 95
5, 54598, Note_off_c, 3, 69, 64
5, 54598, Note_off_c, 3, 72, 64
5, 54660, Note_on_c, 3, 74, 95
5, 54660, Note_on_c, 3, 70, 95
5, 54779, Note_off_c, 3, 70, 64
5, 54779, Note_off_c, 3, 74, 64
5, 54840, Note_on_c, 3, 74, 95
5, 54840, Note_on_c, 3, 70, 95
5, 55078, Note_off_c, 3, 70, 64
5, 55078, Note_off_c, 3, 74, 64
5, 55080, Note_on_c, 3, 70, 95
5, 55080, Note_on_c, 3, 65, 95
5, 55139, Note_off_c, 3, 65, 64
5, 55139, Note_off_c, 3, 70, 64
5, 55200, Note_on_c, 3, 72, 95
5, 55200, Note_on_c, 3, 69, 95
5, 55318, Note_off_c, 3, 69, 64
5, 55318, Note_off_c, 3, 72, 64
5, 55320, Note_on_c, 3, 72, 95
5, 55320, Note_on_c, 3, 69, 95
5, 55499, Note_off_c, 3, 69, 64
5, 55499, Note_off_c, 3, 72, 64
5, 55500, Note_on_c, 3, 65, 95
5, 55559, Note_off_c, 3, 65, 64
5, 55560, Note_on_c, 3, 72, 95
5, 55560, Note_on_c, 3, 65, 95
5, 55678, Note_off_c, 3, 65, 64
5, 55678, Note_off_c, 3, 72, 64
5, 55800, Note_on_c, 3, 74, 95
5, 55800, Note_on_c, 3, 70, 95
5, 55859, Note_off_c, 3, 70, 64
5, 55859, Note_off_c, 3, 74, 64
5, 55920, Note_on_c, 3, 74, 95
5, 55920, Note_on_c, 3, 70, 95
5, 55979, Note_off_c, 3, 70, 64
5, 55979, Note_off_c, 3, 74, 64
5, 56100, Note_on_c, 3, 72, 95
5, 56100, Note_on_c, 3, 69, 95
5, 56219, Note_off_c, 3, 69, 64
5, 56219, Note_off_c, 3, 72, 64
5, 56280, Note_on_c, 3, 72, 95
5, 56280, Note_on_c, 3, 69, 95
5, 56518, Note_off_c, 3, 69, 64
5, 56518, Note_off_c, 3, 72, 64
5, 56580, Note_on_c, 3, 70, 95
5, 56580, Note_on_c, 3, 65, 95
5, 56875, Note_off_c, 3, 65, 64
5, 56875, Note_off_c, 3, 70, 64
5, 56880, Note_on_c, 3, 65, 95
5, 56880, Note_on_c, 3, 62, 95
5, 57115, Note_off_c, 3, 62, 64
5, 57115, Note_off_c, 3, 65, 64
5, 57120, Note_on_c, 3, 55, 95
5, 57120, Note_on_c, 3, 67, 95
5, 57179, Note_off_c, 3, 67, 64
5, 57179, Note_off_c, 3, 55, 64
5, 57180, Note_on_c, 3, 62, 95
5, 57180, Note_on_c, 3, 74, 95
5, 57298, Note_off_c, 3, 74, 64
5, 57298, Note_off_c, 3, 62, 64
5, 57300, Note_on_c, 3, 67, 95
5, 57300, Note_on_c, 3, 79, 95
5, 57419, Note_off_c, 3, 79, 64
5, 57419, Note_off_c, 3, 67, 64
5, 57420, Note_on_c, 3, 62, 95
5, 57420, Note_on_c, 3, 74, 95
5, 57538, Note_off_c, 3, 74, 64
5, 57538, Note_off_c, 3, 62, 64
5, 57540, Note_on_c, 3, 55, 95
5, 57540, Note_on_c, 3, 67, 95
5, 57599, Note_off_c, 3, 67, 64
5, 57599, Note_off_c, 3, 55, 64
5, 57600, Note_on_c, 3, 55, 95
5, 57835, Note_off_c, 3, 55, 64
5, 57840, Note_on_c, 3, 65, 95
5, 57840, Note_on_c, 3, 62, 95
5, 57840, Note_on_c, 3, 58, 95
5, 57899, Note_off_c, 3, 58, 64
5, 57899, Note_off_c, 3, 62, 64
5, 57899, Note_off_c, 3, 65, 64
5, 57900, Note_on_c, 3, 60, 95
5, 57959, Note_off_c, 3, 60, 64
5, 57960, Note_on_c, 3, 62, 95
5, 58019, Note_off_c, 3, 62, 64
5, 58020, Note_on_c, 3, 65, 95
5, 58079, Note_off_c, 3, 65, 64
5, 58080, Note_on_c, 3, 65, 95
5, 58080, Note_on_c, 3, 62, 95
5, 58080, Note_on_c, 3, 70, 95
5, 58139, Note_off_c, 3, 70, 64
5, 58139, Note_off_c, 3, 62, 64
5, 58139, Note_off_c, 3, 65, 64
5, 58500, Note_on_c, 3, 77, 95
5, 58500, Note_on_c, 3, 74, 95
5, 58619, Note_off_c, 3, 74, 64
5, 58619, Note_off_c, 3, 77, 64
5, 58620, Note_on_c, 3, 74, 95
5, 58620, Note_on_c, 3, 70, 95
5, 58796, Note_off_c, 3, 70, 64
5, 58796, Note_off_c, 3, 74, 64
5, 58800, Note_on_c, 3, 74, 95
5, 58800, Note_on_c, 3, 70, 95
5, 58859, Note_off_c, 3, 70, 64
5, 58859, Note_off_c, 3, 74, 64
5, 58860, Note_on_c, 3, 75, 95
5, 58860, Note_on_c, 3, 70, 95
5, 58978, Note_off_c, 3, 70, 64
5, 58978, Note_off_c, 3, 75, 64
5, 58980, Note_on_c, 3, 74, 95
5, 58980, Note_on_c, 3, 70, 95
5, 59099, Note_off_c, 3, 70, 64
5, 59099, Note_off_c, 3, 74, 64
5, 59220, Note_on_c, 3, 70, 95
5, 59220, Note_on_c, 3, 67, 95
5, 59339, Note_off_c, 3, 67, 64
5, 59339, Note_off_c, 3, 70, 64
5, 59340, Note_on_c, 3, 74, 95
5, 59340, Note_on_c, 3, 70, 95
5, 59399, Note_off_c, 3, 70, 64
5, 59399, Note_off_c, 3, 74, 64
5, 59520, Note_on_c, 3, 72, 95
5, 59520, Note_on_c, 3, 69, 95
5, 59638, Note_off_c, 3, 69, 64
5, 59638, Note_off_c, 3, 72, 64
5, 59760, Note_on_c, 3, 69, 95
5, 59760, Note_on_c, 3, 65, 95
5, 59878, Note_off_c, 3, 65, 64
5, 59878, Note_off_c, 3, 69, 64
5, 59880, Note_on_c, 3, 72, 95
5, 59880, Note_on_c, 3, 69, 95
5, 59998, Note_off_c, 3, 69, 64
5, 59998, Note_off_c, 3, 72, 64
5, 60180, Note_on_c, 3, 72, 95
5, 60180, Note_on_c, 3, 69, 95
5, 60299, Note_off_c, 3, 69, 64
5, 60299, Note_off_c, 3, 72, 64
5, 60420, Note_on_c, 3, 77, 95
5, 60420, Note_on_c, 3, 70, 95
5, 60598, Note_off_c, 3, 70, 64
5, 60598, Note_off_c, 3, 77, 64
5, 60600, Note_on_c, 3, 74, 95
5, 60600, Note_on_c, 3, 70, 95
5, 60718, Note_off_c, 3, 70, 64
5, 60718, Note_off_c, 3, 74, 64
5, 60720, Note_on_c, 3, 74, 95
5, 60720, Note_on_c, 3, 70, 95
5, 60779, Note_off_c, 3, 70, 64
5, 60779, Note_off_c, 3, 74, 64
5, 60780, Note_on_c, 3, 75, 95
5, 60780, Note_on_c, 3, 70, 95
5, 60898, Note_off_c, 3, 70, 64
5, 60898, Note_off_c, 3, 75, 64
5, 60900, Note_on_c, 3, 74, 95
5, 60900, Note_on_c, 3, 70, 95
5, 61019, Note_off_c, 3, 70, 64
5, 61019, Note_off_c, 3, 74, 64
5, 61140, Note_on_c, 3, 70, 95
5, 61140, Note_on_c, 3, 67, 95
5, 61259, Note_off_c, 3, 67, 64
5, 61259, Note_off_c, 3, 70, 64
5, 61320, Note_on_c, 3, 74, 95
5, 61320, Note_on_c, 3, 70, 95
5, 61379, Note_off_c, 3, 70, 64
5, 61379, Note_off_c, 3, 74, 64
5, 61440, Note_on_c, 3, 72, 95
5, 61440, Note_on_c, 3, 69, 95
5, 61558, Note_off_c, 3, 69, 64
5, 61558, Note_off_c, 3, 72, 64
5, 61620, Note_on_c, 3, 72, 95
5, 61620, Note_on_c, 3, 69, 95
5, 61739, Note_off_c, 3, 69, 64
5, 61739, Note_off_c, 3, 72, 64
5, 62340, Note_on_c, 3, 74, 95
5, 62340, Note_on_c, 3, 70, 95
5, 62459, Note_off_c, 3, 70, 64
5, 62459, Note_off_c, 3, 74, 64
5, 62460, Note_on_c, 3, 74, 95
5, 62460, Note_on_c, 3, 70, 95
5, 62636, Note_off_c, 3, 70, 64
5, 62636, Note_off_c, 3, 74, 64
5, 62640, Note_on_c, 3, 74, 95
5, 62640, Note_on_c, 3, 70, 95
5, 62699, Note_off_c, 3, 70, 64
5, 62699, Note_off_c, 3, 74, 64
5, 62700, Note_on_c, 3, 75, 95
5, 62700, Note_on_c, 3, 70, 95
5, 62818, Note_off_c, 3, 70, 64
5, 62818, Note_off_c, 3, 75, 64
5, 62820, Note_on_c, 3, 74, 95
5, 62820, Note_on_c, 3, 70, 95
5, 62939, Note_off_c, 3, 70, 64
5, 62939, Note_off_c, 3, 74, 64
5, 63060, Note_on_c, 3, 70, 95
5, 63060, Note_on_c, 3, 67, 95
5, 63179, Note_off_c, 3, 67, 64
5, 63179, Note_off_c, 3, 70, 64
5, 63300, Note_on_c, 3, 72, 95
5, 63300, Note_on_c, 3, 68, 95
5, 63419, Note_off_c, 3, 68, 64
5, 63419, Note_off_c, 3, 72, 64
5, 63660, Note_on_c, 3, 72, 95
5, 63660, Note_on_c, 3, 69, 95
5, 63836, Note_off_c, 3, 69, 64
5, 63836, Note_off_c, 3, 72, 64
5, 63840, Note_on_c, 3, 65, 95
5, 63840, Note_on_c, 3, 57, 95
5, 63958, Note_off_c, 3, 57, 64
5, 63958, Note_off_c, 3, 65, 64
5, 63960, Note_on_c, 3, 67, 95
5, 63960, Note_on_c, 3, 58, 95
5, 64078, Note_off_c, 3, 58, 64
5, 64078, Note_off_c, 3, 67, 64
5, 64080, Note_on_c, 3, 69, 95
5, 64080, Note_on_c, 3, 65, 95
5, 64198, Note_off_c, 3, 65, 64
5, 64198, Note_off_c, 3, 69, 64
5, 64200, Note_on_c, 3, 72, 95
5, 64200, Note_on_c, 3, 69, 95
5, 64318, Note_off_c, 3, 69, 64
5, 64318, Note_off_c, 3, 72, 64
5, 64320, Note_on_c, 3, 77, 95
5, 64320, Note_on_c, 3, 74, 95
5, 64555, Note_off_c, 3, 74, 64
5, 64555, Note_off_c, 3, 77, 64
5, 64560, Note_on_c, 3, 69, 95
5, 64678, Note_off_c, 3, 69, 64
5, 64680, Note_on_c, 3, 65, 95
5, 64798, Note_off_c, 3, 65, 64
5, 64800, Note_on_c, 3, 74, 95
5, 64800, Note_on_c, 3, 70, 95
5, 65035, Note_off_c, 3, 70, 64
5, 65035, Note_off_c, 3, 74, 64
5, 65040, Note_on_c, 3, 62, 95
5, 65158, Note_off_c, 3, 62, 64
5, 65160, Note_on_c, 3, 60, 95
5, 65278, Note_off_c, 3, 60, 64
5, 65280, Note_on_c, 3, 65, 95
5, 65280, Note_on_c, 3, 70, 95
5, 65515, Note_off_c, 3, 70, 64
5, 65515, Note_off_c, 3, 65, 64
5, 65520, Note_on_c, 3, 65, 95
5, 65520, Note_on_c, 3, 70, 95
5, 65755, Note_off_c, 3, 70, 64
5, 65755, Note_off_c, 3, 65, 64
5, 65760, Note_on_c, 3, 64, 95
5, 65760, Note_on_c, 3, 67, 95
5, 65995, Note_off_c, 3, 67, 64
5, 65995, Note_off_c, 3, 64, 64
5, 66180, Note_on_c, 3, 74, 95
5, 66180, Note_on_c, 3, 77, 95
5, 66299, Note_off_c, 3, 77, 64
5, 66299, Note_off_c, 3, 74, 64
5, 66300, Note_on_c, 3, 70, 95
5, 66300, Note_on_c, 3, 74, 95
5, 66476, Note_off_c, 3, 74, 64
5, 66476, Note_off_c, 3, 70, 64
5, 66480, Note_on_c, 3, 70, 95
5, 66480, Note_on_c, 3, 74, 95
5, 66539, Note_off_c, 3, 74, 64
5, 66539, Note_off_c, 3, 70, 64
5, 66540, Note_on_c, 3, 70, 95
5, 66540, Note_on_c, 3, 75, 95
5, 66658, Note_off_c, 3, 75, 64
5, 66658, Note_off_c, 3, 70, 64
5, 66660, Note_on_c, 3, 70, 95
5, 66660, Note_on_c, 3, 74, 95
5, 66779, Note_off_c, 3, 74, 64
5, 66779, Note_off_c, 3, 70, 64
5, 66900, Note_on_c, 3, 67, 95
5, 66900, Note_on_c, 3, 70, 95
5, 67019, Note_off_c, 3, 70, 64
5, 67019, Note_off_c, 3, 67, 64
5, 67020, Note_on_c, 3, 70, 95
5, 67020, Note_on_c, 3, 74, 95
5, 67079, Note_off_c, 3, 74, 64
5, 67079, Note_off_c, 3, 70, 64
5, 67200, Note_on_c, 3, 69, 95
5, 67200, Note_on_c, 3, 72, 95
5, 67318, Note_off_c, 3, 72, 64
5, 67318, Note_off_c, 3, 69, 64
5, 67440, Note_on_c, 3, 65, 95
5, 67440, Note_on_c, 3, 69, 95
5, 67558, Note_off_c, 3, 69, 64
5, 67558, Note_off_c, 3, 65, 64
5, 67560, Note_on_c, 3, 69, 95
5, 67560, Note_on_c, 3, 72, 95
5, 67678, Note_off_c, 3, 72, 64
5, 67678, Note_off_c, 3, 69, 64
5, 67860, Note_on_c, 3, 69, 95
5, 67860, Note_on_c, 3, 72, 95
5, 67979, Note_off_c, 3, 72, 64
5, 67979, Note_off_c, 3, 69, 64
5, 68100, Note_on_c, 3, 70, 95
5, 68100, Note_on_c, 3, 77, 95
5, 68278, Note_off_c, 3, 77, 64
5, 68278, Note_off_c, 3, 70, 64
5, 68280, Note_on_c, 3, 70, 95
5, 68280, Note_on_c, 3, 74, 95
5, 68398, Note_off_c, 3, 74, 64
5, 68398, Note_off_c, 3, 70, 64
5, 68400, Note_on_c, 3, 70, 95
5, 68400, Note_on_c, 3, 74, 95
5, 68459, Note_off_c, 3, 74, 64
5, 68459, Note_off_c, 3, 70, 64
5, 68460, Note_on_c, 3, 70, 95
5, 68460, Note_on_c, 3, 75, 95
5, 68578, Note_off_c, 3, 75, 64
5, 68578, Note_off_c, 3, 70, 64
5, 68580, Note_on_c, 3, 70, 95
5, 68580, Note_on_c, 3, 74, 95
5, 68699, Note_off_c, 3, 74, 64
5, 68699, Note_off_c, 3, 70, 64
5, 68820, Note_on_c, 3, 67, 95
5, 68820, Note_on_c, 3, 70, 95
5, 68939, Note_off_c, 3, 70, 64
5, 68939, Note_off_c, 3, 67, 64
5, 69000, Note_on_c, 3, 70, 95
5, 69000, Note_on_c, 3, 74, 95
5, 69059, Note_off_c, 3, 74, 64
5, 69059, Note_off_c, 3, 70, 64
5, 69120, Note_on_c, 3, 69, 95
5, 69120, Note_on_c, 3, 72, 95
5, 69238, Note_off_c, 3, 72, 64
5, 69238, Note_off_c, 3, 69, 64
5, 69300, Note_on_c, 3, 69, 95
5, 69300, Note_on_c, 3, 72, 95
5, 69419, Note_off_c, 3, 72, 64
5, 69419, Note_off_c, 3, 69, 64
5, 70020, Note_on_c, 3, 70, 95
5, 70020, Note_on_c, 3, 74, 95
5, 70139, Note_off_c, 3, 74, 64
5, 70139, Note_off_c, 3, 70, 64
5, 70140, Note_on_c, 3, 70, 95
5, 70140, Note_on_c, 3, 74, 95
5, 70316, Note_off_c, 3, 74, 64
5, 70316, Note_off_c, 3, 70, 64
5, 70320, Note_on_c, 3, 70, 95
5, 70320, Note_on_c, 3, 74, 95
5, 70379, Note_off_c, 3, 74, 64
5, 70379, Note_off_c, 3, 70, 64
5, 70380, Note_on_c, 3, 70, 95
5, 70380, Note_on_c, 3, 75, 95
5, 70498, Note_off_c, 3, 75, 64
5, 70498, Note_off_c, 3, 70, 64
5, 70500, Note_on_c, 3, 70, 95
5, 70500, Note_on_c, 3, 74, 95
5, 70619, Note_off_c, 3, 74, 64
5, 70619, Note_off_c, 3, 70, 64
5, 70740, Note_on_c, 3, 67, 95
5, 70740, Note_on_c, 3, 70, 95
5, 70859, Note_off_c, 3, 70, 64
5, 70859, Note_off_c, 3, 67, 64
5, 70980, Note_on_c, 3, 68, 95
5, 70980, Note_on_c, 3, 72, 95
5, 71099, Note_off_c, 3, 72, 64
5, 71099, Note_off_c, 3, 68, 64
5, 71340, Note_on_c, 3, 69, 95
5, 71340, Note_on_c, 3, 72, 95
5, 71516, Note_off_c, 3, 72, 64
5, 71516, Note_off_c, 3, 69, 64
5, 71520, Note_on_c, 3, 57, 95
5, 71520, Note_on_c, 3, 65, 95
5, 71638, Note_off_c, 3, 65, 64
5, 71638, Note_off_c, 3, 57, 64
5, 71640, Note_on_c, 3, 58, 95
5, 71640, Note_on_c, 3, 67, 95
5, 71758, Note_off_c, 3, 67, 64
5, 71758, Note_off_c, 3, 58, 64
5, 71760, Note_on_c, 3, 65, 95
5, 71760, Note_on_c, 3, 69, 95
5, 71878, Note_off_c, 3, 69, 64
5, 71878, Note_off_c, 3, 65, 64
5, 71880, Note_on_c, 3, 69, 95
5, 71880, Note_on_c, 3, 72, 95
5, 71998, Note_off_c, 3, 72, 64
5, 71998, Note_off_c, 3, 69, 64
5, 72000, Note_on_c, 3, 74, 95
5, 72000, Note_on_c, 3, 77, 95
5, 72235, Note_off_c, 3, 77, 64
5, 72235, Note_off_c, 3, 74, 64
5, 72240, Note_on_c, 3, 69, 95
5, 72358, Note_off_c, 3, 69, 64
5, 72360, Note_on_c, 3, 65, 95
5, 72478, Note_off_c, 3, 65, 64
5, 72480, Note_on_c, 3, 70, 95
5, 72480, Note_on_c, 3, 74, 95
5, 72715, Note_off_c, 3, 74, 64
5, 72715, Note_off_c, 3, 70, 64
5, 72720, Note_on_c, 3, 62, 95
5, 72838, Note_off_c, 3, 62, 64
5, 72840, Note_on_c, 3, 60, 95
5, 72958, Note_off_c, 3, 60, 64
5, 72960, Note_on_c, 3, 65, 95
5, 72960, Note_on_c, 3, 70, 95
5, 73195, Note_off_c, 3, 70, 64
5, 73195, Note_off_c, 3, 65, 64
5, 73200, Note_on_c, 3, 65, 95
5, 73200, Note_on_c, 3, 70, 95
5, 73435, Note_off_c, 3, 70, 64
5, 73435, Note_off_c, 3, 65, 64
5, 73440, Note_on_c, 3, 64, 95
5, 73440, Note_on_c, 3, 67, 95
5, 73616, Note_off_c, 3, 67, 64
5, 73616, Note_off_c, 3, 64, 64
5, 73620, Note_on_c, 3, 60, 95
5, 73679, Note_off_c, 3, 60, 64
5, 73680, Note_on_c, 3, 60, 95
5, 73739, Note_off_c, 3, 60, 64
5, 73740, Note_on_c, 3, 62, 95
5, 73799, Note_off_c, 3, 62, 64
5, 73800, Note_on_c, 3, 65, 95
5, 73859, Note_off_c, 3, 65, 64
5, 73860, Note_on_c, 3, 62, 95
5, 73919, Note_off_c, 3, 62, 64
5, 73920, Note_on_c, 3, 60, 1
5, 73920, Note_on_c, 3, 57, 1
5, 74626, Note_off_c, 3, 57, 64
5, 74626, Note_off_c, 3, 60, 64
5, 74640, Note_on_c, 3, 60, 1
5, 74640, Note_on_c, 3, 57, 1
5, 74699, Note_off_c, 3, 57, 64
5, 74699, Note_off_c, 3, 60, 64
5, 74880, Note_on_c, 3, 62, 1
5, 74880, Note_on_c, 3, 58, 1
5, 75718, Note_off_c, 3, 58, 64
5, 75718, Note_off_c, 3, 62, 64
5, 75720, Note_on_c, 3, 70, 1
5, 75720, Note_on_c, 3, 65, 1
5, 75838, Note_off_c, 3, 65, 64
5, 75838, Note_off_c, 3, 70, 64
5, 76080, Note_on_c, 3, 69, 1
5, 76080, Note_on_c, 3, 65, 1
5, 76315, Note_off_c, 3, 65, 64
5, 76315, Note_off_c, 3, 69, 64
5, 76560, Note_on_c, 3, 60, 1
5, 76560, Note_on_c, 3, 57, 1
5, 76619, Note_off_c, 3, 57, 64
5, 76619, Note_off_c, 3, 60, 64
5, 76800, Note_on_c, 3, 62, 1
5, 76800, Note_on_c, 3, 58, 1
5, 77741, Note_off_c, 3, 58, 64
5, 77741, Note_off_c, 3, 62, 64
5, 77760, Note_on_c, 3, 57, 1
5, 77760, Note_on_c, 3, 60, 1
5, 78466, Note_off_c, 3, 60, 64
5, 78466, Note_off_c, 3, 57, 64
5, 78480, Note_on_c, 3, 57, 1
5, 78480, Note_on_c, 3, 60, 1
5, 78539, Note_off_c, 3, 60, 64
5, 78539, Note_off_c, 3, 57, 64
5, 78720, Note_on_c, 3, 58, 1
5, 78720, Note_on_c, 3, 62, 1
5, 79558, Note_off_c, 3, 62, 64
5, 79558, Note_off_c, 3, 58, 64
5, 79560, Note_on_c, 3, 65, 1
5, 79560, Note_on_c, 3, 70, 1
5, 79678, Note_off_c, 3, 70, 64
5, 79678, Note_off_c, 3, 65, 64
5, 79920, Note_on_c, 3, 65, 1
5, 79920, Note_on_c, 3, 69, 1
5, 80155, Note_off_c, 3, 69, 64
5, 80155, Note_off_c, 3, 65, 64
5, 80400, Note_on_c, 3, 57, 1
5, 80400, Note_on_c, 3, 60, 1
5, 80459, Note_off_c, 3, 60, 64
5, 80459, Note_off_c, 3, 57, 64
5, 80640, Note_on_c, 3, 58, 1
5, 80640, Note_on_c, 3, 62, 1
5, 81581, Note_off_c, 3, 62, 64
5, 81581, Note_off_c, 3, 58, 64
5, 81600, Note_on_c, 3, 57, 1
5, 81600, Note_on_c, 3, 60, 1
5, 82306, Note_off_c, 3, 60, 64
5, 82306, Note_off_c, 3, 57, 64
5, 82320, Note_on_c, 3, 57, 1
5, 82320, Note_on_c, 3, 60, 1
5, 82379, Note_off_c, 3, 60, 64
5, 82379, Note_off_c, 3, 57, 64
5, 82560, Note_on_c, 3, 58, 1
5, 82560, Note_on_c, 3, 62, 1
5, 83398, Note_off_c, 3, 62, 64
5, 83398, Note_off_c, 3, 58, 64
5, 83400, Note_on_c, 3, 65, 1
5, 83400, Note_on_c, 3, 70, 1
5, 83518, Note_off_c, 3, 70, 64
5, 83518, Note_off_c, 3, 65, 64
5, 83760, Note_on_c, 3, 65, 1
5, 83760, Note_on_c, 3, 69, 1
5, 83995, Note_off_c, 3, 69, 64
5, 83995, Note_off_c, 3, 65, 64
5, 84240, Note_on_c, 3, 57, 1
5, 84240, Note_on_c, 3, 60, 1
5, 84299, Note_off_c, 3, 60, 64
5, 84299, Note_off_c, 3, 57, 64
5, 84480, Note_on_c, 3, 58, 1
5, 84480, Note_on_c, 3, 62, 1
5, 85421, Note_off_c, 3, 62, 64
5, 85421, Note_off_c, 3, 58, 64
5, 85421, End_track
6, 0, Start_track
6, 0, Text_t, "Electric Bass Guitar"
6, 0, Program_c, 4, 33
6, 0, Control_c, 4, 7, 115
6, 960, Note_on_c, 4, 53, 90
6, 1901, Note_off_c, 4, 53, 64
6, 1920, Note_on_c, 4, 53, 90
6, 2816, Note_off_c, 4, 53, 64
6, 2820, Note_on_c, 4, 46, 90
6, 2879, Note_off_c, 4, 46, 64
6, 2880, Note_on_c, 4, 48, 90
6, 3350, Note_off_c, 4, 48, 64
6, 3360, Note_on_c, 4, 41, 90
6, 3830, Note_off_c, 4, 41, 64
6, 3840, Note_on_c, 4, 46, 90
6, 4310, Note_off_c, 4, 46, 64
6, 4320, Note_on_c, 4, 46, 90
6, 4555, Note_off_c, 4, 46, 64
6, 4560, Note_on_c, 4, 46, 90
6, 4795, Note_off_c, 4, 46, 64
6, 4800, Note_on_c, 4, 41, 90
6, 5035, Note_off_c, 4, 41, 64
6, 5040, Note_on_c, 4, 41, 90
6, 5275, Note_off_c, 4, 41, 64
6, 5280, Note_on_c, 4, 41, 90
6, 5515, Note_off_c, 4, 41, 64
6, 5520, Note_on_c, 4, 41, 90
6, 5755, Note_off_c, 4, 41, 64
6, 5760, Note_on_c, 4, 41, 90
6, 5995, Note_off_c, 4, 41, 64
6, 6000, Note_on_c, 4, 41, 90
6, 6176, Note_off_c, 4, 41, 64
6, 6180, Note_on_c, 4, 36, 90
6, 6239, Note_off_c, 4, 36, 64
6, 6240, Note_on_c, 4, 41, 90
6, 6475, Note_off_c, 4, 41, 64
6, 6480, Note_on_c, 4, 41, 90
6, 6715, Note_off_c, 4, 41, 64
6, 6720, Note_on_c, 4, 46, 90
6, 6955, Note_off_c, 4, 46, 64
6, 6960, Note_on_c, 4, 46, 90
6, 7195, Note_off_c, 4, 46, 64
6, 7200, Note_on_c, 4, 46, 90
6, 7435, Note_off_c, 4, 46, 64
6, 7440, Note_on_c, 4, 46, 90
6, 7675, Note_off_c, 4, 46, 64
6, 7680, Note_on_c, 4, 41, 90
6, 7915, Note_off_c, 4, 41, 64
6, 7920, Note_on_c, 4, 41, 90
6, 8096, Note_off_c, 4, 41, 64
6, 8100, Note_on_c, 4, 36, 90
6, 8159, Note_off_c, 4, 36, 64
6, 8160, Note_on_c, 4, 41, 90
6, 8395, Note_off_c, 4, 41, 64
6, 8400, Note_on_c, 4, 41, 90
6, 8635, Note_off_c, 4, 41, 64
6, 8640, Note_on_c, 4, 40, 90
6, 8875, Note_off_c, 4, 40, 64
6, 8880, Note_on_c, 4, 40, 90
6, 9115, Note_off_c, 4, 40, 64
6, 9120, Note_on_c, 4, 40, 90
6, 9355, Note_off_c, 4, 40, 64
6, 9360, Note_on_c, 4, 40, 90
6, 9595, Note_off_c, 4, 40, 64
6, 9600, Note_on_c, 4, 38, 90
6, 9835, Note_off_c, 4, 38, 64
6, 9840, Note_on_c, 4, 38, 90
6, 10016, Note_off_c, 4, 38, 64
6, 10020, Note_on_c, 4, 33, 90
6, 10079, Note_off_c, 4, 33, 64
6, 10080, Note_on_c, 4, 38, 90
6, 10315, Note_off_c, 4, 38, 64
6, 10320, Note_on_c, 4, 38, 90
6, 10555, Note_off_c, 4, 38, 64
6, 10560, Note_on_c, 4, 45, 90
6, 10795, Note_off_c, 4, 45, 64
6, 10800, Note_on_c, 4, 45, 90
6, 11035, Note_off_c, 4, 45, 64
6, 11040, Note_on_c, 4, 46, 90
6, 11275, Note_off_c, 4, 46, 64
6, 11280, Note_on_c, 4, 46, 90
6, 11515, Note_off_c, 4, 46, 64
6, 11520, Note_on_c, 4, 55, 90
6, 11696, Note_off_c, 4, 55, 64
6, 11700, Note_on_c, 4, 55, 90
6, 11759, Note_off_c, 4, 55, 64
6, 11760, Note_on_c, 4, 55, 90
6, 11819, Note_off_c, 4, 55, 64
6, 11820, Note_on_c, 4, 53, 90
6, 11938, Note_off_c, 4, 53, 64
6, 11940, Note_on_c, 4, 50, 90
6, 11999, Note_off_c, 4, 50, 64
6, 12000, Note_on_c, 4, 50, 90
6, 12059, Note_off_c, 4, 50, 64
6, 12060, Note_on_c, 4, 48, 90
6, 12178, Note_off_c, 4, 48, 64
6, 12180, Note_on_c, 4, 46, 90
6, 12239, Note_off_c, 4, 46, 64
6, 12240, Note_on_c, 4, 46, 90
6, 12299, Note_off_c, 4, 46, 64
6, 12300, Note_on_c, 4, 45, 90
6, 12418, Note_off_c, 4, 45, 64
6, 12420, Note_on_c, 4, 43, 90
6, 12479, Note_off_c, 4, 43, 64
6, 12480, Note_on_c, 4, 41, 90
6, 12672, Note_off_c, 4, 41, 64
6, 12720, Note_on_c, 4, 41, 90
6, 12912, Note_off_c, 4, 41, 64
6, 12960, Note_on_c, 4, 41, 90
6, 13152, Note_off_c, 4, 41, 64
6, 13200, Note_on_c, 4, 41, 90
6, 13392, Note_off_c, 4, 41, 64
6, 13440, Note_on_c, 4, 41, 90
6, 13632, Note_off_c, 4, 41, 64
6, 13680, Note_on_c, 4, 41, 90
6, 13824, Note_off_c, 4, 41, 64
6, 13860, Note_on_c, 4, 36, 90
6, 13908, Note_off_c, 4, 36, 64
6, 13920, Note_on_c, 4, 41, 90
6, 14112, Note_off_c, 4, 41, 64
6, 14160, Note_on_c, 4, 41, 90
6, 14352, Note_off_c, 4, 41, 64
6, 14400, Note_on_c, 4, 34, 90
6, 14592, Note_off_c, 4, 34, 64
6, 14640, Note_on_c, 4, 34, 90
6, 14832, Note_off_c, 4, 34, 64
6, 14880, Note_on_c, 4, 46, 90
6, 15072, Note_off_c, 4, 46, 64
6, 15120, Note_on_c, 4, 46, 90
6, 15312, Note_off_c, 4, 46, 64
6, 15360, Note_on_c, 4, 41, 90
6, 15595, Note_off_c, 4, 41, 64
6, 15600, Note_on_c, 4, 41, 90
6, 15776, Note_off_c, 4, 41, 64
6, 15780, Note_on_c, 4, 36, 90
6, 15839, Note_off_c, 4, 36, 64
6, 15840, Note_on_c, 4, 41, 90
6, 16075, Note_off_c, 4, 41, 64
6, 16080, Note_on_c, 4, 41, 90
6, 16315, Note_off_c, 4, 41, 64
6, 16320, Note_on_c, 4, 40, 90
6, 16555, Note_off_c, 4, 40, 64
6, 16560, Note_on_c, 4, 40, 90
6, 16795, Note_off_c, 4, 40, 64
6, 16800, Note_on_c, 4, 40, 90
6, 17035, Note_off_c, 4, 40, 64
6, 17040, Note_on_c, 4, 40, 90
6, 17275, Note_off_c, 4, 40, 64
6, 17280, Note_on_c, 4, 38, 90
6, 17515, Note_off_c, 4, 38, 64
6, 17520, Note_on_c, 4, 38, 90
6, 17696, Note_off_c, 4, 38, 64
6, 17700, Note_on_c, 4, 45, 90
6, 17759, Note_off_c, 4, 45, 64
6, 17760, Note_on_c, 4, 38, 90
6, 17995, Note_off_c, 4, 38, 64
6, 18000, Note_on_c, 4, 38, 90
6, 18235, Note_off_c, 4, 38, 64
6, 18240, Note_on_c, 4, 45, 90
6, 18475, Note_off_c, 4, 45, 64
6, 18480, Note_on_c, 4, 45, 90
6, 18715, Note_off_c, 4, 45, 64
6, 18720, Note_on_c, 4, 46, 90
6, 18955, Note_off_c, 4, 46, 64
6, 18960, Note_on_c, 4, 46, 90
6, 19195, Note_off_c, 4, 46, 64
6, 19200, Note_on_c, 4, 43, 90
6, 19376, Note_off_c, 4, 43, 64
6, 19380, Note_on_c, 4, 43, 90
6, 19439, Note_off_c, 4, 43, 64
6, 19440, Note_on_c, 4, 43, 90
6, 19616, Note_off_c, 4, 43, 64
6, 19620, Note_on_c, 4, 43, 90
6, 19679, Note_off_c, 4, 43, 64
6, 19680, Note_on_c, 4, 43, 90
6, 19915, Note_off_c, 4, 43, 64
6, 19920, Note_on_c, 4, 43, 90
6, 19979, Note_off_c, 4, 43, 64
6, 19980, Note_on_c, 4, 44, 90
6, 20156, Note_off_c, 4, 44, 64
6, 20160, Note_on_c, 4, 45, 90
6, 20459, Note_off_c, 4, 45, 64
6, 20460, Note_on_c, 4, 48, 90
6, 20578, Note_off_c, 4, 48, 64
6, 20580, Note_on_c, 4, 49, 90
6, 20639, Note_off_c, 4, 49, 64
6, 20640, Note_on_c, 4, 50, 90
6, 20875, Note_off_c, 4, 50, 64
6, 20880, Note_on_c, 4, 38, 90
6, 21115, Note_off_c, 4, 38, 64
6, 21120, Note_on_c, 4, 46, 90
6, 21473, Note_off_c, 4, 46, 64
6, 21480, Note_on_c, 4, 46, 90
6, 21598, Note_off_c, 4, 46, 64
6, 21600, Note_on_c, 4, 45, 90
6, 22016, Note_off_c, 4, 45, 64
6, 22020, Note_on_c, 4, 45, 90
6, 22079, Note_off_c, 4, 45, 64
6, 22080, Note_on_c, 4, 43, 90
6, 22496, Note_off_c, 4, 43, 64
6, 22500, Note_on_c, 4, 43, 90
6, 22559, Note_off_c, 4, 43, 64
6, 22560, Note_on_c, 4, 41, 90
6, 22976, Note_off_c, 4, 41, 64
6, 22980, Note_on_c, 4, 45, 90
6, 23040, Note_on_c, 4, 46, 90
6, 23098, Note_off_c, 4, 45, 64
6, 23456, Note_off_c, 4, 46, 64
6, 23460, Note_on_c, 4, 46, 90
6, 23519, Note_off_c, 4, 46, 64
6, 23520, Note_on_c, 4, 45, 90
6, 23936, Note_off_c, 4, 45, 64
6, 23940, Note_on_c, 4, 45, 90
6, 23999, Note_off_c, 4, 45, 64
6, 24000, Note_on_c, 4, 43, 90
6, 24235, Note_off_c, 4, 43, 64
6, 24240, Note_on_c, 4, 43, 90
6, 24475, Note_off_c, 4, 43, 64
6, 24480, Note_on_c, 4, 43, 90
6, 24539, Note_off_c, 4, 43, 64
6, 24540, Note_on_c, 4, 50, 90
6, 24658, Note_off_c, 4, 50, 64
6, 24660, Note_on_c, 4, 55, 90
6, 24779, Note_off_c, 4, 55, 64
6, 24780, Note_on_c, 4, 50, 90
6, 24898, Note_off_c, 4, 50, 64
6, 24900, Note_on_c, 4, 43, 90
6, 24959, Note_off_c, 4, 43, 64
6, 24960, Note_on_c, 4, 31, 90
6, 25313, Note_off_c, 4, 31, 64
6, 25320, Note_on_c, 4, 34, 90
6, 25379, Note_off_c, 4, 34, 64
6, 25380, Note_on_c, 4, 38, 90
6, 25439, Note_off_c, 4, 38, 64
6, 25440, Note_on_c, 4, 43, 90
6, 25558, Note_off_c, 4, 43, 64
6, 25920, Note_on_c, 4, 46, 90
6, 26096, Note_off_c, 4, 46, 64
6, 26100, Note_on_c, 4, 46, 90
6, 26159, Note_off_c, 4, 46, 64
6, 26160, Note_on_c, 4, 46, 90
6, 26395, Note_off_c, 4, 46, 64
6, 26400, Note_on_c, 4, 46, 90
6, 26635, Note_off_c, 4, 46, 64
6, 26640, Note_on_c, 4, 46, 90
6, 26875, Note_off_c, 4, 46, 64
6, 26880, Note_on_c, 4, 45, 90
6, 27056, Note_off_c, 4, 45, 64
6, 27060, Note_on_c, 4, 45, 90
6, 27119, Note_off_c, 4, 45, 64
6, 27120, Note_on_c, 4, 45, 90
6, 27296, Note_off_c, 4, 45, 64
6, 27300, Note_on_c, 4, 45, 90
6, 27359, Note_off_c, 4, 45, 64
6, 27360, Note_on_c, 4, 41, 90
6, 27419, Note_off_c, 4, 41, 64
6, 27420, Note_on_c, 4, 45, 90
6, 27479, Note_off_c, 4, 45, 64
6, 27480, Note_on_c, 4, 48, 90
6, 27539, Note_off_c, 4, 48, 64
6, 27540, Note_on_c, 4, 50, 90
6, 27599, Note_off_c, 4, 50, 64
6, 27600, Note_on_c, 4, 53, 90
6, 27659, Note_off_c, 4, 53, 64
6, 27660, Note_on_c, 4, 50, 90
6, 27719, Note_off_c, 4, 50, 64
6, 27720, Note_on_c, 4, 48, 90
6, 27779, Note_off_c, 4, 48, 64
6, 27780, Note_on_c, 4, 44, 90
6, 27839, Note_off_c, 4, 44, 64
6, 27840, Note_on_c, 4, 46, 90
6, 28016, Note_off_c, 4, 46, 64
6, 28020, Note_on_c, 4, 46, 90
6, 28079, Note_off_c, 4, 46, 64
6, 28080, Note_on_c, 4, 46, 90
6, 28315, Note_off_c, 4, 46, 64
6, 28320, Note_on_c, 4, 46, 90
6, 28555, Note_off_c, 4, 46, 64
6, 28560, Note_on_c, 4, 46, 90
6, 28795, Note_off_c, 4, 46, 64
6, 28800, Note_on_c, 4, 45, 90
6, 28976, Note_off_c, 4, 45, 64
6, 28980, Note_on_c, 4, 45, 90
6, 29039, Note_off_c, 4, 45, 64
6, 29040, Note_on_c, 4, 45, 90
6, 29216, Note_off_c, 4, 45, 64
6, 29220, Note_on_c, 4, 45, 90
6, 29279, Note_off_c, 4, 45, 64
6, 29280, Note_on_c, 4, 41, 90
6, 29339, Note_off_c, 4, 41, 64
6, 29340, Note_on_c, 4, 45, 90
6, 29399, Note_off_c, 4, 45, 64
6, 29400, Note_on_c, 4, 48, 90
6, 29459, Note_off_c, 4, 48, 64
6, 29460, Note_on_c, 4, 50, 90
6, 29519, Note_off_c, 4, 50, 64
6, 29520, Note_on_c, 4, 53, 90
6, 29579, Note_off_c, 4, 53, 64
6, 29580, Note_on_c, 4, 50, 90
6, 29639, Note_off_c, 4, 50, 64
6, 29640, Note_on_c, 4, 48, 90
6, 29699, Note_off_c, 4, 48, 64
6, 29700, Note_on_c, 4, 44, 90
6, 29759, Note_off_c, 4, 44, 64
6, 29760, Note_on_c, 4, 46, 90
6, 29936, Note_off_c, 4, 46, 64
6, 29940, Note_on_c, 4, 46, 90
6, 29999, Note_off_c, 4, 46, 64
6, 30000, Note_on_c, 4, 46, 90
6, 30235, Note_off_c, 4, 46, 64
6, 30240, Note_on_c, 4, 46, 90
6, 30475, Note_off_c, 4, 46, 64
6, 30480, Note_on_c, 4, 46, 90
6, 30715, Note_off_c, 4, 46, 64
6, 30720, Note_on_c, 4, 45, 90
6, 30896, Note_off_c, 4, 45, 64
6, 30900, Note_on_c, 4, 45, 90
6, 30959, Note_off_c, 4, 45, 64
6, 30960, Note_on_c, 4, 45, 90
6, 31136, Note_off_c, 4, 45, 64
6, 31140, Note_on_c, 4, 45, 90
6, 31199, Note_off_c, 4, 45, 64
6, 31200, Note_on_c, 4, 41, 90
6, 31259, Note_off_c, 4, 41, 64
6, 31260, Note_on_c, 4, 43, 90
6, 31319, Note_off_c, 4, 43, 64
6, 31320, Note_on_c, 4, 48, 90
6, 31379, Note_off_c, 4, 48, 64
6, 31380, Note_on_c, 4, 50, 90
6, 31439, Note_off_c, 4, 50, 64
6, 31440, Note_on_c, 4, 53, 90
6, 31499, Note_off_c, 4, 53, 64
6, 31500, Note_on_c, 4, 50, 90
6, 31559, Note_off_c, 4, 50, 64
6, 31560, Note_on_c, 4, 48, 90
6, 31619, Note_off_c, 4, 48, 64
6, 31620, Note_on_c, 4, 45, 90
6, 31679, Note_off_c, 4, 45, 64
6, 31680, Note_on_c, 4, 46, 90
6, 32150, Note_off_c, 4, 46, 64
6, 32160, Note_on_c, 4, 46, 90
6, 32630, Note_off_c, 4, 46, 64
6, 32640, Note_on_c, 4, 48, 90
6, 32993, Note_off_c, 4, 48, 64
6, 33000, Note_on_c, 4, 36, 90
6, 33118, Note_off_c, 4, 36, 64
6, 33120, Note_on_c, 4, 36, 90
6, 33296, Note_off_c, 4, 36, 64
6, 33300, Note_on_c, 4, 36, 90
6, 33359, Note_off_c, 4, 36, 64
6, 33360, Note_on_c, 4, 36, 90
6, 33595, Note_off_c, 4, 36, 64
6, 33600, Note_on_c, 4, 41, 90
6, 33659, Note_off_c, 4, 41, 64
6, 33660, Note_on_c, 4, 41, 90
6, 33719, Note_off_c, 4, 41, 64
6, 33720, Note_on_c, 4, 41, 90
6, 33779, Note_off_c, 4, 41, 64
6, 33780, Note_on_c, 4, 41, 90
6, 33839, Note_off_c, 4, 41, 64
6, 33840, Note_on_c, 4, 41, 90
6, 33899, Note_off_c, 4, 41, 64
6, 33900, Note_on_c, 4, 41, 90
6, 33959, Note_off_c, 4, 41, 64
6, 33960, Note_on_c, 4, 41, 90
6, 34019, Note_off_c, 4, 41, 64
6, 34020, Note_on_c, 4, 41, 90
6, 34079, Note_off_c, 4, 41, 64
6, 34080, Note_on_c, 4, 41, 90
6, 34139, Note_off_c, 4, 41, 64
6, 34140, Note_on_c, 4, 41, 90
6, 34199, Note_off_c, 4, 41, 64
6, 34200, Note_on_c, 4, 41, 90
6, 34259, Note_off_c, 4, 41, 64
6, 34260, Note_on_c, 4, 41, 90
6, 34319, Note_off_c, 4, 41, 64
6, 34320, Note_on_c, 4, 41, 90
6, 34379, Note_off_c, 4, 41, 64
6, 34380, Note_on_c, 4, 41, 90
6, 34439, Note_off_c, 4, 41, 64
6, 34440, Note_on_c, 4, 41, 90
6, 34499, Note_off_c, 4, 41, 64
6, 34500, Note_on_c, 4, 41, 90
6, 34559, Note_off_c, 4, 41, 64
6, 34560, Note_on_c, 4, 41, 90
6, 34619, Note_off_c, 4, 41, 64
6, 34620, Note_on_c, 4, 41, 90
6, 34679, Note_off_c, 4, 41, 64
6, 34680, Note_on_c, 4, 41, 90
6, 34739, Note_off_c, 4, 41, 64
6, 34740, Note_on_c, 4, 41, 90
6, 34799, Note_off_c, 4, 41, 64
6, 34800, Note_on_c, 4, 41, 90
6, 34859, Note_off_c, 4, 41, 64
6, 34860, Note_on_c, 4, 41, 90
6, 34919, Note_off_c, 4, 41, 64
6, 34920, Note_on_c, 4, 41, 90
6, 34979, Note_off_c, 4, 41, 64
6, 34980, Note_on_c, 4, 41, 90
6, 35039, Note_off_c, 4, 41, 64
6, 35040, Note_on_c, 4, 41, 90
6, 35099, Note_off_c, 4, 41, 64
6, 35100, Note_on_c, 4, 41, 90
6, 35159, Note_off_c, 4, 41, 64
6, 35160, Note_on_c, 4, 41, 90
6, 35219, Note_off_c, 4, 41, 64
6, 35220, Note_on_c, 4, 41, 90
6, 35279, Note_off_c, 4, 41, 64
6, 35280, Note_on_c, 4, 41, 90
6, 35339, Note_off_c, 4, 41, 64
6, 35340, Note_on_c, 4, 41, 90
6, 35399, Note_off_c, 4, 41, 64
6, 35400, Note_on_c, 4, 41, 90
6, 35459, Note_off_c, 4, 41, 64
6, 35460, Note_on_c, 4, 41, 90
6, 35519, Note_off_c, 4, 41, 64
6, 35520, Note_on_c, 4, 41, 90
6, 35579, Note_off_c, 4, 41, 64
6, 35580, Note_on_c, 4, 41, 90
6, 35639, Note_off_c, 4, 41, 64
6, 35640, Note_on_c, 4, 41, 90
6, 35699, Note_off_c, 4, 41, 64
6, 35700, Note_on_c, 4, 41, 90
6, 35759, Note_off_c, 4, 41, 64
6, 35760, Note_on_c, 4, 41, 90
6, 35819, Note_off_c, 4, 41, 64
6, 35820, Note_on_c, 4, 41, 90
6, 35879, Note_off_c, 4, 41, 64
6, 35880, Note_on_c, 4, 41, 90
6, 35939, Note_off_c, 4, 41, 64
6, 35940, Note_on_c, 4, 41, 90
6, 35999, Note_off_c, 4, 41, 64
6, 36000, Note_on_c, 4, 41, 90
6, 36059, Note_off_c, 4, 41, 64
6, 36060, Note_on_c, 4, 41, 90
6, 36119, Note_off_c, 4, 41, 64
6, 36120, Note_on_c, 4, 41, 90
6, 36179, Note_off_c, 4, 41, 64
6, 36180, Note_on_c, 4, 41, 90
6, 36239, Note_off_c, 4, 41, 64
6, 36240, Note_on_c, 4, 41, 90
6, 36299, Note_off_c, 4, 41, 64
6, 36300, Note_on_c, 4, 41, 90
6, 36359, Note_off_c, 4, 41, 64
6, 36360, Note_on_c, 4, 41, 90
6, 36419, Note_off_c, 4, 41, 64
6, 36420, Note_on_c, 4, 41, 90
6, 36479, Note_off_c, 4, 41, 64
6, 36480, Note_on_c, 4, 41, 90
6, 36539, Note_off_c, 4, 41, 64
6, 36540, Note_on_c, 4, 41, 90
6, 36599, Note_off_c, 4, 41, 64
6, 36600, Note_on_c, 4, 41, 90
6, 36659, Note_off_c, 4, 41, 64
6, 36660, Note_on_c, 4, 41, 90
6, 36719, Note_off_c, 4, 41, 64
6, 36720, Note_on_c, 4, 41, 90
6, 36779, Note_off_c, 4, 41, 64
6, 36780, Note_on_c, 4, 41, 90
6, 36839, Note_off_c, 4, 41, 64
6, 36840, Note_on_c, 4, 41, 90
6, 36899, Note_off_c, 4, 41, 64
6, 36900, Note_on_c, 4, 41, 90
6, 36959, Note_off_c, 4, 41, 64
6, 36960, Note_on_c, 4, 41, 90
6, 37019, Note_off_c, 4, 41, 64
6, 37020, Note_on_c, 4, 41, 90
6, 37079, Note_off_c, 4, 41, 64
6, 37080, Note_on_c, 4, 41, 90
6, 37139, Note_off_c, 4, 41, 64
6, 37140, Note_on_c, 4, 41, 90
6, 37199, Note_off_c, 4, 41, 64
6, 37200, Note_on_c, 4, 41, 90
6, 37259, Note_off_c, 4, 41, 64
6, 37260, Note_on_c, 4, 41, 90
6, 37319, Note_off_c, 4, 41, 64
6, 37320, Note_on_c, 4, 41, 90
6, 37379, Note_off_c, 4, 41, 64
6, 37380, Note_on_c, 4, 41, 90
6, 37439, Note_off_c, 4, 41, 64
6, 37440, Note_on_c, 4, 41, 90
6, 37675, Note_off_c, 4, 41, 64
6, 37680, Note_on_c, 4, 41, 90
6, 37915, Note_off_c, 4, 41, 64
6, 37920, Note_on_c, 4, 41, 90
6, 38155, Note_off_c, 4, 41, 64
6, 38160, Note_on_c, 4, 41, 90
6, 38395, Note_off_c, 4, 41, 64
6, 38400, Note_on_c, 4, 41, 90
6, 38635, Note_off_c, 4, 41, 64
6, 38640, Note_on_c, 4, 41, 90
6, 38816, Note_off_c, 4, 41, 64
6, 38820, Note_on_c, 4, 36, 90
6, 38879, Note_off_c, 4, 36, 64
6, 38880, Note_on_c, 4, 41, 90
6, 39115, Note_off_c, 4, 41, 64
6, 39120, Note_on_c, 4, 41, 90
6, 39355, Note_off_c, 4, 41, 64
6, 39360, Note_on_c, 4, 46, 90
6, 39595, Note_off_c, 4, 46, 64
6, 39600, Note_on_c, 4, 46, 90
6, 39835, Note_off_c, 4, 46, 64
6, 39840, Note_on_c, 4, 46, 90
6, 40075, Note_off_c, 4, 46, 64
6, 40080, Note_on_c, 4, 46, 90
6, 40315, Note_off_c, 4, 46, 64
6, 40320, Note_on_c, 4, 41, 90
6, 40555, Note_off_c, 4, 41, 64
6, 40560, Note_on_c, 4, 41, 90
6, 40736, Note_off_c, 4, 41, 64
6, 40740, Note_on_c, 4, 36, 90
6, 40799, Note_off_c, 4, 36, 64
6, 40800, Note_on_c, 4, 41, 90
6, 41035, Note_off_c, 4, 41, 64
6, 41040, Note_on_c, 4, 41, 90
6, 41275, Note_off_c, 4, 41, 64
6, 41280, Note_on_c, 4, 40, 90
6, 41515, Note_off_c, 4, 40, 64
6, 41520, Note_on_c, 4, 40, 90
6, 41755, Note_off_c, 4, 40, 64
6, 41760, Note_on_c, 4, 40, 90
6, 41995, Note_off_c, 4, 40, 64
6, 42000, Note_on_c, 4, 40, 90
6, 42235, Note_off_c, 4, 40, 64
6, 42240, Note_on_c, 4, 38, 90
6, 42475, Note_off_c, 4, 38, 64
6, 42480, Note_on_c, 4, 38, 90
6, 42656, Note_off_c, 4, 38, 64
6, 42660, Note_on_c, 4, 33, 90
6, 42719, Note_off_c, 4, 33, 64
6, 42720, Note_on_c, 4, 38, 90
6, 42955, Note_off_c, 4, 38, 64
6, 42960, Note_on_c, 4, 38, 90
6, 43195, Note_off_c, 4, 38, 64
6, 43200, Note_on_c, 4, 45, 90
6, 43435, Note_off_c, 4, 45, 64
6, 43440, Note_on_c, 4, 45, 90
6, 43675, Note_off_c, 4, 45, 64
6, 43680, Note_on_c, 4, 46, 90
6, 43915, Note_off_c, 4, 46, 64
6, 43920, Note_on_c, 4, 46, 90
6, 44155, Note_off_c, 4, 46, 64
6, 44160, Note_on_c, 4, 55, 90
6, 44336, Note_off_c, 4, 55, 64
6, 44340, Note_on_c, 4, 55, 90
6, 44399, Note_off_c, 4, 55, 64
6, 44400, Note_on_c, 4, 55, 90
6, 44459, Note_off_c, 4, 55, 64
6, 44460, Note_on_c, 4, 53, 90
6, 44578, Note_off_c, 4, 53, 64
6, 44580, Note_on_c, 4, 50, 90
6, 44639, Note_off_c, 4, 50, 64
6, 44640, Note_on_c, 4, 50, 90
6, 44699, Note_off_c, 4, 50, 64
6, 44700, Note_on_c, 4, 48, 90
6, 44818, Note_off_c, 4, 48, 64
6, 44820, Note_on_c, 4, 46, 90
6, 44879, Note_off_c, 4, 46, 64
6, 44880, Note_on_c, 4, 46, 90
6, 44939, Note_off_c, 4, 46, 64
6, 44940, Note_on_c, 4, 45, 90
6, 45058, Note_off_c, 4, 45, 64
6, 45060, Note_on_c, 4, 43, 90
6, 45119, Note_off_c, 4, 43, 64
6, 45120, Note_on_c, 4, 41, 90
6, 45312, Note_off_c, 4, 41, 64
6, 45360, Note_on_c, 4, 41, 90
6, 45552, Note_off_c, 4, 41, 64
6, 45600, Note_on_c, 4, 41, 90
6, 45792, Note_off_c, 4, 41, 64
6, 45840, Note_on_c, 4, 41, 90
6, 46032, Note_off_c, 4, 41, 64
6, 46080, Note_on_c, 4, 41, 90
6, 46272, Note_off_c, 4, 41, 64
6, 46320, Note_on_c, 4, 41, 90
6, 46464, Note_off_c, 4, 41, 64
6, 46500, Note_on_c, 4, 36, 90
6, 46548, Note_off_c, 4, 36, 64
6, 46560, Note_on_c, 4, 41, 90
6, 46752, Note_off_c, 4, 41, 64
6, 46800, Note_on_c, 4, 41, 90
6, 46992, Note_off_c, 4, 41, 64
6, 47040, Note_on_c, 4, 34, 90
6, 47232, Note_off_c, 4, 34, 64
6, 47280, Note_on_c, 4, 34, 90
6, 47472, Note_off_c, 4, 34, 64
6, 47520, Note_on_c, 4, 46, 90
6, 47712, Note_off_c, 4, 46, 64
6, 47760, Note_on_c, 4, 46, 90
6, 47952, Note_off_c, 4, 46, 64
6, 48000, Note_on_c, 4, 41, 90
6, 48235, Note_off_c, 4, 41, 64
6, 48240, Note_on_c, 4, 41, 90
6, 48416, Note_off_c, 4, 41, 64
6, 48420, Note_on_c, 4, 36, 90
6, 48479, Note_off_c, 4, 36, 64
6, 48480, Note_on_c, 4, 41, 90
6, 48715, Note_off_c, 4, 41, 64
6, 48720, Note_on_c, 4, 41, 90
6, 48955, Note_off_c, 4, 41, 64
6, 48960, Note_on_c, 4, 40, 90
6, 49195, Note_off_c, 4, 40, 64
6, 49200, Note_on_c, 4, 40, 90
6, 49435, Note_off_c, 4, 40, 64
6, 49440, Note_on_c, 4, 40, 90
6, 49675, Note_off_c, 4, 40, 64
6, 49680, Note_on_c, 4, 40, 90
6, 49915, Note_off_c, 4, 40, 64
6, 49920, Note_on_c, 4, 38, 90
6, 50155, Note_off_c, 4, 38, 64
6, 50160, Note_on_c, 4, 38, 90
6, 50336, Note_off_c, 4, 38, 64
6, 50340, Note_on_c, 4, 45, 90
6, 50399, Note_off_c, 4, 45, 64
6, 50400, Note_on_c, 4, 38, 90
6, 50635, Note_off_c, 4, 38, 64
6, 50640, Note_on_c, 4, 38, 90
6, 50875, Note_off_c, 4, 38, 64
6, 50880, Note_on_c, 4, 45, 90
6, 51115, Note_off_c, 4, 45, 64
6, 51120, Note_on_c, 4, 45, 90
6, 51355, Note_off_c, 4, 45, 64
6, 51360, Note_on_c, 4, 46, 90
6, 51595, Note_off_c, 4, 46, 64
6, 51600, Note_on_c, 4, 46, 90
6, 51835, Note_off_c, 4, 46, 64
6, 51840, Note_on_c, 4, 43, 90
6, 52016, Note_off_c, 4, 43, 64
6, 52020, Note_on_c, 4, 43, 90
6, 52079, Note_off_c, 4, 43, 64
6, 52080, Note_on_c, 4, 43, 90
6, 52256, Note_off_c, 4, 43, 64
6, 52260, Note_on_c, 4, 43, 90
6, 52319, Note_off_c, 4, 43, 64
6, 52320, Note_on_c, 4, 43, 90
6, 52555, Note_off_c, 4, 43, 64
6, 52560, Note_on_c, 4, 43, 90
6, 52619, Note_off_c, 4, 43, 64
6, 52620, Note_on_c, 4, 44, 90
6, 52796, Note_off_c, 4, 44, 64
6, 52800, Note_on_c, 4, 45, 90
6, 53099, Note_off_c, 4, 45, 64
6, 53100, Note_on_c, 4, 48, 90
6, 53218, Note_off_c, 4, 48, 64
6, 53220, Note_on_c, 4, 49, 90
6, 53279, Note_off_c, 4, 49, 64
6, 53280, Note_on_c, 4, 50, 90
6, 53515, Note_off_c, 4, 50, 64
6, 53520, Note_on_c, 4, 38, 90
6, 53755, Note_off_c, 4, 38, 64
6, 53760, Note_on_c, 4, 46, 90
6, 54113, Note_off_c, 4, 46, 64
6, 54120, Note_on_c, 4, 46, 90
6, 54238, Note_off_c, 4, 46, 64
6, 54240, Note_on_c, 4, 45, 90
6, 54656, Note_off_c, 4, 45, 64
6, 54660, Note_on_c, 4, 45, 90
6, 54719, Note_off_c, 4, 45, 64
6, 54720, Note_on_c, 4, 43, 90
6, 55136, Note_off_c, 4, 43, 64
6, 55140, Note_on_c, 4, 43, 90
6, 55199, Note_off_c, 4, 43, 64
6, 55200, Note_on_c, 4, 41, 90
6, 55616, Note_off_c, 4, 41, 64
6, 55620, Note_on_c, 4, 45, 90
6, 55680, Note_on_c, 4, 46, 90
6, 55738, Note_off_c, 4, 45, 64
6, 56096, Note_off_c, 4, 46, 64
6, 56100, Note_on_c, 4, 46, 90
6, 56159, Note_off_c, 4, 46, 64
6, 56160, Note_on_c, 4, 45, 90
6, 56576, Note_off_c, 4, 45, 64
6, 56580, Note_on_c, 4, 45, 90
6, 56639, Note_off_c, 4, 45, 64
6, 56640, Note_on_c, 4, 43, 90
6, 56875, Note_off_c, 4, 43, 64
6, 56880, Note_on_c, 4, 43, 90
6, 57115, Note_off_c, 4, 43, 64
6, 57120, Note_on_c, 4, 43, 90
6, 57179, Note_off_c, 4, 43, 64
6, 57180, Note_on_c, 4, 50, 90
6, 57298, Note_off_c, 4, 50, 64
6, 57300, Note_on_c, 4, 55, 90
6, 57419, Note_off_c, 4, 55, 64
6, 57420, Note_on_c, 4, 50, 90
6, 57538, Note_off_c, 4, 50, 64
6, 57540, Note_on_c, 4, 43, 90
6, 57599, Note_off_c, 4, 43, 64
6, 57600, Note_on_c, 4, 31, 90
6, 57953, Note_off_c, 4, 31, 64
6, 57960, Note_on_c, 4, 34, 90
6, 58019, Note_off_c, 4, 34, 64
6, 58020, Note_on_c, 4, 38, 90
6, 58079, Note_off_c, 4, 38, 64
6, 58080, Note_on_c, 4, 43, 90
6, 58198, Note_off_c, 4, 43, 64
6, 58560, Note_on_c, 4, 46, 90
6, 58736, Note_off_c, 4, 46, 64
6, 58740, Note_on_c, 4, 46, 90
6, 58799, Note_off_c, 4, 46, 64
6, 58800, Note_on_c, 4, 46, 90
6, 59035, Note_off_c, 4, 46, 64
6, 59040, Note_on_c, 4, 46, 90
6, 59275, Note_off_c, 4, 46, 64
6, 59280, Note_on_c, 4, 46, 90
6, 59515, Note_off_c, 4, 46, 64
6, 59520, Note_on_c, 4, 45, 90
6, 59696, Note_off_c, 4, 45, 64
6, 59700, Note_on_c, 4, 45, 90
6, 59759, Note_off_c, 4, 45, 64
6, 59760, Note_on_c, 4, 45, 90
6, 59936, Note_off_c, 4, 45, 64
6, 59940, Note_on_c, 4, 45, 90
6, 59999, Note_off_c, 4, 45, 64
6, 60000, Note_on_c, 4, 41, 90
6, 60059, Note_off_c, 4, 41, 64
6, 60060, Note_on_c, 4, 45, 90
6, 60119, Note_off_c, 4, 45, 64
6, 60120, Note_on_c, 4, 48, 90
6, 60179, Note_off_c, 4, 48, 64
6, 60180, Note_on_c, 4, 50, 90
6, 60239, Note_off_c, 4, 50, 64
6, 60240, Note_on_c, 4, 53, 90
6, 60299, Note_off_c, 4, 53, 64
6, 60300, Note_on_c, 4, 50, 90
6, 60359, Note_off_c, 4, 50, 64
6, 60360, Note_on_c, 4, 48, 90
6, 60419, Note_off_c, 4, 48, 64
6, 60420, Note_on_c, 4, 44, 90
6, 60479, Note_off_c, 4, 44, 64
6, 60480, Note_on_c, 4, 46, 90
6, 60656, Note_off_c, 4, 46, 64
6, 60660, Note_on_c, 4, 46, 90
6, 60719, Note_off_c, 4, 46, 64
6, 60720, Note_on_c, 4, 46, 90
6, 60955, Note_off_c, 4, 46, 64
6, 60960, Note_on_c, 4, 46, 90
6, 61195, Note_off_c, 4, 46, 64
6, 61200, Note_on_c, 4, 46, 90
6, 61435, Note_off_c, 4, 46, 64
6, 61440, Note_on_c, 4, 45, 90
6, 61616, Note_off_c, 4, 45, 64
6, 61620, Note_on_c, 4, 45, 90
6, 61679, Note_off_c, 4, 45, 64
6, 61680, Note_on_c, 4, 45, 90
6, 61856, Note_off_c, 4, 45, 64
6, 61860, Note_on_c, 4, 45, 90
6, 61919, Note_off_c, 4, 45, 64
6, 61920, Note_on_c, 4, 41, 90
6, 61979, Note_off_c, 4, 41, 64
6, 61980, Note_on_c, 4, 45, 90
6, 62039, Note_off_c, 4, 45, 64
6, 62040, Note_on_c, 4, 48, 90
6, 62099, Note_off_c, 4, 48, 64
6, 62100, Note_on_c, 4, 50, 90
6, 62159, Note_off_c, 4, 50, 64
6, 62160, Note_on_c, 4, 53, 90
6, 62219, Note_off_c, 4, 53, 64
6, 62220, Note_on_c, 4, 50, 90
6, 62279, Note_off_c, 4, 50, 64
6, 62280, Note_on_c, 4, 48, 90
6, 62339, Note_off_c, 4, 48, 64
6, 62340, Note_on_c, 4, 44, 90
6, 62399, Note_off_c, 4, 44, 64
6, 62400, Note_on_c, 4, 46, 90
6, 62576, Note_off_c, 4, 46, 64
6, 62580, Note_on_c, 4, 46, 90
6, 62639, Note_off_c, 4, 46, 64
6, 62640, Note_on_c, 4, 46, 90
6, 62875, Note_off_c, 4, 46, 64
6, 62880, Note_on_c, 4, 46, 90
6, 63115, Note_off_c, 4, 46, 64
6, 63120, Note_on_c, 4, 46, 90
6, 63355, Note_off_c, 4, 46, 64
6, 63360, Note_on_c, 4, 45, 90
6, 63536, Note_off_c, 4, 45, 64
6, 63540, Note_on_c, 4, 45, 90
6, 63599, Note_off_c, 4, 45, 64
6, 63600, Note_on_c, 4, 45, 90
6, 63776, Note_off_c, 4, 45, 64
6, 63780, Note_on_c, 4, 45, 90
6, 63839, Note_off_c, 4, 45, 64
6, 63840, Note_on_c, 4, 41, 90
6, 63899, Note_off_c, 4, 41, 64
6, 63900, Note_on_c, 4, 43, 90
6, 63959, Note_off_c, 4, 43, 64
6, 63960, Note_on_c, 4, 48, 90
6, 64019, Note_off_c, 4, 48, 64
6, 64020, Note_on_c, 4, 50, 90
6, 64079, Note_off_c, 4, 50, 64
6, 64080, Note_on_c, 4, 53, 90
6, 64139, Note_off_c, 4, 53, 64
6, 64140, Note_on_c, 4, 50, 90
6, 64199, Note_off_c, 4, 50, 64
6, 64200, Note_on_c, 4, 48, 90
6, 64259, Note_off_c, 4, 48, 64
6, 64260, Note_on_c, 4, 45, 90
6, 64319, Note_off_c, 4, 45, 64
6, 64320, Note_on_c, 4, 46, 90
6, 64790, Note_off_c, 4, 46, 64
6, 64800, Note_on_c, 4, 46, 90
6, 65270, Note_off_c, 4, 46, 64
6, 65280, Note_on_c, 4, 48, 90
6, 65633, Note_off_c, 4, 48, 64
6, 65640, Note_on_c, 4, 48, 90
6, 65758, Note_off_c, 4, 48, 64
6, 65760, Note_on_c, 4, 36, 90
6, 66239, Note_off_c, 4, 36, 64
6, 66240, Note_on_c, 4, 46, 90
6, 66416, Note_off_c, 4, 46, 64
6, 66420, Note_on_c, 4, 46, 90
6, 66479, Note_off_c, 4, 46, 64
6, 66480, Note_on_c, 4, 46, 90
6, 66715, Note_off_c, 4, 46, 64
6, 66720, Note_on_c, 4, 46, 90
6, 66955, Note_off_c, 4, 46, 64
6, 66960, Note_on_c, 4, 46, 90
6, 67195, Note_off_c, 4, 46, 64
6, 67200, Note_on_c, 4, 45, 90
6, 67376, Note_off_c, 4, 45, 64
6, 67380, Note_on_c, 4, 45, 90
6, 67439, Note_off_c, 4, 45, 64
6, 67440, Note_on_c, 4, 45, 90
6, 67616, Note_off_c, 4, 45, 64
6, 67620, Note_on_c, 4, 45, 90
6, 67679, Note_off_c, 4, 45, 64
6, 67680, Note_on_c, 4, 41, 90
6, 67739, Note_off_c, 4, 41, 64
6, 67740, Note_on_c, 4, 45, 90
6, 67799, Note_off_c, 4, 45, 64
6, 67800, Note_on_c, 4, 48, 90
6, 67859, Note_off_c, 4, 48, 64
6, 67860, Note_on_c, 4, 50, 90
6, 67919, Note_off_c, 4, 50, 64
6, 67920, Note_on_c, 4, 53, 90
6, 67979, Note_off_c, 4, 53, 64
6, 67980, Note_on_c, 4, 50, 90
6, 68039, Note_off_c, 4, 50, 64
6, 68040, Note_on_c, 4, 48, 90
6, 68099, Note_off_c, 4, 48, 64
6, 68100, Note_on_c, 4, 44, 90
6, 68159, Note_off_c, 4, 44, 64
6, 68160, Note_on_c, 4, 46, 90
6, 68336, Note_off_c, 4, 46, 64
6, 68340, Note_on_c, 4, 46, 90
6, 68399, Note_off_c, 4, 46, 64
6, 68400, Note_on_c, 4, 46, 90
6, 68635, Note_off_c, 4, 46, 64
6, 68640, Note_on_c, 4, 46, 90
6, 68875, Note_off_c, 4, 46, 64
6, 68880, Note_on_c, 4, 46, 90
6, 69115, Note_off_c, 4, 46, 64
6, 69120, Note_on_c, 4, 45, 90
6, 69296, Note_off_c, 4, 45, 64
6, 69300, Note_on_c, 4, 45, 90
6, 69359, Note_off_c, 4, 45, 64
6, 69360, Note_on_c, 4, 45, 90
6, 69536, Note_off_c, 4, 45, 64
6, 69540, Note_on_c, 4, 45, 90
6, 69599, Note_off_c, 4, 45, 64
6, 69600, Note_on_c, 4, 41, 90
6, 69659, Note_off_c, 4, 41, 64
6, 69660, Note_on_c, 4, 45, 90
6, 69719, Note_off_c, 4, 45, 64
6, 69720, Note_on_c, 4, 48, 90
6, 69779, Note_off_c, 4, 48, 64
6, 69780, Note_on_c, 4, 50, 90
6, 69839, Note_off_c, 4, 50, 64
6, 69840, Note_on_c, 4, 53, 90
6, 69899, Note_off_c, 4, 53, 64
6, 69900, Note_on_c, 4, 50, 90
6, 69959, Note_off_c, 4, 50, 64
6, 69960, Note_on_c, 4, 48, 90
6, 70019, Note_off_c, 4, 48, 64
6, 70020, Note_on_c, 4, 44, 90
6, 70079, Note_off_c, 4, 44, 64
6, 70080, Note_on_c, 4, 46, 90
6, 70256, Note_off_c, 4, 46, 64
6, 70260, Note_on_c, 4, 46, 90
6, 70319, Note_off_c, 4, 46, 64
6, 70320, Note_on_c, 4, 46, 90
6, 70555, Note_off_c, 4, 46, 64
6, 70560, Note_on_c, 4, 46, 90
6, 70795, Note_off_c, 4, 46, 64
6, 70800, Note_on_c, 4, 46, 90
6, 71035, Note_off_c, 4, 46, 64
6, 71040, Note_on_c, 4, 45, 90
6, 71216, Note_off_c, 4, 45, 64
6, 71220, Note_on_c, 4, 45, 90
6, 71279, Note_off_c, 4, 45, 64
6, 71280, Note_on_c, 4, 45, 90
6, 71456, Note_off_c, 4, 45, 64
6, 71460, Note_on_c, 4, 45, 90
6, 71519, Note_off_c, 4, 45, 64
6, 71520, Note_on_c, 4, 41, 90
6, 71579, Note_off_c, 4, 41, 64
6, 71580, Note_on_c, 4, 43, 90
6, 71639, Note_off_c, 4, 43, 64
6, 71640, Note_on_c, 4, 48, 90
6, 71699, Note_off_c, 4, 48, 64
6, 71700, Note_on_c, 4, 50, 90
6, 71759, Note_off_c, 4, 50, 64
6, 71760, Note_on_c, 4, 53, 90
6, 71819, Note_off_c, 4, 53, 64
6, 71820, Note_on_c, 4, 50, 90
6, 71879, Note_off_c, 4, 50, 64
6, 71880, Note_on_c, 4, 48, 90
6, 71939, Note_off_c, 4, 48, 64
6, 71940, Note_on_c, 4, 45, 90
6, 71999, Note_off_c, 4, 45, 64
6, 72000, Note_on_c, 4, 46, 90
6, 72470, Note_off_c, 4, 46, 64
6, 72480, Note_on_c, 4, 46, 90
6, 72950, Note_off_c, 4, 46, 64
6, 72960, Note_on_c, 4, 48, 90
6, 73313, Note_off_c, 4, 48, 64
6, 73320, Note_on_c, 4, 36, 90
6, 73438, Note_off_c, 4, 36, 64
6, 73440, Note_on_c, 4, 36, 90
6, 73616, Note_off_c, 4, 36, 64
6, 73620, Note_on_c, 4, 36, 90
6, 73679, Note_off_c, 4, 36, 64
6, 73680, Note_on_c, 4, 36, 90
6, 73915, Note_off_c, 4, 36, 64
6, 73920, Note_on_c, 4, 41, 90
6, 73979, Note_off_c, 4, 41, 64
6, 73980, Note_on_c, 4, 41, 90
6, 74039, Note_off_c, 4, 41, 64
6, 74040, Note_on_c, 4, 41, 89
6, 74099, Note_off_c, 4, 41, 64
6, 74100, Note_on_c, 4, 41, 89
6, 74159, Note_off_c, 4, 41, 64
6, 74160, Note_on_c, 4, 41, 89
6, 74219, Note_off_c, 4, 41, 64
6, 74220, Note_on_c, 4, 41, 88
6, 74279, Note_off_c, 4, 41, 64
6, 74280, Note_on_c, 4, 41, 88
6, 74339, Note_off_c, 4, 41, 64
6, 74340, Note_on_c, 4, 41, 88
6, 74399, Note_off_c, 4, 41, 64
6, 74400, Note_on_c, 4, 41, 87
6, 74459, Note_off_c, 4, 41, 64
6, 74460, Note_on_c, 4, 41, 87
6, 74519, Note_off_c, 4, 41, 64
6, 74520, Note_on_c, 4, 41, 87
6, 74579, Note_off_c, 4, 41, 64
6, 74580, Note_on_c, 4, 41, 86
6, 74639, Note_off_c, 4, 41, 64
6, 74640, Note_on_c, 4, 41, 86
6, 74699, Note_off_c, 4, 41, 64
6, 74700, Note_on_c, 4, 41, 85
6, 74759, Note_off_c, 4, 41, 64
6, 74760, Note_on_c, 4, 41, 85
6, 74819, Note_off_c, 4, 41, 64
6, 74820, Note_on_c, 4, 41, 85
6, 74879, Note_off_c, 4, 41, 64
6, 74880, Note_on_c, 4, 41, 84
6, 74939, Note_off_c, 4, 41, 64
6, 74940, Note_on_c, 4, 41, 84
6, 74999, Note_off_c, 4, 41, 64
6, 75000, Note_on_c, 4, 41, 84
6, 75059, Note_off_c, 4, 41, 64
6, 75060, Note_on_c, 4, 41, 83
6, 75119, Note_off_c, 4, 41, 64
6, 75120, Note_on_c, 4, 41, 83
6, 75179, Note_off_c, 4, 41, 64
6, 75180, Note_on_c, 4, 41, 83
6, 75239, Note_off_c, 4, 41, 64
6, 75240, Note_on_c, 4, 41, 82
6, 75299, Note_off_c, 4, 41, 64
6, 75300, Note_on_c, 4, 41, 82
6, 75359, Note_off_c, 4, 41, 64
6, 75360, Note_on_c, 4, 41, 82
6, 75419, Note_off_c, 4, 41, 64
6, 75420, Note_on_c, 4, 41, 81
6, 75479, Note_off_c, 4, 41, 64
6, 75480, Note_on_c, 4, 41, 81
6, 75539, Note_off_c, 4, 41, 64
6, 75540, Note_on_c, 4, 41, 81
6, 75599, Note_off_c, 4, 41, 64
6, 75600, Note_on_c, 4, 41, 80
6, 75659, Note_off_c, 4, 41, 64
6, 75660, Note_on_c, 4, 41, 80
6, 75719, Note_off_c, 4, 41, 64
6, 75720, Note_on_c, 4, 41, 80
6, 75779, Note_off_c, 4, 41, 64
6, 75780, Note_on_c, 4, 41, 79
6, 75839, Note_off_c, 4, 41, 64
6, 75840, Note_on_c, 4, 41, 79
6, 75899, Note_off_c, 4, 41, 64
6, 75900, Note_on_c, 4, 41, 79
6, 75959, Note_off_c, 4, 41, 64
6, 75960, Note_on_c, 4, 41, 78
6, 76019, Note_off_c, 4, 41, 64
6, 76020, Note_on_c, 4, 41, 78
6, 76079, Note_off_c, 4, 41, 64
6, 76080, Note_on_c, 4, 41, 77
6, 76139, Note_off_c, 4, 41, 64
6, 76140, Note_on_c, 4, 41, 77
6, 76199, Note_off_c, 4, 41, 64
6, 76200, Note_on_c, 4, 41, 77
6, 76259, Note_off_c, 4, 41, 64
6, 76260, Note_on_c, 4, 41, 76
6, 76319, Note_off_c, 4, 41, 64
6, 76320, Note_on_c, 4, 41, 76
6, 76379, Note_off_c, 4, 41, 64
6, 76380, Note_on_c, 4, 41, 76
6, 76439, Note_off_c, 4, 41, 64
6, 76440, Note_on_c, 4, 41, 75
6, 76499, Note_off_c, 4, 41, 64
6, 76500, Note_on_c, 4, 41, 75
6, 76559, Note_off_c, 4, 41, 64
6, 76560, Note_on_c, 4, 41, 75
6, 76619, Note_off_c, 4, 41, 64
6, 76620, Note_on_c, 4, 41, 74
6, 76679, Note_off_c, 4, 41, 64
6, 76680, Note_on_c, 4, 41, 74
6, 76739, Note_off_c, 4, 41, 64
6, 76740, Note_on_c, 4, 41, 74
6, 76799, Note_off_c, 4, 41, 64
6, 76800, Note_on_c, 4, 41, 73
6, 76859, Note_off_c, 4, 41, 64
6, 76860, Note_on_c, 4, 41, 73
6, 76919, Note_off_c, 4, 41, 64
6, 76920, Note_on_c, 4, 41, 73
6, 76979, Note_off_c, 4, 41, 64
6, 76980, Note_on_c, 4, 41, 72
6, 77039, Note_off_c, 4, 41, 64
6, 77040, Note_on_c, 4, 41, 72
6, 77099, Note_off_c, 4, 41, 64
6, 77100, Note_on_c, 4, 41, 72
6, 77159, Note_off_c, 4, 41, 64
6, 77160, Note_on_c, 4, 41, 71
6, 77219, Note_off_c, 4, 41, 64
6, 77220, Note_on_c, 4, 41, 71
6, 77279, Note_off_c, 4, 41, 64
6, 77280, Note_on_c, 4, 41, 71
6, 77339, Note_off_c, 4, 41, 64
6, 77340, Note_on_c, 4, 41, 70
6, 77399, Note_off_c, 4, 41, 64
6, 77400, Note_on_c, 4, 41, 70
6, 77459, Note_off_c, 4, 41, 64
6, 77460, Note_on_c, 4, 41, 69
6, 77519, Note_off_c, 4, 41, 64
6, 77520, Note_on_c, 4, 41, 69
6, 77579, Note_off_c, 4, 41, 64
6, 77580, Note_on_c, 4, 41, 69
6, 77639, Note_off_c, 4, 41, 64
6, 77640, Note_on_c, 4, 41, 68
6, 77699, Note_off_c, 4, 41, 64
6, 77700, Note_on_c, 4, 41, 68
6, 77759, Note_off_c, 4, 41, 64
6, 77760, Note_on_c, 4, 41, 68
6, 77819, Note_off_c, 4, 41, 64
6, 77820, Note_on_c, 4, 41, 67
6, 77879, Note_off_c, 4, 41, 64
6, 77880, Note_on_c, 4, 41, 67
6, 77939, Note_off_c, 4, 41, 64
6, 77940, Note_on_c, 4, 41, 67
6, 77999, Note_off_c, 4, 41, 64
6, 78000, Note_on_c, 4, 41, 66
6, 78059, Note_off_c, 4, 41, 64
6, 78060, Note_on_c, 4, 41, 66
6, 78119, Note_off_c, 4, 41, 64
6, 78120, Note_on_c, 4, 41, 66
6, 78179, Note_off_c, 4, 41, 64
6, 78180, Note_on_c, 4, 41, 65
6, 78239, Note_off_c, 4, 41, 64
6, 78240, Note_on_c, 4, 41, 65
6, 78299, Note_off_c, 4, 41, 64
6, 78300, Note_on_c, 4, 41, 65
6, 78359, Note_off_c, 4, 41, 64
6, 78360, Note_on_c, 4, 41, 64
6, 78419, Note_off_c, 4, 41, 64
6, 78420, Note_on_c, 4, 41, 64
6, 78479, Note_off_c, 4, 41, 64
6, 78480, Note_on_c, 4, 41, 64
6, 78539, Note_off_c, 4, 41, 64
6, 78540, Note_on_c, 4, 41, 63
6, 78599, Note_off_c, 4, 41, 64
6, 78600, Note_on_c, 4, 41, 63
6, 78659, Note_off_c, 4, 41, 64
6, 78660, Note_on_c, 4, 41, 63
6, 78719, Note_off_c, 4, 41, 64
6, 78720, Note_on_c, 4, 41, 62
6, 78779, Note_off_c, 4, 41, 64
6, 78780, Note_on_c, 4, 41, 62
6, 78839, Note_off_c, 4, 41, 64
6, 78840, Note_on_c, 4, 41, 61
6, 78899, Note_off_c, 4, 41, 64
6, 78900, Note_on_c, 4, 41, 61
6, 78959, Note_off_c, 4, 41, 64
6, 78960, Note_on_c, 4, 41, 61
6, 79019, Note_off_c, 4, 41, 64
6, 79020, Note_on_c, 4, 41, 60
6, 79079, Note_off_c, 4, 41, 64
6, 79080, Note_on_c, 4, 41, 60
6, 79139, Note_off_c, 4, 41, 64
6, 79140, Note_on_c, 4, 41, 60
6, 79199, Note_off_c, 4, 41, 64
6, 79200, Note_on_c, 4, 41, 59
6, 79259, Note_off_c, 4, 41, 64
6, 79260, Note_on_c, 4, 41, 59
6, 79319, Note_off_c, 4, 41, 64
6, 79320, Note_on_c, 4, 41, 59
6, 79379, Note_off_c, 4, 41, 64
6, 79380, Note_on_c, 4, 41, 58
6, 79439, Note_off_c, 4, 41, 64
6, 79440, Note_on_c, 4, 41, 58
6, 79499, Note_off_c, 4, 41, 64
6, 79500, Note_on_c, 4, 41, 58
6, 79559, Note_off_c, 4, 41, 64
6, 79560, Note_on_c, 4, 41, 57
6, 79619, Note_off_c, 4, 41, 64
6, 79620, Note_on_c, 4, 41, 57
6, 79679, Note_off_c, 4, 41, 64
6, 79680, Note_on_c, 4, 41, 57
6, 79739, Note_off_c, 4, 41, 64
6, 79740, Note_on_c, 4, 41, 56
6, 79799, Note_off_c, 4, 41, 64
6, 79800, Note_on_c, 4, 41, 56
6, 79859, Note_off_c, 4, 41, 64
6, 79860, Note_on_c, 4, 41, 56
6, 79919, Note_off_c, 4, 41, 64
6, 79920, Note_on_c, 4, 41, 55
6, 79979, Note_off_c, 4, 41, 64
6, 79980, Note_on_c, 4, 41, 55
6, 80039, Note_off_c, 4, 41, 64
6, 80040, Note_on_c, 4, 41, 55
6, 80099, Note_off_c, 4, 41, 64
6, 80100, Note_on_c, 4, 41, 54
6, 80159, Note_off_c, 4, 41, 64
6, 80160, Note_on_c, 4, 41, 54
6, 80219, Note_off_c, 4, 41, 64
6, 80220, Note_on_c, 4, 41, 53
6, 80279, Note_off_c, 4, 41, 64
6, 80280, Note_on_c, 4, 41, 53
6, 80339, Note_off_c, 4, 41, 64
6, 80340, Note_on_c, 4, 41, 53
6, 80399, Note_off_c, 4, 41, 64
6, 80400, Note_on_c, 4, 41, 52
6, 80459, Note_off_c, 4, 41, 64
6, 80460, Note_on_c, 4, 41, 52
6, 80519, Note_off_c, 4, 41, 64
6, 80520, Note_on_c, 4, 41, 52
6, 80579, Note_off_c, 4, 41, 64
6, 80580, Note_on_c, 4, 41, 51
6, 80639, Note_off_c, 4, 41, 64
6, 80640, Note_on_c, 4, 41, 51
6, 80699, Note_off_c, 4, 41, 64
6, 80700, Note_on_c, 4, 41, 51
6, 80759, Note_off_c, 4, 41, 64
6, 80760, Note_on_c, 4, 41, 50
6, 80819, Note_off_c, 4, 41, 64
6, 80820, Note_on_c, 4, 41, 50
6, 80879, Note_off_c, 4, 41, 64
6, 80880, Note_on_c, 4, 41, 50
6, 80939, Note_off_c, 4, 41, 64
6, 80940, Note_on_c, 4, 41, 49
6, 80999, Note_off_c, 4, 41, 64
6, 81000, Note_on_c, 4, 41, 49
6, 81059, Note_off_c, 4, 41, 64
6, 81060, Note_on_c, 4, 41, 49
6, 81119, Note_off_c, 4, 41, 64
6, 81120, Note_on_c, 4, 41, 48
6, 81179, Note_off_c, 4, 41, 64
6, 81180, Note_on_c, 4, 41, 48
6, 81239, Note_off_c, 4, 41, 64
6, 81240, Note_on_c, 4, 41, 48
6, 81299, Note_off_c, 4, 41, 64
6, 81300, Note_on_c, 4, 41, 47
6, 81359, Note_off_c, 4, 41, 64
6, 81360, Note_on_c, 4, 41, 47
6, 81419, Note_off_c, 4, 41, 64
6, 81420, Note_on_c, 4, 41, 47
6, 81479, Note_off_c, 4, 41, 64
6, 81480, Note_on_c, 4, 41, 46
6, 81539, Note_off_c, 4, 41, 64
6, 81540, Note_on_c, 4, 41, 46
6, 81599, Note_off_c, 4, 41, 64
6, 81600, Note_on_c, 4, 41, 45
6, 81659, Note_off_c, 4, 41, 64
6, 81660, Note_on_c, 4, 41, 45
6, 81719, Note_off_c, 4, 41, 64
6, 81720, Note_on_c, 4, 41, 45
6, 81779, Note_off_c, 4, 41, 64
6, 81780, Note_on_c, 4, 41, 44
6, 81839, Note_off_c, 4, 41, 64
6, 81840, Note_on_c, 4, 41, 44
6, 81899, Note_off_c, 4, 41, 64
6, 81900, Note_on_c, 4, 41, 44
6, 81959, Note_off_c, 4, 41, 64
6, 81960, Note_on_c, 4, 41, 43
6, 82019, Note_off_c, 4, 41, 64
6, 82020, Note_on_c, 4, 41, 43
6, 82079, Note_off_c, 4, 41, 64
6, 82080, Note_on_c, 4, 41, 43
6, 82139, Note_off_c, 4, 41, 64
6, 82140, Note_on_c, 4, 41, 42
6, 82199, Note_off_c, 4, 41, 64
6, 82200, Note_on_c, 4, 41, 42
6, 82259, Note_off_c, 4, 41, 64
6, 82260, Note_on_c, 4, 41, 42
6, 82319, Note_off_c, 4, 41, 64
6, 82320, Note_on_c, 4, 41, 41
6, 82379, Note_off_c, 4, 41, 64
6, 82380, Note_on_c, 4, 41, 41
6, 82439, Note_off_c, 4, 41, 64
6, 82440, Note_on_c, 4, 41, 41
6, 82499, Note_off_c, 4, 41, 64
6, 82500, Note_on_c, 4, 41, 40
6, 82559, Note_off_c, 4, 41, 64
6, 82560, Note_on_c, 4, 41, 40
6, 82619, Note_off_c, 4, 41, 64
6, 82620, Note_on_c, 4, 41, 40
6, 82679, Note_off_c, 4, 41, 64
6, 82680, Note_on_c, 4, 41, 39
6, 82739, Note_off_c, 4, 41, 64
6, 82740, Note_on_c, 4, 41, 39
6, 82799, Note_off_c, 4, 41, 64
6, 82800, Note_on_c, 4, 41, 39
6, 82859, Note_off_c, 4, 41, 64
6, 82860, Note_on_c, 4, 41, 38
6, 82919, Note_off_c, 4, 41, 64
6, 82920, Note_on_c, 4, 41, 38
6, 82979, Note_off_c, 4, 41, 64
6, 82980, Note_on_c, 4, 41, 38
6, 83039, Note_off_c, 4, 41, 64
6, 83040, Note_on_c, 4, 41, 37
6, 83099, Note_off_c, 4, 41, 64
6, 83100, Note_on_c, 4, 41, 37
6, 83159, Note_off_c, 4, 41, 64
6, 83160, Note_on_c, 4, 41, 36
6, 83219, Note_off_c, 4, 41, 64
6, 83220, Note_on_c, 4, 41, 36
6, 83279, Note_off_c, 4, 41, 64
6, 83280, Note_on_c, 4, 41, 36
6, 83339, Note_off_c, 4, 41, 64
6, 83340, Note_on_c, 4, 41, 35
6, 83399, Note_off_c, 4, 41, 64
6, 83400, Note_on_c, 4, 41, 35
6, 83459, Note_off_c, 4, 41, 64
6, 83460, Note_on_c, 4, 41, 35
6, 83519, Note_off_c, 4, 41, 64
6, 83520, Note_on_c, 4, 41, 34
6, 83579, Note_off_c, 4, 41, 64
6, 83580, Note_on_c, 4, 41, 34
6, 83639, Note_off_c, 4, 41, 64
6, 83640, Note_on_c, 4, 41, 34
6, 83699, Note_off_c, 4, 41, 64
6, 83700, Note_on_c, 4, 41, 33
6, 83759, Note_off_c, 4, 41, 64
6, 83760, Note_on_c, 4, 41, 33
6, 83819, Note_off_c, 4, 41, 64
6, 83820, Note_on_c, 4, 41, 33
6, 83879, Note_off_c, 4, 41, 64
6, 83880, Note_on_c, 4, 41, 32
6, 83939, Note_off_c, 4, 41, 64
6, 83940, Note_on_c, 4, 41, 32
6, 83999, Note_off_c, 4, 41, 64
6, 84000, Note_on_c, 4, 41, 32
6, 84059, Note_off_c, 4, 41, 64
6, 84060, Note_on_c, 4, 41, 31
6, 84119, Note_off_c, 4, 41, 64
6, 84120, Note_on_c, 4, 41, 31
6, 84179, Note_off_c, 4, 41, 64
6, 84180, Note_on_c, 4, 41, 31
6, 84239, Note_off_c, 4, 41, 64
6, 84240, Note_on_c, 4, 41, 30
6, 84299, Note_off_c, 4, 41, 64
6, 84300, Note_on_c, 4, 41, 30
6, 84359, Note_off_c, 4, 41, 64
6, 84360, Note_on_c, 4, 41, 30
6, 84419, Note_off_c, 4, 41, 64
6, 84420, Note_on_c, 4, 41, 29
6, 84479, Note_off_c, 4, 41, 64
6, 84480, Note_on_c, 4, 41, 29
6, 84539, Note_off_c, 4, 41, 64
6, 84540, Note_on_c, 4, 41, 28
6, 84599, Note_off_c, 4, 41, 64
6, 84600, Note_on_c, 4, 41, 28
6, 84659, Note_off_c, 4, 41, 64
6, 84660, Note_on_c, 4, 41, 28
6, 84719, Note_off_c, 4, 41, 64
6, 84720, Note_on_c, 4, 41, 27
6, 84779, Note_off_c, 4, 41, 64
6, 84780, Note_on_c, 4, 41, 27
6, 84839, Note_off_c, 4, 41, 64
6, 84840, Note_on_c, 4, 41, 27
6, 84899, Note_off_c, 4, 41, 64
6, 84900, Note_on_c, 4, 41, 26
6, 84959, Note_off_c, 4, 41, 64
6, 84960, Note_on_c, 4, 41, 26
6, 85019, Note_off_c, 4, 41, 64
6, 85020, Note_on_c, 4, 41, 26
6, 85079, Note_off_c, 4, 41, 64
6, 85080, Note_on_c, 4, 41, 25
6, 85139, Note_off_c, 4, 41, 64
6, 85140, Note_on_c, 4, 41, 25
6, 85199, Note_off_c, 4, 41, 64
6, 85200, Note_on_c, 4, 41, 25
6, 85259, Note_off_c, 4, 41, 64
6, 85260, Note_on_c, 4, 41, 24
6, 85319, Note_off_c, 4, 41, 64
6, 85320, Note_on_c, 4, 41, 24
6, 85379, Note_off_c, 4, 41, 64
6, 85380, Note_on_c, 4, 41, 24
6, 85439, Note_off_c, 4, 41, 64
6, 85439, End_track
7, 0, Start_track
7, 0, Text_t, "Choir Aahs"
7, 0, Program_c, 5, 52
7, 0, Control_c, 5, 7, 125
7, 960, Note_on_c, 5, 41, 90
7, 1901, Note_off_c, 5, 41, 64
7, 1920, Note_on_c, 5, 41, 90
7, 2816, Note_off_c, 5, 41, 64
7, 2820, Note_on_c, 5, 34, 90
7, 2879, Note_off_c, 5, 34, 64
7, 2880, Note_on_c, 5, 36, 90
7, 3350, Note_off_c, 5, 36, 64
7, 3360, Note_on_c, 5, 29, 90
7, 3830, Note_off_c, 5, 29, 64
7, 3840, Note_on_c, 5, 34, 90
7, 4310, Note_off_c, 5, 34, 64
7, 4320, Note_on_c, 5, 34, 90
7, 4555, Note_off_c, 5, 34, 64
7, 4560, Note_on_c, 5, 34, 90
7, 4795, Note_off_c, 5, 34, 64
7, 4800, Note_on_c, 5, 29, 90
7, 5035, Note_off_c, 5, 29, 64
7, 5040, Note_on_c, 5, 29, 90
7, 5275, Note_off_c, 5, 29, 64
7, 5280, Note_on_c, 5, 29, 90
7, 5515, Note_off_c, 5, 29, 64
7, 5520, Note_on_c, 5, 29, 90
7, 5755, Note_off_c, 5, 29, 64
7, 5760, Note_on_c, 5, 29, 90
7, 5995, Note_off_c, 5, 29, 64
7, 6000, Note_on_c, 5, 29, 90
7, 6176, Note_off_c, 5, 29, 64
7, 6180, Note_on_c, 5, 24, 90
7, 6239, Note_off_c, 5, 24, 64
7, 6240, Note_on_c, 5, 29, 90
7, 6475, Note_off_c, 5, 29, 64
7, 6480, Note_on_c, 5, 29, 90
7, 6715, Note_off_c, 5, 29, 64
7, 6720, Note_on_c, 5, 34, 90
7, 6955, Note_off_c, 5, 34, 64
7, 6960, Note_on_c, 5, 34, 90
7, 7195, Note_off_c, 5, 34, 64
7, 7200, Note_on_c, 5, 34, 90
7, 7435, Note_off_c, 5, 34, 64
7, 7440, Note_on_c, 5, 34, 90
7, 7675, Note_off_c, 5, 34, 64
7, 7680, Note_on_c, 5, 41, 90
7, 7915, Note_off_c, 5, 41, 64
7, 7920, Note_on_c, 5, 41, 90
7, 8096, Note_off_c, 5, 41, 64
7, 8100, Note_on_c, 5, 36, 90
7, 8159, Note_off_c, 5, 36, 64
7, 8160, Note_on_c, 5, 29, 90
7, 8395, Note_off_c, 5, 29, 64
7, 8400, Note_on_c, 5, 41, 90
7, 8635, Note_off_c, 5, 41, 64
7, 8640, Note_on_c, 5, 28, 90
7, 8875, Note_off_c, 5, 28, 64
7, 8880, Note_on_c, 5, 28, 90
7, 9115, Note_off_c, 5, 28, 64
7, 9120, Note_on_c, 5, 28, 90
7, 9355, Note_off_c, 5, 28, 64
7, 9360, Note_on_c, 5, 28, 90
7, 9595, Note_off_c, 5, 28, 64
7, 9600, Note_on_c, 5, 38, 90
7, 9835, Note_off_c, 5, 38, 64
7, 9840, Note_on_c, 5, 38, 90
7, 10016, Note_off_c, 5, 38, 64
7, 10020, Note_on_c, 5, 33, 90
7, 10079, Note_off_c, 5, 33, 64
7, 10080, Note_on_c, 5, 38, 90
7, 10315, Note_off_c, 5, 38, 64
7, 10320, Note_on_c, 5, 38, 90
7, 10555, Note_off_c, 5, 38, 64
7, 10560, Note_on_c, 5, 33, 90
7, 10795, Note_off_c, 5, 33, 64
7, 10800, Note_on_c, 5, 33, 90
7, 11035, Note_off_c, 5, 33, 64
7, 11040, Note_on_c, 5, 34, 90
7, 11275, Note_off_c, 5, 34, 64
7, 11280, Note_on_c, 5, 34, 90
7, 11515, Note_off_c, 5, 34, 64
7, 11520, Note_on_c, 5, 43, 90
7, 11696, Note_off_c, 5, 43, 64
7, 11700, Note_on_c, 5, 43, 90
7, 11759, Note_off_c, 5, 43, 64
7, 11760, Note_on_c, 5, 43, 90
7, 11819, Note_off_c, 5, 43, 64
7, 11820, Note_on_c, 5, 41, 90
7, 11938, Note_off_c, 5, 41, 64
7, 11940, Note_on_c, 5, 38, 90
7, 11999, Note_off_c, 5, 38, 64
7, 12000, Note_on_c, 5, 38, 90
7, 12059, Note_off_c, 5, 38, 64
7, 12060, Note_on_c, 5, 36, 90
7, 12178, Note_off_c, 5, 36, 64
7, 12180, Note_on_c, 5, 34, 90
7, 12239, Note_off_c, 5, 34, 64
7, 12240, Note_on_c, 5, 34, 90
7, 12299, Note_off_c, 5, 34, 64
7, 12300, Note_on_c, 5, 33, 90
7, 12418, Note_off_c, 5, 33, 64
7, 12420, Note_on_c, 5, 31, 90
7, 12479, Note_off_c, 5, 31, 64
7, 12480, Note_on_c, 5, 29, 90
7, 12715, Note_off_c, 5, 29, 64
7, 12720, Note_on_c, 5, 29, 90
7, 12955, Note_off_c, 5, 29, 64
7, 12960, Note_on_c, 5, 29, 90
7, 13195, Note_off_c, 5, 29, 64
7, 13200, Note_on_c, 5, 29, 90
7, 13435, Note_off_c, 5, 29, 64
7, 13440, Note_on_c, 5, 29, 90
7, 13675, Note_off_c, 5, 29, 64
7, 13680, Note_on_c, 5, 29, 90
7, 13856, Note_off_c, 5, 29, 64
7, 13860, Note_on_c, 5, 24, 90
7, 13919, Note_off_c, 5, 24, 64
7, 13920, Note_on_c, 5, 29, 90
7, 14155, Note_off_c, 5, 29, 64
7, 14160, Note_on_c, 5, 29, 90
7, 14395, Note_off_c, 5, 29, 64
7, 14400, Note_on_c, 5, 34, 90
7, 14635, Note_off_c, 5, 34, 64
7, 14640, Note_on_c, 5, 34, 90
7, 14875, Note_off_c, 5, 34, 64
7, 14880, Note_on_c, 5, 34, 90
7, 15115, Note_off_c, 5, 34, 64
7, 15120, Note_on_c, 5, 34, 90
7, 15355, Note_off_c, 5, 34, 64
7, 15360, Note_on_c, 5, 41, 90
7, 15595, Note_off_c, 5, 41, 64
7, 15600, Note_on_c, 5, 41, 90
7, 15776, Note_off_c, 5, 41, 64
7, 15780, Note_on_c, 5, 36, 90
7, 15839, Note_off_c, 5, 36, 64
7, 15840, Note_on_c, 5, 29, 90
7, 16075, Note_off_c, 5, 29, 64
7, 16080, Note_on_c, 5, 41, 90
7, 16315, Note_off_c, 5, 41, 64
7, 16320, Note_on_c, 5, 40, 90
7, 16555, Note_off_c, 5, 40, 64
7, 16560, Note_on_c, 5, 40, 90
7, 16795, Note_off_c, 5, 40, 64
7, 16800, Note_on_c, 5, 40, 90
7, 17035, Note_off_c, 5, 40, 64
7, 17040, Note_on_c, 5, 40, 90
7, 17275, Note_off_c, 5, 40, 64
7, 17280, Note_on_c, 5, 38, 90
7, 17515, Note_off_c, 5, 38, 64
7, 17520, Note_on_c, 5, 38, 90
7, 17696, Note_off_c, 5, 38, 64
7, 17700, Note_on_c, 5, 33, 90
7, 17759, Note_off_c, 5, 33, 64
7, 17760, Note_on_c, 5, 38, 90
7, 17995, Note_off_c, 5, 38, 64
7, 18000, Note_on_c, 5, 38, 90
7, 18235, Note_off_c, 5, 38, 64
7, 18240, Note_on_c, 5, 33, 90
7, 18475, Note_off_c, 5, 33, 64
7, 18480, Note_on_c, 5, 33, 90
7, 18715, Note_off_c, 5, 33, 64
7, 18720, Note_on_c, 5, 34, 90
7, 18955, Note_off_c, 5, 34, 64
7, 18960, Note_on_c, 5, 34, 90
7, 19195, Note_off_c, 5, 34, 64
7, 19200, Note_on_c, 5, 43, 90
7, 19376, Note_off_c, 5, 43, 64
7, 19380, Note_on_c, 5, 43, 90
7, 19439, Note_off_c, 5, 43, 64
7, 19440, Note_on_c, 5, 43, 90
7, 19616, Note_off_c, 5, 43, 64
7, 19620, Note_on_c, 5, 43, 90
7, 19679, Note_off_c, 5, 43, 64
7, 19680, Note_on_c, 5, 43, 90
7, 19915, Note_off_c, 5, 43, 64
7, 19920, Note_on_c, 5, 43, 90
7, 19979, Note_off_c, 5, 43, 64
7, 19980, Note_on_c, 5, 44, 90
7, 20156, Note_off_c, 5, 44, 64
7, 20160, Note_on_c, 5, 45, 90
7, 20459, Note_off_c, 5, 45, 64
7, 20460, Note_on_c, 5, 36, 90
7, 20578, Note_off_c, 5, 36, 64
7, 20580, Note_on_c, 5, 37, 90
7, 20639, Note_off_c, 5, 37, 64
7, 20640, Note_on_c, 5, 38, 90
7, 20875, Note_off_c, 5, 38, 64
7, 20880, Note_on_c, 5, 38, 90
7, 21115, Note_off_c, 5, 38, 64
7, 21120, Note_on_c, 5, 34, 90
7, 21473, Note_off_c, 5, 34, 64
7, 21480, Note_on_c, 5, 34, 90
7, 21598, Note_off_c, 5, 34, 64
7, 21600, Note_on_c, 5, 33, 90
7, 22016, Note_off_c, 5, 33, 64
7, 22020, Note_on_c, 5, 33, 90
7, 22079, Note_off_c, 5, 33, 64
7, 22080, Note_on_c, 5, 31, 90
7, 22496, Note_off_c, 5, 31, 64
7, 22500, Note_on_c, 5, 31, 90
7, 22559, Note_off_c, 5, 31, 64
7, 22560, Note_on_c, 5, 29, 90
7, 22976, Note_off_c, 5, 29, 64
7, 22980, Note_on_c, 5, 33, 90
7, 23040, Note_on_c, 5, 34, 90
7, 23098, Note_off_c, 5, 33, 64
7, 23456, Note_off_c, 5, 34, 64
7, 23460, Note_on_c, 5, 34, 90
7, 23519, Note_off_c, 5, 34, 64
7, 23520, Note_on_c, 5, 33, 90
7, 23936, Note_off_c, 5, 33, 64
7, 23940, Note_on_c, 5, 33, 90
7, 23999, Note_off_c, 5, 33, 64
7, 24000, Note_on_c, 5, 31, 90
7, 24235, Note_off_c, 5, 31, 64
7, 24240, Note_on_c, 5, 31, 90
7, 24475, Note_off_c, 5, 31, 64
7, 24480, Note_on_c, 5, 31, 90
7, 24539, Note_off_c, 5, 31, 64
7, 24540, Note_on_c, 5, 38, 90
7, 24658, Note_off_c, 5, 38, 64
7, 24660, Note_on_c, 5, 43, 90
7, 24779, Note_off_c, 5, 43, 64
7, 24780, Note_on_c, 5, 38, 90
7, 24898, Note_off_c, 5, 38, 64
7, 24900, Note_on_c, 5, 31, 90
7, 24959, Note_off_c, 5, 31, 64
7, 24960, Note_on_c, 5, 31, 90
7, 25313, Note_off_c, 5, 31, 64
7, 25320, Note_on_c, 5, 34, 90
7, 25379, Note_off_c, 5, 34, 64
7, 25380, Note_on_c, 5, 38, 90
7, 25439, Note_off_c, 5, 38, 64
7, 25440, Note_on_c, 5, 43, 90
7, 25558, Note_off_c, 5, 43, 64
7, 25920, Note_on_c, 5, 34, 90
7, 26096, Note_off_c, 5, 34, 64
7, 26100, Note_on_c, 5, 34, 90
7, 26159, Note_off_c, 5, 34, 64
7, 26160, Note_on_c, 5, 34, 90
7, 26395, Note_off_c, 5, 34, 64
7, 26400, Note_on_c, 5, 34, 90
7, 26635, Note_off_c, 5, 34, 64
7, 26640, Note_on_c, 5, 34, 90
7, 26875, Note_off_c, 5, 34, 64
7, 26880, Note_on_c, 5, 33, 90
7, 27056, Note_off_c, 5, 33, 64
7, 27060, Note_on_c, 5, 33, 90
7, 27119, Note_off_c, 5, 33, 64
7, 27120, Note_on_c, 5, 33, 90
7, 27296, Note_off_c, 5, 33, 64
7, 27300, Note_on_c, 5, 33, 90
7, 27359, Note_off_c, 5, 33, 64
7, 27360, Note_on_c, 5, 29, 90
7, 27419, Note_off_c, 5, 29, 64
7, 27420, Note_on_c, 5, 33, 90
7, 27479, Note_off_c, 5, 33, 64
7, 27480, Note_on_c, 5, 36, 90
7, 27539, Note_off_c, 5, 36, 64
7, 27540, Note_on_c, 5, 38, 90
7, 27599, Note_off_c, 5, 38, 64
7, 27600, Note_on_c, 5, 41, 90
7, 27659, Note_off_c, 5, 41, 64
7, 27660, Note_on_c, 5, 38, 90
7, 27719, Note_off_c, 5, 38, 64
7, 27720, Note_on_c, 5, 36, 90
7, 27779, Note_off_c, 5, 36, 64
7, 27780, Note_on_c, 5, 32, 90
7, 27839, Note_off_c, 5, 32, 64
7, 27840, Note_on_c, 5, 34, 90
7, 28016, Note_off_c, 5, 34, 64
7, 28020, Note_on_c, 5, 34, 90
7, 28079, Note_off_c, 5, 34, 64
7, 28080, Note_on_c, 5, 34, 90
7, 28315, Note_off_c, 5, 34, 64
7, 28320, Note_on_c, 5, 34, 90
7, 28555, Note_off_c, 5, 34, 64
7, 28560, Note_on_c, 5, 34, 90
7, 28795, Note_off_c, 5, 34, 64
7, 28800, Note_on_c, 5, 33, 90
7, 28976, Note_off_c, 5, 33, 64
7, 28980, Note_on_c, 5, 33, 90
7, 29039, Note_off_c, 5, 33, 64
7, 29040, Note_on_c, 5, 33, 90
7, 29216, Note_off_c, 5, 33, 64
7, 29220, Note_on_c, 5, 33, 90
7, 29279, Note_off_c, 5, 33, 64
7, 29280, Note_on_c, 5, 29, 90
7, 29339, Note_off_c, 5, 29, 64
7, 29340, Note_on_c, 5, 33, 90
7, 29399, Note_off_c, 5, 33, 64
7, 29400, Note_on_c, 5, 36, 90
7, 29459, Note_off_c, 5, 36, 64
7, 29460, Note_on_c, 5, 38, 90
7, 29519, Note_off_c, 5, 38, 64
7, 29520, Note_on_c, 5, 41, 90
7, 29579, Note_off_c, 5, 41, 64
7, 29580, Note_on_c, 5, 38, 90
7, 29639, Note_off_c, 5, 38, 64
7, 29640, Note_on_c, 5, 36, 90
7, 29699, Note_off_c, 5, 36, 64
7, 29700, Note_on_c, 5, 32, 90
7, 29759, Note_off_c, 5, 32, 64
7, 29760, Note_on_c, 5, 34, 90
7, 29936, Note_off_c, 5, 34, 64
7, 29940, Note_on_c, 5, 34, 90
7, 29999, Note_off_c, 5, 34, 64
7, 30000, Note_on_c, 5, 34, 90
7, 30235, Note_off_c, 5, 34, 64
7, 30240, Note_on_c, 5, 34, 90
7, 30475, Note_off_c, 5, 34, 64
7, 30480, Note_on_c, 5, 34, 90
7, 30715, Note_off_c, 5, 34, 64
7, 30720, Note_on_c, 5, 33, 90
7, 30896, Note_off_c, 5, 33, 64
7, 30900, Note_on_c, 5, 33, 90
7, 30959, Note_off_c, 5, 33, 64
7, 30960, Note_on_c, 5, 33, 90
7, 31136, Note_off_c, 5, 33, 64
7, 31140, Note_on_c, 5, 33, 90
7, 31199, Note_off_c, 5, 33, 64
7, 31200, Note_on_c, 5, 29, 90
7, 31259, Note_off_c, 5, 29, 64
7, 31260, Note_on_c, 5, 31, 90
7, 31319, Note_off_c, 5, 31, 64
7, 31320, Note_on_c, 5, 36, 90
7, 31379, Note_off_c, 5, 36, 64
7, 31380, Note_on_c, 5, 38, 90
7, 31439, Note_off_c, 5, 38, 64
7, 31440, Note_on_c, 5, 41, 90
7, 31499, Note_off_c, 5, 41, 64
7, 31500, Note_on_c, 5, 38, 90
7, 31559, Note_off_c, 5, 38, 64
7, 31560, Note_on_c, 5, 36, 90
7, 31619, Note_off_c, 5, 36, 64
7, 31620, Note_on_c, 5, 33, 90
7, 31679, Note_off_c, 5, 33, 64
7, 31680, Note_on_c, 5, 34, 90
7, 32150, Note_off_c, 5, 34, 64
7, 32160, Note_on_c, 5, 34, 90
7, 32630, Note_off_c, 5, 34, 64
7, 32640, Note_on_c, 5, 36, 90
7, 32993, Note_off_c, 5, 36, 64
7, 33000, Note_on_c, 5, 36, 90
7, 33118, Note_off_c, 5, 36, 64
7, 33120, Note_on_c, 5, 36, 90
7, 33296, Note_off_c, 5, 36, 64
7, 33300, Note_on_c, 5, 36, 90
7, 33359, Note_off_c, 5, 36, 64
7, 33360, Note_on_c, 5, 36, 90
7, 33595, Note_off_c, 5, 36, 64
7, 33600, Note_on_c, 5, 29, 90
7, 33659, Note_off_c, 5, 29, 64
7, 33660, Note_on_c, 5, 29, 90
7, 33719, Note_off_c, 5, 29, 64
7, 33720, Note_on_c, 5, 29, 90
7, 33779, Note_off_c, 5, 29, 64
7, 33780, Note_on_c, 5, 29, 90
7, 33839, Note_off_c, 5, 29, 64
7, 33840, Note_on_c, 5, 29, 90
7, 33899, Note_off_c, 5, 29, 64
7, 33900, Note_on_c, 5, 29, 90
7, 33959, Note_off_c, 5, 29, 64
7, 33960, Note_on_c, 5, 29, 90
7, 34019, Note_off_c, 5, 29, 64
7, 34020, Note_on_c, 5, 29, 90
7, 34079, Note_off_c, 5, 29, 64
7, 34080, Note_on_c, 5, 29, 90
7, 34139, Note_off_c, 5, 29, 64
7, 34140, Note_on_c, 5, 29, 90
7, 34199, Note_off_c, 5, 29, 64
7, 34200, Note_on_c, 5, 29, 90
7, 34259, Note_off_c, 5, 29, 64
7, 34260, Note_on_c, 5, 29, 90
7, 34319, Note_off_c, 5, 29, 64
7, 34320, Note_on_c, 5, 29, 90
7, 34379, Note_off_c, 5, 29, 64
7, 34380, Note_on_c, 5, 29, 90
7, 34439, Note_off_c, 5, 29, 64
7, 34440, Note_on_c, 5, 29, 90
7, 34499, Note_off_c, 5, 29, 64
7, 34500, Note_on_c, 5, 29, 90
7, 34559, Note_off_c, 5, 29, 64
7, 34560, Note_on_c, 5, 29, 90
7, 34619, Note_off_c, 5, 29, 64
7, 34620, Note_on_c, 5, 29, 90
7, 34679, Note_off_c, 5, 29, 64
7, 34680, Note_on_c, 5, 29, 90
7, 34739, Note_off_c, 5, 29, 64
7, 34740, Note_on_c, 5, 29, 90
7, 34799, Note_off_c, 5, 29, 64
7, 34800, Note_on_c, 5, 29, 90
7, 34859, Note_off_c, 5, 29, 64
7, 34860, Note_on_c, 5, 29, 90
7, 34919, Note_off_c, 5, 29, 64
7, 34920, Note_on_c, 5, 29, 90
7, 34979, Note_off_c, 5, 29, 64
7, 34980, Note_on_c, 5, 29, 90
7, 35039, Note_off_c, 5, 29, 64
7, 35040, Note_on_c, 5, 29, 90
7, 35099, Note_off_c, 5, 29, 64
7, 35100, Note_on_c, 5, 29, 90
7, 35159, Note_off_c, 5, 29, 64
7, 35160, Note_on_c, 5, 29, 90
7, 35219, Note_off_c, 5, 29, 64
7, 35220, Note_on_c, 5, 29, 90
7, 35279, Note_off_c, 5, 29, 64
7, 35280, Note_on_c, 5, 29, 90
7, 35339, Note_off_c, 5, 29, 64
7, 35340, Note_on_c, 5, 29, 90
7, 35399, Note_off_c, 5, 29, 64
7, 35400, Note_on_c, 5, 29, 90
7, 35459, Note_off_c, 5, 29, 64
7, 35460, Note_on_c, 5, 29, 90
7, 35519, Note_off_c, 5, 29, 64
7, 35520, Note_on_c, 5, 29, 90
7, 35579, Note_off_c, 5, 29, 64
7, 35580, Note_on_c, 5, 29, 90
7, 35639, Note_off_c, 5, 29, 64
7, 35640, Note_on_c, 5, 29, 90
7, 35699, Note_off_c, 5, 29, 64
7, 35700, Note_on_c, 5, 29, 90
7, 35759, Note_off_c, 5, 29, 64
7, 35760, Note_on_c, 5, 29, 90
7, 35819, Note_off_c, 5, 29, 64
7, 35820, Note_on_c, 5, 29, 90
7, 35879, Note_off_c, 5, 29, 64
7, 35880, Note_on_c, 5, 29, 90
7, 35939, Note_off_c, 5, 29, 64
7, 35940, Note_on_c, 5, 29, 90
7, 35999, Note_off_c, 5, 29, 64
7, 36000, Note_on_c, 5, 29, 90
7, 36059, Note_off_c, 5, 29, 64
7, 36060, Note_on_c, 5, 29, 90
7, 36119, Note_off_c, 5, 29, 64
7, 36120, Note_on_c, 5, 29, 90
7, 36179, Note_off_c, 5, 29, 64
7, 36180, Note_on_c, 5, 29, 90
7, 36239, Note_off_c, 5, 29, 64
7, 36240, Note_on_c, 5, 29, 90
7, 36299, Note_off_c, 5, 29, 64
7, 36300, Note_on_c, 5, 29, 90
7, 36359, Note_off_c, 5, 29, 64
7, 36360, Note_on_c, 5, 29, 90
7, 36419, Note_off_c, 5, 29, 64
7, 36420, Note_on_c, 5, 29, 90
7, 36479, Note_off_c, 5, 29, 64
7, 36480, Note_on_c, 5, 29, 90
7, 36539, Note_off_c, 5, 29, 64
7, 36540, Note_on_c, 5, 29, 90
7, 36599, Note_off_c, 5, 29, 64
7, 36600, Note_on_c, 5, 29, 90
7, 36659, Note_off_c, 5, 29, 64
7, 36660, Note_on_c, 5, 29, 90
7, 36719, Note_off_c, 5, 29, 64
7, 36720, Note_on_c, 5, 29, 90
7, 36779, Note_off_c, 5, 29, 64
7, 36780, Note_on_c, 5, 29, 90
7, 36839, Note_off_c, 5, 29, 64
7, 36840, Note_on_c, 5, 29, 90
7, 36899, Note_off_c, 5, 29, 64
7, 36900, Note_on_c, 5, 29, 90
7, 36959, Note_off_c, 5, 29, 64
7, 36960, Note_on_c, 5, 29, 90
7, 37019, Note_off_c, 5, 29, 64
7, 37020, Note_on_c, 5, 29, 90
7, 37079, Note_off_c, 5, 29, 64
7, 37080, Note_on_c, 5, 29, 90
7, 37139, Note_off_c, 5, 29, 64
7, 37140, Note_on_c, 5, 29, 90
7, 37199, Note_off_c, 5, 29, 64
7, 37200, Note_on_c, 5, 29, 90
7, 37259, Note_off_c, 5, 29, 64
7, 37260, Note_on_c, 5, 29, 90
7, 37319, Note_off_c, 5, 29, 64
7, 37320, Note_on_c, 5, 29, 90
7, 37379, Note_off_c, 5, 29, 64
7, 37380, Note_on_c, 5, 29, 90
7, 37439, Note_off_c, 5, 29, 64
7, 37440, Note_on_c, 5, 29, 90
7, 37675, Note_off_c, 5, 29, 64
7, 37680, Note_on_c, 5, 29, 90
7, 37915, Note_off_c, 5, 29, 64
7, 37920, Note_on_c, 5, 29, 90
7, 38155, Note_off_c, 5, 29, 64
7, 38160, Note_on_c, 5, 29, 90
7, 38395, Note_off_c, 5, 29, 64
7, 38400, Note_on_c, 5, 29, 90
7, 38635, Note_off_c, 5, 29, 64
7, 38640, Note_on_c, 5, 29, 90
7, 38816, Note_off_c, 5, 29, 64
7, 38820, Note_on_c, 5, 24, 90
7, 38879, Note_off_c, 5, 24, 64
7, 38880, Note_on_c, 5, 29, 90
7, 39115, Note_off_c, 5, 29, 64
7, 39120, Note_on_c, 5, 29, 90
7, 39355, Note_off_c, 5, 29, 64
7, 39360, Note_on_c, 5, 34, 90
7, 39595, Note_off_c, 5, 34, 64
7, 39600, Note_on_c, 5, 34, 90
7, 39835, Note_off_c, 5, 34, 64
7, 39840, Note_on_c, 5, 34, 90
7, 40075, Note_off_c, 5, 34, 64
7, 40080, Note_on_c, 5, 34, 90
7, 40315, Note_off_c, 5, 34, 64
7, 40320, Note_on_c, 5, 41, 90
7, 40555, Note_off_c, 5, 41, 64
7, 40560, Note_on_c, 5, 41, 90
7, 40736, Note_off_c, 5, 41, 64
7, 40740, Note_on_c, 5, 36, 90
7, 40799, Note_off_c, 5, 36, 64
7, 40800, Note_on_c, 5, 29, 90
7, 41035, Note_off_c, 5, 29, 64
7, 41040, Note_on_c, 5, 41, 90
7, 41275, Note_off_c, 5, 41, 64
7, 41280, Note_on_c, 5, 28, 90
7, 41515, Note_off_c, 5, 28, 64
7, 41520, Note_on_c, 5, 28, 90
7, 41755, Note_off_c, 5, 28, 64
7, 41760, Note_on_c, 5, 28, 90
7, 41995, Note_off_c, 5, 28, 64
7, 42000, Note_on_c, 5, 28, 90
7, 42235, Note_off_c, 5, 28, 64
7, 42240, Note_on_c, 5, 38, 90
7, 42475, Note_off_c, 5, 38, 64
7, 42480, Note_on_c, 5, 38, 90
7, 42656, Note_off_c, 5, 38, 64
7, 42660, Note_on_c, 5, 33, 90
7, 42719, Note_off_c, 5, 33, 64
7, 42720, Note_on_c, 5, 38, 90
7, 42955, Note_off_c, 5, 38, 64
7, 42960, Note_on_c, 5, 38, 90
7, 43195, Note_off_c, 5, 38, 64
7, 43200, Note_on_c, 5, 33, 90
7, 43435, Note_off_c, 5, 33, 64
7, 43440, Note_on_c, 5, 33, 90
7, 43675, Note_off_c, 5, 33, 64
7, 43680, Note_on_c, 5, 34, 90
7, 43915, Note_off_c, 5, 34, 64
7, 43920, Note_on_c, 5, 34, 90
7, 44155, Note_off_c, 5, 34, 64
7, 44160, Note_on_c, 5, 43, 90
7, 44336, Note_off_c, 5, 43, 64
7, 44340, Note_on_c, 5, 43, 90
7, 44399, Note_off_c, 5, 43, 64
7, 44400, Note_on_c, 5, 43, 90
7, 44459, Note_off_c, 5, 43, 64
7, 44460, Note_on_c, 5, 41, 90
7, 44578, Note_off_c, 5, 41, 64
7, 44580, Note_on_c, 5, 38, 90
7, 44639, Note_off_c, 5, 38, 64
7, 44640, Note_on_c, 5, 38, 90
7, 44699, Note_off_c, 5, 38, 64
7, 44700, Note_on_c, 5, 36, 90
7, 44818, Note_off_c, 5, 36, 64
7, 44820, Note_on_c, 5, 34, 90
7, 44879, Note_off_c, 5, 34, 64
7, 44880, Note_on_c, 5, 34, 90
7, 44939, Note_off_c, 5, 34, 64
7, 44940, Note_on_c, 5, 33, 90
7, 45058, Note_off_c, 5, 33, 64
7, 45060, Note_on_c, 5, 31, 90
7, 45119, Note_off_c, 5, 31, 64
7, 45120, Note_on_c, 5, 29, 90
7, 45355, Note_off_c, 5, 29, 64
7, 45360, Note_on_c, 5, 29, 90
7, 45595, Note_off_c, 5, 29, 64
7, 45600, Note_on_c, 5, 29, 90
7, 45835, Note_off_c, 5, 29, 64
7, 45840, Note_on_c, 5, 29, 90
7, 46075, Note_off_c, 5, 29, 64
7, 46080, Note_on_c, 5, 29, 90
7, 46315, Note_off_c, 5, 29, 64
7, 46320, Note_on_c, 5, 29, 90
7, 46496, Note_off_c, 5, 29, 64
7, 46500, Note_on_c, 5, 24, 90
7, 46559, Note_off_c, 5, 24, 64
7, 46560, Note_on_c, 5, 29, 90
7, 46795, Note_off_c, 5, 29, 64
7, 46800, Note_on_c, 5, 29, 90
7, 47035, Note_off_c, 5, 29, 64
7, 47040, Note_on_c, 5, 34, 90
7, 47275, Note_off_c, 5, 34, 64
7, 47280, Note_on_c, 5, 34, 90
7, 47515, Note_off_c, 5, 34, 64
7, 47520, Note_on_c, 5, 34, 90
7, 47755, Note_off_c, 5, 34, 64
7, 47760, Note_on_c, 5, 34, 90
7, 47995, Note_off_c, 5, 34, 64
7, 48000, Note_on_c, 5, 41, 90
7, 48235, Note_off_c, 5, 41, 64
7, 48240, Note_on_c, 5, 41, 90
7, 48416, Note_off_c, 5, 41, 64
7, 48420, Note_on_c, 5, 36, 90
7, 48479, Note_off_c, 5, 36, 64
7, 48480, Note_on_c, 5, 29, 90
7, 48715, Note_off_c, 5, 29, 64
7, 48720, Note_on_c, 5, 41, 90
7, 48955, Note_off_c, 5, 41, 64
7, 48960, Note_on_c, 5, 40, 90
7, 49195, Note_off_c, 5, 40, 64
7, 49200, Note_on_c, 5, 40, 90
7, 49435, Note_off_c, 5, 40, 64
7, 49440, Note_on_c, 5, 40, 90
7, 49675, Note_off_c, 5, 40, 64
7, 49680, Note_on_c, 5, 40, 90
7, 49915, Note_off_c, 5, 40, 64
7, 49920, Note_on_c, 5, 38, 90
7, 50155, Note_off_c, 5, 38, 64
7, 50160, Note_on_c, 5, 38, 90
7, 50336, Note_off_c, 5, 38, 64
7, 50340, Note_on_c, 5, 33, 90
7, 50399, Note_off_c, 5, 33, 64
7, 50400, Note_on_c, 5, 38, 90
7, 50635, Note_off_c, 5, 38, 64
7, 50640, Note_on_c, 5, 38, 90
7, 50875, Note_off_c, 5, 38, 64
7, 50880, Note_on_c, 5, 33, 90
7, 51115, Note_off_c, 5, 33, 64
7, 51120, Note_on_c, 5, 33, 90
7, 51355, Note_off_c, 5, 33, 64
7, 51360, Note_on_c, 5, 34, 90
7, 51595, Note_off_c, 5, 34, 64
7, 51600, Note_on_c, 5, 34, 90
7, 51835, Note_off_c, 5, 34, 64
7, 51840, Note_on_c, 5, 43, 90
7, 52016, Note_off_c, 5, 43, 64
7, 52020, Note_on_c, 5, 43, 90
7, 52079, Note_off_c, 5, 43, 64
7, 52080, Note_on_c, 5, 43, 90
7, 52256, Note_off_c, 5, 43, 64
7, 52260, Note_on_c, 5, 43, 90
7, 52319, Note_off_c, 5, 43, 64
7, 52320, Note_on_c, 5, 43, 90
7, 52555, Note_off_c, 5, 43, 64
7, 52560, Note_on_c, 5, 43, 90
7, 52619, Note_off_c, 5, 43, 64
7, 52620, Note_on_c, 5, 44, 90
7, 52796, Note_off_c, 5, 44, 64
7, 52800, Note_on_c, 5, 45, 90
7, 53099, Note_off_c, 5, 45, 64
7, 53100, Note_on_c, 5, 36, 90
7, 53218, Note_off_c, 5, 36, 64
7, 53220, Note_on_c, 5, 37, 90
7, 53279, Note_off_c, 5, 37, 64
7, 53280, Note_on_c, 5, 38, 90
7, 53515, Note_off_c, 5, 38, 64
7, 53520, Note_on_c, 5, 38, 90
7, 53755, Note_off_c, 5, 38, 64
7, 53760, Note_on_c, 5, 34, 90
7, 54113, Note_off_c, 5, 34, 64
7, 54120, Note_on_c, 5, 34, 90
7, 54238, Note_off_c, 5, 34, 64
7, 54240, Note_on_c, 5, 33, 90
7, 54656, Note_off_c, 5, 33, 64
7, 54660, Note_on_c, 5, 33, 90
7, 54719, Note_off_c, 5, 33, 64
7, 54720, Note_on_c, 5, 31, 90
7, 55136, Note_off_c, 5, 31, 64
7, 55140, Note_on_c, 5, 31, 90
7, 55199, Note_off_c, 5, 31, 64
7, 55200, Note_on_c, 5, 29, 90
7, 55616, Note_off_c, 5, 29, 64
7, 55620, Note_on_c, 5, 33, 90
7, 55680, Note_on_c, 5, 34, 90
7, 55738, Note_off_c, 5, 33, 64
7, 56096, Note_off_c, 5, 34, 64
7, 56100, Note_on_c, 5, 34, 90
7, 56159, Note_off_c, 5, 34, 64
7, 56160, Note_on_c, 5, 33, 90
7, 56576, Note_off_c, 5, 33, 64
7, 56580, Note_on_c, 5, 33, 90
7, 56639, Note_off_c, 5, 33, 64
7, 56640, Note_on_c, 5, 31, 90
7, 56875, Note_off_c, 5, 31, 64
7, 56880, Note_on_c, 5, 31, 90
7, 57115, Note_off_c, 5, 31, 64
7, 57120, Note_on_c, 5, 31, 90
7, 57179, Note_off_c, 5, 31, 64
7, 57180, Note_on_c, 5, 38, 90
7, 57298, Note_off_c, 5, 38, 64
7, 57300, Note_on_c, 5, 43, 90
7, 57419, Note_off_c, 5, 43, 64
7, 57420, Note_on_c, 5, 38, 90
7, 57538, Note_off_c, 5, 38, 64
7, 57540, Note_on_c, 5, 31, 90
7, 57599, Note_off_c, 5, 31, 64
7, 57600, Note_on_c, 5, 31, 90
7, 57953, Note_off_c, 5, 31, 64
7, 57960, Note_on_c, 5, 34, 90
7, 58019, Note_off_c, 5, 34, 64
7, 58020, Note_on_c, 5, 38, 90
7, 58079, Note_off_c, 5, 38, 64
7, 58080, Note_on_c, 5, 43, 90
7, 58198, Note_off_c, 5, 43, 64
7, 58560, Note_on_c, 5, 34, 90
7, 58736, Note_off_c, 5, 34, 64
7, 58740, Note_on_c, 5, 34, 90
7, 58799, Note_off_c, 5, 34, 64
7, 58800, Note_on_c, 5, 34, 90
7, 59035, Note_off_c, 5, 34, 64
7, 59040, Note_on_c, 5, 34, 90
7, 59275, Note_off_c, 5, 34, 64
7, 59280, Note_on_c, 5, 34, 90
7, 59515, Note_off_c, 5, 34, 64
7, 59520, Note_on_c, 5, 33, 90
7, 59696, Note_off_c, 5, 33, 64
7, 59700, Note_on_c, 5, 33, 90
7, 59759, Note_off_c, 5, 33, 64
7, 59760, Note_on_c, 5, 33, 90
7, 59936, Note_off_c, 5, 33, 64
7, 59940, Note_on_c, 5, 33, 90
7, 59999, Note_off_c, 5, 33, 64
7, 60000, Note_on_c, 5, 29, 90
7, 60059, Note_off_c, 5, 29, 64
7, 60060, Note_on_c, 5, 33, 90
7, 60119, Note_off_c, 5, 33, 64
7, 60120, Note_on_c, 5, 36, 90
7, 60179, Note_off_c, 5, 36, 64
7, 60180, Note_on_c, 5, 38, 90
7, 60239, Note_off_c, 5, 38, 64
7, 60240, Note_on_c, 5, 41, 90
7, 60299, Note_off_c, 5, 41, 64
7, 60300, Note_on_c, 5, 38, 90
7, 60359, Note_off_c, 5, 38, 64
7, 60360, Note_on_c, 5, 36, 90
7, 60419, Note_off_c, 5, 36, 64
7, 60420, Note_on_c, 5, 32, 90
7, 60479, Note_off_c, 5, 32, 64
7, 60480, Note_on_c, 5, 34, 90
7, 60656, Note_off_c, 5, 34, 64
7, 60660, Note_on_c, 5, 34, 90
7, 60719, Note_off_c, 5, 34, 64
7, 60720, Note_on_c, 5, 34, 90
7, 60955, Note_off_c, 5, 34, 64
7, 60960, Note_on_c, 5, 34, 90
7, 61195, Note_off_c, 5, 34, 64
7, 61200, Note_on_c, 5, 34, 90
7, 61435, Note_off_c, 5, 34, 64
7, 61440, Note_on_c, 5, 33, 90
7, 61616, Note_off_c, 5, 33, 64
7, 61620, Note_on_c, 5, 33, 90
7, 61679, Note_off_c, 5, 33, 64
7, 61680, Note_on_c, 5, 33, 90
7, 61856, Note_off_c, 5, 33, 64
7, 61860, Note_on_c, 5, 33, 90
7, 61919, Note_off_c, 5, 33, 64
7, 61920, Note_on_c, 5, 29, 90
7, 61979, Note_off_c, 5, 29, 64
7, 61980, Note_on_c, 5, 33, 90
7, 62039, Note_off_c, 5, 33, 64
7, 62040, Note_on_c, 5, 36, 90
7, 62099, Note_off_c, 5, 36, 64
7, 62100, Note_on_c, 5, 38, 90
7, 62159, Note_off_c, 5, 38, 64
7, 62160, Note_on_c, 5, 41, 90
7, 62219, Note_off_c, 5, 41, 64
7, 62220, Note_on_c, 5, 38, 90
7, 62279, Note_off_c, 5, 38, 64
7, 62280, Note_on_c, 5, 36, 90
7, 62339, Note_off_c, 5, 36, 64
7, 62340, Note_on_c, 5, 32, 90
7, 62399, Note_off_c, 5, 32, 64
7, 62400, Note_on_c, 5, 34, 90
7, 62576, Note_off_c, 5, 34, 64
7, 62580, Note_on_c, 5, 34, 90
7, 62639, Note_off_c, 5, 34, 64
7, 62640, Note_on_c, 5, 34, 90
7, 62875, Note_off_c, 5, 34, 64
7, 62880, Note_on_c, 5, 34, 90
7, 63115, Note_off_c, 5, 34, 64
7, 63120, Note_on_c, 5, 34, 90
7, 63355, Note_off_c, 5, 34, 64
7, 63360, Note_on_c, 5, 33, 90
7, 63536, Note_off_c, 5, 33, 64
7, 63540, Note_on_c, 5, 33, 90
7, 63599, Note_off_c, 5, 33, 64
7, 63600, Note_on_c, 5, 33, 90
7, 63776, Note_off_c, 5, 33, 64
7, 63780, Note_on_c, 5, 33, 90
7, 63839, Note_off_c, 5, 33, 64
7, 63840, Note_on_c, 5, 29, 90
7, 63899, Note_off_c, 5, 29, 64
7, 63900, Note_on_c, 5, 31, 90
7, 63959, Note_off_c, 5, 31, 64
7, 63960, Note_on_c, 5, 36, 90
7, 64019, Note_off_c, 5, 36, 64
7, 64020, Note_on_c, 5, 38, 90
7, 64079, Note_off_c, 5, 38, 64
7, 64080, Note_on_c, 5, 41, 90
7, 64139, Note_off_c, 5, 41, 64
7, 64140, Note_on_c, 5, 38, 90
7, 64199, Note_off_c, 5, 38, 64
7, 64200, Note_on_c, 5, 36, 90
7, 64259, Note_off_c, 5, 36, 64
7, 64260, Note_on_c, 5, 33, 90
7, 64319, Note_off_c, 5, 33, 64
7, 64320, Note_on_c, 5, 34, 90
7, 64790, Note_off_c, 5, 34, 64
7, 64800, Note_on_c, 5, 34, 90
7, 65270, Note_off_c, 5, 34, 64
7, 65280, Note_on_c, 5, 36, 90
7, 65633, Note_off_c, 5, 36, 64
7, 65640, Note_on_c, 5, 36, 90
7, 65758, Note_off_c, 5, 36, 64
7, 66180, Note_on_c, 5, 36, 90
7, 66239, Note_off_c, 5, 36, 64
7, 66240, Note_on_c, 5, 34, 90
7, 66416, Note_off_c, 5, 34, 64
7, 66420, Note_on_c, 5, 34, 90
7, 66479, Note_off_c, 5, 34, 64
7, 66480, Note_on_c, 5, 34, 90
7, 66715, Note_off_c, 5, 34, 64
7, 66720, Note_on_c, 5, 34, 90
7, 66955, Note_off_c, 5, 34, 64
7, 66960, Note_on_c, 5, 34, 90
7, 67195, Note_off_c, 5, 34, 64
7, 67200, Note_on_c, 5, 33, 90
7, 67376, Note_off_c, 5, 33, 64
7, 67380, Note_on_c, 5, 33, 90
7, 67439, Note_off_c, 5, 33, 64
7, 67440, Note_on_c, 5, 33, 90
7, 67616, Note_off_c, 5, 33, 64
7, 67620, Note_on_c, 5, 33, 90
7, 67679, Note_off_c, 5, 33, 64
7, 67680, Note_on_c, 5, 29, 90
7, 67739, Note_off_c, 5, 29, 64
7, 67740, Note_on_c, 5, 33, 90
7, 67799, Note_off_c, 5, 33, 64
7, 67800, Note_on_c, 5, 36, 90
7, 67859, Note_off_c, 5, 36, 64
7, 67860, Note_on_c, 5, 38, 90
7, 67919, Note_off_c, 5, 38, 64
7, 67920, Note_on_c, 5, 41, 90
7, 67979, Note_off_c, 5, 41, 64
7, 67980, Note_on_c, 5, 38, 90
7, 68039, Note_off_c, 5, 38, 64
7, 68040, Note_on_c, 5, 36, 90
7, 68099, Note_off_c, 5, 36, 64
7, 68100, Note_on_c, 5, 32, 90
7, 68159, Note_off_c, 5, 32, 64
7, 68160, Note_on_c, 5, 34, 90
7, 68336, Note_off_c, 5, 34, 64
7, 68340, Note_on_c, 5, 34, 90
7, 68399, Note_off_c, 5, 34, 64
7, 68400, Note_on_c, 5, 34, 90
7, 68635, Note_off_c, 5, 34, 64
7, 68640, Note_on_c, 5, 34, 90
7, 68875, Note_off_c, 5, 34, 64
7, 68880, Note_on_c, 5, 34, 90
7, 69115, Note_off_c, 5, 34, 64
7, 69120, Note_on_c, 5, 33, 90
7, 69296, Note_off_c, 5, 33, 64
7, 69300, Note_on_c, 5, 33, 90
7, 69359, Note_off_c, 5, 33, 64
7, 69360, Note_on_c, 5, 33, 90
7, 69536, Note_off_c, 5, 33, 64
7, 69540, Note_on_c, 5, 33, 90
7, 69599, Note_off_c, 5, 33, 64
7, 69600, Note_on_c, 5, 29, 90
7, 69659, Note_off_c, 5, 29, 64
7, 69660, Note_on_c, 5, 33, 90
7, 69719, Note_off_c, 5, 33, 64
7, 69720, Note_on_c, 5, 36, 90
7, 69779, Note_off_c, 5, 36, 64
7, 69780, Note_on_c, 5, 38, 90
7, 69839, Note_off_c, 5, 38, 64
7, 69840, Note_on_c, 5, 41, 90
7, 69899, Note_off_c, 5, 41, 64
7, 69900, Note_on_c, 5, 38, 90
7, 69959, Note_off_c, 5, 38, 64
7, 69960, Note_on_c, 5, 36, 90
7, 70019, Note_off_c, 5, 36, 64
7, 70020, Note_on_c, 5, 32, 90
7, 70079, Note_off_c, 5, 32, 64
7, 70080, Note_on_c, 5, 34, 90
7, 70256, Note_off_c, 5, 34, 64
7, 70260, Note_on_c, 5, 34, 90
7, 70319, Note_off_c, 5, 34, 64
7, 70320, Note_on_c, 5, 34, 90
7, 70555, Note_off_c, 5, 34, 64
7, 70560, Note_on_c, 5, 34, 90
7, 70795, Note_off_c, 5, 34, 64
7, 70800, Note_on_c, 5, 34, 90
7, 71035, Note_off_c, 5, 34, 64
7, 71040, Note_on_c, 5, 33, 90
7, 71216, Note_off_c, 5, 33, 64
7, 71220, Note_on_c, 5, 33, 90
7, 71279, Note_off_c, 5, 33, 64
7, 71280, Note_on_c, 5, 33, 90
7, 71456, Note_off_c, 5, 33, 64
7, 71460, Note_on_c, 5, 33, 90
7, 71519, Note_off_c, 5, 33, 64
7, 71520, Note_on_c, 5, 29, 90
7, 71579, Note_off_c, 5, 29, 64
7, 71580, Note_on_c, 5, 31, 90
7, 71639, Note_off_c, 5, 31, 64
7, 71640, Note_on_c, 5, 36, 90
7, 71699, Note_off_c, 5, 36, 64
7, 71700, Note_on_c, 5, 38, 90
7, 71759, Note_off_c, 5, 38, 64
7, 71760, Note_on_c, 5, 41, 90
7, 71819, Note_off_c, 5, 41, 64
7, 71820, Note_on_c, 5, 38, 90
7, 71879, Note_off_c, 5, 38, 64
7, 71880, Note_on_c, 5, 36, 90
7, 71939, Note_off_c, 5, 36, 64
7, 71940, Note_on_c, 5, 33, 90
7, 71999, Note_off_c, 5, 33, 64
7, 72000, Note_on_c, 5, 34, 90
7, 72470, Note_off_c, 5, 34, 64
7, 72480, Note_on_c, 5, 34, 90
7, 72950, Note_off_c, 5, 34, 64
7, 72960, Note_on_c, 5, 36, 90
7, 73313, Note_off_c, 5, 36, 64
7, 73320, Note_on_c, 5, 36, 90
7, 73438, Note_off_c, 5, 36, 64
7, 73440, Note_on_c, 5, 36, 90
7, 73616, Note_off_c, 5, 36, 64
7, 73620, Note_on_c, 5, 36, 90
7, 73679, Note_off_c, 5, 36, 64
7, 73680, Note_on_c, 5, 36, 90
7, 73915, Note_off_c, 5, 36, 64
7, 73920, Note_on_c, 5, 29, 1
7, 73979, Note_off_c, 5, 29, 64
7, 73980, Note_on_c, 5, 29, 1
7, 74039, Note_off_c, 5, 29, 64
7, 74040, Note_on_c, 5, 29, 1
7, 74099, Note_off_c, 5, 29, 64
7, 74100, Note_on_c, 5, 29, 1
7, 74159, Note_off_c, 5, 29, 64
7, 74160, Note_on_c, 5, 29, 1
7, 74219, Note_off_c, 5, 29, 64
7, 74220, Note_on_c, 5, 29, 1
7, 74279, Note_off_c, 5, 29, 64
7, 74280, Note_on_c, 5, 29, 1
7, 74339, Note_off_c, 5, 29, 64
7, 74340, Note_on_c, 5, 29, 1
7, 74399, Note_off_c, 5, 29, 64
7, 74400, Note_on_c, 5, 29, 1
7, 74459, Note_off_c, 5, 29, 64
7, 74460, Note_on_c, 5, 29, 1
7, 74519, Note_off_c, 5, 29, 64
7, 74520, Note_on_c, 5, 29, 1
7, 74579, Note_off_c, 5, 29, 64
7, 74580, Note_on_c, 5, 29, 1
7, 74639, Note_off_c, 5, 29, 64
7, 74640, Note_on_c, 5, 29, 1
7, 74699, Note_off_c, 5, 29, 64
7, 74700, Note_on_c, 5, 29, 1
7, 74759, Note_off_c, 5, 29, 64
7, 74760, Note_on_c, 5, 29, 1
7, 74819, Note_off_c, 5, 29, 64
7, 74820, Note_on_c, 5, 29, 1
7, 74879, Note_off_c, 5, 29, 64
7, 74880, Note_on_c, 5, 29, 1
7, 74939, Note_off_c, 5, 29, 64
7, 74940, Note_on_c, 5, 29, 1
7, 74999, Note_off_c, 5, 29, 64
7, 75000, Note_on_c, 5, 29, 1
7, 75059, Note_off_c, 5, 29, 64
7, 75060, Note_on_c, 5, 29, 1
7, 75119, Note_off_c, 5, 29, 64
7, 75120, Note_on_c, 5, 29, 1
7, 75179, Note_off_c, 5, 29, 64
7, 75180, Note_on_c, 5, 29, 1
7, 75239, Note_off_c, 5, 29, 64
7, 75240, Note_on_c, 5, 29, 1
7, 75299, Note_off_c, 5, 29, 64
7, 75300, Note_on_c, 5, 29, 1
7, 75359, Note_off_c, 5, 29, 64
7, 75360, Note_on_c, 5, 29, 1
7, 75419, Note_off_c, 5, 29, 64
7, 75420, Note_on_c, 5, 29, 1
7, 75479, Note_off_c, 5, 29, 64
7, 75480, Note_on_c, 5, 29, 1
7, 75539, Note_off_c, 5, 29, 64
7, 75540, Note_on_c, 5, 29, 1
7, 75599, Note_off_c, 5, 29, 64
7, 75600, Note_on_c, 5, 29, 1
7, 75659, Note_off_c, 5, 29, 64
7, 75660, Note_on_c, 5, 29, 1
7, 75719, Note_off_c, 5, 29, 64
7, 75720, Note_on_c, 5, 29, 1
7, 75779, Note_off_c, 5, 29, 64
7, 75780, Note_on_c, 5, 29, 1
7, 75839, Note_off_c, 5, 29, 64
7, 75840, Note_on_c, 5, 29, 1
7, 75899, Note_off_c, 5, 29, 64
7, 75900, Note_on_c, 5, 29, 1
7, 75959, Note_off_c, 5, 29, 64
7, 75960, Note_on_c, 5, 29, 1
7, 76019, Note_off_c, 5, 29, 64
7, 76020, Note_on_c, 5, 29, 1
7, 76079, Note_off_c, 5, 29, 64
7, 76080, Note_on_c, 5, 29, 1
7, 76139, Note_off_c, 5, 29, 64
7, 76140, Note_on_c, 5, 29, 1
7, 76199, Note_off_c, 5, 29, 64
7, 76200, Note_on_c, 5, 29, 1
7, 76259, Note_off_c, 5, 29, 64
7, 76260, Note_on_c, 5, 29, 1
7, 76319, Note_off_c, 5, 29, 64
7, 76320, Note_on_c, 5, 29, 1
7, 76379, Note_off_c, 5, 29, 64
7, 76380, Note_on_c, 5, 29, 1
7, 76439, Note_off_c, 5, 29, 64
7, 76440, Note_on_c, 5, 29, 1
7, 76499, Note_off_c, 5, 29, 64
7, 76500, Note_on_c, 5, 29, 1
7, 76559, Note_off_c, 5, 29, 64
7, 76560, Note_on_c, 5, 29, 1
7, 76619, Note_off_c, 5, 29, 64
7, 76620, Note_on_c, 5, 29, 1
7, 76679, Note_off_c, 5, 29, 64
7, 76680, Note_on_c, 5, 29, 1
7, 76739, Note_off_c, 5, 29, 64
7, 76740, Note_on_c, 5, 29, 1
7, 76799, Note_off_c, 5, 29, 64
7, 76800, Note_on_c, 5, 29, 1
7, 76859, Note_off_c, 5, 29, 64
7, 76860, Note_on_c, 5, 29, 1
7, 76919, Note_off_c, 5, 29, 64
7, 76920, Note_on_c, 5, 29, 1
7, 76979, Note_off_c, 5, 29, 64
7, 76980, Note_on_c, 5, 29, 1
7, 77039, Note_off_c, 5, 29, 64
7, 77040, Note_on_c, 5, 29, 1
7, 77099, Note_off_c, 5, 29, 64
7, 77100, Note_on_c, 5, 29, 1
7, 77159, Note_off_c, 5, 29, 64
7, 77160, Note_on_c, 5, 29, 1
7, 77219, Note_off_c, 5, 29, 64
7, 77220, Note_on_c, 5, 29, 1
7, 77279, Note_off_c, 5, 29, 64
7, 77280, Note_on_c, 5, 29, 1
7, 77339, Note_off_c, 5, 29, 64
7, 77340, Note_on_c, 5, 29, 1
7, 77399, Note_off_c, 5, 29, 64
7, 77400, Note_on_c, 5, 29, 1
7, 77459, Note_off_c, 5, 29, 64
7, 77460, Note_on_c, 5, 29, 1
7, 77519, Note_off_c, 5, 29, 64
7, 77520, Note_on_c, 5, 29, 1
7, 77579, Note_off_c, 5, 29, 64
7, 77580, Note_on_c, 5, 29, 1
7, 77639, Note_off_c, 5, 29, 64
7, 77640, Note_on_c, 5, 29, 1
7, 77699, Note_off_c, 5, 29, 64
7, 77700, Note_on_c, 5, 29, 1
7, 77759, Note_off_c, 5, 29, 64
7, 77760, Note_on_c, 5, 29, 1
7, 77819, Note_off_c, 5, 29, 64
7, 77820, Note_on_c, 5, 29, 1
7, 77879, Note_off_c, 5, 29, 64
7, 77880, Note_on_c, 5, 29, 1
7, 77939, Note_off_c, 5, 29, 64
7, 77940, Note_on_c, 5, 29, 1
7, 77999, Note_off_c, 5, 29, 64
7, 78000, Note_on_c, 5, 29, 1
7, 78059, Note_off_c, 5, 29, 64
7, 78060, Note_on_c, 5, 29, 1
7, 78119, Note_off_c, 5, 29, 64
7, 78120, Note_on_c, 5, 29, 1
7, 78179, Note_off_c, 5, 29, 64
7, 78180, Note_on_c, 5, 29, 1
7, 78239, Note_off_c, 5, 29, 64
7, 78240, Note_on_c, 5, 29, 1
7, 78299, Note_off_c, 5, 29, 64
7, 78300, Note_on_c, 5, 29, 1
7, 78359, Note_off_c, 5, 29, 64
7, 78360, Note_on_c, 5, 29, 1
7, 78419, Note_off_c, 5, 29, 64
7, 78420, Note_on_c, 5, 29, 1
7, 78479, Note_off_c, 5, 29, 64
7, 78480, Note_on_c, 5, 29, 1
7, 78539, Note_off_c, 5, 29, 64
7, 78540, Note_on_c, 5, 29, 1
7, 78599, Note_off_c, 5, 29, 64
7, 78600, Note_on_c, 5, 29, 1
7, 78659, Note_off_c, 5, 29, 64
7, 78660, Note_on_c, 5, 29, 1
7, 78719, Note_off_c, 5, 29, 64
7, 78720, Note_on_c, 5, 29, 1
7, 78779, Note_off_c, 5, 29, 64
7, 78780, Note_on_c, 5, 29, 1
7, 78839, Note_off_c, 5, 29, 64
7, 78840, Note_on_c, 5, 29, 1
7, 78899, Note_off_c, 5, 29, 64
7, 78900, Note_on_c, 5, 29, 1
7, 78959, Note_off_c, 5, 29, 64
7, 78960, Note_on_c, 5, 29, 1
7, 79019, Note_off_c, 5, 29, 64
7, 79020, Note_on_c, 5, 29, 1
7, 79079, Note_off_c, 5, 29, 64
7, 79080, Note_on_c, 5, 29, 1
7, 79139, Note_off_c, 5, 29, 64
7, 79140, Note_on_c, 5, 29, 1
7, 79199, Note_off_c, 5, 29, 64
7, 79200, Note_on_c, 5, 29, 1
7, 79259, Note_off_c, 5, 29, 64
7, 79260, Note_on_c, 5, 29, 1
7, 79319, Note_off_c, 5, 29, 64
7, 79320, Note_on_c, 5, 29, 1
7, 79379, Note_off_c, 5, 29, 64
7, 79380, Note_on_c, 5, 29, 1
7, 79439, Note_off_c, 5, 29, 64
7, 79440, Note_on_c, 5, 29, 1
7, 79499, Note_off_c, 5, 29, 64
7, 79500, Note_on_c, 5, 29, 1
7, 79559, Note_off_c, 5, 29, 64
7, 79560, Note_on_c, 5, 29, 1
7, 79619, Note_off_c, 5, 29, 64
7, 79620, Note_on_c, 5, 29, 1
7, 79679, Note_off_c, 5, 29, 64
7, 79680, Note_on_c, 5, 29, 1
7, 79739, Note_off_c, 5, 29, 64
7, 79740, Note_on_c, 5, 29, 1
7, 79799, Note_off_c, 5, 29, 64
7, 79800, Note_on_c, 5, 29, 1
7, 79859, Note_off_c, 5, 29, 64
7, 79860, Note_on_c, 5, 29, 1
7, 79919, Note_off_c, 5, 29, 64
7, 79920, Note_on_c, 5, 29, 1
7, 79979, Note_off_c, 5, 29, 64
7, 79980, Note_on_c, 5, 29, 1
7, 80039, Note_off_c, 5, 29, 64
7, 80040, Note_on_c, 5, 29, 1
7, 80099, Note_off_c, 5, 29, 64
7, 80100, Note_on_c, 5, 29, 1
7, 80159, Note_off_c, 5, 29, 64
7, 80160, Note_on_c, 5, 29, 1
7, 80219, Note_off_c, 5, 29, 64
7, 80220, Note_on_c, 5, 29, 1
7, 80279, Note_off_c, 5, 29, 64
7, 80280, Note_on_c, 5, 29, 1
7, 80339, Note_off_c, 5, 29, 64
7, 80340, Note_on_c, 5, 29, 1
7, 80399, Note_off_c, 5, 29, 64
7, 80400, Note_on_c, 5, 29, 1
7, 80459, Note_off_c, 5, 29, 64
7, 80460, Note_on_c, 5, 29, 1
7, 80519, Note_off_c, 5, 29, 64
7, 80520, Note_on_c, 5, 29, 1
7, 80579, Note_off_c, 5, 29, 64
7, 80580, Note_on_c, 5, 29, 1
7, 80639, Note_off_c, 5, 29, 64
7, 80640, Note_on_c, 5, 29, 1
7, 80699, Note_off_c, 5, 29, 64
7, 80700, Note_on_c, 5, 29, 1
7, 80759, Note_off_c, 5, 29, 64
7, 80760, Note_on_c, 5, 29, 1
7, 80819, Note_off_c, 5, 29, 64
7, 80820, Note_on_c, 5, 29, 1
7, 80879, Note_off_c, 5, 29, 64
7, 80880, Note_on_c, 5, 29, 1
7, 80939, Note_off_c, 5, 29, 64
7, 80940, Note_on_c, 5, 29, 1
7, 80999, Note_off_c, 5, 29, 64
7, 81000, Note_on_c, 5, 29, 1
7, 81059, Note_off_c, 5, 29, 64
7, 81060, Note_on_c, 5, 29, 1
7, 81119, Note_off_c, 5, 29, 64
7, 81120, Note_on_c, 5, 29, 1
7, 81179, Note_off_c, 5, 29, 64
7, 81180, Note_on_c, 5, 29, 1
7, 81239, Note_off_c, 5, 29, 64
7, 81240, Note_on_c, 5, 29, 1
7, 81299, Note_off_c, 5, 29, 64
7, 81300, Note_on_c, 5, 29, 1
7, 81359, Note_off_c, 5, 29, 64
7, 81360, Note_on_c, 5, 29, 1
7, 81419, Note_off_c, 5, 29, 64
7, 81420, Note_on_c, 5, 29, 1
7, 81479, Note_off_c, 5, 29, 64
7, 81480, Note_on_c, 5, 29, 1
7, 81539, Note_off_c, 5, 29, 64
7, 81540, Note_on_c, 5, 29, 1
7, 81599, Note_off_c, 5, 29, 64
7, 81600, Note_on_c, 5, 29, 1
7, 81659, Note_off_c, 5, 29, 64
7, 81660, Note_on_c, 5, 29, 1
7, 81719, Note_off_c, 5, 29, 64
7, 81720, Note_on_c, 5, 29, 1
7, 81779, Note_off_c, 5, 29, 64
7, 81780, Note_on_c, 5, 29, 1
7, 81839, Note_off_c, 5, 29, 64
7, 81840, Note_on_c, 5, 29, 1
7, 81899, Note_off_c, 5, 29, 64
7, 81900, Note_on_c, 5, 29, 1
7, 81959, Note_off_c, 5, 29, 64
7, 81960, Note_on_c, 5, 29, 1
7, 82019, Note_off_c, 5, 29, 64
7, 82020, Note_on_c, 5, 29, 1
7, 82079, Note_off_c, 5, 29, 64
7, 82080, Note_on_c, 5, 29, 1
7, 82139, Note_off_c, 5, 29, 64
7, 82140, Note_on_c, 5, 29, 1
7, 82199, Note_off_c, 5, 29, 64
7, 82200, Note_on_c, 5, 29, 1
7, 82259, Note_off_c, 5, 29, 64
7, 82260, Note_on_c, 5, 29, 1
7, 82319, Note_off_c, 5, 29, 64
7, 82320, Note_on_c, 5, 29, 1
7, 82379, Note_off_c, 5, 29, 64
7, 82380, Note_on_c, 5, 29, 1
7, 82439, Note_off_c, 5, 29, 64
7, 82440, Note_on_c, 5, 29, 1
7, 82499, Note_off_c, 5, 29, 64
7, 82500, Note_on_c, 5, 29, 1
7, 82559, Note_off_c, 5, 29, 64
7, 82560, Note_on_c, 5, 29, 1
7, 82619, Note_off_c, 5, 29, 64
7, 82620, Note_on_c, 5, 29, 1
7, 82679, Note_off_c, 5, 29, 64
7, 82680, Note_on_c, 5, 29, 1
7, 82739, Note_off_c, 5, 29, 64
7, 82740, Note_on_c, 5, 29, 1
7, 82799, Note_off_c, 5, 29, 64
7, 82800, Note_on_c, 5, 29, 1
7, 82859, Note_off_c, 5, 29, 64
7, 82860, Note_on_c, 5, 29, 1
7, 82919, Note_off_c, 5, 29, 64
7, 82920, Note_on_c, 5, 29, 1
7, 82979, Note_off_c, 5, 29, 64
7, 82980, Note_on_c, 5, 29, 1
7, 83039, Note_off_c, 5, 29, 64
7, 83040, Note_on_c, 5, 29, 1
7, 83099, Note_off_c, 5, 29, 64
7, 83100, Note_on_c, 5, 29, 1
7, 83159, Note_off_c, 5, 29, 64
7, 83160, Note_on_c, 5, 29, 1
7, 83219, Note_off_c, 5, 29, 64
7, 83220, Note_on_c, 5, 29, 1
7, 83279, Note_off_c, 5, 29, 64
7, 83280, Note_on_c, 5, 29, 1
7, 83339, Note_off_c, 5, 29, 64
7, 83340, Note_on_c, 5, 29, 1
7, 83399, Note_off_c, 5, 29, 64
7, 83400, Note_on_c, 5, 29, 1
7, 83459, Note_off_c, 5, 29, 64
7, 83460, Note_on_c, 5, 29, 1
7, 83519, Note_off_c, 5, 29, 64
7, 83520, Note_on_c, 5, 29, 1
7, 83579, Note_off_c, 5, 29, 64
7, 83580, Note_on_c, 5, 29, 1
7, 83639, Note_off_c, 5, 29, 64
7, 83640, Note_on_c, 5, 29, 1
7, 83699, Note_off_c, 5, 29, 64
7, 83700, Note_on_c, 5, 29, 1
7, 83759, Note_off_c, 5, 29, 64
7, 83760, Note_on_c, 5, 29, 1
7, 83819, Note_off_c, 5, 29, 64
7, 83820, Note_on_c, 5, 29, 1
7, 83879, Note_off_c, 5, 29, 64
7, 83880, Note_on_c, 5, 29, 1
7, 83939, Note_off_c, 5, 29, 64
7, 83940, Note_on_c, 5, 29, 1
7, 83999, Note_off_c, 5, 29, 64
7, 84000, Note_on_c, 5, 29, 1
7, 84059, Note_off_c, 5, 29, 64
7, 84060, Note_on_c, 5, 29, 1
7, 84119, Note_off_c, 5, 29, 64
7, 84120, Note_on_c, 5, 29, 1
7, 84179, Note_off_c, 5, 29, 64
7, 84180, Note_on_c, 5, 29, 1
7, 84239, Note_off_c, 5, 29, 64
7, 84240, Note_on_c, 5, 29, 1
7, 84299, Note_off_c, 5, 29, 64
7, 84300, Note_on_c, 5, 29, 1
7, 84359, Note_off_c, 5, 29, 64
7, 84360, Note_on_c, 5, 29, 1
7, 84419, Note_off_c, 5, 29, 64
7, 84420, Note_on_c, 5, 29, 1
7, 84479, Note_off_c, 5, 29, 64
7, 84480, Note_on_c, 5, 29, 1
7, 84539, Note_off_c, 5, 29, 64
7, 84540, Note_on_c, 5, 29, 1
7, 84599, Note_off_c, 5, 29, 64
7, 84600, Note_on_c, 5, 29, 1
7, 84659, Note_off_c, 5, 29, 64
7, 84660, Note_on_c, 5, 29, 1
7, 84719, Note_off_c, 5, 29, 64
7, 84720, Note_on_c, 5, 29, 1
7, 84779, Note_off_c, 5, 29, 64
7, 84780, Note_on_c, 5, 29, 1
7, 84839, Note_off_c, 5, 29, 64
7, 84840, Note_on_c, 5, 29, 1
7, 84899, Note_off_c, 5, 29, 64
7, 84900, Note_on_c, 5, 29, 1
7, 84959, Note_off_c, 5, 29, 64
7, 84960, Note_on_c, 5, 29, 1
7, 85019, Note_off_c, 5, 29, 64
7, 85020, Note_on_c, 5, 29, 1
7, 85079, Note_off_c, 5, 29, 64
7, 85080, Note_on_c, 5, 29, 1
7, 85139, Note_off_c, 5, 29, 64
7, 85140, Note_on_c, 5, 29, 1
7, 85199, Note_off_c, 5, 29, 64
7, 85200, Note_on_c, 5, 29, 1
7, 85259, Note_off_c, 5, 29, 64
7, 85260, Note_on_c, 5, 29, 1
7, 85319, Note_off_c, 5, 29, 64
7, 85320, Note_on_c, 5, 29, 1
7, 85379, Note_off_c, 5, 29, 64
7, 85380, Note_on_c, 5, 29, 1
7, 85439, Note_off_c, 5, 29, 64
7, 85439, End_track
8, 0, Start_track
8, 0, End_track
9, 0, Start_track
9, 0, Text_t, "LEVON"
9, 0, End_track
10, 0, Start_track
10, 0, Text_t, "Elton John"
10, 0, End_track
11, 0, Start_track
11, 0, Text_t, "Sequenced By:"
11, 0, End_track
12, 0, Start_track
12, 0, Text_t, "Les Herrman  8/22/93"
12, 0, End_track
13, 0, Start_track
13, 0, Text_t, "General Midi / Type 1"
13, 0, End_track
0, 0, End_of_file
