0, 0, Header, 1, 4, 960
1, 0, Start_track
1, 0, Control_c, 0, 101, 0
1, 0, Control_c, 0, 100, 0
1, 0, Control_c, 0, 6, 12
1, 0, Control_c, 0, 38, 0
1, 0, Control_c, 1, 101, 0
1, 0, Control_c, 1, 100, 0
1, 0, Control_c, 1, 6, 12
1, 0, Control_c, 1, 38, 0
1, 0, Control_c, 2, 101, 0
1, 0, Control_c, 2, 100, 0
1, 0, Control_c, 2, 6, 12
1, 0, Control_c, 2, 38, 0
1, 0, Control_c, 3, 101, 0
1, 0, Control_c, 3, 100, 0
1, 0, Control_c, 3, 6, 12
1, 0, Control_c, 3, 38, 0
1, 0, Control_c, 4, 101, 0
1, 0, Control_c, 4, 100, 0
1, 0, Control_c, 4, 6, 12
1, 0, Control_c, 4, 38, 0
1, 0, Control_c, 5, 101, 0
1, 0, Control_c, 5, 100, 0
1, 0, Control_c, 5, 6, 12
1, 0, Control_c, 5, 38, 0
1, 0, Control_c, 6, 101, 0
1, 0, Control_c, 6, 100, 0
1, 0, Control_c, 6, 6, 12
1, 0, Control_c, 6, 38, 0
1, 0, Control_c, 7, 101, 0
1, 0, Control_c, 7, 100, 0
1, 0, Control_c, 7, 6, 12
1, 0, Control_c, 7, 38, 0
1, 0, Control_c, 8, 101, 0
1, 0, Control_c, 8, 100, 0
1, 0, Control_c, 8, 6, 12
1, 0, Control_c, 8, 38, 0
1, 0, Control_c, 9, 101, 0
1, 0, Control_c, 9, 100, 0
1, 0, Control_c, 9, 6, 12
1, 0, Control_c, 9, 38, 0
1, 0, Control_c, 10, 101, 0
1, 0, Control_c, 10, 100, 0
1, 0, Control_c, 10, 6, 12
1, 0, Control_c, 10, 38, 0
1, 0, Control_c, 11, 101, 0
1, 0, Control_c, 11, 100, 0
1, 0, Control_c, 11, 6, 12
1, 0, Control_c, 11, 38, 0
1, 0, Control_c, 12, 101, 0
1, 0, Control_c, 12, 100, 0
1, 0, Control_c, 12, 6, 12
1, 0, Control_c, 12, 38, 0
1, 0, Control_c, 13, 101, 0
1, 0, Control_c, 13, 100, 0
1, 0, Control_c, 13, 6, 12
1, 0, Control_c, 13, 38, 0
1, 0, Control_c, 14, 101, 0
1, 0, Control_c, 14, 100, 0
1, 0, Control_c, 14, 6, 12
1, 0, Control_c, 14, 38, 0
1, 0, Control_c, 15, 101, 0
1, 0, Control_c, 15, 100, 0
1, 0, Control_c, 15, 6, 12
1, 0, Control_c, 15, 38, 0
1, 0, Time_signature, 4, 2, 24, 8
1, 0, Tempo, 480000
1, 57600, Time_signature, 2, 2, 24, 8
1, 59520, Time_signature, 4, 2, 24, 8
1, 74880, Time_signature, 2, 2, 24, 8
1, 76800, Time_signature, 4, 2, 24, 8
1, 92160, Time_signature, 2, 2, 24, 8
1, 94080, Time_signature, 4, 2, 24, 8
1, 109440, Time_signature, 2, 2, 24, 8
1, 111360, Time_signature, 4, 2, 24, 8
1, 126720, Time_signature, 2, 2, 24, 8
1, 128640, Time_signature, 4, 2, 24, 8
1, 144000, Time_signature, 2, 2, 24, 8
1, 145920, Time_signature, 4, 2, 24, 8
1, 149760, Time_signature, 2, 2, 24, 8
1, 151680, Time_signature, 4, 2, 24, 8
1, 193920, Time_signature, 2, 2, 24, 8
1, 195840, Time_signature, 4, 2, 24, 8
1, 211200, Time_signature, 2, 2, 24, 8
1, 213120, Time_signature, 4, 2, 24, 8
1, 228480, Time_signature, 2, 2, 24, 8
1, 230400, Time_signature, 4, 2, 24, 8
1, 245760, Time_signature, 2, 2, 24, 8
1, 247680, Time_signature, 4, 2, 24, 8
1, 251520, Time_signature, 2, 2, 24, 8
1, 253440, Time_signature, 4, 2, 24, 8
1, 403200, Time_signature, 2, 2, 24, 8
1, 405120, Time_signature, 4, 2, 24, 8
1, 420480, Time_signature, 2, 2, 24, 8
1, 422400, Time_signature, 4, 2, 24, 8
1, 437760, Time_signature, 2, 2, 24, 8
1, 439680, Time_signature, 4, 2, 24, 8
1, 455040, Time_signature, 2, 2, 24, 8
1, 456960, Time_signature, 4, 2, 24, 8
1, 460800, Time_signature, 2, 2, 24, 8
1, 462720, Time_signature, 4, 2, 24, 8
1, 462720, End_track
2, 0, Start_track
2, 0, Pitch_bend_c, 0, 8192
2, 0, Control_c, 0, 7, 95
2, 0, Control_c, 0, 10, 63
2, 0, Control_c, 0, 93, 0
2, 0, Control_c, 0, 91, 127
2, 0, Control_c, 0, 95, 0
2, 0, Control_c, 0, 92, 0
2, 0, Control_c, 0, 11, 127
2, 0, Program_c, 0, 30
2, 0, Control_c, 1, 7, 95
2, 0, Control_c, 1, 10, 63
2, 0, Control_c, 1, 93, 0
2, 0, Control_c, 1, 91, 127
2, 0, Control_c, 1, 95, 0
2, 0, Control_c, 1, 92, 0
2, 0, Control_c, 1, 11, 127
2, 0, Program_c, 1, 30
2, 0, Note_on_c, 0, 57, 95
2, 960, Note_off_c, 0, 57, 95
2, 960, Note_on_c, 0, 57, 95
2, 1440, Note_off_c, 0, 57, 95
2, 1440, Note_on_c, 0, 55, 95
2, 1920, Note_off_c, 0, 55, 95
2, 1920, Note_on_c, 1, 51, 95
2, 2040, Pitch_bend_c, 1, 7936
2, 2160, Pitch_bend_c, 1, 7552
2, 2280, Pitch_bend_c, 1, 7168
2, 2400, Pitch_bend_c, 1, 6784
2, 2520, Pitch_bend_c, 1, 6528
2, 2640, Pitch_bend_c, 1, 6144
2, 2760, Pitch_bend_c, 1, 5760
2, 2880, Pitch_bend_c, 1, 5376
2, 3000, Pitch_bend_c, 1, 5120
2, 3120, Pitch_bend_c, 1, 4736
2, 3240, Pitch_bend_c, 1, 4352
2, 3360, Pitch_bend_c, 1, 3968
2, 3360, Pitch_bend_c, 1, 8192
2, 3360, Note_off_c, 1, 51, 95
2, 3360, Note_on_c, 0, 45, 95
2, 3840, Note_off_c, 0, 45, 95
2, 3840, Note_on_c, 0, 48, 95
2, 4800, Note_off_c, 0, 48, 95
2, 4800, Note_on_c, 0, 49, 95
2, 5280, Note_off_c, 0, 49, 95
2, 5280, Note_on_c, 0, 50, 95
2, 5760, Note_off_c, 0, 50, 95
2, 5760, Note_on_c, 0, 50, 95
2, 6240, Note_off_c, 0, 50, 95
2, 6240, Note_on_c, 0, 45, 95
2, 7200, Note_off_c, 0, 45, 95
2, 7200, Note_on_c, 0, 45, 47
2, 7680, Note_off_c, 0, 45, 47
2, 7680, Note_on_c, 0, 57, 95
2, 8640, Note_off_c, 0, 57, 95
2, 8640, Note_on_c, 0, 57, 95
2, 9120, Note_off_c, 0, 57, 95
2, 9120, Note_on_c, 0, 55, 95
2, 9600, Note_off_c, 0, 55, 95
2, 9600, Note_on_c, 1, 51, 95
2, 9720, Pitch_bend_c, 1, 7936
2, 9840, Pitch_bend_c, 1, 7552
2, 9960, Pitch_bend_c, 1, 7168
2, 10080, Pitch_bend_c, 1, 6784
2, 10200, Pitch_bend_c, 1, 6528
2, 10320, Pitch_bend_c, 1, 6144
2, 10440, Pitch_bend_c, 1, 5760
2, 10560, Pitch_bend_c, 1, 5376
2, 10680, Pitch_bend_c, 1, 5120
2, 10800, Pitch_bend_c, 1, 4736
2, 10920, Pitch_bend_c, 1, 4352
2, 11040, Pitch_bend_c, 1, 3968
2, 11040, Pitch_bend_c, 1, 8192
2, 11040, Note_off_c, 1, 51, 95
2, 11040, Note_on_c, 0, 45, 95
2, 11520, Note_off_c, 0, 45, 95
2, 11520, Note_on_c, 0, 48, 95
2, 12480, Note_off_c, 0, 48, 95
2, 12480, Note_on_c, 0, 49, 95
2, 12960, Note_off_c, 0, 49, 95
2, 12960, Note_on_c, 0, 50, 95
2, 13440, Note_off_c, 0, 50, 95
2, 13440, Note_on_c, 0, 50, 95
2, 13920, Note_off_c, 0, 50, 95
2, 13920, Note_on_c, 0, 45, 95
2, 14880, Note_off_c, 0, 45, 95
2, 14880, Note_on_c, 0, 45, 47
2, 15360, Note_off_c, 0, 45, 47
2, 15360, Note_on_c, 0, 57, 95
2, 16320, Note_off_c, 0, 57, 95
2, 16320, Note_on_c, 0, 57, 95
2, 16800, Note_off_c, 0, 57, 95
2, 16800, Note_on_c, 0, 55, 95
2, 17280, Note_off_c, 0, 55, 95
2, 17280, Note_on_c, 1, 51, 95
2, 17400, Pitch_bend_c, 1, 7936
2, 17520, Pitch_bend_c, 1, 7552
2, 17640, Pitch_bend_c, 1, 7168
2, 17760, Pitch_bend_c, 1, 6784
2, 17880, Pitch_bend_c, 1, 6528
2, 18000, Pitch_bend_c, 1, 6144
2, 18120, Pitch_bend_c, 1, 5760
2, 18240, Pitch_bend_c, 1, 5376
2, 18360, Pitch_bend_c, 1, 5120
2, 18480, Pitch_bend_c, 1, 4736
2, 18600, Pitch_bend_c, 1, 4352
2, 18720, Pitch_bend_c, 1, 3968
2, 18720, Pitch_bend_c, 1, 8192
2, 18720, Note_off_c, 1, 51, 95
2, 18720, Note_on_c, 0, 45, 95
2, 19200, Note_off_c, 0, 45, 95
2, 19200, Note_on_c, 0, 48, 95
2, 20160, Note_off_c, 0, 48, 95
2, 20160, Note_on_c, 0, 49, 95
2, 20640, Note_off_c, 0, 49, 95
2, 20640, Note_on_c, 0, 50, 95
2, 21120, Note_off_c, 0, 50, 95
2, 21120, Note_on_c, 0, 50, 95
2, 21600, Note_off_c, 0, 50, 95
2, 21600, Note_on_c, 0, 45, 95
2, 22560, Note_off_c, 0, 45, 95
2, 22560, Note_on_c, 0, 45, 47
2, 23040, Note_off_c, 0, 45, 47
2, 23040, Note_on_c, 0, 57, 95
2, 24000, Note_off_c, 0, 57, 95
2, 24000, Note_on_c, 0, 57, 95
2, 24480, Note_off_c, 0, 57, 95
2, 24480, Note_on_c, 0, 55, 95
2, 24960, Note_off_c, 0, 55, 95
2, 24960, Note_on_c, 1, 51, 95
2, 25080, Pitch_bend_c, 1, 7936
2, 25200, Pitch_bend_c, 1, 7552
2, 25320, Pitch_bend_c, 1, 7168
2, 25440, Pitch_bend_c, 1, 6784
2, 25560, Pitch_bend_c, 1, 6528
2, 25680, Pitch_bend_c, 1, 6144
2, 25800, Pitch_bend_c, 1, 5760
2, 25920, Pitch_bend_c, 1, 5376
2, 26040, Pitch_bend_c, 1, 5120
2, 26160, Pitch_bend_c, 1, 4736
2, 26280, Pitch_bend_c, 1, 4352
2, 26400, Pitch_bend_c, 1, 3968
2, 26400, Pitch_bend_c, 1, 8192
2, 26400, Note_off_c, 1, 51, 95
2, 26400, Note_on_c, 0, 45, 95
2, 26880, Note_off_c, 0, 45, 95
2, 26880, Note_on_c, 0, 48, 95
2, 27840, Note_off_c, 0, 48, 95
2, 27840, Note_on_c, 0, 49, 95
2, 28320, Note_off_c, 0, 49, 95
2, 28320, Note_on_c, 0, 50, 95
2, 28800, Note_off_c, 0, 50, 95
2, 28800, Note_on_c, 0, 50, 95
2, 29280, Note_off_c, 0, 50, 95
2, 29280, Note_on_c, 0, 45, 95
2, 30240, Note_off_c, 0, 45, 95
2, 30240, Note_on_c, 0, 45, 47
2, 30720, Note_off_c, 0, 45, 47
2, 30720, Note_on_c, 0, 57, 95
2, 31680, Note_off_c, 0, 57, 95
2, 31680, Note_on_c, 0, 57, 95
2, 32160, Note_off_c, 0, 57, 95
2, 32160, Note_on_c, 0, 55, 95
2, 32640, Note_off_c, 0, 55, 95
2, 32640, Note_on_c, 1, 51, 95
2, 32760, Pitch_bend_c, 1, 7936
2, 32880, Pitch_bend_c, 1, 7552
2, 33000, Pitch_bend_c, 1, 7168
2, 33120, Pitch_bend_c, 1, 6784
2, 33240, Pitch_bend_c, 1, 6528
2, 33360, Pitch_bend_c, 1, 6144
2, 33480, Pitch_bend_c, 1, 5760
2, 33600, Pitch_bend_c, 1, 5376
2, 33720, Pitch_bend_c, 1, 5120
2, 33840, Pitch_bend_c, 1, 4736
2, 33960, Pitch_bend_c, 1, 4352
2, 34080, Pitch_bend_c, 1, 3968
2, 34080, Pitch_bend_c, 1, 8192
2, 34080, Note_off_c, 1, 51, 95
2, 34080, Note_on_c, 0, 45, 95
2, 34560, Note_off_c, 0, 45, 95
2, 34560, Note_on_c, 0, 48, 95
2, 35520, Note_off_c, 0, 48, 95
2, 35520, Note_on_c, 0, 49, 95
2, 36000, Note_off_c, 0, 49, 95
2, 36000, Note_on_c, 0, 50, 95
2, 36480, Note_off_c, 0, 50, 95
2, 36480, Note_on_c, 0, 50, 95
2, 36960, Note_off_c, 0, 50, 95
2, 36960, Note_on_c, 0, 45, 95
2, 37920, Note_off_c, 0, 45, 95
2, 37920, Note_on_c, 0, 45, 47
2, 38400, Note_off_c, 0, 45, 47
2, 38400, Note_on_c, 0, 57, 95
2, 39360, Note_off_c, 0, 57, 95
2, 39360, Note_on_c, 0, 57, 95
2, 39840, Note_off_c, 0, 57, 95
2, 39840, Note_on_c, 0, 55, 95
2, 40320, Note_off_c, 0, 55, 95
2, 40320, Note_on_c, 1, 51, 95
2, 40440, Pitch_bend_c, 1, 7936
2, 40560, Pitch_bend_c, 1, 7552
2, 40680, Pitch_bend_c, 1, 7168
2, 40800, Pitch_bend_c, 1, 6784
2, 40920, Pitch_bend_c, 1, 6528
2, 41040, Pitch_bend_c, 1, 6144
2, 41160, Pitch_bend_c, 1, 5760
2, 41280, Pitch_bend_c, 1, 5376
2, 41400, Pitch_bend_c, 1, 5120
2, 41520, Pitch_bend_c, 1, 4736
2, 41640, Pitch_bend_c, 1, 4352
2, 41760, Pitch_bend_c, 1, 3968
2, 41760, Pitch_bend_c, 1, 8192
2, 41760, Note_off_c, 1, 51, 95
2, 41760, Note_on_c, 0, 45, 95
2, 42240, Note_off_c, 0, 45, 95
2, 42240, Note_on_c, 0, 48, 95
2, 43200, Note_off_c, 0, 48, 95
2, 43200, Note_on_c, 0, 49, 95
2, 43680, Note_off_c, 0, 49, 95
2, 43680, Note_on_c, 0, 50, 95
2, 44160, Note_off_c, 0, 50, 95
2, 44160, Note_on_c, 0, 50, 95
2, 44640, Note_off_c, 0, 50, 95
2, 44640, Note_on_c, 0, 45, 95
2, 45600, Note_off_c, 0, 45, 95
2, 45600, Note_on_c, 0, 45, 47
2, 46080, Note_off_c, 0, 45, 47
2, 46080, Note_on_c, 0, 57, 95
2, 46205, Note_off_c, 0, 57, 95
2, 46560, Note_on_c, 0, 57, 95
2, 46685, Note_off_c, 0, 57, 95
2, 47040, Note_on_c, 0, 57, 95
2, 47165, Note_off_c, 0, 57, 95
2, 47520, Note_on_c, 0, 55, 95
2, 48000, Note_off_c, 0, 55, 95
2, 48000, Note_on_c, 0, 57, 70
2, 48125, Note_off_c, 0, 57, 70
2, 48480, Note_on_c, 0, 45, 47
2, 48605, Note_off_c, 0, 45, 47
2, 48960, Note_on_c, 0, 45, 47
2, 49085, Note_off_c, 0, 45, 47
2, 49440, Note_on_c, 0, 55, 95
2, 49920, Note_off_c, 0, 55, 95
2, 49920, Note_on_c, 0, 57, 70
2, 50045, Note_off_c, 0, 57, 70
2, 50400, Note_on_c, 0, 55, 95
2, 50880, Note_off_c, 0, 55, 95
2, 50880, Note_on_c, 0, 57, 70
2, 51005, Note_off_c, 0, 57, 70
2, 51360, Note_on_c, 0, 45, 47
2, 51485, Note_off_c, 0, 45, 47
2, 51840, Note_on_c, 0, 45, 47
2, 51965, Note_off_c, 0, 45, 47
2, 52320, Note_on_c, 0, 45, 47
2, 52445, Note_off_c, 0, 45, 47
2, 52800, Note_on_c, 0, 45, 47
2, 52925, Note_off_c, 0, 45, 47
2, 53280, Note_on_c, 0, 45, 47
2, 53405, Note_off_c, 0, 45, 47
2, 53760, Note_on_c, 0, 45, 47
2, 53885, Note_off_c, 0, 45, 47
2, 54240, Note_on_c, 0, 55, 95
2, 54720, Note_off_c, 0, 55, 95
2, 54720, Note_on_c, 0, 57, 70
2, 54845, Note_off_c, 0, 57, 70
2, 55200, Note_on_c, 0, 55, 95
2, 55680, Note_off_c, 0, 55, 95
2, 55680, Note_on_c, 0, 57, 70
2, 55805, Note_off_c, 0, 57, 70
2, 56160, Note_on_c, 0, 45, 47
2, 56285, Note_off_c, 0, 45, 47
2, 56640, Note_on_c, 0, 45, 47
2, 56765, Note_off_c, 0, 45, 47
2, 57120, Note_on_c, 0, 55, 95
2, 57600, Note_off_c, 0, 55, 95
2, 57600, Note_on_c, 0, 57, 70
2, 57725, Note_off_c, 0, 57, 70
2, 58080, Note_on_c, 0, 55, 95
2, 58560, Note_off_c, 0, 55, 95
2, 58560, Note_on_c, 0, 57, 70
2, 58685, Note_off_c, 0, 57, 70
2, 59040, Note_on_c, 0, 45, 47
2, 59165, Note_off_c, 0, 45, 47
2, 59520, Note_on_c, 0, 65, 95
2, 59520, Note_on_c, 0, 53, 95
2, 60960, Note_off_c, 0, 65, 95
2, 60960, Note_off_c, 0, 53, 95
2, 60960, Note_on_c, 1, 64, 95
2, 60960, Note_on_c, 1, 52, 95
2, 62400, Note_off_c, 1, 64, 95
2, 62400, Note_off_c, 1, 52, 95
2, 63840, Note_on_c, 0, 55, 95
2, 64320, Note_off_c, 0, 55, 95
2, 64320, Note_on_c, 0, 57, 70
2, 64445, Note_off_c, 0, 57, 70
2, 64800, Note_on_c, 0, 55, 95
2, 65280, Note_off_c, 0, 55, 95
2, 65280, Note_on_c, 0, 57, 70
2, 65405, Note_off_c, 0, 57, 70
2, 65760, Note_on_c, 0, 45, 47
2, 65885, Note_off_c, 0, 45, 47
2, 66240, Note_on_c, 0, 45, 47
2, 66365, Note_off_c, 0, 45, 47
2, 66720, Note_on_c, 0, 55, 95
2, 67200, Note_off_c, 0, 55, 95
2, 67200, Note_on_c, 0, 57, 70
2, 67325, Note_off_c, 0, 57, 70
2, 67680, Note_on_c, 0, 55, 95
2, 68160, Note_off_c, 0, 55, 95
2, 68160, Note_on_c, 0, 57, 70
2, 68285, Note_off_c, 0, 57, 70
2, 68640, Note_on_c, 0, 45, 47
2, 68765, Note_off_c, 0, 45, 47
2, 69120, Note_on_c, 0, 45, 47
2, 69245, Note_off_c, 0, 45, 47
2, 69600, Note_on_c, 0, 45, 47
2, 69725, Note_off_c, 0, 45, 47
2, 70080, Note_on_c, 0, 45, 47
2, 70205, Note_off_c, 0, 45, 47
2, 70560, Note_on_c, 0, 45, 47
2, 70685, Note_off_c, 0, 45, 47
2, 71040, Note_on_c, 0, 45, 47
2, 71165, Note_off_c, 0, 45, 47
2, 71520, Note_on_c, 0, 55, 95
2, 72000, Note_off_c, 0, 55, 95
2, 72000, Note_on_c, 0, 57, 70
2, 72125, Note_off_c, 0, 57, 70
2, 72480, Note_on_c, 0, 55, 95
2, 72960, Note_off_c, 0, 55, 95
2, 72960, Note_on_c, 0, 57, 70
2, 73085, Note_off_c, 0, 57, 70
2, 73440, Note_on_c, 0, 45, 47
2, 73565, Note_off_c, 0, 45, 47
2, 73920, Note_on_c, 0, 45, 47
2, 74045, Note_off_c, 0, 45, 47
2, 74400, Note_on_c, 0, 55, 95
2, 74880, Note_off_c, 0, 55, 95
2, 74880, Note_on_c, 0, 57, 70
2, 75005, Note_off_c, 0, 57, 70
2, 75360, Note_on_c, 0, 55, 95
2, 75840, Note_off_c, 0, 55, 95
2, 75840, Note_on_c, 0, 57, 70
2, 75965, Note_off_c, 0, 57, 70
2, 76320, Note_on_c, 0, 45, 47
2, 76445, Note_off_c, 0, 45, 47
2, 76800, Note_on_c, 0, 65, 95
2, 76800, Note_on_c, 0, 53, 95
2, 78240, Note_off_c, 0, 65, 95
2, 78240, Note_off_c, 0, 53, 95
2, 78240, Note_on_c, 1, 64, 95
2, 78240, Note_on_c, 1, 52, 95
2, 79680, Note_off_c, 1, 64, 95
2, 79680, Note_off_c, 1, 52, 95
2, 81120, Note_on_c, 0, 55, 95
2, 81600, Note_off_c, 0, 55, 95
2, 81600, Note_on_c, 0, 57, 70
2, 81725, Note_off_c, 0, 57, 70
2, 82080, Note_on_c, 0, 55, 95
2, 82560, Note_off_c, 0, 55, 95
2, 82560, Note_on_c, 0, 57, 70
2, 82685, Note_off_c, 0, 57, 70
2, 83040, Note_on_c, 0, 45, 47
2, 83165, Note_off_c, 0, 45, 47
2, 83520, Note_on_c, 0, 45, 47
2, 83645, Note_off_c, 0, 45, 47
2, 84000, Note_on_c, 0, 55, 95
2, 84480, Note_off_c, 0, 55, 95
2, 84480, Note_on_c, 0, 57, 70
2, 84605, Note_off_c, 0, 57, 70
2, 84960, Note_on_c, 0, 55, 95
2, 85440, Note_off_c, 0, 55, 95
2, 85440, Note_on_c, 0, 57, 70
2, 85565, Note_off_c, 0, 57, 70
2, 85920, Note_on_c, 0, 45, 47
2, 86045, Note_off_c, 0, 45, 47
2, 86400, Note_on_c, 0, 45, 47
2, 86525, Note_off_c, 0, 45, 47
2, 86880, Note_on_c, 0, 45, 47
2, 87005, Note_off_c, 0, 45, 47
2, 87360, Note_on_c, 0, 45, 47
2, 87485, Note_off_c, 0, 45, 47
2, 87840, Note_on_c, 0, 45, 47
2, 87965, Note_off_c, 0, 45, 47
2, 88320, Note_on_c, 0, 45, 47
2, 88445, Note_off_c, 0, 45, 47
2, 88800, Note_on_c, 0, 55, 95
2, 89280, Note_off_c, 0, 55, 95
2, 89280, Note_on_c, 0, 57, 70
2, 89405, Note_off_c, 0, 57, 70
2, 89760, Note_on_c, 0, 55, 95
2, 90240, Note_off_c, 0, 55, 95
2, 90240, Note_on_c, 0, 57, 70
2, 90365, Note_off_c, 0, 57, 70
2, 90720, Note_on_c, 0, 45, 47
2, 90845, Note_off_c, 0, 45, 47
2, 91200, Note_on_c, 0, 45, 47
2, 91325, Note_off_c, 0, 45, 47
2, 91680, Note_on_c, 0, 55, 95
2, 92160, Note_off_c, 0, 55, 95
2, 92160, Note_on_c, 0, 57, 70
2, 92285, Note_off_c, 0, 57, 70
2, 92640, Note_on_c, 0, 55, 95
2, 93120, Note_off_c, 0, 55, 95
2, 93120, Note_on_c, 0, 57, 70
2, 93245, Note_off_c, 0, 57, 70
2, 93600, Note_on_c, 0, 45, 47
2, 93725, Note_off_c, 0, 45, 47
2, 94080, Note_on_c, 0, 65, 95
2, 94080, Note_on_c, 0, 53, 95
2, 95520, Note_off_c, 0, 65, 95
2, 95520, Note_off_c, 0, 53, 95
2, 95520, Note_on_c, 1, 64, 95
2, 95520, Note_on_c, 1, 52, 95
2, 96960, Note_off_c, 1, 64, 95
2, 96960, Note_off_c, 1, 52, 95
2, 98400, Note_on_c, 0, 55, 95
2, 98880, Note_off_c, 0, 55, 95
2, 98880, Note_on_c, 0, 57, 70
2, 99005, Note_off_c, 0, 57, 70
2, 99360, Note_on_c, 0, 55, 95
2, 99840, Note_off_c, 0, 55, 95
2, 99840, Note_on_c, 0, 57, 70
2, 99965, Note_off_c, 0, 57, 70
2, 100320, Note_on_c, 0, 45, 47
2, 100445, Note_off_c, 0, 45, 47
2, 100800, Note_on_c, 0, 45, 47
2, 100925, Note_off_c, 0, 45, 47
2, 101280, Note_on_c, 0, 55, 95
2, 101760, Note_off_c, 0, 55, 95
2, 101760, Note_on_c, 0, 57, 70
2, 101885, Note_off_c, 0, 57, 70
2, 102240, Note_on_c, 0, 55, 95
2, 102720, Note_off_c, 0, 55, 95
2, 102720, Note_on_c, 0, 57, 70
2, 102845, Note_off_c, 0, 57, 70
2, 103200, Note_on_c, 0, 45, 47
2, 103325, Note_off_c, 0, 45, 47
2, 103680, Note_on_c, 0, 45, 47
2, 103805, Note_off_c, 0, 45, 47
2, 104160, Note_on_c, 0, 45, 47
2, 104285, Note_off_c, 0, 45, 47
2, 104640, Note_on_c, 0, 45, 47
2, 104765, Note_off_c, 0, 45, 47
2, 105120, Note_on_c, 0, 45, 47
2, 105245, Note_off_c, 0, 45, 47
2, 105600, Note_on_c, 0, 45, 47
2, 105725, Note_off_c, 0, 45, 47
2, 106080, Note_on_c, 0, 55, 95
2, 106560, Note_off_c, 0, 55, 95
2, 106560, Note_on_c, 0, 57, 70
2, 106685, Note_off_c, 0, 57, 70
2, 107040, Note_on_c, 0, 55, 95
2, 107520, Note_off_c, 0, 55, 95
2, 107520, Note_on_c, 0, 57, 70
2, 107645, Note_off_c, 0, 57, 70
2, 108000, Note_on_c, 0, 45, 47
2, 108125, Note_off_c, 0, 45, 47
2, 108480, Note_on_c, 0, 45, 47
2, 108605, Note_off_c, 0, 45, 47
2, 108960, Note_on_c, 0, 55, 95
2, 109440, Note_off_c, 0, 55, 95
2, 109440, Note_on_c, 0, 57, 70
2, 109565, Note_off_c, 0, 57, 70
2, 109920, Note_on_c, 0, 55, 95
2, 110400, Note_off_c, 0, 55, 95
2, 110400, Note_on_c, 0, 57, 70
2, 110525, Note_off_c, 0, 57, 70
2, 110880, Note_on_c, 0, 45, 47
2, 111005, Note_off_c, 0, 45, 47
2, 111360, Note_on_c, 0, 65, 95
2, 111360, Note_on_c, 0, 53, 95
2, 112800, Note_off_c, 0, 65, 95
2, 112800, Note_off_c, 0, 53, 95
2, 112800, Note_on_c, 1, 64, 95
2, 112800, Note_on_c, 1, 52, 95
2, 114240, Note_off_c, 1, 64, 95
2, 114240, Note_off_c, 1, 52, 95
2, 115680, Note_on_c, 0, 55, 95
2, 116160, Note_off_c, 0, 55, 95
2, 116160, Note_on_c, 0, 57, 70
2, 116285, Note_off_c, 0, 57, 70
2, 116640, Note_on_c, 0, 55, 95
2, 117120, Note_off_c, 0, 55, 95
2, 117120, Note_on_c, 0, 57, 70
2, 117245, Note_off_c, 0, 57, 70
2, 117600, Note_on_c, 0, 45, 47
2, 117725, Note_off_c, 0, 45, 47
2, 118080, Note_on_c, 0, 45, 47
2, 118205, Note_off_c, 0, 45, 47
2, 118560, Note_on_c, 0, 55, 95
2, 119040, Note_off_c, 0, 55, 95
2, 119040, Note_on_c, 0, 57, 70
2, 119165, Note_off_c, 0, 57, 70
2, 119520, Note_on_c, 0, 55, 95
2, 120000, Note_off_c, 0, 55, 95
2, 120000, Note_on_c, 0, 57, 70
2, 120125, Note_off_c, 0, 57, 70
2, 120480, Note_on_c, 0, 45, 47
2, 120605, Note_off_c, 0, 45, 47
2, 120960, Note_on_c, 0, 45, 47
2, 121085, Note_off_c, 0, 45, 47
2, 121440, Note_on_c, 0, 45, 47
2, 121565, Note_off_c, 0, 45, 47
2, 121920, Note_on_c, 0, 45, 47
2, 122045, Note_off_c, 0, 45, 47
2, 122400, Note_on_c, 0, 45, 47
2, 122525, Note_off_c, 0, 45, 47
2, 122880, Note_on_c, 0, 45, 47
2, 123005, Note_off_c, 0, 45, 47
2, 123360, Note_on_c, 0, 55, 95
2, 123840, Note_off_c, 0, 55, 95
2, 123840, Note_on_c, 0, 57, 70
2, 123965, Note_off_c, 0, 57, 70
2, 124320, Note_on_c, 0, 55, 95
2, 124800, Note_off_c, 0, 55, 95
2, 124800, Note_on_c, 0, 57, 70
2, 124925, Note_off_c, 0, 57, 70
2, 125280, Note_on_c, 0, 45, 47
2, 125405, Note_off_c, 0, 45, 47
2, 125760, Note_on_c, 0, 45, 47
2, 125885, Note_off_c, 0, 45, 47
2, 126240, Note_on_c, 0, 55, 95
2, 126720, Note_off_c, 0, 55, 95
2, 126720, Note_on_c, 0, 57, 70
2, 126845, Note_off_c, 0, 57, 70
2, 127200, Note_on_c, 0, 55, 95
2, 127680, Note_off_c, 0, 55, 95
2, 127680, Note_on_c, 0, 57, 70
2, 127805, Note_off_c, 0, 57, 70
2, 128160, Note_on_c, 0, 45, 47
2, 128285, Note_off_c, 0, 45, 47
2, 128640, Note_on_c, 0, 65, 95
2, 128640, Note_on_c, 0, 53, 95
2, 130080, Note_off_c, 0, 65, 95
2, 130080, Note_off_c, 0, 53, 95
2, 130080, Note_on_c, 1, 64, 95
2, 130080, Note_on_c, 1, 52, 95
2, 131520, Note_off_c, 1, 64, 95
2, 131520, Note_off_c, 1, 52, 95
2, 132960, Note_on_c, 0, 55, 95
2, 133440, Note_off_c, 0, 55, 95
2, 133440, Note_on_c, 0, 57, 70
2, 133565, Note_off_c, 0, 57, 70
2, 133920, Note_on_c, 0, 55, 95
2, 134400, Note_off_c, 0, 55, 95
2, 134400, Note_on_c, 0, 57, 70
2, 134525, Note_off_c, 0, 57, 70
2, 134880, Note_on_c, 0, 45, 47
2, 135005, Note_off_c, 0, 45, 47
2, 135360, Note_on_c, 0, 45, 47
2, 135485, Note_off_c, 0, 45, 47
2, 135840, Note_on_c, 0, 55, 95
2, 136320, Note_off_c, 0, 55, 95
2, 136320, Note_on_c, 0, 57, 70
2, 136445, Note_off_c, 0, 57, 70
2, 136800, Note_on_c, 0, 55, 95
2, 137280, Note_off_c, 0, 55, 95
2, 137280, Note_on_c, 0, 57, 70
2, 137405, Note_off_c, 0, 57, 70
2, 137760, Note_on_c, 0, 45, 47
2, 137885, Note_off_c, 0, 45, 47
2, 138240, Note_on_c, 0, 45, 47
2, 138365, Note_off_c, 0, 45, 47
2, 138720, Note_on_c, 0, 45, 47
2, 138845, Note_off_c, 0, 45, 47
2, 139200, Note_on_c, 0, 45, 47
2, 139325, Note_off_c, 0, 45, 47
2, 139680, Note_on_c, 0, 45, 47
2, 139805, Note_off_c, 0, 45, 47
2, 140160, Note_on_c, 0, 45, 47
2, 140285, Note_off_c, 0, 45, 47
2, 140640, Note_on_c, 0, 55, 95
2, 141120, Note_off_c, 0, 55, 95
2, 141120, Note_on_c, 0, 57, 70
2, 141245, Note_off_c, 0, 57, 70
2, 141600, Note_on_c, 0, 55, 95
2, 142080, Note_off_c, 0, 55, 95
2, 142080, Note_on_c, 0, 57, 70
2, 142205, Note_off_c, 0, 57, 70
2, 142560, Note_on_c, 0, 45, 47
2, 142685, Note_off_c, 0, 45, 47
2, 143040, Note_on_c, 0, 45, 47
2, 143165, Note_off_c, 0, 45, 47
2, 143520, Note_on_c, 0, 55, 95
2, 144000, Note_off_c, 0, 55, 95
2, 144000, Note_on_c, 0, 57, 70
2, 144125, Note_off_c, 0, 57, 70
2, 144480, Note_on_c, 0, 55, 95
2, 144960, Note_off_c, 0, 55, 95
2, 144960, Note_on_c, 0, 57, 70
2, 145085, Note_off_c, 0, 57, 70
2, 145440, Note_on_c, 0, 45, 47
2, 145565, Note_off_c, 0, 45, 47
2, 145920, Note_on_c, 0, 65, 95
2, 145920, Note_on_c, 0, 53, 95
2, 147360, Note_off_c, 0, 65, 95
2, 147360, Note_off_c, 0, 53, 95
2, 147360, Note_on_c, 1, 64, 95
2, 147360, Note_on_c, 1, 52, 95
2, 147480, Pitch_bend_c, 1, 8064
2, 147600, Pitch_bend_c, 1, 7808
2, 147720, Pitch_bend_c, 1, 7552
2, 147840, Pitch_bend_c, 1, 7296
2, 147960, Pitch_bend_c, 1, 7040
2, 148080, Pitch_bend_c, 1, 6784
2, 148200, Pitch_bend_c, 1, 6656
2, 148320, Pitch_bend_c, 1, 6400
2, 148440, Pitch_bend_c, 1, 6144
2, 148560, Pitch_bend_c, 1, 5888
2, 148680, Pitch_bend_c, 1, 5632
2, 148800, Note_off_c, 1, 64, 95
2, 148800, Pitch_bend_c, 1, 5376
2, 148800, Pitch_bend_c, 1, 8192
2, 148800, Note_off_c, 1, 52, 95
2, 148800, Note_on_c, 0, 48, 95
2, 149280, Note_off_c, 0, 48, 95
2, 149760, Note_on_c, 0, 48, 95
2, 150240, Note_off_c, 0, 48, 95
2, 150240, Note_on_c, 0, 47, 95
2, 150720, Note_off_c, 0, 47, 95
2, 150720, Note_on_c, 0, 45, 95
2, 151200, Note_off_c, 0, 45, 95
2, 151680, Note_on_c, 0, 57, 95
2, 152640, Note_off_c, 0, 57, 95
2, 152640, Note_on_c, 0, 57, 95
2, 153120, Note_off_c, 0, 57, 95
2, 153120, Note_on_c, 0, 55, 95
2, 153600, Note_off_c, 0, 55, 95
2, 153600, Note_on_c, 1, 51, 95
2, 153720, Pitch_bend_c, 1, 7936
2, 153840, Pitch_bend_c, 1, 7552
2, 153960, Pitch_bend_c, 1, 7168
2, 154080, Pitch_bend_c, 1, 6784
2, 154200, Pitch_bend_c, 1, 6528
2, 154320, Pitch_bend_c, 1, 6144
2, 154440, Pitch_bend_c, 1, 5760
2, 154560, Pitch_bend_c, 1, 5376
2, 154680, Pitch_bend_c, 1, 5120
2, 154800, Pitch_bend_c, 1, 4736
2, 154920, Pitch_bend_c, 1, 4352
2, 155040, Pitch_bend_c, 1, 3968
2, 155040, Pitch_bend_c, 1, 8192
2, 155040, Note_off_c, 1, 51, 95
2, 155040, Note_on_c, 0, 45, 95
2, 155520, Note_off_c, 0, 45, 95
2, 155520, Note_on_c, 0, 48, 95
2, 156480, Note_off_c, 0, 48, 95
2, 156480, Note_on_c, 0, 49, 95
2, 156960, Note_off_c, 0, 49, 95
2, 156960, Note_on_c, 0, 50, 95
2, 157440, Note_off_c, 0, 50, 95
2, 157440, Note_on_c, 0, 50, 95
2, 157920, Note_off_c, 0, 50, 95
2, 157920, Note_on_c, 0, 45, 95
2, 158880, Note_off_c, 0, 45, 95
2, 158880, Note_on_c, 0, 45, 47
2, 159360, Note_off_c, 0, 45, 47
2, 159360, Note_on_c, 0, 57, 95
2, 160320, Note_off_c, 0, 57, 95
2, 160320, Note_on_c, 0, 57, 95
2, 160800, Note_off_c, 0, 57, 95
2, 160800, Note_on_c, 0, 55, 95
2, 161280, Note_off_c, 0, 55, 95
2, 161280, Note_on_c, 1, 51, 95
2, 161400, Pitch_bend_c, 1, 7936
2, 161520, Pitch_bend_c, 1, 7552
2, 161640, Pitch_bend_c, 1, 7168
2, 161760, Pitch_bend_c, 1, 6784
2, 161880, Pitch_bend_c, 1, 6528
2, 162000, Pitch_bend_c, 1, 6144
2, 162120, Pitch_bend_c, 1, 5760
2, 162240, Pitch_bend_c, 1, 5376
2, 162360, Pitch_bend_c, 1, 5120
2, 162480, Pitch_bend_c, 1, 4736
2, 162600, Pitch_bend_c, 1, 4352
2, 162720, Pitch_bend_c, 1, 3968
2, 162720, Pitch_bend_c, 1, 8192
2, 162720, Note_off_c, 1, 51, 95
2, 162720, Note_on_c, 0, 45, 95
2, 163200, Note_off_c, 0, 45, 95
2, 163200, Note_on_c, 0, 48, 95
2, 164160, Note_off_c, 0, 48, 95
2, 164160, Note_on_c, 0, 49, 95
2, 164640, Note_off_c, 0, 49, 95
2, 164640, Note_on_c, 0, 50, 95
2, 165120, Note_off_c, 0, 50, 95
2, 165120, Note_on_c, 0, 50, 95
2, 165600, Note_off_c, 0, 50, 95
2, 165600, Note_on_c, 0, 45, 95
2, 166560, Note_off_c, 0, 45, 95
2, 166560, Note_on_c, 0, 45, 47
2, 167040, Note_off_c, 0, 45, 47
2, 167040, Note_on_c, 0, 57, 95
2, 168000, Note_off_c, 0, 57, 95
2, 168000, Note_on_c, 0, 57, 95
2, 168480, Note_off_c, 0, 57, 95
2, 168480, Note_on_c, 0, 55, 95
2, 168960, Note_off_c, 0, 55, 95
2, 168960, Note_on_c, 1, 51, 95
2, 169080, Pitch_bend_c, 1, 7936
2, 169200, Pitch_bend_c, 1, 7552
2, 169320, Pitch_bend_c, 1, 7168
2, 169440, Pitch_bend_c, 1, 6784
2, 169560, Pitch_bend_c, 1, 6528
2, 169680, Pitch_bend_c, 1, 6144
2, 169800, Pitch_bend_c, 1, 5760
2, 169920, Pitch_bend_c, 1, 5376
2, 170040, Pitch_bend_c, 1, 5120
2, 170160, Pitch_bend_c, 1, 4736
2, 170280, Pitch_bend_c, 1, 4352
2, 170400, Pitch_bend_c, 1, 3968
2, 170400, Pitch_bend_c, 1, 8192
2, 170400, Note_off_c, 1, 51, 95
2, 170400, Note_on_c, 0, 45, 95
2, 170880, Note_off_c, 0, 45, 95
2, 170880, Note_on_c, 0, 48, 95
2, 171840, Note_off_c, 0, 48, 95
2, 171840, Note_on_c, 0, 49, 95
2, 172320, Note_off_c, 0, 49, 95
2, 172320, Note_on_c, 0, 50, 95
2, 172800, Note_off_c, 0, 50, 95
2, 172800, Note_on_c, 0, 50, 95
2, 173280, Note_off_c, 0, 50, 95
2, 173280, Note_on_c, 0, 45, 95
2, 174240, Note_off_c, 0, 45, 95
2, 174240, Note_on_c, 0, 45, 47
2, 174720, Note_off_c, 0, 45, 47
2, 174720, Note_on_c, 0, 57, 95
2, 175680, Note_off_c, 0, 57, 95
2, 175680, Note_on_c, 0, 57, 95
2, 176160, Note_off_c, 0, 57, 95
2, 176160, Note_on_c, 0, 55, 95
2, 176640, Note_off_c, 0, 55, 95
2, 176640, Note_on_c, 1, 51, 95
2, 176760, Pitch_bend_c, 1, 7936
2, 176880, Pitch_bend_c, 1, 7552
2, 177000, Pitch_bend_c, 1, 7168
2, 177120, Pitch_bend_c, 1, 6784
2, 177240, Pitch_bend_c, 1, 6528
2, 177360, Pitch_bend_c, 1, 6144
2, 177480, Pitch_bend_c, 1, 5760
2, 177600, Pitch_bend_c, 1, 5376
2, 177720, Pitch_bend_c, 1, 5120
2, 177840, Pitch_bend_c, 1, 4736
2, 177960, Pitch_bend_c, 1, 4352
2, 178080, Pitch_bend_c, 1, 3968
2, 178080, Pitch_bend_c, 1, 8192
2, 178080, Note_off_c, 1, 51, 95
2, 178080, Note_on_c, 0, 45, 95
2, 178560, Note_off_c, 0, 45, 95
2, 178560, Note_on_c, 0, 48, 95
2, 179520, Note_off_c, 0, 48, 95
2, 179520, Note_on_c, 0, 49, 95
2, 180000, Note_off_c, 0, 49, 95
2, 180000, Note_on_c, 0, 50, 95
2, 180480, Note_off_c, 0, 50, 95
2, 180480, Note_on_c, 0, 50, 95
2, 180960, Note_off_c, 0, 50, 95
2, 180960, Note_on_c, 0, 45, 95
2, 181920, Note_off_c, 0, 45, 95
2, 181920, Note_on_c, 0, 45, 47
2, 182400, Note_off_c, 0, 45, 47
2, 182400, Note_on_c, 0, 57, 95
2, 182525, Note_off_c, 0, 57, 95
2, 182880, Note_on_c, 0, 57, 95
2, 183005, Note_off_c, 0, 57, 95
2, 183360, Note_on_c, 0, 57, 95
2, 183485, Note_off_c, 0, 57, 95
2, 183840, Note_on_c, 0, 55, 95
2, 184320, Note_off_c, 0, 55, 95
2, 184320, Note_on_c, 0, 57, 70
2, 184445, Note_off_c, 0, 57, 70
2, 184800, Note_on_c, 0, 45, 47
2, 184925, Note_off_c, 0, 45, 47
2, 185280, Note_on_c, 0, 45, 47
2, 185405, Note_off_c, 0, 45, 47
2, 185760, Note_on_c, 0, 55, 95
2, 186240, Note_off_c, 0, 55, 95
2, 186240, Note_on_c, 0, 57, 70
2, 186365, Note_off_c, 0, 57, 70
2, 186720, Note_on_c, 0, 55, 95
2, 187200, Note_off_c, 0, 55, 95
2, 187200, Note_on_c, 0, 57, 70
2, 187325, Note_off_c, 0, 57, 70
2, 187680, Note_on_c, 0, 45, 47
2, 187805, Note_off_c, 0, 45, 47
2, 188160, Note_on_c, 0, 45, 47
2, 188285, Note_off_c, 0, 45, 47
2, 188640, Note_on_c, 0, 45, 47
2, 188765, Note_off_c, 0, 45, 47
2, 189120, Note_on_c, 0, 45, 47
2, 189245, Note_off_c, 0, 45, 47
2, 189600, Note_on_c, 0, 45, 47
2, 189725, Note_off_c, 0, 45, 47
2, 190080, Note_on_c, 0, 45, 47
2, 190205, Note_off_c, 0, 45, 47
2, 190560, Note_on_c, 0, 55, 95
2, 191040, Note_off_c, 0, 55, 95
2, 191040, Note_on_c, 0, 57, 70
2, 191165, Note_off_c, 0, 57, 70
2, 191520, Note_on_c, 0, 55, 95
2, 192000, Note_off_c, 0, 55, 95
2, 192000, Note_on_c, 0, 57, 70
2, 192125, Note_off_c, 0, 57, 70
2, 192480, Note_on_c, 0, 45, 47
2, 192605, Note_off_c, 0, 45, 47
2, 192960, Note_on_c, 0, 45, 47
2, 193085, Note_off_c, 0, 45, 47
2, 193440, Note_on_c, 0, 55, 95
2, 193920, Note_off_c, 0, 55, 95
2, 193920, Note_on_c, 0, 57, 70
2, 194045, Note_off_c, 0, 57, 70
2, 194400, Note_on_c, 0, 55, 95
2, 194880, Note_off_c, 0, 55, 95
2, 194880, Note_on_c, 0, 57, 70
2, 195005, Note_off_c, 0, 57, 70
2, 195360, Note_on_c, 0, 45, 47
2, 195485, Note_off_c, 0, 45, 47
2, 195840, Note_on_c, 0, 65, 95
2, 195840, Note_on_c, 0, 53, 95
2, 197280, Note_off_c, 0, 65, 95
2, 197280, Note_off_c, 0, 53, 95
2, 197280, Note_on_c, 1, 64, 95
2, 197280, Note_on_c, 1, 52, 95
2, 198720, Note_off_c, 1, 64, 95
2, 198720, Note_off_c, 1, 52, 95
2, 200160, Note_on_c, 0, 55, 95
2, 200640, Note_off_c, 0, 55, 95
2, 200640, Note_on_c, 0, 57, 70
2, 200765, Note_off_c, 0, 57, 70
2, 201120, Note_on_c, 0, 55, 95
2, 201600, Note_off_c, 0, 55, 95
2, 201600, Note_on_c, 0, 57, 70
2, 201725, Note_off_c, 0, 57, 70
2, 202080, Note_on_c, 0, 45, 47
2, 202205, Note_off_c, 0, 45, 47
2, 202560, Note_on_c, 0, 45, 47
2, 202685, Note_off_c, 0, 45, 47
2, 203040, Note_on_c, 0, 55, 95
2, 203520, Note_off_c, 0, 55, 95
2, 203520, Note_on_c, 0, 57, 70
2, 203645, Note_off_c, 0, 57, 70
2, 204000, Note_on_c, 0, 55, 95
2, 204480, Note_off_c, 0, 55, 95
2, 204480, Note_on_c, 0, 57, 70
2, 204605, Note_off_c, 0, 57, 70
2, 204960, Note_on_c, 0, 45, 47
2, 205085, Note_off_c, 0, 45, 47
2, 205440, Note_on_c, 0, 45, 47
2, 205565, Note_off_c, 0, 45, 47
2, 205920, Note_on_c, 0, 45, 47
2, 206045, Note_off_c, 0, 45, 47
2, 206400, Note_on_c, 0, 45, 47
2, 206525, Note_off_c, 0, 45, 47
2, 206880, Note_on_c, 0, 45, 47
2, 207005, Note_off_c, 0, 45, 47
2, 207360, Note_on_c, 0, 45, 47
2, 207485, Note_off_c, 0, 45, 47
2, 207840, Note_on_c, 0, 55, 95
2, 208320, Note_off_c, 0, 55, 95
2, 208320, Note_on_c, 0, 57, 70
2, 208445, Note_off_c, 0, 57, 70
2, 208800, Note_on_c, 0, 55, 95
2, 209280, Note_off_c, 0, 55, 95
2, 209280, Note_on_c, 0, 57, 70
2, 209405, Note_off_c, 0, 57, 70
2, 209760, Note_on_c, 0, 45, 47
2, 209885, Note_off_c, 0, 45, 47
2, 210240, Note_on_c, 0, 45, 47
2, 210365, Note_off_c, 0, 45, 47
2, 210720, Note_on_c, 0, 55, 95
2, 211200, Note_off_c, 0, 55, 95
2, 211200, Note_on_c, 0, 57, 70
2, 211325, Note_off_c, 0, 57, 70
2, 211680, Note_on_c, 0, 55, 95
2, 212160, Note_off_c, 0, 55, 95
2, 212160, Note_on_c, 0, 57, 70
2, 212285, Note_off_c, 0, 57, 70
2, 212640, Note_on_c, 0, 45, 47
2, 212765, Note_off_c, 0, 45, 47
2, 213120, Note_on_c, 0, 65, 95
2, 213120, Note_on_c, 0, 53, 95
2, 214560, Note_off_c, 0, 65, 95
2, 214560, Note_off_c, 0, 53, 95
2, 214560, Note_on_c, 1, 64, 95
2, 214560, Note_on_c, 1, 52, 95
2, 216000, Note_off_c, 1, 64, 95
2, 216000, Note_off_c, 1, 52, 95
2, 217440, Note_on_c, 0, 55, 95
2, 217920, Note_off_c, 0, 55, 95
2, 217920, Note_on_c, 0, 57, 70
2, 218045, Note_off_c, 0, 57, 70
2, 218400, Note_on_c, 0, 55, 95
2, 218880, Note_off_c, 0, 55, 95
2, 218880, Note_on_c, 0, 57, 70
2, 219005, Note_off_c, 0, 57, 70
2, 219360, Note_on_c, 0, 45, 47
2, 219485, Note_off_c, 0, 45, 47
2, 219840, Note_on_c, 0, 45, 47
2, 219965, Note_off_c, 0, 45, 47
2, 220320, Note_on_c, 0, 55, 95
2, 220800, Note_off_c, 0, 55, 95
2, 220800, Note_on_c, 0, 57, 70
2, 220925, Note_off_c, 0, 57, 70
2, 221280, Note_on_c, 0, 55, 95
2, 221760, Note_off_c, 0, 55, 95
2, 221760, Note_on_c, 0, 57, 70
2, 221885, Note_off_c, 0, 57, 70
2, 222240, Note_on_c, 0, 45, 47
2, 222365, Note_off_c, 0, 45, 47
2, 222720, Note_on_c, 0, 45, 47
2, 222845, Note_off_c, 0, 45, 47
2, 223200, Note_on_c, 0, 45, 47
2, 223325, Note_off_c, 0, 45, 47
2, 223680, Note_on_c, 0, 45, 47
2, 223805, Note_off_c, 0, 45, 47
2, 224160, Note_on_c, 0, 45, 47
2, 224285, Note_off_c, 0, 45, 47
2, 224640, Note_on_c, 0, 45, 47
2, 224765, Note_off_c, 0, 45, 47
2, 225120, Note_on_c, 0, 55, 95
2, 225600, Note_off_c, 0, 55, 95
2, 225600, Note_on_c, 0, 57, 70
2, 225725, Note_off_c, 0, 57, 70
2, 226080, Note_on_c, 0, 55, 95
2, 226560, Note_off_c, 0, 55, 95
2, 226560, Note_on_c, 0, 57, 70
2, 226685, Note_off_c, 0, 57, 70
2, 227040, Note_on_c, 0, 45, 47
2, 227165, Note_off_c, 0, 45, 47
2, 227520, Note_on_c, 0, 45, 47
2, 227645, Note_off_c, 0, 45, 47
2, 228000, Note_on_c, 0, 55, 95
2, 228480, Note_off_c, 0, 55, 95
2, 228480, Note_on_c, 0, 57, 70
2, 228605, Note_off_c, 0, 57, 70
2, 228960, Note_on_c, 0, 55, 95
2, 229440, Note_off_c, 0, 55, 95
2, 229440, Note_on_c, 0, 57, 70
2, 229565, Note_off_c, 0, 57, 70
2, 229920, Note_on_c, 0, 45, 47
2, 230045, Note_off_c, 0, 45, 47
2, 230400, Note_on_c, 0, 65, 95
2, 230400, Note_on_c, 0, 53, 95
2, 231840, Note_off_c, 0, 65, 95
2, 231840, Note_off_c, 0, 53, 95
2, 231840, Note_on_c, 1, 64, 95
2, 231840, Note_on_c, 1, 52, 95
2, 233280, Note_off_c, 1, 64, 95
2, 233280, Note_off_c, 1, 52, 95
2, 234720, Note_on_c, 0, 55, 95
2, 235200, Note_off_c, 0, 55, 95
2, 235200, Note_on_c, 0, 57, 70
2, 235325, Note_off_c, 0, 57, 70
2, 235680, Note_on_c, 0, 55, 95
2, 236160, Note_off_c, 0, 55, 95
2, 236160, Note_on_c, 0, 57, 70
2, 236285, Note_off_c, 0, 57, 70
2, 236640, Note_on_c, 0, 45, 47
2, 236765, Note_off_c, 0, 45, 47
2, 237120, Note_on_c, 0, 45, 47
2, 237245, Note_off_c, 0, 45, 47
2, 237600, Note_on_c, 0, 55, 95
2, 238080, Note_off_c, 0, 55, 95
2, 238080, Note_on_c, 0, 57, 70
2, 238205, Note_off_c, 0, 57, 70
2, 238560, Note_on_c, 0, 55, 95
2, 239040, Note_off_c, 0, 55, 95
2, 239040, Note_on_c, 0, 57, 70
2, 239165, Note_off_c, 0, 57, 70
2, 239520, Note_on_c, 0, 45, 47
2, 239645, Note_off_c, 0, 45, 47
2, 240000, Note_on_c, 0, 45, 47
2, 240125, Note_off_c, 0, 45, 47
2, 240480, Note_on_c, 0, 45, 47
2, 240605, Note_off_c, 0, 45, 47
2, 240960, Note_on_c, 0, 45, 47
2, 241085, Note_off_c, 0, 45, 47
2, 241440, Note_on_c, 0, 45, 47
2, 241565, Note_off_c, 0, 45, 47
2, 241920, Note_on_c, 0, 45, 47
2, 242045, Note_off_c, 0, 45, 47
2, 242400, Note_on_c, 0, 55, 95
2, 242880, Note_off_c, 0, 55, 95
2, 242880, Note_on_c, 0, 57, 70
2, 243005, Note_off_c, 0, 57, 70
2, 243360, Note_on_c, 0, 55, 95
2, 243840, Note_off_c, 0, 55, 95
2, 243840, Note_on_c, 0, 57, 70
2, 243965, Note_off_c, 0, 57, 70
2, 244320, Note_on_c, 0, 45, 47
2, 244445, Note_off_c, 0, 45, 47
2, 244800, Note_on_c, 0, 45, 47
2, 244925, Note_off_c, 0, 45, 47
2, 245280, Note_on_c, 0, 55, 95
2, 245760, Note_off_c, 0, 55, 95
2, 245760, Note_on_c, 0, 57, 70
2, 245885, Note_off_c, 0, 57, 70
2, 246240, Note_on_c, 0, 55, 95
2, 246720, Note_off_c, 0, 55, 95
2, 246720, Note_on_c, 0, 57, 70
2, 246845, Note_off_c, 0, 57, 70
2, 247200, Note_on_c, 0, 45, 47
2, 247325, Note_off_c, 0, 45, 47
2, 247680, Note_on_c, 0, 65, 95
2, 247680, Note_on_c, 0, 53, 95
2, 249120, Note_off_c, 0, 65, 95
2, 249120, Note_off_c, 0, 53, 95
2, 249120, Note_on_c, 1, 64, 95
2, 249120, Note_on_c, 1, 52, 95
2, 249240, Pitch_bend_c, 1, 8064
2, 249360, Pitch_bend_c, 1, 7808
2, 249480, Pitch_bend_c, 1, 7552
2, 249600, Pitch_bend_c, 1, 7296
2, 249720, Pitch_bend_c, 1, 7040
2, 249840, Pitch_bend_c, 1, 6784
2, 249960, Pitch_bend_c, 1, 6656
2, 250080, Pitch_bend_c, 1, 6400
2, 250200, Pitch_bend_c, 1, 6144
2, 250320, Pitch_bend_c, 1, 5888
2, 250440, Pitch_bend_c, 1, 5632
2, 250560, Note_off_c, 1, 64, 95
2, 250560, Pitch_bend_c, 1, 5376
2, 250560, Pitch_bend_c, 1, 8192
2, 250560, Note_off_c, 1, 52, 95
2, 250560, Note_on_c, 0, 48, 95
2, 251040, Note_off_c, 0, 48, 95
2, 251520, Note_on_c, 0, 48, 95
2, 252000, Note_off_c, 0, 48, 95
2, 252000, Note_on_c, 0, 47, 95
2, 252480, Note_off_c, 0, 47, 95
2, 252480, Note_on_c, 0, 45, 95
2, 252960, Note_off_c, 0, 45, 95
2, 253440, Note_on_c, 0, 57, 95
2, 254400, Note_off_c, 0, 57, 95
2, 254400, Note_on_c, 0, 57, 95
2, 254880, Note_off_c, 0, 57, 95
2, 254880, Note_on_c, 0, 55, 95
2, 255360, Note_off_c, 0, 55, 95
2, 255360, Note_on_c, 1, 51, 95
2, 255480, Pitch_bend_c, 1, 7936
2, 255600, Pitch_bend_c, 1, 7552
2, 255720, Pitch_bend_c, 1, 7168
2, 255840, Pitch_bend_c, 1, 6784
2, 255960, Pitch_bend_c, 1, 6528
2, 256080, Pitch_bend_c, 1, 6144
2, 256200, Pitch_bend_c, 1, 5760
2, 256320, Pitch_bend_c, 1, 5376
2, 256440, Pitch_bend_c, 1, 5120
2, 256560, Pitch_bend_c, 1, 4736
2, 256680, Pitch_bend_c, 1, 4352
2, 256800, Pitch_bend_c, 1, 3968
2, 256800, Pitch_bend_c, 1, 8192
2, 256800, Note_off_c, 1, 51, 95
2, 256800, Note_on_c, 0, 45, 95
2, 257280, Note_off_c, 0, 45, 95
2, 257280, Note_on_c, 0, 48, 95
2, 258240, Note_off_c, 0, 48, 95
2, 258240, Note_on_c, 0, 49, 95
2, 258720, Note_off_c, 0, 49, 95
2, 258720, Note_on_c, 0, 50, 95
2, 259200, Note_off_c, 0, 50, 95
2, 259200, Note_on_c, 0, 50, 95
2, 259680, Note_off_c, 0, 50, 95
2, 259680, Note_on_c, 0, 45, 95
2, 260640, Note_off_c, 0, 45, 95
2, 260640, Note_on_c, 0, 45, 47
2, 261120, Note_off_c, 0, 45, 47
2, 261120, Note_on_c, 0, 57, 95
2, 262080, Note_off_c, 0, 57, 95
2, 262080, Note_on_c, 0, 57, 95
2, 262560, Note_off_c, 0, 57, 95
2, 262560, Note_on_c, 0, 55, 95
2, 263040, Note_off_c, 0, 55, 95
2, 263040, Note_on_c, 1, 51, 95
2, 263160, Pitch_bend_c, 1, 7936
2, 263280, Pitch_bend_c, 1, 7552
2, 263400, Pitch_bend_c, 1, 7168
2, 263520, Pitch_bend_c, 1, 6784
2, 263640, Pitch_bend_c, 1, 6528
2, 263760, Pitch_bend_c, 1, 6144
2, 263880, Pitch_bend_c, 1, 5760
2, 264000, Pitch_bend_c, 1, 5376
2, 264120, Pitch_bend_c, 1, 5120
2, 264240, Pitch_bend_c, 1, 4736
2, 264360, Pitch_bend_c, 1, 4352
2, 264480, Pitch_bend_c, 1, 3968
2, 264480, Pitch_bend_c, 1, 8192
2, 264480, Note_off_c, 1, 51, 95
2, 264480, Note_on_c, 0, 45, 95
2, 264960, Note_off_c, 0, 45, 95
2, 264960, Note_on_c, 0, 48, 95
2, 265920, Note_off_c, 0, 48, 95
2, 265920, Note_on_c, 0, 49, 95
2, 266400, Note_off_c, 0, 49, 95
2, 266400, Note_on_c, 0, 50, 95
2, 266880, Note_off_c, 0, 50, 95
2, 266880, Note_on_c, 0, 50, 95
2, 267360, Note_off_c, 0, 50, 95
2, 267360, Note_on_c, 0, 45, 95
2, 268320, Note_off_c, 0, 45, 95
2, 268320, Note_on_c, 0, 45, 47
2, 268800, Note_off_c, 0, 45, 47
2, 268800, Note_on_c, 0, 57, 95
2, 269760, Note_off_c, 0, 57, 95
2, 269760, Note_on_c, 0, 57, 95
2, 270240, Note_off_c, 0, 57, 95
2, 270240, Note_on_c, 0, 55, 95
2, 270720, Note_off_c, 0, 55, 95
2, 270720, Note_on_c, 1, 51, 95
2, 270840, Pitch_bend_c, 1, 7936
2, 270960, Pitch_bend_c, 1, 7552
2, 271080, Pitch_bend_c, 1, 7168
2, 271200, Pitch_bend_c, 1, 6784
2, 271320, Pitch_bend_c, 1, 6528
2, 271440, Pitch_bend_c, 1, 6144
2, 271560, Pitch_bend_c, 1, 5760
2, 271680, Pitch_bend_c, 1, 5376
2, 271800, Pitch_bend_c, 1, 5120
2, 271920, Pitch_bend_c, 1, 4736
2, 272040, Pitch_bend_c, 1, 4352
2, 272160, Pitch_bend_c, 1, 3968
2, 272160, Pitch_bend_c, 1, 8192
2, 272160, Note_off_c, 1, 51, 95
2, 272160, Note_on_c, 0, 45, 95
2, 272640, Note_off_c, 0, 45, 95
2, 272640, Note_on_c, 0, 48, 95
2, 273600, Note_off_c, 0, 48, 95
2, 273600, Note_on_c, 0, 49, 95
2, 274080, Note_off_c, 0, 49, 95
2, 274080, Note_on_c, 0, 50, 95
2, 274560, Note_off_c, 0, 50, 95
2, 274560, Note_on_c, 0, 50, 95
2, 275040, Note_off_c, 0, 50, 95
2, 275040, Note_on_c, 0, 45, 95
2, 276000, Note_off_c, 0, 45, 95
2, 276000, Note_on_c, 0, 45, 47
2, 276480, Note_off_c, 0, 45, 47
2, 276480, Note_on_c, 0, 57, 95
2, 277440, Note_off_c, 0, 57, 95
2, 277440, Note_on_c, 0, 57, 95
2, 277920, Note_off_c, 0, 57, 95
2, 277920, Note_on_c, 0, 55, 95
2, 278400, Note_off_c, 0, 55, 95
2, 278400, Note_on_c, 1, 51, 95
2, 278520, Pitch_bend_c, 1, 7936
2, 278640, Pitch_bend_c, 1, 7552
2, 278760, Pitch_bend_c, 1, 7168
2, 278880, Pitch_bend_c, 1, 6784
2, 279000, Pitch_bend_c, 1, 6528
2, 279120, Pitch_bend_c, 1, 6144
2, 279240, Pitch_bend_c, 1, 5760
2, 279360, Pitch_bend_c, 1, 5376
2, 279480, Pitch_bend_c, 1, 5120
2, 279600, Pitch_bend_c, 1, 4736
2, 279720, Pitch_bend_c, 1, 4352
2, 279840, Pitch_bend_c, 1, 3968
2, 279840, Pitch_bend_c, 1, 8192
2, 279840, Note_off_c, 1, 51, 95
2, 279840, Note_on_c, 0, 45, 95
2, 280320, Note_off_c, 0, 45, 95
2, 280320, Note_on_c, 0, 48, 95
2, 281280, Note_off_c, 0, 48, 95
2, 281280, Note_on_c, 0, 49, 95
2, 281760, Note_off_c, 0, 49, 95
2, 281760, Note_on_c, 0, 50, 95
2, 282240, Note_off_c, 0, 50, 95
2, 282240, Note_on_c, 0, 50, 95
2, 282720, Note_off_c, 0, 50, 95
2, 282720, Note_on_c, 0, 45, 95
2, 283680, Note_off_c, 0, 45, 95
2, 283680, Note_on_c, 0, 45, 47
2, 284160, Note_off_c, 0, 45, 47
2, 284160, Note_on_c, 0, 62, 95
2, 284160, Note_on_c, 0, 55, 95
2, 287520, Note_off_c, 0, 62, 95
2, 287520, Note_off_c, 0, 55, 95
2, 287520, Note_on_c, 0, 61, 95
2, 287520, Note_on_c, 0, 54, 95
2, 291840, Note_off_c, 0, 61, 95
2, 291840, Note_off_c, 0, 54, 95
2, 291840, Note_on_c, 0, 57, 95
2, 291840, Note_on_c, 0, 50, 95
2, 295200, Note_off_c, 0, 57, 95
2, 295200, Note_off_c, 0, 50, 95
2, 295200, Note_on_c, 0, 56, 95
2, 295200, Note_on_c, 0, 49, 95
2, 299520, Note_off_c, 0, 56, 95
2, 299520, Note_off_c, 0, 49, 95
2, 299520, Note_on_c, 0, 62, 95
2, 299520, Note_on_c, 0, 55, 95
2, 302880, Note_off_c, 0, 62, 95
2, 302880, Note_off_c, 0, 55, 95
2, 302880, Note_on_c, 0, 61, 95
2, 302880, Note_on_c, 0, 54, 95
2, 307200, Note_off_c, 0, 61, 95
2, 307200, Note_off_c, 0, 54, 95
2, 307200, Note_on_c, 0, 57, 95
2, 307200, Note_on_c, 0, 50, 95
2, 310560, Note_off_c, 0, 57, 95
2, 310560, Note_off_c, 0, 50, 95
2, 310560, Note_on_c, 0, 56, 95
2, 310560, Note_on_c, 0, 49, 95
2, 314880, Note_off_c, 0, 56, 95
2, 314880, Note_off_c, 0, 49, 95
2, 314880, Note_on_c, 0, 62, 95
2, 314880, Note_on_c, 0, 55, 95
2, 318240, Note_off_c, 0, 62, 95
2, 318240, Note_off_c, 0, 55, 95
2, 318240, Note_on_c, 0, 61, 95
2, 318240, Note_on_c, 0, 54, 95
2, 322560, Note_off_c, 0, 61, 95
2, 322560, Note_off_c, 0, 54, 95
2, 322560, Note_on_c, 0, 57, 95
2, 322560, Note_on_c, 0, 50, 95
2, 325920, Note_off_c, 0, 57, 95
2, 325920, Note_off_c, 0, 50, 95
2, 325920, Note_on_c, 0, 56, 95
2, 325920, Note_on_c, 0, 49, 95
2, 330240, Note_off_c, 0, 56, 95
2, 330240, Note_off_c, 0, 49, 95
2, 330240, Note_on_c, 0, 62, 95
2, 330240, Note_on_c, 0, 55, 95
2, 333600, Note_off_c, 0, 62, 95
2, 333600, Note_off_c, 0, 55, 95
2, 333600, Note_on_c, 0, 61, 95
2, 333600, Note_on_c, 0, 54, 95
2, 337920, Note_off_c, 0, 61, 95
2, 337920, Note_off_c, 0, 54, 95
2, 337920, Note_on_c, 0, 57, 95
2, 337920, Note_on_c, 0, 50, 95
2, 341280, Note_off_c, 0, 57, 95
2, 341280, Note_off_c, 0, 50, 95
2, 341280, Note_on_c, 0, 56, 95
2, 341280, Note_on_c, 0, 49, 95
2, 344640, Note_off_c, 0, 56, 95
2, 344640, Note_off_c, 0, 49, 95
2, 344640, Note_on_c, 1, 56, 47
2, 344640, Note_on_c, 1, 49, 47
2, 344760, Pitch_bend_c, 1, 8064
2, 344760, Pitch_bend_c, 1, 8064
2, 344880, Pitch_bend_c, 1, 7936
2, 344880, Pitch_bend_c, 1, 7936
2, 345000, Pitch_bend_c, 1, 7680
2, 345000, Pitch_bend_c, 1, 7680
2, 345120, Pitch_bend_c, 1, 7552
2, 345120, Pitch_bend_c, 1, 7552
2, 345240, Pitch_bend_c, 1, 7424
2, 345240, Pitch_bend_c, 1, 7424
2, 345360, Pitch_bend_c, 1, 7168
2, 345360, Pitch_bend_c, 1, 7168
2, 345480, Pitch_bend_c, 1, 7040
2, 345480, Pitch_bend_c, 1, 7040
2, 345600, Pitch_bend_c, 1, 6784
2, 345600, Pitch_bend_c, 1, 8192
2, 345600, Note_off_c, 1, 56, 47
2, 345600, Pitch_bend_c, 1, 6784
2, 345600, Pitch_bend_c, 1, 8192
2, 345600, Note_off_c, 1, 49, 47
2, 345600, Note_on_c, 0, 54, 95
2, 345600, Note_on_c, 0, 47, 95
2, 346560, Note_off_c, 0, 54, 95
2, 346560, Note_off_c, 0, 47, 95
2, 346560, Note_on_c, 0, 54, 95
2, 346560, Note_on_c, 0, 47, 95
2, 347520, Note_off_c, 0, 54, 95
2, 347520, Note_off_c, 0, 47, 95
2, 347520, Note_on_c, 0, 54, 95
2, 347520, Note_on_c, 0, 47, 95
2, 348480, Note_off_c, 0, 54, 95
2, 348480, Note_off_c, 0, 47, 95
2, 348480, Note_on_c, 0, 54, 95
2, 348480, Note_on_c, 0, 47, 95
2, 349440, Note_off_c, 0, 54, 95
2, 349440, Note_off_c, 0, 47, 95
2, 349440, Note_on_c, 0, 54, 95
2, 349440, Note_on_c, 0, 47, 95
2, 350400, Note_off_c, 0, 54, 95
2, 350400, Note_off_c, 0, 47, 95
2, 350400, Note_on_c, 0, 54, 95
2, 350400, Note_on_c, 0, 47, 95
2, 351360, Note_off_c, 0, 54, 95
2, 351360, Note_off_c, 0, 47, 95
2, 351360, Note_on_c, 0, 54, 95
2, 351360, Note_on_c, 0, 47, 95
2, 352320, Note_off_c, 0, 54, 95
2, 352320, Note_off_c, 0, 47, 95
2, 352320, Note_on_c, 0, 54, 95
2, 352320, Note_on_c, 0, 47, 95
2, 353280, Note_off_c, 0, 54, 95
2, 353280, Note_off_c, 0, 47, 95
2, 353280, Note_on_c, 0, 54, 95
2, 353280, Note_on_c, 0, 47, 95
2, 354240, Note_off_c, 0, 54, 95
2, 354240, Note_off_c, 0, 47, 95
2, 354240, Note_on_c, 0, 54, 95
2, 354240, Note_on_c, 0, 47, 95
2, 355200, Note_off_c, 0, 54, 95
2, 355200, Note_off_c, 0, 47, 95
2, 355200, Note_on_c, 0, 54, 95
2, 355200, Note_on_c, 0, 47, 95
2, 356160, Note_off_c, 0, 54, 95
2, 356160, Note_off_c, 0, 47, 95
2, 356160, Note_on_c, 0, 54, 95
2, 356160, Note_on_c, 0, 47, 95
2, 357120, Note_off_c, 0, 54, 95
2, 357120, Note_off_c, 0, 47, 95
2, 357120, Note_on_c, 0, 54, 95
2, 357120, Note_on_c, 0, 47, 95
2, 358080, Note_off_c, 0, 54, 95
2, 358080, Note_off_c, 0, 47, 95
2, 358080, Note_on_c, 0, 54, 95
2, 358080, Note_on_c, 0, 47, 95
2, 359040, Note_off_c, 0, 54, 95
2, 359040, Note_off_c, 0, 47, 95
2, 359040, Note_on_c, 0, 54, 95
2, 359040, Note_on_c, 0, 47, 95
2, 360000, Note_off_c, 0, 54, 95
2, 360000, Note_off_c, 0, 47, 95
2, 360000, Note_on_c, 1, 54, 95
2, 360000, Note_on_c, 1, 47, 95
2, 360120, Pitch_bend_c, 1, 8064
2, 360240, Pitch_bend_c, 1, 7936
2, 360360, Pitch_bend_c, 1, 7680
2, 360480, Pitch_bend_c, 1, 7552
2, 360600, Pitch_bend_c, 1, 7424
2, 360720, Pitch_bend_c, 1, 7168
2, 360840, Pitch_bend_c, 1, 7040
2, 360960, Pitch_bend_c, 1, 6784
2, 360960, Pitch_bend_c, 1, 8192
2, 360960, Note_off_c, 1, 54, 95
2, 360960, Note_off_c, 1, 47, 95
2, 360960, Note_on_c, 0, 52, 95
2, 361920, Note_off_c, 0, 52, 95
2, 361920, Note_on_c, 0, 52, 95
2, 362400, Note_off_c, 0, 52, 95
2, 362400, Note_on_c, 0, 50, 95
2, 362880, Note_off_c, 0, 50, 95
2, 362880, Note_on_c, 1, 46, 95
2, 363000, Pitch_bend_c, 1, 7936
2, 363120, Pitch_bend_c, 1, 7552
2, 363240, Pitch_bend_c, 1, 7168
2, 363360, Pitch_bend_c, 1, 6784
2, 363480, Pitch_bend_c, 1, 6528
2, 363600, Pitch_bend_c, 1, 6144
2, 363720, Pitch_bend_c, 1, 5760
2, 363840, Pitch_bend_c, 1, 5376
2, 363960, Pitch_bend_c, 1, 5120
2, 364080, Pitch_bend_c, 1, 4736
2, 364200, Pitch_bend_c, 1, 4352
2, 364320, Pitch_bend_c, 1, 3968
2, 364320, Pitch_bend_c, 1, 8192
2, 364320, Note_off_c, 1, 46, 95
2, 364320, Note_on_c, 0, 40, 95
2, 364800, Note_off_c, 0, 40, 95
2, 364800, Note_on_c, 0, 43, 95
2, 365760, Note_off_c, 0, 43, 95
2, 365760, Note_on_c, 0, 44, 95
2, 366240, Note_off_c, 0, 44, 95
2, 366240, Note_on_c, 0, 45, 95
2, 366720, Note_off_c, 0, 45, 95
2, 366720, Note_on_c, 0, 45, 95
2, 367200, Note_off_c, 0, 45, 95
2, 367200, Note_on_c, 0, 40, 95
2, 368160, Note_off_c, 0, 40, 95
2, 368160, Note_on_c, 0, 40, 47
2, 368640, Note_off_c, 0, 40, 47
2, 368640, Note_on_c, 0, 52, 95
2, 369600, Note_off_c, 0, 52, 95
2, 369600, Note_on_c, 0, 52, 95
2, 370080, Note_off_c, 0, 52, 95
2, 370080, Note_on_c, 0, 50, 95
2, 370560, Note_off_c, 0, 50, 95
2, 370560, Note_on_c, 1, 46, 95
2, 370680, Pitch_bend_c, 1, 7936
2, 370800, Pitch_bend_c, 1, 7552
2, 370920, Pitch_bend_c, 1, 7168
2, 371040, Pitch_bend_c, 1, 6784
2, 371160, Pitch_bend_c, 1, 6528
2, 371280, Pitch_bend_c, 1, 6144
2, 371400, Pitch_bend_c, 1, 5760
2, 371520, Pitch_bend_c, 1, 5376
2, 371640, Pitch_bend_c, 1, 5120
2, 371760, Pitch_bend_c, 1, 4736
2, 371880, Pitch_bend_c, 1, 4352
2, 372000, Pitch_bend_c, 1, 3968
2, 372000, Pitch_bend_c, 1, 8192
2, 372000, Note_off_c, 1, 46, 95
2, 372000, Note_on_c, 0, 40, 95
2, 372480, Note_off_c, 0, 40, 95
2, 372480, Note_on_c, 0, 43, 95
2, 373440, Note_off_c, 0, 43, 95
2, 373440, Note_on_c, 0, 44, 95
2, 373920, Note_off_c, 0, 44, 95
2, 373920, Note_on_c, 0, 45, 95
2, 374400, Note_off_c, 0, 45, 95
2, 374400, Note_on_c, 0, 45, 95
2, 374880, Note_off_c, 0, 45, 95
2, 374880, Note_on_c, 0, 40, 95
2, 375840, Note_off_c, 0, 40, 95
2, 375840, Note_on_c, 0, 40, 47
2, 376320, Note_off_c, 0, 40, 47
2, 376320, Note_on_c, 0, 52, 95
2, 377280, Note_off_c, 0, 52, 95
2, 377280, Note_on_c, 0, 52, 95
2, 377760, Note_off_c, 0, 52, 95
2, 377760, Note_on_c, 0, 50, 95
2, 378240, Note_off_c, 0, 50, 95
2, 378240, Note_on_c, 1, 46, 95
2, 378360, Pitch_bend_c, 1, 7936
2, 378480, Pitch_bend_c, 1, 7552
2, 378600, Pitch_bend_c, 1, 7168
2, 378720, Pitch_bend_c, 1, 6784
2, 378840, Pitch_bend_c, 1, 6528
2, 378960, Pitch_bend_c, 1, 6144
2, 379080, Pitch_bend_c, 1, 5760
2, 379200, Pitch_bend_c, 1, 5376
2, 379320, Pitch_bend_c, 1, 5120
2, 379440, Pitch_bend_c, 1, 4736
2, 379560, Pitch_bend_c, 1, 4352
2, 379680, Pitch_bend_c, 1, 3968
2, 379680, Pitch_bend_c, 1, 8192
2, 379680, Note_off_c, 1, 46, 95
2, 379680, Note_on_c, 0, 40, 95
2, 380160, Note_off_c, 0, 40, 95
2, 380160, Note_on_c, 0, 43, 95
2, 381120, Note_off_c, 0, 43, 95
2, 381120, Note_on_c, 0, 44, 95
2, 381600, Note_off_c, 0, 44, 95
2, 381600, Note_on_c, 0, 45, 95
2, 382080, Note_off_c, 0, 45, 95
2, 382080, Note_on_c, 0, 45, 95
2, 382560, Note_off_c, 0, 45, 95
2, 382560, Note_on_c, 0, 40, 95
2, 383520, Note_off_c, 0, 40, 95
2, 383520, Note_on_c, 0, 40, 47
2, 384000, Note_off_c, 0, 40, 47
2, 384000, Note_on_c, 0, 52, 95
2, 384960, Note_off_c, 0, 52, 95
2, 384960, Note_on_c, 0, 52, 95
2, 385440, Note_off_c, 0, 52, 95
2, 385440, Note_on_c, 0, 50, 95
2, 385920, Note_off_c, 0, 50, 95
2, 385920, Note_on_c, 1, 46, 95
2, 386040, Pitch_bend_c, 1, 7936
2, 386160, Pitch_bend_c, 1, 7552
2, 386280, Pitch_bend_c, 1, 7168
2, 386400, Pitch_bend_c, 1, 6784
2, 386520, Pitch_bend_c, 1, 6528
2, 386640, Pitch_bend_c, 1, 6144
2, 386760, Pitch_bend_c, 1, 5760
2, 386880, Pitch_bend_c, 1, 5376
2, 387000, Pitch_bend_c, 1, 5120
2, 387120, Pitch_bend_c, 1, 4736
2, 387240, Pitch_bend_c, 1, 4352
2, 387360, Pitch_bend_c, 1, 3968
2, 387360, Pitch_bend_c, 1, 8192
2, 387360, Note_off_c, 1, 46, 95
2, 387360, Note_on_c, 0, 40, 95
2, 387840, Note_off_c, 0, 40, 95
2, 387840, Note_on_c, 0, 43, 95
2, 388800, Note_off_c, 0, 43, 95
2, 388800, Note_on_c, 0, 44, 95
2, 389280, Note_off_c, 0, 44, 95
2, 389280, Note_on_c, 0, 45, 95
2, 389760, Note_off_c, 0, 45, 95
2, 389760, Note_on_c, 0, 45, 95
2, 390240, Note_off_c, 0, 45, 95
2, 390240, Note_on_c, 0, 40, 95
2, 391200, Note_off_c, 0, 40, 95
2, 391200, Note_on_c, 0, 40, 47
2, 391680, Note_off_c, 0, 40, 47
2, 391680, Note_on_c, 0, 52, 95
2, 391805, Note_off_c, 0, 52, 95
2, 392160, Note_on_c, 0, 52, 95
2, 392285, Note_off_c, 0, 52, 95
2, 392640, Note_on_c, 0, 52, 95
2, 392765, Note_off_c, 0, 52, 95
2, 393120, Note_on_c, 0, 50, 95
2, 393600, Note_off_c, 0, 50, 95
2, 393600, Note_on_c, 0, 52, 70
2, 393725, Note_off_c, 0, 52, 70
2, 394080, Note_on_c, 0, 40, 47
2, 394205, Note_off_c, 0, 40, 47
2, 394560, Note_on_c, 0, 40, 47
2, 394685, Note_off_c, 0, 40, 47
2, 395040, Note_on_c, 0, 50, 95
2, 395520, Note_off_c, 0, 50, 95
2, 395520, Note_on_c, 0, 52, 70
2, 395645, Note_off_c, 0, 52, 70
2, 396000, Note_on_c, 0, 50, 95
2, 396480, Note_off_c, 0, 50, 95
2, 396480, Note_on_c, 0, 52, 70
2, 396605, Note_off_c, 0, 52, 70
2, 396960, Note_on_c, 0, 40, 47
2, 397085, Note_off_c, 0, 40, 47
2, 397440, Note_on_c, 0, 40, 47
2, 397565, Note_off_c, 0, 40, 47
2, 397920, Note_on_c, 0, 40, 47
2, 398045, Note_off_c, 0, 40, 47
2, 398400, Note_on_c, 0, 40, 47
2, 398525, Note_off_c, 0, 40, 47
2, 398880, Note_on_c, 0, 40, 47
2, 399005, Note_off_c, 0, 40, 47
2, 399360, Note_on_c, 0, 40, 47
2, 399485, Note_off_c, 0, 40, 47
2, 399840, Note_on_c, 0, 50, 95
2, 400320, Note_off_c, 0, 50, 95
2, 400320, Note_on_c, 0, 52, 70
2, 400445, Note_off_c, 0, 52, 70
2, 400800, Note_on_c, 0, 50, 95
2, 401280, Note_off_c, 0, 50, 95
2, 401280, Note_on_c, 0, 52, 70
2, 401405, Note_off_c, 0, 52, 70
2, 401760, Note_on_c, 0, 40, 47
2, 401885, Note_off_c, 0, 40, 47
2, 402240, Note_on_c, 0, 40, 47
2, 402365, Note_off_c, 0, 40, 47
2, 402720, Note_on_c, 0, 50, 95
2, 403200, Note_off_c, 0, 50, 95
2, 403200, Note_on_c, 0, 52, 70
2, 403325, Note_off_c, 0, 52, 70
2, 403680, Note_on_c, 0, 50, 95
2, 404160, Note_off_c, 0, 50, 95
2, 404160, Note_on_c, 0, 52, 70
2, 404285, Note_off_c, 0, 52, 70
2, 404640, Note_on_c, 0, 40, 47
2, 404765, Note_off_c, 0, 40, 47
2, 405120, Note_on_c, 0, 60, 95
2, 405120, Note_on_c, 0, 48, 95
2, 406560, Note_off_c, 0, 60, 95
2, 406560, Note_off_c, 0, 48, 95
2, 406560, Note_on_c, 1, 59, 95
2, 406560, Note_on_c, 1, 47, 95
2, 408000, Note_off_c, 1, 59, 95
2, 408000, Note_off_c, 1, 47, 95
2, 409440, Note_on_c, 0, 50, 95
2, 409920, Note_off_c, 0, 50, 95
2, 409920, Note_on_c, 0, 52, 70
2, 410045, Note_off_c, 0, 52, 70
2, 410400, Note_on_c, 0, 50, 95
2, 410880, Note_off_c, 0, 50, 95
2, 410880, Note_on_c, 0, 52, 70
2, 411005, Note_off_c, 0, 52, 70
2, 411360, Note_on_c, 0, 40, 47
2, 411485, Note_off_c, 0, 40, 47
2, 411840, Note_on_c, 0, 40, 47
2, 411965, Note_off_c, 0, 40, 47
2, 412320, Note_on_c, 0, 50, 95
2, 412800, Note_off_c, 0, 50, 95
2, 412800, Note_on_c, 0, 52, 70
2, 412925, Note_off_c, 0, 52, 70
2, 413280, Note_on_c, 0, 50, 95
2, 413760, Note_off_c, 0, 50, 95
2, 413760, Note_on_c, 0, 52, 70
2, 413885, Note_off_c, 0, 52, 70
2, 414240, Note_on_c, 0, 40, 47
2, 414365, Note_off_c, 0, 40, 47
2, 414720, Note_on_c, 0, 40, 47
2, 414845, Note_off_c, 0, 40, 47
2, 415200, Note_on_c, 0, 40, 47
2, 415325, Note_off_c, 0, 40, 47
2, 415680, Note_on_c, 0, 40, 47
2, 415805, Note_off_c, 0, 40, 47
2, 416160, Note_on_c, 0, 40, 47
2, 416285, Note_off_c, 0, 40, 47
2, 416640, Note_on_c, 0, 40, 47
2, 416765, Note_off_c, 0, 40, 47
2, 417120, Note_on_c, 0, 50, 95
2, 417600, Note_off_c, 0, 50, 95
2, 417600, Note_on_c, 0, 52, 70
2, 417725, Note_off_c, 0, 52, 70
2, 418080, Note_on_c, 0, 50, 95
2, 418560, Note_off_c, 0, 50, 95
2, 418560, Note_on_c, 0, 52, 70
2, 418685, Note_off_c, 0, 52, 70
2, 419040, Note_on_c, 0, 40, 47
2, 419165, Note_off_c, 0, 40, 47
2, 419520, Note_on_c, 0, 40, 47
2, 419645, Note_off_c, 0, 40, 47
2, 420000, Note_on_c, 0, 50, 95
2, 420480, Note_off_c, 0, 50, 95
2, 420480, Note_on_c, 0, 52, 70
2, 420605, Note_off_c, 0, 52, 70
2, 420960, Note_on_c, 0, 50, 95
2, 421440, Note_off_c, 0, 50, 95
2, 421440, Note_on_c, 0, 52, 70
2, 421565, Note_off_c, 0, 52, 70
2, 421920, Note_on_c, 0, 40, 47
2, 422045, Note_off_c, 0, 40, 47
2, 422400, Note_on_c, 0, 60, 95
2, 422400, Note_on_c, 0, 48, 95
2, 423840, Note_off_c, 0, 60, 95
2, 423840, Note_off_c, 0, 48, 95
2, 423840, Note_on_c, 1, 59, 95
2, 423840, Note_on_c, 1, 47, 95
2, 425280, Note_off_c, 1, 59, 95
2, 425280, Note_off_c, 1, 47, 95
2, 426720, Note_on_c, 0, 50, 95
2, 427200, Note_off_c, 0, 50, 95
2, 427200, Note_on_c, 0, 52, 70
2, 427325, Note_off_c, 0, 52, 70
2, 427680, Note_on_c, 0, 50, 95
2, 428160, Note_off_c, 0, 50, 95
2, 428160, Note_on_c, 0, 52, 70
2, 428285, Note_off_c, 0, 52, 70
2, 428640, Note_on_c, 0, 40, 47
2, 428765, Note_off_c, 0, 40, 47
2, 429120, Note_on_c, 0, 40, 47
2, 429245, Note_off_c, 0, 40, 47
2, 429600, Note_on_c, 0, 50, 95
2, 430080, Note_off_c, 0, 50, 95
2, 430080, Note_on_c, 0, 52, 70
2, 430205, Note_off_c, 0, 52, 70
2, 430560, Note_on_c, 0, 50, 95
2, 431040, Note_off_c, 0, 50, 95
2, 431040, Note_on_c, 0, 52, 70
2, 431165, Note_off_c, 0, 52, 70
2, 431520, Note_on_c, 0, 40, 47
2, 431645, Note_off_c, 0, 40, 47
2, 432000, Note_on_c, 0, 40, 47
2, 432125, Note_off_c, 0, 40, 47
2, 432480, Note_on_c, 0, 40, 47
2, 432605, Note_off_c, 0, 40, 47
2, 432960, Note_on_c, 0, 40, 47
2, 433085, Note_off_c, 0, 40, 47
2, 433440, Note_on_c, 0, 40, 47
2, 433565, Note_off_c, 0, 40, 47
2, 433920, Note_on_c, 0, 40, 47
2, 434045, Note_off_c, 0, 40, 47
2, 434400, Note_on_c, 0, 50, 95
2, 434880, Note_off_c, 0, 50, 95
2, 434880, Note_on_c, 0, 52, 70
2, 435005, Note_off_c, 0, 52, 70
2, 435360, Note_on_c, 0, 50, 95
2, 435840, Note_off_c, 0, 50, 95
2, 435840, Note_on_c, 0, 52, 70
2, 435965, Note_off_c, 0, 52, 70
2, 436320, Note_on_c, 0, 40, 47
2, 436445, Note_off_c, 0, 40, 47
2, 436800, Note_on_c, 0, 40, 47
2, 436925, Note_off_c, 0, 40, 47
2, 437280, Note_on_c, 0, 50, 95
2, 437760, Note_off_c, 0, 50, 95
2, 437760, Note_on_c, 0, 52, 70
2, 437885, Note_off_c, 0, 52, 70
2, 438240, Note_on_c, 0, 50, 95
2, 438720, Note_off_c, 0, 50, 95
2, 438720, Note_on_c, 0, 52, 70
2, 438845, Note_off_c, 0, 52, 70
2, 439200, Note_on_c, 0, 40, 47
2, 439325, Note_off_c, 0, 40, 47
2, 439680, Note_on_c, 0, 60, 95
2, 439680, Note_on_c, 0, 48, 95
2, 441120, Note_off_c, 0, 60, 95
2, 441120, Note_off_c, 0, 48, 95
2, 441120, Note_on_c, 1, 59, 95
2, 441120, Note_on_c, 1, 47, 95
2, 442560, Note_off_c, 1, 59, 95
2, 442560, Note_off_c, 1, 47, 95
2, 444000, Note_on_c, 0, 50, 95
2, 444480, Note_off_c, 0, 50, 95
2, 444480, Note_on_c, 0, 52, 70
2, 444605, Note_off_c, 0, 52, 70
2, 444960, Note_on_c, 0, 50, 95
2, 445440, Note_off_c, 0, 50, 95
2, 445440, Note_on_c, 0, 52, 70
2, 445565, Note_off_c, 0, 52, 70
2, 445920, Note_on_c, 0, 40, 47
2, 446045, Note_off_c, 0, 40, 47
2, 446400, Note_on_c, 0, 40, 47
2, 446525, Note_off_c, 0, 40, 47
2, 446880, Note_on_c, 0, 50, 95
2, 447360, Note_off_c, 0, 50, 95
2, 447360, Note_on_c, 0, 52, 70
2, 447485, Note_off_c, 0, 52, 70
2, 447840, Note_on_c, 0, 50, 95
2, 448320, Note_off_c, 0, 50, 95
2, 448320, Note_on_c, 0, 52, 70
2, 448445, Note_off_c, 0, 52, 70
2, 448800, Note_on_c, 0, 40, 47
2, 448925, Note_off_c, 0, 40, 47
2, 449280, Note_on_c, 0, 40, 47
2, 449405, Note_off_c, 0, 40, 47
2, 449760, Note_on_c, 0, 40, 47
2, 449885, Note_off_c, 0, 40, 47
2, 450240, Note_on_c, 0, 40, 47
2, 450365, Note_off_c, 0, 40, 47
2, 450720, Note_on_c, 0, 40, 47
2, 450845, Note_off_c, 0, 40, 47
2, 451200, Note_on_c, 0, 40, 47
2, 451325, Note_off_c, 0, 40, 47
2, 451680, Note_on_c, 0, 50, 95
2, 452160, Note_off_c, 0, 50, 95
2, 452160, Note_on_c, 0, 52, 70
2, 452285, Note_off_c, 0, 52, 70
2, 452640, Note_on_c, 0, 50, 95
2, 453120, Note_off_c, 0, 50, 95
2, 453120, Note_on_c, 0, 52, 70
2, 453245, Note_off_c, 0, 52, 70
2, 453600, Note_on_c, 0, 40, 47
2, 453725, Note_off_c, 0, 40, 47
2, 454080, Note_on_c, 0, 40, 47
2, 454205, Note_off_c, 0, 40, 47
2, 454560, Note_on_c, 0, 50, 95
2, 455040, Note_off_c, 0, 50, 95
2, 455040, Note_on_c, 0, 52, 70
2, 455165, Note_off_c, 0, 52, 70
2, 455520, Note_on_c, 0, 50, 95
2, 456000, Note_off_c, 0, 50, 95
2, 456000, Note_on_c, 0, 52, 70
2, 456125, Note_off_c, 0, 52, 70
2, 456480, Note_on_c, 0, 40, 47
2, 456605, Note_off_c, 0, 40, 47
2, 456960, Note_on_c, 0, 60, 95
2, 456960, Note_on_c, 0, 48, 95
2, 458400, Note_off_c, 0, 60, 95
2, 458400, Note_off_c, 0, 48, 95
2, 458400, Note_on_c, 1, 59, 95
2, 458400, Note_on_c, 1, 47, 95
2, 458520, Pitch_bend_c, 1, 8064
2, 458640, Pitch_bend_c, 1, 7808
2, 458760, Pitch_bend_c, 1, 7552
2, 458880, Pitch_bend_c, 1, 7296
2, 459000, Pitch_bend_c, 1, 7040
2, 459120, Pitch_bend_c, 1, 6784
2, 459240, Pitch_bend_c, 1, 6656
2, 459360, Pitch_bend_c, 1, 6400
2, 459480, Pitch_bend_c, 1, 6144
2, 459600, Pitch_bend_c, 1, 5888
2, 459720, Pitch_bend_c, 1, 5632
2, 459840, Note_off_c, 1, 59, 95
2, 459840, Pitch_bend_c, 1, 5376
2, 459840, Pitch_bend_c, 1, 8192
2, 459840, Note_off_c, 1, 47, 95
2, 459840, Note_on_c, 0, 43, 95
2, 460320, Note_off_c, 0, 43, 95
2, 460800, Note_on_c, 0, 43, 95
2, 461280, Note_off_c, 0, 43, 95
2, 461280, Note_on_c, 0, 42, 95
2, 461760, Note_off_c, 0, 42, 95
2, 461760, Note_on_c, 0, 40, 95
2, 462240, Note_off_c, 0, 40, 95
2, 462720, Note_on_c, 0, 52, 95
2, 463680, Note_off_c, 0, 52, 95
2, 463680, Note_on_c, 0, 52, 95
2, 464160, Note_off_c, 0, 52, 95
2, 464160, Note_on_c, 0, 50, 95
2, 464640, Note_off_c, 0, 50, 95
2, 464640, Note_on_c, 1, 46, 95
2, 464760, Pitch_bend_c, 1, 7936
2, 464880, Pitch_bend_c, 1, 7552
2, 465000, Pitch_bend_c, 1, 7168
2, 465120, Pitch_bend_c, 1, 6784
2, 465240, Pitch_bend_c, 1, 6528
2, 465360, Pitch_bend_c, 1, 6144
2, 465480, Pitch_bend_c, 1, 5760
2, 465600, Pitch_bend_c, 1, 5376
2, 465720, Pitch_bend_c, 1, 5120
2, 465840, Pitch_bend_c, 1, 4736
2, 465960, Pitch_bend_c, 1, 4352
2, 466080, Pitch_bend_c, 1, 3968
2, 466080, Pitch_bend_c, 1, 8192
2, 466080, Note_off_c, 1, 46, 95
2, 466080, Note_on_c, 0, 40, 95
2, 466560, Note_off_c, 0, 40, 95
2, 466560, Note_on_c, 0, 43, 95
2, 467520, Note_off_c, 0, 43, 95
2, 467520, Note_on_c, 0, 44, 95
2, 468000, Note_off_c, 0, 44, 95
2, 468000, Note_on_c, 0, 45, 95
2, 468480, Note_off_c, 0, 45, 95
2, 468480, Note_on_c, 0, 45, 95
2, 468960, Note_off_c, 0, 45, 95
2, 468960, Note_on_c, 0, 40, 95
2, 469920, Note_off_c, 0, 40, 95
2, 469920, Note_on_c, 0, 40, 47
2, 470400, Note_off_c, 0, 40, 47
2, 470400, Note_on_c, 0, 52, 95
2, 471360, Note_off_c, 0, 52, 95
2, 471360, Note_on_c, 0, 52, 95
2, 471840, Note_off_c, 0, 52, 95
2, 471840, Note_on_c, 0, 50, 95
2, 472320, Note_off_c, 0, 50, 95
2, 472320, Note_on_c, 1, 46, 95
2, 472440, Pitch_bend_c, 1, 7936
2, 472560, Pitch_bend_c, 1, 7552
2, 472680, Pitch_bend_c, 1, 7168
2, 472800, Pitch_bend_c, 1, 6784
2, 472920, Pitch_bend_c, 1, 6528
2, 473040, Pitch_bend_c, 1, 6144
2, 473160, Pitch_bend_c, 1, 5760
2, 473280, Pitch_bend_c, 1, 5376
2, 473400, Pitch_bend_c, 1, 5120
2, 473520, Pitch_bend_c, 1, 4736
2, 473640, Pitch_bend_c, 1, 4352
2, 473760, Pitch_bend_c, 1, 3968
2, 473760, Pitch_bend_c, 1, 8192
2, 473760, Note_off_c, 1, 46, 95
2, 473760, Note_on_c, 0, 40, 95
2, 474240, Note_off_c, 0, 40, 95
2, 474240, Note_on_c, 0, 43, 95
2, 475200, Note_off_c, 0, 43, 95
2, 475200, Note_on_c, 0, 44, 95
2, 475680, Note_off_c, 0, 44, 95
2, 475680, Note_on_c, 0, 45, 95
2, 476160, Note_off_c, 0, 45, 95
2, 476160, Note_on_c, 0, 45, 95
2, 476640, Note_off_c, 0, 45, 95
2, 476640, Note_on_c, 0, 40, 95
2, 477600, Note_off_c, 0, 40, 95
2, 477600, Note_on_c, 0, 40, 47
2, 478080, Note_off_c, 0, 40, 47
2, 478080, Note_on_c, 0, 52, 95
2, 479040, Note_off_c, 0, 52, 95
2, 479040, Note_on_c, 0, 52, 95
2, 479520, Note_off_c, 0, 52, 95
2, 479520, Note_on_c, 0, 50, 95
2, 480000, Note_off_c, 0, 50, 95
2, 480000, Note_on_c, 1, 46, 95
2, 480120, Pitch_bend_c, 1, 7936
2, 480240, Pitch_bend_c, 1, 7552
2, 480360, Pitch_bend_c, 1, 7168
2, 480480, Pitch_bend_c, 1, 6784
2, 480600, Pitch_bend_c, 1, 6528
2, 480720, Pitch_bend_c, 1, 6144
2, 480840, Pitch_bend_c, 1, 5760
2, 480960, Pitch_bend_c, 1, 5376
2, 481080, Pitch_bend_c, 1, 5120
2, 481200, Pitch_bend_c, 1, 4736
2, 481320, Pitch_bend_c, 1, 4352
2, 481440, Pitch_bend_c, 1, 3968
2, 481440, Pitch_bend_c, 1, 8192
2, 481440, Note_off_c, 1, 46, 95
2, 481440, Note_on_c, 0, 40, 95
2, 481920, Note_off_c, 0, 40, 95
2, 481920, Note_on_c, 0, 43, 95
2, 482880, Note_off_c, 0, 43, 95
2, 482880, Note_on_c, 0, 44, 95
2, 483360, Note_off_c, 0, 44, 95
2, 483360, Note_on_c, 0, 45, 95
2, 483840, Note_off_c, 0, 45, 95
2, 483840, Note_on_c, 0, 45, 95
2, 484320, Note_off_c, 0, 45, 95
2, 484320, Note_on_c, 0, 40, 95
2, 485280, Note_off_c, 0, 40, 95
2, 485280, Note_on_c, 0, 40, 47
2, 485760, Note_off_c, 0, 40, 47
2, 485760, Note_on_c, 0, 52, 95
2, 486720, Note_off_c, 0, 52, 95
2, 486720, Note_on_c, 0, 52, 95
2, 487200, Note_off_c, 0, 52, 95
2, 487200, Note_on_c, 0, 50, 95
2, 487680, Note_off_c, 0, 50, 95
2, 487680, Note_on_c, 1, 46, 95
2, 487800, Pitch_bend_c, 1, 7936
2, 487920, Pitch_bend_c, 1, 7552
2, 488040, Pitch_bend_c, 1, 7168
2, 488160, Pitch_bend_c, 1, 6784
2, 488280, Pitch_bend_c, 1, 6528
2, 488400, Pitch_bend_c, 1, 6144
2, 488520, Pitch_bend_c, 1, 5760
2, 488640, Pitch_bend_c, 1, 5376
2, 488760, Pitch_bend_c, 1, 5120
2, 488880, Pitch_bend_c, 1, 4736
2, 489000, Pitch_bend_c, 1, 4352
2, 489120, Pitch_bend_c, 1, 3968
2, 489120, Pitch_bend_c, 1, 8192
2, 489120, Note_off_c, 1, 46, 95
2, 489120, Note_on_c, 0, 40, 95
2, 489600, Note_off_c, 0, 40, 95
2, 489600, Note_on_c, 0, 43, 95
2, 490560, Note_off_c, 0, 43, 95
2, 490560, Note_on_c, 0, 44, 95
2, 491040, Note_off_c, 0, 44, 95
2, 491040, Note_on_c, 0, 45, 95
2, 491520, Note_off_c, 0, 45, 95
2, 491520, Note_on_c, 0, 45, 95
2, 492000, Note_off_c, 0, 45, 95
2, 492000, Note_on_c, 0, 40, 95
2, 492960, Note_off_c, 0, 40, 95
2, 492960, Note_on_c, 0, 40, 47
2, 493440, Note_off_c, 0, 40, 47
2, 493440, End_track
3, 0, Start_track
3, 0, Pitch_bend_c, 2, 8192
3, 0, Control_c, 2, 7, 103
3, 0, Control_c, 2, 10, 63
3, 0, Control_c, 2, 93, 0
3, 0, Control_c, 2, 91, 0
3, 0, Control_c, 2, 95, 0
3, 0, Control_c, 2, 92, 0
3, 0, Control_c, 2, 11, 127
3, 0, Program_c, 2, 33
3, 0, Control_c, 3, 7, 103
3, 0, Control_c, 3, 10, 63
3, 0, Control_c, 3, 93, 0
3, 0, Control_c, 3, 91, 0
3, 0, Control_c, 3, 95, 0
3, 0, Control_c, 3, 92, 0
3, 0, Control_c, 3, 11, 127
3, 0, Program_c, 3, 33
3, 15360, Note_on_c, 2, 45, 95
3, 15840, Note_off_c, 2, 45, 95
3, 16320, Note_on_c, 2, 45, 95
3, 16800, Note_off_c, 2, 45, 95
3, 16800, Note_on_c, 2, 43, 95
3, 17280, Note_off_c, 2, 43, 95
3, 17280, Note_on_c, 3, 39, 95
3, 17400, Pitch_bend_c, 3, 7936
3, 17520, Pitch_bend_c, 3, 7552
3, 17640, Pitch_bend_c, 3, 7168
3, 17760, Pitch_bend_c, 3, 6784
3, 17880, Pitch_bend_c, 3, 6528
3, 18000, Pitch_bend_c, 3, 6144
3, 18120, Pitch_bend_c, 3, 5760
3, 18240, Pitch_bend_c, 3, 5376
3, 18360, Pitch_bend_c, 3, 5120
3, 18480, Pitch_bend_c, 3, 4736
3, 18600, Pitch_bend_c, 3, 4352
3, 18720, Pitch_bend_c, 3, 3968
3, 18720, Pitch_bend_c, 3, 8192
3, 18720, Note_off_c, 3, 39, 95
3, 18720, Note_on_c, 2, 33, 95
3, 19200, Note_off_c, 2, 33, 95
3, 19200, Note_on_c, 2, 36, 95
3, 19680, Note_off_c, 2, 36, 95
3, 20160, Note_on_c, 2, 37, 95
3, 20640, Note_off_c, 2, 37, 95
3, 20640, Note_on_c, 2, 38, 95
3, 21120, Note_off_c, 2, 38, 95
3, 21120, Note_on_c, 2, 38, 95
3, 21600, Note_off_c, 2, 38, 95
3, 21600, Note_on_c, 2, 33, 95
3, 22080, Note_off_c, 2, 33, 95
3, 22560, Note_on_c, 2, 33, 47
3, 23040, Note_off_c, 2, 33, 47
3, 23040, Note_on_c, 2, 45, 95
3, 23520, Note_off_c, 2, 45, 95
3, 24000, Note_on_c, 2, 45, 95
3, 24480, Note_off_c, 2, 45, 95
3, 24480, Note_on_c, 2, 43, 95
3, 24960, Note_off_c, 2, 43, 95
3, 24960, Note_on_c, 3, 39, 95
3, 25080, Pitch_bend_c, 3, 7936
3, 25200, Pitch_bend_c, 3, 7552
3, 25320, Pitch_bend_c, 3, 7168
3, 25440, Pitch_bend_c, 3, 6784
3, 25560, Pitch_bend_c, 3, 6528
3, 25680, Pitch_bend_c, 3, 6144
3, 25800, Pitch_bend_c, 3, 5760
3, 25920, Pitch_bend_c, 3, 5376
3, 26040, Pitch_bend_c, 3, 5120
3, 26160, Pitch_bend_c, 3, 4736
3, 26280, Pitch_bend_c, 3, 4352
3, 26400, Pitch_bend_c, 3, 3968
3, 26400, Pitch_bend_c, 3, 8192
3, 26400, Note_off_c, 3, 39, 95
3, 26400, Note_on_c, 2, 33, 95
3, 26880, Note_off_c, 2, 33, 95
3, 26880, Note_on_c, 2, 36, 95
3, 27360, Note_off_c, 2, 36, 95
3, 27840, Note_on_c, 2, 37, 95
3, 28320, Note_off_c, 2, 37, 95
3, 28320, Note_on_c, 2, 38, 95
3, 28800, Note_off_c, 2, 38, 95
3, 28800, Note_on_c, 2, 38, 95
3, 29280, Note_off_c, 2, 38, 95
3, 29280, Note_on_c, 2, 33, 95
3, 29760, Note_off_c, 2, 33, 95
3, 30240, Note_on_c, 2, 33, 47
3, 30720, Note_off_c, 2, 33, 47
3, 30720, Note_on_c, 2, 45, 95
3, 31200, Note_off_c, 2, 45, 95
3, 31680, Note_on_c, 2, 45, 95
3, 32160, Note_off_c, 2, 45, 95
3, 32160, Note_on_c, 2, 43, 95
3, 32640, Note_off_c, 2, 43, 95
3, 32640, Note_on_c, 3, 39, 95
3, 32760, Pitch_bend_c, 3, 7936
3, 32880, Pitch_bend_c, 3, 7552
3, 33000, Pitch_bend_c, 3, 7168
3, 33120, Pitch_bend_c, 3, 6784
3, 33240, Pitch_bend_c, 3, 6528
3, 33360, Pitch_bend_c, 3, 6144
3, 33480, Pitch_bend_c, 3, 5760
3, 33600, Pitch_bend_c, 3, 5376
3, 33720, Pitch_bend_c, 3, 5120
3, 33840, Pitch_bend_c, 3, 4736
3, 33960, Pitch_bend_c, 3, 4352
3, 34080, Pitch_bend_c, 3, 3968
3, 34080, Pitch_bend_c, 3, 8192
3, 34080, Note_off_c, 3, 39, 95
3, 34080, Note_on_c, 2, 33, 95
3, 34560, Note_off_c, 2, 33, 95
3, 34560, Note_on_c, 2, 36, 95
3, 35040, Note_off_c, 2, 36, 95
3, 35520, Note_on_c, 2, 37, 95
3, 36000, Note_off_c, 2, 37, 95
3, 36000, Note_on_c, 2, 38, 95
3, 36480, Note_off_c, 2, 38, 95
3, 36480, Note_on_c, 2, 38, 95
3, 36960, Note_off_c, 2, 38, 95
3, 36960, Note_on_c, 2, 33, 95
3, 37440, Note_off_c, 2, 33, 95
3, 37920, Note_on_c, 2, 33, 47
3, 38400, Note_off_c, 2, 33, 47
3, 38400, Note_on_c, 2, 45, 95
3, 38880, Note_off_c, 2, 45, 95
3, 39360, Note_on_c, 2, 45, 95
3, 39840, Note_off_c, 2, 45, 95
3, 39840, Note_on_c, 2, 43, 95
3, 40320, Note_off_c, 2, 43, 95
3, 40320, Note_on_c, 3, 39, 95
3, 40440, Pitch_bend_c, 3, 7936
3, 40560, Pitch_bend_c, 3, 7552
3, 40680, Pitch_bend_c, 3, 7168
3, 40800, Pitch_bend_c, 3, 6784
3, 40920, Pitch_bend_c, 3, 6528
3, 41040, Pitch_bend_c, 3, 6144
3, 41160, Pitch_bend_c, 3, 5760
3, 41280, Pitch_bend_c, 3, 5376
3, 41400, Pitch_bend_c, 3, 5120
3, 41520, Pitch_bend_c, 3, 4736
3, 41640, Pitch_bend_c, 3, 4352
3, 41760, Pitch_bend_c, 3, 3968
3, 41760, Pitch_bend_c, 3, 8192
3, 41760, Note_off_c, 3, 39, 95
3, 41760, Note_on_c, 2, 33, 95
3, 42240, Note_off_c, 2, 33, 95
3, 42240, Note_on_c, 2, 36, 95
3, 42720, Note_off_c, 2, 36, 95
3, 43200, Note_on_c, 2, 37, 95
3, 43680, Note_off_c, 2, 37, 95
3, 43680, Note_on_c, 2, 38, 95
3, 44160, Note_off_c, 2, 38, 95
3, 44160, Note_on_c, 2, 38, 95
3, 44640, Note_off_c, 2, 38, 95
3, 44640, Note_on_c, 2, 33, 95
3, 45120, Note_off_c, 2, 33, 95
3, 45600, Note_on_c, 2, 33, 47
3, 46080, Note_off_c, 2, 33, 47
3, 80640, Note_on_c, 2, 45, 95
3, 81120, Note_off_c, 2, 45, 95
3, 81120, Note_on_c, 2, 43, 95
3, 81600, Note_off_c, 2, 43, 95
3, 81600, Note_on_c, 2, 45, 95
3, 82080, Note_off_c, 2, 45, 95
3, 82080, Note_on_c, 2, 43, 95
3, 82560, Note_off_c, 2, 43, 95
3, 82560, Note_on_c, 2, 45, 95
3, 83040, Note_off_c, 2, 45, 95
3, 84000, Note_on_c, 2, 43, 95
3, 84480, Note_off_c, 2, 43, 95
3, 84480, Note_on_c, 2, 45, 95
3, 84960, Note_off_c, 2, 45, 95
3, 84960, Note_on_c, 2, 43, 95
3, 85440, Note_off_c, 2, 43, 95
3, 85440, Note_on_c, 2, 45, 95
3, 85920, Note_off_c, 2, 45, 95
3, 87360, Note_on_c, 2, 33, 95
3, 87840, Note_off_c, 2, 33, 95
3, 87840, Note_on_c, 2, 33, 95
3, 88320, Note_off_c, 2, 33, 95
3, 88320, Note_on_c, 2, 33, 95
3, 88800, Note_off_c, 2, 33, 95
3, 88800, Note_on_c, 2, 43, 95
3, 89280, Note_off_c, 2, 43, 95
3, 89280, Note_on_c, 2, 45, 95
3, 89760, Note_off_c, 2, 45, 95
3, 89760, Note_on_c, 2, 43, 95
3, 90240, Note_off_c, 2, 43, 95
3, 90240, Note_on_c, 2, 45, 95
3, 90720, Note_off_c, 2, 45, 95
3, 91200, Note_on_c, 2, 33, 95
3, 91680, Note_off_c, 2, 33, 95
3, 91680, Note_on_c, 2, 43, 95
3, 92160, Note_off_c, 2, 43, 95
3, 92160, Note_on_c, 2, 45, 95
3, 92640, Note_off_c, 2, 45, 95
3, 92640, Note_on_c, 2, 43, 95
3, 93120, Note_off_c, 2, 43, 95
3, 93120, Note_on_c, 2, 45, 95
3, 93600, Note_off_c, 2, 45, 95
3, 93600, Note_on_c, 2, 33, 95
3, 94080, Note_off_c, 2, 33, 95
3, 94080, Note_on_c, 2, 41, 95
3, 95520, Note_off_c, 2, 41, 95
3, 95520, Note_on_c, 3, 40, 95
3, 96960, Note_off_c, 3, 40, 95
3, 98400, Note_on_c, 2, 43, 95
3, 98880, Note_off_c, 2, 43, 95
3, 98880, Note_on_c, 2, 45, 95
3, 99360, Note_off_c, 2, 45, 95
3, 99360, Note_on_c, 2, 43, 95
3, 99840, Note_off_c, 2, 43, 95
3, 99840, Note_on_c, 2, 45, 95
3, 100320, Note_off_c, 2, 45, 95
3, 101280, Note_on_c, 2, 43, 95
3, 101760, Note_off_c, 2, 43, 95
3, 101760, Note_on_c, 2, 45, 95
3, 102240, Note_off_c, 2, 45, 95
3, 102240, Note_on_c, 2, 43, 95
3, 102720, Note_off_c, 2, 43, 95
3, 102720, Note_on_c, 2, 45, 95
3, 103200, Note_off_c, 2, 45, 95
3, 103200, Note_on_c, 2, 33, 95
3, 103680, Note_off_c, 2, 33, 95
3, 103680, Note_on_c, 2, 33, 95
3, 104160, Note_off_c, 2, 33, 95
3, 104160, Note_on_c, 2, 45, 95
3, 104640, Note_off_c, 2, 45, 95
3, 104640, Note_on_c, 2, 45, 95
3, 105120, Note_off_c, 2, 45, 95
3, 105120, Note_on_c, 2, 33, 95
3, 105600, Note_off_c, 2, 33, 95
3, 105600, Note_on_c, 2, 33, 95
3, 106080, Note_off_c, 2, 33, 95
3, 106080, Note_on_c, 2, 43, 95
3, 106560, Note_off_c, 2, 43, 95
3, 106560, Note_on_c, 2, 45, 95
3, 107040, Note_off_c, 2, 45, 95
3, 107040, Note_on_c, 2, 43, 95
3, 107520, Note_off_c, 2, 43, 95
3, 107520, Note_on_c, 2, 45, 95
3, 108000, Note_off_c, 2, 45, 95
3, 108000, Note_on_c, 2, 33, 95
3, 108480, Note_off_c, 2, 33, 95
3, 108960, Note_on_c, 2, 43, 95
3, 109440, Note_off_c, 2, 43, 95
3, 109440, Note_on_c, 2, 45, 95
3, 109920, Note_off_c, 2, 45, 95
3, 109920, Note_on_c, 2, 43, 95
3, 110400, Note_off_c, 2, 43, 95
3, 110400, Note_on_c, 2, 45, 95
3, 110880, Note_off_c, 2, 45, 95
3, 110880, Note_on_c, 2, 33, 95
3, 111360, Note_off_c, 2, 33, 95
3, 111360, Note_on_c, 2, 41, 95
3, 112800, Note_off_c, 2, 41, 95
3, 112800, Note_on_c, 3, 40, 95
3, 114240, Note_off_c, 3, 40, 95
3, 115680, Note_on_c, 2, 43, 95
3, 116160, Note_off_c, 2, 43, 95
3, 116160, Note_on_c, 2, 45, 95
3, 116640, Note_off_c, 2, 45, 95
3, 116640, Note_on_c, 2, 43, 95
3, 117120, Note_off_c, 2, 43, 95
3, 117120, Note_on_c, 2, 45, 95
3, 117600, Note_off_c, 2, 45, 95
3, 117600, Note_on_c, 2, 33, 95
3, 118080, Note_off_c, 2, 33, 95
3, 118080, Note_on_c, 2, 33, 95
3, 118560, Note_off_c, 2, 33, 95
3, 118560, Note_on_c, 2, 43, 95
3, 119040, Note_off_c, 2, 43, 95
3, 119040, Note_on_c, 2, 45, 95
3, 119520, Note_off_c, 2, 45, 95
3, 119520, Note_on_c, 2, 43, 95
3, 120000, Note_off_c, 2, 43, 95
3, 120000, Note_on_c, 2, 45, 95
3, 120480, Note_off_c, 2, 45, 95
3, 120480, Note_on_c, 2, 33, 95
3, 120960, Note_off_c, 2, 33, 95
3, 121440, Note_on_c, 2, 33, 95
3, 121920, Note_off_c, 2, 33, 95
3, 121920, Note_on_c, 2, 33, 95
3, 122400, Note_off_c, 2, 33, 95
3, 122880, Note_on_c, 2, 33, 95
3, 123360, Note_off_c, 2, 33, 95
3, 123360, Note_on_c, 2, 43, 95
3, 123840, Note_off_c, 2, 43, 95
3, 123840, Note_on_c, 2, 45, 95
3, 124320, Note_off_c, 2, 45, 95
3, 124320, Note_on_c, 2, 43, 95
3, 124800, Note_off_c, 2, 43, 95
3, 124800, Note_on_c, 2, 45, 95
3, 125280, Note_off_c, 2, 45, 95
3, 125280, Note_on_c, 2, 33, 95
3, 125760, Note_off_c, 2, 33, 95
3, 125760, Note_on_c, 2, 33, 95
3, 126240, Note_off_c, 2, 33, 95
3, 126240, Note_on_c, 2, 43, 95
3, 126720, Note_off_c, 2, 43, 95
3, 126720, Note_on_c, 2, 45, 95
3, 127200, Note_off_c, 2, 45, 95
3, 127200, Note_on_c, 2, 43, 95
3, 127680, Note_off_c, 2, 43, 95
3, 127680, Note_on_c, 2, 45, 95
3, 128160, Note_off_c, 2, 45, 95
3, 128160, Note_on_c, 2, 33, 95
3, 128640, Note_off_c, 2, 33, 95
3, 128640, Note_on_c, 2, 41, 95
3, 130080, Note_off_c, 2, 41, 95
3, 130080, Note_on_c, 3, 40, 95
3, 131520, Note_off_c, 3, 40, 95
3, 132960, Note_on_c, 2, 43, 95
3, 133440, Note_off_c, 2, 43, 95
3, 133440, Note_on_c, 2, 45, 95
3, 133920, Note_off_c, 2, 45, 95
3, 133920, Note_on_c, 2, 43, 95
3, 134400, Note_off_c, 2, 43, 95
3, 134400, Note_on_c, 2, 45, 95
3, 134880, Note_off_c, 2, 45, 95
3, 135840, Note_on_c, 2, 43, 95
3, 136320, Note_off_c, 2, 43, 95
3, 136320, Note_on_c, 2, 45, 95
3, 136800, Note_off_c, 2, 45, 95
3, 136800, Note_on_c, 2, 43, 95
3, 137280, Note_off_c, 2, 43, 95
3, 137280, Note_on_c, 2, 45, 95
3, 137760, Note_off_c, 2, 45, 95
3, 139200, Note_on_c, 2, 33, 95
3, 139680, Note_off_c, 2, 33, 95
3, 139680, Note_on_c, 2, 33, 95
3, 140160, Note_off_c, 2, 33, 95
3, 140160, Note_on_c, 2, 33, 95
3, 140640, Note_off_c, 2, 33, 95
3, 140640, Note_on_c, 2, 43, 95
3, 141120, Note_off_c, 2, 43, 95
3, 141120, Note_on_c, 2, 45, 95
3, 141600, Note_off_c, 2, 45, 95
3, 141600, Note_on_c, 2, 43, 95
3, 142080, Note_off_c, 2, 43, 95
3, 142080, Note_on_c, 2, 45, 95
3, 142560, Note_off_c, 2, 45, 95
3, 142560, Note_on_c, 2, 33, 95
3, 143040, Note_off_c, 2, 33, 95
3, 143520, Note_on_c, 2, 43, 95
3, 144000, Note_off_c, 2, 43, 95
3, 144000, Note_on_c, 2, 45, 95
3, 144480, Note_off_c, 2, 45, 95
3, 144480, Note_on_c, 2, 43, 95
3, 144960, Note_off_c, 2, 43, 95
3, 144960, Note_on_c, 2, 45, 95
3, 145440, Note_off_c, 2, 45, 95
3, 145440, Note_on_c, 2, 33, 95
3, 145920, Note_off_c, 2, 33, 95
3, 145920, Note_on_c, 2, 41, 95
3, 147360, Note_off_c, 2, 41, 95
3, 147360, Note_on_c, 3, 40, 95
3, 147480, Pitch_bend_c, 3, 8064
3, 147600, Pitch_bend_c, 3, 7808
3, 147720, Pitch_bend_c, 3, 7552
3, 147840, Pitch_bend_c, 3, 7296
3, 147960, Pitch_bend_c, 3, 7040
3, 148080, Pitch_bend_c, 3, 6784
3, 148200, Pitch_bend_c, 3, 6656
3, 148320, Pitch_bend_c, 3, 6400
3, 148440, Pitch_bend_c, 3, 6144
3, 148560, Pitch_bend_c, 3, 5888
3, 148680, Pitch_bend_c, 3, 5632
3, 148800, Pitch_bend_c, 3, 5376
3, 148800, Pitch_bend_c, 3, 8192
3, 148800, Note_off_c, 3, 40, 95
3, 148800, Note_on_c, 2, 36, 95
3, 149280, Note_off_c, 2, 36, 95
3, 149760, Note_on_c, 2, 36, 95
3, 150240, Note_off_c, 2, 36, 95
3, 150240, Note_on_c, 2, 35, 95
3, 150720, Note_off_c, 2, 35, 95
3, 150720, Note_on_c, 2, 33, 95
3, 151200, Note_off_c, 2, 33, 95
3, 151680, Note_on_c, 2, 45, 95
3, 152160, Note_off_c, 2, 45, 95
3, 152640, Note_on_c, 2, 45, 95
3, 153120, Note_off_c, 2, 45, 95
3, 153120, Note_on_c, 2, 43, 95
3, 153600, Note_off_c, 2, 43, 95
3, 153600, Note_on_c, 3, 39, 95
3, 153720, Pitch_bend_c, 3, 7936
3, 153840, Pitch_bend_c, 3, 7552
3, 153960, Pitch_bend_c, 3, 7168
3, 154080, Pitch_bend_c, 3, 6784
3, 154200, Pitch_bend_c, 3, 6528
3, 154320, Pitch_bend_c, 3, 6144
3, 154440, Pitch_bend_c, 3, 5760
3, 154560, Pitch_bend_c, 3, 5376
3, 154680, Pitch_bend_c, 3, 5120
3, 154800, Pitch_bend_c, 3, 4736
3, 154920, Pitch_bend_c, 3, 4352
3, 155040, Pitch_bend_c, 3, 3968
3, 155040, Pitch_bend_c, 3, 8192
3, 155040, Note_off_c, 3, 39, 95
3, 155040, Note_on_c, 2, 33, 95
3, 155520, Note_off_c, 2, 33, 95
3, 155520, Note_on_c, 2, 36, 95
3, 156000, Note_off_c, 2, 36, 95
3, 156480, Note_on_c, 2, 37, 95
3, 156960, Note_off_c, 2, 37, 95
3, 156960, Note_on_c, 2, 38, 95
3, 157440, Note_off_c, 2, 38, 95
3, 157440, Note_on_c, 2, 38, 95
3, 157920, Note_off_c, 2, 38, 95
3, 157920, Note_on_c, 2, 33, 95
3, 158400, Note_off_c, 2, 33, 95
3, 158880, Note_on_c, 2, 33, 47
3, 159360, Note_off_c, 2, 33, 47
3, 159360, Note_on_c, 2, 45, 95
3, 159840, Note_off_c, 2, 45, 95
3, 160320, Note_on_c, 2, 45, 95
3, 160800, Note_off_c, 2, 45, 95
3, 160800, Note_on_c, 2, 43, 95
3, 161280, Note_off_c, 2, 43, 95
3, 161280, Note_on_c, 3, 39, 95
3, 161400, Pitch_bend_c, 3, 7936
3, 161520, Pitch_bend_c, 3, 7552
3, 161640, Pitch_bend_c, 3, 7168
3, 161760, Pitch_bend_c, 3, 6784
3, 161880, Pitch_bend_c, 3, 6528
3, 162000, Pitch_bend_c, 3, 6144
3, 162120, Pitch_bend_c, 3, 5760
3, 162240, Pitch_bend_c, 3, 5376
3, 162360, Pitch_bend_c, 3, 5120
3, 162480, Pitch_bend_c, 3, 4736
3, 162600, Pitch_bend_c, 3, 4352
3, 162720, Pitch_bend_c, 3, 3968
3, 162720, Pitch_bend_c, 3, 8192
3, 162720, Note_off_c, 3, 39, 95
3, 162720, Note_on_c, 2, 33, 95
3, 163200, Note_off_c, 2, 33, 95
3, 163200, Note_on_c, 2, 36, 95
3, 163680, Note_off_c, 2, 36, 95
3, 164160, Note_on_c, 2, 37, 95
3, 164640, Note_off_c, 2, 37, 95
3, 164640, Note_on_c, 2, 38, 95
3, 165120, Note_off_c, 2, 38, 95
3, 165120, Note_on_c, 2, 38, 95
3, 165600, Note_off_c, 2, 38, 95
3, 165600, Note_on_c, 2, 33, 95
3, 166080, Note_off_c, 2, 33, 95
3, 166560, Note_on_c, 2, 33, 47
3, 167040, Note_off_c, 2, 33, 47
3, 167040, Note_on_c, 2, 45, 95
3, 167520, Note_off_c, 2, 45, 95
3, 168000, Note_on_c, 2, 45, 95
3, 168480, Note_off_c, 2, 45, 95
3, 168480, Note_on_c, 2, 43, 95
3, 168960, Note_off_c, 2, 43, 95
3, 168960, Note_on_c, 3, 39, 95
3, 169080, Pitch_bend_c, 3, 7936
3, 169200, Pitch_bend_c, 3, 7552
3, 169320, Pitch_bend_c, 3, 7168
3, 169440, Pitch_bend_c, 3, 6784
3, 169560, Pitch_bend_c, 3, 6528
3, 169680, Pitch_bend_c, 3, 6144
3, 169800, Pitch_bend_c, 3, 5760
3, 169920, Pitch_bend_c, 3, 5376
3, 170040, Pitch_bend_c, 3, 5120
3, 170160, Pitch_bend_c, 3, 4736
3, 170280, Pitch_bend_c, 3, 4352
3, 170400, Pitch_bend_c, 3, 3968
3, 170400, Pitch_bend_c, 3, 8192
3, 170400, Note_off_c, 3, 39, 95
3, 170400, Note_on_c, 2, 33, 95
3, 170880, Note_off_c, 2, 33, 95
3, 170880, Note_on_c, 2, 36, 95
3, 171360, Note_off_c, 2, 36, 95
3, 171840, Note_on_c, 2, 37, 95
3, 172320, Note_off_c, 2, 37, 95
3, 172320, Note_on_c, 2, 38, 95
3, 172800, Note_off_c, 2, 38, 95
3, 172800, Note_on_c, 2, 38, 95
3, 173280, Note_off_c, 2, 38, 95
3, 173280, Note_on_c, 2, 33, 95
3, 173760, Note_off_c, 2, 33, 95
3, 174240, Note_on_c, 2, 33, 47
3, 174720, Note_off_c, 2, 33, 47
3, 174720, Note_on_c, 2, 45, 95
3, 175200, Note_off_c, 2, 45, 95
3, 175680, Note_on_c, 2, 45, 95
3, 176160, Note_off_c, 2, 45, 95
3, 176160, Note_on_c, 2, 43, 95
3, 176640, Note_off_c, 2, 43, 95
3, 176640, Note_on_c, 3, 39, 95
3, 176760, Pitch_bend_c, 3, 7936
3, 176880, Pitch_bend_c, 3, 7552
3, 177000, Pitch_bend_c, 3, 7168
3, 177120, Pitch_bend_c, 3, 6784
3, 177240, Pitch_bend_c, 3, 6528
3, 177360, Pitch_bend_c, 3, 6144
3, 177480, Pitch_bend_c, 3, 5760
3, 177600, Pitch_bend_c, 3, 5376
3, 177720, Pitch_bend_c, 3, 5120
3, 177840, Pitch_bend_c, 3, 4736
3, 177960, Pitch_bend_c, 3, 4352
3, 178080, Pitch_bend_c, 3, 3968
3, 178080, Pitch_bend_c, 3, 8192
3, 178080, Note_off_c, 3, 39, 95
3, 178080, Note_on_c, 2, 33, 95
3, 178560, Note_off_c, 2, 33, 95
3, 178560, Note_on_c, 2, 36, 95
3, 179040, Note_off_c, 2, 36, 95
3, 179520, Note_on_c, 2, 37, 95
3, 180000, Note_off_c, 2, 37, 95
3, 180000, Note_on_c, 2, 38, 95
3, 180480, Note_off_c, 2, 38, 95
3, 180480, Note_on_c, 2, 38, 95
3, 180960, Note_off_c, 2, 38, 95
3, 180960, Note_on_c, 2, 33, 95
3, 181440, Note_off_c, 2, 33, 95
3, 181920, Note_on_c, 2, 33, 47
3, 182400, Note_off_c, 2, 33, 47
3, 182400, Note_on_c, 2, 45, 95
3, 182880, Note_off_c, 2, 45, 95
3, 182880, Note_on_c, 2, 43, 95
3, 183360, Note_off_c, 2, 43, 95
3, 183360, Note_on_c, 2, 45, 95
3, 183840, Note_off_c, 2, 45, 95
3, 183840, Note_on_c, 2, 43, 95
3, 184320, Note_off_c, 2, 43, 95
3, 184320, Note_on_c, 2, 45, 95
3, 184800, Note_off_c, 2, 45, 95
3, 185760, Note_on_c, 2, 43, 95
3, 186240, Note_off_c, 2, 43, 95
3, 186240, Note_on_c, 2, 45, 95
3, 186720, Note_off_c, 2, 45, 95
3, 186720, Note_on_c, 2, 43, 95
3, 187200, Note_off_c, 2, 43, 95
3, 187200, Note_on_c, 2, 45, 95
3, 187680, Note_off_c, 2, 45, 95
3, 189120, Note_on_c, 2, 33, 95
3, 189600, Note_off_c, 2, 33, 95
3, 189600, Note_on_c, 2, 33, 95
3, 190080, Note_off_c, 2, 33, 95
3, 190080, Note_on_c, 2, 33, 95
3, 190560, Note_off_c, 2, 33, 95
3, 190560, Note_on_c, 2, 43, 95
3, 191040, Note_off_c, 2, 43, 95
3, 191040, Note_on_c, 2, 45, 95
3, 191520, Note_off_c, 2, 45, 95
3, 191520, Note_on_c, 2, 43, 95
3, 192000, Note_off_c, 2, 43, 95
3, 192000, Note_on_c, 2, 45, 95
3, 192480, Note_off_c, 2, 45, 95
3, 192960, Note_on_c, 2, 33, 95
3, 193440, Note_off_c, 2, 33, 95
3, 193440, Note_on_c, 2, 43, 95
3, 193920, Note_off_c, 2, 43, 95
3, 193920, Note_on_c, 2, 45, 95
3, 194400, Note_off_c, 2, 45, 95
3, 194400, Note_on_c, 2, 43, 95
3, 194880, Note_off_c, 2, 43, 95
3, 194880, Note_on_c, 2, 45, 95
3, 195360, Note_off_c, 2, 45, 95
3, 195360, Note_on_c, 2, 33, 95
3, 195840, Note_off_c, 2, 33, 95
3, 195840, Note_on_c, 2, 41, 95
3, 197280, Note_off_c, 2, 41, 95
3, 197280, Note_on_c, 3, 40, 95
3, 198720, Note_off_c, 3, 40, 95
3, 200160, Note_on_c, 2, 43, 95
3, 200640, Note_off_c, 2, 43, 95
3, 200640, Note_on_c, 2, 45, 95
3, 201120, Note_off_c, 2, 45, 95
3, 201120, Note_on_c, 2, 43, 95
3, 201600, Note_off_c, 2, 43, 95
3, 201600, Note_on_c, 2, 45, 95
3, 202080, Note_off_c, 2, 45, 95
3, 203040, Note_on_c, 2, 43, 95
3, 203520, Note_off_c, 2, 43, 95
3, 203520, Note_on_c, 2, 45, 95
3, 204000, Note_off_c, 2, 45, 95
3, 204000, Note_on_c, 2, 43, 95
3, 204480, Note_off_c, 2, 43, 95
3, 204480, Note_on_c, 2, 45, 95
3, 204960, Note_off_c, 2, 45, 95
3, 204960, Note_on_c, 2, 33, 95
3, 205440, Note_off_c, 2, 33, 95
3, 205440, Note_on_c, 2, 33, 95
3, 205920, Note_off_c, 2, 33, 95
3, 205920, Note_on_c, 2, 33, 95
3, 206400, Note_off_c, 2, 33, 95
3, 206400, Note_on_c, 2, 45, 95
3, 206880, Note_off_c, 2, 45, 95
3, 206880, Note_on_c, 2, 45, 95
3, 207360, Note_off_c, 2, 45, 95
3, 207360, Note_on_c, 2, 33, 95
3, 207840, Note_off_c, 2, 33, 95
3, 207840, Note_on_c, 2, 43, 95
3, 208320, Note_off_c, 2, 43, 95
3, 208320, Note_on_c, 2, 45, 95
3, 208800, Note_off_c, 2, 45, 95
3, 208800, Note_on_c, 2, 43, 95
3, 209280, Note_off_c, 2, 43, 95
3, 209280, Note_on_c, 2, 45, 95
3, 209760, Note_off_c, 2, 45, 95
3, 209760, Note_on_c, 2, 33, 95
3, 210240, Note_off_c, 2, 33, 95
3, 210720, Note_on_c, 2, 43, 95
3, 211200, Note_off_c, 2, 43, 95
3, 211200, Note_on_c, 2, 45, 95
3, 211680, Note_off_c, 2, 45, 95
3, 211680, Note_on_c, 2, 43, 95
3, 212160, Note_off_c, 2, 43, 95
3, 212160, Note_on_c, 2, 45, 95
3, 212640, Note_off_c, 2, 45, 95
3, 212640, Note_on_c, 2, 33, 95
3, 213120, Note_off_c, 2, 33, 95
3, 213120, Note_on_c, 2, 41, 95
3, 214560, Note_off_c, 2, 41, 95
3, 214560, Note_on_c, 3, 40, 95
3, 216000, Note_off_c, 3, 40, 95
3, 217440, Note_on_c, 2, 43, 95
3, 217920, Note_off_c, 2, 43, 95
3, 217920, Note_on_c, 2, 45, 95
3, 218400, Note_off_c, 2, 45, 95
3, 218400, Note_on_c, 2, 43, 95
3, 218880, Note_off_c, 2, 43, 95
3, 218880, Note_on_c, 2, 45, 95
3, 219360, Note_off_c, 2, 45, 95
3, 219360, Note_on_c, 2, 33, 95
3, 219840, Note_off_c, 2, 33, 95
3, 219840, Note_on_c, 2, 33, 95
3, 220320, Note_off_c, 2, 33, 95
3, 220320, Note_on_c, 2, 43, 95
3, 220800, Note_off_c, 2, 43, 95
3, 220800, Note_on_c, 2, 45, 95
3, 221280, Note_off_c, 2, 45, 95
3, 221280, Note_on_c, 2, 43, 95
3, 221760, Note_off_c, 2, 43, 95
3, 221760, Note_on_c, 2, 45, 95
3, 222240, Note_off_c, 2, 45, 95
3, 222240, Note_on_c, 2, 33, 95
3, 222720, Note_off_c, 2, 33, 95
3, 223200, Note_on_c, 2, 33, 95
3, 223680, Note_off_c, 2, 33, 95
3, 223680, Note_on_c, 2, 33, 95
3, 224160, Note_off_c, 2, 33, 95
3, 224640, Note_on_c, 2, 33, 95
3, 225120, Note_off_c, 2, 33, 95
3, 225120, Note_on_c, 2, 43, 95
3, 225600, Note_off_c, 2, 43, 95
3, 225600, Note_on_c, 2, 45, 95
3, 226080, Note_off_c, 2, 45, 95
3, 226080, Note_on_c, 2, 43, 95
3, 226560, Note_off_c, 2, 43, 95
3, 226560, Note_on_c, 2, 45, 95
3, 227040, Note_off_c, 2, 45, 95
3, 227040, Note_on_c, 2, 33, 95
3, 227520, Note_off_c, 2, 33, 95
3, 227520, Note_on_c, 2, 33, 95
3, 228000, Note_off_c, 2, 33, 95
3, 228000, Note_on_c, 2, 43, 95
3, 228480, Note_off_c, 2, 43, 95
3, 228480, Note_on_c, 2, 45, 95
3, 228960, Note_off_c, 2, 45, 95
3, 228960, Note_on_c, 2, 43, 95
3, 229440, Note_off_c, 2, 43, 95
3, 229440, Note_on_c, 2, 45, 95
3, 229920, Note_off_c, 2, 45, 95
3, 229920, Note_on_c, 2, 33, 95
3, 230400, Note_off_c, 2, 33, 95
3, 230400, Note_on_c, 2, 41, 95
3, 231840, Note_off_c, 2, 41, 95
3, 231840, Note_on_c, 3, 40, 95
3, 233280, Note_off_c, 3, 40, 95
3, 234720, Note_on_c, 2, 43, 95
3, 235200, Note_off_c, 2, 43, 95
3, 235200, Note_on_c, 2, 45, 95
3, 235680, Note_off_c, 2, 45, 95
3, 235680, Note_on_c, 2, 43, 95
3, 236160, Note_off_c, 2, 43, 95
3, 236160, Note_on_c, 2, 45, 95
3, 236640, Note_off_c, 2, 45, 95
3, 237600, Note_on_c, 2, 43, 95
3, 238080, Note_off_c, 2, 43, 95
3, 238080, Note_on_c, 2, 45, 95
3, 238560, Note_off_c, 2, 45, 95
3, 238560, Note_on_c, 2, 43, 95
3, 239040, Note_off_c, 2, 43, 95
3, 239040, Note_on_c, 2, 45, 95
3, 239520, Note_off_c, 2, 45, 95
3, 240960, Note_on_c, 2, 33, 95
3, 241440, Note_off_c, 2, 33, 95
3, 241440, Note_on_c, 2, 33, 95
3, 241920, Note_off_c, 2, 33, 95
3, 241920, Note_on_c, 2, 33, 95
3, 242400, Note_off_c, 2, 33, 95
3, 242400, Note_on_c, 2, 43, 95
3, 242880, Note_off_c, 2, 43, 95
3, 242880, Note_on_c, 2, 45, 95
3, 243360, Note_off_c, 2, 45, 95
3, 243360, Note_on_c, 2, 43, 95
3, 243840, Note_off_c, 2, 43, 95
3, 243840, Note_on_c, 2, 45, 95
3, 244320, Note_off_c, 2, 45, 95
3, 244320, Note_on_c, 2, 33, 95
3, 244800, Note_off_c, 2, 33, 95
3, 245280, Note_on_c, 2, 43, 95
3, 245760, Note_off_c, 2, 43, 95
3, 245760, Note_on_c, 2, 45, 95
3, 246240, Note_off_c, 2, 45, 95
3, 246240, Note_on_c, 2, 43, 95
3, 246720, Note_off_c, 2, 43, 95
3, 246720, Note_on_c, 2, 45, 95
3, 247200, Note_off_c, 2, 45, 95
3, 247200, Note_on_c, 2, 33, 95
3, 247680, Note_off_c, 2, 33, 95
3, 247680, Note_on_c, 2, 41, 95
3, 249120, Note_off_c, 2, 41, 95
3, 249120, Note_on_c, 3, 40, 95
3, 249240, Pitch_bend_c, 3, 8064
3, 249360, Pitch_bend_c, 3, 7808
3, 249480, Pitch_bend_c, 3, 7552
3, 249600, Pitch_bend_c, 3, 7296
3, 249720, Pitch_bend_c, 3, 7040
3, 249840, Pitch_bend_c, 3, 6784
3, 249960, Pitch_bend_c, 3, 6656
3, 250080, Pitch_bend_c, 3, 6400
3, 250200, Pitch_bend_c, 3, 6144
3, 250320, Pitch_bend_c, 3, 5888
3, 250440, Pitch_bend_c, 3, 5632
3, 250560, Pitch_bend_c, 3, 5376
3, 250560, Pitch_bend_c, 3, 8192
3, 250560, Note_off_c, 3, 40, 95
3, 250560, Note_on_c, 2, 36, 95
3, 251040, Note_off_c, 2, 36, 95
3, 251520, Note_on_c, 2, 36, 95
3, 252000, Note_off_c, 2, 36, 95
3, 252000, Note_on_c, 2, 35, 95
3, 252480, Note_off_c, 2, 35, 95
3, 252480, Note_on_c, 2, 33, 95
3, 252960, Note_off_c, 2, 33, 95
3, 253440, Note_on_c, 2, 45, 95
3, 253920, Note_off_c, 2, 45, 95
3, 254400, Note_on_c, 2, 45, 95
3, 254880, Note_off_c, 2, 45, 95
3, 254880, Note_on_c, 2, 43, 95
3, 255360, Note_off_c, 2, 43, 95
3, 255360, Note_on_c, 3, 39, 95
3, 255480, Pitch_bend_c, 3, 7936
3, 255600, Pitch_bend_c, 3, 7552
3, 255720, Pitch_bend_c, 3, 7168
3, 255840, Pitch_bend_c, 3, 6784
3, 255960, Pitch_bend_c, 3, 6528
3, 256080, Pitch_bend_c, 3, 6144
3, 256200, Pitch_bend_c, 3, 5760
3, 256320, Pitch_bend_c, 3, 5376
3, 256440, Pitch_bend_c, 3, 5120
3, 256560, Pitch_bend_c, 3, 4736
3, 256680, Pitch_bend_c, 3, 4352
3, 256800, Pitch_bend_c, 3, 3968
3, 256800, Pitch_bend_c, 3, 8192
3, 256800, Note_off_c, 3, 39, 95
3, 256800, Note_on_c, 2, 33, 95
3, 257280, Note_off_c, 2, 33, 95
3, 257280, Note_on_c, 2, 36, 95
3, 257760, Note_off_c, 2, 36, 95
3, 258240, Note_on_c, 2, 37, 95
3, 258720, Note_off_c, 2, 37, 95
3, 258720, Note_on_c, 2, 38, 95
3, 259200, Note_off_c, 2, 38, 95
3, 259200, Note_on_c, 2, 38, 95
3, 259680, Note_off_c, 2, 38, 95
3, 259680, Note_on_c, 2, 33, 95
3, 260160, Note_off_c, 2, 33, 95
3, 260640, Note_on_c, 2, 33, 47
3, 261120, Note_off_c, 2, 33, 47
3, 261120, Note_on_c, 2, 45, 95
3, 261600, Note_off_c, 2, 45, 95
3, 262080, Note_on_c, 2, 45, 95
3, 262560, Note_off_c, 2, 45, 95
3, 262560, Note_on_c, 2, 43, 95
3, 263040, Note_off_c, 2, 43, 95
3, 263040, Note_on_c, 3, 39, 95
3, 263160, Pitch_bend_c, 3, 7936
3, 263280, Pitch_bend_c, 3, 7552
3, 263400, Pitch_bend_c, 3, 7168
3, 263520, Pitch_bend_c, 3, 6784
3, 263640, Pitch_bend_c, 3, 6528
3, 263760, Pitch_bend_c, 3, 6144
3, 263880, Pitch_bend_c, 3, 5760
3, 264000, Pitch_bend_c, 3, 5376
3, 264120, Pitch_bend_c, 3, 5120
3, 264240, Pitch_bend_c, 3, 4736
3, 264360, Pitch_bend_c, 3, 4352
3, 264480, Pitch_bend_c, 3, 3968
3, 264480, Pitch_bend_c, 3, 8192
3, 264480, Note_off_c, 3, 39, 95
3, 264480, Note_on_c, 2, 33, 95
3, 264960, Note_off_c, 2, 33, 95
3, 264960, Note_on_c, 2, 36, 95
3, 265440, Note_off_c, 2, 36, 95
3, 265920, Note_on_c, 2, 37, 95
3, 266400, Note_off_c, 2, 37, 95
3, 266400, Note_on_c, 2, 38, 95
3, 266880, Note_off_c, 2, 38, 95
3, 266880, Note_on_c, 2, 38, 95
3, 267360, Note_off_c, 2, 38, 95
3, 267360, Note_on_c, 2, 33, 95
3, 267840, Note_off_c, 2, 33, 95
3, 268320, Note_on_c, 2, 33, 47
3, 268800, Note_off_c, 2, 33, 47
3, 268800, Note_on_c, 2, 45, 95
3, 269280, Note_off_c, 2, 45, 95
3, 269760, Note_on_c, 2, 45, 95
3, 270240, Note_off_c, 2, 45, 95
3, 270240, Note_on_c, 2, 43, 95
3, 270720, Note_off_c, 2, 43, 95
3, 270720, Note_on_c, 3, 39, 95
3, 270840, Pitch_bend_c, 3, 7936
3, 270960, Pitch_bend_c, 3, 7552
3, 271080, Pitch_bend_c, 3, 7168
3, 271200, Pitch_bend_c, 3, 6784
3, 271320, Pitch_bend_c, 3, 6528
3, 271440, Pitch_bend_c, 3, 6144
3, 271560, Pitch_bend_c, 3, 5760
3, 271680, Pitch_bend_c, 3, 5376
3, 271800, Pitch_bend_c, 3, 5120
3, 271920, Pitch_bend_c, 3, 4736
3, 272040, Pitch_bend_c, 3, 4352
3, 272160, Pitch_bend_c, 3, 3968
3, 272160, Pitch_bend_c, 3, 8192
3, 272160, Note_off_c, 3, 39, 95
3, 272160, Note_on_c, 2, 33, 95
3, 272640, Note_off_c, 2, 33, 95
3, 272640, Note_on_c, 2, 36, 95
3, 273120, Note_off_c, 2, 36, 95
3, 273600, Note_on_c, 2, 37, 95
3, 274080, Note_off_c, 2, 37, 95
3, 274080, Note_on_c, 2, 38, 95
3, 274560, Note_off_c, 2, 38, 95
3, 274560, Note_on_c, 2, 38, 95
3, 275040, Note_off_c, 2, 38, 95
3, 275040, Note_on_c, 2, 33, 95
3, 275520, Note_off_c, 2, 33, 95
3, 276000, Note_on_c, 2, 33, 47
3, 276480, Note_off_c, 2, 33, 47
3, 276480, Note_on_c, 2, 45, 95
3, 276960, Note_off_c, 2, 45, 95
3, 277440, Note_on_c, 2, 45, 95
3, 277920, Note_off_c, 2, 45, 95
3, 277920, Note_on_c, 2, 43, 95
3, 278400, Note_off_c, 2, 43, 95
3, 278400, Note_on_c, 3, 39, 95
3, 278520, Pitch_bend_c, 3, 7936
3, 278640, Pitch_bend_c, 3, 7552
3, 278760, Pitch_bend_c, 3, 7168
3, 278880, Pitch_bend_c, 3, 6784
3, 279000, Pitch_bend_c, 3, 6528
3, 279120, Pitch_bend_c, 3, 6144
3, 279240, Pitch_bend_c, 3, 5760
3, 279360, Pitch_bend_c, 3, 5376
3, 279480, Pitch_bend_c, 3, 5120
3, 279600, Pitch_bend_c, 3, 4736
3, 279720, Pitch_bend_c, 3, 4352
3, 279840, Pitch_bend_c, 3, 3968
3, 279840, Pitch_bend_c, 3, 8192
3, 279840, Note_off_c, 3, 39, 95
3, 279840, Note_on_c, 2, 33, 95
3, 280320, Note_off_c, 2, 33, 95
3, 280320, Note_on_c, 2, 36, 95
3, 280800, Note_off_c, 2, 36, 95
3, 281280, Note_on_c, 2, 37, 95
3, 281760, Note_off_c, 2, 37, 95
3, 281760, Note_on_c, 2, 38, 95
3, 282240, Note_off_c, 2, 38, 95
3, 282240, Note_on_c, 2, 38, 95
3, 282720, Note_off_c, 2, 38, 95
3, 282720, Note_on_c, 2, 33, 95
3, 283200, Note_off_c, 2, 33, 95
3, 283680, Note_on_c, 2, 33, 47
3, 284160, Note_off_c, 2, 33, 47
3, 284160, Note_on_c, 2, 43, 95
3, 285120, Note_off_c, 2, 43, 95
3, 285120, Note_on_c, 2, 43, 95
3, 285600, Note_off_c, 2, 43, 95
3, 285600, Note_on_c, 2, 43, 95
3, 286080, Note_off_c, 2, 43, 95
3, 286080, Note_on_c, 2, 43, 95
3, 286560, Note_off_c, 2, 43, 95
3, 286560, Note_on_c, 2, 38, 95
3, 287040, Note_off_c, 2, 38, 95
3, 287040, Note_on_c, 2, 43, 95
3, 287520, Note_off_c, 2, 43, 95
3, 287520, Note_on_c, 2, 42, 95
3, 288960, Note_off_c, 2, 42, 95
3, 288960, Note_on_c, 3, 42, 95
3, 290400, Note_off_c, 3, 42, 95
3, 290400, Note_on_c, 2, 32, 95
3, 290880, Note_off_c, 2, 32, 95
3, 290880, Note_on_c, 2, 33, 95
3, 291360, Note_off_c, 2, 33, 95
3, 291360, Note_on_c, 2, 37, 95
3, 291840, Note_off_c, 2, 37, 95
3, 291840, Note_on_c, 2, 38, 95
3, 292800, Note_off_c, 2, 38, 95
3, 292800, Note_on_c, 2, 38, 95
3, 293280, Note_off_c, 2, 38, 95
3, 293280, Note_on_c, 2, 38, 95
3, 293760, Note_off_c, 2, 38, 95
3, 293760, Note_on_c, 2, 38, 95
3, 294240, Note_off_c, 2, 38, 95
3, 294240, Note_on_c, 2, 33, 95
3, 294720, Note_off_c, 2, 33, 95
3, 294720, Note_on_c, 2, 38, 95
3, 295200, Note_off_c, 2, 38, 95
3, 295200, Note_on_c, 2, 37, 95
3, 296640, Note_off_c, 2, 37, 95
3, 296640, Note_on_c, 3, 37, 95
3, 298080, Note_off_c, 3, 37, 95
3, 298080, Note_on_c, 2, 33, 95
3, 298560, Note_off_c, 2, 33, 95
3, 298560, Note_on_c, 2, 37, 95
3, 299040, Note_off_c, 2, 37, 95
3, 299040, Note_on_c, 2, 33, 95
3, 299520, Note_off_c, 2, 33, 95
3, 299520, Note_on_c, 2, 43, 95
3, 300480, Note_off_c, 2, 43, 95
3, 300480, Note_on_c, 2, 43, 95
3, 300960, Note_off_c, 2, 43, 95
3, 300960, Note_on_c, 2, 43, 95
3, 301440, Note_off_c, 2, 43, 95
3, 301440, Note_on_c, 2, 43, 95
3, 301920, Note_off_c, 2, 43, 95
3, 301920, Note_on_c, 2, 38, 95
3, 302400, Note_off_c, 2, 38, 95
3, 302400, Note_on_c, 2, 43, 95
3, 302880, Note_off_c, 2, 43, 95
3, 302880, Note_on_c, 2, 42, 95
3, 304320, Note_off_c, 2, 42, 95
3, 304320, Note_on_c, 3, 42, 95
3, 305760, Note_off_c, 3, 42, 95
3, 305760, Note_on_c, 2, 32, 95
3, 306240, Note_off_c, 2, 32, 95
3, 306240, Note_on_c, 2, 33, 95
3, 306720, Note_off_c, 2, 33, 95
3, 306720, Note_on_c, 2, 37, 95
3, 307200, Note_off_c, 2, 37, 95
3, 307200, Note_on_c, 2, 38, 95
3, 308160, Note_off_c, 2, 38, 95
3, 308160, Note_on_c, 2, 38, 95
3, 308640, Note_off_c, 2, 38, 95
3, 308640, Note_on_c, 2, 38, 95
3, 309120, Note_off_c, 2, 38, 95
3, 309120, Note_on_c, 2, 38, 95
3, 309600, Note_off_c, 2, 38, 95
3, 309600, Note_on_c, 2, 33, 95
3, 310080, Note_off_c, 2, 33, 95
3, 310080, Note_on_c, 2, 38, 95
3, 310560, Note_off_c, 2, 38, 95
3, 310560, Note_on_c, 2, 37, 95
3, 312000, Note_off_c, 2, 37, 95
3, 312000, Note_on_c, 3, 37, 95
3, 313440, Note_off_c, 3, 37, 95
3, 313440, Note_on_c, 2, 33, 95
3, 313920, Note_off_c, 2, 33, 95
3, 313920, Note_on_c, 2, 37, 95
3, 314400, Note_off_c, 2, 37, 95
3, 314400, Note_on_c, 2, 33, 95
3, 314880, Note_off_c, 2, 33, 95
3, 314880, Note_on_c, 2, 43, 95
3, 315840, Note_off_c, 2, 43, 95
3, 315840, Note_on_c, 2, 43, 95
3, 316320, Note_off_c, 2, 43, 95
3, 316320, Note_on_c, 2, 43, 95
3, 316800, Note_off_c, 2, 43, 95
3, 316800, Note_on_c, 2, 43, 95
3, 317280, Note_off_c, 2, 43, 95
3, 317280, Note_on_c, 2, 38, 95
3, 317760, Note_off_c, 2, 38, 95
3, 317760, Note_on_c, 2, 43, 95
3, 318240, Note_off_c, 2, 43, 95
3, 318240, Note_on_c, 2, 42, 95
3, 319680, Note_off_c, 2, 42, 95
3, 319680, Note_on_c, 3, 42, 95
3, 321120, Note_off_c, 3, 42, 95
3, 321120, Note_on_c, 2, 32, 95
3, 321600, Note_off_c, 2, 32, 95
3, 321600, Note_on_c, 2, 33, 95
3, 322080, Note_off_c, 2, 33, 95
3, 322080, Note_on_c, 2, 37, 95
3, 322560, Note_off_c, 2, 37, 95
3, 322560, Note_on_c, 2, 38, 95
3, 323520, Note_off_c, 2, 38, 95
3, 323520, Note_on_c, 2, 38, 95
3, 324000, Note_off_c, 2, 38, 95
3, 324000, Note_on_c, 2, 38, 95
3, 324480, Note_off_c, 2, 38, 95
3, 324480, Note_on_c, 2, 38, 95
3, 324960, Note_off_c, 2, 38, 95
3, 324960, Note_on_c, 2, 33, 95
3, 325440, Note_off_c, 2, 33, 95
3, 325440, Note_on_c, 2, 38, 95
3, 325920, Note_off_c, 2, 38, 95
3, 325920, Note_on_c, 2, 37, 95
3, 327360, Note_off_c, 2, 37, 95
3, 327360, Note_on_c, 3, 37, 95
3, 328800, Note_off_c, 3, 37, 95
3, 328800, Note_on_c, 2, 33, 95
3, 329280, Note_off_c, 2, 33, 95
3, 329280, Note_on_c, 2, 37, 95
3, 329760, Note_off_c, 2, 37, 95
3, 329760, Note_on_c, 2, 33, 95
3, 330240, Note_off_c, 2, 33, 95
3, 330240, Note_on_c, 2, 43, 95
3, 331200, Note_off_c, 2, 43, 95
3, 331200, Note_on_c, 2, 43, 95
3, 331680, Note_off_c, 2, 43, 95
3, 331680, Note_on_c, 2, 43, 95
3, 332160, Note_off_c, 2, 43, 95
3, 332160, Note_on_c, 2, 43, 95
3, 332640, Note_off_c, 2, 43, 95
3, 332640, Note_on_c, 2, 38, 95
3, 333120, Note_off_c, 2, 38, 95
3, 333120, Note_on_c, 2, 43, 95
3, 333600, Note_off_c, 2, 43, 95
3, 333600, Note_on_c, 2, 42, 95
3, 335040, Note_off_c, 2, 42, 95
3, 335040, Note_on_c, 3, 42, 95
3, 336480, Note_off_c, 3, 42, 95
3, 336480, Note_on_c, 2, 32, 95
3, 336960, Note_off_c, 2, 32, 95
3, 336960, Note_on_c, 2, 33, 95
3, 337440, Note_off_c, 2, 33, 95
3, 337440, Note_on_c, 2, 37, 95
3, 337920, Note_off_c, 2, 37, 95
3, 337920, Note_on_c, 2, 38, 95
3, 338880, Note_off_c, 2, 38, 95
3, 338880, Note_on_c, 2, 38, 95
3, 339360, Note_off_c, 2, 38, 95
3, 339360, Note_on_c, 2, 38, 95
3, 339840, Note_off_c, 2, 38, 95
3, 339840, Note_on_c, 2, 38, 95
3, 340320, Note_off_c, 2, 38, 95
3, 340320, Note_on_c, 2, 33, 95
3, 340800, Note_off_c, 2, 33, 95
3, 340800, Note_on_c, 2, 38, 95
3, 341280, Note_off_c, 2, 38, 95
3, 341280, Note_on_c, 2, 37, 95
3, 344640, Note_off_c, 2, 37, 95
3, 344640, Note_on_c, 3, 37, 95
3, 344760, Pitch_bend_c, 3, 8064
3, 344880, Pitch_bend_c, 3, 7936
3, 345000, Pitch_bend_c, 3, 7680
3, 345120, Pitch_bend_c, 3, 7552
3, 345240, Pitch_bend_c, 3, 7424
3, 345360, Pitch_bend_c, 3, 7168
3, 345480, Pitch_bend_c, 3, 7040
3, 345600, Pitch_bend_c, 3, 6784
3, 345600, Pitch_bend_c, 3, 8192
3, 345600, Note_off_c, 3, 37, 95
3, 345600, Note_on_c, 2, 35, 95
3, 346560, Note_off_c, 2, 35, 95
3, 346560, Note_on_c, 2, 35, 95
3, 347520, Note_off_c, 2, 35, 95
3, 347520, Note_on_c, 2, 35, 95
3, 348480, Note_off_c, 2, 35, 95
3, 348480, Note_on_c, 2, 35, 95
3, 349440, Note_off_c, 2, 35, 95
3, 349440, Note_on_c, 2, 35, 95
3, 350400, Note_off_c, 2, 35, 95
3, 350400, Note_on_c, 2, 35, 95
3, 351360, Note_off_c, 2, 35, 95
3, 351360, Note_on_c, 2, 35, 95
3, 352320, Note_off_c, 2, 35, 95
3, 352320, Note_on_c, 2, 35, 95
3, 353280, Note_off_c, 2, 35, 95
3, 353280, Note_on_c, 2, 35, 95
3, 354240, Note_off_c, 2, 35, 95
3, 354240, Note_on_c, 2, 35, 95
3, 355200, Note_off_c, 2, 35, 95
3, 355200, Note_on_c, 2, 35, 95
3, 356160, Note_off_c, 2, 35, 95
3, 356160, Note_on_c, 2, 35, 95
3, 357120, Note_off_c, 2, 35, 95
3, 357120, Note_on_c, 2, 35, 95
3, 358080, Note_off_c, 2, 35, 95
3, 358080, Note_on_c, 2, 35, 95
3, 359040, Note_off_c, 2, 35, 95
3, 359040, Note_on_c, 2, 35, 95
3, 360000, Note_off_c, 2, 35, 95
3, 360000, Note_on_c, 3, 35, 95
3, 360120, Pitch_bend_c, 3, 8576
3, 360240, Pitch_bend_c, 3, 8960
3, 360360, Pitch_bend_c, 3, 9472
3, 360480, Pitch_bend_c, 3, 9856
3, 360600, Pitch_bend_c, 3, 10368
3, 360720, Pitch_bend_c, 3, 10752
3, 360840, Pitch_bend_c, 3, 11264
3, 360960, Pitch_bend_c, 3, 11648
3, 360960, Pitch_bend_c, 3, 8192
3, 360960, Note_off_c, 3, 35, 95
3, 360960, Note_on_c, 2, 40, 95
3, 361440, Note_off_c, 2, 40, 95
3, 361920, Note_on_c, 2, 40, 95
3, 362400, Note_off_c, 2, 40, 95
3, 362400, Note_on_c, 2, 38, 95
3, 362880, Note_off_c, 2, 38, 95
3, 362880, Note_on_c, 3, 34, 95
3, 363000, Pitch_bend_c, 3, 7936
3, 363120, Pitch_bend_c, 3, 7552
3, 363240, Pitch_bend_c, 3, 7168
3, 363360, Pitch_bend_c, 3, 6784
3, 363480, Pitch_bend_c, 3, 6528
3, 363600, Pitch_bend_c, 3, 6144
3, 363720, Pitch_bend_c, 3, 5760
3, 363840, Pitch_bend_c, 3, 5376
3, 363960, Pitch_bend_c, 3, 5120
3, 364080, Pitch_bend_c, 3, 4736
3, 364200, Pitch_bend_c, 3, 4352
3, 364320, Pitch_bend_c, 3, 3968
3, 364320, Pitch_bend_c, 3, 8192
3, 364320, Note_off_c, 3, 34, 95
3, 364320, Note_on_c, 2, 28, 95
3, 364800, Note_off_c, 2, 28, 95
3, 364800, Note_on_c, 2, 31, 95
3, 365280, Note_off_c, 2, 31, 95
3, 365760, Note_on_c, 2, 32, 95
3, 366240, Note_off_c, 2, 32, 95
3, 366240, Note_on_c, 2, 33, 95
3, 366720, Note_off_c, 2, 33, 95
3, 366720, Note_on_c, 2, 33, 95
3, 367200, Note_off_c, 2, 33, 95
3, 367200, Note_on_c, 2, 28, 95
3, 367680, Note_off_c, 2, 28, 95
3, 368160, Note_on_c, 2, 28, 47
3, 368640, Note_off_c, 2, 28, 47
3, 368640, Note_on_c, 2, 40, 95
3, 369120, Note_off_c, 2, 40, 95
3, 369600, Note_on_c, 2, 40, 95
3, 370080, Note_off_c, 2, 40, 95
3, 370080, Note_on_c, 2, 38, 95
3, 370560, Note_off_c, 2, 38, 95
3, 370560, Note_on_c, 3, 34, 95
3, 370680, Pitch_bend_c, 3, 7936
3, 370800, Pitch_bend_c, 3, 7552
3, 370920, Pitch_bend_c, 3, 7168
3, 371040, Pitch_bend_c, 3, 6784
3, 371160, Pitch_bend_c, 3, 6528
3, 371280, Pitch_bend_c, 3, 6144
3, 371400, Pitch_bend_c, 3, 5760
3, 371520, Pitch_bend_c, 3, 5376
3, 371640, Pitch_bend_c, 3, 5120
3, 371760, Pitch_bend_c, 3, 4736
3, 371880, Pitch_bend_c, 3, 4352
3, 372000, Pitch_bend_c, 3, 3968
3, 372000, Pitch_bend_c, 3, 8192
3, 372000, Note_off_c, 3, 34, 95
3, 372000, Note_on_c, 2, 28, 95
3, 372480, Note_off_c, 2, 28, 95
3, 372480, Note_on_c, 2, 31, 95
3, 372960, Note_off_c, 2, 31, 95
3, 373440, Note_on_c, 2, 32, 95
3, 373920, Note_off_c, 2, 32, 95
3, 373920, Note_on_c, 2, 33, 95
3, 374400, Note_off_c, 2, 33, 95
3, 374400, Note_on_c, 2, 33, 95
3, 374880, Note_off_c, 2, 33, 95
3, 374880, Note_on_c, 2, 28, 95
3, 375360, Note_off_c, 2, 28, 95
3, 375840, Note_on_c, 2, 28, 47
3, 376320, Note_off_c, 2, 28, 47
3, 376320, Note_on_c, 2, 40, 95
3, 376800, Note_off_c, 2, 40, 95
3, 377280, Note_on_c, 2, 40, 95
3, 377760, Note_off_c, 2, 40, 95
3, 377760, Note_on_c, 2, 38, 95
3, 378240, Note_off_c, 2, 38, 95
3, 378240, Note_on_c, 3, 34, 95
3, 378360, Pitch_bend_c, 3, 7936
3, 378480, Pitch_bend_c, 3, 7552
3, 378600, Pitch_bend_c, 3, 7168
3, 378720, Pitch_bend_c, 3, 6784
3, 378840, Pitch_bend_c, 3, 6528
3, 378960, Pitch_bend_c, 3, 6144
3, 379080, Pitch_bend_c, 3, 5760
3, 379200, Pitch_bend_c, 3, 5376
3, 379320, Pitch_bend_c, 3, 5120
3, 379440, Pitch_bend_c, 3, 4736
3, 379560, Pitch_bend_c, 3, 4352
3, 379680, Pitch_bend_c, 3, 3968
3, 379680, Pitch_bend_c, 3, 8192
3, 379680, Note_off_c, 3, 34, 95
3, 379680, Note_on_c, 2, 28, 95
3, 380160, Note_off_c, 2, 28, 95
3, 380160, Note_on_c, 2, 31, 95
3, 380640, Note_off_c, 2, 31, 95
3, 381120, Note_on_c, 2, 32, 95
3, 381600, Note_off_c, 2, 32, 95
3, 381600, Note_on_c, 2, 33, 95
3, 382080, Note_off_c, 2, 33, 95
3, 382080, Note_on_c, 2, 33, 95
3, 382560, Note_off_c, 2, 33, 95
3, 382560, Note_on_c, 2, 28, 95
3, 383040, Note_off_c, 2, 28, 95
3, 383520, Note_on_c, 2, 28, 47
3, 384000, Note_off_c, 2, 28, 47
3, 384000, Note_on_c, 2, 40, 95
3, 384480, Note_off_c, 2, 40, 95
3, 384960, Note_on_c, 2, 40, 95
3, 385440, Note_off_c, 2, 40, 95
3, 385440, Note_on_c, 2, 38, 95
3, 385920, Note_off_c, 2, 38, 95
3, 385920, Note_on_c, 3, 34, 95
3, 386040, Pitch_bend_c, 3, 7936
3, 386160, Pitch_bend_c, 3, 7552
3, 386280, Pitch_bend_c, 3, 7168
3, 386400, Pitch_bend_c, 3, 6784
3, 386520, Pitch_bend_c, 3, 6528
3, 386640, Pitch_bend_c, 3, 6144
3, 386760, Pitch_bend_c, 3, 5760
3, 386880, Pitch_bend_c, 3, 5376
3, 387000, Pitch_bend_c, 3, 5120
3, 387120, Pitch_bend_c, 3, 4736
3, 387240, Pitch_bend_c, 3, 4352
3, 387360, Pitch_bend_c, 3, 3968
3, 387360, Pitch_bend_c, 3, 8192
3, 387360, Note_off_c, 3, 34, 95
3, 387360, Note_on_c, 2, 28, 95
3, 387840, Note_off_c, 2, 28, 95
3, 387840, Note_on_c, 2, 31, 95
3, 388320, Note_off_c, 2, 31, 95
3, 388800, Note_on_c, 2, 32, 95
3, 389280, Note_off_c, 2, 32, 95
3, 389280, Note_on_c, 2, 33, 95
3, 389760, Note_off_c, 2, 33, 95
3, 389760, Note_on_c, 2, 33, 95
3, 390240, Note_off_c, 2, 33, 95
3, 390240, Note_on_c, 2, 28, 95
3, 390720, Note_off_c, 2, 28, 95
3, 391200, Note_on_c, 2, 28, 47
3, 391680, Note_off_c, 2, 28, 47
3, 391680, Note_on_c, 2, 40, 95
3, 392160, Note_off_c, 2, 40, 95
3, 392160, Note_on_c, 2, 38, 95
3, 392640, Note_off_c, 2, 38, 95
3, 392640, Note_on_c, 2, 40, 95
3, 393120, Note_off_c, 2, 40, 95
3, 393120, Note_on_c, 2, 38, 95
3, 393600, Note_off_c, 2, 38, 95
3, 393600, Note_on_c, 2, 40, 95
3, 394080, Note_off_c, 2, 40, 95
3, 395040, Note_on_c, 2, 38, 95
3, 395520, Note_off_c, 2, 38, 95
3, 395520, Note_on_c, 2, 40, 95
3, 396000, Note_off_c, 2, 40, 95
3, 396000, Note_on_c, 2, 38, 95
3, 396480, Note_off_c, 2, 38, 95
3, 396480, Note_on_c, 2, 40, 95
3, 396960, Note_off_c, 2, 40, 95
3, 398400, Note_on_c, 2, 28, 95
3, 398880, Note_off_c, 2, 28, 95
3, 398880, Note_on_c, 2, 28, 95
3, 399360, Note_off_c, 2, 28, 95
3, 399360, Note_on_c, 2, 28, 95
3, 399840, Note_off_c, 2, 28, 95
3, 399840, Note_on_c, 2, 38, 95
3, 400320, Note_off_c, 2, 38, 95
3, 400320, Note_on_c, 2, 40, 95
3, 400800, Note_off_c, 2, 40, 95
3, 400800, Note_on_c, 2, 38, 95
3, 401280, Note_off_c, 2, 38, 95
3, 401280, Note_on_c, 2, 40, 95
3, 401760, Note_off_c, 2, 40, 95
3, 402240, Note_on_c, 2, 28, 95
3, 402720, Note_off_c, 2, 28, 95
3, 402720, Note_on_c, 2, 38, 95
3, 403200, Note_off_c, 2, 38, 95
3, 403200, Note_on_c, 2, 40, 95
3, 403680, Note_off_c, 2, 40, 95
3, 403680, Note_on_c, 2, 38, 95
3, 404160, Note_off_c, 2, 38, 95
3, 404160, Note_on_c, 2, 40, 95
3, 404640, Note_off_c, 2, 40, 95
3, 404640, Note_on_c, 2, 28, 95
3, 405120, Note_off_c, 2, 28, 95
3, 405120, Note_on_c, 2, 36, 95
3, 406560, Note_off_c, 2, 36, 95
3, 406560, Note_on_c, 3, 35, 95
3, 408000, Note_off_c, 3, 35, 95
3, 409440, Note_on_c, 2, 38, 95
3, 409920, Note_off_c, 2, 38, 95
3, 409920, Note_on_c, 2, 40, 95
3, 410400, Note_off_c, 2, 40, 95
3, 410400, Note_on_c, 2, 38, 95
3, 410880, Note_off_c, 2, 38, 95
3, 410880, Note_on_c, 2, 40, 95
3, 411360, Note_off_c, 2, 40, 95
3, 412320, Note_on_c, 2, 38, 95
3, 412800, Note_off_c, 2, 38, 95
3, 412800, Note_on_c, 2, 40, 95
3, 413280, Note_off_c, 2, 40, 95
3, 413280, Note_on_c, 2, 38, 95
3, 413760, Note_off_c, 2, 38, 95
3, 413760, Note_on_c, 2, 40, 95
3, 414240, Note_off_c, 2, 40, 95
3, 414240, Note_on_c, 2, 28, 95
3, 414720, Note_off_c, 2, 28, 95
3, 414720, Note_on_c, 2, 28, 95
3, 415200, Note_off_c, 2, 28, 95
3, 415200, Note_on_c, 2, 40, 95
3, 415680, Note_off_c, 2, 40, 95
3, 415680, Note_on_c, 2, 40, 95
3, 416160, Note_off_c, 2, 40, 95
3, 416160, Note_on_c, 2, 28, 95
3, 416640, Note_off_c, 2, 28, 95
3, 416640, Note_on_c, 2, 28, 95
3, 417120, Note_off_c, 2, 28, 95
3, 417120, Note_on_c, 2, 38, 95
3, 417600, Note_off_c, 2, 38, 95
3, 417600, Note_on_c, 2, 40, 95
3, 418080, Note_off_c, 2, 40, 95
3, 418080, Note_on_c, 2, 38, 95
3, 418560, Note_off_c, 2, 38, 95
3, 418560, Note_on_c, 2, 40, 95
3, 419040, Note_off_c, 2, 40, 95
3, 419040, Note_on_c, 2, 28, 95
3, 419520, Note_off_c, 2, 28, 95
3, 420000, Note_on_c, 2, 38, 95
3, 420480, Note_off_c, 2, 38, 95
3, 420480, Note_on_c, 2, 40, 95
3, 420960, Note_off_c, 2, 40, 95
3, 420960, Note_on_c, 2, 38, 95
3, 421440, Note_off_c, 2, 38, 95
3, 421440, Note_on_c, 2, 40, 95
3, 421920, Note_off_c, 2, 40, 95
3, 421920, Note_on_c, 2, 28, 95
3, 422400, Note_off_c, 2, 28, 95
3, 422400, Note_on_c, 2, 36, 95
3, 423840, Note_off_c, 2, 36, 95
3, 423840, Note_on_c, 3, 35, 95
3, 425280, Note_off_c, 3, 35, 95
3, 426720, Note_on_c, 2, 38, 95
3, 427200, Note_off_c, 2, 38, 95
3, 427200, Note_on_c, 2, 40, 95
3, 427680, Note_off_c, 2, 40, 95
3, 427680, Note_on_c, 2, 38, 95
3, 428160, Note_off_c, 2, 38, 95
3, 428160, Note_on_c, 2, 40, 95
3, 428640, Note_off_c, 2, 40, 95
3, 428640, Note_on_c, 2, 28, 95
3, 429120, Note_off_c, 2, 28, 95
3, 429120, Note_on_c, 2, 28, 95
3, 429600, Note_off_c, 2, 28, 95
3, 429600, Note_on_c, 2, 38, 95
3, 430080, Note_off_c, 2, 38, 95
3, 430080, Note_on_c, 2, 40, 95
3, 430560, Note_off_c, 2, 40, 95
3, 430560, Note_on_c, 2, 38, 95
3, 431040, Note_off_c, 2, 38, 95
3, 431040, Note_on_c, 2, 40, 95
3, 431520, Note_off_c, 2, 40, 95
3, 431520, Note_on_c, 2, 28, 95
3, 432000, Note_off_c, 2, 28, 95
3, 432480, Note_on_c, 2, 28, 95
3, 432960, Note_off_c, 2, 28, 95
3, 432960, Note_on_c, 2, 28, 95
3, 433440, Note_off_c, 2, 28, 95
3, 433920, Note_on_c, 2, 28, 95
3, 434400, Note_off_c, 2, 28, 95
3, 434400, Note_on_c, 2, 38, 95
3, 434880, Note_off_c, 2, 38, 95
3, 434880, Note_on_c, 2, 40, 95
3, 435360, Note_off_c, 2, 40, 95
3, 435360, Note_on_c, 2, 38, 95
3, 435840, Note_off_c, 2, 38, 95
3, 435840, Note_on_c, 2, 40, 95
3, 436320, Note_off_c, 2, 40, 95
3, 436320, Note_on_c, 2, 28, 95
3, 436800, Note_off_c, 2, 28, 95
3, 436800, Note_on_c, 2, 28, 95
3, 437280, Note_off_c, 2, 28, 95
3, 437280, Note_on_c, 2, 38, 95
3, 437760, Note_off_c, 2, 38, 95
3, 437760, Note_on_c, 2, 40, 95
3, 438240, Note_off_c, 2, 40, 95
3, 438240, Note_on_c, 2, 38, 95
3, 438720, Note_off_c, 2, 38, 95
3, 438720, Note_on_c, 2, 40, 95
3, 439200, Note_off_c, 2, 40, 95
3, 439200, Note_on_c, 2, 28, 95
3, 439680, Note_off_c, 2, 28, 95
3, 439680, Note_on_c, 2, 36, 95
3, 441120, Note_off_c, 2, 36, 95
3, 441120, Note_on_c, 3, 35, 95
3, 442560, Note_off_c, 3, 35, 95
3, 444000, Note_on_c, 2, 38, 95
3, 444480, Note_off_c, 2, 38, 95
3, 444480, Note_on_c, 2, 40, 95
3, 444960, Note_off_c, 2, 40, 95
3, 444960, Note_on_c, 2, 38, 95
3, 445440, Note_off_c, 2, 38, 95
3, 445440, Note_on_c, 2, 40, 95
3, 445920, Note_off_c, 2, 40, 95
3, 446880, Note_on_c, 2, 38, 95
3, 447360, Note_off_c, 2, 38, 95
3, 447360, Note_on_c, 2, 40, 95
3, 447840, Note_off_c, 2, 40, 95
3, 447840, Note_on_c, 2, 38, 95
3, 448320, Note_off_c, 2, 38, 95
3, 448320, Note_on_c, 2, 40, 95
3, 448800, Note_off_c, 2, 40, 95
3, 450240, Note_on_c, 2, 28, 95
3, 450720, Note_off_c, 2, 28, 95
3, 450720, Note_on_c, 2, 28, 95
3, 451200, Note_off_c, 2, 28, 95
3, 451200, Note_on_c, 2, 28, 95
3, 451680, Note_off_c, 2, 28, 95
3, 451680, Note_on_c, 2, 38, 95
3, 452160, Note_off_c, 2, 38, 95
3, 452160, Note_on_c, 2, 40, 95
3, 452640, Note_off_c, 2, 40, 95
3, 452640, Note_on_c, 2, 38, 95
3, 453120, Note_off_c, 2, 38, 95
3, 453120, Note_on_c, 2, 40, 95
3, 453600, Note_off_c, 2, 40, 95
3, 453600, Note_on_c, 2, 28, 95
3, 454080, Note_off_c, 2, 28, 95
3, 454560, Note_on_c, 2, 38, 95
3, 455040, Note_off_c, 2, 38, 95
3, 455040, Note_on_c, 2, 40, 95
3, 455520, Note_off_c, 2, 40, 95
3, 455520, Note_on_c, 2, 38, 95
3, 456000, Note_off_c, 2, 38, 95
3, 456000, Note_on_c, 2, 40, 95
3, 456480, Note_off_c, 2, 40, 95
3, 456480, Note_on_c, 2, 28, 95
3, 456960, Note_off_c, 2, 28, 95
3, 456960, Note_on_c, 2, 36, 95
3, 458400, Note_off_c, 2, 36, 95
3, 458400, Note_on_c, 3, 35, 95
3, 458520, Pitch_bend_c, 3, 8064
3, 458640, Pitch_bend_c, 3, 7808
3, 458760, Pitch_bend_c, 3, 7552
3, 458880, Pitch_bend_c, 3, 7296
3, 459000, Pitch_bend_c, 3, 7040
3, 459120, Pitch_bend_c, 3, 6784
3, 459240, Pitch_bend_c, 3, 6656
3, 459360, Pitch_bend_c, 3, 6400
3, 459480, Pitch_bend_c, 3, 6144
3, 459600, Pitch_bend_c, 3, 5888
3, 459720, Pitch_bend_c, 3, 5632
3, 459840, Pitch_bend_c, 3, 5376
3, 459840, Pitch_bend_c, 3, 8192
3, 459840, Note_off_c, 3, 35, 95
3, 459840, Note_on_c, 2, 31, 95
3, 460320, Note_off_c, 2, 31, 95
3, 460800, Note_on_c, 2, 31, 95
3, 461280, Note_off_c, 2, 31, 95
3, 461280, Note_on_c, 2, 30, 95
3, 461760, Note_off_c, 2, 30, 95
3, 461760, Note_on_c, 2, 28, 95
3, 462240, Note_off_c, 2, 28, 95
3, 462720, Note_on_c, 2, 40, 95
3, 463680, Note_off_c, 2, 40, 95
3, 463680, Note_on_c, 2, 40, 95
3, 464160, Note_off_c, 2, 40, 95
3, 464160, Note_on_c, 2, 38, 95
3, 464640, Note_off_c, 2, 38, 95
3, 464640, Note_on_c, 3, 34, 95
3, 464760, Pitch_bend_c, 3, 7936
3, 464880, Pitch_bend_c, 3, 7552
3, 465000, Pitch_bend_c, 3, 7168
3, 465120, Pitch_bend_c, 3, 6784
3, 465240, Pitch_bend_c, 3, 6528
3, 465360, Pitch_bend_c, 3, 6144
3, 465480, Pitch_bend_c, 3, 5760
3, 465600, Pitch_bend_c, 3, 5376
3, 465720, Pitch_bend_c, 3, 5120
3, 465840, Pitch_bend_c, 3, 4736
3, 465960, Pitch_bend_c, 3, 4352
3, 466080, Pitch_bend_c, 3, 3968
3, 466080, Pitch_bend_c, 3, 8192
3, 466080, Note_off_c, 3, 34, 95
3, 466080, Note_on_c, 2, 28, 95
3, 466560, Note_off_c, 2, 28, 95
3, 466560, Note_on_c, 2, 31, 95
3, 467520, Note_off_c, 2, 31, 95
3, 467520, Note_on_c, 2, 32, 95
3, 468000, Note_off_c, 2, 32, 95
3, 468000, Note_on_c, 2, 33, 95
3, 468480, Note_off_c, 2, 33, 95
3, 468480, Note_on_c, 2, 33, 95
3, 468960, Note_off_c, 2, 33, 95
3, 468960, Note_on_c, 2, 28, 95
3, 469920, Note_off_c, 2, 28, 95
3, 469920, Note_on_c, 2, 28, 47
3, 470400, Note_off_c, 2, 28, 47
3, 470400, Note_on_c, 2, 40, 95
3, 471360, Note_off_c, 2, 40, 95
3, 471360, Note_on_c, 2, 40, 95
3, 471840, Note_off_c, 2, 40, 95
3, 471840, Note_on_c, 2, 38, 95
3, 472320, Note_off_c, 2, 38, 95
3, 472320, Note_on_c, 3, 34, 95
3, 472440, Pitch_bend_c, 3, 7936
3, 472560, Pitch_bend_c, 3, 7552
3, 472680, Pitch_bend_c, 3, 7168
3, 472800, Pitch_bend_c, 3, 6784
3, 472920, Pitch_bend_c, 3, 6528
3, 473040, Pitch_bend_c, 3, 6144
3, 473160, Pitch_bend_c, 3, 5760
3, 473280, Pitch_bend_c, 3, 5376
3, 473400, Pitch_bend_c, 3, 5120
3, 473520, Pitch_bend_c, 3, 4736
3, 473640, Pitch_bend_c, 3, 4352
3, 473760, Pitch_bend_c, 3, 3968
3, 473760, Pitch_bend_c, 3, 8192
3, 473760, Note_off_c, 3, 34, 95
3, 473760, Note_on_c, 2, 28, 95
3, 474240, Note_off_c, 2, 28, 95
3, 474240, Note_on_c, 2, 31, 95
3, 475200, Note_off_c, 2, 31, 95
3, 475200, Note_on_c, 2, 32, 95
3, 475680, Note_off_c, 2, 32, 95
3, 475680, Note_on_c, 2, 33, 95
3, 476160, Note_off_c, 2, 33, 95
3, 476160, Note_on_c, 2, 33, 95
3, 476640, Note_off_c, 2, 33, 95
3, 476640, Note_on_c, 2, 28, 95
3, 477600, Note_off_c, 2, 28, 95
3, 477600, Note_on_c, 2, 28, 47
3, 478080, Note_off_c, 2, 28, 47
3, 478080, Note_on_c, 2, 40, 95
3, 479040, Note_off_c, 2, 40, 95
3, 479040, Note_on_c, 2, 40, 95
3, 479520, Note_off_c, 2, 40, 95
3, 479520, Note_on_c, 2, 38, 95
3, 480000, Note_off_c, 2, 38, 95
3, 480000, Note_on_c, 3, 34, 95
3, 480120, Pitch_bend_c, 3, 7936
3, 480240, Pitch_bend_c, 3, 7552
3, 480360, Pitch_bend_c, 3, 7168
3, 480480, Pitch_bend_c, 3, 6784
3, 480600, Pitch_bend_c, 3, 6528
3, 480720, Pitch_bend_c, 3, 6144
3, 480840, Pitch_bend_c, 3, 5760
3, 480960, Pitch_bend_c, 3, 5376
3, 481080, Pitch_bend_c, 3, 5120
3, 481200, Pitch_bend_c, 3, 4736
3, 481320, Pitch_bend_c, 3, 4352
3, 481440, Pitch_bend_c, 3, 3968
3, 481440, Pitch_bend_c, 3, 8192
3, 481440, Note_off_c, 3, 34, 95
3, 481440, Note_on_c, 2, 28, 95
3, 481920, Note_off_c, 2, 28, 95
3, 481920, Note_on_c, 2, 31, 95
3, 482880, Note_off_c, 2, 31, 95
3, 482880, Note_on_c, 2, 32, 95
3, 483360, Note_off_c, 2, 32, 95
3, 483360, Note_on_c, 2, 33, 95
3, 483840, Note_off_c, 2, 33, 95
3, 483840, Note_on_c, 2, 33, 95
3, 484320, Note_off_c, 2, 33, 95
3, 484320, Note_on_c, 2, 28, 95
3, 485280, Note_off_c, 2, 28, 95
3, 485280, Note_on_c, 2, 28, 47
3, 485760, Note_off_c, 2, 28, 47
3, 485760, Note_on_c, 2, 40, 95
3, 486720, Note_off_c, 2, 40, 95
3, 486720, Note_on_c, 2, 40, 95
3, 487200, Note_off_c, 2, 40, 95
3, 487200, Note_on_c, 2, 38, 95
3, 487680, Note_off_c, 2, 38, 95
3, 487680, Note_on_c, 3, 34, 95
3, 487800, Pitch_bend_c, 3, 7936
3, 487920, Pitch_bend_c, 3, 7552
3, 488040, Pitch_bend_c, 3, 7168
3, 488160, Pitch_bend_c, 3, 6784
3, 488280, Pitch_bend_c, 3, 6528
3, 488400, Pitch_bend_c, 3, 6144
3, 488520, Pitch_bend_c, 3, 5760
3, 488640, Pitch_bend_c, 3, 5376
3, 488760, Pitch_bend_c, 3, 5120
3, 488880, Pitch_bend_c, 3, 4736
3, 489000, Pitch_bend_c, 3, 4352
3, 489120, Pitch_bend_c, 3, 3968
3, 489120, Pitch_bend_c, 3, 8192
3, 489120, Note_off_c, 3, 34, 95
3, 489120, Note_on_c, 2, 28, 95
3, 489600, Note_off_c, 2, 28, 95
3, 489600, Note_on_c, 2, 31, 95
3, 490560, Note_off_c, 2, 31, 95
3, 490560, Note_on_c, 2, 32, 95
3, 491040, Note_off_c, 2, 32, 95
3, 491040, Note_on_c, 2, 33, 95
3, 491520, Note_off_c, 2, 33, 95
3, 491520, Note_on_c, 2, 33, 95
3, 492000, Note_off_c, 2, 33, 95
3, 492000, Note_on_c, 2, 28, 95
3, 492960, Note_off_c, 2, 28, 95
3, 492960, Note_on_c, 2, 28, 47
3, 493440, Note_off_c, 2, 28, 47
3, 493440, End_track
4, 0, Start_track
4, 0, Pitch_bend_c, 9, 8192
4, 0, Control_c, 9, 7, 79
4, 0, Control_c, 9, 10, 63
4, 0, Control_c, 9, 93, 0
4, 0, Control_c, 9, 91, 0
4, 0, Control_c, 9, 95, 0
4, 0, Control_c, 9, 92, 0
4, 0, Control_c, 9, 11, 127
4, 0, Program_c, 9, 0
4, 13920, Note_on_c, 9, 40, 95
4, 14160, Note_off_c, 9, 40, 95
4, 14400, Note_on_c, 9, 40, 95
4, 14640, Note_off_c, 9, 40, 95
4, 14640, Note_on_c, 9, 40, 95
4, 14880, Note_off_c, 9, 40, 95
4, 14880, Note_on_c, 9, 40, 95
4, 15120, Note_off_c, 9, 40, 95
4, 15360, Note_on_c, 9, 57, 95
4, 15360, Note_on_c, 9, 51, 95
4, 15360, Note_on_c, 9, 36, 95
4, 15840, Note_off_c, 9, 57, 95
4, 15840, Note_off_c, 9, 51, 95
4, 15840, Note_off_c, 9, 36, 95
4, 16320, Note_on_c, 9, 51, 95
4, 16800, Note_off_c, 9, 51, 95
4, 17280, Note_on_c, 9, 51, 95
4, 17280, Note_on_c, 9, 40, 95
4, 17760, Note_off_c, 9, 51, 95
4, 17760, Note_off_c, 9, 40, 95
4, 18240, Note_on_c, 9, 51, 95
4, 18720, Note_off_c, 9, 51, 95
4, 19200, Note_on_c, 9, 51, 95
4, 19200, Note_on_c, 9, 36, 95
4, 19680, Note_off_c, 9, 51, 95
4, 19680, Note_off_c, 9, 36, 95
4, 20160, Note_on_c, 9, 51, 95
4, 20640, Note_off_c, 9, 51, 95
4, 21120, Note_on_c, 9, 51, 95
4, 21120, Note_on_c, 9, 40, 95
4, 21600, Note_off_c, 9, 51, 95
4, 21600, Note_off_c, 9, 40, 95
4, 21600, Note_on_c, 9, 57, 95
4, 21600, Note_on_c, 9, 36, 95
4, 22080, Note_off_c, 9, 57, 95
4, 22080, Note_off_c, 9, 36, 95
4, 22080, Note_on_c, 9, 51, 95
4, 22560, Note_off_c, 9, 51, 95
4, 22560, Note_on_c, 9, 36, 95
4, 23040, Note_off_c, 9, 36, 95
4, 23040, Note_on_c, 9, 57, 95
4, 23040, Note_on_c, 9, 51, 95
4, 23040, Note_on_c, 9, 36, 95
4, 23520, Note_off_c, 9, 57, 95
4, 23520, Note_off_c, 9, 51, 95
4, 23520, Note_off_c, 9, 36, 95
4, 24000, Note_on_c, 9, 51, 95
4, 24480, Note_off_c, 9, 51, 95
4, 24960, Note_on_c, 9, 51, 95
4, 24960, Note_on_c, 9, 40, 95
4, 25440, Note_off_c, 9, 51, 95
4, 25440, Note_off_c, 9, 40, 95
4, 25920, Note_on_c, 9, 51, 95
4, 26400, Note_off_c, 9, 51, 95
4, 26880, Note_on_c, 9, 51, 95
4, 26880, Note_on_c, 9, 36, 95
4, 27360, Note_off_c, 9, 51, 95
4, 27360, Note_off_c, 9, 36, 95
4, 27840, Note_on_c, 9, 51, 95
4, 28320, Note_off_c, 9, 51, 95
4, 28800, Note_on_c, 9, 51, 95
4, 28800, Note_on_c, 9, 40, 95
4, 29280, Note_off_c, 9, 51, 95
4, 29280, Note_off_c, 9, 40, 95
4, 29280, Note_on_c, 9, 57, 95
4, 29280, Note_on_c, 9, 36, 95
4, 29760, Note_off_c, 9, 57, 95
4, 29760, Note_off_c, 9, 36, 95
4, 29760, Note_on_c, 9, 51, 95
4, 30240, Note_off_c, 9, 51, 95
4, 30240, Note_on_c, 9, 36, 95
4, 30720, Note_off_c, 9, 36, 95
4, 30720, Note_on_c, 9, 57, 95
4, 30720, Note_on_c, 9, 51, 95
4, 30720, Note_on_c, 9, 36, 95
4, 31200, Note_off_c, 9, 57, 95
4, 31200, Note_off_c, 9, 51, 95
4, 31200, Note_off_c, 9, 36, 95
4, 31680, Note_on_c, 9, 51, 95
4, 32160, Note_off_c, 9, 51, 95
4, 32640, Note_on_c, 9, 51, 95
4, 32640, Note_on_c, 9, 40, 95
4, 33120, Note_off_c, 9, 51, 95
4, 33120, Note_off_c, 9, 40, 95
4, 33600, Note_on_c, 9, 51, 95
4, 34080, Note_off_c, 9, 51, 95
4, 34560, Note_on_c, 9, 51, 95
4, 34560, Note_on_c, 9, 36, 95
4, 35040, Note_off_c, 9, 51, 95
4, 35040, Note_off_c, 9, 36, 95
4, 35520, Note_on_c, 9, 51, 95
4, 36000, Note_off_c, 9, 51, 95
4, 36480, Note_on_c, 9, 51, 95
4, 36480, Note_on_c, 9, 40, 95
4, 36960, Note_off_c, 9, 51, 95
4, 36960, Note_off_c, 9, 40, 95
4, 36960, Note_on_c, 9, 57, 95
4, 36960, Note_on_c, 9, 36, 95
4, 37440, Note_off_c, 9, 57, 95
4, 37440, Note_off_c, 9, 36, 95
4, 37440, Note_on_c, 9, 51, 95
4, 37920, Note_off_c, 9, 51, 95
4, 37920, Note_on_c, 9, 36, 95
4, 38400, Note_off_c, 9, 36, 95
4, 38400, Note_on_c, 9, 57, 95
4, 38400, Note_on_c, 9, 51, 95
4, 38400, Note_on_c, 9, 36, 95
4, 38880, Note_off_c, 9, 57, 95
4, 38880, Note_off_c, 9, 51, 95
4, 38880, Note_off_c, 9, 36, 95
4, 39360, Note_on_c, 9, 51, 95
4, 39840, Note_off_c, 9, 51, 95
4, 40320, Note_on_c, 9, 51, 95
4, 40320, Note_on_c, 9, 40, 95
4, 40800, Note_off_c, 9, 51, 95
4, 40800, Note_off_c, 9, 40, 95
4, 41280, Note_on_c, 9, 51, 95
4, 41760, Note_off_c, 9, 51, 95
4, 42240, Note_on_c, 9, 51, 95
4, 42240, Note_on_c, 9, 36, 95
4, 42720, Note_off_c, 9, 51, 95
4, 42720, Note_off_c, 9, 36, 95
4, 43200, Note_on_c, 9, 51, 95
4, 43680, Note_off_c, 9, 51, 95
4, 44160, Note_on_c, 9, 51, 95
4, 44160, Note_on_c, 9, 40, 95
4, 44640, Note_off_c, 9, 51, 95
4, 44640, Note_off_c, 9, 40, 95
4, 44640, Note_on_c, 9, 57, 95
4, 44640, Note_on_c, 9, 36, 95
4, 45120, Note_off_c, 9, 57, 95
4, 45120, Note_off_c, 9, 36, 95
4, 45120, Note_on_c, 9, 51, 95
4, 45600, Note_off_c, 9, 51, 95
4, 45600, Note_on_c, 9, 36, 95
4, 46080, Note_off_c, 9, 36, 95
4, 46080, Note_on_c, 9, 49, 95
4, 46080, Note_on_c, 9, 36, 95
4, 49920, Note_off_c, 9, 49, 95
4, 49920, Note_off_c, 9, 36, 95
4, 80640, Note_on_c, 9, 57, 95
4, 80640, Note_on_c, 9, 42, 95
4, 80640, Note_on_c, 9, 36, 95
4, 81600, Note_off_c, 9, 57, 95
4, 81600, Note_off_c, 9, 42, 95
4, 81600, Note_off_c, 9, 36, 95
4, 81600, Note_on_c, 9, 42, 95
4, 82560, Note_off_c, 9, 42, 95
4, 82560, Note_on_c, 9, 42, 95
4, 82560, Note_on_c, 9, 40, 95
4, 83520, Note_off_c, 9, 42, 95
4, 83520, Note_off_c, 9, 40, 95
4, 83520, Note_on_c, 9, 42, 95
4, 84480, Note_off_c, 9, 42, 95
4, 84480, Note_on_c, 9, 42, 95
4, 84480, Note_on_c, 9, 36, 95
4, 85440, Note_off_c, 9, 42, 95
4, 85440, Note_off_c, 9, 36, 95
4, 85440, Note_on_c, 9, 42, 95
4, 86400, Note_off_c, 9, 42, 95
4, 86400, Note_on_c, 9, 42, 95
4, 86400, Note_on_c, 9, 40, 95
4, 87360, Note_off_c, 9, 42, 95
4, 87360, Note_off_c, 9, 40, 95
4, 87360, Note_on_c, 9, 42, 95
4, 88320, Note_off_c, 9, 42, 95
4, 88320, Note_on_c, 9, 42, 95
4, 88320, Note_on_c, 9, 36, 95
4, 89280, Note_off_c, 9, 42, 95
4, 89280, Note_off_c, 9, 36, 95
4, 89280, Note_on_c, 9, 42, 95
4, 90240, Note_off_c, 9, 42, 95
4, 90240, Note_on_c, 9, 42, 95
4, 90240, Note_on_c, 9, 40, 95
4, 91200, Note_off_c, 9, 42, 95
4, 91200, Note_off_c, 9, 40, 95
4, 91200, Note_on_c, 9, 42, 95
4, 92160, Note_off_c, 9, 42, 95
4, 92160, Note_on_c, 9, 42, 95
4, 92160, Note_on_c, 9, 36, 95
4, 93120, Note_off_c, 9, 42, 95
4, 93120, Note_off_c, 9, 36, 95
4, 93120, Note_on_c, 9, 42, 95
4, 94080, Note_off_c, 9, 42, 95
4, 94080, Note_on_c, 9, 42, 95
4, 94080, Note_on_c, 9, 40, 95
4, 95040, Note_off_c, 9, 42, 95
4, 95040, Note_off_c, 9, 40, 95
4, 95040, Note_on_c, 9, 42, 95
4, 96000, Note_off_c, 9, 42, 95
4, 96000, Note_on_c, 9, 42, 95
4, 96000, Note_on_c, 9, 36, 95
4, 96960, Note_off_c, 9, 42, 95
4, 96960, Note_off_c, 9, 36, 95
4, 96960, Note_on_c, 9, 42, 95
4, 97920, Note_off_c, 9, 42, 95
4, 97920, Note_on_c, 9, 42, 95
4, 97920, Note_on_c, 9, 40, 95
4, 98880, Note_off_c, 9, 42, 95
4, 98880, Note_off_c, 9, 40, 95
4, 98880, Note_on_c, 9, 42, 95
4, 99840, Note_off_c, 9, 42, 95
4, 99840, Note_on_c, 9, 42, 95
4, 99840, Note_on_c, 9, 36, 95
4, 100800, Note_off_c, 9, 42, 95
4, 100800, Note_off_c, 9, 36, 95
4, 100800, Note_on_c, 9, 42, 95
4, 101760, Note_off_c, 9, 42, 95
4, 101760, Note_on_c, 9, 42, 95
4, 101760, Note_on_c, 9, 40, 95
4, 102720, Note_off_c, 9, 42, 95
4, 102720, Note_off_c, 9, 40, 95
4, 102720, Note_on_c, 9, 42, 95
4, 103680, Note_off_c, 9, 42, 95
4, 103680, Note_on_c, 9, 42, 95
4, 103680, Note_on_c, 9, 36, 95
4, 104640, Note_off_c, 9, 42, 95
4, 104640, Note_off_c, 9, 36, 95
4, 104640, Note_on_c, 9, 42, 95
4, 105600, Note_off_c, 9, 42, 95
4, 105600, Note_on_c, 9, 42, 95
4, 105600, Note_on_c, 9, 40, 95
4, 106560, Note_off_c, 9, 42, 95
4, 106560, Note_off_c, 9, 40, 95
4, 106560, Note_on_c, 9, 42, 95
4, 107520, Note_off_c, 9, 42, 95
4, 107520, Note_on_c, 9, 42, 95
4, 107520, Note_on_c, 9, 36, 95
4, 108480, Note_off_c, 9, 42, 95
4, 108480, Note_off_c, 9, 36, 95
4, 108480, Note_on_c, 9, 42, 95
4, 109440, Note_off_c, 9, 42, 95
4, 109440, Note_on_c, 9, 42, 95
4, 109440, Note_on_c, 9, 40, 95
4, 110400, Note_off_c, 9, 42, 95
4, 110400, Note_off_c, 9, 40, 95
4, 110400, Note_on_c, 9, 42, 95
4, 111360, Note_off_c, 9, 42, 95
4, 111360, Note_on_c, 9, 42, 95
4, 111360, Note_on_c, 9, 36, 95
4, 112320, Note_off_c, 9, 42, 95
4, 112320, Note_off_c, 9, 36, 95
4, 112320, Note_on_c, 9, 42, 95
4, 113280, Note_off_c, 9, 42, 95
4, 113280, Note_on_c, 9, 42, 95
4, 113280, Note_on_c, 9, 40, 95
4, 114240, Note_off_c, 9, 42, 95
4, 114240, Note_off_c, 9, 40, 95
4, 114240, Note_on_c, 9, 42, 95
4, 115200, Note_off_c, 9, 42, 95
4, 115200, Note_on_c, 9, 42, 95
4, 115200, Note_on_c, 9, 36, 95
4, 116160, Note_off_c, 9, 42, 95
4, 116160, Note_off_c, 9, 36, 95
4, 116160, Note_on_c, 9, 42, 95
4, 117120, Note_off_c, 9, 42, 95
4, 117120, Note_on_c, 9, 42, 95
4, 117120, Note_on_c, 9, 40, 95
4, 118080, Note_off_c, 9, 42, 95
4, 118080, Note_off_c, 9, 40, 95
4, 118080, Note_on_c, 9, 42, 95
4, 119040, Note_off_c, 9, 42, 95
4, 119040, Note_on_c, 9, 42, 95
4, 119040, Note_on_c, 9, 36, 95
4, 120000, Note_off_c, 9, 42, 95
4, 120000, Note_off_c, 9, 36, 95
4, 120000, Note_on_c, 9, 42, 95
4, 120960, Note_off_c, 9, 42, 95
4, 120960, Note_on_c, 9, 42, 95
4, 120960, Note_on_c, 9, 40, 95
4, 121920, Note_off_c, 9, 42, 95
4, 121920, Note_off_c, 9, 40, 95
4, 121920, Note_on_c, 9, 42, 95
4, 122880, Note_off_c, 9, 42, 95
4, 122880, Note_on_c, 9, 42, 95
4, 122880, Note_on_c, 9, 36, 95
4, 123840, Note_off_c, 9, 42, 95
4, 123840, Note_off_c, 9, 36, 95
4, 123840, Note_on_c, 9, 42, 95
4, 124800, Note_off_c, 9, 42, 95
4, 124800, Note_on_c, 9, 42, 95
4, 124800, Note_on_c, 9, 40, 95
4, 125760, Note_off_c, 9, 42, 95
4, 125760, Note_off_c, 9, 40, 95
4, 125760, Note_on_c, 9, 42, 95
4, 126720, Note_off_c, 9, 42, 95
4, 126720, Note_on_c, 9, 42, 95
4, 126720, Note_on_c, 9, 36, 95
4, 127680, Note_off_c, 9, 42, 95
4, 127680, Note_off_c, 9, 36, 95
4, 127680, Note_on_c, 9, 42, 95
4, 128640, Note_off_c, 9, 42, 95
4, 128640, Note_on_c, 9, 42, 95
4, 128640, Note_on_c, 9, 40, 95
4, 129600, Note_off_c, 9, 42, 95
4, 129600, Note_off_c, 9, 40, 95
4, 129600, Note_on_c, 9, 42, 95
4, 130560, Note_off_c, 9, 42, 95
4, 130560, Note_on_c, 9, 42, 95
4, 130560, Note_on_c, 9, 36, 95
4, 131520, Note_off_c, 9, 42, 95
4, 131520, Note_off_c, 9, 36, 95
4, 131520, Note_on_c, 9, 42, 95
4, 132480, Note_off_c, 9, 42, 95
4, 132480, Note_on_c, 9, 42, 95
4, 132480, Note_on_c, 9, 40, 95
4, 133440, Note_off_c, 9, 42, 95
4, 133440, Note_off_c, 9, 40, 95
4, 133440, Note_on_c, 9, 42, 95
4, 134400, Note_off_c, 9, 42, 95
4, 134400, Note_on_c, 9, 42, 95
4, 134400, Note_on_c, 9, 36, 95
4, 135360, Note_off_c, 9, 42, 95
4, 135360, Note_off_c, 9, 36, 95
4, 135360, Note_on_c, 9, 42, 95
4, 136320, Note_off_c, 9, 42, 95
4, 136320, Note_on_c, 9, 42, 95
4, 136320, Note_on_c, 9, 40, 95
4, 137280, Note_off_c, 9, 42, 95
4, 137280, Note_off_c, 9, 40, 95
4, 137280, Note_on_c, 9, 42, 95
4, 138240, Note_off_c, 9, 42, 95
4, 138240, Note_on_c, 9, 42, 95
4, 138240, Note_on_c, 9, 36, 95
4, 139200, Note_off_c, 9, 42, 95
4, 139200, Note_off_c, 9, 36, 95
4, 139200, Note_on_c, 9, 42, 95
4, 140160, Note_off_c, 9, 42, 95
4, 140160, Note_on_c, 9, 42, 95
4, 140160, Note_on_c, 9, 40, 95
4, 141120, Note_off_c, 9, 42, 95
4, 141120, Note_off_c, 9, 40, 95
4, 141120, Note_on_c, 9, 42, 95
4, 142080, Note_off_c, 9, 42, 95
4, 142080, Note_on_c, 9, 42, 95
4, 142080, Note_on_c, 9, 36, 95
4, 143040, Note_off_c, 9, 42, 95
4, 143040, Note_off_c, 9, 36, 95
4, 143040, Note_on_c, 9, 42, 95
4, 144000, Note_off_c, 9, 42, 95
4, 144000, Note_on_c, 9, 42, 95
4, 144000, Note_on_c, 9, 40, 95
4, 144960, Note_off_c, 9, 42, 95
4, 144960, Note_off_c, 9, 40, 95
4, 144960, Note_on_c, 9, 42, 95
4, 145920, Note_off_c, 9, 42, 95
4, 145920, Note_on_c, 9, 42, 95
4, 145920, Note_on_c, 9, 36, 95
4, 146880, Note_off_c, 9, 42, 95
4, 146880, Note_off_c, 9, 36, 95
4, 146880, Note_on_c, 9, 42, 95
4, 147840, Note_off_c, 9, 42, 95
4, 147840, Note_on_c, 9, 42, 95
4, 147840, Note_on_c, 9, 40, 95
4, 148800, Note_off_c, 9, 42, 95
4, 148800, Note_off_c, 9, 40, 95
4, 148800, Note_on_c, 9, 57, 95
4, 148800, Note_on_c, 9, 49, 95
4, 148800, Note_on_c, 9, 42, 95
4, 148800, Note_on_c, 9, 36, 95
4, 149280, Note_off_c, 9, 57, 95
4, 149280, Note_off_c, 9, 49, 95
4, 149280, Note_off_c, 9, 42, 95
4, 149280, Note_off_c, 9, 36, 95
4, 149760, Note_on_c, 9, 57, 95
4, 149760, Note_on_c, 9, 49, 95
4, 149760, Note_on_c, 9, 42, 95
4, 149760, Note_on_c, 9, 36, 95
4, 150240, Note_off_c, 9, 57, 95
4, 150240, Note_off_c, 9, 49, 95
4, 150240, Note_off_c, 9, 42, 95
4, 150240, Note_off_c, 9, 36, 95
4, 150240, Note_on_c, 9, 57, 95
4, 150240, Note_on_c, 9, 49, 95
4, 150240, Note_on_c, 9, 42, 95
4, 150240, Note_on_c, 9, 36, 95
4, 150720, Note_off_c, 9, 57, 95
4, 150720, Note_off_c, 9, 49, 95
4, 150720, Note_off_c, 9, 42, 95
4, 150720, Note_off_c, 9, 36, 95
4, 150720, Note_on_c, 9, 57, 95
4, 150720, Note_on_c, 9, 49, 95
4, 150720, Note_on_c, 9, 42, 95
4, 150720, Note_on_c, 9, 36, 95
4, 151200, Note_off_c, 9, 57, 95
4, 151200, Note_off_c, 9, 49, 95
4, 151200, Note_off_c, 9, 42, 95
4, 151200, Note_off_c, 9, 36, 95
4, 151680, Note_on_c, 9, 57, 95
4, 151680, Note_on_c, 9, 51, 95
4, 151680, Note_on_c, 9, 36, 95
4, 152160, Note_off_c, 9, 57, 95
4, 152160, Note_off_c, 9, 51, 95
4, 152160, Note_off_c, 9, 36, 95
4, 152640, Note_on_c, 9, 51, 95
4, 153120, Note_off_c, 9, 51, 95
4, 153600, Note_on_c, 9, 51, 95
4, 153600, Note_on_c, 9, 40, 95
4, 154080, Note_off_c, 9, 51, 95
4, 154080, Note_off_c, 9, 40, 95
4, 154560, Note_on_c, 9, 51, 95
4, 155040, Note_off_c, 9, 51, 95
4, 155520, Note_on_c, 9, 51, 95
4, 155520, Note_on_c, 9, 36, 95
4, 156000, Note_off_c, 9, 51, 95
4, 156000, Note_off_c, 9, 36, 95
4, 156480, Note_on_c, 9, 51, 95
4, 156960, Note_off_c, 9, 51, 95
4, 157440, Note_on_c, 9, 51, 95
4, 157440, Note_on_c, 9, 40, 95
4, 157920, Note_off_c, 9, 51, 95
4, 157920, Note_off_c, 9, 40, 95
4, 157920, Note_on_c, 9, 57, 95
4, 157920, Note_on_c, 9, 36, 95
4, 158400, Note_off_c, 9, 57, 95
4, 158400, Note_off_c, 9, 36, 95
4, 158400, Note_on_c, 9, 51, 95
4, 158880, Note_off_c, 9, 51, 95
4, 158880, Note_on_c, 9, 36, 95
4, 159360, Note_off_c, 9, 36, 95
4, 159360, Note_on_c, 9, 57, 95
4, 159360, Note_on_c, 9, 51, 95
4, 159360, Note_on_c, 9, 36, 95
4, 159840, Note_off_c, 9, 57, 95
4, 159840, Note_off_c, 9, 51, 95
4, 159840, Note_off_c, 9, 36, 95
4, 160320, Note_on_c, 9, 51, 95
4, 160800, Note_off_c, 9, 51, 95
4, 161280, Note_on_c, 9, 51, 95
4, 161280, Note_on_c, 9, 40, 95
4, 161760, Note_off_c, 9, 51, 95
4, 161760, Note_off_c, 9, 40, 95
4, 162240, Note_on_c, 9, 51, 95
4, 162720, Note_off_c, 9, 51, 95
4, 163200, Note_on_c, 9, 51, 95
4, 163200, Note_on_c, 9, 36, 95
4, 163680, Note_off_c, 9, 51, 95
4, 163680, Note_off_c, 9, 36, 95
4, 164160, Note_on_c, 9, 51, 95
4, 164640, Note_off_c, 9, 51, 95
4, 165120, Note_on_c, 9, 51, 95
4, 165120, Note_on_c, 9, 40, 95
4, 165600, Note_off_c, 9, 51, 95
4, 165600, Note_off_c, 9, 40, 95
4, 165600, Note_on_c, 9, 57, 95
4, 165600, Note_on_c, 9, 36, 95
4, 166080, Note_off_c, 9, 57, 95
4, 166080, Note_off_c, 9, 36, 95
4, 166080, Note_on_c, 9, 51, 95
4, 166560, Note_off_c, 9, 51, 95
4, 166560, Note_on_c, 9, 36, 95
4, 167040, Note_off_c, 9, 36, 95
4, 167040, Note_on_c, 9, 57, 95
4, 167040, Note_on_c, 9, 51, 95
4, 167040, Note_on_c, 9, 36, 95
4, 167520, Note_off_c, 9, 57, 95
4, 167520, Note_off_c, 9, 51, 95
4, 167520, Note_off_c, 9, 36, 95
4, 168000, Note_on_c, 9, 51, 95
4, 168480, Note_off_c, 9, 51, 95
4, 168960, Note_on_c, 9, 51, 95
4, 168960, Note_on_c, 9, 40, 95
4, 169440, Note_off_c, 9, 51, 95
4, 169440, Note_off_c, 9, 40, 95
4, 169920, Note_on_c, 9, 51, 95
4, 170400, Note_off_c, 9, 51, 95
4, 170880, Note_on_c, 9, 51, 95
4, 170880, Note_on_c, 9, 36, 95
4, 171360, Note_off_c, 9, 51, 95
4, 171360, Note_off_c, 9, 36, 95
4, 171840, Note_on_c, 9, 51, 95
4, 172320, Note_off_c, 9, 51, 95
4, 172800, Note_on_c, 9, 51, 95
4, 172800, Note_on_c, 9, 40, 95
4, 173280, Note_off_c, 9, 51, 95
4, 173280, Note_off_c, 9, 40, 95
4, 173280, Note_on_c, 9, 57, 95
4, 173280, Note_on_c, 9, 36, 95
4, 173760, Note_off_c, 9, 57, 95
4, 173760, Note_off_c, 9, 36, 95
4, 173760, Note_on_c, 9, 51, 95
4, 174240, Note_off_c, 9, 51, 95
4, 174240, Note_on_c, 9, 36, 95
4, 174720, Note_off_c, 9, 36, 95
4, 174720, Note_on_c, 9, 57, 95
4, 174720, Note_on_c, 9, 51, 95
4, 174720, Note_on_c, 9, 36, 95
4, 175200, Note_off_c, 9, 57, 95
4, 175200, Note_off_c, 9, 51, 95
4, 175200, Note_off_c, 9, 36, 95
4, 175680, Note_on_c, 9, 51, 95
4, 176160, Note_off_c, 9, 51, 95
4, 176640, Note_on_c, 9, 51, 95
4, 176640, Note_on_c, 9, 40, 95
4, 177120, Note_off_c, 9, 51, 95
4, 177120, Note_off_c, 9, 40, 95
4, 177600, Note_on_c, 9, 51, 95
4, 178080, Note_off_c, 9, 51, 95
4, 178560, Note_on_c, 9, 51, 95
4, 178560, Note_on_c, 9, 36, 95
4, 179040, Note_off_c, 9, 51, 95
4, 179040, Note_off_c, 9, 36, 95
4, 179520, Note_on_c, 9, 51, 95
4, 180000, Note_off_c, 9, 51, 95
4, 180480, Note_on_c, 9, 51, 95
4, 180480, Note_on_c, 9, 40, 95
4, 180960, Note_off_c, 9, 51, 95
4, 180960, Note_off_c, 9, 40, 95
4, 180960, Note_on_c, 9, 57, 95
4, 180960, Note_on_c, 9, 36, 95
4, 181440, Note_off_c, 9, 57, 95
4, 181440, Note_off_c, 9, 36, 95
4, 181440, Note_on_c, 9, 51, 95
4, 181920, Note_off_c, 9, 51, 95
4, 181920, Note_on_c, 9, 36, 95
4, 182400, Note_off_c, 9, 36, 95
4, 182400, Note_on_c, 9, 57, 95
4, 182400, Note_on_c, 9, 42, 95
4, 182400, Note_on_c, 9, 36, 95
4, 183360, Note_off_c, 9, 57, 95
4, 183360, Note_off_c, 9, 42, 95
4, 183360, Note_off_c, 9, 36, 95
4, 183360, Note_on_c, 9, 42, 95
4, 184320, Note_off_c, 9, 42, 95
4, 184320, Note_on_c, 9, 42, 95
4, 184320, Note_on_c, 9, 40, 95
4, 185280, Note_off_c, 9, 42, 95
4, 185280, Note_off_c, 9, 40, 95
4, 185280, Note_on_c, 9, 42, 95
4, 186240, Note_off_c, 9, 42, 95
4, 186240, Note_on_c, 9, 42, 95
4, 186240, Note_on_c, 9, 36, 95
4, 187200, Note_off_c, 9, 42, 95
4, 187200, Note_off_c, 9, 36, 95
4, 187200, Note_on_c, 9, 42, 95
4, 188160, Note_off_c, 9, 42, 95
4, 188160, Note_on_c, 9, 42, 95
4, 188160, Note_on_c, 9, 40, 95
4, 189120, Note_off_c, 9, 42, 95
4, 189120, Note_off_c, 9, 40, 95
4, 189120, Note_on_c, 9, 42, 95
4, 190080, Note_off_c, 9, 42, 95
4, 190080, Note_on_c, 9, 42, 95
4, 190080, Note_on_c, 9, 36, 95
4, 191040, Note_off_c, 9, 42, 95
4, 191040, Note_off_c, 9, 36, 95
4, 191040, Note_on_c, 9, 42, 95
4, 192000, Note_off_c, 9, 42, 95
4, 192000, Note_on_c, 9, 42, 95
4, 192000, Note_on_c, 9, 40, 95
4, 192960, Note_off_c, 9, 42, 95
4, 192960, Note_off_c, 9, 40, 95
4, 192960, Note_on_c, 9, 42, 95
4, 193920, Note_off_c, 9, 42, 95
4, 193920, Note_on_c, 9, 42, 95
4, 193920, Note_on_c, 9, 36, 95
4, 194880, Note_off_c, 9, 42, 95
4, 194880, Note_off_c, 9, 36, 95
4, 194880, Note_on_c, 9, 42, 95
4, 195840, Note_off_c, 9, 42, 95
4, 195840, Note_on_c, 9, 42, 95
4, 195840, Note_on_c, 9, 40, 95
4, 196800, Note_off_c, 9, 42, 95
4, 196800, Note_off_c, 9, 40, 95
4, 196800, Note_on_c, 9, 42, 95
4, 197760, Note_off_c, 9, 42, 95
4, 197760, Note_on_c, 9, 42, 95
4, 197760, Note_on_c, 9, 36, 95
4, 198720, Note_off_c, 9, 42, 95
4, 198720, Note_off_c, 9, 36, 95
4, 198720, Note_on_c, 9, 42, 95
4, 199680, Note_off_c, 9, 42, 95
4, 199680, Note_on_c, 9, 42, 95
4, 199680, Note_on_c, 9, 40, 95
4, 200640, Note_off_c, 9, 42, 95
4, 200640, Note_off_c, 9, 40, 95
4, 200640, Note_on_c, 9, 42, 95
4, 201600, Note_off_c, 9, 42, 95
4, 201600, Note_on_c, 9, 42, 95
4, 201600, Note_on_c, 9, 36, 95
4, 202560, Note_off_c, 9, 42, 95
4, 202560, Note_off_c, 9, 36, 95
4, 202560, Note_on_c, 9, 42, 95
4, 203520, Note_off_c, 9, 42, 95
4, 203520, Note_on_c, 9, 42, 95
4, 203520, Note_on_c, 9, 40, 95
4, 204480, Note_off_c, 9, 42, 95
4, 204480, Note_off_c, 9, 40, 95
4, 204480, Note_on_c, 9, 42, 95
4, 205440, Note_off_c, 9, 42, 95
4, 205440, Note_on_c, 9, 42, 95
4, 205440, Note_on_c, 9, 36, 95
4, 206400, Note_off_c, 9, 42, 95
4, 206400, Note_off_c, 9, 36, 95
4, 206400, Note_on_c, 9, 42, 95
4, 207360, Note_off_c, 9, 42, 95
4, 207360, Note_on_c, 9, 42, 95
4, 207360, Note_on_c, 9, 40, 95
4, 208320, Note_off_c, 9, 42, 95
4, 208320, Note_off_c, 9, 40, 95
4, 208320, Note_on_c, 9, 42, 95
4, 209280, Note_off_c, 9, 42, 95
4, 209280, Note_on_c, 9, 42, 95
4, 209280, Note_on_c, 9, 36, 95
4, 210240, Note_off_c, 9, 42, 95
4, 210240, Note_off_c, 9, 36, 95
4, 210240, Note_on_c, 9, 42, 95
4, 211200, Note_off_c, 9, 42, 95
4, 211200, Note_on_c, 9, 42, 95
4, 211200, Note_on_c, 9, 40, 95
4, 212160, Note_off_c, 9, 42, 95
4, 212160, Note_off_c, 9, 40, 95
4, 212160, Note_on_c, 9, 42, 95
4, 213120, Note_off_c, 9, 42, 95
4, 213120, Note_on_c, 9, 42, 95
4, 213120, Note_on_c, 9, 36, 95
4, 214080, Note_off_c, 9, 42, 95
4, 214080, Note_off_c, 9, 36, 95
4, 214080, Note_on_c, 9, 42, 95
4, 215040, Note_off_c, 9, 42, 95
4, 215040, Note_on_c, 9, 42, 95
4, 215040, Note_on_c, 9, 40, 95
4, 216000, Note_off_c, 9, 42, 95
4, 216000, Note_off_c, 9, 40, 95
4, 216000, Note_on_c, 9, 42, 95
4, 216960, Note_off_c, 9, 42, 95
4, 216960, Note_on_c, 9, 42, 95
4, 216960, Note_on_c, 9, 36, 95
4, 217920, Note_off_c, 9, 42, 95
4, 217920, Note_off_c, 9, 36, 95
4, 217920, Note_on_c, 9, 42, 95
4, 218880, Note_off_c, 9, 42, 95
4, 218880, Note_on_c, 9, 42, 95
4, 218880, Note_on_c, 9, 40, 95
4, 219840, Note_off_c, 9, 42, 95
4, 219840, Note_off_c, 9, 40, 95
4, 219840, Note_on_c, 9, 42, 95
4, 220800, Note_off_c, 9, 42, 95
4, 220800, Note_on_c, 9, 42, 95
4, 220800, Note_on_c, 9, 36, 95
4, 221760, Note_off_c, 9, 42, 95
4, 221760, Note_off_c, 9, 36, 95
4, 221760, Note_on_c, 9, 42, 95
4, 222720, Note_off_c, 9, 42, 95
4, 222720, Note_on_c, 9, 42, 95
4, 222720, Note_on_c, 9, 40, 95
4, 223680, Note_off_c, 9, 42, 95
4, 223680, Note_off_c, 9, 40, 95
4, 223680, Note_on_c, 9, 42, 95
4, 224640, Note_off_c, 9, 42, 95
4, 224640, Note_on_c, 9, 42, 95
4, 224640, Note_on_c, 9, 36, 95
4, 225600, Note_off_c, 9, 42, 95
4, 225600, Note_off_c, 9, 36, 95
4, 225600, Note_on_c, 9, 42, 95
4, 226560, Note_off_c, 9, 42, 95
4, 226560, Note_on_c, 9, 42, 95
4, 226560, Note_on_c, 9, 40, 95
4, 227520, Note_off_c, 9, 42, 95
4, 227520, Note_off_c, 9, 40, 95
4, 227520, Note_on_c, 9, 42, 95
4, 228480, Note_off_c, 9, 42, 95
4, 228480, Note_on_c, 9, 42, 95
4, 228480, Note_on_c, 9, 36, 95
4, 229440, Note_off_c, 9, 42, 95
4, 229440, Note_off_c, 9, 36, 95
4, 229440, Note_on_c, 9, 42, 95
4, 230400, Note_off_c, 9, 42, 95
4, 230400, Note_on_c, 9, 42, 95
4, 230400, Note_on_c, 9, 40, 95
4, 231360, Note_off_c, 9, 42, 95
4, 231360, Note_off_c, 9, 40, 95
4, 231360, Note_on_c, 9, 42, 95
4, 232320, Note_off_c, 9, 42, 95
4, 232320, Note_on_c, 9, 42, 95
4, 232320, Note_on_c, 9, 36, 95
4, 233280, Note_off_c, 9, 42, 95
4, 233280, Note_off_c, 9, 36, 95
4, 233280, Note_on_c, 9, 42, 95
4, 234240, Note_off_c, 9, 42, 95
4, 234240, Note_on_c, 9, 42, 95
4, 234240, Note_on_c, 9, 40, 95
4, 235200, Note_off_c, 9, 42, 95
4, 235200, Note_off_c, 9, 40, 95
4, 235200, Note_on_c, 9, 42, 95
4, 236160, Note_off_c, 9, 42, 95
4, 236160, Note_on_c, 9, 42, 95
4, 236160, Note_on_c, 9, 36, 95
4, 237120, Note_off_c, 9, 42, 95
4, 237120, Note_off_c, 9, 36, 95
4, 237120, Note_on_c, 9, 42, 95
4, 238080, Note_off_c, 9, 42, 95
4, 238080, Note_on_c, 9, 42, 95
4, 238080, Note_on_c, 9, 40, 95
4, 239040, Note_off_c, 9, 42, 95
4, 239040, Note_off_c, 9, 40, 95
4, 239040, Note_on_c, 9, 42, 95
4, 240000, Note_off_c, 9, 42, 95
4, 240000, Note_on_c, 9, 42, 95
4, 240000, Note_on_c, 9, 36, 95
4, 240960, Note_off_c, 9, 42, 95
4, 240960, Note_off_c, 9, 36, 95
4, 240960, Note_on_c, 9, 42, 95
4, 241920, Note_off_c, 9, 42, 95
4, 241920, Note_on_c, 9, 42, 95
4, 241920, Note_on_c, 9, 40, 95
4, 242880, Note_off_c, 9, 42, 95
4, 242880, Note_off_c, 9, 40, 95
4, 242880, Note_on_c, 9, 42, 95
4, 243840, Note_off_c, 9, 42, 95
4, 243840, Note_on_c, 9, 42, 95
4, 243840, Note_on_c, 9, 36, 95
4, 244800, Note_off_c, 9, 42, 95
4, 244800, Note_off_c, 9, 36, 95
4, 244800, Note_on_c, 9, 42, 95
4, 245760, Note_off_c, 9, 42, 95
4, 245760, Note_on_c, 9, 42, 95
4, 245760, Note_on_c, 9, 40, 95
4, 246720, Note_off_c, 9, 42, 95
4, 246720, Note_off_c, 9, 40, 95
4, 246720, Note_on_c, 9, 42, 95
4, 247680, Note_off_c, 9, 42, 95
4, 247680, Note_on_c, 9, 42, 95
4, 247680, Note_on_c, 9, 36, 95
4, 248640, Note_off_c, 9, 42, 95
4, 248640, Note_off_c, 9, 36, 95
4, 248640, Note_on_c, 9, 42, 95
4, 249600, Note_off_c, 9, 42, 95
4, 249600, Note_on_c, 9, 42, 95
4, 249600, Note_on_c, 9, 40, 95
4, 250560, Note_off_c, 9, 42, 95
4, 250560, Note_off_c, 9, 40, 95
4, 250560, Note_on_c, 9, 57, 95
4, 250560, Note_on_c, 9, 49, 95
4, 250560, Note_on_c, 9, 42, 95
4, 250560, Note_on_c, 9, 36, 95
4, 251040, Note_off_c, 9, 57, 95
4, 251040, Note_off_c, 9, 49, 95
4, 251040, Note_off_c, 9, 42, 95
4, 251040, Note_off_c, 9, 36, 95
4, 251520, Note_on_c, 9, 57, 95
4, 251520, Note_on_c, 9, 49, 95
4, 251520, Note_on_c, 9, 42, 95
4, 251520, Note_on_c, 9, 36, 95
4, 252000, Note_off_c, 9, 57, 95
4, 252000, Note_off_c, 9, 49, 95
4, 252000, Note_off_c, 9, 42, 95
4, 252000, Note_off_c, 9, 36, 95
4, 252000, Note_on_c, 9, 57, 95
4, 252000, Note_on_c, 9, 49, 95
4, 252000, Note_on_c, 9, 42, 95
4, 252000, Note_on_c, 9, 36, 95
4, 252480, Note_off_c, 9, 57, 95
4, 252480, Note_off_c, 9, 49, 95
4, 252480, Note_off_c, 9, 42, 95
4, 252480, Note_off_c, 9, 36, 95
4, 252480, Note_on_c, 9, 57, 95
4, 252480, Note_on_c, 9, 49, 95
4, 252480, Note_on_c, 9, 42, 95
4, 252480, Note_on_c, 9, 36, 95
4, 252960, Note_off_c, 9, 57, 95
4, 252960, Note_off_c, 9, 49, 95
4, 252960, Note_off_c, 9, 42, 95
4, 252960, Note_off_c, 9, 36, 95
4, 253440, Note_on_c, 9, 57, 95
4, 253440, Note_on_c, 9, 51, 95
4, 253440, Note_on_c, 9, 36, 95
4, 253920, Note_off_c, 9, 57, 95
4, 253920, Note_off_c, 9, 51, 95
4, 253920, Note_off_c, 9, 36, 95
4, 254400, Note_on_c, 9, 51, 95
4, 254880, Note_off_c, 9, 51, 95
4, 255360, Note_on_c, 9, 51, 95
4, 255360, Note_on_c, 9, 40, 95
4, 255840, Note_off_c, 9, 51, 95
4, 255840, Note_off_c, 9, 40, 95
4, 256320, Note_on_c, 9, 51, 95
4, 256800, Note_off_c, 9, 51, 95
4, 257280, Note_on_c, 9, 51, 95
4, 257280, Note_on_c, 9, 36, 95
4, 257760, Note_off_c, 9, 51, 95
4, 257760, Note_off_c, 9, 36, 95
4, 258240, Note_on_c, 9, 51, 95
4, 258720, Note_off_c, 9, 51, 95
4, 259200, Note_on_c, 9, 51, 95
4, 259200, Note_on_c, 9, 40, 95
4, 259680, Note_off_c, 9, 51, 95
4, 259680, Note_off_c, 9, 40, 95
4, 259680, Note_on_c, 9, 57, 95
4, 259680, Note_on_c, 9, 36, 95
4, 260160, Note_off_c, 9, 57, 95
4, 260160, Note_off_c, 9, 36, 95
4, 260160, Note_on_c, 9, 51, 95
4, 260640, Note_off_c, 9, 51, 95
4, 260640, Note_on_c, 9, 36, 95
4, 261120, Note_off_c, 9, 36, 95
4, 261120, Note_on_c, 9, 57, 95
4, 261120, Note_on_c, 9, 51, 95
4, 261120, Note_on_c, 9, 36, 95
4, 261600, Note_off_c, 9, 57, 95
4, 261600, Note_off_c, 9, 51, 95
4, 261600, Note_off_c, 9, 36, 95
4, 262080, Note_on_c, 9, 51, 95
4, 262560, Note_off_c, 9, 51, 95
4, 263040, Note_on_c, 9, 51, 95
4, 263040, Note_on_c, 9, 40, 95
4, 263520, Note_off_c, 9, 51, 95
4, 263520, Note_off_c, 9, 40, 95
4, 264000, Note_on_c, 9, 51, 95
4, 264480, Note_off_c, 9, 51, 95
4, 264960, Note_on_c, 9, 51, 95
4, 264960, Note_on_c, 9, 36, 95
4, 265440, Note_off_c, 9, 51, 95
4, 265440, Note_off_c, 9, 36, 95
4, 265920, Note_on_c, 9, 51, 95
4, 266400, Note_off_c, 9, 51, 95
4, 266880, Note_on_c, 9, 51, 95
4, 266880, Note_on_c, 9, 40, 95
4, 267360, Note_off_c, 9, 51, 95
4, 267360, Note_off_c, 9, 40, 95
4, 267360, Note_on_c, 9, 57, 95
4, 267360, Note_on_c, 9, 36, 95
4, 267840, Note_off_c, 9, 57, 95
4, 267840, Note_off_c, 9, 36, 95
4, 267840, Note_on_c, 9, 51, 95
4, 268320, Note_off_c, 9, 51, 95
4, 268320, Note_on_c, 9, 36, 95
4, 268800, Note_off_c, 9, 36, 95
4, 268800, Note_on_c, 9, 57, 95
4, 268800, Note_on_c, 9, 51, 95
4, 268800, Note_on_c, 9, 36, 95
4, 269280, Note_off_c, 9, 57, 95
4, 269280, Note_off_c, 9, 51, 95
4, 269280, Note_off_c, 9, 36, 95
4, 269760, Note_on_c, 9, 51, 95
4, 270240, Note_off_c, 9, 51, 95
4, 270720, Note_on_c, 9, 51, 95
4, 270720, Note_on_c, 9, 40, 95
4, 271200, Note_off_c, 9, 51, 95
4, 271200, Note_off_c, 9, 40, 95
4, 271680, Note_on_c, 9, 51, 95
4, 272160, Note_off_c, 9, 51, 95
4, 272640, Note_on_c, 9, 51, 95
4, 272640, Note_on_c, 9, 36, 95
4, 273120, Note_off_c, 9, 51, 95
4, 273120, Note_off_c, 9, 36, 95
4, 273600, Note_on_c, 9, 51, 95
4, 274080, Note_off_c, 9, 51, 95
4, 274560, Note_on_c, 9, 51, 95
4, 274560, Note_on_c, 9, 40, 95
4, 275040, Note_off_c, 9, 51, 95
4, 275040, Note_off_c, 9, 40, 95
4, 275040, Note_on_c, 9, 57, 95
4, 275040, Note_on_c, 9, 36, 95
4, 275520, Note_off_c, 9, 57, 95
4, 275520, Note_off_c, 9, 36, 95
4, 275520, Note_on_c, 9, 51, 95
4, 276000, Note_off_c, 9, 51, 95
4, 276000, Note_on_c, 9, 36, 95
4, 276480, Note_off_c, 9, 36, 95
4, 276480, Note_on_c, 9, 57, 95
4, 276480, Note_on_c, 9, 51, 95
4, 276480, Note_on_c, 9, 36, 95
4, 276960, Note_off_c, 9, 57, 95
4, 276960, Note_off_c, 9, 51, 95
4, 276960, Note_off_c, 9, 36, 95
4, 277440, Note_on_c, 9, 51, 95
4, 277920, Note_off_c, 9, 51, 95
4, 278400, Note_on_c, 9, 51, 95
4, 278400, Note_on_c, 9, 40, 95
4, 278880, Note_off_c, 9, 51, 95
4, 278880, Note_off_c, 9, 40, 95
4, 279360, Note_on_c, 9, 51, 95
4, 279840, Note_off_c, 9, 51, 95
4, 280320, Note_on_c, 9, 51, 95
4, 280320, Note_on_c, 9, 36, 95
4, 280800, Note_off_c, 9, 51, 95
4, 280800, Note_off_c, 9, 36, 95
4, 281280, Note_on_c, 9, 51, 95
4, 281760, Note_off_c, 9, 51, 95
4, 282240, Note_on_c, 9, 51, 95
4, 282240, Note_on_c, 9, 40, 95
4, 282720, Note_off_c, 9, 51, 95
4, 282720, Note_off_c, 9, 40, 95
4, 282720, Note_on_c, 9, 57, 95
4, 282720, Note_on_c, 9, 36, 95
4, 283200, Note_off_c, 9, 57, 95
4, 283200, Note_off_c, 9, 36, 95
4, 283200, Note_on_c, 9, 51, 95
4, 283680, Note_off_c, 9, 51, 95
4, 283680, Note_on_c, 9, 36, 95
4, 284160, Note_off_c, 9, 36, 95
4, 284160, Note_on_c, 9, 57, 95
4, 284160, Note_on_c, 9, 49, 95
4, 284160, Note_on_c, 9, 36, 95
4, 284640, Note_off_c, 9, 57, 95
4, 284640, Note_off_c, 9, 49, 95
4, 284640, Note_off_c, 9, 36, 95
4, 285120, Note_on_c, 9, 49, 95
4, 285600, Note_off_c, 9, 49, 95
4, 286080, Note_on_c, 9, 49, 95
4, 286080, Note_on_c, 9, 40, 95
4, 286560, Note_off_c, 9, 49, 95
4, 286560, Note_off_c, 9, 40, 95
4, 287040, Note_on_c, 9, 49, 95
4, 287040, Note_on_c, 9, 36, 95
4, 287520, Note_off_c, 9, 49, 95
4, 287520, Note_off_c, 9, 36, 95
4, 287520, Note_on_c, 9, 57, 95
4, 287520, Note_on_c, 9, 49, 95
4, 287520, Note_on_c, 9, 36, 95
4, 288000, Note_off_c, 9, 57, 95
4, 288000, Note_off_c, 9, 49, 95
4, 288000, Note_off_c, 9, 36, 95
4, 288000, Note_on_c, 9, 49, 95
4, 288480, Note_off_c, 9, 49, 95
4, 288960, Note_on_c, 9, 49, 95
4, 288960, Note_on_c, 9, 36, 95
4, 289440, Note_off_c, 9, 49, 95
4, 289440, Note_off_c, 9, 36, 95
4, 289920, Note_on_c, 9, 49, 95
4, 289920, Note_on_c, 9, 40, 95
4, 290400, Note_off_c, 9, 49, 95
4, 290400, Note_off_c, 9, 40, 95
4, 290880, Note_on_c, 9, 49, 95
4, 291360, Note_off_c, 9, 49, 95
4, 291840, Note_on_c, 9, 57, 95
4, 291840, Note_on_c, 9, 49, 95
4, 291840, Note_on_c, 9, 36, 95
4, 292320, Note_off_c, 9, 57, 95
4, 292320, Note_off_c, 9, 49, 95
4, 292320, Note_off_c, 9, 36, 95
4, 292800, Note_on_c, 9, 49, 95
4, 293280, Note_off_c, 9, 49, 95
4, 293760, Note_on_c, 9, 49, 95
4, 293760, Note_on_c, 9, 40, 95
4, 294240, Note_off_c, 9, 49, 95
4, 294240, Note_off_c, 9, 40, 95
4, 294720, Note_on_c, 9, 49, 95
4, 294720, Note_on_c, 9, 36, 95
4, 295200, Note_off_c, 9, 49, 95
4, 295200, Note_off_c, 9, 36, 95
4, 295200, Note_on_c, 9, 57, 95
4, 295200, Note_on_c, 9, 49, 95
4, 295200, Note_on_c, 9, 36, 95
4, 295680, Note_off_c, 9, 57, 95
4, 295680, Note_off_c, 9, 49, 95
4, 295680, Note_off_c, 9, 36, 95
4, 295680, Note_on_c, 9, 49, 95
4, 296160, Note_off_c, 9, 49, 95
4, 296640, Note_on_c, 9, 49, 95
4, 296640, Note_on_c, 9, 36, 95
4, 297120, Note_off_c, 9, 49, 95
4, 297120, Note_off_c, 9, 36, 95
4, 297600, Note_on_c, 9, 49, 95
4, 297600, Note_on_c, 9, 40, 95
4, 298080, Note_off_c, 9, 49, 95
4, 298080, Note_off_c, 9, 40, 95
4, 298560, Note_on_c, 9, 49, 95
4, 299040, Note_off_c, 9, 49, 95
4, 299520, Note_on_c, 9, 57, 95
4, 299520, Note_on_c, 9, 49, 95
4, 299520, Note_on_c, 9, 36, 95
4, 300000, Note_off_c, 9, 57, 95
4, 300000, Note_off_c, 9, 49, 95
4, 300000, Note_off_c, 9, 36, 95
4, 300480, Note_on_c, 9, 49, 95
4, 300960, Note_off_c, 9, 49, 95
4, 301440, Note_on_c, 9, 49, 95
4, 301440, Note_on_c, 9, 40, 95
4, 301920, Note_off_c, 9, 49, 95
4, 301920, Note_off_c, 9, 40, 95
4, 302400, Note_on_c, 9, 49, 95
4, 302400, Note_on_c, 9, 36, 95
4, 302880, Note_off_c, 9, 49, 95
4, 302880, Note_off_c, 9, 36, 95
4, 302880, Note_on_c, 9, 57, 95
4, 302880, Note_on_c, 9, 49, 95
4, 302880, Note_on_c, 9, 36, 95
4, 303360, Note_off_c, 9, 57, 95
4, 303360, Note_off_c, 9, 49, 95
4, 303360, Note_off_c, 9, 36, 95
4, 303360, Note_on_c, 9, 49, 95
4, 303840, Note_off_c, 9, 49, 95
4, 304320, Note_on_c, 9, 49, 95
4, 304320, Note_on_c, 9, 36, 95
4, 304800, Note_off_c, 9, 49, 95
4, 304800, Note_off_c, 9, 36, 95
4, 305280, Note_on_c, 9, 49, 95
4, 305280, Note_on_c, 9, 40, 95
4, 305760, Note_off_c, 9, 49, 95
4, 305760, Note_off_c, 9, 40, 95
4, 306240, Note_on_c, 9, 49, 95
4, 306720, Note_off_c, 9, 49, 95
4, 307200, Note_on_c, 9, 57, 95
4, 307200, Note_on_c, 9, 49, 95
4, 307200, Note_on_c, 9, 36, 95
4, 307680, Note_off_c, 9, 57, 95
4, 307680, Note_off_c, 9, 49, 95
4, 307680, Note_off_c, 9, 36, 95
4, 308160, Note_on_c, 9, 49, 95
4, 308640, Note_off_c, 9, 49, 95
4, 309120, Note_on_c, 9, 49, 95
4, 309120, Note_on_c, 9, 40, 95
4, 309600, Note_off_c, 9, 49, 95
4, 309600, Note_off_c, 9, 40, 95
4, 310080, Note_on_c, 9, 49, 95
4, 310080, Note_on_c, 9, 36, 95
4, 310560, Note_off_c, 9, 49, 95
4, 310560, Note_off_c, 9, 36, 95
4, 310560, Note_on_c, 9, 57, 95
4, 310560, Note_on_c, 9, 49, 95
4, 310560, Note_on_c, 9, 36, 95
4, 311040, Note_off_c, 9, 57, 95
4, 311040, Note_off_c, 9, 49, 95
4, 311040, Note_off_c, 9, 36, 95
4, 311040, Note_on_c, 9, 49, 95
4, 311520, Note_off_c, 9, 49, 95
4, 312000, Note_on_c, 9, 49, 95
4, 312000, Note_on_c, 9, 36, 95
4, 312480, Note_off_c, 9, 49, 95
4, 312480, Note_off_c, 9, 36, 95
4, 312960, Note_on_c, 9, 49, 95
4, 312960, Note_on_c, 9, 40, 95
4, 313440, Note_off_c, 9, 49, 95
4, 313440, Note_off_c, 9, 40, 95
4, 313920, Note_on_c, 9, 49, 95
4, 314400, Note_off_c, 9, 49, 95
4, 314880, Note_on_c, 9, 57, 95
4, 314880, Note_on_c, 9, 49, 95
4, 314880, Note_on_c, 9, 36, 95
4, 315360, Note_off_c, 9, 57, 95
4, 315360, Note_off_c, 9, 49, 95
4, 315360, Note_off_c, 9, 36, 95
4, 315840, Note_on_c, 9, 49, 95
4, 316320, Note_off_c, 9, 49, 95
4, 316800, Note_on_c, 9, 49, 95
4, 316800, Note_on_c, 9, 40, 95
4, 317280, Note_off_c, 9, 49, 95
4, 317280, Note_off_c, 9, 40, 95
4, 317760, Note_on_c, 9, 49, 95
4, 317760, Note_on_c, 9, 36, 95
4, 318240, Note_off_c, 9, 49, 95
4, 318240, Note_off_c, 9, 36, 95
4, 318240, Note_on_c, 9, 57, 95
4, 318240, Note_on_c, 9, 49, 95
4, 318240, Note_on_c, 9, 36, 95
4, 318720, Note_off_c, 9, 57, 95
4, 318720, Note_off_c, 9, 49, 95
4, 318720, Note_off_c, 9, 36, 95
4, 318720, Note_on_c, 9, 49, 95
4, 319200, Note_off_c, 9, 49, 95
4, 319680, Note_on_c, 9, 49, 95
4, 319680, Note_on_c, 9, 36, 95
4, 320160, Note_off_c, 9, 49, 95
4, 320160, Note_off_c, 9, 36, 95
4, 320640, Note_on_c, 9, 49, 95
4, 320640, Note_on_c, 9, 40, 95
4, 321120, Note_off_c, 9, 49, 95
4, 321120, Note_off_c, 9, 40, 95
4, 321600, Note_on_c, 9, 49, 95
4, 322080, Note_off_c, 9, 49, 95
4, 322560, Note_on_c, 9, 57, 95
4, 322560, Note_on_c, 9, 49, 95
4, 322560, Note_on_c, 9, 36, 95
4, 323040, Note_off_c, 9, 57, 95
4, 323040, Note_off_c, 9, 49, 95
4, 323040, Note_off_c, 9, 36, 95
4, 323520, Note_on_c, 9, 49, 95
4, 324000, Note_off_c, 9, 49, 95
4, 324480, Note_on_c, 9, 49, 95
4, 324480, Note_on_c, 9, 40, 95
4, 324960, Note_off_c, 9, 49, 95
4, 324960, Note_off_c, 9, 40, 95
4, 325440, Note_on_c, 9, 49, 95
4, 325440, Note_on_c, 9, 36, 95
4, 325920, Note_off_c, 9, 49, 95
4, 325920, Note_off_c, 9, 36, 95
4, 325920, Note_on_c, 9, 57, 95
4, 325920, Note_on_c, 9, 49, 95
4, 325920, Note_on_c, 9, 36, 95
4, 326400, Note_off_c, 9, 57, 95
4, 326400, Note_off_c, 9, 49, 95
4, 326400, Note_off_c, 9, 36, 95
4, 326400, Note_on_c, 9, 49, 95
4, 326880, Note_off_c, 9, 49, 95
4, 327360, Note_on_c, 9, 49, 95
4, 327360, Note_on_c, 9, 36, 95
4, 327840, Note_off_c, 9, 49, 95
4, 327840, Note_off_c, 9, 36, 95
4, 328320, Note_on_c, 9, 49, 95
4, 328320, Note_on_c, 9, 40, 95
4, 328800, Note_off_c, 9, 49, 95
4, 328800, Note_off_c, 9, 40, 95
4, 329280, Note_on_c, 9, 49, 95
4, 329760, Note_off_c, 9, 49, 95
4, 330240, Note_on_c, 9, 57, 95
4, 330240, Note_on_c, 9, 49, 95
4, 330240, Note_on_c, 9, 36, 95
4, 330720, Note_off_c, 9, 57, 95
4, 330720, Note_off_c, 9, 49, 95
4, 330720, Note_off_c, 9, 36, 95
4, 331200, Note_on_c, 9, 49, 95
4, 331680, Note_off_c, 9, 49, 95
4, 332160, Note_on_c, 9, 49, 95
4, 332160, Note_on_c, 9, 40, 95
4, 332640, Note_off_c, 9, 49, 95
4, 332640, Note_off_c, 9, 40, 95
4, 333120, Note_on_c, 9, 49, 95
4, 333120, Note_on_c, 9, 36, 95
4, 333600, Note_off_c, 9, 49, 95
4, 333600, Note_off_c, 9, 36, 95
4, 333600, Note_on_c, 9, 57, 95
4, 333600, Note_on_c, 9, 49, 95
4, 333600, Note_on_c, 9, 36, 95
4, 334080, Note_off_c, 9, 57, 95
4, 334080, Note_off_c, 9, 49, 95
4, 334080, Note_off_c, 9, 36, 95
4, 334080, Note_on_c, 9, 49, 95
4, 334560, Note_off_c, 9, 49, 95
4, 335040, Note_on_c, 9, 49, 95
4, 335040, Note_on_c, 9, 36, 95
4, 335520, Note_off_c, 9, 49, 95
4, 335520, Note_off_c, 9, 36, 95
4, 336000, Note_on_c, 9, 49, 95
4, 336000, Note_on_c, 9, 40, 95
4, 336480, Note_off_c, 9, 49, 95
4, 336480, Note_off_c, 9, 40, 95
4, 336960, Note_on_c, 9, 49, 95
4, 337440, Note_off_c, 9, 49, 95
4, 337920, Note_on_c, 9, 57, 95
4, 337920, Note_on_c, 9, 49, 95
4, 337920, Note_on_c, 9, 36, 95
4, 338400, Note_off_c, 9, 57, 95
4, 338400, Note_off_c, 9, 49, 95
4, 338400, Note_off_c, 9, 36, 95
4, 338880, Note_on_c, 9, 49, 95
4, 339360, Note_off_c, 9, 49, 95
4, 339840, Note_on_c, 9, 49, 95
4, 339840, Note_on_c, 9, 40, 95
4, 340320, Note_off_c, 9, 49, 95
4, 340320, Note_off_c, 9, 40, 95
4, 340800, Note_on_c, 9, 49, 95
4, 340800, Note_on_c, 9, 36, 95
4, 341280, Note_off_c, 9, 49, 95
4, 341280, Note_off_c, 9, 36, 95
4, 341280, Note_on_c, 9, 57, 95
4, 341280, Note_on_c, 9, 49, 95
4, 341280, Note_on_c, 9, 36, 95
4, 341760, Note_off_c, 9, 57, 95
4, 341760, Note_off_c, 9, 49, 95
4, 341760, Note_off_c, 9, 36, 95
4, 341760, Note_on_c, 9, 49, 95
4, 342240, Note_off_c, 9, 49, 95
4, 342720, Note_on_c, 9, 49, 95
4, 342720, Note_on_c, 9, 36, 95
4, 343200, Note_off_c, 9, 49, 95
4, 343200, Note_off_c, 9, 36, 95
4, 343680, Note_on_c, 9, 49, 95
4, 343680, Note_on_c, 9, 40, 95
4, 344160, Note_off_c, 9, 49, 95
4, 344160, Note_off_c, 9, 40, 95
4, 344640, Note_on_c, 9, 49, 95
4, 345120, Note_off_c, 9, 49, 95
4, 345600, Note_on_c, 9, 49, 95
4, 346080, Note_off_c, 9, 49, 95
4, 346560, Note_on_c, 9, 49, 95
4, 346560, Note_on_c, 9, 36, 95
4, 347040, Note_off_c, 9, 49, 95
4, 347040, Note_off_c, 9, 36, 95
4, 347520, Note_on_c, 9, 49, 95
4, 347520, Note_on_c, 9, 40, 95
4, 348000, Note_off_c, 9, 49, 95
4, 348000, Note_off_c, 9, 40, 95
4, 348480, Note_on_c, 9, 49, 95
4, 348960, Note_off_c, 9, 49, 95
4, 349440, Note_on_c, 9, 49, 95
4, 349920, Note_off_c, 9, 49, 95
4, 350400, Note_on_c, 9, 49, 95
4, 350400, Note_on_c, 9, 36, 95
4, 350880, Note_off_c, 9, 49, 95
4, 350880, Note_off_c, 9, 36, 95
4, 351360, Note_on_c, 9, 49, 95
4, 351360, Note_on_c, 9, 40, 95
4, 351840, Note_off_c, 9, 49, 95
4, 351840, Note_off_c, 9, 40, 95
4, 352320, Note_on_c, 9, 49, 95
4, 352800, Note_off_c, 9, 49, 95
4, 353280, Note_on_c, 9, 49, 95
4, 353760, Note_off_c, 9, 49, 95
4, 354240, Note_on_c, 9, 49, 95
4, 354240, Note_on_c, 9, 36, 95
4, 354720, Note_off_c, 9, 49, 95
4, 354720, Note_off_c, 9, 36, 95
4, 355200, Note_on_c, 9, 49, 95
4, 355200, Note_on_c, 9, 40, 95
4, 355680, Note_off_c, 9, 49, 95
4, 355680, Note_off_c, 9, 40, 95
4, 356160, Note_on_c, 9, 49, 95
4, 356640, Note_off_c, 9, 49, 95
4, 357120, Note_on_c, 9, 49, 95
4, 357600, Note_off_c, 9, 49, 95
4, 358080, Note_on_c, 9, 49, 95
4, 358080, Note_on_c, 9, 36, 95
4, 358560, Note_off_c, 9, 49, 95
4, 358560, Note_off_c, 9, 36, 95
4, 359040, Note_on_c, 9, 49, 95
4, 359040, Note_on_c, 9, 40, 95
4, 359520, Note_off_c, 9, 49, 95
4, 359520, Note_off_c, 9, 40, 95
4, 360000, Note_on_c, 9, 49, 95
4, 360480, Note_off_c, 9, 49, 95
4, 360960, Note_on_c, 9, 57, 95
4, 360960, Note_on_c, 9, 51, 95
4, 360960, Note_on_c, 9, 36, 95
4, 361440, Note_off_c, 9, 57, 95
4, 361440, Note_off_c, 9, 51, 95
4, 361440, Note_off_c, 9, 36, 95
4, 361920, Note_on_c, 9, 51, 95
4, 362400, Note_off_c, 9, 51, 95
4, 362880, Note_on_c, 9, 51, 95
4, 362880, Note_on_c, 9, 40, 95
4, 363360, Note_off_c, 9, 51, 95
4, 363360, Note_off_c, 9, 40, 95
4, 363840, Note_on_c, 9, 51, 95
4, 364320, Note_off_c, 9, 51, 95
4, 364800, Note_on_c, 9, 51, 95
4, 364800, Note_on_c, 9, 36, 95
4, 365280, Note_off_c, 9, 51, 95
4, 365280, Note_off_c, 9, 36, 95
4, 365760, Note_on_c, 9, 51, 95
4, 366240, Note_off_c, 9, 51, 95
4, 366720, Note_on_c, 9, 51, 95
4, 366720, Note_on_c, 9, 40, 95
4, 367200, Note_off_c, 9, 51, 95
4, 367200, Note_off_c, 9, 40, 95
4, 367200, Note_on_c, 9, 57, 95
4, 367200, Note_on_c, 9, 36, 95
4, 367680, Note_off_c, 9, 57, 95
4, 367680, Note_off_c, 9, 36, 95
4, 367680, Note_on_c, 9, 51, 95
4, 368160, Note_off_c, 9, 51, 95
4, 368160, Note_on_c, 9, 36, 95
4, 368640, Note_off_c, 9, 36, 95
4, 368640, Note_on_c, 9, 57, 95
4, 368640, Note_on_c, 9, 51, 95
4, 368640, Note_on_c, 9, 36, 95
4, 369120, Note_off_c, 9, 57, 95
4, 369120, Note_off_c, 9, 51, 95
4, 369120, Note_off_c, 9, 36, 95
4, 369600, Note_on_c, 9, 51, 95
4, 370080, Note_off_c, 9, 51, 95
4, 370560, Note_on_c, 9, 51, 95
4, 370560, Note_on_c, 9, 40, 95
4, 371040, Note_off_c, 9, 51, 95
4, 371040, Note_off_c, 9, 40, 95
4, 371520, Note_on_c, 9, 51, 95
4, 372000, Note_off_c, 9, 51, 95
4, 372480, Note_on_c, 9, 51, 95
4, 372480, Note_on_c, 9, 36, 95
4, 372960, Note_off_c, 9, 51, 95
4, 372960, Note_off_c, 9, 36, 95
4, 373440, Note_on_c, 9, 51, 95
4, 373920, Note_off_c, 9, 51, 95
4, 374400, Note_on_c, 9, 51, 95
4, 374400, Note_on_c, 9, 40, 95
4, 374880, Note_off_c, 9, 51, 95
4, 374880, Note_off_c, 9, 40, 95
4, 374880, Note_on_c, 9, 57, 95
4, 374880, Note_on_c, 9, 36, 95
4, 375360, Note_off_c, 9, 57, 95
4, 375360, Note_off_c, 9, 36, 95
4, 375360, Note_on_c, 9, 51, 95
4, 375840, Note_off_c, 9, 51, 95
4, 375840, Note_on_c, 9, 36, 95
4, 376320, Note_off_c, 9, 36, 95
4, 376320, Note_on_c, 9, 57, 95
4, 376320, Note_on_c, 9, 51, 95
4, 376320, Note_on_c, 9, 36, 95
4, 376800, Note_off_c, 9, 57, 95
4, 376800, Note_off_c, 9, 51, 95
4, 376800, Note_off_c, 9, 36, 95
4, 377280, Note_on_c, 9, 51, 95
4, 377760, Note_off_c, 9, 51, 95
4, 378240, Note_on_c, 9, 51, 95
4, 378240, Note_on_c, 9, 40, 95
4, 378720, Note_off_c, 9, 51, 95
4, 378720, Note_off_c, 9, 40, 95
4, 379200, Note_on_c, 9, 51, 95
4, 379680, Note_off_c, 9, 51, 95
4, 380160, Note_on_c, 9, 51, 95
4, 380160, Note_on_c, 9, 36, 95
4, 380640, Note_off_c, 9, 51, 95
4, 380640, Note_off_c, 9, 36, 95
4, 381120, Note_on_c, 9, 51, 95
4, 381600, Note_off_c, 9, 51, 95
4, 382080, Note_on_c, 9, 51, 95
4, 382080, Note_on_c, 9, 40, 95
4, 382560, Note_off_c, 9, 51, 95
4, 382560, Note_off_c, 9, 40, 95
4, 382560, Note_on_c, 9, 57, 95
4, 382560, Note_on_c, 9, 36, 95
4, 383040, Note_off_c, 9, 57, 95
4, 383040, Note_off_c, 9, 36, 95
4, 383040, Note_on_c, 9, 51, 95
4, 383520, Note_off_c, 9, 51, 95
4, 383520, Note_on_c, 9, 36, 95
4, 384000, Note_off_c, 9, 36, 95
4, 384000, Note_on_c, 9, 57, 95
4, 384000, Note_on_c, 9, 51, 95
4, 384000, Note_on_c, 9, 36, 95
4, 384480, Note_off_c, 9, 57, 95
4, 384480, Note_off_c, 9, 51, 95
4, 384480, Note_off_c, 9, 36, 95
4, 384960, Note_on_c, 9, 51, 95
4, 385440, Note_off_c, 9, 51, 95
4, 385920, Note_on_c, 9, 51, 95
4, 385920, Note_on_c, 9, 40, 95
4, 386400, Note_off_c, 9, 51, 95
4, 386400, Note_off_c, 9, 40, 95
4, 386880, Note_on_c, 9, 51, 95
4, 387360, Note_off_c, 9, 51, 95
4, 387840, Note_on_c, 9, 51, 95
4, 387840, Note_on_c, 9, 36, 95
4, 388320, Note_off_c, 9, 51, 95
4, 388320, Note_off_c, 9, 36, 95
4, 388800, Note_on_c, 9, 51, 95
4, 389280, Note_off_c, 9, 51, 95
4, 389760, Note_on_c, 9, 51, 95
4, 389760, Note_on_c, 9, 40, 95
4, 390240, Note_off_c, 9, 51, 95
4, 390240, Note_off_c, 9, 40, 95
4, 390240, Note_on_c, 9, 57, 95
4, 390240, Note_on_c, 9, 36, 95
4, 390720, Note_off_c, 9, 57, 95
4, 390720, Note_off_c, 9, 36, 95
4, 390720, Note_on_c, 9, 51, 95
4, 391200, Note_off_c, 9, 51, 95
4, 391200, Note_on_c, 9, 36, 95
4, 391680, Note_off_c, 9, 36, 95
4, 391680, Note_on_c, 9, 57, 95
4, 391680, Note_on_c, 9, 42, 95
4, 391680, Note_on_c, 9, 36, 95
4, 392640, Note_off_c, 9, 57, 95
4, 392640, Note_off_c, 9, 42, 95
4, 392640, Note_off_c, 9, 36, 95
4, 392640, Note_on_c, 9, 42, 95
4, 393600, Note_off_c, 9, 42, 95
4, 393600, Note_on_c, 9, 42, 95
4, 393600, Note_on_c, 9, 40, 95
4, 394560, Note_off_c, 9, 42, 95
4, 394560, Note_off_c, 9, 40, 95
4, 394560, Note_on_c, 9, 42, 95
4, 395520, Note_off_c, 9, 42, 95
4, 395520, Note_on_c, 9, 42, 95
4, 395520, Note_on_c, 9, 36, 95
4, 396480, Note_off_c, 9, 42, 95
4, 396480, Note_off_c, 9, 36, 95
4, 396480, Note_on_c, 9, 42, 95
4, 397440, Note_off_c, 9, 42, 95
4, 397440, Note_on_c, 9, 42, 95
4, 397440, Note_on_c, 9, 40, 95
4, 398400, Note_off_c, 9, 42, 95
4, 398400, Note_off_c, 9, 40, 95
4, 398400, Note_on_c, 9, 42, 95
4, 399360, Note_off_c, 9, 42, 95
4, 399360, Note_on_c, 9, 42, 95
4, 399360, Note_on_c, 9, 36, 95
4, 400320, Note_off_c, 9, 42, 95
4, 400320, Note_off_c, 9, 36, 95
4, 400320, Note_on_c, 9, 42, 95
4, 401280, Note_off_c, 9, 42, 95
4, 401280, Note_on_c, 9, 42, 95
4, 401280, Note_on_c, 9, 40, 95
4, 402240, Note_off_c, 9, 42, 95
4, 402240, Note_off_c, 9, 40, 95
4, 402240, Note_on_c, 9, 42, 95
4, 403200, Note_off_c, 9, 42, 95
4, 403200, Note_on_c, 9, 42, 95
4, 403200, Note_on_c, 9, 36, 95
4, 404160, Note_off_c, 9, 42, 95
4, 404160, Note_off_c, 9, 36, 95
4, 404160, Note_on_c, 9, 42, 95
4, 405120, Note_off_c, 9, 42, 95
4, 405120, Note_on_c, 9, 42, 95
4, 405120, Note_on_c, 9, 40, 95
4, 406080, Note_off_c, 9, 42, 95
4, 406080, Note_off_c, 9, 40, 95
4, 406080, Note_on_c, 9, 42, 95
4, 407040, Note_off_c, 9, 42, 95
4, 407040, Note_on_c, 9, 42, 95
4, 407040, Note_on_c, 9, 36, 95
4, 408000, Note_off_c, 9, 42, 95
4, 408000, Note_off_c, 9, 36, 95
4, 408000, Note_on_c, 9, 42, 95
4, 408960, Note_off_c, 9, 42, 95
4, 408960, Note_on_c, 9, 42, 95
4, 408960, Note_on_c, 9, 40, 95
4, 409920, Note_off_c, 9, 42, 95
4, 409920, Note_off_c, 9, 40, 95
4, 409920, Note_on_c, 9, 42, 95
4, 410880, Note_off_c, 9, 42, 95
4, 410880, Note_on_c, 9, 42, 95
4, 410880, Note_on_c, 9, 36, 95
4, 411840, Note_off_c, 9, 42, 95
4, 411840, Note_off_c, 9, 36, 95
4, 411840, Note_on_c, 9, 42, 95
4, 412800, Note_off_c, 9, 42, 95
4, 412800, Note_on_c, 9, 42, 95
4, 412800, Note_on_c, 9, 40, 95
4, 413760, Note_off_c, 9, 42, 95
4, 413760, Note_off_c, 9, 40, 95
4, 413760, Note_on_c, 9, 42, 95
4, 414720, Note_off_c, 9, 42, 95
4, 414720, Note_on_c, 9, 42, 95
4, 414720, Note_on_c, 9, 36, 95
4, 415680, Note_off_c, 9, 42, 95
4, 415680, Note_off_c, 9, 36, 95
4, 415680, Note_on_c, 9, 42, 95
4, 416640, Note_off_c, 9, 42, 95
4, 416640, Note_on_c, 9, 42, 95
4, 416640, Note_on_c, 9, 40, 95
4, 417600, Note_off_c, 9, 42, 95
4, 417600, Note_off_c, 9, 40, 95
4, 417600, Note_on_c, 9, 42, 95
4, 418560, Note_off_c, 9, 42, 95
4, 418560, Note_on_c, 9, 42, 95
4, 418560, Note_on_c, 9, 36, 95
4, 419520, Note_off_c, 9, 42, 95
4, 419520, Note_off_c, 9, 36, 95
4, 419520, Note_on_c, 9, 42, 95
4, 420480, Note_off_c, 9, 42, 95
4, 420480, Note_on_c, 9, 42, 95
4, 420480, Note_on_c, 9, 40, 95
4, 421440, Note_off_c, 9, 42, 95
4, 421440, Note_off_c, 9, 40, 95
4, 421440, Note_on_c, 9, 42, 95
4, 422400, Note_off_c, 9, 42, 95
4, 422400, Note_on_c, 9, 42, 95
4, 422400, Note_on_c, 9, 36, 95
4, 423360, Note_off_c, 9, 42, 95
4, 423360, Note_off_c, 9, 36, 95
4, 423360, Note_on_c, 9, 42, 95
4, 424320, Note_off_c, 9, 42, 95
4, 424320, Note_on_c, 9, 42, 95
4, 424320, Note_on_c, 9, 40, 95
4, 425280, Note_off_c, 9, 42, 95
4, 425280, Note_off_c, 9, 40, 95
4, 425280, Note_on_c, 9, 42, 95
4, 426240, Note_off_c, 9, 42, 95
4, 426240, Note_on_c, 9, 42, 95
4, 426240, Note_on_c, 9, 36, 95
4, 427200, Note_off_c, 9, 42, 95
4, 427200, Note_off_c, 9, 36, 95
4, 427200, Note_on_c, 9, 42, 95
4, 428160, Note_off_c, 9, 42, 95
4, 428160, Note_on_c, 9, 42, 95
4, 428160, Note_on_c, 9, 40, 95
4, 429120, Note_off_c, 9, 42, 95
4, 429120, Note_off_c, 9, 40, 95
4, 429120, Note_on_c, 9, 42, 95
4, 430080, Note_off_c, 9, 42, 95
4, 430080, Note_on_c, 9, 42, 95
4, 430080, Note_on_c, 9, 36, 95
4, 431040, Note_off_c, 9, 42, 95
4, 431040, Note_off_c, 9, 36, 95
4, 431040, Note_on_c, 9, 42, 95
4, 432000, Note_off_c, 9, 42, 95
4, 432000, Note_on_c, 9, 42, 95
4, 432000, Note_on_c, 9, 40, 95
4, 432960, Note_off_c, 9, 42, 95
4, 432960, Note_off_c, 9, 40, 95
4, 432960, Note_on_c, 9, 42, 95
4, 433920, Note_off_c, 9, 42, 95
4, 433920, Note_on_c, 9, 42, 95
4, 433920, Note_on_c, 9, 36, 95
4, 434880, Note_off_c, 9, 42, 95
4, 434880, Note_off_c, 9, 36, 95
4, 434880, Note_on_c, 9, 42, 95
4, 435840, Note_off_c, 9, 42, 95
4, 435840, Note_on_c, 9, 42, 95
4, 435840, Note_on_c, 9, 40, 95
4, 436800, Note_off_c, 9, 42, 95
4, 436800, Note_off_c, 9, 40, 95
4, 436800, Note_on_c, 9, 42, 95
4, 437760, Note_off_c, 9, 42, 95
4, 437760, Note_on_c, 9, 42, 95
4, 437760, Note_on_c, 9, 36, 95
4, 438720, Note_off_c, 9, 42, 95
4, 438720, Note_off_c, 9, 36, 95
4, 438720, Note_on_c, 9, 42, 95
4, 439680, Note_off_c, 9, 42, 95
4, 439680, Note_on_c, 9, 42, 95
4, 439680, Note_on_c, 9, 40, 95
4, 440640, Note_off_c, 9, 42, 95
4, 440640, Note_off_c, 9, 40, 95
4, 440640, Note_on_c, 9, 42, 95
4, 441600, Note_off_c, 9, 42, 95
4, 441600, Note_on_c, 9, 42, 95
4, 441600, Note_on_c, 9, 36, 95
4, 442560, Note_off_c, 9, 42, 95
4, 442560, Note_off_c, 9, 36, 95
4, 442560, Note_on_c, 9, 42, 95
4, 443520, Note_off_c, 9, 42, 95
4, 443520, Note_on_c, 9, 42, 95
4, 443520, Note_on_c, 9, 40, 95
4, 444480, Note_off_c, 9, 42, 95
4, 444480, Note_off_c, 9, 40, 95
4, 444480, Note_on_c, 9, 42, 95
4, 445440, Note_off_c, 9, 42, 95
4, 445440, Note_on_c, 9, 42, 95
4, 445440, Note_on_c, 9, 36, 95
4, 446400, Note_off_c, 9, 42, 95
4, 446400, Note_off_c, 9, 36, 95
4, 446400, Note_on_c, 9, 42, 95
4, 447360, Note_off_c, 9, 42, 95
4, 447360, Note_on_c, 9, 42, 95
4, 447360, Note_on_c, 9, 40, 95
4, 448320, Note_off_c, 9, 42, 95
4, 448320, Note_off_c, 9, 40, 95
4, 448320, Note_on_c, 9, 42, 95
4, 449280, Note_off_c, 9, 42, 95
4, 449280, Note_on_c, 9, 42, 95
4, 449280, Note_on_c, 9, 36, 95
4, 450240, Note_off_c, 9, 42, 95
4, 450240, Note_off_c, 9, 36, 95
4, 450240, Note_on_c, 9, 42, 95
4, 451200, Note_off_c, 9, 42, 95
4, 451200, Note_on_c, 9, 42, 95
4, 451200, Note_on_c, 9, 40, 95
4, 452160, Note_off_c, 9, 42, 95
4, 452160, Note_off_c, 9, 40, 95
4, 452160, Note_on_c, 9, 42, 95
4, 453120, Note_off_c, 9, 42, 95
4, 453120, Note_on_c, 9, 42, 95
4, 453120, Note_on_c, 9, 36, 95
4, 454080, Note_off_c, 9, 42, 95
4, 454080, Note_off_c, 9, 36, 95
4, 454080, Note_on_c, 9, 42, 95
4, 455040, Note_off_c, 9, 42, 95
4, 455040, Note_on_c, 9, 42, 95
4, 455040, Note_on_c, 9, 40, 95
4, 456000, Note_off_c, 9, 42, 95
4, 456000, Note_off_c, 9, 40, 95
4, 456000, Note_on_c, 9, 42, 95
4, 456960, Note_off_c, 9, 42, 95
4, 456960, Note_on_c, 9, 42, 95
4, 456960, Note_on_c, 9, 36, 95
4, 457920, Note_off_c, 9, 42, 95
4, 457920, Note_off_c, 9, 36, 95
4, 457920, Note_on_c, 9, 42, 95
4, 458880, Note_off_c, 9, 42, 95
4, 458880, Note_on_c, 9, 42, 95
4, 458880, Note_on_c, 9, 40, 95
4, 459840, Note_off_c, 9, 42, 95
4, 459840, Note_off_c, 9, 40, 95
4, 459840, Note_on_c, 9, 57, 95
4, 459840, Note_on_c, 9, 49, 95
4, 459840, Note_on_c, 9, 42, 95
4, 459840, Note_on_c, 9, 36, 95
4, 460320, Note_off_c, 9, 57, 95
4, 460320, Note_off_c, 9, 49, 95
4, 460320, Note_off_c, 9, 42, 95
4, 460320, Note_off_c, 9, 36, 95
4, 460800, Note_on_c, 9, 57, 95
4, 460800, Note_on_c, 9, 49, 95
4, 460800, Note_on_c, 9, 42, 95
4, 460800, Note_on_c, 9, 36, 95
4, 461280, Note_off_c, 9, 57, 95
4, 461280, Note_off_c, 9, 49, 95
4, 461280, Note_off_c, 9, 42, 95
4, 461280, Note_off_c, 9, 36, 95
4, 461280, Note_on_c, 9, 57, 95
4, 461280, Note_on_c, 9, 49, 95
4, 461280, Note_on_c, 9, 42, 95
4, 461280, Note_on_c, 9, 36, 95
4, 461760, Note_off_c, 9, 57, 95
4, 461760, Note_off_c, 9, 49, 95
4, 461760, Note_off_c, 9, 42, 95
4, 461760, Note_off_c, 9, 36, 95
4, 461760, Note_on_c, 9, 57, 95
4, 461760, Note_on_c, 9, 49, 95
4, 461760, Note_on_c, 9, 42, 95
4, 461760, Note_on_c, 9, 36, 95
4, 462240, Note_off_c, 9, 57, 95
4, 462240, Note_off_c, 9, 49, 95
4, 462240, Note_off_c, 9, 42, 95
4, 462240, Note_off_c, 9, 36, 95
4, 462720, Note_on_c, 9, 57, 95
4, 462720, Note_on_c, 9, 51, 95
4, 462720, Note_on_c, 9, 36, 95
4, 463200, Note_off_c, 9, 57, 95
4, 463200, Note_off_c, 9, 51, 95
4, 463200, Note_off_c, 9, 36, 95
4, 463680, Note_on_c, 9, 51, 95
4, 464160, Note_off_c, 9, 51, 95
4, 464640, Note_on_c, 9, 51, 95
4, 464640, Note_on_c, 9, 40, 95
4, 465120, Note_off_c, 9, 51, 95
4, 465120, Note_off_c, 9, 40, 95
4, 465600, Note_on_c, 9, 51, 95
4, 466080, Note_off_c, 9, 51, 95
4, 466560, Note_on_c, 9, 51, 95
4, 466560, Note_on_c, 9, 36, 95
4, 467040, Note_off_c, 9, 51, 95
4, 467040, Note_off_c, 9, 36, 95
4, 467520, Note_on_c, 9, 51, 95
4, 468000, Note_off_c, 9, 51, 95
4, 468480, Note_on_c, 9, 51, 95
4, 468480, Note_on_c, 9, 40, 95
4, 468960, Note_off_c, 9, 51, 95
4, 468960, Note_off_c, 9, 40, 95
4, 468960, Note_on_c, 9, 57, 95
4, 468960, Note_on_c, 9, 36, 95
4, 469440, Note_off_c, 9, 57, 95
4, 469440, Note_off_c, 9, 36, 95
4, 469440, Note_on_c, 9, 51, 95
4, 469920, Note_off_c, 9, 51, 95
4, 469920, Note_on_c, 9, 36, 95
4, 470400, Note_off_c, 9, 36, 95
4, 470400, Note_on_c, 9, 57, 95
4, 470400, Note_on_c, 9, 51, 95
4, 470400, Note_on_c, 9, 36, 95
4, 470880, Note_off_c, 9, 57, 95
4, 470880, Note_off_c, 9, 51, 95
4, 470880, Note_off_c, 9, 36, 95
4, 471360, Note_on_c, 9, 51, 95
4, 471840, Note_off_c, 9, 51, 95
4, 472320, Note_on_c, 9, 51, 95
4, 472320, Note_on_c, 9, 40, 95
4, 472800, Note_off_c, 9, 51, 95
4, 472800, Note_off_c, 9, 40, 95
4, 473280, Note_on_c, 9, 51, 95
4, 473760, Note_off_c, 9, 51, 95
4, 474240, Note_on_c, 9, 51, 95
4, 474240, Note_on_c, 9, 36, 95
4, 474720, Note_off_c, 9, 51, 95
4, 474720, Note_off_c, 9, 36, 95
4, 475200, Note_on_c, 9, 51, 95
4, 475680, Note_off_c, 9, 51, 95
4, 476160, Note_on_c, 9, 51, 95
4, 476160, Note_on_c, 9, 40, 95
4, 476640, Note_off_c, 9, 51, 95
4, 476640, Note_off_c, 9, 40, 95
4, 476640, Note_on_c, 9, 57, 95
4, 476640, Note_on_c, 9, 36, 95
4, 477120, Note_off_c, 9, 57, 95
4, 477120, Note_off_c, 9, 36, 95
4, 477120, Note_on_c, 9, 51, 95
4, 477600, Note_off_c, 9, 51, 95
4, 477600, Note_on_c, 9, 36, 95
4, 478080, Note_off_c, 9, 36, 95
4, 478080, Note_on_c, 9, 57, 95
4, 478080, Note_on_c, 9, 51, 95
4, 478080, Note_on_c, 9, 36, 95
4, 478560, Note_off_c, 9, 57, 95
4, 478560, Note_off_c, 9, 51, 95
4, 478560, Note_off_c, 9, 36, 95
4, 479040, Note_on_c, 9, 51, 95
4, 479520, Note_off_c, 9, 51, 95
4, 480000, Note_on_c, 9, 51, 95
4, 480000, Note_on_c, 9, 40, 95
4, 480480, Note_off_c, 9, 51, 95
4, 480480, Note_off_c, 9, 40, 95
4, 480960, Note_on_c, 9, 51, 95
4, 481440, Note_off_c, 9, 51, 95
4, 481920, Note_on_c, 9, 51, 95
4, 481920, Note_on_c, 9, 36, 95
4, 482400, Note_off_c, 9, 51, 95
4, 482400, Note_off_c, 9, 36, 95
4, 482880, Note_on_c, 9, 51, 95
4, 483360, Note_off_c, 9, 51, 95
4, 483840, Note_on_c, 9, 51, 95
4, 483840, Note_on_c, 9, 40, 95
4, 484320, Note_off_c, 9, 51, 95
4, 484320, Note_off_c, 9, 40, 95
4, 484320, Note_on_c, 9, 57, 95
4, 484320, Note_on_c, 9, 36, 95
4, 484800, Note_off_c, 9, 57, 95
4, 484800, Note_off_c, 9, 36, 95
4, 484800, Note_on_c, 9, 51, 95
4, 485280, Note_off_c, 9, 51, 95
4, 485280, Note_on_c, 9, 36, 95
4, 485760, Note_off_c, 9, 36, 95
4, 485760, Note_on_c, 9, 57, 95
4, 485760, Note_on_c, 9, 51, 95
4, 485760, Note_on_c, 9, 36, 95
4, 486240, Note_off_c, 9, 57, 95
4, 486240, Note_off_c, 9, 51, 95
4, 486240, Note_off_c, 9, 36, 95
4, 486720, Note_on_c, 9, 51, 95
4, 487200, Note_off_c, 9, 51, 95
4, 487680, Note_on_c, 9, 51, 95
4, 487680, Note_on_c, 9, 40, 95
4, 488160, Note_off_c, 9, 51, 95
4, 488160, Note_off_c, 9, 40, 95
4, 488640, Note_on_c, 9, 51, 95
4, 489120, Note_off_c, 9, 51, 95
4, 489600, Note_on_c, 9, 51, 95
4, 489600, Note_on_c, 9, 36, 95
4, 490080, Note_off_c, 9, 51, 95
4, 490080, Note_off_c, 9, 36, 95
4, 490560, Note_on_c, 9, 51, 95
4, 491040, Note_off_c, 9, 51, 95
4, 491520, Note_on_c, 9, 51, 95
4, 491520, Note_on_c, 9, 40, 95
4, 492000, Note_off_c, 9, 51, 95
4, 492000, Note_off_c, 9, 40, 95
4, 492000, Note_on_c, 9, 57, 95
4, 492000, Note_on_c, 9, 36, 95
4, 492480, Note_off_c, 9, 57, 95
4, 492480, Note_off_c, 9, 36, 95
4, 492480, Note_on_c, 9, 51, 95
4, 492960, Note_off_c, 9, 51, 95
4, 492960, Note_on_c, 9, 36, 95
4, 493440, Note_off_c, 9, 36, 95
4, 493440, End_track
0, 0, End_of_file
