0, 0, Header, 1, 6, 960
1, 0, Start_track
1, 0, Control_c, 0, 101, 0
1, 0, Control_c, 0, 100, 0
1, 0, Control_c, 0, 6, 12
1, 0, Control_c, 0, 38, 0
1, 0, Control_c, 1, 101, 0
1, 0, Control_c, 1, 100, 0
1, 0, Control_c, 1, 6, 12
1, 0, Control_c, 1, 38, 0
1, 0, Control_c, 2, 101, 0
1, 0, Control_c, 2, 100, 0
1, 0, Control_c, 2, 6, 12
1, 0, Control_c, 2, 38, 0
1, 0, Control_c, 3, 101, 0
1, 0, Control_c, 3, 100, 0
1, 0, Control_c, 3, 6, 12
1, 0, Control_c, 3, 38, 0
1, 0, Control_c, 4, 101, 0
1, 0, Control_c, 4, 100, 0
1, 0, Control_c, 4, 6, 12
1, 0, Control_c, 4, 38, 0
1, 0, Control_c, 5, 101, 0
1, 0, Control_c, 5, 100, 0
1, 0, Control_c, 5, 6, 12
1, 0, Control_c, 5, 38, 0
1, 0, Control_c, 6, 101, 0
1, 0, Control_c, 6, 100, 0
1, 0, Control_c, 6, 6, 12
1, 0, Control_c, 6, 38, 0
1, 0, Control_c, 7, 101, 0
1, 0, Control_c, 7, 100, 0
1, 0, Control_c, 7, 6, 12
1, 0, Control_c, 7, 38, 0
1, 0, Control_c, 8, 101, 0
1, 0, Control_c, 8, 100, 0
1, 0, Control_c, 8, 6, 12
1, 0, Control_c, 8, 38, 0
1, 0, Control_c, 9, 101, 0
1, 0, Control_c, 9, 100, 0
1, 0, Control_c, 9, 6, 12
1, 0, Control_c, 9, 38, 0
1, 0, Control_c, 10, 101, 0
1, 0, Control_c, 10, 100, 0
1, 0, Control_c, 10, 6, 12
1, 0, Control_c, 10, 38, 0
1, 0, Control_c, 11, 101, 0
1, 0, Control_c, 11, 100, 0
1, 0, Control_c, 11, 6, 12
1, 0, Control_c, 11, 38, 0
1, 0, Control_c, 12, 101, 0
1, 0, Control_c, 12, 100, 0
1, 0, Control_c, 12, 6, 12
1, 0, Control_c, 12, 38, 0
1, 0, Control_c, 13, 101, 0
1, 0, Control_c, 13, 100, 0
1, 0, Control_c, 13, 6, 12
1, 0, Control_c, 13, 38, 0
1, 0, Control_c, 14, 101, 0
1, 0, Control_c, 14, 100, 0
1, 0, Control_c, 14, 6, 12
1, 0, Control_c, 14, 38, 0
1, 0, Control_c, 15, 101, 0
1, 0, Control_c, 15, 100, 0
1, 0, Control_c, 15, 6, 12
1, 0, Control_c, 15, 38, 0
1, 0, Time_signature, 4, 2, 24, 8
1, 0, Tempo, 800000
1, 3840, Tempo, 769230
1, 3840, End_track
2, 0, Start_track
2, 0, Pitch_bend_c, 6, 8192
2, 0, Control_c, 6, 7, 103
2, 0, Control_c, 6, 10, 63
2, 0, Control_c, 6, 93, 31
2, 0, Control_c, 6, 91, 63
2, 0, Control_c, 6, 95, 0
2, 0, Control_c, 6, 92, 0
2, 0, Control_c, 6, 11, 127
2, 0, Program_c, 6, 73
2, 0, Control_c, 7, 7, 103
2, 0, Control_c, 7, 10, 63
2, 0, Control_c, 7, 93, 31
2, 0, Control_c, 7, 91, 63
2, 0, Control_c, 7, 95, 0
2, 0, Control_c, 7, 92, 0
2, 0, Control_c, 7, 11, 127
2, 0, Program_c, 7, 73
2, 92640, Note_on_c, 6, 62, 111
2, 92880, Note_off_c, 6, 62, 111
2, 92880, Note_on_c, 6, 62, 111
2, 93120, Note_off_c, 6, 62, 111
2, 93120, Note_on_c, 6, 62, 111
2, 93280, Note_off_c, 6, 62, 111
2, 93280, Note_on_c, 6, 62, 95
2, 93440, Note_off_c, 6, 62, 95
2, 93440, Note_on_c, 6, 62, 95
2, 93840, Note_off_c, 6, 62, 95
2, 93840, Note_on_c, 6, 55, 79
2, 94080, Note_off_c, 6, 55, 79
2, 94080, Note_on_c, 6, 58, 79
2, 94320, Note_off_c, 6, 58, 79
2, 94320, Note_on_c, 6, 58, 95
2, 94800, Note_off_c, 6, 58, 95
2, 94800, Note_on_c, 6, 55, 95
2, 95040, Note_off_c, 6, 55, 95
2, 95040, Note_on_c, 6, 53, 22
2, 95280, Note_off_c, 6, 53, 22
2, 96480, Note_on_c, 6, 58, 79
2, 96600, Note_off_c, 6, 58, 79
2, 96600, Note_on_c, 6, 55, 79
2, 96720, Note_off_c, 6, 55, 79
2, 96720, Note_on_c, 6, 58, 95
2, 96960, Note_off_c, 6, 58, 95
2, 96960, Note_on_c, 6, 55, 79
2, 97200, Note_off_c, 6, 55, 79
2, 97200, Note_on_c, 6, 58, 95
2, 97440, Note_off_c, 6, 58, 95
2, 97440, Note_on_c, 6, 55, 79
2, 97680, Note_off_c, 6, 55, 79
2, 97680, Note_on_c, 6, 58, 95
2, 97920, Note_off_c, 6, 58, 95
2, 97920, Note_on_c, 6, 58, 95
2, 98160, Note_off_c, 6, 58, 95
2, 98160, Note_on_c, 6, 60, 95
2, 98880, Note_off_c, 6, 60, 95
2, 101520, Note_on_c, 6, 53, 79
2, 101760, Note_off_c, 6, 53, 79
2, 101760, Note_on_c, 6, 62, 95
2, 102240, Note_off_c, 6, 62, 95
2, 102240, Note_on_c, 6, 62, 95
2, 103200, Note_off_c, 6, 62, 95
2, 108000, Note_on_c, 6, 62, 95
2, 108160, Note_off_c, 6, 62, 95
2, 108160, Note_on_c, 6, 62, 95
2, 108320, Note_off_c, 6, 62, 95
2, 108320, Note_on_c, 6, 62, 79
2, 109120, Note_off_c, 6, 62, 79
2, 109120, Note_on_c, 6, 58, 79
2, 109280, Note_off_c, 6, 58, 79
2, 109280, Note_on_c, 6, 55, 79
2, 109440, Note_off_c, 6, 55, 79
2, 109440, Note_on_c, 6, 58, 95
2, 109920, Note_off_c, 6, 58, 95
2, 109920, Note_on_c, 6, 60, 79
2, 110160, Note_off_c, 6, 60, 79
2, 110160, Note_on_c, 6, 55, 63
2, 110400, Note_off_c, 6, 55, 63
2, 111360, Note_on_c, 6, 53, 79
2, 111520, Note_off_c, 6, 53, 79
2, 111520, Note_on_c, 6, 58, 95
2, 111840, Note_off_c, 6, 58, 95
2, 111840, Note_on_c, 6, 55, 79
2, 112000, Note_off_c, 6, 55, 79
2, 112000, Note_on_c, 6, 58, 95
2, 112560, Note_off_c, 6, 58, 95
2, 112560, Note_on_c, 6, 60, 79
2, 112800, Note_off_c, 6, 60, 79
2, 112800, Note_on_c, 6, 53, 95
2, 113040, Note_off_c, 6, 53, 95
2, 113040, Note_on_c, 6, 53, 79
2, 113280, Note_off_c, 6, 53, 79
2, 113280, Note_on_c, 6, 58, 95
2, 114240, Note_off_c, 6, 58, 95
2, 116640, Note_on_c, 6, 55, 79
2, 117120, Note_off_c, 6, 55, 79
2, 117120, Note_on_c, 6, 62, 95
2, 117360, Note_off_c, 6, 62, 95
2, 117360, Note_on_c, 6, 62, 95
2, 117600, Note_off_c, 6, 62, 95
2, 117600, Note_on_c, 6, 62, 79
2, 118560, Note_off_c, 6, 62, 79
2, 124800, Note_on_c, 6, 62, 95
2, 125280, Note_off_c, 6, 62, 95
2, 125280, Note_on_c, 6, 62, 95
2, 125600, Note_off_c, 6, 62, 95
2, 125600, Note_on_c, 6, 62, 95
2, 126400, Note_off_c, 6, 62, 95
2, 126400, Note_on_c, 6, 58, 47
2, 126400, Note_on_c, 6, 49, 95
2, 126439, Note_off_c, 6, 49, 95
2, 126560, Note_off_c, 6, 58, 47
2, 126560, Note_on_c, 6, 58, 47
2, 126560, Note_on_c, 6, 49, 95
2, 126599, Note_off_c, 6, 49, 95
2, 126720, Note_off_c, 6, 58, 47
2, 128160, Note_on_c, 6, 67, 95
2, 128480, Note_off_c, 6, 67, 95
2, 128480, Note_on_c, 6, 62, 95
2, 128800, Note_off_c, 6, 62, 95
2, 128800, Note_on_c, 6, 58, 95
2, 129120, Note_off_c, 6, 58, 95
2, 129120, Note_on_c, 6, 53, 63
2, 129600, Note_off_c, 6, 53, 63
2, 131520, Note_on_c, 6, 55, 95
2, 131760, Note_off_c, 6, 55, 95
2, 131760, Note_on_c, 6, 67, 111
2, 132000, Note_off_c, 6, 67, 111
2, 132000, Note_on_c, 6, 67, 95
2, 132240, Note_off_c, 6, 67, 95
2, 132240, Note_on_c, 6, 65, 95
2, 132480, Note_off_c, 6, 65, 95
2, 132480, Note_on_c, 6, 65, 79
2, 132720, Note_off_c, 6, 65, 79
2, 132720, Note_on_c, 6, 62, 79
2, 132960, Note_off_c, 6, 62, 79
2, 132960, Note_on_c, 6, 57, 79
2, 133440, Note_off_c, 6, 57, 79
2, 133440, Note_on_c, 6, 51, 63
2, 133920, Note_off_c, 6, 51, 63
2, 135360, Note_on_c, 6, 60, 111
2, 135680, Note_off_c, 6, 60, 111
2, 135680, Note_on_c, 6, 60, 79
2, 135840, Note_off_c, 6, 60, 79
2, 135840, Note_on_c, 6, 62, 95
2, 136320, Note_off_c, 6, 62, 95
2, 138560, Note_on_c, 6, 63, 95
2, 138720, Note_off_c, 6, 63, 95
2, 138720, Note_on_c, 6, 58, 95
2, 139200, Note_off_c, 6, 58, 95
2, 139200, Note_on_c, 6, 51, 79
2, 139440, Note_off_c, 6, 51, 79
2, 139680, Note_on_c, 6, 58, 79
2, 139800, Note_off_c, 6, 58, 79
2, 139800, Note_on_c, 6, 62, 95
2, 140040, Note_off_c, 6, 62, 95
2, 140040, Note_on_c, 6, 58, 79
2, 140160, Note_off_c, 6, 58, 79
2, 140160, Note_on_c, 6, 55, 95
2, 140400, Note_off_c, 6, 55, 95
2, 140400, Note_on_c, 6, 53, 54
2, 141120, Note_off_c, 6, 53, 54
2, 142080, Note_on_c, 6, 60, 111
2, 142560, Note_off_c, 6, 60, 111
2, 142560, Note_on_c, 6, 52, 111
2, 143040, Note_off_c, 6, 52, 111
2, 143040, Note_on_c, 6, 55, 111
2, 143520, Note_off_c, 6, 55, 111
2, 146880, Note_on_c, 6, 55, 63
2, 147360, Note_off_c, 6, 55, 63
2, 147360, Note_on_c, 6, 62, 95
2, 147600, Note_off_c, 6, 62, 95
2, 147600, Note_on_c, 6, 62, 95
2, 147840, Note_off_c, 6, 62, 95
2, 147840, Note_on_c, 6, 62, 95
2, 148320, Note_off_c, 6, 62, 95
2, 148320, Note_on_c, 6, 58, 95
2, 148560, Note_off_c, 6, 58, 95
2, 148560, Note_on_c, 6, 55, 79
2, 148800, Note_off_c, 6, 55, 79
2, 149760, Note_on_c, 6, 60, 95
2, 150240, Note_off_c, 6, 60, 95
2, 150240, Note_on_c, 6, 60, 79
2, 150720, Note_off_c, 6, 60, 79
2, 150720, Note_on_c, 6, 60, 95
2, 151200, Note_off_c, 6, 60, 95
2, 151200, Note_on_c, 6, 52, 63
2, 152160, Note_off_c, 6, 52, 63
2, 154880, Note_on_c, 6, 64, 95
2, 155040, Note_off_c, 6, 64, 95
2, 155040, Note_on_c, 6, 64, 95
2, 155160, Note_off_c, 6, 64, 95
2, 155160, Note_on_c, 6, 64, 95
2, 155280, Note_off_c, 6, 64, 95
2, 155280, Note_on_c, 6, 64, 95
2, 155400, Note_off_c, 6, 64, 95
2, 155400, Note_on_c, 6, 64, 95
2, 155760, Note_off_c, 6, 64, 95
2, 155760, Note_on_c, 7, 65, 95
2, 155880, Pitch_bend_c, 7, 7040
2, 156000, Pitch_bend_c, 7, 5760
2, 156120, Pitch_bend_c, 7, 4608
2, 156240, Pitch_bend_c, 7, 3328
2, 156240, Pitch_bend_c, 7, 8192
2, 156240, Note_off_c, 7, 65, 95
2, 156240, Note_on_c, 6, 58, 15
2, 156480, Note_off_c, 6, 58, 15
2, 156480, Note_on_c, 6, 53, 79
2, 156720, Note_off_c, 6, 53, 79
2, 156720, Note_on_c, 6, 52, 38
2, 157440, Note_off_c, 6, 52, 38
2, 158400, Note_on_c, 6, 63, 95
2, 159360, Note_off_c, 6, 63, 95
2, 159360, Note_on_c, 6, 58, 95
2, 159600, Note_off_c, 6, 58, 95
2, 159600, Note_on_c, 6, 58, 95
2, 159840, Note_off_c, 6, 58, 95
2, 159840, Note_on_c, 6, 58, 95
2, 160560, Note_off_c, 6, 58, 95
2, 160560, Note_on_c, 6, 60, 95
2, 162480, Note_off_c, 6, 60, 95
2, 162480, Note_on_c, 6, 62, 95
2, 163200, Note_off_c, 6, 62, 95
2, 166080, Note_on_c, 7, 67, 111
2, 166200, Pitch_bend_c, 7, 7808
2, 166320, Pitch_bend_c, 7, 7296
2, 166440, Pitch_bend_c, 7, 6784
2, 166560, Pitch_bend_c, 7, 6400
2, 166680, Pitch_bend_c, 7, 5888
2, 166800, Pitch_bend_c, 7, 5376
2, 166800, Pitch_bend_c, 7, 8192
2, 166800, Note_off_c, 7, 67, 111
2, 166800, Note_on_c, 6, 63, 31
2, 167040, Note_off_c, 6, 63, 31
2, 167040, Note_on_c, 6, 67, 95
2, 167520, Note_off_c, 6, 67, 95
2, 167520, Note_on_c, 6, 65, 95
2, 168000, Note_off_c, 6, 65, 95
2, 168000, Note_on_c, 6, 62, 95
2, 168480, Note_off_c, 6, 62, 95
2, 168480, Note_on_c, 6, 60, 95
2, 168720, Note_off_c, 6, 60, 95
2, 168720, Note_on_c, 6, 58, 70
2, 168960, Note_off_c, 6, 58, 70
2, 174240, Note_on_c, 6, 63, 95
2, 175680, Note_off_c, 6, 63, 95
2, 175680, Note_on_c, 6, 62, 95
2, 176000, Note_off_c, 6, 62, 95
2, 176000, Note_on_c, 6, 65, 95
2, 176160, Note_off_c, 6, 65, 95
2, 176480, Note_on_c, 6, 62, 95
2, 176880, Note_off_c, 6, 62, 95
2, 176880, Note_on_c, 6, 58, 95
2, 177360, Note_off_c, 6, 58, 95
2, 177360, Note_on_c, 6, 58, 95
2, 177600, Note_off_c, 6, 58, 95
2, 181920, Note_on_c, 6, 58, 95
2, 182160, Note_off_c, 6, 58, 95
2, 182160, Note_on_c, 6, 58, 95
2, 182400, Note_off_c, 6, 58, 95
2, 182400, Note_on_c, 6, 63, 95
2, 182880, Note_off_c, 6, 63, 95
2, 182880, Note_on_c, 6, 62, 95
2, 183200, Note_off_c, 6, 62, 95
2, 183200, Note_on_c, 6, 58, 95
2, 183680, Note_off_c, 6, 58, 95
2, 183680, Note_on_c, 6, 62, 95
2, 184320, Note_off_c, 6, 62, 95
2, 189600, Note_on_c, 6, 58, 95
2, 189840, Note_off_c, 6, 58, 95
2, 189840, Note_on_c, 6, 58, 95
2, 190080, Note_off_c, 6, 58, 95
2, 190080, Note_on_c, 6, 63, 95
2, 190560, Note_off_c, 6, 63, 95
2, 190560, Note_on_c, 6, 62, 95
2, 191360, Note_off_c, 6, 62, 95
2, 191360, Note_on_c, 6, 62, 95
2, 192000, Note_off_c, 6, 62, 95
2, 195040, Note_on_c, 6, 60, 47
2, 195040, Note_on_c, 6, 54, 95
2, 195079, Note_off_c, 6, 54, 95
2, 195200, Note_off_c, 6, 60, 47
2, 195200, Note_on_c, 6, 60, 47
2, 195200, Note_on_c, 6, 54, 95
2, 195239, Note_off_c, 6, 54, 95
2, 195680, Note_off_c, 6, 60, 47
2, 195680, Note_on_c, 6, 60, 47
2, 195680, Note_on_c, 6, 54, 95
2, 195719, Note_off_c, 6, 54, 95
2, 195840, Note_off_c, 6, 60, 47
2, 196800, Note_on_c, 6, 58, 95
2, 197280, Note_off_c, 6, 58, 95
2, 197280, Note_on_c, 6, 58, 95
2, 197760, Note_off_c, 6, 58, 95
2, 197760, Note_on_c, 6, 63, 95
2, 198240, Note_off_c, 6, 63, 95
2, 198240, Note_on_c, 6, 62, 95
2, 199040, Note_off_c, 6, 62, 95
2, 199040, Note_on_c, 6, 62, 95
2, 199680, Note_off_c, 6, 62, 95
2, 203040, Note_on_c, 6, 58, 47
2, 203040, Note_on_c, 6, 49, 95
2, 203079, Note_off_c, 6, 49, 95
2, 203520, Note_off_c, 6, 58, 47
2, 204480, Note_on_c, 6, 67, 127
2, 204960, Note_off_c, 6, 67, 127
2, 204960, Note_on_c, 6, 67, 127
2, 205440, Note_off_c, 6, 67, 127
2, 205440, Note_on_c, 6, 62, 127
2, 205920, Note_off_c, 6, 62, 127
2, 205920, Note_on_c, 6, 58, 111
2, 206400, Note_off_c, 6, 58, 111
2, 206400, Note_on_c, 6, 55, 95
2, 206640, Note_off_c, 6, 55, 95
2, 206640, Note_on_c, 6, 53, 70
2, 207360, Note_off_c, 6, 53, 70
2, 207360, End_track
3, 0, Start_track
3, 0, Pitch_bend_c, 0, 8192
3, 0, Control_c, 0, 7, 103
3, 0, Control_c, 0, 10, 31
3, 0, Control_c, 0, 93, 31
3, 0, Control_c, 0, 91, 63
3, 0, Control_c, 0, 95, 0
3, 0, Control_c, 0, 92, 0
3, 0, Control_c, 0, 11, 127
3, 0, Program_c, 0, 26
3, 0, Control_c, 1, 7, 103
3, 0, Control_c, 1, 10, 31
3, 0, Control_c, 1, 93, 31
3, 0, Control_c, 1, 91, 63
3, 0, Control_c, 1, 95, 0
3, 0, Control_c, 1, 92, 0
3, 0, Control_c, 1, 11, 127
3, 0, Program_c, 1, 26
3, 0, Note_on_c, 0, 62, 47
3, 0, Note_on_c, 0, 58, 95
3, 0, Note_on_c, 0, 53, 95
3, 0, Note_on_c, 0, 46, 95
3, 480, Note_off_c, 0, 62, 47
3, 480, Note_off_c, 0, 58, 95
3, 480, Note_off_c, 0, 53, 95
3, 480, Note_off_c, 0, 46, 95
3, 480, Note_on_c, 0, 54, 63
3, 480, Note_on_c, 0, 49, 63
3, 517, Note_off_c, 0, 54, 63
3, 517, Note_off_c, 0, 49, 63
3, 720, Note_on_c, 0, 54, 95
3, 720, Note_on_c, 0, 49, 95
3, 757, Note_off_c, 0, 54, 95
3, 757, Note_off_c, 0, 49, 95
3, 960, Note_on_c, 0, 54, 47
3, 960, Note_on_c, 0, 49, 47
3, 960, Note_on_c, 0, 44, 95
3, 960, Note_on_c, 0, 39, 95
3, 997, Note_off_c, 0, 54, 47
3, 997, Note_off_c, 0, 49, 47
3, 997, Note_off_c, 0, 44, 95
3, 997, Note_off_c, 0, 39, 95
3, 1920, Note_on_c, 0, 51, 95
3, 1920, Note_on_c, 0, 46, 95
3, 1920, Note_on_c, 0, 39, 95
3, 2400, Note_off_c, 0, 51, 95
3, 2400, Note_off_c, 0, 46, 95
3, 2400, Note_off_c, 0, 39, 95
3, 2400, Note_on_c, 0, 58, 47
3, 2400, Note_on_c, 0, 55, 95
3, 2400, Note_on_c, 0, 51, 95
3, 2400, Note_on_c, 0, 46, 95
3, 2880, Note_off_c, 0, 58, 47
3, 2880, Note_off_c, 0, 55, 95
3, 2880, Note_off_c, 0, 51, 95
3, 2880, Note_off_c, 0, 46, 95
3, 3600, Note_on_c, 0, 57, 47
3, 3600, Note_on_c, 0, 53, 47
3, 3600, Note_on_c, 0, 48, 47
3, 3600, Note_on_c, 0, 39, 95
3, 3840, Note_off_c, 0, 57, 47
3, 3840, Note_off_c, 0, 53, 47
3, 3840, Note_off_c, 0, 48, 47
3, 3840, Note_off_c, 0, 39, 95
3, 3840, Note_on_c, 0, 41, 70
3, 4320, Note_off_c, 0, 41, 70
3, 4800, Note_on_c, 0, 48, 47
3, 4800, Note_on_c, 0, 41, 95
3, 5280, Note_off_c, 0, 48, 47
3, 5280, Note_off_c, 0, 41, 95
3, 5760, Note_on_c, 0, 44, 95
3, 5760, Note_on_c, 0, 39, 95
3, 5799, Note_off_c, 0, 44, 95
3, 5799, Note_off_c, 0, 39, 95
3, 6000, Note_on_c, 0, 63, 95
3, 6000, Note_on_c, 0, 58, 95
3, 6000, Note_on_c, 0, 51, 95
3, 6000, Note_on_c, 0, 39, 95
3, 6240, Note_off_c, 0, 63, 95
3, 6240, Note_off_c, 0, 58, 95
3, 6240, Note_off_c, 0, 51, 95
3, 6240, Note_off_c, 0, 39, 95
3, 6240, Note_on_c, 0, 63, 95
3, 6240, Note_on_c, 0, 58, 95
3, 6240, Note_on_c, 0, 51, 95
3, 6240, Note_on_c, 0, 39, 95
3, 6480, Note_off_c, 0, 63, 95
3, 6480, Note_off_c, 0, 58, 95
3, 6480, Note_off_c, 0, 51, 95
3, 6480, Note_off_c, 0, 39, 95
3, 6480, Note_on_c, 0, 63, 95
3, 6480, Note_on_c, 0, 58, 95
3, 6480, Note_on_c, 0, 51, 95
3, 6480, Note_on_c, 0, 39, 95
3, 6720, Note_off_c, 0, 63, 95
3, 6720, Note_off_c, 0, 58, 95
3, 6720, Note_off_c, 0, 51, 95
3, 6720, Note_off_c, 0, 39, 95
3, 6720, Note_on_c, 1, 63, 95
3, 6720, Note_on_c, 1, 58, 95
3, 6720, Note_on_c, 1, 51, 95
3, 6720, Note_on_c, 0, 39, 95
3, 6840, Pitch_bend_c, 1, 8832
3, 6840, Pitch_bend_c, 1, 8832
3, 6840, Pitch_bend_c, 1, 8832
3, 6960, Pitch_bend_c, 1, 9600
3, 6960, Pitch_bend_c, 1, 8192
3, 6960, Note_off_c, 1, 63, 95
3, 6960, Pitch_bend_c, 1, 9600
3, 6960, Pitch_bend_c, 1, 8192
3, 6960, Note_off_c, 1, 58, 95
3, 6960, Pitch_bend_c, 1, 9600
3, 6960, Pitch_bend_c, 1, 8192
3, 6960, Note_off_c, 1, 51, 95
3, 6960, Note_off_c, 0, 39, 95
3, 6960, Note_on_c, 0, 65, 95
3, 6960, Note_on_c, 0, 60, 95
3, 6960, Note_on_c, 0, 53, 95
3, 7200, Note_off_c, 0, 65, 95
3, 7200, Note_off_c, 0, 60, 95
3, 7200, Note_off_c, 0, 53, 95
3, 7200, Note_on_c, 0, 65, 95
3, 7200, Note_on_c, 0, 60, 95
3, 7200, Note_on_c, 0, 53, 95
3, 7680, Note_off_c, 0, 65, 95
3, 7680, Note_off_c, 0, 60, 95
3, 7680, Note_off_c, 0, 53, 95
3, 7680, Note_on_c, 0, 62, 95
3, 7680, Note_on_c, 0, 58, 95
3, 7680, Note_on_c, 0, 53, 95
3, 7680, Note_on_c, 0, 46, 95
3, 7680, Note_on_c, 1, 41, 47
3, 7800, Pitch_bend_c, 1, 8960
3, 7920, Pitch_bend_c, 1, 9728
3, 8040, Pitch_bend_c, 1, 10496
3, 8160, Pitch_bend_c, 1, 11264
3, 8280, Pitch_bend_c, 1, 12032
3, 8400, Pitch_bend_c, 1, 12928
3, 8520, Pitch_bend_c, 1, 13696
3, 8640, Note_off_c, 0, 62, 95
3, 8640, Note_off_c, 0, 58, 95
3, 8640, Note_off_c, 0, 53, 95
3, 8640, Note_off_c, 0, 46, 95
3, 8640, Pitch_bend_c, 1, 14464
3, 8640, Pitch_bend_c, 1, 8192
3, 8640, Note_off_c, 1, 41, 47
3, 8640, Note_on_c, 0, 50, 95
3, 9120, Note_off_c, 0, 50, 95
3, 9120, Note_on_c, 1, 65, 63
3, 9120, Note_on_c, 1, 60, 63
3, 9120, Note_on_c, 1, 55, 47
3, 9120, Note_on_c, 0, 39, 95
3, 9159, Note_off_c, 0, 39, 95
3, 9240, Pitch_bend_c, 1, 6272
3, 9240, Pitch_bend_c, 1, 6272
3, 9240, Pitch_bend_c, 1, 6272
3, 9360, Pitch_bend_c, 1, 4352
3, 9360, Pitch_bend_c, 1, 4352
3, 9360, Pitch_bend_c, 1, 4352
3, 9480, Pitch_bend_c, 1, 2432
3, 9480, Pitch_bend_c, 1, 2432
3, 9480, Pitch_bend_c, 1, 2432
3, 9600, Pitch_bend_c, 1, 512
3, 9600, Pitch_bend_c, 1, 8192
3, 9600, Note_off_c, 1, 65, 63
3, 9600, Pitch_bend_c, 1, 512
3, 9600, Pitch_bend_c, 1, 8192
3, 9600, Note_off_c, 1, 60, 63
3, 9600, Pitch_bend_c, 1, 512
3, 9600, Pitch_bend_c, 1, 8192
3, 9600, Note_off_c, 1, 55, 47
3, 9600, Note_on_c, 0, 54, 95
3, 9600, Note_on_c, 0, 49, 95
3, 9600, Note_on_c, 0, 44, 95
3, 9600, Note_on_c, 0, 39, 95
3, 9639, Note_off_c, 0, 54, 95
3, 9639, Note_off_c, 0, 49, 95
3, 9639, Note_off_c, 0, 44, 95
3, 9639, Note_off_c, 0, 39, 95
3, 9840, Note_on_c, 0, 55, 47
3, 9840, Note_on_c, 0, 51, 95
3, 9840, Note_on_c, 0, 46, 95
3, 9840, Note_on_c, 0, 39, 95
3, 10080, Note_off_c, 0, 55, 47
3, 10080, Note_off_c, 0, 51, 95
3, 10080, Note_off_c, 0, 46, 95
3, 10080, Note_off_c, 0, 39, 95
3, 10080, Note_on_c, 0, 51, 95
3, 10080, Note_on_c, 0, 46, 95
3, 10080, Note_on_c, 0, 39, 95
3, 10560, Note_off_c, 0, 51, 95
3, 10560, Note_off_c, 0, 46, 95
3, 10560, Note_off_c, 0, 39, 95
3, 10560, Note_on_c, 0, 55, 95
3, 10560, Note_on_c, 0, 51, 95
3, 10560, Note_on_c, 0, 46, 95
3, 10560, Note_on_c, 0, 39, 95
3, 11040, Note_off_c, 0, 55, 95
3, 11040, Note_off_c, 0, 51, 95
3, 11040, Note_off_c, 0, 46, 95
3, 11040, Note_off_c, 0, 39, 95
3, 11520, Note_on_c, 0, 53, 95
3, 11520, Note_on_c, 0, 48, 95
3, 11520, Note_on_c, 0, 41, 95
3, 12000, Note_off_c, 0, 53, 95
3, 12000, Note_off_c, 0, 48, 95
3, 12000, Note_off_c, 0, 41, 95
3, 12480, Note_on_c, 0, 57, 47
3, 12480, Note_on_c, 0, 53, 95
3, 12480, Note_on_c, 0, 48, 95
3, 12480, Note_on_c, 0, 41, 95
3, 12960, Note_off_c, 0, 57, 47
3, 12960, Note_off_c, 0, 53, 95
3, 12960, Note_off_c, 0, 48, 95
3, 12960, Note_off_c, 0, 41, 95
3, 13440, Note_on_c, 0, 41, 95
3, 13680, Note_off_c, 0, 41, 95
3, 13680, Note_on_c, 0, 43, 95
3, 13920, Note_off_c, 0, 43, 95
3, 13920, Note_on_c, 0, 46, 95
3, 14160, Note_off_c, 0, 46, 95
3, 14160, Note_on_c, 0, 43, 95
3, 14400, Note_off_c, 0, 43, 95
3, 14400, Note_on_c, 0, 46, 95
3, 14640, Note_off_c, 0, 46, 95
3, 14640, Note_on_c, 1, 48, 95
3, 14760, Pitch_bend_c, 1, 9600
3, 14760, Pitch_bend_c, 1, 8192
3, 14760, Note_off_c, 1, 48, 95
3, 14760, Note_on_c, 0, 50, 95
3, 14880, Note_off_c, 0, 50, 95
3, 14880, Note_on_c, 0, 58, 95
3, 14880, Note_on_c, 0, 53, 95
3, 15120, Note_off_c, 0, 58, 95
3, 15120, Note_off_c, 0, 53, 95
3, 15120, Note_on_c, 0, 54, 95
3, 15120, Note_on_c, 0, 49, 95
3, 15159, Note_off_c, 0, 54, 95
3, 15159, Note_off_c, 0, 49, 95
3, 15360, Note_on_c, 0, 58, 95
3, 15360, Note_on_c, 0, 53, 95
3, 15360, Note_on_c, 0, 46, 95
3, 16080, Note_off_c, 0, 58, 95
3, 16080, Note_off_c, 0, 53, 95
3, 16080, Note_off_c, 0, 46, 95
3, 16080, Note_on_c, 0, 62, 95
3, 16080, Note_on_c, 0, 58, 95
3, 16080, Note_on_c, 0, 53, 95
3, 16320, Note_off_c, 0, 62, 95
3, 16320, Note_off_c, 0, 58, 95
3, 16320, Note_off_c, 0, 53, 95
3, 16320, Note_on_c, 1, 62, 95
3, 16320, Note_on_c, 1, 58, 95
3, 16320, Note_on_c, 1, 53, 95
3, 16440, Pitch_bend_c, 1, 7552
3, 16440, Pitch_bend_c, 1, 7552
3, 16440, Pitch_bend_c, 1, 7552
3, 16560, Pitch_bend_c, 1, 6784
3, 16560, Pitch_bend_c, 1, 8192
3, 16560, Note_off_c, 1, 62, 95
3, 16560, Pitch_bend_c, 1, 6784
3, 16560, Pitch_bend_c, 1, 8192
3, 16560, Note_off_c, 1, 58, 95
3, 16560, Pitch_bend_c, 1, 6784
3, 16560, Pitch_bend_c, 1, 8192
3, 16560, Note_off_c, 1, 53, 95
3, 16560, Note_on_c, 0, 60, 95
3, 16560, Note_on_c, 0, 56, 95
3, 16560, Note_on_c, 0, 51, 95
3, 16800, Note_off_c, 0, 60, 95
3, 16800, Note_off_c, 0, 56, 95
3, 16800, Note_off_c, 0, 51, 95
3, 16800, Note_on_c, 0, 56, 95
3, 16800, Note_on_c, 0, 51, 95
3, 17280, Note_off_c, 0, 56, 95
3, 17280, Note_off_c, 0, 51, 95
3, 17280, Note_on_c, 0, 46, 95
3, 17280, Note_on_c, 0, 39, 95
3, 17760, Note_off_c, 0, 46, 95
3, 17760, Note_off_c, 0, 39, 95
3, 17760, Note_on_c, 0, 58, 95
3, 17760, Note_on_c, 0, 55, 95
3, 17760, Note_on_c, 0, 51, 95
3, 17760, Note_on_c, 0, 46, 95
3, 17760, Note_on_c, 0, 39, 95
3, 18240, Note_off_c, 0, 58, 95
3, 18240, Note_off_c, 0, 55, 95
3, 18240, Note_off_c, 0, 51, 95
3, 18240, Note_off_c, 0, 46, 95
3, 18240, Note_off_c, 0, 39, 95
3, 18240, Note_on_c, 0, 63, 95
3, 18240, Note_on_c, 0, 58, 95
3, 18240, Note_on_c, 0, 55, 95
3, 18240, Note_on_c, 0, 51, 95
3, 18240, Note_on_c, 0, 46, 95
3, 18240, Note_on_c, 0, 39, 95
3, 18480, Note_off_c, 0, 63, 95
3, 18480, Note_off_c, 0, 58, 95
3, 18480, Note_off_c, 0, 55, 95
3, 18480, Note_off_c, 0, 51, 95
3, 18480, Note_off_c, 0, 46, 95
3, 18480, Note_off_c, 0, 39, 95
3, 18480, Note_on_c, 0, 63, 95
3, 18480, Note_on_c, 0, 58, 95
3, 18480, Note_on_c, 0, 55, 95
3, 18480, Note_on_c, 0, 51, 95
3, 18720, Note_off_c, 0, 63, 95
3, 18720, Note_off_c, 0, 58, 95
3, 18720, Note_off_c, 0, 55, 95
3, 18720, Note_off_c, 0, 51, 95
3, 18720, Note_on_c, 0, 63, 95
3, 18720, Note_on_c, 0, 58, 95
3, 18720, Note_on_c, 0, 55, 95
3, 18720, Note_on_c, 0, 51, 95
3, 18720, Note_on_c, 0, 46, 95
3, 18960, Note_off_c, 0, 63, 95
3, 18960, Note_off_c, 0, 58, 95
3, 18960, Note_off_c, 0, 55, 95
3, 18960, Note_off_c, 0, 51, 95
3, 18960, Note_off_c, 0, 46, 95
3, 18960, Note_on_c, 0, 63, 95
3, 18960, Note_on_c, 0, 58, 95
3, 18960, Note_on_c, 0, 55, 95
3, 18960, Note_on_c, 0, 51, 95
3, 19200, Note_off_c, 0, 63, 95
3, 19200, Note_off_c, 0, 58, 95
3, 19200, Note_off_c, 0, 55, 95
3, 19200, Note_off_c, 0, 51, 95
3, 19200, Note_on_c, 0, 48, 95
3, 19200, Note_on_c, 0, 41, 95
3, 19680, Note_off_c, 0, 48, 95
3, 19680, Note_off_c, 0, 41, 95
3, 19680, Note_on_c, 0, 65, 47
3, 19680, Note_on_c, 0, 60, 95
3, 19680, Note_on_c, 0, 57, 95
3, 19680, Note_on_c, 0, 53, 95
3, 19920, Note_off_c, 0, 65, 47
3, 19920, Note_off_c, 0, 60, 95
3, 19920, Note_off_c, 0, 57, 95
3, 19920, Note_off_c, 0, 53, 95
3, 19920, Note_on_c, 0, 65, 47
3, 19920, Note_on_c, 0, 60, 95
3, 19920, Note_on_c, 0, 57, 95
3, 19920, Note_on_c, 0, 53, 95
3, 20160, Note_off_c, 0, 65, 47
3, 20160, Note_off_c, 0, 60, 95
3, 20160, Note_off_c, 0, 57, 95
3, 20160, Note_off_c, 0, 53, 95
3, 20160, Note_on_c, 0, 65, 47
3, 20160, Note_on_c, 0, 60, 95
3, 20160, Note_on_c, 0, 57, 95
3, 20160, Note_on_c, 0, 53, 95
3, 20400, Note_off_c, 0, 65, 47
3, 20400, Note_off_c, 0, 60, 95
3, 20400, Note_off_c, 0, 57, 95
3, 20400, Note_off_c, 0, 53, 95
3, 20400, Note_on_c, 0, 60, 95
3, 20400, Note_on_c, 0, 57, 95
3, 20400, Note_on_c, 0, 53, 95
3, 20640, Note_off_c, 0, 60, 95
3, 20640, Note_off_c, 0, 57, 95
3, 20640, Note_off_c, 0, 53, 95
3, 20640, Note_on_c, 0, 60, 95
3, 20640, Note_on_c, 0, 57, 95
3, 20640, Note_on_c, 0, 53, 95
3, 20880, Note_off_c, 0, 60, 95
3, 20880, Note_off_c, 0, 57, 95
3, 20880, Note_off_c, 0, 53, 95
3, 20880, Note_on_c, 0, 60, 95
3, 20880, Note_on_c, 0, 57, 95
3, 20880, Note_on_c, 0, 53, 95
3, 21120, Note_off_c, 0, 60, 95
3, 21120, Note_off_c, 0, 57, 95
3, 21120, Note_off_c, 0, 53, 95
3, 21120, Note_on_c, 0, 65, 95
3, 21120, Note_on_c, 0, 60, 95
3, 21120, Note_on_c, 0, 57, 95
3, 21360, Note_off_c, 0, 65, 95
3, 21360, Note_off_c, 0, 60, 95
3, 21360, Note_off_c, 0, 57, 95
3, 21360, Note_on_c, 0, 58, 70
3, 21600, Note_off_c, 0, 58, 70
3, 21600, Note_on_c, 0, 65, 95
3, 21600, Note_on_c, 0, 60, 95
3, 21600, Note_on_c, 0, 58, 95
3, 21840, Note_off_c, 0, 65, 95
3, 21840, Note_off_c, 0, 60, 95
3, 21840, Note_off_c, 0, 58, 95
3, 21840, Note_on_c, 0, 65, 95
3, 21840, Note_on_c, 0, 60, 95
3, 21840, Note_on_c, 0, 58, 95
3, 22080, Note_off_c, 0, 65, 95
3, 22080, Note_off_c, 0, 60, 95
3, 22080, Note_off_c, 0, 58, 95
3, 22080, Note_on_c, 0, 65, 95
3, 22080, Note_on_c, 0, 60, 95
3, 22080, Note_on_c, 0, 58, 95
3, 22320, Note_off_c, 0, 65, 95
3, 22320, Note_off_c, 0, 60, 95
3, 22320, Note_off_c, 0, 58, 95
3, 22320, Note_on_c, 0, 65, 95
3, 22320, Note_on_c, 0, 60, 95
3, 22320, Note_on_c, 0, 58, 95
3, 22560, Note_off_c, 0, 65, 95
3, 22560, Note_off_c, 0, 60, 95
3, 22560, Note_off_c, 0, 58, 95
3, 22560, Note_on_c, 0, 65, 95
3, 22560, Note_on_c, 0, 60, 95
3, 22560, Note_on_c, 0, 58, 95
3, 22800, Note_off_c, 0, 65, 95
3, 22800, Note_off_c, 0, 60, 95
3, 22800, Note_off_c, 0, 58, 95
3, 22800, Note_on_c, 0, 58, 95
3, 22800, Note_on_c, 0, 54, 95
3, 22839, Note_off_c, 0, 58, 95
3, 22839, Note_off_c, 0, 54, 95
3, 23040, Pitch_bend_c, 1, 8192
3, 23040, Note_on_c, 1, 60, 95
3, 23045, Pitch_bend_c, 1, 8320
3, 23050, Pitch_bend_c, 1, 8448
3, 23055, Pitch_bend_c, 1, 8576
3, 23060, Pitch_bend_c, 1, 8704
3, 23065, Pitch_bend_c, 1, 8832
3, 23070, Pitch_bend_c, 1, 8960
3, 23075, Pitch_bend_c, 1, 9088
3, 23080, Pitch_bend_c, 1, 9216
3, 23085, Pitch_bend_c, 1, 9344
3, 23090, Pitch_bend_c, 1, 9472
3, 23095, Pitch_bend_c, 1, 9600
3, 23100, Pitch_bend_c, 1, 9600
3, 23280, Pitch_bend_c, 1, 9600
3, 23280, Pitch_bend_c, 1, 8192
3, 23280, Note_off_c, 1, 60, 95
3, 23280, Note_on_c, 0, 65, 95
3, 23520, Note_off_c, 0, 65, 95
3, 23520, Note_on_c, 0, 70, 95
3, 23760, Note_off_c, 0, 70, 95
3, 23760, Note_on_c, 0, 65, 95
3, 24000, Note_off_c, 0, 65, 95
3, 24000, Pitch_bend_c, 1, 9600
3, 24000, Note_on_c, 1, 60, 95
3, 24120, Pitch_bend_c, 1, 9600
3, 24130, Pitch_bend_c, 1, 9472
3, 24140, Pitch_bend_c, 1, 9344
3, 24150, Pitch_bend_c, 1, 9216
3, 24160, Pitch_bend_c, 1, 9088
3, 24170, Pitch_bend_c, 1, 8960
3, 24180, Pitch_bend_c, 1, 8832
3, 24190, Pitch_bend_c, 1, 8704
3, 24200, Pitch_bend_c, 1, 8576
3, 24210, Pitch_bend_c, 1, 8448
3, 24220, Pitch_bend_c, 1, 8320
3, 24230, Pitch_bend_c, 1, 8192
3, 24240, Pitch_bend_c, 1, 8192
3, 24480, Pitch_bend_c, 1, 8192
3, 24480, Pitch_bend_c, 1, 8192
3, 24480, Note_off_c, 1, 60, 95
3, 24480, Note_on_c, 0, 58, 95
3, 24720, Note_off_c, 0, 58, 95
3, 24720, Note_on_c, 0, 55, 95
3, 24960, Note_off_c, 0, 55, 95
3, 24960, Note_on_c, 0, 39, 95
3, 25440, Note_off_c, 0, 39, 95
3, 25440, Note_on_c, 0, 63, 95
3, 25440, Note_on_c, 0, 58, 95
3, 25680, Note_off_c, 0, 63, 95
3, 25680, Note_off_c, 0, 58, 95
3, 25680, Note_on_c, 0, 63, 95
3, 25680, Note_on_c, 0, 58, 95
3, 25920, Note_off_c, 0, 63, 95
3, 25920, Note_off_c, 0, 58, 95
3, 25920, Note_on_c, 0, 63, 95
3, 25920, Note_on_c, 0, 58, 95
3, 25920, Note_on_c, 0, 63, 95
3, 25920, Note_on_c, 0, 58, 95
3, 25920, Note_on_c, 0, 53, 95
3, 25920, Note_on_c, 0, 39, 95
3, 26160, Note_off_c, 0, 63, 95
3, 26160, Note_off_c, 0, 58, 95
3, 26160, Note_off_c, 0, 63, 95
3, 26160, Note_off_c, 0, 58, 95
3, 26160, Note_off_c, 0, 53, 95
3, 26160, Note_off_c, 0, 39, 95
3, 26160, Note_on_c, 0, 63, 95
3, 26160, Note_on_c, 0, 58, 95
3, 26160, Note_on_c, 0, 63, 95
3, 26160, Note_on_c, 0, 58, 95
3, 26160, Note_on_c, 0, 55, 70
3, 26160, Note_on_c, 0, 39, 95
3, 26400, Note_off_c, 0, 63, 95
3, 26400, Note_off_c, 0, 58, 95
3, 26400, Note_off_c, 0, 63, 95
3, 26400, Note_off_c, 0, 58, 95
3, 26400, Note_off_c, 0, 55, 70
3, 26400, Note_off_c, 0, 39, 95
3, 26400, Note_on_c, 0, 63, 95
3, 26400, Note_on_c, 0, 58, 95
3, 26400, Note_on_c, 0, 63, 95
3, 26400, Note_on_c, 0, 58, 95
3, 26400, Note_on_c, 0, 55, 95
3, 26400, Note_on_c, 0, 39, 95
3, 26640, Note_off_c, 0, 63, 95
3, 26640, Note_off_c, 0, 58, 95
3, 26640, Note_off_c, 0, 63, 95
3, 26640, Note_off_c, 0, 58, 95
3, 26640, Note_off_c, 0, 55, 95
3, 26640, Note_off_c, 0, 39, 95
3, 26640, Note_on_c, 0, 63, 95
3, 26640, Note_on_c, 0, 58, 95
3, 26880, Note_off_c, 0, 63, 95
3, 26880, Note_off_c, 0, 58, 95
3, 26880, Note_on_c, 1, 67, 95
3, 26880, Note_on_c, 1, 63, 95
3, 26880, Note_on_c, 1, 58, 95
3, 26880, Note_on_c, 1, 51, 95
3, 27000, Pitch_bend_c, 1, 8448
3, 27000, Pitch_bend_c, 1, 8448
3, 27000, Pitch_bend_c, 1, 8448
3, 27000, Pitch_bend_c, 1, 8448
3, 27120, Pitch_bend_c, 1, 8832
3, 27120, Pitch_bend_c, 1, 8832
3, 27120, Pitch_bend_c, 1, 8832
3, 27120, Pitch_bend_c, 1, 8832
3, 27240, Pitch_bend_c, 1, 9216
3, 27240, Pitch_bend_c, 1, 9216
3, 27240, Pitch_bend_c, 1, 9216
3, 27240, Pitch_bend_c, 1, 9216
3, 27360, Pitch_bend_c, 1, 9600
3, 27360, Pitch_bend_c, 1, 8192
3, 27360, Note_off_c, 1, 67, 95
3, 27360, Pitch_bend_c, 1, 9600
3, 27360, Pitch_bend_c, 1, 8192
3, 27360, Note_off_c, 1, 63, 95
3, 27360, Pitch_bend_c, 1, 9600
3, 27360, Pitch_bend_c, 1, 8192
3, 27360, Note_off_c, 1, 58, 95
3, 27360, Pitch_bend_c, 1, 9600
3, 27360, Pitch_bend_c, 1, 8192
3, 27360, Note_off_c, 1, 51, 95
3, 27360, Note_on_c, 0, 69, 95
3, 27360, Note_on_c, 0, 65, 95
3, 27360, Note_on_c, 0, 60, 95
3, 27360, Note_on_c, 0, 53, 95
3, 27840, Note_off_c, 0, 69, 95
3, 27840, Note_off_c, 0, 65, 95
3, 27840, Note_off_c, 0, 60, 95
3, 27840, Note_off_c, 0, 53, 95
3, 27840, Note_on_c, 0, 58, 95
3, 27840, Note_on_c, 0, 54, 95
3, 27840, Note_on_c, 0, 49, 95
3, 27840, Note_on_c, 0, 44, 95
3, 27879, Note_off_c, 0, 58, 95
3, 27879, Note_off_c, 0, 54, 95
3, 27879, Note_off_c, 0, 49, 95
3, 27879, Note_off_c, 0, 44, 95
3, 28320, Note_on_c, 0, 60, 95
3, 28320, Note_on_c, 0, 57, 95
3, 28320, Note_on_c, 0, 53, 95
3, 28320, Note_on_c, 0, 48, 95
3, 28320, Note_on_c, 0, 41, 47
3, 28560, Note_off_c, 0, 60, 95
3, 28560, Note_off_c, 0, 57, 95
3, 28560, Note_off_c, 0, 53, 95
3, 28560, Note_off_c, 0, 48, 95
3, 28560, Note_off_c, 0, 41, 47
3, 28560, Note_on_c, 0, 60, 95
3, 28560, Note_on_c, 0, 57, 95
3, 28560, Note_on_c, 0, 53, 95
3, 28560, Note_on_c, 0, 48, 95
3, 28800, Note_off_c, 0, 60, 95
3, 28800, Note_off_c, 0, 57, 95
3, 28800, Note_off_c, 0, 53, 95
3, 28800, Note_off_c, 0, 48, 95
3, 28800, Note_on_c, 0, 60, 95
3, 28800, Note_on_c, 0, 57, 95
3, 28800, Note_on_c, 0, 53, 95
3, 28800, Note_on_c, 0, 48, 95
3, 29160, Note_off_c, 0, 60, 95
3, 29160, Note_off_c, 0, 57, 95
3, 29160, Note_off_c, 0, 53, 95
3, 29160, Note_off_c, 0, 48, 95
3, 29160, Note_on_c, 0, 60, 47
3, 29160, Note_on_c, 0, 57, 47
3, 29160, Note_on_c, 0, 53, 47
3, 29160, Note_on_c, 0, 48, 47
3, 29280, Note_off_c, 0, 60, 47
3, 29280, Note_off_c, 0, 57, 47
3, 29280, Note_off_c, 0, 53, 47
3, 29280, Note_off_c, 0, 48, 47
3, 29280, Note_on_c, 0, 60, 95
3, 29280, Note_on_c, 0, 57, 95
3, 29280, Note_on_c, 0, 53, 95
3, 29280, Note_on_c, 0, 48, 95
3, 29640, Note_off_c, 0, 60, 95
3, 29640, Note_off_c, 0, 57, 95
3, 29640, Note_off_c, 0, 53, 95
3, 29640, Note_off_c, 0, 48, 95
3, 29640, Note_on_c, 0, 60, 47
3, 29640, Note_on_c, 0, 57, 47
3, 29640, Note_on_c, 0, 53, 47
3, 29640, Note_on_c, 0, 48, 47
3, 29760, Note_off_c, 0, 60, 47
3, 29760, Note_off_c, 0, 57, 47
3, 29760, Note_off_c, 0, 53, 47
3, 29760, Note_off_c, 0, 48, 47
3, 29760, Note_on_c, 0, 60, 95
3, 29760, Note_on_c, 0, 57, 95
3, 29760, Note_on_c, 0, 53, 95
3, 29760, Note_on_c, 0, 48, 95
3, 30120, Note_off_c, 0, 60, 95
3, 30120, Note_off_c, 0, 57, 95
3, 30120, Note_off_c, 0, 53, 95
3, 30120, Note_off_c, 0, 48, 95
3, 30120, Note_on_c, 0, 60, 47
3, 30120, Note_on_c, 0, 57, 47
3, 30120, Note_on_c, 0, 53, 47
3, 30120, Note_on_c, 0, 48, 47
3, 30240, Note_off_c, 0, 60, 47
3, 30240, Note_off_c, 0, 57, 47
3, 30240, Note_off_c, 0, 53, 47
3, 30240, Note_off_c, 0, 48, 47
3, 30240, Note_on_c, 0, 60, 95
3, 30240, Note_on_c, 0, 57, 95
3, 30240, Note_on_c, 0, 53, 95
3, 30240, Note_on_c, 0, 48, 95
3, 30600, Note_off_c, 0, 60, 95
3, 30600, Note_off_c, 0, 57, 95
3, 30600, Note_off_c, 0, 53, 95
3, 30600, Note_off_c, 0, 48, 95
3, 30600, Note_on_c, 0, 58, 95
3, 30600, Note_on_c, 0, 54, 95
3, 30600, Note_on_c, 0, 49, 95
3, 30600, Note_on_c, 0, 44, 95
3, 30639, Note_off_c, 0, 58, 95
3, 30639, Note_off_c, 0, 54, 95
3, 30639, Note_off_c, 0, 49, 95
3, 30639, Note_off_c, 0, 44, 95
3, 30720, Note_on_c, 1, 70, 47
3, 30720, Note_on_c, 1, 65, 47
3, 30720, Note_on_c, 1, 62, 63
3, 30720, Note_on_c, 1, 58, 63
3, 30720, Note_on_c, 1, 53, 63
3, 30720, Note_on_c, 1, 46, 63
3, 30840, Pitch_bend_c, 1, 7936
3, 30840, Pitch_bend_c, 1, 7936
3, 30840, Pitch_bend_c, 1, 7936
3, 30840, Pitch_bend_c, 1, 7936
3, 30840, Pitch_bend_c, 1, 7936
3, 30840, Pitch_bend_c, 1, 7936
3, 30960, Pitch_bend_c, 1, 7552
3, 30960, Pitch_bend_c, 1, 7552
3, 30960, Pitch_bend_c, 1, 7552
3, 30960, Pitch_bend_c, 1, 7552
3, 30960, Pitch_bend_c, 1, 7552
3, 30960, Pitch_bend_c, 1, 7552
3, 31080, Pitch_bend_c, 1, 7168
3, 31080, Pitch_bend_c, 1, 7168
3, 31080, Pitch_bend_c, 1, 7168
3, 31080, Pitch_bend_c, 1, 7168
3, 31080, Pitch_bend_c, 1, 7168
3, 31080, Pitch_bend_c, 1, 7168
3, 31200, Pitch_bend_c, 1, 6784
3, 31200, Pitch_bend_c, 1, 8192
3, 31200, Note_off_c, 1, 70, 47
3, 31200, Pitch_bend_c, 1, 6784
3, 31200, Pitch_bend_c, 1, 8192
3, 31200, Note_off_c, 1, 65, 47
3, 31200, Pitch_bend_c, 1, 6784
3, 31200, Pitch_bend_c, 1, 8192
3, 31200, Note_off_c, 1, 62, 63
3, 31200, Pitch_bend_c, 1, 6784
3, 31200, Pitch_bend_c, 1, 8192
3, 31200, Note_off_c, 1, 58, 63
3, 31200, Pitch_bend_c, 1, 6784
3, 31200, Pitch_bend_c, 1, 8192
3, 31200, Note_off_c, 1, 53, 63
3, 31200, Pitch_bend_c, 1, 6784
3, 31200, Pitch_bend_c, 1, 8192
3, 31200, Note_off_c, 1, 46, 63
3, 31200, Note_on_c, 0, 68, 15
3, 31200, Note_on_c, 0, 63, 15
3, 31200, Note_on_c, 0, 60, 31
3, 31200, Note_on_c, 0, 56, 31
3, 31200, Note_on_c, 0, 51, 31
3, 31200, Note_on_c, 0, 44, 31
3, 31440, Note_off_c, 0, 68, 15
3, 31440, Note_off_c, 0, 63, 15
3, 31440, Note_off_c, 0, 60, 31
3, 31440, Note_off_c, 0, 56, 31
3, 31440, Note_off_c, 0, 51, 31
3, 31440, Note_off_c, 0, 44, 31
3, 31680, Note_on_c, 0, 54, 95
3, 31680, Note_on_c, 0, 49, 95
3, 31680, Note_on_c, 0, 44, 95
3, 31680, Note_on_c, 0, 39, 95
3, 31719, Note_off_c, 0, 54, 95
3, 31719, Note_off_c, 0, 49, 95
3, 31719, Note_off_c, 0, 44, 95
3, 31719, Note_off_c, 0, 39, 95
3, 31920, Note_on_c, 0, 54, 95
3, 31920, Note_on_c, 0, 49, 95
3, 31920, Note_on_c, 0, 44, 95
3, 31920, Note_on_c, 0, 39, 95
3, 31959, Note_off_c, 0, 54, 95
3, 31959, Note_off_c, 0, 49, 95
3, 31959, Note_off_c, 0, 44, 95
3, 31959, Note_off_c, 0, 39, 95
3, 32640, Note_on_c, 0, 39, 95
3, 33120, Note_off_c, 0, 39, 95
3, 33120, Note_on_c, 0, 55, 95
3, 33120, Note_on_c, 0, 51, 95
3, 33360, Note_off_c, 0, 55, 95
3, 33360, Note_off_c, 0, 51, 95
3, 33360, Note_on_c, 0, 55, 95
3, 33360, Note_on_c, 0, 51, 95
3, 33600, Note_off_c, 0, 55, 95
3, 33600, Note_off_c, 0, 51, 95
3, 33600, Note_on_c, 0, 58, 95
3, 33600, Note_on_c, 0, 53, 47
3, 33600, Note_on_c, 0, 51, 95
3, 33840, Note_off_c, 0, 58, 95
3, 33840, Note_off_c, 0, 53, 47
3, 33840, Note_off_c, 0, 51, 95
3, 33840, Note_on_c, 0, 55, 70
3, 34080, Note_off_c, 0, 55, 70
3, 34080, Note_on_c, 0, 58, 95
3, 34080, Note_on_c, 0, 55, 95
3, 34320, Note_off_c, 0, 58, 95
3, 34320, Note_off_c, 0, 55, 95
3, 34320, Note_on_c, 0, 39, 95
3, 34560, Note_off_c, 0, 39, 95
3, 34560, Note_on_c, 0, 41, 95
3, 35520, Note_off_c, 0, 41, 95
3, 35520, Note_on_c, 0, 48, 95
3, 36000, Note_off_c, 0, 48, 95
3, 36000, Note_on_c, 0, 53, 95
3, 36480, Note_off_c, 0, 53, 95
3, 36480, Note_on_c, 0, 48, 95
3, 36960, Note_off_c, 0, 48, 95
3, 36960, Note_on_c, 0, 53, 95
3, 37440, Note_off_c, 0, 53, 95
3, 37440, Note_on_c, 0, 48, 95
3, 37920, Note_off_c, 0, 48, 95
3, 37920, Note_on_c, 0, 44, 95
3, 37959, Note_off_c, 0, 44, 95
3, 38240, Note_on_c, 0, 50, 47
3, 38240, Note_on_c, 0, 43, 95
3, 38400, Note_off_c, 0, 50, 47
3, 38400, Note_off_c, 0, 43, 95
3, 38400, Note_on_c, 0, 46, 70
3, 39120, Note_off_c, 0, 46, 70
3, 39120, Note_on_c, 0, 58, 95
3, 39120, Note_on_c, 0, 53, 95
3, 39120, Note_on_c, 0, 50, 95
3, 39360, Note_off_c, 0, 58, 95
3, 39360, Note_off_c, 0, 53, 95
3, 39360, Note_off_c, 0, 50, 95
3, 39600, Note_on_c, 1, 58, 47
3, 39600, Note_on_c, 1, 53, 95
3, 39600, Note_on_c, 1, 50, 95
3, 39720, Pitch_bend_c, 1, 7552
3, 39720, Pitch_bend_c, 1, 7552
3, 39720, Pitch_bend_c, 1, 7552
3, 39840, Pitch_bend_c, 1, 6784
3, 39840, Pitch_bend_c, 1, 8192
3, 39840, Note_off_c, 1, 58, 47
3, 39840, Pitch_bend_c, 1, 6784
3, 39840, Pitch_bend_c, 1, 8192
3, 39840, Note_off_c, 1, 53, 95
3, 39840, Pitch_bend_c, 1, 6784
3, 39840, Pitch_bend_c, 1, 8192
3, 39840, Note_off_c, 1, 50, 95
3, 39840, Note_on_c, 0, 56, 95
3, 39840, Note_on_c, 0, 51, 95
3, 39840, Note_on_c, 0, 48, 95
3, 40320, Note_off_c, 0, 56, 95
3, 40320, Note_off_c, 0, 51, 95
3, 40320, Note_off_c, 0, 48, 95
3, 40320, Note_on_c, 0, 39, 95
3, 41040, Note_off_c, 0, 39, 95
3, 41040, Note_on_c, 0, 51, 47
3, 41280, Note_off_c, 0, 51, 47
3, 41280, Note_on_c, 0, 55, 95
3, 41760, Note_off_c, 0, 55, 95
3, 41760, Note_on_c, 0, 51, 95
3, 42240, Note_off_c, 0, 51, 95
3, 42240, Note_on_c, 0, 41, 95
3, 42720, Note_off_c, 0, 41, 95
3, 42720, Note_on_c, 0, 48, 47
3, 42960, Note_off_c, 0, 48, 47
3, 42960, Note_on_c, 0, 53, 95
3, 43200, Note_off_c, 0, 53, 95
3, 43200, Note_on_c, 0, 48, 95
3, 43680, Note_off_c, 0, 48, 95
3, 43680, Note_on_c, 0, 41, 95
3, 43920, Note_off_c, 0, 41, 95
3, 43920, Note_on_c, 0, 43, 95
3, 44160, Note_off_c, 0, 43, 95
3, 44160, Note_on_c, 0, 46, 95
3, 44400, Note_off_c, 0, 46, 95
3, 44400, Note_on_c, 1, 48, 70
3, 44520, Pitch_bend_c, 1, 9600
3, 44520, Pitch_bend_c, 1, 8192
3, 44520, Note_off_c, 1, 48, 70
3, 44520, Note_on_c, 0, 50, 95
3, 44640, Note_off_c, 0, 50, 95
3, 44640, Note_on_c, 0, 53, 95
3, 44880, Note_off_c, 0, 53, 95
3, 44880, Note_on_c, 1, 58, 95
3, 44880, Note_on_c, 1, 53, 95
3, 45000, Pitch_bend_c, 1, 7552
3, 45000, Pitch_bend_c, 1, 7552
3, 45120, Pitch_bend_c, 1, 6784
3, 45120, Pitch_bend_c, 1, 8192
3, 45120, Note_off_c, 1, 58, 95
3, 45120, Pitch_bend_c, 1, 6784
3, 45120, Pitch_bend_c, 1, 8192
3, 45120, Note_off_c, 1, 53, 95
3, 45120, Note_on_c, 0, 56, 95
3, 45120, Note_on_c, 0, 51, 95
3, 45360, Note_off_c, 0, 56, 95
3, 45360, Note_off_c, 0, 51, 95
3, 45360, Note_on_c, 1, 56, 95
3, 45360, Note_on_c, 0, 51, 95
3, 45480, Pitch_bend_c, 1, 7936
3, 45600, Pitch_bend_c, 1, 7552
3, 45600, Pitch_bend_c, 1, 8192
3, 45600, Note_off_c, 1, 56, 95
3, 45600, Note_on_c, 0, 55, 95
3, 45840, Note_off_c, 0, 51, 95
3, 45840, Note_off_c, 0, 55, 95
3, 45840, Note_on_c, 0, 54, 95
3, 45840, Note_on_c, 0, 49, 95
3, 45879, Note_off_c, 0, 54, 95
3, 45879, Note_off_c, 0, 49, 95
3, 46080, Note_on_c, 0, 53, 95
3, 46080, Note_on_c, 0, 46, 95
3, 47040, Note_off_c, 0, 53, 95
3, 47040, Note_off_c, 0, 46, 95
3, 47040, Note_on_c, 0, 46, 47
3, 47280, Note_off_c, 0, 46, 47
3, 47280, Note_on_c, 1, 58, 95
3, 47280, Note_on_c, 1, 53, 95
3, 47400, Pitch_bend_c, 1, 7552
3, 47400, Pitch_bend_c, 1, 7552
3, 47520, Pitch_bend_c, 1, 6784
3, 47520, Pitch_bend_c, 1, 8192
3, 47520, Note_off_c, 1, 58, 95
3, 47520, Pitch_bend_c, 1, 6784
3, 47520, Pitch_bend_c, 1, 8192
3, 47520, Note_off_c, 1, 53, 95
3, 47520, Note_on_c, 0, 56, 95
3, 47520, Note_on_c, 0, 51, 95
3, 47760, Note_off_c, 0, 56, 95
3, 47760, Note_off_c, 0, 51, 95
3, 47760, Note_on_c, 0, 56, 95
3, 47760, Note_on_c, 0, 51, 95
3, 48000, Note_off_c, 0, 56, 95
3, 48000, Note_off_c, 0, 51, 95
3, 48000, Note_on_c, 0, 39, 95
3, 48480, Note_off_c, 0, 39, 95
3, 48480, Note_on_c, 0, 39, 95
3, 48960, Note_off_c, 0, 39, 95
3, 48960, Note_on_c, 0, 55, 95
3, 48960, Note_on_c, 0, 51, 95
3, 49440, Note_off_c, 0, 55, 95
3, 49440, Note_off_c, 0, 51, 95
3, 49440, Note_on_c, 0, 39, 95
3, 49680, Note_off_c, 0, 39, 95
3, 49680, Note_on_c, 0, 41, 70
3, 49920, Note_off_c, 0, 41, 70
3, 49920, Note_on_c, 0, 48, 95
3, 49920, Note_on_c, 0, 41, 95
3, 50640, Note_off_c, 0, 48, 95
3, 50640, Note_off_c, 0, 41, 95
3, 50640, Note_on_c, 0, 57, 95
3, 50640, Note_on_c, 0, 53, 95
3, 51120, Note_off_c, 0, 57, 95
3, 51120, Note_off_c, 0, 53, 95
3, 51120, Note_on_c, 0, 41, 95
3, 51360, Note_off_c, 0, 41, 95
3, 51360, Note_on_c, 0, 41, 95
3, 51600, Note_off_c, 0, 41, 95
3, 51600, Note_on_c, 0, 57, 95
3, 51600, Note_on_c, 0, 53, 95
3, 52080, Note_off_c, 0, 57, 95
3, 52080, Note_off_c, 0, 53, 95
3, 52080, Note_on_c, 0, 60, 95
3, 52560, Note_off_c, 0, 60, 95
3, 52560, Note_on_c, 0, 57, 95
3, 52800, Note_off_c, 0, 57, 95
3, 52800, Note_on_c, 0, 53, 95
3, 53040, Note_off_c, 0, 53, 95
3, 53040, Note_on_c, 0, 60, 95
3, 53280, Note_off_c, 0, 60, 95
3, 53280, Note_on_c, 0, 57, 95
3, 53520, Note_off_c, 0, 57, 95
3, 53520, Note_on_c, 0, 53, 47
3, 53760, Note_off_c, 0, 53, 47
3, 53760, Note_on_c, 0, 65, 95
3, 53760, Pitch_bend_c, 1, 8192
3, 53760, Note_on_c, 1, 60, 95
3, 53767, Pitch_bend_c, 1, 8320
3, 53774, Pitch_bend_c, 1, 8448
3, 53781, Pitch_bend_c, 1, 8576
3, 53788, Pitch_bend_c, 1, 8704
3, 53795, Pitch_bend_c, 1, 8832
3, 53802, Pitch_bend_c, 1, 8960
3, 53809, Pitch_bend_c, 1, 9088
3, 53816, Pitch_bend_c, 1, 9216
3, 53823, Pitch_bend_c, 1, 9344
3, 53830, Pitch_bend_c, 1, 9472
3, 53837, Pitch_bend_c, 1, 9600
3, 53840, Pitch_bend_c, 1, 9600
3, 54000, Note_off_c, 0, 65, 95
3, 54000, Pitch_bend_c, 1, 9600
3, 54000, Pitch_bend_c, 1, 8192
3, 54000, Note_off_c, 1, 60, 95
3, 54000, Note_on_c, 0, 65, 47
3, 54240, Note_off_c, 0, 65, 47
3, 54240, Note_on_c, 0, 67, 95
3, 54240, Note_on_c, 0, 62, 95
3, 54480, Note_off_c, 0, 67, 95
3, 54480, Note_off_c, 0, 62, 95
3, 54480, Pitch_bend_c, 1, 9600
3, 54480, Note_on_c, 1, 60, 95
3, 54600, Pitch_bend_c, 1, 9600
3, 54610, Pitch_bend_c, 1, 9472
3, 54620, Pitch_bend_c, 1, 9344
3, 54630, Pitch_bend_c, 1, 9216
3, 54640, Pitch_bend_c, 1, 9088
3, 54650, Pitch_bend_c, 1, 8960
3, 54660, Pitch_bend_c, 1, 8832
3, 54670, Pitch_bend_c, 1, 8704
3, 54680, Pitch_bend_c, 1, 8576
3, 54690, Pitch_bend_c, 1, 8448
3, 54700, Pitch_bend_c, 1, 8320
3, 54710, Pitch_bend_c, 1, 8192
3, 54720, Pitch_bend_c, 1, 8192
3, 54960, Pitch_bend_c, 1, 8192
3, 54960, Pitch_bend_c, 1, 8192
3, 54960, Note_off_c, 1, 60, 95
3, 54960, Note_on_c, 0, 56, 95
3, 55200, Note_off_c, 0, 56, 95
3, 55200, Note_on_c, 0, 53, 95
3, 55680, Note_off_c, 0, 53, 95
3, 55680, Note_on_c, 0, 46, 95
3, 55680, Note_on_c, 0, 39, 95
3, 56160, Note_off_c, 0, 46, 95
3, 56160, Note_off_c, 0, 39, 95
3, 56160, Note_on_c, 0, 55, 95
3, 56160, Note_on_c, 0, 51, 95
3, 56160, Note_on_c, 0, 46, 95
3, 56160, Note_on_c, 0, 39, 95
3, 56640, Note_off_c, 0, 55, 95
3, 56640, Note_off_c, 0, 51, 95
3, 56640, Note_off_c, 0, 46, 95
3, 56640, Note_off_c, 0, 39, 95
3, 56640, Note_on_c, 0, 58, 47
3, 56640, Note_on_c, 0, 54, 95
3, 56640, Note_on_c, 0, 49, 95
3, 56640, Note_on_c, 0, 44, 95
3, 56640, Note_on_c, 0, 39, 95
3, 56679, Note_off_c, 0, 54, 95
3, 56679, Note_off_c, 0, 49, 95
3, 56679, Note_off_c, 0, 44, 95
3, 56880, Note_off_c, 0, 58, 47
3, 56880, Note_off_c, 0, 39, 95
3, 56880, Note_on_c, 0, 55, 95
3, 56880, Note_on_c, 0, 51, 95
3, 56880, Note_on_c, 0, 46, 95
3, 56880, Note_on_c, 0, 39, 95
3, 57600, Note_off_c, 0, 55, 95
3, 57600, Note_off_c, 0, 51, 95
3, 57600, Note_off_c, 0, 46, 95
3, 57600, Note_off_c, 0, 39, 95
3, 57600, Note_on_c, 0, 48, 47
3, 57600, Note_on_c, 0, 41, 95
3, 58080, Note_off_c, 0, 48, 47
3, 58080, Note_off_c, 0, 41, 95
3, 58080, Note_on_c, 0, 48, 95
3, 58560, Note_off_c, 0, 48, 95
3, 58560, Note_on_c, 0, 57, 95
3, 58560, Note_on_c, 0, 53, 95
3, 59040, Note_off_c, 0, 57, 95
3, 59040, Note_off_c, 0, 53, 95
3, 59040, Note_on_c, 0, 53, 95
3, 59520, Note_off_c, 0, 53, 95
3, 59520, Note_on_c, 0, 41, 95
3, 60000, Note_off_c, 0, 41, 95
3, 60000, Note_on_c, 0, 41, 95
3, 60480, Note_off_c, 0, 41, 95
3, 60480, Note_on_c, 0, 41, 95
3, 60960, Note_off_c, 0, 41, 95
3, 60960, Note_on_c, 0, 41, 95
3, 61200, Note_off_c, 0, 41, 95
3, 61200, Note_on_c, 0, 43, 70
3, 61440, Note_off_c, 0, 43, 70
3, 61440, Note_on_c, 0, 46, 95
3, 62400, Note_off_c, 0, 46, 95
3, 62400, Note_on_c, 0, 46, 95
3, 62880, Note_off_c, 0, 46, 95
3, 62880, Note_on_c, 0, 53, 95
3, 62880, Note_on_c, 0, 46, 95
3, 63360, Note_off_c, 0, 53, 95
3, 63360, Note_off_c, 0, 46, 95
3, 63360, Note_on_c, 0, 39, 95
3, 63840, Note_off_c, 0, 39, 95
3, 63840, Note_on_c, 0, 55, 95
3, 63840, Note_on_c, 0, 51, 95
3, 63840, Note_on_c, 0, 46, 95
3, 64080, Note_off_c, 0, 55, 95
3, 64080, Note_off_c, 0, 51, 95
3, 64080, Note_off_c, 0, 46, 95
3, 64080, Note_on_c, 0, 55, 95
3, 64080, Note_on_c, 0, 51, 95
3, 64080, Note_on_c, 0, 46, 95
3, 64560, Note_off_c, 0, 55, 95
3, 64560, Note_off_c, 0, 51, 95
3, 64560, Note_off_c, 0, 46, 95
3, 64560, Note_on_c, 0, 49, 95
3, 64599, Note_off_c, 0, 49, 95
3, 64800, Note_on_c, 0, 55, 95
3, 64800, Note_on_c, 0, 51, 95
3, 65040, Note_off_c, 0, 55, 95
3, 65040, Note_off_c, 0, 51, 95
3, 65040, Note_on_c, 0, 39, 95
3, 65280, Note_off_c, 0, 39, 95
3, 65280, Note_on_c, 0, 41, 70
3, 65760, Note_off_c, 0, 41, 70
3, 65760, Note_on_c, 0, 48, 95
3, 66240, Note_off_c, 0, 48, 95
3, 66240, Note_on_c, 0, 53, 95
3, 66720, Note_off_c, 0, 53, 95
3, 66720, Note_on_c, 0, 48, 95
3, 67200, Note_off_c, 0, 48, 95
3, 67200, Note_on_c, 0, 41, 95
3, 67680, Note_off_c, 0, 41, 95
3, 67680, Note_on_c, 0, 48, 95
3, 68000, Note_off_c, 0, 48, 95
3, 68000, Note_on_c, 0, 57, 95
3, 68160, Note_off_c, 0, 57, 95
3, 68160, Note_on_c, 0, 58, 70
3, 68480, Note_off_c, 0, 58, 70
3, 68480, Note_on_c, 0, 57, 95
3, 68640, Note_off_c, 0, 57, 95
3, 68640, Note_on_c, 0, 43, 95
3, 69120, Note_off_c, 0, 43, 95
3, 69120, Note_on_c, 0, 46, 95
3, 70080, Note_off_c, 0, 46, 95
3, 70080, Note_on_c, 0, 62, 95
3, 70080, Note_on_c, 0, 58, 95
3, 70080, Note_on_c, 0, 53, 95
3, 70080, Note_on_c, 0, 46, 95
3, 71040, Note_off_c, 0, 62, 95
3, 71040, Note_off_c, 0, 58, 95
3, 71040, Note_off_c, 0, 53, 95
3, 71040, Note_off_c, 0, 46, 95
3, 71040, Note_on_c, 0, 39, 95
3, 71280, Note_off_c, 0, 39, 95
3, 71280, Note_on_c, 0, 58, 47
3, 71280, Note_on_c, 0, 55, 95
3, 71280, Note_on_c, 0, 51, 95
3, 71280, Note_on_c, 0, 46, 95
3, 72000, Note_off_c, 0, 58, 47
3, 72000, Note_off_c, 0, 55, 95
3, 72000, Note_off_c, 0, 51, 95
3, 72000, Note_off_c, 0, 46, 95
3, 72000, Note_on_c, 0, 39, 47
3, 72240, Note_off_c, 0, 39, 47
3, 72240, Note_on_c, 0, 58, 95
3, 72240, Note_on_c, 0, 55, 95
3, 72240, Note_on_c, 0, 51, 95
3, 72240, Note_on_c, 0, 46, 95
3, 72960, Note_off_c, 0, 58, 95
3, 72960, Note_off_c, 0, 55, 95
3, 72960, Note_off_c, 0, 51, 95
3, 72960, Note_off_c, 0, 46, 95
3, 72960, Note_on_c, 0, 39, 95
3, 73200, Note_off_c, 0, 39, 95
3, 73200, Note_on_c, 0, 41, 70
3, 73440, Note_off_c, 0, 41, 70
3, 73440, Note_on_c, 0, 57, 95
3, 73440, Note_on_c, 0, 53, 95
3, 73440, Note_on_c, 0, 48, 95
3, 73680, Note_off_c, 0, 57, 95
3, 73680, Note_off_c, 0, 53, 95
3, 73680, Note_off_c, 0, 48, 95
3, 73680, Note_on_c, 0, 57, 95
3, 73680, Note_on_c, 0, 53, 95
3, 73680, Note_on_c, 0, 48, 95
3, 73920, Note_off_c, 0, 57, 95
3, 73920, Note_off_c, 0, 53, 95
3, 73920, Note_off_c, 0, 48, 95
3, 73920, Note_on_c, 0, 60, 95
3, 73920, Note_on_c, 0, 57, 95
3, 73920, Note_on_c, 0, 53, 95
3, 74160, Note_off_c, 0, 60, 95
3, 74160, Note_off_c, 0, 57, 95
3, 74160, Note_off_c, 0, 53, 95
3, 74160, Note_on_c, 0, 60, 95
3, 74160, Note_on_c, 0, 57, 95
3, 74400, Note_off_c, 0, 60, 95
3, 74400, Note_off_c, 0, 57, 95
3, 74400, Note_on_c, 0, 57, 95
3, 74640, Note_off_c, 0, 57, 95
3, 74640, Note_on_c, 0, 60, 95
3, 75120, Note_off_c, 0, 60, 95
3, 75120, Note_on_c, 0, 57, 95
3, 75360, Note_off_c, 0, 57, 95
3, 75360, Note_on_c, 0, 53, 95
3, 75840, Note_off_c, 0, 53, 95
3, 75840, Note_on_c, 0, 39, 95
3, 76080, Note_off_c, 0, 39, 95
3, 76080, Note_on_c, 0, 41, 70
3, 76320, Note_off_c, 0, 41, 70
3, 76320, Note_on_c, 0, 43, 95
3, 76800, Note_off_c, 0, 43, 95
3, 76800, Note_on_c, 0, 62, 95
3, 76800, Note_on_c, 0, 58, 95
3, 76800, Note_on_c, 0, 53, 95
3, 76800, Note_on_c, 0, 48, 95
3, 77040, Note_off_c, 0, 62, 95
3, 77040, Note_off_c, 0, 58, 95
3, 77040, Note_off_c, 0, 53, 95
3, 77040, Note_off_c, 0, 48, 95
3, 77040, Note_on_c, 0, 50, 70
3, 77760, Note_off_c, 0, 50, 70
3, 77760, Note_on_c, 0, 63, 95
3, 77760, Note_on_c, 1, 67, 31
3, 77760, Note_on_c, 1, 63, 31
3, 77760, Note_on_c, 1, 58, 47
3, 77760, Note_on_c, 0, 55, 95
3, 77799, Note_off_c, 0, 63, 95
3, 77799, Note_off_c, 0, 55, 95
3, 77880, Pitch_bend_c, 1, 7168
3, 77880, Pitch_bend_c, 1, 7168
3, 77880, Pitch_bend_c, 1, 7168
3, 78000, Pitch_bend_c, 1, 6144
3, 78000, Pitch_bend_c, 1, 6144
3, 78000, Pitch_bend_c, 1, 6144
3, 78120, Pitch_bend_c, 1, 5120
3, 78120, Pitch_bend_c, 1, 5120
3, 78120, Pitch_bend_c, 1, 5120
3, 78240, Pitch_bend_c, 1, 3968
3, 78240, Pitch_bend_c, 1, 3968
3, 78240, Pitch_bend_c, 1, 3968
3, 78360, Pitch_bend_c, 1, 2944
3, 78360, Pitch_bend_c, 1, 2944
3, 78360, Pitch_bend_c, 1, 2944
3, 78480, Pitch_bend_c, 1, 1920
3, 78480, Pitch_bend_c, 1, 8192
3, 78480, Note_off_c, 1, 67, 31
3, 78480, Pitch_bend_c, 1, 1920
3, 78480, Pitch_bend_c, 1, 8192
3, 78480, Note_off_c, 1, 63, 31
3, 78480, Pitch_bend_c, 1, 1920
3, 78480, Pitch_bend_c, 1, 8192
3, 78480, Note_off_c, 1, 58, 47
3, 78480, Note_on_c, 0, 58, 15
3, 78480, Note_on_c, 0, 54, 15
3, 78480, Note_on_c, 0, 49, 15
3, 78720, Note_off_c, 0, 58, 15
3, 78720, Note_off_c, 0, 54, 15
3, 78720, Note_off_c, 0, 49, 15
3, 78720, Note_on_c, 0, 63, 95
3, 78720, Note_on_c, 0, 58, 95
3, 78720, Note_on_c, 0, 53, 95
3, 78720, Note_on_c, 0, 39, 95
3, 78960, Note_off_c, 0, 63, 95
3, 78960, Note_off_c, 0, 58, 95
3, 78960, Note_off_c, 0, 53, 95
3, 78960, Note_off_c, 0, 39, 95
3, 78960, Note_on_c, 0, 55, 70
3, 79200, Note_off_c, 0, 55, 70
3, 79200, Note_on_c, 0, 63, 95
3, 79200, Note_on_c, 0, 58, 95
3, 79200, Note_on_c, 0, 55, 95
3, 79520, Note_off_c, 0, 63, 95
3, 79520, Note_off_c, 0, 58, 95
3, 79520, Note_off_c, 0, 55, 95
3, 79520, Note_on_c, 0, 63, 95
3, 79520, Note_on_c, 0, 58, 95
3, 79680, Note_off_c, 0, 63, 95
3, 79680, Note_off_c, 0, 58, 95
3, 79680, Note_on_c, 0, 63, 95
3, 79680, Note_on_c, 0, 58, 95
3, 79680, Note_on_c, 0, 55, 95
3, 80160, Note_off_c, 0, 63, 95
3, 80160, Note_off_c, 0, 58, 95
3, 80160, Note_off_c, 0, 55, 95
3, 80160, Note_on_c, 1, 65, 47
3, 80160, Note_on_c, 1, 63, 95
3, 80160, Note_on_c, 1, 58, 95
3, 80160, Note_on_c, 1, 51, 95
3, 80280, Pitch_bend_c, 1, 8832
3, 80280, Pitch_bend_c, 1, 8832
3, 80280, Pitch_bend_c, 1, 8832
3, 80280, Pitch_bend_c, 1, 8832
3, 80400, Pitch_bend_c, 1, 9600
3, 80400, Pitch_bend_c, 1, 8192
3, 80400, Note_off_c, 1, 65, 47
3, 80400, Pitch_bend_c, 1, 9600
3, 80400, Pitch_bend_c, 1, 8192
3, 80400, Note_off_c, 1, 63, 95
3, 80400, Pitch_bend_c, 1, 9600
3, 80400, Pitch_bend_c, 1, 8192
3, 80400, Note_off_c, 1, 58, 95
3, 80400, Pitch_bend_c, 1, 9600
3, 80400, Pitch_bend_c, 1, 8192
3, 80400, Note_off_c, 1, 51, 95
3, 80400, Note_on_c, 0, 67, 47
3, 80400, Note_on_c, 0, 65, 95
3, 80400, Note_on_c, 0, 60, 95
3, 80400, Note_on_c, 0, 53, 95
3, 80640, Note_off_c, 0, 67, 47
3, 80640, Note_off_c, 0, 65, 95
3, 80640, Note_off_c, 0, 60, 95
3, 80640, Note_off_c, 0, 53, 95
3, 80640, Note_on_c, 0, 69, 95
3, 80640, Note_on_c, 0, 65, 95
3, 80640, Note_on_c, 0, 60, 95
3, 80640, Note_on_c, 0, 53, 95
3, 81120, Note_off_c, 0, 69, 95
3, 81120, Note_off_c, 0, 65, 95
3, 81120, Note_off_c, 0, 60, 95
3, 81120, Note_off_c, 0, 53, 95
3, 81120, Note_on_c, 0, 53, 95
3, 81440, Note_off_c, 0, 53, 95
3, 81440, Note_on_c, 0, 69, 47
3, 81440, Note_on_c, 0, 65, 47
3, 81440, Note_on_c, 0, 60, 47
3, 81440, Note_on_c, 0, 53, 47
3, 81600, Note_off_c, 0, 69, 47
3, 81600, Note_off_c, 0, 65, 47
3, 81600, Note_off_c, 0, 60, 47
3, 81600, Note_off_c, 0, 53, 47
3, 81600, Note_on_c, 0, 69, 95
3, 81600, Note_on_c, 0, 65, 95
3, 81600, Note_on_c, 0, 60, 95
3, 81600, Note_on_c, 0, 53, 95
3, 82400, Note_off_c, 0, 69, 95
3, 82400, Note_off_c, 0, 65, 95
3, 82400, Note_off_c, 0, 60, 95
3, 82400, Note_off_c, 0, 53, 95
3, 82400, Note_on_c, 0, 69, 47
3, 82400, Note_on_c, 0, 65, 47
3, 82400, Note_on_c, 0, 60, 47
3, 82400, Note_on_c, 0, 53, 47
3, 82560, Note_off_c, 0, 69, 47
3, 82560, Note_off_c, 0, 65, 47
3, 82560, Note_off_c, 0, 60, 47
3, 82560, Note_off_c, 0, 53, 47
3, 82560, Note_on_c, 0, 69, 95
3, 82560, Note_on_c, 0, 65, 95
3, 82560, Note_on_c, 0, 60, 95
3, 82560, Note_on_c, 0, 53, 95
3, 83040, Note_off_c, 0, 69, 95
3, 83040, Note_off_c, 0, 65, 95
3, 83040, Note_off_c, 0, 60, 95
3, 83040, Note_off_c, 0, 53, 95
3, 83040, Note_on_c, 0, 53, 95
3, 83520, Note_off_c, 0, 53, 95
3, 83520, Note_on_c, 0, 69, 95
3, 83520, Note_on_c, 0, 65, 95
3, 83520, Note_on_c, 0, 60, 95
3, 83520, Note_on_c, 0, 53, 95
3, 83760, Note_off_c, 0, 69, 95
3, 83760, Note_off_c, 0, 65, 95
3, 83760, Note_off_c, 0, 60, 95
3, 83760, Note_off_c, 0, 53, 95
3, 83760, Note_on_c, 0, 69, 95
3, 83760, Note_on_c, 0, 65, 95
3, 83760, Note_on_c, 0, 60, 95
3, 83760, Note_on_c, 0, 53, 95
3, 84000, Note_off_c, 0, 69, 95
3, 84000, Note_off_c, 0, 65, 95
3, 84000, Note_off_c, 0, 60, 95
3, 84000, Note_off_c, 0, 53, 95
3, 84000, Note_on_c, 0, 58, 95
3, 84000, Note_on_c, 0, 54, 95
3, 84000, Note_on_c, 0, 49, 95
3, 84000, Note_on_c, 0, 44, 95
3, 84039, Note_off_c, 0, 58, 95
3, 84039, Note_off_c, 0, 54, 95
3, 84039, Note_off_c, 0, 49, 95
3, 84039, Note_off_c, 0, 44, 95
3, 84240, Note_on_c, 0, 58, 95
3, 84240, Note_on_c, 0, 54, 95
3, 84240, Note_on_c, 0, 49, 95
3, 84240, Note_on_c, 0, 44, 95
3, 84279, Note_off_c, 0, 58, 95
3, 84279, Note_off_c, 0, 54, 95
3, 84279, Note_off_c, 0, 49, 95
3, 84279, Note_off_c, 0, 44, 95
3, 84360, Note_on_c, 1, 63, 79
3, 84360, Note_on_c, 1, 58, 79
3, 84480, Note_off_c, 1, 63, 79
3, 84480, Note_on_c, 1, 65, 95
3, 84480, Note_off_c, 1, 58, 79
3, 84480, Note_on_c, 1, 60, 95
3, 84960, Note_off_c, 1, 65, 95
3, 84960, Note_off_c, 1, 60, 95
3, 84960, Note_on_c, 0, 67, 95
3, 85440, Note_off_c, 0, 67, 95
3, 85440, Note_on_c, 0, 72, 95
3, 85920, Note_off_c, 0, 72, 95
3, 85920, Note_on_c, 0, 67, 95
3, 86400, Note_off_c, 0, 67, 95
3, 86400, Note_on_c, 0, 72, 95
3, 86400, Note_on_c, 0, 67, 95
3, 86640, Note_off_c, 0, 72, 95
3, 86640, Note_off_c, 0, 67, 95
3, 86640, Note_on_c, 0, 69, 70
3, 86880, Note_off_c, 0, 69, 70
3, 86880, Note_on_c, 0, 72, 95
3, 86880, Note_on_c, 0, 67, 47
3, 87120, Note_off_c, 0, 72, 95
3, 87120, Note_off_c, 0, 67, 47
3, 87120, Note_on_c, 0, 67, 95
3, 87360, Note_off_c, 0, 67, 95
3, 87360, Note_on_c, 0, 69, 70
3, 87600, Note_off_c, 0, 69, 70
3, 87600, Note_on_c, 0, 72, 95
3, 87840, Note_off_c, 0, 72, 95
3, 87840, Note_on_c, 0, 65, 95
3, 88320, Note_off_c, 0, 65, 95
3, 88320, Note_on_c, 0, 65, 95
3, 88800, Note_off_c, 0, 65, 95
3, 88800, Note_on_c, 0, 67, 95
3, 89280, Note_off_c, 0, 67, 95
3, 89280, Note_on_c, 0, 72, 95
3, 89760, Note_off_c, 0, 72, 95
3, 89760, Note_on_c, 0, 67, 95
3, 89760, Note_on_c, 0, 65, 95
3, 90000, Note_off_c, 0, 67, 95
3, 90000, Note_off_c, 0, 65, 95
3, 90000, Note_on_c, 0, 65, 95
3, 90240, Note_off_c, 0, 65, 95
3, 90240, Note_on_c, 0, 72, 95
3, 90240, Note_on_c, 0, 67, 95
3, 90480, Note_off_c, 0, 72, 95
3, 90480, Note_off_c, 0, 67, 95
3, 90480, Note_on_c, 0, 69, 70
3, 90720, Note_off_c, 0, 69, 70
3, 90720, Note_on_c, 0, 72, 95
3, 90720, Note_on_c, 0, 67, 95
3, 90960, Note_off_c, 0, 72, 95
3, 90960, Note_off_c, 0, 67, 95
3, 90960, Note_on_c, 0, 69, 70
3, 91200, Note_off_c, 0, 69, 70
3, 91200, Note_on_c, 0, 72, 95
3, 91200, Note_on_c, 0, 67, 95
3, 91440, Note_off_c, 0, 72, 95
3, 91440, Note_off_c, 0, 67, 95
3, 91440, Note_on_c, 1, 65, 95
3, 91680, Note_off_c, 1, 65, 95
3, 91680, Note_on_c, 0, 41, 95
3, 91920, Note_off_c, 0, 41, 95
3, 91920, Note_on_c, 0, 43, 70
3, 92160, Note_off_c, 0, 43, 70
3, 92160, Note_on_c, 0, 46, 95
3, 94080, Note_off_c, 0, 46, 95
3, 94080, Note_on_c, 0, 48, 95
3, 94560, Note_off_c, 0, 48, 95
3, 94560, Note_on_c, 0, 55, 47
3, 95040, Note_off_c, 0, 55, 47
3, 95040, Note_on_c, 0, 63, 95
3, 95200, Note_off_c, 0, 63, 95
3, 95200, Note_on_c, 0, 65, 70
3, 95360, Note_off_c, 0, 65, 70
3, 95360, Note_on_c, 0, 63, 70
3, 95520, Note_off_c, 0, 63, 70
3, 95520, Note_on_c, 0, 58, 95
3, 95760, Note_off_c, 0, 58, 95
3, 95760, Note_on_c, 0, 48, 95
3, 96000, Note_off_c, 0, 48, 95
3, 96000, Note_on_c, 0, 50, 70
3, 97920, Note_off_c, 0, 50, 70
3, 97920, Note_on_c, 0, 39, 95
3, 98640, Note_off_c, 0, 39, 95
3, 98640, Note_on_c, 0, 58, 95
3, 98640, Note_on_c, 0, 53, 95
3, 98880, Note_off_c, 0, 58, 95
3, 98880, Note_off_c, 0, 53, 95
3, 98880, Note_on_c, 0, 55, 70
3, 99120, Note_off_c, 0, 55, 70
3, 99120, Note_on_c, 0, 58, 47
3, 99360, Note_off_c, 0, 58, 47
3, 99360, Note_on_c, 1, 60, 95
3, 99360, Note_on_c, 1, 55, 95
3, 99480, Pitch_bend_c, 1, 8832
3, 99480, Pitch_bend_c, 1, 8832
3, 99600, Pitch_bend_c, 1, 9600
3, 99600, Pitch_bend_c, 1, 8192
3, 99600, Note_off_c, 1, 60, 95
3, 99600, Pitch_bend_c, 1, 9600
3, 99600, Pitch_bend_c, 1, 8192
3, 99600, Note_off_c, 1, 55, 95
3, 99600, Note_on_c, 0, 62, 95
3, 99600, Note_on_c, 0, 57, 95
3, 99840, Note_off_c, 0, 62, 95
3, 99840, Note_off_c, 0, 57, 95
3, 99840, Note_on_c, 0, 60, 95
3, 99840, Note_on_c, 0, 57, 95
3, 99840, Note_on_c, 0, 53, 95
3, 100320, Note_off_c, 0, 60, 95
3, 100320, Note_off_c, 0, 57, 95
3, 100320, Note_off_c, 0, 53, 95
3, 100320, Note_on_c, 0, 53, 95
3, 100560, Note_off_c, 0, 53, 95
3, 100560, Note_on_c, 0, 53, 95
3, 100800, Note_off_c, 0, 53, 95
3, 100800, Note_on_c, 0, 41, 95
3, 101040, Note_off_c, 0, 41, 95
3, 101040, Note_on_c, 0, 53, 95
3, 101520, Note_off_c, 0, 53, 95
3, 101520, Note_on_c, 0, 41, 95
3, 101760, Note_off_c, 0, 41, 95
3, 101760, Note_on_c, 0, 53, 95
3, 102240, Note_off_c, 0, 53, 95
3, 102240, Note_on_c, 0, 41, 95
3, 102480, Note_off_c, 0, 41, 95
3, 102480, Note_on_c, 0, 48, 95
3, 102960, Note_off_c, 0, 48, 95
3, 102960, Note_on_c, 0, 41, 95
3, 103200, Note_off_c, 0, 41, 95
3, 103200, Note_on_c, 0, 41, 95
3, 103440, Note_off_c, 0, 41, 95
3, 103440, Note_on_c, 0, 41, 47
3, 103680, Note_off_c, 0, 41, 47
3, 103680, Note_on_c, 0, 57, 95
3, 103680, Note_on_c, 0, 53, 95
3, 103920, Note_off_c, 0, 57, 95
3, 103920, Note_off_c, 0, 53, 95
3, 103920, Note_on_c, 0, 58, 70
3, 104160, Note_off_c, 0, 58, 70
3, 104160, Note_on_c, 0, 58, 95
3, 104160, Note_on_c, 0, 53, 95
3, 104400, Note_off_c, 0, 58, 95
3, 104400, Note_off_c, 0, 53, 95
3, 104400, Note_on_c, 0, 58, 95
3, 104400, Note_on_c, 0, 53, 95
3, 104640, Note_off_c, 0, 58, 95
3, 104640, Note_off_c, 0, 53, 95
3, 104640, Note_on_c, 0, 58, 95
3, 104640, Note_on_c, 0, 53, 95
3, 104880, Note_off_c, 0, 58, 95
3, 104880, Note_off_c, 0, 53, 95
3, 104880, Note_on_c, 0, 58, 95
3, 104880, Note_on_c, 0, 53, 95
3, 105120, Note_off_c, 0, 58, 95
3, 105120, Note_off_c, 0, 53, 95
3, 105120, Note_on_c, 0, 57, 95
3, 105120, Note_on_c, 0, 53, 95
3, 105360, Note_off_c, 0, 57, 95
3, 105360, Note_off_c, 0, 53, 95
3, 105360, Note_on_c, 0, 53, 95
3, 105600, Note_off_c, 0, 53, 95
3, 105600, Note_on_c, 0, 67, 95
3, 105600, Note_on_c, 0, 60, 95
3, 105600, Note_on_c, 0, 57, 95
3, 105840, Note_off_c, 0, 67, 95
3, 105840, Note_off_c, 0, 60, 95
3, 105840, Note_off_c, 0, 57, 95
3, 105840, Note_on_c, 0, 65, 70
3, 106080, Note_off_c, 0, 65, 70
3, 106080, Note_on_c, 0, 60, 95
3, 106320, Note_off_c, 0, 60, 95
3, 106320, Note_on_c, 0, 62, 95
3, 106560, Note_off_c, 0, 62, 95
3, 106560, Note_on_c, 0, 60, 95
3, 106800, Note_off_c, 0, 60, 95
3, 106800, Note_on_c, 0, 57, 95
3, 107040, Note_off_c, 0, 57, 95
3, 107040, Note_on_c, 0, 41, 95
3, 107280, Note_off_c, 0, 41, 95
3, 107280, Note_on_c, 0, 43, 70
3, 107520, Note_off_c, 0, 43, 70
3, 107520, Note_on_c, 0, 46, 95
3, 108480, Note_off_c, 0, 46, 95
3, 108480, Note_on_c, 0, 53, 95
3, 108960, Note_off_c, 0, 53, 95
3, 108960, Note_on_c, 0, 46, 47
3, 109440, Note_off_c, 0, 46, 47
3, 109440, Note_on_c, 0, 48, 95
3, 109920, Note_off_c, 0, 48, 95
3, 109920, Note_on_c, 0, 55, 95
3, 110400, Note_off_c, 0, 55, 95
3, 110400, Note_on_c, 0, 63, 95
3, 110560, Note_off_c, 0, 63, 95
3, 110560, Note_on_c, 0, 65, 70
3, 110720, Note_off_c, 0, 65, 70
3, 110720, Note_on_c, 0, 63, 70
3, 110880, Note_off_c, 0, 63, 70
3, 110880, Note_on_c, 0, 48, 95
3, 111120, Note_off_c, 0, 48, 95
3, 111120, Note_on_c, 0, 49, 95
3, 111360, Note_off_c, 0, 49, 95
3, 111360, Note_on_c, 0, 50, 95
3, 112320, Note_off_c, 0, 50, 95
3, 112320, Note_on_c, 0, 57, 95
3, 112800, Note_off_c, 0, 57, 95
3, 112800, Note_on_c, 0, 50, 95
3, 113280, Note_off_c, 0, 50, 95
3, 113280, Note_on_c, 0, 39, 95
3, 113760, Note_off_c, 0, 39, 95
3, 113760, Note_on_c, 0, 51, 95
3, 114240, Note_off_c, 0, 51, 95
3, 114240, Note_on_c, 0, 41, 95
3, 114480, Note_off_c, 0, 41, 95
3, 114480, Note_on_c, 0, 43, 70
3, 114720, Note_off_c, 0, 43, 70
3, 114720, Note_on_c, 0, 46, 95
3, 114960, Note_off_c, 0, 46, 95
3, 114960, Note_on_c, 0, 48, 70
3, 115200, Note_off_c, 0, 48, 70
3, 115200, Note_on_c, 0, 41, 95
3, 115680, Note_off_c, 0, 41, 95
3, 115680, Note_on_c, 0, 53, 95
3, 115920, Note_off_c, 0, 53, 95
3, 115920, Note_on_c, 0, 57, 95
3, 115920, Note_on_c, 0, 53, 95
3, 116640, Note_off_c, 0, 57, 95
3, 116640, Note_off_c, 0, 53, 95
3, 116640, Note_on_c, 0, 53, 95
3, 117120, Note_off_c, 0, 53, 95
3, 117120, Note_on_c, 0, 41, 95
3, 117600, Note_off_c, 0, 41, 95
3, 117600, Note_on_c, 0, 53, 95
3, 117840, Note_off_c, 0, 53, 95
3, 117840, Note_on_c, 0, 57, 95
3, 117840, Note_on_c, 0, 53, 95
3, 118320, Note_off_c, 0, 57, 95
3, 118320, Note_off_c, 0, 53, 95
3, 118320, Note_on_c, 0, 53, 95
3, 118560, Note_off_c, 0, 53, 95
3, 118560, Note_on_c, 0, 41, 95
3, 118800, Note_off_c, 0, 41, 95
3, 118800, Note_on_c, 0, 57, 95
3, 119040, Note_off_c, 0, 57, 95
3, 119040, Note_on_c, 0, 60, 95
3, 119040, Note_on_c, 0, 57, 95
3, 119280, Note_off_c, 0, 60, 95
3, 119280, Note_off_c, 0, 57, 95
3, 119280, Note_on_c, 0, 58, 70
3, 119520, Note_off_c, 0, 58, 70
3, 119520, Note_on_c, 0, 57, 95
3, 119760, Note_off_c, 0, 57, 95
3, 119760, Note_on_c, 0, 53, 95
3, 120240, Note_off_c, 0, 53, 95
3, 120240, Note_on_c, 0, 48, 95
3, 120480, Note_off_c, 0, 48, 95
3, 120480, Note_on_c, 0, 41, 95
3, 120960, Note_off_c, 0, 41, 95
3, 120960, Note_on_c, 0, 60, 95
3, 120960, Note_on_c, 0, 55, 95
3, 121200, Note_off_c, 0, 60, 95
3, 121200, Note_off_c, 0, 55, 95
3, 121200, Note_on_c, 0, 57, 70
3, 121440, Note_off_c, 0, 57, 70
3, 121440, Note_on_c, 0, 60, 95
3, 121440, Note_on_c, 0, 55, 95
3, 121680, Note_off_c, 0, 60, 95
3, 121680, Note_off_c, 0, 55, 95
3, 121680, Note_on_c, 0, 57, 70
3, 121920, Note_off_c, 0, 57, 70
3, 121920, Note_on_c, 0, 60, 95
3, 121920, Note_on_c, 0, 55, 95
3, 122160, Note_off_c, 0, 60, 95
3, 122160, Note_off_c, 0, 55, 95
3, 122160, Note_on_c, 0, 53, 95
3, 122400, Note_off_c, 0, 53, 95
3, 122400, Note_on_c, 0, 48, 95
3, 122880, Note_off_c, 0, 48, 95
3, 122880, Note_on_c, 0, 39, 95
3, 123600, Note_off_c, 0, 39, 95
3, 123600, Note_on_c, 0, 51, 95
3, 123840, Note_off_c, 0, 51, 95
3, 123840, Note_on_c, 0, 51, 95
3, 123840, Note_on_c, 0, 46, 95
3, 123840, Note_on_c, 0, 39, 95
3, 124320, Note_off_c, 0, 51, 95
3, 124320, Note_off_c, 0, 46, 95
3, 124320, Note_off_c, 0, 39, 95
3, 124320, Note_on_c, 0, 46, 95
3, 124800, Note_off_c, 0, 46, 95
3, 124800, Note_on_c, 0, 39, 95
3, 125280, Note_off_c, 0, 39, 95
3, 125280, Note_on_c, 0, 39, 95
3, 125520, Note_off_c, 0, 39, 95
3, 125520, Note_on_c, 0, 58, 95
3, 125520, Note_on_c, 0, 53, 95
3, 125760, Note_off_c, 0, 58, 95
3, 125760, Note_off_c, 0, 53, 95
3, 125760, Note_on_c, 0, 55, 70
3, 126000, Note_off_c, 0, 55, 70
3, 126000, Note_on_c, 0, 55, 95
3, 126240, Note_off_c, 0, 55, 95
3, 126240, Note_on_c, 0, 51, 95
3, 126480, Note_off_c, 0, 51, 95
3, 126480, Note_on_c, 0, 53, 70
3, 126720, Note_off_c, 0, 53, 70
3, 126720, Note_on_c, 0, 41, 95
3, 127200, Note_off_c, 0, 41, 95
3, 127200, Note_on_c, 0, 48, 95
3, 127680, Note_off_c, 0, 48, 95
3, 127680, Note_on_c, 0, 53, 95
3, 128160, Note_off_c, 0, 53, 95
3, 128160, Note_on_c, 0, 48, 95
3, 128640, Note_off_c, 0, 48, 95
3, 128640, Note_on_c, 0, 48, 95
3, 128640, Note_on_c, 0, 41, 95
3, 129120, Note_off_c, 0, 48, 95
3, 129120, Note_off_c, 0, 41, 95
3, 129120, Note_on_c, 0, 41, 95
3, 129360, Note_off_c, 0, 41, 95
3, 129360, Note_on_c, 0, 41, 95
3, 129600, Note_off_c, 0, 41, 95
3, 129600, Note_on_c, 0, 43, 70
3, 129840, Note_off_c, 0, 43, 70
3, 129840, Note_on_c, 0, 46, 95
3, 130080, Note_off_c, 0, 46, 95
3, 130080, Note_on_c, 0, 48, 95
3, 130320, Note_off_c, 0, 48, 95
3, 130320, Note_on_c, 0, 46, 70
3, 130560, Note_off_c, 0, 46, 70
3, 130560, Note_on_c, 0, 39, 95
3, 131040, Note_off_c, 0, 39, 95
3, 131040, Note_on_c, 0, 46, 95
3, 131280, Note_off_c, 0, 46, 95
3, 131280, Note_on_c, 0, 46, 95
3, 131520, Note_off_c, 0, 46, 95
3, 131520, Note_on_c, 0, 55, 47
3, 131520, Note_on_c, 0, 51, 95
3, 131520, Note_on_c, 0, 46, 95
3, 131520, Note_on_c, 0, 39, 95
3, 132000, Note_off_c, 0, 55, 47
3, 132000, Note_off_c, 0, 51, 95
3, 132000, Note_off_c, 0, 46, 95
3, 132000, Note_off_c, 0, 39, 95
3, 132000, Note_on_c, 0, 46, 95
3, 132480, Note_off_c, 0, 46, 95
3, 132480, Note_on_c, 0, 39, 95
3, 132960, Note_off_c, 0, 39, 95
3, 132960, Note_on_c, 0, 46, 95
3, 133200, Note_off_c, 0, 46, 95
3, 133200, Note_on_c, 0, 46, 95
3, 133440, Note_off_c, 0, 46, 95
3, 133440, Note_on_c, 0, 55, 95
3, 133440, Note_on_c, 0, 51, 95
3, 133440, Note_on_c, 0, 46, 95
3, 133440, Note_on_c, 0, 39, 95
3, 133920, Note_off_c, 0, 55, 95
3, 133920, Note_off_c, 0, 51, 95
3, 133920, Note_off_c, 0, 46, 95
3, 133920, Note_off_c, 0, 39, 95
3, 133920, Note_on_c, 0, 46, 95
3, 134400, Note_off_c, 0, 46, 95
3, 134400, Note_on_c, 0, 41, 95
3, 134880, Note_off_c, 0, 41, 95
3, 134880, Note_on_c, 0, 48, 95
3, 135360, Note_off_c, 0, 48, 95
3, 135360, Note_on_c, 0, 53, 95
3, 135360, Note_on_c, 0, 48, 95
3, 135360, Note_on_c, 0, 41, 95
3, 135840, Note_off_c, 0, 53, 95
3, 135840, Note_off_c, 0, 48, 95
3, 135840, Note_off_c, 0, 41, 95
3, 135840, Note_on_c, 0, 48, 47
3, 136320, Note_off_c, 0, 48, 47
3, 136320, Note_on_c, 0, 57, 95
3, 136320, Note_on_c, 0, 53, 95
3, 136560, Note_off_c, 0, 57, 95
3, 136560, Note_off_c, 0, 53, 95
3, 136560, Note_on_c, 0, 58, 70
3, 136800, Note_off_c, 0, 58, 70
3, 136800, Note_on_c, 0, 57, 70
3, 137040, Note_off_c, 0, 57, 70
3, 137040, Note_on_c, 0, 58, 70
3, 137280, Note_off_c, 0, 58, 70
3, 137280, Note_on_c, 0, 57, 70
3, 137520, Note_off_c, 0, 57, 70
3, 137520, Note_on_c, 0, 53, 95
3, 137760, Note_off_c, 0, 53, 95
3, 137760, Note_on_c, 0, 48, 95
3, 138240, Note_off_c, 0, 48, 95
3, 138240, Note_on_c, 0, 39, 95
3, 138960, Note_off_c, 0, 39, 95
3, 138960, Note_on_c, 0, 55, 95
3, 138960, Note_on_c, 0, 51, 95
3, 138960, Note_on_c, 0, 46, 47
3, 139680, Note_off_c, 0, 55, 95
3, 139680, Note_off_c, 0, 51, 95
3, 139680, Note_off_c, 0, 46, 47
3, 139680, Note_on_c, 0, 39, 95
3, 140160, Note_off_c, 0, 39, 95
3, 140160, Note_on_c, 0, 50, 95
3, 140640, Note_off_c, 0, 50, 95
3, 140640, Note_on_c, 0, 53, 95
3, 140880, Note_off_c, 0, 53, 95
3, 140880, Note_on_c, 0, 62, 95
3, 141120, Note_off_c, 0, 62, 95
3, 141120, Note_on_c, 0, 58, 95
3, 141360, Note_off_c, 0, 58, 95
3, 141360, Note_on_c, 0, 53, 47
3, 141600, Note_off_c, 0, 53, 47
3, 141600, Note_on_c, 0, 41, 95
3, 142080, Note_off_c, 0, 41, 95
3, 142080, Note_on_c, 0, 60, 95
3, 142080, Note_on_c, 0, 55, 95
3, 142080, Note_on_c, 0, 48, 95
3, 142560, Note_off_c, 0, 60, 95
3, 142560, Note_off_c, 0, 55, 95
3, 142560, Note_off_c, 0, 48, 95
3, 142560, Note_on_c, 0, 60, 95
3, 142560, Note_on_c, 0, 55, 95
3, 142560, Note_on_c, 0, 48, 95
3, 142800, Note_off_c, 0, 60, 95
3, 142800, Note_off_c, 0, 55, 95
3, 142800, Note_off_c, 0, 48, 95
3, 142800, Note_on_c, 0, 60, 95
3, 142800, Note_on_c, 0, 55, 95
3, 142800, Note_on_c, 0, 48, 95
3, 143040, Note_off_c, 0, 60, 95
3, 143040, Note_off_c, 0, 55, 95
3, 143040, Note_off_c, 0, 48, 95
3, 143040, Note_on_c, 0, 60, 95
3, 143040, Note_on_c, 0, 55, 95
3, 143040, Note_on_c, 0, 48, 95
3, 143520, Note_off_c, 0, 60, 95
3, 143520, Note_off_c, 0, 55, 95
3, 143520, Note_off_c, 0, 48, 95
3, 143520, Note_on_c, 0, 60, 95
3, 143520, Note_on_c, 0, 55, 95
3, 143520, Note_on_c, 0, 48, 95
3, 143559, Note_off_c, 0, 60, 95
3, 143559, Note_off_c, 0, 55, 95
3, 143559, Note_off_c, 0, 48, 95
3, 143760, Note_on_c, 0, 60, 95
3, 143760, Note_on_c, 0, 55, 95
3, 143760, Note_on_c, 0, 48, 95
3, 143799, Note_off_c, 0, 60, 95
3, 143799, Note_off_c, 0, 55, 95
3, 143799, Note_off_c, 0, 48, 95
3, 144000, Note_on_c, 0, 43, 95
3, 144240, Note_off_c, 0, 43, 95
3, 144240, Note_on_c, 0, 46, 70
3, 144480, Note_off_c, 0, 46, 70
3, 144480, Note_on_c, 0, 53, 95
3, 144480, Note_on_c, 0, 50, 95
3, 144480, Note_on_c, 0, 46, 95
3, 144720, Note_off_c, 0, 53, 95
3, 144720, Note_off_c, 0, 50, 95
3, 144720, Note_off_c, 0, 46, 95
3, 144720, Note_on_c, 0, 53, 95
3, 144720, Note_on_c, 0, 50, 95
3, 144720, Note_on_c, 0, 46, 95
3, 144960, Note_off_c, 0, 53, 95
3, 144960, Note_off_c, 0, 50, 95
3, 144960, Note_off_c, 0, 46, 95
3, 144960, Note_on_c, 0, 53, 95
3, 144960, Note_on_c, 0, 50, 95
3, 144960, Note_on_c, 0, 46, 95
3, 145440, Note_off_c, 0, 53, 95
3, 145440, Note_off_c, 0, 50, 95
3, 145440, Note_off_c, 0, 46, 95
3, 145440, Note_on_c, 0, 57, 95
3, 145440, Note_on_c, 0, 53, 95
3, 145920, Note_off_c, 0, 57, 95
3, 145920, Note_off_c, 0, 53, 95
3, 145920, Note_on_c, 0, 39, 95
3, 146880, Note_off_c, 0, 39, 95
3, 146880, Note_on_c, 0, 58, 95
3, 146880, Note_on_c, 0, 55, 95
3, 146880, Note_on_c, 0, 51, 95
3, 146880, Note_on_c, 0, 46, 95
3, 146880, Note_on_c, 0, 39, 95
3, 147360, Note_off_c, 0, 58, 95
3, 147360, Note_off_c, 0, 55, 95
3, 147360, Note_off_c, 0, 51, 95
3, 147360, Note_off_c, 0, 46, 95
3, 147360, Note_off_c, 0, 39, 95
3, 147360, Note_on_c, 0, 39, 95
3, 147840, Note_off_c, 0, 39, 95
3, 147840, Note_on_c, 0, 50, 95
3, 148320, Note_off_c, 0, 50, 95
3, 148320, Note_on_c, 0, 53, 95
3, 148560, Note_off_c, 0, 53, 95
3, 148560, Note_on_c, 0, 62, 95
3, 148800, Note_off_c, 0, 62, 95
3, 148800, Note_on_c, 0, 58, 95
3, 149040, Note_off_c, 0, 58, 95
3, 149040, Note_on_c, 0, 53, 47
3, 149280, Note_off_c, 0, 53, 47
3, 149280, Note_on_c, 0, 41, 95
3, 149760, Note_off_c, 0, 41, 95
3, 149760, Note_on_c, 0, 60, 95
3, 149760, Note_on_c, 0, 55, 95
3, 149760, Note_on_c, 0, 48, 95
3, 150240, Note_off_c, 0, 60, 95
3, 150240, Note_off_c, 0, 55, 95
3, 150240, Note_off_c, 0, 48, 95
3, 150240, Note_on_c, 0, 60, 95
3, 150240, Note_on_c, 0, 55, 95
3, 150240, Note_on_c, 0, 48, 95
3, 150480, Note_off_c, 0, 60, 95
3, 150480, Note_off_c, 0, 55, 95
3, 150480, Note_off_c, 0, 48, 95
3, 150480, Note_on_c, 0, 60, 95
3, 150480, Note_on_c, 0, 55, 95
3, 150480, Note_on_c, 0, 48, 95
3, 150720, Note_off_c, 0, 60, 95
3, 150720, Note_off_c, 0, 55, 95
3, 150720, Note_off_c, 0, 48, 95
3, 150720, Note_on_c, 0, 60, 95
3, 150720, Note_on_c, 0, 55, 95
3, 150720, Note_on_c, 0, 48, 95
3, 151200, Note_off_c, 0, 60, 95
3, 151200, Note_off_c, 0, 55, 95
3, 151200, Note_off_c, 0, 48, 95
3, 151200, Note_on_c, 0, 54, 95
3, 151200, Note_on_c, 0, 49, 95
3, 151200, Note_on_c, 0, 44, 95
3, 151239, Note_off_c, 0, 54, 95
3, 151239, Note_off_c, 0, 49, 95
3, 151239, Note_off_c, 0, 44, 95
3, 151440, Note_on_c, 0, 54, 95
3, 151440, Note_on_c, 0, 49, 95
3, 151440, Note_on_c, 0, 44, 95
3, 151479, Note_off_c, 0, 54, 95
3, 151479, Note_off_c, 0, 49, 95
3, 151479, Note_off_c, 0, 44, 95
3, 151680, Note_on_c, 0, 43, 95
3, 151920, Note_off_c, 0, 43, 95
3, 151920, Note_on_c, 0, 46, 70
3, 152160, Note_off_c, 0, 46, 70
3, 152160, Note_on_c, 0, 53, 95
3, 152160, Note_on_c, 0, 50, 95
3, 152160, Note_on_c, 0, 46, 95
3, 152400, Note_off_c, 0, 53, 95
3, 152400, Note_off_c, 0, 50, 95
3, 152400, Note_off_c, 0, 46, 95
3, 152400, Note_on_c, 0, 53, 95
3, 152400, Note_on_c, 0, 50, 95
3, 152400, Note_on_c, 0, 46, 95
3, 152640, Note_off_c, 0, 53, 95
3, 152640, Note_off_c, 0, 50, 95
3, 152640, Note_off_c, 0, 46, 95
3, 152640, Note_on_c, 0, 53, 95
3, 152640, Note_on_c, 0, 50, 95
3, 152640, Note_on_c, 0, 46, 95
3, 153120, Note_off_c, 0, 53, 95
3, 153120, Note_off_c, 0, 50, 95
3, 153120, Note_off_c, 0, 46, 95
3, 153120, Note_on_c, 0, 57, 95
3, 153120, Note_on_c, 0, 53, 95
3, 153600, Note_off_c, 0, 57, 95
3, 153600, Note_off_c, 0, 53, 95
3, 153600, Note_on_c, 0, 64, 47
3, 153600, Note_on_c, 0, 60, 95
3, 153600, Note_on_c, 0, 55, 95
3, 153600, Note_on_c, 0, 48, 95
3, 154080, Note_off_c, 0, 64, 47
3, 154080, Note_off_c, 0, 60, 95
3, 154080, Note_off_c, 0, 55, 95
3, 154080, Note_off_c, 0, 48, 95
3, 154080, Note_on_c, 0, 55, 95
3, 154080, Note_on_c, 0, 48, 95
3, 154560, Note_off_c, 0, 55, 95
3, 154560, Note_off_c, 0, 48, 95
3, 154560, Note_on_c, 0, 60, 95
3, 154560, Note_on_c, 0, 55, 95
3, 154560, Note_on_c, 0, 48, 95
3, 155040, Note_off_c, 0, 60, 95
3, 155040, Note_off_c, 0, 55, 95
3, 155040, Note_off_c, 0, 48, 95
3, 155040, Note_on_c, 0, 55, 95
3, 155040, Note_on_c, 0, 48, 95
3, 155520, Note_off_c, 0, 55, 95
3, 155520, Note_off_c, 0, 48, 95
3, 155520, Note_on_c, 0, 60, 95
3, 155520, Note_on_c, 0, 55, 95
3, 155520, Note_on_c, 0, 48, 95
3, 156000, Note_off_c, 0, 60, 95
3, 156000, Note_off_c, 0, 55, 95
3, 156000, Note_off_c, 0, 48, 95
3, 156000, Note_on_c, 0, 55, 95
3, 156000, Note_on_c, 0, 48, 95
3, 156480, Note_off_c, 0, 55, 95
3, 156480, Note_off_c, 0, 48, 95
3, 156480, Note_on_c, 0, 64, 95
3, 156480, Note_on_c, 0, 60, 95
3, 156480, Note_on_c, 0, 55, 95
3, 156480, Note_on_c, 0, 48, 95
3, 156960, Note_off_c, 0, 64, 95
3, 156960, Note_off_c, 0, 60, 95
3, 156960, Note_off_c, 0, 55, 95
3, 156960, Note_off_c, 0, 48, 95
3, 156960, Note_on_c, 0, 54, 95
3, 156960, Note_on_c, 0, 49, 95
3, 156960, Note_on_c, 0, 44, 95
3, 157440, Note_off_c, 0, 54, 95
3, 157440, Note_off_c, 0, 49, 95
3, 157440, Note_off_c, 0, 44, 95
3, 157440, Note_on_c, 0, 58, 95
3, 157440, Note_on_c, 0, 55, 95
3, 157440, Note_on_c, 0, 51, 95
3, 157440, Note_on_c, 0, 46, 95
3, 157440, Note_on_c, 0, 39, 95
3, 157920, Note_off_c, 0, 58, 95
3, 157920, Note_off_c, 0, 55, 95
3, 157920, Note_off_c, 0, 51, 95
3, 157920, Note_off_c, 0, 46, 95
3, 157920, Note_off_c, 0, 39, 95
3, 157920, Note_on_c, 0, 39, 95
3, 158400, Note_off_c, 0, 39, 95
3, 158400, Note_on_c, 0, 58, 95
3, 158400, Note_on_c, 0, 55, 95
3, 158400, Note_on_c, 0, 51, 95
3, 158400, Note_on_c, 0, 46, 95
3, 158400, Note_on_c, 0, 39, 95
3, 158880, Note_off_c, 0, 58, 95
3, 158880, Note_off_c, 0, 55, 95
3, 158880, Note_off_c, 0, 51, 95
3, 158880, Note_off_c, 0, 46, 95
3, 158880, Note_off_c, 0, 39, 95
3, 158880, Note_on_c, 0, 39, 95
3, 159120, Note_off_c, 0, 39, 95
3, 159120, Note_on_c, 0, 39, 95
3, 159360, Note_off_c, 0, 39, 95
3, 159360, Note_on_c, 0, 67, 47
3, 159360, Note_on_c, 0, 63, 95
3, 159360, Note_on_c, 0, 58, 95
3, 159360, Note_on_c, 0, 53, 95
3, 159360, Note_on_c, 0, 39, 95
3, 159600, Note_off_c, 0, 67, 47
3, 159600, Note_off_c, 0, 63, 95
3, 159600, Note_off_c, 0, 58, 95
3, 159600, Note_off_c, 0, 53, 95
3, 159600, Note_off_c, 0, 39, 95
3, 159600, Note_on_c, 0, 55, 70
3, 159840, Note_off_c, 0, 55, 70
3, 159840, Note_on_c, 0, 63, 95
3, 159840, Note_on_c, 0, 58, 95
3, 159840, Note_on_c, 0, 55, 95
3, 159840, Note_on_c, 0, 39, 95
3, 160080, Note_off_c, 0, 63, 95
3, 160080, Note_off_c, 0, 58, 95
3, 160080, Note_off_c, 0, 55, 95
3, 160080, Note_off_c, 0, 39, 95
3, 160080, Note_on_c, 0, 63, 95
3, 160080, Note_on_c, 0, 58, 95
3, 160080, Note_on_c, 0, 55, 95
3, 160080, Note_on_c, 0, 39, 95
3, 160320, Note_off_c, 0, 63, 95
3, 160320, Note_off_c, 0, 58, 95
3, 160320, Note_off_c, 0, 55, 95
3, 160320, Note_off_c, 0, 39, 95
3, 160320, Note_on_c, 0, 63, 95
3, 160320, Note_on_c, 0, 58, 95
3, 160320, Note_on_c, 0, 55, 95
3, 160320, Note_on_c, 0, 39, 95
3, 160800, Note_off_c, 0, 63, 95
3, 160800, Note_off_c, 0, 58, 95
3, 160800, Note_off_c, 0, 55, 95
3, 160800, Note_off_c, 0, 39, 95
3, 160800, Note_on_c, 1, 63, 95
3, 160800, Note_on_c, 1, 58, 95
3, 160800, Note_on_c, 1, 51, 95
3, 160920, Pitch_bend_c, 1, 8832
3, 160920, Pitch_bend_c, 1, 8832
3, 160920, Pitch_bend_c, 1, 8832
3, 161040, Pitch_bend_c, 1, 9600
3, 161040, Pitch_bend_c, 1, 8192
3, 161040, Note_off_c, 1, 63, 95
3, 161040, Pitch_bend_c, 1, 9600
3, 161040, Pitch_bend_c, 1, 8192
3, 161040, Note_off_c, 1, 58, 95
3, 161040, Pitch_bend_c, 1, 9600
3, 161040, Pitch_bend_c, 1, 8192
3, 161040, Note_off_c, 1, 51, 95
3, 161040, Note_on_c, 0, 65, 95
3, 161040, Note_on_c, 0, 60, 95
3, 161040, Note_on_c, 0, 53, 95
3, 161280, Note_off_c, 0, 65, 95
3, 161280, Note_off_c, 0, 60, 95
3, 161280, Note_off_c, 0, 53, 95
3, 161280, Note_on_c, 0, 65, 95
3, 161280, Note_on_c, 0, 60, 95
3, 161280, Note_on_c, 0, 53, 95
3, 161760, Note_off_c, 0, 65, 95
3, 161760, Note_off_c, 0, 60, 95
3, 161760, Note_off_c, 0, 53, 95
3, 161760, Note_on_c, 0, 54, 95
3, 161760, Note_on_c, 0, 49, 95
3, 161760, Note_on_c, 0, 44, 95
3, 161799, Note_off_c, 0, 54, 95
3, 161799, Note_off_c, 0, 49, 95
3, 161799, Note_off_c, 0, 44, 95
3, 162240, Note_on_c, 0, 57, 95
3, 162240, Note_on_c, 0, 53, 95
3, 162240, Note_on_c, 0, 48, 95
3, 162240, Note_on_c, 0, 41, 95
3, 162720, Note_off_c, 0, 57, 95
3, 162720, Note_off_c, 0, 53, 95
3, 162720, Note_off_c, 0, 48, 95
3, 162720, Note_off_c, 0, 41, 95
3, 162720, Note_on_c, 0, 65, 95
3, 162720, Note_on_c, 0, 60, 95
3, 162720, Note_on_c, 0, 57, 95
3, 162720, Note_on_c, 0, 53, 95
3, 162720, Note_on_c, 0, 48, 95
3, 162720, Note_on_c, 0, 41, 95
3, 162960, Note_off_c, 0, 65, 95
3, 162960, Note_off_c, 0, 60, 95
3, 162960, Note_off_c, 0, 57, 95
3, 162960, Note_off_c, 0, 53, 95
3, 162960, Note_off_c, 0, 48, 95
3, 162960, Note_off_c, 0, 41, 95
3, 162960, Note_on_c, 0, 65, 95
3, 162960, Note_on_c, 0, 60, 95
3, 162960, Note_on_c, 0, 57, 95
3, 162960, Note_on_c, 0, 53, 95
3, 162960, Note_on_c, 0, 48, 95
3, 162960, Note_on_c, 0, 41, 95
3, 163200, Note_off_c, 0, 65, 95
3, 163200, Note_off_c, 0, 60, 95
3, 163200, Note_off_c, 0, 57, 95
3, 163200, Note_off_c, 0, 53, 95
3, 163200, Note_off_c, 0, 48, 95
3, 163200, Note_off_c, 0, 41, 95
3, 163200, Note_on_c, 0, 65, 95
3, 163200, Note_on_c, 0, 60, 95
3, 163200, Note_on_c, 0, 57, 95
3, 163200, Note_on_c, 0, 53, 95
3, 163200, Note_on_c, 0, 48, 95
3, 163200, Note_on_c, 0, 41, 95
3, 163680, Note_off_c, 0, 65, 95
3, 163680, Note_off_c, 0, 60, 95
3, 163680, Note_off_c, 0, 57, 95
3, 163680, Note_off_c, 0, 53, 95
3, 163680, Note_off_c, 0, 48, 95
3, 163680, Note_off_c, 0, 41, 95
3, 163680, Note_on_c, 0, 65, 95
3, 163680, Note_on_c, 0, 60, 95
3, 163680, Note_on_c, 0, 57, 95
3, 163680, Note_on_c, 0, 53, 95
3, 163680, Note_on_c, 0, 48, 95
3, 163680, Note_on_c, 0, 41, 95
3, 163920, Note_off_c, 0, 65, 95
3, 163920, Note_off_c, 0, 60, 95
3, 163920, Note_off_c, 0, 57, 95
3, 163920, Note_off_c, 0, 53, 95
3, 163920, Note_off_c, 0, 48, 95
3, 163920, Note_off_c, 0, 41, 95
3, 163920, Note_on_c, 0, 65, 95
3, 163920, Note_on_c, 0, 60, 95
3, 163920, Note_on_c, 0, 57, 95
3, 163920, Note_on_c, 0, 53, 95
3, 163920, Note_on_c, 0, 48, 95
3, 163920, Note_on_c, 0, 41, 95
3, 164160, Note_off_c, 0, 65, 95
3, 164160, Note_off_c, 0, 60, 95
3, 164160, Note_off_c, 0, 57, 95
3, 164160, Note_off_c, 0, 53, 95
3, 164160, Note_off_c, 0, 48, 95
3, 164160, Note_off_c, 0, 41, 95
3, 164160, Note_on_c, 0, 65, 95
3, 164160, Note_on_c, 0, 60, 95
3, 164160, Note_on_c, 0, 57, 95
3, 164160, Note_on_c, 0, 53, 95
3, 164160, Note_on_c, 0, 48, 95
3, 164160, Note_on_c, 0, 41, 95
3, 164400, Note_off_c, 0, 65, 95
3, 164400, Note_off_c, 0, 60, 95
3, 164400, Note_off_c, 0, 57, 95
3, 164400, Note_off_c, 0, 53, 95
3, 164400, Note_off_c, 0, 48, 95
3, 164400, Note_off_c, 0, 41, 95
3, 164400, Note_on_c, 0, 65, 95
3, 164400, Note_on_c, 0, 60, 95
3, 164400, Note_on_c, 0, 57, 95
3, 164400, Note_on_c, 0, 53, 95
3, 164400, Note_on_c, 0, 48, 95
3, 164400, Note_on_c, 0, 41, 95
3, 164640, Note_off_c, 0, 65, 95
3, 164640, Note_off_c, 0, 60, 95
3, 164640, Note_off_c, 0, 57, 95
3, 164640, Note_off_c, 0, 53, 95
3, 164640, Note_off_c, 0, 48, 95
3, 164640, Note_off_c, 0, 41, 95
3, 164640, Note_on_c, 0, 65, 95
3, 164640, Note_on_c, 0, 60, 95
3, 164640, Note_on_c, 0, 57, 95
3, 164640, Note_on_c, 0, 53, 95
3, 164640, Note_on_c, 0, 48, 95
3, 164640, Note_on_c, 0, 41, 95
3, 164880, Note_off_c, 0, 65, 95
3, 164880, Note_off_c, 0, 60, 95
3, 164880, Note_off_c, 0, 57, 95
3, 164880, Note_off_c, 0, 53, 95
3, 164880, Note_off_c, 0, 48, 95
3, 164880, Note_off_c, 0, 41, 95
3, 164880, Note_on_c, 0, 65, 95
3, 164880, Note_on_c, 0, 60, 95
3, 164880, Note_on_c, 0, 57, 95
3, 164880, Note_on_c, 0, 53, 95
3, 164880, Note_on_c, 0, 48, 95
3, 164880, Note_on_c, 0, 41, 95
3, 165120, Note_off_c, 0, 65, 95
3, 165120, Note_off_c, 0, 60, 95
3, 165120, Note_off_c, 0, 57, 95
3, 165120, Note_off_c, 0, 53, 95
3, 165120, Note_off_c, 0, 48, 95
3, 165120, Note_off_c, 0, 41, 95
3, 165120, Note_on_c, 0, 65, 95
3, 165120, Note_on_c, 0, 60, 95
3, 165120, Note_on_c, 0, 57, 95
3, 165120, Note_on_c, 0, 53, 95
3, 165120, Note_on_c, 0, 48, 95
3, 165120, Note_on_c, 0, 41, 95
3, 165360, Note_off_c, 0, 65, 95
3, 165360, Note_off_c, 0, 60, 95
3, 165360, Note_off_c, 0, 57, 95
3, 165360, Note_off_c, 0, 53, 95
3, 165360, Note_off_c, 0, 48, 95
3, 165360, Note_off_c, 0, 41, 95
3, 165360, Note_on_c, 0, 65, 95
3, 165360, Note_on_c, 0, 60, 95
3, 165360, Note_on_c, 0, 57, 95
3, 165360, Note_on_c, 0, 53, 95
3, 165360, Note_on_c, 0, 48, 95
3, 165360, Note_on_c, 0, 41, 95
3, 165600, Note_off_c, 0, 65, 95
3, 165600, Note_off_c, 0, 60, 95
3, 165600, Note_off_c, 0, 57, 95
3, 165600, Note_off_c, 0, 53, 95
3, 165600, Note_off_c, 0, 48, 95
3, 165600, Note_off_c, 0, 41, 95
3, 165600, Note_on_c, 0, 65, 95
3, 165600, Note_on_c, 0, 60, 95
3, 165600, Note_on_c, 0, 57, 95
3, 165600, Note_on_c, 0, 53, 95
3, 165600, Note_on_c, 0, 48, 95
3, 165600, Note_on_c, 0, 41, 95
3, 165840, Note_off_c, 0, 65, 95
3, 165840, Note_off_c, 0, 60, 95
3, 165840, Note_off_c, 0, 57, 95
3, 165840, Note_off_c, 0, 53, 95
3, 165840, Note_off_c, 0, 48, 95
3, 165840, Note_off_c, 0, 41, 95
3, 165840, Note_on_c, 0, 65, 95
3, 165840, Note_on_c, 0, 60, 95
3, 165840, Note_on_c, 0, 57, 95
3, 165840, Note_on_c, 0, 53, 95
3, 165840, Note_on_c, 0, 48, 95
3, 165840, Note_on_c, 0, 41, 95
3, 166080, Note_off_c, 0, 65, 95
3, 166080, Note_off_c, 0, 60, 95
3, 166080, Note_off_c, 0, 57, 95
3, 166080, Note_off_c, 0, 53, 95
3, 166080, Note_off_c, 0, 48, 95
3, 166080, Note_off_c, 0, 41, 95
3, 166080, Note_on_c, 0, 65, 95
3, 166080, Note_on_c, 0, 60, 95
3, 166080, Note_on_c, 0, 57, 95
3, 166080, Note_on_c, 0, 53, 95
3, 166080, Note_on_c, 0, 48, 95
3, 166080, Note_on_c, 0, 41, 95
3, 166320, Note_off_c, 0, 65, 95
3, 166320, Note_off_c, 0, 60, 95
3, 166320, Note_off_c, 0, 57, 95
3, 166320, Note_off_c, 0, 53, 95
3, 166320, Note_off_c, 0, 48, 95
3, 166320, Note_off_c, 0, 41, 95
3, 166320, Note_on_c, 0, 65, 95
3, 166320, Note_on_c, 0, 60, 95
3, 166320, Note_on_c, 0, 57, 95
3, 166320, Note_on_c, 0, 53, 95
3, 166320, Note_on_c, 0, 48, 95
3, 166320, Note_on_c, 0, 41, 95
3, 166560, Note_off_c, 0, 65, 95
3, 166560, Note_off_c, 0, 60, 95
3, 166560, Note_off_c, 0, 57, 95
3, 166560, Note_off_c, 0, 53, 95
3, 166560, Note_off_c, 0, 48, 95
3, 166560, Note_off_c, 0, 41, 95
3, 166560, Note_on_c, 0, 65, 95
3, 166560, Note_on_c, 0, 60, 95
3, 166560, Note_on_c, 0, 57, 95
3, 166560, Note_on_c, 0, 53, 95
3, 166560, Note_on_c, 0, 48, 95
3, 166560, Note_on_c, 0, 41, 95
3, 166800, Note_off_c, 0, 65, 95
3, 166800, Note_off_c, 0, 60, 95
3, 166800, Note_off_c, 0, 57, 95
3, 166800, Note_off_c, 0, 53, 95
3, 166800, Note_off_c, 0, 48, 95
3, 166800, Note_off_c, 0, 41, 95
3, 166800, Note_on_c, 0, 65, 95
3, 166800, Note_on_c, 0, 60, 95
3, 166800, Note_on_c, 0, 57, 95
3, 166800, Note_on_c, 0, 53, 95
3, 166800, Note_on_c, 0, 48, 95
3, 166800, Note_on_c, 0, 41, 95
3, 167040, Note_off_c, 0, 65, 95
3, 167040, Note_off_c, 0, 60, 95
3, 167040, Note_off_c, 0, 57, 95
3, 167040, Note_off_c, 0, 53, 95
3, 167040, Note_off_c, 0, 48, 95
3, 167040, Note_off_c, 0, 41, 95
3, 167040, Note_on_c, 0, 65, 95
3, 167040, Note_on_c, 0, 60, 95
3, 167040, Note_on_c, 0, 57, 95
3, 167040, Note_on_c, 0, 53, 95
3, 167040, Note_on_c, 0, 48, 95
3, 167040, Note_on_c, 0, 41, 95
3, 167280, Note_off_c, 0, 65, 95
3, 167280, Note_off_c, 0, 60, 95
3, 167280, Note_off_c, 0, 57, 95
3, 167280, Note_off_c, 0, 53, 95
3, 167280, Note_off_c, 0, 48, 95
3, 167280, Note_off_c, 0, 41, 95
3, 167280, Note_on_c, 0, 65, 95
3, 167280, Note_on_c, 0, 60, 95
3, 167280, Note_on_c, 0, 57, 95
3, 167280, Note_on_c, 0, 53, 95
3, 167280, Note_on_c, 0, 48, 95
3, 167280, Note_on_c, 0, 41, 95
3, 167520, Note_off_c, 0, 65, 95
3, 167520, Note_off_c, 0, 60, 95
3, 167520, Note_off_c, 0, 57, 95
3, 167520, Note_off_c, 0, 53, 95
3, 167520, Note_off_c, 0, 48, 95
3, 167520, Note_off_c, 0, 41, 95
3, 167520, Note_on_c, 0, 65, 95
3, 167520, Note_on_c, 0, 60, 95
3, 167520, Note_on_c, 0, 57, 95
3, 167520, Note_on_c, 0, 53, 95
3, 167520, Note_on_c, 0, 48, 95
3, 167520, Note_on_c, 0, 41, 95
3, 167760, Note_off_c, 0, 65, 95
3, 167760, Note_off_c, 0, 60, 95
3, 167760, Note_off_c, 0, 57, 95
3, 167760, Note_off_c, 0, 53, 95
3, 167760, Note_off_c, 0, 48, 95
3, 167760, Note_off_c, 0, 41, 95
3, 167760, Note_on_c, 0, 65, 95
3, 167760, Note_on_c, 0, 60, 95
3, 167760, Note_on_c, 0, 57, 95
3, 167760, Note_on_c, 0, 53, 95
3, 167760, Note_on_c, 0, 48, 95
3, 167760, Note_on_c, 0, 41, 95
3, 168000, Note_off_c, 0, 65, 95
3, 168000, Note_off_c, 0, 60, 95
3, 168000, Note_off_c, 0, 57, 95
3, 168000, Note_off_c, 0, 53, 95
3, 168000, Note_off_c, 0, 48, 95
3, 168000, Note_off_c, 0, 41, 95
3, 168000, Note_on_c, 0, 65, 95
3, 168000, Note_on_c, 0, 60, 95
3, 168000, Note_on_c, 0, 57, 95
3, 168000, Note_on_c, 0, 53, 95
3, 168000, Note_on_c, 0, 48, 95
3, 168000, Note_on_c, 0, 41, 95
3, 168240, Note_off_c, 0, 65, 95
3, 168240, Note_off_c, 0, 60, 95
3, 168240, Note_off_c, 0, 57, 95
3, 168240, Note_off_c, 0, 53, 95
3, 168240, Note_off_c, 0, 48, 95
3, 168240, Note_off_c, 0, 41, 95
3, 168240, Note_on_c, 0, 65, 95
3, 168240, Note_on_c, 0, 60, 95
3, 168240, Note_on_c, 0, 57, 95
3, 168240, Note_on_c, 0, 53, 95
3, 168240, Note_on_c, 0, 48, 95
3, 168240, Note_on_c, 0, 41, 95
3, 168480, Note_off_c, 0, 65, 95
3, 168480, Note_off_c, 0, 60, 95
3, 168480, Note_off_c, 0, 57, 95
3, 168480, Note_off_c, 0, 53, 95
3, 168480, Note_off_c, 0, 48, 95
3, 168480, Note_off_c, 0, 41, 95
3, 168480, Note_on_c, 0, 65, 95
3, 168480, Note_on_c, 0, 60, 95
3, 168480, Note_on_c, 0, 57, 95
3, 168480, Note_on_c, 0, 53, 95
3, 168480, Note_on_c, 0, 48, 95
3, 168480, Note_on_c, 0, 41, 95
3, 168720, Note_off_c, 0, 65, 95
3, 168720, Note_off_c, 0, 60, 95
3, 168720, Note_off_c, 0, 57, 95
3, 168720, Note_off_c, 0, 53, 95
3, 168720, Note_off_c, 0, 48, 95
3, 168720, Note_off_c, 0, 41, 95
3, 168720, Note_on_c, 0, 65, 95
3, 168720, Note_on_c, 0, 60, 95
3, 168720, Note_on_c, 0, 57, 95
3, 168720, Note_on_c, 0, 53, 95
3, 168720, Note_on_c, 0, 48, 95
3, 168720, Note_on_c, 0, 41, 95
3, 168960, Note_off_c, 0, 65, 95
3, 168960, Note_off_c, 0, 60, 95
3, 168960, Note_off_c, 0, 57, 95
3, 168960, Note_off_c, 0, 53, 95
3, 168960, Note_off_c, 0, 48, 95
3, 168960, Note_off_c, 0, 41, 95
3, 168960, Note_on_c, 0, 62, 95
3, 168960, Note_on_c, 0, 58, 95
3, 168960, Note_on_c, 0, 53, 95
3, 168960, Note_on_c, 0, 46, 95
3, 169440, Note_off_c, 0, 62, 95
3, 169440, Note_off_c, 0, 58, 95
3, 169440, Note_off_c, 0, 53, 95
3, 169440, Note_off_c, 0, 46, 95
3, 169440, Note_on_c, 0, 62, 95
3, 169440, Note_on_c, 0, 58, 95
3, 169440, Note_on_c, 0, 53, 95
3, 169440, Note_on_c, 0, 46, 95
3, 169680, Note_off_c, 0, 62, 95
3, 169680, Note_off_c, 0, 58, 95
3, 169680, Note_off_c, 0, 53, 95
3, 169680, Note_off_c, 0, 46, 95
3, 169680, Note_on_c, 0, 62, 95
3, 169680, Note_on_c, 0, 58, 95
3, 169680, Note_on_c, 0, 53, 95
3, 169680, Note_on_c, 0, 46, 95
3, 169920, Note_off_c, 0, 62, 95
3, 169920, Note_off_c, 0, 58, 95
3, 169920, Note_off_c, 0, 53, 95
3, 169920, Note_off_c, 0, 46, 95
3, 169920, Note_on_c, 1, 62, 95
3, 169920, Note_on_c, 1, 58, 95
3, 169920, Note_on_c, 1, 53, 95
3, 169920, Note_on_c, 1, 46, 95
3, 170040, Pitch_bend_c, 1, 7552
3, 170040, Pitch_bend_c, 1, 7552
3, 170040, Pitch_bend_c, 1, 7552
3, 170040, Pitch_bend_c, 1, 7552
3, 170160, Pitch_bend_c, 1, 6784
3, 170160, Pitch_bend_c, 1, 8192
3, 170160, Note_off_c, 1, 62, 95
3, 170160, Pitch_bend_c, 1, 6784
3, 170160, Pitch_bend_c, 1, 8192
3, 170160, Note_off_c, 1, 58, 95
3, 170160, Pitch_bend_c, 1, 6784
3, 170160, Pitch_bend_c, 1, 8192
3, 170160, Note_off_c, 1, 53, 95
3, 170160, Pitch_bend_c, 1, 6784
3, 170160, Pitch_bend_c, 1, 8192
3, 170160, Note_off_c, 1, 46, 95
3, 170160, Note_on_c, 0, 60, 95
3, 170160, Note_on_c, 0, 56, 95
3, 170160, Note_on_c, 0, 51, 95
3, 170160, Note_on_c, 0, 44, 47
3, 170400, Note_off_c, 0, 60, 95
3, 170400, Note_off_c, 0, 56, 95
3, 170400, Note_off_c, 0, 51, 95
3, 170400, Note_off_c, 0, 44, 47
3, 170400, Note_on_c, 0, 60, 95
3, 170400, Note_on_c, 0, 56, 95
3, 170400, Note_on_c, 0, 51, 95
3, 170400, Note_on_c, 0, 44, 95
3, 170880, Note_off_c, 0, 60, 95
3, 170880, Note_off_c, 0, 56, 95
3, 170880, Note_off_c, 0, 51, 95
3, 170880, Note_off_c, 0, 44, 95
3, 170880, Note_on_c, 0, 63, 95
3, 170880, Note_on_c, 0, 58, 95
3, 170880, Note_on_c, 0, 55, 95
3, 170880, Note_on_c, 0, 51, 95
3, 170880, Note_on_c, 0, 46, 95
3, 170880, Note_on_c, 0, 39, 95
3, 171360, Note_off_c, 0, 63, 95
3, 171360, Note_off_c, 0, 58, 95
3, 171360, Note_off_c, 0, 55, 95
3, 171360, Note_off_c, 0, 51, 95
3, 171360, Note_off_c, 0, 46, 95
3, 171360, Note_off_c, 0, 39, 95
3, 171360, Note_on_c, 0, 63, 95
3, 171360, Note_on_c, 0, 58, 95
3, 171360, Note_on_c, 0, 55, 95
3, 171360, Note_on_c, 0, 51, 95
3, 171360, Note_on_c, 0, 46, 95
3, 171360, Note_on_c, 0, 39, 95
3, 171600, Note_off_c, 0, 63, 95
3, 171600, Note_off_c, 0, 58, 95
3, 171600, Note_off_c, 0, 55, 95
3, 171600, Note_off_c, 0, 51, 95
3, 171600, Note_off_c, 0, 46, 95
3, 171600, Note_off_c, 0, 39, 95
3, 171600, Note_on_c, 0, 63, 95
3, 171600, Note_on_c, 0, 58, 95
3, 171600, Note_on_c, 0, 55, 95
3, 171600, Note_on_c, 0, 51, 95
3, 171600, Note_on_c, 0, 46, 95
3, 171600, Note_on_c, 0, 39, 95
3, 171840, Note_off_c, 0, 63, 95
3, 171840, Note_off_c, 0, 58, 95
3, 171840, Note_off_c, 0, 55, 95
3, 171840, Note_off_c, 0, 51, 95
3, 171840, Note_off_c, 0, 46, 95
3, 171840, Note_off_c, 0, 39, 95
3, 171840, Note_on_c, 0, 63, 95
3, 171840, Note_on_c, 0, 58, 95
3, 171840, Note_on_c, 0, 55, 95
3, 171840, Note_on_c, 0, 51, 95
3, 171840, Note_on_c, 0, 46, 95
3, 171840, Note_on_c, 0, 39, 95
3, 172320, Note_off_c, 0, 63, 95
3, 172320, Note_off_c, 0, 58, 95
3, 172320, Note_off_c, 0, 55, 95
3, 172320, Note_off_c, 0, 51, 95
3, 172320, Note_off_c, 0, 46, 95
3, 172320, Note_off_c, 0, 39, 95
3, 172320, Note_on_c, 0, 63, 95
3, 172320, Note_on_c, 0, 58, 95
3, 172320, Note_on_c, 0, 55, 95
3, 172320, Note_on_c, 0, 51, 95
3, 172320, Note_on_c, 0, 46, 95
3, 172320, Note_on_c, 0, 39, 95
3, 172800, Note_off_c, 0, 63, 95
3, 172800, Note_off_c, 0, 58, 95
3, 172800, Note_off_c, 0, 55, 95
3, 172800, Note_off_c, 0, 51, 95
3, 172800, Note_off_c, 0, 46, 95
3, 172800, Note_off_c, 0, 39, 95
3, 172800, Note_on_c, 0, 69, 95
3, 172800, Note_on_c, 0, 65, 95
3, 172800, Note_on_c, 0, 60, 95
3, 172800, Note_on_c, 0, 53, 95
3, 173280, Note_off_c, 0, 69, 95
3, 173280, Note_off_c, 0, 65, 95
3, 173280, Note_off_c, 0, 60, 95
3, 173280, Note_off_c, 0, 53, 95
3, 173280, Note_on_c, 0, 69, 95
3, 173280, Note_on_c, 0, 65, 95
3, 173280, Note_on_c, 0, 60, 95
3, 173280, Note_on_c, 0, 53, 95
3, 173520, Note_off_c, 0, 69, 95
3, 173520, Note_off_c, 0, 65, 95
3, 173520, Note_off_c, 0, 60, 95
3, 173520, Note_off_c, 0, 53, 95
3, 173520, Note_on_c, 0, 69, 95
3, 173520, Note_on_c, 0, 65, 95
3, 173520, Note_on_c, 0, 60, 95
3, 173520, Note_on_c, 0, 53, 95
3, 173760, Note_off_c, 0, 69, 95
3, 173760, Note_off_c, 0, 65, 95
3, 173760, Note_off_c, 0, 60, 95
3, 173760, Note_off_c, 0, 53, 95
3, 173760, Note_on_c, 0, 69, 95
3, 173760, Note_on_c, 0, 65, 95
3, 173760, Note_on_c, 0, 60, 95
3, 173760, Note_on_c, 0, 53, 95
3, 174240, Note_off_c, 0, 69, 95
3, 174240, Note_off_c, 0, 65, 95
3, 174240, Note_off_c, 0, 60, 95
3, 174240, Note_off_c, 0, 53, 95
3, 174240, Note_on_c, 0, 69, 95
3, 174240, Note_on_c, 0, 65, 95
3, 174240, Note_on_c, 0, 60, 95
3, 174240, Note_on_c, 0, 53, 95
3, 174480, Note_off_c, 0, 69, 95
3, 174480, Note_off_c, 0, 65, 95
3, 174480, Note_off_c, 0, 60, 95
3, 174480, Note_off_c, 0, 53, 95
3, 174480, Note_on_c, 0, 69, 95
3, 174480, Note_on_c, 0, 65, 95
3, 174480, Note_on_c, 0, 60, 95
3, 174480, Note_on_c, 0, 53, 95
3, 174720, Note_off_c, 0, 69, 95
3, 174720, Note_off_c, 0, 65, 95
3, 174720, Note_off_c, 0, 60, 95
3, 174720, Note_off_c, 0, 53, 95
3, 174720, Note_on_c, 1, 67, 95
3, 174720, Note_on_c, 1, 63, 95
3, 174720, Note_on_c, 1, 58, 95
3, 174720, Note_on_c, 1, 51, 95
3, 174840, Pitch_bend_c, 1, 8832
3, 174840, Pitch_bend_c, 1, 8832
3, 174840, Pitch_bend_c, 1, 8832
3, 174840, Pitch_bend_c, 1, 8832
3, 174960, Pitch_bend_c, 1, 9600
3, 174960, Pitch_bend_c, 1, 8192
3, 174960, Note_off_c, 1, 67, 95
3, 174960, Pitch_bend_c, 1, 9600
3, 174960, Pitch_bend_c, 1, 8192
3, 174960, Note_off_c, 1, 63, 95
3, 174960, Pitch_bend_c, 1, 9600
3, 174960, Pitch_bend_c, 1, 8192
3, 174960, Note_off_c, 1, 58, 95
3, 174960, Pitch_bend_c, 1, 9600
3, 174960, Pitch_bend_c, 1, 8192
3, 174960, Note_off_c, 1, 51, 95
3, 174960, Note_on_c, 0, 69, 95
3, 174960, Note_on_c, 0, 65, 95
3, 174960, Note_on_c, 0, 60, 95
3, 174960, Note_on_c, 0, 53, 95
3, 175200, Note_off_c, 0, 69, 95
3, 175200, Note_off_c, 0, 65, 95
3, 175200, Note_off_c, 0, 60, 95
3, 175200, Note_off_c, 0, 53, 95
3, 175200, Note_on_c, 0, 69, 95
3, 175200, Note_on_c, 0, 65, 95
3, 175200, Note_on_c, 0, 60, 95
3, 175200, Note_on_c, 0, 53, 95
3, 175440, Note_off_c, 0, 69, 95
3, 175440, Note_off_c, 0, 65, 95
3, 175440, Note_off_c, 0, 60, 95
3, 175440, Note_off_c, 0, 53, 95
3, 175440, Note_on_c, 0, 69, 95
3, 175440, Note_on_c, 0, 65, 95
3, 175440, Note_on_c, 0, 60, 95
3, 175440, Note_on_c, 0, 53, 95
3, 175680, Note_off_c, 0, 69, 95
3, 175680, Note_off_c, 0, 65, 95
3, 175680, Note_off_c, 0, 60, 95
3, 175680, Note_off_c, 0, 53, 95
3, 175680, Note_on_c, 0, 69, 95
3, 175680, Note_on_c, 0, 65, 95
3, 175680, Note_on_c, 0, 60, 95
3, 175680, Note_on_c, 0, 53, 95
3, 175920, Note_off_c, 0, 69, 95
3, 175920, Note_off_c, 0, 65, 95
3, 175920, Note_off_c, 0, 60, 95
3, 175920, Note_off_c, 0, 53, 95
3, 175920, Note_on_c, 0, 69, 95
3, 175920, Note_on_c, 0, 65, 95
3, 175920, Note_on_c, 0, 60, 95
3, 175920, Note_on_c, 0, 53, 95
3, 176160, Note_off_c, 0, 69, 95
3, 176160, Note_off_c, 0, 65, 95
3, 176160, Note_off_c, 0, 60, 95
3, 176160, Note_off_c, 0, 53, 95
3, 176160, Note_on_c, 0, 69, 95
3, 176160, Note_on_c, 0, 65, 95
3, 176160, Note_on_c, 0, 60, 95
3, 176160, Note_on_c, 0, 53, 95
3, 176400, Note_off_c, 0, 69, 95
3, 176400, Note_off_c, 0, 65, 95
3, 176400, Note_off_c, 0, 60, 95
3, 176400, Note_off_c, 0, 53, 95
3, 176400, Note_on_c, 0, 69, 95
3, 176400, Note_on_c, 0, 65, 95
3, 176400, Note_on_c, 0, 60, 95
3, 176400, Note_on_c, 0, 53, 95
3, 176640, Note_off_c, 0, 69, 95
3, 176640, Note_off_c, 0, 65, 95
3, 176640, Note_off_c, 0, 60, 95
3, 176640, Note_off_c, 0, 53, 95
3, 176640, Note_on_c, 0, 62, 95
3, 176640, Note_on_c, 0, 58, 95
3, 176640, Note_on_c, 0, 53, 95
3, 176640, Note_on_c, 0, 46, 95
3, 177120, Note_off_c, 0, 62, 95
3, 177120, Note_off_c, 0, 58, 95
3, 177120, Note_off_c, 0, 53, 95
3, 177120, Note_off_c, 0, 46, 95
3, 177120, Note_on_c, 0, 62, 95
3, 177120, Note_on_c, 0, 58, 95
3, 177120, Note_on_c, 0, 53, 95
3, 177120, Note_on_c, 0, 46, 95
3, 177360, Note_off_c, 0, 62, 95
3, 177360, Note_off_c, 0, 58, 95
3, 177360, Note_off_c, 0, 53, 95
3, 177360, Note_off_c, 0, 46, 95
3, 177360, Note_on_c, 0, 62, 95
3, 177360, Note_on_c, 0, 58, 95
3, 177360, Note_on_c, 0, 53, 95
3, 177360, Note_on_c, 0, 46, 95
3, 177600, Note_off_c, 0, 62, 95
3, 177600, Note_off_c, 0, 58, 95
3, 177600, Note_off_c, 0, 53, 95
3, 177600, Note_off_c, 0, 46, 95
3, 177600, Note_on_c, 1, 62, 95
3, 177600, Note_on_c, 1, 58, 95
3, 177600, Note_on_c, 1, 53, 95
3, 177600, Note_on_c, 1, 46, 95
3, 177720, Pitch_bend_c, 1, 7552
3, 177720, Pitch_bend_c, 1, 7552
3, 177720, Pitch_bend_c, 1, 7552
3, 177720, Pitch_bend_c, 1, 7552
3, 177840, Pitch_bend_c, 1, 6784
3, 177840, Pitch_bend_c, 1, 8192
3, 177840, Note_off_c, 1, 62, 95
3, 177840, Pitch_bend_c, 1, 6784
3, 177840, Pitch_bend_c, 1, 8192
3, 177840, Note_off_c, 1, 58, 95
3, 177840, Pitch_bend_c, 1, 6784
3, 177840, Pitch_bend_c, 1, 8192
3, 177840, Note_off_c, 1, 53, 95
3, 177840, Pitch_bend_c, 1, 6784
3, 177840, Pitch_bend_c, 1, 8192
3, 177840, Note_off_c, 1, 46, 95
3, 177840, Note_on_c, 0, 60, 95
3, 177840, Note_on_c, 0, 56, 95
3, 177840, Note_on_c, 0, 51, 95
3, 177840, Note_on_c, 0, 44, 47
3, 178080, Note_off_c, 0, 60, 95
3, 178080, Note_off_c, 0, 56, 95
3, 178080, Note_off_c, 0, 51, 95
3, 178080, Note_off_c, 0, 44, 47
3, 178080, Note_on_c, 0, 60, 95
3, 178080, Note_on_c, 0, 56, 95
3, 178080, Note_on_c, 0, 51, 95
3, 178080, Note_on_c, 0, 44, 95
3, 178560, Note_off_c, 0, 60, 95
3, 178560, Note_off_c, 0, 56, 95
3, 178560, Note_off_c, 0, 51, 95
3, 178560, Note_off_c, 0, 44, 95
3, 178560, Note_on_c, 0, 67, 95
3, 178560, Note_on_c, 0, 63, 95
3, 178560, Note_on_c, 0, 58, 95
3, 178560, Note_on_c, 0, 53, 95
3, 178560, Note_on_c, 0, 39, 95
3, 178800, Note_off_c, 0, 67, 95
3, 178800, Note_off_c, 0, 63, 95
3, 178800, Note_off_c, 0, 58, 95
3, 178800, Note_off_c, 0, 53, 95
3, 178800, Note_off_c, 0, 39, 95
3, 178800, Note_on_c, 0, 55, 70
3, 178800, Note_on_c, 0, 39, 95
3, 179040, Note_off_c, 0, 55, 70
3, 179040, Note_off_c, 0, 39, 95
3, 179040, Note_on_c, 0, 67, 95
3, 179040, Note_on_c, 0, 63, 95
3, 179040, Note_on_c, 0, 58, 95
3, 179040, Note_on_c, 0, 55, 95
3, 179040, Note_on_c, 0, 39, 95
3, 179280, Note_off_c, 0, 67, 95
3, 179280, Note_off_c, 0, 63, 95
3, 179280, Note_off_c, 0, 58, 95
3, 179280, Note_off_c, 0, 55, 95
3, 179280, Note_off_c, 0, 39, 95
3, 179280, Note_on_c, 0, 67, 95
3, 179280, Note_on_c, 0, 63, 95
3, 179280, Note_on_c, 0, 58, 95
3, 179280, Note_on_c, 0, 55, 95
3, 179280, Note_on_c, 0, 39, 95
3, 179520, Note_off_c, 0, 67, 95
3, 179520, Note_off_c, 0, 63, 95
3, 179520, Note_off_c, 0, 58, 95
3, 179520, Note_off_c, 0, 55, 95
3, 179520, Note_off_c, 0, 39, 95
3, 179520, Note_on_c, 0, 67, 95
3, 179520, Note_on_c, 0, 63, 95
3, 179520, Note_on_c, 0, 58, 95
3, 179520, Note_on_c, 0, 55, 95
3, 179520, Note_on_c, 0, 39, 95
3, 179760, Note_off_c, 0, 67, 95
3, 179760, Note_off_c, 0, 63, 95
3, 179760, Note_off_c, 0, 58, 95
3, 179760, Note_off_c, 0, 55, 95
3, 179760, Note_off_c, 0, 39, 95
3, 179760, Note_on_c, 0, 58, 95
3, 179760, Note_on_c, 0, 54, 95
3, 179760, Note_on_c, 0, 49, 95
3, 179760, Note_on_c, 0, 44, 95
3, 179799, Note_off_c, 0, 58, 95
3, 179799, Note_off_c, 0, 54, 95
3, 179799, Note_off_c, 0, 49, 95
3, 179799, Note_off_c, 0, 44, 95
3, 180000, Note_on_c, 0, 53, 95
3, 180240, Note_off_c, 0, 53, 95
3, 180240, Note_on_c, 0, 55, 70
3, 180480, Note_off_c, 0, 55, 70
3, 180480, Note_on_c, 0, 65, 95
3, 180480, Note_on_c, 0, 60, 95
3, 180480, Note_on_c, 0, 53, 95
3, 180960, Note_off_c, 0, 65, 95
3, 180960, Note_off_c, 0, 60, 95
3, 180960, Note_off_c, 0, 53, 95
3, 180960, Note_on_c, 0, 65, 95
3, 180960, Note_on_c, 0, 60, 95
3, 180960, Note_on_c, 0, 53, 95
3, 181200, Note_off_c, 0, 65, 95
3, 181200, Note_off_c, 0, 60, 95
3, 181200, Note_off_c, 0, 53, 95
3, 181200, Note_on_c, 0, 65, 95
3, 181200, Note_on_c, 0, 60, 95
3, 181200, Note_on_c, 0, 53, 95
3, 181440, Note_off_c, 0, 65, 95
3, 181440, Note_off_c, 0, 60, 95
3, 181440, Note_off_c, 0, 53, 95
3, 181440, Note_on_c, 0, 65, 95
3, 181440, Note_on_c, 0, 60, 95
3, 181440, Note_on_c, 0, 53, 95
3, 181920, Note_off_c, 0, 65, 95
3, 181920, Note_off_c, 0, 60, 95
3, 181920, Note_off_c, 0, 53, 95
3, 181920, Note_on_c, 0, 65, 95
3, 181920, Note_on_c, 0, 60, 95
3, 181920, Note_on_c, 0, 53, 95
3, 181959, Note_off_c, 0, 65, 95
3, 181959, Note_off_c, 0, 60, 95
3, 181959, Note_off_c, 0, 53, 95
3, 182160, Note_on_c, 0, 65, 95
3, 182160, Note_on_c, 0, 60, 95
3, 182160, Note_on_c, 0, 53, 95
3, 182199, Note_off_c, 0, 65, 95
3, 182199, Note_off_c, 0, 60, 95
3, 182199, Note_off_c, 0, 53, 95
3, 182400, Note_on_c, 0, 65, 95
3, 182400, Note_on_c, 0, 60, 95
3, 182400, Note_on_c, 0, 57, 95
3, 182400, Note_on_c, 0, 53, 95
3, 182400, Note_on_c, 0, 48, 95
3, 182400, Note_on_c, 0, 41, 95
3, 182640, Note_off_c, 0, 65, 95
3, 182640, Note_off_c, 0, 60, 95
3, 182640, Note_off_c, 0, 57, 95
3, 182640, Note_off_c, 0, 53, 95
3, 182640, Note_off_c, 0, 48, 95
3, 182640, Note_off_c, 0, 41, 95
3, 182640, Note_on_c, 0, 65, 95
3, 182640, Note_on_c, 0, 60, 95
3, 182640, Note_on_c, 0, 57, 95
3, 182640, Note_on_c, 0, 53, 95
3, 182640, Note_on_c, 0, 48, 95
3, 182640, Note_on_c, 0, 41, 95
3, 182880, Note_off_c, 0, 65, 95
3, 182880, Note_off_c, 0, 60, 95
3, 182880, Note_off_c, 0, 57, 95
3, 182880, Note_off_c, 0, 53, 95
3, 182880, Note_off_c, 0, 48, 95
3, 182880, Note_off_c, 0, 41, 95
3, 182880, Note_on_c, 0, 65, 95
3, 182880, Note_on_c, 0, 60, 95
3, 182880, Note_on_c, 0, 57, 95
3, 182880, Note_on_c, 0, 53, 95
3, 182880, Note_on_c, 0, 48, 95
3, 182880, Note_on_c, 0, 41, 95
3, 183120, Note_off_c, 0, 65, 95
3, 183120, Note_off_c, 0, 60, 95
3, 183120, Note_off_c, 0, 57, 95
3, 183120, Note_off_c, 0, 53, 95
3, 183120, Note_off_c, 0, 48, 95
3, 183120, Note_off_c, 0, 41, 95
3, 183120, Note_on_c, 0, 65, 95
3, 183120, Note_on_c, 0, 60, 95
3, 183120, Note_on_c, 0, 57, 95
3, 183120, Note_on_c, 0, 53, 95
3, 183120, Note_on_c, 0, 48, 95
3, 183120, Note_on_c, 0, 41, 95
3, 183360, Note_off_c, 0, 65, 95
3, 183360, Note_off_c, 0, 60, 95
3, 183360, Note_off_c, 0, 57, 95
3, 183360, Note_off_c, 0, 53, 95
3, 183360, Note_off_c, 0, 48, 95
3, 183360, Note_off_c, 0, 41, 95
3, 183360, Note_on_c, 0, 65, 95
3, 183360, Note_on_c, 0, 60, 95
3, 183360, Note_on_c, 0, 57, 95
3, 183360, Note_on_c, 0, 53, 95
3, 183360, Note_on_c, 0, 48, 95
3, 183360, Note_on_c, 0, 41, 95
3, 183600, Note_off_c, 0, 65, 95
3, 183600, Note_off_c, 0, 60, 95
3, 183600, Note_off_c, 0, 57, 95
3, 183600, Note_off_c, 0, 53, 95
3, 183600, Note_off_c, 0, 48, 95
3, 183600, Note_off_c, 0, 41, 95
3, 183600, Note_on_c, 0, 65, 95
3, 183600, Note_on_c, 0, 60, 95
3, 183600, Note_on_c, 0, 57, 95
3, 183600, Note_on_c, 0, 53, 95
3, 183600, Note_on_c, 0, 48, 95
3, 183600, Note_on_c, 0, 41, 95
3, 183840, Note_off_c, 0, 65, 95
3, 183840, Note_off_c, 0, 60, 95
3, 183840, Note_off_c, 0, 57, 95
3, 183840, Note_off_c, 0, 53, 95
3, 183840, Note_off_c, 0, 48, 95
3, 183840, Note_off_c, 0, 41, 95
3, 183840, Note_on_c, 0, 65, 95
3, 183840, Note_on_c, 0, 60, 95
3, 183840, Note_on_c, 0, 57, 95
3, 183840, Note_on_c, 0, 53, 95
3, 183840, Note_on_c, 0, 48, 95
3, 183840, Note_on_c, 0, 41, 95
3, 184080, Note_off_c, 0, 65, 95
3, 184080, Note_off_c, 0, 60, 95
3, 184080, Note_off_c, 0, 57, 95
3, 184080, Note_off_c, 0, 53, 95
3, 184080, Note_off_c, 0, 48, 95
3, 184080, Note_off_c, 0, 41, 95
3, 184080, Note_on_c, 1, 65, 95
3, 184080, Note_on_c, 1, 60, 95
3, 184080, Note_on_c, 1, 57, 95
3, 184080, Note_on_c, 1, 53, 95
3, 184080, Note_on_c, 0, 48, 95
3, 184080, Note_on_c, 1, 41, 95
3, 184200, Pitch_bend_c, 1, 9856
3, 184200, Pitch_bend_c, 1, 9856
3, 184200, Pitch_bend_c, 1, 9856
3, 184200, Pitch_bend_c, 1, 9856
3, 184200, Pitch_bend_c, 1, 9856
3, 184320, Pitch_bend_c, 1, 11648
3, 184320, Pitch_bend_c, 1, 8192
3, 184320, Note_off_c, 1, 65, 95
3, 184320, Pitch_bend_c, 1, 11648
3, 184320, Pitch_bend_c, 1, 8192
3, 184320, Note_off_c, 1, 60, 95
3, 184320, Pitch_bend_c, 1, 11648
3, 184320, Pitch_bend_c, 1, 8192
3, 184320, Note_off_c, 1, 57, 95
3, 184320, Pitch_bend_c, 1, 11648
3, 184320, Pitch_bend_c, 1, 8192
3, 184320, Note_off_c, 1, 53, 95
3, 184320, Note_off_c, 0, 48, 95
3, 184320, Pitch_bend_c, 1, 11648
3, 184320, Pitch_bend_c, 1, 8192
3, 184320, Note_off_c, 1, 41, 95
3, 184320, Note_on_c, 0, 70, 95
3, 184320, Note_on_c, 0, 65, 95
3, 184320, Note_on_c, 0, 62, 95
3, 184320, Note_on_c, 0, 58, 95
3, 184320, Note_on_c, 0, 46, 95
3, 184560, Note_off_c, 0, 70, 95
3, 184560, Note_off_c, 0, 65, 95
3, 184560, Note_off_c, 0, 62, 95
3, 184560, Note_off_c, 0, 58, 95
3, 184560, Note_off_c, 0, 46, 95
3, 184560, Note_on_c, 0, 70, 95
3, 184560, Note_on_c, 0, 65, 95
3, 184560, Note_on_c, 0, 62, 95
3, 184560, Note_on_c, 0, 58, 95
3, 184560, Note_on_c, 0, 46, 95
3, 184800, Note_off_c, 0, 70, 95
3, 184800, Note_off_c, 0, 65, 95
3, 184800, Note_off_c, 0, 62, 95
3, 184800, Note_off_c, 0, 58, 95
3, 184800, Note_off_c, 0, 46, 95
3, 184800, Note_on_c, 0, 70, 95
3, 184800, Note_on_c, 0, 65, 95
3, 184800, Note_on_c, 0, 62, 95
3, 184800, Note_on_c, 0, 58, 95
3, 184800, Note_on_c, 0, 46, 95
3, 185040, Note_off_c, 0, 70, 95
3, 185040, Note_off_c, 0, 65, 95
3, 185040, Note_off_c, 0, 62, 95
3, 185040, Note_off_c, 0, 58, 95
3, 185040, Note_off_c, 0, 46, 95
3, 185040, Note_on_c, 0, 70, 95
3, 185040, Note_on_c, 0, 65, 95
3, 185040, Note_on_c, 0, 62, 95
3, 185040, Note_on_c, 0, 58, 95
3, 185040, Note_on_c, 0, 46, 95
3, 185280, Note_off_c, 0, 70, 95
3, 185280, Note_off_c, 0, 65, 95
3, 185280, Note_off_c, 0, 62, 95
3, 185280, Note_off_c, 0, 58, 95
3, 185280, Note_off_c, 0, 46, 95
3, 185280, Note_on_c, 0, 70, 95
3, 185280, Note_on_c, 0, 65, 95
3, 185280, Note_on_c, 0, 62, 95
3, 185280, Note_on_c, 0, 58, 95
3, 185280, Note_on_c, 0, 46, 95
3, 185520, Note_off_c, 0, 70, 95
3, 185520, Note_off_c, 0, 65, 95
3, 185520, Note_off_c, 0, 62, 95
3, 185520, Note_off_c, 0, 58, 95
3, 185520, Note_off_c, 0, 46, 95
3, 185520, Note_on_c, 0, 70, 95
3, 185520, Note_on_c, 0, 65, 95
3, 185520, Note_on_c, 0, 62, 95
3, 185520, Note_on_c, 0, 58, 95
3, 185520, Note_on_c, 0, 46, 95
3, 185760, Note_off_c, 0, 70, 95
3, 185760, Note_off_c, 0, 65, 95
3, 185760, Note_off_c, 0, 62, 95
3, 185760, Note_off_c, 0, 58, 95
3, 185760, Note_off_c, 0, 46, 95
3, 185760, Note_on_c, 0, 70, 95
3, 185760, Note_on_c, 0, 65, 95
3, 185760, Note_on_c, 0, 62, 95
3, 185760, Note_on_c, 0, 58, 95
3, 185760, Note_on_c, 0, 46, 95
3, 186000, Note_off_c, 0, 70, 95
3, 186000, Note_off_c, 0, 65, 95
3, 186000, Note_off_c, 0, 62, 95
3, 186000, Note_off_c, 0, 58, 95
3, 186000, Note_off_c, 0, 46, 95
3, 186000, Note_on_c, 0, 70, 95
3, 186000, Note_on_c, 0, 65, 95
3, 186000, Note_on_c, 0, 62, 95
3, 186000, Note_on_c, 0, 58, 95
3, 186000, Note_on_c, 0, 46, 95
3, 186240, Note_off_c, 0, 70, 95
3, 186240, Note_off_c, 0, 65, 95
3, 186240, Note_off_c, 0, 62, 95
3, 186240, Note_off_c, 0, 58, 95
3, 186240, Note_off_c, 0, 46, 95
3, 186240, Note_on_c, 0, 70, 95
3, 186240, Note_on_c, 0, 65, 95
3, 186240, Note_on_c, 0, 62, 95
3, 186240, Note_on_c, 0, 58, 95
3, 186480, Note_off_c, 0, 70, 95
3, 186480, Note_off_c, 0, 65, 95
3, 186480, Note_off_c, 0, 62, 95
3, 186480, Note_off_c, 0, 58, 95
3, 186480, Note_on_c, 0, 70, 95
3, 186480, Note_on_c, 0, 65, 95
3, 186480, Note_on_c, 0, 63, 70
3, 186480, Note_on_c, 0, 58, 95
3, 186720, Note_off_c, 0, 70, 95
3, 186720, Note_off_c, 0, 65, 95
3, 186720, Note_off_c, 0, 63, 70
3, 186720, Note_off_c, 0, 58, 95
3, 186720, Note_on_c, 0, 70, 95
3, 186720, Note_on_c, 0, 65, 95
3, 186720, Note_on_c, 0, 63, 95
3, 186720, Note_on_c, 0, 58, 95
3, 186960, Note_off_c, 0, 70, 95
3, 186960, Note_off_c, 0, 65, 95
3, 186960, Note_off_c, 0, 63, 95
3, 186960, Note_off_c, 0, 58, 95
3, 186960, Note_on_c, 0, 70, 95
3, 186960, Note_on_c, 0, 65, 95
3, 186960, Note_on_c, 0, 63, 95
3, 186960, Note_on_c, 0, 58, 95
3, 187200, Note_off_c, 0, 70, 95
3, 187200, Note_off_c, 0, 65, 95
3, 187200, Note_off_c, 0, 63, 95
3, 187200, Note_off_c, 0, 58, 95
3, 187200, Note_on_c, 0, 70, 95
3, 187200, Note_on_c, 0, 65, 95
3, 187200, Note_on_c, 0, 63, 95
3, 187200, Note_on_c, 0, 58, 95
3, 187440, Note_off_c, 0, 70, 95
3, 187440, Note_off_c, 0, 65, 95
3, 187440, Note_off_c, 0, 63, 95
3, 187440, Note_off_c, 0, 58, 95
3, 187440, Note_on_c, 0, 70, 95
3, 187440, Note_on_c, 0, 65, 95
3, 187440, Note_on_c, 0, 63, 95
3, 187440, Note_on_c, 0, 58, 95
3, 187680, Note_off_c, 0, 70, 95
3, 187680, Note_off_c, 0, 65, 95
3, 187680, Note_off_c, 0, 63, 95
3, 187680, Note_off_c, 0, 58, 95
3, 187680, Note_on_c, 0, 70, 95
3, 187680, Note_on_c, 0, 65, 95
3, 187680, Note_on_c, 0, 63, 95
3, 187680, Note_on_c, 0, 58, 95
3, 187920, Note_off_c, 0, 70, 95
3, 187920, Note_off_c, 0, 65, 95
3, 187920, Note_off_c, 0, 63, 95
3, 187920, Note_off_c, 0, 58, 95
3, 187920, Note_on_c, 0, 70, 95
3, 187920, Note_on_c, 0, 65, 95
3, 187920, Note_on_c, 0, 63, 95
3, 187920, Note_on_c, 0, 58, 95
3, 188160, Note_off_c, 0, 70, 95
3, 188160, Note_off_c, 0, 65, 95
3, 188160, Note_off_c, 0, 63, 95
3, 188160, Note_off_c, 0, 58, 95
3, 188160, Note_on_c, 1, 70, 95
3, 188160, Note_on_c, 1, 65, 95
3, 188160, Note_on_c, 1, 63, 95
3, 188160, Note_on_c, 1, 58, 95
3, 188280, Pitch_bend_c, 1, 8832
3, 188280, Pitch_bend_c, 1, 8832
3, 188280, Pitch_bend_c, 1, 8832
3, 188280, Pitch_bend_c, 1, 8832
3, 188400, Pitch_bend_c, 1, 9600
3, 188400, Pitch_bend_c, 1, 8192
3, 188400, Note_off_c, 1, 70, 95
3, 188400, Pitch_bend_c, 1, 9600
3, 188400, Pitch_bend_c, 1, 8192
3, 188400, Note_off_c, 1, 65, 95
3, 188400, Pitch_bend_c, 1, 9600
3, 188400, Pitch_bend_c, 1, 8192
3, 188400, Note_off_c, 1, 63, 95
3, 188400, Pitch_bend_c, 1, 9600
3, 188400, Pitch_bend_c, 1, 8192
3, 188400, Note_off_c, 1, 58, 95
3, 188400, Note_on_c, 0, 72, 95
3, 188400, Note_on_c, 0, 67, 95
3, 188400, Note_on_c, 0, 65, 95
3, 188400, Note_on_c, 0, 60, 95
3, 188640, Note_off_c, 0, 72, 95
3, 188640, Note_off_c, 0, 67, 95
3, 188640, Note_off_c, 0, 65, 95
3, 188640, Note_off_c, 0, 60, 95
3, 188640, Note_on_c, 0, 72, 95
3, 188640, Note_on_c, 0, 67, 95
3, 188640, Note_on_c, 0, 65, 95
3, 188640, Note_on_c, 0, 60, 95
3, 188880, Note_off_c, 0, 72, 95
3, 188880, Note_off_c, 0, 67, 95
3, 188880, Note_off_c, 0, 65, 95
3, 188880, Note_off_c, 0, 60, 95
3, 188880, Note_on_c, 0, 72, 95
3, 188880, Note_on_c, 0, 67, 95
3, 188880, Note_on_c, 0, 65, 95
3, 188880, Note_on_c, 0, 60, 95
3, 189120, Note_off_c, 0, 72, 95
3, 189120, Note_off_c, 0, 67, 95
3, 189120, Note_off_c, 0, 65, 95
3, 189120, Note_off_c, 0, 60, 95
3, 189120, Note_on_c, 0, 72, 95
3, 189120, Note_on_c, 0, 67, 95
3, 189120, Note_on_c, 0, 65, 95
3, 189120, Note_on_c, 0, 60, 95
3, 189600, Note_off_c, 0, 72, 95
3, 189600, Note_off_c, 0, 67, 95
3, 189600, Note_off_c, 0, 65, 95
3, 189600, Note_off_c, 0, 60, 95
3, 189600, Note_on_c, 0, 72, 95
3, 189600, Note_on_c, 0, 67, 95
3, 189600, Note_on_c, 0, 65, 95
3, 189600, Note_on_c, 0, 60, 95
3, 190080, Note_off_c, 0, 72, 95
3, 190080, Note_off_c, 0, 67, 95
3, 190080, Note_off_c, 0, 65, 95
3, 190080, Note_off_c, 0, 60, 95
3, 190080, Note_on_c, 0, 72, 95
3, 190080, Note_on_c, 0, 67, 95
3, 190320, Note_off_c, 0, 72, 95
3, 190320, Note_off_c, 0, 67, 95
3, 190320, Note_on_c, 0, 69, 70
3, 190560, Note_off_c, 0, 69, 70
3, 190560, Note_on_c, 0, 72, 95
3, 190560, Note_on_c, 0, 67, 95
3, 190800, Note_off_c, 0, 72, 95
3, 190800, Note_off_c, 0, 67, 95
3, 190800, Note_on_c, 0, 69, 70
3, 191040, Note_off_c, 0, 69, 70
3, 191040, Note_on_c, 0, 72, 95
3, 191040, Note_on_c, 0, 67, 95
3, 191280, Note_off_c, 0, 72, 95
3, 191280, Note_off_c, 0, 67, 95
3, 191280, Note_on_c, 0, 65, 95
3, 191520, Note_off_c, 0, 65, 95
3, 191520, Note_on_c, 0, 63, 95
3, 191520, Note_on_c, 0, 58, 95
3, 191559, Note_off_c, 0, 63, 95
3, 191559, Note_off_c, 0, 58, 95
3, 191760, Note_on_c, 0, 63, 95
3, 191760, Note_on_c, 0, 58, 95
3, 191799, Note_off_c, 0, 63, 95
3, 191799, Note_off_c, 0, 58, 95
3, 192000, Note_on_c, 0, 62, 95
3, 192000, Note_on_c, 0, 58, 95
3, 192000, Note_on_c, 0, 53, 95
3, 192000, Note_on_c, 0, 46, 95
3, 192480, Note_off_c, 0, 62, 95
3, 192480, Note_off_c, 0, 58, 95
3, 192480, Note_off_c, 0, 53, 95
3, 192480, Note_off_c, 0, 46, 95
3, 192480, Note_on_c, 0, 62, 95
3, 192480, Note_on_c, 0, 58, 95
3, 192480, Note_on_c, 0, 53, 95
3, 192480, Note_on_c, 0, 46, 95
3, 192720, Note_off_c, 0, 62, 95
3, 192720, Note_off_c, 0, 58, 95
3, 192720, Note_off_c, 0, 53, 95
3, 192720, Note_off_c, 0, 46, 95
3, 192720, Note_on_c, 0, 62, 95
3, 192720, Note_on_c, 0, 58, 95
3, 192720, Note_on_c, 0, 53, 95
3, 192720, Note_on_c, 0, 46, 95
3, 192960, Note_off_c, 0, 62, 95
3, 192960, Note_off_c, 0, 58, 95
3, 192960, Note_off_c, 0, 53, 95
3, 192960, Note_off_c, 0, 46, 95
3, 192960, Note_on_c, 1, 62, 95
3, 192960, Note_on_c, 1, 58, 95
3, 192960, Note_on_c, 1, 53, 95
3, 192960, Note_on_c, 1, 46, 95
3, 193080, Pitch_bend_c, 1, 7552
3, 193080, Pitch_bend_c, 1, 7552
3, 193080, Pitch_bend_c, 1, 7552
3, 193080, Pitch_bend_c, 1, 7552
3, 193200, Pitch_bend_c, 1, 6784
3, 193200, Pitch_bend_c, 1, 8192
3, 193200, Note_off_c, 1, 62, 95
3, 193200, Pitch_bend_c, 1, 6784
3, 193200, Pitch_bend_c, 1, 8192
3, 193200, Note_off_c, 1, 58, 95
3, 193200, Pitch_bend_c, 1, 6784
3, 193200, Pitch_bend_c, 1, 8192
3, 193200, Note_off_c, 1, 53, 95
3, 193200, Pitch_bend_c, 1, 6784
3, 193200, Pitch_bend_c, 1, 8192
3, 193200, Note_off_c, 1, 46, 95
3, 193200, Note_on_c, 0, 60, 95
3, 193200, Note_on_c, 0, 56, 95
3, 193200, Note_on_c, 0, 51, 95
3, 193200, Note_on_c, 0, 44, 47
3, 193440, Note_off_c, 0, 60, 95
3, 193440, Note_off_c, 0, 56, 95
3, 193440, Note_off_c, 0, 51, 95
3, 193440, Note_off_c, 0, 44, 47
3, 193440, Note_on_c, 0, 60, 95
3, 193440, Note_on_c, 0, 56, 95
3, 193440, Note_on_c, 0, 51, 95
3, 193440, Note_on_c, 0, 44, 95
3, 193920, Note_off_c, 0, 60, 95
3, 193920, Note_off_c, 0, 56, 95
3, 193920, Note_off_c, 0, 51, 95
3, 193920, Note_off_c, 0, 44, 95
3, 193920, Note_on_c, 0, 67, 95
3, 193920, Note_on_c, 0, 63, 95
3, 193920, Note_on_c, 0, 58, 95
3, 193920, Note_on_c, 0, 53, 95
3, 193920, Note_on_c, 0, 39, 95
3, 194160, Note_off_c, 0, 67, 95
3, 194160, Note_off_c, 0, 63, 95
3, 194160, Note_off_c, 0, 58, 95
3, 194160, Note_off_c, 0, 53, 95
3, 194160, Note_off_c, 0, 39, 95
3, 194160, Note_on_c, 0, 55, 70
3, 194400, Note_off_c, 0, 55, 70
3, 194400, Note_on_c, 0, 67, 95
3, 194400, Note_on_c, 0, 63, 95
3, 194400, Note_on_c, 0, 58, 95
3, 194400, Note_on_c, 0, 55, 95
3, 194400, Note_on_c, 0, 39, 95
3, 194640, Note_off_c, 0, 67, 95
3, 194640, Note_off_c, 0, 63, 95
3, 194640, Note_off_c, 0, 58, 95
3, 194640, Note_off_c, 0, 55, 95
3, 194640, Note_off_c, 0, 39, 95
3, 194640, Note_on_c, 0, 67, 95
3, 194640, Note_on_c, 0, 63, 95
3, 194640, Note_on_c, 0, 58, 95
3, 194640, Note_on_c, 0, 55, 95
3, 194640, Note_on_c, 0, 39, 95
3, 194880, Note_off_c, 0, 67, 95
3, 194880, Note_off_c, 0, 63, 95
3, 194880, Note_off_c, 0, 58, 95
3, 194880, Note_off_c, 0, 55, 95
3, 194880, Note_off_c, 0, 39, 95
3, 194880, Note_on_c, 0, 67, 95
3, 194880, Note_on_c, 0, 63, 95
3, 194880, Note_on_c, 0, 58, 95
3, 194880, Note_on_c, 0, 55, 95
3, 194880, Note_on_c, 0, 39, 95
3, 195120, Note_off_c, 0, 67, 95
3, 195120, Note_off_c, 0, 63, 95
3, 195120, Note_off_c, 0, 58, 95
3, 195120, Note_off_c, 0, 55, 95
3, 195120, Note_off_c, 0, 39, 95
3, 195120, Note_on_c, 0, 67, 95
3, 195120, Note_on_c, 0, 63, 95
3, 195120, Note_on_c, 0, 58, 95
3, 195120, Note_on_c, 0, 55, 95
3, 195120, Note_on_c, 0, 39, 95
3, 195360, Note_off_c, 0, 67, 95
3, 195360, Note_off_c, 0, 63, 95
3, 195360, Note_off_c, 0, 58, 95
3, 195360, Note_off_c, 0, 55, 95
3, 195360, Note_off_c, 0, 39, 95
3, 195360, Note_on_c, 0, 67, 95
3, 195360, Note_on_c, 0, 63, 95
3, 195360, Note_on_c, 0, 58, 95
3, 195360, Note_on_c, 0, 55, 95
3, 195360, Note_on_c, 0, 39, 95
3, 195600, Note_off_c, 0, 67, 95
3, 195600, Note_off_c, 0, 63, 95
3, 195600, Note_off_c, 0, 58, 95
3, 195600, Note_off_c, 0, 55, 95
3, 195600, Note_off_c, 0, 39, 95
3, 195600, Note_on_c, 0, 67, 95
3, 195600, Note_on_c, 0, 63, 95
3, 195600, Note_on_c, 0, 58, 95
3, 195600, Note_on_c, 0, 55, 95
3, 195600, Note_on_c, 0, 39, 95
3, 195840, Note_off_c, 0, 67, 95
3, 195840, Note_off_c, 0, 63, 95
3, 195840, Note_off_c, 0, 58, 95
3, 195840, Note_off_c, 0, 55, 95
3, 195840, Note_off_c, 0, 39, 95
3, 195840, Note_on_c, 0, 65, 95
3, 195840, Note_on_c, 0, 60, 95
3, 195840, Note_on_c, 0, 57, 95
3, 195840, Note_on_c, 0, 53, 95
3, 195840, Note_on_c, 0, 48, 95
3, 195840, Note_on_c, 0, 41, 95
3, 196320, Note_off_c, 0, 65, 95
3, 196320, Note_off_c, 0, 60, 95
3, 196320, Note_off_c, 0, 57, 95
3, 196320, Note_off_c, 0, 53, 95
3, 196320, Note_off_c, 0, 48, 95
3, 196320, Note_off_c, 0, 41, 95
3, 196320, Note_on_c, 0, 65, 95
3, 196320, Note_on_c, 0, 60, 95
3, 196320, Note_on_c, 0, 57, 95
3, 196320, Note_on_c, 0, 53, 95
3, 196320, Note_on_c, 0, 48, 95
3, 196320, Note_on_c, 0, 41, 95
3, 196560, Note_off_c, 0, 65, 95
3, 196560, Note_off_c, 0, 60, 95
3, 196560, Note_off_c, 0, 57, 95
3, 196560, Note_off_c, 0, 53, 95
3, 196560, Note_off_c, 0, 48, 95
3, 196560, Note_off_c, 0, 41, 95
3, 196560, Note_on_c, 0, 65, 95
3, 196560, Note_on_c, 0, 60, 95
3, 196560, Note_on_c, 0, 57, 95
3, 196560, Note_on_c, 0, 53, 95
3, 196560, Note_on_c, 0, 48, 95
3, 196560, Note_on_c, 0, 41, 95
3, 196800, Note_off_c, 0, 65, 95
3, 196800, Note_off_c, 0, 60, 95
3, 196800, Note_off_c, 0, 57, 95
3, 196800, Note_off_c, 0, 53, 95
3, 196800, Note_off_c, 0, 48, 95
3, 196800, Note_off_c, 0, 41, 95
3, 196800, Note_on_c, 0, 65, 95
3, 196800, Note_on_c, 0, 60, 95
3, 196800, Note_on_c, 0, 57, 95
3, 196800, Note_on_c, 0, 53, 95
3, 196800, Note_on_c, 0, 48, 95
3, 196800, Note_on_c, 0, 41, 95
3, 197040, Note_off_c, 0, 65, 95
3, 197040, Note_off_c, 0, 60, 95
3, 197040, Note_off_c, 0, 57, 95
3, 197040, Note_off_c, 0, 53, 95
3, 197040, Note_off_c, 0, 48, 95
3, 197040, Note_off_c, 0, 41, 95
3, 197040, Note_on_c, 0, 65, 95
3, 197040, Note_on_c, 0, 60, 95
3, 197040, Note_on_c, 0, 57, 95
3, 197040, Note_on_c, 0, 53, 95
3, 197040, Note_on_c, 0, 48, 95
3, 197040, Note_on_c, 0, 41, 95
3, 197280, Note_off_c, 0, 65, 95
3, 197280, Note_off_c, 0, 60, 95
3, 197280, Note_off_c, 0, 57, 95
3, 197280, Note_off_c, 0, 53, 95
3, 197280, Note_off_c, 0, 48, 95
3, 197280, Note_off_c, 0, 41, 95
3, 197280, Note_on_c, 0, 65, 95
3, 197280, Note_on_c, 0, 60, 95
3, 197280, Note_on_c, 0, 57, 95
3, 197280, Note_on_c, 0, 53, 95
3, 197280, Note_on_c, 0, 48, 95
3, 197280, Note_on_c, 0, 41, 95
3, 197520, Note_off_c, 0, 65, 95
3, 197520, Note_off_c, 0, 60, 95
3, 197520, Note_off_c, 0, 57, 95
3, 197520, Note_off_c, 0, 53, 95
3, 197520, Note_off_c, 0, 48, 95
3, 197520, Note_off_c, 0, 41, 95
3, 197520, Note_on_c, 0, 65, 95
3, 197520, Note_on_c, 0, 60, 95
3, 197520, Note_on_c, 0, 57, 95
3, 197520, Note_on_c, 0, 53, 95
3, 197520, Note_on_c, 0, 48, 95
3, 197520, Note_on_c, 0, 41, 95
3, 197760, Note_off_c, 0, 65, 95
3, 197760, Note_off_c, 0, 60, 95
3, 197760, Note_off_c, 0, 57, 95
3, 197760, Note_off_c, 0, 53, 95
3, 197760, Note_off_c, 0, 48, 95
3, 197760, Note_off_c, 0, 41, 95
3, 197760, Note_on_c, 0, 65, 95
3, 197760, Note_on_c, 0, 60, 95
3, 197760, Note_on_c, 0, 57, 95
3, 197760, Note_on_c, 0, 53, 95
3, 197760, Note_on_c, 0, 48, 95
3, 197760, Note_on_c, 0, 41, 95
3, 198000, Note_off_c, 0, 65, 95
3, 198000, Note_off_c, 0, 60, 95
3, 198000, Note_off_c, 0, 57, 95
3, 198000, Note_off_c, 0, 53, 95
3, 198000, Note_off_c, 0, 48, 95
3, 198000, Note_off_c, 0, 41, 95
3, 198000, Note_on_c, 0, 65, 95
3, 198000, Note_on_c, 0, 60, 95
3, 198000, Note_on_c, 0, 57, 95
3, 198000, Note_on_c, 0, 53, 95
3, 198000, Note_on_c, 0, 48, 95
3, 198000, Note_on_c, 0, 41, 95
3, 198240, Note_off_c, 0, 65, 95
3, 198240, Note_off_c, 0, 60, 95
3, 198240, Note_off_c, 0, 57, 95
3, 198240, Note_off_c, 0, 53, 95
3, 198240, Note_off_c, 0, 48, 95
3, 198240, Note_off_c, 0, 41, 95
3, 198240, Note_on_c, 0, 65, 95
3, 198240, Note_on_c, 0, 60, 95
3, 198240, Note_on_c, 0, 57, 95
3, 198240, Note_on_c, 0, 53, 95
3, 198240, Note_on_c, 0, 48, 95
3, 198240, Note_on_c, 0, 41, 95
3, 198480, Note_off_c, 0, 65, 95
3, 198480, Note_off_c, 0, 60, 95
3, 198480, Note_off_c, 0, 57, 95
3, 198480, Note_off_c, 0, 53, 95
3, 198480, Note_off_c, 0, 48, 95
3, 198480, Note_off_c, 0, 41, 95
3, 198480, Note_on_c, 0, 65, 95
3, 198480, Note_on_c, 0, 60, 95
3, 198480, Note_on_c, 0, 57, 95
3, 198480, Note_on_c, 0, 53, 95
3, 198480, Note_on_c, 0, 48, 95
3, 198480, Note_on_c, 0, 41, 95
3, 198720, Note_off_c, 0, 65, 95
3, 198720, Note_off_c, 0, 60, 95
3, 198720, Note_off_c, 0, 57, 95
3, 198720, Note_off_c, 0, 53, 95
3, 198720, Note_off_c, 0, 48, 95
3, 198720, Note_off_c, 0, 41, 95
3, 198720, Note_on_c, 0, 65, 95
3, 198720, Note_on_c, 0, 60, 95
3, 198720, Note_on_c, 0, 57, 95
3, 198720, Note_on_c, 0, 53, 95
3, 198720, Note_on_c, 0, 48, 95
3, 198720, Note_on_c, 0, 41, 95
3, 198960, Note_off_c, 0, 65, 95
3, 198960, Note_off_c, 0, 60, 95
3, 198960, Note_off_c, 0, 57, 95
3, 198960, Note_off_c, 0, 53, 95
3, 198960, Note_off_c, 0, 48, 95
3, 198960, Note_off_c, 0, 41, 95
3, 198960, Note_on_c, 0, 65, 95
3, 198960, Note_on_c, 0, 60, 95
3, 198960, Note_on_c, 0, 57, 95
3, 198960, Note_on_c, 0, 53, 95
3, 198960, Note_on_c, 0, 48, 95
3, 198960, Note_on_c, 0, 41, 95
3, 199200, Note_off_c, 0, 65, 95
3, 199200, Note_off_c, 0, 60, 95
3, 199200, Note_off_c, 0, 57, 95
3, 199200, Note_off_c, 0, 53, 95
3, 199200, Note_off_c, 0, 48, 95
3, 199200, Note_off_c, 0, 41, 95
3, 199200, Note_on_c, 0, 65, 95
3, 199200, Note_on_c, 0, 60, 95
3, 199200, Note_on_c, 0, 57, 95
3, 199200, Note_on_c, 0, 53, 95
3, 199200, Note_on_c, 0, 48, 95
3, 199200, Note_on_c, 0, 41, 95
3, 199440, Note_off_c, 0, 65, 95
3, 199440, Note_off_c, 0, 60, 95
3, 199440, Note_off_c, 0, 57, 95
3, 199440, Note_off_c, 0, 53, 95
3, 199440, Note_off_c, 0, 48, 95
3, 199440, Note_off_c, 0, 41, 95
3, 199440, Note_on_c, 0, 65, 95
3, 199440, Note_on_c, 0, 60, 95
3, 199440, Note_on_c, 0, 57, 95
3, 199440, Note_on_c, 0, 53, 95
3, 199440, Note_on_c, 0, 48, 95
3, 199440, Note_on_c, 0, 41, 95
3, 199680, Note_off_c, 0, 65, 95
3, 199680, Note_off_c, 0, 60, 95
3, 199680, Note_off_c, 0, 57, 95
3, 199680, Note_off_c, 0, 53, 95
3, 199680, Note_off_c, 0, 48, 95
3, 199680, Note_off_c, 0, 41, 95
3, 199680, Note_on_c, 0, 62, 95
3, 199680, Note_on_c, 0, 58, 95
3, 199680, Note_on_c, 0, 53, 95
3, 199680, Note_on_c, 0, 46, 95
3, 200160, Note_off_c, 0, 62, 95
3, 200160, Note_off_c, 0, 58, 95
3, 200160, Note_off_c, 0, 53, 95
3, 200160, Note_off_c, 0, 46, 95
3, 200160, Note_on_c, 0, 62, 95
3, 200160, Note_on_c, 0, 58, 95
3, 200160, Note_on_c, 0, 53, 95
3, 200160, Note_on_c, 0, 46, 95
3, 200400, Note_off_c, 0, 62, 95
3, 200400, Note_off_c, 0, 58, 95
3, 200400, Note_off_c, 0, 53, 95
3, 200400, Note_off_c, 0, 46, 95
3, 200400, Note_on_c, 0, 62, 95
3, 200400, Note_on_c, 0, 58, 95
3, 200400, Note_on_c, 0, 53, 95
3, 200400, Note_on_c, 0, 46, 95
3, 200640, Note_off_c, 0, 62, 95
3, 200640, Note_off_c, 0, 58, 95
3, 200640, Note_off_c, 0, 53, 95
3, 200640, Note_off_c, 0, 46, 95
3, 200640, Note_on_c, 0, 62, 95
3, 200640, Note_on_c, 0, 58, 95
3, 200640, Note_on_c, 0, 53, 95
3, 200640, Note_on_c, 0, 46, 95
3, 200880, Note_off_c, 0, 62, 95
3, 200880, Note_off_c, 0, 58, 95
3, 200880, Note_off_c, 0, 53, 95
3, 200880, Note_off_c, 0, 46, 95
3, 200880, Note_on_c, 0, 60, 95
3, 200880, Note_on_c, 0, 56, 95
3, 200880, Note_on_c, 0, 51, 95
3, 200880, Note_on_c, 0, 44, 95
3, 201120, Note_off_c, 0, 60, 95
3, 201120, Note_off_c, 0, 56, 95
3, 201120, Note_off_c, 0, 51, 95
3, 201120, Note_off_c, 0, 44, 95
3, 201120, Note_on_c, 0, 60, 95
3, 201120, Note_on_c, 0, 56, 95
3, 201120, Note_on_c, 0, 51, 95
3, 201120, Note_on_c, 0, 44, 95
3, 201600, Note_off_c, 0, 60, 95
3, 201600, Note_off_c, 0, 56, 95
3, 201600, Note_off_c, 0, 51, 95
3, 201600, Note_off_c, 0, 44, 95
3, 201600, Note_on_c, 0, 63, 95
3, 201600, Note_on_c, 0, 58, 95
3, 201600, Note_on_c, 0, 55, 95
3, 201600, Note_on_c, 0, 51, 95
3, 201600, Note_on_c, 0, 46, 95
3, 201600, Note_on_c, 0, 39, 95
3, 202080, Note_off_c, 0, 63, 95
3, 202080, Note_off_c, 0, 58, 95
3, 202080, Note_off_c, 0, 55, 95
3, 202080, Note_off_c, 0, 51, 95
3, 202080, Note_off_c, 0, 46, 95
3, 202080, Note_off_c, 0, 39, 95
3, 202080, Note_on_c, 0, 63, 95
3, 202080, Note_on_c, 0, 58, 95
3, 202080, Note_on_c, 0, 55, 95
3, 202080, Note_on_c, 0, 51, 95
3, 202080, Note_on_c, 0, 46, 95
3, 202080, Note_on_c, 0, 39, 95
3, 202320, Note_off_c, 0, 63, 95
3, 202320, Note_off_c, 0, 58, 95
3, 202320, Note_off_c, 0, 55, 95
3, 202320, Note_off_c, 0, 51, 95
3, 202320, Note_off_c, 0, 46, 95
3, 202320, Note_off_c, 0, 39, 95
3, 202320, Note_on_c, 0, 63, 95
3, 202320, Note_on_c, 0, 58, 95
3, 202320, Note_on_c, 0, 55, 95
3, 202320, Note_on_c, 0, 51, 95
3, 202320, Note_on_c, 0, 46, 95
3, 202320, Note_on_c, 0, 39, 95
3, 202560, Note_off_c, 0, 63, 95
3, 202560, Note_off_c, 0, 58, 95
3, 202560, Note_off_c, 0, 55, 95
3, 202560, Note_off_c, 0, 51, 95
3, 202560, Note_off_c, 0, 46, 95
3, 202560, Note_off_c, 0, 39, 95
3, 202560, Note_on_c, 0, 63, 95
3, 202560, Note_on_c, 0, 58, 95
3, 202560, Note_on_c, 0, 55, 95
3, 202560, Note_on_c, 0, 51, 95
3, 202560, Note_on_c, 0, 46, 95
3, 202560, Note_on_c, 0, 39, 95
3, 202800, Note_off_c, 0, 63, 95
3, 202800, Note_off_c, 0, 58, 95
3, 202800, Note_off_c, 0, 55, 95
3, 202800, Note_off_c, 0, 51, 95
3, 202800, Note_off_c, 0, 46, 95
3, 202800, Note_off_c, 0, 39, 95
3, 202800, Note_on_c, 0, 63, 95
3, 202800, Note_on_c, 0, 58, 95
3, 202800, Note_on_c, 0, 55, 95
3, 202800, Note_on_c, 0, 51, 95
3, 202800, Note_on_c, 0, 46, 95
3, 202800, Note_on_c, 0, 39, 95
3, 203040, Note_off_c, 0, 63, 95
3, 203040, Note_off_c, 0, 58, 95
3, 203040, Note_off_c, 0, 55, 95
3, 203040, Note_off_c, 0, 51, 95
3, 203040, Note_off_c, 0, 46, 95
3, 203040, Note_off_c, 0, 39, 95
3, 203040, Note_on_c, 0, 63, 95
3, 203040, Note_on_c, 0, 58, 95
3, 203040, Note_on_c, 0, 55, 95
3, 203040, Note_on_c, 0, 51, 95
3, 203040, Note_on_c, 0, 46, 95
3, 203040, Note_on_c, 0, 39, 95
3, 203280, Note_off_c, 0, 63, 95
3, 203280, Note_off_c, 0, 58, 95
3, 203280, Note_off_c, 0, 55, 95
3, 203280, Note_off_c, 0, 51, 95
3, 203280, Note_off_c, 0, 46, 95
3, 203280, Note_off_c, 0, 39, 95
3, 203280, Note_on_c, 0, 63, 95
3, 203280, Note_on_c, 0, 58, 95
3, 203280, Note_on_c, 0, 55, 95
3, 203280, Note_on_c, 0, 51, 95
3, 203280, Note_on_c, 0, 46, 95
3, 203280, Note_on_c, 0, 39, 95
3, 203520, Note_off_c, 0, 63, 95
3, 203520, Note_off_c, 0, 58, 95
3, 203520, Note_off_c, 0, 55, 95
3, 203520, Note_off_c, 0, 51, 95
3, 203520, Note_off_c, 0, 46, 95
3, 203520, Note_off_c, 0, 39, 95
3, 203520, Note_on_c, 0, 65, 95
3, 203520, Note_on_c, 0, 60, 95
3, 203520, Note_on_c, 0, 57, 95
3, 203520, Note_on_c, 0, 53, 95
3, 203520, Note_on_c, 0, 48, 95
3, 203520, Note_on_c, 0, 41, 95
3, 203760, Note_off_c, 0, 65, 95
3, 203760, Note_off_c, 0, 60, 95
3, 203760, Note_off_c, 0, 57, 95
3, 203760, Note_off_c, 0, 53, 95
3, 203760, Note_off_c, 0, 48, 95
3, 203760, Note_off_c, 0, 41, 95
3, 203760, Note_on_c, 0, 65, 95
3, 203760, Note_on_c, 0, 60, 95
3, 203760, Note_on_c, 0, 57, 95
3, 203760, Note_on_c, 0, 53, 95
3, 203760, Note_on_c, 0, 48, 95
3, 203760, Note_on_c, 0, 41, 95
3, 204000, Note_off_c, 0, 65, 95
3, 204000, Note_off_c, 0, 60, 95
3, 204000, Note_off_c, 0, 57, 95
3, 204000, Note_off_c, 0, 53, 95
3, 204000, Note_off_c, 0, 48, 95
3, 204000, Note_off_c, 0, 41, 95
3, 204000, Note_on_c, 0, 65, 95
3, 204000, Note_on_c, 0, 60, 95
3, 204000, Note_on_c, 0, 57, 95
3, 204000, Note_on_c, 0, 53, 95
3, 204000, Note_on_c, 0, 48, 95
3, 204000, Note_on_c, 0, 41, 95
3, 204240, Note_off_c, 0, 65, 95
3, 204240, Note_off_c, 0, 60, 95
3, 204240, Note_off_c, 0, 57, 95
3, 204240, Note_off_c, 0, 53, 95
3, 204240, Note_off_c, 0, 48, 95
3, 204240, Note_off_c, 0, 41, 95
3, 204240, Note_on_c, 0, 65, 95
3, 204240, Note_on_c, 0, 60, 95
3, 204240, Note_on_c, 0, 57, 95
3, 204240, Note_on_c, 0, 53, 95
3, 204240, Note_on_c, 0, 48, 95
3, 204240, Note_on_c, 0, 41, 95
3, 204480, Note_off_c, 0, 65, 95
3, 204480, Note_off_c, 0, 60, 95
3, 204480, Note_off_c, 0, 57, 95
3, 204480, Note_off_c, 0, 53, 95
3, 204480, Note_off_c, 0, 48, 95
3, 204480, Note_off_c, 0, 41, 95
3, 204480, Note_on_c, 0, 65, 95
3, 204480, Note_on_c, 0, 60, 95
3, 204480, Note_on_c, 0, 57, 95
3, 204480, Note_on_c, 0, 53, 95
3, 204480, Note_on_c, 0, 48, 95
3, 204480, Note_on_c, 0, 41, 95
3, 204720, Note_off_c, 0, 65, 95
3, 204720, Note_off_c, 0, 60, 95
3, 204720, Note_off_c, 0, 57, 95
3, 204720, Note_off_c, 0, 53, 95
3, 204720, Note_off_c, 0, 48, 95
3, 204720, Note_off_c, 0, 41, 95
3, 204720, Note_on_c, 0, 65, 95
3, 204720, Note_on_c, 0, 60, 95
3, 204720, Note_on_c, 0, 57, 95
3, 204720, Note_on_c, 0, 53, 95
3, 204720, Note_on_c, 0, 48, 95
3, 204720, Note_on_c, 0, 41, 95
3, 204960, Note_off_c, 0, 65, 95
3, 204960, Note_off_c, 0, 60, 95
3, 204960, Note_off_c, 0, 57, 95
3, 204960, Note_off_c, 0, 53, 95
3, 204960, Note_off_c, 0, 48, 95
3, 204960, Note_off_c, 0, 41, 95
3, 204960, Note_on_c, 0, 65, 95
3, 204960, Note_on_c, 0, 60, 95
3, 204960, Note_on_c, 0, 57, 95
3, 204960, Note_on_c, 0, 53, 95
3, 204960, Note_on_c, 0, 48, 95
3, 204960, Note_on_c, 0, 41, 95
3, 205200, Note_off_c, 0, 65, 95
3, 205200, Note_off_c, 0, 60, 95
3, 205200, Note_off_c, 0, 57, 95
3, 205200, Note_off_c, 0, 53, 95
3, 205200, Note_off_c, 0, 48, 95
3, 205200, Note_off_c, 0, 41, 95
3, 205200, Note_on_c, 0, 65, 95
3, 205200, Note_on_c, 0, 60, 95
3, 205200, Note_on_c, 0, 57, 95
3, 205200, Note_on_c, 0, 53, 95
3, 205200, Note_on_c, 0, 48, 95
3, 205200, Note_on_c, 0, 41, 95
3, 205440, Note_off_c, 0, 65, 95
3, 205440, Note_off_c, 0, 60, 95
3, 205440, Note_off_c, 0, 57, 95
3, 205440, Note_off_c, 0, 53, 95
3, 205440, Note_off_c, 0, 48, 95
3, 205440, Note_off_c, 0, 41, 95
3, 205440, Note_on_c, 0, 65, 95
3, 205440, Note_on_c, 0, 60, 95
3, 205440, Note_on_c, 0, 57, 95
3, 205440, Note_on_c, 0, 53, 95
3, 205440, Note_on_c, 0, 48, 95
3, 205440, Note_on_c, 0, 41, 95
3, 205680, Note_off_c, 0, 65, 95
3, 205680, Note_off_c, 0, 60, 95
3, 205680, Note_off_c, 0, 57, 95
3, 205680, Note_off_c, 0, 53, 95
3, 205680, Note_off_c, 0, 48, 95
3, 205680, Note_off_c, 0, 41, 95
3, 205680, Note_on_c, 0, 65, 95
3, 205680, Note_on_c, 0, 60, 95
3, 205680, Note_on_c, 0, 57, 95
3, 205680, Note_on_c, 0, 53, 95
3, 205680, Note_on_c, 0, 48, 95
3, 205680, Note_on_c, 0, 41, 95
3, 205920, Note_off_c, 0, 65, 95
3, 205920, Note_off_c, 0, 60, 95
3, 205920, Note_off_c, 0, 57, 95
3, 205920, Note_off_c, 0, 53, 95
3, 205920, Note_off_c, 0, 48, 95
3, 205920, Note_off_c, 0, 41, 95
3, 205920, Note_on_c, 0, 65, 95
3, 205920, Note_on_c, 0, 60, 95
3, 205920, Note_on_c, 0, 57, 95
3, 205920, Note_on_c, 0, 53, 95
3, 205920, Note_on_c, 0, 48, 95
3, 205920, Note_on_c, 0, 41, 95
3, 206160, Note_off_c, 0, 65, 95
3, 206160, Note_off_c, 0, 60, 95
3, 206160, Note_off_c, 0, 57, 95
3, 206160, Note_off_c, 0, 53, 95
3, 206160, Note_off_c, 0, 48, 95
3, 206160, Note_off_c, 0, 41, 95
3, 206160, Note_on_c, 0, 65, 95
3, 206160, Note_on_c, 0, 60, 95
3, 206160, Note_on_c, 0, 57, 95
3, 206160, Note_on_c, 0, 53, 95
3, 206160, Note_on_c, 0, 48, 95
3, 206160, Note_on_c, 0, 41, 95
3, 206400, Note_off_c, 0, 65, 95
3, 206400, Note_off_c, 0, 60, 95
3, 206400, Note_off_c, 0, 57, 95
3, 206400, Note_off_c, 0, 53, 95
3, 206400, Note_off_c, 0, 48, 95
3, 206400, Note_off_c, 0, 41, 95
3, 206400, Note_on_c, 0, 65, 95
3, 206400, Note_on_c, 0, 60, 95
3, 206400, Note_on_c, 0, 57, 95
3, 206400, Note_on_c, 0, 53, 95
3, 206400, Note_on_c, 0, 48, 95
3, 206400, Note_on_c, 0, 41, 95
3, 206640, Note_off_c, 0, 65, 95
3, 206640, Note_off_c, 0, 60, 95
3, 206640, Note_off_c, 0, 57, 95
3, 206640, Note_off_c, 0, 53, 95
3, 206640, Note_off_c, 0, 48, 95
3, 206640, Note_off_c, 0, 41, 95
3, 206640, Note_on_c, 0, 65, 95
3, 206640, Note_on_c, 0, 60, 95
3, 206640, Note_on_c, 0, 57, 95
3, 206640, Note_on_c, 0, 53, 95
3, 206640, Note_on_c, 0, 48, 95
3, 206640, Note_on_c, 0, 41, 95
3, 206880, Note_off_c, 0, 65, 95
3, 206880, Note_off_c, 0, 60, 95
3, 206880, Note_off_c, 0, 57, 95
3, 206880, Note_off_c, 0, 53, 95
3, 206880, Note_off_c, 0, 48, 95
3, 206880, Note_off_c, 0, 41, 95
3, 206880, Note_on_c, 0, 65, 95
3, 206880, Note_on_c, 0, 60, 95
3, 206880, Note_on_c, 0, 57, 95
3, 206880, Note_on_c, 0, 53, 95
3, 206880, Note_on_c, 0, 48, 95
3, 206880, Note_on_c, 0, 41, 95
3, 206919, Note_off_c, 0, 65, 95
3, 206919, Note_off_c, 0, 60, 95
3, 206919, Note_off_c, 0, 57, 95
3, 206919, Note_off_c, 0, 53, 95
3, 206919, Note_off_c, 0, 48, 95
3, 206919, Note_off_c, 0, 41, 95
3, 207120, Note_on_c, 0, 65, 95
3, 207120, Note_on_c, 0, 60, 95
3, 207120, Note_on_c, 0, 57, 95
3, 207120, Note_on_c, 0, 53, 95
3, 207120, Note_on_c, 0, 48, 95
3, 207120, Note_on_c, 0, 41, 95
3, 207159, Note_off_c, 0, 65, 95
3, 207159, Note_off_c, 0, 60, 95
3, 207159, Note_off_c, 0, 57, 95
3, 207159, Note_off_c, 0, 53, 95
3, 207159, Note_off_c, 0, 48, 95
3, 207159, Note_off_c, 0, 41, 95
3, 207360, Note_on_c, 0, 62, 95
3, 207360, Note_on_c, 0, 58, 95
3, 207360, Note_on_c, 0, 53, 95
3, 207360, Note_on_c, 0, 46, 95
3, 207360, Note_on_c, 0, 41, 95
3, 207840, Note_off_c, 0, 62, 95
3, 207840, Note_off_c, 0, 58, 95
3, 207840, Note_off_c, 0, 53, 95
3, 207840, Note_off_c, 0, 46, 95
3, 207840, Note_off_c, 0, 41, 95
3, 207840, Note_on_c, 0, 62, 95
3, 207840, Note_on_c, 0, 58, 95
3, 207840, Note_on_c, 0, 53, 95
3, 207840, Note_on_c, 0, 46, 95
3, 207840, Note_on_c, 0, 41, 95
3, 208080, Note_off_c, 0, 62, 95
3, 208080, Note_off_c, 0, 58, 95
3, 208080, Note_off_c, 0, 53, 95
3, 208080, Note_off_c, 0, 46, 95
3, 208080, Note_off_c, 0, 41, 95
3, 208080, Note_on_c, 0, 62, 95
3, 208080, Note_on_c, 0, 58, 95
3, 208080, Note_on_c, 0, 53, 95
3, 208080, Note_on_c, 0, 46, 95
3, 208080, Note_on_c, 0, 41, 95
3, 208320, Note_off_c, 0, 62, 95
3, 208320, Note_off_c, 0, 58, 95
3, 208320, Note_off_c, 0, 53, 95
3, 208320, Note_off_c, 0, 46, 95
3, 208320, Note_off_c, 0, 41, 95
3, 208320, Note_on_c, 0, 62, 95
3, 208320, Note_on_c, 0, 58, 95
3, 208320, Note_on_c, 0, 53, 95
3, 208320, Note_on_c, 0, 46, 95
3, 208320, Note_on_c, 0, 41, 95
3, 208800, Note_off_c, 0, 62, 95
3, 208800, Note_off_c, 0, 58, 95
3, 208800, Note_off_c, 0, 53, 95
3, 208800, Note_off_c, 0, 46, 95
3, 208800, Note_off_c, 0, 41, 95
3, 208800, Note_on_c, 0, 62, 95
3, 208800, Note_on_c, 0, 58, 95
3, 208800, Note_on_c, 0, 53, 95
3, 208800, Note_on_c, 0, 46, 95
3, 208800, Note_on_c, 0, 41, 95
3, 209280, Note_off_c, 0, 62, 95
3, 209280, Note_off_c, 0, 58, 95
3, 209280, Note_off_c, 0, 53, 95
3, 209280, Note_off_c, 0, 46, 95
3, 209280, Note_off_c, 0, 41, 95
3, 209280, Note_on_c, 0, 67, 95
3, 209280, Note_on_c, 0, 63, 95
3, 209280, Note_on_c, 0, 58, 95
3, 209280, Note_on_c, 0, 51, 95
3, 209280, Note_on_c, 0, 39, 95
3, 209760, Note_off_c, 0, 67, 95
3, 209760, Note_off_c, 0, 63, 95
3, 209760, Note_off_c, 0, 58, 95
3, 209760, Note_off_c, 0, 51, 95
3, 209760, Note_off_c, 0, 39, 95
3, 209760, Note_on_c, 0, 67, 95
3, 209760, Note_on_c, 0, 63, 95
3, 209760, Note_on_c, 0, 58, 95
3, 209760, Note_on_c, 0, 51, 95
3, 209760, Note_on_c, 0, 39, 95
3, 210000, Note_off_c, 0, 67, 95
3, 210000, Note_off_c, 0, 63, 95
3, 210000, Note_off_c, 0, 58, 95
3, 210000, Note_off_c, 0, 51, 95
3, 210000, Note_off_c, 0, 39, 95
3, 210000, Note_on_c, 0, 67, 95
3, 210000, Note_on_c, 0, 63, 95
3, 210000, Note_on_c, 0, 58, 95
3, 210000, Note_on_c, 0, 51, 95
3, 210000, Note_on_c, 0, 39, 95
3, 210240, Note_off_c, 0, 67, 95
3, 210240, Note_off_c, 0, 63, 95
3, 210240, Note_off_c, 0, 58, 95
3, 210240, Note_off_c, 0, 51, 95
3, 210240, Note_off_c, 0, 39, 95
3, 210240, Note_on_c, 0, 67, 95
3, 210240, Note_on_c, 0, 63, 95
3, 210240, Note_on_c, 0, 58, 95
3, 210240, Note_on_c, 0, 51, 95
3, 210240, Note_on_c, 0, 39, 95
3, 210720, Note_off_c, 0, 67, 95
3, 210720, Note_off_c, 0, 63, 95
3, 210720, Note_off_c, 0, 58, 95
3, 210720, Note_off_c, 0, 51, 95
3, 210720, Note_off_c, 0, 39, 95
3, 210720, Note_on_c, 1, 67, 95
3, 210720, Note_on_c, 1, 63, 95
3, 210720, Note_on_c, 1, 58, 95
3, 210720, Note_on_c, 1, 51, 95
3, 210840, Pitch_bend_c, 1, 8832
3, 210840, Pitch_bend_c, 1, 8832
3, 210840, Pitch_bend_c, 1, 8832
3, 210840, Pitch_bend_c, 1, 8832
3, 210960, Pitch_bend_c, 1, 9600
3, 210960, Pitch_bend_c, 1, 8192
3, 210960, Note_off_c, 1, 67, 95
3, 210960, Pitch_bend_c, 1, 9600
3, 210960, Pitch_bend_c, 1, 8192
3, 210960, Note_off_c, 1, 63, 95
3, 210960, Pitch_bend_c, 1, 9600
3, 210960, Pitch_bend_c, 1, 8192
3, 210960, Note_off_c, 1, 58, 95
3, 210960, Pitch_bend_c, 1, 9600
3, 210960, Pitch_bend_c, 1, 8192
3, 210960, Note_off_c, 1, 51, 95
3, 210960, Note_on_c, 0, 69, 95
3, 210960, Note_on_c, 0, 65, 95
3, 210960, Note_on_c, 0, 60, 95
3, 210960, Note_on_c, 0, 53, 95
3, 211200, Note_off_c, 0, 69, 95
3, 211200, Note_off_c, 0, 65, 95
3, 211200, Note_off_c, 0, 60, 95
3, 211200, Note_off_c, 0, 53, 95
3, 211200, Note_on_c, 0, 69, 95
3, 211200, Note_on_c, 0, 65, 95
3, 211200, Note_on_c, 0, 60, 95
3, 211200, Note_on_c, 0, 53, 95
3, 211680, Note_off_c, 0, 69, 95
3, 211680, Note_off_c, 0, 65, 95
3, 211680, Note_off_c, 0, 60, 95
3, 211680, Note_off_c, 0, 53, 95
3, 211680, Note_on_c, 0, 69, 95
3, 211680, Note_on_c, 0, 65, 95
3, 211680, Note_on_c, 0, 60, 95
3, 211680, Note_on_c, 0, 53, 95
3, 211920, Note_off_c, 0, 69, 95
3, 211920, Note_off_c, 0, 65, 95
3, 211920, Note_off_c, 0, 60, 95
3, 211920, Note_off_c, 0, 53, 95
3, 211920, Note_on_c, 0, 69, 95
3, 211920, Note_on_c, 0, 65, 95
3, 211920, Note_on_c, 0, 60, 95
3, 211920, Note_on_c, 0, 53, 95
3, 212160, Note_off_c, 0, 69, 95
3, 212160, Note_off_c, 0, 65, 95
3, 212160, Note_off_c, 0, 60, 95
3, 212160, Note_off_c, 0, 53, 95
3, 212160, Note_on_c, 0, 69, 95
3, 212160, Note_on_c, 0, 65, 95
3, 212160, Note_on_c, 0, 60, 95
3, 212160, Note_on_c, 0, 53, 95
3, 212400, Note_off_c, 0, 69, 95
3, 212400, Note_off_c, 0, 65, 95
3, 212400, Note_off_c, 0, 60, 95
3, 212400, Note_off_c, 0, 53, 95
3, 212400, Note_on_c, 0, 69, 95
3, 212400, Note_on_c, 0, 65, 95
3, 212400, Note_on_c, 0, 60, 95
3, 212400, Note_on_c, 0, 53, 95
3, 212640, Note_off_c, 0, 69, 95
3, 212640, Note_off_c, 0, 65, 95
3, 212640, Note_off_c, 0, 60, 95
3, 212640, Note_off_c, 0, 53, 95
3, 212640, Note_on_c, 0, 69, 95
3, 212640, Note_on_c, 0, 65, 95
3, 212640, Note_on_c, 0, 60, 95
3, 212640, Note_on_c, 0, 53, 95
3, 212880, Note_off_c, 0, 69, 95
3, 212880, Note_off_c, 0, 65, 95
3, 212880, Note_off_c, 0, 60, 95
3, 212880, Note_off_c, 0, 53, 95
3, 212880, Note_on_c, 0, 69, 95
3, 212880, Note_on_c, 0, 65, 95
3, 212880, Note_on_c, 0, 60, 95
3, 212880, Note_on_c, 0, 53, 95
3, 213120, Note_off_c, 0, 69, 95
3, 213120, Note_off_c, 0, 65, 95
3, 213120, Note_off_c, 0, 60, 95
3, 213120, Note_off_c, 0, 53, 95
3, 213120, Note_on_c, 0, 69, 95
3, 213120, Note_on_c, 0, 65, 95
3, 213120, Note_on_c, 0, 60, 95
3, 213120, Note_on_c, 0, 53, 95
3, 213360, Note_off_c, 0, 69, 95
3, 213360, Note_off_c, 0, 65, 95
3, 213360, Note_off_c, 0, 60, 95
3, 213360, Note_off_c, 0, 53, 95
3, 213360, Note_on_c, 0, 69, 95
3, 213360, Note_on_c, 0, 65, 95
3, 213360, Note_on_c, 0, 60, 95
3, 213360, Note_on_c, 0, 53, 95
3, 213600, Note_off_c, 0, 69, 95
3, 213600, Note_off_c, 0, 65, 95
3, 213600, Note_off_c, 0, 60, 95
3, 213600, Note_off_c, 0, 53, 95
3, 213600, Note_on_c, 0, 69, 95
3, 213600, Note_on_c, 0, 65, 95
3, 213600, Note_on_c, 0, 60, 95
3, 213600, Note_on_c, 0, 53, 95
3, 213840, Note_off_c, 0, 69, 95
3, 213840, Note_off_c, 0, 65, 95
3, 213840, Note_off_c, 0, 60, 95
3, 213840, Note_off_c, 0, 53, 95
3, 213840, Note_on_c, 0, 69, 95
3, 213840, Note_on_c, 0, 65, 95
3, 213840, Note_on_c, 0, 60, 95
3, 213840, Note_on_c, 0, 53, 95
3, 214080, Note_off_c, 0, 69, 95
3, 214080, Note_off_c, 0, 65, 95
3, 214080, Note_off_c, 0, 60, 95
3, 214080, Note_off_c, 0, 53, 95
3, 214080, Note_on_c, 0, 69, 95
3, 214080, Note_on_c, 0, 65, 95
3, 214080, Note_on_c, 0, 60, 95
3, 214080, Note_on_c, 0, 53, 95
3, 214320, Note_off_c, 0, 69, 95
3, 214320, Note_off_c, 0, 65, 95
3, 214320, Note_off_c, 0, 60, 95
3, 214320, Note_off_c, 0, 53, 95
3, 214320, Note_on_c, 0, 69, 95
3, 214320, Note_on_c, 0, 65, 95
3, 214320, Note_on_c, 0, 60, 95
3, 214320, Note_on_c, 0, 53, 95
3, 214560, Note_off_c, 0, 69, 95
3, 214560, Note_off_c, 0, 65, 95
3, 214560, Note_off_c, 0, 60, 95
3, 214560, Note_off_c, 0, 53, 95
3, 214560, Note_on_c, 0, 58, 95
3, 214560, Note_on_c, 0, 54, 95
3, 214560, Note_on_c, 0, 49, 95
3, 214560, Note_on_c, 0, 44, 95
3, 214599, Note_off_c, 0, 58, 95
3, 214599, Note_off_c, 0, 54, 95
3, 214599, Note_off_c, 0, 49, 95
3, 214599, Note_off_c, 0, 44, 95
3, 214800, Note_on_c, 0, 58, 95
3, 214800, Note_on_c, 0, 54, 95
3, 214800, Note_on_c, 0, 49, 95
3, 214800, Note_on_c, 0, 44, 95
3, 214839, Note_off_c, 0, 58, 95
3, 214839, Note_off_c, 0, 54, 95
3, 214839, Note_off_c, 0, 49, 95
3, 214839, Note_off_c, 0, 44, 95
3, 214920, Note_on_c, 1, 63, 79
3, 214920, Note_on_c, 1, 58, 79
3, 215040, Note_off_c, 1, 63, 79
3, 215040, Note_on_c, 1, 65, 95
3, 215040, Note_off_c, 1, 58, 79
3, 215040, Note_on_c, 1, 60, 95
3, 215520, Note_off_c, 1, 65, 95
3, 215520, Note_off_c, 1, 60, 95
3, 215520, Note_on_c, 0, 67, 95
3, 216000, Note_off_c, 0, 67, 95
3, 216000, Note_on_c, 0, 72, 95
3, 216480, Note_off_c, 0, 72, 95
3, 216480, Note_on_c, 0, 65, 95
3, 216960, Note_off_c, 0, 65, 95
3, 216960, Note_on_c, 0, 72, 95
3, 216960, Note_on_c, 0, 67, 95
3, 217200, Note_off_c, 0, 72, 95
3, 217200, Note_off_c, 0, 67, 95
3, 217200, Note_on_c, 0, 69, 70
3, 217440, Note_off_c, 0, 69, 70
3, 217440, Note_on_c, 0, 72, 95
3, 217440, Note_on_c, 0, 67, 95
3, 217680, Note_off_c, 0, 72, 95
3, 217680, Note_off_c, 0, 67, 95
3, 217680, Note_on_c, 0, 67, 95
3, 217920, Note_off_c, 0, 67, 95
3, 217920, Note_on_c, 0, 69, 70
3, 218160, Note_off_c, 0, 69, 70
3, 218160, Note_on_c, 0, 72, 95
3, 218160, Note_on_c, 0, 69, 95
3, 218400, Note_off_c, 0, 72, 95
3, 218400, Note_off_c, 0, 69, 95
3, 218400, Note_on_c, 0, 72, 95
3, 218400, Note_on_c, 0, 69, 95
3, 218880, Note_off_c, 0, 72, 95
3, 218880, Note_off_c, 0, 69, 95
3, 218880, Note_on_c, 0, 72, 95
3, 218880, Note_on_c, 0, 67, 95
3, 219120, Note_off_c, 0, 72, 95
3, 219120, Note_off_c, 0, 67, 95
3, 219120, Note_on_c, 0, 69, 70
3, 219360, Note_off_c, 0, 69, 70
3, 219360, Note_on_c, 0, 72, 95
3, 219360, Note_on_c, 0, 67, 95
3, 219600, Note_off_c, 0, 72, 95
3, 219600, Note_off_c, 0, 67, 95
3, 219600, Note_on_c, 0, 69, 70
3, 219840, Note_off_c, 0, 69, 70
3, 219840, Note_on_c, 0, 72, 95
3, 219840, Note_on_c, 0, 67, 95
3, 220080, Note_off_c, 0, 72, 95
3, 220080, Note_off_c, 0, 67, 95
3, 220080, Note_on_c, 0, 69, 70
3, 220320, Note_off_c, 0, 69, 70
3, 220320, Note_on_c, 0, 72, 95
3, 220320, Note_on_c, 0, 67, 95
3, 220560, Note_off_c, 0, 72, 95
3, 220560, Note_off_c, 0, 67, 95
3, 220560, Note_on_c, 0, 65, 95
3, 220800, Note_off_c, 0, 65, 95
3, 220800, Note_on_c, 0, 72, 95
3, 220800, Note_on_c, 0, 67, 95
3, 221280, Note_off_c, 0, 72, 95
3, 221280, Note_off_c, 0, 67, 95
3, 221280, Note_on_c, 0, 65, 95
3, 221760, Note_off_c, 0, 65, 95
3, 221760, Note_on_c, 0, 41, 95
3, 222000, Note_off_c, 0, 41, 95
3, 222000, Note_on_c, 0, 43, 70
3, 222240, Note_off_c, 0, 43, 70
3, 222240, Note_on_c, 0, 46, 95
3, 222480, Note_off_c, 0, 46, 95
3, 222480, Note_on_c, 0, 43, 95
3, 222720, Note_off_c, 0, 43, 95
3, 222720, Note_on_c, 0, 46, 95
3, 224640, Note_off_c, 0, 46, 95
3, 224640, Note_on_c, 0, 48, 95
3, 225120, Note_off_c, 0, 48, 95
3, 225120, Note_on_c, 0, 55, 47
3, 225600, Note_off_c, 0, 55, 47
3, 225600, Note_on_c, 0, 63, 95
3, 225760, Note_off_c, 0, 63, 95
3, 225760, Note_on_c, 0, 65, 70
3, 225920, Note_off_c, 0, 65, 70
3, 225920, Note_on_c, 0, 63, 70
3, 226080, Note_off_c, 0, 63, 70
3, 226080, Note_on_c, 0, 58, 95
3, 226320, Note_off_c, 0, 58, 95
3, 226320, Note_on_c, 0, 48, 95
3, 226560, Note_off_c, 0, 48, 95
3, 226560, Note_on_c, 0, 50, 70
3, 228480, Note_off_c, 0, 50, 70
3, 228480, Note_on_c, 0, 39, 95
3, 229200, Note_off_c, 0, 39, 95
3, 229200, Note_on_c, 0, 58, 95
3, 229200, Note_on_c, 0, 53, 95
3, 229440, Note_off_c, 0, 58, 95
3, 229440, Note_off_c, 0, 53, 95
3, 229440, Note_on_c, 0, 55, 70
3, 229680, Note_off_c, 0, 55, 70
3, 229680, Note_on_c, 0, 58, 47
3, 229920, Note_off_c, 0, 58, 47
3, 229920, Note_on_c, 1, 60, 95
3, 229920, Note_on_c, 1, 55, 95
3, 230040, Pitch_bend_c, 1, 8832
3, 230040, Pitch_bend_c, 1, 8832
3, 230160, Pitch_bend_c, 1, 9600
3, 230160, Pitch_bend_c, 1, 8192
3, 230160, Note_off_c, 1, 60, 95
3, 230160, Pitch_bend_c, 1, 9600
3, 230160, Pitch_bend_c, 1, 8192
3, 230160, Note_off_c, 1, 55, 95
3, 230160, Note_on_c, 0, 62, 95
3, 230160, Note_on_c, 0, 57, 95
3, 230400, Note_off_c, 0, 62, 95
3, 230400, Note_off_c, 0, 57, 95
3, 230400, Note_on_c, 0, 60, 95
3, 230400, Note_on_c, 0, 57, 95
3, 230400, Note_on_c, 0, 53, 95
3, 230880, Note_off_c, 0, 60, 95
3, 230880, Note_off_c, 0, 57, 95
3, 230880, Note_off_c, 0, 53, 95
3, 230880, Note_on_c, 0, 53, 95
3, 231120, Note_off_c, 0, 53, 95
3, 231120, Note_on_c, 0, 53, 95
3, 231360, Note_off_c, 0, 53, 95
3, 231360, Note_on_c, 0, 41, 95
3, 231600, Note_off_c, 0, 41, 95
3, 231600, Note_on_c, 0, 53, 95
3, 232080, Note_off_c, 0, 53, 95
3, 232080, Note_on_c, 0, 41, 95
3, 232320, Note_off_c, 0, 41, 95
3, 232320, Note_on_c, 0, 53, 95
3, 232800, Note_off_c, 0, 53, 95
3, 232800, Note_on_c, 0, 41, 95
3, 233040, Note_off_c, 0, 41, 95
3, 233040, Note_on_c, 0, 48, 95
3, 233520, Note_off_c, 0, 48, 95
3, 233520, Note_on_c, 0, 41, 95
3, 233760, Note_off_c, 0, 41, 95
3, 233760, Note_on_c, 0, 41, 95
3, 234000, Note_off_c, 0, 41, 95
3, 234000, Note_on_c, 0, 41, 47
3, 234120, Note_on_c, 1, 56, 79
3, 234240, Note_off_c, 0, 41, 47
3, 234240, Note_off_c, 1, 56, 79
3, 234240, Note_on_c, 1, 57, 95
3, 234480, Note_off_c, 1, 57, 95
3, 234480, Note_on_c, 0, 65, 95
3, 234720, Note_off_c, 0, 65, 95
3, 234720, Note_on_c, 0, 55, 95
3, 234960, Note_off_c, 0, 55, 95
3, 234960, Note_on_c, 0, 63, 95
3, 235200, Note_off_c, 0, 63, 95
3, 235200, Note_on_c, 0, 53, 95
3, 235440, Note_off_c, 0, 53, 95
3, 235440, Note_on_c, 0, 62, 95
3, 235680, Note_off_c, 0, 62, 95
3, 235680, Note_on_c, 0, 51, 95
3, 235920, Note_off_c, 0, 51, 95
3, 235920, Note_on_c, 0, 60, 95
3, 236160, Note_off_c, 0, 60, 95
3, 236160, Note_on_c, 0, 50, 95
3, 236400, Note_off_c, 0, 50, 95
3, 236400, Note_on_c, 0, 58, 95
3, 236640, Note_off_c, 0, 58, 95
3, 236640, Note_on_c, 0, 50, 95
3, 236880, Note_off_c, 0, 50, 95
3, 236880, Note_on_c, 0, 58, 95
3, 237120, Note_off_c, 0, 58, 95
3, 237120, Note_on_c, 0, 57, 95
3, 237120, Note_on_c, 0, 48, 95
3, 237360, Note_off_c, 0, 57, 95
3, 237360, Note_off_c, 0, 48, 95
3, 237360, Note_on_c, 0, 54, 95
3, 237399, Note_off_c, 0, 54, 95
3, 237600, Note_on_c, 0, 46, 95
3, 237840, Note_off_c, 0, 46, 95
3, 237840, Note_on_c, 0, 48, 70
3, 238080, Note_off_c, 0, 48, 70
3, 238080, Note_on_c, 0, 46, 95
3, 239040, Note_off_c, 0, 46, 95
3, 239040, Note_on_c, 0, 53, 95
3, 239520, Note_off_c, 0, 53, 95
3, 239520, Note_on_c, 0, 46, 47
3, 240000, Note_off_c, 0, 46, 47
3, 240000, Note_on_c, 0, 48, 95
3, 240480, Note_off_c, 0, 48, 95
3, 240480, Note_on_c, 0, 55, 95
3, 240960, Note_off_c, 0, 55, 95
3, 240960, Note_on_c, 0, 63, 95
3, 241120, Note_off_c, 0, 63, 95
3, 241120, Note_on_c, 0, 65, 70
3, 241280, Note_off_c, 0, 65, 70
3, 241280, Note_on_c, 0, 63, 70
3, 241440, Note_off_c, 0, 63, 70
3, 241440, Note_on_c, 0, 48, 95
3, 241680, Note_off_c, 0, 48, 95
3, 241680, Note_on_c, 0, 49, 95
3, 241920, Note_off_c, 0, 49, 95
3, 241920, Note_on_c, 0, 50, 95
3, 242880, Note_off_c, 0, 50, 95
3, 242880, Note_on_c, 0, 57, 95
3, 243360, Note_off_c, 0, 57, 95
3, 243360, Note_on_c, 0, 50, 95
3, 243840, Note_off_c, 0, 50, 95
3, 243840, Note_on_c, 0, 39, 95
3, 244320, Note_off_c, 0, 39, 95
3, 244320, Note_on_c, 0, 51, 95
3, 244800, Note_off_c, 0, 51, 95
3, 244800, Note_on_c, 0, 41, 95
3, 245040, Note_off_c, 0, 41, 95
3, 245040, Note_on_c, 0, 43, 70
3, 245280, Note_off_c, 0, 43, 70
3, 245280, Note_on_c, 0, 46, 95
3, 245520, Note_off_c, 0, 46, 95
3, 245520, Note_on_c, 0, 48, 70
3, 245760, Note_off_c, 0, 48, 70
3, 245760, Note_on_c, 0, 41, 95
3, 246240, Note_off_c, 0, 41, 95
3, 246240, Note_on_c, 0, 53, 95
3, 246480, Note_off_c, 0, 53, 95
3, 246480, Note_on_c, 0, 57, 95
3, 246480, Note_on_c, 0, 53, 95
3, 247200, Note_off_c, 0, 57, 95
3, 247200, Note_off_c, 0, 53, 95
3, 247200, Note_on_c, 0, 53, 95
3, 247680, Note_off_c, 0, 53, 95
3, 247680, Note_on_c, 0, 41, 95
3, 248160, Note_off_c, 0, 41, 95
3, 248160, Note_on_c, 0, 53, 95
3, 248400, Note_off_c, 0, 53, 95
3, 248400, Note_on_c, 0, 57, 95
3, 248400, Note_on_c, 0, 53, 95
3, 248880, Note_off_c, 0, 57, 95
3, 248880, Note_off_c, 0, 53, 95
3, 248880, Note_on_c, 0, 53, 95
3, 249120, Note_off_c, 0, 53, 95
3, 249120, Note_on_c, 0, 41, 95
3, 249360, Note_off_c, 0, 41, 95
3, 249360, Note_on_c, 0, 57, 95
3, 249600, Note_off_c, 0, 57, 95
3, 249600, Note_on_c, 1, 67, 95
3, 249600, Note_on_c, 1, 55, 95
3, 249720, Pitch_bend_c, 1, 7552
3, 249720, Pitch_bend_c, 1, 7552
3, 249840, Pitch_bend_c, 1, 6784
3, 249840, Pitch_bend_c, 1, 8192
3, 249840, Note_off_c, 1, 67, 95
3, 249840, Pitch_bend_c, 1, 6784
3, 249840, Pitch_bend_c, 1, 8192
3, 249840, Note_off_c, 1, 55, 95
3, 249840, Note_on_c, 0, 65, 95
3, 249840, Note_on_c, 0, 53, 95
3, 250080, Note_off_c, 0, 65, 95
3, 250080, Note_off_c, 0, 53, 95
3, 250080, Note_on_c, 0, 65, 95
3, 250080, Note_on_c, 0, 53, 95
3, 250320, Note_off_c, 0, 65, 95
3, 250320, Note_off_c, 0, 53, 95
3, 250320, Note_on_c, 0, 65, 95
3, 250320, Note_on_c, 0, 53, 95
3, 250560, Note_off_c, 0, 65, 95
3, 250560, Note_off_c, 0, 53, 95
3, 250560, Note_on_c, 1, 65, 95
3, 250560, Note_on_c, 1, 53, 95
3, 250680, Pitch_bend_c, 1, 7552
3, 250680, Pitch_bend_c, 1, 7552
3, 250800, Pitch_bend_c, 1, 6784
3, 250800, Pitch_bend_c, 1, 8192
3, 250800, Note_off_c, 1, 65, 95
3, 250800, Pitch_bend_c, 1, 6784
3, 250800, Pitch_bend_c, 1, 8192
3, 250800, Note_off_c, 1, 53, 95
3, 250800, Note_on_c, 0, 63, 95
3, 250800, Note_on_c, 0, 51, 95
3, 251040, Note_off_c, 0, 63, 95
3, 251040, Note_off_c, 0, 51, 95
3, 251040, Note_on_c, 0, 63, 95
3, 251040, Note_on_c, 0, 51, 95
3, 251280, Note_off_c, 0, 63, 95
3, 251280, Note_off_c, 0, 51, 95
3, 251280, Note_on_c, 0, 63, 95
3, 251280, Note_on_c, 0, 51, 95
3, 251520, Note_off_c, 0, 63, 95
3, 251520, Note_off_c, 0, 51, 95
3, 251520, Note_on_c, 1, 63, 95
3, 251520, Note_on_c, 1, 51, 95
3, 251640, Pitch_bend_c, 1, 8832
3, 251640, Pitch_bend_c, 1, 8832
3, 251760, Pitch_bend_c, 1, 9600
3, 251760, Pitch_bend_c, 1, 8192
3, 251760, Note_off_c, 1, 63, 95
3, 251760, Pitch_bend_c, 1, 9600
3, 251760, Pitch_bend_c, 1, 8192
3, 251760, Note_off_c, 1, 51, 95
3, 251760, Note_on_c, 0, 65, 95
3, 251760, Note_on_c, 0, 53, 95
3, 252000, Note_off_c, 0, 65, 95
3, 252000, Note_off_c, 0, 53, 95
3, 252000, Note_on_c, 0, 65, 95
3, 252000, Note_on_c, 0, 53, 95
3, 252240, Note_off_c, 0, 65, 95
3, 252240, Note_off_c, 0, 53, 95
3, 252240, Note_on_c, 0, 65, 95
3, 252240, Note_on_c, 0, 53, 95
3, 252480, Note_off_c, 0, 65, 95
3, 252480, Note_off_c, 0, 53, 95
3, 252480, Note_on_c, 0, 65, 95
3, 252480, Note_on_c, 0, 60, 95
3, 252480, Note_on_c, 0, 53, 95
3, 252720, Note_off_c, 0, 65, 95
3, 252720, Note_off_c, 0, 60, 95
3, 252720, Note_off_c, 0, 53, 95
3, 252720, Note_on_c, 0, 69, 95
3, 252720, Note_on_c, 0, 65, 95
3, 252720, Note_on_c, 0, 60, 95
3, 252720, Note_on_c, 0, 53, 95
3, 252960, Note_off_c, 0, 69, 95
3, 252960, Note_off_c, 0, 65, 95
3, 252960, Note_off_c, 0, 60, 95
3, 252960, Note_off_c, 0, 53, 95
3, 252960, Note_on_c, 0, 69, 95
3, 252960, Note_on_c, 0, 65, 95
3, 252960, Note_on_c, 0, 60, 95
3, 252960, Note_on_c, 0, 53, 95
3, 253200, Note_off_c, 0, 69, 95
3, 253200, Note_off_c, 0, 65, 95
3, 253200, Note_off_c, 0, 60, 95
3, 253200, Note_off_c, 0, 53, 95
3, 253200, Note_on_c, 0, 58, 95
3, 253200, Note_on_c, 0, 54, 95
3, 253200, Note_on_c, 0, 49, 95
3, 253200, Note_on_c, 0, 44, 95
3, 253239, Note_off_c, 0, 58, 95
3, 253239, Note_off_c, 0, 54, 95
3, 253239, Note_off_c, 0, 49, 95
3, 253239, Note_off_c, 0, 44, 95
3, 253440, Note_on_c, 0, 39, 95
3, 254160, Note_off_c, 0, 39, 95
3, 254160, Note_on_c, 0, 51, 95
3, 254400, Note_off_c, 0, 51, 95
3, 254400, Note_on_c, 0, 51, 95
3, 254400, Note_on_c, 0, 46, 95
3, 254400, Note_on_c, 0, 39, 95
3, 254880, Note_off_c, 0, 51, 95
3, 254880, Note_off_c, 0, 46, 95
3, 254880, Note_off_c, 0, 39, 95
3, 254880, Note_on_c, 0, 46, 95
3, 255360, Note_off_c, 0, 46, 95
3, 255360, Note_on_c, 0, 39, 95
3, 255840, Note_off_c, 0, 39, 95
3, 255840, Note_on_c, 0, 39, 95
3, 256080, Note_off_c, 0, 39, 95
3, 256080, Note_on_c, 0, 58, 95
3, 256080, Note_on_c, 0, 53, 95
3, 256320, Note_off_c, 0, 58, 95
3, 256320, Note_off_c, 0, 53, 95
3, 256320, Note_on_c, 0, 55, 70
3, 256560, Note_off_c, 0, 55, 70
3, 256560, Note_on_c, 0, 55, 95
3, 256800, Note_off_c, 0, 55, 95
3, 256800, Note_on_c, 0, 51, 95
3, 257040, Note_off_c, 0, 51, 95
3, 257040, Note_on_c, 0, 53, 70
3, 257280, Note_off_c, 0, 53, 70
3, 257280, Note_on_c, 0, 53, 95
3, 257760, Note_off_c, 0, 53, 95
3, 257760, Note_on_c, 0, 53, 95
3, 258240, Note_off_c, 0, 53, 95
3, 258240, Note_on_c, 0, 65, 95
3, 258240, Note_on_c, 0, 60, 95
3, 258240, Note_on_c, 0, 53, 95
3, 258480, Note_off_c, 0, 65, 95
3, 258480, Note_off_c, 0, 60, 95
3, 258480, Note_off_c, 0, 53, 95
3, 258480, Note_on_c, 0, 54, 95
3, 258480, Note_on_c, 0, 49, 95
3, 258519, Note_off_c, 0, 54, 95
3, 258519, Note_off_c, 0, 49, 95
3, 258720, Note_on_c, 0, 57, 95
3, 258720, Note_on_c, 0, 53, 95
3, 258960, Note_off_c, 0, 57, 95
3, 258960, Note_off_c, 0, 53, 95
3, 258960, Note_on_c, 0, 57, 95
3, 258960, Note_on_c, 0, 53, 95
3, 259200, Note_off_c, 0, 57, 95
3, 259200, Note_off_c, 0, 53, 95
3, 259200, Note_on_c, 0, 57, 95
3, 259200, Note_on_c, 0, 53, 95
3, 259440, Note_off_c, 0, 57, 95
3, 259440, Note_off_c, 0, 53, 95
3, 259440, Note_on_c, 0, 58, 70
3, 259440, Note_on_c, 0, 53, 95
3, 259680, Note_off_c, 0, 58, 70
3, 259680, Note_off_c, 0, 53, 95
3, 259680, Note_on_c, 0, 58, 95
3, 259680, Note_on_c, 0, 53, 95
3, 259920, Note_off_c, 0, 58, 95
3, 259920, Note_off_c, 0, 53, 95
3, 259920, Note_on_c, 0, 57, 95
3, 259920, Note_on_c, 0, 53, 95
3, 260160, Note_off_c, 0, 57, 95
3, 260160, Note_off_c, 0, 53, 95
3, 260160, Note_on_c, 0, 62, 95
3, 260160, Note_on_c, 0, 57, 95
3, 260160, Note_on_c, 0, 53, 95
3, 260400, Note_off_c, 0, 62, 95
3, 260400, Note_off_c, 0, 57, 95
3, 260400, Note_off_c, 0, 53, 95
3, 260400, Note_on_c, 0, 60, 95
3, 260640, Note_off_c, 0, 60, 95
3, 260640, Note_on_c, 0, 58, 95
3, 260880, Note_off_c, 0, 58, 95
3, 260880, Note_on_c, 0, 57, 95
3, 260880, Note_on_c, 0, 53, 95
3, 261120, Note_off_c, 0, 57, 95
3, 261120, Note_off_c, 0, 53, 95
3, 261120, Note_on_c, 0, 39, 95
3, 261600, Note_off_c, 0, 39, 95
3, 261600, Note_on_c, 0, 46, 95
3, 261840, Note_off_c, 0, 46, 95
3, 261840, Note_on_c, 0, 46, 95
3, 262080, Note_off_c, 0, 46, 95
3, 262080, Note_on_c, 0, 55, 47
3, 262080, Note_on_c, 0, 51, 95
3, 262080, Note_on_c, 0, 46, 95
3, 262080, Note_on_c, 0, 39, 95
3, 262560, Note_off_c, 0, 55, 47
3, 262560, Note_off_c, 0, 51, 95
3, 262560, Note_off_c, 0, 46, 95
3, 262560, Note_off_c, 0, 39, 95
3, 262560, Note_on_c, 0, 46, 95
3, 263040, Note_off_c, 0, 46, 95
3, 263040, Note_on_c, 0, 39, 95
3, 263520, Note_off_c, 0, 39, 95
3, 263520, Note_on_c, 0, 46, 95
3, 263760, Note_off_c, 0, 46, 95
3, 263760, Note_on_c, 0, 46, 95
3, 264000, Note_off_c, 0, 46, 95
3, 264000, Note_on_c, 0, 55, 95
3, 264000, Note_on_c, 0, 51, 95
3, 264000, Note_on_c, 0, 46, 95
3, 264000, Note_on_c, 0, 39, 95
3, 264480, Note_off_c, 0, 55, 95
3, 264480, Note_off_c, 0, 51, 95
3, 264480, Note_off_c, 0, 46, 95
3, 264480, Note_off_c, 0, 39, 95
3, 264480, Note_on_c, 0, 46, 95
3, 264960, Note_off_c, 0, 46, 95
3, 264960, Note_on_c, 0, 41, 95
3, 265440, Note_off_c, 0, 41, 95
3, 265440, Note_on_c, 0, 41, 95
3, 265920, Note_off_c, 0, 41, 95
3, 265920, Note_on_c, 0, 60, 47
3, 265920, Note_on_c, 0, 57, 95
3, 265920, Note_on_c, 0, 53, 95
3, 265920, Note_on_c, 0, 48, 95
3, 265920, Note_on_c, 0, 41, 95
3, 266400, Note_off_c, 0, 60, 47
3, 266400, Note_off_c, 0, 57, 95
3, 266400, Note_off_c, 0, 53, 95
3, 266400, Note_off_c, 0, 48, 95
3, 266400, Note_off_c, 0, 41, 95
3, 266400, Note_on_c, 0, 54, 95
3, 266400, Note_on_c, 0, 49, 95
3, 266400, Note_on_c, 0, 44, 95
3, 266400, Note_on_c, 0, 39, 95
3, 266439, Note_off_c, 0, 54, 95
3, 266439, Note_off_c, 0, 49, 95
3, 266439, Note_off_c, 0, 44, 95
3, 266439, Note_off_c, 0, 39, 95
3, 266640, Note_on_c, 0, 54, 95
3, 266640, Note_on_c, 0, 49, 95
3, 266640, Note_on_c, 0, 44, 95
3, 266640, Note_on_c, 0, 39, 95
3, 266679, Note_off_c, 0, 54, 95
3, 266679, Note_off_c, 0, 49, 95
3, 266679, Note_off_c, 0, 44, 95
3, 266679, Note_off_c, 0, 39, 95
3, 266880, Note_on_c, 0, 55, 95
3, 267120, Note_off_c, 0, 55, 95
3, 267120, Note_on_c, 0, 53, 95
3, 267360, Note_off_c, 0, 53, 95
3, 267360, Pitch_bend_c, 1, 8192
3, 267360, Note_on_c, 1, 60, 95
3, 267381, Pitch_bend_c, 1, 8320
3, 267402, Pitch_bend_c, 1, 8448
3, 267423, Pitch_bend_c, 1, 8576
3, 267444, Pitch_bend_c, 1, 8704
3, 267465, Pitch_bend_c, 1, 8832
3, 267486, Pitch_bend_c, 1, 8960
3, 267507, Pitch_bend_c, 1, 9088
3, 267528, Pitch_bend_c, 1, 9216
3, 267549, Pitch_bend_c, 1, 9344
3, 267570, Pitch_bend_c, 1, 9472
3, 267591, Pitch_bend_c, 1, 9600
3, 267600, Pitch_bend_c, 1, 9600
3, 267840, Pitch_bend_c, 1, 9600
3, 267840, Pitch_bend_c, 1, 8192
3, 267840, Note_off_c, 1, 60, 95
3, 267840, Note_on_c, 0, 65, 95
3, 268080, Note_off_c, 0, 65, 95
3, 268080, Note_on_c, 0, 67, 95
3, 268320, Note_off_c, 0, 67, 95
3, 268320, Note_on_c, 0, 60, 95
3, 268560, Note_off_c, 0, 60, 95
3, 268560, Note_on_c, 0, 58, 70
3, 268680, Note_off_c, 0, 58, 70
3, 268680, Note_on_c, 0, 55, 95
3, 268800, Note_off_c, 0, 55, 95
3, 268800, Note_on_c, 0, 39, 95
3, 269520, Note_off_c, 0, 39, 95
3, 269520, Note_on_c, 0, 55, 95
3, 269520, Note_on_c, 0, 51, 95
3, 269520, Note_on_c, 0, 46, 47
3, 270240, Note_off_c, 0, 55, 95
3, 270240, Note_off_c, 0, 51, 95
3, 270240, Note_off_c, 0, 46, 47
3, 270240, Note_on_c, 0, 39, 95
3, 270720, Note_off_c, 0, 39, 95
3, 270720, Note_on_c, 0, 50, 95
3, 271200, Note_off_c, 0, 50, 95
3, 271200, Note_on_c, 0, 53, 95
3, 271440, Note_off_c, 0, 53, 95
3, 271440, Note_on_c, 0, 62, 95
3, 271680, Note_off_c, 0, 62, 95
3, 271680, Note_on_c, 0, 58, 95
3, 271920, Note_off_c, 0, 58, 95
3, 271920, Note_on_c, 0, 53, 47
3, 272160, Note_off_c, 0, 53, 47
3, 272160, Note_on_c, 0, 41, 95
3, 272640, Note_off_c, 0, 41, 95
3, 272640, Note_on_c, 0, 60, 95
3, 272640, Note_on_c, 0, 55, 95
3, 272640, Note_on_c, 0, 48, 95
3, 273120, Note_off_c, 0, 60, 95
3, 273120, Note_off_c, 0, 55, 95
3, 273120, Note_off_c, 0, 48, 95
3, 273120, Note_on_c, 0, 60, 95
3, 273120, Note_on_c, 0, 55, 95
3, 273120, Note_on_c, 0, 48, 95
3, 273360, Note_off_c, 0, 60, 95
3, 273360, Note_off_c, 0, 55, 95
3, 273360, Note_off_c, 0, 48, 95
3, 273360, Note_on_c, 0, 60, 95
3, 273360, Note_on_c, 0, 55, 95
3, 273360, Note_on_c, 0, 48, 95
3, 273600, Note_off_c, 0, 60, 95
3, 273600, Note_off_c, 0, 55, 95
3, 273600, Note_off_c, 0, 48, 95
3, 273600, Note_on_c, 0, 60, 95
3, 273600, Note_on_c, 0, 55, 95
3, 273600, Note_on_c, 0, 48, 95
3, 274080, Note_off_c, 0, 60, 95
3, 274080, Note_off_c, 0, 55, 95
3, 274080, Note_off_c, 0, 48, 95
3, 274080, Note_on_c, 0, 60, 95
3, 274080, Note_on_c, 0, 55, 95
3, 274080, Note_on_c, 0, 48, 95
3, 274119, Note_off_c, 0, 60, 95
3, 274119, Note_off_c, 0, 55, 95
3, 274119, Note_off_c, 0, 48, 95
3, 274320, Note_on_c, 0, 60, 95
3, 274320, Note_on_c, 0, 55, 95
3, 274320, Note_on_c, 0, 48, 95
3, 274359, Note_off_c, 0, 60, 95
3, 274359, Note_off_c, 0, 55, 95
3, 274359, Note_off_c, 0, 48, 95
3, 274560, Note_on_c, 0, 43, 95
3, 274800, Note_off_c, 0, 43, 95
3, 274800, Note_on_c, 0, 46, 70
3, 275040, Note_off_c, 0, 46, 70
3, 275040, Note_on_c, 0, 53, 95
3, 275040, Note_on_c, 0, 50, 95
3, 275040, Note_on_c, 0, 46, 95
3, 275280, Note_off_c, 0, 53, 95
3, 275280, Note_off_c, 0, 50, 95
3, 275280, Note_off_c, 0, 46, 95
3, 275280, Note_on_c, 0, 53, 95
3, 275280, Note_on_c, 0, 50, 95
3, 275280, Note_on_c, 0, 46, 95
3, 275520, Note_off_c, 0, 53, 95
3, 275520, Note_off_c, 0, 50, 95
3, 275520, Note_off_c, 0, 46, 95
3, 275520, Note_on_c, 0, 53, 95
3, 275520, Note_on_c, 0, 50, 95
3, 275520, Note_on_c, 0, 46, 95
3, 276000, Note_off_c, 0, 53, 95
3, 276000, Note_off_c, 0, 50, 95
3, 276000, Note_off_c, 0, 46, 95
3, 276000, Note_on_c, 0, 57, 95
3, 276000, Note_on_c, 0, 53, 95
3, 276480, Note_off_c, 0, 57, 95
3, 276480, Note_off_c, 0, 53, 95
3, 276480, Note_on_c, 0, 39, 95
3, 277440, Note_off_c, 0, 39, 95
3, 277440, Note_on_c, 0, 58, 95
3, 277440, Note_on_c, 0, 55, 95
3, 277440, Note_on_c, 0, 51, 95
3, 277440, Note_on_c, 0, 46, 95
3, 277440, Note_on_c, 0, 39, 95
3, 277920, Note_off_c, 0, 58, 95
3, 277920, Note_off_c, 0, 55, 95
3, 277920, Note_off_c, 0, 51, 95
3, 277920, Note_off_c, 0, 46, 95
3, 277920, Note_off_c, 0, 39, 95
3, 277920, Note_on_c, 0, 39, 95
3, 278400, Note_off_c, 0, 39, 95
3, 278400, Note_on_c, 0, 50, 95
3, 278880, Note_off_c, 0, 50, 95
3, 278880, Note_on_c, 0, 53, 95
3, 279120, Note_off_c, 0, 53, 95
3, 279120, Note_on_c, 0, 62, 95
3, 279360, Note_off_c, 0, 62, 95
3, 279360, Note_on_c, 0, 58, 95
3, 279600, Note_off_c, 0, 58, 95
3, 279600, Note_on_c, 0, 53, 47
3, 279840, Note_off_c, 0, 53, 47
3, 279840, Note_on_c, 0, 41, 95
3, 280320, Note_off_c, 0, 41, 95
3, 280320, Note_on_c, 0, 60, 95
3, 280320, Note_on_c, 0, 55, 95
3, 280320, Note_on_c, 0, 48, 95
3, 280800, Note_off_c, 0, 60, 95
3, 280800, Note_off_c, 0, 55, 95
3, 280800, Note_off_c, 0, 48, 95
3, 280800, Note_on_c, 0, 60, 95
3, 280800, Note_on_c, 0, 55, 95
3, 280800, Note_on_c, 0, 48, 95
3, 281040, Note_off_c, 0, 60, 95
3, 281040, Note_off_c, 0, 55, 95
3, 281040, Note_off_c, 0, 48, 95
3, 281040, Note_on_c, 0, 60, 95
3, 281040, Note_on_c, 0, 55, 95
3, 281040, Note_on_c, 0, 48, 95
3, 281280, Note_off_c, 0, 60, 95
3, 281280, Note_off_c, 0, 55, 95
3, 281280, Note_off_c, 0, 48, 95
3, 281280, Note_on_c, 0, 60, 95
3, 281280, Note_on_c, 0, 55, 95
3, 281280, Note_on_c, 0, 48, 95
3, 281760, Note_off_c, 0, 60, 95
3, 281760, Note_off_c, 0, 55, 95
3, 281760, Note_off_c, 0, 48, 95
3, 281760, Note_on_c, 0, 54, 95
3, 281760, Note_on_c, 0, 49, 95
3, 281760, Note_on_c, 0, 44, 95
3, 281799, Note_off_c, 0, 54, 95
3, 281799, Note_off_c, 0, 49, 95
3, 281799, Note_off_c, 0, 44, 95
3, 282000, Note_on_c, 0, 54, 95
3, 282000, Note_on_c, 0, 49, 95
3, 282000, Note_on_c, 0, 44, 95
3, 282039, Note_off_c, 0, 54, 95
3, 282039, Note_off_c, 0, 49, 95
3, 282039, Note_off_c, 0, 44, 95
3, 282240, Note_on_c, 0, 43, 95
3, 282480, Note_off_c, 0, 43, 95
3, 282480, Note_on_c, 0, 46, 70
3, 282720, Note_off_c, 0, 46, 70
3, 282720, Note_on_c, 0, 53, 95
3, 282720, Note_on_c, 0, 50, 95
3, 282720, Note_on_c, 0, 46, 95
3, 282960, Note_off_c, 0, 53, 95
3, 282960, Note_off_c, 0, 50, 95
3, 282960, Note_off_c, 0, 46, 95
3, 282960, Note_on_c, 0, 53, 95
3, 282960, Note_on_c, 0, 50, 95
3, 282960, Note_on_c, 0, 46, 95
3, 283200, Note_off_c, 0, 53, 95
3, 283200, Note_off_c, 0, 50, 95
3, 283200, Note_off_c, 0, 46, 95
3, 283200, Note_on_c, 0, 53, 95
3, 283200, Note_on_c, 0, 50, 95
3, 283200, Note_on_c, 0, 46, 95
3, 283680, Note_off_c, 0, 53, 95
3, 283680, Note_off_c, 0, 50, 95
3, 283680, Note_off_c, 0, 46, 95
3, 283680, Note_on_c, 0, 57, 95
3, 283680, Note_on_c, 0, 53, 95
3, 284160, Note_off_c, 0, 57, 95
3, 284160, Note_off_c, 0, 53, 95
3, 284160, Note_on_c, 0, 64, 47
3, 284160, Note_on_c, 0, 60, 95
3, 284160, Note_on_c, 0, 55, 95
3, 284160, Note_on_c, 0, 48, 95
3, 284640, Note_off_c, 0, 64, 47
3, 284640, Note_off_c, 0, 60, 95
3, 284640, Note_off_c, 0, 55, 95
3, 284640, Note_off_c, 0, 48, 95
3, 284640, Note_on_c, 0, 55, 95
3, 284640, Note_on_c, 0, 48, 95
3, 285120, Note_off_c, 0, 55, 95
3, 285120, Note_off_c, 0, 48, 95
3, 285120, Note_on_c, 0, 60, 95
3, 285120, Note_on_c, 0, 55, 95
3, 285120, Note_on_c, 0, 48, 95
3, 285600, Note_off_c, 0, 60, 95
3, 285600, Note_off_c, 0, 55, 95
3, 285600, Note_off_c, 0, 48, 95
3, 285600, Note_on_c, 0, 55, 95
3, 285600, Note_on_c, 0, 48, 95
3, 286080, Note_off_c, 0, 55, 95
3, 286080, Note_off_c, 0, 48, 95
3, 286080, Note_on_c, 0, 60, 95
3, 286080, Note_on_c, 0, 55, 95
3, 286080, Note_on_c, 0, 48, 95
3, 286560, Note_off_c, 0, 60, 95
3, 286560, Note_off_c, 0, 55, 95
3, 286560, Note_off_c, 0, 48, 95
3, 286560, Note_on_c, 0, 55, 95
3, 286560, Note_on_c, 0, 48, 95
3, 287040, Note_off_c, 0, 55, 95
3, 287040, Note_off_c, 0, 48, 95
3, 287040, Note_on_c, 0, 64, 95
3, 287040, Note_on_c, 0, 60, 95
3, 287040, Note_on_c, 0, 55, 95
3, 287040, Note_on_c, 0, 48, 95
3, 287520, Note_off_c, 0, 64, 95
3, 287520, Note_off_c, 0, 60, 95
3, 287520, Note_off_c, 0, 55, 95
3, 287520, Note_off_c, 0, 48, 95
3, 287520, Note_on_c, 0, 54, 95
3, 287520, Note_on_c, 0, 49, 95
3, 287520, Note_on_c, 0, 44, 95
3, 288000, Note_off_c, 0, 54, 95
3, 288000, Note_off_c, 0, 49, 95
3, 288000, Note_off_c, 0, 44, 95
3, 288000, Note_on_c, 0, 58, 95
3, 288000, Note_on_c, 0, 55, 95
3, 288000, Note_on_c, 0, 51, 95
3, 288000, Note_on_c, 0, 46, 95
3, 288000, Note_on_c, 0, 39, 95
3, 288480, Note_off_c, 0, 58, 95
3, 288480, Note_off_c, 0, 55, 95
3, 288480, Note_off_c, 0, 51, 95
3, 288480, Note_off_c, 0, 46, 95
3, 288480, Note_off_c, 0, 39, 95
3, 288480, Note_on_c, 0, 39, 95
3, 288960, Note_off_c, 0, 39, 95
3, 288960, Note_on_c, 0, 58, 95
3, 288960, Note_on_c, 0, 55, 95
3, 288960, Note_on_c, 0, 51, 95
3, 288960, Note_on_c, 0, 46, 95
3, 288960, Note_on_c, 0, 39, 95
3, 289440, Note_off_c, 0, 58, 95
3, 289440, Note_off_c, 0, 55, 95
3, 289440, Note_off_c, 0, 51, 95
3, 289440, Note_off_c, 0, 46, 95
3, 289440, Note_off_c, 0, 39, 95
3, 289440, Note_on_c, 0, 39, 95
3, 289680, Note_off_c, 0, 39, 95
3, 289680, Note_on_c, 0, 39, 95
3, 289920, Note_off_c, 0, 39, 95
3, 289920, Note_on_c, 0, 67, 47
3, 289920, Note_on_c, 0, 63, 95
3, 289920, Note_on_c, 0, 58, 95
3, 289920, Note_on_c, 0, 53, 95
3, 289920, Note_on_c, 0, 39, 95
3, 290160, Note_off_c, 0, 67, 47
3, 290160, Note_off_c, 0, 63, 95
3, 290160, Note_off_c, 0, 58, 95
3, 290160, Note_off_c, 0, 53, 95
3, 290160, Note_off_c, 0, 39, 95
3, 290160, Note_on_c, 0, 55, 70
3, 290400, Note_off_c, 0, 55, 70
3, 290400, Note_on_c, 0, 63, 95
3, 290400, Note_on_c, 0, 58, 95
3, 290400, Note_on_c, 0, 55, 95
3, 290400, Note_on_c, 0, 39, 95
3, 290640, Note_off_c, 0, 63, 95
3, 290640, Note_off_c, 0, 58, 95
3, 290640, Note_off_c, 0, 55, 95
3, 290640, Note_off_c, 0, 39, 95
3, 290640, Note_on_c, 0, 63, 95
3, 290640, Note_on_c, 0, 58, 95
3, 290640, Note_on_c, 0, 55, 95
3, 290640, Note_on_c, 0, 39, 95
3, 290880, Note_off_c, 0, 63, 95
3, 290880, Note_off_c, 0, 58, 95
3, 290880, Note_off_c, 0, 55, 95
3, 290880, Note_off_c, 0, 39, 95
3, 290880, Note_on_c, 0, 63, 95
3, 290880, Note_on_c, 0, 58, 95
3, 290880, Note_on_c, 0, 55, 95
3, 290880, Note_on_c, 0, 39, 95
3, 291360, Note_off_c, 0, 63, 95
3, 291360, Note_off_c, 0, 58, 95
3, 291360, Note_off_c, 0, 55, 95
3, 291360, Note_off_c, 0, 39, 95
3, 291360, Note_on_c, 1, 63, 95
3, 291360, Note_on_c, 1, 58, 95
3, 291360, Note_on_c, 1, 51, 95
3, 291480, Pitch_bend_c, 1, 8832
3, 291480, Pitch_bend_c, 1, 8832
3, 291480, Pitch_bend_c, 1, 8832
3, 291600, Pitch_bend_c, 1, 9600
3, 291600, Pitch_bend_c, 1, 8192
3, 291600, Note_off_c, 1, 63, 95
3, 291600, Pitch_bend_c, 1, 9600
3, 291600, Pitch_bend_c, 1, 8192
3, 291600, Note_off_c, 1, 58, 95
3, 291600, Pitch_bend_c, 1, 9600
3, 291600, Pitch_bend_c, 1, 8192
3, 291600, Note_off_c, 1, 51, 95
3, 291600, Note_on_c, 0, 65, 95
3, 291600, Note_on_c, 0, 60, 95
3, 291600, Note_on_c, 0, 53, 95
3, 291840, Note_off_c, 0, 65, 95
3, 291840, Note_off_c, 0, 60, 95
3, 291840, Note_off_c, 0, 53, 95
3, 291840, Note_on_c, 0, 65, 95
3, 291840, Note_on_c, 0, 60, 95
3, 291840, Note_on_c, 0, 53, 95
3, 292320, Note_off_c, 0, 65, 95
3, 292320, Note_off_c, 0, 60, 95
3, 292320, Note_off_c, 0, 53, 95
3, 292320, Note_on_c, 0, 54, 95
3, 292320, Note_on_c, 0, 49, 95
3, 292320, Note_on_c, 0, 44, 95
3, 292359, Note_off_c, 0, 54, 95
3, 292359, Note_off_c, 0, 49, 95
3, 292359, Note_off_c, 0, 44, 95
3, 292800, Note_on_c, 0, 57, 95
3, 292800, Note_on_c, 0, 53, 95
3, 292800, Note_on_c, 0, 48, 95
3, 292800, Note_on_c, 0, 41, 95
3, 293280, Note_off_c, 0, 57, 95
3, 293280, Note_off_c, 0, 53, 95
3, 293280, Note_off_c, 0, 48, 95
3, 293280, Note_off_c, 0, 41, 95
3, 293280, Note_on_c, 0, 65, 95
3, 293280, Note_on_c, 0, 60, 95
3, 293280, Note_on_c, 0, 57, 95
3, 293280, Note_on_c, 0, 53, 95
3, 293280, Note_on_c, 0, 48, 95
3, 293280, Note_on_c, 0, 41, 95
3, 293520, Note_off_c, 0, 65, 95
3, 293520, Note_off_c, 0, 60, 95
3, 293520, Note_off_c, 0, 57, 95
3, 293520, Note_off_c, 0, 53, 95
3, 293520, Note_off_c, 0, 48, 95
3, 293520, Note_off_c, 0, 41, 95
3, 293520, Note_on_c, 0, 65, 95
3, 293520, Note_on_c, 0, 60, 95
3, 293520, Note_on_c, 0, 57, 95
3, 293520, Note_on_c, 0, 53, 95
3, 293520, Note_on_c, 0, 48, 95
3, 293520, Note_on_c, 0, 41, 95
3, 293760, Note_off_c, 0, 65, 95
3, 293760, Note_off_c, 0, 60, 95
3, 293760, Note_off_c, 0, 57, 95
3, 293760, Note_off_c, 0, 53, 95
3, 293760, Note_off_c, 0, 48, 95
3, 293760, Note_off_c, 0, 41, 95
3, 293760, Note_on_c, 0, 65, 95
3, 293760, Note_on_c, 0, 60, 95
3, 293760, Note_on_c, 0, 57, 95
3, 293760, Note_on_c, 0, 53, 95
3, 293760, Note_on_c, 0, 48, 95
3, 293760, Note_on_c, 0, 41, 95
3, 294240, Note_off_c, 0, 65, 95
3, 294240, Note_off_c, 0, 60, 95
3, 294240, Note_off_c, 0, 57, 95
3, 294240, Note_off_c, 0, 53, 95
3, 294240, Note_off_c, 0, 48, 95
3, 294240, Note_off_c, 0, 41, 95
3, 294240, Note_on_c, 0, 65, 95
3, 294240, Note_on_c, 0, 60, 95
3, 294240, Note_on_c, 0, 57, 95
3, 294240, Note_on_c, 0, 53, 95
3, 294240, Note_on_c, 0, 48, 95
3, 294240, Note_on_c, 0, 41, 95
3, 294480, Note_off_c, 0, 65, 95
3, 294480, Note_off_c, 0, 60, 95
3, 294480, Note_off_c, 0, 57, 95
3, 294480, Note_off_c, 0, 53, 95
3, 294480, Note_off_c, 0, 48, 95
3, 294480, Note_off_c, 0, 41, 95
3, 294480, Note_on_c, 0, 65, 95
3, 294480, Note_on_c, 0, 60, 95
3, 294480, Note_on_c, 0, 57, 95
3, 294480, Note_on_c, 0, 53, 95
3, 294480, Note_on_c, 0, 48, 95
3, 294480, Note_on_c, 0, 41, 95
3, 294720, Note_off_c, 0, 65, 95
3, 294720, Note_off_c, 0, 60, 95
3, 294720, Note_off_c, 0, 57, 95
3, 294720, Note_off_c, 0, 53, 95
3, 294720, Note_off_c, 0, 48, 95
3, 294720, Note_off_c, 0, 41, 95
3, 294720, Note_on_c, 0, 65, 95
3, 294720, Note_on_c, 0, 60, 95
3, 294720, Note_on_c, 0, 57, 95
3, 294720, Note_on_c, 0, 53, 95
3, 294720, Note_on_c, 0, 48, 95
3, 294720, Note_on_c, 0, 41, 95
3, 294960, Note_off_c, 0, 65, 95
3, 294960, Note_off_c, 0, 60, 95
3, 294960, Note_off_c, 0, 57, 95
3, 294960, Note_off_c, 0, 53, 95
3, 294960, Note_off_c, 0, 48, 95
3, 294960, Note_off_c, 0, 41, 95
3, 294960, Note_on_c, 0, 65, 95
3, 294960, Note_on_c, 0, 60, 95
3, 294960, Note_on_c, 0, 57, 95
3, 294960, Note_on_c, 0, 53, 95
3, 294960, Note_on_c, 0, 48, 95
3, 294960, Note_on_c, 0, 41, 95
3, 295200, Note_off_c, 0, 65, 95
3, 295200, Note_off_c, 0, 60, 95
3, 295200, Note_off_c, 0, 57, 95
3, 295200, Note_off_c, 0, 53, 95
3, 295200, Note_off_c, 0, 48, 95
3, 295200, Note_off_c, 0, 41, 95
3, 295200, Note_on_c, 0, 65, 95
3, 295200, Note_on_c, 0, 60, 95
3, 295200, Note_on_c, 0, 57, 95
3, 295200, Note_on_c, 0, 53, 95
3, 295200, Note_on_c, 0, 48, 95
3, 295200, Note_on_c, 0, 41, 95
3, 295440, Note_off_c, 0, 65, 95
3, 295440, Note_off_c, 0, 60, 95
3, 295440, Note_off_c, 0, 57, 95
3, 295440, Note_off_c, 0, 53, 95
3, 295440, Note_off_c, 0, 48, 95
3, 295440, Note_off_c, 0, 41, 95
3, 295440, Note_on_c, 0, 65, 95
3, 295440, Note_on_c, 0, 60, 95
3, 295440, Note_on_c, 0, 57, 95
3, 295440, Note_on_c, 0, 53, 95
3, 295440, Note_on_c, 0, 48, 95
3, 295440, Note_on_c, 0, 41, 95
3, 295680, Note_off_c, 0, 65, 95
3, 295680, Note_off_c, 0, 60, 95
3, 295680, Note_off_c, 0, 57, 95
3, 295680, Note_off_c, 0, 53, 95
3, 295680, Note_off_c, 0, 48, 95
3, 295680, Note_off_c, 0, 41, 95
3, 295680, Note_on_c, 0, 65, 95
3, 295680, Note_on_c, 0, 60, 95
3, 295680, Note_on_c, 0, 57, 95
3, 295680, Note_on_c, 0, 53, 95
3, 295680, Note_on_c, 0, 48, 95
3, 295680, Note_on_c, 0, 41, 95
3, 295920, Note_off_c, 0, 65, 95
3, 295920, Note_off_c, 0, 60, 95
3, 295920, Note_off_c, 0, 57, 95
3, 295920, Note_off_c, 0, 53, 95
3, 295920, Note_off_c, 0, 48, 95
3, 295920, Note_off_c, 0, 41, 95
3, 295920, Note_on_c, 0, 65, 95
3, 295920, Note_on_c, 0, 60, 95
3, 295920, Note_on_c, 0, 57, 95
3, 295920, Note_on_c, 0, 53, 95
3, 295920, Note_on_c, 0, 48, 95
3, 295920, Note_on_c, 0, 41, 95
3, 296160, Note_off_c, 0, 65, 95
3, 296160, Note_off_c, 0, 60, 95
3, 296160, Note_off_c, 0, 57, 95
3, 296160, Note_off_c, 0, 53, 95
3, 296160, Note_off_c, 0, 48, 95
3, 296160, Note_off_c, 0, 41, 95
3, 296160, Note_on_c, 0, 65, 95
3, 296160, Note_on_c, 0, 60, 95
3, 296160, Note_on_c, 0, 57, 95
3, 296160, Note_on_c, 0, 53, 95
3, 296160, Note_on_c, 0, 48, 95
3, 296160, Note_on_c, 0, 41, 95
3, 296400, Note_off_c, 0, 65, 95
3, 296400, Note_off_c, 0, 60, 95
3, 296400, Note_off_c, 0, 57, 95
3, 296400, Note_off_c, 0, 53, 95
3, 296400, Note_off_c, 0, 48, 95
3, 296400, Note_off_c, 0, 41, 95
3, 296400, Note_on_c, 0, 65, 95
3, 296400, Note_on_c, 0, 60, 95
3, 296400, Note_on_c, 0, 57, 95
3, 296400, Note_on_c, 0, 53, 95
3, 296400, Note_on_c, 0, 48, 95
3, 296400, Note_on_c, 0, 41, 95
3, 296640, Note_off_c, 0, 65, 95
3, 296640, Note_off_c, 0, 60, 95
3, 296640, Note_off_c, 0, 57, 95
3, 296640, Note_off_c, 0, 53, 95
3, 296640, Note_off_c, 0, 48, 95
3, 296640, Note_off_c, 0, 41, 95
3, 296640, Note_on_c, 0, 65, 95
3, 296640, Note_on_c, 0, 60, 95
3, 296640, Note_on_c, 0, 57, 95
3, 296640, Note_on_c, 0, 53, 95
3, 296640, Note_on_c, 0, 48, 95
3, 296640, Note_on_c, 0, 41, 95
3, 296880, Note_off_c, 0, 65, 95
3, 296880, Note_off_c, 0, 60, 95
3, 296880, Note_off_c, 0, 57, 95
3, 296880, Note_off_c, 0, 53, 95
3, 296880, Note_off_c, 0, 48, 95
3, 296880, Note_off_c, 0, 41, 95
3, 296880, Note_on_c, 0, 65, 95
3, 296880, Note_on_c, 0, 60, 95
3, 296880, Note_on_c, 0, 57, 95
3, 296880, Note_on_c, 0, 53, 95
3, 296880, Note_on_c, 0, 48, 95
3, 296880, Note_on_c, 0, 41, 95
3, 297120, Note_off_c, 0, 65, 95
3, 297120, Note_off_c, 0, 60, 95
3, 297120, Note_off_c, 0, 57, 95
3, 297120, Note_off_c, 0, 53, 95
3, 297120, Note_off_c, 0, 48, 95
3, 297120, Note_off_c, 0, 41, 95
3, 297120, Note_on_c, 0, 65, 95
3, 297120, Note_on_c, 0, 60, 95
3, 297120, Note_on_c, 0, 57, 95
3, 297120, Note_on_c, 0, 53, 95
3, 297120, Note_on_c, 0, 48, 95
3, 297120, Note_on_c, 0, 41, 95
3, 297360, Note_off_c, 0, 65, 95
3, 297360, Note_off_c, 0, 60, 95
3, 297360, Note_off_c, 0, 57, 95
3, 297360, Note_off_c, 0, 53, 95
3, 297360, Note_off_c, 0, 48, 95
3, 297360, Note_off_c, 0, 41, 95
3, 297360, Note_on_c, 0, 65, 95
3, 297360, Note_on_c, 0, 60, 95
3, 297360, Note_on_c, 0, 57, 95
3, 297360, Note_on_c, 0, 53, 95
3, 297360, Note_on_c, 0, 48, 95
3, 297360, Note_on_c, 0, 41, 95
3, 297600, Note_off_c, 0, 65, 95
3, 297600, Note_off_c, 0, 60, 95
3, 297600, Note_off_c, 0, 57, 95
3, 297600, Note_off_c, 0, 53, 95
3, 297600, Note_off_c, 0, 48, 95
3, 297600, Note_off_c, 0, 41, 95
3, 297600, Note_on_c, 0, 65, 95
3, 297600, Note_on_c, 0, 60, 95
3, 297600, Note_on_c, 0, 57, 95
3, 297600, Note_on_c, 0, 53, 95
3, 297600, Note_on_c, 0, 48, 95
3, 297600, Note_on_c, 0, 41, 95
3, 297840, Note_off_c, 0, 65, 95
3, 297840, Note_off_c, 0, 60, 95
3, 297840, Note_off_c, 0, 57, 95
3, 297840, Note_off_c, 0, 53, 95
3, 297840, Note_off_c, 0, 48, 95
3, 297840, Note_off_c, 0, 41, 95
3, 297840, Note_on_c, 0, 65, 95
3, 297840, Note_on_c, 0, 60, 95
3, 297840, Note_on_c, 0, 57, 95
3, 297840, Note_on_c, 0, 53, 95
3, 297840, Note_on_c, 0, 48, 95
3, 297840, Note_on_c, 0, 41, 95
3, 298080, Note_off_c, 0, 65, 95
3, 298080, Note_off_c, 0, 60, 95
3, 298080, Note_off_c, 0, 57, 95
3, 298080, Note_off_c, 0, 53, 95
3, 298080, Note_off_c, 0, 48, 95
3, 298080, Note_off_c, 0, 41, 95
3, 298080, Note_on_c, 0, 65, 95
3, 298080, Note_on_c, 0, 60, 95
3, 298080, Note_on_c, 0, 57, 95
3, 298080, Note_on_c, 0, 53, 95
3, 298080, Note_on_c, 0, 48, 95
3, 298080, Note_on_c, 0, 41, 95
3, 298320, Note_off_c, 0, 65, 95
3, 298320, Note_off_c, 0, 60, 95
3, 298320, Note_off_c, 0, 57, 95
3, 298320, Note_off_c, 0, 53, 95
3, 298320, Note_off_c, 0, 48, 95
3, 298320, Note_off_c, 0, 41, 95
3, 298320, Note_on_c, 0, 65, 95
3, 298320, Note_on_c, 0, 60, 95
3, 298320, Note_on_c, 0, 57, 95
3, 298320, Note_on_c, 0, 53, 95
3, 298320, Note_on_c, 0, 48, 95
3, 298320, Note_on_c, 0, 41, 95
3, 298560, Note_off_c, 0, 65, 95
3, 298560, Note_off_c, 0, 60, 95
3, 298560, Note_off_c, 0, 57, 95
3, 298560, Note_off_c, 0, 53, 95
3, 298560, Note_off_c, 0, 48, 95
3, 298560, Note_off_c, 0, 41, 95
3, 298560, Note_on_c, 0, 65, 95
3, 298560, Note_on_c, 0, 60, 95
3, 298560, Note_on_c, 0, 57, 95
3, 298560, Note_on_c, 0, 53, 95
3, 298560, Note_on_c, 0, 48, 95
3, 298560, Note_on_c, 0, 41, 95
3, 298800, Note_off_c, 0, 65, 95
3, 298800, Note_off_c, 0, 60, 95
3, 298800, Note_off_c, 0, 57, 95
3, 298800, Note_off_c, 0, 53, 95
3, 298800, Note_off_c, 0, 48, 95
3, 298800, Note_off_c, 0, 41, 95
3, 298800, Note_on_c, 0, 65, 95
3, 298800, Note_on_c, 0, 60, 95
3, 298800, Note_on_c, 0, 57, 95
3, 298800, Note_on_c, 0, 53, 95
3, 298800, Note_on_c, 0, 48, 95
3, 298800, Note_on_c, 0, 41, 95
3, 299040, Note_off_c, 0, 65, 95
3, 299040, Note_off_c, 0, 60, 95
3, 299040, Note_off_c, 0, 57, 95
3, 299040, Note_off_c, 0, 53, 95
3, 299040, Note_off_c, 0, 48, 95
3, 299040, Note_off_c, 0, 41, 95
3, 299040, Note_on_c, 0, 65, 95
3, 299040, Note_on_c, 0, 60, 95
3, 299040, Note_on_c, 0, 57, 95
3, 299040, Note_on_c, 0, 53, 95
3, 299040, Note_on_c, 0, 48, 95
3, 299040, Note_on_c, 0, 41, 95
3, 299280, Note_off_c, 0, 65, 95
3, 299280, Note_off_c, 0, 60, 95
3, 299280, Note_off_c, 0, 57, 95
3, 299280, Note_off_c, 0, 53, 95
3, 299280, Note_off_c, 0, 48, 95
3, 299280, Note_off_c, 0, 41, 95
3, 299280, Note_on_c, 0, 65, 95
3, 299280, Note_on_c, 0, 60, 95
3, 299280, Note_on_c, 0, 57, 95
3, 299280, Note_on_c, 0, 53, 95
3, 299280, Note_on_c, 0, 48, 95
3, 299280, Note_on_c, 0, 41, 95
3, 299520, Note_off_c, 0, 65, 95
3, 299520, Note_off_c, 0, 60, 95
3, 299520, Note_off_c, 0, 57, 95
3, 299520, Note_off_c, 0, 53, 95
3, 299520, Note_off_c, 0, 48, 95
3, 299520, Note_off_c, 0, 41, 95
3, 299520, Note_on_c, 0, 62, 95
3, 299520, Note_on_c, 0, 58, 95
3, 299520, Note_on_c, 0, 53, 95
3, 299520, Note_on_c, 0, 46, 95
3, 300000, Note_off_c, 0, 62, 95
3, 300000, Note_off_c, 0, 58, 95
3, 300000, Note_off_c, 0, 53, 95
3, 300000, Note_off_c, 0, 46, 95
3, 300000, Note_on_c, 0, 62, 95
3, 300000, Note_on_c, 0, 58, 95
3, 300000, Note_on_c, 0, 53, 95
3, 300000, Note_on_c, 0, 46, 95
3, 300240, Note_off_c, 0, 62, 95
3, 300240, Note_off_c, 0, 58, 95
3, 300240, Note_off_c, 0, 53, 95
3, 300240, Note_off_c, 0, 46, 95
3, 300240, Note_on_c, 0, 62, 95
3, 300240, Note_on_c, 0, 58, 95
3, 300240, Note_on_c, 0, 53, 95
3, 300240, Note_on_c, 0, 46, 95
3, 300480, Note_off_c, 0, 62, 95
3, 300480, Note_off_c, 0, 58, 95
3, 300480, Note_off_c, 0, 53, 95
3, 300480, Note_off_c, 0, 46, 95
3, 300480, Note_on_c, 1, 62, 95
3, 300480, Note_on_c, 1, 58, 95
3, 300480, Note_on_c, 1, 53, 95
3, 300480, Note_on_c, 1, 46, 95
3, 300600, Pitch_bend_c, 1, 7552
3, 300600, Pitch_bend_c, 1, 7552
3, 300600, Pitch_bend_c, 1, 7552
3, 300600, Pitch_bend_c, 1, 7552
3, 300720, Pitch_bend_c, 1, 6784
3, 300720, Pitch_bend_c, 1, 8192
3, 300720, Note_off_c, 1, 62, 95
3, 300720, Pitch_bend_c, 1, 6784
3, 300720, Pitch_bend_c, 1, 8192
3, 300720, Note_off_c, 1, 58, 95
3, 300720, Pitch_bend_c, 1, 6784
3, 300720, Pitch_bend_c, 1, 8192
3, 300720, Note_off_c, 1, 53, 95
3, 300720, Pitch_bend_c, 1, 6784
3, 300720, Pitch_bend_c, 1, 8192
3, 300720, Note_off_c, 1, 46, 95
3, 300720, Note_on_c, 0, 60, 95
3, 300720, Note_on_c, 0, 56, 95
3, 300720, Note_on_c, 0, 51, 95
3, 300720, Note_on_c, 0, 44, 47
3, 300960, Note_off_c, 0, 60, 95
3, 300960, Note_off_c, 0, 56, 95
3, 300960, Note_off_c, 0, 51, 95
3, 300960, Note_off_c, 0, 44, 47
3, 300960, Note_on_c, 0, 60, 95
3, 300960, Note_on_c, 0, 56, 95
3, 300960, Note_on_c, 0, 51, 95
3, 300960, Note_on_c, 0, 44, 95
3, 301440, Note_off_c, 0, 60, 95
3, 301440, Note_off_c, 0, 56, 95
3, 301440, Note_off_c, 0, 51, 95
3, 301440, Note_off_c, 0, 44, 95
3, 301440, Note_on_c, 0, 63, 95
3, 301440, Note_on_c, 0, 58, 95
3, 301440, Note_on_c, 0, 55, 95
3, 301440, Note_on_c, 0, 51, 95
3, 301440, Note_on_c, 0, 46, 95
3, 301440, Note_on_c, 0, 39, 95
3, 301920, Note_off_c, 0, 63, 95
3, 301920, Note_off_c, 0, 58, 95
3, 301920, Note_off_c, 0, 55, 95
3, 301920, Note_off_c, 0, 51, 95
3, 301920, Note_off_c, 0, 46, 95
3, 301920, Note_off_c, 0, 39, 95
3, 301920, Note_on_c, 0, 63, 95
3, 301920, Note_on_c, 0, 58, 95
3, 301920, Note_on_c, 0, 55, 95
3, 301920, Note_on_c, 0, 51, 95
3, 301920, Note_on_c, 0, 46, 95
3, 301920, Note_on_c, 0, 39, 95
3, 302160, Note_off_c, 0, 63, 95
3, 302160, Note_off_c, 0, 58, 95
3, 302160, Note_off_c, 0, 55, 95
3, 302160, Note_off_c, 0, 51, 95
3, 302160, Note_off_c, 0, 46, 95
3, 302160, Note_off_c, 0, 39, 95
3, 302160, Note_on_c, 0, 63, 95
3, 302160, Note_on_c, 0, 58, 95
3, 302160, Note_on_c, 0, 55, 95
3, 302160, Note_on_c, 0, 51, 95
3, 302160, Note_on_c, 0, 46, 95
3, 302160, Note_on_c, 0, 39, 95
3, 302400, Note_off_c, 0, 63, 95
3, 302400, Note_off_c, 0, 58, 95
3, 302400, Note_off_c, 0, 55, 95
3, 302400, Note_off_c, 0, 51, 95
3, 302400, Note_off_c, 0, 46, 95
3, 302400, Note_off_c, 0, 39, 95
3, 302400, Note_on_c, 0, 63, 95
3, 302400, Note_on_c, 0, 58, 95
3, 302400, Note_on_c, 0, 55, 95
3, 302400, Note_on_c, 0, 51, 95
3, 302400, Note_on_c, 0, 46, 95
3, 302400, Note_on_c, 0, 39, 95
3, 302880, Note_off_c, 0, 63, 95
3, 302880, Note_off_c, 0, 58, 95
3, 302880, Note_off_c, 0, 55, 95
3, 302880, Note_off_c, 0, 51, 95
3, 302880, Note_off_c, 0, 46, 95
3, 302880, Note_off_c, 0, 39, 95
3, 302880, Note_on_c, 0, 63, 95
3, 302880, Note_on_c, 0, 58, 95
3, 302880, Note_on_c, 0, 55, 95
3, 302880, Note_on_c, 0, 51, 95
3, 302880, Note_on_c, 0, 46, 95
3, 302880, Note_on_c, 0, 39, 95
3, 303360, Note_off_c, 0, 63, 95
3, 303360, Note_off_c, 0, 58, 95
3, 303360, Note_off_c, 0, 55, 95
3, 303360, Note_off_c, 0, 51, 95
3, 303360, Note_off_c, 0, 46, 95
3, 303360, Note_off_c, 0, 39, 95
3, 303360, Note_on_c, 0, 69, 95
3, 303360, Note_on_c, 0, 65, 95
3, 303360, Note_on_c, 0, 60, 95
3, 303360, Note_on_c, 0, 53, 95
3, 303840, Note_off_c, 0, 69, 95
3, 303840, Note_off_c, 0, 65, 95
3, 303840, Note_off_c, 0, 60, 95
3, 303840, Note_off_c, 0, 53, 95
3, 303840, Note_on_c, 0, 69, 95
3, 303840, Note_on_c, 0, 65, 95
3, 303840, Note_on_c, 0, 60, 95
3, 303840, Note_on_c, 0, 53, 95
3, 304080, Note_off_c, 0, 69, 95
3, 304080, Note_off_c, 0, 65, 95
3, 304080, Note_off_c, 0, 60, 95
3, 304080, Note_off_c, 0, 53, 95
3, 304080, Note_on_c, 0, 69, 95
3, 304080, Note_on_c, 0, 65, 95
3, 304080, Note_on_c, 0, 60, 95
3, 304080, Note_on_c, 0, 53, 95
3, 304320, Note_off_c, 0, 69, 95
3, 304320, Note_off_c, 0, 65, 95
3, 304320, Note_off_c, 0, 60, 95
3, 304320, Note_off_c, 0, 53, 95
3, 304320, Note_on_c, 0, 69, 95
3, 304320, Note_on_c, 0, 65, 95
3, 304320, Note_on_c, 0, 60, 95
3, 304320, Note_on_c, 0, 53, 95
3, 304800, Note_off_c, 0, 69, 95
3, 304800, Note_off_c, 0, 65, 95
3, 304800, Note_off_c, 0, 60, 95
3, 304800, Note_off_c, 0, 53, 95
3, 304800, Note_on_c, 0, 69, 95
3, 304800, Note_on_c, 0, 65, 95
3, 304800, Note_on_c, 0, 60, 95
3, 304800, Note_on_c, 0, 53, 95
3, 305040, Note_off_c, 0, 69, 95
3, 305040, Note_off_c, 0, 65, 95
3, 305040, Note_off_c, 0, 60, 95
3, 305040, Note_off_c, 0, 53, 95
3, 305040, Note_on_c, 0, 69, 95
3, 305040, Note_on_c, 0, 65, 95
3, 305040, Note_on_c, 0, 60, 95
3, 305040, Note_on_c, 0, 53, 95
3, 305280, Note_off_c, 0, 69, 95
3, 305280, Note_off_c, 0, 65, 95
3, 305280, Note_off_c, 0, 60, 95
3, 305280, Note_off_c, 0, 53, 95
3, 305280, Note_on_c, 1, 67, 95
3, 305280, Note_on_c, 1, 63, 95
3, 305280, Note_on_c, 1, 58, 95
3, 305280, Note_on_c, 1, 51, 95
3, 305400, Pitch_bend_c, 1, 8832
3, 305400, Pitch_bend_c, 1, 8832
3, 305400, Pitch_bend_c, 1, 8832
3, 305400, Pitch_bend_c, 1, 8832
3, 305520, Pitch_bend_c, 1, 9600
3, 305520, Pitch_bend_c, 1, 8192
3, 305520, Note_off_c, 1, 67, 95
3, 305520, Pitch_bend_c, 1, 9600
3, 305520, Pitch_bend_c, 1, 8192
3, 305520, Note_off_c, 1, 63, 95
3, 305520, Pitch_bend_c, 1, 9600
3, 305520, Pitch_bend_c, 1, 8192
3, 305520, Note_off_c, 1, 58, 95
3, 305520, Pitch_bend_c, 1, 9600
3, 305520, Pitch_bend_c, 1, 8192
3, 305520, Note_off_c, 1, 51, 95
3, 305520, Note_on_c, 0, 69, 95
3, 305520, Note_on_c, 0, 65, 95
3, 305520, Note_on_c, 0, 60, 95
3, 305520, Note_on_c, 0, 53, 95
3, 305760, Note_off_c, 0, 69, 95
3, 305760, Note_off_c, 0, 65, 95
3, 305760, Note_off_c, 0, 60, 95
3, 305760, Note_off_c, 0, 53, 95
3, 305760, Note_on_c, 0, 69, 95
3, 305760, Note_on_c, 0, 65, 95
3, 305760, Note_on_c, 0, 60, 95
3, 305760, Note_on_c, 0, 53, 95
3, 306000, Note_off_c, 0, 69, 95
3, 306000, Note_off_c, 0, 65, 95
3, 306000, Note_off_c, 0, 60, 95
3, 306000, Note_off_c, 0, 53, 95
3, 306000, Note_on_c, 0, 69, 95
3, 306000, Note_on_c, 0, 65, 95
3, 306000, Note_on_c, 0, 60, 95
3, 306000, Note_on_c, 0, 53, 95
3, 306240, Note_off_c, 0, 69, 95
3, 306240, Note_off_c, 0, 65, 95
3, 306240, Note_off_c, 0, 60, 95
3, 306240, Note_off_c, 0, 53, 95
3, 306240, Note_on_c, 0, 69, 95
3, 306240, Note_on_c, 0, 65, 95
3, 306240, Note_on_c, 0, 60, 95
3, 306240, Note_on_c, 0, 53, 95
3, 306480, Note_off_c, 0, 69, 95
3, 306480, Note_off_c, 0, 65, 95
3, 306480, Note_off_c, 0, 60, 95
3, 306480, Note_off_c, 0, 53, 95
3, 306480, Note_on_c, 0, 69, 95
3, 306480, Note_on_c, 0, 65, 95
3, 306480, Note_on_c, 0, 60, 95
3, 306480, Note_on_c, 0, 53, 95
3, 306720, Note_off_c, 0, 69, 95
3, 306720, Note_off_c, 0, 65, 95
3, 306720, Note_off_c, 0, 60, 95
3, 306720, Note_off_c, 0, 53, 95
3, 306720, Note_on_c, 0, 69, 95
3, 306720, Note_on_c, 0, 65, 95
3, 306720, Note_on_c, 0, 60, 95
3, 306720, Note_on_c, 0, 53, 95
3, 306960, Note_off_c, 0, 69, 95
3, 306960, Note_off_c, 0, 65, 95
3, 306960, Note_off_c, 0, 60, 95
3, 306960, Note_off_c, 0, 53, 95
3, 306960, Note_on_c, 0, 69, 95
3, 306960, Note_on_c, 0, 65, 95
3, 306960, Note_on_c, 0, 60, 95
3, 306960, Note_on_c, 0, 53, 95
3, 307200, Note_off_c, 0, 69, 95
3, 307200, Note_off_c, 0, 65, 95
3, 307200, Note_off_c, 0, 60, 95
3, 307200, Note_off_c, 0, 53, 95
3, 307200, Note_on_c, 0, 62, 95
3, 307200, Note_on_c, 0, 58, 95
3, 307200, Note_on_c, 0, 53, 95
3, 307200, Note_on_c, 0, 46, 95
3, 307680, Note_off_c, 0, 62, 95
3, 307680, Note_off_c, 0, 58, 95
3, 307680, Note_off_c, 0, 53, 95
3, 307680, Note_off_c, 0, 46, 95
3, 307680, Note_on_c, 0, 62, 95
3, 307680, Note_on_c, 0, 58, 95
3, 307680, Note_on_c, 0, 53, 95
3, 307680, Note_on_c, 0, 46, 95
3, 307920, Note_off_c, 0, 62, 95
3, 307920, Note_off_c, 0, 58, 95
3, 307920, Note_off_c, 0, 53, 95
3, 307920, Note_off_c, 0, 46, 95
3, 307920, Note_on_c, 0, 62, 95
3, 307920, Note_on_c, 0, 58, 95
3, 307920, Note_on_c, 0, 53, 95
3, 307920, Note_on_c, 0, 46, 95
3, 308160, Note_off_c, 0, 62, 95
3, 308160, Note_off_c, 0, 58, 95
3, 308160, Note_off_c, 0, 53, 95
3, 308160, Note_off_c, 0, 46, 95
3, 308160, Note_on_c, 1, 62, 95
3, 308160, Note_on_c, 1, 58, 95
3, 308160, Note_on_c, 1, 53, 95
3, 308160, Note_on_c, 1, 46, 95
3, 308280, Pitch_bend_c, 1, 7552
3, 308280, Pitch_bend_c, 1, 7552
3, 308280, Pitch_bend_c, 1, 7552
3, 308280, Pitch_bend_c, 1, 7552
3, 308400, Pitch_bend_c, 1, 6784
3, 308400, Pitch_bend_c, 1, 8192
3, 308400, Note_off_c, 1, 62, 95
3, 308400, Pitch_bend_c, 1, 6784
3, 308400, Pitch_bend_c, 1, 8192
3, 308400, Note_off_c, 1, 58, 95
3, 308400, Pitch_bend_c, 1, 6784
3, 308400, Pitch_bend_c, 1, 8192
3, 308400, Note_off_c, 1, 53, 95
3, 308400, Pitch_bend_c, 1, 6784
3, 308400, Pitch_bend_c, 1, 8192
3, 308400, Note_off_c, 1, 46, 95
3, 308400, Note_on_c, 0, 60, 95
3, 308400, Note_on_c, 0, 56, 95
3, 308400, Note_on_c, 0, 51, 95
3, 308400, Note_on_c, 0, 44, 47
3, 308640, Note_off_c, 0, 60, 95
3, 308640, Note_off_c, 0, 56, 95
3, 308640, Note_off_c, 0, 51, 95
3, 308640, Note_off_c, 0, 44, 47
3, 308640, Note_on_c, 0, 60, 95
3, 308640, Note_on_c, 0, 56, 95
3, 308640, Note_on_c, 0, 51, 95
3, 308640, Note_on_c, 0, 44, 95
3, 309120, Note_off_c, 0, 60, 95
3, 309120, Note_off_c, 0, 56, 95
3, 309120, Note_off_c, 0, 51, 95
3, 309120, Note_off_c, 0, 44, 95
3, 309120, Note_on_c, 0, 67, 95
3, 309120, Note_on_c, 0, 63, 95
3, 309120, Note_on_c, 0, 58, 95
3, 309120, Note_on_c, 0, 53, 95
3, 309120, Note_on_c, 0, 39, 95
3, 309360, Note_off_c, 0, 67, 95
3, 309360, Note_off_c, 0, 63, 95
3, 309360, Note_off_c, 0, 58, 95
3, 309360, Note_off_c, 0, 53, 95
3, 309360, Note_off_c, 0, 39, 95
3, 309360, Note_on_c, 0, 55, 70
3, 309360, Note_on_c, 0, 39, 95
3, 309600, Note_off_c, 0, 55, 70
3, 309600, Note_off_c, 0, 39, 95
3, 309600, Note_on_c, 0, 67, 95
3, 309600, Note_on_c, 0, 63, 95
3, 309600, Note_on_c, 0, 58, 95
3, 309600, Note_on_c, 0, 55, 95
3, 309600, Note_on_c, 0, 39, 95
3, 309840, Note_off_c, 0, 67, 95
3, 309840, Note_off_c, 0, 63, 95
3, 309840, Note_off_c, 0, 58, 95
3, 309840, Note_off_c, 0, 55, 95
3, 309840, Note_off_c, 0, 39, 95
3, 309840, Note_on_c, 0, 67, 95
3, 309840, Note_on_c, 0, 63, 95
3, 309840, Note_on_c, 0, 58, 95
3, 309840, Note_on_c, 0, 55, 95
3, 309840, Note_on_c, 0, 39, 95
3, 310080, Note_off_c, 0, 67, 95
3, 310080, Note_off_c, 0, 63, 95
3, 310080, Note_off_c, 0, 58, 95
3, 310080, Note_off_c, 0, 55, 95
3, 310080, Note_off_c, 0, 39, 95
3, 310080, Note_on_c, 0, 67, 95
3, 310080, Note_on_c, 0, 63, 95
3, 310080, Note_on_c, 0, 58, 95
3, 310080, Note_on_c, 0, 55, 95
3, 310080, Note_on_c, 0, 39, 95
3, 310320, Note_off_c, 0, 67, 95
3, 310320, Note_off_c, 0, 63, 95
3, 310320, Note_off_c, 0, 58, 95
3, 310320, Note_off_c, 0, 55, 95
3, 310320, Note_off_c, 0, 39, 95
3, 310320, Note_on_c, 0, 58, 95
3, 310320, Note_on_c, 0, 54, 95
3, 310320, Note_on_c, 0, 49, 95
3, 310320, Note_on_c, 0, 44, 95
3, 310359, Note_off_c, 0, 58, 95
3, 310359, Note_off_c, 0, 54, 95
3, 310359, Note_off_c, 0, 49, 95
3, 310359, Note_off_c, 0, 44, 95
3, 310560, Note_on_c, 0, 53, 95
3, 310800, Note_off_c, 0, 53, 95
3, 310800, Note_on_c, 0, 55, 70
3, 311040, Note_off_c, 0, 55, 70
3, 311040, Note_on_c, 0, 65, 95
3, 311040, Note_on_c, 0, 60, 95
3, 311040, Note_on_c, 0, 53, 95
3, 311520, Note_off_c, 0, 65, 95
3, 311520, Note_off_c, 0, 60, 95
3, 311520, Note_off_c, 0, 53, 95
3, 311520, Note_on_c, 0, 65, 95
3, 311520, Note_on_c, 0, 60, 95
3, 311520, Note_on_c, 0, 53, 95
3, 311760, Note_off_c, 0, 65, 95
3, 311760, Note_off_c, 0, 60, 95
3, 311760, Note_off_c, 0, 53, 95
3, 311760, Note_on_c, 0, 65, 95
3, 311760, Note_on_c, 0, 60, 95
3, 311760, Note_on_c, 0, 53, 95
3, 312000, Note_off_c, 0, 65, 95
3, 312000, Note_off_c, 0, 60, 95
3, 312000, Note_off_c, 0, 53, 95
3, 312000, Note_on_c, 0, 65, 95
3, 312000, Note_on_c, 0, 60, 95
3, 312000, Note_on_c, 0, 53, 95
3, 312480, Note_off_c, 0, 65, 95
3, 312480, Note_off_c, 0, 60, 95
3, 312480, Note_off_c, 0, 53, 95
3, 312480, Note_on_c, 0, 65, 95
3, 312480, Note_on_c, 0, 60, 95
3, 312480, Note_on_c, 0, 53, 95
3, 312519, Note_off_c, 0, 65, 95
3, 312519, Note_off_c, 0, 60, 95
3, 312519, Note_off_c, 0, 53, 95
3, 312720, Note_on_c, 0, 65, 95
3, 312720, Note_on_c, 0, 60, 95
3, 312720, Note_on_c, 0, 53, 95
3, 312759, Note_off_c, 0, 65, 95
3, 312759, Note_off_c, 0, 60, 95
3, 312759, Note_off_c, 0, 53, 95
3, 312960, Note_on_c, 0, 65, 95
3, 312960, Note_on_c, 0, 60, 95
3, 312960, Note_on_c, 0, 57, 95
3, 312960, Note_on_c, 0, 53, 95
3, 312960, Note_on_c, 0, 48, 95
3, 312960, Note_on_c, 0, 41, 95
3, 313200, Note_off_c, 0, 65, 95
3, 313200, Note_off_c, 0, 60, 95
3, 313200, Note_off_c, 0, 57, 95
3, 313200, Note_off_c, 0, 53, 95
3, 313200, Note_off_c, 0, 48, 95
3, 313200, Note_off_c, 0, 41, 95
3, 313200, Note_on_c, 0, 65, 95
3, 313200, Note_on_c, 0, 60, 95
3, 313200, Note_on_c, 0, 57, 95
3, 313200, Note_on_c, 0, 53, 95
3, 313200, Note_on_c, 0, 48, 95
3, 313200, Note_on_c, 0, 41, 95
3, 313440, Note_off_c, 0, 65, 95
3, 313440, Note_off_c, 0, 60, 95
3, 313440, Note_off_c, 0, 57, 95
3, 313440, Note_off_c, 0, 53, 95
3, 313440, Note_off_c, 0, 48, 95
3, 313440, Note_off_c, 0, 41, 95
3, 313440, Note_on_c, 0, 65, 95
3, 313440, Note_on_c, 0, 60, 95
3, 313440, Note_on_c, 0, 57, 95
3, 313440, Note_on_c, 0, 53, 95
3, 313440, Note_on_c, 0, 48, 95
3, 313440, Note_on_c, 0, 41, 95
3, 313680, Note_off_c, 0, 65, 95
3, 313680, Note_off_c, 0, 60, 95
3, 313680, Note_off_c, 0, 57, 95
3, 313680, Note_off_c, 0, 53, 95
3, 313680, Note_off_c, 0, 48, 95
3, 313680, Note_off_c, 0, 41, 95
3, 313680, Note_on_c, 0, 65, 95
3, 313680, Note_on_c, 0, 60, 95
3, 313680, Note_on_c, 0, 57, 95
3, 313680, Note_on_c, 0, 53, 95
3, 313680, Note_on_c, 0, 48, 95
3, 313680, Note_on_c, 0, 41, 95
3, 313920, Note_off_c, 0, 65, 95
3, 313920, Note_off_c, 0, 60, 95
3, 313920, Note_off_c, 0, 57, 95
3, 313920, Note_off_c, 0, 53, 95
3, 313920, Note_off_c, 0, 48, 95
3, 313920, Note_off_c, 0, 41, 95
3, 313920, Note_on_c, 0, 65, 95
3, 313920, Note_on_c, 0, 60, 95
3, 313920, Note_on_c, 0, 57, 95
3, 313920, Note_on_c, 0, 53, 95
3, 313920, Note_on_c, 0, 48, 95
3, 313920, Note_on_c, 0, 41, 95
3, 314160, Note_off_c, 0, 65, 95
3, 314160, Note_off_c, 0, 60, 95
3, 314160, Note_off_c, 0, 57, 95
3, 314160, Note_off_c, 0, 53, 95
3, 314160, Note_off_c, 0, 48, 95
3, 314160, Note_off_c, 0, 41, 95
3, 314160, Note_on_c, 0, 65, 95
3, 314160, Note_on_c, 0, 60, 95
3, 314160, Note_on_c, 0, 57, 95
3, 314160, Note_on_c, 0, 53, 95
3, 314160, Note_on_c, 0, 48, 95
3, 314160, Note_on_c, 0, 41, 95
3, 314400, Note_off_c, 0, 65, 95
3, 314400, Note_off_c, 0, 60, 95
3, 314400, Note_off_c, 0, 57, 95
3, 314400, Note_off_c, 0, 53, 95
3, 314400, Note_off_c, 0, 48, 95
3, 314400, Note_off_c, 0, 41, 95
3, 314400, Note_on_c, 0, 65, 95
3, 314400, Note_on_c, 0, 60, 95
3, 314400, Note_on_c, 0, 57, 95
3, 314400, Note_on_c, 0, 53, 95
3, 314400, Note_on_c, 0, 48, 95
3, 314400, Note_on_c, 0, 41, 95
3, 314640, Note_off_c, 0, 65, 95
3, 314640, Note_off_c, 0, 60, 95
3, 314640, Note_off_c, 0, 57, 95
3, 314640, Note_off_c, 0, 53, 95
3, 314640, Note_off_c, 0, 48, 95
3, 314640, Note_off_c, 0, 41, 95
3, 314640, Note_on_c, 1, 65, 95
3, 314640, Note_on_c, 1, 60, 95
3, 314640, Note_on_c, 1, 57, 95
3, 314640, Note_on_c, 1, 53, 95
3, 314640, Note_on_c, 0, 48, 95
3, 314640, Note_on_c, 1, 41, 95
3, 314760, Pitch_bend_c, 1, 9856
3, 314760, Pitch_bend_c, 1, 9856
3, 314760, Pitch_bend_c, 1, 9856
3, 314760, Pitch_bend_c, 1, 9856
3, 314760, Pitch_bend_c, 1, 9856
3, 314880, Pitch_bend_c, 1, 11648
3, 314880, Pitch_bend_c, 1, 8192
3, 314880, Note_off_c, 1, 65, 95
3, 314880, Pitch_bend_c, 1, 11648
3, 314880, Pitch_bend_c, 1, 8192
3, 314880, Note_off_c, 1, 60, 95
3, 314880, Pitch_bend_c, 1, 11648
3, 314880, Pitch_bend_c, 1, 8192
3, 314880, Note_off_c, 1, 57, 95
3, 314880, Pitch_bend_c, 1, 11648
3, 314880, Pitch_bend_c, 1, 8192
3, 314880, Note_off_c, 1, 53, 95
3, 314880, Note_off_c, 0, 48, 95
3, 314880, Pitch_bend_c, 1, 11648
3, 314880, Pitch_bend_c, 1, 8192
3, 314880, Note_off_c, 1, 41, 95
3, 314880, Note_on_c, 0, 70, 95
3, 314880, Note_on_c, 0, 65, 95
3, 314880, Note_on_c, 0, 62, 95
3, 314880, Note_on_c, 0, 58, 95
3, 314880, Note_on_c, 0, 46, 95
3, 315120, Note_off_c, 0, 70, 95
3, 315120, Note_off_c, 0, 65, 95
3, 315120, Note_off_c, 0, 62, 95
3, 315120, Note_off_c, 0, 58, 95
3, 315120, Note_off_c, 0, 46, 95
3, 315120, Note_on_c, 0, 70, 95
3, 315120, Note_on_c, 0, 65, 95
3, 315120, Note_on_c, 0, 62, 95
3, 315120, Note_on_c, 0, 58, 95
3, 315120, Note_on_c, 0, 46, 95
3, 315360, Note_off_c, 0, 70, 95
3, 315360, Note_off_c, 0, 65, 95
3, 315360, Note_off_c, 0, 62, 95
3, 315360, Note_off_c, 0, 58, 95
3, 315360, Note_off_c, 0, 46, 95
3, 315360, Note_on_c, 0, 70, 95
3, 315360, Note_on_c, 0, 65, 95
3, 315360, Note_on_c, 0, 62, 95
3, 315360, Note_on_c, 0, 58, 95
3, 315360, Note_on_c, 0, 46, 95
3, 315600, Note_off_c, 0, 70, 95
3, 315600, Note_off_c, 0, 65, 95
3, 315600, Note_off_c, 0, 62, 95
3, 315600, Note_off_c, 0, 58, 95
3, 315600, Note_off_c, 0, 46, 95
3, 315600, Note_on_c, 0, 70, 95
3, 315600, Note_on_c, 0, 65, 95
3, 315600, Note_on_c, 0, 62, 95
3, 315600, Note_on_c, 0, 58, 95
3, 315600, Note_on_c, 0, 46, 95
3, 315840, Note_off_c, 0, 70, 95
3, 315840, Note_off_c, 0, 65, 95
3, 315840, Note_off_c, 0, 62, 95
3, 315840, Note_off_c, 0, 58, 95
3, 315840, Note_off_c, 0, 46, 95
3, 315840, Note_on_c, 0, 70, 95
3, 315840, Note_on_c, 0, 65, 95
3, 315840, Note_on_c, 0, 62, 95
3, 315840, Note_on_c, 0, 58, 95
3, 315840, Note_on_c, 0, 46, 95
3, 316080, Note_off_c, 0, 70, 95
3, 316080, Note_off_c, 0, 65, 95
3, 316080, Note_off_c, 0, 62, 95
3, 316080, Note_off_c, 0, 58, 95
3, 316080, Note_off_c, 0, 46, 95
3, 316080, Note_on_c, 0, 70, 95
3, 316080, Note_on_c, 0, 65, 95
3, 316080, Note_on_c, 0, 62, 95
3, 316080, Note_on_c, 0, 58, 95
3, 316080, Note_on_c, 0, 46, 95
3, 316320, Note_off_c, 0, 70, 95
3, 316320, Note_off_c, 0, 65, 95
3, 316320, Note_off_c, 0, 62, 95
3, 316320, Note_off_c, 0, 58, 95
3, 316320, Note_off_c, 0, 46, 95
3, 316320, Note_on_c, 0, 70, 95
3, 316320, Note_on_c, 0, 65, 95
3, 316320, Note_on_c, 0, 62, 95
3, 316320, Note_on_c, 0, 58, 95
3, 316320, Note_on_c, 0, 46, 95
3, 316560, Note_off_c, 0, 70, 95
3, 316560, Note_off_c, 0, 65, 95
3, 316560, Note_off_c, 0, 62, 95
3, 316560, Note_off_c, 0, 58, 95
3, 316560, Note_off_c, 0, 46, 95
3, 316560, Note_on_c, 0, 70, 95
3, 316560, Note_on_c, 0, 65, 95
3, 316560, Note_on_c, 0, 62, 95
3, 316560, Note_on_c, 0, 58, 95
3, 316560, Note_on_c, 0, 46, 95
3, 316800, Note_off_c, 0, 70, 95
3, 316800, Note_off_c, 0, 65, 95
3, 316800, Note_off_c, 0, 62, 95
3, 316800, Note_off_c, 0, 58, 95
3, 316800, Note_off_c, 0, 46, 95
3, 316800, Note_on_c, 0, 70, 95
3, 316800, Note_on_c, 0, 65, 95
3, 316800, Note_on_c, 0, 62, 95
3, 316800, Note_on_c, 0, 58, 95
3, 317040, Note_off_c, 0, 70, 95
3, 317040, Note_off_c, 0, 65, 95
3, 317040, Note_off_c, 0, 62, 95
3, 317040, Note_off_c, 0, 58, 95
3, 317040, Note_on_c, 0, 70, 95
3, 317040, Note_on_c, 0, 65, 95
3, 317040, Note_on_c, 0, 63, 70
3, 317040, Note_on_c, 0, 58, 95
3, 317280, Note_off_c, 0, 70, 95
3, 317280, Note_off_c, 0, 65, 95
3, 317280, Note_off_c, 0, 63, 70
3, 317280, Note_off_c, 0, 58, 95
3, 317280, Note_on_c, 0, 70, 95
3, 317280, Note_on_c, 0, 65, 95
3, 317280, Note_on_c, 0, 63, 95
3, 317280, Note_on_c, 0, 58, 95
3, 317520, Note_off_c, 0, 70, 95
3, 317520, Note_off_c, 0, 65, 95
3, 317520, Note_off_c, 0, 63, 95
3, 317520, Note_off_c, 0, 58, 95
3, 317520, Note_on_c, 0, 70, 95
3, 317520, Note_on_c, 0, 65, 95
3, 317520, Note_on_c, 0, 63, 95
3, 317520, Note_on_c, 0, 58, 95
3, 317760, Note_off_c, 0, 70, 95
3, 317760, Note_off_c, 0, 65, 95
3, 317760, Note_off_c, 0, 63, 95
3, 317760, Note_off_c, 0, 58, 95
3, 317760, Note_on_c, 0, 70, 95
3, 317760, Note_on_c, 0, 65, 95
3, 317760, Note_on_c, 0, 63, 95
3, 317760, Note_on_c, 0, 58, 95
3, 318000, Note_off_c, 0, 70, 95
3, 318000, Note_off_c, 0, 65, 95
3, 318000, Note_off_c, 0, 63, 95
3, 318000, Note_off_c, 0, 58, 95
3, 318000, Note_on_c, 0, 70, 95
3, 318000, Note_on_c, 0, 65, 95
3, 318000, Note_on_c, 0, 63, 95
3, 318000, Note_on_c, 0, 58, 95
3, 318240, Note_off_c, 0, 70, 95
3, 318240, Note_off_c, 0, 65, 95
3, 318240, Note_off_c, 0, 63, 95
3, 318240, Note_off_c, 0, 58, 95
3, 318240, Note_on_c, 0, 70, 95
3, 318240, Note_on_c, 0, 65, 95
3, 318240, Note_on_c, 0, 63, 95
3, 318240, Note_on_c, 0, 58, 95
3, 318480, Note_off_c, 0, 70, 95
3, 318480, Note_off_c, 0, 65, 95
3, 318480, Note_off_c, 0, 63, 95
3, 318480, Note_off_c, 0, 58, 95
3, 318480, Note_on_c, 0, 70, 95
3, 318480, Note_on_c, 0, 65, 95
3, 318480, Note_on_c, 0, 63, 95
3, 318480, Note_on_c, 0, 58, 95
3, 318720, Note_off_c, 0, 70, 95
3, 318720, Note_off_c, 0, 65, 95
3, 318720, Note_off_c, 0, 63, 95
3, 318720, Note_off_c, 0, 58, 95
3, 318720, Note_on_c, 1, 70, 95
3, 318720, Note_on_c, 1, 65, 95
3, 318720, Note_on_c, 1, 63, 95
3, 318720, Note_on_c, 1, 58, 95
3, 318840, Pitch_bend_c, 1, 8832
3, 318840, Pitch_bend_c, 1, 8832
3, 318840, Pitch_bend_c, 1, 8832
3, 318840, Pitch_bend_c, 1, 8832
3, 318960, Pitch_bend_c, 1, 9600
3, 318960, Pitch_bend_c, 1, 8192
3, 318960, Note_off_c, 1, 70, 95
3, 318960, Pitch_bend_c, 1, 9600
3, 318960, Pitch_bend_c, 1, 8192
3, 318960, Note_off_c, 1, 65, 95
3, 318960, Pitch_bend_c, 1, 9600
3, 318960, Pitch_bend_c, 1, 8192
3, 318960, Note_off_c, 1, 63, 95
3, 318960, Pitch_bend_c, 1, 9600
3, 318960, Pitch_bend_c, 1, 8192
3, 318960, Note_off_c, 1, 58, 95
3, 318960, Note_on_c, 0, 72, 95
3, 318960, Note_on_c, 0, 67, 95
3, 318960, Note_on_c, 0, 65, 95
3, 318960, Note_on_c, 0, 60, 95
3, 319200, Note_off_c, 0, 72, 95
3, 319200, Note_off_c, 0, 67, 95
3, 319200, Note_off_c, 0, 65, 95
3, 319200, Note_off_c, 0, 60, 95
3, 319200, Note_on_c, 0, 72, 95
3, 319200, Note_on_c, 0, 67, 95
3, 319200, Note_on_c, 0, 65, 95
3, 319200, Note_on_c, 0, 60, 95
3, 319440, Note_off_c, 0, 72, 95
3, 319440, Note_off_c, 0, 67, 95
3, 319440, Note_off_c, 0, 65, 95
3, 319440, Note_off_c, 0, 60, 95
3, 319440, Note_on_c, 0, 72, 95
3, 319440, Note_on_c, 0, 67, 95
3, 319440, Note_on_c, 0, 65, 95
3, 319440, Note_on_c, 0, 60, 95
3, 319680, Note_off_c, 0, 72, 95
3, 319680, Note_off_c, 0, 67, 95
3, 319680, Note_off_c, 0, 65, 95
3, 319680, Note_off_c, 0, 60, 95
3, 319680, Note_on_c, 0, 72, 95
3, 319680, Note_on_c, 0, 67, 95
3, 319680, Note_on_c, 0, 65, 95
3, 319680, Note_on_c, 0, 60, 95
3, 320160, Note_off_c, 0, 72, 95
3, 320160, Note_off_c, 0, 67, 95
3, 320160, Note_off_c, 0, 65, 95
3, 320160, Note_off_c, 0, 60, 95
3, 320160, Note_on_c, 0, 72, 95
3, 320160, Note_on_c, 0, 67, 95
3, 320160, Note_on_c, 0, 65, 95
3, 320160, Note_on_c, 0, 60, 95
3, 320640, Note_off_c, 0, 72, 95
3, 320640, Note_off_c, 0, 67, 95
3, 320640, Note_off_c, 0, 65, 95
3, 320640, Note_off_c, 0, 60, 95
3, 320640, Note_on_c, 0, 72, 95
3, 320640, Note_on_c, 0, 67, 95
3, 320880, Note_off_c, 0, 72, 95
3, 320880, Note_off_c, 0, 67, 95
3, 320880, Note_on_c, 0, 69, 70
3, 321120, Note_off_c, 0, 69, 70
3, 321120, Note_on_c, 0, 72, 95
3, 321120, Note_on_c, 0, 67, 95
3, 321360, Note_off_c, 0, 72, 95
3, 321360, Note_off_c, 0, 67, 95
3, 321360, Note_on_c, 0, 69, 70
3, 321600, Note_off_c, 0, 69, 70
3, 321600, Note_on_c, 0, 72, 95
3, 321600, Note_on_c, 0, 67, 95
3, 321840, Note_off_c, 0, 72, 95
3, 321840, Note_off_c, 0, 67, 95
3, 321840, Note_on_c, 0, 65, 95
3, 322080, Note_off_c, 0, 65, 95
3, 322080, Note_on_c, 0, 63, 95
3, 322080, Note_on_c, 0, 58, 95
3, 322119, Note_off_c, 0, 63, 95
3, 322119, Note_off_c, 0, 58, 95
3, 322320, Note_on_c, 0, 63, 95
3, 322320, Note_on_c, 0, 58, 95
3, 322359, Note_off_c, 0, 63, 95
3, 322359, Note_off_c, 0, 58, 95
3, 322560, Note_on_c, 0, 65, 95
3, 322560, Pitch_bend_c, 1, 8192
3, 322560, Note_on_c, 1, 60, 95
3, 322567, Pitch_bend_c, 1, 8320
3, 322574, Pitch_bend_c, 1, 8448
3, 322581, Pitch_bend_c, 1, 8576
3, 322588, Pitch_bend_c, 1, 8704
3, 322595, Pitch_bend_c, 1, 8832
3, 322602, Pitch_bend_c, 1, 8960
3, 322609, Pitch_bend_c, 1, 9088
3, 322616, Pitch_bend_c, 1, 9216
3, 322623, Pitch_bend_c, 1, 9344
3, 322630, Pitch_bend_c, 1, 9472
3, 322637, Pitch_bend_c, 1, 9600
3, 322640, Pitch_bend_c, 1, 9600
3, 322800, Note_off_c, 0, 65, 95
3, 322800, Pitch_bend_c, 1, 9600
3, 322800, Pitch_bend_c, 1, 8192
3, 322800, Note_off_c, 1, 60, 95
3, 322800, Note_on_c, 0, 65, 95
3, 323040, Note_off_c, 0, 65, 95
3, 323040, Note_on_c, 0, 67, 95
3, 323280, Note_off_c, 0, 67, 95
3, 323280, Pitch_bend_c, 1, 9600
3, 323280, Note_on_c, 1, 60, 95
3, 323400, Pitch_bend_c, 1, 9600
3, 323410, Pitch_bend_c, 1, 9472
3, 323420, Pitch_bend_c, 1, 9344
3, 323430, Pitch_bend_c, 1, 9216
3, 323440, Pitch_bend_c, 1, 9088
3, 323450, Pitch_bend_c, 1, 8960
3, 323460, Pitch_bend_c, 1, 8832
3, 323470, Pitch_bend_c, 1, 8704
3, 323480, Pitch_bend_c, 1, 8576
3, 323490, Pitch_bend_c, 1, 8448
3, 323500, Pitch_bend_c, 1, 8320
3, 323510, Pitch_bend_c, 1, 8192
3, 323520, Pitch_bend_c, 1, 8192
3, 323760, Pitch_bend_c, 1, 8192
3, 323760, Pitch_bend_c, 1, 8192
3, 323760, Note_off_c, 1, 60, 95
3, 323760, Note_on_c, 0, 58, 95
3, 324000, Note_off_c, 0, 58, 95
3, 324000, Note_on_c, 0, 55, 95
3, 324240, Note_off_c, 0, 55, 95
3, 324240, Note_on_c, 0, 53, 95
3, 324480, Note_off_c, 0, 53, 95
3, 324480, Note_on_c, 0, 39, 95
3, 324960, Note_off_c, 0, 39, 95
3, 324960, Note_on_c, 0, 39, 95
3, 325440, Note_off_c, 0, 39, 95
3, 325440, Note_on_c, 0, 53, 95
3, 325600, Note_off_c, 0, 53, 95
3, 325600, Note_on_c, 0, 55, 70
3, 325760, Note_off_c, 0, 55, 70
3, 325760, Note_on_c, 0, 53, 70
3, 325920, Note_off_c, 0, 53, 70
3, 325920, Note_on_c, 0, 51, 95
3, 326160, Note_off_c, 0, 51, 95
3, 326160, Note_on_c, 0, 53, 70
3, 326400, Note_off_c, 0, 53, 70
3, 326400, Note_on_c, 0, 65, 95
3, 326400, Note_on_c, 0, 60, 95
3, 326400, Note_on_c, 0, 57, 95
3, 326400, Note_on_c, 0, 53, 95
3, 326400, Note_on_c, 0, 48, 95
3, 326400, Note_on_c, 0, 41, 95
3, 326880, Note_off_c, 0, 65, 95
3, 326880, Note_off_c, 0, 60, 95
3, 326880, Note_off_c, 0, 57, 95
3, 326880, Note_off_c, 0, 53, 95
3, 326880, Note_off_c, 0, 48, 95
3, 326880, Note_off_c, 0, 41, 95
3, 326880, Note_on_c, 0, 65, 95
3, 326880, Note_on_c, 0, 60, 95
3, 326880, Note_on_c, 0, 57, 95
3, 326880, Note_on_c, 0, 53, 95
3, 326880, Note_on_c, 0, 48, 95
3, 326880, Note_on_c, 0, 41, 95
3, 327120, Note_off_c, 0, 65, 95
3, 327120, Note_off_c, 0, 60, 95
3, 327120, Note_off_c, 0, 57, 95
3, 327120, Note_off_c, 0, 53, 95
3, 327120, Note_off_c, 0, 48, 95
3, 327120, Note_off_c, 0, 41, 95
3, 327120, Note_on_c, 0, 65, 95
3, 327120, Note_on_c, 0, 60, 95
3, 327120, Note_on_c, 0, 57, 95
3, 327120, Note_on_c, 0, 53, 95
3, 327120, Note_on_c, 0, 48, 95
3, 327120, Note_on_c, 0, 41, 95
3, 327360, Note_off_c, 0, 65, 95
3, 327360, Note_off_c, 0, 60, 95
3, 327360, Note_off_c, 0, 57, 95
3, 327360, Note_off_c, 0, 53, 95
3, 327360, Note_off_c, 0, 48, 95
3, 327360, Note_off_c, 0, 41, 95
3, 327360, Note_on_c, 0, 65, 95
3, 327360, Note_on_c, 0, 60, 95
3, 327360, Note_on_c, 0, 57, 95
3, 327360, Note_on_c, 0, 53, 95
3, 327360, Note_on_c, 0, 48, 95
3, 327360, Note_on_c, 0, 41, 95
3, 327600, Note_off_c, 0, 65, 95
3, 327600, Note_off_c, 0, 60, 95
3, 327600, Note_off_c, 0, 57, 95
3, 327600, Note_off_c, 0, 53, 95
3, 327600, Note_off_c, 0, 48, 95
3, 327600, Note_off_c, 0, 41, 95
3, 327600, Note_on_c, 0, 65, 95
3, 327600, Note_on_c, 0, 60, 95
3, 327600, Note_on_c, 0, 57, 95
3, 327600, Note_on_c, 0, 53, 95
3, 327600, Note_on_c, 0, 48, 95
3, 327600, Note_on_c, 0, 41, 95
3, 327840, Note_off_c, 0, 65, 95
3, 327840, Note_off_c, 0, 60, 95
3, 327840, Note_off_c, 0, 57, 95
3, 327840, Note_off_c, 0, 53, 95
3, 327840, Note_off_c, 0, 48, 95
3, 327840, Note_off_c, 0, 41, 95
3, 327840, Note_on_c, 0, 65, 95
3, 327840, Note_on_c, 0, 60, 95
3, 327840, Note_on_c, 0, 57, 95
3, 327840, Note_on_c, 0, 53, 95
3, 327840, Note_on_c, 0, 48, 95
3, 327840, Note_on_c, 0, 41, 95
3, 328080, Note_off_c, 0, 65, 95
3, 328080, Note_off_c, 0, 60, 95
3, 328080, Note_off_c, 0, 57, 95
3, 328080, Note_off_c, 0, 53, 95
3, 328080, Note_off_c, 0, 48, 95
3, 328080, Note_off_c, 0, 41, 95
3, 328080, Note_on_c, 0, 65, 95
3, 328080, Note_on_c, 0, 60, 95
3, 328080, Note_on_c, 0, 57, 95
3, 328080, Note_on_c, 0, 53, 95
3, 328080, Note_on_c, 0, 48, 95
3, 328080, Note_on_c, 0, 41, 95
3, 328320, Note_off_c, 0, 65, 95
3, 328320, Note_off_c, 0, 60, 95
3, 328320, Note_off_c, 0, 57, 95
3, 328320, Note_off_c, 0, 53, 95
3, 328320, Note_off_c, 0, 48, 95
3, 328320, Note_off_c, 0, 41, 95
3, 328320, Note_on_c, 0, 65, 95
3, 328320, Note_on_c, 0, 60, 95
3, 328320, Note_on_c, 0, 57, 95
3, 328320, Note_on_c, 0, 53, 95
3, 328320, Note_on_c, 0, 48, 95
3, 328320, Note_on_c, 0, 41, 95
3, 328560, Note_off_c, 0, 65, 95
3, 328560, Note_off_c, 0, 60, 95
3, 328560, Note_off_c, 0, 57, 95
3, 328560, Note_off_c, 0, 53, 95
3, 328560, Note_off_c, 0, 48, 95
3, 328560, Note_off_c, 0, 41, 95
3, 328560, Note_on_c, 0, 65, 95
3, 328560, Note_on_c, 0, 60, 95
3, 328560, Note_on_c, 0, 57, 95
3, 328560, Note_on_c, 0, 53, 95
3, 328560, Note_on_c, 0, 48, 95
3, 328560, Note_on_c, 0, 41, 95
3, 328800, Note_off_c, 0, 65, 95
3, 328800, Note_off_c, 0, 60, 95
3, 328800, Note_off_c, 0, 57, 95
3, 328800, Note_off_c, 0, 53, 95
3, 328800, Note_off_c, 0, 48, 95
3, 328800, Note_off_c, 0, 41, 95
3, 328800, Note_on_c, 0, 65, 95
3, 328800, Note_on_c, 0, 60, 95
3, 328800, Note_on_c, 0, 57, 95
3, 328800, Note_on_c, 0, 53, 95
3, 328800, Note_on_c, 0, 48, 95
3, 328800, Note_on_c, 0, 41, 95
3, 329040, Note_off_c, 0, 65, 95
3, 329040, Note_off_c, 0, 60, 95
3, 329040, Note_off_c, 0, 57, 95
3, 329040, Note_off_c, 0, 53, 95
3, 329040, Note_off_c, 0, 48, 95
3, 329040, Note_off_c, 0, 41, 95
3, 329040, Note_on_c, 0, 65, 95
3, 329040, Note_on_c, 0, 60, 95
3, 329040, Note_on_c, 0, 57, 95
3, 329040, Note_on_c, 0, 53, 95
3, 329040, Note_on_c, 0, 48, 95
3, 329040, Note_on_c, 0, 41, 95
3, 329280, Note_off_c, 0, 65, 95
3, 329280, Note_off_c, 0, 60, 95
3, 329280, Note_off_c, 0, 57, 95
3, 329280, Note_off_c, 0, 53, 95
3, 329280, Note_off_c, 0, 48, 95
3, 329280, Note_off_c, 0, 41, 95
3, 329280, Note_on_c, 0, 65, 95
3, 329280, Note_on_c, 0, 60, 95
3, 329280, Note_on_c, 0, 57, 95
3, 329280, Note_on_c, 0, 53, 95
3, 329280, Note_on_c, 0, 48, 95
3, 329280, Note_on_c, 0, 41, 95
3, 329520, Note_off_c, 0, 65, 95
3, 329520, Note_off_c, 0, 60, 95
3, 329520, Note_off_c, 0, 57, 95
3, 329520, Note_off_c, 0, 53, 95
3, 329520, Note_off_c, 0, 48, 95
3, 329520, Note_off_c, 0, 41, 95
3, 329520, Note_on_c, 0, 65, 95
3, 329520, Note_on_c, 0, 60, 95
3, 329520, Note_on_c, 0, 57, 95
3, 329520, Note_on_c, 0, 53, 95
3, 329520, Note_on_c, 0, 48, 95
3, 329520, Note_on_c, 0, 41, 95
3, 329760, Note_off_c, 0, 65, 95
3, 329760, Note_off_c, 0, 60, 95
3, 329760, Note_off_c, 0, 57, 95
3, 329760, Note_off_c, 0, 53, 95
3, 329760, Note_off_c, 0, 48, 95
3, 329760, Note_off_c, 0, 41, 95
3, 329760, Note_on_c, 0, 65, 95
3, 329760, Note_on_c, 0, 60, 95
3, 329760, Note_on_c, 0, 57, 95
3, 329760, Note_on_c, 0, 53, 95
3, 329760, Note_on_c, 0, 48, 95
3, 329760, Note_on_c, 0, 41, 95
3, 330000, Note_off_c, 0, 65, 95
3, 330000, Note_off_c, 0, 60, 95
3, 330000, Note_off_c, 0, 57, 95
3, 330000, Note_off_c, 0, 53, 95
3, 330000, Note_off_c, 0, 48, 95
3, 330000, Note_off_c, 0, 41, 95
3, 330000, Note_on_c, 0, 65, 95
3, 330000, Note_on_c, 0, 60, 95
3, 330000, Note_on_c, 0, 57, 95
3, 330000, Note_on_c, 0, 53, 95
3, 330000, Note_on_c, 0, 48, 95
3, 330000, Note_on_c, 0, 41, 95
3, 330240, Note_off_c, 0, 65, 95
3, 330240, Note_off_c, 0, 60, 95
3, 330240, Note_off_c, 0, 57, 95
3, 330240, Note_off_c, 0, 53, 95
3, 330240, Note_off_c, 0, 48, 95
3, 330240, Note_off_c, 0, 41, 95
3, 330240, Note_on_c, 0, 53, 95
3, 330480, Note_off_c, 0, 53, 95
3, 330480, Note_on_c, 0, 55, 95
3, 330720, Note_off_c, 0, 55, 95
3, 330720, Note_on_c, 0, 58, 95
3, 330960, Note_off_c, 0, 58, 95
3, 330960, Pitch_bend_c, 1, 8192
3, 330960, Note_on_c, 1, 60, 95
3, 330974, Pitch_bend_c, 1, 8320
3, 330988, Pitch_bend_c, 1, 8448
3, 331002, Pitch_bend_c, 1, 8576
3, 331016, Pitch_bend_c, 1, 8704
3, 331030, Pitch_bend_c, 1, 8832
3, 331044, Pitch_bend_c, 1, 8960
3, 331058, Pitch_bend_c, 1, 9088
3, 331072, Pitch_bend_c, 1, 9216
3, 331086, Pitch_bend_c, 1, 9344
3, 331100, Pitch_bend_c, 1, 9472
3, 331114, Pitch_bend_c, 1, 9600
3, 331120, Pitch_bend_c, 1, 9600
3, 331440, Pitch_bend_c, 1, 9600
3, 331440, Pitch_bend_c, 1, 8192
3, 331440, Note_off_c, 1, 60, 95
3, 331440, Note_on_c, 0, 70, 95
3, 331440, Note_on_c, 0, 65, 95
3, 331680, Note_off_c, 0, 70, 95
3, 331680, Note_off_c, 0, 65, 95
3, 331680, Pitch_bend_c, 1, 9600
3, 331680, Note_on_c, 1, 60, 95
3, 331740, Pitch_bend_c, 1, 9600
3, 331745, Pitch_bend_c, 1, 9472
3, 331750, Pitch_bend_c, 1, 9344
3, 331755, Pitch_bend_c, 1, 9216
3, 331760, Pitch_bend_c, 1, 9088
3, 331765, Pitch_bend_c, 1, 8960
3, 331770, Pitch_bend_c, 1, 8832
3, 331775, Pitch_bend_c, 1, 8704
3, 331780, Pitch_bend_c, 1, 8576
3, 331785, Pitch_bend_c, 1, 8448
3, 331790, Pitch_bend_c, 1, 8320
3, 331795, Pitch_bend_c, 1, 8192
3, 331800, Pitch_bend_c, 1, 8192
3, 331920, Pitch_bend_c, 1, 8192
3, 331920, Pitch_bend_c, 1, 8192
3, 331920, Note_off_c, 1, 60, 95
3, 331920, Note_on_c, 0, 58, 95
3, 332160, Note_off_c, 0, 58, 95
3, 332160, Note_on_c, 0, 39, 95
3, 333120, Note_off_c, 0, 39, 95
3, 333120, Note_on_c, 0, 53, 95
3, 333360, Note_off_c, 0, 53, 95
3, 333360, Note_on_c, 0, 55, 95
3, 333600, Note_off_c, 0, 55, 95
3, 333600, Note_on_c, 0, 51, 95
3, 333840, Note_off_c, 0, 51, 95
3, 333840, Note_on_c, 0, 53, 95
3, 334080, Note_off_c, 0, 53, 95
3, 334080, Note_on_c, 0, 65, 95
3, 334080, Note_on_c, 0, 60, 95
3, 334080, Note_on_c, 0, 57, 95
3, 334080, Note_on_c, 0, 53, 95
3, 334080, Note_on_c, 0, 48, 95
3, 334080, Note_on_c, 0, 41, 95
3, 334320, Note_off_c, 0, 65, 95
3, 334320, Note_off_c, 0, 60, 95
3, 334320, Note_off_c, 0, 57, 95
3, 334320, Note_off_c, 0, 53, 95
3, 334320, Note_off_c, 0, 48, 95
3, 334320, Note_off_c, 0, 41, 95
3, 334320, Note_on_c, 0, 65, 95
3, 334320, Note_on_c, 0, 60, 95
3, 334320, Note_on_c, 0, 57, 95
3, 334320, Note_on_c, 0, 53, 95
3, 334320, Note_on_c, 0, 48, 95
3, 334320, Note_on_c, 0, 41, 95
3, 334560, Note_off_c, 0, 65, 95
3, 334560, Note_off_c, 0, 60, 95
3, 334560, Note_off_c, 0, 57, 95
3, 334560, Note_off_c, 0, 53, 95
3, 334560, Note_off_c, 0, 48, 95
3, 334560, Note_off_c, 0, 41, 95
3, 334560, Note_on_c, 0, 65, 95
3, 334560, Note_on_c, 0, 60, 95
3, 334560, Note_on_c, 0, 57, 95
3, 334560, Note_on_c, 0, 53, 95
3, 334560, Note_on_c, 0, 48, 95
3, 334560, Note_on_c, 0, 41, 95
3, 334800, Note_off_c, 0, 65, 95
3, 334800, Note_off_c, 0, 60, 95
3, 334800, Note_off_c, 0, 57, 95
3, 334800, Note_off_c, 0, 53, 95
3, 334800, Note_off_c, 0, 48, 95
3, 334800, Note_off_c, 0, 41, 95
3, 334800, Note_on_c, 0, 65, 95
3, 334800, Note_on_c, 0, 60, 95
3, 334800, Note_on_c, 0, 57, 95
3, 334800, Note_on_c, 0, 53, 95
3, 334800, Note_on_c, 0, 48, 95
3, 334800, Note_on_c, 0, 41, 95
3, 335040, Note_off_c, 0, 65, 95
3, 335040, Note_off_c, 0, 60, 95
3, 335040, Note_off_c, 0, 57, 95
3, 335040, Note_off_c, 0, 53, 95
3, 335040, Note_off_c, 0, 48, 95
3, 335040, Note_off_c, 0, 41, 95
3, 335040, Note_on_c, 0, 65, 95
3, 335040, Note_on_c, 0, 60, 95
3, 335040, Note_on_c, 0, 57, 95
3, 335040, Note_on_c, 0, 53, 95
3, 335040, Note_on_c, 0, 48, 95
3, 335040, Note_on_c, 0, 41, 95
3, 335280, Note_off_c, 0, 65, 95
3, 335280, Note_off_c, 0, 60, 95
3, 335280, Note_off_c, 0, 57, 95
3, 335280, Note_off_c, 0, 53, 95
3, 335280, Note_off_c, 0, 48, 95
3, 335280, Note_off_c, 0, 41, 95
3, 335280, Note_on_c, 0, 65, 95
3, 335280, Note_on_c, 0, 60, 95
3, 335280, Note_on_c, 0, 57, 95
3, 335280, Note_on_c, 0, 53, 95
3, 335280, Note_on_c, 0, 48, 95
3, 335280, Note_on_c, 0, 41, 95
3, 335520, Note_off_c, 0, 65, 95
3, 335520, Note_off_c, 0, 60, 95
3, 335520, Note_off_c, 0, 57, 95
3, 335520, Note_off_c, 0, 53, 95
3, 335520, Note_off_c, 0, 48, 95
3, 335520, Note_off_c, 0, 41, 95
3, 335520, Note_on_c, 0, 65, 95
3, 335520, Note_on_c, 0, 60, 95
3, 335520, Note_on_c, 0, 57, 95
3, 335520, Note_on_c, 0, 53, 95
3, 335520, Note_on_c, 0, 48, 95
3, 335520, Note_on_c, 0, 41, 95
3, 335760, Note_off_c, 0, 65, 95
3, 335760, Note_off_c, 0, 60, 95
3, 335760, Note_off_c, 0, 57, 95
3, 335760, Note_off_c, 0, 53, 95
3, 335760, Note_off_c, 0, 48, 95
3, 335760, Note_off_c, 0, 41, 95
3, 335760, Note_on_c, 0, 65, 95
3, 335760, Note_on_c, 0, 60, 95
3, 335760, Note_on_c, 0, 57, 95
3, 335760, Note_on_c, 0, 53, 95
3, 335760, Note_on_c, 0, 48, 95
3, 335760, Note_on_c, 0, 41, 95
3, 336000, Note_off_c, 0, 65, 95
3, 336000, Note_off_c, 0, 60, 95
3, 336000, Note_off_c, 0, 57, 95
3, 336000, Note_off_c, 0, 53, 95
3, 336000, Note_off_c, 0, 48, 95
3, 336000, Note_off_c, 0, 41, 95
3, 336000, Note_on_c, 0, 65, 95
3, 336000, Note_on_c, 0, 60, 95
3, 336000, Note_on_c, 0, 57, 95
3, 336000, Note_on_c, 0, 53, 95
3, 336000, Note_on_c, 0, 48, 95
3, 336000, Note_on_c, 0, 41, 95
3, 336240, Note_off_c, 0, 65, 95
3, 336240, Note_off_c, 0, 60, 95
3, 336240, Note_off_c, 0, 57, 95
3, 336240, Note_off_c, 0, 53, 95
3, 336240, Note_off_c, 0, 48, 95
3, 336240, Note_off_c, 0, 41, 95
3, 336240, Note_on_c, 0, 65, 95
3, 336240, Note_on_c, 0, 60, 95
3, 336240, Note_on_c, 0, 57, 95
3, 336240, Note_on_c, 0, 53, 95
3, 336240, Note_on_c, 0, 48, 95
3, 336240, Note_on_c, 0, 41, 95
3, 336480, Note_off_c, 0, 65, 95
3, 336480, Note_off_c, 0, 60, 95
3, 336480, Note_off_c, 0, 57, 95
3, 336480, Note_off_c, 0, 53, 95
3, 336480, Note_off_c, 0, 48, 95
3, 336480, Note_off_c, 0, 41, 95
3, 336480, Note_on_c, 0, 65, 95
3, 336480, Note_on_c, 0, 60, 95
3, 336480, Note_on_c, 0, 57, 95
3, 336480, Note_on_c, 0, 53, 95
3, 336480, Note_on_c, 0, 48, 95
3, 336480, Note_on_c, 0, 41, 95
3, 336720, Note_off_c, 0, 65, 95
3, 336720, Note_off_c, 0, 60, 95
3, 336720, Note_off_c, 0, 57, 95
3, 336720, Note_off_c, 0, 53, 95
3, 336720, Note_off_c, 0, 48, 95
3, 336720, Note_off_c, 0, 41, 95
3, 336720, Note_on_c, 0, 65, 95
3, 336720, Note_on_c, 0, 60, 95
3, 336720, Note_on_c, 0, 57, 95
3, 336720, Note_on_c, 0, 53, 95
3, 336720, Note_on_c, 0, 48, 95
3, 336720, Note_on_c, 0, 41, 95
3, 336960, Note_off_c, 0, 65, 95
3, 336960, Note_off_c, 0, 60, 95
3, 336960, Note_off_c, 0, 57, 95
3, 336960, Note_off_c, 0, 53, 95
3, 336960, Note_off_c, 0, 48, 95
3, 336960, Note_off_c, 0, 41, 95
3, 336960, Note_on_c, 0, 65, 95
3, 336960, Note_on_c, 0, 60, 95
3, 336960, Note_on_c, 0, 57, 95
3, 336960, Note_on_c, 0, 53, 95
3, 336960, Note_on_c, 0, 48, 95
3, 336960, Note_on_c, 0, 41, 95
3, 337200, Note_off_c, 0, 65, 95
3, 337200, Note_off_c, 0, 60, 95
3, 337200, Note_off_c, 0, 57, 95
3, 337200, Note_off_c, 0, 53, 95
3, 337200, Note_off_c, 0, 48, 95
3, 337200, Note_off_c, 0, 41, 95
3, 337200, Note_on_c, 0, 65, 95
3, 337200, Note_on_c, 0, 60, 95
3, 337200, Note_on_c, 0, 57, 95
3, 337200, Note_on_c, 0, 53, 95
3, 337200, Note_on_c, 0, 48, 95
3, 337200, Note_on_c, 0, 41, 95
3, 337440, Note_off_c, 0, 65, 95
3, 337440, Note_off_c, 0, 60, 95
3, 337440, Note_off_c, 0, 57, 95
3, 337440, Note_off_c, 0, 53, 95
3, 337440, Note_off_c, 0, 48, 95
3, 337440, Note_off_c, 0, 41, 95
3, 337440, Note_on_c, 0, 65, 95
3, 337440, Note_on_c, 0, 60, 95
3, 337440, Note_on_c, 0, 57, 95
3, 337440, Note_on_c, 0, 53, 95
3, 337440, Note_on_c, 0, 48, 95
3, 337440, Note_on_c, 0, 41, 95
3, 337479, Note_off_c, 0, 65, 95
3, 337479, Note_off_c, 0, 60, 95
3, 337479, Note_off_c, 0, 57, 95
3, 337479, Note_off_c, 0, 53, 95
3, 337479, Note_off_c, 0, 48, 95
3, 337479, Note_off_c, 0, 41, 95
3, 337680, Note_on_c, 0, 65, 95
3, 337680, Note_on_c, 0, 60, 95
3, 337680, Note_on_c, 0, 57, 95
3, 337680, Note_on_c, 0, 53, 95
3, 337680, Note_on_c, 0, 48, 95
3, 337680, Note_on_c, 0, 41, 95
3, 337719, Note_off_c, 0, 65, 95
3, 337719, Note_off_c, 0, 60, 95
3, 337719, Note_off_c, 0, 57, 95
3, 337719, Note_off_c, 0, 53, 95
3, 337719, Note_off_c, 0, 48, 95
3, 337719, Note_off_c, 0, 41, 95
3, 337920, Note_on_c, 0, 62, 95
3, 337920, Note_on_c, 0, 58, 95
3, 337920, Note_on_c, 0, 53, 95
3, 337920, Note_on_c, 0, 46, 95
3, 337920, Note_on_c, 0, 41, 95
3, 338400, Note_off_c, 0, 62, 95
3, 338400, Note_off_c, 0, 58, 95
3, 338400, Note_off_c, 0, 53, 95
3, 338400, Note_off_c, 0, 46, 95
3, 338400, Note_off_c, 0, 41, 95
3, 338400, Note_on_c, 0, 62, 95
3, 338400, Note_on_c, 0, 58, 95
3, 338400, Note_on_c, 0, 53, 95
3, 338400, Note_on_c, 0, 46, 95
3, 338400, Note_on_c, 0, 41, 95
3, 338640, Note_off_c, 0, 62, 95
3, 338640, Note_off_c, 0, 58, 95
3, 338640, Note_off_c, 0, 53, 95
3, 338640, Note_off_c, 0, 46, 95
3, 338640, Note_off_c, 0, 41, 95
3, 338640, Note_on_c, 0, 62, 95
3, 338640, Note_on_c, 0, 58, 95
3, 338640, Note_on_c, 0, 53, 95
3, 338640, Note_on_c, 0, 46, 95
3, 338640, Note_on_c, 0, 41, 95
3, 338880, Note_off_c, 0, 62, 95
3, 338880, Note_off_c, 0, 58, 95
3, 338880, Note_off_c, 0, 53, 95
3, 338880, Note_off_c, 0, 46, 95
3, 338880, Note_off_c, 0, 41, 95
3, 338880, Note_on_c, 0, 62, 95
3, 338880, Note_on_c, 0, 58, 95
3, 338880, Note_on_c, 0, 53, 95
3, 338880, Note_on_c, 0, 46, 95
3, 338880, Note_on_c, 0, 41, 95
3, 339360, Note_off_c, 0, 62, 95
3, 339360, Note_off_c, 0, 58, 95
3, 339360, Note_off_c, 0, 53, 95
3, 339360, Note_off_c, 0, 46, 95
3, 339360, Note_off_c, 0, 41, 95
3, 339360, Note_on_c, 0, 62, 95
3, 339360, Note_on_c, 0, 58, 95
3, 339360, Note_on_c, 0, 53, 95
3, 339360, Note_on_c, 0, 46, 95
3, 339360, Note_on_c, 0, 41, 95
3, 339840, Note_off_c, 0, 62, 95
3, 339840, Note_off_c, 0, 58, 95
3, 339840, Note_off_c, 0, 53, 95
3, 339840, Note_off_c, 0, 46, 95
3, 339840, Note_off_c, 0, 41, 95
3, 339840, Note_on_c, 0, 67, 95
3, 339840, Note_on_c, 0, 63, 95
3, 339840, Note_on_c, 0, 58, 95
3, 339840, Note_on_c, 0, 51, 95
3, 339840, Note_on_c, 0, 39, 95
3, 340320, Note_off_c, 0, 67, 95
3, 340320, Note_off_c, 0, 63, 95
3, 340320, Note_off_c, 0, 58, 95
3, 340320, Note_off_c, 0, 51, 95
3, 340320, Note_off_c, 0, 39, 95
3, 340320, Note_on_c, 0, 67, 95
3, 340320, Note_on_c, 0, 63, 95
3, 340320, Note_on_c, 0, 58, 95
3, 340320, Note_on_c, 0, 51, 95
3, 340320, Note_on_c, 0, 39, 95
3, 340560, Note_off_c, 0, 67, 95
3, 340560, Note_off_c, 0, 63, 95
3, 340560, Note_off_c, 0, 58, 95
3, 340560, Note_off_c, 0, 51, 95
3, 340560, Note_off_c, 0, 39, 95
3, 340560, Note_on_c, 0, 67, 95
3, 340560, Note_on_c, 0, 63, 95
3, 340560, Note_on_c, 0, 58, 95
3, 340560, Note_on_c, 0, 51, 95
3, 340560, Note_on_c, 0, 39, 95
3, 340800, Note_off_c, 0, 67, 95
3, 340800, Note_off_c, 0, 63, 95
3, 340800, Note_off_c, 0, 58, 95
3, 340800, Note_off_c, 0, 51, 95
3, 340800, Note_off_c, 0, 39, 95
3, 340800, Note_on_c, 0, 67, 95
3, 340800, Note_on_c, 0, 63, 95
3, 340800, Note_on_c, 0, 58, 95
3, 340800, Note_on_c, 0, 51, 95
3, 340800, Note_on_c, 0, 39, 95
3, 341280, Note_off_c, 0, 67, 95
3, 341280, Note_off_c, 0, 63, 95
3, 341280, Note_off_c, 0, 58, 95
3, 341280, Note_off_c, 0, 51, 95
3, 341280, Note_off_c, 0, 39, 95
3, 341280, Note_on_c, 1, 67, 95
3, 341280, Note_on_c, 1, 63, 95
3, 341280, Note_on_c, 1, 58, 95
3, 341280, Note_on_c, 1, 51, 95
3, 341400, Pitch_bend_c, 1, 8832
3, 341400, Pitch_bend_c, 1, 8832
3, 341400, Pitch_bend_c, 1, 8832
3, 341400, Pitch_bend_c, 1, 8832
3, 341520, Pitch_bend_c, 1, 9600
3, 341520, Pitch_bend_c, 1, 8192
3, 341520, Note_off_c, 1, 67, 95
3, 341520, Pitch_bend_c, 1, 9600
3, 341520, Pitch_bend_c, 1, 8192
3, 341520, Note_off_c, 1, 63, 95
3, 341520, Pitch_bend_c, 1, 9600
3, 341520, Pitch_bend_c, 1, 8192
3, 341520, Note_off_c, 1, 58, 95
3, 341520, Pitch_bend_c, 1, 9600
3, 341520, Pitch_bend_c, 1, 8192
3, 341520, Note_off_c, 1, 51, 95
3, 341520, Note_on_c, 0, 69, 95
3, 341520, Note_on_c, 0, 65, 95
3, 341520, Note_on_c, 0, 60, 95
3, 341520, Note_on_c, 0, 53, 95
3, 341760, Note_off_c, 0, 69, 95
3, 341760, Note_off_c, 0, 65, 95
3, 341760, Note_off_c, 0, 60, 95
3, 341760, Note_off_c, 0, 53, 95
3, 341760, Note_on_c, 0, 69, 95
3, 341760, Note_on_c, 0, 65, 95
3, 341760, Note_on_c, 0, 60, 95
3, 341760, Note_on_c, 0, 53, 95
3, 342240, Note_off_c, 0, 69, 95
3, 342240, Note_off_c, 0, 65, 95
3, 342240, Note_off_c, 0, 60, 95
3, 342240, Note_off_c, 0, 53, 95
3, 342240, Note_on_c, 0, 69, 95
3, 342240, Note_on_c, 0, 65, 95
3, 342240, Note_on_c, 0, 60, 95
3, 342240, Note_on_c, 0, 53, 95
3, 342480, Note_off_c, 0, 69, 95
3, 342480, Note_off_c, 0, 65, 95
3, 342480, Note_off_c, 0, 60, 95
3, 342480, Note_off_c, 0, 53, 95
3, 342480, Note_on_c, 0, 69, 95
3, 342480, Note_on_c, 0, 65, 95
3, 342480, Note_on_c, 0, 60, 95
3, 342480, Note_on_c, 0, 53, 95
3, 342720, Note_off_c, 0, 69, 95
3, 342720, Note_off_c, 0, 65, 95
3, 342720, Note_off_c, 0, 60, 95
3, 342720, Note_off_c, 0, 53, 95
3, 342720, Note_on_c, 0, 69, 95
3, 342720, Note_on_c, 0, 65, 95
3, 342720, Note_on_c, 0, 60, 95
3, 342720, Note_on_c, 0, 53, 95
3, 342960, Note_off_c, 0, 69, 95
3, 342960, Note_off_c, 0, 65, 95
3, 342960, Note_off_c, 0, 60, 95
3, 342960, Note_off_c, 0, 53, 95
3, 342960, Note_on_c, 0, 69, 95
3, 342960, Note_on_c, 0, 65, 95
3, 342960, Note_on_c, 0, 60, 95
3, 342960, Note_on_c, 0, 53, 95
3, 343200, Note_off_c, 0, 69, 95
3, 343200, Note_off_c, 0, 65, 95
3, 343200, Note_off_c, 0, 60, 95
3, 343200, Note_off_c, 0, 53, 95
3, 343200, Note_on_c, 0, 69, 95
3, 343200, Note_on_c, 0, 65, 95
3, 343200, Note_on_c, 0, 60, 95
3, 343200, Note_on_c, 0, 53, 95
3, 343440, Note_off_c, 0, 69, 95
3, 343440, Note_off_c, 0, 65, 95
3, 343440, Note_off_c, 0, 60, 95
3, 343440, Note_off_c, 0, 53, 95
3, 343440, Note_on_c, 0, 69, 95
3, 343440, Note_on_c, 0, 65, 95
3, 343440, Note_on_c, 0, 60, 95
3, 343440, Note_on_c, 0, 53, 95
3, 343680, Note_off_c, 0, 69, 95
3, 343680, Note_off_c, 0, 65, 95
3, 343680, Note_off_c, 0, 60, 95
3, 343680, Note_off_c, 0, 53, 95
3, 343680, Note_on_c, 0, 69, 95
3, 343680, Note_on_c, 0, 65, 95
3, 343680, Note_on_c, 0, 60, 95
3, 343680, Note_on_c, 0, 53, 95
3, 343920, Note_off_c, 0, 69, 95
3, 343920, Note_off_c, 0, 65, 95
3, 343920, Note_off_c, 0, 60, 95
3, 343920, Note_off_c, 0, 53, 95
3, 343920, Note_on_c, 0, 69, 95
3, 343920, Note_on_c, 0, 65, 95
3, 343920, Note_on_c, 0, 60, 95
3, 343920, Note_on_c, 0, 53, 95
3, 344160, Note_off_c, 0, 69, 95
3, 344160, Note_off_c, 0, 65, 95
3, 344160, Note_off_c, 0, 60, 95
3, 344160, Note_off_c, 0, 53, 95
3, 344160, Note_on_c, 0, 69, 95
3, 344160, Note_on_c, 0, 65, 95
3, 344160, Note_on_c, 0, 60, 95
3, 344160, Note_on_c, 0, 53, 95
3, 344400, Note_off_c, 0, 69, 95
3, 344400, Note_off_c, 0, 65, 95
3, 344400, Note_off_c, 0, 60, 95
3, 344400, Note_off_c, 0, 53, 95
3, 344400, Note_on_c, 0, 69, 95
3, 344400, Note_on_c, 0, 65, 95
3, 344400, Note_on_c, 0, 60, 95
3, 344400, Note_on_c, 0, 53, 95
3, 344640, Note_off_c, 0, 69, 95
3, 344640, Note_off_c, 0, 65, 95
3, 344640, Note_off_c, 0, 60, 95
3, 344640, Note_off_c, 0, 53, 95
3, 344640, Note_on_c, 0, 69, 95
3, 344640, Note_on_c, 0, 65, 95
3, 344640, Note_on_c, 0, 60, 95
3, 344640, Note_on_c, 0, 53, 95
3, 344880, Note_off_c, 0, 69, 95
3, 344880, Note_off_c, 0, 65, 95
3, 344880, Note_off_c, 0, 60, 95
3, 344880, Note_off_c, 0, 53, 95
3, 344880, Note_on_c, 0, 69, 95
3, 344880, Note_on_c, 0, 65, 95
3, 344880, Note_on_c, 0, 60, 95
3, 344880, Note_on_c, 0, 53, 95
3, 345120, Note_off_c, 0, 69, 95
3, 345120, Note_off_c, 0, 65, 95
3, 345120, Note_off_c, 0, 60, 95
3, 345120, Note_off_c, 0, 53, 95
3, 345120, Note_on_c, 0, 58, 95
3, 345120, Note_on_c, 0, 54, 95
3, 345120, Note_on_c, 0, 49, 95
3, 345120, Note_on_c, 0, 44, 95
3, 345159, Note_off_c, 0, 58, 95
3, 345159, Note_off_c, 0, 54, 95
3, 345159, Note_off_c, 0, 49, 95
3, 345159, Note_off_c, 0, 44, 95
3, 345360, Note_on_c, 0, 58, 95
3, 345360, Note_on_c, 0, 54, 95
3, 345360, Note_on_c, 0, 49, 95
3, 345360, Note_on_c, 0, 44, 95
3, 345399, Note_off_c, 0, 58, 95
3, 345399, Note_off_c, 0, 54, 95
3, 345399, Note_off_c, 0, 49, 95
3, 345399, Note_off_c, 0, 44, 95
3, 345600, Note_on_c, 0, 58, 95
3, 345600, Note_on_c, 0, 54, 95
3, 345600, Note_on_c, 0, 49, 95
3, 345600, Note_on_c, 0, 44, 95
3, 345639, Note_off_c, 0, 58, 95
3, 345639, Note_off_c, 0, 54, 95
3, 345639, Note_off_c, 0, 49, 95
3, 345639, Note_off_c, 0, 44, 95
3, 345840, Note_on_c, 0, 69, 95
3, 346080, Note_off_c, 0, 69, 95
3, 346080, Note_on_c, 0, 70, 70
3, 346320, Note_off_c, 0, 70, 70
3, 346320, Note_on_c, 0, 72, 95
3, 346560, Note_off_c, 0, 72, 95
3, 346560, Note_on_c, 1, 77, 95
3, 346560, Note_on_c, 1, 72, 95
3, 346680, Pitch_bend_c, 1, 7552
3, 346680, Pitch_bend_c, 1, 7552
3, 346800, Pitch_bend_c, 1, 6784
3, 346800, Pitch_bend_c, 1, 6784
3, 346920, Pitch_bend_c, 1, 6144
3, 346920, Pitch_bend_c, 1, 6144
3, 347040, Pitch_bend_c, 1, 5376
3, 347040, Pitch_bend_c, 1, 8192
3, 347040, Note_off_c, 1, 77, 95
3, 347040, Pitch_bend_c, 1, 5376
3, 347040, Pitch_bend_c, 1, 8192
3, 347040, Note_off_c, 1, 72, 95
3, 347040, Note_on_c, 0, 73, 47
3, 347040, Note_on_c, 0, 68, 47
3, 347280, Note_off_c, 0, 73, 47
3, 347280, Note_off_c, 0, 68, 47
3, 347280, Note_on_c, 0, 72, 95
3, 347280, Pitch_bend_c, 1, 8192
3, 347280, Note_on_c, 1, 70, 95
3, 347301, Pitch_bend_c, 1, 8320
3, 347322, Pitch_bend_c, 1, 8448
3, 347343, Pitch_bend_c, 1, 8576
3, 347364, Pitch_bend_c, 1, 8704
3, 347385, Pitch_bend_c, 1, 8832
3, 347406, Pitch_bend_c, 1, 8960
3, 347427, Pitch_bend_c, 1, 9088
3, 347448, Pitch_bend_c, 1, 9216
3, 347469, Pitch_bend_c, 1, 9344
3, 347490, Pitch_bend_c, 1, 9472
3, 347511, Pitch_bend_c, 1, 9600
3, 347520, Pitch_bend_c, 1, 9600
3, 347760, Note_off_c, 0, 72, 95
3, 347760, Pitch_bend_c, 1, 9600
3, 347760, Pitch_bend_c, 1, 8192
3, 347760, Note_off_c, 1, 70, 95
3, 347760, Note_on_c, 0, 72, 95
3, 347760, Pitch_bend_c, 1, 8192
3, 347760, Note_on_c, 1, 70, 95
3, 347781, Pitch_bend_c, 1, 8320
3, 347802, Pitch_bend_c, 1, 8448
3, 347823, Pitch_bend_c, 1, 8576
3, 347844, Pitch_bend_c, 1, 8704
3, 347865, Pitch_bend_c, 1, 8832
3, 347886, Pitch_bend_c, 1, 8960
3, 347907, Pitch_bend_c, 1, 9088
3, 347928, Pitch_bend_c, 1, 9216
3, 347949, Pitch_bend_c, 1, 9344
3, 347970, Pitch_bend_c, 1, 9472
3, 347991, Pitch_bend_c, 1, 9600
3, 348000, Pitch_bend_c, 1, 9600
3, 348240, Note_off_c, 0, 72, 95
3, 348240, Pitch_bend_c, 1, 9600
3, 348240, Pitch_bend_c, 1, 8192
3, 348240, Note_off_c, 1, 70, 95
3, 348240, Note_on_c, 0, 77, 95
3, 348240, Note_on_c, 0, 72, 95
3, 348480, Note_off_c, 0, 77, 95
3, 348480, Note_off_c, 0, 72, 95
3, 348480, Note_on_c, 0, 77, 95
3, 348480, Note_on_c, 0, 72, 95
3, 348720, Note_off_c, 0, 77, 95
3, 348720, Note_off_c, 0, 72, 95
3, 348720, Note_on_c, 0, 77, 95
3, 348720, Note_on_c, 0, 72, 95
3, 348960, Note_off_c, 0, 77, 95
3, 348960, Note_off_c, 0, 72, 95
3, 348960, Note_on_c, 0, 77, 95
3, 348960, Note_on_c, 0, 72, 95
3, 349200, Note_off_c, 0, 77, 95
3, 349200, Note_off_c, 0, 72, 95
3, 349200, Note_on_c, 0, 77, 95
3, 349200, Note_on_c, 0, 72, 95
3, 349440, Note_off_c, 0, 77, 95
3, 349440, Note_off_c, 0, 72, 95
3, 349440, Pitch_bend_c, 1, 8192
3, 349440, Note_on_c, 1, 75, 95
3, 349454, Pitch_bend_c, 1, 8320
3, 349468, Pitch_bend_c, 1, 8448
3, 349482, Pitch_bend_c, 1, 8576
3, 349496, Pitch_bend_c, 1, 8704
3, 349510, Pitch_bend_c, 1, 8832
3, 349524, Pitch_bend_c, 1, 8960
3, 349538, Pitch_bend_c, 1, 9088
3, 349552, Pitch_bend_c, 1, 9216
3, 349566, Pitch_bend_c, 1, 9344
3, 349580, Pitch_bend_c, 1, 9472
3, 349594, Pitch_bend_c, 1, 9600
3, 349600, Pitch_bend_c, 1, 9600
3, 350400, Pitch_bend_c, 1, 9600
3, 350400, Pitch_bend_c, 1, 8192
3, 350400, Note_off_c, 1, 75, 95
3, 350400, Note_on_c, 0, 80, 95
3, 350640, Note_off_c, 0, 80, 95
3, 350640, Note_on_c, 0, 80, 95
3, 350880, Note_off_c, 0, 80, 95
3, 350880, Note_on_c, 0, 80, 95
3, 351120, Note_off_c, 0, 80, 95
3, 351120, Pitch_bend_c, 1, 9600
3, 351120, Note_on_c, 1, 75, 95
3, 351360, Pitch_bend_c, 1, 9600
3, 351360, Pitch_bend_c, 1, 8192
3, 351360, Note_off_c, 1, 75, 95
3, 351360, Pitch_bend_c, 1, 9600
3, 351360, Note_on_c, 1, 75, 95
3, 351600, Pitch_bend_c, 1, 9600
3, 351600, Pitch_bend_c, 1, 8192
3, 351600, Note_off_c, 1, 75, 95
3, 351600, Pitch_bend_c, 1, 9600
3, 351600, Note_on_c, 1, 75, 95
3, 351840, Pitch_bend_c, 1, 9600
3, 351840, Pitch_bend_c, 1, 8192
3, 351840, Note_off_c, 1, 75, 95
3, 351840, Pitch_bend_c, 1, 9600
3, 351840, Note_on_c, 1, 75, 95
3, 351960, Pitch_bend_c, 1, 9600
3, 351970, Pitch_bend_c, 1, 9472
3, 351980, Pitch_bend_c, 1, 9344
3, 351990, Pitch_bend_c, 1, 9216
3, 352000, Pitch_bend_c, 1, 9088
3, 352010, Pitch_bend_c, 1, 8960
3, 352020, Pitch_bend_c, 1, 8832
3, 352030, Pitch_bend_c, 1, 8704
3, 352040, Pitch_bend_c, 1, 8576
3, 352050, Pitch_bend_c, 1, 8448
3, 352060, Pitch_bend_c, 1, 8320
3, 352070, Pitch_bend_c, 1, 8192
3, 352080, Pitch_bend_c, 1, 8192
3, 352320, Pitch_bend_c, 1, 8192
3, 352320, Pitch_bend_c, 1, 8192
3, 352320, Note_off_c, 1, 75, 95
3, 352320, Pitch_bend_c, 1, 8192
3, 352320, Note_on_c, 1, 73, 95
3, 352440, Pitch_bend_c, 1, 8320
3, 352560, Pitch_bend_c, 1, 8448
3, 352560, Pitch_bend_c, 1, 8448
3, 352800, Pitch_bend_c, 1, 8448
3, 352800, Pitch_bend_c, 1, 8192
3, 352800, Note_off_c, 1, 73, 95
3, 352800, Note_on_c, 0, 49, 95
3, 352800, Note_on_c, 0, 44, 95
3, 352800, Note_on_c, 0, 39, 95
3, 352839, Note_off_c, 0, 49, 95
3, 352839, Note_off_c, 0, 44, 95
3, 352839, Note_off_c, 0, 39, 95
3, 353280, Note_on_c, 0, 46, 95
3, 353310, Note_on_c, 0, 53, 95
3, 353340, Note_on_c, 0, 58, 95
3, 353370, Note_on_c, 0, 62, 95
3, 360960, Note_off_c, 0, 62, 95
3, 360960, Note_off_c, 0, 58, 95
3, 360960, Note_off_c, 0, 53, 95
3, 360960, Note_off_c, 0, 46, 95
3, 360960, End_track
4, 0, Start_track
4, 0, Pitch_bend_c, 4, 8192
4, 0, Control_c, 4, 7, 87
4, 0, Control_c, 4, 10, 47
4, 0, Control_c, 4, 93, 31
4, 0, Control_c, 4, 91, 31
4, 0, Control_c, 4, 95, 0
4, 0, Control_c, 4, 92, 0
4, 0, Control_c, 4, 11, 127
4, 0, Program_c, 4, 29
4, 0, Control_c, 5, 7, 87
4, 0, Control_c, 5, 10, 47
4, 0, Control_c, 5, 93, 31
4, 0, Control_c, 5, 91, 31
4, 0, Control_c, 5, 95, 0
4, 0, Control_c, 5, 92, 0
4, 0, Control_c, 5, 11, 127
4, 0, Program_c, 5, 29
4, 0, Note_on_c, 4, 62, 47
4, 0, Note_on_c, 4, 58, 95
4, 0, Note_on_c, 4, 53, 95
4, 0, Note_on_c, 4, 46, 95
4, 480, Note_off_c, 4, 62, 47
4, 480, Note_off_c, 4, 58, 95
4, 480, Note_off_c, 4, 53, 95
4, 480, Note_off_c, 4, 46, 95
4, 480, Note_on_c, 4, 54, 95
4, 480, Note_on_c, 4, 49, 95
4, 517, Note_off_c, 4, 54, 95
4, 517, Note_off_c, 4, 49, 95
4, 720, Note_on_c, 4, 54, 95
4, 720, Note_on_c, 4, 49, 95
4, 757, Note_off_c, 4, 54, 95
4, 757, Note_off_c, 4, 49, 95
4, 960, Note_on_c, 4, 54, 95
4, 960, Note_on_c, 4, 49, 95
4, 960, Note_on_c, 4, 44, 95
4, 960, Note_on_c, 4, 39, 95
4, 997, Note_off_c, 4, 54, 95
4, 997, Note_off_c, 4, 49, 95
4, 997, Note_off_c, 4, 44, 95
4, 997, Note_off_c, 4, 39, 95
4, 1920, Note_on_c, 4, 51, 95
4, 1920, Note_on_c, 4, 46, 95
4, 1920, Note_on_c, 4, 39, 95
4, 2400, Note_off_c, 4, 51, 95
4, 2400, Note_off_c, 4, 46, 95
4, 2400, Note_off_c, 4, 39, 95
4, 2400, Note_on_c, 4, 58, 47
4, 2400, Note_on_c, 4, 55, 95
4, 2400, Note_on_c, 4, 51, 95
4, 2400, Note_on_c, 4, 46, 95
4, 2880, Note_off_c, 4, 58, 47
4, 2880, Note_off_c, 4, 55, 95
4, 2880, Note_off_c, 4, 51, 95
4, 2880, Note_off_c, 4, 46, 95
4, 3600, Note_on_c, 4, 57, 47
4, 3600, Note_on_c, 4, 53, 47
4, 3600, Note_on_c, 4, 48, 47
4, 3600, Note_on_c, 4, 39, 95
4, 3840, Note_off_c, 4, 57, 47
4, 3840, Note_off_c, 4, 53, 47
4, 3840, Note_off_c, 4, 48, 47
4, 3840, Note_off_c, 4, 39, 95
4, 3840, Note_on_c, 4, 41, 70
4, 4320, Note_off_c, 4, 41, 70
4, 4800, Note_on_c, 4, 48, 47
4, 4800, Note_on_c, 4, 41, 95
4, 5280, Note_off_c, 4, 48, 47
4, 5280, Note_off_c, 4, 41, 95
4, 5760, Note_on_c, 4, 44, 95
4, 5760, Note_on_c, 4, 39, 95
4, 5799, Note_off_c, 4, 44, 95
4, 5799, Note_off_c, 4, 39, 95
4, 6000, Note_on_c, 4, 63, 95
4, 6000, Note_on_c, 4, 58, 95
4, 6000, Note_on_c, 4, 51, 95
4, 6000, Note_on_c, 4, 39, 95
4, 6240, Note_off_c, 4, 63, 95
4, 6240, Note_off_c, 4, 58, 95
4, 6240, Note_off_c, 4, 51, 95
4, 6240, Note_off_c, 4, 39, 95
4, 6240, Note_on_c, 4, 63, 95
4, 6240, Note_on_c, 4, 58, 95
4, 6240, Note_on_c, 4, 51, 95
4, 6240, Note_on_c, 4, 39, 95
4, 6480, Note_off_c, 4, 63, 95
4, 6480, Note_off_c, 4, 58, 95
4, 6480, Note_off_c, 4, 51, 95
4, 6480, Note_off_c, 4, 39, 95
4, 6480, Note_on_c, 4, 63, 95
4, 6480, Note_on_c, 4, 58, 95
4, 6480, Note_on_c, 4, 51, 95
4, 6480, Note_on_c, 4, 39, 95
4, 6720, Note_off_c, 4, 63, 95
4, 6720, Note_off_c, 4, 58, 95
4, 6720, Note_off_c, 4, 51, 95
4, 6720, Note_off_c, 4, 39, 95
4, 6720, Note_on_c, 5, 63, 95
4, 6720, Note_on_c, 5, 58, 95
4, 6720, Note_on_c, 5, 51, 95
4, 6720, Note_on_c, 4, 39, 95
4, 6840, Pitch_bend_c, 5, 8832
4, 6840, Pitch_bend_c, 5, 8832
4, 6840, Pitch_bend_c, 5, 8832
4, 6960, Pitch_bend_c, 5, 9600
4, 6960, Pitch_bend_c, 5, 8192
4, 6960, Note_off_c, 5, 63, 95
4, 6960, Pitch_bend_c, 5, 9600
4, 6960, Pitch_bend_c, 5, 8192
4, 6960, Note_off_c, 5, 58, 95
4, 6960, Pitch_bend_c, 5, 9600
4, 6960, Pitch_bend_c, 5, 8192
4, 6960, Note_off_c, 5, 51, 95
4, 6960, Note_off_c, 4, 39, 95
4, 6960, Note_on_c, 4, 65, 95
4, 6960, Note_on_c, 4, 60, 95
4, 6960, Note_on_c, 4, 53, 95
4, 7200, Note_off_c, 4, 65, 95
4, 7200, Note_off_c, 4, 60, 95
4, 7200, Note_off_c, 4, 53, 95
4, 7200, Note_on_c, 4, 65, 95
4, 7200, Note_on_c, 4, 60, 95
4, 7200, Note_on_c, 4, 53, 95
4, 7680, Note_off_c, 4, 65, 95
4, 7680, Note_off_c, 4, 60, 95
4, 7680, Note_off_c, 4, 53, 95
4, 7680, Note_on_c, 4, 62, 95
4, 7680, Note_on_c, 4, 58, 95
4, 7680, Note_on_c, 4, 53, 95
4, 7680, Note_on_c, 4, 46, 95
4, 7680, Note_on_c, 5, 41, 47
4, 7800, Pitch_bend_c, 5, 8960
4, 7920, Pitch_bend_c, 5, 9728
4, 8040, Pitch_bend_c, 5, 10496
4, 8160, Pitch_bend_c, 5, 11264
4, 8280, Pitch_bend_c, 5, 12032
4, 8400, Pitch_bend_c, 5, 12928
4, 8520, Pitch_bend_c, 5, 13696
4, 8640, Note_off_c, 4, 62, 95
4, 8640, Note_off_c, 4, 58, 95
4, 8640, Note_off_c, 4, 53, 95
4, 8640, Note_off_c, 4, 46, 95
4, 8640, Pitch_bend_c, 5, 14464
4, 8640, Pitch_bend_c, 5, 8192
4, 8640, Note_off_c, 5, 41, 47
4, 8640, Note_on_c, 4, 50, 95
4, 9120, Note_off_c, 4, 50, 95
4, 9120, Note_on_c, 5, 65, 63
4, 9120, Note_on_c, 5, 60, 63
4, 9120, Note_on_c, 5, 55, 47
4, 9120, Note_on_c, 4, 39, 95
4, 9159, Note_off_c, 4, 39, 95
4, 9240, Pitch_bend_c, 5, 6272
4, 9240, Pitch_bend_c, 5, 6272
4, 9240, Pitch_bend_c, 5, 6272
4, 9360, Pitch_bend_c, 5, 4352
4, 9360, Pitch_bend_c, 5, 4352
4, 9360, Pitch_bend_c, 5, 4352
4, 9480, Pitch_bend_c, 5, 2432
4, 9480, Pitch_bend_c, 5, 2432
4, 9480, Pitch_bend_c, 5, 2432
4, 9600, Pitch_bend_c, 5, 512
4, 9600, Pitch_bend_c, 5, 8192
4, 9600, Note_off_c, 5, 65, 63
4, 9600, Pitch_bend_c, 5, 512
4, 9600, Pitch_bend_c, 5, 8192
4, 9600, Note_off_c, 5, 60, 63
4, 9600, Pitch_bend_c, 5, 512
4, 9600, Pitch_bend_c, 5, 8192
4, 9600, Note_off_c, 5, 55, 47
4, 9600, Note_on_c, 4, 54, 95
4, 9600, Note_on_c, 4, 49, 95
4, 9600, Note_on_c, 4, 44, 95
4, 9600, Note_on_c, 4, 39, 95
4, 9639, Note_off_c, 4, 54, 95
4, 9639, Note_off_c, 4, 49, 95
4, 9639, Note_off_c, 4, 44, 95
4, 9639, Note_off_c, 4, 39, 95
4, 9840, Note_on_c, 4, 55, 47
4, 9840, Note_on_c, 4, 51, 95
4, 9840, Note_on_c, 4, 46, 95
4, 9840, Note_on_c, 4, 39, 95
4, 10080, Note_off_c, 4, 55, 47
4, 10080, Note_off_c, 4, 51, 95
4, 10080, Note_off_c, 4, 46, 95
4, 10080, Note_off_c, 4, 39, 95
4, 10080, Note_on_c, 4, 51, 95
4, 10080, Note_on_c, 4, 46, 95
4, 10080, Note_on_c, 4, 39, 95
4, 10560, Note_off_c, 4, 51, 95
4, 10560, Note_off_c, 4, 46, 95
4, 10560, Note_off_c, 4, 39, 95
4, 10560, Note_on_c, 4, 55, 95
4, 10560, Note_on_c, 4, 51, 95
4, 10560, Note_on_c, 4, 46, 95
4, 10560, Note_on_c, 4, 39, 95
4, 11040, Note_off_c, 4, 55, 95
4, 11040, Note_off_c, 4, 51, 95
4, 11040, Note_off_c, 4, 46, 95
4, 11040, Note_off_c, 4, 39, 95
4, 11520, Note_on_c, 4, 53, 95
4, 11520, Note_on_c, 4, 48, 95
4, 11520, Note_on_c, 4, 41, 95
4, 12000, Note_off_c, 4, 53, 95
4, 12000, Note_off_c, 4, 48, 95
4, 12000, Note_off_c, 4, 41, 95
4, 12480, Note_on_c, 4, 57, 47
4, 12480, Note_on_c, 4, 53, 95
4, 12480, Note_on_c, 4, 48, 95
4, 12480, Note_on_c, 4, 41, 95
4, 12960, Note_off_c, 4, 57, 47
4, 12960, Note_off_c, 4, 53, 95
4, 12960, Note_off_c, 4, 48, 95
4, 12960, Note_off_c, 4, 41, 95
4, 13440, Note_on_c, 4, 41, 95
4, 13680, Note_off_c, 4, 41, 95
4, 13680, Note_on_c, 4, 43, 95
4, 13920, Note_off_c, 4, 43, 95
4, 13920, Note_on_c, 4, 46, 95
4, 14160, Note_off_c, 4, 46, 95
4, 14160, Note_on_c, 4, 43, 95
4, 14400, Note_off_c, 4, 43, 95
4, 14400, Note_on_c, 4, 46, 95
4, 14640, Note_off_c, 4, 46, 95
4, 14640, Note_on_c, 5, 48, 95
4, 14760, Pitch_bend_c, 5, 9600
4, 14760, Pitch_bend_c, 5, 8192
4, 14760, Note_off_c, 5, 48, 95
4, 14760, Note_on_c, 4, 50, 95
4, 14880, Note_off_c, 4, 50, 95
4, 14880, Note_on_c, 4, 58, 95
4, 14880, Note_on_c, 4, 53, 95
4, 15120, Note_off_c, 4, 58, 95
4, 15120, Note_off_c, 4, 53, 95
4, 15120, Note_on_c, 4, 54, 95
4, 15120, Note_on_c, 4, 49, 95
4, 15159, Note_off_c, 4, 54, 95
4, 15159, Note_off_c, 4, 49, 95
4, 15360, Note_on_c, 4, 58, 95
4, 15360, Note_on_c, 4, 53, 95
4, 15360, Note_on_c, 4, 46, 95
4, 16080, Note_off_c, 4, 58, 95
4, 16080, Note_off_c, 4, 53, 95
4, 16080, Note_off_c, 4, 46, 95
4, 16080, Note_on_c, 4, 62, 95
4, 16080, Note_on_c, 4, 58, 95
4, 16080, Note_on_c, 4, 53, 95
4, 16320, Note_off_c, 4, 62, 95
4, 16320, Note_off_c, 4, 58, 95
4, 16320, Note_off_c, 4, 53, 95
4, 16320, Note_on_c, 5, 62, 95
4, 16320, Note_on_c, 5, 58, 95
4, 16320, Note_on_c, 5, 53, 95
4, 16440, Pitch_bend_c, 5, 7552
4, 16440, Pitch_bend_c, 5, 7552
4, 16440, Pitch_bend_c, 5, 7552
4, 16560, Pitch_bend_c, 5, 6784
4, 16560, Pitch_bend_c, 5, 8192
4, 16560, Note_off_c, 5, 62, 95
4, 16560, Pitch_bend_c, 5, 6784
4, 16560, Pitch_bend_c, 5, 8192
4, 16560, Note_off_c, 5, 58, 95
4, 16560, Pitch_bend_c, 5, 6784
4, 16560, Pitch_bend_c, 5, 8192
4, 16560, Note_off_c, 5, 53, 95
4, 16560, Note_on_c, 4, 60, 95
4, 16560, Note_on_c, 4, 56, 95
4, 16560, Note_on_c, 4, 51, 95
4, 16800, Note_off_c, 4, 60, 95
4, 16800, Note_off_c, 4, 56, 95
4, 16800, Note_off_c, 4, 51, 95
4, 16800, Note_on_c, 4, 56, 95
4, 16800, Note_on_c, 4, 51, 95
4, 17280, Note_off_c, 4, 56, 95
4, 17280, Note_off_c, 4, 51, 95
4, 17280, Note_on_c, 4, 46, 95
4, 17280, Note_on_c, 4, 39, 95
4, 17760, Note_off_c, 4, 46, 95
4, 17760, Note_off_c, 4, 39, 95
4, 17760, Note_on_c, 4, 58, 95
4, 17760, Note_on_c, 4, 55, 95
4, 17760, Note_on_c, 4, 51, 95
4, 17760, Note_on_c, 4, 46, 95
4, 17760, Note_on_c, 4, 39, 95
4, 18240, Note_off_c, 4, 58, 95
4, 18240, Note_off_c, 4, 55, 95
4, 18240, Note_off_c, 4, 51, 95
4, 18240, Note_off_c, 4, 46, 95
4, 18240, Note_off_c, 4, 39, 95
4, 18240, Note_on_c, 4, 63, 95
4, 18240, Note_on_c, 4, 58, 95
4, 18240, Note_on_c, 4, 55, 95
4, 18240, Note_on_c, 4, 51, 95
4, 18240, Note_on_c, 4, 46, 95
4, 18240, Note_on_c, 4, 39, 95
4, 18480, Note_off_c, 4, 63, 95
4, 18480, Note_off_c, 4, 58, 95
4, 18480, Note_off_c, 4, 55, 95
4, 18480, Note_off_c, 4, 51, 95
4, 18480, Note_off_c, 4, 46, 95
4, 18480, Note_off_c, 4, 39, 95
4, 18480, Note_on_c, 4, 63, 95
4, 18480, Note_on_c, 4, 58, 95
4, 18480, Note_on_c, 4, 55, 95
4, 18480, Note_on_c, 4, 51, 95
4, 18720, Note_off_c, 4, 63, 95
4, 18720, Note_off_c, 4, 58, 95
4, 18720, Note_off_c, 4, 55, 95
4, 18720, Note_off_c, 4, 51, 95
4, 18720, Note_on_c, 4, 63, 95
4, 18720, Note_on_c, 4, 58, 95
4, 18720, Note_on_c, 4, 55, 95
4, 18720, Note_on_c, 4, 51, 95
4, 18720, Note_on_c, 4, 46, 95
4, 18960, Note_off_c, 4, 63, 95
4, 18960, Note_off_c, 4, 58, 95
4, 18960, Note_off_c, 4, 55, 95
4, 18960, Note_off_c, 4, 51, 95
4, 18960, Note_off_c, 4, 46, 95
4, 18960, Note_on_c, 4, 63, 95
4, 18960, Note_on_c, 4, 58, 95
4, 18960, Note_on_c, 4, 55, 95
4, 18960, Note_on_c, 4, 51, 95
4, 19200, Note_off_c, 4, 63, 95
4, 19200, Note_off_c, 4, 58, 95
4, 19200, Note_off_c, 4, 55, 95
4, 19200, Note_off_c, 4, 51, 95
4, 19200, Note_on_c, 4, 48, 95
4, 19200, Note_on_c, 4, 41, 95
4, 19680, Note_off_c, 4, 48, 95
4, 19680, Note_off_c, 4, 41, 95
4, 19680, Note_on_c, 4, 65, 47
4, 19680, Note_on_c, 4, 60, 95
4, 19680, Note_on_c, 4, 57, 95
4, 19680, Note_on_c, 4, 53, 95
4, 19920, Note_off_c, 4, 65, 47
4, 19920, Note_off_c, 4, 60, 95
4, 19920, Note_off_c, 4, 57, 95
4, 19920, Note_off_c, 4, 53, 95
4, 19920, Note_on_c, 4, 65, 47
4, 19920, Note_on_c, 4, 60, 95
4, 19920, Note_on_c, 4, 57, 95
4, 19920, Note_on_c, 4, 53, 95
4, 20160, Note_off_c, 4, 65, 47
4, 20160, Note_off_c, 4, 60, 95
4, 20160, Note_off_c, 4, 57, 95
4, 20160, Note_off_c, 4, 53, 95
4, 20160, Note_on_c, 4, 65, 47
4, 20160, Note_on_c, 4, 60, 95
4, 20160, Note_on_c, 4, 57, 95
4, 20160, Note_on_c, 4, 53, 95
4, 20400, Note_off_c, 4, 65, 47
4, 20400, Note_off_c, 4, 60, 95
4, 20400, Note_off_c, 4, 57, 95
4, 20400, Note_off_c, 4, 53, 95
4, 20400, Note_on_c, 4, 60, 95
4, 20400, Note_on_c, 4, 57, 95
4, 20400, Note_on_c, 4, 53, 95
4, 20640, Note_off_c, 4, 60, 95
4, 20640, Note_off_c, 4, 57, 95
4, 20640, Note_off_c, 4, 53, 95
4, 20640, Note_on_c, 4, 60, 95
4, 20640, Note_on_c, 4, 57, 95
4, 20640, Note_on_c, 4, 53, 95
4, 20880, Note_off_c, 4, 60, 95
4, 20880, Note_off_c, 4, 57, 95
4, 20880, Note_off_c, 4, 53, 95
4, 20880, Note_on_c, 4, 60, 95
4, 20880, Note_on_c, 4, 57, 95
4, 20880, Note_on_c, 4, 53, 95
4, 21120, Note_off_c, 4, 60, 95
4, 21120, Note_off_c, 4, 57, 95
4, 21120, Note_off_c, 4, 53, 95
4, 21120, Note_on_c, 4, 65, 95
4, 21120, Note_on_c, 4, 60, 95
4, 21120, Note_on_c, 4, 57, 95
4, 21360, Note_off_c, 4, 65, 95
4, 21360, Note_off_c, 4, 60, 95
4, 21360, Note_off_c, 4, 57, 95
4, 21360, Note_on_c, 4, 58, 70
4, 21600, Note_off_c, 4, 58, 70
4, 21600, Note_on_c, 4, 65, 95
4, 21600, Note_on_c, 4, 60, 95
4, 21600, Note_on_c, 4, 58, 95
4, 21840, Note_off_c, 4, 65, 95
4, 21840, Note_off_c, 4, 60, 95
4, 21840, Note_off_c, 4, 58, 95
4, 21840, Note_on_c, 4, 65, 95
4, 21840, Note_on_c, 4, 60, 95
4, 21840, Note_on_c, 4, 58, 95
4, 22080, Note_off_c, 4, 65, 95
4, 22080, Note_off_c, 4, 60, 95
4, 22080, Note_off_c, 4, 58, 95
4, 22080, Note_on_c, 4, 65, 95
4, 22080, Note_on_c, 4, 60, 95
4, 22080, Note_on_c, 4, 58, 95
4, 22320, Note_off_c, 4, 65, 95
4, 22320, Note_off_c, 4, 60, 95
4, 22320, Note_off_c, 4, 58, 95
4, 22320, Note_on_c, 4, 65, 95
4, 22320, Note_on_c, 4, 60, 95
4, 22320, Note_on_c, 4, 58, 95
4, 22560, Note_off_c, 4, 65, 95
4, 22560, Note_off_c, 4, 60, 95
4, 22560, Note_off_c, 4, 58, 95
4, 22560, Note_on_c, 4, 65, 95
4, 22560, Note_on_c, 4, 60, 95
4, 22560, Note_on_c, 4, 58, 95
4, 22800, Note_off_c, 4, 65, 95
4, 22800, Note_off_c, 4, 60, 95
4, 22800, Note_off_c, 4, 58, 95
4, 22800, Note_on_c, 4, 58, 95
4, 22800, Note_on_c, 4, 54, 95
4, 22839, Note_off_c, 4, 58, 95
4, 22839, Note_off_c, 4, 54, 95
4, 23040, Pitch_bend_c, 5, 8192
4, 23040, Note_on_c, 5, 60, 95
4, 23045, Pitch_bend_c, 5, 8320
4, 23050, Pitch_bend_c, 5, 8448
4, 23055, Pitch_bend_c, 5, 8576
4, 23060, Pitch_bend_c, 5, 8704
4, 23065, Pitch_bend_c, 5, 8832
4, 23070, Pitch_bend_c, 5, 8960
4, 23075, Pitch_bend_c, 5, 9088
4, 23080, Pitch_bend_c, 5, 9216
4, 23085, Pitch_bend_c, 5, 9344
4, 23090, Pitch_bend_c, 5, 9472
4, 23095, Pitch_bend_c, 5, 9600
4, 23100, Pitch_bend_c, 5, 9600
4, 23280, Pitch_bend_c, 5, 9600
4, 23280, Pitch_bend_c, 5, 8192
4, 23280, Note_off_c, 5, 60, 95
4, 23280, Note_on_c, 4, 65, 95
4, 23520, Note_off_c, 4, 65, 95
4, 23520, Note_on_c, 4, 70, 95
4, 23760, Note_off_c, 4, 70, 95
4, 23760, Note_on_c, 4, 65, 95
4, 24000, Note_off_c, 4, 65, 95
4, 24000, Pitch_bend_c, 5, 9600
4, 24000, Note_on_c, 5, 60, 95
4, 24120, Pitch_bend_c, 5, 9600
4, 24130, Pitch_bend_c, 5, 9472
4, 24140, Pitch_bend_c, 5, 9344
4, 24150, Pitch_bend_c, 5, 9216
4, 24160, Pitch_bend_c, 5, 9088
4, 24170, Pitch_bend_c, 5, 8960
4, 24180, Pitch_bend_c, 5, 8832
4, 24190, Pitch_bend_c, 5, 8704
4, 24200, Pitch_bend_c, 5, 8576
4, 24210, Pitch_bend_c, 5, 8448
4, 24220, Pitch_bend_c, 5, 8320
4, 24230, Pitch_bend_c, 5, 8192
4, 24240, Pitch_bend_c, 5, 8192
4, 24480, Pitch_bend_c, 5, 8192
4, 24480, Pitch_bend_c, 5, 8192
4, 24480, Note_off_c, 5, 60, 95
4, 24480, Note_on_c, 4, 58, 95
4, 24720, Note_off_c, 4, 58, 95
4, 24720, Note_on_c, 4, 55, 95
4, 24960, Note_off_c, 4, 55, 95
4, 24960, Note_on_c, 4, 39, 95
4, 25440, Note_off_c, 4, 39, 95
4, 25440, Note_on_c, 4, 63, 95
4, 25440, Note_on_c, 4, 58, 95
4, 25680, Note_off_c, 4, 63, 95
4, 25680, Note_off_c, 4, 58, 95
4, 25680, Note_on_c, 4, 63, 95
4, 25680, Note_on_c, 4, 58, 95
4, 25920, Note_off_c, 4, 63, 95
4, 25920, Note_off_c, 4, 58, 95
4, 25920, Note_on_c, 4, 63, 95
4, 25920, Note_on_c, 4, 58, 95
4, 25920, Note_on_c, 4, 63, 95
4, 25920, Note_on_c, 4, 58, 95
4, 25920, Note_on_c, 4, 53, 95
4, 25920, Note_on_c, 4, 39, 95
4, 26160, Note_off_c, 4, 63, 95
4, 26160, Note_off_c, 4, 58, 95
4, 26160, Note_off_c, 4, 63, 95
4, 26160, Note_off_c, 4, 58, 95
4, 26160, Note_off_c, 4, 53, 95
4, 26160, Note_off_c, 4, 39, 95
4, 26160, Note_on_c, 4, 63, 95
4, 26160, Note_on_c, 4, 58, 95
4, 26160, Note_on_c, 4, 63, 95
4, 26160, Note_on_c, 4, 58, 95
4, 26160, Note_on_c, 4, 55, 70
4, 26160, Note_on_c, 4, 39, 95
4, 26400, Note_off_c, 4, 63, 95
4, 26400, Note_off_c, 4, 58, 95
4, 26400, Note_off_c, 4, 63, 95
4, 26400, Note_off_c, 4, 58, 95
4, 26400, Note_off_c, 4, 55, 70
4, 26400, Note_off_c, 4, 39, 95
4, 26400, Note_on_c, 4, 63, 95
4, 26400, Note_on_c, 4, 58, 95
4, 26400, Note_on_c, 4, 63, 95
4, 26400, Note_on_c, 4, 58, 95
4, 26400, Note_on_c, 4, 55, 95
4, 26400, Note_on_c, 4, 39, 95
4, 26640, Note_off_c, 4, 63, 95
4, 26640, Note_off_c, 4, 58, 95
4, 26640, Note_off_c, 4, 63, 95
4, 26640, Note_off_c, 4, 58, 95
4, 26640, Note_off_c, 4, 55, 95
4, 26640, Note_off_c, 4, 39, 95
4, 26640, Note_on_c, 4, 63, 95
4, 26640, Note_on_c, 4, 58, 95
4, 26880, Note_off_c, 4, 63, 95
4, 26880, Note_off_c, 4, 58, 95
4, 26880, Note_on_c, 5, 67, 95
4, 26880, Note_on_c, 5, 63, 95
4, 26880, Note_on_c, 5, 58, 95
4, 26880, Note_on_c, 5, 51, 95
4, 27000, Pitch_bend_c, 5, 8448
4, 27000, Pitch_bend_c, 5, 8448
4, 27000, Pitch_bend_c, 5, 8448
4, 27000, Pitch_bend_c, 5, 8448
4, 27120, Pitch_bend_c, 5, 8832
4, 27120, Pitch_bend_c, 5, 8832
4, 27120, Pitch_bend_c, 5, 8832
4, 27120, Pitch_bend_c, 5, 8832
4, 27240, Pitch_bend_c, 5, 9216
4, 27240, Pitch_bend_c, 5, 9216
4, 27240, Pitch_bend_c, 5, 9216
4, 27240, Pitch_bend_c, 5, 9216
4, 27360, Pitch_bend_c, 5, 9600
4, 27360, Pitch_bend_c, 5, 8192
4, 27360, Note_off_c, 5, 67, 95
4, 27360, Pitch_bend_c, 5, 9600
4, 27360, Pitch_bend_c, 5, 8192
4, 27360, Note_off_c, 5, 63, 95
4, 27360, Pitch_bend_c, 5, 9600
4, 27360, Pitch_bend_c, 5, 8192
4, 27360, Note_off_c, 5, 58, 95
4, 27360, Pitch_bend_c, 5, 9600
4, 27360, Pitch_bend_c, 5, 8192
4, 27360, Note_off_c, 5, 51, 95
4, 27360, Note_on_c, 4, 69, 95
4, 27360, Note_on_c, 4, 65, 95
4, 27360, Note_on_c, 4, 60, 95
4, 27360, Note_on_c, 4, 53, 95
4, 27840, Note_off_c, 4, 69, 95
4, 27840, Note_off_c, 4, 65, 95
4, 27840, Note_off_c, 4, 60, 95
4, 27840, Note_off_c, 4, 53, 95
4, 27840, Note_on_c, 4, 58, 95
4, 27840, Note_on_c, 4, 54, 95
4, 27840, Note_on_c, 4, 49, 95
4, 27840, Note_on_c, 4, 44, 95
4, 27879, Note_off_c, 4, 58, 95
4, 27879, Note_off_c, 4, 54, 95
4, 27879, Note_off_c, 4, 49, 95
4, 27879, Note_off_c, 4, 44, 95
4, 28320, Note_on_c, 4, 60, 95
4, 28320, Note_on_c, 4, 57, 95
4, 28320, Note_on_c, 4, 53, 95
4, 28320, Note_on_c, 4, 48, 95
4, 28320, Note_on_c, 4, 41, 47
4, 28560, Note_off_c, 4, 60, 95
4, 28560, Note_off_c, 4, 57, 95
4, 28560, Note_off_c, 4, 53, 95
4, 28560, Note_off_c, 4, 48, 95
4, 28560, Note_off_c, 4, 41, 47
4, 28560, Note_on_c, 4, 60, 95
4, 28560, Note_on_c, 4, 57, 95
4, 28560, Note_on_c, 4, 53, 95
4, 28560, Note_on_c, 4, 48, 95
4, 28800, Note_off_c, 4, 60, 95
4, 28800, Note_off_c, 4, 57, 95
4, 28800, Note_off_c, 4, 53, 95
4, 28800, Note_off_c, 4, 48, 95
4, 28800, Note_on_c, 4, 60, 95
4, 28800, Note_on_c, 4, 57, 95
4, 28800, Note_on_c, 4, 53, 95
4, 28800, Note_on_c, 4, 48, 95
4, 29040, Note_off_c, 4, 60, 95
4, 29040, Note_off_c, 4, 57, 95
4, 29040, Note_off_c, 4, 53, 95
4, 29040, Note_off_c, 4, 48, 95
4, 29040, Note_on_c, 4, 60, 47
4, 29040, Note_on_c, 4, 57, 47
4, 29040, Note_on_c, 4, 53, 47
4, 29040, Note_on_c, 4, 48, 47
4, 29280, Note_off_c, 4, 60, 47
4, 29280, Note_off_c, 4, 57, 47
4, 29280, Note_off_c, 4, 53, 47
4, 29280, Note_off_c, 4, 48, 47
4, 29280, Note_on_c, 4, 60, 95
4, 29280, Note_on_c, 4, 57, 95
4, 29280, Note_on_c, 4, 53, 95
4, 29280, Note_on_c, 4, 48, 95
4, 29520, Note_off_c, 4, 60, 95
4, 29520, Note_off_c, 4, 57, 95
4, 29520, Note_off_c, 4, 53, 95
4, 29520, Note_off_c, 4, 48, 95
4, 29520, Note_on_c, 4, 60, 47
4, 29520, Note_on_c, 4, 57, 47
4, 29520, Note_on_c, 4, 53, 47
4, 29520, Note_on_c, 4, 48, 47
4, 29760, Note_off_c, 4, 60, 47
4, 29760, Note_off_c, 4, 57, 47
4, 29760, Note_off_c, 4, 53, 47
4, 29760, Note_off_c, 4, 48, 47
4, 29760, Note_on_c, 4, 60, 95
4, 29760, Note_on_c, 4, 57, 95
4, 29760, Note_on_c, 4, 53, 95
4, 29760, Note_on_c, 4, 48, 95
4, 30000, Note_off_c, 4, 60, 95
4, 30000, Note_off_c, 4, 57, 95
4, 30000, Note_off_c, 4, 53, 95
4, 30000, Note_off_c, 4, 48, 95
4, 30000, Note_on_c, 4, 60, 47
4, 30000, Note_on_c, 4, 57, 47
4, 30000, Note_on_c, 4, 53, 47
4, 30000, Note_on_c, 4, 48, 47
4, 30240, Note_off_c, 4, 60, 47
4, 30240, Note_off_c, 4, 57, 47
4, 30240, Note_off_c, 4, 53, 47
4, 30240, Note_off_c, 4, 48, 47
4, 30240, Note_on_c, 4, 60, 95
4, 30240, Note_on_c, 4, 57, 95
4, 30240, Note_on_c, 4, 53, 95
4, 30240, Note_on_c, 4, 48, 95
4, 30480, Note_off_c, 4, 60, 95
4, 30480, Note_off_c, 4, 57, 95
4, 30480, Note_off_c, 4, 53, 95
4, 30480, Note_off_c, 4, 48, 95
4, 30480, Note_on_c, 4, 58, 95
4, 30480, Note_on_c, 4, 54, 95
4, 30480, Note_on_c, 4, 49, 95
4, 30480, Note_on_c, 4, 44, 95
4, 30519, Note_off_c, 4, 58, 95
4, 30519, Note_off_c, 4, 54, 95
4, 30519, Note_off_c, 4, 49, 95
4, 30519, Note_off_c, 4, 44, 95
4, 30720, Note_on_c, 5, 70, 47
4, 30720, Note_on_c, 5, 65, 47
4, 30720, Note_on_c, 5, 62, 95
4, 30720, Note_on_c, 5, 58, 95
4, 30720, Note_on_c, 5, 53, 95
4, 30720, Note_on_c, 5, 46, 95
4, 30840, Pitch_bend_c, 5, 7936
4, 30840, Pitch_bend_c, 5, 7936
4, 30840, Pitch_bend_c, 5, 7936
4, 30840, Pitch_bend_c, 5, 7936
4, 30840, Pitch_bend_c, 5, 7936
4, 30840, Pitch_bend_c, 5, 7936
4, 30960, Pitch_bend_c, 5, 7552
4, 30960, Pitch_bend_c, 5, 7552
4, 30960, Pitch_bend_c, 5, 7552
4, 30960, Pitch_bend_c, 5, 7552
4, 30960, Pitch_bend_c, 5, 7552
4, 30960, Pitch_bend_c, 5, 7552
4, 31080, Pitch_bend_c, 5, 7168
4, 31080, Pitch_bend_c, 5, 7168
4, 31080, Pitch_bend_c, 5, 7168
4, 31080, Pitch_bend_c, 5, 7168
4, 31080, Pitch_bend_c, 5, 7168
4, 31080, Pitch_bend_c, 5, 7168
4, 31200, Pitch_bend_c, 5, 6784
4, 31200, Pitch_bend_c, 5, 8192
4, 31200, Note_off_c, 5, 70, 47
4, 31200, Pitch_bend_c, 5, 6784
4, 31200, Pitch_bend_c, 5, 8192
4, 31200, Note_off_c, 5, 65, 47
4, 31200, Pitch_bend_c, 5, 6784
4, 31200, Pitch_bend_c, 5, 8192
4, 31200, Note_off_c, 5, 62, 95
4, 31200, Pitch_bend_c, 5, 6784
4, 31200, Pitch_bend_c, 5, 8192
4, 31200, Note_off_c, 5, 58, 95
4, 31200, Pitch_bend_c, 5, 6784
4, 31200, Pitch_bend_c, 5, 8192
4, 31200, Note_off_c, 5, 53, 95
4, 31200, Pitch_bend_c, 5, 6784
4, 31200, Pitch_bend_c, 5, 8192
4, 31200, Note_off_c, 5, 46, 95
4, 31200, Note_on_c, 4, 68, 15
4, 31200, Note_on_c, 4, 63, 15
4, 31200, Note_on_c, 4, 60, 15
4, 31200, Note_on_c, 4, 56, 15
4, 31200, Note_on_c, 4, 51, 15
4, 31200, Note_on_c, 4, 44, 15
4, 31440, Note_off_c, 4, 68, 15
4, 31440, Note_off_c, 4, 63, 15
4, 31440, Note_off_c, 4, 60, 15
4, 31440, Note_off_c, 4, 56, 15
4, 31440, Note_off_c, 4, 51, 15
4, 31440, Note_off_c, 4, 44, 15
4, 31680, Note_on_c, 4, 54, 95
4, 31680, Note_on_c, 4, 49, 95
4, 31680, Note_on_c, 4, 44, 95
4, 31680, Note_on_c, 4, 39, 95
4, 31719, Note_off_c, 4, 54, 95
4, 31719, Note_off_c, 4, 49, 95
4, 31719, Note_off_c, 4, 44, 95
4, 31719, Note_off_c, 4, 39, 95
4, 31920, Note_on_c, 4, 54, 95
4, 31920, Note_on_c, 4, 49, 95
4, 31920, Note_on_c, 4, 44, 95
4, 31920, Note_on_c, 4, 39, 95
4, 31959, Note_off_c, 4, 54, 95
4, 31959, Note_off_c, 4, 49, 95
4, 31959, Note_off_c, 4, 44, 95
4, 31959, Note_off_c, 4, 39, 95
4, 32640, Note_on_c, 4, 39, 95
4, 33120, Note_off_c, 4, 39, 95
4, 33120, Note_on_c, 4, 55, 95
4, 33120, Note_on_c, 4, 51, 95
4, 33360, Note_off_c, 4, 55, 95
4, 33360, Note_off_c, 4, 51, 95
4, 33360, Note_on_c, 4, 55, 95
4, 33360, Note_on_c, 4, 51, 95
4, 33600, Note_off_c, 4, 55, 95
4, 33600, Note_off_c, 4, 51, 95
4, 33600, Note_on_c, 4, 58, 95
4, 33600, Note_on_c, 4, 53, 47
4, 33600, Note_on_c, 4, 51, 95
4, 33840, Note_off_c, 4, 58, 95
4, 33840, Note_off_c, 4, 53, 47
4, 33840, Note_off_c, 4, 51, 95
4, 33840, Note_on_c, 4, 55, 70
4, 34080, Note_off_c, 4, 55, 70
4, 34080, Note_on_c, 4, 58, 95
4, 34080, Note_on_c, 4, 55, 95
4, 34320, Note_off_c, 4, 58, 95
4, 34320, Note_off_c, 4, 55, 95
4, 34320, Note_on_c, 4, 39, 95
4, 34560, Note_off_c, 4, 39, 95
4, 34560, Note_on_c, 4, 41, 95
4, 35520, Note_off_c, 4, 41, 95
4, 35520, Note_on_c, 4, 48, 95
4, 36000, Note_off_c, 4, 48, 95
4, 36000, Note_on_c, 4, 53, 95
4, 36480, Note_off_c, 4, 53, 95
4, 36480, Note_on_c, 4, 48, 95
4, 36960, Note_off_c, 4, 48, 95
4, 36960, Note_on_c, 4, 53, 95
4, 37440, Note_off_c, 4, 53, 95
4, 37440, Note_on_c, 4, 48, 95
4, 37920, Note_off_c, 4, 48, 95
4, 37920, Note_on_c, 4, 44, 95
4, 37959, Note_off_c, 4, 44, 95
4, 38240, Note_on_c, 4, 50, 47
4, 38240, Note_on_c, 4, 43, 95
4, 38400, Note_off_c, 4, 50, 47
4, 38400, Note_off_c, 4, 43, 95
4, 38400, Note_on_c, 4, 46, 70
4, 39120, Note_off_c, 4, 46, 70
4, 39120, Note_on_c, 4, 58, 95
4, 39120, Note_on_c, 4, 53, 95
4, 39120, Note_on_c, 4, 50, 95
4, 39360, Note_off_c, 4, 58, 95
4, 39360, Note_off_c, 4, 53, 95
4, 39360, Note_off_c, 4, 50, 95
4, 39600, Note_on_c, 5, 58, 47
4, 39600, Note_on_c, 5, 53, 95
4, 39600, Note_on_c, 5, 50, 95
4, 39720, Pitch_bend_c, 5, 7552
4, 39720, Pitch_bend_c, 5, 7552
4, 39720, Pitch_bend_c, 5, 7552
4, 39840, Pitch_bend_c, 5, 6784
4, 39840, Pitch_bend_c, 5, 8192
4, 39840, Note_off_c, 5, 58, 47
4, 39840, Pitch_bend_c, 5, 6784
4, 39840, Pitch_bend_c, 5, 8192
4, 39840, Note_off_c, 5, 53, 95
4, 39840, Pitch_bend_c, 5, 6784
4, 39840, Pitch_bend_c, 5, 8192
4, 39840, Note_off_c, 5, 50, 95
4, 39840, Note_on_c, 4, 56, 95
4, 39840, Note_on_c, 4, 51, 95
4, 39840, Note_on_c, 4, 48, 95
4, 40320, Note_off_c, 4, 56, 95
4, 40320, Note_off_c, 4, 51, 95
4, 40320, Note_off_c, 4, 48, 95
4, 40320, Note_on_c, 4, 39, 95
4, 41040, Note_off_c, 4, 39, 95
4, 41040, Note_on_c, 4, 51, 47
4, 41280, Note_off_c, 4, 51, 47
4, 41280, Note_on_c, 4, 55, 95
4, 41760, Note_off_c, 4, 55, 95
4, 41760, Note_on_c, 4, 51, 95
4, 42240, Note_off_c, 4, 51, 95
4, 42240, Note_on_c, 4, 41, 95
4, 42720, Note_off_c, 4, 41, 95
4, 42720, Note_on_c, 4, 48, 47
4, 42960, Note_off_c, 4, 48, 47
4, 42960, Note_on_c, 4, 53, 95
4, 43200, Note_off_c, 4, 53, 95
4, 43200, Note_on_c, 4, 48, 95
4, 43680, Note_off_c, 4, 48, 95
4, 43680, Note_on_c, 4, 41, 95
4, 43920, Note_off_c, 4, 41, 95
4, 43920, Note_on_c, 4, 43, 95
4, 44160, Note_off_c, 4, 43, 95
4, 44160, Note_on_c, 4, 46, 95
4, 44400, Note_off_c, 4, 46, 95
4, 44400, Note_on_c, 5, 48, 70
4, 44520, Pitch_bend_c, 5, 9600
4, 44520, Pitch_bend_c, 5, 8192
4, 44520, Note_off_c, 5, 48, 70
4, 44520, Note_on_c, 4, 50, 95
4, 44640, Note_off_c, 4, 50, 95
4, 44640, Note_on_c, 4, 53, 95
4, 44880, Note_off_c, 4, 53, 95
4, 44880, Note_on_c, 5, 58, 95
4, 44880, Note_on_c, 5, 53, 95
4, 45000, Pitch_bend_c, 5, 7552
4, 45000, Pitch_bend_c, 5, 7552
4, 45120, Pitch_bend_c, 5, 6784
4, 45120, Pitch_bend_c, 5, 8192
4, 45120, Note_off_c, 5, 58, 95
4, 45120, Pitch_bend_c, 5, 6784
4, 45120, Pitch_bend_c, 5, 8192
4, 45120, Note_off_c, 5, 53, 95
4, 45120, Note_on_c, 4, 56, 95
4, 45120, Note_on_c, 4, 51, 95
4, 45360, Note_off_c, 4, 56, 95
4, 45360, Note_off_c, 4, 51, 95
4, 45360, Note_on_c, 5, 56, 95
4, 45360, Note_on_c, 4, 51, 95
4, 45480, Pitch_bend_c, 5, 7936
4, 45600, Pitch_bend_c, 5, 7552
4, 45600, Pitch_bend_c, 5, 8192
4, 45600, Note_off_c, 5, 56, 95
4, 45600, Note_on_c, 4, 55, 95
4, 45840, Note_off_c, 4, 51, 95
4, 45840, Note_off_c, 4, 55, 95
4, 45840, Note_on_c, 4, 54, 95
4, 45840, Note_on_c, 4, 49, 95
4, 45879, Note_off_c, 4, 54, 95
4, 45879, Note_off_c, 4, 49, 95
4, 46080, Note_on_c, 4, 53, 95
4, 46080, Note_on_c, 4, 46, 95
4, 47040, Note_off_c, 4, 53, 95
4, 47040, Note_off_c, 4, 46, 95
4, 47040, Note_on_c, 4, 46, 47
4, 47280, Note_off_c, 4, 46, 47
4, 47280, Note_on_c, 5, 58, 95
4, 47280, Note_on_c, 5, 53, 95
4, 47400, Pitch_bend_c, 5, 7552
4, 47400, Pitch_bend_c, 5, 7552
4, 47520, Pitch_bend_c, 5, 6784
4, 47520, Pitch_bend_c, 5, 8192
4, 47520, Note_off_c, 5, 58, 95
4, 47520, Pitch_bend_c, 5, 6784
4, 47520, Pitch_bend_c, 5, 8192
4, 47520, Note_off_c, 5, 53, 95
4, 47520, Note_on_c, 4, 56, 95
4, 47520, Note_on_c, 4, 51, 95
4, 47760, Note_off_c, 4, 56, 95
4, 47760, Note_off_c, 4, 51, 95
4, 47760, Note_on_c, 4, 56, 95
4, 47760, Note_on_c, 4, 51, 95
4, 48000, Note_off_c, 4, 56, 95
4, 48000, Note_off_c, 4, 51, 95
4, 48000, Note_on_c, 4, 39, 95
4, 48480, Note_off_c, 4, 39, 95
4, 48480, Note_on_c, 4, 39, 95
4, 48960, Note_off_c, 4, 39, 95
4, 48960, Note_on_c, 4, 55, 95
4, 48960, Note_on_c, 4, 51, 95
4, 49440, Note_off_c, 4, 55, 95
4, 49440, Note_off_c, 4, 51, 95
4, 49440, Note_on_c, 4, 39, 95
4, 49680, Note_off_c, 4, 39, 95
4, 49680, Note_on_c, 4, 41, 70
4, 49920, Note_off_c, 4, 41, 70
4, 49920, Note_on_c, 4, 48, 95
4, 49920, Note_on_c, 4, 41, 95
4, 50640, Note_off_c, 4, 48, 95
4, 50640, Note_off_c, 4, 41, 95
4, 50640, Note_on_c, 4, 57, 95
4, 50640, Note_on_c, 4, 53, 95
4, 51120, Note_off_c, 4, 57, 95
4, 51120, Note_off_c, 4, 53, 95
4, 51120, Note_on_c, 4, 41, 95
4, 51360, Note_off_c, 4, 41, 95
4, 51360, Note_on_c, 4, 41, 95
4, 51600, Note_off_c, 4, 41, 95
4, 51600, Note_on_c, 4, 57, 95
4, 51600, Note_on_c, 4, 53, 95
4, 52080, Note_off_c, 4, 57, 95
4, 52080, Note_off_c, 4, 53, 95
4, 52080, Note_on_c, 4, 60, 95
4, 52560, Note_off_c, 4, 60, 95
4, 52560, Note_on_c, 4, 57, 95
4, 52800, Note_off_c, 4, 57, 95
4, 52800, Note_on_c, 4, 53, 95
4, 53040, Note_off_c, 4, 53, 95
4, 53040, Note_on_c, 4, 60, 95
4, 53280, Note_off_c, 4, 60, 95
4, 53280, Note_on_c, 4, 57, 95
4, 53520, Note_off_c, 4, 57, 95
4, 53520, Note_on_c, 4, 53, 47
4, 53760, Note_off_c, 4, 53, 47
4, 53760, Note_on_c, 4, 65, 95
4, 53760, Pitch_bend_c, 5, 8192
4, 53760, Note_on_c, 5, 60, 95
4, 53767, Pitch_bend_c, 5, 8320
4, 53774, Pitch_bend_c, 5, 8448
4, 53781, Pitch_bend_c, 5, 8576
4, 53788, Pitch_bend_c, 5, 8704
4, 53795, Pitch_bend_c, 5, 8832
4, 53802, Pitch_bend_c, 5, 8960
4, 53809, Pitch_bend_c, 5, 9088
4, 53816, Pitch_bend_c, 5, 9216
4, 53823, Pitch_bend_c, 5, 9344
4, 53830, Pitch_bend_c, 5, 9472
4, 53837, Pitch_bend_c, 5, 9600
4, 53840, Pitch_bend_c, 5, 9600
4, 54000, Note_off_c, 4, 65, 95
4, 54000, Pitch_bend_c, 5, 9600
4, 54000, Pitch_bend_c, 5, 8192
4, 54000, Note_off_c, 5, 60, 95
4, 54000, Note_on_c, 4, 65, 47
4, 54240, Note_off_c, 4, 65, 47
4, 54240, Note_on_c, 4, 67, 95
4, 54240, Note_on_c, 4, 62, 95
4, 54480, Note_off_c, 4, 67, 95
4, 54480, Note_off_c, 4, 62, 95
4, 54480, Pitch_bend_c, 5, 9600
4, 54480, Note_on_c, 5, 60, 95
4, 54600, Pitch_bend_c, 5, 9600
4, 54610, Pitch_bend_c, 5, 9472
4, 54620, Pitch_bend_c, 5, 9344
4, 54630, Pitch_bend_c, 5, 9216
4, 54640, Pitch_bend_c, 5, 9088
4, 54650, Pitch_bend_c, 5, 8960
4, 54660, Pitch_bend_c, 5, 8832
4, 54670, Pitch_bend_c, 5, 8704
4, 54680, Pitch_bend_c, 5, 8576
4, 54690, Pitch_bend_c, 5, 8448
4, 54700, Pitch_bend_c, 5, 8320
4, 54710, Pitch_bend_c, 5, 8192
4, 54720, Pitch_bend_c, 5, 8192
4, 54960, Pitch_bend_c, 5, 8192
4, 54960, Pitch_bend_c, 5, 8192
4, 54960, Note_off_c, 5, 60, 95
4, 54960, Note_on_c, 4, 56, 95
4, 55200, Note_off_c, 4, 56, 95
4, 55200, Note_on_c, 4, 53, 95
4, 55680, Note_off_c, 4, 53, 95
4, 55680, Note_on_c, 4, 46, 95
4, 55680, Note_on_c, 4, 39, 95
4, 56160, Note_off_c, 4, 46, 95
4, 56160, Note_off_c, 4, 39, 95
4, 56160, Note_on_c, 4, 55, 95
4, 56160, Note_on_c, 4, 51, 95
4, 56160, Note_on_c, 4, 46, 95
4, 56160, Note_on_c, 4, 39, 95
4, 56640, Note_off_c, 4, 55, 95
4, 56640, Note_off_c, 4, 51, 95
4, 56640, Note_off_c, 4, 46, 95
4, 56640, Note_off_c, 4, 39, 95
4, 56640, Note_on_c, 4, 58, 47
4, 56640, Note_on_c, 4, 54, 95
4, 56640, Note_on_c, 4, 49, 95
4, 56640, Note_on_c, 4, 44, 95
4, 56640, Note_on_c, 4, 39, 95
4, 56679, Note_off_c, 4, 54, 95
4, 56679, Note_off_c, 4, 49, 95
4, 56679, Note_off_c, 4, 44, 95
4, 56880, Note_off_c, 4, 58, 47
4, 56880, Note_off_c, 4, 39, 95
4, 56880, Note_on_c, 4, 55, 95
4, 56880, Note_on_c, 4, 51, 95
4, 56880, Note_on_c, 4, 46, 95
4, 56880, Note_on_c, 4, 39, 95
4, 57600, Note_off_c, 4, 55, 95
4, 57600, Note_off_c, 4, 51, 95
4, 57600, Note_off_c, 4, 46, 95
4, 57600, Note_off_c, 4, 39, 95
4, 57600, Note_on_c, 4, 48, 47
4, 57600, Note_on_c, 4, 41, 95
4, 58080, Note_off_c, 4, 48, 47
4, 58080, Note_off_c, 4, 41, 95
4, 58080, Note_on_c, 4, 48, 95
4, 58560, Note_off_c, 4, 48, 95
4, 58560, Note_on_c, 4, 57, 95
4, 58560, Note_on_c, 4, 53, 95
4, 59040, Note_off_c, 4, 57, 95
4, 59040, Note_off_c, 4, 53, 95
4, 59040, Note_on_c, 4, 53, 95
4, 59520, Note_off_c, 4, 53, 95
4, 59520, Note_on_c, 4, 41, 95
4, 60000, Note_off_c, 4, 41, 95
4, 60000, Note_on_c, 4, 41, 95
4, 60480, Note_off_c, 4, 41, 95
4, 60480, Note_on_c, 4, 41, 95
4, 60960, Note_off_c, 4, 41, 95
4, 60960, Note_on_c, 4, 41, 95
4, 61200, Note_off_c, 4, 41, 95
4, 61200, Note_on_c, 4, 43, 70
4, 61440, Note_off_c, 4, 43, 70
4, 61440, Note_on_c, 4, 46, 95
4, 62400, Note_off_c, 4, 46, 95
4, 62400, Note_on_c, 4, 46, 95
4, 62880, Note_off_c, 4, 46, 95
4, 62880, Note_on_c, 4, 53, 95
4, 62880, Note_on_c, 4, 46, 95
4, 63360, Note_off_c, 4, 53, 95
4, 63360, Note_off_c, 4, 46, 95
4, 63360, Note_on_c, 4, 39, 95
4, 63840, Note_off_c, 4, 39, 95
4, 63840, Note_on_c, 4, 55, 95
4, 63840, Note_on_c, 4, 51, 95
4, 63840, Note_on_c, 4, 46, 95
4, 64080, Note_off_c, 4, 55, 95
4, 64080, Note_off_c, 4, 51, 95
4, 64080, Note_off_c, 4, 46, 95
4, 64080, Note_on_c, 4, 55, 95
4, 64080, Note_on_c, 4, 51, 95
4, 64080, Note_on_c, 4, 46, 95
4, 64560, Note_off_c, 4, 55, 95
4, 64560, Note_off_c, 4, 51, 95
4, 64560, Note_off_c, 4, 46, 95
4, 64560, Note_on_c, 4, 49, 95
4, 64599, Note_off_c, 4, 49, 95
4, 64800, Note_on_c, 4, 55, 95
4, 64800, Note_on_c, 4, 51, 95
4, 65040, Note_off_c, 4, 55, 95
4, 65040, Note_off_c, 4, 51, 95
4, 65040, Note_on_c, 4, 39, 95
4, 65280, Note_off_c, 4, 39, 95
4, 65280, Note_on_c, 4, 41, 70
4, 65760, Note_off_c, 4, 41, 70
4, 65760, Note_on_c, 4, 48, 95
4, 66240, Note_off_c, 4, 48, 95
4, 66240, Note_on_c, 4, 53, 95
4, 66720, Note_off_c, 4, 53, 95
4, 66720, Note_on_c, 4, 48, 95
4, 67200, Note_off_c, 4, 48, 95
4, 67200, Note_on_c, 4, 41, 95
4, 67680, Note_off_c, 4, 41, 95
4, 67680, Note_on_c, 4, 48, 95
4, 68000, Note_off_c, 4, 48, 95
4, 68000, Note_on_c, 4, 57, 95
4, 68160, Note_off_c, 4, 57, 95
4, 68160, Note_on_c, 4, 58, 70
4, 68480, Note_off_c, 4, 58, 70
4, 68480, Note_on_c, 4, 57, 95
4, 68640, Note_off_c, 4, 57, 95
4, 68640, Note_on_c, 4, 43, 95
4, 69120, Note_off_c, 4, 43, 95
4, 69120, Note_on_c, 4, 46, 95
4, 70080, Note_off_c, 4, 46, 95
4, 70080, Note_on_c, 4, 62, 95
4, 70080, Note_on_c, 4, 58, 95
4, 70080, Note_on_c, 4, 53, 95
4, 70080, Note_on_c, 4, 46, 95
4, 71040, Note_off_c, 4, 62, 95
4, 71040, Note_off_c, 4, 58, 95
4, 71040, Note_off_c, 4, 53, 95
4, 71040, Note_off_c, 4, 46, 95
4, 71040, Note_on_c, 4, 39, 95
4, 71280, Note_off_c, 4, 39, 95
4, 71280, Note_on_c, 4, 58, 47
4, 71280, Note_on_c, 4, 55, 95
4, 71280, Note_on_c, 4, 51, 95
4, 71280, Note_on_c, 4, 46, 95
4, 72000, Note_off_c, 4, 58, 47
4, 72000, Note_off_c, 4, 55, 95
4, 72000, Note_off_c, 4, 51, 95
4, 72000, Note_off_c, 4, 46, 95
4, 72000, Note_on_c, 4, 39, 47
4, 72240, Note_off_c, 4, 39, 47
4, 72240, Note_on_c, 4, 58, 95
4, 72240, Note_on_c, 4, 55, 95
4, 72240, Note_on_c, 4, 51, 95
4, 72240, Note_on_c, 4, 46, 95
4, 72960, Note_off_c, 4, 58, 95
4, 72960, Note_off_c, 4, 55, 95
4, 72960, Note_off_c, 4, 51, 95
4, 72960, Note_off_c, 4, 46, 95
4, 72960, Note_on_c, 4, 39, 95
4, 73200, Note_off_c, 4, 39, 95
4, 73200, Note_on_c, 4, 41, 70
4, 73440, Note_off_c, 4, 41, 70
4, 73440, Note_on_c, 4, 57, 95
4, 73440, Note_on_c, 4, 53, 95
4, 73440, Note_on_c, 4, 48, 95
4, 73680, Note_off_c, 4, 57, 95
4, 73680, Note_off_c, 4, 53, 95
4, 73680, Note_off_c, 4, 48, 95
4, 73680, Note_on_c, 4, 57, 95
4, 73680, Note_on_c, 4, 53, 95
4, 73680, Note_on_c, 4, 48, 95
4, 73920, Note_off_c, 4, 57, 95
4, 73920, Note_off_c, 4, 53, 95
4, 73920, Note_off_c, 4, 48, 95
4, 73920, Note_on_c, 4, 60, 95
4, 73920, Note_on_c, 4, 57, 95
4, 73920, Note_on_c, 4, 53, 95
4, 74160, Note_off_c, 4, 60, 95
4, 74160, Note_off_c, 4, 57, 95
4, 74160, Note_off_c, 4, 53, 95
4, 74160, Note_on_c, 4, 60, 95
4, 74160, Note_on_c, 4, 57, 95
4, 74400, Note_off_c, 4, 60, 95
4, 74400, Note_off_c, 4, 57, 95
4, 74400, Note_on_c, 4, 57, 95
4, 74640, Note_off_c, 4, 57, 95
4, 74640, Note_on_c, 4, 60, 95
4, 75120, Note_off_c, 4, 60, 95
4, 75120, Note_on_c, 4, 57, 95
4, 75360, Note_off_c, 4, 57, 95
4, 75360, Note_on_c, 4, 53, 95
4, 75840, Note_off_c, 4, 53, 95
4, 75840, Note_on_c, 4, 39, 95
4, 76080, Note_off_c, 4, 39, 95
4, 76080, Note_on_c, 4, 41, 70
4, 76320, Note_off_c, 4, 41, 70
4, 76320, Note_on_c, 4, 43, 95
4, 76800, Note_off_c, 4, 43, 95
4, 76800, Note_on_c, 4, 62, 95
4, 76800, Note_on_c, 4, 58, 95
4, 76800, Note_on_c, 4, 53, 95
4, 76800, Note_on_c, 4, 48, 95
4, 77040, Note_off_c, 4, 62, 95
4, 77040, Note_off_c, 4, 58, 95
4, 77040, Note_off_c, 4, 53, 95
4, 77040, Note_off_c, 4, 48, 95
4, 77040, Note_on_c, 4, 50, 70
4, 77760, Note_off_c, 4, 50, 70
4, 77760, Note_on_c, 4, 63, 95
4, 77760, Note_on_c, 5, 67, 63
4, 77760, Note_on_c, 5, 63, 63
4, 77760, Note_on_c, 5, 58, 63
4, 77760, Note_on_c, 4, 55, 95
4, 77760, Note_on_c, 4, 48, 95
4, 77799, Note_off_c, 4, 63, 95
4, 77799, Note_off_c, 4, 55, 95
4, 77799, Note_off_c, 4, 48, 95
4, 77880, Pitch_bend_c, 5, 7552
4, 77880, Pitch_bend_c, 5, 7552
4, 77880, Pitch_bend_c, 5, 7552
4, 78000, Pitch_bend_c, 5, 6784
4, 78000, Pitch_bend_c, 5, 6784
4, 78000, Pitch_bend_c, 5, 6784
4, 78120, Pitch_bend_c, 5, 6144
4, 78120, Pitch_bend_c, 5, 6144
4, 78120, Pitch_bend_c, 5, 6144
4, 78240, Pitch_bend_c, 5, 5376
4, 78240, Pitch_bend_c, 5, 8192
4, 78240, Note_off_c, 5, 67, 63
4, 78240, Pitch_bend_c, 5, 5376
4, 78240, Pitch_bend_c, 5, 8192
4, 78240, Note_off_c, 5, 63, 63
4, 78240, Pitch_bend_c, 5, 5376
4, 78240, Pitch_bend_c, 5, 8192
4, 78240, Note_off_c, 5, 58, 63
4, 78240, Note_on_c, 4, 63, 15
4, 78240, Note_on_c, 4, 59, 15
4, 78240, Note_on_c, 4, 54, 15
4, 78480, Note_off_c, 4, 63, 15
4, 78480, Note_off_c, 4, 59, 15
4, 78480, Note_off_c, 4, 54, 15
4, 78720, Note_on_c, 4, 63, 95
4, 78720, Note_on_c, 4, 58, 95
4, 78720, Note_on_c, 4, 53, 95
4, 78720, Note_on_c, 4, 39, 95
4, 78960, Note_off_c, 4, 63, 95
4, 78960, Note_off_c, 4, 58, 95
4, 78960, Note_off_c, 4, 53, 95
4, 78960, Note_off_c, 4, 39, 95
4, 78960, Note_on_c, 4, 55, 70
4, 79200, Note_off_c, 4, 55, 70
4, 79200, Note_on_c, 4, 63, 95
4, 79200, Note_on_c, 4, 58, 95
4, 79200, Note_on_c, 4, 55, 95
4, 79520, Note_off_c, 4, 63, 95
4, 79520, Note_off_c, 4, 58, 95
4, 79520, Note_off_c, 4, 55, 95
4, 79520, Note_on_c, 4, 63, 95
4, 79520, Note_on_c, 4, 58, 95
4, 79680, Note_off_c, 4, 63, 95
4, 79680, Note_off_c, 4, 58, 95
4, 79680, Note_on_c, 4, 63, 95
4, 79680, Note_on_c, 4, 58, 95
4, 79680, Note_on_c, 4, 55, 95
4, 80160, Note_off_c, 4, 63, 95
4, 80160, Note_off_c, 4, 58, 95
4, 80160, Note_off_c, 4, 55, 95
4, 80160, Note_on_c, 5, 65, 47
4, 80160, Note_on_c, 5, 63, 95
4, 80160, Note_on_c, 5, 58, 95
4, 80160, Note_on_c, 5, 51, 95
4, 80280, Pitch_bend_c, 5, 8832
4, 80280, Pitch_bend_c, 5, 8832
4, 80280, Pitch_bend_c, 5, 8832
4, 80280, Pitch_bend_c, 5, 8832
4, 80400, Pitch_bend_c, 5, 9600
4, 80400, Pitch_bend_c, 5, 8192
4, 80400, Note_off_c, 5, 65, 47
4, 80400, Pitch_bend_c, 5, 9600
4, 80400, Pitch_bend_c, 5, 8192
4, 80400, Note_off_c, 5, 63, 95
4, 80400, Pitch_bend_c, 5, 9600
4, 80400, Pitch_bend_c, 5, 8192
4, 80400, Note_off_c, 5, 58, 95
4, 80400, Pitch_bend_c, 5, 9600
4, 80400, Pitch_bend_c, 5, 8192
4, 80400, Note_off_c, 5, 51, 95
4, 80400, Note_on_c, 4, 67, 47
4, 80400, Note_on_c, 4, 65, 95
4, 80400, Note_on_c, 4, 60, 95
4, 80400, Note_on_c, 4, 53, 95
4, 80640, Note_off_c, 4, 67, 47
4, 80640, Note_off_c, 4, 65, 95
4, 80640, Note_off_c, 4, 60, 95
4, 80640, Note_off_c, 4, 53, 95
4, 80640, Note_on_c, 4, 63, 95
4, 80640, Pitch_bend_c, 5, 8192
4, 80640, Note_on_c, 5, 67, 63
4, 80640, Pitch_bend_c, 5, 8192
4, 80640, Note_on_c, 5, 62, 63
4, 80640, Pitch_bend_c, 5, 8192
4, 80640, Note_on_c, 5, 58, 63
4, 80640, Note_on_c, 4, 55, 95
4, 80640, Note_on_c, 4, 69, 95
4, 80640, Note_on_c, 4, 65, 95
4, 80640, Note_on_c, 4, 60, 95
4, 80640, Note_on_c, 4, 53, 95
4, 80679, Note_off_c, 4, 63, 95
4, 80679, Note_off_c, 4, 55, 95
4, 81120, Note_off_c, 4, 69, 95
4, 81120, Note_off_c, 4, 65, 95
4, 81120, Note_off_c, 4, 60, 95
4, 81120, Note_off_c, 4, 53, 95
4, 81120, Note_on_c, 4, 53, 95
4, 81360, Note_off_c, 5, 67, 63
4, 81360, Note_off_c, 5, 62, 63
4, 81360, Note_off_c, 5, 58, 63
4, 81440, Note_off_c, 4, 53, 95
4, 81440, Note_on_c, 4, 69, 47
4, 81440, Note_on_c, 4, 65, 47
4, 81440, Note_on_c, 4, 60, 47
4, 81440, Note_on_c, 4, 53, 47
4, 81600, Note_off_c, 4, 69, 47
4, 81600, Note_off_c, 4, 65, 47
4, 81600, Note_off_c, 4, 60, 47
4, 81600, Note_off_c, 4, 53, 47
4, 81600, Note_on_c, 4, 69, 95
4, 81600, Note_on_c, 4, 65, 95
4, 81600, Note_on_c, 4, 60, 95
4, 81600, Note_on_c, 4, 53, 95
4, 82400, Note_off_c, 4, 69, 95
4, 82400, Note_off_c, 4, 65, 95
4, 82400, Note_off_c, 4, 60, 95
4, 82400, Note_off_c, 4, 53, 95
4, 82400, Note_on_c, 4, 69, 47
4, 82400, Note_on_c, 4, 65, 47
4, 82400, Note_on_c, 4, 60, 47
4, 82400, Note_on_c, 4, 53, 47
4, 82560, Note_off_c, 4, 69, 47
4, 82560, Note_off_c, 4, 65, 47
4, 82560, Note_off_c, 4, 60, 47
4, 82560, Note_off_c, 4, 53, 47
4, 82560, Note_on_c, 4, 69, 95
4, 82560, Note_on_c, 4, 65, 95
4, 82560, Note_on_c, 4, 60, 95
4, 82560, Note_on_c, 4, 53, 95
4, 83040, Note_off_c, 4, 69, 95
4, 83040, Note_off_c, 4, 65, 95
4, 83040, Note_off_c, 4, 60, 95
4, 83040, Note_off_c, 4, 53, 95
4, 83040, Note_on_c, 4, 53, 95
4, 83520, Note_off_c, 4, 53, 95
4, 83520, Note_on_c, 4, 69, 95
4, 83520, Note_on_c, 4, 65, 95
4, 83520, Note_on_c, 4, 60, 95
4, 83520, Note_on_c, 4, 53, 95
4, 83760, Note_off_c, 4, 69, 95
4, 83760, Note_off_c, 4, 65, 95
4, 83760, Note_off_c, 4, 60, 95
4, 83760, Note_off_c, 4, 53, 95
4, 83760, Note_on_c, 4, 69, 95
4, 83760, Note_on_c, 4, 65, 95
4, 83760, Note_on_c, 4, 60, 95
4, 83760, Note_on_c, 4, 53, 95
4, 84000, Note_off_c, 4, 69, 95
4, 84000, Note_off_c, 4, 65, 95
4, 84000, Note_off_c, 4, 60, 95
4, 84000, Note_off_c, 4, 53, 95
4, 84000, Note_on_c, 4, 58, 95
4, 84000, Note_on_c, 4, 54, 95
4, 84000, Note_on_c, 4, 49, 95
4, 84000, Note_on_c, 4, 44, 95
4, 84039, Note_off_c, 4, 58, 95
4, 84039, Note_off_c, 4, 54, 95
4, 84039, Note_off_c, 4, 49, 95
4, 84039, Note_off_c, 4, 44, 95
4, 84240, Note_on_c, 4, 58, 95
4, 84240, Note_on_c, 4, 54, 95
4, 84240, Note_on_c, 4, 49, 95
4, 84240, Note_on_c, 4, 44, 95
4, 84279, Note_off_c, 4, 58, 95
4, 84279, Note_off_c, 4, 54, 95
4, 84279, Note_off_c, 4, 49, 95
4, 84279, Note_off_c, 4, 44, 95
4, 84360, Note_on_c, 5, 63, 79
4, 84360, Note_on_c, 5, 58, 79
4, 84480, Note_off_c, 5, 63, 79
4, 84480, Note_on_c, 5, 65, 95
4, 84480, Note_off_c, 5, 58, 79
4, 84480, Note_on_c, 5, 60, 95
4, 84960, Note_off_c, 5, 65, 95
4, 84960, Note_off_c, 5, 60, 95
4, 84960, Note_on_c, 4, 67, 95
4, 85440, Note_off_c, 4, 67, 95
4, 85440, Note_on_c, 4, 72, 95
4, 85920, Note_off_c, 4, 72, 95
4, 85920, Note_on_c, 4, 67, 95
4, 86400, Note_off_c, 4, 67, 95
4, 86400, Note_on_c, 4, 72, 95
4, 86400, Note_on_c, 4, 67, 95
4, 86640, Note_off_c, 4, 72, 95
4, 86640, Note_off_c, 4, 67, 95
4, 86640, Note_on_c, 4, 69, 70
4, 86880, Note_off_c, 4, 69, 70
4, 86880, Note_on_c, 4, 72, 95
4, 86880, Note_on_c, 4, 67, 47
4, 87120, Note_off_c, 4, 72, 95
4, 87120, Note_off_c, 4, 67, 47
4, 87120, Note_on_c, 4, 67, 95
4, 87360, Note_off_c, 4, 67, 95
4, 87360, Note_on_c, 4, 69, 70
4, 87600, Note_off_c, 4, 69, 70
4, 87600, Note_on_c, 4, 72, 95
4, 87840, Note_off_c, 4, 72, 95
4, 87840, Note_on_c, 4, 65, 95
4, 88320, Note_off_c, 4, 65, 95
4, 88320, Note_on_c, 4, 65, 95
4, 88800, Note_off_c, 4, 65, 95
4, 88800, Note_on_c, 4, 67, 95
4, 89280, Note_off_c, 4, 67, 95
4, 89280, Note_on_c, 4, 72, 95
4, 89760, Note_off_c, 4, 72, 95
4, 89760, Note_on_c, 4, 67, 95
4, 89760, Note_on_c, 4, 65, 95
4, 90000, Note_off_c, 4, 67, 95
4, 90000, Note_off_c, 4, 65, 95
4, 90000, Note_on_c, 4, 65, 95
4, 90240, Note_off_c, 4, 65, 95
4, 90240, Note_on_c, 4, 72, 95
4, 90240, Note_on_c, 4, 67, 95
4, 90480, Note_off_c, 4, 72, 95
4, 90480, Note_off_c, 4, 67, 95
4, 90480, Note_on_c, 4, 69, 70
4, 90720, Note_off_c, 4, 69, 70
4, 90720, Note_on_c, 4, 72, 95
4, 90720, Note_on_c, 4, 67, 95
4, 90960, Note_off_c, 4, 72, 95
4, 90960, Note_off_c, 4, 67, 95
4, 90960, Note_on_c, 4, 69, 70
4, 91200, Note_off_c, 4, 69, 70
4, 91200, Note_on_c, 4, 72, 95
4, 91200, Note_on_c, 4, 67, 95
4, 91440, Note_off_c, 4, 72, 95
4, 91440, Note_off_c, 4, 67, 95
4, 91440, Note_on_c, 5, 65, 95
4, 91680, Note_off_c, 5, 65, 95
4, 91680, Note_on_c, 4, 41, 95
4, 91920, Note_off_c, 4, 41, 95
4, 91920, Note_on_c, 4, 43, 70
4, 92160, Note_off_c, 4, 43, 70
4, 92160, Note_on_c, 4, 46, 95
4, 94080, Note_off_c, 4, 46, 95
4, 94080, Note_on_c, 4, 48, 95
4, 94560, Note_off_c, 4, 48, 95
4, 94560, Note_on_c, 4, 55, 47
4, 95040, Note_off_c, 4, 55, 47
4, 95040, Note_on_c, 4, 63, 95
4, 95200, Note_off_c, 4, 63, 95
4, 95200, Note_on_c, 4, 65, 70
4, 95360, Note_off_c, 4, 65, 70
4, 95360, Note_on_c, 4, 63, 70
4, 95520, Note_off_c, 4, 63, 70
4, 95520, Note_on_c, 4, 58, 95
4, 95760, Note_off_c, 4, 58, 95
4, 95760, Note_on_c, 4, 48, 95
4, 96000, Note_off_c, 4, 48, 95
4, 96000, Note_on_c, 4, 50, 70
4, 97920, Note_off_c, 4, 50, 70
4, 97920, Note_on_c, 4, 39, 95
4, 98640, Note_off_c, 4, 39, 95
4, 98640, Note_on_c, 4, 58, 95
4, 98640, Note_on_c, 4, 53, 95
4, 98880, Note_off_c, 4, 58, 95
4, 98880, Note_off_c, 4, 53, 95
4, 98880, Note_on_c, 4, 55, 70
4, 99120, Note_off_c, 4, 55, 70
4, 99120, Note_on_c, 4, 58, 47
4, 99360, Note_off_c, 4, 58, 47
4, 99360, Note_on_c, 5, 60, 95
4, 99360, Note_on_c, 5, 55, 95
4, 99480, Pitch_bend_c, 5, 8832
4, 99480, Pitch_bend_c, 5, 8832
4, 99600, Pitch_bend_c, 5, 9600
4, 99600, Pitch_bend_c, 5, 8192
4, 99600, Note_off_c, 5, 60, 95
4, 99600, Pitch_bend_c, 5, 9600
4, 99600, Pitch_bend_c, 5, 8192
4, 99600, Note_off_c, 5, 55, 95
4, 99600, Note_on_c, 4, 62, 95
4, 99600, Note_on_c, 4, 57, 95
4, 99840, Note_off_c, 4, 62, 95
4, 99840, Note_off_c, 4, 57, 95
4, 99840, Note_on_c, 4, 60, 95
4, 99840, Note_on_c, 4, 57, 95
4, 99840, Note_on_c, 4, 53, 95
4, 100320, Note_off_c, 4, 60, 95
4, 100320, Note_off_c, 4, 57, 95
4, 100320, Note_off_c, 4, 53, 95
4, 100320, Note_on_c, 4, 53, 95
4, 100560, Note_off_c, 4, 53, 95
4, 100560, Note_on_c, 4, 53, 95
4, 100800, Note_off_c, 4, 53, 95
4, 100800, Note_on_c, 4, 41, 95
4, 101040, Note_off_c, 4, 41, 95
4, 101040, Note_on_c, 4, 53, 95
4, 101520, Note_off_c, 4, 53, 95
4, 101520, Note_on_c, 4, 41, 95
4, 101760, Note_off_c, 4, 41, 95
4, 101760, Note_on_c, 4, 53, 95
4, 102240, Note_off_c, 4, 53, 95
4, 102240, Note_on_c, 4, 41, 95
4, 102480, Note_off_c, 4, 41, 95
4, 102480, Note_on_c, 4, 48, 95
4, 102960, Note_off_c, 4, 48, 95
4, 102960, Note_on_c, 4, 41, 95
4, 103200, Note_off_c, 4, 41, 95
4, 103200, Note_on_c, 4, 41, 95
4, 103440, Note_off_c, 4, 41, 95
4, 103440, Note_on_c, 4, 41, 47
4, 103680, Note_off_c, 4, 41, 47
4, 103680, Note_on_c, 4, 57, 95
4, 103680, Note_on_c, 4, 53, 95
4, 103920, Note_off_c, 4, 57, 95
4, 103920, Note_off_c, 4, 53, 95
4, 103920, Note_on_c, 4, 58, 70
4, 104160, Note_off_c, 4, 58, 70
4, 104160, Note_on_c, 4, 58, 95
4, 104160, Note_on_c, 4, 53, 95
4, 104400, Note_off_c, 4, 58, 95
4, 104400, Note_off_c, 4, 53, 95
4, 104400, Note_on_c, 4, 58, 95
4, 104400, Note_on_c, 4, 53, 95
4, 104640, Note_off_c, 4, 58, 95
4, 104640, Note_off_c, 4, 53, 95
4, 104640, Note_on_c, 4, 58, 95
4, 104640, Note_on_c, 4, 53, 95
4, 104880, Note_off_c, 4, 58, 95
4, 104880, Note_off_c, 4, 53, 95
4, 104880, Note_on_c, 4, 58, 95
4, 104880, Note_on_c, 4, 53, 95
4, 105120, Note_off_c, 4, 58, 95
4, 105120, Note_off_c, 4, 53, 95
4, 105120, Note_on_c, 4, 57, 95
4, 105120, Note_on_c, 4, 53, 95
4, 105360, Note_off_c, 4, 57, 95
4, 105360, Note_off_c, 4, 53, 95
4, 105360, Note_on_c, 4, 53, 95
4, 105600, Note_off_c, 4, 53, 95
4, 105600, Note_on_c, 4, 67, 95
4, 105600, Note_on_c, 4, 60, 95
4, 105600, Note_on_c, 4, 57, 95
4, 105840, Note_off_c, 4, 67, 95
4, 105840, Note_off_c, 4, 60, 95
4, 105840, Note_off_c, 4, 57, 95
4, 105840, Note_on_c, 4, 65, 70
4, 106080, Note_off_c, 4, 65, 70
4, 106080, Note_on_c, 4, 60, 95
4, 106320, Note_off_c, 4, 60, 95
4, 106320, Note_on_c, 4, 62, 95
4, 106560, Note_off_c, 4, 62, 95
4, 106560, Note_on_c, 4, 60, 95
4, 106800, Note_off_c, 4, 60, 95
4, 106800, Note_on_c, 4, 57, 95
4, 107040, Note_off_c, 4, 57, 95
4, 107040, Note_on_c, 4, 41, 95
4, 107280, Note_off_c, 4, 41, 95
4, 107280, Note_on_c, 4, 43, 70
4, 107520, Note_off_c, 4, 43, 70
4, 107520, Note_on_c, 4, 46, 95
4, 108480, Note_off_c, 4, 46, 95
4, 108480, Note_on_c, 4, 53, 95
4, 108960, Note_off_c, 4, 53, 95
4, 108960, Note_on_c, 4, 46, 47
4, 109440, Note_off_c, 4, 46, 47
4, 109440, Note_on_c, 4, 48, 95
4, 109920, Note_off_c, 4, 48, 95
4, 109920, Note_on_c, 4, 55, 95
4, 110400, Note_off_c, 4, 55, 95
4, 110400, Note_on_c, 4, 63, 95
4, 110560, Note_off_c, 4, 63, 95
4, 110560, Note_on_c, 4, 65, 70
4, 110720, Note_off_c, 4, 65, 70
4, 110720, Note_on_c, 4, 63, 70
4, 110880, Note_off_c, 4, 63, 70
4, 110880, Note_on_c, 4, 48, 95
4, 111120, Note_off_c, 4, 48, 95
4, 111120, Note_on_c, 4, 49, 95
4, 111360, Note_off_c, 4, 49, 95
4, 111360, Note_on_c, 4, 50, 95
4, 112320, Note_off_c, 4, 50, 95
4, 112320, Note_on_c, 4, 57, 95
4, 112800, Note_off_c, 4, 57, 95
4, 112800, Note_on_c, 4, 50, 95
4, 113280, Note_off_c, 4, 50, 95
4, 113280, Note_on_c, 4, 39, 95
4, 113760, Note_off_c, 4, 39, 95
4, 113760, Note_on_c, 4, 51, 95
4, 114240, Note_off_c, 4, 51, 95
4, 114240, Note_on_c, 4, 41, 95
4, 114480, Note_off_c, 4, 41, 95
4, 114480, Note_on_c, 4, 43, 70
4, 114720, Note_off_c, 4, 43, 70
4, 114720, Note_on_c, 4, 46, 95
4, 114960, Note_off_c, 4, 46, 95
4, 114960, Note_on_c, 4, 48, 70
4, 115200, Note_off_c, 4, 48, 70
4, 115200, Note_on_c, 4, 41, 95
4, 115680, Note_off_c, 4, 41, 95
4, 115680, Note_on_c, 4, 53, 95
4, 115920, Note_off_c, 4, 53, 95
4, 115920, Note_on_c, 4, 57, 95
4, 115920, Note_on_c, 4, 53, 95
4, 116640, Note_off_c, 4, 57, 95
4, 116640, Note_off_c, 4, 53, 95
4, 116640, Note_on_c, 4, 53, 95
4, 117120, Note_off_c, 4, 53, 95
4, 117120, Note_on_c, 4, 41, 95
4, 117600, Note_off_c, 4, 41, 95
4, 117600, Note_on_c, 4, 53, 95
4, 117840, Note_off_c, 4, 53, 95
4, 117840, Note_on_c, 4, 57, 95
4, 117840, Note_on_c, 4, 53, 95
4, 118320, Note_off_c, 4, 57, 95
4, 118320, Note_off_c, 4, 53, 95
4, 118320, Note_on_c, 4, 53, 95
4, 118560, Note_off_c, 4, 53, 95
4, 118560, Note_on_c, 4, 41, 95
4, 118800, Note_off_c, 4, 41, 95
4, 118800, Note_on_c, 4, 57, 95
4, 119040, Note_off_c, 4, 57, 95
4, 119040, Note_on_c, 4, 60, 95
4, 119040, Note_on_c, 4, 57, 95
4, 119280, Note_off_c, 4, 60, 95
4, 119280, Note_off_c, 4, 57, 95
4, 119280, Note_on_c, 4, 58, 70
4, 119520, Note_off_c, 4, 58, 70
4, 119520, Note_on_c, 4, 57, 95
4, 119760, Note_off_c, 4, 57, 95
4, 119760, Note_on_c, 4, 53, 95
4, 120240, Note_off_c, 4, 53, 95
4, 120240, Note_on_c, 4, 48, 95
4, 120480, Note_off_c, 4, 48, 95
4, 120480, Note_on_c, 4, 41, 95
4, 120960, Note_off_c, 4, 41, 95
4, 120960, Note_on_c, 4, 60, 95
4, 120960, Note_on_c, 4, 55, 95
4, 121200, Note_off_c, 4, 60, 95
4, 121200, Note_off_c, 4, 55, 95
4, 121200, Note_on_c, 4, 57, 70
4, 121440, Note_off_c, 4, 57, 70
4, 121440, Note_on_c, 4, 60, 95
4, 121440, Note_on_c, 4, 55, 95
4, 121680, Note_off_c, 4, 60, 95
4, 121680, Note_off_c, 4, 55, 95
4, 121680, Note_on_c, 4, 57, 70
4, 121920, Note_off_c, 4, 57, 70
4, 121920, Note_on_c, 4, 60, 95
4, 121920, Note_on_c, 4, 55, 95
4, 122160, Note_off_c, 4, 60, 95
4, 122160, Note_off_c, 4, 55, 95
4, 122160, Note_on_c, 4, 53, 95
4, 122400, Note_off_c, 4, 53, 95
4, 122400, Note_on_c, 4, 48, 95
4, 122880, Note_off_c, 4, 48, 95
4, 122880, Note_on_c, 4, 39, 95
4, 123600, Note_off_c, 4, 39, 95
4, 123600, Note_on_c, 4, 51, 95
4, 123840, Note_off_c, 4, 51, 95
4, 123840, Note_on_c, 4, 51, 95
4, 123840, Note_on_c, 4, 46, 95
4, 123840, Note_on_c, 4, 39, 95
4, 124320, Note_off_c, 4, 51, 95
4, 124320, Note_off_c, 4, 46, 95
4, 124320, Note_off_c, 4, 39, 95
4, 124320, Note_on_c, 4, 46, 95
4, 124800, Note_off_c, 4, 46, 95
4, 124800, Note_on_c, 4, 39, 95
4, 125280, Note_off_c, 4, 39, 95
4, 125280, Note_on_c, 4, 39, 95
4, 125520, Note_off_c, 4, 39, 95
4, 125520, Note_on_c, 4, 58, 95
4, 125520, Note_on_c, 4, 53, 95
4, 125760, Note_off_c, 4, 58, 95
4, 125760, Note_off_c, 4, 53, 95
4, 125760, Note_on_c, 4, 55, 70
4, 126000, Note_off_c, 4, 55, 70
4, 126000, Note_on_c, 4, 55, 95
4, 126240, Note_off_c, 4, 55, 95
4, 126240, Note_on_c, 4, 51, 95
4, 126480, Note_off_c, 4, 51, 95
4, 126480, Note_on_c, 4, 53, 70
4, 126720, Note_off_c, 4, 53, 70
4, 126720, Note_on_c, 4, 41, 95
4, 127200, Note_off_c, 4, 41, 95
4, 127200, Note_on_c, 4, 48, 95
4, 127680, Note_off_c, 4, 48, 95
4, 127680, Note_on_c, 4, 53, 95
4, 128160, Note_off_c, 4, 53, 95
4, 128160, Note_on_c, 4, 48, 95
4, 128640, Note_off_c, 4, 48, 95
4, 128640, Note_on_c, 4, 48, 95
4, 128640, Note_on_c, 4, 41, 95
4, 129120, Note_off_c, 4, 48, 95
4, 129120, Note_off_c, 4, 41, 95
4, 129120, Note_on_c, 4, 41, 95
4, 129360, Note_off_c, 4, 41, 95
4, 129360, Note_on_c, 4, 41, 95
4, 129600, Note_off_c, 4, 41, 95
4, 129600, Note_on_c, 4, 43, 70
4, 129840, Note_off_c, 4, 43, 70
4, 129840, Note_on_c, 4, 46, 95
4, 130080, Note_off_c, 4, 46, 95
4, 130080, Note_on_c, 4, 48, 95
4, 130320, Note_off_c, 4, 48, 95
4, 130320, Note_on_c, 4, 46, 70
4, 130560, Note_off_c, 4, 46, 70
4, 130560, Note_on_c, 4, 39, 95
4, 131040, Note_off_c, 4, 39, 95
4, 131040, Note_on_c, 4, 46, 95
4, 131280, Note_off_c, 4, 46, 95
4, 131280, Note_on_c, 4, 46, 95
4, 131520, Note_off_c, 4, 46, 95
4, 131520, Note_on_c, 4, 55, 47
4, 131520, Note_on_c, 4, 51, 95
4, 131520, Note_on_c, 4, 46, 95
4, 131520, Note_on_c, 4, 39, 95
4, 132000, Note_off_c, 4, 55, 47
4, 132000, Note_off_c, 4, 51, 95
4, 132000, Note_off_c, 4, 46, 95
4, 132000, Note_off_c, 4, 39, 95
4, 132000, Note_on_c, 4, 46, 95
4, 132480, Note_off_c, 4, 46, 95
4, 132480, Note_on_c, 4, 39, 95
4, 132960, Note_off_c, 4, 39, 95
4, 132960, Note_on_c, 4, 46, 95
4, 133200, Note_off_c, 4, 46, 95
4, 133200, Note_on_c, 4, 46, 95
4, 133440, Note_off_c, 4, 46, 95
4, 133440, Note_on_c, 4, 55, 95
4, 133440, Note_on_c, 4, 51, 95
4, 133440, Note_on_c, 4, 46, 95
4, 133440, Note_on_c, 4, 39, 95
4, 133920, Note_off_c, 4, 55, 95
4, 133920, Note_off_c, 4, 51, 95
4, 133920, Note_off_c, 4, 46, 95
4, 133920, Note_off_c, 4, 39, 95
4, 133920, Note_on_c, 4, 46, 95
4, 134400, Note_off_c, 4, 46, 95
4, 134400, Note_on_c, 4, 41, 95
4, 134880, Note_off_c, 4, 41, 95
4, 134880, Note_on_c, 4, 48, 95
4, 135360, Note_off_c, 4, 48, 95
4, 135360, Note_on_c, 4, 53, 95
4, 135360, Note_on_c, 4, 48, 95
4, 135360, Note_on_c, 4, 41, 95
4, 135840, Note_off_c, 4, 53, 95
4, 135840, Note_off_c, 4, 48, 95
4, 135840, Note_off_c, 4, 41, 95
4, 135840, Note_on_c, 4, 48, 47
4, 136320, Note_off_c, 4, 48, 47
4, 136320, Note_on_c, 4, 57, 95
4, 136320, Note_on_c, 4, 53, 95
4, 136560, Note_off_c, 4, 57, 95
4, 136560, Note_off_c, 4, 53, 95
4, 136560, Note_on_c, 4, 58, 70
4, 136800, Note_off_c, 4, 58, 70
4, 136800, Note_on_c, 4, 57, 70
4, 137040, Note_off_c, 4, 57, 70
4, 137040, Note_on_c, 4, 58, 70
4, 137280, Note_off_c, 4, 58, 70
4, 137280, Note_on_c, 4, 57, 70
4, 137520, Note_off_c, 4, 57, 70
4, 137520, Note_on_c, 4, 53, 95
4, 137760, Note_off_c, 4, 53, 95
4, 137760, Note_on_c, 4, 48, 95
4, 138240, Note_off_c, 4, 48, 95
4, 138240, Note_on_c, 4, 39, 95
4, 138960, Note_off_c, 4, 39, 95
4, 138960, Note_on_c, 4, 55, 95
4, 138960, Note_on_c, 4, 51, 95
4, 138960, Note_on_c, 4, 46, 47
4, 139680, Note_off_c, 4, 55, 95
4, 139680, Note_off_c, 4, 51, 95
4, 139680, Note_off_c, 4, 46, 47
4, 139680, Note_on_c, 4, 39, 95
4, 140160, Note_off_c, 4, 39, 95
4, 140160, Note_on_c, 4, 50, 95
4, 140640, Note_off_c, 4, 50, 95
4, 140640, Note_on_c, 4, 53, 95
4, 140880, Note_off_c, 4, 53, 95
4, 140880, Note_on_c, 4, 62, 95
4, 141120, Note_off_c, 4, 62, 95
4, 141120, Note_on_c, 4, 58, 95
4, 141360, Note_off_c, 4, 58, 95
4, 141360, Note_on_c, 4, 53, 47
4, 141600, Note_off_c, 4, 53, 47
4, 141600, Note_on_c, 4, 41, 95
4, 142080, Note_off_c, 4, 41, 95
4, 142080, Note_on_c, 4, 60, 95
4, 142080, Note_on_c, 4, 55, 95
4, 142080, Note_on_c, 4, 48, 95
4, 142560, Note_off_c, 4, 60, 95
4, 142560, Note_off_c, 4, 55, 95
4, 142560, Note_off_c, 4, 48, 95
4, 142560, Note_on_c, 4, 60, 95
4, 142560, Note_on_c, 4, 55, 95
4, 142560, Note_on_c, 4, 48, 95
4, 142800, Note_off_c, 4, 60, 95
4, 142800, Note_off_c, 4, 55, 95
4, 142800, Note_off_c, 4, 48, 95
4, 142800, Note_on_c, 4, 60, 95
4, 142800, Note_on_c, 4, 55, 95
4, 142800, Note_on_c, 4, 48, 95
4, 143040, Note_off_c, 4, 60, 95
4, 143040, Note_off_c, 4, 55, 95
4, 143040, Note_off_c, 4, 48, 95
4, 143040, Note_on_c, 4, 60, 95
4, 143040, Note_on_c, 4, 55, 95
4, 143040, Note_on_c, 4, 48, 95
4, 143520, Note_off_c, 4, 60, 95
4, 143520, Note_off_c, 4, 55, 95
4, 143520, Note_off_c, 4, 48, 95
4, 143520, Note_on_c, 4, 60, 95
4, 143520, Note_on_c, 4, 55, 95
4, 143520, Note_on_c, 4, 48, 95
4, 143559, Note_off_c, 4, 60, 95
4, 143559, Note_off_c, 4, 55, 95
4, 143559, Note_off_c, 4, 48, 95
4, 143760, Note_on_c, 4, 60, 95
4, 143760, Note_on_c, 4, 55, 95
4, 143760, Note_on_c, 4, 48, 95
4, 143799, Note_off_c, 4, 60, 95
4, 143799, Note_off_c, 4, 55, 95
4, 143799, Note_off_c, 4, 48, 95
4, 144000, Note_on_c, 4, 43, 95
4, 144240, Note_off_c, 4, 43, 95
4, 144240, Note_on_c, 4, 46, 70
4, 144480, Note_off_c, 4, 46, 70
4, 144480, Note_on_c, 4, 53, 95
4, 144480, Note_on_c, 4, 50, 95
4, 144480, Note_on_c, 4, 46, 95
4, 144720, Note_off_c, 4, 53, 95
4, 144720, Note_off_c, 4, 50, 95
4, 144720, Note_off_c, 4, 46, 95
4, 144720, Note_on_c, 4, 53, 95
4, 144720, Note_on_c, 4, 50, 95
4, 144720, Note_on_c, 4, 46, 95
4, 144960, Note_off_c, 4, 53, 95
4, 144960, Note_off_c, 4, 50, 95
4, 144960, Note_off_c, 4, 46, 95
4, 144960, Note_on_c, 4, 53, 95
4, 144960, Note_on_c, 4, 50, 95
4, 144960, Note_on_c, 4, 46, 95
4, 145440, Note_off_c, 4, 53, 95
4, 145440, Note_off_c, 4, 50, 95
4, 145440, Note_off_c, 4, 46, 95
4, 145440, Note_on_c, 4, 57, 95
4, 145440, Note_on_c, 4, 53, 95
4, 145920, Note_off_c, 4, 57, 95
4, 145920, Note_off_c, 4, 53, 95
4, 145920, Note_on_c, 4, 39, 95
4, 146880, Note_off_c, 4, 39, 95
4, 146880, Note_on_c, 4, 58, 95
4, 146880, Note_on_c, 4, 55, 95
4, 146880, Note_on_c, 4, 51, 95
4, 146880, Note_on_c, 4, 46, 95
4, 146880, Note_on_c, 4, 39, 95
4, 147360, Note_off_c, 4, 58, 95
4, 147360, Note_off_c, 4, 55, 95
4, 147360, Note_off_c, 4, 51, 95
4, 147360, Note_off_c, 4, 46, 95
4, 147360, Note_off_c, 4, 39, 95
4, 147360, Note_on_c, 4, 39, 95
4, 147840, Note_off_c, 4, 39, 95
4, 147840, Note_on_c, 4, 50, 95
4, 148320, Note_off_c, 4, 50, 95
4, 148320, Note_on_c, 4, 53, 95
4, 148560, Note_off_c, 4, 53, 95
4, 148560, Note_on_c, 4, 62, 95
4, 148800, Note_off_c, 4, 62, 95
4, 148800, Note_on_c, 4, 58, 95
4, 149040, Note_off_c, 4, 58, 95
4, 149040, Note_on_c, 4, 53, 47
4, 149280, Note_off_c, 4, 53, 47
4, 149280, Note_on_c, 4, 41, 95
4, 149760, Note_off_c, 4, 41, 95
4, 149760, Note_on_c, 4, 60, 95
4, 149760, Note_on_c, 4, 55, 95
4, 149760, Note_on_c, 4, 48, 95
4, 150240, Note_off_c, 4, 60, 95
4, 150240, Note_off_c, 4, 55, 95
4, 150240, Note_off_c, 4, 48, 95
4, 150240, Note_on_c, 4, 60, 95
4, 150240, Note_on_c, 4, 55, 95
4, 150240, Note_on_c, 4, 48, 95
4, 150480, Note_off_c, 4, 60, 95
4, 150480, Note_off_c, 4, 55, 95
4, 150480, Note_off_c, 4, 48, 95
4, 150480, Note_on_c, 4, 60, 95
4, 150480, Note_on_c, 4, 55, 95
4, 150480, Note_on_c, 4, 48, 95
4, 150720, Note_off_c, 4, 60, 95
4, 150720, Note_off_c, 4, 55, 95
4, 150720, Note_off_c, 4, 48, 95
4, 150720, Note_on_c, 4, 60, 95
4, 150720, Note_on_c, 4, 55, 95
4, 150720, Note_on_c, 4, 48, 95
4, 151200, Note_off_c, 4, 60, 95
4, 151200, Note_off_c, 4, 55, 95
4, 151200, Note_off_c, 4, 48, 95
4, 151200, Note_on_c, 4, 54, 95
4, 151200, Note_on_c, 4, 49, 95
4, 151200, Note_on_c, 4, 44, 95
4, 151239, Note_off_c, 4, 54, 95
4, 151239, Note_off_c, 4, 49, 95
4, 151239, Note_off_c, 4, 44, 95
4, 151440, Note_on_c, 4, 54, 95
4, 151440, Note_on_c, 4, 49, 95
4, 151440, Note_on_c, 4, 44, 95
4, 151479, Note_off_c, 4, 54, 95
4, 151479, Note_off_c, 4, 49, 95
4, 151479, Note_off_c, 4, 44, 95
4, 151680, Note_on_c, 4, 43, 95
4, 151920, Note_off_c, 4, 43, 95
4, 151920, Note_on_c, 4, 46, 70
4, 152160, Note_off_c, 4, 46, 70
4, 152160, Note_on_c, 4, 53, 95
4, 152160, Note_on_c, 4, 50, 95
4, 152160, Note_on_c, 4, 46, 95
4, 152400, Note_off_c, 4, 53, 95
4, 152400, Note_off_c, 4, 50, 95
4, 152400, Note_off_c, 4, 46, 95
4, 152400, Note_on_c, 4, 53, 95
4, 152400, Note_on_c, 4, 50, 95
4, 152400, Note_on_c, 4, 46, 95
4, 152640, Note_off_c, 4, 53, 95
4, 152640, Note_off_c, 4, 50, 95
4, 152640, Note_off_c, 4, 46, 95
4, 152640, Note_on_c, 4, 53, 95
4, 152640, Note_on_c, 4, 50, 95
4, 152640, Note_on_c, 4, 46, 95
4, 153120, Note_off_c, 4, 53, 95
4, 153120, Note_off_c, 4, 50, 95
4, 153120, Note_off_c, 4, 46, 95
4, 153120, Note_on_c, 4, 57, 95
4, 153120, Note_on_c, 4, 53, 95
4, 153600, Note_off_c, 4, 57, 95
4, 153600, Note_off_c, 4, 53, 95
4, 153600, Note_on_c, 4, 64, 47
4, 153600, Note_on_c, 4, 60, 95
4, 153600, Note_on_c, 4, 55, 95
4, 153600, Note_on_c, 4, 48, 95
4, 154080, Note_off_c, 4, 64, 47
4, 154080, Note_off_c, 4, 60, 95
4, 154080, Note_off_c, 4, 55, 95
4, 154080, Note_off_c, 4, 48, 95
4, 154080, Note_on_c, 4, 55, 95
4, 154080, Note_on_c, 4, 48, 95
4, 154560, Note_off_c, 4, 55, 95
4, 154560, Note_off_c, 4, 48, 95
4, 154560, Note_on_c, 4, 60, 95
4, 154560, Note_on_c, 4, 55, 95
4, 154560, Note_on_c, 4, 48, 95
4, 155040, Note_off_c, 4, 60, 95
4, 155040, Note_off_c, 4, 55, 95
4, 155040, Note_off_c, 4, 48, 95
4, 155040, Note_on_c, 4, 55, 95
4, 155040, Note_on_c, 4, 48, 95
4, 155520, Note_off_c, 4, 55, 95
4, 155520, Note_off_c, 4, 48, 95
4, 155520, Note_on_c, 4, 60, 95
4, 155520, Note_on_c, 4, 55, 95
4, 155520, Note_on_c, 4, 48, 95
4, 156000, Note_off_c, 4, 60, 95
4, 156000, Note_off_c, 4, 55, 95
4, 156000, Note_off_c, 4, 48, 95
4, 156000, Note_on_c, 4, 55, 95
4, 156000, Note_on_c, 4, 48, 95
4, 156480, Note_off_c, 4, 55, 95
4, 156480, Note_off_c, 4, 48, 95
4, 156480, Note_on_c, 4, 64, 95
4, 156480, Note_on_c, 4, 60, 95
4, 156480, Note_on_c, 4, 55, 95
4, 156480, Note_on_c, 4, 48, 95
4, 156960, Note_off_c, 4, 64, 95
4, 156960, Note_off_c, 4, 60, 95
4, 156960, Note_off_c, 4, 55, 95
4, 156960, Note_off_c, 4, 48, 95
4, 156960, Note_on_c, 4, 54, 95
4, 156960, Note_on_c, 4, 49, 95
4, 156960, Note_on_c, 4, 44, 95
4, 157440, Note_off_c, 4, 54, 95
4, 157440, Note_off_c, 4, 49, 95
4, 157440, Note_off_c, 4, 44, 95
4, 157440, Note_on_c, 4, 58, 95
4, 157440, Note_on_c, 4, 55, 95
4, 157440, Note_on_c, 4, 51, 95
4, 157440, Note_on_c, 4, 46, 95
4, 157440, Note_on_c, 4, 39, 95
4, 157920, Note_off_c, 4, 58, 95
4, 157920, Note_off_c, 4, 55, 95
4, 157920, Note_off_c, 4, 51, 95
4, 157920, Note_off_c, 4, 46, 95
4, 157920, Note_off_c, 4, 39, 95
4, 157920, Note_on_c, 4, 39, 95
4, 158400, Note_off_c, 4, 39, 95
4, 158400, Note_on_c, 4, 58, 95
4, 158400, Note_on_c, 4, 55, 95
4, 158400, Note_on_c, 4, 51, 95
4, 158400, Note_on_c, 4, 46, 95
4, 158400, Note_on_c, 4, 39, 95
4, 158880, Note_off_c, 4, 58, 95
4, 158880, Note_off_c, 4, 55, 95
4, 158880, Note_off_c, 4, 51, 95
4, 158880, Note_off_c, 4, 46, 95
4, 158880, Note_off_c, 4, 39, 95
4, 158880, Note_on_c, 4, 39, 95
4, 159120, Note_off_c, 4, 39, 95
4, 159120, Note_on_c, 4, 39, 95
4, 159360, Note_off_c, 4, 39, 95
4, 159360, Note_on_c, 4, 67, 47
4, 159360, Note_on_c, 4, 63, 95
4, 159360, Note_on_c, 4, 58, 95
4, 159360, Note_on_c, 4, 53, 95
4, 159360, Note_on_c, 4, 39, 95
4, 159600, Note_off_c, 4, 67, 47
4, 159600, Note_off_c, 4, 63, 95
4, 159600, Note_off_c, 4, 58, 95
4, 159600, Note_off_c, 4, 53, 95
4, 159600, Note_off_c, 4, 39, 95
4, 159600, Note_on_c, 4, 55, 70
4, 159840, Note_off_c, 4, 55, 70
4, 159840, Note_on_c, 4, 63, 95
4, 159840, Note_on_c, 4, 58, 95
4, 159840, Note_on_c, 4, 55, 95
4, 159840, Note_on_c, 4, 39, 95
4, 160080, Note_off_c, 4, 63, 95
4, 160080, Note_off_c, 4, 58, 95
4, 160080, Note_off_c, 4, 55, 95
4, 160080, Note_off_c, 4, 39, 95
4, 160080, Note_on_c, 4, 63, 95
4, 160080, Note_on_c, 4, 58, 95
4, 160080, Note_on_c, 4, 55, 95
4, 160080, Note_on_c, 4, 39, 95
4, 160320, Note_off_c, 4, 63, 95
4, 160320, Note_off_c, 4, 58, 95
4, 160320, Note_off_c, 4, 55, 95
4, 160320, Note_off_c, 4, 39, 95
4, 160320, Note_on_c, 4, 63, 95
4, 160320, Note_on_c, 4, 58, 95
4, 160320, Note_on_c, 4, 55, 95
4, 160320, Note_on_c, 4, 39, 95
4, 160800, Note_off_c, 4, 63, 95
4, 160800, Note_off_c, 4, 58, 95
4, 160800, Note_off_c, 4, 55, 95
4, 160800, Note_off_c, 4, 39, 95
4, 160800, Note_on_c, 5, 63, 95
4, 160800, Note_on_c, 5, 58, 95
4, 160800, Note_on_c, 5, 51, 95
4, 160920, Pitch_bend_c, 5, 8832
4, 160920, Pitch_bend_c, 5, 8832
4, 160920, Pitch_bend_c, 5, 8832
4, 161040, Pitch_bend_c, 5, 9600
4, 161040, Pitch_bend_c, 5, 8192
4, 161040, Note_off_c, 5, 63, 95
4, 161040, Pitch_bend_c, 5, 9600
4, 161040, Pitch_bend_c, 5, 8192
4, 161040, Note_off_c, 5, 58, 95
4, 161040, Pitch_bend_c, 5, 9600
4, 161040, Pitch_bend_c, 5, 8192
4, 161040, Note_off_c, 5, 51, 95
4, 161040, Note_on_c, 4, 65, 95
4, 161040, Note_on_c, 4, 60, 95
4, 161040, Note_on_c, 4, 53, 95
4, 161280, Note_off_c, 4, 65, 95
4, 161280, Note_off_c, 4, 60, 95
4, 161280, Note_off_c, 4, 53, 95
4, 161280, Note_on_c, 4, 65, 95
4, 161280, Note_on_c, 4, 60, 95
4, 161280, Note_on_c, 4, 53, 95
4, 161760, Note_off_c, 4, 65, 95
4, 161760, Note_off_c, 4, 60, 95
4, 161760, Note_off_c, 4, 53, 95
4, 161760, Note_on_c, 4, 54, 95
4, 161760, Note_on_c, 4, 49, 95
4, 161760, Note_on_c, 4, 44, 95
4, 161799, Note_off_c, 4, 54, 95
4, 161799, Note_off_c, 4, 49, 95
4, 161799, Note_off_c, 4, 44, 95
4, 162240, Note_on_c, 4, 57, 95
4, 162240, Note_on_c, 4, 53, 95
4, 162240, Note_on_c, 4, 48, 95
4, 162240, Note_on_c, 4, 41, 95
4, 162720, Note_off_c, 4, 57, 95
4, 162720, Note_off_c, 4, 53, 95
4, 162720, Note_off_c, 4, 48, 95
4, 162720, Note_off_c, 4, 41, 95
4, 162720, Note_on_c, 4, 65, 95
4, 162720, Note_on_c, 4, 60, 95
4, 162720, Note_on_c, 4, 57, 95
4, 162720, Note_on_c, 4, 53, 95
4, 162720, Note_on_c, 4, 48, 95
4, 162720, Note_on_c, 4, 41, 95
4, 162960, Note_off_c, 4, 65, 95
4, 162960, Note_off_c, 4, 60, 95
4, 162960, Note_off_c, 4, 57, 95
4, 162960, Note_off_c, 4, 53, 95
4, 162960, Note_off_c, 4, 48, 95
4, 162960, Note_off_c, 4, 41, 95
4, 162960, Note_on_c, 4, 65, 95
4, 162960, Note_on_c, 4, 60, 95
4, 162960, Note_on_c, 4, 57, 95
4, 162960, Note_on_c, 4, 53, 95
4, 162960, Note_on_c, 4, 48, 95
4, 162960, Note_on_c, 4, 41, 95
4, 163200, Note_off_c, 4, 65, 95
4, 163200, Note_off_c, 4, 60, 95
4, 163200, Note_off_c, 4, 57, 95
4, 163200, Note_off_c, 4, 53, 95
4, 163200, Note_off_c, 4, 48, 95
4, 163200, Note_off_c, 4, 41, 95
4, 163200, Note_on_c, 4, 65, 95
4, 163200, Note_on_c, 4, 60, 95
4, 163200, Note_on_c, 4, 57, 95
4, 163200, Note_on_c, 4, 53, 95
4, 163200, Note_on_c, 4, 48, 95
4, 163200, Note_on_c, 4, 41, 95
4, 163680, Note_off_c, 4, 65, 95
4, 163680, Note_off_c, 4, 60, 95
4, 163680, Note_off_c, 4, 57, 95
4, 163680, Note_off_c, 4, 53, 95
4, 163680, Note_off_c, 4, 48, 95
4, 163680, Note_off_c, 4, 41, 95
4, 163680, Note_on_c, 4, 65, 95
4, 163680, Note_on_c, 4, 60, 95
4, 163680, Note_on_c, 4, 57, 95
4, 163680, Note_on_c, 4, 53, 95
4, 163680, Note_on_c, 4, 48, 95
4, 163680, Note_on_c, 4, 41, 95
4, 163920, Note_off_c, 4, 65, 95
4, 163920, Note_off_c, 4, 60, 95
4, 163920, Note_off_c, 4, 57, 95
4, 163920, Note_off_c, 4, 53, 95
4, 163920, Note_off_c, 4, 48, 95
4, 163920, Note_off_c, 4, 41, 95
4, 163920, Note_on_c, 4, 65, 95
4, 163920, Note_on_c, 4, 60, 95
4, 163920, Note_on_c, 4, 57, 95
4, 163920, Note_on_c, 4, 53, 95
4, 163920, Note_on_c, 4, 48, 95
4, 163920, Note_on_c, 4, 41, 95
4, 164160, Note_off_c, 4, 65, 95
4, 164160, Note_off_c, 4, 60, 95
4, 164160, Note_off_c, 4, 57, 95
4, 164160, Note_off_c, 4, 53, 95
4, 164160, Note_off_c, 4, 48, 95
4, 164160, Note_off_c, 4, 41, 95
4, 164160, Note_on_c, 4, 65, 95
4, 164160, Note_on_c, 4, 60, 95
4, 164160, Note_on_c, 4, 57, 95
4, 164160, Note_on_c, 4, 53, 95
4, 164160, Note_on_c, 4, 48, 95
4, 164160, Note_on_c, 4, 41, 95
4, 164400, Note_off_c, 4, 65, 95
4, 164400, Note_off_c, 4, 60, 95
4, 164400, Note_off_c, 4, 57, 95
4, 164400, Note_off_c, 4, 53, 95
4, 164400, Note_off_c, 4, 48, 95
4, 164400, Note_off_c, 4, 41, 95
4, 164400, Note_on_c, 4, 65, 95
4, 164400, Note_on_c, 4, 60, 95
4, 164400, Note_on_c, 4, 57, 95
4, 164400, Note_on_c, 4, 53, 95
4, 164400, Note_on_c, 4, 48, 95
4, 164400, Note_on_c, 4, 41, 95
4, 164640, Note_off_c, 4, 65, 95
4, 164640, Note_off_c, 4, 60, 95
4, 164640, Note_off_c, 4, 57, 95
4, 164640, Note_off_c, 4, 53, 95
4, 164640, Note_off_c, 4, 48, 95
4, 164640, Note_off_c, 4, 41, 95
4, 164640, Note_on_c, 4, 65, 95
4, 164640, Note_on_c, 4, 60, 95
4, 164640, Note_on_c, 4, 57, 95
4, 164640, Note_on_c, 4, 53, 95
4, 164640, Note_on_c, 4, 48, 95
4, 164640, Note_on_c, 4, 41, 95
4, 164880, Note_off_c, 4, 65, 95
4, 164880, Note_off_c, 4, 60, 95
4, 164880, Note_off_c, 4, 57, 95
4, 164880, Note_off_c, 4, 53, 95
4, 164880, Note_off_c, 4, 48, 95
4, 164880, Note_off_c, 4, 41, 95
4, 164880, Note_on_c, 4, 65, 95
4, 164880, Note_on_c, 4, 60, 95
4, 164880, Note_on_c, 4, 57, 95
4, 164880, Note_on_c, 4, 53, 95
4, 164880, Note_on_c, 4, 48, 95
4, 164880, Note_on_c, 4, 41, 95
4, 165120, Note_off_c, 4, 65, 95
4, 165120, Note_off_c, 4, 60, 95
4, 165120, Note_off_c, 4, 57, 95
4, 165120, Note_off_c, 4, 53, 95
4, 165120, Note_off_c, 4, 48, 95
4, 165120, Note_off_c, 4, 41, 95
4, 165120, Note_on_c, 4, 65, 95
4, 165120, Note_on_c, 4, 60, 95
4, 165120, Note_on_c, 4, 57, 95
4, 165120, Note_on_c, 4, 53, 95
4, 165120, Note_on_c, 4, 48, 95
4, 165120, Note_on_c, 4, 41, 95
4, 165360, Note_off_c, 4, 65, 95
4, 165360, Note_off_c, 4, 60, 95
4, 165360, Note_off_c, 4, 57, 95
4, 165360, Note_off_c, 4, 53, 95
4, 165360, Note_off_c, 4, 48, 95
4, 165360, Note_off_c, 4, 41, 95
4, 165360, Note_on_c, 4, 65, 95
4, 165360, Note_on_c, 4, 60, 95
4, 165360, Note_on_c, 4, 57, 95
4, 165360, Note_on_c, 4, 53, 95
4, 165360, Note_on_c, 4, 48, 95
4, 165360, Note_on_c, 4, 41, 95
4, 165600, Note_off_c, 4, 65, 95
4, 165600, Note_off_c, 4, 60, 95
4, 165600, Note_off_c, 4, 57, 95
4, 165600, Note_off_c, 4, 53, 95
4, 165600, Note_off_c, 4, 48, 95
4, 165600, Note_off_c, 4, 41, 95
4, 165600, Note_on_c, 4, 65, 95
4, 165600, Note_on_c, 4, 60, 95
4, 165600, Note_on_c, 4, 57, 95
4, 165600, Note_on_c, 4, 53, 95
4, 165600, Note_on_c, 4, 48, 95
4, 165600, Note_on_c, 4, 41, 95
4, 165840, Note_off_c, 4, 65, 95
4, 165840, Note_off_c, 4, 60, 95
4, 165840, Note_off_c, 4, 57, 95
4, 165840, Note_off_c, 4, 53, 95
4, 165840, Note_off_c, 4, 48, 95
4, 165840, Note_off_c, 4, 41, 95
4, 165840, Note_on_c, 4, 65, 95
4, 165840, Note_on_c, 4, 60, 95
4, 165840, Note_on_c, 4, 57, 95
4, 165840, Note_on_c, 4, 53, 95
4, 165840, Note_on_c, 4, 48, 95
4, 165840, Note_on_c, 4, 41, 95
4, 166080, Note_off_c, 4, 65, 95
4, 166080, Note_off_c, 4, 60, 95
4, 166080, Note_off_c, 4, 57, 95
4, 166080, Note_off_c, 4, 53, 95
4, 166080, Note_off_c, 4, 48, 95
4, 166080, Note_off_c, 4, 41, 95
4, 166080, Note_on_c, 4, 65, 95
4, 166080, Note_on_c, 4, 60, 95
4, 166080, Note_on_c, 4, 57, 95
4, 166080, Note_on_c, 4, 53, 95
4, 166080, Note_on_c, 4, 48, 95
4, 166080, Note_on_c, 4, 41, 95
4, 166320, Note_off_c, 4, 65, 95
4, 166320, Note_off_c, 4, 60, 95
4, 166320, Note_off_c, 4, 57, 95
4, 166320, Note_off_c, 4, 53, 95
4, 166320, Note_off_c, 4, 48, 95
4, 166320, Note_off_c, 4, 41, 95
4, 166320, Note_on_c, 4, 65, 95
4, 166320, Note_on_c, 4, 60, 95
4, 166320, Note_on_c, 4, 57, 95
4, 166320, Note_on_c, 4, 53, 95
4, 166320, Note_on_c, 4, 48, 95
4, 166320, Note_on_c, 4, 41, 95
4, 166560, Note_off_c, 4, 65, 95
4, 166560, Note_off_c, 4, 60, 95
4, 166560, Note_off_c, 4, 57, 95
4, 166560, Note_off_c, 4, 53, 95
4, 166560, Note_off_c, 4, 48, 95
4, 166560, Note_off_c, 4, 41, 95
4, 166560, Note_on_c, 4, 65, 95
4, 166560, Note_on_c, 4, 60, 95
4, 166560, Note_on_c, 4, 57, 95
4, 166560, Note_on_c, 4, 53, 95
4, 166560, Note_on_c, 4, 48, 95
4, 166560, Note_on_c, 4, 41, 95
4, 166800, Note_off_c, 4, 65, 95
4, 166800, Note_off_c, 4, 60, 95
4, 166800, Note_off_c, 4, 57, 95
4, 166800, Note_off_c, 4, 53, 95
4, 166800, Note_off_c, 4, 48, 95
4, 166800, Note_off_c, 4, 41, 95
4, 166800, Note_on_c, 4, 65, 95
4, 166800, Note_on_c, 4, 60, 95
4, 166800, Note_on_c, 4, 57, 95
4, 166800, Note_on_c, 4, 53, 95
4, 166800, Note_on_c, 4, 48, 95
4, 166800, Note_on_c, 4, 41, 95
4, 167040, Note_off_c, 4, 65, 95
4, 167040, Note_off_c, 4, 60, 95
4, 167040, Note_off_c, 4, 57, 95
4, 167040, Note_off_c, 4, 53, 95
4, 167040, Note_off_c, 4, 48, 95
4, 167040, Note_off_c, 4, 41, 95
4, 167040, Note_on_c, 4, 65, 95
4, 167040, Note_on_c, 4, 60, 95
4, 167040, Note_on_c, 4, 57, 95
4, 167040, Note_on_c, 4, 53, 95
4, 167040, Note_on_c, 4, 48, 95
4, 167040, Note_on_c, 4, 41, 95
4, 167280, Note_off_c, 4, 65, 95
4, 167280, Note_off_c, 4, 60, 95
4, 167280, Note_off_c, 4, 57, 95
4, 167280, Note_off_c, 4, 53, 95
4, 167280, Note_off_c, 4, 48, 95
4, 167280, Note_off_c, 4, 41, 95
4, 167280, Note_on_c, 4, 65, 95
4, 167280, Note_on_c, 4, 60, 95
4, 167280, Note_on_c, 4, 57, 95
4, 167280, Note_on_c, 4, 53, 95
4, 167280, Note_on_c, 4, 48, 95
4, 167280, Note_on_c, 4, 41, 95
4, 167520, Note_off_c, 4, 65, 95
4, 167520, Note_off_c, 4, 60, 95
4, 167520, Note_off_c, 4, 57, 95
4, 167520, Note_off_c, 4, 53, 95
4, 167520, Note_off_c, 4, 48, 95
4, 167520, Note_off_c, 4, 41, 95
4, 167520, Note_on_c, 4, 65, 95
4, 167520, Note_on_c, 4, 60, 95
4, 167520, Note_on_c, 4, 57, 95
4, 167520, Note_on_c, 4, 53, 95
4, 167520, Note_on_c, 4, 48, 95
4, 167520, Note_on_c, 4, 41, 95
4, 167760, Note_off_c, 4, 65, 95
4, 167760, Note_off_c, 4, 60, 95
4, 167760, Note_off_c, 4, 57, 95
4, 167760, Note_off_c, 4, 53, 95
4, 167760, Note_off_c, 4, 48, 95
4, 167760, Note_off_c, 4, 41, 95
4, 167760, Note_on_c, 4, 65, 95
4, 167760, Note_on_c, 4, 60, 95
4, 167760, Note_on_c, 4, 57, 95
4, 167760, Note_on_c, 4, 53, 95
4, 167760, Note_on_c, 4, 48, 95
4, 167760, Note_on_c, 4, 41, 95
4, 168000, Note_off_c, 4, 65, 95
4, 168000, Note_off_c, 4, 60, 95
4, 168000, Note_off_c, 4, 57, 95
4, 168000, Note_off_c, 4, 53, 95
4, 168000, Note_off_c, 4, 48, 95
4, 168000, Note_off_c, 4, 41, 95
4, 168000, Note_on_c, 4, 65, 95
4, 168000, Note_on_c, 4, 60, 95
4, 168000, Note_on_c, 4, 57, 95
4, 168000, Note_on_c, 4, 53, 95
4, 168000, Note_on_c, 4, 48, 95
4, 168000, Note_on_c, 4, 41, 95
4, 168240, Note_off_c, 4, 65, 95
4, 168240, Note_off_c, 4, 60, 95
4, 168240, Note_off_c, 4, 57, 95
4, 168240, Note_off_c, 4, 53, 95
4, 168240, Note_off_c, 4, 48, 95
4, 168240, Note_off_c, 4, 41, 95
4, 168240, Note_on_c, 4, 65, 95
4, 168240, Note_on_c, 4, 60, 95
4, 168240, Note_on_c, 4, 57, 95
4, 168240, Note_on_c, 4, 53, 95
4, 168240, Note_on_c, 4, 48, 95
4, 168240, Note_on_c, 4, 41, 95
4, 168480, Note_off_c, 4, 65, 95
4, 168480, Note_off_c, 4, 60, 95
4, 168480, Note_off_c, 4, 57, 95
4, 168480, Note_off_c, 4, 53, 95
4, 168480, Note_off_c, 4, 48, 95
4, 168480, Note_off_c, 4, 41, 95
4, 168480, Note_on_c, 4, 65, 95
4, 168480, Note_on_c, 4, 60, 95
4, 168480, Note_on_c, 4, 57, 95
4, 168480, Note_on_c, 4, 53, 95
4, 168480, Note_on_c, 4, 48, 95
4, 168480, Note_on_c, 4, 41, 95
4, 168720, Note_off_c, 4, 65, 95
4, 168720, Note_off_c, 4, 60, 95
4, 168720, Note_off_c, 4, 57, 95
4, 168720, Note_off_c, 4, 53, 95
4, 168720, Note_off_c, 4, 48, 95
4, 168720, Note_off_c, 4, 41, 95
4, 168720, Note_on_c, 4, 65, 95
4, 168720, Note_on_c, 4, 60, 95
4, 168720, Note_on_c, 4, 57, 95
4, 168720, Note_on_c, 4, 53, 95
4, 168720, Note_on_c, 4, 48, 95
4, 168720, Note_on_c, 4, 41, 95
4, 168960, Note_off_c, 4, 65, 95
4, 168960, Note_off_c, 4, 60, 95
4, 168960, Note_off_c, 4, 57, 95
4, 168960, Note_off_c, 4, 53, 95
4, 168960, Note_off_c, 4, 48, 95
4, 168960, Note_off_c, 4, 41, 95
4, 168960, Note_on_c, 4, 62, 95
4, 168960, Note_on_c, 4, 58, 95
4, 168960, Note_on_c, 4, 53, 95
4, 168960, Note_on_c, 4, 46, 95
4, 169440, Note_off_c, 4, 62, 95
4, 169440, Note_off_c, 4, 58, 95
4, 169440, Note_off_c, 4, 53, 95
4, 169440, Note_off_c, 4, 46, 95
4, 169440, Note_on_c, 4, 62, 95
4, 169440, Note_on_c, 4, 58, 95
4, 169440, Note_on_c, 4, 53, 95
4, 169440, Note_on_c, 4, 46, 95
4, 169680, Note_off_c, 4, 62, 95
4, 169680, Note_off_c, 4, 58, 95
4, 169680, Note_off_c, 4, 53, 95
4, 169680, Note_off_c, 4, 46, 95
4, 169680, Note_on_c, 4, 62, 95
4, 169680, Note_on_c, 4, 58, 95
4, 169680, Note_on_c, 4, 53, 95
4, 169680, Note_on_c, 4, 46, 95
4, 169920, Note_off_c, 4, 62, 95
4, 169920, Note_off_c, 4, 58, 95
4, 169920, Note_off_c, 4, 53, 95
4, 169920, Note_off_c, 4, 46, 95
4, 169920, Note_on_c, 5, 62, 95
4, 169920, Note_on_c, 5, 58, 95
4, 169920, Note_on_c, 5, 53, 95
4, 169920, Note_on_c, 5, 46, 95
4, 170040, Pitch_bend_c, 5, 7552
4, 170040, Pitch_bend_c, 5, 7552
4, 170040, Pitch_bend_c, 5, 7552
4, 170040, Pitch_bend_c, 5, 7552
4, 170160, Pitch_bend_c, 5, 6784
4, 170160, Pitch_bend_c, 5, 8192
4, 170160, Note_off_c, 5, 62, 95
4, 170160, Pitch_bend_c, 5, 6784
4, 170160, Pitch_bend_c, 5, 8192
4, 170160, Note_off_c, 5, 58, 95
4, 170160, Pitch_bend_c, 5, 6784
4, 170160, Pitch_bend_c, 5, 8192
4, 170160, Note_off_c, 5, 53, 95
4, 170160, Pitch_bend_c, 5, 6784
4, 170160, Pitch_bend_c, 5, 8192
4, 170160, Note_off_c, 5, 46, 95
4, 170160, Note_on_c, 4, 60, 95
4, 170160, Note_on_c, 4, 56, 95
4, 170160, Note_on_c, 4, 51, 95
4, 170160, Note_on_c, 4, 44, 47
4, 170400, Note_off_c, 4, 60, 95
4, 170400, Note_off_c, 4, 56, 95
4, 170400, Note_off_c, 4, 51, 95
4, 170400, Note_off_c, 4, 44, 47
4, 170400, Note_on_c, 4, 60, 95
4, 170400, Note_on_c, 4, 56, 95
4, 170400, Note_on_c, 4, 51, 95
4, 170400, Note_on_c, 4, 44, 95
4, 170880, Note_off_c, 4, 60, 95
4, 170880, Note_off_c, 4, 56, 95
4, 170880, Note_off_c, 4, 51, 95
4, 170880, Note_off_c, 4, 44, 95
4, 170880, Note_on_c, 4, 63, 95
4, 170880, Note_on_c, 4, 58, 95
4, 170880, Note_on_c, 4, 55, 95
4, 170880, Note_on_c, 4, 51, 95
4, 170880, Note_on_c, 4, 46, 95
4, 170880, Note_on_c, 4, 39, 95
4, 171360, Note_off_c, 4, 63, 95
4, 171360, Note_off_c, 4, 58, 95
4, 171360, Note_off_c, 4, 55, 95
4, 171360, Note_off_c, 4, 51, 95
4, 171360, Note_off_c, 4, 46, 95
4, 171360, Note_off_c, 4, 39, 95
4, 171360, Note_on_c, 4, 63, 95
4, 171360, Note_on_c, 4, 58, 95
4, 171360, Note_on_c, 4, 55, 95
4, 171360, Note_on_c, 4, 51, 95
4, 171360, Note_on_c, 4, 46, 95
4, 171360, Note_on_c, 4, 39, 95
4, 171600, Note_off_c, 4, 63, 95
4, 171600, Note_off_c, 4, 58, 95
4, 171600, Note_off_c, 4, 55, 95
4, 171600, Note_off_c, 4, 51, 95
4, 171600, Note_off_c, 4, 46, 95
4, 171600, Note_off_c, 4, 39, 95
4, 171600, Note_on_c, 4, 63, 95
4, 171600, Note_on_c, 4, 58, 95
4, 171600, Note_on_c, 4, 55, 95
4, 171600, Note_on_c, 4, 51, 95
4, 171600, Note_on_c, 4, 46, 95
4, 171600, Note_on_c, 4, 39, 95
4, 171840, Note_off_c, 4, 63, 95
4, 171840, Note_off_c, 4, 58, 95
4, 171840, Note_off_c, 4, 55, 95
4, 171840, Note_off_c, 4, 51, 95
4, 171840, Note_off_c, 4, 46, 95
4, 171840, Note_off_c, 4, 39, 95
4, 171840, Note_on_c, 4, 63, 95
4, 171840, Note_on_c, 4, 58, 95
4, 171840, Note_on_c, 4, 55, 95
4, 171840, Note_on_c, 4, 51, 95
4, 171840, Note_on_c, 4, 46, 95
4, 171840, Note_on_c, 4, 39, 95
4, 172320, Note_off_c, 4, 63, 95
4, 172320, Note_off_c, 4, 58, 95
4, 172320, Note_off_c, 4, 55, 95
4, 172320, Note_off_c, 4, 51, 95
4, 172320, Note_off_c, 4, 46, 95
4, 172320, Note_off_c, 4, 39, 95
4, 172320, Note_on_c, 4, 63, 95
4, 172320, Note_on_c, 4, 58, 95
4, 172320, Note_on_c, 4, 55, 95
4, 172320, Note_on_c, 4, 51, 95
4, 172320, Note_on_c, 4, 46, 95
4, 172320, Note_on_c, 4, 39, 95
4, 172800, Note_off_c, 4, 63, 95
4, 172800, Note_off_c, 4, 58, 95
4, 172800, Note_off_c, 4, 55, 95
4, 172800, Note_off_c, 4, 51, 95
4, 172800, Note_off_c, 4, 46, 95
4, 172800, Note_off_c, 4, 39, 95
4, 172800, Note_on_c, 4, 69, 95
4, 172800, Note_on_c, 4, 65, 95
4, 172800, Note_on_c, 4, 60, 95
4, 172800, Note_on_c, 4, 53, 95
4, 173280, Note_off_c, 4, 69, 95
4, 173280, Note_off_c, 4, 65, 95
4, 173280, Note_off_c, 4, 60, 95
4, 173280, Note_off_c, 4, 53, 95
4, 173280, Note_on_c, 4, 69, 95
4, 173280, Note_on_c, 4, 65, 95
4, 173280, Note_on_c, 4, 60, 95
4, 173280, Note_on_c, 4, 53, 95
4, 173520, Note_off_c, 4, 69, 95
4, 173520, Note_off_c, 4, 65, 95
4, 173520, Note_off_c, 4, 60, 95
4, 173520, Note_off_c, 4, 53, 95
4, 173520, Note_on_c, 4, 69, 95
4, 173520, Note_on_c, 4, 65, 95
4, 173520, Note_on_c, 4, 60, 95
4, 173520, Note_on_c, 4, 53, 95
4, 173760, Note_off_c, 4, 69, 95
4, 173760, Note_off_c, 4, 65, 95
4, 173760, Note_off_c, 4, 60, 95
4, 173760, Note_off_c, 4, 53, 95
4, 173760, Note_on_c, 4, 69, 95
4, 173760, Note_on_c, 4, 65, 95
4, 173760, Note_on_c, 4, 60, 95
4, 173760, Note_on_c, 4, 53, 95
4, 174240, Note_off_c, 4, 69, 95
4, 174240, Note_off_c, 4, 65, 95
4, 174240, Note_off_c, 4, 60, 95
4, 174240, Note_off_c, 4, 53, 95
4, 174240, Note_on_c, 4, 69, 95
4, 174240, Note_on_c, 4, 65, 95
4, 174240, Note_on_c, 4, 60, 95
4, 174240, Note_on_c, 4, 53, 95
4, 174480, Note_off_c, 4, 69, 95
4, 174480, Note_off_c, 4, 65, 95
4, 174480, Note_off_c, 4, 60, 95
4, 174480, Note_off_c, 4, 53, 95
4, 174480, Note_on_c, 4, 69, 95
4, 174480, Note_on_c, 4, 65, 95
4, 174480, Note_on_c, 4, 60, 95
4, 174480, Note_on_c, 4, 53, 95
4, 174720, Note_off_c, 4, 69, 95
4, 174720, Note_off_c, 4, 65, 95
4, 174720, Note_off_c, 4, 60, 95
4, 174720, Note_off_c, 4, 53, 95
4, 174720, Note_on_c, 5, 67, 95
4, 174720, Note_on_c, 5, 63, 95
4, 174720, Note_on_c, 5, 58, 95
4, 174720, Note_on_c, 5, 51, 95
4, 174840, Pitch_bend_c, 5, 8832
4, 174840, Pitch_bend_c, 5, 8832
4, 174840, Pitch_bend_c, 5, 8832
4, 174840, Pitch_bend_c, 5, 8832
4, 174960, Pitch_bend_c, 5, 9600
4, 174960, Pitch_bend_c, 5, 8192
4, 174960, Note_off_c, 5, 67, 95
4, 174960, Pitch_bend_c, 5, 9600
4, 174960, Pitch_bend_c, 5, 8192
4, 174960, Note_off_c, 5, 63, 95
4, 174960, Pitch_bend_c, 5, 9600
4, 174960, Pitch_bend_c, 5, 8192
4, 174960, Note_off_c, 5, 58, 95
4, 174960, Pitch_bend_c, 5, 9600
4, 174960, Pitch_bend_c, 5, 8192
4, 174960, Note_off_c, 5, 51, 95
4, 174960, Note_on_c, 4, 69, 95
4, 174960, Note_on_c, 4, 65, 95
4, 174960, Note_on_c, 4, 60, 95
4, 174960, Note_on_c, 4, 53, 95
4, 175200, Note_off_c, 4, 69, 95
4, 175200, Note_off_c, 4, 65, 95
4, 175200, Note_off_c, 4, 60, 95
4, 175200, Note_off_c, 4, 53, 95
4, 175200, Note_on_c, 4, 69, 95
4, 175200, Note_on_c, 4, 65, 95
4, 175200, Note_on_c, 4, 60, 95
4, 175200, Note_on_c, 4, 53, 95
4, 175440, Note_off_c, 4, 69, 95
4, 175440, Note_off_c, 4, 65, 95
4, 175440, Note_off_c, 4, 60, 95
4, 175440, Note_off_c, 4, 53, 95
4, 175440, Note_on_c, 4, 69, 95
4, 175440, Note_on_c, 4, 65, 95
4, 175440, Note_on_c, 4, 60, 95
4, 175440, Note_on_c, 4, 53, 95
4, 175680, Note_off_c, 4, 69, 95
4, 175680, Note_off_c, 4, 65, 95
4, 175680, Note_off_c, 4, 60, 95
4, 175680, Note_off_c, 4, 53, 95
4, 175680, Note_on_c, 4, 69, 95
4, 175680, Note_on_c, 4, 65, 95
4, 175680, Note_on_c, 4, 60, 95
4, 175680, Note_on_c, 4, 53, 95
4, 175920, Note_off_c, 4, 69, 95
4, 175920, Note_off_c, 4, 65, 95
4, 175920, Note_off_c, 4, 60, 95
4, 175920, Note_off_c, 4, 53, 95
4, 175920, Note_on_c, 4, 69, 95
4, 175920, Note_on_c, 4, 65, 95
4, 175920, Note_on_c, 4, 60, 95
4, 175920, Note_on_c, 4, 53, 95
4, 176160, Note_off_c, 4, 69, 95
4, 176160, Note_off_c, 4, 65, 95
4, 176160, Note_off_c, 4, 60, 95
4, 176160, Note_off_c, 4, 53, 95
4, 176160, Note_on_c, 4, 69, 95
4, 176160, Note_on_c, 4, 65, 95
4, 176160, Note_on_c, 4, 60, 95
4, 176160, Note_on_c, 4, 53, 95
4, 176400, Note_off_c, 4, 69, 95
4, 176400, Note_off_c, 4, 65, 95
4, 176400, Note_off_c, 4, 60, 95
4, 176400, Note_off_c, 4, 53, 95
4, 176400, Note_on_c, 4, 69, 95
4, 176400, Note_on_c, 4, 65, 95
4, 176400, Note_on_c, 4, 60, 95
4, 176400, Note_on_c, 4, 53, 95
4, 176640, Note_off_c, 4, 69, 95
4, 176640, Note_off_c, 4, 65, 95
4, 176640, Note_off_c, 4, 60, 95
4, 176640, Note_off_c, 4, 53, 95
4, 176640, Note_on_c, 4, 62, 95
4, 176640, Note_on_c, 4, 58, 95
4, 176640, Note_on_c, 4, 53, 95
4, 176640, Note_on_c, 4, 46, 95
4, 177120, Note_off_c, 4, 62, 95
4, 177120, Note_off_c, 4, 58, 95
4, 177120, Note_off_c, 4, 53, 95
4, 177120, Note_off_c, 4, 46, 95
4, 177120, Note_on_c, 4, 62, 95
4, 177120, Note_on_c, 4, 58, 95
4, 177120, Note_on_c, 4, 53, 95
4, 177120, Note_on_c, 4, 46, 95
4, 177360, Note_off_c, 4, 62, 95
4, 177360, Note_off_c, 4, 58, 95
4, 177360, Note_off_c, 4, 53, 95
4, 177360, Note_off_c, 4, 46, 95
4, 177360, Note_on_c, 4, 62, 95
4, 177360, Note_on_c, 4, 58, 95
4, 177360, Note_on_c, 4, 53, 95
4, 177360, Note_on_c, 4, 46, 95
4, 177600, Note_off_c, 4, 62, 95
4, 177600, Note_off_c, 4, 58, 95
4, 177600, Note_off_c, 4, 53, 95
4, 177600, Note_off_c, 4, 46, 95
4, 177600, Note_on_c, 5, 62, 95
4, 177600, Note_on_c, 5, 58, 95
4, 177600, Note_on_c, 5, 53, 95
4, 177600, Note_on_c, 5, 46, 95
4, 177720, Pitch_bend_c, 5, 7552
4, 177720, Pitch_bend_c, 5, 7552
4, 177720, Pitch_bend_c, 5, 7552
4, 177720, Pitch_bend_c, 5, 7552
4, 177840, Pitch_bend_c, 5, 6784
4, 177840, Pitch_bend_c, 5, 8192
4, 177840, Note_off_c, 5, 62, 95
4, 177840, Pitch_bend_c, 5, 6784
4, 177840, Pitch_bend_c, 5, 8192
4, 177840, Note_off_c, 5, 58, 95
4, 177840, Pitch_bend_c, 5, 6784
4, 177840, Pitch_bend_c, 5, 8192
4, 177840, Note_off_c, 5, 53, 95
4, 177840, Pitch_bend_c, 5, 6784
4, 177840, Pitch_bend_c, 5, 8192
4, 177840, Note_off_c, 5, 46, 95
4, 177840, Note_on_c, 4, 60, 95
4, 177840, Note_on_c, 4, 56, 95
4, 177840, Note_on_c, 4, 51, 95
4, 177840, Note_on_c, 4, 44, 47
4, 178080, Note_off_c, 4, 60, 95
4, 178080, Note_off_c, 4, 56, 95
4, 178080, Note_off_c, 4, 51, 95
4, 178080, Note_off_c, 4, 44, 47
4, 178080, Note_on_c, 4, 60, 95
4, 178080, Note_on_c, 4, 56, 95
4, 178080, Note_on_c, 4, 51, 95
4, 178080, Note_on_c, 4, 44, 95
4, 178560, Note_off_c, 4, 60, 95
4, 178560, Note_off_c, 4, 56, 95
4, 178560, Note_off_c, 4, 51, 95
4, 178560, Note_off_c, 4, 44, 95
4, 178560, Note_on_c, 4, 67, 95
4, 178560, Note_on_c, 4, 63, 95
4, 178560, Note_on_c, 4, 58, 95
4, 178560, Note_on_c, 4, 53, 95
4, 178560, Note_on_c, 4, 39, 95
4, 178800, Note_off_c, 4, 67, 95
4, 178800, Note_off_c, 4, 63, 95
4, 178800, Note_off_c, 4, 58, 95
4, 178800, Note_off_c, 4, 53, 95
4, 178800, Note_off_c, 4, 39, 95
4, 178800, Note_on_c, 4, 55, 70
4, 178800, Note_on_c, 4, 39, 95
4, 179040, Note_off_c, 4, 55, 70
4, 179040, Note_off_c, 4, 39, 95
4, 179040, Note_on_c, 4, 67, 95
4, 179040, Note_on_c, 4, 63, 95
4, 179040, Note_on_c, 4, 58, 95
4, 179040, Note_on_c, 4, 55, 95
4, 179040, Note_on_c, 4, 39, 95
4, 179280, Note_off_c, 4, 67, 95
4, 179280, Note_off_c, 4, 63, 95
4, 179280, Note_off_c, 4, 58, 95
4, 179280, Note_off_c, 4, 55, 95
4, 179280, Note_off_c, 4, 39, 95
4, 179280, Note_on_c, 4, 67, 95
4, 179280, Note_on_c, 4, 63, 95
4, 179280, Note_on_c, 4, 58, 95
4, 179280, Note_on_c, 4, 55, 95
4, 179280, Note_on_c, 4, 39, 95
4, 179520, Note_off_c, 4, 67, 95
4, 179520, Note_off_c, 4, 63, 95
4, 179520, Note_off_c, 4, 58, 95
4, 179520, Note_off_c, 4, 55, 95
4, 179520, Note_off_c, 4, 39, 95
4, 179520, Note_on_c, 4, 67, 95
4, 179520, Note_on_c, 4, 63, 95
4, 179520, Note_on_c, 4, 58, 95
4, 179520, Note_on_c, 4, 55, 95
4, 179520, Note_on_c, 4, 39, 95
4, 179760, Note_off_c, 4, 67, 95
4, 179760, Note_off_c, 4, 63, 95
4, 179760, Note_off_c, 4, 58, 95
4, 179760, Note_off_c, 4, 55, 95
4, 179760, Note_off_c, 4, 39, 95
4, 179760, Note_on_c, 4, 58, 95
4, 179760, Note_on_c, 4, 54, 95
4, 179760, Note_on_c, 4, 49, 95
4, 179760, Note_on_c, 4, 44, 95
4, 179799, Note_off_c, 4, 58, 95
4, 179799, Note_off_c, 4, 54, 95
4, 179799, Note_off_c, 4, 49, 95
4, 179799, Note_off_c, 4, 44, 95
4, 180000, Note_on_c, 4, 53, 95
4, 180240, Note_off_c, 4, 53, 95
4, 180240, Note_on_c, 4, 55, 70
4, 180480, Note_off_c, 4, 55, 70
4, 180480, Note_on_c, 4, 65, 95
4, 180480, Note_on_c, 4, 60, 95
4, 180480, Note_on_c, 4, 53, 95
4, 180960, Note_off_c, 4, 65, 95
4, 180960, Note_off_c, 4, 60, 95
4, 180960, Note_off_c, 4, 53, 95
4, 180960, Note_on_c, 4, 65, 95
4, 180960, Note_on_c, 4, 60, 95
4, 180960, Note_on_c, 4, 53, 95
4, 181200, Note_off_c, 4, 65, 95
4, 181200, Note_off_c, 4, 60, 95
4, 181200, Note_off_c, 4, 53, 95
4, 181200, Note_on_c, 4, 65, 95
4, 181200, Note_on_c, 4, 60, 95
4, 181200, Note_on_c, 4, 53, 95
4, 181440, Note_off_c, 4, 65, 95
4, 181440, Note_off_c, 4, 60, 95
4, 181440, Note_off_c, 4, 53, 95
4, 181440, Note_on_c, 4, 65, 95
4, 181440, Note_on_c, 4, 60, 95
4, 181440, Note_on_c, 4, 53, 95
4, 181920, Note_off_c, 4, 65, 95
4, 181920, Note_off_c, 4, 60, 95
4, 181920, Note_off_c, 4, 53, 95
4, 181920, Note_on_c, 4, 65, 95
4, 181920, Note_on_c, 4, 60, 95
4, 181920, Note_on_c, 4, 53, 95
4, 181959, Note_off_c, 4, 65, 95
4, 181959, Note_off_c, 4, 60, 95
4, 181959, Note_off_c, 4, 53, 95
4, 182160, Note_on_c, 4, 65, 95
4, 182160, Note_on_c, 4, 60, 95
4, 182160, Note_on_c, 4, 53, 95
4, 182199, Note_off_c, 4, 65, 95
4, 182199, Note_off_c, 4, 60, 95
4, 182199, Note_off_c, 4, 53, 95
4, 182400, Note_on_c, 4, 65, 95
4, 182400, Note_on_c, 4, 60, 95
4, 182400, Note_on_c, 4, 57, 95
4, 182400, Note_on_c, 4, 53, 95
4, 182400, Note_on_c, 4, 48, 95
4, 182400, Note_on_c, 4, 41, 95
4, 182640, Note_off_c, 4, 65, 95
4, 182640, Note_off_c, 4, 60, 95
4, 182640, Note_off_c, 4, 57, 95
4, 182640, Note_off_c, 4, 53, 95
4, 182640, Note_off_c, 4, 48, 95
4, 182640, Note_off_c, 4, 41, 95
4, 182640, Note_on_c, 4, 65, 95
4, 182640, Note_on_c, 4, 60, 95
4, 182640, Note_on_c, 4, 57, 95
4, 182640, Note_on_c, 4, 53, 95
4, 182640, Note_on_c, 4, 48, 95
4, 182640, Note_on_c, 4, 41, 95
4, 182880, Note_off_c, 4, 65, 95
4, 182880, Note_off_c, 4, 60, 95
4, 182880, Note_off_c, 4, 57, 95
4, 182880, Note_off_c, 4, 53, 95
4, 182880, Note_off_c, 4, 48, 95
4, 182880, Note_off_c, 4, 41, 95
4, 182880, Note_on_c, 4, 65, 95
4, 182880, Note_on_c, 4, 60, 95
4, 182880, Note_on_c, 4, 57, 95
4, 182880, Note_on_c, 4, 53, 95
4, 182880, Note_on_c, 4, 48, 95
4, 182880, Note_on_c, 4, 41, 95
4, 183120, Note_off_c, 4, 65, 95
4, 183120, Note_off_c, 4, 60, 95
4, 183120, Note_off_c, 4, 57, 95
4, 183120, Note_off_c, 4, 53, 95
4, 183120, Note_off_c, 4, 48, 95
4, 183120, Note_off_c, 4, 41, 95
4, 183120, Note_on_c, 4, 65, 95
4, 183120, Note_on_c, 4, 60, 95
4, 183120, Note_on_c, 4, 57, 95
4, 183120, Note_on_c, 4, 53, 95
4, 183120, Note_on_c, 4, 48, 95
4, 183120, Note_on_c, 4, 41, 95
4, 183360, Note_off_c, 4, 65, 95
4, 183360, Note_off_c, 4, 60, 95
4, 183360, Note_off_c, 4, 57, 95
4, 183360, Note_off_c, 4, 53, 95
4, 183360, Note_off_c, 4, 48, 95
4, 183360, Note_off_c, 4, 41, 95
4, 183360, Note_on_c, 4, 65, 95
4, 183360, Note_on_c, 4, 60, 95
4, 183360, Note_on_c, 4, 57, 95
4, 183360, Note_on_c, 4, 53, 95
4, 183360, Note_on_c, 4, 48, 95
4, 183360, Note_on_c, 4, 41, 95
4, 183600, Note_off_c, 4, 65, 95
4, 183600, Note_off_c, 4, 60, 95
4, 183600, Note_off_c, 4, 57, 95
4, 183600, Note_off_c, 4, 53, 95
4, 183600, Note_off_c, 4, 48, 95
4, 183600, Note_off_c, 4, 41, 95
4, 183600, Note_on_c, 4, 65, 95
4, 183600, Note_on_c, 4, 60, 95
4, 183600, Note_on_c, 4, 57, 95
4, 183600, Note_on_c, 4, 53, 95
4, 183600, Note_on_c, 4, 48, 95
4, 183600, Note_on_c, 4, 41, 95
4, 183840, Note_off_c, 4, 65, 95
4, 183840, Note_off_c, 4, 60, 95
4, 183840, Note_off_c, 4, 57, 95
4, 183840, Note_off_c, 4, 53, 95
4, 183840, Note_off_c, 4, 48, 95
4, 183840, Note_off_c, 4, 41, 95
4, 183840, Note_on_c, 4, 65, 95
4, 183840, Note_on_c, 4, 60, 95
4, 183840, Note_on_c, 4, 57, 95
4, 183840, Note_on_c, 4, 53, 95
4, 183840, Note_on_c, 4, 48, 95
4, 183840, Note_on_c, 4, 41, 95
4, 184080, Note_off_c, 4, 65, 95
4, 184080, Note_off_c, 4, 60, 95
4, 184080, Note_off_c, 4, 57, 95
4, 184080, Note_off_c, 4, 53, 95
4, 184080, Note_off_c, 4, 48, 95
4, 184080, Note_off_c, 4, 41, 95
4, 184080, Note_on_c, 5, 65, 95
4, 184080, Note_on_c, 5, 60, 95
4, 184080, Note_on_c, 5, 57, 95
4, 184080, Note_on_c, 5, 53, 95
4, 184080, Note_on_c, 4, 48, 95
4, 184080, Note_on_c, 5, 41, 95
4, 184200, Pitch_bend_c, 5, 9856
4, 184200, Pitch_bend_c, 5, 9856
4, 184200, Pitch_bend_c, 5, 9856
4, 184200, Pitch_bend_c, 5, 9856
4, 184200, Pitch_bend_c, 5, 9856
4, 184320, Pitch_bend_c, 5, 11648
4, 184320, Pitch_bend_c, 5, 8192
4, 184320, Note_off_c, 5, 65, 95
4, 184320, Pitch_bend_c, 5, 11648
4, 184320, Pitch_bend_c, 5, 8192
4, 184320, Note_off_c, 5, 60, 95
4, 184320, Pitch_bend_c, 5, 11648
4, 184320, Pitch_bend_c, 5, 8192
4, 184320, Note_off_c, 5, 57, 95
4, 184320, Pitch_bend_c, 5, 11648
4, 184320, Pitch_bend_c, 5, 8192
4, 184320, Note_off_c, 5, 53, 95
4, 184320, Note_off_c, 4, 48, 95
4, 184320, Pitch_bend_c, 5, 11648
4, 184320, Pitch_bend_c, 5, 8192
4, 184320, Note_off_c, 5, 41, 95
4, 184320, Note_on_c, 4, 70, 95
4, 184320, Note_on_c, 4, 65, 95
4, 184320, Note_on_c, 4, 62, 95
4, 184320, Note_on_c, 4, 58, 95
4, 184320, Note_on_c, 4, 46, 95
4, 184560, Note_off_c, 4, 70, 95
4, 184560, Note_off_c, 4, 65, 95
4, 184560, Note_off_c, 4, 62, 95
4, 184560, Note_off_c, 4, 58, 95
4, 184560, Note_off_c, 4, 46, 95
4, 184560, Note_on_c, 4, 70, 95
4, 184560, Note_on_c, 4, 65, 95
4, 184560, Note_on_c, 4, 62, 95
4, 184560, Note_on_c, 4, 58, 95
4, 184560, Note_on_c, 4, 46, 95
4, 184800, Note_off_c, 4, 70, 95
4, 184800, Note_off_c, 4, 65, 95
4, 184800, Note_off_c, 4, 62, 95
4, 184800, Note_off_c, 4, 58, 95
4, 184800, Note_off_c, 4, 46, 95
4, 184800, Note_on_c, 4, 70, 95
4, 184800, Note_on_c, 4, 65, 95
4, 184800, Note_on_c, 4, 62, 95
4, 184800, Note_on_c, 4, 58, 95
4, 184800, Note_on_c, 4, 46, 95
4, 185040, Note_off_c, 4, 70, 95
4, 185040, Note_off_c, 4, 65, 95
4, 185040, Note_off_c, 4, 62, 95
4, 185040, Note_off_c, 4, 58, 95
4, 185040, Note_off_c, 4, 46, 95
4, 185040, Note_on_c, 4, 70, 95
4, 185040, Note_on_c, 4, 65, 95
4, 185040, Note_on_c, 4, 62, 95
4, 185040, Note_on_c, 4, 58, 95
4, 185040, Note_on_c, 4, 46, 95
4, 185280, Note_off_c, 4, 70, 95
4, 185280, Note_off_c, 4, 65, 95
4, 185280, Note_off_c, 4, 62, 95
4, 185280, Note_off_c, 4, 58, 95
4, 185280, Note_off_c, 4, 46, 95
4, 185280, Note_on_c, 4, 70, 95
4, 185280, Note_on_c, 4, 65, 95
4, 185280, Note_on_c, 4, 62, 95
4, 185280, Note_on_c, 4, 58, 95
4, 185280, Note_on_c, 4, 46, 95
4, 185520, Note_off_c, 4, 70, 95
4, 185520, Note_off_c, 4, 65, 95
4, 185520, Note_off_c, 4, 62, 95
4, 185520, Note_off_c, 4, 58, 95
4, 185520, Note_off_c, 4, 46, 95
4, 185520, Note_on_c, 4, 70, 95
4, 185520, Note_on_c, 4, 65, 95
4, 185520, Note_on_c, 4, 62, 95
4, 185520, Note_on_c, 4, 58, 95
4, 185520, Note_on_c, 4, 46, 95
4, 185760, Note_off_c, 4, 70, 95
4, 185760, Note_off_c, 4, 65, 95
4, 185760, Note_off_c, 4, 62, 95
4, 185760, Note_off_c, 4, 58, 95
4, 185760, Note_off_c, 4, 46, 95
4, 185760, Note_on_c, 4, 70, 95
4, 185760, Note_on_c, 4, 65, 95
4, 185760, Note_on_c, 4, 62, 95
4, 185760, Note_on_c, 4, 58, 95
4, 185760, Note_on_c, 4, 46, 95
4, 186000, Note_off_c, 4, 70, 95
4, 186000, Note_off_c, 4, 65, 95
4, 186000, Note_off_c, 4, 62, 95
4, 186000, Note_off_c, 4, 58, 95
4, 186000, Note_off_c, 4, 46, 95
4, 186000, Note_on_c, 4, 70, 95
4, 186000, Note_on_c, 4, 65, 95
4, 186000, Note_on_c, 4, 62, 95
4, 186000, Note_on_c, 4, 58, 95
4, 186000, Note_on_c, 4, 46, 95
4, 186240, Note_off_c, 4, 70, 95
4, 186240, Note_off_c, 4, 65, 95
4, 186240, Note_off_c, 4, 62, 95
4, 186240, Note_off_c, 4, 58, 95
4, 186240, Note_off_c, 4, 46, 95
4, 186240, Note_on_c, 4, 70, 95
4, 186240, Note_on_c, 4, 65, 95
4, 186240, Note_on_c, 4, 62, 95
4, 186240, Note_on_c, 4, 58, 95
4, 186480, Note_off_c, 4, 70, 95
4, 186480, Note_off_c, 4, 65, 95
4, 186480, Note_off_c, 4, 62, 95
4, 186480, Note_off_c, 4, 58, 95
4, 186480, Note_on_c, 4, 70, 95
4, 186480, Note_on_c, 4, 65, 95
4, 186480, Note_on_c, 4, 63, 70
4, 186480, Note_on_c, 4, 58, 95
4, 186720, Note_off_c, 4, 70, 95
4, 186720, Note_off_c, 4, 65, 95
4, 186720, Note_off_c, 4, 63, 70
4, 186720, Note_off_c, 4, 58, 95
4, 186720, Note_on_c, 4, 70, 95
4, 186720, Note_on_c, 4, 65, 95
4, 186720, Note_on_c, 4, 63, 95
4, 186720, Note_on_c, 4, 58, 95
4, 186960, Note_off_c, 4, 70, 95
4, 186960, Note_off_c, 4, 65, 95
4, 186960, Note_off_c, 4, 63, 95
4, 186960, Note_off_c, 4, 58, 95
4, 186960, Note_on_c, 4, 70, 95
4, 186960, Note_on_c, 4, 65, 95
4, 186960, Note_on_c, 4, 63, 95
4, 186960, Note_on_c, 4, 58, 95
4, 187200, Note_off_c, 4, 70, 95
4, 187200, Note_off_c, 4, 65, 95
4, 187200, Note_off_c, 4, 63, 95
4, 187200, Note_off_c, 4, 58, 95
4, 187200, Note_on_c, 4, 70, 95
4, 187200, Note_on_c, 4, 65, 95
4, 187200, Note_on_c, 4, 63, 95
4, 187200, Note_on_c, 4, 58, 95
4, 187440, Note_off_c, 4, 70, 95
4, 187440, Note_off_c, 4, 65, 95
4, 187440, Note_off_c, 4, 63, 95
4, 187440, Note_off_c, 4, 58, 95
4, 187440, Note_on_c, 4, 70, 95
4, 187440, Note_on_c, 4, 65, 95
4, 187440, Note_on_c, 4, 63, 95
4, 187440, Note_on_c, 4, 58, 95
4, 187680, Note_off_c, 4, 70, 95
4, 187680, Note_off_c, 4, 65, 95
4, 187680, Note_off_c, 4, 63, 95
4, 187680, Note_off_c, 4, 58, 95
4, 187680, Note_on_c, 4, 70, 95
4, 187680, Note_on_c, 4, 65, 95
4, 187680, Note_on_c, 4, 63, 95
4, 187680, Note_on_c, 4, 58, 95
4, 187920, Note_off_c, 4, 70, 95
4, 187920, Note_off_c, 4, 65, 95
4, 187920, Note_off_c, 4, 63, 95
4, 187920, Note_off_c, 4, 58, 95
4, 187920, Note_on_c, 4, 70, 95
4, 187920, Note_on_c, 4, 65, 95
4, 187920, Note_on_c, 4, 63, 95
4, 187920, Note_on_c, 4, 58, 95
4, 188160, Note_off_c, 4, 70, 95
4, 188160, Note_off_c, 4, 65, 95
4, 188160, Note_off_c, 4, 63, 95
4, 188160, Note_off_c, 4, 58, 95
4, 188160, Note_on_c, 5, 70, 95
4, 188160, Note_on_c, 5, 65, 95
4, 188160, Note_on_c, 5, 63, 95
4, 188160, Note_on_c, 5, 58, 95
4, 188280, Pitch_bend_c, 5, 8832
4, 188280, Pitch_bend_c, 5, 8832
4, 188280, Pitch_bend_c, 5, 8832
4, 188280, Pitch_bend_c, 5, 8832
4, 188400, Pitch_bend_c, 5, 9600
4, 188400, Pitch_bend_c, 5, 8192
4, 188400, Note_off_c, 5, 70, 95
4, 188400, Pitch_bend_c, 5, 9600
4, 188400, Pitch_bend_c, 5, 8192
4, 188400, Note_off_c, 5, 65, 95
4, 188400, Pitch_bend_c, 5, 9600
4, 188400, Pitch_bend_c, 5, 8192
4, 188400, Note_off_c, 5, 63, 95
4, 188400, Pitch_bend_c, 5, 9600
4, 188400, Pitch_bend_c, 5, 8192
4, 188400, Note_off_c, 5, 58, 95
4, 188400, Note_on_c, 4, 72, 95
4, 188400, Note_on_c, 4, 67, 95
4, 188400, Note_on_c, 4, 65, 95
4, 188400, Note_on_c, 4, 60, 95
4, 188640, Note_off_c, 4, 72, 95
4, 188640, Note_off_c, 4, 67, 95
4, 188640, Note_off_c, 4, 65, 95
4, 188640, Note_off_c, 4, 60, 95
4, 188640, Note_on_c, 4, 72, 95
4, 188640, Note_on_c, 4, 67, 95
4, 188640, Note_on_c, 4, 65, 95
4, 188640, Note_on_c, 4, 60, 95
4, 188880, Note_off_c, 4, 72, 95
4, 188880, Note_off_c, 4, 67, 95
4, 188880, Note_off_c, 4, 65, 95
4, 188880, Note_off_c, 4, 60, 95
4, 188880, Note_on_c, 4, 72, 95
4, 188880, Note_on_c, 4, 67, 95
4, 188880, Note_on_c, 4, 65, 95
4, 188880, Note_on_c, 4, 60, 95
4, 189120, Note_off_c, 4, 72, 95
4, 189120, Note_off_c, 4, 67, 95
4, 189120, Note_off_c, 4, 65, 95
4, 189120, Note_off_c, 4, 60, 95
4, 189120, Note_on_c, 4, 72, 95
4, 189120, Note_on_c, 4, 67, 95
4, 189120, Note_on_c, 4, 65, 95
4, 189120, Note_on_c, 4, 60, 95
4, 189600, Note_off_c, 4, 72, 95
4, 189600, Note_off_c, 4, 67, 95
4, 189600, Note_off_c, 4, 65, 95
4, 189600, Note_off_c, 4, 60, 95
4, 189600, Note_on_c, 4, 72, 95
4, 189600, Note_on_c, 4, 67, 95
4, 189600, Note_on_c, 4, 65, 95
4, 189600, Note_on_c, 4, 60, 95
4, 190080, Note_off_c, 4, 72, 95
4, 190080, Note_off_c, 4, 67, 95
4, 190080, Note_off_c, 4, 65, 95
4, 190080, Note_off_c, 4, 60, 95
4, 190080, Note_on_c, 4, 72, 95
4, 190080, Note_on_c, 4, 67, 95
4, 190320, Note_off_c, 4, 72, 95
4, 190320, Note_off_c, 4, 67, 95
4, 190320, Note_on_c, 4, 69, 70
4, 190560, Note_off_c, 4, 69, 70
4, 190560, Note_on_c, 4, 72, 95
4, 190560, Note_on_c, 4, 67, 95
4, 190800, Note_off_c, 4, 72, 95
4, 190800, Note_off_c, 4, 67, 95
4, 190800, Note_on_c, 4, 69, 70
4, 191040, Note_off_c, 4, 69, 70
4, 191040, Note_on_c, 4, 72, 95
4, 191040, Note_on_c, 4, 67, 95
4, 191280, Note_off_c, 4, 72, 95
4, 191280, Note_off_c, 4, 67, 95
4, 191280, Note_on_c, 4, 65, 95
4, 191520, Note_off_c, 4, 65, 95
4, 191520, Note_on_c, 4, 63, 95
4, 191520, Note_on_c, 4, 58, 95
4, 191559, Note_off_c, 4, 63, 95
4, 191559, Note_off_c, 4, 58, 95
4, 191760, Note_on_c, 4, 63, 95
4, 191760, Note_on_c, 4, 58, 95
4, 191799, Note_off_c, 4, 63, 95
4, 191799, Note_off_c, 4, 58, 95
4, 192000, Note_on_c, 4, 62, 95
4, 192000, Note_on_c, 4, 58, 95
4, 192000, Note_on_c, 4, 53, 95
4, 192000, Note_on_c, 4, 46, 95
4, 192480, Note_off_c, 4, 62, 95
4, 192480, Note_off_c, 4, 58, 95
4, 192480, Note_off_c, 4, 53, 95
4, 192480, Note_off_c, 4, 46, 95
4, 192480, Note_on_c, 4, 62, 95
4, 192480, Note_on_c, 4, 58, 95
4, 192480, Note_on_c, 4, 53, 95
4, 192480, Note_on_c, 4, 46, 95
4, 192720, Note_off_c, 4, 62, 95
4, 192720, Note_off_c, 4, 58, 95
4, 192720, Note_off_c, 4, 53, 95
4, 192720, Note_off_c, 4, 46, 95
4, 192720, Note_on_c, 4, 62, 95
4, 192720, Note_on_c, 4, 58, 95
4, 192720, Note_on_c, 4, 53, 95
4, 192720, Note_on_c, 4, 46, 95
4, 192960, Note_off_c, 4, 62, 95
4, 192960, Note_off_c, 4, 58, 95
4, 192960, Note_off_c, 4, 53, 95
4, 192960, Note_off_c, 4, 46, 95
4, 192960, Note_on_c, 5, 62, 95
4, 192960, Note_on_c, 5, 58, 95
4, 192960, Note_on_c, 5, 53, 95
4, 192960, Note_on_c, 5, 46, 95
4, 193080, Pitch_bend_c, 5, 7552
4, 193080, Pitch_bend_c, 5, 7552
4, 193080, Pitch_bend_c, 5, 7552
4, 193080, Pitch_bend_c, 5, 7552
4, 193200, Pitch_bend_c, 5, 6784
4, 193200, Pitch_bend_c, 5, 8192
4, 193200, Note_off_c, 5, 62, 95
4, 193200, Pitch_bend_c, 5, 6784
4, 193200, Pitch_bend_c, 5, 8192
4, 193200, Note_off_c, 5, 58, 95
4, 193200, Pitch_bend_c, 5, 6784
4, 193200, Pitch_bend_c, 5, 8192
4, 193200, Note_off_c, 5, 53, 95
4, 193200, Pitch_bend_c, 5, 6784
4, 193200, Pitch_bend_c, 5, 8192
4, 193200, Note_off_c, 5, 46, 95
4, 193200, Note_on_c, 4, 60, 95
4, 193200, Note_on_c, 4, 56, 95
4, 193200, Note_on_c, 4, 51, 95
4, 193200, Note_on_c, 4, 44, 47
4, 193440, Note_off_c, 4, 60, 95
4, 193440, Note_off_c, 4, 56, 95
4, 193440, Note_off_c, 4, 51, 95
4, 193440, Note_off_c, 4, 44, 47
4, 193440, Note_on_c, 4, 60, 95
4, 193440, Note_on_c, 4, 56, 95
4, 193440, Note_on_c, 4, 51, 95
4, 193440, Note_on_c, 4, 44, 95
4, 193920, Note_off_c, 4, 60, 95
4, 193920, Note_off_c, 4, 56, 95
4, 193920, Note_off_c, 4, 51, 95
4, 193920, Note_off_c, 4, 44, 95
4, 193920, Note_on_c, 4, 67, 95
4, 193920, Note_on_c, 4, 63, 95
4, 193920, Note_on_c, 4, 58, 95
4, 193920, Note_on_c, 4, 53, 95
4, 193920, Note_on_c, 4, 39, 95
4, 194160, Note_off_c, 4, 67, 95
4, 194160, Note_off_c, 4, 63, 95
4, 194160, Note_off_c, 4, 58, 95
4, 194160, Note_off_c, 4, 53, 95
4, 194160, Note_off_c, 4, 39, 95
4, 194160, Note_on_c, 4, 55, 70
4, 194400, Note_off_c, 4, 55, 70
4, 194400, Note_on_c, 4, 67, 95
4, 194400, Note_on_c, 4, 63, 95
4, 194400, Note_on_c, 4, 58, 95
4, 194400, Note_on_c, 4, 55, 95
4, 194400, Note_on_c, 4, 39, 95
4, 194640, Note_off_c, 4, 67, 95
4, 194640, Note_off_c, 4, 63, 95
4, 194640, Note_off_c, 4, 58, 95
4, 194640, Note_off_c, 4, 55, 95
4, 194640, Note_off_c, 4, 39, 95
4, 194640, Note_on_c, 4, 67, 95
4, 194640, Note_on_c, 4, 63, 95
4, 194640, Note_on_c, 4, 58, 95
4, 194640, Note_on_c, 4, 55, 95
4, 194640, Note_on_c, 4, 39, 95
4, 194880, Note_off_c, 4, 67, 95
4, 194880, Note_off_c, 4, 63, 95
4, 194880, Note_off_c, 4, 58, 95
4, 194880, Note_off_c, 4, 55, 95
4, 194880, Note_off_c, 4, 39, 95
4, 194880, Note_on_c, 4, 67, 95
4, 194880, Note_on_c, 4, 63, 95
4, 194880, Note_on_c, 4, 58, 95
4, 194880, Note_on_c, 4, 55, 95
4, 194880, Note_on_c, 4, 39, 95
4, 195120, Note_off_c, 4, 67, 95
4, 195120, Note_off_c, 4, 63, 95
4, 195120, Note_off_c, 4, 58, 95
4, 195120, Note_off_c, 4, 55, 95
4, 195120, Note_off_c, 4, 39, 95
4, 195120, Note_on_c, 4, 67, 95
4, 195120, Note_on_c, 4, 63, 95
4, 195120, Note_on_c, 4, 58, 95
4, 195120, Note_on_c, 4, 55, 95
4, 195120, Note_on_c, 4, 39, 95
4, 195360, Note_off_c, 4, 67, 95
4, 195360, Note_off_c, 4, 63, 95
4, 195360, Note_off_c, 4, 58, 95
4, 195360, Note_off_c, 4, 55, 95
4, 195360, Note_off_c, 4, 39, 95
4, 195360, Note_on_c, 4, 67, 95
4, 195360, Note_on_c, 4, 63, 95
4, 195360, Note_on_c, 4, 58, 95
4, 195360, Note_on_c, 4, 55, 95
4, 195360, Note_on_c, 4, 39, 95
4, 195600, Note_off_c, 4, 67, 95
4, 195600, Note_off_c, 4, 63, 95
4, 195600, Note_off_c, 4, 58, 95
4, 195600, Note_off_c, 4, 55, 95
4, 195600, Note_off_c, 4, 39, 95
4, 195600, Note_on_c, 4, 67, 95
4, 195600, Note_on_c, 4, 63, 95
4, 195600, Note_on_c, 4, 58, 95
4, 195600, Note_on_c, 4, 55, 95
4, 195600, Note_on_c, 4, 39, 95
4, 195840, Note_off_c, 4, 67, 95
4, 195840, Note_off_c, 4, 63, 95
4, 195840, Note_off_c, 4, 58, 95
4, 195840, Note_off_c, 4, 55, 95
4, 195840, Note_off_c, 4, 39, 95
4, 195840, Note_on_c, 4, 65, 95
4, 195840, Note_on_c, 4, 60, 95
4, 195840, Note_on_c, 4, 57, 95
4, 195840, Note_on_c, 4, 53, 95
4, 195840, Note_on_c, 4, 48, 95
4, 195840, Note_on_c, 4, 41, 95
4, 196320, Note_off_c, 4, 65, 95
4, 196320, Note_off_c, 4, 60, 95
4, 196320, Note_off_c, 4, 57, 95
4, 196320, Note_off_c, 4, 53, 95
4, 196320, Note_off_c, 4, 48, 95
4, 196320, Note_off_c, 4, 41, 95
4, 196320, Note_on_c, 4, 65, 95
4, 196320, Note_on_c, 4, 60, 95
4, 196320, Note_on_c, 4, 57, 95
4, 196320, Note_on_c, 4, 53, 95
4, 196320, Note_on_c, 4, 48, 95
4, 196320, Note_on_c, 4, 41, 95
4, 196560, Note_off_c, 4, 65, 95
4, 196560, Note_off_c, 4, 60, 95
4, 196560, Note_off_c, 4, 57, 95
4, 196560, Note_off_c, 4, 53, 95
4, 196560, Note_off_c, 4, 48, 95
4, 196560, Note_off_c, 4, 41, 95
4, 196560, Note_on_c, 4, 65, 95
4, 196560, Note_on_c, 4, 60, 95
4, 196560, Note_on_c, 4, 57, 95
4, 196560, Note_on_c, 4, 53, 95
4, 196560, Note_on_c, 4, 48, 95
4, 196560, Note_on_c, 4, 41, 95
4, 196800, Note_off_c, 4, 65, 95
4, 196800, Note_off_c, 4, 60, 95
4, 196800, Note_off_c, 4, 57, 95
4, 196800, Note_off_c, 4, 53, 95
4, 196800, Note_off_c, 4, 48, 95
4, 196800, Note_off_c, 4, 41, 95
4, 196800, Note_on_c, 4, 65, 95
4, 196800, Note_on_c, 4, 60, 95
4, 196800, Note_on_c, 4, 57, 95
4, 196800, Note_on_c, 4, 53, 95
4, 196800, Note_on_c, 4, 48, 95
4, 196800, Note_on_c, 4, 41, 95
4, 197040, Note_off_c, 4, 65, 95
4, 197040, Note_off_c, 4, 60, 95
4, 197040, Note_off_c, 4, 57, 95
4, 197040, Note_off_c, 4, 53, 95
4, 197040, Note_off_c, 4, 48, 95
4, 197040, Note_off_c, 4, 41, 95
4, 197040, Note_on_c, 4, 65, 95
4, 197040, Note_on_c, 4, 60, 95
4, 197040, Note_on_c, 4, 57, 95
4, 197040, Note_on_c, 4, 53, 95
4, 197040, Note_on_c, 4, 48, 95
4, 197040, Note_on_c, 4, 41, 95
4, 197280, Note_off_c, 4, 65, 95
4, 197280, Note_off_c, 4, 60, 95
4, 197280, Note_off_c, 4, 57, 95
4, 197280, Note_off_c, 4, 53, 95
4, 197280, Note_off_c, 4, 48, 95
4, 197280, Note_off_c, 4, 41, 95
4, 197280, Note_on_c, 4, 65, 95
4, 197280, Note_on_c, 4, 60, 95
4, 197280, Note_on_c, 4, 57, 95
4, 197280, Note_on_c, 4, 53, 95
4, 197280, Note_on_c, 4, 48, 95
4, 197280, Note_on_c, 4, 41, 95
4, 197520, Note_off_c, 4, 65, 95
4, 197520, Note_off_c, 4, 60, 95
4, 197520, Note_off_c, 4, 57, 95
4, 197520, Note_off_c, 4, 53, 95
4, 197520, Note_off_c, 4, 48, 95
4, 197520, Note_off_c, 4, 41, 95
4, 197520, Note_on_c, 4, 65, 95
4, 197520, Note_on_c, 4, 60, 95
4, 197520, Note_on_c, 4, 57, 95
4, 197520, Note_on_c, 4, 53, 95
4, 197520, Note_on_c, 4, 48, 95
4, 197520, Note_on_c, 4, 41, 95
4, 197760, Note_off_c, 4, 65, 95
4, 197760, Note_off_c, 4, 60, 95
4, 197760, Note_off_c, 4, 57, 95
4, 197760, Note_off_c, 4, 53, 95
4, 197760, Note_off_c, 4, 48, 95
4, 197760, Note_off_c, 4, 41, 95
4, 197760, Note_on_c, 4, 65, 95
4, 197760, Note_on_c, 4, 60, 95
4, 197760, Note_on_c, 4, 57, 95
4, 197760, Note_on_c, 4, 53, 95
4, 197760, Note_on_c, 4, 48, 95
4, 197760, Note_on_c, 4, 41, 95
4, 198000, Note_off_c, 4, 65, 95
4, 198000, Note_off_c, 4, 60, 95
4, 198000, Note_off_c, 4, 57, 95
4, 198000, Note_off_c, 4, 53, 95
4, 198000, Note_off_c, 4, 48, 95
4, 198000, Note_off_c, 4, 41, 95
4, 198000, Note_on_c, 4, 65, 95
4, 198000, Note_on_c, 4, 60, 95
4, 198000, Note_on_c, 4, 57, 95
4, 198000, Note_on_c, 4, 53, 95
4, 198000, Note_on_c, 4, 48, 95
4, 198000, Note_on_c, 4, 41, 95
4, 198240, Note_off_c, 4, 65, 95
4, 198240, Note_off_c, 4, 60, 95
4, 198240, Note_off_c, 4, 57, 95
4, 198240, Note_off_c, 4, 53, 95
4, 198240, Note_off_c, 4, 48, 95
4, 198240, Note_off_c, 4, 41, 95
4, 198240, Note_on_c, 4, 65, 95
4, 198240, Note_on_c, 4, 60, 95
4, 198240, Note_on_c, 4, 57, 95
4, 198240, Note_on_c, 4, 53, 95
4, 198240, Note_on_c, 4, 48, 95
4, 198240, Note_on_c, 4, 41, 95
4, 198480, Note_off_c, 4, 65, 95
4, 198480, Note_off_c, 4, 60, 95
4, 198480, Note_off_c, 4, 57, 95
4, 198480, Note_off_c, 4, 53, 95
4, 198480, Note_off_c, 4, 48, 95
4, 198480, Note_off_c, 4, 41, 95
4, 198480, Note_on_c, 4, 65, 95
4, 198480, Note_on_c, 4, 60, 95
4, 198480, Note_on_c, 4, 57, 95
4, 198480, Note_on_c, 4, 53, 95
4, 198480, Note_on_c, 4, 48, 95
4, 198480, Note_on_c, 4, 41, 95
4, 198720, Note_off_c, 4, 65, 95
4, 198720, Note_off_c, 4, 60, 95
4, 198720, Note_off_c, 4, 57, 95
4, 198720, Note_off_c, 4, 53, 95
4, 198720, Note_off_c, 4, 48, 95
4, 198720, Note_off_c, 4, 41, 95
4, 198720, Note_on_c, 4, 65, 95
4, 198720, Note_on_c, 4, 60, 95
4, 198720, Note_on_c, 4, 57, 95
4, 198720, Note_on_c, 4, 53, 95
4, 198720, Note_on_c, 4, 48, 95
4, 198720, Note_on_c, 4, 41, 95
4, 198960, Note_off_c, 4, 65, 95
4, 198960, Note_off_c, 4, 60, 95
4, 198960, Note_off_c, 4, 57, 95
4, 198960, Note_off_c, 4, 53, 95
4, 198960, Note_off_c, 4, 48, 95
4, 198960, Note_off_c, 4, 41, 95
4, 198960, Note_on_c, 4, 65, 95
4, 198960, Note_on_c, 4, 60, 95
4, 198960, Note_on_c, 4, 57, 95
4, 198960, Note_on_c, 4, 53, 95
4, 198960, Note_on_c, 4, 48, 95
4, 198960, Note_on_c, 4, 41, 95
4, 199200, Note_off_c, 4, 65, 95
4, 199200, Note_off_c, 4, 60, 95
4, 199200, Note_off_c, 4, 57, 95
4, 199200, Note_off_c, 4, 53, 95
4, 199200, Note_off_c, 4, 48, 95
4, 199200, Note_off_c, 4, 41, 95
4, 199200, Note_on_c, 4, 65, 95
4, 199200, Note_on_c, 4, 60, 95
4, 199200, Note_on_c, 4, 57, 95
4, 199200, Note_on_c, 4, 53, 95
4, 199200, Note_on_c, 4, 48, 95
4, 199200, Note_on_c, 4, 41, 95
4, 199440, Note_off_c, 4, 65, 95
4, 199440, Note_off_c, 4, 60, 95
4, 199440, Note_off_c, 4, 57, 95
4, 199440, Note_off_c, 4, 53, 95
4, 199440, Note_off_c, 4, 48, 95
4, 199440, Note_off_c, 4, 41, 95
4, 199440, Note_on_c, 4, 65, 95
4, 199440, Note_on_c, 4, 60, 95
4, 199440, Note_on_c, 4, 57, 95
4, 199440, Note_on_c, 4, 53, 95
4, 199440, Note_on_c, 4, 48, 95
4, 199440, Note_on_c, 4, 41, 95
4, 199680, Note_off_c, 4, 65, 95
4, 199680, Note_off_c, 4, 60, 95
4, 199680, Note_off_c, 4, 57, 95
4, 199680, Note_off_c, 4, 53, 95
4, 199680, Note_off_c, 4, 48, 95
4, 199680, Note_off_c, 4, 41, 95
4, 199680, Note_on_c, 4, 62, 95
4, 199680, Note_on_c, 4, 58, 95
4, 199680, Note_on_c, 4, 53, 95
4, 199680, Note_on_c, 4, 46, 95
4, 200160, Note_off_c, 4, 62, 95
4, 200160, Note_off_c, 4, 58, 95
4, 200160, Note_off_c, 4, 53, 95
4, 200160, Note_off_c, 4, 46, 95
4, 200160, Note_on_c, 4, 62, 95
4, 200160, Note_on_c, 4, 58, 95
4, 200160, Note_on_c, 4, 53, 95
4, 200160, Note_on_c, 4, 46, 95
4, 200400, Note_off_c, 4, 62, 95
4, 200400, Note_off_c, 4, 58, 95
4, 200400, Note_off_c, 4, 53, 95
4, 200400, Note_off_c, 4, 46, 95
4, 200400, Note_on_c, 4, 62, 95
4, 200400, Note_on_c, 4, 58, 95
4, 200400, Note_on_c, 4, 53, 95
4, 200400, Note_on_c, 4, 46, 95
4, 200640, Note_off_c, 4, 62, 95
4, 200640, Note_off_c, 4, 58, 95
4, 200640, Note_off_c, 4, 53, 95
4, 200640, Note_off_c, 4, 46, 95
4, 200640, Note_on_c, 4, 62, 95
4, 200640, Note_on_c, 4, 58, 95
4, 200640, Note_on_c, 4, 53, 95
4, 200640, Note_on_c, 4, 46, 95
4, 200880, Note_off_c, 4, 62, 95
4, 200880, Note_off_c, 4, 58, 95
4, 200880, Note_off_c, 4, 53, 95
4, 200880, Note_off_c, 4, 46, 95
4, 200880, Note_on_c, 4, 60, 95
4, 200880, Note_on_c, 4, 56, 95
4, 200880, Note_on_c, 4, 51, 95
4, 200880, Note_on_c, 4, 44, 95
4, 201120, Note_off_c, 4, 60, 95
4, 201120, Note_off_c, 4, 56, 95
4, 201120, Note_off_c, 4, 51, 95
4, 201120, Note_off_c, 4, 44, 95
4, 201120, Note_on_c, 4, 60, 95
4, 201120, Note_on_c, 4, 56, 95
4, 201120, Note_on_c, 4, 51, 95
4, 201120, Note_on_c, 4, 44, 95
4, 201600, Note_off_c, 4, 60, 95
4, 201600, Note_off_c, 4, 56, 95
4, 201600, Note_off_c, 4, 51, 95
4, 201600, Note_off_c, 4, 44, 95
4, 201600, Note_on_c, 4, 63, 95
4, 201600, Note_on_c, 4, 58, 95
4, 201600, Note_on_c, 4, 55, 95
4, 201600, Note_on_c, 4, 51, 95
4, 201600, Note_on_c, 4, 46, 95
4, 201600, Note_on_c, 4, 39, 95
4, 202080, Note_off_c, 4, 63, 95
4, 202080, Note_off_c, 4, 58, 95
4, 202080, Note_off_c, 4, 55, 95
4, 202080, Note_off_c, 4, 51, 95
4, 202080, Note_off_c, 4, 46, 95
4, 202080, Note_off_c, 4, 39, 95
4, 202080, Note_on_c, 4, 63, 95
4, 202080, Note_on_c, 4, 58, 95
4, 202080, Note_on_c, 4, 55, 95
4, 202080, Note_on_c, 4, 51, 95
4, 202080, Note_on_c, 4, 46, 95
4, 202080, Note_on_c, 4, 39, 95
4, 202320, Note_off_c, 4, 63, 95
4, 202320, Note_off_c, 4, 58, 95
4, 202320, Note_off_c, 4, 55, 95
4, 202320, Note_off_c, 4, 51, 95
4, 202320, Note_off_c, 4, 46, 95
4, 202320, Note_off_c, 4, 39, 95
4, 202320, Note_on_c, 4, 63, 95
4, 202320, Note_on_c, 4, 58, 95
4, 202320, Note_on_c, 4, 55, 95
4, 202320, Note_on_c, 4, 51, 95
4, 202320, Note_on_c, 4, 46, 95
4, 202320, Note_on_c, 4, 39, 95
4, 202560, Note_off_c, 4, 63, 95
4, 202560, Note_off_c, 4, 58, 95
4, 202560, Note_off_c, 4, 55, 95
4, 202560, Note_off_c, 4, 51, 95
4, 202560, Note_off_c, 4, 46, 95
4, 202560, Note_off_c, 4, 39, 95
4, 202560, Note_on_c, 4, 63, 95
4, 202560, Note_on_c, 4, 58, 95
4, 202560, Note_on_c, 4, 55, 95
4, 202560, Note_on_c, 4, 51, 95
4, 202560, Note_on_c, 4, 46, 95
4, 202560, Note_on_c, 4, 39, 95
4, 202800, Note_off_c, 4, 63, 95
4, 202800, Note_off_c, 4, 58, 95
4, 202800, Note_off_c, 4, 55, 95
4, 202800, Note_off_c, 4, 51, 95
4, 202800, Note_off_c, 4, 46, 95
4, 202800, Note_off_c, 4, 39, 95
4, 202800, Note_on_c, 4, 63, 95
4, 202800, Note_on_c, 4, 58, 95
4, 202800, Note_on_c, 4, 55, 95
4, 202800, Note_on_c, 4, 51, 95
4, 202800, Note_on_c, 4, 46, 95
4, 202800, Note_on_c, 4, 39, 95
4, 203040, Note_off_c, 4, 63, 95
4, 203040, Note_off_c, 4, 58, 95
4, 203040, Note_off_c, 4, 55, 95
4, 203040, Note_off_c, 4, 51, 95
4, 203040, Note_off_c, 4, 46, 95
4, 203040, Note_off_c, 4, 39, 95
4, 203040, Note_on_c, 4, 63, 95
4, 203040, Note_on_c, 4, 58, 95
4, 203040, Note_on_c, 4, 55, 95
4, 203040, Note_on_c, 4, 51, 95
4, 203040, Note_on_c, 4, 46, 95
4, 203040, Note_on_c, 4, 39, 95
4, 203280, Note_off_c, 4, 63, 95
4, 203280, Note_off_c, 4, 58, 95
4, 203280, Note_off_c, 4, 55, 95
4, 203280, Note_off_c, 4, 51, 95
4, 203280, Note_off_c, 4, 46, 95
4, 203280, Note_off_c, 4, 39, 95
4, 203280, Note_on_c, 4, 63, 95
4, 203280, Note_on_c, 4, 58, 95
4, 203280, Note_on_c, 4, 55, 95
4, 203280, Note_on_c, 4, 51, 95
4, 203280, Note_on_c, 4, 46, 95
4, 203280, Note_on_c, 4, 39, 95
4, 203520, Note_off_c, 4, 63, 95
4, 203520, Note_off_c, 4, 58, 95
4, 203520, Note_off_c, 4, 55, 95
4, 203520, Note_off_c, 4, 51, 95
4, 203520, Note_off_c, 4, 46, 95
4, 203520, Note_off_c, 4, 39, 95
4, 203520, Note_on_c, 4, 65, 95
4, 203520, Note_on_c, 4, 60, 95
4, 203520, Note_on_c, 4, 57, 95
4, 203520, Note_on_c, 4, 53, 95
4, 203520, Note_on_c, 4, 48, 95
4, 203520, Note_on_c, 4, 41, 95
4, 203760, Note_off_c, 4, 65, 95
4, 203760, Note_off_c, 4, 60, 95
4, 203760, Note_off_c, 4, 57, 95
4, 203760, Note_off_c, 4, 53, 95
4, 203760, Note_off_c, 4, 48, 95
4, 203760, Note_off_c, 4, 41, 95
4, 203760, Note_on_c, 4, 65, 95
4, 203760, Note_on_c, 4, 60, 95
4, 203760, Note_on_c, 4, 57, 95
4, 203760, Note_on_c, 4, 53, 95
4, 203760, Note_on_c, 4, 48, 95
4, 203760, Note_on_c, 4, 41, 95
4, 204000, Note_off_c, 4, 65, 95
4, 204000, Note_off_c, 4, 60, 95
4, 204000, Note_off_c, 4, 57, 95
4, 204000, Note_off_c, 4, 53, 95
4, 204000, Note_off_c, 4, 48, 95
4, 204000, Note_off_c, 4, 41, 95
4, 204000, Note_on_c, 4, 65, 95
4, 204000, Note_on_c, 4, 60, 95
4, 204000, Note_on_c, 4, 57, 95
4, 204000, Note_on_c, 4, 53, 95
4, 204000, Note_on_c, 4, 48, 95
4, 204000, Note_on_c, 4, 41, 95
4, 204240, Note_off_c, 4, 65, 95
4, 204240, Note_off_c, 4, 60, 95
4, 204240, Note_off_c, 4, 57, 95
4, 204240, Note_off_c, 4, 53, 95
4, 204240, Note_off_c, 4, 48, 95
4, 204240, Note_off_c, 4, 41, 95
4, 204240, Note_on_c, 4, 65, 95
4, 204240, Note_on_c, 4, 60, 95
4, 204240, Note_on_c, 4, 57, 95
4, 204240, Note_on_c, 4, 53, 95
4, 204240, Note_on_c, 4, 48, 95
4, 204240, Note_on_c, 4, 41, 95
4, 204480, Note_off_c, 4, 65, 95
4, 204480, Note_off_c, 4, 60, 95
4, 204480, Note_off_c, 4, 57, 95
4, 204480, Note_off_c, 4, 53, 95
4, 204480, Note_off_c, 4, 48, 95
4, 204480, Note_off_c, 4, 41, 95
4, 204480, Note_on_c, 4, 65, 95
4, 204480, Note_on_c, 4, 60, 95
4, 204480, Note_on_c, 4, 57, 95
4, 204480, Note_on_c, 4, 53, 95
4, 204480, Note_on_c, 4, 48, 95
4, 204480, Note_on_c, 4, 41, 95
4, 204720, Note_off_c, 4, 65, 95
4, 204720, Note_off_c, 4, 60, 95
4, 204720, Note_off_c, 4, 57, 95
4, 204720, Note_off_c, 4, 53, 95
4, 204720, Note_off_c, 4, 48, 95
4, 204720, Note_off_c, 4, 41, 95
4, 204720, Note_on_c, 4, 65, 95
4, 204720, Note_on_c, 4, 60, 95
4, 204720, Note_on_c, 4, 57, 95
4, 204720, Note_on_c, 4, 53, 95
4, 204720, Note_on_c, 4, 48, 95
4, 204720, Note_on_c, 4, 41, 95
4, 204960, Note_off_c, 4, 65, 95
4, 204960, Note_off_c, 4, 60, 95
4, 204960, Note_off_c, 4, 57, 95
4, 204960, Note_off_c, 4, 53, 95
4, 204960, Note_off_c, 4, 48, 95
4, 204960, Note_off_c, 4, 41, 95
4, 204960, Note_on_c, 4, 65, 95
4, 204960, Note_on_c, 4, 60, 95
4, 204960, Note_on_c, 4, 57, 95
4, 204960, Note_on_c, 4, 53, 95
4, 204960, Note_on_c, 4, 48, 95
4, 204960, Note_on_c, 4, 41, 95
4, 205200, Note_off_c, 4, 65, 95
4, 205200, Note_off_c, 4, 60, 95
4, 205200, Note_off_c, 4, 57, 95
4, 205200, Note_off_c, 4, 53, 95
4, 205200, Note_off_c, 4, 48, 95
4, 205200, Note_off_c, 4, 41, 95
4, 205200, Note_on_c, 4, 65, 95
4, 205200, Note_on_c, 4, 60, 95
4, 205200, Note_on_c, 4, 57, 95
4, 205200, Note_on_c, 4, 53, 95
4, 205200, Note_on_c, 4, 48, 95
4, 205200, Note_on_c, 4, 41, 95
4, 205440, Note_off_c, 4, 65, 95
4, 205440, Note_off_c, 4, 60, 95
4, 205440, Note_off_c, 4, 57, 95
4, 205440, Note_off_c, 4, 53, 95
4, 205440, Note_off_c, 4, 48, 95
4, 205440, Note_off_c, 4, 41, 95
4, 205440, Note_on_c, 4, 65, 95
4, 205440, Note_on_c, 4, 60, 95
4, 205440, Note_on_c, 4, 57, 95
4, 205440, Note_on_c, 4, 53, 95
4, 205440, Note_on_c, 4, 48, 95
4, 205440, Note_on_c, 4, 41, 95
4, 205680, Note_off_c, 4, 65, 95
4, 205680, Note_off_c, 4, 60, 95
4, 205680, Note_off_c, 4, 57, 95
4, 205680, Note_off_c, 4, 53, 95
4, 205680, Note_off_c, 4, 48, 95
4, 205680, Note_off_c, 4, 41, 95
4, 205680, Note_on_c, 4, 65, 95
4, 205680, Note_on_c, 4, 60, 95
4, 205680, Note_on_c, 4, 57, 95
4, 205680, Note_on_c, 4, 53, 95
4, 205680, Note_on_c, 4, 48, 95
4, 205680, Note_on_c, 4, 41, 95
4, 205920, Note_off_c, 4, 65, 95
4, 205920, Note_off_c, 4, 60, 95
4, 205920, Note_off_c, 4, 57, 95
4, 205920, Note_off_c, 4, 53, 95
4, 205920, Note_off_c, 4, 48, 95
4, 205920, Note_off_c, 4, 41, 95
4, 205920, Note_on_c, 4, 65, 95
4, 205920, Note_on_c, 4, 60, 95
4, 205920, Note_on_c, 4, 57, 95
4, 205920, Note_on_c, 4, 53, 95
4, 205920, Note_on_c, 4, 48, 95
4, 205920, Note_on_c, 4, 41, 95
4, 206160, Note_off_c, 4, 65, 95
4, 206160, Note_off_c, 4, 60, 95
4, 206160, Note_off_c, 4, 57, 95
4, 206160, Note_off_c, 4, 53, 95
4, 206160, Note_off_c, 4, 48, 95
4, 206160, Note_off_c, 4, 41, 95
4, 206160, Note_on_c, 4, 65, 95
4, 206160, Note_on_c, 4, 60, 95
4, 206160, Note_on_c, 4, 57, 95
4, 206160, Note_on_c, 4, 53, 95
4, 206160, Note_on_c, 4, 48, 95
4, 206160, Note_on_c, 4, 41, 95
4, 206400, Note_off_c, 4, 65, 95
4, 206400, Note_off_c, 4, 60, 95
4, 206400, Note_off_c, 4, 57, 95
4, 206400, Note_off_c, 4, 53, 95
4, 206400, Note_off_c, 4, 48, 95
4, 206400, Note_off_c, 4, 41, 95
4, 206400, Note_on_c, 4, 65, 95
4, 206400, Note_on_c, 4, 60, 95
4, 206400, Note_on_c, 4, 57, 95
4, 206400, Note_on_c, 4, 53, 95
4, 206400, Note_on_c, 4, 48, 95
4, 206400, Note_on_c, 4, 41, 95
4, 206640, Note_off_c, 4, 65, 95
4, 206640, Note_off_c, 4, 60, 95
4, 206640, Note_off_c, 4, 57, 95
4, 206640, Note_off_c, 4, 53, 95
4, 206640, Note_off_c, 4, 48, 95
4, 206640, Note_off_c, 4, 41, 95
4, 206640, Note_on_c, 4, 65, 95
4, 206640, Note_on_c, 4, 60, 95
4, 206640, Note_on_c, 4, 57, 95
4, 206640, Note_on_c, 4, 53, 95
4, 206640, Note_on_c, 4, 48, 95
4, 206640, Note_on_c, 4, 41, 95
4, 206880, Note_off_c, 4, 65, 95
4, 206880, Note_off_c, 4, 60, 95
4, 206880, Note_off_c, 4, 57, 95
4, 206880, Note_off_c, 4, 53, 95
4, 206880, Note_off_c, 4, 48, 95
4, 206880, Note_off_c, 4, 41, 95
4, 206880, Note_on_c, 4, 65, 95
4, 206880, Note_on_c, 4, 60, 95
4, 206880, Note_on_c, 4, 57, 95
4, 206880, Note_on_c, 4, 53, 95
4, 206880, Note_on_c, 4, 48, 95
4, 206880, Note_on_c, 4, 41, 95
4, 206919, Note_off_c, 4, 65, 95
4, 206919, Note_off_c, 4, 60, 95
4, 206919, Note_off_c, 4, 57, 95
4, 206919, Note_off_c, 4, 53, 95
4, 206919, Note_off_c, 4, 48, 95
4, 206919, Note_off_c, 4, 41, 95
4, 207120, Note_on_c, 4, 65, 95
4, 207120, Note_on_c, 4, 60, 95
4, 207120, Note_on_c, 4, 57, 95
4, 207120, Note_on_c, 4, 53, 95
4, 207120, Note_on_c, 4, 48, 95
4, 207120, Note_on_c, 4, 41, 95
4, 207159, Note_off_c, 4, 65, 95
4, 207159, Note_off_c, 4, 60, 95
4, 207159, Note_off_c, 4, 57, 95
4, 207159, Note_off_c, 4, 53, 95
4, 207159, Note_off_c, 4, 48, 95
4, 207159, Note_off_c, 4, 41, 95
4, 207360, Note_on_c, 4, 62, 95
4, 207360, Note_on_c, 4, 58, 95
4, 207360, Note_on_c, 4, 53, 95
4, 207360, Note_on_c, 4, 46, 95
4, 207360, Note_on_c, 4, 41, 95
4, 207840, Note_off_c, 4, 62, 95
4, 207840, Note_off_c, 4, 58, 95
4, 207840, Note_off_c, 4, 53, 95
4, 207840, Note_off_c, 4, 46, 95
4, 207840, Note_off_c, 4, 41, 95
4, 207840, Note_on_c, 4, 62, 95
4, 207840, Note_on_c, 4, 58, 95
4, 207840, Note_on_c, 4, 53, 95
4, 207840, Note_on_c, 4, 46, 95
4, 207840, Note_on_c, 4, 41, 95
4, 208080, Note_off_c, 4, 62, 95
4, 208080, Note_off_c, 4, 58, 95
4, 208080, Note_off_c, 4, 53, 95
4, 208080, Note_off_c, 4, 46, 95
4, 208080, Note_off_c, 4, 41, 95
4, 208080, Note_on_c, 4, 62, 95
4, 208080, Note_on_c, 4, 58, 95
4, 208080, Note_on_c, 4, 53, 95
4, 208080, Note_on_c, 4, 46, 95
4, 208080, Note_on_c, 4, 41, 95
4, 208320, Note_off_c, 4, 62, 95
4, 208320, Note_off_c, 4, 58, 95
4, 208320, Note_off_c, 4, 53, 95
4, 208320, Note_off_c, 4, 46, 95
4, 208320, Note_off_c, 4, 41, 95
4, 208320, Note_on_c, 4, 62, 95
4, 208320, Note_on_c, 4, 58, 95
4, 208320, Note_on_c, 4, 53, 95
4, 208320, Note_on_c, 4, 46, 95
4, 208320, Note_on_c, 4, 41, 95
4, 208800, Note_off_c, 4, 62, 95
4, 208800, Note_off_c, 4, 58, 95
4, 208800, Note_off_c, 4, 53, 95
4, 208800, Note_off_c, 4, 46, 95
4, 208800, Note_off_c, 4, 41, 95
4, 208800, Note_on_c, 4, 62, 95
4, 208800, Note_on_c, 4, 58, 95
4, 208800, Note_on_c, 4, 53, 95
4, 208800, Note_on_c, 4, 46, 95
4, 208800, Note_on_c, 4, 41, 95
4, 209280, Note_off_c, 4, 62, 95
4, 209280, Note_off_c, 4, 58, 95
4, 209280, Note_off_c, 4, 53, 95
4, 209280, Note_off_c, 4, 46, 95
4, 209280, Note_off_c, 4, 41, 95
4, 209280, Note_on_c, 4, 67, 95
4, 209280, Note_on_c, 4, 63, 95
4, 209280, Note_on_c, 4, 58, 95
4, 209280, Note_on_c, 4, 51, 95
4, 209280, Note_on_c, 4, 39, 95
4, 209760, Note_off_c, 4, 67, 95
4, 209760, Note_off_c, 4, 63, 95
4, 209760, Note_off_c, 4, 58, 95
4, 209760, Note_off_c, 4, 51, 95
4, 209760, Note_off_c, 4, 39, 95
4, 209760, Note_on_c, 4, 67, 95
4, 209760, Note_on_c, 4, 63, 95
4, 209760, Note_on_c, 4, 58, 95
4, 209760, Note_on_c, 4, 51, 95
4, 209760, Note_on_c, 4, 39, 95
4, 210000, Note_off_c, 4, 67, 95
4, 210000, Note_off_c, 4, 63, 95
4, 210000, Note_off_c, 4, 58, 95
4, 210000, Note_off_c, 4, 51, 95
4, 210000, Note_off_c, 4, 39, 95
4, 210000, Note_on_c, 4, 67, 95
4, 210000, Note_on_c, 4, 63, 95
4, 210000, Note_on_c, 4, 58, 95
4, 210000, Note_on_c, 4, 51, 95
4, 210000, Note_on_c, 4, 39, 95
4, 210240, Note_off_c, 4, 67, 95
4, 210240, Note_off_c, 4, 63, 95
4, 210240, Note_off_c, 4, 58, 95
4, 210240, Note_off_c, 4, 51, 95
4, 210240, Note_off_c, 4, 39, 95
4, 210240, Note_on_c, 4, 67, 95
4, 210240, Note_on_c, 4, 63, 95
4, 210240, Note_on_c, 4, 58, 95
4, 210240, Note_on_c, 4, 51, 95
4, 210240, Note_on_c, 4, 39, 95
4, 210720, Note_off_c, 4, 67, 95
4, 210720, Note_off_c, 4, 63, 95
4, 210720, Note_off_c, 4, 58, 95
4, 210720, Note_off_c, 4, 51, 95
4, 210720, Note_off_c, 4, 39, 95
4, 210720, Note_on_c, 5, 67, 95
4, 210720, Note_on_c, 5, 63, 95
4, 210720, Note_on_c, 5, 58, 95
4, 210720, Note_on_c, 5, 51, 95
4, 210840, Pitch_bend_c, 5, 8832
4, 210840, Pitch_bend_c, 5, 8832
4, 210840, Pitch_bend_c, 5, 8832
4, 210840, Pitch_bend_c, 5, 8832
4, 210960, Pitch_bend_c, 5, 9600
4, 210960, Pitch_bend_c, 5, 8192
4, 210960, Note_off_c, 5, 67, 95
4, 210960, Pitch_bend_c, 5, 9600
4, 210960, Pitch_bend_c, 5, 8192
4, 210960, Note_off_c, 5, 63, 95
4, 210960, Pitch_bend_c, 5, 9600
4, 210960, Pitch_bend_c, 5, 8192
4, 210960, Note_off_c, 5, 58, 95
4, 210960, Pitch_bend_c, 5, 9600
4, 210960, Pitch_bend_c, 5, 8192
4, 210960, Note_off_c, 5, 51, 95
4, 210960, Note_on_c, 4, 69, 95
4, 210960, Note_on_c, 4, 65, 95
4, 210960, Note_on_c, 4, 60, 95
4, 210960, Note_on_c, 4, 53, 95
4, 211200, Note_off_c, 4, 69, 95
4, 211200, Note_off_c, 4, 65, 95
4, 211200, Note_off_c, 4, 60, 95
4, 211200, Note_off_c, 4, 53, 95
4, 211200, Note_on_c, 4, 69, 95
4, 211200, Note_on_c, 4, 65, 95
4, 211200, Note_on_c, 4, 60, 95
4, 211200, Note_on_c, 4, 53, 95
4, 211680, Note_off_c, 4, 69, 95
4, 211680, Note_off_c, 4, 65, 95
4, 211680, Note_off_c, 4, 60, 95
4, 211680, Note_off_c, 4, 53, 95
4, 211680, Note_on_c, 4, 69, 95
4, 211680, Note_on_c, 4, 65, 95
4, 211680, Note_on_c, 4, 60, 95
4, 211680, Note_on_c, 4, 53, 95
4, 211920, Note_off_c, 4, 69, 95
4, 211920, Note_off_c, 4, 65, 95
4, 211920, Note_off_c, 4, 60, 95
4, 211920, Note_off_c, 4, 53, 95
4, 211920, Note_on_c, 4, 69, 95
4, 211920, Note_on_c, 4, 65, 95
4, 211920, Note_on_c, 4, 60, 95
4, 211920, Note_on_c, 4, 53, 95
4, 212160, Note_off_c, 4, 69, 95
4, 212160, Note_off_c, 4, 65, 95
4, 212160, Note_off_c, 4, 60, 95
4, 212160, Note_off_c, 4, 53, 95
4, 212160, Note_on_c, 4, 69, 95
4, 212160, Note_on_c, 4, 65, 95
4, 212160, Note_on_c, 4, 60, 95
4, 212160, Note_on_c, 4, 53, 95
4, 212400, Note_off_c, 4, 69, 95
4, 212400, Note_off_c, 4, 65, 95
4, 212400, Note_off_c, 4, 60, 95
4, 212400, Note_off_c, 4, 53, 95
4, 212400, Note_on_c, 4, 69, 95
4, 212400, Note_on_c, 4, 65, 95
4, 212400, Note_on_c, 4, 60, 95
4, 212400, Note_on_c, 4, 53, 95
4, 212640, Note_off_c, 4, 69, 95
4, 212640, Note_off_c, 4, 65, 95
4, 212640, Note_off_c, 4, 60, 95
4, 212640, Note_off_c, 4, 53, 95
4, 212640, Note_on_c, 4, 69, 95
4, 212640, Note_on_c, 4, 65, 95
4, 212640, Note_on_c, 4, 60, 95
4, 212640, Note_on_c, 4, 53, 95
4, 212880, Note_off_c, 4, 69, 95
4, 212880, Note_off_c, 4, 65, 95
4, 212880, Note_off_c, 4, 60, 95
4, 212880, Note_off_c, 4, 53, 95
4, 212880, Note_on_c, 4, 69, 95
4, 212880, Note_on_c, 4, 65, 95
4, 212880, Note_on_c, 4, 60, 95
4, 212880, Note_on_c, 4, 53, 95
4, 213120, Note_off_c, 4, 69, 95
4, 213120, Note_off_c, 4, 65, 95
4, 213120, Note_off_c, 4, 60, 95
4, 213120, Note_off_c, 4, 53, 95
4, 213120, Note_on_c, 4, 69, 95
4, 213120, Note_on_c, 4, 65, 95
4, 213120, Note_on_c, 4, 60, 95
4, 213120, Note_on_c, 4, 53, 95
4, 213360, Note_off_c, 4, 69, 95
4, 213360, Note_off_c, 4, 65, 95
4, 213360, Note_off_c, 4, 60, 95
4, 213360, Note_off_c, 4, 53, 95
4, 213360, Note_on_c, 4, 69, 95
4, 213360, Note_on_c, 4, 65, 95
4, 213360, Note_on_c, 4, 60, 95
4, 213360, Note_on_c, 4, 53, 95
4, 213600, Note_off_c, 4, 69, 95
4, 213600, Note_off_c, 4, 65, 95
4, 213600, Note_off_c, 4, 60, 95
4, 213600, Note_off_c, 4, 53, 95
4, 213600, Note_on_c, 4, 69, 95
4, 213600, Note_on_c, 4, 65, 95
4, 213600, Note_on_c, 4, 60, 95
4, 213600, Note_on_c, 4, 53, 95
4, 213840, Note_off_c, 4, 69, 95
4, 213840, Note_off_c, 4, 65, 95
4, 213840, Note_off_c, 4, 60, 95
4, 213840, Note_off_c, 4, 53, 95
4, 213840, Note_on_c, 4, 69, 95
4, 213840, Note_on_c, 4, 65, 95
4, 213840, Note_on_c, 4, 60, 95
4, 213840, Note_on_c, 4, 53, 95
4, 214080, Note_off_c, 4, 69, 95
4, 214080, Note_off_c, 4, 65, 95
4, 214080, Note_off_c, 4, 60, 95
4, 214080, Note_off_c, 4, 53, 95
4, 214080, Note_on_c, 4, 69, 95
4, 214080, Note_on_c, 4, 65, 95
4, 214080, Note_on_c, 4, 60, 95
4, 214080, Note_on_c, 4, 53, 95
4, 214320, Note_off_c, 4, 69, 95
4, 214320, Note_off_c, 4, 65, 95
4, 214320, Note_off_c, 4, 60, 95
4, 214320, Note_off_c, 4, 53, 95
4, 214320, Note_on_c, 4, 69, 95
4, 214320, Note_on_c, 4, 65, 95
4, 214320, Note_on_c, 4, 60, 95
4, 214320, Note_on_c, 4, 53, 95
4, 214560, Note_off_c, 4, 69, 95
4, 214560, Note_off_c, 4, 65, 95
4, 214560, Note_off_c, 4, 60, 95
4, 214560, Note_off_c, 4, 53, 95
4, 214560, Note_on_c, 4, 58, 95
4, 214560, Note_on_c, 4, 54, 95
4, 214560, Note_on_c, 4, 49, 95
4, 214560, Note_on_c, 4, 44, 95
4, 214599, Note_off_c, 4, 58, 95
4, 214599, Note_off_c, 4, 54, 95
4, 214599, Note_off_c, 4, 49, 95
4, 214599, Note_off_c, 4, 44, 95
4, 214800, Note_on_c, 4, 58, 95
4, 214800, Note_on_c, 4, 54, 95
4, 214800, Note_on_c, 4, 49, 95
4, 214800, Note_on_c, 4, 44, 95
4, 214839, Note_off_c, 4, 58, 95
4, 214839, Note_off_c, 4, 54, 95
4, 214839, Note_off_c, 4, 49, 95
4, 214839, Note_off_c, 4, 44, 95
4, 214920, Note_on_c, 5, 63, 79
4, 214920, Note_on_c, 5, 58, 79
4, 215040, Note_off_c, 5, 63, 79
4, 215040, Note_on_c, 5, 65, 95
4, 215040, Note_off_c, 5, 58, 79
4, 215040, Note_on_c, 5, 60, 95
4, 215520, Note_off_c, 5, 65, 95
4, 215520, Note_off_c, 5, 60, 95
4, 215520, Note_on_c, 4, 67, 95
4, 216000, Note_off_c, 4, 67, 95
4, 216000, Note_on_c, 4, 72, 95
4, 216480, Note_off_c, 4, 72, 95
4, 216480, Note_on_c, 4, 65, 95
4, 216960, Note_off_c, 4, 65, 95
4, 216960, Note_on_c, 4, 72, 95
4, 216960, Note_on_c, 4, 67, 95
4, 217200, Note_off_c, 4, 72, 95
4, 217200, Note_off_c, 4, 67, 95
4, 217200, Note_on_c, 4, 69, 70
4, 217440, Note_off_c, 4, 69, 70
4, 217440, Note_on_c, 4, 72, 95
4, 217440, Note_on_c, 4, 67, 95
4, 217680, Note_off_c, 4, 72, 95
4, 217680, Note_off_c, 4, 67, 95
4, 217680, Note_on_c, 4, 67, 95
4, 217920, Note_off_c, 4, 67, 95
4, 217920, Note_on_c, 4, 69, 70
4, 218160, Note_off_c, 4, 69, 70
4, 218160, Note_on_c, 4, 72, 95
4, 218160, Note_on_c, 4, 69, 95
4, 218400, Note_off_c, 4, 72, 95
4, 218400, Note_off_c, 4, 69, 95
4, 218400, Note_on_c, 4, 72, 95
4, 218400, Note_on_c, 4, 69, 95
4, 218880, Note_off_c, 4, 72, 95
4, 218880, Note_off_c, 4, 69, 95
4, 218880, Note_on_c, 4, 72, 95
4, 218880, Note_on_c, 4, 67, 95
4, 219120, Note_off_c, 4, 72, 95
4, 219120, Note_off_c, 4, 67, 95
4, 219120, Note_on_c, 4, 69, 70
4, 219360, Note_off_c, 4, 69, 70
4, 219360, Note_on_c, 4, 72, 95
4, 219360, Note_on_c, 4, 67, 95
4, 219600, Note_off_c, 4, 72, 95
4, 219600, Note_off_c, 4, 67, 95
4, 219600, Note_on_c, 4, 69, 70
4, 219840, Note_off_c, 4, 69, 70
4, 219840, Note_on_c, 4, 72, 95
4, 219840, Note_on_c, 4, 67, 95
4, 220080, Note_off_c, 4, 72, 95
4, 220080, Note_off_c, 4, 67, 95
4, 220080, Note_on_c, 4, 69, 70
4, 220320, Note_off_c, 4, 69, 70
4, 220320, Note_on_c, 4, 72, 95
4, 220320, Note_on_c, 4, 67, 95
4, 220560, Note_off_c, 4, 72, 95
4, 220560, Note_off_c, 4, 67, 95
4, 220560, Note_on_c, 4, 65, 95
4, 220800, Note_off_c, 4, 65, 95
4, 220800, Note_on_c, 4, 72, 95
4, 220800, Note_on_c, 4, 67, 95
4, 221280, Note_off_c, 4, 72, 95
4, 221280, Note_off_c, 4, 67, 95
4, 221280, Note_on_c, 4, 65, 95
4, 221760, Note_off_c, 4, 65, 95
4, 221760, Note_on_c, 4, 41, 95
4, 222000, Note_off_c, 4, 41, 95
4, 222000, Note_on_c, 4, 43, 70
4, 222240, Note_off_c, 4, 43, 70
4, 222240, Note_on_c, 4, 46, 95
4, 222480, Note_off_c, 4, 46, 95
4, 222480, Note_on_c, 4, 43, 95
4, 222720, Note_off_c, 4, 43, 95
4, 222720, Note_on_c, 4, 46, 95
4, 224640, Note_off_c, 4, 46, 95
4, 224640, Note_on_c, 4, 48, 95
4, 225120, Note_off_c, 4, 48, 95
4, 225120, Note_on_c, 4, 55, 47
4, 225600, Note_off_c, 4, 55, 47
4, 225600, Note_on_c, 4, 63, 95
4, 225760, Note_off_c, 4, 63, 95
4, 225760, Note_on_c, 4, 65, 70
4, 225920, Note_off_c, 4, 65, 70
4, 225920, Note_on_c, 4, 63, 70
4, 226080, Note_off_c, 4, 63, 70
4, 226080, Note_on_c, 4, 58, 95
4, 226320, Note_off_c, 4, 58, 95
4, 226320, Note_on_c, 4, 48, 95
4, 226560, Note_off_c, 4, 48, 95
4, 226560, Note_on_c, 4, 50, 70
4, 228480, Note_off_c, 4, 50, 70
4, 228480, Note_on_c, 4, 39, 95
4, 229200, Note_off_c, 4, 39, 95
4, 229200, Note_on_c, 4, 58, 95
4, 229200, Note_on_c, 4, 53, 95
4, 229440, Note_off_c, 4, 58, 95
4, 229440, Note_off_c, 4, 53, 95
4, 229440, Note_on_c, 4, 55, 70
4, 229680, Note_off_c, 4, 55, 70
4, 229680, Note_on_c, 4, 58, 47
4, 229920, Note_off_c, 4, 58, 47
4, 229920, Note_on_c, 5, 60, 95
4, 229920, Note_on_c, 5, 55, 95
4, 230040, Pitch_bend_c, 5, 8832
4, 230040, Pitch_bend_c, 5, 8832
4, 230160, Pitch_bend_c, 5, 9600
4, 230160, Pitch_bend_c, 5, 8192
4, 230160, Note_off_c, 5, 60, 95
4, 230160, Pitch_bend_c, 5, 9600
4, 230160, Pitch_bend_c, 5, 8192
4, 230160, Note_off_c, 5, 55, 95
4, 230160, Note_on_c, 4, 62, 95
4, 230160, Note_on_c, 4, 57, 95
4, 230400, Note_off_c, 4, 62, 95
4, 230400, Note_off_c, 4, 57, 95
4, 230400, Note_on_c, 4, 60, 95
4, 230400, Note_on_c, 4, 57, 95
4, 230400, Note_on_c, 4, 53, 95
4, 230880, Note_off_c, 4, 60, 95
4, 230880, Note_off_c, 4, 57, 95
4, 230880, Note_off_c, 4, 53, 95
4, 230880, Note_on_c, 4, 53, 95
4, 231120, Note_off_c, 4, 53, 95
4, 231120, Note_on_c, 4, 53, 95
4, 231360, Note_off_c, 4, 53, 95
4, 231360, Note_on_c, 4, 41, 95
4, 231600, Note_off_c, 4, 41, 95
4, 231600, Note_on_c, 4, 53, 95
4, 232080, Note_off_c, 4, 53, 95
4, 232080, Note_on_c, 4, 41, 95
4, 232320, Note_off_c, 4, 41, 95
4, 232320, Note_on_c, 4, 53, 95
4, 232800, Note_off_c, 4, 53, 95
4, 232800, Note_on_c, 4, 41, 95
4, 233040, Note_off_c, 4, 41, 95
4, 233040, Note_on_c, 4, 48, 95
4, 233520, Note_off_c, 4, 48, 95
4, 233520, Note_on_c, 4, 41, 95
4, 233760, Note_off_c, 4, 41, 95
4, 233760, Note_on_c, 4, 41, 95
4, 234000, Note_off_c, 4, 41, 95
4, 234000, Note_on_c, 4, 41, 47
4, 234120, Note_on_c, 5, 56, 79
4, 234240, Note_off_c, 4, 41, 47
4, 234240, Note_off_c, 5, 56, 79
4, 234240, Note_on_c, 5, 57, 95
4, 234480, Note_off_c, 5, 57, 95
4, 234480, Note_on_c, 4, 65, 95
4, 234720, Note_off_c, 4, 65, 95
4, 234720, Note_on_c, 4, 55, 95
4, 234960, Note_off_c, 4, 55, 95
4, 234960, Note_on_c, 4, 63, 95
4, 235200, Note_off_c, 4, 63, 95
4, 235200, Note_on_c, 4, 53, 95
4, 235440, Note_off_c, 4, 53, 95
4, 235440, Note_on_c, 4, 62, 95
4, 235680, Note_off_c, 4, 62, 95
4, 235680, Note_on_c, 4, 51, 95
4, 235920, Note_off_c, 4, 51, 95
4, 235920, Note_on_c, 4, 60, 95
4, 236160, Note_off_c, 4, 60, 95
4, 236160, Note_on_c, 4, 50, 95
4, 236400, Note_off_c, 4, 50, 95
4, 236400, Note_on_c, 4, 58, 95
4, 236640, Note_off_c, 4, 58, 95
4, 236640, Note_on_c, 4, 50, 95
4, 236880, Note_off_c, 4, 50, 95
4, 236880, Note_on_c, 4, 58, 95
4, 237120, Note_off_c, 4, 58, 95
4, 237120, Note_on_c, 4, 57, 95
4, 237120, Note_on_c, 4, 48, 95
4, 237360, Note_off_c, 4, 57, 95
4, 237360, Note_off_c, 4, 48, 95
4, 237360, Note_on_c, 4, 54, 95
4, 237399, Note_off_c, 4, 54, 95
4, 237600, Note_on_c, 4, 46, 95
4, 237840, Note_off_c, 4, 46, 95
4, 237840, Note_on_c, 4, 48, 70
4, 238080, Note_off_c, 4, 48, 70
4, 238080, Note_on_c, 4, 46, 95
4, 239040, Note_off_c, 4, 46, 95
4, 239040, Note_on_c, 4, 53, 95
4, 239520, Note_off_c, 4, 53, 95
4, 239520, Note_on_c, 4, 46, 47
4, 240000, Note_off_c, 4, 46, 47
4, 240000, Note_on_c, 4, 48, 95
4, 240480, Note_off_c, 4, 48, 95
4, 240480, Note_on_c, 4, 55, 95
4, 240960, Note_off_c, 4, 55, 95
4, 240960, Note_on_c, 4, 63, 95
4, 241120, Note_off_c, 4, 63, 95
4, 241120, Note_on_c, 4, 65, 70
4, 241280, Note_off_c, 4, 65, 70
4, 241280, Note_on_c, 4, 63, 70
4, 241440, Note_off_c, 4, 63, 70
4, 241440, Note_on_c, 4, 48, 95
4, 241680, Note_off_c, 4, 48, 95
4, 241680, Note_on_c, 4, 49, 95
4, 241920, Note_off_c, 4, 49, 95
4, 241920, Note_on_c, 4, 50, 95
4, 242880, Note_off_c, 4, 50, 95
4, 242880, Note_on_c, 4, 57, 95
4, 243360, Note_off_c, 4, 57, 95
4, 243360, Note_on_c, 4, 50, 95
4, 243840, Note_off_c, 4, 50, 95
4, 243840, Note_on_c, 4, 39, 95
4, 244320, Note_off_c, 4, 39, 95
4, 244320, Note_on_c, 4, 51, 95
4, 244800, Note_off_c, 4, 51, 95
4, 244800, Note_on_c, 4, 41, 95
4, 245040, Note_off_c, 4, 41, 95
4, 245040, Note_on_c, 4, 43, 70
4, 245280, Note_off_c, 4, 43, 70
4, 245280, Note_on_c, 4, 46, 95
4, 245520, Note_off_c, 4, 46, 95
4, 245520, Note_on_c, 4, 48, 70
4, 245760, Note_off_c, 4, 48, 70
4, 245760, Note_on_c, 4, 41, 95
4, 246240, Note_off_c, 4, 41, 95
4, 246240, Note_on_c, 4, 53, 95
4, 246480, Note_off_c, 4, 53, 95
4, 246480, Note_on_c, 4, 57, 95
4, 246480, Note_on_c, 4, 53, 95
4, 247200, Note_off_c, 4, 57, 95
4, 247200, Note_off_c, 4, 53, 95
4, 247200, Note_on_c, 4, 53, 95
4, 247680, Note_off_c, 4, 53, 95
4, 247680, Note_on_c, 4, 41, 95
4, 248160, Note_off_c, 4, 41, 95
4, 248160, Note_on_c, 4, 53, 95
4, 248400, Note_off_c, 4, 53, 95
4, 248400, Note_on_c, 4, 57, 95
4, 248400, Note_on_c, 4, 53, 95
4, 248880, Note_off_c, 4, 57, 95
4, 248880, Note_off_c, 4, 53, 95
4, 248880, Note_on_c, 4, 53, 95
4, 249120, Note_off_c, 4, 53, 95
4, 249120, Note_on_c, 4, 41, 95
4, 249360, Note_off_c, 4, 41, 95
4, 249360, Note_on_c, 4, 57, 95
4, 249600, Note_off_c, 4, 57, 95
4, 249600, Note_on_c, 5, 67, 95
4, 249600, Note_on_c, 5, 55, 95
4, 249720, Pitch_bend_c, 5, 7552
4, 249720, Pitch_bend_c, 5, 7552
4, 249840, Pitch_bend_c, 5, 6784
4, 249840, Pitch_bend_c, 5, 8192
4, 249840, Note_off_c, 5, 67, 95
4, 249840, Pitch_bend_c, 5, 6784
4, 249840, Pitch_bend_c, 5, 8192
4, 249840, Note_off_c, 5, 55, 95
4, 249840, Note_on_c, 4, 65, 95
4, 249840, Note_on_c, 4, 53, 95
4, 250080, Note_off_c, 4, 65, 95
4, 250080, Note_off_c, 4, 53, 95
4, 250080, Note_on_c, 4, 65, 95
4, 250080, Note_on_c, 4, 53, 95
4, 250320, Note_off_c, 4, 65, 95
4, 250320, Note_off_c, 4, 53, 95
4, 250320, Note_on_c, 4, 65, 95
4, 250320, Note_on_c, 4, 53, 95
4, 250560, Note_off_c, 4, 65, 95
4, 250560, Note_off_c, 4, 53, 95
4, 250560, Note_on_c, 5, 65, 95
4, 250560, Note_on_c, 5, 53, 95
4, 250680, Pitch_bend_c, 5, 7552
4, 250680, Pitch_bend_c, 5, 7552
4, 250800, Pitch_bend_c, 5, 6784
4, 250800, Pitch_bend_c, 5, 8192
4, 250800, Note_off_c, 5, 65, 95
4, 250800, Pitch_bend_c, 5, 6784
4, 250800, Pitch_bend_c, 5, 8192
4, 250800, Note_off_c, 5, 53, 95
4, 250800, Note_on_c, 4, 63, 95
4, 250800, Note_on_c, 4, 51, 95
4, 251040, Note_off_c, 4, 63, 95
4, 251040, Note_off_c, 4, 51, 95
4, 251040, Note_on_c, 4, 63, 95
4, 251040, Note_on_c, 4, 51, 95
4, 251280, Note_off_c, 4, 63, 95
4, 251280, Note_off_c, 4, 51, 95
4, 251280, Note_on_c, 4, 63, 95
4, 251280, Note_on_c, 4, 51, 95
4, 251520, Note_off_c, 4, 63, 95
4, 251520, Note_off_c, 4, 51, 95
4, 251520, Note_on_c, 5, 63, 95
4, 251520, Note_on_c, 5, 51, 95
4, 251640, Pitch_bend_c, 5, 8832
4, 251640, Pitch_bend_c, 5, 8832
4, 251760, Pitch_bend_c, 5, 9600
4, 251760, Pitch_bend_c, 5, 8192
4, 251760, Note_off_c, 5, 63, 95
4, 251760, Pitch_bend_c, 5, 9600
4, 251760, Pitch_bend_c, 5, 8192
4, 251760, Note_off_c, 5, 51, 95
4, 251760, Note_on_c, 4, 65, 95
4, 251760, Note_on_c, 4, 53, 95
4, 252000, Note_off_c, 4, 65, 95
4, 252000, Note_off_c, 4, 53, 95
4, 252000, Note_on_c, 4, 65, 95
4, 252000, Note_on_c, 4, 53, 95
4, 252240, Note_off_c, 4, 65, 95
4, 252240, Note_off_c, 4, 53, 95
4, 252240, Note_on_c, 4, 65, 95
4, 252240, Note_on_c, 4, 53, 95
4, 252480, Note_off_c, 4, 65, 95
4, 252480, Note_off_c, 4, 53, 95
4, 252480, Note_on_c, 4, 65, 95
4, 252480, Note_on_c, 4, 60, 95
4, 252480, Note_on_c, 4, 53, 95
4, 252720, Note_off_c, 4, 65, 95
4, 252720, Note_off_c, 4, 60, 95
4, 252720, Note_off_c, 4, 53, 95
4, 252720, Note_on_c, 4, 69, 95
4, 252720, Note_on_c, 4, 65, 95
4, 252720, Note_on_c, 4, 60, 95
4, 252720, Note_on_c, 4, 53, 95
4, 252960, Note_off_c, 4, 69, 95
4, 252960, Note_off_c, 4, 65, 95
4, 252960, Note_off_c, 4, 60, 95
4, 252960, Note_off_c, 4, 53, 95
4, 252960, Note_on_c, 4, 69, 95
4, 252960, Note_on_c, 4, 65, 95
4, 252960, Note_on_c, 4, 60, 95
4, 252960, Note_on_c, 4, 53, 95
4, 253200, Note_off_c, 4, 69, 95
4, 253200, Note_off_c, 4, 65, 95
4, 253200, Note_off_c, 4, 60, 95
4, 253200, Note_off_c, 4, 53, 95
4, 253200, Note_on_c, 4, 58, 95
4, 253200, Note_on_c, 4, 54, 95
4, 253200, Note_on_c, 4, 49, 95
4, 253200, Note_on_c, 4, 44, 95
4, 253239, Note_off_c, 4, 58, 95
4, 253239, Note_off_c, 4, 54, 95
4, 253239, Note_off_c, 4, 49, 95
4, 253239, Note_off_c, 4, 44, 95
4, 253440, Note_on_c, 4, 39, 95
4, 254160, Note_off_c, 4, 39, 95
4, 254160, Note_on_c, 4, 51, 95
4, 254400, Note_off_c, 4, 51, 95
4, 254400, Note_on_c, 4, 51, 95
4, 254400, Note_on_c, 4, 46, 95
4, 254400, Note_on_c, 4, 39, 95
4, 254880, Note_off_c, 4, 51, 95
4, 254880, Note_off_c, 4, 46, 95
4, 254880, Note_off_c, 4, 39, 95
4, 254880, Note_on_c, 4, 46, 95
4, 255360, Note_off_c, 4, 46, 95
4, 255360, Note_on_c, 4, 39, 95
4, 255840, Note_off_c, 4, 39, 95
4, 255840, Note_on_c, 4, 39, 95
4, 256080, Note_off_c, 4, 39, 95
4, 256080, Note_on_c, 4, 58, 95
4, 256080, Note_on_c, 4, 53, 95
4, 256320, Note_off_c, 4, 58, 95
4, 256320, Note_off_c, 4, 53, 95
4, 256320, Note_on_c, 4, 55, 70
4, 256560, Note_off_c, 4, 55, 70
4, 256560, Note_on_c, 4, 55, 95
4, 256800, Note_off_c, 4, 55, 95
4, 256800, Note_on_c, 4, 51, 95
4, 257040, Note_off_c, 4, 51, 95
4, 257040, Note_on_c, 4, 53, 70
4, 257280, Note_off_c, 4, 53, 70
4, 257280, Note_on_c, 4, 53, 95
4, 257760, Note_off_c, 4, 53, 95
4, 257760, Note_on_c, 4, 53, 95
4, 258240, Note_off_c, 4, 53, 95
4, 258240, Note_on_c, 4, 65, 95
4, 258240, Note_on_c, 4, 60, 95
4, 258240, Note_on_c, 4, 53, 95
4, 258480, Note_off_c, 4, 65, 95
4, 258480, Note_off_c, 4, 60, 95
4, 258480, Note_off_c, 4, 53, 95
4, 258480, Note_on_c, 4, 54, 95
4, 258480, Note_on_c, 4, 49, 95
4, 258519, Note_off_c, 4, 54, 95
4, 258519, Note_off_c, 4, 49, 95
4, 258720, Note_on_c, 4, 57, 95
4, 258720, Note_on_c, 4, 53, 95
4, 258960, Note_off_c, 4, 57, 95
4, 258960, Note_off_c, 4, 53, 95
4, 258960, Note_on_c, 4, 57, 95
4, 258960, Note_on_c, 4, 53, 95
4, 259200, Note_off_c, 4, 57, 95
4, 259200, Note_off_c, 4, 53, 95
4, 259200, Note_on_c, 4, 57, 95
4, 259200, Note_on_c, 4, 53, 95
4, 259440, Note_off_c, 4, 57, 95
4, 259440, Note_off_c, 4, 53, 95
4, 259440, Note_on_c, 4, 58, 70
4, 259440, Note_on_c, 4, 53, 95
4, 259680, Note_off_c, 4, 58, 70
4, 259680, Note_off_c, 4, 53, 95
4, 259680, Note_on_c, 4, 58, 95
4, 259680, Note_on_c, 4, 53, 95
4, 259920, Note_off_c, 4, 58, 95
4, 259920, Note_off_c, 4, 53, 95
4, 259920, Note_on_c, 4, 57, 95
4, 259920, Note_on_c, 4, 53, 95
4, 260160, Note_off_c, 4, 57, 95
4, 260160, Note_off_c, 4, 53, 95
4, 260160, Note_on_c, 4, 62, 95
4, 260160, Note_on_c, 4, 57, 95
4, 260160, Note_on_c, 4, 53, 95
4, 260400, Note_off_c, 4, 62, 95
4, 260400, Note_off_c, 4, 57, 95
4, 260400, Note_off_c, 4, 53, 95
4, 260400, Note_on_c, 4, 60, 95
4, 260640, Note_off_c, 4, 60, 95
4, 260640, Note_on_c, 4, 58, 95
4, 260880, Note_off_c, 4, 58, 95
4, 260880, Note_on_c, 4, 57, 95
4, 260880, Note_on_c, 4, 53, 95
4, 261120, Note_off_c, 4, 57, 95
4, 261120, Note_off_c, 4, 53, 95
4, 261120, Note_on_c, 4, 39, 95
4, 261600, Note_off_c, 4, 39, 95
4, 261600, Note_on_c, 4, 46, 95
4, 261840, Note_off_c, 4, 46, 95
4, 261840, Note_on_c, 4, 46, 95
4, 262080, Note_off_c, 4, 46, 95
4, 262080, Note_on_c, 4, 55, 47
4, 262080, Note_on_c, 4, 51, 95
4, 262080, Note_on_c, 4, 46, 95
4, 262080, Note_on_c, 4, 39, 95
4, 262560, Note_off_c, 4, 55, 47
4, 262560, Note_off_c, 4, 51, 95
4, 262560, Note_off_c, 4, 46, 95
4, 262560, Note_off_c, 4, 39, 95
4, 262560, Note_on_c, 4, 46, 95
4, 263040, Note_off_c, 4, 46, 95
4, 263040, Note_on_c, 4, 39, 95
4, 263520, Note_off_c, 4, 39, 95
4, 263520, Note_on_c, 4, 46, 95
4, 263760, Note_off_c, 4, 46, 95
4, 263760, Note_on_c, 4, 46, 95
4, 264000, Note_off_c, 4, 46, 95
4, 264000, Note_on_c, 4, 55, 95
4, 264000, Note_on_c, 4, 51, 95
4, 264000, Note_on_c, 4, 46, 95
4, 264000, Note_on_c, 4, 39, 95
4, 264480, Note_off_c, 4, 55, 95
4, 264480, Note_off_c, 4, 51, 95
4, 264480, Note_off_c, 4, 46, 95
4, 264480, Note_off_c, 4, 39, 95
4, 264480, Note_on_c, 4, 46, 95
4, 264960, Note_off_c, 4, 46, 95
4, 264960, Note_on_c, 4, 41, 95
4, 265440, Note_off_c, 4, 41, 95
4, 265440, Note_on_c, 4, 41, 95
4, 265920, Note_off_c, 4, 41, 95
4, 265920, Note_on_c, 4, 60, 47
4, 265920, Note_on_c, 4, 57, 95
4, 265920, Note_on_c, 4, 53, 95
4, 265920, Note_on_c, 4, 48, 95
4, 265920, Note_on_c, 4, 41, 95
4, 266400, Note_off_c, 4, 60, 47
4, 266400, Note_off_c, 4, 57, 95
4, 266400, Note_off_c, 4, 53, 95
4, 266400, Note_off_c, 4, 48, 95
4, 266400, Note_off_c, 4, 41, 95
4, 266400, Note_on_c, 4, 54, 95
4, 266400, Note_on_c, 4, 49, 95
4, 266400, Note_on_c, 4, 44, 95
4, 266400, Note_on_c, 4, 39, 95
4, 266439, Note_off_c, 4, 54, 95
4, 266439, Note_off_c, 4, 49, 95
4, 266439, Note_off_c, 4, 44, 95
4, 266439, Note_off_c, 4, 39, 95
4, 266640, Note_on_c, 4, 54, 95
4, 266640, Note_on_c, 4, 49, 95
4, 266640, Note_on_c, 4, 44, 95
4, 266640, Note_on_c, 4, 39, 95
4, 266679, Note_off_c, 4, 54, 95
4, 266679, Note_off_c, 4, 49, 95
4, 266679, Note_off_c, 4, 44, 95
4, 266679, Note_off_c, 4, 39, 95
4, 266880, Note_on_c, 4, 55, 95
4, 267120, Note_off_c, 4, 55, 95
4, 267120, Note_on_c, 4, 53, 95
4, 267360, Note_off_c, 4, 53, 95
4, 267360, Pitch_bend_c, 5, 8192
4, 267360, Note_on_c, 5, 60, 95
4, 267381, Pitch_bend_c, 5, 8320
4, 267402, Pitch_bend_c, 5, 8448
4, 267423, Pitch_bend_c, 5, 8576
4, 267444, Pitch_bend_c, 5, 8704
4, 267465, Pitch_bend_c, 5, 8832
4, 267486, Pitch_bend_c, 5, 8960
4, 267507, Pitch_bend_c, 5, 9088
4, 267528, Pitch_bend_c, 5, 9216
4, 267549, Pitch_bend_c, 5, 9344
4, 267570, Pitch_bend_c, 5, 9472
4, 267591, Pitch_bend_c, 5, 9600
4, 267600, Pitch_bend_c, 5, 9600
4, 267840, Pitch_bend_c, 5, 9600
4, 267840, Pitch_bend_c, 5, 8192
4, 267840, Note_off_c, 5, 60, 95
4, 267840, Note_on_c, 4, 65, 95
4, 268080, Note_off_c, 4, 65, 95
4, 268080, Note_on_c, 4, 67, 95
4, 268320, Note_off_c, 4, 67, 95
4, 268320, Note_on_c, 4, 60, 95
4, 268560, Note_off_c, 4, 60, 95
4, 268560, Note_on_c, 4, 58, 70
4, 268680, Note_off_c, 4, 58, 70
4, 268680, Note_on_c, 4, 55, 95
4, 268800, Note_off_c, 4, 55, 95
4, 268800, Note_on_c, 4, 39, 95
4, 269520, Note_off_c, 4, 39, 95
4, 269520, Note_on_c, 4, 55, 95
4, 269520, Note_on_c, 4, 51, 95
4, 269520, Note_on_c, 4, 46, 47
4, 270240, Note_off_c, 4, 55, 95
4, 270240, Note_off_c, 4, 51, 95
4, 270240, Note_off_c, 4, 46, 47
4, 270240, Note_on_c, 4, 39, 95
4, 270720, Note_off_c, 4, 39, 95
4, 270720, Note_on_c, 4, 50, 95
4, 271200, Note_off_c, 4, 50, 95
4, 271200, Note_on_c, 4, 53, 95
4, 271440, Note_off_c, 4, 53, 95
4, 271440, Note_on_c, 4, 62, 95
4, 271680, Note_off_c, 4, 62, 95
4, 271680, Note_on_c, 4, 58, 95
4, 271920, Note_off_c, 4, 58, 95
4, 271920, Note_on_c, 4, 53, 47
4, 272160, Note_off_c, 4, 53, 47
4, 272160, Note_on_c, 4, 41, 95
4, 272640, Note_off_c, 4, 41, 95
4, 272640, Note_on_c, 4, 60, 95
4, 272640, Note_on_c, 4, 55, 95
4, 272640, Note_on_c, 4, 48, 95
4, 273120, Note_off_c, 4, 60, 95
4, 273120, Note_off_c, 4, 55, 95
4, 273120, Note_off_c, 4, 48, 95
4, 273120, Note_on_c, 4, 60, 95
4, 273120, Note_on_c, 4, 55, 95
4, 273120, Note_on_c, 4, 48, 95
4, 273360, Note_off_c, 4, 60, 95
4, 273360, Note_off_c, 4, 55, 95
4, 273360, Note_off_c, 4, 48, 95
4, 273360, Note_on_c, 4, 60, 95
4, 273360, Note_on_c, 4, 55, 95
4, 273360, Note_on_c, 4, 48, 95
4, 273600, Note_off_c, 4, 60, 95
4, 273600, Note_off_c, 4, 55, 95
4, 273600, Note_off_c, 4, 48, 95
4, 273600, Note_on_c, 4, 60, 95
4, 273600, Note_on_c, 4, 55, 95
4, 273600, Note_on_c, 4, 48, 95
4, 274080, Note_off_c, 4, 60, 95
4, 274080, Note_off_c, 4, 55, 95
4, 274080, Note_off_c, 4, 48, 95
4, 274080, Note_on_c, 4, 60, 95
4, 274080, Note_on_c, 4, 55, 95
4, 274080, Note_on_c, 4, 48, 95
4, 274119, Note_off_c, 4, 60, 95
4, 274119, Note_off_c, 4, 55, 95
4, 274119, Note_off_c, 4, 48, 95
4, 274320, Note_on_c, 4, 60, 95
4, 274320, Note_on_c, 4, 55, 95
4, 274320, Note_on_c, 4, 48, 95
4, 274359, Note_off_c, 4, 60, 95
4, 274359, Note_off_c, 4, 55, 95
4, 274359, Note_off_c, 4, 48, 95
4, 274560, Note_on_c, 4, 43, 95
4, 274800, Note_off_c, 4, 43, 95
4, 274800, Note_on_c, 4, 46, 70
4, 275040, Note_off_c, 4, 46, 70
4, 275040, Note_on_c, 4, 53, 95
4, 275040, Note_on_c, 4, 50, 95
4, 275040, Note_on_c, 4, 46, 95
4, 275280, Note_off_c, 4, 53, 95
4, 275280, Note_off_c, 4, 50, 95
4, 275280, Note_off_c, 4, 46, 95
4, 275280, Note_on_c, 4, 53, 95
4, 275280, Note_on_c, 4, 50, 95
4, 275280, Note_on_c, 4, 46, 95
4, 275520, Note_off_c, 4, 53, 95
4, 275520, Note_off_c, 4, 50, 95
4, 275520, Note_off_c, 4, 46, 95
4, 275520, Note_on_c, 4, 53, 95
4, 275520, Note_on_c, 4, 50, 95
4, 275520, Note_on_c, 4, 46, 95
4, 276000, Note_off_c, 4, 53, 95
4, 276000, Note_off_c, 4, 50, 95
4, 276000, Note_off_c, 4, 46, 95
4, 276000, Note_on_c, 4, 57, 95
4, 276000, Note_on_c, 4, 53, 95
4, 276480, Note_off_c, 4, 57, 95
4, 276480, Note_off_c, 4, 53, 95
4, 276480, Note_on_c, 4, 39, 95
4, 277440, Note_off_c, 4, 39, 95
4, 277440, Note_on_c, 4, 58, 95
4, 277440, Note_on_c, 4, 55, 95
4, 277440, Note_on_c, 4, 51, 95
4, 277440, Note_on_c, 4, 46, 95
4, 277440, Note_on_c, 4, 39, 95
4, 277920, Note_off_c, 4, 58, 95
4, 277920, Note_off_c, 4, 55, 95
4, 277920, Note_off_c, 4, 51, 95
4, 277920, Note_off_c, 4, 46, 95
4, 277920, Note_off_c, 4, 39, 95
4, 277920, Note_on_c, 4, 39, 95
4, 278400, Note_off_c, 4, 39, 95
4, 278400, Note_on_c, 4, 50, 95
4, 278880, Note_off_c, 4, 50, 95
4, 278880, Note_on_c, 4, 53, 95
4, 279120, Note_off_c, 4, 53, 95
4, 279120, Note_on_c, 4, 62, 95
4, 279360, Note_off_c, 4, 62, 95
4, 279360, Note_on_c, 4, 58, 95
4, 279600, Note_off_c, 4, 58, 95
4, 279600, Note_on_c, 4, 53, 47
4, 279840, Note_off_c, 4, 53, 47
4, 279840, Note_on_c, 4, 41, 95
4, 280320, Note_off_c, 4, 41, 95
4, 280320, Note_on_c, 4, 60, 95
4, 280320, Note_on_c, 4, 55, 95
4, 280320, Note_on_c, 4, 48, 95
4, 280800, Note_off_c, 4, 60, 95
4, 280800, Note_off_c, 4, 55, 95
4, 280800, Note_off_c, 4, 48, 95
4, 280800, Note_on_c, 4, 60, 95
4, 280800, Note_on_c, 4, 55, 95
4, 280800, Note_on_c, 4, 48, 95
4, 281040, Note_off_c, 4, 60, 95
4, 281040, Note_off_c, 4, 55, 95
4, 281040, Note_off_c, 4, 48, 95
4, 281040, Note_on_c, 4, 60, 95
4, 281040, Note_on_c, 4, 55, 95
4, 281040, Note_on_c, 4, 48, 95
4, 281280, Note_off_c, 4, 60, 95
4, 281280, Note_off_c, 4, 55, 95
4, 281280, Note_off_c, 4, 48, 95
4, 281280, Note_on_c, 4, 60, 95
4, 281280, Note_on_c, 4, 55, 95
4, 281280, Note_on_c, 4, 48, 95
4, 281760, Note_off_c, 4, 60, 95
4, 281760, Note_off_c, 4, 55, 95
4, 281760, Note_off_c, 4, 48, 95
4, 281760, Note_on_c, 4, 54, 95
4, 281760, Note_on_c, 4, 49, 95
4, 281760, Note_on_c, 4, 44, 95
4, 281799, Note_off_c, 4, 54, 95
4, 281799, Note_off_c, 4, 49, 95
4, 281799, Note_off_c, 4, 44, 95
4, 282000, Note_on_c, 4, 54, 95
4, 282000, Note_on_c, 4, 49, 95
4, 282000, Note_on_c, 4, 44, 95
4, 282039, Note_off_c, 4, 54, 95
4, 282039, Note_off_c, 4, 49, 95
4, 282039, Note_off_c, 4, 44, 95
4, 282240, Note_on_c, 4, 43, 95
4, 282480, Note_off_c, 4, 43, 95
4, 282480, Note_on_c, 4, 46, 70
4, 282720, Note_off_c, 4, 46, 70
4, 282720, Note_on_c, 4, 53, 95
4, 282720, Note_on_c, 4, 50, 95
4, 282720, Note_on_c, 4, 46, 95
4, 282960, Note_off_c, 4, 53, 95
4, 282960, Note_off_c, 4, 50, 95
4, 282960, Note_off_c, 4, 46, 95
4, 282960, Note_on_c, 4, 53, 95
4, 282960, Note_on_c, 4, 50, 95
4, 282960, Note_on_c, 4, 46, 95
4, 283200, Note_off_c, 4, 53, 95
4, 283200, Note_off_c, 4, 50, 95
4, 283200, Note_off_c, 4, 46, 95
4, 283200, Note_on_c, 4, 53, 95
4, 283200, Note_on_c, 4, 50, 95
4, 283200, Note_on_c, 4, 46, 95
4, 283680, Note_off_c, 4, 53, 95
4, 283680, Note_off_c, 4, 50, 95
4, 283680, Note_off_c, 4, 46, 95
4, 283680, Note_on_c, 4, 57, 95
4, 283680, Note_on_c, 4, 53, 95
4, 284160, Note_off_c, 4, 57, 95
4, 284160, Note_off_c, 4, 53, 95
4, 284160, Note_on_c, 4, 64, 47
4, 284160, Note_on_c, 4, 60, 95
4, 284160, Note_on_c, 4, 55, 95
4, 284160, Note_on_c, 4, 48, 95
4, 284640, Note_off_c, 4, 64, 47
4, 284640, Note_off_c, 4, 60, 95
4, 284640, Note_off_c, 4, 55, 95
4, 284640, Note_off_c, 4, 48, 95
4, 284640, Note_on_c, 4, 55, 95
4, 284640, Note_on_c, 4, 48, 95
4, 285120, Note_off_c, 4, 55, 95
4, 285120, Note_off_c, 4, 48, 95
4, 285120, Note_on_c, 4, 60, 95
4, 285120, Note_on_c, 4, 55, 95
4, 285120, Note_on_c, 4, 48, 95
4, 285600, Note_off_c, 4, 60, 95
4, 285600, Note_off_c, 4, 55, 95
4, 285600, Note_off_c, 4, 48, 95
4, 285600, Note_on_c, 4, 55, 95
4, 285600, Note_on_c, 4, 48, 95
4, 286080, Note_off_c, 4, 55, 95
4, 286080, Note_off_c, 4, 48, 95
4, 286080, Note_on_c, 4, 60, 95
4, 286080, Note_on_c, 4, 55, 95
4, 286080, Note_on_c, 4, 48, 95
4, 286560, Note_off_c, 4, 60, 95
4, 286560, Note_off_c, 4, 55, 95
4, 286560, Note_off_c, 4, 48, 95
4, 286560, Note_on_c, 4, 55, 95
4, 286560, Note_on_c, 4, 48, 95
4, 287040, Note_off_c, 4, 55, 95
4, 287040, Note_off_c, 4, 48, 95
4, 287040, Note_on_c, 4, 64, 95
4, 287040, Note_on_c, 4, 60, 95
4, 287040, Note_on_c, 4, 55, 95
4, 287040, Note_on_c, 4, 48, 95
4, 287520, Note_off_c, 4, 64, 95
4, 287520, Note_off_c, 4, 60, 95
4, 287520, Note_off_c, 4, 55, 95
4, 287520, Note_off_c, 4, 48, 95
4, 287520, Note_on_c, 4, 54, 95
4, 287520, Note_on_c, 4, 49, 95
4, 287520, Note_on_c, 4, 44, 95
4, 288000, Note_off_c, 4, 54, 95
4, 288000, Note_off_c, 4, 49, 95
4, 288000, Note_off_c, 4, 44, 95
4, 288000, Note_on_c, 4, 58, 95
4, 288000, Note_on_c, 4, 55, 95
4, 288000, Note_on_c, 4, 51, 95
4, 288000, Note_on_c, 4, 46, 95
4, 288000, Note_on_c, 4, 39, 95
4, 288480, Note_off_c, 4, 58, 95
4, 288480, Note_off_c, 4, 55, 95
4, 288480, Note_off_c, 4, 51, 95
4, 288480, Note_off_c, 4, 46, 95
4, 288480, Note_off_c, 4, 39, 95
4, 288480, Note_on_c, 4, 39, 95
4, 288960, Note_off_c, 4, 39, 95
4, 288960, Note_on_c, 4, 58, 95
4, 288960, Note_on_c, 4, 55, 95
4, 288960, Note_on_c, 4, 51, 95
4, 288960, Note_on_c, 4, 46, 95
4, 288960, Note_on_c, 4, 39, 95
4, 289440, Note_off_c, 4, 58, 95
4, 289440, Note_off_c, 4, 55, 95
4, 289440, Note_off_c, 4, 51, 95
4, 289440, Note_off_c, 4, 46, 95
4, 289440, Note_off_c, 4, 39, 95
4, 289440, Note_on_c, 4, 39, 95
4, 289680, Note_off_c, 4, 39, 95
4, 289680, Note_on_c, 4, 39, 95
4, 289920, Note_off_c, 4, 39, 95
4, 289920, Note_on_c, 4, 67, 47
4, 289920, Note_on_c, 4, 63, 95
4, 289920, Note_on_c, 4, 58, 95
4, 289920, Note_on_c, 4, 53, 95
4, 289920, Note_on_c, 4, 39, 95
4, 290160, Note_off_c, 4, 67, 47
4, 290160, Note_off_c, 4, 63, 95
4, 290160, Note_off_c, 4, 58, 95
4, 290160, Note_off_c, 4, 53, 95
4, 290160, Note_off_c, 4, 39, 95
4, 290160, Note_on_c, 4, 55, 70
4, 290400, Note_off_c, 4, 55, 70
4, 290400, Note_on_c, 4, 63, 95
4, 290400, Note_on_c, 4, 58, 95
4, 290400, Note_on_c, 4, 55, 95
4, 290400, Note_on_c, 4, 39, 95
4, 290640, Note_off_c, 4, 63, 95
4, 290640, Note_off_c, 4, 58, 95
4, 290640, Note_off_c, 4, 55, 95
4, 290640, Note_off_c, 4, 39, 95
4, 290640, Note_on_c, 4, 63, 95
4, 290640, Note_on_c, 4, 58, 95
4, 290640, Note_on_c, 4, 55, 95
4, 290640, Note_on_c, 4, 39, 95
4, 290880, Note_off_c, 4, 63, 95
4, 290880, Note_off_c, 4, 58, 95
4, 290880, Note_off_c, 4, 55, 95
4, 290880, Note_off_c, 4, 39, 95
4, 290880, Note_on_c, 4, 63, 95
4, 290880, Note_on_c, 4, 58, 95
4, 290880, Note_on_c, 4, 55, 95
4, 290880, Note_on_c, 4, 39, 95
4, 291360, Note_off_c, 4, 63, 95
4, 291360, Note_off_c, 4, 58, 95
4, 291360, Note_off_c, 4, 55, 95
4, 291360, Note_off_c, 4, 39, 95
4, 291360, Note_on_c, 5, 63, 95
4, 291360, Note_on_c, 5, 58, 95
4, 291360, Note_on_c, 5, 51, 95
4, 291480, Pitch_bend_c, 5, 8832
4, 291480, Pitch_bend_c, 5, 8832
4, 291480, Pitch_bend_c, 5, 8832
4, 291600, Pitch_bend_c, 5, 9600
4, 291600, Pitch_bend_c, 5, 8192
4, 291600, Note_off_c, 5, 63, 95
4, 291600, Pitch_bend_c, 5, 9600
4, 291600, Pitch_bend_c, 5, 8192
4, 291600, Note_off_c, 5, 58, 95
4, 291600, Pitch_bend_c, 5, 9600
4, 291600, Pitch_bend_c, 5, 8192
4, 291600, Note_off_c, 5, 51, 95
4, 291600, Note_on_c, 4, 65, 95
4, 291600, Note_on_c, 4, 60, 95
4, 291600, Note_on_c, 4, 53, 95
4, 291840, Note_off_c, 4, 65, 95
4, 291840, Note_off_c, 4, 60, 95
4, 291840, Note_off_c, 4, 53, 95
4, 291840, Note_on_c, 4, 65, 95
4, 291840, Note_on_c, 4, 60, 95
4, 291840, Note_on_c, 4, 53, 95
4, 292320, Note_off_c, 4, 65, 95
4, 292320, Note_off_c, 4, 60, 95
4, 292320, Note_off_c, 4, 53, 95
4, 292320, Note_on_c, 4, 54, 95
4, 292320, Note_on_c, 4, 49, 95
4, 292320, Note_on_c, 4, 44, 95
4, 292359, Note_off_c, 4, 54, 95
4, 292359, Note_off_c, 4, 49, 95
4, 292359, Note_off_c, 4, 44, 95
4, 292800, Note_on_c, 4, 57, 95
4, 292800, Note_on_c, 4, 53, 95
4, 292800, Note_on_c, 4, 48, 95
4, 292800, Note_on_c, 4, 41, 95
4, 293280, Note_off_c, 4, 57, 95
4, 293280, Note_off_c, 4, 53, 95
4, 293280, Note_off_c, 4, 48, 95
4, 293280, Note_off_c, 4, 41, 95
4, 293280, Note_on_c, 4, 65, 95
4, 293280, Note_on_c, 4, 60, 95
4, 293280, Note_on_c, 4, 57, 95
4, 293280, Note_on_c, 4, 53, 95
4, 293280, Note_on_c, 4, 48, 95
4, 293280, Note_on_c, 4, 41, 95
4, 293520, Note_off_c, 4, 65, 95
4, 293520, Note_off_c, 4, 60, 95
4, 293520, Note_off_c, 4, 57, 95
4, 293520, Note_off_c, 4, 53, 95
4, 293520, Note_off_c, 4, 48, 95
4, 293520, Note_off_c, 4, 41, 95
4, 293520, Note_on_c, 4, 65, 95
4, 293520, Note_on_c, 4, 60, 95
4, 293520, Note_on_c, 4, 57, 95
4, 293520, Note_on_c, 4, 53, 95
4, 293520, Note_on_c, 4, 48, 95
4, 293520, Note_on_c, 4, 41, 95
4, 293760, Note_off_c, 4, 65, 95
4, 293760, Note_off_c, 4, 60, 95
4, 293760, Note_off_c, 4, 57, 95
4, 293760, Note_off_c, 4, 53, 95
4, 293760, Note_off_c, 4, 48, 95
4, 293760, Note_off_c, 4, 41, 95
4, 293760, Note_on_c, 4, 65, 95
4, 293760, Note_on_c, 4, 60, 95
4, 293760, Note_on_c, 4, 57, 95
4, 293760, Note_on_c, 4, 53, 95
4, 293760, Note_on_c, 4, 48, 95
4, 293760, Note_on_c, 4, 41, 95
4, 294240, Note_off_c, 4, 65, 95
4, 294240, Note_off_c, 4, 60, 95
4, 294240, Note_off_c, 4, 57, 95
4, 294240, Note_off_c, 4, 53, 95
4, 294240, Note_off_c, 4, 48, 95
4, 294240, Note_off_c, 4, 41, 95
4, 294240, Note_on_c, 4, 65, 95
4, 294240, Note_on_c, 4, 60, 95
4, 294240, Note_on_c, 4, 57, 95
4, 294240, Note_on_c, 4, 53, 95
4, 294240, Note_on_c, 4, 48, 95
4, 294240, Note_on_c, 4, 41, 95
4, 294480, Note_off_c, 4, 65, 95
4, 294480, Note_off_c, 4, 60, 95
4, 294480, Note_off_c, 4, 57, 95
4, 294480, Note_off_c, 4, 53, 95
4, 294480, Note_off_c, 4, 48, 95
4, 294480, Note_off_c, 4, 41, 95
4, 294480, Note_on_c, 4, 65, 95
4, 294480, Note_on_c, 4, 60, 95
4, 294480, Note_on_c, 4, 57, 95
4, 294480, Note_on_c, 4, 53, 95
4, 294480, Note_on_c, 4, 48, 95
4, 294480, Note_on_c, 4, 41, 95
4, 294720, Note_off_c, 4, 65, 95
4, 294720, Note_off_c, 4, 60, 95
4, 294720, Note_off_c, 4, 57, 95
4, 294720, Note_off_c, 4, 53, 95
4, 294720, Note_off_c, 4, 48, 95
4, 294720, Note_off_c, 4, 41, 95
4, 294720, Note_on_c, 4, 65, 95
4, 294720, Note_on_c, 4, 60, 95
4, 294720, Note_on_c, 4, 57, 95
4, 294720, Note_on_c, 4, 53, 95
4, 294720, Note_on_c, 4, 48, 95
4, 294720, Note_on_c, 4, 41, 95
4, 294960, Note_off_c, 4, 65, 95
4, 294960, Note_off_c, 4, 60, 95
4, 294960, Note_off_c, 4, 57, 95
4, 294960, Note_off_c, 4, 53, 95
4, 294960, Note_off_c, 4, 48, 95
4, 294960, Note_off_c, 4, 41, 95
4, 294960, Note_on_c, 4, 65, 95
4, 294960, Note_on_c, 4, 60, 95
4, 294960, Note_on_c, 4, 57, 95
4, 294960, Note_on_c, 4, 53, 95
4, 294960, Note_on_c, 4, 48, 95
4, 294960, Note_on_c, 4, 41, 95
4, 295200, Note_off_c, 4, 65, 95
4, 295200, Note_off_c, 4, 60, 95
4, 295200, Note_off_c, 4, 57, 95
4, 295200, Note_off_c, 4, 53, 95
4, 295200, Note_off_c, 4, 48, 95
4, 295200, Note_off_c, 4, 41, 95
4, 295200, Note_on_c, 4, 65, 95
4, 295200, Note_on_c, 4, 60, 95
4, 295200, Note_on_c, 4, 57, 95
4, 295200, Note_on_c, 4, 53, 95
4, 295200, Note_on_c, 4, 48, 95
4, 295200, Note_on_c, 4, 41, 95
4, 295440, Note_off_c, 4, 65, 95
4, 295440, Note_off_c, 4, 60, 95
4, 295440, Note_off_c, 4, 57, 95
4, 295440, Note_off_c, 4, 53, 95
4, 295440, Note_off_c, 4, 48, 95
4, 295440, Note_off_c, 4, 41, 95
4, 295440, Note_on_c, 4, 65, 95
4, 295440, Note_on_c, 4, 60, 95
4, 295440, Note_on_c, 4, 57, 95
4, 295440, Note_on_c, 4, 53, 95
4, 295440, Note_on_c, 4, 48, 95
4, 295440, Note_on_c, 4, 41, 95
4, 295680, Note_off_c, 4, 65, 95
4, 295680, Note_off_c, 4, 60, 95
4, 295680, Note_off_c, 4, 57, 95
4, 295680, Note_off_c, 4, 53, 95
4, 295680, Note_off_c, 4, 48, 95
4, 295680, Note_off_c, 4, 41, 95
4, 295680, Note_on_c, 4, 65, 95
4, 295680, Note_on_c, 4, 60, 95
4, 295680, Note_on_c, 4, 57, 95
4, 295680, Note_on_c, 4, 53, 95
4, 295680, Note_on_c, 4, 48, 95
4, 295680, Note_on_c, 4, 41, 95
4, 295920, Note_off_c, 4, 65, 95
4, 295920, Note_off_c, 4, 60, 95
4, 295920, Note_off_c, 4, 57, 95
4, 295920, Note_off_c, 4, 53, 95
4, 295920, Note_off_c, 4, 48, 95
4, 295920, Note_off_c, 4, 41, 95
4, 295920, Note_on_c, 4, 65, 95
4, 295920, Note_on_c, 4, 60, 95
4, 295920, Note_on_c, 4, 57, 95
4, 295920, Note_on_c, 4, 53, 95
4, 295920, Note_on_c, 4, 48, 95
4, 295920, Note_on_c, 4, 41, 95
4, 296160, Note_off_c, 4, 65, 95
4, 296160, Note_off_c, 4, 60, 95
4, 296160, Note_off_c, 4, 57, 95
4, 296160, Note_off_c, 4, 53, 95
4, 296160, Note_off_c, 4, 48, 95
4, 296160, Note_off_c, 4, 41, 95
4, 296160, Note_on_c, 4, 65, 95
4, 296160, Note_on_c, 4, 60, 95
4, 296160, Note_on_c, 4, 57, 95
4, 296160, Note_on_c, 4, 53, 95
4, 296160, Note_on_c, 4, 48, 95
4, 296160, Note_on_c, 4, 41, 95
4, 296400, Note_off_c, 4, 65, 95
4, 296400, Note_off_c, 4, 60, 95
4, 296400, Note_off_c, 4, 57, 95
4, 296400, Note_off_c, 4, 53, 95
4, 296400, Note_off_c, 4, 48, 95
4, 296400, Note_off_c, 4, 41, 95
4, 296400, Note_on_c, 4, 65, 95
4, 296400, Note_on_c, 4, 60, 95
4, 296400, Note_on_c, 4, 57, 95
4, 296400, Note_on_c, 4, 53, 95
4, 296400, Note_on_c, 4, 48, 95
4, 296400, Note_on_c, 4, 41, 95
4, 296640, Note_off_c, 4, 65, 95
4, 296640, Note_off_c, 4, 60, 95
4, 296640, Note_off_c, 4, 57, 95
4, 296640, Note_off_c, 4, 53, 95
4, 296640, Note_off_c, 4, 48, 95
4, 296640, Note_off_c, 4, 41, 95
4, 296640, Note_on_c, 4, 65, 95
4, 296640, Note_on_c, 4, 60, 95
4, 296640, Note_on_c, 4, 57, 95
4, 296640, Note_on_c, 4, 53, 95
4, 296640, Note_on_c, 4, 48, 95
4, 296640, Note_on_c, 4, 41, 95
4, 296880, Note_off_c, 4, 65, 95
4, 296880, Note_off_c, 4, 60, 95
4, 296880, Note_off_c, 4, 57, 95
4, 296880, Note_off_c, 4, 53, 95
4, 296880, Note_off_c, 4, 48, 95
4, 296880, Note_off_c, 4, 41, 95
4, 296880, Note_on_c, 4, 65, 95
4, 296880, Note_on_c, 4, 60, 95
4, 296880, Note_on_c, 4, 57, 95
4, 296880, Note_on_c, 4, 53, 95
4, 296880, Note_on_c, 4, 48, 95
4, 296880, Note_on_c, 4, 41, 95
4, 297120, Note_off_c, 4, 65, 95
4, 297120, Note_off_c, 4, 60, 95
4, 297120, Note_off_c, 4, 57, 95
4, 297120, Note_off_c, 4, 53, 95
4, 297120, Note_off_c, 4, 48, 95
4, 297120, Note_off_c, 4, 41, 95
4, 297120, Note_on_c, 4, 65, 95
4, 297120, Note_on_c, 4, 60, 95
4, 297120, Note_on_c, 4, 57, 95
4, 297120, Note_on_c, 4, 53, 95
4, 297120, Note_on_c, 4, 48, 95
4, 297120, Note_on_c, 4, 41, 95
4, 297360, Note_off_c, 4, 65, 95
4, 297360, Note_off_c, 4, 60, 95
4, 297360, Note_off_c, 4, 57, 95
4, 297360, Note_off_c, 4, 53, 95
4, 297360, Note_off_c, 4, 48, 95
4, 297360, Note_off_c, 4, 41, 95
4, 297360, Note_on_c, 4, 65, 95
4, 297360, Note_on_c, 4, 60, 95
4, 297360, Note_on_c, 4, 57, 95
4, 297360, Note_on_c, 4, 53, 95
4, 297360, Note_on_c, 4, 48, 95
4, 297360, Note_on_c, 4, 41, 95
4, 297600, Note_off_c, 4, 65, 95
4, 297600, Note_off_c, 4, 60, 95
4, 297600, Note_off_c, 4, 57, 95
4, 297600, Note_off_c, 4, 53, 95
4, 297600, Note_off_c, 4, 48, 95
4, 297600, Note_off_c, 4, 41, 95
4, 297600, Note_on_c, 4, 65, 95
4, 297600, Note_on_c, 4, 60, 95
4, 297600, Note_on_c, 4, 57, 95
4, 297600, Note_on_c, 4, 53, 95
4, 297600, Note_on_c, 4, 48, 95
4, 297600, Note_on_c, 4, 41, 95
4, 297840, Note_off_c, 4, 65, 95
4, 297840, Note_off_c, 4, 60, 95
4, 297840, Note_off_c, 4, 57, 95
4, 297840, Note_off_c, 4, 53, 95
4, 297840, Note_off_c, 4, 48, 95
4, 297840, Note_off_c, 4, 41, 95
4, 297840, Note_on_c, 4, 65, 95
4, 297840, Note_on_c, 4, 60, 95
4, 297840, Note_on_c, 4, 57, 95
4, 297840, Note_on_c, 4, 53, 95
4, 297840, Note_on_c, 4, 48, 95
4, 297840, Note_on_c, 4, 41, 95
4, 298080, Note_off_c, 4, 65, 95
4, 298080, Note_off_c, 4, 60, 95
4, 298080, Note_off_c, 4, 57, 95
4, 298080, Note_off_c, 4, 53, 95
4, 298080, Note_off_c, 4, 48, 95
4, 298080, Note_off_c, 4, 41, 95
4, 298080, Note_on_c, 4, 65, 95
4, 298080, Note_on_c, 4, 60, 95
4, 298080, Note_on_c, 4, 57, 95
4, 298080, Note_on_c, 4, 53, 95
4, 298080, Note_on_c, 4, 48, 95
4, 298080, Note_on_c, 4, 41, 95
4, 298320, Note_off_c, 4, 65, 95
4, 298320, Note_off_c, 4, 60, 95
4, 298320, Note_off_c, 4, 57, 95
4, 298320, Note_off_c, 4, 53, 95
4, 298320, Note_off_c, 4, 48, 95
4, 298320, Note_off_c, 4, 41, 95
4, 298320, Note_on_c, 4, 65, 95
4, 298320, Note_on_c, 4, 60, 95
4, 298320, Note_on_c, 4, 57, 95
4, 298320, Note_on_c, 4, 53, 95
4, 298320, Note_on_c, 4, 48, 95
4, 298320, Note_on_c, 4, 41, 95
4, 298560, Note_off_c, 4, 65, 95
4, 298560, Note_off_c, 4, 60, 95
4, 298560, Note_off_c, 4, 57, 95
4, 298560, Note_off_c, 4, 53, 95
4, 298560, Note_off_c, 4, 48, 95
4, 298560, Note_off_c, 4, 41, 95
4, 298560, Note_on_c, 4, 65, 95
4, 298560, Note_on_c, 4, 60, 95
4, 298560, Note_on_c, 4, 57, 95
4, 298560, Note_on_c, 4, 53, 95
4, 298560, Note_on_c, 4, 48, 95
4, 298560, Note_on_c, 4, 41, 95
4, 298800, Note_off_c, 4, 65, 95
4, 298800, Note_off_c, 4, 60, 95
4, 298800, Note_off_c, 4, 57, 95
4, 298800, Note_off_c, 4, 53, 95
4, 298800, Note_off_c, 4, 48, 95
4, 298800, Note_off_c, 4, 41, 95
4, 298800, Note_on_c, 4, 65, 95
4, 298800, Note_on_c, 4, 60, 95
4, 298800, Note_on_c, 4, 57, 95
4, 298800, Note_on_c, 4, 53, 95
4, 298800, Note_on_c, 4, 48, 95
4, 298800, Note_on_c, 4, 41, 95
4, 299040, Note_off_c, 4, 65, 95
4, 299040, Note_off_c, 4, 60, 95
4, 299040, Note_off_c, 4, 57, 95
4, 299040, Note_off_c, 4, 53, 95
4, 299040, Note_off_c, 4, 48, 95
4, 299040, Note_off_c, 4, 41, 95
4, 299040, Note_on_c, 4, 65, 95
4, 299040, Note_on_c, 4, 60, 95
4, 299040, Note_on_c, 4, 57, 95
4, 299040, Note_on_c, 4, 53, 95
4, 299040, Note_on_c, 4, 48, 95
4, 299040, Note_on_c, 4, 41, 95
4, 299280, Note_off_c, 4, 65, 95
4, 299280, Note_off_c, 4, 60, 95
4, 299280, Note_off_c, 4, 57, 95
4, 299280, Note_off_c, 4, 53, 95
4, 299280, Note_off_c, 4, 48, 95
4, 299280, Note_off_c, 4, 41, 95
4, 299280, Note_on_c, 4, 65, 95
4, 299280, Note_on_c, 4, 60, 95
4, 299280, Note_on_c, 4, 57, 95
4, 299280, Note_on_c, 4, 53, 95
4, 299280, Note_on_c, 4, 48, 95
4, 299280, Note_on_c, 4, 41, 95
4, 299520, Note_off_c, 4, 65, 95
4, 299520, Note_off_c, 4, 60, 95
4, 299520, Note_off_c, 4, 57, 95
4, 299520, Note_off_c, 4, 53, 95
4, 299520, Note_off_c, 4, 48, 95
4, 299520, Note_off_c, 4, 41, 95
4, 299520, Note_on_c, 4, 62, 95
4, 299520, Note_on_c, 4, 58, 95
4, 299520, Note_on_c, 4, 53, 95
4, 299520, Note_on_c, 4, 46, 95
4, 300000, Note_off_c, 4, 62, 95
4, 300000, Note_off_c, 4, 58, 95
4, 300000, Note_off_c, 4, 53, 95
4, 300000, Note_off_c, 4, 46, 95
4, 300000, Note_on_c, 4, 62, 95
4, 300000, Note_on_c, 4, 58, 95
4, 300000, Note_on_c, 4, 53, 95
4, 300000, Note_on_c, 4, 46, 95
4, 300240, Note_off_c, 4, 62, 95
4, 300240, Note_off_c, 4, 58, 95
4, 300240, Note_off_c, 4, 53, 95
4, 300240, Note_off_c, 4, 46, 95
4, 300240, Note_on_c, 4, 62, 95
4, 300240, Note_on_c, 4, 58, 95
4, 300240, Note_on_c, 4, 53, 95
4, 300240, Note_on_c, 4, 46, 95
4, 300480, Note_off_c, 4, 62, 95
4, 300480, Note_off_c, 4, 58, 95
4, 300480, Note_off_c, 4, 53, 95
4, 300480, Note_off_c, 4, 46, 95
4, 300480, Note_on_c, 5, 62, 95
4, 300480, Note_on_c, 5, 58, 95
4, 300480, Note_on_c, 5, 53, 95
4, 300480, Note_on_c, 5, 46, 95
4, 300600, Pitch_bend_c, 5, 7552
4, 300600, Pitch_bend_c, 5, 7552
4, 300600, Pitch_bend_c, 5, 7552
4, 300600, Pitch_bend_c, 5, 7552
4, 300720, Pitch_bend_c, 5, 6784
4, 300720, Pitch_bend_c, 5, 8192
4, 300720, Note_off_c, 5, 62, 95
4, 300720, Pitch_bend_c, 5, 6784
4, 300720, Pitch_bend_c, 5, 8192
4, 300720, Note_off_c, 5, 58, 95
4, 300720, Pitch_bend_c, 5, 6784
4, 300720, Pitch_bend_c, 5, 8192
4, 300720, Note_off_c, 5, 53, 95
4, 300720, Pitch_bend_c, 5, 6784
4, 300720, Pitch_bend_c, 5, 8192
4, 300720, Note_off_c, 5, 46, 95
4, 300720, Note_on_c, 4, 60, 95
4, 300720, Note_on_c, 4, 56, 95
4, 300720, Note_on_c, 4, 51, 95
4, 300720, Note_on_c, 4, 44, 47
4, 300960, Note_off_c, 4, 60, 95
4, 300960, Note_off_c, 4, 56, 95
4, 300960, Note_off_c, 4, 51, 95
4, 300960, Note_off_c, 4, 44, 47
4, 300960, Note_on_c, 4, 60, 95
4, 300960, Note_on_c, 4, 56, 95
4, 300960, Note_on_c, 4, 51, 95
4, 300960, Note_on_c, 4, 44, 95
4, 301440, Note_off_c, 4, 60, 95
4, 301440, Note_off_c, 4, 56, 95
4, 301440, Note_off_c, 4, 51, 95
4, 301440, Note_off_c, 4, 44, 95
4, 301440, Note_on_c, 4, 63, 95
4, 301440, Note_on_c, 4, 58, 95
4, 301440, Note_on_c, 4, 55, 95
4, 301440, Note_on_c, 4, 51, 95
4, 301440, Note_on_c, 4, 46, 95
4, 301440, Note_on_c, 4, 39, 95
4, 301920, Note_off_c, 4, 63, 95
4, 301920, Note_off_c, 4, 58, 95
4, 301920, Note_off_c, 4, 55, 95
4, 301920, Note_off_c, 4, 51, 95
4, 301920, Note_off_c, 4, 46, 95
4, 301920, Note_off_c, 4, 39, 95
4, 301920, Note_on_c, 4, 63, 95
4, 301920, Note_on_c, 4, 58, 95
4, 301920, Note_on_c, 4, 55, 95
4, 301920, Note_on_c, 4, 51, 95
4, 301920, Note_on_c, 4, 46, 95
4, 301920, Note_on_c, 4, 39, 95
4, 302160, Note_off_c, 4, 63, 95
4, 302160, Note_off_c, 4, 58, 95
4, 302160, Note_off_c, 4, 55, 95
4, 302160, Note_off_c, 4, 51, 95
4, 302160, Note_off_c, 4, 46, 95
4, 302160, Note_off_c, 4, 39, 95
4, 302160, Note_on_c, 4, 63, 95
4, 302160, Note_on_c, 4, 58, 95
4, 302160, Note_on_c, 4, 55, 95
4, 302160, Note_on_c, 4, 51, 95
4, 302160, Note_on_c, 4, 46, 95
4, 302160, Note_on_c, 4, 39, 95
4, 302400, Note_off_c, 4, 63, 95
4, 302400, Note_off_c, 4, 58, 95
4, 302400, Note_off_c, 4, 55, 95
4, 302400, Note_off_c, 4, 51, 95
4, 302400, Note_off_c, 4, 46, 95
4, 302400, Note_off_c, 4, 39, 95
4, 302400, Note_on_c, 4, 63, 95
4, 302400, Note_on_c, 4, 58, 95
4, 302400, Note_on_c, 4, 55, 95
4, 302400, Note_on_c, 4, 51, 95
4, 302400, Note_on_c, 4, 46, 95
4, 302400, Note_on_c, 4, 39, 95
4, 302880, Note_off_c, 4, 63, 95
4, 302880, Note_off_c, 4, 58, 95
4, 302880, Note_off_c, 4, 55, 95
4, 302880, Note_off_c, 4, 51, 95
4, 302880, Note_off_c, 4, 46, 95
4, 302880, Note_off_c, 4, 39, 95
4, 302880, Note_on_c, 4, 63, 95
4, 302880, Note_on_c, 4, 58, 95
4, 302880, Note_on_c, 4, 55, 95
4, 302880, Note_on_c, 4, 51, 95
4, 302880, Note_on_c, 4, 46, 95
4, 302880, Note_on_c, 4, 39, 95
4, 303360, Note_off_c, 4, 63, 95
4, 303360, Note_off_c, 4, 58, 95
4, 303360, Note_off_c, 4, 55, 95
4, 303360, Note_off_c, 4, 51, 95
4, 303360, Note_off_c, 4, 46, 95
4, 303360, Note_off_c, 4, 39, 95
4, 303360, Note_on_c, 4, 69, 95
4, 303360, Note_on_c, 4, 65, 95
4, 303360, Note_on_c, 4, 60, 95
4, 303360, Note_on_c, 4, 53, 95
4, 303840, Note_off_c, 4, 69, 95
4, 303840, Note_off_c, 4, 65, 95
4, 303840, Note_off_c, 4, 60, 95
4, 303840, Note_off_c, 4, 53, 95
4, 303840, Note_on_c, 4, 69, 95
4, 303840, Note_on_c, 4, 65, 95
4, 303840, Note_on_c, 4, 60, 95
4, 303840, Note_on_c, 4, 53, 95
4, 304080, Note_off_c, 4, 69, 95
4, 304080, Note_off_c, 4, 65, 95
4, 304080, Note_off_c, 4, 60, 95
4, 304080, Note_off_c, 4, 53, 95
4, 304080, Note_on_c, 4, 69, 95
4, 304080, Note_on_c, 4, 65, 95
4, 304080, Note_on_c, 4, 60, 95
4, 304080, Note_on_c, 4, 53, 95
4, 304320, Note_off_c, 4, 69, 95
4, 304320, Note_off_c, 4, 65, 95
4, 304320, Note_off_c, 4, 60, 95
4, 304320, Note_off_c, 4, 53, 95
4, 304320, Note_on_c, 4, 69, 95
4, 304320, Note_on_c, 4, 65, 95
4, 304320, Note_on_c, 4, 60, 95
4, 304320, Note_on_c, 4, 53, 95
4, 304800, Note_off_c, 4, 69, 95
4, 304800, Note_off_c, 4, 65, 95
4, 304800, Note_off_c, 4, 60, 95
4, 304800, Note_off_c, 4, 53, 95
4, 304800, Note_on_c, 4, 69, 95
4, 304800, Note_on_c, 4, 65, 95
4, 304800, Note_on_c, 4, 60, 95
4, 304800, Note_on_c, 4, 53, 95
4, 305040, Note_off_c, 4, 69, 95
4, 305040, Note_off_c, 4, 65, 95
4, 305040, Note_off_c, 4, 60, 95
4, 305040, Note_off_c, 4, 53, 95
4, 305040, Note_on_c, 4, 69, 95
4, 305040, Note_on_c, 4, 65, 95
4, 305040, Note_on_c, 4, 60, 95
4, 305040, Note_on_c, 4, 53, 95
4, 305280, Note_off_c, 4, 69, 95
4, 305280, Note_off_c, 4, 65, 95
4, 305280, Note_off_c, 4, 60, 95
4, 305280, Note_off_c, 4, 53, 95
4, 305280, Note_on_c, 5, 67, 95
4, 305280, Note_on_c, 5, 63, 95
4, 305280, Note_on_c, 5, 58, 95
4, 305280, Note_on_c, 5, 51, 95
4, 305400, Pitch_bend_c, 5, 8832
4, 305400, Pitch_bend_c, 5, 8832
4, 305400, Pitch_bend_c, 5, 8832
4, 305400, Pitch_bend_c, 5, 8832
4, 305520, Pitch_bend_c, 5, 9600
4, 305520, Pitch_bend_c, 5, 8192
4, 305520, Note_off_c, 5, 67, 95
4, 305520, Pitch_bend_c, 5, 9600
4, 305520, Pitch_bend_c, 5, 8192
4, 305520, Note_off_c, 5, 63, 95
4, 305520, Pitch_bend_c, 5, 9600
4, 305520, Pitch_bend_c, 5, 8192
4, 305520, Note_off_c, 5, 58, 95
4, 305520, Pitch_bend_c, 5, 9600
4, 305520, Pitch_bend_c, 5, 8192
4, 305520, Note_off_c, 5, 51, 95
4, 305520, Note_on_c, 4, 69, 95
4, 305520, Note_on_c, 4, 65, 95
4, 305520, Note_on_c, 4, 60, 95
4, 305520, Note_on_c, 4, 53, 95
4, 305760, Note_off_c, 4, 69, 95
4, 305760, Note_off_c, 4, 65, 95
4, 305760, Note_off_c, 4, 60, 95
4, 305760, Note_off_c, 4, 53, 95
4, 305760, Note_on_c, 4, 69, 95
4, 305760, Note_on_c, 4, 65, 95
4, 305760, Note_on_c, 4, 60, 95
4, 305760, Note_on_c, 4, 53, 95
4, 306000, Note_off_c, 4, 69, 95
4, 306000, Note_off_c, 4, 65, 95
4, 306000, Note_off_c, 4, 60, 95
4, 306000, Note_off_c, 4, 53, 95
4, 306000, Note_on_c, 4, 69, 95
4, 306000, Note_on_c, 4, 65, 95
4, 306000, Note_on_c, 4, 60, 95
4, 306000, Note_on_c, 4, 53, 95
4, 306240, Note_off_c, 4, 69, 95
4, 306240, Note_off_c, 4, 65, 95
4, 306240, Note_off_c, 4, 60, 95
4, 306240, Note_off_c, 4, 53, 95
4, 306240, Note_on_c, 4, 69, 95
4, 306240, Note_on_c, 4, 65, 95
4, 306240, Note_on_c, 4, 60, 95
4, 306240, Note_on_c, 4, 53, 95
4, 306480, Note_off_c, 4, 69, 95
4, 306480, Note_off_c, 4, 65, 95
4, 306480, Note_off_c, 4, 60, 95
4, 306480, Note_off_c, 4, 53, 95
4, 306480, Note_on_c, 4, 69, 95
4, 306480, Note_on_c, 4, 65, 95
4, 306480, Note_on_c, 4, 60, 95
4, 306480, Note_on_c, 4, 53, 95
4, 306720, Note_off_c, 4, 69, 95
4, 306720, Note_off_c, 4, 65, 95
4, 306720, Note_off_c, 4, 60, 95
4, 306720, Note_off_c, 4, 53, 95
4, 306720, Note_on_c, 4, 69, 95
4, 306720, Note_on_c, 4, 65, 95
4, 306720, Note_on_c, 4, 60, 95
4, 306720, Note_on_c, 4, 53, 95
4, 306960, Note_off_c, 4, 69, 95
4, 306960, Note_off_c, 4, 65, 95
4, 306960, Note_off_c, 4, 60, 95
4, 306960, Note_off_c, 4, 53, 95
4, 306960, Note_on_c, 4, 69, 95
4, 306960, Note_on_c, 4, 65, 95
4, 306960, Note_on_c, 4, 60, 95
4, 306960, Note_on_c, 4, 53, 95
4, 307200, Note_off_c, 4, 69, 95
4, 307200, Note_off_c, 4, 65, 95
4, 307200, Note_off_c, 4, 60, 95
4, 307200, Note_off_c, 4, 53, 95
4, 307200, Note_on_c, 4, 62, 95
4, 307200, Note_on_c, 4, 58, 95
4, 307200, Note_on_c, 4, 53, 95
4, 307200, Note_on_c, 4, 46, 95
4, 307680, Note_off_c, 4, 62, 95
4, 307680, Note_off_c, 4, 58, 95
4, 307680, Note_off_c, 4, 53, 95
4, 307680, Note_off_c, 4, 46, 95
4, 307680, Note_on_c, 4, 62, 95
4, 307680, Note_on_c, 4, 58, 95
4, 307680, Note_on_c, 4, 53, 95
4, 307680, Note_on_c, 4, 46, 95
4, 307920, Note_off_c, 4, 62, 95
4, 307920, Note_off_c, 4, 58, 95
4, 307920, Note_off_c, 4, 53, 95
4, 307920, Note_off_c, 4, 46, 95
4, 307920, Note_on_c, 4, 62, 95
4, 307920, Note_on_c, 4, 58, 95
4, 307920, Note_on_c, 4, 53, 95
4, 307920, Note_on_c, 4, 46, 95
4, 308160, Note_off_c, 4, 62, 95
4, 308160, Note_off_c, 4, 58, 95
4, 308160, Note_off_c, 4, 53, 95
4, 308160, Note_off_c, 4, 46, 95
4, 308160, Note_on_c, 5, 62, 95
4, 308160, Note_on_c, 5, 58, 95
4, 308160, Note_on_c, 5, 53, 95
4, 308160, Note_on_c, 5, 46, 95
4, 308280, Pitch_bend_c, 5, 7552
4, 308280, Pitch_bend_c, 5, 7552
4, 308280, Pitch_bend_c, 5, 7552
4, 308280, Pitch_bend_c, 5, 7552
4, 308400, Pitch_bend_c, 5, 6784
4, 308400, Pitch_bend_c, 5, 8192
4, 308400, Note_off_c, 5, 62, 95
4, 308400, Pitch_bend_c, 5, 6784
4, 308400, Pitch_bend_c, 5, 8192
4, 308400, Note_off_c, 5, 58, 95
4, 308400, Pitch_bend_c, 5, 6784
4, 308400, Pitch_bend_c, 5, 8192
4, 308400, Note_off_c, 5, 53, 95
4, 308400, Pitch_bend_c, 5, 6784
4, 308400, Pitch_bend_c, 5, 8192
4, 308400, Note_off_c, 5, 46, 95
4, 308400, Note_on_c, 4, 60, 95
4, 308400, Note_on_c, 4, 56, 95
4, 308400, Note_on_c, 4, 51, 95
4, 308400, Note_on_c, 4, 44, 47
4, 308640, Note_off_c, 4, 60, 95
4, 308640, Note_off_c, 4, 56, 95
4, 308640, Note_off_c, 4, 51, 95
4, 308640, Note_off_c, 4, 44, 47
4, 308640, Note_on_c, 4, 60, 95
4, 308640, Note_on_c, 4, 56, 95
4, 308640, Note_on_c, 4, 51, 95
4, 308640, Note_on_c, 4, 44, 95
4, 309120, Note_off_c, 4, 60, 95
4, 309120, Note_off_c, 4, 56, 95
4, 309120, Note_off_c, 4, 51, 95
4, 309120, Note_off_c, 4, 44, 95
4, 309120, Note_on_c, 4, 67, 95
4, 309120, Note_on_c, 4, 63, 95
4, 309120, Note_on_c, 4, 58, 95
4, 309120, Note_on_c, 4, 53, 95
4, 309120, Note_on_c, 4, 39, 95
4, 309360, Note_off_c, 4, 67, 95
4, 309360, Note_off_c, 4, 63, 95
4, 309360, Note_off_c, 4, 58, 95
4, 309360, Note_off_c, 4, 53, 95
4, 309360, Note_off_c, 4, 39, 95
4, 309360, Note_on_c, 4, 55, 70
4, 309360, Note_on_c, 4, 39, 95
4, 309600, Note_off_c, 4, 55, 70
4, 309600, Note_off_c, 4, 39, 95
4, 309600, Note_on_c, 4, 67, 95
4, 309600, Note_on_c, 4, 63, 95
4, 309600, Note_on_c, 4, 58, 95
4, 309600, Note_on_c, 4, 55, 95
4, 309600, Note_on_c, 4, 39, 95
4, 309840, Note_off_c, 4, 67, 95
4, 309840, Note_off_c, 4, 63, 95
4, 309840, Note_off_c, 4, 58, 95
4, 309840, Note_off_c, 4, 55, 95
4, 309840, Note_off_c, 4, 39, 95
4, 309840, Note_on_c, 4, 67, 95
4, 309840, Note_on_c, 4, 63, 95
4, 309840, Note_on_c, 4, 58, 95
4, 309840, Note_on_c, 4, 55, 95
4, 309840, Note_on_c, 4, 39, 95
4, 310080, Note_off_c, 4, 67, 95
4, 310080, Note_off_c, 4, 63, 95
4, 310080, Note_off_c, 4, 58, 95
4, 310080, Note_off_c, 4, 55, 95
4, 310080, Note_off_c, 4, 39, 95
4, 310080, Note_on_c, 4, 67, 95
4, 310080, Note_on_c, 4, 63, 95
4, 310080, Note_on_c, 4, 58, 95
4, 310080, Note_on_c, 4, 55, 95
4, 310080, Note_on_c, 4, 39, 95
4, 310320, Note_off_c, 4, 67, 95
4, 310320, Note_off_c, 4, 63, 95
4, 310320, Note_off_c, 4, 58, 95
4, 310320, Note_off_c, 4, 55, 95
4, 310320, Note_off_c, 4, 39, 95
4, 310320, Note_on_c, 4, 58, 95
4, 310320, Note_on_c, 4, 54, 95
4, 310320, Note_on_c, 4, 49, 95
4, 310320, Note_on_c, 4, 44, 95
4, 310359, Note_off_c, 4, 58, 95
4, 310359, Note_off_c, 4, 54, 95
4, 310359, Note_off_c, 4, 49, 95
4, 310359, Note_off_c, 4, 44, 95
4, 310560, Note_on_c, 4, 53, 95
4, 310800, Note_off_c, 4, 53, 95
4, 310800, Note_on_c, 4, 55, 70
4, 311040, Note_off_c, 4, 55, 70
4, 311040, Note_on_c, 4, 65, 95
4, 311040, Note_on_c, 4, 60, 95
4, 311040, Note_on_c, 4, 53, 95
4, 311520, Note_off_c, 4, 65, 95
4, 311520, Note_off_c, 4, 60, 95
4, 311520, Note_off_c, 4, 53, 95
4, 311520, Note_on_c, 4, 65, 95
4, 311520, Note_on_c, 4, 60, 95
4, 311520, Note_on_c, 4, 53, 95
4, 311760, Note_off_c, 4, 65, 95
4, 311760, Note_off_c, 4, 60, 95
4, 311760, Note_off_c, 4, 53, 95
4, 311760, Note_on_c, 4, 65, 95
4, 311760, Note_on_c, 4, 60, 95
4, 311760, Note_on_c, 4, 53, 95
4, 312000, Note_off_c, 4, 65, 95
4, 312000, Note_off_c, 4, 60, 95
4, 312000, Note_off_c, 4, 53, 95
4, 312000, Note_on_c, 4, 65, 95
4, 312000, Note_on_c, 4, 60, 95
4, 312000, Note_on_c, 4, 53, 95
4, 312480, Note_off_c, 4, 65, 95
4, 312480, Note_off_c, 4, 60, 95
4, 312480, Note_off_c, 4, 53, 95
4, 312480, Note_on_c, 4, 65, 95
4, 312480, Note_on_c, 4, 60, 95
4, 312480, Note_on_c, 4, 53, 95
4, 312519, Note_off_c, 4, 65, 95
4, 312519, Note_off_c, 4, 60, 95
4, 312519, Note_off_c, 4, 53, 95
4, 312720, Note_on_c, 4, 65, 95
4, 312720, Note_on_c, 4, 60, 95
4, 312720, Note_on_c, 4, 53, 95
4, 312759, Note_off_c, 4, 65, 95
4, 312759, Note_off_c, 4, 60, 95
4, 312759, Note_off_c, 4, 53, 95
4, 312960, Note_on_c, 4, 65, 95
4, 312960, Note_on_c, 4, 60, 95
4, 312960, Note_on_c, 4, 57, 95
4, 312960, Note_on_c, 4, 53, 95
4, 312960, Note_on_c, 4, 48, 95
4, 312960, Note_on_c, 4, 41, 95
4, 313200, Note_off_c, 4, 65, 95
4, 313200, Note_off_c, 4, 60, 95
4, 313200, Note_off_c, 4, 57, 95
4, 313200, Note_off_c, 4, 53, 95
4, 313200, Note_off_c, 4, 48, 95
4, 313200, Note_off_c, 4, 41, 95
4, 313200, Note_on_c, 4, 65, 95
4, 313200, Note_on_c, 4, 60, 95
4, 313200, Note_on_c, 4, 57, 95
4, 313200, Note_on_c, 4, 53, 95
4, 313200, Note_on_c, 4, 48, 95
4, 313200, Note_on_c, 4, 41, 95
4, 313440, Note_off_c, 4, 65, 95
4, 313440, Note_off_c, 4, 60, 95
4, 313440, Note_off_c, 4, 57, 95
4, 313440, Note_off_c, 4, 53, 95
4, 313440, Note_off_c, 4, 48, 95
4, 313440, Note_off_c, 4, 41, 95
4, 313440, Note_on_c, 4, 65, 95
4, 313440, Note_on_c, 4, 60, 95
4, 313440, Note_on_c, 4, 57, 95
4, 313440, Note_on_c, 4, 53, 95
4, 313440, Note_on_c, 4, 48, 95
4, 313440, Note_on_c, 4, 41, 95
4, 313680, Note_off_c, 4, 65, 95
4, 313680, Note_off_c, 4, 60, 95
4, 313680, Note_off_c, 4, 57, 95
4, 313680, Note_off_c, 4, 53, 95
4, 313680, Note_off_c, 4, 48, 95
4, 313680, Note_off_c, 4, 41, 95
4, 313680, Note_on_c, 4, 65, 95
4, 313680, Note_on_c, 4, 60, 95
4, 313680, Note_on_c, 4, 57, 95
4, 313680, Note_on_c, 4, 53, 95
4, 313680, Note_on_c, 4, 48, 95
4, 313680, Note_on_c, 4, 41, 95
4, 313920, Note_off_c, 4, 65, 95
4, 313920, Note_off_c, 4, 60, 95
4, 313920, Note_off_c, 4, 57, 95
4, 313920, Note_off_c, 4, 53, 95
4, 313920, Note_off_c, 4, 48, 95
4, 313920, Note_off_c, 4, 41, 95
4, 313920, Note_on_c, 4, 65, 95
4, 313920, Note_on_c, 4, 60, 95
4, 313920, Note_on_c, 4, 57, 95
4, 313920, Note_on_c, 4, 53, 95
4, 313920, Note_on_c, 4, 48, 95
4, 313920, Note_on_c, 4, 41, 95
4, 314160, Note_off_c, 4, 65, 95
4, 314160, Note_off_c, 4, 60, 95
4, 314160, Note_off_c, 4, 57, 95
4, 314160, Note_off_c, 4, 53, 95
4, 314160, Note_off_c, 4, 48, 95
4, 314160, Note_off_c, 4, 41, 95
4, 314160, Note_on_c, 4, 65, 95
4, 314160, Note_on_c, 4, 60, 95
4, 314160, Note_on_c, 4, 57, 95
4, 314160, Note_on_c, 4, 53, 95
4, 314160, Note_on_c, 4, 48, 95
4, 314160, Note_on_c, 4, 41, 95
4, 314400, Note_off_c, 4, 65, 95
4, 314400, Note_off_c, 4, 60, 95
4, 314400, Note_off_c, 4, 57, 95
4, 314400, Note_off_c, 4, 53, 95
4, 314400, Note_off_c, 4, 48, 95
4, 314400, Note_off_c, 4, 41, 95
4, 314400, Note_on_c, 4, 65, 95
4, 314400, Note_on_c, 4, 60, 95
4, 314400, Note_on_c, 4, 57, 95
4, 314400, Note_on_c, 4, 53, 95
4, 314400, Note_on_c, 4, 48, 95
4, 314400, Note_on_c, 4, 41, 95
4, 314640, Note_off_c, 4, 65, 95
4, 314640, Note_off_c, 4, 60, 95
4, 314640, Note_off_c, 4, 57, 95
4, 314640, Note_off_c, 4, 53, 95
4, 314640, Note_off_c, 4, 48, 95
4, 314640, Note_off_c, 4, 41, 95
4, 314640, Note_on_c, 5, 65, 95
4, 314640, Note_on_c, 5, 60, 95
4, 314640, Note_on_c, 5, 57, 95
4, 314640, Note_on_c, 5, 53, 95
4, 314640, Note_on_c, 4, 48, 95
4, 314640, Note_on_c, 5, 41, 95
4, 314760, Pitch_bend_c, 5, 9856
4, 314760, Pitch_bend_c, 5, 9856
4, 314760, Pitch_bend_c, 5, 9856
4, 314760, Pitch_bend_c, 5, 9856
4, 314760, Pitch_bend_c, 5, 9856
4, 314880, Pitch_bend_c, 5, 11648
4, 314880, Pitch_bend_c, 5, 8192
4, 314880, Note_off_c, 5, 65, 95
4, 314880, Pitch_bend_c, 5, 11648
4, 314880, Pitch_bend_c, 5, 8192
4, 314880, Note_off_c, 5, 60, 95
4, 314880, Pitch_bend_c, 5, 11648
4, 314880, Pitch_bend_c, 5, 8192
4, 314880, Note_off_c, 5, 57, 95
4, 314880, Pitch_bend_c, 5, 11648
4, 314880, Pitch_bend_c, 5, 8192
4, 314880, Note_off_c, 5, 53, 95
4, 314880, Note_off_c, 4, 48, 95
4, 314880, Pitch_bend_c, 5, 11648
4, 314880, Pitch_bend_c, 5, 8192
4, 314880, Note_off_c, 5, 41, 95
4, 314880, Note_on_c, 4, 70, 95
4, 314880, Note_on_c, 4, 65, 95
4, 314880, Note_on_c, 4, 62, 95
4, 314880, Note_on_c, 4, 58, 95
4, 314880, Note_on_c, 4, 46, 95
4, 315120, Note_off_c, 4, 70, 95
4, 315120, Note_off_c, 4, 65, 95
4, 315120, Note_off_c, 4, 62, 95
4, 315120, Note_off_c, 4, 58, 95
4, 315120, Note_off_c, 4, 46, 95
4, 315120, Note_on_c, 4, 70, 95
4, 315120, Note_on_c, 4, 65, 95
4, 315120, Note_on_c, 4, 62, 95
4, 315120, Note_on_c, 4, 58, 95
4, 315120, Note_on_c, 4, 46, 95
4, 315360, Note_off_c, 4, 70, 95
4, 315360, Note_off_c, 4, 65, 95
4, 315360, Note_off_c, 4, 62, 95
4, 315360, Note_off_c, 4, 58, 95
4, 315360, Note_off_c, 4, 46, 95
4, 315360, Note_on_c, 4, 70, 95
4, 315360, Note_on_c, 4, 65, 95
4, 315360, Note_on_c, 4, 62, 95
4, 315360, Note_on_c, 4, 58, 95
4, 315360, Note_on_c, 4, 46, 95
4, 315600, Note_off_c, 4, 70, 95
4, 315600, Note_off_c, 4, 65, 95
4, 315600, Note_off_c, 4, 62, 95
4, 315600, Note_off_c, 4, 58, 95
4, 315600, Note_off_c, 4, 46, 95
4, 315600, Note_on_c, 4, 70, 95
4, 315600, Note_on_c, 4, 65, 95
4, 315600, Note_on_c, 4, 62, 95
4, 315600, Note_on_c, 4, 58, 95
4, 315600, Note_on_c, 4, 46, 95
4, 315840, Note_off_c, 4, 70, 95
4, 315840, Note_off_c, 4, 65, 95
4, 315840, Note_off_c, 4, 62, 95
4, 315840, Note_off_c, 4, 58, 95
4, 315840, Note_off_c, 4, 46, 95
4, 315840, Note_on_c, 4, 70, 95
4, 315840, Note_on_c, 4, 65, 95
4, 315840, Note_on_c, 4, 62, 95
4, 315840, Note_on_c, 4, 58, 95
4, 315840, Note_on_c, 4, 46, 95
4, 316080, Note_off_c, 4, 70, 95
4, 316080, Note_off_c, 4, 65, 95
4, 316080, Note_off_c, 4, 62, 95
4, 316080, Note_off_c, 4, 58, 95
4, 316080, Note_off_c, 4, 46, 95
4, 316080, Note_on_c, 4, 70, 95
4, 316080, Note_on_c, 4, 65, 95
4, 316080, Note_on_c, 4, 62, 95
4, 316080, Note_on_c, 4, 58, 95
4, 316080, Note_on_c, 4, 46, 95
4, 316320, Note_off_c, 4, 70, 95
4, 316320, Note_off_c, 4, 65, 95
4, 316320, Note_off_c, 4, 62, 95
4, 316320, Note_off_c, 4, 58, 95
4, 316320, Note_off_c, 4, 46, 95
4, 316320, Note_on_c, 4, 70, 95
4, 316320, Note_on_c, 4, 65, 95
4, 316320, Note_on_c, 4, 62, 95
4, 316320, Note_on_c, 4, 58, 95
4, 316320, Note_on_c, 4, 46, 95
4, 316560, Note_off_c, 4, 70, 95
4, 316560, Note_off_c, 4, 65, 95
4, 316560, Note_off_c, 4, 62, 95
4, 316560, Note_off_c, 4, 58, 95
4, 316560, Note_off_c, 4, 46, 95
4, 316560, Note_on_c, 4, 70, 95
4, 316560, Note_on_c, 4, 65, 95
4, 316560, Note_on_c, 4, 62, 95
4, 316560, Note_on_c, 4, 58, 95
4, 316560, Note_on_c, 4, 46, 95
4, 316800, Note_off_c, 4, 70, 95
4, 316800, Note_off_c, 4, 65, 95
4, 316800, Note_off_c, 4, 62, 95
4, 316800, Note_off_c, 4, 58, 95
4, 316800, Note_off_c, 4, 46, 95
4, 316800, Note_on_c, 4, 70, 95
4, 316800, Note_on_c, 4, 65, 95
4, 316800, Note_on_c, 4, 62, 95
4, 316800, Note_on_c, 4, 58, 95
4, 317040, Note_off_c, 4, 70, 95
4, 317040, Note_off_c, 4, 65, 95
4, 317040, Note_off_c, 4, 62, 95
4, 317040, Note_off_c, 4, 58, 95
4, 317040, Note_on_c, 4, 70, 95
4, 317040, Note_on_c, 4, 65, 95
4, 317040, Note_on_c, 4, 63, 70
4, 317040, Note_on_c, 4, 58, 95
4, 317280, Note_off_c, 4, 70, 95
4, 317280, Note_off_c, 4, 65, 95
4, 317280, Note_off_c, 4, 63, 70
4, 317280, Note_off_c, 4, 58, 95
4, 317280, Note_on_c, 4, 70, 95
4, 317280, Note_on_c, 4, 65, 95
4, 317280, Note_on_c, 4, 63, 95
4, 317280, Note_on_c, 4, 58, 95
4, 317520, Note_off_c, 4, 70, 95
4, 317520, Note_off_c, 4, 65, 95
4, 317520, Note_off_c, 4, 63, 95
4, 317520, Note_off_c, 4, 58, 95
4, 317520, Note_on_c, 4, 70, 95
4, 317520, Note_on_c, 4, 65, 95
4, 317520, Note_on_c, 4, 63, 95
4, 317520, Note_on_c, 4, 58, 95
4, 317760, Note_off_c, 4, 70, 95
4, 317760, Note_off_c, 4, 65, 95
4, 317760, Note_off_c, 4, 63, 95
4, 317760, Note_off_c, 4, 58, 95
4, 317760, Note_on_c, 4, 70, 95
4, 317760, Note_on_c, 4, 65, 95
4, 317760, Note_on_c, 4, 63, 95
4, 317760, Note_on_c, 4, 58, 95
4, 318000, Note_off_c, 4, 70, 95
4, 318000, Note_off_c, 4, 65, 95
4, 318000, Note_off_c, 4, 63, 95
4, 318000, Note_off_c, 4, 58, 95
4, 318000, Note_on_c, 4, 70, 95
4, 318000, Note_on_c, 4, 65, 95
4, 318000, Note_on_c, 4, 63, 95
4, 318000, Note_on_c, 4, 58, 95
4, 318240, Note_off_c, 4, 70, 95
4, 318240, Note_off_c, 4, 65, 95
4, 318240, Note_off_c, 4, 63, 95
4, 318240, Note_off_c, 4, 58, 95
4, 318240, Note_on_c, 4, 70, 95
4, 318240, Note_on_c, 4, 65, 95
4, 318240, Note_on_c, 4, 63, 95
4, 318240, Note_on_c, 4, 58, 95
4, 318480, Note_off_c, 4, 70, 95
4, 318480, Note_off_c, 4, 65, 95
4, 318480, Note_off_c, 4, 63, 95
4, 318480, Note_off_c, 4, 58, 95
4, 318480, Note_on_c, 4, 70, 95
4, 318480, Note_on_c, 4, 65, 95
4, 318480, Note_on_c, 4, 63, 95
4, 318480, Note_on_c, 4, 58, 95
4, 318720, Note_off_c, 4, 70, 95
4, 318720, Note_off_c, 4, 65, 95
4, 318720, Note_off_c, 4, 63, 95
4, 318720, Note_off_c, 4, 58, 95
4, 318720, Note_on_c, 5, 70, 95
4, 318720, Note_on_c, 5, 65, 95
4, 318720, Note_on_c, 5, 63, 95
4, 318720, Note_on_c, 5, 58, 95
4, 318840, Pitch_bend_c, 5, 8832
4, 318840, Pitch_bend_c, 5, 8832
4, 318840, Pitch_bend_c, 5, 8832
4, 318840, Pitch_bend_c, 5, 8832
4, 318960, Pitch_bend_c, 5, 9600
4, 318960, Pitch_bend_c, 5, 8192
4, 318960, Note_off_c, 5, 70, 95
4, 318960, Pitch_bend_c, 5, 9600
4, 318960, Pitch_bend_c, 5, 8192
4, 318960, Note_off_c, 5, 65, 95
4, 318960, Pitch_bend_c, 5, 9600
4, 318960, Pitch_bend_c, 5, 8192
4, 318960, Note_off_c, 5, 63, 95
4, 318960, Pitch_bend_c, 5, 9600
4, 318960, Pitch_bend_c, 5, 8192
4, 318960, Note_off_c, 5, 58, 95
4, 318960, Note_on_c, 4, 72, 95
4, 318960, Note_on_c, 4, 67, 95
4, 318960, Note_on_c, 4, 65, 95
4, 318960, Note_on_c, 4, 60, 95
4, 319200, Note_off_c, 4, 72, 95
4, 319200, Note_off_c, 4, 67, 95
4, 319200, Note_off_c, 4, 65, 95
4, 319200, Note_off_c, 4, 60, 95
4, 319200, Note_on_c, 4, 72, 95
4, 319200, Note_on_c, 4, 67, 95
4, 319200, Note_on_c, 4, 65, 95
4, 319200, Note_on_c, 4, 60, 95
4, 319440, Note_off_c, 4, 72, 95
4, 319440, Note_off_c, 4, 67, 95
4, 319440, Note_off_c, 4, 65, 95
4, 319440, Note_off_c, 4, 60, 95
4, 319440, Note_on_c, 4, 72, 95
4, 319440, Note_on_c, 4, 67, 95
4, 319440, Note_on_c, 4, 65, 95
4, 319440, Note_on_c, 4, 60, 95
4, 319680, Note_off_c, 4, 72, 95
4, 319680, Note_off_c, 4, 67, 95
4, 319680, Note_off_c, 4, 65, 95
4, 319680, Note_off_c, 4, 60, 95
4, 319680, Note_on_c, 4, 72, 95
4, 319680, Note_on_c, 4, 67, 95
4, 319680, Note_on_c, 4, 65, 95
4, 319680, Note_on_c, 4, 60, 95
4, 320160, Note_off_c, 4, 72, 95
4, 320160, Note_off_c, 4, 67, 95
4, 320160, Note_off_c, 4, 65, 95
4, 320160, Note_off_c, 4, 60, 95
4, 320160, Note_on_c, 4, 72, 95
4, 320160, Note_on_c, 4, 67, 95
4, 320160, Note_on_c, 4, 65, 95
4, 320160, Note_on_c, 4, 60, 95
4, 320640, Note_off_c, 4, 72, 95
4, 320640, Note_off_c, 4, 67, 95
4, 320640, Note_off_c, 4, 65, 95
4, 320640, Note_off_c, 4, 60, 95
4, 320640, Note_on_c, 4, 72, 95
4, 320640, Note_on_c, 4, 67, 95
4, 320880, Note_off_c, 4, 72, 95
4, 320880, Note_off_c, 4, 67, 95
4, 320880, Note_on_c, 4, 69, 70
4, 321120, Note_off_c, 4, 69, 70
4, 321120, Note_on_c, 4, 72, 95
4, 321120, Note_on_c, 4, 67, 95
4, 321360, Note_off_c, 4, 72, 95
4, 321360, Note_off_c, 4, 67, 95
4, 321360, Note_on_c, 4, 69, 70
4, 321600, Note_off_c, 4, 69, 70
4, 321600, Note_on_c, 4, 72, 95
4, 321600, Note_on_c, 4, 67, 95
4, 321840, Note_off_c, 4, 72, 95
4, 321840, Note_off_c, 4, 67, 95
4, 321840, Note_on_c, 4, 65, 95
4, 322080, Note_off_c, 4, 65, 95
4, 322080, Note_on_c, 4, 63, 95
4, 322080, Note_on_c, 4, 58, 95
4, 322119, Note_off_c, 4, 63, 95
4, 322119, Note_off_c, 4, 58, 95
4, 322320, Note_on_c, 4, 63, 95
4, 322320, Note_on_c, 4, 58, 95
4, 322359, Note_off_c, 4, 63, 95
4, 322359, Note_off_c, 4, 58, 95
4, 322560, Note_on_c, 4, 65, 95
4, 322560, Pitch_bend_c, 5, 8192
4, 322560, Note_on_c, 5, 60, 95
4, 322567, Pitch_bend_c, 5, 8320
4, 322574, Pitch_bend_c, 5, 8448
4, 322581, Pitch_bend_c, 5, 8576
4, 322588, Pitch_bend_c, 5, 8704
4, 322595, Pitch_bend_c, 5, 8832
4, 322602, Pitch_bend_c, 5, 8960
4, 322609, Pitch_bend_c, 5, 9088
4, 322616, Pitch_bend_c, 5, 9216
4, 322623, Pitch_bend_c, 5, 9344
4, 322630, Pitch_bend_c, 5, 9472
4, 322637, Pitch_bend_c, 5, 9600
4, 322640, Pitch_bend_c, 5, 9600
4, 322800, Note_off_c, 4, 65, 95
4, 322800, Pitch_bend_c, 5, 9600
4, 322800, Pitch_bend_c, 5, 8192
4, 322800, Note_off_c, 5, 60, 95
4, 322800, Note_on_c, 4, 65, 95
4, 323040, Note_off_c, 4, 65, 95
4, 323040, Note_on_c, 4, 67, 95
4, 323280, Note_off_c, 4, 67, 95
4, 323280, Pitch_bend_c, 5, 9600
4, 323280, Note_on_c, 5, 60, 95
4, 323400, Pitch_bend_c, 5, 9600
4, 323410, Pitch_bend_c, 5, 9472
4, 323420, Pitch_bend_c, 5, 9344
4, 323430, Pitch_bend_c, 5, 9216
4, 323440, Pitch_bend_c, 5, 9088
4, 323450, Pitch_bend_c, 5, 8960
4, 323460, Pitch_bend_c, 5, 8832
4, 323470, Pitch_bend_c, 5, 8704
4, 323480, Pitch_bend_c, 5, 8576
4, 323490, Pitch_bend_c, 5, 8448
4, 323500, Pitch_bend_c, 5, 8320
4, 323510, Pitch_bend_c, 5, 8192
4, 323520, Pitch_bend_c, 5, 8192
4, 323760, Pitch_bend_c, 5, 8192
4, 323760, Pitch_bend_c, 5, 8192
4, 323760, Note_off_c, 5, 60, 95
4, 323760, Note_on_c, 4, 58, 95
4, 324000, Note_off_c, 4, 58, 95
4, 324000, Note_on_c, 4, 55, 95
4, 324240, Note_off_c, 4, 55, 95
4, 324240, Note_on_c, 4, 53, 95
4, 324480, Note_off_c, 4, 53, 95
4, 324480, Note_on_c, 4, 39, 95
4, 324960, Note_off_c, 4, 39, 95
4, 324960, Note_on_c, 4, 39, 95
4, 325440, Note_off_c, 4, 39, 95
4, 325440, Note_on_c, 4, 53, 95
4, 325600, Note_off_c, 4, 53, 95
4, 325600, Note_on_c, 4, 55, 70
4, 325760, Note_off_c, 4, 55, 70
4, 325760, Note_on_c, 4, 53, 70
4, 325920, Note_off_c, 4, 53, 70
4, 325920, Note_on_c, 4, 51, 95
4, 326160, Note_off_c, 4, 51, 95
4, 326160, Note_on_c, 4, 53, 70
4, 326400, Note_off_c, 4, 53, 70
4, 326400, Note_on_c, 4, 65, 95
4, 326400, Note_on_c, 4, 60, 95
4, 326400, Note_on_c, 4, 57, 95
4, 326400, Note_on_c, 4, 53, 95
4, 326400, Note_on_c, 4, 48, 95
4, 326400, Note_on_c, 4, 41, 95
4, 326880, Note_off_c, 4, 65, 95
4, 326880, Note_off_c, 4, 60, 95
4, 326880, Note_off_c, 4, 57, 95
4, 326880, Note_off_c, 4, 53, 95
4, 326880, Note_off_c, 4, 48, 95
4, 326880, Note_off_c, 4, 41, 95
4, 326880, Note_on_c, 4, 65, 95
4, 326880, Note_on_c, 4, 60, 95
4, 326880, Note_on_c, 4, 57, 95
4, 326880, Note_on_c, 4, 53, 95
4, 326880, Note_on_c, 4, 48, 95
4, 326880, Note_on_c, 4, 41, 95
4, 327120, Note_off_c, 4, 65, 95
4, 327120, Note_off_c, 4, 60, 95
4, 327120, Note_off_c, 4, 57, 95
4, 327120, Note_off_c, 4, 53, 95
4, 327120, Note_off_c, 4, 48, 95
4, 327120, Note_off_c, 4, 41, 95
4, 327120, Note_on_c, 4, 65, 95
4, 327120, Note_on_c, 4, 60, 95
4, 327120, Note_on_c, 4, 57, 95
4, 327120, Note_on_c, 4, 53, 95
4, 327120, Note_on_c, 4, 48, 95
4, 327120, Note_on_c, 4, 41, 95
4, 327360, Note_off_c, 4, 65, 95
4, 327360, Note_off_c, 4, 60, 95
4, 327360, Note_off_c, 4, 57, 95
4, 327360, Note_off_c, 4, 53, 95
4, 327360, Note_off_c, 4, 48, 95
4, 327360, Note_off_c, 4, 41, 95
4, 327360, Note_on_c, 4, 65, 95
4, 327360, Note_on_c, 4, 60, 95
4, 327360, Note_on_c, 4, 57, 95
4, 327360, Note_on_c, 4, 53, 95
4, 327360, Note_on_c, 4, 48, 95
4, 327360, Note_on_c, 4, 41, 95
4, 327600, Note_off_c, 4, 65, 95
4, 327600, Note_off_c, 4, 60, 95
4, 327600, Note_off_c, 4, 57, 95
4, 327600, Note_off_c, 4, 53, 95
4, 327600, Note_off_c, 4, 48, 95
4, 327600, Note_off_c, 4, 41, 95
4, 327600, Note_on_c, 4, 65, 95
4, 327600, Note_on_c, 4, 60, 95
4, 327600, Note_on_c, 4, 57, 95
4, 327600, Note_on_c, 4, 53, 95
4, 327600, Note_on_c, 4, 48, 95
4, 327600, Note_on_c, 4, 41, 95
4, 327840, Note_off_c, 4, 65, 95
4, 327840, Note_off_c, 4, 60, 95
4, 327840, Note_off_c, 4, 57, 95
4, 327840, Note_off_c, 4, 53, 95
4, 327840, Note_off_c, 4, 48, 95
4, 327840, Note_off_c, 4, 41, 95
4, 327840, Note_on_c, 4, 65, 95
4, 327840, Note_on_c, 4, 60, 95
4, 327840, Note_on_c, 4, 57, 95
4, 327840, Note_on_c, 4, 53, 95
4, 327840, Note_on_c, 4, 48, 95
4, 327840, Note_on_c, 4, 41, 95
4, 328080, Note_off_c, 4, 65, 95
4, 328080, Note_off_c, 4, 60, 95
4, 328080, Note_off_c, 4, 57, 95
4, 328080, Note_off_c, 4, 53, 95
4, 328080, Note_off_c, 4, 48, 95
4, 328080, Note_off_c, 4, 41, 95
4, 328080, Note_on_c, 4, 65, 95
4, 328080, Note_on_c, 4, 60, 95
4, 328080, Note_on_c, 4, 57, 95
4, 328080, Note_on_c, 4, 53, 95
4, 328080, Note_on_c, 4, 48, 95
4, 328080, Note_on_c, 4, 41, 95
4, 328320, Note_off_c, 4, 65, 95
4, 328320, Note_off_c, 4, 60, 95
4, 328320, Note_off_c, 4, 57, 95
4, 328320, Note_off_c, 4, 53, 95
4, 328320, Note_off_c, 4, 48, 95
4, 328320, Note_off_c, 4, 41, 95
4, 328320, Note_on_c, 4, 65, 95
4, 328320, Note_on_c, 4, 60, 95
4, 328320, Note_on_c, 4, 57, 95
4, 328320, Note_on_c, 4, 53, 95
4, 328320, Note_on_c, 4, 48, 95
4, 328320, Note_on_c, 4, 41, 95
4, 328560, Note_off_c, 4, 65, 95
4, 328560, Note_off_c, 4, 60, 95
4, 328560, Note_off_c, 4, 57, 95
4, 328560, Note_off_c, 4, 53, 95
4, 328560, Note_off_c, 4, 48, 95
4, 328560, Note_off_c, 4, 41, 95
4, 328560, Note_on_c, 4, 65, 95
4, 328560, Note_on_c, 4, 60, 95
4, 328560, Note_on_c, 4, 57, 95
4, 328560, Note_on_c, 4, 53, 95
4, 328560, Note_on_c, 4, 48, 95
4, 328560, Note_on_c, 4, 41, 95
4, 328800, Note_off_c, 4, 65, 95
4, 328800, Note_off_c, 4, 60, 95
4, 328800, Note_off_c, 4, 57, 95
4, 328800, Note_off_c, 4, 53, 95
4, 328800, Note_off_c, 4, 48, 95
4, 328800, Note_off_c, 4, 41, 95
4, 328800, Note_on_c, 4, 65, 95
4, 328800, Note_on_c, 4, 60, 95
4, 328800, Note_on_c, 4, 57, 95
4, 328800, Note_on_c, 4, 53, 95
4, 328800, Note_on_c, 4, 48, 95
4, 328800, Note_on_c, 4, 41, 95
4, 329040, Note_off_c, 4, 65, 95
4, 329040, Note_off_c, 4, 60, 95
4, 329040, Note_off_c, 4, 57, 95
4, 329040, Note_off_c, 4, 53, 95
4, 329040, Note_off_c, 4, 48, 95
4, 329040, Note_off_c, 4, 41, 95
4, 329040, Note_on_c, 4, 65, 95
4, 329040, Note_on_c, 4, 60, 95
4, 329040, Note_on_c, 4, 57, 95
4, 329040, Note_on_c, 4, 53, 95
4, 329040, Note_on_c, 4, 48, 95
4, 329040, Note_on_c, 4, 41, 95
4, 329280, Note_off_c, 4, 65, 95
4, 329280, Note_off_c, 4, 60, 95
4, 329280, Note_off_c, 4, 57, 95
4, 329280, Note_off_c, 4, 53, 95
4, 329280, Note_off_c, 4, 48, 95
4, 329280, Note_off_c, 4, 41, 95
4, 329280, Note_on_c, 4, 65, 95
4, 329280, Note_on_c, 4, 60, 95
4, 329280, Note_on_c, 4, 57, 95
4, 329280, Note_on_c, 4, 53, 95
4, 329280, Note_on_c, 4, 48, 95
4, 329280, Note_on_c, 4, 41, 95
4, 329520, Note_off_c, 4, 65, 95
4, 329520, Note_off_c, 4, 60, 95
4, 329520, Note_off_c, 4, 57, 95
4, 329520, Note_off_c, 4, 53, 95
4, 329520, Note_off_c, 4, 48, 95
4, 329520, Note_off_c, 4, 41, 95
4, 329520, Note_on_c, 4, 65, 95
4, 329520, Note_on_c, 4, 60, 95
4, 329520, Note_on_c, 4, 57, 95
4, 329520, Note_on_c, 4, 53, 95
4, 329520, Note_on_c, 4, 48, 95
4, 329520, Note_on_c, 4, 41, 95
4, 329760, Note_off_c, 4, 65, 95
4, 329760, Note_off_c, 4, 60, 95
4, 329760, Note_off_c, 4, 57, 95
4, 329760, Note_off_c, 4, 53, 95
4, 329760, Note_off_c, 4, 48, 95
4, 329760, Note_off_c, 4, 41, 95
4, 329760, Note_on_c, 4, 65, 95
4, 329760, Note_on_c, 4, 60, 95
4, 329760, Note_on_c, 4, 57, 95
4, 329760, Note_on_c, 4, 53, 95
4, 329760, Note_on_c, 4, 48, 95
4, 329760, Note_on_c, 4, 41, 95
4, 330000, Note_off_c, 4, 65, 95
4, 330000, Note_off_c, 4, 60, 95
4, 330000, Note_off_c, 4, 57, 95
4, 330000, Note_off_c, 4, 53, 95
4, 330000, Note_off_c, 4, 48, 95
4, 330000, Note_off_c, 4, 41, 95
4, 330000, Note_on_c, 4, 65, 95
4, 330000, Note_on_c, 4, 60, 95
4, 330000, Note_on_c, 4, 57, 95
4, 330000, Note_on_c, 4, 53, 95
4, 330000, Note_on_c, 4, 48, 95
4, 330000, Note_on_c, 4, 41, 95
4, 330240, Note_off_c, 4, 65, 95
4, 330240, Note_off_c, 4, 60, 95
4, 330240, Note_off_c, 4, 57, 95
4, 330240, Note_off_c, 4, 53, 95
4, 330240, Note_off_c, 4, 48, 95
4, 330240, Note_off_c, 4, 41, 95
4, 330240, Note_on_c, 4, 53, 95
4, 330480, Note_off_c, 4, 53, 95
4, 330480, Note_on_c, 4, 55, 95
4, 330720, Note_off_c, 4, 55, 95
4, 330720, Note_on_c, 4, 58, 95
4, 330960, Note_off_c, 4, 58, 95
4, 330960, Pitch_bend_c, 5, 8192
4, 330960, Note_on_c, 5, 60, 95
4, 330974, Pitch_bend_c, 5, 8320
4, 330988, Pitch_bend_c, 5, 8448
4, 331002, Pitch_bend_c, 5, 8576
4, 331016, Pitch_bend_c, 5, 8704
4, 331030, Pitch_bend_c, 5, 8832
4, 331044, Pitch_bend_c, 5, 8960
4, 331058, Pitch_bend_c, 5, 9088
4, 331072, Pitch_bend_c, 5, 9216
4, 331086, Pitch_bend_c, 5, 9344
4, 331100, Pitch_bend_c, 5, 9472
4, 331114, Pitch_bend_c, 5, 9600
4, 331120, Pitch_bend_c, 5, 9600
4, 331440, Pitch_bend_c, 5, 9600
4, 331440, Pitch_bend_c, 5, 8192
4, 331440, Note_off_c, 5, 60, 95
4, 331440, Note_on_c, 4, 70, 95
4, 331440, Note_on_c, 4, 65, 95
4, 331680, Note_off_c, 4, 70, 95
4, 331680, Note_off_c, 4, 65, 95
4, 331680, Pitch_bend_c, 5, 9600
4, 331680, Note_on_c, 5, 60, 95
4, 331740, Pitch_bend_c, 5, 9600
4, 331745, Pitch_bend_c, 5, 9472
4, 331750, Pitch_bend_c, 5, 9344
4, 331755, Pitch_bend_c, 5, 9216
4, 331760, Pitch_bend_c, 5, 9088
4, 331765, Pitch_bend_c, 5, 8960
4, 331770, Pitch_bend_c, 5, 8832
4, 331775, Pitch_bend_c, 5, 8704
4, 331780, Pitch_bend_c, 5, 8576
4, 331785, Pitch_bend_c, 5, 8448
4, 331790, Pitch_bend_c, 5, 8320
4, 331795, Pitch_bend_c, 5, 8192
4, 331800, Pitch_bend_c, 5, 8192
4, 331920, Pitch_bend_c, 5, 8192
4, 331920, Pitch_bend_c, 5, 8192
4, 331920, Note_off_c, 5, 60, 95
4, 331920, Note_on_c, 4, 58, 95
4, 332160, Note_off_c, 4, 58, 95
4, 332160, Note_on_c, 4, 39, 95
4, 333120, Note_off_c, 4, 39, 95
4, 333120, Note_on_c, 4, 53, 95
4, 333360, Note_off_c, 4, 53, 95
4, 333360, Note_on_c, 4, 55, 95
4, 333600, Note_off_c, 4, 55, 95
4, 333600, Note_on_c, 4, 51, 95
4, 333840, Note_off_c, 4, 51, 95
4, 333840, Note_on_c, 4, 53, 95
4, 334080, Note_off_c, 4, 53, 95
4, 334080, Note_on_c, 4, 65, 95
4, 334080, Note_on_c, 4, 60, 95
4, 334080, Note_on_c, 4, 57, 95
4, 334080, Note_on_c, 4, 53, 95
4, 334080, Note_on_c, 4, 48, 95
4, 334080, Note_on_c, 4, 41, 95
4, 334320, Note_off_c, 4, 65, 95
4, 334320, Note_off_c, 4, 60, 95
4, 334320, Note_off_c, 4, 57, 95
4, 334320, Note_off_c, 4, 53, 95
4, 334320, Note_off_c, 4, 48, 95
4, 334320, Note_off_c, 4, 41, 95
4, 334320, Note_on_c, 4, 65, 95
4, 334320, Note_on_c, 4, 60, 95
4, 334320, Note_on_c, 4, 57, 95
4, 334320, Note_on_c, 4, 53, 95
4, 334320, Note_on_c, 4, 48, 95
4, 334320, Note_on_c, 4, 41, 95
4, 334560, Note_off_c, 4, 65, 95
4, 334560, Note_off_c, 4, 60, 95
4, 334560, Note_off_c, 4, 57, 95
4, 334560, Note_off_c, 4, 53, 95
4, 334560, Note_off_c, 4, 48, 95
4, 334560, Note_off_c, 4, 41, 95
4, 334560, Note_on_c, 4, 65, 95
4, 334560, Note_on_c, 4, 60, 95
4, 334560, Note_on_c, 4, 57, 95
4, 334560, Note_on_c, 4, 53, 95
4, 334560, Note_on_c, 4, 48, 95
4, 334560, Note_on_c, 4, 41, 95
4, 334800, Note_off_c, 4, 65, 95
4, 334800, Note_off_c, 4, 60, 95
4, 334800, Note_off_c, 4, 57, 95
4, 334800, Note_off_c, 4, 53, 95
4, 334800, Note_off_c, 4, 48, 95
4, 334800, Note_off_c, 4, 41, 95
4, 334800, Note_on_c, 4, 65, 95
4, 334800, Note_on_c, 4, 60, 95
4, 334800, Note_on_c, 4, 57, 95
4, 334800, Note_on_c, 4, 53, 95
4, 334800, Note_on_c, 4, 48, 95
4, 334800, Note_on_c, 4, 41, 95
4, 335040, Note_off_c, 4, 65, 95
4, 335040, Note_off_c, 4, 60, 95
4, 335040, Note_off_c, 4, 57, 95
4, 335040, Note_off_c, 4, 53, 95
4, 335040, Note_off_c, 4, 48, 95
4, 335040, Note_off_c, 4, 41, 95
4, 335040, Note_on_c, 4, 65, 95
4, 335040, Note_on_c, 4, 60, 95
4, 335040, Note_on_c, 4, 57, 95
4, 335040, Note_on_c, 4, 53, 95
4, 335040, Note_on_c, 4, 48, 95
4, 335040, Note_on_c, 4, 41, 95
4, 335280, Note_off_c, 4, 65, 95
4, 335280, Note_off_c, 4, 60, 95
4, 335280, Note_off_c, 4, 57, 95
4, 335280, Note_off_c, 4, 53, 95
4, 335280, Note_off_c, 4, 48, 95
4, 335280, Note_off_c, 4, 41, 95
4, 335280, Note_on_c, 4, 65, 95
4, 335280, Note_on_c, 4, 60, 95
4, 335280, Note_on_c, 4, 57, 95
4, 335280, Note_on_c, 4, 53, 95
4, 335280, Note_on_c, 4, 48, 95
4, 335280, Note_on_c, 4, 41, 95
4, 335520, Note_off_c, 4, 65, 95
4, 335520, Note_off_c, 4, 60, 95
4, 335520, Note_off_c, 4, 57, 95
4, 335520, Note_off_c, 4, 53, 95
4, 335520, Note_off_c, 4, 48, 95
4, 335520, Note_off_c, 4, 41, 95
4, 335520, Note_on_c, 4, 65, 95
4, 335520, Note_on_c, 4, 60, 95
4, 335520, Note_on_c, 4, 57, 95
4, 335520, Note_on_c, 4, 53, 95
4, 335520, Note_on_c, 4, 48, 95
4, 335520, Note_on_c, 4, 41, 95
4, 335760, Note_off_c, 4, 65, 95
4, 335760, Note_off_c, 4, 60, 95
4, 335760, Note_off_c, 4, 57, 95
4, 335760, Note_off_c, 4, 53, 95
4, 335760, Note_off_c, 4, 48, 95
4, 335760, Note_off_c, 4, 41, 95
4, 335760, Note_on_c, 4, 65, 95
4, 335760, Note_on_c, 4, 60, 95
4, 335760, Note_on_c, 4, 57, 95
4, 335760, Note_on_c, 4, 53, 95
4, 335760, Note_on_c, 4, 48, 95
4, 335760, Note_on_c, 4, 41, 95
4, 336000, Note_off_c, 4, 65, 95
4, 336000, Note_off_c, 4, 60, 95
4, 336000, Note_off_c, 4, 57, 95
4, 336000, Note_off_c, 4, 53, 95
4, 336000, Note_off_c, 4, 48, 95
4, 336000, Note_off_c, 4, 41, 95
4, 336000, Note_on_c, 4, 65, 95
4, 336000, Note_on_c, 4, 60, 95
4, 336000, Note_on_c, 4, 57, 95
4, 336000, Note_on_c, 4, 53, 95
4, 336000, Note_on_c, 4, 48, 95
4, 336000, Note_on_c, 4, 41, 95
4, 336240, Note_off_c, 4, 65, 95
4, 336240, Note_off_c, 4, 60, 95
4, 336240, Note_off_c, 4, 57, 95
4, 336240, Note_off_c, 4, 53, 95
4, 336240, Note_off_c, 4, 48, 95
4, 336240, Note_off_c, 4, 41, 95
4, 336240, Note_on_c, 4, 65, 95
4, 336240, Note_on_c, 4, 60, 95
4, 336240, Note_on_c, 4, 57, 95
4, 336240, Note_on_c, 4, 53, 95
4, 336240, Note_on_c, 4, 48, 95
4, 336240, Note_on_c, 4, 41, 95
4, 336480, Note_off_c, 4, 65, 95
4, 336480, Note_off_c, 4, 60, 95
4, 336480, Note_off_c, 4, 57, 95
4, 336480, Note_off_c, 4, 53, 95
4, 336480, Note_off_c, 4, 48, 95
4, 336480, Note_off_c, 4, 41, 95
4, 336480, Note_on_c, 4, 65, 95
4, 336480, Note_on_c, 4, 60, 95
4, 336480, Note_on_c, 4, 57, 95
4, 336480, Note_on_c, 4, 53, 95
4, 336480, Note_on_c, 4, 48, 95
4, 336480, Note_on_c, 4, 41, 95
4, 336720, Note_off_c, 4, 65, 95
4, 336720, Note_off_c, 4, 60, 95
4, 336720, Note_off_c, 4, 57, 95
4, 336720, Note_off_c, 4, 53, 95
4, 336720, Note_off_c, 4, 48, 95
4, 336720, Note_off_c, 4, 41, 95
4, 336720, Note_on_c, 4, 65, 95
4, 336720, Note_on_c, 4, 60, 95
4, 336720, Note_on_c, 4, 57, 95
4, 336720, Note_on_c, 4, 53, 95
4, 336720, Note_on_c, 4, 48, 95
4, 336720, Note_on_c, 4, 41, 95
4, 336960, Note_off_c, 4, 65, 95
4, 336960, Note_off_c, 4, 60, 95
4, 336960, Note_off_c, 4, 57, 95
4, 336960, Note_off_c, 4, 53, 95
4, 336960, Note_off_c, 4, 48, 95
4, 336960, Note_off_c, 4, 41, 95
4, 336960, Note_on_c, 4, 65, 95
4, 336960, Note_on_c, 4, 60, 95
4, 336960, Note_on_c, 4, 57, 95
4, 336960, Note_on_c, 4, 53, 95
4, 336960, Note_on_c, 4, 48, 95
4, 336960, Note_on_c, 4, 41, 95
4, 337200, Note_off_c, 4, 65, 95
4, 337200, Note_off_c, 4, 60, 95
4, 337200, Note_off_c, 4, 57, 95
4, 337200, Note_off_c, 4, 53, 95
4, 337200, Note_off_c, 4, 48, 95
4, 337200, Note_off_c, 4, 41, 95
4, 337200, Note_on_c, 4, 65, 95
4, 337200, Note_on_c, 4, 60, 95
4, 337200, Note_on_c, 4, 57, 95
4, 337200, Note_on_c, 4, 53, 95
4, 337200, Note_on_c, 4, 48, 95
4, 337200, Note_on_c, 4, 41, 95
4, 337440, Note_off_c, 4, 65, 95
4, 337440, Note_off_c, 4, 60, 95
4, 337440, Note_off_c, 4, 57, 95
4, 337440, Note_off_c, 4, 53, 95
4, 337440, Note_off_c, 4, 48, 95
4, 337440, Note_off_c, 4, 41, 95
4, 337440, Note_on_c, 4, 65, 95
4, 337440, Note_on_c, 4, 60, 95
4, 337440, Note_on_c, 4, 57, 95
4, 337440, Note_on_c, 4, 53, 95
4, 337440, Note_on_c, 4, 48, 95
4, 337440, Note_on_c, 4, 41, 95
4, 337479, Note_off_c, 4, 65, 95
4, 337479, Note_off_c, 4, 60, 95
4, 337479, Note_off_c, 4, 57, 95
4, 337479, Note_off_c, 4, 53, 95
4, 337479, Note_off_c, 4, 48, 95
4, 337479, Note_off_c, 4, 41, 95
4, 337680, Note_on_c, 4, 65, 95
4, 337680, Note_on_c, 4, 60, 95
4, 337680, Note_on_c, 4, 57, 95
4, 337680, Note_on_c, 4, 53, 95
4, 337680, Note_on_c, 4, 48, 95
4, 337680, Note_on_c, 4, 41, 95
4, 337719, Note_off_c, 4, 65, 95
4, 337719, Note_off_c, 4, 60, 95
4, 337719, Note_off_c, 4, 57, 95
4, 337719, Note_off_c, 4, 53, 95
4, 337719, Note_off_c, 4, 48, 95
4, 337719, Note_off_c, 4, 41, 95
4, 337920, Note_on_c, 4, 62, 95
4, 337920, Note_on_c, 4, 58, 95
4, 337920, Note_on_c, 4, 53, 95
4, 337920, Note_on_c, 4, 46, 95
4, 337920, Note_on_c, 4, 41, 95
4, 338400, Note_off_c, 4, 62, 95
4, 338400, Note_off_c, 4, 58, 95
4, 338400, Note_off_c, 4, 53, 95
4, 338400, Note_off_c, 4, 46, 95
4, 338400, Note_off_c, 4, 41, 95
4, 338400, Note_on_c, 4, 62, 95
4, 338400, Note_on_c, 4, 58, 95
4, 338400, Note_on_c, 4, 53, 95
4, 338400, Note_on_c, 4, 46, 95
4, 338400, Note_on_c, 4, 41, 95
4, 338640, Note_off_c, 4, 62, 95
4, 338640, Note_off_c, 4, 58, 95
4, 338640, Note_off_c, 4, 53, 95
4, 338640, Note_off_c, 4, 46, 95
4, 338640, Note_off_c, 4, 41, 95
4, 338640, Note_on_c, 4, 62, 95
4, 338640, Note_on_c, 4, 58, 95
4, 338640, Note_on_c, 4, 53, 95
4, 338640, Note_on_c, 4, 46, 95
4, 338640, Note_on_c, 4, 41, 95
4, 338880, Note_off_c, 4, 62, 95
4, 338880, Note_off_c, 4, 58, 95
4, 338880, Note_off_c, 4, 53, 95
4, 338880, Note_off_c, 4, 46, 95
4, 338880, Note_off_c, 4, 41, 95
4, 338880, Note_on_c, 4, 62, 95
4, 338880, Note_on_c, 4, 58, 95
4, 338880, Note_on_c, 4, 53, 95
4, 338880, Note_on_c, 4, 46, 95
4, 338880, Note_on_c, 4, 41, 95
4, 339360, Note_off_c, 4, 62, 95
4, 339360, Note_off_c, 4, 58, 95
4, 339360, Note_off_c, 4, 53, 95
4, 339360, Note_off_c, 4, 46, 95
4, 339360, Note_off_c, 4, 41, 95
4, 339360, Note_on_c, 4, 62, 95
4, 339360, Note_on_c, 4, 58, 95
4, 339360, Note_on_c, 4, 53, 95
4, 339360, Note_on_c, 4, 46, 95
4, 339360, Note_on_c, 4, 41, 95
4, 339840, Note_off_c, 4, 62, 95
4, 339840, Note_off_c, 4, 58, 95
4, 339840, Note_off_c, 4, 53, 95
4, 339840, Note_off_c, 4, 46, 95
4, 339840, Note_off_c, 4, 41, 95
4, 339840, Note_on_c, 4, 67, 95
4, 339840, Note_on_c, 4, 63, 95
4, 339840, Note_on_c, 4, 58, 95
4, 339840, Note_on_c, 4, 51, 95
4, 339840, Note_on_c, 4, 39, 95
4, 340320, Note_off_c, 4, 67, 95
4, 340320, Note_off_c, 4, 63, 95
4, 340320, Note_off_c, 4, 58, 95
4, 340320, Note_off_c, 4, 51, 95
4, 340320, Note_off_c, 4, 39, 95
4, 340320, Note_on_c, 4, 67, 95
4, 340320, Note_on_c, 4, 63, 95
4, 340320, Note_on_c, 4, 58, 95
4, 340320, Note_on_c, 4, 51, 95
4, 340320, Note_on_c, 4, 39, 95
4, 340560, Note_off_c, 4, 67, 95
4, 340560, Note_off_c, 4, 63, 95
4, 340560, Note_off_c, 4, 58, 95
4, 340560, Note_off_c, 4, 51, 95
4, 340560, Note_off_c, 4, 39, 95
4, 340560, Note_on_c, 4, 67, 95
4, 340560, Note_on_c, 4, 63, 95
4, 340560, Note_on_c, 4, 58, 95
4, 340560, Note_on_c, 4, 51, 95
4, 340560, Note_on_c, 4, 39, 95
4, 340800, Note_off_c, 4, 67, 95
4, 340800, Note_off_c, 4, 63, 95
4, 340800, Note_off_c, 4, 58, 95
4, 340800, Note_off_c, 4, 51, 95
4, 340800, Note_off_c, 4, 39, 95
4, 340800, Note_on_c, 4, 67, 95
4, 340800, Note_on_c, 4, 63, 95
4, 340800, Note_on_c, 4, 58, 95
4, 340800, Note_on_c, 4, 51, 95
4, 340800, Note_on_c, 4, 39, 95
4, 341280, Note_off_c, 4, 67, 95
4, 341280, Note_off_c, 4, 63, 95
4, 341280, Note_off_c, 4, 58, 95
4, 341280, Note_off_c, 4, 51, 95
4, 341280, Note_off_c, 4, 39, 95
4, 341280, Note_on_c, 5, 67, 95
4, 341280, Note_on_c, 5, 63, 95
4, 341280, Note_on_c, 5, 58, 95
4, 341280, Note_on_c, 5, 51, 95
4, 341400, Pitch_bend_c, 5, 8832
4, 341400, Pitch_bend_c, 5, 8832
4, 341400, Pitch_bend_c, 5, 8832
4, 341400, Pitch_bend_c, 5, 8832
4, 341520, Pitch_bend_c, 5, 9600
4, 341520, Pitch_bend_c, 5, 8192
4, 341520, Note_off_c, 5, 67, 95
4, 341520, Pitch_bend_c, 5, 9600
4, 341520, Pitch_bend_c, 5, 8192
4, 341520, Note_off_c, 5, 63, 95
4, 341520, Pitch_bend_c, 5, 9600
4, 341520, Pitch_bend_c, 5, 8192
4, 341520, Note_off_c, 5, 58, 95
4, 341520, Pitch_bend_c, 5, 9600
4, 341520, Pitch_bend_c, 5, 8192
4, 341520, Note_off_c, 5, 51, 95
4, 341520, Note_on_c, 4, 69, 95
4, 341520, Note_on_c, 4, 65, 95
4, 341520, Note_on_c, 4, 60, 95
4, 341520, Note_on_c, 4, 53, 95
4, 341760, Note_off_c, 4, 69, 95
4, 341760, Note_off_c, 4, 65, 95
4, 341760, Note_off_c, 4, 60, 95
4, 341760, Note_off_c, 4, 53, 95
4, 341760, Note_on_c, 4, 69, 95
4, 341760, Note_on_c, 4, 65, 95
4, 341760, Note_on_c, 4, 60, 95
4, 341760, Note_on_c, 4, 53, 95
4, 342240, Note_off_c, 4, 69, 95
4, 342240, Note_off_c, 4, 65, 95
4, 342240, Note_off_c, 4, 60, 95
4, 342240, Note_off_c, 4, 53, 95
4, 342240, Note_on_c, 4, 69, 95
4, 342240, Note_on_c, 4, 65, 95
4, 342240, Note_on_c, 4, 60, 95
4, 342240, Note_on_c, 4, 53, 95
4, 342480, Note_off_c, 4, 69, 95
4, 342480, Note_off_c, 4, 65, 95
4, 342480, Note_off_c, 4, 60, 95
4, 342480, Note_off_c, 4, 53, 95
4, 342480, Note_on_c, 4, 69, 95
4, 342480, Note_on_c, 4, 65, 95
4, 342480, Note_on_c, 4, 60, 95
4, 342480, Note_on_c, 4, 53, 95
4, 342720, Note_off_c, 4, 69, 95
4, 342720, Note_off_c, 4, 65, 95
4, 342720, Note_off_c, 4, 60, 95
4, 342720, Note_off_c, 4, 53, 95
4, 342720, Note_on_c, 4, 69, 95
4, 342720, Note_on_c, 4, 65, 95
4, 342720, Note_on_c, 4, 60, 95
4, 342720, Note_on_c, 4, 53, 95
4, 342960, Note_off_c, 4, 69, 95
4, 342960, Note_off_c, 4, 65, 95
4, 342960, Note_off_c, 4, 60, 95
4, 342960, Note_off_c, 4, 53, 95
4, 342960, Note_on_c, 4, 69, 95
4, 342960, Note_on_c, 4, 65, 95
4, 342960, Note_on_c, 4, 60, 95
4, 342960, Note_on_c, 4, 53, 95
4, 343200, Note_off_c, 4, 69, 95
4, 343200, Note_off_c, 4, 65, 95
4, 343200, Note_off_c, 4, 60, 95
4, 343200, Note_off_c, 4, 53, 95
4, 343200, Note_on_c, 4, 69, 95
4, 343200, Note_on_c, 4, 65, 95
4, 343200, Note_on_c, 4, 60, 95
4, 343200, Note_on_c, 4, 53, 95
4, 343440, Note_off_c, 4, 69, 95
4, 343440, Note_off_c, 4, 65, 95
4, 343440, Note_off_c, 4, 60, 95
4, 343440, Note_off_c, 4, 53, 95
4, 343440, Note_on_c, 4, 69, 95
4, 343440, Note_on_c, 4, 65, 95
4, 343440, Note_on_c, 4, 60, 95
4, 343440, Note_on_c, 4, 53, 95
4, 343680, Note_off_c, 4, 69, 95
4, 343680, Note_off_c, 4, 65, 95
4, 343680, Note_off_c, 4, 60, 95
4, 343680, Note_off_c, 4, 53, 95
4, 343680, Note_on_c, 4, 69, 95
4, 343680, Note_on_c, 4, 65, 95
4, 343680, Note_on_c, 4, 60, 95
4, 343680, Note_on_c, 4, 53, 95
4, 343920, Note_off_c, 4, 69, 95
4, 343920, Note_off_c, 4, 65, 95
4, 343920, Note_off_c, 4, 60, 95
4, 343920, Note_off_c, 4, 53, 95
4, 343920, Note_on_c, 4, 69, 95
4, 343920, Note_on_c, 4, 65, 95
4, 343920, Note_on_c, 4, 60, 95
4, 343920, Note_on_c, 4, 53, 95
4, 344160, Note_off_c, 4, 69, 95
4, 344160, Note_off_c, 4, 65, 95
4, 344160, Note_off_c, 4, 60, 95
4, 344160, Note_off_c, 4, 53, 95
4, 344160, Note_on_c, 4, 69, 95
4, 344160, Note_on_c, 4, 65, 95
4, 344160, Note_on_c, 4, 60, 95
4, 344160, Note_on_c, 4, 53, 95
4, 344400, Note_off_c, 4, 69, 95
4, 344400, Note_off_c, 4, 65, 95
4, 344400, Note_off_c, 4, 60, 95
4, 344400, Note_off_c, 4, 53, 95
4, 344400, Note_on_c, 4, 69, 95
4, 344400, Note_on_c, 4, 65, 95
4, 344400, Note_on_c, 4, 60, 95
4, 344400, Note_on_c, 4, 53, 95
4, 344640, Note_off_c, 4, 69, 95
4, 344640, Note_off_c, 4, 65, 95
4, 344640, Note_off_c, 4, 60, 95
4, 344640, Note_off_c, 4, 53, 95
4, 344640, Note_on_c, 4, 69, 95
4, 344640, Note_on_c, 4, 65, 95
4, 344640, Note_on_c, 4, 60, 95
4, 344640, Note_on_c, 4, 53, 95
4, 344880, Note_off_c, 4, 69, 95
4, 344880, Note_off_c, 4, 65, 95
4, 344880, Note_off_c, 4, 60, 95
4, 344880, Note_off_c, 4, 53, 95
4, 344880, Note_on_c, 4, 69, 95
4, 344880, Note_on_c, 4, 65, 95
4, 344880, Note_on_c, 4, 60, 95
4, 344880, Note_on_c, 4, 53, 95
4, 345120, Note_off_c, 4, 69, 95
4, 345120, Note_off_c, 4, 65, 95
4, 345120, Note_off_c, 4, 60, 95
4, 345120, Note_off_c, 4, 53, 95
4, 345120, Note_on_c, 4, 58, 95
4, 345120, Note_on_c, 4, 54, 95
4, 345120, Note_on_c, 4, 49, 95
4, 345120, Note_on_c, 4, 44, 95
4, 345159, Note_off_c, 4, 58, 95
4, 345159, Note_off_c, 4, 54, 95
4, 345159, Note_off_c, 4, 49, 95
4, 345159, Note_off_c, 4, 44, 95
4, 345360, Note_on_c, 4, 58, 95
4, 345360, Note_on_c, 4, 54, 95
4, 345360, Note_on_c, 4, 49, 95
4, 345360, Note_on_c, 4, 44, 95
4, 345399, Note_off_c, 4, 58, 95
4, 345399, Note_off_c, 4, 54, 95
4, 345399, Note_off_c, 4, 49, 95
4, 345399, Note_off_c, 4, 44, 95
4, 345600, Note_on_c, 4, 58, 95
4, 345600, Note_on_c, 4, 54, 95
4, 345600, Note_on_c, 4, 49, 95
4, 345600, Note_on_c, 4, 44, 95
4, 345639, Note_off_c, 4, 58, 95
4, 345639, Note_off_c, 4, 54, 95
4, 345639, Note_off_c, 4, 49, 95
4, 345639, Note_off_c, 4, 44, 95
4, 345840, Note_on_c, 4, 69, 95
4, 346080, Note_off_c, 4, 69, 95
4, 346080, Note_on_c, 4, 70, 70
4, 346320, Note_off_c, 4, 70, 70
4, 346320, Note_on_c, 4, 72, 95
4, 346560, Note_off_c, 4, 72, 95
4, 346560, Note_on_c, 5, 77, 95
4, 346560, Note_on_c, 5, 72, 95
4, 346680, Pitch_bend_c, 5, 7552
4, 346680, Pitch_bend_c, 5, 7552
4, 346800, Pitch_bend_c, 5, 6784
4, 346800, Pitch_bend_c, 5, 6784
4, 346920, Pitch_bend_c, 5, 6144
4, 346920, Pitch_bend_c, 5, 6144
4, 347040, Pitch_bend_c, 5, 5376
4, 347040, Pitch_bend_c, 5, 8192
4, 347040, Note_off_c, 5, 77, 95
4, 347040, Pitch_bend_c, 5, 5376
4, 347040, Pitch_bend_c, 5, 8192
4, 347040, Note_off_c, 5, 72, 95
4, 347040, Note_on_c, 4, 73, 47
4, 347040, Note_on_c, 4, 68, 47
4, 347280, Note_off_c, 4, 73, 47
4, 347280, Note_off_c, 4, 68, 47
4, 347280, Note_on_c, 4, 72, 95
4, 347280, Pitch_bend_c, 5, 8192
4, 347280, Note_on_c, 5, 70, 95
4, 347301, Pitch_bend_c, 5, 8320
4, 347322, Pitch_bend_c, 5, 8448
4, 347343, Pitch_bend_c, 5, 8576
4, 347364, Pitch_bend_c, 5, 8704
4, 347385, Pitch_bend_c, 5, 8832
4, 347406, Pitch_bend_c, 5, 8960
4, 347427, Pitch_bend_c, 5, 9088
4, 347448, Pitch_bend_c, 5, 9216
4, 347469, Pitch_bend_c, 5, 9344
4, 347490, Pitch_bend_c, 5, 9472
4, 347511, Pitch_bend_c, 5, 9600
4, 347520, Pitch_bend_c, 5, 9600
4, 347760, Note_off_c, 4, 72, 95
4, 347760, Pitch_bend_c, 5, 9600
4, 347760, Pitch_bend_c, 5, 8192
4, 347760, Note_off_c, 5, 70, 95
4, 347760, Note_on_c, 4, 72, 95
4, 347760, Pitch_bend_c, 5, 8192
4, 347760, Note_on_c, 5, 70, 95
4, 347781, Pitch_bend_c, 5, 8320
4, 347802, Pitch_bend_c, 5, 8448
4, 347823, Pitch_bend_c, 5, 8576
4, 347844, Pitch_bend_c, 5, 8704
4, 347865, Pitch_bend_c, 5, 8832
4, 347886, Pitch_bend_c, 5, 8960
4, 347907, Pitch_bend_c, 5, 9088
4, 347928, Pitch_bend_c, 5, 9216
4, 347949, Pitch_bend_c, 5, 9344
4, 347970, Pitch_bend_c, 5, 9472
4, 347991, Pitch_bend_c, 5, 9600
4, 348000, Pitch_bend_c, 5, 9600
4, 348240, Note_off_c, 4, 72, 95
4, 348240, Pitch_bend_c, 5, 9600
4, 348240, Pitch_bend_c, 5, 8192
4, 348240, Note_off_c, 5, 70, 95
4, 348240, Note_on_c, 4, 77, 95
4, 348240, Note_on_c, 4, 72, 95
4, 348480, Note_off_c, 4, 77, 95
4, 348480, Note_off_c, 4, 72, 95
4, 348480, Note_on_c, 4, 77, 95
4, 348480, Note_on_c, 4, 72, 95
4, 348720, Note_off_c, 4, 77, 95
4, 348720, Note_off_c, 4, 72, 95
4, 348720, Note_on_c, 4, 77, 95
4, 348720, Note_on_c, 4, 72, 95
4, 348960, Note_off_c, 4, 77, 95
4, 348960, Note_off_c, 4, 72, 95
4, 348960, Note_on_c, 4, 77, 95
4, 348960, Note_on_c, 4, 72, 95
4, 349200, Note_off_c, 4, 77, 95
4, 349200, Note_off_c, 4, 72, 95
4, 349200, Note_on_c, 4, 77, 95
4, 349200, Note_on_c, 4, 72, 95
4, 349440, Note_off_c, 4, 77, 95
4, 349440, Note_off_c, 4, 72, 95
4, 349440, Pitch_bend_c, 5, 8192
4, 349440, Note_on_c, 5, 75, 95
4, 349454, Pitch_bend_c, 5, 8320
4, 349468, Pitch_bend_c, 5, 8448
4, 349482, Pitch_bend_c, 5, 8576
4, 349496, Pitch_bend_c, 5, 8704
4, 349510, Pitch_bend_c, 5, 8832
4, 349524, Pitch_bend_c, 5, 8960
4, 349538, Pitch_bend_c, 5, 9088
4, 349552, Pitch_bend_c, 5, 9216
4, 349566, Pitch_bend_c, 5, 9344
4, 349580, Pitch_bend_c, 5, 9472
4, 349594, Pitch_bend_c, 5, 9600
4, 349600, Pitch_bend_c, 5, 9600
4, 350400, Pitch_bend_c, 5, 9600
4, 350400, Pitch_bend_c, 5, 8192
4, 350400, Note_off_c, 5, 75, 95
4, 350400, Note_on_c, 4, 80, 95
4, 350640, Note_off_c, 4, 80, 95
4, 350640, Note_on_c, 4, 80, 95
4, 350880, Note_off_c, 4, 80, 95
4, 350880, Note_on_c, 4, 80, 95
4, 351120, Note_off_c, 4, 80, 95
4, 351120, Pitch_bend_c, 5, 9600
4, 351120, Note_on_c, 5, 75, 95
4, 351360, Pitch_bend_c, 5, 9600
4, 351360, Pitch_bend_c, 5, 8192
4, 351360, Note_off_c, 5, 75, 95
4, 351360, Pitch_bend_c, 5, 9600
4, 351360, Note_on_c, 5, 75, 95
4, 351600, Pitch_bend_c, 5, 9600
4, 351600, Pitch_bend_c, 5, 8192
4, 351600, Note_off_c, 5, 75, 95
4, 351600, Pitch_bend_c, 5, 9600
4, 351600, Note_on_c, 5, 75, 95
4, 351840, Pitch_bend_c, 5, 9600
4, 351840, Pitch_bend_c, 5, 8192
4, 351840, Note_off_c, 5, 75, 95
4, 351840, Pitch_bend_c, 5, 9600
4, 351840, Note_on_c, 5, 75, 95
4, 351960, Pitch_bend_c, 5, 9600
4, 351970, Pitch_bend_c, 5, 9472
4, 351980, Pitch_bend_c, 5, 9344
4, 351990, Pitch_bend_c, 5, 9216
4, 352000, Pitch_bend_c, 5, 9088
4, 352010, Pitch_bend_c, 5, 8960
4, 352020, Pitch_bend_c, 5, 8832
4, 352030, Pitch_bend_c, 5, 8704
4, 352040, Pitch_bend_c, 5, 8576
4, 352050, Pitch_bend_c, 5, 8448
4, 352060, Pitch_bend_c, 5, 8320
4, 352070, Pitch_bend_c, 5, 8192
4, 352080, Pitch_bend_c, 5, 8192
4, 352320, Pitch_bend_c, 5, 8192
4, 352320, Pitch_bend_c, 5, 8192
4, 352320, Note_off_c, 5, 75, 95
4, 352320, Pitch_bend_c, 5, 8192
4, 352320, Note_on_c, 5, 73, 95
4, 352440, Pitch_bend_c, 5, 8320
4, 352560, Pitch_bend_c, 5, 8448
4, 352560, Pitch_bend_c, 5, 8448
4, 352800, Pitch_bend_c, 5, 8448
4, 352800, Pitch_bend_c, 5, 8192
4, 352800, Note_off_c, 5, 73, 95
4, 352800, Note_on_c, 4, 49, 95
4, 352800, Note_on_c, 4, 44, 95
4, 352800, Note_on_c, 4, 39, 95
4, 352839, Note_off_c, 4, 49, 95
4, 352839, Note_off_c, 4, 44, 95
4, 352839, Note_off_c, 4, 39, 95
4, 353280, Note_on_c, 4, 46, 95
4, 353310, Note_on_c, 4, 53, 95
4, 353340, Note_on_c, 4, 58, 95
4, 353370, Note_on_c, 4, 62, 95
4, 360960, Note_off_c, 4, 62, 95
4, 360960, Note_off_c, 4, 58, 95
4, 360960, Note_off_c, 4, 53, 95
4, 360960, Note_off_c, 4, 46, 95
4, 360960, End_track
5, 0, Start_track
5, 0, Pitch_bend_c, 2, 8192
5, 0, Control_c, 2, 7, 103
5, 0, Control_c, 2, 10, 95
5, 0, Control_c, 2, 93, 31
5, 0, Control_c, 2, 91, 31
5, 0, Control_c, 2, 95, 0
5, 0, Control_c, 2, 92, 0
5, 0, Control_c, 2, 11, 127
5, 0, Program_c, 2, 33
5, 0, Control_c, 3, 7, 103
5, 0, Control_c, 3, 10, 95
5, 0, Control_c, 3, 93, 31
5, 0, Control_c, 3, 91, 31
5, 0, Control_c, 3, 95, 0
5, 0, Control_c, 3, 92, 0
5, 0, Control_c, 3, 11, 127
5, 0, Program_c, 3, 33
5, 14400, Note_on_c, 2, 34, 95
5, 14880, Note_off_c, 2, 34, 95
5, 14880, Note_on_c, 2, 34, 95
5, 15360, Note_off_c, 2, 34, 95
5, 15360, Note_on_c, 2, 34, 95
5, 17280, Note_off_c, 2, 34, 95
5, 17280, Note_on_c, 2, 39, 95
5, 17760, Note_off_c, 2, 39, 95
5, 17760, Note_on_c, 2, 39, 95
5, 18240, Note_off_c, 2, 39, 95
5, 18240, Note_on_c, 2, 46, 95
5, 18720, Note_off_c, 2, 46, 95
5, 18720, Note_on_c, 2, 46, 95
5, 18960, Note_off_c, 2, 46, 95
5, 18960, Note_on_c, 2, 36, 95
5, 19200, Note_off_c, 2, 36, 95
5, 19200, Note_on_c, 2, 41, 95
5, 19680, Note_off_c, 2, 41, 95
5, 19680, Note_on_c, 2, 41, 95
5, 19920, Note_off_c, 2, 41, 95
5, 19920, Note_on_c, 2, 41, 95
5, 20160, Note_off_c, 2, 41, 95
5, 20160, Note_on_c, 2, 41, 95
5, 20880, Note_off_c, 2, 41, 95
5, 20880, Note_on_c, 2, 36, 95
5, 21120, Note_off_c, 2, 36, 95
5, 21120, Note_on_c, 2, 36, 95
5, 21360, Note_off_c, 2, 36, 95
5, 21360, Note_on_c, 2, 39, 95
5, 21600, Note_off_c, 2, 39, 95
5, 21600, Note_on_c, 2, 41, 95
5, 22080, Note_off_c, 2, 41, 95
5, 22080, Note_on_c, 2, 41, 95
5, 22320, Note_off_c, 2, 41, 95
5, 22320, Note_on_c, 2, 36, 95
5, 22560, Note_off_c, 2, 36, 95
5, 22560, Note_on_c, 2, 39, 95
5, 22800, Note_off_c, 2, 39, 95
5, 22800, Note_on_c, 2, 41, 95
5, 23040, Note_off_c, 2, 41, 95
5, 23040, Note_on_c, 2, 34, 95
5, 24000, Note_off_c, 2, 34, 95
5, 24000, Note_on_c, 2, 46, 95
5, 24960, Note_off_c, 2, 46, 95
5, 24960, Note_on_c, 2, 39, 95
5, 25440, Note_off_c, 2, 39, 95
5, 25440, Note_on_c, 2, 27, 95
5, 25920, Note_off_c, 2, 27, 95
5, 25920, Note_on_c, 2, 39, 95
5, 26400, Note_off_c, 2, 39, 95
5, 26400, Note_on_c, 2, 27, 95
5, 26880, Note_off_c, 2, 27, 95
5, 26880, Note_on_c, 2, 41, 95
5, 27840, Note_off_c, 2, 41, 95
5, 27840, Note_on_c, 2, 41, 95
5, 28320, Note_off_c, 2, 41, 95
5, 28320, Note_on_c, 2, 41, 95
5, 28800, Note_off_c, 2, 41, 95
5, 28800, Note_on_c, 2, 36, 95
5, 29280, Note_off_c, 2, 36, 95
5, 29280, Note_on_c, 2, 41, 95
5, 29440, Note_off_c, 2, 41, 95
5, 29600, Note_on_c, 2, 36, 95
5, 29760, Note_off_c, 2, 36, 95
5, 29760, Note_on_c, 2, 41, 95
5, 30080, Note_off_c, 2, 41, 95
5, 30080, Note_on_c, 2, 39, 95
5, 30240, Note_off_c, 2, 39, 95
5, 30240, Note_on_c, 2, 41, 95
5, 30720, Note_off_c, 2, 41, 95
5, 30720, Note_on_c, 2, 34, 95
5, 31200, Note_off_c, 2, 34, 95
5, 32160, Note_on_c, 2, 34, 95
5, 32640, Note_off_c, 2, 34, 95
5, 32640, Note_on_c, 2, 39, 95
5, 33120, Note_off_c, 2, 39, 95
5, 33120, Note_on_c, 2, 39, 95
5, 33600, Note_off_c, 2, 39, 95
5, 33600, Note_on_c, 2, 39, 95
5, 34080, Note_off_c, 2, 39, 95
5, 34080, Note_on_c, 2, 39, 95
5, 34560, Note_off_c, 2, 39, 95
5, 34560, Note_on_c, 2, 41, 95
5, 36480, Note_off_c, 2, 41, 95
5, 36480, Note_on_c, 2, 41, 95
5, 37200, Note_off_c, 2, 41, 95
5, 37200, Note_on_c, 2, 36, 95
5, 37440, Note_off_c, 2, 36, 95
5, 37440, Note_on_c, 2, 41, 95
5, 37920, Note_off_c, 2, 41, 95
5, 37920, Note_on_c, 2, 41, 95
5, 38400, Note_off_c, 2, 41, 95
5, 38400, Note_on_c, 2, 34, 95
5, 39360, Note_off_c, 2, 34, 95
5, 39360, Note_on_c, 2, 46, 95
5, 39840, Note_off_c, 2, 46, 95
5, 39840, Note_on_c, 2, 44, 95
5, 40320, Note_off_c, 2, 44, 95
5, 40320, Note_on_c, 2, 39, 95
5, 41280, Note_off_c, 2, 39, 95
5, 41280, Note_on_c, 2, 46, 95
5, 42000, Note_off_c, 2, 46, 95
5, 42000, Note_on_c, 2, 48, 95
5, 42240, Note_off_c, 2, 48, 95
5, 42240, Note_on_c, 2, 41, 95
5, 43200, Note_off_c, 2, 41, 95
5, 43200, Note_on_c, 2, 48, 95
5, 43680, Note_off_c, 2, 48, 95
5, 43680, Note_on_c, 2, 41, 95
5, 43920, Note_off_c, 2, 41, 95
5, 43920, Note_on_c, 2, 48, 95
5, 44160, Note_off_c, 2, 48, 95
5, 44160, Note_on_c, 2, 41, 95
5, 44400, Note_off_c, 2, 41, 95
5, 44400, Note_on_c, 2, 48, 95
5, 44640, Note_off_c, 2, 48, 95
5, 44640, Note_on_c, 2, 50, 95
5, 44880, Note_off_c, 2, 50, 95
5, 44880, Note_on_c, 2, 41, 95
5, 45120, Note_off_c, 2, 41, 95
5, 45120, Note_on_c, 2, 48, 95
5, 45600, Note_off_c, 2, 48, 95
5, 46080, Note_on_c, 2, 34, 95
5, 47040, Note_off_c, 2, 34, 95
5, 48000, Note_on_c, 2, 39, 95
5, 48480, Note_off_c, 2, 39, 95
5, 48480, Note_on_c, 2, 39, 95
5, 48960, Note_off_c, 2, 39, 95
5, 48960, Note_on_c, 2, 39, 95
5, 49440, Note_off_c, 2, 39, 95
5, 49440, Note_on_c, 2, 39, 95
5, 49920, Note_off_c, 2, 39, 95
5, 49920, Note_on_c, 2, 41, 95
5, 51840, Note_off_c, 2, 41, 95
5, 51840, Note_on_c, 2, 41, 95
5, 52320, Note_off_c, 2, 41, 95
5, 52320, Note_on_c, 2, 41, 95
5, 52800, Note_off_c, 2, 41, 95
5, 52800, Note_on_c, 2, 41, 95
5, 53280, Note_off_c, 2, 41, 95
5, 53280, Note_on_c, 2, 41, 95
5, 53760, Note_off_c, 2, 41, 95
5, 53760, Note_on_c, 2, 34, 95
5, 55200, Note_off_c, 2, 34, 95
5, 55200, Note_on_c, 2, 34, 95
5, 55680, Note_off_c, 2, 34, 95
5, 55680, Note_on_c, 2, 39, 95
5, 56160, Note_off_c, 2, 39, 95
5, 56160, Note_on_c, 2, 39, 95
5, 56640, Note_off_c, 2, 39, 95
5, 56640, Note_on_c, 2, 39, 95
5, 57120, Note_off_c, 2, 39, 95
5, 57120, Note_on_c, 2, 39, 95
5, 57600, Note_off_c, 2, 39, 95
5, 57600, Note_on_c, 2, 41, 95
5, 58560, Note_off_c, 2, 41, 95
5, 58560, Note_on_c, 2, 41, 95
5, 59520, Note_off_c, 2, 41, 95
5, 59520, Note_on_c, 2, 41, 95
5, 60000, Note_off_c, 2, 41, 95
5, 60000, Note_on_c, 2, 41, 95
5, 60480, Note_off_c, 2, 41, 95
5, 60480, Note_on_c, 2, 41, 95
5, 60960, Note_off_c, 2, 41, 95
5, 60960, Note_on_c, 2, 41, 95
5, 61200, Note_off_c, 2, 41, 95
5, 61200, Note_on_c, 2, 43, 70
5, 61440, Note_off_c, 2, 43, 70
5, 61440, Note_on_c, 2, 34, 95
5, 62880, Note_off_c, 2, 34, 95
5, 62880, Note_on_c, 2, 34, 95
5, 63360, Note_off_c, 2, 34, 95
5, 63360, Note_on_c, 2, 39, 95
5, 64800, Note_off_c, 2, 39, 95
5, 64800, Note_on_c, 2, 39, 95
5, 65280, Note_off_c, 2, 39, 95
5, 65280, Note_on_c, 2, 39, 95
5, 65760, Note_off_c, 2, 39, 95
5, 65760, Note_on_c, 2, 41, 70
5, 66240, Note_off_c, 2, 41, 70
5, 66240, Note_on_c, 2, 41, 95
5, 67200, Note_off_c, 2, 41, 95
5, 67200, Note_on_c, 2, 41, 95
5, 67680, Note_off_c, 2, 41, 95
5, 67680, Note_on_c, 2, 41, 47
5, 68160, Note_off_c, 2, 41, 47
5, 68160, Note_on_c, 2, 41, 95
5, 68640, Note_off_c, 2, 41, 95
5, 68640, Note_on_c, 2, 41, 47
5, 69120, Note_off_c, 2, 41, 47
5, 69120, Note_on_c, 2, 34, 95
5, 71040, Note_off_c, 2, 34, 95
5, 71040, Note_on_c, 2, 39, 95
5, 71520, Note_off_c, 2, 39, 95
5, 71520, Note_on_c, 2, 39, 95
5, 72000, Note_off_c, 2, 39, 95
5, 72000, Note_on_c, 2, 39, 95
5, 72480, Note_off_c, 2, 39, 95
5, 72480, Note_on_c, 2, 39, 95
5, 72960, Note_off_c, 2, 39, 95
5, 72960, Note_on_c, 2, 39, 95
5, 73200, Note_off_c, 2, 39, 95
5, 73200, Note_on_c, 2, 41, 70
5, 73440, Note_off_c, 2, 41, 70
5, 73440, Note_on_c, 2, 41, 95
5, 73920, Note_off_c, 2, 41, 95
5, 73920, Note_on_c, 2, 41, 95
5, 74400, Note_off_c, 2, 41, 95
5, 74400, Note_on_c, 2, 41, 95
5, 74880, Note_off_c, 2, 41, 95
5, 74880, Note_on_c, 2, 39, 95
5, 75120, Note_off_c, 2, 39, 95
5, 75120, Note_on_c, 2, 41, 70
5, 75360, Note_off_c, 2, 41, 70
5, 75360, Note_on_c, 2, 41, 95
5, 75840, Note_off_c, 2, 41, 95
5, 75840, Note_on_c, 2, 41, 95
5, 76320, Note_off_c, 2, 41, 95
5, 76320, Note_on_c, 2, 43, 95
5, 76800, Note_off_c, 2, 43, 95
5, 76800, Note_on_c, 2, 34, 95
5, 77760, Note_off_c, 2, 34, 95
5, 77760, Note_on_c, 2, 44, 95
5, 78240, Note_off_c, 2, 44, 95
5, 78240, Note_on_c, 2, 46, 95
5, 78720, Note_off_c, 2, 46, 95
5, 78720, Note_on_c, 2, 39, 95
5, 79200, Note_off_c, 2, 39, 95
5, 79200, Note_on_c, 2, 39, 95
5, 79680, Note_off_c, 2, 39, 95
5, 79680, Note_on_c, 2, 39, 95
5, 80160, Note_off_c, 2, 39, 95
5, 80160, Note_on_c, 2, 39, 95
5, 80640, Note_off_c, 2, 39, 95
5, 80640, Note_on_c, 2, 41, 95
5, 81120, Note_off_c, 2, 41, 95
5, 81120, Note_on_c, 2, 41, 95
5, 81360, Note_off_c, 2, 41, 95
5, 81360, Note_on_c, 2, 41, 95
5, 81600, Note_off_c, 2, 41, 95
5, 81600, Note_on_c, 2, 41, 95
5, 81840, Note_off_c, 2, 41, 95
5, 81840, Note_on_c, 2, 41, 95
5, 82080, Note_off_c, 2, 41, 95
5, 82080, Note_on_c, 2, 41, 95
5, 82320, Note_off_c, 2, 41, 95
5, 82320, Note_on_c, 2, 41, 95
5, 82560, Note_off_c, 2, 41, 95
5, 82560, Note_on_c, 2, 41, 95
5, 82800, Note_off_c, 2, 41, 95
5, 82800, Note_on_c, 2, 41, 95
5, 83040, Note_off_c, 2, 41, 95
5, 83040, Note_on_c, 2, 41, 95
5, 83280, Note_off_c, 2, 41, 95
5, 83280, Note_on_c, 2, 41, 95
5, 83520, Note_off_c, 2, 41, 95
5, 83520, Note_on_c, 2, 41, 95
5, 83760, Note_off_c, 2, 41, 95
5, 83760, Note_on_c, 2, 36, 95
5, 84000, Note_off_c, 2, 36, 95
5, 84000, Note_on_c, 2, 39, 95
5, 84240, Note_off_c, 2, 39, 95
5, 84240, Note_on_c, 2, 40, 95
5, 84480, Note_off_c, 2, 40, 95
5, 84480, Note_on_c, 2, 41, 95
5, 84720, Note_off_c, 2, 41, 95
5, 84720, Note_on_c, 2, 41, 95
5, 84960, Note_off_c, 2, 41, 95
5, 84960, Note_on_c, 2, 41, 95
5, 85200, Note_off_c, 2, 41, 95
5, 85200, Note_on_c, 2, 41, 95
5, 85440, Note_off_c, 2, 41, 95
5, 85440, Note_on_c, 2, 41, 95
5, 85680, Note_off_c, 2, 41, 95
5, 85680, Note_on_c, 2, 41, 95
5, 85920, Note_off_c, 2, 41, 95
5, 85920, Note_on_c, 2, 41, 95
5, 86160, Note_off_c, 2, 41, 95
5, 86160, Note_on_c, 2, 41, 95
5, 86400, Note_off_c, 2, 41, 95
5, 86400, Note_on_c, 2, 41, 95
5, 86640, Note_off_c, 2, 41, 95
5, 86640, Note_on_c, 2, 41, 95
5, 86880, Note_off_c, 2, 41, 95
5, 86880, Note_on_c, 2, 41, 95
5, 87120, Note_off_c, 2, 41, 95
5, 87120, Note_on_c, 2, 41, 95
5, 87360, Note_off_c, 2, 41, 95
5, 87360, Note_on_c, 2, 41, 95
5, 87600, Note_off_c, 2, 41, 95
5, 87600, Note_on_c, 2, 41, 95
5, 87840, Note_off_c, 2, 41, 95
5, 87840, Note_on_c, 2, 39, 95
5, 88080, Note_off_c, 2, 39, 95
5, 88080, Note_on_c, 2, 40, 95
5, 88320, Note_off_c, 2, 40, 95
5, 88320, Note_on_c, 2, 41, 95
5, 88560, Note_off_c, 2, 41, 95
5, 88560, Note_on_c, 2, 41, 95
5, 88800, Note_off_c, 2, 41, 95
5, 88800, Note_on_c, 2, 41, 95
5, 89040, Note_off_c, 2, 41, 95
5, 89040, Note_on_c, 2, 41, 95
5, 89280, Note_off_c, 2, 41, 95
5, 89280, Note_on_c, 2, 41, 95
5, 89520, Note_off_c, 2, 41, 95
5, 89520, Note_on_c, 2, 41, 95
5, 89760, Note_off_c, 2, 41, 95
5, 89760, Note_on_c, 2, 41, 95
5, 90000, Note_off_c, 2, 41, 95
5, 90000, Note_on_c, 2, 41, 95
5, 90240, Note_off_c, 2, 41, 95
5, 90240, Note_on_c, 2, 41, 95
5, 90480, Note_off_c, 2, 41, 95
5, 90480, Note_on_c, 2, 41, 95
5, 90720, Note_off_c, 2, 41, 95
5, 90720, Note_on_c, 2, 41, 95
5, 90960, Note_off_c, 2, 41, 95
5, 90960, Note_on_c, 2, 41, 95
5, 91200, Note_off_c, 2, 41, 95
5, 91200, Note_on_c, 2, 39, 95
5, 91440, Note_off_c, 2, 39, 95
5, 91440, Note_on_c, 2, 41, 70
5, 91680, Note_off_c, 2, 41, 70
5, 91680, Note_on_c, 3, 41, 95
5, 91800, Pitch_bend_c, 3, 8832
5, 91920, Pitch_bend_c, 3, 9600
5, 91920, Pitch_bend_c, 3, 8192
5, 91920, Note_off_c, 3, 41, 95
5, 91920, Note_on_c, 2, 43, 95
5, 92160, Note_off_c, 2, 43, 95
5, 92160, Note_on_c, 2, 34, 95
5, 94080, Note_off_c, 2, 34, 95
5, 94080, Note_on_c, 2, 36, 95
5, 96000, Note_off_c, 2, 36, 95
5, 96000, Note_on_c, 2, 38, 95
5, 97920, Note_off_c, 2, 38, 95
5, 97920, Note_on_c, 2, 39, 95
5, 98640, Note_off_c, 2, 39, 95
5, 98640, Note_on_c, 2, 36, 95
5, 98880, Note_off_c, 2, 36, 95
5, 98880, Note_on_c, 2, 39, 95
5, 99360, Note_off_c, 2, 39, 95
5, 99360, Note_on_c, 2, 36, 95
5, 99840, Note_off_c, 2, 36, 95
5, 99840, Note_on_c, 2, 41, 95
5, 101760, Note_off_c, 2, 41, 95
5, 101760, Note_on_c, 2, 41, 95
5, 102240, Note_off_c, 2, 41, 95
5, 102240, Note_on_c, 2, 41, 95
5, 102720, Note_off_c, 2, 41, 95
5, 102720, Note_on_c, 2, 41, 95
5, 102960, Note_off_c, 2, 41, 95
5, 102960, Note_on_c, 2, 36, 95
5, 103200, Note_off_c, 2, 36, 95
5, 103200, Note_on_c, 2, 39, 95
5, 103440, Note_off_c, 2, 39, 95
5, 103440, Note_on_c, 2, 40, 95
5, 103680, Note_off_c, 2, 40, 95
5, 103680, Note_on_c, 2, 41, 95
5, 103920, Note_off_c, 2, 41, 95
5, 103920, Note_on_c, 2, 41, 95
5, 104160, Note_off_c, 2, 41, 95
5, 104160, Note_on_c, 2, 41, 95
5, 104400, Note_off_c, 2, 41, 95
5, 104400, Note_on_c, 2, 41, 95
5, 104640, Note_off_c, 2, 41, 95
5, 104640, Note_on_c, 2, 41, 95
5, 105120, Note_off_c, 2, 41, 95
5, 105120, Note_on_c, 2, 41, 95
5, 105360, Note_off_c, 2, 41, 95
5, 105360, Note_on_c, 2, 36, 95
5, 105600, Note_off_c, 2, 36, 95
5, 105600, Note_on_c, 2, 41, 95
5, 105840, Note_off_c, 2, 41, 95
5, 105840, Note_on_c, 2, 48, 95
5, 106320, Note_off_c, 2, 48, 95
5, 106320, Note_on_c, 2, 41, 95
5, 106560, Note_off_c, 2, 41, 95
5, 106560, Note_on_c, 2, 48, 95
5, 106800, Note_off_c, 2, 48, 95
5, 107040, Note_on_c, 3, 43, 95
5, 107520, Note_off_c, 3, 43, 95
5, 107520, Note_on_c, 2, 34, 95
5, 109440, Note_off_c, 2, 34, 95
5, 109440, Note_on_c, 2, 36, 95
5, 110880, Note_off_c, 2, 36, 95
5, 110880, Note_on_c, 2, 36, 95
5, 111360, Note_off_c, 2, 36, 95
5, 111360, Note_on_c, 2, 38, 95
5, 112320, Note_off_c, 2, 38, 95
5, 112320, Note_on_c, 2, 38, 95
5, 112800, Note_off_c, 2, 38, 95
5, 112800, Note_on_c, 2, 38, 95
5, 113280, Note_off_c, 2, 38, 95
5, 113280, Note_on_c, 2, 39, 95
5, 113760, Note_off_c, 2, 39, 95
5, 113760, Note_on_c, 2, 39, 95
5, 114120, Note_on_c, 3, 32, 95
5, 114159, Note_off_c, 3, 32, 95
5, 114240, Note_off_c, 2, 39, 95
5, 114240, Note_on_c, 3, 43, 95
5, 114720, Note_off_c, 3, 43, 95
5, 114720, Note_on_c, 2, 39, 95
5, 115200, Note_off_c, 2, 39, 95
5, 115200, Note_on_c, 2, 41, 95
5, 116160, Note_off_c, 2, 41, 95
5, 116160, Note_on_c, 2, 41, 95
5, 116640, Note_off_c, 2, 41, 95
5, 116640, Note_on_c, 2, 41, 95
5, 117000, Note_on_c, 3, 39, 95
5, 117120, Note_off_c, 2, 41, 95
5, 117120, Note_off_c, 3, 39, 95
5, 117120, Note_on_c, 3, 41, 95
5, 117600, Note_off_c, 3, 41, 95
5, 117600, Note_on_c, 2, 41, 95
5, 118080, Note_off_c, 2, 41, 95
5, 118080, Note_on_c, 2, 41, 95
5, 118320, Note_off_c, 2, 41, 95
5, 118320, Note_on_c, 2, 36, 95
5, 118560, Note_off_c, 2, 36, 95
5, 118560, Note_on_c, 2, 39, 95
5, 118800, Note_off_c, 2, 39, 95
5, 118800, Note_on_c, 2, 40, 70
5, 119040, Note_off_c, 2, 40, 70
5, 119040, Note_on_c, 2, 41, 95
5, 119280, Note_off_c, 2, 41, 95
5, 119280, Note_on_c, 2, 41, 95
5, 119520, Note_off_c, 2, 41, 95
5, 119520, Note_on_c, 2, 41, 95
5, 119760, Note_off_c, 2, 41, 95
5, 119760, Note_on_c, 2, 41, 95
5, 120000, Note_off_c, 2, 41, 95
5, 120000, Note_on_c, 2, 41, 95
5, 120240, Note_off_c, 2, 41, 95
5, 120240, Note_on_c, 2, 41, 95
5, 120480, Note_off_c, 2, 41, 95
5, 120480, Note_on_c, 2, 41, 95
5, 120960, Note_off_c, 2, 41, 95
5, 120960, Note_on_c, 2, 41, 95
5, 121200, Note_off_c, 2, 41, 95
5, 121200, Note_on_c, 2, 36, 95
5, 121440, Note_off_c, 2, 36, 95
5, 121440, Note_on_c, 2, 39, 95
5, 121680, Note_off_c, 2, 39, 95
5, 121680, Note_on_c, 2, 40, 95
5, 121920, Note_off_c, 2, 40, 95
5, 121920, Note_on_c, 2, 41, 95
5, 122400, Note_off_c, 2, 41, 95
5, 122400, Note_on_c, 2, 41, 95
5, 122880, Note_off_c, 2, 41, 95
5, 122880, Note_on_c, 2, 39, 95
5, 123840, Note_off_c, 2, 39, 95
5, 123840, Note_on_c, 2, 39, 95
5, 124320, Note_off_c, 2, 39, 95
5, 124320, Note_on_c, 2, 39, 95
5, 124800, Note_off_c, 2, 39, 95
5, 124800, Note_on_c, 2, 34, 95
5, 125280, Note_off_c, 2, 34, 95
5, 125280, Note_on_c, 2, 39, 95
5, 125760, Note_off_c, 2, 39, 95
5, 125760, Note_on_c, 2, 38, 95
5, 126240, Note_off_c, 2, 38, 95
5, 126240, Note_on_c, 2, 39, 95
5, 126720, Note_off_c, 2, 39, 95
5, 126720, Note_on_c, 2, 41, 95
5, 127200, Note_off_c, 2, 41, 95
5, 127200, Note_on_c, 2, 41, 95
5, 127680, Note_off_c, 2, 41, 95
5, 127680, Note_on_c, 2, 41, 95
5, 128160, Note_off_c, 2, 41, 95
5, 128160, Note_on_c, 2, 41, 95
5, 128640, Note_off_c, 2, 41, 95
5, 128640, Note_on_c, 2, 36, 95
5, 129120, Note_off_c, 2, 36, 95
5, 129120, Note_on_c, 2, 41, 95
5, 129600, Note_off_c, 2, 41, 95
5, 129600, Note_on_c, 2, 41, 95
5, 130080, Note_off_c, 2, 41, 95
5, 130080, Note_on_c, 2, 41, 95
5, 130560, Note_off_c, 2, 41, 95
5, 130560, Note_on_c, 2, 39, 95
5, 131520, Note_off_c, 2, 39, 95
5, 131520, Note_on_c, 2, 39, 95
5, 132000, Note_off_c, 2, 39, 95
5, 132000, Note_on_c, 2, 39, 95
5, 132480, Note_off_c, 2, 39, 95
5, 132480, Note_on_c, 2, 34, 95
5, 132960, Note_off_c, 2, 34, 95
5, 132960, Note_on_c, 2, 39, 95
5, 133440, Note_off_c, 2, 39, 95
5, 133440, Note_on_c, 2, 39, 95
5, 133920, Note_off_c, 2, 39, 95
5, 133920, Note_on_c, 2, 39, 95
5, 134400, Note_off_c, 2, 39, 95
5, 134400, Note_on_c, 2, 41, 95
5, 135360, Note_off_c, 2, 41, 95
5, 135360, Note_on_c, 2, 41, 95
5, 136320, Note_off_c, 2, 41, 95
5, 136320, Note_on_c, 2, 36, 95
5, 136560, Note_off_c, 2, 36, 95
5, 136560, Note_on_c, 2, 41, 95
5, 137040, Note_off_c, 2, 41, 95
5, 137040, Note_on_c, 2, 36, 95
5, 137280, Note_off_c, 2, 36, 95
5, 137280, Note_on_c, 2, 41, 95
5, 137760, Note_off_c, 2, 41, 95
5, 137760, Note_on_c, 2, 41, 95
5, 138240, Note_off_c, 2, 41, 95
5, 138240, Note_on_c, 2, 39, 95
5, 139200, Note_off_c, 2, 39, 95
5, 139200, Note_on_c, 2, 39, 95
5, 139680, Note_off_c, 2, 39, 95
5, 139680, Note_on_c, 2, 39, 95
5, 140160, Note_off_c, 2, 39, 95
5, 140160, Note_on_c, 2, 38, 95
5, 141120, Note_off_c, 2, 38, 95
5, 141120, Note_on_c, 2, 34, 95
5, 141600, Note_off_c, 2, 34, 95
5, 141600, Note_on_c, 2, 35, 95
5, 142080, Note_off_c, 2, 35, 95
5, 142080, Note_on_c, 2, 36, 95
5, 142800, Note_off_c, 2, 36, 95
5, 142800, Note_on_c, 2, 36, 95
5, 143040, Note_off_c, 2, 36, 95
5, 143040, Note_on_c, 2, 36, 95
5, 143520, Note_off_c, 2, 36, 95
5, 143520, Note_on_c, 2, 36, 95
5, 143760, Note_off_c, 2, 36, 95
5, 143760, Note_on_c, 2, 36, 95
5, 144000, Note_off_c, 2, 36, 95
5, 144000, Note_on_c, 2, 34, 95
5, 144480, Note_off_c, 2, 34, 95
5, 144480, Note_on_c, 2, 34, 95
5, 144960, Note_off_c, 2, 34, 95
5, 144960, Note_on_c, 2, 34, 95
5, 145440, Note_off_c, 2, 34, 95
5, 145440, Note_on_c, 2, 36, 95
5, 145680, Note_off_c, 2, 36, 95
5, 145680, Note_on_c, 2, 38, 95
5, 145920, Note_off_c, 2, 38, 95
5, 145920, Note_on_c, 2, 39, 95
5, 146880, Note_off_c, 2, 39, 95
5, 146880, Note_on_c, 2, 39, 95
5, 147360, Note_off_c, 2, 39, 95
5, 147360, Note_on_c, 2, 39, 95
5, 147840, Note_off_c, 2, 39, 95
5, 147840, Note_on_c, 2, 38, 95
5, 148560, Note_off_c, 2, 38, 95
5, 148560, Note_on_c, 2, 38, 95
5, 148800, Note_off_c, 2, 38, 95
5, 148800, Note_on_c, 2, 34, 95
5, 149280, Note_off_c, 2, 34, 95
5, 149280, Note_on_c, 2, 35, 95
5, 149760, Note_off_c, 2, 35, 95
5, 149760, Note_on_c, 2, 36, 95
5, 150240, Note_off_c, 2, 36, 95
5, 150240, Note_on_c, 2, 36, 95
5, 150720, Note_off_c, 2, 36, 95
5, 150720, Note_on_c, 2, 36, 95
5, 151200, Note_off_c, 2, 36, 95
5, 151200, Note_on_c, 2, 36, 95
5, 151680, Note_off_c, 2, 36, 95
5, 151680, Note_on_c, 2, 34, 95
5, 152160, Note_off_c, 2, 34, 95
5, 152160, Note_on_c, 2, 33, 95
5, 152640, Note_off_c, 2, 33, 95
5, 152640, Note_on_c, 2, 34, 95
5, 153120, Note_off_c, 2, 34, 95
5, 153120, Note_on_c, 2, 35, 95
5, 153600, Note_off_c, 2, 35, 95
5, 153600, Note_on_c, 2, 36, 95
5, 154080, Note_off_c, 2, 36, 95
5, 154080, Note_on_c, 2, 36, 95
5, 154320, Note_off_c, 2, 36, 95
5, 154320, Note_on_c, 2, 36, 95
5, 154560, Note_off_c, 2, 36, 95
5, 154560, Note_on_c, 2, 36, 95
5, 155040, Note_off_c, 2, 36, 95
5, 155040, Note_on_c, 2, 36, 95
5, 155520, Note_off_c, 2, 36, 95
5, 155520, Note_on_c, 2, 36, 95
5, 156000, Note_off_c, 2, 36, 95
5, 156000, Note_on_c, 2, 36, 95
5, 156480, Note_off_c, 2, 36, 95
5, 156480, Note_on_c, 2, 36, 95
5, 156960, Note_off_c, 2, 36, 95
5, 156960, Note_on_c, 2, 38, 95
5, 157440, Note_off_c, 2, 38, 95
5, 157440, Note_on_c, 2, 39, 95
5, 158400, Note_off_c, 2, 39, 95
5, 158400, Note_on_c, 2, 39, 95
5, 158880, Note_off_c, 2, 39, 95
5, 158880, Note_on_c, 2, 39, 95
5, 159360, Note_off_c, 2, 39, 95
5, 159360, Note_on_c, 2, 39, 95
5, 159840, Note_off_c, 2, 39, 95
5, 159840, Note_on_c, 2, 39, 95
5, 160320, Note_off_c, 2, 39, 95
5, 160320, Note_on_c, 2, 39, 95
5, 160800, Note_off_c, 2, 39, 95
5, 160800, Note_on_c, 2, 39, 95
5, 161040, Note_off_c, 2, 39, 95
5, 161040, Note_on_c, 2, 41, 70
5, 161280, Note_off_c, 2, 41, 70
5, 161280, Note_on_c, 2, 41, 95
5, 161760, Note_off_c, 2, 41, 95
5, 161760, Note_on_c, 2, 36, 95
5, 162240, Note_off_c, 2, 36, 95
5, 162240, Note_on_c, 2, 29, 95
5, 162720, Note_off_c, 2, 29, 95
5, 162720, Note_on_c, 2, 36, 95
5, 163200, Note_off_c, 2, 36, 95
5, 163200, Note_on_c, 2, 41, 95
5, 163680, Note_off_c, 2, 41, 95
5, 163680, Note_on_c, 2, 36, 95
5, 164160, Note_off_c, 2, 36, 95
5, 164160, Note_on_c, 2, 29, 95
5, 164640, Note_off_c, 2, 29, 95
5, 164640, Note_on_c, 2, 36, 95
5, 165120, Note_off_c, 2, 36, 95
5, 165120, Note_on_c, 2, 41, 95
5, 165600, Note_off_c, 2, 41, 95
5, 165600, Note_on_c, 2, 36, 95
5, 166080, Note_off_c, 2, 36, 95
5, 166080, Note_on_c, 2, 29, 95
5, 166560, Note_off_c, 2, 29, 95
5, 166560, Note_on_c, 2, 36, 95
5, 167040, Note_off_c, 2, 36, 95
5, 167040, Note_on_c, 2, 41, 95
5, 167520, Note_off_c, 2, 41, 95
5, 167520, Note_on_c, 2, 36, 95
5, 168000, Note_off_c, 2, 36, 95
5, 168000, Note_on_c, 2, 29, 95
5, 168480, Note_off_c, 2, 29, 95
5, 168480, Note_on_c, 2, 31, 95
5, 168960, Note_off_c, 2, 31, 95
5, 168960, Note_on_c, 2, 34, 95
5, 169440, Note_off_c, 2, 34, 95
5, 169440, Note_on_c, 2, 34, 95
5, 169920, Note_off_c, 2, 34, 95
5, 169920, Note_on_c, 2, 34, 95
5, 170400, Note_off_c, 2, 34, 95
5, 170400, Note_on_c, 2, 34, 95
5, 170640, Note_off_c, 2, 34, 95
5, 170640, Note_on_c, 2, 36, 95
5, 170880, Note_off_c, 2, 36, 95
5, 170880, Note_on_c, 2, 39, 95
5, 171360, Note_off_c, 2, 39, 95
5, 171360, Note_on_c, 2, 39, 95
5, 171600, Note_off_c, 2, 39, 95
5, 171600, Note_on_c, 2, 39, 95
5, 171840, Note_off_c, 2, 39, 95
5, 171840, Note_on_c, 2, 39, 95
5, 172320, Note_off_c, 2, 39, 95
5, 172320, Note_on_c, 2, 39, 95
5, 172800, Note_off_c, 2, 39, 95
5, 172800, Note_on_c, 2, 41, 95
5, 173280, Note_off_c, 2, 41, 95
5, 173280, Note_on_c, 2, 41, 95
5, 173520, Note_off_c, 2, 41, 95
5, 173520, Note_on_c, 2, 41, 95
5, 173760, Note_off_c, 2, 41, 95
5, 173760, Note_on_c, 2, 41, 95
5, 174240, Note_off_c, 2, 41, 95
5, 174240, Note_on_c, 2, 41, 95
5, 174480, Note_off_c, 2, 41, 95
5, 174480, Note_on_c, 2, 41, 95
5, 174720, Note_off_c, 2, 41, 95
5, 174720, Note_on_c, 2, 39, 95
5, 174960, Note_off_c, 2, 39, 95
5, 174960, Note_on_c, 2, 41, 70
5, 175200, Note_off_c, 2, 41, 70
5, 175200, Note_on_c, 2, 41, 95
5, 175680, Note_off_c, 2, 41, 95
5, 175680, Note_on_c, 2, 36, 95
5, 176160, Note_off_c, 2, 36, 95
5, 176160, Note_on_c, 2, 39, 95
5, 176400, Note_off_c, 2, 39, 95
5, 176400, Note_on_c, 2, 41, 95
5, 176640, Note_off_c, 2, 41, 95
5, 176640, Note_on_c, 2, 34, 95
5, 177120, Note_off_c, 2, 34, 95
5, 177120, Note_on_c, 2, 34, 95
5, 177600, Note_off_c, 2, 34, 95
5, 177600, Note_on_c, 2, 34, 95
5, 178080, Note_off_c, 2, 34, 95
5, 178080, Note_on_c, 2, 34, 95
5, 178320, Note_off_c, 2, 34, 95
5, 178320, Note_on_c, 2, 36, 95
5, 178560, Note_off_c, 2, 36, 95
5, 178560, Note_on_c, 2, 39, 95
5, 179040, Note_off_c, 2, 39, 95
5, 179040, Note_on_c, 2, 39, 95
5, 179520, Note_off_c, 2, 39, 95
5, 179520, Note_on_c, 2, 39, 95
5, 180000, Note_off_c, 2, 39, 95
5, 180000, Note_on_c, 2, 39, 95
5, 180480, Note_off_c, 2, 39, 95
5, 180480, Note_on_c, 2, 39, 95
5, 180720, Note_off_c, 2, 39, 95
5, 180720, Note_on_c, 2, 41, 70
5, 180960, Note_off_c, 2, 41, 70
5, 180960, Note_on_c, 2, 41, 95
5, 181440, Note_off_c, 2, 41, 95
5, 181440, Note_on_c, 2, 41, 95
5, 181920, Note_off_c, 2, 41, 95
5, 181920, Note_on_c, 2, 41, 95
5, 182160, Note_off_c, 2, 41, 95
5, 182160, Note_on_c, 2, 41, 95
5, 182400, Note_off_c, 2, 41, 95
5, 182400, Note_on_c, 2, 36, 95
5, 182640, Note_off_c, 2, 36, 95
5, 182640, Note_on_c, 2, 41, 95
5, 182880, Note_off_c, 2, 41, 95
5, 182880, Note_on_c, 2, 41, 95
5, 183360, Note_off_c, 2, 41, 95
5, 183360, Note_on_c, 2, 41, 95
5, 183600, Note_off_c, 2, 41, 95
5, 183600, Note_on_c, 2, 39, 95
5, 183840, Note_off_c, 2, 39, 95
5, 183840, Note_on_c, 2, 39, 95
5, 184080, Note_off_c, 2, 39, 95
5, 184080, Note_on_c, 2, 41, 95
5, 184320, Note_off_c, 2, 41, 95
5, 184320, Note_on_c, 2, 34, 95
5, 185280, Note_off_c, 2, 34, 95
5, 185280, Note_on_c, 2, 34, 95
5, 185760, Note_off_c, 2, 34, 95
5, 185760, Note_on_c, 2, 34, 95
5, 186000, Note_off_c, 2, 34, 95
5, 186000, Note_on_c, 2, 36, 95
5, 186240, Note_off_c, 2, 36, 95
5, 186240, Note_on_c, 2, 39, 95
5, 186720, Note_off_c, 2, 39, 95
5, 186720, Note_on_c, 2, 39, 95
5, 187200, Note_off_c, 2, 39, 95
5, 187200, Note_on_c, 2, 39, 95
5, 187680, Note_off_c, 2, 39, 95
5, 187680, Note_on_c, 2, 39, 95
5, 188160, Note_off_c, 2, 39, 95
5, 188160, Note_on_c, 2, 41, 95
5, 188640, Note_off_c, 2, 41, 95
5, 188640, Note_on_c, 2, 41, 95
5, 189120, Note_off_c, 2, 41, 95
5, 189120, Note_on_c, 2, 41, 95
5, 189600, Note_off_c, 2, 41, 95
5, 189600, Note_on_c, 2, 41, 95
5, 190080, Note_off_c, 2, 41, 95
5, 190080, Note_on_c, 2, 39, 95
5, 190320, Note_off_c, 2, 39, 95
5, 190320, Note_on_c, 2, 41, 70
5, 190560, Note_off_c, 2, 41, 70
5, 190560, Note_on_c, 2, 41, 95
5, 191040, Note_off_c, 2, 41, 95
5, 191040, Note_on_c, 2, 39, 95
5, 191280, Note_off_c, 2, 39, 95
5, 191280, Note_on_c, 2, 36, 95
5, 191520, Note_off_c, 2, 36, 95
5, 191520, Note_on_c, 2, 39, 95
5, 191760, Note_off_c, 2, 39, 95
5, 191760, Note_on_c, 2, 41, 95
5, 192000, Note_off_c, 2, 41, 95
5, 192000, Note_on_c, 2, 34, 95
5, 192480, Note_off_c, 2, 34, 95
5, 192480, Note_on_c, 2, 34, 95
5, 192960, Note_off_c, 2, 34, 95
5, 192960, Note_on_c, 2, 34, 95
5, 193440, Note_off_c, 2, 34, 95
5, 193440, Note_on_c, 2, 34, 95
5, 193680, Note_off_c, 2, 34, 95
5, 193680, Note_on_c, 2, 36, 95
5, 193920, Note_off_c, 2, 36, 95
5, 193920, Note_on_c, 2, 39, 95
5, 194400, Note_off_c, 2, 39, 95
5, 194400, Note_on_c, 2, 39, 95
5, 194880, Note_off_c, 2, 39, 95
5, 194880, Note_on_c, 2, 39, 95
5, 195360, Note_off_c, 2, 39, 95
5, 195360, Note_on_c, 2, 39, 95
5, 195720, Note_on_c, 3, 39, 79
5, 195840, Note_off_c, 2, 39, 95
5, 195840, Note_off_c, 3, 39, 79
5, 195840, Note_on_c, 3, 41, 95
5, 196320, Note_off_c, 3, 41, 95
5, 196320, Note_on_c, 2, 41, 95
5, 196800, Note_off_c, 2, 41, 95
5, 196800, Note_on_c, 2, 41, 95
5, 197280, Note_off_c, 2, 41, 95
5, 197280, Note_on_c, 2, 41, 95
5, 197760, Note_off_c, 2, 41, 95
5, 197760, Note_on_c, 2, 39, 95
5, 198000, Note_off_c, 2, 39, 95
5, 198000, Note_on_c, 2, 41, 70
5, 198240, Note_off_c, 2, 41, 70
5, 198240, Note_on_c, 2, 41, 95
5, 198480, Note_off_c, 2, 41, 95
5, 198480, Note_on_c, 2, 41, 95
5, 198720, Note_off_c, 2, 41, 95
5, 198720, Note_on_c, 2, 39, 95
5, 198960, Note_off_c, 2, 39, 95
5, 198960, Note_on_c, 2, 36, 95
5, 199200, Note_off_c, 2, 36, 95
5, 199200, Note_on_c, 2, 39, 95
5, 199440, Note_off_c, 2, 39, 95
5, 199440, Note_on_c, 2, 41, 95
5, 199680, Note_off_c, 2, 41, 95
5, 199680, Note_on_c, 2, 34, 95
5, 200640, Note_off_c, 2, 34, 95
5, 200640, Note_on_c, 2, 34, 95
5, 201120, Note_off_c, 2, 34, 95
5, 201120, Note_on_c, 2, 34, 95
5, 201360, Note_off_c, 2, 34, 95
5, 201360, Note_on_c, 2, 36, 95
5, 201600, Note_off_c, 2, 36, 95
5, 201600, Note_on_c, 2, 39, 95
5, 202080, Note_off_c, 2, 39, 95
5, 202080, Note_on_c, 2, 39, 95
5, 202560, Note_off_c, 2, 39, 95
5, 202560, Note_on_c, 2, 39, 95
5, 203040, Note_off_c, 2, 39, 95
5, 203040, Note_on_c, 2, 39, 95
5, 203400, Note_on_c, 3, 39, 79
5, 203520, Note_off_c, 2, 39, 95
5, 203520, Note_off_c, 3, 39, 79
5, 203520, Note_on_c, 3, 41, 95
5, 204000, Note_off_c, 3, 41, 95
5, 204000, Note_on_c, 2, 41, 95
5, 204480, Note_off_c, 2, 41, 95
5, 204480, Note_on_c, 2, 41, 95
5, 204960, Note_off_c, 2, 41, 95
5, 204960, Note_on_c, 2, 41, 95
5, 205440, Note_off_c, 2, 41, 95
5, 205440, Note_on_c, 2, 41, 95
5, 205920, Note_off_c, 2, 41, 95
5, 205920, Note_on_c, 2, 41, 95
5, 206400, Note_off_c, 2, 41, 95
5, 206400, Note_on_c, 2, 41, 95
5, 206880, Note_off_c, 2, 41, 95
5, 206880, Note_on_c, 2, 41, 95
5, 207360, Note_off_c, 2, 41, 95
5, 207360, Note_on_c, 2, 34, 95
5, 207840, Note_off_c, 2, 34, 95
5, 207840, Note_on_c, 2, 34, 95
5, 208320, Note_off_c, 2, 34, 95
5, 208320, Note_on_c, 2, 46, 95
5, 208800, Note_off_c, 2, 46, 95
5, 208800, Note_on_c, 2, 46, 95
5, 209280, Note_off_c, 2, 46, 95
5, 209280, Note_on_c, 2, 39, 95
5, 209760, Note_off_c, 2, 39, 95
5, 209760, Note_on_c, 2, 46, 95
5, 210240, Note_off_c, 2, 46, 95
5, 210240, Note_on_c, 2, 39, 95
5, 210720, Note_off_c, 2, 39, 95
5, 210720, Note_on_c, 2, 46, 95
5, 211200, Note_off_c, 2, 46, 95
5, 211200, Note_on_c, 2, 39, 95
5, 211440, Note_off_c, 2, 39, 95
5, 211440, Note_on_c, 2, 41, 70
5, 211680, Note_off_c, 2, 41, 70
5, 211680, Note_on_c, 2, 41, 95
5, 211920, Note_off_c, 2, 41, 95
5, 211920, Note_on_c, 2, 41, 95
5, 212160, Note_off_c, 2, 41, 95
5, 212160, Note_on_c, 2, 41, 95
5, 212640, Note_off_c, 2, 41, 95
5, 212640, Note_on_c, 2, 41, 95
5, 212880, Note_off_c, 2, 41, 95
5, 212880, Note_on_c, 2, 41, 95
5, 213120, Note_off_c, 2, 41, 95
5, 213120, Note_on_c, 2, 41, 95
5, 213360, Note_off_c, 2, 41, 95
5, 213360, Note_on_c, 2, 41, 95
5, 213600, Note_off_c, 2, 41, 95
5, 213600, Note_on_c, 2, 41, 95
5, 213840, Note_off_c, 2, 41, 95
5, 213840, Note_on_c, 2, 41, 95
5, 214080, Note_off_c, 2, 41, 95
5, 214080, Note_on_c, 2, 41, 95
5, 214320, Note_off_c, 2, 41, 95
5, 214320, Note_on_c, 2, 41, 95
5, 214560, Note_off_c, 2, 41, 95
5, 214560, Note_on_c, 2, 36, 95
5, 215040, Note_off_c, 2, 36, 95
5, 215040, Note_on_c, 2, 39, 95
5, 215280, Note_off_c, 2, 39, 95
5, 215280, Note_on_c, 2, 41, 70
5, 215520, Note_off_c, 2, 41, 70
5, 215520, Note_on_c, 2, 41, 95
5, 215760, Note_off_c, 2, 41, 95
5, 215760, Note_on_c, 2, 41, 95
5, 216000, Note_off_c, 2, 41, 95
5, 216000, Note_on_c, 2, 41, 95
5, 216240, Note_off_c, 2, 41, 95
5, 216240, Note_on_c, 2, 41, 95
5, 216480, Note_off_c, 2, 41, 95
5, 216480, Note_on_c, 2, 41, 95
5, 216720, Note_off_c, 2, 41, 95
5, 216720, Note_on_c, 2, 41, 95
5, 216960, Note_off_c, 2, 41, 95
5, 216960, Note_on_c, 2, 41, 95
5, 217200, Note_off_c, 2, 41, 95
5, 217200, Note_on_c, 2, 41, 95
5, 217440, Note_off_c, 2, 41, 95
5, 217440, Note_on_c, 2, 41, 95
5, 217680, Note_off_c, 2, 41, 95
5, 217680, Note_on_c, 2, 41, 95
5, 217920, Note_off_c, 2, 41, 95
5, 217920, Note_on_c, 2, 36, 95
5, 218160, Note_off_c, 2, 36, 95
5, 218160, Note_on_c, 2, 36, 95
5, 218400, Note_off_c, 2, 36, 95
5, 218400, Note_on_c, 2, 39, 95
5, 218640, Note_off_c, 2, 39, 95
5, 218640, Note_on_c, 2, 40, 95
5, 218880, Note_off_c, 2, 40, 95
5, 218880, Note_on_c, 2, 41, 95
5, 219120, Note_off_c, 2, 41, 95
5, 219120, Note_on_c, 2, 41, 95
5, 219360, Note_off_c, 2, 41, 95
5, 219360, Note_on_c, 2, 41, 95
5, 219600, Note_off_c, 2, 41, 95
5, 219600, Note_on_c, 2, 41, 95
5, 219840, Note_off_c, 2, 41, 95
5, 219840, Note_on_c, 2, 41, 95
5, 220080, Note_off_c, 2, 41, 95
5, 220080, Note_on_c, 2, 41, 95
5, 220320, Note_off_c, 2, 41, 95
5, 220320, Note_on_c, 2, 41, 95
5, 220560, Note_off_c, 2, 41, 95
5, 220560, Note_on_c, 2, 41, 95
5, 220800, Note_off_c, 2, 41, 95
5, 220800, Note_on_c, 2, 41, 95
5, 221040, Note_off_c, 2, 41, 95
5, 221040, Note_on_c, 2, 41, 95
5, 221280, Note_off_c, 2, 41, 95
5, 221280, Note_on_c, 2, 41, 95
5, 221520, Note_off_c, 2, 41, 95
5, 221520, Note_on_c, 2, 41, 95
5, 221760, Note_off_c, 2, 41, 95
5, 221760, Note_on_c, 2, 29, 95
5, 222000, Note_off_c, 2, 29, 95
5, 222000, Note_on_c, 2, 31, 95
5, 222240, Note_off_c, 2, 31, 95
5, 222240, Note_on_c, 2, 34, 95
5, 222480, Note_off_c, 2, 34, 95
5, 222480, Note_on_c, 2, 31, 95
5, 222720, Note_off_c, 2, 31, 95
5, 222720, Note_on_c, 2, 34, 95
5, 224640, Note_off_c, 2, 34, 95
5, 224640, Note_on_c, 2, 36, 95
5, 226560, Note_off_c, 2, 36, 95
5, 226560, Note_on_c, 2, 38, 95
5, 228000, Note_off_c, 2, 38, 95
5, 228000, Note_on_c, 2, 38, 95
5, 228480, Note_off_c, 2, 38, 95
5, 228480, Note_on_c, 2, 39, 95
5, 229200, Note_off_c, 2, 39, 95
5, 229200, Note_on_c, 2, 36, 95
5, 229440, Note_off_c, 2, 36, 95
5, 229440, Note_on_c, 2, 39, 95
5, 229920, Note_off_c, 2, 39, 95
5, 229920, Note_on_c, 2, 39, 95
5, 230400, Note_off_c, 2, 39, 95
5, 230400, Note_on_c, 2, 41, 95
5, 231360, Note_off_c, 2, 41, 95
5, 231360, Note_on_c, 2, 41, 95
5, 232320, Note_off_c, 2, 41, 95
5, 232320, Note_on_c, 2, 41, 95
5, 232800, Note_off_c, 2, 41, 95
5, 232800, Note_on_c, 2, 41, 95
5, 233520, Note_off_c, 2, 41, 95
5, 233520, Note_on_c, 2, 36, 95
5, 233760, Note_off_c, 2, 36, 95
5, 233760, Note_on_c, 2, 39, 95
5, 234000, Note_off_c, 2, 39, 95
5, 234000, Note_on_c, 2, 40, 70
5, 234240, Note_off_c, 2, 40, 70
5, 234240, Note_on_c, 2, 41, 95
5, 234480, Note_off_c, 2, 41, 95
5, 234480, Note_on_c, 2, 41, 95
5, 234720, Note_off_c, 2, 41, 95
5, 234720, Note_on_c, 2, 41, 95
5, 234960, Note_off_c, 2, 41, 95
5, 234960, Note_on_c, 2, 41, 95
5, 235200, Note_off_c, 2, 41, 95
5, 235200, Note_on_c, 2, 39, 95
5, 235440, Note_off_c, 2, 39, 95
5, 235440, Note_on_c, 2, 41, 70
5, 235680, Note_off_c, 2, 41, 70
5, 235680, Note_on_c, 2, 39, 95
5, 235920, Note_off_c, 2, 39, 95
5, 235920, Note_on_c, 2, 43, 70
5, 236160, Note_off_c, 2, 43, 70
5, 236160, Note_on_c, 2, 41, 95
5, 236400, Note_off_c, 2, 41, 95
5, 236400, Note_on_c, 2, 48, 95
5, 236880, Note_off_c, 2, 48, 95
5, 236880, Note_on_c, 2, 41, 95
5, 237120, Note_off_c, 2, 41, 95
5, 237120, Note_on_c, 2, 39, 95
5, 237360, Note_off_c, 2, 39, 95
5, 237360, Note_on_c, 2, 41, 70
5, 237600, Note_off_c, 2, 41, 70
5, 237600, Note_on_c, 2, 39, 95
5, 237840, Note_off_c, 2, 39, 95
5, 237840, Note_on_c, 2, 43, 70
5, 238080, Note_off_c, 2, 43, 70
5, 238080, Note_on_c, 2, 34, 95
5, 240000, Note_off_c, 2, 34, 95
5, 240000, Note_on_c, 2, 36, 95
5, 241440, Note_off_c, 2, 36, 95
5, 241440, Note_on_c, 2, 36, 95
5, 241920, Note_off_c, 2, 36, 95
5, 241920, Note_on_c, 2, 38, 95
5, 242880, Note_off_c, 2, 38, 95
5, 242880, Note_on_c, 2, 38, 95
5, 243360, Note_off_c, 2, 38, 95
5, 243360, Note_on_c, 2, 38, 95
5, 243840, Note_off_c, 2, 38, 95
5, 243840, Note_on_c, 2, 39, 95
5, 244320, Note_off_c, 2, 39, 95
5, 244320, Note_on_c, 2, 39, 95
5, 244800, Note_off_c, 2, 39, 95
5, 244800, Note_on_c, 2, 39, 95
5, 245280, Note_off_c, 2, 39, 95
5, 245280, Note_on_c, 2, 39, 95
5, 245760, Note_off_c, 2, 39, 95
5, 245760, Note_on_c, 2, 41, 95
5, 246720, Note_off_c, 2, 41, 95
5, 246720, Note_on_c, 2, 41, 95
5, 247680, Note_off_c, 2, 41, 95
5, 247680, Note_on_c, 2, 41, 95
5, 248160, Note_off_c, 2, 41, 95
5, 248160, Note_on_c, 2, 41, 95
5, 248880, Note_off_c, 2, 41, 95
5, 248880, Note_on_c, 2, 36, 95
5, 249120, Note_off_c, 2, 36, 95
5, 249120, Note_on_c, 2, 39, 95
5, 249360, Note_off_c, 2, 39, 95
5, 249360, Note_on_c, 2, 41, 70
5, 249600, Note_off_c, 2, 41, 70
5, 249600, Note_on_c, 2, 41, 95
5, 249840, Note_off_c, 2, 41, 95
5, 249840, Note_on_c, 2, 41, 95
5, 250080, Note_off_c, 2, 41, 95
5, 250080, Note_on_c, 2, 41, 95
5, 250320, Note_off_c, 2, 41, 95
5, 250320, Note_on_c, 2, 41, 95
5, 250560, Note_off_c, 2, 41, 95
5, 250560, Note_on_c, 2, 41, 95
5, 250800, Note_off_c, 2, 41, 95
5, 250800, Note_on_c, 2, 41, 95
5, 251040, Note_off_c, 2, 41, 95
5, 251040, Note_on_c, 2, 41, 95
5, 251280, Note_off_c, 2, 41, 95
5, 251280, Note_on_c, 2, 41, 95
5, 251520, Note_off_c, 2, 41, 95
5, 251520, Note_on_c, 2, 41, 95
5, 252000, Note_off_c, 2, 41, 95
5, 252000, Note_on_c, 2, 41, 95
5, 252240, Note_off_c, 2, 41, 95
5, 252240, Note_on_c, 2, 41, 95
5, 252480, Note_off_c, 2, 41, 95
5, 252480, Note_on_c, 2, 41, 95
5, 252960, Note_off_c, 2, 41, 95
5, 252960, Note_on_c, 2, 40, 95
5, 253440, Note_off_c, 2, 40, 95
5, 253440, Note_on_c, 2, 39, 95
5, 253920, Note_off_c, 2, 39, 95
5, 253920, Note_on_c, 2, 39, 95
5, 254400, Note_off_c, 2, 39, 95
5, 254400, Note_on_c, 2, 39, 95
5, 254880, Note_off_c, 2, 39, 95
5, 254880, Note_on_c, 2, 39, 95
5, 255360, Note_off_c, 2, 39, 95
5, 255360, Note_on_c, 2, 34, 95
5, 255840, Note_off_c, 2, 34, 95
5, 255840, Note_on_c, 2, 39, 95
5, 256320, Note_off_c, 2, 39, 95
5, 256320, Note_on_c, 2, 38, 95
5, 256560, Note_off_c, 2, 38, 95
5, 256560, Note_on_c, 2, 39, 95
5, 256800, Note_off_c, 2, 39, 95
5, 256800, Note_on_c, 2, 39, 95
5, 257280, Note_off_c, 2, 39, 95
5, 257280, Note_on_c, 2, 41, 95
5, 258240, Note_off_c, 2, 41, 95
5, 258240, Note_on_c, 2, 41, 95
5, 258720, Note_off_c, 2, 41, 95
5, 258720, Note_on_c, 2, 41, 95
5, 259200, Note_off_c, 2, 41, 95
5, 259200, Note_on_c, 2, 36, 95
5, 259440, Note_off_c, 2, 36, 95
5, 259440, Note_on_c, 2, 41, 95
5, 259920, Note_off_c, 2, 41, 95
5, 259920, Note_on_c, 2, 36, 95
5, 260160, Note_off_c, 2, 36, 95
5, 260160, Note_on_c, 2, 41, 95
5, 260640, Note_off_c, 2, 41, 95
5, 260640, Note_on_c, 2, 40, 95
5, 261120, Note_off_c, 2, 40, 95
5, 261120, Note_on_c, 2, 39, 95
5, 262080, Note_off_c, 2, 39, 95
5, 262080, Note_on_c, 2, 39, 95
5, 262800, Note_off_c, 2, 39, 95
5, 262800, Note_on_c, 2, 39, 95
5, 263040, Note_off_c, 2, 39, 95
5, 263040, Note_on_c, 2, 34, 95
5, 263520, Note_off_c, 2, 34, 95
5, 263520, Note_on_c, 2, 39, 95
5, 264000, Note_off_c, 2, 39, 95
5, 264000, Note_on_c, 2, 38, 95
5, 264480, Note_off_c, 2, 38, 95
5, 264480, Note_on_c, 2, 39, 95
5, 264960, Note_off_c, 2, 39, 95
5, 264960, Note_on_c, 2, 41, 95
5, 265920, Note_off_c, 2, 41, 95
5, 265920, Note_on_c, 2, 41, 95
5, 266400, Note_off_c, 2, 41, 95
5, 266400, Note_on_c, 2, 41, 95
5, 266880, Note_off_c, 2, 41, 95
5, 266880, Note_on_c, 2, 36, 95
5, 267120, Note_off_c, 2, 36, 95
5, 267120, Note_on_c, 2, 36, 95
5, 267360, Note_off_c, 2, 36, 95
5, 267360, Note_on_c, 2, 41, 95
5, 267600, Note_off_c, 2, 41, 95
5, 267600, Note_on_c, 2, 36, 95
5, 267840, Note_off_c, 2, 36, 95
5, 267840, Note_on_c, 2, 41, 95
5, 268320, Note_off_c, 2, 41, 95
5, 268320, Note_on_c, 2, 40, 95
5, 268800, Note_off_c, 2, 40, 95
5, 268800, Note_on_c, 2, 39, 95
5, 269760, Note_off_c, 2, 39, 95
5, 269760, Note_on_c, 2, 39, 95
5, 270240, Note_off_c, 2, 39, 95
5, 270240, Note_on_c, 2, 39, 95
5, 270720, Note_off_c, 2, 39, 95
5, 270720, Note_on_c, 2, 38, 95
5, 271680, Note_off_c, 2, 38, 95
5, 271680, Note_on_c, 2, 34, 95
5, 272160, Note_off_c, 2, 34, 95
5, 272160, Note_on_c, 2, 35, 95
5, 272640, Note_off_c, 2, 35, 95
5, 272640, Note_on_c, 2, 36, 95
5, 273600, Note_off_c, 2, 36, 95
5, 273600, Note_on_c, 2, 36, 95
5, 274320, Note_off_c, 2, 36, 95
5, 274320, Note_on_c, 2, 31, 95
5, 274560, Note_off_c, 2, 31, 95
5, 274560, Note_on_c, 2, 31, 95
5, 274800, Note_off_c, 2, 31, 95
5, 274800, Note_on_c, 2, 34, 95
5, 275040, Note_off_c, 2, 34, 95
5, 275040, Note_on_c, 2, 34, 95
5, 275520, Note_off_c, 2, 34, 95
5, 275520, Note_on_c, 2, 34, 95
5, 276000, Note_off_c, 2, 34, 95
5, 276000, Note_on_c, 2, 36, 95
5, 276240, Note_off_c, 2, 36, 95
5, 276240, Note_on_c, 2, 38, 95
5, 276480, Note_off_c, 2, 38, 95
5, 276480, Note_on_c, 2, 39, 95
5, 276960, Note_off_c, 2, 39, 95
5, 276960, Note_on_c, 2, 39, 95
5, 277440, Note_off_c, 2, 39, 95
5, 277440, Note_on_c, 2, 39, 95
5, 277920, Note_off_c, 2, 39, 95
5, 277920, Note_on_c, 2, 39, 95
5, 278400, Note_off_c, 2, 39, 95
5, 278400, Note_on_c, 2, 38, 95
5, 279360, Note_off_c, 2, 38, 95
5, 279360, Note_on_c, 2, 34, 95
5, 279840, Note_off_c, 2, 34, 95
5, 279840, Note_on_c, 2, 35, 95
5, 280320, Note_off_c, 2, 35, 95
5, 280320, Note_on_c, 2, 36, 95
5, 281040, Note_off_c, 2, 36, 95
5, 281040, Note_on_c, 2, 36, 95
5, 281280, Note_off_c, 2, 36, 95
5, 281280, Note_on_c, 2, 36, 95
5, 281760, Note_off_c, 2, 36, 95
5, 281760, Note_on_c, 2, 36, 95
5, 282240, Note_off_c, 2, 36, 95
5, 282240, Note_on_c, 2, 34, 95
5, 282720, Note_off_c, 2, 34, 95
5, 282720, Note_on_c, 2, 33, 95
5, 283200, Note_off_c, 2, 33, 95
5, 283200, Note_on_c, 2, 34, 95
5, 283680, Note_off_c, 2, 34, 95
5, 283680, Note_on_c, 2, 35, 95
5, 284160, Note_off_c, 2, 35, 95
5, 284160, Note_on_c, 2, 36, 95
5, 284880, Note_off_c, 2, 36, 95
5, 284880, Note_on_c, 2, 36, 95
5, 285120, Note_off_c, 2, 36, 95
5, 285120, Note_on_c, 2, 36, 95
5, 285600, Note_off_c, 2, 36, 95
5, 285600, Note_on_c, 2, 36, 95
5, 285840, Note_off_c, 2, 36, 95
5, 285840, Note_on_c, 2, 36, 95
5, 286080, Note_off_c, 2, 36, 95
5, 286080, Note_on_c, 2, 36, 95
5, 286560, Note_off_c, 2, 36, 95
5, 286560, Note_on_c, 2, 36, 95
5, 287040, Note_off_c, 2, 36, 95
5, 287040, Note_on_c, 2, 36, 95
5, 287520, Note_off_c, 2, 36, 95
5, 287520, Note_on_c, 2, 36, 95
5, 288000, Note_off_c, 2, 36, 95
5, 288000, Note_on_c, 2, 39, 95
5, 288480, Note_off_c, 2, 39, 95
5, 288480, Note_on_c, 2, 39, 95
5, 288960, Note_off_c, 2, 39, 95
5, 288960, Note_on_c, 2, 39, 95
5, 289440, Note_off_c, 2, 39, 95
5, 289440, Note_on_c, 2, 39, 95
5, 289920, Note_off_c, 2, 39, 95
5, 289920, Note_on_c, 2, 36, 95
5, 290160, Note_off_c, 2, 36, 95
5, 290160, Note_on_c, 2, 39, 70
5, 290400, Note_off_c, 2, 39, 70
5, 290400, Note_on_c, 2, 39, 95
5, 290880, Note_off_c, 2, 39, 95
5, 290880, Note_on_c, 2, 39, 95
5, 291360, Note_off_c, 2, 39, 95
5, 291360, Note_on_c, 2, 39, 95
5, 291840, Note_off_c, 2, 39, 95
5, 291840, Note_on_c, 2, 41, 95
5, 292320, Note_off_c, 2, 41, 95
5, 292320, Note_on_c, 2, 36, 95
5, 292800, Note_off_c, 2, 36, 95
5, 292800, Note_on_c, 2, 29, 95
5, 293280, Note_off_c, 2, 29, 95
5, 293280, Note_on_c, 2, 36, 95
5, 293760, Note_off_c, 2, 36, 95
5, 293760, Note_on_c, 2, 41, 95
5, 294240, Note_off_c, 2, 41, 95
5, 294240, Note_on_c, 2, 36, 95
5, 294720, Note_off_c, 2, 36, 95
5, 294720, Note_on_c, 2, 29, 95
5, 295200, Note_off_c, 2, 29, 95
5, 295200, Note_on_c, 2, 36, 95
5, 295680, Note_off_c, 2, 36, 95
5, 295680, Note_on_c, 2, 41, 95
5, 296160, Note_off_c, 2, 41, 95
5, 296160, Note_on_c, 2, 36, 95
5, 296640, Note_off_c, 2, 36, 95
5, 296640, Note_on_c, 2, 41, 95
5, 297120, Note_off_c, 2, 41, 95
5, 297120, Note_on_c, 2, 36, 95
5, 297600, Note_off_c, 2, 36, 95
5, 297600, Note_on_c, 2, 41, 95
5, 298080, Note_off_c, 2, 41, 95
5, 298080, Note_on_c, 2, 36, 95
5, 298560, Note_off_c, 2, 36, 95
5, 298560, Note_on_c, 2, 41, 95
5, 299040, Note_off_c, 2, 41, 95
5, 299040, Note_on_c, 2, 32, 95
5, 299280, Note_off_c, 2, 32, 95
5, 299280, Note_on_c, 2, 33, 70
5, 299520, Note_off_c, 2, 33, 70
5, 299520, Note_on_c, 2, 34, 95
5, 300000, Note_off_c, 2, 34, 95
5, 300000, Note_on_c, 2, 34, 95
5, 300480, Note_off_c, 2, 34, 95
5, 300480, Note_on_c, 2, 34, 95
5, 300960, Note_off_c, 2, 34, 95
5, 300960, Note_on_c, 2, 34, 95
5, 301200, Note_off_c, 2, 34, 95
5, 301200, Note_on_c, 2, 36, 95
5, 301440, Note_off_c, 2, 36, 95
5, 301440, Note_on_c, 2, 39, 95
5, 301920, Note_off_c, 2, 39, 95
5, 301920, Note_on_c, 2, 39, 95
5, 302400, Note_off_c, 2, 39, 95
5, 302400, Note_on_c, 2, 39, 95
5, 302880, Note_off_c, 2, 39, 95
5, 302880, Note_on_c, 2, 39, 95
5, 303360, Note_off_c, 2, 39, 95
5, 303360, Note_on_c, 2, 41, 95
5, 303840, Note_off_c, 2, 41, 95
5, 303840, Note_on_c, 2, 41, 95
5, 304320, Note_off_c, 2, 41, 95
5, 304320, Note_on_c, 2, 41, 95
5, 304800, Note_off_c, 2, 41, 95
5, 304800, Note_on_c, 2, 41, 95
5, 305280, Note_off_c, 2, 41, 95
5, 305280, Note_on_c, 2, 36, 95
5, 305520, Note_off_c, 2, 36, 95
5, 305520, Note_on_c, 2, 39, 95
5, 305760, Note_off_c, 2, 39, 95
5, 305760, Note_on_c, 2, 41, 70
5, 306000, Note_off_c, 2, 41, 70
5, 306000, Note_on_c, 2, 41, 95
5, 306240, Note_off_c, 2, 41, 95
5, 306240, Note_on_c, 2, 39, 95
5, 306480, Note_off_c, 2, 39, 95
5, 306480, Note_on_c, 2, 36, 95
5, 306720, Note_off_c, 2, 36, 95
5, 306720, Note_on_c, 2, 39, 95
5, 306960, Note_off_c, 2, 39, 95
5, 306960, Note_on_c, 2, 41, 70
5, 307200, Note_off_c, 2, 41, 70
5, 307200, Note_on_c, 2, 34, 95
5, 307680, Note_off_c, 2, 34, 95
5, 307680, Note_on_c, 2, 34, 95
5, 308160, Note_off_c, 2, 34, 95
5, 308160, Note_on_c, 2, 41, 95
5, 308640, Note_off_c, 2, 41, 95
5, 308640, Note_on_c, 2, 34, 95
5, 308880, Note_off_c, 2, 34, 95
5, 308880, Note_on_c, 2, 36, 95
5, 309120, Note_off_c, 2, 36, 95
5, 309120, Note_on_c, 2, 39, 95
5, 309600, Note_off_c, 2, 39, 95
5, 309600, Note_on_c, 2, 39, 95
5, 310080, Note_off_c, 2, 39, 95
5, 310080, Note_on_c, 2, 46, 95
5, 310560, Note_off_c, 2, 46, 95
5, 310560, Note_on_c, 2, 39, 95
5, 311040, Note_off_c, 2, 39, 95
5, 311040, Note_on_c, 2, 39, 95
5, 311280, Note_off_c, 2, 39, 95
5, 311280, Note_on_c, 2, 41, 70
5, 311520, Note_off_c, 2, 41, 70
5, 311520, Note_on_c, 2, 41, 95
5, 312000, Note_off_c, 2, 41, 95
5, 312000, Note_on_c, 2, 41, 95
5, 312480, Note_off_c, 2, 41, 95
5, 312480, Note_on_c, 2, 41, 95
5, 312960, Note_off_c, 2, 41, 95
5, 312960, Note_on_c, 2, 39, 95
5, 313200, Note_off_c, 2, 39, 95
5, 313200, Note_on_c, 2, 41, 70
5, 313440, Note_off_c, 2, 41, 70
5, 313440, Note_on_c, 2, 41, 95
5, 313920, Note_off_c, 2, 41, 95
5, 313920, Note_on_c, 2, 41, 95
5, 314400, Note_off_c, 2, 41, 95
5, 314400, Note_on_c, 2, 41, 95
5, 314880, Note_off_c, 2, 41, 95
5, 314880, Note_on_c, 2, 34, 95
5, 315360, Note_off_c, 2, 34, 95
5, 315360, Note_on_c, 2, 34, 95
5, 315840, Note_off_c, 2, 34, 95
5, 315840, Note_on_c, 2, 41, 95
5, 316320, Note_off_c, 2, 41, 95
5, 316320, Note_on_c, 2, 34, 95
5, 316560, Note_off_c, 2, 34, 95
5, 316560, Note_on_c, 2, 36, 95
5, 316800, Note_off_c, 2, 36, 95
5, 316800, Note_on_c, 2, 39, 95
5, 317280, Note_off_c, 2, 39, 95
5, 317280, Note_on_c, 2, 39, 95
5, 317760, Note_off_c, 2, 39, 95
5, 317760, Note_on_c, 2, 46, 95
5, 318240, Note_off_c, 2, 46, 95
5, 318240, Note_on_c, 2, 39, 95
5, 318600, Note_on_c, 3, 39, 79
5, 318720, Note_off_c, 2, 39, 95
5, 318720, Note_off_c, 3, 39, 79
5, 318720, Note_on_c, 3, 41, 95
5, 319200, Note_off_c, 3, 41, 95
5, 319200, Note_on_c, 2, 41, 95
5, 319680, Note_off_c, 2, 41, 95
5, 319680, Note_on_c, 2, 41, 95
5, 320160, Note_off_c, 2, 41, 95
5, 320160, Note_on_c, 2, 41, 95
5, 320400, Note_off_c, 2, 41, 95
5, 320400, Note_on_c, 2, 36, 95
5, 320640, Note_off_c, 2, 36, 95
5, 320640, Note_on_c, 2, 39, 95
5, 320880, Note_off_c, 2, 39, 95
5, 320880, Note_on_c, 2, 41, 70
5, 321120, Note_off_c, 2, 41, 70
5, 321120, Note_on_c, 2, 41, 95
5, 321600, Note_off_c, 2, 41, 95
5, 321600, Note_on_c, 2, 41, 95
5, 321840, Note_off_c, 2, 41, 95
5, 321840, Note_on_c, 2, 36, 95
5, 322080, Note_off_c, 2, 36, 95
5, 322080, Note_on_c, 2, 39, 95
5, 322320, Note_off_c, 2, 39, 95
5, 322320, Note_on_c, 2, 41, 70
5, 322560, Note_off_c, 2, 41, 70
5, 322560, Note_on_c, 2, 34, 95
5, 323040, Note_off_c, 2, 34, 95
5, 323040, Note_on_c, 2, 46, 95
5, 323520, Note_off_c, 2, 46, 95
5, 323520, Note_on_c, 2, 41, 95
5, 323760, Note_off_c, 2, 41, 95
5, 323760, Note_on_c, 2, 34, 95
5, 324000, Note_off_c, 2, 34, 95
5, 324000, Note_on_c, 2, 36, 95
5, 324240, Note_off_c, 2, 36, 95
5, 324240, Note_on_c, 2, 38, 95
5, 324480, Note_off_c, 2, 38, 95
5, 324480, Note_on_c, 2, 39, 95
5, 324960, Note_off_c, 2, 39, 95
5, 324960, Note_on_c, 2, 39, 95
5, 325440, Note_off_c, 2, 39, 95
5, 325440, Note_on_c, 2, 46, 95
5, 325920, Note_off_c, 2, 46, 95
5, 325920, Note_on_c, 2, 39, 95
5, 326400, Note_off_c, 2, 39, 95
5, 326400, Note_on_c, 2, 41, 95
5, 326880, Note_off_c, 2, 41, 95
5, 326880, Note_on_c, 2, 41, 95
5, 327120, Note_off_c, 2, 41, 95
5, 327120, Note_on_c, 2, 41, 95
5, 327360, Note_off_c, 2, 41, 95
5, 327360, Note_on_c, 2, 41, 95
5, 327840, Note_off_c, 2, 41, 95
5, 327840, Note_on_c, 2, 41, 95
5, 328080, Note_off_c, 2, 41, 95
5, 328080, Note_on_c, 2, 41, 95
5, 328320, Note_off_c, 2, 41, 95
5, 328320, Note_on_c, 2, 39, 95
5, 328560, Note_off_c, 2, 39, 95
5, 328560, Note_on_c, 2, 41, 95
5, 328800, Note_off_c, 2, 41, 95
5, 328800, Note_on_c, 2, 41, 95
5, 329280, Note_off_c, 2, 41, 95
5, 329280, Note_on_c, 2, 41, 95
5, 329760, Note_off_c, 2, 41, 95
5, 329760, Note_on_c, 2, 41, 95
5, 330240, Note_off_c, 2, 41, 95
5, 330240, Note_on_c, 2, 34, 95
5, 330720, Note_off_c, 2, 34, 95
5, 330720, Note_on_c, 2, 34, 95
5, 331200, Note_off_c, 2, 34, 95
5, 331200, Note_on_c, 2, 34, 95
5, 331680, Note_off_c, 2, 34, 95
5, 331680, Note_on_c, 2, 36, 95
5, 331920, Note_off_c, 2, 36, 95
5, 331920, Note_on_c, 2, 38, 70
5, 332160, Note_off_c, 2, 38, 70
5, 332160, Note_on_c, 2, 39, 95
5, 332640, Note_off_c, 2, 39, 95
5, 332640, Note_on_c, 2, 39, 95
5, 333120, Note_off_c, 2, 39, 95
5, 333120, Note_on_c, 2, 46, 95
5, 333600, Note_off_c, 2, 46, 95
5, 333600, Note_on_c, 2, 39, 95
5, 334080, Note_off_c, 2, 39, 95
5, 334080, Note_on_c, 2, 41, 95
5, 334560, Note_off_c, 2, 41, 95
5, 334560, Note_on_c, 2, 41, 95
5, 335040, Note_off_c, 2, 41, 95
5, 335040, Note_on_c, 2, 41, 95
5, 335520, Note_off_c, 2, 41, 95
5, 335520, Note_on_c, 2, 41, 95
5, 335760, Note_off_c, 2, 41, 95
5, 335760, Note_on_c, 2, 41, 95
5, 336000, Note_off_c, 2, 41, 95
5, 336000, Note_on_c, 2, 39, 95
5, 336240, Note_off_c, 2, 39, 95
5, 336240, Note_on_c, 2, 41, 95
5, 336480, Note_off_c, 2, 41, 95
5, 336480, Note_on_c, 2, 41, 95
5, 336960, Note_off_c, 2, 41, 95
5, 336960, Note_on_c, 2, 41, 95
5, 337200, Note_off_c, 2, 41, 95
5, 337200, Note_on_c, 2, 36, 95
5, 337440, Note_off_c, 2, 36, 95
5, 337440, Note_on_c, 2, 39, 95
5, 337680, Note_off_c, 2, 39, 95
5, 337680, Note_on_c, 2, 41, 95
5, 337920, Note_off_c, 2, 41, 95
5, 337920, Note_on_c, 2, 34, 95
5, 338400, Note_off_c, 2, 34, 95
5, 338400, Note_on_c, 2, 34, 95
5, 338880, Note_off_c, 2, 34, 95
5, 338880, Note_on_c, 2, 34, 95
5, 339360, Note_off_c, 2, 34, 95
5, 339360, Note_on_c, 2, 34, 95
5, 339600, Note_off_c, 2, 34, 95
5, 339600, Note_on_c, 2, 36, 95
5, 339840, Note_off_c, 2, 36, 95
5, 339840, Note_on_c, 2, 39, 95
5, 340320, Note_off_c, 2, 39, 95
5, 340320, Note_on_c, 2, 39, 95
5, 340800, Note_off_c, 2, 39, 95
5, 340800, Note_on_c, 2, 39, 95
5, 341280, Note_off_c, 2, 39, 95
5, 341280, Note_on_c, 2, 39, 95
5, 341760, Note_off_c, 2, 39, 95
5, 341760, Note_on_c, 2, 41, 95
5, 342000, Note_off_c, 2, 41, 95
5, 342000, Note_on_c, 2, 41, 95
5, 342240, Note_off_c, 2, 41, 95
5, 342240, Note_on_c, 2, 41, 95
5, 342480, Note_off_c, 2, 41, 95
5, 342480, Note_on_c, 2, 41, 95
5, 342720, Note_off_c, 2, 41, 95
5, 342720, Note_on_c, 2, 41, 95
5, 342960, Note_off_c, 2, 41, 95
5, 342960, Note_on_c, 2, 41, 95
5, 343200, Note_off_c, 2, 41, 95
5, 343200, Note_on_c, 2, 41, 95
5, 343440, Note_off_c, 2, 41, 95
5, 343440, Note_on_c, 2, 41, 95
5, 343680, Note_off_c, 2, 41, 95
5, 343680, Note_on_c, 2, 41, 95
5, 343920, Note_off_c, 2, 41, 95
5, 343920, Note_on_c, 2, 41, 95
5, 344160, Note_off_c, 2, 41, 95
5, 344160, Note_on_c, 2, 41, 95
5, 344400, Note_off_c, 2, 41, 95
5, 344400, Note_on_c, 2, 41, 95
5, 344640, Note_off_c, 2, 41, 95
5, 344640, Note_on_c, 2, 41, 95
5, 344880, Note_off_c, 2, 41, 95
5, 344880, Note_on_c, 2, 41, 95
5, 345120, Note_off_c, 2, 41, 95
5, 345120, Note_on_c, 2, 41, 95
5, 345360, Note_off_c, 2, 41, 95
5, 345360, Note_on_c, 2, 41, 95
5, 345600, Note_off_c, 2, 41, 95
5, 345600, Note_on_c, 2, 39, 95
5, 345840, Note_off_c, 2, 39, 95
5, 345840, Note_on_c, 2, 41, 70
5, 346080, Note_off_c, 2, 41, 70
5, 346080, Note_on_c, 2, 41, 95
5, 346320, Note_off_c, 2, 41, 95
5, 346320, Note_on_c, 2, 41, 95
5, 346560, Note_off_c, 2, 41, 95
5, 346560, Note_on_c, 2, 39, 95
5, 346800, Note_off_c, 2, 39, 95
5, 346800, Note_on_c, 2, 41, 70
5, 347040, Note_off_c, 2, 41, 70
5, 347040, Note_on_c, 2, 41, 95
5, 347280, Note_off_c, 2, 41, 95
5, 347280, Note_on_c, 2, 41, 95
5, 347520, Note_off_c, 2, 41, 95
5, 347520, Note_on_c, 2, 41, 95
5, 348000, Note_off_c, 2, 41, 95
5, 348000, Note_on_c, 2, 41, 95
5, 348480, Note_off_c, 2, 41, 95
5, 348480, Note_on_c, 2, 41, 95
5, 348960, Note_off_c, 2, 41, 95
5, 348960, Note_on_c, 2, 41, 95
5, 349440, Note_off_c, 2, 41, 95
5, 349440, Note_on_c, 2, 41, 95
5, 349680, Note_off_c, 2, 41, 95
5, 349680, Note_on_c, 2, 41, 95
5, 349920, Note_off_c, 2, 41, 95
5, 349920, Note_on_c, 2, 41, 95
5, 350160, Note_off_c, 2, 41, 95
5, 350160, Note_on_c, 2, 41, 95
5, 350400, Note_off_c, 2, 41, 95
5, 350400, Note_on_c, 2, 41, 95
5, 350640, Note_off_c, 2, 41, 95
5, 350640, Note_on_c, 2, 41, 95
5, 350880, Note_off_c, 2, 41, 95
5, 350880, Note_on_c, 2, 41, 95
5, 351120, Note_off_c, 2, 41, 95
5, 351120, Note_on_c, 2, 41, 95
5, 351360, Note_off_c, 2, 41, 95
5, 351360, Note_on_c, 2, 41, 95
5, 351840, Note_off_c, 2, 41, 95
5, 351840, Note_on_c, 2, 41, 95
5, 352320, Note_off_c, 2, 41, 95
5, 352320, Note_on_c, 2, 39, 95
5, 352800, Note_off_c, 2, 39, 95
5, 352800, Note_on_c, 2, 32, 95
5, 353280, Note_off_c, 2, 32, 95
5, 353280, Note_on_c, 2, 34, 95
5, 360960, Note_off_c, 2, 34, 95
5, 360960, End_track
6, 0, Start_track
6, 0, Pitch_bend_c, 9, 8192
6, 0, Control_c, 9, 7, 95
6, 0, Control_c, 9, 10, 79
6, 0, Control_c, 9, 93, 31
6, 0, Control_c, 9, 91, 63
6, 0, Control_c, 9, 95, 0
6, 0, Control_c, 9, 92, 0
6, 0, Control_c, 9, 11, 127
6, 0, Program_c, 9, 0
6, 13440, Note_on_c, 9, 51, 95
6, 13440, Note_on_c, 9, 40, 95
6, 13920, Note_off_c, 9, 51, 95
6, 13920, Note_off_c, 9, 40, 95
6, 13920, Note_on_c, 9, 51, 95
6, 13920, Note_on_c, 9, 40, 95
6, 13920, Note_on_c, 9, 36, 95
6, 14400, Note_off_c, 9, 51, 95
6, 14400, Note_off_c, 9, 40, 95
6, 14400, Note_off_c, 9, 36, 95
6, 14400, Note_on_c, 9, 47, 95
6, 14640, Note_off_c, 9, 47, 95
6, 14640, Note_on_c, 9, 40, 63
6, 14760, Note_off_c, 9, 40, 63
6, 14760, Note_on_c, 9, 40, 79
6, 14880, Note_off_c, 9, 40, 79
6, 14880, Note_on_c, 9, 40, 95
6, 15000, Note_off_c, 9, 40, 95
6, 15000, Note_on_c, 9, 40, 95
6, 15120, Note_off_c, 9, 40, 95
6, 15120, Note_on_c, 9, 45, 95
6, 15120, Note_on_c, 9, 36, 95
6, 15360, Note_off_c, 9, 45, 95
6, 15360, Note_off_c, 9, 36, 95
6, 15360, Note_on_c, 9, 57, 95
6, 15360, Note_on_c, 9, 36, 95
6, 16320, Note_off_c, 9, 57, 95
6, 16320, Note_off_c, 9, 36, 95
6, 16320, Note_on_c, 9, 51, 95
6, 16320, Note_on_c, 9, 40, 95
6, 16800, Note_off_c, 9, 51, 95
6, 16800, Note_off_c, 9, 40, 95
6, 16800, Note_on_c, 9, 51, 95
6, 17280, Note_off_c, 9, 51, 95
6, 17280, Note_on_c, 9, 51, 95
6, 17280, Note_on_c, 9, 36, 95
6, 17760, Note_off_c, 9, 51, 95
6, 17760, Note_off_c, 9, 36, 95
6, 17760, Note_on_c, 9, 51, 95
6, 17760, Note_on_c, 9, 40, 95
6, 18240, Note_off_c, 9, 51, 95
6, 18240, Note_off_c, 9, 40, 95
6, 18240, Note_on_c, 9, 51, 95
6, 18240, Note_on_c, 9, 36, 95
6, 18720, Note_off_c, 9, 51, 95
6, 18720, Note_off_c, 9, 36, 95
6, 18720, Note_on_c, 9, 51, 95
6, 18720, Note_on_c, 9, 36, 95
6, 19200, Note_off_c, 9, 51, 95
6, 19200, Note_off_c, 9, 36, 95
6, 19200, Note_on_c, 9, 51, 95
6, 19200, Note_on_c, 9, 36, 95
6, 19680, Note_off_c, 9, 51, 95
6, 19680, Note_off_c, 9, 36, 95
6, 19680, Note_on_c, 9, 51, 95
6, 20160, Note_off_c, 9, 51, 95
6, 20160, Note_on_c, 9, 51, 95
6, 20160, Note_on_c, 9, 40, 95
6, 20640, Note_off_c, 9, 51, 95
6, 20640, Note_off_c, 9, 40, 95
6, 20640, Note_on_c, 9, 51, 95
6, 21120, Note_off_c, 9, 51, 95
6, 21120, Note_on_c, 9, 51, 95
6, 21120, Note_on_c, 9, 36, 95
6, 21600, Note_off_c, 9, 51, 95
6, 21600, Note_off_c, 9, 36, 95
6, 21600, Note_on_c, 9, 51, 95
6, 21600, Note_on_c, 9, 40, 95
6, 22080, Note_off_c, 9, 51, 95
6, 22080, Note_off_c, 9, 40, 95
6, 22080, Note_on_c, 9, 51, 95
6, 22080, Note_on_c, 9, 36, 95
6, 22560, Note_off_c, 9, 51, 95
6, 22560, Note_off_c, 9, 36, 95
6, 22560, Note_on_c, 9, 51, 95
6, 22560, Note_on_c, 9, 40, 47
6, 22680, Note_off_c, 9, 51, 95
6, 22680, Note_off_c, 9, 40, 47
6, 22680, Note_on_c, 9, 40, 63
6, 22800, Note_off_c, 9, 40, 63
6, 22800, Note_on_c, 9, 40, 79
6, 22920, Note_off_c, 9, 40, 79
6, 22920, Note_on_c, 9, 40, 95
6, 23040, Note_off_c, 9, 40, 95
6, 23040, Note_on_c, 9, 57, 95
6, 23040, Note_on_c, 9, 36, 95
6, 24000, Note_off_c, 9, 57, 95
6, 24000, Note_off_c, 9, 36, 95
6, 24000, Note_on_c, 9, 51, 95
6, 24000, Note_on_c, 9, 40, 95
6, 24480, Note_off_c, 9, 51, 95
6, 24480, Note_off_c, 9, 40, 95
6, 24480, Note_on_c, 9, 51, 95
6, 24960, Note_off_c, 9, 51, 95
6, 24960, Note_on_c, 9, 51, 95
6, 24960, Note_on_c, 9, 36, 95
6, 25440, Note_off_c, 9, 51, 95
6, 25440, Note_off_c, 9, 36, 95
6, 25440, Note_on_c, 9, 51, 95
6, 25920, Note_off_c, 9, 51, 95
6, 25920, Note_on_c, 9, 51, 95
6, 25920, Note_on_c, 9, 36, 95
6, 26400, Note_off_c, 9, 51, 95
6, 26400, Note_off_c, 9, 36, 95
6, 26400, Note_on_c, 9, 51, 95
6, 26400, Note_on_c, 9, 36, 95
6, 26880, Note_off_c, 9, 51, 95
6, 26880, Note_off_c, 9, 36, 95
6, 26880, Note_on_c, 9, 51, 95
6, 26880, Note_on_c, 9, 36, 95
6, 27360, Note_off_c, 9, 51, 95
6, 27360, Note_off_c, 9, 36, 95
6, 27360, Note_on_c, 9, 51, 95
6, 27840, Note_off_c, 9, 51, 95
6, 27840, Note_on_c, 9, 51, 95
6, 27840, Note_on_c, 9, 40, 95
6, 28320, Note_off_c, 9, 51, 95
6, 28320, Note_off_c, 9, 40, 95
6, 28320, Note_on_c, 9, 51, 95
6, 28800, Note_off_c, 9, 51, 95
6, 28800, Note_on_c, 9, 51, 95
6, 28800, Note_on_c, 9, 47, 95
6, 28960, Note_off_c, 9, 51, 95
6, 28960, Note_off_c, 9, 47, 95
6, 28960, Note_on_c, 9, 40, 95
6, 29120, Note_off_c, 9, 40, 95
6, 29120, Note_on_c, 9, 45, 95
6, 29280, Note_off_c, 9, 45, 95
6, 29280, Note_on_c, 9, 36, 95
6, 29760, Note_off_c, 9, 36, 95
6, 29760, Note_on_c, 9, 51, 95
6, 29760, Note_on_c, 9, 47, 95
6, 29920, Note_off_c, 9, 51, 95
6, 29920, Note_off_c, 9, 47, 95
6, 29920, Note_on_c, 9, 40, 95
6, 30080, Note_off_c, 9, 40, 95
6, 30080, Note_on_c, 9, 45, 95
6, 30240, Note_off_c, 9, 45, 95
6, 30240, Note_on_c, 9, 36, 95
6, 30720, Note_off_c, 9, 36, 95
6, 30720, Note_on_c, 9, 57, 79
6, 30720, Note_on_c, 9, 36, 95
6, 31200, Note_off_c, 9, 57, 79
6, 31200, Note_off_c, 9, 36, 95
6, 31200, Note_on_c, 9, 51, 95
6, 31680, Note_off_c, 9, 51, 95
6, 31680, Note_on_c, 9, 51, 95
6, 31680, Note_on_c, 9, 40, 95
6, 32160, Note_off_c, 9, 51, 95
6, 32160, Note_off_c, 9, 40, 95
6, 32160, Note_on_c, 9, 51, 95
6, 32640, Note_off_c, 9, 51, 95
6, 32640, Note_on_c, 9, 51, 95
6, 32640, Note_on_c, 9, 36, 95
6, 33120, Note_off_c, 9, 51, 95
6, 33120, Note_off_c, 9, 36, 95
6, 33120, Note_on_c, 9, 51, 95
6, 33600, Note_off_c, 9, 51, 95
6, 33600, Note_on_c, 9, 51, 95
6, 33600, Note_on_c, 9, 40, 95
6, 34080, Note_off_c, 9, 51, 95
6, 34080, Note_off_c, 9, 40, 95
6, 34080, Note_on_c, 9, 51, 95
6, 34560, Note_off_c, 9, 51, 95
6, 34560, Note_on_c, 9, 51, 95
6, 34560, Note_on_c, 9, 36, 95
6, 35040, Note_off_c, 9, 51, 95
6, 35040, Note_off_c, 9, 36, 95
6, 35040, Note_on_c, 9, 51, 95
6, 35520, Note_off_c, 9, 51, 95
6, 35520, Note_on_c, 9, 51, 95
6, 35520, Note_on_c, 9, 40, 95
6, 36000, Note_off_c, 9, 51, 95
6, 36000, Note_off_c, 9, 40, 95
6, 36000, Note_on_c, 9, 51, 95
6, 36480, Note_off_c, 9, 51, 95
6, 36480, Note_on_c, 9, 51, 95
6, 36480, Note_on_c, 9, 36, 95
6, 36960, Note_off_c, 9, 51, 95
6, 36960, Note_off_c, 9, 36, 95
6, 36960, Note_on_c, 9, 51, 95
6, 37440, Note_off_c, 9, 51, 95
6, 37440, Note_on_c, 9, 51, 95
6, 37440, Note_on_c, 9, 33, 111
6, 37920, Note_off_c, 9, 51, 95
6, 37920, Note_off_c, 9, 33, 111
6, 37920, Note_on_c, 9, 51, 95
6, 38400, Note_off_c, 9, 51, 95
6, 38400, Note_on_c, 9, 51, 111
6, 38400, Note_on_c, 9, 36, 95
6, 38880, Note_off_c, 9, 51, 111
6, 38880, Note_off_c, 9, 36, 95
6, 38880, Note_on_c, 9, 51, 95
6, 39360, Note_off_c, 9, 51, 95
6, 39360, Note_on_c, 9, 51, 95
6, 39360, Note_on_c, 9, 33, 127
6, 39840, Note_off_c, 9, 51, 95
6, 39840, Note_off_c, 9, 33, 127
6, 39840, Note_on_c, 9, 51, 95
6, 40320, Note_off_c, 9, 51, 95
6, 40320, Note_on_c, 9, 51, 95
6, 40320, Note_on_c, 9, 36, 95
6, 40800, Note_off_c, 9, 51, 95
6, 40800, Note_off_c, 9, 36, 95
6, 40800, Note_on_c, 9, 51, 95
6, 41280, Note_off_c, 9, 51, 95
6, 41280, Note_on_c, 9, 51, 95
6, 41280, Note_on_c, 9, 33, 127
6, 41760, Note_off_c, 9, 51, 95
6, 41760, Note_off_c, 9, 33, 127
6, 41760, Note_on_c, 9, 51, 95
6, 42240, Note_off_c, 9, 51, 95
6, 42240, Note_on_c, 9, 51, 95
6, 42240, Note_on_c, 9, 36, 95
6, 42720, Note_off_c, 9, 51, 95
6, 42720, Note_off_c, 9, 36, 95
6, 42720, Note_on_c, 9, 51, 95
6, 43200, Note_off_c, 9, 51, 95
6, 43200, Note_on_c, 9, 51, 95
6, 43200, Note_on_c, 9, 33, 127
6, 43680, Note_off_c, 9, 51, 95
6, 43680, Note_off_c, 9, 33, 127
6, 43680, Note_on_c, 9, 51, 95
6, 44160, Note_off_c, 9, 51, 95
6, 44160, Note_on_c, 9, 51, 95
6, 44160, Note_on_c, 9, 47, 127
6, 44160, Note_on_c, 9, 40, 95
6, 44160, Note_on_c, 9, 36, 95
6, 44640, Note_off_c, 9, 51, 95
6, 44640, Note_off_c, 9, 47, 127
6, 44640, Note_off_c, 9, 40, 95
6, 44640, Note_off_c, 9, 36, 95
6, 44640, Note_on_c, 9, 51, 95
6, 44640, Note_on_c, 9, 45, 95
6, 44640, Note_on_c, 9, 40, 127
6, 44640, Note_on_c, 9, 36, 95
6, 45120, Note_off_c, 9, 51, 95
6, 45120, Note_off_c, 9, 45, 95
6, 45120, Note_off_c, 9, 40, 127
6, 45120, Note_off_c, 9, 36, 95
6, 45120, Note_on_c, 9, 51, 95
6, 45120, Note_on_c, 9, 43, 95
6, 45120, Note_on_c, 9, 40, 95
6, 45120, Note_on_c, 9, 36, 95
6, 45600, Note_off_c, 9, 51, 95
6, 45600, Note_off_c, 9, 43, 95
6, 45600, Note_off_c, 9, 40, 95
6, 45600, Note_off_c, 9, 36, 95
6, 45600, Note_on_c, 9, 51, 95
6, 45600, Note_on_c, 9, 41, 95
6, 45600, Note_on_c, 9, 36, 95
6, 46080, Note_off_c, 9, 51, 95
6, 46080, Note_off_c, 9, 41, 95
6, 46080, Note_off_c, 9, 36, 95
6, 46080, Note_on_c, 9, 51, 95
6, 46080, Note_on_c, 9, 36, 95
6, 46560, Note_off_c, 9, 51, 95
6, 46560, Note_off_c, 9, 36, 95
6, 46560, Note_on_c, 9, 51, 95
6, 47040, Note_off_c, 9, 51, 95
6, 47040, Note_on_c, 9, 51, 95
6, 47040, Note_on_c, 9, 33, 95
6, 47520, Note_off_c, 9, 51, 95
6, 47520, Note_off_c, 9, 33, 95
6, 47520, Note_on_c, 9, 51, 95
6, 48000, Note_off_c, 9, 51, 95
6, 48000, Note_on_c, 9, 51, 95
6, 48000, Note_on_c, 9, 36, 95
6, 48480, Note_off_c, 9, 51, 95
6, 48480, Note_off_c, 9, 36, 95
6, 48480, Note_on_c, 9, 51, 95
6, 48960, Note_off_c, 9, 51, 95
6, 48960, Note_on_c, 9, 51, 95
6, 48960, Note_on_c, 9, 33, 95
6, 49440, Note_off_c, 9, 51, 95
6, 49440, Note_off_c, 9, 33, 95
6, 49440, Note_on_c, 9, 51, 95
6, 49920, Note_off_c, 9, 51, 95
6, 49920, Note_on_c, 9, 51, 95
6, 49920, Note_on_c, 9, 36, 95
6, 50400, Note_off_c, 9, 51, 95
6, 50400, Note_off_c, 9, 36, 95
6, 50400, Note_on_c, 9, 51, 95
6, 50400, Note_on_c, 9, 36, 95
6, 50880, Note_off_c, 9, 51, 95
6, 50880, Note_off_c, 9, 36, 95
6, 50880, Note_on_c, 9, 51, 95
6, 50880, Note_on_c, 9, 40, 95
6, 51360, Note_off_c, 9, 51, 95
6, 51360, Note_off_c, 9, 40, 95
6, 51360, Note_on_c, 9, 51, 95
6, 51840, Note_off_c, 9, 51, 95
6, 51840, Note_on_c, 9, 51, 95
6, 51840, Note_on_c, 9, 40, 95
6, 52320, Note_off_c, 9, 51, 95
6, 52320, Note_off_c, 9, 40, 95
6, 52320, Note_on_c, 9, 51, 95
6, 52320, Note_on_c, 9, 40, 111
6, 52320, Note_on_c, 9, 36, 95
6, 52800, Note_off_c, 9, 51, 95
6, 52800, Note_off_c, 9, 40, 111
6, 52800, Note_off_c, 9, 36, 95
6, 52800, Note_on_c, 9, 51, 95
6, 52800, Note_on_c, 9, 40, 63
6, 52920, Note_off_c, 9, 51, 95
6, 52920, Note_off_c, 9, 40, 63
6, 52920, Note_on_c, 9, 40, 79
6, 53040, Note_off_c, 9, 40, 79
6, 53040, Note_on_c, 9, 40, 95
6, 53160, Note_off_c, 9, 40, 95
6, 53160, Note_on_c, 9, 40, 95
6, 53280, Note_off_c, 9, 40, 95
6, 53280, Note_on_c, 9, 51, 95
6, 53280, Note_on_c, 9, 45, 63
6, 53280, Note_on_c, 9, 36, 95
6, 53760, Note_off_c, 9, 51, 95
6, 53760, Note_off_c, 9, 45, 63
6, 53760, Note_off_c, 9, 36, 95
6, 53760, Note_on_c, 9, 57, 95
6, 53760, Note_on_c, 9, 36, 95
6, 54240, Note_off_c, 9, 57, 95
6, 54240, Note_off_c, 9, 36, 95
6, 54240, Note_on_c, 9, 51, 95
6, 54720, Note_off_c, 9, 51, 95
6, 54720, Note_on_c, 9, 51, 95
6, 54720, Note_on_c, 9, 40, 95
6, 55200, Note_off_c, 9, 51, 95
6, 55200, Note_off_c, 9, 40, 95
6, 55200, Note_on_c, 9, 51, 95
6, 55680, Note_off_c, 9, 51, 95
6, 55680, Note_on_c, 9, 51, 95
6, 55680, Note_on_c, 9, 36, 95
6, 56160, Note_off_c, 9, 51, 95
6, 56160, Note_off_c, 9, 36, 95
6, 56160, Note_on_c, 9, 51, 95
6, 56160, Note_on_c, 9, 40, 95
6, 56640, Note_off_c, 9, 51, 95
6, 56640, Note_off_c, 9, 40, 95
6, 56640, Note_on_c, 9, 51, 95
6, 56640, Note_on_c, 9, 40, 95
6, 57120, Note_off_c, 9, 51, 95
6, 57120, Note_off_c, 9, 40, 95
6, 57120, Note_on_c, 9, 51, 95
6, 57120, Note_on_c, 9, 36, 95
6, 57600, Note_off_c, 9, 51, 95
6, 57600, Note_off_c, 9, 36, 95
6, 57600, Note_on_c, 9, 57, 95
6, 57600, Note_on_c, 9, 36, 95
6, 58080, Note_off_c, 9, 57, 95
6, 58080, Note_off_c, 9, 36, 95
6, 58080, Note_on_c, 9, 51, 95
6, 58560, Note_off_c, 9, 51, 95
6, 58560, Note_on_c, 9, 51, 95
6, 58560, Note_on_c, 9, 40, 95
6, 59040, Note_off_c, 9, 51, 95
6, 59040, Note_off_c, 9, 40, 95
6, 59040, Note_on_c, 9, 51, 95
6, 59520, Note_off_c, 9, 51, 95
6, 59520, Note_on_c, 9, 51, 95
6, 59520, Note_on_c, 9, 36, 95
6, 60000, Note_off_c, 9, 51, 95
6, 60000, Note_off_c, 9, 36, 95
6, 60000, Note_on_c, 9, 51, 95
6, 60000, Note_on_c, 9, 40, 111
6, 60480, Note_off_c, 9, 51, 95
6, 60480, Note_off_c, 9, 40, 111
6, 60480, Note_on_c, 9, 47, 95
6, 60480, Note_on_c, 9, 40, 95
6, 60600, Note_off_c, 9, 47, 95
6, 60600, Note_off_c, 9, 40, 95
6, 60600, Note_on_c, 9, 40, 63
6, 60720, Note_off_c, 9, 40, 63
6, 60720, Note_on_c, 9, 40, 79
6, 60840, Note_off_c, 9, 40, 79
6, 60840, Note_on_c, 9, 45, 79
6, 60960, Note_off_c, 9, 45, 79
6, 60960, Note_on_c, 9, 45, 95
6, 61080, Note_off_c, 9, 45, 95
6, 61080, Note_on_c, 9, 45, 95
6, 61200, Note_off_c, 9, 45, 95
6, 61200, Note_on_c, 9, 43, 111
6, 61320, Note_off_c, 9, 43, 111
6, 61320, Note_on_c, 9, 41, 95
6, 61440, Note_off_c, 9, 41, 95
6, 61440, Note_on_c, 9, 51, 111
6, 61440, Note_on_c, 9, 36, 95
6, 61920, Note_off_c, 9, 51, 111
6, 61920, Note_off_c, 9, 36, 95
6, 61920, Note_on_c, 9, 51, 95
6, 62400, Note_off_c, 9, 51, 95
6, 62400, Note_on_c, 9, 51, 95
6, 62400, Note_on_c, 9, 40, 95
6, 62880, Note_off_c, 9, 51, 95
6, 62880, Note_off_c, 9, 40, 95
6, 62880, Note_on_c, 9, 51, 95
6, 62880, Note_on_c, 9, 36, 95
6, 63360, Note_off_c, 9, 51, 95
6, 63360, Note_off_c, 9, 36, 95
6, 63360, Note_on_c, 9, 51, 95
6, 63360, Note_on_c, 9, 36, 95
6, 63840, Note_off_c, 9, 51, 95
6, 63840, Note_off_c, 9, 36, 95
6, 63840, Note_on_c, 9, 51, 95
6, 64320, Note_off_c, 9, 51, 95
6, 64320, Note_on_c, 9, 51, 95
6, 64320, Note_on_c, 9, 40, 95
6, 64800, Note_off_c, 9, 51, 95
6, 64800, Note_off_c, 9, 40, 95
6, 64800, Note_on_c, 9, 51, 95
6, 65280, Note_off_c, 9, 51, 95
6, 65280, Note_on_c, 9, 51, 111
6, 65280, Note_on_c, 9, 36, 95
6, 65760, Note_off_c, 9, 51, 111
6, 65760, Note_off_c, 9, 36, 95
6, 65760, Note_on_c, 9, 51, 95
6, 65760, Note_on_c, 9, 36, 95
6, 66240, Note_off_c, 9, 51, 95
6, 66240, Note_off_c, 9, 36, 95
6, 66240, Note_on_c, 9, 51, 95
6, 66240, Note_on_c, 9, 40, 95
6, 66720, Note_off_c, 9, 51, 95
6, 66720, Note_off_c, 9, 40, 95
6, 66720, Note_on_c, 9, 51, 95
6, 66720, Note_on_c, 9, 36, 95
6, 67200, Note_off_c, 9, 51, 95
6, 67200, Note_off_c, 9, 36, 95
6, 67200, Note_on_c, 9, 51, 95
6, 67200, Note_on_c, 9, 47, 95
6, 67200, Note_on_c, 9, 40, 95
6, 67360, Note_off_c, 9, 51, 95
6, 67360, Note_off_c, 9, 47, 95
6, 67360, Note_off_c, 9, 40, 95
6, 67360, Note_on_c, 9, 45, 95
6, 67520, Note_off_c, 9, 45, 95
6, 67520, Note_on_c, 9, 43, 95
6, 67680, Note_off_c, 9, 43, 95
6, 67680, Note_on_c, 9, 51, 95
6, 67680, Note_on_c, 9, 36, 95
6, 68160, Note_off_c, 9, 51, 95
6, 68160, Note_off_c, 9, 36, 95
6, 68160, Note_on_c, 9, 51, 95
6, 68160, Note_on_c, 9, 47, 95
6, 68160, Note_on_c, 9, 40, 95
6, 68320, Note_off_c, 9, 51, 95
6, 68320, Note_off_c, 9, 47, 95
6, 68320, Note_off_c, 9, 40, 95
6, 68320, Note_on_c, 9, 45, 95
6, 68480, Note_off_c, 9, 45, 95
6, 68480, Note_on_c, 9, 43, 95
6, 68640, Note_off_c, 9, 43, 95
6, 68640, Note_on_c, 9, 51, 95
6, 68640, Note_on_c, 9, 36, 95
6, 69120, Note_off_c, 9, 51, 95
6, 69120, Note_off_c, 9, 36, 95
6, 69120, Note_on_c, 9, 51, 111
6, 69120, Note_on_c, 9, 36, 95
6, 69600, Note_off_c, 9, 51, 111
6, 69600, Note_off_c, 9, 36, 95
6, 69600, Note_on_c, 9, 51, 95
6, 70080, Note_off_c, 9, 51, 95
6, 70080, Note_on_c, 9, 51, 95
6, 70080, Note_on_c, 9, 40, 95
6, 70560, Note_off_c, 9, 51, 95
6, 70560, Note_off_c, 9, 40, 95
6, 70560, Note_on_c, 9, 51, 95
6, 71040, Note_off_c, 9, 51, 95
6, 71040, Note_on_c, 9, 51, 95
6, 71040, Note_on_c, 9, 36, 95
6, 71520, Note_off_c, 9, 51, 95
6, 71520, Note_off_c, 9, 36, 95
6, 71520, Note_on_c, 9, 51, 95
6, 71520, Note_on_c, 9, 36, 95
6, 72000, Note_off_c, 9, 51, 95
6, 72000, Note_off_c, 9, 36, 95
6, 72000, Note_on_c, 9, 51, 95
6, 72000, Note_on_c, 9, 40, 95
6, 72480, Note_off_c, 9, 51, 95
6, 72480, Note_off_c, 9, 40, 95
6, 72480, Note_on_c, 9, 51, 95
6, 72480, Note_on_c, 9, 36, 95
6, 72720, Note_off_c, 9, 51, 95
6, 72720, Note_off_c, 9, 36, 95
6, 72720, Note_on_c, 9, 40, 95
6, 72960, Note_off_c, 9, 40, 95
6, 72960, Note_on_c, 9, 51, 111
6, 72960, Note_on_c, 9, 36, 95
6, 73440, Note_off_c, 9, 51, 111
6, 73440, Note_off_c, 9, 36, 95
6, 73440, Note_on_c, 9, 51, 95
6, 73440, Note_on_c, 9, 36, 95
6, 73920, Note_off_c, 9, 51, 95
6, 73920, Note_off_c, 9, 36, 95
6, 73920, Note_on_c, 9, 51, 95
6, 73920, Note_on_c, 9, 40, 95
6, 74400, Note_off_c, 9, 51, 95
6, 74400, Note_off_c, 9, 40, 95
6, 74400, Note_on_c, 9, 51, 95
6, 74880, Note_off_c, 9, 51, 95
6, 74880, Note_on_c, 9, 51, 95
6, 74880, Note_on_c, 9, 36, 95
6, 75360, Note_off_c, 9, 51, 95
6, 75360, Note_off_c, 9, 36, 95
6, 75360, Note_on_c, 9, 51, 95
6, 75840, Note_off_c, 9, 51, 95
6, 75840, Note_on_c, 9, 51, 95
6, 75840, Note_on_c, 9, 40, 95
6, 76320, Note_off_c, 9, 51, 95
6, 76320, Note_off_c, 9, 40, 95
6, 76320, Note_on_c, 9, 40, 95
6, 76800, Note_off_c, 9, 40, 95
6, 76800, Note_on_c, 9, 57, 79
6, 76800, Note_on_c, 9, 36, 95
6, 77280, Note_off_c, 9, 57, 79
6, 77280, Note_off_c, 9, 36, 95
6, 77280, Note_on_c, 9, 51, 95
6, 77760, Note_off_c, 9, 51, 95
6, 77760, Note_on_c, 9, 51, 95
6, 77760, Note_on_c, 9, 40, 95
6, 78240, Note_off_c, 9, 51, 95
6, 78240, Note_off_c, 9, 40, 95
6, 78240, Note_on_c, 9, 51, 95
6, 78720, Note_off_c, 9, 51, 95
6, 78720, Note_on_c, 9, 51, 95
6, 78720, Note_on_c, 9, 36, 95
6, 79200, Note_off_c, 9, 51, 95
6, 79200, Note_off_c, 9, 36, 95
6, 79200, Note_on_c, 9, 51, 95
6, 79200, Note_on_c, 9, 36, 95
6, 79680, Note_off_c, 9, 51, 95
6, 79680, Note_off_c, 9, 36, 95
6, 79680, Note_on_c, 9, 51, 95
6, 79680, Note_on_c, 9, 36, 95
6, 80160, Note_off_c, 9, 51, 95
6, 80160, Note_off_c, 9, 36, 95
6, 80160, Note_on_c, 9, 51, 95
6, 80160, Note_on_c, 9, 36, 95
6, 80640, Note_off_c, 9, 51, 95
6, 80640, Note_off_c, 9, 36, 95
6, 80640, Note_on_c, 9, 51, 111
6, 80640, Note_on_c, 9, 36, 95
6, 81120, Note_off_c, 9, 51, 111
6, 81120, Note_off_c, 9, 36, 95
6, 81120, Note_on_c, 9, 51, 95
6, 81600, Note_off_c, 9, 51, 95
6, 81600, Note_on_c, 9, 51, 95
6, 81600, Note_on_c, 9, 40, 95
6, 82080, Note_off_c, 9, 51, 95
6, 82080, Note_off_c, 9, 40, 95
6, 82080, Note_on_c, 9, 51, 95
6, 82560, Note_off_c, 9, 51, 95
6, 82560, Note_on_c, 9, 51, 95
6, 82560, Note_on_c, 9, 40, 95
6, 82560, Note_on_c, 9, 36, 95
6, 83040, Note_off_c, 9, 51, 95
6, 83040, Note_off_c, 9, 40, 95
6, 83040, Note_off_c, 9, 36, 95
6, 83040, Note_on_c, 9, 51, 95
6, 83040, Note_on_c, 9, 40, 95
6, 83040, Note_on_c, 9, 36, 95
6, 83520, Note_off_c, 9, 51, 95
6, 83520, Note_off_c, 9, 40, 95
6, 83520, Note_off_c, 9, 36, 95
6, 83520, Note_on_c, 9, 51, 95
6, 83520, Note_on_c, 9, 40, 95
6, 83520, Note_on_c, 9, 36, 95
6, 84000, Note_off_c, 9, 51, 95
6, 84000, Note_off_c, 9, 40, 95
6, 84000, Note_off_c, 9, 36, 95
6, 84000, Note_on_c, 9, 51, 95
6, 84000, Note_on_c, 9, 43, 95
6, 84000, Note_on_c, 9, 36, 95
6, 84480, Note_off_c, 9, 51, 95
6, 84480, Note_off_c, 9, 43, 95
6, 84480, Note_off_c, 9, 36, 95
6, 84480, Note_on_c, 9, 57, 95
6, 84480, Note_on_c, 9, 45, 95
6, 84480, Note_on_c, 9, 36, 95
6, 84960, Note_off_c, 9, 57, 95
6, 84960, Note_off_c, 9, 45, 95
6, 84960, Note_off_c, 9, 36, 95
6, 84960, Note_on_c, 9, 49, 95
6, 84960, Note_on_c, 9, 45, 95
6, 84960, Note_on_c, 9, 36, 95
6, 85440, Note_off_c, 9, 49, 95
6, 85440, Note_off_c, 9, 45, 95
6, 85440, Note_off_c, 9, 36, 95
6, 85440, Note_on_c, 9, 57, 95
6, 85440, Note_on_c, 9, 45, 95
6, 85440, Note_on_c, 9, 36, 95
6, 85920, Note_off_c, 9, 57, 95
6, 85920, Note_off_c, 9, 45, 95
6, 85920, Note_off_c, 9, 36, 95
6, 85920, Note_on_c, 9, 49, 95
6, 85920, Note_on_c, 9, 45, 95
6, 85920, Note_on_c, 9, 36, 95
6, 86400, Note_off_c, 9, 49, 95
6, 86400, Note_off_c, 9, 45, 95
6, 86400, Note_off_c, 9, 36, 95
6, 86400, Note_on_c, 9, 57, 95
6, 86400, Note_on_c, 9, 47, 95
6, 86640, Note_off_c, 9, 57, 95
6, 86640, Note_off_c, 9, 47, 95
6, 86640, Note_on_c, 9, 40, 95
6, 86760, Note_off_c, 9, 40, 95
6, 86760, Note_on_c, 9, 40, 95
6, 86880, Note_off_c, 9, 40, 95
6, 86880, Note_on_c, 9, 40, 95
6, 87000, Note_off_c, 9, 40, 95
6, 87000, Note_on_c, 9, 40, 95
6, 87120, Note_off_c, 9, 40, 95
6, 87120, Note_on_c, 9, 45, 95
6, 87240, Note_off_c, 9, 45, 95
6, 87240, Note_on_c, 9, 45, 95
6, 87360, Note_off_c, 9, 45, 95
6, 87360, Note_on_c, 9, 45, 95
6, 87480, Note_off_c, 9, 45, 95
6, 87480, Note_on_c, 9, 45, 95
6, 87600, Note_off_c, 9, 45, 95
6, 87600, Note_on_c, 9, 43, 95
6, 87720, Note_off_c, 9, 43, 95
6, 87720, Note_on_c, 9, 43, 95
6, 87840, Note_off_c, 9, 43, 95
6, 87840, Note_on_c, 9, 51, 95
6, 87840, Note_on_c, 9, 36, 95
6, 88320, Note_off_c, 9, 51, 95
6, 88320, Note_off_c, 9, 36, 95
6, 88320, Note_on_c, 9, 57, 95
6, 88320, Note_on_c, 9, 45, 95
6, 88320, Note_on_c, 9, 36, 95
6, 88800, Note_off_c, 9, 57, 95
6, 88800, Note_off_c, 9, 45, 95
6, 88800, Note_off_c, 9, 36, 95
6, 88800, Note_on_c, 9, 49, 95
6, 88800, Note_on_c, 9, 45, 95
6, 88800, Note_on_c, 9, 36, 95
6, 89280, Note_off_c, 9, 49, 95
6, 89280, Note_off_c, 9, 45, 95
6, 89280, Note_off_c, 9, 36, 95
6, 89280, Note_on_c, 9, 57, 95
6, 89280, Note_on_c, 9, 45, 95
6, 89280, Note_on_c, 9, 36, 95
6, 89760, Note_off_c, 9, 57, 95
6, 89760, Note_off_c, 9, 45, 95
6, 89760, Note_off_c, 9, 36, 95
6, 89760, Note_on_c, 9, 49, 95
6, 89760, Note_on_c, 9, 45, 95
6, 89760, Note_on_c, 9, 36, 95
6, 90240, Note_off_c, 9, 49, 95
6, 90240, Note_off_c, 9, 45, 95
6, 90240, Note_off_c, 9, 36, 95
6, 90240, Note_on_c, 9, 57, 95
6, 90240, Note_on_c, 9, 40, 95
6, 90360, Note_off_c, 9, 57, 95
6, 90360, Note_off_c, 9, 40, 95
6, 90360, Note_on_c, 9, 40, 95
6, 90480, Note_off_c, 9, 40, 95
6, 90480, Note_on_c, 9, 40, 95
6, 90720, Note_off_c, 9, 40, 95
6, 90720, Note_on_c, 9, 40, 95
6, 90840, Note_off_c, 9, 40, 95
6, 90840, Note_on_c, 9, 40, 95
6, 90960, Note_off_c, 9, 40, 95
6, 90960, Note_on_c, 9, 40, 95
6, 91200, Note_off_c, 9, 40, 95
6, 91200, Note_on_c, 9, 40, 111
6, 91680, Note_off_c, 9, 40, 111
6, 91680, Note_on_c, 9, 51, 95
6, 91680, Note_on_c, 9, 36, 95
6, 92160, Note_off_c, 9, 51, 95
6, 92160, Note_off_c, 9, 36, 95
6, 92160, Note_on_c, 9, 57, 95
6, 92160, Note_on_c, 9, 36, 95
6, 92640, Note_off_c, 9, 57, 95
6, 92640, Note_off_c, 9, 36, 95
6, 92640, Note_on_c, 9, 51, 95
6, 93120, Note_off_c, 9, 51, 95
6, 93120, Note_on_c, 9, 51, 95
6, 93120, Note_on_c, 9, 33, 127
6, 93600, Note_off_c, 9, 51, 95
6, 93600, Note_off_c, 9, 33, 127
6, 93600, Note_on_c, 9, 51, 95
6, 94080, Note_off_c, 9, 51, 95
6, 94080, Note_on_c, 9, 51, 95
6, 94080, Note_on_c, 9, 36, 95
6, 94560, Note_off_c, 9, 51, 95
6, 94560, Note_off_c, 9, 36, 95
6, 94560, Note_on_c, 9, 51, 95
6, 95040, Note_off_c, 9, 51, 95
6, 95040, Note_on_c, 9, 51, 95
6, 95040, Note_on_c, 9, 33, 127
6, 95520, Note_off_c, 9, 51, 95
6, 95520, Note_off_c, 9, 33, 127
6, 95520, Note_on_c, 9, 51, 95
6, 96000, Note_off_c, 9, 51, 95
6, 96000, Note_on_c, 9, 51, 95
6, 96000, Note_on_c, 9, 36, 95
6, 96480, Note_off_c, 9, 51, 95
6, 96480, Note_off_c, 9, 36, 95
6, 96480, Note_on_c, 9, 51, 95
6, 96960, Note_off_c, 9, 51, 95
6, 96960, Note_on_c, 9, 51, 95
6, 96960, Note_on_c, 9, 33, 127
6, 97440, Note_off_c, 9, 51, 95
6, 97440, Note_off_c, 9, 33, 127
6, 97440, Note_on_c, 9, 51, 95
6, 97440, Note_on_c, 9, 36, 95
6, 97920, Note_off_c, 9, 51, 95
6, 97920, Note_off_c, 9, 36, 95
6, 97920, Note_on_c, 9, 51, 95
6, 97920, Note_on_c, 9, 36, 95
6, 98400, Note_off_c, 9, 51, 95
6, 98400, Note_off_c, 9, 36, 95
6, 98400, Note_on_c, 9, 51, 95
6, 98880, Note_off_c, 9, 51, 95
6, 98880, Note_on_c, 9, 51, 95
6, 98880, Note_on_c, 9, 33, 127
6, 99360, Note_off_c, 9, 51, 95
6, 99360, Note_off_c, 9, 33, 127
6, 99360, Note_on_c, 9, 51, 95
6, 99360, Note_on_c, 9, 36, 95
6, 99840, Note_off_c, 9, 51, 95
6, 99840, Note_off_c, 9, 36, 95
6, 99840, Note_on_c, 9, 51, 95
6, 99840, Note_on_c, 9, 36, 95
6, 100320, Note_off_c, 9, 51, 95
6, 100320, Note_off_c, 9, 36, 95
6, 100320, Note_on_c, 9, 51, 95
6, 100320, Note_on_c, 9, 36, 95
6, 100800, Note_off_c, 9, 51, 95
6, 100800, Note_off_c, 9, 36, 95
6, 100800, Note_on_c, 9, 51, 95
6, 100800, Note_on_c, 9, 33, 127
6, 101280, Note_off_c, 9, 51, 95
6, 101280, Note_off_c, 9, 33, 127
6, 101280, Note_on_c, 9, 51, 95
6, 101280, Note_on_c, 9, 36, 95
6, 101760, Note_off_c, 9, 51, 95
6, 101760, Note_off_c, 9, 36, 95
6, 101760, Note_on_c, 9, 51, 95
6, 101760, Note_on_c, 9, 36, 95
6, 102240, Note_off_c, 9, 51, 95
6, 102240, Note_off_c, 9, 36, 95
6, 102240, Note_on_c, 9, 51, 95
6, 102720, Note_off_c, 9, 51, 95
6, 102720, Note_on_c, 9, 51, 95
6, 102720, Note_on_c, 9, 33, 127
6, 103200, Note_off_c, 9, 51, 95
6, 103200, Note_off_c, 9, 33, 127
6, 103200, Note_on_c, 9, 51, 95
6, 103200, Note_on_c, 9, 36, 95
6, 103680, Note_off_c, 9, 51, 95
6, 103680, Note_off_c, 9, 36, 95
6, 103680, Note_on_c, 9, 51, 95
6, 103680, Note_on_c, 9, 36, 95
6, 104160, Note_off_c, 9, 51, 95
6, 104160, Note_off_c, 9, 36, 95
6, 104160, Note_on_c, 9, 51, 95
6, 104640, Note_off_c, 9, 51, 95
6, 104640, Note_on_c, 9, 51, 95
6, 104640, Note_on_c, 9, 33, 127
6, 105120, Note_off_c, 9, 51, 95
6, 105120, Note_off_c, 9, 33, 127
6, 105120, Note_on_c, 9, 51, 95
6, 105600, Note_off_c, 9, 51, 95
6, 105600, Note_on_c, 9, 51, 95
6, 105600, Note_on_c, 9, 36, 95
6, 106080, Note_off_c, 9, 51, 95
6, 106080, Note_off_c, 9, 36, 95
6, 106080, Note_on_c, 9, 51, 95
6, 106080, Note_on_c, 9, 36, 95
6, 106560, Note_off_c, 9, 51, 95
6, 106560, Note_off_c, 9, 36, 95
6, 106560, Note_on_c, 9, 51, 95
6, 106560, Note_on_c, 9, 40, 95
6, 107040, Note_off_c, 9, 51, 95
6, 107040, Note_off_c, 9, 40, 95
6, 107040, Note_on_c, 9, 51, 95
6, 107040, Note_on_c, 9, 40, 63
6, 107520, Note_off_c, 9, 51, 95
6, 107520, Note_off_c, 9, 40, 63
6, 107520, Note_on_c, 9, 57, 79
6, 107520, Note_on_c, 9, 36, 95
6, 108000, Note_off_c, 9, 57, 79
6, 108000, Note_off_c, 9, 36, 95
6, 108000, Note_on_c, 9, 51, 95
6, 108480, Note_off_c, 9, 51, 95
6, 108480, Note_on_c, 9, 51, 95
6, 108480, Note_on_c, 9, 33, 127
6, 108960, Note_off_c, 9, 51, 95
6, 108960, Note_off_c, 9, 33, 127
6, 108960, Note_on_c, 9, 51, 95
6, 108960, Note_on_c, 9, 36, 95
6, 109440, Note_off_c, 9, 51, 95
6, 109440, Note_off_c, 9, 36, 95
6, 109440, Note_on_c, 9, 51, 95
6, 109440, Note_on_c, 9, 36, 95
6, 109920, Note_off_c, 9, 51, 95
6, 109920, Note_off_c, 9, 36, 95
6, 109920, Note_on_c, 9, 51, 95
6, 110400, Note_off_c, 9, 51, 95
6, 110400, Note_on_c, 9, 51, 95
6, 110400, Note_on_c, 9, 33, 127
6, 110880, Note_off_c, 9, 51, 95
6, 110880, Note_off_c, 9, 33, 127
6, 110880, Note_on_c, 9, 51, 95
6, 110880, Note_on_c, 9, 36, 95
6, 111360, Note_off_c, 9, 51, 95
6, 111360, Note_off_c, 9, 36, 95
6, 111360, Note_on_c, 9, 51, 95
6, 111360, Note_on_c, 9, 36, 95
6, 111840, Note_off_c, 9, 51, 95
6, 111840, Note_off_c, 9, 36, 95
6, 111840, Note_on_c, 9, 51, 95
6, 112320, Note_off_c, 9, 51, 95
6, 112320, Note_on_c, 9, 51, 95
6, 112320, Note_on_c, 9, 33, 127
6, 112800, Note_off_c, 9, 51, 95
6, 112800, Note_off_c, 9, 33, 127
6, 112800, Note_on_c, 9, 51, 95
6, 112800, Note_on_c, 9, 36, 95
6, 113280, Note_off_c, 9, 51, 95
6, 113280, Note_off_c, 9, 36, 95
6, 113280, Note_on_c, 9, 51, 95
6, 113280, Note_on_c, 9, 36, 95
6, 113760, Note_off_c, 9, 51, 95
6, 113760, Note_off_c, 9, 36, 95
6, 113760, Note_on_c, 9, 51, 95
6, 114240, Note_off_c, 9, 51, 95
6, 114240, Note_on_c, 9, 51, 95
6, 114240, Note_on_c, 9, 33, 127
6, 114720, Note_off_c, 9, 51, 95
6, 114720, Note_off_c, 9, 33, 127
6, 114720, Note_on_c, 9, 51, 95
6, 114720, Note_on_c, 9, 36, 95
6, 115200, Note_off_c, 9, 51, 95
6, 115200, Note_off_c, 9, 36, 95
6, 115200, Note_on_c, 9, 51, 95
6, 115200, Note_on_c, 9, 36, 95
6, 115680, Note_off_c, 9, 51, 95
6, 115680, Note_off_c, 9, 36, 95
6, 115680, Note_on_c, 9, 51, 95
6, 116160, Note_off_c, 9, 51, 95
6, 116160, Note_on_c, 9, 51, 95
6, 116160, Note_on_c, 9, 33, 127
6, 116640, Note_off_c, 9, 51, 95
6, 116640, Note_off_c, 9, 33, 127
6, 116640, Note_on_c, 9, 51, 95
6, 116640, Note_on_c, 9, 36, 95
6, 117120, Note_off_c, 9, 51, 95
6, 117120, Note_off_c, 9, 36, 95
6, 117120, Note_on_c, 9, 51, 95
6, 117120, Note_on_c, 9, 36, 95
6, 117600, Note_off_c, 9, 51, 95
6, 117600, Note_off_c, 9, 36, 95
6, 117600, Note_on_c, 9, 51, 95
6, 118080, Note_off_c, 9, 51, 95
6, 118080, Note_on_c, 9, 51, 95
6, 118080, Note_on_c, 9, 33, 127
6, 118560, Note_off_c, 9, 51, 95
6, 118560, Note_off_c, 9, 33, 127
6, 118560, Note_on_c, 9, 51, 95
6, 118560, Note_on_c, 9, 36, 95
6, 119040, Note_off_c, 9, 51, 95
6, 119040, Note_off_c, 9, 36, 95
6, 119040, Note_on_c, 9, 51, 95
6, 119040, Note_on_c, 9, 36, 95
6, 119520, Note_off_c, 9, 51, 95
6, 119520, Note_off_c, 9, 36, 95
6, 119520, Note_on_c, 9, 51, 95
6, 120000, Note_off_c, 9, 51, 95
6, 120000, Note_on_c, 9, 51, 95
6, 120000, Note_on_c, 9, 40, 79
6, 120480, Note_off_c, 9, 51, 95
6, 120480, Note_off_c, 9, 40, 79
6, 120480, Note_on_c, 9, 51, 95
6, 120480, Note_on_c, 9, 36, 95
6, 120960, Note_off_c, 9, 51, 95
6, 120960, Note_off_c, 9, 36, 95
6, 120960, Note_on_c, 9, 51, 95
6, 120960, Note_on_c, 9, 36, 95
6, 121440, Note_off_c, 9, 51, 95
6, 121440, Note_off_c, 9, 36, 95
6, 121440, Note_on_c, 9, 51, 95
6, 121440, Note_on_c, 9, 40, 95
6, 121920, Note_off_c, 9, 51, 95
6, 121920, Note_off_c, 9, 40, 95
6, 121920, Note_on_c, 9, 51, 95
6, 121920, Note_on_c, 9, 40, 95
6, 122400, Note_off_c, 9, 51, 95
6, 122400, Note_off_c, 9, 40, 95
6, 122400, Note_on_c, 9, 51, 95
6, 122400, Note_on_c, 9, 40, 95
6, 122520, Note_off_c, 9, 51, 95
6, 122520, Note_off_c, 9, 40, 95
6, 122520, Note_on_c, 9, 40, 95
6, 122640, Note_off_c, 9, 40, 95
6, 122640, Note_on_c, 9, 40, 95
6, 122760, Note_off_c, 9, 40, 95
6, 122760, Note_on_c, 9, 40, 95
6, 122880, Note_off_c, 9, 40, 95
6, 122880, Note_on_c, 9, 57, 79
6, 122880, Note_on_c, 9, 36, 95
6, 123360, Note_off_c, 9, 57, 79
6, 123360, Note_off_c, 9, 36, 95
6, 123360, Note_on_c, 9, 51, 95
6, 123840, Note_off_c, 9, 51, 95
6, 123840, Note_on_c, 9, 51, 95
6, 123840, Note_on_c, 9, 40, 95
6, 124320, Note_off_c, 9, 51, 95
6, 124320, Note_off_c, 9, 40, 95
6, 124320, Note_on_c, 9, 51, 95
6, 124320, Note_on_c, 9, 36, 95
6, 124800, Note_off_c, 9, 51, 95
6, 124800, Note_off_c, 9, 36, 95
6, 124800, Note_on_c, 9, 51, 95
6, 124800, Note_on_c, 9, 36, 95
6, 125280, Note_off_c, 9, 51, 95
6, 125280, Note_off_c, 9, 36, 95
6, 125280, Note_on_c, 9, 51, 95
6, 125760, Note_off_c, 9, 51, 95
6, 125760, Note_on_c, 9, 51, 95
6, 125760, Note_on_c, 9, 40, 95
6, 126240, Note_off_c, 9, 51, 95
6, 126240, Note_off_c, 9, 40, 95
6, 126240, Note_on_c, 9, 51, 95
6, 126240, Note_on_c, 9, 36, 95
6, 126720, Note_off_c, 9, 51, 95
6, 126720, Note_off_c, 9, 36, 95
6, 126720, Note_on_c, 9, 51, 95
6, 126720, Note_on_c, 9, 36, 95
6, 127200, Note_off_c, 9, 51, 95
6, 127200, Note_off_c, 9, 36, 95
6, 127200, Note_on_c, 9, 51, 95
6, 127680, Note_off_c, 9, 51, 95
6, 127680, Note_on_c, 9, 51, 95
6, 127680, Note_on_c, 9, 40, 95
6, 128160, Note_off_c, 9, 51, 95
6, 128160, Note_off_c, 9, 40, 95
6, 128160, Note_on_c, 9, 51, 95
6, 128160, Note_on_c, 9, 36, 95
6, 128640, Note_off_c, 9, 51, 95
6, 128640, Note_off_c, 9, 36, 95
6, 128640, Note_on_c, 9, 51, 95
6, 128640, Note_on_c, 9, 36, 95
6, 129120, Note_off_c, 9, 51, 95
6, 129120, Note_off_c, 9, 36, 95
6, 129120, Note_on_c, 9, 51, 95
6, 129120, Note_on_c, 9, 40, 95
6, 129600, Note_off_c, 9, 51, 95
6, 129600, Note_off_c, 9, 40, 95
6, 129600, Note_on_c, 9, 51, 95
6, 129600, Note_on_c, 9, 40, 95
6, 130080, Note_off_c, 9, 51, 95
6, 130080, Note_off_c, 9, 40, 95
6, 130080, Note_on_c, 9, 51, 95
6, 130080, Note_on_c, 9, 36, 95
6, 130560, Note_off_c, 9, 51, 95
6, 130560, Note_off_c, 9, 36, 95
6, 130560, Note_on_c, 9, 57, 63
6, 130560, Note_on_c, 9, 36, 95
6, 131040, Note_off_c, 9, 57, 63
6, 131040, Note_off_c, 9, 36, 95
6, 131040, Note_on_c, 9, 51, 95
6, 131520, Note_off_c, 9, 51, 95
6, 131520, Note_on_c, 9, 51, 95
6, 131520, Note_on_c, 9, 40, 95
6, 132000, Note_off_c, 9, 51, 95
6, 132000, Note_off_c, 9, 40, 95
6, 132000, Note_on_c, 9, 51, 95
6, 132000, Note_on_c, 9, 36, 95
6, 132480, Note_off_c, 9, 51, 95
6, 132480, Note_off_c, 9, 36, 95
6, 132480, Note_on_c, 9, 51, 95
6, 132480, Note_on_c, 9, 36, 95
6, 132960, Note_off_c, 9, 51, 95
6, 132960, Note_off_c, 9, 36, 95
6, 132960, Note_on_c, 9, 51, 95
6, 133440, Note_off_c, 9, 51, 95
6, 133440, Note_on_c, 9, 51, 95
6, 133440, Note_on_c, 9, 40, 95
6, 133920, Note_off_c, 9, 51, 95
6, 133920, Note_off_c, 9, 40, 95
6, 133920, Note_on_c, 9, 51, 95
6, 133920, Note_on_c, 9, 36, 95
6, 134400, Note_off_c, 9, 51, 95
6, 134400, Note_off_c, 9, 36, 95
6, 134400, Note_on_c, 9, 51, 95
6, 134400, Note_on_c, 9, 36, 95
6, 134880, Note_off_c, 9, 51, 95
6, 134880, Note_off_c, 9, 36, 95
6, 134880, Note_on_c, 9, 51, 95
6, 135360, Note_off_c, 9, 51, 95
6, 135360, Note_on_c, 9, 51, 95
6, 135360, Note_on_c, 9, 40, 95
6, 135840, Note_off_c, 9, 51, 95
6, 135840, Note_off_c, 9, 40, 95
6, 135840, Note_on_c, 9, 51, 95
6, 135840, Note_on_c, 9, 36, 95
6, 136320, Note_off_c, 9, 51, 95
6, 136320, Note_off_c, 9, 36, 95
6, 136320, Note_on_c, 9, 51, 95
6, 136320, Note_on_c, 9, 36, 95
6, 136800, Note_off_c, 9, 51, 95
6, 136800, Note_off_c, 9, 36, 95
6, 136800, Note_on_c, 9, 51, 95
6, 137280, Note_off_c, 9, 51, 95
6, 137280, Note_on_c, 9, 51, 95
6, 137280, Note_on_c, 9, 40, 95
6, 137760, Note_off_c, 9, 51, 95
6, 137760, Note_off_c, 9, 40, 95
6, 137760, Note_on_c, 9, 51, 95
6, 138000, Note_off_c, 9, 51, 95
6, 138000, Note_on_c, 9, 40, 79
6, 138120, Note_off_c, 9, 40, 79
6, 138120, Note_on_c, 9, 40, 95
6, 138240, Note_off_c, 9, 40, 95
6, 138240, Note_on_c, 9, 57, 63
6, 138240, Note_on_c, 9, 36, 95
6, 138720, Note_off_c, 9, 57, 63
6, 138720, Note_off_c, 9, 36, 95
6, 138720, Note_on_c, 9, 51, 95
6, 139200, Note_off_c, 9, 51, 95
6, 139200, Note_on_c, 9, 51, 95
6, 139200, Note_on_c, 9, 40, 95
6, 139680, Note_off_c, 9, 51, 95
6, 139680, Note_off_c, 9, 40, 95
6, 139680, Note_on_c, 9, 51, 95
6, 139680, Note_on_c, 9, 36, 95
6, 140160, Note_off_c, 9, 51, 95
6, 140160, Note_off_c, 9, 36, 95
6, 140160, Note_on_c, 9, 51, 95
6, 140160, Note_on_c, 9, 36, 95
6, 140640, Note_off_c, 9, 51, 95
6, 140640, Note_off_c, 9, 36, 95
6, 140640, Note_on_c, 9, 51, 95
6, 141120, Note_off_c, 9, 51, 95
6, 141120, Note_on_c, 9, 51, 95
6, 141120, Note_on_c, 9, 40, 95
6, 141600, Note_off_c, 9, 51, 95
6, 141600, Note_off_c, 9, 40, 95
6, 141600, Note_on_c, 9, 51, 95
6, 141600, Note_on_c, 9, 36, 95
6, 142080, Note_off_c, 9, 51, 95
6, 142080, Note_off_c, 9, 36, 95
6, 142080, Note_on_c, 9, 51, 95
6, 142080, Note_on_c, 9, 36, 95
6, 142560, Note_off_c, 9, 51, 95
6, 142560, Note_off_c, 9, 36, 95
6, 142560, Note_on_c, 9, 51, 95
6, 143040, Note_off_c, 9, 51, 95
6, 143040, Note_on_c, 9, 51, 95
6, 143040, Note_on_c, 9, 40, 95
6, 143520, Note_off_c, 9, 51, 95
6, 143520, Note_off_c, 9, 40, 95
6, 143520, Note_on_c, 9, 51, 95
6, 143520, Note_on_c, 9, 36, 95
6, 144000, Note_off_c, 9, 51, 95
6, 144000, Note_off_c, 9, 36, 95
6, 144000, Note_on_c, 9, 51, 95
6, 144000, Note_on_c, 9, 47, 95
6, 144000, Note_on_c, 9, 40, 63
6, 144000, Note_on_c, 9, 36, 95
6, 144480, Note_off_c, 9, 51, 95
6, 144480, Note_off_c, 9, 47, 95
6, 144480, Note_off_c, 9, 40, 63
6, 144480, Note_off_c, 9, 36, 95
6, 144480, Note_on_c, 9, 51, 95
6, 144480, Note_on_c, 9, 45, 95
6, 144480, Note_on_c, 9, 40, 63
6, 144480, Note_on_c, 9, 36, 95
6, 144960, Note_off_c, 9, 51, 95
6, 144960, Note_off_c, 9, 45, 95
6, 144960, Note_off_c, 9, 40, 63
6, 144960, Note_off_c, 9, 36, 95
6, 144960, Note_on_c, 9, 51, 95
6, 144960, Note_on_c, 9, 43, 95
6, 144960, Note_on_c, 9, 40, 63
6, 144960, Note_on_c, 9, 36, 95
6, 145440, Note_off_c, 9, 51, 95
6, 145440, Note_off_c, 9, 43, 95
6, 145440, Note_off_c, 9, 40, 63
6, 145440, Note_off_c, 9, 36, 95
6, 145440, Note_on_c, 9, 51, 95
6, 145440, Note_on_c, 9, 41, 95
6, 145440, Note_on_c, 9, 40, 63
6, 145440, Note_on_c, 9, 36, 95
6, 145920, Note_off_c, 9, 51, 95
6, 145920, Note_off_c, 9, 41, 95
6, 145920, Note_off_c, 9, 40, 63
6, 145920, Note_off_c, 9, 36, 95
6, 145920, Note_on_c, 9, 57, 63
6, 145920, Note_on_c, 9, 36, 95
6, 146400, Note_off_c, 9, 57, 63
6, 146400, Note_off_c, 9, 36, 95
6, 146400, Note_on_c, 9, 51, 95
6, 146880, Note_off_c, 9, 51, 95
6, 146880, Note_on_c, 9, 51, 95
6, 146880, Note_on_c, 9, 40, 95
6, 147360, Note_off_c, 9, 51, 95
6, 147360, Note_off_c, 9, 40, 95
6, 147360, Note_on_c, 9, 51, 95
6, 147360, Note_on_c, 9, 36, 95
6, 147840, Note_off_c, 9, 51, 95
6, 147840, Note_off_c, 9, 36, 95
6, 147840, Note_on_c, 9, 51, 95
6, 147840, Note_on_c, 9, 36, 95
6, 148320, Note_off_c, 9, 51, 95
6, 148320, Note_off_c, 9, 36, 95
6, 148320, Note_on_c, 9, 51, 95
6, 148800, Note_off_c, 9, 51, 95
6, 148800, Note_on_c, 9, 51, 95
6, 148800, Note_on_c, 9, 40, 95
6, 149280, Note_off_c, 9, 51, 95
6, 149280, Note_off_c, 9, 40, 95
6, 149280, Note_on_c, 9, 51, 95
6, 149280, Note_on_c, 9, 36, 95
6, 149760, Note_off_c, 9, 51, 95
6, 149760, Note_off_c, 9, 36, 95
6, 149760, Note_on_c, 9, 51, 63
6, 149760, Note_on_c, 9, 36, 95
6, 150240, Note_off_c, 9, 51, 63
6, 150240, Note_off_c, 9, 36, 95
6, 150240, Note_on_c, 9, 51, 95
6, 150720, Note_off_c, 9, 51, 95
6, 150720, Note_on_c, 9, 51, 95
6, 150720, Note_on_c, 9, 40, 95
6, 151200, Note_off_c, 9, 51, 95
6, 151200, Note_off_c, 9, 40, 95
6, 151200, Note_on_c, 9, 51, 95
6, 151200, Note_on_c, 9, 36, 95
6, 151680, Note_off_c, 9, 51, 95
6, 151680, Note_off_c, 9, 36, 95
6, 151680, Note_on_c, 9, 51, 95
6, 152160, Note_off_c, 9, 51, 95
6, 152160, Note_on_c, 9, 51, 95
6, 152160, Note_on_c, 9, 47, 95
6, 152160, Note_on_c, 9, 40, 47
6, 152640, Note_off_c, 9, 51, 95
6, 152640, Note_off_c, 9, 47, 95
6, 152640, Note_off_c, 9, 40, 47
6, 152640, Note_on_c, 9, 51, 95
6, 152640, Note_on_c, 9, 45, 95
6, 152640, Note_on_c, 9, 40, 63
6, 152640, Note_on_c, 9, 36, 95
6, 153000, Note_off_c, 9, 51, 95
6, 153000, Note_off_c, 9, 45, 95
6, 153000, Note_off_c, 9, 40, 63
6, 153000, Note_off_c, 9, 36, 95
6, 153000, Note_on_c, 9, 40, 63
6, 153120, Note_off_c, 9, 40, 63
6, 153120, Note_on_c, 9, 40, 79
6, 153240, Note_off_c, 9, 40, 79
6, 153240, Note_on_c, 9, 40, 95
6, 153360, Note_off_c, 9, 40, 95
6, 153360, Note_on_c, 9, 45, 95
6, 153480, Note_off_c, 9, 45, 95
6, 153480, Note_on_c, 9, 43, 95
6, 153600, Note_off_c, 9, 43, 95
6, 153600, Note_on_c, 9, 57, 63
6, 153600, Note_on_c, 9, 36, 95
6, 154080, Note_off_c, 9, 57, 63
6, 154080, Note_off_c, 9, 36, 95
6, 154080, Note_on_c, 9, 51, 95
6, 154560, Note_off_c, 9, 51, 95
6, 154560, Note_on_c, 9, 51, 95
6, 154560, Note_on_c, 9, 40, 95
6, 155040, Note_off_c, 9, 51, 95
6, 155040, Note_off_c, 9, 40, 95
6, 155040, Note_on_c, 9, 36, 95
6, 155520, Note_off_c, 9, 36, 95
6, 155520, Note_on_c, 9, 51, 95
6, 155520, Note_on_c, 9, 40, 63
6, 155520, Note_on_c, 9, 36, 95
6, 155640, Note_off_c, 9, 51, 95
6, 155640, Note_off_c, 9, 40, 63
6, 155640, Note_off_c, 9, 36, 95
6, 155640, Note_on_c, 9, 40, 79
6, 155760, Note_off_c, 9, 40, 79
6, 155760, Note_on_c, 9, 40, 95
6, 156000, Note_off_c, 9, 40, 95
6, 156000, Note_on_c, 9, 51, 95
6, 156000, Note_on_c, 9, 40, 63
6, 156120, Note_off_c, 9, 51, 95
6, 156120, Note_off_c, 9, 40, 63
6, 156120, Note_on_c, 9, 40, 79
6, 156240, Note_off_c, 9, 40, 79
6, 156240, Note_on_c, 9, 40, 95
6, 156480, Note_off_c, 9, 40, 95
6, 156480, Note_on_c, 9, 51, 95
6, 156480, Note_on_c, 9, 40, 63
6, 156480, Note_on_c, 9, 36, 95
6, 156600, Note_off_c, 9, 51, 95
6, 156600, Note_off_c, 9, 40, 63
6, 156600, Note_off_c, 9, 36, 95
6, 156600, Note_on_c, 9, 40, 79
6, 156720, Note_off_c, 9, 40, 79
6, 156720, Note_on_c, 9, 40, 95
6, 156960, Note_off_c, 9, 40, 95
6, 156960, Note_on_c, 9, 51, 95
6, 156960, Note_on_c, 9, 40, 63
6, 157080, Note_off_c, 9, 51, 95
6, 157080, Note_off_c, 9, 40, 63
6, 157080, Note_on_c, 9, 40, 79
6, 157200, Note_off_c, 9, 40, 79
6, 157200, Note_on_c, 9, 45, 95
6, 157440, Note_off_c, 9, 45, 95
6, 157440, Note_on_c, 9, 57, 63
6, 157440, Note_on_c, 9, 36, 95
6, 157920, Note_off_c, 9, 57, 63
6, 157920, Note_off_c, 9, 36, 95
6, 157920, Note_on_c, 9, 51, 95
6, 158400, Note_off_c, 9, 51, 95
6, 158400, Note_on_c, 9, 51, 95
6, 158400, Note_on_c, 9, 40, 95
6, 158880, Note_off_c, 9, 51, 95
6, 158880, Note_off_c, 9, 40, 95
6, 158880, Note_on_c, 9, 51, 95
6, 158880, Note_on_c, 9, 36, 95
6, 159360, Note_off_c, 9, 51, 95
6, 159360, Note_off_c, 9, 36, 95
6, 159360, Note_on_c, 9, 51, 95
6, 159360, Note_on_c, 9, 36, 95
6, 159840, Note_off_c, 9, 51, 95
6, 159840, Note_off_c, 9, 36, 95
6, 159840, Note_on_c, 9, 51, 95
6, 159840, Note_on_c, 9, 40, 79
6, 160320, Note_off_c, 9, 51, 95
6, 160320, Note_off_c, 9, 40, 79
6, 160320, Note_on_c, 9, 51, 95
6, 160320, Note_on_c, 9, 40, 95
6, 160800, Note_off_c, 9, 51, 95
6, 160800, Note_off_c, 9, 40, 95
6, 160800, Note_on_c, 9, 51, 95
6, 160800, Note_on_c, 9, 40, 79
6, 160920, Note_off_c, 9, 51, 95
6, 160920, Note_off_c, 9, 40, 79
6, 160920, Note_on_c, 9, 40, 95
6, 161040, Note_off_c, 9, 40, 95
6, 161040, Note_on_c, 9, 40, 95
6, 161160, Note_off_c, 9, 40, 95
6, 161160, Note_on_c, 9, 40, 95
6, 161280, Note_off_c, 9, 40, 95
6, 161280, Note_on_c, 9, 57, 95
6, 161280, Note_on_c, 9, 36, 95
6, 161760, Note_off_c, 9, 57, 95
6, 161760, Note_off_c, 9, 36, 95
6, 161760, Note_on_c, 9, 49, 95
6, 161760, Note_on_c, 9, 40, 79
6, 161760, Note_on_c, 9, 36, 63
6, 162240, Note_off_c, 9, 49, 95
6, 162240, Note_off_c, 9, 40, 79
6, 162240, Note_off_c, 9, 36, 63
6, 162240, Note_on_c, 9, 57, 95
6, 162240, Note_on_c, 9, 36, 95
6, 162720, Note_off_c, 9, 57, 95
6, 162720, Note_off_c, 9, 36, 95
6, 162720, Note_on_c, 9, 49, 95
6, 162720, Note_on_c, 9, 40, 79
6, 162720, Note_on_c, 9, 36, 63
6, 163200, Note_off_c, 9, 49, 95
6, 163200, Note_off_c, 9, 40, 79
6, 163200, Note_off_c, 9, 36, 63
6, 163200, Note_on_c, 9, 57, 95
6, 163200, Note_on_c, 9, 36, 95
6, 163680, Note_off_c, 9, 57, 95
6, 163680, Note_off_c, 9, 36, 95
6, 163680, Note_on_c, 9, 49, 95
6, 163680, Note_on_c, 9, 40, 79
6, 163680, Note_on_c, 9, 36, 63
6, 164160, Note_off_c, 9, 49, 95
6, 164160, Note_off_c, 9, 40, 79
6, 164160, Note_off_c, 9, 36, 63
6, 164160, Note_on_c, 9, 57, 95
6, 164160, Note_on_c, 9, 36, 95
6, 164640, Note_off_c, 9, 57, 95
6, 164640, Note_off_c, 9, 36, 95
6, 164640, Note_on_c, 9, 49, 95
6, 164640, Note_on_c, 9, 40, 79
6, 164640, Note_on_c, 9, 36, 63
6, 165120, Note_off_c, 9, 49, 95
6, 165120, Note_off_c, 9, 40, 79
6, 165120, Note_off_c, 9, 36, 63
6, 165120, Note_on_c, 9, 57, 95
6, 165120, Note_on_c, 9, 36, 95
6, 165600, Note_off_c, 9, 57, 95
6, 165600, Note_off_c, 9, 36, 95
6, 165600, Note_on_c, 9, 49, 95
6, 165600, Note_on_c, 9, 40, 63
6, 165600, Note_on_c, 9, 36, 95
6, 166080, Note_off_c, 9, 49, 95
6, 166080, Note_off_c, 9, 40, 63
6, 166080, Note_off_c, 9, 36, 95
6, 166080, Note_on_c, 9, 57, 95
6, 166080, Note_on_c, 9, 36, 95
6, 166560, Note_off_c, 9, 57, 95
6, 166560, Note_off_c, 9, 36, 95
6, 166560, Note_on_c, 9, 49, 95
6, 166560, Note_on_c, 9, 40, 95
6, 166560, Note_on_c, 9, 36, 95
6, 167040, Note_off_c, 9, 49, 95
6, 167040, Note_off_c, 9, 40, 95
6, 167040, Note_off_c, 9, 36, 95
6, 167040, Note_on_c, 9, 40, 79
6, 167040, Note_on_c, 9, 36, 95
6, 167160, Note_off_c, 9, 40, 79
6, 167160, Note_off_c, 9, 36, 95
6, 167160, Note_on_c, 9, 40, 95
6, 167280, Note_off_c, 9, 40, 95
6, 167280, Note_on_c, 9, 40, 111
6, 167520, Note_off_c, 9, 40, 111
6, 167520, Note_on_c, 9, 40, 79
6, 167640, Note_off_c, 9, 40, 79
6, 167640, Note_on_c, 9, 40, 95
6, 167760, Note_off_c, 9, 40, 95
6, 167760, Note_on_c, 9, 40, 111
6, 168000, Note_off_c, 9, 40, 111
6, 168000, Note_on_c, 9, 40, 79
6, 168000, Note_on_c, 9, 36, 95
6, 168120, Note_off_c, 9, 40, 79
6, 168120, Note_off_c, 9, 36, 95
6, 168120, Note_on_c, 9, 40, 95
6, 168240, Note_off_c, 9, 40, 95
6, 168240, Note_on_c, 9, 40, 111
6, 168480, Note_off_c, 9, 40, 111
6, 168480, Note_on_c, 9, 40, 95
6, 168600, Note_off_c, 9, 40, 95
6, 168600, Note_on_c, 9, 40, 111
6, 168720, Note_off_c, 9, 40, 111
6, 168720, Note_on_c, 9, 45, 111
6, 168840, Note_off_c, 9, 45, 111
6, 168840, Note_on_c, 9, 43, 111
6, 168960, Note_off_c, 9, 43, 111
6, 168960, Note_on_c, 9, 49, 95
6, 168960, Note_on_c, 9, 36, 95
6, 169920, Note_off_c, 9, 49, 95
6, 169920, Note_off_c, 9, 36, 95
6, 169920, Note_on_c, 9, 57, 95
6, 169920, Note_on_c, 9, 40, 95
6, 170400, Note_off_c, 9, 57, 95
6, 170400, Note_off_c, 9, 40, 95
6, 170400, Note_on_c, 9, 36, 95
6, 170880, Note_off_c, 9, 36, 95
6, 170880, Note_on_c, 9, 49, 95
6, 170880, Note_on_c, 9, 36, 95
6, 171840, Note_off_c, 9, 49, 95
6, 171840, Note_off_c, 9, 36, 95
6, 171840, Note_on_c, 9, 57, 95
6, 171840, Note_on_c, 9, 40, 95
6, 172320, Note_off_c, 9, 57, 95
6, 172320, Note_off_c, 9, 40, 95
6, 172320, Note_on_c, 9, 36, 95
6, 172800, Note_off_c, 9, 36, 95
6, 172800, Note_on_c, 9, 49, 95
6, 172800, Note_on_c, 9, 36, 95
6, 173760, Note_off_c, 9, 49, 95
6, 173760, Note_off_c, 9, 36, 95
6, 173760, Note_on_c, 9, 57, 95
6, 173760, Note_on_c, 9, 40, 95
6, 174240, Note_off_c, 9, 57, 95
6, 174240, Note_off_c, 9, 40, 95
6, 174240, Note_on_c, 9, 36, 95
6, 174720, Note_off_c, 9, 36, 95
6, 174720, Note_on_c, 9, 49, 95
6, 174720, Note_on_c, 9, 40, 95
6, 174960, Note_off_c, 9, 49, 95
6, 174960, Note_off_c, 9, 40, 95
6, 174960, Note_on_c, 9, 40, 79
6, 175080, Note_off_c, 9, 40, 79
6, 175080, Note_on_c, 9, 40, 95
6, 175200, Note_off_c, 9, 40, 95
6, 175200, Note_on_c, 9, 40, 95
6, 175440, Note_off_c, 9, 40, 95
6, 175440, Note_on_c, 9, 40, 95
6, 175680, Note_off_c, 9, 40, 95
6, 175680, Note_on_c, 9, 40, 95
6, 175800, Note_off_c, 9, 40, 95
6, 175800, Note_on_c, 9, 40, 95
6, 175920, Note_off_c, 9, 40, 95
6, 175920, Note_on_c, 9, 40, 95
6, 176040, Note_off_c, 9, 40, 95
6, 176040, Note_on_c, 9, 45, 95
6, 176160, Note_off_c, 9, 45, 95
6, 176160, Note_on_c, 9, 45, 95
6, 176280, Note_off_c, 9, 45, 95
6, 176280, Note_on_c, 9, 45, 95
6, 176400, Note_off_c, 9, 45, 95
6, 176400, Note_on_c, 9, 43, 95
6, 176520, Note_off_c, 9, 43, 95
6, 176520, Note_on_c, 9, 43, 95
6, 176640, Note_off_c, 9, 43, 95
6, 176640, Note_on_c, 9, 49, 95
6, 176640, Note_on_c, 9, 36, 95
6, 177600, Note_off_c, 9, 49, 95
6, 177600, Note_off_c, 9, 36, 95
6, 177600, Note_on_c, 9, 57, 95
6, 177600, Note_on_c, 9, 40, 95
6, 178080, Note_off_c, 9, 57, 95
6, 178080, Note_off_c, 9, 40, 95
6, 178080, Note_on_c, 9, 36, 95
6, 178560, Note_off_c, 9, 36, 95
6, 178560, Note_on_c, 9, 49, 95
6, 178560, Note_on_c, 9, 36, 95
6, 179520, Note_off_c, 9, 49, 95
6, 179520, Note_off_c, 9, 36, 95
6, 179520, Note_on_c, 9, 57, 95
6, 179520, Note_on_c, 9, 40, 95
6, 180000, Note_off_c, 9, 57, 95
6, 180000, Note_off_c, 9, 40, 95
6, 180000, Note_on_c, 9, 36, 95
6, 180480, Note_off_c, 9, 36, 95
6, 180480, Note_on_c, 9, 49, 95
6, 180480, Note_on_c, 9, 36, 95
6, 181440, Note_off_c, 9, 49, 95
6, 181440, Note_off_c, 9, 36, 95
6, 181440, Note_on_c, 9, 57, 95
6, 181440, Note_on_c, 9, 40, 95
6, 181920, Note_off_c, 9, 57, 95
6, 181920, Note_off_c, 9, 40, 95
6, 181920, Note_on_c, 9, 36, 95
6, 182400, Note_off_c, 9, 36, 95
6, 182400, Note_on_c, 9, 49, 95
6, 182400, Note_on_c, 9, 40, 63
6, 182400, Note_on_c, 9, 36, 95
6, 182880, Note_off_c, 9, 49, 95
6, 182880, Note_off_c, 9, 40, 63
6, 182880, Note_off_c, 9, 36, 95
6, 182880, Note_on_c, 9, 40, 95
6, 183360, Note_off_c, 9, 40, 95
6, 183360, Note_on_c, 9, 40, 95
6, 183600, Note_off_c, 9, 40, 95
6, 183600, Note_on_c, 9, 40, 95
6, 183840, Note_off_c, 9, 40, 95
6, 183840, Note_on_c, 9, 40, 95
6, 184080, Note_off_c, 9, 40, 95
6, 184080, Note_on_c, 9, 40, 95
6, 184200, Note_off_c, 9, 40, 95
6, 184200, Note_on_c, 9, 40, 95
6, 184320, Note_off_c, 9, 40, 95
6, 184320, Note_on_c, 9, 49, 95
6, 184320, Note_on_c, 9, 36, 95
6, 185280, Note_off_c, 9, 49, 95
6, 185280, Note_off_c, 9, 36, 95
6, 185280, Note_on_c, 9, 57, 95
6, 185280, Note_on_c, 9, 40, 95
6, 186240, Note_off_c, 9, 57, 95
6, 186240, Note_off_c, 9, 40, 95
6, 186240, Note_on_c, 9, 49, 95
6, 186240, Note_on_c, 9, 36, 95
6, 186720, Note_off_c, 9, 49, 95
6, 186720, Note_off_c, 9, 36, 95
6, 186720, Note_on_c, 9, 36, 95
6, 187200, Note_off_c, 9, 36, 95
6, 187200, Note_on_c, 9, 57, 95
6, 187200, Note_on_c, 9, 40, 95
6, 187680, Note_off_c, 9, 57, 95
6, 187680, Note_off_c, 9, 40, 95
6, 187680, Note_on_c, 9, 36, 95
6, 188160, Note_off_c, 9, 36, 95
6, 188160, Note_on_c, 9, 49, 95
6, 188160, Note_on_c, 9, 36, 95
6, 188640, Note_off_c, 9, 49, 95
6, 188640, Note_off_c, 9, 36, 95
6, 188640, Note_on_c, 9, 40, 95
6, 188640, Note_on_c, 9, 36, 95
6, 189120, Note_off_c, 9, 40, 95
6, 189120, Note_off_c, 9, 36, 95
6, 189120, Note_on_c, 9, 57, 95
6, 189120, Note_on_c, 9, 36, 95
6, 189600, Note_off_c, 9, 57, 95
6, 189600, Note_off_c, 9, 36, 95
6, 189600, Note_on_c, 9, 40, 95
6, 189600, Note_on_c, 9, 36, 95
6, 190080, Note_off_c, 9, 40, 95
6, 190080, Note_off_c, 9, 36, 95
6, 190080, Note_on_c, 9, 49, 95
6, 190080, Note_on_c, 9, 36, 95
6, 190560, Note_off_c, 9, 49, 95
6, 190560, Note_off_c, 9, 36, 95
6, 190560, Note_on_c, 9, 36, 95
6, 190800, Note_off_c, 9, 36, 95
6, 190800, Note_on_c, 9, 57, 95
6, 190800, Note_on_c, 9, 40, 95
6, 191040, Note_off_c, 9, 57, 95
6, 191040, Note_off_c, 9, 40, 95
6, 191040, Note_on_c, 9, 40, 111
6, 191280, Note_off_c, 9, 40, 111
6, 191280, Note_on_c, 9, 40, 63
6, 191400, Note_off_c, 9, 40, 63
6, 191400, Note_on_c, 9, 40, 79
6, 191520, Note_off_c, 9, 40, 79
6, 191520, Note_on_c, 9, 40, 95
6, 191640, Note_off_c, 9, 40, 95
6, 191640, Note_on_c, 9, 40, 95
6, 191760, Note_off_c, 9, 40, 95
6, 192000, Note_on_c, 9, 49, 95
6, 192000, Note_on_c, 9, 36, 95
6, 192960, Note_off_c, 9, 49, 95
6, 192960, Note_off_c, 9, 36, 95
6, 192960, Note_on_c, 9, 57, 95
6, 192960, Note_on_c, 9, 40, 95
6, 193440, Note_off_c, 9, 57, 95
6, 193440, Note_off_c, 9, 40, 95
6, 193440, Note_on_c, 9, 36, 95
6, 193920, Note_off_c, 9, 36, 95
6, 193920, Note_on_c, 9, 49, 95
6, 193920, Note_on_c, 9, 36, 95
6, 194880, Note_off_c, 9, 49, 95
6, 194880, Note_off_c, 9, 36, 95
6, 194880, Note_on_c, 9, 57, 95
6, 194880, Note_on_c, 9, 40, 95
6, 195360, Note_off_c, 9, 57, 95
6, 195360, Note_off_c, 9, 40, 95
6, 195360, Note_on_c, 9, 36, 95
6, 195840, Note_off_c, 9, 36, 95
6, 195840, Note_on_c, 9, 49, 95
6, 195840, Note_on_c, 9, 36, 95
6, 196800, Note_off_c, 9, 49, 95
6, 196800, Note_off_c, 9, 36, 95
6, 196800, Note_on_c, 9, 57, 95
6, 196800, Note_on_c, 9, 40, 95
6, 197280, Note_off_c, 9, 57, 95
6, 197280, Note_off_c, 9, 40, 95
6, 197280, Note_on_c, 9, 36, 95
6, 197760, Note_off_c, 9, 36, 95
6, 197760, Note_on_c, 9, 49, 95
6, 197760, Note_on_c, 9, 40, 95
6, 198000, Note_off_c, 9, 49, 95
6, 198000, Note_off_c, 9, 40, 95
6, 198000, Note_on_c, 9, 40, 79
6, 198120, Note_off_c, 9, 40, 79
6, 198120, Note_on_c, 9, 40, 95
6, 198240, Note_off_c, 9, 40, 95
6, 198240, Note_on_c, 9, 40, 95
6, 198480, Note_off_c, 9, 40, 95
6, 198480, Note_on_c, 9, 40, 95
6, 198720, Note_off_c, 9, 40, 95
6, 198720, Note_on_c, 9, 40, 95
6, 198840, Note_off_c, 9, 40, 95
6, 198840, Note_on_c, 9, 40, 95
6, 198960, Note_off_c, 9, 40, 95
6, 198960, Note_on_c, 9, 40, 95
6, 199080, Note_off_c, 9, 40, 95
6, 199080, Note_on_c, 9, 45, 95
6, 199200, Note_off_c, 9, 45, 95
6, 199200, Note_on_c, 9, 45, 95
6, 199320, Note_off_c, 9, 45, 95
6, 199320, Note_on_c, 9, 45, 95
6, 199440, Note_off_c, 9, 45, 95
6, 199440, Note_on_c, 9, 43, 95
6, 199560, Note_off_c, 9, 43, 95
6, 199560, Note_on_c, 9, 43, 95
6, 199680, Note_off_c, 9, 43, 95
6, 199680, Note_on_c, 9, 49, 95
6, 199680, Note_on_c, 9, 36, 95
6, 200640, Note_off_c, 9, 49, 95
6, 200640, Note_off_c, 9, 36, 95
6, 200640, Note_on_c, 9, 57, 95
6, 200640, Note_on_c, 9, 40, 95
6, 201120, Note_off_c, 9, 57, 95
6, 201120, Note_off_c, 9, 40, 95
6, 201120, Note_on_c, 9, 36, 95
6, 201600, Note_off_c, 9, 36, 95
6, 201600, Note_on_c, 9, 49, 95
6, 201600, Note_on_c, 9, 36, 95
6, 202560, Note_off_c, 9, 49, 95
6, 202560, Note_off_c, 9, 36, 95
6, 202560, Note_on_c, 9, 57, 95
6, 202560, Note_on_c, 9, 40, 95
6, 203040, Note_off_c, 9, 57, 95
6, 203040, Note_off_c, 9, 40, 95
6, 203040, Note_on_c, 9, 36, 95
6, 203520, Note_off_c, 9, 36, 95
6, 203520, Note_on_c, 9, 49, 95
6, 203520, Note_on_c, 9, 36, 95
6, 204480, Note_off_c, 9, 49, 95
6, 204480, Note_off_c, 9, 36, 95
6, 204480, Note_on_c, 9, 57, 95
6, 204480, Note_on_c, 9, 40, 95
6, 204960, Note_off_c, 9, 57, 95
6, 204960, Note_off_c, 9, 40, 95
6, 204960, Note_on_c, 9, 36, 95
6, 205440, Note_off_c, 9, 36, 95
6, 205440, Note_on_c, 9, 49, 95
6, 205440, Note_on_c, 9, 40, 63
6, 205440, Note_on_c, 9, 36, 95
6, 205920, Note_off_c, 9, 49, 95
6, 205920, Note_off_c, 9, 40, 63
6, 205920, Note_off_c, 9, 36, 95
6, 205920, Note_on_c, 9, 40, 95
6, 206400, Note_off_c, 9, 40, 95
6, 206400, Note_on_c, 9, 40, 95
6, 206640, Note_off_c, 9, 40, 95
6, 206640, Note_on_c, 9, 40, 95
6, 206880, Note_off_c, 9, 40, 95
6, 206880, Note_on_c, 9, 40, 95
6, 207120, Note_off_c, 9, 40, 95
6, 207120, Note_on_c, 9, 40, 95
6, 207240, Note_off_c, 9, 40, 95
6, 207240, Note_on_c, 9, 40, 95
6, 207360, Note_off_c, 9, 40, 95
6, 207360, Note_on_c, 9, 49, 95
6, 207360, Note_on_c, 9, 36, 95
6, 208320, Note_off_c, 9, 49, 95
6, 208320, Note_off_c, 9, 36, 95
6, 208320, Note_on_c, 9, 57, 95
6, 208320, Note_on_c, 9, 40, 95
6, 208800, Note_off_c, 9, 57, 95
6, 208800, Note_off_c, 9, 40, 95
6, 208800, Note_on_c, 9, 36, 95
6, 209280, Note_off_c, 9, 36, 95
6, 209280, Note_on_c, 9, 49, 95
6, 209280, Note_on_c, 9, 36, 95
6, 210240, Note_off_c, 9, 49, 95
6, 210240, Note_off_c, 9, 36, 95
6, 210240, Note_on_c, 9, 57, 95
6, 210240, Note_on_c, 9, 40, 95
6, 210720, Note_off_c, 9, 57, 95
6, 210720, Note_off_c, 9, 40, 95
6, 210720, Note_on_c, 9, 36, 95
6, 210960, Note_off_c, 9, 36, 95
6, 210960, Note_on_c, 9, 40, 95
6, 211200, Note_off_c, 9, 40, 95
6, 211200, Note_on_c, 9, 49, 95
6, 211200, Note_on_c, 9, 36, 95
6, 212160, Note_off_c, 9, 49, 95
6, 212160, Note_off_c, 9, 36, 95
6, 212160, Note_on_c, 9, 57, 95
6, 212160, Note_on_c, 9, 40, 95
6, 212640, Note_off_c, 9, 57, 95
6, 212640, Note_off_c, 9, 40, 95
6, 212640, Note_on_c, 9, 36, 95
6, 213120, Note_off_c, 9, 36, 95
6, 213120, Note_on_c, 9, 49, 95
6, 213120, Note_on_c, 9, 40, 95
6, 213120, Note_on_c, 9, 36, 95
6, 213600, Note_off_c, 9, 49, 95
6, 213600, Note_off_c, 9, 40, 95
6, 213600, Note_off_c, 9, 36, 95
6, 213600, Note_on_c, 9, 40, 95
6, 213840, Note_off_c, 9, 40, 95
6, 213840, Note_on_c, 9, 40, 95
6, 214080, Note_off_c, 9, 40, 95
6, 214080, Note_on_c, 9, 49, 95
6, 214080, Note_on_c, 9, 47, 95
6, 214200, Note_off_c, 9, 49, 95
6, 214200, Note_off_c, 9, 47, 95
6, 214200, Note_on_c, 9, 45, 95
6, 214320, Note_off_c, 9, 45, 95
6, 214320, Note_on_c, 9, 45, 95
6, 214440, Note_off_c, 9, 45, 95
6, 214440, Note_on_c, 9, 43, 95
6, 214560, Note_off_c, 9, 43, 95
6, 214560, Note_on_c, 9, 43, 95
6, 214560, Note_on_c, 9, 36, 95
6, 215040, Note_off_c, 9, 43, 95
6, 215040, Note_off_c, 9, 36, 95
6, 215040, Note_on_c, 9, 57, 95
6, 215040, Note_on_c, 9, 36, 95
6, 216000, Note_off_c, 9, 57, 95
6, 216000, Note_off_c, 9, 36, 95
6, 216000, Note_on_c, 9, 49, 95
6, 216000, Note_on_c, 9, 40, 95
6, 216480, Note_off_c, 9, 49, 95
6, 216480, Note_off_c, 9, 40, 95
6, 216480, Note_on_c, 9, 36, 95
6, 216960, Note_off_c, 9, 36, 95
6, 216960, Note_on_c, 9, 49, 95
6, 216960, Note_on_c, 9, 36, 95
6, 217440, Note_off_c, 9, 49, 95
6, 217440, Note_off_c, 9, 36, 95
6, 217440, Note_on_c, 9, 40, 95
6, 217920, Note_off_c, 9, 40, 95
6, 217920, Note_on_c, 9, 57, 95
6, 217920, Note_on_c, 9, 40, 95
6, 218160, Note_off_c, 9, 57, 95
6, 218160, Note_off_c, 9, 40, 95
6, 218160, Note_on_c, 9, 40, 95
6, 218400, Note_off_c, 9, 40, 95
6, 218400, Note_on_c, 9, 40, 95
6, 218520, Note_off_c, 9, 40, 95
6, 218520, Note_on_c, 9, 40, 95
6, 218640, Note_off_c, 9, 40, 95
6, 218640, Note_on_c, 9, 40, 95
6, 218760, Note_off_c, 9, 40, 95
6, 218760, Note_on_c, 9, 40, 95
6, 218880, Note_off_c, 9, 40, 95
6, 218880, Note_on_c, 9, 49, 95
6, 218880, Note_on_c, 9, 36, 95
6, 219360, Note_off_c, 9, 49, 95
6, 219360, Note_off_c, 9, 36, 95
6, 219360, Note_on_c, 9, 40, 95
6, 219840, Note_off_c, 9, 40, 95
6, 219840, Note_on_c, 9, 57, 95
6, 219840, Note_on_c, 9, 36, 95
6, 220320, Note_off_c, 9, 57, 95
6, 220320, Note_off_c, 9, 36, 95
6, 220320, Note_on_c, 9, 36, 95
6, 220800, Note_off_c, 9, 36, 95
6, 220800, Note_on_c, 9, 57, 95
6, 220800, Note_on_c, 9, 40, 95
6, 221280, Note_off_c, 9, 57, 95
6, 221280, Note_off_c, 9, 40, 95
6, 221280, Note_on_c, 9, 36, 95
6, 221760, Note_off_c, 9, 36, 95
6, 221760, Note_on_c, 9, 49, 95
6, 221760, Note_on_c, 9, 47, 95
6, 221760, Note_on_c, 9, 36, 95
6, 222000, Note_off_c, 9, 49, 95
6, 222000, Note_off_c, 9, 47, 95
6, 222000, Note_off_c, 9, 36, 95
6, 222000, Note_on_c, 9, 45, 95
6, 222240, Note_off_c, 9, 45, 95
6, 222240, Note_on_c, 9, 40, 95
6, 222240, Note_on_c, 9, 36, 95
6, 222720, Note_off_c, 9, 40, 95
6, 222720, Note_off_c, 9, 36, 95
6, 222720, Note_on_c, 9, 57, 95
6, 222720, Note_on_c, 9, 36, 95
6, 223200, Note_off_c, 9, 57, 95
6, 223200, Note_off_c, 9, 36, 95
6, 223200, Note_on_c, 9, 51, 95
6, 223680, Note_off_c, 9, 51, 95
6, 223680, Note_on_c, 9, 51, 95
6, 223680, Note_on_c, 9, 33, 127
6, 224160, Note_off_c, 9, 51, 95
6, 224160, Note_off_c, 9, 33, 127
6, 224160, Note_on_c, 9, 51, 95
6, 224640, Note_off_c, 9, 51, 95
6, 224640, Note_on_c, 9, 51, 95
6, 224640, Note_on_c, 9, 36, 95
6, 225120, Note_off_c, 9, 51, 95
6, 225120, Note_off_c, 9, 36, 95
6, 225120, Note_on_c, 9, 51, 95
6, 225600, Note_off_c, 9, 51, 95
6, 225600, Note_on_c, 9, 51, 95
6, 225600, Note_on_c, 9, 33, 127
6, 226080, Note_off_c, 9, 51, 95
6, 226080, Note_off_c, 9, 33, 127
6, 226080, Note_on_c, 9, 51, 95
6, 226560, Note_off_c, 9, 51, 95
6, 226560, Note_on_c, 9, 51, 95
6, 226560, Note_on_c, 9, 36, 95
6, 227040, Note_off_c, 9, 51, 95
6, 227040, Note_off_c, 9, 36, 95
6, 227040, Note_on_c, 9, 51, 95
6, 227520, Note_off_c, 9, 51, 95
6, 227520, Note_on_c, 9, 51, 95
6, 227520, Note_on_c, 9, 33, 127
6, 228000, Note_off_c, 9, 51, 95
6, 228000, Note_off_c, 9, 33, 127
6, 228000, Note_on_c, 9, 51, 95
6, 228000, Note_on_c, 9, 36, 95
6, 228480, Note_off_c, 9, 51, 95
6, 228480, Note_off_c, 9, 36, 95
6, 228480, Note_on_c, 9, 51, 95
6, 228480, Note_on_c, 9, 36, 95
6, 228960, Note_off_c, 9, 51, 95
6, 228960, Note_off_c, 9, 36, 95
6, 228960, Note_on_c, 9, 51, 95
6, 229440, Note_off_c, 9, 51, 95
6, 229440, Note_on_c, 9, 51, 95
6, 229440, Note_on_c, 9, 33, 127
6, 229920, Note_off_c, 9, 51, 95
6, 229920, Note_off_c, 9, 33, 127
6, 229920, Note_on_c, 9, 51, 95
6, 229920, Note_on_c, 9, 36, 95
6, 230400, Note_off_c, 9, 51, 95
6, 230400, Note_off_c, 9, 36, 95
6, 230400, Note_on_c, 9, 51, 95
6, 230400, Note_on_c, 9, 36, 95
6, 230880, Note_off_c, 9, 51, 95
6, 230880, Note_off_c, 9, 36, 95
6, 230880, Note_on_c, 9, 51, 95
6, 230880, Note_on_c, 9, 36, 95
6, 231360, Note_off_c, 9, 51, 95
6, 231360, Note_off_c, 9, 36, 95
6, 231360, Note_on_c, 9, 51, 95
6, 231360, Note_on_c, 9, 33, 127
6, 231840, Note_off_c, 9, 51, 95
6, 231840, Note_off_c, 9, 33, 127
6, 231840, Note_on_c, 9, 51, 95
6, 231840, Note_on_c, 9, 36, 95
6, 232320, Note_off_c, 9, 51, 95
6, 232320, Note_off_c, 9, 36, 95
6, 232320, Note_on_c, 9, 51, 95
6, 232320, Note_on_c, 9, 36, 95
6, 232800, Note_off_c, 9, 51, 95
6, 232800, Note_off_c, 9, 36, 95
6, 232800, Note_on_c, 9, 51, 95
6, 233280, Note_off_c, 9, 51, 95
6, 233280, Note_on_c, 9, 51, 95
6, 233280, Note_on_c, 9, 33, 127
6, 233760, Note_off_c, 9, 51, 95
6, 233760, Note_off_c, 9, 33, 127
6, 233760, Note_on_c, 9, 51, 95
6, 233760, Note_on_c, 9, 36, 95
6, 234240, Note_off_c, 9, 51, 95
6, 234240, Note_off_c, 9, 36, 95
6, 234240, Note_on_c, 9, 51, 95
6, 234240, Note_on_c, 9, 36, 95
6, 234720, Note_off_c, 9, 51, 95
6, 234720, Note_off_c, 9, 36, 95
6, 234720, Note_on_c, 9, 51, 95
6, 235200, Note_off_c, 9, 51, 95
6, 235200, Note_on_c, 9, 51, 95
6, 235200, Note_on_c, 9, 33, 127
6, 235680, Note_off_c, 9, 51, 95
6, 235680, Note_off_c, 9, 33, 127
6, 235680, Note_on_c, 9, 51, 95
6, 236160, Note_off_c, 9, 51, 95
6, 236160, Note_on_c, 9, 51, 95
6, 236160, Note_on_c, 9, 36, 95
6, 236640, Note_off_c, 9, 51, 95
6, 236640, Note_off_c, 9, 36, 95
6, 236640, Note_on_c, 9, 51, 95
6, 236640, Note_on_c, 9, 36, 95
6, 237120, Note_off_c, 9, 51, 95
6, 237120, Note_off_c, 9, 36, 95
6, 237120, Note_on_c, 9, 51, 95
6, 237120, Note_on_c, 9, 40, 95
6, 237600, Note_off_c, 9, 51, 95
6, 237600, Note_off_c, 9, 40, 95
6, 237600, Note_on_c, 9, 51, 95
6, 237600, Note_on_c, 9, 40, 63
6, 238080, Note_off_c, 9, 51, 95
6, 238080, Note_off_c, 9, 40, 63
6, 238080, Note_on_c, 9, 57, 79
6, 238080, Note_on_c, 9, 36, 95
6, 238560, Note_off_c, 9, 57, 79
6, 238560, Note_off_c, 9, 36, 95
6, 238560, Note_on_c, 9, 51, 95
6, 239040, Note_off_c, 9, 51, 95
6, 239040, Note_on_c, 9, 51, 95
6, 239040, Note_on_c, 9, 33, 127
6, 239520, Note_off_c, 9, 51, 95
6, 239520, Note_off_c, 9, 33, 127
6, 239520, Note_on_c, 9, 51, 95
6, 239520, Note_on_c, 9, 36, 95
6, 240000, Note_off_c, 9, 51, 95
6, 240000, Note_off_c, 9, 36, 95
6, 240000, Note_on_c, 9, 51, 95
6, 240000, Note_on_c, 9, 36, 95
6, 240480, Note_off_c, 9, 51, 95
6, 240480, Note_off_c, 9, 36, 95
6, 240480, Note_on_c, 9, 51, 95
6, 240960, Note_off_c, 9, 51, 95
6, 240960, Note_on_c, 9, 51, 95
6, 240960, Note_on_c, 9, 33, 127
6, 241440, Note_off_c, 9, 51, 95
6, 241440, Note_off_c, 9, 33, 127
6, 241440, Note_on_c, 9, 51, 95
6, 241440, Note_on_c, 9, 36, 95
6, 241920, Note_off_c, 9, 51, 95
6, 241920, Note_off_c, 9, 36, 95
6, 241920, Note_on_c, 9, 51, 95
6, 241920, Note_on_c, 9, 36, 95
6, 242400, Note_off_c, 9, 51, 95
6, 242400, Note_off_c, 9, 36, 95
6, 242400, Note_on_c, 9, 51, 95
6, 242880, Note_off_c, 9, 51, 95
6, 242880, Note_on_c, 9, 51, 95
6, 242880, Note_on_c, 9, 33, 127
6, 243360, Note_off_c, 9, 51, 95
6, 243360, Note_off_c, 9, 33, 127
6, 243360, Note_on_c, 9, 51, 95
6, 243360, Note_on_c, 9, 36, 95
6, 243840, Note_off_c, 9, 51, 95
6, 243840, Note_off_c, 9, 36, 95
6, 243840, Note_on_c, 9, 51, 95
6, 243840, Note_on_c, 9, 36, 95
6, 244320, Note_off_c, 9, 51, 95
6, 244320, Note_off_c, 9, 36, 95
6, 244320, Note_on_c, 9, 51, 95
6, 244800, Note_off_c, 9, 51, 95
6, 244800, Note_on_c, 9, 51, 95
6, 244800, Note_on_c, 9, 33, 127
6, 245280, Note_off_c, 9, 51, 95
6, 245280, Note_off_c, 9, 33, 127
6, 245280, Note_on_c, 9, 51, 95
6, 245280, Note_on_c, 9, 36, 95
6, 245760, Note_off_c, 9, 51, 95
6, 245760, Note_off_c, 9, 36, 95
6, 245760, Note_on_c, 9, 51, 95
6, 245760, Note_on_c, 9, 36, 95
6, 246240, Note_off_c, 9, 51, 95
6, 246240, Note_off_c, 9, 36, 95
6, 246240, Note_on_c, 9, 51, 95
6, 246720, Note_off_c, 9, 51, 95
6, 246720, Note_on_c, 9, 51, 95
6, 246720, Note_on_c, 9, 33, 127
6, 247200, Note_off_c, 9, 51, 95
6, 247200, Note_off_c, 9, 33, 127
6, 247200, Note_on_c, 9, 51, 95
6, 247200, Note_on_c, 9, 36, 95
6, 247680, Note_off_c, 9, 51, 95
6, 247680, Note_off_c, 9, 36, 95
6, 247680, Note_on_c, 9, 51, 95
6, 247680, Note_on_c, 9, 36, 95
6, 248160, Note_off_c, 9, 51, 95
6, 248160, Note_off_c, 9, 36, 95
6, 248160, Note_on_c, 9, 51, 95
6, 248640, Note_off_c, 9, 51, 95
6, 248640, Note_on_c, 9, 51, 95
6, 248640, Note_on_c, 9, 33, 127
6, 249120, Note_off_c, 9, 51, 95
6, 249120, Note_off_c, 9, 33, 127
6, 249120, Note_on_c, 9, 51, 95
6, 249120, Note_on_c, 9, 36, 95
6, 249600, Note_off_c, 9, 51, 95
6, 249600, Note_off_c, 9, 36, 95
6, 249600, Note_on_c, 9, 51, 95
6, 249600, Note_on_c, 9, 36, 95
6, 250080, Note_off_c, 9, 51, 95
6, 250080, Note_off_c, 9, 36, 95
6, 250080, Note_on_c, 9, 51, 95
6, 250560, Note_off_c, 9, 51, 95
6, 250560, Note_on_c, 9, 51, 95
6, 250560, Note_on_c, 9, 40, 79
6, 251040, Note_off_c, 9, 51, 95
6, 251040, Note_off_c, 9, 40, 79
6, 251040, Note_on_c, 9, 51, 95
6, 251040, Note_on_c, 9, 36, 95
6, 251520, Note_off_c, 9, 51, 95
6, 251520, Note_off_c, 9, 36, 95
6, 251520, Note_on_c, 9, 51, 95
6, 251520, Note_on_c, 9, 36, 95
6, 252000, Note_off_c, 9, 51, 95
6, 252000, Note_off_c, 9, 36, 95
6, 252000, Note_on_c, 9, 51, 95
6, 252000, Note_on_c, 9, 40, 95
6, 252480, Note_off_c, 9, 51, 95
6, 252480, Note_off_c, 9, 40, 95
6, 252480, Note_on_c, 9, 51, 95
6, 252480, Note_on_c, 9, 40, 95
6, 252960, Note_off_c, 9, 51, 95
6, 252960, Note_off_c, 9, 40, 95
6, 252960, Note_on_c, 9, 51, 95
6, 252960, Note_on_c, 9, 40, 95
6, 253080, Note_off_c, 9, 51, 95
6, 253080, Note_off_c, 9, 40, 95
6, 253080, Note_on_c, 9, 40, 95
6, 253200, Note_off_c, 9, 40, 95
6, 253200, Note_on_c, 9, 40, 95
6, 253320, Note_off_c, 9, 40, 95
6, 253320, Note_on_c, 9, 40, 95
6, 253440, Note_off_c, 9, 40, 95
6, 253440, Note_on_c, 9, 57, 79
6, 253440, Note_on_c, 9, 36, 95
6, 253920, Note_off_c, 9, 57, 79
6, 253920, Note_off_c, 9, 36, 95
6, 253920, Note_on_c, 9, 51, 95
6, 254400, Note_off_c, 9, 51, 95
6, 254400, Note_on_c, 9, 51, 95
6, 254400, Note_on_c, 9, 40, 95
6, 254880, Note_off_c, 9, 51, 95
6, 254880, Note_off_c, 9, 40, 95
6, 254880, Note_on_c, 9, 51, 95
6, 254880, Note_on_c, 9, 36, 95
6, 255360, Note_off_c, 9, 51, 95
6, 255360, Note_off_c, 9, 36, 95
6, 255360, Note_on_c, 9, 51, 95
6, 255360, Note_on_c, 9, 36, 95
6, 255840, Note_off_c, 9, 51, 95
6, 255840, Note_off_c, 9, 36, 95
6, 255840, Note_on_c, 9, 51, 95
6, 256320, Note_off_c, 9, 51, 95
6, 256320, Note_on_c, 9, 51, 95
6, 256320, Note_on_c, 9, 40, 95
6, 256800, Note_off_c, 9, 51, 95
6, 256800, Note_off_c, 9, 40, 95
6, 256800, Note_on_c, 9, 51, 95
6, 256800, Note_on_c, 9, 36, 95
6, 257280, Note_off_c, 9, 51, 95
6, 257280, Note_off_c, 9, 36, 95
6, 257280, Note_on_c, 9, 51, 95
6, 257280, Note_on_c, 9, 36, 95
6, 257760, Note_off_c, 9, 51, 95
6, 257760, Note_off_c, 9, 36, 95
6, 257760, Note_on_c, 9, 51, 95
6, 258240, Note_off_c, 9, 51, 95
6, 258240, Note_on_c, 9, 51, 95
6, 258240, Note_on_c, 9, 40, 95
6, 258720, Note_off_c, 9, 51, 95
6, 258720, Note_off_c, 9, 40, 95
6, 258720, Note_on_c, 9, 51, 95
6, 258720, Note_on_c, 9, 36, 95
6, 259200, Note_off_c, 9, 51, 95
6, 259200, Note_off_c, 9, 36, 95
6, 259200, Note_on_c, 9, 51, 95
6, 259200, Note_on_c, 9, 36, 95
6, 259680, Note_off_c, 9, 51, 95
6, 259680, Note_off_c, 9, 36, 95
6, 259680, Note_on_c, 9, 51, 95
6, 259680, Note_on_c, 9, 40, 95
6, 260160, Note_off_c, 9, 51, 95
6, 260160, Note_off_c, 9, 40, 95
6, 260160, Note_on_c, 9, 51, 95
6, 260160, Note_on_c, 9, 40, 95
6, 260640, Note_off_c, 9, 51, 95
6, 260640, Note_off_c, 9, 40, 95
6, 260640, Note_on_c, 9, 51, 95
6, 260640, Note_on_c, 9, 36, 95
6, 261120, Note_off_c, 9, 51, 95
6, 261120, Note_off_c, 9, 36, 95
6, 261120, Note_on_c, 9, 57, 63
6, 261120, Note_on_c, 9, 36, 95
6, 261600, Note_off_c, 9, 57, 63
6, 261600, Note_off_c, 9, 36, 95
6, 261600, Note_on_c, 9, 51, 95
6, 262080, Note_off_c, 9, 51, 95
6, 262080, Note_on_c, 9, 51, 95
6, 262080, Note_on_c, 9, 40, 95
6, 262560, Note_off_c, 9, 51, 95
6, 262560, Note_off_c, 9, 40, 95
6, 262560, Note_on_c, 9, 51, 95
6, 262560, Note_on_c, 9, 36, 95
6, 263040, Note_off_c, 9, 51, 95
6, 263040, Note_off_c, 9, 36, 95
6, 263040, Note_on_c, 9, 51, 95
6, 263040, Note_on_c, 9, 36, 95
6, 263520, Note_off_c, 9, 51, 95
6, 263520, Note_off_c, 9, 36, 95
6, 263520, Note_on_c, 9, 51, 95
6, 264000, Note_off_c, 9, 51, 95
6, 264000, Note_on_c, 9, 51, 95
6, 264000, Note_on_c, 9, 40, 95
6, 264480, Note_off_c, 9, 51, 95
6, 264480, Note_off_c, 9, 40, 95
6, 264480, Note_on_c, 9, 51, 95
6, 264480, Note_on_c, 9, 36, 95
6, 264960, Note_off_c, 9, 51, 95
6, 264960, Note_off_c, 9, 36, 95
6, 264960, Note_on_c, 9, 51, 95
6, 264960, Note_on_c, 9, 36, 95
6, 265440, Note_off_c, 9, 51, 95
6, 265440, Note_off_c, 9, 36, 95
6, 265440, Note_on_c, 9, 51, 95
6, 265920, Note_off_c, 9, 51, 95
6, 265920, Note_on_c, 9, 51, 95
6, 265920, Note_on_c, 9, 40, 95
6, 266400, Note_off_c, 9, 51, 95
6, 266400, Note_off_c, 9, 40, 95
6, 266400, Note_on_c, 9, 51, 95
6, 266400, Note_on_c, 9, 36, 95
6, 266880, Note_off_c, 9, 51, 95
6, 266880, Note_off_c, 9, 36, 95
6, 266880, Note_on_c, 9, 51, 95
6, 266880, Note_on_c, 9, 36, 95
6, 267360, Note_off_c, 9, 51, 95
6, 267360, Note_off_c, 9, 36, 95
6, 267360, Note_on_c, 9, 51, 95
6, 267840, Note_off_c, 9, 51, 95
6, 267840, Note_on_c, 9, 51, 95
6, 267840, Note_on_c, 9, 40, 95
6, 268320, Note_off_c, 9, 51, 95
6, 268320, Note_off_c, 9, 40, 95
6, 268320, Note_on_c, 9, 51, 95
6, 268560, Note_off_c, 9, 51, 95
6, 268560, Note_on_c, 9, 40, 79
6, 268680, Note_off_c, 9, 40, 79
6, 268680, Note_on_c, 9, 40, 95
6, 268800, Note_off_c, 9, 40, 95
6, 268800, Note_on_c, 9, 57, 63
6, 268800, Note_on_c, 9, 36, 95
6, 269280, Note_off_c, 9, 57, 63
6, 269280, Note_off_c, 9, 36, 95
6, 269280, Note_on_c, 9, 51, 95
6, 269760, Note_off_c, 9, 51, 95
6, 269760, Note_on_c, 9, 51, 95
6, 269760, Note_on_c, 9, 40, 95
6, 270240, Note_off_c, 9, 51, 95
6, 270240, Note_off_c, 9, 40, 95
6, 270240, Note_on_c, 9, 51, 95
6, 270240, Note_on_c, 9, 36, 95
6, 270720, Note_off_c, 9, 51, 95
6, 270720, Note_off_c, 9, 36, 95
6, 270720, Note_on_c, 9, 51, 95
6, 270720, Note_on_c, 9, 36, 95
6, 271200, Note_off_c, 9, 51, 95
6, 271200, Note_off_c, 9, 36, 95
6, 271200, Note_on_c, 9, 51, 95
6, 271680, Note_off_c, 9, 51, 95
6, 271680, Note_on_c, 9, 51, 95
6, 271680, Note_on_c, 9, 40, 95
6, 272160, Note_off_c, 9, 51, 95
6, 272160, Note_off_c, 9, 40, 95
6, 272160, Note_on_c, 9, 51, 95
6, 272160, Note_on_c, 9, 36, 95
6, 272640, Note_off_c, 9, 51, 95
6, 272640, Note_off_c, 9, 36, 95
6, 272640, Note_on_c, 9, 51, 95
6, 272640, Note_on_c, 9, 36, 95
6, 273120, Note_off_c, 9, 51, 95
6, 273120, Note_off_c, 9, 36, 95
6, 273120, Note_on_c, 9, 51, 95
6, 273600, Note_off_c, 9, 51, 95
6, 273600, Note_on_c, 9, 51, 95
6, 273600, Note_on_c, 9, 40, 95
6, 274080, Note_off_c, 9, 51, 95
6, 274080, Note_off_c, 9, 40, 95
6, 274080, Note_on_c, 9, 51, 95
6, 274080, Note_on_c, 9, 36, 95
6, 274560, Note_off_c, 9, 51, 95
6, 274560, Note_off_c, 9, 36, 95
6, 274560, Note_on_c, 9, 51, 95
6, 274560, Note_on_c, 9, 47, 95
6, 274560, Note_on_c, 9, 40, 63
6, 274560, Note_on_c, 9, 36, 95
6, 275040, Note_off_c, 9, 51, 95
6, 275040, Note_off_c, 9, 47, 95
6, 275040, Note_off_c, 9, 40, 63
6, 275040, Note_off_c, 9, 36, 95
6, 275040, Note_on_c, 9, 51, 95
6, 275040, Note_on_c, 9, 45, 95
6, 275040, Note_on_c, 9, 40, 63
6, 275040, Note_on_c, 9, 36, 95
6, 275520, Note_off_c, 9, 51, 95
6, 275520, Note_off_c, 9, 45, 95
6, 275520, Note_off_c, 9, 40, 63
6, 275520, Note_off_c, 9, 36, 95
6, 275520, Note_on_c, 9, 51, 95
6, 275520, Note_on_c, 9, 43, 95
6, 275520, Note_on_c, 9, 40, 63
6, 275520, Note_on_c, 9, 36, 95
6, 276000, Note_off_c, 9, 51, 95
6, 276000, Note_off_c, 9, 43, 95
6, 276000, Note_off_c, 9, 40, 63
6, 276000, Note_off_c, 9, 36, 95
6, 276000, Note_on_c, 9, 51, 95
6, 276000, Note_on_c, 9, 41, 95
6, 276000, Note_on_c, 9, 40, 63
6, 276000, Note_on_c, 9, 36, 95
6, 276480, Note_off_c, 9, 51, 95
6, 276480, Note_off_c, 9, 41, 95
6, 276480, Note_off_c, 9, 40, 63
6, 276480, Note_off_c, 9, 36, 95
6, 276480, Note_on_c, 9, 57, 63
6, 276480, Note_on_c, 9, 36, 95
6, 276960, Note_off_c, 9, 57, 63
6, 276960, Note_off_c, 9, 36, 95
6, 276960, Note_on_c, 9, 51, 95
6, 277440, Note_off_c, 9, 51, 95
6, 277440, Note_on_c, 9, 51, 95
6, 277440, Note_on_c, 9, 40, 95
6, 277920, Note_off_c, 9, 51, 95
6, 277920, Note_off_c, 9, 40, 95
6, 277920, Note_on_c, 9, 51, 95
6, 277920, Note_on_c, 9, 36, 95
6, 278400, Note_off_c, 9, 51, 95
6, 278400, Note_off_c, 9, 36, 95
6, 278400, Note_on_c, 9, 51, 95
6, 278400, Note_on_c, 9, 36, 95
6, 278880, Note_off_c, 9, 51, 95
6, 278880, Note_off_c, 9, 36, 95
6, 278880, Note_on_c, 9, 51, 95
6, 279360, Note_off_c, 9, 51, 95
6, 279360, Note_on_c, 9, 51, 95
6, 279360, Note_on_c, 9, 40, 95
6, 279840, Note_off_c, 9, 51, 95
6, 279840, Note_off_c, 9, 40, 95
6, 279840, Note_on_c, 9, 51, 95
6, 279840, Note_on_c, 9, 36, 95
6, 280320, Note_off_c, 9, 51, 95
6, 280320, Note_off_c, 9, 36, 95
6, 280320, Note_on_c, 9, 51, 63
6, 280320, Note_on_c, 9, 36, 95
6, 280800, Note_off_c, 9, 51, 63
6, 280800, Note_off_c, 9, 36, 95
6, 280800, Note_on_c, 9, 51, 95
6, 281280, Note_off_c, 9, 51, 95
6, 281280, Note_on_c, 9, 51, 95
6, 281280, Note_on_c, 9, 40, 95
6, 281760, Note_off_c, 9, 51, 95
6, 281760, Note_off_c, 9, 40, 95
6, 281760, Note_on_c, 9, 51, 95
6, 281760, Note_on_c, 9, 36, 95
6, 282240, Note_off_c, 9, 51, 95
6, 282240, Note_off_c, 9, 36, 95
6, 282240, Note_on_c, 9, 51, 95
6, 282720, Note_off_c, 9, 51, 95
6, 282720, Note_on_c, 9, 51, 95
6, 282720, Note_on_c, 9, 47, 95
6, 282720, Note_on_c, 9, 40, 47
6, 283200, Note_off_c, 9, 51, 95
6, 283200, Note_off_c, 9, 47, 95
6, 283200, Note_off_c, 9, 40, 47
6, 283200, Note_on_c, 9, 51, 95
6, 283200, Note_on_c, 9, 45, 95
6, 283200, Note_on_c, 9, 40, 63
6, 283200, Note_on_c, 9, 36, 95
6, 283560, Note_off_c, 9, 51, 95
6, 283560, Note_off_c, 9, 45, 95
6, 283560, Note_off_c, 9, 40, 63
6, 283560, Note_off_c, 9, 36, 95
6, 283560, Note_on_c, 9, 40, 63
6, 283680, Note_off_c, 9, 40, 63
6, 283680, Note_on_c, 9, 40, 79
6, 283800, Note_off_c, 9, 40, 79
6, 283800, Note_on_c, 9, 40, 95
6, 283920, Note_off_c, 9, 40, 95
6, 283920, Note_on_c, 9, 45, 95
6, 284040, Note_off_c, 9, 45, 95
6, 284040, Note_on_c, 9, 43, 95
6, 284160, Note_off_c, 9, 43, 95
6, 284160, Note_on_c, 9, 57, 63
6, 284160, Note_on_c, 9, 36, 95
6, 284640, Note_off_c, 9, 57, 63
6, 284640, Note_off_c, 9, 36, 95
6, 284640, Note_on_c, 9, 51, 95
6, 285120, Note_off_c, 9, 51, 95
6, 285120, Note_on_c, 9, 51, 95
6, 285120, Note_on_c, 9, 40, 95
6, 285600, Note_off_c, 9, 51, 95
6, 285600, Note_off_c, 9, 40, 95
6, 285600, Note_on_c, 9, 36, 95
6, 286080, Note_off_c, 9, 36, 95
6, 286080, Note_on_c, 9, 51, 95
6, 286080, Note_on_c, 9, 40, 63
6, 286080, Note_on_c, 9, 36, 95
6, 286200, Note_off_c, 9, 51, 95
6, 286200, Note_off_c, 9, 40, 63
6, 286200, Note_off_c, 9, 36, 95
6, 286200, Note_on_c, 9, 40, 79
6, 286320, Note_off_c, 9, 40, 79
6, 286320, Note_on_c, 9, 40, 95
6, 286560, Note_off_c, 9, 40, 95
6, 286560, Note_on_c, 9, 51, 95
6, 286560, Note_on_c, 9, 40, 63
6, 286680, Note_off_c, 9, 51, 95
6, 286680, Note_off_c, 9, 40, 63
6, 286680, Note_on_c, 9, 40, 79
6, 286800, Note_off_c, 9, 40, 79
6, 286800, Note_on_c, 9, 40, 95
6, 287040, Note_off_c, 9, 40, 95
6, 287040, Note_on_c, 9, 51, 95
6, 287040, Note_on_c, 9, 40, 63
6, 287040, Note_on_c, 9, 36, 95
6, 287160, Note_off_c, 9, 51, 95
6, 287160, Note_off_c, 9, 40, 63
6, 287160, Note_off_c, 9, 36, 95
6, 287160, Note_on_c, 9, 40, 79
6, 287280, Note_off_c, 9, 40, 79
6, 287280, Note_on_c, 9, 40, 95
6, 287520, Note_off_c, 9, 40, 95
6, 287520, Note_on_c, 9, 51, 95
6, 287520, Note_on_c, 9, 40, 63
6, 287640, Note_off_c, 9, 51, 95
6, 287640, Note_off_c, 9, 40, 63
6, 287640, Note_on_c, 9, 40, 79
6, 287760, Note_off_c, 9, 40, 79
6, 287760, Note_on_c, 9, 45, 95
6, 288000, Note_off_c, 9, 45, 95
6, 288000, Note_on_c, 9, 57, 63
6, 288000, Note_on_c, 9, 36, 95
6, 288480, Note_off_c, 9, 57, 63
6, 288480, Note_off_c, 9, 36, 95
6, 288480, Note_on_c, 9, 51, 95
6, 288960, Note_off_c, 9, 51, 95
6, 288960, Note_on_c, 9, 51, 95
6, 288960, Note_on_c, 9, 40, 95
6, 289440, Note_off_c, 9, 51, 95
6, 289440, Note_off_c, 9, 40, 95
6, 289440, Note_on_c, 9, 51, 95
6, 289440, Note_on_c, 9, 36, 95
6, 289920, Note_off_c, 9, 51, 95
6, 289920, Note_off_c, 9, 36, 95
6, 289920, Note_on_c, 9, 51, 95
6, 289920, Note_on_c, 9, 36, 95
6, 290400, Note_off_c, 9, 51, 95
6, 290400, Note_off_c, 9, 36, 95
6, 290400, Note_on_c, 9, 51, 95
6, 290400, Note_on_c, 9, 40, 79
6, 290880, Note_off_c, 9, 51, 95
6, 290880, Note_off_c, 9, 40, 79
6, 290880, Note_on_c, 9, 51, 95
6, 290880, Note_on_c, 9, 40, 95
6, 291360, Note_off_c, 9, 51, 95
6, 291360, Note_off_c, 9, 40, 95
6, 291360, Note_on_c, 9, 51, 95
6, 291360, Note_on_c, 9, 40, 79
6, 291480, Note_off_c, 9, 51, 95
6, 291480, Note_off_c, 9, 40, 79
6, 291480, Note_on_c, 9, 40, 95
6, 291600, Note_off_c, 9, 40, 95
6, 291600, Note_on_c, 9, 40, 95
6, 291720, Note_off_c, 9, 40, 95
6, 291720, Note_on_c, 9, 40, 95
6, 291840, Note_off_c, 9, 40, 95
6, 291840, Note_on_c, 9, 57, 95
6, 291840, Note_on_c, 9, 36, 95
6, 292320, Note_off_c, 9, 57, 95
6, 292320, Note_off_c, 9, 36, 95
6, 292320, Note_on_c, 9, 49, 95
6, 292320, Note_on_c, 9, 40, 79
6, 292320, Note_on_c, 9, 36, 63
6, 292800, Note_off_c, 9, 49, 95
6, 292800, Note_off_c, 9, 40, 79
6, 292800, Note_off_c, 9, 36, 63
6, 292800, Note_on_c, 9, 57, 95
6, 292800, Note_on_c, 9, 36, 95
6, 293280, Note_off_c, 9, 57, 95
6, 293280, Note_off_c, 9, 36, 95
6, 293280, Note_on_c, 9, 49, 95
6, 293280, Note_on_c, 9, 40, 79
6, 293280, Note_on_c, 9, 36, 63
6, 293760, Note_off_c, 9, 49, 95
6, 293760, Note_off_c, 9, 40, 79
6, 293760, Note_off_c, 9, 36, 63
6, 293760, Note_on_c, 9, 57, 95
6, 293760, Note_on_c, 9, 36, 95
6, 294240, Note_off_c, 9, 57, 95
6, 294240, Note_off_c, 9, 36, 95
6, 294240, Note_on_c, 9, 49, 95
6, 294240, Note_on_c, 9, 40, 79
6, 294240, Note_on_c, 9, 36, 63
6, 294720, Note_off_c, 9, 49, 95
6, 294720, Note_off_c, 9, 40, 79
6, 294720, Note_off_c, 9, 36, 63
6, 294720, Note_on_c, 9, 57, 95
6, 294720, Note_on_c, 9, 36, 95
6, 295200, Note_off_c, 9, 57, 95
6, 295200, Note_off_c, 9, 36, 95
6, 295200, Note_on_c, 9, 49, 95
6, 295200, Note_on_c, 9, 40, 79
6, 295200, Note_on_c, 9, 36, 63
6, 295680, Note_off_c, 9, 49, 95
6, 295680, Note_off_c, 9, 40, 79
6, 295680, Note_off_c, 9, 36, 63
6, 295680, Note_on_c, 9, 57, 95
6, 295680, Note_on_c, 9, 36, 95
6, 296160, Note_off_c, 9, 57, 95
6, 296160, Note_off_c, 9, 36, 95
6, 296160, Note_on_c, 9, 49, 95
6, 296160, Note_on_c, 9, 40, 63
6, 296160, Note_on_c, 9, 36, 95
6, 296640, Note_off_c, 9, 49, 95
6, 296640, Note_off_c, 9, 40, 63
6, 296640, Note_off_c, 9, 36, 95
6, 296640, Note_on_c, 9, 57, 95
6, 296640, Note_on_c, 9, 36, 95
6, 297120, Note_off_c, 9, 57, 95
6, 297120, Note_off_c, 9, 36, 95
6, 297120, Note_on_c, 9, 49, 95
6, 297120, Note_on_c, 9, 40, 95
6, 297120, Note_on_c, 9, 36, 95
6, 297600, Note_off_c, 9, 49, 95
6, 297600, Note_off_c, 9, 40, 95
6, 297600, Note_off_c, 9, 36, 95
6, 297600, Note_on_c, 9, 40, 79
6, 297600, Note_on_c, 9, 36, 95
6, 297720, Note_off_c, 9, 40, 79
6, 297720, Note_off_c, 9, 36, 95
6, 297720, Note_on_c, 9, 40, 95
6, 297840, Note_off_c, 9, 40, 95
6, 297840, Note_on_c, 9, 40, 111
6, 298080, Note_off_c, 9, 40, 111
6, 298080, Note_on_c, 9, 40, 79
6, 298200, Note_off_c, 9, 40, 79
6, 298200, Note_on_c, 9, 40, 95
6, 298320, Note_off_c, 9, 40, 95
6, 298320, Note_on_c, 9, 40, 111
6, 298560, Note_off_c, 9, 40, 111
6, 298560, Note_on_c, 9, 40, 79
6, 298560, Note_on_c, 9, 36, 95
6, 298680, Note_off_c, 9, 40, 79
6, 298680, Note_off_c, 9, 36, 95
6, 298680, Note_on_c, 9, 40, 95
6, 298800, Note_off_c, 9, 40, 95
6, 298800, Note_on_c, 9, 40, 111
6, 299040, Note_off_c, 9, 40, 111
6, 299040, Note_on_c, 9, 40, 95
6, 299160, Note_off_c, 9, 40, 95
6, 299160, Note_on_c, 9, 40, 111
6, 299280, Note_off_c, 9, 40, 111
6, 299280, Note_on_c, 9, 45, 111
6, 299400, Note_off_c, 9, 45, 111
6, 299400, Note_on_c, 9, 43, 111
6, 299520, Note_off_c, 9, 43, 111
6, 299520, Note_on_c, 9, 49, 95
6, 299520, Note_on_c, 9, 36, 95
6, 300480, Note_off_c, 9, 49, 95
6, 300480, Note_off_c, 9, 36, 95
6, 300480, Note_on_c, 9, 57, 95
6, 300480, Note_on_c, 9, 40, 95
6, 300960, Note_off_c, 9, 57, 95
6, 300960, Note_off_c, 9, 40, 95
6, 300960, Note_on_c, 9, 36, 95
6, 301440, Note_off_c, 9, 36, 95
6, 301440, Note_on_c, 9, 49, 95
6, 301440, Note_on_c, 9, 36, 95
6, 302400, Note_off_c, 9, 49, 95
6, 302400, Note_off_c, 9, 36, 95
6, 302400, Note_on_c, 9, 57, 95
6, 302400, Note_on_c, 9, 40, 95
6, 302880, Note_off_c, 9, 57, 95
6, 302880, Note_off_c, 9, 40, 95
6, 302880, Note_on_c, 9, 36, 95
6, 303360, Note_off_c, 9, 36, 95
6, 303360, Note_on_c, 9, 49, 95
6, 303360, Note_on_c, 9, 36, 95
6, 304320, Note_off_c, 9, 49, 95
6, 304320, Note_off_c, 9, 36, 95
6, 304320, Note_on_c, 9, 57, 95
6, 304320, Note_on_c, 9, 40, 95
6, 304800, Note_off_c, 9, 57, 95
6, 304800, Note_off_c, 9, 40, 95
6, 304800, Note_on_c, 9, 36, 95
6, 305280, Note_off_c, 9, 36, 95
6, 305280, Note_on_c, 9, 49, 95
6, 305280, Note_on_c, 9, 40, 95
6, 305520, Note_off_c, 9, 49, 95
6, 305520, Note_off_c, 9, 40, 95
6, 305520, Note_on_c, 9, 40, 79
6, 305640, Note_off_c, 9, 40, 79
6, 305640, Note_on_c, 9, 40, 95
6, 305760, Note_off_c, 9, 40, 95
6, 305760, Note_on_c, 9, 40, 95
6, 306000, Note_off_c, 9, 40, 95
6, 306000, Note_on_c, 9, 40, 95
6, 306240, Note_off_c, 9, 40, 95
6, 306240, Note_on_c, 9, 40, 95
6, 306360, Note_off_c, 9, 40, 95
6, 306360, Note_on_c, 9, 40, 95
6, 306480, Note_off_c, 9, 40, 95
6, 306480, Note_on_c, 9, 40, 95
6, 306600, Note_off_c, 9, 40, 95
6, 306600, Note_on_c, 9, 45, 95
6, 306720, Note_off_c, 9, 45, 95
6, 306720, Note_on_c, 9, 45, 95
6, 306840, Note_off_c, 9, 45, 95
6, 306840, Note_on_c, 9, 45, 95
6, 306960, Note_off_c, 9, 45, 95
6, 306960, Note_on_c, 9, 43, 95
6, 307080, Note_off_c, 9, 43, 95
6, 307080, Note_on_c, 9, 43, 95
6, 307200, Note_off_c, 9, 43, 95
6, 307200, Note_on_c, 9, 49, 95
6, 307200, Note_on_c, 9, 36, 95
6, 308160, Note_off_c, 9, 49, 95
6, 308160, Note_off_c, 9, 36, 95
6, 308160, Note_on_c, 9, 57, 95
6, 308160, Note_on_c, 9, 40, 95
6, 308640, Note_off_c, 9, 57, 95
6, 308640, Note_off_c, 9, 40, 95
6, 308640, Note_on_c, 9, 36, 95
6, 309120, Note_off_c, 9, 36, 95
6, 309120, Note_on_c, 9, 49, 95
6, 309120, Note_on_c, 9, 36, 95
6, 310080, Note_off_c, 9, 49, 95
6, 310080, Note_off_c, 9, 36, 95
6, 310080, Note_on_c, 9, 57, 95
6, 310080, Note_on_c, 9, 40, 95
6, 310560, Note_off_c, 9, 57, 95
6, 310560, Note_off_c, 9, 40, 95
6, 310560, Note_on_c, 9, 36, 95
6, 311040, Note_off_c, 9, 36, 95
6, 311040, Note_on_c, 9, 49, 95
6, 311040, Note_on_c, 9, 36, 95
6, 312000, Note_off_c, 9, 49, 95
6, 312000, Note_off_c, 9, 36, 95
6, 312000, Note_on_c, 9, 57, 95
6, 312000, Note_on_c, 9, 40, 95
6, 312480, Note_off_c, 9, 57, 95
6, 312480, Note_off_c, 9, 40, 95
6, 312480, Note_on_c, 9, 36, 95
6, 312960, Note_off_c, 9, 36, 95
6, 312960, Note_on_c, 9, 49, 95
6, 312960, Note_on_c, 9, 40, 63
6, 312960, Note_on_c, 9, 36, 95
6, 313440, Note_off_c, 9, 49, 95
6, 313440, Note_off_c, 9, 40, 63
6, 313440, Note_off_c, 9, 36, 95
6, 313440, Note_on_c, 9, 40, 95
6, 313920, Note_off_c, 9, 40, 95
6, 313920, Note_on_c, 9, 40, 95
6, 314160, Note_off_c, 9, 40, 95
6, 314160, Note_on_c, 9, 40, 95
6, 314400, Note_off_c, 9, 40, 95
6, 314400, Note_on_c, 9, 40, 95
6, 314640, Note_off_c, 9, 40, 95
6, 314640, Note_on_c, 9, 40, 95
6, 314760, Note_off_c, 9, 40, 95
6, 314760, Note_on_c, 9, 40, 95
6, 314880, Note_off_c, 9, 40, 95
6, 314880, Note_on_c, 9, 49, 95
6, 314880, Note_on_c, 9, 36, 95
6, 315840, Note_off_c, 9, 49, 95
6, 315840, Note_off_c, 9, 36, 95
6, 315840, Note_on_c, 9, 57, 95
6, 315840, Note_on_c, 9, 40, 95
6, 316800, Note_off_c, 9, 57, 95
6, 316800, Note_off_c, 9, 40, 95
6, 316800, Note_on_c, 9, 49, 95
6, 316800, Note_on_c, 9, 36, 95
6, 317280, Note_off_c, 9, 49, 95
6, 317280, Note_off_c, 9, 36, 95
6, 317280, Note_on_c, 9, 36, 95
6, 317760, Note_off_c, 9, 36, 95
6, 317760, Note_on_c, 9, 57, 95
6, 317760, Note_on_c, 9, 40, 95
6, 318240, Note_off_c, 9, 57, 95
6, 318240, Note_off_c, 9, 40, 95
6, 318240, Note_on_c, 9, 36, 95
6, 318720, Note_off_c, 9, 36, 95
6, 318720, Note_on_c, 9, 49, 95
6, 318720, Note_on_c, 9, 36, 95
6, 319200, Note_off_c, 9, 49, 95
6, 319200, Note_off_c, 9, 36, 95
6, 319200, Note_on_c, 9, 40, 95
6, 319200, Note_on_c, 9, 36, 95
6, 319680, Note_off_c, 9, 40, 95
6, 319680, Note_off_c, 9, 36, 95
6, 319680, Note_on_c, 9, 57, 95
6, 319680, Note_on_c, 9, 36, 95
6, 320160, Note_off_c, 9, 57, 95
6, 320160, Note_off_c, 9, 36, 95
6, 320160, Note_on_c, 9, 40, 95
6, 320160, Note_on_c, 9, 36, 95
6, 320640, Note_off_c, 9, 40, 95
6, 320640, Note_off_c, 9, 36, 95
6, 320640, Note_on_c, 9, 49, 95
6, 320640, Note_on_c, 9, 36, 95
6, 321120, Note_off_c, 9, 49, 95
6, 321120, Note_off_c, 9, 36, 95
6, 321120, Note_on_c, 9, 36, 95
6, 321360, Note_off_c, 9, 36, 95
6, 321360, Note_on_c, 9, 57, 95
6, 321360, Note_on_c, 9, 40, 95
6, 321600, Note_off_c, 9, 57, 95
6, 321600, Note_off_c, 9, 40, 95
6, 321600, Note_on_c, 9, 40, 111
6, 321840, Note_off_c, 9, 40, 111
6, 321840, Note_on_c, 9, 40, 63
6, 321960, Note_off_c, 9, 40, 63
6, 321960, Note_on_c, 9, 40, 79
6, 322080, Note_off_c, 9, 40, 79
6, 322080, Note_on_c, 9, 40, 95
6, 322200, Note_off_c, 9, 40, 95
6, 322200, Note_on_c, 9, 40, 95
6, 322320, Note_off_c, 9, 40, 95
6, 322560, Note_on_c, 9, 49, 95
6, 322560, Note_on_c, 9, 36, 95
6, 323520, Note_off_c, 9, 49, 95
6, 323520, Note_off_c, 9, 36, 95
6, 323520, Note_on_c, 9, 57, 95
6, 323520, Note_on_c, 9, 40, 95
6, 324000, Note_off_c, 9, 57, 95
6, 324000, Note_off_c, 9, 40, 95
6, 324000, Note_on_c, 9, 36, 95
6, 324480, Note_off_c, 9, 36, 95
6, 324480, Note_on_c, 9, 49, 95
6, 324480, Note_on_c, 9, 36, 95
6, 325440, Note_off_c, 9, 49, 95
6, 325440, Note_off_c, 9, 36, 95
6, 325440, Note_on_c, 9, 57, 95
6, 325440, Note_on_c, 9, 40, 95
6, 325920, Note_off_c, 9, 57, 95
6, 325920, Note_off_c, 9, 40, 95
6, 325920, Note_on_c, 9, 36, 95
6, 326400, Note_off_c, 9, 36, 95
6, 326400, Note_on_c, 9, 49, 95
6, 326400, Note_on_c, 9, 36, 95
6, 327360, Note_off_c, 9, 49, 95
6, 327360, Note_off_c, 9, 36, 95
6, 327360, Note_on_c, 9, 57, 95
6, 327360, Note_on_c, 9, 40, 95
6, 327840, Note_off_c, 9, 57, 95
6, 327840, Note_off_c, 9, 40, 95
6, 327840, Note_on_c, 9, 36, 95
6, 328320, Note_off_c, 9, 36, 95
6, 328320, Note_on_c, 9, 49, 95
6, 328320, Note_on_c, 9, 40, 95
6, 328560, Note_off_c, 9, 49, 95
6, 328560, Note_off_c, 9, 40, 95
6, 328560, Note_on_c, 9, 40, 79
6, 328680, Note_off_c, 9, 40, 79
6, 328680, Note_on_c, 9, 40, 95
6, 328800, Note_off_c, 9, 40, 95
6, 328800, Note_on_c, 9, 40, 95
6, 329040, Note_off_c, 9, 40, 95
6, 329040, Note_on_c, 9, 40, 95
6, 329280, Note_off_c, 9, 40, 95
6, 329280, Note_on_c, 9, 40, 95
6, 329400, Note_off_c, 9, 40, 95
6, 329400, Note_on_c, 9, 40, 95
6, 329520, Note_off_c, 9, 40, 95
6, 329520, Note_on_c, 9, 40, 95
6, 329640, Note_off_c, 9, 40, 95
6, 329640, Note_on_c, 9, 45, 95
6, 329760, Note_off_c, 9, 45, 95
6, 329760, Note_on_c, 9, 45, 95
6, 329880, Note_off_c, 9, 45, 95
6, 329880, Note_on_c, 9, 45, 95
6, 330000, Note_off_c, 9, 45, 95
6, 330000, Note_on_c, 9, 43, 95
6, 330120, Note_off_c, 9, 43, 95
6, 330120, Note_on_c, 9, 43, 95
6, 330240, Note_off_c, 9, 43, 95
6, 330240, Note_on_c, 9, 49, 95
6, 330240, Note_on_c, 9, 36, 95
6, 331200, Note_off_c, 9, 49, 95
6, 331200, Note_off_c, 9, 36, 95
6, 331200, Note_on_c, 9, 57, 95
6, 331200, Note_on_c, 9, 40, 95
6, 331680, Note_off_c, 9, 57, 95
6, 331680, Note_off_c, 9, 40, 95
6, 331680, Note_on_c, 9, 36, 95
6, 332160, Note_off_c, 9, 36, 95
6, 332160, Note_on_c, 9, 49, 95
6, 332160, Note_on_c, 9, 36, 95
6, 333120, Note_off_c, 9, 49, 95
6, 333120, Note_off_c, 9, 36, 95
6, 333120, Note_on_c, 9, 57, 95
6, 333120, Note_on_c, 9, 40, 95
6, 333600, Note_off_c, 9, 57, 95
6, 333600, Note_off_c, 9, 40, 95
6, 333600, Note_on_c, 9, 36, 95
6, 334080, Note_off_c, 9, 36, 95
6, 334080, Note_on_c, 9, 49, 95
6, 334080, Note_on_c, 9, 36, 95
6, 335040, Note_off_c, 9, 49, 95
6, 335040, Note_off_c, 9, 36, 95
6, 335040, Note_on_c, 9, 57, 95
6, 335040, Note_on_c, 9, 40, 95
6, 335520, Note_off_c, 9, 57, 95
6, 335520, Note_off_c, 9, 40, 95
6, 335520, Note_on_c, 9, 36, 95
6, 336000, Note_off_c, 9, 36, 95
6, 336000, Note_on_c, 9, 49, 95
6, 336000, Note_on_c, 9, 40, 63
6, 336000, Note_on_c, 9, 36, 95
6, 336480, Note_off_c, 9, 49, 95
6, 336480, Note_off_c, 9, 40, 63
6, 336480, Note_off_c, 9, 36, 95
6, 336480, Note_on_c, 9, 40, 95
6, 336960, Note_off_c, 9, 40, 95
6, 336960, Note_on_c, 9, 40, 95
6, 337200, Note_off_c, 9, 40, 95
6, 337200, Note_on_c, 9, 40, 95
6, 337440, Note_off_c, 9, 40, 95
6, 337440, Note_on_c, 9, 40, 95
6, 337680, Note_off_c, 9, 40, 95
6, 337680, Note_on_c, 9, 40, 95
6, 337800, Note_off_c, 9, 40, 95
6, 337800, Note_on_c, 9, 40, 95
6, 337920, Note_off_c, 9, 40, 95
6, 337920, Note_on_c, 9, 49, 95
6, 337920, Note_on_c, 9, 36, 95
6, 338880, Note_off_c, 9, 49, 95
6, 338880, Note_off_c, 9, 36, 95
6, 338880, Note_on_c, 9, 57, 95
6, 338880, Note_on_c, 9, 40, 95
6, 339360, Note_off_c, 9, 57, 95
6, 339360, Note_off_c, 9, 40, 95
6, 339360, Note_on_c, 9, 36, 95
6, 339840, Note_off_c, 9, 36, 95
6, 339840, Note_on_c, 9, 49, 95
6, 339840, Note_on_c, 9, 36, 95
6, 340800, Note_off_c, 9, 49, 95
6, 340800, Note_off_c, 9, 36, 95
6, 340800, Note_on_c, 9, 57, 95
6, 340800, Note_on_c, 9, 40, 95
6, 341280, Note_off_c, 9, 57, 95
6, 341280, Note_off_c, 9, 40, 95
6, 341280, Note_on_c, 9, 36, 95
6, 341520, Note_off_c, 9, 36, 95
6, 341520, Note_on_c, 9, 40, 95
6, 341760, Note_off_c, 9, 40, 95
6, 341760, Note_on_c, 9, 49, 95
6, 341760, Note_on_c, 9, 36, 95
6, 342720, Note_off_c, 9, 49, 95
6, 342720, Note_off_c, 9, 36, 95
6, 342720, Note_on_c, 9, 57, 95
6, 342720, Note_on_c, 9, 40, 95
6, 343200, Note_off_c, 9, 57, 95
6, 343200, Note_off_c, 9, 40, 95
6, 343200, Note_on_c, 9, 36, 95
6, 343680, Note_off_c, 9, 36, 95
6, 343680, Note_on_c, 9, 49, 95
6, 343680, Note_on_c, 9, 40, 95
6, 343680, Note_on_c, 9, 36, 95
6, 344160, Note_off_c, 9, 49, 95
6, 344160, Note_off_c, 9, 40, 95
6, 344160, Note_off_c, 9, 36, 95
6, 344160, Note_on_c, 9, 40, 95
6, 344400, Note_off_c, 9, 40, 95
6, 344400, Note_on_c, 9, 40, 95
6, 344640, Note_off_c, 9, 40, 95
6, 344640, Note_on_c, 9, 49, 95
6, 344640, Note_on_c, 9, 47, 95
6, 344760, Note_off_c, 9, 49, 95
6, 344760, Note_off_c, 9, 47, 95
6, 344760, Note_on_c, 9, 45, 95
6, 344880, Note_off_c, 9, 45, 95
6, 344880, Note_on_c, 9, 45, 95
6, 345000, Note_off_c, 9, 45, 95
6, 345000, Note_on_c, 9, 43, 95
6, 345120, Note_off_c, 9, 43, 95
6, 345120, Note_on_c, 9, 43, 95
6, 345120, Note_on_c, 9, 36, 95
6, 345600, Note_off_c, 9, 43, 95
6, 345600, Note_off_c, 9, 36, 95
6, 345600, Note_on_c, 9, 57, 95
6, 345600, Note_on_c, 9, 36, 95
6, 346560, Note_off_c, 9, 57, 95
6, 346560, Note_off_c, 9, 36, 95
6, 346560, Note_on_c, 9, 49, 95
6, 346560, Note_on_c, 9, 40, 95
6, 347040, Note_off_c, 9, 49, 95
6, 347040, Note_off_c, 9, 40, 95
6, 347040, Note_on_c, 9, 36, 95
6, 347520, Note_off_c, 9, 36, 95
6, 347520, Note_on_c, 9, 49, 95
6, 347520, Note_on_c, 9, 36, 95
6, 348000, Note_off_c, 9, 49, 95
6, 348000, Note_off_c, 9, 36, 95
6, 348000, Note_on_c, 9, 40, 95
6, 348480, Note_off_c, 9, 40, 95
6, 348480, Note_on_c, 9, 57, 95
6, 348480, Note_on_c, 9, 40, 95
6, 348720, Note_off_c, 9, 57, 95
6, 348720, Note_off_c, 9, 40, 95
6, 348720, Note_on_c, 9, 40, 95
6, 348960, Note_off_c, 9, 40, 95
6, 348960, Note_on_c, 9, 40, 95
6, 349080, Note_off_c, 9, 40, 95
6, 349080, Note_on_c, 9, 40, 95
6, 349200, Note_off_c, 9, 40, 95
6, 349200, Note_on_c, 9, 40, 95
6, 349320, Note_off_c, 9, 40, 95
6, 349320, Note_on_c, 9, 40, 95
6, 349440, Note_off_c, 9, 40, 95
6, 349440, Note_on_c, 9, 49, 95
6, 349440, Note_on_c, 9, 36, 95
6, 349920, Note_off_c, 9, 49, 95
6, 349920, Note_off_c, 9, 36, 95
6, 349920, Note_on_c, 9, 40, 95
6, 350400, Note_off_c, 9, 40, 95
6, 350400, Note_on_c, 9, 57, 95
6, 350400, Note_on_c, 9, 36, 95
6, 350880, Note_off_c, 9, 57, 95
6, 350880, Note_off_c, 9, 36, 95
6, 350880, Note_on_c, 9, 36, 95
6, 351360, Note_off_c, 9, 36, 95
6, 351360, Note_on_c, 9, 49, 95
6, 351360, Note_on_c, 9, 40, 95
6, 351840, Note_off_c, 9, 49, 95
6, 351840, Note_off_c, 9, 40, 95
6, 351840, Note_on_c, 9, 36, 95
6, 352320, Note_off_c, 9, 36, 95
6, 352320, Note_on_c, 9, 57, 95
6, 352320, Note_on_c, 9, 47, 95
6, 352320, Note_on_c, 9, 36, 95
6, 352560, Note_off_c, 9, 57, 95
6, 352560, Note_off_c, 9, 47, 95
6, 352560, Note_off_c, 9, 36, 95
6, 352560, Note_on_c, 9, 45, 95
6, 352800, Note_off_c, 9, 45, 95
6, 352800, Note_on_c, 9, 36, 95
6, 353280, Note_off_c, 9, 36, 95
6, 353280, Note_on_c, 9, 49, 95
6, 353280, Note_on_c, 9, 36, 95
6, 360960, Note_off_c, 9, 49, 95
6, 360960, Note_off_c, 9, 36, 95
6, 360960, End_track
0, 0, End_of_file
