0, 0, Header, 1, 9, 384
1, 0, Start_track
1, 0, Title_t, "Sting: Lithium Sunset"
1, 0, Copyright_t, "Sting 1996"
1, 0, Text_t, "Mate Attila"
1, 0, Text_t, "Music&Lyrics by Sting\012"
1, 0, Text_t, "Sequenced by: Mate, Attila - AttiSoft 1997\012"
1, 0, Text_t, "Freeware beta version midi\012"
1, 0, Text_t, "If you modified this midi file, please send them to me!\012"
1, 0, Text_t, "Mate, Attila EMail: mate-attis@usa.net\012"
1, 0, Sequencer_specific, 3, 0, 0, 65
1, 0, Time_signature, 4, 2, 24, 8
1, 0, Key_signature, 0, "major"
1, 0, Tempo, 508475
1, 0, End_track
2, 0, Start_track
2, 0, MIDI_port, 0
2, 0, Title_t, "Bass"
2, 0, Control_c, 0, 0, 0
2, 0, Control_c, 0, 32, 0
2, 0, Program_c, 0, 33
2, 0, Control_c, 0, 0, 0
2, 1536, Note_on_c, 0, 40, 84
2, 1976, Note_on_c, 0, 40, 0
2, 2112, Note_on_c, 0, 40, 84
2, 2544, Note_on_c, 0, 40, 0
2, 2688, Note_on_c, 0, 37, 84
2, 2864, Note_on_c, 0, 37, 0
2, 2880, Note_on_c, 0, 40, 84
2, 2988, Note_on_c, 0, 40, 0
2, 3072, Note_on_c, 0, 40, 84
2, 3512, Note_on_c, 0, 40, 0
2, 3648, Note_on_c, 0, 40, 84
2, 4080, Note_on_c, 0, 40, 0
2, 4224, Note_on_c, 0, 37, 84
2, 4400, Note_on_c, 0, 37, 0
2, 4416, Note_on_c, 0, 40, 84
2, 4524, Note_on_c, 0, 40, 0
2, 4608, Note_on_c, 0, 40, 84
2, 5048, Note_on_c, 0, 40, 0
2, 5184, Note_on_c, 0, 40, 84
2, 5616, Note_on_c, 0, 40, 0
2, 5760, Note_on_c, 0, 37, 84
2, 5936, Note_on_c, 0, 37, 0
2, 5952, Note_on_c, 0, 40, 84
2, 6060, Note_on_c, 0, 40, 0
2, 6144, Note_on_c, 0, 40, 84
2, 6584, Note_on_c, 0, 40, 0
2, 6720, Note_on_c, 0, 40, 84
2, 7152, Note_on_c, 0, 40, 0
2, 7296, Note_on_c, 0, 37, 84
2, 7472, Note_on_c, 0, 37, 0
2, 7488, Note_on_c, 0, 40, 84
2, 7596, Note_on_c, 0, 40, 0
2, 7680, Note_on_c, 0, 40, 84
2, 8120, Note_on_c, 0, 40, 0
2, 8256, Note_on_c, 0, 40, 84
2, 8688, Note_on_c, 0, 40, 0
2, 8832, Note_on_c, 0, 37, 84
2, 9008, Note_on_c, 0, 37, 0
2, 9024, Note_on_c, 0, 40, 84
2, 9132, Note_on_c, 0, 40, 0
2, 9216, Note_on_c, 0, 40, 84
2, 9644, Note_on_c, 0, 40, 0
2, 9792, Note_on_c, 0, 40, 84
2, 10340, Note_on_c, 0, 40, 0
2, 10368, Note_on_c, 0, 37, 84
2, 10560, Note_on_c, 0, 40, 84
2, 10576, Note_on_c, 0, 37, 0
2, 10668, Note_on_c, 0, 40, 0
2, 10752, Note_on_c, 0, 40, 84
2, 11160, Note_on_c, 0, 40, 0
2, 11328, Note_on_c, 0, 40, 84
2, 11900, Note_on_c, 0, 40, 0
2, 11904, Note_on_c, 0, 37, 84
2, 12076, Note_on_c, 0, 37, 0
2, 12096, Note_on_c, 0, 40, 84
2, 12192, Note_on_c, 0, 40, 0
2, 12296, Note_on_c, 0, 40, 104
2, 12784, Pitch_bend_c, 0, 6828
2, 12976, Pitch_bend_c, 0, 6146
2, 13008, Pitch_bend_c, 0, 5464
2, 13036, Pitch_bend_c, 0, 4782
2, 13064, Pitch_bend_c, 0, 4100
2, 13096, Pitch_bend_c, 0, 3418
2, 13124, Pitch_bend_c, 0, 2736
2, 13156, Pitch_bend_c, 0, 2054
2, 13184, Pitch_bend_c, 0, 1372
2, 13216, Pitch_bend_c, 0, 690
2, 13244, Pitch_bend_c, 0, 8
2, 13272, Pitch_bend_c, 0, 0
2, 13628, Note_on_c, 0, 40, 0
2, 13804, Pitch_bend_c, 0, 7510
2, 13808, Pitch_bend_c, 0, 8192
2, 13824, Note_on_c, 0, 33, 106
2, 14264, Note_on_c, 0, 33, 0
2, 14400, Note_on_c, 0, 33, 106
2, 14656, Note_on_c, 0, 33, 0
2, 14784, Note_on_c, 0, 33, 106
2, 14956, Note_on_c, 0, 33, 0
2, 14976, Note_on_c, 0, 35, 106
2, 15168, Note_on_c, 0, 37, 106
2, 15172, Note_on_c, 0, 35, 0
2, 15340, Note_on_c, 0, 37, 0
2, 15360, Note_on_c, 0, 38, 106
2, 15824, Note_on_c, 0, 38, 0
2, 15936, Note_on_c, 0, 38, 106
2, 16500, Note_on_c, 0, 38, 0
2, 16704, Note_on_c, 0, 40, 106
2, 16832, Note_on_c, 0, 40, 0
2, 16896, Note_on_c, 0, 33, 106
2, 17368, Note_on_c, 0, 33, 0
2, 17472, Note_on_c, 0, 33, 106
2, 17856, Note_on_c, 0, 33, 106
2, 18028, Note_on_c, 0, 33, 0
2, 18048, Note_on_c, 0, 35, 106
2, 18100, Note_on_c, 0, 33, 0
2, 18240, Note_on_c, 0, 37, 106
2, 18252, Note_on_c, 0, 35, 0
2, 18432, Note_on_c, 0, 38, 106
2, 18456, Note_on_c, 0, 37, 0
2, 18860, Note_on_c, 0, 38, 0
2, 19008, Note_on_c, 0, 38, 106
2, 19592, Note_on_c, 0, 38, 0
2, 19968, Note_on_c, 0, 30, 106
2, 20404, Note_on_c, 0, 30, 0
2, 20544, Note_on_c, 0, 42, 106
2, 21184, Note_on_c, 0, 42, 0
2, 21504, Note_on_c, 0, 35, 106
2, 21940, Note_on_c, 0, 35, 0
2, 22080, Note_on_c, 0, 47, 106
2, 22720, Note_on_c, 0, 47, 0
2, 23040, Note_on_c, 0, 40, 106
2, 23456, Note_on_c, 0, 40, 0
2, 23616, Note_on_c, 0, 40, 106
2, 24192, Note_on_c, 0, 37, 106
2, 24276, Note_on_c, 0, 40, 0
2, 24372, Note_on_c, 0, 37, 0
2, 24384, Note_on_c, 0, 35, 106
2, 24576, Note_on_c, 0, 28, 106
2, 24592, Note_on_c, 0, 35, 0
2, 25008, Note_on_c, 0, 28, 0
2, 25152, Note_on_c, 0, 28, 106
2, 25792, Note_on_c, 0, 28, 0
2, 26112, Note_on_c, 0, 33, 106
2, 26552, Note_on_c, 0, 33, 0
2, 26688, Note_on_c, 0, 33, 106
2, 26944, Note_on_c, 0, 33, 0
2, 27072, Note_on_c, 0, 33, 106
2, 27244, Note_on_c, 0, 33, 0
2, 27264, Note_on_c, 0, 35, 106
2, 27456, Note_on_c, 0, 37, 106
2, 27460, Note_on_c, 0, 35, 0
2, 27628, Note_on_c, 0, 37, 0
2, 27648, Note_on_c, 0, 38, 106
2, 28112, Note_on_c, 0, 38, 0
2, 28224, Note_on_c, 0, 38, 106
2, 28808, Note_on_c, 0, 38, 0
2, 28992, Note_on_c, 0, 40, 106
2, 29184, Note_on_c, 0, 33, 106
2, 29192, Note_on_c, 0, 40, 0
2, 29656, Note_on_c, 0, 33, 0
2, 29760, Note_on_c, 0, 33, 106
2, 30144, Note_on_c, 0, 33, 106
2, 30316, Note_on_c, 0, 33, 0
2, 30336, Note_on_c, 0, 35, 106
2, 30388, Note_on_c, 0, 33, 0
2, 30528, Note_on_c, 0, 37, 106
2, 30540, Note_on_c, 0, 35, 0
2, 30720, Note_on_c, 0, 38, 106
2, 30744, Note_on_c, 0, 37, 0
2, 31148, Note_on_c, 0, 38, 0
2, 31296, Note_on_c, 0, 38, 106
2, 31920, Note_on_c, 0, 38, 0
2, 32256, Note_on_c, 0, 30, 106
2, 32692, Note_on_c, 0, 30, 0
2, 32832, Note_on_c, 0, 42, 106
2, 33472, Note_on_c, 0, 42, 0
2, 33792, Note_on_c, 0, 31, 106
2, 34228, Note_on_c, 0, 31, 0
2, 34368, Note_on_c, 0, 43, 106
2, 35008, Note_on_c, 0, 43, 0
2, 35328, Note_on_c, 0, 40, 106
2, 35744, Note_on_c, 0, 40, 0
2, 35904, Note_on_c, 0, 40, 106
2, 36480, Note_on_c, 0, 37, 106
2, 36564, Note_on_c, 0, 40, 0
2, 36660, Note_on_c, 0, 37, 0
2, 36672, Note_on_c, 0, 35, 106
2, 36864, Note_on_c, 0, 28, 106
2, 36880, Note_on_c, 0, 35, 0
2, 37296, Note_on_c, 0, 28, 0
2, 37440, Note_on_c, 0, 40, 106
2, 38080, Note_on_c, 0, 40, 0
2, 38400, Note_on_c, 0, 30, 106
2, 38896, Note_on_c, 0, 30, 0
2, 38976, Note_on_c, 0, 42, 106
2, 39832, Note_on_c, 0, 42, 0
2, 39936, Note_on_c, 0, 35, 106
2, 40512, Note_on_c, 0, 47, 106
2, 40528, Note_on_c, 0, 35, 0
2, 41084, Note_on_c, 0, 47, 0
2, 41088, Note_on_c, 0, 35, 106
2, 41280, Note_on_c, 0, 37, 106
2, 41292, Note_on_c, 0, 35, 0
2, 41472, Note_on_c, 0, 38, 106
2, 41492, Note_on_c, 0, 37, 0
2, 42012, Note_on_c, 0, 38, 0
2, 42048, Note_on_c, 0, 50, 106
2, 42992, Note_on_c, 0, 50, 0
2, 43008, Note_on_c, 0, 37, 106
2, 43776, Note_on_c, 0, 41, 106
2, 43812, Note_on_c, 0, 37, 0
2, 44516, Note_on_c, 0, 41, 0
2, 44544, Note_on_c, 0, 30, 106
2, 45040, Note_on_c, 0, 30, 0
2, 45120, Note_on_c, 0, 42, 106
2, 45976, Note_on_c, 0, 42, 0
2, 46080, Note_on_c, 0, 35, 106
2, 46656, Note_on_c, 0, 47, 106
2, 46672, Note_on_c, 0, 35, 0
2, 47228, Note_on_c, 0, 47, 0
2, 47232, Note_on_c, 0, 35, 106
2, 47424, Note_on_c, 0, 37, 106
2, 47436, Note_on_c, 0, 35, 0
2, 47616, Note_on_c, 0, 38, 106
2, 47636, Note_on_c, 0, 37, 0
2, 48156, Note_on_c, 0, 38, 0
2, 48192, Note_on_c, 0, 38, 106
2, 49136, Note_on_c, 0, 38, 0
2, 49152, Note_on_c, 0, 37, 106
2, 49920, Note_on_c, 0, 41, 106
2, 49956, Note_on_c, 0, 37, 0
2, 50660, Note_on_c, 0, 41, 0
2, 50688, Note_on_c, 0, 33, 106
2, 51128, Note_on_c, 0, 33, 0
2, 51264, Note_on_c, 0, 45, 106
2, 51592, Note_on_c, 0, 45, 0
2, 51648, Note_on_c, 0, 33, 106
2, 51820, Note_on_c, 0, 33, 0
2, 51840, Note_on_c, 0, 35, 106
2, 52032, Note_on_c, 0, 37, 106
2, 52036, Note_on_c, 0, 35, 0
2, 52204, Note_on_c, 0, 37, 0
2, 52224, Note_on_c, 0, 38, 106
2, 52688, Note_on_c, 0, 38, 0
2, 52800, Note_on_c, 0, 50, 106
2, 53364, Note_on_c, 0, 50, 0
2, 53568, Note_on_c, 0, 40, 106
2, 53696, Note_on_c, 0, 40, 0
2, 53760, Note_on_c, 0, 33, 106
2, 54232, Note_on_c, 0, 33, 0
2, 54336, Note_on_c, 0, 45, 106
2, 54720, Note_on_c, 0, 33, 106
2, 54892, Note_on_c, 0, 45, 0
2, 54912, Note_on_c, 0, 35, 106
2, 54964, Note_on_c, 0, 33, 0
2, 55104, Note_on_c, 0, 37, 106
2, 55116, Note_on_c, 0, 35, 0
2, 55296, Note_on_c, 0, 38, 106
2, 55320, Note_on_c, 0, 37, 0
2, 55724, Note_on_c, 0, 38, 0
2, 55872, Note_on_c, 0, 38, 106
2, 56456, Note_on_c, 0, 38, 0
2, 56832, Note_on_c, 0, 33, 106
2, 57216, Note_on_c, 0, 33, 0
2, 57408, Note_on_c, 0, 45, 106
2, 58176, Note_on_c, 0, 45, 0
2, 58368, Note_on_c, 0, 40, 106
2, 58796, Note_on_c, 0, 40, 0
2, 58944, Note_on_c, 0, 40, 106
2, 59528, Note_on_c, 0, 40, 0
2, 59904, Note_on_c, 0, 40, 106
2, 60332, Note_on_c, 0, 40, 0
2, 60480, Note_on_c, 0, 40, 106
2, 61056, Note_on_c, 0, 37, 106
2, 61064, Note_on_c, 0, 40, 0
2, 61184, Note_on_c, 0, 37, 0
2, 61248, Note_on_c, 0, 40, 106
2, 61376, Note_on_c, 0, 40, 0
2, 61440, Note_on_c, 0, 40, 106
2, 61868, Note_on_c, 0, 40, 0
2, 62016, Note_on_c, 0, 40, 106
2, 62600, Note_on_c, 0, 40, 0
2, 62976, Note_on_c, 0, 40, 106
2, 63404, Note_on_c, 0, 40, 0
2, 63552, Note_on_c, 0, 40, 106
2, 64128, Note_on_c, 0, 37, 106
2, 64136, Note_on_c, 0, 40, 0
2, 64256, Note_on_c, 0, 37, 0
2, 64320, Note_on_c, 0, 40, 106
2, 64448, Note_on_c, 0, 40, 0
2, 64512, Note_on_c, 0, 40, 106
2, 64940, Note_on_c, 0, 40, 0
2, 65088, Note_on_c, 0, 40, 106
2, 65672, Note_on_c, 0, 40, 0
2, 66048, Note_on_c, 0, 40, 106
2, 66476, Note_on_c, 0, 40, 0
2, 66624, Note_on_c, 0, 40, 106
2, 67200, Note_on_c, 0, 37, 106
2, 67208, Note_on_c, 0, 40, 0
2, 67328, Note_on_c, 0, 37, 0
2, 67392, Note_on_c, 0, 40, 106
2, 67520, Note_on_c, 0, 40, 0
2, 67584, Note_on_c, 0, 40, 106
2, 68012, Note_on_c, 0, 40, 0
2, 68160, Note_on_c, 0, 40, 106
2, 68736, Note_on_c, 0, 37, 106
2, 68744, Note_on_c, 0, 40, 0
2, 68864, Note_on_c, 0, 37, 0
2, 68928, Note_on_c, 0, 40, 106
2, 69056, Note_on_c, 0, 40, 0
2, 69128, Note_on_c, 0, 40, 104
2, 69616, Pitch_bend_c, 0, 6828
2, 69808, Pitch_bend_c, 0, 6146
2, 69840, Pitch_bend_c, 0, 5464
2, 69868, Pitch_bend_c, 0, 4782
2, 69896, Pitch_bend_c, 0, 4100
2, 69928, Pitch_bend_c, 0, 3418
2, 69956, Pitch_bend_c, 0, 2736
2, 69988, Pitch_bend_c, 0, 2054
2, 70016, Pitch_bend_c, 0, 1372
2, 70048, Pitch_bend_c, 0, 690
2, 70076, Pitch_bend_c, 0, 8
2, 70104, Pitch_bend_c, 0, 0
2, 70460, Note_on_c, 0, 40, 0
2, 70640, Pitch_bend_c, 0, 8192
2, 70656, Note_on_c, 0, 33, 106
2, 71096, Note_on_c, 0, 33, 0
2, 71232, Note_on_c, 0, 33, 106
2, 71488, Note_on_c, 0, 33, 0
2, 71616, Note_on_c, 0, 33, 106
2, 71788, Note_on_c, 0, 33, 0
2, 71808, Note_on_c, 0, 35, 106
2, 72000, Note_on_c, 0, 37, 106
2, 72004, Note_on_c, 0, 35, 0
2, 72172, Note_on_c, 0, 37, 0
2, 72192, Note_on_c, 0, 38, 106
2, 72656, Note_on_c, 0, 38, 0
2, 72768, Note_on_c, 0, 38, 106
2, 73332, Note_on_c, 0, 38, 0
2, 73536, Note_on_c, 0, 40, 106
2, 73664, Note_on_c, 0, 40, 0
2, 73728, Note_on_c, 0, 33, 106
2, 74200, Note_on_c, 0, 33, 0
2, 74304, Note_on_c, 0, 33, 106
2, 74688, Note_on_c, 0, 33, 106
2, 74860, Note_on_c, 0, 33, 0
2, 74880, Note_on_c, 0, 35, 106
2, 74932, Note_on_c, 0, 33, 0
2, 75072, Note_on_c, 0, 37, 106
2, 75084, Note_on_c, 0, 35, 0
2, 75264, Note_on_c, 0, 38, 106
2, 75288, Note_on_c, 0, 37, 0
2, 75692, Note_on_c, 0, 38, 0
2, 75840, Note_on_c, 0, 38, 106
2, 76424, Note_on_c, 0, 38, 0
2, 76800, Note_on_c, 0, 33, 106
2, 77240, Note_on_c, 0, 33, 0
2, 77376, Note_on_c, 0, 33, 106
2, 77760, Note_on_c, 0, 33, 106
2, 77932, Note_on_c, 0, 33, 0
2, 77932, Note_on_c, 0, 33, 0
2, 77952, Note_on_c, 0, 35, 106
2, 78144, Note_on_c, 0, 37, 106
2, 78148, Note_on_c, 0, 35, 0
2, 78316, Note_on_c, 0, 37, 0
2, 78336, Note_on_c, 0, 38, 106
2, 78800, Note_on_c, 0, 38, 0
2, 78912, Note_on_c, 0, 38, 106
2, 79476, Note_on_c, 0, 38, 0
2, 79680, Note_on_c, 0, 40, 106
2, 79808, Note_on_c, 0, 40, 0
2, 79872, Note_on_c, 0, 33, 106
2, 80344, Note_on_c, 0, 33, 0
2, 80448, Note_on_c, 0, 33, 106
2, 80832, Note_on_c, 0, 33, 106
2, 81004, Note_on_c, 0, 33, 0
2, 81024, Note_on_c, 0, 35, 106
2, 81076, Note_on_c, 0, 33, 0
2, 81216, Note_on_c, 0, 37, 106
2, 81228, Note_on_c, 0, 35, 0
2, 81408, Note_on_c, 0, 38, 106
2, 81432, Note_on_c, 0, 37, 0
2, 81836, Note_on_c, 0, 38, 0
2, 81984, Note_on_c, 0, 38, 106
2, 82568, Note_on_c, 0, 38, 0
2, 82944, Note_on_c, 0, 33, 106
2, 83384, Note_on_c, 0, 33, 0
2, 83520, Note_on_c, 0, 33, 106
2, 83776, Note_on_c, 0, 33, 0
2, 83904, Note_on_c, 0, 33, 106
2, 84076, Note_on_c, 0, 33, 0
2, 84096, Note_on_c, 0, 35, 106
2, 84288, Note_on_c, 0, 37, 106
2, 84292, Note_on_c, 0, 35, 0
2, 84460, Note_on_c, 0, 37, 0
2, 84480, Note_on_c, 0, 38, 106
2, 84944, Note_on_c, 0, 38, 0
2, 85056, Note_on_c, 0, 38, 106
2, 85620, Note_on_c, 0, 38, 0
2, 85824, Note_on_c, 0, 40, 106
2, 85952, Note_on_c, 0, 40, 0
2, 86016, Note_on_c, 0, 33, 106
2, 86488, Note_on_c, 0, 33, 0
2, 86592, Note_on_c, 0, 33, 106
2, 86976, Note_on_c, 0, 33, 106
2, 87148, Note_on_c, 0, 33, 0
2, 87168, Note_on_c, 0, 35, 106
2, 87220, Note_on_c, 0, 33, 0
2, 87360, Note_on_c, 0, 37, 106
2, 87372, Note_on_c, 0, 35, 0
2, 87552, Note_on_c, 0, 38, 106
2, 87576, Note_on_c, 0, 37, 0
2, 87980, Note_on_c, 0, 38, 0
2, 88128, Note_on_c, 0, 38, 106
2, 88712, Note_on_c, 0, 38, 0
2, 89088, Note_on_c, 0, 33, 106
2, 89528, Note_on_c, 0, 33, 0
2, 89664, Note_on_c, 0, 33, 106
2, 89920, Note_on_c, 0, 33, 0
2, 90048, Note_on_c, 0, 33, 106
2, 90220, Note_on_c, 0, 33, 0
2, 90240, Note_on_c, 0, 35, 106
2, 90432, Note_on_c, 0, 37, 106
2, 90436, Note_on_c, 0, 35, 0
2, 90604, Note_on_c, 0, 37, 0
2, 90624, Note_on_c, 0, 38, 106
2, 91088, Note_on_c, 0, 38, 0
2, 91200, Note_on_c, 0, 38, 106
2, 91764, Note_on_c, 0, 38, 0
2, 91968, Note_on_c, 0, 40, 106
2, 92096, Note_on_c, 0, 40, 0
2, 92160, Note_on_c, 0, 33, 106
2, 92632, Note_on_c, 0, 33, 0
2, 92736, Note_on_c, 0, 33, 106
2, 93120, Note_on_c, 0, 33, 106
2, 93292, Note_on_c, 0, 33, 0
2, 93312, Note_on_c, 0, 35, 106
2, 93364, Note_on_c, 0, 33, 0
2, 93504, Note_on_c, 0, 37, 106
2, 93516, Note_on_c, 0, 35, 0
2, 93696, Note_on_c, 0, 38, 106
2, 93720, Note_on_c, 0, 37, 0
2, 94124, Note_on_c, 0, 38, 0
2, 94272, Note_on_c, 0, 38, 106
2, 94856, Note_on_c, 0, 38, 0
2, 95232, Note_on_c, 0, 33, 106
2, 95672, Note_on_c, 0, 33, 0
2, 95808, Note_on_c, 0, 33, 106
2, 96064, Note_on_c, 0, 33, 0
2, 96192, Note_on_c, 0, 33, 106
2, 96364, Note_on_c, 0, 33, 0
2, 96384, Note_on_c, 0, 35, 106
2, 96576, Note_on_c, 0, 37, 106
2, 96580, Note_on_c, 0, 35, 0
2, 96748, Note_on_c, 0, 37, 0
2, 96768, Note_on_c, 0, 38, 106
2, 97232, Note_on_c, 0, 38, 0
2, 97344, Note_on_c, 0, 38, 106
2, 97908, Note_on_c, 0, 38, 0
2, 98112, Note_on_c, 0, 40, 106
2, 98240, Note_on_c, 0, 40, 0
2, 98304, Note_on_c, 0, 33, 106
2, 98776, Note_on_c, 0, 33, 0
2, 98880, Note_on_c, 0, 33, 106
2, 99264, Note_on_c, 0, 33, 106
2, 99436, Note_on_c, 0, 33, 0
2, 99456, Note_on_c, 0, 35, 106
2, 99508, Note_on_c, 0, 33, 0
2, 99648, Note_on_c, 0, 37, 106
2, 99660, Note_on_c, 0, 35, 0
2, 99840, Note_on_c, 0, 38, 106
2, 99864, Note_on_c, 0, 37, 0
2, 100268, Note_on_c, 0, 38, 0
2, 100416, Note_on_c, 0, 38, 106
2, 101000, Note_on_c, 0, 38, 0
2, 101376, Note_on_c, 0, 33, 106
2, 101816, Note_on_c, 0, 33, 0
2, 101952, Note_on_c, 0, 33, 106
2, 102208, Note_on_c, 0, 33, 0
2, 102336, Note_on_c, 0, 33, 106
2, 102508, Note_on_c, 0, 33, 0
2, 102528, Note_on_c, 0, 35, 106
2, 102720, Note_on_c, 0, 37, 106
2, 102724, Note_on_c, 0, 35, 0
2, 102892, Note_on_c, 0, 37, 0
2, 102912, Note_on_c, 0, 38, 106
2, 103376, Note_on_c, 0, 38, 0
2, 103488, Note_on_c, 0, 38, 106
2, 104052, Note_on_c, 0, 38, 0
2, 104256, Note_on_c, 0, 40, 106
2, 104384, Note_on_c, 0, 40, 0
2, 104448, Note_on_c, 0, 33, 106
2, 104920, Note_on_c, 0, 33, 0
2, 105024, Note_on_c, 0, 33, 106
2, 105408, Note_on_c, 0, 33, 106
2, 105580, Note_on_c, 0, 33, 0
2, 105600, Note_on_c, 0, 35, 106
2, 105652, Note_on_c, 0, 33, 0
2, 105792, Note_on_c, 0, 37, 106
2, 105804, Note_on_c, 0, 35, 0
2, 105984, Note_on_c, 0, 38, 106
2, 106008, Note_on_c, 0, 37, 0
2, 106412, Note_on_c, 0, 38, 0
2, 106560, Note_on_c, 0, 38, 106
2, 107144, Note_on_c, 0, 38, 0
2, 107520, Note_on_c, 0, 33, 106
2, 107960, Note_on_c, 0, 33, 0
2, 108096, Note_on_c, 0, 33, 106
2, 108352, Note_on_c, 0, 33, 0
2, 108480, Note_on_c, 0, 33, 106
2, 108652, Note_on_c, 0, 33, 0
2, 108672, Note_on_c, 0, 35, 106
2, 108864, Note_on_c, 0, 37, 106
2, 108868, Note_on_c, 0, 35, 0
2, 109036, Note_on_c, 0, 37, 0
2, 109056, Note_on_c, 0, 38, 106
2, 109520, Note_on_c, 0, 38, 0
2, 109632, Note_on_c, 0, 38, 106
2, 110196, Note_on_c, 0, 38, 0
2, 110400, Note_on_c, 0, 40, 106
2, 110528, Note_on_c, 0, 40, 0
2, 110592, Note_on_c, 0, 33, 106
2, 111064, Note_on_c, 0, 33, 0
2, 111168, Note_on_c, 0, 33, 106
2, 111552, Note_on_c, 0, 33, 106
2, 111724, Note_on_c, 0, 33, 0
2, 111744, Note_on_c, 0, 35, 106
2, 111796, Note_on_c, 0, 33, 0
2, 111936, Note_on_c, 0, 37, 106
2, 111948, Note_on_c, 0, 35, 0
2, 112128, Note_on_c, 0, 38, 106
2, 112152, Note_on_c, 0, 37, 0
2, 112556, Note_on_c, 0, 38, 0
2, 112704, Note_on_c, 0, 38, 106
2, 113288, Note_on_c, 0, 38, 0
2, 113288, End_track
3, 0, Start_track
3, 0, MIDI_port, 0
3, 0, Title_t, "Guitar"
3, 0, Control_c, 1, 0, 0
3, 0, Control_c, 1, 32, 0
3, 0, Program_c, 1, 24
3, 1288, Note_on_c, 1, 40, 54
3, 1304, Note_on_c, 1, 47, 54
3, 1320, Note_on_c, 1, 52, 54
3, 1336, Note_on_c, 1, 40, 0
3, 1336, Note_on_c, 1, 56, 54
3, 1352, Note_on_c, 1, 47, 0
3, 1352, Note_on_c, 1, 59, 54
3, 1368, Note_on_c, 1, 52, 0
3, 1368, Note_on_c, 1, 64, 54
3, 1384, Note_on_c, 1, 56, 0
3, 1384, Note_on_c, 1, 64, 54
3, 1400, Note_on_c, 1, 59, 0
3, 1400, Note_on_c, 1, 59, 54
3, 1416, Note_on_c, 1, 64, 0
3, 1420, Note_on_c, 1, 56, 54
3, 1440, Note_on_c, 1, 52, 54
3, 1456, Note_on_c, 1, 47, 54
3, 1476, Note_on_c, 1, 40, 54
3, 1480, Note_on_c, 1, 64, 0
3, 1496, Note_on_c, 1, 59, 0
3, 1500, Note_on_c, 1, 40, 0
3, 1500, Note_on_c, 1, 40, 54
3, 1516, Note_on_c, 1, 56, 0
3, 1516, Note_on_c, 1, 47, 54
3, 1520, Note_on_c, 1, 47, 0
3, 1536, Note_on_c, 1, 52, 0
3, 1536, Note_on_c, 1, 52, 54
3, 1548, Note_on_c, 1, 56, 67
3, 1564, Note_on_c, 1, 59, 67
3, 1580, Note_on_c, 1, 64, 67
3, 3680, Note_on_c, 1, 40, 0
3, 3700, Note_on_c, 1, 47, 0
3, 3716, Note_on_c, 1, 52, 0
3, 3728, Note_on_c, 1, 56, 0
3, 3744, Note_on_c, 1, 59, 0
3, 3760, Note_on_c, 1, 64, 0
3, 4360, Note_on_c, 1, 40, 54
3, 4376, Note_on_c, 1, 47, 54
3, 4392, Note_on_c, 1, 52, 54
3, 4408, Note_on_c, 1, 40, 0
3, 4408, Note_on_c, 1, 56, 54
3, 4424, Note_on_c, 1, 47, 0
3, 4424, Note_on_c, 1, 59, 54
3, 4440, Note_on_c, 1, 52, 0
3, 4440, Note_on_c, 1, 64, 54
3, 4456, Note_on_c, 1, 56, 0
3, 4456, Note_on_c, 1, 64, 54
3, 4472, Note_on_c, 1, 59, 0
3, 4472, Note_on_c, 1, 59, 54
3, 4488, Note_on_c, 1, 64, 0
3, 4492, Note_on_c, 1, 56, 54
3, 4512, Note_on_c, 1, 52, 54
3, 4528, Note_on_c, 1, 47, 54
3, 4548, Note_on_c, 1, 40, 54
3, 4552, Note_on_c, 1, 64, 0
3, 4568, Note_on_c, 1, 59, 0
3, 4572, Note_on_c, 1, 40, 0
3, 4572, Note_on_c, 1, 40, 67
3, 4588, Note_on_c, 1, 56, 0
3, 4588, Note_on_c, 1, 47, 67
3, 4592, Note_on_c, 1, 47, 0
3, 4608, Note_on_c, 1, 52, 0
3, 4608, Note_on_c, 1, 52, 67
3, 4620, Note_on_c, 1, 56, 67
3, 4636, Note_on_c, 1, 59, 67
3, 4652, Note_on_c, 1, 64, 67
3, 6752, Note_on_c, 1, 40, 0
3, 6768, Note_on_c, 1, 47, 0
3, 6788, Note_on_c, 1, 52, 0
3, 6800, Note_on_c, 1, 56, 0
3, 6816, Note_on_c, 1, 59, 0
3, 6832, Note_on_c, 1, 64, 0
3, 7432, Note_on_c, 1, 40, 54
3, 7448, Note_on_c, 1, 47, 54
3, 7464, Note_on_c, 1, 52, 54
3, 7480, Note_on_c, 1, 40, 0
3, 7480, Note_on_c, 1, 56, 54
3, 7496, Note_on_c, 1, 47, 0
3, 7496, Note_on_c, 1, 59, 54
3, 7512, Note_on_c, 1, 52, 0
3, 7512, Note_on_c, 1, 64, 54
3, 7528, Note_on_c, 1, 56, 0
3, 7528, Note_on_c, 1, 64, 54
3, 7544, Note_on_c, 1, 59, 0
3, 7544, Note_on_c, 1, 59, 54
3, 7560, Note_on_c, 1, 64, 0
3, 7564, Note_on_c, 1, 56, 54
3, 7584, Note_on_c, 1, 52, 54
3, 7600, Note_on_c, 1, 47, 54
3, 7620, Note_on_c, 1, 40, 54
3, 7624, Note_on_c, 1, 64, 0
3, 7640, Note_on_c, 1, 59, 0
3, 7644, Note_on_c, 1, 40, 0
3, 7644, Note_on_c, 1, 40, 67
3, 7660, Note_on_c, 1, 56, 0
3, 7660, Note_on_c, 1, 47, 67
3, 7664, Note_on_c, 1, 47, 0
3, 7680, Note_on_c, 1, 52, 0
3, 7680, Note_on_c, 1, 52, 67
3, 7692, Note_on_c, 1, 56, 67
3, 7708, Note_on_c, 1, 59, 67
3, 7724, Note_on_c, 1, 64, 67
3, 9824, Note_on_c, 1, 40, 0
3, 9840, Note_on_c, 1, 47, 0
3, 9860, Note_on_c, 1, 52, 0
3, 9872, Note_on_c, 1, 56, 0
3, 9888, Note_on_c, 1, 59, 0
3, 9904, Note_on_c, 1, 64, 0
3, 10504, Note_on_c, 1, 40, 54
3, 10520, Note_on_c, 1, 47, 54
3, 10536, Note_on_c, 1, 52, 54
3, 10552, Note_on_c, 1, 40, 0
3, 10552, Note_on_c, 1, 56, 54
3, 10568, Note_on_c, 1, 47, 0
3, 10568, Note_on_c, 1, 59, 54
3, 10584, Note_on_c, 1, 52, 0
3, 10584, Note_on_c, 1, 64, 54
3, 10600, Note_on_c, 1, 56, 0
3, 10600, Note_on_c, 1, 64, 54
3, 10616, Note_on_c, 1, 59, 0
3, 10616, Note_on_c, 1, 59, 54
3, 10632, Note_on_c, 1, 64, 0
3, 10636, Note_on_c, 1, 56, 54
3, 10656, Note_on_c, 1, 52, 54
3, 10672, Note_on_c, 1, 47, 54
3, 10692, Note_on_c, 1, 40, 54
3, 10696, Note_on_c, 1, 64, 0
3, 10712, Note_on_c, 1, 59, 0
3, 10716, Note_on_c, 1, 40, 0
3, 10716, Note_on_c, 1, 40, 67
3, 10732, Note_on_c, 1, 56, 0
3, 10732, Note_on_c, 1, 47, 67
3, 10736, Note_on_c, 1, 47, 0
3, 10752, Note_on_c, 1, 52, 0
3, 10752, Note_on_c, 1, 52, 67
3, 10764, Note_on_c, 1, 56, 67
3, 10780, Note_on_c, 1, 59, 67
3, 10796, Note_on_c, 1, 64, 67
3, 12896, Note_on_c, 1, 40, 0
3, 12912, Note_on_c, 1, 47, 0
3, 12932, Note_on_c, 1, 52, 0
3, 12944, Note_on_c, 1, 56, 0
3, 12960, Note_on_c, 1, 59, 0
3, 12976, Note_on_c, 1, 64, 0
3, 26280, Note_on_c, 1, 67, 75
3, 26536, Note_on_c, 1, 67, 0
3, 26604, Note_on_c, 1, 67, 70
3, 26808, Note_on_c, 1, 67, 0
3, 26876, Note_on_c, 1, 67, 75
3, 27156, Note_on_c, 1, 66, 65
3, 27192, Note_on_c, 1, 67, 0
3, 27432, Note_on_c, 1, 64, 65
3, 27484, Note_on_c, 1, 66, 0
3, 27600, Note_on_c, 1, 64, 0
3, 27672, Note_on_c, 1, 64, 62
3, 27936, Note_on_c, 1, 64, 0
3, 27944, Note_on_c, 1, 62, 65
3, 29236, Note_on_c, 1, 62, 0
3, 29352, Note_on_c, 1, 67, 56
3, 29608, Note_on_c, 1, 67, 0
3, 29676, Note_on_c, 1, 67, 76
3, 29880, Note_on_c, 1, 67, 0
3, 29948, Note_on_c, 1, 67, 74
3, 30228, Note_on_c, 1, 66, 70
3, 30264, Note_on_c, 1, 67, 0
3, 30504, Note_on_c, 1, 64, 65
3, 30556, Note_on_c, 1, 66, 0
3, 30672, Note_on_c, 1, 64, 0
3, 30744, Note_on_c, 1, 64, 65
3, 31020, Note_on_c, 1, 62, 65
3, 31052, Note_on_c, 1, 64, 0
3, 32224, Note_on_c, 1, 62, 0
3, 32440, Note_on_c, 1, 69, 75
3, 32696, Note_on_c, 1, 69, 0
3, 32772, Note_on_c, 1, 69, 75
3, 32988, Note_on_c, 1, 69, 0
3, 33044, Note_on_c, 1, 69, 75
3, 33308, Note_on_c, 1, 69, 0
3, 33320, Note_on_c, 1, 67, 67
3, 33524, Note_on_c, 1, 67, 0
3, 33600, Note_on_c, 1, 67, 65
3, 33816, Note_on_c, 1, 67, 0
3, 33868, Note_on_c, 1, 67, 60
3, 35312, Note_on_c, 1, 67, 0
3, 35520, Note_on_c, 1, 69, 77
3, 35784, Note_on_c, 1, 69, 0
3, 35852, Note_on_c, 1, 69, 75
3, 36048, Note_on_c, 1, 69, 0
3, 36112, Note_on_c, 1, 69, 75
3, 36364, Note_on_c, 1, 68, 56
3, 36400, Note_on_c, 1, 69, 0
3, 36580, Note_on_c, 1, 68, 0
3, 36656, Note_on_c, 1, 68, 70
3, 36888, Note_on_c, 1, 68, 0
3, 36940, Note_on_c, 1, 68, 70
3, 38240, Note_on_c, 1, 68, 0
3, 45496, Note_on_c, 1, 52, 90
3, 45692, Note_on_c, 1, 57, 80
3, 45740, Note_on_c, 1, 52, 0
3, 45900, Note_on_c, 1, 59, 80
3, 45904, Note_on_c, 1, 57, 0
3, 46064, Note_on_c, 1, 61, 80
3, 46104, Note_on_c, 1, 59, 0
3, 46432, Note_on_c, 1, 62, 80
3, 46464, Note_on_c, 1, 61, 0
3, 46640, Note_on_c, 1, 61, 80
3, 46660, Note_on_c, 1, 62, 0
3, 47020, Note_on_c, 1, 59, 80
3, 47032, Note_on_c, 1, 61, 0
3, 47400, Note_on_c, 1, 57, 80
3, 47432, Note_on_c, 1, 59, 0
3, 48928, Note_on_c, 1, 57, 0
3, 48940, Note_on_c, 1, 59, 80
3, 49024, Note_on_c, 1, 57, 80
3, 49040, Note_on_c, 1, 59, 0
3, 49144, Note_on_c, 1, 56, 78
3, 49180, Note_on_c, 1, 57, 0
3, 49888, Note_on_c, 1, 56, 0
3, 49920, Note_on_c, 1, 57, 80
3, 50724, Note_on_c, 1, 57, 0
3, 51624, Note_on_c, 1, 52, 80
3, 51816, Note_on_c, 1, 57, 80
3, 51904, Note_on_c, 1, 52, 0
3, 52020, Note_on_c, 1, 59, 80
3, 52068, Note_on_c, 1, 57, 0
3, 52204, Note_on_c, 1, 61, 80
3, 52280, Note_on_c, 1, 59, 0
3, 52752, Note_on_c, 1, 61, 0
3, 52788, Note_on_c, 1, 62, 70
3, 53648, Note_on_c, 1, 62, 0
3, 54696, Note_on_c, 1, 52, 90
3, 54888, Note_on_c, 1, 57, 95
3, 54928, Note_on_c, 1, 52, 0
3, 55088, Note_on_c, 1, 59, 95
3, 55128, Note_on_c, 1, 57, 0
3, 55268, Note_on_c, 1, 61, 80
3, 55320, Note_on_c, 1, 59, 0
3, 55840, Note_on_c, 1, 61, 0
3, 55848, Note_on_c, 1, 59, 80
3, 56444, Note_on_c, 1, 59, 0
3, 56448, Note_on_c, 1, 57, 80
3, 57760, Note_on_c, 1, 52, 95
3, 57776, Note_on_c, 1, 57, 0
3, 57952, Note_on_c, 1, 57, 95
3, 57992, Note_on_c, 1, 52, 0
3, 58136, Note_on_c, 1, 59, 95
3, 58160, Note_on_c, 1, 57, 0
3, 58536, Note_on_c, 1, 56, 80
3, 58560, Note_on_c, 1, 59, 0
3, 60280, Note_on_c, 1, 56, 0
3, 60852, Note_on_c, 1, 52, 95
3, 61028, Note_on_c, 1, 56, 95
3, 61076, Note_on_c, 1, 52, 0
3, 61232, Note_on_c, 1, 57, 95
3, 61264, Note_on_c, 1, 56, 0
3, 61412, Note_on_c, 1, 59, 59
3, 61464, Note_on_c, 1, 57, 0
3, 63116, Note_on_c, 1, 59, 0
3, 63956, Note_on_c, 1, 56, 80
3, 64108, Note_on_c, 1, 59, 80
3, 64172, Note_on_c, 1, 56, 0
3, 64292, Note_on_c, 1, 64, 80
3, 64336, Note_on_c, 1, 59, 0
3, 64500, Note_on_c, 1, 68, 80
3, 64532, Note_on_c, 1, 64, 0
3, 65064, Note_on_c, 1, 66, 80
3, 65072, Note_on_c, 1, 68, 0
3, 65672, Note_on_c, 1, 64, 80
3, 65716, Note_on_c, 1, 66, 0
3, 68672, Note_on_c, 1, 64, 0
3, 77756, Note_on_c, 1, 52, 75
3, 77940, Note_on_c, 1, 57, 75
3, 77972, Note_on_c, 1, 52, 0
3, 78124, Note_on_c, 1, 62, 75
3, 78132, Note_on_c, 1, 57, 0
3, 78312, Note_on_c, 1, 62, 0
3, 78324, Note_on_c, 1, 61, 75
3, 78884, Note_on_c, 1, 61, 0
3, 78888, Note_on_c, 1, 57, 75
3, 79900, Note_on_c, 1, 57, 0
3, 79900, End_track
4, 0, Start_track
4, 0, MIDI_port, 0
4, 0, Title_t, "Drums"
4, 1536, Note_on_c, 9, 35, 72
4, 1620, Note_on_c, 9, 35, 0
4, 1920, Note_on_c, 9, 38, 72
4, 1968, Note_on_c, 9, 38, 0
4, 2112, Note_on_c, 9, 35, 72
4, 2172, Note_on_c, 9, 35, 0
4, 2688, Note_on_c, 9, 38, 72
4, 2740, Note_on_c, 9, 38, 0
4, 2880, Note_on_c, 9, 35, 57
4, 2940, Note_on_c, 9, 35, 0
4, 3072, Note_on_c, 9, 35, 72
4, 3136, Note_on_c, 9, 35, 0
4, 3456, Note_on_c, 9, 38, 72
4, 3508, Note_on_c, 9, 38, 0
4, 3648, Note_on_c, 9, 35, 72
4, 3712, Note_on_c, 9, 35, 0
4, 4224, Note_on_c, 9, 38, 72
4, 4276, Note_on_c, 9, 38, 0
4, 4416, Note_on_c, 9, 35, 57
4, 4476, Note_on_c, 9, 35, 0
4, 4608, Note_on_c, 9, 35, 72
4, 4660, Note_on_c, 9, 35, 0
4, 4992, Note_on_c, 9, 38, 72
4, 5044, Note_on_c, 9, 38, 0
4, 5184, Note_on_c, 9, 35, 72
4, 5236, Note_on_c, 9, 35, 0
4, 5760, Note_on_c, 9, 38, 72
4, 5800, Note_on_c, 9, 38, 0
4, 5952, Note_on_c, 9, 35, 57
4, 6012, Note_on_c, 9, 35, 0
4, 6144, Note_on_c, 9, 35, 72
4, 6228, Note_on_c, 9, 35, 0
4, 6528, Note_on_c, 9, 38, 72
4, 6576, Note_on_c, 9, 38, 0
4, 6720, Note_on_c, 9, 35, 72
4, 6780, Note_on_c, 9, 35, 0
4, 7296, Note_on_c, 9, 38, 72
4, 7348, Note_on_c, 9, 38, 0
4, 7488, Note_on_c, 9, 35, 57
4, 7548, Note_on_c, 9, 35, 0
4, 7680, Note_on_c, 9, 35, 72
4, 7764, Note_on_c, 9, 35, 0
4, 8064, Note_on_c, 9, 38, 72
4, 8112, Note_on_c, 9, 38, 0
4, 8256, Note_on_c, 9, 35, 72
4, 8316, Note_on_c, 9, 35, 0
4, 8832, Note_on_c, 9, 38, 72
4, 8884, Note_on_c, 9, 38, 0
4, 9024, Note_on_c, 9, 35, 57
4, 9084, Note_on_c, 9, 35, 0
4, 9216, Note_on_c, 9, 35, 72
4, 9280, Note_on_c, 9, 35, 0
4, 9600, Note_on_c, 9, 38, 72
4, 9652, Note_on_c, 9, 38, 0
4, 9792, Note_on_c, 9, 35, 72
4, 9856, Note_on_c, 9, 35, 0
4, 10368, Note_on_c, 9, 38, 72
4, 10420, Note_on_c, 9, 38, 0
4, 10560, Note_on_c, 9, 35, 57
4, 10620, Note_on_c, 9, 35, 0
4, 10752, Note_on_c, 9, 35, 72
4, 10804, Note_on_c, 9, 35, 0
4, 11136, Note_on_c, 9, 38, 72
4, 11188, Note_on_c, 9, 38, 0
4, 11328, Note_on_c, 9, 35, 72
4, 11380, Note_on_c, 9, 35, 0
4, 11904, Note_on_c, 9, 38, 72
4, 11944, Note_on_c, 9, 38, 0
4, 12096, Note_on_c, 9, 35, 62
4, 12156, Note_on_c, 9, 35, 0
4, 12288, Note_on_c, 9, 35, 72
4, 12372, Note_on_c, 9, 35, 0
4, 13344, Note_on_c, 9, 38, 79
4, 13376, Note_on_c, 9, 38, 0
4, 13440, Note_on_c, 9, 38, 79
4, 13492, Note_on_c, 9, 38, 0
4, 13632, Note_on_c, 9, 38, 79
4, 13664, Note_on_c, 9, 38, 0
4, 13824, Note_on_c, 9, 35, 72
4, 13908, Note_on_c, 9, 35, 0
4, 14208, Note_on_c, 9, 38, 72
4, 14256, Note_on_c, 9, 38, 0
4, 14400, Note_on_c, 9, 35, 72
4, 14460, Note_on_c, 9, 35, 0
4, 14976, Note_on_c, 9, 38, 72
4, 15028, Note_on_c, 9, 38, 0
4, 15168, Note_on_c, 9, 35, 57
4, 15228, Note_on_c, 9, 35, 0
4, 15360, Note_on_c, 9, 35, 72
4, 15424, Note_on_c, 9, 35, 0
4, 15744, Note_on_c, 9, 38, 72
4, 15796, Note_on_c, 9, 38, 0
4, 15936, Note_on_c, 9, 35, 72
4, 16000, Note_on_c, 9, 35, 0
4, 16512, Note_on_c, 9, 38, 72
4, 16564, Note_on_c, 9, 38, 0
4, 16704, Note_on_c, 9, 35, 57
4, 16764, Note_on_c, 9, 35, 0
4, 16896, Note_on_c, 9, 35, 72
4, 16980, Note_on_c, 9, 35, 0
4, 17280, Note_on_c, 9, 38, 72
4, 17328, Note_on_c, 9, 38, 0
4, 17472, Note_on_c, 9, 35, 72
4, 17532, Note_on_c, 9, 35, 0
4, 18048, Note_on_c, 9, 38, 72
4, 18100, Note_on_c, 9, 38, 0
4, 18240, Note_on_c, 9, 35, 57
4, 18300, Note_on_c, 9, 35, 0
4, 18432, Note_on_c, 9, 35, 72
4, 18496, Note_on_c, 9, 35, 0
4, 18816, Note_on_c, 9, 38, 72
4, 18868, Note_on_c, 9, 38, 0
4, 19008, Note_on_c, 9, 35, 72
4, 19072, Note_on_c, 9, 35, 0
4, 19584, Note_on_c, 9, 38, 72
4, 19636, Note_on_c, 9, 38, 0
4, 19968, Note_on_c, 9, 35, 72
4, 20052, Note_on_c, 9, 35, 0
4, 20352, Note_on_c, 9, 38, 72
4, 20400, Note_on_c, 9, 38, 0
4, 20544, Note_on_c, 9, 35, 72
4, 20604, Note_on_c, 9, 35, 0
4, 21120, Note_on_c, 9, 38, 72
4, 21172, Note_on_c, 9, 38, 0
4, 21312, Note_on_c, 9, 35, 57
4, 21372, Note_on_c, 9, 35, 0
4, 21504, Note_on_c, 9, 35, 72
4, 21568, Note_on_c, 9, 35, 0
4, 21888, Note_on_c, 9, 38, 72
4, 21940, Note_on_c, 9, 38, 0
4, 22080, Note_on_c, 9, 35, 72
4, 22144, Note_on_c, 9, 35, 0
4, 22656, Note_on_c, 9, 38, 72
4, 22708, Note_on_c, 9, 38, 0
4, 22848, Note_on_c, 9, 35, 57
4, 22908, Note_on_c, 9, 35, 0
4, 23040, Note_on_c, 9, 35, 72
4, 23124, Note_on_c, 9, 35, 0
4, 23424, Note_on_c, 9, 38, 72
4, 23472, Note_on_c, 9, 38, 0
4, 23616, Note_on_c, 9, 35, 72
4, 23676, Note_on_c, 9, 35, 0
4, 24192, Note_on_c, 9, 38, 72
4, 24244, Note_on_c, 9, 38, 0
4, 24384, Note_on_c, 9, 35, 57
4, 24444, Note_on_c, 9, 35, 0
4, 24576, Note_on_c, 9, 35, 72
4, 24640, Note_on_c, 9, 35, 0
4, 24960, Note_on_c, 9, 38, 72
4, 25012, Note_on_c, 9, 38, 0
4, 25152, Note_on_c, 9, 35, 72
4, 25216, Note_on_c, 9, 35, 0
4, 25728, Note_on_c, 9, 38, 72
4, 25780, Note_on_c, 9, 38, 0
4, 26112, Note_on_c, 9, 35, 72
4, 26196, Note_on_c, 9, 35, 0
4, 26496, Note_on_c, 9, 38, 72
4, 26544, Note_on_c, 9, 38, 0
4, 26688, Note_on_c, 9, 35, 72
4, 26748, Note_on_c, 9, 35, 0
4, 27264, Note_on_c, 9, 38, 72
4, 27316, Note_on_c, 9, 38, 0
4, 27456, Note_on_c, 9, 35, 57
4, 27516, Note_on_c, 9, 35, 0
4, 27648, Note_on_c, 9, 35, 72
4, 27712, Note_on_c, 9, 35, 0
4, 28032, Note_on_c, 9, 38, 72
4, 28084, Note_on_c, 9, 38, 0
4, 28224, Note_on_c, 9, 35, 72
4, 28288, Note_on_c, 9, 35, 0
4, 28800, Note_on_c, 9, 38, 72
4, 28852, Note_on_c, 9, 38, 0
4, 28992, Note_on_c, 9, 35, 57
4, 29052, Note_on_c, 9, 35, 0
4, 29184, Note_on_c, 9, 35, 72
4, 29268, Note_on_c, 9, 35, 0
4, 29568, Note_on_c, 9, 38, 72
4, 29616, Note_on_c, 9, 38, 0
4, 29760, Note_on_c, 9, 35, 72
4, 29820, Note_on_c, 9, 35, 0
4, 30336, Note_on_c, 9, 38, 72
4, 30388, Note_on_c, 9, 38, 0
4, 30528, Note_on_c, 9, 35, 57
4, 30588, Note_on_c, 9, 35, 0
4, 30720, Note_on_c, 9, 35, 72
4, 30784, Note_on_c, 9, 35, 0
4, 31104, Note_on_c, 9, 38, 72
4, 31156, Note_on_c, 9, 38, 0
4, 31296, Note_on_c, 9, 35, 72
4, 31360, Note_on_c, 9, 35, 0
4, 31872, Note_on_c, 9, 38, 72
4, 31924, Note_on_c, 9, 38, 0
4, 32256, Note_on_c, 9, 35, 72
4, 32340, Note_on_c, 9, 35, 0
4, 32640, Note_on_c, 9, 38, 72
4, 32688, Note_on_c, 9, 38, 0
4, 32832, Note_on_c, 9, 35, 72
4, 32892, Note_on_c, 9, 35, 0
4, 33408, Note_on_c, 9, 38, 72
4, 33460, Note_on_c, 9, 38, 0
4, 33600, Note_on_c, 9, 35, 57
4, 33660, Note_on_c, 9, 35, 0
4, 33792, Note_on_c, 9, 35, 72
4, 33856, Note_on_c, 9, 35, 0
4, 34176, Note_on_c, 9, 38, 72
4, 34228, Note_on_c, 9, 38, 0
4, 34368, Note_on_c, 9, 35, 72
4, 34432, Note_on_c, 9, 35, 0
4, 34944, Note_on_c, 9, 38, 72
4, 34996, Note_on_c, 9, 38, 0
4, 35136, Note_on_c, 9, 35, 57
4, 35196, Note_on_c, 9, 35, 0
4, 35328, Note_on_c, 9, 35, 72
4, 35412, Note_on_c, 9, 35, 0
4, 35712, Note_on_c, 9, 38, 72
4, 35760, Note_on_c, 9, 38, 0
4, 35904, Note_on_c, 9, 35, 72
4, 35964, Note_on_c, 9, 35, 0
4, 36480, Note_on_c, 9, 38, 72
4, 36532, Note_on_c, 9, 38, 0
4, 36672, Note_on_c, 9, 35, 57
4, 36732, Note_on_c, 9, 35, 0
4, 36864, Note_on_c, 9, 35, 72
4, 36928, Note_on_c, 9, 35, 0
4, 37248, Note_on_c, 9, 38, 72
4, 37300, Note_on_c, 9, 38, 0
4, 37440, Note_on_c, 9, 35, 72
4, 37504, Note_on_c, 9, 35, 0
4, 38016, Note_on_c, 9, 38, 72
4, 38068, Note_on_c, 9, 38, 0
4, 38208, Note_on_c, 9, 35, 57
4, 38268, Note_on_c, 9, 35, 0
4, 38400, Note_on_c, 9, 35, 72
4, 38484, Note_on_c, 9, 35, 0
4, 38976, Note_on_c, 9, 35, 72
4, 39036, Note_on_c, 9, 35, 0
4, 39552, Note_on_c, 9, 38, 72
4, 39604, Note_on_c, 9, 38, 0
4, 39744, Note_on_c, 9, 35, 57
4, 39804, Note_on_c, 9, 35, 0
4, 39936, Note_on_c, 9, 35, 72
4, 40020, Note_on_c, 9, 35, 0
4, 40512, Note_on_c, 9, 35, 72
4, 40572, Note_on_c, 9, 35, 0
4, 41088, Note_on_c, 9, 38, 72
4, 41140, Note_on_c, 9, 38, 0
4, 41280, Note_on_c, 9, 35, 57
4, 41340, Note_on_c, 9, 35, 0
4, 41472, Note_on_c, 9, 35, 72
4, 41556, Note_on_c, 9, 35, 0
4, 42048, Note_on_c, 9, 35, 72
4, 42108, Note_on_c, 9, 35, 0
4, 42624, Note_on_c, 9, 38, 72
4, 42676, Note_on_c, 9, 38, 0
4, 42816, Note_on_c, 9, 35, 57
4, 42876, Note_on_c, 9, 35, 0
4, 43008, Note_on_c, 9, 35, 72
4, 43092, Note_on_c, 9, 35, 0
4, 43584, Note_on_c, 9, 35, 72
4, 43644, Note_on_c, 9, 35, 0
4, 44160, Note_on_c, 9, 38, 72
4, 44212, Note_on_c, 9, 38, 0
4, 44352, Note_on_c, 9, 35, 57
4, 44412, Note_on_c, 9, 35, 0
4, 44544, Note_on_c, 9, 35, 72
4, 44628, Note_on_c, 9, 35, 0
4, 45120, Note_on_c, 9, 35, 72
4, 45180, Note_on_c, 9, 35, 0
4, 45696, Note_on_c, 9, 38, 72
4, 45748, Note_on_c, 9, 38, 0
4, 45888, Note_on_c, 9, 35, 57
4, 45948, Note_on_c, 9, 35, 0
4, 46080, Note_on_c, 9, 35, 72
4, 46164, Note_on_c, 9, 35, 0
4, 46656, Note_on_c, 9, 35, 72
4, 46716, Note_on_c, 9, 35, 0
4, 47232, Note_on_c, 9, 38, 72
4, 47284, Note_on_c, 9, 38, 0
4, 47424, Note_on_c, 9, 35, 57
4, 47484, Note_on_c, 9, 35, 0
4, 47616, Note_on_c, 9, 35, 72
4, 47700, Note_on_c, 9, 35, 0
4, 48192, Note_on_c, 9, 35, 72
4, 48252, Note_on_c, 9, 35, 0
4, 48768, Note_on_c, 9, 38, 72
4, 48820, Note_on_c, 9, 38, 0
4, 48960, Note_on_c, 9, 35, 57
4, 49020, Note_on_c, 9, 35, 0
4, 49152, Note_on_c, 9, 35, 72
4, 49236, Note_on_c, 9, 35, 0
4, 49728, Note_on_c, 9, 35, 72
4, 49788, Note_on_c, 9, 35, 0
4, 50304, Note_on_c, 9, 38, 72
4, 50356, Note_on_c, 9, 38, 0
4, 50496, Note_on_c, 9, 35, 57
4, 50556, Note_on_c, 9, 35, 0
4, 50688, Note_on_c, 9, 35, 72
4, 50772, Note_on_c, 9, 35, 0
4, 51072, Note_on_c, 9, 38, 72
4, 51120, Note_on_c, 9, 38, 0
4, 51264, Note_on_c, 9, 35, 72
4, 51324, Note_on_c, 9, 35, 0
4, 51840, Note_on_c, 9, 38, 72
4, 51892, Note_on_c, 9, 38, 0
4, 52032, Note_on_c, 9, 35, 57
4, 52092, Note_on_c, 9, 35, 0
4, 52224, Note_on_c, 9, 35, 72
4, 52288, Note_on_c, 9, 35, 0
4, 52608, Note_on_c, 9, 38, 72
4, 52660, Note_on_c, 9, 38, 0
4, 52800, Note_on_c, 9, 35, 72
4, 52864, Note_on_c, 9, 35, 0
4, 53376, Note_on_c, 9, 38, 72
4, 53428, Note_on_c, 9, 38, 0
4, 53568, Note_on_c, 9, 35, 57
4, 53628, Note_on_c, 9, 35, 0
4, 53760, Note_on_c, 9, 35, 72
4, 53844, Note_on_c, 9, 35, 0
4, 54144, Note_on_c, 9, 38, 72
4, 54192, Note_on_c, 9, 38, 0
4, 54336, Note_on_c, 9, 35, 72
4, 54396, Note_on_c, 9, 35, 0
4, 54912, Note_on_c, 9, 38, 72
4, 54964, Note_on_c, 9, 38, 0
4, 55104, Note_on_c, 9, 35, 57
4, 55164, Note_on_c, 9, 35, 0
4, 55296, Note_on_c, 9, 35, 72
4, 55360, Note_on_c, 9, 35, 0
4, 55680, Note_on_c, 9, 38, 72
4, 55732, Note_on_c, 9, 38, 0
4, 55872, Note_on_c, 9, 35, 72
4, 55936, Note_on_c, 9, 35, 0
4, 56448, Note_on_c, 9, 38, 72
4, 56500, Note_on_c, 9, 38, 0
4, 56832, Note_on_c, 9, 35, 72
4, 56916, Note_on_c, 9, 35, 0
4, 57216, Note_on_c, 9, 38, 72
4, 57264, Note_on_c, 9, 38, 0
4, 57408, Note_on_c, 9, 35, 72
4, 57468, Note_on_c, 9, 35, 0
4, 57984, Note_on_c, 9, 38, 72
4, 58036, Note_on_c, 9, 38, 0
4, 58176, Note_on_c, 9, 35, 57
4, 58236, Note_on_c, 9, 35, 0
4, 58368, Note_on_c, 9, 35, 72
4, 58432, Note_on_c, 9, 35, 0
4, 58752, Note_on_c, 9, 38, 72
4, 58804, Note_on_c, 9, 38, 0
4, 58944, Note_on_c, 9, 35, 72
4, 59008, Note_on_c, 9, 35, 0
4, 59520, Note_on_c, 9, 38, 72
4, 59572, Note_on_c, 9, 38, 0
4, 59712, Note_on_c, 9, 35, 57
4, 59772, Note_on_c, 9, 35, 0
4, 59904, Note_on_c, 9, 35, 72
4, 59988, Note_on_c, 9, 35, 0
4, 60288, Note_on_c, 9, 38, 72
4, 60336, Note_on_c, 9, 38, 0
4, 60480, Note_on_c, 9, 35, 72
4, 60540, Note_on_c, 9, 35, 0
4, 61056, Note_on_c, 9, 38, 72
4, 61108, Note_on_c, 9, 38, 0
4, 61248, Note_on_c, 9, 35, 57
4, 61308, Note_on_c, 9, 35, 0
4, 61440, Note_on_c, 9, 35, 72
4, 61504, Note_on_c, 9, 35, 0
4, 61824, Note_on_c, 9, 38, 72
4, 61876, Note_on_c, 9, 38, 0
4, 62016, Note_on_c, 9, 35, 72
4, 62080, Note_on_c, 9, 35, 0
4, 62592, Note_on_c, 9, 38, 72
4, 62644, Note_on_c, 9, 38, 0
4, 62976, Note_on_c, 9, 35, 72
4, 63060, Note_on_c, 9, 35, 0
4, 63360, Note_on_c, 9, 38, 72
4, 63408, Note_on_c, 9, 38, 0
4, 63552, Note_on_c, 9, 35, 72
4, 63612, Note_on_c, 9, 35, 0
4, 64128, Note_on_c, 9, 38, 72
4, 64180, Note_on_c, 9, 38, 0
4, 64320, Note_on_c, 9, 35, 57
4, 64380, Note_on_c, 9, 35, 0
4, 64512, Note_on_c, 9, 35, 72
4, 64576, Note_on_c, 9, 35, 0
4, 64896, Note_on_c, 9, 38, 72
4, 64948, Note_on_c, 9, 38, 0
4, 65088, Note_on_c, 9, 35, 72
4, 65152, Note_on_c, 9, 35, 0
4, 65664, Note_on_c, 9, 38, 72
4, 65716, Note_on_c, 9, 38, 0
4, 66048, Note_on_c, 9, 35, 72
4, 66132, Note_on_c, 9, 35, 0
4, 66432, Note_on_c, 9, 38, 72
4, 66480, Note_on_c, 9, 38, 0
4, 66624, Note_on_c, 9, 35, 72
4, 66684, Note_on_c, 9, 35, 0
4, 67200, Note_on_c, 9, 38, 72
4, 67252, Note_on_c, 9, 38, 0
4, 67392, Note_on_c, 9, 35, 57
4, 67452, Note_on_c, 9, 35, 0
4, 67584, Note_on_c, 9, 35, 72
4, 67648, Note_on_c, 9, 35, 0
4, 67968, Note_on_c, 9, 38, 72
4, 68020, Note_on_c, 9, 38, 0
4, 68160, Note_on_c, 9, 35, 72
4, 68224, Note_on_c, 9, 35, 0
4, 68736, Note_on_c, 9, 38, 72
4, 68788, Note_on_c, 9, 38, 0
4, 69120, Note_on_c, 9, 35, 72
4, 69184, Note_on_c, 9, 35, 0
4, 70176, Note_on_c, 9, 38, 79
4, 70208, Note_on_c, 9, 38, 0
4, 70272, Note_on_c, 9, 38, 79
4, 70324, Note_on_c, 9, 38, 0
4, 70464, Note_on_c, 9, 38, 79
4, 70496, Note_on_c, 9, 38, 0
4, 70656, Note_on_c, 9, 35, 72
4, 70740, Note_on_c, 9, 35, 0
4, 71040, Note_on_c, 9, 38, 72
4, 71088, Note_on_c, 9, 38, 0
4, 71232, Note_on_c, 9, 35, 72
4, 71292, Note_on_c, 9, 35, 0
4, 71808, Note_on_c, 9, 38, 72
4, 71860, Note_on_c, 9, 38, 0
4, 72000, Note_on_c, 9, 35, 57
4, 72060, Note_on_c, 9, 35, 0
4, 72192, Note_on_c, 9, 35, 72
4, 72256, Note_on_c, 9, 35, 0
4, 72576, Note_on_c, 9, 38, 72
4, 72628, Note_on_c, 9, 38, 0
4, 72768, Note_on_c, 9, 35, 72
4, 72832, Note_on_c, 9, 35, 0
4, 73344, Note_on_c, 9, 38, 72
4, 73396, Note_on_c, 9, 38, 0
4, 73536, Note_on_c, 9, 35, 57
4, 73596, Note_on_c, 9, 35, 0
4, 73728, Note_on_c, 9, 35, 72
4, 73812, Note_on_c, 9, 35, 0
4, 74112, Note_on_c, 9, 38, 72
4, 74160, Note_on_c, 9, 38, 0
4, 74304, Note_on_c, 9, 35, 72
4, 74364, Note_on_c, 9, 35, 0
4, 74880, Note_on_c, 9, 38, 72
4, 74932, Note_on_c, 9, 38, 0
4, 75072, Note_on_c, 9, 35, 57
4, 75132, Note_on_c, 9, 35, 0
4, 75264, Note_on_c, 9, 35, 72
4, 75328, Note_on_c, 9, 35, 0
4, 75648, Note_on_c, 9, 38, 72
4, 75700, Note_on_c, 9, 38, 0
4, 75840, Note_on_c, 9, 35, 72
4, 75904, Note_on_c, 9, 35, 0
4, 76416, Note_on_c, 9, 38, 72
4, 76468, Note_on_c, 9, 38, 0
4, 76800, Note_on_c, 9, 35, 72
4, 76884, Note_on_c, 9, 35, 0
4, 77184, Note_on_c, 9, 38, 72
4, 77232, Note_on_c, 9, 38, 0
4, 77376, Note_on_c, 9, 35, 72
4, 77436, Note_on_c, 9, 35, 0
4, 77952, Note_on_c, 9, 38, 72
4, 78004, Note_on_c, 9, 38, 0
4, 78144, Note_on_c, 9, 35, 57
4, 78204, Note_on_c, 9, 35, 0
4, 78336, Note_on_c, 9, 35, 72
4, 78400, Note_on_c, 9, 35, 0
4, 78720, Note_on_c, 9, 38, 72
4, 78772, Note_on_c, 9, 38, 0
4, 78912, Note_on_c, 9, 35, 72
4, 78976, Note_on_c, 9, 35, 0
4, 79488, Note_on_c, 9, 38, 72
4, 79540, Note_on_c, 9, 38, 0
4, 79680, Note_on_c, 9, 35, 57
4, 79740, Note_on_c, 9, 35, 0
4, 79872, Note_on_c, 9, 35, 72
4, 79956, Note_on_c, 9, 35, 0
4, 80256, Note_on_c, 9, 38, 72
4, 80304, Note_on_c, 9, 38, 0
4, 80448, Note_on_c, 9, 35, 72
4, 80508, Note_on_c, 9, 35, 0
4, 81024, Note_on_c, 9, 38, 72
4, 81076, Note_on_c, 9, 38, 0
4, 81216, Note_on_c, 9, 35, 57
4, 81276, Note_on_c, 9, 35, 0
4, 81408, Note_on_c, 9, 35, 72
4, 81472, Note_on_c, 9, 35, 0
4, 81792, Note_on_c, 9, 38, 72
4, 81844, Note_on_c, 9, 38, 0
4, 81984, Note_on_c, 9, 35, 72
4, 82048, Note_on_c, 9, 35, 0
4, 82560, Note_on_c, 9, 38, 72
4, 82612, Note_on_c, 9, 38, 0
4, 82944, Note_on_c, 9, 35, 72
4, 83028, Note_on_c, 9, 35, 0
4, 83328, Note_on_c, 9, 38, 72
4, 83376, Note_on_c, 9, 38, 0
4, 83520, Note_on_c, 9, 35, 72
4, 83580, Note_on_c, 9, 35, 0
4, 84096, Note_on_c, 9, 38, 72
4, 84148, Note_on_c, 9, 38, 0
4, 84288, Note_on_c, 9, 35, 57
4, 84348, Note_on_c, 9, 35, 0
4, 84480, Note_on_c, 9, 35, 72
4, 84544, Note_on_c, 9, 35, 0
4, 84864, Note_on_c, 9, 38, 72
4, 84916, Note_on_c, 9, 38, 0
4, 85056, Note_on_c, 9, 35, 72
4, 85120, Note_on_c, 9, 35, 0
4, 85632, Note_on_c, 9, 38, 72
4, 85684, Note_on_c, 9, 38, 0
4, 85824, Note_on_c, 9, 35, 57
4, 85884, Note_on_c, 9, 35, 0
4, 86016, Note_on_c, 9, 35, 72
4, 86100, Note_on_c, 9, 35, 0
4, 86400, Note_on_c, 9, 38, 72
4, 86448, Note_on_c, 9, 38, 0
4, 86592, Note_on_c, 9, 35, 72
4, 86652, Note_on_c, 9, 35, 0
4, 87168, Note_on_c, 9, 38, 72
4, 87220, Note_on_c, 9, 38, 0
4, 87360, Note_on_c, 9, 35, 57
4, 87420, Note_on_c, 9, 35, 0
4, 87552, Note_on_c, 9, 35, 72
4, 87616, Note_on_c, 9, 35, 0
4, 87936, Note_on_c, 9, 38, 72
4, 87988, Note_on_c, 9, 38, 0
4, 88128, Note_on_c, 9, 35, 72
4, 88192, Note_on_c, 9, 35, 0
4, 88704, Note_on_c, 9, 38, 72
4, 88756, Note_on_c, 9, 38, 0
4, 89088, Note_on_c, 9, 35, 72
4, 89172, Note_on_c, 9, 35, 0
4, 89472, Note_on_c, 9, 38, 72
4, 89520, Note_on_c, 9, 38, 0
4, 89664, Note_on_c, 9, 35, 72
4, 89724, Note_on_c, 9, 35, 0
4, 90240, Note_on_c, 9, 38, 72
4, 90292, Note_on_c, 9, 38, 0
4, 90432, Note_on_c, 9, 35, 57
4, 90492, Note_on_c, 9, 35, 0
4, 90624, Note_on_c, 9, 35, 72
4, 90688, Note_on_c, 9, 35, 0
4, 91008, Note_on_c, 9, 38, 72
4, 91060, Note_on_c, 9, 38, 0
4, 91200, Note_on_c, 9, 35, 72
4, 91264, Note_on_c, 9, 35, 0
4, 91776, Note_on_c, 9, 38, 72
4, 91828, Note_on_c, 9, 38, 0
4, 91968, Note_on_c, 9, 35, 57
4, 92028, Note_on_c, 9, 35, 0
4, 92160, Note_on_c, 9, 35, 72
4, 92244, Note_on_c, 9, 35, 0
4, 92544, Note_on_c, 9, 38, 72
4, 92592, Note_on_c, 9, 38, 0
4, 92736, Note_on_c, 9, 35, 72
4, 92796, Note_on_c, 9, 35, 0
4, 93312, Note_on_c, 9, 38, 72
4, 93364, Note_on_c, 9, 38, 0
4, 93504, Note_on_c, 9, 35, 57
4, 93564, Note_on_c, 9, 35, 0
4, 93696, Note_on_c, 9, 35, 72
4, 93760, Note_on_c, 9, 35, 0
4, 94080, Note_on_c, 9, 38, 72
4, 94132, Note_on_c, 9, 38, 0
4, 94272, Note_on_c, 9, 35, 72
4, 94336, Note_on_c, 9, 35, 0
4, 94848, Note_on_c, 9, 38, 72
4, 94900, Note_on_c, 9, 38, 0
4, 95232, Note_on_c, 9, 35, 72
4, 95316, Note_on_c, 9, 35, 0
4, 95616, Note_on_c, 9, 38, 72
4, 95664, Note_on_c, 9, 38, 0
4, 95808, Note_on_c, 9, 35, 72
4, 95868, Note_on_c, 9, 35, 0
4, 96384, Note_on_c, 9, 38, 72
4, 96436, Note_on_c, 9, 38, 0
4, 96576, Note_on_c, 9, 35, 57
4, 96636, Note_on_c, 9, 35, 0
4, 96768, Note_on_c, 9, 35, 72
4, 96832, Note_on_c, 9, 35, 0
4, 97152, Note_on_c, 9, 38, 72
4, 97204, Note_on_c, 9, 38, 0
4, 97344, Note_on_c, 9, 35, 72
4, 97408, Note_on_c, 9, 35, 0
4, 97920, Note_on_c, 9, 38, 72
4, 97972, Note_on_c, 9, 38, 0
4, 98112, Note_on_c, 9, 35, 57
4, 98172, Note_on_c, 9, 35, 0
4, 98304, Note_on_c, 9, 35, 72
4, 98388, Note_on_c, 9, 35, 0
4, 98688, Note_on_c, 9, 38, 72
4, 98736, Note_on_c, 9, 38, 0
4, 98880, Note_on_c, 9, 35, 72
4, 98940, Note_on_c, 9, 35, 0
4, 99456, Note_on_c, 9, 38, 72
4, 99508, Note_on_c, 9, 38, 0
4, 99648, Note_on_c, 9, 35, 57
4, 99708, Note_on_c, 9, 35, 0
4, 99840, Note_on_c, 9, 35, 72
4, 99904, Note_on_c, 9, 35, 0
4, 100224, Note_on_c, 9, 38, 72
4, 100276, Note_on_c, 9, 38, 0
4, 100416, Note_on_c, 9, 35, 72
4, 100480, Note_on_c, 9, 35, 0
4, 100992, Note_on_c, 9, 38, 72
4, 101044, Note_on_c, 9, 38, 0
4, 101376, Note_on_c, 9, 35, 72
4, 101460, Note_on_c, 9, 35, 0
4, 101760, Note_on_c, 9, 38, 72
4, 101808, Note_on_c, 9, 38, 0
4, 101952, Note_on_c, 9, 35, 72
4, 102012, Note_on_c, 9, 35, 0
4, 102528, Note_on_c, 9, 38, 72
4, 102580, Note_on_c, 9, 38, 0
4, 102720, Note_on_c, 9, 35, 57
4, 102780, Note_on_c, 9, 35, 0
4, 102912, Note_on_c, 9, 35, 72
4, 102976, Note_on_c, 9, 35, 0
4, 103296, Note_on_c, 9, 38, 72
4, 103348, Note_on_c, 9, 38, 0
4, 103488, Note_on_c, 9, 35, 72
4, 103552, Note_on_c, 9, 35, 0
4, 104064, Note_on_c, 9, 38, 72
4, 104116, Note_on_c, 9, 38, 0
4, 104256, Note_on_c, 9, 35, 57
4, 104316, Note_on_c, 9, 35, 0
4, 104448, Note_on_c, 9, 35, 72
4, 104532, Note_on_c, 9, 35, 0
4, 104832, Note_on_c, 9, 38, 72
4, 104880, Note_on_c, 9, 38, 0
4, 105024, Note_on_c, 9, 35, 72
4, 105084, Note_on_c, 9, 35, 0
4, 105600, Note_on_c, 9, 38, 72
4, 105652, Note_on_c, 9, 38, 0
4, 105792, Note_on_c, 9, 35, 57
4, 105852, Note_on_c, 9, 35, 0
4, 105984, Note_on_c, 9, 35, 72
4, 106048, Note_on_c, 9, 35, 0
4, 106368, Note_on_c, 9, 38, 72
4, 106420, Note_on_c, 9, 38, 0
4, 106560, Note_on_c, 9, 35, 72
4, 106624, Note_on_c, 9, 35, 0
4, 107136, Note_on_c, 9, 38, 72
4, 107188, Note_on_c, 9, 38, 0
4, 107520, Note_on_c, 9, 35, 72
4, 107604, Note_on_c, 9, 35, 0
4, 107904, Note_on_c, 9, 38, 72
4, 107952, Note_on_c, 9, 38, 0
4, 108096, Note_on_c, 9, 35, 72
4, 108156, Note_on_c, 9, 35, 0
4, 108672, Note_on_c, 9, 38, 72
4, 108724, Note_on_c, 9, 38, 0
4, 108864, Note_on_c, 9, 35, 57
4, 108924, Note_on_c, 9, 35, 0
4, 109056, Note_on_c, 9, 35, 72
4, 109120, Note_on_c, 9, 35, 0
4, 109440, Note_on_c, 9, 38, 72
4, 109492, Note_on_c, 9, 38, 0
4, 109632, Note_on_c, 9, 35, 72
4, 109696, Note_on_c, 9, 35, 0
4, 110208, Note_on_c, 9, 38, 72
4, 110260, Note_on_c, 9, 38, 0
4, 110400, Note_on_c, 9, 35, 57
4, 110460, Note_on_c, 9, 35, 0
4, 110592, Note_on_c, 9, 35, 72
4, 110676, Note_on_c, 9, 35, 0
4, 110976, Note_on_c, 9, 38, 72
4, 111024, Note_on_c, 9, 38, 0
4, 111168, Note_on_c, 9, 35, 72
4, 111228, Note_on_c, 9, 35, 0
4, 111744, Note_on_c, 9, 38, 72
4, 111796, Note_on_c, 9, 38, 0
4, 111936, Note_on_c, 9, 35, 57
4, 111996, Note_on_c, 9, 35, 0
4, 112128, Note_on_c, 9, 35, 72
4, 112192, Note_on_c, 9, 35, 0
4, 112512, Note_on_c, 9, 38, 72
4, 112564, Note_on_c, 9, 38, 0
4, 112704, Note_on_c, 9, 35, 72
4, 112768, Note_on_c, 9, 35, 0
4, 113280, Note_on_c, 9, 38, 72
4, 113332, Note_on_c, 9, 38, 0
4, 113332, End_track
5, 0, Start_track
5, 0, MIDI_port, 0
5, 0, Title_t, "Guitar2"
5, 0, Control_c, 2, 0, 0
5, 0, Control_c, 2, 32, 0
5, 0, Program_c, 2, 25
5, 1536, Note_on_c, 2, 52, 47
5, 1540, Note_on_c, 2, 59, 47
5, 1544, Note_on_c, 2, 64, 47
5, 1552, Note_on_c, 2, 68, 47
5, 1556, Note_on_c, 2, 71, 47
5, 2048, Note_on_c, 2, 52, 0
5, 2052, Note_on_c, 2, 59, 0
5, 2056, Note_on_c, 2, 64, 0
5, 2064, Note_on_c, 2, 68, 0
5, 2068, Note_on_c, 2, 71, 0
5, 2112, Note_on_c, 2, 71, 36
5, 2116, Note_on_c, 2, 68, 36
5, 2120, Note_on_c, 2, 64, 36
5, 2124, Note_on_c, 2, 59, 36
5, 2128, Note_on_c, 2, 52, 36
5, 2368, Note_on_c, 2, 71, 0
5, 2372, Note_on_c, 2, 68, 0
5, 2376, Note_on_c, 2, 64, 0
5, 2380, Note_on_c, 2, 59, 0
5, 2384, Note_on_c, 2, 52, 0
5, 2496, Note_on_c, 2, 71, 36
5, 2500, Note_on_c, 2, 68, 36
5, 2504, Note_on_c, 2, 64, 36
5, 2508, Note_on_c, 2, 59, 36
5, 2512, Note_on_c, 2, 52, 36
5, 2752, Note_on_c, 2, 71, 0
5, 2756, Note_on_c, 2, 68, 0
5, 2760, Note_on_c, 2, 64, 0
5, 2764, Note_on_c, 2, 59, 0
5, 2768, Note_on_c, 2, 52, 0
5, 2880, Note_on_c, 2, 71, 28
5, 2892, Note_on_c, 2, 68, 28
5, 2904, Note_on_c, 2, 64, 28
5, 2916, Note_on_c, 2, 59, 28
5, 2928, Note_on_c, 2, 52, 28
5, 3008, Note_on_c, 2, 71, 0
5, 3020, Note_on_c, 2, 68, 0
5, 3032, Note_on_c, 2, 64, 0
5, 3044, Note_on_c, 2, 59, 0
5, 3056, Note_on_c, 2, 52, 0
5, 3072, Note_on_c, 2, 52, 42
5, 3076, Note_on_c, 2, 59, 42
5, 3080, Note_on_c, 2, 64, 42
5, 3088, Note_on_c, 2, 68, 42
5, 3092, Note_on_c, 2, 71, 42
5, 3584, Note_on_c, 2, 52, 0
5, 3588, Note_on_c, 2, 59, 0
5, 3592, Note_on_c, 2, 64, 0
5, 3600, Note_on_c, 2, 68, 0
5, 3604, Note_on_c, 2, 71, 0
5, 3648, Note_on_c, 2, 71, 36
5, 3652, Note_on_c, 2, 68, 36
5, 3656, Note_on_c, 2, 64, 36
5, 3660, Note_on_c, 2, 59, 36
5, 3664, Note_on_c, 2, 52, 36
5, 3904, Note_on_c, 2, 71, 0
5, 3908, Note_on_c, 2, 68, 0
5, 3912, Note_on_c, 2, 64, 0
5, 3916, Note_on_c, 2, 59, 0
5, 3920, Note_on_c, 2, 52, 0
5, 4032, Note_on_c, 2, 71, 36
5, 4036, Note_on_c, 2, 68, 36
5, 4040, Note_on_c, 2, 64, 36
5, 4044, Note_on_c, 2, 59, 36
5, 4048, Note_on_c, 2, 52, 36
5, 4288, Note_on_c, 2, 71, 0
5, 4292, Note_on_c, 2, 68, 0
5, 4296, Note_on_c, 2, 64, 0
5, 4300, Note_on_c, 2, 59, 0
5, 4304, Note_on_c, 2, 52, 0
5, 4416, Note_on_c, 2, 71, 28
5, 4428, Note_on_c, 2, 68, 28
5, 4440, Note_on_c, 2, 64, 28
5, 4452, Note_on_c, 2, 59, 28
5, 4464, Note_on_c, 2, 52, 28
5, 4544, Note_on_c, 2, 71, 0
5, 4556, Note_on_c, 2, 68, 0
5, 4568, Note_on_c, 2, 64, 0
5, 4580, Note_on_c, 2, 59, 0
5, 4592, Note_on_c, 2, 52, 0
5, 4608, Note_on_c, 2, 52, 47
5, 4612, Note_on_c, 2, 59, 47
5, 4616, Note_on_c, 2, 64, 47
5, 4624, Note_on_c, 2, 68, 47
5, 4628, Note_on_c, 2, 71, 47
5, 5120, Note_on_c, 2, 52, 0
5, 5124, Note_on_c, 2, 59, 0
5, 5128, Note_on_c, 2, 64, 0
5, 5136, Note_on_c, 2, 68, 0
5, 5140, Note_on_c, 2, 71, 0
5, 5184, Note_on_c, 2, 71, 36
5, 5188, Note_on_c, 2, 68, 36
5, 5192, Note_on_c, 2, 64, 36
5, 5196, Note_on_c, 2, 59, 36
5, 5200, Note_on_c, 2, 52, 36
5, 5440, Note_on_c, 2, 71, 0
5, 5444, Note_on_c, 2, 68, 0
5, 5448, Note_on_c, 2, 64, 0
5, 5452, Note_on_c, 2, 59, 0
5, 5456, Note_on_c, 2, 52, 0
5, 5568, Note_on_c, 2, 71, 36
5, 5572, Note_on_c, 2, 68, 36
5, 5576, Note_on_c, 2, 64, 36
5, 5580, Note_on_c, 2, 59, 36
5, 5584, Note_on_c, 2, 52, 36
5, 5824, Note_on_c, 2, 71, 0
5, 5828, Note_on_c, 2, 68, 0
5, 5832, Note_on_c, 2, 64, 0
5, 5836, Note_on_c, 2, 59, 0
5, 5840, Note_on_c, 2, 52, 0
5, 5952, Note_on_c, 2, 71, 28
5, 5964, Note_on_c, 2, 68, 28
5, 5976, Note_on_c, 2, 64, 28
5, 5988, Note_on_c, 2, 59, 28
5, 6000, Note_on_c, 2, 52, 28
5, 6080, Note_on_c, 2, 71, 0
5, 6092, Note_on_c, 2, 68, 0
5, 6104, Note_on_c, 2, 64, 0
5, 6116, Note_on_c, 2, 59, 0
5, 6128, Note_on_c, 2, 52, 0
5, 6144, Note_on_c, 2, 52, 42
5, 6148, Note_on_c, 2, 59, 42
5, 6152, Note_on_c, 2, 64, 42
5, 6160, Note_on_c, 2, 68, 42
5, 6164, Note_on_c, 2, 71, 42
5, 6656, Note_on_c, 2, 52, 0
5, 6660, Note_on_c, 2, 59, 0
5, 6664, Note_on_c, 2, 64, 0
5, 6672, Note_on_c, 2, 68, 0
5, 6676, Note_on_c, 2, 71, 0
5, 6720, Note_on_c, 2, 71, 36
5, 6724, Note_on_c, 2, 68, 36
5, 6728, Note_on_c, 2, 64, 36
5, 6732, Note_on_c, 2, 59, 36
5, 6736, Note_on_c, 2, 52, 36
5, 6976, Note_on_c, 2, 71, 0
5, 6980, Note_on_c, 2, 68, 0
5, 6984, Note_on_c, 2, 64, 0
5, 6988, Note_on_c, 2, 59, 0
5, 6992, Note_on_c, 2, 52, 0
5, 7104, Note_on_c, 2, 71, 36
5, 7108, Note_on_c, 2, 68, 36
5, 7112, Note_on_c, 2, 64, 36
5, 7116, Note_on_c, 2, 59, 36
5, 7120, Note_on_c, 2, 52, 36
5, 7360, Note_on_c, 2, 71, 0
5, 7364, Note_on_c, 2, 68, 0
5, 7368, Note_on_c, 2, 64, 0
5, 7372, Note_on_c, 2, 59, 0
5, 7376, Note_on_c, 2, 52, 0
5, 7488, Note_on_c, 2, 71, 28
5, 7500, Note_on_c, 2, 68, 28
5, 7512, Note_on_c, 2, 64, 28
5, 7524, Note_on_c, 2, 59, 28
5, 7536, Note_on_c, 2, 52, 28
5, 7616, Note_on_c, 2, 71, 0
5, 7628, Note_on_c, 2, 68, 0
5, 7640, Note_on_c, 2, 64, 0
5, 7652, Note_on_c, 2, 59, 0
5, 7664, Note_on_c, 2, 52, 0
5, 7680, Note_on_c, 2, 52, 47
5, 7684, Note_on_c, 2, 59, 47
5, 7688, Note_on_c, 2, 64, 47
5, 7696, Note_on_c, 2, 68, 47
5, 7700, Note_on_c, 2, 71, 47
5, 8192, Note_on_c, 2, 52, 0
5, 8196, Note_on_c, 2, 59, 0
5, 8200, Note_on_c, 2, 64, 0
5, 8208, Note_on_c, 2, 68, 0
5, 8212, Note_on_c, 2, 71, 0
5, 8256, Note_on_c, 2, 71, 36
5, 8260, Note_on_c, 2, 68, 36
5, 8264, Note_on_c, 2, 64, 36
5, 8268, Note_on_c, 2, 59, 36
5, 8272, Note_on_c, 2, 52, 36
5, 8512, Note_on_c, 2, 71, 0
5, 8516, Note_on_c, 2, 68, 0
5, 8520, Note_on_c, 2, 64, 0
5, 8524, Note_on_c, 2, 59, 0
5, 8528, Note_on_c, 2, 52, 0
5, 8640, Note_on_c, 2, 71, 36
5, 8644, Note_on_c, 2, 68, 36
5, 8648, Note_on_c, 2, 64, 36
5, 8652, Note_on_c, 2, 59, 36
5, 8656, Note_on_c, 2, 52, 36
5, 8896, Note_on_c, 2, 71, 0
5, 8900, Note_on_c, 2, 68, 0
5, 8904, Note_on_c, 2, 64, 0
5, 8908, Note_on_c, 2, 59, 0
5, 8912, Note_on_c, 2, 52, 0
5, 9024, Note_on_c, 2, 71, 28
5, 9036, Note_on_c, 2, 68, 28
5, 9048, Note_on_c, 2, 64, 28
5, 9060, Note_on_c, 2, 59, 28
5, 9072, Note_on_c, 2, 52, 28
5, 9152, Note_on_c, 2, 71, 0
5, 9164, Note_on_c, 2, 68, 0
5, 9176, Note_on_c, 2, 64, 0
5, 9188, Note_on_c, 2, 59, 0
5, 9200, Note_on_c, 2, 52, 0
5, 9216, Note_on_c, 2, 52, 42
5, 9220, Note_on_c, 2, 59, 42
5, 9224, Note_on_c, 2, 64, 42
5, 9232, Note_on_c, 2, 68, 42
5, 9236, Note_on_c, 2, 71, 42
5, 9728, Note_on_c, 2, 52, 0
5, 9732, Note_on_c, 2, 59, 0
5, 9736, Note_on_c, 2, 64, 0
5, 9744, Note_on_c, 2, 68, 0
5, 9748, Note_on_c, 2, 71, 0
5, 9792, Note_on_c, 2, 71, 36
5, 9796, Note_on_c, 2, 68, 36
5, 9800, Note_on_c, 2, 64, 36
5, 9804, Note_on_c, 2, 59, 36
5, 9808, Note_on_c, 2, 52, 36
5, 10048, Note_on_c, 2, 71, 0
5, 10052, Note_on_c, 2, 68, 0
5, 10056, Note_on_c, 2, 64, 0
5, 10060, Note_on_c, 2, 59, 0
5, 10064, Note_on_c, 2, 52, 0
5, 10176, Note_on_c, 2, 71, 36
5, 10180, Note_on_c, 2, 68, 36
5, 10184, Note_on_c, 2, 64, 36
5, 10188, Note_on_c, 2, 59, 36
5, 10192, Note_on_c, 2, 52, 36
5, 10432, Note_on_c, 2, 71, 0
5, 10436, Note_on_c, 2, 68, 0
5, 10440, Note_on_c, 2, 64, 0
5, 10444, Note_on_c, 2, 59, 0
5, 10448, Note_on_c, 2, 52, 0
5, 10560, Note_on_c, 2, 71, 28
5, 10572, Note_on_c, 2, 68, 28
5, 10584, Note_on_c, 2, 64, 28
5, 10596, Note_on_c, 2, 59, 28
5, 10608, Note_on_c, 2, 52, 28
5, 10688, Note_on_c, 2, 71, 0
5, 10700, Note_on_c, 2, 68, 0
5, 10712, Note_on_c, 2, 64, 0
5, 10724, Note_on_c, 2, 59, 0
5, 10736, Note_on_c, 2, 52, 0
5, 10752, Note_on_c, 2, 52, 47
5, 10756, Note_on_c, 2, 59, 47
5, 10760, Note_on_c, 2, 64, 47
5, 10768, Note_on_c, 2, 68, 47
5, 10772, Note_on_c, 2, 71, 47
5, 11264, Note_on_c, 2, 52, 0
5, 11268, Note_on_c, 2, 59, 0
5, 11272, Note_on_c, 2, 64, 0
5, 11280, Note_on_c, 2, 68, 0
5, 11284, Note_on_c, 2, 71, 0
5, 11328, Note_on_c, 2, 71, 36
5, 11332, Note_on_c, 2, 68, 36
5, 11336, Note_on_c, 2, 64, 36
5, 11340, Note_on_c, 2, 59, 36
5, 11344, Note_on_c, 2, 52, 36
5, 11584, Note_on_c, 2, 71, 0
5, 11588, Note_on_c, 2, 68, 0
5, 11592, Note_on_c, 2, 64, 0
5, 11596, Note_on_c, 2, 59, 0
5, 11600, Note_on_c, 2, 52, 0
5, 11712, Note_on_c, 2, 71, 36
5, 11716, Note_on_c, 2, 68, 36
5, 11720, Note_on_c, 2, 64, 36
5, 11724, Note_on_c, 2, 59, 36
5, 11728, Note_on_c, 2, 52, 36
5, 11968, Note_on_c, 2, 71, 0
5, 11972, Note_on_c, 2, 68, 0
5, 11976, Note_on_c, 2, 64, 0
5, 11980, Note_on_c, 2, 59, 0
5, 11984, Note_on_c, 2, 52, 0
5, 12096, Note_on_c, 2, 71, 28
5, 12108, Note_on_c, 2, 68, 28
5, 12120, Note_on_c, 2, 64, 28
5, 12132, Note_on_c, 2, 59, 28
5, 12144, Note_on_c, 2, 52, 28
5, 12224, Note_on_c, 2, 71, 0
5, 12236, Note_on_c, 2, 68, 0
5, 12248, Note_on_c, 2, 64, 0
5, 12260, Note_on_c, 2, 59, 0
5, 12272, Note_on_c, 2, 52, 0
5, 12288, Note_on_c, 2, 52, 42
5, 12292, Note_on_c, 2, 59, 42
5, 12296, Note_on_c, 2, 64, 42
5, 12304, Note_on_c, 2, 68, 42
5, 12308, Note_on_c, 2, 71, 42
5, 12800, Note_on_c, 2, 52, 0
5, 12804, Note_on_c, 2, 59, 0
5, 12808, Note_on_c, 2, 64, 0
5, 12816, Note_on_c, 2, 68, 0
5, 12820, Note_on_c, 2, 71, 0
5, 13800, Note_on_c, 2, 45, 47
5, 13816, Note_on_c, 2, 52, 47
5, 13824, Note_on_c, 2, 57, 47
5, 13844, Note_on_c, 2, 61, 47
5, 13864, Note_on_c, 2, 64, 47
5, 14312, Note_on_c, 2, 45, 0
5, 14328, Note_on_c, 2, 52, 0
5, 14336, Note_on_c, 2, 57, 0
5, 14356, Note_on_c, 2, 61, 0
5, 14376, Note_on_c, 2, 64, 0
5, 14400, Note_on_c, 2, 64, 36
5, 14408, Note_on_c, 2, 61, 36
5, 14416, Note_on_c, 2, 57, 36
5, 14424, Note_on_c, 2, 52, 36
5, 14432, Note_on_c, 2, 45, 36
5, 14656, Note_on_c, 2, 64, 0
5, 14664, Note_on_c, 2, 61, 0
5, 14672, Note_on_c, 2, 57, 0
5, 14680, Note_on_c, 2, 52, 0
5, 14688, Note_on_c, 2, 45, 0
5, 14784, Note_on_c, 2, 64, 36
5, 14788, Note_on_c, 2, 61, 36
5, 14792, Note_on_c, 2, 57, 36
5, 14796, Note_on_c, 2, 52, 36
5, 14800, Note_on_c, 2, 45, 36
5, 15040, Note_on_c, 2, 64, 0
5, 15044, Note_on_c, 2, 61, 0
5, 15048, Note_on_c, 2, 57, 0
5, 15052, Note_on_c, 2, 52, 0
5, 15056, Note_on_c, 2, 45, 0
5, 15168, Note_on_c, 2, 64, 28
5, 15180, Note_on_c, 2, 61, 28
5, 15192, Note_on_c, 2, 57, 28
5, 15204, Note_on_c, 2, 52, 28
5, 15216, Note_on_c, 2, 45, 28
5, 15296, Note_on_c, 2, 64, 0
5, 15308, Note_on_c, 2, 61, 0
5, 15320, Note_on_c, 2, 57, 0
5, 15332, Note_on_c, 2, 52, 0
5, 15344, Note_on_c, 2, 45, 0
5, 15360, Note_on_c, 2, 50, 47
5, 15364, Note_on_c, 2, 57, 47
5, 15368, Note_on_c, 2, 62, 47
5, 15376, Note_on_c, 2, 66, 47
5, 15380, Note_on_c, 2, 69, 47
5, 15872, Note_on_c, 2, 50, 0
5, 15876, Note_on_c, 2, 57, 0
5, 15880, Note_on_c, 2, 62, 0
5, 15888, Note_on_c, 2, 66, 0
5, 15892, Note_on_c, 2, 69, 0
5, 15936, Note_on_c, 2, 69, 36
5, 15940, Note_on_c, 2, 66, 36
5, 15944, Note_on_c, 2, 62, 36
5, 15948, Note_on_c, 2, 57, 36
5, 15952, Note_on_c, 2, 50, 36
5, 16192, Note_on_c, 2, 69, 0
5, 16196, Note_on_c, 2, 66, 0
5, 16200, Note_on_c, 2, 62, 0
5, 16204, Note_on_c, 2, 57, 0
5, 16208, Note_on_c, 2, 50, 0
5, 16320, Note_on_c, 2, 69, 36
5, 16324, Note_on_c, 2, 66, 36
5, 16328, Note_on_c, 2, 62, 36
5, 16332, Note_on_c, 2, 57, 36
5, 16336, Note_on_c, 2, 50, 36
5, 16576, Note_on_c, 2, 69, 0
5, 16580, Note_on_c, 2, 66, 0
5, 16584, Note_on_c, 2, 62, 0
5, 16588, Note_on_c, 2, 57, 0
5, 16592, Note_on_c, 2, 50, 0
5, 16704, Note_on_c, 2, 69, 28
5, 16716, Note_on_c, 2, 66, 28
5, 16728, Note_on_c, 2, 62, 28
5, 16740, Note_on_c, 2, 57, 28
5, 16752, Note_on_c, 2, 50, 28
5, 16832, Note_on_c, 2, 69, 0
5, 16844, Note_on_c, 2, 66, 0
5, 16856, Note_on_c, 2, 62, 0
5, 16868, Note_on_c, 2, 57, 0
5, 16872, Note_on_c, 2, 45, 47
5, 16880, Note_on_c, 2, 50, 0
5, 16888, Note_on_c, 2, 52, 47
5, 16896, Note_on_c, 2, 57, 47
5, 16916, Note_on_c, 2, 61, 47
5, 16936, Note_on_c, 2, 64, 47
5, 17384, Note_on_c, 2, 45, 0
5, 17400, Note_on_c, 2, 52, 0
5, 17408, Note_on_c, 2, 57, 0
5, 17428, Note_on_c, 2, 61, 0
5, 17448, Note_on_c, 2, 64, 0
5, 17472, Note_on_c, 2, 64, 36
5, 17480, Note_on_c, 2, 61, 36
5, 17488, Note_on_c, 2, 57, 36
5, 17496, Note_on_c, 2, 52, 36
5, 17504, Note_on_c, 2, 45, 36
5, 17728, Note_on_c, 2, 64, 0
5, 17736, Note_on_c, 2, 61, 0
5, 17744, Note_on_c, 2, 57, 0
5, 17752, Note_on_c, 2, 52, 0
5, 17760, Note_on_c, 2, 45, 0
5, 17856, Note_on_c, 2, 64, 36
5, 17860, Note_on_c, 2, 61, 36
5, 17864, Note_on_c, 2, 57, 36
5, 17868, Note_on_c, 2, 52, 36
5, 17872, Note_on_c, 2, 45, 36
5, 18112, Note_on_c, 2, 64, 0
5, 18116, Note_on_c, 2, 61, 0
5, 18120, Note_on_c, 2, 57, 0
5, 18124, Note_on_c, 2, 52, 0
5, 18128, Note_on_c, 2, 45, 0
5, 18240, Note_on_c, 2, 64, 28
5, 18252, Note_on_c, 2, 61, 28
5, 18264, Note_on_c, 2, 57, 28
5, 18276, Note_on_c, 2, 52, 28
5, 18288, Note_on_c, 2, 45, 28
5, 18368, Note_on_c, 2, 64, 0
5, 18380, Note_on_c, 2, 61, 0
5, 18392, Note_on_c, 2, 57, 0
5, 18404, Note_on_c, 2, 52, 0
5, 18416, Note_on_c, 2, 45, 0
5, 18432, Note_on_c, 2, 50, 47
5, 18436, Note_on_c, 2, 57, 47
5, 18440, Note_on_c, 2, 62, 47
5, 18448, Note_on_c, 2, 66, 47
5, 18452, Note_on_c, 2, 69, 47
5, 18944, Note_on_c, 2, 50, 0
5, 18948, Note_on_c, 2, 57, 0
5, 18952, Note_on_c, 2, 62, 0
5, 18960, Note_on_c, 2, 66, 0
5, 18964, Note_on_c, 2, 69, 0
5, 19008, Note_on_c, 2, 69, 36
5, 19012, Note_on_c, 2, 66, 36
5, 19016, Note_on_c, 2, 62, 36
5, 19020, Note_on_c, 2, 57, 36
5, 19024, Note_on_c, 2, 50, 36
5, 19264, Note_on_c, 2, 69, 0
5, 19268, Note_on_c, 2, 66, 0
5, 19272, Note_on_c, 2, 62, 0
5, 19276, Note_on_c, 2, 57, 0
5, 19280, Note_on_c, 2, 50, 0
5, 19392, Note_on_c, 2, 69, 36
5, 19396, Note_on_c, 2, 66, 36
5, 19400, Note_on_c, 2, 62, 36
5, 19404, Note_on_c, 2, 57, 36
5, 19408, Note_on_c, 2, 50, 36
5, 19648, Note_on_c, 2, 69, 0
5, 19652, Note_on_c, 2, 66, 0
5, 19656, Note_on_c, 2, 62, 0
5, 19660, Note_on_c, 2, 57, 0
5, 19664, Note_on_c, 2, 50, 0
5, 19776, Note_on_c, 2, 69, 28
5, 19788, Note_on_c, 2, 66, 28
5, 19800, Note_on_c, 2, 62, 28
5, 19812, Note_on_c, 2, 57, 28
5, 19824, Note_on_c, 2, 50, 28
5, 19904, Note_on_c, 2, 69, 0
5, 19916, Note_on_c, 2, 66, 0
5, 19928, Note_on_c, 2, 62, 0
5, 19940, Note_on_c, 2, 57, 0
5, 19944, Note_on_c, 2, 42, 47
5, 19952, Note_on_c, 2, 50, 0
5, 19960, Note_on_c, 2, 49, 47
5, 19968, Note_on_c, 2, 54, 47
5, 19968, Note_on_c, 2, 66, 47
5, 19988, Note_on_c, 2, 57, 47
5, 20008, Note_on_c, 2, 61, 47
5, 20456, Note_on_c, 2, 42, 0
5, 20472, Note_on_c, 2, 49, 0
5, 20480, Note_on_c, 2, 66, 0
5, 20480, Note_on_c, 2, 54, 0
5, 20500, Note_on_c, 2, 57, 0
5, 20520, Note_on_c, 2, 61, 0
5, 20544, Note_on_c, 2, 61, 36
5, 20544, Note_on_c, 2, 66, 36
5, 20552, Note_on_c, 2, 57, 36
5, 20560, Note_on_c, 2, 54, 36
5, 20568, Note_on_c, 2, 49, 36
5, 20576, Note_on_c, 2, 42, 36
5, 20800, Note_on_c, 2, 66, 0
5, 20800, Note_on_c, 2, 61, 0
5, 20808, Note_on_c, 2, 57, 0
5, 20816, Note_on_c, 2, 54, 0
5, 20824, Note_on_c, 2, 49, 0
5, 20832, Note_on_c, 2, 42, 0
5, 20928, Note_on_c, 2, 61, 36
5, 20928, Note_on_c, 2, 66, 36
5, 20932, Note_on_c, 2, 57, 36
5, 20936, Note_on_c, 2, 54, 36
5, 20940, Note_on_c, 2, 49, 36
5, 20944, Note_on_c, 2, 42, 36
5, 21184, Note_on_c, 2, 66, 0
5, 21184, Note_on_c, 2, 61, 0
5, 21188, Note_on_c, 2, 57, 0
5, 21192, Note_on_c, 2, 54, 0
5, 21196, Note_on_c, 2, 49, 0
5, 21200, Note_on_c, 2, 42, 0
5, 21312, Note_on_c, 2, 61, 28
5, 21312, Note_on_c, 2, 66, 28
5, 21324, Note_on_c, 2, 57, 28
5, 21336, Note_on_c, 2, 54, 28
5, 21348, Note_on_c, 2, 49, 28
5, 21360, Note_on_c, 2, 42, 28
5, 21440, Note_on_c, 2, 66, 0
5, 21440, Note_on_c, 2, 61, 0
5, 21452, Note_on_c, 2, 57, 0
5, 21464, Note_on_c, 2, 54, 0
5, 21476, Note_on_c, 2, 49, 0
5, 21480, Note_on_c, 2, 47, 47
5, 21488, Note_on_c, 2, 42, 0
5, 21496, Note_on_c, 2, 54, 47
5, 21504, Note_on_c, 2, 57, 47
5, 21524, Note_on_c, 2, 62, 47
5, 21544, Note_on_c, 2, 66, 47
5, 21992, Note_on_c, 2, 47, 0
5, 22008, Note_on_c, 2, 54, 0
5, 22016, Note_on_c, 2, 57, 0
5, 22036, Note_on_c, 2, 62, 0
5, 22056, Note_on_c, 2, 66, 0
5, 22080, Note_on_c, 2, 66, 36
5, 22088, Note_on_c, 2, 62, 36
5, 22096, Note_on_c, 2, 57, 36
5, 22104, Note_on_c, 2, 54, 36
5, 22112, Note_on_c, 2, 47, 36
5, 22336, Note_on_c, 2, 66, 0
5, 22344, Note_on_c, 2, 62, 0
5, 22352, Note_on_c, 2, 57, 0
5, 22360, Note_on_c, 2, 54, 0
5, 22368, Note_on_c, 2, 47, 0
5, 22464, Note_on_c, 2, 66, 36
5, 22468, Note_on_c, 2, 62, 36
5, 22472, Note_on_c, 2, 57, 36
5, 22476, Note_on_c, 2, 54, 36
5, 22480, Note_on_c, 2, 47, 36
5, 22720, Note_on_c, 2, 66, 0
5, 22724, Note_on_c, 2, 62, 0
5, 22728, Note_on_c, 2, 57, 0
5, 22732, Note_on_c, 2, 54, 0
5, 22736, Note_on_c, 2, 47, 0
5, 22848, Note_on_c, 2, 66, 28
5, 22860, Note_on_c, 2, 62, 28
5, 22872, Note_on_c, 2, 57, 28
5, 22884, Note_on_c, 2, 54, 28
5, 22896, Note_on_c, 2, 47, 28
5, 22976, Note_on_c, 2, 66, 0
5, 22988, Note_on_c, 2, 62, 0
5, 23000, Note_on_c, 2, 57, 0
5, 23012, Note_on_c, 2, 54, 0
5, 23016, Note_on_c, 2, 40, 47
5, 23024, Note_on_c, 2, 47, 0
5, 23032, Note_on_c, 2, 47, 47
5, 23040, Note_on_c, 2, 52, 47
5, 23060, Note_on_c, 2, 57, 47
5, 23080, Note_on_c, 2, 59, 47
5, 23528, Note_on_c, 2, 40, 0
5, 23544, Note_on_c, 2, 47, 0
5, 23552, Note_on_c, 2, 52, 0
5, 23572, Note_on_c, 2, 57, 0
5, 23592, Note_on_c, 2, 59, 0
5, 23616, Note_on_c, 2, 59, 36
5, 23624, Note_on_c, 2, 57, 36
5, 23632, Note_on_c, 2, 52, 36
5, 23640, Note_on_c, 2, 47, 36
5, 23648, Note_on_c, 2, 40, 36
5, 23872, Note_on_c, 2, 59, 0
5, 23880, Note_on_c, 2, 57, 0
5, 23888, Note_on_c, 2, 52, 0
5, 23896, Note_on_c, 2, 47, 0
5, 23904, Note_on_c, 2, 40, 0
5, 24000, Note_on_c, 2, 59, 36
5, 24004, Note_on_c, 2, 57, 36
5, 24008, Note_on_c, 2, 52, 36
5, 24012, Note_on_c, 2, 47, 36
5, 24016, Note_on_c, 2, 40, 36
5, 24256, Note_on_c, 2, 59, 0
5, 24260, Note_on_c, 2, 57, 0
5, 24264, Note_on_c, 2, 52, 0
5, 24268, Note_on_c, 2, 47, 0
5, 24272, Note_on_c, 2, 40, 0
5, 24384, Note_on_c, 2, 59, 28
5, 24396, Note_on_c, 2, 57, 28
5, 24408, Note_on_c, 2, 52, 28
5, 24420, Note_on_c, 2, 47, 28
5, 24432, Note_on_c, 2, 40, 28
5, 24512, Note_on_c, 2, 59, 0
5, 24524, Note_on_c, 2, 57, 0
5, 24536, Note_on_c, 2, 52, 0
5, 24548, Note_on_c, 2, 47, 0
5, 24552, Note_on_c, 2, 40, 47
5, 24560, Note_on_c, 2, 40, 0
5, 24568, Note_on_c, 2, 47, 47
5, 24576, Note_on_c, 2, 52, 47
5, 24596, Note_on_c, 2, 56, 47
5, 24616, Note_on_c, 2, 59, 47
5, 25064, Note_on_c, 2, 40, 0
5, 25080, Note_on_c, 2, 47, 0
5, 25088, Note_on_c, 2, 52, 0
5, 25108, Note_on_c, 2, 56, 0
5, 25128, Note_on_c, 2, 59, 0
5, 25152, Note_on_c, 2, 59, 36
5, 25160, Note_on_c, 2, 56, 36
5, 25168, Note_on_c, 2, 52, 36
5, 25176, Note_on_c, 2, 47, 36
5, 25184, Note_on_c, 2, 40, 36
5, 25408, Note_on_c, 2, 59, 0
5, 25416, Note_on_c, 2, 56, 0
5, 25424, Note_on_c, 2, 52, 0
5, 25432, Note_on_c, 2, 47, 0
5, 25440, Note_on_c, 2, 40, 0
5, 25536, Note_on_c, 2, 59, 36
5, 25540, Note_on_c, 2, 56, 36
5, 25544, Note_on_c, 2, 52, 36
5, 25548, Note_on_c, 2, 47, 36
5, 25552, Note_on_c, 2, 40, 36
5, 25792, Note_on_c, 2, 59, 0
5, 25796, Note_on_c, 2, 56, 0
5, 25800, Note_on_c, 2, 52, 0
5, 25804, Note_on_c, 2, 47, 0
5, 25808, Note_on_c, 2, 40, 0
5, 25920, Note_on_c, 2, 59, 28
5, 25932, Note_on_c, 2, 56, 28
5, 25944, Note_on_c, 2, 52, 28
5, 25956, Note_on_c, 2, 47, 28
5, 25968, Note_on_c, 2, 40, 28
5, 26048, Note_on_c, 2, 59, 0
5, 26060, Note_on_c, 2, 56, 0
5, 26072, Note_on_c, 2, 52, 0
5, 26084, Note_on_c, 2, 47, 0
5, 26088, Note_on_c, 2, 45, 47
5, 26096, Note_on_c, 2, 40, 0
5, 26104, Note_on_c, 2, 52, 47
5, 26112, Note_on_c, 2, 57, 47
5, 26132, Note_on_c, 2, 61, 47
5, 26152, Note_on_c, 2, 64, 47
5, 26600, Note_on_c, 2, 45, 0
5, 26616, Note_on_c, 2, 52, 0
5, 26624, Note_on_c, 2, 57, 0
5, 26644, Note_on_c, 2, 61, 0
5, 26664, Note_on_c, 2, 64, 0
5, 26688, Note_on_c, 2, 64, 36
5, 26696, Note_on_c, 2, 61, 36
5, 26704, Note_on_c, 2, 57, 36
5, 26712, Note_on_c, 2, 52, 36
5, 26720, Note_on_c, 2, 45, 36
5, 26944, Note_on_c, 2, 64, 0
5, 26952, Note_on_c, 2, 61, 0
5, 26960, Note_on_c, 2, 57, 0
5, 26968, Note_on_c, 2, 52, 0
5, 26976, Note_on_c, 2, 45, 0
5, 27072, Note_on_c, 2, 64, 36
5, 27076, Note_on_c, 2, 61, 36
5, 27080, Note_on_c, 2, 57, 36
5, 27084, Note_on_c, 2, 52, 36
5, 27088, Note_on_c, 2, 45, 36
5, 27328, Note_on_c, 2, 64, 0
5, 27332, Note_on_c, 2, 61, 0
5, 27336, Note_on_c, 2, 57, 0
5, 27340, Note_on_c, 2, 52, 0
5, 27344, Note_on_c, 2, 45, 0
5, 27456, Note_on_c, 2, 64, 28
5, 27468, Note_on_c, 2, 61, 28
5, 27480, Note_on_c, 2, 57, 28
5, 27492, Note_on_c, 2, 52, 28
5, 27504, Note_on_c, 2, 45, 28
5, 27584, Note_on_c, 2, 64, 0
5, 27596, Note_on_c, 2, 61, 0
5, 27608, Note_on_c, 2, 57, 0
5, 27620, Note_on_c, 2, 52, 0
5, 27632, Note_on_c, 2, 45, 0
5, 27648, Note_on_c, 2, 50, 47
5, 27652, Note_on_c, 2, 57, 47
5, 27656, Note_on_c, 2, 62, 47
5, 27664, Note_on_c, 2, 66, 47
5, 27668, Note_on_c, 2, 69, 47
5, 28160, Note_on_c, 2, 50, 0
5, 28164, Note_on_c, 2, 57, 0
5, 28168, Note_on_c, 2, 62, 0
5, 28176, Note_on_c, 2, 66, 0
5, 28180, Note_on_c, 2, 69, 0
5, 28224, Note_on_c, 2, 69, 36
5, 28228, Note_on_c, 2, 66, 36
5, 28232, Note_on_c, 2, 62, 36
5, 28236, Note_on_c, 2, 57, 36
5, 28240, Note_on_c, 2, 50, 36
5, 28480, Note_on_c, 2, 69, 0
5, 28484, Note_on_c, 2, 66, 0
5, 28488, Note_on_c, 2, 62, 0
5, 28492, Note_on_c, 2, 57, 0
5, 28496, Note_on_c, 2, 50, 0
5, 28608, Note_on_c, 2, 69, 36
5, 28612, Note_on_c, 2, 66, 36
5, 28616, Note_on_c, 2, 62, 36
5, 28620, Note_on_c, 2, 57, 36
5, 28624, Note_on_c, 2, 50, 36
5, 28864, Note_on_c, 2, 69, 0
5, 28868, Note_on_c, 2, 66, 0
5, 28872, Note_on_c, 2, 62, 0
5, 28876, Note_on_c, 2, 57, 0
5, 28880, Note_on_c, 2, 50, 0
5, 28992, Note_on_c, 2, 69, 28
5, 29004, Note_on_c, 2, 66, 28
5, 29016, Note_on_c, 2, 62, 28
5, 29028, Note_on_c, 2, 57, 28
5, 29040, Note_on_c, 2, 50, 28
5, 29120, Note_on_c, 2, 69, 0
5, 29132, Note_on_c, 2, 66, 0
5, 29144, Note_on_c, 2, 62, 0
5, 29156, Note_on_c, 2, 57, 0
5, 29160, Note_on_c, 2, 45, 47
5, 29168, Note_on_c, 2, 50, 0
5, 29176, Note_on_c, 2, 52, 47
5, 29184, Note_on_c, 2, 57, 47
5, 29204, Note_on_c, 2, 61, 47
5, 29224, Note_on_c, 2, 64, 47
5, 29672, Note_on_c, 2, 45, 0
5, 29688, Note_on_c, 2, 52, 0
5, 29696, Note_on_c, 2, 57, 0
5, 29716, Note_on_c, 2, 61, 0
5, 29736, Note_on_c, 2, 64, 0
5, 29760, Note_on_c, 2, 64, 36
5, 29768, Note_on_c, 2, 61, 36
5, 29776, Note_on_c, 2, 57, 36
5, 29784, Note_on_c, 2, 52, 36
5, 29792, Note_on_c, 2, 45, 36
5, 30016, Note_on_c, 2, 64, 0
5, 30024, Note_on_c, 2, 61, 0
5, 30032, Note_on_c, 2, 57, 0
5, 30040, Note_on_c, 2, 52, 0
5, 30048, Note_on_c, 2, 45, 0
5, 30144, Note_on_c, 2, 64, 36
5, 30148, Note_on_c, 2, 61, 36
5, 30152, Note_on_c, 2, 57, 36
5, 30156, Note_on_c, 2, 52, 36
5, 30160, Note_on_c, 2, 45, 36
5, 30400, Note_on_c, 2, 64, 0
5, 30404, Note_on_c, 2, 61, 0
5, 30408, Note_on_c, 2, 57, 0
5, 30412, Note_on_c, 2, 52, 0
5, 30416, Note_on_c, 2, 45, 0
5, 30528, Note_on_c, 2, 64, 28
5, 30540, Note_on_c, 2, 61, 28
5, 30552, Note_on_c, 2, 57, 28
5, 30564, Note_on_c, 2, 52, 28
5, 30576, Note_on_c, 2, 45, 28
5, 30656, Note_on_c, 2, 64, 0
5, 30668, Note_on_c, 2, 61, 0
5, 30680, Note_on_c, 2, 57, 0
5, 30692, Note_on_c, 2, 52, 0
5, 30704, Note_on_c, 2, 45, 0
5, 30720, Note_on_c, 2, 50, 47
5, 30724, Note_on_c, 2, 57, 47
5, 30728, Note_on_c, 2, 62, 47
5, 30736, Note_on_c, 2, 66, 47
5, 30740, Note_on_c, 2, 69, 47
5, 31232, Note_on_c, 2, 50, 0
5, 31236, Note_on_c, 2, 57, 0
5, 31240, Note_on_c, 2, 62, 0
5, 31248, Note_on_c, 2, 66, 0
5, 31252, Note_on_c, 2, 69, 0
5, 31296, Note_on_c, 2, 69, 36
5, 31300, Note_on_c, 2, 66, 36
5, 31304, Note_on_c, 2, 62, 36
5, 31308, Note_on_c, 2, 57, 36
5, 31312, Note_on_c, 2, 50, 36
5, 31552, Note_on_c, 2, 69, 0
5, 31556, Note_on_c, 2, 66, 0
5, 31560, Note_on_c, 2, 62, 0
5, 31564, Note_on_c, 2, 57, 0
5, 31568, Note_on_c, 2, 50, 0
5, 31680, Note_on_c, 2, 69, 36
5, 31684, Note_on_c, 2, 66, 36
5, 31688, Note_on_c, 2, 62, 36
5, 31692, Note_on_c, 2, 57, 36
5, 31696, Note_on_c, 2, 50, 36
5, 31936, Note_on_c, 2, 69, 0
5, 31940, Note_on_c, 2, 66, 0
5, 31944, Note_on_c, 2, 62, 0
5, 31948, Note_on_c, 2, 57, 0
5, 31952, Note_on_c, 2, 50, 0
5, 32064, Note_on_c, 2, 69, 28
5, 32076, Note_on_c, 2, 66, 28
5, 32088, Note_on_c, 2, 62, 28
5, 32100, Note_on_c, 2, 57, 28
5, 32112, Note_on_c, 2, 50, 28
5, 32192, Note_on_c, 2, 69, 0
5, 32204, Note_on_c, 2, 66, 0
5, 32216, Note_on_c, 2, 62, 0
5, 32228, Note_on_c, 2, 57, 0
5, 32232, Note_on_c, 2, 42, 47
5, 32240, Note_on_c, 2, 50, 0
5, 32248, Note_on_c, 2, 49, 47
5, 32256, Note_on_c, 2, 54, 47
5, 32256, Note_on_c, 2, 66, 47
5, 32276, Note_on_c, 2, 57, 47
5, 32296, Note_on_c, 2, 61, 47
5, 32744, Note_on_c, 2, 42, 0
5, 32760, Note_on_c, 2, 49, 0
5, 32768, Note_on_c, 2, 66, 0
5, 32768, Note_on_c, 2, 54, 0
5, 32788, Note_on_c, 2, 57, 0
5, 32808, Note_on_c, 2, 61, 0
5, 32832, Note_on_c, 2, 61, 36
5, 32832, Note_on_c, 2, 66, 36
5, 32840, Note_on_c, 2, 57, 36
5, 32848, Note_on_c, 2, 54, 36
5, 32856, Note_on_c, 2, 49, 36
5, 32864, Note_on_c, 2, 42, 36
5, 33088, Note_on_c, 2, 66, 0
5, 33088, Note_on_c, 2, 61, 0
5, 33096, Note_on_c, 2, 57, 0
5, 33104, Note_on_c, 2, 54, 0
5, 33112, Note_on_c, 2, 49, 0
5, 33120, Note_on_c, 2, 42, 0
5, 33216, Note_on_c, 2, 61, 36
5, 33216, Note_on_c, 2, 66, 36
5, 33220, Note_on_c, 2, 57, 36
5, 33224, Note_on_c, 2, 54, 36
5, 33228, Note_on_c, 2, 49, 36
5, 33232, Note_on_c, 2, 42, 36
5, 33472, Note_on_c, 2, 66, 0
5, 33472, Note_on_c, 2, 61, 0
5, 33476, Note_on_c, 2, 57, 0
5, 33480, Note_on_c, 2, 54, 0
5, 33484, Note_on_c, 2, 49, 0
5, 33488, Note_on_c, 2, 42, 0
5, 33600, Note_on_c, 2, 61, 28
5, 33600, Note_on_c, 2, 66, 28
5, 33612, Note_on_c, 2, 57, 28
5, 33624, Note_on_c, 2, 54, 28
5, 33636, Note_on_c, 2, 49, 28
5, 33648, Note_on_c, 2, 42, 28
5, 33728, Note_on_c, 2, 66, 0
5, 33728, Note_on_c, 2, 61, 0
5, 33740, Note_on_c, 2, 57, 0
5, 33752, Note_on_c, 2, 54, 0
5, 33764, Note_on_c, 2, 49, 0
5, 33768, Note_on_c, 2, 43, 47
5, 33776, Note_on_c, 2, 42, 0
5, 33784, Note_on_c, 2, 50, 47
5, 33792, Note_on_c, 2, 55, 47
5, 33792, Note_on_c, 2, 67, 47
5, 33812, Note_on_c, 2, 59, 47
5, 33832, Note_on_c, 2, 62, 47
5, 34280, Note_on_c, 2, 43, 0
5, 34296, Note_on_c, 2, 50, 0
5, 34304, Note_on_c, 2, 67, 0
5, 34304, Note_on_c, 2, 55, 0
5, 34324, Note_on_c, 2, 59, 0
5, 34344, Note_on_c, 2, 62, 0
5, 34368, Note_on_c, 2, 62, 36
5, 34368, Note_on_c, 2, 67, 36
5, 34376, Note_on_c, 2, 59, 36
5, 34384, Note_on_c, 2, 55, 36
5, 34392, Note_on_c, 2, 50, 36
5, 34400, Note_on_c, 2, 43, 36
5, 34624, Note_on_c, 2, 67, 0
5, 34624, Note_on_c, 2, 62, 0
5, 34632, Note_on_c, 2, 59, 0
5, 34640, Note_on_c, 2, 55, 0
5, 34648, Note_on_c, 2, 50, 0
5, 34656, Note_on_c, 2, 43, 0
5, 34752, Note_on_c, 2, 62, 36
5, 34752, Note_on_c, 2, 67, 36
5, 34756, Note_on_c, 2, 59, 36
5, 34760, Note_on_c, 2, 55, 36
5, 34764, Note_on_c, 2, 50, 36
5, 34768, Note_on_c, 2, 43, 36
5, 35008, Note_on_c, 2, 67, 0
5, 35008, Note_on_c, 2, 62, 0
5, 35012, Note_on_c, 2, 59, 0
5, 35016, Note_on_c, 2, 55, 0
5, 35020, Note_on_c, 2, 50, 0
5, 35024, Note_on_c, 2, 43, 0
5, 35136, Note_on_c, 2, 62, 28
5, 35136, Note_on_c, 2, 67, 28
5, 35148, Note_on_c, 2, 59, 28
5, 35160, Note_on_c, 2, 55, 28
5, 35172, Note_on_c, 2, 50, 28
5, 35184, Note_on_c, 2, 43, 28
5, 35264, Note_on_c, 2, 67, 0
5, 35264, Note_on_c, 2, 62, 0
5, 35276, Note_on_c, 2, 59, 0
5, 35288, Note_on_c, 2, 55, 0
5, 35300, Note_on_c, 2, 50, 0
5, 35304, Note_on_c, 2, 40, 47
5, 35312, Note_on_c, 2, 43, 0
5, 35320, Note_on_c, 2, 47, 47
5, 35328, Note_on_c, 2, 52, 47
5, 35348, Note_on_c, 2, 57, 47
5, 35368, Note_on_c, 2, 59, 47
5, 35816, Note_on_c, 2, 40, 0
5, 35832, Note_on_c, 2, 47, 0
5, 35840, Note_on_c, 2, 52, 0
5, 35860, Note_on_c, 2, 57, 0
5, 35880, Note_on_c, 2, 59, 0
5, 35904, Note_on_c, 2, 59, 36
5, 35912, Note_on_c, 2, 57, 36
5, 35920, Note_on_c, 2, 52, 36
5, 35928, Note_on_c, 2, 47, 36
5, 35936, Note_on_c, 2, 40, 36
5, 36160, Note_on_c, 2, 59, 0
5, 36168, Note_on_c, 2, 57, 0
5, 36176, Note_on_c, 2, 52, 0
5, 36184, Note_on_c, 2, 47, 0
5, 36192, Note_on_c, 2, 40, 0
5, 36288, Note_on_c, 2, 59, 36
5, 36292, Note_on_c, 2, 57, 36
5, 36296, Note_on_c, 2, 52, 36
5, 36300, Note_on_c, 2, 47, 36
5, 36304, Note_on_c, 2, 40, 36
5, 36544, Note_on_c, 2, 59, 0
5, 36548, Note_on_c, 2, 57, 0
5, 36552, Note_on_c, 2, 52, 0
5, 36556, Note_on_c, 2, 47, 0
5, 36560, Note_on_c, 2, 40, 0
5, 36672, Note_on_c, 2, 59, 28
5, 36684, Note_on_c, 2, 57, 28
5, 36696, Note_on_c, 2, 52, 28
5, 36708, Note_on_c, 2, 47, 28
5, 36720, Note_on_c, 2, 40, 28
5, 36800, Note_on_c, 2, 59, 0
5, 36812, Note_on_c, 2, 57, 0
5, 36824, Note_on_c, 2, 52, 0
5, 36836, Note_on_c, 2, 47, 0
5, 36840, Note_on_c, 2, 40, 47
5, 36848, Note_on_c, 2, 40, 0
5, 36856, Note_on_c, 2, 47, 47
5, 36864, Note_on_c, 2, 52, 47
5, 36884, Note_on_c, 2, 56, 47
5, 36904, Note_on_c, 2, 59, 47
5, 37352, Note_on_c, 2, 40, 0
5, 37368, Note_on_c, 2, 47, 0
5, 37376, Note_on_c, 2, 52, 0
5, 37396, Note_on_c, 2, 56, 0
5, 37416, Note_on_c, 2, 59, 0
5, 37440, Note_on_c, 2, 59, 36
5, 37448, Note_on_c, 2, 56, 36
5, 37456, Note_on_c, 2, 52, 36
5, 37464, Note_on_c, 2, 47, 36
5, 37472, Note_on_c, 2, 40, 36
5, 37696, Note_on_c, 2, 59, 0
5, 37704, Note_on_c, 2, 56, 0
5, 37712, Note_on_c, 2, 52, 0
5, 37720, Note_on_c, 2, 47, 0
5, 37728, Note_on_c, 2, 40, 0
5, 37824, Note_on_c, 2, 59, 36
5, 37828, Note_on_c, 2, 56, 36
5, 37832, Note_on_c, 2, 52, 36
5, 37836, Note_on_c, 2, 47, 36
5, 37840, Note_on_c, 2, 40, 36
5, 38080, Note_on_c, 2, 59, 0
5, 38084, Note_on_c, 2, 56, 0
5, 38088, Note_on_c, 2, 52, 0
5, 38092, Note_on_c, 2, 47, 0
5, 38096, Note_on_c, 2, 40, 0
5, 38208, Note_on_c, 2, 59, 28
5, 38220, Note_on_c, 2, 56, 28
5, 38232, Note_on_c, 2, 52, 28
5, 38244, Note_on_c, 2, 47, 28
5, 38256, Note_on_c, 2, 40, 28
5, 38336, Note_on_c, 2, 59, 0
5, 38348, Note_on_c, 2, 56, 0
5, 38360, Note_on_c, 2, 52, 0
5, 38372, Note_on_c, 2, 47, 0
5, 38376, Note_on_c, 2, 42, 47
5, 38384, Note_on_c, 2, 40, 0
5, 38392, Note_on_c, 2, 49, 47
5, 38400, Note_on_c, 2, 54, 47
5, 38400, Note_on_c, 2, 66, 47
5, 38420, Note_on_c, 2, 57, 47
5, 38440, Note_on_c, 2, 61, 47
5, 38888, Note_on_c, 2, 42, 0
5, 38904, Note_on_c, 2, 49, 0
5, 38912, Note_on_c, 2, 66, 0
5, 38912, Note_on_c, 2, 54, 0
5, 38932, Note_on_c, 2, 57, 0
5, 38952, Note_on_c, 2, 61, 0
5, 38976, Note_on_c, 2, 61, 36
5, 38976, Note_on_c, 2, 66, 36
5, 38984, Note_on_c, 2, 57, 36
5, 38992, Note_on_c, 2, 54, 36
5, 39000, Note_on_c, 2, 49, 36
5, 39008, Note_on_c, 2, 42, 36
5, 39232, Note_on_c, 2, 66, 0
5, 39232, Note_on_c, 2, 61, 0
5, 39240, Note_on_c, 2, 57, 0
5, 39248, Note_on_c, 2, 54, 0
5, 39256, Note_on_c, 2, 49, 0
5, 39264, Note_on_c, 2, 42, 0
5, 39360, Note_on_c, 2, 61, 36
5, 39360, Note_on_c, 2, 66, 36
5, 39364, Note_on_c, 2, 57, 36
5, 39368, Note_on_c, 2, 54, 36
5, 39372, Note_on_c, 2, 49, 36
5, 39376, Note_on_c, 2, 42, 36
5, 39488, Note_on_c, 2, 66, 0
5, 39488, Note_on_c, 2, 61, 0
5, 39492, Note_on_c, 2, 57, 0
5, 39496, Note_on_c, 2, 54, 0
5, 39500, Note_on_c, 2, 49, 0
5, 39504, Note_on_c, 2, 42, 0
5, 39548, Note_on_c, 2, 49, 36
5, 39556, Note_on_c, 2, 42, 31
5, 39568, Note_on_c, 2, 54, 31
5, 39572, Note_on_c, 2, 57, 31
5, 39580, Note_on_c, 2, 61, 31
5, 39588, Note_on_c, 2, 66, 31
5, 39676, Note_on_c, 2, 49, 0
5, 39684, Note_on_c, 2, 42, 0
5, 39696, Note_on_c, 2, 54, 0
5, 39700, Note_on_c, 2, 57, 0
5, 39708, Note_on_c, 2, 61, 0
5, 39716, Note_on_c, 2, 66, 0
5, 39744, Note_on_c, 2, 61, 28
5, 39744, Note_on_c, 2, 66, 28
5, 39756, Note_on_c, 2, 57, 28
5, 39768, Note_on_c, 2, 54, 28
5, 39780, Note_on_c, 2, 49, 28
5, 39792, Note_on_c, 2, 42, 28
5, 39872, Note_on_c, 2, 66, 0
5, 39872, Note_on_c, 2, 61, 0
5, 39884, Note_on_c, 2, 57, 0
5, 39896, Note_on_c, 2, 54, 0
5, 39908, Note_on_c, 2, 49, 0
5, 39912, Note_on_c, 2, 47, 47
5, 39920, Note_on_c, 2, 42, 0
5, 39928, Note_on_c, 2, 54, 47
5, 39936, Note_on_c, 2, 57, 47
5, 39956, Note_on_c, 2, 62, 47
5, 39976, Note_on_c, 2, 66, 47
5, 40424, Note_on_c, 2, 47, 0
5, 40440, Note_on_c, 2, 54, 0
5, 40448, Note_on_c, 2, 57, 0
5, 40468, Note_on_c, 2, 62, 0
5, 40488, Note_on_c, 2, 66, 0
5, 40512, Note_on_c, 2, 66, 36
5, 40520, Note_on_c, 2, 62, 36
5, 40528, Note_on_c, 2, 57, 36
5, 40536, Note_on_c, 2, 54, 36
5, 40544, Note_on_c, 2, 47, 36
5, 40768, Note_on_c, 2, 66, 0
5, 40776, Note_on_c, 2, 62, 0
5, 40784, Note_on_c, 2, 57, 0
5, 40792, Note_on_c, 2, 54, 0
5, 40800, Note_on_c, 2, 47, 0
5, 40896, Note_on_c, 2, 66, 36
5, 40900, Note_on_c, 2, 62, 36
5, 40904, Note_on_c, 2, 57, 36
5, 40908, Note_on_c, 2, 54, 36
5, 40912, Note_on_c, 2, 47, 36
5, 41024, Note_on_c, 2, 66, 0
5, 41028, Note_on_c, 2, 62, 0
5, 41032, Note_on_c, 2, 57, 0
5, 41036, Note_on_c, 2, 54, 0
5, 41040, Note_on_c, 2, 47, 0
5, 41088, Note_on_c, 2, 47, 25
5, 41096, Note_on_c, 2, 54, 25
5, 41104, Note_on_c, 2, 57, 25
5, 41116, Note_on_c, 2, 62, 25
5, 41124, Note_on_c, 2, 66, 25
5, 41216, Note_on_c, 2, 47, 0
5, 41224, Note_on_c, 2, 54, 0
5, 41232, Note_on_c, 2, 57, 0
5, 41244, Note_on_c, 2, 62, 0
5, 41252, Note_on_c, 2, 66, 0
5, 41280, Note_on_c, 2, 66, 28
5, 41292, Note_on_c, 2, 62, 28
5, 41304, Note_on_c, 2, 57, 28
5, 41316, Note_on_c, 2, 54, 28
5, 41328, Note_on_c, 2, 47, 28
5, 41408, Note_on_c, 2, 66, 0
5, 41420, Note_on_c, 2, 62, 0
5, 41432, Note_on_c, 2, 57, 0
5, 41444, Note_on_c, 2, 54, 0
5, 41456, Note_on_c, 2, 47, 0
5, 41472, Note_on_c, 2, 50, 47
5, 41476, Note_on_c, 2, 57, 47
5, 41480, Note_on_c, 2, 62, 47
5, 41488, Note_on_c, 2, 66, 47
5, 41492, Note_on_c, 2, 69, 47
5, 41984, Note_on_c, 2, 50, 0
5, 41988, Note_on_c, 2, 57, 0
5, 41992, Note_on_c, 2, 62, 0
5, 42000, Note_on_c, 2, 66, 0
5, 42004, Note_on_c, 2, 69, 0
5, 42048, Note_on_c, 2, 69, 36
5, 42052, Note_on_c, 2, 66, 36
5, 42056, Note_on_c, 2, 62, 36
5, 42060, Note_on_c, 2, 57, 36
5, 42064, Note_on_c, 2, 50, 36
5, 42304, Note_on_c, 2, 69, 0
5, 42308, Note_on_c, 2, 66, 0
5, 42312, Note_on_c, 2, 62, 0
5, 42316, Note_on_c, 2, 57, 0
5, 42320, Note_on_c, 2, 50, 0
5, 42432, Note_on_c, 2, 69, 36
5, 42436, Note_on_c, 2, 66, 36
5, 42440, Note_on_c, 2, 62, 36
5, 42444, Note_on_c, 2, 57, 36
5, 42448, Note_on_c, 2, 50, 36
5, 42560, Note_on_c, 2, 69, 0
5, 42564, Note_on_c, 2, 66, 0
5, 42568, Note_on_c, 2, 62, 0
5, 42572, Note_on_c, 2, 57, 0
5, 42576, Note_on_c, 2, 50, 0
5, 42624, Note_on_c, 2, 50, 25
5, 42636, Note_on_c, 2, 57, 25
5, 42648, Note_on_c, 2, 62, 25
5, 42652, Note_on_c, 2, 66, 25
5, 42660, Note_on_c, 2, 69, 25
5, 42752, Note_on_c, 2, 50, 0
5, 42764, Note_on_c, 2, 57, 0
5, 42776, Note_on_c, 2, 62, 0
5, 42780, Note_on_c, 2, 66, 0
5, 42788, Note_on_c, 2, 69, 0
5, 42816, Note_on_c, 2, 69, 28
5, 42828, Note_on_c, 2, 66, 28
5, 42840, Note_on_c, 2, 62, 28
5, 42852, Note_on_c, 2, 57, 28
5, 42864, Note_on_c, 2, 50, 28
5, 42944, Note_on_c, 2, 69, 0
5, 42956, Note_on_c, 2, 66, 0
5, 42968, Note_on_c, 2, 62, 0
5, 42980, Note_on_c, 2, 57, 0
5, 42984, Note_on_c, 2, 49, 47
5, 42992, Note_on_c, 2, 50, 0
5, 43000, Note_on_c, 2, 56, 47
5, 43008, Note_on_c, 2, 61, 47
5, 43008, Note_on_c, 2, 73, 47
5, 43028, Note_on_c, 2, 64, 47
5, 43048, Note_on_c, 2, 68, 47
5, 43496, Note_on_c, 2, 49, 0
5, 43512, Note_on_c, 2, 56, 0
5, 43520, Note_on_c, 2, 73, 0
5, 43520, Note_on_c, 2, 61, 0
5, 43540, Note_on_c, 2, 64, 0
5, 43560, Note_on_c, 2, 68, 0
5, 43584, Note_on_c, 2, 68, 36
5, 43584, Note_on_c, 2, 73, 36
5, 43592, Note_on_c, 2, 64, 36
5, 43600, Note_on_c, 2, 61, 36
5, 43608, Note_on_c, 2, 56, 36
5, 43616, Note_on_c, 2, 49, 36
5, 43840, Note_on_c, 2, 73, 0
5, 43840, Note_on_c, 2, 68, 0
5, 43848, Note_on_c, 2, 64, 0
5, 43856, Note_on_c, 2, 61, 0
5, 43864, Note_on_c, 2, 56, 0
5, 43872, Note_on_c, 2, 49, 0
5, 43968, Note_on_c, 2, 68, 36
5, 43968, Note_on_c, 2, 73, 36
5, 43972, Note_on_c, 2, 64, 36
5, 43976, Note_on_c, 2, 61, 36
5, 43980, Note_on_c, 2, 56, 36
5, 43984, Note_on_c, 2, 49, 36
5, 44096, Note_on_c, 2, 73, 0
5, 44096, Note_on_c, 2, 68, 0
5, 44100, Note_on_c, 2, 64, 0
5, 44104, Note_on_c, 2, 61, 0
5, 44108, Note_on_c, 2, 56, 0
5, 44112, Note_on_c, 2, 49, 0
5, 44156, Note_on_c, 2, 56, 36
5, 44164, Note_on_c, 2, 49, 31
5, 44176, Note_on_c, 2, 61, 31
5, 44180, Note_on_c, 2, 64, 31
5, 44188, Note_on_c, 2, 68, 31
5, 44196, Note_on_c, 2, 73, 31
5, 44284, Note_on_c, 2, 56, 0
5, 44292, Note_on_c, 2, 49, 0
5, 44304, Note_on_c, 2, 61, 0
5, 44308, Note_on_c, 2, 64, 0
5, 44316, Note_on_c, 2, 68, 0
5, 44324, Note_on_c, 2, 73, 0
5, 44352, Note_on_c, 2, 68, 28
5, 44352, Note_on_c, 2, 73, 28
5, 44364, Note_on_c, 2, 64, 28
5, 44376, Note_on_c, 2, 61, 28
5, 44388, Note_on_c, 2, 56, 28
5, 44400, Note_on_c, 2, 49, 28
5, 44480, Note_on_c, 2, 73, 0
5, 44480, Note_on_c, 2, 68, 0
5, 44492, Note_on_c, 2, 64, 0
5, 44504, Note_on_c, 2, 61, 0
5, 44516, Note_on_c, 2, 56, 0
5, 44520, Note_on_c, 2, 42, 47
5, 44528, Note_on_c, 2, 49, 0
5, 44536, Note_on_c, 2, 49, 47
5, 44544, Note_on_c, 2, 54, 47
5, 44544, Note_on_c, 2, 66, 47
5, 44564, Note_on_c, 2, 57, 47
5, 44584, Note_on_c, 2, 61, 47
5, 45032, Note_on_c, 2, 42, 0
5, 45048, Note_on_c, 2, 49, 0
5, 45056, Note_on_c, 2, 66, 0
5, 45056, Note_on_c, 2, 54, 0
5, 45076, Note_on_c, 2, 57, 0
5, 45096, Note_on_c, 2, 61, 0
5, 45120, Note_on_c, 2, 61, 36
5, 45120, Note_on_c, 2, 66, 36
5, 45128, Note_on_c, 2, 57, 36
5, 45136, Note_on_c, 2, 54, 36
5, 45144, Note_on_c, 2, 49, 36
5, 45152, Note_on_c, 2, 42, 36
5, 45376, Note_on_c, 2, 66, 0
5, 45376, Note_on_c, 2, 61, 0
5, 45384, Note_on_c, 2, 57, 0
5, 45392, Note_on_c, 2, 54, 0
5, 45400, Note_on_c, 2, 49, 0
5, 45408, Note_on_c, 2, 42, 0
5, 45504, Note_on_c, 2, 61, 36
5, 45504, Note_on_c, 2, 66, 36
5, 45508, Note_on_c, 2, 57, 36
5, 45512, Note_on_c, 2, 54, 36
5, 45516, Note_on_c, 2, 49, 36
5, 45520, Note_on_c, 2, 42, 36
5, 45632, Note_on_c, 2, 66, 0
5, 45632, Note_on_c, 2, 61, 0
5, 45636, Note_on_c, 2, 57, 0
5, 45640, Note_on_c, 2, 54, 0
5, 45644, Note_on_c, 2, 49, 0
5, 45648, Note_on_c, 2, 42, 0
5, 45692, Note_on_c, 2, 49, 36
5, 45700, Note_on_c, 2, 42, 31
5, 45712, Note_on_c, 2, 54, 31
5, 45716, Note_on_c, 2, 57, 31
5, 45724, Note_on_c, 2, 61, 31
5, 45732, Note_on_c, 2, 66, 31
5, 45820, Note_on_c, 2, 49, 0
5, 45828, Note_on_c, 2, 42, 0
5, 45840, Note_on_c, 2, 54, 0
5, 45844, Note_on_c, 2, 57, 0
5, 45852, Note_on_c, 2, 61, 0
5, 45860, Note_on_c, 2, 66, 0
5, 45888, Note_on_c, 2, 61, 28
5, 45888, Note_on_c, 2, 66, 28
5, 45900, Note_on_c, 2, 57, 28
5, 45912, Note_on_c, 2, 54, 28
5, 45924, Note_on_c, 2, 49, 28
5, 45936, Note_on_c, 2, 42, 28
5, 46016, Note_on_c, 2, 66, 0
5, 46016, Note_on_c, 2, 61, 0
5, 46028, Note_on_c, 2, 57, 0
5, 46040, Note_on_c, 2, 54, 0
5, 46052, Note_on_c, 2, 49, 0
5, 46056, Note_on_c, 2, 47, 47
5, 46064, Note_on_c, 2, 42, 0
5, 46072, Note_on_c, 2, 54, 47
5, 46080, Note_on_c, 2, 57, 47
5, 46100, Note_on_c, 2, 62, 47
5, 46120, Note_on_c, 2, 66, 47
5, 46568, Note_on_c, 2, 47, 0
5, 46584, Note_on_c, 2, 54, 0
5, 46592, Note_on_c, 2, 57, 0
5, 46612, Note_on_c, 2, 62, 0
5, 46632, Note_on_c, 2, 66, 0
5, 46656, Note_on_c, 2, 66, 36
5, 46664, Note_on_c, 2, 62, 36
5, 46672, Note_on_c, 2, 57, 36
5, 46680, Note_on_c, 2, 54, 36
5, 46688, Note_on_c, 2, 47, 36
5, 46912, Note_on_c, 2, 66, 0
5, 46920, Note_on_c, 2, 62, 0
5, 46928, Note_on_c, 2, 57, 0
5, 46936, Note_on_c, 2, 54, 0
5, 46944, Note_on_c, 2, 47, 0
5, 47040, Note_on_c, 2, 66, 36
5, 47044, Note_on_c, 2, 62, 36
5, 47048, Note_on_c, 2, 57, 36
5, 47052, Note_on_c, 2, 54, 36
5, 47056, Note_on_c, 2, 47, 36
5, 47168, Note_on_c, 2, 66, 0
5, 47172, Note_on_c, 2, 62, 0
5, 47176, Note_on_c, 2, 57, 0
5, 47180, Note_on_c, 2, 54, 0
5, 47184, Note_on_c, 2, 47, 0
5, 47232, Note_on_c, 2, 47, 25
5, 47240, Note_on_c, 2, 54, 25
5, 47248, Note_on_c, 2, 57, 25
5, 47260, Note_on_c, 2, 62, 25
5, 47268, Note_on_c, 2, 66, 25
5, 47360, Note_on_c, 2, 47, 0
5, 47368, Note_on_c, 2, 54, 0
5, 47376, Note_on_c, 2, 57, 0
5, 47388, Note_on_c, 2, 62, 0
5, 47396, Note_on_c, 2, 66, 0
5, 47424, Note_on_c, 2, 66, 28
5, 47436, Note_on_c, 2, 62, 28
5, 47448, Note_on_c, 2, 57, 28
5, 47460, Note_on_c, 2, 54, 28
5, 47472, Note_on_c, 2, 47, 28
5, 47552, Note_on_c, 2, 66, 0
5, 47564, Note_on_c, 2, 62, 0
5, 47576, Note_on_c, 2, 57, 0
5, 47588, Note_on_c, 2, 54, 0
5, 47600, Note_on_c, 2, 47, 0
5, 47616, Note_on_c, 2, 50, 47
5, 47620, Note_on_c, 2, 57, 47
5, 47624, Note_on_c, 2, 62, 47
5, 47632, Note_on_c, 2, 66, 47
5, 47636, Note_on_c, 2, 69, 47
5, 48128, Note_on_c, 2, 50, 0
5, 48132, Note_on_c, 2, 57, 0
5, 48136, Note_on_c, 2, 62, 0
5, 48144, Note_on_c, 2, 66, 0
5, 48148, Note_on_c, 2, 69, 0
5, 48192, Note_on_c, 2, 69, 36
5, 48196, Note_on_c, 2, 66, 36
5, 48200, Note_on_c, 2, 62, 36
5, 48204, Note_on_c, 2, 57, 36
5, 48208, Note_on_c, 2, 50, 36
5, 48448, Note_on_c, 2, 69, 0
5, 48452, Note_on_c, 2, 66, 0
5, 48456, Note_on_c, 2, 62, 0
5, 48460, Note_on_c, 2, 57, 0
5, 48464, Note_on_c, 2, 50, 0
5, 48576, Note_on_c, 2, 69, 36
5, 48580, Note_on_c, 2, 66, 36
5, 48584, Note_on_c, 2, 62, 36
5, 48588, Note_on_c, 2, 57, 36
5, 48592, Note_on_c, 2, 50, 36
5, 48704, Note_on_c, 2, 69, 0
5, 48708, Note_on_c, 2, 66, 0
5, 48712, Note_on_c, 2, 62, 0
5, 48716, Note_on_c, 2, 57, 0
5, 48720, Note_on_c, 2, 50, 0
5, 48768, Note_on_c, 2, 50, 25
5, 48780, Note_on_c, 2, 57, 25
5, 48792, Note_on_c, 2, 62, 25
5, 48796, Note_on_c, 2, 66, 25
5, 48804, Note_on_c, 2, 69, 25
5, 48896, Note_on_c, 2, 50, 0
5, 48908, Note_on_c, 2, 57, 0
5, 48920, Note_on_c, 2, 62, 0
5, 48924, Note_on_c, 2, 66, 0
5, 48932, Note_on_c, 2, 69, 0
5, 48960, Note_on_c, 2, 69, 28
5, 48972, Note_on_c, 2, 66, 28
5, 48984, Note_on_c, 2, 62, 28
5, 48996, Note_on_c, 2, 57, 28
5, 49008, Note_on_c, 2, 50, 28
5, 49088, Note_on_c, 2, 69, 0
5, 49100, Note_on_c, 2, 66, 0
5, 49112, Note_on_c, 2, 62, 0
5, 49124, Note_on_c, 2, 57, 0
5, 49128, Note_on_c, 2, 49, 47
5, 49136, Note_on_c, 2, 50, 0
5, 49144, Note_on_c, 2, 56, 47
5, 49152, Note_on_c, 2, 61, 47
5, 49152, Note_on_c, 2, 73, 47
5, 49172, Note_on_c, 2, 65, 47
5, 49192, Note_on_c, 2, 68, 47
5, 50024, Note_on_c, 2, 49, 0
5, 50040, Note_on_c, 2, 56, 0
5, 50048, Note_on_c, 2, 73, 0
5, 50048, Note_on_c, 2, 61, 0
5, 50068, Note_on_c, 2, 65, 0
5, 50088, Note_on_c, 2, 68, 0
5, 50664, Note_on_c, 2, 45, 47
5, 50680, Note_on_c, 2, 52, 47
5, 50688, Note_on_c, 2, 57, 47
5, 50708, Note_on_c, 2, 61, 47
5, 50728, Note_on_c, 2, 64, 47
5, 51176, Note_on_c, 2, 45, 0
5, 51192, Note_on_c, 2, 52, 0
5, 51200, Note_on_c, 2, 57, 0
5, 51220, Note_on_c, 2, 61, 0
5, 51240, Note_on_c, 2, 64, 0
5, 51264, Note_on_c, 2, 64, 36
5, 51272, Note_on_c, 2, 61, 36
5, 51280, Note_on_c, 2, 57, 36
5, 51288, Note_on_c, 2, 52, 36
5, 51296, Note_on_c, 2, 45, 36
5, 51520, Note_on_c, 2, 64, 0
5, 51528, Note_on_c, 2, 61, 0
5, 51536, Note_on_c, 2, 57, 0
5, 51544, Note_on_c, 2, 52, 0
5, 51552, Note_on_c, 2, 45, 0
5, 51648, Note_on_c, 2, 64, 36
5, 51652, Note_on_c, 2, 61, 36
5, 51656, Note_on_c, 2, 57, 36
5, 51660, Note_on_c, 2, 52, 36
5, 51664, Note_on_c, 2, 45, 36
5, 51904, Note_on_c, 2, 64, 0
5, 51908, Note_on_c, 2, 61, 0
5, 51912, Note_on_c, 2, 57, 0
5, 51916, Note_on_c, 2, 52, 0
5, 51920, Note_on_c, 2, 45, 0
5, 52032, Note_on_c, 2, 64, 28
5, 52044, Note_on_c, 2, 61, 28
5, 52056, Note_on_c, 2, 57, 28
5, 52068, Note_on_c, 2, 52, 28
5, 52080, Note_on_c, 2, 45, 28
5, 52160, Note_on_c, 2, 64, 0
5, 52172, Note_on_c, 2, 61, 0
5, 52184, Note_on_c, 2, 57, 0
5, 52196, Note_on_c, 2, 52, 0
5, 52208, Note_on_c, 2, 45, 0
5, 52224, Note_on_c, 2, 50, 47
5, 52228, Note_on_c, 2, 57, 47
5, 52232, Note_on_c, 2, 62, 47
5, 52240, Note_on_c, 2, 66, 47
5, 52244, Note_on_c, 2, 69, 47
5, 52736, Note_on_c, 2, 50, 0
5, 52740, Note_on_c, 2, 57, 0
5, 52744, Note_on_c, 2, 62, 0
5, 52752, Note_on_c, 2, 66, 0
5, 52756, Note_on_c, 2, 69, 0
5, 52800, Note_on_c, 2, 69, 36
5, 52804, Note_on_c, 2, 66, 36
5, 52808, Note_on_c, 2, 62, 36
5, 52812, Note_on_c, 2, 57, 36
5, 52816, Note_on_c, 2, 50, 36
5, 53056, Note_on_c, 2, 69, 0
5, 53060, Note_on_c, 2, 66, 0
5, 53064, Note_on_c, 2, 62, 0
5, 53068, Note_on_c, 2, 57, 0
5, 53072, Note_on_c, 2, 50, 0
5, 53184, Note_on_c, 2, 69, 36
5, 53188, Note_on_c, 2, 66, 36
5, 53192, Note_on_c, 2, 62, 36
5, 53196, Note_on_c, 2, 57, 36
5, 53200, Note_on_c, 2, 50, 36
5, 53440, Note_on_c, 2, 69, 0
5, 53444, Note_on_c, 2, 66, 0
5, 53448, Note_on_c, 2, 62, 0
5, 53452, Note_on_c, 2, 57, 0
5, 53456, Note_on_c, 2, 50, 0
5, 53568, Note_on_c, 2, 69, 28
5, 53580, Note_on_c, 2, 66, 28
5, 53592, Note_on_c, 2, 62, 28
5, 53604, Note_on_c, 2, 57, 28
5, 53616, Note_on_c, 2, 50, 28
5, 53696, Note_on_c, 2, 69, 0
5, 53708, Note_on_c, 2, 66, 0
5, 53720, Note_on_c, 2, 62, 0
5, 53732, Note_on_c, 2, 57, 0
5, 53736, Note_on_c, 2, 45, 47
5, 53744, Note_on_c, 2, 50, 0
5, 53752, Note_on_c, 2, 52, 47
5, 53760, Note_on_c, 2, 57, 47
5, 53780, Note_on_c, 2, 61, 47
5, 53800, Note_on_c, 2, 64, 47
5, 54248, Note_on_c, 2, 45, 0
5, 54264, Note_on_c, 2, 52, 0
5, 54272, Note_on_c, 2, 57, 0
5, 54292, Note_on_c, 2, 61, 0
5, 54312, Note_on_c, 2, 64, 0
5, 54336, Note_on_c, 2, 64, 36
5, 54344, Note_on_c, 2, 61, 36
5, 54352, Note_on_c, 2, 57, 36
5, 54360, Note_on_c, 2, 52, 36
5, 54368, Note_on_c, 2, 45, 36
5, 54592, Note_on_c, 2, 64, 0
5, 54600, Note_on_c, 2, 61, 0
5, 54608, Note_on_c, 2, 57, 0
5, 54616, Note_on_c, 2, 52, 0
5, 54624, Note_on_c, 2, 45, 0
5, 54720, Note_on_c, 2, 64, 36
5, 54724, Note_on_c, 2, 61, 36
5, 54728, Note_on_c, 2, 57, 36
5, 54732, Note_on_c, 2, 52, 36
5, 54736, Note_on_c, 2, 45, 36
5, 54976, Note_on_c, 2, 64, 0
5, 54980, Note_on_c, 2, 61, 0
5, 54984, Note_on_c, 2, 57, 0
5, 54988, Note_on_c, 2, 52, 0
5, 54992, Note_on_c, 2, 45, 0
5, 55104, Note_on_c, 2, 64, 28
5, 55116, Note_on_c, 2, 61, 28
5, 55128, Note_on_c, 2, 57, 28
5, 55140, Note_on_c, 2, 52, 28
5, 55152, Note_on_c, 2, 45, 28
5, 55232, Note_on_c, 2, 64, 0
5, 55244, Note_on_c, 2, 61, 0
5, 55256, Note_on_c, 2, 57, 0
5, 55268, Note_on_c, 2, 52, 0
5, 55280, Note_on_c, 2, 45, 0
5, 55296, Note_on_c, 2, 50, 47
5, 55300, Note_on_c, 2, 57, 47
5, 55304, Note_on_c, 2, 62, 47
5, 55312, Note_on_c, 2, 66, 47
5, 55316, Note_on_c, 2, 69, 47
5, 55808, Note_on_c, 2, 50, 0
5, 55812, Note_on_c, 2, 57, 0
5, 55816, Note_on_c, 2, 62, 0
5, 55824, Note_on_c, 2, 66, 0
5, 55828, Note_on_c, 2, 69, 0
5, 55872, Note_on_c, 2, 69, 36
5, 55876, Note_on_c, 2, 66, 36
5, 55880, Note_on_c, 2, 62, 36
5, 55884, Note_on_c, 2, 57, 36
5, 55888, Note_on_c, 2, 50, 36
5, 56128, Note_on_c, 2, 69, 0
5, 56132, Note_on_c, 2, 66, 0
5, 56136, Note_on_c, 2, 62, 0
5, 56140, Note_on_c, 2, 57, 0
5, 56144, Note_on_c, 2, 50, 0
5, 56256, Note_on_c, 2, 69, 36
5, 56260, Note_on_c, 2, 66, 36
5, 56264, Note_on_c, 2, 62, 36
5, 56268, Note_on_c, 2, 57, 36
5, 56272, Note_on_c, 2, 50, 36
5, 56512, Note_on_c, 2, 69, 0
5, 56516, Note_on_c, 2, 66, 0
5, 56520, Note_on_c, 2, 62, 0
5, 56524, Note_on_c, 2, 57, 0
5, 56528, Note_on_c, 2, 50, 0
5, 56640, Note_on_c, 2, 69, 28
5, 56652, Note_on_c, 2, 66, 28
5, 56664, Note_on_c, 2, 62, 28
5, 56676, Note_on_c, 2, 57, 28
5, 56688, Note_on_c, 2, 50, 28
5, 56768, Note_on_c, 2, 69, 0
5, 56780, Note_on_c, 2, 66, 0
5, 56792, Note_on_c, 2, 62, 0
5, 56804, Note_on_c, 2, 57, 0
5, 56808, Note_on_c, 2, 45, 47
5, 56816, Note_on_c, 2, 50, 0
5, 56824, Note_on_c, 2, 52, 47
5, 56832, Note_on_c, 2, 57, 47
5, 56852, Note_on_c, 2, 61, 47
5, 56872, Note_on_c, 2, 64, 47
5, 57320, Note_on_c, 2, 45, 0
5, 57336, Note_on_c, 2, 52, 0
5, 57344, Note_on_c, 2, 57, 0
5, 57364, Note_on_c, 2, 61, 0
5, 57384, Note_on_c, 2, 64, 0
5, 57408, Note_on_c, 2, 64, 36
5, 57416, Note_on_c, 2, 61, 36
5, 57424, Note_on_c, 2, 57, 36
5, 57432, Note_on_c, 2, 52, 36
5, 57440, Note_on_c, 2, 45, 36
5, 57664, Note_on_c, 2, 64, 0
5, 57672, Note_on_c, 2, 61, 0
5, 57680, Note_on_c, 2, 57, 0
5, 57688, Note_on_c, 2, 52, 0
5, 57696, Note_on_c, 2, 45, 0
5, 57792, Note_on_c, 2, 64, 36
5, 57796, Note_on_c, 2, 61, 36
5, 57800, Note_on_c, 2, 57, 36
5, 57804, Note_on_c, 2, 52, 36
5, 57808, Note_on_c, 2, 45, 36
5, 58048, Note_on_c, 2, 64, 0
5, 58052, Note_on_c, 2, 61, 0
5, 58056, Note_on_c, 2, 57, 0
5, 58060, Note_on_c, 2, 52, 0
5, 58064, Note_on_c, 2, 45, 0
5, 58176, Note_on_c, 2, 64, 28
5, 58188, Note_on_c, 2, 61, 28
5, 58200, Note_on_c, 2, 57, 28
5, 58212, Note_on_c, 2, 52, 28
5, 58224, Note_on_c, 2, 45, 28
5, 58304, Note_on_c, 2, 64, 0
5, 58316, Note_on_c, 2, 61, 0
5, 58328, Note_on_c, 2, 57, 0
5, 58340, Note_on_c, 2, 52, 0
5, 58344, Note_on_c, 2, 40, 47
5, 58352, Note_on_c, 2, 45, 0
5, 58360, Note_on_c, 2, 47, 47
5, 58368, Note_on_c, 2, 52, 47
5, 58388, Note_on_c, 2, 57, 47
5, 58408, Note_on_c, 2, 59, 47
5, 58856, Note_on_c, 2, 40, 0
5, 58872, Note_on_c, 2, 47, 0
5, 58880, Note_on_c, 2, 52, 0
5, 58900, Note_on_c, 2, 57, 0
5, 58920, Note_on_c, 2, 59, 0
5, 58944, Note_on_c, 2, 59, 36
5, 58952, Note_on_c, 2, 57, 36
5, 58960, Note_on_c, 2, 52, 36
5, 58968, Note_on_c, 2, 47, 36
5, 58976, Note_on_c, 2, 40, 36
5, 59200, Note_on_c, 2, 59, 0
5, 59208, Note_on_c, 2, 57, 0
5, 59216, Note_on_c, 2, 52, 0
5, 59224, Note_on_c, 2, 47, 0
5, 59232, Note_on_c, 2, 40, 0
5, 59328, Note_on_c, 2, 59, 36
5, 59332, Note_on_c, 2, 57, 36
5, 59336, Note_on_c, 2, 52, 36
5, 59340, Note_on_c, 2, 47, 36
5, 59344, Note_on_c, 2, 40, 36
5, 59584, Note_on_c, 2, 59, 0
5, 59588, Note_on_c, 2, 57, 0
5, 59592, Note_on_c, 2, 52, 0
5, 59596, Note_on_c, 2, 47, 0
5, 59600, Note_on_c, 2, 40, 0
5, 59712, Note_on_c, 2, 59, 28
5, 59724, Note_on_c, 2, 57, 28
5, 59736, Note_on_c, 2, 52, 28
5, 59748, Note_on_c, 2, 47, 28
5, 59760, Note_on_c, 2, 40, 28
5, 59840, Note_on_c, 2, 59, 0
5, 59852, Note_on_c, 2, 57, 0
5, 59864, Note_on_c, 2, 52, 0
5, 59876, Note_on_c, 2, 47, 0
5, 59880, Note_on_c, 2, 40, 47
5, 59888, Note_on_c, 2, 40, 0
5, 59896, Note_on_c, 2, 47, 47
5, 59904, Note_on_c, 2, 52, 47
5, 59924, Note_on_c, 2, 56, 47
5, 59944, Note_on_c, 2, 59, 47
5, 60392, Note_on_c, 2, 40, 0
5, 60408, Note_on_c, 2, 47, 0
5, 60416, Note_on_c, 2, 52, 0
5, 60436, Note_on_c, 2, 56, 0
5, 60456, Note_on_c, 2, 59, 0
5, 60480, Note_on_c, 2, 59, 36
5, 60488, Note_on_c, 2, 56, 36
5, 60496, Note_on_c, 2, 52, 36
5, 60504, Note_on_c, 2, 47, 36
5, 60512, Note_on_c, 2, 40, 36
5, 60736, Note_on_c, 2, 59, 0
5, 60744, Note_on_c, 2, 56, 0
5, 60752, Note_on_c, 2, 52, 0
5, 60760, Note_on_c, 2, 47, 0
5, 60768, Note_on_c, 2, 40, 0
5, 60864, Note_on_c, 2, 59, 36
5, 60868, Note_on_c, 2, 56, 36
5, 60872, Note_on_c, 2, 52, 36
5, 60876, Note_on_c, 2, 47, 36
5, 60880, Note_on_c, 2, 40, 36
5, 61120, Note_on_c, 2, 59, 0
5, 61124, Note_on_c, 2, 56, 0
5, 61128, Note_on_c, 2, 52, 0
5, 61132, Note_on_c, 2, 47, 0
5, 61136, Note_on_c, 2, 40, 0
5, 61248, Note_on_c, 2, 59, 28
5, 61260, Note_on_c, 2, 56, 28
5, 61272, Note_on_c, 2, 52, 28
5, 61284, Note_on_c, 2, 47, 28
5, 61296, Note_on_c, 2, 40, 28
5, 61376, Note_on_c, 2, 59, 0
5, 61388, Note_on_c, 2, 56, 0
5, 61400, Note_on_c, 2, 52, 0
5, 61412, Note_on_c, 2, 47, 0
5, 61416, Note_on_c, 2, 40, 47
5, 61424, Note_on_c, 2, 40, 0
5, 61432, Note_on_c, 2, 47, 47
5, 61440, Note_on_c, 2, 52, 47
5, 61460, Note_on_c, 2, 56, 47
5, 61480, Note_on_c, 2, 59, 47
5, 61928, Note_on_c, 2, 40, 0
5, 61944, Note_on_c, 2, 47, 0
5, 61952, Note_on_c, 2, 52, 0
5, 61972, Note_on_c, 2, 56, 0
5, 61992, Note_on_c, 2, 59, 0
5, 62016, Note_on_c, 2, 59, 36
5, 62024, Note_on_c, 2, 56, 36
5, 62032, Note_on_c, 2, 52, 36
5, 62040, Note_on_c, 2, 47, 36
5, 62048, Note_on_c, 2, 40, 36
5, 62272, Note_on_c, 2, 59, 0
5, 62280, Note_on_c, 2, 56, 0
5, 62288, Note_on_c, 2, 52, 0
5, 62296, Note_on_c, 2, 47, 0
5, 62304, Note_on_c, 2, 40, 0
5, 62400, Note_on_c, 2, 59, 36
5, 62404, Note_on_c, 2, 56, 36
5, 62408, Note_on_c, 2, 52, 36
5, 62412, Note_on_c, 2, 47, 36
5, 62416, Note_on_c, 2, 40, 36
5, 62656, Note_on_c, 2, 59, 0
5, 62660, Note_on_c, 2, 56, 0
5, 62664, Note_on_c, 2, 52, 0
5, 62668, Note_on_c, 2, 47, 0
5, 62672, Note_on_c, 2, 40, 0
5, 62784, Note_on_c, 2, 59, 28
5, 62796, Note_on_c, 2, 56, 28
5, 62808, Note_on_c, 2, 52, 28
5, 62820, Note_on_c, 2, 47, 28
5, 62832, Note_on_c, 2, 40, 28
5, 62912, Note_on_c, 2, 59, 0
5, 62924, Note_on_c, 2, 56, 0
5, 62936, Note_on_c, 2, 52, 0
5, 62948, Note_on_c, 2, 47, 0
5, 62952, Note_on_c, 2, 40, 47
5, 62960, Note_on_c, 2, 40, 0
5, 62968, Note_on_c, 2, 47, 47
5, 62976, Note_on_c, 2, 52, 47
5, 62996, Note_on_c, 2, 56, 47
5, 63016, Note_on_c, 2, 59, 47
5, 63464, Note_on_c, 2, 40, 0
5, 63480, Note_on_c, 2, 47, 0
5, 63488, Note_on_c, 2, 52, 0
5, 63508, Note_on_c, 2, 56, 0
5, 63528, Note_on_c, 2, 59, 0
5, 63552, Note_on_c, 2, 59, 36
5, 63560, Note_on_c, 2, 56, 36
5, 63568, Note_on_c, 2, 52, 36
5, 63576, Note_on_c, 2, 47, 36
5, 63584, Note_on_c, 2, 40, 36
5, 63808, Note_on_c, 2, 59, 0
5, 63816, Note_on_c, 2, 56, 0
5, 63824, Note_on_c, 2, 52, 0
5, 63832, Note_on_c, 2, 47, 0
5, 63840, Note_on_c, 2, 40, 0
5, 63936, Note_on_c, 2, 59, 36
5, 63940, Note_on_c, 2, 56, 36
5, 63944, Note_on_c, 2, 52, 36
5, 63948, Note_on_c, 2, 47, 36
5, 63952, Note_on_c, 2, 40, 36
5, 64192, Note_on_c, 2, 59, 0
5, 64196, Note_on_c, 2, 56, 0
5, 64200, Note_on_c, 2, 52, 0
5, 64204, Note_on_c, 2, 47, 0
5, 64208, Note_on_c, 2, 40, 0
5, 64320, Note_on_c, 2, 59, 28
5, 64332, Note_on_c, 2, 56, 28
5, 64344, Note_on_c, 2, 52, 28
5, 64356, Note_on_c, 2, 47, 28
5, 64368, Note_on_c, 2, 40, 28
5, 64448, Note_on_c, 2, 59, 0
5, 64460, Note_on_c, 2, 56, 0
5, 64472, Note_on_c, 2, 52, 0
5, 64484, Note_on_c, 2, 47, 0
5, 64488, Note_on_c, 2, 40, 47
5, 64496, Note_on_c, 2, 40, 0
5, 64504, Note_on_c, 2, 47, 47
5, 64512, Note_on_c, 2, 52, 47
5, 64532, Note_on_c, 2, 56, 47
5, 64552, Note_on_c, 2, 59, 47
5, 65000, Note_on_c, 2, 40, 0
5, 65016, Note_on_c, 2, 47, 0
5, 65024, Note_on_c, 2, 52, 0
5, 65044, Note_on_c, 2, 56, 0
5, 65064, Note_on_c, 2, 59, 0
5, 65088, Note_on_c, 2, 59, 36
5, 65096, Note_on_c, 2, 56, 36
5, 65104, Note_on_c, 2, 52, 36
5, 65112, Note_on_c, 2, 47, 36
5, 65120, Note_on_c, 2, 40, 36
5, 65344, Note_on_c, 2, 59, 0
5, 65352, Note_on_c, 2, 56, 0
5, 65360, Note_on_c, 2, 52, 0
5, 65368, Note_on_c, 2, 47, 0
5, 65376, Note_on_c, 2, 40, 0
5, 65472, Note_on_c, 2, 59, 36
5, 65476, Note_on_c, 2, 56, 36
5, 65480, Note_on_c, 2, 52, 36
5, 65484, Note_on_c, 2, 47, 36
5, 65488, Note_on_c, 2, 40, 36
5, 65728, Note_on_c, 2, 59, 0
5, 65732, Note_on_c, 2, 56, 0
5, 65736, Note_on_c, 2, 52, 0
5, 65740, Note_on_c, 2, 47, 0
5, 65744, Note_on_c, 2, 40, 0
5, 65856, Note_on_c, 2, 59, 28
5, 65868, Note_on_c, 2, 56, 28
5, 65880, Note_on_c, 2, 52, 28
5, 65892, Note_on_c, 2, 47, 28
5, 65904, Note_on_c, 2, 40, 28
5, 65984, Note_on_c, 2, 59, 0
5, 65996, Note_on_c, 2, 56, 0
5, 66008, Note_on_c, 2, 52, 0
5, 66020, Note_on_c, 2, 47, 0
5, 66024, Note_on_c, 2, 40, 47
5, 66032, Note_on_c, 2, 40, 0
5, 66040, Note_on_c, 2, 47, 47
5, 66048, Note_on_c, 2, 52, 47
5, 66068, Note_on_c, 2, 56, 47
5, 66088, Note_on_c, 2, 59, 47
5, 66536, Note_on_c, 2, 40, 0
5, 66552, Note_on_c, 2, 47, 0
5, 66560, Note_on_c, 2, 52, 0
5, 66580, Note_on_c, 2, 56, 0
5, 66600, Note_on_c, 2, 59, 0
5, 66624, Note_on_c, 2, 59, 36
5, 66632, Note_on_c, 2, 56, 36
5, 66640, Note_on_c, 2, 52, 36
5, 66648, Note_on_c, 2, 47, 36
5, 66656, Note_on_c, 2, 40, 36
5, 66880, Note_on_c, 2, 59, 0
5, 66888, Note_on_c, 2, 56, 0
5, 66896, Note_on_c, 2, 52, 0
5, 66904, Note_on_c, 2, 47, 0
5, 66912, Note_on_c, 2, 40, 0
5, 67008, Note_on_c, 2, 59, 36
5, 67012, Note_on_c, 2, 56, 36
5, 67016, Note_on_c, 2, 52, 36
5, 67020, Note_on_c, 2, 47, 36
5, 67024, Note_on_c, 2, 40, 36
5, 67264, Note_on_c, 2, 59, 0
5, 67268, Note_on_c, 2, 56, 0
5, 67272, Note_on_c, 2, 52, 0
5, 67276, Note_on_c, 2, 47, 0
5, 67280, Note_on_c, 2, 40, 0
5, 67392, Note_on_c, 2, 59, 28
5, 67404, Note_on_c, 2, 56, 28
5, 67416, Note_on_c, 2, 52, 28
5, 67428, Note_on_c, 2, 47, 28
5, 67440, Note_on_c, 2, 40, 28
5, 67520, Note_on_c, 2, 59, 0
5, 67532, Note_on_c, 2, 56, 0
5, 67544, Note_on_c, 2, 52, 0
5, 67556, Note_on_c, 2, 47, 0
5, 67560, Note_on_c, 2, 40, 47
5, 67568, Note_on_c, 2, 40, 0
5, 67576, Note_on_c, 2, 47, 47
5, 67584, Note_on_c, 2, 52, 47
5, 67604, Note_on_c, 2, 56, 47
5, 67624, Note_on_c, 2, 59, 47
5, 68072, Note_on_c, 2, 40, 0
5, 68088, Note_on_c, 2, 47, 0
5, 68096, Note_on_c, 2, 52, 0
5, 68116, Note_on_c, 2, 56, 0
5, 68136, Note_on_c, 2, 59, 0
5, 68160, Note_on_c, 2, 59, 36
5, 68168, Note_on_c, 2, 56, 36
5, 68176, Note_on_c, 2, 52, 36
5, 68184, Note_on_c, 2, 47, 36
5, 68192, Note_on_c, 2, 40, 36
5, 68416, Note_on_c, 2, 59, 0
5, 68424, Note_on_c, 2, 56, 0
5, 68432, Note_on_c, 2, 52, 0
5, 68440, Note_on_c, 2, 47, 0
5, 68448, Note_on_c, 2, 40, 0
5, 68544, Note_on_c, 2, 59, 36
5, 68548, Note_on_c, 2, 56, 36
5, 68552, Note_on_c, 2, 52, 36
5, 68556, Note_on_c, 2, 47, 36
5, 68560, Note_on_c, 2, 40, 36
5, 68800, Note_on_c, 2, 59, 0
5, 68804, Note_on_c, 2, 56, 0
5, 68808, Note_on_c, 2, 52, 0
5, 68812, Note_on_c, 2, 47, 0
5, 68816, Note_on_c, 2, 40, 0
5, 68928, Note_on_c, 2, 59, 28
5, 68940, Note_on_c, 2, 56, 28
5, 68952, Note_on_c, 2, 52, 28
5, 68964, Note_on_c, 2, 47, 28
5, 68976, Note_on_c, 2, 40, 28
5, 69056, Note_on_c, 2, 59, 0
5, 69068, Note_on_c, 2, 56, 0
5, 69080, Note_on_c, 2, 52, 0
5, 69092, Note_on_c, 2, 47, 0
5, 69096, Note_on_c, 2, 40, 47
5, 69104, Note_on_c, 2, 40, 0
5, 69112, Note_on_c, 2, 47, 47
5, 69120, Note_on_c, 2, 52, 47
5, 69140, Note_on_c, 2, 56, 47
5, 69160, Note_on_c, 2, 59, 47
5, 69608, Note_on_c, 2, 40, 0
5, 69624, Note_on_c, 2, 47, 0
5, 69632, Note_on_c, 2, 52, 0
5, 69652, Note_on_c, 2, 56, 0
5, 69672, Note_on_c, 2, 59, 0
5, 70632, Note_on_c, 2, 45, 47
5, 70648, Note_on_c, 2, 52, 47
5, 70656, Note_on_c, 2, 57, 47
5, 70676, Note_on_c, 2, 61, 47
5, 70696, Note_on_c, 2, 64, 47
5, 71144, Note_on_c, 2, 45, 0
5, 71160, Note_on_c, 2, 52, 0
5, 71168, Note_on_c, 2, 57, 0
5, 71188, Note_on_c, 2, 61, 0
5, 71208, Note_on_c, 2, 64, 0
5, 71232, Note_on_c, 2, 64, 36
5, 71240, Note_on_c, 2, 61, 36
5, 71248, Note_on_c, 2, 57, 36
5, 71256, Note_on_c, 2, 52, 36
5, 71264, Note_on_c, 2, 45, 36
5, 71488, Note_on_c, 2, 64, 0
5, 71496, Note_on_c, 2, 61, 0
5, 71504, Note_on_c, 2, 57, 0
5, 71512, Note_on_c, 2, 52, 0
5, 71520, Note_on_c, 2, 45, 0
5, 71616, Note_on_c, 2, 64, 36
5, 71620, Note_on_c, 2, 61, 36
5, 71624, Note_on_c, 2, 57, 36
5, 71628, Note_on_c, 2, 52, 36
5, 71632, Note_on_c, 2, 45, 36
5, 71872, Note_on_c, 2, 64, 0
5, 71876, Note_on_c, 2, 61, 0
5, 71880, Note_on_c, 2, 57, 0
5, 71884, Note_on_c, 2, 52, 0
5, 71888, Note_on_c, 2, 45, 0
5, 72000, Note_on_c, 2, 64, 28
5, 72012, Note_on_c, 2, 61, 28
5, 72024, Note_on_c, 2, 57, 28
5, 72036, Note_on_c, 2, 52, 28
5, 72048, Note_on_c, 2, 45, 28
5, 72128, Note_on_c, 2, 64, 0
5, 72140, Note_on_c, 2, 61, 0
5, 72152, Note_on_c, 2, 57, 0
5, 72164, Note_on_c, 2, 52, 0
5, 72176, Note_on_c, 2, 45, 0
5, 72192, Note_on_c, 2, 50, 47
5, 72196, Note_on_c, 2, 57, 47
5, 72200, Note_on_c, 2, 62, 47
5, 72208, Note_on_c, 2, 66, 47
5, 72212, Note_on_c, 2, 69, 47
5, 72704, Note_on_c, 2, 50, 0
5, 72708, Note_on_c, 2, 57, 0
5, 72712, Note_on_c, 2, 62, 0
5, 72720, Note_on_c, 2, 66, 0
5, 72724, Note_on_c, 2, 69, 0
5, 72768, Note_on_c, 2, 69, 36
5, 72772, Note_on_c, 2, 66, 36
5, 72776, Note_on_c, 2, 62, 36
5, 72780, Note_on_c, 2, 57, 36
5, 72784, Note_on_c, 2, 50, 36
5, 73024, Note_on_c, 2, 69, 0
5, 73028, Note_on_c, 2, 66, 0
5, 73032, Note_on_c, 2, 62, 0
5, 73036, Note_on_c, 2, 57, 0
5, 73040, Note_on_c, 2, 50, 0
5, 73152, Note_on_c, 2, 69, 36
5, 73156, Note_on_c, 2, 66, 36
5, 73160, Note_on_c, 2, 62, 36
5, 73164, Note_on_c, 2, 57, 36
5, 73168, Note_on_c, 2, 50, 36
5, 73408, Note_on_c, 2, 69, 0
5, 73412, Note_on_c, 2, 66, 0
5, 73416, Note_on_c, 2, 62, 0
5, 73420, Note_on_c, 2, 57, 0
5, 73424, Note_on_c, 2, 50, 0
5, 73536, Note_on_c, 2, 69, 28
5, 73548, Note_on_c, 2, 66, 28
5, 73560, Note_on_c, 2, 62, 28
5, 73572, Note_on_c, 2, 57, 28
5, 73584, Note_on_c, 2, 50, 28
5, 73664, Note_on_c, 2, 69, 0
5, 73676, Note_on_c, 2, 66, 0
5, 73688, Note_on_c, 2, 62, 0
5, 73700, Note_on_c, 2, 57, 0
5, 73704, Note_on_c, 2, 45, 47
5, 73712, Note_on_c, 2, 50, 0
5, 73720, Note_on_c, 2, 52, 47
5, 73728, Note_on_c, 2, 57, 47
5, 73748, Note_on_c, 2, 61, 47
5, 73768, Note_on_c, 2, 64, 47
5, 74216, Note_on_c, 2, 45, 0
5, 74232, Note_on_c, 2, 52, 0
5, 74240, Note_on_c, 2, 57, 0
5, 74260, Note_on_c, 2, 61, 0
5, 74280, Note_on_c, 2, 64, 0
5, 74304, Note_on_c, 2, 64, 36
5, 74312, Note_on_c, 2, 61, 36
5, 74320, Note_on_c, 2, 57, 36
5, 74328, Note_on_c, 2, 52, 36
5, 74336, Note_on_c, 2, 45, 36
5, 74560, Note_on_c, 2, 64, 0
5, 74568, Note_on_c, 2, 61, 0
5, 74576, Note_on_c, 2, 57, 0
5, 74584, Note_on_c, 2, 52, 0
5, 74592, Note_on_c, 2, 45, 0
5, 74688, Note_on_c, 2, 64, 36
5, 74692, Note_on_c, 2, 61, 36
5, 74696, Note_on_c, 2, 57, 36
5, 74700, Note_on_c, 2, 52, 36
5, 74704, Note_on_c, 2, 45, 36
5, 74944, Note_on_c, 2, 64, 0
5, 74948, Note_on_c, 2, 61, 0
5, 74952, Note_on_c, 2, 57, 0
5, 74956, Note_on_c, 2, 52, 0
5, 74960, Note_on_c, 2, 45, 0
5, 75072, Note_on_c, 2, 64, 28
5, 75084, Note_on_c, 2, 61, 28
5, 75096, Note_on_c, 2, 57, 28
5, 75108, Note_on_c, 2, 52, 28
5, 75120, Note_on_c, 2, 45, 28
5, 75200, Note_on_c, 2, 64, 0
5, 75212, Note_on_c, 2, 61, 0
5, 75224, Note_on_c, 2, 57, 0
5, 75236, Note_on_c, 2, 52, 0
5, 75248, Note_on_c, 2, 45, 0
5, 75264, Note_on_c, 2, 50, 47
5, 75268, Note_on_c, 2, 57, 47
5, 75272, Note_on_c, 2, 62, 47
5, 75280, Note_on_c, 2, 66, 47
5, 75284, Note_on_c, 2, 69, 47
5, 75776, Note_on_c, 2, 50, 0
5, 75780, Note_on_c, 2, 57, 0
5, 75784, Note_on_c, 2, 62, 0
5, 75792, Note_on_c, 2, 66, 0
5, 75796, Note_on_c, 2, 69, 0
5, 75840, Note_on_c, 2, 69, 36
5, 75844, Note_on_c, 2, 66, 36
5, 75848, Note_on_c, 2, 62, 36
5, 75852, Note_on_c, 2, 57, 36
5, 75856, Note_on_c, 2, 50, 36
5, 76096, Note_on_c, 2, 69, 0
5, 76100, Note_on_c, 2, 66, 0
5, 76104, Note_on_c, 2, 62, 0
5, 76108, Note_on_c, 2, 57, 0
5, 76112, Note_on_c, 2, 50, 0
5, 76224, Note_on_c, 2, 69, 36
5, 76228, Note_on_c, 2, 66, 36
5, 76232, Note_on_c, 2, 62, 36
5, 76236, Note_on_c, 2, 57, 36
5, 76240, Note_on_c, 2, 50, 36
5, 76480, Note_on_c, 2, 69, 0
5, 76484, Note_on_c, 2, 66, 0
5, 76488, Note_on_c, 2, 62, 0
5, 76492, Note_on_c, 2, 57, 0
5, 76496, Note_on_c, 2, 50, 0
5, 76608, Note_on_c, 2, 69, 28
5, 76620, Note_on_c, 2, 66, 28
5, 76632, Note_on_c, 2, 62, 28
5, 76644, Note_on_c, 2, 57, 28
5, 76656, Note_on_c, 2, 50, 28
5, 76736, Note_on_c, 2, 69, 0
5, 76748, Note_on_c, 2, 66, 0
5, 76760, Note_on_c, 2, 62, 0
5, 76772, Note_on_c, 2, 57, 0
5, 76776, Note_on_c, 2, 45, 47
5, 76784, Note_on_c, 2, 50, 0
5, 76792, Note_on_c, 2, 52, 47
5, 76800, Note_on_c, 2, 57, 47
5, 76820, Note_on_c, 2, 61, 47
5, 76840, Note_on_c, 2, 64, 47
5, 77288, Note_on_c, 2, 45, 0
5, 77304, Note_on_c, 2, 52, 0
5, 77312, Note_on_c, 2, 57, 0
5, 77332, Note_on_c, 2, 61, 0
5, 77352, Note_on_c, 2, 64, 0
5, 77376, Note_on_c, 2, 64, 36
5, 77384, Note_on_c, 2, 61, 36
5, 77392, Note_on_c, 2, 57, 36
5, 77400, Note_on_c, 2, 52, 36
5, 77408, Note_on_c, 2, 45, 36
5, 77632, Note_on_c, 2, 64, 0
5, 77640, Note_on_c, 2, 61, 0
5, 77648, Note_on_c, 2, 57, 0
5, 77656, Note_on_c, 2, 52, 0
5, 77664, Note_on_c, 2, 45, 0
5, 77760, Note_on_c, 2, 64, 36
5, 77764, Note_on_c, 2, 61, 36
5, 77768, Note_on_c, 2, 57, 36
5, 77772, Note_on_c, 2, 52, 36
5, 77776, Note_on_c, 2, 45, 36
5, 78016, Note_on_c, 2, 64, 0
5, 78020, Note_on_c, 2, 61, 0
5, 78024, Note_on_c, 2, 57, 0
5, 78028, Note_on_c, 2, 52, 0
5, 78032, Note_on_c, 2, 45, 0
5, 78144, Note_on_c, 2, 64, 28
5, 78156, Note_on_c, 2, 61, 28
5, 78168, Note_on_c, 2, 57, 28
5, 78180, Note_on_c, 2, 52, 28
5, 78192, Note_on_c, 2, 45, 28
5, 78272, Note_on_c, 2, 64, 0
5, 78284, Note_on_c, 2, 61, 0
5, 78296, Note_on_c, 2, 57, 0
5, 78308, Note_on_c, 2, 52, 0
5, 78320, Note_on_c, 2, 45, 0
5, 78336, Note_on_c, 2, 50, 47
5, 78340, Note_on_c, 2, 57, 47
5, 78344, Note_on_c, 2, 62, 47
5, 78352, Note_on_c, 2, 66, 47
5, 78356, Note_on_c, 2, 69, 47
5, 78848, Note_on_c, 2, 50, 0
5, 78852, Note_on_c, 2, 57, 0
5, 78856, Note_on_c, 2, 62, 0
5, 78864, Note_on_c, 2, 66, 0
5, 78868, Note_on_c, 2, 69, 0
5, 78912, Note_on_c, 2, 69, 36
5, 78916, Note_on_c, 2, 66, 36
5, 78920, Note_on_c, 2, 62, 36
5, 78924, Note_on_c, 2, 57, 36
5, 78928, Note_on_c, 2, 50, 36
5, 79168, Note_on_c, 2, 69, 0
5, 79172, Note_on_c, 2, 66, 0
5, 79176, Note_on_c, 2, 62, 0
5, 79180, Note_on_c, 2, 57, 0
5, 79184, Note_on_c, 2, 50, 0
5, 79296, Note_on_c, 2, 69, 36
5, 79300, Note_on_c, 2, 66, 36
5, 79304, Note_on_c, 2, 62, 36
5, 79308, Note_on_c, 2, 57, 36
5, 79312, Note_on_c, 2, 50, 36
5, 79552, Note_on_c, 2, 69, 0
5, 79556, Note_on_c, 2, 66, 0
5, 79560, Note_on_c, 2, 62, 0
5, 79564, Note_on_c, 2, 57, 0
5, 79568, Note_on_c, 2, 50, 0
5, 79680, Note_on_c, 2, 69, 28
5, 79692, Note_on_c, 2, 66, 28
5, 79704, Note_on_c, 2, 62, 28
5, 79716, Note_on_c, 2, 57, 28
5, 79728, Note_on_c, 2, 50, 28
5, 79808, Note_on_c, 2, 69, 0
5, 79820, Note_on_c, 2, 66, 0
5, 79832, Note_on_c, 2, 62, 0
5, 79844, Note_on_c, 2, 57, 0
5, 79848, Note_on_c, 2, 45, 47
5, 79856, Note_on_c, 2, 50, 0
5, 79864, Note_on_c, 2, 52, 47
5, 79872, Note_on_c, 2, 57, 47
5, 79892, Note_on_c, 2, 61, 47
5, 79912, Note_on_c, 2, 64, 47
5, 80360, Note_on_c, 2, 45, 0
5, 80376, Note_on_c, 2, 52, 0
5, 80384, Note_on_c, 2, 57, 0
5, 80404, Note_on_c, 2, 61, 0
5, 80424, Note_on_c, 2, 64, 0
5, 80448, Note_on_c, 2, 64, 36
5, 80456, Note_on_c, 2, 61, 36
5, 80464, Note_on_c, 2, 57, 36
5, 80472, Note_on_c, 2, 52, 36
5, 80480, Note_on_c, 2, 45, 36
5, 80704, Note_on_c, 2, 64, 0
5, 80712, Note_on_c, 2, 61, 0
5, 80720, Note_on_c, 2, 57, 0
5, 80728, Note_on_c, 2, 52, 0
5, 80736, Note_on_c, 2, 45, 0
5, 80832, Note_on_c, 2, 64, 36
5, 80836, Note_on_c, 2, 61, 36
5, 80840, Note_on_c, 2, 57, 36
5, 80844, Note_on_c, 2, 52, 36
5, 80848, Note_on_c, 2, 45, 36
5, 81088, Note_on_c, 2, 64, 0
5, 81092, Note_on_c, 2, 61, 0
5, 81096, Note_on_c, 2, 57, 0
5, 81100, Note_on_c, 2, 52, 0
5, 81104, Note_on_c, 2, 45, 0
5, 81216, Note_on_c, 2, 64, 28
5, 81228, Note_on_c, 2, 61, 28
5, 81240, Note_on_c, 2, 57, 28
5, 81252, Note_on_c, 2, 52, 28
5, 81264, Note_on_c, 2, 45, 28
5, 81344, Note_on_c, 2, 64, 0
5, 81356, Note_on_c, 2, 61, 0
5, 81368, Note_on_c, 2, 57, 0
5, 81380, Note_on_c, 2, 52, 0
5, 81392, Note_on_c, 2, 45, 0
5, 81408, Note_on_c, 2, 50, 47
5, 81412, Note_on_c, 2, 57, 47
5, 81416, Note_on_c, 2, 62, 47
5, 81424, Note_on_c, 2, 66, 47
5, 81428, Note_on_c, 2, 69, 47
5, 81920, Note_on_c, 2, 50, 0
5, 81924, Note_on_c, 2, 57, 0
5, 81928, Note_on_c, 2, 62, 0
5, 81936, Note_on_c, 2, 66, 0
5, 81940, Note_on_c, 2, 69, 0
5, 81984, Note_on_c, 2, 69, 36
5, 81988, Note_on_c, 2, 66, 36
5, 81992, Note_on_c, 2, 62, 36
5, 81996, Note_on_c, 2, 57, 36
5, 82000, Note_on_c, 2, 50, 36
5, 82240, Note_on_c, 2, 69, 0
5, 82244, Note_on_c, 2, 66, 0
5, 82248, Note_on_c, 2, 62, 0
5, 82252, Note_on_c, 2, 57, 0
5, 82256, Note_on_c, 2, 50, 0
5, 82368, Note_on_c, 2, 69, 36
5, 82372, Note_on_c, 2, 66, 36
5, 82376, Note_on_c, 2, 62, 36
5, 82380, Note_on_c, 2, 57, 36
5, 82384, Note_on_c, 2, 50, 36
5, 82624, Note_on_c, 2, 69, 0
5, 82628, Note_on_c, 2, 66, 0
5, 82632, Note_on_c, 2, 62, 0
5, 82636, Note_on_c, 2, 57, 0
5, 82640, Note_on_c, 2, 50, 0
5, 82752, Note_on_c, 2, 69, 28
5, 82764, Note_on_c, 2, 66, 28
5, 82776, Note_on_c, 2, 62, 28
5, 82788, Note_on_c, 2, 57, 28
5, 82800, Note_on_c, 2, 50, 28
5, 82880, Note_on_c, 2, 69, 0
5, 82892, Note_on_c, 2, 66, 0
5, 82904, Note_on_c, 2, 62, 0
5, 82916, Note_on_c, 2, 57, 0
5, 82920, Note_on_c, 2, 45, 47
5, 82928, Note_on_c, 2, 50, 0
5, 82936, Note_on_c, 2, 52, 47
5, 82944, Note_on_c, 2, 57, 47
5, 82964, Note_on_c, 2, 61, 47
5, 82984, Note_on_c, 2, 64, 47
5, 83432, Note_on_c, 2, 45, 0
5, 83448, Note_on_c, 2, 52, 0
5, 83456, Note_on_c, 2, 57, 0
5, 83476, Note_on_c, 2, 61, 0
5, 83496, Note_on_c, 2, 64, 0
5, 83520, Note_on_c, 2, 64, 36
5, 83528, Note_on_c, 2, 61, 36
5, 83536, Note_on_c, 2, 57, 36
5, 83544, Note_on_c, 2, 52, 36
5, 83552, Note_on_c, 2, 45, 36
5, 83776, Note_on_c, 2, 64, 0
5, 83784, Note_on_c, 2, 61, 0
5, 83792, Note_on_c, 2, 57, 0
5, 83800, Note_on_c, 2, 52, 0
5, 83808, Note_on_c, 2, 45, 0
5, 83904, Note_on_c, 2, 64, 36
5, 83908, Note_on_c, 2, 61, 36
5, 83912, Note_on_c, 2, 57, 36
5, 83916, Note_on_c, 2, 52, 36
5, 83920, Note_on_c, 2, 45, 36
5, 84160, Note_on_c, 2, 64, 0
5, 84164, Note_on_c, 2, 61, 0
5, 84168, Note_on_c, 2, 57, 0
5, 84172, Note_on_c, 2, 52, 0
5, 84176, Note_on_c, 2, 45, 0
5, 84288, Note_on_c, 2, 64, 28
5, 84300, Note_on_c, 2, 61, 28
5, 84312, Note_on_c, 2, 57, 28
5, 84324, Note_on_c, 2, 52, 28
5, 84336, Note_on_c, 2, 45, 28
5, 84416, Note_on_c, 2, 64, 0
5, 84428, Note_on_c, 2, 61, 0
5, 84440, Note_on_c, 2, 57, 0
5, 84452, Note_on_c, 2, 52, 0
5, 84464, Note_on_c, 2, 45, 0
5, 84480, Note_on_c, 2, 50, 47
5, 84484, Note_on_c, 2, 57, 47
5, 84488, Note_on_c, 2, 62, 47
5, 84496, Note_on_c, 2, 66, 47
5, 84500, Note_on_c, 2, 69, 47
5, 84992, Note_on_c, 2, 50, 0
5, 84996, Note_on_c, 2, 57, 0
5, 85000, Note_on_c, 2, 62, 0
5, 85008, Note_on_c, 2, 66, 0
5, 85012, Note_on_c, 2, 69, 0
5, 85056, Note_on_c, 2, 69, 36
5, 85060, Note_on_c, 2, 66, 36
5, 85064, Note_on_c, 2, 62, 36
5, 85068, Note_on_c, 2, 57, 36
5, 85072, Note_on_c, 2, 50, 36
5, 85312, Note_on_c, 2, 69, 0
5, 85316, Note_on_c, 2, 66, 0
5, 85320, Note_on_c, 2, 62, 0
5, 85324, Note_on_c, 2, 57, 0
5, 85328, Note_on_c, 2, 50, 0
5, 85440, Note_on_c, 2, 69, 36
5, 85444, Note_on_c, 2, 66, 36
5, 85448, Note_on_c, 2, 62, 36
5, 85452, Note_on_c, 2, 57, 36
5, 85456, Note_on_c, 2, 50, 36
5, 85696, Note_on_c, 2, 69, 0
5, 85700, Note_on_c, 2, 66, 0
5, 85704, Note_on_c, 2, 62, 0
5, 85708, Note_on_c, 2, 57, 0
5, 85712, Note_on_c, 2, 50, 0
5, 85824, Note_on_c, 2, 69, 28
5, 85836, Note_on_c, 2, 66, 28
5, 85848, Note_on_c, 2, 62, 28
5, 85860, Note_on_c, 2, 57, 28
5, 85872, Note_on_c, 2, 50, 28
5, 85952, Note_on_c, 2, 69, 0
5, 85964, Note_on_c, 2, 66, 0
5, 85976, Note_on_c, 2, 62, 0
5, 85988, Note_on_c, 2, 57, 0
5, 85992, Note_on_c, 2, 45, 47
5, 86000, Note_on_c, 2, 50, 0
5, 86008, Note_on_c, 2, 52, 47
5, 86016, Note_on_c, 2, 57, 47
5, 86036, Note_on_c, 2, 61, 47
5, 86056, Note_on_c, 2, 64, 47
5, 86504, Note_on_c, 2, 45, 0
5, 86520, Note_on_c, 2, 52, 0
5, 86528, Note_on_c, 2, 57, 0
5, 86548, Note_on_c, 2, 61, 0
5, 86568, Note_on_c, 2, 64, 0
5, 86592, Note_on_c, 2, 64, 36
5, 86600, Note_on_c, 2, 61, 36
5, 86608, Note_on_c, 2, 57, 36
5, 86616, Note_on_c, 2, 52, 36
5, 86624, Note_on_c, 2, 45, 36
5, 86848, Note_on_c, 2, 64, 0
5, 86856, Note_on_c, 2, 61, 0
5, 86864, Note_on_c, 2, 57, 0
5, 86872, Note_on_c, 2, 52, 0
5, 86880, Note_on_c, 2, 45, 0
5, 86976, Note_on_c, 2, 64, 36
5, 86980, Note_on_c, 2, 61, 36
5, 86984, Note_on_c, 2, 57, 36
5, 86988, Note_on_c, 2, 52, 36
5, 86992, Note_on_c, 2, 45, 36
5, 87232, Note_on_c, 2, 64, 0
5, 87236, Note_on_c, 2, 61, 0
5, 87240, Note_on_c, 2, 57, 0
5, 87244, Note_on_c, 2, 52, 0
5, 87248, Note_on_c, 2, 45, 0
5, 87360, Note_on_c, 2, 64, 28
5, 87372, Note_on_c, 2, 61, 28
5, 87384, Note_on_c, 2, 57, 28
5, 87396, Note_on_c, 2, 52, 28
5, 87408, Note_on_c, 2, 45, 28
5, 87488, Note_on_c, 2, 64, 0
5, 87500, Note_on_c, 2, 61, 0
5, 87512, Note_on_c, 2, 57, 0
5, 87524, Note_on_c, 2, 52, 0
5, 87536, Note_on_c, 2, 45, 0
5, 87552, Note_on_c, 2, 50, 47
5, 87556, Note_on_c, 2, 57, 47
5, 87560, Note_on_c, 2, 62, 47
5, 87568, Note_on_c, 2, 66, 47
5, 87572, Note_on_c, 2, 69, 47
5, 88064, Note_on_c, 2, 50, 0
5, 88068, Note_on_c, 2, 57, 0
5, 88072, Note_on_c, 2, 62, 0
5, 88080, Note_on_c, 2, 66, 0
5, 88084, Note_on_c, 2, 69, 0
5, 88128, Note_on_c, 2, 69, 36
5, 88132, Note_on_c, 2, 66, 36
5, 88136, Note_on_c, 2, 62, 36
5, 88140, Note_on_c, 2, 57, 36
5, 88144, Note_on_c, 2, 50, 36
5, 88384, Note_on_c, 2, 69, 0
5, 88388, Note_on_c, 2, 66, 0
5, 88392, Note_on_c, 2, 62, 0
5, 88396, Note_on_c, 2, 57, 0
5, 88400, Note_on_c, 2, 50, 0
5, 88512, Note_on_c, 2, 69, 36
5, 88516, Note_on_c, 2, 66, 36
5, 88520, Note_on_c, 2, 62, 36
5, 88524, Note_on_c, 2, 57, 36
5, 88528, Note_on_c, 2, 50, 36
5, 88768, Note_on_c, 2, 69, 0
5, 88772, Note_on_c, 2, 66, 0
5, 88776, Note_on_c, 2, 62, 0
5, 88780, Note_on_c, 2, 57, 0
5, 88784, Note_on_c, 2, 50, 0
5, 88896, Note_on_c, 2, 69, 28
5, 88908, Note_on_c, 2, 66, 28
5, 88920, Note_on_c, 2, 62, 28
5, 88932, Note_on_c, 2, 57, 28
5, 88944, Note_on_c, 2, 50, 28
5, 89024, Note_on_c, 2, 69, 0
5, 89036, Note_on_c, 2, 66, 0
5, 89048, Note_on_c, 2, 62, 0
5, 89060, Note_on_c, 2, 57, 0
5, 89064, Note_on_c, 2, 45, 47
5, 89072, Note_on_c, 2, 50, 0
5, 89080, Note_on_c, 2, 52, 47
5, 89088, Note_on_c, 2, 57, 47
5, 89108, Note_on_c, 2, 61, 47
5, 89128, Note_on_c, 2, 64, 47
5, 89576, Note_on_c, 2, 45, 0
5, 89592, Note_on_c, 2, 52, 0
5, 89600, Note_on_c, 2, 57, 0
5, 89620, Note_on_c, 2, 61, 0
5, 89640, Note_on_c, 2, 64, 0
5, 89664, Note_on_c, 2, 64, 36
5, 89672, Note_on_c, 2, 61, 36
5, 89680, Note_on_c, 2, 57, 36
5, 89688, Note_on_c, 2, 52, 36
5, 89696, Note_on_c, 2, 45, 36
5, 89920, Note_on_c, 2, 64, 0
5, 89928, Note_on_c, 2, 61, 0
5, 89936, Note_on_c, 2, 57, 0
5, 89944, Note_on_c, 2, 52, 0
5, 89952, Note_on_c, 2, 45, 0
5, 90048, Note_on_c, 2, 64, 36
5, 90052, Note_on_c, 2, 61, 36
5, 90056, Note_on_c, 2, 57, 36
5, 90060, Note_on_c, 2, 52, 36
5, 90064, Note_on_c, 2, 45, 36
5, 90304, Note_on_c, 2, 64, 0
5, 90308, Note_on_c, 2, 61, 0
5, 90312, Note_on_c, 2, 57, 0
5, 90316, Note_on_c, 2, 52, 0
5, 90320, Note_on_c, 2, 45, 0
5, 90432, Note_on_c, 2, 64, 28
5, 90444, Note_on_c, 2, 61, 28
5, 90456, Note_on_c, 2, 57, 28
5, 90468, Note_on_c, 2, 52, 28
5, 90480, Note_on_c, 2, 45, 28
5, 90560, Note_on_c, 2, 64, 0
5, 90572, Note_on_c, 2, 61, 0
5, 90584, Note_on_c, 2, 57, 0
5, 90596, Note_on_c, 2, 52, 0
5, 90608, Note_on_c, 2, 45, 0
5, 90624, Note_on_c, 2, 50, 47
5, 90628, Note_on_c, 2, 57, 47
5, 90632, Note_on_c, 2, 62, 47
5, 90640, Note_on_c, 2, 66, 47
5, 90644, Note_on_c, 2, 69, 47
5, 91136, Note_on_c, 2, 50, 0
5, 91140, Note_on_c, 2, 57, 0
5, 91144, Note_on_c, 2, 62, 0
5, 91152, Note_on_c, 2, 66, 0
5, 91156, Note_on_c, 2, 69, 0
5, 91200, Note_on_c, 2, 69, 36
5, 91204, Note_on_c, 2, 66, 36
5, 91208, Note_on_c, 2, 62, 36
5, 91212, Note_on_c, 2, 57, 36
5, 91216, Note_on_c, 2, 50, 36
5, 91456, Note_on_c, 2, 69, 0
5, 91460, Note_on_c, 2, 66, 0
5, 91464, Note_on_c, 2, 62, 0
5, 91468, Note_on_c, 2, 57, 0
5, 91472, Note_on_c, 2, 50, 0
5, 91584, Note_on_c, 2, 69, 36
5, 91588, Note_on_c, 2, 66, 36
5, 91592, Note_on_c, 2, 62, 36
5, 91596, Note_on_c, 2, 57, 36
5, 91600, Note_on_c, 2, 50, 36
5, 91840, Note_on_c, 2, 69, 0
5, 91844, Note_on_c, 2, 66, 0
5, 91848, Note_on_c, 2, 62, 0
5, 91852, Note_on_c, 2, 57, 0
5, 91856, Note_on_c, 2, 50, 0
5, 91968, Note_on_c, 2, 69, 28
5, 91980, Note_on_c, 2, 66, 28
5, 91992, Note_on_c, 2, 62, 28
5, 92004, Note_on_c, 2, 57, 28
5, 92016, Note_on_c, 2, 50, 28
5, 92096, Note_on_c, 2, 69, 0
5, 92108, Note_on_c, 2, 66, 0
5, 92120, Note_on_c, 2, 62, 0
5, 92132, Note_on_c, 2, 57, 0
5, 92136, Note_on_c, 2, 45, 47
5, 92144, Note_on_c, 2, 50, 0
5, 92152, Note_on_c, 2, 52, 47
5, 92160, Note_on_c, 2, 57, 47
5, 92180, Note_on_c, 2, 61, 47
5, 92200, Note_on_c, 2, 64, 47
5, 92648, Note_on_c, 2, 45, 0
5, 92664, Note_on_c, 2, 52, 0
5, 92672, Note_on_c, 2, 57, 0
5, 92692, Note_on_c, 2, 61, 0
5, 92712, Note_on_c, 2, 64, 0
5, 92736, Note_on_c, 2, 64, 36
5, 92744, Note_on_c, 2, 61, 36
5, 92752, Note_on_c, 2, 57, 36
5, 92760, Note_on_c, 2, 52, 36
5, 92768, Note_on_c, 2, 45, 36
5, 92992, Note_on_c, 2, 64, 0
5, 93000, Note_on_c, 2, 61, 0
5, 93008, Note_on_c, 2, 57, 0
5, 93016, Note_on_c, 2, 52, 0
5, 93024, Note_on_c, 2, 45, 0
5, 93120, Note_on_c, 2, 64, 36
5, 93124, Note_on_c, 2, 61, 36
5, 93128, Note_on_c, 2, 57, 36
5, 93132, Note_on_c, 2, 52, 36
5, 93136, Note_on_c, 2, 45, 36
5, 93376, Note_on_c, 2, 64, 0
5, 93380, Note_on_c, 2, 61, 0
5, 93384, Note_on_c, 2, 57, 0
5, 93388, Note_on_c, 2, 52, 0
5, 93392, Note_on_c, 2, 45, 0
5, 93504, Note_on_c, 2, 64, 28
5, 93516, Note_on_c, 2, 61, 28
5, 93528, Note_on_c, 2, 57, 28
5, 93540, Note_on_c, 2, 52, 28
5, 93552, Note_on_c, 2, 45, 28
5, 93632, Note_on_c, 2, 64, 0
5, 93644, Note_on_c, 2, 61, 0
5, 93656, Note_on_c, 2, 57, 0
5, 93668, Note_on_c, 2, 52, 0
5, 93680, Note_on_c, 2, 45, 0
5, 93696, Note_on_c, 2, 50, 47
5, 93700, Note_on_c, 2, 57, 47
5, 93704, Note_on_c, 2, 62, 47
5, 93712, Note_on_c, 2, 66, 47
5, 93716, Note_on_c, 2, 69, 47
5, 94208, Note_on_c, 2, 50, 0
5, 94212, Note_on_c, 2, 57, 0
5, 94216, Note_on_c, 2, 62, 0
5, 94224, Note_on_c, 2, 66, 0
5, 94228, Note_on_c, 2, 69, 0
5, 94272, Note_on_c, 2, 69, 36
5, 94276, Note_on_c, 2, 66, 36
5, 94280, Note_on_c, 2, 62, 36
5, 94284, Note_on_c, 2, 57, 36
5, 94288, Note_on_c, 2, 50, 36
5, 94528, Note_on_c, 2, 69, 0
5, 94532, Note_on_c, 2, 66, 0
5, 94536, Note_on_c, 2, 62, 0
5, 94540, Note_on_c, 2, 57, 0
5, 94544, Note_on_c, 2, 50, 0
5, 94656, Note_on_c, 2, 69, 36
5, 94660, Note_on_c, 2, 66, 36
5, 94664, Note_on_c, 2, 62, 36
5, 94668, Note_on_c, 2, 57, 36
5, 94672, Note_on_c, 2, 50, 36
5, 94912, Note_on_c, 2, 69, 0
5, 94916, Note_on_c, 2, 66, 0
5, 94920, Note_on_c, 2, 62, 0
5, 94924, Note_on_c, 2, 57, 0
5, 94928, Note_on_c, 2, 50, 0
5, 95040, Note_on_c, 2, 69, 28
5, 95052, Note_on_c, 2, 66, 28
5, 95064, Note_on_c, 2, 62, 28
5, 95076, Note_on_c, 2, 57, 28
5, 95088, Note_on_c, 2, 50, 28
5, 95168, Note_on_c, 2, 69, 0
5, 95180, Note_on_c, 2, 66, 0
5, 95192, Note_on_c, 2, 62, 0
5, 95204, Note_on_c, 2, 57, 0
5, 95208, Note_on_c, 2, 45, 47
5, 95216, Note_on_c, 2, 50, 0
5, 95224, Note_on_c, 2, 52, 47
5, 95232, Note_on_c, 2, 57, 47
5, 95252, Note_on_c, 2, 61, 47
5, 95272, Note_on_c, 2, 64, 47
5, 95720, Note_on_c, 2, 45, 0
5, 95736, Note_on_c, 2, 52, 0
5, 95744, Note_on_c, 2, 57, 0
5, 95764, Note_on_c, 2, 61, 0
5, 95784, Note_on_c, 2, 64, 0
5, 95808, Note_on_c, 2, 64, 36
5, 95816, Note_on_c, 2, 61, 36
5, 95824, Note_on_c, 2, 57, 36
5, 95832, Note_on_c, 2, 52, 36
5, 95840, Note_on_c, 2, 45, 36
5, 96064, Note_on_c, 2, 64, 0
5, 96072, Note_on_c, 2, 61, 0
5, 96080, Note_on_c, 2, 57, 0
5, 96088, Note_on_c, 2, 52, 0
5, 96096, Note_on_c, 2, 45, 0
5, 96192, Note_on_c, 2, 64, 36
5, 96196, Note_on_c, 2, 61, 36
5, 96200, Note_on_c, 2, 57, 36
5, 96204, Note_on_c, 2, 52, 36
5, 96208, Note_on_c, 2, 45, 36
5, 96448, Note_on_c, 2, 64, 0
5, 96452, Note_on_c, 2, 61, 0
5, 96456, Note_on_c, 2, 57, 0
5, 96460, Note_on_c, 2, 52, 0
5, 96464, Note_on_c, 2, 45, 0
5, 96576, Note_on_c, 2, 64, 28
5, 96588, Note_on_c, 2, 61, 28
5, 96600, Note_on_c, 2, 57, 28
5, 96612, Note_on_c, 2, 52, 28
5, 96624, Note_on_c, 2, 45, 28
5, 96704, Note_on_c, 2, 64, 0
5, 96716, Note_on_c, 2, 61, 0
5, 96728, Note_on_c, 2, 57, 0
5, 96740, Note_on_c, 2, 52, 0
5, 96752, Note_on_c, 2, 45, 0
5, 96768, Note_on_c, 2, 50, 47
5, 96772, Note_on_c, 2, 57, 47
5, 96776, Note_on_c, 2, 62, 47
5, 96784, Note_on_c, 2, 66, 47
5, 96788, Note_on_c, 2, 69, 47
5, 97280, Note_on_c, 2, 50, 0
5, 97284, Note_on_c, 2, 57, 0
5, 97288, Note_on_c, 2, 62, 0
5, 97296, Note_on_c, 2, 66, 0
5, 97300, Note_on_c, 2, 69, 0
5, 97344, Note_on_c, 2, 69, 36
5, 97348, Note_on_c, 2, 66, 36
5, 97352, Note_on_c, 2, 62, 36
5, 97356, Note_on_c, 2, 57, 36
5, 97360, Note_on_c, 2, 50, 36
5, 97600, Note_on_c, 2, 69, 0
5, 97604, Note_on_c, 2, 66, 0
5, 97608, Note_on_c, 2, 62, 0
5, 97612, Note_on_c, 2, 57, 0
5, 97616, Note_on_c, 2, 50, 0
5, 97728, Note_on_c, 2, 69, 36
5, 97732, Note_on_c, 2, 66, 36
5, 97736, Note_on_c, 2, 62, 36
5, 97740, Note_on_c, 2, 57, 36
5, 97744, Note_on_c, 2, 50, 36
5, 97984, Note_on_c, 2, 69, 0
5, 97988, Note_on_c, 2, 66, 0
5, 97992, Note_on_c, 2, 62, 0
5, 97996, Note_on_c, 2, 57, 0
5, 98000, Note_on_c, 2, 50, 0
5, 98112, Note_on_c, 2, 69, 28
5, 98124, Note_on_c, 2, 66, 28
5, 98136, Note_on_c, 2, 62, 28
5, 98148, Note_on_c, 2, 57, 28
5, 98160, Note_on_c, 2, 50, 28
5, 98240, Note_on_c, 2, 69, 0
5, 98252, Note_on_c, 2, 66, 0
5, 98264, Note_on_c, 2, 62, 0
5, 98276, Note_on_c, 2, 57, 0
5, 98280, Note_on_c, 2, 45, 47
5, 98288, Note_on_c, 2, 50, 0
5, 98296, Note_on_c, 2, 52, 47
5, 98304, Note_on_c, 2, 57, 47
5, 98324, Note_on_c, 2, 61, 47
5, 98344, Note_on_c, 2, 64, 47
5, 98792, Note_on_c, 2, 45, 0
5, 98808, Note_on_c, 2, 52, 0
5, 98816, Note_on_c, 2, 57, 0
5, 98836, Note_on_c, 2, 61, 0
5, 98856, Note_on_c, 2, 64, 0
5, 98880, Note_on_c, 2, 64, 36
5, 98888, Note_on_c, 2, 61, 36
5, 98896, Note_on_c, 2, 57, 36
5, 98904, Note_on_c, 2, 52, 36
5, 98912, Note_on_c, 2, 45, 36
5, 99136, Note_on_c, 2, 64, 0
5, 99144, Note_on_c, 2, 61, 0
5, 99152, Note_on_c, 2, 57, 0
5, 99160, Note_on_c, 2, 52, 0
5, 99168, Note_on_c, 2, 45, 0
5, 99264, Note_on_c, 2, 64, 36
5, 99268, Note_on_c, 2, 61, 36
5, 99272, Note_on_c, 2, 57, 36
5, 99276, Note_on_c, 2, 52, 36
5, 99280, Note_on_c, 2, 45, 36
5, 99520, Note_on_c, 2, 64, 0
5, 99524, Note_on_c, 2, 61, 0
5, 99528, Note_on_c, 2, 57, 0
5, 99532, Note_on_c, 2, 52, 0
5, 99536, Note_on_c, 2, 45, 0
5, 99648, Note_on_c, 2, 64, 28
5, 99660, Note_on_c, 2, 61, 28
5, 99672, Note_on_c, 2, 57, 28
5, 99684, Note_on_c, 2, 52, 28
5, 99696, Note_on_c, 2, 45, 28
5, 99776, Note_on_c, 2, 64, 0
5, 99788, Note_on_c, 2, 61, 0
5, 99800, Note_on_c, 2, 57, 0
5, 99812, Note_on_c, 2, 52, 0
5, 99824, Note_on_c, 2, 45, 0
5, 99840, Note_on_c, 2, 50, 47
5, 99844, Note_on_c, 2, 57, 47
5, 99848, Note_on_c, 2, 62, 47
5, 99856, Note_on_c, 2, 66, 47
5, 99860, Note_on_c, 2, 69, 47
5, 100352, Note_on_c, 2, 50, 0
5, 100356, Note_on_c, 2, 57, 0
5, 100360, Note_on_c, 2, 62, 0
5, 100368, Note_on_c, 2, 66, 0
5, 100372, Note_on_c, 2, 69, 0
5, 100416, Note_on_c, 2, 69, 36
5, 100420, Note_on_c, 2, 66, 36
5, 100424, Note_on_c, 2, 62, 36
5, 100428, Note_on_c, 2, 57, 36
5, 100432, Note_on_c, 2, 50, 36
5, 100672, Note_on_c, 2, 69, 0
5, 100676, Note_on_c, 2, 66, 0
5, 100680, Note_on_c, 2, 62, 0
5, 100684, Note_on_c, 2, 57, 0
5, 100688, Note_on_c, 2, 50, 0
5, 100800, Note_on_c, 2, 69, 36
5, 100804, Note_on_c, 2, 66, 36
5, 100808, Note_on_c, 2, 62, 36
5, 100812, Note_on_c, 2, 57, 36
5, 100816, Note_on_c, 2, 50, 36
5, 101056, Note_on_c, 2, 69, 0
5, 101060, Note_on_c, 2, 66, 0
5, 101064, Note_on_c, 2, 62, 0
5, 101068, Note_on_c, 2, 57, 0
5, 101072, Note_on_c, 2, 50, 0
5, 101184, Note_on_c, 2, 69, 28
5, 101196, Note_on_c, 2, 66, 28
5, 101208, Note_on_c, 2, 62, 28
5, 101220, Note_on_c, 2, 57, 28
5, 101232, Note_on_c, 2, 50, 28
5, 101312, Note_on_c, 2, 69, 0
5, 101324, Note_on_c, 2, 66, 0
5, 101336, Note_on_c, 2, 62, 0
5, 101348, Note_on_c, 2, 57, 0
5, 101352, Note_on_c, 2, 45, 47
5, 101360, Note_on_c, 2, 50, 0
5, 101368, Note_on_c, 2, 52, 47
5, 101376, Note_on_c, 2, 57, 47
5, 101396, Note_on_c, 2, 61, 47
5, 101416, Note_on_c, 2, 64, 47
5, 101864, Note_on_c, 2, 45, 0
5, 101880, Note_on_c, 2, 52, 0
5, 101888, Note_on_c, 2, 57, 0
5, 101908, Note_on_c, 2, 61, 0
5, 101928, Note_on_c, 2, 64, 0
5, 101952, Note_on_c, 2, 64, 36
5, 101960, Note_on_c, 2, 61, 36
5, 101968, Note_on_c, 2, 57, 36
5, 101976, Note_on_c, 2, 52, 36
5, 101984, Note_on_c, 2, 45, 36
5, 102208, Note_on_c, 2, 64, 0
5, 102216, Note_on_c, 2, 61, 0
5, 102224, Note_on_c, 2, 57, 0
5, 102232, Note_on_c, 2, 52, 0
5, 102240, Note_on_c, 2, 45, 0
5, 102336, Note_on_c, 2, 64, 36
5, 102340, Note_on_c, 2, 61, 36
5, 102344, Note_on_c, 2, 57, 36
5, 102348, Note_on_c, 2, 52, 36
5, 102352, Note_on_c, 2, 45, 36
5, 102592, Note_on_c, 2, 64, 0
5, 102596, Note_on_c, 2, 61, 0
5, 102600, Note_on_c, 2, 57, 0
5, 102604, Note_on_c, 2, 52, 0
5, 102608, Note_on_c, 2, 45, 0
5, 102720, Note_on_c, 2, 64, 28
5, 102732, Note_on_c, 2, 61, 28
5, 102744, Note_on_c, 2, 57, 28
5, 102756, Note_on_c, 2, 52, 28
5, 102768, Note_on_c, 2, 45, 28
5, 102848, Note_on_c, 2, 64, 0
5, 102860, Note_on_c, 2, 61, 0
5, 102872, Note_on_c, 2, 57, 0
5, 102884, Note_on_c, 2, 52, 0
5, 102896, Note_on_c, 2, 45, 0
5, 102912, Note_on_c, 2, 50, 47
5, 102916, Note_on_c, 2, 57, 47
5, 102920, Note_on_c, 2, 62, 47
5, 102928, Note_on_c, 2, 66, 47
5, 102932, Note_on_c, 2, 69, 47
5, 103424, Note_on_c, 2, 50, 0
5, 103428, Note_on_c, 2, 57, 0
5, 103432, Note_on_c, 2, 62, 0
5, 103440, Note_on_c, 2, 66, 0
5, 103444, Note_on_c, 2, 69, 0
5, 103488, Note_on_c, 2, 69, 36
5, 103492, Note_on_c, 2, 66, 36
5, 103496, Note_on_c, 2, 62, 36
5, 103500, Note_on_c, 2, 57, 36
5, 103504, Note_on_c, 2, 50, 36
5, 103744, Note_on_c, 2, 69, 0
5, 103748, Note_on_c, 2, 66, 0
5, 103752, Note_on_c, 2, 62, 0
5, 103756, Note_on_c, 2, 57, 0
5, 103760, Note_on_c, 2, 50, 0
5, 103872, Note_on_c, 2, 69, 36
5, 103876, Note_on_c, 2, 66, 36
5, 103880, Note_on_c, 2, 62, 36
5, 103884, Note_on_c, 2, 57, 36
5, 103888, Note_on_c, 2, 50, 36
5, 104128, Note_on_c, 2, 69, 0
5, 104132, Note_on_c, 2, 66, 0
5, 104136, Note_on_c, 2, 62, 0
5, 104140, Note_on_c, 2, 57, 0
5, 104144, Note_on_c, 2, 50, 0
5, 104256, Note_on_c, 2, 69, 28
5, 104268, Note_on_c, 2, 66, 28
5, 104280, Note_on_c, 2, 62, 28
5, 104292, Note_on_c, 2, 57, 28
5, 104304, Note_on_c, 2, 50, 28
5, 104384, Note_on_c, 2, 69, 0
5, 104396, Note_on_c, 2, 66, 0
5, 104408, Note_on_c, 2, 62, 0
5, 104420, Note_on_c, 2, 57, 0
5, 104424, Note_on_c, 2, 45, 47
5, 104432, Note_on_c, 2, 50, 0
5, 104440, Note_on_c, 2, 52, 47
5, 104448, Note_on_c, 2, 57, 47
5, 104468, Note_on_c, 2, 61, 47
5, 104488, Note_on_c, 2, 64, 47
5, 104936, Note_on_c, 2, 45, 0
5, 104952, Note_on_c, 2, 52, 0
5, 104960, Note_on_c, 2, 57, 0
5, 104980, Note_on_c, 2, 61, 0
5, 105000, Note_on_c, 2, 64, 0
5, 105024, Note_on_c, 2, 64, 36
5, 105032, Note_on_c, 2, 61, 36
5, 105040, Note_on_c, 2, 57, 36
5, 105048, Note_on_c, 2, 52, 36
5, 105056, Note_on_c, 2, 45, 36
5, 105280, Note_on_c, 2, 64, 0
5, 105288, Note_on_c, 2, 61, 0
5, 105296, Note_on_c, 2, 57, 0
5, 105304, Note_on_c, 2, 52, 0
5, 105312, Note_on_c, 2, 45, 0
5, 105408, Note_on_c, 2, 64, 36
5, 105412, Note_on_c, 2, 61, 36
5, 105416, Note_on_c, 2, 57, 36
5, 105420, Note_on_c, 2, 52, 36
5, 105424, Note_on_c, 2, 45, 36
5, 105664, Note_on_c, 2, 64, 0
5, 105668, Note_on_c, 2, 61, 0
5, 105672, Note_on_c, 2, 57, 0
5, 105676, Note_on_c, 2, 52, 0
5, 105680, Note_on_c, 2, 45, 0
5, 105792, Note_on_c, 2, 64, 28
5, 105804, Note_on_c, 2, 61, 28
5, 105816, Note_on_c, 2, 57, 28
5, 105828, Note_on_c, 2, 52, 28
5, 105840, Note_on_c, 2, 45, 28
5, 105920, Note_on_c, 2, 64, 0
5, 105932, Note_on_c, 2, 61, 0
5, 105944, Note_on_c, 2, 57, 0
5, 105956, Note_on_c, 2, 52, 0
5, 105968, Note_on_c, 2, 45, 0
5, 105984, Note_on_c, 2, 50, 47
5, 105988, Note_on_c, 2, 57, 47
5, 105992, Note_on_c, 2, 62, 47
5, 106000, Note_on_c, 2, 66, 47
5, 106004, Note_on_c, 2, 69, 47
5, 106496, Note_on_c, 2, 50, 0
5, 106500, Note_on_c, 2, 57, 0
5, 106504, Note_on_c, 2, 62, 0
5, 106512, Note_on_c, 2, 66, 0
5, 106516, Note_on_c, 2, 69, 0
5, 106560, Note_on_c, 2, 69, 36
5, 106564, Note_on_c, 2, 66, 36
5, 106568, Note_on_c, 2, 62, 36
5, 106572, Note_on_c, 2, 57, 36
5, 106576, Note_on_c, 2, 50, 36
5, 106816, Note_on_c, 2, 69, 0
5, 106820, Note_on_c, 2, 66, 0
5, 106824, Note_on_c, 2, 62, 0
5, 106828, Note_on_c, 2, 57, 0
5, 106832, Note_on_c, 2, 50, 0
5, 106944, Note_on_c, 2, 69, 36
5, 106948, Note_on_c, 2, 66, 36
5, 106952, Note_on_c, 2, 62, 36
5, 106956, Note_on_c, 2, 57, 36
5, 106960, Note_on_c, 2, 50, 36
5, 107200, Note_on_c, 2, 69, 0
5, 107204, Note_on_c, 2, 66, 0
5, 107208, Note_on_c, 2, 62, 0
5, 107212, Note_on_c, 2, 57, 0
5, 107216, Note_on_c, 2, 50, 0
5, 107328, Note_on_c, 2, 69, 28
5, 107340, Note_on_c, 2, 66, 28
5, 107352, Note_on_c, 2, 62, 28
5, 107364, Note_on_c, 2, 57, 28
5, 107376, Note_on_c, 2, 50, 28
5, 107456, Note_on_c, 2, 69, 0
5, 107468, Note_on_c, 2, 66, 0
5, 107480, Note_on_c, 2, 62, 0
5, 107492, Note_on_c, 2, 57, 0
5, 107496, Note_on_c, 2, 45, 47
5, 107504, Note_on_c, 2, 50, 0
5, 107512, Note_on_c, 2, 52, 47
5, 107520, Note_on_c, 2, 57, 47
5, 107540, Note_on_c, 2, 61, 47
5, 107560, Note_on_c, 2, 64, 47
5, 108008, Note_on_c, 2, 45, 0
5, 108024, Note_on_c, 2, 52, 0
5, 108032, Note_on_c, 2, 57, 0
5, 108052, Note_on_c, 2, 61, 0
5, 108072, Note_on_c, 2, 64, 0
5, 108096, Note_on_c, 2, 64, 36
5, 108104, Note_on_c, 2, 61, 36
5, 108112, Note_on_c, 2, 57, 36
5, 108120, Note_on_c, 2, 52, 36
5, 108128, Note_on_c, 2, 45, 36
5, 108352, Note_on_c, 2, 64, 0
5, 108360, Note_on_c, 2, 61, 0
5, 108368, Note_on_c, 2, 57, 0
5, 108376, Note_on_c, 2, 52, 0
5, 108384, Note_on_c, 2, 45, 0
5, 108480, Note_on_c, 2, 64, 36
5, 108484, Note_on_c, 2, 61, 36
5, 108488, Note_on_c, 2, 57, 36
5, 108492, Note_on_c, 2, 52, 36
5, 108496, Note_on_c, 2, 45, 36
5, 108736, Note_on_c, 2, 64, 0
5, 108740, Note_on_c, 2, 61, 0
5, 108744, Note_on_c, 2, 57, 0
5, 108748, Note_on_c, 2, 52, 0
5, 108752, Note_on_c, 2, 45, 0
5, 108864, Note_on_c, 2, 64, 28
5, 108876, Note_on_c, 2, 61, 28
5, 108888, Note_on_c, 2, 57, 28
5, 108900, Note_on_c, 2, 52, 28
5, 108912, Note_on_c, 2, 45, 28
5, 108992, Note_on_c, 2, 64, 0
5, 109004, Note_on_c, 2, 61, 0
5, 109016, Note_on_c, 2, 57, 0
5, 109028, Note_on_c, 2, 52, 0
5, 109040, Note_on_c, 2, 45, 0
5, 109056, Note_on_c, 2, 50, 47
5, 109060, Note_on_c, 2, 57, 47
5, 109064, Note_on_c, 2, 62, 47
5, 109072, Note_on_c, 2, 66, 47
5, 109076, Note_on_c, 2, 69, 47
5, 109568, Note_on_c, 2, 50, 0
5, 109572, Note_on_c, 2, 57, 0
5, 109576, Note_on_c, 2, 62, 0
5, 109584, Note_on_c, 2, 66, 0
5, 109588, Note_on_c, 2, 69, 0
5, 109632, Note_on_c, 2, 69, 36
5, 109636, Note_on_c, 2, 66, 36
5, 109640, Note_on_c, 2, 62, 36
5, 109644, Note_on_c, 2, 57, 36
5, 109648, Note_on_c, 2, 50, 36
5, 109888, Note_on_c, 2, 69, 0
5, 109892, Note_on_c, 2, 66, 0
5, 109896, Note_on_c, 2, 62, 0
5, 109900, Note_on_c, 2, 57, 0
5, 109904, Note_on_c, 2, 50, 0
5, 110016, Note_on_c, 2, 69, 36
5, 110020, Note_on_c, 2, 66, 36
5, 110024, Note_on_c, 2, 62, 36
5, 110028, Note_on_c, 2, 57, 36
5, 110032, Note_on_c, 2, 50, 36
5, 110272, Note_on_c, 2, 69, 0
5, 110276, Note_on_c, 2, 66, 0
5, 110280, Note_on_c, 2, 62, 0
5, 110284, Note_on_c, 2, 57, 0
5, 110288, Note_on_c, 2, 50, 0
5, 110400, Note_on_c, 2, 69, 28
5, 110412, Note_on_c, 2, 66, 28
5, 110424, Note_on_c, 2, 62, 28
5, 110436, Note_on_c, 2, 57, 28
5, 110448, Note_on_c, 2, 50, 28
5, 110528, Note_on_c, 2, 69, 0
5, 110540, Note_on_c, 2, 66, 0
5, 110552, Note_on_c, 2, 62, 0
5, 110564, Note_on_c, 2, 57, 0
5, 110568, Note_on_c, 2, 45, 47
5, 110576, Note_on_c, 2, 50, 0
5, 110584, Note_on_c, 2, 52, 47
5, 110592, Note_on_c, 2, 57, 47
5, 110612, Note_on_c, 2, 61, 47
5, 110632, Note_on_c, 2, 64, 47
5, 111080, Note_on_c, 2, 45, 0
5, 111096, Note_on_c, 2, 52, 0
5, 111104, Note_on_c, 2, 57, 0
5, 111124, Note_on_c, 2, 61, 0
5, 111144, Note_on_c, 2, 64, 0
5, 111168, Note_on_c, 2, 64, 36
5, 111176, Note_on_c, 2, 61, 36
5, 111184, Note_on_c, 2, 57, 36
5, 111192, Note_on_c, 2, 52, 36
5, 111200, Note_on_c, 2, 45, 36
5, 111424, Note_on_c, 2, 64, 0
5, 111432, Note_on_c, 2, 61, 0
5, 111440, Note_on_c, 2, 57, 0
5, 111448, Note_on_c, 2, 52, 0
5, 111456, Note_on_c, 2, 45, 0
5, 111552, Note_on_c, 2, 64, 36
5, 111556, Note_on_c, 2, 61, 36
5, 111560, Note_on_c, 2, 57, 36
5, 111564, Note_on_c, 2, 52, 36
5, 111568, Note_on_c, 2, 45, 36
5, 111808, Note_on_c, 2, 64, 0
5, 111812, Note_on_c, 2, 61, 0
5, 111816, Note_on_c, 2, 57, 0
5, 111820, Note_on_c, 2, 52, 0
5, 111824, Note_on_c, 2, 45, 0
5, 111936, Note_on_c, 2, 64, 28
5, 111948, Note_on_c, 2, 61, 28
5, 111960, Note_on_c, 2, 57, 28
5, 111972, Note_on_c, 2, 52, 28
5, 111984, Note_on_c, 2, 45, 28
5, 112064, Note_on_c, 2, 64, 0
5, 112076, Note_on_c, 2, 61, 0
5, 112088, Note_on_c, 2, 57, 0
5, 112100, Note_on_c, 2, 52, 0
5, 112112, Note_on_c, 2, 45, 0
5, 112128, Note_on_c, 2, 50, 47
5, 112132, Note_on_c, 2, 57, 47
5, 112136, Note_on_c, 2, 62, 47
5, 112144, Note_on_c, 2, 66, 47
5, 112148, Note_on_c, 2, 69, 47
5, 112640, Note_on_c, 2, 50, 0
5, 112644, Note_on_c, 2, 57, 0
5, 112648, Note_on_c, 2, 62, 0
5, 112656, Note_on_c, 2, 66, 0
5, 112660, Note_on_c, 2, 69, 0
5, 112704, Note_on_c, 2, 69, 36
5, 112708, Note_on_c, 2, 66, 36
5, 112712, Note_on_c, 2, 62, 36
5, 112716, Note_on_c, 2, 57, 36
5, 112720, Note_on_c, 2, 50, 36
5, 112960, Note_on_c, 2, 69, 0
5, 112964, Note_on_c, 2, 66, 0
5, 112968, Note_on_c, 2, 62, 0
5, 112972, Note_on_c, 2, 57, 0
5, 112976, Note_on_c, 2, 50, 0
5, 113088, Note_on_c, 2, 69, 36
5, 113092, Note_on_c, 2, 66, 36
5, 113096, Note_on_c, 2, 62, 36
5, 113100, Note_on_c, 2, 57, 36
5, 113104, Note_on_c, 2, 50, 36
5, 113344, Note_on_c, 2, 69, 0
5, 113348, Note_on_c, 2, 66, 0
5, 113352, Note_on_c, 2, 62, 0
5, 113356, Note_on_c, 2, 57, 0
5, 113360, Note_on_c, 2, 50, 0
5, 113472, Note_on_c, 2, 69, 28
5, 113484, Note_on_c, 2, 66, 28
5, 113496, Note_on_c, 2, 62, 28
5, 113508, Note_on_c, 2, 57, 28
5, 113520, Note_on_c, 2, 50, 28
5, 113600, Note_on_c, 2, 69, 0
5, 113612, Note_on_c, 2, 66, 0
5, 113624, Note_on_c, 2, 62, 0
5, 113636, Note_on_c, 2, 57, 0
5, 113648, Note_on_c, 2, 50, 0
5, 113648, End_track
6, 0, Start_track
6, 0, MIDI_port, 0
6, 0, Title_t, "Harmonica"
6, 0, Control_c, 3, 0, 0
6, 0, Control_c, 3, 32, 0
6, 0, Program_c, 3, 22
6, 4568, Note_on_c, 3, 68, 59
6, 4568, Note_on_c, 3, 71, 59
6, 4576, Note_on_c, 3, 64, 59
6, 4884, Note_on_c, 3, 71, 0
6, 4888, Note_on_c, 3, 64, 0
6, 4900, Note_on_c, 3, 68, 0
6, 6300, Note_on_c, 3, 72, 59
6, 6340, Note_on_c, 3, 74, 59
6, 6400, Note_on_c, 3, 72, 0
6, 6648, Note_on_c, 3, 73, 59
6, 6712, Note_on_c, 3, 74, 0
6, 6800, Note_on_c, 3, 73, 0
6, 6884, Note_on_c, 3, 74, 59
6, 6992, Note_on_c, 3, 73, 59
6, 7016, Note_on_c, 3, 74, 0
6, 7084, Note_on_c, 3, 71, 59
6, 7152, Note_on_c, 3, 73, 0
6, 7408, Note_on_c, 3, 71, 0
6, 7656, Note_on_c, 3, 71, 59
6, 7712, Note_on_c, 3, 71, 0
6, 8068, Note_on_c, 3, 69, 59
6, 8108, Note_on_c, 3, 69, 0
6, 8424, Note_on_c, 3, 68, 59
6, 8484, Note_on_c, 3, 68, 0
6, 8608, Note_on_c, 3, 68, 59
6, 8696, Note_on_c, 3, 68, 0
6, 8792, Note_on_c, 3, 69, 59
6, 8884, Note_on_c, 3, 69, 0
6, 8984, Note_on_c, 3, 68, 59
6, 9044, Note_on_c, 3, 68, 0
6, 9152, Note_on_c, 3, 69, 59
6, 9172, Note_on_c, 3, 71, 59
6, 9216, Note_on_c, 3, 69, 0
6, 9268, Note_on_c, 3, 71, 0
6, 9560, Note_on_c, 3, 69, 59
6, 9612, Note_on_c, 3, 69, 0
6, 9960, Note_on_c, 3, 68, 59
6, 10024, Note_on_c, 3, 68, 0
6, 10164, Note_on_c, 3, 68, 59
6, 10236, Note_on_c, 3, 68, 0
6, 10340, Note_on_c, 3, 69, 59
6, 10436, Note_on_c, 3, 69, 0
6, 10544, Note_on_c, 3, 68, 59
6, 10596, Note_on_c, 3, 68, 0
6, 10708, Note_on_c, 3, 69, 59
6, 10740, Note_on_c, 3, 71, 59
6, 10780, Note_on_c, 3, 69, 0
6, 10816, Note_on_c, 3, 71, 0
6, 11144, Note_on_c, 3, 69, 59
6, 11196, Note_on_c, 3, 69, 0
6, 11520, Note_on_c, 3, 68, 59
6, 11580, Note_on_c, 3, 68, 0
6, 11724, Note_on_c, 3, 68, 59
6, 11812, Note_on_c, 3, 68, 0
6, 11900, Note_on_c, 3, 69, 59
6, 12004, Note_on_c, 3, 69, 0
6, 12084, Note_on_c, 3, 68, 59
6, 12132, Note_on_c, 3, 68, 0
6, 12256, Note_on_c, 3, 69, 59
6, 12268, Note_on_c, 3, 68, 59
6, 12280, Note_on_c, 3, 71, 59
6, 12304, Note_on_c, 3, 74, 59
6, 12312, Note_on_c, 3, 68, 0
6, 12360, Note_on_c, 3, 71, 0
6, 12372, Note_on_c, 3, 74, 0
6, 12388, Note_on_c, 3, 69, 0
6, 12388, End_track
7, 0, Start_track
7, 0, MIDI_port, 0
7, 0, Title_t, "HiHat"
7, 1544, Note_on_c, 9, 44, 59
7, 1548, Note_on_c, 9, 42, 59
7, 1616, Note_on_c, 9, 44, 0
7, 1624, Note_on_c, 9, 42, 0
7, 1732, Note_on_c, 9, 42, 59
7, 1804, Note_on_c, 9, 42, 0
7, 1928, Note_on_c, 9, 44, 59
7, 1940, Note_on_c, 9, 42, 47
7, 2000, Note_on_c, 9, 44, 0
7, 2024, Note_on_c, 9, 42, 0
7, 2128, Note_on_c, 9, 42, 59
7, 2192, Note_on_c, 9, 42, 0
7, 2312, Note_on_c, 9, 44, 59
7, 2328, Note_on_c, 9, 42, 59
7, 2384, Note_on_c, 9, 44, 0
7, 2400, Note_on_c, 9, 42, 0
7, 2516, Note_on_c, 9, 42, 59
7, 2564, Note_on_c, 9, 42, 0
7, 2688, Note_on_c, 9, 44, 59
7, 2704, Note_on_c, 9, 42, 54
7, 2764, Note_on_c, 9, 44, 0
7, 2776, Note_on_c, 9, 42, 0
7, 2880, Note_on_c, 9, 42, 59
7, 2940, Note_on_c, 9, 42, 0
7, 3080, Note_on_c, 9, 44, 59
7, 3084, Note_on_c, 9, 42, 59
7, 3152, Note_on_c, 9, 44, 0
7, 3160, Note_on_c, 9, 42, 0
7, 3268, Note_on_c, 9, 42, 59
7, 3340, Note_on_c, 9, 42, 0
7, 3464, Note_on_c, 9, 44, 59
7, 3476, Note_on_c, 9, 42, 47
7, 3536, Note_on_c, 9, 44, 0
7, 3560, Note_on_c, 9, 42, 0
7, 3664, Note_on_c, 9, 42, 59
7, 3728, Note_on_c, 9, 42, 0
7, 3848, Note_on_c, 9, 44, 59
7, 3864, Note_on_c, 9, 42, 59
7, 3920, Note_on_c, 9, 44, 0
7, 3936, Note_on_c, 9, 42, 0
7, 4052, Note_on_c, 9, 42, 59
7, 4100, Note_on_c, 9, 42, 0
7, 4224, Note_on_c, 9, 44, 59
7, 4240, Note_on_c, 9, 42, 54
7, 4300, Note_on_c, 9, 44, 0
7, 4312, Note_on_c, 9, 42, 0
7, 4416, Note_on_c, 9, 42, 59
7, 4476, Note_on_c, 9, 42, 0
7, 4616, Note_on_c, 9, 44, 59
7, 4620, Note_on_c, 9, 42, 59
7, 4688, Note_on_c, 9, 44, 0
7, 4696, Note_on_c, 9, 42, 0
7, 4804, Note_on_c, 9, 42, 59
7, 4876, Note_on_c, 9, 42, 0
7, 5000, Note_on_c, 9, 44, 59
7, 5012, Note_on_c, 9, 42, 47
7, 5072, Note_on_c, 9, 44, 0
7, 5096, Note_on_c, 9, 42, 0
7, 5200, Note_on_c, 9, 42, 59
7, 5264, Note_on_c, 9, 42, 0
7, 5384, Note_on_c, 9, 44, 59
7, 5400, Note_on_c, 9, 42, 59
7, 5456, Note_on_c, 9, 44, 0
7, 5472, Note_on_c, 9, 42, 0
7, 5588, Note_on_c, 9, 42, 59
7, 5636, Note_on_c, 9, 42, 0
7, 5760, Note_on_c, 9, 44, 59
7, 5776, Note_on_c, 9, 42, 54
7, 5836, Note_on_c, 9, 44, 0
7, 5848, Note_on_c, 9, 42, 0
7, 5952, Note_on_c, 9, 42, 59
7, 6012, Note_on_c, 9, 42, 0
7, 6152, Note_on_c, 9, 44, 59
7, 6156, Note_on_c, 9, 42, 59
7, 6224, Note_on_c, 9, 44, 0
7, 6232, Note_on_c, 9, 42, 0
7, 6340, Note_on_c, 9, 42, 59
7, 6412, Note_on_c, 9, 42, 0
7, 6536, Note_on_c, 9, 44, 59
7, 6548, Note_on_c, 9, 42, 47
7, 6608, Note_on_c, 9, 44, 0
7, 6632, Note_on_c, 9, 42, 0
7, 6736, Note_on_c, 9, 42, 59
7, 6800, Note_on_c, 9, 42, 0
7, 6920, Note_on_c, 9, 44, 59
7, 6936, Note_on_c, 9, 42, 59
7, 6992, Note_on_c, 9, 44, 0
7, 7008, Note_on_c, 9, 42, 0
7, 7124, Note_on_c, 9, 42, 59
7, 7172, Note_on_c, 9, 42, 0
7, 7296, Note_on_c, 9, 44, 59
7, 7312, Note_on_c, 9, 42, 54
7, 7372, Note_on_c, 9, 44, 0
7, 7384, Note_on_c, 9, 42, 0
7, 7488, Note_on_c, 9, 42, 59
7, 7548, Note_on_c, 9, 42, 0
7, 7688, Note_on_c, 9, 44, 59
7, 7692, Note_on_c, 9, 42, 59
7, 7760, Note_on_c, 9, 44, 0
7, 7768, Note_on_c, 9, 42, 0
7, 7876, Note_on_c, 9, 42, 59
7, 7948, Note_on_c, 9, 42, 0
7, 8072, Note_on_c, 9, 44, 59
7, 8084, Note_on_c, 9, 42, 47
7, 8144, Note_on_c, 9, 44, 0
7, 8168, Note_on_c, 9, 42, 0
7, 8272, Note_on_c, 9, 42, 59
7, 8336, Note_on_c, 9, 42, 0
7, 8456, Note_on_c, 9, 44, 59
7, 8472, Note_on_c, 9, 42, 59
7, 8528, Note_on_c, 9, 44, 0
7, 8544, Note_on_c, 9, 42, 0
7, 8660, Note_on_c, 9, 42, 59
7, 8708, Note_on_c, 9, 42, 0
7, 8832, Note_on_c, 9, 44, 59
7, 8848, Note_on_c, 9, 42, 54
7, 8908, Note_on_c, 9, 44, 0
7, 8920, Note_on_c, 9, 42, 0
7, 9024, Note_on_c, 9, 42, 59
7, 9084, Note_on_c, 9, 42, 0
7, 9224, Note_on_c, 9, 44, 59
7, 9228, Note_on_c, 9, 42, 59
7, 9296, Note_on_c, 9, 44, 0
7, 9304, Note_on_c, 9, 42, 0
7, 9412, Note_on_c, 9, 42, 59
7, 9484, Note_on_c, 9, 42, 0
7, 9608, Note_on_c, 9, 44, 59
7, 9620, Note_on_c, 9, 42, 47
7, 9680, Note_on_c, 9, 44, 0
7, 9704, Note_on_c, 9, 42, 0
7, 9808, Note_on_c, 9, 42, 59
7, 9872, Note_on_c, 9, 42, 0
7, 9992, Note_on_c, 9, 44, 59
7, 10008, Note_on_c, 9, 42, 59
7, 10064, Note_on_c, 9, 44, 0
7, 10080, Note_on_c, 9, 42, 0
7, 10196, Note_on_c, 9, 42, 59
7, 10244, Note_on_c, 9, 42, 0
7, 10368, Note_on_c, 9, 44, 59
7, 10384, Note_on_c, 9, 42, 54
7, 10444, Note_on_c, 9, 44, 0
7, 10456, Note_on_c, 9, 42, 0
7, 10560, Note_on_c, 9, 42, 59
7, 10620, Note_on_c, 9, 42, 0
7, 10760, Note_on_c, 9, 44, 59
7, 10764, Note_on_c, 9, 42, 59
7, 10832, Note_on_c, 9, 44, 0
7, 10840, Note_on_c, 9, 42, 0
7, 10948, Note_on_c, 9, 42, 59
7, 11020, Note_on_c, 9, 42, 0
7, 11144, Note_on_c, 9, 44, 59
7, 11156, Note_on_c, 9, 42, 47
7, 11216, Note_on_c, 9, 44, 0
7, 11240, Note_on_c, 9, 42, 0
7, 11344, Note_on_c, 9, 42, 59
7, 11408, Note_on_c, 9, 42, 0
7, 11528, Note_on_c, 9, 44, 59
7, 11544, Note_on_c, 9, 42, 59
7, 11600, Note_on_c, 9, 44, 0
7, 11616, Note_on_c, 9, 42, 0
7, 11732, Note_on_c, 9, 42, 59
7, 11780, Note_on_c, 9, 42, 0
7, 11904, Note_on_c, 9, 44, 59
7, 11920, Note_on_c, 9, 42, 54
7, 11980, Note_on_c, 9, 44, 0
7, 11992, Note_on_c, 9, 42, 0
7, 12096, Note_on_c, 9, 42, 59
7, 12156, Note_on_c, 9, 42, 0
7, 12280, Note_on_c, 9, 42, 59
7, 12292, Note_on_c, 9, 46, 59
7, 12352, Note_on_c, 9, 42, 0
7, 12368, Note_on_c, 9, 46, 0
7, 13832, Note_on_c, 9, 44, 59
7, 13836, Note_on_c, 9, 42, 59
7, 13904, Note_on_c, 9, 44, 0
7, 13912, Note_on_c, 9, 42, 0
7, 14020, Note_on_c, 9, 42, 59
7, 14092, Note_on_c, 9, 42, 0
7, 14216, Note_on_c, 9, 44, 59
7, 14228, Note_on_c, 9, 42, 47
7, 14288, Note_on_c, 9, 44, 0
7, 14312, Note_on_c, 9, 42, 0
7, 14416, Note_on_c, 9, 42, 59
7, 14480, Note_on_c, 9, 42, 0
7, 14600, Note_on_c, 9, 44, 59
7, 14616, Note_on_c, 9, 42, 59
7, 14672, Note_on_c, 9, 44, 0
7, 14688, Note_on_c, 9, 42, 0
7, 14804, Note_on_c, 9, 42, 59
7, 14852, Note_on_c, 9, 42, 0
7, 14976, Note_on_c, 9, 44, 59
7, 14992, Note_on_c, 9, 42, 54
7, 15052, Note_on_c, 9, 44, 0
7, 15064, Note_on_c, 9, 42, 0
7, 15168, Note_on_c, 9, 42, 59
7, 15228, Note_on_c, 9, 42, 0
7, 15368, Note_on_c, 9, 44, 59
7, 15372, Note_on_c, 9, 42, 59
7, 15440, Note_on_c, 9, 44, 0
7, 15448, Note_on_c, 9, 42, 0
7, 15556, Note_on_c, 9, 42, 59
7, 15628, Note_on_c, 9, 42, 0
7, 15752, Note_on_c, 9, 44, 59
7, 15764, Note_on_c, 9, 42, 47
7, 15824, Note_on_c, 9, 44, 0
7, 15848, Note_on_c, 9, 42, 0
7, 15952, Note_on_c, 9, 42, 59
7, 16016, Note_on_c, 9, 42, 0
7, 16136, Note_on_c, 9, 44, 59
7, 16152, Note_on_c, 9, 42, 59
7, 16208, Note_on_c, 9, 44, 0
7, 16224, Note_on_c, 9, 42, 0
7, 16340, Note_on_c, 9, 42, 59
7, 16388, Note_on_c, 9, 42, 0
7, 16512, Note_on_c, 9, 44, 59
7, 16528, Note_on_c, 9, 42, 54
7, 16588, Note_on_c, 9, 44, 0
7, 16600, Note_on_c, 9, 42, 0
7, 16704, Note_on_c, 9, 42, 59
7, 16764, Note_on_c, 9, 42, 0
7, 16904, Note_on_c, 9, 44, 59
7, 16908, Note_on_c, 9, 42, 59
7, 16976, Note_on_c, 9, 44, 0
7, 16984, Note_on_c, 9, 42, 0
7, 17092, Note_on_c, 9, 42, 59
7, 17164, Note_on_c, 9, 42, 0
7, 17288, Note_on_c, 9, 44, 59
7, 17300, Note_on_c, 9, 42, 47
7, 17360, Note_on_c, 9, 44, 0
7, 17384, Note_on_c, 9, 42, 0
7, 17488, Note_on_c, 9, 42, 59
7, 17552, Note_on_c, 9, 42, 0
7, 17672, Note_on_c, 9, 44, 59
7, 17688, Note_on_c, 9, 42, 59
7, 17744, Note_on_c, 9, 44, 0
7, 17760, Note_on_c, 9, 42, 0
7, 17876, Note_on_c, 9, 42, 59
7, 17924, Note_on_c, 9, 42, 0
7, 18048, Note_on_c, 9, 44, 59
7, 18064, Note_on_c, 9, 42, 54
7, 18124, Note_on_c, 9, 44, 0
7, 18136, Note_on_c, 9, 42, 0
7, 18240, Note_on_c, 9, 42, 59
7, 18300, Note_on_c, 9, 42, 0
7, 18440, Note_on_c, 9, 44, 59
7, 18444, Note_on_c, 9, 42, 59
7, 18512, Note_on_c, 9, 44, 0
7, 18520, Note_on_c, 9, 42, 0
7, 18628, Note_on_c, 9, 42, 59
7, 18700, Note_on_c, 9, 42, 0
7, 18824, Note_on_c, 9, 44, 59
7, 18836, Note_on_c, 9, 42, 47
7, 18896, Note_on_c, 9, 44, 0
7, 18920, Note_on_c, 9, 42, 0
7, 19024, Note_on_c, 9, 42, 59
7, 19088, Note_on_c, 9, 42, 0
7, 19208, Note_on_c, 9, 44, 59
7, 19224, Note_on_c, 9, 42, 59
7, 19280, Note_on_c, 9, 44, 0
7, 19296, Note_on_c, 9, 42, 0
7, 19412, Note_on_c, 9, 42, 59
7, 19460, Note_on_c, 9, 42, 0
7, 19584, Note_on_c, 9, 44, 59
7, 19600, Note_on_c, 9, 42, 54
7, 19660, Note_on_c, 9, 44, 0
7, 19672, Note_on_c, 9, 42, 0
7, 19776, Note_on_c, 9, 42, 59
7, 19836, Note_on_c, 9, 42, 0
7, 19976, Note_on_c, 9, 44, 59
7, 19980, Note_on_c, 9, 42, 59
7, 20048, Note_on_c, 9, 44, 0
7, 20056, Note_on_c, 9, 42, 0
7, 20164, Note_on_c, 9, 42, 59
7, 20236, Note_on_c, 9, 42, 0
7, 20360, Note_on_c, 9, 44, 59
7, 20372, Note_on_c, 9, 42, 47
7, 20432, Note_on_c, 9, 44, 0
7, 20456, Note_on_c, 9, 42, 0
7, 20560, Note_on_c, 9, 42, 59
7, 20624, Note_on_c, 9, 42, 0
7, 20744, Note_on_c, 9, 44, 59
7, 20760, Note_on_c, 9, 42, 59
7, 20816, Note_on_c, 9, 44, 0
7, 20832, Note_on_c, 9, 42, 0
7, 20948, Note_on_c, 9, 42, 59
7, 20996, Note_on_c, 9, 42, 0
7, 21120, Note_on_c, 9, 44, 59
7, 21136, Note_on_c, 9, 42, 54
7, 21196, Note_on_c, 9, 44, 0
7, 21208, Note_on_c, 9, 42, 0
7, 21312, Note_on_c, 9, 42, 59
7, 21372, Note_on_c, 9, 42, 0
7, 21512, Note_on_c, 9, 44, 59
7, 21516, Note_on_c, 9, 42, 59
7, 21584, Note_on_c, 9, 44, 0
7, 21592, Note_on_c, 9, 42, 0
7, 21700, Note_on_c, 9, 42, 59
7, 21772, Note_on_c, 9, 42, 0
7, 21896, Note_on_c, 9, 44, 59
7, 21908, Note_on_c, 9, 42, 47
7, 21968, Note_on_c, 9, 44, 0
7, 21992, Note_on_c, 9, 42, 0
7, 22096, Note_on_c, 9, 42, 59
7, 22160, Note_on_c, 9, 42, 0
7, 22280, Note_on_c, 9, 44, 59
7, 22296, Note_on_c, 9, 42, 59
7, 22352, Note_on_c, 9, 44, 0
7, 22368, Note_on_c, 9, 42, 0
7, 22484, Note_on_c, 9, 42, 59
7, 22532, Note_on_c, 9, 42, 0
7, 22656, Note_on_c, 9, 44, 59
7, 22672, Note_on_c, 9, 42, 54
7, 22732, Note_on_c, 9, 44, 0
7, 22744, Note_on_c, 9, 42, 0
7, 22848, Note_on_c, 9, 42, 59
7, 22908, Note_on_c, 9, 42, 0
7, 23048, Note_on_c, 9, 44, 59
7, 23052, Note_on_c, 9, 42, 59
7, 23120, Note_on_c, 9, 44, 0
7, 23128, Note_on_c, 9, 42, 0
7, 23236, Note_on_c, 9, 42, 59
7, 23308, Note_on_c, 9, 42, 0
7, 23432, Note_on_c, 9, 44, 59
7, 23444, Note_on_c, 9, 42, 47
7, 23504, Note_on_c, 9, 44, 0
7, 23528, Note_on_c, 9, 42, 0
7, 23632, Note_on_c, 9, 42, 59
7, 23696, Note_on_c, 9, 42, 0
7, 23816, Note_on_c, 9, 44, 59
7, 23832, Note_on_c, 9, 42, 59
7, 23888, Note_on_c, 9, 44, 0
7, 23904, Note_on_c, 9, 42, 0
7, 24020, Note_on_c, 9, 42, 59
7, 24068, Note_on_c, 9, 42, 0
7, 24192, Note_on_c, 9, 44, 59
7, 24208, Note_on_c, 9, 42, 54
7, 24268, Note_on_c, 9, 44, 0
7, 24280, Note_on_c, 9, 42, 0
7, 24384, Note_on_c, 9, 42, 59
7, 24444, Note_on_c, 9, 42, 0
7, 24584, Note_on_c, 9, 44, 59
7, 24588, Note_on_c, 9, 42, 59
7, 24656, Note_on_c, 9, 44, 0
7, 24664, Note_on_c, 9, 42, 0
7, 24772, Note_on_c, 9, 42, 59
7, 24844, Note_on_c, 9, 42, 0
7, 24968, Note_on_c, 9, 44, 59
7, 24980, Note_on_c, 9, 42, 47
7, 25040, Note_on_c, 9, 44, 0
7, 25064, Note_on_c, 9, 42, 0
7, 25168, Note_on_c, 9, 42, 59
7, 25232, Note_on_c, 9, 42, 0
7, 25352, Note_on_c, 9, 44, 59
7, 25368, Note_on_c, 9, 42, 59
7, 25424, Note_on_c, 9, 44, 0
7, 25440, Note_on_c, 9, 42, 0
7, 25556, Note_on_c, 9, 42, 59
7, 25604, Note_on_c, 9, 42, 0
7, 25728, Note_on_c, 9, 44, 59
7, 25744, Note_on_c, 9, 42, 54
7, 25804, Note_on_c, 9, 44, 0
7, 25816, Note_on_c, 9, 42, 0
7, 25920, Note_on_c, 9, 42, 59
7, 25980, Note_on_c, 9, 42, 0
7, 26120, Note_on_c, 9, 44, 59
7, 26124, Note_on_c, 9, 42, 59
7, 26192, Note_on_c, 9, 44, 0
7, 26200, Note_on_c, 9, 42, 0
7, 26308, Note_on_c, 9, 42, 59
7, 26380, Note_on_c, 9, 42, 0
7, 26504, Note_on_c, 9, 44, 59
7, 26516, Note_on_c, 9, 42, 47
7, 26576, Note_on_c, 9, 44, 0
7, 26600, Note_on_c, 9, 42, 0
7, 26704, Note_on_c, 9, 42, 59
7, 26768, Note_on_c, 9, 42, 0
7, 26888, Note_on_c, 9, 44, 59
7, 26904, Note_on_c, 9, 42, 59
7, 26960, Note_on_c, 9, 44, 0
7, 26976, Note_on_c, 9, 42, 0
7, 27092, Note_on_c, 9, 42, 59
7, 27140, Note_on_c, 9, 42, 0
7, 27264, Note_on_c, 9, 44, 59
7, 27280, Note_on_c, 9, 42, 54
7, 27340, Note_on_c, 9, 44, 0
7, 27352, Note_on_c, 9, 42, 0
7, 27456, Note_on_c, 9, 42, 59
7, 27516, Note_on_c, 9, 42, 0
7, 27656, Note_on_c, 9, 44, 59
7, 27660, Note_on_c, 9, 42, 59
7, 27728, Note_on_c, 9, 44, 0
7, 27736, Note_on_c, 9, 42, 0
7, 27844, Note_on_c, 9, 42, 59
7, 27916, Note_on_c, 9, 42, 0
7, 28040, Note_on_c, 9, 44, 59
7, 28052, Note_on_c, 9, 42, 47
7, 28112, Note_on_c, 9, 44, 0
7, 28136, Note_on_c, 9, 42, 0
7, 28240, Note_on_c, 9, 42, 59
7, 28304, Note_on_c, 9, 42, 0
7, 28424, Note_on_c, 9, 44, 59
7, 28440, Note_on_c, 9, 42, 59
7, 28496, Note_on_c, 9, 44, 0
7, 28512, Note_on_c, 9, 42, 0
7, 28628, Note_on_c, 9, 42, 59
7, 28676, Note_on_c, 9, 42, 0
7, 28800, Note_on_c, 9, 44, 59
7, 28816, Note_on_c, 9, 42, 54
7, 28876, Note_on_c, 9, 44, 0
7, 28888, Note_on_c, 9, 42, 0
7, 28992, Note_on_c, 9, 42, 59
7, 29052, Note_on_c, 9, 42, 0
7, 29192, Note_on_c, 9, 44, 59
7, 29196, Note_on_c, 9, 42, 59
7, 29264, Note_on_c, 9, 44, 0
7, 29272, Note_on_c, 9, 42, 0
7, 29380, Note_on_c, 9, 42, 59
7, 29452, Note_on_c, 9, 42, 0
7, 29576, Note_on_c, 9, 44, 59
7, 29588, Note_on_c, 9, 42, 47
7, 29648, Note_on_c, 9, 44, 0
7, 29672, Note_on_c, 9, 42, 0
7, 29776, Note_on_c, 9, 42, 59
7, 29840, Note_on_c, 9, 42, 0
7, 29960, Note_on_c, 9, 44, 59
7, 29976, Note_on_c, 9, 42, 59
7, 30032, Note_on_c, 9, 44, 0
7, 30048, Note_on_c, 9, 42, 0
7, 30164, Note_on_c, 9, 42, 59
7, 30212, Note_on_c, 9, 42, 0
7, 30336, Note_on_c, 9, 44, 59
7, 30352, Note_on_c, 9, 42, 54
7, 30412, Note_on_c, 9, 44, 0
7, 30424, Note_on_c, 9, 42, 0
7, 30528, Note_on_c, 9, 42, 59
7, 30588, Note_on_c, 9, 42, 0
7, 30728, Note_on_c, 9, 44, 59
7, 30732, Note_on_c, 9, 42, 59
7, 30800, Note_on_c, 9, 44, 0
7, 30808, Note_on_c, 9, 42, 0
7, 30916, Note_on_c, 9, 42, 59
7, 30988, Note_on_c, 9, 42, 0
7, 31112, Note_on_c, 9, 44, 59
7, 31124, Note_on_c, 9, 42, 47
7, 31184, Note_on_c, 9, 44, 0
7, 31208, Note_on_c, 9, 42, 0
7, 31312, Note_on_c, 9, 42, 59
7, 31376, Note_on_c, 9, 42, 0
7, 31496, Note_on_c, 9, 44, 59
7, 31512, Note_on_c, 9, 42, 59
7, 31568, Note_on_c, 9, 44, 0
7, 31584, Note_on_c, 9, 42, 0
7, 31700, Note_on_c, 9, 42, 59
7, 31748, Note_on_c, 9, 42, 0
7, 31872, Note_on_c, 9, 44, 59
7, 31888, Note_on_c, 9, 42, 54
7, 31948, Note_on_c, 9, 44, 0
7, 31960, Note_on_c, 9, 42, 0
7, 32064, Note_on_c, 9, 42, 59
7, 32124, Note_on_c, 9, 42, 0
7, 32264, Note_on_c, 9, 44, 59
7, 32268, Note_on_c, 9, 42, 59
7, 32336, Note_on_c, 9, 44, 0
7, 32344, Note_on_c, 9, 42, 0
7, 32452, Note_on_c, 9, 42, 59
7, 32524, Note_on_c, 9, 42, 0
7, 32648, Note_on_c, 9, 44, 59
7, 32660, Note_on_c, 9, 42, 47
7, 32720, Note_on_c, 9, 44, 0
7, 32744, Note_on_c, 9, 42, 0
7, 32848, Note_on_c, 9, 42, 59
7, 32912, Note_on_c, 9, 42, 0
7, 33032, Note_on_c, 9, 44, 59
7, 33048, Note_on_c, 9, 42, 59
7, 33104, Note_on_c, 9, 44, 0
7, 33120, Note_on_c, 9, 42, 0
7, 33236, Note_on_c, 9, 42, 59
7, 33284, Note_on_c, 9, 42, 0
7, 33408, Note_on_c, 9, 44, 59
7, 33424, Note_on_c, 9, 42, 54
7, 33484, Note_on_c, 9, 44, 0
7, 33496, Note_on_c, 9, 42, 0
7, 33600, Note_on_c, 9, 42, 59
7, 33660, Note_on_c, 9, 42, 0
7, 33800, Note_on_c, 9, 44, 59
7, 33804, Note_on_c, 9, 42, 59
7, 33872, Note_on_c, 9, 44, 0
7, 33880, Note_on_c, 9, 42, 0
7, 33988, Note_on_c, 9, 42, 59
7, 34060, Note_on_c, 9, 42, 0
7, 34184, Note_on_c, 9, 44, 59
7, 34196, Note_on_c, 9, 42, 47
7, 34256, Note_on_c, 9, 44, 0
7, 34280, Note_on_c, 9, 42, 0
7, 34384, Note_on_c, 9, 42, 59
7, 34448, Note_on_c, 9, 42, 0
7, 34568, Note_on_c, 9, 44, 59
7, 34584, Note_on_c, 9, 42, 59
7, 34640, Note_on_c, 9, 44, 0
7, 34656, Note_on_c, 9, 42, 0
7, 34772, Note_on_c, 9, 42, 59
7, 34820, Note_on_c, 9, 42, 0
7, 34944, Note_on_c, 9, 44, 59
7, 34960, Note_on_c, 9, 42, 54
7, 35020, Note_on_c, 9, 44, 0
7, 35032, Note_on_c, 9, 42, 0
7, 35136, Note_on_c, 9, 42, 59
7, 35196, Note_on_c, 9, 42, 0
7, 35336, Note_on_c, 9, 44, 59
7, 35340, Note_on_c, 9, 42, 59
7, 35408, Note_on_c, 9, 44, 0
7, 35416, Note_on_c, 9, 42, 0
7, 35524, Note_on_c, 9, 42, 59
7, 35596, Note_on_c, 9, 42, 0
7, 35720, Note_on_c, 9, 44, 59
7, 35732, Note_on_c, 9, 42, 47
7, 35792, Note_on_c, 9, 44, 0
7, 35816, Note_on_c, 9, 42, 0
7, 35920, Note_on_c, 9, 42, 59
7, 35984, Note_on_c, 9, 42, 0
7, 36104, Note_on_c, 9, 44, 59
7, 36120, Note_on_c, 9, 42, 59
7, 36176, Note_on_c, 9, 44, 0
7, 36192, Note_on_c, 9, 42, 0
7, 36308, Note_on_c, 9, 42, 59
7, 36356, Note_on_c, 9, 42, 0
7, 36480, Note_on_c, 9, 44, 59
7, 36496, Note_on_c, 9, 42, 54
7, 36556, Note_on_c, 9, 44, 0
7, 36568, Note_on_c, 9, 42, 0
7, 36672, Note_on_c, 9, 42, 59
7, 36732, Note_on_c, 9, 42, 0
7, 36872, Note_on_c, 9, 44, 59
7, 36876, Note_on_c, 9, 42, 59
7, 36944, Note_on_c, 9, 44, 0
7, 36952, Note_on_c, 9, 42, 0
7, 37060, Note_on_c, 9, 42, 59
7, 37132, Note_on_c, 9, 42, 0
7, 37256, Note_on_c, 9, 44, 59
7, 37268, Note_on_c, 9, 42, 47
7, 37328, Note_on_c, 9, 44, 0
7, 37352, Note_on_c, 9, 42, 0
7, 37456, Note_on_c, 9, 42, 59
7, 37520, Note_on_c, 9, 42, 0
7, 37640, Note_on_c, 9, 44, 59
7, 37656, Note_on_c, 9, 42, 59
7, 37712, Note_on_c, 9, 44, 0
7, 37728, Note_on_c, 9, 42, 0
7, 37844, Note_on_c, 9, 42, 59
7, 37892, Note_on_c, 9, 42, 0
7, 38016, Note_on_c, 9, 44, 59
7, 38032, Note_on_c, 9, 42, 54
7, 38092, Note_on_c, 9, 44, 0
7, 38104, Note_on_c, 9, 42, 0
7, 38208, Note_on_c, 9, 42, 59
7, 38268, Note_on_c, 9, 42, 0
7, 38412, Note_on_c, 9, 42, 59
7, 38488, Note_on_c, 9, 42, 0
7, 38804, Note_on_c, 9, 42, 47
7, 38888, Note_on_c, 9, 42, 0
7, 39192, Note_on_c, 9, 42, 59
7, 39264, Note_on_c, 9, 42, 0
7, 39556, Note_on_c, 9, 42, 59
7, 39568, Note_on_c, 9, 44, 54
7, 39620, Note_on_c, 9, 42, 0
7, 39640, Note_on_c, 9, 44, 0
7, 39948, Note_on_c, 9, 42, 59
7, 40024, Note_on_c, 9, 42, 0
7, 40340, Note_on_c, 9, 42, 47
7, 40424, Note_on_c, 9, 42, 0
7, 40728, Note_on_c, 9, 42, 59
7, 40800, Note_on_c, 9, 42, 0
7, 41092, Note_on_c, 9, 42, 59
7, 41104, Note_on_c, 9, 44, 54
7, 41156, Note_on_c, 9, 42, 0
7, 41176, Note_on_c, 9, 44, 0
7, 41484, Note_on_c, 9, 42, 59
7, 41560, Note_on_c, 9, 42, 0
7, 41876, Note_on_c, 9, 42, 47
7, 41960, Note_on_c, 9, 42, 0
7, 42264, Note_on_c, 9, 42, 59
7, 42336, Note_on_c, 9, 42, 0
7, 42628, Note_on_c, 9, 42, 59
7, 42640, Note_on_c, 9, 44, 54
7, 42692, Note_on_c, 9, 42, 0
7, 42712, Note_on_c, 9, 44, 0
7, 43020, Note_on_c, 9, 42, 59
7, 43096, Note_on_c, 9, 42, 0
7, 43412, Note_on_c, 9, 42, 47
7, 43496, Note_on_c, 9, 42, 0
7, 43800, Note_on_c, 9, 42, 59
7, 43872, Note_on_c, 9, 42, 0
7, 44164, Note_on_c, 9, 42, 59
7, 44176, Note_on_c, 9, 44, 54
7, 44228, Note_on_c, 9, 42, 0
7, 44248, Note_on_c, 9, 44, 0
7, 44556, Note_on_c, 9, 42, 59
7, 44632, Note_on_c, 9, 42, 0
7, 44948, Note_on_c, 9, 42, 47
7, 45032, Note_on_c, 9, 42, 0
7, 45336, Note_on_c, 9, 42, 59
7, 45408, Note_on_c, 9, 42, 0
7, 45700, Note_on_c, 9, 42, 59
7, 45712, Note_on_c, 9, 44, 54
7, 45764, Note_on_c, 9, 42, 0
7, 45784, Note_on_c, 9, 44, 0
7, 46092, Note_on_c, 9, 42, 59
7, 46168, Note_on_c, 9, 42, 0
7, 46484, Note_on_c, 9, 42, 47
7, 46568, Note_on_c, 9, 42, 0
7, 46872, Note_on_c, 9, 42, 59
7, 46944, Note_on_c, 9, 42, 0
7, 47236, Note_on_c, 9, 42, 59
7, 47248, Note_on_c, 9, 44, 54
7, 47300, Note_on_c, 9, 42, 0
7, 47320, Note_on_c, 9, 44, 0
7, 47628, Note_on_c, 9, 42, 59
7, 47704, Note_on_c, 9, 42, 0
7, 48020, Note_on_c, 9, 42, 47
7, 48104, Note_on_c, 9, 42, 0
7, 48408, Note_on_c, 9, 42, 59
7, 48480, Note_on_c, 9, 42, 0
7, 48772, Note_on_c, 9, 42, 59
7, 48784, Note_on_c, 9, 44, 54
7, 48836, Note_on_c, 9, 42, 0
7, 48856, Note_on_c, 9, 44, 0
7, 49164, Note_on_c, 9, 42, 59
7, 49240, Note_on_c, 9, 42, 0
7, 49556, Note_on_c, 9, 42, 47
7, 49640, Note_on_c, 9, 42, 0
7, 49944, Note_on_c, 9, 42, 59
7, 50016, Note_on_c, 9, 42, 0
7, 50308, Note_on_c, 9, 42, 59
7, 50320, Note_on_c, 9, 44, 54
7, 50372, Note_on_c, 9, 42, 0
7, 50392, Note_on_c, 9, 44, 0
7, 50696, Note_on_c, 9, 44, 59
7, 50700, Note_on_c, 9, 42, 59
7, 50768, Note_on_c, 9, 44, 0
7, 50776, Note_on_c, 9, 42, 0
7, 50884, Note_on_c, 9, 42, 59
7, 50956, Note_on_c, 9, 42, 0
7, 51080, Note_on_c, 9, 44, 59
7, 51092, Note_on_c, 9, 42, 47
7, 51152, Note_on_c, 9, 44, 0
7, 51176, Note_on_c, 9, 42, 0
7, 51280, Note_on_c, 9, 42, 59
7, 51344, Note_on_c, 9, 42, 0
7, 51464, Note_on_c, 9, 44, 59
7, 51480, Note_on_c, 9, 42, 59
7, 51536, Note_on_c, 9, 44, 0
7, 51552, Note_on_c, 9, 42, 0
7, 51668, Note_on_c, 9, 42, 59
7, 51716, Note_on_c, 9, 42, 0
7, 51840, Note_on_c, 9, 44, 59
7, 51856, Note_on_c, 9, 42, 54
7, 51916, Note_on_c, 9, 44, 0
7, 51928, Note_on_c, 9, 42, 0
7, 52032, Note_on_c, 9, 42, 59
7, 52092, Note_on_c, 9, 42, 0
7, 52232, Note_on_c, 9, 44, 59
7, 52236, Note_on_c, 9, 42, 59
7, 52304, Note_on_c, 9, 44, 0
7, 52312, Note_on_c, 9, 42, 0
7, 52420, Note_on_c, 9, 42, 59
7, 52492, Note_on_c, 9, 42, 0
7, 52616, Note_on_c, 9, 44, 59
7, 52628, Note_on_c, 9, 42, 47
7, 52688, Note_on_c, 9, 44, 0
7, 52712, Note_on_c, 9, 42, 0
7, 52816, Note_on_c, 9, 42, 59
7, 52880, Note_on_c, 9, 42, 0
7, 53000, Note_on_c, 9, 44, 59
7, 53016, Note_on_c, 9, 42, 59
7, 53072, Note_on_c, 9, 44, 0
7, 53088, Note_on_c, 9, 42, 0
7, 53204, Note_on_c, 9, 42, 59
7, 53252, Note_on_c, 9, 42, 0
7, 53376, Note_on_c, 9, 44, 59
7, 53392, Note_on_c, 9, 42, 54
7, 53452, Note_on_c, 9, 44, 0
7, 53464, Note_on_c, 9, 42, 0
7, 53568, Note_on_c, 9, 42, 59
7, 53628, Note_on_c, 9, 42, 0
7, 53768, Note_on_c, 9, 44, 59
7, 53772, Note_on_c, 9, 42, 59
7, 53840, Note_on_c, 9, 44, 0
7, 53848, Note_on_c, 9, 42, 0
7, 53956, Note_on_c, 9, 42, 59
7, 54028, Note_on_c, 9, 42, 0
7, 54152, Note_on_c, 9, 44, 59
7, 54164, Note_on_c, 9, 42, 47
7, 54224, Note_on_c, 9, 44, 0
7, 54248, Note_on_c, 9, 42, 0
7, 54352, Note_on_c, 9, 42, 59
7, 54416, Note_on_c, 9, 42, 0
7, 54536, Note_on_c, 9, 44, 59
7, 54552, Note_on_c, 9, 42, 59
7, 54608, Note_on_c, 9, 44, 0
7, 54624, Note_on_c, 9, 42, 0
7, 54740, Note_on_c, 9, 42, 59
7, 54788, Note_on_c, 9, 42, 0
7, 54912, Note_on_c, 9, 44, 59
7, 54928, Note_on_c, 9, 42, 54
7, 54988, Note_on_c, 9, 44, 0
7, 55000, Note_on_c, 9, 42, 0
7, 55104, Note_on_c, 9, 42, 59
7, 55164, Note_on_c, 9, 42, 0
7, 55304, Note_on_c, 9, 44, 59
7, 55308, Note_on_c, 9, 42, 59
7, 55376, Note_on_c, 9, 44, 0
7, 55384, Note_on_c, 9, 42, 0
7, 55492, Note_on_c, 9, 42, 59
7, 55564, Note_on_c, 9, 42, 0
7, 55688, Note_on_c, 9, 44, 59
7, 55700, Note_on_c, 9, 42, 47
7, 55760, Note_on_c, 9, 44, 0
7, 55784, Note_on_c, 9, 42, 0
7, 55888, Note_on_c, 9, 42, 59
7, 55952, Note_on_c, 9, 42, 0
7, 56072, Note_on_c, 9, 44, 59
7, 56088, Note_on_c, 9, 42, 59
7, 56144, Note_on_c, 9, 44, 0
7, 56160, Note_on_c, 9, 42, 0
7, 56276, Note_on_c, 9, 42, 59
7, 56324, Note_on_c, 9, 42, 0
7, 56448, Note_on_c, 9, 44, 59
7, 56464, Note_on_c, 9, 42, 54
7, 56524, Note_on_c, 9, 44, 0
7, 56536, Note_on_c, 9, 42, 0
7, 56640, Note_on_c, 9, 42, 59
7, 56700, Note_on_c, 9, 42, 0
7, 56840, Note_on_c, 9, 44, 59
7, 56844, Note_on_c, 9, 42, 59
7, 56912, Note_on_c, 9, 44, 0
7, 56920, Note_on_c, 9, 42, 0
7, 57028, Note_on_c, 9, 42, 59
7, 57100, Note_on_c, 9, 42, 0
7, 57224, Note_on_c, 9, 44, 59
7, 57236, Note_on_c, 9, 42, 47
7, 57296, Note_on_c, 9, 44, 0
7, 57320, Note_on_c, 9, 42, 0
7, 57424, Note_on_c, 9, 42, 59
7, 57488, Note_on_c, 9, 42, 0
7, 57608, Note_on_c, 9, 44, 59
7, 57624, Note_on_c, 9, 42, 59
7, 57680, Note_on_c, 9, 44, 0
7, 57696, Note_on_c, 9, 42, 0
7, 57812, Note_on_c, 9, 42, 59
7, 57860, Note_on_c, 9, 42, 0
7, 57984, Note_on_c, 9, 44, 59
7, 58000, Note_on_c, 9, 42, 54
7, 58060, Note_on_c, 9, 44, 0
7, 58072, Note_on_c, 9, 42, 0
7, 58176, Note_on_c, 9, 42, 59
7, 58236, Note_on_c, 9, 42, 0
7, 58376, Note_on_c, 9, 44, 59
7, 58380, Note_on_c, 9, 42, 59
7, 58448, Note_on_c, 9, 44, 0
7, 58456, Note_on_c, 9, 42, 0
7, 58564, Note_on_c, 9, 42, 59
7, 58636, Note_on_c, 9, 42, 0
7, 58760, Note_on_c, 9, 44, 59
7, 58772, Note_on_c, 9, 42, 47
7, 58832, Note_on_c, 9, 44, 0
7, 58856, Note_on_c, 9, 42, 0
7, 58960, Note_on_c, 9, 42, 59
7, 59024, Note_on_c, 9, 42, 0
7, 59144, Note_on_c, 9, 44, 59
7, 59160, Note_on_c, 9, 42, 59
7, 59216, Note_on_c, 9, 44, 0
7, 59232, Note_on_c, 9, 42, 0
7, 59348, Note_on_c, 9, 42, 59
7, 59396, Note_on_c, 9, 42, 0
7, 59520, Note_on_c, 9, 44, 59
7, 59536, Note_on_c, 9, 42, 54
7, 59596, Note_on_c, 9, 44, 0
7, 59608, Note_on_c, 9, 42, 0
7, 59712, Note_on_c, 9, 42, 59
7, 59772, Note_on_c, 9, 42, 0
7, 59912, Note_on_c, 9, 44, 59
7, 59916, Note_on_c, 9, 42, 59
7, 59984, Note_on_c, 9, 44, 0
7, 59992, Note_on_c, 9, 42, 0
7, 60100, Note_on_c, 9, 42, 59
7, 60172, Note_on_c, 9, 42, 0
7, 60296, Note_on_c, 9, 44, 59
7, 60308, Note_on_c, 9, 42, 47
7, 60368, Note_on_c, 9, 44, 0
7, 60392, Note_on_c, 9, 42, 0
7, 60496, Note_on_c, 9, 42, 59
7, 60560, Note_on_c, 9, 42, 0
7, 60680, Note_on_c, 9, 44, 59
7, 60696, Note_on_c, 9, 42, 59
7, 60752, Note_on_c, 9, 44, 0
7, 60768, Note_on_c, 9, 42, 0
7, 60884, Note_on_c, 9, 42, 59
7, 60932, Note_on_c, 9, 42, 0
7, 61056, Note_on_c, 9, 44, 59
7, 61072, Note_on_c, 9, 42, 54
7, 61132, Note_on_c, 9, 44, 0
7, 61144, Note_on_c, 9, 42, 0
7, 61248, Note_on_c, 9, 42, 59
7, 61308, Note_on_c, 9, 42, 0
7, 61448, Note_on_c, 9, 44, 59
7, 61452, Note_on_c, 9, 42, 59
7, 61520, Note_on_c, 9, 44, 0
7, 61528, Note_on_c, 9, 42, 0
7, 61636, Note_on_c, 9, 42, 59
7, 61708, Note_on_c, 9, 42, 0
7, 61832, Note_on_c, 9, 44, 59
7, 61844, Note_on_c, 9, 42, 47
7, 61904, Note_on_c, 9, 44, 0
7, 61928, Note_on_c, 9, 42, 0
7, 62032, Note_on_c, 9, 42, 59
7, 62096, Note_on_c, 9, 42, 0
7, 62216, Note_on_c, 9, 44, 59
7, 62232, Note_on_c, 9, 42, 59
7, 62288, Note_on_c, 9, 44, 0
7, 62304, Note_on_c, 9, 42, 0
7, 62420, Note_on_c, 9, 42, 59
7, 62468, Note_on_c, 9, 42, 0
7, 62592, Note_on_c, 9, 44, 59
7, 62608, Note_on_c, 9, 42, 54
7, 62668, Note_on_c, 9, 44, 0
7, 62680, Note_on_c, 9, 42, 0
7, 62784, Note_on_c, 9, 42, 59
7, 62844, Note_on_c, 9, 42, 0
7, 62984, Note_on_c, 9, 44, 59
7, 62988, Note_on_c, 9, 42, 59
7, 63056, Note_on_c, 9, 44, 0
7, 63064, Note_on_c, 9, 42, 0
7, 63172, Note_on_c, 9, 42, 59
7, 63244, Note_on_c, 9, 42, 0
7, 63368, Note_on_c, 9, 44, 59
7, 63380, Note_on_c, 9, 42, 47
7, 63440, Note_on_c, 9, 44, 0
7, 63464, Note_on_c, 9, 42, 0
7, 63568, Note_on_c, 9, 42, 59
7, 63632, Note_on_c, 9, 42, 0
7, 63752, Note_on_c, 9, 44, 59
7, 63768, Note_on_c, 9, 42, 59
7, 63824, Note_on_c, 9, 44, 0
7, 63840, Note_on_c, 9, 42, 0
7, 63956, Note_on_c, 9, 42, 59
7, 64004, Note_on_c, 9, 42, 0
7, 64128, Note_on_c, 9, 44, 59
7, 64144, Note_on_c, 9, 42, 54
7, 64204, Note_on_c, 9, 44, 0
7, 64216, Note_on_c, 9, 42, 0
7, 64320, Note_on_c, 9, 42, 59
7, 64380, Note_on_c, 9, 42, 0
7, 64520, Note_on_c, 9, 44, 59
7, 64524, Note_on_c, 9, 42, 59
7, 64592, Note_on_c, 9, 44, 0
7, 64600, Note_on_c, 9, 42, 0
7, 64708, Note_on_c, 9, 42, 59
7, 64780, Note_on_c, 9, 42, 0
7, 64904, Note_on_c, 9, 44, 59
7, 64916, Note_on_c, 9, 42, 47
7, 64976, Note_on_c, 9, 44, 0
7, 65000, Note_on_c, 9, 42, 0
7, 65104, Note_on_c, 9, 42, 59
7, 65168, Note_on_c, 9, 42, 0
7, 65288, Note_on_c, 9, 44, 59
7, 65304, Note_on_c, 9, 42, 59
7, 65360, Note_on_c, 9, 44, 0
7, 65376, Note_on_c, 9, 42, 0
7, 65492, Note_on_c, 9, 42, 59
7, 65540, Note_on_c, 9, 42, 0
7, 65664, Note_on_c, 9, 44, 59
7, 65680, Note_on_c, 9, 42, 54
7, 65740, Note_on_c, 9, 44, 0
7, 65752, Note_on_c, 9, 42, 0
7, 65856, Note_on_c, 9, 42, 59
7, 65916, Note_on_c, 9, 42, 0
7, 66056, Note_on_c, 9, 44, 59
7, 66060, Note_on_c, 9, 42, 59
7, 66128, Note_on_c, 9, 44, 0
7, 66136, Note_on_c, 9, 42, 0
7, 66244, Note_on_c, 9, 42, 59
7, 66316, Note_on_c, 9, 42, 0
7, 66440, Note_on_c, 9, 44, 59
7, 66452, Note_on_c, 9, 42, 47
7, 66512, Note_on_c, 9, 44, 0
7, 66536, Note_on_c, 9, 42, 0
7, 66640, Note_on_c, 9, 42, 59
7, 66704, Note_on_c, 9, 42, 0
7, 66824, Note_on_c, 9, 44, 59
7, 66840, Note_on_c, 9, 42, 59
7, 66896, Note_on_c, 9, 44, 0
7, 66912, Note_on_c, 9, 42, 0
7, 67028, Note_on_c, 9, 42, 59
7, 67076, Note_on_c, 9, 42, 0
7, 67200, Note_on_c, 9, 44, 59
7, 67216, Note_on_c, 9, 42, 54
7, 67276, Note_on_c, 9, 44, 0
7, 67288, Note_on_c, 9, 42, 0
7, 67392, Note_on_c, 9, 42, 59
7, 67452, Note_on_c, 9, 42, 0
7, 67592, Note_on_c, 9, 44, 59
7, 67596, Note_on_c, 9, 42, 59
7, 67664, Note_on_c, 9, 44, 0
7, 67672, Note_on_c, 9, 42, 0
7, 67780, Note_on_c, 9, 42, 59
7, 67852, Note_on_c, 9, 42, 0
7, 67976, Note_on_c, 9, 44, 59
7, 67988, Note_on_c, 9, 42, 47
7, 68048, Note_on_c, 9, 44, 0
7, 68072, Note_on_c, 9, 42, 0
7, 68176, Note_on_c, 9, 42, 59
7, 68240, Note_on_c, 9, 42, 0
7, 68360, Note_on_c, 9, 44, 59
7, 68376, Note_on_c, 9, 42, 59
7, 68432, Note_on_c, 9, 44, 0
7, 68448, Note_on_c, 9, 42, 0
7, 68564, Note_on_c, 9, 42, 59
7, 68612, Note_on_c, 9, 42, 0
7, 68736, Note_on_c, 9, 44, 59
7, 68752, Note_on_c, 9, 42, 54
7, 68812, Note_on_c, 9, 44, 0
7, 68824, Note_on_c, 9, 42, 0
7, 68928, Note_on_c, 9, 42, 59
7, 68988, Note_on_c, 9, 42, 0
7, 69112, Note_on_c, 9, 42, 59
7, 69124, Note_on_c, 9, 46, 59
7, 69184, Note_on_c, 9, 42, 0
7, 69200, Note_on_c, 9, 46, 0
7, 70664, Note_on_c, 9, 44, 59
7, 70668, Note_on_c, 9, 42, 59
7, 70736, Note_on_c, 9, 44, 0
7, 70744, Note_on_c, 9, 42, 0
7, 70852, Note_on_c, 9, 42, 59
7, 70924, Note_on_c, 9, 42, 0
7, 71048, Note_on_c, 9, 44, 59
7, 71060, Note_on_c, 9, 42, 47
7, 71120, Note_on_c, 9, 44, 0
7, 71144, Note_on_c, 9, 42, 0
7, 71248, Note_on_c, 9, 42, 59
7, 71312, Note_on_c, 9, 42, 0
7, 71432, Note_on_c, 9, 44, 59
7, 71448, Note_on_c, 9, 42, 59
7, 71504, Note_on_c, 9, 44, 0
7, 71520, Note_on_c, 9, 42, 0
7, 71636, Note_on_c, 9, 42, 59
7, 71684, Note_on_c, 9, 42, 0
7, 71808, Note_on_c, 9, 44, 59
7, 71824, Note_on_c, 9, 42, 54
7, 71884, Note_on_c, 9, 44, 0
7, 71896, Note_on_c, 9, 42, 0
7, 72000, Note_on_c, 9, 42, 59
7, 72060, Note_on_c, 9, 42, 0
7, 72200, Note_on_c, 9, 44, 59
7, 72204, Note_on_c, 9, 42, 59
7, 72272, Note_on_c, 9, 44, 0
7, 72280, Note_on_c, 9, 42, 0
7, 72388, Note_on_c, 9, 42, 59
7, 72460, Note_on_c, 9, 42, 0
7, 72584, Note_on_c, 9, 44, 59
7, 72596, Note_on_c, 9, 42, 47
7, 72656, Note_on_c, 9, 44, 0
7, 72680, Note_on_c, 9, 42, 0
7, 72784, Note_on_c, 9, 42, 59
7, 72848, Note_on_c, 9, 42, 0
7, 72968, Note_on_c, 9, 44, 59
7, 72984, Note_on_c, 9, 42, 59
7, 73040, Note_on_c, 9, 44, 0
7, 73056, Note_on_c, 9, 42, 0
7, 73172, Note_on_c, 9, 42, 59
7, 73220, Note_on_c, 9, 42, 0
7, 73344, Note_on_c, 9, 44, 59
7, 73360, Note_on_c, 9, 42, 54
7, 73420, Note_on_c, 9, 44, 0
7, 73432, Note_on_c, 9, 42, 0
7, 73536, Note_on_c, 9, 42, 59
7, 73596, Note_on_c, 9, 42, 0
7, 73736, Note_on_c, 9, 44, 59
7, 73740, Note_on_c, 9, 42, 59
7, 73808, Note_on_c, 9, 44, 0
7, 73816, Note_on_c, 9, 42, 0
7, 73924, Note_on_c, 9, 42, 59
7, 73996, Note_on_c, 9, 42, 0
7, 74120, Note_on_c, 9, 44, 59
7, 74132, Note_on_c, 9, 42, 47
7, 74192, Note_on_c, 9, 44, 0
7, 74216, Note_on_c, 9, 42, 0
7, 74320, Note_on_c, 9, 42, 59
7, 74384, Note_on_c, 9, 42, 0
7, 74504, Note_on_c, 9, 44, 59
7, 74520, Note_on_c, 9, 42, 59
7, 74576, Note_on_c, 9, 44, 0
7, 74592, Note_on_c, 9, 42, 0
7, 74708, Note_on_c, 9, 42, 59
7, 74756, Note_on_c, 9, 42, 0
7, 74880, Note_on_c, 9, 44, 59
7, 74896, Note_on_c, 9, 42, 54
7, 74956, Note_on_c, 9, 44, 0
7, 74968, Note_on_c, 9, 42, 0
7, 75072, Note_on_c, 9, 42, 59
7, 75132, Note_on_c, 9, 42, 0
7, 75272, Note_on_c, 9, 44, 59
7, 75276, Note_on_c, 9, 42, 59
7, 75344, Note_on_c, 9, 44, 0
7, 75352, Note_on_c, 9, 42, 0
7, 75460, Note_on_c, 9, 42, 59
7, 75532, Note_on_c, 9, 42, 0
7, 75656, Note_on_c, 9, 44, 59
7, 75668, Note_on_c, 9, 42, 47
7, 75728, Note_on_c, 9, 44, 0
7, 75752, Note_on_c, 9, 42, 0
7, 75856, Note_on_c, 9, 42, 59
7, 75920, Note_on_c, 9, 42, 0
7, 76040, Note_on_c, 9, 44, 59
7, 76056, Note_on_c, 9, 42, 59
7, 76112, Note_on_c, 9, 44, 0
7, 76128, Note_on_c, 9, 42, 0
7, 76244, Note_on_c, 9, 42, 59
7, 76292, Note_on_c, 9, 42, 0
7, 76416, Note_on_c, 9, 44, 59
7, 76432, Note_on_c, 9, 42, 54
7, 76492, Note_on_c, 9, 44, 0
7, 76504, Note_on_c, 9, 42, 0
7, 76608, Note_on_c, 9, 42, 59
7, 76668, Note_on_c, 9, 42, 0
7, 76808, Note_on_c, 9, 44, 59
7, 76812, Note_on_c, 9, 42, 59
7, 76880, Note_on_c, 9, 44, 0
7, 76888, Note_on_c, 9, 42, 0
7, 76996, Note_on_c, 9, 42, 59
7, 77068, Note_on_c, 9, 42, 0
7, 77192, Note_on_c, 9, 44, 59
7, 77204, Note_on_c, 9, 42, 47
7, 77264, Note_on_c, 9, 44, 0
7, 77288, Note_on_c, 9, 42, 0
7, 77392, Note_on_c, 9, 42, 59
7, 77456, Note_on_c, 9, 42, 0
7, 77576, Note_on_c, 9, 44, 59
7, 77592, Note_on_c, 9, 42, 59
7, 77648, Note_on_c, 9, 44, 0
7, 77664, Note_on_c, 9, 42, 0
7, 77780, Note_on_c, 9, 42, 59
7, 77828, Note_on_c, 9, 42, 0
7, 77952, Note_on_c, 9, 44, 59
7, 77968, Note_on_c, 9, 42, 54
7, 78028, Note_on_c, 9, 44, 0
7, 78040, Note_on_c, 9, 42, 0
7, 78144, Note_on_c, 9, 42, 59
7, 78204, Note_on_c, 9, 42, 0
7, 78344, Note_on_c, 9, 44, 59
7, 78348, Note_on_c, 9, 42, 59
7, 78416, Note_on_c, 9, 44, 0
7, 78424, Note_on_c, 9, 42, 0
7, 78532, Note_on_c, 9, 42, 59
7, 78604, Note_on_c, 9, 42, 0
7, 78728, Note_on_c, 9, 44, 59
7, 78740, Note_on_c, 9, 42, 47
7, 78800, Note_on_c, 9, 44, 0
7, 78824, Note_on_c, 9, 42, 0
7, 78928, Note_on_c, 9, 42, 59
7, 78992, Note_on_c, 9, 42, 0
7, 79112, Note_on_c, 9, 44, 59
7, 79128, Note_on_c, 9, 42, 59
7, 79184, Note_on_c, 9, 44, 0
7, 79200, Note_on_c, 9, 42, 0
7, 79316, Note_on_c, 9, 42, 59
7, 79364, Note_on_c, 9, 42, 0
7, 79488, Note_on_c, 9, 44, 59
7, 79504, Note_on_c, 9, 42, 54
7, 79564, Note_on_c, 9, 44, 0
7, 79576, Note_on_c, 9, 42, 0
7, 79680, Note_on_c, 9, 42, 59
7, 79740, Note_on_c, 9, 42, 0
7, 79880, Note_on_c, 9, 44, 59
7, 79884, Note_on_c, 9, 42, 59
7, 79952, Note_on_c, 9, 44, 0
7, 79960, Note_on_c, 9, 42, 0
7, 80068, Note_on_c, 9, 42, 59
7, 80140, Note_on_c, 9, 42, 0
7, 80264, Note_on_c, 9, 44, 59
7, 80276, Note_on_c, 9, 42, 47
7, 80336, Note_on_c, 9, 44, 0
7, 80360, Note_on_c, 9, 42, 0
7, 80464, Note_on_c, 9, 42, 59
7, 80528, Note_on_c, 9, 42, 0
7, 80648, Note_on_c, 9, 44, 59
7, 80664, Note_on_c, 9, 42, 59
7, 80720, Note_on_c, 9, 44, 0
7, 80736, Note_on_c, 9, 42, 0
7, 80852, Note_on_c, 9, 42, 59
7, 80900, Note_on_c, 9, 42, 0
7, 81024, Note_on_c, 9, 44, 59
7, 81040, Note_on_c, 9, 42, 54
7, 81100, Note_on_c, 9, 44, 0
7, 81112, Note_on_c, 9, 42, 0
7, 81216, Note_on_c, 9, 42, 59
7, 81276, Note_on_c, 9, 42, 0
7, 81416, Note_on_c, 9, 44, 59
7, 81420, Note_on_c, 9, 42, 59
7, 81488, Note_on_c, 9, 44, 0
7, 81496, Note_on_c, 9, 42, 0
7, 81604, Note_on_c, 9, 42, 59
7, 81676, Note_on_c, 9, 42, 0
7, 81800, Note_on_c, 9, 44, 59
7, 81812, Note_on_c, 9, 42, 47
7, 81872, Note_on_c, 9, 44, 0
7, 81896, Note_on_c, 9, 42, 0
7, 82000, Note_on_c, 9, 42, 59
7, 82064, Note_on_c, 9, 42, 0
7, 82184, Note_on_c, 9, 44, 59
7, 82200, Note_on_c, 9, 42, 59
7, 82256, Note_on_c, 9, 44, 0
7, 82272, Note_on_c, 9, 42, 0
7, 82388, Note_on_c, 9, 42, 59
7, 82436, Note_on_c, 9, 42, 0
7, 82560, Note_on_c, 9, 44, 59
7, 82576, Note_on_c, 9, 42, 54
7, 82636, Note_on_c, 9, 44, 0
7, 82648, Note_on_c, 9, 42, 0
7, 82752, Note_on_c, 9, 42, 59
7, 82812, Note_on_c, 9, 42, 0
7, 82952, Note_on_c, 9, 44, 59
7, 82956, Note_on_c, 9, 42, 59
7, 83024, Note_on_c, 9, 44, 0
7, 83032, Note_on_c, 9, 42, 0
7, 83140, Note_on_c, 9, 42, 59
7, 83212, Note_on_c, 9, 42, 0
7, 83336, Note_on_c, 9, 44, 59
7, 83348, Note_on_c, 9, 42, 47
7, 83408, Note_on_c, 9, 44, 0
7, 83432, Note_on_c, 9, 42, 0
7, 83536, Note_on_c, 9, 42, 59
7, 83600, Note_on_c, 9, 42, 0
7, 83720, Note_on_c, 9, 44, 59
7, 83736, Note_on_c, 9, 42, 59
7, 83792, Note_on_c, 9, 44, 0
7, 83808, Note_on_c, 9, 42, 0
7, 83924, Note_on_c, 9, 42, 59
7, 83972, Note_on_c, 9, 42, 0
7, 84096, Note_on_c, 9, 44, 59
7, 84112, Note_on_c, 9, 42, 54
7, 84172, Note_on_c, 9, 44, 0
7, 84184, Note_on_c, 9, 42, 0
7, 84288, Note_on_c, 9, 42, 59
7, 84348, Note_on_c, 9, 42, 0
7, 84488, Note_on_c, 9, 44, 59
7, 84492, Note_on_c, 9, 42, 59
7, 84560, Note_on_c, 9, 44, 0
7, 84568, Note_on_c, 9, 42, 0
7, 84676, Note_on_c, 9, 42, 59
7, 84748, Note_on_c, 9, 42, 0
7, 84872, Note_on_c, 9, 44, 59
7, 84884, Note_on_c, 9, 42, 47
7, 84944, Note_on_c, 9, 44, 0
7, 84968, Note_on_c, 9, 42, 0
7, 85072, Note_on_c, 9, 42, 59
7, 85136, Note_on_c, 9, 42, 0
7, 85256, Note_on_c, 9, 44, 59
7, 85272, Note_on_c, 9, 42, 59
7, 85328, Note_on_c, 9, 44, 0
7, 85344, Note_on_c, 9, 42, 0
7, 85460, Note_on_c, 9, 42, 59
7, 85508, Note_on_c, 9, 42, 0
7, 85632, Note_on_c, 9, 44, 59
7, 85648, Note_on_c, 9, 42, 54
7, 85708, Note_on_c, 9, 44, 0
7, 85720, Note_on_c, 9, 42, 0
7, 85824, Note_on_c, 9, 42, 59
7, 85884, Note_on_c, 9, 42, 0
7, 86024, Note_on_c, 9, 44, 59
7, 86028, Note_on_c, 9, 42, 59
7, 86096, Note_on_c, 9, 44, 0
7, 86104, Note_on_c, 9, 42, 0
7, 86212, Note_on_c, 9, 42, 59
7, 86284, Note_on_c, 9, 42, 0
7, 86408, Note_on_c, 9, 44, 59
7, 86420, Note_on_c, 9, 42, 47
7, 86480, Note_on_c, 9, 44, 0
7, 86504, Note_on_c, 9, 42, 0
7, 86608, Note_on_c, 9, 42, 59
7, 86672, Note_on_c, 9, 42, 0
7, 86792, Note_on_c, 9, 44, 59
7, 86808, Note_on_c, 9, 42, 59
7, 86864, Note_on_c, 9, 44, 0
7, 86880, Note_on_c, 9, 42, 0
7, 86996, Note_on_c, 9, 42, 59
7, 87044, Note_on_c, 9, 42, 0
7, 87168, Note_on_c, 9, 44, 59
7, 87184, Note_on_c, 9, 42, 54
7, 87244, Note_on_c, 9, 44, 0
7, 87256, Note_on_c, 9, 42, 0
7, 87360, Note_on_c, 9, 42, 59
7, 87420, Note_on_c, 9, 42, 0
7, 87560, Note_on_c, 9, 44, 59
7, 87564, Note_on_c, 9, 42, 59
7, 87632, Note_on_c, 9, 44, 0
7, 87640, Note_on_c, 9, 42, 0
7, 87748, Note_on_c, 9, 42, 59
7, 87820, Note_on_c, 9, 42, 0
7, 87944, Note_on_c, 9, 44, 59
7, 87956, Note_on_c, 9, 42, 47
7, 88016, Note_on_c, 9, 44, 0
7, 88040, Note_on_c, 9, 42, 0
7, 88144, Note_on_c, 9, 42, 59
7, 88208, Note_on_c, 9, 42, 0
7, 88328, Note_on_c, 9, 44, 59
7, 88344, Note_on_c, 9, 42, 59
7, 88400, Note_on_c, 9, 44, 0
7, 88416, Note_on_c, 9, 42, 0
7, 88532, Note_on_c, 9, 42, 59
7, 88580, Note_on_c, 9, 42, 0
7, 88704, Note_on_c, 9, 44, 59
7, 88720, Note_on_c, 9, 42, 54
7, 88780, Note_on_c, 9, 44, 0
7, 88792, Note_on_c, 9, 42, 0
7, 88896, Note_on_c, 9, 42, 59
7, 88956, Note_on_c, 9, 42, 0
7, 89096, Note_on_c, 9, 44, 59
7, 89100, Note_on_c, 9, 42, 59
7, 89168, Note_on_c, 9, 44, 0
7, 89176, Note_on_c, 9, 42, 0
7, 89284, Note_on_c, 9, 42, 59
7, 89356, Note_on_c, 9, 42, 0
7, 89480, Note_on_c, 9, 44, 59
7, 89492, Note_on_c, 9, 42, 47
7, 89552, Note_on_c, 9, 44, 0
7, 89576, Note_on_c, 9, 42, 0
7, 89680, Note_on_c, 9, 42, 59
7, 89744, Note_on_c, 9, 42, 0
7, 89864, Note_on_c, 9, 44, 59
7, 89880, Note_on_c, 9, 42, 59
7, 89936, Note_on_c, 9, 44, 0
7, 89952, Note_on_c, 9, 42, 0
7, 90068, Note_on_c, 9, 42, 59
7, 90116, Note_on_c, 9, 42, 0
7, 90240, Note_on_c, 9, 44, 59
7, 90256, Note_on_c, 9, 42, 54
7, 90316, Note_on_c, 9, 44, 0
7, 90328, Note_on_c, 9, 42, 0
7, 90432, Note_on_c, 9, 42, 59
7, 90492, Note_on_c, 9, 42, 0
7, 90632, Note_on_c, 9, 44, 59
7, 90636, Note_on_c, 9, 42, 59
7, 90704, Note_on_c, 9, 44, 0
7, 90712, Note_on_c, 9, 42, 0
7, 90820, Note_on_c, 9, 42, 59
7, 90892, Note_on_c, 9, 42, 0
7, 91016, Note_on_c, 9, 44, 59
7, 91028, Note_on_c, 9, 42, 47
7, 91088, Note_on_c, 9, 44, 0
7, 91112, Note_on_c, 9, 42, 0
7, 91216, Note_on_c, 9, 42, 59
7, 91280, Note_on_c, 9, 42, 0
7, 91400, Note_on_c, 9, 44, 59
7, 91416, Note_on_c, 9, 42, 59
7, 91472, Note_on_c, 9, 44, 0
7, 91488, Note_on_c, 9, 42, 0
7, 91604, Note_on_c, 9, 42, 59
7, 91652, Note_on_c, 9, 42, 0
7, 91776, Note_on_c, 9, 44, 59
7, 91792, Note_on_c, 9, 42, 54
7, 91852, Note_on_c, 9, 44, 0
7, 91864, Note_on_c, 9, 42, 0
7, 91968, Note_on_c, 9, 42, 59
7, 92028, Note_on_c, 9, 42, 0
7, 92168, Note_on_c, 9, 44, 59
7, 92172, Note_on_c, 9, 42, 59
7, 92240, Note_on_c, 9, 44, 0
7, 92248, Note_on_c, 9, 42, 0
7, 92356, Note_on_c, 9, 42, 59
7, 92428, Note_on_c, 9, 42, 0
7, 92552, Note_on_c, 9, 44, 59
7, 92564, Note_on_c, 9, 42, 47
7, 92624, Note_on_c, 9, 44, 0
7, 92648, Note_on_c, 9, 42, 0
7, 92752, Note_on_c, 9, 42, 59
7, 92816, Note_on_c, 9, 42, 0
7, 92936, Note_on_c, 9, 44, 59
7, 92952, Note_on_c, 9, 42, 59
7, 93008, Note_on_c, 9, 44, 0
7, 93024, Note_on_c, 9, 42, 0
7, 93140, Note_on_c, 9, 42, 59
7, 93188, Note_on_c, 9, 42, 0
7, 93312, Note_on_c, 9, 44, 59
7, 93328, Note_on_c, 9, 42, 54
7, 93388, Note_on_c, 9, 44, 0
7, 93400, Note_on_c, 9, 42, 0
7, 93504, Note_on_c, 9, 42, 59
7, 93564, Note_on_c, 9, 42, 0
7, 93704, Note_on_c, 9, 44, 59
7, 93708, Note_on_c, 9, 42, 59
7, 93776, Note_on_c, 9, 44, 0
7, 93784, Note_on_c, 9, 42, 0
7, 93892, Note_on_c, 9, 42, 59
7, 93964, Note_on_c, 9, 42, 0
7, 94088, Note_on_c, 9, 44, 59
7, 94100, Note_on_c, 9, 42, 47
7, 94160, Note_on_c, 9, 44, 0
7, 94184, Note_on_c, 9, 42, 0
7, 94288, Note_on_c, 9, 42, 59
7, 94352, Note_on_c, 9, 42, 0
7, 94472, Note_on_c, 9, 44, 59
7, 94488, Note_on_c, 9, 42, 59
7, 94544, Note_on_c, 9, 44, 0
7, 94560, Note_on_c, 9, 42, 0
7, 94676, Note_on_c, 9, 42, 59
7, 94724, Note_on_c, 9, 42, 0
7, 94848, Note_on_c, 9, 44, 59
7, 94864, Note_on_c, 9, 42, 54
7, 94924, Note_on_c, 9, 44, 0
7, 94936, Note_on_c, 9, 42, 0
7, 95040, Note_on_c, 9, 42, 59
7, 95100, Note_on_c, 9, 42, 0
7, 95240, Note_on_c, 9, 44, 59
7, 95244, Note_on_c, 9, 42, 59
7, 95312, Note_on_c, 9, 44, 0
7, 95320, Note_on_c, 9, 42, 0
7, 95428, Note_on_c, 9, 42, 59
7, 95500, Note_on_c, 9, 42, 0
7, 95624, Note_on_c, 9, 44, 59
7, 95636, Note_on_c, 9, 42, 47
7, 95696, Note_on_c, 9, 44, 0
7, 95720, Note_on_c, 9, 42, 0
7, 95824, Note_on_c, 9, 42, 59
7, 95888, Note_on_c, 9, 42, 0
7, 96008, Note_on_c, 9, 44, 59
7, 96024, Note_on_c, 9, 42, 59
7, 96080, Note_on_c, 9, 44, 0
7, 96096, Note_on_c, 9, 42, 0
7, 96212, Note_on_c, 9, 42, 59
7, 96260, Note_on_c, 9, 42, 0
7, 96384, Note_on_c, 9, 44, 59
7, 96400, Note_on_c, 9, 42, 54
7, 96460, Note_on_c, 9, 44, 0
7, 96472, Note_on_c, 9, 42, 0
7, 96576, Note_on_c, 9, 42, 59
7, 96636, Note_on_c, 9, 42, 0
7, 96776, Note_on_c, 9, 44, 59
7, 96780, Note_on_c, 9, 42, 59
7, 96848, Note_on_c, 9, 44, 0
7, 96856, Note_on_c, 9, 42, 0
7, 96964, Note_on_c, 9, 42, 59
7, 97036, Note_on_c, 9, 42, 0
7, 97160, Note_on_c, 9, 44, 59
7, 97172, Note_on_c, 9, 42, 47
7, 97232, Note_on_c, 9, 44, 0
7, 97256, Note_on_c, 9, 42, 0
7, 97360, Note_on_c, 9, 42, 59
7, 97424, Note_on_c, 9, 42, 0
7, 97544, Note_on_c, 9, 44, 59
7, 97560, Note_on_c, 9, 42, 59
7, 97616, Note_on_c, 9, 44, 0
7, 97632, Note_on_c, 9, 42, 0
7, 97748, Note_on_c, 9, 42, 59
7, 97796, Note_on_c, 9, 42, 0
7, 97920, Note_on_c, 9, 44, 59
7, 97936, Note_on_c, 9, 42, 54
7, 97996, Note_on_c, 9, 44, 0
7, 98008, Note_on_c, 9, 42, 0
7, 98112, Note_on_c, 9, 42, 59
7, 98172, Note_on_c, 9, 42, 0
7, 98312, Note_on_c, 9, 44, 59
7, 98316, Note_on_c, 9, 42, 59
7, 98384, Note_on_c, 9, 44, 0
7, 98392, Note_on_c, 9, 42, 0
7, 98500, Note_on_c, 9, 42, 59
7, 98572, Note_on_c, 9, 42, 0
7, 98696, Note_on_c, 9, 44, 59
7, 98708, Note_on_c, 9, 42, 47
7, 98768, Note_on_c, 9, 44, 0
7, 98792, Note_on_c, 9, 42, 0
7, 98896, Note_on_c, 9, 42, 59
7, 98960, Note_on_c, 9, 42, 0
7, 99080, Note_on_c, 9, 44, 59
7, 99096, Note_on_c, 9, 42, 59
7, 99152, Note_on_c, 9, 44, 0
7, 99168, Note_on_c, 9, 42, 0
7, 99284, Note_on_c, 9, 42, 59
7, 99332, Note_on_c, 9, 42, 0
7, 99456, Note_on_c, 9, 44, 59
7, 99472, Note_on_c, 9, 42, 54
7, 99532, Note_on_c, 9, 44, 0
7, 99544, Note_on_c, 9, 42, 0
7, 99648, Note_on_c, 9, 42, 59
7, 99708, Note_on_c, 9, 42, 0
7, 99848, Note_on_c, 9, 44, 59
7, 99852, Note_on_c, 9, 42, 59
7, 99920, Note_on_c, 9, 44, 0
7, 99928, Note_on_c, 9, 42, 0
7, 100036, Note_on_c, 9, 42, 59
7, 100108, Note_on_c, 9, 42, 0
7, 100232, Note_on_c, 9, 44, 59
7, 100244, Note_on_c, 9, 42, 47
7, 100304, Note_on_c, 9, 44, 0
7, 100328, Note_on_c, 9, 42, 0
7, 100432, Note_on_c, 9, 42, 59
7, 100496, Note_on_c, 9, 42, 0
7, 100616, Note_on_c, 9, 44, 59
7, 100632, Note_on_c, 9, 42, 59
7, 100688, Note_on_c, 9, 44, 0
7, 100704, Note_on_c, 9, 42, 0
7, 100820, Note_on_c, 9, 42, 59
7, 100868, Note_on_c, 9, 42, 0
7, 100992, Note_on_c, 9, 44, 59
7, 101008, Note_on_c, 9, 42, 54
7, 101068, Note_on_c, 9, 44, 0
7, 101080, Note_on_c, 9, 42, 0
7, 101184, Note_on_c, 9, 42, 59
7, 101244, Note_on_c, 9, 42, 0
7, 101384, Note_on_c, 9, 44, 59
7, 101388, Note_on_c, 9, 42, 59
7, 101456, Note_on_c, 9, 44, 0
7, 101464, Note_on_c, 9, 42, 0
7, 101572, Note_on_c, 9, 42, 59
7, 101644, Note_on_c, 9, 42, 0
7, 101768, Note_on_c, 9, 44, 59
7, 101780, Note_on_c, 9, 42, 47
7, 101840, Note_on_c, 9, 44, 0
7, 101864, Note_on_c, 9, 42, 0
7, 101968, Note_on_c, 9, 42, 59
7, 102032, Note_on_c, 9, 42, 0
7, 102152, Note_on_c, 9, 44, 59
7, 102168, Note_on_c, 9, 42, 59
7, 102224, Note_on_c, 9, 44, 0
7, 102240, Note_on_c, 9, 42, 0
7, 102356, Note_on_c, 9, 42, 59
7, 102404, Note_on_c, 9, 42, 0
7, 102528, Note_on_c, 9, 44, 59
7, 102544, Note_on_c, 9, 42, 54
7, 102604, Note_on_c, 9, 44, 0
7, 102616, Note_on_c, 9, 42, 0
7, 102720, Note_on_c, 9, 42, 59
7, 102780, Note_on_c, 9, 42, 0
7, 102920, Note_on_c, 9, 44, 59
7, 102924, Note_on_c, 9, 42, 59
7, 102992, Note_on_c, 9, 44, 0
7, 103000, Note_on_c, 9, 42, 0
7, 103108, Note_on_c, 9, 42, 59
7, 103180, Note_on_c, 9, 42, 0
7, 103304, Note_on_c, 9, 44, 59
7, 103316, Note_on_c, 9, 42, 47
7, 103376, Note_on_c, 9, 44, 0
7, 103400, Note_on_c, 9, 42, 0
7, 103504, Note_on_c, 9, 42, 59
7, 103568, Note_on_c, 9, 42, 0
7, 103688, Note_on_c, 9, 44, 59
7, 103704, Note_on_c, 9, 42, 59
7, 103760, Note_on_c, 9, 44, 0
7, 103776, Note_on_c, 9, 42, 0
7, 103892, Note_on_c, 9, 42, 59
7, 103940, Note_on_c, 9, 42, 0
7, 104064, Note_on_c, 9, 44, 59
7, 104080, Note_on_c, 9, 42, 54
7, 104140, Note_on_c, 9, 44, 0
7, 104152, Note_on_c, 9, 42, 0
7, 104256, Note_on_c, 9, 42, 59
7, 104316, Note_on_c, 9, 42, 0
7, 104456, Note_on_c, 9, 44, 59
7, 104460, Note_on_c, 9, 42, 59
7, 104528, Note_on_c, 9, 44, 0
7, 104536, Note_on_c, 9, 42, 0
7, 104644, Note_on_c, 9, 42, 59
7, 104716, Note_on_c, 9, 42, 0
7, 104840, Note_on_c, 9, 44, 59
7, 104852, Note_on_c, 9, 42, 47
7, 104912, Note_on_c, 9, 44, 0
7, 104936, Note_on_c, 9, 42, 0
7, 105040, Note_on_c, 9, 42, 59
7, 105104, Note_on_c, 9, 42, 0
7, 105224, Note_on_c, 9, 44, 59
7, 105240, Note_on_c, 9, 42, 59
7, 105296, Note_on_c, 9, 44, 0
7, 105312, Note_on_c, 9, 42, 0
7, 105428, Note_on_c, 9, 42, 59
7, 105476, Note_on_c, 9, 42, 0
7, 105600, Note_on_c, 9, 44, 59
7, 105616, Note_on_c, 9, 42, 54
7, 105676, Note_on_c, 9, 44, 0
7, 105688, Note_on_c, 9, 42, 0
7, 105792, Note_on_c, 9, 42, 59
7, 105852, Note_on_c, 9, 42, 0
7, 105992, Note_on_c, 9, 44, 59
7, 105996, Note_on_c, 9, 42, 59
7, 106064, Note_on_c, 9, 44, 0
7, 106072, Note_on_c, 9, 42, 0
7, 106180, Note_on_c, 9, 42, 59
7, 106252, Note_on_c, 9, 42, 0
7, 106376, Note_on_c, 9, 44, 59
7, 106388, Note_on_c, 9, 42, 47
7, 106448, Note_on_c, 9, 44, 0
7, 106472, Note_on_c, 9, 42, 0
7, 106576, Note_on_c, 9, 42, 59
7, 106640, Note_on_c, 9, 42, 0
7, 106760, Note_on_c, 9, 44, 59
7, 106776, Note_on_c, 9, 42, 59
7, 106832, Note_on_c, 9, 44, 0
7, 106848, Note_on_c, 9, 42, 0
7, 106964, Note_on_c, 9, 42, 59
7, 107012, Note_on_c, 9, 42, 0
7, 107136, Note_on_c, 9, 44, 59
7, 107152, Note_on_c, 9, 42, 54
7, 107212, Note_on_c, 9, 44, 0
7, 107224, Note_on_c, 9, 42, 0
7, 107328, Note_on_c, 9, 42, 59
7, 107388, Note_on_c, 9, 42, 0
7, 107528, Note_on_c, 9, 44, 59
7, 107532, Note_on_c, 9, 42, 59
7, 107600, Note_on_c, 9, 44, 0
7, 107608, Note_on_c, 9, 42, 0
7, 107716, Note_on_c, 9, 42, 59
7, 107788, Note_on_c, 9, 42, 0
7, 107912, Note_on_c, 9, 44, 59
7, 107924, Note_on_c, 9, 42, 47
7, 107984, Note_on_c, 9, 44, 0
7, 108008, Note_on_c, 9, 42, 0
7, 108112, Note_on_c, 9, 42, 59
7, 108176, Note_on_c, 9, 42, 0
7, 108296, Note_on_c, 9, 44, 59
7, 108312, Note_on_c, 9, 42, 59
7, 108368, Note_on_c, 9, 44, 0
7, 108384, Note_on_c, 9, 42, 0
7, 108500, Note_on_c, 9, 42, 59
7, 108548, Note_on_c, 9, 42, 0
7, 108672, Note_on_c, 9, 44, 59
7, 108688, Note_on_c, 9, 42, 54
7, 108748, Note_on_c, 9, 44, 0
7, 108760, Note_on_c, 9, 42, 0
7, 108864, Note_on_c, 9, 42, 59
7, 108924, Note_on_c, 9, 42, 0
7, 109064, Note_on_c, 9, 44, 59
7, 109068, Note_on_c, 9, 42, 59
7, 109136, Note_on_c, 9, 44, 0
7, 109144, Note_on_c, 9, 42, 0
7, 109252, Note_on_c, 9, 42, 59
7, 109324, Note_on_c, 9, 42, 0
7, 109448, Note_on_c, 9, 44, 59
7, 109460, Note_on_c, 9, 42, 47
7, 109520, Note_on_c, 9, 44, 0
7, 109544, Note_on_c, 9, 42, 0
7, 109648, Note_on_c, 9, 42, 59
7, 109712, Note_on_c, 9, 42, 0
7, 109832, Note_on_c, 9, 44, 59
7, 109848, Note_on_c, 9, 42, 59
7, 109904, Note_on_c, 9, 44, 0
7, 109920, Note_on_c, 9, 42, 0
7, 110036, Note_on_c, 9, 42, 59
7, 110084, Note_on_c, 9, 42, 0
7, 110208, Note_on_c, 9, 44, 59
7, 110224, Note_on_c, 9, 42, 54
7, 110284, Note_on_c, 9, 44, 0
7, 110296, Note_on_c, 9, 42, 0
7, 110400, Note_on_c, 9, 42, 59
7, 110460, Note_on_c, 9, 42, 0
7, 110600, Note_on_c, 9, 44, 59
7, 110604, Note_on_c, 9, 42, 59
7, 110672, Note_on_c, 9, 44, 0
7, 110680, Note_on_c, 9, 42, 0
7, 110788, Note_on_c, 9, 42, 59
7, 110860, Note_on_c, 9, 42, 0
7, 110984, Note_on_c, 9, 44, 59
7, 110996, Note_on_c, 9, 42, 47
7, 111056, Note_on_c, 9, 44, 0
7, 111080, Note_on_c, 9, 42, 0
7, 111184, Note_on_c, 9, 42, 59
7, 111248, Note_on_c, 9, 42, 0
7, 111368, Note_on_c, 9, 44, 59
7, 111384, Note_on_c, 9, 42, 59
7, 111440, Note_on_c, 9, 44, 0
7, 111456, Note_on_c, 9, 42, 0
7, 111572, Note_on_c, 9, 42, 59
7, 111620, Note_on_c, 9, 42, 0
7, 111744, Note_on_c, 9, 44, 59
7, 111760, Note_on_c, 9, 42, 54
7, 111820, Note_on_c, 9, 44, 0
7, 111832, Note_on_c, 9, 42, 0
7, 111936, Note_on_c, 9, 42, 59
7, 111996, Note_on_c, 9, 42, 0
7, 112136, Note_on_c, 9, 44, 59
7, 112140, Note_on_c, 9, 42, 59
7, 112208, Note_on_c, 9, 44, 0
7, 112216, Note_on_c, 9, 42, 0
7, 112324, Note_on_c, 9, 42, 59
7, 112396, Note_on_c, 9, 42, 0
7, 112520, Note_on_c, 9, 44, 59
7, 112532, Note_on_c, 9, 42, 47
7, 112592, Note_on_c, 9, 44, 0
7, 112616, Note_on_c, 9, 42, 0
7, 112720, Note_on_c, 9, 42, 59
7, 112784, Note_on_c, 9, 42, 0
7, 112904, Note_on_c, 9, 44, 59
7, 112920, Note_on_c, 9, 42, 59
7, 112976, Note_on_c, 9, 44, 0
7, 112992, Note_on_c, 9, 42, 0
7, 113108, Note_on_c, 9, 42, 59
7, 113156, Note_on_c, 9, 42, 0
7, 113280, Note_on_c, 9, 44, 59
7, 113296, Note_on_c, 9, 42, 54
7, 113356, Note_on_c, 9, 44, 0
7, 113368, Note_on_c, 9, 42, 0
7, 113472, Note_on_c, 9, 42, 59
7, 113532, Note_on_c, 9, 42, 0
7, 113532, End_track
8, 0, Start_track
8, 0, MIDI_port, 0
8, 0, Title_t, "Pedal Steel Guitar"
8, 0, Control_c, 5, 0, 0
8, 0, Control_c, 5, 32, 8
8, 0, Program_c, 5, 26
8, 14956, Note_on_c, 5, 64, 61
8, 15164, Note_on_c, 5, 62, 61
8, 15548, Note_on_c, 5, 57, 68
8, 16668, Note_on_c, 5, 64, 0
8, 16876, Note_on_c, 5, 62, 0
8, 17260, Note_on_c, 5, 57, 0
8, 18764, Note_on_c, 5, 62, 61
8, 20312, Note_on_c, 5, 61, 61
8, 20352, Note_on_c, 5, 62, 0
8, 21848, Note_on_c, 5, 61, 0
8, 21856, Note_on_c, 5, 62, 61
8, 23184, Note_on_c, 5, 62, 0
8, 23396, Note_on_c, 5, 64, 61
8, 24464, Note_on_c, 5, 64, 0
8, 24548, Note_on_c, 5, 64, 61
8, 24756, Note_on_c, 5, 59, 61
8, 24928, Note_on_c, 5, 57, 61
8, 24952, Note_on_c, 5, 59, 0
8, 25112, Note_on_c, 5, 56, 61
8, 25156, Note_on_c, 5, 57, 0
8, 26112, Note_on_c, 5, 64, 0
8, 26136, Note_on_c, 5, 56, 0
8, 26136, End_track
9, 0, Start_track
9, 0, MIDI_port, 0
9, 0, Title_t, "Sting"
9, 0, Control_c, 7, 0, 0
9, 0, Control_c, 7, 32, 0
9, 0, Program_c, 7, 73
9, 13056, Note_on_c, 7, 66, 100
9, 13056, Lyric_t, "Heal "
9, 13248, Note_on_c, 7, 66, 0
9, 13424, Note_on_c, 7, 66, 100
9, 13424, Lyric_t, "my "
9, 13656, Note_on_c, 7, 66, 0
9, 13816, Note_on_c, 7, 64, 100
9, 13816, Lyric_t, "eyes "
9, 14772, Note_on_c, 7, 64, 0
9, 15564, Note_on_c, 7, 57, 100
9, 15564, Lyric_t, "Oh "
9, 15772, Note_on_c, 7, 57, 0
9, 15848, Note_on_c, 7, 57, 100
9, 16112, Note_on_c, 7, 57, 0
9, 16120, Note_on_c, 7, 66, 100
9, 16120, Lyric_t, "Li "
9, 16380, Note_on_c, 7, 64, 100
9, 16380, Lyric_t, "thi "
9, 16412, Note_on_c, 7, 66, 0
9, 16508, Note_on_c, 7, 64, 0
9, 16660, Note_on_c, 7, 64, 100
9, 16660, Lyric_t, "um "
9, 16800, Note_on_c, 7, 66, 100
9, 16824, Note_on_c, 7, 64, 0
9, 16924, Note_on_c, 7, 66, 0
9, 16924, Note_on_c, 7, 61, 100
9, 16924, Lyric_t, "sun "
9, 17152, Note_on_c, 7, 61, 0
9, 17176, Note_on_c, 7, 57, 100
9, 17176, Lyric_t, "set "
9, 18284, Note_on_c, 7, 57, 0
9, 18964, Note_on_c, 7, 57, 100
9, 18964, Lyric_t, "And "
9, 19108, Note_on_c, 7, 57, 0
9, 19152, Note_on_c, 7, 66, 100
9, 19152, Lyric_t, "take "
9, 19504, Note_on_c, 7, 66, 0
9, 19560, Note_on_c, 7, 64, 100
9, 19560, Lyric_t, "this "
9, 19668, Note_on_c, 7, 64, 0
9, 19780, Note_on_c, 7, 64, 100
9, 19780, Lyric_t, "lonsome "
9, 20132, Note_on_c, 7, 64, 0
9, 20140, Note_on_c, 7, 61, 100
9, 20140, Lyric_t, "burden "
9, 21288, Note_on_c, 7, 61, 0
9, 22200, Note_on_c, 7, 62, 100
9, 22200, Lyric_t, "Of "
9, 22456, Note_on_c, 7, 61, 100
9, 22456, Lyric_t, "worry "
9, 22480, Note_on_c, 7, 62, 0
9, 22776, Note_on_c, 7, 59, 100
9, 22776, Lyric_t, "from "
9, 22812, Note_on_c, 7, 61, 0
9, 22844, Note_on_c, 7, 57, 100
9, 22844, Lyric_t, "my "
9, 22868, Note_on_c, 7, 59, 0
9, 22976, Note_on_c, 7, 59, 100
9, 22976, Lyric_t, "mind "
9, 22996, Note_on_c, 7, 57, 0
9, 24404, Note_on_c, 7, 59, 0
9, 25300, Note_on_c, 7, 66, 100
9, 25300, Lyric_t, "Take "
9, 25516, Note_on_c, 7, 66, 0
9, 25700, Note_on_c, 7, 66, 100
9, 25700, Lyric_t, "this "
9, 25920, Note_on_c, 7, 66, 0
9, 26080, Note_on_c, 7, 64, 100
9, 26080, Lyric_t, "heart "
9, 26628, Note_on_c, 7, 64, 0
9, 26652, Note_on_c, 7, 57, 100
9, 26652, Lyric_t, "ache "
9, 27700, Note_on_c, 7, 57, 0
9, 27844, Note_on_c, 7, 57, 100
9, 27844, Lyric_t, "Of "
9, 28028, Note_on_c, 7, 57, 0
9, 28168, Note_on_c, 7, 57, 100
9, 28168, Lyric_t, "ob "
9, 28368, Note_on_c, 7, 57, 0
9, 28424, Note_on_c, 7, 66, 100
9, 28424, Lyric_t, "si "
9, 28636, Note_on_c, 7, 66, 0
9, 28692, Note_on_c, 7, 64, 100
9, 28692, Lyric_t, "di "
9, 28836, Note_on_c, 7, 64, 0
9, 28956, Note_on_c, 7, 64, 100
9, 28956, Lyric_t, "an "
9, 29072, Note_on_c, 7, 64, 0
9, 29176, Note_on_c, 7, 64, 100
9, 29176, Lyric_t, "dark "
9, 29400, Note_on_c, 7, 64, 0
9, 29456, Note_on_c, 7, 61, 100
9, 29456, Lyric_t, "ness "
9, 30752, Note_on_c, 7, 61, 0
9, 31252, Note_on_c, 7, 57, 100
9, 31252, Lyric_t, "And "
9, 31444, Note_on_c, 7, 57, 0
9, 31464, Note_on_c, 7, 66, 100
9, 31464, Lyric_t, "fold "
9, 31848, Note_on_c, 7, 64, 100
9, 31848, Lyric_t, "my "
9, 31852, Note_on_c, 7, 66, 0
9, 31948, Note_on_c, 7, 64, 0
9, 32044, Note_on_c, 7, 64, 100
9, 32044, Lyric_t, "dark "
9, 32424, Note_on_c, 7, 64, 0
9, 32436, Note_on_c, 7, 61, 100
9, 32436, Lyric_t, "ness "
9, 33704, Note_on_c, 7, 61, 0
9, 34540, Note_on_c, 7, 62, 100
9, 34540, Lyric_t, "Inside "
9, 34828, Note_on_c, 7, 61, 100
9, 34828, Lyric_t, "your "
9, 34856, Note_on_c, 7, 62, 0
9, 35116, Note_on_c, 7, 59, 100
9, 35116, Lyric_t, "yel "
9, 35152, Note_on_c, 7, 61, 0
9, 35224, Note_on_c, 7, 57, 100
9, 35224, Lyric_t, "low "
9, 35236, Note_on_c, 7, 59, 0
9, 35300, Note_on_c, 7, 59, 100
9, 35300, Lyric_t, "light "
9, 35324, Note_on_c, 7, 57, 0
9, 36780, Note_on_c, 7, 59, 0
9, 37440, Note_on_c, 7, 66, 100
9, 37440, Lyric_t, "I've "
9, 37672, Note_on_c, 7, 66, 0
9, 37832, Note_on_c, 7, 66, 100
9, 37832, Lyric_t, "been "
9, 38060, Note_on_c, 7, 66, 0
9, 38212, Note_on_c, 7, 66, 100
9, 38212, Lyric_t, "scat "
9, 38596, Note_on_c, 7, 64, 100
9, 38596, Lyric_t, "tered "
9, 38620, Note_on_c, 7, 66, 0
9, 38952, Note_on_c, 7, 62, 100
9, 38952, Lyric_t, "I've "
9, 39000, Note_on_c, 7, 64, 0
9, 39156, Note_on_c, 7, 62, 0
9, 39304, Note_on_c, 7, 62, 100
9, 39304, Lyric_t, "been "
9, 39536, Note_on_c, 7, 62, 0
9, 39692, Note_on_c, 7, 62, 100
9, 39692, Lyric_t, "shat "
9, 39884, Note_on_c, 7, 62, 0
9, 39888, Note_on_c, 7, 61, 100
9, 39888, Lyric_t, "tered "
9, 40716, Note_on_c, 7, 61, 0
9, 40892, Note_on_c, 7, 62, 100
9, 40892, Lyric_t, "I've "
9, 40960, Note_on_c, 7, 62, 0
9, 41056, Note_on_c, 7, 62, 100
9, 41056, Lyric_t, "been "
9, 41160, Note_on_c, 7, 62, 0
9, 41264, Note_on_c, 7, 62, 100
9, 41264, Lyric_t, "knocked "
9, 41612, Note_on_c, 7, 62, 0
9, 41636, Note_on_c, 7, 62, 100
9, 41636, Lyric_t, "out "
9, 41768, Note_on_c, 7, 62, 0
9, 42012, Note_on_c, 7, 62, 100
9, 42012, Lyric_t, "of "
9, 42352, Note_on_c, 7, 62, 0
9, 42416, Note_on_c, 7, 62, 100
9, 42416, Lyric_t, "the "
9, 42596, Note_on_c, 7, 62, 0
9, 42792, Note_on_c, 7, 61, 100
9, 42792, Lyric_t, "race "
9, 43096, Note_on_c, 7, 61, 0
9, 43192, Note_on_c, 7, 61, 100
9, 43192, Lyric_t, "But "
9, 43392, Note_on_c, 7, 61, 0
9, 43556, Note_on_c, 7, 59, 100
9, 43556, Lyric_t, "I'll "
9, 43788, Note_on_c, 7, 59, 0
9, 43956, Note_on_c, 7, 59, 100
9, 43956, Lyric_t, "get "
9, 44160, Note_on_c, 7, 59, 0
9, 44316, Note_on_c, 7, 59, 100
9, 44316, Lyric_t, "bet "
9, 44496, Note_on_c, 7, 57, 100
9, 44496, Lyric_t, "ter "
9, 44520, Note_on_c, 7, 59, 0
9, 45560, Note_on_c, 7, 57, 0
9, 46256, Note_on_c, 7, 62, 100
9, 46256, Lyric_t, "I "
9, 46472, Note_on_c, 7, 62, 0
9, 46640, Note_on_c, 7, 62, 100
9, 46640, Lyric_t, "fell "
9, 46900, Note_on_c, 7, 62, 0
9, 47004, Note_on_c, 7, 62, 100
9, 47004, Lyric_t, "your "
9, 47224, Note_on_c, 7, 62, 0
9, 47384, Note_on_c, 7, 62, 100
9, 47384, Lyric_t, "light "
9, 47676, Note_on_c, 7, 62, 0
9, 47796, Note_on_c, 7, 62, 100
9, 47796, Lyric_t, "u "
9, 47976, Note_on_c, 7, 62, 0
9, 48164, Note_on_c, 7, 62, 100
9, 48164, Lyric_t, "pon "
9, 48412, Note_on_c, 7, 62, 0
9, 48552, Note_on_c, 7, 62, 100
9, 48552, Lyric_t, "my "
9, 48792, Note_on_c, 7, 62, 0
9, 48924, Note_on_c, 7, 61, 100
9, 48924, Lyric_t, "face "
9, 49544, Note_on_c, 7, 61, 0
9, 49872, Note_on_c, 7, 69, 100
9, 49872, Lyric_t, "Heal "
9, 50232, Note_on_c, 7, 69, 0
9, 50288, Note_on_c, 7, 66, 100
9, 50288, Lyric_t, "my "
9, 50664, Note_on_c, 7, 64, 100
9, 50664, Lyric_t, "so "
9, 50716, Note_on_c, 7, 66, 0
9, 50880, Note_on_c, 7, 64, 0
9, 50892, Note_on_c, 7, 61, 100
9, 50892, Lyric_t, "ul "
9, 51520, Note_on_c, 7, 61, 0
9, 52396, Note_on_c, 7, 57, 100
9, 52396, Lyric_t, "Oh "
9, 52588, Note_on_c, 7, 57, 0
9, 52700, Note_on_c, 7, 57, 100
9, 52932, Note_on_c, 7, 57, 0
9, 52952, Note_on_c, 7, 66, 100
9, 52952, Lyric_t, "li "
9, 53200, Note_on_c, 7, 64, 100
9, 53200, Lyric_t, "thi "
9, 53224, Note_on_c, 7, 66, 0
9, 53380, Note_on_c, 7, 64, 0
9, 53492, Note_on_c, 7, 64, 100
9, 53492, Lyric_t, "um "
9, 53764, Note_on_c, 7, 61, 100
9, 53764, Lyric_t, "sunset "
9, 53820, Note_on_c, 7, 64, 0
9, 54544, Note_on_c, 7, 61, 0
9, 56044, Note_on_c, 7, 66, 100
9, 56044, Lyric_t, "I'llride "
9, 56412, Note_on_c, 7, 64, 100
9, 56412, Lyric_t, "the "
9, 56436, Note_on_c, 7, 66, 0
9, 56524, Note_on_c, 7, 64, 0
9, 56596, Note_on_c, 7, 64, 100
9, 56596, Lyric_t, "turnin "
9, 56988, Note_on_c, 7, 64, 0
9, 57016, Note_on_c, 7, 61, 100
9, 57016, Lyric_t, "world "
9, 58016, Note_on_c, 7, 61, 0
9, 58740, Note_on_c, 7, 62, 100
9, 58740, Lyric_t, "To "
9, 58952, Note_on_c, 7, 62, 0
9, 58952, Note_on_c, 7, 61, 100
9, 58952, Lyric_t, "a "
9, 59060, Note_on_c, 7, 61, 0
9, 59152, Note_on_c, 7, 61, 100
9, 59152, Lyric_t, "no "
9, 59280, Note_on_c, 7, 59, 100
9, 59280, Lyric_t, "ther "
9, 59308, Note_on_c, 7, 61, 0
9, 59372, Note_on_c, 7, 59, 0
9, 59428, Note_on_c, 7, 59, 100
9, 59428, Lyric_t, "night "
9, 60904, Note_on_c, 7, 59, 0
9, 61792, Note_on_c, 7, 62, 100
9, 61792, Lyric_t, "To "
9, 62012, Note_on_c, 7, 61, 100
9, 62012, Lyric_t, "a "
9, 62044, Note_on_c, 7, 62, 0
9, 62096, Note_on_c, 7, 61, 0
9, 62180, Note_on_c, 7, 61, 100
9, 62180, Lyric_t, "no "
9, 62308, Note_on_c, 7, 61, 0
9, 62320, Note_on_c, 7, 59, 100
9, 62320, Lyric_t, "ther "
9, 62400, Note_on_c, 7, 59, 0
9, 62448, Note_on_c, 7, 59, 100
9, 62448, Lyric_t, "night "
9, 63736, Note_on_c, 7, 59, 0
9, 64848, Note_on_c, 7, 68, 100
9, 64848, Lyric_t, "To "
9, 65048, Note_on_c, 7, 68, 0
9, 65060, Note_on_c, 7, 66, 100
9, 65060, Lyric_t, "a "
9, 65136, Note_on_c, 7, 66, 0
9, 65248, Note_on_c, 7, 66, 100
9, 65248, Lyric_t, "no "
9, 65348, Note_on_c, 7, 66, 0
9, 65356, Note_on_c, 7, 64, 100
9, 65356, Lyric_t, "ther "
9, 65436, Note_on_c, 7, 64, 0
9, 65492, Note_on_c, 7, 64, 100
9, 65492, Lyric_t, "night "
9, 66800, Note_on_c, 7, 64, 0
9, 69288, Note_on_c, 7, 57, 100
9, 69288, Lyric_t, "See "
9, 69408, Note_on_c, 7, 57, 0
9, 69588, Note_on_c, 7, 57, 100
9, 69760, Note_on_c, 7, 57, 0
9, 69832, Note_on_c, 7, 66, 100
9, 69832, Lyric_t, "mer "
9, 70100, Note_on_c, 7, 64, 100
9, 70100, Lyric_t, "cu "
9, 70108, Note_on_c, 7, 66, 0
9, 70232, Note_on_c, 7, 64, 0
9, 70368, Note_on_c, 7, 64, 100
9, 70368, Lyric_t, "ry "
9, 70464, Note_on_c, 7, 66, 100
9, 70508, Note_on_c, 7, 64, 0
9, 70584, Note_on_c, 7, 66, 0
9, 70592, Note_on_c, 7, 61, 100
9, 70592, Lyric_t, "fal "
9, 70856, Note_on_c, 7, 61, 0
9, 70860, Note_on_c, 7, 57, 100
9, 70860, Lyric_t, "ling "
9, 71788, Note_on_c, 7, 57, 0
9, 72364, Note_on_c, 7, 57, 100
9, 72364, Lyric_t, "See "
9, 72568, Note_on_c, 7, 57, 0
9, 72672, Note_on_c, 7, 57, 100
9, 72864, Note_on_c, 7, 57, 0
9, 72920, Note_on_c, 7, 66, 100
9, 72920, Lyric_t, "mer "
9, 73172, Note_on_c, 7, 66, 0
9, 73180, Note_on_c, 7, 64, 100
9, 73180, Lyric_t, "cu "
9, 73384, Note_on_c, 7, 64, 0
9, 73460, Note_on_c, 7, 64, 100
9, 73460, Lyric_t, "ry "
9, 73556, Note_on_c, 7, 66, 100
9, 73596, Note_on_c, 7, 64, 0
9, 73644, Note_on_c, 7, 61, 100
9, 73644, Lyric_t, "fal "
9, 73676, Note_on_c, 7, 66, 0
9, 73900, Note_on_c, 7, 61, 0
9, 73904, Note_on_c, 7, 57, 100
9, 73904, Lyric_t, "ling "
9, 75172, Note_on_c, 7, 57, 0
9, 75416, Note_on_c, 7, 57, 100
9, 75416, Lyric_t, "See "
9, 75608, Note_on_c, 7, 57, 0
9, 75732, Note_on_c, 7, 57, 100
9, 75940, Note_on_c, 7, 57, 0
9, 75980, Note_on_c, 7, 66, 100
9, 75980, Lyric_t, "mer "
9, 76224, Note_on_c, 7, 64, 100
9, 76224, Lyric_t, "cu "
9, 76248, Note_on_c, 7, 66, 0
9, 76372, Note_on_c, 7, 64, 0
9, 76540, Note_on_c, 7, 64, 100
9, 76540, Lyric_t, "ry "
9, 76616, Note_on_c, 7, 66, 100
9, 76660, Note_on_c, 7, 64, 0
9, 76736, Note_on_c, 7, 61, 100
9, 76736, Lyric_t, "fal "
9, 76740, Note_on_c, 7, 66, 0
9, 77032, Note_on_c, 7, 57, 100
9, 77032, Lyric_t, "ling "
9, 77040, Note_on_c, 7, 61, 0
9, 77996, Note_on_c, 7, 57, 0
9, 78476, Note_on_c, 7, 57, 100
9, 78476, Lyric_t, "See "
9, 78640, Note_on_c, 7, 57, 0
9, 78820, Note_on_c, 7, 57, 100
9, 78980, Note_on_c, 7, 57, 0
9, 79076, Note_on_c, 7, 66, 100
9, 79076, Lyric_t, "mer "
9, 79332, Note_on_c, 7, 64, 100
9, 79332, Lyric_t, "cu "
9, 79340, Note_on_c, 7, 66, 0
9, 79540, Note_on_c, 7, 64, 0
9, 79644, Note_on_c, 7, 64, 100
9, 79644, Lyric_t, "ry "
9, 79728, Note_on_c, 7, 66, 100
9, 79760, Note_on_c, 7, 64, 0
9, 79824, Note_on_c, 7, 61, 100
9, 79824, Lyric_t, "fal "
9, 79852, Note_on_c, 7, 66, 0
9, 80084, Note_on_c, 7, 61, 0
9, 80096, Note_on_c, 7, 57, 100
9, 80096, Lyric_t, "ling "
9, 81196, Note_on_c, 7, 57, 0
9, 81580, Note_on_c, 7, 57, 100
9, 81580, Lyric_t, "See "
9, 81712, Note_on_c, 7, 57, 0
9, 81912, Note_on_c, 7, 57, 100
9, 82160, Note_on_c, 7, 57, 0
9, 82188, Note_on_c, 7, 66, 100
9, 82188, Lyric_t, "mer "
9, 82416, Note_on_c, 7, 64, 100
9, 82416, Lyric_t, "cu "
9, 82452, Note_on_c, 7, 66, 0
9, 82640, Note_on_c, 7, 64, 0
9, 82716, Note_on_c, 7, 64, 100
9, 82716, Lyric_t, "ry "
9, 82812, Note_on_c, 7, 66, 100
9, 82828, Note_on_c, 7, 64, 0
9, 82900, Note_on_c, 7, 61, 100
9, 82900, Lyric_t, "fal "
9, 82916, Note_on_c, 7, 66, 0
9, 83128, Note_on_c, 7, 61, 0
9, 83148, Note_on_c, 7, 57, 100
9, 83148, Lyric_t, "ling "
9, 84468, Note_on_c, 7, 57, 0
9, 84648, Note_on_c, 7, 57, 100
9, 84648, Lyric_t, "See "
9, 84828, Note_on_c, 7, 57, 0
9, 84976, Note_on_c, 7, 57, 100
9, 85140, Note_on_c, 7, 57, 0
9, 85224, Note_on_c, 7, 66, 100
9, 85224, Lyric_t, "mer "
9, 85464, Note_on_c, 7, 64, 100
9, 85464, Lyric_t, "cu "
9, 85488, Note_on_c, 7, 66, 0
9, 85668, Note_on_c, 7, 64, 0
9, 85764, Note_on_c, 7, 64, 100
9, 85764, Lyric_t, "ry "
9, 85860, Note_on_c, 7, 66, 100
9, 85888, Note_on_c, 7, 64, 0
9, 85948, Note_on_c, 7, 66, 0
9, 85960, Note_on_c, 7, 61, 100
9, 85960, Lyric_t, "fal "
9, 86180, Note_on_c, 7, 61, 0
9, 86212, Note_on_c, 7, 57, 100
9, 86212, Lyric_t, "ling "
9, 87464, Note_on_c, 7, 57, 0
9, 87464, End_track
0, 0, End_of_file
