0, 0, Header, 1, 5, 960
1, 0, Start_track
1, 0, Control_c, 0, 101, 0
1, 0, Control_c, 0, 100, 0
1, 0, Control_c, 0, 6, 12
1, 0, Control_c, 0, 38, 0
1, 0, Control_c, 1, 101, 0
1, 0, Control_c, 1, 100, 0
1, 0, Control_c, 1, 6, 12
1, 0, Control_c, 1, 38, 0
1, 0, Control_c, 2, 101, 0
1, 0, Control_c, 2, 100, 0
1, 0, Control_c, 2, 6, 12
1, 0, Control_c, 2, 38, 0
1, 0, Control_c, 3, 101, 0
1, 0, Control_c, 3, 100, 0
1, 0, Control_c, 3, 6, 12
1, 0, Control_c, 3, 38, 0
1, 0, Control_c, 4, 101, 0
1, 0, Control_c, 4, 100, 0
1, 0, Control_c, 4, 6, 12
1, 0, Control_c, 4, 38, 0
1, 0, Control_c, 5, 101, 0
1, 0, Control_c, 5, 100, 0
1, 0, Control_c, 5, 6, 12
1, 0, Control_c, 5, 38, 0
1, 0, Control_c, 6, 101, 0
1, 0, Control_c, 6, 100, 0
1, 0, Control_c, 6, 6, 12
1, 0, Control_c, 6, 38, 0
1, 0, Control_c, 7, 101, 0
1, 0, Control_c, 7, 100, 0
1, 0, Control_c, 7, 6, 12
1, 0, Control_c, 7, 38, 0
1, 0, Control_c, 8, 101, 0
1, 0, Control_c, 8, 100, 0
1, 0, Control_c, 8, 6, 12
1, 0, Control_c, 8, 38, 0
1, 0, Control_c, 9, 101, 0
1, 0, Control_c, 9, 100, 0
1, 0, Control_c, 9, 6, 12
1, 0, Control_c, 9, 38, 0
1, 0, Control_c, 10, 101, 0
1, 0, Control_c, 10, 100, 0
1, 0, Control_c, 10, 6, 12
1, 0, Control_c, 10, 38, 0
1, 0, Control_c, 11, 101, 0
1, 0, Control_c, 11, 100, 0
1, 0, Control_c, 11, 6, 12
1, 0, Control_c, 11, 38, 0
1, 0, Control_c, 12, 101, 0
1, 0, Control_c, 12, 100, 0
1, 0, Control_c, 12, 6, 12
1, 0, Control_c, 12, 38, 0
1, 0, Control_c, 13, 101, 0
1, 0, Control_c, 13, 100, 0
1, 0, Control_c, 13, 6, 12
1, 0, Control_c, 13, 38, 0
1, 0, Control_c, 14, 101, 0
1, 0, Control_c, 14, 100, 0
1, 0, Control_c, 14, 6, 12
1, 0, Control_c, 14, 38, 0
1, 0, Control_c, 15, 101, 0
1, 0, Control_c, 15, 100, 0
1, 0, Control_c, 15, 6, 12
1, 0, Control_c, 15, 38, 0
1, 0, Time_signature, 4, 2, 24, 8
1, 0, Tempo, 600000
1, 0, End_track
2, 0, Start_track
2, 0, Pitch_bend_c, 0, 8192
2, 0, Control_c, 0, 7, 119
2, 0, Control_c, 0, 10, 63
2, 0, Control_c, 0, 93, 0
2, 0, Control_c, 0, 91, 0
2, 0, Control_c, 0, 95, 0
2, 0, Control_c, 0, 92, 0
2, 0, Control_c, 0, 11, 127
2, 0, Program_c, 0, 29
2, 0, Control_c, 1, 7, 119
2, 0, Control_c, 1, 10, 63
2, 0, Control_c, 1, 93, 0
2, 0, Control_c, 1, 91, 0
2, 0, Control_c, 1, 95, 0
2, 0, Control_c, 1, 92, 0
2, 0, Control_c, 1, 11, 127
2, 0, Program_c, 1, 29
2, 18240, Note_on_c, 1, 69, 95
2, 18240, Note_on_c, 1, 64, 95
2, 18360, Pitch_bend_c, 1, 7424
2, 18480, Pitch_bend_c, 1, 6528
2, 18600, Pitch_bend_c, 1, 5632
2, 18720, Pitch_bend_c, 1, 4736
2, 18840, Pitch_bend_c, 1, 3840
2, 18960, Pitch_bend_c, 1, 2944
2, 19080, Pitch_bend_c, 1, 2048
2, 19200, Note_off_c, 1, 69, 95
2, 19200, Pitch_bend_c, 1, 1152
2, 19200, Pitch_bend_c, 1, 8192
2, 19200, Note_off_c, 1, 64, 95
2, 19200, Note_on_c, 0, 64, 95
2, 19200, Note_on_c, 0, 54, 95
2, 19680, Note_off_c, 0, 64, 95
2, 19680, Note_off_c, 0, 54, 95
2, 19680, Note_on_c, 0, 64, 95
2, 19730, Note_off_c, 0, 64, 95
2, 19920, Note_on_c, 0, 64, 95
2, 19970, Note_off_c, 0, 64, 95
2, 20160, Note_on_c, 0, 64, 95
2, 20210, Note_off_c, 0, 64, 95
2, 20400, Note_on_c, 0, 64, 95
2, 20400, Note_on_c, 0, 54, 95
2, 20640, Note_off_c, 0, 64, 95
2, 20640, Note_off_c, 0, 54, 95
2, 21120, Note_on_c, 0, 59, 95
2, 21120, Note_on_c, 0, 55, 95
2, 21170, Note_off_c, 0, 59, 95
2, 21170, Note_off_c, 0, 55, 95
2, 21360, Note_on_c, 0, 59, 95
2, 21360, Note_on_c, 0, 55, 95
2, 21410, Note_off_c, 0, 59, 95
2, 21410, Note_off_c, 0, 55, 95
2, 21600, Note_on_c, 0, 59, 95
2, 21600, Note_on_c, 0, 55, 95
2, 21650, Note_off_c, 0, 59, 95
2, 21650, Note_off_c, 0, 55, 95
2, 21840, Note_on_c, 0, 59, 95
2, 21840, Note_on_c, 0, 55, 95
2, 21890, Note_off_c, 0, 59, 95
2, 21890, Note_off_c, 0, 55, 95
2, 22080, Note_on_c, 1, 69, 95
2, 22080, Note_on_c, 1, 64, 95
2, 22080, Note_on_c, 1, 54, 95
2, 22200, Pitch_bend_c, 1, 7808
2, 22320, Pitch_bend_c, 1, 7424
2, 22440, Pitch_bend_c, 1, 6912
2, 22560, Pitch_bend_c, 1, 6528
2, 22680, Pitch_bend_c, 1, 6016
2, 22800, Pitch_bend_c, 1, 5632
2, 22920, Pitch_bend_c, 1, 5120
2, 23040, Pitch_bend_c, 1, 4736
2, 23040, Pitch_bend_c, 1, 8192
2, 23040, Note_off_c, 1, 69, 95
2, 23040, Note_off_c, 1, 64, 95
2, 23040, Note_off_c, 1, 54, 95
2, 23040, Note_on_c, 0, 64, 95
2, 23090, Note_off_c, 0, 64, 95
2, 23520, Note_on_c, 0, 64, 95
2, 23570, Note_off_c, 0, 64, 95
2, 23760, Note_on_c, 0, 64, 95
2, 23810, Note_off_c, 0, 64, 95
2, 24000, Note_on_c, 0, 64, 95
2, 24050, Note_off_c, 0, 64, 95
2, 24240, Note_on_c, 0, 64, 95
2, 24290, Note_off_c, 0, 64, 95
2, 24960, Note_on_c, 0, 64, 95
2, 25010, Note_off_c, 0, 64, 95
2, 25200, Note_on_c, 0, 64, 95
2, 25250, Note_off_c, 0, 64, 95
2, 25440, Note_on_c, 0, 54, 95
2, 25920, Note_off_c, 0, 54, 95
2, 25920, Note_on_c, 1, 69, 95
2, 25920, Note_on_c, 1, 64, 95
2, 26040, Pitch_bend_c, 1, 7808
2, 26160, Pitch_bend_c, 1, 7424
2, 26280, Pitch_bend_c, 1, 6912
2, 26400, Pitch_bend_c, 1, 6528
2, 26520, Pitch_bend_c, 1, 6016
2, 26640, Pitch_bend_c, 1, 5632
2, 26760, Pitch_bend_c, 1, 5120
2, 26880, Pitch_bend_c, 1, 4736
2, 26880, Pitch_bend_c, 1, 8192
2, 26880, Note_off_c, 1, 69, 95
2, 26880, Note_off_c, 1, 64, 95
2, 26880, Note_on_c, 0, 64, 95
2, 26930, Note_off_c, 0, 64, 95
2, 27360, Note_on_c, 0, 64, 95
2, 27410, Note_off_c, 0, 64, 95
2, 27600, Note_on_c, 0, 64, 95
2, 27650, Note_off_c, 0, 64, 95
2, 27840, Note_on_c, 0, 64, 95
2, 27890, Note_off_c, 0, 64, 95
2, 28080, Note_on_c, 0, 64, 95
2, 28080, Note_on_c, 1, 42, 95
2, 28130, Note_off_c, 0, 64, 95
2, 28800, Note_off_c, 1, 42, 95
2, 28800, Note_on_c, 0, 64, 95
2, 28850, Note_off_c, 0, 64, 95
2, 29040, Note_on_c, 0, 64, 95
2, 29040, Note_on_c, 1, 42, 95
2, 29090, Note_off_c, 0, 64, 95
2, 29520, Note_off_c, 1, 42, 95
2, 29520, Note_on_c, 0, 64, 95
2, 29570, Note_off_c, 0, 64, 95
2, 29760, Note_on_c, 0, 69, 95
2, 29760, Note_on_c, 0, 64, 95
2, 29760, Note_on_c, 0, 54, 95
2, 30720, Note_off_c, 0, 69, 95
2, 30720, Note_off_c, 0, 64, 95
2, 30720, Note_off_c, 0, 54, 95
2, 30720, Note_on_c, 0, 64, 95
2, 30770, Note_off_c, 0, 64, 95
2, 31200, Note_on_c, 0, 64, 95
2, 31250, Note_off_c, 0, 64, 95
2, 31440, Note_on_c, 0, 64, 95
2, 31490, Note_off_c, 0, 64, 95
2, 31680, Note_on_c, 0, 64, 95
2, 31730, Note_off_c, 0, 64, 95
2, 31920, Note_on_c, 0, 64, 95
2, 31970, Note_off_c, 0, 64, 95
2, 32400, Note_on_c, 0, 64, 95
2, 32450, Note_off_c, 0, 64, 95
2, 32640, Note_on_c, 0, 64, 95
2, 32690, Note_off_c, 0, 64, 95
2, 32880, Note_on_c, 0, 64, 95
2, 32930, Note_off_c, 0, 64, 95
2, 33120, Note_on_c, 0, 64, 95
2, 33170, Note_off_c, 0, 64, 95
2, 33360, Note_on_c, 0, 64, 95
2, 33410, Note_off_c, 0, 64, 95
2, 33600, Note_on_c, 0, 69, 95
2, 33600, Note_on_c, 0, 64, 95
2, 33600, Note_on_c, 0, 57, 95
2, 34560, Note_off_c, 0, 69, 95
2, 34560, Note_off_c, 0, 64, 95
2, 34560, Note_off_c, 0, 57, 95
2, 34560, Note_on_c, 0, 64, 95
2, 34610, Note_off_c, 0, 64, 95
2, 35040, Note_on_c, 0, 64, 95
2, 35090, Note_off_c, 0, 64, 95
2, 35280, Note_on_c, 0, 64, 95
2, 35330, Note_off_c, 0, 64, 95
2, 35520, Note_on_c, 0, 64, 95
2, 35570, Note_off_c, 0, 64, 95
2, 35760, Note_on_c, 0, 64, 95
2, 35810, Note_off_c, 0, 64, 95
2, 36240, Note_on_c, 0, 64, 95
2, 36290, Note_off_c, 0, 64, 95
2, 36480, Note_on_c, 0, 64, 95
2, 36530, Note_off_c, 0, 64, 95
2, 36720, Note_on_c, 0, 64, 95
2, 36770, Note_off_c, 0, 64, 95
2, 36960, Note_on_c, 0, 64, 95
2, 37010, Note_off_c, 0, 64, 95
2, 37440, Note_on_c, 1, 64, 95
2, 37440, Note_on_c, 1, 60, 95
2, 37600, Pitch_bend_c, 1, 8192
2, 37600, Pitch_bend_c, 1, 8192
2, 37760, Pitch_bend_c, 1, 8320
2, 37760, Pitch_bend_c, 1, 8320
2, 37920, Pitch_bend_c, 1, 8192
2, 37920, Pitch_bend_c, 1, 8192
2, 38080, Pitch_bend_c, 1, 8320
2, 38080, Pitch_bend_c, 1, 8320
2, 38240, Pitch_bend_c, 1, 8192
2, 38240, Pitch_bend_c, 1, 8192
2, 38400, Pitch_bend_c, 1, 8320
2, 38400, Pitch_bend_c, 1, 8192
2, 38400, Note_off_c, 1, 64, 95
2, 38400, Pitch_bend_c, 1, 8320
2, 38400, Pitch_bend_c, 1, 8192
2, 38400, Note_off_c, 1, 60, 95
2, 38400, Note_on_c, 0, 64, 95
2, 38450, Note_off_c, 0, 64, 95
2, 38880, Note_on_c, 0, 64, 95
2, 38930, Note_off_c, 0, 64, 95
2, 39120, Note_on_c, 0, 64, 95
2, 39170, Note_off_c, 0, 64, 95
2, 39360, Note_on_c, 0, 64, 95
2, 39410, Note_off_c, 0, 64, 95
2, 39600, Note_on_c, 0, 64, 95
2, 39600, Note_on_c, 1, 45, 95
2, 39650, Note_off_c, 0, 64, 95
2, 39840, Note_off_c, 1, 45, 95
2, 40320, Note_on_c, 0, 64, 95
2, 40370, Note_off_c, 0, 64, 95
2, 40560, Note_on_c, 0, 64, 95
2, 40610, Note_off_c, 0, 64, 95
2, 40800, Note_on_c, 0, 64, 95
2, 40850, Note_off_c, 0, 64, 95
2, 41280, Note_on_c, 1, 67, 95
2, 41280, Note_on_c, 1, 57, 95
2, 42240, Note_off_c, 1, 67, 95
2, 42240, Note_off_c, 1, 57, 95
2, 42240, Note_on_c, 0, 64, 95
2, 42290, Note_off_c, 0, 64, 95
2, 42720, Note_on_c, 0, 64, 95
2, 42770, Note_off_c, 0, 64, 95
2, 42960, Note_on_c, 0, 64, 95
2, 43010, Note_off_c, 0, 64, 95
2, 43200, Note_on_c, 0, 64, 95
2, 43250, Note_off_c, 0, 64, 95
2, 43440, Note_on_c, 0, 64, 95
2, 43490, Note_off_c, 0, 64, 95
2, 44160, Note_on_c, 0, 64, 95
2, 44210, Note_off_c, 0, 64, 95
2, 44400, Note_on_c, 0, 64, 95
2, 44450, Note_off_c, 0, 64, 95
2, 44640, Note_on_c, 0, 64, 95
2, 44690, Note_off_c, 0, 64, 95
2, 45120, Note_on_c, 0, 69, 95
2, 45120, Note_on_c, 0, 64, 95
2, 45120, Note_on_c, 0, 54, 95
2, 46080, Note_off_c, 0, 69, 95
2, 46080, Note_off_c, 0, 64, 95
2, 46080, Note_off_c, 0, 54, 95
2, 46080, Note_on_c, 0, 64, 95
2, 46130, Note_off_c, 0, 64, 95
2, 46560, Note_on_c, 0, 64, 95
2, 46610, Note_off_c, 0, 64, 95
2, 46800, Note_on_c, 0, 64, 95
2, 46850, Note_off_c, 0, 64, 95
2, 47040, Note_on_c, 0, 64, 95
2, 47090, Note_off_c, 0, 64, 95
2, 47280, Note_on_c, 0, 64, 95
2, 47330, Note_off_c, 0, 64, 95
2, 47760, Note_on_c, 0, 64, 95
2, 47810, Note_off_c, 0, 64, 95
2, 48000, Note_on_c, 0, 64, 95
2, 48050, Note_off_c, 0, 64, 95
2, 48240, Note_on_c, 0, 64, 95
2, 48290, Note_off_c, 0, 64, 95
2, 48480, Note_on_c, 0, 64, 95
2, 48530, Note_off_c, 0, 64, 95
2, 48960, Note_on_c, 0, 69, 95
2, 48960, Note_on_c, 0, 64, 95
2, 48960, Note_on_c, 0, 54, 95
2, 49920, Note_off_c, 0, 69, 95
2, 49920, Note_off_c, 0, 64, 95
2, 49920, Note_off_c, 0, 54, 95
2, 49920, Note_on_c, 0, 64, 95
2, 49920, Note_on_c, 0, 59, 95
2, 49920, Note_on_c, 0, 49, 95
2, 50400, Note_off_c, 0, 64, 95
2, 50400, Note_off_c, 0, 59, 95
2, 50400, Note_off_c, 0, 49, 95
2, 50400, Note_on_c, 0, 59, 47
2, 50880, Note_off_c, 0, 59, 47
2, 50880, Note_on_c, 0, 64, 95
2, 50880, Note_on_c, 0, 59, 95
2, 50880, Note_on_c, 0, 49, 95
2, 51360, Note_off_c, 0, 64, 95
2, 51360, Note_off_c, 0, 59, 95
2, 51360, Note_off_c, 0, 49, 95
2, 51360, Note_on_c, 0, 59, 47
2, 51840, Note_off_c, 0, 59, 47
2, 51840, Note_on_c, 0, 64, 95
2, 51840, Note_on_c, 0, 59, 95
2, 51840, Note_on_c, 0, 49, 95
2, 52320, Note_off_c, 0, 64, 95
2, 52320, Note_off_c, 0, 59, 95
2, 52320, Note_off_c, 0, 49, 95
2, 52320, Note_on_c, 0, 59, 47
2, 52800, Note_off_c, 0, 59, 47
2, 52800, Note_on_c, 0, 64, 95
2, 52800, Note_on_c, 0, 59, 95
2, 52800, Note_on_c, 0, 49, 95
2, 53280, Note_off_c, 0, 64, 95
2, 53280, Note_off_c, 0, 59, 95
2, 53280, Note_off_c, 0, 49, 95
2, 53280, Note_on_c, 0, 59, 47
2, 53760, Note_off_c, 0, 59, 47
2, 53760, Note_on_c, 0, 64, 95
2, 53760, Note_on_c, 0, 59, 95
2, 53760, Note_on_c, 0, 49, 95
2, 54720, Note_off_c, 0, 64, 95
2, 54720, Note_off_c, 0, 59, 95
2, 54720, Note_off_c, 0, 49, 95
2, 54720, Note_on_c, 0, 64, 95
2, 54720, Note_on_c, 0, 59, 95
2, 54720, Note_on_c, 0, 49, 95
2, 55680, Note_off_c, 0, 64, 95
2, 55680, Note_off_c, 0, 59, 95
2, 55680, Note_off_c, 0, 49, 95
2, 55680, Note_on_c, 0, 71, 95
2, 55680, Note_on_c, 0, 66, 95
2, 55680, Note_on_c, 0, 62, 95
2, 55680, Note_on_c, 0, 52, 95
2, 56640, Note_off_c, 0, 71, 95
2, 56640, Note_off_c, 0, 66, 95
2, 56640, Note_off_c, 0, 62, 95
2, 56640, Note_off_c, 0, 52, 95
2, 56640, Note_on_c, 0, 72, 95
2, 56640, Note_on_c, 0, 67, 95
2, 56640, Note_on_c, 0, 63, 95
2, 56640, Note_on_c, 0, 53, 95
2, 57600, Note_off_c, 0, 72, 95
2, 57600, Note_off_c, 0, 67, 95
2, 57600, Note_off_c, 0, 63, 95
2, 57600, Note_off_c, 0, 53, 95
2, 57600, Note_on_c, 0, 64, 95
2, 57600, Note_on_c, 0, 54, 95
2, 58080, Note_off_c, 0, 64, 95
2, 58080, Note_off_c, 0, 54, 95
2, 58080, Note_on_c, 0, 55, 95
2, 58130, Note_off_c, 0, 55, 95
2, 58320, Note_on_c, 0, 55, 95
2, 58370, Note_off_c, 0, 55, 95
2, 58560, Note_on_c, 0, 55, 95
2, 58610, Note_off_c, 0, 55, 95
2, 58800, Note_on_c, 0, 55, 95
2, 58850, Note_off_c, 0, 55, 95
2, 59520, Note_on_c, 0, 55, 95
2, 59570, Note_off_c, 0, 55, 95
2, 59760, Note_on_c, 0, 55, 95
2, 59810, Note_off_c, 0, 55, 95
2, 60000, Note_on_c, 0, 55, 95
2, 60050, Note_off_c, 0, 55, 95
2, 60480, Note_on_c, 1, 69, 95
2, 60480, Note_on_c, 1, 64, 95
2, 60480, Note_on_c, 1, 54, 95
2, 61440, Note_off_c, 1, 69, 95
2, 61440, Note_off_c, 1, 64, 95
2, 61440, Note_off_c, 1, 54, 95
2, 61440, Note_on_c, 0, 55, 95
2, 61490, Note_off_c, 0, 55, 95
2, 61920, Note_on_c, 0, 55, 95
2, 61970, Note_off_c, 0, 55, 95
2, 62160, Note_on_c, 0, 55, 95
2, 62210, Note_off_c, 0, 55, 95
2, 62400, Note_on_c, 0, 55, 95
2, 62450, Note_off_c, 0, 55, 95
2, 62640, Note_on_c, 0, 55, 95
2, 62690, Note_off_c, 0, 55, 95
2, 62880, Note_on_c, 0, 55, 95
2, 62930, Note_off_c, 0, 55, 95
2, 63120, Note_on_c, 0, 55, 95
2, 63170, Note_off_c, 0, 55, 95
2, 63360, Note_on_c, 0, 55, 95
2, 63410, Note_off_c, 0, 55, 95
2, 63600, Note_on_c, 0, 55, 95
2, 63650, Note_off_c, 0, 55, 95
2, 64320, Note_on_c, 0, 55, 95
2, 64370, Note_off_c, 0, 55, 95
2, 65280, Note_on_c, 0, 55, 95
2, 65330, Note_off_c, 0, 55, 95
2, 65760, Note_on_c, 0, 55, 95
2, 65810, Note_off_c, 0, 55, 95
2, 66000, Note_on_c, 0, 55, 95
2, 66050, Note_off_c, 0, 55, 95
2, 66240, Note_on_c, 0, 55, 95
2, 66290, Note_off_c, 0, 55, 95
2, 66480, Note_on_c, 0, 69, 95
2, 66480, Note_on_c, 0, 64, 95
2, 66480, Note_on_c, 0, 54, 95
2, 67200, Note_off_c, 0, 69, 95
2, 67200, Note_off_c, 0, 64, 95
2, 67200, Note_off_c, 0, 54, 95
2, 67200, Note_on_c, 0, 55, 95
2, 67250, Note_off_c, 0, 55, 95
2, 67680, Note_on_c, 0, 55, 95
2, 67730, Note_off_c, 0, 55, 95
2, 68160, Note_on_c, 0, 69, 95
2, 68160, Note_on_c, 0, 64, 95
2, 68160, Note_on_c, 0, 54, 95
2, 69120, Note_off_c, 0, 69, 95
2, 69120, Note_off_c, 0, 64, 95
2, 69120, Note_off_c, 0, 54, 95
2, 69120, Note_on_c, 0, 55, 95
2, 69170, Note_off_c, 0, 55, 95
2, 69600, Note_on_c, 0, 55, 95
2, 69650, Note_off_c, 0, 55, 95
2, 69840, Note_on_c, 0, 55, 95
2, 69890, Note_off_c, 0, 55, 95
2, 70080, Note_on_c, 0, 55, 95
2, 70130, Note_off_c, 0, 55, 95
2, 70320, Note_on_c, 0, 55, 95
2, 70370, Note_off_c, 0, 55, 95
2, 71040, Note_on_c, 0, 55, 95
2, 71090, Note_off_c, 0, 55, 95
2, 71280, Note_on_c, 0, 55, 95
2, 71330, Note_off_c, 0, 55, 95
2, 71520, Note_on_c, 0, 55, 95
2, 71570, Note_off_c, 0, 55, 95
2, 72000, Note_on_c, 1, 69, 95
2, 72000, Note_on_c, 1, 64, 95
2, 72000, Note_on_c, 1, 54, 95
2, 72960, Note_off_c, 1, 69, 95
2, 72960, Note_off_c, 1, 64, 95
2, 72960, Note_off_c, 1, 54, 95
2, 72960, Note_on_c, 0, 55, 95
2, 73010, Note_off_c, 0, 55, 95
2, 73440, Note_on_c, 0, 55, 95
2, 73490, Note_off_c, 0, 55, 95
2, 73680, Note_on_c, 0, 55, 95
2, 73730, Note_off_c, 0, 55, 95
2, 73920, Note_on_c, 0, 55, 95
2, 73970, Note_off_c, 0, 55, 95
2, 74160, Note_on_c, 0, 55, 95
2, 74210, Note_off_c, 0, 55, 95
2, 74880, Note_on_c, 0, 55, 95
2, 74930, Note_off_c, 0, 55, 95
2, 75120, Note_on_c, 0, 55, 95
2, 75170, Note_off_c, 0, 55, 95
2, 75360, Note_on_c, 0, 55, 95
2, 75410, Note_off_c, 0, 55, 95
2, 75840, Note_on_c, 1, 69, 95
2, 75840, Note_on_c, 1, 64, 95
2, 75840, Note_on_c, 1, 54, 95
2, 76800, Note_off_c, 1, 69, 95
2, 76800, Note_off_c, 1, 64, 95
2, 76800, Note_off_c, 1, 54, 95
2, 76800, Note_on_c, 0, 55, 95
2, 76850, Note_off_c, 0, 55, 95
2, 77280, Note_on_c, 0, 55, 95
2, 77330, Note_off_c, 0, 55, 95
2, 77760, Note_on_c, 0, 55, 95
2, 77810, Note_off_c, 0, 55, 95
2, 78000, Note_on_c, 0, 55, 95
2, 78050, Note_off_c, 0, 55, 95
2, 78720, Note_on_c, 0, 55, 95
2, 78770, Note_off_c, 0, 55, 95
2, 78960, Note_on_c, 0, 55, 95
2, 79010, Note_off_c, 0, 55, 95
2, 79200, Note_on_c, 0, 55, 95
2, 79250, Note_off_c, 0, 55, 95
2, 79680, Note_on_c, 1, 69, 95
2, 79680, Note_on_c, 1, 64, 95
2, 79680, Note_on_c, 1, 54, 95
2, 80640, Note_off_c, 1, 69, 95
2, 80640, Note_off_c, 1, 64, 95
2, 80640, Note_off_c, 1, 54, 95
2, 80640, Note_on_c, 0, 55, 95
2, 80690, Note_off_c, 0, 55, 95
2, 81120, Note_on_c, 0, 55, 95
2, 81170, Note_off_c, 0, 55, 95
2, 81360, Note_on_c, 0, 55, 95
2, 81410, Note_off_c, 0, 55, 95
2, 81600, Note_on_c, 0, 55, 95
2, 81650, Note_off_c, 0, 55, 95
2, 81840, Note_on_c, 0, 60, 95
2, 82320, Note_off_c, 0, 60, 95
2, 82320, Note_on_c, 0, 55, 95
2, 82370, Note_off_c, 0, 55, 95
2, 82560, Note_on_c, 0, 55, 95
2, 82610, Note_off_c, 0, 55, 95
2, 82800, Note_on_c, 0, 62, 95
2, 83040, Note_off_c, 0, 62, 95
2, 83520, Note_on_c, 1, 60, 95
2, 83680, Pitch_bend_c, 1, 8192
2, 83840, Pitch_bend_c, 1, 8320
2, 84000, Pitch_bend_c, 1, 8192
2, 84160, Pitch_bend_c, 1, 8320
2, 84320, Pitch_bend_c, 1, 8192
2, 84480, Pitch_bend_c, 1, 8320
2, 84480, Pitch_bend_c, 1, 8192
2, 84480, Note_off_c, 1, 60, 95
2, 84480, Note_on_c, 0, 55, 95
2, 84530, Note_off_c, 0, 55, 95
2, 84960, Note_on_c, 0, 55, 95
2, 85010, Note_off_c, 0, 55, 95
2, 85200, Note_on_c, 0, 55, 95
2, 85250, Note_off_c, 0, 55, 95
2, 85440, Note_on_c, 0, 50, 95
2, 85490, Note_off_c, 0, 50, 95
2, 85680, Note_on_c, 0, 50, 95
2, 85730, Note_off_c, 0, 50, 95
2, 85920, Note_on_c, 0, 57, 95
2, 86160, Note_off_c, 0, 57, 95
2, 86400, Note_on_c, 0, 64, 95
2, 86400, Note_on_c, 0, 60, 95
2, 86640, Note_off_c, 0, 64, 95
2, 86640, Note_off_c, 0, 60, 95
2, 86640, Note_on_c, 0, 61, 95
2, 86880, Note_off_c, 0, 61, 95
2, 86880, Note_on_c, 0, 69, 95
2, 87240, Note_on_c, 1, 67, 95
2, 87360, Note_off_c, 0, 69, 95
2, 87360, Note_off_c, 1, 67, 95
2, 87360, Note_on_c, 1, 69, 95
2, 88080, Note_off_c, 1, 69, 95
2, 88080, Note_on_c, 0, 55, 95
2, 88130, Note_off_c, 0, 55, 95
2, 88320, Note_on_c, 0, 55, 95
2, 88370, Note_off_c, 0, 55, 95
2, 88800, Note_on_c, 0, 55, 95
2, 88850, Note_off_c, 0, 55, 95
2, 89040, Note_on_c, 0, 55, 95
2, 89090, Note_off_c, 0, 55, 95
2, 89280, Note_on_c, 0, 55, 95
2, 89330, Note_off_c, 0, 55, 95
2, 89520, Note_on_c, 0, 55, 95
2, 89520, Note_on_c, 0, 54, 95
2, 89570, Note_off_c, 0, 55, 95
2, 90240, Note_off_c, 0, 54, 95
2, 90240, Note_on_c, 0, 55, 95
2, 90290, Note_off_c, 0, 55, 95
2, 90480, Note_on_c, 0, 55, 95
2, 90530, Note_off_c, 0, 55, 95
2, 90720, Note_on_c, 0, 55, 95
2, 90770, Note_off_c, 0, 55, 95
2, 90960, Note_on_c, 0, 55, 95
2, 91010, Note_off_c, 0, 55, 95
2, 91200, Note_on_c, 0, 69, 95
2, 91200, Note_on_c, 0, 64, 95
2, 91200, Note_on_c, 0, 54, 95
2, 92160, Note_off_c, 0, 69, 95
2, 92160, Note_off_c, 0, 64, 95
2, 92160, Note_off_c, 0, 54, 95
2, 92160, Note_on_c, 0, 55, 95
2, 92210, Note_off_c, 0, 55, 95
2, 92640, Note_on_c, 0, 55, 95
2, 92690, Note_off_c, 0, 55, 95
2, 92880, Note_on_c, 0, 55, 95
2, 92930, Note_off_c, 0, 55, 95
2, 93120, Note_on_c, 0, 55, 95
2, 93170, Note_off_c, 0, 55, 95
2, 93360, Note_on_c, 0, 55, 95
2, 93410, Note_off_c, 0, 55, 95
2, 94080, Note_on_c, 0, 55, 95
2, 94130, Note_off_c, 0, 55, 95
2, 94320, Note_on_c, 0, 55, 95
2, 94370, Note_off_c, 0, 55, 95
2, 94800, Note_on_c, 0, 55, 95
2, 94850, Note_off_c, 0, 55, 95
2, 95040, Note_on_c, 0, 69, 95
2, 95040, Note_on_c, 0, 64, 95
2, 95040, Note_on_c, 0, 54, 95
2, 95280, Note_off_c, 0, 69, 95
2, 95280, Note_off_c, 0, 64, 95
2, 95280, Note_off_c, 0, 54, 95
2, 95280, Note_on_c, 0, 69, 95
2, 95280, Note_on_c, 0, 64, 95
2, 95280, Note_on_c, 0, 54, 95
2, 95520, Note_off_c, 0, 69, 95
2, 95520, Note_off_c, 0, 64, 95
2, 95520, Note_off_c, 0, 54, 95
2, 96000, Note_on_c, 0, 55, 95
2, 96050, Note_off_c, 0, 55, 95
2, 96480, Note_on_c, 0, 55, 95
2, 96530, Note_off_c, 0, 55, 95
2, 96960, Note_on_c, 0, 64, 95
2, 96960, Note_on_c, 0, 59, 95
2, 96960, Note_on_c, 0, 49, 95
2, 97200, Note_off_c, 0, 64, 95
2, 97200, Note_off_c, 0, 59, 95
2, 97200, Note_off_c, 0, 49, 95
2, 97200, Note_on_c, 0, 64, 95
2, 97200, Note_on_c, 0, 59, 95
2, 97200, Note_on_c, 0, 49, 95
2, 97920, Note_off_c, 0, 64, 95
2, 97920, Note_off_c, 0, 59, 95
2, 97920, Note_off_c, 0, 49, 95
2, 97920, Note_on_c, 0, 64, 95
2, 97920, Note_on_c, 0, 59, 95
2, 97920, Note_on_c, 0, 49, 95
2, 98880, Note_off_c, 0, 64, 95
2, 98880, Note_off_c, 0, 59, 95
2, 98880, Note_off_c, 0, 49, 95
2, 98880, Note_on_c, 0, 64, 95
2, 98880, Note_on_c, 0, 59, 95
2, 98880, Note_on_c, 0, 49, 95
2, 99840, Note_off_c, 0, 64, 95
2, 99840, Note_off_c, 0, 59, 95
2, 99840, Note_off_c, 0, 49, 95
2, 99840, Note_on_c, 0, 64, 95
2, 99840, Note_on_c, 0, 59, 95
2, 99840, Note_on_c, 0, 49, 95
2, 100800, Note_off_c, 0, 64, 95
2, 100800, Note_off_c, 0, 59, 95
2, 100800, Note_off_c, 0, 49, 95
2, 100800, Note_on_c, 0, 64, 95
2, 100800, Note_on_c, 0, 59, 95
2, 100800, Note_on_c, 0, 49, 95
2, 101760, Note_off_c, 0, 64, 95
2, 101760, Note_off_c, 0, 59, 95
2, 101760, Note_off_c, 0, 49, 95
2, 101760, Note_on_c, 0, 71, 95
2, 101760, Note_on_c, 0, 66, 95
2, 101760, Note_on_c, 0, 62, 95
2, 101760, Note_on_c, 0, 52, 95
2, 102720, Note_off_c, 0, 71, 95
2, 102720, Note_off_c, 0, 66, 95
2, 102720, Note_off_c, 0, 62, 95
2, 102720, Note_off_c, 0, 52, 95
2, 102720, Note_on_c, 0, 72, 95
2, 102720, Note_on_c, 0, 67, 95
2, 102720, Note_on_c, 0, 63, 95
2, 102720, Note_on_c, 0, 53, 95
2, 103680, Note_off_c, 0, 72, 95
2, 103680, Note_off_c, 0, 67, 95
2, 103680, Note_off_c, 0, 63, 95
2, 103680, Note_off_c, 0, 53, 95
2, 103680, Note_on_c, 0, 73, 95
2, 103680, Pitch_bend_c, 1, 8192
2, 103680, Note_on_c, 1, 69, 95
2, 103728, Pitch_bend_c, 1, 8320
2, 103776, Pitch_bend_c, 1, 8448
2, 103824, Pitch_bend_c, 1, 8576
2, 103872, Pitch_bend_c, 1, 8704
2, 103920, Pitch_bend_c, 1, 8832
2, 103920, Pitch_bend_c, 1, 8832
2, 104160, Note_off_c, 0, 73, 95
2, 104160, Pitch_bend_c, 1, 8832
2, 104160, Pitch_bend_c, 1, 8192
2, 104160, Note_off_c, 1, 69, 95
2, 104160, Note_on_c, 0, 73, 95
2, 104160, Pitch_bend_c, 1, 8192
2, 104160, Note_on_c, 1, 69, 95
2, 104208, Pitch_bend_c, 1, 8320
2, 104256, Pitch_bend_c, 1, 8448
2, 104304, Pitch_bend_c, 1, 8576
2, 104352, Pitch_bend_c, 1, 8704
2, 104400, Pitch_bend_c, 1, 8832
2, 104400, Pitch_bend_c, 1, 8832
2, 104640, Note_off_c, 0, 73, 95
2, 104640, Pitch_bend_c, 1, 8832
2, 104640, Pitch_bend_c, 1, 8192
2, 104640, Note_off_c, 1, 69, 95
2, 104640, Note_on_c, 0, 73, 95
2, 104640, Pitch_bend_c, 1, 8192
2, 104640, Note_on_c, 1, 69, 95
2, 104688, Pitch_bend_c, 1, 8320
2, 104736, Pitch_bend_c, 1, 8448
2, 104784, Pitch_bend_c, 1, 8576
2, 104832, Pitch_bend_c, 1, 8704
2, 104880, Pitch_bend_c, 1, 8832
2, 104880, Pitch_bend_c, 1, 8832
2, 105120, Note_off_c, 0, 73, 95
2, 105120, Pitch_bend_c, 1, 8832
2, 105120, Pitch_bend_c, 1, 8192
2, 105120, Note_off_c, 1, 69, 95
2, 105120, Note_on_c, 0, 73, 95
2, 105120, Pitch_bend_c, 1, 8192
2, 105120, Note_on_c, 1, 69, 95
2, 105168, Pitch_bend_c, 1, 8320
2, 105216, Pitch_bend_c, 1, 8448
2, 105264, Pitch_bend_c, 1, 8576
2, 105312, Pitch_bend_c, 1, 8704
2, 105360, Pitch_bend_c, 1, 8832
2, 105360, Pitch_bend_c, 1, 8832
2, 105600, Note_off_c, 0, 73, 95
2, 105600, Pitch_bend_c, 1, 8832
2, 105600, Pitch_bend_c, 1, 8192
2, 105600, Note_off_c, 1, 69, 95
2, 105600, Note_on_c, 0, 73, 95
2, 105600, Note_on_c, 0, 69, 95
2, 106080, Note_off_c, 0, 73, 95
2, 106080, Note_off_c, 0, 69, 95
2, 106080, Note_on_c, 1, 69, 95
2, 106560, Note_off_c, 1, 69, 95
2, 107040, Note_on_c, 0, 59, 95
2, 107040, Note_on_c, 0, 55, 95
2, 107090, Note_off_c, 0, 59, 95
2, 107090, Note_off_c, 0, 55, 95
2, 107520, Note_on_c, 0, 73, 95
2, 107520, Pitch_bend_c, 1, 8192
2, 107520, Note_on_c, 1, 69, 95
2, 107568, Pitch_bend_c, 1, 8320
2, 107616, Pitch_bend_c, 1, 8448
2, 107664, Pitch_bend_c, 1, 8576
2, 107712, Pitch_bend_c, 1, 8704
2, 107760, Note_off_c, 0, 73, 95
2, 107760, Pitch_bend_c, 1, 8832
2, 107760, Pitch_bend_c, 1, 8832
2, 108000, Pitch_bend_c, 1, 8832
2, 108000, Pitch_bend_c, 1, 8192
2, 108000, Note_off_c, 1, 69, 95
2, 108000, Note_on_c, 0, 73, 95
2, 108000, Pitch_bend_c, 1, 8192
2, 108000, Note_on_c, 1, 69, 95
2, 108048, Pitch_bend_c, 1, 8320
2, 108096, Pitch_bend_c, 1, 8448
2, 108144, Pitch_bend_c, 1, 8576
2, 108192, Pitch_bend_c, 1, 8704
2, 108240, Note_off_c, 0, 73, 95
2, 108240, Pitch_bend_c, 1, 8832
2, 108240, Pitch_bend_c, 1, 8832
2, 108480, Pitch_bend_c, 1, 8832
2, 108480, Pitch_bend_c, 1, 8192
2, 108480, Note_off_c, 1, 69, 95
2, 108480, Note_on_c, 0, 73, 95
2, 108480, Pitch_bend_c, 1, 8192
2, 108480, Note_on_c, 1, 69, 95
2, 108528, Pitch_bend_c, 1, 8320
2, 108576, Pitch_bend_c, 1, 8448
2, 108624, Pitch_bend_c, 1, 8576
2, 108672, Pitch_bend_c, 1, 8704
2, 108720, Note_off_c, 0, 73, 95
2, 108720, Pitch_bend_c, 1, 8832
2, 108720, Pitch_bend_c, 1, 8832
2, 108960, Pitch_bend_c, 1, 8832
2, 108960, Pitch_bend_c, 1, 8192
2, 108960, Note_off_c, 1, 69, 95
2, 108960, Note_on_c, 0, 69, 95
2, 109440, Note_off_c, 0, 69, 95
2, 109440, Note_on_c, 1, 54, 95
2, 110400, Note_off_c, 1, 54, 95
2, 110880, Note_on_c, 1, 64, 95
2, 111000, Pitch_bend_c, 1, 7040
2, 111120, Pitch_bend_c, 1, 5760
2, 111240, Pitch_bend_c, 1, 4608
2, 111360, Pitch_bend_c, 1, 3328
2, 111360, Pitch_bend_c, 1, 8192
2, 111360, Note_off_c, 1, 64, 95
2, 111360, Note_on_c, 0, 57, 95
2, 111360, Note_on_c, 0, 52, 95
2, 111840, Note_off_c, 0, 57, 95
2, 111840, Note_off_c, 0, 52, 95
2, 111840, Note_on_c, 0, 49, 95
2, 112080, Note_off_c, 0, 49, 95
2, 112080, Note_on_c, 0, 48, 95
2, 112320, Note_off_c, 0, 48, 95
2, 112320, Note_on_c, 0, 47, 95
2, 112800, Note_off_c, 0, 47, 95
2, 112800, Note_on_c, 0, 45, 95
2, 113280, Note_off_c, 0, 45, 95
2, 113280, Note_on_c, 0, 40, 95
2, 113760, Note_off_c, 0, 40, 95
2, 113760, Note_on_c, 0, 42, 95
2, 114240, Note_off_c, 0, 42, 95
2, 114240, Note_on_c, 1, 54, 95
2, 114400, Pitch_bend_c, 1, 8192
2, 114560, Pitch_bend_c, 1, 8320
2, 114720, Pitch_bend_c, 1, 8192
2, 114880, Pitch_bend_c, 1, 8320
2, 115040, Pitch_bend_c, 1, 8192
2, 115200, Pitch_bend_c, 1, 8320
2, 115200, Pitch_bend_c, 1, 8192
2, 115200, Note_off_c, 1, 54, 95
2, 115200, Note_on_c, 0, 52, 95
2, 115680, Note_off_c, 0, 52, 95
2, 115680, Note_on_c, 0, 49, 95
2, 115920, Note_off_c, 0, 49, 95
2, 115920, Note_on_c, 0, 48, 95
2, 116160, Note_off_c, 0, 48, 95
2, 116160, Note_on_c, 0, 47, 95
2, 116640, Note_off_c, 0, 47, 95
2, 116640, Note_on_c, 0, 45, 95
2, 116880, Note_off_c, 0, 45, 95
2, 116880, Note_on_c, 0, 42, 95
2, 117120, Note_off_c, 0, 42, 95
2, 117120, Note_on_c, 0, 40, 95
2, 117600, Note_off_c, 0, 40, 95
2, 117600, Note_on_c, 0, 42, 95
2, 118080, Note_off_c, 0, 42, 95
2, 118080, Note_on_c, 1, 54, 95
2, 118240, Pitch_bend_c, 1, 8192
2, 118400, Pitch_bend_c, 1, 8320
2, 118560, Pitch_bend_c, 1, 8192
2, 118720, Pitch_bend_c, 1, 8320
2, 118880, Pitch_bend_c, 1, 8192
2, 119040, Pitch_bend_c, 1, 8320
2, 119040, Pitch_bend_c, 1, 8192
2, 119040, Note_off_c, 1, 54, 95
2, 119040, Note_on_c, 0, 52, 95
2, 119520, Note_off_c, 0, 52, 95
2, 119520, Note_on_c, 0, 49, 95
2, 119760, Note_off_c, 0, 49, 95
2, 119760, Note_on_c, 0, 48, 95
2, 120000, Note_off_c, 0, 48, 95
2, 120000, Note_on_c, 0, 47, 95
2, 120480, Note_off_c, 0, 47, 95
2, 120480, Note_on_c, 0, 45, 95
2, 120960, Note_off_c, 0, 45, 95
2, 120960, Note_on_c, 0, 40, 95
2, 121440, Note_off_c, 0, 40, 95
2, 121440, Note_on_c, 0, 42, 95
2, 121920, Note_off_c, 0, 42, 95
2, 121920, Note_on_c, 1, 54, 95
2, 122080, Pitch_bend_c, 1, 8192
2, 122240, Pitch_bend_c, 1, 8320
2, 122400, Pitch_bend_c, 1, 8192
2, 122560, Pitch_bend_c, 1, 8320
2, 122720, Pitch_bend_c, 1, 8192
2, 122880, Pitch_bend_c, 1, 8320
2, 122880, Pitch_bend_c, 1, 8192
2, 122880, Note_off_c, 1, 54, 95
2, 122880, Note_on_c, 0, 52, 95
2, 123360, Note_off_c, 0, 52, 95
2, 123360, Note_on_c, 0, 52, 95
2, 123840, Note_off_c, 0, 52, 95
2, 123840, Note_on_c, 0, 49, 95
2, 124080, Note_off_c, 0, 49, 95
2, 124080, Note_on_c, 0, 48, 95
2, 124320, Note_off_c, 0, 48, 95
2, 124320, Note_on_c, 0, 47, 95
2, 124560, Note_off_c, 0, 47, 95
2, 124560, Note_on_c, 0, 45, 95
2, 124800, Note_off_c, 0, 45, 95
2, 124800, Note_on_c, 0, 40, 95
2, 125280, Note_off_c, 0, 40, 95
2, 125280, Note_on_c, 0, 42, 95
2, 125760, Note_off_c, 0, 42, 95
2, 125760, Note_on_c, 0, 54, 95
2, 126240, Note_off_c, 0, 54, 95
2, 126240, Note_on_c, 0, 52, 95
2, 126720, Note_off_c, 0, 52, 95
2, 157440, Note_on_c, 0, 69, 95
2, 157440, Note_on_c, 0, 64, 95
2, 157440, Note_on_c, 0, 54, 95
2, 157920, Note_off_c, 0, 69, 95
2, 157920, Note_off_c, 0, 64, 95
2, 157920, Note_off_c, 0, 54, 95
2, 157920, Note_on_c, 0, 64, 95
2, 157970, Note_off_c, 0, 64, 95
2, 158160, Note_on_c, 0, 64, 95
2, 158210, Note_off_c, 0, 64, 95
2, 158400, Note_on_c, 0, 64, 95
2, 158450, Note_off_c, 0, 64, 95
2, 158640, Note_on_c, 0, 64, 95
2, 158690, Note_off_c, 0, 64, 95
2, 159360, Note_on_c, 0, 64, 95
2, 159410, Note_off_c, 0, 64, 95
2, 159600, Note_on_c, 0, 64, 95
2, 159650, Note_off_c, 0, 64, 95
2, 159840, Note_on_c, 0, 64, 95
2, 159890, Note_off_c, 0, 64, 95
2, 160320, Note_on_c, 1, 69, 95
2, 160320, Note_on_c, 1, 64, 95
2, 160320, Note_on_c, 1, 54, 95
2, 160440, Pitch_bend_c, 1, 7808
2, 160560, Pitch_bend_c, 1, 7424
2, 160680, Pitch_bend_c, 1, 6912
2, 160800, Pitch_bend_c, 1, 6528
2, 160920, Pitch_bend_c, 1, 6016
2, 161040, Pitch_bend_c, 1, 5632
2, 161160, Pitch_bend_c, 1, 5120
2, 161280, Pitch_bend_c, 1, 4736
2, 161280, Pitch_bend_c, 1, 8192
2, 161280, Note_off_c, 1, 69, 95
2, 161280, Note_off_c, 1, 64, 95
2, 161280, Note_off_c, 1, 54, 95
2, 161280, Note_on_c, 0, 64, 95
2, 161330, Note_off_c, 0, 64, 95
2, 161760, Note_on_c, 0, 64, 95
2, 161810, Note_off_c, 0, 64, 95
2, 162000, Note_on_c, 0, 64, 95
2, 162050, Note_off_c, 0, 64, 95
2, 162240, Note_on_c, 0, 64, 95
2, 162290, Note_off_c, 0, 64, 95
2, 162480, Note_on_c, 0, 64, 95
2, 162530, Note_off_c, 0, 64, 95
2, 163200, Note_on_c, 0, 64, 95
2, 163250, Note_off_c, 0, 64, 95
2, 163440, Note_on_c, 0, 64, 95
2, 163490, Note_off_c, 0, 64, 95
2, 163680, Note_on_c, 0, 64, 95
2, 163730, Note_off_c, 0, 64, 95
2, 164160, Note_on_c, 1, 69, 95
2, 164160, Note_on_c, 1, 64, 95
2, 164160, Note_on_c, 1, 54, 95
2, 164280, Pitch_bend_c, 1, 7808
2, 164400, Pitch_bend_c, 1, 7424
2, 164520, Pitch_bend_c, 1, 6912
2, 164640, Pitch_bend_c, 1, 6528
2, 164760, Pitch_bend_c, 1, 6016
2, 164880, Pitch_bend_c, 1, 5632
2, 165000, Pitch_bend_c, 1, 5120
2, 165120, Pitch_bend_c, 1, 4736
2, 165120, Pitch_bend_c, 1, 8192
2, 165120, Note_off_c, 1, 69, 95
2, 165120, Note_off_c, 1, 64, 95
2, 165120, Note_off_c, 1, 54, 95
2, 165120, Note_on_c, 0, 64, 95
2, 165170, Note_off_c, 0, 64, 95
2, 165600, Note_on_c, 0, 64, 95
2, 165650, Note_off_c, 0, 64, 95
2, 165840, Note_on_c, 0, 64, 95
2, 165890, Note_off_c, 0, 64, 95
2, 166080, Note_on_c, 0, 64, 95
2, 166130, Note_off_c, 0, 64, 95
2, 166320, Note_on_c, 0, 64, 95
2, 166370, Note_off_c, 0, 64, 95
2, 167040, Note_on_c, 0, 64, 95
2, 167090, Note_off_c, 0, 64, 95
2, 167280, Note_on_c, 0, 64, 95
2, 167330, Note_off_c, 0, 64, 95
2, 167520, Note_on_c, 0, 64, 95
2, 167570, Note_off_c, 0, 64, 95
2, 167760, Note_on_c, 0, 64, 95
2, 167810, Note_off_c, 0, 64, 95
2, 168000, Note_on_c, 0, 69, 95
2, 168000, Note_on_c, 0, 64, 95
2, 168000, Note_on_c, 0, 54, 95
2, 168960, Note_off_c, 0, 69, 95
2, 168960, Note_off_c, 0, 64, 95
2, 168960, Note_off_c, 0, 54, 95
2, 168960, Note_on_c, 0, 64, 95
2, 169010, Note_off_c, 0, 64, 95
2, 169440, Note_on_c, 0, 64, 95
2, 169490, Note_off_c, 0, 64, 95
2, 169680, Note_on_c, 0, 64, 95
2, 169730, Note_off_c, 0, 64, 95
2, 169920, Note_on_c, 0, 64, 95
2, 169970, Note_off_c, 0, 64, 95
2, 170160, Note_on_c, 0, 69, 95
2, 170160, Note_on_c, 0, 64, 95
2, 170160, Note_on_c, 0, 54, 95
2, 170880, Note_off_c, 0, 69, 95
2, 170880, Note_off_c, 0, 64, 95
2, 170880, Note_off_c, 0, 54, 95
2, 170880, Note_on_c, 0, 64, 95
2, 170930, Note_off_c, 0, 64, 95
2, 171120, Note_on_c, 0, 64, 95
2, 171170, Note_off_c, 0, 64, 95
2, 171360, Note_on_c, 0, 64, 95
2, 171410, Note_off_c, 0, 64, 95
2, 171840, Note_on_c, 0, 69, 95
2, 172800, Note_off_c, 0, 69, 95
2, 172800, Note_on_c, 0, 68, 95
2, 172800, Note_on_c, 0, 64, 95
2, 172800, Note_on_c, 0, 54, 95
2, 173280, Note_off_c, 0, 68, 95
2, 173280, Note_off_c, 0, 64, 95
2, 173280, Note_off_c, 0, 54, 95
2, 173280, Note_on_c, 0, 68, 95
2, 173280, Note_on_c, 0, 64, 95
2, 173280, Note_on_c, 0, 54, 95
2, 173760, Note_off_c, 0, 68, 95
2, 173760, Note_off_c, 0, 64, 95
2, 173760, Note_off_c, 0, 54, 95
2, 173760, Note_on_c, 0, 68, 95
2, 173760, Note_on_c, 0, 64, 95
2, 173760, Note_on_c, 0, 54, 95
2, 174240, Note_off_c, 0, 68, 95
2, 174240, Note_off_c, 0, 64, 95
2, 174240, Note_off_c, 0, 54, 95
2, 174240, Note_on_c, 0, 68, 95
2, 174240, Note_on_c, 0, 64, 95
2, 174240, Note_on_c, 0, 54, 95
2, 174720, Note_off_c, 0, 68, 95
2, 174720, Note_off_c, 0, 64, 95
2, 174720, Note_off_c, 0, 54, 95
2, 174720, Note_on_c, 0, 68, 95
2, 174720, Note_on_c, 0, 64, 95
2, 174720, Note_on_c, 0, 54, 95
2, 175200, Note_off_c, 0, 68, 95
2, 175200, Note_off_c, 0, 64, 95
2, 175200, Note_off_c, 0, 54, 95
2, 175200, Note_on_c, 0, 68, 95
2, 175200, Note_on_c, 0, 64, 95
2, 175200, Note_on_c, 0, 54, 95
2, 175680, Note_off_c, 0, 68, 95
2, 175680, Note_off_c, 0, 64, 95
2, 175680, Note_off_c, 0, 54, 95
2, 175680, Note_on_c, 0, 68, 95
2, 175680, Note_on_c, 0, 64, 95
2, 175680, Note_on_c, 0, 54, 95
2, 176640, Note_off_c, 0, 68, 95
2, 176640, Note_off_c, 0, 64, 95
2, 176640, Note_off_c, 0, 54, 95
2, 176640, Note_on_c, 0, 69, 95
2, 176640, Note_on_c, 0, 64, 95
2, 176640, Note_on_c, 0, 54, 95
2, 177120, Note_off_c, 0, 69, 95
2, 177120, Note_off_c, 0, 64, 95
2, 177120, Note_off_c, 0, 54, 95
2, 177120, Note_on_c, 0, 69, 95
2, 177120, Note_on_c, 0, 64, 95
2, 177120, Note_on_c, 0, 54, 95
2, 177600, Note_off_c, 0, 69, 95
2, 177600, Note_off_c, 0, 64, 95
2, 177600, Note_off_c, 0, 54, 95
2, 177600, Note_on_c, 0, 69, 95
2, 177600, Note_on_c, 0, 64, 95
2, 177600, Note_on_c, 0, 54, 95
2, 178080, Note_off_c, 0, 69, 95
2, 178080, Note_off_c, 0, 64, 95
2, 178080, Note_off_c, 0, 54, 95
2, 178080, Note_on_c, 0, 69, 95
2, 178080, Note_on_c, 0, 64, 95
2, 178080, Note_on_c, 0, 54, 95
2, 178560, Note_off_c, 0, 69, 95
2, 178560, Note_off_c, 0, 64, 95
2, 178560, Note_off_c, 0, 54, 95
2, 178560, Note_on_c, 0, 69, 95
2, 178560, Note_on_c, 0, 64, 95
2, 178560, Note_on_c, 0, 54, 95
2, 178800, Note_off_c, 0, 69, 95
2, 178800, Note_off_c, 0, 64, 95
2, 178800, Note_off_c, 0, 54, 95
2, 178800, Note_on_c, 0, 69, 95
2, 178800, Note_on_c, 0, 64, 95
2, 178800, Note_on_c, 0, 54, 95
2, 179040, Note_off_c, 0, 69, 95
2, 179040, Note_off_c, 0, 64, 95
2, 179040, Note_off_c, 0, 54, 95
2, 179040, Note_on_c, 0, 69, 95
2, 179040, Note_on_c, 0, 64, 95
2, 179040, Note_on_c, 0, 54, 95
2, 179520, Note_off_c, 0, 69, 95
2, 179520, Note_off_c, 0, 64, 95
2, 179520, Note_off_c, 0, 54, 95
2, 179520, Note_on_c, 0, 69, 95
2, 179520, Note_on_c, 0, 64, 95
2, 179520, Note_on_c, 0, 54, 95
2, 180480, Note_off_c, 0, 69, 95
2, 180480, Note_off_c, 0, 64, 95
2, 180480, Note_off_c, 0, 54, 95
2, 180480, Note_on_c, 0, 69, 95
2, 180480, Note_on_c, 0, 64, 95
2, 180480, Note_on_c, 0, 54, 95
2, 180960, Note_off_c, 0, 69, 95
2, 180960, Note_off_c, 0, 64, 95
2, 180960, Note_off_c, 0, 54, 95
2, 180960, Note_on_c, 0, 69, 95
2, 180960, Note_on_c, 0, 64, 95
2, 180960, Note_on_c, 0, 54, 95
2, 181440, Note_off_c, 0, 69, 95
2, 181440, Note_off_c, 0, 64, 95
2, 181440, Note_off_c, 0, 54, 95
2, 181440, Note_on_c, 0, 69, 95
2, 181440, Note_on_c, 0, 64, 95
2, 181440, Note_on_c, 0, 54, 95
2, 181920, Note_off_c, 0, 69, 95
2, 181920, Note_off_c, 0, 64, 95
2, 181920, Note_off_c, 0, 54, 95
2, 181920, Note_on_c, 0, 69, 95
2, 181920, Note_on_c, 0, 64, 95
2, 181920, Note_on_c, 0, 54, 95
2, 182400, Note_off_c, 0, 69, 95
2, 182400, Note_off_c, 0, 64, 95
2, 182400, Note_off_c, 0, 54, 95
2, 182400, Note_on_c, 0, 69, 95
2, 182400, Note_on_c, 0, 64, 95
2, 182400, Note_on_c, 0, 54, 95
2, 182640, Note_off_c, 0, 69, 95
2, 182640, Note_off_c, 0, 64, 95
2, 182640, Note_off_c, 0, 54, 95
2, 182640, Note_on_c, 0, 69, 95
2, 182640, Note_on_c, 0, 64, 95
2, 182640, Note_on_c, 0, 54, 95
2, 182880, Note_off_c, 0, 69, 95
2, 182880, Note_off_c, 0, 64, 95
2, 182880, Note_off_c, 0, 54, 95
2, 182880, Note_on_c, 0, 69, 95
2, 182880, Note_on_c, 0, 64, 95
2, 182880, Note_on_c, 0, 54, 95
2, 183360, Note_off_c, 0, 69, 95
2, 183360, Note_off_c, 0, 64, 95
2, 183360, Note_off_c, 0, 54, 95
2, 183360, Note_on_c, 0, 69, 95
2, 183360, Note_on_c, 0, 64, 95
2, 183360, Note_on_c, 0, 54, 95
2, 184320, Note_off_c, 0, 69, 95
2, 184320, Note_off_c, 0, 64, 95
2, 184320, Note_off_c, 0, 54, 95
2, 184320, Note_on_c, 0, 69, 95
2, 184320, Note_on_c, 0, 64, 95
2, 184320, Note_on_c, 0, 54, 95
2, 184800, Note_off_c, 0, 69, 95
2, 184800, Note_off_c, 0, 64, 95
2, 184800, Note_off_c, 0, 54, 95
2, 184800, Note_on_c, 0, 69, 95
2, 184800, Note_on_c, 0, 64, 95
2, 184800, Note_on_c, 0, 54, 95
2, 185280, Note_off_c, 0, 69, 95
2, 185280, Note_off_c, 0, 64, 95
2, 185280, Note_off_c, 0, 54, 95
2, 185280, Note_on_c, 0, 69, 95
2, 185280, Note_on_c, 0, 64, 95
2, 185280, Note_on_c, 0, 54, 95
2, 185760, Note_off_c, 0, 69, 95
2, 185760, Note_off_c, 0, 64, 95
2, 185760, Note_off_c, 0, 54, 95
2, 185760, Note_on_c, 0, 69, 95
2, 185760, Note_on_c, 0, 64, 95
2, 185760, Note_on_c, 0, 54, 95
2, 186240, Note_off_c, 0, 69, 95
2, 186240, Note_off_c, 0, 64, 95
2, 186240, Note_off_c, 0, 54, 95
2, 186240, Note_on_c, 0, 69, 95
2, 186240, Note_on_c, 0, 64, 95
2, 186240, Note_on_c, 0, 54, 95
2, 186480, Note_off_c, 0, 69, 95
2, 186480, Note_off_c, 0, 64, 95
2, 186480, Note_off_c, 0, 54, 95
2, 186480, Note_on_c, 0, 69, 95
2, 186480, Note_on_c, 0, 64, 95
2, 186480, Note_on_c, 0, 54, 95
2, 186720, Note_off_c, 0, 69, 95
2, 186720, Note_off_c, 0, 64, 95
2, 186720, Note_off_c, 0, 54, 95
2, 186720, Note_on_c, 0, 69, 95
2, 186720, Note_on_c, 0, 64, 95
2, 186720, Note_on_c, 0, 54, 95
2, 187200, Note_off_c, 0, 69, 95
2, 187200, Note_off_c, 0, 64, 95
2, 187200, Note_off_c, 0, 54, 95
2, 187200, Note_on_c, 0, 69, 95
2, 187200, Note_on_c, 0, 64, 95
2, 187200, Note_on_c, 0, 54, 95
2, 188160, Note_off_c, 0, 69, 95
2, 188160, Note_off_c, 0, 64, 95
2, 188160, Note_off_c, 0, 54, 95
2, 203520, Note_on_c, 0, 64, 95
2, 203520, Note_on_c, 0, 54, 95
2, 204000, Note_off_c, 0, 64, 95
2, 204000, Note_off_c, 0, 54, 95
2, 204000, Note_on_c, 0, 64, 95
2, 204000, Note_on_c, 0, 54, 95
2, 204480, Note_off_c, 0, 64, 95
2, 204480, Note_off_c, 0, 54, 95
2, 204480, Note_on_c, 0, 64, 95
2, 204480, Note_on_c, 0, 54, 95
2, 204720, Note_off_c, 0, 64, 95
2, 204720, Note_off_c, 0, 54, 95
2, 204720, Note_on_c, 0, 64, 95
2, 204720, Note_on_c, 0, 54, 95
2, 204960, Note_off_c, 0, 64, 95
2, 204960, Note_off_c, 0, 54, 95
2, 204960, Note_on_c, 0, 64, 95
2, 204960, Note_on_c, 0, 54, 95
2, 205440, Note_off_c, 0, 64, 95
2, 205440, Note_off_c, 0, 54, 95
2, 205440, Note_on_c, 0, 64, 95
2, 205440, Note_on_c, 0, 54, 95
2, 205680, Note_off_c, 0, 64, 95
2, 205680, Note_off_c, 0, 54, 95
2, 205680, Note_on_c, 0, 64, 95
2, 205680, Note_on_c, 0, 54, 95
2, 205920, Note_off_c, 0, 64, 95
2, 205920, Note_off_c, 0, 54, 95
2, 205920, Note_on_c, 0, 64, 95
2, 205920, Note_on_c, 0, 54, 95
2, 206400, Note_off_c, 0, 64, 95
2, 206400, Note_off_c, 0, 54, 95
2, 206400, Note_on_c, 0, 69, 95
2, 206400, Note_on_c, 0, 64, 95
2, 206400, Note_on_c, 0, 54, 95
2, 206880, Note_off_c, 0, 69, 95
2, 206880, Note_off_c, 0, 64, 95
2, 206880, Note_off_c, 0, 54, 95
2, 206880, Note_on_c, 0, 68, 95
2, 206880, Note_on_c, 0, 64, 95
2, 206880, Note_on_c, 0, 54, 95
2, 207360, Note_off_c, 0, 68, 95
2, 207360, Note_off_c, 0, 64, 95
2, 207360, Note_off_c, 0, 54, 95
2, 207360, Note_on_c, 0, 68, 95
2, 207360, Note_on_c, 0, 64, 95
2, 207360, Note_on_c, 0, 54, 95
2, 207840, Note_off_c, 0, 68, 95
2, 207840, Note_off_c, 0, 64, 95
2, 207840, Note_off_c, 0, 54, 95
2, 207840, Note_on_c, 0, 68, 95
2, 207840, Note_on_c, 0, 64, 95
2, 207840, Note_on_c, 0, 54, 95
2, 208320, Note_off_c, 0, 68, 95
2, 208320, Note_off_c, 0, 64, 95
2, 208320, Note_off_c, 0, 54, 95
2, 208320, Note_on_c, 0, 68, 95
2, 208320, Note_on_c, 0, 64, 95
2, 208320, Note_on_c, 0, 54, 95
2, 208560, Note_off_c, 0, 68, 95
2, 208560, Note_off_c, 0, 64, 95
2, 208560, Note_off_c, 0, 54, 95
2, 208560, Note_on_c, 0, 68, 95
2, 208560, Note_on_c, 0, 64, 95
2, 208560, Note_on_c, 0, 54, 95
2, 208800, Note_off_c, 0, 68, 95
2, 208800, Note_off_c, 0, 64, 95
2, 208800, Note_off_c, 0, 54, 95
2, 208800, Note_on_c, 0, 68, 95
2, 208800, Note_on_c, 0, 64, 95
2, 208800, Note_on_c, 0, 54, 95
2, 209280, Note_off_c, 0, 68, 95
2, 209280, Note_off_c, 0, 64, 95
2, 209280, Note_off_c, 0, 54, 95
2, 209280, Note_on_c, 0, 68, 95
2, 209280, Note_on_c, 0, 64, 95
2, 209280, Note_on_c, 0, 54, 95
2, 209520, Note_off_c, 0, 68, 95
2, 209520, Note_off_c, 0, 64, 95
2, 209520, Note_off_c, 0, 54, 95
2, 209520, Note_on_c, 0, 68, 95
2, 209520, Note_on_c, 0, 64, 95
2, 209520, Note_on_c, 0, 54, 95
2, 209760, Note_off_c, 0, 68, 95
2, 209760, Note_off_c, 0, 64, 95
2, 209760, Note_off_c, 0, 54, 95
2, 209760, Note_on_c, 0, 68, 95
2, 209760, Note_on_c, 0, 64, 95
2, 209760, Note_on_c, 0, 54, 95
2, 210240, Note_off_c, 0, 68, 95
2, 210240, Note_off_c, 0, 64, 95
2, 210240, Note_off_c, 0, 54, 95
2, 210240, Note_on_c, 0, 68, 95
2, 210240, Note_on_c, 0, 64, 95
2, 210240, Note_on_c, 0, 54, 95
2, 211200, Note_off_c, 0, 68, 95
2, 211200, Note_off_c, 0, 64, 95
2, 211200, Note_off_c, 0, 54, 95
2, 211200, Note_on_c, 0, 68, 95
2, 211200, Note_on_c, 0, 64, 95
2, 211200, Note_on_c, 0, 54, 95
2, 211680, Note_off_c, 0, 68, 95
2, 211680, Note_off_c, 0, 64, 95
2, 211680, Note_off_c, 0, 54, 95
2, 211680, Note_on_c, 0, 68, 95
2, 211680, Note_on_c, 0, 64, 95
2, 211680, Note_on_c, 0, 54, 95
2, 212160, Note_off_c, 0, 68, 95
2, 212160, Note_off_c, 0, 64, 95
2, 212160, Note_off_c, 0, 54, 95
2, 212160, Note_on_c, 0, 68, 95
2, 212160, Note_on_c, 0, 64, 95
2, 212160, Note_on_c, 0, 54, 95
2, 212640, Note_off_c, 0, 68, 95
2, 212640, Note_off_c, 0, 64, 95
2, 212640, Note_off_c, 0, 54, 95
2, 212640, Note_on_c, 0, 68, 95
2, 212640, Note_on_c, 0, 64, 95
2, 212640, Note_on_c, 0, 54, 95
2, 213120, Note_off_c, 0, 68, 95
2, 213120, Note_off_c, 0, 64, 95
2, 213120, Note_off_c, 0, 54, 95
2, 213120, Note_on_c, 0, 68, 95
2, 213120, Note_on_c, 0, 64, 95
2, 213120, Note_on_c, 0, 54, 95
2, 213600, Note_off_c, 0, 68, 95
2, 213600, Note_off_c, 0, 64, 95
2, 213600, Note_off_c, 0, 54, 95
2, 213600, Note_on_c, 0, 68, 95
2, 213600, Note_on_c, 0, 64, 95
2, 213600, Note_on_c, 0, 54, 95
2, 214080, Note_off_c, 0, 68, 95
2, 214080, Note_off_c, 0, 64, 95
2, 214080, Note_off_c, 0, 54, 95
2, 214080, Note_on_c, 0, 68, 95
2, 214080, Note_on_c, 0, 64, 95
2, 214080, Note_on_c, 0, 54, 95
2, 214320, Note_off_c, 0, 68, 95
2, 214320, Note_off_c, 0, 64, 95
2, 214320, Note_off_c, 0, 54, 95
2, 214320, Note_on_c, 0, 68, 95
2, 214320, Note_on_c, 0, 64, 95
2, 214320, Note_on_c, 0, 54, 95
2, 214560, Note_off_c, 0, 68, 95
2, 214560, Note_off_c, 0, 64, 95
2, 214560, Note_off_c, 0, 54, 95
2, 214560, Note_on_c, 0, 68, 95
2, 214560, Note_on_c, 0, 64, 95
2, 214560, Note_on_c, 0, 54, 95
2, 215040, Note_off_c, 0, 68, 95
2, 215040, Note_off_c, 0, 64, 95
2, 215040, Note_off_c, 0, 54, 95
2, 215040, Note_on_c, 0, 68, 95
2, 215040, Note_on_c, 0, 64, 95
2, 215040, Note_on_c, 0, 54, 95
2, 215520, Note_off_c, 0, 68, 95
2, 215520, Note_off_c, 0, 64, 95
2, 215520, Note_off_c, 0, 54, 95
2, 215520, Note_on_c, 0, 68, 95
2, 215520, Note_on_c, 0, 64, 95
2, 215520, Note_on_c, 0, 54, 95
2, 216000, Note_off_c, 0, 68, 95
2, 216000, Note_off_c, 0, 64, 95
2, 216000, Note_off_c, 0, 54, 95
2, 216000, Note_on_c, 0, 68, 95
2, 216000, Note_on_c, 0, 64, 95
2, 216000, Note_on_c, 0, 54, 95
2, 216480, Note_off_c, 0, 68, 95
2, 216480, Note_off_c, 0, 64, 95
2, 216480, Note_off_c, 0, 54, 95
2, 216480, Note_on_c, 0, 68, 95
2, 216480, Note_on_c, 0, 64, 95
2, 216480, Note_on_c, 0, 54, 95
2, 216960, Note_off_c, 0, 68, 95
2, 216960, Note_off_c, 0, 64, 95
2, 216960, Note_off_c, 0, 54, 95
2, 216960, Note_on_c, 0, 68, 95
2, 216960, Note_on_c, 0, 64, 95
2, 216960, Note_on_c, 0, 54, 95
2, 217440, Note_off_c, 0, 68, 95
2, 217440, Note_off_c, 0, 64, 95
2, 217440, Note_off_c, 0, 54, 95
2, 217440, Note_on_c, 0, 68, 95
2, 217440, Note_on_c, 0, 64, 95
2, 217440, Note_on_c, 0, 54, 95
2, 217920, Note_off_c, 0, 68, 95
2, 217920, Note_off_c, 0, 64, 95
2, 217920, Note_off_c, 0, 54, 95
2, 217920, Note_on_c, 0, 68, 95
2, 217920, Note_on_c, 0, 64, 95
2, 217920, Note_on_c, 0, 54, 95
2, 218160, Note_off_c, 0, 68, 95
2, 218160, Note_off_c, 0, 64, 95
2, 218160, Note_off_c, 0, 54, 95
2, 218160, Note_on_c, 0, 68, 95
2, 218160, Note_on_c, 0, 64, 95
2, 218160, Note_on_c, 0, 54, 95
2, 218400, Note_off_c, 0, 68, 95
2, 218400, Note_off_c, 0, 64, 95
2, 218400, Note_off_c, 0, 54, 95
2, 218400, Note_on_c, 0, 68, 95
2, 218400, Note_on_c, 0, 64, 95
2, 218400, Note_on_c, 0, 54, 95
2, 218880, Note_off_c, 0, 68, 95
2, 218880, Note_off_c, 0, 64, 95
2, 218880, Note_off_c, 0, 54, 95
2, 218880, End_track
3, 0, Start_track
3, 0, Pitch_bend_c, 4, 8192
3, 0, Control_c, 4, 7, 95
3, 0, Control_c, 4, 10, 63
3, 0, Control_c, 4, 93, 0
3, 0, Control_c, 4, 91, 0
3, 0, Control_c, 4, 95, 0
3, 0, Control_c, 4, 92, 0
3, 0, Control_c, 4, 11, 127
3, 0, Program_c, 4, 29
3, 0, Control_c, 5, 7, 95
3, 0, Control_c, 5, 10, 63
3, 0, Control_c, 5, 93, 0
3, 0, Control_c, 5, 91, 0
3, 0, Control_c, 5, 95, 0
3, 0, Control_c, 5, 92, 0
3, 0, Control_c, 5, 11, 127
3, 0, Program_c, 5, 29
3, 126720, Pitch_bend_c, 5, 8192
3, 126720, Note_on_c, 5, 72, 95
3, 126763, Pitch_bend_c, 5, 8320
3, 126806, Pitch_bend_c, 5, 8448
3, 126849, Pitch_bend_c, 5, 8576
3, 126892, Pitch_bend_c, 5, 8704
3, 126935, Pitch_bend_c, 5, 8832
3, 126978, Pitch_bend_c, 5, 8960
3, 127021, Pitch_bend_c, 5, 9088
3, 127064, Pitch_bend_c, 5, 9216
3, 127107, Pitch_bend_c, 5, 9344
3, 127150, Pitch_bend_c, 5, 9472
3, 127193, Pitch_bend_c, 5, 9600
3, 127236, Pitch_bend_c, 5, 9728
3, 127279, Pitch_bend_c, 5, 9856
3, 127322, Pitch_bend_c, 5, 9984
3, 127365, Pitch_bend_c, 5, 10112
3, 127408, Pitch_bend_c, 5, 10240
3, 127451, Pitch_bend_c, 5, 10368
3, 127494, Pitch_bend_c, 5, 10496
3, 127537, Pitch_bend_c, 5, 10624
3, 127580, Pitch_bend_c, 5, 10752
3, 127623, Pitch_bend_c, 5, 10880
3, 127666, Pitch_bend_c, 5, 11008
3, 127680, Pitch_bend_c, 5, 11008
3, 128640, Pitch_bend_c, 5, 11008
3, 128683, Pitch_bend_c, 5, 10880
3, 128726, Pitch_bend_c, 5, 10752
3, 128769, Pitch_bend_c, 5, 10624
3, 128812, Pitch_bend_c, 5, 10496
3, 128855, Pitch_bend_c, 5, 10368
3, 128898, Pitch_bend_c, 5, 10240
3, 128941, Pitch_bend_c, 5, 10112
3, 128984, Pitch_bend_c, 5, 9984
3, 129027, Pitch_bend_c, 5, 9856
3, 129070, Pitch_bend_c, 5, 9728
3, 129113, Pitch_bend_c, 5, 9600
3, 129156, Pitch_bend_c, 5, 9472
3, 129199, Pitch_bend_c, 5, 9344
3, 129242, Pitch_bend_c, 5, 9216
3, 129285, Pitch_bend_c, 5, 9088
3, 129328, Pitch_bend_c, 5, 8960
3, 129371, Pitch_bend_c, 5, 8832
3, 129414, Pitch_bend_c, 5, 8704
3, 129457, Pitch_bend_c, 5, 8576
3, 129500, Pitch_bend_c, 5, 8448
3, 129543, Pitch_bend_c, 5, 8320
3, 129586, Pitch_bend_c, 5, 8192
3, 129600, Pitch_bend_c, 5, 8192
3, 130560, Pitch_bend_c, 5, 8192
3, 130560, Pitch_bend_c, 5, 8192
3, 130560, Note_off_c, 5, 72, 95
3, 130560, Note_on_c, 4, 69, 95
3, 130800, Note_off_c, 4, 69, 95
3, 130800, Pitch_bend_c, 5, 8192
3, 130800, Note_on_c, 5, 72, 95
3, 130807, Pitch_bend_c, 5, 8320
3, 130814, Pitch_bend_c, 5, 8448
3, 130821, Pitch_bend_c, 5, 8576
3, 130828, Pitch_bend_c, 5, 8704
3, 130835, Pitch_bend_c, 5, 8832
3, 130842, Pitch_bend_c, 5, 8960
3, 130849, Pitch_bend_c, 5, 9088
3, 130856, Pitch_bend_c, 5, 9216
3, 130863, Pitch_bend_c, 5, 9344
3, 130870, Pitch_bend_c, 5, 9472
3, 130877, Pitch_bend_c, 5, 9600
3, 130884, Pitch_bend_c, 5, 9728
3, 130891, Pitch_bend_c, 5, 9856
3, 130898, Pitch_bend_c, 5, 9984
3, 130905, Pitch_bend_c, 5, 10112
3, 130912, Pitch_bend_c, 5, 10240
3, 130920, Pitch_bend_c, 5, 10240
3, 131040, Pitch_bend_c, 5, 10240
3, 131040, Pitch_bend_c, 5, 8192
3, 131040, Note_off_c, 5, 72, 95
3, 131040, Pitch_bend_c, 5, 10240
3, 131040, Note_on_c, 5, 72, 95
3, 131200, Pitch_bend_c, 5, 10240
3, 131210, Pitch_bend_c, 5, 10112
3, 131220, Pitch_bend_c, 5, 9984
3, 131230, Pitch_bend_c, 5, 9856
3, 131240, Pitch_bend_c, 5, 9728
3, 131250, Pitch_bend_c, 5, 9600
3, 131260, Pitch_bend_c, 5, 9472
3, 131270, Pitch_bend_c, 5, 9344
3, 131280, Pitch_bend_c, 5, 9216
3, 131290, Pitch_bend_c, 5, 9088
3, 131300, Pitch_bend_c, 5, 8960
3, 131310, Pitch_bend_c, 5, 8832
3, 131320, Pitch_bend_c, 5, 8704
3, 131330, Pitch_bend_c, 5, 8576
3, 131340, Pitch_bend_c, 5, 8448
3, 131350, Pitch_bend_c, 5, 8320
3, 131360, Pitch_bend_c, 5, 8192
3, 131360, Pitch_bend_c, 5, 8192
3, 131520, Pitch_bend_c, 5, 8192
3, 131520, Pitch_bend_c, 5, 8192
3, 131520, Note_off_c, 5, 72, 95
3, 131520, Pitch_bend_c, 5, 8192
3, 131520, Note_on_c, 5, 72, 95
3, 131541, Pitch_bend_c, 5, 8320
3, 131562, Pitch_bend_c, 5, 8448
3, 131583, Pitch_bend_c, 5, 8576
3, 131604, Pitch_bend_c, 5, 8704
3, 131625, Pitch_bend_c, 5, 8832
3, 131646, Pitch_bend_c, 5, 8960
3, 131667, Pitch_bend_c, 5, 9088
3, 131688, Pitch_bend_c, 5, 9216
3, 131709, Pitch_bend_c, 5, 9344
3, 131730, Pitch_bend_c, 5, 9472
3, 131751, Pitch_bend_c, 5, 9600
3, 131772, Pitch_bend_c, 5, 9728
3, 131793, Pitch_bend_c, 5, 9856
3, 131814, Pitch_bend_c, 5, 9984
3, 131835, Pitch_bend_c, 5, 10112
3, 131856, Pitch_bend_c, 5, 10240
3, 131877, Pitch_bend_c, 5, 10368
3, 131898, Pitch_bend_c, 5, 10496
3, 131919, Pitch_bend_c, 5, 10624
3, 131940, Pitch_bend_c, 5, 10752
3, 131961, Pitch_bend_c, 5, 10880
3, 131982, Pitch_bend_c, 5, 11008
3, 132000, Pitch_bend_c, 5, 11008
3, 132480, Pitch_bend_c, 5, 11008
3, 132480, Pitch_bend_c, 5, 8192
3, 132480, Note_off_c, 5, 72, 95
3, 133440, Note_on_c, 5, 69, 95
3, 133920, Note_off_c, 5, 69, 95
3, 134880, Pitch_bend_c, 5, 8192
3, 134880, Note_on_c, 5, 62, 95
3, 134890, Pitch_bend_c, 5, 8320
3, 134900, Pitch_bend_c, 5, 8448
3, 134910, Pitch_bend_c, 5, 8576
3, 134920, Pitch_bend_c, 5, 8704
3, 134930, Pitch_bend_c, 5, 8832
3, 134940, Pitch_bend_c, 5, 8960
3, 134950, Pitch_bend_c, 5, 9088
3, 134960, Pitch_bend_c, 5, 9216
3, 134970, Pitch_bend_c, 5, 9344
3, 134980, Pitch_bend_c, 5, 9472
3, 134990, Pitch_bend_c, 5, 9600
3, 135000, Pitch_bend_c, 5, 9600
3, 135120, Pitch_bend_c, 5, 9600
3, 135120, Pitch_bend_c, 5, 8192
3, 135120, Note_off_c, 5, 62, 95
3, 135120, Note_on_c, 4, 64, 95
3, 135360, Note_off_c, 4, 64, 95
3, 135360, Note_on_c, 4, 69, 95
3, 135600, Note_off_c, 4, 69, 95
3, 135600, Pitch_bend_c, 5, 8192
3, 135600, Note_on_c, 5, 67, 95
3, 135610, Pitch_bend_c, 5, 8320
3, 135620, Pitch_bend_c, 5, 8448
3, 135630, Pitch_bend_c, 5, 8576
3, 135640, Pitch_bend_c, 5, 8704
3, 135650, Pitch_bend_c, 5, 8832
3, 135660, Pitch_bend_c, 5, 8960
3, 135670, Pitch_bend_c, 5, 9088
3, 135680, Pitch_bend_c, 5, 9216
3, 135690, Pitch_bend_c, 5, 9344
3, 135700, Pitch_bend_c, 5, 9472
3, 135710, Pitch_bend_c, 5, 9600
3, 135720, Pitch_bend_c, 5, 9600
3, 135840, Pitch_bend_c, 5, 9600
3, 135840, Pitch_bend_c, 5, 8192
3, 135840, Note_off_c, 5, 67, 95
3, 136080, Note_on_c, 4, 69, 95
3, 136320, Note_off_c, 4, 69, 95
3, 136320, Note_on_c, 4, 67, 95
3, 136560, Note_off_c, 4, 67, 95
3, 136560, Note_on_c, 4, 64, 95
3, 136800, Note_off_c, 4, 64, 95
3, 136800, Pitch_bend_c, 5, 8192
3, 136800, Note_on_c, 5, 62, 95
3, 136848, Pitch_bend_c, 5, 8320
3, 136896, Pitch_bend_c, 5, 8448
3, 136944, Pitch_bend_c, 5, 8576
3, 136992, Pitch_bend_c, 5, 8704
3, 137040, Pitch_bend_c, 5, 8832
3, 137040, Pitch_bend_c, 5, 8832
3, 137280, Pitch_bend_c, 5, 8832
3, 137280, Pitch_bend_c, 5, 8192
3, 137280, Note_off_c, 5, 62, 95
3, 137280, Note_on_c, 4, 64, 95
3, 137520, Note_off_c, 4, 64, 95
3, 137520, Note_on_c, 4, 69, 95
3, 137760, Note_off_c, 4, 69, 95
3, 137760, Note_on_c, 4, 71, 95
3, 138000, Note_off_c, 4, 71, 95
3, 138000, Note_on_c, 4, 69, 95
3, 138240, Note_off_c, 4, 69, 95
3, 138240, Note_on_c, 4, 60, 95
3, 138480, Note_off_c, 4, 60, 95
3, 138480, Note_on_c, 4, 59, 95
3, 138720, Note_off_c, 4, 59, 95
3, 138720, Note_on_c, 4, 57, 95
3, 139080, Note_on_c, 5, 59, 95
3, 139200, Note_off_c, 4, 57, 95
3, 139200, Note_off_c, 5, 59, 95
3, 139200, Note_on_c, 5, 61, 95
3, 139680, Note_off_c, 5, 61, 95
3, 139680, Note_on_c, 4, 64, 95
3, 139920, Note_off_c, 4, 64, 95
3, 139920, Note_on_c, 4, 69, 95
3, 140160, Note_off_c, 4, 69, 95
3, 140160, Note_on_c, 4, 67, 95
3, 140640, Note_off_c, 4, 67, 95
3, 140640, Note_on_c, 4, 69, 95
3, 140880, Note_off_c, 4, 69, 95
3, 141120, Note_on_c, 5, 69, 95
3, 141280, Pitch_bend_c, 5, 8192
3, 141440, Pitch_bend_c, 5, 8320
3, 141600, Pitch_bend_c, 5, 8192
3, 141760, Pitch_bend_c, 5, 8320
3, 141920, Pitch_bend_c, 5, 8192
3, 142080, Pitch_bend_c, 5, 8320
3, 142080, Pitch_bend_c, 5, 8192
3, 142080, Note_off_c, 5, 69, 95
3, 142080, Note_on_c, 4, 69, 95
3, 142560, Note_off_c, 4, 69, 95
3, 142560, Pitch_bend_c, 5, 8192
3, 142560, Note_on_c, 5, 72, 95
3, 142565, Pitch_bend_c, 5, 8320
3, 142570, Pitch_bend_c, 5, 8448
3, 142575, Pitch_bend_c, 5, 8576
3, 142580, Pitch_bend_c, 5, 8704
3, 142585, Pitch_bend_c, 5, 8832
3, 142590, Pitch_bend_c, 5, 8960
3, 142595, Pitch_bend_c, 5, 9088
3, 142600, Pitch_bend_c, 5, 9216
3, 142605, Pitch_bend_c, 5, 9344
3, 142610, Pitch_bend_c, 5, 9472
3, 142615, Pitch_bend_c, 5, 9600
3, 142620, Pitch_bend_c, 5, 9728
3, 142625, Pitch_bend_c, 5, 9856
3, 142630, Pitch_bend_c, 5, 9984
3, 142635, Pitch_bend_c, 5, 10112
3, 142640, Pitch_bend_c, 5, 10240
3, 142645, Pitch_bend_c, 5, 10368
3, 142650, Pitch_bend_c, 5, 10496
3, 142655, Pitch_bend_c, 5, 10624
3, 142660, Pitch_bend_c, 5, 10752
3, 142665, Pitch_bend_c, 5, 10880
3, 142670, Pitch_bend_c, 5, 11008
3, 142680, Pitch_bend_c, 5, 11008
3, 142800, Pitch_bend_c, 5, 11008
3, 142805, Pitch_bend_c, 5, 10880
3, 142810, Pitch_bend_c, 5, 10752
3, 142815, Pitch_bend_c, 5, 10624
3, 142820, Pitch_bend_c, 5, 10496
3, 142825, Pitch_bend_c, 5, 10368
3, 142830, Pitch_bend_c, 5, 10240
3, 142835, Pitch_bend_c, 5, 10112
3, 142840, Pitch_bend_c, 5, 9984
3, 142845, Pitch_bend_c, 5, 9856
3, 142850, Pitch_bend_c, 5, 9728
3, 142855, Pitch_bend_c, 5, 9600
3, 142860, Pitch_bend_c, 5, 9472
3, 142865, Pitch_bend_c, 5, 9344
3, 142870, Pitch_bend_c, 5, 9216
3, 142875, Pitch_bend_c, 5, 9088
3, 142880, Pitch_bend_c, 5, 8960
3, 142885, Pitch_bend_c, 5, 8832
3, 142890, Pitch_bend_c, 5, 8704
3, 142895, Pitch_bend_c, 5, 8576
3, 142900, Pitch_bend_c, 5, 8448
3, 142905, Pitch_bend_c, 5, 8320
3, 142910, Pitch_bend_c, 5, 8192
3, 142920, Pitch_bend_c, 5, 8192
3, 143040, Pitch_bend_c, 5, 8192
3, 143040, Pitch_bend_c, 5, 8192
3, 143040, Note_off_c, 5, 72, 95
3, 143040, Pitch_bend_c, 5, 8192
3, 143040, Note_on_c, 5, 72, 47
3, 143083, Pitch_bend_c, 5, 8320
3, 143126, Pitch_bend_c, 5, 8448
3, 143169, Pitch_bend_c, 5, 8576
3, 143212, Pitch_bend_c, 5, 8704
3, 143255, Pitch_bend_c, 5, 8832
3, 143298, Pitch_bend_c, 5, 8960
3, 143341, Pitch_bend_c, 5, 9088
3, 143384, Pitch_bend_c, 5, 9216
3, 143427, Pitch_bend_c, 5, 9344
3, 143470, Pitch_bend_c, 5, 9472
3, 143513, Pitch_bend_c, 5, 9600
3, 143520, Pitch_bend_c, 5, 9600
3, 144000, Pitch_bend_c, 5, 9600
3, 144000, Pitch_bend_c, 5, 8192
3, 144000, Note_off_c, 5, 72, 47
3, 144000, Note_on_c, 4, 69, 95
3, 144480, Note_off_c, 4, 69, 95
3, 144480, Pitch_bend_c, 5, 9600
3, 144480, Note_on_c, 5, 62, 95
3, 144600, Pitch_bend_c, 5, 9600
3, 144720, Pitch_bend_c, 5, 9600
3, 144720, Pitch_bend_c, 5, 8192
3, 144720, Note_off_c, 5, 62, 95
3, 144720, Note_on_c, 4, 64, 95
3, 144960, Note_off_c, 4, 64, 95
3, 144960, Note_on_c, 4, 69, 95
3, 145200, Note_off_c, 4, 69, 95
3, 145200, Note_on_c, 4, 67, 95
3, 145440, Note_off_c, 4, 67, 95
3, 145440, Pitch_bend_c, 5, 9600
3, 145440, Note_on_c, 5, 62, 95
3, 145560, Pitch_bend_c, 5, 9600
3, 145680, Pitch_bend_c, 5, 9600
3, 145680, Pitch_bend_c, 5, 8192
3, 145680, Note_off_c, 5, 62, 95
3, 145680, Note_on_c, 4, 64, 95
3, 145920, Note_off_c, 4, 64, 95
3, 145920, Note_on_c, 4, 60, 95
3, 146160, Note_off_c, 4, 60, 95
3, 146160, Note_on_c, 4, 62, 95
3, 146400, Note_off_c, 4, 62, 95
3, 146400, Note_on_c, 4, 57, 95
3, 146580, Note_on_c, 5, 60, 95
3, 146640, Note_off_c, 4, 57, 95
3, 146640, Note_off_c, 5, 60, 95
3, 146640, Pitch_bend_c, 5, 8192
3, 146640, Note_on_c, 5, 62, 95
3, 146650, Pitch_bend_c, 5, 8320
3, 146660, Pitch_bend_c, 5, 8448
3, 146670, Pitch_bend_c, 5, 8576
3, 146680, Pitch_bend_c, 5, 8704
3, 146690, Pitch_bend_c, 5, 8832
3, 146700, Pitch_bend_c, 5, 8960
3, 146710, Pitch_bend_c, 5, 9088
3, 146720, Pitch_bend_c, 5, 9216
3, 146730, Pitch_bend_c, 5, 9344
3, 146740, Pitch_bend_c, 5, 9472
3, 146750, Pitch_bend_c, 5, 9600
3, 146760, Pitch_bend_c, 5, 9600
3, 146880, Pitch_bend_c, 5, 9600
3, 146880, Pitch_bend_c, 5, 8192
3, 146880, Note_off_c, 5, 62, 95
3, 146880, Pitch_bend_c, 5, 9600
3, 146880, Note_on_c, 5, 62, 47
3, 146952, Pitch_bend_c, 5, 9728
3, 147024, Pitch_bend_c, 5, 9856
3, 147096, Pitch_bend_c, 5, 9984
3, 147168, Pitch_bend_c, 5, 10112
3, 147240, Pitch_bend_c, 5, 10240
3, 147240, Pitch_bend_c, 5, 10240
3, 147600, Pitch_bend_c, 5, 10240
3, 147600, Pitch_bend_c, 5, 8192
3, 147600, Note_off_c, 5, 62, 47
3, 148680, Note_on_c, 5, 67, 95
3, 148800, Note_off_c, 5, 67, 95
3, 148800, Note_on_c, 5, 69, 95
3, 149280, Note_off_c, 5, 69, 95
3, 149280, Note_on_c, 4, 72, 95
3, 149760, Note_off_c, 4, 72, 95
3, 149760, Note_on_c, 5, 74, 95
3, 149920, Pitch_bend_c, 5, 8192
3, 150080, Pitch_bend_c, 5, 8320
3, 150240, Pitch_bend_c, 5, 8192
3, 150400, Pitch_bend_c, 5, 8320
3, 150560, Pitch_bend_c, 5, 8192
3, 150720, Pitch_bend_c, 5, 8320
3, 150720, Pitch_bend_c, 5, 8192
3, 150720, Note_off_c, 5, 74, 95
3, 150720, Note_on_c, 4, 72, 95
3, 150960, Note_off_c, 4, 72, 95
3, 150960, Note_on_c, 4, 74, 95
3, 151200, Note_off_c, 4, 74, 95
3, 151200, Note_on_c, 4, 72, 95
3, 151680, Note_off_c, 4, 72, 95
3, 152160, Pitch_bend_c, 5, 8192
3, 152160, Note_on_c, 5, 76, 95
3, 152220, Pitch_bend_c, 5, 8320
3, 152280, Pitch_bend_c, 5, 8448
3, 152340, Pitch_bend_c, 5, 8576
3, 152400, Pitch_bend_c, 5, 8704
3, 152460, Pitch_bend_c, 5, 8832
3, 152520, Pitch_bend_c, 5, 8960
3, 152580, Pitch_bend_c, 5, 9088
3, 152640, Pitch_bend_c, 5, 9216
3, 152700, Pitch_bend_c, 5, 9344
3, 152760, Pitch_bend_c, 5, 9472
3, 152820, Pitch_bend_c, 5, 9600
3, 152880, Pitch_bend_c, 5, 9728
3, 152940, Pitch_bend_c, 5, 9856
3, 153000, Pitch_bend_c, 5, 9984
3, 153060, Pitch_bend_c, 5, 10112
3, 153120, Pitch_bend_c, 5, 10240
3, 153120, Pitch_bend_c, 5, 10240
3, 154080, Pitch_bend_c, 5, 10240
3, 154080, Pitch_bend_c, 5, 8192
3, 154080, Note_off_c, 5, 76, 95
3, 154080, Note_on_c, 4, 69, 95
3, 154560, Note_off_c, 4, 69, 95
3, 154560, Pitch_bend_c, 5, 8192
3, 154560, Note_on_c, 5, 72, 95
3, 154581, Pitch_bend_c, 5, 8320
3, 154602, Pitch_bend_c, 5, 8448
3, 154623, Pitch_bend_c, 5, 8576
3, 154644, Pitch_bend_c, 5, 8704
3, 154665, Pitch_bend_c, 5, 8832
3, 154686, Pitch_bend_c, 5, 8960
3, 154707, Pitch_bend_c, 5, 9088
3, 154728, Pitch_bend_c, 5, 9216
3, 154749, Pitch_bend_c, 5, 9344
3, 154770, Pitch_bend_c, 5, 9472
3, 154791, Pitch_bend_c, 5, 9600
3, 154812, Pitch_bend_c, 5, 9728
3, 154833, Pitch_bend_c, 5, 9856
3, 154854, Pitch_bend_c, 5, 9984
3, 154875, Pitch_bend_c, 5, 10112
3, 154896, Pitch_bend_c, 5, 10240
3, 154917, Pitch_bend_c, 5, 10368
3, 154938, Pitch_bend_c, 5, 10496
3, 154959, Pitch_bend_c, 5, 10624
3, 154980, Pitch_bend_c, 5, 10752
3, 155001, Pitch_bend_c, 5, 10880
3, 155022, Pitch_bend_c, 5, 11008
3, 155040, Pitch_bend_c, 5, 11008
3, 155520, Pitch_bend_c, 5, 11008
3, 155520, Pitch_bend_c, 5, 8192
3, 155520, Note_off_c, 5, 72, 95
3, 155520, Pitch_bend_c, 5, 8192
3, 155520, Note_on_c, 5, 72, 95
3, 155541, Pitch_bend_c, 5, 8320
3, 155562, Pitch_bend_c, 5, 8448
3, 155583, Pitch_bend_c, 5, 8576
3, 155604, Pitch_bend_c, 5, 8704
3, 155625, Pitch_bend_c, 5, 8832
3, 155646, Pitch_bend_c, 5, 8960
3, 155667, Pitch_bend_c, 5, 9088
3, 155688, Pitch_bend_c, 5, 9216
3, 155709, Pitch_bend_c, 5, 9344
3, 155730, Pitch_bend_c, 5, 9472
3, 155751, Pitch_bend_c, 5, 9600
3, 155772, Pitch_bend_c, 5, 9728
3, 155793, Pitch_bend_c, 5, 9856
3, 155814, Pitch_bend_c, 5, 9984
3, 155835, Pitch_bend_c, 5, 10112
3, 155856, Pitch_bend_c, 5, 10240
3, 155877, Pitch_bend_c, 5, 10368
3, 155898, Pitch_bend_c, 5, 10496
3, 155919, Pitch_bend_c, 5, 10624
3, 155940, Pitch_bend_c, 5, 10752
3, 155961, Pitch_bend_c, 5, 10880
3, 155982, Pitch_bend_c, 5, 11008
3, 156000, Pitch_bend_c, 5, 11008
3, 156480, Pitch_bend_c, 5, 11008
3, 156480, Pitch_bend_c, 5, 8192
3, 156480, Note_off_c, 5, 72, 95
3, 156480, Pitch_bend_c, 5, 8192
3, 156480, Note_on_c, 5, 72, 95
3, 156485, Pitch_bend_c, 5, 8320
3, 156490, Pitch_bend_c, 5, 8448
3, 156495, Pitch_bend_c, 5, 8576
3, 156500, Pitch_bend_c, 5, 8704
3, 156505, Pitch_bend_c, 5, 8832
3, 156510, Pitch_bend_c, 5, 8960
3, 156515, Pitch_bend_c, 5, 9088
3, 156520, Pitch_bend_c, 5, 9216
3, 156525, Pitch_bend_c, 5, 9344
3, 156530, Pitch_bend_c, 5, 9472
3, 156535, Pitch_bend_c, 5, 9600
3, 156540, Pitch_bend_c, 5, 9728
3, 156545, Pitch_bend_c, 5, 9856
3, 156550, Pitch_bend_c, 5, 9984
3, 156555, Pitch_bend_c, 5, 10112
3, 156560, Pitch_bend_c, 5, 10240
3, 156565, Pitch_bend_c, 5, 10368
3, 156570, Pitch_bend_c, 5, 10496
3, 156575, Pitch_bend_c, 5, 10624
3, 156580, Pitch_bend_c, 5, 10752
3, 156585, Pitch_bend_c, 5, 10880
3, 156590, Pitch_bend_c, 5, 11008
3, 156600, Pitch_bend_c, 5, 11008
3, 156720, Pitch_bend_c, 5, 11008
3, 156720, Pitch_bend_c, 5, 8192
3, 156720, Note_off_c, 5, 72, 95
3, 156720, Note_on_c, 5, 72, 95
3, 157440, Note_off_c, 5, 72, 95
3, 176640, Note_on_c, 4, 75, 95
3, 176880, Note_off_c, 4, 75, 95
3, 176880, Note_on_c, 4, 73, 95
3, 177120, Note_off_c, 4, 73, 95
3, 177120, Note_on_c, 4, 75, 95
3, 177360, Note_off_c, 4, 75, 95
3, 177360, Note_on_c, 4, 73, 95
3, 177600, Note_off_c, 4, 73, 95
3, 177600, Note_on_c, 4, 75, 95
3, 177840, Note_off_c, 4, 75, 95
3, 177840, Note_on_c, 4, 73, 95
3, 178080, Note_off_c, 4, 73, 95
3, 178080, Note_on_c, 4, 75, 95
3, 178320, Note_off_c, 4, 75, 95
3, 178320, Note_on_c, 4, 73, 95
3, 178560, Note_off_c, 4, 73, 95
3, 178560, Note_on_c, 4, 75, 95
3, 178800, Note_off_c, 4, 75, 95
3, 178800, Note_on_c, 4, 73, 95
3, 179040, Note_off_c, 4, 73, 95
3, 179040, Note_on_c, 4, 75, 95
3, 179280, Note_off_c, 4, 75, 95
3, 179280, Note_on_c, 4, 73, 95
3, 179520, Note_off_c, 4, 73, 95
3, 179520, Note_on_c, 4, 75, 95
3, 179760, Note_off_c, 4, 75, 95
3, 179760, Note_on_c, 4, 73, 95
3, 180000, Note_off_c, 4, 73, 95
3, 180000, Note_on_c, 4, 69, 95
3, 180480, Note_off_c, 4, 69, 95
3, 180480, Note_on_c, 4, 75, 95
3, 180720, Note_off_c, 4, 75, 95
3, 180720, Note_on_c, 4, 73, 95
3, 180960, Note_off_c, 4, 73, 95
3, 180960, Note_on_c, 4, 75, 95
3, 181200, Note_off_c, 4, 75, 95
3, 181200, Note_on_c, 4, 73, 95
3, 181440, Note_off_c, 4, 73, 95
3, 181440, Note_on_c, 4, 75, 95
3, 181680, Note_off_c, 4, 75, 95
3, 181680, Note_on_c, 4, 73, 95
3, 181920, Note_off_c, 4, 73, 95
3, 181920, Note_on_c, 4, 75, 95
3, 182160, Note_off_c, 4, 75, 95
3, 182160, Note_on_c, 4, 73, 95
3, 182400, Note_off_c, 4, 73, 95
3, 182400, Note_on_c, 4, 75, 95
3, 182640, Note_off_c, 4, 75, 95
3, 182640, Note_on_c, 4, 73, 95
3, 182880, Note_off_c, 4, 73, 95
3, 182880, Note_on_c, 4, 75, 95
3, 183120, Note_off_c, 4, 75, 95
3, 183120, Note_on_c, 4, 73, 95
3, 183360, Note_off_c, 4, 73, 95
3, 183360, Note_on_c, 4, 69, 95
3, 184320, Note_off_c, 4, 69, 95
3, 184320, Note_on_c, 4, 75, 95
3, 184560, Note_off_c, 4, 75, 95
3, 184560, Note_on_c, 4, 73, 95
3, 184800, Note_off_c, 4, 73, 95
3, 184800, Note_on_c, 4, 75, 95
3, 185040, Note_off_c, 4, 75, 95
3, 185040, Note_on_c, 4, 73, 95
3, 185280, Note_off_c, 4, 73, 95
3, 185280, Note_on_c, 4, 75, 95
3, 185520, Note_off_c, 4, 75, 95
3, 185520, Note_on_c, 4, 73, 95
3, 185760, Note_off_c, 4, 73, 95
3, 185760, Note_on_c, 4, 75, 95
3, 186000, Note_off_c, 4, 75, 95
3, 186000, Note_on_c, 4, 73, 95
3, 186240, Note_off_c, 4, 73, 95
3, 186240, Note_on_c, 4, 75, 95
3, 186480, Note_off_c, 4, 75, 95
3, 186480, Note_on_c, 4, 73, 95
3, 186720, Note_off_c, 4, 73, 95
3, 186720, Note_on_c, 4, 75, 95
3, 186960, Note_off_c, 4, 75, 95
3, 186960, Note_on_c, 4, 73, 95
3, 187200, Note_off_c, 4, 73, 95
3, 187200, Note_on_c, 4, 73, 95
3, 187200, Note_on_c, 4, 69, 95
3, 188100, Note_on_c, 5, 73, 95
3, 188160, Note_off_c, 4, 73, 95
3, 188160, Note_off_c, 4, 69, 95
3, 188160, Note_off_c, 5, 73, 95
3, 188160, Note_on_c, 5, 75, 95
3, 188640, Note_off_c, 5, 75, 95
3, 188640, Note_on_c, 4, 78, 95
3, 189120, Note_off_c, 4, 78, 95
3, 189120, Note_on_c, 4, 64, 95
3, 189120, Note_on_c, 4, 73, 95
3, 189840, Note_off_c, 4, 64, 95
3, 189840, Note_off_c, 4, 73, 95
3, 189840, Note_on_c, 5, 73, 95
3, 189960, Pitch_bend_c, 5, 8832
3, 190080, Pitch_bend_c, 5, 9600
3, 190080, Pitch_bend_c, 5, 8192
3, 190080, Note_off_c, 5, 73, 95
3, 190080, Note_on_c, 4, 75, 95
3, 190320, Note_off_c, 4, 75, 95
3, 190320, Note_on_c, 4, 78, 95
3, 190560, Note_off_c, 4, 78, 95
3, 190560, Note_on_c, 4, 73, 95
3, 191040, Note_off_c, 4, 73, 95
3, 191040, Pitch_bend_c, 5, 8192
3, 191040, Note_on_c, 5, 73, 95
3, 191040, Pitch_bend_c, 5, 8192
3, 191040, Note_on_c, 5, 69, 95
3, 191280, Pitch_bend_c, 5, 8320
3, 191280, Pitch_bend_c, 5, 8320
3, 191520, Pitch_bend_c, 5, 8448
3, 191520, Pitch_bend_c, 5, 8448
3, 191520, Pitch_bend_c, 5, 8448
3, 191520, Pitch_bend_c, 5, 8448
3, 191940, Note_on_c, 5, 78, 95
3, 192000, Pitch_bend_c, 5, 8448
3, 192000, Pitch_bend_c, 5, 8192
3, 192000, Note_off_c, 5, 73, 95
3, 192000, Pitch_bend_c, 5, 8448
3, 192000, Pitch_bend_c, 5, 8192
3, 192000, Note_off_c, 5, 69, 95
3, 192000, Note_off_c, 5, 78, 95
3, 192000, Note_on_c, 5, 80, 95
3, 192480, Note_off_c, 5, 80, 95
3, 192480, Note_on_c, 4, 78, 95
3, 192960, Note_off_c, 4, 78, 95
3, 192960, Note_on_c, 4, 64, 95
3, 192960, Note_on_c, 4, 73, 95
3, 193680, Note_off_c, 4, 64, 95
3, 193680, Note_off_c, 4, 73, 95
3, 193680, Note_on_c, 5, 73, 95
3, 193800, Pitch_bend_c, 5, 8832
3, 193920, Pitch_bend_c, 5, 9600
3, 193920, Pitch_bend_c, 5, 8192
3, 193920, Note_off_c, 5, 73, 95
3, 193920, Note_on_c, 4, 75, 95
3, 194160, Note_off_c, 4, 75, 95
3, 194160, Note_on_c, 4, 78, 95
3, 194640, Note_off_c, 4, 78, 95
3, 194640, Note_on_c, 4, 64, 95
3, 194880, Note_off_c, 4, 64, 95
3, 194880, Note_on_c, 5, 69, 95
3, 195040, Pitch_bend_c, 5, 8192
3, 195200, Pitch_bend_c, 5, 8320
3, 195360, Pitch_bend_c, 5, 8192
3, 195520, Pitch_bend_c, 5, 8320
3, 195680, Pitch_bend_c, 5, 8192
3, 195780, Note_on_c, 5, 73, 95
3, 195840, Pitch_bend_c, 5, 8320
3, 195840, Pitch_bend_c, 5, 8192
3, 195840, Note_off_c, 5, 69, 95
3, 195840, Note_off_c, 5, 73, 95
3, 195840, Note_on_c, 5, 75, 95
3, 196320, Note_off_c, 5, 75, 95
3, 196320, Note_on_c, 4, 78, 95
3, 196800, Note_off_c, 4, 78, 95
3, 196800, Note_on_c, 4, 73, 95
3, 196800, Note_on_c, 4, 69, 95
3, 196800, Note_on_c, 4, 64, 95
3, 197520, Note_off_c, 4, 73, 95
3, 197520, Note_off_c, 4, 69, 95
3, 197520, Note_off_c, 4, 64, 95
3, 197520, Note_on_c, 5, 64, 95
3, 197640, Pitch_bend_c, 5, 8832
3, 197760, Pitch_bend_c, 5, 9600
3, 197760, Pitch_bend_c, 5, 8192
3, 197760, Note_off_c, 5, 64, 95
3, 197760, Note_on_c, 4, 66, 95
3, 198000, Note_off_c, 4, 66, 95
3, 198000, Note_on_c, 4, 78, 95
3, 198000, Note_on_c, 4, 73, 95
3, 198240, Note_off_c, 4, 78, 95
3, 198240, Note_off_c, 4, 73, 95
3, 198240, Note_on_c, 4, 64, 95
3, 198720, Note_off_c, 4, 64, 95
3, 198720, Note_on_c, 4, 73, 95
3, 198720, Note_on_c, 4, 64, 95
3, 199680, Note_off_c, 4, 73, 95
3, 199680, Note_off_c, 4, 64, 95
3, 199680, Note_on_c, 4, 75, 95
3, 200160, Note_off_c, 4, 75, 95
3, 200160, Note_on_c, 4, 78, 95
3, 200640, Note_off_c, 4, 78, 95
3, 200640, Note_on_c, 4, 73, 95
3, 200640, Note_on_c, 4, 64, 95
3, 201360, Note_off_c, 4, 73, 95
3, 201360, Note_off_c, 4, 64, 95
3, 201360, Note_on_c, 5, 75, 95
3, 201360, Note_on_c, 5, 66, 95
3, 201600, Note_off_c, 5, 75, 95
3, 201600, Note_off_c, 5, 66, 95
3, 201780, Note_on_c, 5, 73, 95
3, 201780, Note_on_c, 5, 64, 95
3, 201840, Note_off_c, 5, 73, 95
3, 201840, Note_on_c, 5, 75, 95
3, 201840, Note_off_c, 5, 64, 95
3, 201840, Note_on_c, 5, 66, 95
3, 202320, Note_off_c, 5, 75, 95
3, 202320, Note_off_c, 5, 66, 95
3, 202320, Note_on_c, 4, 64, 95
3, 202560, Note_off_c, 4, 64, 95
3, 202560, Note_on_c, 4, 73, 95
3, 203520, Note_off_c, 4, 73, 95
3, 203520, Note_on_c, 4, 75, 95
3, 203760, Note_off_c, 4, 75, 95
3, 203760, Note_on_c, 4, 73, 95
3, 204000, Note_off_c, 4, 73, 95
3, 204000, Note_on_c, 4, 75, 95
3, 204240, Note_off_c, 4, 75, 95
3, 204240, Note_on_c, 4, 73, 95
3, 204480, Note_off_c, 4, 73, 95
3, 204480, Note_on_c, 4, 75, 95
3, 204720, Note_off_c, 4, 75, 95
3, 204720, Note_on_c, 4, 73, 95
3, 204960, Note_off_c, 4, 73, 95
3, 204960, Note_on_c, 4, 75, 95
3, 205200, Note_off_c, 4, 75, 95
3, 205200, Note_on_c, 4, 73, 95
3, 205440, Note_off_c, 4, 73, 95
3, 205440, Note_on_c, 4, 75, 95
3, 205680, Note_off_c, 4, 75, 95
3, 205680, Note_on_c, 4, 73, 95
3, 205920, Note_off_c, 4, 73, 95
3, 205920, Note_on_c, 4, 75, 95
3, 206160, Note_off_c, 4, 75, 95
3, 206160, Note_on_c, 4, 73, 95
3, 206400, Note_off_c, 4, 73, 95
3, 206400, Note_on_c, 4, 69, 95
3, 207120, Note_off_c, 4, 69, 95
3, 207120, Note_on_c, 4, 73, 95
3, 207360, Note_off_c, 4, 73, 95
3, 207360, Note_on_c, 4, 75, 95
3, 207600, Note_off_c, 4, 75, 95
3, 207600, Note_on_c, 4, 73, 95
3, 207840, Note_off_c, 4, 73, 95
3, 207840, Note_on_c, 4, 75, 95
3, 208080, Note_off_c, 4, 75, 95
3, 208080, Note_on_c, 4, 73, 95
3, 208320, Note_off_c, 4, 73, 95
3, 208320, Note_on_c, 4, 75, 95
3, 208560, Note_off_c, 4, 75, 95
3, 208560, Note_on_c, 4, 73, 95
3, 208800, Note_off_c, 4, 73, 95
3, 208800, Note_on_c, 4, 75, 95
3, 209040, Note_off_c, 4, 75, 95
3, 209040, Note_on_c, 4, 73, 95
3, 209280, Note_off_c, 4, 73, 95
3, 209280, Note_on_c, 4, 75, 95
3, 209520, Note_off_c, 4, 75, 95
3, 209520, Note_on_c, 4, 73, 95
3, 209760, Note_off_c, 4, 73, 95
3, 209760, Note_on_c, 4, 75, 95
3, 210000, Note_off_c, 4, 75, 95
3, 210000, Note_on_c, 4, 73, 95
3, 210240, Note_off_c, 4, 73, 95
3, 210240, Note_on_c, 4, 69, 95
3, 211200, Note_off_c, 4, 69, 95
3, 211200, Note_on_c, 4, 75, 95
3, 211440, Note_off_c, 4, 75, 95
3, 211440, Note_on_c, 4, 73, 95
3, 211680, Note_off_c, 4, 73, 95
3, 211680, Note_on_c, 4, 75, 95
3, 211920, Note_off_c, 4, 75, 95
3, 211920, Note_on_c, 4, 73, 95
3, 212160, Note_off_c, 4, 73, 95
3, 212160, Note_on_c, 4, 75, 95
3, 212400, Note_off_c, 4, 75, 95
3, 212400, Note_on_c, 4, 73, 95
3, 212640, Note_off_c, 4, 73, 95
3, 212640, Note_on_c, 4, 75, 95
3, 212880, Note_off_c, 4, 75, 95
3, 212880, Note_on_c, 4, 73, 95
3, 213120, Note_off_c, 4, 73, 95
3, 213120, Note_on_c, 4, 75, 95
3, 213360, Note_off_c, 4, 75, 95
3, 213360, Note_on_c, 4, 73, 95
3, 213600, Note_off_c, 4, 73, 95
3, 213600, Note_on_c, 4, 75, 95
3, 213840, Note_off_c, 4, 75, 95
3, 213840, Note_on_c, 4, 73, 95
3, 214080, Note_off_c, 4, 73, 95
3, 214080, Note_on_c, 4, 69, 95
3, 215040, Note_off_c, 4, 69, 95
3, 215040, Note_on_c, 4, 75, 95
3, 215280, Note_off_c, 4, 75, 95
3, 215280, Note_on_c, 4, 73, 95
3, 215520, Note_off_c, 4, 73, 95
3, 215520, Note_on_c, 4, 75, 95
3, 215760, Note_off_c, 4, 75, 95
3, 215760, Note_on_c, 4, 73, 95
3, 216000, Note_off_c, 4, 73, 95
3, 216000, Note_on_c, 4, 75, 95
3, 216240, Note_off_c, 4, 75, 95
3, 216240, Note_on_c, 4, 73, 95
3, 216480, Note_off_c, 4, 73, 95
3, 216480, Note_on_c, 4, 75, 95
3, 216720, Note_off_c, 4, 75, 95
3, 216720, Note_on_c, 4, 73, 95
3, 216960, Note_off_c, 4, 73, 95
3, 216960, Note_on_c, 4, 75, 95
3, 217200, Note_off_c, 4, 75, 95
3, 217200, Note_on_c, 4, 73, 95
3, 217440, Note_off_c, 4, 73, 95
3, 217440, Note_on_c, 4, 75, 95
3, 217680, Note_off_c, 4, 75, 95
3, 217680, Note_on_c, 4, 73, 95
3, 217920, Note_off_c, 4, 73, 95
3, 217920, Note_on_c, 4, 69, 95
3, 218880, Note_off_c, 4, 69, 95
3, 218880, Note_on_c, 5, 73, 95
3, 218880, Note_on_c, 5, 64, 95
3, 219000, Pitch_bend_c, 5, 8832
3, 219000, Pitch_bend_c, 5, 8832
3, 219120, Pitch_bend_c, 5, 9600
3, 219120, Pitch_bend_c, 5, 8192
3, 219120, Note_off_c, 5, 73, 95
3, 219120, Pitch_bend_c, 5, 9600
3, 219120, Pitch_bend_c, 5, 8192
3, 219120, Note_off_c, 5, 64, 95
3, 219120, Note_on_c, 4, 75, 95
3, 219120, Note_on_c, 4, 66, 95
3, 219360, Note_off_c, 4, 75, 95
3, 219360, Note_off_c, 4, 66, 95
3, 219360, Note_on_c, 4, 78, 95
3, 219840, Note_off_c, 4, 78, 95
3, 219840, Note_on_c, 4, 59, 95
3, 219890, Note_off_c, 4, 59, 95
3, 220080, Note_on_c, 4, 59, 95
3, 220130, Note_off_c, 4, 59, 95
3, 220320, Note_on_c, 4, 59, 95
3, 220370, Note_off_c, 4, 59, 95
3, 220560, Note_on_c, 4, 59, 95
3, 220610, Note_off_c, 4, 59, 95
3, 220800, Note_on_c, 4, 69, 95
3, 221040, Note_off_c, 4, 69, 95
3, 221040, Note_on_c, 4, 78, 95
3, 221040, Note_on_c, 4, 73, 95
3, 221280, Note_off_c, 4, 78, 95
3, 221280, Note_off_c, 4, 73, 95
3, 221280, Note_on_c, 4, 59, 95
3, 221330, Note_off_c, 4, 59, 95
3, 221520, Note_on_c, 4, 59, 95
3, 221570, Note_off_c, 4, 59, 95
3, 221760, Note_on_c, 5, 59, 95
3, 221920, Pitch_bend_c, 5, 8192
3, 222080, Pitch_bend_c, 5, 8320
3, 222240, Pitch_bend_c, 5, 8192
3, 222400, Pitch_bend_c, 5, 8320
3, 222560, Pitch_bend_c, 5, 8192
3, 222720, Pitch_bend_c, 5, 8320
3, 222720, Pitch_bend_c, 5, 8192
3, 222720, Note_off_c, 5, 59, 95
3, 222720, Note_on_c, 5, 73, 95
3, 222720, Note_on_c, 5, 64, 95
3, 222840, Pitch_bend_c, 5, 8832
3, 222840, Pitch_bend_c, 5, 8832
3, 222960, Pitch_bend_c, 5, 9600
3, 222960, Pitch_bend_c, 5, 8192
3, 222960, Note_off_c, 5, 73, 95
3, 222960, Pitch_bend_c, 5, 9600
3, 222960, Pitch_bend_c, 5, 8192
3, 222960, Note_off_c, 5, 64, 95
3, 222960, Note_on_c, 4, 75, 95
3, 222960, Note_on_c, 4, 66, 95
3, 223200, Note_off_c, 4, 75, 95
3, 223200, Note_off_c, 4, 66, 95
3, 223200, Note_on_c, 4, 78, 95
3, 223680, Note_off_c, 4, 78, 95
3, 223680, Note_on_c, 4, 59, 95
3, 223730, Note_off_c, 4, 59, 95
3, 223920, Note_on_c, 4, 59, 95
3, 223970, Note_off_c, 4, 59, 95
3, 224160, Note_on_c, 4, 59, 95
3, 224210, Note_off_c, 4, 59, 95
3, 224400, Note_on_c, 5, 64, 95
3, 224520, Pitch_bend_c, 5, 8832
3, 224640, Pitch_bend_c, 5, 9600
3, 224640, Pitch_bend_c, 5, 8192
3, 224640, Note_off_c, 5, 64, 95
3, 224640, Note_on_c, 4, 66, 95
3, 224880, Note_off_c, 4, 66, 95
3, 224880, Note_on_c, 4, 78, 95
3, 224880, Note_on_c, 4, 73, 95
3, 225120, Note_off_c, 4, 78, 95
3, 225120, Note_off_c, 4, 73, 95
3, 225120, Note_on_c, 4, 59, 95
3, 225170, Note_off_c, 4, 59, 95
3, 225360, Note_on_c, 4, 64, 95
3, 225600, Note_off_c, 4, 64, 95
3, 225600, Note_on_c, 4, 64, 95
3, 226560, Note_off_c, 4, 64, 95
3, 226560, End_track
4, 0, Start_track
4, 0, Pitch_bend_c, 2, 8192
4, 0, Control_c, 2, 7, 127
4, 0, Control_c, 2, 10, 63
4, 0, Control_c, 2, 93, 0
4, 0, Control_c, 2, 91, 0
4, 0, Control_c, 2, 95, 0
4, 0, Control_c, 2, 92, 0
4, 0, Control_c, 2, 11, 127
4, 0, Program_c, 2, 33
4, 0, Control_c, 3, 7, 127
4, 0, Control_c, 3, 10, 63
4, 0, Control_c, 3, 93, 0
4, 0, Control_c, 3, 91, 0
4, 0, Control_c, 3, 95, 0
4, 0, Control_c, 3, 92, 0
4, 0, Control_c, 3, 11, 127
4, 0, Program_c, 3, 33
4, 18240, Note_on_c, 3, 42, 47
4, 18360, Pitch_bend_c, 3, 6656
4, 18480, Pitch_bend_c, 3, 4992
4, 18600, Pitch_bend_c, 3, 3328
4, 18720, Pitch_bend_c, 3, 1664
4, 18840, Pitch_bend_c, 3, 0
4, 18960, Pitch_bend_c, 3, 0
4, 18960, Pitch_bend_c, 3, 8192
4, 18960, Note_off_c, 3, 42, 47
4, 18960, Note_on_c, 2, 28, 95
4, 19200, Note_off_c, 2, 28, 95
4, 19200, Note_on_c, 2, 30, 95
4, 19680, Note_off_c, 2, 30, 95
4, 19680, Note_on_c, 2, 30, 95
4, 19920, Note_off_c, 2, 30, 95
4, 19920, Note_on_c, 2, 30, 95
4, 20160, Note_off_c, 2, 30, 95
4, 20160, Note_on_c, 2, 33, 95
4, 20400, Note_off_c, 2, 33, 95
4, 20400, Note_on_c, 2, 28, 95
4, 20880, Note_off_c, 2, 28, 95
4, 20880, Note_on_c, 2, 28, 95
4, 21120, Note_off_c, 2, 28, 95
4, 21120, Note_on_c, 2, 30, 95
4, 21600, Note_off_c, 2, 30, 95
4, 21600, Note_on_c, 2, 30, 95
4, 22080, Note_off_c, 2, 30, 95
4, 22800, Note_on_c, 2, 28, 95
4, 23040, Note_off_c, 2, 28, 95
4, 23040, Note_on_c, 2, 30, 95
4, 23520, Note_off_c, 2, 30, 95
4, 23520, Note_on_c, 2, 30, 95
4, 23760, Note_off_c, 2, 30, 95
4, 23760, Note_on_c, 2, 30, 95
4, 24000, Note_off_c, 2, 30, 95
4, 24000, Note_on_c, 2, 30, 95
4, 24240, Note_off_c, 2, 30, 95
4, 24240, Note_on_c, 2, 28, 95
4, 24720, Note_off_c, 2, 28, 95
4, 24720, Note_on_c, 2, 28, 95
4, 24960, Note_off_c, 2, 28, 95
4, 24960, Note_on_c, 2, 30, 95
4, 25440, Note_off_c, 2, 30, 95
4, 25440, Note_on_c, 2, 30, 95
4, 25920, Note_off_c, 2, 30, 95
4, 26640, Note_on_c, 2, 28, 95
4, 26880, Note_off_c, 2, 28, 95
4, 26880, Note_on_c, 2, 30, 95
4, 27360, Note_off_c, 2, 30, 95
4, 27360, Note_on_c, 2, 30, 95
4, 27600, Note_off_c, 2, 30, 95
4, 27600, Note_on_c, 2, 30, 95
4, 27840, Note_off_c, 2, 30, 95
4, 27840, Note_on_c, 2, 33, 95
4, 28080, Note_off_c, 2, 33, 95
4, 28080, Note_on_c, 2, 28, 95
4, 28560, Note_off_c, 2, 28, 95
4, 28560, Note_on_c, 2, 28, 95
4, 28800, Note_off_c, 2, 28, 95
4, 28800, Note_on_c, 2, 30, 95
4, 29280, Note_off_c, 2, 30, 95
4, 29280, Note_on_c, 2, 30, 95
4, 29760, Note_off_c, 2, 30, 95
4, 30480, Note_on_c, 2, 28, 95
4, 30720, Note_off_c, 2, 28, 95
4, 30720, Note_on_c, 2, 30, 95
4, 31200, Note_off_c, 2, 30, 95
4, 31200, Note_on_c, 2, 30, 95
4, 31440, Note_off_c, 2, 30, 95
4, 31440, Note_on_c, 2, 30, 95
4, 31680, Note_off_c, 2, 30, 95
4, 31680, Note_on_c, 2, 33, 95
4, 31920, Note_off_c, 2, 33, 95
4, 31920, Note_on_c, 2, 28, 95
4, 32400, Note_off_c, 2, 28, 95
4, 32400, Note_on_c, 2, 28, 95
4, 32640, Note_off_c, 2, 28, 95
4, 32640, Note_on_c, 2, 30, 95
4, 33120, Note_off_c, 2, 30, 95
4, 33120, Note_on_c, 2, 30, 95
4, 33600, Note_off_c, 2, 30, 95
4, 34320, Note_on_c, 2, 31, 95
4, 34560, Note_off_c, 2, 31, 95
4, 34560, Note_on_c, 2, 33, 95
4, 35040, Note_off_c, 2, 33, 95
4, 35040, Note_on_c, 2, 33, 95
4, 35280, Note_off_c, 2, 33, 95
4, 35280, Note_on_c, 2, 33, 95
4, 35520, Note_off_c, 2, 33, 95
4, 35520, Note_on_c, 2, 36, 95
4, 35760, Note_off_c, 2, 36, 95
4, 35760, Note_on_c, 2, 31, 95
4, 36240, Note_off_c, 2, 31, 95
4, 36240, Note_on_c, 2, 31, 95
4, 36480, Note_off_c, 2, 31, 95
4, 36480, Note_on_c, 2, 33, 95
4, 36960, Note_off_c, 2, 33, 95
4, 36960, Note_on_c, 2, 33, 95
4, 37440, Note_off_c, 2, 33, 95
4, 38160, Note_on_c, 2, 31, 95
4, 38400, Note_off_c, 2, 31, 95
4, 38400, Note_on_c, 2, 33, 95
4, 38880, Note_off_c, 2, 33, 95
4, 38880, Note_on_c, 2, 33, 95
4, 39120, Note_off_c, 2, 33, 95
4, 39120, Note_on_c, 2, 33, 95
4, 39360, Note_off_c, 2, 33, 95
4, 39360, Note_on_c, 2, 36, 95
4, 39600, Note_off_c, 2, 36, 95
4, 39600, Note_on_c, 2, 31, 95
4, 40080, Note_off_c, 2, 31, 95
4, 40080, Note_on_c, 2, 31, 95
4, 40320, Note_off_c, 2, 31, 95
4, 40320, Note_on_c, 2, 33, 95
4, 40800, Note_off_c, 2, 33, 95
4, 40800, Note_on_c, 2, 33, 95
4, 41280, Note_off_c, 2, 33, 95
4, 42000, Note_on_c, 2, 28, 95
4, 42240, Note_off_c, 2, 28, 95
4, 42240, Note_on_c, 2, 30, 95
4, 42720, Note_off_c, 2, 30, 95
4, 42720, Note_on_c, 2, 30, 95
4, 42960, Note_off_c, 2, 30, 95
4, 42960, Note_on_c, 2, 30, 95
4, 43200, Note_off_c, 2, 30, 95
4, 43200, Note_on_c, 2, 33, 95
4, 43440, Note_off_c, 2, 33, 95
4, 43440, Note_on_c, 2, 28, 95
4, 43920, Note_off_c, 2, 28, 95
4, 43920, Note_on_c, 2, 28, 95
4, 44160, Note_off_c, 2, 28, 95
4, 44160, Note_on_c, 2, 30, 95
4, 44640, Note_off_c, 2, 30, 95
4, 44640, Note_on_c, 2, 30, 95
4, 45120, Note_off_c, 2, 30, 95
4, 45840, Note_on_c, 2, 28, 95
4, 46080, Note_off_c, 2, 28, 95
4, 46080, Note_on_c, 2, 30, 95
4, 46560, Note_off_c, 2, 30, 95
4, 46560, Note_on_c, 2, 30, 95
4, 46800, Note_off_c, 2, 30, 95
4, 46800, Note_on_c, 2, 30, 95
4, 47040, Note_off_c, 2, 30, 95
4, 47040, Note_on_c, 2, 33, 95
4, 47280, Note_off_c, 2, 33, 95
4, 47280, Note_on_c, 2, 28, 95
4, 47760, Note_off_c, 2, 28, 95
4, 47760, Note_on_c, 2, 28, 95
4, 48000, Note_off_c, 2, 28, 95
4, 48000, Note_on_c, 2, 30, 95
4, 48480, Note_off_c, 2, 30, 95
4, 48480, Note_on_c, 2, 30, 95
4, 48960, Note_off_c, 2, 30, 95
4, 49920, Note_on_c, 2, 37, 95
4, 50400, Note_off_c, 2, 37, 95
4, 50400, Note_on_c, 2, 32, 95
4, 50880, Note_off_c, 2, 32, 95
4, 50880, Note_on_c, 2, 37, 95
4, 51360, Note_off_c, 2, 37, 95
4, 51360, Note_on_c, 2, 32, 95
4, 51840, Note_off_c, 2, 32, 95
4, 51840, Note_on_c, 2, 37, 95
4, 52320, Note_off_c, 2, 37, 95
4, 52320, Note_on_c, 2, 32, 95
4, 52800, Note_off_c, 2, 32, 95
4, 52800, Note_on_c, 2, 37, 95
4, 53280, Note_off_c, 2, 37, 95
4, 53280, Note_on_c, 2, 32, 95
4, 53760, Note_off_c, 2, 32, 95
4, 53760, Note_on_c, 2, 37, 95
4, 54240, Note_off_c, 2, 37, 95
4, 54240, Note_on_c, 2, 32, 95
4, 54720, Note_off_c, 2, 32, 95
4, 54720, Note_on_c, 2, 37, 95
4, 55200, Note_off_c, 2, 37, 95
4, 55200, Note_on_c, 2, 32, 95
4, 55680, Note_off_c, 2, 32, 95
4, 55680, Note_on_c, 2, 40, 95
4, 56160, Note_off_c, 2, 40, 95
4, 56160, Note_on_c, 2, 37, 95
4, 56640, Note_off_c, 2, 37, 95
4, 56640, Note_on_c, 2, 41, 95
4, 57120, Note_off_c, 2, 41, 95
4, 57120, Note_on_c, 2, 37, 95
4, 57600, Note_off_c, 2, 37, 95
4, 57600, Note_on_c, 2, 30, 95
4, 58080, Note_off_c, 2, 30, 95
4, 58080, Note_on_c, 2, 30, 95
4, 58320, Note_off_c, 2, 30, 95
4, 58320, Note_on_c, 2, 30, 95
4, 58560, Note_off_c, 2, 30, 95
4, 58560, Note_on_c, 2, 33, 95
4, 58800, Note_off_c, 2, 33, 95
4, 58800, Note_on_c, 2, 28, 95
4, 59280, Note_off_c, 2, 28, 95
4, 59280, Note_on_c, 2, 28, 95
4, 59520, Note_off_c, 2, 28, 95
4, 59520, Note_on_c, 2, 30, 95
4, 60000, Note_off_c, 2, 30, 95
4, 60000, Note_on_c, 2, 42, 95
4, 60480, Note_off_c, 2, 42, 95
4, 60480, Note_on_c, 3, 42, 95
4, 61200, Note_off_c, 3, 42, 95
4, 61200, Note_on_c, 2, 28, 95
4, 61440, Note_off_c, 2, 28, 95
4, 61440, Note_on_c, 2, 30, 95
4, 61920, Note_off_c, 2, 30, 95
4, 61920, Note_on_c, 2, 30, 95
4, 62160, Note_off_c, 2, 30, 95
4, 62160, Note_on_c, 2, 30, 95
4, 62400, Note_off_c, 2, 30, 95
4, 62400, Note_on_c, 2, 33, 95
4, 62640, Note_off_c, 2, 33, 95
4, 62640, Note_on_c, 2, 28, 95
4, 63120, Note_off_c, 2, 28, 95
4, 63120, Note_on_c, 2, 28, 95
4, 63360, Note_off_c, 2, 28, 95
4, 63360, Note_on_c, 2, 30, 95
4, 63840, Note_off_c, 2, 30, 95
4, 63840, Note_on_c, 2, 42, 95
4, 64320, Note_off_c, 2, 42, 95
4, 64320, Note_on_c, 3, 42, 95
4, 65040, Note_off_c, 3, 42, 95
4, 65040, Note_on_c, 2, 28, 95
4, 65280, Note_off_c, 2, 28, 95
4, 65280, Note_on_c, 2, 30, 95
4, 65760, Note_off_c, 2, 30, 95
4, 65760, Note_on_c, 2, 30, 95
4, 66000, Note_off_c, 2, 30, 95
4, 66000, Note_on_c, 2, 30, 95
4, 66240, Note_off_c, 2, 30, 95
4, 66240, Note_on_c, 2, 33, 95
4, 66480, Note_off_c, 2, 33, 95
4, 66480, Note_on_c, 2, 28, 95
4, 66960, Note_off_c, 2, 28, 95
4, 66960, Note_on_c, 2, 28, 95
4, 67200, Note_off_c, 2, 28, 95
4, 67200, Note_on_c, 2, 30, 95
4, 67680, Note_off_c, 2, 30, 95
4, 67680, Note_on_c, 2, 42, 95
4, 68160, Note_off_c, 2, 42, 95
4, 68160, Note_on_c, 3, 42, 95
4, 68880, Note_off_c, 3, 42, 95
4, 68880, Note_on_c, 2, 28, 95
4, 69120, Note_off_c, 2, 28, 95
4, 69120, Note_on_c, 2, 30, 95
4, 69600, Note_off_c, 2, 30, 95
4, 69600, Note_on_c, 2, 30, 95
4, 69840, Note_off_c, 2, 30, 95
4, 69840, Note_on_c, 2, 30, 95
4, 70080, Note_off_c, 2, 30, 95
4, 70080, Note_on_c, 2, 33, 95
4, 70320, Note_off_c, 2, 33, 95
4, 70320, Note_on_c, 2, 28, 95
4, 70800, Note_off_c, 2, 28, 95
4, 70800, Note_on_c, 2, 28, 95
4, 71040, Note_off_c, 2, 28, 95
4, 71040, Note_on_c, 2, 30, 95
4, 71520, Note_off_c, 2, 30, 95
4, 71520, Note_on_c, 2, 42, 95
4, 72000, Note_off_c, 2, 42, 95
4, 72000, Note_on_c, 3, 42, 95
4, 72720, Note_off_c, 3, 42, 95
4, 72720, Note_on_c, 2, 28, 95
4, 72960, Note_off_c, 2, 28, 95
4, 72960, Note_on_c, 2, 30, 95
4, 73440, Note_off_c, 2, 30, 95
4, 73440, Note_on_c, 2, 30, 95
4, 73680, Note_off_c, 2, 30, 95
4, 73680, Note_on_c, 2, 30, 95
4, 73920, Note_off_c, 2, 30, 95
4, 73920, Note_on_c, 2, 33, 95
4, 74160, Note_off_c, 2, 33, 95
4, 74160, Note_on_c, 2, 28, 95
4, 74640, Note_off_c, 2, 28, 95
4, 74640, Note_on_c, 2, 28, 95
4, 74880, Note_off_c, 2, 28, 95
4, 74880, Note_on_c, 2, 30, 95
4, 75360, Note_off_c, 2, 30, 95
4, 75360, Note_on_c, 2, 42, 95
4, 75840, Note_off_c, 2, 42, 95
4, 75840, Note_on_c, 3, 42, 95
4, 76560, Note_off_c, 3, 42, 95
4, 76560, Note_on_c, 2, 28, 95
4, 76800, Note_off_c, 2, 28, 95
4, 76800, Note_on_c, 2, 30, 95
4, 77280, Note_off_c, 2, 30, 95
4, 77280, Note_on_c, 2, 30, 95
4, 77520, Note_off_c, 2, 30, 95
4, 77520, Note_on_c, 2, 30, 95
4, 77760, Note_off_c, 2, 30, 95
4, 77760, Note_on_c, 2, 33, 95
4, 78000, Note_off_c, 2, 33, 95
4, 78000, Note_on_c, 2, 28, 95
4, 78480, Note_off_c, 2, 28, 95
4, 78480, Note_on_c, 2, 28, 95
4, 78720, Note_off_c, 2, 28, 95
4, 78720, Note_on_c, 2, 30, 95
4, 79200, Note_off_c, 2, 30, 95
4, 79200, Note_on_c, 2, 42, 95
4, 79680, Note_off_c, 2, 42, 95
4, 79680, Note_on_c, 3, 42, 95
4, 80400, Note_off_c, 3, 42, 95
4, 80400, Note_on_c, 2, 28, 95
4, 80640, Note_off_c, 2, 28, 95
4, 80640, Note_on_c, 2, 30, 95
4, 81120, Note_off_c, 2, 30, 95
4, 81120, Note_on_c, 2, 30, 95
4, 81360, Note_off_c, 2, 30, 95
4, 81360, Note_on_c, 2, 30, 95
4, 81600, Note_off_c, 2, 30, 95
4, 81600, Note_on_c, 2, 36, 95
4, 81840, Note_off_c, 2, 36, 95
4, 81840, Note_on_c, 2, 31, 95
4, 82320, Note_off_c, 2, 31, 95
4, 82320, Note_on_c, 2, 31, 95
4, 82560, Note_off_c, 2, 31, 95
4, 82560, Note_on_c, 2, 33, 95
4, 83040, Note_off_c, 2, 33, 95
4, 83040, Note_on_c, 2, 45, 95
4, 83520, Note_off_c, 2, 45, 95
4, 83520, Note_on_c, 3, 45, 95
4, 84240, Note_off_c, 3, 45, 95
4, 84240, Note_on_c, 2, 31, 95
4, 84480, Note_off_c, 2, 31, 95
4, 84480, Note_on_c, 2, 33, 95
4, 84960, Note_off_c, 2, 33, 95
4, 84960, Note_on_c, 2, 33, 95
4, 85200, Note_off_c, 2, 33, 95
4, 85200, Note_on_c, 2, 33, 95
4, 85440, Note_off_c, 2, 33, 95
4, 85440, Note_on_c, 2, 36, 95
4, 85680, Note_off_c, 2, 36, 95
4, 85680, Note_on_c, 2, 31, 95
4, 86160, Note_off_c, 2, 31, 95
4, 86160, Note_on_c, 2, 31, 95
4, 86400, Note_off_c, 2, 31, 95
4, 86400, Note_on_c, 2, 33, 95
4, 86880, Note_off_c, 2, 33, 95
4, 86880, Note_on_c, 2, 45, 95
4, 87360, Note_off_c, 2, 45, 95
4, 87360, Note_on_c, 3, 45, 95
4, 88080, Note_off_c, 3, 45, 95
4, 88080, Note_on_c, 2, 28, 95
4, 88320, Note_off_c, 2, 28, 95
4, 88320, Note_on_c, 2, 30, 95
4, 88800, Note_off_c, 2, 30, 95
4, 88800, Note_on_c, 2, 30, 95
4, 89040, Note_off_c, 2, 30, 95
4, 89040, Note_on_c, 2, 30, 95
4, 89280, Note_off_c, 2, 30, 95
4, 89280, Note_on_c, 2, 33, 95
4, 89520, Note_off_c, 2, 33, 95
4, 89520, Note_on_c, 2, 28, 95
4, 90000, Note_off_c, 2, 28, 95
4, 90000, Note_on_c, 2, 28, 95
4, 90240, Note_off_c, 2, 28, 95
4, 90240, Note_on_c, 2, 30, 95
4, 90720, Note_off_c, 2, 30, 95
4, 90720, Note_on_c, 2, 42, 95
4, 91200, Note_off_c, 2, 42, 95
4, 91200, Note_on_c, 3, 42, 95
4, 91920, Note_off_c, 3, 42, 95
4, 91920, Note_on_c, 2, 28, 95
4, 92160, Note_off_c, 2, 28, 95
4, 92160, Note_on_c, 2, 30, 95
4, 92640, Note_off_c, 2, 30, 95
4, 92640, Note_on_c, 2, 30, 95
4, 92880, Note_off_c, 2, 30, 95
4, 92880, Note_on_c, 2, 30, 95
4, 93120, Note_off_c, 2, 30, 95
4, 93120, Note_on_c, 2, 33, 95
4, 93360, Note_off_c, 2, 33, 95
4, 93360, Note_on_c, 2, 28, 95
4, 93840, Note_off_c, 2, 28, 95
4, 93840, Note_on_c, 2, 28, 95
4, 94080, Note_off_c, 2, 28, 95
4, 94080, Note_on_c, 2, 30, 95
4, 94560, Note_off_c, 2, 30, 95
4, 94560, Note_on_c, 2, 42, 95
4, 95040, Note_off_c, 2, 42, 95
4, 95040, Note_on_c, 2, 42, 95
4, 95520, Note_off_c, 2, 42, 95
4, 95520, Note_on_c, 2, 40, 95
4, 96000, Note_off_c, 2, 40, 95
4, 96000, Note_on_c, 2, 37, 95
4, 96480, Note_off_c, 2, 37, 95
4, 96480, Note_on_c, 2, 32, 95
4, 96960, Note_off_c, 2, 32, 95
4, 96960, Note_on_c, 2, 37, 95
4, 97440, Note_off_c, 2, 37, 95
4, 97440, Note_on_c, 2, 32, 95
4, 97920, Note_off_c, 2, 32, 95
4, 97920, Note_on_c, 2, 37, 95
4, 98400, Note_off_c, 2, 37, 95
4, 98400, Note_on_c, 2, 32, 95
4, 98880, Note_off_c, 2, 32, 95
4, 98880, Note_on_c, 2, 37, 95
4, 99360, Note_off_c, 2, 37, 95
4, 99360, Note_on_c, 2, 32, 95
4, 99840, Note_off_c, 2, 32, 95
4, 99840, Note_on_c, 2, 37, 95
4, 100320, Note_off_c, 2, 37, 95
4, 100320, Note_on_c, 2, 32, 95
4, 100800, Note_off_c, 2, 32, 95
4, 100800, Note_on_c, 2, 37, 95
4, 101280, Note_off_c, 2, 37, 95
4, 101280, Note_on_c, 2, 32, 95
4, 101760, Note_off_c, 2, 32, 95
4, 101760, Note_on_c, 2, 40, 95
4, 102240, Note_off_c, 2, 40, 95
4, 102240, Note_on_c, 2, 37, 95
4, 102720, Note_off_c, 2, 37, 95
4, 102720, Note_on_c, 2, 41, 95
4, 103200, Note_off_c, 2, 41, 95
4, 103200, Note_on_c, 2, 37, 95
4, 103680, Note_off_c, 2, 37, 95
4, 103680, Note_on_c, 2, 42, 95
4, 103920, Note_off_c, 2, 42, 95
4, 103920, Note_on_c, 2, 41, 95
4, 104160, Note_off_c, 2, 41, 95
4, 104160, Note_on_c, 2, 42, 95
4, 104400, Note_off_c, 2, 42, 95
4, 104400, Note_on_c, 2, 40, 95
4, 104640, Note_off_c, 2, 40, 95
4, 104640, Note_on_c, 2, 42, 95
4, 104880, Note_off_c, 2, 42, 95
4, 104880, Note_on_c, 2, 40, 95
4, 105120, Note_off_c, 2, 40, 95
4, 105120, Note_on_c, 2, 42, 95
4, 105360, Note_off_c, 2, 42, 95
4, 105360, Note_on_c, 2, 40, 95
4, 105600, Note_off_c, 2, 40, 95
4, 105600, Note_on_c, 2, 42, 95
4, 105840, Note_off_c, 2, 42, 95
4, 105840, Note_on_c, 2, 40, 95
4, 106080, Note_off_c, 2, 40, 95
4, 106080, Note_on_c, 2, 33, 95
4, 106560, Note_off_c, 2, 33, 95
4, 106560, Note_on_c, 2, 30, 95
4, 107040, Note_off_c, 2, 30, 95
4, 107520, Note_on_c, 2, 30, 95
4, 107760, Note_off_c, 2, 30, 95
4, 107760, Note_on_c, 2, 28, 95
4, 108000, Note_off_c, 2, 28, 95
4, 108000, Note_on_c, 2, 30, 95
4, 108240, Note_off_c, 2, 30, 95
4, 108240, Note_on_c, 2, 28, 95
4, 108480, Note_off_c, 2, 28, 95
4, 108480, Note_on_c, 2, 30, 95
4, 108720, Note_off_c, 2, 30, 95
4, 108720, Note_on_c, 2, 28, 95
4, 108960, Note_off_c, 2, 28, 95
4, 108960, Note_on_c, 2, 30, 95
4, 109200, Note_off_c, 2, 30, 95
4, 109200, Note_on_c, 2, 28, 95
4, 109440, Note_off_c, 2, 28, 95
4, 109440, Note_on_c, 2, 30, 95
4, 109680, Note_off_c, 2, 30, 95
4, 109680, Note_on_c, 2, 28, 95
4, 109920, Note_off_c, 2, 28, 95
4, 109920, Note_on_c, 2, 33, 95
4, 110400, Note_off_c, 2, 33, 95
4, 110400, Note_on_c, 2, 42, 95
4, 110880, Note_off_c, 2, 42, 95
4, 111360, Note_on_c, 2, 40, 95
4, 111840, Note_off_c, 2, 40, 95
4, 111840, Note_on_c, 2, 37, 95
4, 112080, Note_off_c, 2, 37, 95
4, 112080, Note_on_c, 2, 36, 95
4, 112320, Note_off_c, 2, 36, 95
4, 112320, Note_on_c, 2, 35, 95
4, 112800, Note_off_c, 2, 35, 95
4, 112800, Note_on_c, 2, 33, 95
4, 113280, Note_off_c, 2, 33, 95
4, 113280, Note_on_c, 2, 28, 95
4, 113760, Note_off_c, 2, 28, 95
4, 113760, Note_on_c, 2, 30, 95
4, 114240, Note_off_c, 2, 30, 95
4, 114240, Note_on_c, 2, 42, 95
4, 115200, Note_off_c, 2, 42, 95
4, 115200, Note_on_c, 2, 40, 95
4, 115680, Note_off_c, 2, 40, 95
4, 115680, Note_on_c, 2, 37, 95
4, 115920, Note_off_c, 2, 37, 95
4, 115920, Note_on_c, 2, 36, 95
4, 116160, Note_off_c, 2, 36, 95
4, 116160, Note_on_c, 2, 35, 95
4, 116640, Note_off_c, 2, 35, 95
4, 116640, Note_on_c, 2, 33, 95
4, 117120, Note_off_c, 2, 33, 95
4, 117120, Note_on_c, 2, 28, 95
4, 117600, Note_off_c, 2, 28, 95
4, 117600, Note_on_c, 2, 42, 95
4, 118080, Note_off_c, 2, 42, 95
4, 118080, Note_on_c, 2, 30, 95
4, 119040, Note_off_c, 2, 30, 95
4, 119040, Note_on_c, 2, 28, 95
4, 119520, Note_off_c, 2, 28, 95
4, 119520, Note_on_c, 2, 37, 95
4, 119760, Note_off_c, 2, 37, 95
4, 119760, Note_on_c, 2, 36, 95
4, 120000, Note_off_c, 2, 36, 95
4, 120000, Note_on_c, 2, 35, 95
4, 120480, Note_off_c, 2, 35, 95
4, 120480, Note_on_c, 2, 33, 95
4, 120960, Note_off_c, 2, 33, 95
4, 120960, Note_on_c, 2, 28, 95
4, 121440, Note_off_c, 2, 28, 95
4, 121440, Note_on_c, 2, 30, 95
4, 121920, Note_off_c, 2, 30, 95
4, 121920, Note_on_c, 2, 42, 95
4, 122880, Note_off_c, 2, 42, 95
4, 122880, Note_on_c, 2, 40, 95
4, 123360, Note_off_c, 2, 40, 95
4, 123360, Note_on_c, 2, 40, 95
4, 123840, Note_off_c, 2, 40, 95
4, 123840, Note_on_c, 2, 37, 95
4, 124080, Note_off_c, 2, 37, 95
4, 124080, Note_on_c, 2, 36, 95
4, 124320, Note_off_c, 2, 36, 95
4, 124320, Note_on_c, 2, 35, 95
4, 124800, Note_off_c, 2, 35, 95
4, 124800, Note_on_c, 2, 33, 95
4, 125280, Note_off_c, 2, 33, 95
4, 125280, Note_on_c, 2, 28, 95
4, 125760, Note_off_c, 2, 28, 95
4, 125760, Note_on_c, 2, 30, 95
4, 126240, Note_off_c, 2, 30, 95
4, 126240, Note_on_c, 2, 33, 95
4, 126720, Note_off_c, 2, 33, 95
4, 126720, Note_on_c, 2, 45, 95
4, 127200, Note_off_c, 2, 45, 95
4, 127200, Note_on_c, 2, 40, 95
4, 127680, Note_off_c, 2, 40, 95
4, 127680, Note_on_c, 2, 45, 95
4, 128160, Note_off_c, 2, 45, 95
4, 128160, Note_on_c, 2, 40, 95
4, 128640, Note_off_c, 2, 40, 95
4, 128640, Note_on_c, 2, 43, 95
4, 129120, Note_off_c, 2, 43, 95
4, 129120, Note_on_c, 2, 40, 95
4, 129600, Note_off_c, 2, 40, 95
4, 129600, Note_on_c, 2, 45, 95
4, 129840, Note_off_c, 2, 45, 95
4, 129840, Note_on_c, 2, 43, 95
4, 130080, Note_off_c, 2, 43, 95
4, 130080, Note_on_c, 2, 40, 95
4, 130560, Note_off_c, 2, 40, 95
4, 130560, Note_on_c, 2, 45, 95
4, 131040, Note_off_c, 2, 45, 95
4, 131040, Note_on_c, 2, 40, 95
4, 131520, Note_off_c, 2, 40, 95
4, 131520, Note_on_c, 2, 45, 95
4, 132000, Note_off_c, 2, 45, 95
4, 132000, Note_on_c, 2, 40, 95
4, 132480, Note_off_c, 2, 40, 95
4, 132480, Note_on_c, 2, 43, 95
4, 132960, Note_off_c, 2, 43, 95
4, 132960, Note_on_c, 2, 40, 95
4, 133440, Note_off_c, 2, 40, 95
4, 133440, Note_on_c, 2, 45, 95
4, 133680, Note_off_c, 2, 45, 95
4, 133680, Note_on_c, 2, 43, 95
4, 133920, Note_off_c, 2, 43, 95
4, 133920, Note_on_c, 2, 40, 95
4, 134400, Note_off_c, 2, 40, 95
4, 134400, Note_on_c, 2, 45, 95
4, 134880, Note_off_c, 2, 45, 95
4, 134880, Note_on_c, 2, 40, 95
4, 135360, Note_off_c, 2, 40, 95
4, 135360, Note_on_c, 2, 45, 95
4, 135840, Note_off_c, 2, 45, 95
4, 135840, Note_on_c, 2, 40, 95
4, 136320, Note_off_c, 2, 40, 95
4, 136320, Note_on_c, 2, 43, 95
4, 136800, Note_off_c, 2, 43, 95
4, 136800, Note_on_c, 2, 40, 95
4, 137280, Note_off_c, 2, 40, 95
4, 137280, Note_on_c, 2, 45, 95
4, 137520, Note_off_c, 2, 45, 95
4, 137520, Note_on_c, 2, 43, 95
4, 137760, Note_off_c, 2, 43, 95
4, 137760, Note_on_c, 2, 40, 95
4, 138240, Note_off_c, 2, 40, 95
4, 138240, Note_on_c, 2, 45, 95
4, 138720, Note_off_c, 2, 45, 95
4, 138720, Note_on_c, 2, 40, 95
4, 139200, Note_off_c, 2, 40, 95
4, 139200, Note_on_c, 2, 45, 95
4, 139680, Note_off_c, 2, 45, 95
4, 139680, Note_on_c, 2, 40, 95
4, 140160, Note_off_c, 2, 40, 95
4, 140160, Note_on_c, 2, 43, 95
4, 140640, Note_off_c, 2, 43, 95
4, 140640, Note_on_c, 2, 40, 95
4, 141120, Note_off_c, 2, 40, 95
4, 141120, Note_on_c, 2, 45, 95
4, 141360, Note_off_c, 2, 45, 95
4, 141360, Note_on_c, 2, 43, 95
4, 141600, Note_off_c, 2, 43, 95
4, 141600, Note_on_c, 2, 40, 95
4, 142080, Note_off_c, 2, 40, 95
4, 142080, Note_on_c, 2, 45, 95
4, 142560, Note_off_c, 2, 45, 95
4, 142560, Note_on_c, 2, 40, 95
4, 143040, Note_off_c, 2, 40, 95
4, 143040, Note_on_c, 2, 45, 95
4, 143520, Note_off_c, 2, 45, 95
4, 143520, Note_on_c, 2, 40, 95
4, 144000, Note_off_c, 2, 40, 95
4, 144000, Note_on_c, 2, 43, 95
4, 144480, Note_off_c, 2, 43, 95
4, 144480, Note_on_c, 2, 40, 95
4, 144960, Note_off_c, 2, 40, 95
4, 144960, Note_on_c, 2, 45, 95
4, 145200, Note_off_c, 2, 45, 95
4, 145200, Note_on_c, 3, 43, 95
4, 145680, Note_off_c, 3, 43, 95
4, 145680, Note_on_c, 2, 28, 95
4, 145920, Note_off_c, 2, 28, 95
4, 145920, Note_on_c, 2, 45, 95
4, 146400, Note_off_c, 2, 45, 95
4, 146400, Note_on_c, 2, 40, 95
4, 146880, Note_off_c, 2, 40, 95
4, 146880, Note_on_c, 2, 45, 95
4, 147360, Note_off_c, 2, 45, 95
4, 147360, Note_on_c, 2, 40, 95
4, 147840, Note_off_c, 2, 40, 95
4, 147840, Note_on_c, 2, 43, 95
4, 148320, Note_off_c, 2, 43, 95
4, 148320, Note_on_c, 2, 40, 95
4, 148800, Note_off_c, 2, 40, 95
4, 148800, Note_on_c, 2, 45, 95
4, 149040, Note_off_c, 2, 45, 95
4, 149040, Note_on_c, 3, 43, 95
4, 149520, Note_off_c, 3, 43, 95
4, 149520, Note_on_c, 2, 28, 95
4, 149760, Note_off_c, 2, 28, 95
4, 149760, Note_on_c, 2, 45, 95
4, 150240, Note_off_c, 2, 45, 95
4, 150240, Note_on_c, 2, 40, 95
4, 150720, Note_off_c, 2, 40, 95
4, 150720, Note_on_c, 2, 45, 95
4, 151200, Note_off_c, 2, 45, 95
4, 151200, Note_on_c, 2, 40, 95
4, 151680, Note_off_c, 2, 40, 95
4, 151680, Note_on_c, 2, 43, 95
4, 152160, Note_off_c, 2, 43, 95
4, 152160, Note_on_c, 2, 40, 95
4, 152640, Note_off_c, 2, 40, 95
4, 152640, Note_on_c, 2, 45, 95
4, 152880, Note_off_c, 2, 45, 95
4, 152880, Note_on_c, 3, 43, 95
4, 153360, Note_off_c, 3, 43, 95
4, 153360, Note_on_c, 2, 28, 95
4, 153600, Note_off_c, 2, 28, 95
4, 153600, Note_on_c, 2, 45, 95
4, 154080, Note_off_c, 2, 45, 95
4, 154080, Note_on_c, 2, 40, 95
4, 154560, Note_off_c, 2, 40, 95
4, 154560, Note_on_c, 2, 45, 95
4, 155040, Note_off_c, 2, 45, 95
4, 155040, Note_on_c, 2, 40, 95
4, 155520, Note_off_c, 2, 40, 95
4, 155520, Note_on_c, 2, 43, 95
4, 156000, Note_off_c, 2, 43, 95
4, 156000, Note_on_c, 2, 40, 95
4, 156480, Note_off_c, 2, 40, 95
4, 156480, Note_on_c, 2, 45, 95
4, 156720, Note_off_c, 2, 45, 95
4, 156720, Note_on_c, 3, 43, 95
4, 157200, Note_off_c, 3, 43, 95
4, 157200, Note_on_c, 2, 28, 95
4, 157440, Note_off_c, 2, 28, 95
4, 157440, Note_on_c, 2, 30, 95
4, 157920, Note_off_c, 2, 30, 95
4, 157920, Note_on_c, 2, 30, 95
4, 158160, Note_off_c, 2, 30, 95
4, 158160, Note_on_c, 2, 30, 95
4, 158400, Note_off_c, 2, 30, 95
4, 158400, Note_on_c, 2, 33, 95
4, 158640, Note_off_c, 2, 33, 95
4, 158640, Note_on_c, 2, 28, 95
4, 159120, Note_off_c, 2, 28, 95
4, 159120, Note_on_c, 2, 28, 95
4, 159360, Note_off_c, 2, 28, 95
4, 159360, Note_on_c, 2, 30, 95
4, 159840, Note_off_c, 2, 30, 95
4, 159840, Note_on_c, 2, 42, 95
4, 160320, Note_off_c, 2, 42, 95
4, 160320, Note_on_c, 3, 42, 95
4, 161040, Note_off_c, 3, 42, 95
4, 161040, Note_on_c, 2, 28, 95
4, 161280, Note_off_c, 2, 28, 95
4, 161280, Note_on_c, 2, 30, 95
4, 161760, Note_off_c, 2, 30, 95
4, 161760, Note_on_c, 2, 30, 95
4, 162000, Note_off_c, 2, 30, 95
4, 162000, Note_on_c, 2, 30, 95
4, 162240, Note_off_c, 2, 30, 95
4, 162240, Note_on_c, 2, 33, 95
4, 162480, Note_off_c, 2, 33, 95
4, 162480, Note_on_c, 2, 28, 95
4, 162960, Note_off_c, 2, 28, 95
4, 162960, Note_on_c, 2, 28, 95
4, 163200, Note_off_c, 2, 28, 95
4, 163200, Note_on_c, 2, 30, 95
4, 163680, Note_off_c, 2, 30, 95
4, 163680, Note_on_c, 2, 42, 95
4, 164160, Note_off_c, 2, 42, 95
4, 164160, Note_on_c, 3, 42, 95
4, 164880, Note_off_c, 3, 42, 95
4, 164880, Note_on_c, 2, 28, 95
4, 165120, Note_off_c, 2, 28, 95
4, 165120, Note_on_c, 2, 30, 95
4, 165600, Note_off_c, 2, 30, 95
4, 165600, Note_on_c, 2, 30, 95
4, 165840, Note_off_c, 2, 30, 95
4, 165840, Note_on_c, 2, 30, 95
4, 166080, Note_off_c, 2, 30, 95
4, 166080, Note_on_c, 2, 33, 95
4, 166320, Note_off_c, 2, 33, 95
4, 166320, Note_on_c, 2, 28, 95
4, 166800, Note_off_c, 2, 28, 95
4, 166800, Note_on_c, 2, 28, 95
4, 167040, Note_off_c, 2, 28, 95
4, 167040, Note_on_c, 2, 30, 95
4, 167520, Note_off_c, 2, 30, 95
4, 167520, Note_on_c, 2, 42, 95
4, 168000, Note_off_c, 2, 42, 95
4, 168000, Note_on_c, 3, 42, 95
4, 168720, Note_off_c, 3, 42, 95
4, 168720, Note_on_c, 2, 28, 95
4, 168960, Note_off_c, 2, 28, 95
4, 168960, Note_on_c, 2, 30, 95
4, 169440, Note_off_c, 2, 30, 95
4, 169440, Note_on_c, 2, 30, 95
4, 169680, Note_off_c, 2, 30, 95
4, 169680, Note_on_c, 2, 30, 95
4, 169920, Note_off_c, 2, 30, 95
4, 169920, Note_on_c, 2, 33, 95
4, 170160, Note_off_c, 2, 33, 95
4, 170160, Note_on_c, 2, 28, 95
4, 170640, Note_off_c, 2, 28, 95
4, 170640, Note_on_c, 2, 28, 95
4, 170880, Note_off_c, 2, 28, 95
4, 170880, Note_on_c, 2, 30, 95
4, 171360, Note_off_c, 2, 30, 95
4, 171360, Note_on_c, 2, 42, 95
4, 171840, Note_off_c, 2, 42, 95
4, 171840, Note_on_c, 3, 42, 95
4, 172560, Note_off_c, 3, 42, 95
4, 172560, Note_on_c, 2, 28, 95
4, 172800, Note_off_c, 2, 28, 95
4, 172800, Note_on_c, 2, 30, 95
4, 173040, Note_off_c, 2, 30, 95
4, 173040, Note_on_c, 2, 28, 95
4, 173280, Note_off_c, 2, 28, 95
4, 173280, Note_on_c, 2, 30, 95
4, 173520, Note_off_c, 2, 30, 95
4, 173520, Note_on_c, 2, 28, 95
4, 173760, Note_off_c, 2, 28, 95
4, 173760, Note_on_c, 2, 30, 95
4, 174000, Note_off_c, 2, 30, 95
4, 174000, Note_on_c, 2, 28, 95
4, 174240, Note_off_c, 2, 28, 95
4, 174240, Note_on_c, 2, 30, 95
4, 174480, Note_off_c, 2, 30, 95
4, 174480, Note_on_c, 2, 28, 95
4, 174720, Note_off_c, 2, 28, 95
4, 174720, Note_on_c, 2, 30, 95
4, 174960, Note_off_c, 2, 30, 95
4, 174960, Note_on_c, 2, 28, 95
4, 175200, Note_off_c, 2, 28, 95
4, 175200, Note_on_c, 2, 33, 95
4, 175440, Note_off_c, 2, 33, 95
4, 175440, Note_on_c, 2, 33, 95
4, 175680, Note_off_c, 2, 33, 95
4, 175680, Note_on_c, 2, 30, 95
4, 176400, Note_off_c, 2, 30, 95
4, 176400, Note_on_c, 2, 28, 95
4, 176640, Note_off_c, 2, 28, 95
4, 176640, Note_on_c, 2, 30, 95
4, 176880, Note_off_c, 2, 30, 95
4, 176880, Note_on_c, 2, 28, 95
4, 177120, Note_off_c, 2, 28, 95
4, 177120, Note_on_c, 2, 30, 95
4, 177360, Note_off_c, 2, 30, 95
4, 177360, Note_on_c, 2, 28, 95
4, 177600, Note_off_c, 2, 28, 95
4, 177600, Note_on_c, 2, 30, 95
4, 177840, Note_off_c, 2, 30, 95
4, 177840, Note_on_c, 2, 28, 95
4, 178080, Note_off_c, 2, 28, 95
4, 178080, Note_on_c, 2, 30, 95
4, 178320, Note_off_c, 2, 30, 95
4, 178320, Note_on_c, 2, 28, 95
4, 178560, Note_off_c, 2, 28, 95
4, 178560, Note_on_c, 2, 30, 95
4, 178800, Note_off_c, 2, 30, 95
4, 178800, Note_on_c, 2, 28, 95
4, 179040, Note_off_c, 2, 28, 95
4, 179040, Note_on_c, 2, 33, 95
4, 179280, Note_off_c, 2, 33, 95
4, 179280, Note_on_c, 2, 33, 95
4, 179520, Note_off_c, 2, 33, 95
4, 179520, Note_on_c, 2, 30, 95
4, 180240, Note_off_c, 2, 30, 95
4, 180240, Note_on_c, 2, 28, 95
4, 180480, Note_off_c, 2, 28, 95
4, 180480, Note_on_c, 2, 30, 95
4, 180720, Note_off_c, 2, 30, 95
4, 180720, Note_on_c, 2, 28, 95
4, 180960, Note_off_c, 2, 28, 95
4, 180960, Note_on_c, 2, 30, 95
4, 181200, Note_off_c, 2, 30, 95
4, 181200, Note_on_c, 2, 28, 95
4, 181440, Note_off_c, 2, 28, 95
4, 181440, Note_on_c, 2, 30, 95
4, 181680, Note_off_c, 2, 30, 95
4, 181680, Note_on_c, 2, 28, 95
4, 181920, Note_off_c, 2, 28, 95
4, 181920, Note_on_c, 2, 30, 95
4, 182160, Note_off_c, 2, 30, 95
4, 182160, Note_on_c, 2, 28, 95
4, 182400, Note_off_c, 2, 28, 95
4, 182400, Note_on_c, 2, 30, 95
4, 182640, Note_off_c, 2, 30, 95
4, 182640, Note_on_c, 2, 28, 95
4, 182880, Note_off_c, 2, 28, 95
4, 182880, Note_on_c, 2, 33, 95
4, 183120, Note_off_c, 2, 33, 95
4, 183120, Note_on_c, 2, 33, 95
4, 183360, Note_off_c, 2, 33, 95
4, 183360, Note_on_c, 2, 30, 95
4, 184080, Note_off_c, 2, 30, 95
4, 184080, Note_on_c, 2, 28, 95
4, 184320, Note_off_c, 2, 28, 95
4, 184320, Note_on_c, 2, 30, 95
4, 184560, Note_off_c, 2, 30, 95
4, 184560, Note_on_c, 2, 28, 95
4, 184800, Note_off_c, 2, 28, 95
4, 184800, Note_on_c, 2, 30, 95
4, 185040, Note_off_c, 2, 30, 95
4, 185040, Note_on_c, 2, 28, 95
4, 185280, Note_off_c, 2, 28, 95
4, 185280, Note_on_c, 2, 30, 95
4, 185520, Note_off_c, 2, 30, 95
4, 185520, Note_on_c, 2, 28, 95
4, 185760, Note_off_c, 2, 28, 95
4, 185760, Note_on_c, 2, 30, 95
4, 186000, Note_off_c, 2, 30, 95
4, 186000, Note_on_c, 2, 28, 95
4, 186240, Note_off_c, 2, 28, 95
4, 186240, Note_on_c, 2, 30, 95
4, 186480, Note_off_c, 2, 30, 95
4, 186480, Note_on_c, 2, 28, 95
4, 186720, Note_off_c, 2, 28, 95
4, 186720, Note_on_c, 2, 33, 95
4, 186960, Note_off_c, 2, 33, 95
4, 186960, Note_on_c, 2, 33, 95
4, 187200, Note_off_c, 2, 33, 95
4, 187200, Note_on_c, 2, 30, 95
4, 187920, Note_off_c, 2, 30, 95
4, 187920, Note_on_c, 2, 28, 95
4, 188160, Note_off_c, 2, 28, 95
4, 188160, Note_on_c, 2, 30, 95
4, 188640, Note_off_c, 2, 30, 95
4, 188640, Note_on_c, 2, 30, 95
4, 188880, Note_off_c, 2, 30, 95
4, 188880, Note_on_c, 2, 30, 95
4, 189120, Note_off_c, 2, 30, 95
4, 189120, Note_on_c, 2, 33, 95
4, 189360, Note_off_c, 2, 33, 95
4, 189360, Note_on_c, 2, 28, 95
4, 189840, Note_off_c, 2, 28, 95
4, 189840, Note_on_c, 2, 28, 95
4, 190080, Note_off_c, 2, 28, 95
4, 190080, Note_on_c, 2, 30, 95
4, 190560, Note_off_c, 2, 30, 95
4, 190560, Note_on_c, 2, 42, 95
4, 191040, Note_off_c, 2, 42, 95
4, 191040, Note_on_c, 3, 42, 95
4, 191760, Note_off_c, 3, 42, 95
4, 191760, Note_on_c, 2, 28, 95
4, 192000, Note_off_c, 2, 28, 95
4, 192000, Note_on_c, 2, 30, 95
4, 192480, Note_off_c, 2, 30, 95
4, 192480, Note_on_c, 2, 30, 95
4, 192720, Note_off_c, 2, 30, 95
4, 192720, Note_on_c, 2, 30, 95
4, 192960, Note_off_c, 2, 30, 95
4, 192960, Note_on_c, 2, 33, 95
4, 193200, Note_off_c, 2, 33, 95
4, 193200, Note_on_c, 2, 28, 95
4, 193680, Note_off_c, 2, 28, 95
4, 193680, Note_on_c, 2, 28, 95
4, 193920, Note_off_c, 2, 28, 95
4, 193920, Note_on_c, 2, 30, 95
4, 194400, Note_off_c, 2, 30, 95
4, 194400, Note_on_c, 2, 42, 95
4, 194880, Note_off_c, 2, 42, 95
4, 194880, Note_on_c, 3, 42, 95
4, 195600, Note_off_c, 3, 42, 95
4, 195600, Note_on_c, 2, 28, 95
4, 195840, Note_off_c, 2, 28, 95
4, 195840, Note_on_c, 2, 30, 95
4, 196320, Note_off_c, 2, 30, 95
4, 196320, Note_on_c, 2, 30, 95
4, 196560, Note_off_c, 2, 30, 95
4, 196560, Note_on_c, 2, 30, 95
4, 196800, Note_off_c, 2, 30, 95
4, 196800, Note_on_c, 2, 33, 95
4, 197040, Note_off_c, 2, 33, 95
4, 197040, Note_on_c, 2, 28, 95
4, 197520, Note_off_c, 2, 28, 95
4, 197520, Note_on_c, 2, 28, 95
4, 197760, Note_off_c, 2, 28, 95
4, 197760, Note_on_c, 2, 30, 95
4, 198240, Note_off_c, 2, 30, 95
4, 198240, Note_on_c, 2, 42, 95
4, 198720, Note_off_c, 2, 42, 95
4, 198720, Note_on_c, 3, 42, 95
4, 199440, Note_off_c, 3, 42, 95
4, 199440, Note_on_c, 2, 28, 95
4, 199680, Note_off_c, 2, 28, 95
4, 199680, Note_on_c, 2, 30, 95
4, 200160, Note_off_c, 2, 30, 95
4, 200160, Note_on_c, 2, 30, 95
4, 200400, Note_off_c, 2, 30, 95
4, 200400, Note_on_c, 2, 30, 95
4, 200640, Note_off_c, 2, 30, 95
4, 200640, Note_on_c, 2, 33, 95
4, 200880, Note_off_c, 2, 33, 95
4, 200880, Note_on_c, 2, 28, 95
4, 201360, Note_off_c, 2, 28, 95
4, 201360, Note_on_c, 2, 28, 95
4, 201600, Note_off_c, 2, 28, 95
4, 201600, Note_on_c, 2, 30, 95
4, 202080, Note_off_c, 2, 30, 95
4, 202080, Note_on_c, 2, 42, 95
4, 202560, Note_off_c, 2, 42, 95
4, 202560, Note_on_c, 3, 42, 95
4, 203280, Note_off_c, 3, 42, 95
4, 203280, Note_on_c, 2, 28, 95
4, 203520, Note_off_c, 2, 28, 95
4, 203520, Note_on_c, 2, 30, 95
4, 203760, Note_off_c, 2, 30, 95
4, 203760, Note_on_c, 2, 28, 95
4, 204000, Note_off_c, 2, 28, 95
4, 204000, Note_on_c, 2, 30, 95
4, 204240, Note_off_c, 2, 30, 95
4, 204240, Note_on_c, 2, 28, 95
4, 204480, Note_off_c, 2, 28, 95
4, 204480, Note_on_c, 2, 30, 95
4, 204720, Note_off_c, 2, 30, 95
4, 204720, Note_on_c, 2, 28, 95
4, 204960, Note_off_c, 2, 28, 95
4, 204960, Note_on_c, 2, 30, 95
4, 205200, Note_off_c, 2, 30, 95
4, 205200, Note_on_c, 2, 28, 95
4, 205440, Note_off_c, 2, 28, 95
4, 205440, Note_on_c, 2, 30, 95
4, 205680, Note_off_c, 2, 30, 95
4, 205680, Note_on_c, 2, 28, 95
4, 205920, Note_off_c, 2, 28, 95
4, 205920, Note_on_c, 2, 33, 95
4, 206160, Note_off_c, 2, 33, 95
4, 206160, Note_on_c, 2, 33, 95
4, 206400, Note_off_c, 2, 33, 95
4, 206400, Note_on_c, 2, 30, 95
4, 207120, Note_off_c, 2, 30, 95
4, 207120, Note_on_c, 2, 28, 95
4, 207360, Note_off_c, 2, 28, 95
4, 207360, Note_on_c, 2, 30, 95
4, 207600, Note_off_c, 2, 30, 95
4, 207600, Note_on_c, 2, 28, 95
4, 207840, Note_off_c, 2, 28, 95
4, 207840, Note_on_c, 2, 30, 95
4, 208080, Note_off_c, 2, 30, 95
4, 208080, Note_on_c, 2, 28, 95
4, 208320, Note_off_c, 2, 28, 95
4, 208320, Note_on_c, 2, 30, 95
4, 208560, Note_off_c, 2, 30, 95
4, 208560, Note_on_c, 2, 28, 95
4, 208800, Note_off_c, 2, 28, 95
4, 208800, Note_on_c, 2, 30, 95
4, 209040, Note_off_c, 2, 30, 95
4, 209040, Note_on_c, 2, 28, 95
4, 209280, Note_off_c, 2, 28, 95
4, 209280, Note_on_c, 2, 30, 95
4, 209520, Note_off_c, 2, 30, 95
4, 209520, Note_on_c, 2, 28, 95
4, 209760, Note_off_c, 2, 28, 95
4, 209760, Note_on_c, 2, 33, 95
4, 210000, Note_off_c, 2, 33, 95
4, 210000, Note_on_c, 2, 33, 95
4, 210240, Note_off_c, 2, 33, 95
4, 210240, Note_on_c, 2, 30, 95
4, 210960, Note_off_c, 2, 30, 95
4, 210960, Note_on_c, 2, 28, 95
4, 211200, Note_off_c, 2, 28, 95
4, 211200, Note_on_c, 2, 30, 95
4, 211440, Note_off_c, 2, 30, 95
4, 211440, Note_on_c, 2, 28, 95
4, 211680, Note_off_c, 2, 28, 95
4, 211680, Note_on_c, 2, 30, 95
4, 211920, Note_off_c, 2, 30, 95
4, 211920, Note_on_c, 2, 28, 95
4, 212160, Note_off_c, 2, 28, 95
4, 212160, Note_on_c, 2, 30, 95
4, 212400, Note_off_c, 2, 30, 95
4, 212400, Note_on_c, 2, 28, 95
4, 212640, Note_off_c, 2, 28, 95
4, 212640, Note_on_c, 2, 30, 95
4, 212880, Note_off_c, 2, 30, 95
4, 212880, Note_on_c, 2, 28, 95
4, 213120, Note_off_c, 2, 28, 95
4, 213120, Note_on_c, 2, 30, 95
4, 213360, Note_off_c, 2, 30, 95
4, 213360, Note_on_c, 2, 28, 95
4, 213600, Note_off_c, 2, 28, 95
4, 213600, Note_on_c, 2, 33, 95
4, 213840, Note_off_c, 2, 33, 95
4, 213840, Note_on_c, 2, 33, 95
4, 214080, Note_off_c, 2, 33, 95
4, 214080, Note_on_c, 2, 30, 95
4, 214800, Note_off_c, 2, 30, 95
4, 214800, Note_on_c, 2, 28, 95
4, 215040, Note_off_c, 2, 28, 95
4, 215040, Note_on_c, 2, 30, 95
4, 215520, Note_off_c, 2, 30, 95
4, 215520, Note_on_c, 2, 30, 95
4, 215760, Note_off_c, 2, 30, 95
4, 215760, Note_on_c, 2, 30, 95
4, 216000, Note_off_c, 2, 30, 95
4, 216000, Note_on_c, 2, 33, 95
4, 216240, Note_off_c, 2, 33, 95
4, 216240, Note_on_c, 2, 28, 95
4, 216720, Note_off_c, 2, 28, 95
4, 216720, Note_on_c, 2, 28, 95
4, 216960, Note_off_c, 2, 28, 95
4, 216960, Note_on_c, 2, 30, 95
4, 217440, Note_off_c, 2, 30, 95
4, 217440, Note_on_c, 2, 42, 95
4, 217920, Note_off_c, 2, 42, 95
4, 217920, Note_on_c, 3, 42, 95
4, 218640, Note_off_c, 3, 42, 95
4, 218640, Note_on_c, 2, 28, 95
4, 218880, Note_off_c, 2, 28, 95
4, 218880, Note_on_c, 2, 30, 95
4, 219360, Note_off_c, 2, 30, 95
4, 219360, Note_on_c, 2, 30, 95
4, 219600, Note_off_c, 2, 30, 95
4, 219600, Note_on_c, 2, 30, 95
4, 219840, Note_off_c, 2, 30, 95
4, 219840, Note_on_c, 2, 33, 95
4, 220080, Note_off_c, 2, 33, 95
4, 220080, Note_on_c, 2, 28, 95
4, 220560, Note_off_c, 2, 28, 95
4, 220560, Note_on_c, 2, 28, 95
4, 220800, Note_off_c, 2, 28, 95
4, 220800, Note_on_c, 2, 30, 95
4, 221280, Note_off_c, 2, 30, 95
4, 221280, Note_on_c, 2, 42, 95
4, 221760, Note_off_c, 2, 42, 95
4, 221760, Note_on_c, 3, 42, 95
4, 222480, Note_off_c, 3, 42, 95
4, 222480, Note_on_c, 2, 28, 95
4, 222720, Note_off_c, 2, 28, 95
4, 222720, Note_on_c, 2, 30, 95
4, 223200, Note_off_c, 2, 30, 95
4, 223200, Note_on_c, 2, 30, 95
4, 223440, Note_off_c, 2, 30, 95
4, 223440, Note_on_c, 2, 30, 95
4, 223680, Note_off_c, 2, 30, 95
4, 223680, Note_on_c, 2, 33, 95
4, 223920, Note_off_c, 2, 33, 95
4, 223920, Note_on_c, 2, 28, 95
4, 224400, Note_off_c, 2, 28, 95
4, 224400, Note_on_c, 2, 28, 95
4, 224640, Note_off_c, 2, 28, 95
4, 224640, Note_on_c, 2, 30, 95
4, 225120, Note_off_c, 2, 30, 95
4, 225120, Note_on_c, 2, 42, 95
4, 225600, Note_off_c, 2, 42, 95
4, 225600, Note_on_c, 3, 42, 95
4, 226320, Note_off_c, 3, 42, 95
4, 226320, Note_on_c, 2, 28, 95
4, 226560, Note_off_c, 2, 28, 95
4, 226560, Note_on_c, 2, 30, 95
4, 227040, Note_off_c, 2, 30, 95
4, 227040, Note_on_c, 2, 30, 95
4, 227280, Note_off_c, 2, 30, 95
4, 227280, Note_on_c, 2, 30, 95
4, 227520, Note_off_c, 2, 30, 95
4, 227520, Note_on_c, 2, 33, 95
4, 227760, Note_off_c, 2, 33, 95
4, 227760, Note_on_c, 2, 28, 95
4, 228240, Note_off_c, 2, 28, 95
4, 228240, Note_on_c, 2, 28, 95
4, 228480, Note_off_c, 2, 28, 95
4, 228480, Note_on_c, 2, 30, 95
4, 228960, Note_off_c, 2, 30, 95
4, 228960, Note_on_c, 2, 42, 95
4, 229440, Note_off_c, 2, 42, 95
4, 229440, Note_on_c, 3, 42, 95
4, 230160, Note_off_c, 3, 42, 95
4, 230160, Note_on_c, 2, 28, 95
4, 230400, Note_off_c, 2, 28, 95
4, 230400, End_track
5, 0, Start_track
5, 0, Pitch_bend_c, 9, 8192
5, 0, Control_c, 9, 7, 127
5, 0, Control_c, 9, 10, 63
5, 0, Control_c, 9, 93, 0
5, 0, Control_c, 9, 91, 0
5, 0, Control_c, 9, 95, 0
5, 0, Control_c, 9, 92, 0
5, 0, Control_c, 9, 11, 127
5, 0, Program_c, 9, 0
5, 3120, Note_on_c, 9, 40, 95
5, 3600, Note_off_c, 9, 40, 95
5, 3600, Note_on_c, 9, 40, 95
5, 3840, Note_off_c, 9, 40, 95
5, 3840, Note_on_c, 9, 51, 95
5, 3840, Note_on_c, 9, 42, 95
5, 3840, Note_on_c, 9, 36, 95
5, 4320, Note_off_c, 9, 51, 95
5, 4320, Note_off_c, 9, 42, 95
5, 4320, Note_off_c, 9, 36, 95
5, 4320, Note_on_c, 9, 51, 95
5, 4320, Note_on_c, 9, 42, 95
5, 4320, Note_on_c, 9, 36, 95
5, 4560, Note_off_c, 9, 51, 95
5, 4560, Note_off_c, 9, 42, 95
5, 4560, Note_off_c, 9, 36, 95
5, 4560, Note_on_c, 9, 51, 95
5, 4560, Note_on_c, 9, 42, 95
5, 4560, Note_on_c, 9, 36, 95
5, 4800, Note_off_c, 9, 51, 95
5, 4800, Note_off_c, 9, 42, 95
5, 4800, Note_off_c, 9, 36, 95
5, 4800, Note_on_c, 9, 51, 95
5, 4800, Note_on_c, 9, 40, 95
5, 5040, Note_off_c, 9, 51, 95
5, 5040, Note_off_c, 9, 40, 95
5, 5040, Note_on_c, 9, 51, 95
5, 5040, Note_on_c, 9, 42, 95
5, 5520, Note_off_c, 9, 51, 95
5, 5520, Note_off_c, 9, 42, 95
5, 5520, Note_on_c, 9, 51, 95
5, 5520, Note_on_c, 9, 40, 95
5, 5760, Note_off_c, 9, 51, 95
5, 5760, Note_off_c, 9, 40, 95
5, 5760, Note_on_c, 9, 51, 95
5, 5760, Note_on_c, 9, 42, 95
5, 5760, Note_on_c, 9, 36, 95
5, 6240, Note_off_c, 9, 51, 95
5, 6240, Note_off_c, 9, 42, 95
5, 6240, Note_off_c, 9, 36, 95
5, 6240, Note_on_c, 9, 51, 95
5, 6240, Note_on_c, 9, 42, 95
5, 6240, Note_on_c, 9, 36, 95
5, 6720, Note_off_c, 9, 51, 95
5, 6720, Note_off_c, 9, 42, 95
5, 6720, Note_off_c, 9, 36, 95
5, 6720, Note_on_c, 9, 51, 95
5, 6720, Note_on_c, 9, 42, 95
5, 6720, Note_on_c, 9, 40, 95
5, 7200, Note_off_c, 9, 51, 95
5, 7200, Note_off_c, 9, 42, 95
5, 7200, Note_off_c, 9, 40, 95
5, 7200, Note_on_c, 9, 42, 95
5, 7440, Note_off_c, 9, 42, 95
5, 7440, Note_on_c, 9, 51, 95
5, 7440, Note_on_c, 9, 40, 95
5, 7680, Note_off_c, 9, 51, 95
5, 7680, Note_off_c, 9, 40, 95
5, 7680, Note_on_c, 9, 51, 95
5, 7680, Note_on_c, 9, 42, 95
5, 7680, Note_on_c, 9, 36, 95
5, 8160, Note_off_c, 9, 51, 95
5, 8160, Note_off_c, 9, 42, 95
5, 8160, Note_off_c, 9, 36, 95
5, 8160, Note_on_c, 9, 51, 95
5, 8160, Note_on_c, 9, 42, 95
5, 8160, Note_on_c, 9, 36, 95
5, 8400, Note_off_c, 9, 51, 95
5, 8400, Note_off_c, 9, 42, 95
5, 8400, Note_off_c, 9, 36, 95
5, 8400, Note_on_c, 9, 51, 95
5, 8400, Note_on_c, 9, 42, 95
5, 8400, Note_on_c, 9, 36, 95
5, 8640, Note_off_c, 9, 51, 95
5, 8640, Note_off_c, 9, 42, 95
5, 8640, Note_off_c, 9, 36, 95
5, 8640, Note_on_c, 9, 51, 95
5, 8640, Note_on_c, 9, 40, 95
5, 8880, Note_off_c, 9, 51, 95
5, 8880, Note_off_c, 9, 40, 95
5, 8880, Note_on_c, 9, 51, 95
5, 8880, Note_on_c, 9, 42, 95
5, 9360, Note_off_c, 9, 51, 95
5, 9360, Note_off_c, 9, 42, 95
5, 9360, Note_on_c, 9, 51, 95
5, 9360, Note_on_c, 9, 40, 95
5, 9600, Note_off_c, 9, 51, 95
5, 9600, Note_off_c, 9, 40, 95
5, 9600, Note_on_c, 9, 51, 95
5, 9600, Note_on_c, 9, 42, 95
5, 9600, Note_on_c, 9, 36, 95
5, 10080, Note_off_c, 9, 51, 95
5, 10080, Note_off_c, 9, 42, 95
5, 10080, Note_off_c, 9, 36, 95
5, 10080, Note_on_c, 9, 51, 95
5, 10080, Note_on_c, 9, 42, 95
5, 10080, Note_on_c, 9, 36, 95
5, 10560, Note_off_c, 9, 51, 95
5, 10560, Note_off_c, 9, 42, 95
5, 10560, Note_off_c, 9, 36, 95
5, 10560, Note_on_c, 9, 51, 95
5, 10560, Note_on_c, 9, 42, 95
5, 10560, Note_on_c, 9, 40, 95
5, 11040, Note_off_c, 9, 51, 95
5, 11040, Note_off_c, 9, 42, 95
5, 11040, Note_off_c, 9, 40, 95
5, 11040, Note_on_c, 9, 42, 95
5, 11280, Note_off_c, 9, 42, 95
5, 11280, Note_on_c, 9, 51, 95
5, 11280, Note_on_c, 9, 40, 95
5, 11520, Note_off_c, 9, 51, 95
5, 11520, Note_off_c, 9, 40, 95
5, 11520, Note_on_c, 9, 51, 95
5, 11520, Note_on_c, 9, 42, 95
5, 11520, Note_on_c, 9, 36, 95
5, 12000, Note_off_c, 9, 51, 95
5, 12000, Note_off_c, 9, 42, 95
5, 12000, Note_off_c, 9, 36, 95
5, 12000, Note_on_c, 9, 51, 95
5, 12000, Note_on_c, 9, 42, 95
5, 12000, Note_on_c, 9, 36, 95
5, 12240, Note_off_c, 9, 51, 95
5, 12240, Note_off_c, 9, 42, 95
5, 12240, Note_off_c, 9, 36, 95
5, 12240, Note_on_c, 9, 51, 95
5, 12240, Note_on_c, 9, 42, 95
5, 12240, Note_on_c, 9, 36, 95
5, 12480, Note_off_c, 9, 51, 95
5, 12480, Note_off_c, 9, 42, 95
5, 12480, Note_off_c, 9, 36, 95
5, 12480, Note_on_c, 9, 51, 95
5, 12480, Note_on_c, 9, 40, 95
5, 12720, Note_off_c, 9, 51, 95
5, 12720, Note_off_c, 9, 40, 95
5, 12720, Note_on_c, 9, 51, 95
5, 12720, Note_on_c, 9, 42, 95
5, 13200, Note_off_c, 9, 51, 95
5, 13200, Note_off_c, 9, 42, 95
5, 13200, Note_on_c, 9, 51, 95
5, 13200, Note_on_c, 9, 40, 95
5, 13440, Note_off_c, 9, 51, 95
5, 13440, Note_off_c, 9, 40, 95
5, 13440, Note_on_c, 9, 51, 95
5, 13440, Note_on_c, 9, 42, 95
5, 13440, Note_on_c, 9, 36, 95
5, 13920, Note_off_c, 9, 51, 95
5, 13920, Note_off_c, 9, 42, 95
5, 13920, Note_off_c, 9, 36, 95
5, 13920, Note_on_c, 9, 51, 95
5, 13920, Note_on_c, 9, 42, 95
5, 13920, Note_on_c, 9, 36, 95
5, 14400, Note_off_c, 9, 51, 95
5, 14400, Note_off_c, 9, 42, 95
5, 14400, Note_off_c, 9, 36, 95
5, 14400, Note_on_c, 9, 51, 95
5, 14400, Note_on_c, 9, 42, 95
5, 14400, Note_on_c, 9, 40, 95
5, 14880, Note_off_c, 9, 51, 95
5, 14880, Note_off_c, 9, 42, 95
5, 14880, Note_off_c, 9, 40, 95
5, 14880, Note_on_c, 9, 42, 95
5, 15120, Note_off_c, 9, 42, 95
5, 15120, Note_on_c, 9, 51, 95
5, 15120, Note_on_c, 9, 40, 95
5, 15360, Note_off_c, 9, 51, 95
5, 15360, Note_off_c, 9, 40, 95
5, 15360, Note_on_c, 9, 51, 95
5, 15360, Note_on_c, 9, 42, 95
5, 15360, Note_on_c, 9, 36, 95
5, 15840, Note_off_c, 9, 51, 95
5, 15840, Note_off_c, 9, 42, 95
5, 15840, Note_off_c, 9, 36, 95
5, 15840, Note_on_c, 9, 51, 95
5, 15840, Note_on_c, 9, 42, 95
5, 15840, Note_on_c, 9, 36, 95
5, 16080, Note_off_c, 9, 51, 95
5, 16080, Note_off_c, 9, 42, 95
5, 16080, Note_off_c, 9, 36, 95
5, 16080, Note_on_c, 9, 51, 95
5, 16080, Note_on_c, 9, 42, 95
5, 16080, Note_on_c, 9, 36, 95
5, 16320, Note_off_c, 9, 51, 95
5, 16320, Note_off_c, 9, 42, 95
5, 16320, Note_off_c, 9, 36, 95
5, 16320, Note_on_c, 9, 51, 95
5, 16320, Note_on_c, 9, 40, 95
5, 16560, Note_off_c, 9, 51, 95
5, 16560, Note_off_c, 9, 40, 95
5, 16560, Note_on_c, 9, 51, 95
5, 16560, Note_on_c, 9, 42, 95
5, 17040, Note_off_c, 9, 51, 95
5, 17040, Note_off_c, 9, 42, 95
5, 17040, Note_on_c, 9, 51, 95
5, 17040, Note_on_c, 9, 40, 95
5, 17280, Note_off_c, 9, 51, 95
5, 17280, Note_off_c, 9, 40, 95
5, 17280, Note_on_c, 9, 51, 95
5, 17280, Note_on_c, 9, 42, 95
5, 17280, Note_on_c, 9, 36, 95
5, 17760, Note_off_c, 9, 51, 95
5, 17760, Note_off_c, 9, 42, 95
5, 17760, Note_off_c, 9, 36, 95
5, 17760, Note_on_c, 9, 51, 95
5, 17760, Note_on_c, 9, 42, 95
5, 17760, Note_on_c, 9, 36, 95
5, 18240, Note_off_c, 9, 51, 95
5, 18240, Note_off_c, 9, 42, 95
5, 18240, Note_off_c, 9, 36, 95
5, 18240, Note_on_c, 9, 51, 95
5, 18240, Note_on_c, 9, 42, 95
5, 18240, Note_on_c, 9, 40, 95
5, 18720, Note_off_c, 9, 51, 95
5, 18720, Note_off_c, 9, 42, 95
5, 18720, Note_off_c, 9, 40, 95
5, 18720, Note_on_c, 9, 42, 95
5, 18960, Note_off_c, 9, 42, 95
5, 18960, Note_on_c, 9, 51, 95
5, 18960, Note_on_c, 9, 40, 95
5, 19200, Note_off_c, 9, 51, 95
5, 19200, Note_off_c, 9, 40, 95
5, 19200, Note_on_c, 9, 51, 95
5, 19200, Note_on_c, 9, 42, 95
5, 19200, Note_on_c, 9, 36, 95
5, 19680, Note_off_c, 9, 51, 95
5, 19680, Note_off_c, 9, 42, 95
5, 19680, Note_off_c, 9, 36, 95
5, 19680, Note_on_c, 9, 51, 95
5, 19680, Note_on_c, 9, 42, 95
5, 19680, Note_on_c, 9, 36, 95
5, 19920, Note_off_c, 9, 51, 95
5, 19920, Note_off_c, 9, 42, 95
5, 19920, Note_off_c, 9, 36, 95
5, 19920, Note_on_c, 9, 51, 95
5, 19920, Note_on_c, 9, 42, 95
5, 19920, Note_on_c, 9, 36, 95
5, 20160, Note_off_c, 9, 51, 95
5, 20160, Note_off_c, 9, 42, 95
5, 20160, Note_off_c, 9, 36, 95
5, 20160, Note_on_c, 9, 51, 95
5, 20160, Note_on_c, 9, 40, 95
5, 20400, Note_off_c, 9, 51, 95
5, 20400, Note_off_c, 9, 40, 95
5, 20400, Note_on_c, 9, 51, 95
5, 20400, Note_on_c, 9, 42, 95
5, 20880, Note_off_c, 9, 51, 95
5, 20880, Note_off_c, 9, 42, 95
5, 20880, Note_on_c, 9, 51, 95
5, 20880, Note_on_c, 9, 40, 95
5, 21120, Note_off_c, 9, 51, 95
5, 21120, Note_off_c, 9, 40, 95
5, 21120, Note_on_c, 9, 51, 95
5, 21120, Note_on_c, 9, 42, 95
5, 21120, Note_on_c, 9, 36, 95
5, 21600, Note_off_c, 9, 51, 95
5, 21600, Note_off_c, 9, 42, 95
5, 21600, Note_off_c, 9, 36, 95
5, 21600, Note_on_c, 9, 51, 95
5, 21600, Note_on_c, 9, 42, 95
5, 21600, Note_on_c, 9, 36, 95
5, 22080, Note_off_c, 9, 51, 95
5, 22080, Note_off_c, 9, 42, 95
5, 22080, Note_off_c, 9, 36, 95
5, 22080, Note_on_c, 9, 51, 95
5, 22080, Note_on_c, 9, 42, 95
5, 22080, Note_on_c, 9, 40, 95
5, 22560, Note_off_c, 9, 51, 95
5, 22560, Note_off_c, 9, 42, 95
5, 22560, Note_off_c, 9, 40, 95
5, 22560, Note_on_c, 9, 42, 95
5, 22800, Note_off_c, 9, 42, 95
5, 22800, Note_on_c, 9, 51, 95
5, 22800, Note_on_c, 9, 40, 95
5, 23040, Note_off_c, 9, 51, 95
5, 23040, Note_off_c, 9, 40, 95
5, 23040, Note_on_c, 9, 51, 95
5, 23040, Note_on_c, 9, 42, 95
5, 23040, Note_on_c, 9, 36, 95
5, 23520, Note_off_c, 9, 51, 95
5, 23520, Note_off_c, 9, 42, 95
5, 23520, Note_off_c, 9, 36, 95
5, 23520, Note_on_c, 9, 51, 95
5, 23520, Note_on_c, 9, 42, 95
5, 23520, Note_on_c, 9, 36, 95
5, 23760, Note_off_c, 9, 51, 95
5, 23760, Note_off_c, 9, 42, 95
5, 23760, Note_off_c, 9, 36, 95
5, 23760, Note_on_c, 9, 51, 95
5, 23760, Note_on_c, 9, 42, 95
5, 23760, Note_on_c, 9, 36, 95
5, 24000, Note_off_c, 9, 51, 95
5, 24000, Note_off_c, 9, 42, 95
5, 24000, Note_off_c, 9, 36, 95
5, 24000, Note_on_c, 9, 51, 95
5, 24000, Note_on_c, 9, 40, 95
5, 24240, Note_off_c, 9, 51, 95
5, 24240, Note_off_c, 9, 40, 95
5, 24240, Note_on_c, 9, 51, 95
5, 24240, Note_on_c, 9, 42, 95
5, 24720, Note_off_c, 9, 51, 95
5, 24720, Note_off_c, 9, 42, 95
5, 24720, Note_on_c, 9, 51, 95
5, 24720, Note_on_c, 9, 40, 95
5, 24960, Note_off_c, 9, 51, 95
5, 24960, Note_off_c, 9, 40, 95
5, 24960, Note_on_c, 9, 51, 95
5, 24960, Note_on_c, 9, 42, 95
5, 24960, Note_on_c, 9, 36, 95
5, 25440, Note_off_c, 9, 51, 95
5, 25440, Note_off_c, 9, 42, 95
5, 25440, Note_off_c, 9, 36, 95
5, 25440, Note_on_c, 9, 51, 95
5, 25440, Note_on_c, 9, 42, 95
5, 25440, Note_on_c, 9, 36, 95
5, 25920, Note_off_c, 9, 51, 95
5, 25920, Note_off_c, 9, 42, 95
5, 25920, Note_off_c, 9, 36, 95
5, 25920, Note_on_c, 9, 51, 95
5, 25920, Note_on_c, 9, 42, 95
5, 25920, Note_on_c, 9, 40, 95
5, 26400, Note_off_c, 9, 51, 95
5, 26400, Note_off_c, 9, 42, 95
5, 26400, Note_off_c, 9, 40, 95
5, 26400, Note_on_c, 9, 42, 95
5, 26640, Note_off_c, 9, 42, 95
5, 26640, Note_on_c, 9, 51, 95
5, 26640, Note_on_c, 9, 40, 95
5, 26880, Note_off_c, 9, 51, 95
5, 26880, Note_off_c, 9, 40, 95
5, 26880, Note_on_c, 9, 51, 95
5, 26880, Note_on_c, 9, 42, 95
5, 26880, Note_on_c, 9, 36, 95
5, 27360, Note_off_c, 9, 51, 95
5, 27360, Note_off_c, 9, 42, 95
5, 27360, Note_off_c, 9, 36, 95
5, 27360, Note_on_c, 9, 51, 95
5, 27360, Note_on_c, 9, 42, 95
5, 27360, Note_on_c, 9, 36, 95
5, 27600, Note_off_c, 9, 51, 95
5, 27600, Note_off_c, 9, 42, 95
5, 27600, Note_off_c, 9, 36, 95
5, 27600, Note_on_c, 9, 51, 95
5, 27600, Note_on_c, 9, 42, 95
5, 27600, Note_on_c, 9, 36, 95
5, 27840, Note_off_c, 9, 51, 95
5, 27840, Note_off_c, 9, 42, 95
5, 27840, Note_off_c, 9, 36, 95
5, 27840, Note_on_c, 9, 51, 95
5, 27840, Note_on_c, 9, 40, 95
5, 28080, Note_off_c, 9, 51, 95
5, 28080, Note_off_c, 9, 40, 95
5, 28080, Note_on_c, 9, 51, 95
5, 28080, Note_on_c, 9, 42, 95
5, 28560, Note_off_c, 9, 51, 95
5, 28560, Note_off_c, 9, 42, 95
5, 28560, Note_on_c, 9, 51, 95
5, 28560, Note_on_c, 9, 40, 95
5, 28800, Note_off_c, 9, 51, 95
5, 28800, Note_off_c, 9, 40, 95
5, 28800, Note_on_c, 9, 51, 95
5, 28800, Note_on_c, 9, 42, 95
5, 28800, Note_on_c, 9, 36, 95
5, 29280, Note_off_c, 9, 51, 95
5, 29280, Note_off_c, 9, 42, 95
5, 29280, Note_off_c, 9, 36, 95
5, 29280, Note_on_c, 9, 51, 95
5, 29280, Note_on_c, 9, 42, 95
5, 29280, Note_on_c, 9, 36, 95
5, 29760, Note_off_c, 9, 51, 95
5, 29760, Note_off_c, 9, 42, 95
5, 29760, Note_off_c, 9, 36, 95
5, 29760, Note_on_c, 9, 51, 95
5, 29760, Note_on_c, 9, 42, 95
5, 29760, Note_on_c, 9, 40, 95
5, 30240, Note_off_c, 9, 51, 95
5, 30240, Note_off_c, 9, 42, 95
5, 30240, Note_off_c, 9, 40, 95
5, 30240, Note_on_c, 9, 42, 95
5, 30480, Note_off_c, 9, 42, 95
5, 30480, Note_on_c, 9, 51, 95
5, 30480, Note_on_c, 9, 40, 95
5, 30720, Note_off_c, 9, 51, 95
5, 30720, Note_off_c, 9, 40, 95
5, 30720, Note_on_c, 9, 51, 95
5, 30720, Note_on_c, 9, 42, 95
5, 30720, Note_on_c, 9, 36, 95
5, 31200, Note_off_c, 9, 51, 95
5, 31200, Note_off_c, 9, 42, 95
5, 31200, Note_off_c, 9, 36, 95
5, 31200, Note_on_c, 9, 51, 95
5, 31200, Note_on_c, 9, 42, 95
5, 31200, Note_on_c, 9, 36, 95
5, 31440, Note_off_c, 9, 51, 95
5, 31440, Note_off_c, 9, 42, 95
5, 31440, Note_off_c, 9, 36, 95
5, 31440, Note_on_c, 9, 51, 95
5, 31440, Note_on_c, 9, 42, 95
5, 31440, Note_on_c, 9, 36, 95
5, 31680, Note_off_c, 9, 51, 95
5, 31680, Note_off_c, 9, 42, 95
5, 31680, Note_off_c, 9, 36, 95
5, 31680, Note_on_c, 9, 51, 95
5, 31680, Note_on_c, 9, 40, 95
5, 31920, Note_off_c, 9, 51, 95
5, 31920, Note_off_c, 9, 40, 95
5, 31920, Note_on_c, 9, 51, 95
5, 31920, Note_on_c, 9, 42, 95
5, 32400, Note_off_c, 9, 51, 95
5, 32400, Note_off_c, 9, 42, 95
5, 32400, Note_on_c, 9, 51, 95
5, 32400, Note_on_c, 9, 40, 95
5, 32640, Note_off_c, 9, 51, 95
5, 32640, Note_off_c, 9, 40, 95
5, 32640, Note_on_c, 9, 51, 95
5, 32640, Note_on_c, 9, 42, 95
5, 32640, Note_on_c, 9, 36, 95
5, 33120, Note_off_c, 9, 51, 95
5, 33120, Note_off_c, 9, 42, 95
5, 33120, Note_off_c, 9, 36, 95
5, 33120, Note_on_c, 9, 51, 95
5, 33120, Note_on_c, 9, 42, 95
5, 33120, Note_on_c, 9, 36, 95
5, 33600, Note_off_c, 9, 51, 95
5, 33600, Note_off_c, 9, 42, 95
5, 33600, Note_off_c, 9, 36, 95
5, 33600, Note_on_c, 9, 51, 95
5, 33600, Note_on_c, 9, 42, 95
5, 33600, Note_on_c, 9, 40, 95
5, 34080, Note_off_c, 9, 51, 95
5, 34080, Note_off_c, 9, 42, 95
5, 34080, Note_off_c, 9, 40, 95
5, 34080, Note_on_c, 9, 42, 95
5, 34320, Note_off_c, 9, 42, 95
5, 34320, Note_on_c, 9, 51, 95
5, 34320, Note_on_c, 9, 40, 95
5, 34560, Note_off_c, 9, 51, 95
5, 34560, Note_off_c, 9, 40, 95
5, 34560, Note_on_c, 9, 51, 95
5, 34560, Note_on_c, 9, 42, 95
5, 34560, Note_on_c, 9, 36, 95
5, 35040, Note_off_c, 9, 51, 95
5, 35040, Note_off_c, 9, 42, 95
5, 35040, Note_off_c, 9, 36, 95
5, 35040, Note_on_c, 9, 51, 95
5, 35040, Note_on_c, 9, 42, 95
5, 35040, Note_on_c, 9, 36, 95
5, 35280, Note_off_c, 9, 51, 95
5, 35280, Note_off_c, 9, 42, 95
5, 35280, Note_off_c, 9, 36, 95
5, 35280, Note_on_c, 9, 51, 95
5, 35280, Note_on_c, 9, 42, 95
5, 35280, Note_on_c, 9, 36, 95
5, 35520, Note_off_c, 9, 51, 95
5, 35520, Note_off_c, 9, 42, 95
5, 35520, Note_off_c, 9, 36, 95
5, 35520, Note_on_c, 9, 51, 95
5, 35520, Note_on_c, 9, 40, 95
5, 35760, Note_off_c, 9, 51, 95
5, 35760, Note_off_c, 9, 40, 95
5, 35760, Note_on_c, 9, 51, 95
5, 35760, Note_on_c, 9, 42, 95
5, 36240, Note_off_c, 9, 51, 95
5, 36240, Note_off_c, 9, 42, 95
5, 36240, Note_on_c, 9, 51, 95
5, 36240, Note_on_c, 9, 40, 95
5, 36480, Note_off_c, 9, 51, 95
5, 36480, Note_off_c, 9, 40, 95
5, 36480, Note_on_c, 9, 51, 95
5, 36480, Note_on_c, 9, 42, 95
5, 36480, Note_on_c, 9, 36, 95
5, 36960, Note_off_c, 9, 51, 95
5, 36960, Note_off_c, 9, 42, 95
5, 36960, Note_off_c, 9, 36, 95
5, 36960, Note_on_c, 9, 51, 95
5, 36960, Note_on_c, 9, 42, 95
5, 36960, Note_on_c, 9, 36, 95
5, 37440, Note_off_c, 9, 51, 95
5, 37440, Note_off_c, 9, 42, 95
5, 37440, Note_off_c, 9, 36, 95
5, 37440, Note_on_c, 9, 51, 95
5, 37440, Note_on_c, 9, 42, 95
5, 37440, Note_on_c, 9, 40, 95
5, 37920, Note_off_c, 9, 51, 95
5, 37920, Note_off_c, 9, 42, 95
5, 37920, Note_off_c, 9, 40, 95
5, 37920, Note_on_c, 9, 42, 95
5, 38160, Note_off_c, 9, 42, 95
5, 38160, Note_on_c, 9, 51, 95
5, 38160, Note_on_c, 9, 40, 95
5, 38400, Note_off_c, 9, 51, 95
5, 38400, Note_off_c, 9, 40, 95
5, 38400, Note_on_c, 9, 51, 95
5, 38400, Note_on_c, 9, 42, 95
5, 38400, Note_on_c, 9, 36, 95
5, 38880, Note_off_c, 9, 51, 95
5, 38880, Note_off_c, 9, 42, 95
5, 38880, Note_off_c, 9, 36, 95
5, 38880, Note_on_c, 9, 51, 95
5, 38880, Note_on_c, 9, 42, 95
5, 38880, Note_on_c, 9, 36, 95
5, 39120, Note_off_c, 9, 51, 95
5, 39120, Note_off_c, 9, 42, 95
5, 39120, Note_off_c, 9, 36, 95
5, 39120, Note_on_c, 9, 51, 95
5, 39120, Note_on_c, 9, 42, 95
5, 39120, Note_on_c, 9, 36, 95
5, 39360, Note_off_c, 9, 51, 95
5, 39360, Note_off_c, 9, 42, 95
5, 39360, Note_off_c, 9, 36, 95
5, 39360, Note_on_c, 9, 51, 95
5, 39360, Note_on_c, 9, 40, 95
5, 39600, Note_off_c, 9, 51, 95
5, 39600, Note_off_c, 9, 40, 95
5, 39600, Note_on_c, 9, 51, 95
5, 39600, Note_on_c, 9, 42, 95
5, 40080, Note_off_c, 9, 51, 95
5, 40080, Note_off_c, 9, 42, 95
5, 40080, Note_on_c, 9, 51, 95
5, 40080, Note_on_c, 9, 40, 95
5, 40320, Note_off_c, 9, 51, 95
5, 40320, Note_off_c, 9, 40, 95
5, 40320, Note_on_c, 9, 51, 95
5, 40320, Note_on_c, 9, 42, 95
5, 40320, Note_on_c, 9, 36, 95
5, 40800, Note_off_c, 9, 51, 95
5, 40800, Note_off_c, 9, 42, 95
5, 40800, Note_off_c, 9, 36, 95
5, 40800, Note_on_c, 9, 51, 95
5, 40800, Note_on_c, 9, 42, 95
5, 40800, Note_on_c, 9, 36, 95
5, 41280, Note_off_c, 9, 51, 95
5, 41280, Note_off_c, 9, 42, 95
5, 41280, Note_off_c, 9, 36, 95
5, 41280, Note_on_c, 9, 51, 95
5, 41280, Note_on_c, 9, 42, 95
5, 41280, Note_on_c, 9, 40, 95
5, 41760, Note_off_c, 9, 51, 95
5, 41760, Note_off_c, 9, 42, 95
5, 41760, Note_off_c, 9, 40, 95
5, 41760, Note_on_c, 9, 42, 95
5, 42000, Note_off_c, 9, 42, 95
5, 42000, Note_on_c, 9, 51, 95
5, 42000, Note_on_c, 9, 40, 95
5, 42240, Note_off_c, 9, 51, 95
5, 42240, Note_off_c, 9, 40, 95
5, 42240, Note_on_c, 9, 51, 95
5, 42240, Note_on_c, 9, 42, 95
5, 42240, Note_on_c, 9, 36, 95
5, 42720, Note_off_c, 9, 51, 95
5, 42720, Note_off_c, 9, 42, 95
5, 42720, Note_off_c, 9, 36, 95
5, 42720, Note_on_c, 9, 51, 95
5, 42720, Note_on_c, 9, 42, 95
5, 42720, Note_on_c, 9, 36, 95
5, 42960, Note_off_c, 9, 51, 95
5, 42960, Note_off_c, 9, 42, 95
5, 42960, Note_off_c, 9, 36, 95
5, 42960, Note_on_c, 9, 51, 95
5, 42960, Note_on_c, 9, 42, 95
5, 42960, Note_on_c, 9, 36, 95
5, 43200, Note_off_c, 9, 51, 95
5, 43200, Note_off_c, 9, 42, 95
5, 43200, Note_off_c, 9, 36, 95
5, 43200, Note_on_c, 9, 51, 95
5, 43200, Note_on_c, 9, 40, 95
5, 43440, Note_off_c, 9, 51, 95
5, 43440, Note_off_c, 9, 40, 95
5, 43440, Note_on_c, 9, 51, 95
5, 43440, Note_on_c, 9, 42, 95
5, 43920, Note_off_c, 9, 51, 95
5, 43920, Note_off_c, 9, 42, 95
5, 43920, Note_on_c, 9, 51, 95
5, 43920, Note_on_c, 9, 40, 95
5, 44160, Note_off_c, 9, 51, 95
5, 44160, Note_off_c, 9, 40, 95
5, 44160, Note_on_c, 9, 51, 95
5, 44160, Note_on_c, 9, 42, 95
5, 44160, Note_on_c, 9, 36, 95
5, 44640, Note_off_c, 9, 51, 95
5, 44640, Note_off_c, 9, 42, 95
5, 44640, Note_off_c, 9, 36, 95
5, 44640, Note_on_c, 9, 51, 95
5, 44640, Note_on_c, 9, 42, 95
5, 44640, Note_on_c, 9, 36, 95
5, 45120, Note_off_c, 9, 51, 95
5, 45120, Note_off_c, 9, 42, 95
5, 45120, Note_off_c, 9, 36, 95
5, 45120, Note_on_c, 9, 51, 95
5, 45120, Note_on_c, 9, 42, 95
5, 45120, Note_on_c, 9, 40, 95
5, 45600, Note_off_c, 9, 51, 95
5, 45600, Note_off_c, 9, 42, 95
5, 45600, Note_off_c, 9, 40, 95
5, 45600, Note_on_c, 9, 42, 95
5, 45840, Note_off_c, 9, 42, 95
5, 45840, Note_on_c, 9, 51, 95
5, 45840, Note_on_c, 9, 40, 95
5, 46080, Note_off_c, 9, 51, 95
5, 46080, Note_off_c, 9, 40, 95
5, 46080, Note_on_c, 9, 51, 95
5, 46080, Note_on_c, 9, 42, 95
5, 46080, Note_on_c, 9, 36, 95
5, 46560, Note_off_c, 9, 51, 95
5, 46560, Note_off_c, 9, 42, 95
5, 46560, Note_off_c, 9, 36, 95
5, 46560, Note_on_c, 9, 51, 95
5, 46560, Note_on_c, 9, 42, 95
5, 46560, Note_on_c, 9, 36, 95
5, 46800, Note_off_c, 9, 51, 95
5, 46800, Note_off_c, 9, 42, 95
5, 46800, Note_off_c, 9, 36, 95
5, 46800, Note_on_c, 9, 51, 95
5, 46800, Note_on_c, 9, 42, 95
5, 46800, Note_on_c, 9, 36, 95
5, 47040, Note_off_c, 9, 51, 95
5, 47040, Note_off_c, 9, 42, 95
5, 47040, Note_off_c, 9, 36, 95
5, 47040, Note_on_c, 9, 51, 95
5, 47040, Note_on_c, 9, 40, 95
5, 47280, Note_off_c, 9, 51, 95
5, 47280, Note_off_c, 9, 40, 95
5, 47280, Note_on_c, 9, 51, 95
5, 47280, Note_on_c, 9, 42, 95
5, 47760, Note_off_c, 9, 51, 95
5, 47760, Note_off_c, 9, 42, 95
5, 47760, Note_on_c, 9, 51, 95
5, 47760, Note_on_c, 9, 40, 95
5, 48000, Note_off_c, 9, 51, 95
5, 48000, Note_off_c, 9, 40, 95
5, 48000, Note_on_c, 9, 51, 95
5, 48000, Note_on_c, 9, 42, 95
5, 48000, Note_on_c, 9, 36, 95
5, 48480, Note_off_c, 9, 51, 95
5, 48480, Note_off_c, 9, 42, 95
5, 48480, Note_off_c, 9, 36, 95
5, 48480, Note_on_c, 9, 42, 95
5, 48480, Note_on_c, 9, 40, 95
5, 48480, Note_on_c, 9, 36, 95
5, 48960, Note_off_c, 9, 42, 95
5, 48960, Note_off_c, 9, 40, 95
5, 48960, Note_off_c, 9, 36, 95
5, 48960, Note_on_c, 9, 40, 95
5, 49080, Note_off_c, 9, 40, 95
5, 49080, Note_on_c, 9, 40, 95
5, 49200, Note_off_c, 9, 40, 95
5, 49200, Note_on_c, 9, 40, 95
5, 49320, Note_off_c, 9, 40, 95
5, 49320, Note_on_c, 9, 40, 95
5, 49440, Note_off_c, 9, 40, 95
5, 49440, Note_on_c, 9, 40, 95
5, 49680, Note_off_c, 9, 40, 95
5, 49920, Note_on_c, 9, 51, 95
5, 49920, Note_on_c, 9, 42, 95
5, 49920, Note_on_c, 9, 40, 95
5, 50400, Note_off_c, 9, 51, 95
5, 50400, Note_off_c, 9, 42, 95
5, 50400, Note_off_c, 9, 40, 95
5, 50400, Note_on_c, 9, 42, 95
5, 50880, Note_off_c, 9, 42, 95
5, 50880, Note_on_c, 9, 51, 95
5, 50880, Note_on_c, 9, 42, 95
5, 50880, Note_on_c, 9, 40, 95
5, 51360, Note_off_c, 9, 51, 95
5, 51360, Note_off_c, 9, 42, 95
5, 51360, Note_off_c, 9, 40, 95
5, 51360, Note_on_c, 9, 42, 95
5, 51840, Note_off_c, 9, 42, 95
5, 51840, Note_on_c, 9, 51, 95
5, 51840, Note_on_c, 9, 42, 95
5, 51840, Note_on_c, 9, 40, 95
5, 52320, Note_off_c, 9, 51, 95
5, 52320, Note_off_c, 9, 42, 95
5, 52320, Note_off_c, 9, 40, 95
5, 52320, Note_on_c, 9, 42, 95
5, 52800, Note_off_c, 9, 42, 95
5, 52800, Note_on_c, 9, 51, 95
5, 52800, Note_on_c, 9, 42, 95
5, 52800, Note_on_c, 9, 40, 95
5, 53280, Note_off_c, 9, 51, 95
5, 53280, Note_off_c, 9, 42, 95
5, 53280, Note_off_c, 9, 40, 95
5, 53280, Note_on_c, 9, 42, 95
5, 53760, Note_off_c, 9, 42, 95
5, 53760, Note_on_c, 9, 51, 95
5, 53760, Note_on_c, 9, 42, 95
5, 53760, Note_on_c, 9, 40, 95
5, 54240, Note_off_c, 9, 51, 95
5, 54240, Note_off_c, 9, 42, 95
5, 54240, Note_off_c, 9, 40, 95
5, 54240, Note_on_c, 9, 42, 95
5, 54720, Note_off_c, 9, 42, 95
5, 54720, Note_on_c, 9, 51, 95
5, 54720, Note_on_c, 9, 42, 95
5, 54720, Note_on_c, 9, 40, 95
5, 55200, Note_off_c, 9, 51, 95
5, 55200, Note_off_c, 9, 42, 95
5, 55200, Note_off_c, 9, 40, 95
5, 55200, Note_on_c, 9, 42, 95
5, 55680, Note_off_c, 9, 42, 95
5, 55680, Note_on_c, 9, 51, 95
5, 55680, Note_on_c, 9, 42, 95
5, 55680, Note_on_c, 9, 40, 95
5, 56160, Note_off_c, 9, 51, 95
5, 56160, Note_off_c, 9, 42, 95
5, 56160, Note_off_c, 9, 40, 95
5, 56160, Note_on_c, 9, 42, 95
5, 56640, Note_off_c, 9, 42, 95
5, 56640, Note_on_c, 9, 51, 95
5, 56640, Note_on_c, 9, 42, 95
5, 56640, Note_on_c, 9, 40, 95
5, 57120, Note_off_c, 9, 51, 95
5, 57120, Note_off_c, 9, 42, 95
5, 57120, Note_off_c, 9, 40, 95
5, 57120, Note_on_c, 9, 42, 95
5, 57360, Note_off_c, 9, 42, 95
5, 57360, Note_on_c, 9, 40, 95
5, 57600, Note_off_c, 9, 40, 95
5, 57600, Note_on_c, 9, 51, 95
5, 57600, Note_on_c, 9, 42, 95
5, 57600, Note_on_c, 9, 36, 95
5, 58080, Note_off_c, 9, 51, 95
5, 58080, Note_off_c, 9, 42, 95
5, 58080, Note_off_c, 9, 36, 95
5, 58080, Note_on_c, 9, 51, 95
5, 58080, Note_on_c, 9, 42, 95
5, 58080, Note_on_c, 9, 36, 95
5, 58320, Note_off_c, 9, 51, 95
5, 58320, Note_off_c, 9, 42, 95
5, 58320, Note_off_c, 9, 36, 95
5, 58320, Note_on_c, 9, 51, 95
5, 58320, Note_on_c, 9, 42, 95
5, 58320, Note_on_c, 9, 36, 95
5, 58560, Note_off_c, 9, 51, 95
5, 58560, Note_off_c, 9, 42, 95
5, 58560, Note_off_c, 9, 36, 95
5, 58560, Note_on_c, 9, 51, 95
5, 58560, Note_on_c, 9, 40, 95
5, 58800, Note_off_c, 9, 51, 95
5, 58800, Note_off_c, 9, 40, 95
5, 58800, Note_on_c, 9, 51, 95
5, 58800, Note_on_c, 9, 42, 95
5, 58800, Note_on_c, 9, 36, 95
5, 59280, Note_off_c, 9, 51, 95
5, 59280, Note_off_c, 9, 42, 95
5, 59280, Note_off_c, 9, 36, 95
5, 59280, Note_on_c, 9, 51, 95
5, 59280, Note_on_c, 9, 40, 95
5, 59520, Note_off_c, 9, 51, 95
5, 59520, Note_off_c, 9, 40, 95
5, 59520, Note_on_c, 9, 51, 95
5, 59520, Note_on_c, 9, 42, 95
5, 59520, Note_on_c, 9, 36, 95
5, 60000, Note_off_c, 9, 51, 95
5, 60000, Note_off_c, 9, 42, 95
5, 60000, Note_off_c, 9, 36, 95
5, 60000, Note_on_c, 9, 51, 95
5, 60000, Note_on_c, 9, 46, 95
5, 60480, Note_off_c, 9, 51, 95
5, 60480, Note_off_c, 9, 46, 95
5, 60480, Note_on_c, 9, 51, 95
5, 60480, Note_on_c, 9, 42, 95
5, 60480, Note_on_c, 9, 40, 95
5, 60960, Note_off_c, 9, 51, 95
5, 60960, Note_off_c, 9, 42, 95
5, 60960, Note_off_c, 9, 40, 95
5, 60960, Note_on_c, 9, 42, 95
5, 61200, Note_off_c, 9, 42, 95
5, 61200, Note_on_c, 9, 51, 95
5, 61200, Note_on_c, 9, 40, 95
5, 61440, Note_off_c, 9, 51, 95
5, 61440, Note_off_c, 9, 40, 95
5, 61440, Note_on_c, 9, 51, 95
5, 61440, Note_on_c, 9, 42, 95
5, 61440, Note_on_c, 9, 36, 95
5, 61920, Note_off_c, 9, 51, 95
5, 61920, Note_off_c, 9, 42, 95
5, 61920, Note_off_c, 9, 36, 95
5, 61920, Note_on_c, 9, 51, 95
5, 61920, Note_on_c, 9, 42, 95
5, 61920, Note_on_c, 9, 36, 95
5, 62160, Note_off_c, 9, 51, 95
5, 62160, Note_off_c, 9, 42, 95
5, 62160, Note_off_c, 9, 36, 95
5, 62160, Note_on_c, 9, 51, 95
5, 62160, Note_on_c, 9, 42, 95
5, 62160, Note_on_c, 9, 36, 95
5, 62400, Note_off_c, 9, 51, 95
5, 62400, Note_off_c, 9, 42, 95
5, 62400, Note_off_c, 9, 36, 95
5, 62400, Note_on_c, 9, 51, 95
5, 62400, Note_on_c, 9, 40, 95
5, 62640, Note_off_c, 9, 51, 95
5, 62640, Note_off_c, 9, 40, 95
5, 62640, Note_on_c, 9, 51, 95
5, 62640, Note_on_c, 9, 42, 95
5, 62640, Note_on_c, 9, 36, 95
5, 63120, Note_off_c, 9, 51, 95
5, 63120, Note_off_c, 9, 42, 95
5, 63120, Note_off_c, 9, 36, 95
5, 63120, Note_on_c, 9, 51, 95
5, 63120, Note_on_c, 9, 40, 95
5, 63360, Note_off_c, 9, 51, 95
5, 63360, Note_off_c, 9, 40, 95
5, 63360, Note_on_c, 9, 51, 95
5, 63360, Note_on_c, 9, 42, 95
5, 63360, Note_on_c, 9, 36, 95
5, 63840, Note_off_c, 9, 51, 95
5, 63840, Note_off_c, 9, 42, 95
5, 63840, Note_off_c, 9, 36, 95
5, 63840, Note_on_c, 9, 51, 95
5, 63840, Note_on_c, 9, 46, 95
5, 64320, Note_off_c, 9, 51, 95
5, 64320, Note_off_c, 9, 46, 95
5, 64320, Note_on_c, 9, 51, 95
5, 64320, Note_on_c, 9, 42, 95
5, 64320, Note_on_c, 9, 40, 95
5, 64800, Note_off_c, 9, 51, 95
5, 64800, Note_off_c, 9, 42, 95
5, 64800, Note_off_c, 9, 40, 95
5, 64800, Note_on_c, 9, 42, 95
5, 65040, Note_off_c, 9, 42, 95
5, 65040, Note_on_c, 9, 51, 95
5, 65040, Note_on_c, 9, 40, 95
5, 65280, Note_off_c, 9, 51, 95
5, 65280, Note_off_c, 9, 40, 95
5, 65280, Note_on_c, 9, 51, 95
5, 65280, Note_on_c, 9, 42, 95
5, 65280, Note_on_c, 9, 36, 95
5, 65760, Note_off_c, 9, 51, 95
5, 65760, Note_off_c, 9, 42, 95
5, 65760, Note_off_c, 9, 36, 95
5, 65760, Note_on_c, 9, 51, 95
5, 65760, Note_on_c, 9, 42, 95
5, 65760, Note_on_c, 9, 36, 95
5, 66000, Note_off_c, 9, 51, 95
5, 66000, Note_off_c, 9, 42, 95
5, 66000, Note_off_c, 9, 36, 95
5, 66000, Note_on_c, 9, 51, 95
5, 66000, Note_on_c, 9, 42, 95
5, 66000, Note_on_c, 9, 36, 95
5, 66240, Note_off_c, 9, 51, 95
5, 66240, Note_off_c, 9, 42, 95
5, 66240, Note_off_c, 9, 36, 95
5, 66240, Note_on_c, 9, 51, 95
5, 66240, Note_on_c, 9, 40, 95
5, 66480, Note_off_c, 9, 51, 95
5, 66480, Note_off_c, 9, 40, 95
5, 66480, Note_on_c, 9, 51, 95
5, 66480, Note_on_c, 9, 42, 95
5, 66480, Note_on_c, 9, 36, 95
5, 66960, Note_off_c, 9, 51, 95
5, 66960, Note_off_c, 9, 42, 95
5, 66960, Note_off_c, 9, 36, 95
5, 66960, Note_on_c, 9, 51, 95
5, 66960, Note_on_c, 9, 40, 95
5, 67200, Note_off_c, 9, 51, 95
5, 67200, Note_off_c, 9, 40, 95
5, 67200, Note_on_c, 9, 51, 95
5, 67200, Note_on_c, 9, 42, 95
5, 67200, Note_on_c, 9, 36, 95
5, 67680, Note_off_c, 9, 51, 95
5, 67680, Note_off_c, 9, 42, 95
5, 67680, Note_off_c, 9, 36, 95
5, 67680, Note_on_c, 9, 51, 95
5, 67680, Note_on_c, 9, 46, 95
5, 68160, Note_off_c, 9, 51, 95
5, 68160, Note_off_c, 9, 46, 95
5, 68160, Note_on_c, 9, 51, 95
5, 68160, Note_on_c, 9, 42, 95
5, 68160, Note_on_c, 9, 40, 95
5, 68640, Note_off_c, 9, 51, 95
5, 68640, Note_off_c, 9, 42, 95
5, 68640, Note_off_c, 9, 40, 95
5, 68640, Note_on_c, 9, 42, 95
5, 68880, Note_off_c, 9, 42, 95
5, 68880, Note_on_c, 9, 51, 95
5, 68880, Note_on_c, 9, 40, 95
5, 69120, Note_off_c, 9, 51, 95
5, 69120, Note_off_c, 9, 40, 95
5, 69120, Note_on_c, 9, 51, 95
5, 69120, Note_on_c, 9, 42, 95
5, 69120, Note_on_c, 9, 36, 95
5, 69600, Note_off_c, 9, 51, 95
5, 69600, Note_off_c, 9, 42, 95
5, 69600, Note_off_c, 9, 36, 95
5, 69600, Note_on_c, 9, 51, 95
5, 69600, Note_on_c, 9, 42, 95
5, 69600, Note_on_c, 9, 36, 95
5, 69840, Note_off_c, 9, 51, 95
5, 69840, Note_off_c, 9, 42, 95
5, 69840, Note_off_c, 9, 36, 95
5, 69840, Note_on_c, 9, 51, 95
5, 69840, Note_on_c, 9, 42, 95
5, 69840, Note_on_c, 9, 36, 95
5, 70080, Note_off_c, 9, 51, 95
5, 70080, Note_off_c, 9, 42, 95
5, 70080, Note_off_c, 9, 36, 95
5, 70080, Note_on_c, 9, 51, 95
5, 70080, Note_on_c, 9, 40, 95
5, 70320, Note_off_c, 9, 51, 95
5, 70320, Note_off_c, 9, 40, 95
5, 70320, Note_on_c, 9, 51, 95
5, 70320, Note_on_c, 9, 42, 95
5, 70320, Note_on_c, 9, 36, 95
5, 70800, Note_off_c, 9, 51, 95
5, 70800, Note_off_c, 9, 42, 95
5, 70800, Note_off_c, 9, 36, 95
5, 70800, Note_on_c, 9, 51, 95
5, 70800, Note_on_c, 9, 40, 95
5, 71040, Note_off_c, 9, 51, 95
5, 71040, Note_off_c, 9, 40, 95
5, 71040, Note_on_c, 9, 51, 95
5, 71040, Note_on_c, 9, 42, 95
5, 71040, Note_on_c, 9, 36, 95
5, 71520, Note_off_c, 9, 51, 95
5, 71520, Note_off_c, 9, 42, 95
5, 71520, Note_off_c, 9, 36, 95
5, 71520, Note_on_c, 9, 51, 95
5, 71520, Note_on_c, 9, 46, 95
5, 71520, Note_on_c, 9, 36, 95
5, 72000, Note_off_c, 9, 51, 95
5, 72000, Note_off_c, 9, 46, 95
5, 72000, Note_off_c, 9, 36, 95
5, 72000, Note_on_c, 9, 51, 95
5, 72000, Note_on_c, 9, 42, 95
5, 72000, Note_on_c, 9, 40, 95
5, 72480, Note_off_c, 9, 51, 95
5, 72480, Note_off_c, 9, 42, 95
5, 72480, Note_off_c, 9, 40, 95
5, 72480, Note_on_c, 9, 42, 95
5, 72720, Note_off_c, 9, 42, 95
5, 72720, Note_on_c, 9, 51, 95
5, 72720, Note_on_c, 9, 40, 95
5, 72960, Note_off_c, 9, 51, 95
5, 72960, Note_off_c, 9, 40, 95
5, 72960, Note_on_c, 9, 51, 95
5, 72960, Note_on_c, 9, 42, 95
5, 72960, Note_on_c, 9, 36, 95
5, 73440, Note_off_c, 9, 51, 95
5, 73440, Note_off_c, 9, 42, 95
5, 73440, Note_off_c, 9, 36, 95
5, 73440, Note_on_c, 9, 51, 95
5, 73440, Note_on_c, 9, 42, 95
5, 73440, Note_on_c, 9, 36, 95
5, 73680, Note_off_c, 9, 51, 95
5, 73680, Note_off_c, 9, 42, 95
5, 73680, Note_off_c, 9, 36, 95
5, 73680, Note_on_c, 9, 51, 95
5, 73680, Note_on_c, 9, 42, 95
5, 73680, Note_on_c, 9, 36, 95
5, 73920, Note_off_c, 9, 51, 95
5, 73920, Note_off_c, 9, 42, 95
5, 73920, Note_off_c, 9, 36, 95
5, 73920, Note_on_c, 9, 51, 95
5, 73920, Note_on_c, 9, 40, 95
5, 74160, Note_off_c, 9, 51, 95
5, 74160, Note_off_c, 9, 40, 95
5, 74160, Note_on_c, 9, 51, 95
5, 74160, Note_on_c, 9, 42, 95
5, 74160, Note_on_c, 9, 36, 95
5, 74640, Note_off_c, 9, 51, 95
5, 74640, Note_off_c, 9, 42, 95
5, 74640, Note_off_c, 9, 36, 95
5, 74640, Note_on_c, 9, 51, 95
5, 74640, Note_on_c, 9, 40, 95
5, 74880, Note_off_c, 9, 51, 95
5, 74880, Note_off_c, 9, 40, 95
5, 74880, Note_on_c, 9, 51, 95
5, 74880, Note_on_c, 9, 42, 95
5, 74880, Note_on_c, 9, 36, 95
5, 75360, Note_off_c, 9, 51, 95
5, 75360, Note_off_c, 9, 42, 95
5, 75360, Note_off_c, 9, 36, 95
5, 75360, Note_on_c, 9, 51, 95
5, 75360, Note_on_c, 9, 46, 95
5, 75840, Note_off_c, 9, 51, 95
5, 75840, Note_off_c, 9, 46, 95
5, 75840, Note_on_c, 9, 51, 95
5, 75840, Note_on_c, 9, 42, 95
5, 75840, Note_on_c, 9, 40, 95
5, 76320, Note_off_c, 9, 51, 95
5, 76320, Note_off_c, 9, 42, 95
5, 76320, Note_off_c, 9, 40, 95
5, 76320, Note_on_c, 9, 42, 95
5, 76560, Note_off_c, 9, 42, 95
5, 76560, Note_on_c, 9, 51, 95
5, 76560, Note_on_c, 9, 40, 95
5, 76800, Note_off_c, 9, 51, 95
5, 76800, Note_off_c, 9, 40, 95
5, 76800, Note_on_c, 9, 51, 95
5, 76800, Note_on_c, 9, 42, 95
5, 76800, Note_on_c, 9, 36, 95
5, 77280, Note_off_c, 9, 51, 95
5, 77280, Note_off_c, 9, 42, 95
5, 77280, Note_off_c, 9, 36, 95
5, 77280, Note_on_c, 9, 51, 95
5, 77280, Note_on_c, 9, 42, 95
5, 77280, Note_on_c, 9, 36, 95
5, 77520, Note_off_c, 9, 51, 95
5, 77520, Note_off_c, 9, 42, 95
5, 77520, Note_off_c, 9, 36, 95
5, 77520, Note_on_c, 9, 51, 95
5, 77520, Note_on_c, 9, 42, 95
5, 77520, Note_on_c, 9, 36, 95
5, 77760, Note_off_c, 9, 51, 95
5, 77760, Note_off_c, 9, 42, 95
5, 77760, Note_off_c, 9, 36, 95
5, 77760, Note_on_c, 9, 51, 95
5, 77760, Note_on_c, 9, 40, 95
5, 78000, Note_off_c, 9, 51, 95
5, 78000, Note_off_c, 9, 40, 95
5, 78000, Note_on_c, 9, 51, 95
5, 78000, Note_on_c, 9, 42, 95
5, 78000, Note_on_c, 9, 36, 95
5, 78480, Note_off_c, 9, 51, 95
5, 78480, Note_off_c, 9, 42, 95
5, 78480, Note_off_c, 9, 36, 95
5, 78480, Note_on_c, 9, 51, 95
5, 78480, Note_on_c, 9, 40, 95
5, 78720, Note_off_c, 9, 51, 95
5, 78720, Note_off_c, 9, 40, 95
5, 78720, Note_on_c, 9, 51, 95
5, 78720, Note_on_c, 9, 42, 95
5, 78720, Note_on_c, 9, 36, 95
5, 79200, Note_off_c, 9, 51, 95
5, 79200, Note_off_c, 9, 42, 95
5, 79200, Note_off_c, 9, 36, 95
5, 79200, Note_on_c, 9, 51, 95
5, 79200, Note_on_c, 9, 46, 95
5, 79680, Note_off_c, 9, 51, 95
5, 79680, Note_off_c, 9, 46, 95
5, 79680, Note_on_c, 9, 51, 95
5, 79680, Note_on_c, 9, 42, 95
5, 79680, Note_on_c, 9, 40, 95
5, 80160, Note_off_c, 9, 51, 95
5, 80160, Note_off_c, 9, 42, 95
5, 80160, Note_off_c, 9, 40, 95
5, 80160, Note_on_c, 9, 42, 95
5, 80400, Note_off_c, 9, 42, 95
5, 80400, Note_on_c, 9, 51, 95
5, 80400, Note_on_c, 9, 40, 95
5, 80640, Note_off_c, 9, 51, 95
5, 80640, Note_off_c, 9, 40, 95
5, 80640, Note_on_c, 9, 51, 95
5, 80640, Note_on_c, 9, 42, 95
5, 80640, Note_on_c, 9, 36, 95
5, 81120, Note_off_c, 9, 51, 95
5, 81120, Note_off_c, 9, 42, 95
5, 81120, Note_off_c, 9, 36, 95
5, 81120, Note_on_c, 9, 51, 95
5, 81120, Note_on_c, 9, 42, 95
5, 81120, Note_on_c, 9, 36, 95
5, 81360, Note_off_c, 9, 51, 95
5, 81360, Note_off_c, 9, 42, 95
5, 81360, Note_off_c, 9, 36, 95
5, 81360, Note_on_c, 9, 51, 95
5, 81360, Note_on_c, 9, 42, 95
5, 81360, Note_on_c, 9, 36, 95
5, 81600, Note_off_c, 9, 51, 95
5, 81600, Note_off_c, 9, 42, 95
5, 81600, Note_off_c, 9, 36, 95
5, 81600, Note_on_c, 9, 51, 95
5, 81600, Note_on_c, 9, 40, 95
5, 81840, Note_off_c, 9, 51, 95
5, 81840, Note_off_c, 9, 40, 95
5, 81840, Note_on_c, 9, 51, 95
5, 81840, Note_on_c, 9, 42, 95
5, 81840, Note_on_c, 9, 36, 95
5, 82320, Note_off_c, 9, 51, 95
5, 82320, Note_off_c, 9, 42, 95
5, 82320, Note_off_c, 9, 36, 95
5, 82320, Note_on_c, 9, 51, 95
5, 82320, Note_on_c, 9, 40, 95
5, 82560, Note_off_c, 9, 51, 95
5, 82560, Note_off_c, 9, 40, 95
5, 82560, Note_on_c, 9, 51, 95
5, 82560, Note_on_c, 9, 42, 95
5, 82560, Note_on_c, 9, 36, 95
5, 83040, Note_off_c, 9, 51, 95
5, 83040, Note_off_c, 9, 42, 95
5, 83040, Note_off_c, 9, 36, 95
5, 83040, Note_on_c, 9, 51, 95
5, 83040, Note_on_c, 9, 46, 95
5, 83520, Note_off_c, 9, 51, 95
5, 83520, Note_off_c, 9, 46, 95
5, 83520, Note_on_c, 9, 51, 95
5, 83520, Note_on_c, 9, 42, 95
5, 83520, Note_on_c, 9, 40, 95
5, 84000, Note_off_c, 9, 51, 95
5, 84000, Note_off_c, 9, 42, 95
5, 84000, Note_off_c, 9, 40, 95
5, 84000, Note_on_c, 9, 42, 95
5, 84240, Note_off_c, 9, 42, 95
5, 84240, Note_on_c, 9, 51, 95
5, 84240, Note_on_c, 9, 40, 95
5, 84480, Note_off_c, 9, 51, 95
5, 84480, Note_off_c, 9, 40, 95
5, 84480, Note_on_c, 9, 51, 95
5, 84480, Note_on_c, 9, 42, 95
5, 84480, Note_on_c, 9, 36, 95
5, 84960, Note_off_c, 9, 51, 95
5, 84960, Note_off_c, 9, 42, 95
5, 84960, Note_off_c, 9, 36, 95
5, 84960, Note_on_c, 9, 51, 95
5, 84960, Note_on_c, 9, 42, 95
5, 84960, Note_on_c, 9, 36, 95
5, 85200, Note_off_c, 9, 51, 95
5, 85200, Note_off_c, 9, 42, 95
5, 85200, Note_off_c, 9, 36, 95
5, 85200, Note_on_c, 9, 51, 95
5, 85200, Note_on_c, 9, 42, 95
5, 85200, Note_on_c, 9, 36, 95
5, 85440, Note_off_c, 9, 51, 95
5, 85440, Note_off_c, 9, 42, 95
5, 85440, Note_off_c, 9, 36, 95
5, 85440, Note_on_c, 9, 51, 95
5, 85440, Note_on_c, 9, 40, 95
5, 85680, Note_off_c, 9, 51, 95
5, 85680, Note_off_c, 9, 40, 95
5, 85680, Note_on_c, 9, 51, 95
5, 85680, Note_on_c, 9, 42, 95
5, 85680, Note_on_c, 9, 36, 95
5, 86160, Note_off_c, 9, 51, 95
5, 86160, Note_off_c, 9, 42, 95
5, 86160, Note_off_c, 9, 36, 95
5, 86160, Note_on_c, 9, 51, 95
5, 86160, Note_on_c, 9, 40, 95
5, 86400, Note_off_c, 9, 51, 95
5, 86400, Note_off_c, 9, 40, 95
5, 86400, Note_on_c, 9, 51, 95
5, 86400, Note_on_c, 9, 42, 95
5, 86400, Note_on_c, 9, 36, 95
5, 86880, Note_off_c, 9, 51, 95
5, 86880, Note_off_c, 9, 42, 95
5, 86880, Note_off_c, 9, 36, 95
5, 86880, Note_on_c, 9, 51, 95
5, 86880, Note_on_c, 9, 46, 95
5, 87360, Note_off_c, 9, 51, 95
5, 87360, Note_off_c, 9, 46, 95
5, 87360, Note_on_c, 9, 51, 95
5, 87360, Note_on_c, 9, 42, 95
5, 87360, Note_on_c, 9, 40, 95
5, 87840, Note_off_c, 9, 51, 95
5, 87840, Note_off_c, 9, 42, 95
5, 87840, Note_off_c, 9, 40, 95
5, 87840, Note_on_c, 9, 42, 95
5, 88080, Note_off_c, 9, 42, 95
5, 88080, Note_on_c, 9, 51, 95
5, 88080, Note_on_c, 9, 40, 95
5, 88320, Note_off_c, 9, 51, 95
5, 88320, Note_off_c, 9, 40, 95
5, 88320, Note_on_c, 9, 51, 95
5, 88320, Note_on_c, 9, 42, 95
5, 88320, Note_on_c, 9, 36, 95
5, 88800, Note_off_c, 9, 51, 95
5, 88800, Note_off_c, 9, 42, 95
5, 88800, Note_off_c, 9, 36, 95
5, 88800, Note_on_c, 9, 51, 95
5, 88800, Note_on_c, 9, 42, 95
5, 88800, Note_on_c, 9, 36, 95
5, 89040, Note_off_c, 9, 51, 95
5, 89040, Note_off_c, 9, 42, 95
5, 89040, Note_off_c, 9, 36, 95
5, 89040, Note_on_c, 9, 51, 95
5, 89040, Note_on_c, 9, 42, 95
5, 89040, Note_on_c, 9, 36, 95
5, 89280, Note_off_c, 9, 51, 95
5, 89280, Note_off_c, 9, 42, 95
5, 89280, Note_off_c, 9, 36, 95
5, 89280, Note_on_c, 9, 51, 95
5, 89280, Note_on_c, 9, 40, 95
5, 89520, Note_off_c, 9, 51, 95
5, 89520, Note_off_c, 9, 40, 95
5, 89520, Note_on_c, 9, 51, 95
5, 89520, Note_on_c, 9, 42, 95
5, 89520, Note_on_c, 9, 36, 95
5, 90000, Note_off_c, 9, 51, 95
5, 90000, Note_off_c, 9, 42, 95
5, 90000, Note_off_c, 9, 36, 95
5, 90000, Note_on_c, 9, 51, 95
5, 90000, Note_on_c, 9, 40, 95
5, 90240, Note_off_c, 9, 51, 95
5, 90240, Note_off_c, 9, 40, 95
5, 90240, Note_on_c, 9, 51, 95
5, 90240, Note_on_c, 9, 42, 95
5, 90720, Note_off_c, 9, 51, 95
5, 90720, Note_off_c, 9, 42, 95
5, 90720, Note_on_c, 9, 51, 95
5, 90720, Note_on_c, 9, 46, 95
5, 91200, Note_off_c, 9, 51, 95
5, 91200, Note_off_c, 9, 46, 95
5, 91200, Note_on_c, 9, 51, 95
5, 91200, Note_on_c, 9, 42, 95
5, 91200, Note_on_c, 9, 40, 95
5, 91680, Note_off_c, 9, 51, 95
5, 91680, Note_off_c, 9, 42, 95
5, 91680, Note_off_c, 9, 40, 95
5, 91680, Note_on_c, 9, 42, 95
5, 91920, Note_off_c, 9, 42, 95
5, 91920, Note_on_c, 9, 51, 95
5, 91920, Note_on_c, 9, 40, 95
5, 92160, Note_off_c, 9, 51, 95
5, 92160, Note_off_c, 9, 40, 95
5, 92160, Note_on_c, 9, 51, 95
5, 92160, Note_on_c, 9, 42, 95
5, 92160, Note_on_c, 9, 36, 95
5, 92640, Note_off_c, 9, 51, 95
5, 92640, Note_off_c, 9, 42, 95
5, 92640, Note_off_c, 9, 36, 95
5, 92640, Note_on_c, 9, 51, 95
5, 92640, Note_on_c, 9, 42, 95
5, 92640, Note_on_c, 9, 36, 95
5, 92880, Note_off_c, 9, 51, 95
5, 92880, Note_off_c, 9, 42, 95
5, 92880, Note_off_c, 9, 36, 95
5, 92880, Note_on_c, 9, 51, 95
5, 92880, Note_on_c, 9, 42, 95
5, 92880, Note_on_c, 9, 36, 95
5, 93120, Note_off_c, 9, 51, 95
5, 93120, Note_off_c, 9, 42, 95
5, 93120, Note_off_c, 9, 36, 95
5, 93120, Note_on_c, 9, 51, 95
5, 93120, Note_on_c, 9, 40, 95
5, 93360, Note_off_c, 9, 51, 95
5, 93360, Note_off_c, 9, 40, 95
5, 93360, Note_on_c, 9, 51, 95
5, 93360, Note_on_c, 9, 42, 95
5, 93360, Note_on_c, 9, 36, 95
5, 93840, Note_off_c, 9, 51, 95
5, 93840, Note_off_c, 9, 42, 95
5, 93840, Note_off_c, 9, 36, 95
5, 93840, Note_on_c, 9, 51, 95
5, 93840, Note_on_c, 9, 40, 95
5, 94080, Note_off_c, 9, 51, 95
5, 94080, Note_off_c, 9, 40, 95
5, 94080, Note_on_c, 9, 51, 95
5, 94080, Note_on_c, 9, 42, 95
5, 94080, Note_on_c, 9, 36, 95
5, 94560, Note_off_c, 9, 51, 95
5, 94560, Note_off_c, 9, 42, 95
5, 94560, Note_off_c, 9, 36, 95
5, 94560, Note_on_c, 9, 51, 95
5, 94560, Note_on_c, 9, 46, 95
5, 95040, Note_off_c, 9, 51, 95
5, 95040, Note_off_c, 9, 46, 95
5, 95040, Note_on_c, 9, 45, 95
5, 95160, Note_off_c, 9, 45, 95
5, 95160, Note_on_c, 9, 40, 95
5, 95280, Note_off_c, 9, 40, 95
5, 95280, Note_on_c, 9, 40, 95
5, 95400, Note_off_c, 9, 40, 95
5, 95400, Note_on_c, 9, 40, 95
5, 95520, Note_off_c, 9, 40, 95
5, 95520, Note_on_c, 9, 51, 95
5, 95520, Note_on_c, 9, 40, 95
5, 95760, Note_off_c, 9, 51, 95
5, 95760, Note_off_c, 9, 40, 95
5, 95760, Note_on_c, 9, 36, 95
5, 96000, Note_off_c, 9, 36, 95
5, 96000, Note_on_c, 9, 51, 95
5, 96000, Note_on_c, 9, 42, 95
5, 96000, Note_on_c, 9, 40, 95
5, 96480, Note_off_c, 9, 51, 95
5, 96480, Note_off_c, 9, 42, 95
5, 96480, Note_off_c, 9, 40, 95
5, 96480, Note_on_c, 9, 42, 95
5, 96960, Note_off_c, 9, 42, 95
5, 96960, Note_on_c, 9, 51, 95
5, 96960, Note_on_c, 9, 42, 95
5, 96960, Note_on_c, 9, 40, 95
5, 97440, Note_off_c, 9, 51, 95
5, 97440, Note_off_c, 9, 42, 95
5, 97440, Note_off_c, 9, 40, 95
5, 97440, Note_on_c, 9, 42, 95
5, 97920, Note_off_c, 9, 42, 95
5, 97920, Note_on_c, 9, 51, 95
5, 97920, Note_on_c, 9, 42, 95
5, 97920, Note_on_c, 9, 40, 95
5, 98400, Note_off_c, 9, 51, 95
5, 98400, Note_off_c, 9, 42, 95
5, 98400, Note_off_c, 9, 40, 95
5, 98400, Note_on_c, 9, 42, 95
5, 98880, Note_off_c, 9, 42, 95
5, 98880, Note_on_c, 9, 51, 95
5, 98880, Note_on_c, 9, 42, 95
5, 98880, Note_on_c, 9, 40, 95
5, 99360, Note_off_c, 9, 51, 95
5, 99360, Note_off_c, 9, 42, 95
5, 99360, Note_off_c, 9, 40, 95
5, 99360, Note_on_c, 9, 42, 95
5, 99840, Note_off_c, 9, 42, 95
5, 99840, Note_on_c, 9, 51, 95
5, 99840, Note_on_c, 9, 42, 95
5, 99840, Note_on_c, 9, 40, 95
5, 100320, Note_off_c, 9, 51, 95
5, 100320, Note_off_c, 9, 42, 95
5, 100320, Note_off_c, 9, 40, 95
5, 100320, Note_on_c, 9, 42, 95
5, 100800, Note_off_c, 9, 42, 95
5, 100800, Note_on_c, 9, 51, 95
5, 100800, Note_on_c, 9, 42, 95
5, 100800, Note_on_c, 9, 40, 95
5, 101280, Note_off_c, 9, 51, 95
5, 101280, Note_off_c, 9, 42, 95
5, 101280, Note_off_c, 9, 40, 95
5, 101280, Note_on_c, 9, 42, 95
5, 101760, Note_off_c, 9, 42, 95
5, 101760, Note_on_c, 9, 51, 95
5, 101760, Note_on_c, 9, 40, 95
5, 102000, Note_off_c, 9, 51, 95
5, 102000, Note_off_c, 9, 40, 95
5, 102000, Note_on_c, 9, 51, 95
5, 102000, Note_on_c, 9, 36, 95
5, 102240, Note_off_c, 9, 51, 95
5, 102240, Note_off_c, 9, 36, 95
5, 102240, Note_on_c, 9, 51, 95
5, 102240, Note_on_c, 9, 40, 95
5, 102720, Note_off_c, 9, 51, 95
5, 102720, Note_off_c, 9, 40, 95
5, 102720, Note_on_c, 9, 45, 95
5, 102840, Note_off_c, 9, 45, 95
5, 102840, Note_on_c, 9, 40, 95
5, 102960, Note_off_c, 9, 40, 95
5, 102960, Note_on_c, 9, 40, 95
5, 103080, Note_off_c, 9, 40, 95
5, 103080, Note_on_c, 9, 40, 95
5, 103200, Note_off_c, 9, 40, 95
5, 103200, Note_on_c, 9, 51, 95
5, 103200, Note_on_c, 9, 40, 95
5, 103680, Note_off_c, 9, 51, 95
5, 103680, Note_off_c, 9, 40, 95
5, 103680, Note_on_c, 9, 51, 95
5, 103680, Note_on_c, 9, 42, 95
5, 103680, Note_on_c, 9, 36, 95
5, 104160, Note_off_c, 9, 51, 95
5, 104160, Note_off_c, 9, 42, 95
5, 104160, Note_off_c, 9, 36, 95
5, 104160, Note_on_c, 9, 51, 95
5, 104160, Note_on_c, 9, 42, 95
5, 104160, Note_on_c, 9, 36, 95
5, 104400, Note_off_c, 9, 51, 95
5, 104400, Note_off_c, 9, 42, 95
5, 104400, Note_off_c, 9, 36, 95
5, 104400, Note_on_c, 9, 51, 95
5, 104400, Note_on_c, 9, 42, 95
5, 104400, Note_on_c, 9, 36, 95
5, 104640, Note_off_c, 9, 51, 95
5, 104640, Note_off_c, 9, 42, 95
5, 104640, Note_off_c, 9, 36, 95
5, 104640, Note_on_c, 9, 51, 95
5, 104640, Note_on_c, 9, 40, 95
5, 104880, Note_off_c, 9, 51, 95
5, 104880, Note_off_c, 9, 40, 95
5, 104880, Note_on_c, 9, 51, 95
5, 104880, Note_on_c, 9, 42, 95
5, 104880, Note_on_c, 9, 36, 95
5, 105360, Note_off_c, 9, 51, 95
5, 105360, Note_off_c, 9, 42, 95
5, 105360, Note_off_c, 9, 36, 95
5, 105360, Note_on_c, 9, 51, 95
5, 105360, Note_on_c, 9, 40, 95
5, 105600, Note_off_c, 9, 51, 95
5, 105600, Note_off_c, 9, 40, 95
5, 105600, Note_on_c, 9, 51, 95
5, 105600, Note_on_c, 9, 42, 95
5, 105600, Note_on_c, 9, 36, 95
5, 105840, Note_off_c, 9, 51, 95
5, 105840, Note_off_c, 9, 42, 95
5, 105840, Note_off_c, 9, 36, 95
5, 105840, Note_on_c, 9, 40, 95
5, 106080, Note_off_c, 9, 40, 95
5, 106080, Note_on_c, 9, 51, 95
5, 106080, Note_on_c, 9, 46, 95
5, 106080, Note_on_c, 9, 36, 95
5, 106320, Note_off_c, 9, 51, 95
5, 106320, Note_off_c, 9, 46, 95
5, 106320, Note_off_c, 9, 36, 95
5, 106320, Note_on_c, 9, 36, 95
5, 106560, Note_off_c, 9, 36, 95
5, 106560, Note_on_c, 9, 51, 95
5, 106560, Note_on_c, 9, 40, 95
5, 107040, Note_off_c, 9, 51, 95
5, 107040, Note_off_c, 9, 40, 95
5, 107040, Note_on_c, 9, 42, 95
5, 107280, Note_off_c, 9, 42, 95
5, 107280, Note_on_c, 9, 51, 95
5, 107280, Note_on_c, 9, 40, 95
5, 107520, Note_off_c, 9, 51, 95
5, 107520, Note_off_c, 9, 40, 95
5, 107520, Note_on_c, 9, 51, 95
5, 107520, Note_on_c, 9, 42, 95
5, 107520, Note_on_c, 9, 36, 95
5, 108000, Note_off_c, 9, 51, 95
5, 108000, Note_off_c, 9, 42, 95
5, 108000, Note_off_c, 9, 36, 95
5, 108000, Note_on_c, 9, 51, 95
5, 108000, Note_on_c, 9, 42, 95
5, 108000, Note_on_c, 9, 36, 95
5, 108240, Note_off_c, 9, 51, 95
5, 108240, Note_off_c, 9, 42, 95
5, 108240, Note_off_c, 9, 36, 95
5, 108240, Note_on_c, 9, 51, 95
5, 108240, Note_on_c, 9, 42, 95
5, 108240, Note_on_c, 9, 36, 95
5, 108480, Note_off_c, 9, 51, 95
5, 108480, Note_off_c, 9, 42, 95
5, 108480, Note_off_c, 9, 36, 95
5, 108480, Note_on_c, 9, 51, 95
5, 108480, Note_on_c, 9, 40, 95
5, 108720, Note_off_c, 9, 51, 95
5, 108720, Note_off_c, 9, 40, 95
5, 108720, Note_on_c, 9, 51, 95
5, 108720, Note_on_c, 9, 42, 95
5, 108720, Note_on_c, 9, 36, 95
5, 109200, Note_off_c, 9, 51, 95
5, 109200, Note_off_c, 9, 42, 95
5, 109200, Note_off_c, 9, 36, 95
5, 109200, Note_on_c, 9, 51, 95
5, 109200, Note_on_c, 9, 40, 95
5, 109440, Note_off_c, 9, 51, 95
5, 109440, Note_off_c, 9, 40, 95
5, 109440, Note_on_c, 9, 51, 95
5, 109440, Note_on_c, 9, 42, 95
5, 109440, Note_on_c, 9, 36, 95
5, 109680, Note_off_c, 9, 51, 95
5, 109680, Note_off_c, 9, 42, 95
5, 109680, Note_off_c, 9, 36, 95
5, 109680, Note_on_c, 9, 51, 95
5, 109680, Note_on_c, 9, 40, 95
5, 109920, Note_off_c, 9, 51, 95
5, 109920, Note_off_c, 9, 40, 95
5, 109920, Note_on_c, 9, 51, 95
5, 109920, Note_on_c, 9, 42, 95
5, 109920, Note_on_c, 9, 36, 95
5, 110160, Note_off_c, 9, 51, 95
5, 110160, Note_off_c, 9, 42, 95
5, 110160, Note_off_c, 9, 36, 95
5, 110160, Note_on_c, 9, 51, 95
5, 110160, Note_on_c, 9, 36, 95
5, 110400, Note_off_c, 9, 51, 95
5, 110400, Note_off_c, 9, 36, 95
5, 110400, Note_on_c, 9, 51, 95
5, 110400, Note_on_c, 9, 40, 95
5, 110880, Note_off_c, 9, 51, 95
5, 110880, Note_off_c, 9, 40, 95
5, 110880, Note_on_c, 9, 42, 95
5, 111120, Note_off_c, 9, 42, 95
5, 111120, Note_on_c, 9, 51, 95
5, 111120, Note_on_c, 9, 40, 95
5, 111360, Note_off_c, 9, 51, 95
5, 111360, Note_off_c, 9, 40, 95
5, 111360, Note_on_c, 9, 51, 95
5, 111360, Note_on_c, 9, 42, 95
5, 111360, Note_on_c, 9, 36, 95
5, 111840, Note_off_c, 9, 51, 95
5, 111840, Note_off_c, 9, 42, 95
5, 111840, Note_off_c, 9, 36, 95
5, 111840, Note_on_c, 9, 51, 95
5, 111840, Note_on_c, 9, 42, 95
5, 111840, Note_on_c, 9, 36, 95
5, 112080, Note_off_c, 9, 51, 95
5, 112080, Note_off_c, 9, 42, 95
5, 112080, Note_off_c, 9, 36, 95
5, 112080, Note_on_c, 9, 51, 95
5, 112080, Note_on_c, 9, 42, 95
5, 112080, Note_on_c, 9, 36, 95
5, 112320, Note_off_c, 9, 51, 95
5, 112320, Note_off_c, 9, 42, 95
5, 112320, Note_off_c, 9, 36, 95
5, 112320, Note_on_c, 9, 51, 95
5, 112320, Note_on_c, 9, 40, 95
5, 112560, Note_off_c, 9, 51, 95
5, 112560, Note_off_c, 9, 40, 95
5, 112560, Note_on_c, 9, 51, 95
5, 112560, Note_on_c, 9, 42, 95
5, 112560, Note_on_c, 9, 36, 95
5, 113040, Note_off_c, 9, 51, 95
5, 113040, Note_off_c, 9, 42, 95
5, 113040, Note_off_c, 9, 36, 95
5, 113040, Note_on_c, 9, 51, 95
5, 113040, Note_on_c, 9, 40, 95
5, 113280, Note_off_c, 9, 51, 95
5, 113280, Note_off_c, 9, 40, 95
5, 113280, Note_on_c, 9, 51, 95
5, 113280, Note_on_c, 9, 42, 95
5, 113280, Note_on_c, 9, 36, 95
5, 113520, Note_off_c, 9, 51, 95
5, 113520, Note_off_c, 9, 42, 95
5, 113520, Note_off_c, 9, 36, 95
5, 113520, Note_on_c, 9, 51, 95
5, 113520, Note_on_c, 9, 40, 95
5, 113760, Note_off_c, 9, 51, 95
5, 113760, Note_off_c, 9, 40, 95
5, 113760, Note_on_c, 9, 51, 95
5, 113760, Note_on_c, 9, 42, 95
5, 113760, Note_on_c, 9, 36, 95
5, 114000, Note_off_c, 9, 51, 95
5, 114000, Note_off_c, 9, 42, 95
5, 114000, Note_off_c, 9, 36, 95
5, 114000, Note_on_c, 9, 51, 95
5, 114000, Note_on_c, 9, 36, 95
5, 114240, Note_off_c, 9, 51, 95
5, 114240, Note_off_c, 9, 36, 95
5, 114240, Note_on_c, 9, 51, 95
5, 114240, Note_on_c, 9, 40, 95
5, 114720, Note_off_c, 9, 51, 95
5, 114720, Note_off_c, 9, 40, 95
5, 114720, Note_on_c, 9, 42, 95
5, 114960, Note_off_c, 9, 42, 95
5, 114960, Note_on_c, 9, 51, 95
5, 114960, Note_on_c, 9, 40, 95
5, 115200, Note_off_c, 9, 51, 95
5, 115200, Note_off_c, 9, 40, 95
5, 115200, Note_on_c, 9, 51, 95
5, 115200, Note_on_c, 9, 42, 95
5, 115200, Note_on_c, 9, 36, 95
5, 115680, Note_off_c, 9, 51, 95
5, 115680, Note_off_c, 9, 42, 95
5, 115680, Note_off_c, 9, 36, 95
5, 115680, Note_on_c, 9, 51, 95
5, 115680, Note_on_c, 9, 42, 95
5, 115680, Note_on_c, 9, 36, 95
5, 115920, Note_off_c, 9, 51, 95
5, 115920, Note_off_c, 9, 42, 95
5, 115920, Note_off_c, 9, 36, 95
5, 115920, Note_on_c, 9, 51, 95
5, 115920, Note_on_c, 9, 42, 95
5, 115920, Note_on_c, 9, 36, 95
5, 116160, Note_off_c, 9, 51, 95
5, 116160, Note_off_c, 9, 42, 95
5, 116160, Note_off_c, 9, 36, 95
5, 116160, Note_on_c, 9, 51, 95
5, 116160, Note_on_c, 9, 40, 95
5, 116400, Note_off_c, 9, 51, 95
5, 116400, Note_off_c, 9, 40, 95
5, 116400, Note_on_c, 9, 51, 95
5, 116400, Note_on_c, 9, 42, 95
5, 116400, Note_on_c, 9, 36, 95
5, 116880, Note_off_c, 9, 51, 95
5, 116880, Note_off_c, 9, 42, 95
5, 116880, Note_off_c, 9, 36, 95
5, 116880, Note_on_c, 9, 51, 95
5, 116880, Note_on_c, 9, 40, 95
5, 117120, Note_off_c, 9, 51, 95
5, 117120, Note_off_c, 9, 40, 95
5, 117120, Note_on_c, 9, 51, 95
5, 117120, Note_on_c, 9, 42, 95
5, 117120, Note_on_c, 9, 36, 95
5, 117360, Note_off_c, 9, 51, 95
5, 117360, Note_off_c, 9, 42, 95
5, 117360, Note_off_c, 9, 36, 95
5, 117360, Note_on_c, 9, 51, 95
5, 117360, Note_on_c, 9, 40, 95
5, 117600, Note_off_c, 9, 51, 95
5, 117600, Note_off_c, 9, 40, 95
5, 117600, Note_on_c, 9, 51, 95
5, 117600, Note_on_c, 9, 42, 95
5, 117600, Note_on_c, 9, 36, 95
5, 117840, Note_off_c, 9, 51, 95
5, 117840, Note_off_c, 9, 42, 95
5, 117840, Note_off_c, 9, 36, 95
5, 117840, Note_on_c, 9, 51, 95
5, 117840, Note_on_c, 9, 36, 95
5, 118080, Note_off_c, 9, 51, 95
5, 118080, Note_off_c, 9, 36, 95
5, 118080, Note_on_c, 9, 51, 95
5, 118080, Note_on_c, 9, 40, 95
5, 118560, Note_off_c, 9, 51, 95
5, 118560, Note_off_c, 9, 40, 95
5, 118560, Note_on_c, 9, 42, 95
5, 118800, Note_off_c, 9, 42, 95
5, 118800, Note_on_c, 9, 51, 95
5, 118800, Note_on_c, 9, 40, 95
5, 119040, Note_off_c, 9, 51, 95
5, 119040, Note_off_c, 9, 40, 95
5, 119040, Note_on_c, 9, 51, 95
5, 119040, Note_on_c, 9, 42, 95
5, 119040, Note_on_c, 9, 36, 95
5, 119520, Note_off_c, 9, 51, 95
5, 119520, Note_off_c, 9, 42, 95
5, 119520, Note_off_c, 9, 36, 95
5, 119520, Note_on_c, 9, 51, 95
5, 119520, Note_on_c, 9, 42, 95
5, 119520, Note_on_c, 9, 36, 95
5, 120000, Note_off_c, 9, 51, 95
5, 120000, Note_off_c, 9, 42, 95
5, 120000, Note_off_c, 9, 36, 95
5, 120000, Note_on_c, 9, 51, 95
5, 120000, Note_on_c, 9, 42, 95
5, 120000, Note_on_c, 9, 40, 95
5, 120480, Note_off_c, 9, 51, 95
5, 120480, Note_off_c, 9, 42, 95
5, 120480, Note_off_c, 9, 40, 95
5, 120480, Note_on_c, 9, 51, 95
5, 120480, Note_on_c, 9, 42, 95
5, 120480, Note_on_c, 9, 36, 95
5, 120960, Note_off_c, 9, 51, 95
5, 120960, Note_off_c, 9, 42, 95
5, 120960, Note_off_c, 9, 36, 95
5, 120960, Note_on_c, 9, 51, 95
5, 120960, Note_on_c, 9, 42, 95
5, 120960, Note_on_c, 9, 36, 95
5, 121440, Note_off_c, 9, 51, 95
5, 121440, Note_off_c, 9, 42, 95
5, 121440, Note_off_c, 9, 36, 95
5, 121440, Note_on_c, 9, 51, 95
5, 121440, Note_on_c, 9, 40, 95
5, 121560, Note_off_c, 9, 51, 95
5, 121560, Note_off_c, 9, 40, 95
5, 121560, Note_on_c, 9, 40, 95
5, 121680, Note_off_c, 9, 40, 95
5, 121680, Note_on_c, 9, 40, 95
5, 121800, Note_off_c, 9, 40, 95
5, 121800, Note_on_c, 9, 40, 95
5, 121920, Note_off_c, 9, 40, 95
5, 121920, Note_on_c, 9, 40, 95
5, 122160, Note_off_c, 9, 40, 95
5, 122160, Note_on_c, 9, 51, 95
5, 122160, Note_on_c, 9, 40, 95
5, 122400, Note_off_c, 9, 51, 95
5, 122400, Note_off_c, 9, 40, 95
5, 122400, Note_on_c, 9, 51, 95
5, 122400, Note_on_c, 9, 45, 95
5, 122880, Note_off_c, 9, 51, 95
5, 122880, Note_off_c, 9, 45, 95
5, 122880, Note_on_c, 9, 51, 95
5, 122880, Note_on_c, 9, 42, 95
5, 122880, Note_on_c, 9, 40, 95
5, 123360, Note_off_c, 9, 51, 95
5, 123360, Note_off_c, 9, 42, 95
5, 123360, Note_off_c, 9, 40, 95
5, 123360, Note_on_c, 9, 42, 95
5, 123840, Note_off_c, 9, 42, 95
5, 123840, Note_on_c, 9, 51, 95
5, 123840, Note_on_c, 9, 42, 95
5, 123840, Note_on_c, 9, 40, 95
5, 124320, Note_off_c, 9, 51, 95
5, 124320, Note_off_c, 9, 42, 95
5, 124320, Note_off_c, 9, 40, 95
5, 124320, Note_on_c, 9, 51, 95
5, 124320, Note_on_c, 9, 42, 95
5, 124560, Note_off_c, 9, 51, 95
5, 124560, Note_off_c, 9, 42, 95
5, 124560, Note_on_c, 9, 40, 95
5, 124800, Note_off_c, 9, 40, 95
5, 124800, Note_on_c, 9, 51, 95
5, 124800, Note_on_c, 9, 42, 95
5, 125040, Note_off_c, 9, 51, 95
5, 125040, Note_off_c, 9, 42, 95
5, 125040, Note_on_c, 9, 51, 95
5, 125040, Note_on_c, 9, 40, 95
5, 125280, Note_off_c, 9, 51, 95
5, 125280, Note_off_c, 9, 40, 95
5, 125280, Note_on_c, 9, 51, 95
5, 125280, Note_on_c, 9, 50, 95
5, 125520, Note_off_c, 9, 51, 95
5, 125520, Note_off_c, 9, 50, 95
5, 125520, Note_on_c, 9, 51, 95
5, 125520, Note_on_c, 9, 40, 95
5, 125760, Note_off_c, 9, 51, 95
5, 125760, Note_off_c, 9, 40, 95
5, 125760, Note_on_c, 9, 51, 95
5, 125760, Note_on_c, 9, 40, 95
5, 126000, Note_off_c, 9, 51, 95
5, 126000, Note_off_c, 9, 40, 95
5, 126000, Note_on_c, 9, 51, 95
5, 126000, Note_on_c, 9, 40, 95
5, 126240, Note_off_c, 9, 51, 95
5, 126240, Note_off_c, 9, 40, 95
5, 126240, Note_on_c, 9, 51, 95
5, 126240, Note_on_c, 9, 50, 95
5, 126720, Note_off_c, 9, 51, 95
5, 126720, Note_off_c, 9, 50, 95
5, 126720, Note_on_c, 9, 51, 95
5, 126720, Note_on_c, 9, 40, 95
5, 127200, Note_off_c, 9, 51, 95
5, 127200, Note_off_c, 9, 40, 95
5, 127200, Note_on_c, 9, 42, 95
5, 127680, Note_off_c, 9, 42, 95
5, 127680, Note_on_c, 9, 51, 95
5, 127680, Note_on_c, 9, 42, 95
5, 127680, Note_on_c, 9, 40, 95
5, 128160, Note_off_c, 9, 51, 95
5, 128160, Note_off_c, 9, 42, 95
5, 128160, Note_off_c, 9, 40, 95
5, 128160, Note_on_c, 9, 42, 95
5, 128640, Note_off_c, 9, 42, 95
5, 128640, Note_on_c, 9, 51, 95
5, 128640, Note_on_c, 9, 42, 95
5, 128640, Note_on_c, 9, 40, 95
5, 129120, Note_off_c, 9, 51, 95
5, 129120, Note_off_c, 9, 42, 95
5, 129120, Note_off_c, 9, 40, 95
5, 129120, Note_on_c, 9, 42, 95
5, 129600, Note_off_c, 9, 42, 95
5, 129600, Note_on_c, 9, 51, 95
5, 129600, Note_on_c, 9, 40, 95
5, 129720, Note_off_c, 9, 51, 95
5, 129720, Note_off_c, 9, 40, 95
5, 129720, Note_on_c, 9, 51, 95
5, 129720, Note_on_c, 9, 40, 95
5, 129840, Note_off_c, 9, 51, 95
5, 129840, Note_off_c, 9, 40, 95
5, 129840, Note_on_c, 9, 51, 95
5, 129840, Note_on_c, 9, 40, 95
5, 129960, Note_off_c, 9, 51, 95
5, 129960, Note_off_c, 9, 40, 95
5, 129960, Note_on_c, 9, 51, 95
5, 129960, Note_on_c, 9, 40, 95
5, 130080, Note_off_c, 9, 51, 95
5, 130080, Note_off_c, 9, 40, 95
5, 130080, Note_on_c, 9, 51, 95
5, 130080, Note_on_c, 9, 40, 95
5, 130560, Note_off_c, 9, 51, 95
5, 130560, Note_off_c, 9, 40, 95
5, 130560, Note_on_c, 9, 49, 95
5, 130560, Note_on_c, 9, 42, 95
5, 130560, Note_on_c, 9, 36, 95
5, 131520, Note_off_c, 9, 49, 95
5, 131520, Note_off_c, 9, 42, 95
5, 131520, Note_off_c, 9, 36, 95
5, 131520, Note_on_c, 9, 51, 95
5, 131520, Note_on_c, 9, 42, 95
5, 131520, Note_on_c, 9, 40, 95
5, 132000, Note_off_c, 9, 51, 95
5, 132000, Note_off_c, 9, 42, 95
5, 132000, Note_off_c, 9, 40, 95
5, 132000, Note_on_c, 9, 42, 95
5, 132240, Note_off_c, 9, 42, 95
5, 132240, Note_on_c, 9, 51, 95
5, 132240, Note_on_c, 9, 40, 95
5, 132480, Note_off_c, 9, 51, 95
5, 132480, Note_off_c, 9, 40, 95
5, 132480, Note_on_c, 9, 51, 95
5, 132480, Note_on_c, 9, 42, 95
5, 132480, Note_on_c, 9, 36, 95
5, 132720, Note_off_c, 9, 51, 95
5, 132720, Note_off_c, 9, 42, 95
5, 132720, Note_off_c, 9, 36, 95
5, 132720, Note_on_c, 9, 51, 95
5, 132720, Note_on_c, 9, 40, 95
5, 132960, Note_off_c, 9, 51, 95
5, 132960, Note_off_c, 9, 40, 95
5, 132960, Note_on_c, 9, 51, 95
5, 132960, Note_on_c, 9, 42, 95
5, 132960, Note_on_c, 9, 36, 95
5, 133200, Note_off_c, 9, 51, 95
5, 133200, Note_off_c, 9, 42, 95
5, 133200, Note_off_c, 9, 36, 95
5, 133200, Note_on_c, 9, 51, 95
5, 133200, Note_on_c, 9, 36, 95
5, 133440, Note_off_c, 9, 51, 95
5, 133440, Note_off_c, 9, 36, 95
5, 133440, Note_on_c, 9, 51, 95
5, 133440, Note_on_c, 9, 42, 95
5, 133440, Note_on_c, 9, 40, 95
5, 133920, Note_off_c, 9, 51, 95
5, 133920, Note_off_c, 9, 42, 95
5, 133920, Note_off_c, 9, 40, 95
5, 133920, Note_on_c, 9, 42, 95
5, 134400, Note_off_c, 9, 42, 95
5, 134400, Note_on_c, 9, 51, 95
5, 134400, Note_on_c, 9, 42, 95
5, 134400, Note_on_c, 9, 40, 95
5, 134880, Note_off_c, 9, 51, 95
5, 134880, Note_off_c, 9, 42, 95
5, 134880, Note_off_c, 9, 40, 95
5, 134880, Note_on_c, 9, 42, 95
5, 135360, Note_off_c, 9, 42, 95
5, 135360, Note_on_c, 9, 51, 95
5, 135360, Note_on_c, 9, 42, 95
5, 135360, Note_on_c, 9, 40, 95
5, 135840, Note_off_c, 9, 51, 95
5, 135840, Note_off_c, 9, 42, 95
5, 135840, Note_off_c, 9, 40, 95
5, 135840, Note_on_c, 9, 42, 95
5, 136320, Note_off_c, 9, 42, 95
5, 136320, Note_on_c, 9, 51, 95
5, 136320, Note_on_c, 9, 42, 95
5, 136320, Note_on_c, 9, 40, 95
5, 136800, Note_off_c, 9, 51, 95
5, 136800, Note_off_c, 9, 42, 95
5, 136800, Note_off_c, 9, 40, 95
5, 136800, Note_on_c, 9, 51, 95
5, 136800, Note_on_c, 9, 42, 95
5, 136800, Note_on_c, 9, 40, 95
5, 137280, Note_off_c, 9, 51, 95
5, 137280, Note_off_c, 9, 42, 95
5, 137280, Note_off_c, 9, 40, 95
5, 137280, Note_on_c, 9, 51, 95
5, 137280, Note_on_c, 9, 40, 95
5, 137400, Note_off_c, 9, 51, 95
5, 137400, Note_off_c, 9, 40, 95
5, 137400, Note_on_c, 9, 51, 95
5, 137400, Note_on_c, 9, 40, 95
5, 137520, Note_off_c, 9, 51, 95
5, 137520, Note_off_c, 9, 40, 95
5, 137520, Note_on_c, 9, 51, 95
5, 137520, Note_on_c, 9, 40, 95
5, 137640, Note_off_c, 9, 51, 95
5, 137640, Note_off_c, 9, 40, 95
5, 137640, Note_on_c, 9, 51, 95
5, 137640, Note_on_c, 9, 40, 95
5, 137760, Note_off_c, 9, 51, 95
5, 137760, Note_off_c, 9, 40, 95
5, 137760, Note_on_c, 9, 51, 95
5, 137760, Note_on_c, 9, 40, 95
5, 137880, Note_off_c, 9, 51, 95
5, 137880, Note_off_c, 9, 40, 95
5, 137880, Note_on_c, 9, 40, 95
5, 138000, Note_off_c, 9, 40, 95
5, 138000, Note_on_c, 9, 40, 95
5, 138120, Note_off_c, 9, 40, 95
5, 138120, Note_on_c, 9, 40, 95
5, 138240, Note_off_c, 9, 40, 95
5, 138240, Note_on_c, 9, 51, 95
5, 138240, Note_on_c, 9, 42, 95
5, 138240, Note_on_c, 9, 36, 95
5, 138720, Note_off_c, 9, 51, 95
5, 138720, Note_off_c, 9, 42, 95
5, 138720, Note_off_c, 9, 36, 95
5, 138720, Note_on_c, 9, 42, 95
5, 139200, Note_off_c, 9, 42, 95
5, 139200, Note_on_c, 9, 51, 95
5, 139200, Note_on_c, 9, 42, 95
5, 139200, Note_on_c, 9, 40, 95
5, 139680, Note_off_c, 9, 51, 95
5, 139680, Note_off_c, 9, 42, 95
5, 139680, Note_off_c, 9, 40, 95
5, 139680, Note_on_c, 9, 42, 95
5, 139920, Note_off_c, 9, 42, 95
5, 139920, Note_on_c, 9, 51, 95
5, 139920, Note_on_c, 9, 40, 95
5, 140160, Note_off_c, 9, 51, 95
5, 140160, Note_off_c, 9, 40, 95
5, 140160, Note_on_c, 9, 51, 95
5, 140160, Note_on_c, 9, 42, 95
5, 140160, Note_on_c, 9, 36, 95
5, 140400, Note_off_c, 9, 51, 95
5, 140400, Note_off_c, 9, 42, 95
5, 140400, Note_off_c, 9, 36, 95
5, 140400, Note_on_c, 9, 40, 95
5, 140640, Note_off_c, 9, 40, 95
5, 140640, Note_on_c, 9, 51, 95
5, 140640, Note_on_c, 9, 42, 95
5, 140640, Note_on_c, 9, 36, 95
5, 140880, Note_off_c, 9, 51, 95
5, 140880, Note_off_c, 9, 42, 95
5, 140880, Note_off_c, 9, 36, 95
5, 140880, Note_on_c, 9, 51, 95
5, 140880, Note_on_c, 9, 36, 95
5, 141120, Note_off_c, 9, 51, 95
5, 141120, Note_off_c, 9, 36, 95
5, 141120, Note_on_c, 9, 51, 95
5, 141120, Note_on_c, 9, 42, 95
5, 141120, Note_on_c, 9, 40, 95
5, 141600, Note_off_c, 9, 51, 95
5, 141600, Note_off_c, 9, 42, 95
5, 141600, Note_off_c, 9, 40, 95
5, 141600, Note_on_c, 9, 42, 95
5, 142080, Note_off_c, 9, 42, 95
5, 142080, Note_on_c, 9, 51, 95
5, 142080, Note_on_c, 9, 42, 95
5, 142080, Note_on_c, 9, 40, 95
5, 142560, Note_off_c, 9, 51, 95
5, 142560, Note_off_c, 9, 42, 95
5, 142560, Note_off_c, 9, 40, 95
5, 142560, Note_on_c, 9, 42, 95
5, 143040, Note_off_c, 9, 42, 95
5, 143040, Note_on_c, 9, 51, 95
5, 143040, Note_on_c, 9, 42, 95
5, 143040, Note_on_c, 9, 40, 95
5, 143520, Note_off_c, 9, 51, 95
5, 143520, Note_off_c, 9, 42, 95
5, 143520, Note_off_c, 9, 40, 95
5, 143520, Note_on_c, 9, 42, 95
5, 143760, Note_off_c, 9, 42, 95
5, 143760, Note_on_c, 9, 40, 95
5, 144000, Note_off_c, 9, 40, 95
5, 144000, Note_on_c, 9, 51, 95
5, 144000, Note_on_c, 9, 42, 95
5, 144240, Note_off_c, 9, 51, 95
5, 144240, Note_off_c, 9, 42, 95
5, 144240, Note_on_c, 9, 40, 95
5, 144480, Note_off_c, 9, 40, 95
5, 144480, Note_on_c, 9, 40, 95
5, 144720, Note_off_c, 9, 40, 95
5, 144720, Note_on_c, 9, 40, 95
5, 144960, Note_off_c, 9, 40, 95
5, 144960, Note_on_c, 9, 51, 95
5, 144960, Note_on_c, 9, 40, 95
5, 145200, Note_off_c, 9, 51, 95
5, 145200, Note_off_c, 9, 40, 95
5, 145200, Note_on_c, 9, 40, 95
5, 145440, Note_off_c, 9, 40, 95
5, 145440, Note_on_c, 9, 51, 95
5, 145440, Note_on_c, 9, 50, 95
5, 145920, Note_off_c, 9, 51, 95
5, 145920, Note_off_c, 9, 50, 95
5, 145920, Note_on_c, 9, 51, 95
5, 145920, Note_on_c, 9, 42, 95
5, 145920, Note_on_c, 9, 40, 95
5, 146400, Note_off_c, 9, 51, 95
5, 146400, Note_off_c, 9, 42, 95
5, 146400, Note_off_c, 9, 40, 95
5, 146400, Note_on_c, 9, 42, 95
5, 146880, Note_off_c, 9, 42, 95
5, 146880, Note_on_c, 9, 51, 95
5, 146880, Note_on_c, 9, 42, 95
5, 146880, Note_on_c, 9, 40, 95
5, 147360, Note_off_c, 9, 51, 95
5, 147360, Note_off_c, 9, 42, 95
5, 147360, Note_off_c, 9, 40, 95
5, 147360, Note_on_c, 9, 42, 95
5, 147600, Note_off_c, 9, 42, 95
5, 147600, Note_on_c, 9, 51, 95
5, 147600, Note_on_c, 9, 40, 95
5, 147840, Note_off_c, 9, 51, 95
5, 147840, Note_off_c, 9, 40, 95
5, 147840, Note_on_c, 9, 51, 95
5, 147840, Note_on_c, 9, 42, 95
5, 147840, Note_on_c, 9, 36, 95
5, 148080, Note_off_c, 9, 51, 95
5, 148080, Note_off_c, 9, 42, 95
5, 148080, Note_off_c, 9, 36, 95
5, 148080, Note_on_c, 9, 40, 95
5, 148320, Note_off_c, 9, 40, 95
5, 148320, Note_on_c, 9, 51, 95
5, 148320, Note_on_c, 9, 36, 95
5, 148560, Note_off_c, 9, 51, 95
5, 148560, Note_off_c, 9, 36, 95
5, 148560, Note_on_c, 9, 51, 95
5, 148560, Note_on_c, 9, 36, 95
5, 148800, Note_off_c, 9, 51, 95
5, 148800, Note_off_c, 9, 36, 95
5, 148800, Note_on_c, 9, 51, 95
5, 148800, Note_on_c, 9, 42, 95
5, 148800, Note_on_c, 9, 40, 95
5, 149280, Note_off_c, 9, 51, 95
5, 149280, Note_off_c, 9, 42, 95
5, 149280, Note_off_c, 9, 40, 95
5, 149280, Note_on_c, 9, 42, 95
5, 149520, Note_off_c, 9, 42, 95
5, 149520, Note_on_c, 9, 51, 95
5, 149520, Note_on_c, 9, 40, 95
5, 149760, Note_off_c, 9, 51, 95
5, 149760, Note_off_c, 9, 40, 95
5, 149760, Note_on_c, 9, 51, 95
5, 149760, Note_on_c, 9, 42, 95
5, 149760, Note_on_c, 9, 40, 95
5, 150240, Note_off_c, 9, 51, 95
5, 150240, Note_off_c, 9, 42, 95
5, 150240, Note_off_c, 9, 40, 95
5, 150240, Note_on_c, 9, 51, 95
5, 150240, Note_on_c, 9, 50, 95
5, 150480, Note_off_c, 9, 51, 95
5, 150480, Note_off_c, 9, 50, 95
5, 150480, Note_on_c, 9, 51, 95
5, 150480, Note_on_c, 9, 40, 95
5, 150720, Note_off_c, 9, 51, 95
5, 150720, Note_off_c, 9, 40, 95
5, 150720, Note_on_c, 9, 51, 95
5, 150720, Note_on_c, 9, 40, 95
5, 150960, Note_off_c, 9, 51, 95
5, 150960, Note_off_c, 9, 40, 95
5, 150960, Note_on_c, 9, 51, 95
5, 150960, Note_on_c, 9, 40, 95
5, 151200, Note_off_c, 9, 51, 95
5, 151200, Note_off_c, 9, 40, 95
5, 151200, Note_on_c, 9, 51, 95
5, 151200, Note_on_c, 9, 47, 95
5, 151440, Note_off_c, 9, 51, 95
5, 151440, Note_off_c, 9, 47, 95
5, 151440, Note_on_c, 9, 51, 95
5, 151440, Note_on_c, 9, 40, 95
5, 151680, Note_off_c, 9, 51, 95
5, 151680, Note_off_c, 9, 40, 95
5, 151680, Note_on_c, 9, 51, 95
5, 151680, Note_on_c, 9, 40, 95
5, 151920, Note_off_c, 9, 51, 95
5, 151920, Note_off_c, 9, 40, 95
5, 151920, Note_on_c, 9, 51, 95
5, 151920, Note_on_c, 9, 40, 95
5, 152160, Note_off_c, 9, 51, 95
5, 152160, Note_off_c, 9, 40, 95
5, 152160, Note_on_c, 9, 51, 95
5, 152160, Note_on_c, 9, 40, 95
5, 152400, Note_off_c, 9, 51, 95
5, 152400, Note_off_c, 9, 40, 95
5, 152400, Note_on_c, 9, 51, 95
5, 152400, Note_on_c, 9, 40, 95
5, 152640, Note_off_c, 9, 51, 95
5, 152640, Note_off_c, 9, 40, 95
5, 152640, Note_on_c, 9, 51, 95
5, 152640, Note_on_c, 9, 45, 95
5, 152880, Note_off_c, 9, 51, 95
5, 152880, Note_off_c, 9, 45, 95
5, 152880, Note_on_c, 9, 51, 95
5, 152880, Note_on_c, 9, 45, 95
5, 153120, Note_off_c, 9, 51, 95
5, 153120, Note_off_c, 9, 45, 95
5, 153120, Note_on_c, 9, 51, 95
5, 153120, Note_on_c, 9, 41, 95
5, 153600, Note_off_c, 9, 51, 95
5, 153600, Note_off_c, 9, 41, 95
5, 153600, Note_on_c, 9, 49, 95
5, 153600, Note_on_c, 9, 42, 95
5, 153600, Note_on_c, 9, 36, 95
5, 154080, Note_off_c, 9, 49, 95
5, 154080, Note_off_c, 9, 42, 95
5, 154080, Note_off_c, 9, 36, 95
5, 154080, Note_on_c, 9, 51, 95
5, 154080, Note_on_c, 9, 42, 95
5, 154080, Note_on_c, 9, 36, 95
5, 154320, Note_off_c, 9, 51, 95
5, 154320, Note_off_c, 9, 42, 95
5, 154320, Note_off_c, 9, 36, 95
5, 154320, Note_on_c, 9, 51, 95
5, 154320, Note_on_c, 9, 42, 95
5, 154320, Note_on_c, 9, 36, 95
5, 154560, Note_off_c, 9, 51, 95
5, 154560, Note_off_c, 9, 42, 95
5, 154560, Note_off_c, 9, 36, 95
5, 154560, Note_on_c, 9, 51, 95
5, 154560, Note_on_c, 9, 40, 95
5, 154800, Note_off_c, 9, 51, 95
5, 154800, Note_off_c, 9, 40, 95
5, 154800, Note_on_c, 9, 51, 95
5, 154800, Note_on_c, 9, 42, 95
5, 154800, Note_on_c, 9, 36, 95
5, 155280, Note_off_c, 9, 51, 95
5, 155280, Note_off_c, 9, 42, 95
5, 155280, Note_off_c, 9, 36, 95
5, 155280, Note_on_c, 9, 51, 95
5, 155280, Note_on_c, 9, 40, 95
5, 155520, Note_off_c, 9, 51, 95
5, 155520, Note_off_c, 9, 40, 95
5, 155520, Note_on_c, 9, 51, 95
5, 155520, Note_on_c, 9, 42, 95
5, 155520, Note_on_c, 9, 36, 95
5, 155760, Note_off_c, 9, 51, 95
5, 155760, Note_off_c, 9, 42, 95
5, 155760, Note_off_c, 9, 36, 95
5, 155760, Note_on_c, 9, 40, 95
5, 156000, Note_off_c, 9, 40, 95
5, 156000, Note_on_c, 9, 51, 95
5, 156000, Note_on_c, 9, 46, 95
5, 156000, Note_on_c, 9, 36, 95
5, 156240, Note_off_c, 9, 51, 95
5, 156240, Note_off_c, 9, 46, 95
5, 156240, Note_off_c, 9, 36, 95
5, 156240, Note_on_c, 9, 51, 95
5, 156240, Note_on_c, 9, 36, 95
5, 156480, Note_off_c, 9, 51, 95
5, 156480, Note_off_c, 9, 36, 95
5, 156480, Note_on_c, 9, 51, 95
5, 156480, Note_on_c, 9, 40, 95
5, 156960, Note_off_c, 9, 51, 95
5, 156960, Note_off_c, 9, 40, 95
5, 156960, Note_on_c, 9, 42, 95
5, 157200, Note_off_c, 9, 42, 95
5, 157200, Note_on_c, 9, 51, 95
5, 157200, Note_on_c, 9, 40, 95
5, 157440, Note_off_c, 9, 51, 95
5, 157440, Note_off_c, 9, 40, 95
5, 157440, Note_on_c, 9, 49, 95
5, 157440, Note_on_c, 9, 42, 95
5, 157440, Note_on_c, 9, 36, 95
5, 157920, Note_off_c, 9, 49, 95
5, 157920, Note_off_c, 9, 42, 95
5, 157920, Note_off_c, 9, 36, 95
5, 157920, Note_on_c, 9, 51, 95
5, 157920, Note_on_c, 9, 42, 95
5, 157920, Note_on_c, 9, 36, 95
5, 158160, Note_off_c, 9, 51, 95
5, 158160, Note_off_c, 9, 42, 95
5, 158160, Note_off_c, 9, 36, 95
5, 158160, Note_on_c, 9, 51, 95
5, 158160, Note_on_c, 9, 42, 95
5, 158160, Note_on_c, 9, 36, 95
5, 158400, Note_off_c, 9, 51, 95
5, 158400, Note_off_c, 9, 42, 95
5, 158400, Note_off_c, 9, 36, 95
5, 158400, Note_on_c, 9, 51, 95
5, 158400, Note_on_c, 9, 40, 95
5, 158640, Note_off_c, 9, 51, 95
5, 158640, Note_off_c, 9, 40, 95
5, 158640, Note_on_c, 9, 51, 95
5, 158640, Note_on_c, 9, 42, 95
5, 158640, Note_on_c, 9, 36, 95
5, 159120, Note_off_c, 9, 51, 95
5, 159120, Note_off_c, 9, 42, 95
5, 159120, Note_off_c, 9, 36, 95
5, 159120, Note_on_c, 9, 51, 95
5, 159120, Note_on_c, 9, 40, 95
5, 159360, Note_off_c, 9, 51, 95
5, 159360, Note_off_c, 9, 40, 95
5, 159360, Note_on_c, 9, 51, 95
5, 159360, Note_on_c, 9, 42, 95
5, 159360, Note_on_c, 9, 36, 95
5, 159600, Note_off_c, 9, 51, 95
5, 159600, Note_off_c, 9, 42, 95
5, 159600, Note_off_c, 9, 36, 95
5, 159600, Note_on_c, 9, 40, 95
5, 159840, Note_off_c, 9, 40, 95
5, 159840, Note_on_c, 9, 51, 95
5, 159840, Note_on_c, 9, 46, 95
5, 159840, Note_on_c, 9, 36, 95
5, 160080, Note_off_c, 9, 51, 95
5, 160080, Note_off_c, 9, 46, 95
5, 160080, Note_off_c, 9, 36, 95
5, 160080, Note_on_c, 9, 51, 95
5, 160080, Note_on_c, 9, 36, 95
5, 160320, Note_off_c, 9, 51, 95
5, 160320, Note_off_c, 9, 36, 95
5, 160320, Note_on_c, 9, 51, 95
5, 160320, Note_on_c, 9, 40, 95
5, 160800, Note_off_c, 9, 51, 95
5, 160800, Note_off_c, 9, 40, 95
5, 160800, Note_on_c, 9, 42, 95
5, 161040, Note_off_c, 9, 42, 95
5, 161040, Note_on_c, 9, 51, 95
5, 161040, Note_on_c, 9, 40, 95
5, 161280, Note_off_c, 9, 51, 95
5, 161280, Note_off_c, 9, 40, 95
5, 161280, Note_on_c, 9, 49, 95
5, 161280, Note_on_c, 9, 42, 95
5, 161280, Note_on_c, 9, 36, 95
5, 161760, Note_off_c, 9, 49, 95
5, 161760, Note_off_c, 9, 42, 95
5, 161760, Note_off_c, 9, 36, 95
5, 161760, Note_on_c, 9, 51, 95
5, 161760, Note_on_c, 9, 42, 95
5, 161760, Note_on_c, 9, 36, 95
5, 162000, Note_off_c, 9, 51, 95
5, 162000, Note_off_c, 9, 42, 95
5, 162000, Note_off_c, 9, 36, 95
5, 162000, Note_on_c, 9, 51, 95
5, 162000, Note_on_c, 9, 42, 95
5, 162000, Note_on_c, 9, 36, 95
5, 162240, Note_off_c, 9, 51, 95
5, 162240, Note_off_c, 9, 42, 95
5, 162240, Note_off_c, 9, 36, 95
5, 162240, Note_on_c, 9, 51, 95
5, 162240, Note_on_c, 9, 40, 95
5, 162480, Note_off_c, 9, 51, 95
5, 162480, Note_off_c, 9, 40, 95
5, 162480, Note_on_c, 9, 51, 95
5, 162480, Note_on_c, 9, 42, 95
5, 162480, Note_on_c, 9, 36, 95
5, 162960, Note_off_c, 9, 51, 95
5, 162960, Note_off_c, 9, 42, 95
5, 162960, Note_off_c, 9, 36, 95
5, 162960, Note_on_c, 9, 51, 95
5, 162960, Note_on_c, 9, 40, 95
5, 163200, Note_off_c, 9, 51, 95
5, 163200, Note_off_c, 9, 40, 95
5, 163200, Note_on_c, 9, 51, 95
5, 163200, Note_on_c, 9, 42, 95
5, 163200, Note_on_c, 9, 36, 95
5, 163440, Note_off_c, 9, 51, 95
5, 163440, Note_off_c, 9, 42, 95
5, 163440, Note_off_c, 9, 36, 95
5, 163440, Note_on_c, 9, 40, 95
5, 163680, Note_off_c, 9, 40, 95
5, 163680, Note_on_c, 9, 51, 95
5, 163680, Note_on_c, 9, 46, 95
5, 163680, Note_on_c, 9, 36, 95
5, 163920, Note_off_c, 9, 51, 95
5, 163920, Note_off_c, 9, 46, 95
5, 163920, Note_off_c, 9, 36, 95
5, 163920, Note_on_c, 9, 51, 95
5, 163920, Note_on_c, 9, 36, 95
5, 164160, Note_off_c, 9, 51, 95
5, 164160, Note_off_c, 9, 36, 95
5, 164160, Note_on_c, 9, 51, 95
5, 164160, Note_on_c, 9, 40, 95
5, 164640, Note_off_c, 9, 51, 95
5, 164640, Note_off_c, 9, 40, 95
5, 164640, Note_on_c, 9, 42, 95
5, 164880, Note_off_c, 9, 42, 95
5, 164880, Note_on_c, 9, 51, 95
5, 164880, Note_on_c, 9, 40, 95
5, 165120, Note_off_c, 9, 51, 95
5, 165120, Note_off_c, 9, 40, 95
5, 165120, Note_on_c, 9, 49, 95
5, 165120, Note_on_c, 9, 42, 95
5, 165120, Note_on_c, 9, 36, 95
5, 165600, Note_off_c, 9, 49, 95
5, 165600, Note_off_c, 9, 42, 95
5, 165600, Note_off_c, 9, 36, 95
5, 165600, Note_on_c, 9, 51, 95
5, 165600, Note_on_c, 9, 42, 95
5, 165600, Note_on_c, 9, 36, 95
5, 165840, Note_off_c, 9, 51, 95
5, 165840, Note_off_c, 9, 42, 95
5, 165840, Note_off_c, 9, 36, 95
5, 165840, Note_on_c, 9, 51, 95
5, 165840, Note_on_c, 9, 42, 95
5, 165840, Note_on_c, 9, 36, 95
5, 166080, Note_off_c, 9, 51, 95
5, 166080, Note_off_c, 9, 42, 95
5, 166080, Note_off_c, 9, 36, 95
5, 166080, Note_on_c, 9, 51, 95
5, 166080, Note_on_c, 9, 40, 95
5, 166320, Note_off_c, 9, 51, 95
5, 166320, Note_off_c, 9, 40, 95
5, 166320, Note_on_c, 9, 51, 95
5, 166320, Note_on_c, 9, 42, 95
5, 166320, Note_on_c, 9, 36, 95
5, 166800, Note_off_c, 9, 51, 95
5, 166800, Note_off_c, 9, 42, 95
5, 166800, Note_off_c, 9, 36, 95
5, 166800, Note_on_c, 9, 51, 95
5, 166800, Note_on_c, 9, 40, 95
5, 167040, Note_off_c, 9, 51, 95
5, 167040, Note_off_c, 9, 40, 95
5, 167040, Note_on_c, 9, 51, 95
5, 167040, Note_on_c, 9, 42, 95
5, 167040, Note_on_c, 9, 36, 95
5, 167280, Note_off_c, 9, 51, 95
5, 167280, Note_off_c, 9, 42, 95
5, 167280, Note_off_c, 9, 36, 95
5, 167280, Note_on_c, 9, 40, 95
5, 167520, Note_off_c, 9, 40, 95
5, 167520, Note_on_c, 9, 51, 95
5, 167520, Note_on_c, 9, 46, 95
5, 167520, Note_on_c, 9, 36, 95
5, 167760, Note_off_c, 9, 51, 95
5, 167760, Note_off_c, 9, 46, 95
5, 167760, Note_off_c, 9, 36, 95
5, 167760, Note_on_c, 9, 51, 95
5, 167760, Note_on_c, 9, 36, 95
5, 168000, Note_off_c, 9, 51, 95
5, 168000, Note_off_c, 9, 36, 95
5, 168000, Note_on_c, 9, 51, 95
5, 168000, Note_on_c, 9, 40, 95
5, 168480, Note_off_c, 9, 51, 95
5, 168480, Note_off_c, 9, 40, 95
5, 168480, Note_on_c, 9, 42, 95
5, 168720, Note_off_c, 9, 42, 95
5, 168720, Note_on_c, 9, 51, 95
5, 168720, Note_on_c, 9, 40, 95
5, 168960, Note_off_c, 9, 51, 95
5, 168960, Note_off_c, 9, 40, 95
5, 168960, Note_on_c, 9, 49, 95
5, 168960, Note_on_c, 9, 42, 95
5, 168960, Note_on_c, 9, 36, 95
5, 169200, Note_off_c, 9, 49, 95
5, 169200, Note_off_c, 9, 42, 95
5, 169200, Note_off_c, 9, 36, 95
5, 169200, Note_on_c, 9, 40, 95
5, 169440, Note_off_c, 9, 40, 95
5, 169440, Note_on_c, 9, 51, 95
5, 169440, Note_on_c, 9, 42, 95
5, 169440, Note_on_c, 9, 36, 95
5, 169680, Note_off_c, 9, 51, 95
5, 169680, Note_off_c, 9, 42, 95
5, 169680, Note_off_c, 9, 36, 95
5, 169680, Note_on_c, 9, 51, 95
5, 169680, Note_on_c, 9, 36, 95
5, 169920, Note_off_c, 9, 51, 95
5, 169920, Note_off_c, 9, 36, 95
5, 169920, Note_on_c, 9, 51, 95
5, 169920, Note_on_c, 9, 42, 95
5, 169920, Note_on_c, 9, 40, 95
5, 170160, Note_off_c, 9, 51, 95
5, 170160, Note_off_c, 9, 42, 95
5, 170160, Note_off_c, 9, 40, 95
5, 170160, Note_on_c, 9, 51, 95
5, 170160, Note_on_c, 9, 36, 95
5, 170400, Note_off_c, 9, 51, 95
5, 170400, Note_off_c, 9, 36, 95
5, 170400, Note_on_c, 9, 42, 95
5, 170400, Note_on_c, 9, 40, 95
5, 170640, Note_off_c, 9, 42, 95
5, 170640, Note_off_c, 9, 40, 95
5, 170640, Note_on_c, 9, 51, 95
5, 170640, Note_on_c, 9, 40, 95
5, 170880, Note_off_c, 9, 51, 95
5, 170880, Note_off_c, 9, 40, 95
5, 170880, Note_on_c, 9, 51, 95
5, 170880, Note_on_c, 9, 42, 95
5, 170880, Note_on_c, 9, 36, 95
5, 171120, Note_off_c, 9, 51, 95
5, 171120, Note_off_c, 9, 42, 95
5, 171120, Note_off_c, 9, 36, 95
5, 171120, Note_on_c, 9, 40, 95
5, 171360, Note_off_c, 9, 40, 95
5, 171360, Note_on_c, 9, 51, 95
5, 171360, Note_on_c, 9, 46, 95
5, 171360, Note_on_c, 9, 36, 95
5, 171600, Note_off_c, 9, 51, 95
5, 171600, Note_off_c, 9, 46, 95
5, 171600, Note_off_c, 9, 36, 95
5, 171600, Note_on_c, 9, 51, 95
5, 171600, Note_on_c, 9, 36, 95
5, 171840, Note_off_c, 9, 51, 95
5, 171840, Note_off_c, 9, 36, 95
5, 171840, Note_on_c, 9, 51, 95
5, 171840, Note_on_c, 9, 40, 95
5, 172320, Note_off_c, 9, 51, 95
5, 172320, Note_off_c, 9, 40, 95
5, 172320, Note_on_c, 9, 42, 95
5, 172560, Note_off_c, 9, 42, 95
5, 172560, Note_on_c, 9, 51, 95
5, 172560, Note_on_c, 9, 40, 95
5, 172800, Note_off_c, 9, 51, 95
5, 172800, Note_off_c, 9, 40, 95
5, 172800, Note_on_c, 9, 49, 95
5, 172800, Note_on_c, 9, 42, 95
5, 172800, Note_on_c, 9, 36, 95
5, 173040, Note_off_c, 9, 49, 95
5, 173040, Note_off_c, 9, 42, 95
5, 173040, Note_off_c, 9, 36, 95
5, 173040, Note_on_c, 9, 40, 95
5, 173280, Note_off_c, 9, 40, 95
5, 173280, Note_on_c, 9, 51, 95
5, 173280, Note_on_c, 9, 42, 95
5, 173280, Note_on_c, 9, 36, 95
5, 173520, Note_off_c, 9, 51, 95
5, 173520, Note_off_c, 9, 42, 95
5, 173520, Note_off_c, 9, 36, 95
5, 173520, Note_on_c, 9, 51, 95
5, 173520, Note_on_c, 9, 36, 95
5, 173760, Note_off_c, 9, 51, 95
5, 173760, Note_off_c, 9, 36, 95
5, 173760, Note_on_c, 9, 51, 95
5, 173760, Note_on_c, 9, 42, 95
5, 173760, Note_on_c, 9, 40, 95
5, 174000, Note_off_c, 9, 51, 95
5, 174000, Note_off_c, 9, 42, 95
5, 174000, Note_off_c, 9, 40, 95
5, 174000, Note_on_c, 9, 51, 95
5, 174000, Note_on_c, 9, 36, 95
5, 174240, Note_off_c, 9, 51, 95
5, 174240, Note_off_c, 9, 36, 95
5, 174240, Note_on_c, 9, 42, 95
5, 174240, Note_on_c, 9, 40, 95
5, 174480, Note_off_c, 9, 42, 95
5, 174480, Note_off_c, 9, 40, 95
5, 174480, Note_on_c, 9, 51, 95
5, 174480, Note_on_c, 9, 40, 95
5, 174720, Note_off_c, 9, 51, 95
5, 174720, Note_off_c, 9, 40, 95
5, 174720, Note_on_c, 9, 51, 95
5, 174720, Note_on_c, 9, 42, 95
5, 174720, Note_on_c, 9, 36, 95
5, 174960, Note_off_c, 9, 51, 95
5, 174960, Note_off_c, 9, 42, 95
5, 174960, Note_off_c, 9, 36, 95
5, 174960, Note_on_c, 9, 40, 95
5, 175200, Note_off_c, 9, 40, 95
5, 175200, Note_on_c, 9, 51, 95
5, 175200, Note_on_c, 9, 46, 95
5, 175200, Note_on_c, 9, 36, 95
5, 175440, Note_off_c, 9, 51, 95
5, 175440, Note_off_c, 9, 46, 95
5, 175440, Note_off_c, 9, 36, 95
5, 175440, Note_on_c, 9, 51, 95
5, 175440, Note_on_c, 9, 36, 95
5, 175680, Note_off_c, 9, 51, 95
5, 175680, Note_off_c, 9, 36, 95
5, 175680, Note_on_c, 9, 51, 95
5, 175680, Note_on_c, 9, 40, 95
5, 176160, Note_off_c, 9, 51, 95
5, 176160, Note_off_c, 9, 40, 95
5, 176160, Note_on_c, 9, 42, 95
5, 176400, Note_off_c, 9, 42, 95
5, 176400, Note_on_c, 9, 51, 95
5, 176400, Note_on_c, 9, 40, 95
5, 176640, Note_off_c, 9, 51, 95
5, 176640, Note_off_c, 9, 40, 95
5, 176640, Note_on_c, 9, 49, 95
5, 176640, Note_on_c, 9, 42, 95
5, 176640, Note_on_c, 9, 36, 95
5, 176880, Note_off_c, 9, 49, 95
5, 176880, Note_off_c, 9, 42, 95
5, 176880, Note_off_c, 9, 36, 95
5, 176880, Note_on_c, 9, 40, 95
5, 177120, Note_off_c, 9, 40, 95
5, 177120, Note_on_c, 9, 51, 95
5, 177120, Note_on_c, 9, 42, 95
5, 177120, Note_on_c, 9, 36, 95
5, 177360, Note_off_c, 9, 51, 95
5, 177360, Note_off_c, 9, 42, 95
5, 177360, Note_off_c, 9, 36, 95
5, 177360, Note_on_c, 9, 51, 95
5, 177360, Note_on_c, 9, 36, 95
5, 177600, Note_off_c, 9, 51, 95
5, 177600, Note_off_c, 9, 36, 95
5, 177600, Note_on_c, 9, 51, 95
5, 177600, Note_on_c, 9, 42, 95
5, 177600, Note_on_c, 9, 40, 95
5, 177840, Note_off_c, 9, 51, 95
5, 177840, Note_off_c, 9, 42, 95
5, 177840, Note_off_c, 9, 40, 95
5, 177840, Note_on_c, 9, 51, 95
5, 177840, Note_on_c, 9, 36, 95
5, 178080, Note_off_c, 9, 51, 95
5, 178080, Note_off_c, 9, 36, 95
5, 178080, Note_on_c, 9, 42, 95
5, 178080, Note_on_c, 9, 40, 95
5, 178320, Note_off_c, 9, 42, 95
5, 178320, Note_off_c, 9, 40, 95
5, 178320, Note_on_c, 9, 51, 95
5, 178320, Note_on_c, 9, 40, 95
5, 178560, Note_off_c, 9, 51, 95
5, 178560, Note_off_c, 9, 40, 95
5, 178560, Note_on_c, 9, 51, 95
5, 178560, Note_on_c, 9, 42, 95
5, 178560, Note_on_c, 9, 36, 95
5, 178800, Note_off_c, 9, 51, 95
5, 178800, Note_off_c, 9, 42, 95
5, 178800, Note_off_c, 9, 36, 95
5, 178800, Note_on_c, 9, 40, 95
5, 179040, Note_off_c, 9, 40, 95
5, 179040, Note_on_c, 9, 51, 95
5, 179040, Note_on_c, 9, 46, 95
5, 179040, Note_on_c, 9, 36, 95
5, 179280, Note_off_c, 9, 51, 95
5, 179280, Note_off_c, 9, 46, 95
5, 179280, Note_off_c, 9, 36, 95
5, 179280, Note_on_c, 9, 51, 95
5, 179280, Note_on_c, 9, 36, 95
5, 179520, Note_off_c, 9, 51, 95
5, 179520, Note_off_c, 9, 36, 95
5, 179520, Note_on_c, 9, 51, 95
5, 179520, Note_on_c, 9, 40, 95
5, 180000, Note_off_c, 9, 51, 95
5, 180000, Note_off_c, 9, 40, 95
5, 180000, Note_on_c, 9, 42, 95
5, 180240, Note_off_c, 9, 42, 95
5, 180240, Note_on_c, 9, 51, 95
5, 180240, Note_on_c, 9, 40, 95
5, 180480, Note_off_c, 9, 51, 95
5, 180480, Note_off_c, 9, 40, 95
5, 180480, Note_on_c, 9, 49, 95
5, 180480, Note_on_c, 9, 42, 95
5, 180480, Note_on_c, 9, 36, 95
5, 180720, Note_off_c, 9, 49, 95
5, 180720, Note_off_c, 9, 42, 95
5, 180720, Note_off_c, 9, 36, 95
5, 180720, Note_on_c, 9, 40, 95
5, 180960, Note_off_c, 9, 40, 95
5, 180960, Note_on_c, 9, 51, 95
5, 180960, Note_on_c, 9, 42, 95
5, 180960, Note_on_c, 9, 36, 95
5, 181200, Note_off_c, 9, 51, 95
5, 181200, Note_off_c, 9, 42, 95
5, 181200, Note_off_c, 9, 36, 95
5, 181200, Note_on_c, 9, 51, 95
5, 181200, Note_on_c, 9, 36, 95
5, 181440, Note_off_c, 9, 51, 95
5, 181440, Note_off_c, 9, 36, 95
5, 181440, Note_on_c, 9, 51, 95
5, 181440, Note_on_c, 9, 42, 95
5, 181440, Note_on_c, 9, 40, 95
5, 181680, Note_off_c, 9, 51, 95
5, 181680, Note_off_c, 9, 42, 95
5, 181680, Note_off_c, 9, 40, 95
5, 181680, Note_on_c, 9, 51, 95
5, 181680, Note_on_c, 9, 36, 95
5, 181920, Note_off_c, 9, 51, 95
5, 181920, Note_off_c, 9, 36, 95
5, 181920, Note_on_c, 9, 42, 95
5, 181920, Note_on_c, 9, 40, 95
5, 182160, Note_off_c, 9, 42, 95
5, 182160, Note_off_c, 9, 40, 95
5, 182160, Note_on_c, 9, 51, 95
5, 182160, Note_on_c, 9, 40, 95
5, 182400, Note_off_c, 9, 51, 95
5, 182400, Note_off_c, 9, 40, 95
5, 182400, Note_on_c, 9, 51, 95
5, 182400, Note_on_c, 9, 42, 95
5, 182400, Note_on_c, 9, 36, 95
5, 182640, Note_off_c, 9, 51, 95
5, 182640, Note_off_c, 9, 42, 95
5, 182640, Note_off_c, 9, 36, 95
5, 182640, Note_on_c, 9, 40, 95
5, 182880, Note_off_c, 9, 40, 95
5, 182880, Note_on_c, 9, 51, 95
5, 182880, Note_on_c, 9, 46, 95
5, 182880, Note_on_c, 9, 36, 95
5, 183120, Note_off_c, 9, 51, 95
5, 183120, Note_off_c, 9, 46, 95
5, 183120, Note_off_c, 9, 36, 95
5, 183120, Note_on_c, 9, 51, 95
5, 183120, Note_on_c, 9, 36, 95
5, 183360, Note_off_c, 9, 51, 95
5, 183360, Note_off_c, 9, 36, 95
5, 183360, Note_on_c, 9, 51, 95
5, 183360, Note_on_c, 9, 40, 95
5, 183840, Note_off_c, 9, 51, 95
5, 183840, Note_off_c, 9, 40, 95
5, 183840, Note_on_c, 9, 42, 95
5, 184080, Note_off_c, 9, 42, 95
5, 184080, Note_on_c, 9, 51, 95
5, 184080, Note_on_c, 9, 40, 95
5, 184320, Note_off_c, 9, 51, 95
5, 184320, Note_off_c, 9, 40, 95
5, 184320, Note_on_c, 9, 49, 95
5, 184320, Note_on_c, 9, 42, 95
5, 184320, Note_on_c, 9, 36, 95
5, 184800, Note_off_c, 9, 49, 95
5, 184800, Note_off_c, 9, 42, 95
5, 184800, Note_off_c, 9, 36, 95
5, 184800, Note_on_c, 9, 51, 95
5, 184800, Note_on_c, 9, 42, 95
5, 184800, Note_on_c, 9, 36, 95
5, 185040, Note_off_c, 9, 51, 95
5, 185040, Note_off_c, 9, 42, 95
5, 185040, Note_off_c, 9, 36, 95
5, 185040, Note_on_c, 9, 51, 95
5, 185040, Note_on_c, 9, 42, 95
5, 185040, Note_on_c, 9, 36, 95
5, 185280, Note_off_c, 9, 51, 95
5, 185280, Note_off_c, 9, 42, 95
5, 185280, Note_off_c, 9, 36, 95
5, 185280, Note_on_c, 9, 51, 95
5, 185280, Note_on_c, 9, 40, 95
5, 185520, Note_off_c, 9, 51, 95
5, 185520, Note_off_c, 9, 40, 95
5, 185520, Note_on_c, 9, 51, 95
5, 185520, Note_on_c, 9, 42, 95
5, 186000, Note_off_c, 9, 51, 95
5, 186000, Note_off_c, 9, 42, 95
5, 186000, Note_on_c, 9, 51, 95
5, 186000, Note_on_c, 9, 40, 95
5, 186240, Note_off_c, 9, 51, 95
5, 186240, Note_off_c, 9, 40, 95
5, 186240, Note_on_c, 9, 51, 95
5, 186240, Note_on_c, 9, 42, 95
5, 186240, Note_on_c, 9, 36, 95
5, 186720, Note_off_c, 9, 51, 95
5, 186720, Note_off_c, 9, 42, 95
5, 186720, Note_off_c, 9, 36, 95
5, 186720, Note_on_c, 9, 51, 95
5, 186720, Note_on_c, 9, 46, 95
5, 187200, Note_off_c, 9, 51, 95
5, 187200, Note_off_c, 9, 46, 95
5, 187200, Note_on_c, 9, 51, 95
5, 187200, Note_on_c, 9, 40, 95
5, 187680, Note_off_c, 9, 51, 95
5, 187680, Note_off_c, 9, 40, 95
5, 187680, Note_on_c, 9, 42, 95
5, 187920, Note_off_c, 9, 42, 95
5, 187920, Note_on_c, 9, 51, 95
5, 187920, Note_on_c, 9, 40, 95
5, 188160, Note_off_c, 9, 51, 95
5, 188160, Note_off_c, 9, 40, 95
5, 188160, Note_on_c, 9, 49, 95
5, 188160, Note_on_c, 9, 42, 95
5, 188160, Note_on_c, 9, 36, 95
5, 188640, Note_off_c, 9, 49, 95
5, 188640, Note_off_c, 9, 42, 95
5, 188640, Note_off_c, 9, 36, 95
5, 188640, Note_on_c, 9, 51, 95
5, 188640, Note_on_c, 9, 42, 95
5, 188640, Note_on_c, 9, 36, 95
5, 188880, Note_off_c, 9, 51, 95
5, 188880, Note_off_c, 9, 42, 95
5, 188880, Note_off_c, 9, 36, 95
5, 188880, Note_on_c, 9, 51, 95
5, 188880, Note_on_c, 9, 42, 95
5, 188880, Note_on_c, 9, 36, 95
5, 189120, Note_off_c, 9, 51, 95
5, 189120, Note_off_c, 9, 42, 95
5, 189120, Note_off_c, 9, 36, 95
5, 189120, Note_on_c, 9, 51, 95
5, 189120, Note_on_c, 9, 40, 95
5, 189360, Note_off_c, 9, 51, 95
5, 189360, Note_off_c, 9, 40, 95
5, 189360, Note_on_c, 9, 51, 95
5, 189360, Note_on_c, 9, 42, 95
5, 189840, Note_off_c, 9, 51, 95
5, 189840, Note_off_c, 9, 42, 95
5, 189840, Note_on_c, 9, 51, 95
5, 189840, Note_on_c, 9, 40, 95
5, 190080, Note_off_c, 9, 51, 95
5, 190080, Note_off_c, 9, 40, 95
5, 190080, Note_on_c, 9, 51, 95
5, 190080, Note_on_c, 9, 42, 95
5, 190080, Note_on_c, 9, 36, 95
5, 190560, Note_off_c, 9, 51, 95
5, 190560, Note_off_c, 9, 42, 95
5, 190560, Note_off_c, 9, 36, 95
5, 190560, Note_on_c, 9, 51, 95
5, 190560, Note_on_c, 9, 46, 95
5, 191040, Note_off_c, 9, 51, 95
5, 191040, Note_off_c, 9, 46, 95
5, 191040, Note_on_c, 9, 51, 95
5, 191040, Note_on_c, 9, 40, 95
5, 191520, Note_off_c, 9, 51, 95
5, 191520, Note_off_c, 9, 40, 95
5, 191520, Note_on_c, 9, 42, 95
5, 191760, Note_off_c, 9, 42, 95
5, 191760, Note_on_c, 9, 51, 95
5, 191760, Note_on_c, 9, 40, 95
5, 192000, Note_off_c, 9, 51, 95
5, 192000, Note_off_c, 9, 40, 95
5, 192000, Note_on_c, 9, 49, 95
5, 192000, Note_on_c, 9, 42, 95
5, 192000, Note_on_c, 9, 36, 95
5, 192480, Note_off_c, 9, 49, 95
5, 192480, Note_off_c, 9, 42, 95
5, 192480, Note_off_c, 9, 36, 95
5, 192480, Note_on_c, 9, 51, 95
5, 192480, Note_on_c, 9, 42, 95
5, 192480, Note_on_c, 9, 36, 95
5, 192720, Note_off_c, 9, 51, 95
5, 192720, Note_off_c, 9, 42, 95
5, 192720, Note_off_c, 9, 36, 95
5, 192720, Note_on_c, 9, 51, 95
5, 192720, Note_on_c, 9, 42, 95
5, 192720, Note_on_c, 9, 36, 95
5, 192960, Note_off_c, 9, 51, 95
5, 192960, Note_off_c, 9, 42, 95
5, 192960, Note_off_c, 9, 36, 95
5, 192960, Note_on_c, 9, 51, 95
5, 192960, Note_on_c, 9, 40, 95
5, 193200, Note_off_c, 9, 51, 95
5, 193200, Note_off_c, 9, 40, 95
5, 193200, Note_on_c, 9, 51, 95
5, 193200, Note_on_c, 9, 42, 95
5, 193680, Note_off_c, 9, 51, 95
5, 193680, Note_off_c, 9, 42, 95
5, 193680, Note_on_c, 9, 51, 95
5, 193680, Note_on_c, 9, 40, 95
5, 193920, Note_off_c, 9, 51, 95
5, 193920, Note_off_c, 9, 40, 95
5, 193920, Note_on_c, 9, 51, 95
5, 193920, Note_on_c, 9, 42, 95
5, 193920, Note_on_c, 9, 36, 95
5, 194400, Note_off_c, 9, 51, 95
5, 194400, Note_off_c, 9, 42, 95
5, 194400, Note_off_c, 9, 36, 95
5, 194400, Note_on_c, 9, 51, 95
5, 194400, Note_on_c, 9, 46, 95
5, 194880, Note_off_c, 9, 51, 95
5, 194880, Note_off_c, 9, 46, 95
5, 194880, Note_on_c, 9, 51, 95
5, 194880, Note_on_c, 9, 40, 95
5, 195360, Note_off_c, 9, 51, 95
5, 195360, Note_off_c, 9, 40, 95
5, 195360, Note_on_c, 9, 42, 95
5, 195600, Note_off_c, 9, 42, 95
5, 195600, Note_on_c, 9, 51, 95
5, 195600, Note_on_c, 9, 40, 95
5, 195840, Note_off_c, 9, 51, 95
5, 195840, Note_off_c, 9, 40, 95
5, 195840, Note_on_c, 9, 49, 95
5, 195840, Note_on_c, 9, 42, 95
5, 195840, Note_on_c, 9, 36, 95
5, 196320, Note_off_c, 9, 49, 95
5, 196320, Note_off_c, 9, 42, 95
5, 196320, Note_off_c, 9, 36, 95
5, 196320, Note_on_c, 9, 51, 95
5, 196320, Note_on_c, 9, 42, 95
5, 196320, Note_on_c, 9, 36, 95
5, 196560, Note_off_c, 9, 51, 95
5, 196560, Note_off_c, 9, 42, 95
5, 196560, Note_off_c, 9, 36, 95
5, 196560, Note_on_c, 9, 51, 95
5, 196560, Note_on_c, 9, 42, 95
5, 196560, Note_on_c, 9, 36, 95
5, 196800, Note_off_c, 9, 51, 95
5, 196800, Note_off_c, 9, 42, 95
5, 196800, Note_off_c, 9, 36, 95
5, 196800, Note_on_c, 9, 51, 95
5, 196800, Note_on_c, 9, 40, 95
5, 197040, Note_off_c, 9, 51, 95
5, 197040, Note_off_c, 9, 40, 95
5, 197040, Note_on_c, 9, 51, 95
5, 197040, Note_on_c, 9, 42, 95
5, 197520, Note_off_c, 9, 51, 95
5, 197520, Note_off_c, 9, 42, 95
5, 197520, Note_on_c, 9, 51, 95
5, 197520, Note_on_c, 9, 40, 95
5, 197760, Note_off_c, 9, 51, 95
5, 197760, Note_off_c, 9, 40, 95
5, 197760, Note_on_c, 9, 51, 95
5, 197760, Note_on_c, 9, 42, 95
5, 197760, Note_on_c, 9, 36, 95
5, 198240, Note_off_c, 9, 51, 95
5, 198240, Note_off_c, 9, 42, 95
5, 198240, Note_off_c, 9, 36, 95
5, 198240, Note_on_c, 9, 51, 95
5, 198240, Note_on_c, 9, 46, 95
5, 198720, Note_off_c, 9, 51, 95
5, 198720, Note_off_c, 9, 46, 95
5, 198720, Note_on_c, 9, 51, 95
5, 198720, Note_on_c, 9, 40, 95
5, 199200, Note_off_c, 9, 51, 95
5, 199200, Note_off_c, 9, 40, 95
5, 199200, Note_on_c, 9, 42, 95
5, 199440, Note_off_c, 9, 42, 95
5, 199440, Note_on_c, 9, 51, 95
5, 199440, Note_on_c, 9, 40, 95
5, 199680, Note_off_c, 9, 51, 95
5, 199680, Note_off_c, 9, 40, 95
5, 199680, Note_on_c, 9, 49, 95
5, 199680, Note_on_c, 9, 42, 95
5, 199680, Note_on_c, 9, 36, 95
5, 199920, Note_off_c, 9, 49, 95
5, 199920, Note_off_c, 9, 42, 95
5, 199920, Note_off_c, 9, 36, 95
5, 199920, Note_on_c, 9, 40, 95
5, 200160, Note_off_c, 9, 40, 95
5, 200160, Note_on_c, 9, 51, 95
5, 200160, Note_on_c, 9, 42, 95
5, 200160, Note_on_c, 9, 36, 95
5, 200400, Note_off_c, 9, 51, 95
5, 200400, Note_off_c, 9, 42, 95
5, 200400, Note_off_c, 9, 36, 95
5, 200400, Note_on_c, 9, 51, 95
5, 200400, Note_on_c, 9, 36, 95
5, 200640, Note_off_c, 9, 51, 95
5, 200640, Note_off_c, 9, 36, 95
5, 200640, Note_on_c, 9, 51, 95
5, 200640, Note_on_c, 9, 42, 95
5, 200640, Note_on_c, 9, 40, 95
5, 200880, Note_off_c, 9, 51, 95
5, 200880, Note_off_c, 9, 42, 95
5, 200880, Note_off_c, 9, 40, 95
5, 200880, Note_on_c, 9, 51, 95
5, 200880, Note_on_c, 9, 36, 95
5, 201120, Note_off_c, 9, 51, 95
5, 201120, Note_off_c, 9, 36, 95
5, 201120, Note_on_c, 9, 42, 95
5, 201120, Note_on_c, 9, 40, 95
5, 201360, Note_off_c, 9, 42, 95
5, 201360, Note_off_c, 9, 40, 95
5, 201360, Note_on_c, 9, 51, 95
5, 201360, Note_on_c, 9, 40, 95
5, 201600, Note_off_c, 9, 51, 95
5, 201600, Note_off_c, 9, 40, 95
5, 201600, Note_on_c, 9, 51, 95
5, 201600, Note_on_c, 9, 42, 95
5, 201600, Note_on_c, 9, 36, 95
5, 201840, Note_off_c, 9, 51, 95
5, 201840, Note_off_c, 9, 42, 95
5, 201840, Note_off_c, 9, 36, 95
5, 201840, Note_on_c, 9, 40, 95
5, 202080, Note_off_c, 9, 40, 95
5, 202080, Note_on_c, 9, 51, 95
5, 202080, Note_on_c, 9, 46, 95
5, 202080, Note_on_c, 9, 36, 95
5, 202320, Note_off_c, 9, 51, 95
5, 202320, Note_off_c, 9, 46, 95
5, 202320, Note_off_c, 9, 36, 95
5, 202320, Note_on_c, 9, 51, 95
5, 202320, Note_on_c, 9, 36, 95
5, 202560, Note_off_c, 9, 51, 95
5, 202560, Note_off_c, 9, 36, 95
5, 202560, Note_on_c, 9, 51, 95
5, 202560, Note_on_c, 9, 40, 95
5, 203040, Note_off_c, 9, 51, 95
5, 203040, Note_off_c, 9, 40, 95
5, 203040, Note_on_c, 9, 42, 95
5, 203280, Note_off_c, 9, 42, 95
5, 203280, Note_on_c, 9, 51, 95
5, 203280, Note_on_c, 9, 40, 95
5, 203520, Note_off_c, 9, 51, 95
5, 203520, Note_off_c, 9, 40, 95
5, 203520, Note_on_c, 9, 49, 95
5, 203520, Note_on_c, 9, 42, 95
5, 203520, Note_on_c, 9, 36, 95
5, 203760, Note_off_c, 9, 49, 95
5, 203760, Note_off_c, 9, 42, 95
5, 203760, Note_off_c, 9, 36, 95
5, 203760, Note_on_c, 9, 40, 95
5, 204000, Note_off_c, 9, 40, 95
5, 204000, Note_on_c, 9, 51, 95
5, 204000, Note_on_c, 9, 42, 95
5, 204000, Note_on_c, 9, 36, 95
5, 204240, Note_off_c, 9, 51, 95
5, 204240, Note_off_c, 9, 42, 95
5, 204240, Note_off_c, 9, 36, 95
5, 204240, Note_on_c, 9, 51, 95
5, 204240, Note_on_c, 9, 36, 95
5, 204480, Note_off_c, 9, 51, 95
5, 204480, Note_off_c, 9, 36, 95
5, 204480, Note_on_c, 9, 51, 95
5, 204480, Note_on_c, 9, 42, 95
5, 204480, Note_on_c, 9, 40, 95
5, 204720, Note_off_c, 9, 51, 95
5, 204720, Note_off_c, 9, 42, 95
5, 204720, Note_off_c, 9, 40, 95
5, 204720, Note_on_c, 9, 51, 95
5, 204720, Note_on_c, 9, 36, 95
5, 204960, Note_off_c, 9, 51, 95
5, 204960, Note_off_c, 9, 36, 95
5, 204960, Note_on_c, 9, 42, 95
5, 204960, Note_on_c, 9, 40, 95
5, 205200, Note_off_c, 9, 42, 95
5, 205200, Note_off_c, 9, 40, 95
5, 205200, Note_on_c, 9, 51, 95
5, 205200, Note_on_c, 9, 40, 95
5, 205440, Note_off_c, 9, 51, 95
5, 205440, Note_off_c, 9, 40, 95
5, 205440, Note_on_c, 9, 51, 95
5, 205440, Note_on_c, 9, 42, 95
5, 205440, Note_on_c, 9, 36, 95
5, 205680, Note_off_c, 9, 51, 95
5, 205680, Note_off_c, 9, 42, 95
5, 205680, Note_off_c, 9, 36, 95
5, 205680, Note_on_c, 9, 40, 95
5, 205920, Note_off_c, 9, 40, 95
5, 205920, Note_on_c, 9, 51, 95
5, 205920, Note_on_c, 9, 46, 95
5, 205920, Note_on_c, 9, 36, 95
5, 206160, Note_off_c, 9, 51, 95
5, 206160, Note_off_c, 9, 46, 95
5, 206160, Note_off_c, 9, 36, 95
5, 206160, Note_on_c, 9, 51, 95
5, 206160, Note_on_c, 9, 36, 95
5, 206400, Note_off_c, 9, 51, 95
5, 206400, Note_off_c, 9, 36, 95
5, 206400, Note_on_c, 9, 51, 95
5, 206400, Note_on_c, 9, 40, 95
5, 206880, Note_off_c, 9, 51, 95
5, 206880, Note_off_c, 9, 40, 95
5, 206880, Note_on_c, 9, 42, 95
5, 207120, Note_off_c, 9, 42, 95
5, 207120, Note_on_c, 9, 51, 95
5, 207120, Note_on_c, 9, 40, 95
5, 207360, Note_off_c, 9, 51, 95
5, 207360, Note_off_c, 9, 40, 95
5, 207360, Note_on_c, 9, 49, 95
5, 207360, Note_on_c, 9, 42, 95
5, 207360, Note_on_c, 9, 36, 95
5, 207600, Note_off_c, 9, 49, 95
5, 207600, Note_off_c, 9, 42, 95
5, 207600, Note_off_c, 9, 36, 95
5, 207600, Note_on_c, 9, 40, 95
5, 207840, Note_off_c, 9, 40, 95
5, 207840, Note_on_c, 9, 51, 95
5, 207840, Note_on_c, 9, 42, 95
5, 207840, Note_on_c, 9, 36, 95
5, 208080, Note_off_c, 9, 51, 95
5, 208080, Note_off_c, 9, 42, 95
5, 208080, Note_off_c, 9, 36, 95
5, 208080, Note_on_c, 9, 51, 95
5, 208080, Note_on_c, 9, 36, 95
5, 208320, Note_off_c, 9, 51, 95
5, 208320, Note_off_c, 9, 36, 95
5, 208320, Note_on_c, 9, 51, 95
5, 208320, Note_on_c, 9, 42, 95
5, 208320, Note_on_c, 9, 40, 95
5, 208560, Note_off_c, 9, 51, 95
5, 208560, Note_off_c, 9, 42, 95
5, 208560, Note_off_c, 9, 40, 95
5, 208560, Note_on_c, 9, 51, 95
5, 208560, Note_on_c, 9, 36, 95
5, 208800, Note_off_c, 9, 51, 95
5, 208800, Note_off_c, 9, 36, 95
5, 208800, Note_on_c, 9, 42, 95
5, 208800, Note_on_c, 9, 40, 95
5, 209040, Note_off_c, 9, 42, 95
5, 209040, Note_off_c, 9, 40, 95
5, 209040, Note_on_c, 9, 51, 95
5, 209040, Note_on_c, 9, 40, 95
5, 209280, Note_off_c, 9, 51, 95
5, 209280, Note_off_c, 9, 40, 95
5, 209280, Note_on_c, 9, 51, 95
5, 209280, Note_on_c, 9, 42, 95
5, 209280, Note_on_c, 9, 36, 95
5, 209520, Note_off_c, 9, 51, 95
5, 209520, Note_off_c, 9, 42, 95
5, 209520, Note_off_c, 9, 36, 95
5, 209520, Note_on_c, 9, 40, 95
5, 209760, Note_off_c, 9, 40, 95
5, 209760, Note_on_c, 9, 51, 95
5, 209760, Note_on_c, 9, 46, 95
5, 209760, Note_on_c, 9, 36, 95
5, 210000, Note_off_c, 9, 51, 95
5, 210000, Note_off_c, 9, 46, 95
5, 210000, Note_off_c, 9, 36, 95
5, 210000, Note_on_c, 9, 51, 95
5, 210000, Note_on_c, 9, 36, 95
5, 210240, Note_off_c, 9, 51, 95
5, 210240, Note_off_c, 9, 36, 95
5, 210240, Note_on_c, 9, 51, 95
5, 210240, Note_on_c, 9, 40, 95
5, 210720, Note_off_c, 9, 51, 95
5, 210720, Note_off_c, 9, 40, 95
5, 210720, Note_on_c, 9, 42, 95
5, 210960, Note_off_c, 9, 42, 95
5, 210960, Note_on_c, 9, 51, 95
5, 210960, Note_on_c, 9, 40, 95
5, 211200, Note_off_c, 9, 51, 95
5, 211200, Note_off_c, 9, 40, 95
5, 211200, Note_on_c, 9, 49, 95
5, 211200, Note_on_c, 9, 42, 95
5, 211200, Note_on_c, 9, 36, 95
5, 211440, Note_off_c, 9, 49, 95
5, 211440, Note_off_c, 9, 42, 95
5, 211440, Note_off_c, 9, 36, 95
5, 211440, Note_on_c, 9, 40, 95
5, 211680, Note_off_c, 9, 40, 95
5, 211680, Note_on_c, 9, 51, 95
5, 211680, Note_on_c, 9, 42, 95
5, 211680, Note_on_c, 9, 36, 95
5, 211920, Note_off_c, 9, 51, 95
5, 211920, Note_off_c, 9, 42, 95
5, 211920, Note_off_c, 9, 36, 95
5, 211920, Note_on_c, 9, 51, 95
5, 211920, Note_on_c, 9, 36, 95
5, 212160, Note_off_c, 9, 51, 95
5, 212160, Note_off_c, 9, 36, 95
5, 212160, Note_on_c, 9, 51, 95
5, 212160, Note_on_c, 9, 42, 95
5, 212160, Note_on_c, 9, 40, 95
5, 212400, Note_off_c, 9, 51, 95
5, 212400, Note_off_c, 9, 42, 95
5, 212400, Note_off_c, 9, 40, 95
5, 212400, Note_on_c, 9, 51, 95
5, 212400, Note_on_c, 9, 36, 95
5, 212640, Note_off_c, 9, 51, 95
5, 212640, Note_off_c, 9, 36, 95
5, 212640, Note_on_c, 9, 42, 95
5, 212640, Note_on_c, 9, 40, 95
5, 212880, Note_off_c, 9, 42, 95
5, 212880, Note_off_c, 9, 40, 95
5, 212880, Note_on_c, 9, 51, 95
5, 212880, Note_on_c, 9, 40, 95
5, 213120, Note_off_c, 9, 51, 95
5, 213120, Note_off_c, 9, 40, 95
5, 213120, Note_on_c, 9, 51, 95
5, 213120, Note_on_c, 9, 42, 95
5, 213120, Note_on_c, 9, 36, 95
5, 213360, Note_off_c, 9, 51, 95
5, 213360, Note_off_c, 9, 42, 95
5, 213360, Note_off_c, 9, 36, 95
5, 213360, Note_on_c, 9, 40, 95
5, 213600, Note_off_c, 9, 40, 95
5, 213600, Note_on_c, 9, 51, 95
5, 213600, Note_on_c, 9, 46, 95
5, 213600, Note_on_c, 9, 36, 95
5, 213840, Note_off_c, 9, 51, 95
5, 213840, Note_off_c, 9, 46, 95
5, 213840, Note_off_c, 9, 36, 95
5, 213840, Note_on_c, 9, 51, 95
5, 213840, Note_on_c, 9, 36, 95
5, 214080, Note_off_c, 9, 51, 95
5, 214080, Note_off_c, 9, 36, 95
5, 214080, Note_on_c, 9, 51, 95
5, 214080, Note_on_c, 9, 40, 95
5, 214560, Note_off_c, 9, 51, 95
5, 214560, Note_off_c, 9, 40, 95
5, 214560, Note_on_c, 9, 42, 95
5, 214800, Note_off_c, 9, 42, 95
5, 214800, Note_on_c, 9, 51, 95
5, 214800, Note_on_c, 9, 40, 95
5, 215040, Note_off_c, 9, 51, 95
5, 215040, Note_off_c, 9, 40, 95
5, 215040, Note_on_c, 9, 49, 95
5, 215040, Note_on_c, 9, 42, 95
5, 215040, Note_on_c, 9, 36, 95
5, 215520, Note_off_c, 9, 49, 95
5, 215520, Note_off_c, 9, 42, 95
5, 215520, Note_off_c, 9, 36, 95
5, 215520, Note_on_c, 9, 51, 95
5, 215520, Note_on_c, 9, 42, 95
5, 215520, Note_on_c, 9, 36, 95
5, 215760, Note_off_c, 9, 51, 95
5, 215760, Note_off_c, 9, 42, 95
5, 215760, Note_off_c, 9, 36, 95
5, 215760, Note_on_c, 9, 51, 95
5, 215760, Note_on_c, 9, 42, 95
5, 215760, Note_on_c, 9, 36, 95
5, 216000, Note_off_c, 9, 51, 95
5, 216000, Note_off_c, 9, 42, 95
5, 216000, Note_off_c, 9, 36, 95
5, 216000, Note_on_c, 9, 51, 95
5, 216000, Note_on_c, 9, 40, 95
5, 216240, Note_off_c, 9, 51, 95
5, 216240, Note_off_c, 9, 40, 95
5, 216240, Note_on_c, 9, 51, 95
5, 216240, Note_on_c, 9, 42, 95
5, 216720, Note_off_c, 9, 51, 95
5, 216720, Note_off_c, 9, 42, 95
5, 216720, Note_on_c, 9, 51, 95
5, 216720, Note_on_c, 9, 40, 95
5, 216960, Note_off_c, 9, 51, 95
5, 216960, Note_off_c, 9, 40, 95
5, 216960, Note_on_c, 9, 51, 95
5, 216960, Note_on_c, 9, 42, 95
5, 216960, Note_on_c, 9, 36, 95
5, 217440, Note_off_c, 9, 51, 95
5, 217440, Note_off_c, 9, 42, 95
5, 217440, Note_off_c, 9, 36, 95
5, 217440, Note_on_c, 9, 51, 95
5, 217440, Note_on_c, 9, 46, 95
5, 217920, Note_off_c, 9, 51, 95
5, 217920, Note_off_c, 9, 46, 95
5, 217920, Note_on_c, 9, 51, 95
5, 217920, Note_on_c, 9, 40, 95
5, 218400, Note_off_c, 9, 51, 95
5, 218400, Note_off_c, 9, 40, 95
5, 218400, Note_on_c, 9, 42, 95
5, 218640, Note_off_c, 9, 42, 95
5, 218640, Note_on_c, 9, 51, 95
5, 218640, Note_on_c, 9, 40, 95
5, 218880, Note_off_c, 9, 51, 95
5, 218880, Note_off_c, 9, 40, 95
5, 218880, Note_on_c, 9, 49, 95
5, 218880, Note_on_c, 9, 42, 95
5, 218880, Note_on_c, 9, 36, 95
5, 219360, Note_off_c, 9, 49, 95
5, 219360, Note_off_c, 9, 42, 95
5, 219360, Note_off_c, 9, 36, 95
5, 219360, Note_on_c, 9, 51, 95
5, 219360, Note_on_c, 9, 42, 95
5, 219360, Note_on_c, 9, 36, 95
5, 219600, Note_off_c, 9, 51, 95
5, 219600, Note_off_c, 9, 42, 95
5, 219600, Note_off_c, 9, 36, 95
5, 219600, Note_on_c, 9, 51, 95
5, 219600, Note_on_c, 9, 42, 95
5, 219600, Note_on_c, 9, 36, 95
5, 219840, Note_off_c, 9, 51, 95
5, 219840, Note_off_c, 9, 42, 95
5, 219840, Note_off_c, 9, 36, 95
5, 219840, Note_on_c, 9, 51, 95
5, 219840, Note_on_c, 9, 40, 95
5, 220080, Note_off_c, 9, 51, 95
5, 220080, Note_off_c, 9, 40, 95
5, 220080, Note_on_c, 9, 51, 95
5, 220080, Note_on_c, 9, 42, 95
5, 220560, Note_off_c, 9, 51, 95
5, 220560, Note_off_c, 9, 42, 95
5, 220560, Note_on_c, 9, 51, 95
5, 220560, Note_on_c, 9, 40, 95
5, 220800, Note_off_c, 9, 51, 95
5, 220800, Note_off_c, 9, 40, 95
5, 220800, Note_on_c, 9, 51, 95
5, 220800, Note_on_c, 9, 42, 95
5, 220800, Note_on_c, 9, 36, 95
5, 221280, Note_off_c, 9, 51, 95
5, 221280, Note_off_c, 9, 42, 95
5, 221280, Note_off_c, 9, 36, 95
5, 221280, Note_on_c, 9, 51, 95
5, 221280, Note_on_c, 9, 46, 95
5, 221760, Note_off_c, 9, 51, 95
5, 221760, Note_off_c, 9, 46, 95
5, 221760, Note_on_c, 9, 51, 95
5, 221760, Note_on_c, 9, 40, 95
5, 222240, Note_off_c, 9, 51, 95
5, 222240, Note_off_c, 9, 40, 95
5, 222240, Note_on_c, 9, 42, 95
5, 222480, Note_off_c, 9, 42, 95
5, 222480, Note_on_c, 9, 51, 95
5, 222480, Note_on_c, 9, 40, 95
5, 222720, Note_off_c, 9, 51, 95
5, 222720, Note_off_c, 9, 40, 95
5, 222720, End_track
0, 0, End_of_file
