0, 0, Header, 0, 1, 96
1, 0, Start_track
1, 0, Title_t, "Little Wing GS"
1, 0, Copyright_t, "(c)1993 Hal Leonard Publishing"
1, 0, SMPTE_offset, 96, 0, 0, 0, 0
1, 0, Time_signature, 4, 2, 24, 8
1, 0, Tempo, 1000000
1, 0, System_exclusive, 10, 65, 16, 66, 18, 64, 0, 127, 0, 65, 247
1, 101, Control_c, 1, 0, 0
1, 102, Control_c, 1, 32, 0
1, 103, Program_c, 1, 33
1, 104, Control_c, 1, 7, 100
1, 104, Control_c, 1, 10, 64
1, 104, Control_c, 1, 11, 127
1, 105, Control_c, 1, 91, 20
1, 105, Control_c, 1, 93, 0
1, 106, Control_c, 2, 0, 0
1, 107, Control_c, 2, 32, 0
1, 108, Program_c, 2, 26
1, 109, Control_c, 2, 7, 100
1, 109, Control_c, 2, 10, 50
1, 109, Control_c, 2, 11, 127
1, 110, Control_c, 2, 91, 110
1, 110, Control_c, 2, 93, 40
1, 111, Control_c, 3, 0, 0
1, 112, Control_c, 3, 32, 0
1, 113, Program_c, 3, 29
1, 114, Control_c, 3, 7, 110
1, 114, Control_c, 3, 10, 78
1, 114, Control_c, 3, 11, 127
1, 115, Control_c, 3, 91, 110
1, 115, Control_c, 3, 93, 40
1, 141, Control_c, 9, 0, 0
1, 142, Control_c, 9, 32, 0
1, 143, Program_c, 9, 0
1, 144, Control_c, 9, 7, 110
1, 144, Control_c, 9, 10, 64
1, 144, Control_c, 9, 11, 127
1, 145, Control_c, 9, 91, 80
1, 145, Control_c, 9, 93, 0
1, 192, Control_c, 2, 99, 1
1, 193, Control_c, 2, 98, 32
1, 194, Control_c, 2, 6, 70
1, 195, Control_c, 2, 99, 1
1, 196, Control_c, 2, 98, 33
1, 197, Control_c, 2, 6, 50
1, 198, Control_c, 2, 99, 1
1, 199, Control_c, 2, 98, 100
1, 200, Control_c, 2, 6, 72
1, 201, Control_c, 2, 101, 127
1, 202, Control_c, 2, 100, 127
1, 384, Note_on_c, 9, 42, 100
1, 387, Note_off_c, 9, 42, 64
1, 480, Note_on_c, 9, 42, 70
1, 483, Note_off_c, 9, 42, 64
1, 576, Note_on_c, 9, 42, 70
1, 579, Note_off_c, 9, 42, 64
1, 672, Note_on_c, 9, 42, 70
1, 675, Note_off_c, 9, 42, 64
1, 768, Note_on_c, 9, 42, 100
1, 771, Note_off_c, 9, 42, 64
1, 864, Note_on_c, 9, 42, 70
1, 867, Note_off_c, 9, 42, 64
1, 960, Note_on_c, 9, 42, 70
1, 963, Note_off_c, 9, 42, 64
1, 1052, Note_on_c, 2, 66, 83
1, 1053, Note_on_c, 2, 61, 81
1, 1075, Note_off_c, 2, 66, 64
1, 1076, Note_off_c, 2, 61, 64
1, 1077, Note_on_c, 2, 70, 93
1, 1077, Note_on_c, 2, 66, 92
1, 1077, Note_on_c, 2, 75, 98
1, 1114, Note_off_c, 2, 70, 64
1, 1114, Note_off_c, 2, 66, 64
1, 1115, Note_off_c, 2, 75, 64
1, 1115, Note_on_c, 2, 74, 63
1, 1119, Note_on_c, 2, 73, 63
1, 1120, Note_off_c, 2, 74, 64
1, 1122, Note_on_c, 2, 72, 63
1, 1125, Note_off_c, 2, 73, 64
1, 1125, Note_on_c, 2, 71, 63
1, 1127, Note_off_c, 2, 72, 64
1, 1128, Note_on_c, 2, 70, 63
1, 1130, Note_off_c, 2, 71, 64
1, 1131, Note_on_c, 2, 69, 63
1, 1132, Note_off_c, 2, 70, 64
1, 1134, Note_on_c, 2, 68, 63
1, 1135, Note_off_c, 2, 69, 64
1, 1136, Note_on_c, 2, 67, 63
1, 1138, Note_on_c, 2, 66, 51
1, 1139, Note_off_c, 2, 68, 64
1, 1141, Note_off_c, 2, 67, 64
1, 1141, Note_on_c, 2, 65, 51
1, 1144, Note_off_c, 2, 66, 64
1, 1144, Note_on_c, 2, 64, 51
1, 1146, Note_off_c, 2, 65, 64
1, 1147, Note_on_c, 2, 63, 51
1, 1150, Note_off_c, 2, 64, 64
1, 1152, Note_on_c, 9, 44, 82
1, 1154, Note_on_c, 2, 39, 104
1, 1155, Note_off_c, 2, 63, 64
1, 1155, Note_off_c, 9, 44, 64
1, 1198, Note_off_c, 2, 39, 64
1, 1200, Note_on_c, 9, 44, 50
1, 1203, Note_off_c, 9, 44, 64
1, 1248, Note_on_c, 2, 56, 82
1, 1248, Note_on_c, 2, 61, 82
1, 1248, Note_on_c, 2, 65, 94
1, 1248, Note_on_c, 3, 65, 94
1, 1248, Note_on_c, 3, 61, 82
1, 1249, Note_off_c, 2, 61, 64
1, 1249, Note_off_c, 2, 65, 64
1, 1249, Note_on_c, 3, 56, 82
1, 1249, Note_on_c, 9, 44, 70
1, 1250, Note_off_c, 2, 56, 64
1, 1252, Note_off_c, 9, 44, 64
1, 1252, Note_off_c, 3, 56, 64
1, 1252, Note_off_c, 3, 61, 64
1, 1252, Note_off_c, 3, 65, 64
1, 1276, Note_on_c, 2, 56, 82
1, 1276, Note_on_c, 3, 56, 82
1, 1277, Note_on_c, 3, 65, 82
1, 1277, Note_on_c, 3, 61, 82
1, 1277, Note_on_c, 2, 61, 82
1, 1277, Note_on_c, 2, 65, 82
1, 1278, Note_off_c, 2, 56, 64
1, 1279, Note_off_c, 2, 61, 64
1, 1279, Note_off_c, 2, 65, 64
1, 1279, Note_on_c, 2, 49, 82
1, 1279, Note_on_c, 3, 49, 82
1, 1281, Note_off_c, 3, 61, 64
1, 1281, Note_off_c, 3, 65, 64
1, 1281, Note_off_c, 2, 49, 64
1, 1281, Note_off_c, 3, 56, 64
1, 1284, Note_off_c, 3, 49, 64
1, 1296, Note_on_c, 9, 44, 29
1, 1299, Note_off_c, 9, 44, 64
1, 1342, Note_on_c, 2, 49, 71
1, 1344, Note_on_c, 9, 44, 65
1, 1347, Note_off_c, 9, 44, 64
1, 1369, Note_off_c, 2, 49, 64
1, 1370, Note_on_c, 2, 51, 80
1, 1388, Note_off_c, 2, 51, 64
1, 1389, Note_on_c, 2, 54, 70
1, 1391, Note_on_c, 9, 44, 31
1, 1394, Note_off_c, 9, 44, 64
1, 1420, Note_off_c, 2, 54, 64
1, 1420, Note_on_c, 2, 59, 86
1, 1420, Note_on_c, 2, 63, 104
1, 1428, Note_off_c, 2, 59, 64
1, 1428, Note_on_c, 2, 61, 69
1, 1440, Note_on_c, 9, 44, 76
1, 1443, Note_off_c, 9, 44, 64
1, 1470, Note_off_c, 2, 63, 64
1, 1470, Note_off_c, 2, 61, 64
1, 1471, Note_on_c, 2, 59, 81
1, 1488, Note_off_c, 2, 59, 64
1, 1488, Note_on_c, 2, 54, 86
1, 1488, Note_on_c, 9, 44, 31
1, 1491, Note_off_c, 9, 44, 64
1, 1493, Note_on_c, 2, 56, 75
1, 1494, Note_off_c, 2, 54, 64
1, 1516, Note_on_c, 2, 54, 55
1, 1518, Note_off_c, 2, 56, 64
1, 1520, Note_on_c, 2, 52, 55
1, 1521, Note_off_c, 2, 54, 64
1, 1523, Note_on_c, 2, 51, 55
1, 1524, Note_off_c, 2, 52, 64
1, 1526, Note_on_c, 2, 49, 43
1, 1527, Note_off_c, 2, 51, 64
1, 1529, Note_on_c, 2, 47, 43
1, 1530, Note_off_c, 2, 49, 64
1, 1532, Note_on_c, 2, 46, 31
1, 1533, Note_off_c, 2, 47, 64
1, 1536, Note_on_c, 2, 42, 86
1, 1536, Note_on_c, 2, 41, 94
1, 1536, Note_on_c, 9, 44, 73
1, 1537, Note_off_c, 2, 41, 64
1, 1539, Note_off_c, 9, 44, 64
1, 1542, Note_off_c, 2, 46, 64
1, 1584, Note_on_c, 9, 44, 43
1, 1587, Note_off_c, 9, 44, 64
1, 1601, Note_off_c, 2, 42, 64
1, 1614, Note_on_c, 2, 42, 70
1, 1630, Note_on_c, 2, 61, 97
1, 1631, Note_on_c, 2, 66, 91
1, 1631, Note_on_c, 2, 54, 92
1, 1632, Note_on_c, 2, 68, 109
1, 1632, Note_on_c, 9, 44, 67
1, 1635, Note_off_c, 9, 44, 64
1, 1636, Note_off_c, 2, 42, 64
1, 1638, Note_off_c, 2, 66, 64
1, 1658, Note_off_c, 2, 68, 64
1, 1659, Note_off_c, 2, 61, 64
1, 1660, Note_off_c, 2, 54, 64
1, 1662, Note_on_c, 2, 61, 80
1, 1662, Note_on_c, 2, 54, 67
1, 1662, Note_on_c, 2, 66, 92
1, 1674, Note_off_c, 2, 54, 64
1, 1675, Note_off_c, 2, 66, 64
1, 1675, Note_off_c, 2, 61, 64
1, 1678, Note_on_c, 2, 61, 93
1, 1678, Note_on_c, 2, 54, 85
1, 1679, Note_on_c, 2, 66, 91
1, 1680, Note_on_c, 9, 44, 36
1, 1683, Note_off_c, 9, 44, 64
1, 1707, Note_off_c, 2, 54, 64
1, 1708, Note_on_c, 2, 42, 74
1, 1709, Note_off_c, 2, 61, 64
1, 1710, Note_off_c, 2, 66, 64
1, 1725, Note_on_c, 2, 58, 97
1, 1725, Note_on_c, 2, 61, 95
1, 1726, Note_on_c, 2, 59, 93
1, 1728, Note_on_c, 9, 44, 72
1, 1729, Note_off_c, 2, 42, 64
1, 1731, Note_off_c, 9, 44, 64
1, 1731, Note_off_c, 2, 58, 64
1, 1767, Note_off_c, 2, 61, 64
1, 1769, Note_off_c, 2, 59, 64
1, 1775, Note_on_c, 2, 61, 92
1, 1775, Note_on_c, 2, 59, 93
1, 1775, Note_on_c, 9, 44, 38
1, 1778, Note_off_c, 9, 44, 64
1, 1796, Note_off_c, 2, 61, 64
1, 1800, Note_off_c, 2, 59, 64
1, 1805, Note_on_c, 2, 61, 104
1, 1805, Note_on_c, 2, 58, 102
1, 1823, Note_on_c, 2, 59, 81
1, 1824, Note_off_c, 2, 58, 64
1, 1824, Note_on_c, 9, 44, 77
1, 1827, Note_off_c, 9, 44, 64
1, 1852, Note_off_c, 2, 59, 64
1, 1853, Note_on_c, 2, 58, 63
1, 1869, Note_off_c, 2, 58, 64
1, 1870, Note_on_c, 2, 54, 52
1, 1871, Note_on_c, 9, 44, 30
1, 1874, Note_off_c, 2, 61, 64
1, 1874, Note_off_c, 9, 44, 64
1, 1901, Note_off_c, 2, 54, 64
1, 1903, Note_on_c, 2, 42, 57
1, 1910, Note_on_c, 2, 43, 64
1, 1912, Note_off_c, 2, 42, 64
1, 1918, Note_off_c, 2, 43, 64
1, 1919, Note_on_c, 9, 44, 74
1, 1920, Note_on_c, 2, 44, 82
1, 1922, Note_off_c, 9, 44, 64
1, 1968, Note_on_c, 9, 44, 27
1, 1971, Note_off_c, 9, 44, 64
1, 2003, Note_off_c, 2, 44, 64
1, 2003, Note_on_c, 2, 63, 83
1, 2007, Note_on_c, 2, 59, 88
1, 2010, Note_off_c, 2, 63, 64
1, 2013, Note_on_c, 2, 54, 100
1, 2015, Note_off_c, 2, 59, 64
1, 2016, Note_on_c, 9, 44, 106
1, 2019, Note_off_c, 9, 44, 64
1, 2020, Note_on_c, 2, 49, 101
1, 2021, Note_off_c, 2, 54, 64
1, 2048, Note_off_c, 2, 49, 64
1, 2049, Note_on_c, 2, 51, 98
1, 2063, Note_off_c, 2, 51, 64
1, 2064, Note_on_c, 9, 44, 37
1, 2065, Note_on_c, 2, 54, 115
1, 2067, Note_off_c, 9, 44, 64
1, 2089, Note_off_c, 2, 54, 64
1, 2096, Note_on_c, 2, 39, 98
1, 2112, Note_off_c, 2, 39, 64
1, 2112, Note_on_c, 2, 59, 91
1, 2112, Note_on_c, 9, 44, 101
1, 2113, Note_on_c, 2, 63, 104
1, 2114, Note_on_c, 2, 61, 78
1, 2115, Note_off_c, 9, 44, 64
1, 2118, Note_off_c, 2, 59, 64
1, 2134, Note_off_c, 2, 63, 64
1, 2135, Note_off_c, 2, 61, 64
1, 2140, Note_on_c, 2, 63, 109
1, 2140, Note_on_c, 2, 59, 107
1, 2154, Note_off_c, 2, 59, 64
1, 2155, Note_off_c, 2, 63, 64
1, 2156, Note_on_c, 2, 54, 104
1, 2160, Note_on_c, 9, 44, 41
1, 2162, Note_off_c, 2, 54, 64
1, 2162, Note_on_c, 2, 56, 85
1, 2163, Note_off_c, 9, 44, 64
1, 2183, Note_off_c, 2, 56, 64
1, 2187, Note_on_c, 2, 59, 117
1, 2187, Note_on_c, 2, 56, 96
1, 2206, Note_on_c, 2, 49, 83
1, 2207, Note_on_c, 9, 44, 89
1, 2208, Note_off_c, 2, 59, 64
1, 2209, Note_off_c, 2, 56, 64
1, 2210, Note_off_c, 9, 44, 64
1, 2220, Note_off_c, 2, 49, 64
1, 2221, Note_on_c, 2, 51, 86
1, 2237, Note_off_c, 2, 51, 64
1, 2237, Note_on_c, 2, 59, 106
1, 2237, Note_on_c, 2, 54, 98
1, 2237, Note_on_c, 2, 63, 104
1, 2252, Note_off_c, 2, 59, 64
1, 2252, Note_off_c, 2, 54, 64
1, 2253, Note_off_c, 2, 63, 64
1, 2254, Note_on_c, 2, 49, 72
1, 2256, Note_on_c, 9, 44, 38
1, 2259, Note_off_c, 9, 44, 64
1, 2268, Note_off_c, 2, 49, 64
1, 2269, Note_on_c, 2, 51, 80
1, 2284, Note_off_c, 2, 51, 64
1, 2284, Note_on_c, 2, 54, 63
1, 2284, Note_on_c, 2, 59, 71
1, 2302, Note_off_c, 2, 54, 64
1, 2302, Note_off_c, 2, 59, 64
1, 2303, Note_on_c, 9, 44, 90
1, 2304, Note_on_c, 2, 39, 102
1, 2306, Note_off_c, 9, 44, 64
1, 2352, Note_on_c, 9, 44, 38
1, 2355, Note_off_c, 9, 44, 64
1, 2379, Note_off_c, 2, 39, 64
1, 2386, Note_on_c, 2, 39, 113
1, 2400, Note_on_c, 2, 66, 89
1, 2400, Note_on_c, 9, 44, 99
1, 2403, Note_off_c, 9, 44, 64
1, 2403, Note_on_c, 2, 61, 101
1, 2404, Note_off_c, 2, 39, 64
1, 2404, Note_on_c, 2, 54, 102
1, 2408, Note_off_c, 2, 66, 64
1, 2411, Note_on_c, 2, 68, 92
1, 2429, Note_off_c, 2, 54, 64
1, 2429, Note_off_c, 2, 61, 64
1, 2430, Note_off_c, 2, 68, 64
1, 2432, Note_on_c, 2, 61, 101
1, 2432, Note_on_c, 2, 66, 97
1, 2433, Note_on_c, 2, 54, 88
1, 2444, Note_off_c, 2, 66, 64
1, 2446, Note_off_c, 2, 54, 64
1, 2446, Note_off_c, 2, 61, 64
1, 2448, Note_on_c, 9, 44, 31
1, 2449, Note_on_c, 2, 66, 102
1, 2451, Note_off_c, 9, 44, 64
1, 2474, Note_off_c, 2, 66, 64
1, 2475, Note_on_c, 2, 54, 113
1, 2476, Note_on_c, 2, 49, 95
1, 2489, Note_off_c, 2, 49, 64
1, 2490, Note_off_c, 2, 54, 64
1, 2496, Note_on_c, 2, 49, 81
1, 2496, Note_on_c, 9, 44, 99
1, 2499, Note_off_c, 9, 44, 64
1, 2499, Note_on_c, 2, 51, 91
1, 2500, Note_off_c, 2, 49, 64
1, 2523, Note_off_c, 2, 51, 64
1, 2525, Note_on_c, 2, 54, 84
1, 2525, Note_on_c, 2, 59, 92
1, 2538, Note_off_c, 2, 54, 64
1, 2538, Note_off_c, 2, 59, 64
1, 2544, Note_on_c, 2, 56, 86
1, 2544, Note_on_c, 2, 59, 98
1, 2544, Note_on_c, 9, 44, 15
1, 2547, Note_off_c, 9, 44, 64
1, 2565, Note_off_c, 2, 56, 64
1, 2566, Note_off_c, 2, 59, 64
1, 2571, Note_on_c, 2, 59, 97
1, 2571, Note_on_c, 2, 63, 83
1, 2572, Note_on_c, 2, 56, 74
1, 2575, Note_on_c, 2, 57, 117
1, 2576, Note_off_c, 2, 59, 64
1, 2577, Note_off_c, 2, 63, 64
1, 2577, Note_off_c, 2, 56, 64
1, 2591, Note_off_c, 2, 57, 64
1, 2592, Note_on_c, 2, 56, 84
1, 2592, Note_on_c, 9, 44, 96
1, 2595, Note_off_c, 9, 44, 64
1, 2618, Note_off_c, 2, 56, 64
1, 2623, Note_on_c, 2, 59, 85
1, 2623, Note_on_c, 2, 63, 91
1, 2624, Note_on_c, 2, 54, 88
1, 2638, Note_off_c, 2, 54, 64
1, 2639, Note_off_c, 2, 59, 64
1, 2640, Note_on_c, 9, 44, 20
1, 2641, Note_off_c, 2, 63, 64
1, 2643, Note_off_c, 9, 44, 64
1, 2643, Note_on_c, 2, 51, 95
1, 2670, Note_off_c, 2, 51, 64
1, 2672, Note_on_c, 2, 44, 71
1, 2687, Note_off_c, 2, 44, 64
1, 2688, Note_on_c, 9, 44, 99
1, 2690, Note_on_c, 2, 46, 102
1, 2691, Note_off_c, 9, 44, 64
1, 2736, Note_on_c, 9, 44, 26
1, 2739, Note_off_c, 9, 44, 64
1, 2775, Note_off_c, 2, 46, 64
1, 2783, Note_on_c, 2, 70, 117
1, 2784, Note_on_c, 9, 44, 112
1, 2785, Note_on_c, 2, 65, 108
1, 2787, Note_off_c, 9, 44, 64
1, 2788, Note_on_c, 2, 72, 99
1, 2789, Note_off_c, 2, 70, 64
1, 2828, Note_off_c, 2, 65, 64
1, 2829, Note_off_c, 2, 72, 64
1, 2832, Note_on_c, 2, 70, 89
1, 2832, Note_on_c, 9, 44, 38
1, 2835, Note_off_c, 9, 44, 64
1, 2847, Note_off_c, 2, 70, 64
1, 2847, Note_on_c, 2, 72, 89
1, 2860, Note_off_c, 2, 72, 64
1, 2862, Note_on_c, 2, 70, 101
1, 2863, Note_on_c, 2, 65, 92
1, 2875, Note_off_c, 2, 70, 64
1, 2876, Note_off_c, 2, 65, 64
1, 2880, Note_on_c, 2, 68, 119
1, 2881, Note_on_c, 9, 44, 101
1, 2884, Note_off_c, 9, 44, 64
1, 2890, Pitch_bend_c, 2, 8458
1, 2891, Pitch_bend_c, 2, 9416
1, 2894, Pitch_bend_c, 2, 10320
1, 2898, Pitch_bend_c, 2, 11490
1, 2901, Pitch_bend_c, 2, 12607
1, 2904, Note_off_c, 2, 68, 64
1, 2905, Pitch_bend_c, 2, 9469
1, 2908, Pitch_bend_c, 2, 8192
1, 2908, Note_on_c, 2, 65, 115
1, 2909, Note_on_c, 2, 70, 100
1, 2927, Note_on_c, 9, 44, 32
1, 2930, Note_off_c, 9, 44, 64
1, 2956, Note_off_c, 2, 65, 64
1, 2958, Note_off_c, 2, 70, 64
1, 2958, Note_on_c, 2, 68, 79
1, 2961, Note_on_c, 2, 66, 79
1, 2963, Note_off_c, 2, 68, 64
1, 2964, Note_on_c, 2, 64, 79
1, 2966, Note_on_c, 2, 63, 67
1, 2968, Note_off_c, 2, 66, 64
1, 2968, Note_on_c, 2, 61, 67
1, 2969, Note_off_c, 2, 64, 64
1, 2970, Note_on_c, 2, 59, 67
1, 2971, Note_off_c, 2, 63, 64
1, 2972, Note_on_c, 2, 58, 67
1, 2973, Note_off_c, 2, 61, 64
1, 2974, Note_on_c, 2, 56, 67
1, 2975, Note_off_c, 2, 59, 64
1, 2976, Note_on_c, 9, 44, 97
1, 2977, Note_on_c, 2, 54, 55
1, 2979, Note_off_c, 2, 56, 64
1, 2979, Note_off_c, 2, 58, 64
1, 2979, Note_off_c, 9, 44, 64
1, 2981, Note_on_c, 2, 52, 55
1, 2981, Note_on_c, 2, 44, 55
1, 2982, Note_off_c, 2, 54, 64
1, 2986, Note_off_c, 2, 52, 64
1, 2986, Note_on_c, 2, 45, 55
1, 2988, Note_off_c, 2, 44, 64
1, 3006, Note_off_c, 2, 45, 64
1, 3006, Note_on_c, 2, 45, 99
1, 3012, Note_off_c, 2, 45, 64
1, 3024, Note_on_c, 9, 44, 47
1, 3027, Note_off_c, 9, 44, 64
1, 3031, Note_on_c, 2, 63, 78
1, 3031, Note_on_c, 2, 64, 89
1, 3031, Note_on_c, 2, 69, 112
1, 3032, Note_off_c, 2, 63, 64
1, 3051, Note_off_c, 2, 69, 64
1, 3051, Note_off_c, 2, 64, 64
1, 3052, Note_on_c, 2, 40, 62
1, 3059, Note_off_c, 2, 40, 64
1, 3065, Note_on_c, 2, 39, 2
1, 3071, Note_off_c, 2, 39, 64
1, 3072, Note_on_c, 9, 44, 96
1, 3073, Note_on_c, 2, 59, 104
1, 3073, Note_on_c, 2, 63, 123
1, 3073, Note_on_c, 2, 68, 115
1, 3075, Note_off_c, 9, 44, 64
1, 3095, Note_off_c, 2, 68, 64
1, 3096, Note_off_c, 2, 63, 64
1, 3097, Note_off_c, 2, 59, 64
1, 3118, Note_on_c, 2, 56, 61
1, 3118, Note_on_c, 2, 59, 84
1, 3120, Note_on_c, 9, 44, 39
1, 3123, Note_off_c, 9, 44, 64
1, 3141, Note_off_c, 2, 59, 64
1, 3142, Note_off_c, 2, 56, 64
1, 3166, Note_on_c, 2, 56, 111
1, 3166, Note_on_c, 2, 59, 127
1, 3167, Note_on_c, 9, 44, 86
1, 3170, Note_off_c, 9, 44, 64
1, 3185, Note_off_c, 2, 56, 64
1, 3187, Note_off_c, 2, 59, 64
1, 3192, Note_on_c, 2, 56, 93
1, 3204, Note_off_c, 2, 56, 64
1, 3215, Note_on_c, 9, 44, 39
1, 3216, Note_on_c, 2, 54, 85
1, 3217, Note_on_c, 2, 59, 85
1, 3218, Note_off_c, 9, 44, 64
1, 3225, Note_off_c, 2, 54, 64
1, 3225, Note_on_c, 2, 56, 68
1, 3233, Note_on_c, 2, 54, 67
1, 3234, Note_off_c, 2, 56, 64
1, 3236, Note_off_c, 2, 59, 64
1, 3244, Note_off_c, 2, 54, 64
1, 3247, Note_on_c, 2, 51, 60
1, 3262, Note_off_c, 2, 51, 64
1, 3263, Note_on_c, 9, 44, 93
1, 3265, Note_on_c, 2, 63, 115
1, 3265, Note_on_c, 2, 59, 107
1, 3266, Note_off_c, 9, 44, 64
1, 3271, Note_off_c, 2, 59, 64
1, 3272, Note_on_c, 2, 61, 91
1, 3277, Note_off_c, 2, 63, 64
1, 3278, Note_on_c, 2, 59, 75
1, 3279, Note_off_c, 2, 61, 64
1, 3287, Note_off_c, 2, 59, 64
1, 3287, Note_on_c, 2, 56, 88
1, 3305, Note_off_c, 2, 56, 64
1, 3310, Note_on_c, 2, 54, 92
1, 3311, Note_on_c, 2, 59, 101
1, 3311, Note_on_c, 9, 44, 44
1, 3314, Note_off_c, 9, 44, 64
1, 3316, Note_off_c, 2, 54, 64
1, 3316, Note_on_c, 2, 56, 77
1, 3333, Note_off_c, 2, 56, 64
1, 3335, Note_on_c, 2, 54, 73
1, 3356, Note_off_c, 2, 59, 64
1, 3356, Note_off_c, 2, 54, 64
1, 3359, Note_on_c, 9, 44, 101
1, 3360, Note_on_c, 2, 49, 63
1, 3362, Note_off_c, 9, 44, 64
1, 3376, Note_off_c, 2, 49, 64
1, 3377, Note_on_c, 2, 51, 59
1, 3390, Note_off_c, 2, 51, 64
1, 3394, Note_on_c, 2, 54, 106
1, 3394, Note_on_c, 2, 51, 86
1, 3406, Note_off_c, 2, 54, 64
1, 3407, Note_off_c, 2, 51, 64
1, 3408, Note_on_c, 9, 44, 48
1, 3410, Note_on_c, 2, 49, 49
1, 3411, Note_off_c, 9, 44, 64
1, 3425, Note_on_c, 2, 51, 63
1, 3426, Note_off_c, 2, 49, 64
1, 3436, Note_off_c, 2, 51, 64
1, 3441, Note_on_c, 2, 51, 92
1, 3455, Note_off_c, 2, 51, 64
1, 3455, Note_on_c, 9, 44, 94
1, 3456, Note_on_c, 2, 42, 104
1, 3458, Note_off_c, 9, 44, 64
1, 3504, Note_on_c, 9, 44, 48
1, 3507, Note_off_c, 9, 44, 64
1, 3530, Note_off_c, 2, 42, 64
1, 3538, Note_on_c, 2, 42, 101
1, 3552, Note_off_c, 2, 42, 64
1, 3552, Note_on_c, 9, 44, 93
1, 3554, Note_on_c, 2, 54, 93
1, 3554, Note_on_c, 2, 61, 95
1, 3554, Note_on_c, 2, 68, 102
1, 3554, Note_on_c, 2, 58, 97
1, 3555, Note_off_c, 9, 44, 64
1, 3567, Pitch_bend_c, 2, 16383
1, 3599, Note_off_c, 2, 68, 64
1, 3599, Note_off_c, 2, 61, 64
1, 3600, Note_off_c, 2, 58, 64
1, 3600, Note_on_c, 9, 44, 60
1, 3601, Note_off_c, 2, 54, 64
1, 3603, Note_off_c, 9, 44, 64
1, 3605, Note_on_c, 2, 54, 95
1, 3606, Note_on_c, 2, 58, 89
1, 3606, Note_on_c, 2, 61, 90
1, 3606, Note_on_c, 2, 68, 84
1, 3618, Pitch_bend_c, 2, 13286
1, 3619, Pitch_bend_c, 2, 9663
1, 3620, Pitch_bend_c, 2, 8192
1, 3631, Note_off_c, 2, 54, 64
1, 3634, Note_off_c, 2, 58, 64
1, 3634, Note_off_c, 2, 61, 64
1, 3635, Note_off_c, 2, 68, 64
1, 3635, Note_on_c, 2, 42, 90
1, 3636, Note_on_c, 2, 54, 101
1, 3647, Note_off_c, 2, 42, 64
1, 3648, Note_off_c, 2, 54, 64
1, 3648, Pitch_bend_c, 2, 8827
1, 3648, Note_on_c, 9, 44, 101
1, 3649, Pitch_bend_c, 2, 10660
1, 3650, Note_on_c, 2, 56, 101
1, 3650, Note_on_c, 2, 66, 117
1, 3650, Note_on_c, 2, 59, 115
1, 3651, Note_off_c, 9, 44, 64
1, 3651, Pitch_bend_c, 2, 16383
1, 3662, Pitch_bend_c, 2, 9820
1, 3664, Pitch_bend_c, 2, 9672
1, 3665, Pitch_bend_c, 2, 7886
1, 3666, Pitch_bend_c, 2, 8192
1, 3682, Note_on_c, 2, 40, 98
1, 3683, Note_off_c, 2, 59, 64
1, 3684, Note_off_c, 2, 56, 64
1, 3684, Note_off_c, 2, 66, 64
1, 3696, Note_on_c, 9, 44, 46
1, 3698, Note_on_c, 2, 52, 115
1, 3698, Note_on_c, 2, 56, 109
1, 3698, Note_on_c, 2, 59, 115
1, 3698, Note_on_c, 2, 66, 102
1, 3699, Note_off_c, 9, 44, 64
1, 3700, Note_off_c, 2, 40, 64
1, 3744, Note_on_c, 9, 44, 102
1, 3747, Note_off_c, 9, 44, 64
1, 3770, Note_off_c, 2, 56, 64
1, 3770, Note_off_c, 2, 59, 64
1, 3770, Note_off_c, 2, 52, 64
1, 3771, Note_off_c, 2, 66, 64
1, 3775, Note_on_c, 2, 66, 84
1, 3775, Note_on_c, 2, 56, 86
1, 3776, Note_on_c, 2, 59, 98
1, 3792, Note_on_c, 9, 44, 49
1, 3795, Note_off_c, 9, 44, 64
1, 3818, Note_off_c, 2, 56, 64
1, 3820, Note_off_c, 2, 59, 64
1, 3820, Note_off_c, 2, 66, 64
1, 3823, Note_on_c, 2, 54, 127
1, 3823, Note_on_c, 2, 58, 127
1, 3823, Note_on_c, 2, 49, 117
1, 3833, Note_off_c, 2, 49, 64
1, 3834, Note_off_c, 2, 54, 64
1, 3835, Note_off_c, 2, 58, 64
1, 3840, Time_signature, 2, 2, 24, 8
1, 3840, Note_on_c, 2, 47, 121
1, 3840, Note_on_c, 9, 44, 99
1, 3843, Note_off_c, 9, 44, 64
1, 3877, Note_off_c, 2, 47, 64
1, 3887, Note_on_c, 2, 47, 107
1, 3888, Note_on_c, 9, 44, 43
1, 3891, Note_off_c, 9, 44, 64
1, 3910, Note_off_c, 2, 47, 64
1, 3919, Note_on_c, 2, 47, 100
1, 3931, Note_off_c, 2, 47, 64
1, 3933, Note_on_c, 2, 59, 85
1, 3936, Note_on_c, 9, 44, 97
1, 3938, Note_on_c, 2, 54, 80
1, 3939, Note_off_c, 9, 44, 64
1, 3940, Note_off_c, 2, 59, 64
1, 3943, Note_off_c, 2, 54, 64
1, 3944, Note_on_c, 2, 47, 92
1, 3949, Note_off_c, 2, 47, 64
1, 3951, Note_on_c, 2, 47, 104
1, 3964, Note_off_c, 2, 47, 64
1, 3968, Note_on_c, 2, 47, 91
1, 3980, Note_off_c, 2, 47, 64
1, 3984, Note_on_c, 9, 44, 15
1, 3985, Note_on_c, 2, 47, 95
1, 3987, Note_off_c, 9, 44, 64
1, 4016, Note_off_c, 2, 47, 64
1, 4018, Note_on_c, 2, 59, 121
1, 4032, Time_signature, 4, 2, 24, 8
1, 4032, Note_on_c, 9, 44, 101
1, 4034, Note_on_c, 2, 47, 96
1, 4035, Note_off_c, 9, 44, 64
1, 4050, Note_on_c, 2, 61, 95
1, 4051, Note_off_c, 2, 47, 64
1, 4051, Note_off_c, 2, 59, 64
1, 4051, Note_on_c, 2, 49, 82
1, 4078, Note_off_c, 2, 49, 64
1, 4080, Note_on_c, 9, 44, 45
1, 4083, Note_off_c, 9, 44, 64
1, 4084, Note_on_c, 2, 49, 100
1, 4091, Note_off_c, 2, 61, 64
1, 4110, Note_off_c, 2, 49, 64
1, 4114, Note_on_c, 2, 49, 68
1, 4128, Note_on_c, 9, 44, 110
1, 4131, Note_off_c, 9, 44, 64
1, 4131, Note_on_c, 2, 61, 98
1, 4132, Note_off_c, 2, 49, 64
1, 4139, Note_on_c, 2, 56, 101
1, 4141, Note_off_c, 2, 61, 64
1, 4145, Note_on_c, 2, 49, 90
1, 4158, Note_off_c, 2, 56, 64
1, 4167, Note_off_c, 2, 49, 64
1, 4174, Note_on_c, 2, 56, 113
1, 4174, Note_on_c, 2, 49, 96
1, 4176, Note_on_c, 9, 44, 55
1, 4179, Note_off_c, 9, 44, 64
1, 4202, Note_off_c, 2, 56, 64
1, 4205, Note_off_c, 2, 49, 64
1, 4205, Note_on_c, 2, 39, 93
1, 4223, Note_off_c, 2, 39, 64
1, 4224, Note_on_c, 2, 58, 113
1, 4224, Note_on_c, 2, 61, 104
1, 4224, Note_on_c, 2, 56, 100
1, 4224, Note_on_c, 9, 44, 106
1, 4227, Note_off_c, 2, 56, 64
1, 4227, Note_off_c, 9, 44, 64
1, 4248, Note_off_c, 2, 61, 64
1, 4250, Note_off_c, 2, 58, 64
1, 4253, Note_on_c, 2, 61, 104
1, 4254, Note_on_c, 2, 58, 107
1, 4264, Note_off_c, 2, 61, 64
1, 4266, Note_off_c, 2, 58, 64
1, 4270, Note_on_c, 2, 61, 107
1, 4270, Note_on_c, 2, 56, 107
1, 4272, Note_on_c, 9, 44, 45
1, 4275, Note_off_c, 9, 44, 64
1, 4295, Note_off_c, 2, 61, 64
1, 4297, Note_off_c, 2, 56, 64
1, 4300, Note_on_c, 2, 61, 101
1, 4312, Note_off_c, 2, 61, 64
1, 4317, Note_on_c, 2, 61, 119
1, 4317, Note_on_c, 2, 54, 111
1, 4319, Note_on_c, 9, 44, 101
1, 4322, Note_off_c, 9, 44, 64
1, 4343, Note_off_c, 2, 54, 64
1, 4345, Note_off_c, 2, 61, 64
1, 4348, Note_on_c, 2, 54, 102
1, 4361, Note_off_c, 2, 54, 64
1, 4365, Note_on_c, 2, 51, 101
1, 4366, Note_on_c, 2, 56, 117
1, 4367, Note_on_c, 9, 44, 63
1, 4370, Note_off_c, 9, 44, 64
1, 4391, Note_off_c, 2, 51, 64
1, 4391, Note_off_c, 2, 56, 64
1, 4395, Note_on_c, 2, 56, 98
1, 4395, Note_on_c, 2, 61, 107
1, 4395, Note_on_c, 2, 51, 100
1, 4399, Note_on_c, 9, 40, 78
1, 4402, Note_off_c, 9, 40, 64
1, 4408, Note_off_c, 2, 51, 64
1, 4409, Note_off_c, 2, 56, 64
1, 4410, Note_off_c, 2, 61, 64
1, 4415, Note_on_c, 9, 44, 119
1, 4416, Note_on_c, 9, 40, 37
1, 4416, Note_on_c, 2, 61, 124
1, 4416, Note_on_c, 2, 56, 117
1, 4417, Note_on_c, 2, 52, 107
1, 4418, Note_off_c, 9, 44, 64
1, 4419, Note_off_c, 9, 40, 64
1, 4419, Note_on_c, 2, 53, 108
1, 4428, Note_off_c, 2, 52, 64
1, 4435, Note_off_c, 2, 56, 64
1, 4436, Note_off_c, 2, 61, 64
1, 4442, Note_off_c, 2, 53, 64
1, 4447, Note_on_c, 9, 45, 127
1, 4450, Note_off_c, 9, 45, 64
1, 4464, Note_on_c, 9, 40, 67
1, 4467, Note_off_c, 9, 40, 64
1, 4480, Note_on_c, 9, 40, 85
1, 4483, Note_off_c, 9, 40, 64
1, 4496, Note_on_c, 9, 45, 127
1, 4499, Note_off_c, 9, 45, 64
1, 4512, Note_on_c, 9, 40, 68
1, 4515, Note_off_c, 9, 40, 64
1, 4528, Note_on_c, 9, 40, 78
1, 4531, Note_off_c, 9, 40, 64
1, 4544, Note_on_c, 9, 46, 102
1, 4545, Note_on_c, 9, 45, 127
1, 4547, Note_off_c, 9, 46, 64
1, 4548, Note_off_c, 9, 45, 64
1, 4560, Note_on_c, 9, 40, 48
1, 4563, Note_off_c, 9, 40, 64
1, 4576, Note_on_c, 9, 40, 86
1, 4579, Note_off_c, 9, 40, 64
1, 4592, Note_on_c, 9, 45, 127
1, 4595, Note_off_c, 9, 45, 64
1, 4608, Note_on_c, 9, 40, 127
1, 4611, Note_off_c, 9, 40, 64
1, 4640, Note_on_c, 9, 47, 127
1, 4643, Note_off_c, 9, 47, 64
1, 4688, Note_on_c, 9, 45, 119
1, 4691, Note_off_c, 9, 45, 64
1, 4735, Note_on_c, 2, 42, 53
1, 4735, Note_on_c, 9, 45, 61
1, 4738, Note_off_c, 9, 45, 64
1, 4749, Note_off_c, 2, 42, 64
1, 4751, Note_on_c, 2, 44, 47
1, 4752, Note_on_c, 9, 43, 97
1, 4755, Note_off_c, 9, 43, 64
1, 4762, Note_off_c, 2, 44, 64
1, 4767, Note_on_c, 2, 44, 62
1, 4779, Note_off_c, 2, 44, 64
1, 4783, Note_on_c, 2, 42, 55
1, 4797, Note_off_c, 2, 42, 64
1, 4800, Note_on_c, 1, 39, 88
1, 4800, Note_on_c, 9, 59, 117
1, 4801, Note_on_c, 9, 35, 98
1, 4802, Note_on_c, 2, 49, 67
1, 4803, Note_off_c, 9, 59, 64
1, 4804, Note_off_c, 9, 35, 64
1, 4810, Note_off_c, 2, 49, 64
1, 4811, Note_on_c, 2, 51, 67
1, 4817, Note_off_c, 2, 51, 64
1, 4817, Note_on_c, 2, 49, 67
1, 4823, Note_off_c, 2, 49, 64
1, 4823, Note_on_c, 2, 51, 55
1, 4828, Note_off_c, 2, 51, 64
1, 4829, Note_on_c, 2, 49, 55
1, 4835, Note_off_c, 2, 49, 64
1, 4835, Note_on_c, 2, 51, 55
1, 4840, Note_off_c, 2, 51, 64
1, 4841, Note_on_c, 2, 49, 55
1, 4846, Note_off_c, 2, 49, 64
1, 4846, Note_on_c, 2, 51, 55
1, 4847, Note_on_c, 9, 44, 79
1, 4849, Note_on_c, 9, 35, 88
1, 4850, Note_off_c, 9, 44, 64
1, 4852, Note_off_c, 9, 35, 64
1, 4852, Note_off_c, 2, 51, 64
1, 4852, Note_on_c, 2, 49, 55
1, 4857, Note_off_c, 2, 49, 64
1, 4858, Note_on_c, 2, 51, 55
1, 4863, Note_off_c, 2, 51, 64
1, 4864, Note_on_c, 2, 49, 55
1, 4868, Note_off_c, 2, 49, 64
1, 4869, Note_on_c, 2, 51, 55
1, 4875, Note_off_c, 2, 51, 64
1, 4875, Note_on_c, 2, 49, 55
1, 4880, Note_off_c, 2, 49, 64
1, 4880, Note_on_c, 2, 51, 43
1, 4885, Note_on_c, 2, 49, 43
1, 4886, Note_off_c, 2, 51, 64
1, 4891, Note_off_c, 2, 49, 64
1, 4892, Note_on_c, 2, 51, 43
1, 4893, Note_off_c, 1, 39, 64
1, 4895, Note_on_c, 9, 44, 68
1, 4896, Note_on_c, 1, 27, 83
1, 4896, Note_on_c, 2, 49, 55
1, 4897, Note_off_c, 2, 51, 64
1, 4898, Note_off_c, 9, 44, 64
1, 4898, Note_on_c, 9, 37, 106
1, 4901, Note_off_c, 9, 37, 64
1, 4902, Note_off_c, 2, 49, 64
1, 4902, Note_on_c, 2, 51, 55
1, 4907, Note_off_c, 2, 51, 64
1, 4907, Note_on_c, 2, 49, 55
1, 4912, Note_off_c, 2, 49, 64
1, 4913, Note_on_c, 2, 51, 67
1, 4918, Note_off_c, 2, 51, 64
1, 4918, Note_on_c, 2, 49, 67
1, 4924, Note_off_c, 2, 49, 64
1, 4924, Note_on_c, 2, 51, 67
1, 4929, Note_off_c, 2, 51, 64
1, 4929, Note_on_c, 2, 49, 67
1, 4935, Note_off_c, 2, 49, 64
1, 4935, Note_on_c, 2, 51, 67
1, 4940, Note_off_c, 2, 51, 64
1, 4940, Note_on_c, 2, 49, 67
1, 4943, Note_on_c, 9, 44, 70
1, 4946, Note_off_c, 2, 49, 64
1, 4946, Note_off_c, 9, 44, 64
1, 4946, Note_on_c, 2, 51, 67
1, 4951, Note_off_c, 2, 51, 64
1, 4952, Note_on_c, 2, 49, 59
1, 4957, Note_off_c, 2, 49, 64
1, 4957, Note_on_c, 2, 51, 59
1, 4962, Note_off_c, 2, 51, 64
1, 4963, Note_on_c, 2, 49, 59
1, 4968, Note_off_c, 2, 49, 64
1, 4969, Note_on_c, 2, 51, 59
1, 4973, Note_on_c, 2, 49, 59
1, 4974, Note_off_c, 2, 51, 64
1, 4979, Note_off_c, 2, 49, 64
1, 4979, Note_on_c, 2, 51, 59
1, 4984, Note_on_c, 2, 49, 59
1, 4985, Note_off_c, 2, 51, 64
1, 4989, Note_on_c, 9, 35, 57
1, 4990, Note_off_c, 2, 49, 64
1, 4990, Note_on_c, 2, 51, 59
1, 4992, Note_off_c, 9, 35, 64
1, 4992, Note_off_c, 1, 27, 64
1, 4992, Note_on_c, 1, 39, 90
1, 4992, Note_on_c, 9, 44, 64
1, 4994, Note_on_c, 2, 63, 68
1, 4995, Note_off_c, 2, 51, 64
1, 4995, Note_off_c, 9, 44, 64
1, 4996, Note_on_c, 2, 49, 59
1, 5002, Note_off_c, 2, 49, 64
1, 5002, Note_on_c, 2, 51, 59
1, 5007, Note_off_c, 2, 51, 64
1, 5007, Note_on_c, 2, 49, 47
1, 5009, Note_off_c, 1, 39, 64
1, 5013, Note_off_c, 2, 49, 64
1, 5013, Note_on_c, 2, 51, 47
1, 5018, Note_off_c, 2, 51, 64
1, 5019, Note_on_c, 2, 49, 47
1, 5024, Note_off_c, 2, 49, 64
1, 5025, Note_on_c, 2, 51, 47
1, 5030, Note_off_c, 2, 51, 64
1, 5030, Note_on_c, 2, 49, 47
1, 5036, Note_off_c, 2, 49, 64
1, 5036, Note_on_c, 2, 51, 47
1, 5039, Note_on_c, 9, 44, 64
1, 5040, Note_on_c, 1, 39, 80
1, 5041, Note_on_c, 2, 49, 47
1, 5041, Note_on_c, 9, 35, 75
1, 5042, Note_off_c, 2, 51, 64
1, 5042, Note_off_c, 9, 44, 64
1, 5044, Note_off_c, 9, 35, 64
1, 5047, Note_off_c, 2, 49, 64
1, 5048, Note_on_c, 2, 51, 47
1, 5052, Note_on_c, 2, 49, 47
1, 5053, Note_off_c, 2, 51, 64
1, 5058, Note_off_c, 2, 49, 64
1, 5059, Note_on_c, 2, 51, 47
1, 5062, Note_on_c, 2, 49, 47
1, 5065, Note_off_c, 2, 51, 64
1, 5070, Note_off_c, 2, 49, 64
1, 5071, Note_on_c, 2, 51, 47
1, 5075, Note_on_c, 2, 49, 47
1, 5076, Note_off_c, 2, 51, 64
1, 5082, Note_off_c, 2, 49, 64
1, 5082, Note_on_c, 2, 51, 47
1, 5087, Note_on_c, 2, 49, 47
1, 5088, Note_off_c, 2, 51, 64
1, 5088, Note_on_c, 9, 44, 76
1, 5089, Note_off_c, 2, 63, 64
1, 5089, Note_on_c, 9, 37, 88
1, 5091, Note_off_c, 9, 44, 64
1, 5092, Note_off_c, 9, 37, 64
1, 5093, Note_off_c, 2, 49, 64
1, 5093, Note_on_c, 2, 51, 47
1, 5098, Note_on_c, 2, 49, 36
1, 5099, Note_off_c, 2, 51, 64
1, 5104, Note_off_c, 2, 49, 64
1, 5105, Note_on_c, 2, 51, 47
1, 5110, Note_off_c, 2, 51, 64
1, 5111, Note_on_c, 2, 49, 47
1, 5112, Note_off_c, 1, 39, 64
1, 5116, Note_off_c, 2, 49, 64
1, 5116, Note_on_c, 2, 51, 47
1, 5120, Note_on_c, 1, 37, 46
1, 5121, Note_on_c, 2, 49, 47
1, 5122, Note_off_c, 2, 51, 64
1, 5127, Note_off_c, 2, 49, 64
1, 5127, Note_on_c, 2, 51, 47
1, 5132, Note_off_c, 2, 51, 64
1, 5133, Note_on_c, 2, 49, 47
1, 5135, Note_off_c, 1, 37, 64
1, 5135, Note_on_c, 9, 44, 69
1, 5136, Note_on_c, 1, 39, 74
1, 5137, Note_off_c, 2, 49, 64
1, 5137, Note_on_c, 2, 51, 47
1, 5138, Note_off_c, 9, 44, 64
1, 5143, Note_off_c, 2, 51, 64
1, 5144, Note_on_c, 2, 49, 47
1, 5148, Note_off_c, 2, 49, 64
1, 5149, Note_on_c, 2, 51, 47
1, 5155, Note_off_c, 2, 51, 64
1, 5155, Note_on_c, 2, 49, 47
1, 5163, Note_off_c, 2, 49, 64
1, 5164, Note_on_c, 2, 39, 85
1, 5165, Note_off_c, 1, 39, 64
1, 5167, Note_on_c, 9, 44, 62
1, 5168, Note_on_c, 1, 41, 65
1, 5170, Note_off_c, 9, 44, 64
1, 5180, Note_off_c, 2, 39, 64
1, 5183, Note_on_c, 9, 44, 82
1, 5184, Note_on_c, 1, 42, 66
1, 5185, Note_on_c, 9, 35, 85
1, 5186, Note_off_c, 9, 44, 64
1, 5187, Note_off_c, 1, 41, 64
1, 5187, Note_on_c, 2, 42, 67
1, 5188, Note_off_c, 9, 35, 64
1, 5231, Note_on_c, 9, 44, 56
1, 5231, Note_on_c, 9, 35, 59
1, 5234, Note_off_c, 9, 44, 64
1, 5234, Note_off_c, 9, 35, 64
1, 5240, Note_off_c, 2, 42, 64
1, 5279, Note_on_c, 9, 44, 79
1, 5280, Note_on_c, 9, 37, 82
1, 5282, Note_off_c, 9, 44, 64
1, 5283, Note_off_c, 9, 37, 64
1, 5306, Note_on_c, 2, 49, 77
1, 5312, Note_off_c, 2, 49, 64
1, 5312, Note_on_c, 2, 51, 61
1, 5325, Note_off_c, 2, 51, 64
1, 5327, Note_on_c, 2, 54, 84
1, 5328, Note_on_c, 9, 44, 43
1, 5331, Note_off_c, 9, 44, 64
1, 5354, Note_off_c, 2, 54, 64
1, 5356, Note_on_c, 2, 51, 70
1, 5360, Note_on_c, 1, 37, 53
1, 5362, Note_off_c, 1, 42, 64
1, 5367, Note_off_c, 2, 51, 64
1, 5375, Note_off_c, 1, 37, 64
1, 5376, Note_on_c, 1, 42, 76
1, 5376, Note_on_c, 2, 54, 82
1, 5376, Note_on_c, 9, 35, 83
1, 5376, Note_on_c, 9, 44, 88
1, 5377, Note_on_c, 2, 59, 82
1, 5379, Note_off_c, 9, 35, 64
1, 5379, Note_off_c, 9, 44, 64
1, 5380, Note_on_c, 2, 56, 54
1, 5384, Note_off_c, 2, 54, 64
1, 5394, Note_off_c, 1, 42, 64
1, 5406, Note_off_c, 2, 59, 64
1, 5408, Note_off_c, 2, 56, 64
1, 5408, Note_on_c, 2, 54, 65
1, 5419, Note_off_c, 2, 54, 64
1, 5423, Note_on_c, 9, 44, 65
1, 5424, Note_on_c, 1, 42, 72
1, 5426, Note_off_c, 9, 44, 64
1, 5426, Note_on_c, 2, 54, 82
1, 5426, Note_on_c, 9, 35, 73
1, 5427, Note_on_c, 2, 59, 75
1, 5429, Note_off_c, 9, 35, 64
1, 5429, Note_on_c, 2, 56, 67
1, 5432, Note_off_c, 2, 54, 64
1, 5457, Note_off_c, 2, 59, 64
1, 5459, Note_off_c, 2, 56, 64
1, 5459, Note_on_c, 2, 54, 56
1, 5470, Note_off_c, 2, 54, 64
1, 5471, Note_on_c, 9, 37, 75
1, 5472, Note_on_c, 9, 44, 88
1, 5474, Note_off_c, 9, 37, 64
1, 5475, Note_off_c, 9, 44, 64
1, 5477, Note_on_c, 2, 54, 76
1, 5477, Note_on_c, 2, 59, 70
1, 5481, Note_on_c, 2, 56, 76
1, 5482, Note_off_c, 2, 54, 64
1, 5499, Note_off_c, 1, 42, 64
1, 5502, Note_off_c, 2, 56, 64
1, 5503, Note_off_c, 2, 59, 64
1, 5504, Note_on_c, 1, 37, 53
1, 5504, Note_on_c, 2, 54, 66
1, 5514, Note_off_c, 2, 54, 64
1, 5520, Note_off_c, 1, 37, 64
1, 5520, Note_on_c, 1, 42, 75
1, 5521, Note_on_c, 9, 44, 73
1, 5522, Note_on_c, 2, 51, 78
1, 5522, Note_on_c, 2, 54, 80
1, 5524, Note_off_c, 9, 44, 64
1, 5548, Note_off_c, 2, 51, 64
1, 5549, Note_on_c, 2, 49, 66
1, 5556, Note_off_c, 1, 42, 64
1, 5566, Note_off_c, 2, 49, 64
1, 5566, Note_on_c, 9, 44, 81
1, 5567, Note_off_c, 2, 54, 64
1, 5567, Note_on_c, 1, 44, 83
1, 5568, Note_on_c, 2, 44, 57
1, 5569, Note_off_c, 9, 44, 64
1, 5569, Note_on_c, 9, 35, 95
1, 5572, Note_off_c, 9, 35, 64
1, 5615, Note_on_c, 9, 44, 63
1, 5615, Note_on_c, 9, 35, 81
1, 5618, Note_off_c, 9, 44, 64
1, 5618, Note_off_c, 9, 35, 64
1, 5636, Note_off_c, 2, 44, 64
1, 5648, Note_on_c, 2, 44, 76
1, 5664, Note_on_c, 9, 44, 92
1, 5664, Note_on_c, 9, 37, 79
1, 5665, Note_off_c, 2, 44, 64
1, 5667, Note_off_c, 9, 37, 64
1, 5667, Note_off_c, 9, 44, 64
1, 5667, Note_on_c, 2, 68, 97
1, 5667, Note_on_c, 2, 63, 97
1, 5690, Note_off_c, 2, 63, 64
1, 5691, Note_off_c, 2, 68, 64
1, 5696, Note_on_c, 2, 70, 89
1, 5697, Note_on_c, 2, 63, 80
1, 5707, Note_off_c, 2, 70, 64
1, 5707, Note_off_c, 2, 63, 64
1, 5712, Note_on_c, 9, 44, 68
1, 5713, Note_on_c, 2, 68, 100
1, 5713, Note_on_c, 2, 63, 91
1, 5715, Note_off_c, 9, 44, 64
1, 5721, Note_off_c, 2, 68, 64
1, 5721, Note_on_c, 2, 70, 106
1, 5729, Note_on_c, 2, 68, 101
1, 5733, Note_off_c, 2, 70, 64
1, 5734, Note_off_c, 2, 63, 64
1, 5737, Note_off_c, 1, 44, 64
1, 5740, Note_on_c, 2, 66, 121
1, 5741, Note_off_c, 2, 68, 64
1, 5744, Note_on_c, 1, 39, 59
1, 5747, Pitch_bend_c, 2, 9295
1, 5751, Pitch_bend_c, 2, 11553
1, 5752, Note_off_c, 1, 39, 64
1, 5754, Pitch_bend_c, 2, 13968
1, 5755, Note_off_c, 2, 66, 64
1, 5757, Pitch_bend_c, 2, 10818
1, 5759, Pitch_bend_c, 2, 8192
1, 5760, Note_on_c, 1, 44, 91
1, 5761, Note_on_c, 2, 68, 102
1, 5761, Note_on_c, 2, 63, 104
1, 5761, Note_on_c, 9, 44, 88
1, 5762, Pitch_bend_c, 1, 11500
1, 5762, Note_on_c, 9, 35, 91
1, 5764, Note_off_c, 9, 44, 64
1, 5764, Pitch_bend_c, 1, 14913
1, 5765, Note_off_c, 9, 35, 64
1, 5768, Pitch_bend_c, 1, 16383
1, 5773, Note_off_c, 2, 68, 64
1, 5774, Note_off_c, 2, 63, 64
1, 5775, Note_on_c, 2, 66, 89
1, 5780, Note_off_c, 1, 44, 64
1, 5788, Note_off_c, 2, 66, 64
1, 5791, Note_on_c, 2, 63, 106
1, 5791, Note_on_c, 2, 68, 83
1, 5801, Note_off_c, 2, 68, 64
1, 5806, Note_off_c, 2, 63, 64
1, 5807, Note_on_c, 1, 44, 88
1, 5808, Pitch_bend_c, 1, 16278
1, 5808, Note_on_c, 2, 61, 100
1, 5808, Note_on_c, 9, 44, 73
1, 5809, Pitch_bend_c, 2, 11553
1, 5810, Pitch_bend_c, 2, 16383
1, 5810, Pitch_bend_c, 1, 8613
1, 5810, Note_on_c, 9, 35, 84
1, 5811, Note_off_c, 9, 44, 64
1, 5813, Note_off_c, 9, 35, 64
1, 5814, Pitch_bend_c, 1, 8192
1, 5819, Pitch_bend_c, 2, 16121
1, 5820, Pitch_bend_c, 2, 9820
1, 5821, Note_off_c, 2, 61, 64
1, 5822, Pitch_bend_c, 2, 8192
1, 5823, Note_on_c, 2, 63, 101
1, 5836, Note_off_c, 2, 63, 64
1, 5839, Note_on_c, 2, 68, 101
1, 5853, Note_off_c, 1, 44, 64
1, 5854, Note_on_c, 9, 37, 70
1, 5855, Note_on_c, 2, 66, 89
1, 5856, Note_on_c, 1, 42, 85
1, 5856, Note_on_c, 9, 44, 88
1, 5857, Note_off_c, 2, 68, 64
1, 5857, Note_off_c, 9, 37, 64
1, 5859, Note_off_c, 9, 44, 64
1, 5871, Note_off_c, 2, 66, 64
1, 5871, Pitch_bend_c, 2, 14021
1, 5871, Note_on_c, 2, 64, 96
1, 5871, Note_on_c, 2, 61, 90
1, 5873, Pitch_bend_c, 2, 16383
1, 5878, Note_off_c, 1, 42, 64
1, 5882, Note_off_c, 2, 61, 64
1, 5883, Pitch_bend_c, 2, 16331
1, 5884, Note_off_c, 2, 64, 64
1, 5884, Pitch_bend_c, 2, 8508
1, 5885, Pitch_bend_c, 2, 8192
1, 5886, Note_on_c, 2, 61, 96
1, 5888, Pitch_bend_c, 1, 9085
1, 5888, Note_on_c, 1, 42, 85
1, 5891, Pitch_bend_c, 1, 15701
1, 5894, Pitch_bend_c, 1, 16383
1, 5900, Pitch_bend_c, 1, 15438
1, 5902, Pitch_bend_c, 1, 9873
1, 5902, Note_on_c, 2, 59, 96
1, 5903, Note_off_c, 2, 61, 64
1, 5904, Pitch_bend_c, 1, 8192
1, 5904, Note_on_c, 9, 44, 67
1, 5907, Note_off_c, 9, 44, 64
1, 5917, Note_off_c, 2, 59, 64
1, 5918, Note_on_c, 2, 56, 83
1, 5933, Note_off_c, 2, 56, 64
1, 5934, Note_on_c, 2, 49, 75
1, 5939, Note_off_c, 2, 49, 64
1, 5942, Note_on_c, 2, 51, 72
1, 5949, Note_off_c, 1, 42, 64
1, 5950, Note_off_c, 2, 51, 64
1, 5951, Note_on_c, 9, 44, 86
1, 5952, Program_c, 3, 31
1, 5952, Note_on_c, 1, 39, 83
1, 5952, Note_on_c, 2, 39, 121
1, 5953, Note_on_c, 9, 35, 96
1, 5954, Note_off_c, 9, 44, 64
1, 5956, Note_off_c, 9, 35, 64
1, 5998, Note_on_c, 9, 35, 61
1, 6000, Note_on_c, 9, 44, 64
1, 6001, Note_off_c, 9, 35, 64
1, 6003, Note_off_c, 9, 44, 64
1, 6048, Note_on_c, 3, 49, 75
1, 6048, Note_on_c, 9, 37, 97
1, 6048, Note_on_c, 9, 44, 90
1, 6051, Note_off_c, 9, 37, 64
1, 6051, Note_off_c, 9, 44, 64
1, 6096, Note_on_c, 9, 44, 58
1, 6098, Note_on_c, 3, 54, 80
1, 6099, Note_off_c, 9, 44, 64
1, 6123, Note_off_c, 1, 39, 64
1, 6128, Note_on_c, 1, 34, 73
1, 6135, Note_off_c, 1, 34, 64
1, 6144, Note_on_c, 1, 41, 96
1, 6144, Note_on_c, 3, 58, 75
1, 6144, Note_on_c, 9, 44, 96
1, 6145, Note_on_c, 9, 35, 80
1, 6147, Note_off_c, 9, 44, 64
1, 6148, Note_off_c, 9, 35, 64
1, 6152, Pitch_bend_c, 1, 8508
1, 6153, Pitch_bend_c, 1, 10240
1, 6157, Pitch_bend_c, 1, 11185
1, 6160, Pitch_bend_c, 1, 12078
1, 6164, Pitch_bend_c, 1, 12235
1, 6167, Pitch_bend_c, 1, 12288
1, 6171, Pitch_bend_c, 1, 11815
1, 6173, Note_on_c, 9, 37, 51
1, 6175, Pitch_bend_c, 1, 8928
1, 6176, Note_off_c, 9, 37, 64
1, 6176, Note_on_c, 3, 63, 82
1, 6178, Pitch_bend_c, 1, 8192
1, 6189, Note_on_c, 9, 35, 76
1, 6192, Note_off_c, 9, 35, 64
1, 6192, Note_on_c, 1, 39, 80
1, 6192, Note_on_c, 9, 44, 61
1, 6195, Note_off_c, 9, 44, 64
1, 6196, Note_off_c, 1, 41, 64
1, 6217, Note_off_c, 1, 39, 64
1, 6224, Note_on_c, 1, 37, 57
1, 6230, Note_off_c, 1, 37, 64
1, 6240, Note_on_c, 1, 39, 91
1, 6240, Note_on_c, 9, 37, 88
1, 6240, Note_on_c, 9, 44, 96
1, 6243, Note_off_c, 9, 37, 64
1, 6243, Note_off_c, 9, 44, 64
1, 6266, Note_off_c, 1, 39, 64
1, 6272, Note_on_c, 1, 37, 65
1, 6278, Note_off_c, 1, 37, 64
1, 6288, Note_on_c, 1, 39, 85
1, 6288, Note_on_c, 9, 44, 52
1, 6291, Note_off_c, 9, 44, 64
1, 6299, Note_off_c, 2, 39, 64
1, 6300, Note_on_c, 2, 40, 53
1, 6306, Note_off_c, 2, 40, 64
1, 6306, Note_on_c, 2, 41, 68
1, 6307, Note_off_c, 3, 49, 64
1, 6307, Note_off_c, 3, 58, 64
1, 6308, Note_off_c, 3, 63, 64
1, 6308, Note_off_c, 3, 54, 64
1, 6311, Note_off_c, 2, 41, 64
1, 6311, Note_on_c, 2, 42, 73
1, 6318, Note_off_c, 2, 42, 64
1, 6318, Note_on_c, 2, 43, 63
1, 6320, Note_on_c, 9, 44, 29
1, 6322, Note_off_c, 1, 39, 64
1, 6322, Note_off_c, 2, 43, 64
1, 6323, Note_off_c, 9, 44, 64
1, 6323, Program_c, 3, 29
1, 6323, Note_on_c, 2, 44, 64
1, 6328, Note_on_c, 2, 45, 56
1, 6329, Note_off_c, 2, 44, 64
1, 6335, Note_on_c, 9, 44, 75
1, 6336, Note_off_c, 2, 45, 64
1, 6336, Note_on_c, 1, 46, 89
1, 6337, Note_on_c, 2, 46, 101
1, 6337, Note_on_c, 9, 35, 86
1, 6338, Note_off_c, 9, 44, 64
1, 6340, Note_off_c, 9, 35, 64
1, 6383, Note_on_c, 9, 44, 44
1, 6383, Note_on_c, 9, 35, 70
1, 6386, Note_off_c, 9, 44, 64
1, 6386, Note_off_c, 9, 35, 64
1, 6429, Note_off_c, 2, 46, 64
1, 6431, Note_on_c, 9, 37, 82
1, 6432, Note_on_c, 9, 44, 99
1, 6434, Note_off_c, 9, 37, 64
1, 6435, Note_off_c, 9, 44, 64
1, 6462, Note_on_c, 2, 70, 100
1, 6462, Note_on_c, 2, 65, 88
1, 6478, Note_off_c, 2, 70, 64
1, 6478, Note_off_c, 2, 65, 64
1, 6480, Note_on_c, 2, 68, 93
1, 6481, Note_on_c, 9, 44, 54
1, 6484, Note_off_c, 9, 44, 64
1, 6495, Note_off_c, 1, 46, 64
1, 6496, Note_on_c, 2, 65, 81
1, 6497, Note_off_c, 2, 68, 64
1, 6512, Note_on_c, 1, 41, 63
1, 6512, Note_on_c, 2, 70, 88
1, 6520, Note_off_c, 1, 41, 64
1, 6524, Note_off_c, 2, 65, 64
1, 6526, Note_off_c, 2, 70, 64
1, 6528, Note_on_c, 1, 46, 81
1, 6528, Note_on_c, 9, 44, 90
1, 6529, Note_on_c, 9, 35, 74
1, 6530, Note_on_c, 2, 72, 110
1, 6531, Note_off_c, 9, 44, 64
1, 6532, Note_off_c, 9, 35, 64
1, 6541, Note_off_c, 2, 72, 64
1, 6544, Note_on_c, 2, 71, 82
1, 6555, Note_off_c, 1, 46, 64
1, 6560, Note_on_c, 1, 41, 71
1, 6560, Note_on_c, 2, 70, 89
1, 6562, Note_off_c, 2, 71, 64
1, 6576, Note_off_c, 2, 70, 64
1, 6576, Note_on_c, 1, 34, 85
1, 6576, Note_on_c, 2, 68, 88
1, 6576, Note_on_c, 9, 44, 60
1, 6577, Note_off_c, 1, 41, 64
1, 6577, Note_on_c, 9, 35, 78
1, 6579, Note_off_c, 9, 44, 64
1, 6580, Note_off_c, 9, 35, 64
1, 6583, Pitch_bend_c, 2, 8718
1, 6584, Pitch_bend_c, 2, 10503
1, 6587, Pitch_bend_c, 2, 8508
1, 6590, Pitch_bend_c, 2, 8192
1, 6592, Note_on_c, 2, 65, 90
1, 6594, Note_off_c, 2, 68, 64
1, 6608, Note_off_c, 2, 65, 64
1, 6608, Note_on_c, 2, 70, 92
1, 6622, Note_on_c, 9, 37, 80
1, 6623, Note_on_c, 9, 44, 92
1, 6625, Note_off_c, 9, 37, 64
1, 6625, Note_on_c, 2, 68, 86
1, 6626, Note_off_c, 9, 44, 64
1, 6627, Note_off_c, 2, 70, 64
1, 6636, Note_off_c, 2, 68, 64
1, 6639, Note_on_c, 2, 63, 95
1, 6645, Note_on_c, 2, 64, 76
1, 6647, Note_off_c, 2, 63, 64
1, 6648, Note_off_c, 1, 34, 64
1, 6656, Note_off_c, 2, 64, 64
1, 6656, Note_on_c, 1, 33, 93
1, 6656, Note_on_c, 2, 63, 90
1, 6671, Note_on_c, 2, 61, 97
1, 6672, Note_off_c, 2, 63, 64
1, 6672, Note_on_c, 9, 44, 52
1, 6675, Note_off_c, 9, 44, 64
1, 6685, Pitch_bend_c, 2, 10240
1, 6688, Pitch_bend_c, 2, 11290
1, 6692, Pitch_bend_c, 2, 9190
1, 6694, Pitch_bend_c, 2, 8192
1, 6695, Note_off_c, 2, 61, 64
1, 6697, Note_on_c, 2, 58, 92
1, 6706, Pitch_bend_c, 2, 6462
1, 6709, Pitch_bend_c, 2, 4528
1, 6713, Pitch_bend_c, 2, 6360
1, 6715, Note_off_c, 2, 58, 64
1, 6716, Pitch_bend_c, 2, 6970
1, 6717, Pitch_bend_c, 2, 8192
1, 6718, Note_off_c, 1, 33, 64
1, 6719, Note_on_c, 9, 35, 85
1, 6720, Note_on_c, 9, 44, 79
1, 6720, Note_on_c, 1, 32, 77
1, 6722, Note_off_c, 9, 35, 64
1, 6723, Note_off_c, 9, 44, 64
1, 6742, Note_off_c, 1, 32, 64
1, 6767, Note_on_c, 9, 35, 86
1, 6768, Note_on_c, 9, 44, 39
1, 6768, Note_on_c, 1, 32, 74
1, 6770, Note_off_c, 9, 35, 64
1, 6771, Note_off_c, 9, 44, 64
1, 6797, Note_on_c, 2, 63, 95
1, 6800, Note_on_c, 2, 58, 104
1, 6803, Note_on_c, 2, 54, 78
1, 6815, Note_on_c, 9, 44, 90
1, 6817, Note_on_c, 9, 37, 82
1, 6818, Note_off_c, 9, 44, 64
1, 6819, Note_off_c, 2, 58, 64
1, 6819, Note_on_c, 2, 49, 78
1, 6820, Note_off_c, 9, 37, 64
1, 6820, Note_off_c, 2, 63, 64
1, 6821, Note_off_c, 2, 54, 64
1, 6844, Note_off_c, 2, 49, 64
1, 6847, Note_on_c, 2, 51, 89
1, 6863, Note_off_c, 2, 51, 64
1, 6865, Note_on_c, 9, 44, 56
1, 6866, Note_on_c, 2, 54, 106
1, 6868, Note_off_c, 9, 44, 64
1, 6873, Note_off_c, 1, 32, 64
1, 6889, Note_off_c, 2, 54, 64
1, 6893, Note_on_c, 2, 51, 74
1, 6896, Note_on_c, 1, 32, 82
1, 6911, Note_on_c, 2, 59, 102
1, 6912, Note_on_c, 1, 35, 77
1, 6912, Note_on_c, 9, 44, 97
1, 6913, Note_off_c, 1, 32, 64
1, 6914, Note_off_c, 2, 51, 64
1, 6914, Note_on_c, 2, 61, 82
1, 6914, Note_on_c, 9, 35, 80
1, 6915, Note_off_c, 9, 44, 64
1, 6917, Note_off_c, 9, 35, 64
1, 6917, Note_off_c, 2, 59, 64
1, 6932, Note_off_c, 1, 35, 64
1, 6937, Note_off_c, 2, 61, 64
1, 6942, Note_on_c, 2, 61, 98
1, 6942, Note_on_c, 2, 63, 107
1, 6956, Note_off_c, 2, 61, 64
1, 6957, Note_off_c, 2, 63, 64
1, 6959, Note_on_c, 1, 35, 83
1, 6960, Note_on_c, 2, 59, 90
1, 6960, Note_on_c, 9, 44, 56
1, 6961, Note_on_c, 9, 35, 90
1, 6963, Note_off_c, 9, 44, 64
1, 6964, Note_off_c, 9, 35, 64
1, 6986, Note_off_c, 2, 59, 64
1, 6990, Note_on_c, 2, 59, 98
1, 6990, Note_on_c, 2, 63, 102
1, 7001, Note_off_c, 2, 63, 64
1, 7002, Note_off_c, 2, 59, 64
1, 7008, Note_on_c, 2, 54, 67
1, 7008, Note_on_c, 9, 44, 93
1, 7008, Note_on_c, 9, 37, 82
1, 7009, Note_on_c, 2, 59, 93
1, 7010, Note_on_c, 2, 56, 75
1, 7011, Note_off_c, 9, 44, 64
1, 7011, Note_off_c, 9, 37, 64
1, 7014, Note_off_c, 2, 54, 64
1, 7032, Note_off_c, 2, 59, 64
1, 7033, Note_off_c, 2, 56, 64
1, 7037, Note_off_c, 1, 35, 64
1, 7037, Note_on_c, 2, 54, 98
1, 7038, Note_on_c, 2, 59, 101
1, 7040, Note_on_c, 1, 30, 49
1, 7048, Note_off_c, 1, 30, 64
1, 7049, Note_off_c, 2, 59, 64
1, 7051, Note_off_c, 2, 54, 64
1, 7054, Note_on_c, 2, 49, 80
1, 7056, Note_on_c, 1, 35, 92
1, 7056, Note_on_c, 9, 44, 75
1, 7058, Note_on_c, 2, 51, 107
1, 7059, Note_off_c, 2, 49, 64
1, 7059, Note_off_c, 9, 44, 64
1, 7079, Note_off_c, 2, 51, 64
1, 7082, Note_on_c, 2, 49, 74
1, 7084, Note_on_c, 2, 54, 111
1, 7086, Note_on_c, 2, 51, 111
1, 7087, Note_off_c, 2, 49, 64
1, 7099, Note_off_c, 1, 35, 64
1, 7102, Note_off_c, 2, 51, 64
1, 7103, Note_off_c, 2, 54, 64
1, 7103, Note_on_c, 9, 51, 73
1, 7104, Note_on_c, 1, 30, 106
1, 7104, Note_on_c, 2, 42, 93
1, 7106, Note_off_c, 9, 51, 64
1, 7107, Note_on_c, 9, 35, 96
1, 7110, Note_off_c, 9, 35, 64
1, 7151, Note_on_c, 9, 59, 65
1, 7151, Note_on_c, 9, 35, 77
1, 7154, Note_off_c, 9, 59, 64
1, 7154, Note_off_c, 9, 35, 64
1, 7173, Note_off_c, 2, 42, 64
1, 7173, Note_off_c, 1, 30, 64
1, 7181, Note_on_c, 2, 68, 98
1, 7182, Note_on_c, 2, 61, 84
1, 7182, Note_on_c, 2, 42, 90
1, 7184, Note_on_c, 1, 30, 89
1, 7192, Note_off_c, 1, 30, 64
1, 7195, Note_off_c, 2, 61, 64
1, 7195, Note_off_c, 2, 68, 64
1, 7197, Note_off_c, 2, 42, 64
1, 7199, Note_on_c, 9, 51, 81
1, 7200, Note_on_c, 9, 40, 106
1, 7200, Note_on_c, 1, 33, 93
1, 7200, Note_on_c, 1, 34, 102
1, 7200, Note_on_c, 2, 58, 95
1, 7200, Note_on_c, 2, 61, 88
1, 7201, Note_on_c, 2, 54, 91
1, 7201, Note_on_c, 2, 68, 88
1, 7202, Note_off_c, 9, 51, 64
1, 7203, Note_off_c, 9, 40, 64
1, 7209, Note_off_c, 1, 33, 64
1, 7209, Pitch_bend_c, 2, 8875
1, 7210, Pitch_bend_c, 2, 16383
1, 7242, Note_off_c, 2, 54, 64
1, 7243, Note_off_c, 1, 34, 64
1, 7243, Note_off_c, 2, 61, 64
1, 7244, Note_off_c, 2, 68, 64
1, 7244, Note_off_c, 2, 58, 64
1, 7247, Note_on_c, 9, 59, 57
1, 7248, Note_on_c, 1, 37, 104
1, 7249, Note_on_c, 2, 58, 91
1, 7250, Note_off_c, 9, 59, 64
1, 7250, Note_on_c, 2, 68, 100
1, 7250, Note_on_c, 2, 61, 93
1, 7256, Pitch_bend_c, 2, 9558
1, 7259, Pitch_bend_c, 2, 8192
1, 7275, Note_off_c, 2, 68, 64
1, 7275, Note_off_c, 2, 61, 64
1, 7276, Note_off_c, 2, 58, 64
1, 7279, Note_on_c, 2, 54, 102
1, 7289, Note_off_c, 1, 37, 64
1, 7293, Note_off_c, 2, 54, 64
1, 7295, Note_on_c, 9, 51, 82
1, 7295, Note_on_c, 9, 35, 93
1, 7296, Note_on_c, 1, 28, 106
1, 7296, Note_on_c, 2, 68, 100
1, 7297, Note_on_c, 2, 58, 91
1, 7297, Note_on_c, 2, 61, 92
1, 7298, Note_off_c, 9, 51, 64
1, 7298, Note_off_c, 9, 35, 64
1, 7308, Note_off_c, 2, 68, 64
1, 7308, Note_off_c, 2, 61, 64
1, 7309, Note_off_c, 2, 58, 64
1, 7313, Note_on_c, 2, 56, 81
1, 7313, Note_on_c, 2, 66, 71
1, 7313, Note_on_c, 2, 59, 82
1, 7326, Note_off_c, 2, 59, 64
1, 7327, Note_off_c, 2, 56, 64
1, 7327, Note_off_c, 2, 66, 64
1, 7328, Note_on_c, 2, 52, 61
1, 7339, Note_off_c, 1, 28, 64
1, 7343, Note_off_c, 2, 52, 64
1, 7343, Note_on_c, 9, 59, 71
1, 7343, Note_on_c, 9, 35, 96
1, 7344, Note_on_c, 1, 28, 102
1, 7344, Note_on_c, 2, 66, 101
1, 7344, Note_on_c, 2, 56, 89
1, 7345, Note_on_c, 2, 59, 100
1, 7346, Note_off_c, 9, 59, 64
1, 7346, Note_off_c, 9, 35, 64
1, 7391, Note_on_c, 9, 51, 72
1, 7393, Note_on_c, 9, 40, 113
1, 7394, Note_off_c, 9, 51, 64
1, 7396, Note_off_c, 9, 40, 64
1, 7402, Note_off_c, 2, 66, 64
1, 7405, Note_off_c, 2, 56, 64
1, 7405, Note_off_c, 2, 59, 64
1, 7407, Note_on_c, 2, 66, 90
1, 7417, Note_off_c, 2, 66, 64
1, 7422, Note_on_c, 2, 52, 86
1, 7423, Note_on_c, 2, 56, 82
1, 7434, Note_off_c, 2, 56, 64
1, 7437, Note_off_c, 2, 52, 64
1, 7438, Note_on_c, 2, 56, 86
1, 7438, Note_on_c, 2, 59, 98
1, 7439, Note_on_c, 9, 59, 73
1, 7442, Note_off_c, 9, 59, 64
1, 7461, Note_off_c, 1, 28, 64
1, 7468, Note_off_c, 2, 59, 64
1, 7469, Note_off_c, 2, 56, 64
1, 7472, Note_on_c, 1, 28, 81
1, 7473, Note_on_c, 2, 66, 86
1, 7482, Note_off_c, 1, 28, 64
1, 7488, Time_signature, 2, 2, 24, 8
1, 7488, Note_on_c, 1, 35, 93
1, 7488, Note_on_c, 9, 35, 100
1, 7488, Note_on_c, 9, 51, 76
1, 7490, Note_on_c, 2, 47, 98
1, 7491, Note_off_c, 9, 35, 64
1, 7491, Note_off_c, 9, 51, 64
1, 7497, Note_off_c, 2, 66, 64
1, 7516, Note_off_c, 1, 35, 64
1, 7525, Note_off_c, 2, 47, 64
1, 7534, Note_on_c, 9, 59, 74
1, 7535, Note_on_c, 9, 35, 86
1, 7535, Note_on_c, 2, 47, 83
1, 7536, Note_on_c, 1, 35, 102
1, 7537, Note_off_c, 9, 59, 64
1, 7538, Note_off_c, 9, 35, 64
1, 7557, Note_off_c, 2, 47, 64
1, 7564, Note_on_c, 2, 47, 73
1, 7579, Note_off_c, 2, 47, 64
1, 7580, Note_on_c, 2, 59, 102
1, 7580, Note_on_c, 2, 54, 107
1, 7583, Note_on_c, 9, 40, 113
1, 7583, Note_on_c, 9, 51, 80
1, 7586, Note_off_c, 9, 40, 64
1, 7586, Note_off_c, 9, 51, 64
1, 7626, Note_off_c, 2, 54, 64
1, 7627, Note_off_c, 2, 59, 64
1, 7631, Note_on_c, 2, 54, 119
1, 7631, Note_on_c, 9, 59, 85
1, 7632, Note_on_c, 2, 47, 101
1, 7634, Note_off_c, 9, 59, 64
1, 7653, Note_off_c, 1, 35, 64
1, 7656, Note_off_c, 2, 54, 64
1, 7657, Note_off_c, 2, 47, 64
1, 7662, Note_on_c, 2, 47, 74
1, 7664, Note_on_c, 1, 35, 90
1, 7679, Note_off_c, 2, 47, 64
1, 7679, Note_on_c, 9, 57, 65
1, 7680, Time_signature, 4, 2, 24, 8
1, 7680, Note_on_c, 1, 37, 96
1, 7680, Note_on_c, 2, 54, 89
1, 7680, Note_on_c, 2, 59, 102
1, 7680, Note_on_c, 2, 47, 76
1, 7680, Note_on_c, 9, 35, 104
1, 7681, Note_off_c, 1, 35, 64
1, 7681, Note_on_c, 2, 56, 100
1, 7682, Note_off_c, 9, 57, 64
1, 7683, Note_off_c, 2, 54, 64
1, 7683, Note_off_c, 9, 35, 64
1, 7683, Note_on_c, 2, 49, 88
1, 7685, Note_off_c, 2, 47, 64
1, 7685, Note_on_c, 2, 61, 88
1, 7686, Note_off_c, 2, 59, 64
1, 7704, Note_off_c, 1, 37, 64
1, 7720, Note_off_c, 2, 49, 64
1, 7720, Note_off_c, 2, 61, 64
1, 7722, Note_off_c, 2, 56, 64
1, 7726, Note_on_c, 2, 49, 83
1, 7726, Note_on_c, 2, 56, 102
1, 7727, Note_on_c, 9, 35, 93
1, 7727, Note_on_c, 9, 59, 74
1, 7728, Note_on_c, 1, 37, 91
1, 7730, Note_off_c, 9, 35, 64
1, 7730, Note_off_c, 9, 59, 64
1, 7746, Note_off_c, 2, 56, 64
1, 7749, Note_off_c, 2, 49, 64
1, 7755, Note_on_c, 2, 49, 81
1, 7769, Note_off_c, 2, 49, 64
1, 7772, Note_on_c, 2, 65, 96
1, 7772, Note_on_c, 2, 61, 96
1, 7772, Note_on_c, 2, 56, 88
1, 7775, Note_on_c, 9, 51, 77
1, 7776, Note_on_c, 9, 40, 113
1, 7778, Note_off_c, 9, 51, 64
1, 7779, Note_off_c, 9, 40, 64
1, 7803, Note_off_c, 1, 37, 64
1, 7808, Note_on_c, 1, 32, 31
1, 7811, Note_off_c, 2, 65, 64
1, 7811, Note_off_c, 1, 32, 64
1, 7814, Note_off_c, 2, 61, 64
1, 7814, Note_off_c, 2, 56, 64
1, 7821, Note_on_c, 2, 56, 86
1, 7821, Note_on_c, 2, 61, 95
1, 7823, Note_on_c, 9, 59, 86
1, 7824, Note_on_c, 1, 37, 102
1, 7826, Note_off_c, 9, 59, 64
1, 7846, Note_off_c, 2, 61, 64
1, 7846, Note_off_c, 2, 56, 64
1, 7851, Note_on_c, 2, 39, 80
1, 7851, Note_on_c, 2, 56, 88
1, 7852, Note_off_c, 1, 37, 64
1, 7852, Note_on_c, 2, 44, 72
1, 7856, Note_on_c, 1, 32, 57
1, 7864, Note_off_c, 2, 56, 64
1, 7864, Note_off_c, 2, 39, 64
1, 7865, Note_off_c, 2, 44, 64
1, 7870, Note_on_c, 9, 35, 102
1, 7871, Note_on_c, 9, 49, 88
1, 7872, Note_on_c, 1, 37, 90
1, 7872, Note_on_c, 2, 58, 104
1, 7872, Note_on_c, 2, 61, 102
1, 7872, Note_on_c, 2, 56, 82
1, 7873, Note_off_c, 1, 32, 64
1, 7873, Note_off_c, 9, 35, 64
1, 7874, Note_off_c, 2, 56, 64
1, 7874, Note_off_c, 9, 49, 64
1, 7898, Note_off_c, 1, 37, 64
1, 7909, Note_off_c, 2, 61, 64
1, 7912, Note_off_c, 2, 58, 64
1, 7918, Note_on_c, 2, 61, 98
1, 7918, Note_on_c, 2, 56, 98
1, 7919, Note_on_c, 9, 35, 98
1, 7920, Note_on_c, 9, 59, 91
1, 7920, Note_on_c, 1, 37, 93
1, 7922, Note_off_c, 9, 35, 64
1, 7923, Note_off_c, 9, 59, 64
1, 7938, Note_off_c, 2, 56, 64
1, 7938, Note_off_c, 2, 61, 64
1, 7946, Note_on_c, 2, 61, 89
1, 7947, Note_on_c, 2, 56, 75
1, 7957, Note_off_c, 2, 61, 64
1, 7959, Note_off_c, 2, 56, 64
1, 7965, Note_on_c, 2, 54, 97
1, 7965, Note_on_c, 2, 56, 98
1, 7966, Note_on_c, 2, 39, 95
1, 7968, Note_on_c, 9, 51, 66
1, 7969, Note_on_c, 9, 40, 119
1, 7971, Note_off_c, 9, 51, 64
1, 7972, Note_off_c, 9, 40, 64
1, 7990, Note_off_c, 2, 54, 64
1, 7992, Note_off_c, 2, 39, 64
1, 7993, Note_off_c, 2, 56, 64
1, 7996, Note_on_c, 2, 54, 95
1, 7997, Note_off_c, 1, 37, 64
1, 8000, Note_on_c, 1, 32, 65
1, 8008, Note_off_c, 1, 32, 64
1, 8010, Note_off_c, 2, 54, 64
1, 8015, Note_on_c, 9, 59, 86
1, 8016, Note_on_c, 1, 37, 102
1, 8016, Note_on_c, 2, 56, 98
1, 8016, Note_on_c, 2, 51, 104
1, 8018, Note_off_c, 9, 59, 64
1, 8042, Note_off_c, 2, 51, 64
1, 8042, Note_off_c, 2, 56, 64
1, 8043, Note_off_c, 1, 37, 64
1, 8047, Note_on_c, 2, 51, 88
1, 8048, Note_on_c, 1, 32, 68
1, 8058, Note_off_c, 1, 32, 64
1, 8062, Note_off_c, 2, 51, 64
1, 8063, Note_on_c, 9, 57, 84
1, 8064, Note_on_c, 1, 37, 127
1, 8065, Note_on_c, 2, 52, 98
1, 8065, Note_on_c, 9, 40, 127
1, 8066, Note_off_c, 9, 57, 64
1, 8066, Note_on_c, 2, 56, 100
1, 8067, Note_on_c, 2, 61, 107
1, 8068, Note_off_c, 9, 40, 64
1, 8070, Note_on_c, 2, 53, 108
1, 8072, Note_off_c, 2, 52, 64
1, 8091, Note_off_c, 2, 53, 64
1, 8092, Note_off_c, 2, 56, 64
1, 8092, Note_off_c, 2, 61, 64
1, 8095, Note_on_c, 9, 40, 127
1, 8098, Note_off_c, 9, 40, 64
1, 8103, Note_off_c, 1, 37, 64
1, 8112, Note_on_c, 9, 40, 27
1, 8115, Note_off_c, 9, 40, 64
1, 8126, Note_on_c, 9, 40, 45
1, 8129, Note_off_c, 9, 40, 64
1, 8142, Note_on_c, 9, 40, 64
1, 8145, Note_off_c, 9, 40, 64
1, 8160, Note_on_c, 9, 40, 127
1, 8163, Note_off_c, 9, 40, 64
1, 8191, Note_on_c, 9, 40, 127
1, 8194, Note_off_c, 9, 40, 64
1, 8208, Note_on_c, 9, 40, 32
1, 8211, Note_off_c, 9, 40, 64
1, 8223, Note_on_c, 9, 40, 39
1, 8226, Note_off_c, 9, 40, 64
1, 8239, Note_on_c, 9, 40, 35
1, 8242, Note_off_c, 9, 40, 64
1, 8257, Note_on_c, 9, 40, 127
1, 8260, Note_off_c, 9, 40, 64
1, 8287, Note_on_c, 9, 47, 121
1, 8290, Note_off_c, 9, 47, 64
1, 8305, Note_on_c, 9, 40, 42
1, 8308, Note_off_c, 9, 40, 64
1, 8321, Note_on_c, 9, 40, 43
1, 8324, Note_off_c, 9, 40, 64
1, 8334, Note_on_c, 9, 45, 83
1, 8337, Note_off_c, 9, 45, 64
1, 8352, Note_on_c, 9, 40, 47
1, 8355, Note_off_c, 9, 40, 64
1, 8367, Note_on_c, 9, 40, 39
1, 8370, Note_off_c, 9, 40, 64
1, 8381, Note_on_c, 9, 43, 53
1, 8382, Note_on_c, 2, 63, 90
1, 8384, Note_off_c, 9, 43, 64
1, 8398, Note_off_c, 2, 63, 64
1, 8399, Note_on_c, 9, 41, 76
1, 8402, Note_off_c, 9, 41, 64
1, 8412, Note_on_c, 2, 66, 98
1, 8429, Note_on_c, 2, 68, 101
1, 8431, Note_off_c, 2, 66, 64
1, 8434, Pitch_bend_c, 2, 8455
1, 8435, Pitch_bend_c, 2, 13181
1, 8438, Pitch_bend_c, 2, 16383
1, 8443, Note_off_c, 2, 68, 64
1, 8447, Pitch_bend_c, 2, 8192
1, 8448, Control_c, 2, 11, 127
1, 8448, Control_c, 1, 11, 127
1, 8448, Control_c, 9, 11, 127
1, 8448, Note_on_c, 9, 59, 117
1, 8448, Note_on_c, 9, 35, 124
1, 8448, Note_on_c, 1, 39, 88
1, 8448, Note_on_c, 2, 68, 119
1, 8451, Note_off_c, 9, 59, 64
1, 8451, Note_off_c, 9, 35, 64
1, 8460, Control_c, 1, 11, 123
1, 8460, Control_c, 2, 11, 123
1, 8460, Control_c, 9, 11, 123
1, 8461, Note_off_c, 2, 68, 64
1, 8463, Note_on_c, 2, 66, 78
1, 8472, Control_c, 1, 11, 119
1, 8472, Control_c, 2, 11, 119
1, 8472, Control_c, 9, 11, 119
1, 8476, Note_off_c, 2, 66, 64
1, 8478, Note_on_c, 2, 68, 105
1, 8484, Control_c, 1, 11, 115
1, 8484, Control_c, 2, 11, 115
1, 8484, Control_c, 9, 11, 115
1, 8495, Note_on_c, 9, 44, 70
1, 8496, Control_c, 9, 11, 111
1, 8496, Control_c, 1, 11, 111
1, 8496, Control_c, 2, 11, 111
1, 8498, Note_off_c, 9, 44, 64
1, 8508, Pitch_bend_c, 2, 11133
1, 8508, Control_c, 2, 11, 107
1, 8508, Control_c, 1, 11, 107
1, 8508, Control_c, 9, 11, 107
1, 8512, Pitch_bend_c, 2, 14231
1, 8515, Pitch_bend_c, 2, 14861
1, 8519, Pitch_bend_c, 2, 12235
1, 8520, Control_c, 2, 11, 103
1, 8520, Control_c, 1, 11, 103
1, 8520, Control_c, 9, 11, 103
1, 8523, Pitch_bend_c, 2, 8718
1, 8524, Pitch_bend_c, 2, 8192
1, 8525, Note_off_c, 2, 68, 64
1, 8525, Note_on_c, 2, 66, 84
1, 8532, Control_c, 1, 11, 99
1, 8532, Control_c, 2, 11, 99
1, 8532, Control_c, 9, 11, 99
1, 8541, Note_off_c, 1, 39, 64
1, 8541, Note_off_c, 2, 66, 64
1, 8542, Note_on_c, 2, 63, 84
1, 8543, Note_on_c, 9, 44, 52
1, 8544, Note_on_c, 1, 27, 63
1, 8544, Control_c, 1, 11, 95
1, 8544, Control_c, 2, 11, 95
1, 8544, Control_c, 9, 11, 95
1, 8545, Note_on_c, 9, 40, 92
1, 8546, Note_off_c, 9, 44, 64
1, 8548, Note_off_c, 9, 40, 64
1, 8556, Control_c, 1, 11, 91
1, 8556, Control_c, 2, 11, 91
1, 8556, Control_c, 9, 11, 91
1, 8568, Control_c, 9, 11, 87
1, 8568, Control_c, 2, 11, 87
1, 8568, Control_c, 1, 11, 87
1, 8580, Note_on_c, 2, 68, 38
1, 8581, Control_c, 1, 11, 83
1, 8581, Control_c, 2, 11, 83
1, 8581, Control_c, 9, 11, 83
1, 8591, Note_on_c, 9, 44, 45
1, 8593, Control_c, 9, 11, 79
1, 8593, Control_c, 1, 11, 79
1, 8593, Control_c, 2, 11, 79
1, 8594, Note_off_c, 9, 44, 64
1, 8605, Control_c, 1, 11, 75
1, 8605, Control_c, 2, 11, 75
1, 8605, Control_c, 9, 11, 75
1, 8617, Pitch_bend_c, 2, 7886
1, 8617, Control_c, 2, 11, 71
1, 8617, Control_c, 1, 11, 71
1, 8617, Control_c, 9, 11, 71
1, 8619, Pitch_bend_c, 2, 8192
1, 8623, Control_c, 2, 1, 96
1, 8626, Control_c, 2, 1, 127
1, 8629, Control_c, 1, 11, 67
1, 8629, Control_c, 2, 11, 67
1, 8629, Control_c, 9, 11, 67
1, 8637, Note_on_c, 9, 35, 51
1, 8640, Note_off_c, 9, 35, 64
1, 8640, Note_on_c, 1, 39, 46
1, 8640, Note_on_c, 9, 44, 33
1, 8641, Note_off_c, 1, 27, 64
1, 8641, Control_c, 1, 11, 63
1, 8641, Control_c, 2, 11, 63
1, 8641, Control_c, 9, 11, 63
1, 8643, Note_off_c, 9, 44, 64
1, 8653, Control_c, 1, 11, 59
1, 8653, Control_c, 2, 11, 59
1, 8653, Control_c, 9, 11, 59
1, 8657, Note_off_c, 1, 39, 64
1, 8665, Control_c, 1, 11, 55
1, 8665, Control_c, 2, 11, 55
1, 8665, Control_c, 9, 11, 55
1, 8677, Control_c, 9, 11, 51
1, 8677, Control_c, 2, 11, 51
1, 8677, Control_c, 1, 11, 51
1, 8687, Note_on_c, 1, 39, 31
1, 8687, Note_on_c, 9, 44, 25
1, 8689, Control_c, 9, 11, 47
1, 8689, Control_c, 1, 11, 47
1, 8689, Control_c, 2, 11, 47
1, 8690, Note_off_c, 9, 44, 64
1, 8701, Control_c, 1, 11, 43
1, 8701, Control_c, 2, 11, 43
1, 8701, Control_c, 9, 11, 43
1, 8714, Control_c, 9, 11, 39
1, 8714, Control_c, 2, 11, 39
1, 8714, Control_c, 1, 11, 39
1, 8726, Control_c, 1, 11, 35
1, 8726, Control_c, 2, 11, 35
1, 8726, Control_c, 9, 11, 35
1, 8736, Note_on_c, 9, 44, 20
1, 8736, Note_on_c, 9, 40, 30
1, 8738, Control_c, 9, 11, 31
1, 8738, Control_c, 1, 11, 31
1, 8738, Control_c, 2, 11, 31
1, 8739, Note_off_c, 9, 44, 64
1, 8739, Note_off_c, 9, 40, 64
1, 8750, Control_c, 1, 11, 27
1, 8750, Control_c, 2, 11, 27
1, 8750, Control_c, 9, 11, 27
1, 8760, Note_off_c, 1, 39, 64
1, 8760, Control_c, 2, 1, 0
1, 8762, Control_c, 1, 11, 23
1, 8762, Control_c, 2, 11, 23
1, 8762, Control_c, 9, 11, 23
1, 8764, Note_off_c, 2, 68, 64
1, 8766, Note_off_c, 2, 63, 64
1, 8768, Note_on_c, 1, 37, 8
1, 8768, Note_on_c, 2, 61, 16
1, 8774, Control_c, 1, 11, 19
1, 8774, Control_c, 2, 11, 19
1, 8774, Control_c, 9, 11, 19
1, 8783, Note_off_c, 1, 37, 64
1, 8783, Note_off_c, 2, 61, 64
1, 8783, Note_on_c, 9, 44, 10
1, 8784, Note_on_c, 1, 39, 10
1, 8785, Note_on_c, 2, 58, 9
1, 8786, Note_off_c, 9, 44, 64
1, 8786, Control_c, 1, 11, 15
1, 8786, Control_c, 2, 11, 15
1, 8786, Control_c, 9, 11, 15
1, 8798, Control_c, 9, 11, 11
1, 8798, Control_c, 2, 11, 11
1, 8798, Control_c, 1, 11, 11
1, 8799, Note_off_c, 2, 58, 64
1, 8799, Note_on_c, 2, 57, 8
1, 8810, Control_c, 1, 11, 7
1, 8810, Control_c, 2, 11, 7
1, 8810, Control_c, 9, 11, 7
1, 8813, Note_off_c, 1, 39, 64
1, 8814, Note_off_c, 2, 57, 64
1, 8815, Note_on_c, 2, 56, 6
1, 8815, Note_on_c, 9, 44, 4
1, 8816, Note_on_c, 1, 41, 4
1, 8817, Note_on_c, 9, 35, 2
1, 8818, Note_off_c, 9, 44, 64
1, 8820, Note_off_c, 9, 35, 64
1, 8820, Note_off_c, 2, 56, 64
1, 8822, Control_c, 1, 11, 3
1, 8822, Control_c, 2, 11, 3
1, 8822, Control_c, 9, 11, 3
1, 8831, Note_on_c, 9, 44, 2
1, 8832, Control_c, 9, 11, 0
1, 8832, Control_c, 1, 11, 0
1, 8832, Control_c, 2, 11, 0
1, 8832, Note_on_c, 1, 42, 85
1, 8833, Note_on_c, 2, 68, 119
1, 8834, Note_off_c, 9, 44, 64
1, 8835, Note_off_c, 1, 41, 64
1, 8844, Control_c, 1, 11, 4
1, 8844, Control_c, 2, 11, 4
1, 8844, Control_c, 9, 11, 4
1, 8848, Note_off_c, 1, 42, 64
1, 8856, Control_c, 1, 11, 8
1, 8856, Control_c, 2, 11, 8
1, 8856, Control_c, 9, 11, 8
1, 8864, Pitch_bend_c, 2, 16383
1, 8868, Control_c, 2, 11, 12
1, 8868, Control_c, 1, 11, 12
1, 8868, Control_c, 9, 11, 12
1, 8879, Note_on_c, 9, 59, 61
1, 8879, Note_on_c, 9, 35, 90
1, 8879, Note_on_c, 2, 71, 97
1, 8880, Note_on_c, 2, 76, 106
1, 8880, Note_on_c, 1, 42, 78
1, 8880, Control_c, 1, 11, 16
1, 8880, Control_c, 2, 11, 16
1, 8880, Control_c, 9, 11, 16
1, 8882, Note_off_c, 9, 59, 64
1, 8882, Note_off_c, 9, 35, 64
1, 8892, Control_c, 1, 11, 20
1, 8892, Control_c, 2, 11, 20
1, 8892, Control_c, 9, 11, 20
1, 8904, Control_c, 9, 11, 24
1, 8904, Control_c, 2, 11, 24
1, 8904, Control_c, 1, 11, 24
1, 8905, Note_off_c, 2, 76, 64
1, 8906, Note_off_c, 2, 71, 64
1, 8906, Note_off_c, 2, 68, 64
1, 8911, Note_on_c, 2, 76, 109
1, 8911, Note_on_c, 2, 71, 106
1, 8916, Control_c, 1, 11, 28
1, 8916, Control_c, 2, 11, 28
1, 8916, Control_c, 9, 11, 28
1, 8924, Note_off_c, 2, 76, 64
1, 8924, Note_off_c, 2, 71, 64
1, 8925, Pitch_bend_c, 2, 9663
1, 8926, Pitch_bend_c, 2, 8192
1, 8927, Note_on_c, 2, 68, 119
1, 8927, Note_on_c, 9, 59, 84
1, 8927, Note_on_c, 9, 40, 113
1, 8928, Control_c, 9, 11, 32
1, 8928, Control_c, 1, 11, 32
1, 8928, Control_c, 2, 11, 32
1, 8930, Note_off_c, 9, 59, 64
1, 8930, Note_off_c, 9, 40, 64
1, 8932, Pitch_bend_c, 2, 9505
1, 8933, Pitch_bend_c, 2, 16383
1, 8940, Control_c, 2, 11, 36
1, 8940, Control_c, 1, 11, 36
1, 8940, Control_c, 9, 11, 36
1, 8952, Control_c, 9, 11, 40
1, 8952, Control_c, 1, 11, 40
1, 8952, Control_c, 2, 11, 40
1, 8957, Note_on_c, 2, 71, 90
1, 8957, Note_on_c, 2, 76, 111
1, 8958, Note_off_c, 1, 42, 64
1, 8960, Note_on_c, 1, 37, 49
1, 8965, Control_c, 1, 11, 44
1, 8965, Control_c, 2, 11, 44
1, 8965, Control_c, 9, 11, 44
1, 8970, Note_off_c, 2, 76, 64
1, 8972, Note_off_c, 2, 68, 64
1, 8973, Note_off_c, 2, 71, 64
1, 8973, Pitch_bend_c, 2, 13863
1, 8974, Pitch_bend_c, 2, 10293
1, 8975, Pitch_bend_c, 2, 8192
1, 8976, Note_off_c, 1, 37, 64
1, 8976, Note_on_c, 1, 42, 76
1, 8976, Note_on_c, 2, 68, 109
1, 8976, Note_on_c, 2, 73, 96
1, 8977, Control_c, 1, 11, 48
1, 8977, Control_c, 2, 11, 48
1, 8977, Control_c, 9, 11, 48
1, 8977, Note_on_c, 9, 59, 76
1, 8980, Note_off_c, 9, 59, 64
1, 8989, Control_c, 1, 11, 52
1, 8989, Control_c, 2, 11, 52
1, 8989, Control_c, 9, 11, 52
1, 9001, Control_c, 9, 11, 56
1, 9001, Control_c, 2, 11, 56
1, 9001, Control_c, 1, 11, 56
1, 9006, Note_off_c, 2, 68, 64
1, 9006, Note_off_c, 2, 73, 64
1, 9006, Note_on_c, 2, 44, 91
1, 9006, Note_on_c, 2, 49, 86
1, 9007, Note_on_c, 2, 54, 92
1, 9008, Note_on_c, 9, 35, 66
1, 9009, Note_on_c, 9, 51, 43
1, 9011, Note_off_c, 9, 35, 64
1, 9012, Note_off_c, 9, 51, 64
1, 9013, Control_c, 1, 11, 60
1, 9013, Control_c, 2, 11, 60
1, 9013, Control_c, 9, 11, 60
1, 9021, Note_off_c, 1, 42, 64
1, 9022, Note_off_c, 2, 44, 64
1, 9023, Note_off_c, 2, 49, 64
1, 9023, Note_off_c, 2, 54, 64
1, 9023, Note_on_c, 9, 35, 95
1, 9024, Note_on_c, 1, 40, 70
1, 9025, Note_on_c, 2, 66, 123
1, 9025, Note_on_c, 9, 57, 82
1, 9025, Control_c, 9, 11, 64
1, 9025, Control_c, 1, 11, 64
1, 9025, Control_c, 2, 11, 64
1, 9026, Note_off_c, 9, 35, 64
1, 9028, Note_off_c, 9, 57, 64
1, 9037, Control_c, 1, 11, 68
1, 9037, Control_c, 2, 11, 68
1, 9037, Control_c, 9, 11, 68
1, 9041, Note_off_c, 1, 40, 64
1, 9045, Pitch_bend_c, 2, 9138
1, 9048, Pitch_bend_c, 2, 9873
1, 9049, Control_c, 2, 11, 72
1, 9049, Control_c, 1, 11, 72
1, 9049, Control_c, 9, 11, 72
1, 9051, Pitch_bend_c, 2, 11290
1, 9055, Pitch_bend_c, 2, 13076
1, 9059, Pitch_bend_c, 2, 14808
1, 9061, Control_c, 2, 11, 76
1, 9061, Control_c, 1, 11, 76
1, 9061, Control_c, 9, 11, 76
1, 9062, Pitch_bend_c, 2, 16383
1, 9071, Pitch_bend_c, 2, 16226
1, 9071, Note_on_c, 9, 59, 52
1, 9072, Note_off_c, 2, 66, 64
1, 9072, Pitch_bend_c, 2, 9873
1, 9072, Note_on_c, 1, 40, 89
1, 9072, Note_on_c, 9, 35, 96
1, 9073, Pitch_bend_c, 2, 8192
1, 9073, Control_c, 2, 11, 80
1, 9073, Control_c, 1, 11, 80
1, 9073, Control_c, 9, 11, 80
1, 9074, Note_off_c, 9, 59, 64
1, 9074, Note_on_c, 2, 68, 102
1, 9074, Note_on_c, 2, 71, 95
1, 9074, Note_on_c, 2, 76, 98
1, 9075, Note_off_c, 9, 35, 64
1, 9085, Control_c, 1, 11, 84
1, 9085, Control_c, 2, 11, 84
1, 9085, Control_c, 9, 11, 84
1, 9095, Note_off_c, 2, 76, 64
1, 9096, Note_off_c, 2, 71, 64
1, 9097, Note_off_c, 2, 68, 64
1, 9098, Control_c, 1, 11, 88
1, 9098, Control_c, 2, 11, 88
1, 9098, Control_c, 9, 11, 88
1, 9103, Note_on_c, 2, 71, 98
1, 9103, Note_on_c, 2, 68, 97
1, 9103, Note_on_c, 2, 76, 98
1, 9110, Control_c, 1, 11, 92
1, 9110, Control_c, 2, 11, 92
1, 9110, Control_c, 9, 11, 92
1, 9113, Note_off_c, 2, 76, 64
1, 9114, Note_off_c, 2, 71, 64
1, 9114, Note_off_c, 2, 68, 64
1, 9119, Note_on_c, 2, 66, 101
1, 9120, Note_on_c, 9, 59, 83
1, 9120, Note_on_c, 9, 40, 97
1, 9122, Note_on_c, 2, 76, 88
1, 9122, Note_on_c, 2, 71, 90
1, 9122, Control_c, 1, 11, 96
1, 9122, Control_c, 2, 11, 96
1, 9122, Control_c, 9, 11, 96
1, 9123, Note_off_c, 9, 59, 64
1, 9123, Note_off_c, 9, 40, 64
1, 9123, Note_on_c, 2, 68, 86
1, 9125, Note_off_c, 2, 66, 64
1, 9134, Control_c, 1, 11, 100
1, 9134, Control_c, 2, 11, 100
1, 9134, Control_c, 9, 11, 100
1, 9146, Control_c, 9, 11, 104
1, 9146, Control_c, 2, 11, 104
1, 9146, Control_c, 1, 11, 104
1, 9153, Note_on_c, 2, 44, 90
1, 9154, Note_off_c, 2, 68, 64
1, 9154, Note_off_c, 2, 71, 64
1, 9154, Note_off_c, 2, 76, 64
1, 9158, Control_c, 1, 11, 108
1, 9158, Control_c, 2, 11, 108
1, 9158, Control_c, 9, 11, 108
1, 9159, Note_off_c, 1, 40, 64
1, 9167, Note_on_c, 9, 59, 69
1, 9168, Note_on_c, 1, 40, 80
1, 9170, Note_off_c, 2, 44, 64
1, 9170, Note_off_c, 9, 59, 64
1, 9170, Note_on_c, 2, 71, 121
1, 9170, Control_c, 1, 11, 112
1, 9170, Control_c, 2, 11, 112
1, 9170, Control_c, 9, 11, 112
1, 9182, Control_c, 9, 11, 116
1, 9182, Control_c, 2, 11, 116
1, 9182, Control_c, 1, 11, 116
1, 9194, Control_c, 1, 11, 120
1, 9194, Control_c, 2, 11, 120
1, 9194, Control_c, 9, 11, 120
1, 9197, Note_off_c, 2, 71, 64
1, 9198, Note_on_c, 9, 51, 63
1, 9199, Note_on_c, 9, 35, 52
1, 9199, Note_on_c, 2, 44, 93
1, 9199, Note_on_c, 2, 49, 97
1, 9200, Note_on_c, 1, 42, 72
1, 9201, Note_off_c, 9, 51, 64
1, 9202, Note_off_c, 1, 40, 64
1, 9202, Note_off_c, 9, 35, 64
1, 9206, Control_c, 1, 11, 124
1, 9206, Control_c, 2, 11, 124
1, 9206, Control_c, 9, 11, 124
1, 9212, Control_c, 9, 11, 126
1, 9212, Control_c, 2, 11, 126
1, 9212, Control_c, 1, 11, 126
1, 9213, Note_off_c, 2, 44, 64
1, 9214, Note_off_c, 2, 49, 64
1, 9215, Note_on_c, 9, 49, 77
1, 9215, Note_on_c, 9, 35, 98
1, 9216, Time_signature, 2, 2, 24, 8
1, 9216, Control_c, 1, 11, 127
1, 9216, Control_c, 2, 11, 127
1, 9216, Control_c, 9, 11, 127
1, 9216, Note_on_c, 2, 63, 106
1, 9216, Note_on_c, 2, 59, 98
1, 9216, Note_on_c, 1, 35, 81
1, 9218, Note_off_c, 1, 42, 64
1, 9218, Note_off_c, 9, 49, 64
1, 9218, Note_off_c, 9, 35, 64
1, 9235, Note_off_c, 1, 35, 64
1, 9238, Note_off_c, 2, 59, 64
1, 9240, Note_off_c, 2, 63, 64
1, 9246, Note_on_c, 2, 66, 102
1, 9246, Note_on_c, 2, 63, 106
1, 9256, Note_off_c, 2, 66, 64
1, 9256, Note_off_c, 2, 63, 64
1, 9260, Note_on_c, 2, 61, 101
1, 9261, Note_on_c, 2, 66, 97
1, 9262, Note_on_c, 9, 59, 73
1, 9263, Note_on_c, 9, 35, 91
1, 9264, Note_on_c, 1, 35, 91
1, 9265, Note_off_c, 9, 59, 64
1, 9266, Note_off_c, 9, 35, 64
1, 9268, Note_off_c, 2, 61, 64
1, 9268, Note_on_c, 2, 63, 90
1, 9275, Note_on_c, 2, 61, 93
1, 9276, Note_off_c, 2, 63, 64
1, 9280, Note_off_c, 2, 66, 64
1, 9287, Note_off_c, 2, 61, 64
1, 9291, Note_on_c, 2, 59, 100
1, 9292, Note_on_c, 2, 63, 100
1, 9304, Note_off_c, 2, 59, 64
1, 9305, Note_off_c, 2, 63, 64
1, 9309, Note_on_c, 2, 66, 96
1, 9309, Note_on_c, 2, 61, 86
1, 9312, Note_on_c, 9, 59, 82
1, 9312, Note_on_c, 9, 40, 107
1, 9315, Note_off_c, 9, 59, 64
1, 9315, Note_off_c, 9, 40, 64
1, 9334, Note_off_c, 2, 66, 64
1, 9334, Note_off_c, 2, 61, 64
1, 9339, Note_on_c, 2, 59, 92
1, 9349, Note_off_c, 1, 35, 64
1, 9352, Note_off_c, 2, 59, 64
1, 9356, Note_on_c, 2, 61, 93
1, 9356, Note_on_c, 2, 66, 102
1, 9359, Note_on_c, 9, 59, 76
1, 9360, Note_on_c, 1, 35, 65
1, 9362, Note_off_c, 9, 59, 64
1, 9382, Note_off_c, 2, 66, 64
1, 9385, Note_off_c, 2, 61, 64
1, 9388, Note_on_c, 2, 59, 95
1, 9388, Note_on_c, 2, 63, 93
1, 9390, Note_on_c, 9, 51, 61
1, 9393, Note_off_c, 9, 51, 64
1, 9405, Note_off_c, 2, 59, 64
1, 9406, Note_off_c, 2, 63, 64
1, 9407, Note_on_c, 9, 35, 92
1, 9408, Time_signature, 4, 2, 24, 8
1, 9408, Note_off_c, 1, 35, 64
1, 9408, Note_on_c, 1, 37, 75
1, 9408, Note_on_c, 9, 57, 78
1, 9409, Note_on_c, 2, 59, 127
1, 9409, Note_on_c, 2, 47, 124
1, 9410, Note_off_c, 9, 35, 64
1, 9411, Note_off_c, 9, 57, 64
1, 9415, Note_off_c, 2, 59, 64
1, 9417, Note_off_c, 2, 47, 64
1, 9417, Note_on_c, 2, 61, 98
1, 9417, Note_on_c, 2, 49, 102
1, 9428, Note_off_c, 1, 37, 64
1, 9451, Note_off_c, 2, 49, 64
1, 9451, Note_off_c, 2, 61, 64
1, 9456, Note_on_c, 1, 37, 72
1, 9456, Note_on_c, 9, 59, 73
1, 9456, Note_on_c, 9, 35, 84
1, 9457, Note_on_c, 2, 49, 85
1, 9457, Note_on_c, 2, 61, 111
1, 9459, Note_off_c, 9, 59, 64
1, 9459, Note_off_c, 9, 35, 64
1, 9482, Note_off_c, 2, 49, 64
1, 9482, Note_off_c, 2, 61, 64
1, 9486, Note_on_c, 2, 61, 119
1, 9486, Note_on_c, 2, 49, 102
1, 9494, Note_off_c, 2, 49, 64
1, 9495, Note_off_c, 2, 61, 64
1, 9503, Note_on_c, 9, 59, 86
1, 9503, Note_on_c, 9, 40, 101
1, 9504, Note_on_c, 2, 65, 93
1, 9504, Note_on_c, 2, 73, 90
1, 9504, Note_on_c, 2, 68, 102
1, 9505, Note_on_c, 2, 61, 80
1, 9506, Note_off_c, 9, 59, 64
1, 9506, Note_off_c, 9, 40, 64
1, 9527, Note_off_c, 2, 73, 64
1, 9527, Note_off_c, 2, 68, 64
1, 9528, Note_off_c, 2, 61, 64
1, 9528, Note_off_c, 2, 65, 64
1, 9533, Note_on_c, 2, 66, 93
1, 9533, Note_on_c, 2, 68, 81
1, 9537, Note_off_c, 1, 37, 64
1, 9540, Note_off_c, 2, 66, 64
1, 9542, Note_off_c, 2, 68, 64
1, 9548, Note_on_c, 2, 68, 86
1, 9548, Note_on_c, 2, 65, 74
1, 9550, Note_on_c, 9, 59, 75
1, 9552, Note_on_c, 1, 37, 61
1, 9553, Note_off_c, 9, 59, 64
1, 9554, Note_off_c, 2, 65, 64
1, 9554, Note_off_c, 2, 68, 64
1, 9555, Note_on_c, 2, 66, 92
1, 9562, Note_off_c, 2, 66, 64
1, 9563, Note_on_c, 2, 65, 82
1, 9564, Note_on_c, 2, 68, 95
1, 9575, Note_off_c, 2, 68, 64
1, 9576, Note_off_c, 2, 65, 64
1, 9579, Note_on_c, 2, 68, 97
1, 9579, Note_on_c, 2, 65, 96
1, 9580, Note_on_c, 2, 61, 80
1, 9583, Note_on_c, 9, 51, 53
1, 9586, Note_off_c, 9, 51, 64
1, 9592, Note_off_c, 2, 65, 64
1, 9593, Note_off_c, 2, 68, 64
1, 9594, Note_off_c, 2, 61, 64
1, 9599, Note_on_c, 2, 65, 93
1, 9599, Note_on_c, 2, 73, 90
1, 9599, Note_on_c, 9, 59, 89
1, 9600, Note_on_c, 9, 35, 101
1, 9600, Note_on_c, 2, 68, 102
1, 9600, Note_on_c, 2, 61, 80
1, 9602, Note_off_c, 9, 59, 64
1, 9603, Note_off_c, 9, 35, 64
1, 9622, Note_off_c, 2, 73, 64
1, 9622, Note_off_c, 2, 68, 64
1, 9623, Note_off_c, 2, 65, 64
1, 9623, Note_off_c, 2, 61, 64
1, 9628, Note_on_c, 2, 66, 93
1, 9628, Note_on_c, 2, 68, 81
1, 9635, Note_off_c, 1, 37, 64
1, 9635, Note_off_c, 2, 66, 64
1, 9637, Note_off_c, 2, 68, 64
1, 9643, Note_on_c, 2, 68, 86
1, 9643, Note_on_c, 2, 65, 74
1, 9647, Note_on_c, 9, 59, 82
1, 9647, Note_on_c, 9, 35, 95
1, 9648, Note_on_c, 1, 37, 66
1, 9649, Note_off_c, 2, 68, 64
1, 9649, Note_off_c, 2, 65, 64
1, 9650, Note_off_c, 9, 35, 64
1, 9650, Note_off_c, 9, 59, 64
1, 9650, Note_on_c, 2, 66, 92
1, 9657, Note_off_c, 2, 66, 64
1, 9658, Note_on_c, 2, 65, 82
1, 9659, Note_on_c, 2, 68, 95
1, 9670, Note_off_c, 2, 68, 64
1, 9671, Note_off_c, 2, 65, 64
1, 9674, Note_on_c, 2, 68, 97
1, 9674, Note_on_c, 2, 65, 96
1, 9675, Note_on_c, 2, 61, 80
1, 9687, Note_off_c, 2, 65, 64
1, 9688, Note_off_c, 2, 68, 64
1, 9689, Note_off_c, 2, 61, 64
1, 9695, Note_on_c, 9, 59, 85
1, 9695, Note_on_c, 9, 40, 109
1, 9696, Note_on_c, 2, 73, 102
1, 9696, Note_on_c, 2, 68, 101
1, 9696, Note_on_c, 2, 65, 96
1, 9697, Note_off_c, 2, 65, 64
1, 9697, Note_on_c, 2, 66, 96
1, 9698, Note_off_c, 9, 40, 64
1, 9698, Note_off_c, 9, 59, 64
1, 9719, Note_off_c, 2, 68, 64
1, 9719, Note_off_c, 2, 73, 64
1, 9720, Note_off_c, 2, 66, 64
1, 9724, Note_on_c, 2, 65, 102
1, 9725, Note_on_c, 2, 73, 81
1, 9725, Note_on_c, 2, 68, 92
1, 9728, Note_on_c, 9, 51, 45
1, 9731, Note_off_c, 1, 37, 64
1, 9731, Note_off_c, 9, 51, 64
1, 9731, Note_off_c, 2, 73, 64
1, 9734, Note_off_c, 2, 68, 64
1, 9736, Note_off_c, 2, 65, 64
1, 9740, Note_on_c, 2, 65, 102
1, 9740, Note_on_c, 2, 68, 91
1, 9741, Note_on_c, 2, 61, 93
1, 9744, Note_on_c, 1, 37, 73
1, 9744, Note_on_c, 9, 59, 85
1, 9744, Note_on_c, 9, 35, 100
1, 9747, Note_off_c, 9, 59, 64
1, 9747, Note_off_c, 9, 35, 64
1, 9761, Note_off_c, 2, 61, 64
1, 9765, Note_off_c, 2, 68, 64
1, 9766, Note_off_c, 2, 65, 64
1, 9771, Note_off_c, 1, 37, 64
1, 9773, Note_on_c, 2, 54, 98
1, 9774, Note_on_c, 2, 58, 83
1, 9775, Note_on_c, 9, 51, 66
1, 9778, Note_off_c, 9, 51, 64
1, 9787, Note_off_c, 2, 54, 64
1, 9789, Note_off_c, 2, 58, 64
1, 9790, Note_on_c, 9, 59, 77
1, 9792, Note_on_c, 9, 35, 123
1, 9792, Note_on_c, 2, 51, 123
1, 9792, Note_on_c, 2, 39, 124
1, 9792, Note_on_c, 2, 46, 121
1, 9793, Note_off_c, 9, 59, 64
1, 9793, Note_on_c, 1, 37, 88
1, 9795, Note_off_c, 9, 35, 64
1, 9817, Note_off_c, 1, 37, 64
1, 9818, Note_on_c, 1, 39, 88
1, 9820, Note_on_c, 2, 82, 127
1, 9820, Note_on_c, 2, 87, 127
1, 9821, Note_on_c, 2, 73, 127
1, 9821, Note_on_c, 2, 78, 127
1, 9822, Note_on_c, 2, 85, 86
1, 9822, Note_on_c, 9, 57, 61
1, 9823, Note_off_c, 2, 85, 64
1, 9823, Note_on_c, 9, 40, 127
1, 9825, Note_off_c, 9, 57, 64
1, 9826, Note_off_c, 9, 40, 64
1, 9834, Note_off_c, 1, 39, 64
1, 9837, Note_on_c, 1, 27, 101
1, 9839, Note_on_c, 9, 49, 115
1, 9840, Note_on_c, 9, 35, 121
1, 9842, Note_off_c, 9, 49, 64
1, 9843, Note_off_c, 9, 35, 64
1, 9871, Note_on_c, 9, 48, 117
1, 9871, Note_on_c, 9, 47, 127
1, 9874, Note_off_c, 9, 48, 64
1, 9874, Note_off_c, 9, 47, 64
1, 9919, Note_on_c, 9, 45, 101
1, 9922, Note_off_c, 9, 45, 64
1, 9952, Note_on_c, 9, 43, 80
1, 9955, Note_off_c, 9, 43, 64
1, 9967, Note_on_c, 9, 41, 69
1, 9970, Note_off_c, 9, 41, 64
1, 9981, Note_off_c, 2, 78, 64
1, 9981, Note_off_c, 2, 39, 64
1, 9981, Note_off_c, 2, 73, 64
1, 9981, Note_off_c, 2, 82, 64
1, 9981, Note_off_c, 2, 87, 64
1, 9982, Note_off_c, 2, 46, 64
1, 9982, Note_off_c, 2, 51, 64
1, 9983, Note_on_c, 9, 40, 127
1, 9984, Note_on_c, 2, 46, 117
1, 9984, Note_on_c, 2, 51, 111
1, 9984, Note_on_c, 2, 63, 123
1, 9985, Note_on_c, 2, 58, 127
1, 9985, Note_on_c, 2, 54, 111
1, 9985, Note_on_c, 2, 39, 107
1, 9985, Note_on_c, 3, 39, 80
1, 9986, Note_off_c, 9, 40, 64
1, 9986, Note_on_c, 3, 54, 80
1, 9986, Note_on_c, 3, 58, 80
1, 9986, Note_on_c, 3, 63, 80
1, 9986, Note_on_c, 3, 51, 80
1, 9986, Note_on_c, 3, 46, 80
1, 10008, Pitch_bend_c, 2, 7835
1, 10011, Pitch_bend_c, 2, 7174
1, 10013, Pitch_bend_c, 3, 7835
1, 10014, Pitch_bend_c, 3, 7835
1, 10014, Pitch_bend_c, 2, 6767
1, 10017, Pitch_bend_c, 2, 6360
1, 10017, Pitch_bend_c, 3, 7327
1, 10021, Pitch_bend_c, 3, 7225
1, 10021, Pitch_bend_c, 2, 5851
1, 10024, Pitch_bend_c, 2, 5546
1, 10025, Pitch_bend_c, 3, 7072
1, 10027, Pitch_bend_c, 2, 5240
1, 10029, Pitch_bend_c, 3, 7021
1, 10032, Pitch_bend_c, 3, 7021
1, 10032, Pitch_bend_c, 2, 4935
1, 10035, Pitch_bend_c, 2, 4681
1, 10037, Pitch_bend_c, 3, 6970
1, 10038, Pitch_bend_c, 3, 6716
1, 10038, Pitch_bend_c, 2, 4477
1, 10042, Pitch_bend_c, 2, 4375
1, 10043, Pitch_bend_c, 3, 6614
1, 10047, Pitch_bend_c, 3, 6512
1, 10047, Pitch_bend_c, 2, 4528
1, 10049, Pitch_bend_c, 2, 4986
1, 10049, Pitch_bend_c, 3, 6309
1, 10053, Pitch_bend_c, 3, 6105
1, 10053, Pitch_bend_c, 2, 5342
1, 10056, Pitch_bend_c, 3, 5953
1, 10057, Pitch_bend_c, 2, 5495
1, 10060, Pitch_bend_c, 2, 5800
1, 10060, Pitch_bend_c, 3, 5800
1, 10063, Pitch_bend_c, 3, 5647
1, 10063, Pitch_bend_c, 2, 6054
1, 10063, Note_on_c, 9, 47, 121
1, 10066, Note_off_c, 9, 47, 64
1, 10066, Pitch_bend_c, 2, 6309
1, 10067, Pitch_bend_c, 3, 5495
1, 10070, Pitch_bend_c, 2, 6512
1, 10071, Pitch_bend_c, 3, 5444
1, 10074, Pitch_bend_c, 3, 5393
1, 10074, Pitch_bend_c, 2, 6716
1, 10077, Pitch_bend_c, 3, 5240
1, 10078, Pitch_bend_c, 2, 7021
1, 10080, Pitch_bend_c, 2, 7225
1, 10080, Pitch_bend_c, 3, 5088
1, 10085, Pitch_bend_c, 2, 7377
1, 10087, Pitch_bend_c, 2, 7479
1, 10091, Pitch_bend_c, 2, 7937
1, 10094, Pitch_bend_c, 3, 5240
1, 10096, Note_on_c, 9, 45, 72
1, 10097, Pitch_bend_c, 2, 8192
1, 10098, Pitch_bend_c, 3, 5495
1, 10099, Note_off_c, 9, 45, 64
1, 10101, Pitch_bend_c, 3, 5851
1, 10105, Pitch_bend_c, 3, 6105
1, 10109, Pitch_bend_c, 3, 6309
1, 10111, Note_on_c, 9, 43, 82
1, 10112, Pitch_bend_c, 3, 6665
1, 10114, Note_off_c, 9, 43, 64
1, 10116, Pitch_bend_c, 3, 6869
1, 10119, Pitch_bend_c, 3, 7174
1, 10123, Pitch_bend_c, 3, 7377
1, 10128, Note_on_c, 9, 41, 101
1, 10129, Pitch_bend_c, 3, 7835
1, 10131, Note_off_c, 9, 41, 64
1, 10135, Pitch_bend_c, 3, 7937
1, 10136, Pitch_bend_c, 3, 8192
1, 10154, Note_off_c, 3, 54, 64
1, 10154, Note_off_c, 2, 54, 64
1, 10155, Note_off_c, 3, 58, 64
1, 10155, Note_off_c, 2, 58, 64
1, 10157, Note_off_c, 2, 63, 64
1, 10157, Note_off_c, 2, 39, 64
1, 10157, Note_off_c, 3, 39, 64
1, 10157, Note_off_c, 3, 63, 64
1, 10157, Note_off_c, 2, 46, 64
1, 10158, Note_off_c, 3, 51, 64
1, 10158, Note_off_c, 2, 51, 64
1, 10158, Note_off_c, 3, 46, 64
1, 10159, Note_on_c, 2, 58, 113
1, 10159, Note_on_c, 2, 54, 101
1, 10159, Note_on_c, 3, 58, 113
1, 10159, Note_on_c, 3, 54, 101
1, 10160, Note_off_c, 1, 27, 64
1, 10173, Note_off_c, 2, 58, 64
1, 10173, Note_off_c, 2, 54, 64
1, 10174, Note_off_c, 3, 58, 64
1, 10174, Note_off_c, 3, 54, 64
1, 10176, Note_on_c, 1, 27, 127
1, 10176, Note_on_c, 9, 49, 119
1, 10176, Note_on_c, 9, 35, 127
1, 10178, Note_on_c, 3, 73, 127
1, 10179, Note_off_c, 9, 49, 64
1, 10179, Note_off_c, 9, 35, 64
1, 10193, Pitch_bend_c, 3, 9161
1, 10196, Pitch_bend_c, 3, 9729
1, 10199, Pitch_bend_c, 3, 10264
1, 10203, Pitch_bend_c, 3, 11000
1, 10207, Pitch_bend_c, 3, 11301
1, 10210, Pitch_bend_c, 3, 11836
1, 10213, Pitch_bend_c, 3, 12337
1, 10217, Pitch_bend_c, 3, 12772
1, 10220, Pitch_bend_c, 3, 13240
1, 10223, Note_on_c, 9, 59, 106
1, 10224, Pitch_bend_c, 3, 13608
1, 10226, Note_off_c, 9, 59, 64
1, 10228, Pitch_bend_c, 3, 13975
1, 10231, Pitch_bend_c, 3, 14343
1, 10234, Pitch_bend_c, 3, 14677
1, 10238, Pitch_bend_c, 3, 14911
1, 10241, Pitch_bend_c, 3, 15279
1, 10245, Pitch_bend_c, 3, 15647
1, 10249, Pitch_bend_c, 3, 15981
1, 10253, Pitch_bend_c, 3, 16249
1, 10255, Note_on_c, 9, 51, 57
1, 10256, Note_on_c, 9, 35, 107
1, 10257, Pitch_bend_c, 3, 16383
1, 10258, Note_off_c, 9, 51, 64
1, 10259, Note_off_c, 9, 35, 64
1, 10271, Note_on_c, 9, 59, 113
1, 10272, Note_on_c, 9, 40, 127
1, 10274, Note_off_c, 9, 59, 64
1, 10274, Control_c, 3, 1, 9
1, 10275, Note_off_c, 9, 40, 64
1, 10276, Control_c, 3, 1, 122
1, 10281, Control_c, 3, 1, 126
1, 10285, Control_c, 3, 1, 127
1, 10319, Note_on_c, 9, 59, 115
1, 10322, Note_off_c, 9, 59, 64
1, 10344, Note_off_c, 3, 73, 64
1, 10345, Control_c, 3, 1, 0
1, 10346, Pitch_bend_c, 3, 15547
1, 10347, Note_on_c, 3, 49, 107
1, 10348, Pitch_bend_c, 3, 12203
1, 10348, Note_on_c, 3, 58, 106
1, 10348, Note_on_c, 3, 54, 107
1, 10349, Note_off_c, 1, 27, 64
1, 10349, Pitch_bend_c, 3, 8192
1, 10351, Note_on_c, 9, 51, 52
1, 10352, Note_on_c, 9, 35, 97
1, 10352, Note_on_c, 1, 34, 121
1, 10354, Note_off_c, 9, 51, 64
1, 10355, Note_off_c, 9, 35, 64
1, 10364, Note_off_c, 3, 54, 64
1, 10364, Note_off_c, 3, 49, 64
1, 10365, Note_off_c, 3, 58, 64
1, 10368, Note_on_c, 3, 73, 126
1, 10368, Note_on_c, 9, 35, 126
1, 10368, Note_on_c, 9, 59, 104
1, 10369, Note_off_c, 1, 34, 64
1, 10369, Note_on_c, 1, 39, 123
1, 10371, Note_off_c, 9, 59, 64
1, 10371, Note_off_c, 9, 35, 64
1, 10373, Pitch_bend_c, 3, 9715
1, 10375, Pitch_bend_c, 3, 13128
1, 10378, Pitch_bend_c, 3, 15123
1, 10381, Pitch_bend_c, 3, 16383
1, 10408, Note_off_c, 3, 73, 64
1, 10409, Pitch_bend_c, 3, 8823
1, 10412, Pitch_bend_c, 3, 8192
1, 10414, Note_on_c, 3, 73, 124
1, 10416, Note_off_c, 1, 39, 64
1, 10416, Note_on_c, 9, 35, 121
1, 10416, Note_on_c, 9, 59, 115
1, 10417, Pitch_bend_c, 3, 9978
1, 10418, Note_on_c, 1, 37, 102
1, 10419, Note_off_c, 9, 35, 64
1, 10419, Note_off_c, 9, 59, 64
1, 10420, Pitch_bend_c, 3, 12498
1, 10423, Pitch_bend_c, 3, 13863
1, 10427, Pitch_bend_c, 3, 14493
1, 10431, Pitch_bend_c, 3, 15543
1, 10434, Pitch_bend_c, 3, 16331
1, 10437, Pitch_bend_c, 3, 16383
1, 10447, Note_on_c, 9, 51, 57
1, 10450, Note_off_c, 9, 51, 64
1, 10456, Note_off_c, 3, 73, 64
1, 10458, Pitch_bend_c, 3, 16278
1, 10459, Pitch_bend_c, 3, 9820
1, 10461, Pitch_bend_c, 3, 8192
1, 10462, Note_off_c, 1, 37, 64
1, 10464, Note_on_c, 3, 73, 123
1, 10464, Note_on_c, 9, 40, 127
1, 10464, Note_on_c, 9, 59, 123
1, 10466, Note_on_c, 1, 34, 126
1, 10467, Note_off_c, 9, 40, 64
1, 10467, Note_off_c, 9, 59, 64
1, 10468, Pitch_bend_c, 3, 8455
1, 10469, Pitch_bend_c, 3, 12446
1, 10473, Pitch_bend_c, 3, 15701
1, 10476, Pitch_bend_c, 3, 16383
1, 10480, Pitch_bend_c, 3, 10713
1, 10483, Pitch_bend_c, 3, 8875
1, 10484, Pitch_bend_c, 3, 8192
1, 10493, Note_off_c, 3, 73, 64
1, 10494, Note_on_c, 3, 70, 115
1, 10496, Note_on_c, 9, 51, 48
1, 10499, Note_off_c, 9, 51, 64
1, 10508, Note_off_c, 3, 70, 64
1, 10509, Note_off_c, 1, 34, 64
1, 10510, Note_on_c, 3, 68, 107
1, 10511, Note_on_c, 9, 53, 111
1, 10513, Note_on_c, 1, 32, 95
1, 10514, Note_off_c, 9, 53, 64
1, 10514, Pitch_bend_c, 3, 8875
1, 10515, Pitch_bend_c, 3, 13863
1, 10518, Pitch_bend_c, 3, 16383
1, 10525, Pitch_bend_c, 3, 11500
1, 10526, Pitch_bend_c, 3, 8192
1, 10527, Note_on_c, 3, 70, 109
1, 10528, Note_off_c, 3, 68, 64
1, 10541, Note_off_c, 3, 70, 64
1, 10542, Note_on_c, 3, 75, 113
1, 10543, Note_on_c, 9, 51, 52
1, 10546, Note_off_c, 9, 51, 64
1, 10556, Note_off_c, 1, 32, 64
1, 10558, Note_off_c, 3, 75, 64
1, 10560, Note_on_c, 3, 68, 127
1, 10560, Note_on_c, 9, 57, 107
1, 10560, Note_on_c, 9, 35, 115
1, 10561, Note_on_c, 1, 30, 111
1, 10563, Note_off_c, 9, 57, 64
1, 10563, Note_off_c, 9, 35, 64
1, 10563, Pitch_bend_c, 3, 13601
1, 10567, Pitch_bend_c, 3, 16383
1, 10573, Pitch_bend_c, 3, 13758
1, 10574, Pitch_bend_c, 3, 8613
1, 10575, Pitch_bend_c, 3, 8192
1, 10584, Note_off_c, 3, 68, 64
1, 10584, Note_on_c, 3, 66, 109
1, 10593, Note_off_c, 3, 66, 64
1, 10594, Note_on_c, 3, 63, 113
1, 10605, Note_on_c, 3, 68, 127
1, 10606, Note_off_c, 3, 63, 64
1, 10607, Note_on_c, 9, 59, 92
1, 10610, Note_off_c, 9, 59, 64
1, 10611, Pitch_bend_c, 3, 8560
1, 10612, Pitch_bend_c, 3, 10345
1, 10616, Pitch_bend_c, 3, 11920
1, 10619, Pitch_bend_c, 3, 13076
1, 10623, Pitch_bend_c, 3, 14231
1, 10626, Pitch_bend_c, 3, 14861
1, 10630, Pitch_bend_c, 3, 15648
1, 10633, Pitch_bend_c, 3, 16383
1, 10640, Note_on_c, 9, 35, 83
1, 10643, Note_off_c, 9, 35, 64
1, 10655, Note_on_c, 9, 59, 124
1, 10656, Note_on_c, 9, 40, 127
1, 10658, Note_off_c, 9, 59, 64
1, 10659, Note_off_c, 9, 40, 64
1, 10699, Pitch_bend_c, 3, 16173
1, 10700, Pitch_bend_c, 3, 12971
1, 10701, Note_off_c, 3, 68, 64
1, 10701, Pitch_bend_c, 3, 8192
1, 10702, Note_on_c, 3, 75, 127
1, 10703, Note_on_c, 9, 59, 111
1, 10706, Note_off_c, 9, 59, 64
1, 10718, Note_on_c, 3, 73, 109
1, 10719, Note_off_c, 3, 75, 64
1, 10730, Note_off_c, 3, 73, 64
1, 10733, Note_on_c, 3, 68, 101
1, 10734, Note_on_c, 3, 71, 121
1, 10735, Note_on_c, 9, 51, 41
1, 10736, Note_on_c, 9, 35, 63
1, 10736, Note_on_c, 1, 37, 86
1, 10737, Note_off_c, 1, 30, 64
1, 10738, Note_off_c, 9, 51, 64
1, 10738, Pitch_bend_c, 3, 8613
1, 10739, Note_off_c, 9, 35, 64
1, 10739, Pitch_bend_c, 3, 14021
1, 10742, Pitch_bend_c, 3, 16121
1, 10747, Note_off_c, 3, 68, 64
1, 10747, Note_off_c, 3, 71, 64
1, 10750, Pitch_bend_c, 3, 15018
1, 10751, Pitch_bend_c, 3, 8192
1, 10751, Note_on_c, 9, 59, 107
1, 10752, Note_on_c, 9, 35, 102
1, 10752, Note_on_c, 3, 68, 127
1, 10754, Note_off_c, 1, 37, 64
1, 10754, Note_off_c, 9, 59, 64
1, 10754, Note_on_c, 1, 42, 100
1, 10755, Note_off_c, 9, 35, 64
1, 10768, Note_on_c, 3, 66, 104
1, 10769, Note_off_c, 3, 68, 64
1, 10776, Note_off_c, 1, 42, 64
1, 10783, Note_off_c, 3, 66, 64
1, 10784, Note_on_c, 3, 63, 100
1, 10799, Note_on_c, 9, 59, 109
1, 10800, Note_off_c, 3, 63, 64
1, 10800, Note_on_c, 9, 35, 117
1, 10801, Note_on_c, 3, 66, 119
1, 10802, Note_off_c, 9, 59, 64
1, 10802, Note_on_c, 1, 42, 101
1, 10803, Note_off_c, 9, 35, 64
1, 10815, Control_c, 3, 1, 123
1, 10817, Control_c, 3, 1, 127
1, 10828, Note_off_c, 3, 66, 64
1, 10830, Control_c, 3, 1, 0
1, 10832, Note_on_c, 9, 51, 46
1, 10834, Note_on_c, 3, 66, 123
1, 10835, Note_off_c, 9, 51, 64
1, 10846, Note_off_c, 3, 66, 64
1, 10847, Note_on_c, 9, 59, 109
1, 10848, Note_on_c, 3, 63, 123
1, 10850, Note_off_c, 9, 59, 64
1, 10862, Note_off_c, 3, 63, 64
1, 10862, Note_on_c, 3, 61, 67
1, 10864, Note_on_c, 3, 59, 71
1, 10865, Note_off_c, 3, 61, 64
1, 10865, Note_on_c, 3, 58, 71
1, 10866, Note_off_c, 3, 59, 64
1, 10867, Note_on_c, 3, 56, 71
1, 10868, Note_off_c, 3, 58, 64
1, 10869, Note_off_c, 3, 56, 64
1, 10869, Note_on_c, 3, 54, 71
1, 10870, Note_on_c, 3, 52, 71
1, 10871, Note_off_c, 3, 54, 64
1, 10871, Note_on_c, 3, 51, 71
1, 10872, Note_off_c, 3, 52, 64
1, 10873, Note_on_c, 3, 49, 71
1, 10874, Note_off_c, 3, 51, 64
1, 10875, Note_off_c, 3, 49, 64
1, 10875, Note_on_c, 3, 47, 71
1, 10876, Note_off_c, 1, 42, 64
1, 10876, Note_on_c, 3, 46, 71
1, 10877, Note_off_c, 3, 47, 64
1, 10878, Note_off_c, 3, 46, 64
1, 10879, Note_on_c, 1, 37, 78
1, 10879, Note_on_c, 9, 57, 123
1, 10880, Note_on_c, 9, 40, 127
1, 10880, Note_on_c, 3, 39, 109
1, 10882, Note_off_c, 9, 57, 64
1, 10883, Note_off_c, 9, 40, 64
1, 10895, Note_off_c, 1, 37, 64
1, 10895, Note_on_c, 1, 42, 98
1, 10896, Note_on_c, 9, 35, 84
1, 10899, Note_off_c, 9, 35, 64
1, 10899, Note_on_c, 3, 40, 67
1, 10900, Note_off_c, 3, 39, 64
1, 10902, Note_on_c, 3, 42, 55
1, 10903, Note_off_c, 3, 40, 64
1, 10904, Note_on_c, 3, 44, 55
1, 10905, Note_off_c, 3, 42, 64
1, 10906, Note_on_c, 3, 46, 55
1, 10907, Note_off_c, 3, 44, 64
1, 10909, Note_on_c, 3, 47, 55
1, 10910, Note_off_c, 3, 46, 64
1, 10911, Note_on_c, 3, 49, 55
1, 10912, Note_off_c, 3, 47, 64
1, 10912, Note_on_c, 9, 40, 63
1, 10914, Note_on_c, 3, 51, 115
1, 10915, Note_off_c, 9, 40, 64
1, 10916, Note_off_c, 3, 49, 64
1, 10926, Note_off_c, 1, 42, 64
1, 10928, Note_on_c, 1, 37, 78
1, 10928, Note_on_c, 9, 51, 76
1, 10928, Note_on_c, 9, 40, 117
1, 10931, Note_off_c, 9, 51, 64
1, 10931, Note_off_c, 9, 40, 64
1, 10943, Note_on_c, 9, 49, 102
1, 10944, Note_off_c, 3, 51, 64
1, 10944, Note_on_c, 9, 35, 126
1, 10945, Note_on_c, 1, 44, 86
1, 10946, Note_off_c, 9, 49, 64
1, 10946, Note_on_c, 3, 66, 126
1, 10947, Note_off_c, 1, 37, 64
1, 10947, Note_off_c, 9, 35, 64
1, 10972, Note_off_c, 3, 66, 64
1, 10976, Note_on_c, 3, 68, 126
1, 10988, Note_off_c, 3, 68, 64
1, 10992, Note_on_c, 9, 59, 98
1, 10995, Note_off_c, 9, 59, 64
1, 10995, Note_on_c, 3, 68, 126
1, 11002, Pitch_bend_c, 3, 9505
1, 11004, Pitch_bend_c, 3, 10923
1, 11008, Pitch_bend_c, 3, 12971
1, 11011, Pitch_bend_c, 3, 15701
1, 11015, Pitch_bend_c, 3, 16383
1, 11022, Pitch_bend_c, 3, 10713
1, 11023, Note_off_c, 3, 68, 64
1, 11024, Note_on_c, 9, 35, 100
1, 11025, Pitch_bend_c, 3, 8192
1, 11025, Note_on_c, 3, 66, 107
1, 11027, Note_off_c, 9, 35, 64
1, 11033, Note_off_c, 3, 66, 64
1, 11034, Note_on_c, 3, 68, 106
1, 11040, Note_on_c, 9, 40, 127
1, 11040, Note_on_c, 9, 59, 113
1, 11043, Note_off_c, 3, 68, 64
1, 11043, Note_off_c, 9, 59, 64
1, 11043, Note_off_c, 9, 40, 64
1, 11044, Note_on_c, 3, 66, 119
1, 11053, Note_off_c, 3, 66, 64
1, 11053, Note_on_c, 3, 68, 106
1, 11060, Note_off_c, 3, 68, 64
1, 11061, Note_on_c, 3, 66, 88
1, 11073, Note_off_c, 3, 66, 64
1, 11073, Note_on_c, 3, 63, 98
1, 11084, Note_off_c, 3, 63, 64
1, 11087, Note_on_c, 3, 66, 109
1, 11087, Note_on_c, 9, 59, 107
1, 11090, Note_off_c, 9, 59, 64
1, 11101, Note_off_c, 3, 66, 64
1, 11101, Note_on_c, 3, 68, 117
1, 11114, Note_off_c, 3, 68, 64
1, 11115, Note_off_c, 1, 44, 64
1, 11117, Note_on_c, 3, 73, 117
1, 11119, Note_on_c, 1, 39, 65
1, 11120, Note_on_c, 9, 51, 50
1, 11120, Note_on_c, 9, 35, 42
1, 11123, Note_off_c, 9, 51, 64
1, 11123, Note_off_c, 9, 35, 64
1, 11131, Note_off_c, 3, 73, 64
1, 11135, Note_on_c, 9, 59, 115
1, 11136, Note_off_c, 1, 39, 64
1, 11136, Note_on_c, 1, 44, 96
1, 11136, Note_on_c, 9, 35, 115
1, 11138, Note_off_c, 9, 59, 64
1, 11138, Note_on_c, 3, 68, 126
1, 11139, Note_off_c, 9, 35, 64
1, 11142, Pitch_bend_c, 3, 9190
1, 11144, Pitch_bend_c, 3, 12446
1, 11148, Pitch_bend_c, 3, 15176
1, 11152, Pitch_bend_c, 3, 16383
1, 11165, Note_off_c, 3, 68, 64
1, 11169, Note_on_c, 1, 39, 81
1, 11169, Note_on_c, 3, 71, 101
1, 11169, Note_on_c, 3, 68, 106
1, 11170, Note_off_c, 1, 44, 64
1, 11170, Note_on_c, 3, 76, 101
1, 11183, Note_on_c, 9, 59, 123
1, 11185, Note_on_c, 1, 32, 104
1, 11186, Note_off_c, 1, 39, 64
1, 11186, Note_off_c, 9, 59, 64
1, 11190, Note_off_c, 3, 76, 64
1, 11191, Note_off_c, 3, 68, 64
1, 11191, Note_off_c, 3, 71, 64
1, 11199, Note_on_c, 3, 68, 126
1, 11202, Pitch_bend_c, 3, 8823
1, 11204, Pitch_bend_c, 3, 8192
1, 11214, Note_off_c, 3, 68, 64
1, 11216, Note_on_c, 9, 35, 97
1, 11216, Note_on_c, 9, 51, 45
1, 11217, Note_on_c, 3, 66, 101
1, 11219, Note_off_c, 9, 35, 64
1, 11219, Note_off_c, 9, 51, 64
1, 11227, Note_off_c, 3, 66, 64
1, 11232, Note_on_c, 9, 59, 113
1, 11232, Note_on_c, 9, 40, 127
1, 11234, Note_on_c, 3, 68, 117
1, 11235, Note_off_c, 9, 59, 64
1, 11235, Note_off_c, 9, 40, 64
1, 11260, Note_off_c, 3, 68, 64
1, 11260, Note_off_c, 1, 32, 64
1, 11262, Note_on_c, 9, 53, 124
1, 11263, Note_on_c, 1, 34, 117
1, 11263, Note_on_c, 3, 66, 126
1, 11264, Note_on_c, 9, 35, 121
1, 11265, Note_off_c, 9, 53, 64
1, 11267, Note_off_c, 9, 35, 64
1, 11281, Pitch_bend_c, 3, 9085
1, 11284, Pitch_bend_c, 3, 10870
1, 11288, Pitch_bend_c, 3, 11763
1, 11292, Note_off_c, 3, 66, 64
1, 11292, Pitch_bend_c, 3, 8560
1, 11293, Pitch_bend_c, 3, 8192
1, 11294, Note_on_c, 3, 63, 104
1, 11310, Note_off_c, 3, 63, 64
1, 11312, Note_on_c, 3, 61, 88
1, 11312, Note_on_c, 9, 51, 58
1, 11312, Note_on_c, 9, 40, 88
1, 11315, Note_off_c, 9, 51, 64
1, 11315, Note_off_c, 9, 40, 64
1, 11322, Note_off_c, 3, 61, 64
1, 11327, Note_off_c, 1, 34, 64
1, 11327, Note_on_c, 9, 57, 121
1, 11328, Note_on_c, 9, 35, 123
1, 11329, Note_on_c, 1, 39, 109
1, 11329, Note_on_c, 3, 63, 127
1, 11330, Note_off_c, 9, 57, 64
1, 11331, Note_off_c, 9, 35, 64
1, 11342, Note_off_c, 3, 63, 64
1, 11343, Note_on_c, 3, 51, 113
1, 11356, Note_off_c, 3, 51, 64
1, 11358, Note_on_c, 3, 66, 121
1, 11358, Note_on_c, 3, 63, 121
1, 11372, Note_off_c, 3, 63, 64
1, 11375, Note_off_c, 3, 66, 64
1, 11376, Note_on_c, 3, 63, 127
1, 11376, Note_on_c, 9, 59, 101
1, 11379, Note_off_c, 9, 59, 64
1, 11400, Control_c, 3, 1, 120
1, 11402, Control_c, 3, 1, 127
1, 11408, Note_on_c, 9, 35, 107
1, 11411, Note_off_c, 9, 35, 64
1, 11421, Note_off_c, 3, 63, 64
1, 11421, Control_c, 3, 1, 0
1, 11424, Note_on_c, 9, 40, 126
1, 11424, Note_on_c, 9, 59, 115
1, 11425, Note_on_c, 3, 61, 107
1, 11426, Note_on_c, 3, 63, 115
1, 11427, Note_off_c, 9, 40, 64
1, 11427, Note_off_c, 9, 59, 64
1, 11429, Note_off_c, 3, 61, 64
1, 11439, Note_on_c, 3, 61, 111
1, 11442, Note_off_c, 3, 63, 64
1, 11453, Note_off_c, 3, 61, 64
1, 11454, Note_on_c, 3, 58, 121
1, 11467, Note_off_c, 3, 58, 64
1, 11472, Note_on_c, 3, 57, 127
1, 11472, Note_on_c, 9, 59, 107
1, 11475, Note_off_c, 9, 59, 64
1, 11483, Note_off_c, 3, 57, 64
1, 11484, Note_on_c, 3, 56, 107
1, 11494, Note_off_c, 3, 56, 64
1, 11496, Note_on_c, 3, 57, 121
1, 11502, Note_off_c, 1, 39, 64
1, 11504, Note_on_c, 1, 34, 80
1, 11504, Note_on_c, 9, 51, 52
1, 11506, Note_off_c, 3, 57, 64
1, 11507, Note_off_c, 9, 51, 64
1, 11507, Note_on_c, 3, 56, 117
1, 11518, Note_off_c, 1, 34, 64
1, 11520, Note_off_c, 3, 56, 64
1, 11520, Note_on_c, 3, 54, 121
1, 11520, Note_on_c, 9, 35, 119
1, 11520, Note_on_c, 9, 59, 119
1, 11521, Note_on_c, 1, 39, 117
1, 11523, Note_off_c, 9, 35, 64
1, 11523, Note_off_c, 9, 59, 64
1, 11533, Note_off_c, 3, 54, 64
1, 11535, Note_on_c, 3, 51, 119
1, 11546, Note_off_c, 1, 39, 64
1, 11549, Note_off_c, 3, 51, 64
1, 11551, Note_on_c, 9, 51, 52
1, 11552, Note_on_c, 3, 61, 119
1, 11554, Note_off_c, 9, 51, 64
1, 11565, Note_off_c, 3, 61, 64
1, 11567, Note_on_c, 3, 63, 126
1, 11567, Note_on_c, 9, 59, 117
1, 11568, Note_on_c, 9, 35, 119
1, 11568, Note_on_c, 1, 39, 100
1, 11570, Note_off_c, 9, 59, 64
1, 11571, Note_off_c, 9, 35, 64
1, 11580, Control_c, 3, 1, 116
1, 11581, Control_c, 3, 1, 127
1, 11595, Note_off_c, 3, 63, 64
1, 11596, Control_c, 3, 1, 0
1, 11599, Note_on_c, 3, 63, 123
1, 11600, Note_on_c, 9, 35, 60
1, 11603, Note_off_c, 9, 35, 64
1, 11607, Note_off_c, 3, 63, 64
1, 11614, Note_off_c, 1, 39, 64
1, 11615, Note_on_c, 3, 75, 115
1, 11615, Note_on_c, 3, 66, 106
1, 11615, Note_on_c, 3, 70, 121
1, 11615, Note_on_c, 9, 59, 121
1, 11616, Note_on_c, 9, 40, 127
1, 11617, Note_on_c, 1, 42, 100
1, 11618, Note_off_c, 9, 59, 64
1, 11619, Note_off_c, 9, 40, 64
1, 11641, Note_off_c, 3, 75, 64
1, 11645, Note_on_c, 3, 68, 91
1, 11646, Note_off_c, 3, 66, 64
1, 11646, Note_off_c, 1, 42, 64
1, 11646, Note_off_c, 3, 70, 64
1, 11647, Note_on_c, 1, 41, 81
1, 11647, Note_on_c, 9, 57, 123
1, 11648, Note_off_c, 3, 68, 64
1, 11648, Note_on_c, 3, 66, 90
1, 11648, Note_on_c, 9, 35, 101
1, 11650, Note_off_c, 9, 57, 64
1, 11650, Note_off_c, 3, 66, 64
1, 11650, Note_on_c, 3, 64, 109
1, 11651, Note_off_c, 9, 35, 64
1, 11651, Note_on_c, 3, 63, 100
1, 11652, Note_off_c, 3, 64, 64
1, 11654, Note_off_c, 3, 63, 64
1, 11654, Note_on_c, 3, 61, 69
1, 11657, Note_off_c, 3, 61, 64
1, 11664, Note_on_c, 3, 58, 107
1, 11664, Note_on_c, 3, 63, 123
1, 11665, Note_on_c, 3, 54, 117
1, 11665, Note_on_c, 1, 39, 111
1, 11667, Note_off_c, 1, 41, 64
1, 11677, Note_off_c, 3, 63, 64
1, 11679, Note_off_c, 3, 54, 64
1, 11679, Note_off_c, 3, 58, 64
1, 11681, Note_on_c, 3, 63, 121
1, 11695, Note_off_c, 3, 63, 64
1, 11696, Note_on_c, 9, 40, 107
1, 11697, Note_on_c, 3, 49, 111
1, 11697, Note_on_c, 3, 44, 113
1, 11699, Note_off_c, 9, 40, 64
1, 11708, Note_off_c, 1, 39, 64
1, 11710, Note_off_c, 3, 49, 64
1, 11710, Note_off_c, 3, 44, 64
1, 11711, Note_on_c, 1, 34, 119
1, 11712, Note_on_c, 3, 68, 127
1, 11712, Note_on_c, 9, 35, 124
1, 11712, Note_on_c, 9, 49, 112
1, 11715, Note_off_c, 9, 35, 64
1, 11715, Note_off_c, 9, 49, 64
1, 11716, Pitch_bend_c, 3, 11033
1, 11719, Pitch_bend_c, 3, 13206
1, 11722, Pitch_bend_c, 3, 14811
1, 11725, Pitch_bend_c, 3, 16383
1, 11738, Note_off_c, 3, 68, 64
1, 11740, Pitch_bend_c, 3, 11267
1, 11742, Note_on_c, 3, 66, 123
1, 11744, Pitch_bend_c, 3, 8192
1, 11756, Note_off_c, 3, 66, 64
1, 11759, Note_on_c, 3, 68, 127
1, 11760, Note_on_c, 9, 59, 104
1, 11763, Note_off_c, 9, 59, 64
1, 11792, Control_c, 3, 1, 79
1, 11792, Note_on_c, 9, 35, 115
1, 11793, Control_c, 3, 1, 127
1, 11795, Note_off_c, 9, 35, 64
1, 11808, Note_on_c, 9, 59, 121
1, 11808, Note_on_c, 9, 40, 127
1, 11811, Note_off_c, 9, 59, 64
1, 11811, Note_off_c, 9, 40, 64
1, 11836, Control_c, 3, 1, 0
1, 11838, Note_off_c, 3, 68, 64
1, 11839, Note_on_c, 3, 44, 89
1, 11839, Note_on_c, 3, 49, 76
1, 11855, Note_on_c, 9, 59, 115
1, 11856, Note_off_c, 3, 44, 64
1, 11856, Note_off_c, 3, 49, 64
1, 11857, Note_on_c, 3, 68, 127
1, 11857, Note_on_c, 3, 73, 126
1, 11858, Note_off_c, 9, 59, 64
1, 11868, Pitch_bend_c, 3, 8860
1, 11869, Pitch_bend_c, 3, 10197
1, 11872, Pitch_bend_c, 3, 12404
1, 11876, Pitch_bend_c, 3, 13708
1, 11880, Pitch_bend_c, 3, 14377
1, 11883, Pitch_bend_c, 3, 15480
1, 11886, Pitch_bend_c, 3, 16383
1, 11887, Note_on_c, 9, 53, 92
1, 11888, Note_off_c, 1, 34, 64
1, 11888, Note_on_c, 1, 29, 88
1, 11888, Note_on_c, 9, 40, 115
1, 11890, Note_off_c, 9, 53, 64
1, 11890, Note_off_c, 3, 68, 64
1, 11891, Note_off_c, 3, 73, 64
1, 11891, Note_off_c, 9, 40, 64
1, 11894, Pitch_bend_c, 3, 9094
1, 11898, Pitch_bend_c, 3, 8192
1, 11902, Note_off_c, 1, 29, 64
1, 11903, Note_on_c, 1, 34, 111
1, 11904, Note_on_c, 3, 68, 127
1, 11904, Note_on_c, 9, 35, 113
1, 11904, Note_on_c, 9, 59, 115
1, 11907, Note_off_c, 9, 35, 64
1, 11907, Note_off_c, 9, 59, 64
1, 11912, Note_off_c, 3, 68, 64
1, 11914, Note_on_c, 3, 66, 115
1, 11928, Note_off_c, 1, 34, 64
1, 11951, Note_on_c, 1, 34, 107
1, 11952, Note_on_c, 9, 59, 115
1, 11952, Note_on_c, 9, 35, 123
1, 11955, Note_off_c, 9, 59, 64
1, 11955, Note_off_c, 9, 35, 64
1, 11999, Note_on_c, 9, 59, 121
1, 12000, Note_on_c, 9, 40, 127
1, 12002, Note_off_c, 9, 59, 64
1, 12003, Note_off_c, 9, 40, 64
1, 12020, Note_off_c, 1, 34, 64
1, 12027, Note_off_c, 3, 66, 64
1, 12029, Note_on_c, 3, 58, 115
1, 12029, Note_on_c, 3, 49, 127
1, 12029, Note_on_c, 3, 54, 127
1, 12030, Note_on_c, 1, 34, 117
1, 12032, Note_on_c, 9, 51, 49
1, 12032, Note_on_c, 9, 40, 90
1, 12035, Note_off_c, 9, 51, 64
1, 12035, Note_off_c, 9, 40, 64
1, 12046, Note_off_c, 3, 49, 64
1, 12047, Note_off_c, 3, 58, 64
1, 12047, Note_off_c, 3, 54, 64
1, 12047, Note_on_c, 3, 68, 127
1, 12048, Note_on_c, 9, 59, 119
1, 12048, Note_on_c, 9, 35, 106
1, 12051, Note_off_c, 9, 59, 64
1, 12051, Note_off_c, 9, 35, 64
1, 12051, Pitch_bend_c, 3, 11267
1, 12055, Pitch_bend_c, 3, 13039
1, 12058, Pitch_bend_c, 3, 14544
1, 12061, Pitch_bend_c, 3, 16383
1, 12064, Note_on_c, 9, 43, 96
1, 12067, Note_off_c, 9, 43, 64
1, 12075, Pitch_bend_c, 3, 15948
1, 12076, Pitch_bend_c, 3, 9997
1, 12077, Note_off_c, 3, 68, 64
1, 12078, Pitch_bend_c, 3, 8192
1, 12078, Note_on_c, 3, 70, 121
1, 12080, Note_on_c, 9, 51, 62
1, 12080, Note_on_c, 9, 41, 107
1, 12083, Note_off_c, 9, 51, 64
1, 12083, Note_off_c, 9, 41, 64
1, 12093, Note_off_c, 3, 70, 64
1, 12094, Note_off_c, 1, 34, 64
1, 12095, Note_on_c, 9, 57, 113
1, 12096, Note_on_c, 9, 35, 127
1, 12096, Note_on_c, 1, 32, 117
1, 12096, Note_on_c, 3, 70, 123
1, 12097, Note_on_c, 3, 71, 111
1, 12098, Note_off_c, 9, 57, 64
1, 12099, Note_off_c, 9, 35, 64
1, 12100, Note_off_c, 3, 70, 64
1, 12123, Note_off_c, 3, 71, 64
1, 12125, Note_on_c, 3, 70, 104
1, 12140, Note_off_c, 3, 70, 64
1, 12141, Note_on_c, 3, 71, 113
1, 12143, Note_on_c, 9, 59, 93
1, 12146, Note_off_c, 9, 59, 64
1, 12147, Note_off_c, 3, 71, 64
1, 12156, Note_on_c, 3, 70, 111
1, 12159, Note_on_c, 3, 71, 107
1, 12161, Note_off_c, 3, 70, 64
1, 12176, Note_on_c, 9, 35, 119
1, 12179, Note_off_c, 9, 35, 64
1, 12184, Note_off_c, 3, 71, 64
1, 12190, Note_on_c, 3, 70, 111
1, 12191, Note_on_c, 9, 59, 123
1, 12192, Note_on_c, 9, 40, 127
1, 12193, Note_on_c, 3, 71, 107
1, 12194, Note_off_c, 9, 59, 64
1, 12195, Note_off_c, 9, 40, 64
1, 12195, Note_off_c, 3, 70, 64
1, 12207, Note_on_c, 3, 70, 115
1, 12208, Note_off_c, 3, 71, 64
1, 12220, Note_off_c, 3, 70, 64
1, 12221, Note_on_c, 3, 66, 101
1, 12238, Note_off_c, 3, 66, 64
1, 12238, Note_on_c, 3, 73, 119
1, 12239, Note_on_c, 9, 59, 115
1, 12242, Note_off_c, 9, 59, 64
1, 12244, Pitch_bend_c, 3, 9663
1, 12247, Pitch_bend_c, 3, 11185
1, 12251, Pitch_bend_c, 3, 12603
1, 12254, Pitch_bend_c, 3, 13811
1, 12257, Pitch_bend_c, 3, 14493
1, 12261, Pitch_bend_c, 3, 15228
1, 12264, Pitch_bend_c, 3, 16016
1, 12268, Pitch_bend_c, 3, 16383
1, 12270, Note_off_c, 1, 32, 64
1, 12272, Note_on_c, 1, 30, 86
1, 12272, Note_on_c, 9, 40, 115
1, 12272, Note_on_c, 9, 51, 53
1, 12275, Note_off_c, 9, 40, 64
1, 12275, Note_off_c, 9, 51, 64
1, 12288, Note_on_c, 9, 35, 124
1, 12288, Note_on_c, 9, 59, 121
1, 12289, Note_off_c, 1, 30, 64
1, 12289, Note_on_c, 1, 35, 96
1, 12291, Note_off_c, 9, 59, 64
1, 12291, Note_off_c, 9, 35, 64
1, 12309, Note_off_c, 1, 35, 64
1, 12311, Control_c, 3, 1, 103
1, 12315, Control_c, 3, 1, 125
1, 12319, Control_c, 3, 1, 127
1, 12336, Note_on_c, 9, 59, 117
1, 12336, Note_on_c, 9, 35, 127
1, 12336, Note_on_c, 1, 35, 113
1, 12339, Note_off_c, 9, 59, 64
1, 12339, Note_off_c, 9, 35, 64
1, 12363, Note_off_c, 3, 73, 64
1, 12363, Control_c, 3, 1, 0
1, 12365, Pitch_bend_c, 3, 16173
1, 12366, Note_on_c, 3, 49, 127
1, 12366, Note_on_c, 3, 54, 127
1, 12367, Pitch_bend_c, 3, 10713
1, 12368, Pitch_bend_c, 3, 8192
1, 12379, Note_off_c, 3, 49, 64
1, 12379, Note_off_c, 3, 54, 64
1, 12383, Note_on_c, 9, 59, 117
1, 12384, Note_on_c, 9, 40, 127
1, 12384, Note_on_c, 3, 73, 127
1, 12385, Pitch_bend_c, 3, 11605
1, 12386, Note_off_c, 9, 59, 64
1, 12387, Note_off_c, 9, 40, 64
1, 12387, Pitch_bend_c, 3, 16383
1, 12398, Pitch_bend_c, 3, 9033
1, 12400, Pitch_bend_c, 3, 8192
1, 12401, Note_off_c, 1, 35, 64
1, 12413, Note_off_c, 3, 73, 64
1, 12414, Note_on_c, 1, 35, 86
1, 12414, Note_on_c, 3, 70, 117
1, 12415, Note_on_c, 9, 51, 80
1, 12416, Note_on_c, 9, 45, 115
1, 12416, Note_on_c, 9, 47, 119
1, 12418, Note_off_c, 9, 51, 64
1, 12419, Note_off_c, 9, 47, 64
1, 12419, Note_off_c, 9, 45, 64
1, 12428, Note_off_c, 3, 70, 64
1, 12429, Note_off_c, 1, 35, 64
1, 12430, Note_on_c, 1, 39, 109
1, 12430, Note_on_c, 3, 68, 119
1, 12431, Note_on_c, 9, 57, 115
1, 12434, Note_off_c, 9, 57, 64
1, 12434, Pitch_bend_c, 3, 9138
1, 12436, Pitch_bend_c, 3, 12656
1, 12439, Pitch_bend_c, 3, 14283
1, 12443, Pitch_bend_c, 3, 16383
1, 12460, Note_off_c, 3, 68, 64
1, 12461, Pitch_bend_c, 3, 8560
1, 12461, Note_on_c, 3, 73, 104
1, 12462, Pitch_bend_c, 3, 8192
1, 12462, Note_on_c, 3, 78, 111
1, 12462, Note_on_c, 3, 70, 111
1, 12464, Note_on_c, 9, 41, 121
1, 12466, Note_off_c, 1, 39, 64
1, 12467, Note_off_c, 9, 41, 64
1, 12477, Note_off_c, 3, 70, 64
1, 12477, Note_off_c, 3, 78, 64
1, 12477, Note_off_c, 3, 73, 64
1, 12480, Note_on_c, 3, 68, 126
1, 12480, Note_on_c, 9, 35, 127
1, 12480, Note_on_c, 9, 49, 119
1, 12481, Note_on_c, 1, 42, 107
1, 12483, Note_off_c, 9, 35, 64
1, 12483, Note_off_c, 9, 49, 64
1, 12491, Pitch_bend_c, 3, 8455
1, 12492, Pitch_bend_c, 3, 9558
1, 12495, Pitch_bend_c, 3, 11028
1, 12499, Pitch_bend_c, 3, 12498
1, 12502, Pitch_bend_c, 3, 13653
1, 12506, Pitch_bend_c, 3, 14966
1, 12509, Pitch_bend_c, 3, 16383
1, 12519, Note_off_c, 1, 42, 64
1, 12523, Note_off_c, 3, 68, 64
1, 12523, Pitch_bend_c, 3, 14388
1, 12524, Pitch_bend_c, 3, 9400
1, 12525, Pitch_bend_c, 3, 8192
1, 12525, Note_on_c, 3, 73, 117
1, 12526, Note_on_c, 3, 70, 123
1, 12526, Note_on_c, 3, 78, 125
1, 12527, Note_on_c, 1, 42, 95
1, 12527, Note_on_c, 9, 59, 117
1, 12530, Note_off_c, 9, 59, 64
1, 12548, Note_off_c, 3, 70, 64
1, 12548, Note_off_c, 3, 78, 64
1, 12549, Note_off_c, 3, 73, 64
1, 12554, Note_on_c, 3, 78, 123
1, 12554, Note_on_c, 3, 73, 125
1, 12560, Note_on_c, 9, 35, 117
1, 12563, Note_off_c, 9, 35, 64
1, 12567, Note_off_c, 3, 78, 64
1, 12567, Note_off_c, 3, 73, 64
1, 12570, Note_on_c, 3, 68, 127
1, 12575, Note_on_c, 9, 59, 126
1, 12576, Note_on_c, 9, 40, 127
1, 12578, Note_off_c, 9, 59, 64
1, 12579, Note_off_c, 9, 40, 64
1, 12583, Pitch_bend_c, 3, 9400
1, 12586, Pitch_bend_c, 3, 11920
1, 12590, Pitch_bend_c, 3, 15018
1, 12594, Pitch_bend_c, 3, 16383
1, 12602, Note_off_c, 1, 42, 64
1, 12604, Note_off_c, 3, 68, 64
1, 12604, Pitch_bend_c, 3, 14703
1, 12606, Pitch_bend_c, 3, 8192
1, 12606, Note_on_c, 1, 37, 75
1, 12607, Note_on_c, 3, 78, 117
1, 12607, Note_on_c, 3, 73, 117
1, 12608, Note_on_c, 9, 51, 60
1, 12611, Note_off_c, 9, 51, 64
1, 12612, Note_off_c, 3, 78, 64
1, 12612, Note_off_c, 3, 73, 64
1, 12618, Note_on_c, 3, 78, 106
1, 12618, Note_on_c, 3, 73, 103
1, 12619, Note_on_c, 3, 70, 127
1, 12622, Note_on_c, 1, 42, 106
1, 12623, Note_off_c, 1, 37, 64
1, 12623, Note_on_c, 3, 68, 112
1, 12623, Note_on_c, 9, 59, 126
1, 12625, Note_off_c, 3, 70, 64
1, 12626, Note_off_c, 9, 59, 64
1, 12650, Note_off_c, 1, 42, 64
1, 12655, Note_off_c, 3, 78, 64
1, 12655, Note_off_c, 3, 73, 64
1, 12655, Note_on_c, 1, 37, 53
1, 12655, Note_on_c, 3, 54, 125
1, 12655, Note_on_c, 9, 51, 55
1, 12656, Note_off_c, 3, 68, 64
1, 12656, Note_on_c, 3, 49, 121
1, 12656, Note_on_c, 9, 40, 127
1, 12658, Note_off_c, 9, 51, 64
1, 12659, Note_off_c, 9, 40, 64
1, 12669, Note_off_c, 3, 49, 64
1, 12669, Note_off_c, 3, 54, 64
1, 12669, Note_off_c, 1, 37, 64
1, 12671, Note_on_c, 1, 40, 107
1, 12671, Note_on_c, 9, 57, 126
1, 12672, Note_on_c, 9, 35, 127
1, 12672, Note_on_c, 3, 66, 127
1, 12674, Note_off_c, 9, 57, 64
1, 12675, Note_off_c, 9, 35, 64
1, 12687, Pitch_bend_c, 3, 7937
1, 12688, Pitch_bend_c, 3, 9190
1, 12691, Pitch_bend_c, 3, 10240
1, 12695, Pitch_bend_c, 3, 11710
1, 12698, Pitch_bend_c, 3, 13128
1, 12702, Pitch_bend_c, 3, 14283
1, 12705, Pitch_bend_c, 3, 15491
1, 12709, Pitch_bend_c, 3, 16383
1, 12714, Note_off_c, 1, 40, 64
1, 12718, Note_off_c, 3, 66, 64
1, 12718, Pitch_bend_c, 3, 15176
1, 12719, Note_on_c, 9, 59, 117
1, 12720, Pitch_bend_c, 3, 8613
1, 12720, Note_on_c, 9, 35, 127
1, 12720, Note_on_c, 3, 76, 117
1, 12720, Note_on_c, 3, 71, 119
1, 12721, Pitch_bend_c, 3, 8192
1, 12721, Note_on_c, 3, 68, 125
1, 12721, Note_on_c, 1, 40, 101
1, 12722, Note_off_c, 9, 59, 64
1, 12723, Note_off_c, 9, 35, 64
1, 12740, Note_off_c, 3, 76, 64
1, 12741, Note_off_c, 3, 71, 64
1, 12741, Note_off_c, 3, 68, 64
1, 12749, Note_on_c, 3, 71, 111
1, 12749, Note_on_c, 3, 76, 111
1, 12749, Note_on_c, 3, 68, 111
1, 12754, Note_off_c, 3, 68, 64
1, 12755, Note_off_c, 3, 71, 64
1, 12756, Note_off_c, 3, 76, 64
1, 12759, Note_on_c, 3, 66, 114
1, 12764, Note_off_c, 3, 66, 64
1, 12767, Note_on_c, 3, 66, 112
1, 12767, Note_on_c, 9, 59, 127
1, 12768, Note_on_c, 9, 40, 127
1, 12768, Note_on_c, 3, 76, 125
1, 12768, Note_on_c, 3, 71, 127
1, 12769, Note_on_c, 3, 68, 114
1, 12770, Note_off_c, 9, 59, 64
1, 12771, Note_off_c, 9, 40, 64
1, 12771, Note_off_c, 3, 66, 64
1, 12798, Note_off_c, 3, 71, 64
1, 12798, Note_on_c, 3, 44, 102
1, 12798, Note_on_c, 3, 49, 100
1, 12799, Note_off_c, 3, 68, 64
1, 12800, Note_off_c, 3, 76, 64
1, 12800, Note_on_c, 9, 40, 119
1, 12800, Note_on_c, 9, 51, 55
1, 12803, Note_off_c, 9, 40, 64
1, 12803, Note_off_c, 9, 51, 64
1, 12804, Note_off_c, 1, 40, 64
1, 12815, Note_on_c, 1, 40, 111
1, 12816, Note_off_c, 3, 49, 64
1, 12816, Note_off_c, 3, 44, 64
1, 12816, Note_on_c, 3, 68, 127
1, 12816, Note_on_c, 9, 59, 124
1, 12816, Note_on_c, 9, 35, 123
1, 12819, Note_off_c, 9, 59, 64
1, 12819, Note_off_c, 9, 35, 64
1, 12832, Note_on_c, 9, 53, 124
1, 12832, Note_on_c, 9, 45, 101
1, 12835, Note_off_c, 9, 53, 64
1, 12835, Note_off_c, 9, 45, 64
1, 12841, Note_off_c, 3, 68, 64
1, 12845, Note_off_c, 1, 40, 64
1, 12845, Note_on_c, 3, 39, 127
1, 12846, Note_on_c, 3, 44, 117
1, 12847, Note_on_c, 1, 42, 85
1, 12848, Note_on_c, 9, 43, 119
1, 12851, Note_off_c, 9, 43, 64
1, 12862, Note_off_c, 3, 39, 64
1, 12863, Note_off_c, 3, 44, 64
1, 12863, Note_on_c, 9, 49, 127
1, 12864, Time_signature, 2, 2, 24, 8
1, 12864, Note_off_c, 1, 42, 64
1, 12864, Note_on_c, 9, 35, 127
1, 12865, Note_on_c, 1, 35, 104
1, 12866, Note_off_c, 9, 49, 64
1, 12866, Note_on_c, 3, 61, 117
1, 12867, Note_off_c, 9, 35, 64
1, 12867, Note_on_c, 3, 66, 124
1, 12895, Note_on_c, 3, 63, 106
1, 12896, Note_off_c, 3, 61, 64
1, 12897, Note_off_c, 3, 66, 64
1, 12899, Note_off_c, 1, 35, 64
1, 12904, Note_off_c, 3, 63, 64
1, 12911, Note_on_c, 9, 59, 121
1, 12912, Note_on_c, 9, 35, 127
1, 12912, Note_on_c, 1, 35, 121
1, 12912, Note_on_c, 3, 66, 119
1, 12912, Note_on_c, 3, 61, 113
1, 12914, Note_off_c, 9, 59, 64
1, 12915, Note_off_c, 9, 35, 64
1, 12922, Note_off_c, 3, 61, 64
1, 12922, Note_on_c, 3, 63, 104
1, 12933, Note_off_c, 3, 63, 64
1, 12933, Note_on_c, 3, 61, 98
1, 12944, Note_off_c, 3, 61, 64
1, 12944, Note_on_c, 3, 59, 104
1, 12947, Note_off_c, 3, 66, 64
1, 12952, Note_off_c, 3, 59, 64
1, 12956, Note_on_c, 3, 66, 119
1, 12956, Note_on_c, 3, 61, 107
1, 12959, Note_on_c, 9, 59, 126
1, 12960, Note_on_c, 9, 40, 127
1, 12962, Note_off_c, 9, 59, 64
1, 12963, Note_off_c, 9, 40, 64
1, 12986, Note_off_c, 3, 61, 64
1, 12987, Note_on_c, 3, 59, 106
1, 12990, Note_off_c, 1, 35, 64
1, 12992, Note_on_c, 9, 40, 127
1, 12994, Note_off_c, 3, 66, 64
1, 12995, Note_off_c, 9, 40, 64
1, 12996, Note_off_c, 3, 59, 64
1, 13005, Note_on_c, 3, 61, 98
1, 13005, Note_on_c, 3, 66, 119
1, 13007, Note_on_c, 1, 35, 117
1, 13007, Note_on_c, 9, 59, 119
1, 13008, Note_on_c, 9, 35, 74
1, 13010, Note_off_c, 9, 59, 64
1, 13011, Note_off_c, 9, 35, 64
1, 13024, Note_on_c, 9, 40, 55
1, 13027, Note_off_c, 9, 40, 64
1, 13035, Note_off_c, 3, 61, 64
1, 13037, Note_on_c, 3, 59, 111
1, 13039, Note_on_c, 9, 51, 81
1, 13040, Note_on_c, 9, 40, 119
1, 13042, Note_off_c, 9, 51, 64
1, 13043, Note_off_c, 9, 40, 64
1, 13046, Note_off_c, 3, 59, 64
1, 13047, Note_off_c, 3, 66, 64
1, 13054, Note_off_c, 1, 35, 64
1, 13055, Note_on_c, 1, 37, 111
1, 13055, Note_on_c, 9, 57, 124
1, 13056, Time_signature, 4, 2, 24, 8
1, 13056, Note_on_c, 3, 59, 127
1, 13056, Note_on_c, 9, 35, 127
1, 13057, Note_on_c, 3, 47, 124
1, 13058, Note_off_c, 9, 57, 64
1, 13059, Note_off_c, 9, 35, 64
1, 13063, Note_off_c, 3, 59, 64
1, 13065, Note_off_c, 3, 47, 64
1, 13065, Note_on_c, 3, 61, 115
1, 13065, Note_on_c, 3, 49, 115
1, 13091, Note_off_c, 1, 37, 64
1, 13099, Note_off_c, 3, 61, 64
1, 13100, Note_off_c, 3, 49, 64
1, 13103, Note_on_c, 9, 59, 117
1, 13104, Note_on_c, 9, 35, 123
1, 13104, Note_on_c, 1, 37, 109
1, 13105, Note_on_c, 3, 49, 115
1, 13105, Note_on_c, 3, 61, 111
1, 13106, Note_off_c, 9, 59, 64
1, 13107, Note_off_c, 9, 35, 64
1, 13130, Note_off_c, 3, 49, 64
1, 13130, Note_off_c, 3, 61, 64
1, 13134, Note_on_c, 3, 61, 119
1, 13135, Note_on_c, 3, 49, 115
1, 13142, Note_off_c, 3, 49, 64
1, 13143, Note_off_c, 3, 61, 64
1, 13151, Note_on_c, 9, 59, 126
1, 13152, Note_on_c, 9, 40, 127
1, 13152, Note_on_c, 3, 65, 115
1, 13152, Note_on_c, 3, 73, 107
1, 13152, Note_on_c, 3, 68, 107
1, 13153, Note_on_c, 3, 61, 107
1, 13154, Note_off_c, 9, 59, 64
1, 13155, Note_off_c, 9, 40, 64
1, 13175, Note_off_c, 3, 73, 64
1, 13175, Note_off_c, 3, 68, 64
1, 13176, Note_off_c, 3, 61, 64
1, 13176, Note_off_c, 3, 65, 64
1, 13181, Note_on_c, 3, 66, 107
1, 13181, Note_on_c, 3, 68, 107
1, 13182, Note_off_c, 1, 37, 64
1, 13184, Note_on_c, 9, 40, 127
1, 13187, Note_off_c, 9, 40, 64
1, 13188, Note_off_c, 3, 66, 64
1, 13190, Note_off_c, 3, 68, 64
1, 13196, Note_on_c, 3, 68, 107
1, 13196, Note_on_c, 3, 65, 107
1, 13198, Note_on_c, 1, 37, 111
1, 13199, Note_on_c, 9, 59, 121
1, 13202, Note_off_c, 3, 68, 64
1, 13202, Note_off_c, 9, 59, 64
1, 13202, Note_off_c, 3, 65, 64
1, 13203, Note_on_c, 3, 66, 107
1, 13210, Note_off_c, 3, 66, 64
1, 13211, Note_on_c, 3, 65, 107
1, 13212, Note_on_c, 3, 68, 107
1, 13216, Note_on_c, 9, 45, 84
1, 13219, Note_off_c, 9, 45, 64
1, 13223, Note_off_c, 3, 68, 64
1, 13224, Note_off_c, 3, 65, 64
1, 13227, Note_on_c, 3, 68, 107
1, 13228, Note_on_c, 3, 65, 107
1, 13228, Note_on_c, 3, 61, 107
1, 13231, Note_on_c, 9, 51, 80
1, 13232, Note_on_c, 9, 43, 96
1, 13234, Note_off_c, 9, 51, 64
1, 13235, Note_off_c, 9, 43, 64
1, 13240, Note_off_c, 3, 65, 64
1, 13241, Note_off_c, 3, 68, 64
1, 13242, Note_off_c, 3, 61, 64
1, 13247, Note_on_c, 3, 65, 107
1, 13247, Note_on_c, 3, 73, 107
1, 13247, Note_on_c, 3, 68, 107
1, 13247, Note_on_c, 9, 49, 104
1, 13248, Note_on_c, 9, 35, 127
1, 13248, Note_on_c, 3, 61, 107
1, 13250, Note_off_c, 9, 49, 64
1, 13251, Note_off_c, 9, 35, 64
1, 13270, Note_off_c, 3, 73, 64
1, 13271, Note_off_c, 3, 68, 64
1, 13271, Note_off_c, 3, 65, 64
1, 13271, Note_off_c, 3, 61, 64
1, 13276, Note_on_c, 3, 66, 119
1, 13276, Note_on_c, 3, 68, 119
1, 13280, Note_on_c, 9, 35, 123
1, 13283, Note_off_c, 3, 66, 64
1, 13283, Note_off_c, 9, 35, 64
1, 13284, Note_off_c, 1, 37, 64
1, 13285, Note_off_c, 3, 68, 64
1, 13291, Note_on_c, 3, 68, 119
1, 13292, Note_on_c, 3, 65, 107
1, 13295, Note_on_c, 9, 59, 117
1, 13296, Note_on_c, 1, 37, 119
1, 13297, Note_off_c, 3, 68, 64
1, 13297, Note_off_c, 3, 65, 64
1, 13298, Note_off_c, 9, 59, 64
1, 13298, Note_on_c, 3, 66, 107
1, 13305, Note_off_c, 3, 66, 64
1, 13306, Note_on_c, 3, 65, 107
1, 13307, Note_on_c, 3, 68, 107
1, 13312, Note_on_c, 9, 35, 95
1, 13315, Note_off_c, 9, 35, 64
1, 13318, Note_off_c, 3, 68, 64
1, 13319, Note_off_c, 3, 65, 64
1, 13323, Note_on_c, 3, 68, 107
1, 13323, Note_on_c, 3, 65, 107
1, 13323, Note_on_c, 3, 61, 107
1, 13328, Note_on_c, 9, 35, 113
1, 13331, Note_off_c, 9, 35, 64
1, 13335, Note_off_c, 3, 65, 64
1, 13336, Note_off_c, 3, 68, 64
1, 13337, Note_off_c, 3, 61, 64
1, 13343, Note_on_c, 9, 59, 119
1, 13344, Note_on_c, 9, 40, 127
1, 13344, Note_on_c, 3, 73, 107
1, 13344, Note_on_c, 3, 68, 107
1, 13344, Note_on_c, 3, 65, 107
1, 13345, Note_off_c, 3, 65, 64
1, 13346, Note_off_c, 9, 59, 64
1, 13346, Note_on_c, 3, 66, 107
1, 13347, Note_off_c, 9, 40, 64
1, 13356, Note_off_c, 1, 37, 64
1, 13367, Note_off_c, 3, 73, 64
1, 13367, Note_off_c, 3, 68, 64
1, 13368, Note_off_c, 3, 66, 64
1, 13372, Note_on_c, 3, 65, 102
1, 13373, Note_on_c, 3, 73, 107
1, 13373, Note_on_c, 3, 68, 92
1, 13374, Note_on_c, 1, 37, 121
1, 13375, Note_on_c, 9, 51, 45
1, 13376, Note_on_c, 9, 40, 127
1, 13378, Note_off_c, 9, 51, 64
1, 13379, Note_off_c, 3, 73, 64
1, 13379, Note_off_c, 9, 40, 64
1, 13382, Note_off_c, 3, 68, 64
1, 13384, Note_off_c, 3, 65, 64
1, 13388, Note_on_c, 3, 65, 102
1, 13388, Note_on_c, 3, 68, 91
1, 13389, Note_on_c, 3, 61, 93
1, 13391, Note_on_c, 9, 59, 126
1, 13394, Note_off_c, 9, 59, 64
1, 13408, Note_on_c, 9, 45, 109
1, 13409, Note_off_c, 3, 61, 64
1, 13411, Note_off_c, 9, 45, 64
1, 13413, Note_off_c, 3, 68, 64
1, 13414, Note_off_c, 3, 65, 64
1, 13418, Note_off_c, 1, 37, 64
1, 13421, Note_on_c, 3, 54, 98
1, 13421, Note_on_c, 3, 58, 95
1, 13424, Note_on_c, 9, 51, 90
1, 13424, Note_on_c, 9, 43, 113
1, 13425, Note_on_c, 1, 34, 95
1, 13427, Note_off_c, 9, 51, 64
1, 13427, Note_off_c, 9, 43, 64
1, 13428, Note_off_c, 1, 34, 64
1, 13435, Note_off_c, 3, 54, 64
1, 13437, Note_off_c, 3, 58, 64
1, 13439, Note_on_c, 9, 57, 127
1, 13440, Note_on_c, 3, 49, 109
1, 13441, Note_on_c, 3, 44, 115
1, 13441, Note_on_c, 9, 35, 119
1, 13442, Note_off_c, 9, 57, 64
1, 13442, Note_on_c, 9, 40, 127
1, 13443, Note_on_c, 1, 27, 107
1, 13444, Note_off_c, 9, 35, 64
1, 13445, Note_off_c, 9, 40, 64
1, 13472, Note_on_c, 3, 82, 127
1, 13473, Note_on_c, 3, 73, 113
1, 13473, Note_on_c, 3, 78, 127
1, 13489, Note_on_c, 9, 40, 115
1, 13492, Note_off_c, 9, 40, 64
1, 13500, Note_on_c, 9, 40, 90
1, 13503, Note_off_c, 9, 40, 64
1, 13512, Note_on_c, 9, 40, 91
1, 13515, Note_off_c, 9, 40, 64
1, 13522, Note_on_c, 9, 40, 61
1, 13525, Note_off_c, 9, 40, 64
1, 13534, Note_on_c, 9, 40, 101
1, 13536, Note_on_c, 9, 59, 127
1, 13537, Note_off_c, 9, 40, 64
1, 13539, Note_off_c, 9, 59, 64
1, 13582, Note_on_c, 9, 40, 100
1, 13582, Note_on_c, 9, 35, 113
1, 13585, Note_off_c, 9, 40, 64
1, 13585, Note_off_c, 9, 35, 64
1, 13594, Note_on_c, 9, 40, 55
1, 13597, Note_off_c, 9, 40, 64
1, 13607, Note_on_c, 9, 40, 62
1, 13609, Note_off_c, 3, 78, 64
1, 13610, Note_off_c, 9, 40, 64
1, 13610, Note_off_c, 3, 73, 64
1, 13614, Note_on_c, 3, 58, 104
1, 13614, Note_on_c, 3, 78, 113
1, 13615, Note_off_c, 3, 82, 64
1, 13615, Note_on_c, 3, 73, 106
1, 13619, Note_on_c, 9, 40, 61
1, 13622, Note_off_c, 9, 40, 64
1, 13630, Note_on_c, 9, 59, 124
1, 13631, Note_on_c, 9, 51, 125
1, 13633, Note_off_c, 9, 59, 64
1, 13633, Note_on_c, 9, 40, 119
1, 13634, Note_off_c, 9, 51, 64
1, 13636, Note_off_c, 9, 40, 64
1, 13661, Pitch_bend_c, 3, 7886
1, 13662, Pitch_bend_c, 3, 8192
1, 13665, Pitch_bend_c, 3, 7581
1, 13668, Pitch_bend_c, 3, 7377
1, 13671, Pitch_bend_c, 3, 7123
1, 13676, Pitch_bend_c, 3, 7021
1, 13678, Note_on_c, 9, 47, 96
1, 13679, Pitch_bend_c, 3, 6818
1, 13681, Note_off_c, 9, 47, 64
1, 13682, Pitch_bend_c, 3, 6614
1, 13686, Pitch_bend_c, 3, 6462
1, 13689, Pitch_bend_c, 3, 6360
1, 13692, Pitch_bend_c, 3, 6207
1, 13695, Note_on_c, 9, 45, 45
1, 13696, Pitch_bend_c, 3, 6156
1, 13698, Note_off_c, 9, 45, 64
1, 13700, Pitch_bend_c, 3, 6054
1, 13704, Pitch_bend_c, 3, 6004
1, 13706, Pitch_bend_c, 3, 5851
1, 13710, Pitch_bend_c, 3, 5749
1, 13712, Note_on_c, 9, 43, 45
1, 13715, Note_off_c, 9, 43, 64
1, 13717, Pitch_bend_c, 3, 5800
1, 13728, Note_on_c, 9, 41, 84
1, 13729, Pitch_bend_c, 3, 5902
1, 13731, Note_off_c, 9, 41, 64
1, 13731, Pitch_bend_c, 3, 6004
1, 13734, Pitch_bend_c, 3, 6309
1, 13740, Pitch_bend_c, 3, 6411
1, 13742, Pitch_bend_c, 3, 6563
1, 13743, Note_on_c, 9, 48, 107
1, 13746, Note_off_c, 9, 48, 64
1, 13746, Pitch_bend_c, 3, 6767
1, 13746, Note_on_c, 9, 47, 89
1, 13748, Pitch_bend_c, 3, 6970
1, 13749, Note_off_c, 9, 47, 64
1, 13752, Pitch_bend_c, 3, 7225
1, 13755, Pitch_bend_c, 3, 7428
1, 13760, Pitch_bend_c, 3, 7734
1, 13760, Note_on_c, 9, 53, 127
1, 13760, Note_on_c, 9, 45, 46
1, 13763, Note_off_c, 9, 53, 64
1, 13763, Note_off_c, 9, 45, 64
1, 13763, Pitch_bend_c, 3, 7886
1, 13765, Pitch_bend_c, 3, 8192
1, 13768, Pitch_bend_c, 3, 7937
1, 13769, Pitch_bend_c, 3, 8192
1, 13777, Note_on_c, 9, 43, 95
1, 13780, Note_off_c, 9, 43, 64
1, 13794, Note_on_c, 9, 41, 28
1, 13797, Note_off_c, 9, 41, 64
1, 13800, Note_off_c, 3, 58, 64
1, 13802, Note_off_c, 3, 44, 64
1, 13803, Note_off_c, 3, 49, 64
1, 13804, Note_off_c, 3, 73, 64
1, 13804, Note_off_c, 3, 78, 64
1, 13808, Note_on_c, 9, 40, 80
1, 13809, Note_on_c, 9, 35, 93
1, 13809, Note_on_c, 3, 54, 113
1, 13809, Note_on_c, 3, 49, 107
1, 13811, Note_off_c, 9, 40, 64
1, 13812, Note_off_c, 9, 35, 64
1, 13820, Note_off_c, 1, 27, 64
1, 13824, Note_off_c, 3, 49, 64
1, 13824, Note_off_c, 3, 54, 64
1, 13824, Control_c, 1, 11, 127
1, 13824, Control_c, 9, 11, 127
1, 13824, Control_c, 3, 11, 127
1, 13824, Note_on_c, 9, 35, 127
1, 13824, Note_on_c, 3, 73, 127
1, 13825, Note_on_c, 1, 27, 127
1, 13825, Note_on_c, 9, 49, 127
1, 13827, Note_off_c, 9, 35, 64
1, 13828, Note_off_c, 9, 49, 64
1, 13836, Pitch_bend_c, 3, 9033
1, 13839, Pitch_bend_c, 3, 10975
1, 13843, Pitch_bend_c, 3, 12341
1, 13847, Pitch_bend_c, 3, 13076
1, 13851, Pitch_bend_c, 3, 13863
1, 13855, Pitch_bend_c, 3, 14283
1, 13857, Pitch_bend_c, 3, 14808
1, 13860, Pitch_bend_c, 3, 15281
1, 13860, Control_c, 3, 11, 123
1, 13860, Control_c, 9, 11, 123
1, 13860, Control_c, 1, 11, 123
1, 13864, Pitch_bend_c, 3, 15596
1, 13867, Pitch_bend_c, 3, 16068
1, 13871, Pitch_bend_c, 3, 16383
1, 13871, Note_on_c, 9, 59, 94
1, 13874, Note_off_c, 9, 59, 64
1, 13896, Control_c, 1, 11, 119
1, 13896, Control_c, 9, 11, 119
1, 13896, Control_c, 3, 11, 119
1, 13904, Note_on_c, 9, 35, 85
1, 13907, Note_off_c, 9, 35, 64
1, 13919, Note_on_c, 9, 59, 106
1, 13920, Control_c, 3, 1, 82
1, 13920, Note_on_c, 9, 40, 119
1, 13922, Note_off_c, 9, 59, 64
1, 13922, Control_c, 3, 1, 124
1, 13923, Note_off_c, 9, 40, 64
1, 13926, Control_c, 3, 1, 127
1, 13932, Control_c, 3, 11, 115
1, 13932, Control_c, 9, 11, 115
1, 13932, Control_c, 1, 11, 115
1, 13967, Note_on_c, 9, 59, 92
1, 13969, Control_c, 9, 11, 111
1, 13969, Control_c, 3, 11, 111
1, 13969, Control_c, 1, 11, 111
1, 13970, Note_off_c, 9, 59, 64
1, 13983, Control_c, 3, 1, 126
1, 13985, Control_c, 3, 1, 102
1, 13987, Note_off_c, 3, 73, 64
1, 13989, Control_c, 3, 1, 0
1, 13995, Pitch_bend_c, 3, 16173
1, 13997, Note_off_c, 1, 27, 64
1, 13997, Pitch_bend_c, 3, 9505
1, 13997, Note_on_c, 3, 61, 91
1, 13998, Note_on_c, 3, 70, 104
1, 13998, Note_on_c, 3, 66, 108
1, 13999, Note_on_c, 9, 51, 47
1, 14000, Note_on_c, 9, 35, 113
1, 14000, Note_on_c, 1, 34, 108
1, 14001, Pitch_bend_c, 3, 8192
1, 14002, Note_off_c, 9, 51, 64
1, 14003, Note_off_c, 9, 35, 64
1, 14005, Control_c, 1, 11, 107
1, 14005, Control_c, 3, 11, 107
1, 14005, Control_c, 9, 11, 107
1, 14015, Note_on_c, 9, 59, 94
1, 14016, Note_off_c, 3, 61, 64
1, 14016, Note_off_c, 3, 70, 64
1, 14016, Note_off_c, 3, 66, 64
1, 14017, Note_off_c, 1, 34, 64
1, 14017, Note_on_c, 1, 39, 108
1, 14018, Note_off_c, 9, 59, 64
1, 14018, Note_on_c, 3, 73, 108
1, 14025, Pitch_bend_c, 3, 9033
1, 14028, Pitch_bend_c, 3, 10503
1, 14032, Pitch_bend_c, 3, 11185
1, 14035, Pitch_bend_c, 3, 12971
1, 14039, Pitch_bend_c, 3, 14808
1, 14041, Control_c, 3, 11, 103
1, 14041, Control_c, 9, 11, 103
1, 14041, Control_c, 1, 11, 103
1, 14043, Pitch_bend_c, 3, 16226
1, 14047, Pitch_bend_c, 3, 16383
1, 14063, Note_on_c, 9, 59, 103
1, 14064, Note_off_c, 1, 39, 64
1, 14064, Note_on_c, 9, 35, 107
1, 14065, Note_off_c, 3, 73, 64
1, 14066, Note_off_c, 9, 59, 64
1, 14066, Note_on_c, 1, 37, 87
1, 14067, Note_off_c, 9, 35, 64
1, 14067, Note_on_c, 3, 73, 105
1, 14070, Pitch_bend_c, 3, 14231
1, 14071, Pitch_bend_c, 3, 11448
1, 14072, Pitch_bend_c, 3, 8192
1, 14077, Control_c, 3, 11, 99
1, 14077, Control_c, 9, 11, 99
1, 14077, Control_c, 1, 11, 99
1, 14095, Note_on_c, 9, 51, 29
1, 14098, Note_off_c, 9, 51, 64
1, 14110, Note_off_c, 1, 37, 64
1, 14111, Note_off_c, 3, 73, 64
1, 14111, Note_on_c, 9, 59, 93
1, 14112, Note_on_c, 9, 40, 104
1, 14113, Note_on_c, 3, 68, 101
1, 14114, Note_off_c, 9, 59, 64
1, 14114, Note_on_c, 1, 34, 103
1, 14114, Control_c, 1, 11, 95
1, 14114, Control_c, 9, 11, 95
1, 14114, Control_c, 3, 11, 95
1, 14115, Note_off_c, 9, 40, 64
1, 14125, Pitch_bend_c, 3, 8560
1, 14127, Pitch_bend_c, 3, 10608
1, 14131, Pitch_bend_c, 3, 12235
1, 14135, Pitch_bend_c, 3, 14283
1, 14137, Pitch_bend_c, 3, 16278
1, 14140, Pitch_bend_c, 3, 16383
1, 14143, Note_on_c, 9, 51, 37
1, 14146, Note_off_c, 9, 51, 64
1, 14150, Control_c, 1, 11, 91
1, 14150, Control_c, 9, 11, 91
1, 14150, Control_c, 3, 11, 91
1, 14154, Pitch_bend_c, 3, 12025
1, 14157, Note_off_c, 1, 34, 64
1, 14158, Note_off_c, 3, 68, 64
1, 14158, Pitch_bend_c, 3, 8192
1, 14159, Note_on_c, 9, 59, 89
1, 14160, Note_on_c, 3, 70, 98
1, 14161, Note_on_c, 1, 32, 75
1, 14162, Note_off_c, 9, 59, 64
1, 14172, Note_off_c, 3, 70, 64
1, 14174, Note_on_c, 3, 75, 97
1, 14186, Control_c, 1, 11, 87
1, 14186, Control_c, 9, 11, 87
1, 14186, Control_c, 3, 11, 87
1, 14191, Note_on_c, 9, 51, 45
1, 14194, Note_off_c, 9, 51, 64
1, 14204, Note_off_c, 1, 32, 64
1, 14206, Note_off_c, 3, 75, 64
1, 14208, Note_on_c, 3, 68, 89
1, 14208, Note_on_c, 9, 35, 97
1, 14208, Note_on_c, 9, 59, 87
1, 14209, Note_on_c, 1, 30, 84
1, 14211, Note_off_c, 9, 35, 64
1, 14211, Note_off_c, 9, 59, 64
1, 14223, Control_c, 1, 11, 83
1, 14223, Control_c, 9, 11, 83
1, 14223, Control_c, 3, 11, 83
1, 14239, Pitch_bend_c, 3, 11710
1, 14242, Pitch_bend_c, 3, 16383
1, 14254, Note_off_c, 3, 68, 64
1, 14255, Note_on_c, 9, 59, 82
1, 14256, Note_on_c, 3, 71, 78
1, 14256, Note_on_c, 3, 68, 77
1, 14256, Note_on_c, 3, 76, 80
1, 14258, Note_off_c, 9, 59, 64
1, 14259, Control_c, 1, 11, 79
1, 14259, Control_c, 9, 11, 79
1, 14259, Control_c, 3, 11, 79
1, 14270, Note_off_c, 3, 76, 64
1, 14270, Note_off_c, 3, 68, 64
1, 14270, Note_off_c, 3, 71, 64
1, 14272, Note_on_c, 3, 68, 80
1, 14272, Note_on_c, 3, 71, 68
1, 14280, Note_off_c, 3, 68, 64
1, 14285, Note_off_c, 3, 71, 64
1, 14287, Note_on_c, 3, 71, 76
1, 14287, Note_on_c, 3, 68, 84
1, 14287, Note_on_c, 3, 76, 74
1, 14288, Note_on_c, 9, 35, 68
1, 14291, Note_off_c, 9, 35, 64
1, 14295, Control_c, 1, 11, 75
1, 14295, Control_c, 9, 11, 75
1, 14295, Control_c, 3, 11, 75
1, 14300, Pitch_bend_c, 3, 14231
1, 14301, Pitch_bend_c, 3, 9558
1, 14302, Note_off_c, 3, 76, 64
1, 14302, Note_off_c, 3, 71, 64
1, 14302, Note_off_c, 3, 68, 64
1, 14302, Pitch_bend_c, 3, 8192
1, 14303, Note_on_c, 9, 59, 81
1, 14304, Note_on_c, 9, 40, 89
1, 14304, Note_on_c, 3, 78, 73
1, 14304, Note_on_c, 3, 70, 69
1, 14304, Note_on_c, 3, 73, 69
1, 14306, Note_off_c, 9, 59, 64
1, 14307, Note_off_c, 9, 40, 64
1, 14311, Note_off_c, 3, 70, 64
1, 14311, Note_off_c, 3, 78, 64
1, 14311, Note_off_c, 3, 73, 64
1, 14313, Note_on_c, 3, 70, 60
1, 14314, Note_on_c, 3, 73, 60
1, 14314, Note_on_c, 3, 78, 60
1, 14320, Note_off_c, 3, 70, 64
1, 14321, Note_off_c, 3, 78, 64
1, 14321, Note_off_c, 3, 73, 64
1, 14323, Note_on_c, 3, 78, 59
1, 14323, Note_on_c, 3, 70, 59
1, 14323, Note_on_c, 3, 73, 59
1, 14324, Control_c, 3, 64, 127
1, 14327, Note_off_c, 3, 78, 64
1, 14328, Note_off_c, 3, 70, 64
1, 14329, Note_off_c, 3, 73, 64
1, 14331, Note_on_c, 3, 78, 59
1, 14331, Note_on_c, 3, 70, 59
1, 14331, Control_c, 1, 11, 71
1, 14331, Control_c, 9, 11, 71
1, 14331, Control_c, 3, 11, 71
1, 14332, Note_on_c, 3, 73, 59
1, 14335, Note_off_c, 3, 78, 64
1, 14337, Note_off_c, 3, 73, 64
1, 14338, Note_off_c, 3, 70, 64
1, 14339, Note_on_c, 3, 78, 58
1, 14339, Note_on_c, 3, 70, 58
1, 14340, Note_on_c, 3, 73, 58
1, 14344, Note_off_c, 3, 78, 64
1, 14344, Note_off_c, 3, 70, 64
1, 14345, Note_off_c, 3, 73, 64
1, 14347, Note_on_c, 3, 70, 58
1, 14348, Note_on_c, 3, 78, 57
1, 14348, Note_on_c, 3, 73, 62
1, 14351, Note_on_c, 9, 59, 76
1, 14352, Note_off_c, 3, 70, 64
1, 14352, Note_off_c, 3, 78, 64
1, 14353, Control_c, 3, 64, 0
1, 14354, Note_off_c, 3, 73, 64
1, 14354, Note_off_c, 9, 59, 64
1, 14356, Note_on_c, 3, 73, 63
1, 14356, Note_on_c, 3, 78, 63
1, 14356, Note_on_c, 3, 70, 63
1, 14362, Note_off_c, 3, 73, 64
1, 14362, Note_off_c, 3, 78, 64
1, 14363, Note_off_c, 3, 70, 64
1, 14365, Control_c, 3, 64, 127
1, 14365, Note_on_c, 3, 73, 63
1, 14365, Note_on_c, 3, 78, 63
1, 14365, Note_on_c, 3, 70, 63
1, 14368, Control_c, 1, 11, 67
1, 14368, Control_c, 9, 11, 67
1, 14368, Control_c, 3, 11, 67
1, 14370, Note_off_c, 3, 73, 64
1, 14370, Note_off_c, 3, 78, 64
1, 14371, Note_off_c, 3, 70, 64
1, 14372, Note_on_c, 3, 78, 62
1, 14372, Note_on_c, 3, 70, 62
1, 14373, Note_on_c, 3, 73, 62
1, 14378, Note_off_c, 3, 73, 64
1, 14379, Note_off_c, 3, 78, 64
1, 14379, Note_off_c, 3, 70, 64
1, 14380, Note_on_c, 3, 78, 62
1, 14380, Note_on_c, 3, 70, 62
1, 14381, Note_on_c, 3, 73, 62
1, 14383, Note_on_c, 9, 51, 36
1, 14384, Note_on_c, 1, 37, 55
1, 14385, Note_off_c, 1, 30, 64
1, 14386, Note_off_c, 3, 78, 64
1, 14386, Note_off_c, 9, 51, 64
1, 14386, Note_off_c, 3, 70, 64
1, 14387, Note_off_c, 3, 73, 64
1, 14388, Note_on_c, 3, 73, 61
1, 14389, Note_on_c, 3, 70, 61
1, 14389, Note_on_c, 3, 78, 61
1, 14395, Note_off_c, 3, 73, 64
1, 14396, Note_off_c, 3, 78, 64
1, 14396, Note_off_c, 3, 70, 64
1, 14397, Control_c, 3, 64, 0
1, 14399, Note_on_c, 9, 59, 71
1, 14400, Note_on_c, 9, 35, 77
1, 14400, Note_on_c, 3, 78, 67
1, 14400, Note_on_c, 3, 73, 71
1, 14400, Note_on_c, 3, 68, 70
1, 14402, Note_off_c, 1, 37, 64
1, 14402, Note_off_c, 9, 59, 64
1, 14402, Note_on_c, 1, 42, 63
1, 14403, Note_off_c, 9, 35, 64
1, 14404, Control_c, 1, 11, 63
1, 14404, Control_c, 9, 11, 63
1, 14404, Control_c, 3, 11, 63
1, 14405, Note_off_c, 3, 73, 64
1, 14406, Note_off_c, 3, 78, 64
1, 14409, Note_off_c, 3, 68, 64
1, 14410, Note_on_c, 3, 78, 64
1, 14410, Note_on_c, 3, 70, 66
1, 14411, Control_c, 3, 64, 127
1, 14411, Note_on_c, 3, 73, 64
1, 14413, Note_off_c, 3, 73, 64
1, 14414, Note_off_c, 3, 78, 64
1, 14414, Note_off_c, 3, 70, 64
1, 14418, Note_on_c, 3, 70, 59
1, 14418, Note_on_c, 3, 73, 59
1, 14419, Note_on_c, 3, 78, 59
1, 14421, Note_off_c, 3, 73, 64
1, 14422, Note_off_c, 3, 78, 64
1, 14422, Note_off_c, 3, 70, 64
1, 14424, Note_off_c, 1, 42, 64
1, 14426, Note_on_c, 3, 70, 59
1, 14426, Note_on_c, 3, 78, 59
1, 14426, Note_on_c, 3, 73, 59
1, 14429, Note_off_c, 3, 70, 64
1, 14429, Note_off_c, 3, 73, 64
1, 14429, Note_off_c, 3, 78, 64
1, 14434, Note_on_c, 3, 70, 58
1, 14434, Note_on_c, 3, 73, 58
1, 14435, Note_on_c, 3, 78, 58
1, 14436, Note_off_c, 3, 73, 64
1, 14437, Note_off_c, 3, 78, 64
1, 14437, Note_off_c, 3, 70, 64
1, 14440, Control_c, 1, 11, 59
1, 14440, Control_c, 3, 11, 59
1, 14440, Control_c, 9, 11, 59
1, 14442, Note_on_c, 3, 73, 58
1, 14443, Control_c, 3, 64, 0
1, 14443, Note_on_c, 3, 70, 58
1, 14443, Note_on_c, 3, 78, 58
1, 14445, Note_off_c, 3, 73, 64
1, 14445, Note_off_c, 3, 78, 64
1, 14445, Note_off_c, 3, 70, 64
1, 14447, Note_on_c, 9, 59, 69
1, 14448, Note_on_c, 9, 35, 76
1, 14450, Note_off_c, 9, 59, 64
1, 14450, Note_on_c, 1, 42, 61
1, 14450, Note_on_c, 3, 68, 64
1, 14451, Note_off_c, 9, 35, 64
1, 14451, Note_on_c, 3, 78, 64
1, 14451, Note_on_c, 3, 73, 64
1, 14456, Note_off_c, 3, 68, 64
1, 14456, Note_off_c, 3, 78, 64
1, 14457, Note_off_c, 3, 73, 64
1, 14458, Note_on_c, 3, 78, 64
1, 14459, Note_on_c, 3, 70, 64
1, 14459, Note_on_c, 3, 73, 64
1, 14461, Note_off_c, 3, 73, 64
1, 14461, Control_c, 3, 64, 127
1, 14462, Note_off_c, 3, 78, 64
1, 14462, Note_off_c, 3, 70, 64
1, 14466, Note_on_c, 3, 70, 63
1, 14466, Note_on_c, 3, 78, 63
1, 14467, Note_on_c, 3, 73, 63
1, 14469, Note_off_c, 3, 70, 64
1, 14469, Note_off_c, 3, 73, 64
1, 14469, Note_off_c, 3, 78, 64
1, 14474, Note_on_c, 3, 70, 63
1, 14474, Note_on_c, 3, 78, 63
1, 14474, Note_on_c, 3, 73, 63
1, 14477, Note_off_c, 3, 70, 64
1, 14477, Note_off_c, 3, 73, 64
1, 14477, Note_off_c, 3, 78, 64
1, 14477, Control_c, 1, 11, 55
1, 14477, Control_c, 9, 11, 55
1, 14477, Control_c, 3, 11, 55
1, 14481, Note_on_c, 3, 70, 57
1, 14481, Note_on_c, 3, 78, 57
1, 14481, Note_on_c, 3, 73, 57
1, 14484, Note_off_c, 3, 70, 64
1, 14484, Note_off_c, 3, 73, 64
1, 14484, Note_off_c, 3, 78, 64
1, 14488, Note_on_c, 3, 78, 57
1, 14489, Note_on_c, 3, 73, 57
1, 14489, Note_on_c, 3, 70, 54
1, 14491, Note_off_c, 3, 78, 64
1, 14492, Note_off_c, 3, 70, 64
1, 14492, Note_off_c, 3, 73, 64
1, 14493, Control_c, 3, 64, 0
1, 14495, Note_on_c, 9, 59, 64
1, 14496, Note_on_c, 9, 40, 72
1, 14496, Note_on_c, 3, 73, 61
1, 14496, Note_on_c, 3, 78, 60
1, 14496, Note_on_c, 3, 68, 62
1, 14498, Note_off_c, 9, 59, 64
1, 14499, Note_off_c, 9, 40, 64
1, 14502, Note_off_c, 3, 78, 64
1, 14502, Note_off_c, 3, 73, 64
1, 14502, Note_off_c, 3, 68, 64
1, 14504, Note_on_c, 3, 73, 59
1, 14505, Note_on_c, 3, 78, 57
1, 14505, Note_on_c, 3, 70, 60
1, 14507, Note_off_c, 3, 73, 64
1, 14507, Control_c, 3, 64, 127
1, 14508, Note_off_c, 3, 78, 64
1, 14509, Note_off_c, 3, 70, 64
1, 14512, Note_on_c, 3, 70, 62
1, 14512, Note_on_c, 3, 78, 62
1, 14513, Note_on_c, 3, 73, 62
1, 14513, Control_c, 1, 11, 51
1, 14513, Control_c, 9, 11, 51
1, 14513, Control_c, 3, 11, 51
1, 14515, Note_off_c, 3, 70, 64
1, 14515, Note_off_c, 3, 73, 64
1, 14516, Note_off_c, 3, 78, 64
1, 14520, Note_on_c, 3, 73, 62
1, 14520, Note_on_c, 3, 70, 55
1, 14520, Note_on_c, 3, 78, 55
1, 14522, Note_off_c, 3, 73, 64
1, 14523, Note_off_c, 3, 78, 64
1, 14523, Note_off_c, 3, 70, 64
1, 14524, Note_off_c, 1, 42, 64
1, 14527, Note_on_c, 1, 37, 43
1, 14528, Note_on_c, 3, 78, 54
1, 14528, Note_on_c, 3, 73, 54
1, 14528, Note_on_c, 3, 70, 54
1, 14528, Note_on_c, 9, 51, 31
1, 14530, Note_off_c, 3, 73, 64
1, 14531, Note_off_c, 9, 51, 64
1, 14531, Note_off_c, 3, 70, 64
1, 14531, Note_off_c, 3, 78, 64
1, 14535, Note_on_c, 3, 73, 54
1, 14536, Note_on_c, 3, 78, 48
1, 14536, Note_on_c, 3, 70, 48
1, 14538, Note_off_c, 3, 73, 64
1, 14538, Note_off_c, 3, 78, 64
1, 14539, Note_off_c, 3, 70, 64
1, 14542, Control_c, 3, 64, 0
1, 14543, Note_off_c, 1, 37, 64
1, 14543, Note_on_c, 1, 42, 53
1, 14544, Note_on_c, 3, 73, 59
1, 14544, Note_on_c, 3, 68, 59
1, 14544, Note_on_c, 3, 78, 55
1, 14544, Note_on_c, 9, 59, 61
1, 14547, Note_off_c, 9, 59, 64
1, 14549, Note_off_c, 3, 78, 64
1, 14549, Note_off_c, 3, 73, 64
1, 14549, Note_off_c, 3, 68, 64
1, 14549, Control_c, 1, 11, 47
1, 14549, Control_c, 9, 11, 47
1, 14549, Control_c, 3, 11, 47
1, 14551, Note_on_c, 3, 73, 57
1, 14552, Note_on_c, 3, 70, 58
1, 14552, Note_on_c, 3, 78, 54
1, 14554, Note_off_c, 3, 73, 64
1, 14555, Note_off_c, 3, 78, 64
1, 14555, Note_off_c, 3, 70, 64
1, 14556, Control_c, 3, 64, 127
1, 14560, Note_on_c, 3, 78, 39
1, 14560, Note_on_c, 3, 70, 45
1, 14560, Note_on_c, 3, 73, 49
1, 14562, Note_off_c, 3, 73, 64
1, 14563, Note_off_c, 3, 78, 64
1, 14563, Note_off_c, 3, 70, 64
1, 14567, Note_on_c, 3, 70, 48
1, 14567, Note_on_c, 3, 78, 46
1, 14567, Note_on_c, 3, 73, 49
1, 14569, Note_off_c, 3, 73, 64
1, 14570, Note_off_c, 3, 70, 64
1, 14570, Note_off_c, 3, 78, 64
1, 14574, Note_off_c, 1, 42, 64
1, 14574, Note_on_c, 3, 70, 49
1, 14575, Note_on_c, 3, 78, 48
1, 14575, Note_on_c, 3, 73, 50
1, 14575, Note_on_c, 9, 53, 43
1, 14576, Note_on_c, 9, 35, 35
1, 14576, Note_on_c, 1, 37, 41
1, 14577, Note_off_c, 3, 73, 64
1, 14578, Note_off_c, 3, 78, 64
1, 14578, Note_off_c, 9, 53, 64
1, 14578, Note_off_c, 3, 70, 64
1, 14579, Note_off_c, 9, 35, 64
1, 14582, Note_on_c, 3, 70, 59
1, 14582, Note_on_c, 3, 78, 60
1, 14583, Note_on_c, 3, 73, 60
1, 14585, Note_off_c, 3, 70, 64
1, 14585, Note_off_c, 3, 73, 64
1, 14585, Note_off_c, 3, 78, 64
1, 14585, Control_c, 1, 11, 43
1, 14585, Control_c, 9, 11, 43
1, 14585, Control_c, 3, 11, 43
1, 14589, Control_c, 3, 64, 0
1, 14592, Note_on_c, 9, 35, 65
1, 14592, Note_on_c, 9, 57, 56
1, 14593, Note_on_c, 1, 44, 44
1, 14594, Note_on_c, 3, 68, 59
1, 14594, Note_on_c, 3, 71, 62
1, 14595, Note_off_c, 1, 37, 64
1, 14595, Note_off_c, 9, 35, 64
1, 14595, Note_off_c, 9, 57, 64
1, 14595, Pitch_bend_c, 3, 16383
1, 14607, Pitch_bend_c, 3, 9400
1, 14608, Note_off_c, 3, 71, 64
1, 14609, Pitch_bend_c, 3, 8192
1, 14621, Note_off_c, 3, 68, 64
1, 14622, Control_c, 1, 11, 39
1, 14622, Control_c, 3, 11, 39
1, 14622, Control_c, 9, 11, 39
1, 14623, Note_on_c, 3, 66, 52
1, 14623, Note_on_c, 3, 73, 44
1, 14634, Note_off_c, 3, 73, 64
1, 14637, Note_off_c, 3, 66, 64
1, 14639, Note_on_c, 9, 59, 46
1, 14640, Note_on_c, 3, 68, 58
1, 14640, Note_on_c, 3, 73, 51
1, 14642, Note_off_c, 9, 59, 64
1, 14658, Control_c, 1, 11, 35
1, 14658, Control_c, 9, 11, 35
1, 14658, Control_c, 3, 11, 35
1, 14661, Control_c, 3, 1, 21
1, 14662, Note_off_c, 3, 73, 64
1, 14663, Note_off_c, 3, 68, 64
1, 14664, Control_c, 3, 1, 72
1, 14668, Control_c, 3, 1, 127
1, 14671, Note_on_c, 3, 78, 53
1, 14671, Note_on_c, 3, 73, 46
1, 14671, Note_on_c, 3, 68, 46
1, 14672, Note_on_c, 9, 35, 44
1, 14675, Note_off_c, 9, 35, 64
1, 14680, Note_off_c, 3, 78, 64
1, 14681, Note_off_c, 3, 73, 64
1, 14682, Note_off_c, 3, 68, 64
1, 14685, Control_c, 3, 1, 124
1, 14687, Note_on_c, 9, 59, 45
1, 14688, Control_c, 3, 1, 24
1, 14688, Note_on_c, 9, 40, 57
1, 14689, Note_on_c, 3, 73, 47
1, 14689, Note_on_c, 3, 66, 49
1, 14690, Note_off_c, 9, 59, 64
1, 14691, Note_off_c, 9, 40, 64
1, 14691, Control_c, 3, 1, 0
1, 14694, Control_c, 3, 11, 31
1, 14694, Control_c, 9, 11, 31
1, 14694, Control_c, 1, 11, 31
1, 14700, Note_off_c, 3, 66, 64
1, 14700, Note_on_c, 3, 68, 46
1, 14708, Note_off_c, 3, 68, 64
1, 14710, Note_on_c, 3, 66, 32
1, 14720, Note_on_c, 3, 63, 36
1, 14721, Note_off_c, 3, 66, 64
1, 14726, Note_off_c, 3, 73, 64
1, 14728, Note_off_c, 3, 63, 64
1, 14731, Control_c, 1, 11, 27
1, 14731, Control_c, 9, 11, 27
1, 14731, Control_c, 3, 11, 27
1, 14733, Note_on_c, 3, 66, 41
1, 14733, Note_on_c, 3, 73, 41
1, 14735, Note_on_c, 9, 59, 35
1, 14738, Note_off_c, 9, 59, 64
1, 14763, Note_off_c, 3, 66, 64
1, 14763, Note_off_c, 1, 44, 64
1, 14764, Note_on_c, 3, 68, 48
1, 14764, Note_on_c, 3, 71, 45
1, 14765, Note_off_c, 3, 73, 64
1, 14767, Note_on_c, 1, 39, 26
1, 14767, Note_on_c, 9, 51, 26
1, 14767, Control_c, 9, 11, 23
1, 14767, Control_c, 3, 11, 23
1, 14767, Control_c, 1, 11, 23
1, 14768, Pitch_bend_c, 3, 10713
1, 14768, Note_on_c, 9, 35, 38
1, 14770, Note_off_c, 9, 51, 64
1, 14770, Pitch_bend_c, 3, 15596
1, 14771, Note_off_c, 9, 35, 64
1, 14774, Pitch_bend_c, 3, 16383
1, 14778, Note_off_c, 3, 68, 64
1, 14779, Note_off_c, 3, 71, 64
1, 14781, Pitch_bend_c, 3, 10135
1, 14783, Pitch_bend_c, 3, 8192
1, 14783, Note_on_c, 9, 59, 46
1, 14784, Note_off_c, 1, 39, 64
1, 14784, Note_on_c, 1, 44, 37
1, 14784, Note_on_c, 3, 73, 43
1, 14784, Note_on_c, 9, 35, 47
1, 14785, Note_on_c, 3, 68, 46
1, 14786, Note_off_c, 9, 59, 64
1, 14787, Note_off_c, 9, 35, 64
1, 14799, Note_off_c, 3, 68, 64
1, 14799, Note_off_c, 3, 73, 64
1, 14800, Note_on_c, 3, 66, 43
1, 14803, Control_c, 1, 11, 19
1, 14803, Control_c, 9, 11, 19
1, 14803, Control_c, 3, 11, 19
1, 14816, Note_off_c, 3, 66, 64
1, 14817, Note_on_c, 1, 39, 29
1, 14817, Note_on_c, 3, 63, 39
1, 14818, Note_off_c, 1, 44, 64
1, 14831, Note_off_c, 3, 63, 64
1, 14831, Note_on_c, 9, 59, 38
1, 14832, Note_on_c, 3, 66, 42
1, 14833, Note_on_c, 1, 32, 36
1, 14834, Note_off_c, 1, 39, 64
1, 14834, Note_off_c, 9, 59, 64
1, 14839, Control_c, 1, 11, 15
1, 14839, Control_c, 9, 11, 15
1, 14839, Control_c, 3, 11, 15
1, 14846, Note_off_c, 3, 66, 64
1, 14847, Pitch_bend_c, 3, 5546
1, 14848, Note_on_c, 3, 71, 43
1, 14851, Pitch_bend_c, 3, 4477
1, 14858, Pitch_bend_c, 3, 7428
1, 14861, Pitch_bend_c, 3, 7835
1, 14862, Pitch_bend_c, 3, 8192
1, 14864, Note_on_c, 9, 35, 29
1, 14867, Note_off_c, 9, 35, 64
1, 14871, Pitch_bend_c, 3, 8455
1, 14872, Pitch_bend_c, 3, 10660
1, 14876, Pitch_bend_c, 3, 13443
1, 14876, Control_c, 3, 11, 11
1, 14876, Control_c, 9, 11, 11
1, 14876, Control_c, 1, 11, 11
1, 14879, Pitch_bend_c, 3, 16383
1, 14879, Note_on_c, 9, 59, 36
1, 14880, Note_on_c, 9, 40, 41
1, 14882, Note_off_c, 9, 59, 64
1, 14883, Note_off_c, 9, 40, 64
1, 14889, Pitch_bend_c, 3, 9243
1, 14891, Note_off_c, 3, 71, 64
1, 14891, Pitch_bend_c, 3, 8192
1, 14892, Note_on_c, 3, 70, 37
1, 14895, Note_on_c, 3, 68, 36
1, 14896, Note_off_c, 3, 70, 64
1, 14908, Note_off_c, 1, 32, 64
1, 14911, Note_on_c, 9, 51, 17
1, 14912, Note_off_c, 3, 68, 64
1, 14912, Note_on_c, 1, 34, 35
1, 14912, Note_on_c, 3, 66, 35
1, 14912, Note_on_c, 9, 35, 35
1, 14912, Control_c, 9, 11, 7
1, 14912, Control_c, 3, 11, 7
1, 14912, Control_c, 1, 11, 7
1, 14914, Note_off_c, 9, 51, 64
1, 14915, Note_off_c, 9, 35, 64
1, 14924, Note_off_c, 3, 66, 64
1, 14927, Note_on_c, 3, 63, 36
1, 14928, Note_on_c, 9, 59, 33
1, 14931, Note_off_c, 9, 59, 64
1, 14941, Note_off_c, 3, 63, 64
1, 14943, Note_on_c, 9, 51, 24
1, 14944, Note_on_c, 3, 61, 26
1, 14946, Note_off_c, 9, 51, 64
1, 14948, Control_c, 1, 11, 3
1, 14948, Control_c, 9, 11, 3
1, 14948, Control_c, 3, 11, 3
1, 14957, Note_off_c, 3, 61, 64
1, 14959, Note_on_c, 3, 63, 34
1, 14959, Note_on_c, 9, 53, 25
1, 14960, Note_on_c, 9, 40, 22
1, 14962, Note_off_c, 9, 53, 64
1, 14963, Note_off_c, 9, 40, 64
1, 14969, Note_off_c, 3, 63, 64
1, 14976, Note_off_c, 1, 34, 64
1, 14976, Control_c, 1, 11, 0
1, 14976, Control_c, 9, 11, 0
1, 14976, Control_c, 3, 11, 0
1, 14976, End_track
0, 0, End_of_file
