0, 0, Header, 1, 13, 120
1, 0, Start_track
1, 0, MIDI_port, 0
1, 0, System_exclusive, 5, 126, 127, 9, 1, 247
1, 0, MIDI_port, 0
1, 0, System_exclusive, 13, 65, 16, 66, 17, 72, 0, 0, 0, 29, 29, 16, 11, 247
1, 0, MIDI_port, 0
1, 0, Time_signature, 4, 2, 24, 8
1, 0, Key_signature, 0, "major"
1, 0, Tempo, 416667
1, 0, End_track
2, 0, Start_track
2, 0, MIDI_port, 0
2, 0, Title_t, "Howdy  You'all"
2, 0, Text_t, "@K"
2, 0, Text_t, "@I           Having Any Fun Yet?"
2, 0, Text_t, "@I       From Shrevepotr, La. U.S.A."
2, 0, Text_t, "@I              Karaoke By Fred"
2, 0, End_track
3, 0, Start_track
3, 0, MIDI_port, 0
3, 0, Title_t, "Words"
3, 0, Text_t, "@LENGL "
3, 0, Text_t, "@TLITTLE SISTER"
3, 0, Text_t, "@TDwight Yokum"
3, 0, Text_t, "@TOriginaly done by Elvis"
3, 0, Text_t, "@TKar By Fred"
3, 1558, Text_t, "\\Lit"
3, 1586, Text_t, "tle "
3, 1616, Text_t, "sis"
3, 1751, Text_t, "ter "
3, 1811, Text_t, "don't "
3, 1871, Text_t, "you. "
3, 2513, Text_t, "Lit"
3, 2543, Text_t, "tle "
3, 2571, Text_t, "sis"
3, 2709, Text_t, "ter "
3, 2766, Text_t, "don't "
3, 2824, Text_t, "you. "
3, 3481, Text_t, "/Lit"
3, 3511, Text_t, "tle "
3, 3537, Text_t, "sis"
3, 3662, Text_t, "ter "
3, 3724, Text_t, "don't "
3, 3784, Text_t, "you "
3, 3849, Text_t, "kiss "
3, 3908, Text_t, "me "
3, 3966, Text_t, "once "
3, 4021, Text_t, "or "
3, 4083, Text_t, "twice. "
3, 4262, Text_t, "/Tell, "
3, 4388, Text_t, "me "
3, 4444, Text_t, "that "
3, 4499, Text_t, "it's "
3, 4564, Text_t, "nice "
3, 4625, Text_t, "and "
3, 4684, Text_t, "then "
3, 4737, Text_t, "you "
3, 4800, Text_t, "run. "
3, 5582, Text_t, "/Yeah, "
3, 5695, Text_t, "Yeah, "
3, 5883, Text_t, "Lit"
3, 5909, Text_t, "tle "
3, 5941, Text_t, "sis"
3, 6068, Text_t, "ter "
3, 6126, Text_t, "don't "
3, 6181, Text_t, "you "
3, 6239, Text_t, "do "
3, 6362, Text_t, "what "
3, 6421, Text_t, "your "
3, 6484, Text_t, "big "
3, 6603, Text_t, "sis"
3, 6659, Text_t, "ter "
3, 6720, Text_t, "done. "
3, 7509, Text_t, "\\You "
3, 7562, Text_t, "know "
3, 7615, Text_t, "I "
3, 7679, Text_t, "dat"
3, 7803, Text_t, "ed "
3, 7918, Text_t, "your "
3, 7974, Text_t, "big "
3, 8090, Text_t, "sis"
3, 8223, Text_t, "ter "
3, 8519, Text_t, "and "
3, 8574, Text_t, "I "
3, 8642, Text_t, "took "
3, 8769, Text_t, "her "
3, 8883, Text_t, "to "
3, 9004, Text_t, "the "
3, 9059, Text_t, "show. "
3, 9411, Text_t, "/And "
3, 9537, Text_t, "I "
3, 9597, Text_t, "went "
3, 9661, Text_t, "for "
3, 9779, Text_t, "some "
3, 9836, Text_t, "can"
3, 9899, Text_t, "dy "
3, 10031, Text_t, "and "
3, 10057, Text_t, "al"
3, 10089, Text_t, "ong "
3, 10155, Text_t, "came "
3, 10262, Text_t, "Jim "
3, 10315, Text_t, "Dan"
3, 10374, Text_t, "dy, "
3, 10434, Text_t, "and "
3, 10488, Text_t, "they "
3, 10554, Text_t, "slipped "
3, 10681, Text_t, "right "
3, 10806, Text_t, "out "
3, 10917, Text_t, "the "
3, 10978, Text_t, "door. "
3, 11636, Text_t, "\\Lit"
3, 11663, Text_t, "tle "
3, 11692, Text_t, "sis"
3, 11817, Text_t, "ter "
3, 11880, Text_t, "don't "
3, 11945, Text_t, "you. "
3, 12596, Text_t, "Lit"
3, 12621, Text_t, "tle "
3, 12652, Text_t, "sis"
3, 12779, Text_t, "ter "
3, 12841, Text_t, "don't "
3, 12905, Text_t, "you. "
3, 13552, Text_t, "/Lit"
3, 13580, Text_t, "tle "
3, 13608, Text_t, "sis"
3, 13741, Text_t, "ter "
3, 13799, Text_t, "don't "
3, 13859, Text_t, "you "
3, 13921, Text_t, "kiss "
3, 13982, Text_t, "me "
3, 14038, Text_t, "once "
3, 14096, Text_t, "or "
3, 14160, Text_t, "twice. "
3, 14343, Text_t, "/Tell, "
3, 14462, Text_t, "me "
3, 14522, Text_t, "that "
3, 14580, Text_t, "it's "
3, 14644, Text_t, "nice "
3, 14704, Text_t, "and "
3, 14763, Text_t, "then "
3, 14818, Text_t, "you "
3, 14879, Text_t, "run. "
3, 15651, Text_t, "/Yeah,"
3, 15773, Text_t, "Yeah, "
3, 15965, Text_t, "Lit"
3, 15993, Text_t, "tle "
3, 16020, Text_t, "sis"
3, 16135, Text_t, "ter "
3, 16197, Text_t, "don't "
3, 16257, Text_t, "you "
3, 16319, Text_t, "do "
3, 16440, Text_t, "what "
3, 16502, Text_t, "your "
3, 16567, Text_t, "big "
3, 16678, Text_t, "sis"
3, 16740, Text_t, "ter "
3, 16800, Text_t, "done. "
3, 17825, Text_t, "\\                             "
3, 17825, Text_t, " (BREAK) "
3, 23356, Text_t, "\\I "
3, 23407, Text_t, "used "
3, 23465, Text_t, "to "
3, 23520, Text_t, "pull "
3, 23641, Text_t, "down "
3, 23765, Text_t, "on "
3, 23823, Text_t, "your "
3, 23942, Text_t, "pig"
3, 24061, Text_t, "tails. "
3, 24301, Text_t, "/And "
3, 24407, Text_t, "pinch "
3, 24596, Text_t, "your "
3, 24727, Text_t, "turned "
3, 24786, Text_t, "up "
3, 24902, Text_t, "nose. "
3, 25262, Text_t, "/Oh, "
3, 25392, Text_t, "but "
3, 25452, Text_t, "lat"
3, 25506, Text_t, "ley "
3, 25562, Text_t, "you "
3, 25622, Text_t, "been "
3, 25683, Text_t, "grow"
3, 25740, Text_t, "in' "
3, 25862, Text_t, "and "
3, 25924, Text_t, "lat"
3, 25984, Text_t, "ley "
3, 26040, Text_t, "it's "
3, 26098, Text_t, "been "
3, 26159, Text_t, "show"
3, 26220, Text_t, "in. "
3, 26279, Text_t, "/From "
3, 26333, Text_t, "your "
3, 26397, Text_t, "head "
3, 26528, Text_t, "down "
3, 26645, Text_t, "to "
3, 26763, Text_t, "your "
3, 26824, Text_t, "toes. "
3, 27478, Text_t, "\\Lit"
3, 27509, Text_t, "tle "
3, 27541, Text_t, "sis"
3, 27665, Text_t, "ter "
3, 27724, Text_t, "don't "
3, 27782, Text_t, "you. "
3, 28439, Text_t, "Lit"
3, 28468, Text_t, "tle "
3, 28499, Text_t, "sis"
3, 28622, Text_t, "ter "
3, 28684, Text_t, "don't "
3, 28750, Text_t, "you. "
3, 29413, Text_t, "/Lit"
3, 29440, Text_t, "tle "
3, 29469, Text_t, "sis"
3, 29582, Text_t, "ter "
3, 29637, Text_t, "don't "
3, 29696, Text_t, "you "
3, 29760, Text_t, "kiss "
3, 29815, Text_t, "me "
3, 29872, Text_t, "once "
3, 29933, Text_t, "or "
3, 29998, Text_t, "twice. "
3, 30187, Text_t, "/Tell, "
3, 30306, Text_t, "me "
3, 30363, Text_t, "that "
3, 30423, Text_t, "it's "
3, 30480, Text_t, "nice "
3, 30542, Text_t, "and "
3, 30600, Text_t, "then "
3, 30656, Text_t, "you "
3, 30718, Text_t, "run. "
3, 31495, Text_t, "/Yeah, "
3, 31617, Text_t, "Yeah, "
3, 31813, Text_t, "Lit"
3, 31840, Text_t, "tle "
3, 31868, Text_t, "sis"
3, 31980, Text_t, "ter "
3, 32040, Text_t, "don't "
3, 32096, Text_t, "you "
3, 32162, Text_t, "do "
3, 32285, Text_t, "what "
3, 32344, Text_t, "your "
3, 32404, Text_t, "big "
3, 32517, Text_t, "sis"
3, 32576, Text_t, "ter "
3, 32639, Text_t, "done. "
3, 33437, Text_t, "\\                             "
3, 33437, Text_t, " (BREAK) "
3, 39183, Text_t, "\\Eve"
3, 39243, Text_t, "ry "
3, 39301, Text_t, "time "
3, 39478, Text_t, "I "
3, 39600, Text_t, "see "
3, 39719, Text_t, "your "
3, 39783, Text_t, "sis"
3, 39901, Text_t, "ter, "
3, 40140, Text_t, "/Lord, "
3, 40263, Text_t, "she's "
3, 40331, Text_t, "with "
3, 40443, Text_t, "some"
3, 40563, Text_t, "bod"
3, 40626, Text_t, "y "
3, 40746, Text_t, "new. "
3, 41105, Text_t, "/Oh, "
3, 41224, Text_t, "she's "
3, 41282, Text_t, "mean "
3, 41345, Text_t, "and "
3, 41457, Text_t, "she's "
3, 41520, Text_t, "ev"
3, 41583, Text_t, "il "
3, 41709, Text_t, "like "
3, 41739, Text_t, "a "
3, 41768, Text_t, "lit"
3, 41797, Text_t, "tle "
3, 41936, Text_t, "bo"
3, 42000, Text_t, "wee"
3, 42062, Text_t, "vil. "
3, 42121, Text_t, "/Think "
3, 42179, Text_t, "I'll "
3, 42242, Text_t, "try "
3, 42362, Text_t, "my "
3, 42480, Text_t, "luck "
3, 42592, Text_t, "with "
3, 42660, Text_t, "you. "
3, 43317, Text_t, "\\Lit"
3, 43348, Text_t, "tle "
3, 43376, Text_t, "sis"
3, 43498, Text_t, "ter "
3, 43556, Text_t, "don't "
3, 43618, Text_t, "you. "
3, 44282, Text_t, "Lit"
3, 44312, Text_t, "tle "
3, 44342, Text_t, "sis"
3, 44464, Text_t, "ter "
3, 44524, Text_t, "don't "
3, 44580, Text_t, "you. "
3, 45236, Text_t, "/Lit"
3, 45267, Text_t, "tle "
3, 45292, Text_t, "sis"
3, 45425, Text_t, "ter "
3, 45480, Text_t, "don't "
3, 45538, Text_t, "you "
3, 45600, Text_t, "kiss "
3, 45662, Text_t, "me "
3, 45718, Text_t, "once "
3, 45781, Text_t, "or "
3, 45839, Text_t, "twice. "
3, 46019, Text_t, "/Tell, "
3, 46140, Text_t, "me "
3, 46199, Text_t, "that "
3, 46261, Text_t, "it's "
3, 46320, Text_t, "nice "
3, 46382, Text_t, "and "
3, 46443, Text_t, "then "
3, 46501, Text_t, "you "
3, 46558, Text_t, "run. "
3, 47351, Text_t, "\\Yeah, "
3, 47463, Text_t, "Yeah, "
3, 47640, Text_t, "Lit"
3, 47673, Text_t, "tle "
3, 47703, Text_t, "sis"
3, 47825, Text_t, "ter "
3, 47881, Text_t, "don't "
3, 47943, Text_t, "you "
3, 47999, Text_t, "do "
3, 48119, Text_t, "what "
3, 48179, Text_t, "your "
3, 48240, Text_t, "big "
3, 48357, Text_t, "sis"
3, 48417, Text_t, "ter "
3, 48480, Text_t, "done. "
3, 49268, Text_t, "/Yeah, "
3, 49383, Text_t, "Yeah "
3, 49570, Text_t, "Lit"
3, 49601, Text_t, "tle "
3, 49626, Text_t, "sis"
3, 49746, Text_t, "ter "
3, 49801, Text_t, "don't "
3, 49862, Text_t, "you "
3, 49919, Text_t, "do "
3, 50044, Text_t, "what "
3, 50100, Text_t, "your "
3, 50164, Text_t, "big "
3, 50279, Text_t, "sis"
3, 50339, Text_t, "ter "
3, 50400, Text_t, "done. "
3, 51178, Text_t, "/Yeah, "
3, 51297, Text_t, "Yeah "
3, 51475, Text_t, "lit"
3, 51506, Text_t, "tle "
3, 51533, Text_t, "sis"
3, 51675, Text_t, "ter "
3, 51726, Text_t, "don't "
3, 51784, Text_t, "you "
3, 51842, Text_t, "do "
3, 51964, Text_t, "what "
3, 52021, Text_t, "your "
3, 52084, Text_t, "big "
3, 52202, Text_t, "sis"
3, 52262, Text_t, "ter "
3, 52320, Text_t, "done."
3, 52320, End_track
4, 0, Start_track
4, 0, MIDI_port, 0
4, 0, Program_c, 0, 1
4, 0, Control_c, 0, 0, 0
4, 121, Control_c, 0, 7, 127
4, 121, Control_c, 0, 10, 64
4, 1020, Note_on_c, 0, 56, 67
4, 1020, Note_on_c, 0, 64, 61
4, 1020, Note_on_c, 0, 59, 67
4, 1070, Note_on_c, 0, 59, 0
4, 1070, Note_on_c, 0, 64, 0
4, 1070, Note_on_c, 0, 56, 0
4, 1080, Note_on_c, 0, 64, 47
4, 1080, Note_on_c, 0, 56, 61
4, 1080, Note_on_c, 0, 59, 67
4, 1130, Note_on_c, 0, 59, 0
4, 1130, Note_on_c, 0, 56, 0
4, 1130, Note_on_c, 0, 64, 0
4, 1140, Note_on_c, 0, 56, 55
4, 1140, Note_on_c, 0, 64, 55
4, 1140, Note_on_c, 0, 59, 61
4, 1190, Note_on_c, 0, 59, 0
4, 1190, Note_on_c, 0, 64, 0
4, 1190, Note_on_c, 0, 56, 0
4, 1200, Note_on_c, 0, 56, 67
4, 1200, Note_on_c, 0, 64, 61
4, 1200, Note_on_c, 0, 59, 61
4, 1250, Note_on_c, 0, 59, 0
4, 1250, Note_on_c, 0, 64, 0
4, 1250, Note_on_c, 0, 56, 0
4, 1260, Note_on_c, 0, 56, 55
4, 1260, Note_on_c, 0, 64, 55
4, 1260, Note_on_c, 0, 59, 67
4, 1310, Note_on_c, 0, 59, 0
4, 1310, Note_on_c, 0, 64, 0
4, 1310, Note_on_c, 0, 56, 0
4, 1320, Note_on_c, 0, 56, 61
4, 1320, Note_on_c, 0, 59, 61
4, 1320, Note_on_c, 0, 64, 55
4, 1370, Note_on_c, 0, 64, 0
4, 1370, Note_on_c, 0, 59, 0
4, 1370, Note_on_c, 0, 56, 0
4, 1380, Note_on_c, 0, 59, 61
4, 1380, Note_on_c, 0, 56, 45
4, 1380, Note_on_c, 0, 64, 47
4, 1430, Note_on_c, 0, 64, 0
4, 1430, Note_on_c, 0, 56, 0
4, 1430, Note_on_c, 0, 59, 0
4, 1445, Note_on_c, 0, 56, 67
4, 1445, Note_on_c, 0, 59, 61
4, 1445, Note_on_c, 0, 64, 61
4, 1495, Note_on_c, 0, 64, 0
4, 1495, Note_on_c, 0, 59, 0
4, 1495, Note_on_c, 0, 56, 0
4, 1920, Note_on_c, 0, 40, 67
4, 2037, Note_on_c, 0, 40, 0
4, 2040, Note_on_c, 0, 44, 67
4, 2040, Note_on_c, 0, 64, 55
4, 2040, Note_on_c, 0, 56, 55
4, 2040, Note_on_c, 0, 59, 61
4, 2040, Note_on_c, 0, 52, 55
4, 2069, Note_on_c, 0, 59, 0
4, 2071, Note_on_c, 0, 56, 0
4, 2071, Note_on_c, 0, 64, 0
4, 2072, Note_on_c, 0, 52, 0
4, 2100, Note_on_c, 0, 64, 55
4, 2100, Note_on_c, 0, 59, 61
4, 2100, Note_on_c, 0, 56, 47
4, 2100, Note_on_c, 0, 52, 55
4, 2160, Note_on_c, 0, 47, 55
4, 2161, Note_on_c, 0, 44, 0
4, 2242, Note_on_c, 0, 64, 0
4, 2249, Note_on_c, 0, 52, 0
4, 2253, Note_on_c, 0, 59, 0
4, 2255, Note_on_c, 0, 56, 0
4, 2260, Note_on_c, 0, 47, 0
4, 2280, Note_on_c, 0, 64, 55
4, 2280, Note_on_c, 0, 56, 47
4, 2280, Note_on_c, 0, 59, 55
4, 2280, Note_on_c, 0, 49, 55
4, 2280, Note_on_c, 0, 52, 61
4, 2337, Note_on_c, 0, 59, 0
4, 2338, Note_on_c, 0, 56, 0
4, 2340, Note_on_c, 0, 47, 47
4, 2342, Note_on_c, 0, 64, 0
4, 2342, Note_on_c, 0, 52, 0
4, 2342, Note_on_c, 0, 49, 0
4, 2397, Note_on_c, 0, 47, 0
4, 2400, Note_on_c, 0, 40, 55
4, 2512, Note_on_c, 0, 40, 0
4, 2520, Note_on_c, 0, 64, 47
4, 2520, Note_on_c, 0, 44, 61
4, 2520, Note_on_c, 0, 56, 67
4, 2520, Note_on_c, 0, 59, 61
4, 2520, Note_on_c, 0, 52, 61
4, 2547, Note_on_c, 0, 59, 0
4, 2548, Note_on_c, 0, 56, 0
4, 2549, Note_on_c, 0, 52, 0
4, 2552, Note_on_c, 0, 64, 0
4, 2580, Note_on_c, 0, 64, 47
4, 2580, Note_on_c, 0, 56, 61
4, 2580, Note_on_c, 0, 52, 55
4, 2580, Note_on_c, 0, 59, 61
4, 2637, Note_on_c, 0, 44, 0
4, 2640, Note_on_c, 0, 47, 47
4, 2737, Note_on_c, 0, 52, 0
4, 2738, Note_on_c, 0, 64, 0
4, 2742, Note_on_c, 0, 56, 0
4, 2743, Note_on_c, 0, 59, 0
4, 2754, Note_on_c, 0, 47, 0
4, 2760, Note_on_c, 0, 49, 47
4, 2760, Note_on_c, 0, 59, 61
4, 2760, Note_on_c, 0, 64, 55
4, 2760, Note_on_c, 0, 56, 47
4, 2760, Note_on_c, 0, 52, 61
4, 2814, Note_on_c, 0, 59, 0
4, 2820, Note_on_c, 0, 47, 47
4, 2821, Note_on_c, 0, 56, 0
4, 2822, Note_on_c, 0, 52, 0
4, 2822, Note_on_c, 0, 49, 0
4, 2823, Note_on_c, 0, 64, 0
4, 2880, Note_on_c, 0, 40, 47
4, 2882, Note_on_c, 0, 47, 0
4, 2994, Note_on_c, 0, 40, 0
4, 3000, Note_on_c, 0, 56, 61
4, 3000, Note_on_c, 0, 59, 61
4, 3000, Note_on_c, 0, 64, 47
4, 3000, Note_on_c, 0, 52, 55
4, 3000, Note_on_c, 0, 44, 67
4, 3026, Note_on_c, 0, 59, 0
4, 3030, Note_on_c, 0, 52, 0
4, 3030, Note_on_c, 0, 56, 0
4, 3032, Note_on_c, 0, 64, 0
4, 3060, Note_on_c, 0, 64, 47
4, 3060, Note_on_c, 0, 59, 55
4, 3060, Note_on_c, 0, 56, 55
4, 3060, Note_on_c, 0, 52, 55
4, 3119, Note_on_c, 0, 44, 0
4, 3120, Note_on_c, 0, 47, 55
4, 3210, Note_on_c, 0, 56, 0
4, 3210, Note_on_c, 0, 52, 0
4, 3210, Note_on_c, 0, 64, 0
4, 3210, Note_on_c, 0, 59, 0
4, 3232, Note_on_c, 0, 47, 0
4, 3240, Note_on_c, 0, 49, 67
4, 3240, Note_on_c, 0, 59, 47
4, 3240, Note_on_c, 0, 52, 61
4, 3240, Note_on_c, 0, 64, 55
4, 3240, Note_on_c, 0, 56, 55
4, 3284, Note_on_c, 0, 59, 0
4, 3285, Note_on_c, 0, 52, 0
4, 3287, Note_on_c, 0, 64, 0
4, 3289, Note_on_c, 0, 56, 0
4, 3292, Note_on_c, 0, 49, 0
4, 3300, Note_on_c, 0, 47, 37
4, 3360, Note_on_c, 0, 40, 55
4, 3370, Note_on_c, 0, 47, 0
4, 3464, Note_on_c, 0, 40, 0
4, 3480, Note_on_c, 0, 56, 61
4, 3480, Note_on_c, 0, 52, 55
4, 3480, Note_on_c, 0, 59, 61
4, 3480, Note_on_c, 0, 64, 55
4, 3480, Note_on_c, 0, 44, 61
4, 3505, Note_on_c, 0, 52, 0
4, 3507, Note_on_c, 0, 56, 0
4, 3507, Note_on_c, 0, 59, 0
4, 3515, Note_on_c, 0, 64, 0
4, 3540, Note_on_c, 0, 59, 55
4, 3540, Note_on_c, 0, 64, 47
4, 3540, Note_on_c, 0, 56, 55
4, 3540, Note_on_c, 0, 52, 55
4, 3599, Note_on_c, 0, 44, 0
4, 3600, Note_on_c, 0, 47, 45
4, 3683, Note_on_c, 0, 52, 0
4, 3686, Note_on_c, 0, 59, 0
4, 3686, Note_on_c, 0, 64, 0
4, 3691, Note_on_c, 0, 56, 0
4, 3702, Note_on_c, 0, 47, 0
4, 3720, Note_on_c, 0, 56, 47
4, 3720, Note_on_c, 0, 52, 61
4, 3720, Note_on_c, 0, 64, 47
4, 3720, Note_on_c, 0, 59, 55
4, 3720, Note_on_c, 0, 49, 47
4, 3763, Note_on_c, 0, 52, 0
4, 3766, Note_on_c, 0, 59, 0
4, 3769, Note_on_c, 0, 56, 0
4, 3775, Note_on_c, 0, 64, 0
4, 3780, Note_on_c, 0, 47, 45
4, 3783, Note_on_c, 0, 49, 0
4, 3828, Note_on_c, 0, 47, 0
4, 3840, Note_on_c, 0, 45, 55
4, 3959, Note_on_c, 0, 45, 0
4, 3960, Note_on_c, 0, 49, 67
4, 3960, Note_on_c, 0, 64, 67
4, 3960, Note_on_c, 0, 55, 55
4, 3960, Note_on_c, 0, 61, 61
4, 3997, Note_on_c, 0, 55, 0
4, 3998, Note_on_c, 0, 64, 0
4, 4001, Note_on_c, 0, 61, 0
4, 4020, Note_on_c, 0, 64, 61
4, 4020, Note_on_c, 0, 55, 47
4, 4020, Note_on_c, 0, 61, 61
4, 4072, Note_on_c, 0, 49, 0
4, 4080, Note_on_c, 0, 52, 55
4, 4168, Note_on_c, 0, 64, 0
4, 4170, Note_on_c, 0, 55, 0
4, 4176, Note_on_c, 0, 61, 0
4, 4190, Note_on_c, 0, 52, 0
4, 4200, Note_on_c, 0, 64, 67
4, 4200, Note_on_c, 0, 61, 67
4, 4200, Note_on_c, 0, 54, 61
4, 4242, Note_on_c, 0, 64, 0
4, 4243, Note_on_c, 0, 54, 0
4, 4243, Note_on_c, 0, 61, 0
4, 4260, Note_on_c, 0, 52, 47
4, 4320, Note_on_c, 0, 45, 55
4, 4332, Note_on_c, 0, 52, 0
4, 4432, Note_on_c, 0, 45, 0
4, 4440, Note_on_c, 0, 64, 61
4, 4440, Note_on_c, 0, 55, 55
4, 4440, Note_on_c, 0, 49, 61
4, 4440, Note_on_c, 0, 61, 61
4, 4470, Note_on_c, 0, 64, 0
4, 4472, Note_on_c, 0, 55, 0
4, 4475, Note_on_c, 0, 61, 0
4, 4500, Note_on_c, 0, 64, 61
4, 4500, Note_on_c, 0, 55, 55
4, 4500, Note_on_c, 0, 61, 61
4, 4554, Note_on_c, 0, 49, 0
4, 4560, Note_on_c, 0, 52, 55
4, 4654, Note_on_c, 0, 64, 0
4, 4655, Note_on_c, 0, 55, 0
4, 4659, Note_on_c, 0, 61, 0
4, 4672, Note_on_c, 0, 52, 0
4, 4680, Note_on_c, 0, 64, 67
4, 4680, Note_on_c, 0, 61, 67
4, 4680, Note_on_c, 0, 54, 61
4, 4740, Note_on_c, 0, 54, 0
4, 4740, Note_on_c, 0, 52, 67
4, 4794, Note_on_c, 0, 61, 0
4, 4797, Note_on_c, 0, 52, 0
4, 4799, Note_on_c, 0, 64, 0
4, 4800, Note_on_c, 0, 40, 47
4, 4902, Note_on_c, 0, 40, 0
4, 4920, Note_on_c, 0, 64, 55
4, 4920, Note_on_c, 0, 59, 55
4, 4920, Note_on_c, 0, 56, 55
4, 4920, Note_on_c, 0, 52, 47
4, 4920, Note_on_c, 0, 44, 55
4, 4950, Note_on_c, 0, 52, 0
4, 4950, Note_on_c, 0, 59, 0
4, 4953, Note_on_c, 0, 56, 0
4, 4958, Note_on_c, 0, 64, 0
4, 4980, Note_on_c, 0, 56, 47
4, 4980, Note_on_c, 0, 52, 61
4, 4980, Note_on_c, 0, 64, 47
4, 4980, Note_on_c, 0, 59, 61
4, 5030, Note_on_c, 0, 44, 0
4, 5040, Note_on_c, 0, 47, 47
4, 5126, Note_on_c, 0, 52, 0
4, 5135, Note_on_c, 0, 64, 0
4, 5135, Note_on_c, 0, 56, 0
4, 5137, Note_on_c, 0, 59, 0
4, 5157, Note_on_c, 0, 47, 0
4, 5160, Note_on_c, 0, 49, 61
4, 5160, Note_on_c, 0, 64, 47
4, 5160, Note_on_c, 0, 56, 47
4, 5160, Note_on_c, 0, 59, 47
4, 5160, Note_on_c, 0, 52, 61
4, 5210, Note_on_c, 0, 59, 0
4, 5211, Note_on_c, 0, 64, 0
4, 5214, Note_on_c, 0, 56, 0
4, 5218, Note_on_c, 0, 49, 0
4, 5218, Note_on_c, 0, 52, 0
4, 5220, Note_on_c, 0, 47, 55
4, 5280, Note_on_c, 0, 40, 55
4, 5287, Note_on_c, 0, 47, 0
4, 5385, Note_on_c, 0, 40, 0
4, 5400, Note_on_c, 0, 44, 67
4, 5400, Note_on_c, 0, 64, 47
4, 5400, Note_on_c, 0, 52, 55
4, 5400, Note_on_c, 0, 56, 55
4, 5400, Note_on_c, 0, 59, 61
4, 5429, Note_on_c, 0, 64, 0
4, 5430, Note_on_c, 0, 52, 0
4, 5433, Note_on_c, 0, 59, 0
4, 5433, Note_on_c, 0, 56, 0
4, 5460, Note_on_c, 0, 64, 47
4, 5460, Note_on_c, 0, 56, 55
4, 5460, Note_on_c, 0, 59, 55
4, 5460, Note_on_c, 0, 52, 55
4, 5513, Note_on_c, 0, 44, 0
4, 5520, Note_on_c, 0, 47, 55
4, 5610, Note_on_c, 0, 64, 0
4, 5614, Note_on_c, 0, 52, 0
4, 5615, Note_on_c, 0, 59, 0
4, 5616, Note_on_c, 0, 56, 0
4, 5629, Note_on_c, 0, 47, 0
4, 5640, Note_on_c, 0, 64, 61
4, 5640, Note_on_c, 0, 59, 61
4, 5640, Note_on_c, 0, 49, 47
4, 5640, Note_on_c, 0, 56, 61
4, 5640, Note_on_c, 0, 52, 55
4, 5700, Note_on_c, 0, 59, 0
4, 5702, Note_on_c, 0, 52, 0
4, 5711, Note_on_c, 0, 56, 0
4, 5715, Note_on_c, 0, 64, 0
4, 5742, Note_on_c, 0, 49, 0
4, 5760, Note_on_c, 0, 66, 67
4, 5760, Note_on_c, 0, 57, 67
4, 5760, Note_on_c, 0, 47, 61
4, 5760, Note_on_c, 0, 63, 67
4, 6194, Note_on_c, 0, 57, 0
4, 6205, Note_on_c, 0, 66, 0
4, 6207, Note_on_c, 0, 47, 0
4, 6211, Note_on_c, 0, 63, 0
4, 6240, Note_on_c, 0, 58, 47
4, 6240, Note_on_c, 0, 48, 67
4, 6240, Note_on_c, 0, 64, 61
4, 6240, Note_on_c, 0, 67, 67
4, 6443, Note_on_c, 0, 67, 0
4, 6450, Note_on_c, 0, 64, 0
4, 6460, Note_on_c, 0, 48, 0
4, 6466, Note_on_c, 0, 58, 0
4, 6480, Note_on_c, 0, 57, 61
4, 6480, Note_on_c, 0, 66, 61
4, 6480, Note_on_c, 0, 63, 67
4, 6480, Note_on_c, 0, 47, 47
4, 6684, Note_on_c, 0, 63, 0
4, 6694, Note_on_c, 0, 66, 0
4, 6709, Note_on_c, 0, 57, 0
4, 6709, Note_on_c, 0, 47, 0
4, 6720, Note_on_c, 0, 40, 47
4, 6828, Note_on_c, 0, 40, 0
4, 6840, Note_on_c, 0, 44, 61
4, 6840, Note_on_c, 0, 64, 47
4, 6840, Note_on_c, 0, 56, 45
4, 6840, Note_on_c, 0, 59, 47
4, 6840, Note_on_c, 0, 52, 55
4, 6871, Note_on_c, 0, 59, 0
4, 6872, Note_on_c, 0, 52, 0
4, 6873, Note_on_c, 0, 56, 0
4, 6877, Note_on_c, 0, 64, 0
4, 6900, Note_on_c, 0, 59, 45
4, 6900, Note_on_c, 0, 56, 45
4, 6900, Note_on_c, 0, 52, 47
4, 6900, Note_on_c, 0, 64, 47
4, 6954, Note_on_c, 0, 44, 0
4, 6960, Note_on_c, 0, 47, 47
4, 6970, Note_on_c, 0, 59, 0
4, 6972, Note_on_c, 0, 56, 0
4, 6976, Note_on_c, 0, 52, 0
4, 6981, Note_on_c, 0, 64, 0
4, 7078, Note_on_c, 0, 47, 0
4, 7080, Note_on_c, 0, 59, 61
4, 7080, Note_on_c, 0, 56, 61
4, 7080, Note_on_c, 0, 64, 61
4, 7080, Note_on_c, 0, 52, 61
4, 7080, Note_on_c, 0, 49, 55
4, 7131, Note_on_c, 0, 52, 0
4, 7132, Note_on_c, 0, 56, 0
4, 7132, Note_on_c, 0, 59, 0
4, 7134, Note_on_c, 0, 64, 0
4, 7140, Note_on_c, 0, 47, 55
4, 7148, Note_on_c, 0, 49, 0
4, 7195, Note_on_c, 0, 47, 0
4, 7200, Note_on_c, 0, 40, 67
4, 7317, Note_on_c, 0, 40, 0
4, 7320, Note_on_c, 0, 44, 67
4, 7320, Note_on_c, 0, 64, 55
4, 7320, Note_on_c, 0, 56, 55
4, 7320, Note_on_c, 0, 59, 61
4, 7320, Note_on_c, 0, 52, 55
4, 7349, Note_on_c, 0, 59, 0
4, 7351, Note_on_c, 0, 56, 0
4, 7351, Note_on_c, 0, 64, 0
4, 7352, Note_on_c, 0, 52, 0
4, 7380, Note_on_c, 0, 64, 55
4, 7380, Note_on_c, 0, 59, 61
4, 7380, Note_on_c, 0, 56, 47
4, 7380, Note_on_c, 0, 52, 55
4, 7440, Note_on_c, 0, 47, 55
4, 7441, Note_on_c, 0, 44, 0
4, 7522, Note_on_c, 0, 64, 0
4, 7529, Note_on_c, 0, 52, 0
4, 7533, Note_on_c, 0, 59, 0
4, 7535, Note_on_c, 0, 56, 0
4, 7540, Note_on_c, 0, 47, 0
4, 7560, Note_on_c, 0, 64, 55
4, 7560, Note_on_c, 0, 56, 47
4, 7560, Note_on_c, 0, 59, 55
4, 7560, Note_on_c, 0, 49, 55
4, 7560, Note_on_c, 0, 52, 61
4, 7617, Note_on_c, 0, 59, 0
4, 7618, Note_on_c, 0, 56, 0
4, 7620, Note_on_c, 0, 47, 47
4, 7622, Note_on_c, 0, 64, 0
4, 7622, Note_on_c, 0, 52, 0
4, 7622, Note_on_c, 0, 49, 0
4, 7677, Note_on_c, 0, 47, 0
4, 7680, Note_on_c, 0, 52, 67
4, 7777, Note_on_c, 0, 52, 0
4, 7800, Note_on_c, 0, 64, 61
4, 7800, Note_on_c, 0, 59, 61
4, 7800, Note_on_c, 0, 62, 67
4, 7846, Note_on_c, 0, 62, 0
4, 7846, Note_on_c, 0, 64, 0
4, 7847, Note_on_c, 0, 59, 0
4, 7860, Note_on_c, 0, 64, 76
4, 7860, Note_on_c, 0, 62, 76
4, 7860, Note_on_c, 0, 59, 55
4, 7976, Note_on_c, 0, 64, 0
4, 7978, Note_on_c, 0, 62, 0
4, 7980, Note_on_c, 0, 52, 67
4, 7986, Note_on_c, 0, 59, 0
4, 8033, Note_on_c, 0, 52, 0
4, 8040, Note_on_c, 0, 64, 67
4, 8040, Note_on_c, 0, 61, 61
4, 8040, Note_on_c, 0, 57, 67
4, 8079, Note_on_c, 0, 57, 0
4, 8080, Note_on_c, 0, 61, 0
4, 8087, Note_on_c, 0, 64, 0
4, 8100, Note_on_c, 0, 59, 67
4, 8100, Note_on_c, 0, 56, 61
4, 8100, Note_on_c, 0, 64, 55
4, 8155, Note_on_c, 0, 59, 0
4, 8159, Note_on_c, 0, 56, 0
4, 8160, Note_on_c, 0, 52, 67
4, 8164, Note_on_c, 0, 64, 0
4, 8256, Note_on_c, 0, 52, 0
4, 8280, Note_on_c, 0, 64, 61
4, 8280, Note_on_c, 0, 59, 67
4, 8280, Note_on_c, 0, 62, 67
4, 8322, Note_on_c, 0, 64, 0
4, 8324, Note_on_c, 0, 62, 0
4, 8324, Note_on_c, 0, 59, 0
4, 8340, Note_on_c, 0, 64, 61
4, 8340, Note_on_c, 0, 59, 61
4, 8340, Note_on_c, 0, 62, 67
4, 8448, Note_on_c, 0, 62, 0
4, 8449, Note_on_c, 0, 64, 0
4, 8452, Note_on_c, 0, 59, 0
4, 8460, Note_on_c, 0, 52, 47
4, 8515, Note_on_c, 0, 52, 0
4, 8520, Note_on_c, 0, 64, 61
4, 8520, Note_on_c, 0, 57, 61
4, 8520, Note_on_c, 0, 61, 67
4, 8558, Note_on_c, 0, 57, 0
4, 8559, Note_on_c, 0, 61, 0
4, 8563, Note_on_c, 0, 64, 0
4, 8580, Note_on_c, 0, 59, 67
4, 8580, Note_on_c, 0, 64, 55
4, 8580, Note_on_c, 0, 56, 61
4, 8635, Note_on_c, 0, 59, 0
4, 8640, Note_on_c, 0, 52, 67
4, 8642, Note_on_c, 0, 56, 0
4, 8644, Note_on_c, 0, 64, 0
4, 8738, Note_on_c, 0, 52, 0
4, 8760, Note_on_c, 0, 64, 67
4, 8760, Note_on_c, 0, 59, 67
4, 8760, Note_on_c, 0, 62, 67
4, 8797, Note_on_c, 0, 59, 0
4, 8798, Note_on_c, 0, 62, 0
4, 8798, Note_on_c, 0, 64, 0
4, 8820, Note_on_c, 0, 64, 61
4, 8820, Note_on_c, 0, 62, 61
4, 8820, Note_on_c, 0, 59, 67
4, 8930, Note_on_c, 0, 62, 0
4, 8933, Note_on_c, 0, 64, 0
4, 8938, Note_on_c, 0, 59, 0
4, 8940, Note_on_c, 0, 52, 61
4, 8991, Note_on_c, 0, 52, 0
4, 9000, Note_on_c, 0, 64, 67
4, 9000, Note_on_c, 0, 61, 61
4, 9000, Note_on_c, 0, 57, 61
4, 9034, Note_on_c, 0, 61, 0
4, 9035, Note_on_c, 0, 57, 0
4, 9038, Note_on_c, 0, 64, 0
4, 9060, Note_on_c, 0, 59, 61
4, 9060, Note_on_c, 0, 64, 67
4, 9060, Note_on_c, 0, 56, 61
4, 9106, Note_on_c, 0, 59, 0
4, 9118, Note_on_c, 0, 56, 0
4, 9118, Note_on_c, 0, 64, 0
4, 9120, Note_on_c, 0, 52, 67
4, 9226, Note_on_c, 0, 52, 0
4, 9240, Note_on_c, 0, 64, 61
4, 9240, Note_on_c, 0, 59, 67
4, 9240, Note_on_c, 0, 62, 67
4, 9275, Note_on_c, 0, 62, 0
4, 9275, Note_on_c, 0, 59, 0
4, 9275, Note_on_c, 0, 64, 0
4, 9300, Note_on_c, 0, 64, 61
4, 9300, Note_on_c, 0, 59, 61
4, 9300, Note_on_c, 0, 62, 61
4, 9410, Note_on_c, 0, 64, 0
4, 9411, Note_on_c, 0, 62, 0
4, 9418, Note_on_c, 0, 59, 0
4, 9420, Note_on_c, 0, 52, 61
4, 9470, Note_on_c, 0, 52, 0
4, 9480, Note_on_c, 0, 64, 61
4, 9480, Note_on_c, 0, 57, 55
4, 9480, Note_on_c, 0, 61, 67
4, 9514, Note_on_c, 0, 64, 0
4, 9517, Note_on_c, 0, 61, 0
4, 9519, Note_on_c, 0, 57, 0
4, 9540, Note_on_c, 0, 59, 67
4, 9540, Note_on_c, 0, 64, 61
4, 9540, Note_on_c, 0, 56, 61
4, 9589, Note_on_c, 0, 59, 0
4, 9595, Note_on_c, 0, 64, 0
4, 9597, Note_on_c, 0, 56, 0
4, 9600, Note_on_c, 0, 52, 55
4, 9697, Note_on_c, 0, 52, 0
4, 9720, Note_on_c, 0, 64, 61
4, 9720, Note_on_c, 0, 59, 67
4, 9720, Note_on_c, 0, 62, 76
4, 9756, Note_on_c, 0, 62, 0
4, 9756, Note_on_c, 0, 64, 0
4, 9758, Note_on_c, 0, 59, 0
4, 9780, Note_on_c, 0, 64, 55
4, 9780, Note_on_c, 0, 59, 61
4, 9780, Note_on_c, 0, 62, 61
4, 9889, Note_on_c, 0, 62, 0
4, 9889, Note_on_c, 0, 64, 0
4, 9893, Note_on_c, 0, 59, 0
4, 9900, Note_on_c, 0, 52, 67
4, 9947, Note_on_c, 0, 52, 0
4, 9960, Note_on_c, 0, 64, 61
4, 9960, Note_on_c, 0, 57, 67
4, 9960, Note_on_c, 0, 61, 67
4, 9992, Note_on_c, 0, 57, 0
4, 9995, Note_on_c, 0, 64, 0
4, 9996, Note_on_c, 0, 61, 0
4, 10020, Note_on_c, 0, 59, 67
4, 10020, Note_on_c, 0, 56, 61
4, 10020, Note_on_c, 0, 64, 67
4, 10073, Note_on_c, 0, 59, 0
4, 10077, Note_on_c, 0, 56, 0
4, 10078, Note_on_c, 0, 64, 0
4, 10080, Note_on_c, 0, 52, 67
4, 10175, Note_on_c, 0, 52, 0
4, 10200, Note_on_c, 0, 64, 61
4, 10200, Note_on_c, 0, 59, 76
4, 10200, Note_on_c, 0, 62, 67
4, 10233, Note_on_c, 0, 62, 0
4, 10235, Note_on_c, 0, 59, 0
4, 10235, Note_on_c, 0, 64, 0
4, 10260, Note_on_c, 0, 64, 67
4, 10260, Note_on_c, 0, 59, 61
4, 10260, Note_on_c, 0, 62, 61
4, 10371, Note_on_c, 0, 62, 0
4, 10373, Note_on_c, 0, 64, 0
4, 10375, Note_on_c, 0, 59, 0
4, 10380, Note_on_c, 0, 52, 67
4, 10427, Note_on_c, 0, 52, 0
4, 10440, Note_on_c, 0, 64, 67
4, 10440, Note_on_c, 0, 57, 76
4, 10440, Note_on_c, 0, 61, 67
4, 10512, Note_on_c, 0, 64, 0
4, 10516, Note_on_c, 0, 61, 0
4, 10518, Note_on_c, 0, 57, 0
4, 10560, Note_on_c, 0, 59, 67
4, 10560, Note_on_c, 0, 64, 76
4, 10560, Note_on_c, 0, 56, 67
4, 10560, Note_on_c, 0, 52, 67
4, 10605, Note_on_c, 0, 59, 0
4, 10610, Note_on_c, 0, 64, 0
4, 10613, Note_on_c, 0, 56, 0
4, 10613, Note_on_c, 0, 52, 0
4, 11100, Note_on_c, 0, 56, 67
4, 11100, Note_on_c, 0, 64, 61
4, 11100, Note_on_c, 0, 59, 67
4, 11150, Note_on_c, 0, 59, 0
4, 11150, Note_on_c, 0, 64, 0
4, 11150, Note_on_c, 0, 56, 0
4, 11160, Note_on_c, 0, 64, 47
4, 11160, Note_on_c, 0, 56, 61
4, 11160, Note_on_c, 0, 59, 67
4, 11210, Note_on_c, 0, 59, 0
4, 11210, Note_on_c, 0, 56, 0
4, 11210, Note_on_c, 0, 64, 0
4, 11220, Note_on_c, 0, 56, 55
4, 11220, Note_on_c, 0, 64, 55
4, 11220, Note_on_c, 0, 59, 61
4, 11270, Note_on_c, 0, 59, 0
4, 11270, Note_on_c, 0, 64, 0
4, 11270, Note_on_c, 0, 56, 0
4, 11280, Note_on_c, 0, 56, 67
4, 11280, Note_on_c, 0, 64, 61
4, 11280, Note_on_c, 0, 59, 61
4, 11330, Note_on_c, 0, 59, 0
4, 11330, Note_on_c, 0, 64, 0
4, 11330, Note_on_c, 0, 56, 0
4, 11340, Note_on_c, 0, 56, 55
4, 11340, Note_on_c, 0, 64, 55
4, 11340, Note_on_c, 0, 59, 67
4, 11390, Note_on_c, 0, 59, 0
4, 11390, Note_on_c, 0, 64, 0
4, 11390, Note_on_c, 0, 56, 0
4, 11400, Note_on_c, 0, 56, 61
4, 11400, Note_on_c, 0, 59, 61
4, 11400, Note_on_c, 0, 64, 55
4, 11450, Note_on_c, 0, 64, 0
4, 11450, Note_on_c, 0, 59, 0
4, 11450, Note_on_c, 0, 56, 0
4, 11460, Note_on_c, 0, 59, 61
4, 11460, Note_on_c, 0, 56, 45
4, 11460, Note_on_c, 0, 64, 47
4, 11510, Note_on_c, 0, 64, 0
4, 11510, Note_on_c, 0, 56, 0
4, 11510, Note_on_c, 0, 59, 0
4, 11525, Note_on_c, 0, 56, 67
4, 11525, Note_on_c, 0, 59, 61
4, 11525, Note_on_c, 0, 64, 61
4, 11575, Note_on_c, 0, 64, 0
4, 11575, Note_on_c, 0, 59, 0
4, 11575, Note_on_c, 0, 56, 0
4, 12000, Note_on_c, 0, 40, 67
4, 12117, Note_on_c, 0, 40, 0
4, 12120, Note_on_c, 0, 44, 67
4, 12120, Note_on_c, 0, 64, 55
4, 12120, Note_on_c, 0, 56, 55
4, 12120, Note_on_c, 0, 59, 61
4, 12120, Note_on_c, 0, 52, 55
4, 12149, Note_on_c, 0, 59, 0
4, 12151, Note_on_c, 0, 56, 0
4, 12151, Note_on_c, 0, 64, 0
4, 12152, Note_on_c, 0, 52, 0
4, 12180, Note_on_c, 0, 64, 55
4, 12180, Note_on_c, 0, 59, 61
4, 12180, Note_on_c, 0, 56, 47
4, 12180, Note_on_c, 0, 52, 55
4, 12240, Note_on_c, 0, 47, 55
4, 12241, Note_on_c, 0, 44, 0
4, 12322, Note_on_c, 0, 64, 0
4, 12329, Note_on_c, 0, 52, 0
4, 12333, Note_on_c, 0, 59, 0
4, 12335, Note_on_c, 0, 56, 0
4, 12340, Note_on_c, 0, 47, 0
4, 12360, Note_on_c, 0, 64, 55
4, 12360, Note_on_c, 0, 56, 47
4, 12360, Note_on_c, 0, 59, 55
4, 12360, Note_on_c, 0, 49, 55
4, 12360, Note_on_c, 0, 52, 61
4, 12417, Note_on_c, 0, 59, 0
4, 12418, Note_on_c, 0, 56, 0
4, 12420, Note_on_c, 0, 47, 47
4, 12422, Note_on_c, 0, 64, 0
4, 12422, Note_on_c, 0, 52, 0
4, 12422, Note_on_c, 0, 49, 0
4, 12477, Note_on_c, 0, 47, 0
4, 12480, Note_on_c, 0, 40, 55
4, 12592, Note_on_c, 0, 40, 0
4, 12600, Note_on_c, 0, 64, 47
4, 12600, Note_on_c, 0, 44, 61
4, 12600, Note_on_c, 0, 56, 67
4, 12600, Note_on_c, 0, 59, 61
4, 12600, Note_on_c, 0, 52, 61
4, 12627, Note_on_c, 0, 59, 0
4, 12628, Note_on_c, 0, 56, 0
4, 12629, Note_on_c, 0, 52, 0
4, 12632, Note_on_c, 0, 64, 0
4, 12660, Note_on_c, 0, 64, 47
4, 12660, Note_on_c, 0, 56, 61
4, 12660, Note_on_c, 0, 52, 55
4, 12660, Note_on_c, 0, 59, 61
4, 12717, Note_on_c, 0, 44, 0
4, 12720, Note_on_c, 0, 47, 47
4, 12817, Note_on_c, 0, 52, 0
4, 12818, Note_on_c, 0, 64, 0
4, 12822, Note_on_c, 0, 56, 0
4, 12823, Note_on_c, 0, 59, 0
4, 12834, Note_on_c, 0, 47, 0
4, 12840, Note_on_c, 0, 49, 47
4, 12840, Note_on_c, 0, 59, 61
4, 12840, Note_on_c, 0, 64, 55
4, 12840, Note_on_c, 0, 56, 47
4, 12840, Note_on_c, 0, 52, 61
4, 12894, Note_on_c, 0, 59, 0
4, 12900, Note_on_c, 0, 47, 47
4, 12901, Note_on_c, 0, 56, 0
4, 12902, Note_on_c, 0, 52, 0
4, 12902, Note_on_c, 0, 49, 0
4, 12903, Note_on_c, 0, 64, 0
4, 12960, Note_on_c, 0, 40, 47
4, 12962, Note_on_c, 0, 47, 0
4, 13074, Note_on_c, 0, 40, 0
4, 13080, Note_on_c, 0, 56, 61
4, 13080, Note_on_c, 0, 59, 61
4, 13080, Note_on_c, 0, 64, 47
4, 13080, Note_on_c, 0, 52, 55
4, 13080, Note_on_c, 0, 44, 67
4, 13106, Note_on_c, 0, 59, 0
4, 13110, Note_on_c, 0, 52, 0
4, 13110, Note_on_c, 0, 56, 0
4, 13112, Note_on_c, 0, 64, 0
4, 13140, Note_on_c, 0, 64, 47
4, 13140, Note_on_c, 0, 59, 55
4, 13140, Note_on_c, 0, 56, 55
4, 13140, Note_on_c, 0, 52, 55
4, 13199, Note_on_c, 0, 44, 0
4, 13200, Note_on_c, 0, 47, 55
4, 13290, Note_on_c, 0, 56, 0
4, 13290, Note_on_c, 0, 52, 0
4, 13290, Note_on_c, 0, 64, 0
4, 13290, Note_on_c, 0, 59, 0
4, 13312, Note_on_c, 0, 47, 0
4, 13320, Note_on_c, 0, 49, 67
4, 13320, Note_on_c, 0, 59, 47
4, 13320, Note_on_c, 0, 52, 61
4, 13320, Note_on_c, 0, 64, 55
4, 13320, Note_on_c, 0, 56, 55
4, 13364, Note_on_c, 0, 59, 0
4, 13365, Note_on_c, 0, 52, 0
4, 13367, Note_on_c, 0, 64, 0
4, 13369, Note_on_c, 0, 56, 0
4, 13372, Note_on_c, 0, 49, 0
4, 13380, Note_on_c, 0, 47, 37
4, 13440, Note_on_c, 0, 40, 55
4, 13450, Note_on_c, 0, 47, 0
4, 13544, Note_on_c, 0, 40, 0
4, 13560, Note_on_c, 0, 56, 61
4, 13560, Note_on_c, 0, 52, 55
4, 13560, Note_on_c, 0, 59, 61
4, 13560, Note_on_c, 0, 64, 55
4, 13560, Note_on_c, 0, 44, 61
4, 13585, Note_on_c, 0, 52, 0
4, 13587, Note_on_c, 0, 56, 0
4, 13587, Note_on_c, 0, 59, 0
4, 13595, Note_on_c, 0, 64, 0
4, 13620, Note_on_c, 0, 59, 55
4, 13620, Note_on_c, 0, 64, 47
4, 13620, Note_on_c, 0, 56, 55
4, 13620, Note_on_c, 0, 52, 55
4, 13679, Note_on_c, 0, 44, 0
4, 13680, Note_on_c, 0, 47, 45
4, 13763, Note_on_c, 0, 52, 0
4, 13766, Note_on_c, 0, 59, 0
4, 13766, Note_on_c, 0, 64, 0
4, 13771, Note_on_c, 0, 56, 0
4, 13782, Note_on_c, 0, 47, 0
4, 13800, Note_on_c, 0, 56, 48
4, 13800, Note_on_c, 0, 52, 62
4, 13800, Note_on_c, 0, 64, 48
4, 13800, Note_on_c, 0, 59, 55
4, 13800, Note_on_c, 0, 49, 48
4, 13843, Note_on_c, 0, 52, 0
4, 13846, Note_on_c, 0, 59, 0
4, 13849, Note_on_c, 0, 56, 0
4, 13855, Note_on_c, 0, 64, 0
4, 13860, Note_on_c, 0, 47, 45
4, 13863, Note_on_c, 0, 49, 0
4, 13908, Note_on_c, 0, 47, 0
4, 13920, Note_on_c, 0, 45, 55
4, 14039, Note_on_c, 0, 45, 0
4, 14040, Note_on_c, 0, 49, 68
4, 14040, Note_on_c, 0, 64, 68
4, 14040, Note_on_c, 0, 55, 55
4, 14040, Note_on_c, 0, 61, 62
4, 14077, Note_on_c, 0, 55, 0
4, 14078, Note_on_c, 0, 64, 0
4, 14081, Note_on_c, 0, 61, 0
4, 14100, Note_on_c, 0, 64, 62
4, 14100, Note_on_c, 0, 55, 48
4, 14100, Note_on_c, 0, 61, 62
4, 14152, Note_on_c, 0, 49, 0
4, 14160, Note_on_c, 0, 52, 55
4, 14248, Note_on_c, 0, 64, 0
4, 14250, Note_on_c, 0, 55, 0
4, 14256, Note_on_c, 0, 61, 0
4, 14270, Note_on_c, 0, 52, 0
4, 14280, Note_on_c, 0, 64, 68
4, 14280, Note_on_c, 0, 61, 68
4, 14280, Note_on_c, 0, 54, 62
4, 14322, Note_on_c, 0, 64, 0
4, 14323, Note_on_c, 0, 54, 0
4, 14323, Note_on_c, 0, 61, 0
4, 14340, Note_on_c, 0, 52, 48
4, 14400, Note_on_c, 0, 45, 55
4, 14412, Note_on_c, 0, 52, 0
4, 14512, Note_on_c, 0, 45, 0
4, 14520, Note_on_c, 0, 64, 62
4, 14520, Note_on_c, 0, 55, 55
4, 14520, Note_on_c, 0, 49, 62
4, 14520, Note_on_c, 0, 61, 62
4, 14550, Note_on_c, 0, 64, 0
4, 14552, Note_on_c, 0, 55, 0
4, 14555, Note_on_c, 0, 61, 0
4, 14580, Note_on_c, 0, 64, 62
4, 14580, Note_on_c, 0, 55, 55
4, 14580, Note_on_c, 0, 61, 62
4, 14634, Note_on_c, 0, 49, 0
4, 14640, Note_on_c, 0, 52, 55
4, 14734, Note_on_c, 0, 64, 0
4, 14735, Note_on_c, 0, 55, 0
4, 14739, Note_on_c, 0, 61, 0
4, 14752, Note_on_c, 0, 52, 0
4, 14760, Note_on_c, 0, 64, 68
4, 14760, Note_on_c, 0, 61, 68
4, 14760, Note_on_c, 0, 54, 62
4, 14820, Note_on_c, 0, 54, 0
4, 14820, Note_on_c, 0, 52, 67
4, 14874, Note_on_c, 0, 61, 0
4, 14877, Note_on_c, 0, 52, 0
4, 14879, Note_on_c, 0, 64, 0
4, 14880, Note_on_c, 0, 40, 48
4, 14982, Note_on_c, 0, 40, 0
4, 15000, Note_on_c, 0, 64, 55
4, 15000, Note_on_c, 0, 59, 55
4, 15000, Note_on_c, 0, 56, 55
4, 15000, Note_on_c, 0, 52, 48
4, 15000, Note_on_c, 0, 44, 55
4, 15030, Note_on_c, 0, 52, 0
4, 15030, Note_on_c, 0, 59, 0
4, 15033, Note_on_c, 0, 56, 0
4, 15038, Note_on_c, 0, 64, 0
4, 15060, Note_on_c, 0, 56, 48
4, 15060, Note_on_c, 0, 52, 62
4, 15060, Note_on_c, 0, 64, 48
4, 15060, Note_on_c, 0, 59, 62
4, 15110, Note_on_c, 0, 44, 0
4, 15120, Note_on_c, 0, 47, 48
4, 15206, Note_on_c, 0, 52, 0
4, 15215, Note_on_c, 0, 64, 0
4, 15215, Note_on_c, 0, 56, 0
4, 15217, Note_on_c, 0, 59, 0
4, 15237, Note_on_c, 0, 47, 0
4, 15240, Note_on_c, 0, 49, 62
4, 15240, Note_on_c, 0, 64, 48
4, 15240, Note_on_c, 0, 56, 48
4, 15240, Note_on_c, 0, 59, 48
4, 15240, Note_on_c, 0, 52, 62
4, 15290, Note_on_c, 0, 59, 0
4, 15291, Note_on_c, 0, 64, 0
4, 15294, Note_on_c, 0, 56, 0
4, 15298, Note_on_c, 0, 49, 0
4, 15298, Note_on_c, 0, 52, 0
4, 15300, Note_on_c, 0, 47, 55
4, 15360, Note_on_c, 0, 40, 55
4, 15367, Note_on_c, 0, 47, 0
4, 15465, Note_on_c, 0, 40, 0
4, 15480, Note_on_c, 0, 44, 68
4, 15480, Note_on_c, 0, 64, 48
4, 15480, Note_on_c, 0, 52, 55
4, 15480, Note_on_c, 0, 56, 55
4, 15480, Note_on_c, 0, 59, 62
4, 15509, Note_on_c, 0, 64, 0
4, 15510, Note_on_c, 0, 52, 0
4, 15513, Note_on_c, 0, 59, 0
4, 15513, Note_on_c, 0, 56, 0
4, 15540, Note_on_c, 0, 64, 48
4, 15540, Note_on_c, 0, 56, 55
4, 15540, Note_on_c, 0, 59, 55
4, 15540, Note_on_c, 0, 52, 55
4, 15593, Note_on_c, 0, 44, 0
4, 15600, Note_on_c, 0, 47, 55
4, 15690, Note_on_c, 0, 64, 0
4, 15694, Note_on_c, 0, 52, 0
4, 15695, Note_on_c, 0, 59, 0
4, 15696, Note_on_c, 0, 56, 0
4, 15709, Note_on_c, 0, 47, 0
4, 15720, Note_on_c, 0, 64, 62
4, 15720, Note_on_c, 0, 59, 62
4, 15720, Note_on_c, 0, 49, 48
4, 15720, Note_on_c, 0, 56, 62
4, 15720, Note_on_c, 0, 52, 55
4, 15780, Note_on_c, 0, 59, 0
4, 15782, Note_on_c, 0, 52, 0
4, 15791, Note_on_c, 0, 56, 0
4, 15795, Note_on_c, 0, 64, 0
4, 15822, Note_on_c, 0, 49, 0
4, 15840, Note_on_c, 0, 66, 68
4, 15840, Note_on_c, 0, 57, 68
4, 15840, Note_on_c, 0, 47, 62
4, 15840, Note_on_c, 0, 63, 68
4, 16274, Note_on_c, 0, 57, 0
4, 16285, Note_on_c, 0, 66, 0
4, 16287, Note_on_c, 0, 47, 0
4, 16291, Note_on_c, 0, 63, 0
4, 16320, Note_on_c, 0, 58, 48
4, 16320, Note_on_c, 0, 48, 68
4, 16320, Note_on_c, 0, 64, 62
4, 16320, Note_on_c, 0, 67, 68
4, 16523, Note_on_c, 0, 67, 0
4, 16530, Note_on_c, 0, 64, 0
4, 16540, Note_on_c, 0, 48, 0
4, 16546, Note_on_c, 0, 58, 0
4, 16560, Note_on_c, 0, 57, 62
4, 16560, Note_on_c, 0, 66, 62
4, 16560, Note_on_c, 0, 63, 68
4, 16560, Note_on_c, 0, 47, 48
4, 16764, Note_on_c, 0, 63, 0
4, 16774, Note_on_c, 0, 66, 0
4, 16789, Note_on_c, 0, 57, 0
4, 16789, Note_on_c, 0, 47, 0
4, 16800, Note_on_c, 0, 40, 48
4, 16908, Note_on_c, 0, 40, 0
4, 16920, Note_on_c, 0, 44, 62
4, 16920, Note_on_c, 0, 64, 48
4, 16920, Note_on_c, 0, 56, 45
4, 16920, Note_on_c, 0, 59, 48
4, 16920, Note_on_c, 0, 52, 55
4, 16951, Note_on_c, 0, 59, 0
4, 16952, Note_on_c, 0, 52, 0
4, 16953, Note_on_c, 0, 56, 0
4, 16957, Note_on_c, 0, 64, 0
4, 16980, Note_on_c, 0, 59, 45
4, 16980, Note_on_c, 0, 56, 45
4, 16980, Note_on_c, 0, 52, 48
4, 16980, Note_on_c, 0, 64, 48
4, 17034, Note_on_c, 0, 44, 0
4, 17040, Note_on_c, 0, 47, 48
4, 17050, Note_on_c, 0, 59, 0
4, 17052, Note_on_c, 0, 56, 0
4, 17056, Note_on_c, 0, 52, 0
4, 17061, Note_on_c, 0, 64, 0
4, 17158, Note_on_c, 0, 47, 0
4, 17160, Note_on_c, 0, 59, 62
4, 17160, Note_on_c, 0, 56, 62
4, 17160, Note_on_c, 0, 64, 62
4, 17160, Note_on_c, 0, 52, 62
4, 17160, Note_on_c, 0, 49, 55
4, 17211, Note_on_c, 0, 52, 0
4, 17212, Note_on_c, 0, 56, 0
4, 17212, Note_on_c, 0, 59, 0
4, 17214, Note_on_c, 0, 64, 0
4, 17220, Note_on_c, 0, 47, 55
4, 17228, Note_on_c, 0, 49, 0
4, 17275, Note_on_c, 0, 47, 0
4, 17280, Note_on_c, 0, 40, 68
4, 17397, Note_on_c, 0, 40, 0
4, 17400, Note_on_c, 0, 44, 68
4, 17400, Note_on_c, 0, 64, 55
4, 17400, Note_on_c, 0, 56, 55
4, 17400, Note_on_c, 0, 59, 62
4, 17400, Note_on_c, 0, 52, 55
4, 17429, Note_on_c, 0, 59, 0
4, 17431, Note_on_c, 0, 56, 0
4, 17431, Note_on_c, 0, 64, 0
4, 17432, Note_on_c, 0, 52, 0
4, 17460, Note_on_c, 0, 64, 55
4, 17460, Note_on_c, 0, 59, 62
4, 17460, Note_on_c, 0, 56, 48
4, 17460, Note_on_c, 0, 52, 55
4, 17520, Note_on_c, 0, 47, 55
4, 17521, Note_on_c, 0, 44, 0
4, 17602, Note_on_c, 0, 64, 0
4, 17609, Note_on_c, 0, 52, 0
4, 17613, Note_on_c, 0, 59, 0
4, 17615, Note_on_c, 0, 56, 0
4, 17620, Note_on_c, 0, 47, 0
4, 17640, Note_on_c, 0, 64, 55
4, 17640, Note_on_c, 0, 56, 48
4, 17640, Note_on_c, 0, 59, 55
4, 17640, Note_on_c, 0, 49, 55
4, 17640, Note_on_c, 0, 52, 62
4, 17697, Note_on_c, 0, 59, 0
4, 17698, Note_on_c, 0, 56, 0
4, 17700, Note_on_c, 0, 47, 48
4, 17702, Note_on_c, 0, 64, 0
4, 17702, Note_on_c, 0, 52, 0
4, 17702, Note_on_c, 0, 49, 0
4, 17757, Note_on_c, 0, 47, 0
4, 17760, Note_on_c, 0, 40, 68
4, 17877, Note_on_c, 0, 40, 0
4, 17880, Note_on_c, 0, 44, 68
4, 17880, Note_on_c, 0, 64, 55
4, 17880, Note_on_c, 0, 56, 55
4, 17880, Note_on_c, 0, 59, 62
4, 17880, Note_on_c, 0, 52, 55
4, 17909, Note_on_c, 0, 59, 0
4, 17911, Note_on_c, 0, 56, 0
4, 17911, Note_on_c, 0, 64, 0
4, 17912, Note_on_c, 0, 52, 0
4, 17940, Note_on_c, 0, 64, 55
4, 17940, Note_on_c, 0, 59, 62
4, 17940, Note_on_c, 0, 56, 48
4, 17940, Note_on_c, 0, 52, 55
4, 18000, Note_on_c, 0, 47, 55
4, 18001, Note_on_c, 0, 44, 0
4, 18082, Note_on_c, 0, 64, 0
4, 18089, Note_on_c, 0, 52, 0
4, 18093, Note_on_c, 0, 59, 0
4, 18095, Note_on_c, 0, 56, 0
4, 18100, Note_on_c, 0, 47, 0
4, 18120, Note_on_c, 0, 64, 55
4, 18120, Note_on_c, 0, 56, 48
4, 18120, Note_on_c, 0, 59, 55
4, 18120, Note_on_c, 0, 49, 55
4, 18120, Note_on_c, 0, 52, 62
4, 18177, Note_on_c, 0, 59, 0
4, 18178, Note_on_c, 0, 56, 0
4, 18180, Note_on_c, 0, 47, 48
4, 18182, Note_on_c, 0, 64, 0
4, 18182, Note_on_c, 0, 52, 0
4, 18182, Note_on_c, 0, 49, 0
4, 18237, Note_on_c, 0, 47, 0
4, 18240, Note_on_c, 0, 40, 55
4, 18352, Note_on_c, 0, 40, 0
4, 18360, Note_on_c, 0, 64, 48
4, 18360, Note_on_c, 0, 44, 62
4, 18360, Note_on_c, 0, 56, 68
4, 18360, Note_on_c, 0, 59, 62
4, 18360, Note_on_c, 0, 52, 62
4, 18387, Note_on_c, 0, 59, 0
4, 18388, Note_on_c, 0, 56, 0
4, 18389, Note_on_c, 0, 52, 0
4, 18392, Note_on_c, 0, 64, 0
4, 18420, Note_on_c, 0, 64, 48
4, 18420, Note_on_c, 0, 56, 62
4, 18420, Note_on_c, 0, 52, 55
4, 18420, Note_on_c, 0, 59, 62
4, 18477, Note_on_c, 0, 44, 0
4, 18480, Note_on_c, 0, 47, 48
4, 18577, Note_on_c, 0, 52, 0
4, 18578, Note_on_c, 0, 64, 0
4, 18582, Note_on_c, 0, 56, 0
4, 18583, Note_on_c, 0, 59, 0
4, 18594, Note_on_c, 0, 47, 0
4, 18600, Note_on_c, 0, 49, 48
4, 18600, Note_on_c, 0, 59, 62
4, 18600, Note_on_c, 0, 64, 55
4, 18600, Note_on_c, 0, 56, 48
4, 18600, Note_on_c, 0, 52, 62
4, 18654, Note_on_c, 0, 59, 0
4, 18660, Note_on_c, 0, 47, 48
4, 18661, Note_on_c, 0, 56, 0
4, 18662, Note_on_c, 0, 52, 0
4, 18662, Note_on_c, 0, 49, 0
4, 18663, Note_on_c, 0, 64, 0
4, 18720, Note_on_c, 0, 40, 48
4, 18722, Note_on_c, 0, 47, 0
4, 18834, Note_on_c, 0, 40, 0
4, 18840, Note_on_c, 0, 56, 62
4, 18840, Note_on_c, 0, 59, 62
4, 18840, Note_on_c, 0, 64, 48
4, 18840, Note_on_c, 0, 52, 55
4, 18840, Note_on_c, 0, 44, 68
4, 18866, Note_on_c, 0, 59, 0
4, 18870, Note_on_c, 0, 52, 0
4, 18870, Note_on_c, 0, 56, 0
4, 18872, Note_on_c, 0, 64, 0
4, 18900, Note_on_c, 0, 64, 48
4, 18900, Note_on_c, 0, 59, 55
4, 18900, Note_on_c, 0, 56, 55
4, 18900, Note_on_c, 0, 52, 55
4, 18959, Note_on_c, 0, 44, 0
4, 18960, Note_on_c, 0, 47, 55
4, 19050, Note_on_c, 0, 56, 0
4, 19050, Note_on_c, 0, 52, 0
4, 19050, Note_on_c, 0, 64, 0
4, 19050, Note_on_c, 0, 59, 0
4, 19072, Note_on_c, 0, 47, 0
4, 19080, Note_on_c, 0, 49, 68
4, 19080, Note_on_c, 0, 59, 48
4, 19080, Note_on_c, 0, 52, 62
4, 19080, Note_on_c, 0, 64, 55
4, 19080, Note_on_c, 0, 56, 55
4, 19124, Note_on_c, 0, 59, 0
4, 19125, Note_on_c, 0, 52, 0
4, 19127, Note_on_c, 0, 64, 0
4, 19129, Note_on_c, 0, 56, 0
4, 19132, Note_on_c, 0, 49, 0
4, 19140, Note_on_c, 0, 47, 38
4, 19200, Note_on_c, 0, 40, 55
4, 19210, Note_on_c, 0, 47, 0
4, 19304, Note_on_c, 0, 40, 0
4, 19320, Note_on_c, 0, 56, 62
4, 19320, Note_on_c, 0, 52, 55
4, 19320, Note_on_c, 0, 59, 62
4, 19320, Note_on_c, 0, 64, 55
4, 19320, Note_on_c, 0, 44, 62
4, 19345, Note_on_c, 0, 52, 0
4, 19347, Note_on_c, 0, 56, 0
4, 19347, Note_on_c, 0, 59, 0
4, 19355, Note_on_c, 0, 64, 0
4, 19380, Note_on_c, 0, 59, 55
4, 19380, Note_on_c, 0, 64, 48
4, 19380, Note_on_c, 0, 56, 55
4, 19380, Note_on_c, 0, 52, 55
4, 19439, Note_on_c, 0, 44, 0
4, 19440, Note_on_c, 0, 47, 45
4, 19523, Note_on_c, 0, 52, 0
4, 19526, Note_on_c, 0, 59, 0
4, 19526, Note_on_c, 0, 64, 0
4, 19531, Note_on_c, 0, 56, 0
4, 19542, Note_on_c, 0, 47, 0
4, 19560, Note_on_c, 0, 56, 48
4, 19560, Note_on_c, 0, 52, 62
4, 19560, Note_on_c, 0, 64, 48
4, 19560, Note_on_c, 0, 59, 55
4, 19560, Note_on_c, 0, 49, 48
4, 19603, Note_on_c, 0, 52, 0
4, 19606, Note_on_c, 0, 59, 0
4, 19609, Note_on_c, 0, 56, 0
4, 19615, Note_on_c, 0, 64, 0
4, 19620, Note_on_c, 0, 47, 45
4, 19623, Note_on_c, 0, 49, 0
4, 19668, Note_on_c, 0, 47, 0
4, 19680, Note_on_c, 0, 45, 55
4, 19799, Note_on_c, 0, 45, 0
4, 19800, Note_on_c, 0, 49, 68
4, 19800, Note_on_c, 0, 64, 68
4, 19800, Note_on_c, 0, 55, 55
4, 19800, Note_on_c, 0, 61, 62
4, 19837, Note_on_c, 0, 55, 0
4, 19838, Note_on_c, 0, 64, 0
4, 19841, Note_on_c, 0, 61, 0
4, 19860, Note_on_c, 0, 64, 62
4, 19860, Note_on_c, 0, 55, 48
4, 19860, Note_on_c, 0, 61, 62
4, 19912, Note_on_c, 0, 49, 0
4, 19920, Note_on_c, 0, 52, 55
4, 20008, Note_on_c, 0, 64, 0
4, 20010, Note_on_c, 0, 55, 0
4, 20016, Note_on_c, 0, 61, 0
4, 20030, Note_on_c, 0, 52, 0
4, 20040, Note_on_c, 0, 64, 68
4, 20040, Note_on_c, 0, 61, 68
4, 20040, Note_on_c, 0, 54, 62
4, 20082, Note_on_c, 0, 64, 0
4, 20083, Note_on_c, 0, 54, 0
4, 20083, Note_on_c, 0, 61, 0
4, 20100, Note_on_c, 0, 52, 48
4, 20160, Note_on_c, 0, 45, 55
4, 20172, Note_on_c, 0, 52, 0
4, 20272, Note_on_c, 0, 45, 0
4, 20280, Note_on_c, 0, 64, 62
4, 20280, Note_on_c, 0, 55, 55
4, 20280, Note_on_c, 0, 49, 62
4, 20280, Note_on_c, 0, 61, 62
4, 20310, Note_on_c, 0, 64, 0
4, 20312, Note_on_c, 0, 55, 0
4, 20315, Note_on_c, 0, 61, 0
4, 20340, Note_on_c, 0, 64, 62
4, 20340, Note_on_c, 0, 55, 55
4, 20340, Note_on_c, 0, 61, 62
4, 20394, Note_on_c, 0, 49, 0
4, 20400, Note_on_c, 0, 52, 55
4, 20494, Note_on_c, 0, 64, 0
4, 20495, Note_on_c, 0, 55, 0
4, 20499, Note_on_c, 0, 61, 0
4, 20512, Note_on_c, 0, 52, 0
4, 20520, Note_on_c, 0, 64, 68
4, 20520, Note_on_c, 0, 61, 68
4, 20520, Note_on_c, 0, 54, 62
4, 20580, Note_on_c, 0, 54, 0
4, 20580, Note_on_c, 0, 52, 67
4, 20634, Note_on_c, 0, 61, 0
4, 20637, Note_on_c, 0, 52, 0
4, 20639, Note_on_c, 0, 64, 0
4, 20640, Note_on_c, 0, 40, 48
4, 20742, Note_on_c, 0, 40, 0
4, 20760, Note_on_c, 0, 64, 55
4, 20760, Note_on_c, 0, 59, 55
4, 20760, Note_on_c, 0, 56, 55
4, 20760, Note_on_c, 0, 52, 48
4, 20760, Note_on_c, 0, 44, 55
4, 20790, Note_on_c, 0, 52, 0
4, 20790, Note_on_c, 0, 59, 0
4, 20793, Note_on_c, 0, 56, 0
4, 20798, Note_on_c, 0, 64, 0
4, 20820, Note_on_c, 0, 56, 48
4, 20820, Note_on_c, 0, 52, 62
4, 20820, Note_on_c, 0, 64, 48
4, 20820, Note_on_c, 0, 59, 62
4, 20870, Note_on_c, 0, 44, 0
4, 20880, Note_on_c, 0, 47, 48
4, 20966, Note_on_c, 0, 52, 0
4, 20975, Note_on_c, 0, 64, 0
4, 20975, Note_on_c, 0, 56, 0
4, 20977, Note_on_c, 0, 59, 0
4, 20997, Note_on_c, 0, 47, 0
4, 21000, Note_on_c, 0, 49, 62
4, 21000, Note_on_c, 0, 64, 48
4, 21000, Note_on_c, 0, 56, 48
4, 21000, Note_on_c, 0, 59, 48
4, 21000, Note_on_c, 0, 52, 62
4, 21050, Note_on_c, 0, 59, 0
4, 21051, Note_on_c, 0, 64, 0
4, 21054, Note_on_c, 0, 56, 0
4, 21058, Note_on_c, 0, 49, 0
4, 21058, Note_on_c, 0, 52, 0
4, 21060, Note_on_c, 0, 47, 55
4, 21120, Note_on_c, 0, 40, 55
4, 21127, Note_on_c, 0, 47, 0
4, 21225, Note_on_c, 0, 40, 0
4, 21240, Note_on_c, 0, 44, 68
4, 21240, Note_on_c, 0, 64, 48
4, 21240, Note_on_c, 0, 52, 55
4, 21240, Note_on_c, 0, 56, 55
4, 21240, Note_on_c, 0, 59, 62
4, 21269, Note_on_c, 0, 64, 0
4, 21270, Note_on_c, 0, 52, 0
4, 21273, Note_on_c, 0, 59, 0
4, 21273, Note_on_c, 0, 56, 0
4, 21300, Note_on_c, 0, 64, 48
4, 21300, Note_on_c, 0, 56, 55
4, 21300, Note_on_c, 0, 59, 55
4, 21300, Note_on_c, 0, 52, 55
4, 21353, Note_on_c, 0, 44, 0
4, 21360, Note_on_c, 0, 47, 55
4, 21450, Note_on_c, 0, 64, 0
4, 21454, Note_on_c, 0, 52, 0
4, 21455, Note_on_c, 0, 59, 0
4, 21456, Note_on_c, 0, 56, 0
4, 21469, Note_on_c, 0, 47, 0
4, 21480, Note_on_c, 0, 64, 62
4, 21480, Note_on_c, 0, 59, 62
4, 21480, Note_on_c, 0, 49, 48
4, 21480, Note_on_c, 0, 56, 62
4, 21480, Note_on_c, 0, 52, 55
4, 21540, Note_on_c, 0, 59, 0
4, 21542, Note_on_c, 0, 52, 0
4, 21551, Note_on_c, 0, 56, 0
4, 21555, Note_on_c, 0, 64, 0
4, 21582, Note_on_c, 0, 49, 0
4, 21600, Note_on_c, 0, 66, 68
4, 21600, Note_on_c, 0, 57, 68
4, 21600, Note_on_c, 0, 47, 62
4, 21600, Note_on_c, 0, 63, 68
4, 22034, Note_on_c, 0, 57, 0
4, 22045, Note_on_c, 0, 66, 0
4, 22047, Note_on_c, 0, 47, 0
4, 22051, Note_on_c, 0, 63, 0
4, 22080, Note_on_c, 0, 58, 48
4, 22080, Note_on_c, 0, 48, 68
4, 22080, Note_on_c, 0, 64, 62
4, 22080, Note_on_c, 0, 67, 68
4, 22283, Note_on_c, 0, 67, 0
4, 22290, Note_on_c, 0, 64, 0
4, 22300, Note_on_c, 0, 48, 0
4, 22306, Note_on_c, 0, 58, 0
4, 22320, Note_on_c, 0, 57, 62
4, 22320, Note_on_c, 0, 66, 62
4, 22320, Note_on_c, 0, 63, 68
4, 22320, Note_on_c, 0, 47, 48
4, 22524, Note_on_c, 0, 63, 0
4, 22534, Note_on_c, 0, 66, 0
4, 22549, Note_on_c, 0, 57, 0
4, 22549, Note_on_c, 0, 47, 0
4, 22560, Note_on_c, 0, 40, 48
4, 22668, Note_on_c, 0, 40, 0
4, 22680, Note_on_c, 0, 44, 62
4, 22680, Note_on_c, 0, 64, 48
4, 22680, Note_on_c, 0, 56, 45
4, 22680, Note_on_c, 0, 59, 48
4, 22680, Note_on_c, 0, 52, 55
4, 22711, Note_on_c, 0, 59, 0
4, 22712, Note_on_c, 0, 52, 0
4, 22713, Note_on_c, 0, 56, 0
4, 22717, Note_on_c, 0, 64, 0
4, 22740, Note_on_c, 0, 59, 45
4, 22740, Note_on_c, 0, 56, 45
4, 22740, Note_on_c, 0, 52, 48
4, 22740, Note_on_c, 0, 64, 48
4, 22794, Note_on_c, 0, 44, 0
4, 22800, Note_on_c, 0, 47, 48
4, 22810, Note_on_c, 0, 59, 0
4, 22812, Note_on_c, 0, 56, 0
4, 22816, Note_on_c, 0, 52, 0
4, 22821, Note_on_c, 0, 64, 0
4, 22918, Note_on_c, 0, 47, 0
4, 22920, Note_on_c, 0, 59, 62
4, 22920, Note_on_c, 0, 56, 62
4, 22920, Note_on_c, 0, 64, 62
4, 22920, Note_on_c, 0, 52, 62
4, 22920, Note_on_c, 0, 49, 55
4, 22971, Note_on_c, 0, 52, 0
4, 22972, Note_on_c, 0, 56, 0
4, 22972, Note_on_c, 0, 59, 0
4, 22974, Note_on_c, 0, 64, 0
4, 22980, Note_on_c, 0, 47, 55
4, 22988, Note_on_c, 0, 49, 0
4, 23035, Note_on_c, 0, 47, 0
4, 23040, Note_on_c, 0, 40, 68
4, 23157, Note_on_c, 0, 40, 0
4, 23160, Note_on_c, 0, 44, 68
4, 23160, Note_on_c, 0, 64, 55
4, 23160, Note_on_c, 0, 56, 55
4, 23160, Note_on_c, 0, 59, 62
4, 23160, Note_on_c, 0, 52, 55
4, 23189, Note_on_c, 0, 59, 0
4, 23191, Note_on_c, 0, 56, 0
4, 23191, Note_on_c, 0, 64, 0
4, 23192, Note_on_c, 0, 52, 0
4, 23220, Note_on_c, 0, 64, 55
4, 23220, Note_on_c, 0, 59, 62
4, 23220, Note_on_c, 0, 56, 48
4, 23220, Note_on_c, 0, 52, 55
4, 23280, Note_on_c, 0, 47, 55
4, 23281, Note_on_c, 0, 44, 0
4, 23362, Note_on_c, 0, 64, 0
4, 23369, Note_on_c, 0, 52, 0
4, 23373, Note_on_c, 0, 59, 0
4, 23375, Note_on_c, 0, 56, 0
4, 23380, Note_on_c, 0, 47, 0
4, 23400, Note_on_c, 0, 64, 55
4, 23400, Note_on_c, 0, 56, 48
4, 23400, Note_on_c, 0, 59, 55
4, 23400, Note_on_c, 0, 49, 55
4, 23400, Note_on_c, 0, 52, 62
4, 23457, Note_on_c, 0, 59, 0
4, 23458, Note_on_c, 0, 56, 0
4, 23460, Note_on_c, 0, 47, 48
4, 23462, Note_on_c, 0, 64, 0
4, 23462, Note_on_c, 0, 52, 0
4, 23462, Note_on_c, 0, 49, 0
4, 23517, Note_on_c, 0, 47, 0
4, 23520, Note_on_c, 0, 52, 68
4, 23617, Note_on_c, 0, 52, 0
4, 23640, Note_on_c, 0, 64, 62
4, 23640, Note_on_c, 0, 59, 62
4, 23640, Note_on_c, 0, 62, 68
4, 23686, Note_on_c, 0, 62, 0
4, 23686, Note_on_c, 0, 64, 0
4, 23687, Note_on_c, 0, 59, 0
4, 23700, Note_on_c, 0, 64, 76
4, 23700, Note_on_c, 0, 62, 76
4, 23700, Note_on_c, 0, 59, 55
4, 23816, Note_on_c, 0, 64, 0
4, 23818, Note_on_c, 0, 62, 0
4, 23820, Note_on_c, 0, 52, 68
4, 23826, Note_on_c, 0, 59, 0
4, 23873, Note_on_c, 0, 52, 0
4, 23880, Note_on_c, 0, 64, 68
4, 23880, Note_on_c, 0, 61, 62
4, 23880, Note_on_c, 0, 57, 68
4, 23919, Note_on_c, 0, 57, 0
4, 23920, Note_on_c, 0, 61, 0
4, 23927, Note_on_c, 0, 64, 0
4, 23940, Note_on_c, 0, 59, 68
4, 23940, Note_on_c, 0, 56, 62
4, 23940, Note_on_c, 0, 64, 55
4, 23995, Note_on_c, 0, 59, 0
4, 23999, Note_on_c, 0, 56, 0
4, 24000, Note_on_c, 0, 52, 68
4, 24004, Note_on_c, 0, 64, 0
4, 24096, Note_on_c, 0, 52, 0
4, 24120, Note_on_c, 0, 64, 62
4, 24120, Note_on_c, 0, 59, 68
4, 24120, Note_on_c, 0, 62, 68
4, 24162, Note_on_c, 0, 64, 0
4, 24164, Note_on_c, 0, 62, 0
4, 24164, Note_on_c, 0, 59, 0
4, 24180, Note_on_c, 0, 64, 62
4, 24180, Note_on_c, 0, 59, 62
4, 24180, Note_on_c, 0, 62, 68
4, 24288, Note_on_c, 0, 62, 0
4, 24289, Note_on_c, 0, 64, 0
4, 24292, Note_on_c, 0, 59, 0
4, 24300, Note_on_c, 0, 52, 48
4, 24355, Note_on_c, 0, 52, 0
4, 24360, Note_on_c, 0, 64, 62
4, 24360, Note_on_c, 0, 57, 62
4, 24360, Note_on_c, 0, 61, 68
4, 24398, Note_on_c, 0, 57, 0
4, 24399, Note_on_c, 0, 61, 0
4, 24403, Note_on_c, 0, 64, 0
4, 24420, Note_on_c, 0, 59, 68
4, 24420, Note_on_c, 0, 64, 55
4, 24420, Note_on_c, 0, 56, 62
4, 24475, Note_on_c, 0, 59, 0
4, 24480, Note_on_c, 0, 52, 68
4, 24482, Note_on_c, 0, 56, 0
4, 24484, Note_on_c, 0, 64, 0
4, 24578, Note_on_c, 0, 52, 0
4, 24600, Note_on_c, 0, 64, 68
4, 24600, Note_on_c, 0, 59, 68
4, 24600, Note_on_c, 0, 62, 68
4, 24637, Note_on_c, 0, 59, 0
4, 24638, Note_on_c, 0, 62, 0
4, 24638, Note_on_c, 0, 64, 0
4, 24660, Note_on_c, 0, 64, 62
4, 24660, Note_on_c, 0, 62, 62
4, 24660, Note_on_c, 0, 59, 68
4, 24770, Note_on_c, 0, 62, 0
4, 24773, Note_on_c, 0, 64, 0
4, 24778, Note_on_c, 0, 59, 0
4, 24780, Note_on_c, 0, 52, 62
4, 24831, Note_on_c, 0, 52, 0
4, 24840, Note_on_c, 0, 64, 68
4, 24840, Note_on_c, 0, 61, 62
4, 24840, Note_on_c, 0, 57, 62
4, 24874, Note_on_c, 0, 61, 0
4, 24875, Note_on_c, 0, 57, 0
4, 24878, Note_on_c, 0, 64, 0
4, 24900, Note_on_c, 0, 59, 62
4, 24900, Note_on_c, 0, 64, 68
4, 24900, Note_on_c, 0, 56, 62
4, 24946, Note_on_c, 0, 59, 0
4, 24958, Note_on_c, 0, 56, 0
4, 24958, Note_on_c, 0, 64, 0
4, 24960, Note_on_c, 0, 52, 68
4, 25066, Note_on_c, 0, 52, 0
4, 25080, Note_on_c, 0, 64, 62
4, 25080, Note_on_c, 0, 59, 68
4, 25080, Note_on_c, 0, 62, 68
4, 25115, Note_on_c, 0, 62, 0
4, 25115, Note_on_c, 0, 59, 0
4, 25115, Note_on_c, 0, 64, 0
4, 25140, Note_on_c, 0, 64, 62
4, 25140, Note_on_c, 0, 59, 62
4, 25140, Note_on_c, 0, 62, 62
4, 25250, Note_on_c, 0, 64, 0
4, 25251, Note_on_c, 0, 62, 0
4, 25258, Note_on_c, 0, 59, 0
4, 25260, Note_on_c, 0, 52, 62
4, 25310, Note_on_c, 0, 52, 0
4, 25320, Note_on_c, 0, 64, 62
4, 25320, Note_on_c, 0, 57, 55
4, 25320, Note_on_c, 0, 61, 68
4, 25354, Note_on_c, 0, 64, 0
4, 25357, Note_on_c, 0, 61, 0
4, 25359, Note_on_c, 0, 57, 0
4, 25380, Note_on_c, 0, 59, 68
4, 25380, Note_on_c, 0, 64, 62
4, 25380, Note_on_c, 0, 56, 62
4, 25429, Note_on_c, 0, 59, 0
4, 25435, Note_on_c, 0, 64, 0
4, 25437, Note_on_c, 0, 56, 0
4, 25440, Note_on_c, 0, 52, 55
4, 25537, Note_on_c, 0, 52, 0
4, 25560, Note_on_c, 0, 64, 62
4, 25560, Note_on_c, 0, 59, 68
4, 25560, Note_on_c, 0, 62, 76
4, 25596, Note_on_c, 0, 62, 0
4, 25596, Note_on_c, 0, 64, 0
4, 25598, Note_on_c, 0, 59, 0
4, 25620, Note_on_c, 0, 64, 55
4, 25620, Note_on_c, 0, 59, 62
4, 25620, Note_on_c, 0, 62, 62
4, 25729, Note_on_c, 0, 62, 0
4, 25729, Note_on_c, 0, 64, 0
4, 25733, Note_on_c, 0, 59, 0
4, 25740, Note_on_c, 0, 52, 68
4, 25787, Note_on_c, 0, 52, 0
4, 25800, Note_on_c, 0, 64, 62
4, 25800, Note_on_c, 0, 57, 68
4, 25800, Note_on_c, 0, 61, 68
4, 25832, Note_on_c, 0, 57, 0
4, 25835, Note_on_c, 0, 64, 0
4, 25836, Note_on_c, 0, 61, 0
4, 25860, Note_on_c, 0, 59, 68
4, 25860, Note_on_c, 0, 56, 62
4, 25860, Note_on_c, 0, 64, 68
4, 25913, Note_on_c, 0, 59, 0
4, 25917, Note_on_c, 0, 56, 0
4, 25918, Note_on_c, 0, 64, 0
4, 25920, Note_on_c, 0, 52, 68
4, 26015, Note_on_c, 0, 52, 0
4, 26040, Note_on_c, 0, 64, 62
4, 26040, Note_on_c, 0, 59, 76
4, 26040, Note_on_c, 0, 62, 68
4, 26073, Note_on_c, 0, 62, 0
4, 26075, Note_on_c, 0, 59, 0
4, 26075, Note_on_c, 0, 64, 0
4, 26100, Note_on_c, 0, 64, 68
4, 26100, Note_on_c, 0, 59, 62
4, 26100, Note_on_c, 0, 62, 62
4, 26211, Note_on_c, 0, 62, 0
4, 26213, Note_on_c, 0, 64, 0
4, 26215, Note_on_c, 0, 59, 0
4, 26220, Note_on_c, 0, 52, 68
4, 26267, Note_on_c, 0, 52, 0
4, 26280, Note_on_c, 0, 64, 68
4, 26280, Note_on_c, 0, 57, 76
4, 26280, Note_on_c, 0, 61, 68
4, 26352, Note_on_c, 0, 64, 0
4, 26356, Note_on_c, 0, 61, 0
4, 26358, Note_on_c, 0, 57, 0
4, 26400, Note_on_c, 0, 59, 68
4, 26400, Note_on_c, 0, 64, 76
4, 26400, Note_on_c, 0, 56, 68
4, 26400, Note_on_c, 0, 52, 68
4, 26445, Note_on_c, 0, 59, 0
4, 26450, Note_on_c, 0, 64, 0
4, 26453, Note_on_c, 0, 56, 0
4, 26453, Note_on_c, 0, 52, 0
4, 26940, Note_on_c, 0, 59, 70
4, 26940, Note_on_c, 0, 64, 63
4, 26940, Note_on_c, 0, 56, 70
4, 26990, Note_on_c, 0, 56, 0
4, 26990, Note_on_c, 0, 64, 0
4, 26990, Note_on_c, 0, 59, 0
4, 27000, Note_on_c, 0, 59, 70
4, 27000, Note_on_c, 0, 56, 63
4, 27000, Note_on_c, 0, 64, 48
4, 27050, Note_on_c, 0, 64, 0
4, 27050, Note_on_c, 0, 56, 0
4, 27050, Note_on_c, 0, 59, 0
4, 27060, Note_on_c, 0, 59, 63
4, 27060, Note_on_c, 0, 64, 56
4, 27060, Note_on_c, 0, 56, 56
4, 27110, Note_on_c, 0, 56, 0
4, 27110, Note_on_c, 0, 64, 0
4, 27110, Note_on_c, 0, 59, 0
4, 27120, Note_on_c, 0, 59, 63
4, 27120, Note_on_c, 0, 64, 63
4, 27120, Note_on_c, 0, 56, 70
4, 27170, Note_on_c, 0, 56, 0
4, 27170, Note_on_c, 0, 64, 0
4, 27170, Note_on_c, 0, 59, 0
4, 27180, Note_on_c, 0, 59, 70
4, 27180, Note_on_c, 0, 64, 56
4, 27180, Note_on_c, 0, 56, 56
4, 27230, Note_on_c, 0, 56, 0
4, 27230, Note_on_c, 0, 64, 0
4, 27230, Note_on_c, 0, 59, 0
4, 27240, Note_on_c, 0, 64, 56
4, 27240, Note_on_c, 0, 59, 63
4, 27240, Note_on_c, 0, 56, 63
4, 27290, Note_on_c, 0, 56, 0
4, 27290, Note_on_c, 0, 59, 0
4, 27290, Note_on_c, 0, 64, 0
4, 27300, Note_on_c, 0, 64, 48
4, 27300, Note_on_c, 0, 56, 46
4, 27300, Note_on_c, 0, 59, 63
4, 27350, Note_on_c, 0, 59, 0
4, 27350, Note_on_c, 0, 56, 0
4, 27350, Note_on_c, 0, 64, 0
4, 27360, Note_on_c, 0, 64, 63
4, 27360, Note_on_c, 0, 59, 63
4, 27360, Note_on_c, 0, 56, 70
4, 27410, Note_on_c, 0, 56, 0
4, 27410, Note_on_c, 0, 59, 0
4, 27410, Note_on_c, 0, 64, 0
4, 27840, Note_on_c, 0, 40, 70
4, 27957, Note_on_c, 0, 40, 0
4, 27960, Note_on_c, 0, 44, 70
4, 27960, Note_on_c, 0, 64, 56
4, 27960, Note_on_c, 0, 56, 56
4, 27960, Note_on_c, 0, 59, 63
4, 27960, Note_on_c, 0, 52, 56
4, 27989, Note_on_c, 0, 59, 0
4, 27991, Note_on_c, 0, 56, 0
4, 27991, Note_on_c, 0, 64, 0
4, 27992, Note_on_c, 0, 52, 0
4, 28020, Note_on_c, 0, 64, 56
4, 28020, Note_on_c, 0, 59, 63
4, 28020, Note_on_c, 0, 56, 48
4, 28020, Note_on_c, 0, 52, 56
4, 28080, Note_on_c, 0, 47, 56
4, 28081, Note_on_c, 0, 44, 0
4, 28162, Note_on_c, 0, 64, 0
4, 28169, Note_on_c, 0, 52, 0
4, 28173, Note_on_c, 0, 59, 0
4, 28175, Note_on_c, 0, 56, 0
4, 28180, Note_on_c, 0, 47, 0
4, 28200, Note_on_c, 0, 64, 56
4, 28200, Note_on_c, 0, 56, 48
4, 28200, Note_on_c, 0, 59, 56
4, 28200, Note_on_c, 0, 49, 56
4, 28200, Note_on_c, 0, 52, 63
4, 28257, Note_on_c, 0, 59, 0
4, 28258, Note_on_c, 0, 56, 0
4, 28260, Note_on_c, 0, 47, 48
4, 28262, Note_on_c, 0, 64, 0
4, 28262, Note_on_c, 0, 52, 0
4, 28262, Note_on_c, 0, 49, 0
4, 28317, Note_on_c, 0, 47, 0
4, 28320, Note_on_c, 0, 40, 56
4, 28432, Note_on_c, 0, 40, 0
4, 28440, Note_on_c, 0, 64, 48
4, 28440, Note_on_c, 0, 44, 63
4, 28440, Note_on_c, 0, 56, 70
4, 28440, Note_on_c, 0, 59, 63
4, 28440, Note_on_c, 0, 52, 63
4, 28467, Note_on_c, 0, 59, 0
4, 28468, Note_on_c, 0, 56, 0
4, 28469, Note_on_c, 0, 52, 0
4, 28472, Note_on_c, 0, 64, 0
4, 28500, Note_on_c, 0, 64, 48
4, 28500, Note_on_c, 0, 56, 63
4, 28500, Note_on_c, 0, 52, 56
4, 28500, Note_on_c, 0, 59, 63
4, 28557, Note_on_c, 0, 44, 0
4, 28560, Note_on_c, 0, 47, 48
4, 28657, Note_on_c, 0, 52, 0
4, 28658, Note_on_c, 0, 64, 0
4, 28662, Note_on_c, 0, 56, 0
4, 28663, Note_on_c, 0, 59, 0
4, 28674, Note_on_c, 0, 47, 0
4, 28680, Note_on_c, 0, 49, 48
4, 28680, Note_on_c, 0, 59, 63
4, 28680, Note_on_c, 0, 64, 56
4, 28680, Note_on_c, 0, 56, 48
4, 28680, Note_on_c, 0, 52, 63
4, 28734, Note_on_c, 0, 59, 0
4, 28740, Note_on_c, 0, 47, 48
4, 28741, Note_on_c, 0, 56, 0
4, 28742, Note_on_c, 0, 52, 0
4, 28742, Note_on_c, 0, 49, 0
4, 28743, Note_on_c, 0, 64, 0
4, 28800, Note_on_c, 0, 40, 48
4, 28802, Note_on_c, 0, 47, 0
4, 28914, Note_on_c, 0, 40, 0
4, 28920, Note_on_c, 0, 56, 63
4, 28920, Note_on_c, 0, 59, 63
4, 28920, Note_on_c, 0, 64, 48
4, 28920, Note_on_c, 0, 52, 56
4, 28920, Note_on_c, 0, 44, 70
4, 28946, Note_on_c, 0, 59, 0
4, 28950, Note_on_c, 0, 52, 0
4, 28950, Note_on_c, 0, 56, 0
4, 28952, Note_on_c, 0, 64, 0
4, 28980, Note_on_c, 0, 64, 48
4, 28980, Note_on_c, 0, 59, 56
4, 28980, Note_on_c, 0, 56, 56
4, 28980, Note_on_c, 0, 52, 56
4, 29039, Note_on_c, 0, 44, 0
4, 29040, Note_on_c, 0, 47, 56
4, 29130, Note_on_c, 0, 56, 0
4, 29130, Note_on_c, 0, 52, 0
4, 29130, Note_on_c, 0, 64, 0
4, 29130, Note_on_c, 0, 59, 0
4, 29152, Note_on_c, 0, 47, 0
4, 29160, Note_on_c, 0, 49, 70
4, 29160, Note_on_c, 0, 59, 48
4, 29160, Note_on_c, 0, 52, 63
4, 29160, Note_on_c, 0, 64, 56
4, 29160, Note_on_c, 0, 56, 56
4, 29204, Note_on_c, 0, 59, 0
4, 29205, Note_on_c, 0, 52, 0
4, 29207, Note_on_c, 0, 64, 0
4, 29209, Note_on_c, 0, 56, 0
4, 29212, Note_on_c, 0, 49, 0
4, 29220, Note_on_c, 0, 47, 38
4, 29280, Note_on_c, 0, 40, 56
4, 29290, Note_on_c, 0, 47, 0
4, 29384, Note_on_c, 0, 40, 0
4, 29400, Note_on_c, 0, 56, 63
4, 29400, Note_on_c, 0, 52, 56
4, 29400, Note_on_c, 0, 59, 63
4, 29400, Note_on_c, 0, 64, 56
4, 29400, Note_on_c, 0, 44, 63
4, 29425, Note_on_c, 0, 52, 0
4, 29427, Note_on_c, 0, 56, 0
4, 29427, Note_on_c, 0, 59, 0
4, 29435, Note_on_c, 0, 64, 0
4, 29460, Note_on_c, 0, 59, 56
4, 29460, Note_on_c, 0, 64, 48
4, 29460, Note_on_c, 0, 56, 56
4, 29460, Note_on_c, 0, 52, 56
4, 29519, Note_on_c, 0, 44, 0
4, 29520, Note_on_c, 0, 47, 46
4, 29603, Note_on_c, 0, 52, 0
4, 29606, Note_on_c, 0, 59, 0
4, 29606, Note_on_c, 0, 64, 0
4, 29611, Note_on_c, 0, 56, 0
4, 29622, Note_on_c, 0, 47, 0
4, 29640, Note_on_c, 0, 56, 48
4, 29640, Note_on_c, 0, 52, 63
4, 29640, Note_on_c, 0, 64, 48
4, 29640, Note_on_c, 0, 59, 56
4, 29640, Note_on_c, 0, 49, 48
4, 29683, Note_on_c, 0, 52, 0
4, 29686, Note_on_c, 0, 59, 0
4, 29689, Note_on_c, 0, 56, 0
4, 29695, Note_on_c, 0, 64, 0
4, 29700, Note_on_c, 0, 47, 46
4, 29703, Note_on_c, 0, 49, 0
4, 29748, Note_on_c, 0, 47, 0
4, 29760, Note_on_c, 0, 45, 56
4, 29879, Note_on_c, 0, 45, 0
4, 29880, Note_on_c, 0, 49, 70
4, 29880, Note_on_c, 0, 64, 70
4, 29880, Note_on_c, 0, 55, 56
4, 29880, Note_on_c, 0, 61, 63
4, 29917, Note_on_c, 0, 55, 0
4, 29918, Note_on_c, 0, 64, 0
4, 29921, Note_on_c, 0, 61, 0
4, 29940, Note_on_c, 0, 64, 63
4, 29940, Note_on_c, 0, 55, 48
4, 29940, Note_on_c, 0, 61, 63
4, 29992, Note_on_c, 0, 49, 0
4, 30000, Note_on_c, 0, 52, 56
4, 30088, Note_on_c, 0, 64, 0
4, 30090, Note_on_c, 0, 55, 0
4, 30096, Note_on_c, 0, 61, 0
4, 30110, Note_on_c, 0, 52, 0
4, 30120, Note_on_c, 0, 64, 70
4, 30120, Note_on_c, 0, 61, 70
4, 30120, Note_on_c, 0, 54, 63
4, 30162, Note_on_c, 0, 64, 0
4, 30163, Note_on_c, 0, 54, 0
4, 30163, Note_on_c, 0, 61, 0
4, 30180, Note_on_c, 0, 52, 48
4, 30240, Note_on_c, 0, 45, 56
4, 30252, Note_on_c, 0, 52, 0
4, 30352, Note_on_c, 0, 45, 0
4, 30360, Note_on_c, 0, 64, 63
4, 30360, Note_on_c, 0, 55, 56
4, 30360, Note_on_c, 0, 49, 63
4, 30360, Note_on_c, 0, 61, 63
4, 30390, Note_on_c, 0, 64, 0
4, 30392, Note_on_c, 0, 55, 0
4, 30395, Note_on_c, 0, 61, 0
4, 30420, Note_on_c, 0, 64, 63
4, 30420, Note_on_c, 0, 55, 56
4, 30420, Note_on_c, 0, 61, 63
4, 30474, Note_on_c, 0, 49, 0
4, 30480, Note_on_c, 0, 52, 56
4, 30574, Note_on_c, 0, 64, 0
4, 30575, Note_on_c, 0, 55, 0
4, 30579, Note_on_c, 0, 61, 0
4, 30592, Note_on_c, 0, 52, 0
4, 30600, Note_on_c, 0, 64, 70
4, 30600, Note_on_c, 0, 61, 70
4, 30600, Note_on_c, 0, 54, 63
4, 30660, Note_on_c, 0, 54, 0
4, 30660, Note_on_c, 0, 52, 68
4, 30714, Note_on_c, 0, 61, 0
4, 30717, Note_on_c, 0, 52, 0
4, 30719, Note_on_c, 0, 64, 0
4, 30720, Note_on_c, 0, 40, 48
4, 30822, Note_on_c, 0, 40, 0
4, 30840, Note_on_c, 0, 64, 56
4, 30840, Note_on_c, 0, 59, 56
4, 30840, Note_on_c, 0, 56, 56
4, 30840, Note_on_c, 0, 52, 48
4, 30840, Note_on_c, 0, 44, 56
4, 30870, Note_on_c, 0, 52, 0
4, 30870, Note_on_c, 0, 59, 0
4, 30873, Note_on_c, 0, 56, 0
4, 30878, Note_on_c, 0, 64, 0
4, 30900, Note_on_c, 0, 56, 48
4, 30900, Note_on_c, 0, 52, 63
4, 30900, Note_on_c, 0, 64, 48
4, 30900, Note_on_c, 0, 59, 63
4, 30950, Note_on_c, 0, 44, 0
4, 30960, Note_on_c, 0, 47, 48
4, 31046, Note_on_c, 0, 52, 0
4, 31055, Note_on_c, 0, 64, 0
4, 31055, Note_on_c, 0, 56, 0
4, 31057, Note_on_c, 0, 59, 0
4, 31077, Note_on_c, 0, 47, 0
4, 31080, Note_on_c, 0, 49, 63
4, 31080, Note_on_c, 0, 64, 48
4, 31080, Note_on_c, 0, 56, 48
4, 31080, Note_on_c, 0, 59, 48
4, 31080, Note_on_c, 0, 52, 63
4, 31130, Note_on_c, 0, 59, 0
4, 31131, Note_on_c, 0, 64, 0
4, 31134, Note_on_c, 0, 56, 0
4, 31138, Note_on_c, 0, 49, 0
4, 31138, Note_on_c, 0, 52, 0
4, 31140, Note_on_c, 0, 47, 56
4, 31200, Note_on_c, 0, 40, 56
4, 31207, Note_on_c, 0, 47, 0
4, 31305, Note_on_c, 0, 40, 0
4, 31320, Note_on_c, 0, 44, 70
4, 31320, Note_on_c, 0, 64, 48
4, 31320, Note_on_c, 0, 52, 56
4, 31320, Note_on_c, 0, 56, 56
4, 31320, Note_on_c, 0, 59, 63
4, 31349, Note_on_c, 0, 64, 0
4, 31350, Note_on_c, 0, 52, 0
4, 31353, Note_on_c, 0, 59, 0
4, 31353, Note_on_c, 0, 56, 0
4, 31380, Note_on_c, 0, 64, 48
4, 31380, Note_on_c, 0, 56, 56
4, 31380, Note_on_c, 0, 59, 56
4, 31380, Note_on_c, 0, 52, 56
4, 31433, Note_on_c, 0, 44, 0
4, 31440, Note_on_c, 0, 47, 56
4, 31530, Note_on_c, 0, 64, 0
4, 31534, Note_on_c, 0, 52, 0
4, 31535, Note_on_c, 0, 59, 0
4, 31536, Note_on_c, 0, 56, 0
4, 31549, Note_on_c, 0, 47, 0
4, 31560, Note_on_c, 0, 64, 63
4, 31560, Note_on_c, 0, 59, 63
4, 31560, Note_on_c, 0, 49, 48
4, 31560, Note_on_c, 0, 56, 63
4, 31560, Note_on_c, 0, 52, 56
4, 31620, Note_on_c, 0, 59, 0
4, 31622, Note_on_c, 0, 52, 0
4, 31631, Note_on_c, 0, 56, 0
4, 31635, Note_on_c, 0, 64, 0
4, 31662, Note_on_c, 0, 49, 0
4, 31680, Note_on_c, 0, 66, 70
4, 31680, Note_on_c, 0, 57, 70
4, 31680, Note_on_c, 0, 47, 63
4, 31680, Note_on_c, 0, 63, 70
4, 32114, Note_on_c, 0, 57, 0
4, 32125, Note_on_c, 0, 66, 0
4, 32127, Note_on_c, 0, 47, 0
4, 32131, Note_on_c, 0, 63, 0
4, 32160, Note_on_c, 0, 58, 48
4, 32160, Note_on_c, 0, 48, 70
4, 32160, Note_on_c, 0, 64, 63
4, 32160, Note_on_c, 0, 67, 70
4, 32363, Note_on_c, 0, 67, 0
4, 32370, Note_on_c, 0, 64, 0
4, 32380, Note_on_c, 0, 48, 0
4, 32386, Note_on_c, 0, 58, 0
4, 32400, Note_on_c, 0, 57, 63
4, 32400, Note_on_c, 0, 66, 63
4, 32400, Note_on_c, 0, 63, 70
4, 32400, Note_on_c, 0, 47, 48
4, 32604, Note_on_c, 0, 63, 0
4, 32614, Note_on_c, 0, 66, 0
4, 32629, Note_on_c, 0, 57, 0
4, 32629, Note_on_c, 0, 47, 0
4, 32640, Note_on_c, 0, 40, 48
4, 32748, Note_on_c, 0, 40, 0
4, 32760, Note_on_c, 0, 44, 63
4, 32760, Note_on_c, 0, 64, 48
4, 32760, Note_on_c, 0, 56, 46
4, 32760, Note_on_c, 0, 59, 48
4, 32760, Note_on_c, 0, 52, 56
4, 32791, Note_on_c, 0, 59, 0
4, 32792, Note_on_c, 0, 52, 0
4, 32793, Note_on_c, 0, 56, 0
4, 32797, Note_on_c, 0, 64, 0
4, 32820, Note_on_c, 0, 59, 46
4, 32820, Note_on_c, 0, 56, 46
4, 32820, Note_on_c, 0, 52, 48
4, 32820, Note_on_c, 0, 64, 48
4, 32874, Note_on_c, 0, 44, 0
4, 32880, Note_on_c, 0, 47, 48
4, 32890, Note_on_c, 0, 59, 0
4, 32892, Note_on_c, 0, 56, 0
4, 32896, Note_on_c, 0, 52, 0
4, 32901, Note_on_c, 0, 64, 0
4, 32998, Note_on_c, 0, 47, 0
4, 33000, Note_on_c, 0, 59, 63
4, 33000, Note_on_c, 0, 56, 63
4, 33000, Note_on_c, 0, 64, 63
4, 33000, Note_on_c, 0, 52, 63
4, 33000, Note_on_c, 0, 49, 56
4, 33051, Note_on_c, 0, 52, 0
4, 33052, Note_on_c, 0, 56, 0
4, 33052, Note_on_c, 0, 59, 0
4, 33054, Note_on_c, 0, 64, 0
4, 33060, Note_on_c, 0, 47, 56
4, 33068, Note_on_c, 0, 49, 0
4, 33115, Note_on_c, 0, 47, 0
4, 33120, Note_on_c, 0, 40, 70
4, 33237, Note_on_c, 0, 40, 0
4, 33240, Note_on_c, 0, 44, 70
4, 33240, Note_on_c, 0, 64, 56
4, 33240, Note_on_c, 0, 56, 56
4, 33240, Note_on_c, 0, 59, 63
4, 33240, Note_on_c, 0, 52, 56
4, 33269, Note_on_c, 0, 59, 0
4, 33271, Note_on_c, 0, 56, 0
4, 33271, Note_on_c, 0, 64, 0
4, 33272, Note_on_c, 0, 52, 0
4, 33300, Note_on_c, 0, 64, 56
4, 33300, Note_on_c, 0, 59, 63
4, 33300, Note_on_c, 0, 56, 48
4, 33300, Note_on_c, 0, 52, 56
4, 33360, Note_on_c, 0, 47, 56
4, 33361, Note_on_c, 0, 44, 0
4, 33442, Note_on_c, 0, 64, 0
4, 33449, Note_on_c, 0, 52, 0
4, 33453, Note_on_c, 0, 59, 0
4, 33455, Note_on_c, 0, 56, 0
4, 33460, Note_on_c, 0, 47, 0
4, 33480, Note_on_c, 0, 64, 56
4, 33480, Note_on_c, 0, 56, 48
4, 33480, Note_on_c, 0, 59, 56
4, 33480, Note_on_c, 0, 49, 56
4, 33480, Note_on_c, 0, 52, 63
4, 33537, Note_on_c, 0, 59, 0
4, 33538, Note_on_c, 0, 56, 0
4, 33540, Note_on_c, 0, 47, 48
4, 33542, Note_on_c, 0, 64, 0
4, 33542, Note_on_c, 0, 52, 0
4, 33542, Note_on_c, 0, 49, 0
4, 33597, Note_on_c, 0, 47, 0
4, 33600, Note_on_c, 0, 40, 70
4, 33717, Note_on_c, 0, 40, 0
4, 33720, Note_on_c, 0, 44, 70
4, 33720, Note_on_c, 0, 64, 56
4, 33720, Note_on_c, 0, 56, 56
4, 33720, Note_on_c, 0, 59, 63
4, 33720, Note_on_c, 0, 52, 56
4, 33749, Note_on_c, 0, 59, 0
4, 33751, Note_on_c, 0, 56, 0
4, 33751, Note_on_c, 0, 64, 0
4, 33752, Note_on_c, 0, 52, 0
4, 33780, Note_on_c, 0, 64, 56
4, 33780, Note_on_c, 0, 59, 63
4, 33780, Note_on_c, 0, 56, 48
4, 33780, Note_on_c, 0, 52, 56
4, 33840, Note_on_c, 0, 47, 56
4, 33841, Note_on_c, 0, 44, 0
4, 33922, Note_on_c, 0, 64, 0
4, 33929, Note_on_c, 0, 52, 0
4, 33933, Note_on_c, 0, 59, 0
4, 33935, Note_on_c, 0, 56, 0
4, 33940, Note_on_c, 0, 47, 0
4, 33960, Note_on_c, 0, 64, 56
4, 33960, Note_on_c, 0, 56, 48
4, 33960, Note_on_c, 0, 59, 56
4, 33960, Note_on_c, 0, 49, 56
4, 33960, Note_on_c, 0, 52, 63
4, 34017, Note_on_c, 0, 59, 0
4, 34018, Note_on_c, 0, 56, 0
4, 34020, Note_on_c, 0, 47, 48
4, 34022, Note_on_c, 0, 64, 0
4, 34022, Note_on_c, 0, 52, 0
4, 34022, Note_on_c, 0, 49, 0
4, 34077, Note_on_c, 0, 47, 0
4, 34080, Note_on_c, 0, 40, 56
4, 34192, Note_on_c, 0, 40, 0
4, 34200, Note_on_c, 0, 64, 48
4, 34200, Note_on_c, 0, 44, 63
4, 34200, Note_on_c, 0, 56, 70
4, 34200, Note_on_c, 0, 59, 63
4, 34200, Note_on_c, 0, 52, 63
4, 34227, Note_on_c, 0, 59, 0
4, 34228, Note_on_c, 0, 56, 0
4, 34229, Note_on_c, 0, 52, 0
4, 34232, Note_on_c, 0, 64, 0
4, 34260, Note_on_c, 0, 64, 48
4, 34260, Note_on_c, 0, 56, 63
4, 34260, Note_on_c, 0, 52, 56
4, 34260, Note_on_c, 0, 59, 63
4, 34317, Note_on_c, 0, 44, 0
4, 34320, Note_on_c, 0, 47, 48
4, 34417, Note_on_c, 0, 52, 0
4, 34418, Note_on_c, 0, 64, 0
4, 34422, Note_on_c, 0, 56, 0
4, 34423, Note_on_c, 0, 59, 0
4, 34434, Note_on_c, 0, 47, 0
4, 34440, Note_on_c, 0, 49, 48
4, 34440, Note_on_c, 0, 59, 63
4, 34440, Note_on_c, 0, 64, 56
4, 34440, Note_on_c, 0, 56, 48
4, 34440, Note_on_c, 0, 52, 63
4, 34494, Note_on_c, 0, 59, 0
4, 34500, Note_on_c, 0, 47, 48
4, 34501, Note_on_c, 0, 56, 0
4, 34502, Note_on_c, 0, 52, 0
4, 34502, Note_on_c, 0, 49, 0
4, 34503, Note_on_c, 0, 64, 0
4, 34560, Note_on_c, 0, 40, 48
4, 34562, Note_on_c, 0, 47, 0
4, 34674, Note_on_c, 0, 40, 0
4, 34680, Note_on_c, 0, 56, 63
4, 34680, Note_on_c, 0, 59, 63
4, 34680, Note_on_c, 0, 64, 48
4, 34680, Note_on_c, 0, 52, 56
4, 34680, Note_on_c, 0, 44, 70
4, 34706, Note_on_c, 0, 59, 0
4, 34710, Note_on_c, 0, 52, 0
4, 34710, Note_on_c, 0, 56, 0
4, 34712, Note_on_c, 0, 64, 0
4, 34740, Note_on_c, 0, 64, 48
4, 34740, Note_on_c, 0, 59, 56
4, 34740, Note_on_c, 0, 56, 56
4, 34740, Note_on_c, 0, 52, 56
4, 34799, Note_on_c, 0, 44, 0
4, 34800, Note_on_c, 0, 47, 56
4, 34890, Note_on_c, 0, 56, 0
4, 34890, Note_on_c, 0, 52, 0
4, 34890, Note_on_c, 0, 64, 0
4, 34890, Note_on_c, 0, 59, 0
4, 34912, Note_on_c, 0, 47, 0
4, 34920, Note_on_c, 0, 49, 70
4, 34920, Note_on_c, 0, 59, 48
4, 34920, Note_on_c, 0, 52, 63
4, 34920, Note_on_c, 0, 64, 56
4, 34920, Note_on_c, 0, 56, 56
4, 34964, Note_on_c, 0, 59, 0
4, 34965, Note_on_c, 0, 52, 0
4, 34967, Note_on_c, 0, 64, 0
4, 34969, Note_on_c, 0, 56, 0
4, 34972, Note_on_c, 0, 49, 0
4, 34980, Note_on_c, 0, 47, 38
4, 35040, Note_on_c, 0, 40, 56
4, 35050, Note_on_c, 0, 47, 0
4, 35144, Note_on_c, 0, 40, 0
4, 35160, Note_on_c, 0, 56, 63
4, 35160, Note_on_c, 0, 52, 56
4, 35160, Note_on_c, 0, 59, 63
4, 35160, Note_on_c, 0, 64, 56
4, 35160, Note_on_c, 0, 44, 63
4, 35185, Note_on_c, 0, 52, 0
4, 35187, Note_on_c, 0, 56, 0
4, 35187, Note_on_c, 0, 59, 0
4, 35195, Note_on_c, 0, 64, 0
4, 35220, Note_on_c, 0, 59, 56
4, 35220, Note_on_c, 0, 64, 48
4, 35220, Note_on_c, 0, 56, 56
4, 35220, Note_on_c, 0, 52, 56
4, 35279, Note_on_c, 0, 44, 0
4, 35280, Note_on_c, 0, 47, 46
4, 35363, Note_on_c, 0, 52, 0
4, 35366, Note_on_c, 0, 59, 0
4, 35366, Note_on_c, 0, 64, 0
4, 35371, Note_on_c, 0, 56, 0
4, 35382, Note_on_c, 0, 47, 0
4, 35400, Note_on_c, 0, 56, 48
4, 35400, Note_on_c, 0, 52, 63
4, 35400, Note_on_c, 0, 64, 48
4, 35400, Note_on_c, 0, 59, 56
4, 35400, Note_on_c, 0, 49, 48
4, 35443, Note_on_c, 0, 52, 0
4, 35446, Note_on_c, 0, 59, 0
4, 35449, Note_on_c, 0, 56, 0
4, 35455, Note_on_c, 0, 64, 0
4, 35460, Note_on_c, 0, 47, 46
4, 35463, Note_on_c, 0, 49, 0
4, 35508, Note_on_c, 0, 47, 0
4, 35520, Note_on_c, 0, 45, 56
4, 35639, Note_on_c, 0, 45, 0
4, 35640, Note_on_c, 0, 49, 70
4, 35640, Note_on_c, 0, 64, 70
4, 35640, Note_on_c, 0, 55, 56
4, 35640, Note_on_c, 0, 61, 63
4, 35677, Note_on_c, 0, 55, 0
4, 35678, Note_on_c, 0, 64, 0
4, 35681, Note_on_c, 0, 61, 0
4, 35700, Note_on_c, 0, 64, 63
4, 35700, Note_on_c, 0, 55, 48
4, 35700, Note_on_c, 0, 61, 63
4, 35752, Note_on_c, 0, 49, 0
4, 35760, Note_on_c, 0, 52, 56
4, 35848, Note_on_c, 0, 64, 0
4, 35850, Note_on_c, 0, 55, 0
4, 35856, Note_on_c, 0, 61, 0
4, 35870, Note_on_c, 0, 52, 0
4, 35880, Note_on_c, 0, 64, 70
4, 35880, Note_on_c, 0, 61, 70
4, 35880, Note_on_c, 0, 54, 63
4, 35922, Note_on_c, 0, 64, 0
4, 35923, Note_on_c, 0, 54, 0
4, 35923, Note_on_c, 0, 61, 0
4, 35940, Note_on_c, 0, 52, 48
4, 36000, Note_on_c, 0, 45, 56
4, 36012, Note_on_c, 0, 52, 0
4, 36112, Note_on_c, 0, 45, 0
4, 36120, Note_on_c, 0, 64, 63
4, 36120, Note_on_c, 0, 55, 56
4, 36120, Note_on_c, 0, 49, 63
4, 36120, Note_on_c, 0, 61, 63
4, 36150, Note_on_c, 0, 64, 0
4, 36152, Note_on_c, 0, 55, 0
4, 36155, Note_on_c, 0, 61, 0
4, 36180, Note_on_c, 0, 64, 63
4, 36180, Note_on_c, 0, 55, 56
4, 36180, Note_on_c, 0, 61, 63
4, 36234, Note_on_c, 0, 49, 0
4, 36240, Note_on_c, 0, 52, 56
4, 36334, Note_on_c, 0, 64, 0
4, 36335, Note_on_c, 0, 55, 0
4, 36339, Note_on_c, 0, 61, 0
4, 36352, Note_on_c, 0, 52, 0
4, 36360, Note_on_c, 0, 64, 70
4, 36360, Note_on_c, 0, 61, 70
4, 36360, Note_on_c, 0, 54, 63
4, 36420, Note_on_c, 0, 54, 0
4, 36420, Note_on_c, 0, 52, 68
4, 36474, Note_on_c, 0, 61, 0
4, 36477, Note_on_c, 0, 52, 0
4, 36479, Note_on_c, 0, 64, 0
4, 36480, Note_on_c, 0, 40, 48
4, 36582, Note_on_c, 0, 40, 0
4, 36600, Note_on_c, 0, 64, 56
4, 36600, Note_on_c, 0, 59, 56
4, 36600, Note_on_c, 0, 56, 56
4, 36600, Note_on_c, 0, 52, 48
4, 36600, Note_on_c, 0, 44, 56
4, 36630, Note_on_c, 0, 52, 0
4, 36630, Note_on_c, 0, 59, 0
4, 36633, Note_on_c, 0, 56, 0
4, 36638, Note_on_c, 0, 64, 0
4, 36660, Note_on_c, 0, 56, 48
4, 36660, Note_on_c, 0, 52, 63
4, 36660, Note_on_c, 0, 64, 48
4, 36660, Note_on_c, 0, 59, 63
4, 36710, Note_on_c, 0, 44, 0
4, 36720, Note_on_c, 0, 47, 48
4, 36806, Note_on_c, 0, 52, 0
4, 36815, Note_on_c, 0, 64, 0
4, 36815, Note_on_c, 0, 56, 0
4, 36817, Note_on_c, 0, 59, 0
4, 36837, Note_on_c, 0, 47, 0
4, 36840, Note_on_c, 0, 49, 63
4, 36840, Note_on_c, 0, 64, 48
4, 36840, Note_on_c, 0, 56, 48
4, 36840, Note_on_c, 0, 59, 48
4, 36840, Note_on_c, 0, 52, 63
4, 36890, Note_on_c, 0, 59, 0
4, 36891, Note_on_c, 0, 64, 0
4, 36894, Note_on_c, 0, 56, 0
4, 36898, Note_on_c, 0, 49, 0
4, 36898, Note_on_c, 0, 52, 0
4, 36900, Note_on_c, 0, 47, 56
4, 36960, Note_on_c, 0, 40, 56
4, 36967, Note_on_c, 0, 47, 0
4, 37065, Note_on_c, 0, 40, 0
4, 37080, Note_on_c, 0, 44, 70
4, 37080, Note_on_c, 0, 64, 48
4, 37080, Note_on_c, 0, 52, 56
4, 37080, Note_on_c, 0, 56, 56
4, 37080, Note_on_c, 0, 59, 63
4, 37109, Note_on_c, 0, 64, 0
4, 37110, Note_on_c, 0, 52, 0
4, 37113, Note_on_c, 0, 59, 0
4, 37113, Note_on_c, 0, 56, 0
4, 37140, Note_on_c, 0, 64, 48
4, 37140, Note_on_c, 0, 56, 56
4, 37140, Note_on_c, 0, 59, 56
4, 37140, Note_on_c, 0, 52, 56
4, 37193, Note_on_c, 0, 44, 0
4, 37200, Note_on_c, 0, 47, 56
4, 37290, Note_on_c, 0, 64, 0
4, 37294, Note_on_c, 0, 52, 0
4, 37295, Note_on_c, 0, 59, 0
4, 37296, Note_on_c, 0, 56, 0
4, 37309, Note_on_c, 0, 47, 0
4, 37320, Note_on_c, 0, 64, 63
4, 37320, Note_on_c, 0, 59, 63
4, 37320, Note_on_c, 0, 49, 48
4, 37320, Note_on_c, 0, 56, 63
4, 37320, Note_on_c, 0, 52, 56
4, 37380, Note_on_c, 0, 59, 0
4, 37382, Note_on_c, 0, 52, 0
4, 37391, Note_on_c, 0, 56, 0
4, 37395, Note_on_c, 0, 64, 0
4, 37422, Note_on_c, 0, 49, 0
4, 37440, Note_on_c, 0, 66, 70
4, 37440, Note_on_c, 0, 57, 70
4, 37440, Note_on_c, 0, 47, 63
4, 37440, Note_on_c, 0, 63, 70
4, 37874, Note_on_c, 0, 57, 0
4, 37885, Note_on_c, 0, 66, 0
4, 37887, Note_on_c, 0, 47, 0
4, 37891, Note_on_c, 0, 63, 0
4, 37920, Note_on_c, 0, 58, 48
4, 37920, Note_on_c, 0, 48, 70
4, 37920, Note_on_c, 0, 64, 63
4, 37920, Note_on_c, 0, 67, 70
4, 38123, Note_on_c, 0, 67, 0
4, 38130, Note_on_c, 0, 64, 0
4, 38140, Note_on_c, 0, 48, 0
4, 38146, Note_on_c, 0, 58, 0
4, 38160, Note_on_c, 0, 57, 63
4, 38160, Note_on_c, 0, 66, 63
4, 38160, Note_on_c, 0, 63, 70
4, 38160, Note_on_c, 0, 47, 48
4, 38364, Note_on_c, 0, 63, 0
4, 38374, Note_on_c, 0, 66, 0
4, 38389, Note_on_c, 0, 57, 0
4, 38389, Note_on_c, 0, 47, 0
4, 38400, Note_on_c, 0, 40, 48
4, 38508, Note_on_c, 0, 40, 0
4, 38520, Note_on_c, 0, 44, 63
4, 38520, Note_on_c, 0, 64, 48
4, 38520, Note_on_c, 0, 56, 46
4, 38520, Note_on_c, 0, 59, 48
4, 38520, Note_on_c, 0, 52, 56
4, 38551, Note_on_c, 0, 59, 0
4, 38552, Note_on_c, 0, 52, 0
4, 38553, Note_on_c, 0, 56, 0
4, 38557, Note_on_c, 0, 64, 0
4, 38580, Note_on_c, 0, 59, 46
4, 38580, Note_on_c, 0, 56, 46
4, 38580, Note_on_c, 0, 52, 48
4, 38580, Note_on_c, 0, 64, 48
4, 38634, Note_on_c, 0, 44, 0
4, 38640, Note_on_c, 0, 47, 48
4, 38650, Note_on_c, 0, 59, 0
4, 38652, Note_on_c, 0, 56, 0
4, 38656, Note_on_c, 0, 52, 0
4, 38661, Note_on_c, 0, 64, 0
4, 38758, Note_on_c, 0, 47, 0
4, 38760, Note_on_c, 0, 59, 63
4, 38760, Note_on_c, 0, 56, 63
4, 38760, Note_on_c, 0, 64, 63
4, 38760, Note_on_c, 0, 52, 63
4, 38760, Note_on_c, 0, 49, 56
4, 38811, Note_on_c, 0, 52, 0
4, 38812, Note_on_c, 0, 56, 0
4, 38812, Note_on_c, 0, 59, 0
4, 38814, Note_on_c, 0, 64, 0
4, 38820, Note_on_c, 0, 47, 56
4, 38828, Note_on_c, 0, 49, 0
4, 38875, Note_on_c, 0, 47, 0
4, 38880, Note_on_c, 0, 40, 70
4, 38997, Note_on_c, 0, 40, 0
4, 39000, Note_on_c, 0, 44, 70
4, 39000, Note_on_c, 0, 64, 56
4, 39000, Note_on_c, 0, 56, 56
4, 39000, Note_on_c, 0, 59, 63
4, 39000, Note_on_c, 0, 52, 56
4, 39029, Note_on_c, 0, 59, 0
4, 39031, Note_on_c, 0, 56, 0
4, 39031, Note_on_c, 0, 64, 0
4, 39032, Note_on_c, 0, 52, 0
4, 39060, Note_on_c, 0, 64, 56
4, 39060, Note_on_c, 0, 59, 63
4, 39060, Note_on_c, 0, 56, 48
4, 39060, Note_on_c, 0, 52, 56
4, 39120, Note_on_c, 0, 47, 56
4, 39121, Note_on_c, 0, 44, 0
4, 39202, Note_on_c, 0, 64, 0
4, 39209, Note_on_c, 0, 52, 0
4, 39213, Note_on_c, 0, 59, 0
4, 39215, Note_on_c, 0, 56, 0
4, 39220, Note_on_c, 0, 47, 0
4, 39240, Note_on_c, 0, 64, 56
4, 39240, Note_on_c, 0, 56, 48
4, 39240, Note_on_c, 0, 59, 56
4, 39240, Note_on_c, 0, 49, 56
4, 39240, Note_on_c, 0, 52, 63
4, 39297, Note_on_c, 0, 59, 0
4, 39298, Note_on_c, 0, 56, 0
4, 39300, Note_on_c, 0, 47, 48
4, 39302, Note_on_c, 0, 64, 0
4, 39302, Note_on_c, 0, 52, 0
4, 39302, Note_on_c, 0, 49, 0
4, 39357, Note_on_c, 0, 47, 0
4, 39360, Note_on_c, 0, 52, 70
4, 39457, Note_on_c, 0, 52, 0
4, 39480, Note_on_c, 0, 64, 63
4, 39480, Note_on_c, 0, 59, 63
4, 39480, Note_on_c, 0, 62, 70
4, 39526, Note_on_c, 0, 62, 0
4, 39526, Note_on_c, 0, 64, 0
4, 39527, Note_on_c, 0, 59, 0
4, 39540, Note_on_c, 0, 64, 77
4, 39540, Note_on_c, 0, 62, 77
4, 39540, Note_on_c, 0, 59, 56
4, 39656, Note_on_c, 0, 64, 0
4, 39658, Note_on_c, 0, 62, 0
4, 39660, Note_on_c, 0, 52, 70
4, 39666, Note_on_c, 0, 59, 0
4, 39713, Note_on_c, 0, 52, 0
4, 39720, Note_on_c, 0, 64, 70
4, 39720, Note_on_c, 0, 61, 63
4, 39720, Note_on_c, 0, 57, 70
4, 39759, Note_on_c, 0, 57, 0
4, 39760, Note_on_c, 0, 61, 0
4, 39767, Note_on_c, 0, 64, 0
4, 39780, Note_on_c, 0, 59, 70
4, 39780, Note_on_c, 0, 56, 63
4, 39780, Note_on_c, 0, 64, 56
4, 39835, Note_on_c, 0, 59, 0
4, 39839, Note_on_c, 0, 56, 0
4, 39840, Note_on_c, 0, 52, 70
4, 39844, Note_on_c, 0, 64, 0
4, 39936, Note_on_c, 0, 52, 0
4, 39960, Note_on_c, 0, 64, 63
4, 39960, Note_on_c, 0, 59, 70
4, 39960, Note_on_c, 0, 62, 70
4, 40002, Note_on_c, 0, 64, 0
4, 40004, Note_on_c, 0, 62, 0
4, 40004, Note_on_c, 0, 59, 0
4, 40020, Note_on_c, 0, 64, 63
4, 40020, Note_on_c, 0, 59, 63
4, 40020, Note_on_c, 0, 62, 70
4, 40128, Note_on_c, 0, 62, 0
4, 40129, Note_on_c, 0, 64, 0
4, 40132, Note_on_c, 0, 59, 0
4, 40140, Note_on_c, 0, 52, 48
4, 40195, Note_on_c, 0, 52, 0
4, 40200, Note_on_c, 0, 64, 63
4, 40200, Note_on_c, 0, 57, 63
4, 40200, Note_on_c, 0, 61, 70
4, 40238, Note_on_c, 0, 57, 0
4, 40239, Note_on_c, 0, 61, 0
4, 40243, Note_on_c, 0, 64, 0
4, 40260, Note_on_c, 0, 59, 70
4, 40260, Note_on_c, 0, 64, 56
4, 40260, Note_on_c, 0, 56, 63
4, 40315, Note_on_c, 0, 59, 0
4, 40320, Note_on_c, 0, 52, 70
4, 40322, Note_on_c, 0, 56, 0
4, 40324, Note_on_c, 0, 64, 0
4, 40418, Note_on_c, 0, 52, 0
4, 40440, Note_on_c, 0, 64, 70
4, 40440, Note_on_c, 0, 59, 70
4, 40440, Note_on_c, 0, 62, 70
4, 40477, Note_on_c, 0, 59, 0
4, 40478, Note_on_c, 0, 62, 0
4, 40478, Note_on_c, 0, 64, 0
4, 40500, Note_on_c, 0, 64, 63
4, 40500, Note_on_c, 0, 62, 63
4, 40500, Note_on_c, 0, 59, 70
4, 40610, Note_on_c, 0, 62, 0
4, 40613, Note_on_c, 0, 64, 0
4, 40618, Note_on_c, 0, 59, 0
4, 40620, Note_on_c, 0, 52, 63
4, 40671, Note_on_c, 0, 52, 0
4, 40680, Note_on_c, 0, 64, 70
4, 40680, Note_on_c, 0, 61, 63
4, 40680, Note_on_c, 0, 57, 63
4, 40714, Note_on_c, 0, 61, 0
4, 40715, Note_on_c, 0, 57, 0
4, 40718, Note_on_c, 0, 64, 0
4, 40740, Note_on_c, 0, 59, 63
4, 40740, Note_on_c, 0, 64, 70
4, 40740, Note_on_c, 0, 56, 63
4, 40786, Note_on_c, 0, 59, 0
4, 40798, Note_on_c, 0, 56, 0
4, 40798, Note_on_c, 0, 64, 0
4, 40800, Note_on_c, 0, 52, 70
4, 40906, Note_on_c, 0, 52, 0
4, 40920, Note_on_c, 0, 64, 63
4, 40920, Note_on_c, 0, 59, 70
4, 40920, Note_on_c, 0, 62, 70
4, 40955, Note_on_c, 0, 62, 0
4, 40955, Note_on_c, 0, 59, 0
4, 40955, Note_on_c, 0, 64, 0
4, 40980, Note_on_c, 0, 64, 63
4, 40980, Note_on_c, 0, 59, 63
4, 40980, Note_on_c, 0, 62, 63
4, 41090, Note_on_c, 0, 64, 0
4, 41091, Note_on_c, 0, 62, 0
4, 41098, Note_on_c, 0, 59, 0
4, 41100, Note_on_c, 0, 52, 63
4, 41150, Note_on_c, 0, 52, 0
4, 41160, Note_on_c, 0, 64, 63
4, 41160, Note_on_c, 0, 57, 56
4, 41160, Note_on_c, 0, 61, 70
4, 41194, Note_on_c, 0, 64, 0
4, 41197, Note_on_c, 0, 61, 0
4, 41199, Note_on_c, 0, 57, 0
4, 41220, Note_on_c, 0, 59, 70
4, 41220, Note_on_c, 0, 64, 63
4, 41220, Note_on_c, 0, 56, 63
4, 41269, Note_on_c, 0, 59, 0
4, 41275, Note_on_c, 0, 64, 0
4, 41277, Note_on_c, 0, 56, 0
4, 41280, Note_on_c, 0, 52, 56
4, 41377, Note_on_c, 0, 52, 0
4, 41400, Note_on_c, 0, 64, 63
4, 41400, Note_on_c, 0, 59, 70
4, 41400, Note_on_c, 0, 62, 77
4, 41436, Note_on_c, 0, 62, 0
4, 41436, Note_on_c, 0, 64, 0
4, 41438, Note_on_c, 0, 59, 0
4, 41460, Note_on_c, 0, 64, 56
4, 41460, Note_on_c, 0, 59, 63
4, 41460, Note_on_c, 0, 62, 63
4, 41569, Note_on_c, 0, 62, 0
4, 41569, Note_on_c, 0, 64, 0
4, 41573, Note_on_c, 0, 59, 0
4, 41580, Note_on_c, 0, 52, 70
4, 41627, Note_on_c, 0, 52, 0
4, 41640, Note_on_c, 0, 64, 63
4, 41640, Note_on_c, 0, 57, 70
4, 41640, Note_on_c, 0, 61, 70
4, 41672, Note_on_c, 0, 57, 0
4, 41675, Note_on_c, 0, 64, 0
4, 41676, Note_on_c, 0, 61, 0
4, 41700, Note_on_c, 0, 59, 70
4, 41700, Note_on_c, 0, 56, 63
4, 41700, Note_on_c, 0, 64, 70
4, 41753, Note_on_c, 0, 59, 0
4, 41757, Note_on_c, 0, 56, 0
4, 41758, Note_on_c, 0, 64, 0
4, 41760, Note_on_c, 0, 52, 70
4, 41855, Note_on_c, 0, 52, 0
4, 41880, Note_on_c, 0, 64, 63
4, 41880, Note_on_c, 0, 59, 77
4, 41880, Note_on_c, 0, 62, 70
4, 41913, Note_on_c, 0, 62, 0
4, 41915, Note_on_c, 0, 59, 0
4, 41915, Note_on_c, 0, 64, 0
4, 41940, Note_on_c, 0, 64, 70
4, 41940, Note_on_c, 0, 59, 63
4, 41940, Note_on_c, 0, 62, 63
4, 42051, Note_on_c, 0, 62, 0
4, 42053, Note_on_c, 0, 64, 0
4, 42055, Note_on_c, 0, 59, 0
4, 42060, Note_on_c, 0, 52, 70
4, 42107, Note_on_c, 0, 52, 0
4, 42120, Note_on_c, 0, 64, 70
4, 42120, Note_on_c, 0, 57, 77
4, 42120, Note_on_c, 0, 61, 70
4, 42192, Note_on_c, 0, 64, 0
4, 42196, Note_on_c, 0, 61, 0
4, 42198, Note_on_c, 0, 57, 0
4, 42240, Note_on_c, 0, 59, 70
4, 42240, Note_on_c, 0, 64, 77
4, 42240, Note_on_c, 0, 56, 70
4, 42240, Note_on_c, 0, 52, 70
4, 42285, Note_on_c, 0, 59, 0
4, 42290, Note_on_c, 0, 64, 0
4, 42293, Note_on_c, 0, 56, 0
4, 42293, Note_on_c, 0, 52, 0
4, 42780, Note_on_c, 0, 59, 70
4, 42780, Note_on_c, 0, 64, 63
4, 42780, Note_on_c, 0, 56, 70
4, 42830, Note_on_c, 0, 56, 0
4, 42830, Note_on_c, 0, 64, 0
4, 42830, Note_on_c, 0, 59, 0
4, 42840, Note_on_c, 0, 59, 70
4, 42840, Note_on_c, 0, 56, 63
4, 42840, Note_on_c, 0, 64, 48
4, 42890, Note_on_c, 0, 64, 0
4, 42890, Note_on_c, 0, 56, 0
4, 42890, Note_on_c, 0, 59, 0
4, 42900, Note_on_c, 0, 59, 63
4, 42900, Note_on_c, 0, 64, 56
4, 42900, Note_on_c, 0, 56, 56
4, 42950, Note_on_c, 0, 56, 0
4, 42950, Note_on_c, 0, 64, 0
4, 42950, Note_on_c, 0, 59, 0
4, 42960, Note_on_c, 0, 59, 63
4, 42960, Note_on_c, 0, 64, 63
4, 42960, Note_on_c, 0, 56, 70
4, 43010, Note_on_c, 0, 56, 0
4, 43010, Note_on_c, 0, 64, 0
4, 43010, Note_on_c, 0, 59, 0
4, 43020, Note_on_c, 0, 59, 70
4, 43020, Note_on_c, 0, 64, 56
4, 43020, Note_on_c, 0, 56, 56
4, 43070, Note_on_c, 0, 56, 0
4, 43070, Note_on_c, 0, 64, 0
4, 43070, Note_on_c, 0, 59, 0
4, 43080, Note_on_c, 0, 64, 56
4, 43080, Note_on_c, 0, 59, 63
4, 43080, Note_on_c, 0, 56, 63
4, 43130, Note_on_c, 0, 56, 0
4, 43130, Note_on_c, 0, 59, 0
4, 43130, Note_on_c, 0, 64, 0
4, 43140, Note_on_c, 0, 64, 48
4, 43140, Note_on_c, 0, 56, 46
4, 43140, Note_on_c, 0, 59, 63
4, 43190, Note_on_c, 0, 59, 0
4, 43190, Note_on_c, 0, 56, 0
4, 43190, Note_on_c, 0, 64, 0
4, 43200, Note_on_c, 0, 64, 63
4, 43200, Note_on_c, 0, 59, 63
4, 43200, Note_on_c, 0, 56, 70
4, 43250, Note_on_c, 0, 56, 0
4, 43250, Note_on_c, 0, 59, 0
4, 43250, Note_on_c, 0, 64, 0
4, 43680, Note_on_c, 0, 40, 70
4, 43797, Note_on_c, 0, 40, 0
4, 43800, Note_on_c, 0, 44, 70
4, 43800, Note_on_c, 0, 64, 56
4, 43800, Note_on_c, 0, 56, 56
4, 43800, Note_on_c, 0, 59, 63
4, 43800, Note_on_c, 0, 52, 56
4, 43829, Note_on_c, 0, 59, 0
4, 43831, Note_on_c, 0, 56, 0
4, 43831, Note_on_c, 0, 64, 0
4, 43832, Note_on_c, 0, 52, 0
4, 43860, Note_on_c, 0, 64, 56
4, 43860, Note_on_c, 0, 59, 63
4, 43860, Note_on_c, 0, 56, 48
4, 43860, Note_on_c, 0, 52, 56
4, 43920, Note_on_c, 0, 47, 56
4, 43921, Note_on_c, 0, 44, 0
4, 44002, Note_on_c, 0, 64, 0
4, 44009, Note_on_c, 0, 52, 0
4, 44013, Note_on_c, 0, 59, 0
4, 44015, Note_on_c, 0, 56, 0
4, 44020, Note_on_c, 0, 47, 0
4, 44040, Note_on_c, 0, 64, 56
4, 44040, Note_on_c, 0, 56, 48
4, 44040, Note_on_c, 0, 59, 56
4, 44040, Note_on_c, 0, 49, 56
4, 44040, Note_on_c, 0, 52, 63
4, 44097, Note_on_c, 0, 59, 0
4, 44098, Note_on_c, 0, 56, 0
4, 44100, Note_on_c, 0, 47, 48
4, 44102, Note_on_c, 0, 64, 0
4, 44102, Note_on_c, 0, 52, 0
4, 44102, Note_on_c, 0, 49, 0
4, 44157, Note_on_c, 0, 47, 0
4, 44160, Note_on_c, 0, 40, 56
4, 44272, Note_on_c, 0, 40, 0
4, 44280, Note_on_c, 0, 64, 48
4, 44280, Note_on_c, 0, 44, 63
4, 44280, Note_on_c, 0, 56, 70
4, 44280, Note_on_c, 0, 59, 63
4, 44280, Note_on_c, 0, 52, 63
4, 44307, Note_on_c, 0, 59, 0
4, 44308, Note_on_c, 0, 56, 0
4, 44309, Note_on_c, 0, 52, 0
4, 44312, Note_on_c, 0, 64, 0
4, 44340, Note_on_c, 0, 64, 48
4, 44340, Note_on_c, 0, 56, 63
4, 44340, Note_on_c, 0, 52, 56
4, 44340, Note_on_c, 0, 59, 63
4, 44397, Note_on_c, 0, 44, 0
4, 44400, Note_on_c, 0, 47, 48
4, 44497, Note_on_c, 0, 52, 0
4, 44498, Note_on_c, 0, 64, 0
4, 44502, Note_on_c, 0, 56, 0
4, 44503, Note_on_c, 0, 59, 0
4, 44514, Note_on_c, 0, 47, 0
4, 44520, Note_on_c, 0, 49, 48
4, 44520, Note_on_c, 0, 59, 63
4, 44520, Note_on_c, 0, 64, 56
4, 44520, Note_on_c, 0, 56, 48
4, 44520, Note_on_c, 0, 52, 63
4, 44574, Note_on_c, 0, 59, 0
4, 44580, Note_on_c, 0, 47, 48
4, 44581, Note_on_c, 0, 56, 0
4, 44582, Note_on_c, 0, 52, 0
4, 44582, Note_on_c, 0, 49, 0
4, 44583, Note_on_c, 0, 64, 0
4, 44640, Note_on_c, 0, 40, 48
4, 44642, Note_on_c, 0, 47, 0
4, 44754, Note_on_c, 0, 40, 0
4, 44760, Note_on_c, 0, 56, 63
4, 44760, Note_on_c, 0, 59, 63
4, 44760, Note_on_c, 0, 64, 48
4, 44760, Note_on_c, 0, 52, 56
4, 44760, Note_on_c, 0, 44, 70
4, 44786, Note_on_c, 0, 59, 0
4, 44790, Note_on_c, 0, 52, 0
4, 44790, Note_on_c, 0, 56, 0
4, 44792, Note_on_c, 0, 64, 0
4, 44820, Note_on_c, 0, 64, 48
4, 44820, Note_on_c, 0, 59, 56
4, 44820, Note_on_c, 0, 56, 56
4, 44820, Note_on_c, 0, 52, 56
4, 44879, Note_on_c, 0, 44, 0
4, 44880, Note_on_c, 0, 47, 56
4, 44970, Note_on_c, 0, 56, 0
4, 44970, Note_on_c, 0, 52, 0
4, 44970, Note_on_c, 0, 64, 0
4, 44970, Note_on_c, 0, 59, 0
4, 44992, Note_on_c, 0, 47, 0
4, 45000, Note_on_c, 0, 49, 70
4, 45000, Note_on_c, 0, 59, 48
4, 45000, Note_on_c, 0, 52, 63
4, 45000, Note_on_c, 0, 64, 56
4, 45000, Note_on_c, 0, 56, 56
4, 45044, Note_on_c, 0, 59, 0
4, 45045, Note_on_c, 0, 52, 0
4, 45047, Note_on_c, 0, 64, 0
4, 45049, Note_on_c, 0, 56, 0
4, 45052, Note_on_c, 0, 49, 0
4, 45060, Note_on_c, 0, 47, 40
4, 45120, Note_on_c, 0, 40, 56
4, 45130, Note_on_c, 0, 47, 0
4, 45224, Note_on_c, 0, 40, 0
4, 45240, Note_on_c, 0, 56, 63
4, 45240, Note_on_c, 0, 52, 56
4, 45240, Note_on_c, 0, 59, 63
4, 45240, Note_on_c, 0, 64, 56
4, 45240, Note_on_c, 0, 44, 63
4, 45265, Note_on_c, 0, 52, 0
4, 45267, Note_on_c, 0, 56, 0
4, 45267, Note_on_c, 0, 59, 0
4, 45275, Note_on_c, 0, 64, 0
4, 45300, Note_on_c, 0, 59, 56
4, 45300, Note_on_c, 0, 64, 48
4, 45300, Note_on_c, 0, 56, 56
4, 45300, Note_on_c, 0, 52, 56
4, 45359, Note_on_c, 0, 44, 0
4, 45360, Note_on_c, 0, 47, 46
4, 45443, Note_on_c, 0, 52, 0
4, 45446, Note_on_c, 0, 59, 0
4, 45446, Note_on_c, 0, 64, 0
4, 45451, Note_on_c, 0, 56, 0
4, 45462, Note_on_c, 0, 47, 0
4, 45480, Note_on_c, 0, 56, 48
4, 45480, Note_on_c, 0, 52, 63
4, 45480, Note_on_c, 0, 64, 48
4, 45480, Note_on_c, 0, 59, 56
4, 45480, Note_on_c, 0, 49, 48
4, 45523, Note_on_c, 0, 52, 0
4, 45526, Note_on_c, 0, 59, 0
4, 45529, Note_on_c, 0, 56, 0
4, 45535, Note_on_c, 0, 64, 0
4, 45540, Note_on_c, 0, 47, 46
4, 45543, Note_on_c, 0, 49, 0
4, 45588, Note_on_c, 0, 47, 0
4, 45600, Note_on_c, 0, 45, 56
4, 45719, Note_on_c, 0, 45, 0
4, 45720, Note_on_c, 0, 49, 70
4, 45720, Note_on_c, 0, 64, 70
4, 45720, Note_on_c, 0, 55, 56
4, 45720, Note_on_c, 0, 61, 63
4, 45757, Note_on_c, 0, 55, 0
4, 45758, Note_on_c, 0, 64, 0
4, 45761, Note_on_c, 0, 61, 0
4, 45780, Note_on_c, 0, 64, 63
4, 45780, Note_on_c, 0, 55, 48
4, 45780, Note_on_c, 0, 61, 63
4, 45832, Note_on_c, 0, 49, 0
4, 45840, Note_on_c, 0, 52, 56
4, 45928, Note_on_c, 0, 64, 0
4, 45930, Note_on_c, 0, 55, 0
4, 45936, Note_on_c, 0, 61, 0
4, 45950, Note_on_c, 0, 52, 0
4, 45960, Note_on_c, 0, 64, 70
4, 45960, Note_on_c, 0, 61, 70
4, 45960, Note_on_c, 0, 54, 63
4, 46002, Note_on_c, 0, 64, 0
4, 46003, Note_on_c, 0, 54, 0
4, 46003, Note_on_c, 0, 61, 0
4, 46020, Note_on_c, 0, 52, 48
4, 46080, Note_on_c, 0, 45, 56
4, 46092, Note_on_c, 0, 52, 0
4, 46192, Note_on_c, 0, 45, 0
4, 46200, Note_on_c, 0, 64, 63
4, 46200, Note_on_c, 0, 55, 56
4, 46200, Note_on_c, 0, 49, 63
4, 46200, Note_on_c, 0, 61, 63
4, 46230, Note_on_c, 0, 64, 0
4, 46232, Note_on_c, 0, 55, 0
4, 46235, Note_on_c, 0, 61, 0
4, 46260, Note_on_c, 0, 64, 63
4, 46260, Note_on_c, 0, 55, 56
4, 46260, Note_on_c, 0, 61, 63
4, 46314, Note_on_c, 0, 49, 0
4, 46320, Note_on_c, 0, 52, 56
4, 46414, Note_on_c, 0, 64, 0
4, 46415, Note_on_c, 0, 55, 0
4, 46419, Note_on_c, 0, 61, 0
4, 46432, Note_on_c, 0, 52, 0
4, 46440, Note_on_c, 0, 64, 70
4, 46440, Note_on_c, 0, 61, 70
4, 46440, Note_on_c, 0, 54, 63
4, 46500, Note_on_c, 0, 54, 0
4, 46500, Note_on_c, 0, 52, 70
4, 46554, Note_on_c, 0, 61, 0
4, 46557, Note_on_c, 0, 52, 0
4, 46559, Note_on_c, 0, 64, 0
4, 46560, Note_on_c, 0, 40, 48
4, 46662, Note_on_c, 0, 40, 0
4, 46680, Note_on_c, 0, 64, 56
4, 46680, Note_on_c, 0, 59, 56
4, 46680, Note_on_c, 0, 56, 56
4, 46680, Note_on_c, 0, 52, 48
4, 46680, Note_on_c, 0, 44, 56
4, 46710, Note_on_c, 0, 52, 0
4, 46710, Note_on_c, 0, 59, 0
4, 46713, Note_on_c, 0, 56, 0
4, 46718, Note_on_c, 0, 64, 0
4, 46740, Note_on_c, 0, 56, 48
4, 46740, Note_on_c, 0, 52, 63
4, 46740, Note_on_c, 0, 64, 48
4, 46740, Note_on_c, 0, 59, 63
4, 46790, Note_on_c, 0, 44, 0
4, 46800, Note_on_c, 0, 47, 48
4, 46886, Note_on_c, 0, 52, 0
4, 46895, Note_on_c, 0, 64, 0
4, 46895, Note_on_c, 0, 56, 0
4, 46897, Note_on_c, 0, 59, 0
4, 46917, Note_on_c, 0, 47, 0
4, 46920, Note_on_c, 0, 49, 63
4, 46920, Note_on_c, 0, 64, 48
4, 46920, Note_on_c, 0, 56, 48
4, 46920, Note_on_c, 0, 59, 48
4, 46920, Note_on_c, 0, 52, 63
4, 46970, Note_on_c, 0, 59, 0
4, 46971, Note_on_c, 0, 64, 0
4, 46974, Note_on_c, 0, 56, 0
4, 46978, Note_on_c, 0, 49, 0
4, 46978, Note_on_c, 0, 52, 0
4, 46980, Note_on_c, 0, 47, 56
4, 47040, Note_on_c, 0, 40, 56
4, 47047, Note_on_c, 0, 47, 0
4, 47145, Note_on_c, 0, 40, 0
4, 47160, Note_on_c, 0, 44, 70
4, 47160, Note_on_c, 0, 64, 48
4, 47160, Note_on_c, 0, 52, 56
4, 47160, Note_on_c, 0, 56, 56
4, 47160, Note_on_c, 0, 59, 63
4, 47189, Note_on_c, 0, 64, 0
4, 47190, Note_on_c, 0, 52, 0
4, 47193, Note_on_c, 0, 59, 0
4, 47193, Note_on_c, 0, 56, 0
4, 47220, Note_on_c, 0, 64, 48
4, 47220, Note_on_c, 0, 56, 56
4, 47220, Note_on_c, 0, 59, 56
4, 47220, Note_on_c, 0, 52, 56
4, 47273, Note_on_c, 0, 44, 0
4, 47280, Note_on_c, 0, 47, 56
4, 47370, Note_on_c, 0, 64, 0
4, 47374, Note_on_c, 0, 52, 0
4, 47375, Note_on_c, 0, 59, 0
4, 47376, Note_on_c, 0, 56, 0
4, 47389, Note_on_c, 0, 47, 0
4, 47400, Note_on_c, 0, 64, 63
4, 47400, Note_on_c, 0, 59, 63
4, 47400, Note_on_c, 0, 49, 48
4, 47400, Note_on_c, 0, 56, 63
4, 47400, Note_on_c, 0, 52, 56
4, 47460, Note_on_c, 0, 59, 0
4, 47462, Note_on_c, 0, 52, 0
4, 47471, Note_on_c, 0, 56, 0
4, 47475, Note_on_c, 0, 64, 0
4, 47502, Note_on_c, 0, 49, 0
4, 47520, Note_on_c, 0, 66, 70
4, 47520, Note_on_c, 0, 57, 70
4, 47520, Note_on_c, 0, 47, 63
4, 47520, Note_on_c, 0, 63, 70
4, 47954, Note_on_c, 0, 57, 0
4, 47965, Note_on_c, 0, 66, 0
4, 47967, Note_on_c, 0, 47, 0
4, 47971, Note_on_c, 0, 63, 0
4, 48000, Note_on_c, 0, 58, 48
4, 48000, Note_on_c, 0, 48, 70
4, 48000, Note_on_c, 0, 64, 63
4, 48000, Note_on_c, 0, 67, 70
4, 48203, Note_on_c, 0, 67, 0
4, 48210, Note_on_c, 0, 64, 0
4, 48220, Note_on_c, 0, 48, 0
4, 48226, Note_on_c, 0, 58, 0
4, 48240, Note_on_c, 0, 57, 63
4, 48240, Note_on_c, 0, 66, 63
4, 48240, Note_on_c, 0, 63, 70
4, 48240, Note_on_c, 0, 47, 48
4, 48444, Note_on_c, 0, 63, 0
4, 48454, Note_on_c, 0, 66, 0
4, 48469, Note_on_c, 0, 57, 0
4, 48469, Note_on_c, 0, 47, 0
4, 48480, Note_on_c, 0, 40, 48
4, 48588, Note_on_c, 0, 40, 0
4, 48600, Note_on_c, 0, 44, 63
4, 48600, Note_on_c, 0, 64, 48
4, 48600, Note_on_c, 0, 56, 46
4, 48600, Note_on_c, 0, 59, 48
4, 48600, Note_on_c, 0, 52, 56
4, 48631, Note_on_c, 0, 59, 0
4, 48632, Note_on_c, 0, 52, 0
4, 48633, Note_on_c, 0, 56, 0
4, 48637, Note_on_c, 0, 64, 0
4, 48660, Note_on_c, 0, 59, 46
4, 48660, Note_on_c, 0, 56, 46
4, 48660, Note_on_c, 0, 52, 48
4, 48660, Note_on_c, 0, 64, 48
4, 48714, Note_on_c, 0, 44, 0
4, 48720, Note_on_c, 0, 47, 48
4, 48730, Note_on_c, 0, 59, 0
4, 48732, Note_on_c, 0, 56, 0
4, 48736, Note_on_c, 0, 52, 0
4, 48741, Note_on_c, 0, 64, 0
4, 48838, Note_on_c, 0, 47, 0
4, 48840, Note_on_c, 0, 59, 63
4, 48840, Note_on_c, 0, 56, 63
4, 48840, Note_on_c, 0, 64, 63
4, 48840, Note_on_c, 0, 52, 63
4, 48840, Note_on_c, 0, 49, 56
4, 48891, Note_on_c, 0, 52, 0
4, 48892, Note_on_c, 0, 56, 0
4, 48892, Note_on_c, 0, 59, 0
4, 48894, Note_on_c, 0, 64, 0
4, 48900, Note_on_c, 0, 47, 56
4, 48908, Note_on_c, 0, 49, 0
4, 48955, Note_on_c, 0, 47, 0
4, 48960, Note_on_c, 0, 40, 70
4, 49077, Note_on_c, 0, 40, 0
4, 49080, Note_on_c, 0, 44, 70
4, 49080, Note_on_c, 0, 64, 56
4, 49080, Note_on_c, 0, 56, 56
4, 49080, Note_on_c, 0, 59, 63
4, 49080, Note_on_c, 0, 52, 56
4, 49109, Note_on_c, 0, 59, 0
4, 49111, Note_on_c, 0, 56, 0
4, 49111, Note_on_c, 0, 64, 0
4, 49112, Note_on_c, 0, 52, 0
4, 49140, Note_on_c, 0, 64, 56
4, 49140, Note_on_c, 0, 59, 63
4, 49140, Note_on_c, 0, 56, 48
4, 49140, Note_on_c, 0, 52, 56
4, 49200, Note_on_c, 0, 47, 56
4, 49201, Note_on_c, 0, 44, 0
4, 49282, Note_on_c, 0, 64, 0
4, 49289, Note_on_c, 0, 52, 0
4, 49293, Note_on_c, 0, 59, 0
4, 49295, Note_on_c, 0, 56, 0
4, 49300, Note_on_c, 0, 47, 0
4, 49320, Note_on_c, 0, 64, 56
4, 49320, Note_on_c, 0, 56, 48
4, 49320, Note_on_c, 0, 59, 56
4, 49320, Note_on_c, 0, 49, 56
4, 49320, Note_on_c, 0, 52, 63
4, 49377, Note_on_c, 0, 59, 0
4, 49378, Note_on_c, 0, 56, 0
4, 49380, Note_on_c, 0, 47, 48
4, 49382, Note_on_c, 0, 64, 0
4, 49382, Note_on_c, 0, 52, 0
4, 49382, Note_on_c, 0, 49, 0
4, 49437, Note_on_c, 0, 47, 0
4, 49440, Note_on_c, 0, 66, 70
4, 49440, Note_on_c, 0, 57, 70
4, 49440, Note_on_c, 0, 47, 63
4, 49440, Note_on_c, 0, 63, 70
4, 49874, Note_on_c, 0, 57, 0
4, 49885, Note_on_c, 0, 66, 0
4, 49887, Note_on_c, 0, 47, 0
4, 49891, Note_on_c, 0, 63, 0
4, 49920, Note_on_c, 0, 58, 48
4, 49920, Note_on_c, 0, 48, 70
4, 49920, Note_on_c, 0, 64, 63
4, 49920, Note_on_c, 0, 67, 70
4, 50123, Note_on_c, 0, 67, 0
4, 50130, Note_on_c, 0, 64, 0
4, 50140, Note_on_c, 0, 48, 0
4, 50146, Note_on_c, 0, 58, 0
4, 50160, Note_on_c, 0, 57, 63
4, 50160, Note_on_c, 0, 66, 63
4, 50160, Note_on_c, 0, 63, 70
4, 50160, Note_on_c, 0, 47, 48
4, 50364, Note_on_c, 0, 63, 0
4, 50374, Note_on_c, 0, 66, 0
4, 50389, Note_on_c, 0, 57, 0
4, 50389, Note_on_c, 0, 47, 0
4, 50400, Note_on_c, 0, 40, 48
4, 50508, Note_on_c, 0, 40, 0
4, 50520, Note_on_c, 0, 44, 63
4, 50520, Note_on_c, 0, 64, 48
4, 50520, Note_on_c, 0, 56, 46
4, 50520, Note_on_c, 0, 59, 48
4, 50520, Note_on_c, 0, 52, 56
4, 50551, Note_on_c, 0, 59, 0
4, 50552, Note_on_c, 0, 52, 0
4, 50553, Note_on_c, 0, 56, 0
4, 50557, Note_on_c, 0, 64, 0
4, 50580, Note_on_c, 0, 59, 46
4, 50580, Note_on_c, 0, 56, 46
4, 50580, Note_on_c, 0, 52, 48
4, 50580, Note_on_c, 0, 64, 48
4, 50634, Note_on_c, 0, 44, 0
4, 50640, Note_on_c, 0, 47, 48
4, 50650, Note_on_c, 0, 59, 0
4, 50652, Note_on_c, 0, 56, 0
4, 50656, Note_on_c, 0, 52, 0
4, 50661, Note_on_c, 0, 64, 0
4, 50758, Note_on_c, 0, 47, 0
4, 50760, Note_on_c, 0, 59, 63
4, 50760, Note_on_c, 0, 56, 63
4, 50760, Note_on_c, 0, 64, 63
4, 50760, Note_on_c, 0, 52, 63
4, 50760, Note_on_c, 0, 49, 56
4, 50811, Note_on_c, 0, 52, 0
4, 50812, Note_on_c, 0, 56, 0
4, 50812, Note_on_c, 0, 59, 0
4, 50814, Note_on_c, 0, 64, 0
4, 50820, Note_on_c, 0, 47, 56
4, 50828, Note_on_c, 0, 49, 0
4, 50875, Note_on_c, 0, 47, 0
4, 50880, Note_on_c, 0, 40, 70
4, 50997, Note_on_c, 0, 40, 0
4, 51000, Note_on_c, 0, 44, 70
4, 51000, Note_on_c, 0, 64, 56
4, 51000, Note_on_c, 0, 56, 56
4, 51000, Note_on_c, 0, 59, 63
4, 51000, Note_on_c, 0, 52, 56
4, 51029, Note_on_c, 0, 59, 0
4, 51031, Note_on_c, 0, 56, 0
4, 51031, Note_on_c, 0, 64, 0
4, 51032, Note_on_c, 0, 52, 0
4, 51060, Note_on_c, 0, 64, 56
4, 51060, Note_on_c, 0, 59, 63
4, 51060, Note_on_c, 0, 56, 48
4, 51060, Note_on_c, 0, 52, 56
4, 51120, Note_on_c, 0, 47, 56
4, 51121, Note_on_c, 0, 44, 0
4, 51202, Note_on_c, 0, 64, 0
4, 51209, Note_on_c, 0, 52, 0
4, 51213, Note_on_c, 0, 59, 0
4, 51215, Note_on_c, 0, 56, 0
4, 51220, Note_on_c, 0, 47, 0
4, 51240, Note_on_c, 0, 64, 56
4, 51240, Note_on_c, 0, 56, 48
4, 51240, Note_on_c, 0, 59, 56
4, 51240, Note_on_c, 0, 49, 56
4, 51240, Note_on_c, 0, 52, 63
4, 51297, Note_on_c, 0, 59, 0
4, 51298, Note_on_c, 0, 56, 0
4, 51300, Note_on_c, 0, 47, 48
4, 51302, Note_on_c, 0, 64, 0
4, 51302, Note_on_c, 0, 52, 0
4, 51302, Note_on_c, 0, 49, 0
4, 51357, Note_on_c, 0, 47, 0
4, 51360, Note_on_c, 0, 66, 70
4, 51360, Note_on_c, 0, 57, 70
4, 51360, Note_on_c, 0, 47, 63
4, 51360, Note_on_c, 0, 63, 70
4, 51794, Note_on_c, 0, 57, 0
4, 51805, Note_on_c, 0, 66, 0
4, 51807, Note_on_c, 0, 47, 0
4, 51811, Note_on_c, 0, 63, 0
4, 51840, Note_on_c, 0, 58, 48
4, 51840, Note_on_c, 0, 48, 70
4, 51840, Note_on_c, 0, 64, 63
4, 51840, Note_on_c, 0, 67, 70
4, 52043, Note_on_c, 0, 67, 0
4, 52050, Note_on_c, 0, 64, 0
4, 52060, Note_on_c, 0, 48, 0
4, 52066, Note_on_c, 0, 58, 0
4, 52080, Note_on_c, 0, 57, 63
4, 52080, Note_on_c, 0, 66, 63
4, 52080, Note_on_c, 0, 63, 70
4, 52080, Note_on_c, 0, 47, 48
4, 52284, Note_on_c, 0, 63, 0
4, 52294, Note_on_c, 0, 66, 0
4, 52309, Note_on_c, 0, 57, 0
4, 52309, Note_on_c, 0, 47, 0
4, 52380, Note_on_c, 0, 59, 70
4, 52380, Note_on_c, 0, 64, 63
4, 52380, Note_on_c, 0, 56, 70
4, 52430, Note_on_c, 0, 56, 0
4, 52430, Note_on_c, 0, 64, 0
4, 52430, Note_on_c, 0, 59, 0
4, 52440, Note_on_c, 0, 59, 70
4, 52440, Note_on_c, 0, 56, 63
4, 52440, Note_on_c, 0, 64, 48
4, 52490, Note_on_c, 0, 64, 0
4, 52490, Note_on_c, 0, 56, 0
4, 52490, Note_on_c, 0, 59, 0
4, 52500, Note_on_c, 0, 59, 63
4, 52500, Note_on_c, 0, 64, 56
4, 52500, Note_on_c, 0, 56, 56
4, 52550, Note_on_c, 0, 56, 0
4, 52550, Note_on_c, 0, 64, 0
4, 52550, Note_on_c, 0, 59, 0
4, 52560, Note_on_c, 0, 59, 63
4, 52560, Note_on_c, 0, 64, 63
4, 52560, Note_on_c, 0, 56, 70
4, 52610, Note_on_c, 0, 56, 0
4, 52610, Note_on_c, 0, 64, 0
4, 52610, Note_on_c, 0, 59, 0
4, 52620, Note_on_c, 0, 59, 70
4, 52620, Note_on_c, 0, 64, 56
4, 52620, Note_on_c, 0, 56, 56
4, 52670, Note_on_c, 0, 56, 0
4, 52670, Note_on_c, 0, 64, 0
4, 52670, Note_on_c, 0, 59, 0
4, 52680, Note_on_c, 0, 64, 56
4, 52680, Note_on_c, 0, 59, 63
4, 52680, Note_on_c, 0, 56, 63
4, 52730, Note_on_c, 0, 56, 0
4, 52730, Note_on_c, 0, 59, 0
4, 52730, Note_on_c, 0, 64, 0
4, 52740, Note_on_c, 0, 64, 48
4, 52740, Note_on_c, 0, 56, 46
4, 52740, Note_on_c, 0, 59, 63
4, 52790, Note_on_c, 0, 59, 0
4, 52790, Note_on_c, 0, 56, 0
4, 52790, Note_on_c, 0, 64, 0
4, 52800, Note_on_c, 0, 64, 63
4, 52800, Note_on_c, 0, 59, 63
4, 52800, Note_on_c, 0, 56, 70
4, 52850, Note_on_c, 0, 56, 0
4, 52850, Note_on_c, 0, 59, 0
4, 52850, Note_on_c, 0, 64, 0
4, 52850, End_track
5, 0, Start_track
5, 0, MIDI_port, 0
5, 0, Program_c, 1, 25
5, 0, Control_c, 1, 0, 0
5, 131, Control_c, 1, 7, 127
5, 131, Control_c, 1, 10, 55
5, 1020, Note_on_c, 1, 56, 54
5, 1020, Note_on_c, 1, 59, 54
5, 1020, Note_on_c, 1, 64, 49
5, 1070, Note_on_c, 1, 64, 0
5, 1070, Note_on_c, 1, 59, 0
5, 1070, Note_on_c, 1, 56, 0
5, 1080, Note_on_c, 1, 64, 38
5, 1080, Note_on_c, 1, 56, 49
5, 1080, Note_on_c, 1, 59, 54
5, 1130, Note_on_c, 1, 59, 0
5, 1130, Note_on_c, 1, 56, 0
5, 1130, Note_on_c, 1, 64, 0
5, 1140, Note_on_c, 1, 56, 44
5, 1140, Note_on_c, 1, 64, 44
5, 1140, Note_on_c, 1, 59, 49
5, 1190, Note_on_c, 1, 59, 0
5, 1190, Note_on_c, 1, 64, 0
5, 1190, Note_on_c, 1, 56, 0
5, 1200, Note_on_c, 1, 56, 54
5, 1200, Note_on_c, 1, 64, 49
5, 1200, Note_on_c, 1, 59, 49
5, 1250, Note_on_c, 1, 59, 0
5, 1250, Note_on_c, 1, 64, 0
5, 1250, Note_on_c, 1, 56, 0
5, 1260, Note_on_c, 1, 56, 44
5, 1260, Note_on_c, 1, 64, 44
5, 1260, Note_on_c, 1, 59, 54
5, 1310, Note_on_c, 1, 59, 0
5, 1310, Note_on_c, 1, 64, 0
5, 1310, Note_on_c, 1, 56, 0
5, 1320, Note_on_c, 1, 56, 49
5, 1320, Note_on_c, 1, 59, 49
5, 1320, Note_on_c, 1, 64, 44
5, 1370, Note_on_c, 1, 64, 0
5, 1370, Note_on_c, 1, 59, 0
5, 1370, Note_on_c, 1, 56, 0
5, 1380, Note_on_c, 1, 59, 49
5, 1380, Note_on_c, 1, 56, 36
5, 1380, Note_on_c, 1, 64, 38
5, 1430, Note_on_c, 1, 64, 0
5, 1430, Note_on_c, 1, 56, 0
5, 1430, Note_on_c, 1, 59, 0
5, 1440, Note_on_c, 1, 64, 49
5, 1440, Note_on_c, 1, 59, 49
5, 1440, Note_on_c, 1, 56, 54
5, 1490, Note_on_c, 1, 56, 0
5, 1490, Note_on_c, 1, 59, 0
5, 1490, Note_on_c, 1, 64, 0
5, 1920, Note_on_c, 1, 56, 49
5, 1920, Note_on_c, 1, 59, 49
5, 1920, Note_on_c, 1, 64, 49
5, 1975, Note_on_c, 1, 59, 0
5, 1975, Note_on_c, 1, 56, 0
5, 1980, Note_on_c, 1, 59, 44
5, 1980, Note_on_c, 1, 56, 48
5, 2015, Note_on_c, 1, 64, 0
5, 2035, Note_on_c, 1, 56, 0
5, 2035, Note_on_c, 1, 59, 0
5, 2040, Note_on_c, 1, 56, 49
5, 2040, Note_on_c, 1, 59, 49
5, 2040, Note_on_c, 1, 64, 49
5, 2095, Note_on_c, 1, 59, 0
5, 2095, Note_on_c, 1, 56, 0
5, 2100, Note_on_c, 1, 59, 34
5, 2100, Note_on_c, 1, 56, 44
5, 2130, Note_on_c, 1, 64, 0
5, 2155, Note_on_c, 1, 56, 0
5, 2155, Note_on_c, 1, 59, 0
5, 2160, Note_on_c, 1, 56, 38
5, 2160, Note_on_c, 1, 59, 49
5, 2160, Note_on_c, 1, 64, 44
5, 2215, Note_on_c, 1, 59, 0
5, 2215, Note_on_c, 1, 56, 0
5, 2220, Note_on_c, 1, 59, 38
5, 2220, Note_on_c, 1, 56, 54
5, 2250, Note_on_c, 1, 64, 0
5, 2275, Note_on_c, 1, 56, 0
5, 2275, Note_on_c, 1, 59, 0
5, 2280, Note_on_c, 1, 59, 54
5, 2280, Note_on_c, 1, 56, 54
5, 2280, Note_on_c, 1, 64, 54
5, 2330, Note_on_c, 1, 64, 0
5, 2335, Note_on_c, 1, 56, 0
5, 2335, Note_on_c, 1, 59, 0
5, 2340, Note_on_c, 1, 56, 49
5, 2340, Note_on_c, 1, 59, 49
5, 2340, Note_on_c, 1, 64, 44
5, 2367, Note_on_c, 1, 64, 0
5, 2395, Note_on_c, 1, 59, 0
5, 2395, Note_on_c, 1, 56, 0
5, 2400, Note_on_c, 1, 56, 49
5, 2400, Note_on_c, 1, 59, 49
5, 2400, Note_on_c, 1, 64, 49
5, 2455, Note_on_c, 1, 59, 0
5, 2455, Note_on_c, 1, 56, 0
5, 2460, Note_on_c, 1, 59, 44
5, 2460, Note_on_c, 1, 56, 48
5, 2500, Note_on_c, 1, 64, 0
5, 2515, Note_on_c, 1, 56, 0
5, 2515, Note_on_c, 1, 59, 0
5, 2520, Note_on_c, 1, 56, 49
5, 2520, Note_on_c, 1, 59, 49
5, 2520, Note_on_c, 1, 64, 49
5, 2575, Note_on_c, 1, 59, 0
5, 2575, Note_on_c, 1, 56, 0
5, 2580, Note_on_c, 1, 59, 34
5, 2580, Note_on_c, 1, 56, 44
5, 2611, Note_on_c, 1, 64, 0
5, 2635, Note_on_c, 1, 56, 0
5, 2635, Note_on_c, 1, 59, 0
5, 2640, Note_on_c, 1, 56, 38
5, 2640, Note_on_c, 1, 59, 49
5, 2640, Note_on_c, 1, 64, 44
5, 2695, Note_on_c, 1, 59, 0
5, 2695, Note_on_c, 1, 56, 0
5, 2700, Note_on_c, 1, 59, 38
5, 2700, Note_on_c, 1, 56, 54
5, 2740, Note_on_c, 1, 64, 0
5, 2755, Note_on_c, 1, 56, 0
5, 2755, Note_on_c, 1, 59, 0
5, 2760, Note_on_c, 1, 59, 54
5, 2760, Note_on_c, 1, 56, 54
5, 2760, Note_on_c, 1, 64, 54
5, 2810, Note_on_c, 1, 64, 0
5, 2815, Note_on_c, 1, 56, 0
5, 2815, Note_on_c, 1, 59, 0
5, 2820, Note_on_c, 1, 56, 49
5, 2820, Note_on_c, 1, 59, 49
5, 2820, Note_on_c, 1, 64, 44
5, 2847, Note_on_c, 1, 64, 0
5, 2875, Note_on_c, 1, 59, 0
5, 2875, Note_on_c, 1, 56, 0
5, 2880, Note_on_c, 1, 56, 49
5, 2880, Note_on_c, 1, 59, 49
5, 2880, Note_on_c, 1, 64, 49
5, 2935, Note_on_c, 1, 59, 0
5, 2935, Note_on_c, 1, 56, 0
5, 2940, Note_on_c, 1, 59, 44
5, 2940, Note_on_c, 1, 56, 48
5, 2980, Note_on_c, 1, 64, 0
5, 2995, Note_on_c, 1, 56, 0
5, 2995, Note_on_c, 1, 59, 0
5, 3000, Note_on_c, 1, 56, 49
5, 3000, Note_on_c, 1, 59, 49
5, 3000, Note_on_c, 1, 64, 49
5, 3055, Note_on_c, 1, 59, 0
5, 3055, Note_on_c, 1, 56, 0
5, 3060, Note_on_c, 1, 59, 34
5, 3060, Note_on_c, 1, 56, 44
5, 3095, Note_on_c, 1, 64, 0
5, 3115, Note_on_c, 1, 56, 0
5, 3115, Note_on_c, 1, 59, 0
5, 3120, Note_on_c, 1, 56, 38
5, 3120, Note_on_c, 1, 59, 49
5, 3120, Note_on_c, 1, 64, 44
5, 3175, Note_on_c, 1, 59, 0
5, 3175, Note_on_c, 1, 56, 0
5, 3180, Note_on_c, 1, 59, 38
5, 3180, Note_on_c, 1, 56, 54
5, 3220, Note_on_c, 1, 64, 0
5, 3235, Note_on_c, 1, 56, 0
5, 3235, Note_on_c, 1, 59, 0
5, 3240, Note_on_c, 1, 59, 54
5, 3240, Note_on_c, 1, 56, 54
5, 3240, Note_on_c, 1, 64, 54
5, 3290, Note_on_c, 1, 64, 0
5, 3295, Note_on_c, 1, 56, 0
5, 3295, Note_on_c, 1, 59, 0
5, 3300, Note_on_c, 1, 56, 49
5, 3300, Note_on_c, 1, 59, 49
5, 3300, Note_on_c, 1, 64, 44
5, 3327, Note_on_c, 1, 64, 0
5, 3355, Note_on_c, 1, 59, 0
5, 3355, Note_on_c, 1, 56, 0
5, 3360, Note_on_c, 1, 56, 49
5, 3360, Note_on_c, 1, 59, 49
5, 3360, Note_on_c, 1, 64, 49
5, 3415, Note_on_c, 1, 59, 0
5, 3415, Note_on_c, 1, 56, 0
5, 3420, Note_on_c, 1, 59, 44
5, 3420, Note_on_c, 1, 56, 48
5, 3460, Note_on_c, 1, 64, 0
5, 3475, Note_on_c, 1, 56, 0
5, 3475, Note_on_c, 1, 59, 0
5, 3480, Note_on_c, 1, 56, 49
5, 3480, Note_on_c, 1, 59, 49
5, 3480, Note_on_c, 1, 64, 49
5, 3535, Note_on_c, 1, 59, 0
5, 3535, Note_on_c, 1, 56, 0
5, 3540, Note_on_c, 1, 59, 34
5, 3540, Note_on_c, 1, 56, 44
5, 3580, Note_on_c, 1, 64, 0
5, 3595, Note_on_c, 1, 56, 0
5, 3595, Note_on_c, 1, 59, 0
5, 3600, Note_on_c, 1, 56, 38
5, 3600, Note_on_c, 1, 59, 49
5, 3600, Note_on_c, 1, 64, 44
5, 3655, Note_on_c, 1, 59, 0
5, 3655, Note_on_c, 1, 56, 0
5, 3660, Note_on_c, 1, 59, 38
5, 3660, Note_on_c, 1, 56, 54
5, 3692, Note_on_c, 1, 64, 0
5, 3715, Note_on_c, 1, 56, 0
5, 3715, Note_on_c, 1, 59, 0
5, 3720, Note_on_c, 1, 59, 54
5, 3720, Note_on_c, 1, 56, 54
5, 3720, Note_on_c, 1, 64, 54
5, 3770, Note_on_c, 1, 64, 0
5, 3775, Note_on_c, 1, 56, 0
5, 3775, Note_on_c, 1, 59, 0
5, 3780, Note_on_c, 1, 56, 49
5, 3780, Note_on_c, 1, 59, 49
5, 3780, Note_on_c, 1, 64, 44
5, 3807, Note_on_c, 1, 64, 0
5, 3835, Note_on_c, 1, 59, 0
5, 3835, Note_on_c, 1, 56, 0
5, 3840, Note_on_c, 1, 61, 49
5, 3840, Note_on_c, 1, 55, 49
5, 3840, Note_on_c, 1, 64, 49
5, 3895, Note_on_c, 1, 55, 0
5, 3895, Note_on_c, 1, 61, 0
5, 3900, Note_on_c, 1, 61, 44
5, 3900, Note_on_c, 1, 55, 48
5, 3940, Note_on_c, 1, 64, 0
5, 3955, Note_on_c, 1, 55, 0
5, 3955, Note_on_c, 1, 61, 0
5, 3960, Note_on_c, 1, 61, 49
5, 3960, Note_on_c, 1, 55, 49
5, 3960, Note_on_c, 1, 64, 49
5, 4015, Note_on_c, 1, 55, 0
5, 4015, Note_on_c, 1, 61, 0
5, 4020, Note_on_c, 1, 61, 34
5, 4020, Note_on_c, 1, 55, 44
5, 4060, Note_on_c, 1, 64, 0
5, 4075, Note_on_c, 1, 55, 0
5, 4075, Note_on_c, 1, 61, 0
5, 4080, Note_on_c, 1, 61, 49
5, 4080, Note_on_c, 1, 55, 38
5, 4080, Note_on_c, 1, 64, 44
5, 4135, Note_on_c, 1, 55, 0
5, 4135, Note_on_c, 1, 61, 0
5, 4140, Note_on_c, 1, 61, 38
5, 4140, Note_on_c, 1, 55, 54
5, 4172, Note_on_c, 1, 64, 0
5, 4195, Note_on_c, 1, 55, 0
5, 4195, Note_on_c, 1, 61, 0
5, 4200, Note_on_c, 1, 61, 54
5, 4200, Note_on_c, 1, 55, 54
5, 4200, Note_on_c, 1, 64, 54
5, 4250, Note_on_c, 1, 64, 0
5, 4255, Note_on_c, 1, 55, 0
5, 4255, Note_on_c, 1, 61, 0
5, 4260, Note_on_c, 1, 61, 49
5, 4260, Note_on_c, 1, 55, 49
5, 4260, Note_on_c, 1, 64, 44
5, 4287, Note_on_c, 1, 64, 0
5, 4315, Note_on_c, 1, 55, 0
5, 4315, Note_on_c, 1, 61, 0
5, 4320, Note_on_c, 1, 61, 49
5, 4320, Note_on_c, 1, 55, 49
5, 4320, Note_on_c, 1, 64, 49
5, 4375, Note_on_c, 1, 55, 0
5, 4375, Note_on_c, 1, 61, 0
5, 4380, Note_on_c, 1, 61, 44
5, 4380, Note_on_c, 1, 55, 48
5, 4420, Note_on_c, 1, 64, 0
5, 4435, Note_on_c, 1, 55, 0
5, 4435, Note_on_c, 1, 61, 0
5, 4440, Note_on_c, 1, 61, 49
5, 4440, Note_on_c, 1, 55, 49
5, 4440, Note_on_c, 1, 64, 49
5, 4495, Note_on_c, 1, 55, 0
5, 4495, Note_on_c, 1, 61, 0
5, 4500, Note_on_c, 1, 61, 34
5, 4500, Note_on_c, 1, 55, 44
5, 4540, Note_on_c, 1, 64, 0
5, 4555, Note_on_c, 1, 55, 0
5, 4555, Note_on_c, 1, 61, 0
5, 4560, Note_on_c, 1, 61, 49
5, 4560, Note_on_c, 1, 55, 38
5, 4560, Note_on_c, 1, 64, 44
5, 4615, Note_on_c, 1, 55, 0
5, 4615, Note_on_c, 1, 61, 0
5, 4620, Note_on_c, 1, 61, 38
5, 4620, Note_on_c, 1, 55, 54
5, 4652, Note_on_c, 1, 64, 0
5, 4675, Note_on_c, 1, 55, 0
5, 4675, Note_on_c, 1, 61, 0
5, 4680, Note_on_c, 1, 61, 54
5, 4680, Note_on_c, 1, 55, 54
5, 4680, Note_on_c, 1, 64, 54
5, 4730, Note_on_c, 1, 64, 0
5, 4735, Note_on_c, 1, 55, 0
5, 4735, Note_on_c, 1, 61, 0
5, 4740, Note_on_c, 1, 61, 49
5, 4740, Note_on_c, 1, 55, 49
5, 4740, Note_on_c, 1, 64, 44
5, 4767, Note_on_c, 1, 64, 0
5, 4795, Note_on_c, 1, 55, 0
5, 4795, Note_on_c, 1, 61, 0
5, 4800, Note_on_c, 1, 56, 49
5, 4800, Note_on_c, 1, 59, 49
5, 4800, Note_on_c, 1, 64, 49
5, 4855, Note_on_c, 1, 59, 0
5, 4855, Note_on_c, 1, 56, 0
5, 4860, Note_on_c, 1, 59, 44
5, 4860, Note_on_c, 1, 56, 48
5, 4895, Note_on_c, 1, 64, 0
5, 4915, Note_on_c, 1, 56, 0
5, 4915, Note_on_c, 1, 59, 0
5, 4920, Note_on_c, 1, 56, 49
5, 4920, Note_on_c, 1, 59, 49
5, 4920, Note_on_c, 1, 64, 49
5, 4975, Note_on_c, 1, 59, 0
5, 4975, Note_on_c, 1, 56, 0
5, 4980, Note_on_c, 1, 59, 34
5, 4980, Note_on_c, 1, 56, 44
5, 5010, Note_on_c, 1, 64, 0
5, 5035, Note_on_c, 1, 56, 0
5, 5035, Note_on_c, 1, 59, 0
5, 5040, Note_on_c, 1, 56, 38
5, 5040, Note_on_c, 1, 59, 49
5, 5040, Note_on_c, 1, 64, 44
5, 5095, Note_on_c, 1, 59, 0
5, 5095, Note_on_c, 1, 56, 0
5, 5100, Note_on_c, 1, 59, 38
5, 5100, Note_on_c, 1, 56, 54
5, 5130, Note_on_c, 1, 64, 0
5, 5155, Note_on_c, 1, 56, 0
5, 5155, Note_on_c, 1, 59, 0
5, 5160, Note_on_c, 1, 59, 54
5, 5160, Note_on_c, 1, 56, 54
5, 5160, Note_on_c, 1, 64, 54
5, 5210, Note_on_c, 1, 64, 0
5, 5215, Note_on_c, 1, 56, 0
5, 5215, Note_on_c, 1, 59, 0
5, 5220, Note_on_c, 1, 56, 49
5, 5220, Note_on_c, 1, 59, 49
5, 5220, Note_on_c, 1, 64, 44
5, 5247, Note_on_c, 1, 64, 0
5, 5275, Note_on_c, 1, 59, 0
5, 5275, Note_on_c, 1, 56, 0
5, 5280, Note_on_c, 1, 56, 49
5, 5280, Note_on_c, 1, 59, 49
5, 5280, Note_on_c, 1, 64, 49
5, 5335, Note_on_c, 1, 59, 0
5, 5335, Note_on_c, 1, 56, 0
5, 5340, Note_on_c, 1, 59, 44
5, 5340, Note_on_c, 1, 56, 48
5, 5380, Note_on_c, 1, 64, 0
5, 5395, Note_on_c, 1, 56, 0
5, 5395, Note_on_c, 1, 59, 0
5, 5400, Note_on_c, 1, 56, 49
5, 5400, Note_on_c, 1, 59, 49
5, 5400, Note_on_c, 1, 64, 49
5, 5455, Note_on_c, 1, 59, 0
5, 5455, Note_on_c, 1, 56, 0
5, 5460, Note_on_c, 1, 59, 34
5, 5460, Note_on_c, 1, 56, 44
5, 5491, Note_on_c, 1, 64, 0
5, 5515, Note_on_c, 1, 56, 0
5, 5515, Note_on_c, 1, 59, 0
5, 5520, Note_on_c, 1, 56, 38
5, 5520, Note_on_c, 1, 59, 49
5, 5520, Note_on_c, 1, 64, 44
5, 5575, Note_on_c, 1, 59, 0
5, 5575, Note_on_c, 1, 56, 0
5, 5580, Note_on_c, 1, 59, 38
5, 5580, Note_on_c, 1, 56, 54
5, 5620, Note_on_c, 1, 64, 0
5, 5635, Note_on_c, 1, 56, 0
5, 5635, Note_on_c, 1, 59, 0
5, 5640, Note_on_c, 1, 59, 54
5, 5640, Note_on_c, 1, 56, 54
5, 5640, Note_on_c, 1, 64, 54
5, 5690, Note_on_c, 1, 64, 0
5, 5695, Note_on_c, 1, 56, 0
5, 5695, Note_on_c, 1, 59, 0
5, 5700, Note_on_c, 1, 56, 49
5, 5700, Note_on_c, 1, 59, 49
5, 5700, Note_on_c, 1, 64, 44
5, 5727, Note_on_c, 1, 64, 0
5, 5755, Note_on_c, 1, 59, 0
5, 5755, Note_on_c, 1, 56, 0
5, 5760, Note_on_c, 1, 57, 49
5, 5760, Note_on_c, 1, 63, 49
5, 5760, Note_on_c, 1, 66, 49
5, 5815, Note_on_c, 1, 63, 0
5, 5815, Note_on_c, 1, 57, 0
5, 5820, Note_on_c, 1, 57, 48
5, 5820, Note_on_c, 1, 63, 44
5, 5860, Note_on_c, 1, 66, 0
5, 5875, Note_on_c, 1, 63, 0
5, 5875, Note_on_c, 1, 57, 0
5, 5880, Note_on_c, 1, 57, 49
5, 5880, Note_on_c, 1, 63, 49
5, 5880, Note_on_c, 1, 66, 49
5, 5935, Note_on_c, 1, 63, 0
5, 5935, Note_on_c, 1, 57, 0
5, 5940, Note_on_c, 1, 57, 44
5, 5940, Note_on_c, 1, 63, 34
5, 5980, Note_on_c, 1, 66, 0
5, 5995, Note_on_c, 1, 63, 0
5, 5995, Note_on_c, 1, 57, 0
5, 6000, Note_on_c, 1, 57, 38
5, 6000, Note_on_c, 1, 63, 49
5, 6000, Note_on_c, 1, 66, 44
5, 6055, Note_on_c, 1, 63, 0
5, 6055, Note_on_c, 1, 57, 0
5, 6060, Note_on_c, 1, 57, 54
5, 6060, Note_on_c, 1, 63, 38
5, 6092, Note_on_c, 1, 66, 0
5, 6115, Note_on_c, 1, 63, 0
5, 6115, Note_on_c, 1, 57, 0
5, 6120, Note_on_c, 1, 57, 54
5, 6120, Note_on_c, 1, 63, 54
5, 6120, Note_on_c, 1, 66, 54
5, 6170, Note_on_c, 1, 66, 0
5, 6175, Note_on_c, 1, 63, 0
5, 6175, Note_on_c, 1, 57, 0
5, 6180, Note_on_c, 1, 57, 49
5, 6180, Note_on_c, 1, 63, 49
5, 6180, Note_on_c, 1, 66, 44
5, 6207, Note_on_c, 1, 66, 0
5, 6235, Note_on_c, 1, 63, 0
5, 6235, Note_on_c, 1, 57, 0
5, 6240, Note_on_c, 1, 64, 49
5, 6240, Note_on_c, 1, 58, 49
5, 6240, Note_on_c, 1, 67, 49
5, 6295, Note_on_c, 1, 58, 0
5, 6295, Note_on_c, 1, 64, 0
5, 6300, Note_on_c, 1, 64, 44
5, 6300, Note_on_c, 1, 58, 48
5, 6340, Note_on_c, 1, 67, 0
5, 6355, Note_on_c, 1, 58, 0
5, 6355, Note_on_c, 1, 64, 0
5, 6360, Note_on_c, 1, 64, 49
5, 6360, Note_on_c, 1, 58, 49
5, 6360, Note_on_c, 1, 67, 49
5, 6415, Note_on_c, 1, 58, 0
5, 6415, Note_on_c, 1, 64, 0
5, 6420, Note_on_c, 1, 64, 34
5, 6420, Note_on_c, 1, 58, 44
5, 6460, Note_on_c, 1, 67, 0
5, 6475, Note_on_c, 1, 58, 0
5, 6475, Note_on_c, 1, 64, 0
5, 6480, Note_on_c, 1, 57, 38
5, 6480, Note_on_c, 1, 63, 49
5, 6480, Note_on_c, 1, 66, 44
5, 6535, Note_on_c, 1, 63, 0
5, 6535, Note_on_c, 1, 57, 0
5, 6540, Note_on_c, 1, 57, 54
5, 6540, Note_on_c, 1, 63, 38
5, 6572, Note_on_c, 1, 66, 0
5, 6595, Note_on_c, 1, 63, 0
5, 6595, Note_on_c, 1, 57, 0
5, 6600, Note_on_c, 1, 57, 54
5, 6600, Note_on_c, 1, 63, 54
5, 6600, Note_on_c, 1, 66, 54
5, 6650, Note_on_c, 1, 66, 0
5, 6655, Note_on_c, 1, 63, 0
5, 6655, Note_on_c, 1, 57, 0
5, 6660, Note_on_c, 1, 57, 49
5, 6660, Note_on_c, 1, 63, 49
5, 6660, Note_on_c, 1, 66, 44
5, 6687, Note_on_c, 1, 66, 0
5, 6715, Note_on_c, 1, 63, 0
5, 6715, Note_on_c, 1, 57, 0
5, 6720, Note_on_c, 1, 56, 49
5, 6720, Note_on_c, 1, 59, 49
5, 6720, Note_on_c, 1, 64, 49
5, 6775, Note_on_c, 1, 59, 0
5, 6775, Note_on_c, 1, 56, 0
5, 6780, Note_on_c, 1, 59, 44
5, 6780, Note_on_c, 1, 56, 48
5, 6815, Note_on_c, 1, 64, 0
5, 6835, Note_on_c, 1, 56, 0
5, 6835, Note_on_c, 1, 59, 0
5, 6840, Note_on_c, 1, 56, 49
5, 6840, Note_on_c, 1, 59, 49
5, 6840, Note_on_c, 1, 64, 49
5, 6895, Note_on_c, 1, 59, 0
5, 6895, Note_on_c, 1, 56, 0
5, 6900, Note_on_c, 1, 59, 34
5, 6900, Note_on_c, 1, 56, 44
5, 6930, Note_on_c, 1, 64, 0
5, 6955, Note_on_c, 1, 56, 0
5, 6955, Note_on_c, 1, 59, 0
5, 6960, Note_on_c, 1, 56, 38
5, 6960, Note_on_c, 1, 59, 49
5, 6960, Note_on_c, 1, 64, 44
5, 7015, Note_on_c, 1, 59, 0
5, 7015, Note_on_c, 1, 56, 0
5, 7020, Note_on_c, 1, 59, 38
5, 7020, Note_on_c, 1, 56, 54
5, 7050, Note_on_c, 1, 64, 0
5, 7075, Note_on_c, 1, 56, 0
5, 7075, Note_on_c, 1, 59, 0
5, 7080, Note_on_c, 1, 59, 54
5, 7080, Note_on_c, 1, 56, 54
5, 7080, Note_on_c, 1, 64, 54
5, 7130, Note_on_c, 1, 64, 0
5, 7135, Note_on_c, 1, 56, 0
5, 7135, Note_on_c, 1, 59, 0
5, 7140, Note_on_c, 1, 56, 49
5, 7140, Note_on_c, 1, 59, 49
5, 7140, Note_on_c, 1, 64, 44
5, 7167, Note_on_c, 1, 64, 0
5, 7195, Note_on_c, 1, 59, 0
5, 7195, Note_on_c, 1, 56, 0
5, 7200, Note_on_c, 1, 56, 49
5, 7200, Note_on_c, 1, 59, 49
5, 7200, Note_on_c, 1, 64, 49
5, 7255, Note_on_c, 1, 59, 0
5, 7255, Note_on_c, 1, 56, 0
5, 7260, Note_on_c, 1, 59, 44
5, 7260, Note_on_c, 1, 56, 48
5, 7300, Note_on_c, 1, 64, 0
5, 7315, Note_on_c, 1, 56, 0
5, 7315, Note_on_c, 1, 59, 0
5, 7320, Note_on_c, 1, 56, 49
5, 7320, Note_on_c, 1, 59, 49
5, 7320, Note_on_c, 1, 64, 49
5, 7375, Note_on_c, 1, 59, 0
5, 7375, Note_on_c, 1, 56, 0
5, 7380, Note_on_c, 1, 59, 34
5, 7380, Note_on_c, 1, 56, 44
5, 7411, Note_on_c, 1, 64, 0
5, 7435, Note_on_c, 1, 56, 0
5, 7435, Note_on_c, 1, 59, 0
5, 7440, Note_on_c, 1, 56, 38
5, 7440, Note_on_c, 1, 59, 49
5, 7440, Note_on_c, 1, 64, 44
5, 7495, Note_on_c, 1, 59, 0
5, 7495, Note_on_c, 1, 56, 0
5, 7500, Note_on_c, 1, 59, 38
5, 7500, Note_on_c, 1, 56, 54
5, 7540, Note_on_c, 1, 64, 0
5, 7555, Note_on_c, 1, 56, 0
5, 7555, Note_on_c, 1, 59, 0
5, 7560, Note_on_c, 1, 59, 54
5, 7560, Note_on_c, 1, 56, 54
5, 7560, Note_on_c, 1, 64, 54
5, 7610, Note_on_c, 1, 64, 0
5, 7615, Note_on_c, 1, 56, 0
5, 7615, Note_on_c, 1, 59, 0
5, 7620, Note_on_c, 1, 56, 49
5, 7620, Note_on_c, 1, 59, 49
5, 7620, Note_on_c, 1, 64, 44
5, 7647, Note_on_c, 1, 64, 0
5, 7675, Note_on_c, 1, 59, 0
5, 7675, Note_on_c, 1, 56, 0
5, 7680, Note_on_c, 1, 56, 49
5, 7680, Note_on_c, 1, 59, 49
5, 7680, Note_on_c, 1, 64, 49
5, 7735, Note_on_c, 1, 59, 0
5, 7735, Note_on_c, 1, 56, 0
5, 7740, Note_on_c, 1, 59, 44
5, 7740, Note_on_c, 1, 56, 48
5, 7775, Note_on_c, 1, 64, 0
5, 7795, Note_on_c, 1, 56, 0
5, 7795, Note_on_c, 1, 59, 0
5, 7800, Note_on_c, 1, 56, 49
5, 7800, Note_on_c, 1, 59, 49
5, 7800, Note_on_c, 1, 64, 49
5, 7855, Note_on_c, 1, 59, 0
5, 7855, Note_on_c, 1, 56, 0
5, 7860, Note_on_c, 1, 59, 34
5, 7860, Note_on_c, 1, 56, 44
5, 7890, Note_on_c, 1, 64, 0
5, 7915, Note_on_c, 1, 56, 0
5, 7915, Note_on_c, 1, 59, 0
5, 7920, Note_on_c, 1, 56, 38
5, 7920, Note_on_c, 1, 59, 49
5, 7920, Note_on_c, 1, 64, 44
5, 7975, Note_on_c, 1, 59, 0
5, 7975, Note_on_c, 1, 56, 0
5, 7980, Note_on_c, 1, 59, 38
5, 7980, Note_on_c, 1, 56, 54
5, 8010, Note_on_c, 1, 64, 0
5, 8035, Note_on_c, 1, 56, 0
5, 8035, Note_on_c, 1, 59, 0
5, 8040, Note_on_c, 1, 59, 54
5, 8040, Note_on_c, 1, 56, 54
5, 8040, Note_on_c, 1, 64, 54
5, 8090, Note_on_c, 1, 64, 0
5, 8095, Note_on_c, 1, 56, 0
5, 8095, Note_on_c, 1, 59, 0
5, 8100, Note_on_c, 1, 56, 49
5, 8100, Note_on_c, 1, 59, 49
5, 8100, Note_on_c, 1, 64, 44
5, 8127, Note_on_c, 1, 64, 0
5, 8155, Note_on_c, 1, 59, 0
5, 8155, Note_on_c, 1, 56, 0
5, 8160, Note_on_c, 1, 56, 49
5, 8160, Note_on_c, 1, 59, 49
5, 8160, Note_on_c, 1, 64, 49
5, 8215, Note_on_c, 1, 59, 0
5, 8215, Note_on_c, 1, 56, 0
5, 8220, Note_on_c, 1, 59, 44
5, 8220, Note_on_c, 1, 56, 48
5, 8260, Note_on_c, 1, 64, 0
5, 8275, Note_on_c, 1, 56, 0
5, 8275, Note_on_c, 1, 59, 0
5, 8280, Note_on_c, 1, 56, 49
5, 8280, Note_on_c, 1, 59, 49
5, 8280, Note_on_c, 1, 64, 49
5, 8335, Note_on_c, 1, 59, 0
5, 8335, Note_on_c, 1, 56, 0
5, 8340, Note_on_c, 1, 59, 34
5, 8340, Note_on_c, 1, 56, 44
5, 8371, Note_on_c, 1, 64, 0
5, 8395, Note_on_c, 1, 56, 0
5, 8395, Note_on_c, 1, 59, 0
5, 8400, Note_on_c, 1, 56, 38
5, 8400, Note_on_c, 1, 59, 49
5, 8400, Note_on_c, 1, 64, 44
5, 8455, Note_on_c, 1, 59, 0
5, 8455, Note_on_c, 1, 56, 0
5, 8460, Note_on_c, 1, 59, 38
5, 8460, Note_on_c, 1, 56, 54
5, 8500, Note_on_c, 1, 64, 0
5, 8515, Note_on_c, 1, 56, 0
5, 8515, Note_on_c, 1, 59, 0
5, 8520, Note_on_c, 1, 59, 54
5, 8520, Note_on_c, 1, 56, 54
5, 8520, Note_on_c, 1, 64, 54
5, 8570, Note_on_c, 1, 64, 0
5, 8575, Note_on_c, 1, 56, 0
5, 8575, Note_on_c, 1, 59, 0
5, 8580, Note_on_c, 1, 56, 49
5, 8580, Note_on_c, 1, 59, 49
5, 8580, Note_on_c, 1, 64, 44
5, 8607, Note_on_c, 1, 64, 0
5, 8635, Note_on_c, 1, 59, 0
5, 8635, Note_on_c, 1, 56, 0
5, 8640, Note_on_c, 1, 56, 49
5, 8640, Note_on_c, 1, 59, 49
5, 8640, Note_on_c, 1, 64, 49
5, 8695, Note_on_c, 1, 59, 0
5, 8695, Note_on_c, 1, 56, 0
5, 8700, Note_on_c, 1, 59, 44
5, 8700, Note_on_c, 1, 56, 48
5, 8735, Note_on_c, 1, 64, 0
5, 8755, Note_on_c, 1, 56, 0
5, 8755, Note_on_c, 1, 59, 0
5, 8760, Note_on_c, 1, 56, 49
5, 8760, Note_on_c, 1, 59, 49
5, 8760, Note_on_c, 1, 64, 49
5, 8815, Note_on_c, 1, 59, 0
5, 8815, Note_on_c, 1, 56, 0
5, 8820, Note_on_c, 1, 59, 34
5, 8820, Note_on_c, 1, 56, 44
5, 8850, Note_on_c, 1, 64, 0
5, 8875, Note_on_c, 1, 56, 0
5, 8875, Note_on_c, 1, 59, 0
5, 8880, Note_on_c, 1, 56, 38
5, 8880, Note_on_c, 1, 59, 49
5, 8880, Note_on_c, 1, 64, 44
5, 8935, Note_on_c, 1, 59, 0
5, 8935, Note_on_c, 1, 56, 0
5, 8940, Note_on_c, 1, 59, 38
5, 8940, Note_on_c, 1, 56, 54
5, 8970, Note_on_c, 1, 64, 0
5, 8995, Note_on_c, 1, 56, 0
5, 8995, Note_on_c, 1, 59, 0
5, 9000, Note_on_c, 1, 59, 54
5, 9000, Note_on_c, 1, 56, 54
5, 9000, Note_on_c, 1, 64, 54
5, 9050, Note_on_c, 1, 64, 0
5, 9055, Note_on_c, 1, 56, 0
5, 9055, Note_on_c, 1, 59, 0
5, 9060, Note_on_c, 1, 56, 49
5, 9060, Note_on_c, 1, 59, 49
5, 9060, Note_on_c, 1, 64, 44
5, 9087, Note_on_c, 1, 64, 0
5, 9115, Note_on_c, 1, 59, 0
5, 9115, Note_on_c, 1, 56, 0
5, 9120, Note_on_c, 1, 56, 49
5, 9120, Note_on_c, 1, 59, 49
5, 9120, Note_on_c, 1, 64, 49
5, 9175, Note_on_c, 1, 59, 0
5, 9175, Note_on_c, 1, 56, 0
5, 9180, Note_on_c, 1, 59, 44
5, 9180, Note_on_c, 1, 56, 48
5, 9220, Note_on_c, 1, 64, 0
5, 9235, Note_on_c, 1, 56, 0
5, 9235, Note_on_c, 1, 59, 0
5, 9240, Note_on_c, 1, 56, 49
5, 9240, Note_on_c, 1, 59, 49
5, 9240, Note_on_c, 1, 64, 49
5, 9295, Note_on_c, 1, 59, 0
5, 9295, Note_on_c, 1, 56, 0
5, 9300, Note_on_c, 1, 59, 34
5, 9300, Note_on_c, 1, 56, 44
5, 9331, Note_on_c, 1, 64, 0
5, 9355, Note_on_c, 1, 56, 0
5, 9355, Note_on_c, 1, 59, 0
5, 9360, Note_on_c, 1, 56, 38
5, 9360, Note_on_c, 1, 59, 49
5, 9360, Note_on_c, 1, 64, 44
5, 9415, Note_on_c, 1, 59, 0
5, 9415, Note_on_c, 1, 56, 0
5, 9420, Note_on_c, 1, 59, 38
5, 9420, Note_on_c, 1, 56, 54
5, 9460, Note_on_c, 1, 64, 0
5, 9475, Note_on_c, 1, 56, 0
5, 9475, Note_on_c, 1, 59, 0
5, 9480, Note_on_c, 1, 59, 54
5, 9480, Note_on_c, 1, 56, 54
5, 9480, Note_on_c, 1, 64, 54
5, 9530, Note_on_c, 1, 64, 0
5, 9535, Note_on_c, 1, 56, 0
5, 9535, Note_on_c, 1, 59, 0
5, 9540, Note_on_c, 1, 56, 49
5, 9540, Note_on_c, 1, 59, 49
5, 9540, Note_on_c, 1, 64, 44
5, 9567, Note_on_c, 1, 64, 0
5, 9595, Note_on_c, 1, 59, 0
5, 9595, Note_on_c, 1, 56, 0
5, 9600, Note_on_c, 1, 56, 49
5, 9600, Note_on_c, 1, 59, 49
5, 9600, Note_on_c, 1, 64, 49
5, 9655, Note_on_c, 1, 59, 0
5, 9655, Note_on_c, 1, 56, 0
5, 9660, Note_on_c, 1, 59, 44
5, 9660, Note_on_c, 1, 56, 48
5, 9695, Note_on_c, 1, 64, 0
5, 9715, Note_on_c, 1, 56, 0
5, 9715, Note_on_c, 1, 59, 0
5, 9720, Note_on_c, 1, 56, 49
5, 9720, Note_on_c, 1, 59, 49
5, 9720, Note_on_c, 1, 64, 49
5, 9775, Note_on_c, 1, 59, 0
5, 9775, Note_on_c, 1, 56, 0
5, 9780, Note_on_c, 1, 59, 34
5, 9780, Note_on_c, 1, 56, 44
5, 9810, Note_on_c, 1, 64, 0
5, 9835, Note_on_c, 1, 56, 0
5, 9835, Note_on_c, 1, 59, 0
5, 9840, Note_on_c, 1, 56, 38
5, 9840, Note_on_c, 1, 59, 49
5, 9840, Note_on_c, 1, 64, 44
5, 9895, Note_on_c, 1, 59, 0
5, 9895, Note_on_c, 1, 56, 0
5, 9900, Note_on_c, 1, 59, 38
5, 9900, Note_on_c, 1, 56, 54
5, 9930, Note_on_c, 1, 64, 0
5, 9955, Note_on_c, 1, 56, 0
5, 9955, Note_on_c, 1, 59, 0
5, 9960, Note_on_c, 1, 59, 54
5, 9960, Note_on_c, 1, 56, 54
5, 9960, Note_on_c, 1, 64, 54
5, 10010, Note_on_c, 1, 64, 0
5, 10015, Note_on_c, 1, 56, 0
5, 10015, Note_on_c, 1, 59, 0
5, 10020, Note_on_c, 1, 56, 49
5, 10020, Note_on_c, 1, 59, 49
5, 10020, Note_on_c, 1, 64, 44
5, 10047, Note_on_c, 1, 64, 0
5, 10075, Note_on_c, 1, 59, 0
5, 10075, Note_on_c, 1, 56, 0
5, 10080, Note_on_c, 1, 56, 49
5, 10080, Note_on_c, 1, 59, 49
5, 10080, Note_on_c, 1, 64, 49
5, 10135, Note_on_c, 1, 59, 0
5, 10135, Note_on_c, 1, 56, 0
5, 10140, Note_on_c, 1, 59, 44
5, 10140, Note_on_c, 1, 56, 48
5, 10180, Note_on_c, 1, 64, 0
5, 10195, Note_on_c, 1, 56, 0
5, 10195, Note_on_c, 1, 59, 0
5, 10200, Note_on_c, 1, 56, 49
5, 10200, Note_on_c, 1, 59, 49
5, 10200, Note_on_c, 1, 64, 49
5, 10255, Note_on_c, 1, 59, 0
5, 10255, Note_on_c, 1, 56, 0
5, 10260, Note_on_c, 1, 59, 34
5, 10260, Note_on_c, 1, 56, 44
5, 10291, Note_on_c, 1, 64, 0
5, 10315, Note_on_c, 1, 56, 0
5, 10315, Note_on_c, 1, 59, 0
5, 10320, Note_on_c, 1, 56, 38
5, 10320, Note_on_c, 1, 59, 49
5, 10320, Note_on_c, 1, 64, 44
5, 10375, Note_on_c, 1, 59, 0
5, 10375, Note_on_c, 1, 56, 0
5, 10380, Note_on_c, 1, 59, 38
5, 10380, Note_on_c, 1, 56, 54
5, 10420, Note_on_c, 1, 64, 0
5, 10435, Note_on_c, 1, 56, 0
5, 10435, Note_on_c, 1, 59, 0
5, 10440, Note_on_c, 1, 59, 54
5, 10440, Note_on_c, 1, 56, 54
5, 10440, Note_on_c, 1, 64, 54
5, 10490, Note_on_c, 1, 64, 0
5, 10495, Note_on_c, 1, 56, 0
5, 10495, Note_on_c, 1, 59, 0
5, 10500, Note_on_c, 1, 56, 49
5, 10500, Note_on_c, 1, 59, 49
5, 10500, Note_on_c, 1, 64, 44
5, 10527, Note_on_c, 1, 64, 0
5, 10555, Note_on_c, 1, 59, 0
5, 10555, Note_on_c, 1, 56, 0
5, 10560, Note_on_c, 1, 56, 54
5, 10560, Note_on_c, 1, 59, 49
5, 10560, Note_on_c, 1, 64, 49
5, 10610, Note_on_c, 1, 64, 0
5, 10610, Note_on_c, 1, 59, 0
5, 10610, Note_on_c, 1, 56, 0
5, 11100, Note_on_c, 1, 59, 54
5, 11100, Note_on_c, 1, 64, 49
5, 11100, Note_on_c, 1, 56, 54
5, 11150, Note_on_c, 1, 56, 0
5, 11150, Note_on_c, 1, 64, 0
5, 11150, Note_on_c, 1, 59, 0
5, 11160, Note_on_c, 1, 59, 54
5, 11160, Note_on_c, 1, 56, 49
5, 11160, Note_on_c, 1, 64, 38
5, 11210, Note_on_c, 1, 64, 0
5, 11210, Note_on_c, 1, 56, 0
5, 11210, Note_on_c, 1, 59, 0
5, 11220, Note_on_c, 1, 59, 49
5, 11220, Note_on_c, 1, 64, 44
5, 11220, Note_on_c, 1, 56, 44
5, 11270, Note_on_c, 1, 56, 0
5, 11270, Note_on_c, 1, 64, 0
5, 11270, Note_on_c, 1, 59, 0
5, 11280, Note_on_c, 1, 59, 49
5, 11280, Note_on_c, 1, 64, 49
5, 11280, Note_on_c, 1, 56, 54
5, 11330, Note_on_c, 1, 56, 0
5, 11330, Note_on_c, 1, 64, 0
5, 11330, Note_on_c, 1, 59, 0
5, 11340, Note_on_c, 1, 59, 54
5, 11340, Note_on_c, 1, 64, 44
5, 11340, Note_on_c, 1, 56, 44
5, 11390, Note_on_c, 1, 56, 0
5, 11390, Note_on_c, 1, 64, 0
5, 11390, Note_on_c, 1, 59, 0
5, 11400, Note_on_c, 1, 64, 44
5, 11400, Note_on_c, 1, 59, 49
5, 11400, Note_on_c, 1, 56, 49
5, 11450, Note_on_c, 1, 56, 0
5, 11450, Note_on_c, 1, 59, 0
5, 11450, Note_on_c, 1, 64, 0
5, 11460, Note_on_c, 1, 64, 38
5, 11460, Note_on_c, 1, 56, 36
5, 11460, Note_on_c, 1, 59, 49
5, 11510, Note_on_c, 1, 59, 0
5, 11510, Note_on_c, 1, 56, 0
5, 11510, Note_on_c, 1, 64, 0
5, 11520, Note_on_c, 1, 56, 54
5, 11520, Note_on_c, 1, 59, 49
5, 11520, Note_on_c, 1, 64, 49
5, 11570, Note_on_c, 1, 64, 0
5, 11570, Note_on_c, 1, 59, 0
5, 11570, Note_on_c, 1, 56, 0
5, 12000, Note_on_c, 1, 56, 49
5, 12000, Note_on_c, 1, 59, 49
5, 12000, Note_on_c, 1, 64, 49
5, 12055, Note_on_c, 1, 59, 0
5, 12055, Note_on_c, 1, 56, 0
5, 12060, Note_on_c, 1, 59, 44
5, 12060, Note_on_c, 1, 56, 48
5, 12095, Note_on_c, 1, 64, 0
5, 12115, Note_on_c, 1, 56, 0
5, 12115, Note_on_c, 1, 59, 0
5, 12120, Note_on_c, 1, 56, 49
5, 12120, Note_on_c, 1, 59, 49
5, 12120, Note_on_c, 1, 64, 49
5, 12175, Note_on_c, 1, 59, 0
5, 12175, Note_on_c, 1, 56, 0
5, 12180, Note_on_c, 1, 59, 34
5, 12180, Note_on_c, 1, 56, 44
5, 12210, Note_on_c, 1, 64, 0
5, 12235, Note_on_c, 1, 56, 0
5, 12235, Note_on_c, 1, 59, 0
5, 12240, Note_on_c, 1, 56, 38
5, 12240, Note_on_c, 1, 59, 49
5, 12240, Note_on_c, 1, 64, 44
5, 12295, Note_on_c, 1, 59, 0
5, 12295, Note_on_c, 1, 56, 0
5, 12300, Note_on_c, 1, 59, 38
5, 12300, Note_on_c, 1, 56, 54
5, 12330, Note_on_c, 1, 64, 0
5, 12355, Note_on_c, 1, 56, 0
5, 12355, Note_on_c, 1, 59, 0
5, 12360, Note_on_c, 1, 59, 54
5, 12360, Note_on_c, 1, 56, 54
5, 12360, Note_on_c, 1, 64, 54
5, 12410, Note_on_c, 1, 64, 0
5, 12415, Note_on_c, 1, 56, 0
5, 12415, Note_on_c, 1, 59, 0
5, 12420, Note_on_c, 1, 56, 49
5, 12420, Note_on_c, 1, 59, 49
5, 12420, Note_on_c, 1, 64, 44
5, 12447, Note_on_c, 1, 64, 0
5, 12475, Note_on_c, 1, 59, 0
5, 12475, Note_on_c, 1, 56, 0
5, 12480, Note_on_c, 1, 56, 49
5, 12480, Note_on_c, 1, 59, 49
5, 12480, Note_on_c, 1, 64, 49
5, 12535, Note_on_c, 1, 59, 0
5, 12535, Note_on_c, 1, 56, 0
5, 12540, Note_on_c, 1, 59, 44
5, 12540, Note_on_c, 1, 56, 48
5, 12580, Note_on_c, 1, 64, 0
5, 12595, Note_on_c, 1, 56, 0
5, 12595, Note_on_c, 1, 59, 0
5, 12600, Note_on_c, 1, 56, 49
5, 12600, Note_on_c, 1, 59, 49
5, 12600, Note_on_c, 1, 64, 49
5, 12655, Note_on_c, 1, 59, 0
5, 12655, Note_on_c, 1, 56, 0
5, 12660, Note_on_c, 1, 59, 34
5, 12660, Note_on_c, 1, 56, 44
5, 12691, Note_on_c, 1, 64, 0
5, 12715, Note_on_c, 1, 56, 0
5, 12715, Note_on_c, 1, 59, 0
5, 12720, Note_on_c, 1, 56, 38
5, 12720, Note_on_c, 1, 59, 49
5, 12720, Note_on_c, 1, 64, 44
5, 12775, Note_on_c, 1, 59, 0
5, 12775, Note_on_c, 1, 56, 0
5, 12780, Note_on_c, 1, 59, 38
5, 12780, Note_on_c, 1, 56, 54
5, 12820, Note_on_c, 1, 64, 0
5, 12835, Note_on_c, 1, 56, 0
5, 12835, Note_on_c, 1, 59, 0
5, 12840, Note_on_c, 1, 59, 54
5, 12840, Note_on_c, 1, 56, 54
5, 12840, Note_on_c, 1, 64, 54
5, 12890, Note_on_c, 1, 64, 0
5, 12895, Note_on_c, 1, 56, 0
5, 12895, Note_on_c, 1, 59, 0
5, 12900, Note_on_c, 1, 56, 49
5, 12900, Note_on_c, 1, 59, 49
5, 12900, Note_on_c, 1, 64, 44
5, 12927, Note_on_c, 1, 64, 0
5, 12955, Note_on_c, 1, 59, 0
5, 12955, Note_on_c, 1, 56, 0
5, 12960, Note_on_c, 1, 56, 49
5, 12960, Note_on_c, 1, 59, 49
5, 12960, Note_on_c, 1, 64, 49
5, 13015, Note_on_c, 1, 59, 0
5, 13015, Note_on_c, 1, 56, 0
5, 13020, Note_on_c, 1, 59, 44
5, 13020, Note_on_c, 1, 56, 48
5, 13060, Note_on_c, 1, 64, 0
5, 13075, Note_on_c, 1, 56, 0
5, 13075, Note_on_c, 1, 59, 0
5, 13080, Note_on_c, 1, 56, 49
5, 13080, Note_on_c, 1, 59, 49
5, 13080, Note_on_c, 1, 64, 49
5, 13135, Note_on_c, 1, 59, 0
5, 13135, Note_on_c, 1, 56, 0
5, 13140, Note_on_c, 1, 59, 34
5, 13140, Note_on_c, 1, 56, 44
5, 13175, Note_on_c, 1, 64, 0
5, 13195, Note_on_c, 1, 56, 0
5, 13195, Note_on_c, 1, 59, 0
5, 13200, Note_on_c, 1, 56, 38
5, 13200, Note_on_c, 1, 59, 49
5, 13200, Note_on_c, 1, 64, 44
5, 13255, Note_on_c, 1, 59, 0
5, 13255, Note_on_c, 1, 56, 0
5, 13260, Note_on_c, 1, 59, 38
5, 13260, Note_on_c, 1, 56, 54
5, 13300, Note_on_c, 1, 64, 0
5, 13315, Note_on_c, 1, 56, 0
5, 13315, Note_on_c, 1, 59, 0
5, 13320, Note_on_c, 1, 59, 54
5, 13320, Note_on_c, 1, 56, 54
5, 13320, Note_on_c, 1, 64, 54
5, 13370, Note_on_c, 1, 64, 0
5, 13375, Note_on_c, 1, 56, 0
5, 13375, Note_on_c, 1, 59, 0
5, 13380, Note_on_c, 1, 56, 49
5, 13380, Note_on_c, 1, 59, 49
5, 13380, Note_on_c, 1, 64, 44
5, 13407, Note_on_c, 1, 64, 0
5, 13435, Note_on_c, 1, 59, 0
5, 13435, Note_on_c, 1, 56, 0
5, 13440, Note_on_c, 1, 56, 49
5, 13440, Note_on_c, 1, 59, 49
5, 13440, Note_on_c, 1, 64, 49
5, 13495, Note_on_c, 1, 59, 0
5, 13495, Note_on_c, 1, 56, 0
5, 13500, Note_on_c, 1, 59, 44
5, 13500, Note_on_c, 1, 56, 48
5, 13540, Note_on_c, 1, 64, 0
5, 13555, Note_on_c, 1, 56, 0
5, 13555, Note_on_c, 1, 59, 0
5, 13560, Note_on_c, 1, 56, 49
5, 13560, Note_on_c, 1, 59, 49
5, 13560, Note_on_c, 1, 64, 49
5, 13615, Note_on_c, 1, 59, 0
5, 13615, Note_on_c, 1, 56, 0
5, 13620, Note_on_c, 1, 59, 34
5, 13620, Note_on_c, 1, 56, 44
5, 13660, Note_on_c, 1, 64, 0
5, 13675, Note_on_c, 1, 56, 0
5, 13675, Note_on_c, 1, 59, 0
5, 13680, Note_on_c, 1, 56, 39
5, 13680, Note_on_c, 1, 59, 50
5, 13680, Note_on_c, 1, 64, 44
5, 13735, Note_on_c, 1, 59, 0
5, 13735, Note_on_c, 1, 56, 0
5, 13740, Note_on_c, 1, 59, 39
5, 13740, Note_on_c, 1, 56, 55
5, 13772, Note_on_c, 1, 64, 0
5, 13795, Note_on_c, 1, 56, 0
5, 13795, Note_on_c, 1, 59, 0
5, 13800, Note_on_c, 1, 59, 55
5, 13800, Note_on_c, 1, 56, 55
5, 13800, Note_on_c, 1, 64, 55
5, 13850, Note_on_c, 1, 64, 0
5, 13855, Note_on_c, 1, 56, 0
5, 13855, Note_on_c, 1, 59, 0
5, 13860, Note_on_c, 1, 56, 50
5, 13860, Note_on_c, 1, 59, 50
5, 13860, Note_on_c, 1, 64, 44
5, 13887, Note_on_c, 1, 64, 0
5, 13915, Note_on_c, 1, 59, 0
5, 13915, Note_on_c, 1, 56, 0
5, 13920, Note_on_c, 1, 61, 50
5, 13920, Note_on_c, 1, 55, 50
5, 13920, Note_on_c, 1, 64, 50
5, 13975, Note_on_c, 1, 55, 0
5, 13975, Note_on_c, 1, 61, 0
5, 13980, Note_on_c, 1, 61, 44
5, 13980, Note_on_c, 1, 55, 48
5, 14020, Note_on_c, 1, 64, 0
5, 14035, Note_on_c, 1, 55, 0
5, 14035, Note_on_c, 1, 61, 0
5, 14040, Note_on_c, 1, 61, 50
5, 14040, Note_on_c, 1, 55, 50
5, 14040, Note_on_c, 1, 64, 50
5, 14095, Note_on_c, 1, 55, 0
5, 14095, Note_on_c, 1, 61, 0
5, 14100, Note_on_c, 1, 61, 34
5, 14100, Note_on_c, 1, 55, 44
5, 14140, Note_on_c, 1, 64, 0
5, 14155, Note_on_c, 1, 55, 0
5, 14155, Note_on_c, 1, 61, 0
5, 14160, Note_on_c, 1, 61, 50
5, 14160, Note_on_c, 1, 55, 39
5, 14160, Note_on_c, 1, 64, 44
5, 14215, Note_on_c, 1, 55, 0
5, 14215, Note_on_c, 1, 61, 0
5, 14220, Note_on_c, 1, 61, 39
5, 14220, Note_on_c, 1, 55, 55
5, 14252, Note_on_c, 1, 64, 0
5, 14275, Note_on_c, 1, 55, 0
5, 14275, Note_on_c, 1, 61, 0
5, 14280, Note_on_c, 1, 61, 55
5, 14280, Note_on_c, 1, 55, 55
5, 14280, Note_on_c, 1, 64, 55
5, 14330, Note_on_c, 1, 64, 0
5, 14335, Note_on_c, 1, 55, 0
5, 14335, Note_on_c, 1, 61, 0
5, 14340, Note_on_c, 1, 61, 50
5, 14340, Note_on_c, 1, 55, 50
5, 14340, Note_on_c, 1, 64, 44
5, 14367, Note_on_c, 1, 64, 0
5, 14395, Note_on_c, 1, 55, 0
5, 14395, Note_on_c, 1, 61, 0
5, 14400, Note_on_c, 1, 61, 50
5, 14400, Note_on_c, 1, 55, 50
5, 14400, Note_on_c, 1, 64, 50
5, 14455, Note_on_c, 1, 55, 0
5, 14455, Note_on_c, 1, 61, 0
5, 14460, Note_on_c, 1, 61, 44
5, 14460, Note_on_c, 1, 55, 48
5, 14500, Note_on_c, 1, 64, 0
5, 14515, Note_on_c, 1, 55, 0
5, 14515, Note_on_c, 1, 61, 0
5, 14520, Note_on_c, 1, 61, 50
5, 14520, Note_on_c, 1, 55, 50
5, 14520, Note_on_c, 1, 64, 50
5, 14575, Note_on_c, 1, 55, 0
5, 14575, Note_on_c, 1, 61, 0
5, 14580, Note_on_c, 1, 61, 34
5, 14580, Note_on_c, 1, 55, 44
5, 14620, Note_on_c, 1, 64, 0
5, 14635, Note_on_c, 1, 55, 0
5, 14635, Note_on_c, 1, 61, 0
5, 14640, Note_on_c, 1, 61, 50
5, 14640, Note_on_c, 1, 55, 39
5, 14640, Note_on_c, 1, 64, 44
5, 14695, Note_on_c, 1, 55, 0
5, 14695, Note_on_c, 1, 61, 0
5, 14700, Note_on_c, 1, 61, 39
5, 14700, Note_on_c, 1, 55, 55
5, 14732, Note_on_c, 1, 64, 0
5, 14755, Note_on_c, 1, 55, 0
5, 14755, Note_on_c, 1, 61, 0
5, 14760, Note_on_c, 1, 61, 55
5, 14760, Note_on_c, 1, 55, 55
5, 14760, Note_on_c, 1, 64, 55
5, 14810, Note_on_c, 1, 64, 0
5, 14815, Note_on_c, 1, 55, 0
5, 14815, Note_on_c, 1, 61, 0
5, 14820, Note_on_c, 1, 61, 50
5, 14820, Note_on_c, 1, 55, 50
5, 14820, Note_on_c, 1, 64, 44
5, 14847, Note_on_c, 1, 64, 0
5, 14875, Note_on_c, 1, 55, 0
5, 14875, Note_on_c, 1, 61, 0
5, 14880, Note_on_c, 1, 56, 50
5, 14880, Note_on_c, 1, 59, 50
5, 14880, Note_on_c, 1, 64, 50
5, 14935, Note_on_c, 1, 59, 0
5, 14935, Note_on_c, 1, 56, 0
5, 14940, Note_on_c, 1, 59, 44
5, 14940, Note_on_c, 1, 56, 48
5, 14975, Note_on_c, 1, 64, 0
5, 14995, Note_on_c, 1, 56, 0
5, 14995, Note_on_c, 1, 59, 0
5, 15000, Note_on_c, 1, 56, 50
5, 15000, Note_on_c, 1, 59, 50
5, 15000, Note_on_c, 1, 64, 50
5, 15055, Note_on_c, 1, 59, 0
5, 15055, Note_on_c, 1, 56, 0
5, 15060, Note_on_c, 1, 59, 34
5, 15060, Note_on_c, 1, 56, 44
5, 15090, Note_on_c, 1, 64, 0
5, 15115, Note_on_c, 1, 56, 0
5, 15115, Note_on_c, 1, 59, 0
5, 15120, Note_on_c, 1, 56, 39
5, 15120, Note_on_c, 1, 59, 50
5, 15120, Note_on_c, 1, 64, 44
5, 15175, Note_on_c, 1, 59, 0
5, 15175, Note_on_c, 1, 56, 0
5, 15180, Note_on_c, 1, 59, 39
5, 15180, Note_on_c, 1, 56, 55
5, 15210, Note_on_c, 1, 64, 0
5, 15235, Note_on_c, 1, 56, 0
5, 15235, Note_on_c, 1, 59, 0
5, 15240, Note_on_c, 1, 59, 55
5, 15240, Note_on_c, 1, 56, 55
5, 15240, Note_on_c, 1, 64, 55
5, 15290, Note_on_c, 1, 64, 0
5, 15295, Note_on_c, 1, 56, 0
5, 15295, Note_on_c, 1, 59, 0
5, 15300, Note_on_c, 1, 56, 50
5, 15300, Note_on_c, 1, 59, 50
5, 15300, Note_on_c, 1, 64, 44
5, 15327, Note_on_c, 1, 64, 0
5, 15355, Note_on_c, 1, 59, 0
5, 15355, Note_on_c, 1, 56, 0
5, 15360, Note_on_c, 1, 56, 50
5, 15360, Note_on_c, 1, 59, 50
5, 15360, Note_on_c, 1, 64, 50
5, 15415, Note_on_c, 1, 59, 0
5, 15415, Note_on_c, 1, 56, 0
5, 15420, Note_on_c, 1, 59, 44
5, 15420, Note_on_c, 1, 56, 48
5, 15460, Note_on_c, 1, 64, 0
5, 15475, Note_on_c, 1, 56, 0
5, 15475, Note_on_c, 1, 59, 0
5, 15480, Note_on_c, 1, 56, 50
5, 15480, Note_on_c, 1, 59, 50
5, 15480, Note_on_c, 1, 64, 50
5, 15535, Note_on_c, 1, 59, 0
5, 15535, Note_on_c, 1, 56, 0
5, 15540, Note_on_c, 1, 59, 34
5, 15540, Note_on_c, 1, 56, 44
5, 15571, Note_on_c, 1, 64, 0
5, 15595, Note_on_c, 1, 56, 0
5, 15595, Note_on_c, 1, 59, 0
5, 15600, Note_on_c, 1, 56, 39
5, 15600, Note_on_c, 1, 59, 50
5, 15600, Note_on_c, 1, 64, 44
5, 15655, Note_on_c, 1, 59, 0
5, 15655, Note_on_c, 1, 56, 0
5, 15660, Note_on_c, 1, 59, 39
5, 15660, Note_on_c, 1, 56, 55
5, 15700, Note_on_c, 1, 64, 0
5, 15715, Note_on_c, 1, 56, 0
5, 15715, Note_on_c, 1, 59, 0
5, 15720, Note_on_c, 1, 59, 55
5, 15720, Note_on_c, 1, 56, 55
5, 15720, Note_on_c, 1, 64, 55
5, 15770, Note_on_c, 1, 64, 0
5, 15775, Note_on_c, 1, 56, 0
5, 15775, Note_on_c, 1, 59, 0
5, 15780, Note_on_c, 1, 56, 50
5, 15780, Note_on_c, 1, 59, 50
5, 15780, Note_on_c, 1, 64, 44
5, 15807, Note_on_c, 1, 64, 0
5, 15835, Note_on_c, 1, 59, 0
5, 15835, Note_on_c, 1, 56, 0
5, 15840, Note_on_c, 1, 57, 50
5, 15840, Note_on_c, 1, 63, 50
5, 15840, Note_on_c, 1, 66, 50
5, 15895, Note_on_c, 1, 63, 0
5, 15895, Note_on_c, 1, 57, 0
5, 15900, Note_on_c, 1, 57, 48
5, 15900, Note_on_c, 1, 63, 44
5, 15940, Note_on_c, 1, 66, 0
5, 15955, Note_on_c, 1, 63, 0
5, 15955, Note_on_c, 1, 57, 0
5, 15960, Note_on_c, 1, 57, 50
5, 15960, Note_on_c, 1, 63, 50
5, 15960, Note_on_c, 1, 66, 50
5, 16015, Note_on_c, 1, 63, 0
5, 16015, Note_on_c, 1, 57, 0
5, 16020, Note_on_c, 1, 57, 44
5, 16020, Note_on_c, 1, 63, 34
5, 16060, Note_on_c, 1, 66, 0
5, 16075, Note_on_c, 1, 63, 0
5, 16075, Note_on_c, 1, 57, 0
5, 16080, Note_on_c, 1, 57, 39
5, 16080, Note_on_c, 1, 63, 50
5, 16080, Note_on_c, 1, 66, 44
5, 16135, Note_on_c, 1, 63, 0
5, 16135, Note_on_c, 1, 57, 0
5, 16140, Note_on_c, 1, 57, 55
5, 16140, Note_on_c, 1, 63, 39
5, 16172, Note_on_c, 1, 66, 0
5, 16195, Note_on_c, 1, 63, 0
5, 16195, Note_on_c, 1, 57, 0
5, 16200, Note_on_c, 1, 57, 55
5, 16200, Note_on_c, 1, 63, 55
5, 16200, Note_on_c, 1, 66, 55
5, 16250, Note_on_c, 1, 66, 0
5, 16255, Note_on_c, 1, 63, 0
5, 16255, Note_on_c, 1, 57, 0
5, 16260, Note_on_c, 1, 57, 50
5, 16260, Note_on_c, 1, 63, 50
5, 16260, Note_on_c, 1, 66, 44
5, 16287, Note_on_c, 1, 66, 0
5, 16315, Note_on_c, 1, 63, 0
5, 16315, Note_on_c, 1, 57, 0
5, 16320, Note_on_c, 1, 64, 50
5, 16320, Note_on_c, 1, 58, 50
5, 16320, Note_on_c, 1, 67, 50
5, 16375, Note_on_c, 1, 58, 0
5, 16375, Note_on_c, 1, 64, 0
5, 16380, Note_on_c, 1, 64, 44
5, 16380, Note_on_c, 1, 58, 48
5, 16420, Note_on_c, 1, 67, 0
5, 16435, Note_on_c, 1, 58, 0
5, 16435, Note_on_c, 1, 64, 0
5, 16440, Note_on_c, 1, 64, 50
5, 16440, Note_on_c, 1, 58, 50
5, 16440, Note_on_c, 1, 67, 50
5, 16495, Note_on_c, 1, 58, 0
5, 16495, Note_on_c, 1, 64, 0
5, 16500, Note_on_c, 1, 64, 34
5, 16500, Note_on_c, 1, 58, 44
5, 16540, Note_on_c, 1, 67, 0
5, 16555, Note_on_c, 1, 58, 0
5, 16555, Note_on_c, 1, 64, 0
5, 16560, Note_on_c, 1, 57, 39
5, 16560, Note_on_c, 1, 63, 50
5, 16560, Note_on_c, 1, 66, 44
5, 16615, Note_on_c, 1, 63, 0
5, 16615, Note_on_c, 1, 57, 0
5, 16620, Note_on_c, 1, 57, 55
5, 16620, Note_on_c, 1, 63, 39
5, 16652, Note_on_c, 1, 66, 0
5, 16675, Note_on_c, 1, 63, 0
5, 16675, Note_on_c, 1, 57, 0
5, 16680, Note_on_c, 1, 57, 55
5, 16680, Note_on_c, 1, 63, 55
5, 16680, Note_on_c, 1, 66, 55
5, 16730, Note_on_c, 1, 66, 0
5, 16735, Note_on_c, 1, 63, 0
5, 16735, Note_on_c, 1, 57, 0
5, 16740, Note_on_c, 1, 57, 50
5, 16740, Note_on_c, 1, 63, 50
5, 16740, Note_on_c, 1, 66, 44
5, 16767, Note_on_c, 1, 66, 0
5, 16795, Note_on_c, 1, 63, 0
5, 16795, Note_on_c, 1, 57, 0
5, 16800, Note_on_c, 1, 56, 50
5, 16800, Note_on_c, 1, 59, 50
5, 16800, Note_on_c, 1, 64, 50
5, 16855, Note_on_c, 1, 59, 0
5, 16855, Note_on_c, 1, 56, 0
5, 16860, Note_on_c, 1, 59, 44
5, 16860, Note_on_c, 1, 56, 48
5, 16895, Note_on_c, 1, 64, 0
5, 16915, Note_on_c, 1, 56, 0
5, 16915, Note_on_c, 1, 59, 0
5, 16920, Note_on_c, 1, 56, 50
5, 16920, Note_on_c, 1, 59, 50
5, 16920, Note_on_c, 1, 64, 50
5, 16975, Note_on_c, 1, 59, 0
5, 16975, Note_on_c, 1, 56, 0
5, 16980, Note_on_c, 1, 59, 34
5, 16980, Note_on_c, 1, 56, 44
5, 17010, Note_on_c, 1, 64, 0
5, 17035, Note_on_c, 1, 56, 0
5, 17035, Note_on_c, 1, 59, 0
5, 17040, Note_on_c, 1, 56, 39
5, 17040, Note_on_c, 1, 59, 50
5, 17040, Note_on_c, 1, 64, 44
5, 17095, Note_on_c, 1, 59, 0
5, 17095, Note_on_c, 1, 56, 0
5, 17100, Note_on_c, 1, 59, 39
5, 17100, Note_on_c, 1, 56, 55
5, 17130, Note_on_c, 1, 64, 0
5, 17155, Note_on_c, 1, 56, 0
5, 17155, Note_on_c, 1, 59, 0
5, 17160, Note_on_c, 1, 59, 55
5, 17160, Note_on_c, 1, 56, 55
5, 17160, Note_on_c, 1, 64, 55
5, 17210, Note_on_c, 1, 64, 0
5, 17215, Note_on_c, 1, 56, 0
5, 17215, Note_on_c, 1, 59, 0
5, 17220, Note_on_c, 1, 56, 50
5, 17220, Note_on_c, 1, 59, 50
5, 17220, Note_on_c, 1, 64, 44
5, 17247, Note_on_c, 1, 64, 0
5, 17275, Note_on_c, 1, 59, 0
5, 17275, Note_on_c, 1, 56, 0
5, 17280, Note_on_c, 1, 56, 50
5, 17280, Note_on_c, 1, 59, 50
5, 17280, Note_on_c, 1, 64, 50
5, 17335, Note_on_c, 1, 59, 0
5, 17335, Note_on_c, 1, 56, 0
5, 17340, Note_on_c, 1, 59, 44
5, 17340, Note_on_c, 1, 56, 48
5, 17380, Note_on_c, 1, 64, 0
5, 17395, Note_on_c, 1, 56, 0
5, 17395, Note_on_c, 1, 59, 0
5, 17400, Note_on_c, 1, 56, 50
5, 17400, Note_on_c, 1, 59, 50
5, 17400, Note_on_c, 1, 64, 50
5, 17455, Note_on_c, 1, 59, 0
5, 17455, Note_on_c, 1, 56, 0
5, 17460, Note_on_c, 1, 59, 34
5, 17460, Note_on_c, 1, 56, 44
5, 17491, Note_on_c, 1, 64, 0
5, 17515, Note_on_c, 1, 56, 0
5, 17515, Note_on_c, 1, 59, 0
5, 17520, Note_on_c, 1, 56, 39
5, 17520, Note_on_c, 1, 59, 50
5, 17520, Note_on_c, 1, 64, 44
5, 17575, Note_on_c, 1, 59, 0
5, 17575, Note_on_c, 1, 56, 0
5, 17580, Note_on_c, 1, 59, 39
5, 17580, Note_on_c, 1, 56, 55
5, 17620, Note_on_c, 1, 64, 0
5, 17635, Note_on_c, 1, 56, 0
5, 17635, Note_on_c, 1, 59, 0
5, 17640, Note_on_c, 1, 59, 55
5, 17640, Note_on_c, 1, 56, 55
5, 17640, Note_on_c, 1, 64, 55
5, 17690, Note_on_c, 1, 64, 0
5, 17695, Note_on_c, 1, 56, 0
5, 17695, Note_on_c, 1, 59, 0
5, 17700, Note_on_c, 1, 56, 50
5, 17700, Note_on_c, 1, 59, 50
5, 17700, Note_on_c, 1, 64, 44
5, 17727, Note_on_c, 1, 64, 0
5, 17755, Note_on_c, 1, 59, 0
5, 17755, Note_on_c, 1, 56, 0
5, 17760, Note_on_c, 1, 56, 50
5, 17760, Note_on_c, 1, 59, 50
5, 17760, Note_on_c, 1, 64, 50
5, 17815, Note_on_c, 1, 59, 0
5, 17815, Note_on_c, 1, 56, 0
5, 17820, Note_on_c, 1, 59, 44
5, 17820, Note_on_c, 1, 56, 48
5, 17855, Note_on_c, 1, 64, 0
5, 17875, Note_on_c, 1, 56, 0
5, 17875, Note_on_c, 1, 59, 0
5, 17880, Note_on_c, 1, 56, 50
5, 17880, Note_on_c, 1, 59, 50
5, 17880, Note_on_c, 1, 64, 50
5, 17935, Note_on_c, 1, 59, 0
5, 17935, Note_on_c, 1, 56, 0
5, 17940, Note_on_c, 1, 59, 34
5, 17940, Note_on_c, 1, 56, 44
5, 17970, Note_on_c, 1, 64, 0
5, 17995, Note_on_c, 1, 56, 0
5, 17995, Note_on_c, 1, 59, 0
5, 18000, Note_on_c, 1, 56, 39
5, 18000, Note_on_c, 1, 59, 50
5, 18000, Note_on_c, 1, 64, 44
5, 18055, Note_on_c, 1, 59, 0
5, 18055, Note_on_c, 1, 56, 0
5, 18060, Note_on_c, 1, 59, 39
5, 18060, Note_on_c, 1, 56, 55
5, 18090, Note_on_c, 1, 64, 0
5, 18115, Note_on_c, 1, 56, 0
5, 18115, Note_on_c, 1, 59, 0
5, 18120, Note_on_c, 1, 59, 55
5, 18120, Note_on_c, 1, 56, 55
5, 18120, Note_on_c, 1, 64, 55
5, 18170, Note_on_c, 1, 64, 0
5, 18175, Note_on_c, 1, 56, 0
5, 18175, Note_on_c, 1, 59, 0
5, 18180, Note_on_c, 1, 56, 50
5, 18180, Note_on_c, 1, 59, 50
5, 18180, Note_on_c, 1, 64, 44
5, 18207, Note_on_c, 1, 64, 0
5, 18235, Note_on_c, 1, 59, 0
5, 18235, Note_on_c, 1, 56, 0
5, 18240, Note_on_c, 1, 56, 50
5, 18240, Note_on_c, 1, 59, 50
5, 18240, Note_on_c, 1, 64, 50
5, 18295, Note_on_c, 1, 59, 0
5, 18295, Note_on_c, 1, 56, 0
5, 18300, Note_on_c, 1, 59, 44
5, 18300, Note_on_c, 1, 56, 48
5, 18340, Note_on_c, 1, 64, 0
5, 18355, Note_on_c, 1, 56, 0
5, 18355, Note_on_c, 1, 59, 0
5, 18360, Note_on_c, 1, 56, 50
5, 18360, Note_on_c, 1, 59, 50
5, 18360, Note_on_c, 1, 64, 50
5, 18415, Note_on_c, 1, 59, 0
5, 18415, Note_on_c, 1, 56, 0
5, 18420, Note_on_c, 1, 59, 34
5, 18420, Note_on_c, 1, 56, 44
5, 18451, Note_on_c, 1, 64, 0
5, 18475, Note_on_c, 1, 56, 0
5, 18475, Note_on_c, 1, 59, 0
5, 18480, Note_on_c, 1, 56, 39
5, 18480, Note_on_c, 1, 59, 50
5, 18480, Note_on_c, 1, 64, 44
5, 18535, Note_on_c, 1, 59, 0
5, 18535, Note_on_c, 1, 56, 0
5, 18540, Note_on_c, 1, 59, 39
5, 18540, Note_on_c, 1, 56, 55
5, 18580, Note_on_c, 1, 64, 0
5, 18595, Note_on_c, 1, 56, 0
5, 18595, Note_on_c, 1, 59, 0
5, 18600, Note_on_c, 1, 59, 55
5, 18600, Note_on_c, 1, 56, 55
5, 18600, Note_on_c, 1, 64, 55
5, 18650, Note_on_c, 1, 64, 0
5, 18655, Note_on_c, 1, 56, 0
5, 18655, Note_on_c, 1, 59, 0
5, 18660, Note_on_c, 1, 56, 50
5, 18660, Note_on_c, 1, 59, 50
5, 18660, Note_on_c, 1, 64, 44
5, 18687, Note_on_c, 1, 64, 0
5, 18715, Note_on_c, 1, 59, 0
5, 18715, Note_on_c, 1, 56, 0
5, 18720, Note_on_c, 1, 56, 50
5, 18720, Note_on_c, 1, 59, 50
5, 18720, Note_on_c, 1, 64, 50
5, 18775, Note_on_c, 1, 59, 0
5, 18775, Note_on_c, 1, 56, 0
5, 18780, Note_on_c, 1, 59, 44
5, 18780, Note_on_c, 1, 56, 48
5, 18820, Note_on_c, 1, 64, 0
5, 18835, Note_on_c, 1, 56, 0
5, 18835, Note_on_c, 1, 59, 0
5, 18840, Note_on_c, 1, 56, 50
5, 18840, Note_on_c, 1, 59, 50
5, 18840, Note_on_c, 1, 64, 50
5, 18895, Note_on_c, 1, 59, 0
5, 18895, Note_on_c, 1, 56, 0
5, 18900, Note_on_c, 1, 59, 34
5, 18900, Note_on_c, 1, 56, 44
5, 18935, Note_on_c, 1, 64, 0
5, 18955, Note_on_c, 1, 56, 0
5, 18955, Note_on_c, 1, 59, 0
5, 18960, Note_on_c, 1, 56, 39
5, 18960, Note_on_c, 1, 59, 50
5, 18960, Note_on_c, 1, 64, 44
5, 19015, Note_on_c, 1, 59, 0
5, 19015, Note_on_c, 1, 56, 0
5, 19020, Note_on_c, 1, 59, 39
5, 19020, Note_on_c, 1, 56, 55
5, 19060, Note_on_c, 1, 64, 0
5, 19075, Note_on_c, 1, 56, 0
5, 19075, Note_on_c, 1, 59, 0
5, 19080, Note_on_c, 1, 59, 55
5, 19080, Note_on_c, 1, 56, 55
5, 19080, Note_on_c, 1, 64, 55
5, 19130, Note_on_c, 1, 64, 0
5, 19135, Note_on_c, 1, 56, 0
5, 19135, Note_on_c, 1, 59, 0
5, 19140, Note_on_c, 1, 56, 50
5, 19140, Note_on_c, 1, 59, 50
5, 19140, Note_on_c, 1, 64, 44
5, 19167, Note_on_c, 1, 64, 0
5, 19195, Note_on_c, 1, 59, 0
5, 19195, Note_on_c, 1, 56, 0
5, 19200, Note_on_c, 1, 56, 50
5, 19200, Note_on_c, 1, 59, 50
5, 19200, Note_on_c, 1, 64, 50
5, 19255, Note_on_c, 1, 59, 0
5, 19255, Note_on_c, 1, 56, 0
5, 19260, Note_on_c, 1, 59, 44
5, 19260, Note_on_c, 1, 56, 48
5, 19300, Note_on_c, 1, 64, 0
5, 19315, Note_on_c, 1, 56, 0
5, 19315, Note_on_c, 1, 59, 0
5, 19320, Note_on_c, 1, 56, 50
5, 19320, Note_on_c, 1, 59, 50
5, 19320, Note_on_c, 1, 64, 50
5, 19375, Note_on_c, 1, 59, 0
5, 19375, Note_on_c, 1, 56, 0
5, 19380, Note_on_c, 1, 59, 34
5, 19380, Note_on_c, 1, 56, 44
5, 19420, Note_on_c, 1, 64, 0
5, 19435, Note_on_c, 1, 56, 0
5, 19435, Note_on_c, 1, 59, 0
5, 19440, Note_on_c, 1, 56, 39
5, 19440, Note_on_c, 1, 59, 50
5, 19440, Note_on_c, 1, 64, 44
5, 19495, Note_on_c, 1, 59, 0
5, 19495, Note_on_c, 1, 56, 0
5, 19500, Note_on_c, 1, 59, 39
5, 19500, Note_on_c, 1, 56, 55
5, 19532, Note_on_c, 1, 64, 0
5, 19555, Note_on_c, 1, 56, 0
5, 19555, Note_on_c, 1, 59, 0
5, 19560, Note_on_c, 1, 59, 55
5, 19560, Note_on_c, 1, 56, 55
5, 19560, Note_on_c, 1, 64, 55
5, 19610, Note_on_c, 1, 64, 0
5, 19615, Note_on_c, 1, 56, 0
5, 19615, Note_on_c, 1, 59, 0
5, 19620, Note_on_c, 1, 56, 50
5, 19620, Note_on_c, 1, 59, 50
5, 19620, Note_on_c, 1, 64, 44
5, 19647, Note_on_c, 1, 64, 0
5, 19675, Note_on_c, 1, 59, 0
5, 19675, Note_on_c, 1, 56, 0
5, 19680, Note_on_c, 1, 61, 50
5, 19680, Note_on_c, 1, 55, 50
5, 19680, Note_on_c, 1, 64, 50
5, 19735, Note_on_c, 1, 55, 0
5, 19735, Note_on_c, 1, 61, 0
5, 19740, Note_on_c, 1, 61, 44
5, 19740, Note_on_c, 1, 55, 48
5, 19780, Note_on_c, 1, 64, 0
5, 19795, Note_on_c, 1, 55, 0
5, 19795, Note_on_c, 1, 61, 0
5, 19800, Note_on_c, 1, 61, 50
5, 19800, Note_on_c, 1, 55, 50
5, 19800, Note_on_c, 1, 64, 50
5, 19855, Note_on_c, 1, 55, 0
5, 19855, Note_on_c, 1, 61, 0
5, 19860, Note_on_c, 1, 61, 34
5, 19860, Note_on_c, 1, 55, 44
5, 19900, Note_on_c, 1, 64, 0
5, 19915, Note_on_c, 1, 55, 0
5, 19915, Note_on_c, 1, 61, 0
5, 19920, Note_on_c, 1, 61, 50
5, 19920, Note_on_c, 1, 55, 39
5, 19920, Note_on_c, 1, 64, 44
5, 19975, Note_on_c, 1, 55, 0
5, 19975, Note_on_c, 1, 61, 0
5, 19980, Note_on_c, 1, 61, 39
5, 19980, Note_on_c, 1, 55, 55
5, 20012, Note_on_c, 1, 64, 0
5, 20035, Note_on_c, 1, 55, 0
5, 20035, Note_on_c, 1, 61, 0
5, 20040, Note_on_c, 1, 61, 55
5, 20040, Note_on_c, 1, 55, 55
5, 20040, Note_on_c, 1, 64, 55
5, 20090, Note_on_c, 1, 64, 0
5, 20095, Note_on_c, 1, 55, 0
5, 20095, Note_on_c, 1, 61, 0
5, 20100, Note_on_c, 1, 61, 50
5, 20100, Note_on_c, 1, 55, 50
5, 20100, Note_on_c, 1, 64, 44
5, 20127, Note_on_c, 1, 64, 0
5, 20155, Note_on_c, 1, 55, 0
5, 20155, Note_on_c, 1, 61, 0
5, 20160, Note_on_c, 1, 61, 50
5, 20160, Note_on_c, 1, 55, 50
5, 20160, Note_on_c, 1, 64, 50
5, 20215, Note_on_c, 1, 55, 0
5, 20215, Note_on_c, 1, 61, 0
5, 20220, Note_on_c, 1, 61, 44
5, 20220, Note_on_c, 1, 55, 48
5, 20260, Note_on_c, 1, 64, 0
5, 20275, Note_on_c, 1, 55, 0
5, 20275, Note_on_c, 1, 61, 0
5, 20280, Note_on_c, 1, 61, 50
5, 20280, Note_on_c, 1, 55, 50
5, 20280, Note_on_c, 1, 64, 50
5, 20335, Note_on_c, 1, 55, 0
5, 20335, Note_on_c, 1, 61, 0
5, 20340, Note_on_c, 1, 61, 34
5, 20340, Note_on_c, 1, 55, 44
5, 20380, Note_on_c, 1, 64, 0
5, 20395, Note_on_c, 1, 55, 0
5, 20395, Note_on_c, 1, 61, 0
5, 20400, Note_on_c, 1, 61, 50
5, 20400, Note_on_c, 1, 55, 39
5, 20400, Note_on_c, 1, 64, 44
5, 20455, Note_on_c, 1, 55, 0
5, 20455, Note_on_c, 1, 61, 0
5, 20460, Note_on_c, 1, 61, 39
5, 20460, Note_on_c, 1, 55, 55
5, 20492, Note_on_c, 1, 64, 0
5, 20515, Note_on_c, 1, 55, 0
5, 20515, Note_on_c, 1, 61, 0
5, 20520, Note_on_c, 1, 61, 55
5, 20520, Note_on_c, 1, 55, 55
5, 20520, Note_on_c, 1, 64, 55
5, 20570, Note_on_c, 1, 64, 0
5, 20575, Note_on_c, 1, 55, 0
5, 20575, Note_on_c, 1, 61, 0
5, 20580, Note_on_c, 1, 61, 50
5, 20580, Note_on_c, 1, 55, 50
5, 20580, Note_on_c, 1, 64, 44
5, 20607, Note_on_c, 1, 64, 0
5, 20635, Note_on_c, 1, 55, 0
5, 20635, Note_on_c, 1, 61, 0
5, 20640, Note_on_c, 1, 56, 50
5, 20640, Note_on_c, 1, 59, 50
5, 20640, Note_on_c, 1, 64, 50
5, 20695, Note_on_c, 1, 59, 0
5, 20695, Note_on_c, 1, 56, 0
5, 20700, Note_on_c, 1, 59, 44
5, 20700, Note_on_c, 1, 56, 48
5, 20735, Note_on_c, 1, 64, 0
5, 20755, Note_on_c, 1, 56, 0
5, 20755, Note_on_c, 1, 59, 0
5, 20760, Note_on_c, 1, 56, 50
5, 20760, Note_on_c, 1, 59, 50
5, 20760, Note_on_c, 1, 64, 50
5, 20815, Note_on_c, 1, 59, 0
5, 20815, Note_on_c, 1, 56, 0
5, 20820, Note_on_c, 1, 59, 34
5, 20820, Note_on_c, 1, 56, 44
5, 20850, Note_on_c, 1, 64, 0
5, 20875, Note_on_c, 1, 56, 0
5, 20875, Note_on_c, 1, 59, 0
5, 20880, Note_on_c, 1, 56, 39
5, 20880, Note_on_c, 1, 59, 50
5, 20880, Note_on_c, 1, 64, 44
5, 20935, Note_on_c, 1, 59, 0
5, 20935, Note_on_c, 1, 56, 0
5, 20940, Note_on_c, 1, 59, 39
5, 20940, Note_on_c, 1, 56, 55
5, 20970, Note_on_c, 1, 64, 0
5, 20995, Note_on_c, 1, 56, 0
5, 20995, Note_on_c, 1, 59, 0
5, 21000, Note_on_c, 1, 59, 55
5, 21000, Note_on_c, 1, 56, 55
5, 21000, Note_on_c, 1, 64, 55
5, 21050, Note_on_c, 1, 64, 0
5, 21055, Note_on_c, 1, 56, 0
5, 21055, Note_on_c, 1, 59, 0
5, 21060, Note_on_c, 1, 56, 50
5, 21060, Note_on_c, 1, 59, 50
5, 21060, Note_on_c, 1, 64, 44
5, 21087, Note_on_c, 1, 64, 0
5, 21115, Note_on_c, 1, 59, 0
5, 21115, Note_on_c, 1, 56, 0
5, 21120, Note_on_c, 1, 56, 50
5, 21120, Note_on_c, 1, 59, 50
5, 21120, Note_on_c, 1, 64, 50
5, 21175, Note_on_c, 1, 59, 0
5, 21175, Note_on_c, 1, 56, 0
5, 21180, Note_on_c, 1, 59, 44
5, 21180, Note_on_c, 1, 56, 48
5, 21220, Note_on_c, 1, 64, 0
5, 21235, Note_on_c, 1, 56, 0
5, 21235, Note_on_c, 1, 59, 0
5, 21240, Note_on_c, 1, 56, 50
5, 21240, Note_on_c, 1, 59, 50
5, 21240, Note_on_c, 1, 64, 50
5, 21295, Note_on_c, 1, 59, 0
5, 21295, Note_on_c, 1, 56, 0
5, 21300, Note_on_c, 1, 59, 34
5, 21300, Note_on_c, 1, 56, 44
5, 21331, Note_on_c, 1, 64, 0
5, 21355, Note_on_c, 1, 56, 0
5, 21355, Note_on_c, 1, 59, 0
5, 21360, Note_on_c, 1, 56, 39
5, 21360, Note_on_c, 1, 59, 50
5, 21360, Note_on_c, 1, 64, 44
5, 21415, Note_on_c, 1, 59, 0
5, 21415, Note_on_c, 1, 56, 0
5, 21420, Note_on_c, 1, 59, 39
5, 21420, Note_on_c, 1, 56, 55
5, 21460, Note_on_c, 1, 64, 0
5, 21475, Note_on_c, 1, 56, 0
5, 21475, Note_on_c, 1, 59, 0
5, 21480, Note_on_c, 1, 59, 55
5, 21480, Note_on_c, 1, 56, 55
5, 21480, Note_on_c, 1, 64, 55
5, 21530, Note_on_c, 1, 64, 0
5, 21535, Note_on_c, 1, 56, 0
5, 21535, Note_on_c, 1, 59, 0
5, 21540, Note_on_c, 1, 56, 50
5, 21540, Note_on_c, 1, 59, 50
5, 21540, Note_on_c, 1, 64, 44
5, 21567, Note_on_c, 1, 64, 0
5, 21595, Note_on_c, 1, 59, 0
5, 21595, Note_on_c, 1, 56, 0
5, 21600, Note_on_c, 1, 66, 50
5, 21600, Note_on_c, 1, 63, 50
5, 21600, Note_on_c, 1, 57, 50
5, 21650, Note_on_c, 1, 57, 0
5, 21652, Note_on_c, 1, 63, 0
5, 21660, Note_on_c, 1, 57, 48
5, 21660, Note_on_c, 1, 63, 44
5, 21700, Note_on_c, 1, 66, 0
5, 21715, Note_on_c, 1, 63, 0
5, 21715, Note_on_c, 1, 57, 0
5, 21720, Note_on_c, 1, 57, 50
5, 21720, Note_on_c, 1, 63, 50
5, 21720, Note_on_c, 1, 66, 50
5, 21775, Note_on_c, 1, 63, 0
5, 21775, Note_on_c, 1, 57, 0
5, 21780, Note_on_c, 1, 57, 44
5, 21780, Note_on_c, 1, 63, 34
5, 21820, Note_on_c, 1, 66, 0
5, 21835, Note_on_c, 1, 63, 0
5, 21835, Note_on_c, 1, 57, 0
5, 21840, Note_on_c, 1, 57, 39
5, 21840, Note_on_c, 1, 63, 50
5, 21840, Note_on_c, 1, 66, 44
5, 21895, Note_on_c, 1, 63, 0
5, 21895, Note_on_c, 1, 57, 0
5, 21900, Note_on_c, 1, 57, 55
5, 21900, Note_on_c, 1, 63, 39
5, 21932, Note_on_c, 1, 66, 0
5, 21955, Note_on_c, 1, 63, 0
5, 21955, Note_on_c, 1, 57, 0
5, 21960, Note_on_c, 1, 57, 55
5, 21960, Note_on_c, 1, 63, 55
5, 21960, Note_on_c, 1, 66, 55
5, 22010, Note_on_c, 1, 66, 0
5, 22015, Note_on_c, 1, 63, 0
5, 22015, Note_on_c, 1, 57, 0
5, 22020, Note_on_c, 1, 57, 50
5, 22020, Note_on_c, 1, 63, 50
5, 22020, Note_on_c, 1, 66, 44
5, 22047, Note_on_c, 1, 66, 0
5, 22075, Note_on_c, 1, 63, 0
5, 22075, Note_on_c, 1, 57, 0
5, 22080, Note_on_c, 1, 64, 50
5, 22080, Note_on_c, 1, 58, 50
5, 22080, Note_on_c, 1, 67, 50
5, 22135, Note_on_c, 1, 58, 0
5, 22135, Note_on_c, 1, 64, 0
5, 22140, Note_on_c, 1, 64, 44
5, 22140, Note_on_c, 1, 58, 48
5, 22180, Note_on_c, 1, 67, 0
5, 22195, Note_on_c, 1, 58, 0
5, 22195, Note_on_c, 1, 64, 0
5, 22200, Note_on_c, 1, 64, 50
5, 22200, Note_on_c, 1, 58, 50
5, 22200, Note_on_c, 1, 67, 50
5, 22255, Note_on_c, 1, 58, 0
5, 22255, Note_on_c, 1, 64, 0
5, 22260, Note_on_c, 1, 64, 34
5, 22260, Note_on_c, 1, 58, 44
5, 22300, Note_on_c, 1, 67, 0
5, 22315, Note_on_c, 1, 58, 0
5, 22315, Note_on_c, 1, 64, 0
5, 22320, Note_on_c, 1, 57, 39
5, 22320, Note_on_c, 1, 63, 50
5, 22320, Note_on_c, 1, 66, 44
5, 22375, Note_on_c, 1, 63, 0
5, 22375, Note_on_c, 1, 57, 0
5, 22380, Note_on_c, 1, 57, 55
5, 22380, Note_on_c, 1, 63, 39
5, 22412, Note_on_c, 1, 66, 0
5, 22435, Note_on_c, 1, 63, 0
5, 22435, Note_on_c, 1, 57, 0
5, 22440, Note_on_c, 1, 57, 55
5, 22440, Note_on_c, 1, 63, 55
5, 22440, Note_on_c, 1, 66, 55
5, 22490, Note_on_c, 1, 66, 0
5, 22495, Note_on_c, 1, 63, 0
5, 22495, Note_on_c, 1, 57, 0
5, 22500, Note_on_c, 1, 57, 50
5, 22500, Note_on_c, 1, 63, 50
5, 22500, Note_on_c, 1, 66, 44
5, 22527, Note_on_c, 1, 66, 0
5, 22555, Note_on_c, 1, 63, 0
5, 22555, Note_on_c, 1, 57, 0
5, 22560, Note_on_c, 1, 56, 50
5, 22560, Note_on_c, 1, 59, 50
5, 22560, Note_on_c, 1, 64, 50
5, 22615, Note_on_c, 1, 59, 0
5, 22615, Note_on_c, 1, 56, 0
5, 22620, Note_on_c, 1, 59, 44
5, 22620, Note_on_c, 1, 56, 48
5, 22655, Note_on_c, 1, 64, 0
5, 22675, Note_on_c, 1, 56, 0
5, 22675, Note_on_c, 1, 59, 0
5, 22680, Note_on_c, 1, 56, 50
5, 22680, Note_on_c, 1, 59, 50
5, 22680, Note_on_c, 1, 64, 50
5, 22735, Note_on_c, 1, 59, 0
5, 22735, Note_on_c, 1, 56, 0
5, 22740, Note_on_c, 1, 59, 34
5, 22740, Note_on_c, 1, 56, 44
5, 22770, Note_on_c, 1, 64, 0
5, 22795, Note_on_c, 1, 56, 0
5, 22795, Note_on_c, 1, 59, 0
5, 22800, Note_on_c, 1, 56, 39
5, 22800, Note_on_c, 1, 59, 50
5, 22800, Note_on_c, 1, 64, 44
5, 22855, Note_on_c, 1, 59, 0
5, 22855, Note_on_c, 1, 56, 0
5, 22860, Note_on_c, 1, 59, 39
5, 22860, Note_on_c, 1, 56, 55
5, 22890, Note_on_c, 1, 64, 0
5, 22915, Note_on_c, 1, 56, 0
5, 22915, Note_on_c, 1, 59, 0
5, 22920, Note_on_c, 1, 59, 55
5, 22920, Note_on_c, 1, 56, 55
5, 22920, Note_on_c, 1, 64, 55
5, 22970, Note_on_c, 1, 64, 0
5, 22975, Note_on_c, 1, 56, 0
5, 22975, Note_on_c, 1, 59, 0
5, 22980, Note_on_c, 1, 56, 50
5, 22980, Note_on_c, 1, 59, 50
5, 22980, Note_on_c, 1, 64, 44
5, 23007, Note_on_c, 1, 64, 0
5, 23035, Note_on_c, 1, 59, 0
5, 23035, Note_on_c, 1, 56, 0
5, 23040, Note_on_c, 1, 56, 50
5, 23040, Note_on_c, 1, 59, 50
5, 23040, Note_on_c, 1, 64, 50
5, 23095, Note_on_c, 1, 59, 0
5, 23095, Note_on_c, 1, 56, 0
5, 23100, Note_on_c, 1, 59, 44
5, 23100, Note_on_c, 1, 56, 48
5, 23140, Note_on_c, 1, 64, 0
5, 23155, Note_on_c, 1, 56, 0
5, 23155, Note_on_c, 1, 59, 0
5, 23160, Note_on_c, 1, 56, 50
5, 23160, Note_on_c, 1, 59, 50
5, 23160, Note_on_c, 1, 64, 50
5, 23215, Note_on_c, 1, 59, 0
5, 23215, Note_on_c, 1, 56, 0
5, 23220, Note_on_c, 1, 59, 34
5, 23220, Note_on_c, 1, 56, 44
5, 23251, Note_on_c, 1, 64, 0
5, 23275, Note_on_c, 1, 56, 0
5, 23275, Note_on_c, 1, 59, 0
5, 23280, Note_on_c, 1, 56, 39
5, 23280, Note_on_c, 1, 59, 50
5, 23280, Note_on_c, 1, 64, 44
5, 23335, Note_on_c, 1, 59, 0
5, 23335, Note_on_c, 1, 56, 0
5, 23340, Note_on_c, 1, 59, 39
5, 23340, Note_on_c, 1, 56, 55
5, 23380, Note_on_c, 1, 64, 0
5, 23395, Note_on_c, 1, 56, 0
5, 23395, Note_on_c, 1, 59, 0
5, 23400, Note_on_c, 1, 59, 55
5, 23400, Note_on_c, 1, 56, 55
5, 23400, Note_on_c, 1, 64, 55
5, 23450, Note_on_c, 1, 64, 0
5, 23455, Note_on_c, 1, 56, 0
5, 23455, Note_on_c, 1, 59, 0
5, 23460, Note_on_c, 1, 56, 50
5, 23460, Note_on_c, 1, 59, 50
5, 23460, Note_on_c, 1, 64, 44
5, 23487, Note_on_c, 1, 64, 0
5, 23515, Note_on_c, 1, 59, 0
5, 23515, Note_on_c, 1, 56, 0
5, 23520, Note_on_c, 1, 56, 50
5, 23520, Note_on_c, 1, 59, 50
5, 23520, Note_on_c, 1, 64, 50
5, 23575, Note_on_c, 1, 59, 0
5, 23575, Note_on_c, 1, 56, 0
5, 23580, Note_on_c, 1, 59, 44
5, 23580, Note_on_c, 1, 56, 48
5, 23615, Note_on_c, 1, 64, 0
5, 23635, Note_on_c, 1, 56, 0
5, 23635, Note_on_c, 1, 59, 0
5, 23640, Note_on_c, 1, 56, 50
5, 23640, Note_on_c, 1, 59, 50
5, 23640, Note_on_c, 1, 64, 50
5, 23695, Note_on_c, 1, 59, 0
5, 23695, Note_on_c, 1, 56, 0
5, 23700, Note_on_c, 1, 59, 34
5, 23700, Note_on_c, 1, 56, 44
5, 23730, Note_on_c, 1, 64, 0
5, 23755, Note_on_c, 1, 56, 0
5, 23755, Note_on_c, 1, 59, 0
5, 23760, Note_on_c, 1, 56, 39
5, 23760, Note_on_c, 1, 59, 50
5, 23760, Note_on_c, 1, 64, 44
5, 23815, Note_on_c, 1, 59, 0
5, 23815, Note_on_c, 1, 56, 0
5, 23820, Note_on_c, 1, 59, 39
5, 23820, Note_on_c, 1, 56, 55
5, 23850, Note_on_c, 1, 64, 0
5, 23875, Note_on_c, 1, 56, 0
5, 23875, Note_on_c, 1, 59, 0
5, 23880, Note_on_c, 1, 59, 55
5, 23880, Note_on_c, 1, 56, 55
5, 23880, Note_on_c, 1, 64, 55
5, 23930, Note_on_c, 1, 64, 0
5, 23935, Note_on_c, 1, 56, 0
5, 23935, Note_on_c, 1, 59, 0
5, 23940, Note_on_c, 1, 56, 50
5, 23940, Note_on_c, 1, 59, 50
5, 23940, Note_on_c, 1, 64, 44
5, 23967, Note_on_c, 1, 64, 0
5, 23995, Note_on_c, 1, 59, 0
5, 23995, Note_on_c, 1, 56, 0
5, 24000, Note_on_c, 1, 56, 50
5, 24000, Note_on_c, 1, 59, 50
5, 24000, Note_on_c, 1, 64, 50
5, 24055, Note_on_c, 1, 59, 0
5, 24055, Note_on_c, 1, 56, 0
5, 24060, Note_on_c, 1, 59, 44
5, 24060, Note_on_c, 1, 56, 48
5, 24100, Note_on_c, 1, 64, 0
5, 24115, Note_on_c, 1, 56, 0
5, 24115, Note_on_c, 1, 59, 0
5, 24120, Note_on_c, 1, 56, 50
5, 24120, Note_on_c, 1, 59, 50
5, 24120, Note_on_c, 1, 64, 50
5, 24175, Note_on_c, 1, 59, 0
5, 24175, Note_on_c, 1, 56, 0
5, 24180, Note_on_c, 1, 59, 34
5, 24180, Note_on_c, 1, 56, 44
5, 24211, Note_on_c, 1, 64, 0
5, 24235, Note_on_c, 1, 56, 0
5, 24235, Note_on_c, 1, 59, 0
5, 24240, Note_on_c, 1, 56, 39
5, 24240, Note_on_c, 1, 59, 50
5, 24240, Note_on_c, 1, 64, 44
5, 24295, Note_on_c, 1, 59, 0
5, 24295, Note_on_c, 1, 56, 0
5, 24300, Note_on_c, 1, 59, 39
5, 24300, Note_on_c, 1, 56, 55
5, 24340, Note_on_c, 1, 64, 0
5, 24355, Note_on_c, 1, 56, 0
5, 24355, Note_on_c, 1, 59, 0
5, 24360, Note_on_c, 1, 59, 55
5, 24360, Note_on_c, 1, 56, 55
5, 24360, Note_on_c, 1, 64, 55
5, 24410, Note_on_c, 1, 64, 0
5, 24415, Note_on_c, 1, 56, 0
5, 24415, Note_on_c, 1, 59, 0
5, 24420, Note_on_c, 1, 56, 50
5, 24420, Note_on_c, 1, 59, 50
5, 24420, Note_on_c, 1, 64, 44
5, 24447, Note_on_c, 1, 64, 0
5, 24475, Note_on_c, 1, 59, 0
5, 24475, Note_on_c, 1, 56, 0
5, 24480, Note_on_c, 1, 56, 50
5, 24480, Note_on_c, 1, 59, 50
5, 24480, Note_on_c, 1, 64, 50
5, 24535, Note_on_c, 1, 59, 0
5, 24535, Note_on_c, 1, 56, 0
5, 24540, Note_on_c, 1, 59, 44
5, 24540, Note_on_c, 1, 56, 48
5, 24575, Note_on_c, 1, 64, 0
5, 24595, Note_on_c, 1, 56, 0
5, 24595, Note_on_c, 1, 59, 0
5, 24600, Note_on_c, 1, 56, 50
5, 24600, Note_on_c, 1, 59, 50
5, 24600, Note_on_c, 1, 64, 50
5, 24655, Note_on_c, 1, 59, 0
5, 24655, Note_on_c, 1, 56, 0
5, 24660, Note_on_c, 1, 59, 34
5, 24660, Note_on_c, 1, 56, 44
5, 24690, Note_on_c, 1, 64, 0
5, 24715, Note_on_c, 1, 56, 0
5, 24715, Note_on_c, 1, 59, 0
5, 24720, Note_on_c, 1, 56, 39
5, 24720, Note_on_c, 1, 59, 50
5, 24720, Note_on_c, 1, 64, 44
5, 24775, Note_on_c, 1, 59, 0
5, 24775, Note_on_c, 1, 56, 0
5, 24780, Note_on_c, 1, 59, 39
5, 24780, Note_on_c, 1, 56, 55
5, 24810, Note_on_c, 1, 64, 0
5, 24835, Note_on_c, 1, 56, 0
5, 24835, Note_on_c, 1, 59, 0
5, 24840, Note_on_c, 1, 59, 55
5, 24840, Note_on_c, 1, 56, 55
5, 24840, Note_on_c, 1, 64, 55
5, 24890, Note_on_c, 1, 64, 0
5, 24895, Note_on_c, 1, 56, 0
5, 24895, Note_on_c, 1, 59, 0
5, 24900, Note_on_c, 1, 56, 50
5, 24900, Note_on_c, 1, 59, 50
5, 24900, Note_on_c, 1, 64, 44
5, 24927, Note_on_c, 1, 64, 0
5, 24955, Note_on_c, 1, 59, 0
5, 24955, Note_on_c, 1, 56, 0
5, 24960, Note_on_c, 1, 56, 50
5, 24960, Note_on_c, 1, 59, 50
5, 24960, Note_on_c, 1, 64, 50
5, 25015, Note_on_c, 1, 59, 0
5, 25015, Note_on_c, 1, 56, 0
5, 25020, Note_on_c, 1, 59, 44
5, 25020, Note_on_c, 1, 56, 48
5, 25060, Note_on_c, 1, 64, 0
5, 25075, Note_on_c, 1, 56, 0
5, 25075, Note_on_c, 1, 59, 0
5, 25080, Note_on_c, 1, 56, 50
5, 25080, Note_on_c, 1, 59, 50
5, 25080, Note_on_c, 1, 64, 50
5, 25135, Note_on_c, 1, 59, 0
5, 25135, Note_on_c, 1, 56, 0
5, 25140, Note_on_c, 1, 59, 34
5, 25140, Note_on_c, 1, 56, 44
5, 25171, Note_on_c, 1, 64, 0
5, 25195, Note_on_c, 1, 56, 0
5, 25195, Note_on_c, 1, 59, 0
5, 25200, Note_on_c, 1, 56, 39
5, 25200, Note_on_c, 1, 59, 50
5, 25200, Note_on_c, 1, 64, 44
5, 25255, Note_on_c, 1, 59, 0
5, 25255, Note_on_c, 1, 56, 0
5, 25260, Note_on_c, 1, 59, 39
5, 25260, Note_on_c, 1, 56, 55
5, 25300, Note_on_c, 1, 64, 0
5, 25315, Note_on_c, 1, 56, 0
5, 25315, Note_on_c, 1, 59, 0
5, 25320, Note_on_c, 1, 59, 55
5, 25320, Note_on_c, 1, 56, 55
5, 25320, Note_on_c, 1, 64, 55
5, 25370, Note_on_c, 1, 64, 0
5, 25375, Note_on_c, 1, 56, 0
5, 25375, Note_on_c, 1, 59, 0
5, 25380, Note_on_c, 1, 56, 50
5, 25380, Note_on_c, 1, 59, 50
5, 25380, Note_on_c, 1, 64, 44
5, 25407, Note_on_c, 1, 64, 0
5, 25435, Note_on_c, 1, 59, 0
5, 25435, Note_on_c, 1, 56, 0
5, 25440, Note_on_c, 1, 56, 50
5, 25440, Note_on_c, 1, 59, 50
5, 25440, Note_on_c, 1, 64, 50
5, 25495, Note_on_c, 1, 59, 0
5, 25495, Note_on_c, 1, 56, 0
5, 25500, Note_on_c, 1, 59, 44
5, 25500, Note_on_c, 1, 56, 48
5, 25535, Note_on_c, 1, 64, 0
5, 25555, Note_on_c, 1, 56, 0
5, 25555, Note_on_c, 1, 59, 0
5, 25560, Note_on_c, 1, 56, 50
5, 25560, Note_on_c, 1, 59, 50
5, 25560, Note_on_c, 1, 64, 50
5, 25615, Note_on_c, 1, 59, 0
5, 25615, Note_on_c, 1, 56, 0
5, 25620, Note_on_c, 1, 59, 34
5, 25620, Note_on_c, 1, 56, 44
5, 25650, Note_on_c, 1, 64, 0
5, 25675, Note_on_c, 1, 56, 0
5, 25675, Note_on_c, 1, 59, 0
5, 25680, Note_on_c, 1, 56, 39
5, 25680, Note_on_c, 1, 59, 50
5, 25680, Note_on_c, 1, 64, 44
5, 25735, Note_on_c, 1, 59, 0
5, 25735, Note_on_c, 1, 56, 0
5, 25740, Note_on_c, 1, 59, 39
5, 25740, Note_on_c, 1, 56, 55
5, 25770, Note_on_c, 1, 64, 0
5, 25795, Note_on_c, 1, 56, 0
5, 25795, Note_on_c, 1, 59, 0
5, 25800, Note_on_c, 1, 59, 55
5, 25800, Note_on_c, 1, 56, 55
5, 25800, Note_on_c, 1, 64, 55
5, 25850, Note_on_c, 1, 64, 0
5, 25855, Note_on_c, 1, 56, 0
5, 25855, Note_on_c, 1, 59, 0
5, 25860, Note_on_c, 1, 56, 50
5, 25860, Note_on_c, 1, 59, 50
5, 25860, Note_on_c, 1, 64, 44
5, 25887, Note_on_c, 1, 64, 0
5, 25915, Note_on_c, 1, 59, 0
5, 25915, Note_on_c, 1, 56, 0
5, 25920, Note_on_c, 1, 56, 50
5, 25920, Note_on_c, 1, 59, 50
5, 25920, Note_on_c, 1, 64, 50
5, 25975, Note_on_c, 1, 59, 0
5, 25975, Note_on_c, 1, 56, 0
5, 25980, Note_on_c, 1, 59, 44
5, 25980, Note_on_c, 1, 56, 48
5, 26020, Note_on_c, 1, 64, 0
5, 26035, Note_on_c, 1, 56, 0
5, 26035, Note_on_c, 1, 59, 0
5, 26040, Note_on_c, 1, 56, 50
5, 26040, Note_on_c, 1, 59, 50
5, 26040, Note_on_c, 1, 64, 50
5, 26095, Note_on_c, 1, 59, 0
5, 26095, Note_on_c, 1, 56, 0
5, 26100, Note_on_c, 1, 59, 34
5, 26100, Note_on_c, 1, 56, 44
5, 26131, Note_on_c, 1, 64, 0
5, 26155, Note_on_c, 1, 56, 0
5, 26155, Note_on_c, 1, 59, 0
5, 26160, Note_on_c, 1, 56, 39
5, 26160, Note_on_c, 1, 59, 50
5, 26160, Note_on_c, 1, 64, 44
5, 26215, Note_on_c, 1, 59, 0
5, 26215, Note_on_c, 1, 56, 0
5, 26220, Note_on_c, 1, 59, 39
5, 26220, Note_on_c, 1, 56, 55
5, 26260, Note_on_c, 1, 64, 0
5, 26275, Note_on_c, 1, 56, 0
5, 26275, Note_on_c, 1, 59, 0
5, 26280, Note_on_c, 1, 59, 55
5, 26280, Note_on_c, 1, 56, 55
5, 26280, Note_on_c, 1, 64, 55
5, 26330, Note_on_c, 1, 64, 0
5, 26335, Note_on_c, 1, 56, 0
5, 26335, Note_on_c, 1, 59, 0
5, 26340, Note_on_c, 1, 56, 50
5, 26340, Note_on_c, 1, 59, 50
5, 26340, Note_on_c, 1, 64, 44
5, 26367, Note_on_c, 1, 64, 0
5, 26395, Note_on_c, 1, 59, 0
5, 26395, Note_on_c, 1, 56, 0
5, 26400, Note_on_c, 1, 56, 55
5, 26400, Note_on_c, 1, 59, 50
5, 26400, Note_on_c, 1, 64, 50
5, 26450, Note_on_c, 1, 64, 0
5, 26450, Note_on_c, 1, 59, 0
5, 26450, Note_on_c, 1, 56, 0
5, 26940, Note_on_c, 1, 59, 56
5, 26940, Note_on_c, 1, 64, 51
5, 26940, Note_on_c, 1, 56, 56
5, 26990, Note_on_c, 1, 56, 0
5, 26990, Note_on_c, 1, 64, 0
5, 26990, Note_on_c, 1, 59, 0
5, 27000, Note_on_c, 1, 59, 56
5, 27000, Note_on_c, 1, 56, 51
5, 27000, Note_on_c, 1, 64, 39
5, 27050, Note_on_c, 1, 64, 0
5, 27050, Note_on_c, 1, 56, 0
5, 27050, Note_on_c, 1, 59, 0
5, 27060, Note_on_c, 1, 59, 51
5, 27060, Note_on_c, 1, 64, 45
5, 27060, Note_on_c, 1, 56, 45
5, 27110, Note_on_c, 1, 56, 0
5, 27110, Note_on_c, 1, 64, 0
5, 27110, Note_on_c, 1, 59, 0
5, 27120, Note_on_c, 1, 59, 51
5, 27120, Note_on_c, 1, 64, 51
5, 27120, Note_on_c, 1, 56, 56
5, 27170, Note_on_c, 1, 56, 0
5, 27170, Note_on_c, 1, 64, 0
5, 27170, Note_on_c, 1, 59, 0
5, 27180, Note_on_c, 1, 59, 56
5, 27180, Note_on_c, 1, 64, 45
5, 27180, Note_on_c, 1, 56, 45
5, 27230, Note_on_c, 1, 56, 0
5, 27230, Note_on_c, 1, 64, 0
5, 27230, Note_on_c, 1, 59, 0
5, 27240, Note_on_c, 1, 64, 45
5, 27240, Note_on_c, 1, 59, 51
5, 27240, Note_on_c, 1, 56, 51
5, 27290, Note_on_c, 1, 56, 0
5, 27290, Note_on_c, 1, 59, 0
5, 27290, Note_on_c, 1, 64, 0
5, 27300, Note_on_c, 1, 64, 39
5, 27300, Note_on_c, 1, 56, 37
5, 27300, Note_on_c, 1, 59, 51
5, 27350, Note_on_c, 1, 59, 0
5, 27350, Note_on_c, 1, 56, 0
5, 27350, Note_on_c, 1, 64, 0
5, 27360, Note_on_c, 1, 56, 56
5, 27360, Note_on_c, 1, 59, 51
5, 27360, Note_on_c, 1, 64, 51
5, 27410, Note_on_c, 1, 64, 0
5, 27410, Note_on_c, 1, 59, 0
5, 27410, Note_on_c, 1, 56, 0
5, 27840, Note_on_c, 1, 56, 51
5, 27840, Note_on_c, 1, 59, 51
5, 27840, Note_on_c, 1, 64, 51
5, 27895, Note_on_c, 1, 59, 0
5, 27895, Note_on_c, 1, 56, 0
5, 27900, Note_on_c, 1, 59, 45
5, 27900, Note_on_c, 1, 56, 49
5, 27935, Note_on_c, 1, 64, 0
5, 27955, Note_on_c, 1, 56, 0
5, 27955, Note_on_c, 1, 59, 0
5, 27960, Note_on_c, 1, 56, 51
5, 27960, Note_on_c, 1, 59, 51
5, 27960, Note_on_c, 1, 64, 51
5, 28015, Note_on_c, 1, 59, 0
5, 28015, Note_on_c, 1, 56, 0
5, 28020, Note_on_c, 1, 59, 34
5, 28020, Note_on_c, 1, 56, 45
5, 28050, Note_on_c, 1, 64, 0
5, 28075, Note_on_c, 1, 56, 0
5, 28075, Note_on_c, 1, 59, 0
5, 28080, Note_on_c, 1, 56, 39
5, 28080, Note_on_c, 1, 59, 51
5, 28080, Note_on_c, 1, 64, 45
5, 28135, Note_on_c, 1, 59, 0
5, 28135, Note_on_c, 1, 56, 0
5, 28140, Note_on_c, 1, 59, 39
5, 28140, Note_on_c, 1, 56, 56
5, 28170, Note_on_c, 1, 64, 0
5, 28195, Note_on_c, 1, 56, 0
5, 28195, Note_on_c, 1, 59, 0
5, 28200, Note_on_c, 1, 59, 56
5, 28200, Note_on_c, 1, 56, 56
5, 28200, Note_on_c, 1, 64, 56
5, 28250, Note_on_c, 1, 64, 0
5, 28255, Note_on_c, 1, 56, 0
5, 28255, Note_on_c, 1, 59, 0
5, 28260, Note_on_c, 1, 56, 51
5, 28260, Note_on_c, 1, 59, 51
5, 28260, Note_on_c, 1, 64, 45
5, 28287, Note_on_c, 1, 64, 0
5, 28315, Note_on_c, 1, 59, 0
5, 28315, Note_on_c, 1, 56, 0
5, 28320, Note_on_c, 1, 56, 51
5, 28320, Note_on_c, 1, 59, 51
5, 28320, Note_on_c, 1, 64, 51
5, 28375, Note_on_c, 1, 59, 0
5, 28375, Note_on_c, 1, 56, 0
5, 28380, Note_on_c, 1, 59, 45
5, 28380, Note_on_c, 1, 56, 49
5, 28420, Note_on_c, 1, 64, 0
5, 28435, Note_on_c, 1, 56, 0
5, 28435, Note_on_c, 1, 59, 0
5, 28440, Note_on_c, 1, 56, 51
5, 28440, Note_on_c, 1, 59, 51
5, 28440, Note_on_c, 1, 64, 51
5, 28495, Note_on_c, 1, 59, 0
5, 28495, Note_on_c, 1, 56, 0
5, 28500, Note_on_c, 1, 59, 34
5, 28500, Note_on_c, 1, 56, 45
5, 28531, Note_on_c, 1, 64, 0
5, 28555, Note_on_c, 1, 56, 0
5, 28555, Note_on_c, 1, 59, 0
5, 28560, Note_on_c, 1, 56, 39
5, 28560, Note_on_c, 1, 59, 51
5, 28560, Note_on_c, 1, 64, 45
5, 28615, Note_on_c, 1, 59, 0
5, 28615, Note_on_c, 1, 56, 0
5, 28620, Note_on_c, 1, 59, 39
5, 28620, Note_on_c, 1, 56, 56
5, 28660, Note_on_c, 1, 64, 0
5, 28675, Note_on_c, 1, 56, 0
5, 28675, Note_on_c, 1, 59, 0
5, 28680, Note_on_c, 1, 59, 56
5, 28680, Note_on_c, 1, 56, 56
5, 28680, Note_on_c, 1, 64, 56
5, 28730, Note_on_c, 1, 64, 0
5, 28735, Note_on_c, 1, 56, 0
5, 28735, Note_on_c, 1, 59, 0
5, 28740, Note_on_c, 1, 56, 51
5, 28740, Note_on_c, 1, 59, 51
5, 28740, Note_on_c, 1, 64, 45
5, 28767, Note_on_c, 1, 64, 0
5, 28795, Note_on_c, 1, 59, 0
5, 28795, Note_on_c, 1, 56, 0
5, 28800, Note_on_c, 1, 56, 51
5, 28800, Note_on_c, 1, 59, 51
5, 28800, Note_on_c, 1, 64, 51
5, 28855, Note_on_c, 1, 59, 0
5, 28855, Note_on_c, 1, 56, 0
5, 28860, Note_on_c, 1, 59, 45
5, 28860, Note_on_c, 1, 56, 49
5, 28900, Note_on_c, 1, 64, 0
5, 28915, Note_on_c, 1, 56, 0
5, 28915, Note_on_c, 1, 59, 0
5, 28920, Note_on_c, 1, 56, 51
5, 28920, Note_on_c, 1, 59, 51
5, 28920, Note_on_c, 1, 64, 51
5, 28975, Note_on_c, 1, 59, 0
5, 28975, Note_on_c, 1, 56, 0
5, 28980, Note_on_c, 1, 59, 34
5, 28980, Note_on_c, 1, 56, 45
5, 29015, Note_on_c, 1, 64, 0
5, 29035, Note_on_c, 1, 56, 0
5, 29035, Note_on_c, 1, 59, 0
5, 29040, Note_on_c, 1, 56, 39
5, 29040, Note_on_c, 1, 59, 51
5, 29040, Note_on_c, 1, 64, 45
5, 29095, Note_on_c, 1, 59, 0
5, 29095, Note_on_c, 1, 56, 0
5, 29100, Note_on_c, 1, 59, 39
5, 29100, Note_on_c, 1, 56, 56
5, 29140, Note_on_c, 1, 64, 0
5, 29155, Note_on_c, 1, 56, 0
5, 29155, Note_on_c, 1, 59, 0
5, 29160, Note_on_c, 1, 59, 56
5, 29160, Note_on_c, 1, 56, 56
5, 29160, Note_on_c, 1, 64, 56
5, 29210, Note_on_c, 1, 64, 0
5, 29215, Note_on_c, 1, 56, 0
5, 29215, Note_on_c, 1, 59, 0
5, 29220, Note_on_c, 1, 56, 51
5, 29220, Note_on_c, 1, 59, 51
5, 29220, Note_on_c, 1, 64, 45
5, 29247, Note_on_c, 1, 64, 0
5, 29275, Note_on_c, 1, 59, 0
5, 29275, Note_on_c, 1, 56, 0
5, 29280, Note_on_c, 1, 56, 51
5, 29280, Note_on_c, 1, 59, 51
5, 29280, Note_on_c, 1, 64, 51
5, 29335, Note_on_c, 1, 59, 0
5, 29335, Note_on_c, 1, 56, 0
5, 29340, Note_on_c, 1, 59, 45
5, 29340, Note_on_c, 1, 56, 49
5, 29380, Note_on_c, 1, 64, 0
5, 29395, Note_on_c, 1, 56, 0
5, 29395, Note_on_c, 1, 59, 0
5, 29400, Note_on_c, 1, 56, 51
5, 29400, Note_on_c, 1, 59, 51
5, 29400, Note_on_c, 1, 64, 51
5, 29455, Note_on_c, 1, 59, 0
5, 29455, Note_on_c, 1, 56, 0
5, 29460, Note_on_c, 1, 59, 34
5, 29460, Note_on_c, 1, 56, 45
5, 29500, Note_on_c, 1, 64, 0
5, 29515, Note_on_c, 1, 56, 0
5, 29515, Note_on_c, 1, 59, 0
5, 29520, Note_on_c, 1, 56, 39
5, 29520, Note_on_c, 1, 59, 51
5, 29520, Note_on_c, 1, 64, 45
5, 29575, Note_on_c, 1, 59, 0
5, 29575, Note_on_c, 1, 56, 0
5, 29580, Note_on_c, 1, 59, 39
5, 29580, Note_on_c, 1, 56, 56
5, 29612, Note_on_c, 1, 64, 0
5, 29635, Note_on_c, 1, 56, 0
5, 29635, Note_on_c, 1, 59, 0
5, 29640, Note_on_c, 1, 59, 56
5, 29640, Note_on_c, 1, 56, 56
5, 29640, Note_on_c, 1, 64, 56
5, 29690, Note_on_c, 1, 64, 0
5, 29695, Note_on_c, 1, 56, 0
5, 29695, Note_on_c, 1, 59, 0
5, 29700, Note_on_c, 1, 56, 51
5, 29700, Note_on_c, 1, 59, 51
5, 29700, Note_on_c, 1, 64, 45
5, 29727, Note_on_c, 1, 64, 0
5, 29755, Note_on_c, 1, 59, 0
5, 29755, Note_on_c, 1, 56, 0
5, 29760, Note_on_c, 1, 61, 51
5, 29760, Note_on_c, 1, 55, 51
5, 29760, Note_on_c, 1, 64, 51
5, 29815, Note_on_c, 1, 55, 0
5, 29815, Note_on_c, 1, 61, 0
5, 29820, Note_on_c, 1, 61, 45
5, 29820, Note_on_c, 1, 55, 49
5, 29860, Note_on_c, 1, 64, 0
5, 29875, Note_on_c, 1, 55, 0
5, 29875, Note_on_c, 1, 61, 0
5, 29880, Note_on_c, 1, 61, 51
5, 29880, Note_on_c, 1, 55, 51
5, 29880, Note_on_c, 1, 64, 51
5, 29935, Note_on_c, 1, 55, 0
5, 29935, Note_on_c, 1, 61, 0
5, 29940, Note_on_c, 1, 61, 34
5, 29940, Note_on_c, 1, 55, 45
5, 29980, Note_on_c, 1, 64, 0
5, 29995, Note_on_c, 1, 55, 0
5, 29995, Note_on_c, 1, 61, 0
5, 30000, Note_on_c, 1, 61, 51
5, 30000, Note_on_c, 1, 55, 39
5, 30000, Note_on_c, 1, 64, 45
5, 30055, Note_on_c, 1, 55, 0
5, 30055, Note_on_c, 1, 61, 0
5, 30060, Note_on_c, 1, 61, 39
5, 30060, Note_on_c, 1, 55, 56
5, 30092, Note_on_c, 1, 64, 0
5, 30115, Note_on_c, 1, 55, 0
5, 30115, Note_on_c, 1, 61, 0
5, 30120, Note_on_c, 1, 61, 56
5, 30120, Note_on_c, 1, 55, 56
5, 30120, Note_on_c, 1, 64, 56
5, 30170, Note_on_c, 1, 64, 0
5, 30175, Note_on_c, 1, 55, 0
5, 30175, Note_on_c, 1, 61, 0
5, 30180, Note_on_c, 1, 61, 51
5, 30180, Note_on_c, 1, 55, 51
5, 30180, Note_on_c, 1, 64, 45
5, 30207, Note_on_c, 1, 64, 0
5, 30235, Note_on_c, 1, 55, 0
5, 30235, Note_on_c, 1, 61, 0
5, 30240, Note_on_c, 1, 61, 51
5, 30240, Note_on_c, 1, 55, 51
5, 30240, Note_on_c, 1, 64, 51
5, 30295, Note_on_c, 1, 55, 0
5, 30295, Note_on_c, 1, 61, 0
5, 30300, Note_on_c, 1, 61, 45
5, 30300, Note_on_c, 1, 55, 49
5, 30340, Note_on_c, 1, 64, 0
5, 30355, Note_on_c, 1, 55, 0
5, 30355, Note_on_c, 1, 61, 0
5, 30360, Note_on_c, 1, 61, 51
5, 30360, Note_on_c, 1, 55, 51
5, 30360, Note_on_c, 1, 64, 51
5, 30415, Note_on_c, 1, 55, 0
5, 30415, Note_on_c, 1, 61, 0
5, 30420, Note_on_c, 1, 61, 34
5, 30420, Note_on_c, 1, 55, 45
5, 30460, Note_on_c, 1, 64, 0
5, 30475, Note_on_c, 1, 55, 0
5, 30475, Note_on_c, 1, 61, 0
5, 30480, Note_on_c, 1, 61, 51
5, 30480, Note_on_c, 1, 55, 39
5, 30480, Note_on_c, 1, 64, 45
5, 30535, Note_on_c, 1, 55, 0
5, 30535, Note_on_c, 1, 61, 0
5, 30540, Note_on_c, 1, 61, 39
5, 30540, Note_on_c, 1, 55, 56
5, 30572, Note_on_c, 1, 64, 0
5, 30595, Note_on_c, 1, 55, 0
5, 30595, Note_on_c, 1, 61, 0
5, 30600, Note_on_c, 1, 61, 56
5, 30600, Note_on_c, 1, 55, 56
5, 30600, Note_on_c, 1, 64, 56
5, 30650, Note_on_c, 1, 64, 0
5, 30655, Note_on_c, 1, 55, 0
5, 30655, Note_on_c, 1, 61, 0
5, 30660, Note_on_c, 1, 61, 51
5, 30660, Note_on_c, 1, 55, 51
5, 30660, Note_on_c, 1, 64, 45
5, 30687, Note_on_c, 1, 64, 0
5, 30715, Note_on_c, 1, 55, 0
5, 30715, Note_on_c, 1, 61, 0
5, 30720, Note_on_c, 1, 56, 51
5, 30720, Note_on_c, 1, 59, 51
5, 30720, Note_on_c, 1, 64, 51
5, 30775, Note_on_c, 1, 59, 0
5, 30775, Note_on_c, 1, 56, 0
5, 30780, Note_on_c, 1, 59, 45
5, 30780, Note_on_c, 1, 56, 49
5, 30815, Note_on_c, 1, 64, 0
5, 30835, Note_on_c, 1, 56, 0
5, 30835, Note_on_c, 1, 59, 0
5, 30840, Note_on_c, 1, 56, 51
5, 30840, Note_on_c, 1, 59, 51
5, 30840, Note_on_c, 1, 64, 51
5, 30895, Note_on_c, 1, 59, 0
5, 30895, Note_on_c, 1, 56, 0
5, 30900, Note_on_c, 1, 59, 34
5, 30900, Note_on_c, 1, 56, 45
5, 30930, Note_on_c, 1, 64, 0
5, 30955, Note_on_c, 1, 56, 0
5, 30955, Note_on_c, 1, 59, 0
5, 30960, Note_on_c, 1, 56, 39
5, 30960, Note_on_c, 1, 59, 51
5, 30960, Note_on_c, 1, 64, 45
5, 31015, Note_on_c, 1, 59, 0
5, 31015, Note_on_c, 1, 56, 0
5, 31020, Note_on_c, 1, 59, 39
5, 31020, Note_on_c, 1, 56, 56
5, 31050, Note_on_c, 1, 64, 0
5, 31075, Note_on_c, 1, 56, 0
5, 31075, Note_on_c, 1, 59, 0
5, 31080, Note_on_c, 1, 59, 56
5, 31080, Note_on_c, 1, 56, 56
5, 31080, Note_on_c, 1, 64, 56
5, 31130, Note_on_c, 1, 64, 0
5, 31135, Note_on_c, 1, 56, 0
5, 31135, Note_on_c, 1, 59, 0
5, 31140, Note_on_c, 1, 56, 51
5, 31140, Note_on_c, 1, 59, 51
5, 31140, Note_on_c, 1, 64, 45
5, 31167, Note_on_c, 1, 64, 0
5, 31195, Note_on_c, 1, 59, 0
5, 31195, Note_on_c, 1, 56, 0
5, 31200, Note_on_c, 1, 56, 51
5, 31200, Note_on_c, 1, 59, 51
5, 31200, Note_on_c, 1, 64, 51
5, 31255, Note_on_c, 1, 59, 0
5, 31255, Note_on_c, 1, 56, 0
5, 31260, Note_on_c, 1, 59, 45
5, 31260, Note_on_c, 1, 56, 49
5, 31300, Note_on_c, 1, 64, 0
5, 31315, Note_on_c, 1, 56, 0
5, 31315, Note_on_c, 1, 59, 0
5, 31320, Note_on_c, 1, 56, 51
5, 31320, Note_on_c, 1, 59, 51
5, 31320, Note_on_c, 1, 64, 51
5, 31375, Note_on_c, 1, 59, 0
5, 31375, Note_on_c, 1, 56, 0
5, 31380, Note_on_c, 1, 59, 34
5, 31380, Note_on_c, 1, 56, 45
5, 31411, Note_on_c, 1, 64, 0
5, 31435, Note_on_c, 1, 56, 0
5, 31435, Note_on_c, 1, 59, 0
5, 31440, Note_on_c, 1, 56, 39
5, 31440, Note_on_c, 1, 59, 51
5, 31440, Note_on_c, 1, 64, 45
5, 31495, Note_on_c, 1, 59, 0
5, 31495, Note_on_c, 1, 56, 0
5, 31500, Note_on_c, 1, 59, 39
5, 31500, Note_on_c, 1, 56, 56
5, 31540, Note_on_c, 1, 64, 0
5, 31555, Note_on_c, 1, 56, 0
5, 31555, Note_on_c, 1, 59, 0
5, 31560, Note_on_c, 1, 59, 56
5, 31560, Note_on_c, 1, 56, 56
5, 31560, Note_on_c, 1, 64, 56
5, 31610, Note_on_c, 1, 64, 0
5, 31615, Note_on_c, 1, 56, 0
5, 31615, Note_on_c, 1, 59, 0
5, 31620, Note_on_c, 1, 56, 51
5, 31620, Note_on_c, 1, 59, 51
5, 31620, Note_on_c, 1, 64, 45
5, 31647, Note_on_c, 1, 64, 0
5, 31675, Note_on_c, 1, 59, 0
5, 31675, Note_on_c, 1, 56, 0
5, 31680, Note_on_c, 1, 57, 51
5, 31680, Note_on_c, 1, 63, 51
5, 31680, Note_on_c, 1, 66, 51
5, 31735, Note_on_c, 1, 63, 0
5, 31735, Note_on_c, 1, 57, 0
5, 31740, Note_on_c, 1, 57, 49
5, 31740, Note_on_c, 1, 63, 45
5, 31780, Note_on_c, 1, 66, 0
5, 31795, Note_on_c, 1, 63, 0
5, 31795, Note_on_c, 1, 57, 0
5, 31800, Note_on_c, 1, 57, 51
5, 31800, Note_on_c, 1, 63, 51
5, 31800, Note_on_c, 1, 66, 51
5, 31855, Note_on_c, 1, 63, 0
5, 31855, Note_on_c, 1, 57, 0
5, 31860, Note_on_c, 1, 57, 45
5, 31860, Note_on_c, 1, 63, 34
5, 31900, Note_on_c, 1, 66, 0
5, 31915, Note_on_c, 1, 63, 0
5, 31915, Note_on_c, 1, 57, 0
5, 31920, Note_on_c, 1, 57, 39
5, 31920, Note_on_c, 1, 63, 51
5, 31920, Note_on_c, 1, 66, 45
5, 31975, Note_on_c, 1, 63, 0
5, 31975, Note_on_c, 1, 57, 0
5, 31980, Note_on_c, 1, 57, 56
5, 31980, Note_on_c, 1, 63, 39
5, 32012, Note_on_c, 1, 66, 0
5, 32035, Note_on_c, 1, 63, 0
5, 32035, Note_on_c, 1, 57, 0
5, 32040, Note_on_c, 1, 57, 56
5, 32040, Note_on_c, 1, 63, 56
5, 32040, Note_on_c, 1, 66, 56
5, 32090, Note_on_c, 1, 66, 0
5, 32095, Note_on_c, 1, 63, 0
5, 32095, Note_on_c, 1, 57, 0
5, 32100, Note_on_c, 1, 57, 51
5, 32100, Note_on_c, 1, 63, 51
5, 32100, Note_on_c, 1, 66, 45
5, 32127, Note_on_c, 1, 66, 0
5, 32155, Note_on_c, 1, 63, 0
5, 32155, Note_on_c, 1, 57, 0
5, 32160, Note_on_c, 1, 64, 51
5, 32160, Note_on_c, 1, 58, 51
5, 32160, Note_on_c, 1, 67, 51
5, 32215, Note_on_c, 1, 58, 0
5, 32215, Note_on_c, 1, 64, 0
5, 32220, Note_on_c, 1, 64, 45
5, 32220, Note_on_c, 1, 58, 49
5, 32260, Note_on_c, 1, 67, 0
5, 32275, Note_on_c, 1, 58, 0
5, 32275, Note_on_c, 1, 64, 0
5, 32280, Note_on_c, 1, 64, 51
5, 32280, Note_on_c, 1, 58, 51
5, 32280, Note_on_c, 1, 67, 51
5, 32335, Note_on_c, 1, 58, 0
5, 32335, Note_on_c, 1, 64, 0
5, 32340, Note_on_c, 1, 64, 34
5, 32340, Note_on_c, 1, 58, 45
5, 32380, Note_on_c, 1, 67, 0
5, 32395, Note_on_c, 1, 58, 0
5, 32395, Note_on_c, 1, 64, 0
5, 32400, Note_on_c, 1, 57, 39
5, 32400, Note_on_c, 1, 63, 51
5, 32400, Note_on_c, 1, 66, 45
5, 32455, Note_on_c, 1, 63, 0
5, 32455, Note_on_c, 1, 57, 0
5, 32460, Note_on_c, 1, 57, 56
5, 32460, Note_on_c, 1, 63, 39
5, 32492, Note_on_c, 1, 66, 0
5, 32515, Note_on_c, 1, 63, 0
5, 32515, Note_on_c, 1, 57, 0
5, 32520, Note_on_c, 1, 57, 56
5, 32520, Note_on_c, 1, 63, 56
5, 32520, Note_on_c, 1, 66, 56
5, 32570, Note_on_c, 1, 66, 0
5, 32575, Note_on_c, 1, 63, 0
5, 32575, Note_on_c, 1, 57, 0
5, 32580, Note_on_c, 1, 57, 51
5, 32580, Note_on_c, 1, 63, 51
5, 32580, Note_on_c, 1, 66, 45
5, 32607, Note_on_c, 1, 66, 0
5, 32635, Note_on_c, 1, 63, 0
5, 32635, Note_on_c, 1, 57, 0
5, 32640, Note_on_c, 1, 56, 51
5, 32640, Note_on_c, 1, 59, 51
5, 32640, Note_on_c, 1, 64, 51
5, 32695, Note_on_c, 1, 59, 0
5, 32695, Note_on_c, 1, 56, 0
5, 32700, Note_on_c, 1, 59, 45
5, 32700, Note_on_c, 1, 56, 49
5, 32735, Note_on_c, 1, 64, 0
5, 32755, Note_on_c, 1, 56, 0
5, 32755, Note_on_c, 1, 59, 0
5, 32760, Note_on_c, 1, 56, 51
5, 32760, Note_on_c, 1, 59, 51
5, 32760, Note_on_c, 1, 64, 51
5, 32815, Note_on_c, 1, 59, 0
5, 32815, Note_on_c, 1, 56, 0
5, 32820, Note_on_c, 1, 59, 34
5, 32820, Note_on_c, 1, 56, 45
5, 32850, Note_on_c, 1, 64, 0
5, 32875, Note_on_c, 1, 56, 0
5, 32875, Note_on_c, 1, 59, 0
5, 32880, Note_on_c, 1, 56, 39
5, 32880, Note_on_c, 1, 59, 51
5, 32880, Note_on_c, 1, 64, 45
5, 32935, Note_on_c, 1, 59, 0
5, 32935, Note_on_c, 1, 56, 0
5, 32940, Note_on_c, 1, 59, 39
5, 32940, Note_on_c, 1, 56, 56
5, 32970, Note_on_c, 1, 64, 0
5, 32995, Note_on_c, 1, 56, 0
5, 32995, Note_on_c, 1, 59, 0
5, 33000, Note_on_c, 1, 59, 56
5, 33000, Note_on_c, 1, 56, 56
5, 33000, Note_on_c, 1, 64, 56
5, 33050, Note_on_c, 1, 64, 0
5, 33055, Note_on_c, 1, 56, 0
5, 33055, Note_on_c, 1, 59, 0
5, 33060, Note_on_c, 1, 56, 51
5, 33060, Note_on_c, 1, 59, 51
5, 33060, Note_on_c, 1, 64, 45
5, 33087, Note_on_c, 1, 64, 0
5, 33115, Note_on_c, 1, 59, 0
5, 33115, Note_on_c, 1, 56, 0
5, 33120, Note_on_c, 1, 56, 51
5, 33120, Note_on_c, 1, 59, 51
5, 33120, Note_on_c, 1, 64, 51
5, 33175, Note_on_c, 1, 59, 0
5, 33175, Note_on_c, 1, 56, 0
5, 33180, Note_on_c, 1, 59, 45
5, 33180, Note_on_c, 1, 56, 49
5, 33220, Note_on_c, 1, 64, 0
5, 33235, Note_on_c, 1, 56, 0
5, 33235, Note_on_c, 1, 59, 0
5, 33240, Note_on_c, 1, 56, 51
5, 33240, Note_on_c, 1, 59, 51
5, 33240, Note_on_c, 1, 64, 51
5, 33295, Note_on_c, 1, 59, 0
5, 33295, Note_on_c, 1, 56, 0
5, 33300, Note_on_c, 1, 59, 34
5, 33300, Note_on_c, 1, 56, 45
5, 33331, Note_on_c, 1, 64, 0
5, 33355, Note_on_c, 1, 56, 0
5, 33355, Note_on_c, 1, 59, 0
5, 33360, Note_on_c, 1, 56, 39
5, 33360, Note_on_c, 1, 59, 51
5, 33360, Note_on_c, 1, 64, 45
5, 33415, Note_on_c, 1, 59, 0
5, 33415, Note_on_c, 1, 56, 0
5, 33420, Note_on_c, 1, 59, 39
5, 33420, Note_on_c, 1, 56, 56
5, 33460, Note_on_c, 1, 64, 0
5, 33475, Note_on_c, 1, 56, 0
5, 33475, Note_on_c, 1, 59, 0
5, 33480, Note_on_c, 1, 59, 56
5, 33480, Note_on_c, 1, 56, 56
5, 33480, Note_on_c, 1, 64, 56
5, 33530, Note_on_c, 1, 64, 0
5, 33535, Note_on_c, 1, 56, 0
5, 33535, Note_on_c, 1, 59, 0
5, 33540, Note_on_c, 1, 56, 51
5, 33540, Note_on_c, 1, 59, 51
5, 33540, Note_on_c, 1, 64, 45
5, 33567, Note_on_c, 1, 64, 0
5, 33595, Note_on_c, 1, 59, 0
5, 33595, Note_on_c, 1, 56, 0
5, 33600, Note_on_c, 1, 56, 51
5, 33600, Note_on_c, 1, 59, 51
5, 33600, Note_on_c, 1, 64, 51
5, 33655, Note_on_c, 1, 59, 0
5, 33655, Note_on_c, 1, 56, 0
5, 33660, Note_on_c, 1, 59, 45
5, 33660, Note_on_c, 1, 56, 49
5, 33695, Note_on_c, 1, 64, 0
5, 33715, Note_on_c, 1, 56, 0
5, 33715, Note_on_c, 1, 59, 0
5, 33720, Note_on_c, 1, 56, 51
5, 33720, Note_on_c, 1, 59, 51
5, 33720, Note_on_c, 1, 64, 51
5, 33775, Note_on_c, 1, 59, 0
5, 33775, Note_on_c, 1, 56, 0
5, 33780, Note_on_c, 1, 59, 34
5, 33780, Note_on_c, 1, 56, 45
5, 33810, Note_on_c, 1, 64, 0
5, 33835, Note_on_c, 1, 56, 0
5, 33835, Note_on_c, 1, 59, 0
5, 33840, Note_on_c, 1, 56, 39
5, 33840, Note_on_c, 1, 59, 51
5, 33840, Note_on_c, 1, 64, 45
5, 33895, Note_on_c, 1, 59, 0
5, 33895, Note_on_c, 1, 56, 0
5, 33900, Note_on_c, 1, 59, 39
5, 33900, Note_on_c, 1, 56, 56
5, 33930, Note_on_c, 1, 64, 0
5, 33955, Note_on_c, 1, 56, 0
5, 33955, Note_on_c, 1, 59, 0
5, 33960, Note_on_c, 1, 59, 56
5, 33960, Note_on_c, 1, 56, 56
5, 33960, Note_on_c, 1, 64, 56
5, 34010, Note_on_c, 1, 64, 0
5, 34015, Note_on_c, 1, 56, 0
5, 34015, Note_on_c, 1, 59, 0
5, 34020, Note_on_c, 1, 56, 51
5, 34020, Note_on_c, 1, 59, 51
5, 34020, Note_on_c, 1, 64, 45
5, 34047, Note_on_c, 1, 64, 0
5, 34075, Note_on_c, 1, 59, 0
5, 34075, Note_on_c, 1, 56, 0
5, 34080, Note_on_c, 1, 56, 51
5, 34080, Note_on_c, 1, 59, 51
5, 34080, Note_on_c, 1, 64, 51
5, 34135, Note_on_c, 1, 59, 0
5, 34135, Note_on_c, 1, 56, 0
5, 34140, Note_on_c, 1, 59, 45
5, 34140, Note_on_c, 1, 56, 49
5, 34180, Note_on_c, 1, 64, 0
5, 34195, Note_on_c, 1, 56, 0
5, 34195, Note_on_c, 1, 59, 0
5, 34200, Note_on_c, 1, 56, 51
5, 34200, Note_on_c, 1, 59, 51
5, 34200, Note_on_c, 1, 64, 51
5, 34255, Note_on_c, 1, 59, 0
5, 34255, Note_on_c, 1, 56, 0
5, 34260, Note_on_c, 1, 59, 34
5, 34260, Note_on_c, 1, 56, 45
5, 34291, Note_on_c, 1, 64, 0
5, 34315, Note_on_c, 1, 56, 0
5, 34315, Note_on_c, 1, 59, 0
5, 34320, Note_on_c, 1, 56, 39
5, 34320, Note_on_c, 1, 59, 51
5, 34320, Note_on_c, 1, 64, 45
5, 34375, Note_on_c, 1, 59, 0
5, 34375, Note_on_c, 1, 56, 0
5, 34380, Note_on_c, 1, 59, 39
5, 34380, Note_on_c, 1, 56, 56
5, 34420, Note_on_c, 1, 64, 0
5, 34435, Note_on_c, 1, 56, 0
5, 34435, Note_on_c, 1, 59, 0
5, 34440, Note_on_c, 1, 59, 56
5, 34440, Note_on_c, 1, 56, 56
5, 34440, Note_on_c, 1, 64, 56
5, 34490, Note_on_c, 1, 64, 0
5, 34495, Note_on_c, 1, 56, 0
5, 34495, Note_on_c, 1, 59, 0
5, 34500, Note_on_c, 1, 56, 51
5, 34500, Note_on_c, 1, 59, 51
5, 34500, Note_on_c, 1, 64, 45
5, 34527, Note_on_c, 1, 64, 0
5, 34555, Note_on_c, 1, 59, 0
5, 34555, Note_on_c, 1, 56, 0
5, 34560, Note_on_c, 1, 56, 51
5, 34560, Note_on_c, 1, 59, 51
5, 34560, Note_on_c, 1, 64, 51
5, 34615, Note_on_c, 1, 59, 0
5, 34615, Note_on_c, 1, 56, 0
5, 34620, Note_on_c, 1, 59, 45
5, 34620, Note_on_c, 1, 56, 49
5, 34660, Note_on_c, 1, 64, 0
5, 34675, Note_on_c, 1, 56, 0
5, 34675, Note_on_c, 1, 59, 0
5, 34680, Note_on_c, 1, 56, 51
5, 34680, Note_on_c, 1, 59, 51
5, 34680, Note_on_c, 1, 64, 51
5, 34735, Note_on_c, 1, 59, 0
5, 34735, Note_on_c, 1, 56, 0
5, 34740, Note_on_c, 1, 59, 34
5, 34740, Note_on_c, 1, 56, 45
5, 34775, Note_on_c, 1, 64, 0
5, 34795, Note_on_c, 1, 56, 0
5, 34795, Note_on_c, 1, 59, 0
5, 34800, Note_on_c, 1, 56, 39
5, 34800, Note_on_c, 1, 59, 51
5, 34800, Note_on_c, 1, 64, 45
5, 34855, Note_on_c, 1, 59, 0
5, 34855, Note_on_c, 1, 56, 0
5, 34860, Note_on_c, 1, 59, 39
5, 34860, Note_on_c, 1, 56, 56
5, 34900, Note_on_c, 1, 64, 0
5, 34915, Note_on_c, 1, 56, 0
5, 34915, Note_on_c, 1, 59, 0
5, 34920, Note_on_c, 1, 59, 56
5, 34920, Note_on_c, 1, 56, 56
5, 34920, Note_on_c, 1, 64, 56
5, 34970, Note_on_c, 1, 64, 0
5, 34975, Note_on_c, 1, 56, 0
5, 34975, Note_on_c, 1, 59, 0
5, 34980, Note_on_c, 1, 56, 51
5, 34980, Note_on_c, 1, 59, 51
5, 34980, Note_on_c, 1, 64, 45
5, 35007, Note_on_c, 1, 64, 0
5, 35035, Note_on_c, 1, 59, 0
5, 35035, Note_on_c, 1, 56, 0
5, 35040, Note_on_c, 1, 56, 51
5, 35040, Note_on_c, 1, 59, 51
5, 35040, Note_on_c, 1, 64, 51
5, 35095, Note_on_c, 1, 59, 0
5, 35095, Note_on_c, 1, 56, 0
5, 35100, Note_on_c, 1, 59, 45
5, 35100, Note_on_c, 1, 56, 49
5, 35140, Note_on_c, 1, 64, 0
5, 35155, Note_on_c, 1, 56, 0
5, 35155, Note_on_c, 1, 59, 0
5, 35160, Note_on_c, 1, 56, 51
5, 35160, Note_on_c, 1, 59, 51
5, 35160, Note_on_c, 1, 64, 51
5, 35215, Note_on_c, 1, 59, 0
5, 35215, Note_on_c, 1, 56, 0
5, 35220, Note_on_c, 1, 59, 34
5, 35220, Note_on_c, 1, 56, 45
5, 35260, Note_on_c, 1, 64, 0
5, 35275, Note_on_c, 1, 56, 0
5, 35275, Note_on_c, 1, 59, 0
5, 35280, Note_on_c, 1, 56, 39
5, 35280, Note_on_c, 1, 59, 51
5, 35280, Note_on_c, 1, 64, 45
5, 35335, Note_on_c, 1, 59, 0
5, 35335, Note_on_c, 1, 56, 0
5, 35340, Note_on_c, 1, 59, 39
5, 35340, Note_on_c, 1, 56, 56
5, 35372, Note_on_c, 1, 64, 0
5, 35395, Note_on_c, 1, 56, 0
5, 35395, Note_on_c, 1, 59, 0
5, 35400, Note_on_c, 1, 59, 56
5, 35400, Note_on_c, 1, 56, 56
5, 35400, Note_on_c, 1, 64, 56
5, 35450, Note_on_c, 1, 64, 0
5, 35455, Note_on_c, 1, 56, 0
5, 35455, Note_on_c, 1, 59, 0
5, 35460, Note_on_c, 1, 56, 51
5, 35460, Note_on_c, 1, 59, 51
5, 35460, Note_on_c, 1, 64, 45
5, 35487, Note_on_c, 1, 64, 0
5, 35515, Note_on_c, 1, 59, 0
5, 35515, Note_on_c, 1, 56, 0
5, 35520, Note_on_c, 1, 61, 51
5, 35520, Note_on_c, 1, 55, 51
5, 35520, Note_on_c, 1, 64, 51
5, 35575, Note_on_c, 1, 55, 0
5, 35575, Note_on_c, 1, 61, 0
5, 35580, Note_on_c, 1, 61, 45
5, 35580, Note_on_c, 1, 55, 49
5, 35620, Note_on_c, 1, 64, 0
5, 35635, Note_on_c, 1, 55, 0
5, 35635, Note_on_c, 1, 61, 0
5, 35640, Note_on_c, 1, 61, 51
5, 35640, Note_on_c, 1, 55, 51
5, 35640, Note_on_c, 1, 64, 51
5, 35695, Note_on_c, 1, 55, 0
5, 35695, Note_on_c, 1, 61, 0
5, 35700, Note_on_c, 1, 61, 34
5, 35700, Note_on_c, 1, 55, 45
5, 35740, Note_on_c, 1, 64, 0
5, 35755, Note_on_c, 1, 55, 0
5, 35755, Note_on_c, 1, 61, 0
5, 35760, Note_on_c, 1, 61, 51
5, 35760, Note_on_c, 1, 55, 39
5, 35760, Note_on_c, 1, 64, 45
5, 35815, Note_on_c, 1, 55, 0
5, 35815, Note_on_c, 1, 61, 0
5, 35820, Note_on_c, 1, 61, 39
5, 35820, Note_on_c, 1, 55, 56
5, 35852, Note_on_c, 1, 64, 0
5, 35875, Note_on_c, 1, 55, 0
5, 35875, Note_on_c, 1, 61, 0
5, 35880, Note_on_c, 1, 61, 56
5, 35880, Note_on_c, 1, 55, 56
5, 35880, Note_on_c, 1, 64, 56
5, 35930, Note_on_c, 1, 64, 0
5, 35935, Note_on_c, 1, 55, 0
5, 35935, Note_on_c, 1, 61, 0
5, 35940, Note_on_c, 1, 61, 51
5, 35940, Note_on_c, 1, 55, 51
5, 35940, Note_on_c, 1, 64, 45
5, 35967, Note_on_c, 1, 64, 0
5, 35995, Note_on_c, 1, 55, 0
5, 35995, Note_on_c, 1, 61, 0
5, 36000, Note_on_c, 1, 61, 51
5, 36000, Note_on_c, 1, 55, 51
5, 36000, Note_on_c, 1, 64, 51
5, 36055, Note_on_c, 1, 55, 0
5, 36055, Note_on_c, 1, 61, 0
5, 36060, Note_on_c, 1, 61, 45
5, 36060, Note_on_c, 1, 55, 49
5, 36100, Note_on_c, 1, 64, 0
5, 36115, Note_on_c, 1, 55, 0
5, 36115, Note_on_c, 1, 61, 0
5, 36120, Note_on_c, 1, 61, 51
5, 36120, Note_on_c, 1, 55, 51
5, 36120, Note_on_c, 1, 64, 51
5, 36175, Note_on_c, 1, 55, 0
5, 36175, Note_on_c, 1, 61, 0
5, 36180, Note_on_c, 1, 61, 34
5, 36180, Note_on_c, 1, 55, 45
5, 36220, Note_on_c, 1, 64, 0
5, 36235, Note_on_c, 1, 55, 0
5, 36235, Note_on_c, 1, 61, 0
5, 36240, Note_on_c, 1, 61, 51
5, 36240, Note_on_c, 1, 55, 39
5, 36240, Note_on_c, 1, 64, 45
5, 36295, Note_on_c, 1, 55, 0
5, 36295, Note_on_c, 1, 61, 0
5, 36300, Note_on_c, 1, 61, 39
5, 36300, Note_on_c, 1, 55, 56
5, 36332, Note_on_c, 1, 64, 0
5, 36355, Note_on_c, 1, 55, 0
5, 36355, Note_on_c, 1, 61, 0
5, 36360, Note_on_c, 1, 61, 56
5, 36360, Note_on_c, 1, 55, 56
5, 36360, Note_on_c, 1, 64, 56
5, 36410, Note_on_c, 1, 64, 0
5, 36415, Note_on_c, 1, 55, 0
5, 36415, Note_on_c, 1, 61, 0
5, 36420, Note_on_c, 1, 61, 51
5, 36420, Note_on_c, 1, 55, 51
5, 36420, Note_on_c, 1, 64, 45
5, 36447, Note_on_c, 1, 64, 0
5, 36475, Note_on_c, 1, 55, 0
5, 36475, Note_on_c, 1, 61, 0
5, 36480, Note_on_c, 1, 56, 51
5, 36480, Note_on_c, 1, 59, 51
5, 36480, Note_on_c, 1, 64, 51
5, 36535, Note_on_c, 1, 59, 0
5, 36535, Note_on_c, 1, 56, 0
5, 36540, Note_on_c, 1, 59, 45
5, 36540, Note_on_c, 1, 56, 49
5, 36575, Note_on_c, 1, 64, 0
5, 36595, Note_on_c, 1, 56, 0
5, 36595, Note_on_c, 1, 59, 0
5, 36600, Note_on_c, 1, 56, 51
5, 36600, Note_on_c, 1, 59, 51
5, 36600, Note_on_c, 1, 64, 51
5, 36655, Note_on_c, 1, 59, 0
5, 36655, Note_on_c, 1, 56, 0
5, 36660, Note_on_c, 1, 59, 34
5, 36660, Note_on_c, 1, 56, 45
5, 36690, Note_on_c, 1, 64, 0
5, 36715, Note_on_c, 1, 56, 0
5, 36715, Note_on_c, 1, 59, 0
5, 36720, Note_on_c, 1, 56, 39
5, 36720, Note_on_c, 1, 59, 51
5, 36720, Note_on_c, 1, 64, 45
5, 36775, Note_on_c, 1, 59, 0
5, 36775, Note_on_c, 1, 56, 0
5, 36780, Note_on_c, 1, 59, 39
5, 36780, Note_on_c, 1, 56, 56
5, 36810, Note_on_c, 1, 64, 0
5, 36835, Note_on_c, 1, 56, 0
5, 36835, Note_on_c, 1, 59, 0
5, 36840, Note_on_c, 1, 59, 56
5, 36840, Note_on_c, 1, 56, 56
5, 36840, Note_on_c, 1, 64, 56
5, 36890, Note_on_c, 1, 64, 0
5, 36895, Note_on_c, 1, 56, 0
5, 36895, Note_on_c, 1, 59, 0
5, 36900, Note_on_c, 1, 56, 51
5, 36900, Note_on_c, 1, 59, 51
5, 36900, Note_on_c, 1, 64, 45
5, 36927, Note_on_c, 1, 64, 0
5, 36955, Note_on_c, 1, 59, 0
5, 36955, Note_on_c, 1, 56, 0
5, 36960, Note_on_c, 1, 56, 51
5, 36960, Note_on_c, 1, 59, 51
5, 36960, Note_on_c, 1, 64, 51
5, 37015, Note_on_c, 1, 59, 0
5, 37015, Note_on_c, 1, 56, 0
5, 37020, Note_on_c, 1, 59, 45
5, 37020, Note_on_c, 1, 56, 49
5, 37060, Note_on_c, 1, 64, 0
5, 37075, Note_on_c, 1, 56, 0
5, 37075, Note_on_c, 1, 59, 0
5, 37080, Note_on_c, 1, 56, 51
5, 37080, Note_on_c, 1, 59, 51
5, 37080, Note_on_c, 1, 64, 51
5, 37135, Note_on_c, 1, 59, 0
5, 37135, Note_on_c, 1, 56, 0
5, 37140, Note_on_c, 1, 59, 34
5, 37140, Note_on_c, 1, 56, 45
5, 37171, Note_on_c, 1, 64, 0
5, 37195, Note_on_c, 1, 56, 0
5, 37195, Note_on_c, 1, 59, 0
5, 37200, Note_on_c, 1, 56, 39
5, 37200, Note_on_c, 1, 59, 51
5, 37200, Note_on_c, 1, 64, 45
5, 37255, Note_on_c, 1, 59, 0
5, 37255, Note_on_c, 1, 56, 0
5, 37260, Note_on_c, 1, 59, 39
5, 37260, Note_on_c, 1, 56, 56
5, 37300, Note_on_c, 1, 64, 0
5, 37315, Note_on_c, 1, 56, 0
5, 37315, Note_on_c, 1, 59, 0
5, 37320, Note_on_c, 1, 59, 56
5, 37320, Note_on_c, 1, 56, 56
5, 37320, Note_on_c, 1, 64, 56
5, 37370, Note_on_c, 1, 64, 0
5, 37375, Note_on_c, 1, 56, 0
5, 37375, Note_on_c, 1, 59, 0
5, 37380, Note_on_c, 1, 56, 51
5, 37380, Note_on_c, 1, 59, 51
5, 37380, Note_on_c, 1, 64, 45
5, 37407, Note_on_c, 1, 64, 0
5, 37435, Note_on_c, 1, 59, 0
5, 37435, Note_on_c, 1, 56, 0
5, 37440, Note_on_c, 1, 57, 51
5, 37440, Note_on_c, 1, 63, 51
5, 37440, Note_on_c, 1, 66, 51
5, 37495, Note_on_c, 1, 63, 0
5, 37495, Note_on_c, 1, 57, 0
5, 37500, Note_on_c, 1, 57, 49
5, 37500, Note_on_c, 1, 63, 45
5, 37540, Note_on_c, 1, 66, 0
5, 37555, Note_on_c, 1, 63, 0
5, 37555, Note_on_c, 1, 57, 0
5, 37560, Note_on_c, 1, 57, 51
5, 37560, Note_on_c, 1, 63, 51
5, 37560, Note_on_c, 1, 66, 51
5, 37615, Note_on_c, 1, 63, 0
5, 37615, Note_on_c, 1, 57, 0
5, 37620, Note_on_c, 1, 57, 45
5, 37620, Note_on_c, 1, 63, 34
5, 37660, Note_on_c, 1, 66, 0
5, 37675, Note_on_c, 1, 63, 0
5, 37675, Note_on_c, 1, 57, 0
5, 37680, Note_on_c, 1, 57, 39
5, 37680, Note_on_c, 1, 63, 51
5, 37680, Note_on_c, 1, 66, 45
5, 37735, Note_on_c, 1, 63, 0
5, 37735, Note_on_c, 1, 57, 0
5, 37740, Note_on_c, 1, 57, 56
5, 37740, Note_on_c, 1, 63, 39
5, 37772, Note_on_c, 1, 66, 0
5, 37795, Note_on_c, 1, 63, 0
5, 37795, Note_on_c, 1, 57, 0
5, 37800, Note_on_c, 1, 57, 56
5, 37800, Note_on_c, 1, 63, 56
5, 37800, Note_on_c, 1, 66, 56
5, 37850, Note_on_c, 1, 66, 0
5, 37855, Note_on_c, 1, 63, 0
5, 37855, Note_on_c, 1, 57, 0
5, 37860, Note_on_c, 1, 57, 51
5, 37860, Note_on_c, 1, 63, 51
5, 37860, Note_on_c, 1, 66, 45
5, 37887, Note_on_c, 1, 66, 0
5, 37915, Note_on_c, 1, 63, 0
5, 37915, Note_on_c, 1, 57, 0
5, 37920, Note_on_c, 1, 64, 51
5, 37920, Note_on_c, 1, 58, 51
5, 37920, Note_on_c, 1, 67, 51
5, 37975, Note_on_c, 1, 58, 0
5, 37975, Note_on_c, 1, 64, 0
5, 37980, Note_on_c, 1, 64, 45
5, 37980, Note_on_c, 1, 58, 49
5, 38020, Note_on_c, 1, 67, 0
5, 38035, Note_on_c, 1, 58, 0
5, 38035, Note_on_c, 1, 64, 0
5, 38040, Note_on_c, 1, 64, 51
5, 38040, Note_on_c, 1, 58, 51
5, 38040, Note_on_c, 1, 67, 51
5, 38095, Note_on_c, 1, 58, 0
5, 38095, Note_on_c, 1, 64, 0
5, 38100, Note_on_c, 1, 64, 34
5, 38100, Note_on_c, 1, 58, 45
5, 38140, Note_on_c, 1, 67, 0
5, 38155, Note_on_c, 1, 58, 0
5, 38155, Note_on_c, 1, 64, 0
5, 38160, Note_on_c, 1, 57, 39
5, 38160, Note_on_c, 1, 63, 51
5, 38160, Note_on_c, 1, 66, 45
5, 38215, Note_on_c, 1, 63, 0
5, 38215, Note_on_c, 1, 57, 0
5, 38220, Note_on_c, 1, 57, 56
5, 38220, Note_on_c, 1, 63, 39
5, 38252, Note_on_c, 1, 66, 0
5, 38275, Note_on_c, 1, 63, 0
5, 38275, Note_on_c, 1, 57, 0
5, 38280, Note_on_c, 1, 57, 56
5, 38280, Note_on_c, 1, 63, 56
5, 38280, Note_on_c, 1, 66, 56
5, 38330, Note_on_c, 1, 66, 0
5, 38335, Note_on_c, 1, 63, 0
5, 38335, Note_on_c, 1, 57, 0
5, 38340, Note_on_c, 1, 57, 51
5, 38340, Note_on_c, 1, 63, 51
5, 38340, Note_on_c, 1, 66, 45
5, 38367, Note_on_c, 1, 66, 0
5, 38395, Note_on_c, 1, 63, 0
5, 38395, Note_on_c, 1, 57, 0
5, 38400, Note_on_c, 1, 56, 51
5, 38400, Note_on_c, 1, 59, 51
5, 38400, Note_on_c, 1, 64, 51
5, 38455, Note_on_c, 1, 59, 0
5, 38455, Note_on_c, 1, 56, 0
5, 38460, Note_on_c, 1, 59, 45
5, 38460, Note_on_c, 1, 56, 49
5, 38495, Note_on_c, 1, 64, 0
5, 38515, Note_on_c, 1, 56, 0
5, 38515, Note_on_c, 1, 59, 0
5, 38520, Note_on_c, 1, 56, 51
5, 38520, Note_on_c, 1, 59, 51
5, 38520, Note_on_c, 1, 64, 51
5, 38575, Note_on_c, 1, 59, 0
5, 38575, Note_on_c, 1, 56, 0
5, 38580, Note_on_c, 1, 59, 34
5, 38580, Note_on_c, 1, 56, 45
5, 38610, Note_on_c, 1, 64, 0
5, 38635, Note_on_c, 1, 56, 0
5, 38635, Note_on_c, 1, 59, 0
5, 38640, Note_on_c, 1, 56, 39
5, 38640, Note_on_c, 1, 59, 51
5, 38640, Note_on_c, 1, 64, 45
5, 38695, Note_on_c, 1, 59, 0
5, 38695, Note_on_c, 1, 56, 0
5, 38700, Note_on_c, 1, 59, 39
5, 38700, Note_on_c, 1, 56, 56
5, 38730, Note_on_c, 1, 64, 0
5, 38755, Note_on_c, 1, 56, 0
5, 38755, Note_on_c, 1, 59, 0
5, 38760, Note_on_c, 1, 59, 56
5, 38760, Note_on_c, 1, 56, 56
5, 38760, Note_on_c, 1, 64, 56
5, 38810, Note_on_c, 1, 64, 0
5, 38815, Note_on_c, 1, 56, 0
5, 38815, Note_on_c, 1, 59, 0
5, 38820, Note_on_c, 1, 56, 51
5, 38820, Note_on_c, 1, 59, 51
5, 38820, Note_on_c, 1, 64, 45
5, 38847, Note_on_c, 1, 64, 0
5, 38875, Note_on_c, 1, 59, 0
5, 38875, Note_on_c, 1, 56, 0
5, 38880, Note_on_c, 1, 56, 51
5, 38880, Note_on_c, 1, 59, 51
5, 38880, Note_on_c, 1, 64, 51
5, 38935, Note_on_c, 1, 59, 0
5, 38935, Note_on_c, 1, 56, 0
5, 38940, Note_on_c, 1, 59, 45
5, 38940, Note_on_c, 1, 56, 49
5, 38980, Note_on_c, 1, 64, 0
5, 38995, Note_on_c, 1, 56, 0
5, 38995, Note_on_c, 1, 59, 0
5, 39000, Note_on_c, 1, 56, 51
5, 39000, Note_on_c, 1, 59, 51
5, 39000, Note_on_c, 1, 64, 51
5, 39055, Note_on_c, 1, 59, 0
5, 39055, Note_on_c, 1, 56, 0
5, 39060, Note_on_c, 1, 59, 34
5, 39060, Note_on_c, 1, 56, 45
5, 39091, Note_on_c, 1, 64, 0
5, 39115, Note_on_c, 1, 56, 0
5, 39115, Note_on_c, 1, 59, 0
5, 39120, Note_on_c, 1, 56, 39
5, 39120, Note_on_c, 1, 59, 51
5, 39120, Note_on_c, 1, 64, 45
5, 39175, Note_on_c, 1, 59, 0
5, 39175, Note_on_c, 1, 56, 0
5, 39180, Note_on_c, 1, 59, 39
5, 39180, Note_on_c, 1, 56, 56
5, 39220, Note_on_c, 1, 64, 0
5, 39235, Note_on_c, 1, 56, 0
5, 39235, Note_on_c, 1, 59, 0
5, 39240, Note_on_c, 1, 59, 56
5, 39240, Note_on_c, 1, 56, 56
5, 39240, Note_on_c, 1, 64, 56
5, 39290, Note_on_c, 1, 64, 0
5, 39295, Note_on_c, 1, 56, 0
5, 39295, Note_on_c, 1, 59, 0
5, 39300, Note_on_c, 1, 56, 51
5, 39300, Note_on_c, 1, 59, 51
5, 39300, Note_on_c, 1, 64, 45
5, 39327, Note_on_c, 1, 64, 0
5, 39355, Note_on_c, 1, 59, 0
5, 39355, Note_on_c, 1, 56, 0
5, 39360, Note_on_c, 1, 56, 51
5, 39360, Note_on_c, 1, 59, 51
5, 39360, Note_on_c, 1, 64, 51
5, 39415, Note_on_c, 1, 59, 0
5, 39415, Note_on_c, 1, 56, 0
5, 39420, Note_on_c, 1, 59, 45
5, 39420, Note_on_c, 1, 56, 49
5, 39455, Note_on_c, 1, 64, 0
5, 39475, Note_on_c, 1, 56, 0
5, 39475, Note_on_c, 1, 59, 0
5, 39480, Note_on_c, 1, 56, 51
5, 39480, Note_on_c, 1, 59, 51
5, 39480, Note_on_c, 1, 64, 51
5, 39535, Note_on_c, 1, 59, 0
5, 39535, Note_on_c, 1, 56, 0
5, 39540, Note_on_c, 1, 59, 34
5, 39540, Note_on_c, 1, 56, 45
5, 39570, Note_on_c, 1, 64, 0
5, 39595, Note_on_c, 1, 56, 0
5, 39595, Note_on_c, 1, 59, 0
5, 39600, Note_on_c, 1, 56, 39
5, 39600, Note_on_c, 1, 59, 51
5, 39600, Note_on_c, 1, 64, 45
5, 39655, Note_on_c, 1, 59, 0
5, 39655, Note_on_c, 1, 56, 0
5, 39660, Note_on_c, 1, 59, 39
5, 39660, Note_on_c, 1, 56, 56
5, 39690, Note_on_c, 1, 64, 0
5, 39715, Note_on_c, 1, 56, 0
5, 39715, Note_on_c, 1, 59, 0
5, 39720, Note_on_c, 1, 59, 56
5, 39720, Note_on_c, 1, 56, 56
5, 39720, Note_on_c, 1, 64, 56
5, 39770, Note_on_c, 1, 64, 0
5, 39775, Note_on_c, 1, 56, 0
5, 39775, Note_on_c, 1, 59, 0
5, 39780, Note_on_c, 1, 56, 51
5, 39780, Note_on_c, 1, 59, 51
5, 39780, Note_on_c, 1, 64, 45
5, 39807, Note_on_c, 1, 64, 0
5, 39835, Note_on_c, 1, 59, 0
5, 39835, Note_on_c, 1, 56, 0
5, 39840, Note_on_c, 1, 56, 51
5, 39840, Note_on_c, 1, 59, 51
5, 39840, Note_on_c, 1, 64, 51
5, 39895, Note_on_c, 1, 59, 0
5, 39895, Note_on_c, 1, 56, 0
5, 39900, Note_on_c, 1, 59, 45
5, 39900, Note_on_c, 1, 56, 49
5, 39940, Note_on_c, 1, 64, 0
5, 39955, Note_on_c, 1, 56, 0
5, 39955, Note_on_c, 1, 59, 0
5, 39960, Note_on_c, 1, 56, 51
5, 39960, Note_on_c, 1, 59, 51
5, 39960, Note_on_c, 1, 64, 51
5, 40015, Note_on_c, 1, 59, 0
5, 40015, Note_on_c, 1, 56, 0
5, 40020, Note_on_c, 1, 59, 34
5, 40020, Note_on_c, 1, 56, 45
5, 40051, Note_on_c, 1, 64, 0
5, 40075, Note_on_c, 1, 56, 0
5, 40075, Note_on_c, 1, 59, 0
5, 40080, Note_on_c, 1, 56, 39
5, 40080, Note_on_c, 1, 59, 51
5, 40080, Note_on_c, 1, 64, 45
5, 40135, Note_on_c, 1, 59, 0
5, 40135, Note_on_c, 1, 56, 0
5, 40140, Note_on_c, 1, 59, 39
5, 40140, Note_on_c, 1, 56, 56
5, 40180, Note_on_c, 1, 64, 0
5, 40195, Note_on_c, 1, 56, 0
5, 40195, Note_on_c, 1, 59, 0
5, 40200, Note_on_c, 1, 59, 56
5, 40200, Note_on_c, 1, 56, 56
5, 40200, Note_on_c, 1, 64, 56
5, 40250, Note_on_c, 1, 64, 0
5, 40255, Note_on_c, 1, 56, 0
5, 40255, Note_on_c, 1, 59, 0
5, 40260, Note_on_c, 1, 56, 51
5, 40260, Note_on_c, 1, 59, 51
5, 40260, Note_on_c, 1, 64, 45
5, 40287, Note_on_c, 1, 64, 0
5, 40315, Note_on_c, 1, 59, 0
5, 40315, Note_on_c, 1, 56, 0
5, 40320, Note_on_c, 1, 56, 51
5, 40320, Note_on_c, 1, 59, 51
5, 40320, Note_on_c, 1, 64, 51
5, 40375, Note_on_c, 1, 59, 0
5, 40375, Note_on_c, 1, 56, 0
5, 40380, Note_on_c, 1, 59, 45
5, 40380, Note_on_c, 1, 56, 50
5, 40415, Note_on_c, 1, 64, 0
5, 40435, Note_on_c, 1, 56, 0
5, 40435, Note_on_c, 1, 59, 0
5, 40440, Note_on_c, 1, 56, 51
5, 40440, Note_on_c, 1, 59, 51
5, 40440, Note_on_c, 1, 64, 51
5, 40495, Note_on_c, 1, 59, 0
5, 40495, Note_on_c, 1, 56, 0
5, 40500, Note_on_c, 1, 59, 34
5, 40500, Note_on_c, 1, 56, 45
5, 40530, Note_on_c, 1, 64, 0
5, 40555, Note_on_c, 1, 56, 0
5, 40555, Note_on_c, 1, 59, 0
5, 40560, Note_on_c, 1, 56, 39
5, 40560, Note_on_c, 1, 59, 51
5, 40560, Note_on_c, 1, 64, 45
5, 40615, Note_on_c, 1, 59, 0
5, 40615, Note_on_c, 1, 56, 0
5, 40620, Note_on_c, 1, 59, 39
5, 40620, Note_on_c, 1, 56, 56
5, 40650, Note_on_c, 1, 64, 0
5, 40675, Note_on_c, 1, 56, 0
5, 40675, Note_on_c, 1, 59, 0
5, 40680, Note_on_c, 1, 59, 56
5, 40680, Note_on_c, 1, 56, 56
5, 40680, Note_on_c, 1, 64, 56
5, 40730, Note_on_c, 1, 64, 0
5, 40735, Note_on_c, 1, 56, 0
5, 40735, Note_on_c, 1, 59, 0
5, 40740, Note_on_c, 1, 56, 51
5, 40740, Note_on_c, 1, 59, 51
5, 40740, Note_on_c, 1, 64, 45
5, 40767, Note_on_c, 1, 64, 0
5, 40795, Note_on_c, 1, 59, 0
5, 40795, Note_on_c, 1, 56, 0
5, 40800, Note_on_c, 1, 56, 51
5, 40800, Note_on_c, 1, 59, 51
5, 40800, Note_on_c, 1, 64, 51
5, 40855, Note_on_c, 1, 59, 0
5, 40855, Note_on_c, 1, 56, 0
5, 40860, Note_on_c, 1, 59, 45
5, 40860, Note_on_c, 1, 56, 50
5, 40900, Note_on_c, 1, 64, 0
5, 40915, Note_on_c, 1, 56, 0
5, 40915, Note_on_c, 1, 59, 0
5, 40920, Note_on_c, 1, 56, 51
5, 40920, Note_on_c, 1, 59, 51
5, 40920, Note_on_c, 1, 64, 51
5, 40975, Note_on_c, 1, 59, 0
5, 40975, Note_on_c, 1, 56, 0
5, 40980, Note_on_c, 1, 59, 34
5, 40980, Note_on_c, 1, 56, 45
5, 41011, Note_on_c, 1, 64, 0
5, 41035, Note_on_c, 1, 56, 0
5, 41035, Note_on_c, 1, 59, 0
5, 41040, Note_on_c, 1, 56, 39
5, 41040, Note_on_c, 1, 59, 51
5, 41040, Note_on_c, 1, 64, 45
5, 41095, Note_on_c, 1, 59, 0
5, 41095, Note_on_c, 1, 56, 0
5, 41100, Note_on_c, 1, 59, 39
5, 41100, Note_on_c, 1, 56, 56
5, 41140, Note_on_c, 1, 64, 0
5, 41155, Note_on_c, 1, 56, 0
5, 41155, Note_on_c, 1, 59, 0
5, 41160, Note_on_c, 1, 59, 56
5, 41160, Note_on_c, 1, 56, 56
5, 41160, Note_on_c, 1, 64, 56
5, 41210, Note_on_c, 1, 64, 0
5, 41215, Note_on_c, 1, 56, 0
5, 41215, Note_on_c, 1, 59, 0
5, 41220, Note_on_c, 1, 56, 51
5, 41220, Note_on_c, 1, 59, 51
5, 41220, Note_on_c, 1, 64, 45
5, 41247, Note_on_c, 1, 64, 0
5, 41275, Note_on_c, 1, 59, 0
5, 41275, Note_on_c, 1, 56, 0
5, 41280, Note_on_c, 1, 56, 51
5, 41280, Note_on_c, 1, 59, 51
5, 41280, Note_on_c, 1, 64, 51
5, 41335, Note_on_c, 1, 59, 0
5, 41335, Note_on_c, 1, 56, 0
5, 41340, Note_on_c, 1, 59, 45
5, 41340, Note_on_c, 1, 56, 50
5, 41375, Note_on_c, 1, 64, 0
5, 41395, Note_on_c, 1, 56, 0
5, 41395, Note_on_c, 1, 59, 0
5, 41400, Note_on_c, 1, 56, 51
5, 41400, Note_on_c, 1, 59, 51
5, 41400, Note_on_c, 1, 64, 51
5, 41455, Note_on_c, 1, 59, 0
5, 41455, Note_on_c, 1, 56, 0
5, 41460, Note_on_c, 1, 59, 34
5, 41460, Note_on_c, 1, 56, 45
5, 41490, Note_on_c, 1, 64, 0
5, 41515, Note_on_c, 1, 56, 0
5, 41515, Note_on_c, 1, 59, 0
5, 41520, Note_on_c, 1, 56, 39
5, 41520, Note_on_c, 1, 59, 51
5, 41520, Note_on_c, 1, 64, 45
5, 41575, Note_on_c, 1, 59, 0
5, 41575, Note_on_c, 1, 56, 0
5, 41580, Note_on_c, 1, 59, 39
5, 41580, Note_on_c, 1, 56, 56
5, 41610, Note_on_c, 1, 64, 0
5, 41635, Note_on_c, 1, 56, 0
5, 41635, Note_on_c, 1, 59, 0
5, 41640, Note_on_c, 1, 59, 56
5, 41640, Note_on_c, 1, 56, 56
5, 41640, Note_on_c, 1, 64, 56
5, 41690, Note_on_c, 1, 64, 0
5, 41695, Note_on_c, 1, 56, 0
5, 41695, Note_on_c, 1, 59, 0
5, 41700, Note_on_c, 1, 56, 51
5, 41700, Note_on_c, 1, 59, 51
5, 41700, Note_on_c, 1, 64, 45
5, 41727, Note_on_c, 1, 64, 0
5, 41755, Note_on_c, 1, 59, 0
5, 41755, Note_on_c, 1, 56, 0
5, 41760, Note_on_c, 1, 56, 51
5, 41760, Note_on_c, 1, 59, 51
5, 41760, Note_on_c, 1, 64, 51
5, 41815, Note_on_c, 1, 59, 0
5, 41815, Note_on_c, 1, 56, 0
5, 41820, Note_on_c, 1, 59, 45
5, 41820, Note_on_c, 1, 56, 50
5, 41860, Note_on_c, 1, 64, 0
5, 41875, Note_on_c, 1, 56, 0
5, 41875, Note_on_c, 1, 59, 0
5, 41880, Note_on_c, 1, 56, 51
5, 41880, Note_on_c, 1, 59, 51
5, 41880, Note_on_c, 1, 64, 51
5, 41935, Note_on_c, 1, 59, 0
5, 41935, Note_on_c, 1, 56, 0
5, 41940, Note_on_c, 1, 59, 34
5, 41940, Note_on_c, 1, 56, 45
5, 41971, Note_on_c, 1, 64, 0
5, 41995, Note_on_c, 1, 56, 0
5, 41995, Note_on_c, 1, 59, 0
5, 42000, Note_on_c, 1, 56, 39
5, 42000, Note_on_c, 1, 59, 51
5, 42000, Note_on_c, 1, 64, 45
5, 42055, Note_on_c, 1, 59, 0
5, 42055, Note_on_c, 1, 56, 0
5, 42060, Note_on_c, 1, 59, 39
5, 42060, Note_on_c, 1, 56, 56
5, 42100, Note_on_c, 1, 64, 0
5, 42115, Note_on_c, 1, 56, 0
5, 42115, Note_on_c, 1, 59, 0
5, 42120, Note_on_c, 1, 59, 56
5, 42120, Note_on_c, 1, 56, 56
5, 42120, Note_on_c, 1, 64, 56
5, 42170, Note_on_c, 1, 64, 0
5, 42175, Note_on_c, 1, 56, 0
5, 42175, Note_on_c, 1, 59, 0
5, 42180, Note_on_c, 1, 56, 51
5, 42180, Note_on_c, 1, 59, 51
5, 42180, Note_on_c, 1, 64, 45
5, 42207, Note_on_c, 1, 64, 0
5, 42235, Note_on_c, 1, 59, 0
5, 42235, Note_on_c, 1, 56, 0
5, 42240, Note_on_c, 1, 56, 56
5, 42240, Note_on_c, 1, 59, 51
5, 42240, Note_on_c, 1, 64, 51
5, 42290, Note_on_c, 1, 64, 0
5, 42290, Note_on_c, 1, 59, 0
5, 42290, Note_on_c, 1, 56, 0
5, 42780, Note_on_c, 1, 56, 56
5, 42780, Note_on_c, 1, 59, 56
5, 42780, Note_on_c, 1, 64, 51
5, 42830, Note_on_c, 1, 64, 0
5, 42830, Note_on_c, 1, 59, 0
5, 42830, Note_on_c, 1, 56, 0
5, 42840, Note_on_c, 1, 64, 39
5, 42840, Note_on_c, 1, 56, 51
5, 42840, Note_on_c, 1, 59, 56
5, 42890, Note_on_c, 1, 59, 0
5, 42890, Note_on_c, 1, 56, 0
5, 42890, Note_on_c, 1, 64, 0
5, 42900, Note_on_c, 1, 56, 45
5, 42900, Note_on_c, 1, 64, 45
5, 42900, Note_on_c, 1, 59, 51
5, 42950, Note_on_c, 1, 59, 0
5, 42950, Note_on_c, 1, 64, 0
5, 42950, Note_on_c, 1, 56, 0
5, 42960, Note_on_c, 1, 56, 56
5, 42960, Note_on_c, 1, 64, 51
5, 42960, Note_on_c, 1, 59, 51
5, 43010, Note_on_c, 1, 59, 0
5, 43010, Note_on_c, 1, 64, 0
5, 43010, Note_on_c, 1, 56, 0
5, 43020, Note_on_c, 1, 56, 45
5, 43020, Note_on_c, 1, 59, 56
5, 43020, Note_on_c, 1, 64, 45
5, 43070, Note_on_c, 1, 64, 0
5, 43070, Note_on_c, 1, 59, 0
5, 43070, Note_on_c, 1, 56, 0
5, 43080, Note_on_c, 1, 56, 51
5, 43080, Note_on_c, 1, 59, 51
5, 43080, Note_on_c, 1, 64, 45
5, 43130, Note_on_c, 1, 64, 0
5, 43130, Note_on_c, 1, 59, 0
5, 43130, Note_on_c, 1, 56, 0
5, 43140, Note_on_c, 1, 59, 51
5, 43140, Note_on_c, 1, 56, 37
5, 43140, Note_on_c, 1, 64, 39
5, 43190, Note_on_c, 1, 64, 0
5, 43190, Note_on_c, 1, 56, 0
5, 43190, Note_on_c, 1, 59, 0
5, 43200, Note_on_c, 1, 56, 56
5, 43200, Note_on_c, 1, 59, 51
5, 43200, Note_on_c, 1, 64, 51
5, 43250, Note_on_c, 1, 64, 0
5, 43250, Note_on_c, 1, 59, 0
5, 43250, Note_on_c, 1, 56, 0
5, 43680, Note_on_c, 1, 56, 51
5, 43680, Note_on_c, 1, 59, 51
5, 43680, Note_on_c, 1, 64, 51
5, 43735, Note_on_c, 1, 59, 0
5, 43735, Note_on_c, 1, 56, 0
5, 43740, Note_on_c, 1, 59, 45
5, 43740, Note_on_c, 1, 56, 50
5, 43775, Note_on_c, 1, 64, 0
5, 43795, Note_on_c, 1, 56, 0
5, 43795, Note_on_c, 1, 59, 0
5, 43800, Note_on_c, 1, 56, 51
5, 43800, Note_on_c, 1, 59, 51
5, 43800, Note_on_c, 1, 64, 51
5, 43855, Note_on_c, 1, 59, 0
5, 43855, Note_on_c, 1, 56, 0
5, 43860, Note_on_c, 1, 59, 34
5, 43860, Note_on_c, 1, 56, 45
5, 43890, Note_on_c, 1, 64, 0
5, 43915, Note_on_c, 1, 56, 0
5, 43915, Note_on_c, 1, 59, 0
5, 43920, Note_on_c, 1, 56, 39
5, 43920, Note_on_c, 1, 59, 51
5, 43920, Note_on_c, 1, 64, 45
5, 43975, Note_on_c, 1, 59, 0
5, 43975, Note_on_c, 1, 56, 0
5, 43980, Note_on_c, 1, 59, 39
5, 43980, Note_on_c, 1, 56, 56
5, 44010, Note_on_c, 1, 64, 0
5, 44035, Note_on_c, 1, 56, 0
5, 44035, Note_on_c, 1, 59, 0
5, 44040, Note_on_c, 1, 59, 56
5, 44040, Note_on_c, 1, 56, 56
5, 44040, Note_on_c, 1, 64, 56
5, 44090, Note_on_c, 1, 64, 0
5, 44095, Note_on_c, 1, 56, 0
5, 44095, Note_on_c, 1, 59, 0
5, 44100, Note_on_c, 1, 56, 51
5, 44100, Note_on_c, 1, 59, 51
5, 44100, Note_on_c, 1, 64, 45
5, 44127, Note_on_c, 1, 64, 0
5, 44155, Note_on_c, 1, 59, 0
5, 44155, Note_on_c, 1, 56, 0
5, 44160, Note_on_c, 1, 56, 51
5, 44160, Note_on_c, 1, 59, 51
5, 44160, Note_on_c, 1, 64, 51
5, 44215, Note_on_c, 1, 59, 0
5, 44215, Note_on_c, 1, 56, 0
5, 44220, Note_on_c, 1, 59, 45
5, 44220, Note_on_c, 1, 56, 50
5, 44260, Note_on_c, 1, 64, 0
5, 44275, Note_on_c, 1, 56, 0
5, 44275, Note_on_c, 1, 59, 0
5, 44280, Note_on_c, 1, 56, 51
5, 44280, Note_on_c, 1, 59, 51
5, 44280, Note_on_c, 1, 64, 51
5, 44335, Note_on_c, 1, 59, 0
5, 44335, Note_on_c, 1, 56, 0
5, 44340, Note_on_c, 1, 59, 34
5, 44340, Note_on_c, 1, 56, 45
5, 44371, Note_on_c, 1, 64, 0
5, 44395, Note_on_c, 1, 56, 0
5, 44395, Note_on_c, 1, 59, 0
5, 44400, Note_on_c, 1, 56, 39
5, 44400, Note_on_c, 1, 59, 51
5, 44400, Note_on_c, 1, 64, 45
5, 44455, Note_on_c, 1, 59, 0
5, 44455, Note_on_c, 1, 56, 0
5, 44460, Note_on_c, 1, 59, 39
5, 44460, Note_on_c, 1, 56, 56
5, 44500, Note_on_c, 1, 64, 0
5, 44515, Note_on_c, 1, 56, 0
5, 44515, Note_on_c, 1, 59, 0
5, 44520, Note_on_c, 1, 59, 56
5, 44520, Note_on_c, 1, 56, 56
5, 44520, Note_on_c, 1, 64, 56
5, 44570, Note_on_c, 1, 64, 0
5, 44575, Note_on_c, 1, 56, 0
5, 44575, Note_on_c, 1, 59, 0
5, 44580, Note_on_c, 1, 56, 51
5, 44580, Note_on_c, 1, 59, 51
5, 44580, Note_on_c, 1, 64, 45
5, 44607, Note_on_c, 1, 64, 0
5, 44635, Note_on_c, 1, 59, 0
5, 44635, Note_on_c, 1, 56, 0
5, 44640, Note_on_c, 1, 56, 51
5, 44640, Note_on_c, 1, 59, 51
5, 44640, Note_on_c, 1, 64, 51
5, 44695, Note_on_c, 1, 59, 0
5, 44695, Note_on_c, 1, 56, 0
5, 44700, Note_on_c, 1, 59, 45
5, 44700, Note_on_c, 1, 56, 50
5, 44740, Note_on_c, 1, 64, 0
5, 44755, Note_on_c, 1, 56, 0
5, 44755, Note_on_c, 1, 59, 0
5, 44760, Note_on_c, 1, 56, 51
5, 44760, Note_on_c, 1, 59, 51
5, 44760, Note_on_c, 1, 64, 51
5, 44815, Note_on_c, 1, 59, 0
5, 44815, Note_on_c, 1, 56, 0
5, 44820, Note_on_c, 1, 59, 34
5, 44820, Note_on_c, 1, 56, 45
5, 44855, Note_on_c, 1, 64, 0
5, 44875, Note_on_c, 1, 56, 0
5, 44875, Note_on_c, 1, 59, 0
5, 44880, Note_on_c, 1, 56, 39
5, 44880, Note_on_c, 1, 59, 51
5, 44880, Note_on_c, 1, 64, 45
5, 44935, Note_on_c, 1, 59, 0
5, 44935, Note_on_c, 1, 56, 0
5, 44940, Note_on_c, 1, 59, 39
5, 44940, Note_on_c, 1, 56, 56
5, 44980, Note_on_c, 1, 64, 0
5, 44995, Note_on_c, 1, 56, 0
5, 44995, Note_on_c, 1, 59, 0
5, 45000, Note_on_c, 1, 59, 56
5, 45000, Note_on_c, 1, 56, 56
5, 45000, Note_on_c, 1, 64, 56
5, 45050, Note_on_c, 1, 64, 0
5, 45055, Note_on_c, 1, 56, 0
5, 45055, Note_on_c, 1, 59, 0
5, 45060, Note_on_c, 1, 56, 51
5, 45060, Note_on_c, 1, 59, 51
5, 45060, Note_on_c, 1, 64, 45
5, 45087, Note_on_c, 1, 64, 0
5, 45115, Note_on_c, 1, 59, 0
5, 45115, Note_on_c, 1, 56, 0
5, 45120, Note_on_c, 1, 56, 51
5, 45120, Note_on_c, 1, 59, 51
5, 45120, Note_on_c, 1, 64, 51
5, 45175, Note_on_c, 1, 59, 0
5, 45175, Note_on_c, 1, 56, 0
5, 45180, Note_on_c, 1, 59, 45
5, 45180, Note_on_c, 1, 56, 50
5, 45220, Note_on_c, 1, 64, 0
5, 45235, Note_on_c, 1, 56, 0
5, 45235, Note_on_c, 1, 59, 0
5, 45240, Note_on_c, 1, 56, 51
5, 45240, Note_on_c, 1, 59, 51
5, 45240, Note_on_c, 1, 64, 51
5, 45295, Note_on_c, 1, 59, 0
5, 45295, Note_on_c, 1, 56, 0
5, 45300, Note_on_c, 1, 59, 34
5, 45300, Note_on_c, 1, 56, 45
5, 45340, Note_on_c, 1, 64, 0
5, 45355, Note_on_c, 1, 56, 0
5, 45355, Note_on_c, 1, 59, 0
5, 45360, Note_on_c, 1, 56, 39
5, 45360, Note_on_c, 1, 59, 51
5, 45360, Note_on_c, 1, 64, 45
5, 45415, Note_on_c, 1, 59, 0
5, 45415, Note_on_c, 1, 56, 0
5, 45420, Note_on_c, 1, 59, 39
5, 45420, Note_on_c, 1, 56, 56
5, 45452, Note_on_c, 1, 64, 0
5, 45475, Note_on_c, 1, 56, 0
5, 45475, Note_on_c, 1, 59, 0
5, 45480, Note_on_c, 1, 59, 56
5, 45480, Note_on_c, 1, 56, 56
5, 45480, Note_on_c, 1, 64, 56
5, 45530, Note_on_c, 1, 64, 0
5, 45535, Note_on_c, 1, 56, 0
5, 45535, Note_on_c, 1, 59, 0
5, 45540, Note_on_c, 1, 56, 51
5, 45540, Note_on_c, 1, 59, 51
5, 45540, Note_on_c, 1, 64, 45
5, 45567, Note_on_c, 1, 64, 0
5, 45595, Note_on_c, 1, 59, 0
5, 45595, Note_on_c, 1, 56, 0
5, 45600, Note_on_c, 1, 61, 51
5, 45600, Note_on_c, 1, 55, 51
5, 45600, Note_on_c, 1, 64, 51
5, 45655, Note_on_c, 1, 55, 0
5, 45655, Note_on_c, 1, 61, 0
5, 45660, Note_on_c, 1, 61, 45
5, 45660, Note_on_c, 1, 55, 50
5, 45700, Note_on_c, 1, 64, 0
5, 45715, Note_on_c, 1, 55, 0
5, 45715, Note_on_c, 1, 61, 0
5, 45720, Note_on_c, 1, 61, 51
5, 45720, Note_on_c, 1, 55, 51
5, 45720, Note_on_c, 1, 64, 51
5, 45775, Note_on_c, 1, 55, 0
5, 45775, Note_on_c, 1, 61, 0
5, 45780, Note_on_c, 1, 61, 34
5, 45780, Note_on_c, 1, 55, 45
5, 45820, Note_on_c, 1, 64, 0
5, 45835, Note_on_c, 1, 55, 0
5, 45835, Note_on_c, 1, 61, 0
5, 45840, Note_on_c, 1, 61, 51
5, 45840, Note_on_c, 1, 55, 39
5, 45840, Note_on_c, 1, 64, 45
5, 45895, Note_on_c, 1, 55, 0
5, 45895, Note_on_c, 1, 61, 0
5, 45900, Note_on_c, 1, 61, 39
5, 45900, Note_on_c, 1, 55, 56
5, 45932, Note_on_c, 1, 64, 0
5, 45955, Note_on_c, 1, 55, 0
5, 45955, Note_on_c, 1, 61, 0
5, 45960, Note_on_c, 1, 61, 56
5, 45960, Note_on_c, 1, 55, 56
5, 45960, Note_on_c, 1, 64, 56
5, 46010, Note_on_c, 1, 64, 0
5, 46015, Note_on_c, 1, 55, 0
5, 46015, Note_on_c, 1, 61, 0
5, 46020, Note_on_c, 1, 61, 51
5, 46020, Note_on_c, 1, 55, 51
5, 46020, Note_on_c, 1, 64, 45
5, 46047, Note_on_c, 1, 64, 0
5, 46075, Note_on_c, 1, 55, 0
5, 46075, Note_on_c, 1, 61, 0
5, 46080, Note_on_c, 1, 61, 51
5, 46080, Note_on_c, 1, 55, 51
5, 46080, Note_on_c, 1, 64, 51
5, 46135, Note_on_c, 1, 55, 0
5, 46135, Note_on_c, 1, 61, 0
5, 46140, Note_on_c, 1, 61, 45
5, 46140, Note_on_c, 1, 55, 50
5, 46180, Note_on_c, 1, 64, 0
5, 46195, Note_on_c, 1, 55, 0
5, 46195, Note_on_c, 1, 61, 0
5, 46200, Note_on_c, 1, 61, 51
5, 46200, Note_on_c, 1, 55, 51
5, 46200, Note_on_c, 1, 64, 51
5, 46255, Note_on_c, 1, 55, 0
5, 46255, Note_on_c, 1, 61, 0
5, 46260, Note_on_c, 1, 61, 34
5, 46260, Note_on_c, 1, 55, 45
5, 46300, Note_on_c, 1, 64, 0
5, 46315, Note_on_c, 1, 55, 0
5, 46315, Note_on_c, 1, 61, 0
5, 46320, Note_on_c, 1, 61, 51
5, 46320, Note_on_c, 1, 55, 39
5, 46320, Note_on_c, 1, 64, 45
5, 46375, Note_on_c, 1, 55, 0
5, 46375, Note_on_c, 1, 61, 0
5, 46380, Note_on_c, 1, 61, 39
5, 46380, Note_on_c, 1, 55, 56
5, 46412, Note_on_c, 1, 64, 0
5, 46435, Note_on_c, 1, 55, 0
5, 46435, Note_on_c, 1, 61, 0
5, 46440, Note_on_c, 1, 61, 56
5, 46440, Note_on_c, 1, 55, 56
5, 46440, Note_on_c, 1, 64, 56
5, 46490, Note_on_c, 1, 64, 0
5, 46495, Note_on_c, 1, 55, 0
5, 46495, Note_on_c, 1, 61, 0
5, 46500, Note_on_c, 1, 61, 51
5, 46500, Note_on_c, 1, 55, 51
5, 46500, Note_on_c, 1, 64, 45
5, 46527, Note_on_c, 1, 64, 0
5, 46555, Note_on_c, 1, 55, 0
5, 46555, Note_on_c, 1, 61, 0
5, 46560, Note_on_c, 1, 56, 51
5, 46560, Note_on_c, 1, 59, 51
5, 46560, Note_on_c, 1, 64, 51
5, 46615, Note_on_c, 1, 59, 0
5, 46615, Note_on_c, 1, 56, 0
5, 46620, Note_on_c, 1, 59, 45
5, 46620, Note_on_c, 1, 56, 50
5, 46655, Note_on_c, 1, 64, 0
5, 46675, Note_on_c, 1, 56, 0
5, 46675, Note_on_c, 1, 59, 0
5, 46680, Note_on_c, 1, 56, 51
5, 46680, Note_on_c, 1, 59, 51
5, 46680, Note_on_c, 1, 64, 51
5, 46735, Note_on_c, 1, 59, 0
5, 46735, Note_on_c, 1, 56, 0
5, 46740, Note_on_c, 1, 59, 34
5, 46740, Note_on_c, 1, 56, 45
5, 46770, Note_on_c, 1, 64, 0
5, 46795, Note_on_c, 1, 56, 0
5, 46795, Note_on_c, 1, 59, 0
5, 46800, Note_on_c, 1, 56, 39
5, 46800, Note_on_c, 1, 59, 51
5, 46800, Note_on_c, 1, 64, 45
5, 46855, Note_on_c, 1, 59, 0
5, 46855, Note_on_c, 1, 56, 0
5, 46860, Note_on_c, 1, 59, 39
5, 46860, Note_on_c, 1, 56, 56
5, 46890, Note_on_c, 1, 64, 0
5, 46915, Note_on_c, 1, 56, 0
5, 46915, Note_on_c, 1, 59, 0
5, 46920, Note_on_c, 1, 59, 56
5, 46920, Note_on_c, 1, 56, 56
5, 46920, Note_on_c, 1, 64, 56
5, 46970, Note_on_c, 1, 64, 0
5, 46975, Note_on_c, 1, 56, 0
5, 46975, Note_on_c, 1, 59, 0
5, 46980, Note_on_c, 1, 56, 51
5, 46980, Note_on_c, 1, 59, 51
5, 46980, Note_on_c, 1, 64, 45
5, 47007, Note_on_c, 1, 64, 0
5, 47035, Note_on_c, 1, 59, 0
5, 47035, Note_on_c, 1, 56, 0
5, 47040, Note_on_c, 1, 56, 51
5, 47040, Note_on_c, 1, 59, 51
5, 47040, Note_on_c, 1, 64, 51
5, 47095, Note_on_c, 1, 59, 0
5, 47095, Note_on_c, 1, 56, 0
5, 47100, Note_on_c, 1, 59, 45
5, 47100, Note_on_c, 1, 56, 50
5, 47140, Note_on_c, 1, 64, 0
5, 47155, Note_on_c, 1, 56, 0
5, 47155, Note_on_c, 1, 59, 0
5, 47160, Note_on_c, 1, 56, 51
5, 47160, Note_on_c, 1, 59, 51
5, 47160, Note_on_c, 1, 64, 51
5, 47215, Note_on_c, 1, 59, 0
5, 47215, Note_on_c, 1, 56, 0
5, 47220, Note_on_c, 1, 59, 34
5, 47220, Note_on_c, 1, 56, 45
5, 47251, Note_on_c, 1, 64, 0
5, 47275, Note_on_c, 1, 56, 0
5, 47275, Note_on_c, 1, 59, 0
5, 47280, Note_on_c, 1, 56, 39
5, 47280, Note_on_c, 1, 59, 51
5, 47280, Note_on_c, 1, 64, 45
5, 47335, Note_on_c, 1, 59, 0
5, 47335, Note_on_c, 1, 56, 0
5, 47340, Note_on_c, 1, 59, 39
5, 47340, Note_on_c, 1, 56, 56
5, 47380, Note_on_c, 1, 64, 0
5, 47395, Note_on_c, 1, 56, 0
5, 47395, Note_on_c, 1, 59, 0
5, 47400, Note_on_c, 1, 59, 56
5, 47400, Note_on_c, 1, 56, 56
5, 47400, Note_on_c, 1, 64, 56
5, 47450, Note_on_c, 1, 64, 0
5, 47455, Note_on_c, 1, 56, 0
5, 47455, Note_on_c, 1, 59, 0
5, 47460, Note_on_c, 1, 56, 51
5, 47460, Note_on_c, 1, 59, 51
5, 47460, Note_on_c, 1, 64, 45
5, 47487, Note_on_c, 1, 64, 0
5, 47515, Note_on_c, 1, 59, 0
5, 47515, Note_on_c, 1, 56, 0
5, 47520, Note_on_c, 1, 57, 51
5, 47520, Note_on_c, 1, 63, 51
5, 47520, Note_on_c, 1, 66, 51
5, 47575, Note_on_c, 1, 63, 0
5, 47575, Note_on_c, 1, 57, 0
5, 47580, Note_on_c, 1, 57, 50
5, 47580, Note_on_c, 1, 63, 45
5, 47620, Note_on_c, 1, 66, 0
5, 47635, Note_on_c, 1, 63, 0
5, 47635, Note_on_c, 1, 57, 0
5, 47640, Note_on_c, 1, 57, 51
5, 47640, Note_on_c, 1, 63, 51
5, 47640, Note_on_c, 1, 66, 51
5, 47695, Note_on_c, 1, 63, 0
5, 47695, Note_on_c, 1, 57, 0
5, 47700, Note_on_c, 1, 57, 45
5, 47700, Note_on_c, 1, 63, 34
5, 47740, Note_on_c, 1, 66, 0
5, 47755, Note_on_c, 1, 63, 0
5, 47755, Note_on_c, 1, 57, 0
5, 47760, Note_on_c, 1, 57, 39
5, 47760, Note_on_c, 1, 63, 51
5, 47760, Note_on_c, 1, 66, 45
5, 47815, Note_on_c, 1, 63, 0
5, 47815, Note_on_c, 1, 57, 0
5, 47820, Note_on_c, 1, 57, 56
5, 47820, Note_on_c, 1, 63, 39
5, 47852, Note_on_c, 1, 66, 0
5, 47875, Note_on_c, 1, 63, 0
5, 47875, Note_on_c, 1, 57, 0
5, 47880, Note_on_c, 1, 57, 56
5, 47880, Note_on_c, 1, 63, 56
5, 47880, Note_on_c, 1, 66, 56
5, 47930, Note_on_c, 1, 66, 0
5, 47935, Note_on_c, 1, 63, 0
5, 47935, Note_on_c, 1, 57, 0
5, 47940, Note_on_c, 1, 57, 51
5, 47940, Note_on_c, 1, 63, 51
5, 47940, Note_on_c, 1, 66, 45
5, 47967, Note_on_c, 1, 66, 0
5, 47995, Note_on_c, 1, 63, 0
5, 47995, Note_on_c, 1, 57, 0
5, 48000, Note_on_c, 1, 64, 51
5, 48000, Note_on_c, 1, 58, 51
5, 48000, Note_on_c, 1, 67, 51
5, 48055, Note_on_c, 1, 58, 0
5, 48055, Note_on_c, 1, 64, 0
5, 48060, Note_on_c, 1, 64, 45
5, 48060, Note_on_c, 1, 58, 50
5, 48100, Note_on_c, 1, 67, 0
5, 48115, Note_on_c, 1, 58, 0
5, 48115, Note_on_c, 1, 64, 0
5, 48120, Note_on_c, 1, 64, 51
5, 48120, Note_on_c, 1, 58, 51
5, 48120, Note_on_c, 1, 67, 51
5, 48175, Note_on_c, 1, 58, 0
5, 48175, Note_on_c, 1, 64, 0
5, 48180, Note_on_c, 1, 64, 34
5, 48180, Note_on_c, 1, 58, 45
5, 48220, Note_on_c, 1, 67, 0
5, 48235, Note_on_c, 1, 58, 0
5, 48235, Note_on_c, 1, 64, 0
5, 48240, Note_on_c, 1, 57, 39
5, 48240, Note_on_c, 1, 63, 51
5, 48240, Note_on_c, 1, 66, 45
5, 48295, Note_on_c, 1, 63, 0
5, 48295, Note_on_c, 1, 57, 0
5, 48300, Note_on_c, 1, 57, 56
5, 48300, Note_on_c, 1, 63, 39
5, 48332, Note_on_c, 1, 66, 0
5, 48355, Note_on_c, 1, 63, 0
5, 48355, Note_on_c, 1, 57, 0
5, 48360, Note_on_c, 1, 57, 56
5, 48360, Note_on_c, 1, 63, 56
5, 48360, Note_on_c, 1, 66, 56
5, 48410, Note_on_c, 1, 66, 0
5, 48415, Note_on_c, 1, 63, 0
5, 48415, Note_on_c, 1, 57, 0
5, 48420, Note_on_c, 1, 57, 51
5, 48420, Note_on_c, 1, 63, 51
5, 48420, Note_on_c, 1, 66, 45
5, 48447, Note_on_c, 1, 66, 0
5, 48475, Note_on_c, 1, 63, 0
5, 48475, Note_on_c, 1, 57, 0
5, 48480, Note_on_c, 1, 56, 51
5, 48480, Note_on_c, 1, 59, 51
5, 48480, Note_on_c, 1, 64, 51
5, 48535, Note_on_c, 1, 59, 0
5, 48535, Note_on_c, 1, 56, 0
5, 48540, Note_on_c, 1, 59, 45
5, 48540, Note_on_c, 1, 56, 50
5, 48575, Note_on_c, 1, 64, 0
5, 48595, Note_on_c, 1, 56, 0
5, 48595, Note_on_c, 1, 59, 0
5, 48600, Note_on_c, 1, 56, 51
5, 48600, Note_on_c, 1, 59, 51
5, 48600, Note_on_c, 1, 64, 51
5, 48655, Note_on_c, 1, 59, 0
5, 48655, Note_on_c, 1, 56, 0
5, 48660, Note_on_c, 1, 59, 34
5, 48660, Note_on_c, 1, 56, 45
5, 48690, Note_on_c, 1, 64, 0
5, 48715, Note_on_c, 1, 56, 0
5, 48715, Note_on_c, 1, 59, 0
5, 48720, Note_on_c, 1, 56, 39
5, 48720, Note_on_c, 1, 59, 51
5, 48720, Note_on_c, 1, 64, 45
5, 48775, Note_on_c, 1, 59, 0
5, 48775, Note_on_c, 1, 56, 0
5, 48780, Note_on_c, 1, 59, 39
5, 48780, Note_on_c, 1, 56, 56
5, 48810, Note_on_c, 1, 64, 0
5, 48835, Note_on_c, 1, 56, 0
5, 48835, Note_on_c, 1, 59, 0
5, 48840, Note_on_c, 1, 59, 56
5, 48840, Note_on_c, 1, 56, 56
5, 48840, Note_on_c, 1, 64, 56
5, 48890, Note_on_c, 1, 64, 0
5, 48895, Note_on_c, 1, 56, 0
5, 48895, Note_on_c, 1, 59, 0
5, 48900, Note_on_c, 1, 56, 51
5, 48900, Note_on_c, 1, 59, 51
5, 48900, Note_on_c, 1, 64, 45
5, 48927, Note_on_c, 1, 64, 0
5, 48955, Note_on_c, 1, 59, 0
5, 48955, Note_on_c, 1, 56, 0
5, 48960, Note_on_c, 1, 56, 51
5, 48960, Note_on_c, 1, 59, 51
5, 48960, Note_on_c, 1, 64, 51
5, 49015, Note_on_c, 1, 59, 0
5, 49015, Note_on_c, 1, 56, 0
5, 49020, Note_on_c, 1, 59, 45
5, 49020, Note_on_c, 1, 56, 50
5, 49060, Note_on_c, 1, 64, 0
5, 49075, Note_on_c, 1, 56, 0
5, 49075, Note_on_c, 1, 59, 0
5, 49080, Note_on_c, 1, 56, 51
5, 49080, Note_on_c, 1, 59, 51
5, 49080, Note_on_c, 1, 64, 51
5, 49135, Note_on_c, 1, 59, 0
5, 49135, Note_on_c, 1, 56, 0
5, 49140, Note_on_c, 1, 59, 34
5, 49140, Note_on_c, 1, 56, 45
5, 49171, Note_on_c, 1, 64, 0
5, 49195, Note_on_c, 1, 56, 0
5, 49195, Note_on_c, 1, 59, 0
5, 49200, Note_on_c, 1, 56, 39
5, 49200, Note_on_c, 1, 59, 51
5, 49200, Note_on_c, 1, 64, 45
5, 49255, Note_on_c, 1, 59, 0
5, 49255, Note_on_c, 1, 56, 0
5, 49260, Note_on_c, 1, 59, 39
5, 49260, Note_on_c, 1, 56, 56
5, 49300, Note_on_c, 1, 64, 0
5, 49315, Note_on_c, 1, 56, 0
5, 49315, Note_on_c, 1, 59, 0
5, 49320, Note_on_c, 1, 59, 56
5, 49320, Note_on_c, 1, 56, 56
5, 49320, Note_on_c, 1, 64, 56
5, 49370, Note_on_c, 1, 64, 0
5, 49375, Note_on_c, 1, 56, 0
5, 49375, Note_on_c, 1, 59, 0
5, 49380, Note_on_c, 1, 56, 51
5, 49380, Note_on_c, 1, 59, 51
5, 49380, Note_on_c, 1, 64, 45
5, 49407, Note_on_c, 1, 64, 0
5, 49435, Note_on_c, 1, 59, 0
5, 49435, Note_on_c, 1, 56, 0
5, 49440, Note_on_c, 1, 57, 51
5, 49440, Note_on_c, 1, 63, 51
5, 49440, Note_on_c, 1, 66, 51
5, 49495, Note_on_c, 1, 63, 0
5, 49495, Note_on_c, 1, 57, 0
5, 49500, Note_on_c, 1, 57, 50
5, 49500, Note_on_c, 1, 63, 45
5, 49540, Note_on_c, 1, 66, 0
5, 49555, Note_on_c, 1, 63, 0
5, 49555, Note_on_c, 1, 57, 0
5, 49560, Note_on_c, 1, 57, 51
5, 49560, Note_on_c, 1, 63, 51
5, 49560, Note_on_c, 1, 66, 51
5, 49615, Note_on_c, 1, 63, 0
5, 49615, Note_on_c, 1, 57, 0
5, 49620, Note_on_c, 1, 57, 45
5, 49620, Note_on_c, 1, 63, 34
5, 49660, Note_on_c, 1, 66, 0
5, 49675, Note_on_c, 1, 63, 0
5, 49675, Note_on_c, 1, 57, 0
5, 49680, Note_on_c, 1, 57, 39
5, 49680, Note_on_c, 1, 63, 51
5, 49680, Note_on_c, 1, 66, 45
5, 49735, Note_on_c, 1, 63, 0
5, 49735, Note_on_c, 1, 57, 0
5, 49740, Note_on_c, 1, 57, 56
5, 49740, Note_on_c, 1, 63, 39
5, 49772, Note_on_c, 1, 66, 0
5, 49795, Note_on_c, 1, 63, 0
5, 49795, Note_on_c, 1, 57, 0
5, 49800, Note_on_c, 1, 57, 56
5, 49800, Note_on_c, 1, 63, 56
5, 49800, Note_on_c, 1, 66, 56
5, 49850, Note_on_c, 1, 66, 0
5, 49855, Note_on_c, 1, 63, 0
5, 49855, Note_on_c, 1, 57, 0
5, 49860, Note_on_c, 1, 57, 51
5, 49860, Note_on_c, 1, 63, 51
5, 49860, Note_on_c, 1, 66, 45
5, 49887, Note_on_c, 1, 66, 0
5, 49915, Note_on_c, 1, 63, 0
5, 49915, Note_on_c, 1, 57, 0
5, 49920, Note_on_c, 1, 64, 51
5, 49920, Note_on_c, 1, 58, 51
5, 49920, Note_on_c, 1, 67, 51
5, 49975, Note_on_c, 1, 58, 0
5, 49975, Note_on_c, 1, 64, 0
5, 49980, Note_on_c, 1, 64, 45
5, 49980, Note_on_c, 1, 58, 50
5, 50020, Note_on_c, 1, 67, 0
5, 50035, Note_on_c, 1, 58, 0
5, 50035, Note_on_c, 1, 64, 0
5, 50040, Note_on_c, 1, 64, 51
5, 50040, Note_on_c, 1, 58, 51
5, 50040, Note_on_c, 1, 67, 51
5, 50095, Note_on_c, 1, 58, 0
5, 50095, Note_on_c, 1, 64, 0
5, 50100, Note_on_c, 1, 64, 34
5, 50100, Note_on_c, 1, 58, 45
5, 50140, Note_on_c, 1, 67, 0
5, 50155, Note_on_c, 1, 58, 0
5, 50155, Note_on_c, 1, 64, 0
5, 50160, Note_on_c, 1, 57, 39
5, 50160, Note_on_c, 1, 63, 51
5, 50160, Note_on_c, 1, 66, 45
5, 50215, Note_on_c, 1, 63, 0
5, 50215, Note_on_c, 1, 57, 0
5, 50220, Note_on_c, 1, 57, 56
5, 50220, Note_on_c, 1, 63, 39
5, 50252, Note_on_c, 1, 66, 0
5, 50275, Note_on_c, 1, 63, 0
5, 50275, Note_on_c, 1, 57, 0
5, 50280, Note_on_c, 1, 57, 56
5, 50280, Note_on_c, 1, 63, 56
5, 50280, Note_on_c, 1, 66, 56
5, 50330, Note_on_c, 1, 66, 0
5, 50335, Note_on_c, 1, 63, 0
5, 50335, Note_on_c, 1, 57, 0
5, 50340, Note_on_c, 1, 57, 51
5, 50340, Note_on_c, 1, 63, 51
5, 50340, Note_on_c, 1, 66, 45
5, 50367, Note_on_c, 1, 66, 0
5, 50395, Note_on_c, 1, 63, 0
5, 50395, Note_on_c, 1, 57, 0
5, 50400, Note_on_c, 1, 56, 51
5, 50400, Note_on_c, 1, 59, 51
5, 50400, Note_on_c, 1, 64, 51
5, 50455, Note_on_c, 1, 59, 0
5, 50455, Note_on_c, 1, 56, 0
5, 50460, Note_on_c, 1, 59, 45
5, 50460, Note_on_c, 1, 56, 50
5, 50495, Note_on_c, 1, 64, 0
5, 50515, Note_on_c, 1, 56, 0
5, 50515, Note_on_c, 1, 59, 0
5, 50520, Note_on_c, 1, 56, 51
5, 50520, Note_on_c, 1, 59, 51
5, 50520, Note_on_c, 1, 64, 51
5, 50575, Note_on_c, 1, 59, 0
5, 50575, Note_on_c, 1, 56, 0
5, 50580, Note_on_c, 1, 59, 34
5, 50580, Note_on_c, 1, 56, 45
5, 50610, Note_on_c, 1, 64, 0
5, 50635, Note_on_c, 1, 56, 0
5, 50635, Note_on_c, 1, 59, 0
5, 50640, Note_on_c, 1, 56, 39
5, 50640, Note_on_c, 1, 59, 51
5, 50640, Note_on_c, 1, 64, 45
5, 50695, Note_on_c, 1, 59, 0
5, 50695, Note_on_c, 1, 56, 0
5, 50700, Note_on_c, 1, 59, 39
5, 50700, Note_on_c, 1, 56, 56
5, 50730, Note_on_c, 1, 64, 0
5, 50755, Note_on_c, 1, 56, 0
5, 50755, Note_on_c, 1, 59, 0
5, 50760, Note_on_c, 1, 59, 56
5, 50760, Note_on_c, 1, 56, 56
5, 50760, Note_on_c, 1, 64, 56
5, 50810, Note_on_c, 1, 64, 0
5, 50815, Note_on_c, 1, 56, 0
5, 50815, Note_on_c, 1, 59, 0
5, 50820, Note_on_c, 1, 56, 51
5, 50820, Note_on_c, 1, 59, 51
5, 50820, Note_on_c, 1, 64, 45
5, 50847, Note_on_c, 1, 64, 0
5, 50875, Note_on_c, 1, 59, 0
5, 50875, Note_on_c, 1, 56, 0
5, 50880, Note_on_c, 1, 56, 51
5, 50880, Note_on_c, 1, 59, 51
5, 50880, Note_on_c, 1, 64, 51
5, 50935, Note_on_c, 1, 59, 0
5, 50935, Note_on_c, 1, 56, 0
5, 50940, Note_on_c, 1, 59, 45
5, 50940, Note_on_c, 1, 56, 50
5, 50980, Note_on_c, 1, 64, 0
5, 50995, Note_on_c, 1, 56, 0
5, 50995, Note_on_c, 1, 59, 0
5, 51000, Note_on_c, 1, 56, 51
5, 51000, Note_on_c, 1, 59, 51
5, 51000, Note_on_c, 1, 64, 51
5, 51055, Note_on_c, 1, 59, 0
5, 51055, Note_on_c, 1, 56, 0
5, 51060, Note_on_c, 1, 59, 34
5, 51060, Note_on_c, 1, 56, 45
5, 51091, Note_on_c, 1, 64, 0
5, 51115, Note_on_c, 1, 56, 0
5, 51115, Note_on_c, 1, 59, 0
5, 51120, Note_on_c, 1, 56, 39
5, 51120, Note_on_c, 1, 59, 51
5, 51120, Note_on_c, 1, 64, 45
5, 51175, Note_on_c, 1, 59, 0
5, 51175, Note_on_c, 1, 56, 0
5, 51180, Note_on_c, 1, 59, 39
5, 51180, Note_on_c, 1, 56, 56
5, 51220, Note_on_c, 1, 64, 0
5, 51235, Note_on_c, 1, 56, 0
5, 51235, Note_on_c, 1, 59, 0
5, 51240, Note_on_c, 1, 59, 56
5, 51240, Note_on_c, 1, 56, 56
5, 51240, Note_on_c, 1, 64, 56
5, 51290, Note_on_c, 1, 64, 0
5, 51295, Note_on_c, 1, 56, 0
5, 51295, Note_on_c, 1, 59, 0
5, 51300, Note_on_c, 1, 56, 51
5, 51300, Note_on_c, 1, 59, 51
5, 51300, Note_on_c, 1, 64, 45
5, 51327, Note_on_c, 1, 64, 0
5, 51355, Note_on_c, 1, 59, 0
5, 51355, Note_on_c, 1, 56, 0
5, 51360, Note_on_c, 1, 57, 51
5, 51360, Note_on_c, 1, 63, 51
5, 51360, Note_on_c, 1, 66, 51
5, 51415, Note_on_c, 1, 63, 0
5, 51415, Note_on_c, 1, 57, 0
5, 51420, Note_on_c, 1, 57, 50
5, 51420, Note_on_c, 1, 63, 45
5, 51460, Note_on_c, 1, 66, 0
5, 51475, Note_on_c, 1, 63, 0
5, 51475, Note_on_c, 1, 57, 0
5, 51480, Note_on_c, 1, 57, 51
5, 51480, Note_on_c, 1, 63, 51
5, 51480, Note_on_c, 1, 66, 51
5, 51535, Note_on_c, 1, 63, 0
5, 51535, Note_on_c, 1, 57, 0
5, 51540, Note_on_c, 1, 57, 45
5, 51540, Note_on_c, 1, 63, 34
5, 51580, Note_on_c, 1, 66, 0
5, 51595, Note_on_c, 1, 63, 0
5, 51595, Note_on_c, 1, 57, 0
5, 51600, Note_on_c, 1, 57, 39
5, 51600, Note_on_c, 1, 63, 51
5, 51600, Note_on_c, 1, 66, 45
5, 51655, Note_on_c, 1, 63, 0
5, 51655, Note_on_c, 1, 57, 0
5, 51660, Note_on_c, 1, 57, 56
5, 51660, Note_on_c, 1, 63, 39
5, 51692, Note_on_c, 1, 66, 0
5, 51715, Note_on_c, 1, 63, 0
5, 51715, Note_on_c, 1, 57, 0
5, 51720, Note_on_c, 1, 57, 56
5, 51720, Note_on_c, 1, 63, 56
5, 51720, Note_on_c, 1, 66, 56
5, 51770, Note_on_c, 1, 66, 0
5, 51775, Note_on_c, 1, 63, 0
5, 51775, Note_on_c, 1, 57, 0
5, 51780, Note_on_c, 1, 57, 51
5, 51780, Note_on_c, 1, 63, 51
5, 51780, Note_on_c, 1, 66, 45
5, 51807, Note_on_c, 1, 66, 0
5, 51835, Note_on_c, 1, 63, 0
5, 51835, Note_on_c, 1, 57, 0
5, 51840, Note_on_c, 1, 64, 51
5, 51840, Note_on_c, 1, 58, 51
5, 51840, Note_on_c, 1, 67, 51
5, 51895, Note_on_c, 1, 58, 0
5, 51895, Note_on_c, 1, 64, 0
5, 51900, Note_on_c, 1, 64, 45
5, 51900, Note_on_c, 1, 58, 50
5, 51940, Note_on_c, 1, 67, 0
5, 51955, Note_on_c, 1, 58, 0
5, 51955, Note_on_c, 1, 64, 0
5, 51960, Note_on_c, 1, 64, 51
5, 51960, Note_on_c, 1, 58, 51
5, 51960, Note_on_c, 1, 67, 51
5, 52015, Note_on_c, 1, 58, 0
5, 52015, Note_on_c, 1, 64, 0
5, 52020, Note_on_c, 1, 64, 34
5, 52020, Note_on_c, 1, 58, 45
5, 52060, Note_on_c, 1, 67, 0
5, 52075, Note_on_c, 1, 58, 0
5, 52075, Note_on_c, 1, 64, 0
5, 52080, Note_on_c, 1, 57, 39
5, 52080, Note_on_c, 1, 63, 51
5, 52080, Note_on_c, 1, 66, 45
5, 52135, Note_on_c, 1, 63, 0
5, 52135, Note_on_c, 1, 57, 0
5, 52140, Note_on_c, 1, 57, 56
5, 52140, Note_on_c, 1, 63, 39
5, 52172, Note_on_c, 1, 66, 0
5, 52195, Note_on_c, 1, 63, 0
5, 52195, Note_on_c, 1, 57, 0
5, 52200, Note_on_c, 1, 57, 56
5, 52200, Note_on_c, 1, 63, 56
5, 52200, Note_on_c, 1, 66, 56
5, 52250, Note_on_c, 1, 66, 0
5, 52255, Note_on_c, 1, 63, 0
5, 52255, Note_on_c, 1, 57, 0
5, 52260, Note_on_c, 1, 57, 51
5, 52260, Note_on_c, 1, 63, 51
5, 52260, Note_on_c, 1, 66, 45
5, 52287, Note_on_c, 1, 66, 0
5, 52315, Note_on_c, 1, 63, 0
5, 52315, Note_on_c, 1, 57, 0
5, 52380, Note_on_c, 1, 56, 56
5, 52380, Note_on_c, 1, 59, 56
5, 52380, Note_on_c, 1, 64, 51
5, 52430, Note_on_c, 1, 64, 0
5, 52430, Note_on_c, 1, 59, 0
5, 52430, Note_on_c, 1, 56, 0
5, 52440, Note_on_c, 1, 64, 39
5, 52440, Note_on_c, 1, 56, 51
5, 52440, Note_on_c, 1, 59, 56
5, 52490, Note_on_c, 1, 59, 0
5, 52490, Note_on_c, 1, 56, 0
5, 52490, Note_on_c, 1, 64, 0
5, 52500, Note_on_c, 1, 56, 45
5, 52500, Note_on_c, 1, 64, 45
5, 52500, Note_on_c, 1, 59, 51
5, 52550, Note_on_c, 1, 59, 0
5, 52550, Note_on_c, 1, 64, 0
5, 52550, Note_on_c, 1, 56, 0
5, 52560, Note_on_c, 1, 56, 56
5, 52560, Note_on_c, 1, 64, 51
5, 52560, Note_on_c, 1, 59, 51
5, 52610, Note_on_c, 1, 59, 0
5, 52610, Note_on_c, 1, 64, 0
5, 52610, Note_on_c, 1, 56, 0
5, 52620, Note_on_c, 1, 56, 45
5, 52620, Note_on_c, 1, 59, 56
5, 52620, Note_on_c, 1, 64, 45
5, 52670, Note_on_c, 1, 64, 0
5, 52670, Note_on_c, 1, 59, 0
5, 52670, Note_on_c, 1, 56, 0
5, 52680, Note_on_c, 1, 56, 51
5, 52680, Note_on_c, 1, 59, 51
5, 52680, Note_on_c, 1, 64, 45
5, 52730, Note_on_c, 1, 64, 0
5, 52730, Note_on_c, 1, 59, 0
5, 52730, Note_on_c, 1, 56, 0
5, 52740, Note_on_c, 1, 59, 51
5, 52740, Note_on_c, 1, 56, 37
5, 52740, Note_on_c, 1, 64, 39
5, 52790, Note_on_c, 1, 64, 0
5, 52790, Note_on_c, 1, 56, 0
5, 52790, Note_on_c, 1, 59, 0
5, 52800, Note_on_c, 1, 56, 56
5, 52800, Note_on_c, 1, 59, 51
5, 52800, Note_on_c, 1, 64, 51
5, 52850, Note_on_c, 1, 64, 0
5, 52850, Note_on_c, 1, 59, 0
5, 52850, Note_on_c, 1, 56, 0
5, 52850, End_track
6, 0, Start_track
6, 0, MIDI_port, 0
6, 0, Program_c, 2, 51
6, 0, Control_c, 2, 0, 0
6, 154, Control_c, 2, 7, 115
6, 154, Control_c, 2, 10, 64
6, 11640, Note_on_c, 2, 76, 85
6, 11654, Note_on_c, 2, 76, 0
6, 11670, Note_on_c, 2, 76, 85
6, 11689, Note_on_c, 2, 76, 0
6, 11700, Note_on_c, 2, 76, 85
6, 11788, Note_on_c, 2, 76, 0
6, 11820, Note_on_c, 2, 76, 85
6, 11872, Note_on_c, 2, 76, 0
6, 11880, Note_on_c, 2, 71, 85
6, 11940, Note_on_c, 2, 68, 85
6, 11950, Note_on_c, 2, 71, 0
6, 12049, Note_on_c, 2, 68, 0
6, 12600, Note_on_c, 2, 76, 85
6, 12614, Note_on_c, 2, 76, 0
6, 12630, Note_on_c, 2, 76, 85
6, 12652, Note_on_c, 2, 76, 0
6, 12660, Note_on_c, 2, 76, 85
6, 12755, Note_on_c, 2, 76, 0
6, 12780, Note_on_c, 2, 76, 85
6, 12839, Note_on_c, 2, 76, 0
6, 12840, Note_on_c, 2, 71, 73
6, 12900, Note_on_c, 2, 68, 85
6, 12901, Note_on_c, 2, 71, 0
6, 13038, Note_on_c, 2, 68, 0
6, 13560, Note_on_c, 2, 76, 85
6, 13574, Note_on_c, 2, 76, 0
6, 13590, Note_on_c, 2, 76, 85
6, 13609, Note_on_c, 2, 76, 0
6, 13620, Note_on_c, 2, 76, 85
6, 13708, Note_on_c, 2, 76, 0
6, 13740, Note_on_c, 2, 76, 85
6, 13792, Note_on_c, 2, 76, 0
6, 13800, Note_on_c, 2, 71, 85
6, 13870, Note_on_c, 2, 71, 0
6, 15900, Note_on_c, 2, 71, 85
6, 15937, Note_on_c, 2, 71, 0
6, 15960, Note_on_c, 2, 71, 78
6, 15998, Note_on_c, 2, 71, 0
6, 16020, Note_on_c, 2, 71, 73
6, 16051, Note_on_c, 2, 71, 0
6, 16080, Note_on_c, 2, 71, 85
6, 16177, Note_on_c, 2, 71, 0
6, 16200, Note_on_c, 2, 71, 73
6, 16226, Note_on_c, 2, 71, 0
6, 16260, Note_on_c, 2, 71, 57
6, 16287, Note_on_c, 2, 71, 0
6, 16320, Note_on_c, 2, 72, 85
6, 16428, Note_on_c, 2, 72, 0
6, 16440, Note_on_c, 2, 71, 73
6, 16493, Note_on_c, 2, 71, 0
6, 16500, Note_on_c, 2, 69, 54
6, 16535, Note_on_c, 2, 69, 0
6, 16560, Note_on_c, 2, 71, 85
6, 16649, Note_on_c, 2, 71, 0
6, 16680, Note_on_c, 2, 71, 85
6, 16732, Note_on_c, 2, 71, 0
6, 16740, Note_on_c, 2, 69, 85
6, 16785, Note_on_c, 2, 69, 0
6, 16800, Note_on_c, 2, 68, 85
6, 16932, Note_on_c, 2, 68, 0
6, 27000, Control_c, 2, 0, 0
6, 27000, Program_c, 2, 49
6, 27480, Note_on_c, 2, 76, 85
6, 27494, Note_on_c, 2, 76, 0
6, 27510, Note_on_c, 2, 76, 85
6, 27529, Note_on_c, 2, 76, 0
6, 27540, Note_on_c, 2, 76, 85
6, 27628, Note_on_c, 2, 76, 0
6, 27660, Note_on_c, 2, 76, 85
6, 27712, Note_on_c, 2, 76, 0
6, 27720, Note_on_c, 2, 71, 85
6, 27780, Note_on_c, 2, 68, 85
6, 27790, Note_on_c, 2, 71, 0
6, 27889, Note_on_c, 2, 68, 0
6, 28440, Note_on_c, 2, 76, 85
6, 28454, Note_on_c, 2, 76, 0
6, 28470, Note_on_c, 2, 76, 85
6, 28492, Note_on_c, 2, 76, 0
6, 28500, Note_on_c, 2, 76, 85
6, 28595, Note_on_c, 2, 76, 0
6, 28620, Note_on_c, 2, 76, 85
6, 28679, Note_on_c, 2, 76, 0
6, 28680, Note_on_c, 2, 71, 74
6, 28740, Note_on_c, 2, 68, 85
6, 28741, Note_on_c, 2, 71, 0
6, 28878, Note_on_c, 2, 68, 0
6, 29400, Note_on_c, 2, 76, 85
6, 29414, Note_on_c, 2, 76, 0
6, 29430, Note_on_c, 2, 76, 85
6, 29449, Note_on_c, 2, 76, 0
6, 29460, Note_on_c, 2, 76, 85
6, 29548, Note_on_c, 2, 76, 0
6, 29580, Note_on_c, 2, 76, 85
6, 29632, Note_on_c, 2, 76, 0
6, 29640, Note_on_c, 2, 71, 85
6, 29710, Note_on_c, 2, 71, 0
6, 31740, Note_on_c, 2, 71, 85
6, 31777, Note_on_c, 2, 71, 0
6, 31800, Note_on_c, 2, 71, 78
6, 31838, Note_on_c, 2, 71, 0
6, 31860, Note_on_c, 2, 71, 74
6, 31891, Note_on_c, 2, 71, 0
6, 31920, Note_on_c, 2, 71, 85
6, 32017, Note_on_c, 2, 71, 0
6, 32040, Note_on_c, 2, 71, 74
6, 32066, Note_on_c, 2, 71, 0
6, 32100, Note_on_c, 2, 71, 59
6, 32127, Note_on_c, 2, 71, 0
6, 32160, Note_on_c, 2, 72, 85
6, 32268, Note_on_c, 2, 72, 0
6, 32280, Note_on_c, 2, 71, 74
6, 32333, Note_on_c, 2, 71, 0
6, 32340, Note_on_c, 2, 69, 54
6, 32375, Note_on_c, 2, 69, 0
6, 32400, Note_on_c, 2, 71, 85
6, 32489, Note_on_c, 2, 71, 0
6, 32520, Note_on_c, 2, 71, 85
6, 32572, Note_on_c, 2, 71, 0
6, 32580, Note_on_c, 2, 69, 85
6, 32625, Note_on_c, 2, 69, 0
6, 32640, Note_on_c, 2, 68, 85
6, 32772, Note_on_c, 2, 68, 0
6, 43320, Note_on_c, 2, 76, 85
6, 43334, Note_on_c, 2, 76, 0
6, 43350, Note_on_c, 2, 76, 85
6, 43369, Note_on_c, 2, 76, 0
6, 43380, Note_on_c, 2, 76, 85
6, 43468, Note_on_c, 2, 76, 0
6, 43500, Note_on_c, 2, 76, 85
6, 43552, Note_on_c, 2, 76, 0
6, 43560, Note_on_c, 2, 71, 85
6, 43620, Note_on_c, 2, 68, 85
6, 43630, Note_on_c, 2, 71, 0
6, 43729, Note_on_c, 2, 68, 0
6, 44280, Note_on_c, 2, 76, 85
6, 44294, Note_on_c, 2, 76, 0
6, 44310, Note_on_c, 2, 76, 85
6, 44332, Note_on_c, 2, 76, 0
6, 44340, Note_on_c, 2, 76, 85
6, 44435, Note_on_c, 2, 76, 0
6, 44460, Note_on_c, 2, 76, 85
6, 44519, Note_on_c, 2, 76, 0
6, 44520, Note_on_c, 2, 71, 74
6, 44580, Note_on_c, 2, 68, 85
6, 44581, Note_on_c, 2, 71, 0
6, 44718, Note_on_c, 2, 68, 0
6, 45240, Note_on_c, 2, 76, 85
6, 45254, Note_on_c, 2, 76, 0
6, 45270, Note_on_c, 2, 76, 85
6, 45289, Note_on_c, 2, 76, 0
6, 45300, Note_on_c, 2, 76, 85
6, 45388, Note_on_c, 2, 76, 0
6, 45420, Note_on_c, 2, 76, 85
6, 45472, Note_on_c, 2, 76, 0
6, 45480, Note_on_c, 2, 71, 85
6, 45544, Control_c, 2, 0, 0
6, 45544, Control_c, 2, 32, 0
6, 45544, Control_c, 2, 0, 0
6, 45544, Control_c, 2, 32, 0
6, 45544, Control_c, 2, 0, 0
6, 45544, Control_c, 2, 32, 0
6, 45544, Control_c, 2, 0, 0
6, 45544, Control_c, 2, 32, 0
6, 45544, Control_c, 2, 0, 0
6, 45544, Control_c, 2, 32, 0
6, 45544, Control_c, 2, 0, 0
6, 45544, Control_c, 2, 0, 0
6, 45544, Control_c, 2, 32, 0
6, 45544, Control_c, 2, 0, 0
6, 45544, Control_c, 2, 32, 0
6, 45544, Control_c, 2, 0, 0
6, 45544, Control_c, 2, 32, 0
6, 45544, Control_c, 2, 0, 0
6, 45544, Control_c, 2, 32, 0
6, 45544, Control_c, 2, 0, 0
6, 45544, Control_c, 2, 32, 0
6, 45544, Control_c, 2, 0, 0
6, 45544, Control_c, 2, 32, 0
6, 45550, Note_on_c, 2, 71, 0
6, 47580, Note_on_c, 2, 71, 85
6, 47617, Note_on_c, 2, 71, 0
6, 47640, Note_on_c, 2, 71, 79
6, 47678, Note_on_c, 2, 71, 0
6, 47700, Note_on_c, 2, 71, 74
6, 47731, Note_on_c, 2, 71, 0
6, 47760, Note_on_c, 2, 71, 85
6, 47857, Note_on_c, 2, 71, 0
6, 47880, Note_on_c, 2, 71, 74
6, 47906, Note_on_c, 2, 71, 0
6, 47940, Note_on_c, 2, 71, 59
6, 47967, Note_on_c, 2, 71, 0
6, 48000, Note_on_c, 2, 72, 85
6, 48108, Note_on_c, 2, 72, 0
6, 48120, Note_on_c, 2, 71, 74
6, 48160, Note_on_c, 2, 71, 0
6, 48180, Note_on_c, 2, 69, 54
6, 48220, Note_on_c, 2, 69, 0
6, 48240, Note_on_c, 2, 71, 85
6, 48329, Note_on_c, 2, 71, 0
6, 48360, Note_on_c, 2, 71, 85
6, 48412, Note_on_c, 2, 71, 0
6, 48420, Note_on_c, 2, 69, 85
6, 48465, Note_on_c, 2, 69, 0
6, 48480, Note_on_c, 2, 68, 85
6, 48612, Note_on_c, 2, 68, 0
6, 49500, Note_on_c, 2, 71, 85
6, 49537, Note_on_c, 2, 71, 0
6, 49560, Note_on_c, 2, 71, 79
6, 49598, Note_on_c, 2, 71, 0
6, 49620, Note_on_c, 2, 71, 74
6, 49651, Note_on_c, 2, 71, 0
6, 49680, Note_on_c, 2, 71, 85
6, 49777, Note_on_c, 2, 71, 0
6, 49800, Note_on_c, 2, 71, 74
6, 49826, Note_on_c, 2, 71, 0
6, 49860, Note_on_c, 2, 71, 59
6, 49887, Note_on_c, 2, 71, 0
6, 49920, Note_on_c, 2, 72, 85
6, 50028, Note_on_c, 2, 72, 0
6, 50040, Note_on_c, 2, 71, 74
6, 50093, Note_on_c, 2, 71, 0
6, 50100, Note_on_c, 2, 69, 54
6, 50135, Note_on_c, 2, 69, 0
6, 50160, Note_on_c, 2, 71, 85
6, 50249, Note_on_c, 2, 71, 0
6, 50280, Note_on_c, 2, 71, 85
6, 50332, Note_on_c, 2, 71, 0
6, 50340, Note_on_c, 2, 69, 85
6, 50385, Note_on_c, 2, 69, 0
6, 50400, Note_on_c, 2, 68, 85
6, 50532, Note_on_c, 2, 68, 0
6, 51420, Note_on_c, 2, 71, 85
6, 51457, Note_on_c, 2, 71, 0
6, 51480, Note_on_c, 2, 71, 79
6, 51518, Note_on_c, 2, 71, 0
6, 51540, Note_on_c, 2, 71, 74
6, 51571, Note_on_c, 2, 71, 0
6, 51600, Note_on_c, 2, 71, 85
6, 51697, Note_on_c, 2, 71, 0
6, 51720, Note_on_c, 2, 71, 74
6, 51746, Note_on_c, 2, 71, 0
6, 51780, Note_on_c, 2, 71, 59
6, 51807, Note_on_c, 2, 71, 0
6, 51840, Note_on_c, 2, 72, 85
6, 51948, Note_on_c, 2, 72, 0
6, 51960, Note_on_c, 2, 71, 74
6, 52013, Note_on_c, 2, 71, 0
6, 52020, Note_on_c, 2, 69, 54
6, 52055, Note_on_c, 2, 69, 0
6, 52080, Note_on_c, 2, 71, 85
6, 52169, Note_on_c, 2, 71, 0
6, 52200, Note_on_c, 2, 71, 85
6, 52252, Note_on_c, 2, 71, 0
6, 52260, Note_on_c, 2, 69, 85
6, 52305, Note_on_c, 2, 69, 0
6, 52320, Note_on_c, 2, 68, 85
6, 52452, Note_on_c, 2, 68, 0
6, 52452, End_track
7, 0, Start_track
7, 0, MIDI_port, 0
7, 0, Program_c, 3, 33
7, 0, Control_c, 3, 0, 0
7, 124, Control_c, 3, 7, 127
7, 124, Control_c, 3, 10, 64
7, 540, Control_c, 3, 11, 127
7, 1020, Note_on_c, 3, 28, 68
7, 1070, Note_on_c, 3, 28, 0
7, 1080, Note_on_c, 3, 28, 67
7, 1130, Note_on_c, 3, 28, 0
7, 1140, Note_on_c, 3, 28, 67
7, 1190, Note_on_c, 3, 28, 0
7, 1200, Note_on_c, 3, 28, 67
7, 1250, Note_on_c, 3, 28, 0
7, 1260, Note_on_c, 3, 28, 66
7, 1310, Note_on_c, 3, 28, 0
7, 1320, Note_on_c, 3, 28, 66
7, 1370, Note_on_c, 3, 28, 0
7, 1380, Note_on_c, 3, 28, 65
7, 1430, Note_on_c, 3, 28, 0
7, 1440, Note_on_c, 3, 28, 67
7, 1490, Note_on_c, 3, 28, 0
7, 1920, Note_on_c, 3, 28, 75
7, 2031, Note_on_c, 3, 28, 0
7, 2040, Note_on_c, 3, 32, 68
7, 2159, Note_on_c, 3, 32, 0
7, 2160, Note_on_c, 3, 35, 72
7, 2262, Note_on_c, 3, 35, 0
7, 2280, Note_on_c, 3, 37, 67
7, 2340, Note_on_c, 3, 35, 75
7, 2344, Note_on_c, 3, 37, 0
7, 2388, Note_on_c, 3, 35, 0
7, 2400, Note_on_c, 3, 28, 68
7, 2515, Note_on_c, 3, 28, 0
7, 2520, Note_on_c, 3, 32, 67
7, 2639, Note_on_c, 3, 32, 0
7, 2640, Note_on_c, 3, 35, 69
7, 2745, Note_on_c, 3, 35, 0
7, 2760, Note_on_c, 3, 37, 67
7, 2812, Note_on_c, 3, 37, 0
7, 2820, Note_on_c, 3, 35, 75
7, 2871, Note_on_c, 3, 35, 0
7, 2880, Note_on_c, 3, 28, 69
7, 3000, Note_on_c, 3, 32, 75
7, 3005, Note_on_c, 3, 28, 0
7, 3117, Note_on_c, 3, 32, 0
7, 3120, Note_on_c, 3, 35, 75
7, 3228, Note_on_c, 3, 35, 0
7, 3240, Note_on_c, 3, 37, 67
7, 3300, Note_on_c, 3, 35, 75
7, 3303, Note_on_c, 3, 37, 0
7, 3346, Note_on_c, 3, 35, 0
7, 3360, Note_on_c, 3, 28, 67
7, 3480, Note_on_c, 3, 32, 72
7, 3482, Note_on_c, 3, 28, 0
7, 3597, Note_on_c, 3, 32, 0
7, 3600, Note_on_c, 3, 35, 75
7, 3717, Note_on_c, 3, 35, 0
7, 3720, Note_on_c, 3, 37, 63
7, 3775, Note_on_c, 3, 37, 0
7, 3780, Note_on_c, 3, 35, 75
7, 3832, Note_on_c, 3, 35, 0
7, 3840, Note_on_c, 3, 33, 72
7, 3957, Note_on_c, 3, 33, 0
7, 3960, Note_on_c, 3, 37, 75
7, 4076, Note_on_c, 3, 37, 0
7, 4080, Note_on_c, 3, 40, 75
7, 4193, Note_on_c, 3, 40, 0
7, 4200, Note_on_c, 3, 42, 65
7, 4260, Note_on_c, 3, 40, 59
7, 4261, Note_on_c, 3, 42, 0
7, 4300, Note_on_c, 3, 40, 0
7, 4320, Note_on_c, 3, 33, 75
7, 4432, Note_on_c, 3, 33, 0
7, 4440, Note_on_c, 3, 37, 69
7, 4554, Note_on_c, 3, 37, 0
7, 4560, Note_on_c, 3, 40, 69
7, 4680, Note_on_c, 3, 42, 68
7, 4685, Note_on_c, 3, 40, 0
7, 4740, Note_on_c, 3, 40, 63
7, 4741, Note_on_c, 3, 42, 0
7, 4776, Note_on_c, 3, 40, 0
7, 4800, Note_on_c, 3, 28, 68
7, 4917, Note_on_c, 3, 28, 0
7, 4920, Note_on_c, 3, 32, 75
7, 5040, Note_on_c, 3, 32, 0
7, 5040, Note_on_c, 3, 35, 75
7, 5157, Note_on_c, 3, 35, 0
7, 5160, Note_on_c, 3, 37, 63
7, 5220, Note_on_c, 3, 35, 75
7, 5221, Note_on_c, 3, 37, 0
7, 5267, Note_on_c, 3, 35, 0
7, 5280, Note_on_c, 3, 28, 69
7, 5396, Note_on_c, 3, 28, 0
7, 5400, Note_on_c, 3, 32, 65
7, 5517, Note_on_c, 3, 32, 0
7, 5520, Note_on_c, 3, 35, 75
7, 5640, Note_on_c, 3, 35, 0
7, 5640, Note_on_c, 3, 37, 66
7, 5700, Note_on_c, 3, 28, 75
7, 5713, Note_on_c, 3, 37, 0
7, 5737, Note_on_c, 3, 28, 0
7, 5760, Note_on_c, 3, 35, 67
7, 5872, Note_on_c, 3, 35, 0
7, 5880, Note_on_c, 3, 32, 67
7, 5991, Note_on_c, 3, 32, 0
7, 6000, Note_on_c, 3, 30, 66
7, 6106, Note_on_c, 3, 30, 0
7, 6120, Note_on_c, 3, 32, 69
7, 6180, Note_on_c, 3, 30, 68
7, 6189, Note_on_c, 3, 32, 0
7, 6236, Note_on_c, 3, 30, 0
7, 6240, Note_on_c, 3, 36, 75
7, 6344, Note_on_c, 3, 36, 0
7, 6360, Note_on_c, 3, 36, 72
7, 6464, Note_on_c, 3, 36, 0
7, 6480, Note_on_c, 3, 35, 75
7, 6577, Note_on_c, 3, 35, 0
7, 6600, Note_on_c, 3, 35, 65
7, 6660, Note_on_c, 3, 30, 66
7, 6664, Note_on_c, 3, 35, 0
7, 6711, Note_on_c, 3, 30, 0
7, 6720, Note_on_c, 3, 28, 75
7, 6840, Note_on_c, 3, 32, 72
7, 6842, Note_on_c, 3, 28, 0
7, 6960, Note_on_c, 3, 32, 0
7, 6960, Note_on_c, 3, 35, 68
7, 7075, Note_on_c, 3, 35, 0
7, 7080, Note_on_c, 3, 37, 72
7, 7140, Note_on_c, 3, 35, 65
7, 7142, Note_on_c, 3, 37, 0
7, 7184, Note_on_c, 3, 35, 0
7, 7200, Note_on_c, 3, 28, 66
7, 7315, Note_on_c, 3, 28, 0
7, 7320, Note_on_c, 3, 32, 69
7, 7440, Note_on_c, 3, 32, 0
7, 7440, Note_on_c, 3, 35, 75
7, 7550, Note_on_c, 3, 35, 0
7, 7560, Note_on_c, 3, 37, 66
7, 7662, Note_on_c, 3, 37, 0
7, 7680, Note_on_c, 3, 28, 67
7, 7798, Note_on_c, 3, 28, 0
7, 7800, Note_on_c, 3, 32, 66
7, 7908, Note_on_c, 3, 32, 0
7, 7920, Note_on_c, 3, 35, 66
7, 8028, Note_on_c, 3, 35, 0
7, 8040, Note_on_c, 3, 37, 63
7, 8100, Note_on_c, 3, 37, 0
7, 8100, Note_on_c, 3, 35, 65
7, 8154, Note_on_c, 3, 35, 0
7, 8160, Note_on_c, 3, 28, 67
7, 8340, Note_on_c, 3, 28, 0
7, 8340, Note_on_c, 3, 32, 68
7, 8444, Note_on_c, 3, 32, 0
7, 8460, Note_on_c, 3, 37, 61
7, 8520, Note_on_c, 3, 35, 67
7, 8521, Note_on_c, 3, 37, 0
7, 8611, Note_on_c, 3, 35, 0
7, 8640, Note_on_c, 3, 28, 67
7, 8757, Note_on_c, 3, 28, 0
7, 8760, Note_on_c, 3, 32, 68
7, 8791, Note_on_c, 3, 32, 0
7, 8820, Note_on_c, 3, 32, 67
7, 8880, Note_on_c, 3, 35, 66
7, 8891, Note_on_c, 3, 32, 0
7, 8991, Note_on_c, 3, 35, 0
7, 9000, Note_on_c, 3, 37, 66
7, 9060, Note_on_c, 3, 35, 59
7, 9074, Note_on_c, 3, 37, 0
7, 9090, Note_on_c, 3, 35, 0
7, 9120, Note_on_c, 3, 28, 63
7, 9300, Note_on_c, 3, 28, 0
7, 9300, Note_on_c, 3, 32, 66
7, 9407, Note_on_c, 3, 32, 0
7, 9420, Note_on_c, 3, 37, 62
7, 9466, Note_on_c, 3, 37, 0
7, 9480, Note_on_c, 3, 35, 67
7, 9590, Note_on_c, 3, 35, 0
7, 9600, Note_on_c, 3, 28, 68
7, 9710, Note_on_c, 3, 28, 0
7, 9720, Note_on_c, 3, 32, 66
7, 9826, Note_on_c, 3, 32, 0
7, 9840, Note_on_c, 3, 35, 72
7, 9941, Note_on_c, 3, 35, 0
7, 9960, Note_on_c, 3, 37, 63
7, 10020, Note_on_c, 3, 35, 63
7, 10024, Note_on_c, 3, 37, 0
7, 10066, Note_on_c, 3, 35, 0
7, 10080, Note_on_c, 3, 28, 68
7, 10194, Note_on_c, 3, 28, 0
7, 10200, Note_on_c, 3, 32, 69
7, 10315, Note_on_c, 3, 32, 0
7, 10320, Note_on_c, 3, 35, 75
7, 10429, Note_on_c, 3, 35, 0
7, 10440, Note_on_c, 3, 37, 69
7, 10491, Note_on_c, 3, 37, 0
7, 10500, Note_on_c, 3, 35, 72
7, 10560, Note_on_c, 3, 40, 75
7, 10561, Note_on_c, 3, 35, 0
7, 10608, Note_on_c, 3, 40, 0
7, 11100, Note_on_c, 3, 28, 68
7, 11150, Note_on_c, 3, 28, 0
7, 11160, Note_on_c, 3, 28, 67
7, 11210, Note_on_c, 3, 28, 0
7, 11220, Note_on_c, 3, 28, 67
7, 11270, Note_on_c, 3, 28, 0
7, 11280, Note_on_c, 3, 28, 67
7, 11330, Note_on_c, 3, 28, 0
7, 11340, Note_on_c, 3, 28, 66
7, 11390, Note_on_c, 3, 28, 0
7, 11400, Note_on_c, 3, 28, 66
7, 11450, Note_on_c, 3, 28, 0
7, 11460, Note_on_c, 3, 28, 65
7, 11510, Note_on_c, 3, 28, 0
7, 11520, Note_on_c, 3, 28, 67
7, 11570, Note_on_c, 3, 28, 0
7, 12000, Note_on_c, 3, 28, 75
7, 12111, Note_on_c, 3, 28, 0
7, 12120, Note_on_c, 3, 32, 68
7, 12239, Note_on_c, 3, 32, 0
7, 12240, Note_on_c, 3, 35, 72
7, 12342, Note_on_c, 3, 35, 0
7, 12360, Note_on_c, 3, 37, 67
7, 12420, Note_on_c, 3, 35, 75
7, 12424, Note_on_c, 3, 37, 0
7, 12468, Note_on_c, 3, 35, 0
7, 12480, Note_on_c, 3, 28, 68
7, 12595, Note_on_c, 3, 28, 0
7, 12600, Note_on_c, 3, 32, 67
7, 12719, Note_on_c, 3, 32, 0
7, 12720, Note_on_c, 3, 35, 69
7, 12825, Note_on_c, 3, 35, 0
7, 12840, Note_on_c, 3, 37, 67
7, 12892, Note_on_c, 3, 37, 0
7, 12900, Note_on_c, 3, 35, 75
7, 12951, Note_on_c, 3, 35, 0
7, 12960, Note_on_c, 3, 28, 69
7, 13080, Note_on_c, 3, 32, 75
7, 13085, Note_on_c, 3, 28, 0
7, 13197, Note_on_c, 3, 32, 0
7, 13200, Note_on_c, 3, 35, 75
7, 13308, Note_on_c, 3, 35, 0
7, 13320, Note_on_c, 3, 37, 67
7, 13380, Note_on_c, 3, 35, 75
7, 13383, Note_on_c, 3, 37, 0
7, 13426, Note_on_c, 3, 35, 0
7, 13440, Note_on_c, 3, 28, 67
7, 13560, Note_on_c, 3, 32, 72
7, 13562, Note_on_c, 3, 28, 0
7, 13677, Note_on_c, 3, 32, 0
7, 13680, Note_on_c, 3, 35, 75
7, 13797, Note_on_c, 3, 35, 0
7, 13800, Note_on_c, 3, 37, 63
7, 13855, Note_on_c, 3, 37, 0
7, 13860, Note_on_c, 3, 35, 75
7, 13912, Note_on_c, 3, 35, 0
7, 13920, Note_on_c, 3, 33, 72
7, 14037, Note_on_c, 3, 33, 0
7, 14040, Note_on_c, 3, 37, 75
7, 14156, Note_on_c, 3, 37, 0
7, 14160, Note_on_c, 3, 40, 75
7, 14273, Note_on_c, 3, 40, 0
7, 14280, Note_on_c, 3, 42, 65
7, 14340, Note_on_c, 3, 40, 59
7, 14341, Note_on_c, 3, 42, 0
7, 14380, Note_on_c, 3, 40, 0
7, 14400, Note_on_c, 3, 33, 75
7, 14512, Note_on_c, 3, 33, 0
7, 14520, Note_on_c, 3, 37, 69
7, 14634, Note_on_c, 3, 37, 0
7, 14640, Note_on_c, 3, 40, 69
7, 14760, Note_on_c, 3, 42, 68
7, 14765, Note_on_c, 3, 40, 0
7, 14820, Note_on_c, 3, 40, 63
7, 14821, Note_on_c, 3, 42, 0
7, 14856, Note_on_c, 3, 40, 0
7, 14880, Note_on_c, 3, 28, 68
7, 14997, Note_on_c, 3, 28, 0
7, 15000, Note_on_c, 3, 32, 75
7, 15120, Note_on_c, 3, 32, 0
7, 15120, Note_on_c, 3, 35, 75
7, 15237, Note_on_c, 3, 35, 0
7, 15240, Note_on_c, 3, 37, 63
7, 15300, Note_on_c, 3, 35, 75
7, 15301, Note_on_c, 3, 37, 0
7, 15347, Note_on_c, 3, 35, 0
7, 15360, Note_on_c, 3, 28, 69
7, 15476, Note_on_c, 3, 28, 0
7, 15480, Note_on_c, 3, 32, 65
7, 15597, Note_on_c, 3, 32, 0
7, 15600, Note_on_c, 3, 35, 75
7, 15720, Note_on_c, 3, 35, 0
7, 15720, Note_on_c, 3, 37, 66
7, 15780, Note_on_c, 3, 28, 75
7, 15793, Note_on_c, 3, 37, 0
7, 15817, Note_on_c, 3, 28, 0
7, 15840, Note_on_c, 3, 35, 67
7, 15952, Note_on_c, 3, 35, 0
7, 15960, Note_on_c, 3, 32, 67
7, 16071, Note_on_c, 3, 32, 0
7, 16080, Note_on_c, 3, 30, 66
7, 16186, Note_on_c, 3, 30, 0
7, 16200, Note_on_c, 3, 32, 69
7, 16260, Note_on_c, 3, 30, 68
7, 16269, Note_on_c, 3, 32, 0
7, 16316, Note_on_c, 3, 30, 0
7, 16320, Note_on_c, 3, 36, 65
7, 16434, Note_on_c, 3, 36, 0
7, 16440, Note_on_c, 3, 43, 63
7, 16500, Note_on_c, 3, 36, 61
7, 16514, Note_on_c, 3, 43, 0
7, 16560, Note_on_c, 3, 36, 0
7, 16560, Note_on_c, 3, 35, 75
7, 16667, Note_on_c, 3, 35, 0
7, 16680, Note_on_c, 3, 42, 65
7, 16739, Note_on_c, 3, 42, 0
7, 16740, Note_on_c, 3, 35, 67
7, 16776, Note_on_c, 3, 35, 0
7, 16800, Note_on_c, 3, 28, 75
7, 16911, Note_on_c, 3, 28, 0
7, 16920, Note_on_c, 3, 32, 68
7, 17040, Note_on_c, 3, 35, 75
7, 17045, Note_on_c, 3, 32, 0
7, 17155, Note_on_c, 3, 35, 0
7, 17160, Note_on_c, 3, 37, 69
7, 17272, Note_on_c, 3, 37, 0
7, 17280, Note_on_c, 3, 40, 75
7, 17389, Note_on_c, 3, 40, 0
7, 17400, Note_on_c, 3, 38, 75
7, 17517, Note_on_c, 3, 38, 0
7, 17520, Note_on_c, 3, 37, 68
7, 17629, Note_on_c, 3, 37, 0
7, 17640, Note_on_c, 3, 35, 75
7, 17747, Note_on_c, 3, 35, 0
7, 17760, Note_on_c, 3, 28, 72
7, 17879, Note_on_c, 3, 28, 0
7, 17880, Note_on_c, 3, 32, 68
7, 18000, Note_on_c, 3, 32, 0
7, 18000, Note_on_c, 3, 35, 67
7, 18030, Note_on_c, 3, 35, 0
7, 18060, Note_on_c, 3, 35, 65
7, 18120, Note_on_c, 3, 37, 63
7, 18137, Note_on_c, 3, 35, 0
7, 18180, Note_on_c, 3, 35, 65
7, 18197, Note_on_c, 3, 37, 0
7, 18240, Note_on_c, 3, 35, 0
7, 18240, Note_on_c, 3, 28, 68
7, 18356, Note_on_c, 3, 28, 0
7, 18360, Note_on_c, 3, 32, 66
7, 18480, Note_on_c, 3, 35, 67
7, 18484, Note_on_c, 3, 32, 0
7, 18514, Note_on_c, 3, 35, 0
7, 18540, Note_on_c, 3, 35, 66
7, 18600, Note_on_c, 3, 37, 66
7, 18613, Note_on_c, 3, 35, 0
7, 18660, Note_on_c, 3, 35, 66
7, 18667, Note_on_c, 3, 37, 0
7, 18711, Note_on_c, 3, 35, 0
7, 18720, Note_on_c, 3, 28, 66
7, 18837, Note_on_c, 3, 28, 0
7, 18840, Note_on_c, 3, 32, 67
7, 18956, Note_on_c, 3, 32, 0
7, 18960, Note_on_c, 3, 35, 63
7, 18980, Note_on_c, 3, 35, 0
7, 19020, Note_on_c, 3, 35, 66
7, 19080, Note_on_c, 3, 37, 66
7, 19089, Note_on_c, 3, 35, 0
7, 19140, Note_on_c, 3, 35, 66
7, 19150, Note_on_c, 3, 37, 0
7, 19200, Note_on_c, 3, 35, 0
7, 19200, Note_on_c, 3, 28, 69
7, 19310, Note_on_c, 3, 28, 0
7, 19320, Note_on_c, 3, 32, 68
7, 19440, Note_on_c, 3, 35, 67
7, 19448, Note_on_c, 3, 32, 0
7, 19473, Note_on_c, 3, 35, 0
7, 19500, Note_on_c, 3, 35, 67
7, 19560, Note_on_c, 3, 37, 65
7, 19566, Note_on_c, 3, 35, 0
7, 19620, Note_on_c, 3, 35, 68
7, 19629, Note_on_c, 3, 37, 0
7, 19680, Note_on_c, 3, 35, 0
7, 19680, Note_on_c, 3, 33, 58
7, 19789, Note_on_c, 3, 33, 0
7, 19800, Note_on_c, 3, 37, 65
7, 19917, Note_on_c, 3, 37, 0
7, 19920, Note_on_c, 3, 40, 63
7, 19956, Note_on_c, 3, 40, 0
7, 19980, Note_on_c, 3, 40, 63
7, 20040, Note_on_c, 3, 42, 65
7, 20050, Note_on_c, 3, 40, 0
7, 20100, Note_on_c, 3, 40, 63
7, 20109, Note_on_c, 3, 42, 0
7, 20156, Note_on_c, 3, 40, 0
7, 20160, Note_on_c, 3, 33, 59
7, 20277, Note_on_c, 3, 33, 0
7, 20280, Note_on_c, 3, 37, 68
7, 20395, Note_on_c, 3, 37, 0
7, 20400, Note_on_c, 3, 40, 63
7, 20435, Note_on_c, 3, 40, 0
7, 20460, Note_on_c, 3, 40, 63
7, 20520, Note_on_c, 3, 42, 67
7, 20529, Note_on_c, 3, 40, 0
7, 20580, Note_on_c, 3, 40, 61
7, 20584, Note_on_c, 3, 42, 0
7, 20615, Note_on_c, 3, 40, 0
7, 20640, Note_on_c, 3, 28, 67
7, 20757, Note_on_c, 3, 28, 0
7, 20760, Note_on_c, 3, 32, 67
7, 20880, Note_on_c, 3, 32, 0
7, 20880, Note_on_c, 3, 35, 69
7, 20909, Note_on_c, 3, 35, 0
7, 20940, Note_on_c, 3, 35, 63
7, 21000, Note_on_c, 3, 37, 68
7, 21012, Note_on_c, 3, 35, 0
7, 21060, Note_on_c, 3, 35, 66
7, 21068, Note_on_c, 3, 37, 0
7, 21120, Note_on_c, 3, 35, 0
7, 21120, Note_on_c, 3, 28, 72
7, 21235, Note_on_c, 3, 28, 0
7, 21240, Note_on_c, 3, 32, 67
7, 21360, Note_on_c, 3, 35, 69
7, 21362, Note_on_c, 3, 32, 0
7, 21390, Note_on_c, 3, 35, 0
7, 21420, Note_on_c, 3, 35, 67
7, 21480, Note_on_c, 3, 37, 67
7, 21489, Note_on_c, 3, 35, 0
7, 21539, Note_on_c, 3, 37, 0
7, 21540, Note_on_c, 3, 33, 75
7, 21600, Note_on_c, 3, 33, 0
7, 21600, Note_on_c, 3, 35, 69
7, 21719, Note_on_c, 3, 35, 0
7, 21720, Note_on_c, 3, 32, 63
7, 21837, Note_on_c, 3, 32, 0
7, 21840, Note_on_c, 3, 30, 68
7, 21883, Note_on_c, 3, 30, 0
7, 21900, Note_on_c, 3, 30, 59
7, 21960, Note_on_c, 3, 32, 75
7, 21971, Note_on_c, 3, 30, 0
7, 22020, Note_on_c, 3, 30, 58
7, 22033, Note_on_c, 3, 32, 0
7, 22077, Note_on_c, 3, 30, 0
7, 22080, Note_on_c, 3, 36, 72
7, 22177, Note_on_c, 3, 36, 0
7, 22200, Note_on_c, 3, 36, 68
7, 22299, Note_on_c, 3, 36, 0
7, 22320, Note_on_c, 3, 35, 72
7, 22414, Note_on_c, 3, 35, 0
7, 22440, Note_on_c, 3, 35, 67
7, 22500, Note_on_c, 3, 30, 66
7, 22502, Note_on_c, 3, 35, 0
7, 22552, Note_on_c, 3, 30, 0
7, 22560, Note_on_c, 3, 28, 67
7, 22672, Note_on_c, 3, 28, 0
7, 22680, Note_on_c, 3, 32, 75
7, 22797, Note_on_c, 3, 32, 0
7, 22800, Note_on_c, 3, 35, 75
7, 22911, Note_on_c, 3, 35, 0
7, 22920, Note_on_c, 3, 37, 68
7, 23022, Note_on_c, 3, 37, 0
7, 23042, Note_on_c, 3, 40, 75
7, 23162, Note_on_c, 3, 40, 0
7, 23162, Note_on_c, 3, 38, 75
7, 23212, Note_on_c, 3, 38, 0
7, 23222, Note_on_c, 3, 37, 67
7, 23284, Note_on_c, 3, 37, 0
7, 23284, Note_on_c, 3, 35, 67
7, 23331, Note_on_c, 3, 35, 0
7, 23342, Note_on_c, 3, 30, 69
7, 23402, Note_on_c, 3, 30, 0
7, 23402, Note_on_c, 3, 31, 75
7, 23468, Note_on_c, 3, 30, 68
7, 23469, Note_on_c, 3, 31, 0
7, 23504, Note_on_c, 3, 30, 0
7, 23520, Note_on_c, 3, 28, 69
7, 23632, Note_on_c, 3, 28, 0
7, 23640, Note_on_c, 3, 32, 75
7, 23760, Note_on_c, 3, 35, 75
7, 23763, Note_on_c, 3, 32, 0
7, 23785, Note_on_c, 3, 35, 0
7, 23820, Note_on_c, 3, 35, 69
7, 23880, Note_on_c, 3, 35, 0
7, 23880, Note_on_c, 3, 37, 75
7, 23940, Note_on_c, 3, 37, 0
7, 23940, Note_on_c, 3, 35, 69
7, 23992, Note_on_c, 3, 35, 0
7, 24000, Note_on_c, 3, 28, 75
7, 24156, Note_on_c, 3, 28, 0
7, 24180, Note_on_c, 3, 32, 75
7, 24292, Note_on_c, 3, 32, 0
7, 24300, Note_on_c, 3, 37, 67
7, 24355, Note_on_c, 3, 37, 0
7, 24360, Note_on_c, 3, 35, 75
7, 24463, Note_on_c, 3, 35, 0
7, 24480, Note_on_c, 3, 28, 68
7, 24595, Note_on_c, 3, 28, 0
7, 24600, Note_on_c, 3, 32, 75
7, 24716, Note_on_c, 3, 32, 0
7, 24720, Note_on_c, 3, 35, 69
7, 24743, Note_on_c, 3, 35, 0
7, 24780, Note_on_c, 3, 35, 75
7, 24840, Note_on_c, 3, 37, 72
7, 24846, Note_on_c, 3, 35, 0
7, 24900, Note_on_c, 3, 37, 0
7, 24900, Note_on_c, 3, 35, 72
7, 24954, Note_on_c, 3, 35, 0
7, 24960, Note_on_c, 3, 28, 68
7, 25140, Note_on_c, 3, 28, 0
7, 25140, Note_on_c, 3, 32, 72
7, 25246, Note_on_c, 3, 32, 0
7, 25260, Note_on_c, 3, 35, 75
7, 25316, Note_on_c, 3, 35, 0
7, 25320, Note_on_c, 3, 37, 65
7, 25407, Note_on_c, 3, 37, 0
7, 25440, Note_on_c, 3, 28, 72
7, 25560, Note_on_c, 3, 32, 72
7, 25567, Note_on_c, 3, 28, 0
7, 25680, Note_on_c, 3, 35, 72
7, 25684, Note_on_c, 3, 32, 0
7, 25705, Note_on_c, 3, 35, 0
7, 25740, Note_on_c, 3, 35, 75
7, 25800, Note_on_c, 3, 37, 68
7, 25804, Note_on_c, 3, 35, 0
7, 25860, Note_on_c, 3, 35, 65
7, 25865, Note_on_c, 3, 37, 0
7, 25909, Note_on_c, 3, 35, 0
7, 25920, Note_on_c, 3, 28, 68
7, 26037, Note_on_c, 3, 28, 0
7, 26040, Note_on_c, 3, 32, 75
7, 26156, Note_on_c, 3, 32, 0
7, 26160, Note_on_c, 3, 35, 75
7, 26187, Note_on_c, 3, 35, 0
7, 26220, Note_on_c, 3, 35, 65
7, 26280, Note_on_c, 3, 37, 68
7, 26282, Note_on_c, 3, 35, 0
7, 26331, Note_on_c, 3, 37, 0
7, 26340, Note_on_c, 3, 35, 75
7, 26388, Note_on_c, 3, 35, 0
7, 26400, Note_on_c, 3, 40, 75
7, 26464, Note_on_c, 3, 40, 0
7, 26940, Note_on_c, 3, 28, 68
7, 26990, Note_on_c, 3, 28, 0
7, 27000, Note_on_c, 3, 28, 67
7, 27050, Note_on_c, 3, 28, 0
7, 27060, Note_on_c, 3, 28, 67
7, 27110, Note_on_c, 3, 28, 0
7, 27120, Note_on_c, 3, 28, 67
7, 27170, Note_on_c, 3, 28, 0
7, 27180, Note_on_c, 3, 28, 66
7, 27230, Note_on_c, 3, 28, 0
7, 27240, Note_on_c, 3, 28, 66
7, 27290, Note_on_c, 3, 28, 0
7, 27300, Note_on_c, 3, 28, 65
7, 27350, Note_on_c, 3, 28, 0
7, 27360, Note_on_c, 3, 28, 67
7, 27410, Note_on_c, 3, 28, 0
7, 27840, Note_on_c, 3, 28, 75
7, 27951, Note_on_c, 3, 28, 0
7, 27960, Note_on_c, 3, 32, 68
7, 28079, Note_on_c, 3, 32, 0
7, 28080, Note_on_c, 3, 35, 72
7, 28182, Note_on_c, 3, 35, 0
7, 28200, Note_on_c, 3, 37, 67
7, 28260, Note_on_c, 3, 35, 75
7, 28264, Note_on_c, 3, 37, 0
7, 28308, Note_on_c, 3, 35, 0
7, 28320, Note_on_c, 3, 28, 68
7, 28435, Note_on_c, 3, 28, 0
7, 28440, Note_on_c, 3, 32, 67
7, 28559, Note_on_c, 3, 32, 0
7, 28560, Note_on_c, 3, 35, 69
7, 28665, Note_on_c, 3, 35, 0
7, 28680, Note_on_c, 3, 37, 67
7, 28732, Note_on_c, 3, 37, 0
7, 28740, Note_on_c, 3, 35, 75
7, 28791, Note_on_c, 3, 35, 0
7, 28800, Note_on_c, 3, 28, 69
7, 28920, Note_on_c, 3, 32, 75
7, 28925, Note_on_c, 3, 28, 0
7, 29037, Note_on_c, 3, 32, 0
7, 29040, Note_on_c, 3, 35, 75
7, 29148, Note_on_c, 3, 35, 0
7, 29160, Note_on_c, 3, 37, 67
7, 29220, Note_on_c, 3, 35, 75
7, 29223, Note_on_c, 3, 37, 0
7, 29266, Note_on_c, 3, 35, 0
7, 29280, Note_on_c, 3, 28, 67
7, 29400, Note_on_c, 3, 32, 72
7, 29402, Note_on_c, 3, 28, 0
7, 29517, Note_on_c, 3, 32, 0
7, 29520, Note_on_c, 3, 35, 75
7, 29637, Note_on_c, 3, 35, 0
7, 29640, Note_on_c, 3, 37, 63
7, 29695, Note_on_c, 3, 37, 0
7, 29700, Note_on_c, 3, 35, 75
7, 29752, Note_on_c, 3, 35, 0
7, 29760, Note_on_c, 3, 33, 72
7, 29877, Note_on_c, 3, 33, 0
7, 29880, Note_on_c, 3, 37, 75
7, 29996, Note_on_c, 3, 37, 0
7, 30000, Note_on_c, 3, 40, 75
7, 30113, Note_on_c, 3, 40, 0
7, 30120, Note_on_c, 3, 42, 65
7, 30180, Note_on_c, 3, 40, 59
7, 30181, Note_on_c, 3, 42, 0
7, 30220, Note_on_c, 3, 40, 0
7, 30240, Note_on_c, 3, 33, 75
7, 30352, Note_on_c, 3, 33, 0
7, 30360, Note_on_c, 3, 37, 69
7, 30474, Note_on_c, 3, 37, 0
7, 30480, Note_on_c, 3, 40, 69
7, 30600, Note_on_c, 3, 42, 68
7, 30605, Note_on_c, 3, 40, 0
7, 30660, Note_on_c, 3, 40, 63
7, 30661, Note_on_c, 3, 42, 0
7, 30696, Note_on_c, 3, 40, 0
7, 30720, Note_on_c, 3, 28, 68
7, 30837, Note_on_c, 3, 28, 0
7, 30840, Note_on_c, 3, 32, 75
7, 30960, Note_on_c, 3, 32, 0
7, 30960, Note_on_c, 3, 35, 75
7, 31077, Note_on_c, 3, 35, 0
7, 31080, Note_on_c, 3, 37, 63
7, 31140, Note_on_c, 3, 35, 75
7, 31141, Note_on_c, 3, 37, 0
7, 31187, Note_on_c, 3, 35, 0
7, 31200, Note_on_c, 3, 28, 69
7, 31316, Note_on_c, 3, 28, 0
7, 31320, Note_on_c, 3, 32, 65
7, 31437, Note_on_c, 3, 32, 0
7, 31440, Note_on_c, 3, 35, 75
7, 31560, Note_on_c, 3, 35, 0
7, 31560, Note_on_c, 3, 37, 66
7, 31620, Note_on_c, 3, 28, 75
7, 31633, Note_on_c, 3, 37, 0
7, 31657, Note_on_c, 3, 28, 0
7, 31680, Note_on_c, 3, 35, 67
7, 31792, Note_on_c, 3, 35, 0
7, 31800, Note_on_c, 3, 32, 67
7, 31911, Note_on_c, 3, 32, 0
7, 31920, Note_on_c, 3, 30, 66
7, 32026, Note_on_c, 3, 30, 0
7, 32040, Note_on_c, 3, 32, 69
7, 32100, Note_on_c, 3, 30, 68
7, 32109, Note_on_c, 3, 32, 0
7, 32156, Note_on_c, 3, 30, 0
7, 32160, Note_on_c, 3, 36, 65
7, 32274, Note_on_c, 3, 36, 0
7, 32280, Note_on_c, 3, 43, 63
7, 32340, Note_on_c, 3, 36, 61
7, 32354, Note_on_c, 3, 43, 0
7, 32400, Note_on_c, 3, 36, 0
7, 32400, Note_on_c, 3, 35, 75
7, 32507, Note_on_c, 3, 35, 0
7, 32520, Note_on_c, 3, 42, 65
7, 32579, Note_on_c, 3, 42, 0
7, 32580, Note_on_c, 3, 35, 67
7, 32616, Note_on_c, 3, 35, 0
7, 32640, Note_on_c, 3, 28, 75
7, 32750, Note_on_c, 3, 28, 0
7, 32760, Note_on_c, 3, 32, 67
7, 32880, Note_on_c, 3, 32, 0
7, 32880, Note_on_c, 3, 35, 69
7, 32989, Note_on_c, 3, 35, 0
7, 33000, Note_on_c, 3, 37, 66
7, 33058, Note_on_c, 3, 37, 0
7, 33060, Note_on_c, 3, 35, 75
7, 33114, Note_on_c, 3, 35, 0
7, 33120, Note_on_c, 3, 28, 66
7, 33229, Note_on_c, 3, 28, 0
7, 33240, Note_on_c, 3, 32, 66
7, 33358, Note_on_c, 3, 32, 0
7, 33360, Note_on_c, 3, 35, 75
7, 33480, Note_on_c, 3, 37, 75
7, 33481, Note_on_c, 3, 35, 0
7, 33576, Note_on_c, 3, 37, 0
7, 33600, Note_on_c, 3, 28, 72
7, 33719, Note_on_c, 3, 28, 0
7, 33720, Note_on_c, 3, 32, 68
7, 33840, Note_on_c, 3, 32, 0
7, 33840, Note_on_c, 3, 35, 67
7, 33870, Note_on_c, 3, 35, 0
7, 33900, Note_on_c, 3, 35, 65
7, 33960, Note_on_c, 3, 35, 0
7, 33960, Note_on_c, 3, 37, 63
7, 34020, Note_on_c, 3, 37, 0
7, 34020, Note_on_c, 3, 35, 65
7, 34080, Note_on_c, 3, 35, 0
7, 34080, Note_on_c, 3, 28, 68
7, 34196, Note_on_c, 3, 28, 0
7, 34200, Note_on_c, 3, 32, 66
7, 34320, Note_on_c, 3, 35, 67
7, 34324, Note_on_c, 3, 32, 0
7, 34354, Note_on_c, 3, 35, 0
7, 34380, Note_on_c, 3, 35, 66
7, 34440, Note_on_c, 3, 35, 0
7, 34440, Note_on_c, 3, 37, 66
7, 34500, Note_on_c, 3, 37, 0
7, 34500, Note_on_c, 3, 35, 66
7, 34551, Note_on_c, 3, 35, 0
7, 34560, Note_on_c, 3, 28, 66
7, 34677, Note_on_c, 3, 28, 0
7, 34680, Note_on_c, 3, 32, 67
7, 34796, Note_on_c, 3, 32, 0
7, 34800, Note_on_c, 3, 35, 63
7, 34820, Note_on_c, 3, 35, 0
7, 34860, Note_on_c, 3, 35, 66
7, 34920, Note_on_c, 3, 37, 66
7, 34929, Note_on_c, 3, 35, 0
7, 34980, Note_on_c, 3, 35, 66
7, 34990, Note_on_c, 3, 37, 0
7, 35040, Note_on_c, 3, 35, 0
7, 35040, Note_on_c, 3, 28, 69
7, 35150, Note_on_c, 3, 28, 0
7, 35160, Note_on_c, 3, 32, 68
7, 35280, Note_on_c, 3, 35, 67
7, 35288, Note_on_c, 3, 32, 0
7, 35313, Note_on_c, 3, 35, 0
7, 35340, Note_on_c, 3, 35, 67
7, 35400, Note_on_c, 3, 37, 65
7, 35406, Note_on_c, 3, 35, 0
7, 35460, Note_on_c, 3, 35, 68
7, 35469, Note_on_c, 3, 37, 0
7, 35520, Note_on_c, 3, 35, 0
7, 35520, Note_on_c, 3, 33, 58
7, 35629, Note_on_c, 3, 33, 0
7, 35640, Note_on_c, 3, 37, 65
7, 35757, Note_on_c, 3, 37, 0
7, 35760, Note_on_c, 3, 40, 63
7, 35796, Note_on_c, 3, 40, 0
7, 35820, Note_on_c, 3, 40, 63
7, 35880, Note_on_c, 3, 42, 65
7, 35890, Note_on_c, 3, 40, 0
7, 35940, Note_on_c, 3, 42, 0
7, 35940, Note_on_c, 3, 40, 63
7, 35996, Note_on_c, 3, 40, 0
7, 36000, Note_on_c, 3, 33, 59
7, 36117, Note_on_c, 3, 33, 0
7, 36120, Note_on_c, 3, 37, 68
7, 36235, Note_on_c, 3, 37, 0
7, 36240, Note_on_c, 3, 40, 63
7, 36275, Note_on_c, 3, 40, 0
7, 36300, Note_on_c, 3, 40, 63
7, 36360, Note_on_c, 3, 42, 67
7, 36369, Note_on_c, 3, 40, 0
7, 36420, Note_on_c, 3, 40, 61
7, 36424, Note_on_c, 3, 42, 0
7, 36455, Note_on_c, 3, 40, 0
7, 36480, Note_on_c, 3, 28, 67
7, 36597, Note_on_c, 3, 28, 0
7, 36600, Note_on_c, 3, 32, 67
7, 36720, Note_on_c, 3, 32, 0
7, 36720, Note_on_c, 3, 35, 69
7, 36749, Note_on_c, 3, 35, 0
7, 36780, Note_on_c, 3, 35, 63
7, 36840, Note_on_c, 3, 37, 68
7, 36852, Note_on_c, 3, 35, 0
7, 36900, Note_on_c, 3, 37, 0
7, 36900, Note_on_c, 3, 35, 66
7, 36960, Note_on_c, 3, 35, 0
7, 36960, Note_on_c, 3, 28, 72
7, 37075, Note_on_c, 3, 28, 0
7, 37080, Note_on_c, 3, 32, 67
7, 37200, Note_on_c, 3, 35, 69
7, 37202, Note_on_c, 3, 32, 0
7, 37230, Note_on_c, 3, 35, 0
7, 37260, Note_on_c, 3, 35, 67
7, 37320, Note_on_c, 3, 37, 67
7, 37329, Note_on_c, 3, 35, 0
7, 37379, Note_on_c, 3, 37, 0
7, 37380, Note_on_c, 3, 33, 75
7, 37440, Note_on_c, 3, 33, 0
7, 37440, Note_on_c, 3, 35, 69
7, 37559, Note_on_c, 3, 35, 0
7, 37560, Note_on_c, 3, 32, 63
7, 37677, Note_on_c, 3, 32, 0
7, 37680, Note_on_c, 3, 30, 68
7, 37723, Note_on_c, 3, 30, 0
7, 37740, Note_on_c, 3, 30, 59
7, 37800, Note_on_c, 3, 30, 0
7, 37800, Note_on_c, 3, 32, 75
7, 37860, Note_on_c, 3, 32, 0
7, 37860, Note_on_c, 3, 30, 58
7, 37917, Note_on_c, 3, 30, 0
7, 37920, Note_on_c, 3, 36, 75
7, 38024, Note_on_c, 3, 36, 0
7, 38040, Note_on_c, 3, 36, 68
7, 38150, Note_on_c, 3, 36, 0
7, 38160, Note_on_c, 3, 35, 68
7, 38257, Note_on_c, 3, 35, 0
7, 38280, Note_on_c, 3, 35, 75
7, 38340, Note_on_c, 3, 30, 63
7, 38348, Note_on_c, 3, 35, 0
7, 38391, Note_on_c, 3, 30, 0
7, 38400, Note_on_c, 3, 28, 65
7, 38507, Note_on_c, 3, 28, 0
7, 38520, Note_on_c, 3, 32, 69
7, 38640, Note_on_c, 3, 35, 69
7, 38644, Note_on_c, 3, 32, 0
7, 38671, Note_on_c, 3, 35, 0
7, 38700, Note_on_c, 3, 35, 67
7, 38760, Note_on_c, 3, 37, 65
7, 38761, Note_on_c, 3, 35, 0
7, 38820, Note_on_c, 3, 37, 0
7, 38820, Note_on_c, 3, 35, 66
7, 38880, Note_on_c, 3, 35, 0
7, 38880, Note_on_c, 3, 28, 68
7, 38997, Note_on_c, 3, 28, 0
7, 39000, Note_on_c, 3, 32, 75
7, 39116, Note_on_c, 3, 32, 0
7, 39120, Note_on_c, 3, 35, 75
7, 39229, Note_on_c, 3, 35, 0
7, 39240, Note_on_c, 3, 37, 69
7, 39339, Note_on_c, 3, 37, 0
7, 39360, Note_on_c, 3, 28, 69
7, 39472, Note_on_c, 3, 28, 0
7, 39480, Note_on_c, 3, 32, 75
7, 39600, Note_on_c, 3, 35, 75
7, 39603, Note_on_c, 3, 32, 0
7, 39625, Note_on_c, 3, 35, 0
7, 39660, Note_on_c, 3, 35, 69
7, 39720, Note_on_c, 3, 35, 0
7, 39720, Note_on_c, 3, 37, 75
7, 39780, Note_on_c, 3, 37, 0
7, 39780, Note_on_c, 3, 35, 69
7, 39832, Note_on_c, 3, 35, 0
7, 39840, Note_on_c, 3, 28, 75
7, 39996, Note_on_c, 3, 28, 0
7, 40020, Note_on_c, 3, 32, 75
7, 40132, Note_on_c, 3, 32, 0
7, 40140, Note_on_c, 3, 37, 67
7, 40195, Note_on_c, 3, 37, 0
7, 40200, Note_on_c, 3, 35, 75
7, 40303, Note_on_c, 3, 35, 0
7, 40320, Note_on_c, 3, 28, 68
7, 40435, Note_on_c, 3, 28, 0
7, 40440, Note_on_c, 3, 32, 75
7, 40556, Note_on_c, 3, 32, 0
7, 40560, Note_on_c, 3, 35, 69
7, 40583, Note_on_c, 3, 35, 0
7, 40620, Note_on_c, 3, 35, 75
7, 40680, Note_on_c, 3, 37, 72
7, 40686, Note_on_c, 3, 35, 0
7, 40740, Note_on_c, 3, 35, 72
7, 40752, Note_on_c, 3, 37, 0
7, 40794, Note_on_c, 3, 35, 0
7, 40800, Note_on_c, 3, 28, 68
7, 40937, Note_on_c, 3, 28, 0
7, 40980, Note_on_c, 3, 32, 72
7, 41086, Note_on_c, 3, 32, 0
7, 41100, Note_on_c, 3, 35, 75
7, 41156, Note_on_c, 3, 35, 0
7, 41160, Note_on_c, 3, 37, 65
7, 41247, Note_on_c, 3, 37, 0
7, 41280, Note_on_c, 3, 28, 72
7, 41400, Note_on_c, 3, 32, 72
7, 41407, Note_on_c, 3, 28, 0
7, 41520, Note_on_c, 3, 35, 72
7, 41524, Note_on_c, 3, 32, 0
7, 41545, Note_on_c, 3, 35, 0
7, 41580, Note_on_c, 3, 35, 75
7, 41640, Note_on_c, 3, 37, 68
7, 41644, Note_on_c, 3, 35, 0
7, 41700, Note_on_c, 3, 35, 65
7, 41705, Note_on_c, 3, 37, 0
7, 41749, Note_on_c, 3, 35, 0
7, 41760, Note_on_c, 3, 28, 68
7, 41877, Note_on_c, 3, 28, 0
7, 41880, Note_on_c, 3, 32, 75
7, 41996, Note_on_c, 3, 32, 0
7, 42000, Note_on_c, 3, 35, 75
7, 42027, Note_on_c, 3, 35, 0
7, 42060, Note_on_c, 3, 35, 65
7, 42120, Note_on_c, 3, 37, 68
7, 42122, Note_on_c, 3, 35, 0
7, 42171, Note_on_c, 3, 37, 0
7, 42180, Note_on_c, 3, 35, 75
7, 42228, Note_on_c, 3, 35, 0
7, 42240, Note_on_c, 3, 40, 75
7, 42304, Note_on_c, 3, 40, 0
7, 42780, Note_on_c, 3, 28, 68
7, 42830, Note_on_c, 3, 28, 0
7, 42840, Note_on_c, 3, 28, 67
7, 42890, Note_on_c, 3, 28, 0
7, 42900, Note_on_c, 3, 28, 67
7, 42950, Note_on_c, 3, 28, 0
7, 42960, Note_on_c, 3, 28, 67
7, 43010, Note_on_c, 3, 28, 0
7, 43020, Note_on_c, 3, 28, 66
7, 43070, Note_on_c, 3, 28, 0
7, 43080, Note_on_c, 3, 28, 66
7, 43130, Note_on_c, 3, 28, 0
7, 43140, Note_on_c, 3, 28, 65
7, 43190, Note_on_c, 3, 28, 0
7, 43200, Note_on_c, 3, 28, 67
7, 43250, Note_on_c, 3, 28, 0
7, 43680, Note_on_c, 3, 28, 75
7, 43791, Note_on_c, 3, 28, 0
7, 43800, Note_on_c, 3, 32, 68
7, 43919, Note_on_c, 3, 32, 0
7, 43920, Note_on_c, 3, 35, 72
7, 44022, Note_on_c, 3, 35, 0
7, 44040, Note_on_c, 3, 37, 67
7, 44100, Note_on_c, 3, 35, 75
7, 44104, Note_on_c, 3, 37, 0
7, 44148, Note_on_c, 3, 35, 0
7, 44160, Note_on_c, 3, 28, 68
7, 44275, Note_on_c, 3, 28, 0
7, 44280, Note_on_c, 3, 32, 67
7, 44399, Note_on_c, 3, 32, 0
7, 44400, Note_on_c, 3, 35, 69
7, 44505, Note_on_c, 3, 35, 0
7, 44520, Note_on_c, 3, 37, 67
7, 44572, Note_on_c, 3, 37, 0
7, 44580, Note_on_c, 3, 35, 75
7, 44631, Note_on_c, 3, 35, 0
7, 44640, Note_on_c, 3, 28, 69
7, 44760, Note_on_c, 3, 32, 75
7, 44765, Note_on_c, 3, 28, 0
7, 44877, Note_on_c, 3, 32, 0
7, 44880, Note_on_c, 3, 35, 75
7, 44988, Note_on_c, 3, 35, 0
7, 45000, Note_on_c, 3, 37, 67
7, 45060, Note_on_c, 3, 35, 75
7, 45063, Note_on_c, 3, 37, 0
7, 45106, Note_on_c, 3, 35, 0
7, 45120, Note_on_c, 3, 28, 67
7, 45240, Note_on_c, 3, 32, 72
7, 45242, Note_on_c, 3, 28, 0
7, 45357, Note_on_c, 3, 32, 0
7, 45360, Note_on_c, 3, 35, 75
7, 45477, Note_on_c, 3, 35, 0
7, 45480, Note_on_c, 3, 37, 63
7, 45535, Note_on_c, 3, 37, 0
7, 45540, Note_on_c, 3, 35, 75
7, 45592, Note_on_c, 3, 35, 0
7, 45600, Note_on_c, 3, 33, 72
7, 45717, Note_on_c, 3, 33, 0
7, 45720, Note_on_c, 3, 37, 75
7, 45836, Note_on_c, 3, 37, 0
7, 45840, Note_on_c, 3, 40, 75
7, 45953, Note_on_c, 3, 40, 0
7, 45960, Note_on_c, 3, 42, 65
7, 46020, Note_on_c, 3, 40, 59
7, 46021, Note_on_c, 3, 42, 0
7, 46060, Note_on_c, 3, 40, 0
7, 46080, Note_on_c, 3, 33, 75
7, 46192, Note_on_c, 3, 33, 0
7, 46200, Note_on_c, 3, 37, 69
7, 46314, Note_on_c, 3, 37, 0
7, 46320, Note_on_c, 3, 40, 69
7, 46440, Note_on_c, 3, 42, 68
7, 46445, Note_on_c, 3, 40, 0
7, 46500, Note_on_c, 3, 40, 63
7, 46501, Note_on_c, 3, 42, 0
7, 46536, Note_on_c, 3, 40, 0
7, 46560, Note_on_c, 3, 28, 68
7, 46677, Note_on_c, 3, 28, 0
7, 46680, Note_on_c, 3, 32, 75
7, 46800, Note_on_c, 3, 32, 0
7, 46800, Note_on_c, 3, 35, 75
7, 46917, Note_on_c, 3, 35, 0
7, 46920, Note_on_c, 3, 37, 63
7, 46980, Note_on_c, 3, 35, 75
7, 46981, Note_on_c, 3, 37, 0
7, 47027, Note_on_c, 3, 35, 0
7, 47040, Note_on_c, 3, 28, 69
7, 47156, Note_on_c, 3, 28, 0
7, 47160, Note_on_c, 3, 32, 65
7, 47277, Note_on_c, 3, 32, 0
7, 47280, Note_on_c, 3, 35, 75
7, 47400, Note_on_c, 3, 35, 0
7, 47400, Note_on_c, 3, 37, 66
7, 47460, Note_on_c, 3, 28, 75
7, 47473, Note_on_c, 3, 37, 0
7, 47497, Note_on_c, 3, 28, 0
7, 47520, Note_on_c, 3, 35, 67
7, 47632, Note_on_c, 3, 35, 0
7, 47640, Note_on_c, 3, 32, 67
7, 47751, Note_on_c, 3, 32, 0
7, 47760, Note_on_c, 3, 30, 66
7, 47866, Note_on_c, 3, 30, 0
7, 47880, Note_on_c, 3, 32, 69
7, 47940, Note_on_c, 3, 32, 0
7, 47940, Note_on_c, 3, 30, 68
7, 47996, Note_on_c, 3, 30, 0
7, 48000, Note_on_c, 3, 36, 65
7, 48114, Note_on_c, 3, 36, 0
7, 48120, Note_on_c, 3, 43, 63
7, 48180, Note_on_c, 3, 36, 61
7, 48194, Note_on_c, 3, 43, 0
7, 48240, Note_on_c, 3, 36, 0
7, 48240, Note_on_c, 3, 35, 75
7, 48347, Note_on_c, 3, 35, 0
7, 48360, Note_on_c, 3, 42, 65
7, 48419, Note_on_c, 3, 42, 0
7, 48420, Note_on_c, 3, 35, 67
7, 48456, Note_on_c, 3, 35, 0
7, 48480, Note_on_c, 3, 28, 75
7, 48591, Note_on_c, 3, 28, 0
7, 48600, Note_on_c, 3, 32, 68
7, 48720, Note_on_c, 3, 35, 75
7, 48725, Note_on_c, 3, 32, 0
7, 48835, Note_on_c, 3, 35, 0
7, 48840, Note_on_c, 3, 37, 69
7, 48900, Note_on_c, 3, 37, 0
7, 48900, Note_on_c, 3, 35, 75
7, 48960, Note_on_c, 3, 35, 0
7, 48960, Note_on_c, 3, 28, 75
7, 49071, Note_on_c, 3, 28, 0
7, 49080, Note_on_c, 3, 32, 68
7, 49200, Note_on_c, 3, 35, 75
7, 49205, Note_on_c, 3, 32, 0
7, 49315, Note_on_c, 3, 35, 0
7, 49320, Note_on_c, 3, 37, 69
7, 49380, Note_on_c, 3, 37, 0
7, 49380, Note_on_c, 3, 33, 75
7, 49440, Note_on_c, 3, 33, 0
7, 49440, Note_on_c, 3, 35, 67
7, 49552, Note_on_c, 3, 35, 0
7, 49560, Note_on_c, 3, 32, 67
7, 49671, Note_on_c, 3, 32, 0
7, 49680, Note_on_c, 3, 30, 66
7, 49786, Note_on_c, 3, 30, 0
7, 49800, Note_on_c, 3, 32, 69
7, 49860, Note_on_c, 3, 32, 0
7, 49860, Note_on_c, 3, 30, 68
7, 49916, Note_on_c, 3, 30, 0
7, 49920, Note_on_c, 3, 36, 65
7, 50034, Note_on_c, 3, 36, 0
7, 50040, Note_on_c, 3, 43, 63
7, 50100, Note_on_c, 3, 36, 61
7, 50114, Note_on_c, 3, 43, 0
7, 50160, Note_on_c, 3, 36, 0
7, 50160, Note_on_c, 3, 35, 75
7, 50267, Note_on_c, 3, 35, 0
7, 50280, Note_on_c, 3, 42, 65
7, 50339, Note_on_c, 3, 42, 0
7, 50340, Note_on_c, 3, 35, 67
7, 50376, Note_on_c, 3, 35, 0
7, 50400, Note_on_c, 3, 28, 75
7, 50511, Note_on_c, 3, 28, 0
7, 50520, Note_on_c, 3, 32, 68
7, 50640, Note_on_c, 3, 35, 75
7, 50645, Note_on_c, 3, 32, 0
7, 50755, Note_on_c, 3, 35, 0
7, 50760, Note_on_c, 3, 37, 69
7, 50879, Note_on_c, 3, 37, 0
7, 50880, Note_on_c, 3, 40, 67
7, 51000, Note_on_c, 3, 40, 0
7, 51000, Note_on_c, 3, 38, 75
7, 51105, Note_on_c, 3, 38, 0
7, 51120, Note_on_c, 3, 37, 75
7, 51219, Note_on_c, 3, 37, 0
7, 51240, Note_on_c, 3, 35, 68
7, 51300, Note_on_c, 3, 37, 75
7, 51303, Note_on_c, 3, 35, 0
7, 51359, Note_on_c, 3, 37, 0
7, 51360, Note_on_c, 3, 35, 67
7, 51472, Note_on_c, 3, 35, 0
7, 51480, Note_on_c, 3, 32, 67
7, 51591, Note_on_c, 3, 32, 0
7, 51600, Note_on_c, 3, 30, 66
7, 51706, Note_on_c, 3, 30, 0
7, 51720, Note_on_c, 3, 32, 69
7, 51780, Note_on_c, 3, 30, 68
7, 51789, Note_on_c, 3, 32, 0
7, 51836, Note_on_c, 3, 30, 0
7, 51840, Note_on_c, 3, 36, 65
7, 51954, Note_on_c, 3, 36, 0
7, 51960, Note_on_c, 3, 43, 63
7, 52020, Note_on_c, 3, 36, 61
7, 52034, Note_on_c, 3, 43, 0
7, 52080, Note_on_c, 3, 36, 0
7, 52080, Note_on_c, 3, 35, 75
7, 52187, Note_on_c, 3, 35, 0
7, 52200, Note_on_c, 3, 42, 65
7, 52259, Note_on_c, 3, 42, 0
7, 52260, Note_on_c, 3, 35, 67
7, 52296, Note_on_c, 3, 35, 0
7, 52380, Note_on_c, 3, 28, 68
7, 52430, Note_on_c, 3, 28, 0
7, 52440, Note_on_c, 3, 28, 67
7, 52490, Note_on_c, 3, 28, 0
7, 52500, Note_on_c, 3, 28, 67
7, 52550, Note_on_c, 3, 28, 0
7, 52560, Note_on_c, 3, 28, 67
7, 52610, Note_on_c, 3, 28, 0
7, 52620, Note_on_c, 3, 28, 66
7, 52670, Note_on_c, 3, 28, 0
7, 52680, Note_on_c, 3, 28, 66
7, 52730, Note_on_c, 3, 28, 0
7, 52740, Note_on_c, 3, 28, 65
7, 52790, Note_on_c, 3, 28, 0
7, 52800, Note_on_c, 3, 28, 67
7, 52850, Note_on_c, 3, 28, 0
7, 52850, End_track
8, 0, Start_track
8, 0, MIDI_port, 0
8, 0, Program_c, 4, 26
8, 0, Control_c, 4, 0, 0
8, 136, Control_c, 4, 7, 102
8, 136, Control_c, 4, 10, 59
8, 540, Control_c, 4, 11, 127
8, 540, Control_c, 4, 91, 55
8, 540, Control_c, 4, 93, 33
8, 1020, Note_on_c, 4, 59, 106
8, 1020, Note_on_c, 4, 52, 106
8, 1020, Note_on_c, 4, 64, 106
8, 1065, Note_on_c, 4, 64, 0
8, 1065, Note_on_c, 4, 52, 0
8, 1065, Note_on_c, 4, 59, 0
8, 1080, Note_on_c, 4, 59, 106
8, 1080, Note_on_c, 4, 52, 106
8, 1080, Note_on_c, 4, 64, 106
8, 1125, Note_on_c, 4, 64, 0
8, 1125, Note_on_c, 4, 52, 0
8, 1125, Note_on_c, 4, 59, 0
8, 1140, Note_on_c, 4, 52, 106
8, 1140, Note_on_c, 4, 59, 106
8, 1140, Note_on_c, 4, 64, 106
8, 1185, Note_on_c, 4, 64, 0
8, 1185, Note_on_c, 4, 59, 0
8, 1185, Note_on_c, 4, 52, 0
8, 1200, Note_on_c, 4, 52, 106
8, 1200, Note_on_c, 4, 59, 106
8, 1200, Note_on_c, 4, 64, 106
8, 1245, Note_on_c, 4, 64, 0
8, 1245, Note_on_c, 4, 59, 0
8, 1245, Note_on_c, 4, 52, 0
8, 1260, Note_on_c, 4, 52, 106
8, 1260, Note_on_c, 4, 59, 106
8, 1260, Note_on_c, 4, 64, 103
8, 1305, Note_on_c, 4, 64, 0
8, 1305, Note_on_c, 4, 59, 0
8, 1305, Note_on_c, 4, 52, 0
8, 1320, Note_on_c, 4, 52, 106
8, 1320, Note_on_c, 4, 64, 103
8, 1320, Note_on_c, 4, 59, 106
8, 1365, Note_on_c, 4, 59, 0
8, 1365, Note_on_c, 4, 64, 0
8, 1365, Note_on_c, 4, 52, 0
8, 1380, Note_on_c, 4, 64, 103
8, 1380, Note_on_c, 4, 52, 106
8, 1380, Note_on_c, 4, 59, 106
8, 1425, Note_on_c, 4, 59, 0
8, 1425, Note_on_c, 4, 52, 0
8, 1425, Note_on_c, 4, 64, 0
8, 1440, Note_on_c, 4, 59, 106
8, 1440, Note_on_c, 4, 64, 103
8, 1440, Note_on_c, 4, 52, 106
8, 1485, Note_on_c, 4, 52, 0
8, 1485, Note_on_c, 4, 64, 0
8, 1485, Note_on_c, 4, 59, 0
8, 1796, Pitch_bend_c, 4, 0
8, 1980, Note_on_c, 4, 68, 106
8, 2018, Pitch_bend_c, 4, 3844
8, 2022, Pitch_bend_c, 4, 3905
8, 2025, Pitch_bend_c, 4, 3957
8, 2028, Pitch_bend_c, 4, 4009
8, 2030, Pitch_bend_c, 4, 4044
8, 2031, Pitch_bend_c, 4, 4070
8, 2033, Pitch_bend_c, 4, 4096
8, 2097, Note_on_c, 4, 68, 0
8, 2100, Note_on_c, 4, 64, 103
8, 2105, Pitch_bend_c, 4, 8192
8, 2159, Note_on_c, 4, 64, 0
8, 2160, Note_on_c, 4, 61, 106
8, 2214, Note_on_c, 4, 61, 0
8, 2220, Note_on_c, 4, 59, 85
8, 2265, Note_on_c, 4, 59, 0
8, 2280, Note_on_c, 4, 54, 91
8, 2287, Pitch_bend_c, 4, 8452
8, 2291, Pitch_bend_c, 4, 9622
8, 2292, Pitch_bend_c, 4, 10272
8, 2294, Pitch_bend_c, 4, 10922
8, 2296, Pitch_bend_c, 4, 11572
8, 2297, Pitch_bend_c, 4, 12222
8, 2299, Pitch_bend_c, 4, 12872
8, 2300, Pitch_bend_c, 4, 13522
8, 2302, Pitch_bend_c, 4, 14172
8, 2304, Pitch_bend_c, 4, 14822
8, 2307, Pitch_bend_c, 4, 15862
8, 2309, Pitch_bend_c, 4, 16382
8, 2328, Pitch_bend_c, 4, 15342
8, 2330, Pitch_bend_c, 4, 12612
8, 2332, Pitch_bend_c, 4, 8192
8, 2340, Note_on_c, 4, 52, 103
8, 2354, Note_on_c, 4, 54, 0
8, 2396, Note_on_c, 4, 52, 0
8, 2400, Note_on_c, 4, 64, 106
8, 2760, Note_on_c, 4, 64, 0
8, 2872, Pitch_bend_c, 4, 0
8, 2940, Note_on_c, 4, 68, 106
8, 2972, Pitch_bend_c, 4, 3075
8, 2975, Pitch_bend_c, 4, 3168
8, 2978, Pitch_bend_c, 4, 3261
8, 2981, Pitch_bend_c, 4, 3369
8, 2984, Pitch_bend_c, 4, 3462
8, 2987, Pitch_bend_c, 4, 3555
8, 2991, Pitch_bend_c, 4, 3663
8, 2994, Pitch_bend_c, 4, 3755
8, 2997, Pitch_bend_c, 4, 3864
8, 3000, Pitch_bend_c, 4, 3956
8, 3003, Pitch_bend_c, 4, 4049
8, 3005, Pitch_bend_c, 4, 4096
8, 3058, Note_on_c, 4, 68, 0
8, 3060, Note_on_c, 4, 64, 106
8, 3076, Pitch_bend_c, 4, 8192
8, 3110, Note_on_c, 4, 64, 0
8, 3120, Note_on_c, 4, 61, 106
8, 3170, Note_on_c, 4, 61, 0
8, 3180, Note_on_c, 4, 59, 91
8, 3231, Note_on_c, 4, 59, 0
8, 3240, Note_on_c, 4, 54, 106
8, 3254, Pitch_bend_c, 4, 8582
8, 3256, Pitch_bend_c, 4, 9232
8, 3259, Pitch_bend_c, 4, 10402
8, 3260, Pitch_bend_c, 4, 11182
8, 3262, Pitch_bend_c, 4, 11962
8, 3264, Pitch_bend_c, 4, 12612
8, 3265, Pitch_bend_c, 4, 13392
8, 3267, Pitch_bend_c, 4, 14302
8, 3268, Pitch_bend_c, 4, 15082
8, 3270, Pitch_bend_c, 4, 15732
8, 3272, Pitch_bend_c, 4, 16382
8, 3295, Pitch_bend_c, 4, 13652
8, 3297, Pitch_bend_c, 4, 9492
8, 3299, Pitch_bend_c, 4, 8192
8, 3300, Note_on_c, 4, 52, 106
8, 3315, Note_on_c, 4, 54, 0
8, 3356, Note_on_c, 4, 52, 0
8, 3360, Note_on_c, 4, 64, 106
8, 3700, Note_on_c, 4, 64, 0
8, 4080, Note_on_c, 4, 61, 106
8, 4080, Note_on_c, 4, 64, 106
8, 4080, Note_on_c, 4, 55, 106
8, 4096, Note_on_c, 4, 64, 0
8, 4096, Note_on_c, 4, 61, 0
8, 4098, Note_on_c, 4, 55, 0
8, 4260, Note_on_c, 4, 55, 106
8, 4260, Note_on_c, 4, 61, 106
8, 4260, Note_on_c, 4, 64, 106
8, 4276, Note_on_c, 4, 64, 0
8, 4278, Note_on_c, 4, 61, 0
8, 4279, Note_on_c, 4, 55, 0
8, 4500, Note_on_c, 4, 61, 106
8, 4500, Note_on_c, 4, 55, 106
8, 4500, Note_on_c, 4, 64, 106
8, 4517, Note_on_c, 4, 64, 0
8, 4520, Note_on_c, 4, 55, 0
8, 4521, Note_on_c, 4, 61, 0
8, 4860, Note_on_c, 4, 52, 106
8, 4890, Note_on_c, 4, 52, 0
8, 4890, Note_on_c, 4, 50, 85
8, 4920, Note_on_c, 4, 50, 0
8, 4920, Note_on_c, 4, 52, 106
8, 4950, Note_on_c, 4, 52, 0
8, 4950, Note_on_c, 4, 50, 85
8, 4980, Note_on_c, 4, 50, 0
8, 4980, Note_on_c, 4, 52, 106
8, 5010, Note_on_c, 4, 52, 0
8, 5010, Note_on_c, 4, 50, 106
8, 5040, Note_on_c, 4, 50, 0
8, 5040, Note_on_c, 4, 52, 85
8, 5070, Note_on_c, 4, 52, 0
8, 5070, Note_on_c, 4, 50, 85
8, 5100, Note_on_c, 4, 50, 0
8, 5100, Note_on_c, 4, 52, 85
8, 5130, Note_on_c, 4, 52, 0
8, 5130, Note_on_c, 4, 50, 106
8, 5160, Note_on_c, 4, 50, 0
8, 5160, Note_on_c, 4, 52, 85
8, 5190, Note_on_c, 4, 52, 0
8, 5190, Note_on_c, 4, 50, 106
8, 5220, Note_on_c, 4, 50, 0
8, 5220, Note_on_c, 4, 52, 85
8, 5250, Note_on_c, 4, 52, 0
8, 5250, Note_on_c, 4, 50, 106
8, 5280, Note_on_c, 4, 50, 0
8, 5285, Note_on_c, 4, 45, 106
8, 5319, Pitch_bend_c, 4, 8452
8, 5322, Pitch_bend_c, 4, 9362
8, 5325, Pitch_bend_c, 4, 10272
8, 5328, Pitch_bend_c, 4, 11572
8, 5332, Pitch_bend_c, 4, 12742
8, 5333, Pitch_bend_c, 4, 13392
8, 5335, Pitch_bend_c, 4, 14042
8, 5337, Pitch_bend_c, 4, 14822
8, 5340, Pitch_bend_c, 4, 16122
8, 5342, Pitch_bend_c, 4, 16382
8, 5370, Pitch_bend_c, 4, 14952
8, 5371, Pitch_bend_c, 4, 13002
8, 5372, Pitch_bend_c, 4, 10272
8, 5374, Pitch_bend_c, 4, 8192
8, 5418, Note_on_c, 4, 45, 0
8, 5419, Note_on_c, 4, 43, 106
8, 5502, Note_on_c, 4, 43, 0
8, 5515, Note_on_c, 4, 52, 106
8, 5631, Note_on_c, 4, 52, 0
8, 5644, Note_on_c, 4, 43, 106
8, 5701, Note_on_c, 4, 43, 0
8, 5709, Note_on_c, 4, 40, 106
8, 5819, Note_on_c, 4, 40, 0
8, 5822, Note_on_c, 4, 57, 106
8, 5888, Note_on_c, 4, 59, 91
8, 5947, Note_on_c, 4, 63, 105
8, 6006, Note_on_c, 4, 66, 106
8, 6171, Note_on_c, 4, 59, 0
8, 6188, Note_on_c, 4, 57, 0
8, 6194, Note_on_c, 4, 63, 0
8, 6199, Note_on_c, 4, 66, 0
8, 6246, Note_on_c, 4, 58, 91
8, 6247, Note_on_c, 4, 64, 106
8, 6249, Note_on_c, 4, 67, 105
8, 6283, Pitch_bend_c, 4, 8842
8, 6285, Pitch_bend_c, 4, 9622
8, 6287, Pitch_bend_c, 4, 10272
8, 6288, Pitch_bend_c, 4, 11182
8, 6290, Pitch_bend_c, 4, 11962
8, 6292, Pitch_bend_c, 4, 12612
8, 6293, Pitch_bend_c, 4, 13262
8, 6295, Pitch_bend_c, 4, 14042
8, 6298, Pitch_bend_c, 4, 15082
8, 6301, Pitch_bend_c, 4, 15732
8, 6304, Pitch_bend_c, 4, 16122
8, 6313, Pitch_bend_c, 4, 15472
8, 6317, Pitch_bend_c, 4, 14822
8, 6318, Pitch_bend_c, 4, 13912
8, 6320, Pitch_bend_c, 4, 11962
8, 6322, Pitch_bend_c, 4, 8192
8, 6407, Note_on_c, 4, 64, 0
8, 6412, Note_on_c, 4, 67, 0
8, 6427, Note_on_c, 4, 58, 0
8, 6477, Note_on_c, 4, 57, 106
8, 6478, Pitch_bend_c, 4, 9362
8, 6479, Pitch_bend_c, 4, 10012
8, 6480, Note_on_c, 4, 64, 106
8, 6481, Pitch_bend_c, 4, 10662
8, 6483, Pitch_bend_c, 4, 11442
8, 6484, Pitch_bend_c, 4, 12222
8, 6485, Pitch_bend_c, 4, 13002
8, 6487, Pitch_bend_c, 4, 13912
8, 6489, Pitch_bend_c, 4, 14822
8, 6491, Pitch_bend_c, 4, 15602
8, 6494, Pitch_bend_c, 4, 16382
8, 6518, Note_on_c, 4, 57, 0
8, 6519, Pitch_bend_c, 4, 15212
8, 6520, Pitch_bend_c, 4, 12352
8, 6522, Pitch_bend_c, 4, 8192
8, 6542, Note_on_c, 4, 57, 106
8, 6594, Note_on_c, 4, 57, 0
8, 6601, Note_on_c, 4, 55, 106
8, 6706, Note_on_c, 4, 55, 0
8, 6720, Note_on_c, 4, 64, 0
8, 6730, Note_on_c, 4, 52, 106
8, 6780, Note_on_c, 4, 59, 106
8, 6815, Note_on_c, 4, 59, 0
8, 6833, Note_on_c, 4, 52, 0
8, 6840, Note_on_c, 4, 62, 106
8, 6891, Note_on_c, 4, 62, 0
8, 6900, Note_on_c, 4, 64, 106
8, 6952, Note_on_c, 4, 64, 0
8, 6960, Note_on_c, 4, 67, 105
8, 7042, Note_on_c, 4, 67, 0
8, 7049, Pitch_bend_c, 4, 8322
8, 7055, Pitch_bend_c, 4, 8972
8, 7062, Pitch_bend_c, 4, 9622
8, 7068, Pitch_bend_c, 4, 10402
8, 7073, Pitch_bend_c, 4, 11312
8, 7076, Pitch_bend_c, 4, 12092
8, 7079, Pitch_bend_c, 4, 12872
8, 7082, Pitch_bend_c, 4, 13782
8, 7087, Pitch_bend_c, 4, 14822
8, 7089, Pitch_bend_c, 4, 15732
8, 7090, Pitch_bend_c, 4, 16382
8, 7121, Pitch_bend_c, 4, 8192
8, 7144, Note_on_c, 4, 59, 106
8, 7176, Note_on_c, 4, 59, 0
8, 7209, Note_on_c, 4, 62, 106
8, 7247, Note_on_c, 4, 62, 0
8, 7263, Note_on_c, 4, 64, 106
8, 7299, Note_on_c, 4, 64, 0
8, 7323, Note_on_c, 4, 67, 106
8, 7336, Pitch_bend_c, 4, 8582
8, 7341, Pitch_bend_c, 4, 9362
8, 7346, Pitch_bend_c, 4, 10012
8, 7350, Pitch_bend_c, 4, 10792
8, 7355, Pitch_bend_c, 4, 11572
8, 7361, Pitch_bend_c, 4, 12222
8, 7364, Pitch_bend_c, 4, 13002
8, 7367, Pitch_bend_c, 4, 13782
8, 7370, Pitch_bend_c, 4, 14692
8, 7373, Pitch_bend_c, 4, 15732
8, 7375, Pitch_bend_c, 4, 16382
8, 7407, Note_on_c, 4, 67, 0
8, 7420, Pitch_bend_c, 4, 8192
8, 7448, Note_on_c, 4, 64, 106
8, 7671, Note_on_c, 4, 64, 0
8, 7680, Note_on_c, 4, 40, 105
8, 7680, Note_on_c, 4, 52, 105
8, 7701, Note_on_c, 4, 52, 0
8, 7701, Note_on_c, 4, 40, 0
8, 7860, Note_on_c, 4, 52, 105
8, 7860, Note_on_c, 4, 40, 105
8, 7880, Note_on_c, 4, 40, 0
8, 7883, Note_on_c, 4, 52, 0
8, 8040, Note_on_c, 4, 43, 106
8, 8141, Note_on_c, 4, 43, 0
8, 8160, Note_on_c, 4, 40, 91
8, 8160, Note_on_c, 4, 52, 78
8, 8179, Note_on_c, 4, 52, 0
8, 8180, Note_on_c, 4, 40, 0
8, 8340, Note_on_c, 4, 52, 105
8, 8340, Note_on_c, 4, 40, 105
8, 8359, Note_on_c, 4, 40, 0
8, 8362, Note_on_c, 4, 52, 0
8, 8520, Note_on_c, 4, 45, 91
8, 8574, Note_on_c, 4, 45, 0
8, 8580, Note_on_c, 4, 43, 78
8, 8624, Note_on_c, 4, 43, 0
8, 8640, Note_on_c, 4, 52, 106
8, 8640, Note_on_c, 4, 40, 105
8, 8662, Note_on_c, 4, 40, 0
8, 8662, Note_on_c, 4, 52, 0
8, 8820, Note_on_c, 4, 40, 106
8, 8820, Note_on_c, 4, 52, 106
8, 8839, Note_on_c, 4, 40, 0
8, 8840, Note_on_c, 4, 52, 0
8, 9000, Note_on_c, 4, 43, 106
8, 9102, Note_on_c, 4, 43, 0
8, 9120, Note_on_c, 4, 52, 106
8, 9120, Note_on_c, 4, 40, 105
8, 9139, Note_on_c, 4, 40, 0
8, 9141, Note_on_c, 4, 52, 0
8, 9300, Note_on_c, 4, 40, 106
8, 9300, Note_on_c, 4, 52, 106
8, 9320, Note_on_c, 4, 40, 0
8, 9321, Note_on_c, 4, 52, 0
8, 9420, Note_on_c, 4, 40, 106
8, 9440, Note_on_c, 4, 40, 0
8, 9480, Note_on_c, 4, 45, 106
8, 9520, Note_on_c, 4, 45, 0
8, 9540, Note_on_c, 4, 43, 106
8, 9590, Note_on_c, 4, 43, 0
8, 9600, Note_on_c, 4, 52, 106
8, 9600, Note_on_c, 4, 40, 106
8, 9625, Note_on_c, 4, 40, 0
8, 9626, Note_on_c, 4, 52, 0
8, 9780, Note_on_c, 4, 52, 106
8, 9780, Note_on_c, 4, 40, 106
8, 9801, Note_on_c, 4, 52, 0
8, 9805, Note_on_c, 4, 40, 0
8, 9900, Note_on_c, 4, 40, 100
8, 9916, Note_on_c, 4, 40, 0
8, 9960, Note_on_c, 4, 43, 106
8, 10054, Note_on_c, 4, 43, 0
8, 10080, Note_on_c, 4, 52, 106
8, 10080, Note_on_c, 4, 40, 106
8, 10100, Note_on_c, 4, 40, 0
8, 10100, Note_on_c, 4, 52, 0
8, 10260, Note_on_c, 4, 52, 106
8, 10260, Note_on_c, 4, 40, 106
8, 10277, Note_on_c, 4, 52, 0
8, 10280, Note_on_c, 4, 40, 0
8, 10380, Note_on_c, 4, 40, 100
8, 10400, Note_on_c, 4, 40, 0
8, 10440, Note_on_c, 4, 45, 106
8, 10490, Note_on_c, 4, 45, 0
8, 10500, Note_on_c, 4, 43, 91
8, 10550, Note_on_c, 4, 43, 0
8, 10560, Note_on_c, 4, 52, 106
8, 10590, Note_on_c, 4, 52, 0
8, 10590, Note_on_c, 4, 50, 105
8, 10620, Note_on_c, 4, 50, 0
8, 10620, Note_on_c, 4, 52, 85
8, 10650, Note_on_c, 4, 52, 0
8, 10650, Note_on_c, 4, 50, 85
8, 10680, Note_on_c, 4, 50, 0
8, 10680, Note_on_c, 4, 52, 106
8, 10710, Note_on_c, 4, 52, 0
8, 10710, Note_on_c, 4, 50, 56
8, 10740, Note_on_c, 4, 50, 0
8, 10740, Note_on_c, 4, 52, 91
8, 10770, Note_on_c, 4, 52, 0
8, 10770, Note_on_c, 4, 50, 73
8, 10800, Note_on_c, 4, 50, 0
8, 10800, Note_on_c, 4, 52, 106
8, 10830, Note_on_c, 4, 52, 0
8, 10830, Note_on_c, 4, 50, 85
8, 10860, Note_on_c, 4, 50, 0
8, 10860, Note_on_c, 4, 52, 105
8, 10890, Note_on_c, 4, 52, 0
8, 10890, Note_on_c, 4, 50, 66
8, 10920, Note_on_c, 4, 50, 0
8, 10920, Note_on_c, 4, 52, 91
8, 10950, Note_on_c, 4, 52, 0
8, 10950, Note_on_c, 4, 50, 73
8, 10980, Note_on_c, 4, 50, 0
8, 10980, Note_on_c, 4, 52, 105
8, 11010, Note_on_c, 4, 52, 0
8, 11100, Note_on_c, 4, 52, 106
8, 11100, Note_on_c, 4, 40, 106
8, 11100, Note_on_c, 4, 47, 106
8, 11138, Note_on_c, 4, 40, 0
8, 11139, Note_on_c, 4, 52, 0
8, 11142, Note_on_c, 4, 47, 0
8, 11160, Note_on_c, 4, 47, 106
8, 11160, Note_on_c, 4, 40, 106
8, 11160, Note_on_c, 4, 52, 106
8, 11205, Note_on_c, 4, 52, 0
8, 11205, Note_on_c, 4, 40, 0
8, 11205, Note_on_c, 4, 47, 0
8, 11220, Note_on_c, 4, 40, 106
8, 11220, Note_on_c, 4, 47, 106
8, 11220, Note_on_c, 4, 52, 106
8, 11265, Note_on_c, 4, 52, 0
8, 11265, Note_on_c, 4, 47, 0
8, 11265, Note_on_c, 4, 40, 0
8, 11280, Note_on_c, 4, 40, 106
8, 11280, Note_on_c, 4, 47, 106
8, 11280, Note_on_c, 4, 52, 106
8, 11325, Note_on_c, 4, 52, 0
8, 11325, Note_on_c, 4, 47, 0
8, 11325, Note_on_c, 4, 40, 0
8, 11340, Note_on_c, 4, 40, 106
8, 11340, Note_on_c, 4, 52, 106
8, 11340, Note_on_c, 4, 47, 106
8, 11385, Note_on_c, 4, 47, 0
8, 11385, Note_on_c, 4, 52, 0
8, 11385, Note_on_c, 4, 40, 0
8, 11400, Note_on_c, 4, 40, 106
8, 11400, Note_on_c, 4, 52, 106
8, 11400, Note_on_c, 4, 47, 106
8, 11445, Note_on_c, 4, 47, 0
8, 11445, Note_on_c, 4, 52, 0
8, 11445, Note_on_c, 4, 40, 0
8, 11460, Note_on_c, 4, 52, 106
8, 11460, Note_on_c, 4, 40, 106
8, 11460, Note_on_c, 4, 47, 106
8, 11505, Note_on_c, 4, 47, 0
8, 11505, Note_on_c, 4, 40, 0
8, 11505, Note_on_c, 4, 52, 0
8, 11520, Note_on_c, 4, 47, 106
8, 11520, Note_on_c, 4, 52, 106
8, 11520, Note_on_c, 4, 40, 106
8, 11565, Note_on_c, 4, 40, 0
8, 11565, Note_on_c, 4, 52, 0
8, 11565, Note_on_c, 4, 47, 0
8, 11876, Pitch_bend_c, 4, 0
8, 12060, Note_on_c, 4, 68, 106
8, 12098, Pitch_bend_c, 4, 3844
8, 12102, Pitch_bend_c, 4, 3905
8, 12105, Pitch_bend_c, 4, 3957
8, 12108, Pitch_bend_c, 4, 4009
8, 12110, Pitch_bend_c, 4, 4044
8, 12111, Pitch_bend_c, 4, 4070
8, 12113, Pitch_bend_c, 4, 4096
8, 12177, Note_on_c, 4, 68, 0
8, 12180, Note_on_c, 4, 64, 106
8, 12185, Pitch_bend_c, 4, 8192
8, 12239, Note_on_c, 4, 64, 0
8, 12240, Note_on_c, 4, 61, 106
8, 12294, Note_on_c, 4, 61, 0
8, 12300, Note_on_c, 4, 59, 86
8, 12345, Note_on_c, 4, 59, 0
8, 12360, Note_on_c, 4, 54, 91
8, 12367, Pitch_bend_c, 4, 8452
8, 12371, Pitch_bend_c, 4, 9622
8, 12372, Pitch_bend_c, 4, 10272
8, 12374, Pitch_bend_c, 4, 10922
8, 12376, Pitch_bend_c, 4, 11572
8, 12377, Pitch_bend_c, 4, 12222
8, 12379, Pitch_bend_c, 4, 12872
8, 12380, Pitch_bend_c, 4, 13522
8, 12382, Pitch_bend_c, 4, 14172
8, 12384, Pitch_bend_c, 4, 14822
8, 12387, Pitch_bend_c, 4, 15862
8, 12389, Pitch_bend_c, 4, 16382
8, 12408, Pitch_bend_c, 4, 15342
8, 12410, Pitch_bend_c, 4, 12612
8, 12412, Pitch_bend_c, 4, 8192
8, 12420, Note_on_c, 4, 52, 106
8, 12434, Note_on_c, 4, 54, 0
8, 12476, Note_on_c, 4, 52, 0
8, 12480, Note_on_c, 4, 64, 106
8, 12840, Note_on_c, 4, 64, 0
8, 12952, Pitch_bend_c, 4, 0
8, 13020, Note_on_c, 4, 68, 106
8, 13049, Pitch_bend_c, 4, 2983
8, 13053, Pitch_bend_c, 4, 3122
8, 13058, Pitch_bend_c, 4, 3261
8, 13061, Pitch_bend_c, 4, 3369
8, 13064, Pitch_bend_c, 4, 3462
8, 13067, Pitch_bend_c, 4, 3555
8, 13071, Pitch_bend_c, 4, 3663
8, 13074, Pitch_bend_c, 4, 3755
8, 13077, Pitch_bend_c, 4, 3864
8, 13080, Pitch_bend_c, 4, 3956
8, 13083, Pitch_bend_c, 4, 4049
8, 13085, Pitch_bend_c, 4, 4096
8, 13138, Note_on_c, 4, 68, 0
8, 13140, Note_on_c, 4, 64, 106
8, 13156, Pitch_bend_c, 4, 8192
8, 13190, Note_on_c, 4, 64, 0
8, 13200, Note_on_c, 4, 61, 106
8, 13250, Note_on_c, 4, 61, 0
8, 13260, Note_on_c, 4, 59, 91
8, 13311, Note_on_c, 4, 59, 0
8, 13320, Note_on_c, 4, 54, 106
8, 13334, Pitch_bend_c, 4, 8582
8, 13336, Pitch_bend_c, 4, 9232
8, 13339, Pitch_bend_c, 4, 10402
8, 13340, Pitch_bend_c, 4, 11182
8, 13342, Pitch_bend_c, 4, 11962
8, 13344, Pitch_bend_c, 4, 12612
8, 13345, Pitch_bend_c, 4, 13392
8, 13347, Pitch_bend_c, 4, 14302
8, 13348, Pitch_bend_c, 4, 15082
8, 13350, Pitch_bend_c, 4, 15732
8, 13352, Pitch_bend_c, 4, 16382
8, 13375, Pitch_bend_c, 4, 13652
8, 13377, Pitch_bend_c, 4, 9492
8, 13379, Pitch_bend_c, 4, 8192
8, 13380, Note_on_c, 4, 52, 106
8, 13395, Note_on_c, 4, 54, 0
8, 13436, Note_on_c, 4, 52, 0
8, 13440, Note_on_c, 4, 64, 106
8, 13780, Note_on_c, 4, 64, 0
8, 14160, Note_on_c, 4, 55, 106
8, 14160, Note_on_c, 4, 64, 106
8, 14160, Note_on_c, 4, 61, 106
8, 14176, Note_on_c, 4, 61, 0
8, 14176, Note_on_c, 4, 64, 0
8, 14178, Note_on_c, 4, 55, 0
8, 14340, Note_on_c, 4, 64, 106
8, 14340, Note_on_c, 4, 61, 106
8, 14340, Note_on_c, 4, 55, 106
8, 14356, Note_on_c, 4, 64, 0
8, 14358, Note_on_c, 4, 61, 0
8, 14359, Note_on_c, 4, 55, 0
8, 14580, Note_on_c, 4, 64, 106
8, 14580, Note_on_c, 4, 55, 106
8, 14580, Note_on_c, 4, 61, 106
8, 14597, Note_on_c, 4, 64, 0
8, 14600, Note_on_c, 4, 55, 0
8, 14601, Note_on_c, 4, 61, 0
8, 14945, Pitch_bend_c, 4, 8582
8, 14947, Note_on_c, 4, 67, 106
8, 14947, Pitch_bend_c, 4, 9752
8, 14951, Pitch_bend_c, 4, 11052
8, 14952, Pitch_bend_c, 4, 11702
8, 14954, Pitch_bend_c, 4, 12482
8, 14955, Pitch_bend_c, 4, 13262
8, 14957, Pitch_bend_c, 4, 13912
8, 14959, Pitch_bend_c, 4, 14692
8, 14960, Pitch_bend_c, 4, 15342
8, 14962, Pitch_bend_c, 4, 16382
8, 15054, Pitch_bend_c, 4, 14172
8, 15055, Pitch_bend_c, 4, 10792
8, 15057, Pitch_bend_c, 4, 8192
8, 15119, Note_on_c, 4, 67, 0
8, 15125, Note_on_c, 4, 64, 106
8, 15180, Note_on_c, 4, 64, 0
8, 15185, Note_on_c, 4, 62, 106
8, 15241, Note_on_c, 4, 62, 0
8, 15244, Note_on_c, 4, 59, 106
8, 15299, Note_on_c, 4, 59, 0
8, 15302, Note_on_c, 4, 57, 106
8, 15360, Note_on_c, 4, 57, 0
8, 15367, Note_on_c, 4, 55, 106
8, 15391, Pitch_bend_c, 4, 8452
8, 15395, Pitch_bend_c, 4, 9232
8, 15397, Pitch_bend_c, 4, 10012
8, 15401, Pitch_bend_c, 4, 10792
8, 15404, Pitch_bend_c, 4, 11572
8, 15407, Pitch_bend_c, 4, 12352
8, 15411, Pitch_bend_c, 4, 13132
8, 15414, Pitch_bend_c, 4, 13912
8, 15417, Pitch_bend_c, 4, 14822
8, 15420, Pitch_bend_c, 4, 15732
8, 15422, Pitch_bend_c, 4, 16382
8, 15457, Pitch_bend_c, 4, 8192
8, 15486, Note_on_c, 4, 64, 106
8, 15487, Note_on_c, 4, 55, 0
8, 15553, Note_on_c, 4, 64, 0
8, 15564, Note_on_c, 4, 62, 106
8, 15565, Pitch_bend_c, 4, 8712
8, 15569, Pitch_bend_c, 4, 9492
8, 15572, Pitch_bend_c, 4, 10142
8, 15575, Pitch_bend_c, 4, 11052
8, 15581, Pitch_bend_c, 4, 12092
8, 15584, Pitch_bend_c, 4, 13132
8, 15585, Pitch_bend_c, 4, 13782
8, 15587, Pitch_bend_c, 4, 14952
8, 15592, Pitch_bend_c, 4, 16382
8, 15759, Note_on_c, 4, 62, 0
8, 15900, Pitch_bend_c, 4, 8192
8, 15902, Note_on_c, 4, 57, 106
8, 15968, Note_on_c, 4, 59, 92
8, 16027, Note_on_c, 4, 63, 106
8, 16086, Note_on_c, 4, 66, 106
8, 16251, Note_on_c, 4, 59, 0
8, 16268, Note_on_c, 4, 57, 0
8, 16274, Note_on_c, 4, 63, 0
8, 16279, Note_on_c, 4, 66, 0
8, 16326, Note_on_c, 4, 58, 93
8, 16327, Note_on_c, 4, 64, 106
8, 16329, Note_on_c, 4, 67, 106
8, 16363, Pitch_bend_c, 4, 8842
8, 16365, Pitch_bend_c, 4, 9622
8, 16367, Pitch_bend_c, 4, 10272
8, 16368, Pitch_bend_c, 4, 11182
8, 16370, Pitch_bend_c, 4, 11962
8, 16372, Pitch_bend_c, 4, 12612
8, 16373, Pitch_bend_c, 4, 13262
8, 16375, Pitch_bend_c, 4, 14042
8, 16378, Pitch_bend_c, 4, 15082
8, 16381, Pitch_bend_c, 4, 15732
8, 16384, Pitch_bend_c, 4, 16122
8, 16393, Pitch_bend_c, 4, 15472
8, 16397, Pitch_bend_c, 4, 14822
8, 16398, Pitch_bend_c, 4, 13912
8, 16400, Pitch_bend_c, 4, 11962
8, 16402, Pitch_bend_c, 4, 8192
8, 16487, Note_on_c, 4, 64, 0
8, 16492, Note_on_c, 4, 67, 0
8, 16507, Note_on_c, 4, 58, 0
8, 16557, Note_on_c, 4, 57, 106
8, 16558, Pitch_bend_c, 4, 9362
8, 16559, Pitch_bend_c, 4, 10012
8, 16560, Note_on_c, 4, 64, 106
8, 16561, Pitch_bend_c, 4, 10662
8, 16563, Pitch_bend_c, 4, 11442
8, 16564, Pitch_bend_c, 4, 12222
8, 16565, Pitch_bend_c, 4, 13002
8, 16567, Pitch_bend_c, 4, 13912
8, 16569, Pitch_bend_c, 4, 14822
8, 16571, Pitch_bend_c, 4, 15602
8, 16574, Pitch_bend_c, 4, 16382
8, 16598, Note_on_c, 4, 57, 0
8, 16599, Pitch_bend_c, 4, 15212
8, 16600, Pitch_bend_c, 4, 12352
8, 16608, Pitch_bend_c, 4, 8192
8, 16622, Note_on_c, 4, 57, 106
8, 16674, Note_on_c, 4, 57, 0
8, 16681, Note_on_c, 4, 55, 106
8, 16786, Note_on_c, 4, 55, 0
8, 16800, Note_on_c, 4, 64, 0
8, 16810, Note_on_c, 4, 52, 106
8, 16860, Note_on_c, 4, 59, 106
8, 16895, Note_on_c, 4, 59, 0
8, 16913, Note_on_c, 4, 52, 0
8, 16920, Note_on_c, 4, 62, 106
8, 16971, Note_on_c, 4, 62, 0
8, 16980, Note_on_c, 4, 64, 106
8, 17032, Note_on_c, 4, 64, 0
8, 17040, Note_on_c, 4, 67, 106
8, 17122, Note_on_c, 4, 67, 0
8, 17224, Note_on_c, 4, 59, 106
8, 17256, Note_on_c, 4, 59, 0
8, 17289, Note_on_c, 4, 62, 106
8, 17327, Note_on_c, 4, 62, 0
8, 17343, Note_on_c, 4, 64, 106
8, 17379, Note_on_c, 4, 64, 0
8, 17403, Note_on_c, 4, 67, 106
8, 17416, Pitch_bend_c, 4, 8582
8, 17421, Pitch_bend_c, 4, 9362
8, 17426, Pitch_bend_c, 4, 10012
8, 17430, Pitch_bend_c, 4, 10792
8, 17435, Pitch_bend_c, 4, 11572
8, 17441, Pitch_bend_c, 4, 12222
8, 17444, Pitch_bend_c, 4, 13002
8, 17447, Pitch_bend_c, 4, 13782
8, 17450, Pitch_bend_c, 4, 14692
8, 17453, Pitch_bend_c, 4, 15732
8, 17455, Pitch_bend_c, 4, 16382
8, 17487, Note_on_c, 4, 67, 0
8, 17495, Pitch_bend_c, 4, 8192
8, 17592, Note_on_c, 4, 59, 106
8, 17625, Note_on_c, 4, 59, 0
8, 17651, Note_on_c, 4, 62, 106
8, 17690, Note_on_c, 4, 62, 0
8, 17706, Note_on_c, 4, 64, 106
8, 17743, Note_on_c, 4, 64, 0
8, 17768, Note_on_c, 4, 65, 106
8, 17799, Pitch_bend_c, 4, 8192
8, 17804, Pitch_bend_c, 4, 10082
8, 17809, Pitch_bend_c, 4, 11972
8, 17814, Pitch_bend_c, 4, 13862
8, 17817, Pitch_bend_c, 4, 15185
8, 17820, Pitch_bend_c, 4, 16320
8, 17843, Note_on_c, 4, 65, 0
8, 17877, Pitch_bend_c, 4, 8192
8, 17889, Note_on_c, 4, 65, 106
8, 17919, Pitch_bend_c, 4, 8582
8, 17924, Pitch_bend_c, 4, 9492
8, 17929, Pitch_bend_c, 4, 10272
8, 17932, Pitch_bend_c, 4, 10922
8, 17935, Pitch_bend_c, 4, 11832
8, 17938, Pitch_bend_c, 4, 12612
8, 17942, Pitch_bend_c, 4, 13522
8, 17945, Pitch_bend_c, 4, 14432
8, 17948, Pitch_bend_c, 4, 15082
8, 17951, Pitch_bend_c, 4, 15732
8, 17954, Pitch_bend_c, 4, 16382
8, 17981, Pitch_bend_c, 4, 15082
8, 17983, Pitch_bend_c, 4, 12612
8, 17984, Pitch_bend_c, 4, 8712
8, 17986, Pitch_bend_c, 4, 8192
8, 17991, Note_on_c, 4, 65, 0
8, 18005, Note_on_c, 4, 64, 106
8, 18092, Note_on_c, 4, 64, 0
8, 18128, Note_on_c, 4, 61, 106
8, 18129, Note_on_c, 4, 57, 106
8, 18155, Note_on_c, 4, 61, 0
8, 18157, Note_on_c, 4, 57, 0
8, 18179, Note_on_c, 4, 55, 106
8, 18183, Note_on_c, 4, 59, 106
8, 18243, Note_on_c, 4, 52, 63
8, 18247, Note_on_c, 4, 59, 0
8, 18253, Note_on_c, 4, 55, 0
8, 18290, Note_on_c, 4, 52, 0
8, 18302, Note_on_c, 4, 61, 106
8, 18304, Note_on_c, 4, 57, 106
8, 18335, Note_on_c, 4, 57, 0
8, 18336, Note_on_c, 4, 61, 0
8, 18362, Note_on_c, 4, 55, 106
8, 18364, Note_on_c, 4, 59, 106
8, 18411, Note_on_c, 4, 59, 0
8, 18427, Note_on_c, 4, 55, 0
8, 18430, Note_on_c, 4, 52, 68
8, 18465, Note_on_c, 4, 52, 0
8, 18488, Note_on_c, 4, 61, 106
8, 18489, Note_on_c, 4, 57, 106
8, 18520, Note_on_c, 4, 57, 0
8, 18521, Note_on_c, 4, 61, 0
8, 18549, Note_on_c, 4, 55, 106
8, 18550, Note_on_c, 4, 59, 106
8, 18603, Note_on_c, 4, 59, 0
8, 18605, Note_on_c, 4, 55, 0
8, 18612, Note_on_c, 4, 52, 106
8, 18695, Note_on_c, 4, 52, 0
8, 18730, Note_on_c, 4, 65, 106
8, 18735, Pitch_bend_c, 4, 8582
8, 18738, Pitch_bend_c, 4, 9492
8, 18741, Pitch_bend_c, 4, 10272
8, 18744, Pitch_bend_c, 4, 11052
8, 18747, Pitch_bend_c, 4, 12092
8, 18750, Pitch_bend_c, 4, 12872
8, 18754, Pitch_bend_c, 4, 13522
8, 18757, Pitch_bend_c, 4, 14172
8, 18762, Pitch_bend_c, 4, 14952
8, 18766, Pitch_bend_c, 4, 15602
8, 18771, Pitch_bend_c, 4, 16382
8, 18801, Note_on_c, 4, 65, 0
8, 18822, Pitch_bend_c, 4, 8192
8, 18840, Note_on_c, 4, 65, 106
8, 18851, Pitch_bend_c, 4, 8972
8, 18854, Pitch_bend_c, 4, 9622
8, 18858, Pitch_bend_c, 4, 10272
8, 18861, Pitch_bend_c, 4, 11052
8, 18864, Pitch_bend_c, 4, 11832
8, 18867, Pitch_bend_c, 4, 12482
8, 18870, Pitch_bend_c, 4, 13132
8, 18876, Pitch_bend_c, 4, 13912
8, 18881, Pitch_bend_c, 4, 14692
8, 18887, Pitch_bend_c, 4, 15342
8, 18900, Pitch_bend_c, 4, 16122
8, 18902, Pitch_bend_c, 4, 16382
8, 18935, Pitch_bend_c, 4, 15472
8, 18937, Pitch_bend_c, 4, 14432
8, 18939, Pitch_bend_c, 4, 13002
8, 18940, Pitch_bend_c, 4, 11052
8, 18941, Pitch_bend_c, 4, 8192
8, 18960, Note_on_c, 4, 65, 0
8, 18968, Note_on_c, 4, 64, 106
8, 19042, Note_on_c, 4, 64, 0
8, 19058, Note_on_c, 4, 64, 106
8, 19084, Note_on_c, 4, 61, 106
8, 19088, Note_on_c, 4, 64, 0
8, 19168, Note_on_c, 4, 61, 0
8, 19180, Note_on_c, 4, 64, 93
8, 19205, Note_on_c, 4, 62, 106
8, 19213, Note_on_c, 4, 64, 0
8, 19291, Note_on_c, 4, 62, 0
8, 19299, Note_on_c, 4, 64, 106
8, 19325, Note_on_c, 4, 61, 106
8, 19327, Note_on_c, 4, 64, 0
8, 19407, Note_on_c, 4, 61, 0
8, 19417, Note_on_c, 4, 64, 106
8, 19442, Note_on_c, 4, 59, 106
8, 19444, Note_on_c, 4, 64, 0
8, 19531, Note_on_c, 4, 59, 0
8, 19535, Note_on_c, 4, 64, 106
8, 19564, Note_on_c, 4, 57, 106
8, 19565, Note_on_c, 4, 64, 0
8, 19670, Note_on_c, 4, 57, 0
8, 19685, Note_on_c, 4, 67, 106
8, 19771, Note_on_c, 4, 67, 0
8, 19776, Note_on_c, 4, 64, 106
8, 19799, Note_on_c, 4, 64, 0
8, 19811, Note_on_c, 4, 66, 106
8, 19883, Note_on_c, 4, 66, 0
8, 19894, Note_on_c, 4, 64, 106
8, 19918, Note_on_c, 4, 64, 0
8, 19929, Note_on_c, 4, 64, 106
8, 19996, Note_on_c, 4, 64, 0
8, 20017, Note_on_c, 4, 64, 106
8, 20045, Note_on_c, 4, 61, 106
8, 20046, Note_on_c, 4, 64, 0
8, 20124, Note_on_c, 4, 61, 0
8, 20133, Note_on_c, 4, 64, 106
8, 20156, Note_on_c, 4, 64, 0
8, 20163, Note_on_c, 4, 67, 106
8, 20243, Note_on_c, 4, 67, 0
8, 20255, Note_on_c, 4, 64, 106
8, 20280, Note_on_c, 4, 64, 0
8, 20290, Note_on_c, 4, 66, 106
8, 20352, Note_on_c, 4, 66, 0
8, 20375, Note_on_c, 4, 64, 106
8, 20397, Note_on_c, 4, 64, 0
8, 20405, Note_on_c, 4, 64, 106
8, 20461, Note_on_c, 4, 64, 0
8, 20495, Note_on_c, 4, 64, 106
8, 20526, Note_on_c, 4, 67, 106
8, 20531, Note_on_c, 4, 64, 0
8, 20558, Note_on_c, 4, 68, 106
8, 20565, Note_on_c, 4, 67, 0
8, 20593, Note_on_c, 4, 71, 106
8, 20603, Note_on_c, 4, 68, 0
8, 20629, Note_on_c, 4, 71, 0
8, 20645, Note_on_c, 4, 74, 93
8, 20649, Note_on_c, 4, 68, 106
8, 20691, Note_on_c, 4, 74, 0
8, 20709, Note_on_c, 4, 64, 75
8, 20724, Note_on_c, 4, 68, 0
8, 20738, Note_on_c, 4, 68, 93
8, 20740, Note_on_c, 4, 73, 106
8, 20741, Note_on_c, 4, 64, 0
8, 20800, Note_on_c, 4, 64, 75
8, 20801, Note_on_c, 4, 73, 0
8, 20808, Note_on_c, 4, 68, 0
8, 20826, Note_on_c, 4, 68, 103
8, 20826, Note_on_c, 4, 71, 106
8, 20843, Note_on_c, 4, 64, 0
8, 20885, Note_on_c, 4, 71, 0
8, 20886, Note_on_c, 4, 64, 106
8, 20916, Note_on_c, 4, 64, 0
8, 20917, Note_on_c, 4, 73, 106
8, 20980, Note_on_c, 4, 73, 0
8, 20989, Note_on_c, 4, 64, 75
8, 21006, Note_on_c, 4, 74, 106
8, 21009, Note_on_c, 4, 64, 0
8, 21063, Note_on_c, 4, 64, 106
8, 21066, Note_on_c, 4, 74, 0
8, 21066, Note_on_c, 4, 68, 0
8, 21108, Note_on_c, 4, 64, 0
8, 21120, Note_on_c, 4, 68, 106
8, 21126, Note_on_c, 4, 74, 106
8, 21185, Note_on_c, 4, 64, 93
8, 21189, Note_on_c, 4, 74, 0
8, 21209, Note_on_c, 4, 64, 0
8, 21215, Note_on_c, 4, 73, 106
8, 21265, Note_on_c, 4, 64, 93
8, 21270, Note_on_c, 4, 68, 0
8, 21271, Note_on_c, 4, 73, 0
8, 21297, Note_on_c, 4, 68, 81
8, 21298, Note_on_c, 4, 71, 106
8, 21303, Note_on_c, 4, 64, 0
8, 21363, Note_on_c, 4, 71, 0
8, 21371, Note_on_c, 4, 64, 93
8, 21378, Note_on_c, 4, 68, 0
8, 21398, Note_on_c, 4, 68, 93
8, 21399, Note_on_c, 4, 73, 106
8, 21400, Note_on_c, 4, 64, 0
8, 21460, Note_on_c, 4, 73, 0
8, 21465, Note_on_c, 4, 64, 75
8, 21486, Note_on_c, 4, 64, 0
8, 21486, Note_on_c, 4, 74, 106
8, 21545, Note_on_c, 4, 74, 0
8, 21551, Note_on_c, 4, 68, 0
8, 21604, Note_on_c, 4, 65, 106
8, 21633, Note_on_c, 4, 66, 81
8, 21634, Note_on_c, 4, 65, 0
8, 21659, Note_on_c, 4, 66, 0
8, 21660, Note_on_c, 4, 75, 106
8, 21686, Note_on_c, 4, 75, 0
8, 21723, Note_on_c, 4, 64, 93
8, 21758, Note_on_c, 4, 73, 106
8, 21760, Note_on_c, 4, 64, 0
8, 21781, Note_on_c, 4, 73, 0
8, 21815, Note_on_c, 4, 63, 106
8, 21846, Note_on_c, 4, 71, 106
8, 21852, Note_on_c, 4, 63, 0
8, 21869, Note_on_c, 4, 71, 0
8, 21904, Note_on_c, 4, 61, 106
8, 21936, Note_on_c, 4, 61, 0
8, 21937, Note_on_c, 4, 69, 106
8, 21962, Note_on_c, 4, 69, 0
8, 21995, Note_on_c, 4, 59, 106
8, 22019, Note_on_c, 4, 59, 0
8, 22024, Note_on_c, 4, 68, 106
8, 22047, Note_on_c, 4, 68, 0
8, 22084, Note_on_c, 4, 58, 106
8, 22118, Note_on_c, 4, 67, 106
8, 22124, Note_on_c, 4, 58, 0
8, 22137, Note_on_c, 4, 67, 0
8, 22174, Note_on_c, 4, 57, 93
8, 22203, Note_on_c, 4, 66, 106
8, 22204, Note_on_c, 4, 57, 0
8, 22228, Note_on_c, 4, 66, 0
8, 22262, Note_on_c, 4, 56, 88
8, 22288, Note_on_c, 4, 56, 0
8, 22295, Note_on_c, 4, 64, 106
8, 22318, Note_on_c, 4, 64, 0
8, 22351, Note_on_c, 4, 56, 106
8, 22363, Note_on_c, 4, 56, 0
8, 22379, Note_on_c, 4, 61, 106
8, 22437, Note_on_c, 4, 61, 0
8, 22440, Note_on_c, 4, 55, 106
8, 22472, Note_on_c, 4, 55, 0
8, 22473, Note_on_c, 4, 56, 76
8, 22548, Note_on_c, 4, 56, 0
8, 22630, Note_on_c, 4, 59, 106
8, 22655, Note_on_c, 4, 59, 0
8, 22686, Note_on_c, 4, 64, 106
8, 22711, Note_on_c, 4, 64, 0
8, 22727, Note_on_c, 4, 67, 106
8, 22749, Note_on_c, 4, 67, 0
8, 22771, Note_on_c, 4, 68, 106
8, 22799, Note_on_c, 4, 68, 0
8, 22809, Note_on_c, 4, 69, 106
8, 22836, Note_on_c, 4, 69, 0
8, 22854, Note_on_c, 4, 67, 106
8, 22879, Note_on_c, 4, 67, 0
8, 22893, Note_on_c, 4, 68, 106
8, 22914, Note_on_c, 4, 68, 0
8, 22939, Note_on_c, 4, 64, 106
8, 22974, Note_on_c, 4, 64, 0
8, 22978, Note_on_c, 4, 59, 106
8, 23006, Note_on_c, 4, 59, 0
8, 23021, Note_on_c, 4, 62, 106
8, 23051, Note_on_c, 4, 62, 0
8, 23055, Note_on_c, 4, 64, 106
8, 23142, Note_on_c, 4, 64, 0
8, 23170, Note_on_c, 4, 66, 106
8, 23188, Pitch_bend_c, 4, 8322
8, 23193, Pitch_bend_c, 4, 8972
8, 23199, Pitch_bend_c, 4, 9622
8, 23204, Pitch_bend_c, 4, 10272
8, 23209, Pitch_bend_c, 4, 11052
8, 23212, Pitch_bend_c, 4, 11962
8, 23216, Pitch_bend_c, 4, 12612
8, 23219, Pitch_bend_c, 4, 13522
8, 23222, Pitch_bend_c, 4, 14432
8, 23226, Pitch_bend_c, 4, 15082
8, 23230, Pitch_bend_c, 4, 15732
8, 23233, Pitch_bend_c, 4, 16382
8, 23285, Pitch_bend_c, 4, 8192
8, 23287, Note_on_c, 4, 64, 106
8, 23290, Note_on_c, 4, 66, 0
8, 23484, Note_on_c, 4, 64, 0
8, 23520, Note_on_c, 4, 52, 93
8, 23520, Note_on_c, 4, 40, 106
8, 23542, Note_on_c, 4, 40, 0
8, 23545, Note_on_c, 4, 52, 0
8, 23640, Note_on_c, 4, 52, 106
8, 23664, Note_on_c, 4, 52, 0
8, 23670, Note_on_c, 4, 40, 36
8, 23677, Note_on_c, 4, 40, 0
8, 23760, Note_on_c, 4, 52, 93
8, 23760, Note_on_c, 4, 40, 106
8, 23782, Note_on_c, 4, 40, 0
8, 23782, Note_on_c, 4, 52, 0
8, 23880, Note_on_c, 4, 40, 81
8, 23880, Note_on_c, 4, 50, 106
8, 23924, Note_on_c, 4, 40, 0
8, 23937, Note_on_c, 4, 50, 0
8, 23940, Note_on_c, 4, 40, 106
8, 24027, Note_on_c, 4, 40, 0
8, 24060, Note_on_c, 4, 40, 106
8, 24099, Note_on_c, 4, 40, 0
8, 24120, Note_on_c, 4, 52, 93
8, 24120, Note_on_c, 4, 40, 81
8, 24137, Note_on_c, 4, 52, 0
8, 24142, Note_on_c, 4, 40, 0
8, 24240, Note_on_c, 4, 52, 88
8, 24240, Note_on_c, 4, 40, 88
8, 24258, Note_on_c, 4, 40, 0
8, 24258, Note_on_c, 4, 52, 0
8, 24360, Note_on_c, 4, 52, 63
8, 24360, Note_on_c, 4, 40, 76
8, 24372, Note_on_c, 4, 52, 0
8, 24373, Note_on_c, 4, 40, 0
8, 24480, Note_on_c, 4, 52, 106
8, 24480, Note_on_c, 4, 40, 106
8, 24498, Note_on_c, 4, 52, 0
8, 24503, Note_on_c, 4, 40, 0
8, 24600, Note_on_c, 4, 40, 40
8, 24600, Note_on_c, 4, 52, 88
8, 24613, Note_on_c, 4, 40, 0
8, 24617, Note_on_c, 4, 52, 0
8, 24720, Note_on_c, 4, 52, 106
8, 24720, Note_on_c, 4, 40, 93
8, 24737, Note_on_c, 4, 40, 0
8, 24741, Note_on_c, 4, 52, 0
8, 24900, Note_on_c, 4, 40, 106
8, 24988, Note_on_c, 4, 40, 0
8, 25020, Note_on_c, 4, 40, 106
8, 25046, Note_on_c, 4, 40, 0
8, 25140, Note_on_c, 4, 40, 56
8, 25154, Note_on_c, 4, 40, 0
8, 25200, Note_on_c, 4, 50, 106
8, 25236, Note_on_c, 4, 50, 0
8, 25290, Note_on_c, 4, 40, 81
8, 25308, Note_on_c, 4, 40, 0
8, 25320, Note_on_c, 4, 49, 106
8, 25368, Note_on_c, 4, 49, 0
8, 25380, Note_on_c, 4, 40, 81
8, 25380, Note_on_c, 4, 47, 88
8, 25395, Note_on_c, 4, 40, 0
8, 25430, Note_on_c, 4, 47, 0
8, 25500, Note_on_c, 4, 40, 106
8, 25518, Note_on_c, 4, 40, 0
8, 25680, Note_on_c, 4, 52, 93
8, 25680, Note_on_c, 4, 40, 93
8, 25699, Note_on_c, 4, 52, 0
8, 25703, Note_on_c, 4, 40, 0
8, 25860, Note_on_c, 4, 52, 106
8, 25860, Note_on_c, 4, 40, 106
8, 25938, Note_on_c, 4, 52, 0
8, 25940, Note_on_c, 4, 40, 0
8, 25980, Note_on_c, 4, 40, 70
8, 25980, Note_on_c, 4, 52, 88
8, 25990, Note_on_c, 4, 40, 0
8, 25993, Note_on_c, 4, 52, 0
8, 26100, Note_on_c, 4, 40, 81
8, 26100, Note_on_c, 4, 52, 88
8, 26112, Note_on_c, 4, 40, 0
8, 26116, Note_on_c, 4, 52, 0
8, 26160, Note_on_c, 4, 50, 106
8, 26186, Note_on_c, 4, 50, 0
8, 26220, Note_on_c, 4, 40, 106
8, 26236, Note_on_c, 4, 40, 0
8, 26280, Note_on_c, 4, 50, 106
8, 26306, Note_on_c, 4, 50, 0
8, 26400, Note_on_c, 4, 52, 106
8, 26430, Note_on_c, 4, 52, 0
8, 26430, Note_on_c, 4, 50, 106
8, 26460, Note_on_c, 4, 50, 0
8, 26460, Note_on_c, 4, 52, 106
8, 26490, Note_on_c, 4, 52, 0
8, 26490, Note_on_c, 4, 50, 88
8, 26520, Note_on_c, 4, 50, 0
8, 26520, Note_on_c, 4, 52, 93
8, 26550, Note_on_c, 4, 52, 0
8, 26550, Note_on_c, 4, 50, 106
8, 26580, Note_on_c, 4, 50, 0
8, 26580, Note_on_c, 4, 52, 93
8, 26610, Note_on_c, 4, 52, 0
8, 26610, Note_on_c, 4, 50, 20
8, 26640, Note_on_c, 4, 50, 0
8, 26640, Note_on_c, 4, 52, 106
8, 26670, Note_on_c, 4, 52, 0
8, 26670, Note_on_c, 4, 50, 63
8, 26700, Note_on_c, 4, 50, 0
8, 26700, Note_on_c, 4, 52, 93
8, 26730, Note_on_c, 4, 52, 0
8, 26730, Note_on_c, 4, 50, 81
8, 26760, Note_on_c, 4, 50, 0
8, 26760, Note_on_c, 4, 52, 93
8, 26790, Note_on_c, 4, 52, 0
8, 26790, Note_on_c, 4, 50, 43
8, 26820, Note_on_c, 4, 50, 0
8, 26820, Note_on_c, 4, 52, 90
8, 26850, Note_on_c, 4, 52, 0
8, 26940, Note_on_c, 4, 52, 106
8, 26940, Note_on_c, 4, 40, 106
8, 26940, Note_on_c, 4, 47, 106
8, 26985, Note_on_c, 4, 47, 0
8, 26985, Note_on_c, 4, 40, 0
8, 26985, Note_on_c, 4, 52, 0
8, 27000, Note_on_c, 4, 52, 106
8, 27000, Note_on_c, 4, 40, 106
8, 27000, Note_on_c, 4, 47, 106
8, 27045, Note_on_c, 4, 47, 0
8, 27045, Note_on_c, 4, 40, 0
8, 27045, Note_on_c, 4, 52, 0
8, 27060, Note_on_c, 4, 52, 106
8, 27060, Note_on_c, 4, 47, 106
8, 27060, Note_on_c, 4, 40, 106
8, 27105, Note_on_c, 4, 40, 0
8, 27105, Note_on_c, 4, 47, 0
8, 27105, Note_on_c, 4, 52, 0
8, 27120, Note_on_c, 4, 52, 106
8, 27120, Note_on_c, 4, 47, 106
8, 27120, Note_on_c, 4, 40, 106
8, 27165, Note_on_c, 4, 40, 0
8, 27165, Note_on_c, 4, 47, 0
8, 27165, Note_on_c, 4, 52, 0
8, 27180, Note_on_c, 4, 47, 106
8, 27180, Note_on_c, 4, 52, 106
8, 27180, Note_on_c, 4, 40, 106
8, 27225, Note_on_c, 4, 40, 0
8, 27225, Note_on_c, 4, 52, 0
8, 27225, Note_on_c, 4, 47, 0
8, 27240, Note_on_c, 4, 47, 106
8, 27240, Note_on_c, 4, 52, 106
8, 27240, Note_on_c, 4, 40, 106
8, 27285, Note_on_c, 4, 40, 0
8, 27285, Note_on_c, 4, 52, 0
8, 27285, Note_on_c, 4, 47, 0
8, 27300, Note_on_c, 4, 47, 106
8, 27300, Note_on_c, 4, 40, 106
8, 27300, Note_on_c, 4, 52, 106
8, 27345, Note_on_c, 4, 52, 0
8, 27345, Note_on_c, 4, 40, 0
8, 27345, Note_on_c, 4, 47, 0
8, 27360, Note_on_c, 4, 40, 106
8, 27360, Note_on_c, 4, 52, 106
8, 27360, Note_on_c, 4, 47, 106
8, 27405, Note_on_c, 4, 47, 0
8, 27405, Note_on_c, 4, 52, 0
8, 27405, Note_on_c, 4, 40, 0
8, 27716, Pitch_bend_c, 4, 0
8, 27900, Note_on_c, 4, 68, 106
8, 27938, Pitch_bend_c, 4, 3844
8, 27942, Pitch_bend_c, 4, 3905
8, 27945, Pitch_bend_c, 4, 3957
8, 27948, Pitch_bend_c, 4, 4009
8, 27950, Pitch_bend_c, 4, 4044
8, 27951, Pitch_bend_c, 4, 4070
8, 27953, Pitch_bend_c, 4, 4096
8, 28017, Note_on_c, 4, 68, 0
8, 28019, Pitch_bend_c, 4, 8192
8, 28020, Note_on_c, 4, 64, 106
8, 28079, Note_on_c, 4, 64, 0
8, 28080, Note_on_c, 4, 61, 106
8, 28134, Note_on_c, 4, 61, 0
8, 28140, Note_on_c, 4, 59, 90
8, 28185, Note_on_c, 4, 59, 0
8, 28200, Note_on_c, 4, 54, 96
8, 28207, Pitch_bend_c, 4, 8452
8, 28211, Pitch_bend_c, 4, 9622
8, 28212, Pitch_bend_c, 4, 10272
8, 28214, Pitch_bend_c, 4, 10922
8, 28216, Pitch_bend_c, 4, 11572
8, 28217, Pitch_bend_c, 4, 12222
8, 28219, Pitch_bend_c, 4, 12872
8, 28220, Pitch_bend_c, 4, 13522
8, 28222, Pitch_bend_c, 4, 14172
8, 28224, Pitch_bend_c, 4, 14822
8, 28227, Pitch_bend_c, 4, 15862
8, 28229, Pitch_bend_c, 4, 16382
8, 28248, Pitch_bend_c, 4, 15342
8, 28250, Pitch_bend_c, 4, 12612
8, 28252, Pitch_bend_c, 4, 8192
8, 28260, Note_on_c, 4, 52, 106
8, 28274, Note_on_c, 4, 54, 0
8, 28316, Note_on_c, 4, 52, 0
8, 28320, Note_on_c, 4, 64, 106
8, 28680, Note_on_c, 4, 64, 0
8, 28792, Pitch_bend_c, 4, 0
8, 28860, Note_on_c, 4, 68, 106
8, 28889, Pitch_bend_c, 4, 2983
8, 28893, Pitch_bend_c, 4, 3122
8, 28898, Pitch_bend_c, 4, 3261
8, 28901, Pitch_bend_c, 4, 3369
8, 28904, Pitch_bend_c, 4, 3462
8, 28907, Pitch_bend_c, 4, 3555
8, 28911, Pitch_bend_c, 4, 3663
8, 28914, Pitch_bend_c, 4, 3755
8, 28917, Pitch_bend_c, 4, 3864
8, 28920, Pitch_bend_c, 4, 3956
8, 28923, Pitch_bend_c, 4, 4049
8, 28925, Pitch_bend_c, 4, 4096
8, 28977, Pitch_bend_c, 4, 8192
8, 28978, Note_on_c, 4, 68, 0
8, 28980, Note_on_c, 4, 64, 106
8, 29030, Note_on_c, 4, 64, 0
8, 29040, Note_on_c, 4, 61, 106
8, 29090, Note_on_c, 4, 61, 0
8, 29100, Note_on_c, 4, 59, 96
8, 29151, Note_on_c, 4, 59, 0
8, 29160, Note_on_c, 4, 54, 106
8, 29174, Pitch_bend_c, 4, 8582
8, 29176, Pitch_bend_c, 4, 9232
8, 29179, Pitch_bend_c, 4, 10402
8, 29180, Pitch_bend_c, 4, 11182
8, 29182, Pitch_bend_c, 4, 11962
8, 29184, Pitch_bend_c, 4, 12612
8, 29185, Pitch_bend_c, 4, 13392
8, 29187, Pitch_bend_c, 4, 14302
8, 29188, Pitch_bend_c, 4, 15082
8, 29190, Pitch_bend_c, 4, 15732
8, 29192, Pitch_bend_c, 4, 16382
8, 29215, Pitch_bend_c, 4, 13652
8, 29217, Pitch_bend_c, 4, 9492
8, 29219, Pitch_bend_c, 4, 8192
8, 29220, Note_on_c, 4, 52, 106
8, 29235, Note_on_c, 4, 54, 0
8, 29276, Note_on_c, 4, 52, 0
8, 29280, Note_on_c, 4, 64, 106
8, 29620, Note_on_c, 4, 64, 0
8, 30000, Note_on_c, 4, 55, 106
8, 30000, Note_on_c, 4, 64, 106
8, 30000, Note_on_c, 4, 61, 106
8, 30016, Note_on_c, 4, 61, 0
8, 30016, Note_on_c, 4, 64, 0
8, 30018, Note_on_c, 4, 55, 0
8, 30180, Note_on_c, 4, 64, 106
8, 30180, Note_on_c, 4, 61, 106
8, 30180, Note_on_c, 4, 55, 106
8, 30196, Note_on_c, 4, 64, 0
8, 30198, Note_on_c, 4, 61, 0
8, 30199, Note_on_c, 4, 55, 0
8, 30420, Note_on_c, 4, 64, 106
8, 30420, Note_on_c, 4, 55, 106
8, 30420, Note_on_c, 4, 61, 106
8, 30437, Note_on_c, 4, 64, 0
8, 30440, Note_on_c, 4, 55, 0
8, 30441, Note_on_c, 4, 61, 0
8, 30780, Note_on_c, 4, 52, 106
8, 30810, Note_on_c, 4, 52, 0
8, 30810, Note_on_c, 4, 50, 106
8, 30840, Note_on_c, 4, 50, 0
8, 30840, Note_on_c, 4, 52, 106
8, 30870, Note_on_c, 4, 52, 0
8, 30870, Note_on_c, 4, 50, 96
8, 30900, Note_on_c, 4, 50, 0
8, 30900, Note_on_c, 4, 52, 106
8, 30930, Note_on_c, 4, 52, 0
8, 30930, Note_on_c, 4, 50, 96
8, 30960, Note_on_c, 4, 50, 0
8, 30960, Note_on_c, 4, 52, 106
8, 30990, Note_on_c, 4, 52, 0
8, 30990, Note_on_c, 4, 50, 106
8, 31020, Note_on_c, 4, 50, 0
8, 31020, Note_on_c, 4, 52, 63
8, 31050, Note_on_c, 4, 52, 0
8, 31050, Note_on_c, 4, 50, 106
8, 31080, Note_on_c, 4, 50, 0
8, 31080, Note_on_c, 4, 47, 106
8, 31184, Note_on_c, 4, 47, 0
8, 31200, Note_on_c, 4, 45, 106
8, 31246, Pitch_bend_c, 4, 8322
8, 31251, Pitch_bend_c, 4, 9102
8, 31254, Pitch_bend_c, 4, 9752
8, 31258, Pitch_bend_c, 4, 10792
8, 31261, Pitch_bend_c, 4, 11962
8, 31262, Pitch_bend_c, 4, 12742
8, 31264, Pitch_bend_c, 4, 13652
8, 31266, Pitch_bend_c, 4, 14302
8, 31267, Pitch_bend_c, 4, 15212
8, 31269, Pitch_bend_c, 4, 16382
8, 31304, Pitch_bend_c, 4, 15212
8, 31306, Pitch_bend_c, 4, 14172
8, 31307, Pitch_bend_c, 4, 12612
8, 31309, Pitch_bend_c, 4, 10532
8, 31310, Pitch_bend_c, 4, 8192
8, 31320, Note_on_c, 4, 43, 106
8, 31325, Note_on_c, 4, 45, 0
8, 31424, Note_on_c, 4, 43, 0
8, 31440, Note_on_c, 4, 40, 106
8, 31590, Note_on_c, 4, 40, 0
8, 31742, Note_on_c, 4, 57, 106
8, 31808, Note_on_c, 4, 59, 96
8, 31867, Note_on_c, 4, 63, 106
8, 31926, Note_on_c, 4, 66, 106
8, 32091, Note_on_c, 4, 59, 0
8, 32108, Note_on_c, 4, 57, 0
8, 32114, Note_on_c, 4, 63, 0
8, 32119, Note_on_c, 4, 66, 0
8, 32166, Note_on_c, 4, 58, 97
8, 32167, Note_on_c, 4, 64, 106
8, 32169, Note_on_c, 4, 67, 106
8, 32203, Pitch_bend_c, 4, 8842
8, 32205, Pitch_bend_c, 4, 9622
8, 32207, Pitch_bend_c, 4, 10272
8, 32208, Pitch_bend_c, 4, 11182
8, 32210, Pitch_bend_c, 4, 11962
8, 32212, Pitch_bend_c, 4, 12612
8, 32213, Pitch_bend_c, 4, 13262
8, 32215, Pitch_bend_c, 4, 14042
8, 32218, Pitch_bend_c, 4, 15082
8, 32221, Pitch_bend_c, 4, 15732
8, 32224, Pitch_bend_c, 4, 16122
8, 32233, Pitch_bend_c, 4, 15472
8, 32237, Pitch_bend_c, 4, 14822
8, 32238, Pitch_bend_c, 4, 13912
8, 32240, Pitch_bend_c, 4, 11962
8, 32242, Pitch_bend_c, 4, 8192
8, 32327, Note_on_c, 4, 64, 0
8, 32332, Note_on_c, 4, 67, 0
8, 32347, Note_on_c, 4, 58, 0
8, 32397, Note_on_c, 4, 57, 106
8, 32398, Pitch_bend_c, 4, 9362
8, 32399, Pitch_bend_c, 4, 10012
8, 32400, Note_on_c, 4, 64, 106
8, 32401, Pitch_bend_c, 4, 10662
8, 32403, Pitch_bend_c, 4, 11442
8, 32404, Pitch_bend_c, 4, 12222
8, 32405, Pitch_bend_c, 4, 13002
8, 32407, Pitch_bend_c, 4, 13912
8, 32438, Note_on_c, 4, 57, 0
8, 32442, Pitch_bend_c, 4, 8192
8, 32462, Note_on_c, 4, 57, 106
8, 32514, Note_on_c, 4, 57, 0
8, 32521, Note_on_c, 4, 55, 106
8, 32626, Note_on_c, 4, 55, 0
8, 32640, Note_on_c, 4, 64, 0
8, 32640, Note_on_c, 4, 52, 106
8, 32760, Note_on_c, 4, 52, 0
8, 32765, Pitch_bend_c, 4, 3584
8, 32765, Note_on_c, 4, 62, 106
8, 32781, Pitch_bend_c, 4, 4224
8, 32786, Pitch_bend_c, 4, 4864
8, 32789, Pitch_bend_c, 4, 5504
8, 32792, Pitch_bend_c, 4, 6272
8, 32795, Pitch_bend_c, 4, 7040
8, 32798, Pitch_bend_c, 4, 8192
8, 32879, Note_on_c, 4, 62, 0
8, 32880, Note_on_c, 4, 62, 106
8, 32994, Note_on_c, 4, 62, 0
8, 33001, Note_on_c, 4, 62, 106
8, 33115, Note_on_c, 4, 62, 0
8, 33121, Pitch_bend_c, 4, 4096
8, 33125, Note_on_c, 4, 62, 106
8, 33126, Pitch_bend_c, 4, 4864
8, 33130, Pitch_bend_c, 4, 4736
8, 33148, Pitch_bend_c, 4, 5376
8, 33153, Pitch_bend_c, 4, 6272
8, 33158, Pitch_bend_c, 4, 7168
8, 33162, Pitch_bend_c, 4, 8192
8, 33239, Note_on_c, 4, 62, 0
8, 33240, Note_on_c, 4, 62, 106
8, 33354, Note_on_c, 4, 62, 0
8, 33362, Pitch_bend_c, 4, 2048
8, 33364, Note_on_c, 4, 62, 106
8, 33378, Pitch_bend_c, 4, 2816
8, 33386, Pitch_bend_c, 4, 3584
8, 33393, Pitch_bend_c, 4, 4352
8, 33398, Pitch_bend_c, 4, 4992
8, 33405, Pitch_bend_c, 4, 5888
8, 33408, Pitch_bend_c, 4, 6784
8, 33412, Pitch_bend_c, 4, 7680
8, 33413, Pitch_bend_c, 4, 8192
8, 33478, Note_on_c, 4, 62, 0
8, 33480, Note_on_c, 4, 62, 106
8, 33572, Pitch_bend_c, 4, 7424
8, 33575, Pitch_bend_c, 4, 6784
8, 33578, Pitch_bend_c, 4, 6016
8, 33581, Pitch_bend_c, 4, 5120
8, 33584, Pitch_bend_c, 4, 4224
8, 33588, Pitch_bend_c, 4, 3584
8, 33592, Pitch_bend_c, 4, 2816
8, 33594, Note_on_c, 4, 62, 0
8, 33602, Pitch_bend_c, 4, 2176
8, 33605, Note_on_c, 4, 59, 106
8, 33605, Note_on_c, 4, 62, 106
8, 33607, Pitch_bend_c, 4, 2048
8, 33629, Pitch_bend_c, 4, 2688
8, 33634, Pitch_bend_c, 4, 3456
8, 33637, Pitch_bend_c, 4, 4096
8, 33641, Pitch_bend_c, 4, 4992
8, 33644, Pitch_bend_c, 4, 6016
8, 33647, Pitch_bend_c, 4, 6912
8, 33650, Pitch_bend_c, 4, 8064
8, 33719, Note_on_c, 4, 62, 0
8, 33719, Note_on_c, 4, 59, 0
8, 33720, Note_on_c, 4, 59, 106
8, 33720, Note_on_c, 4, 62, 106
8, 33834, Note_on_c, 4, 62, 0
8, 33834, Note_on_c, 4, 59, 0
8, 33840, Note_on_c, 4, 59, 106
8, 33840, Note_on_c, 4, 62, 106
8, 33954, Note_on_c, 4, 62, 0
8, 33954, Note_on_c, 4, 59, 0
8, 33960, Note_on_c, 4, 59, 97
8, 33960, Note_on_c, 4, 62, 106
8, 34074, Note_on_c, 4, 59, 0
8, 34074, Pitch_bend_c, 4, 7424
8, 34077, Pitch_bend_c, 4, 6528
8, 34080, Note_on_c, 4, 62, 0
8, 34080, Note_on_c, 4, 59, 106
8, 34080, Note_on_c, 4, 62, 106
8, 34081, Pitch_bend_c, 4, 5632
8, 34084, Pitch_bend_c, 4, 4992
8, 34089, Pitch_bend_c, 4, 4352
8, 34097, Pitch_bend_c, 4, 3456
8, 34106, Pitch_bend_c, 4, 2816
8, 34113, Pitch_bend_c, 4, 2560
8, 34129, Pitch_bend_c, 4, 3328
8, 34132, Pitch_bend_c, 4, 3968
8, 34133, Pitch_bend_c, 4, 4608
8, 34135, Pitch_bend_c, 4, 5248
8, 34137, Pitch_bend_c, 4, 5888
8, 34138, Pitch_bend_c, 4, 6656
8, 34140, Pitch_bend_c, 4, 7296
8, 34141, Pitch_bend_c, 4, 8064
8, 34195, Note_on_c, 4, 62, 0
8, 34195, Note_on_c, 4, 59, 0
8, 34200, Note_on_c, 4, 62, 106
8, 34200, Note_on_c, 4, 59, 106
8, 34315, Note_on_c, 4, 59, 0
8, 34315, Note_on_c, 4, 62, 0
8, 34320, Note_on_c, 4, 62, 106
8, 34350, Note_on_c, 4, 62, 0
8, 34350, Note_on_c, 4, 59, 106
8, 34380, Note_on_c, 4, 57, 106
8, 34386, Note_on_c, 4, 59, 0
8, 34425, Note_on_c, 4, 57, 0
8, 34440, Note_on_c, 4, 55, 106
8, 34470, Note_on_c, 4, 55, 0
8, 34470, Note_on_c, 4, 52, 106
8, 34500, Note_on_c, 4, 50, 106
8, 34506, Note_on_c, 4, 52, 0
8, 34554, Note_on_c, 4, 50, 0
8, 34560, Note_on_c, 4, 62, 106
8, 34656, Note_on_c, 4, 62, 0
8, 34680, Note_on_c, 4, 62, 106
8, 34784, Note_on_c, 4, 62, 0
8, 34787, Pitch_bend_c, 4, 7552
8, 34790, Pitch_bend_c, 4, 6656
8, 34793, Pitch_bend_c, 4, 5888
8, 34797, Pitch_bend_c, 4, 5120
8, 34800, Note_on_c, 4, 62, 106
8, 34800, Note_on_c, 4, 59, 106
8, 34800, Pitch_bend_c, 4, 4224
8, 34804, Pitch_bend_c, 4, 3328
8, 34807, Pitch_bend_c, 4, 2688
8, 34810, Pitch_bend_c, 4, 2304
8, 34827, Pitch_bend_c, 4, 3072
8, 34836, Pitch_bend_c, 4, 3712
8, 34841, Pitch_bend_c, 4, 4352
8, 34844, Pitch_bend_c, 4, 4992
8, 34847, Pitch_bend_c, 4, 5888
8, 34851, Pitch_bend_c, 4, 6912
8, 34853, Pitch_bend_c, 4, 7936
8, 34854, Pitch_bend_c, 4, 8192
8, 34887, Note_on_c, 4, 62, 0
8, 34920, Note_on_c, 4, 62, 106
8, 34980, Note_on_c, 4, 59, 0
8, 35012, Note_on_c, 4, 62, 0
8, 35040, Note_on_c, 4, 67, 106
8, 35065, Note_on_c, 4, 67, 0
8, 35070, Note_on_c, 4, 64, 106
8, 35095, Note_on_c, 4, 64, 0
8, 35100, Note_on_c, 4, 62, 106
8, 35125, Note_on_c, 4, 62, 0
8, 35160, Note_on_c, 4, 67, 106
8, 35185, Note_on_c, 4, 67, 0
8, 35190, Note_on_c, 4, 64, 106
8, 35215, Note_on_c, 4, 64, 0
8, 35220, Note_on_c, 4, 62, 106
8, 35245, Note_on_c, 4, 62, 0
8, 35280, Note_on_c, 4, 67, 106
8, 35305, Note_on_c, 4, 67, 0
8, 35310, Note_on_c, 4, 64, 106
8, 35335, Note_on_c, 4, 64, 0
8, 35340, Note_on_c, 4, 62, 106
8, 35365, Note_on_c, 4, 62, 0
8, 35400, Note_on_c, 4, 67, 106
8, 35425, Note_on_c, 4, 67, 0
8, 35430, Note_on_c, 4, 64, 106
8, 35455, Note_on_c, 4, 64, 0
8, 35460, Note_on_c, 4, 62, 106
8, 35485, Note_on_c, 4, 62, 0
8, 35534, Pitch_bend_c, 4, 7424
8, 35539, Pitch_bend_c, 4, 6656
8, 35544, Pitch_bend_c, 4, 5760
8, 35547, Pitch_bend_c, 4, 4864
8, 35550, Pitch_bend_c, 4, 4096
8, 35555, Pitch_bend_c, 4, 3328
8, 35559, Pitch_bend_c, 4, 2688
8, 35568, Pitch_bend_c, 4, 2176
8, 35590, Pitch_bend_c, 4, 2944
8, 35592, Note_on_c, 4, 76, 106
8, 35594, Pitch_bend_c, 4, 3712
8, 35597, Pitch_bend_c, 4, 4608
8, 35600, Pitch_bend_c, 4, 5632
8, 35603, Pitch_bend_c, 4, 6656
8, 35606, Pitch_bend_c, 4, 7808
8, 35608, Pitch_bend_c, 4, 8192
8, 35654, Note_on_c, 4, 76, 0
8, 35709, Note_on_c, 4, 79, 106
8, 35748, Note_on_c, 4, 79, 0
8, 35775, Note_on_c, 4, 71, 106
8, 35776, Note_on_c, 4, 76, 106
8, 35822, Note_on_c, 4, 76, 0
8, 35839, Note_on_c, 4, 71, 0
8, 35887, Note_on_c, 4, 73, 106
8, 35887, Note_on_c, 4, 69, 106
8, 35926, Note_on_c, 4, 73, 0
8, 35928, Note_on_c, 4, 69, 0
8, 35953, Note_on_c, 4, 67, 106
8, 35955, Note_on_c, 4, 71, 106
8, 36000, Note_on_c, 4, 71, 0
8, 36008, Note_on_c, 4, 67, 0
8, 36017, Note_on_c, 4, 64, 106
8, 36047, Note_on_c, 4, 64, 0
8, 36064, Note_on_c, 4, 73, 106
8, 36066, Note_on_c, 4, 69, 106
8, 36098, Note_on_c, 4, 69, 0
8, 36101, Note_on_c, 4, 73, 0
8, 36128, Note_on_c, 4, 67, 106
8, 36129, Note_on_c, 4, 71, 106
8, 36185, Note_on_c, 4, 71, 0
8, 36188, Note_on_c, 4, 64, 77
8, 36193, Note_on_c, 4, 67, 0
8, 36221, Note_on_c, 4, 64, 0
8, 36249, Note_on_c, 4, 67, 106
8, 36250, Note_on_c, 4, 71, 106
8, 36286, Note_on_c, 4, 71, 0
8, 36288, Note_on_c, 4, 67, 0
8, 36307, Note_on_c, 4, 67, 106
8, 36308, Note_on_c, 4, 71, 106
8, 36357, Note_on_c, 4, 71, 0
8, 36361, Note_on_c, 4, 67, 0
8, 36366, Note_on_c, 4, 64, 106
8, 36450, Note_on_c, 4, 64, 0
8, 36488, Note_on_c, 4, 64, 106
8, 36512, Note_on_c, 4, 64, 0
8, 36517, Note_on_c, 4, 66, 106
8, 36541, Note_on_c, 4, 66, 0
8, 36547, Note_on_c, 4, 67, 106
8, 36574, Note_on_c, 4, 69, 106
8, 36581, Note_on_c, 4, 67, 0
8, 36600, Note_on_c, 4, 69, 0
8, 36601, Note_on_c, 4, 71, 106
8, 36627, Note_on_c, 4, 71, 0
8, 36634, Note_on_c, 4, 66, 106
8, 36654, Note_on_c, 4, 66, 0
8, 36661, Note_on_c, 4, 67, 106
8, 36685, Note_on_c, 4, 69, 106
8, 36691, Note_on_c, 4, 67, 0
8, 36715, Note_on_c, 4, 69, 0
8, 36721, Note_on_c, 4, 73, 106
8, 36749, Note_on_c, 4, 73, 0
8, 36753, Note_on_c, 4, 71, 106
8, 36783, Note_on_c, 4, 69, 106
8, 36790, Note_on_c, 4, 71, 0
8, 36811, Note_on_c, 4, 69, 0
8, 36813, Note_on_c, 4, 67, 106
8, 36837, Note_on_c, 4, 67, 0
8, 36846, Note_on_c, 4, 71, 106
8, 36869, Note_on_c, 4, 69, 106
8, 36874, Note_on_c, 4, 71, 0
8, 36898, Note_on_c, 4, 69, 0
8, 36904, Note_on_c, 4, 67, 106
8, 36932, Note_on_c, 4, 67, 0
8, 36932, Note_on_c, 4, 66, 106
8, 36955, Note_on_c, 4, 66, 0
8, 36966, Note_on_c, 4, 64, 106
8, 36993, Note_on_c, 4, 64, 0
8, 36998, Note_on_c, 4, 62, 106
8, 37027, Note_on_c, 4, 62, 0
8, 37027, Note_on_c, 4, 59, 106
8, 37089, Note_on_c, 4, 59, 0
8, 37096, Note_on_c, 4, 59, 106
8, 37121, Note_on_c, 4, 59, 0
8, 37125, Note_on_c, 4, 57, 106
8, 37150, Note_on_c, 4, 57, 0
8, 37151, Note_on_c, 4, 55, 106
8, 37176, Note_on_c, 4, 55, 0
8, 37186, Note_on_c, 4, 59, 106
8, 37209, Note_on_c, 4, 59, 0
8, 37209, Note_on_c, 4, 57, 106
8, 37231, Pitch_bend_c, 4, 8322
8, 37234, Pitch_bend_c, 4, 9232
8, 37238, Pitch_bend_c, 4, 10142
8, 37240, Pitch_bend_c, 4, 11182
8, 37244, Pitch_bend_c, 4, 12222
8, 37247, Pitch_bend_c, 4, 13262
8, 37250, Pitch_bend_c, 4, 14302
8, 37254, Pitch_bend_c, 4, 15212
8, 37257, Pitch_bend_c, 4, 16382
8, 37286, Pitch_bend_c, 4, 14042
8, 37288, Pitch_bend_c, 4, 10142
8, 37290, Pitch_bend_c, 4, 8192
8, 37304, Note_on_c, 4, 57, 0
8, 37306, Note_on_c, 4, 55, 106
8, 37334, Note_on_c, 4, 55, 0
8, 37339, Note_on_c, 4, 52, 106
8, 37426, Note_on_c, 4, 52, 0
8, 37561, Note_on_c, 4, 71, 106
8, 37561, Note_on_c, 4, 68, 106
8, 37586, Note_on_c, 4, 68, 0
8, 37586, Note_on_c, 4, 71, 0
8, 37623, Note_on_c, 4, 73, 106
8, 37623, Note_on_c, 4, 69, 106
8, 37648, Note_on_c, 4, 69, 0
8, 37648, Note_on_c, 4, 73, 0
8, 37681, Note_on_c, 4, 71, 106
8, 37682, Note_on_c, 4, 74, 106
8, 37715, Note_on_c, 4, 74, 0
8, 37739, Note_on_c, 4, 68, 78
8, 37764, Note_on_c, 4, 68, 0
8, 37784, Note_on_c, 4, 71, 0
8, 37800, Note_on_c, 4, 73, 106
8, 37802, Note_on_c, 4, 69, 97
8, 37825, Note_on_c, 4, 73, 0
8, 37827, Note_on_c, 4, 69, 0
8, 37861, Note_on_c, 4, 71, 106
8, 37861, Note_on_c, 4, 74, 106
8, 37901, Note_on_c, 4, 74, 0
8, 37901, Note_on_c, 4, 71, 0
8, 37922, Note_on_c, 4, 74, 106
8, 37923, Note_on_c, 4, 70, 106
8, 37960, Note_on_c, 4, 74, 0
8, 37962, Note_on_c, 4, 70, 0
8, 37979, Note_on_c, 4, 69, 106
8, 37980, Note_on_c, 4, 74, 106
8, 38013, Note_on_c, 4, 74, 0
8, 38013, Note_on_c, 4, 69, 0
8, 38039, Note_on_c, 4, 74, 97
8, 38040, Note_on_c, 4, 67, 106
8, 38074, Note_on_c, 4, 67, 0
8, 38083, Note_on_c, 4, 74, 0
8, 38097, Note_on_c, 4, 69, 106
8, 38098, Note_on_c, 4, 73, 91
8, 38141, Note_on_c, 4, 73, 0
8, 38142, Note_on_c, 4, 69, 0
8, 38158, Note_on_c, 4, 67, 106
8, 38159, Note_on_c, 4, 71, 106
8, 38276, Note_on_c, 4, 67, 0
8, 38277, Note_on_c, 4, 71, 0
8, 38279, Note_on_c, 4, 64, 106
8, 38392, Note_on_c, 4, 64, 0
8, 38400, Note_on_c, 4, 73, 106
8, 38440, Note_on_c, 4, 73, 0
8, 38460, Note_on_c, 4, 72, 91
8, 38500, Note_on_c, 4, 72, 0
8, 38520, Note_on_c, 4, 71, 106
8, 38560, Note_on_c, 4, 71, 0
8, 38580, Note_on_c, 4, 72, 106
8, 38620, Note_on_c, 4, 72, 0
8, 38640, Note_on_c, 4, 71, 106
8, 38680, Note_on_c, 4, 71, 0
8, 38700, Note_on_c, 4, 70, 106
8, 38740, Note_on_c, 4, 70, 0
8, 38760, Note_on_c, 4, 71, 106
8, 38800, Note_on_c, 4, 71, 0
8, 38820, Note_on_c, 4, 70, 106
8, 38860, Note_on_c, 4, 70, 0
8, 38880, Note_on_c, 4, 69, 106
8, 38920, Note_on_c, 4, 69, 0
8, 38940, Note_on_c, 4, 70, 106
8, 38980, Note_on_c, 4, 70, 0
8, 39000, Note_on_c, 4, 69, 106
8, 39040, Note_on_c, 4, 69, 0
8, 39060, Note_on_c, 4, 68, 106
8, 39100, Note_on_c, 4, 68, 0
8, 39120, Note_on_c, 4, 69, 106
8, 39160, Note_on_c, 4, 69, 0
8, 39180, Note_on_c, 4, 67, 106
8, 39220, Note_on_c, 4, 67, 0
8, 39240, Note_on_c, 4, 64, 106
8, 39305, Note_on_c, 4, 64, 0
8, 39360, Note_on_c, 4, 52, 97
8, 39360, Note_on_c, 4, 40, 106
8, 39382, Note_on_c, 4, 40, 0
8, 39385, Note_on_c, 4, 52, 0
8, 39480, Note_on_c, 4, 52, 106
8, 39504, Note_on_c, 4, 52, 0
8, 39510, Note_on_c, 4, 40, 37
8, 39517, Note_on_c, 4, 40, 0
8, 39600, Note_on_c, 4, 52, 97
8, 39600, Note_on_c, 4, 40, 106
8, 39622, Note_on_c, 4, 40, 0
8, 39622, Note_on_c, 4, 52, 0
8, 39720, Note_on_c, 4, 40, 85
8, 39720, Note_on_c, 4, 50, 106
8, 39764, Note_on_c, 4, 40, 0
8, 39777, Note_on_c, 4, 50, 0
8, 39780, Note_on_c, 4, 40, 106
8, 39867, Note_on_c, 4, 40, 0
8, 39900, Note_on_c, 4, 40, 106
8, 39939, Note_on_c, 4, 40, 0
8, 39960, Note_on_c, 4, 52, 97
8, 39960, Note_on_c, 4, 40, 85
8, 39977, Note_on_c, 4, 52, 0
8, 39982, Note_on_c, 4, 40, 0
8, 40080, Note_on_c, 4, 52, 92
8, 40080, Note_on_c, 4, 40, 92
8, 40098, Note_on_c, 4, 40, 0
8, 40098, Note_on_c, 4, 52, 0
8, 40200, Note_on_c, 4, 52, 66
8, 40200, Note_on_c, 4, 40, 80
8, 40212, Note_on_c, 4, 52, 0
8, 40213, Note_on_c, 4, 40, 0
8, 40320, Note_on_c, 4, 52, 106
8, 40320, Note_on_c, 4, 40, 106
8, 40338, Note_on_c, 4, 52, 0
8, 40343, Note_on_c, 4, 40, 0
8, 40440, Note_on_c, 4, 40, 42
8, 40440, Note_on_c, 4, 52, 92
8, 40453, Note_on_c, 4, 40, 0
8, 40457, Note_on_c, 4, 52, 0
8, 40560, Note_on_c, 4, 52, 106
8, 40560, Note_on_c, 4, 40, 98
8, 40577, Note_on_c, 4, 40, 0
8, 40581, Note_on_c, 4, 52, 0
8, 40740, Note_on_c, 4, 40, 106
8, 40828, Note_on_c, 4, 40, 0
8, 40860, Note_on_c, 4, 40, 106
8, 40886, Note_on_c, 4, 40, 0
8, 40980, Note_on_c, 4, 40, 61
8, 40994, Note_on_c, 4, 40, 0
8, 41040, Note_on_c, 4, 50, 106
8, 41076, Note_on_c, 4, 50, 0
8, 41130, Note_on_c, 4, 40, 86
8, 41148, Note_on_c, 4, 40, 0
8, 41160, Note_on_c, 4, 49, 106
8, 41208, Note_on_c, 4, 49, 0
8, 41220, Note_on_c, 4, 40, 86
8, 41220, Note_on_c, 4, 47, 92
8, 41235, Note_on_c, 4, 40, 0
8, 41270, Note_on_c, 4, 47, 0
8, 41340, Note_on_c, 4, 40, 106
8, 41358, Note_on_c, 4, 40, 0
8, 41520, Note_on_c, 4, 52, 98
8, 41520, Note_on_c, 4, 40, 98
8, 41539, Note_on_c, 4, 52, 0
8, 41543, Note_on_c, 4, 40, 0
8, 41700, Note_on_c, 4, 52, 106
8, 41700, Note_on_c, 4, 40, 106
8, 41778, Note_on_c, 4, 52, 0
8, 41780, Note_on_c, 4, 40, 0
8, 41820, Note_on_c, 4, 40, 71
8, 41820, Note_on_c, 4, 52, 92
8, 41830, Note_on_c, 4, 40, 0
8, 41833, Note_on_c, 4, 52, 0
8, 41940, Note_on_c, 4, 40, 86
8, 41940, Note_on_c, 4, 52, 92
8, 41952, Note_on_c, 4, 40, 0
8, 41956, Note_on_c, 4, 52, 0
8, 42000, Note_on_c, 4, 50, 106
8, 42026, Note_on_c, 4, 50, 0
8, 42060, Note_on_c, 4, 40, 106
8, 42076, Note_on_c, 4, 40, 0
8, 42120, Note_on_c, 4, 50, 106
8, 42146, Note_on_c, 4, 50, 0
8, 42240, Note_on_c, 4, 52, 106
8, 42270, Note_on_c, 4, 52, 0
8, 42270, Note_on_c, 4, 50, 106
8, 42300, Note_on_c, 4, 50, 0
8, 42300, Note_on_c, 4, 52, 106
8, 42330, Note_on_c, 4, 52, 0
8, 42330, Note_on_c, 4, 50, 92
8, 42360, Note_on_c, 4, 50, 0
8, 42360, Note_on_c, 4, 52, 98
8, 42390, Note_on_c, 4, 52, 0
8, 42390, Note_on_c, 4, 50, 106
8, 42420, Note_on_c, 4, 50, 0
8, 42420, Note_on_c, 4, 52, 98
8, 42450, Note_on_c, 4, 52, 0
8, 42450, Note_on_c, 4, 50, 21
8, 42480, Note_on_c, 4, 50, 0
8, 42480, Note_on_c, 4, 52, 106
8, 42510, Note_on_c, 4, 52, 0
8, 42510, Note_on_c, 4, 50, 66
8, 42540, Note_on_c, 4, 50, 0
8, 42540, Note_on_c, 4, 52, 98
8, 42570, Note_on_c, 4, 52, 0
8, 42570, Note_on_c, 4, 50, 86
8, 42600, Note_on_c, 4, 50, 0
8, 42600, Note_on_c, 4, 52, 98
8, 42630, Note_on_c, 4, 52, 0
8, 42630, Note_on_c, 4, 50, 46
8, 42660, Note_on_c, 4, 50, 0
8, 42660, Note_on_c, 4, 52, 93
8, 42690, Note_on_c, 4, 52, 0
8, 42780, Note_on_c, 4, 47, 106
8, 42780, Note_on_c, 4, 40, 106
8, 42780, Note_on_c, 4, 52, 106
8, 42825, Note_on_c, 4, 52, 0
8, 42825, Note_on_c, 4, 40, 0
8, 42825, Note_on_c, 4, 47, 0
8, 42840, Note_on_c, 4, 47, 106
8, 42840, Note_on_c, 4, 40, 106
8, 42840, Note_on_c, 4, 52, 106
8, 42885, Note_on_c, 4, 52, 0
8, 42885, Note_on_c, 4, 40, 0
8, 42885, Note_on_c, 4, 47, 0
8, 42900, Note_on_c, 4, 40, 106
8, 42900, Note_on_c, 4, 47, 106
8, 42900, Note_on_c, 4, 52, 106
8, 42945, Note_on_c, 4, 52, 0
8, 42945, Note_on_c, 4, 47, 0
8, 42945, Note_on_c, 4, 40, 0
8, 42960, Note_on_c, 4, 40, 106
8, 42960, Note_on_c, 4, 47, 106
8, 42960, Note_on_c, 4, 52, 106
8, 43005, Note_on_c, 4, 52, 0
8, 43005, Note_on_c, 4, 47, 0
8, 43005, Note_on_c, 4, 40, 0
8, 43020, Note_on_c, 4, 40, 106
8, 43020, Note_on_c, 4, 52, 106
8, 43020, Note_on_c, 4, 47, 106
8, 43065, Note_on_c, 4, 47, 0
8, 43065, Note_on_c, 4, 52, 0
8, 43065, Note_on_c, 4, 40, 0
8, 43080, Note_on_c, 4, 40, 106
8, 43080, Note_on_c, 4, 52, 106
8, 43080, Note_on_c, 4, 47, 106
8, 43125, Note_on_c, 4, 47, 0
8, 43125, Note_on_c, 4, 52, 0
8, 43125, Note_on_c, 4, 40, 0
8, 43140, Note_on_c, 4, 52, 106
8, 43140, Note_on_c, 4, 40, 106
8, 43140, Note_on_c, 4, 47, 106
8, 43185, Note_on_c, 4, 47, 0
8, 43185, Note_on_c, 4, 40, 0
8, 43185, Note_on_c, 4, 52, 0
8, 43200, Note_on_c, 4, 47, 106
8, 43200, Note_on_c, 4, 52, 106
8, 43200, Note_on_c, 4, 40, 106
8, 43245, Note_on_c, 4, 40, 0
8, 43245, Note_on_c, 4, 52, 0
8, 43245, Note_on_c, 4, 47, 0
8, 43556, Pitch_bend_c, 4, 0
8, 43740, Note_on_c, 4, 68, 106
8, 43778, Pitch_bend_c, 4, 3844
8, 43782, Pitch_bend_c, 4, 3905
8, 43785, Pitch_bend_c, 4, 3957
8, 43788, Pitch_bend_c, 4, 4009
8, 43790, Pitch_bend_c, 4, 4044
8, 43791, Pitch_bend_c, 4, 4070
8, 43793, Pitch_bend_c, 4, 4096
8, 43857, Note_on_c, 4, 68, 0
8, 43857, Pitch_bend_c, 4, 8192
8, 43860, Note_on_c, 4, 64, 106
8, 43919, Note_on_c, 4, 64, 0
8, 43920, Note_on_c, 4, 61, 106
8, 43974, Note_on_c, 4, 61, 0
8, 43980, Note_on_c, 4, 59, 93
8, 44025, Note_on_c, 4, 59, 0
8, 44040, Note_on_c, 4, 54, 98
8, 44047, Pitch_bend_c, 4, 8452
8, 44051, Pitch_bend_c, 4, 9622
8, 44052, Pitch_bend_c, 4, 10272
8, 44054, Pitch_bend_c, 4, 10922
8, 44056, Pitch_bend_c, 4, 11572
8, 44057, Pitch_bend_c, 4, 12222
8, 44059, Pitch_bend_c, 4, 12872
8, 44060, Pitch_bend_c, 4, 13522
8, 44062, Pitch_bend_c, 4, 14172
8, 44064, Pitch_bend_c, 4, 14822
8, 44067, Pitch_bend_c, 4, 15862
8, 44069, Pitch_bend_c, 4, 16382
8, 44088, Pitch_bend_c, 4, 15342
8, 44090, Pitch_bend_c, 4, 12612
8, 44092, Pitch_bend_c, 4, 8192
8, 44100, Note_on_c, 4, 52, 106
8, 44114, Note_on_c, 4, 54, 0
8, 44156, Note_on_c, 4, 52, 0
8, 44160, Note_on_c, 4, 64, 106
8, 44520, Note_on_c, 4, 64, 0
8, 44632, Pitch_bend_c, 4, 0
8, 44700, Note_on_c, 4, 68, 106
8, 44732, Pitch_bend_c, 4, 3075
8, 44735, Pitch_bend_c, 4, 3168
8, 44738, Pitch_bend_c, 4, 3261
8, 44741, Pitch_bend_c, 4, 3369
8, 44744, Pitch_bend_c, 4, 3462
8, 44747, Pitch_bend_c, 4, 3555
8, 44751, Pitch_bend_c, 4, 3663
8, 44754, Pitch_bend_c, 4, 3755
8, 44757, Pitch_bend_c, 4, 3864
8, 44760, Pitch_bend_c, 4, 3956
8, 44763, Pitch_bend_c, 4, 4049
8, 44765, Pitch_bend_c, 4, 4096
8, 44817, Pitch_bend_c, 4, 8192
8, 44818, Note_on_c, 4, 68, 0
8, 44820, Note_on_c, 4, 64, 106
8, 44870, Note_on_c, 4, 64, 0
8, 44880, Note_on_c, 4, 61, 106
8, 44930, Note_on_c, 4, 61, 0
8, 44940, Note_on_c, 4, 59, 98
8, 44991, Note_on_c, 4, 59, 0
8, 45000, Note_on_c, 4, 54, 106
8, 45014, Pitch_bend_c, 4, 8582
8, 45016, Pitch_bend_c, 4, 9232
8, 45019, Pitch_bend_c, 4, 10402
8, 45020, Pitch_bend_c, 4, 11182
8, 45022, Pitch_bend_c, 4, 11962
8, 45024, Pitch_bend_c, 4, 12612
8, 45025, Pitch_bend_c, 4, 13392
8, 45027, Pitch_bend_c, 4, 14302
8, 45028, Pitch_bend_c, 4, 15082
8, 45030, Pitch_bend_c, 4, 15732
8, 45032, Pitch_bend_c, 4, 16382
8, 45055, Pitch_bend_c, 4, 13652
8, 45057, Pitch_bend_c, 4, 9492
8, 45058, Pitch_bend_c, 4, 8192
8, 45060, Note_on_c, 4, 52, 106
8, 45075, Note_on_c, 4, 54, 0
8, 45116, Note_on_c, 4, 52, 0
8, 45120, Note_on_c, 4, 64, 106
8, 45460, Note_on_c, 4, 64, 0
8, 45840, Note_on_c, 4, 55, 106
8, 45840, Note_on_c, 4, 64, 106
8, 45840, Note_on_c, 4, 61, 106
8, 45856, Note_on_c, 4, 61, 0
8, 45856, Note_on_c, 4, 64, 0
8, 45858, Note_on_c, 4, 55, 0
8, 46020, Note_on_c, 4, 64, 106
8, 46020, Note_on_c, 4, 61, 106
8, 46020, Note_on_c, 4, 55, 106
8, 46036, Note_on_c, 4, 64, 0
8, 46038, Note_on_c, 4, 61, 0
8, 46039, Note_on_c, 4, 55, 0
8, 46260, Note_on_c, 4, 64, 106
8, 46260, Note_on_c, 4, 55, 106
8, 46260, Note_on_c, 4, 61, 106
8, 46277, Note_on_c, 4, 64, 0
8, 46280, Note_on_c, 4, 55, 0
8, 46281, Note_on_c, 4, 61, 0
8, 46681, Note_on_c, 4, 65, 106
8, 46684, Pitch_bend_c, 4, 8322
8, 46686, Pitch_bend_c, 4, 9102
8, 46688, Pitch_bend_c, 4, 9882
8, 46690, Pitch_bend_c, 4, 10922
8, 46691, Pitch_bend_c, 4, 11572
8, 46693, Pitch_bend_c, 4, 12742
8, 46694, Pitch_bend_c, 4, 13392
8, 46695, Pitch_bend_c, 4, 14042
8, 46696, Pitch_bend_c, 4, 14822
8, 46697, Pitch_bend_c, 4, 15472
8, 46699, Pitch_bend_c, 4, 16382
8, 46769, Note_on_c, 4, 65, 0
8, 46784, Pitch_bend_c, 4, 8192
8, 46799, Note_on_c, 4, 64, 106
8, 46822, Note_on_c, 4, 64, 0
8, 46827, Note_on_c, 4, 62, 106
8, 46849, Note_on_c, 4, 62, 0
8, 46853, Note_on_c, 4, 59, 106
8, 46901, Note_on_c, 4, 59, 0
8, 46916, Note_on_c, 4, 57, 106
8, 46919, Pitch_bend_c, 4, 8322
8, 46921, Pitch_bend_c, 4, 9362
8, 46923, Pitch_bend_c, 4, 10532
8, 46924, Pitch_bend_c, 4, 11182
8, 46925, Pitch_bend_c, 4, 11962
8, 46926, Pitch_bend_c, 4, 12612
8, 46927, Pitch_bend_c, 4, 13392
8, 46928, Pitch_bend_c, 4, 14172
8, 46929, Pitch_bend_c, 4, 15082
8, 46930, Pitch_bend_c, 4, 15862
8, 46931, Pitch_bend_c, 4, 16382
8, 46948, Pitch_bend_c, 4, 15602
8, 46949, Pitch_bend_c, 4, 12872
8, 46950, Pitch_bend_c, 4, 8192
8, 46977, Note_on_c, 4, 57, 0
8, 46979, Note_on_c, 4, 55, 106
8, 47024, Note_on_c, 4, 55, 0
8, 47043, Note_on_c, 4, 64, 106
8, 47068, Note_on_c, 4, 64, 0
8, 47071, Note_on_c, 4, 62, 106
8, 47095, Note_on_c, 4, 62, 0
8, 47097, Note_on_c, 4, 59, 106
8, 47151, Note_on_c, 4, 59, 0
8, 47159, Note_on_c, 4, 64, 106
8, 47208, Note_on_c, 4, 64, 0
8, 47225, Note_on_c, 4, 62, 106
8, 47231, Pitch_bend_c, 4, 8322
8, 47234, Pitch_bend_c, 4, 9102
8, 47236, Pitch_bend_c, 4, 9752
8, 47238, Pitch_bend_c, 4, 10402
8, 47240, Pitch_bend_c, 4, 11182
8, 47242, Pitch_bend_c, 4, 12092
8, 47244, Pitch_bend_c, 4, 13002
8, 47246, Pitch_bend_c, 4, 14042
8, 47248, Pitch_bend_c, 4, 15342
8, 47250, Pitch_bend_c, 4, 16382
8, 47398, Note_on_c, 4, 62, 0
8, 47408, Pitch_bend_c, 4, 8192
8, 47640, Note_on_c, 4, 54, 106
8, 47640, Note_on_c, 4, 59, 106
8, 47854, Note_on_c, 4, 54, 0
8, 47860, Note_on_c, 4, 59, 0
8, 47880, Note_on_c, 4, 54, 106
8, 47880, Note_on_c, 4, 59, 106
8, 47960, Note_on_c, 4, 59, 0
8, 47962, Note_on_c, 4, 54, 0
8, 48000, Note_on_c, 4, 55, 106
8, 48000, Note_on_c, 4, 60, 106
8, 48192, Note_on_c, 4, 60, 0
8, 48200, Note_on_c, 4, 55, 0
8, 48240, Note_on_c, 4, 57, 106
8, 48241, Pitch_bend_c, 4, 8452
8, 48242, Pitch_bend_c, 4, 9232
8, 48245, Pitch_bend_c, 4, 10662
8, 48247, Pitch_bend_c, 4, 11572
8, 48248, Pitch_bend_c, 4, 12612
8, 48250, Pitch_bend_c, 4, 13522
8, 48251, Pitch_bend_c, 4, 14302
8, 48253, Pitch_bend_c, 4, 15082
8, 48256, Pitch_bend_c, 4, 16382
8, 48308, Note_on_c, 4, 57, 0
8, 48360, Note_on_c, 4, 57, 106
8, 48401, Pitch_bend_c, 4, 14172
8, 48403, Pitch_bend_c, 4, 10012
8, 48410, Pitch_bend_c, 4, 8192
8, 48440, Note_on_c, 4, 57, 0
8, 48450, Note_on_c, 4, 55, 106
8, 48490, Note_on_c, 4, 52, 106
8, 48492, Note_on_c, 4, 55, 0
8, 48607, Note_on_c, 4, 62, 106
8, 48620, Note_on_c, 4, 52, 0
8, 48654, Note_on_c, 4, 62, 0
8, 48667, Note_on_c, 4, 64, 106
8, 48713, Note_on_c, 4, 64, 0
8, 48733, Note_on_c, 4, 67, 106
8, 48769, Pitch_bend_c, 4, 8582
8, 48773, Pitch_bend_c, 4, 9492
8, 48775, Pitch_bend_c, 4, 10662
8, 48778, Pitch_bend_c, 4, 11312
8, 48780, Pitch_bend_c, 4, 12222
8, 48781, Pitch_bend_c, 4, 13002
8, 48782, Pitch_bend_c, 4, 14042
8, 48784, Pitch_bend_c, 4, 14822
8, 48786, Pitch_bend_c, 4, 15732
8, 48787, Pitch_bend_c, 4, 16382
8, 48802, Note_on_c, 4, 67, 0
8, 48834, Pitch_bend_c, 4, 8192
8, 48847, Note_on_c, 4, 67, 106
8, 48951, Note_on_c, 4, 67, 0
8, 48971, Note_on_c, 4, 64, 106
8, 49028, Note_on_c, 4, 62, 106
8, 49030, Note_on_c, 4, 64, 0
8, 49085, Note_on_c, 4, 62, 0
8, 49091, Note_on_c, 4, 67, 106
8, 49150, Note_on_c, 4, 67, 0
8, 49158, Note_on_c, 4, 62, 106
8, 49169, Pitch_bend_c, 4, 8192
8, 49172, Pitch_bend_c, 4, 8972
8, 49175, Pitch_bend_c, 4, 9882
8, 49178, Pitch_bend_c, 4, 10662
8, 49181, Pitch_bend_c, 4, 11572
8, 49185, Pitch_bend_c, 4, 12482
8, 49189, Pitch_bend_c, 4, 13522
8, 49192, Pitch_bend_c, 4, 14302
8, 49194, Pitch_bend_c, 4, 15082
8, 49198, Pitch_bend_c, 4, 16122
8, 49199, Pitch_bend_c, 4, 16382
8, 49375, Note_on_c, 4, 62, 0
8, 49416, Pitch_bend_c, 4, 8192
8, 49502, Note_on_c, 4, 57, 106
8, 49568, Note_on_c, 4, 59, 98
8, 49627, Note_on_c, 4, 63, 106
8, 49686, Note_on_c, 4, 66, 106
8, 49851, Note_on_c, 4, 59, 0
8, 49868, Note_on_c, 4, 57, 0
8, 49874, Note_on_c, 4, 63, 0
8, 49879, Note_on_c, 4, 66, 0
8, 49926, Note_on_c, 4, 58, 98
8, 49927, Note_on_c, 4, 64, 106
8, 49929, Note_on_c, 4, 67, 106
8, 49963, Pitch_bend_c, 4, 8842
8, 49965, Pitch_bend_c, 4, 9622
8, 49967, Pitch_bend_c, 4, 10272
8, 49968, Pitch_bend_c, 4, 11182
8, 49970, Pitch_bend_c, 4, 11962
8, 49972, Pitch_bend_c, 4, 12612
8, 49973, Pitch_bend_c, 4, 13262
8, 49975, Pitch_bend_c, 4, 14042
8, 49978, Pitch_bend_c, 4, 15082
8, 49981, Pitch_bend_c, 4, 15732
8, 49984, Pitch_bend_c, 4, 16122
8, 49993, Pitch_bend_c, 4, 15472
8, 49997, Pitch_bend_c, 4, 14822
8, 49998, Pitch_bend_c, 4, 13912
8, 50000, Pitch_bend_c, 4, 11962
8, 50002, Pitch_bend_c, 4, 8192
8, 50087, Note_on_c, 4, 64, 0
8, 50092, Note_on_c, 4, 67, 0
8, 50107, Note_on_c, 4, 58, 0
8, 50157, Note_on_c, 4, 57, 106
8, 50158, Pitch_bend_c, 4, 9362
8, 50159, Pitch_bend_c, 4, 10012
8, 50160, Note_on_c, 4, 64, 106
8, 50161, Pitch_bend_c, 4, 10662
8, 50163, Pitch_bend_c, 4, 11442
8, 50164, Pitch_bend_c, 4, 12222
8, 50165, Pitch_bend_c, 4, 13002
8, 50167, Pitch_bend_c, 4, 13912
8, 50169, Pitch_bend_c, 4, 14822
8, 50171, Pitch_bend_c, 4, 15602
8, 50174, Pitch_bend_c, 4, 16382
8, 50198, Note_on_c, 4, 57, 0
8, 50199, Pitch_bend_c, 4, 15212
8, 50200, Pitch_bend_c, 4, 12352
8, 50208, Pitch_bend_c, 4, 8192
8, 50222, Note_on_c, 4, 57, 106
8, 50274, Note_on_c, 4, 57, 0
8, 50281, Note_on_c, 4, 55, 106
8, 50386, Note_on_c, 4, 55, 0
8, 50400, Note_on_c, 4, 64, 0
8, 50400, Note_on_c, 4, 52, 106
8, 50500, Note_on_c, 4, 52, 0
8, 50520, Note_on_c, 4, 67, 106
8, 50565, Note_on_c, 4, 67, 0
8, 50600, Note_on_c, 4, 67, 106
8, 50738, Note_on_c, 4, 67, 0
8, 50760, Note_on_c, 4, 71, 106
8, 50808, Note_on_c, 4, 71, 0
8, 50840, Note_on_c, 4, 71, 106
8, 51003, Note_on_c, 4, 71, 0
8, 51010, Note_on_c, 4, 76, 106
8, 51064, Note_on_c, 4, 76, 0
8, 51076, Note_on_c, 4, 74, 106
8, 51091, Pitch_bend_c, 4, 8192
8, 51093, Pitch_bend_c, 4, 8842
8, 51097, Pitch_bend_c, 4, 9752
8, 51099, Pitch_bend_c, 4, 10792
8, 51103, Pitch_bend_c, 4, 11832
8, 51104, Pitch_bend_c, 4, 12482
8, 51108, Pitch_bend_c, 4, 13652
8, 51109, Pitch_bend_c, 4, 14302
8, 51111, Pitch_bend_c, 4, 14952
8, 51113, Pitch_bend_c, 4, 15602
8, 51114, Pitch_bend_c, 4, 16382
8, 51267, Note_on_c, 4, 74, 0
8, 51321, Pitch_bend_c, 4, 8192
8, 51422, Note_on_c, 4, 57, 106
8, 51488, Note_on_c, 4, 59, 98
8, 51547, Note_on_c, 4, 63, 106
8, 51606, Note_on_c, 4, 66, 106
8, 51771, Note_on_c, 4, 59, 0
8, 51788, Note_on_c, 4, 57, 0
8, 51794, Note_on_c, 4, 63, 0
8, 51799, Note_on_c, 4, 66, 0
8, 51846, Note_on_c, 4, 58, 98
8, 51847, Note_on_c, 4, 64, 106
8, 51849, Note_on_c, 4, 67, 106
8, 51883, Pitch_bend_c, 4, 8842
8, 51885, Pitch_bend_c, 4, 9622
8, 51887, Pitch_bend_c, 4, 10272
8, 51888, Pitch_bend_c, 4, 11182
8, 51890, Pitch_bend_c, 4, 11962
8, 51892, Pitch_bend_c, 4, 12612
8, 51893, Pitch_bend_c, 4, 13262
8, 51895, Pitch_bend_c, 4, 14042
8, 51898, Pitch_bend_c, 4, 15082
8, 51901, Pitch_bend_c, 4, 15732
8, 51904, Pitch_bend_c, 4, 16122
8, 51913, Pitch_bend_c, 4, 15472
8, 51917, Pitch_bend_c, 4, 14822
8, 51918, Pitch_bend_c, 4, 13912
8, 51920, Pitch_bend_c, 4, 11962
8, 51922, Pitch_bend_c, 4, 8192
8, 52007, Note_on_c, 4, 64, 0
8, 52012, Note_on_c, 4, 67, 0
8, 52027, Note_on_c, 4, 58, 0
8, 52077, Note_on_c, 4, 57, 106
8, 52078, Pitch_bend_c, 4, 9362
8, 52079, Pitch_bend_c, 4, 10012
8, 52080, Note_on_c, 4, 64, 106
8, 52081, Pitch_bend_c, 4, 10662
8, 52083, Pitch_bend_c, 4, 11442
8, 52084, Pitch_bend_c, 4, 12222
8, 52085, Pitch_bend_c, 4, 13002
8, 52087, Pitch_bend_c, 4, 13912
8, 52089, Pitch_bend_c, 4, 14822
8, 52091, Pitch_bend_c, 4, 15602
8, 52094, Pitch_bend_c, 4, 16382
8, 52118, Note_on_c, 4, 57, 0
8, 52119, Pitch_bend_c, 4, 15212
8, 52120, Pitch_bend_c, 4, 12352
8, 52128, Pitch_bend_c, 4, 8192
8, 52142, Note_on_c, 4, 57, 106
8, 52194, Note_on_c, 4, 57, 0
8, 52201, Note_on_c, 4, 55, 106
8, 52306, Note_on_c, 4, 55, 0
8, 52320, Note_on_c, 4, 64, 0
8, 52380, Note_on_c, 4, 47, 106
8, 52380, Note_on_c, 4, 40, 106
8, 52380, Note_on_c, 4, 52, 106
8, 52425, Note_on_c, 4, 52, 0
8, 52425, Note_on_c, 4, 40, 0
8, 52425, Note_on_c, 4, 47, 0
8, 52440, Note_on_c, 4, 47, 106
8, 52440, Note_on_c, 4, 40, 106
8, 52440, Note_on_c, 4, 52, 106
8, 52485, Note_on_c, 4, 52, 0
8, 52485, Note_on_c, 4, 40, 0
8, 52485, Note_on_c, 4, 47, 0
8, 52500, Note_on_c, 4, 40, 106
8, 52500, Note_on_c, 4, 47, 106
8, 52500, Note_on_c, 4, 52, 106
8, 52545, Note_on_c, 4, 52, 0
8, 52545, Note_on_c, 4, 47, 0
8, 52545, Note_on_c, 4, 40, 0
8, 52560, Note_on_c, 4, 40, 106
8, 52560, Note_on_c, 4, 47, 106
8, 52560, Note_on_c, 4, 52, 106
8, 52605, Note_on_c, 4, 52, 0
8, 52605, Note_on_c, 4, 47, 0
8, 52605, Note_on_c, 4, 40, 0
8, 52620, Note_on_c, 4, 40, 106
8, 52620, Note_on_c, 4, 52, 106
8, 52620, Note_on_c, 4, 47, 106
8, 52665, Note_on_c, 4, 47, 0
8, 52665, Note_on_c, 4, 52, 0
8, 52665, Note_on_c, 4, 40, 0
8, 52680, Note_on_c, 4, 40, 106
8, 52680, Note_on_c, 4, 52, 106
8, 52680, Note_on_c, 4, 47, 106
8, 52725, Note_on_c, 4, 47, 0
8, 52725, Note_on_c, 4, 52, 0
8, 52725, Note_on_c, 4, 40, 0
8, 52740, Note_on_c, 4, 52, 106
8, 52740, Note_on_c, 4, 40, 106
8, 52740, Note_on_c, 4, 47, 106
8, 52785, Note_on_c, 4, 47, 0
8, 52785, Note_on_c, 4, 40, 0
8, 52785, Note_on_c, 4, 52, 0
8, 52800, Note_on_c, 4, 47, 106
8, 52800, Note_on_c, 4, 52, 106
8, 52800, Note_on_c, 4, 40, 106
8, 52845, Note_on_c, 4, 40, 0
8, 52845, Note_on_c, 4, 52, 0
8, 52845, Note_on_c, 4, 47, 0
8, 53157, Pitch_bend_c, 4, 8192
8, 53157, End_track
9, 0, Start_track
9, 0, MIDI_port, 0
9, 0, Program_c, 5, 34
9, 0, Control_c, 5, 0, 0
9, 139, Control_c, 5, 7, 127
9, 139, Control_c, 5, 10, 74
9, 17770, Note_on_c, 5, 62, 78
9, 17829, Note_on_c, 5, 62, 0
9, 17886, Note_on_c, 5, 62, 78
9, 17962, Note_on_c, 5, 62, 0
9, 18011, Note_on_c, 5, 59, 74
9, 18144, Note_on_c, 5, 59, 0
9, 18725, Note_on_c, 5, 62, 78
9, 18785, Note_on_c, 5, 62, 0
9, 18844, Note_on_c, 5, 62, 78
9, 18920, Note_on_c, 5, 62, 0
9, 18973, Note_on_c, 5, 59, 78
9, 19108, Note_on_c, 5, 59, 0
9, 32773, Note_on_c, 5, 67, 78
9, 32854, Note_on_c, 5, 67, 0
9, 32898, Note_on_c, 5, 67, 78
9, 32981, Note_on_c, 5, 67, 0
9, 33010, Note_on_c, 5, 67, 78
9, 33096, Note_on_c, 5, 67, 0
9, 33129, Note_on_c, 5, 67, 78
9, 33215, Note_on_c, 5, 67, 0
9, 33251, Note_on_c, 5, 67, 78
9, 33328, Note_on_c, 5, 67, 0
9, 33367, Note_on_c, 5, 67, 78
9, 33448, Note_on_c, 5, 67, 0
9, 33488, Note_on_c, 5, 67, 78
9, 33565, Note_on_c, 5, 67, 0
9, 33609, Note_on_c, 5, 67, 78
9, 33686, Note_on_c, 5, 67, 0
9, 33730, Note_on_c, 5, 67, 78
9, 33807, Note_on_c, 5, 67, 0
9, 33854, Note_on_c, 5, 67, 78
9, 33940, Note_on_c, 5, 67, 0
9, 33972, Note_on_c, 5, 67, 78
9, 34060, Note_on_c, 5, 67, 0
9, 34091, Note_on_c, 5, 67, 78
9, 34182, Note_on_c, 5, 67, 0
9, 34566, Note_on_c, 5, 67, 78
9, 34648, Note_on_c, 5, 67, 0
9, 34689, Note_on_c, 5, 67, 78
9, 34773, Note_on_c, 5, 67, 0
9, 34809, Note_on_c, 5, 67, 78
9, 34894, Note_on_c, 5, 67, 0
9, 34929, Note_on_c, 5, 67, 78
9, 35004, Note_on_c, 5, 67, 0
9, 38400, Note_on_c, 5, 81, 62
9, 38440, Note_on_c, 5, 81, 0
9, 38460, Note_on_c, 5, 80, 77
9, 38500, Note_on_c, 5, 80, 0
9, 38520, Note_on_c, 5, 79, 62
9, 38560, Note_on_c, 5, 79, 0
9, 38580, Note_on_c, 5, 80, 77
9, 38620, Note_on_c, 5, 80, 0
9, 38640, Note_on_c, 5, 79, 77
9, 38680, Note_on_c, 5, 79, 0
9, 38700, Note_on_c, 5, 78, 69
9, 38740, Note_on_c, 5, 78, 0
9, 38760, Note_on_c, 5, 79, 77
9, 38800, Note_on_c, 5, 79, 0
9, 38820, Note_on_c, 5, 78, 77
9, 38860, Note_on_c, 5, 78, 0
9, 38880, Note_on_c, 5, 77, 69
9, 38920, Note_on_c, 5, 77, 0
9, 38940, Note_on_c, 5, 78, 62
9, 38980, Note_on_c, 5, 78, 0
9, 39000, Note_on_c, 5, 77, 78
9, 39040, Note_on_c, 5, 77, 0
9, 39060, Note_on_c, 5, 76, 77
9, 39100, Note_on_c, 5, 76, 0
9, 39120, Note_on_c, 5, 76, 77
9, 39160, Note_on_c, 5, 76, 0
9, 39180, Note_on_c, 5, 76, 77
9, 39220, Note_on_c, 5, 76, 0
9, 39240, Note_on_c, 5, 76, 78
9, 39310, Note_on_c, 5, 76, 0
9, 50507, Pitch_bend_c, 5, 0
9, 50520, Note_on_c, 5, 62, 79
9, 50527, Pitch_bend_c, 5, 1408
9, 50556, Pitch_bend_c, 5, 2816
9, 50562, Pitch_bend_c, 5, 4224
9, 50567, Pitch_bend_c, 5, 6144
9, 50572, Pitch_bend_c, 5, 8192
9, 50576, Note_on_c, 5, 62, 0
9, 50600, Note_on_c, 5, 62, 79
9, 50701, Note_on_c, 5, 62, 0
9, 50733, Pitch_bend_c, 5, 6528
9, 50739, Pitch_bend_c, 5, 4992
9, 50746, Pitch_bend_c, 5, 3456
9, 50755, Pitch_bend_c, 5, 2048
9, 50760, Note_on_c, 5, 67, 79
9, 50765, Pitch_bend_c, 5, 1664
9, 50825, Note_on_c, 5, 67, 0
9, 50840, Note_on_c, 5, 67, 79
9, 50848, Pitch_bend_c, 5, 8192
9, 50959, Note_on_c, 5, 67, 0
9, 50959, End_track
10, 0, Start_track
10, 0, MIDI_port, 0
10, 0, Program_c, 6, 110
10, 0, Control_c, 6, 0, 0
10, 141, Control_c, 6, 7, 127
10, 141, Control_c, 6, 10, 66
10, 1020, Note_on_c, 6, 71, 54
10, 1020, Note_on_c, 6, 76, 54
10, 1060, Note_on_c, 6, 76, 0
10, 1060, Note_on_c, 6, 71, 0
10, 1080, Note_on_c, 6, 71, 61
10, 1080, Note_on_c, 6, 76, 54
10, 1120, Note_on_c, 6, 76, 0
10, 1120, Note_on_c, 6, 71, 0
10, 1140, Note_on_c, 6, 71, 49
10, 1140, Note_on_c, 6, 76, 54
10, 1180, Note_on_c, 6, 76, 0
10, 1180, Note_on_c, 6, 71, 0
10, 1200, Note_on_c, 6, 71, 54
10, 1200, Note_on_c, 6, 76, 61
10, 1240, Note_on_c, 6, 76, 0
10, 1240, Note_on_c, 6, 71, 0
10, 1260, Note_on_c, 6, 71, 61
10, 1260, Note_on_c, 6, 76, 61
10, 1300, Note_on_c, 6, 76, 0
10, 1300, Note_on_c, 6, 71, 0
10, 1320, Note_on_c, 6, 71, 54
10, 1320, Note_on_c, 6, 76, 61
10, 1360, Note_on_c, 6, 76, 0
10, 1360, Note_on_c, 6, 71, 0
10, 1380, Note_on_c, 6, 71, 54
10, 1380, Note_on_c, 6, 76, 54
10, 1420, Note_on_c, 6, 76, 0
10, 1420, Note_on_c, 6, 71, 0
10, 1440, Note_on_c, 6, 71, 61
10, 1440, Note_on_c, 6, 76, 61
10, 1480, Note_on_c, 6, 76, 0
10, 1480, Note_on_c, 6, 71, 0
10, 1796, Pitch_bend_c, 6, 0
10, 1980, Note_on_c, 6, 80, 54
10, 2018, Pitch_bend_c, 6, 3844
10, 2022, Pitch_bend_c, 6, 3905
10, 2025, Pitch_bend_c, 6, 3957
10, 2028, Pitch_bend_c, 6, 4009
10, 2030, Pitch_bend_c, 6, 4044
10, 2031, Pitch_bend_c, 6, 4070
10, 2033, Pitch_bend_c, 6, 4096
10, 2097, Note_on_c, 6, 80, 0
10, 2097, Pitch_bend_c, 6, 8192
10, 2100, Note_on_c, 6, 76, 54
10, 2159, Note_on_c, 6, 76, 0
10, 2160, Note_on_c, 6, 73, 54
10, 2214, Note_on_c, 6, 73, 0
10, 2220, Note_on_c, 6, 71, 54
10, 2265, Note_on_c, 6, 71, 0
10, 2280, Note_on_c, 6, 66, 54
10, 2289, Pitch_bend_c, 6, 8972
10, 2291, Pitch_bend_c, 6, 9622
10, 2292, Pitch_bend_c, 6, 10272
10, 2294, Pitch_bend_c, 6, 10922
10, 2296, Pitch_bend_c, 6, 11572
10, 2297, Pitch_bend_c, 6, 12222
10, 2299, Pitch_bend_c, 6, 12872
10, 2300, Pitch_bend_c, 6, 13522
10, 2302, Pitch_bend_c, 6, 14172
10, 2304, Pitch_bend_c, 6, 14822
10, 2307, Pitch_bend_c, 6, 15862
10, 2309, Pitch_bend_c, 6, 16382
10, 2328, Pitch_bend_c, 6, 15342
10, 2330, Pitch_bend_c, 6, 12612
10, 2332, Pitch_bend_c, 6, 8192
10, 2340, Note_on_c, 6, 64, 54
10, 2354, Note_on_c, 6, 66, 0
10, 2385, Note_on_c, 6, 64, 0
10, 2400, Note_on_c, 6, 76, 61
10, 2760, Note_on_c, 6, 76, 0
10, 2872, Pitch_bend_c, 6, 0
10, 2940, Note_on_c, 6, 80, 61
10, 2972, Pitch_bend_c, 6, 3111
10, 2975, Pitch_bend_c, 6, 3204
10, 2978, Pitch_bend_c, 6, 3298
10, 2981, Pitch_bend_c, 6, 3408
10, 2984, Pitch_bend_c, 6, 3501
10, 2987, Pitch_bend_c, 6, 3595
10, 2991, Pitch_bend_c, 6, 3705
10, 2994, Pitch_bend_c, 6, 3798
10, 2997, Pitch_bend_c, 6, 3908
10, 3000, Pitch_bend_c, 6, 4002
10, 3003, Pitch_bend_c, 6, 4096
10, 3057, Pitch_bend_c, 6, 8192
10, 3058, Note_on_c, 6, 80, 0
10, 3060, Note_on_c, 6, 76, 54
10, 3110, Note_on_c, 6, 76, 0
10, 3120, Note_on_c, 6, 73, 54
10, 3170, Note_on_c, 6, 73, 0
10, 3180, Note_on_c, 6, 71, 54
10, 3231, Note_on_c, 6, 71, 0
10, 3240, Note_on_c, 6, 66, 54
10, 3254, Pitch_bend_c, 6, 8582
10, 3256, Pitch_bend_c, 6, 9232
10, 3259, Pitch_bend_c, 6, 10402
10, 3260, Pitch_bend_c, 6, 11182
10, 3262, Pitch_bend_c, 6, 11962
10, 3264, Pitch_bend_c, 6, 12612
10, 3265, Pitch_bend_c, 6, 13392
10, 3267, Pitch_bend_c, 6, 14302
10, 3268, Pitch_bend_c, 6, 15082
10, 3270, Pitch_bend_c, 6, 15732
10, 3272, Pitch_bend_c, 6, 16382
10, 3295, Pitch_bend_c, 6, 13652
10, 3297, Pitch_bend_c, 6, 9492
10, 3300, Pitch_bend_c, 6, 8192
10, 3300, Note_on_c, 6, 64, 54
10, 3315, Note_on_c, 6, 66, 0
10, 3341, Note_on_c, 6, 64, 0
10, 3360, Note_on_c, 6, 76, 66
10, 3720, Note_on_c, 6, 76, 0
10, 8280, Note_on_c, 6, 76, 61
10, 8310, Note_on_c, 6, 76, 0
10, 8310, Note_on_c, 6, 74, 61
10, 8340, Note_on_c, 6, 76, 66
10, 8350, Note_on_c, 6, 74, 0
10, 8380, Note_on_c, 6, 76, 0
10, 9240, Note_on_c, 6, 74, 54
10, 9270, Note_on_c, 6, 74, 0
10, 9270, Note_on_c, 6, 73, 61
10, 9296, Note_on_c, 6, 73, 0
10, 9300, Note_on_c, 6, 74, 54
10, 9340, Note_on_c, 6, 74, 0
10, 10380, Note_on_c, 6, 71, 54
10, 10380, Note_on_c, 6, 59, 49
10, 10426, Note_on_c, 6, 59, 0
10, 10428, Note_on_c, 6, 71, 0
10, 10440, Note_on_c, 6, 74, 61
10, 10440, Note_on_c, 6, 62, 54
10, 10481, Note_on_c, 6, 74, 0
10, 10491, Note_on_c, 6, 62, 0
10, 10500, Note_on_c, 6, 64, 54
10, 10500, Note_on_c, 6, 76, 61
10, 10545, Note_on_c, 6, 64, 0
10, 10551, Note_on_c, 6, 76, 0
10, 10560, Note_on_c, 6, 64, 54
10, 10560, Note_on_c, 6, 76, 61
10, 10606, Note_on_c, 6, 76, 0
10, 10606, Note_on_c, 6, 64, 0
10, 11100, Note_on_c, 6, 71, 54
10, 11100, Note_on_c, 6, 76, 54
10, 11140, Note_on_c, 6, 76, 0
10, 11140, Note_on_c, 6, 71, 0
10, 11160, Note_on_c, 6, 71, 61
10, 11160, Note_on_c, 6, 76, 54
10, 11200, Note_on_c, 6, 76, 0
10, 11200, Note_on_c, 6, 71, 0
10, 11220, Note_on_c, 6, 71, 49
10, 11220, Note_on_c, 6, 76, 54
10, 11260, Note_on_c, 6, 76, 0
10, 11260, Note_on_c, 6, 71, 0
10, 11280, Note_on_c, 6, 71, 54
10, 11280, Note_on_c, 6, 76, 61
10, 11320, Note_on_c, 6, 76, 0
10, 11320, Note_on_c, 6, 71, 0
10, 11340, Note_on_c, 6, 71, 61
10, 11340, Note_on_c, 6, 76, 61
10, 11380, Note_on_c, 6, 76, 0
10, 11380, Note_on_c, 6, 71, 0
10, 11400, Note_on_c, 6, 71, 54
10, 11400, Note_on_c, 6, 76, 61
10, 11440, Note_on_c, 6, 76, 0
10, 11440, Note_on_c, 6, 71, 0
10, 11460, Note_on_c, 6, 71, 54
10, 11460, Note_on_c, 6, 76, 54
10, 11500, Note_on_c, 6, 76, 0
10, 11500, Note_on_c, 6, 71, 0
10, 11520, Note_on_c, 6, 71, 61
10, 11520, Note_on_c, 6, 76, 61
10, 11560, Note_on_c, 6, 76, 0
10, 11560, Note_on_c, 6, 71, 0
10, 11876, Pitch_bend_c, 6, 0
10, 12060, Note_on_c, 6, 80, 54
10, 12098, Pitch_bend_c, 6, 3844
10, 12102, Pitch_bend_c, 6, 3905
10, 12105, Pitch_bend_c, 6, 3957
10, 12108, Pitch_bend_c, 6, 4009
10, 12110, Pitch_bend_c, 6, 4044
10, 12111, Pitch_bend_c, 6, 4070
10, 12113, Pitch_bend_c, 6, 4096
10, 12177, Note_on_c, 6, 80, 0
10, 12179, Pitch_bend_c, 6, 8192
10, 12180, Note_on_c, 6, 76, 54
10, 12239, Note_on_c, 6, 76, 0
10, 12240, Note_on_c, 6, 73, 54
10, 12294, Note_on_c, 6, 73, 0
10, 12300, Note_on_c, 6, 71, 54
10, 12345, Note_on_c, 6, 71, 0
10, 12360, Note_on_c, 6, 66, 54
10, 12369, Pitch_bend_c, 6, 8972
10, 12371, Pitch_bend_c, 6, 9622
10, 12372, Pitch_bend_c, 6, 10272
10, 12374, Pitch_bend_c, 6, 10922
10, 12376, Pitch_bend_c, 6, 11572
10, 12377, Pitch_bend_c, 6, 12222
10, 12379, Pitch_bend_c, 6, 12872
10, 12380, Pitch_bend_c, 6, 13522
10, 12382, Pitch_bend_c, 6, 14172
10, 12384, Pitch_bend_c, 6, 14822
10, 12387, Pitch_bend_c, 6, 15862
10, 12389, Pitch_bend_c, 6, 16382
10, 12408, Pitch_bend_c, 6, 15342
10, 12410, Pitch_bend_c, 6, 12612
10, 12412, Pitch_bend_c, 6, 8192
10, 12420, Note_on_c, 6, 64, 54
10, 12434, Note_on_c, 6, 66, 0
10, 12465, Note_on_c, 6, 64, 0
10, 12480, Note_on_c, 6, 76, 61
10, 12840, Note_on_c, 6, 76, 0
10, 12952, Pitch_bend_c, 6, 0
10, 13020, Note_on_c, 6, 80, 61
10, 13052, Pitch_bend_c, 6, 3075
10, 13055, Pitch_bend_c, 6, 3168
10, 13058, Pitch_bend_c, 6, 3261
10, 13061, Pitch_bend_c, 6, 3369
10, 13064, Pitch_bend_c, 6, 3462
10, 13067, Pitch_bend_c, 6, 3555
10, 13071, Pitch_bend_c, 6, 3663
10, 13074, Pitch_bend_c, 6, 3755
10, 13077, Pitch_bend_c, 6, 3864
10, 13080, Pitch_bend_c, 6, 3956
10, 13083, Pitch_bend_c, 6, 4049
10, 13085, Pitch_bend_c, 6, 4096
10, 13138, Note_on_c, 6, 80, 0
10, 13139, Pitch_bend_c, 6, 8192
10, 13140, Note_on_c, 6, 76, 54
10, 13190, Note_on_c, 6, 76, 0
10, 13200, Note_on_c, 6, 73, 54
10, 13250, Note_on_c, 6, 73, 0
10, 13260, Note_on_c, 6, 71, 54
10, 13311, Note_on_c, 6, 71, 0
10, 13320, Note_on_c, 6, 66, 54
10, 13334, Pitch_bend_c, 6, 8582
10, 13336, Pitch_bend_c, 6, 9232
10, 13339, Pitch_bend_c, 6, 10402
10, 13340, Pitch_bend_c, 6, 11182
10, 13342, Pitch_bend_c, 6, 11962
10, 13344, Pitch_bend_c, 6, 12612
10, 13345, Pitch_bend_c, 6, 13392
10, 13347, Pitch_bend_c, 6, 14302
10, 13348, Pitch_bend_c, 6, 15082
10, 13350, Pitch_bend_c, 6, 15732
10, 13352, Pitch_bend_c, 6, 16382
10, 13375, Pitch_bend_c, 6, 13652
10, 13377, Pitch_bend_c, 6, 9492
10, 13379, Pitch_bend_c, 6, 8192
10, 13380, Note_on_c, 6, 64, 54
10, 13395, Note_on_c, 6, 66, 0
10, 13421, Note_on_c, 6, 64, 0
10, 13440, Note_on_c, 6, 76, 66
10, 13800, Note_on_c, 6, 76, 0
10, 24120, Note_on_c, 6, 76, 61
10, 24150, Note_on_c, 6, 76, 0
10, 24150, Note_on_c, 6, 74, 61
10, 24180, Note_on_c, 6, 76, 67
10, 24190, Note_on_c, 6, 74, 0
10, 24220, Note_on_c, 6, 76, 0
10, 25080, Note_on_c, 6, 74, 55
10, 25110, Note_on_c, 6, 74, 0
10, 25110, Note_on_c, 6, 73, 61
10, 25136, Note_on_c, 6, 73, 0
10, 25140, Note_on_c, 6, 74, 55
10, 25180, Note_on_c, 6, 74, 0
10, 26220, Note_on_c, 6, 71, 55
10, 26220, Note_on_c, 6, 59, 50
10, 26266, Note_on_c, 6, 59, 0
10, 26268, Note_on_c, 6, 71, 0
10, 26280, Note_on_c, 6, 74, 61
10, 26280, Note_on_c, 6, 62, 55
10, 26321, Note_on_c, 6, 74, 0
10, 26331, Note_on_c, 6, 62, 0
10, 26340, Note_on_c, 6, 64, 55
10, 26340, Note_on_c, 6, 76, 61
10, 26385, Note_on_c, 6, 64, 0
10, 26391, Note_on_c, 6, 76, 0
10, 26400, Note_on_c, 6, 64, 55
10, 26400, Note_on_c, 6, 76, 61
10, 26446, Note_on_c, 6, 76, 0
10, 26446, Note_on_c, 6, 64, 0
10, 26940, Note_on_c, 6, 71, 56
10, 26940, Note_on_c, 6, 76, 56
10, 26980, Note_on_c, 6, 76, 0
10, 26980, Note_on_c, 6, 71, 0
10, 27000, Note_on_c, 6, 71, 62
10, 27000, Note_on_c, 6, 76, 56
10, 27040, Note_on_c, 6, 76, 0
10, 27040, Note_on_c, 6, 71, 0
10, 27060, Note_on_c, 6, 71, 51
10, 27060, Note_on_c, 6, 76, 56
10, 27100, Note_on_c, 6, 76, 0
10, 27100, Note_on_c, 6, 71, 0
10, 27120, Note_on_c, 6, 71, 56
10, 27120, Note_on_c, 6, 76, 62
10, 27160, Note_on_c, 6, 76, 0
10, 27160, Note_on_c, 6, 71, 0
10, 27180, Note_on_c, 6, 71, 62
10, 27180, Note_on_c, 6, 76, 62
10, 27220, Note_on_c, 6, 76, 0
10, 27220, Note_on_c, 6, 71, 0
10, 27240, Note_on_c, 6, 71, 56
10, 27240, Note_on_c, 6, 76, 62
10, 27280, Note_on_c, 6, 76, 0
10, 27280, Note_on_c, 6, 71, 0
10, 27300, Note_on_c, 6, 71, 56
10, 27300, Note_on_c, 6, 76, 56
10, 27340, Note_on_c, 6, 76, 0
10, 27340, Note_on_c, 6, 71, 0
10, 27360, Note_on_c, 6, 71, 62
10, 27360, Note_on_c, 6, 76, 62
10, 27400, Note_on_c, 6, 76, 0
10, 27400, Note_on_c, 6, 71, 0
10, 27716, Pitch_bend_c, 6, 0
10, 27900, Note_on_c, 6, 80, 56
10, 27938, Pitch_bend_c, 6, 3844
10, 27942, Pitch_bend_c, 6, 3905
10, 27945, Pitch_bend_c, 6, 3957
10, 27948, Pitch_bend_c, 6, 4009
10, 27950, Pitch_bend_c, 6, 4044
10, 27951, Pitch_bend_c, 6, 4070
10, 27953, Pitch_bend_c, 6, 4096
10, 28017, Note_on_c, 6, 80, 0
10, 28019, Pitch_bend_c, 6, 8192
10, 28020, Note_on_c, 6, 76, 55
10, 28079, Note_on_c, 6, 76, 0
10, 28080, Note_on_c, 6, 73, 55
10, 28134, Note_on_c, 6, 73, 0
10, 28140, Note_on_c, 6, 71, 55
10, 28185, Note_on_c, 6, 71, 0
10, 28200, Note_on_c, 6, 66, 55
10, 28209, Pitch_bend_c, 6, 8972
10, 28211, Pitch_bend_c, 6, 9622
10, 28212, Pitch_bend_c, 6, 10272
10, 28214, Pitch_bend_c, 6, 10922
10, 28216, Pitch_bend_c, 6, 11572
10, 28217, Pitch_bend_c, 6, 12222
10, 28219, Pitch_bend_c, 6, 12872
10, 28220, Pitch_bend_c, 6, 13522
10, 28222, Pitch_bend_c, 6, 14172
10, 28224, Pitch_bend_c, 6, 14822
10, 28227, Pitch_bend_c, 6, 15862
10, 28229, Pitch_bend_c, 6, 16382
10, 28248, Pitch_bend_c, 6, 15342
10, 28250, Pitch_bend_c, 6, 12612
10, 28252, Pitch_bend_c, 6, 8192
10, 28260, Note_on_c, 6, 64, 55
10, 28274, Note_on_c, 6, 66, 0
10, 28305, Note_on_c, 6, 64, 0
10, 28320, Note_on_c, 6, 76, 62
10, 28680, Note_on_c, 6, 76, 0
10, 28792, Pitch_bend_c, 6, 0
10, 28860, Note_on_c, 6, 80, 62
10, 28892, Pitch_bend_c, 6, 3111
10, 28895, Pitch_bend_c, 6, 3204
10, 28898, Pitch_bend_c, 6, 3298
10, 28901, Pitch_bend_c, 6, 3408
10, 28904, Pitch_bend_c, 6, 3501
10, 28907, Pitch_bend_c, 6, 3595
10, 28911, Pitch_bend_c, 6, 3705
10, 28914, Pitch_bend_c, 6, 3798
10, 28917, Pitch_bend_c, 6, 3908
10, 28920, Pitch_bend_c, 6, 4002
10, 28923, Pitch_bend_c, 6, 4096
10, 28978, Note_on_c, 6, 80, 0
10, 28979, Pitch_bend_c, 6, 8192
10, 28980, Note_on_c, 6, 76, 55
10, 29030, Note_on_c, 6, 76, 0
10, 29040, Note_on_c, 6, 73, 55
10, 29090, Note_on_c, 6, 73, 0
10, 29100, Note_on_c, 6, 71, 55
10, 29151, Note_on_c, 6, 71, 0
10, 29160, Note_on_c, 6, 66, 55
10, 29174, Pitch_bend_c, 6, 8582
10, 29176, Pitch_bend_c, 6, 9232
10, 29179, Pitch_bend_c, 6, 10402
10, 29180, Pitch_bend_c, 6, 11182
10, 29182, Pitch_bend_c, 6, 11962
10, 29184, Pitch_bend_c, 6, 12612
10, 29185, Pitch_bend_c, 6, 13392
10, 29187, Pitch_bend_c, 6, 14302
10, 29188, Pitch_bend_c, 6, 15082
10, 29190, Pitch_bend_c, 6, 15732
10, 29192, Pitch_bend_c, 6, 16382
10, 29215, Pitch_bend_c, 6, 13652
10, 29217, Pitch_bend_c, 6, 9492
10, 29219, Pitch_bend_c, 6, 8192
10, 29220, Note_on_c, 6, 64, 55
10, 29235, Note_on_c, 6, 66, 0
10, 29261, Note_on_c, 6, 64, 0
10, 29280, Note_on_c, 6, 76, 68
10, 29640, Note_on_c, 6, 76, 0
10, 39960, Note_on_c, 6, 76, 62
10, 39990, Note_on_c, 6, 76, 0
10, 39990, Note_on_c, 6, 74, 62
10, 40020, Note_on_c, 6, 76, 68
10, 40030, Note_on_c, 6, 74, 0
10, 40060, Note_on_c, 6, 76, 0
10, 40920, Note_on_c, 6, 74, 56
10, 40950, Note_on_c, 6, 74, 0
10, 40950, Note_on_c, 6, 73, 62
10, 40976, Note_on_c, 6, 73, 0
10, 40980, Note_on_c, 6, 74, 56
10, 41020, Note_on_c, 6, 74, 0
10, 42060, Note_on_c, 6, 71, 56
10, 42060, Note_on_c, 6, 59, 51
10, 42106, Note_on_c, 6, 59, 0
10, 42108, Note_on_c, 6, 71, 0
10, 42120, Note_on_c, 6, 74, 62
10, 42120, Note_on_c, 6, 62, 56
10, 42161, Note_on_c, 6, 74, 0
10, 42171, Note_on_c, 6, 62, 0
10, 42180, Note_on_c, 6, 64, 56
10, 42180, Note_on_c, 6, 76, 62
10, 42225, Note_on_c, 6, 64, 0
10, 42231, Note_on_c, 6, 76, 0
10, 42240, Note_on_c, 6, 64, 56
10, 42240, Note_on_c, 6, 76, 62
10, 42286, Note_on_c, 6, 76, 0
10, 42286, Note_on_c, 6, 64, 0
10, 42780, Note_on_c, 6, 71, 56
10, 42780, Note_on_c, 6, 76, 56
10, 42820, Note_on_c, 6, 76, 0
10, 42820, Note_on_c, 6, 71, 0
10, 42840, Note_on_c, 6, 71, 62
10, 42840, Note_on_c, 6, 76, 56
10, 42880, Note_on_c, 6, 76, 0
10, 42880, Note_on_c, 6, 71, 0
10, 42900, Note_on_c, 6, 71, 51
10, 42900, Note_on_c, 6, 76, 56
10, 42940, Note_on_c, 6, 76, 0
10, 42940, Note_on_c, 6, 71, 0
10, 42960, Note_on_c, 6, 71, 56
10, 42960, Note_on_c, 6, 76, 62
10, 43000, Note_on_c, 6, 76, 0
10, 43000, Note_on_c, 6, 71, 0
10, 43020, Note_on_c, 6, 71, 62
10, 43020, Note_on_c, 6, 76, 62
10, 43060, Note_on_c, 6, 76, 0
10, 43060, Note_on_c, 6, 71, 0
10, 43080, Note_on_c, 6, 71, 56
10, 43080, Note_on_c, 6, 76, 62
10, 43120, Note_on_c, 6, 76, 0
10, 43120, Note_on_c, 6, 71, 0
10, 43140, Note_on_c, 6, 71, 56
10, 43140, Note_on_c, 6, 76, 56
10, 43180, Note_on_c, 6, 76, 0
10, 43180, Note_on_c, 6, 71, 0
10, 43200, Note_on_c, 6, 71, 62
10, 43200, Note_on_c, 6, 76, 62
10, 43240, Note_on_c, 6, 76, 0
10, 43240, Note_on_c, 6, 71, 0
10, 43556, Pitch_bend_c, 6, 0
10, 43740, Note_on_c, 6, 80, 56
10, 43778, Pitch_bend_c, 6, 3844
10, 43782, Pitch_bend_c, 6, 3905
10, 43785, Pitch_bend_c, 6, 3957
10, 43788, Pitch_bend_c, 6, 4009
10, 43790, Pitch_bend_c, 6, 4044
10, 43791, Pitch_bend_c, 6, 4070
10, 43793, Pitch_bend_c, 6, 4096
10, 43857, Note_on_c, 6, 80, 0
10, 43859, Pitch_bend_c, 6, 8192
10, 43860, Note_on_c, 6, 76, 56
10, 43919, Note_on_c, 6, 76, 0
10, 43920, Note_on_c, 6, 73, 56
10, 43974, Note_on_c, 6, 73, 0
10, 43980, Note_on_c, 6, 71, 56
10, 44025, Note_on_c, 6, 71, 0
10, 44040, Note_on_c, 6, 66, 56
10, 44049, Pitch_bend_c, 6, 8972
10, 44051, Pitch_bend_c, 6, 9622
10, 44052, Pitch_bend_c, 6, 10272
10, 44054, Pitch_bend_c, 6, 10922
10, 44056, Pitch_bend_c, 6, 11572
10, 44057, Pitch_bend_c, 6, 12222
10, 44059, Pitch_bend_c, 6, 12872
10, 44060, Pitch_bend_c, 6, 13522
10, 44062, Pitch_bend_c, 6, 14172
10, 44064, Pitch_bend_c, 6, 14822
10, 44067, Pitch_bend_c, 6, 15862
10, 44069, Pitch_bend_c, 6, 16382
10, 44088, Pitch_bend_c, 6, 15342
10, 44090, Pitch_bend_c, 6, 12612
10, 44092, Pitch_bend_c, 6, 8192
10, 44100, Note_on_c, 6, 64, 56
10, 44114, Note_on_c, 6, 66, 0
10, 44145, Note_on_c, 6, 64, 0
10, 44160, Note_on_c, 6, 76, 62
10, 44520, Note_on_c, 6, 76, 0
10, 44632, Pitch_bend_c, 6, 0
10, 44700, Note_on_c, 6, 80, 62
10, 44732, Pitch_bend_c, 6, 3111
10, 44735, Pitch_bend_c, 6, 3204
10, 44738, Pitch_bend_c, 6, 3298
10, 44741, Pitch_bend_c, 6, 3408
10, 44744, Pitch_bend_c, 6, 3501
10, 44747, Pitch_bend_c, 6, 3595
10, 44751, Pitch_bend_c, 6, 3705
10, 44754, Pitch_bend_c, 6, 3798
10, 44757, Pitch_bend_c, 6, 3908
10, 44760, Pitch_bend_c, 6, 4002
10, 44763, Pitch_bend_c, 6, 4096
10, 44818, Note_on_c, 6, 80, 0
10, 44819, Pitch_bend_c, 6, 8192
10, 44820, Note_on_c, 6, 76, 56
10, 44870, Note_on_c, 6, 76, 0
10, 44880, Note_on_c, 6, 73, 56
10, 44930, Note_on_c, 6, 73, 0
10, 44940, Note_on_c, 6, 71, 56
10, 44991, Note_on_c, 6, 71, 0
10, 45000, Note_on_c, 6, 66, 56
10, 45014, Pitch_bend_c, 6, 8582
10, 45016, Pitch_bend_c, 6, 9232
10, 45019, Pitch_bend_c, 6, 10402
10, 45020, Pitch_bend_c, 6, 11182
10, 45022, Pitch_bend_c, 6, 11962
10, 45024, Pitch_bend_c, 6, 12612
10, 45025, Pitch_bend_c, 6, 13392
10, 45027, Pitch_bend_c, 6, 14302
10, 45028, Pitch_bend_c, 6, 15082
10, 45030, Pitch_bend_c, 6, 15732
10, 45032, Pitch_bend_c, 6, 16382
10, 45055, Pitch_bend_c, 6, 13652
10, 45057, Pitch_bend_c, 6, 9492
10, 45060, Note_on_c, 6, 64, 56
10, 45063, Pitch_bend_c, 6, 8192
10, 45075, Note_on_c, 6, 66, 0
10, 45101, Note_on_c, 6, 64, 0
10, 45120, Note_on_c, 6, 76, 68
10, 45480, Note_on_c, 6, 76, 0
10, 52380, Note_on_c, 6, 76, 56
10, 52380, Note_on_c, 6, 71, 56
10, 52408, Note_on_c, 6, 71, 0
10, 52408, Note_on_c, 6, 76, 0
10, 52440, Note_on_c, 6, 76, 56
10, 52440, Note_on_c, 6, 71, 62
10, 52476, Note_on_c, 6, 76, 0
10, 52480, Note_on_c, 6, 71, 0
10, 52500, Note_on_c, 6, 76, 56
10, 52500, Note_on_c, 6, 71, 51
10, 52540, Note_on_c, 6, 76, 0
10, 52542, Note_on_c, 6, 71, 0
10, 52560, Note_on_c, 6, 76, 62
10, 52560, Note_on_c, 6, 71, 56
10, 52603, Note_on_c, 6, 76, 0
10, 52606, Note_on_c, 6, 71, 0
10, 52620, Note_on_c, 6, 76, 62
10, 52620, Note_on_c, 6, 71, 62
10, 52662, Note_on_c, 6, 76, 0
10, 52666, Note_on_c, 6, 71, 0
10, 52680, Note_on_c, 6, 76, 62
10, 52680, Note_on_c, 6, 71, 56
10, 52721, Note_on_c, 6, 76, 0
10, 52725, Note_on_c, 6, 71, 0
10, 52740, Note_on_c, 6, 76, 56
10, 52740, Note_on_c, 6, 71, 56
10, 52782, Note_on_c, 6, 76, 0
10, 52784, Note_on_c, 6, 71, 0
10, 52800, Note_on_c, 6, 76, 62
10, 52800, Note_on_c, 6, 71, 62
10, 52845, Note_on_c, 6, 76, 0
10, 52850, Note_on_c, 6, 71, 0
10, 53157, Pitch_bend_c, 6, 8192
10, 53157, End_track
11, 0, Start_track
11, 0, MIDI_port, 0
11, 0, Program_c, 7, 65
11, 0, Control_c, 7, 0, 0
11, 154, Control_c, 7, 10, 51
11, 1560, Note_on_c, 7, 59, 99
11, 1576, Note_on_c, 7, 59, 0
11, 1590, Note_on_c, 7, 59, 95
11, 1609, Note_on_c, 7, 59, 0
11, 1620, Note_on_c, 7, 61, 90
11, 1740, Note_on_c, 7, 59, 96
11, 1754, Note_on_c, 7, 61, 0
11, 1765, Note_on_c, 7, 59, 0
11, 1800, Note_on_c, 7, 55, 111
11, 1857, Note_on_c, 7, 55, 0
11, 1860, Note_on_c, 7, 52, 95
11, 1939, Note_on_c, 7, 52, 0
11, 2520, Note_on_c, 7, 59, 105
11, 2536, Note_on_c, 7, 59, 0
11, 2550, Note_on_c, 7, 59, 96
11, 2575, Note_on_c, 7, 59, 0
11, 2580, Note_on_c, 7, 61, 95
11, 2700, Note_on_c, 7, 59, 98
11, 2715, Note_on_c, 7, 59, 0
11, 2716, Note_on_c, 7, 61, 0
11, 2760, Note_on_c, 7, 55, 111
11, 2819, Note_on_c, 7, 55, 0
11, 2820, Note_on_c, 7, 52, 94
11, 2944, Note_on_c, 7, 52, 0
11, 3480, Note_on_c, 7, 59, 105
11, 3498, Note_on_c, 7, 59, 0
11, 3510, Note_on_c, 7, 59, 96
11, 3540, Note_on_c, 7, 61, 104
11, 3548, Note_on_c, 7, 59, 0
11, 3660, Note_on_c, 7, 61, 0
11, 3660, Note_on_c, 7, 59, 96
11, 3681, Note_on_c, 7, 59, 0
11, 3720, Note_on_c, 7, 55, 105
11, 3780, Note_on_c, 7, 55, 0
11, 3780, Note_on_c, 7, 52, 93
11, 3838, Note_on_c, 7, 52, 0
11, 3840, Note_on_c, 7, 55, 99
11, 3898, Note_on_c, 7, 55, 0
11, 3900, Note_on_c, 7, 52, 90
11, 3923, Note_on_c, 7, 52, 0
11, 3960, Note_on_c, 7, 52, 91
11, 4016, Note_on_c, 7, 52, 0
11, 4020, Note_on_c, 7, 49, 91
11, 4050, Note_on_c, 7, 49, 0
11, 4080, Note_on_c, 7, 52, 96
11, 4238, Note_on_c, 7, 52, 0
11, 4260, Note_on_c, 7, 55, 95
11, 4380, Note_on_c, 7, 52, 92
11, 4382, Note_on_c, 7, 55, 0
11, 4403, Note_on_c, 7, 52, 0
11, 4440, Note_on_c, 7, 52, 94
11, 4494, Note_on_c, 7, 52, 0
11, 4500, Note_on_c, 7, 49, 91
11, 4542, Note_on_c, 7, 49, 0
11, 4560, Note_on_c, 7, 52, 95
11, 4680, Note_on_c, 7, 54, 95
11, 4682, Note_on_c, 7, 52, 0
11, 4740, Note_on_c, 7, 52, 105
11, 4744, Note_on_c, 7, 54, 0
11, 4775, Note_on_c, 7, 52, 0
11, 4920, Note_on_c, 7, 62, 107
11, 5040, Note_on_c, 7, 59, 96
11, 5041, Note_on_c, 7, 62, 0
11, 5149, Note_on_c, 7, 59, 0
11, 5160, Note_on_c, 7, 55, 100
11, 5200, Note_on_c, 7, 55, 0
11, 5200, Note_on_c, 7, 54, 95
11, 5220, Note_on_c, 7, 52, 96
11, 5230, Note_on_c, 7, 54, 0
11, 5420, Note_on_c, 7, 52, 0
11, 5578, Note_on_c, 7, 55, 97
11, 5589, Note_on_c, 7, 56, 99
11, 5596, Note_on_c, 7, 55, 0
11, 5661, Note_on_c, 7, 56, 0
11, 5702, Note_on_c, 7, 55, 103
11, 5708, Note_on_c, 7, 56, 96
11, 5713, Note_on_c, 7, 55, 0
11, 5820, Note_on_c, 7, 54, 90
11, 5832, Note_on_c, 7, 54, 0
11, 5844, Note_on_c, 7, 56, 0
11, 5880, Note_on_c, 7, 54, 96
11, 5940, Note_on_c, 7, 52, 94
11, 5950, Note_on_c, 7, 54, 0
11, 5961, Note_on_c, 7, 52, 0
11, 6000, Note_on_c, 7, 54, 98
11, 6089, Note_on_c, 7, 54, 0
11, 6120, Note_on_c, 7, 54, 97
11, 6170, Note_on_c, 7, 54, 0
11, 6180, Note_on_c, 7, 52, 90
11, 6208, Note_on_c, 7, 52, 0
11, 6240, Note_on_c, 7, 55, 116
11, 6360, Note_on_c, 7, 55, 0
11, 6360, Note_on_c, 7, 54, 100
11, 6413, Note_on_c, 7, 54, 0
11, 6420, Note_on_c, 7, 52, 90
11, 6449, Note_on_c, 7, 52, 0
11, 6480, Note_on_c, 7, 55, 105
11, 6600, Note_on_c, 7, 54, 100
11, 6609, Note_on_c, 7, 55, 0
11, 6655, Note_on_c, 7, 54, 0
11, 6660, Note_on_c, 7, 52, 88
11, 6692, Note_on_c, 7, 52, 0
11, 6720, Note_on_c, 7, 52, 96
11, 6904, Note_on_c, 7, 52, 0
11, 7500, Note_on_c, 7, 62, 99
11, 7531, Note_on_c, 7, 62, 0
11, 7560, Note_on_c, 7, 62, 95
11, 7620, Note_on_c, 7, 59, 93
11, 7627, Note_on_c, 7, 62, 0
11, 7653, Note_on_c, 7, 59, 0
11, 7680, Note_on_c, 7, 62, 105
11, 7792, Note_on_c, 7, 62, 0
11, 7800, Note_on_c, 7, 61, 98
11, 7916, Note_on_c, 7, 61, 0
11, 7920, Note_on_c, 7, 59, 94
11, 7980, Note_on_c, 7, 57, 96
11, 7995, Note_on_c, 7, 59, 0
11, 8100, Note_on_c, 7, 59, 96
11, 8105, Note_on_c, 7, 57, 0
11, 8185, Note_on_c, 7, 59, 0
11, 8190, Note_on_c, 7, 55, 96
11, 8268, Note_on_c, 7, 55, 0
11, 8460, Note_on_c, 7, 62, 112
11, 8580, Note_on_c, 7, 59, 90
11, 8585, Note_on_c, 7, 62, 0
11, 8603, Note_on_c, 7, 59, 0
11, 8640, Note_on_c, 7, 62, 111
11, 8700, Note_on_c, 7, 61, 105
11, 8701, Note_on_c, 7, 62, 0
11, 8818, Note_on_c, 7, 61, 0
11, 8820, Note_on_c, 7, 59, 100
11, 9000, Note_on_c, 7, 57, 107
11, 9026, Note_on_c, 7, 59, 0
11, 9033, Note_on_c, 7, 57, 0
11, 9040, Note_on_c, 7, 59, 88
11, 9057, Note_on_c, 7, 59, 0
11, 9060, Note_on_c, 7, 55, 105
11, 9221, Note_on_c, 7, 55, 0
11, 9420, Note_on_c, 7, 62, 96
11, 9540, Note_on_c, 7, 59, 97
11, 9554, Note_on_c, 7, 62, 0
11, 9574, Note_on_c, 7, 59, 0
11, 9600, Note_on_c, 7, 62, 94
11, 9630, Note_on_c, 7, 62, 0
11, 9660, Note_on_c, 7, 62, 96
11, 9720, Note_on_c, 7, 59, 97
11, 9731, Note_on_c, 7, 62, 0
11, 9749, Note_on_c, 7, 59, 0
11, 9780, Note_on_c, 7, 62, 97
11, 9885, Note_on_c, 7, 62, 0
11, 9900, Note_on_c, 7, 62, 97
11, 10015, Note_on_c, 7, 62, 0
11, 10020, Note_on_c, 7, 59, 99
11, 10054, Note_on_c, 7, 59, 0
11, 10080, Note_on_c, 7, 62, 97
11, 10111, Note_on_c, 7, 62, 0
11, 10140, Note_on_c, 7, 62, 96
11, 10200, Note_on_c, 7, 59, 98
11, 10204, Note_on_c, 7, 62, 0
11, 10243, Note_on_c, 7, 59, 0
11, 10260, Note_on_c, 7, 62, 99
11, 10365, Note_on_c, 7, 62, 0
11, 10380, Note_on_c, 7, 62, 105
11, 10427, Note_on_c, 7, 62, 0
11, 10440, Note_on_c, 7, 62, 87
11, 10500, Note_on_c, 7, 59, 98
11, 10511, Note_on_c, 7, 62, 0
11, 10539, Note_on_c, 7, 59, 0
11, 10560, Note_on_c, 7, 64, 94
11, 10624, Note_on_c, 7, 64, 0
11, 10680, Note_on_c, 7, 59, 105
11, 10749, Note_on_c, 7, 59, 0
11, 10800, Note_on_c, 7, 57, 111
11, 10920, Note_on_c, 7, 59, 101
11, 10927, Note_on_c, 7, 57, 0
11, 10946, Note_on_c, 7, 59, 0
11, 10979, Note_on_c, 7, 54, 101
11, 10986, Note_on_c, 7, 55, 107
11, 10996, Note_on_c, 7, 54, 0
11, 11376, Note_on_c, 7, 55, 0
11, 11640, Note_on_c, 7, 59, 99
11, 11656, Note_on_c, 7, 59, 0
11, 11670, Note_on_c, 7, 59, 95
11, 11689, Note_on_c, 7, 59, 0
11, 11700, Note_on_c, 7, 61, 90
11, 11820, Note_on_c, 7, 59, 96
11, 11834, Note_on_c, 7, 61, 0
11, 11845, Note_on_c, 7, 59, 0
11, 11880, Note_on_c, 7, 55, 111
11, 11937, Note_on_c, 7, 55, 0
11, 11940, Note_on_c, 7, 52, 95
11, 12019, Note_on_c, 7, 52, 0
11, 12600, Note_on_c, 7, 59, 105
11, 12616, Note_on_c, 7, 59, 0
11, 12630, Note_on_c, 7, 59, 96
11, 12655, Note_on_c, 7, 59, 0
11, 12660, Note_on_c, 7, 61, 95
11, 12780, Note_on_c, 7, 59, 98
11, 12795, Note_on_c, 7, 59, 0
11, 12796, Note_on_c, 7, 61, 0
11, 12840, Note_on_c, 7, 55, 111
11, 12899, Note_on_c, 7, 55, 0
11, 12900, Note_on_c, 7, 52, 94
11, 13024, Note_on_c, 7, 52, 0
11, 13560, Note_on_c, 7, 59, 105
11, 13578, Note_on_c, 7, 59, 0
11, 13590, Note_on_c, 7, 59, 96
11, 13620, Note_on_c, 7, 61, 104
11, 13628, Note_on_c, 7, 59, 0
11, 13740, Note_on_c, 7, 61, 0
11, 13740, Note_on_c, 7, 59, 97
11, 13761, Note_on_c, 7, 59, 0
11, 13800, Note_on_c, 7, 55, 105
11, 13860, Note_on_c, 7, 55, 0
11, 13860, Note_on_c, 7, 52, 94
11, 13918, Note_on_c, 7, 52, 0
11, 13923, Note_on_c, 7, 55, 99
11, 13981, Note_on_c, 7, 55, 0
11, 13991, Note_on_c, 7, 52, 90
11, 14014, Note_on_c, 7, 52, 0
11, 14044, Note_on_c, 7, 52, 92
11, 14100, Note_on_c, 7, 52, 0
11, 14107, Note_on_c, 7, 49, 92
11, 14137, Note_on_c, 7, 49, 0
11, 14164, Note_on_c, 7, 52, 97
11, 14322, Note_on_c, 7, 52, 0
11, 14343, Note_on_c, 7, 55, 95
11, 14460, Note_on_c, 7, 52, 93
11, 14465, Note_on_c, 7, 55, 0
11, 14483, Note_on_c, 7, 52, 0
11, 14520, Note_on_c, 7, 52, 94
11, 14574, Note_on_c, 7, 52, 0
11, 14580, Note_on_c, 7, 49, 92
11, 14622, Note_on_c, 7, 49, 0
11, 14640, Note_on_c, 7, 52, 95
11, 14760, Note_on_c, 7, 54, 95
11, 14762, Note_on_c, 7, 52, 0
11, 14820, Note_on_c, 7, 52, 105
11, 14824, Note_on_c, 7, 54, 0
11, 14855, Note_on_c, 7, 52, 0
11, 15000, Note_on_c, 7, 62, 107
11, 15120, Note_on_c, 7, 59, 97
11, 15121, Note_on_c, 7, 62, 0
11, 15229, Note_on_c, 7, 59, 0
11, 15240, Note_on_c, 7, 55, 100
11, 15280, Note_on_c, 7, 55, 0
11, 15280, Note_on_c, 7, 54, 95
11, 15300, Note_on_c, 7, 52, 96
11, 15310, Note_on_c, 7, 54, 0
11, 15500, Note_on_c, 7, 52, 0
11, 15658, Note_on_c, 7, 55, 97
11, 15669, Note_on_c, 7, 56, 99
11, 15676, Note_on_c, 7, 55, 0
11, 15741, Note_on_c, 7, 56, 0
11, 15782, Note_on_c, 7, 55, 104
11, 15788, Note_on_c, 7, 56, 96
11, 15793, Note_on_c, 7, 55, 0
11, 15900, Note_on_c, 7, 54, 90
11, 15912, Note_on_c, 7, 54, 0
11, 15924, Note_on_c, 7, 56, 0
11, 15960, Note_on_c, 7, 54, 97
11, 16020, Note_on_c, 7, 52, 94
11, 16030, Note_on_c, 7, 54, 0
11, 16041, Note_on_c, 7, 52, 0
11, 16080, Note_on_c, 7, 54, 99
11, 16169, Note_on_c, 7, 54, 0
11, 16200, Note_on_c, 7, 54, 97
11, 16250, Note_on_c, 7, 54, 0
11, 16260, Note_on_c, 7, 52, 90
11, 16288, Note_on_c, 7, 52, 0
11, 16320, Note_on_c, 7, 55, 117
11, 16440, Note_on_c, 7, 55, 0
11, 16440, Note_on_c, 7, 54, 100
11, 16493, Note_on_c, 7, 54, 0
11, 16500, Note_on_c, 7, 52, 91
11, 16529, Note_on_c, 7, 52, 0
11, 16560, Note_on_c, 7, 55, 105
11, 16680, Note_on_c, 7, 54, 100
11, 16689, Note_on_c, 7, 55, 0
11, 16735, Note_on_c, 7, 54, 0
11, 16740, Note_on_c, 7, 52, 88
11, 16772, Note_on_c, 7, 52, 0
11, 16800, Note_on_c, 7, 52, 96
11, 16884, Note_on_c, 7, 52, 0
11, 16922, Note_on_c, 7, 62, 121
11, 16937, Note_on_c, 7, 64, 99
11, 16950, Note_on_c, 7, 62, 0
11, 16978, Note_on_c, 7, 64, 0
11, 17097, Note_on_c, 7, 62, 104
11, 17104, Note_on_c, 7, 64, 111
11, 17119, Note_on_c, 7, 62, 0
11, 17143, Note_on_c, 7, 64, 0
11, 17277, Note_on_c, 7, 62, 111
11, 17290, Note_on_c, 7, 64, 96
11, 17303, Note_on_c, 7, 62, 0
11, 17331, Note_on_c, 7, 64, 0
11, 17462, Note_on_c, 7, 62, 107
11, 17471, Note_on_c, 7, 64, 97
11, 17485, Note_on_c, 7, 62, 0
11, 17509, Note_on_c, 7, 64, 0
11, 23340, Note_on_c, 7, 62, 107
11, 23365, Note_on_c, 7, 62, 0
11, 23400, Note_on_c, 7, 62, 99
11, 23459, Note_on_c, 7, 62, 0
11, 23460, Note_on_c, 7, 59, 94
11, 23491, Note_on_c, 7, 59, 0
11, 23520, Note_on_c, 7, 62, 105
11, 23640, Note_on_c, 7, 61, 99
11, 23647, Note_on_c, 7, 62, 0
11, 23694, Note_on_c, 7, 61, 0
11, 23700, Note_on_c, 7, 59, 97
11, 23880, Note_on_c, 7, 57, 99
11, 23896, Note_on_c, 7, 59, 0
11, 23929, Note_on_c, 7, 57, 0
11, 23940, Note_on_c, 7, 59, 99
11, 24016, Note_on_c, 7, 54, 97
11, 24018, Note_on_c, 7, 59, 0
11, 24036, Note_on_c, 7, 55, 105
11, 24047, Note_on_c, 7, 54, 0
11, 24269, Note_on_c, 7, 55, 0
11, 24300, Note_on_c, 7, 62, 105
11, 24324, Note_on_c, 7, 62, 0
11, 24360, Note_on_c, 7, 62, 99
11, 24418, Note_on_c, 7, 62, 0
11, 24420, Note_on_c, 7, 59, 94
11, 24452, Note_on_c, 7, 59, 0
11, 24480, Note_on_c, 7, 62, 105
11, 24600, Note_on_c, 7, 61, 107
11, 24604, Note_on_c, 7, 62, 0
11, 24720, Note_on_c, 7, 59, 95
11, 24722, Note_on_c, 7, 61, 0
11, 24780, Note_on_c, 7, 57, 105
11, 24786, Note_on_c, 7, 59, 0
11, 24899, Note_on_c, 7, 57, 0
11, 24900, Note_on_c, 7, 59, 111
11, 25169, Note_on_c, 7, 59, 0
11, 25260, Note_on_c, 7, 62, 117
11, 25380, Note_on_c, 7, 59, 95
11, 25382, Note_on_c, 7, 62, 0
11, 25411, Note_on_c, 7, 59, 0
11, 25440, Note_on_c, 7, 62, 105
11, 25469, Note_on_c, 7, 62, 0
11, 25500, Note_on_c, 7, 62, 100
11, 25529, Note_on_c, 7, 62, 0
11, 25560, Note_on_c, 7, 62, 96
11, 25620, Note_on_c, 7, 59, 94
11, 25630, Note_on_c, 7, 62, 0
11, 25654, Note_on_c, 7, 59, 0
11, 25680, Note_on_c, 7, 62, 95
11, 25709, Note_on_c, 7, 62, 0
11, 25740, Note_on_c, 7, 62, 93
11, 25798, Note_on_c, 7, 62, 0
11, 25800, Note_on_c, 7, 59, 94
11, 25842, Note_on_c, 7, 59, 0
11, 25860, Note_on_c, 7, 62, 97
11, 25957, Note_on_c, 7, 62, 0
11, 25980, Note_on_c, 7, 62, 97
11, 26011, Note_on_c, 7, 62, 0
11, 26040, Note_on_c, 7, 62, 96
11, 26100, Note_on_c, 7, 59, 92
11, 26109, Note_on_c, 7, 62, 0
11, 26126, Note_on_c, 7, 59, 0
11, 26160, Note_on_c, 7, 62, 99
11, 26186, Note_on_c, 7, 62, 0
11, 26220, Note_on_c, 7, 62, 97
11, 26255, Note_on_c, 7, 62, 0
11, 26280, Note_on_c, 7, 62, 95
11, 26340, Note_on_c, 7, 59, 95
11, 26362, Note_on_c, 7, 62, 0
11, 26371, Note_on_c, 7, 59, 0
11, 26400, Note_on_c, 7, 64, 99
11, 26468, Note_on_c, 7, 64, 0
11, 26520, Note_on_c, 7, 59, 97
11, 26598, Note_on_c, 7, 59, 0
11, 26640, Note_on_c, 7, 57, 113
11, 26700, Note_on_c, 7, 55, 94
11, 26722, Note_on_c, 7, 57, 0
11, 26730, Note_on_c, 7, 52, 88
11, 26740, Note_on_c, 7, 55, 0
11, 26761, Note_on_c, 7, 52, 0
11, 26820, Note_on_c, 7, 52, 98
11, 27244, Note_on_c, 7, 52, 0
11, 27480, Note_on_c, 7, 59, 99
11, 27496, Note_on_c, 7, 59, 0
11, 27510, Note_on_c, 7, 59, 96
11, 27529, Note_on_c, 7, 59, 0
11, 27540, Note_on_c, 7, 61, 90
11, 27660, Note_on_c, 7, 59, 97
11, 27674, Note_on_c, 7, 61, 0
11, 27685, Note_on_c, 7, 59, 0
11, 27720, Note_on_c, 7, 55, 111
11, 27777, Note_on_c, 7, 55, 0
11, 27780, Note_on_c, 7, 52, 96
11, 27859, Note_on_c, 7, 52, 0
11, 28440, Note_on_c, 7, 59, 106
11, 28456, Note_on_c, 7, 59, 0
11, 28470, Note_on_c, 7, 59, 97
11, 28495, Note_on_c, 7, 59, 0
11, 28500, Note_on_c, 7, 61, 96
11, 28620, Note_on_c, 7, 59, 99
11, 28635, Note_on_c, 7, 59, 0
11, 28636, Note_on_c, 7, 61, 0
11, 28680, Note_on_c, 7, 55, 111
11, 28739, Note_on_c, 7, 55, 0
11, 28740, Note_on_c, 7, 52, 94
11, 28864, Note_on_c, 7, 52, 0
11, 29400, Note_on_c, 7, 59, 106
11, 29418, Note_on_c, 7, 59, 0
11, 29430, Note_on_c, 7, 59, 97
11, 29460, Note_on_c, 7, 61, 105
11, 29468, Note_on_c, 7, 59, 0
11, 29580, Note_on_c, 7, 61, 0
11, 29580, Note_on_c, 7, 59, 97
11, 29601, Note_on_c, 7, 59, 0
11, 29640, Note_on_c, 7, 55, 106
11, 29700, Note_on_c, 7, 55, 0
11, 29700, Note_on_c, 7, 52, 94
11, 29758, Note_on_c, 7, 52, 0
11, 29760, Note_on_c, 7, 55, 99
11, 29818, Note_on_c, 7, 55, 0
11, 29820, Note_on_c, 7, 52, 90
11, 29843, Note_on_c, 7, 52, 0
11, 29880, Note_on_c, 7, 52, 92
11, 29936, Note_on_c, 7, 52, 0
11, 29940, Note_on_c, 7, 49, 92
11, 29970, Note_on_c, 7, 49, 0
11, 30000, Note_on_c, 7, 52, 97
11, 30158, Note_on_c, 7, 52, 0
11, 30180, Note_on_c, 7, 55, 96
11, 30300, Note_on_c, 7, 52, 93
11, 30302, Note_on_c, 7, 55, 0
11, 30323, Note_on_c, 7, 52, 0
11, 30360, Note_on_c, 7, 52, 95
11, 30414, Note_on_c, 7, 52, 0
11, 30420, Note_on_c, 7, 49, 92
11, 30462, Note_on_c, 7, 49, 0
11, 30480, Note_on_c, 7, 52, 96
11, 30600, Note_on_c, 7, 54, 96
11, 30602, Note_on_c, 7, 52, 0
11, 30660, Note_on_c, 7, 52, 106
11, 30664, Note_on_c, 7, 54, 0
11, 30695, Note_on_c, 7, 52, 0
11, 30840, Note_on_c, 7, 62, 108
11, 30960, Note_on_c, 7, 59, 97
11, 30961, Note_on_c, 7, 62, 0
11, 31069, Note_on_c, 7, 59, 0
11, 31080, Note_on_c, 7, 55, 100
11, 31120, Note_on_c, 7, 55, 0
11, 31120, Note_on_c, 7, 54, 96
11, 31140, Note_on_c, 7, 52, 97
11, 31150, Note_on_c, 7, 54, 0
11, 31340, Note_on_c, 7, 52, 0
11, 31498, Note_on_c, 7, 55, 98
11, 31509, Note_on_c, 7, 56, 99
11, 31516, Note_on_c, 7, 55, 0
11, 31581, Note_on_c, 7, 56, 0
11, 31622, Note_on_c, 7, 55, 104
11, 31628, Note_on_c, 7, 56, 97
11, 31633, Note_on_c, 7, 55, 0
11, 31740, Note_on_c, 7, 54, 90
11, 31752, Note_on_c, 7, 54, 0
11, 31764, Note_on_c, 7, 56, 0
11, 31800, Note_on_c, 7, 54, 97
11, 31860, Note_on_c, 7, 52, 94
11, 31870, Note_on_c, 7, 54, 0
11, 31881, Note_on_c, 7, 52, 0
11, 31920, Note_on_c, 7, 54, 99
11, 32009, Note_on_c, 7, 54, 0
11, 32040, Note_on_c, 7, 54, 98
11, 32090, Note_on_c, 7, 54, 0
11, 32100, Note_on_c, 7, 52, 90
11, 32128, Note_on_c, 7, 52, 0
11, 32160, Note_on_c, 7, 55, 117
11, 32280, Note_on_c, 7, 55, 0
11, 32280, Note_on_c, 7, 54, 100
11, 32333, Note_on_c, 7, 54, 0
11, 32340, Note_on_c, 7, 52, 91
11, 32369, Note_on_c, 7, 52, 0
11, 32400, Note_on_c, 7, 55, 106
11, 32520, Note_on_c, 7, 54, 100
11, 32529, Note_on_c, 7, 55, 0
11, 32575, Note_on_c, 7, 54, 0
11, 32580, Note_on_c, 7, 52, 89
11, 32612, Note_on_c, 7, 52, 0
11, 32640, Note_on_c, 7, 52, 97
11, 32724, Note_on_c, 7, 52, 0
11, 32762, Note_on_c, 7, 62, 122
11, 32777, Note_on_c, 7, 64, 99
11, 32790, Note_on_c, 7, 62, 0
11, 32818, Note_on_c, 7, 64, 0
11, 32937, Note_on_c, 7, 62, 104
11, 32944, Note_on_c, 7, 64, 111
11, 32959, Note_on_c, 7, 62, 0
11, 32983, Note_on_c, 7, 64, 0
11, 33117, Note_on_c, 7, 62, 111
11, 33130, Note_on_c, 7, 64, 97
11, 33143, Note_on_c, 7, 62, 0
11, 33171, Note_on_c, 7, 64, 0
11, 33302, Note_on_c, 7, 62, 108
11, 33311, Note_on_c, 7, 64, 98
11, 33325, Note_on_c, 7, 62, 0
11, 33349, Note_on_c, 7, 64, 0
11, 39180, Note_on_c, 7, 62, 108
11, 39205, Note_on_c, 7, 62, 0
11, 39240, Note_on_c, 7, 62, 99
11, 39299, Note_on_c, 7, 62, 0
11, 39300, Note_on_c, 7, 59, 95
11, 39331, Note_on_c, 7, 59, 0
11, 39360, Note_on_c, 7, 62, 106
11, 39480, Note_on_c, 7, 61, 99
11, 39487, Note_on_c, 7, 62, 0
11, 39534, Note_on_c, 7, 61, 0
11, 39540, Note_on_c, 7, 59, 98
11, 39720, Note_on_c, 7, 57, 99
11, 39736, Note_on_c, 7, 59, 0
11, 39769, Note_on_c, 7, 57, 0
11, 39780, Note_on_c, 7, 59, 99
11, 39856, Note_on_c, 7, 54, 97
11, 39858, Note_on_c, 7, 59, 0
11, 39876, Note_on_c, 7, 55, 106
11, 39887, Note_on_c, 7, 54, 0
11, 40109, Note_on_c, 7, 55, 0
11, 40140, Note_on_c, 7, 62, 106
11, 40164, Note_on_c, 7, 62, 0
11, 40200, Note_on_c, 7, 62, 100
11, 40258, Note_on_c, 7, 62, 0
11, 40260, Note_on_c, 7, 59, 94
11, 40292, Note_on_c, 7, 59, 0
11, 40320, Note_on_c, 7, 62, 106
11, 40440, Note_on_c, 7, 61, 109
11, 40444, Note_on_c, 7, 62, 0
11, 40560, Note_on_c, 7, 59, 96
11, 40562, Note_on_c, 7, 61, 0
11, 40620, Note_on_c, 7, 57, 106
11, 40626, Note_on_c, 7, 59, 0
11, 40739, Note_on_c, 7, 57, 0
11, 40740, Note_on_c, 7, 59, 112
11, 41009, Note_on_c, 7, 59, 0
11, 41100, Note_on_c, 7, 62, 118
11, 41220, Note_on_c, 7, 59, 96
11, 41222, Note_on_c, 7, 62, 0
11, 41251, Note_on_c, 7, 59, 0
11, 41280, Note_on_c, 7, 62, 106
11, 41309, Note_on_c, 7, 62, 0
11, 41340, Note_on_c, 7, 62, 101
11, 41369, Note_on_c, 7, 62, 0
11, 41400, Note_on_c, 7, 62, 97
11, 41460, Note_on_c, 7, 59, 95
11, 41470, Note_on_c, 7, 62, 0
11, 41494, Note_on_c, 7, 59, 0
11, 41520, Note_on_c, 7, 62, 96
11, 41549, Note_on_c, 7, 62, 0
11, 41580, Note_on_c, 7, 62, 94
11, 41638, Note_on_c, 7, 62, 0
11, 41640, Note_on_c, 7, 59, 95
11, 41682, Note_on_c, 7, 59, 0
11, 41700, Note_on_c, 7, 62, 98
11, 41797, Note_on_c, 7, 62, 0
11, 41820, Note_on_c, 7, 62, 98
11, 41851, Note_on_c, 7, 62, 0
11, 41880, Note_on_c, 7, 62, 97
11, 41940, Note_on_c, 7, 59, 93
11, 41949, Note_on_c, 7, 62, 0
11, 41966, Note_on_c, 7, 59, 0
11, 42000, Note_on_c, 7, 62, 99
11, 42026, Note_on_c, 7, 62, 0
11, 42060, Note_on_c, 7, 62, 98
11, 42095, Note_on_c, 7, 62, 0
11, 42120, Note_on_c, 7, 62, 96
11, 42180, Note_on_c, 7, 59, 96
11, 42202, Note_on_c, 7, 62, 0
11, 42211, Note_on_c, 7, 59, 0
11, 42240, Note_on_c, 7, 64, 100
11, 42308, Note_on_c, 7, 64, 0
11, 42360, Note_on_c, 7, 59, 98
11, 42438, Note_on_c, 7, 59, 0
11, 42480, Note_on_c, 7, 57, 114
11, 42540, Note_on_c, 7, 55, 95
11, 42562, Note_on_c, 7, 57, 0
11, 42570, Note_on_c, 7, 52, 89
11, 42580, Note_on_c, 7, 55, 0
11, 42601, Note_on_c, 7, 52, 0
11, 42660, Note_on_c, 7, 52, 98
11, 43084, Note_on_c, 7, 52, 0
11, 43320, Note_on_c, 7, 59, 100
11, 43336, Note_on_c, 7, 59, 0
11, 43350, Note_on_c, 7, 59, 96
11, 43369, Note_on_c, 7, 59, 0
11, 43380, Note_on_c, 7, 61, 90
11, 43500, Note_on_c, 7, 59, 97
11, 43514, Note_on_c, 7, 61, 0
11, 43525, Note_on_c, 7, 59, 0
11, 43560, Note_on_c, 7, 55, 112
11, 43617, Note_on_c, 7, 55, 0
11, 43620, Note_on_c, 7, 52, 96
11, 43699, Note_on_c, 7, 52, 0
11, 44280, Note_on_c, 7, 59, 106
11, 44296, Note_on_c, 7, 59, 0
11, 44310, Note_on_c, 7, 59, 97
11, 44335, Note_on_c, 7, 59, 0
11, 44340, Note_on_c, 7, 61, 96
11, 44460, Note_on_c, 7, 59, 99
11, 44475, Note_on_c, 7, 59, 0
11, 44476, Note_on_c, 7, 61, 0
11, 44520, Note_on_c, 7, 55, 112
11, 44579, Note_on_c, 7, 55, 0
11, 44580, Note_on_c, 7, 52, 94
11, 44704, Note_on_c, 7, 52, 0
11, 45240, Note_on_c, 7, 59, 106
11, 45258, Note_on_c, 7, 59, 0
11, 45270, Note_on_c, 7, 59, 97
11, 45300, Note_on_c, 7, 61, 105
11, 45308, Note_on_c, 7, 59, 0
11, 45420, Note_on_c, 7, 61, 0
11, 45420, Note_on_c, 7, 59, 97
11, 45441, Note_on_c, 7, 59, 0
11, 45480, Note_on_c, 7, 55, 106
11, 45540, Note_on_c, 7, 55, 0
11, 45540, Note_on_c, 7, 52, 94
11, 45598, Note_on_c, 7, 52, 0
11, 45600, Note_on_c, 7, 55, 100
11, 45658, Note_on_c, 7, 55, 0
11, 45660, Note_on_c, 7, 52, 91
11, 45683, Note_on_c, 7, 52, 0
11, 45720, Note_on_c, 7, 52, 93
11, 45776, Note_on_c, 7, 52, 0
11, 45780, Note_on_c, 7, 49, 93
11, 45810, Note_on_c, 7, 49, 0
11, 45840, Note_on_c, 7, 52, 97
11, 45998, Note_on_c, 7, 52, 0
11, 46020, Note_on_c, 7, 55, 96
11, 46140, Note_on_c, 7, 52, 94
11, 46142, Note_on_c, 7, 55, 0
11, 46163, Note_on_c, 7, 52, 0
11, 46200, Note_on_c, 7, 52, 95
11, 46254, Note_on_c, 7, 52, 0
11, 46260, Note_on_c, 7, 49, 93
11, 46302, Note_on_c, 7, 49, 0
11, 46320, Note_on_c, 7, 52, 96
11, 46440, Note_on_c, 7, 54, 96
11, 46442, Note_on_c, 7, 52, 0
11, 46500, Note_on_c, 7, 52, 106
11, 46504, Note_on_c, 7, 54, 0
11, 46535, Note_on_c, 7, 52, 0
11, 46680, Note_on_c, 7, 62, 109
11, 46800, Note_on_c, 7, 59, 97
11, 46801, Note_on_c, 7, 62, 0
11, 46909, Note_on_c, 7, 59, 0
11, 46920, Note_on_c, 7, 55, 101
11, 46960, Note_on_c, 7, 55, 0
11, 46960, Note_on_c, 7, 54, 96
11, 46980, Note_on_c, 7, 52, 97
11, 46990, Note_on_c, 7, 54, 0
11, 47180, Note_on_c, 7, 52, 0
11, 47338, Note_on_c, 7, 55, 98
11, 47349, Note_on_c, 7, 56, 100
11, 47356, Note_on_c, 7, 55, 0
11, 47421, Note_on_c, 7, 56, 0
11, 47462, Note_on_c, 7, 55, 104
11, 47468, Note_on_c, 7, 56, 97
11, 47473, Note_on_c, 7, 55, 0
11, 47580, Note_on_c, 7, 54, 91
11, 47592, Note_on_c, 7, 54, 0
11, 47604, Note_on_c, 7, 56, 0
11, 47640, Note_on_c, 7, 54, 97
11, 47700, Note_on_c, 7, 52, 95
11, 47710, Note_on_c, 7, 54, 0
11, 47721, Note_on_c, 7, 52, 0
11, 47760, Note_on_c, 7, 54, 99
11, 47849, Note_on_c, 7, 54, 0
11, 47880, Note_on_c, 7, 54, 98
11, 47930, Note_on_c, 7, 54, 0
11, 47940, Note_on_c, 7, 52, 91
11, 47968, Note_on_c, 7, 52, 0
11, 48000, Note_on_c, 7, 55, 118
11, 48120, Note_on_c, 7, 55, 0
11, 48120, Note_on_c, 7, 54, 101
11, 48173, Note_on_c, 7, 54, 0
11, 48180, Note_on_c, 7, 52, 92
11, 48209, Note_on_c, 7, 52, 0
11, 48240, Note_on_c, 7, 55, 106
11, 48360, Note_on_c, 7, 54, 101
11, 48369, Note_on_c, 7, 55, 0
11, 48415, Note_on_c, 7, 54, 0
11, 48420, Note_on_c, 7, 52, 89
11, 48452, Note_on_c, 7, 52, 0
11, 48480, Note_on_c, 7, 52, 97
11, 48664, Note_on_c, 7, 52, 0
11, 49258, Note_on_c, 7, 55, 98
11, 49269, Note_on_c, 7, 56, 100
11, 49276, Note_on_c, 7, 55, 0
11, 49341, Note_on_c, 7, 56, 0
11, 49382, Note_on_c, 7, 55, 104
11, 49388, Note_on_c, 7, 56, 97
11, 49393, Note_on_c, 7, 55, 0
11, 49500, Note_on_c, 7, 54, 91
11, 49512, Note_on_c, 7, 54, 0
11, 49524, Note_on_c, 7, 56, 0
11, 49560, Note_on_c, 7, 54, 97
11, 49620, Note_on_c, 7, 52, 95
11, 49630, Note_on_c, 7, 54, 0
11, 49641, Note_on_c, 7, 52, 0
11, 49680, Note_on_c, 7, 54, 99
11, 49769, Note_on_c, 7, 54, 0
11, 49800, Note_on_c, 7, 54, 98
11, 49850, Note_on_c, 7, 54, 0
11, 49860, Note_on_c, 7, 52, 91
11, 49888, Note_on_c, 7, 52, 0
11, 49920, Note_on_c, 7, 55, 118
11, 50040, Note_on_c, 7, 55, 0
11, 50040, Note_on_c, 7, 54, 101
11, 50093, Note_on_c, 7, 54, 0
11, 50100, Note_on_c, 7, 52, 92
11, 50129, Note_on_c, 7, 52, 0
11, 50160, Note_on_c, 7, 55, 106
11, 50280, Note_on_c, 7, 54, 101
11, 50289, Note_on_c, 7, 55, 0
11, 50335, Note_on_c, 7, 54, 0
11, 50340, Note_on_c, 7, 52, 89
11, 50372, Note_on_c, 7, 52, 0
11, 50400, Note_on_c, 7, 52, 97
11, 50584, Note_on_c, 7, 52, 0
11, 51178, Note_on_c, 7, 55, 98
11, 51189, Note_on_c, 7, 56, 100
11, 51196, Note_on_c, 7, 55, 0
11, 51261, Note_on_c, 7, 56, 0
11, 51302, Note_on_c, 7, 55, 104
11, 51308, Note_on_c, 7, 56, 97
11, 51313, Note_on_c, 7, 55, 0
11, 51420, Note_on_c, 7, 54, 91
11, 51432, Note_on_c, 7, 54, 0
11, 51444, Note_on_c, 7, 56, 0
11, 51480, Note_on_c, 7, 54, 97
11, 51540, Note_on_c, 7, 52, 95
11, 51550, Note_on_c, 7, 54, 0
11, 51561, Note_on_c, 7, 52, 0
11, 51600, Note_on_c, 7, 54, 99
11, 51689, Note_on_c, 7, 54, 0
11, 51720, Note_on_c, 7, 54, 98
11, 51770, Note_on_c, 7, 54, 0
11, 51780, Note_on_c, 7, 52, 91
11, 51808, Note_on_c, 7, 52, 0
11, 51840, Note_on_c, 7, 55, 118
11, 51960, Note_on_c, 7, 55, 0
11, 51960, Note_on_c, 7, 54, 101
11, 52013, Note_on_c, 7, 54, 0
11, 52020, Note_on_c, 7, 52, 92
11, 52049, Note_on_c, 7, 52, 0
11, 52080, Note_on_c, 7, 55, 106
11, 52200, Note_on_c, 7, 54, 101
11, 52209, Note_on_c, 7, 55, 0
11, 52255, Note_on_c, 7, 54, 0
11, 52260, Note_on_c, 7, 52, 89
11, 52292, Note_on_c, 7, 52, 0
11, 52320, Note_on_c, 7, 52, 97
11, 52504, Note_on_c, 7, 52, 0
11, 52504, End_track
12, 0, Start_track
12, 0, MIDI_port, 0
12, 0, Program_c, 8, 32
12, 0, Control_c, 8, 0, 0
12, 0, Pitch_bend_c, 8, 8192
12, 146, Control_c, 8, 7, 127
12, 146, Control_c, 8, 10, 64
12, 540, Control_c, 8, 11, 127
12, 1020, Note_on_c, 8, 28, 68
12, 1070, Note_on_c, 8, 28, 0
12, 1080, Note_on_c, 8, 28, 67
12, 1130, Note_on_c, 8, 28, 0
12, 1140, Note_on_c, 8, 28, 67
12, 1190, Note_on_c, 8, 28, 0
12, 1200, Note_on_c, 8, 28, 67
12, 1250, Note_on_c, 8, 28, 0
12, 1260, Note_on_c, 8, 28, 66
12, 1310, Note_on_c, 8, 28, 0
12, 1320, Note_on_c, 8, 28, 66
12, 1370, Note_on_c, 8, 28, 0
12, 1380, Note_on_c, 8, 28, 65
12, 1430, Note_on_c, 8, 28, 0
12, 1440, Note_on_c, 8, 28, 67
12, 1490, Note_on_c, 8, 28, 0
12, 1920, Note_on_c, 8, 28, 75
12, 2031, Note_on_c, 8, 28, 0
12, 2040, Note_on_c, 8, 32, 68
12, 2159, Note_on_c, 8, 32, 0
12, 2160, Note_on_c, 8, 35, 72
12, 2262, Note_on_c, 8, 35, 0
12, 2280, Note_on_c, 8, 37, 67
12, 2340, Note_on_c, 8, 35, 75
12, 2344, Note_on_c, 8, 37, 0
12, 2388, Note_on_c, 8, 35, 0
12, 2400, Note_on_c, 8, 28, 68
12, 2515, Note_on_c, 8, 28, 0
12, 2520, Note_on_c, 8, 32, 67
12, 2639, Note_on_c, 8, 32, 0
12, 2640, Note_on_c, 8, 35, 69
12, 2745, Note_on_c, 8, 35, 0
12, 2760, Note_on_c, 8, 37, 67
12, 2812, Note_on_c, 8, 37, 0
12, 2820, Note_on_c, 8, 35, 75
12, 2871, Note_on_c, 8, 35, 0
12, 2880, Note_on_c, 8, 28, 69
12, 3000, Note_on_c, 8, 32, 75
12, 3005, Note_on_c, 8, 28, 0
12, 3117, Note_on_c, 8, 32, 0
12, 3120, Note_on_c, 8, 35, 75
12, 3228, Note_on_c, 8, 35, 0
12, 3240, Note_on_c, 8, 37, 67
12, 3300, Note_on_c, 8, 35, 75
12, 3303, Note_on_c, 8, 37, 0
12, 3346, Note_on_c, 8, 35, 0
12, 3360, Note_on_c, 8, 28, 67
12, 3480, Note_on_c, 8, 32, 72
12, 3482, Note_on_c, 8, 28, 0
12, 3597, Note_on_c, 8, 32, 0
12, 3600, Note_on_c, 8, 35, 75
12, 3717, Note_on_c, 8, 35, 0
12, 3720, Note_on_c, 8, 37, 63
12, 3775, Note_on_c, 8, 37, 0
12, 3780, Note_on_c, 8, 35, 75
12, 3832, Note_on_c, 8, 35, 0
12, 3840, Note_on_c, 8, 33, 72
12, 3957, Note_on_c, 8, 33, 0
12, 3960, Note_on_c, 8, 37, 75
12, 4076, Note_on_c, 8, 37, 0
12, 4080, Note_on_c, 8, 40, 75
12, 4193, Note_on_c, 8, 40, 0
12, 4200, Note_on_c, 8, 42, 65
12, 4260, Note_on_c, 8, 40, 59
12, 4261, Note_on_c, 8, 42, 0
12, 4300, Note_on_c, 8, 40, 0
12, 4320, Note_on_c, 8, 33, 75
12, 4432, Note_on_c, 8, 33, 0
12, 4440, Note_on_c, 8, 37, 69
12, 4554, Note_on_c, 8, 37, 0
12, 4560, Note_on_c, 8, 40, 69
12, 4680, Note_on_c, 8, 42, 68
12, 4685, Note_on_c, 8, 40, 0
12, 4740, Note_on_c, 8, 40, 63
12, 4741, Note_on_c, 8, 42, 0
12, 4776, Note_on_c, 8, 40, 0
12, 4800, Note_on_c, 8, 28, 68
12, 4917, Note_on_c, 8, 28, 0
12, 4920, Note_on_c, 8, 32, 75
12, 5040, Note_on_c, 8, 32, 0
12, 5040, Note_on_c, 8, 35, 75
12, 5157, Note_on_c, 8, 35, 0
12, 5160, Note_on_c, 8, 37, 63
12, 5220, Note_on_c, 8, 35, 75
12, 5221, Note_on_c, 8, 37, 0
12, 5267, Note_on_c, 8, 35, 0
12, 5280, Note_on_c, 8, 28, 69
12, 5396, Note_on_c, 8, 28, 0
12, 5400, Note_on_c, 8, 32, 65
12, 5517, Note_on_c, 8, 32, 0
12, 5520, Note_on_c, 8, 35, 75
12, 5640, Note_on_c, 8, 35, 0
12, 5640, Note_on_c, 8, 37, 66
12, 5700, Note_on_c, 8, 28, 75
12, 5713, Note_on_c, 8, 37, 0
12, 5737, Note_on_c, 8, 28, 0
12, 5760, Note_on_c, 8, 35, 67
12, 5872, Note_on_c, 8, 35, 0
12, 5880, Note_on_c, 8, 32, 67
12, 5991, Note_on_c, 8, 32, 0
12, 6000, Note_on_c, 8, 30, 66
12, 6106, Note_on_c, 8, 30, 0
12, 6120, Note_on_c, 8, 32, 69
12, 6180, Note_on_c, 8, 30, 68
12, 6189, Note_on_c, 8, 32, 0
12, 6236, Note_on_c, 8, 30, 0
12, 6240, Note_on_c, 8, 36, 75
12, 6344, Note_on_c, 8, 36, 0
12, 6360, Note_on_c, 8, 36, 72
12, 6464, Note_on_c, 8, 36, 0
12, 6480, Note_on_c, 8, 35, 75
12, 6577, Note_on_c, 8, 35, 0
12, 6600, Note_on_c, 8, 35, 65
12, 6660, Note_on_c, 8, 30, 66
12, 6664, Note_on_c, 8, 35, 0
12, 6711, Note_on_c, 8, 30, 0
12, 6720, Note_on_c, 8, 28, 75
12, 6840, Note_on_c, 8, 32, 72
12, 6842, Note_on_c, 8, 28, 0
12, 6960, Note_on_c, 8, 32, 0
12, 6960, Note_on_c, 8, 35, 68
12, 7075, Note_on_c, 8, 35, 0
12, 7080, Note_on_c, 8, 37, 72
12, 7140, Note_on_c, 8, 35, 65
12, 7142, Note_on_c, 8, 37, 0
12, 7184, Note_on_c, 8, 35, 0
12, 7200, Note_on_c, 8, 28, 66
12, 7315, Note_on_c, 8, 28, 0
12, 7320, Note_on_c, 8, 32, 69
12, 7440, Note_on_c, 8, 32, 0
12, 7440, Note_on_c, 8, 35, 75
12, 7550, Note_on_c, 8, 35, 0
12, 7560, Note_on_c, 8, 37, 66
12, 7662, Note_on_c, 8, 37, 0
12, 7680, Note_on_c, 8, 28, 67
12, 7798, Note_on_c, 8, 28, 0
12, 7800, Note_on_c, 8, 32, 66
12, 7908, Note_on_c, 8, 32, 0
12, 7920, Note_on_c, 8, 35, 66
12, 8028, Note_on_c, 8, 35, 0
12, 8040, Note_on_c, 8, 37, 63
12, 8100, Note_on_c, 8, 37, 0
12, 8100, Note_on_c, 8, 35, 65
12, 8154, Note_on_c, 8, 35, 0
12, 8160, Note_on_c, 8, 28, 67
12, 8340, Note_on_c, 8, 28, 0
12, 8340, Note_on_c, 8, 32, 68
12, 8444, Note_on_c, 8, 32, 0
12, 8460, Note_on_c, 8, 37, 61
12, 8520, Note_on_c, 8, 35, 67
12, 8521, Note_on_c, 8, 37, 0
12, 8611, Note_on_c, 8, 35, 0
12, 8640, Note_on_c, 8, 28, 67
12, 8757, Note_on_c, 8, 28, 0
12, 8760, Note_on_c, 8, 32, 68
12, 8791, Note_on_c, 8, 32, 0
12, 8820, Note_on_c, 8, 32, 67
12, 8880, Note_on_c, 8, 35, 66
12, 8891, Note_on_c, 8, 32, 0
12, 8991, Note_on_c, 8, 35, 0
12, 9000, Note_on_c, 8, 37, 66
12, 9060, Note_on_c, 8, 35, 59
12, 9074, Note_on_c, 8, 37, 0
12, 9090, Note_on_c, 8, 35, 0
12, 9120, Note_on_c, 8, 28, 63
12, 9300, Note_on_c, 8, 28, 0
12, 9300, Note_on_c, 8, 32, 66
12, 9407, Note_on_c, 8, 32, 0
12, 9420, Note_on_c, 8, 37, 62
12, 9466, Note_on_c, 8, 37, 0
12, 9480, Note_on_c, 8, 35, 67
12, 9590, Note_on_c, 8, 35, 0
12, 9600, Note_on_c, 8, 28, 68
12, 9710, Note_on_c, 8, 28, 0
12, 9720, Note_on_c, 8, 32, 66
12, 9826, Note_on_c, 8, 32, 0
12, 9840, Note_on_c, 8, 35, 72
12, 9941, Note_on_c, 8, 35, 0
12, 9960, Note_on_c, 8, 37, 63
12, 10020, Note_on_c, 8, 35, 63
12, 10024, Note_on_c, 8, 37, 0
12, 10066, Note_on_c, 8, 35, 0
12, 10080, Note_on_c, 8, 28, 68
12, 10194, Note_on_c, 8, 28, 0
12, 10200, Note_on_c, 8, 32, 69
12, 10315, Note_on_c, 8, 32, 0
12, 10320, Note_on_c, 8, 35, 75
12, 10429, Note_on_c, 8, 35, 0
12, 10440, Note_on_c, 8, 37, 69
12, 10491, Note_on_c, 8, 37, 0
12, 10500, Note_on_c, 8, 35, 72
12, 10560, Note_on_c, 8, 40, 75
12, 10561, Note_on_c, 8, 35, 0
12, 10608, Note_on_c, 8, 40, 0
12, 11100, Note_on_c, 8, 28, 68
12, 11150, Note_on_c, 8, 28, 0
12, 11160, Note_on_c, 8, 28, 67
12, 11210, Note_on_c, 8, 28, 0
12, 11220, Note_on_c, 8, 28, 67
12, 11270, Note_on_c, 8, 28, 0
12, 11280, Note_on_c, 8, 28, 67
12, 11330, Note_on_c, 8, 28, 0
12, 11340, Note_on_c, 8, 28, 66
12, 11390, Note_on_c, 8, 28, 0
12, 11400, Note_on_c, 8, 28, 66
12, 11450, Note_on_c, 8, 28, 0
12, 11460, Note_on_c, 8, 28, 65
12, 11510, Note_on_c, 8, 28, 0
12, 11520, Note_on_c, 8, 28, 67
12, 11570, Note_on_c, 8, 28, 0
12, 12000, Note_on_c, 8, 28, 75
12, 12111, Note_on_c, 8, 28, 0
12, 12120, Note_on_c, 8, 32, 68
12, 12239, Note_on_c, 8, 32, 0
12, 12240, Note_on_c, 8, 35, 72
12, 12342, Note_on_c, 8, 35, 0
12, 12360, Note_on_c, 8, 37, 67
12, 12420, Note_on_c, 8, 35, 75
12, 12424, Note_on_c, 8, 37, 0
12, 12468, Note_on_c, 8, 35, 0
12, 12480, Note_on_c, 8, 28, 68
12, 12595, Note_on_c, 8, 28, 0
12, 12600, Note_on_c, 8, 32, 67
12, 12719, Note_on_c, 8, 32, 0
12, 12720, Note_on_c, 8, 35, 69
12, 12825, Note_on_c, 8, 35, 0
12, 12840, Note_on_c, 8, 37, 67
12, 12892, Note_on_c, 8, 37, 0
12, 12900, Note_on_c, 8, 35, 75
12, 12951, Note_on_c, 8, 35, 0
12, 12960, Note_on_c, 8, 28, 69
12, 13080, Note_on_c, 8, 32, 75
12, 13085, Note_on_c, 8, 28, 0
12, 13197, Note_on_c, 8, 32, 0
12, 13200, Note_on_c, 8, 35, 75
12, 13308, Note_on_c, 8, 35, 0
12, 13320, Note_on_c, 8, 37, 67
12, 13380, Note_on_c, 8, 35, 75
12, 13383, Note_on_c, 8, 37, 0
12, 13426, Note_on_c, 8, 35, 0
12, 13440, Note_on_c, 8, 28, 67
12, 13560, Note_on_c, 8, 32, 72
12, 13562, Note_on_c, 8, 28, 0
12, 13677, Note_on_c, 8, 32, 0
12, 13680, Note_on_c, 8, 35, 75
12, 13797, Note_on_c, 8, 35, 0
12, 13800, Note_on_c, 8, 37, 63
12, 13855, Note_on_c, 8, 37, 0
12, 13860, Note_on_c, 8, 35, 75
12, 13912, Note_on_c, 8, 35, 0
12, 13920, Note_on_c, 8, 33, 72
12, 14037, Note_on_c, 8, 33, 0
12, 14040, Note_on_c, 8, 37, 75
12, 14156, Note_on_c, 8, 37, 0
12, 14160, Note_on_c, 8, 40, 75
12, 14273, Note_on_c, 8, 40, 0
12, 14280, Note_on_c, 8, 42, 65
12, 14340, Note_on_c, 8, 40, 59
12, 14341, Note_on_c, 8, 42, 0
12, 14380, Note_on_c, 8, 40, 0
12, 14400, Note_on_c, 8, 33, 75
12, 14512, Note_on_c, 8, 33, 0
12, 14520, Note_on_c, 8, 37, 69
12, 14634, Note_on_c, 8, 37, 0
12, 14640, Note_on_c, 8, 40, 69
12, 14760, Note_on_c, 8, 42, 68
12, 14765, Note_on_c, 8, 40, 0
12, 14820, Note_on_c, 8, 40, 63
12, 14821, Note_on_c, 8, 42, 0
12, 14856, Note_on_c, 8, 40, 0
12, 14880, Note_on_c, 8, 28, 68
12, 14997, Note_on_c, 8, 28, 0
12, 15000, Note_on_c, 8, 32, 75
12, 15120, Note_on_c, 8, 32, 0
12, 15120, Note_on_c, 8, 35, 75
12, 15237, Note_on_c, 8, 35, 0
12, 15240, Note_on_c, 8, 37, 63
12, 15300, Note_on_c, 8, 35, 75
12, 15301, Note_on_c, 8, 37, 0
12, 15347, Note_on_c, 8, 35, 0
12, 15360, Note_on_c, 8, 28, 69
12, 15476, Note_on_c, 8, 28, 0
12, 15480, Note_on_c, 8, 32, 65
12, 15597, Note_on_c, 8, 32, 0
12, 15600, Note_on_c, 8, 35, 75
12, 15720, Note_on_c, 8, 35, 0
12, 15720, Note_on_c, 8, 37, 66
12, 15780, Note_on_c, 8, 28, 75
12, 15793, Note_on_c, 8, 37, 0
12, 15817, Note_on_c, 8, 28, 0
12, 15840, Note_on_c, 8, 35, 67
12, 15952, Note_on_c, 8, 35, 0
12, 15960, Note_on_c, 8, 32, 67
12, 16071, Note_on_c, 8, 32, 0
12, 16080, Note_on_c, 8, 30, 66
12, 16186, Note_on_c, 8, 30, 0
12, 16200, Note_on_c, 8, 32, 69
12, 16260, Note_on_c, 8, 30, 68
12, 16269, Note_on_c, 8, 32, 0
12, 16316, Note_on_c, 8, 30, 0
12, 16320, Note_on_c, 8, 36, 65
12, 16434, Note_on_c, 8, 36, 0
12, 16440, Note_on_c, 8, 43, 63
12, 16500, Note_on_c, 8, 36, 61
12, 16514, Note_on_c, 8, 43, 0
12, 16560, Note_on_c, 8, 36, 0
12, 16560, Note_on_c, 8, 35, 75
12, 16667, Note_on_c, 8, 35, 0
12, 16680, Note_on_c, 8, 42, 65
12, 16739, Note_on_c, 8, 42, 0
12, 16740, Note_on_c, 8, 35, 67
12, 16776, Note_on_c, 8, 35, 0
12, 16800, Note_on_c, 8, 28, 75
12, 16911, Note_on_c, 8, 28, 0
12, 16920, Note_on_c, 8, 32, 68
12, 17040, Note_on_c, 8, 35, 75
12, 17045, Note_on_c, 8, 32, 0
12, 17155, Note_on_c, 8, 35, 0
12, 17160, Note_on_c, 8, 37, 69
12, 17272, Note_on_c, 8, 37, 0
12, 17280, Note_on_c, 8, 40, 75
12, 17389, Note_on_c, 8, 40, 0
12, 17400, Note_on_c, 8, 38, 75
12, 17517, Note_on_c, 8, 38, 0
12, 17520, Note_on_c, 8, 37, 68
12, 17629, Note_on_c, 8, 37, 0
12, 17640, Note_on_c, 8, 35, 75
12, 17747, Note_on_c, 8, 35, 0
12, 17760, Note_on_c, 8, 28, 72
12, 17879, Note_on_c, 8, 28, 0
12, 17880, Note_on_c, 8, 32, 68
12, 18000, Note_on_c, 8, 32, 0
12, 18000, Note_on_c, 8, 35, 67
12, 18030, Note_on_c, 8, 35, 0
12, 18060, Note_on_c, 8, 35, 65
12, 18120, Note_on_c, 8, 37, 63
12, 18137, Note_on_c, 8, 35, 0
12, 18180, Note_on_c, 8, 35, 65
12, 18197, Note_on_c, 8, 37, 0
12, 18240, Note_on_c, 8, 35, 0
12, 18240, Note_on_c, 8, 28, 68
12, 18356, Note_on_c, 8, 28, 0
12, 18360, Note_on_c, 8, 32, 66
12, 18480, Note_on_c, 8, 35, 67
12, 18484, Note_on_c, 8, 32, 0
12, 18514, Note_on_c, 8, 35, 0
12, 18540, Note_on_c, 8, 35, 66
12, 18600, Note_on_c, 8, 37, 66
12, 18613, Note_on_c, 8, 35, 0
12, 18660, Note_on_c, 8, 35, 66
12, 18667, Note_on_c, 8, 37, 0
12, 18711, Note_on_c, 8, 35, 0
12, 18720, Note_on_c, 8, 28, 66
12, 18837, Note_on_c, 8, 28, 0
12, 18840, Note_on_c, 8, 32, 67
12, 18956, Note_on_c, 8, 32, 0
12, 18960, Note_on_c, 8, 35, 63
12, 18980, Note_on_c, 8, 35, 0
12, 19020, Note_on_c, 8, 35, 66
12, 19080, Note_on_c, 8, 37, 66
12, 19089, Note_on_c, 8, 35, 0
12, 19140, Note_on_c, 8, 35, 66
12, 19150, Note_on_c, 8, 37, 0
12, 19200, Note_on_c, 8, 35, 0
12, 19200, Note_on_c, 8, 28, 69
12, 19310, Note_on_c, 8, 28, 0
12, 19320, Note_on_c, 8, 32, 68
12, 19440, Note_on_c, 8, 35, 67
12, 19448, Note_on_c, 8, 32, 0
12, 19473, Note_on_c, 8, 35, 0
12, 19500, Note_on_c, 8, 35, 67
12, 19560, Note_on_c, 8, 37, 65
12, 19566, Note_on_c, 8, 35, 0
12, 19620, Note_on_c, 8, 35, 68
12, 19629, Note_on_c, 8, 37, 0
12, 19680, Note_on_c, 8, 35, 0
12, 19680, Note_on_c, 8, 33, 58
12, 19789, Note_on_c, 8, 33, 0
12, 19800, Note_on_c, 8, 37, 65
12, 19917, Note_on_c, 8, 37, 0
12, 19920, Note_on_c, 8, 40, 63
12, 19956, Note_on_c, 8, 40, 0
12, 19980, Note_on_c, 8, 40, 63
12, 20040, Note_on_c, 8, 42, 65
12, 20050, Note_on_c, 8, 40, 0
12, 20100, Note_on_c, 8, 40, 63
12, 20109, Note_on_c, 8, 42, 0
12, 20156, Note_on_c, 8, 40, 0
12, 20160, Note_on_c, 8, 33, 59
12, 20277, Note_on_c, 8, 33, 0
12, 20280, Note_on_c, 8, 37, 68
12, 20395, Note_on_c, 8, 37, 0
12, 20400, Note_on_c, 8, 40, 63
12, 20435, Note_on_c, 8, 40, 0
12, 20460, Note_on_c, 8, 40, 63
12, 20520, Note_on_c, 8, 42, 67
12, 20529, Note_on_c, 8, 40, 0
12, 20580, Note_on_c, 8, 40, 61
12, 20584, Note_on_c, 8, 42, 0
12, 20615, Note_on_c, 8, 40, 0
12, 20640, Note_on_c, 8, 28, 67
12, 20757, Note_on_c, 8, 28, 0
12, 20760, Note_on_c, 8, 32, 67
12, 20880, Note_on_c, 8, 32, 0
12, 20880, Note_on_c, 8, 35, 69
12, 20909, Note_on_c, 8, 35, 0
12, 20940, Note_on_c, 8, 35, 63
12, 21000, Note_on_c, 8, 37, 68
12, 21012, Note_on_c, 8, 35, 0
12, 21060, Note_on_c, 8, 35, 66
12, 21068, Note_on_c, 8, 37, 0
12, 21120, Note_on_c, 8, 35, 0
12, 21120, Note_on_c, 8, 28, 72
12, 21235, Note_on_c, 8, 28, 0
12, 21240, Note_on_c, 8, 32, 67
12, 21360, Note_on_c, 8, 35, 69
12, 21362, Note_on_c, 8, 32, 0
12, 21390, Note_on_c, 8, 35, 0
12, 21420, Note_on_c, 8, 35, 67
12, 21480, Note_on_c, 8, 37, 67
12, 21489, Note_on_c, 8, 35, 0
12, 21539, Note_on_c, 8, 37, 0
12, 21540, Note_on_c, 8, 33, 75
12, 21600, Note_on_c, 8, 33, 0
12, 21600, Note_on_c, 8, 35, 69
12, 21719, Note_on_c, 8, 35, 0
12, 21720, Note_on_c, 8, 32, 63
12, 21837, Note_on_c, 8, 32, 0
12, 21840, Note_on_c, 8, 30, 68
12, 21883, Note_on_c, 8, 30, 0
12, 21900, Note_on_c, 8, 30, 59
12, 21960, Note_on_c, 8, 32, 75
12, 21971, Note_on_c, 8, 30, 0
12, 22020, Note_on_c, 8, 30, 58
12, 22033, Note_on_c, 8, 32, 0
12, 22077, Note_on_c, 8, 30, 0
12, 22080, Note_on_c, 8, 36, 72
12, 22177, Note_on_c, 8, 36, 0
12, 22200, Note_on_c, 8, 36, 68
12, 22299, Note_on_c, 8, 36, 0
12, 22320, Note_on_c, 8, 35, 72
12, 22414, Note_on_c, 8, 35, 0
12, 22440, Note_on_c, 8, 35, 67
12, 22500, Note_on_c, 8, 30, 66
12, 22502, Note_on_c, 8, 35, 0
12, 22552, Note_on_c, 8, 30, 0
12, 22560, Note_on_c, 8, 28, 67
12, 22672, Note_on_c, 8, 28, 0
12, 22680, Note_on_c, 8, 32, 75
12, 22797, Note_on_c, 8, 32, 0
12, 22800, Note_on_c, 8, 35, 75
12, 22911, Note_on_c, 8, 35, 0
12, 22920, Note_on_c, 8, 37, 68
12, 23022, Note_on_c, 8, 37, 0
12, 23042, Note_on_c, 8, 40, 75
12, 23162, Note_on_c, 8, 40, 0
12, 23162, Note_on_c, 8, 38, 75
12, 23212, Note_on_c, 8, 38, 0
12, 23222, Note_on_c, 8, 37, 67
12, 23284, Note_on_c, 8, 37, 0
12, 23284, Note_on_c, 8, 35, 67
12, 23331, Note_on_c, 8, 35, 0
12, 23342, Note_on_c, 8, 30, 69
12, 23402, Note_on_c, 8, 30, 0
12, 23402, Note_on_c, 8, 31, 75
12, 23468, Note_on_c, 8, 30, 68
12, 23469, Note_on_c, 8, 31, 0
12, 23504, Note_on_c, 8, 30, 0
12, 23520, Note_on_c, 8, 28, 69
12, 23632, Note_on_c, 8, 28, 0
12, 23640, Note_on_c, 8, 32, 75
12, 23760, Note_on_c, 8, 35, 75
12, 23763, Note_on_c, 8, 32, 0
12, 23785, Note_on_c, 8, 35, 0
12, 23820, Note_on_c, 8, 35, 69
12, 23880, Note_on_c, 8, 35, 0
12, 23880, Note_on_c, 8, 37, 75
12, 23940, Note_on_c, 8, 37, 0
12, 23940, Note_on_c, 8, 35, 69
12, 23992, Note_on_c, 8, 35, 0
12, 24000, Note_on_c, 8, 28, 75
12, 24156, Note_on_c, 8, 28, 0
12, 24180, Note_on_c, 8, 32, 75
12, 24292, Note_on_c, 8, 32, 0
12, 24300, Note_on_c, 8, 37, 67
12, 24355, Note_on_c, 8, 37, 0
12, 24360, Note_on_c, 8, 35, 75
12, 24463, Note_on_c, 8, 35, 0
12, 24480, Note_on_c, 8, 28, 68
12, 24595, Note_on_c, 8, 28, 0
12, 24600, Note_on_c, 8, 32, 75
12, 24716, Note_on_c, 8, 32, 0
12, 24720, Note_on_c, 8, 35, 69
12, 24743, Note_on_c, 8, 35, 0
12, 24780, Note_on_c, 8, 35, 75
12, 24840, Note_on_c, 8, 37, 72
12, 24846, Note_on_c, 8, 35, 0
12, 24900, Note_on_c, 8, 37, 0
12, 24900, Note_on_c, 8, 35, 72
12, 24954, Note_on_c, 8, 35, 0
12, 24960, Note_on_c, 8, 28, 68
12, 25140, Note_on_c, 8, 28, 0
12, 25140, Note_on_c, 8, 32, 72
12, 25246, Note_on_c, 8, 32, 0
12, 25260, Note_on_c, 8, 35, 75
12, 25316, Note_on_c, 8, 35, 0
12, 25320, Note_on_c, 8, 37, 65
12, 25407, Note_on_c, 8, 37, 0
12, 25440, Note_on_c, 8, 28, 72
12, 25560, Note_on_c, 8, 32, 72
12, 25567, Note_on_c, 8, 28, 0
12, 25680, Note_on_c, 8, 35, 72
12, 25684, Note_on_c, 8, 32, 0
12, 25705, Note_on_c, 8, 35, 0
12, 25740, Note_on_c, 8, 35, 75
12, 25800, Note_on_c, 8, 37, 68
12, 25804, Note_on_c, 8, 35, 0
12, 25860, Note_on_c, 8, 35, 65
12, 25865, Note_on_c, 8, 37, 0
12, 25909, Note_on_c, 8, 35, 0
12, 25920, Note_on_c, 8, 28, 68
12, 26037, Note_on_c, 8, 28, 0
12, 26040, Note_on_c, 8, 32, 75
12, 26156, Note_on_c, 8, 32, 0
12, 26160, Note_on_c, 8, 35, 75
12, 26187, Note_on_c, 8, 35, 0
12, 26220, Note_on_c, 8, 35, 65
12, 26280, Note_on_c, 8, 37, 68
12, 26282, Note_on_c, 8, 35, 0
12, 26331, Note_on_c, 8, 37, 0
12, 26340, Note_on_c, 8, 35, 75
12, 26388, Note_on_c, 8, 35, 0
12, 26400, Note_on_c, 8, 40, 75
12, 26464, Note_on_c, 8, 40, 0
12, 26940, Note_on_c, 8, 28, 68
12, 26990, Note_on_c, 8, 28, 0
12, 27000, Note_on_c, 8, 28, 67
12, 27050, Note_on_c, 8, 28, 0
12, 27060, Note_on_c, 8, 28, 67
12, 27110, Note_on_c, 8, 28, 0
12, 27120, Note_on_c, 8, 28, 67
12, 27170, Note_on_c, 8, 28, 0
12, 27180, Note_on_c, 8, 28, 66
12, 27230, Note_on_c, 8, 28, 0
12, 27240, Note_on_c, 8, 28, 66
12, 27290, Note_on_c, 8, 28, 0
12, 27300, Note_on_c, 8, 28, 65
12, 27350, Note_on_c, 8, 28, 0
12, 27360, Note_on_c, 8, 28, 67
12, 27410, Note_on_c, 8, 28, 0
12, 27840, Note_on_c, 8, 28, 75
12, 27951, Note_on_c, 8, 28, 0
12, 27960, Note_on_c, 8, 32, 68
12, 28079, Note_on_c, 8, 32, 0
12, 28080, Note_on_c, 8, 35, 72
12, 28182, Note_on_c, 8, 35, 0
12, 28200, Note_on_c, 8, 37, 67
12, 28260, Note_on_c, 8, 35, 75
12, 28264, Note_on_c, 8, 37, 0
12, 28308, Note_on_c, 8, 35, 0
12, 28320, Note_on_c, 8, 28, 68
12, 28435, Note_on_c, 8, 28, 0
12, 28440, Note_on_c, 8, 32, 67
12, 28559, Note_on_c, 8, 32, 0
12, 28560, Note_on_c, 8, 35, 69
12, 28665, Note_on_c, 8, 35, 0
12, 28680, Note_on_c, 8, 37, 67
12, 28732, Note_on_c, 8, 37, 0
12, 28740, Note_on_c, 8, 35, 75
12, 28791, Note_on_c, 8, 35, 0
12, 28800, Note_on_c, 8, 28, 69
12, 28920, Note_on_c, 8, 32, 75
12, 28925, Note_on_c, 8, 28, 0
12, 29037, Note_on_c, 8, 32, 0
12, 29040, Note_on_c, 8, 35, 75
12, 29148, Note_on_c, 8, 35, 0
12, 29160, Note_on_c, 8, 37, 67
12, 29220, Note_on_c, 8, 35, 75
12, 29223, Note_on_c, 8, 37, 0
12, 29266, Note_on_c, 8, 35, 0
12, 29280, Note_on_c, 8, 28, 67
12, 29400, Note_on_c, 8, 32, 72
12, 29402, Note_on_c, 8, 28, 0
12, 29517, Note_on_c, 8, 32, 0
12, 29520, Note_on_c, 8, 35, 75
12, 29637, Note_on_c, 8, 35, 0
12, 29640, Note_on_c, 8, 37, 63
12, 29695, Note_on_c, 8, 37, 0
12, 29700, Note_on_c, 8, 35, 75
12, 29752, Note_on_c, 8, 35, 0
12, 29760, Note_on_c, 8, 33, 72
12, 29877, Note_on_c, 8, 33, 0
12, 29880, Note_on_c, 8, 37, 75
12, 29996, Note_on_c, 8, 37, 0
12, 30000, Note_on_c, 8, 40, 75
12, 30113, Note_on_c, 8, 40, 0
12, 30120, Note_on_c, 8, 42, 65
12, 30180, Note_on_c, 8, 40, 59
12, 30181, Note_on_c, 8, 42, 0
12, 30220, Note_on_c, 8, 40, 0
12, 30240, Note_on_c, 8, 33, 75
12, 30352, Note_on_c, 8, 33, 0
12, 30360, Note_on_c, 8, 37, 69
12, 30474, Note_on_c, 8, 37, 0
12, 30480, Note_on_c, 8, 40, 69
12, 30600, Note_on_c, 8, 42, 68
12, 30605, Note_on_c, 8, 40, 0
12, 30660, Note_on_c, 8, 40, 63
12, 30661, Note_on_c, 8, 42, 0
12, 30696, Note_on_c, 8, 40, 0
12, 30720, Note_on_c, 8, 28, 68
12, 30837, Note_on_c, 8, 28, 0
12, 30840, Note_on_c, 8, 32, 75
12, 30960, Note_on_c, 8, 32, 0
12, 30960, Note_on_c, 8, 35, 75
12, 31077, Note_on_c, 8, 35, 0
12, 31080, Note_on_c, 8, 37, 63
12, 31140, Note_on_c, 8, 35, 75
12, 31141, Note_on_c, 8, 37, 0
12, 31187, Note_on_c, 8, 35, 0
12, 31200, Note_on_c, 8, 28, 69
12, 31316, Note_on_c, 8, 28, 0
12, 31320, Note_on_c, 8, 32, 65
12, 31437, Note_on_c, 8, 32, 0
12, 31440, Note_on_c, 8, 35, 75
12, 31560, Note_on_c, 8, 35, 0
12, 31560, Note_on_c, 8, 37, 66
12, 31620, Note_on_c, 8, 28, 75
12, 31633, Note_on_c, 8, 37, 0
12, 31657, Note_on_c, 8, 28, 0
12, 31680, Note_on_c, 8, 35, 67
12, 31792, Note_on_c, 8, 35, 0
12, 31800, Note_on_c, 8, 32, 67
12, 31911, Note_on_c, 8, 32, 0
12, 31920, Note_on_c, 8, 30, 66
12, 32026, Note_on_c, 8, 30, 0
12, 32040, Note_on_c, 8, 32, 69
12, 32100, Note_on_c, 8, 30, 68
12, 32109, Note_on_c, 8, 32, 0
12, 32156, Note_on_c, 8, 30, 0
12, 32160, Note_on_c, 8, 36, 65
12, 32274, Note_on_c, 8, 36, 0
12, 32280, Note_on_c, 8, 43, 63
12, 32340, Note_on_c, 8, 36, 61
12, 32354, Note_on_c, 8, 43, 0
12, 32400, Note_on_c, 8, 36, 0
12, 32400, Note_on_c, 8, 35, 75
12, 32507, Note_on_c, 8, 35, 0
12, 32520, Note_on_c, 8, 42, 65
12, 32579, Note_on_c, 8, 42, 0
12, 32580, Note_on_c, 8, 35, 67
12, 32616, Note_on_c, 8, 35, 0
12, 32640, Note_on_c, 8, 28, 75
12, 32750, Note_on_c, 8, 28, 0
12, 32760, Note_on_c, 8, 32, 67
12, 32880, Note_on_c, 8, 32, 0
12, 32880, Note_on_c, 8, 35, 69
12, 32989, Note_on_c, 8, 35, 0
12, 33000, Note_on_c, 8, 37, 66
12, 33058, Note_on_c, 8, 37, 0
12, 33060, Note_on_c, 8, 35, 75
12, 33114, Note_on_c, 8, 35, 0
12, 33120, Note_on_c, 8, 28, 66
12, 33229, Note_on_c, 8, 28, 0
12, 33240, Note_on_c, 8, 32, 66
12, 33358, Note_on_c, 8, 32, 0
12, 33360, Note_on_c, 8, 35, 75
12, 33480, Note_on_c, 8, 37, 75
12, 33481, Note_on_c, 8, 35, 0
12, 33576, Note_on_c, 8, 37, 0
12, 33600, Note_on_c, 8, 28, 72
12, 33719, Note_on_c, 8, 28, 0
12, 33720, Note_on_c, 8, 32, 68
12, 33840, Note_on_c, 8, 32, 0
12, 33840, Note_on_c, 8, 35, 67
12, 33870, Note_on_c, 8, 35, 0
12, 33900, Note_on_c, 8, 35, 65
12, 33960, Note_on_c, 8, 35, 0
12, 33960, Note_on_c, 8, 37, 63
12, 34020, Note_on_c, 8, 37, 0
12, 34020, Note_on_c, 8, 35, 65
12, 34080, Note_on_c, 8, 35, 0
12, 34080, Note_on_c, 8, 28, 68
12, 34196, Note_on_c, 8, 28, 0
12, 34200, Note_on_c, 8, 32, 66
12, 34320, Note_on_c, 8, 35, 67
12, 34324, Note_on_c, 8, 32, 0
12, 34354, Note_on_c, 8, 35, 0
12, 34380, Note_on_c, 8, 35, 66
12, 34440, Note_on_c, 8, 35, 0
12, 34440, Note_on_c, 8, 37, 66
12, 34500, Note_on_c, 8, 37, 0
12, 34500, Note_on_c, 8, 35, 66
12, 34551, Note_on_c, 8, 35, 0
12, 34560, Note_on_c, 8, 28, 66
12, 34677, Note_on_c, 8, 28, 0
12, 34680, Note_on_c, 8, 32, 67
12, 34796, Note_on_c, 8, 32, 0
12, 34800, Note_on_c, 8, 35, 63
12, 34820, Note_on_c, 8, 35, 0
12, 34860, Note_on_c, 8, 35, 66
12, 34920, Note_on_c, 8, 37, 66
12, 34929, Note_on_c, 8, 35, 0
12, 34980, Note_on_c, 8, 35, 66
12, 34990, Note_on_c, 8, 37, 0
12, 35040, Note_on_c, 8, 35, 0
12, 35040, Note_on_c, 8, 28, 69
12, 35150, Note_on_c, 8, 28, 0
12, 35160, Note_on_c, 8, 32, 68
12, 35280, Note_on_c, 8, 35, 67
12, 35288, Note_on_c, 8, 32, 0
12, 35313, Note_on_c, 8, 35, 0
12, 35340, Note_on_c, 8, 35, 67
12, 35400, Note_on_c, 8, 37, 65
12, 35406, Note_on_c, 8, 35, 0
12, 35460, Note_on_c, 8, 35, 68
12, 35469, Note_on_c, 8, 37, 0
12, 35520, Note_on_c, 8, 35, 0
12, 35520, Note_on_c, 8, 33, 58
12, 35629, Note_on_c, 8, 33, 0
12, 35640, Note_on_c, 8, 37, 65
12, 35757, Note_on_c, 8, 37, 0
12, 35760, Note_on_c, 8, 40, 63
12, 35796, Note_on_c, 8, 40, 0
12, 35820, Note_on_c, 8, 40, 63
12, 35880, Note_on_c, 8, 42, 65
12, 35890, Note_on_c, 8, 40, 0
12, 35940, Note_on_c, 8, 42, 0
12, 35940, Note_on_c, 8, 40, 63
12, 35996, Note_on_c, 8, 40, 0
12, 36000, Note_on_c, 8, 33, 59
12, 36117, Note_on_c, 8, 33, 0
12, 36120, Note_on_c, 8, 37, 68
12, 36235, Note_on_c, 8, 37, 0
12, 36240, Note_on_c, 8, 40, 63
12, 36275, Note_on_c, 8, 40, 0
12, 36300, Note_on_c, 8, 40, 63
12, 36360, Note_on_c, 8, 42, 67
12, 36369, Note_on_c, 8, 40, 0
12, 36420, Note_on_c, 8, 40, 61
12, 36424, Note_on_c, 8, 42, 0
12, 36455, Note_on_c, 8, 40, 0
12, 36480, Note_on_c, 8, 28, 67
12, 36597, Note_on_c, 8, 28, 0
12, 36600, Note_on_c, 8, 32, 67
12, 36720, Note_on_c, 8, 32, 0
12, 36720, Note_on_c, 8, 35, 69
12, 36749, Note_on_c, 8, 35, 0
12, 36780, Note_on_c, 8, 35, 63
12, 36840, Note_on_c, 8, 37, 68
12, 36852, Note_on_c, 8, 35, 0
12, 36900, Note_on_c, 8, 37, 0
12, 36900, Note_on_c, 8, 35, 66
12, 36960, Note_on_c, 8, 35, 0
12, 36960, Note_on_c, 8, 28, 72
12, 37075, Note_on_c, 8, 28, 0
12, 37080, Note_on_c, 8, 32, 67
12, 37200, Note_on_c, 8, 35, 69
12, 37202, Note_on_c, 8, 32, 0
12, 37230, Note_on_c, 8, 35, 0
12, 37260, Note_on_c, 8, 35, 67
12, 37320, Note_on_c, 8, 37, 67
12, 37329, Note_on_c, 8, 35, 0
12, 37379, Note_on_c, 8, 37, 0
12, 37380, Note_on_c, 8, 33, 75
12, 37440, Note_on_c, 8, 33, 0
12, 37440, Note_on_c, 8, 35, 69
12, 37559, Note_on_c, 8, 35, 0
12, 37560, Note_on_c, 8, 32, 63
12, 37677, Note_on_c, 8, 32, 0
12, 37680, Note_on_c, 8, 30, 68
12, 37723, Note_on_c, 8, 30, 0
12, 37740, Note_on_c, 8, 30, 59
12, 37800, Note_on_c, 8, 30, 0
12, 37800, Note_on_c, 8, 32, 75
12, 37860, Note_on_c, 8, 32, 0
12, 37860, Note_on_c, 8, 30, 58
12, 37917, Note_on_c, 8, 30, 0
12, 37920, Note_on_c, 8, 36, 75
12, 38024, Note_on_c, 8, 36, 0
12, 38040, Note_on_c, 8, 36, 68
12, 38150, Note_on_c, 8, 36, 0
12, 38160, Note_on_c, 8, 35, 68
12, 38257, Note_on_c, 8, 35, 0
12, 38280, Note_on_c, 8, 35, 75
12, 38340, Note_on_c, 8, 30, 63
12, 38348, Note_on_c, 8, 35, 0
12, 38391, Note_on_c, 8, 30, 0
12, 38400, Note_on_c, 8, 28, 65
12, 38507, Note_on_c, 8, 28, 0
12, 38520, Note_on_c, 8, 32, 69
12, 38640, Note_on_c, 8, 35, 69
12, 38644, Note_on_c, 8, 32, 0
12, 38671, Note_on_c, 8, 35, 0
12, 38700, Note_on_c, 8, 35, 67
12, 38760, Note_on_c, 8, 37, 65
12, 38761, Note_on_c, 8, 35, 0
12, 38820, Note_on_c, 8, 37, 0
12, 38820, Note_on_c, 8, 35, 66
12, 38880, Note_on_c, 8, 35, 0
12, 38880, Note_on_c, 8, 28, 68
12, 38997, Note_on_c, 8, 28, 0
12, 39000, Note_on_c, 8, 32, 75
12, 39116, Note_on_c, 8, 32, 0
12, 39120, Note_on_c, 8, 35, 75
12, 39229, Note_on_c, 8, 35, 0
12, 39240, Note_on_c, 8, 37, 69
12, 39339, Note_on_c, 8, 37, 0
12, 39360, Note_on_c, 8, 28, 69
12, 39472, Note_on_c, 8, 28, 0
12, 39480, Note_on_c, 8, 32, 75
12, 39600, Note_on_c, 8, 35, 75
12, 39603, Note_on_c, 8, 32, 0
12, 39625, Note_on_c, 8, 35, 0
12, 39660, Note_on_c, 8, 35, 69
12, 39720, Note_on_c, 8, 35, 0
12, 39720, Note_on_c, 8, 37, 75
12, 39780, Note_on_c, 8, 37, 0
12, 39780, Note_on_c, 8, 35, 69
12, 39832, Note_on_c, 8, 35, 0
12, 39840, Note_on_c, 8, 28, 75
12, 39996, Note_on_c, 8, 28, 0
12, 40020, Note_on_c, 8, 32, 75
12, 40132, Note_on_c, 8, 32, 0
12, 40140, Note_on_c, 8, 37, 67
12, 40195, Note_on_c, 8, 37, 0
12, 40200, Note_on_c, 8, 35, 75
12, 40303, Note_on_c, 8, 35, 0
12, 40320, Note_on_c, 8, 28, 68
12, 40435, Note_on_c, 8, 28, 0
12, 40440, Note_on_c, 8, 32, 75
12, 40556, Note_on_c, 8, 32, 0
12, 40560, Note_on_c, 8, 35, 69
12, 40583, Note_on_c, 8, 35, 0
12, 40620, Note_on_c, 8, 35, 75
12, 40680, Note_on_c, 8, 37, 72
12, 40686, Note_on_c, 8, 35, 0
12, 40740, Note_on_c, 8, 35, 72
12, 40752, Note_on_c, 8, 37, 0
12, 40794, Note_on_c, 8, 35, 0
12, 40800, Note_on_c, 8, 28, 68
12, 40937, Note_on_c, 8, 28, 0
12, 40980, Note_on_c, 8, 32, 72
12, 41086, Note_on_c, 8, 32, 0
12, 41100, Note_on_c, 8, 35, 75
12, 41156, Note_on_c, 8, 35, 0
12, 41160, Note_on_c, 8, 37, 65
12, 41247, Note_on_c, 8, 37, 0
12, 41280, Note_on_c, 8, 28, 72
12, 41400, Note_on_c, 8, 32, 72
12, 41407, Note_on_c, 8, 28, 0
12, 41520, Note_on_c, 8, 35, 72
12, 41524, Note_on_c, 8, 32, 0
12, 41545, Note_on_c, 8, 35, 0
12, 41580, Note_on_c, 8, 35, 75
12, 41640, Note_on_c, 8, 37, 68
12, 41644, Note_on_c, 8, 35, 0
12, 41700, Note_on_c, 8, 35, 65
12, 41705, Note_on_c, 8, 37, 0
12, 41749, Note_on_c, 8, 35, 0
12, 41760, Note_on_c, 8, 28, 68
12, 41877, Note_on_c, 8, 28, 0
12, 41880, Note_on_c, 8, 32, 75
12, 41996, Note_on_c, 8, 32, 0
12, 42000, Note_on_c, 8, 35, 75
12, 42027, Note_on_c, 8, 35, 0
12, 42060, Note_on_c, 8, 35, 65
12, 42120, Note_on_c, 8, 37, 68
12, 42122, Note_on_c, 8, 35, 0
12, 42171, Note_on_c, 8, 37, 0
12, 42180, Note_on_c, 8, 35, 75
12, 42228, Note_on_c, 8, 35, 0
12, 42240, Note_on_c, 8, 40, 75
12, 42304, Note_on_c, 8, 40, 0
12, 42780, Note_on_c, 8, 28, 68
12, 42830, Note_on_c, 8, 28, 0
12, 42840, Note_on_c, 8, 28, 67
12, 42890, Note_on_c, 8, 28, 0
12, 42900, Note_on_c, 8, 28, 67
12, 42950, Note_on_c, 8, 28, 0
12, 42960, Note_on_c, 8, 28, 67
12, 43010, Note_on_c, 8, 28, 0
12, 43020, Note_on_c, 8, 28, 66
12, 43070, Note_on_c, 8, 28, 0
12, 43080, Note_on_c, 8, 28, 66
12, 43130, Note_on_c, 8, 28, 0
12, 43140, Note_on_c, 8, 28, 65
12, 43190, Note_on_c, 8, 28, 0
12, 43200, Note_on_c, 8, 28, 67
12, 43250, Note_on_c, 8, 28, 0
12, 43680, Note_on_c, 8, 28, 75
12, 43791, Note_on_c, 8, 28, 0
12, 43800, Note_on_c, 8, 32, 68
12, 43919, Note_on_c, 8, 32, 0
12, 43920, Note_on_c, 8, 35, 72
12, 44022, Note_on_c, 8, 35, 0
12, 44040, Note_on_c, 8, 37, 67
12, 44100, Note_on_c, 8, 35, 75
12, 44104, Note_on_c, 8, 37, 0
12, 44148, Note_on_c, 8, 35, 0
12, 44160, Note_on_c, 8, 28, 68
12, 44275, Note_on_c, 8, 28, 0
12, 44280, Note_on_c, 8, 32, 67
12, 44399, Note_on_c, 8, 32, 0
12, 44400, Note_on_c, 8, 35, 69
12, 44505, Note_on_c, 8, 35, 0
12, 44520, Note_on_c, 8, 37, 67
12, 44572, Note_on_c, 8, 37, 0
12, 44580, Note_on_c, 8, 35, 75
12, 44631, Note_on_c, 8, 35, 0
12, 44640, Note_on_c, 8, 28, 69
12, 44760, Note_on_c, 8, 32, 75
12, 44765, Note_on_c, 8, 28, 0
12, 44877, Note_on_c, 8, 32, 0
12, 44880, Note_on_c, 8, 35, 75
12, 44988, Note_on_c, 8, 35, 0
12, 45000, Note_on_c, 8, 37, 67
12, 45060, Note_on_c, 8, 35, 75
12, 45063, Note_on_c, 8, 37, 0
12, 45106, Note_on_c, 8, 35, 0
12, 45120, Note_on_c, 8, 28, 67
12, 45240, Note_on_c, 8, 32, 72
12, 45242, Note_on_c, 8, 28, 0
12, 45357, Note_on_c, 8, 32, 0
12, 45360, Note_on_c, 8, 35, 75
12, 45477, Note_on_c, 8, 35, 0
12, 45480, Note_on_c, 8, 37, 63
12, 45535, Note_on_c, 8, 37, 0
12, 45540, Note_on_c, 8, 35, 75
12, 45592, Note_on_c, 8, 35, 0
12, 45600, Note_on_c, 8, 33, 72
12, 45717, Note_on_c, 8, 33, 0
12, 45720, Note_on_c, 8, 37, 75
12, 45836, Note_on_c, 8, 37, 0
12, 45840, Note_on_c, 8, 40, 75
12, 45953, Note_on_c, 8, 40, 0
12, 45960, Note_on_c, 8, 42, 65
12, 46020, Note_on_c, 8, 40, 59
12, 46021, Note_on_c, 8, 42, 0
12, 46060, Note_on_c, 8, 40, 0
12, 46080, Note_on_c, 8, 33, 75
12, 46192, Note_on_c, 8, 33, 0
12, 46200, Note_on_c, 8, 37, 69
12, 46314, Note_on_c, 8, 37, 0
12, 46320, Note_on_c, 8, 40, 69
12, 46440, Note_on_c, 8, 42, 68
12, 46445, Note_on_c, 8, 40, 0
12, 46500, Note_on_c, 8, 40, 63
12, 46501, Note_on_c, 8, 42, 0
12, 46536, Note_on_c, 8, 40, 0
12, 46560, Note_on_c, 8, 28, 68
12, 46677, Note_on_c, 8, 28, 0
12, 46680, Note_on_c, 8, 32, 75
12, 46800, Note_on_c, 8, 32, 0
12, 46800, Note_on_c, 8, 35, 75
12, 46917, Note_on_c, 8, 35, 0
12, 46920, Note_on_c, 8, 37, 63
12, 46980, Note_on_c, 8, 35, 75
12, 46981, Note_on_c, 8, 37, 0
12, 47027, Note_on_c, 8, 35, 0
12, 47040, Note_on_c, 8, 28, 69
12, 47156, Note_on_c, 8, 28, 0
12, 47160, Note_on_c, 8, 32, 65
12, 47277, Note_on_c, 8, 32, 0
12, 47280, Note_on_c, 8, 35, 75
12, 47400, Note_on_c, 8, 35, 0
12, 47400, Note_on_c, 8, 37, 66
12, 47460, Note_on_c, 8, 28, 75
12, 47473, Note_on_c, 8, 37, 0
12, 47497, Note_on_c, 8, 28, 0
12, 47520, Note_on_c, 8, 35, 67
12, 47632, Note_on_c, 8, 35, 0
12, 47640, Note_on_c, 8, 32, 67
12, 47751, Note_on_c, 8, 32, 0
12, 47760, Note_on_c, 8, 30, 66
12, 47866, Note_on_c, 8, 30, 0
12, 47880, Note_on_c, 8, 32, 69
12, 47940, Note_on_c, 8, 32, 0
12, 47940, Note_on_c, 8, 30, 68
12, 47996, Note_on_c, 8, 30, 0
12, 48000, Note_on_c, 8, 36, 65
12, 48114, Note_on_c, 8, 36, 0
12, 48120, Note_on_c, 8, 43, 63
12, 48180, Note_on_c, 8, 36, 61
12, 48194, Note_on_c, 8, 43, 0
12, 48240, Note_on_c, 8, 36, 0
12, 48240, Note_on_c, 8, 35, 75
12, 48347, Note_on_c, 8, 35, 0
12, 48360, Note_on_c, 8, 42, 65
12, 48419, Note_on_c, 8, 42, 0
12, 48420, Note_on_c, 8, 35, 67
12, 48456, Note_on_c, 8, 35, 0
12, 48480, Note_on_c, 8, 28, 75
12, 48591, Note_on_c, 8, 28, 0
12, 48600, Note_on_c, 8, 32, 68
12, 48720, Note_on_c, 8, 35, 75
12, 48725, Note_on_c, 8, 32, 0
12, 48835, Note_on_c, 8, 35, 0
12, 48840, Note_on_c, 8, 37, 69
12, 48900, Note_on_c, 8, 37, 0
12, 48900, Note_on_c, 8, 35, 75
12, 48960, Note_on_c, 8, 35, 0
12, 48960, Note_on_c, 8, 28, 75
12, 49071, Note_on_c, 8, 28, 0
12, 49080, Note_on_c, 8, 32, 68
12, 49200, Note_on_c, 8, 35, 75
12, 49205, Note_on_c, 8, 32, 0
12, 49315, Note_on_c, 8, 35, 0
12, 49320, Note_on_c, 8, 37, 69
12, 49380, Note_on_c, 8, 37, 0
12, 49380, Note_on_c, 8, 33, 75
12, 49440, Note_on_c, 8, 33, 0
12, 49440, Note_on_c, 8, 35, 67
12, 49552, Note_on_c, 8, 35, 0
12, 49560, Note_on_c, 8, 32, 67
12, 49671, Note_on_c, 8, 32, 0
12, 49680, Note_on_c, 8, 30, 66
12, 49786, Note_on_c, 8, 30, 0
12, 49800, Note_on_c, 8, 32, 69
12, 49860, Note_on_c, 8, 32, 0
12, 49860, Note_on_c, 8, 30, 68
12, 49916, Note_on_c, 8, 30, 0
12, 49920, Note_on_c, 8, 36, 65
12, 50034, Note_on_c, 8, 36, 0
12, 50040, Note_on_c, 8, 43, 63
12, 50100, Note_on_c, 8, 36, 61
12, 50114, Note_on_c, 8, 43, 0
12, 50160, Note_on_c, 8, 36, 0
12, 50160, Note_on_c, 8, 35, 75
12, 50267, Note_on_c, 8, 35, 0
12, 50280, Note_on_c, 8, 42, 65
12, 50339, Note_on_c, 8, 42, 0
12, 50340, Note_on_c, 8, 35, 67
12, 50376, Note_on_c, 8, 35, 0
12, 50400, Note_on_c, 8, 28, 75
12, 50511, Note_on_c, 8, 28, 0
12, 50520, Note_on_c, 8, 32, 68
12, 50640, Note_on_c, 8, 35, 75
12, 50645, Note_on_c, 8, 32, 0
12, 50755, Note_on_c, 8, 35, 0
12, 50760, Note_on_c, 8, 37, 69
12, 50879, Note_on_c, 8, 37, 0
12, 50880, Note_on_c, 8, 40, 67
12, 51000, Note_on_c, 8, 40, 0
12, 51000, Note_on_c, 8, 38, 75
12, 51105, Note_on_c, 8, 38, 0
12, 51120, Note_on_c, 8, 37, 75
12, 51219, Note_on_c, 8, 37, 0
12, 51240, Note_on_c, 8, 35, 68
12, 51300, Note_on_c, 8, 37, 75
12, 51303, Note_on_c, 8, 35, 0
12, 51359, Note_on_c, 8, 37, 0
12, 51360, Note_on_c, 8, 35, 67
12, 51472, Note_on_c, 8, 35, 0
12, 51480, Note_on_c, 8, 32, 67
12, 51591, Note_on_c, 8, 32, 0
12, 51600, Note_on_c, 8, 30, 66
12, 51706, Note_on_c, 8, 30, 0
12, 51720, Note_on_c, 8, 32, 69
12, 51780, Note_on_c, 8, 30, 68
12, 51789, Note_on_c, 8, 32, 0
12, 51836, Note_on_c, 8, 30, 0
12, 51840, Note_on_c, 8, 36, 65
12, 51954, Note_on_c, 8, 36, 0
12, 51960, Note_on_c, 8, 43, 63
12, 52020, Note_on_c, 8, 36, 61
12, 52034, Note_on_c, 8, 43, 0
12, 52080, Note_on_c, 8, 36, 0
12, 52080, Note_on_c, 8, 35, 75
12, 52187, Note_on_c, 8, 35, 0
12, 52200, Note_on_c, 8, 42, 65
12, 52259, Note_on_c, 8, 42, 0
12, 52260, Note_on_c, 8, 35, 67
12, 52296, Note_on_c, 8, 35, 0
12, 52380, Note_on_c, 8, 28, 68
12, 52430, Note_on_c, 8, 28, 0
12, 52440, Note_on_c, 8, 28, 67
12, 52490, Note_on_c, 8, 28, 0
12, 52500, Note_on_c, 8, 28, 67
12, 52550, Note_on_c, 8, 28, 0
12, 52560, Note_on_c, 8, 28, 67
12, 52610, Note_on_c, 8, 28, 0
12, 52620, Note_on_c, 8, 28, 66
12, 52670, Note_on_c, 8, 28, 0
12, 52680, Note_on_c, 8, 28, 66
12, 52730, Note_on_c, 8, 28, 0
12, 52740, Note_on_c, 8, 28, 65
12, 52790, Note_on_c, 8, 28, 0
12, 52800, Note_on_c, 8, 28, 67
12, 52850, Note_on_c, 8, 28, 0
12, 52850, End_track
13, 0, Start_track
13, 0, MIDI_port, 0
13, 0, Program_c, 9, 0
13, 480, Note_on_c, 9, 42, 127
13, 595, Note_on_c, 9, 42, 0
13, 600, Note_on_c, 9, 42, 127
13, 715, Note_on_c, 9, 42, 0
13, 720, Note_on_c, 9, 42, 127
13, 840, Note_on_c, 9, 42, 0
13, 840, Note_on_c, 9, 42, 127
13, 960, Note_on_c, 9, 63, 127
13, 960, Note_on_c, 9, 38, 127
13, 1015, Note_on_c, 9, 38, 0
13, 1020, Note_on_c, 9, 63, 0
13, 1020, Note_on_c, 9, 38, 127
13, 1020, Note_on_c, 9, 63, 127
13, 1075, Note_on_c, 9, 38, 0
13, 1080, Note_on_c, 9, 63, 0
13, 1080, Note_on_c, 9, 38, 127
13, 1080, Note_on_c, 9, 63, 127
13, 1100, Note_on_c, 9, 42, 0
13, 1135, Note_on_c, 9, 63, 0
13, 1140, Note_on_c, 9, 38, 0
13, 1140, Note_on_c, 9, 38, 127
13, 1140, Note_on_c, 9, 63, 127
13, 1195, Note_on_c, 9, 63, 0
13, 1200, Note_on_c, 9, 38, 0
13, 1200, Note_on_c, 9, 63, 127
13, 1200, Note_on_c, 9, 38, 127
13, 1255, Note_on_c, 9, 38, 0
13, 1255, Note_on_c, 9, 63, 0
13, 1260, Note_on_c, 9, 63, 127
13, 1260, Note_on_c, 9, 38, 127
13, 1315, Note_on_c, 9, 38, 0
13, 1320, Note_on_c, 9, 63, 0
13, 1320, Note_on_c, 9, 38, 127
13, 1320, Note_on_c, 9, 63, 127
13, 1380, Note_on_c, 9, 63, 0
13, 1380, Note_on_c, 9, 38, 0
13, 1380, Note_on_c, 9, 38, 127
13, 1380, Note_on_c, 9, 63, 127
13, 1440, Note_on_c, 9, 63, 0
13, 1440, Note_on_c, 9, 38, 0
13, 1440, Note_on_c, 9, 38, 98
13, 1440, Note_on_c, 9, 38, 0
13, 1440, Note_on_c, 9, 63, 127
13, 1440, Note_on_c, 9, 38, 127
13, 1720, Note_on_c, 9, 38, 0
13, 1720, Note_on_c, 9, 63, 0
13, 1920, Note_on_c, 9, 36, 127
13, 1920, Note_on_c, 9, 42, 127
13, 1920, Note_on_c, 9, 49, 127
13, 1980, Note_on_c, 9, 42, 0
13, 1980, Note_on_c, 9, 42, 127
13, 2030, Note_on_c, 9, 42, 0
13, 2040, Note_on_c, 9, 38, 127
13, 2040, Note_on_c, 9, 42, 127
13, 2095, Note_on_c, 9, 38, 0
13, 2100, Note_on_c, 9, 38, 127
13, 2155, Note_on_c, 9, 36, 0
13, 2160, Note_on_c, 9, 42, 0
13, 2160, Note_on_c, 9, 36, 127
13, 2160, Note_on_c, 9, 42, 127
13, 2205, Note_on_c, 9, 49, 0
13, 2215, Note_on_c, 9, 42, 0
13, 2215, Note_on_c, 9, 36, 0
13, 2220, Note_on_c, 9, 36, 127
13, 2220, Note_on_c, 9, 42, 127
13, 2270, Note_on_c, 9, 38, 0
13, 2275, Note_on_c, 9, 42, 0
13, 2280, Note_on_c, 9, 38, 127
13, 2280, Note_on_c, 9, 42, 127
13, 2335, Note_on_c, 9, 42, 0
13, 2335, Note_on_c, 9, 36, 0
13, 2340, Note_on_c, 9, 36, 127
13, 2340, Note_on_c, 9, 42, 127
13, 2395, Note_on_c, 9, 42, 0
13, 2395, Note_on_c, 9, 36, 0
13, 2400, Note_on_c, 9, 36, 127
13, 2400, Note_on_c, 9, 42, 127
13, 2455, Note_on_c, 9, 42, 0
13, 2460, Note_on_c, 9, 42, 127
13, 2520, Note_on_c, 9, 42, 0
13, 2520, Note_on_c, 9, 38, 0
13, 2520, Note_on_c, 9, 38, 127
13, 2520, Note_on_c, 9, 42, 127
13, 2575, Note_on_c, 9, 42, 0
13, 2575, Note_on_c, 9, 38, 0
13, 2580, Note_on_c, 9, 38, 127
13, 2580, Note_on_c, 9, 42, 127
13, 2635, Note_on_c, 9, 36, 0
13, 2640, Note_on_c, 9, 42, 0
13, 2640, Note_on_c, 9, 36, 127
13, 2640, Note_on_c, 9, 42, 127
13, 2690, Note_on_c, 9, 36, 0
13, 2695, Note_on_c, 9, 42, 0
13, 2700, Note_on_c, 9, 36, 127
13, 2700, Note_on_c, 9, 42, 127
13, 2755, Note_on_c, 9, 42, 0
13, 2755, Note_on_c, 9, 38, 0
13, 2760, Note_on_c, 9, 38, 127
13, 2760, Note_on_c, 9, 42, 127
13, 2815, Note_on_c, 9, 42, 0
13, 2820, Note_on_c, 9, 36, 0
13, 2820, Note_on_c, 9, 36, 127
13, 2820, Note_on_c, 9, 42, 127
13, 2875, Note_on_c, 9, 42, 0
13, 2875, Note_on_c, 9, 36, 0
13, 2880, Note_on_c, 9, 36, 127
13, 2880, Note_on_c, 9, 42, 127
13, 2935, Note_on_c, 9, 42, 0
13, 2940, Note_on_c, 9, 42, 127
13, 3000, Note_on_c, 9, 42, 0
13, 3000, Note_on_c, 9, 38, 0
13, 3000, Note_on_c, 9, 38, 127
13, 3000, Note_on_c, 9, 42, 127
13, 3055, Note_on_c, 9, 42, 0
13, 3055, Note_on_c, 9, 38, 0
13, 3060, Note_on_c, 9, 38, 127
13, 3060, Note_on_c, 9, 42, 127
13, 3115, Note_on_c, 9, 36, 0
13, 3120, Note_on_c, 9, 42, 0
13, 3120, Note_on_c, 9, 36, 127
13, 3120, Note_on_c, 9, 42, 127
13, 3175, Note_on_c, 9, 42, 0
13, 3175, Note_on_c, 9, 36, 0
13, 3180, Note_on_c, 9, 36, 127
13, 3180, Note_on_c, 9, 42, 127
13, 3235, Note_on_c, 9, 38, 0
13, 3240, Note_on_c, 9, 42, 0
13, 3240, Note_on_c, 9, 38, 127
13, 3240, Note_on_c, 9, 42, 127
13, 3295, Note_on_c, 9, 42, 0
13, 3300, Note_on_c, 9, 36, 0
13, 3300, Note_on_c, 9, 36, 127
13, 3300, Note_on_c, 9, 42, 127
13, 3355, Note_on_c, 9, 42, 0
13, 3355, Note_on_c, 9, 36, 0
13, 3360, Note_on_c, 9, 36, 127
13, 3360, Note_on_c, 9, 42, 127
13, 3415, Note_on_c, 9, 42, 0
13, 3420, Note_on_c, 9, 42, 127
13, 3475, Note_on_c, 9, 38, 0
13, 3480, Note_on_c, 9, 42, 0
13, 3480, Note_on_c, 9, 38, 127
13, 3480, Note_on_c, 9, 42, 127
13, 3535, Note_on_c, 9, 42, 0
13, 3535, Note_on_c, 9, 38, 0
13, 3540, Note_on_c, 9, 38, 127
13, 3540, Note_on_c, 9, 42, 127
13, 3600, Note_on_c, 9, 42, 0
13, 3600, Note_on_c, 9, 36, 0
13, 3600, Note_on_c, 9, 36, 127
13, 3600, Note_on_c, 9, 42, 127
13, 3655, Note_on_c, 9, 42, 0
13, 3655, Note_on_c, 9, 36, 0
13, 3660, Note_on_c, 9, 36, 127
13, 3660, Note_on_c, 9, 42, 127
13, 3715, Note_on_c, 9, 42, 0
13, 3715, Note_on_c, 9, 38, 0
13, 3720, Note_on_c, 9, 38, 127
13, 3720, Note_on_c, 9, 42, 127
13, 3775, Note_on_c, 9, 42, 0
13, 3780, Note_on_c, 9, 36, 0
13, 3780, Note_on_c, 9, 36, 127
13, 3780, Note_on_c, 9, 42, 127
13, 3835, Note_on_c, 9, 42, 0
13, 3835, Note_on_c, 9, 36, 0
13, 3840, Note_on_c, 9, 36, 127
13, 3840, Note_on_c, 9, 42, 127
13, 3895, Note_on_c, 9, 42, 0
13, 3900, Note_on_c, 9, 42, 127
13, 3955, Note_on_c, 9, 42, 0
13, 3955, Note_on_c, 9, 38, 0
13, 3960, Note_on_c, 9, 38, 127
13, 3960, Note_on_c, 9, 42, 127
13, 4015, Note_on_c, 9, 42, 0
13, 4015, Note_on_c, 9, 38, 0
13, 4020, Note_on_c, 9, 38, 127
13, 4020, Note_on_c, 9, 42, 127
13, 4080, Note_on_c, 9, 42, 0
13, 4080, Note_on_c, 9, 36, 0
13, 4080, Note_on_c, 9, 36, 127
13, 4080, Note_on_c, 9, 42, 127
13, 4130, Note_on_c, 9, 36, 0
13, 4135, Note_on_c, 9, 42, 0
13, 4140, Note_on_c, 9, 36, 127
13, 4140, Note_on_c, 9, 42, 127
13, 4195, Note_on_c, 9, 38, 0
13, 4200, Note_on_c, 9, 42, 0
13, 4200, Note_on_c, 9, 38, 127
13, 4200, Note_on_c, 9, 42, 127
13, 4255, Note_on_c, 9, 42, 0
13, 4260, Note_on_c, 9, 36, 0
13, 4260, Note_on_c, 9, 36, 127
13, 4260, Note_on_c, 9, 42, 127
13, 4315, Note_on_c, 9, 42, 0
13, 4315, Note_on_c, 9, 36, 0
13, 4320, Note_on_c, 9, 36, 127
13, 4320, Note_on_c, 9, 42, 127
13, 4375, Note_on_c, 9, 42, 0
13, 4380, Note_on_c, 9, 42, 127
13, 4435, Note_on_c, 9, 42, 0
13, 4440, Note_on_c, 9, 38, 0
13, 4440, Note_on_c, 9, 42, 127
13, 4440, Note_on_c, 9, 38, 127
13, 4495, Note_on_c, 9, 38, 0
13, 4495, Note_on_c, 9, 42, 0
13, 4500, Note_on_c, 9, 38, 127
13, 4500, Note_on_c, 9, 42, 127
13, 4560, Note_on_c, 9, 42, 0
13, 4560, Note_on_c, 9, 36, 0
13, 4560, Note_on_c, 9, 36, 127
13, 4560, Note_on_c, 9, 42, 127
13, 4610, Note_on_c, 9, 36, 0
13, 4615, Note_on_c, 9, 42, 0
13, 4620, Note_on_c, 9, 36, 127
13, 4620, Note_on_c, 9, 42, 127
13, 4675, Note_on_c, 9, 42, 0
13, 4675, Note_on_c, 9, 38, 0
13, 4680, Note_on_c, 9, 38, 127
13, 4680, Note_on_c, 9, 42, 127
13, 4735, Note_on_c, 9, 42, 0
13, 4740, Note_on_c, 9, 36, 0
13, 4740, Note_on_c, 9, 36, 127
13, 4740, Note_on_c, 9, 42, 127
13, 4795, Note_on_c, 9, 42, 0
13, 4795, Note_on_c, 9, 36, 0
13, 4800, Note_on_c, 9, 36, 127
13, 4800, Note_on_c, 9, 42, 127
13, 4850, Note_on_c, 9, 42, 0
13, 4860, Note_on_c, 9, 42, 127
13, 4910, Note_on_c, 9, 38, 0
13, 4915, Note_on_c, 9, 42, 0
13, 4920, Note_on_c, 9, 38, 127
13, 4920, Note_on_c, 9, 42, 127
13, 4975, Note_on_c, 9, 42, 0
13, 4975, Note_on_c, 9, 38, 0
13, 4980, Note_on_c, 9, 38, 127
13, 4980, Note_on_c, 9, 42, 127
13, 5035, Note_on_c, 9, 42, 0
13, 5035, Note_on_c, 9, 36, 0
13, 5040, Note_on_c, 9, 36, 127
13, 5040, Note_on_c, 9, 42, 127
13, 5095, Note_on_c, 9, 42, 0
13, 5095, Note_on_c, 9, 36, 0
13, 5100, Note_on_c, 9, 36, 127
13, 5100, Note_on_c, 9, 42, 127
13, 5155, Note_on_c, 9, 38, 0
13, 5160, Note_on_c, 9, 42, 0
13, 5160, Note_on_c, 9, 38, 127
13, 5160, Note_on_c, 9, 42, 127
13, 5215, Note_on_c, 9, 42, 0
13, 5220, Note_on_c, 9, 36, 0
13, 5220, Note_on_c, 9, 42, 127
13, 5220, Note_on_c, 9, 36, 127
13, 5270, Note_on_c, 9, 36, 0
13, 5275, Note_on_c, 9, 42, 0
13, 5280, Note_on_c, 9, 36, 127
13, 5280, Note_on_c, 9, 42, 127
13, 5335, Note_on_c, 9, 42, 0
13, 5340, Note_on_c, 9, 42, 127
13, 5395, Note_on_c, 9, 42, 0
13, 5395, Note_on_c, 9, 38, 0
13, 5400, Note_on_c, 9, 38, 127
13, 5400, Note_on_c, 9, 42, 127
13, 5455, Note_on_c, 9, 42, 0
13, 5455, Note_on_c, 9, 38, 0
13, 5460, Note_on_c, 9, 38, 127
13, 5460, Note_on_c, 9, 42, 127
13, 5520, Note_on_c, 9, 42, 0
13, 5520, Note_on_c, 9, 36, 0
13, 5520, Note_on_c, 9, 36, 127
13, 5520, Note_on_c, 9, 42, 127
13, 5575, Note_on_c, 9, 42, 0
13, 5575, Note_on_c, 9, 36, 0
13, 5580, Note_on_c, 9, 36, 127
13, 5580, Note_on_c, 9, 42, 127
13, 5635, Note_on_c, 9, 38, 0
13, 5640, Note_on_c, 9, 42, 0
13, 5640, Note_on_c, 9, 38, 127
13, 5640, Note_on_c, 9, 42, 127
13, 5695, Note_on_c, 9, 42, 0
13, 5700, Note_on_c, 9, 36, 0
13, 5700, Note_on_c, 9, 36, 127
13, 5700, Note_on_c, 9, 42, 127
13, 5755, Note_on_c, 9, 36, 0
13, 5760, Note_on_c, 9, 42, 0
13, 5760, Note_on_c, 9, 36, 127
13, 5760, Note_on_c, 9, 42, 127
13, 5815, Note_on_c, 9, 42, 0
13, 5820, Note_on_c, 9, 42, 127
13, 5875, Note_on_c, 9, 38, 0
13, 5880, Note_on_c, 9, 42, 0
13, 5880, Note_on_c, 9, 38, 127
13, 5880, Note_on_c, 9, 42, 127
13, 5935, Note_on_c, 9, 42, 0
13, 5940, Note_on_c, 9, 42, 127
13, 5995, Note_on_c, 9, 36, 0
13, 6000, Note_on_c, 9, 42, 0
13, 6000, Note_on_c, 9, 36, 127
13, 6000, Note_on_c, 9, 42, 127
13, 6055, Note_on_c, 9, 36, 0
13, 6060, Note_on_c, 9, 42, 0
13, 6060, Note_on_c, 9, 36, 127
13, 6060, Note_on_c, 9, 42, 127
13, 6120, Note_on_c, 9, 42, 0
13, 6120, Note_on_c, 9, 38, 0
13, 6120, Note_on_c, 9, 38, 127
13, 6120, Note_on_c, 9, 42, 127
13, 6170, Note_on_c, 9, 42, 0
13, 6180, Note_on_c, 9, 42, 127
13, 6240, Note_on_c, 9, 42, 0
13, 6240, Note_on_c, 9, 36, 0
13, 6240, Note_on_c, 9, 36, 127
13, 6240, Note_on_c, 9, 42, 127
13, 6295, Note_on_c, 9, 42, 0
13, 6300, Note_on_c, 9, 42, 127
13, 6360, Note_on_c, 9, 42, 0
13, 6360, Note_on_c, 9, 38, 0
13, 6360, Note_on_c, 9, 38, 127
13, 6360, Note_on_c, 9, 42, 127
13, 6415, Note_on_c, 9, 42, 0
13, 6420, Note_on_c, 9, 42, 127
13, 6475, Note_on_c, 9, 36, 0
13, 6480, Note_on_c, 9, 42, 0
13, 6480, Note_on_c, 9, 36, 127
13, 6480, Note_on_c, 9, 42, 127
13, 6535, Note_on_c, 9, 42, 0
13, 6535, Note_on_c, 9, 36, 0
13, 6540, Note_on_c, 9, 42, 127
13, 6540, Note_on_c, 9, 36, 127
13, 6595, Note_on_c, 9, 38, 0
13, 6600, Note_on_c, 9, 42, 0
13, 6600, Note_on_c, 9, 38, 127
13, 6600, Note_on_c, 9, 42, 127
13, 6650, Note_on_c, 9, 36, 0
13, 6655, Note_on_c, 9, 42, 0
13, 6660, Note_on_c, 9, 36, 127
13, 6660, Note_on_c, 9, 42, 127
13, 6715, Note_on_c, 9, 42, 0
13, 6715, Note_on_c, 9, 36, 0
13, 6720, Note_on_c, 9, 36, 127
13, 6720, Note_on_c, 9, 42, 127
13, 6775, Note_on_c, 9, 42, 0
13, 6780, Note_on_c, 9, 42, 127
13, 6835, Note_on_c, 9, 42, 0
13, 6835, Note_on_c, 9, 38, 0
13, 6840, Note_on_c, 9, 38, 127
13, 6840, Note_on_c, 9, 42, 127
13, 6895, Note_on_c, 9, 42, 0
13, 6900, Note_on_c, 9, 42, 127
13, 6955, Note_on_c, 9, 36, 0
13, 6960, Note_on_c, 9, 42, 0
13, 6960, Note_on_c, 9, 36, 127
13, 6960, Note_on_c, 9, 42, 127
13, 7015, Note_on_c, 9, 42, 0
13, 7015, Note_on_c, 9, 36, 0
13, 7020, Note_on_c, 9, 36, 127
13, 7020, Note_on_c, 9, 42, 127
13, 7075, Note_on_c, 9, 42, 0
13, 7075, Note_on_c, 9, 38, 0
13, 7080, Note_on_c, 9, 38, 127
13, 7080, Note_on_c, 9, 42, 127
13, 7135, Note_on_c, 9, 42, 0
13, 7140, Note_on_c, 9, 42, 127
13, 7200, Note_on_c, 9, 42, 0
13, 7200, Note_on_c, 9, 36, 0
13, 7200, Note_on_c, 9, 36, 127
13, 7260, Note_on_c, 9, 38, 0
13, 7260, Note_on_c, 9, 63, 127
13, 7260, Note_on_c, 9, 38, 127
13, 7315, Note_on_c, 9, 38, 0
13, 7320, Note_on_c, 9, 63, 0
13, 7320, Note_on_c, 9, 38, 127
13, 7320, Note_on_c, 9, 63, 127
13, 7375, Note_on_c, 9, 63, 0
13, 7375, Note_on_c, 9, 38, 0
13, 7380, Note_on_c, 9, 38, 127
13, 7380, Note_on_c, 9, 63, 127
13, 7435, Note_on_c, 9, 63, 0
13, 7440, Note_on_c, 9, 38, 0
13, 7440, Note_on_c, 9, 38, 127
13, 7440, Note_on_c, 9, 63, 127
13, 7460, Note_on_c, 9, 36, 0
13, 7495, Note_on_c, 9, 63, 0
13, 7495, Note_on_c, 9, 38, 0
13, 7500, Note_on_c, 9, 38, 127
13, 7500, Note_on_c, 9, 63, 127
13, 7555, Note_on_c, 9, 63, 0
13, 7560, Note_on_c, 9, 38, 0
13, 7560, Note_on_c, 9, 38, 127
13, 7560, Note_on_c, 9, 63, 127
13, 7615, Note_on_c, 9, 63, 0
13, 7615, Note_on_c, 9, 38, 0
13, 7620, Note_on_c, 9, 38, 127
13, 7620, Note_on_c, 9, 63, 127
13, 7675, Note_on_c, 9, 49, 127
13, 7680, Note_on_c, 9, 36, 127
13, 7680, Note_on_c, 9, 42, 127
13, 7730, Note_on_c, 9, 42, 0
13, 7740, Note_on_c, 9, 42, 127
13, 7790, Note_on_c, 9, 38, 0
13, 7800, Note_on_c, 9, 42, 0
13, 7800, Note_on_c, 9, 38, 127
13, 7800, Note_on_c, 9, 42, 127
13, 7855, Note_on_c, 9, 42, 0
13, 7860, Note_on_c, 9, 42, 127
13, 7900, Note_on_c, 9, 63, 0
13, 7920, Note_on_c, 9, 36, 0
13, 7920, Note_on_c, 9, 42, 0
13, 7920, Note_on_c, 9, 36, 127
13, 7920, Note_on_c, 9, 42, 127
13, 7920, Note_on_c, 9, 42, 127
13, 7965, Note_on_c, 9, 49, 0
13, 7975, Note_on_c, 9, 42, 0
13, 7975, Note_on_c, 9, 36, 0
13, 7980, Note_on_c, 9, 36, 127
13, 7980, Note_on_c, 9, 42, 127
13, 8035, Note_on_c, 9, 42, 0
13, 8040, Note_on_c, 9, 38, 0
13, 8040, Note_on_c, 9, 38, 127
13, 8040, Note_on_c, 9, 42, 127
13, 8095, Note_on_c, 9, 42, 0
13, 8100, Note_on_c, 9, 42, 127
13, 8160, Note_on_c, 9, 42, 0
13, 8160, Note_on_c, 9, 36, 0
13, 8160, Note_on_c, 9, 36, 127
13, 8160, Note_on_c, 9, 42, 127
13, 8215, Note_on_c, 9, 42, 0
13, 8220, Note_on_c, 9, 42, 127
13, 8275, Note_on_c, 9, 38, 0
13, 8280, Note_on_c, 9, 42, 0
13, 8280, Note_on_c, 9, 38, 127
13, 8280, Note_on_c, 9, 42, 127
13, 8335, Note_on_c, 9, 42, 0
13, 8340, Note_on_c, 9, 42, 127
13, 8395, Note_on_c, 9, 36, 0
13, 8400, Note_on_c, 9, 42, 0
13, 8400, Note_on_c, 9, 36, 127
13, 8400, Note_on_c, 9, 42, 127
13, 8455, Note_on_c, 9, 42, 0
13, 8455, Note_on_c, 9, 36, 0
13, 8460, Note_on_c, 9, 36, 127
13, 8460, Note_on_c, 9, 42, 127
13, 8515, Note_on_c, 9, 42, 0
13, 8515, Note_on_c, 9, 38, 0
13, 8520, Note_on_c, 9, 38, 127
13, 8520, Note_on_c, 9, 42, 127
13, 8575, Note_on_c, 9, 42, 0
13, 8575, Note_on_c, 9, 36, 0
13, 8580, Note_on_c, 9, 36, 127
13, 8580, Note_on_c, 9, 42, 127
13, 8635, Note_on_c, 9, 42, 0
13, 8635, Note_on_c, 9, 36, 0
13, 8640, Note_on_c, 9, 36, 127
13, 8640, Note_on_c, 9, 42, 127
13, 8695, Note_on_c, 9, 42, 0
13, 8700, Note_on_c, 9, 42, 127
13, 8755, Note_on_c, 9, 38, 0
13, 8760, Note_on_c, 9, 42, 0
13, 8760, Note_on_c, 9, 38, 127
13, 8760, Note_on_c, 9, 42, 127
13, 8815, Note_on_c, 9, 42, 0
13, 8820, Note_on_c, 9, 42, 127
13, 8875, Note_on_c, 9, 36, 0
13, 8880, Note_on_c, 9, 42, 0
13, 8880, Note_on_c, 9, 36, 127
13, 8880, Note_on_c, 9, 42, 127
13, 8935, Note_on_c, 9, 42, 0
13, 8940, Note_on_c, 9, 36, 0
13, 8940, Note_on_c, 9, 42, 127
13, 8940, Note_on_c, 9, 36, 127
13, 8995, Note_on_c, 9, 38, 0
13, 9000, Note_on_c, 9, 38, 127
13, 9055, Note_on_c, 9, 42, 0
13, 9060, Note_on_c, 9, 42, 127
13, 9120, Note_on_c, 9, 42, 0
13, 9120, Note_on_c, 9, 36, 0
13, 9120, Note_on_c, 9, 36, 127
13, 9120, Note_on_c, 9, 42, 127
13, 9175, Note_on_c, 9, 42, 0
13, 9180, Note_on_c, 9, 42, 127
13, 9240, Note_on_c, 9, 42, 0
13, 9240, Note_on_c, 9, 38, 0
13, 9240, Note_on_c, 9, 38, 127
13, 9240, Note_on_c, 9, 42, 127
13, 9295, Note_on_c, 9, 42, 0
13, 9300, Note_on_c, 9, 42, 127
13, 9355, Note_on_c, 9, 36, 0
13, 9360, Note_on_c, 9, 42, 0
13, 9360, Note_on_c, 9, 36, 65
13, 9360, Note_on_c, 9, 36, 127
13, 9360, Note_on_c, 9, 42, 127
13, 9415, Note_on_c, 9, 42, 0
13, 9415, Note_on_c, 9, 36, 0
13, 9420, Note_on_c, 9, 36, 127
13, 9420, Note_on_c, 9, 42, 127
13, 9475, Note_on_c, 9, 42, 0
13, 9475, Note_on_c, 9, 38, 0
13, 9480, Note_on_c, 9, 38, 127
13, 9480, Note_on_c, 9, 42, 127
13, 9535, Note_on_c, 9, 42, 0
13, 9535, Note_on_c, 9, 36, 0
13, 9540, Note_on_c, 9, 36, 127
13, 9540, Note_on_c, 9, 42, 127
13, 9595, Note_on_c, 9, 42, 0
13, 9595, Note_on_c, 9, 36, 0
13, 9600, Note_on_c, 9, 36, 127
13, 9600, Note_on_c, 9, 42, 127
13, 9655, Note_on_c, 9, 42, 0
13, 9660, Note_on_c, 9, 42, 127
13, 9715, Note_on_c, 9, 42, 0
13, 9715, Note_on_c, 9, 38, 0
13, 9720, Note_on_c, 9, 38, 127
13, 9720, Note_on_c, 9, 42, 127
13, 9775, Note_on_c, 9, 42, 0
13, 9780, Note_on_c, 9, 42, 127
13, 9835, Note_on_c, 9, 36, 0
13, 9840, Note_on_c, 9, 42, 0
13, 9840, Note_on_c, 9, 36, 127
13, 9840, Note_on_c, 9, 42, 127
13, 9895, Note_on_c, 9, 42, 0
13, 9900, Note_on_c, 9, 36, 0
13, 9900, Note_on_c, 9, 42, 127
13, 9900, Note_on_c, 9, 36, 127
13, 9955, Note_on_c, 9, 38, 0
13, 9960, Note_on_c, 9, 42, 0
13, 9960, Note_on_c, 9, 38, 127
13, 9960, Note_on_c, 9, 42, 127
13, 10015, Note_on_c, 9, 42, 0
13, 10020, Note_on_c, 9, 42, 127
13, 10075, Note_on_c, 9, 42, 0
13, 10080, Note_on_c, 9, 36, 0
13, 10080, Note_on_c, 9, 36, 0
13, 10080, Note_on_c, 9, 36, 101
13, 10080, Note_on_c, 9, 36, 127
13, 10080, Note_on_c, 9, 42, 127
13, 10135, Note_on_c, 9, 42, 0
13, 10140, Note_on_c, 9, 42, 127
13, 10190, Note_on_c, 9, 38, 0
13, 10200, Note_on_c, 9, 42, 0
13, 10200, Note_on_c, 9, 38, 127
13, 10200, Note_on_c, 9, 42, 127
13, 10250, Note_on_c, 9, 42, 0
13, 10260, Note_on_c, 9, 42, 127
13, 10320, Note_on_c, 9, 42, 0
13, 10320, Note_on_c, 9, 36, 0
13, 10320, Note_on_c, 9, 36, 127
13, 10320, Note_on_c, 9, 42, 127
13, 10375, Note_on_c, 9, 42, 0
13, 10375, Note_on_c, 9, 36, 0
13, 10380, Note_on_c, 9, 42, 0
13, 10380, Note_on_c, 9, 36, 127
13, 10380, Note_on_c, 9, 42, 127
13, 10435, Note_on_c, 9, 38, 0
13, 10440, Note_on_c, 9, 38, 127
13, 10440, Note_on_c, 9, 38, 127
13, 10495, Note_on_c, 9, 38, 0
13, 10500, Note_on_c, 9, 38, 127
13, 10525, Note_on_c, 9, 38, 0
13, 10530, Note_on_c, 9, 38, 127
13, 10555, Note_on_c, 9, 38, 0
13, 10560, Note_on_c, 9, 36, 0
13, 10560, Note_on_c, 9, 38, 0
13, 10560, Note_on_c, 9, 36, 0
13, 10560, Note_on_c, 9, 38, 127
13, 10560, Note_on_c, 9, 36, 127
13, 10635, Note_on_c, 9, 42, 0
13, 10840, Note_on_c, 9, 36, 0
13, 10845, Note_on_c, 9, 38, 0
13, 11040, Note_on_c, 9, 42, 127
13, 11100, Note_on_c, 9, 63, 127
13, 11100, Note_on_c, 9, 38, 127
13, 11155, Note_on_c, 9, 38, 0
13, 11160, Note_on_c, 9, 63, 0
13, 11160, Note_on_c, 9, 38, 127
13, 11160, Note_on_c, 9, 63, 127
13, 11215, Note_on_c, 9, 63, 0
13, 11215, Note_on_c, 9, 38, 0
13, 11220, Note_on_c, 9, 38, 127
13, 11220, Note_on_c, 9, 63, 127
13, 11275, Note_on_c, 9, 63, 0
13, 11275, Note_on_c, 9, 38, 0
13, 11280, Note_on_c, 9, 38, 127
13, 11280, Note_on_c, 9, 63, 127
13, 11285, Note_on_c, 9, 42, 0
13, 11335, Note_on_c, 9, 63, 0
13, 11335, Note_on_c, 9, 38, 0
13, 11340, Note_on_c, 9, 38, 127
13, 11340, Note_on_c, 9, 63, 127
13, 11395, Note_on_c, 9, 63, 0
13, 11395, Note_on_c, 9, 38, 0
13, 11400, Note_on_c, 9, 38, 127
13, 11400, Note_on_c, 9, 63, 127
13, 11455, Note_on_c, 9, 63, 0
13, 11455, Note_on_c, 9, 38, 0
13, 11460, Note_on_c, 9, 38, 127
13, 11460, Note_on_c, 9, 63, 127
13, 11515, Note_on_c, 9, 63, 0
13, 11515, Note_on_c, 9, 38, 0
13, 11520, Note_on_c, 9, 38, 127
13, 11520, Note_on_c, 9, 63, 127
13, 11795, Note_on_c, 9, 38, 0
13, 11805, Note_on_c, 9, 63, 0
13, 11820, Note_on_c, 9, 45, 127
13, 11880, Note_on_c, 9, 41, 127
13, 11940, Note_on_c, 9, 63, 127
13, 11990, Note_on_c, 9, 49, 127
13, 12000, Note_on_c, 9, 36, 127
13, 12000, Note_on_c, 9, 42, 127
13, 12060, Note_on_c, 9, 42, 0
13, 12060, Note_on_c, 9, 42, 127
13, 12105, Note_on_c, 9, 45, 0
13, 12110, Note_on_c, 9, 42, 0
13, 12120, Note_on_c, 9, 38, 127
13, 12120, Note_on_c, 9, 42, 127
13, 12160, Note_on_c, 9, 41, 0
13, 12175, Note_on_c, 9, 38, 0
13, 12180, Note_on_c, 9, 38, 127
13, 12220, Note_on_c, 9, 63, 0
13, 12235, Note_on_c, 9, 36, 0
13, 12240, Note_on_c, 9, 42, 0
13, 12240, Note_on_c, 9, 36, 127
13, 12240, Note_on_c, 9, 42, 127
13, 12280, Note_on_c, 9, 49, 0
13, 12295, Note_on_c, 9, 42, 0
13, 12295, Note_on_c, 9, 36, 0
13, 12300, Note_on_c, 9, 36, 127
13, 12300, Note_on_c, 9, 42, 127
13, 12350, Note_on_c, 9, 38, 0
13, 12355, Note_on_c, 9, 42, 0
13, 12360, Note_on_c, 9, 38, 127
13, 12360, Note_on_c, 9, 42, 127
13, 12415, Note_on_c, 9, 42, 0
13, 12415, Note_on_c, 9, 36, 0
13, 12420, Note_on_c, 9, 36, 127
13, 12420, Note_on_c, 9, 42, 127
13, 12475, Note_on_c, 9, 42, 0
13, 12475, Note_on_c, 9, 36, 0
13, 12480, Note_on_c, 9, 36, 127
13, 12480, Note_on_c, 9, 42, 127
13, 12535, Note_on_c, 9, 42, 0
13, 12540, Note_on_c, 9, 42, 127
13, 12600, Note_on_c, 9, 42, 0
13, 12600, Note_on_c, 9, 38, 0
13, 12600, Note_on_c, 9, 38, 127
13, 12600, Note_on_c, 9, 42, 127
13, 12655, Note_on_c, 9, 42, 0
13, 12655, Note_on_c, 9, 38, 0
13, 12660, Note_on_c, 9, 38, 127
13, 12660, Note_on_c, 9, 42, 127
13, 12715, Note_on_c, 9, 36, 0
13, 12720, Note_on_c, 9, 42, 0
13, 12720, Note_on_c, 9, 36, 127
13, 12720, Note_on_c, 9, 42, 127
13, 12770, Note_on_c, 9, 36, 0
13, 12775, Note_on_c, 9, 42, 0
13, 12780, Note_on_c, 9, 36, 127
13, 12780, Note_on_c, 9, 42, 127
13, 12835, Note_on_c, 9, 42, 0
13, 12835, Note_on_c, 9, 38, 0
13, 12840, Note_on_c, 9, 38, 127
13, 12840, Note_on_c, 9, 42, 127
13, 12895, Note_on_c, 9, 42, 0
13, 12900, Note_on_c, 9, 36, 0
13, 12900, Note_on_c, 9, 36, 127
13, 12900, Note_on_c, 9, 42, 127
13, 12955, Note_on_c, 9, 42, 0
13, 12955, Note_on_c, 9, 36, 0
13, 12960, Note_on_c, 9, 36, 127
13, 12960, Note_on_c, 9, 42, 127
13, 13015, Note_on_c, 9, 42, 0
13, 13020, Note_on_c, 9, 42, 127
13, 13080, Note_on_c, 9, 42, 0
13, 13080, Note_on_c, 9, 38, 0
13, 13080, Note_on_c, 9, 38, 127
13, 13080, Note_on_c, 9, 42, 127
13, 13135, Note_on_c, 9, 42, 0
13, 13135, Note_on_c, 9, 38, 0
13, 13140, Note_on_c, 9, 38, 127
13, 13140, Note_on_c, 9, 42, 127
13, 13195, Note_on_c, 9, 36, 0
13, 13200, Note_on_c, 9, 42, 0
13, 13200, Note_on_c, 9, 36, 127
13, 13200, Note_on_c, 9, 42, 127
13, 13255, Note_on_c, 9, 42, 0
13, 13255, Note_on_c, 9, 36, 0
13, 13260, Note_on_c, 9, 36, 127
13, 13260, Note_on_c, 9, 42, 127
13, 13315, Note_on_c, 9, 38, 0
13, 13320, Note_on_c, 9, 42, 0
13, 13320, Note_on_c, 9, 38, 127
13, 13320, Note_on_c, 9, 42, 127
13, 13375, Note_on_c, 9, 42, 0
13, 13380, Note_on_c, 9, 36, 0
13, 13380, Note_on_c, 9, 36, 127
13, 13380, Note_on_c, 9, 42, 127
13, 13435, Note_on_c, 9, 42, 0
13, 13435, Note_on_c, 9, 36, 0
13, 13440, Note_on_c, 9, 36, 127
13, 13440, Note_on_c, 9, 42, 127
13, 13495, Note_on_c, 9, 42, 0
13, 13500, Note_on_c, 9, 42, 127
13, 13555, Note_on_c, 9, 38, 0
13, 13560, Note_on_c, 9, 42, 0
13, 13560, Note_on_c, 9, 38, 127
13, 13560, Note_on_c, 9, 42, 127
13, 13615, Note_on_c, 9, 42, 0
13, 13615, Note_on_c, 9, 38, 0
13, 13620, Note_on_c, 9, 38, 127
13, 13620, Note_on_c, 9, 42, 127
13, 13680, Note_on_c, 9, 42, 0
13, 13680, Note_on_c, 9, 36, 0
13, 13680, Note_on_c, 9, 36, 127
13, 13680, Note_on_c, 9, 42, 127
13, 13735, Note_on_c, 9, 42, 0
13, 13735, Note_on_c, 9, 36, 0
13, 13740, Note_on_c, 9, 36, 127
13, 13740, Note_on_c, 9, 42, 127
13, 13795, Note_on_c, 9, 42, 0
13, 13795, Note_on_c, 9, 38, 0
13, 13800, Note_on_c, 9, 38, 127
13, 13800, Note_on_c, 9, 42, 127
13, 13855, Note_on_c, 9, 42, 0
13, 13860, Note_on_c, 9, 36, 0
13, 13860, Note_on_c, 9, 36, 127
13, 13860, Note_on_c, 9, 42, 127
13, 13915, Note_on_c, 9, 42, 0
13, 13915, Note_on_c, 9, 36, 0
13, 13920, Note_on_c, 9, 36, 127
13, 13920, Note_on_c, 9, 42, 127
13, 13975, Note_on_c, 9, 42, 0
13, 13980, Note_on_c, 9, 42, 127
13, 14035, Note_on_c, 9, 42, 0
13, 14035, Note_on_c, 9, 38, 0
13, 14040, Note_on_c, 9, 38, 127
13, 14040, Note_on_c, 9, 42, 127
13, 14095, Note_on_c, 9, 42, 0
13, 14095, Note_on_c, 9, 38, 0
13, 14100, Note_on_c, 9, 38, 127
13, 14100, Note_on_c, 9, 42, 127
13, 14160, Note_on_c, 9, 42, 0
13, 14160, Note_on_c, 9, 36, 0
13, 14160, Note_on_c, 9, 36, 127
13, 14160, Note_on_c, 9, 42, 127
13, 14210, Note_on_c, 9, 36, 0
13, 14215, Note_on_c, 9, 42, 0
13, 14220, Note_on_c, 9, 36, 127
13, 14220, Note_on_c, 9, 42, 127
13, 14275, Note_on_c, 9, 38, 0
13, 14280, Note_on_c, 9, 42, 0
13, 14280, Note_on_c, 9, 38, 127
13, 14280, Note_on_c, 9, 42, 127
13, 14335, Note_on_c, 9, 42, 0
13, 14340, Note_on_c, 9, 36, 0
13, 14340, Note_on_c, 9, 36, 127
13, 14340, Note_on_c, 9, 42, 127
13, 14395, Note_on_c, 9, 42, 0
13, 14395, Note_on_c, 9, 36, 0
13, 14400, Note_on_c, 9, 36, 127
13, 14400, Note_on_c, 9, 42, 127
13, 14455, Note_on_c, 9, 42, 0
13, 14460, Note_on_c, 9, 42, 127
13, 14515, Note_on_c, 9, 42, 0
13, 14520, Note_on_c, 9, 38, 0
13, 14520, Note_on_c, 9, 42, 127
13, 14520, Note_on_c, 9, 38, 127
13, 14575, Note_on_c, 9, 38, 0
13, 14575, Note_on_c, 9, 42, 0
13, 14580, Note_on_c, 9, 38, 127
13, 14580, Note_on_c, 9, 42, 127
13, 14640, Note_on_c, 9, 42, 0
13, 14640, Note_on_c, 9, 36, 0
13, 14640, Note_on_c, 9, 36, 127
13, 14640, Note_on_c, 9, 42, 127
13, 14690, Note_on_c, 9, 36, 0
13, 14695, Note_on_c, 9, 42, 0
13, 14700, Note_on_c, 9, 36, 127
13, 14700, Note_on_c, 9, 42, 127
13, 14755, Note_on_c, 9, 42, 0
13, 14755, Note_on_c, 9, 38, 0
13, 14760, Note_on_c, 9, 38, 127
13, 14760, Note_on_c, 9, 42, 127
13, 14815, Note_on_c, 9, 42, 0
13, 14820, Note_on_c, 9, 36, 0
13, 14820, Note_on_c, 9, 36, 127
13, 14820, Note_on_c, 9, 42, 127
13, 14875, Note_on_c, 9, 42, 0
13, 14875, Note_on_c, 9, 36, 0
13, 14880, Note_on_c, 9, 36, 127
13, 14880, Note_on_c, 9, 42, 127
13, 14930, Note_on_c, 9, 42, 0
13, 14940, Note_on_c, 9, 42, 127
13, 14990, Note_on_c, 9, 38, 0
13, 14995, Note_on_c, 9, 42, 0
13, 15000, Note_on_c, 9, 38, 127
13, 15000, Note_on_c, 9, 42, 127
13, 15055, Note_on_c, 9, 42, 0
13, 15055, Note_on_c, 9, 38, 0
13, 15060, Note_on_c, 9, 38, 127
13, 15060, Note_on_c, 9, 42, 127
13, 15115, Note_on_c, 9, 42, 0
13, 15115, Note_on_c, 9, 36, 0
13, 15120, Note_on_c, 9, 36, 127
13, 15120, Note_on_c, 9, 42, 127
13, 15175, Note_on_c, 9, 42, 0
13, 15175, Note_on_c, 9, 36, 0
13, 15180, Note_on_c, 9, 36, 127
13, 15180, Note_on_c, 9, 42, 127
13, 15235, Note_on_c, 9, 38, 0
13, 15240, Note_on_c, 9, 42, 0
13, 15240, Note_on_c, 9, 38, 127
13, 15240, Note_on_c, 9, 42, 127
13, 15295, Note_on_c, 9, 42, 0
13, 15300, Note_on_c, 9, 36, 0
13, 15300, Note_on_c, 9, 42, 127
13, 15300, Note_on_c, 9, 36, 127
13, 15350, Note_on_c, 9, 36, 0
13, 15355, Note_on_c, 9, 42, 0
13, 15360, Note_on_c, 9, 36, 127
13, 15360, Note_on_c, 9, 42, 127
13, 15415, Note_on_c, 9, 42, 0
13, 15420, Note_on_c, 9, 42, 127
13, 15475, Note_on_c, 9, 42, 0
13, 15475, Note_on_c, 9, 38, 0
13, 15480, Note_on_c, 9, 38, 127
13, 15480, Note_on_c, 9, 42, 127
13, 15535, Note_on_c, 9, 42, 0
13, 15535, Note_on_c, 9, 38, 0
13, 15540, Note_on_c, 9, 38, 127
13, 15540, Note_on_c, 9, 42, 127
13, 15600, Note_on_c, 9, 42, 0
13, 15600, Note_on_c, 9, 36, 0
13, 15600, Note_on_c, 9, 36, 127
13, 15600, Note_on_c, 9, 42, 127
13, 15655, Note_on_c, 9, 42, 0
13, 15655, Note_on_c, 9, 36, 0
13, 15660, Note_on_c, 9, 36, 127
13, 15660, Note_on_c, 9, 42, 127
13, 15715, Note_on_c, 9, 38, 0
13, 15720, Note_on_c, 9, 42, 0
13, 15720, Note_on_c, 9, 38, 127
13, 15720, Note_on_c, 9, 42, 127
13, 15775, Note_on_c, 9, 42, 0
13, 15780, Note_on_c, 9, 36, 0
13, 15780, Note_on_c, 9, 36, 127
13, 15780, Note_on_c, 9, 42, 127
13, 15835, Note_on_c, 9, 36, 0
13, 15840, Note_on_c, 9, 42, 0
13, 15840, Note_on_c, 9, 36, 127
13, 15840, Note_on_c, 9, 42, 127
13, 15895, Note_on_c, 9, 42, 0
13, 15900, Note_on_c, 9, 42, 127
13, 15955, Note_on_c, 9, 38, 0
13, 15960, Note_on_c, 9, 42, 0
13, 15960, Note_on_c, 9, 38, 127
13, 15960, Note_on_c, 9, 42, 127
13, 16015, Note_on_c, 9, 42, 0
13, 16020, Note_on_c, 9, 42, 127
13, 16075, Note_on_c, 9, 36, 0
13, 16080, Note_on_c, 9, 42, 0
13, 16080, Note_on_c, 9, 36, 127
13, 16080, Note_on_c, 9, 42, 127
13, 16135, Note_on_c, 9, 36, 0
13, 16140, Note_on_c, 9, 42, 0
13, 16140, Note_on_c, 9, 36, 127
13, 16140, Note_on_c, 9, 42, 127
13, 16200, Note_on_c, 9, 42, 0
13, 16200, Note_on_c, 9, 38, 0
13, 16200, Note_on_c, 9, 38, 127
13, 16200, Note_on_c, 9, 42, 127
13, 16250, Note_on_c, 9, 42, 0
13, 16260, Note_on_c, 9, 42, 127
13, 16320, Note_on_c, 9, 42, 0
13, 16320, Note_on_c, 9, 36, 0
13, 16320, Note_on_c, 9, 36, 127
13, 16320, Note_on_c, 9, 42, 127
13, 16375, Note_on_c, 9, 42, 0
13, 16380, Note_on_c, 9, 42, 127
13, 16440, Note_on_c, 9, 42, 0
13, 16440, Note_on_c, 9, 38, 0
13, 16440, Note_on_c, 9, 38, 127
13, 16440, Note_on_c, 9, 42, 127
13, 16495, Note_on_c, 9, 42, 0
13, 16500, Note_on_c, 9, 42, 127
13, 16555, Note_on_c, 9, 36, 0
13, 16560, Note_on_c, 9, 42, 0
13, 16560, Note_on_c, 9, 36, 127
13, 16560, Note_on_c, 9, 42, 127
13, 16615, Note_on_c, 9, 42, 0
13, 16615, Note_on_c, 9, 36, 0
13, 16620, Note_on_c, 9, 42, 127
13, 16620, Note_on_c, 9, 36, 127
13, 16675, Note_on_c, 9, 38, 0
13, 16680, Note_on_c, 9, 42, 0
13, 16680, Note_on_c, 9, 38, 127
13, 16680, Note_on_c, 9, 42, 127
13, 16730, Note_on_c, 9, 36, 0
13, 16735, Note_on_c, 9, 42, 0
13, 16740, Note_on_c, 9, 36, 127
13, 16740, Note_on_c, 9, 42, 127
13, 16795, Note_on_c, 9, 42, 0
13, 16795, Note_on_c, 9, 36, 0
13, 16800, Note_on_c, 9, 36, 127
13, 16800, Note_on_c, 9, 42, 127
13, 16855, Note_on_c, 9, 42, 0
13, 16860, Note_on_c, 9, 42, 127
13, 16915, Note_on_c, 9, 42, 0
13, 16915, Note_on_c, 9, 38, 0
13, 16920, Note_on_c, 9, 38, 127
13, 16920, Note_on_c, 9, 42, 127
13, 16975, Note_on_c, 9, 42, 0
13, 16980, Note_on_c, 9, 42, 127
13, 17035, Note_on_c, 9, 36, 0
13, 17040, Note_on_c, 9, 42, 0
13, 17040, Note_on_c, 9, 36, 127
13, 17040, Note_on_c, 9, 42, 127
13, 17095, Note_on_c, 9, 42, 0
13, 17095, Note_on_c, 9, 36, 0
13, 17100, Note_on_c, 9, 36, 127
13, 17100, Note_on_c, 9, 42, 127
13, 17155, Note_on_c, 9, 42, 0
13, 17155, Note_on_c, 9, 38, 0
13, 17160, Note_on_c, 9, 38, 127
13, 17160, Note_on_c, 9, 42, 127
13, 17215, Note_on_c, 9, 42, 0
13, 17220, Note_on_c, 9, 42, 127
13, 17280, Note_on_c, 9, 42, 0
13, 17280, Note_on_c, 9, 36, 0
13, 17280, Note_on_c, 9, 36, 127
13, 17340, Note_on_c, 9, 38, 0
13, 17340, Note_on_c, 9, 63, 127
13, 17340, Note_on_c, 9, 38, 127
13, 17395, Note_on_c, 9, 38, 0
13, 17400, Note_on_c, 9, 63, 0
13, 17400, Note_on_c, 9, 38, 127
13, 17400, Note_on_c, 9, 63, 127
13, 17455, Note_on_c, 9, 63, 0
13, 17455, Note_on_c, 9, 38, 0
13, 17460, Note_on_c, 9, 38, 127
13, 17460, Note_on_c, 9, 63, 127
13, 17515, Note_on_c, 9, 63, 0
13, 17520, Note_on_c, 9, 38, 0
13, 17520, Note_on_c, 9, 38, 127
13, 17520, Note_on_c, 9, 63, 127
13, 17540, Note_on_c, 9, 36, 0
13, 17575, Note_on_c, 9, 63, 0
13, 17575, Note_on_c, 9, 38, 0
13, 17580, Note_on_c, 9, 38, 127
13, 17580, Note_on_c, 9, 63, 127
13, 17635, Note_on_c, 9, 63, 0
13, 17640, Note_on_c, 9, 38, 0
13, 17640, Note_on_c, 9, 38, 127
13, 17640, Note_on_c, 9, 63, 127
13, 17695, Note_on_c, 9, 63, 0
13, 17695, Note_on_c, 9, 38, 0
13, 17700, Note_on_c, 9, 38, 127
13, 17700, Note_on_c, 9, 63, 127
13, 17755, Note_on_c, 9, 49, 127
13, 17760, Note_on_c, 9, 36, 127
13, 17760, Note_on_c, 9, 42, 127
13, 17815, Note_on_c, 9, 42, 0
13, 17820, Note_on_c, 9, 42, 127
13, 17870, Note_on_c, 9, 38, 0
13, 17880, Note_on_c, 9, 42, 0
13, 17880, Note_on_c, 9, 38, 127
13, 17880, Note_on_c, 9, 42, 127
13, 17935, Note_on_c, 9, 42, 0
13, 17940, Note_on_c, 9, 42, 127
13, 17980, Note_on_c, 9, 63, 0
13, 17995, Note_on_c, 9, 36, 0
13, 18000, Note_on_c, 9, 42, 0
13, 18000, Note_on_c, 9, 36, 127
13, 18000, Note_on_c, 9, 42, 127
13, 18045, Note_on_c, 9, 49, 0
13, 18055, Note_on_c, 9, 42, 0
13, 18055, Note_on_c, 9, 36, 0
13, 18060, Note_on_c, 9, 36, 127
13, 18060, Note_on_c, 9, 42, 127
13, 18120, Note_on_c, 9, 42, 0
13, 18120, Note_on_c, 9, 38, 0
13, 18120, Note_on_c, 9, 38, 127
13, 18120, Note_on_c, 9, 42, 127
13, 18175, Note_on_c, 9, 42, 0
13, 18180, Note_on_c, 9, 42, 127
13, 18235, Note_on_c, 9, 42, 0
13, 18240, Note_on_c, 9, 36, 0
13, 18240, Note_on_c, 9, 36, 127
13, 18240, Note_on_c, 9, 42, 127
13, 18295, Note_on_c, 9, 42, 0
13, 18300, Note_on_c, 9, 42, 127
13, 18355, Note_on_c, 9, 38, 0
13, 18360, Note_on_c, 9, 42, 0
13, 18360, Note_on_c, 9, 38, 127
13, 18360, Note_on_c, 9, 42, 127
13, 18410, Note_on_c, 9, 42, 0
13, 18420, Note_on_c, 9, 42, 127
13, 18470, Note_on_c, 9, 36, 0
13, 18480, Note_on_c, 9, 42, 0
13, 18480, Note_on_c, 9, 36, 127
13, 18480, Note_on_c, 9, 42, 127
13, 18535, Note_on_c, 9, 42, 0
13, 18535, Note_on_c, 9, 36, 0
13, 18540, Note_on_c, 9, 36, 127
13, 18540, Note_on_c, 9, 42, 127
13, 18595, Note_on_c, 9, 38, 0
13, 18600, Note_on_c, 9, 42, 0
13, 18600, Note_on_c, 9, 38, 127
13, 18600, Note_on_c, 9, 42, 127
13, 18655, Note_on_c, 9, 42, 0
13, 18655, Note_on_c, 9, 36, 0
13, 18660, Note_on_c, 9, 36, 127
13, 18660, Note_on_c, 9, 42, 127
13, 18715, Note_on_c, 9, 42, 0
13, 18715, Note_on_c, 9, 36, 0
13, 18720, Note_on_c, 9, 36, 127
13, 18720, Note_on_c, 9, 42, 127
13, 18775, Note_on_c, 9, 42, 0
13, 18780, Note_on_c, 9, 42, 127
13, 18835, Note_on_c, 9, 42, 0
13, 18835, Note_on_c, 9, 38, 0
13, 18840, Note_on_c, 9, 38, 127
13, 18840, Note_on_c, 9, 42, 127
13, 18895, Note_on_c, 9, 42, 0
13, 18900, Note_on_c, 9, 42, 127
13, 18955, Note_on_c, 9, 36, 0
13, 18960, Note_on_c, 9, 42, 0
13, 18960, Note_on_c, 9, 36, 127
13, 18960, Note_on_c, 9, 42, 127
13, 19015, Note_on_c, 9, 42, 0
13, 19015, Note_on_c, 9, 36, 0
13, 19020, Note_on_c, 9, 36, 127
13, 19020, Note_on_c, 9, 42, 127
13, 19075, Note_on_c, 9, 38, 0
13, 19080, Note_on_c, 9, 42, 0
13, 19080, Note_on_c, 9, 38, 127
13, 19080, Note_on_c, 9, 42, 127
13, 19140, Note_on_c, 9, 42, 0
13, 19140, Note_on_c, 9, 42, 127
13, 19195, Note_on_c, 9, 42, 0
13, 19200, Note_on_c, 9, 36, 0
13, 19200, Note_on_c, 9, 36, 127
13, 19200, Note_on_c, 9, 42, 127
13, 19255, Note_on_c, 9, 42, 0
13, 19260, Note_on_c, 9, 42, 127
13, 19315, Note_on_c, 9, 38, 0
13, 19320, Note_on_c, 9, 42, 0
13, 19320, Note_on_c, 9, 38, 127
13, 19320, Note_on_c, 9, 42, 127
13, 19375, Note_on_c, 9, 42, 0
13, 19380, Note_on_c, 9, 42, 127
13, 19435, Note_on_c, 9, 42, 0
13, 19435, Note_on_c, 9, 36, 0
13, 19440, Note_on_c, 9, 36, 127
13, 19440, Note_on_c, 9, 42, 127
13, 19495, Note_on_c, 9, 42, 0
13, 19495, Note_on_c, 9, 36, 0
13, 19500, Note_on_c, 9, 36, 127
13, 19500, Note_on_c, 9, 42, 127
13, 19555, Note_on_c, 9, 38, 0
13, 19560, Note_on_c, 9, 42, 0
13, 19560, Note_on_c, 9, 38, 127
13, 19560, Note_on_c, 9, 42, 127
13, 19615, Note_on_c, 9, 42, 0
13, 19620, Note_on_c, 9, 36, 0
13, 19620, Note_on_c, 9, 36, 127
13, 19620, Note_on_c, 9, 42, 127
13, 19675, Note_on_c, 9, 42, 0
13, 19675, Note_on_c, 9, 36, 0
13, 19680, Note_on_c, 9, 36, 127
13, 19680, Note_on_c, 9, 42, 127
13, 19730, Note_on_c, 9, 42, 0
13, 19740, Note_on_c, 9, 42, 127
13, 19795, Note_on_c, 9, 42, 0
13, 19795, Note_on_c, 9, 38, 0
13, 19800, Note_on_c, 9, 38, 127
13, 19800, Note_on_c, 9, 42, 127
13, 19855, Note_on_c, 9, 42, 0
13, 19860, Note_on_c, 9, 42, 127
13, 19915, Note_on_c, 9, 36, 0
13, 19920, Note_on_c, 9, 42, 0
13, 19920, Note_on_c, 9, 36, 127
13, 19920, Note_on_c, 9, 42, 127
13, 19970, Note_on_c, 9, 36, 0
13, 19975, Note_on_c, 9, 42, 0
13, 19980, Note_on_c, 9, 36, 127
13, 19980, Note_on_c, 9, 42, 127
13, 20035, Note_on_c, 9, 42, 0
13, 20035, Note_on_c, 9, 38, 0
13, 20040, Note_on_c, 9, 38, 127
13, 20040, Note_on_c, 9, 42, 127
13, 20095, Note_on_c, 9, 42, 0
13, 20100, Note_on_c, 9, 42, 127
13, 20160, Note_on_c, 9, 42, 0
13, 20160, Note_on_c, 9, 36, 0
13, 20160, Note_on_c, 9, 36, 127
13, 20160, Note_on_c, 9, 42, 127
13, 20215, Note_on_c, 9, 42, 0
13, 20220, Note_on_c, 9, 42, 127
13, 20280, Note_on_c, 9, 42, 0
13, 20280, Note_on_c, 9, 38, 0
13, 20280, Note_on_c, 9, 38, 127
13, 20280, Note_on_c, 9, 42, 127
13, 20335, Note_on_c, 9, 42, 0
13, 20340, Note_on_c, 9, 42, 127
13, 20395, Note_on_c, 9, 36, 0
13, 20400, Note_on_c, 9, 42, 0
13, 20400, Note_on_c, 9, 36, 127
13, 20400, Note_on_c, 9, 42, 127
13, 20455, Note_on_c, 9, 42, 0
13, 20455, Note_on_c, 9, 36, 0
13, 20460, Note_on_c, 9, 36, 127
13, 20460, Note_on_c, 9, 42, 127
13, 20515, Note_on_c, 9, 42, 0
13, 20515, Note_on_c, 9, 38, 0
13, 20520, Note_on_c, 9, 38, 127
13, 20520, Note_on_c, 9, 42, 127
13, 20575, Note_on_c, 9, 42, 0
13, 20575, Note_on_c, 9, 36, 0
13, 20580, Note_on_c, 9, 36, 127
13, 20580, Note_on_c, 9, 42, 127
13, 20635, Note_on_c, 9, 42, 0
13, 20635, Note_on_c, 9, 36, 0
13, 20640, Note_on_c, 9, 36, 127
13, 20640, Note_on_c, 9, 42, 127
13, 20695, Note_on_c, 9, 42, 0
13, 20700, Note_on_c, 9, 42, 127
13, 20755, Note_on_c, 9, 38, 0
13, 20760, Note_on_c, 9, 42, 0
13, 20760, Note_on_c, 9, 38, 127
13, 20760, Note_on_c, 9, 42, 127
13, 20815, Note_on_c, 9, 42, 0
13, 20820, Note_on_c, 9, 42, 127
13, 20875, Note_on_c, 9, 36, 0
13, 20880, Note_on_c, 9, 42, 0
13, 20880, Note_on_c, 9, 36, 127
13, 20880, Note_on_c, 9, 42, 127
13, 20935, Note_on_c, 9, 42, 0
13, 20935, Note_on_c, 9, 36, 0
13, 20940, Note_on_c, 9, 36, 127
13, 20940, Note_on_c, 9, 42, 127
13, 20995, Note_on_c, 9, 42, 0
13, 20995, Note_on_c, 9, 38, 0
13, 21000, Note_on_c, 9, 38, 127
13, 21000, Note_on_c, 9, 42, 127
13, 21055, Note_on_c, 9, 42, 0
13, 21060, Note_on_c, 9, 42, 127
13, 21120, Note_on_c, 9, 42, 0
13, 21120, Note_on_c, 9, 36, 0
13, 21120, Note_on_c, 9, 36, 127
13, 21120, Note_on_c, 9, 42, 127
13, 21175, Note_on_c, 9, 42, 0
13, 21180, Note_on_c, 9, 42, 127
13, 21235, Note_on_c, 9, 42, 0
13, 21235, Note_on_c, 9, 38, 0
13, 21240, Note_on_c, 9, 38, 127
13, 21240, Note_on_c, 9, 42, 127
13, 21295, Note_on_c, 9, 42, 0
13, 21300, Note_on_c, 9, 42, 127
13, 21355, Note_on_c, 9, 42, 0
13, 21355, Note_on_c, 9, 36, 0
13, 21360, Note_on_c, 9, 36, 127
13, 21360, Note_on_c, 9, 42, 127
13, 21415, Note_on_c, 9, 42, 0
13, 21415, Note_on_c, 9, 36, 0
13, 21420, Note_on_c, 9, 36, 127
13, 21420, Note_on_c, 9, 42, 127
13, 21475, Note_on_c, 9, 42, 0
13, 21475, Note_on_c, 9, 38, 0
13, 21480, Note_on_c, 9, 38, 127
13, 21480, Note_on_c, 9, 42, 127
13, 21535, Note_on_c, 9, 42, 0
13, 21535, Note_on_c, 9, 36, 0
13, 21540, Note_on_c, 9, 36, 127
13, 21540, Note_on_c, 9, 42, 127
13, 21595, Note_on_c, 9, 42, 0
13, 21595, Note_on_c, 9, 36, 0
13, 21600, Note_on_c, 9, 36, 127
13, 21600, Note_on_c, 9, 42, 127
13, 21655, Note_on_c, 9, 42, 0
13, 21660, Note_on_c, 9, 42, 127
13, 21715, Note_on_c, 9, 42, 0
13, 21715, Note_on_c, 9, 38, 0
13, 21720, Note_on_c, 9, 38, 127
13, 21720, Note_on_c, 9, 42, 127
13, 21775, Note_on_c, 9, 42, 0
13, 21780, Note_on_c, 9, 42, 127
13, 21835, Note_on_c, 9, 36, 0
13, 21840, Note_on_c, 9, 42, 0
13, 21840, Note_on_c, 9, 36, 127
13, 21840, Note_on_c, 9, 42, 127
13, 21895, Note_on_c, 9, 42, 0
13, 21895, Note_on_c, 9, 36, 0
13, 21900, Note_on_c, 9, 36, 127
13, 21900, Note_on_c, 9, 42, 127
13, 21955, Note_on_c, 9, 42, 0
13, 21960, Note_on_c, 9, 38, 0
13, 21960, Note_on_c, 9, 38, 127
13, 21960, Note_on_c, 9, 42, 127
13, 22015, Note_on_c, 9, 42, 0
13, 22020, Note_on_c, 9, 42, 127
13, 22075, Note_on_c, 9, 42, 0
13, 22080, Note_on_c, 9, 36, 0
13, 22080, Note_on_c, 9, 42, 127
13, 22080, Note_on_c, 9, 36, 127
13, 22135, Note_on_c, 9, 42, 0
13, 22140, Note_on_c, 9, 42, 127
13, 22195, Note_on_c, 9, 42, 0
13, 22200, Note_on_c, 9, 38, 0
13, 22200, Note_on_c, 9, 38, 127
13, 22200, Note_on_c, 9, 42, 127
13, 22255, Note_on_c, 9, 42, 0
13, 22260, Note_on_c, 9, 42, 127
13, 22315, Note_on_c, 9, 36, 0
13, 22320, Note_on_c, 9, 42, 0
13, 22320, Note_on_c, 9, 36, 127
13, 22320, Note_on_c, 9, 42, 127
13, 22375, Note_on_c, 9, 42, 0
13, 22375, Note_on_c, 9, 36, 0
13, 22380, Note_on_c, 9, 36, 127
13, 22380, Note_on_c, 9, 42, 127
13, 22435, Note_on_c, 9, 42, 0
13, 22440, Note_on_c, 9, 38, 0
13, 22440, Note_on_c, 9, 38, 127
13, 22440, Note_on_c, 9, 42, 127
13, 22495, Note_on_c, 9, 42, 0
13, 22500, Note_on_c, 9, 36, 0
13, 22500, Note_on_c, 9, 36, 127
13, 22500, Note_on_c, 9, 42, 127
13, 22555, Note_on_c, 9, 42, 0
13, 22555, Note_on_c, 9, 36, 0
13, 22560, Note_on_c, 9, 36, 127
13, 22560, Note_on_c, 9, 42, 127
13, 22615, Note_on_c, 9, 42, 0
13, 22620, Note_on_c, 9, 42, 127
13, 22675, Note_on_c, 9, 42, 0
13, 22675, Note_on_c, 9, 38, 0
13, 22680, Note_on_c, 9, 38, 127
13, 22680, Note_on_c, 9, 42, 127
13, 22735, Note_on_c, 9, 42, 0
13, 22740, Note_on_c, 9, 42, 127
13, 22795, Note_on_c, 9, 42, 0
13, 22795, Note_on_c, 9, 36, 0
13, 22800, Note_on_c, 9, 42, 127
13, 22800, Note_on_c, 9, 36, 127
13, 22855, Note_on_c, 9, 36, 0
13, 22855, Note_on_c, 9, 42, 0
13, 22860, Note_on_c, 9, 42, 127
13, 22860, Note_on_c, 9, 36, 127
13, 22920, Note_on_c, 9, 42, 0
13, 22920, Note_on_c, 9, 38, 0
13, 22920, Note_on_c, 9, 38, 127
13, 22920, Note_on_c, 9, 42, 127
13, 22980, Note_on_c, 9, 42, 0
13, 22980, Note_on_c, 9, 42, 127
13, 23040, Note_on_c, 9, 42, 0
13, 23040, Note_on_c, 9, 36, 0
13, 23040, Note_on_c, 9, 36, 127
13, 23100, Note_on_c, 9, 38, 0
13, 23100, Note_on_c, 9, 38, 127
13, 23100, Note_on_c, 9, 63, 127
13, 23160, Note_on_c, 9, 63, 0
13, 23160, Note_on_c, 9, 38, 0
13, 23160, Note_on_c, 9, 63, 127
13, 23160, Note_on_c, 9, 38, 127
13, 23215, Note_on_c, 9, 38, 0
13, 23215, Note_on_c, 9, 63, 0
13, 23220, Note_on_c, 9, 63, 127
13, 23220, Note_on_c, 9, 38, 127
13, 23280, Note_on_c, 9, 38, 0
13, 23280, Note_on_c, 9, 63, 0
13, 23280, Note_on_c, 9, 63, 127
13, 23280, Note_on_c, 9, 38, 127
13, 23300, Note_on_c, 9, 36, 0
13, 23340, Note_on_c, 9, 45, 127
13, 23370, Note_on_c, 9, 45, 0
13, 23370, Note_on_c, 9, 45, 127
13, 23400, Note_on_c, 9, 41, 127
13, 23460, Note_on_c, 9, 63, 0
13, 23460, Note_on_c, 9, 63, 127
13, 23520, Note_on_c, 9, 36, 127
13, 23520, Note_on_c, 9, 42, 127
13, 23520, Note_on_c, 9, 49, 127
13, 23550, Note_on_c, 9, 38, 0
13, 23570, Note_on_c, 9, 42, 0
13, 23580, Note_on_c, 9, 42, 127
13, 23640, Note_on_c, 9, 42, 0
13, 23640, Note_on_c, 9, 38, 127
13, 23640, Note_on_c, 9, 42, 127
13, 23650, Note_on_c, 9, 45, 0
13, 23685, Note_on_c, 9, 41, 0
13, 23695, Note_on_c, 9, 42, 0
13, 23700, Note_on_c, 9, 42, 127
13, 23745, Note_on_c, 9, 63, 0
13, 23760, Note_on_c, 9, 36, 0
13, 23760, Note_on_c, 9, 42, 0
13, 23760, Note_on_c, 9, 36, 127
13, 23760, Note_on_c, 9, 42, 127
13, 23760, Note_on_c, 9, 42, 127
13, 23810, Note_on_c, 9, 49, 0
13, 23815, Note_on_c, 9, 42, 0
13, 23815, Note_on_c, 9, 36, 0
13, 23820, Note_on_c, 9, 36, 127
13, 23820, Note_on_c, 9, 42, 127
13, 23875, Note_on_c, 9, 42, 0
13, 23880, Note_on_c, 9, 38, 0
13, 23880, Note_on_c, 9, 38, 127
13, 23880, Note_on_c, 9, 42, 127
13, 23935, Note_on_c, 9, 42, 0
13, 23940, Note_on_c, 9, 42, 127
13, 24000, Note_on_c, 9, 42, 0
13, 24000, Note_on_c, 9, 36, 0
13, 24000, Note_on_c, 9, 36, 127
13, 24000, Note_on_c, 9, 42, 127
13, 24055, Note_on_c, 9, 42, 0
13, 24060, Note_on_c, 9, 42, 127
13, 24115, Note_on_c, 9, 38, 0
13, 24120, Note_on_c, 9, 42, 0
13, 24120, Note_on_c, 9, 38, 127
13, 24120, Note_on_c, 9, 42, 127
13, 24175, Note_on_c, 9, 42, 0
13, 24180, Note_on_c, 9, 42, 127
13, 24235, Note_on_c, 9, 36, 0
13, 24240, Note_on_c, 9, 42, 0
13, 24240, Note_on_c, 9, 36, 127
13, 24240, Note_on_c, 9, 42, 127
13, 24295, Note_on_c, 9, 42, 0
13, 24295, Note_on_c, 9, 36, 0
13, 24300, Note_on_c, 9, 36, 127
13, 24300, Note_on_c, 9, 42, 127
13, 24355, Note_on_c, 9, 42, 0
13, 24355, Note_on_c, 9, 38, 0
13, 24360, Note_on_c, 9, 38, 127
13, 24360, Note_on_c, 9, 42, 127
13, 24415, Note_on_c, 9, 42, 0
13, 24415, Note_on_c, 9, 36, 0
13, 24420, Note_on_c, 9, 36, 127
13, 24420, Note_on_c, 9, 42, 127
13, 24475, Note_on_c, 9, 42, 0
13, 24475, Note_on_c, 9, 36, 0
13, 24480, Note_on_c, 9, 36, 127
13, 24480, Note_on_c, 9, 42, 127
13, 24535, Note_on_c, 9, 42, 0
13, 24540, Note_on_c, 9, 42, 127
13, 24595, Note_on_c, 9, 38, 0
13, 24600, Note_on_c, 9, 42, 0
13, 24600, Note_on_c, 9, 38, 127
13, 24600, Note_on_c, 9, 42, 127
13, 24655, Note_on_c, 9, 42, 0
13, 24660, Note_on_c, 9, 42, 127
13, 24715, Note_on_c, 9, 36, 0
13, 24720, Note_on_c, 9, 42, 0
13, 24720, Note_on_c, 9, 36, 127
13, 24720, Note_on_c, 9, 42, 127
13, 24775, Note_on_c, 9, 42, 0
13, 24780, Note_on_c, 9, 36, 0
13, 24780, Note_on_c, 9, 42, 127
13, 24780, Note_on_c, 9, 36, 127
13, 24835, Note_on_c, 9, 38, 0
13, 24840, Note_on_c, 9, 38, 127
13, 24895, Note_on_c, 9, 42, 0
13, 24900, Note_on_c, 9, 42, 127
13, 24960, Note_on_c, 9, 42, 0
13, 24960, Note_on_c, 9, 36, 0
13, 24960, Note_on_c, 9, 36, 127
13, 24960, Note_on_c, 9, 42, 127
13, 25015, Note_on_c, 9, 42, 0
13, 25020, Note_on_c, 9, 42, 127
13, 25080, Note_on_c, 9, 42, 0
13, 25080, Note_on_c, 9, 38, 0
13, 25080, Note_on_c, 9, 38, 127
13, 25080, Note_on_c, 9, 42, 127
13, 25135, Note_on_c, 9, 42, 0
13, 25140, Note_on_c, 9, 42, 127
13, 25195, Note_on_c, 9, 36, 0
13, 25200, Note_on_c, 9, 42, 0
13, 25200, Note_on_c, 9, 36, 65
13, 25200, Note_on_c, 9, 36, 127
13, 25200, Note_on_c, 9, 42, 127
13, 25255, Note_on_c, 9, 42, 0
13, 25255, Note_on_c, 9, 36, 0
13, 25260, Note_on_c, 9, 36, 127
13, 25260, Note_on_c, 9, 42, 127
13, 25315, Note_on_c, 9, 42, 0
13, 25315, Note_on_c, 9, 38, 0
13, 25320, Note_on_c, 9, 38, 127
13, 25320, Note_on_c, 9, 42, 127
13, 25375, Note_on_c, 9, 42, 0
13, 25375, Note_on_c, 9, 36, 0
13, 25380, Note_on_c, 9, 36, 127
13, 25380, Note_on_c, 9, 42, 127
13, 25435, Note_on_c, 9, 42, 0
13, 25435, Note_on_c, 9, 36, 0
13, 25440, Note_on_c, 9, 36, 127
13, 25440, Note_on_c, 9, 42, 127
13, 25495, Note_on_c, 9, 42, 0
13, 25500, Note_on_c, 9, 42, 127
13, 25555, Note_on_c, 9, 42, 0
13, 25555, Note_on_c, 9, 38, 0
13, 25560, Note_on_c, 9, 38, 127
13, 25560, Note_on_c, 9, 42, 127
13, 25615, Note_on_c, 9, 42, 0
13, 25620, Note_on_c, 9, 42, 127
13, 25675, Note_on_c, 9, 36, 0
13, 25680, Note_on_c, 9, 42, 0
13, 25680, Note_on_c, 9, 36, 127
13, 25680, Note_on_c, 9, 42, 127
13, 25735, Note_on_c, 9, 42, 0
13, 25740, Note_on_c, 9, 36, 0
13, 25740, Note_on_c, 9, 42, 127
13, 25740, Note_on_c, 9, 36, 127
13, 25795, Note_on_c, 9, 38, 0
13, 25800, Note_on_c, 9, 42, 0
13, 25800, Note_on_c, 9, 38, 127
13, 25800, Note_on_c, 9, 42, 127
13, 25855, Note_on_c, 9, 42, 0
13, 25860, Note_on_c, 9, 42, 127
13, 25915, Note_on_c, 9, 42, 0
13, 25920, Note_on_c, 9, 36, 0
13, 25920, Note_on_c, 9, 36, 0
13, 25920, Note_on_c, 9, 36, 101
13, 25920, Note_on_c, 9, 36, 127
13, 25920, Note_on_c, 9, 42, 127
13, 25975, Note_on_c, 9, 42, 0
13, 25980, Note_on_c, 9, 42, 127
13, 26030, Note_on_c, 9, 38, 0
13, 26040, Note_on_c, 9, 42, 0
13, 26040, Note_on_c, 9, 38, 127
13, 26040, Note_on_c, 9, 42, 127
13, 26090, Note_on_c, 9, 42, 0
13, 26100, Note_on_c, 9, 42, 127
13, 26160, Note_on_c, 9, 42, 0
13, 26160, Note_on_c, 9, 36, 0
13, 26160, Note_on_c, 9, 36, 127
13, 26160, Note_on_c, 9, 42, 127
13, 26215, Note_on_c, 9, 42, 0
13, 26215, Note_on_c, 9, 36, 0
13, 26220, Note_on_c, 9, 42, 0
13, 26220, Note_on_c, 9, 36, 127
13, 26220, Note_on_c, 9, 42, 127
13, 26275, Note_on_c, 9, 38, 0
13, 26280, Note_on_c, 9, 38, 127
13, 26280, Note_on_c, 9, 38, 127
13, 26335, Note_on_c, 9, 38, 0
13, 26340, Note_on_c, 9, 38, 127
13, 26365, Note_on_c, 9, 38, 0
13, 26370, Note_on_c, 9, 38, 127
13, 26395, Note_on_c, 9, 38, 0
13, 26400, Note_on_c, 9, 36, 0
13, 26400, Note_on_c, 9, 38, 0
13, 26400, Note_on_c, 9, 36, 0
13, 26400, Note_on_c, 9, 38, 127
13, 26400, Note_on_c, 9, 36, 127
13, 26475, Note_on_c, 9, 42, 0
13, 26680, Note_on_c, 9, 36, 0
13, 26685, Note_on_c, 9, 38, 0
13, 26880, Note_on_c, 9, 42, 127
13, 26940, Note_on_c, 9, 63, 127
13, 26940, Note_on_c, 9, 38, 127
13, 26995, Note_on_c, 9, 38, 0
13, 27000, Note_on_c, 9, 63, 0
13, 27000, Note_on_c, 9, 38, 127
13, 27000, Note_on_c, 9, 63, 127
13, 27055, Note_on_c, 9, 63, 0
13, 27055, Note_on_c, 9, 38, 0
13, 27060, Note_on_c, 9, 38, 127
13, 27060, Note_on_c, 9, 63, 127
13, 27115, Note_on_c, 9, 63, 0
13, 27115, Note_on_c, 9, 38, 0
13, 27120, Note_on_c, 9, 38, 127
13, 27120, Note_on_c, 9, 63, 127
13, 27125, Note_on_c, 9, 42, 0
13, 27175, Note_on_c, 9, 63, 0
13, 27175, Note_on_c, 9, 38, 0
13, 27180, Note_on_c, 9, 38, 127
13, 27180, Note_on_c, 9, 63, 127
13, 27235, Note_on_c, 9, 63, 0
13, 27235, Note_on_c, 9, 38, 0
13, 27240, Note_on_c, 9, 38, 127
13, 27240, Note_on_c, 9, 63, 127
13, 27295, Note_on_c, 9, 63, 0
13, 27295, Note_on_c, 9, 38, 0
13, 27300, Note_on_c, 9, 38, 127
13, 27300, Note_on_c, 9, 63, 127
13, 27355, Note_on_c, 9, 63, 0
13, 27355, Note_on_c, 9, 38, 0
13, 27360, Note_on_c, 9, 38, 127
13, 27360, Note_on_c, 9, 63, 127
13, 27635, Note_on_c, 9, 38, 0
13, 27645, Note_on_c, 9, 63, 0
13, 27660, Note_on_c, 9, 45, 127
13, 27720, Note_on_c, 9, 41, 127
13, 27780, Note_on_c, 9, 63, 127
13, 27840, Note_on_c, 9, 36, 127
13, 27840, Note_on_c, 9, 42, 127
13, 27840, Note_on_c, 9, 49, 127
13, 27900, Note_on_c, 9, 42, 0
13, 27900, Note_on_c, 9, 42, 127
13, 27945, Note_on_c, 9, 45, 0
13, 27950, Note_on_c, 9, 42, 0
13, 27960, Note_on_c, 9, 38, 127
13, 27960, Note_on_c, 9, 42, 127
13, 28000, Note_on_c, 9, 41, 0
13, 28015, Note_on_c, 9, 38, 0
13, 28020, Note_on_c, 9, 38, 127
13, 28060, Note_on_c, 9, 63, 0
13, 28075, Note_on_c, 9, 36, 0
13, 28080, Note_on_c, 9, 42, 0
13, 28080, Note_on_c, 9, 36, 127
13, 28080, Note_on_c, 9, 42, 127
13, 28130, Note_on_c, 9, 49, 0
13, 28135, Note_on_c, 9, 42, 0
13, 28135, Note_on_c, 9, 36, 0
13, 28140, Note_on_c, 9, 36, 127
13, 28140, Note_on_c, 9, 42, 127
13, 28190, Note_on_c, 9, 38, 0
13, 28195, Note_on_c, 9, 42, 0
13, 28200, Note_on_c, 9, 38, 127
13, 28200, Note_on_c, 9, 42, 127
13, 28255, Note_on_c, 9, 42, 0
13, 28255, Note_on_c, 9, 36, 0
13, 28260, Note_on_c, 9, 36, 127
13, 28260, Note_on_c, 9, 42, 127
13, 28315, Note_on_c, 9, 42, 0
13, 28315, Note_on_c, 9, 36, 0
13, 28320, Note_on_c, 9, 36, 127
13, 28320, Note_on_c, 9, 42, 127
13, 28375, Note_on_c, 9, 42, 0
13, 28380, Note_on_c, 9, 42, 127
13, 28440, Note_on_c, 9, 42, 0
13, 28440, Note_on_c, 9, 38, 0
13, 28440, Note_on_c, 9, 38, 127
13, 28440, Note_on_c, 9, 42, 127
13, 28495, Note_on_c, 9, 42, 0
13, 28495, Note_on_c, 9, 38, 0
13, 28500, Note_on_c, 9, 38, 127
13, 28500, Note_on_c, 9, 42, 127
13, 28555, Note_on_c, 9, 36, 0
13, 28560, Note_on_c, 9, 42, 0
13, 28560, Note_on_c, 9, 36, 127
13, 28560, Note_on_c, 9, 42, 127
13, 28610, Note_on_c, 9, 36, 0
13, 28615, Note_on_c, 9, 42, 0
13, 28620, Note_on_c, 9, 36, 127
13, 28620, Note_on_c, 9, 42, 127
13, 28675, Note_on_c, 9, 42, 0
13, 28675, Note_on_c, 9, 38, 0
13, 28680, Note_on_c, 9, 38, 127
13, 28680, Note_on_c, 9, 42, 127
13, 28735, Note_on_c, 9, 42, 0
13, 28740, Note_on_c, 9, 36, 0
13, 28740, Note_on_c, 9, 36, 127
13, 28740, Note_on_c, 9, 42, 127
13, 28795, Note_on_c, 9, 42, 0
13, 28795, Note_on_c, 9, 36, 0
13, 28800, Note_on_c, 9, 36, 127
13, 28800, Note_on_c, 9, 42, 127
13, 28855, Note_on_c, 9, 42, 0
13, 28860, Note_on_c, 9, 42, 127
13, 28920, Note_on_c, 9, 42, 0
13, 28920, Note_on_c, 9, 38, 0
13, 28920, Note_on_c, 9, 38, 127
13, 28920, Note_on_c, 9, 42, 127
13, 28975, Note_on_c, 9, 42, 0
13, 28975, Note_on_c, 9, 38, 0
13, 28980, Note_on_c, 9, 38, 127
13, 28980, Note_on_c, 9, 42, 127
13, 29035, Note_on_c, 9, 36, 0
13, 29040, Note_on_c, 9, 42, 0
13, 29040, Note_on_c, 9, 36, 127
13, 29040, Note_on_c, 9, 42, 127
13, 29095, Note_on_c, 9, 42, 0
13, 29095, Note_on_c, 9, 36, 0
13, 29100, Note_on_c, 9, 36, 127
13, 29100, Note_on_c, 9, 42, 127
13, 29155, Note_on_c, 9, 38, 0
13, 29160, Note_on_c, 9, 42, 0
13, 29160, Note_on_c, 9, 38, 127
13, 29160, Note_on_c, 9, 42, 127
13, 29215, Note_on_c, 9, 42, 0
13, 29220, Note_on_c, 9, 36, 0
13, 29220, Note_on_c, 9, 36, 127
13, 29220, Note_on_c, 9, 42, 127
13, 29275, Note_on_c, 9, 42, 0
13, 29275, Note_on_c, 9, 36, 0
13, 29280, Note_on_c, 9, 36, 127
13, 29280, Note_on_c, 9, 42, 127
13, 29335, Note_on_c, 9, 42, 0
13, 29340, Note_on_c, 9, 42, 127
13, 29395, Note_on_c, 9, 38, 0
13, 29400, Note_on_c, 9, 42, 0
13, 29400, Note_on_c, 9, 38, 127
13, 29400, Note_on_c, 9, 42, 127
13, 29455, Note_on_c, 9, 42, 0
13, 29455, Note_on_c, 9, 38, 0
13, 29460, Note_on_c, 9, 38, 127
13, 29460, Note_on_c, 9, 42, 127
13, 29520, Note_on_c, 9, 42, 0
13, 29520, Note_on_c, 9, 36, 0
13, 29520, Note_on_c, 9, 36, 127
13, 29520, Note_on_c, 9, 42, 127
13, 29575, Note_on_c, 9, 42, 0
13, 29575, Note_on_c, 9, 36, 0
13, 29580, Note_on_c, 9, 36, 127
13, 29580, Note_on_c, 9, 42, 127
13, 29635, Note_on_c, 9, 42, 0
13, 29635, Note_on_c, 9, 38, 0
13, 29640, Note_on_c, 9, 38, 127
13, 29640, Note_on_c, 9, 42, 127
13, 29695, Note_on_c, 9, 42, 0
13, 29700, Note_on_c, 9, 36, 0
13, 29700, Note_on_c, 9, 36, 127
13, 29700, Note_on_c, 9, 42, 127
13, 29755, Note_on_c, 9, 42, 0
13, 29755, Note_on_c, 9, 36, 0
13, 29760, Note_on_c, 9, 36, 127
13, 29760, Note_on_c, 9, 42, 127
13, 29815, Note_on_c, 9, 42, 0
13, 29820, Note_on_c, 9, 42, 127
13, 29875, Note_on_c, 9, 42, 0
13, 29875, Note_on_c, 9, 38, 0
13, 29880, Note_on_c, 9, 38, 127
13, 29880, Note_on_c, 9, 42, 127
13, 29935, Note_on_c, 9, 42, 0
13, 29935, Note_on_c, 9, 38, 0
13, 29940, Note_on_c, 9, 38, 127
13, 29940, Note_on_c, 9, 42, 127
13, 30000, Note_on_c, 9, 42, 0
13, 30000, Note_on_c, 9, 36, 0
13, 30000, Note_on_c, 9, 36, 127
13, 30000, Note_on_c, 9, 42, 127
13, 30050, Note_on_c, 9, 36, 0
13, 30055, Note_on_c, 9, 42, 0
13, 30060, Note_on_c, 9, 36, 127
13, 30060, Note_on_c, 9, 42, 127
13, 30115, Note_on_c, 9, 38, 0
13, 30120, Note_on_c, 9, 42, 0
13, 30120, Note_on_c, 9, 38, 127
13, 30120, Note_on_c, 9, 42, 127
13, 30175, Note_on_c, 9, 42, 0
13, 30180, Note_on_c, 9, 36, 0
13, 30180, Note_on_c, 9, 36, 127
13, 30180, Note_on_c, 9, 42, 127
13, 30235, Note_on_c, 9, 42, 0
13, 30235, Note_on_c, 9, 36, 0
13, 30240, Note_on_c, 9, 36, 127
13, 30240, Note_on_c, 9, 42, 127
13, 30295, Note_on_c, 9, 42, 0
13, 30300, Note_on_c, 9, 42, 127
13, 30355, Note_on_c, 9, 42, 0
13, 30360, Note_on_c, 9, 38, 0
13, 30360, Note_on_c, 9, 42, 127
13, 30360, Note_on_c, 9, 38, 127
13, 30415, Note_on_c, 9, 38, 0
13, 30415, Note_on_c, 9, 42, 0
13, 30420, Note_on_c, 9, 38, 127
13, 30420, Note_on_c, 9, 42, 127
13, 30480, Note_on_c, 9, 42, 0
13, 30480, Note_on_c, 9, 36, 0
13, 30480, Note_on_c, 9, 36, 127
13, 30480, Note_on_c, 9, 42, 127
13, 30530, Note_on_c, 9, 36, 0
13, 30535, Note_on_c, 9, 42, 0
13, 30540, Note_on_c, 9, 36, 127
13, 30540, Note_on_c, 9, 42, 127
13, 30595, Note_on_c, 9, 42, 0
13, 30595, Note_on_c, 9, 38, 0
13, 30600, Note_on_c, 9, 38, 127
13, 30600, Note_on_c, 9, 42, 127
13, 30655, Note_on_c, 9, 42, 0
13, 30660, Note_on_c, 9, 36, 0
13, 30660, Note_on_c, 9, 36, 127
13, 30660, Note_on_c, 9, 42, 127
13, 30715, Note_on_c, 9, 42, 0
13, 30715, Note_on_c, 9, 36, 0
13, 30720, Note_on_c, 9, 36, 127
13, 30720, Note_on_c, 9, 42, 127
13, 30770, Note_on_c, 9, 42, 0
13, 30780, Note_on_c, 9, 42, 127
13, 30830, Note_on_c, 9, 38, 0
13, 30835, Note_on_c, 9, 42, 0
13, 30840, Note_on_c, 9, 38, 127
13, 30840, Note_on_c, 9, 42, 127
13, 30895, Note_on_c, 9, 42, 0
13, 30895, Note_on_c, 9, 38, 0
13, 30900, Note_on_c, 9, 38, 127
13, 30900, Note_on_c, 9, 42, 127
13, 30955, Note_on_c, 9, 42, 0
13, 30955, Note_on_c, 9, 36, 0
13, 30960, Note_on_c, 9, 36, 127
13, 30960, Note_on_c, 9, 42, 127
13, 31015, Note_on_c, 9, 42, 0
13, 31015, Note_on_c, 9, 36, 0
13, 31020, Note_on_c, 9, 36, 127
13, 31020, Note_on_c, 9, 42, 127
13, 31075, Note_on_c, 9, 38, 0
13, 31080, Note_on_c, 9, 42, 0
13, 31080, Note_on_c, 9, 38, 127
13, 31080, Note_on_c, 9, 42, 127
13, 31135, Note_on_c, 9, 42, 0
13, 31140, Note_on_c, 9, 36, 0
13, 31140, Note_on_c, 9, 42, 127
13, 31140, Note_on_c, 9, 36, 127
13, 31190, Note_on_c, 9, 36, 0
13, 31195, Note_on_c, 9, 42, 0
13, 31200, Note_on_c, 9, 36, 127
13, 31200, Note_on_c, 9, 42, 127
13, 31255, Note_on_c, 9, 42, 0
13, 31260, Note_on_c, 9, 42, 127
13, 31315, Note_on_c, 9, 42, 0
13, 31315, Note_on_c, 9, 38, 0
13, 31320, Note_on_c, 9, 38, 127
13, 31320, Note_on_c, 9, 42, 127
13, 31375, Note_on_c, 9, 42, 0
13, 31375, Note_on_c, 9, 38, 0
13, 31380, Note_on_c, 9, 38, 127
13, 31380, Note_on_c, 9, 42, 127
13, 31440, Note_on_c, 9, 42, 0
13, 31440, Note_on_c, 9, 36, 0
13, 31440, Note_on_c, 9, 36, 127
13, 31440, Note_on_c, 9, 42, 127
13, 31495, Note_on_c, 9, 42, 0
13, 31495, Note_on_c, 9, 36, 0
13, 31500, Note_on_c, 9, 36, 127
13, 31500, Note_on_c, 9, 42, 127
13, 31555, Note_on_c, 9, 38, 0
13, 31560, Note_on_c, 9, 42, 0
13, 31560, Note_on_c, 9, 38, 127
13, 31560, Note_on_c, 9, 42, 127
13, 31615, Note_on_c, 9, 42, 0
13, 31620, Note_on_c, 9, 36, 0
13, 31620, Note_on_c, 9, 36, 127
13, 31620, Note_on_c, 9, 42, 127
13, 31675, Note_on_c, 9, 36, 0
13, 31680, Note_on_c, 9, 42, 0
13, 31680, Note_on_c, 9, 36, 127
13, 31680, Note_on_c, 9, 42, 127
13, 31735, Note_on_c, 9, 42, 0
13, 31740, Note_on_c, 9, 42, 127
13, 31795, Note_on_c, 9, 38, 0
13, 31800, Note_on_c, 9, 42, 0
13, 31800, Note_on_c, 9, 38, 127
13, 31800, Note_on_c, 9, 42, 127
13, 31855, Note_on_c, 9, 42, 0
13, 31860, Note_on_c, 9, 42, 127
13, 31915, Note_on_c, 9, 36, 0
13, 31920, Note_on_c, 9, 42, 0
13, 31920, Note_on_c, 9, 36, 127
13, 31920, Note_on_c, 9, 42, 127
13, 31975, Note_on_c, 9, 36, 0
13, 31980, Note_on_c, 9, 42, 0
13, 31980, Note_on_c, 9, 36, 127
13, 31980, Note_on_c, 9, 42, 127
13, 32040, Note_on_c, 9, 42, 0
13, 32040, Note_on_c, 9, 38, 0
13, 32040, Note_on_c, 9, 38, 127
13, 32040, Note_on_c, 9, 42, 127
13, 32090, Note_on_c, 9, 42, 0
13, 32100, Note_on_c, 9, 42, 127
13, 32160, Note_on_c, 9, 42, 0
13, 32160, Note_on_c, 9, 36, 0
13, 32160, Note_on_c, 9, 36, 127
13, 32160, Note_on_c, 9, 42, 127
13, 32215, Note_on_c, 9, 42, 0
13, 32220, Note_on_c, 9, 42, 127
13, 32280, Note_on_c, 9, 42, 0
13, 32280, Note_on_c, 9, 38, 0
13, 32280, Note_on_c, 9, 38, 127
13, 32280, Note_on_c, 9, 42, 127
13, 32335, Note_on_c, 9, 42, 0
13, 32340, Note_on_c, 9, 42, 127
13, 32395, Note_on_c, 9, 36, 0
13, 32400, Note_on_c, 9, 42, 0
13, 32400, Note_on_c, 9, 36, 127
13, 32400, Note_on_c, 9, 42, 127
13, 32455, Note_on_c, 9, 42, 0
13, 32455, Note_on_c, 9, 36, 0
13, 32460, Note_on_c, 9, 42, 127
13, 32460, Note_on_c, 9, 36, 127
13, 32515, Note_on_c, 9, 38, 0
13, 32520, Note_on_c, 9, 42, 0
13, 32520, Note_on_c, 9, 38, 127
13, 32520, Note_on_c, 9, 42, 127
13, 32570, Note_on_c, 9, 36, 0
13, 32575, Note_on_c, 9, 42, 0
13, 32580, Note_on_c, 9, 36, 127
13, 32580, Note_on_c, 9, 42, 127
13, 32635, Note_on_c, 9, 42, 0
13, 32635, Note_on_c, 9, 36, 0
13, 32640, Note_on_c, 9, 36, 127
13, 32640, Note_on_c, 9, 42, 127
13, 32695, Note_on_c, 9, 42, 0
13, 32700, Note_on_c, 9, 42, 127
13, 32755, Note_on_c, 9, 42, 0
13, 32755, Note_on_c, 9, 38, 0
13, 32760, Note_on_c, 9, 38, 127
13, 32760, Note_on_c, 9, 42, 127
13, 32815, Note_on_c, 9, 42, 0
13, 32820, Note_on_c, 9, 42, 127
13, 32875, Note_on_c, 9, 36, 0
13, 32880, Note_on_c, 9, 42, 0
13, 32880, Note_on_c, 9, 36, 127
13, 32880, Note_on_c, 9, 42, 127
13, 32935, Note_on_c, 9, 42, 0
13, 32935, Note_on_c, 9, 36, 0
13, 32940, Note_on_c, 9, 36, 127
13, 32940, Note_on_c, 9, 42, 127
13, 32995, Note_on_c, 9, 42, 0
13, 32995, Note_on_c, 9, 38, 0
13, 33000, Note_on_c, 9, 38, 127
13, 33000, Note_on_c, 9, 42, 127
13, 33055, Note_on_c, 9, 42, 0
13, 33060, Note_on_c, 9, 42, 127
13, 33120, Note_on_c, 9, 42, 0
13, 33120, Note_on_c, 9, 36, 0
13, 33120, Note_on_c, 9, 36, 127
13, 33180, Note_on_c, 9, 38, 0
13, 33180, Note_on_c, 9, 63, 127
13, 33180, Note_on_c, 9, 38, 127
13, 33235, Note_on_c, 9, 38, 0
13, 33240, Note_on_c, 9, 63, 0
13, 33240, Note_on_c, 9, 38, 127
13, 33240, Note_on_c, 9, 63, 127
13, 33295, Note_on_c, 9, 63, 0
13, 33295, Note_on_c, 9, 38, 0
13, 33300, Note_on_c, 9, 38, 127
13, 33300, Note_on_c, 9, 63, 127
13, 33355, Note_on_c, 9, 63, 0
13, 33360, Note_on_c, 9, 38, 0
13, 33360, Note_on_c, 9, 38, 127
13, 33360, Note_on_c, 9, 63, 127
13, 33380, Note_on_c, 9, 36, 0
13, 33415, Note_on_c, 9, 63, 0
13, 33415, Note_on_c, 9, 38, 0
13, 33420, Note_on_c, 9, 38, 127
13, 33420, Note_on_c, 9, 63, 127
13, 33475, Note_on_c, 9, 63, 0
13, 33480, Note_on_c, 9, 38, 0
13, 33480, Note_on_c, 9, 38, 127
13, 33480, Note_on_c, 9, 63, 127
13, 33535, Note_on_c, 9, 63, 0
13, 33535, Note_on_c, 9, 38, 0
13, 33540, Note_on_c, 9, 38, 127
13, 33540, Note_on_c, 9, 63, 127
13, 33595, Note_on_c, 9, 49, 127
13, 33600, Note_on_c, 9, 36, 127
13, 33600, Note_on_c, 9, 42, 127
13, 33655, Note_on_c, 9, 42, 0
13, 33660, Note_on_c, 9, 42, 127
13, 33710, Note_on_c, 9, 38, 0
13, 33720, Note_on_c, 9, 42, 0
13, 33720, Note_on_c, 9, 38, 127
13, 33720, Note_on_c, 9, 42, 127
13, 33775, Note_on_c, 9, 42, 0
13, 33780, Note_on_c, 9, 42, 127
13, 33820, Note_on_c, 9, 63, 0
13, 33835, Note_on_c, 9, 36, 0
13, 33840, Note_on_c, 9, 42, 0
13, 33840, Note_on_c, 9, 36, 127
13, 33840, Note_on_c, 9, 42, 127
13, 33885, Note_on_c, 9, 49, 0
13, 33895, Note_on_c, 9, 42, 0
13, 33895, Note_on_c, 9, 36, 0
13, 33900, Note_on_c, 9, 36, 127
13, 33900, Note_on_c, 9, 42, 127
13, 33960, Note_on_c, 9, 42, 0
13, 33960, Note_on_c, 9, 38, 0
13, 33960, Note_on_c, 9, 38, 127
13, 33960, Note_on_c, 9, 42, 127
13, 34015, Note_on_c, 9, 42, 0
13, 34020, Note_on_c, 9, 42, 127
13, 34075, Note_on_c, 9, 42, 0
13, 34080, Note_on_c, 9, 36, 0
13, 34080, Note_on_c, 9, 36, 127
13, 34080, Note_on_c, 9, 42, 127
13, 34135, Note_on_c, 9, 42, 0
13, 34140, Note_on_c, 9, 42, 127
13, 34195, Note_on_c, 9, 38, 0
13, 34200, Note_on_c, 9, 42, 0
13, 34200, Note_on_c, 9, 38, 127
13, 34200, Note_on_c, 9, 42, 127
13, 34250, Note_on_c, 9, 42, 0
13, 34260, Note_on_c, 9, 42, 127
13, 34310, Note_on_c, 9, 36, 0
13, 34320, Note_on_c, 9, 42, 0
13, 34320, Note_on_c, 9, 36, 127
13, 34320, Note_on_c, 9, 42, 127
13, 34375, Note_on_c, 9, 42, 0
13, 34375, Note_on_c, 9, 36, 0
13, 34380, Note_on_c, 9, 36, 127
13, 34380, Note_on_c, 9, 42, 127
13, 34435, Note_on_c, 9, 38, 0
13, 34440, Note_on_c, 9, 42, 0
13, 34440, Note_on_c, 9, 38, 127
13, 34440, Note_on_c, 9, 42, 127
13, 34495, Note_on_c, 9, 42, 0
13, 34495, Note_on_c, 9, 36, 0
13, 34500, Note_on_c, 9, 36, 127
13, 34500, Note_on_c, 9, 42, 127
13, 34555, Note_on_c, 9, 42, 0
13, 34555, Note_on_c, 9, 36, 0
13, 34560, Note_on_c, 9, 36, 127
13, 34560, Note_on_c, 9, 42, 127
13, 34615, Note_on_c, 9, 42, 0
13, 34620, Note_on_c, 9, 42, 127
13, 34675, Note_on_c, 9, 42, 0
13, 34675, Note_on_c, 9, 38, 0
13, 34680, Note_on_c, 9, 38, 127
13, 34680, Note_on_c, 9, 42, 127
13, 34735, Note_on_c, 9, 42, 0
13, 34740, Note_on_c, 9, 42, 127
13, 34795, Note_on_c, 9, 36, 0
13, 34800, Note_on_c, 9, 42, 0
13, 34800, Note_on_c, 9, 36, 127
13, 34800, Note_on_c, 9, 42, 127
13, 34855, Note_on_c, 9, 42, 0
13, 34855, Note_on_c, 9, 36, 0
13, 34860, Note_on_c, 9, 36, 127
13, 34860, Note_on_c, 9, 42, 127
13, 34915, Note_on_c, 9, 38, 0
13, 34920, Note_on_c, 9, 42, 0
13, 34920, Note_on_c, 9, 38, 127
13, 34920, Note_on_c, 9, 42, 127
13, 34975, Note_on_c, 9, 42, 0
13, 34980, Note_on_c, 9, 42, 127
13, 35035, Note_on_c, 9, 42, 0
13, 35040, Note_on_c, 9, 36, 0
13, 35040, Note_on_c, 9, 36, 127
13, 35040, Note_on_c, 9, 42, 127
13, 35095, Note_on_c, 9, 42, 0
13, 35100, Note_on_c, 9, 42, 127
13, 35155, Note_on_c, 9, 38, 0
13, 35160, Note_on_c, 9, 42, 0
13, 35160, Note_on_c, 9, 38, 127
13, 35160, Note_on_c, 9, 42, 127
13, 35215, Note_on_c, 9, 42, 0
13, 35220, Note_on_c, 9, 42, 127
13, 35275, Note_on_c, 9, 42, 0
13, 35275, Note_on_c, 9, 36, 0
13, 35280, Note_on_c, 9, 36, 127
13, 35280, Note_on_c, 9, 42, 127
13, 35335, Note_on_c, 9, 42, 0
13, 35335, Note_on_c, 9, 36, 0
13, 35340, Note_on_c, 9, 36, 127
13, 35340, Note_on_c, 9, 42, 127
13, 35395, Note_on_c, 9, 38, 0
13, 35400, Note_on_c, 9, 42, 0
13, 35400, Note_on_c, 9, 38, 127
13, 35400, Note_on_c, 9, 42, 127
13, 35455, Note_on_c, 9, 42, 0
13, 35460, Note_on_c, 9, 36, 0
13, 35460, Note_on_c, 9, 36, 127
13, 35460, Note_on_c, 9, 42, 127
13, 35515, Note_on_c, 9, 42, 0
13, 35515, Note_on_c, 9, 36, 0
13, 35520, Note_on_c, 9, 36, 127
13, 35520, Note_on_c, 9, 42, 127
13, 35570, Note_on_c, 9, 42, 0
13, 35580, Note_on_c, 9, 42, 127
13, 35635, Note_on_c, 9, 42, 0
13, 35635, Note_on_c, 9, 38, 0
13, 35640, Note_on_c, 9, 38, 127
13, 35640, Note_on_c, 9, 42, 127
13, 35695, Note_on_c, 9, 42, 0
13, 35700, Note_on_c, 9, 42, 127
13, 35755, Note_on_c, 9, 36, 0
13, 35760, Note_on_c, 9, 42, 0
13, 35760, Note_on_c, 9, 36, 127
13, 35760, Note_on_c, 9, 42, 127
13, 35810, Note_on_c, 9, 36, 0
13, 35815, Note_on_c, 9, 42, 0
13, 35820, Note_on_c, 9, 36, 127
13, 35820, Note_on_c, 9, 42, 127
13, 35875, Note_on_c, 9, 42, 0
13, 35875, Note_on_c, 9, 38, 0
13, 35880, Note_on_c, 9, 38, 127
13, 35880, Note_on_c, 9, 42, 127
13, 35935, Note_on_c, 9, 42, 0
13, 35940, Note_on_c, 9, 42, 127
13, 36000, Note_on_c, 9, 42, 0
13, 36000, Note_on_c, 9, 36, 0
13, 36000, Note_on_c, 9, 36, 127
13, 36000, Note_on_c, 9, 42, 127
13, 36055, Note_on_c, 9, 42, 0
13, 36060, Note_on_c, 9, 42, 127
13, 36120, Note_on_c, 9, 42, 0
13, 36120, Note_on_c, 9, 38, 0
13, 36120, Note_on_c, 9, 38, 127
13, 36120, Note_on_c, 9, 42, 127
13, 36175, Note_on_c, 9, 42, 0
13, 36180, Note_on_c, 9, 42, 127
13, 36235, Note_on_c, 9, 36, 0
13, 36240, Note_on_c, 9, 42, 0
13, 36240, Note_on_c, 9, 36, 127
13, 36240, Note_on_c, 9, 42, 127
13, 36295, Note_on_c, 9, 42, 0
13, 36295, Note_on_c, 9, 36, 0
13, 36300, Note_on_c, 9, 36, 127
13, 36300, Note_on_c, 9, 42, 127
13, 36355, Note_on_c, 9, 42, 0
13, 36355, Note_on_c, 9, 38, 0
13, 36360, Note_on_c, 9, 38, 127
13, 36360, Note_on_c, 9, 42, 127
13, 36415, Note_on_c, 9, 42, 0
13, 36420, Note_on_c, 9, 36, 0
13, 36420, Note_on_c, 9, 36, 127
13, 36420, Note_on_c, 9, 42, 127
13, 36475, Note_on_c, 9, 42, 0
13, 36475, Note_on_c, 9, 36, 0
13, 36480, Note_on_c, 9, 36, 127
13, 36480, Note_on_c, 9, 42, 127
13, 36535, Note_on_c, 9, 42, 0
13, 36540, Note_on_c, 9, 42, 127
13, 36595, Note_on_c, 9, 38, 0
13, 36600, Note_on_c, 9, 42, 0
13, 36600, Note_on_c, 9, 38, 127
13, 36600, Note_on_c, 9, 42, 127
13, 36655, Note_on_c, 9, 42, 0
13, 36660, Note_on_c, 9, 42, 127
13, 36715, Note_on_c, 9, 36, 0
13, 36720, Note_on_c, 9, 42, 0
13, 36720, Note_on_c, 9, 36, 127
13, 36720, Note_on_c, 9, 42, 127
13, 36775, Note_on_c, 9, 42, 0
13, 36775, Note_on_c, 9, 36, 0
13, 36780, Note_on_c, 9, 36, 127
13, 36780, Note_on_c, 9, 42, 127
13, 36835, Note_on_c, 9, 42, 0
13, 36835, Note_on_c, 9, 38, 0
13, 36840, Note_on_c, 9, 38, 127
13, 36840, Note_on_c, 9, 42, 127
13, 36895, Note_on_c, 9, 42, 0
13, 36900, Note_on_c, 9, 42, 127
13, 36960, Note_on_c, 9, 42, 0
13, 36960, Note_on_c, 9, 36, 0
13, 36960, Note_on_c, 9, 36, 127
13, 36960, Note_on_c, 9, 42, 127
13, 37015, Note_on_c, 9, 42, 0
13, 37020, Note_on_c, 9, 42, 127
13, 37075, Note_on_c, 9, 42, 0
13, 37075, Note_on_c, 9, 38, 0
13, 37080, Note_on_c, 9, 38, 127
13, 37080, Note_on_c, 9, 42, 127
13, 37135, Note_on_c, 9, 42, 0
13, 37140, Note_on_c, 9, 42, 127
13, 37195, Note_on_c, 9, 42, 0
13, 37195, Note_on_c, 9, 36, 0
13, 37200, Note_on_c, 9, 36, 127
13, 37200, Note_on_c, 9, 42, 127
13, 37255, Note_on_c, 9, 42, 0
13, 37255, Note_on_c, 9, 36, 0
13, 37260, Note_on_c, 9, 36, 127
13, 37260, Note_on_c, 9, 42, 127
13, 37315, Note_on_c, 9, 42, 0
13, 37315, Note_on_c, 9, 38, 0
13, 37320, Note_on_c, 9, 38, 127
13, 37320, Note_on_c, 9, 42, 127
13, 37375, Note_on_c, 9, 42, 0
13, 37375, Note_on_c, 9, 36, 0
13, 37380, Note_on_c, 9, 36, 127
13, 37380, Note_on_c, 9, 42, 127
13, 37435, Note_on_c, 9, 42, 0
13, 37435, Note_on_c, 9, 36, 0
13, 37440, Note_on_c, 9, 36, 127
13, 37440, Note_on_c, 9, 42, 127
13, 37495, Note_on_c, 9, 42, 0
13, 37500, Note_on_c, 9, 42, 127
13, 37555, Note_on_c, 9, 42, 0
13, 37555, Note_on_c, 9, 38, 0
13, 37560, Note_on_c, 9, 38, 127
13, 37560, Note_on_c, 9, 42, 127
13, 37615, Note_on_c, 9, 42, 0
13, 37620, Note_on_c, 9, 42, 127
13, 37675, Note_on_c, 9, 36, 0
13, 37680, Note_on_c, 9, 42, 0
13, 37680, Note_on_c, 9, 36, 127
13, 37680, Note_on_c, 9, 42, 127
13, 37735, Note_on_c, 9, 42, 0
13, 37735, Note_on_c, 9, 36, 0
13, 37740, Note_on_c, 9, 36, 127
13, 37740, Note_on_c, 9, 42, 127
13, 37795, Note_on_c, 9, 42, 0
13, 37800, Note_on_c, 9, 38, 0
13, 37800, Note_on_c, 9, 38, 127
13, 37800, Note_on_c, 9, 42, 127
13, 37855, Note_on_c, 9, 42, 0
13, 37860, Note_on_c, 9, 42, 127
13, 37915, Note_on_c, 9, 42, 0
13, 37920, Note_on_c, 9, 36, 0
13, 37920, Note_on_c, 9, 42, 127
13, 37920, Note_on_c, 9, 36, 127
13, 37975, Note_on_c, 9, 42, 0
13, 37980, Note_on_c, 9, 42, 127
13, 38035, Note_on_c, 9, 42, 0
13, 38040, Note_on_c, 9, 38, 0
13, 38040, Note_on_c, 9, 38, 127
13, 38040, Note_on_c, 9, 42, 127
13, 38095, Note_on_c, 9, 42, 0
13, 38100, Note_on_c, 9, 42, 127
13, 38155, Note_on_c, 9, 36, 0
13, 38160, Note_on_c, 9, 42, 0
13, 38160, Note_on_c, 9, 36, 127
13, 38160, Note_on_c, 9, 42, 127
13, 38215, Note_on_c, 9, 42, 0
13, 38215, Note_on_c, 9, 36, 0
13, 38220, Note_on_c, 9, 36, 127
13, 38220, Note_on_c, 9, 42, 127
13, 38275, Note_on_c, 9, 42, 0
13, 38280, Note_on_c, 9, 38, 0
13, 38280, Note_on_c, 9, 38, 127
13, 38280, Note_on_c, 9, 42, 127
13, 38335, Note_on_c, 9, 42, 0
13, 38340, Note_on_c, 9, 36, 0
13, 38340, Note_on_c, 9, 36, 127
13, 38340, Note_on_c, 9, 42, 127
13, 38395, Note_on_c, 9, 42, 0
13, 38395, Note_on_c, 9, 36, 0
13, 38400, Note_on_c, 9, 36, 127
13, 38400, Note_on_c, 9, 42, 127
13, 38455, Note_on_c, 9, 42, 0
13, 38460, Note_on_c, 9, 42, 127
13, 38515, Note_on_c, 9, 42, 0
13, 38515, Note_on_c, 9, 38, 0
13, 38520, Note_on_c, 9, 38, 127
13, 38520, Note_on_c, 9, 42, 127
13, 38575, Note_on_c, 9, 42, 0
13, 38580, Note_on_c, 9, 42, 127
13, 38635, Note_on_c, 9, 42, 0
13, 38635, Note_on_c, 9, 36, 0
13, 38640, Note_on_c, 9, 42, 127
13, 38640, Note_on_c, 9, 36, 127
13, 38695, Note_on_c, 9, 36, 0
13, 38695, Note_on_c, 9, 42, 0
13, 38700, Note_on_c, 9, 42, 127
13, 38700, Note_on_c, 9, 36, 127
13, 38760, Note_on_c, 9, 42, 0
13, 38760, Note_on_c, 9, 38, 0
13, 38760, Note_on_c, 9, 38, 127
13, 38760, Note_on_c, 9, 42, 127
13, 38820, Note_on_c, 9, 42, 0
13, 38820, Note_on_c, 9, 42, 127
13, 38880, Note_on_c, 9, 42, 0
13, 38880, Note_on_c, 9, 36, 0
13, 38880, Note_on_c, 9, 36, 127
13, 38940, Note_on_c, 9, 38, 0
13, 38940, Note_on_c, 9, 38, 127
13, 38940, Note_on_c, 9, 63, 127
13, 39000, Note_on_c, 9, 63, 0
13, 39000, Note_on_c, 9, 38, 0
13, 39000, Note_on_c, 9, 63, 127
13, 39000, Note_on_c, 9, 38, 127
13, 39055, Note_on_c, 9, 38, 0
13, 39055, Note_on_c, 9, 63, 0
13, 39060, Note_on_c, 9, 63, 127
13, 39060, Note_on_c, 9, 38, 127
13, 39120, Note_on_c, 9, 38, 0
13, 39120, Note_on_c, 9, 63, 0
13, 39120, Note_on_c, 9, 63, 127
13, 39120, Note_on_c, 9, 38, 127
13, 39140, Note_on_c, 9, 36, 0
13, 39180, Note_on_c, 9, 45, 127
13, 39210, Note_on_c, 9, 45, 0
13, 39210, Note_on_c, 9, 45, 127
13, 39240, Note_on_c, 9, 41, 127
13, 39300, Note_on_c, 9, 63, 0
13, 39300, Note_on_c, 9, 63, 127
13, 39360, Note_on_c, 9, 36, 127
13, 39360, Note_on_c, 9, 42, 127
13, 39360, Note_on_c, 9, 49, 127
13, 39390, Note_on_c, 9, 38, 0
13, 39410, Note_on_c, 9, 42, 0
13, 39420, Note_on_c, 9, 42, 127
13, 39480, Note_on_c, 9, 42, 0
13, 39480, Note_on_c, 9, 38, 127
13, 39480, Note_on_c, 9, 42, 127
13, 39490, Note_on_c, 9, 45, 0
13, 39525, Note_on_c, 9, 41, 0
13, 39535, Note_on_c, 9, 42, 0
13, 39540, Note_on_c, 9, 42, 127
13, 39585, Note_on_c, 9, 63, 0
13, 39600, Note_on_c, 9, 36, 0
13, 39600, Note_on_c, 9, 42, 0
13, 39600, Note_on_c, 9, 36, 127
13, 39600, Note_on_c, 9, 42, 127
13, 39600, Note_on_c, 9, 42, 127
13, 39650, Note_on_c, 9, 49, 0
13, 39655, Note_on_c, 9, 42, 0
13, 39655, Note_on_c, 9, 36, 0
13, 39660, Note_on_c, 9, 36, 127
13, 39660, Note_on_c, 9, 42, 127
13, 39715, Note_on_c, 9, 42, 0
13, 39720, Note_on_c, 9, 38, 0
13, 39720, Note_on_c, 9, 38, 127
13, 39720, Note_on_c, 9, 42, 127
13, 39775, Note_on_c, 9, 42, 0
13, 39780, Note_on_c, 9, 42, 127
13, 39840, Note_on_c, 9, 42, 0
13, 39840, Note_on_c, 9, 36, 0
13, 39840, Note_on_c, 9, 36, 127
13, 39840, Note_on_c, 9, 42, 127
13, 39895, Note_on_c, 9, 42, 0
13, 39900, Note_on_c, 9, 42, 127
13, 39955, Note_on_c, 9, 38, 0
13, 39960, Note_on_c, 9, 42, 0
13, 39960, Note_on_c, 9, 38, 127
13, 39960, Note_on_c, 9, 42, 127
13, 40015, Note_on_c, 9, 42, 0
13, 40020, Note_on_c, 9, 42, 127
13, 40075, Note_on_c, 9, 36, 0
13, 40080, Note_on_c, 9, 42, 0
13, 40080, Note_on_c, 9, 36, 127
13, 40080, Note_on_c, 9, 42, 127
13, 40135, Note_on_c, 9, 42, 0
13, 40135, Note_on_c, 9, 36, 0
13, 40140, Note_on_c, 9, 36, 127
13, 40140, Note_on_c, 9, 42, 127
13, 40195, Note_on_c, 9, 42, 0
13, 40195, Note_on_c, 9, 38, 0
13, 40200, Note_on_c, 9, 38, 127
13, 40200, Note_on_c, 9, 42, 127
13, 40255, Note_on_c, 9, 42, 0
13, 40255, Note_on_c, 9, 36, 0
13, 40260, Note_on_c, 9, 36, 127
13, 40260, Note_on_c, 9, 42, 127
13, 40315, Note_on_c, 9, 42, 0
13, 40315, Note_on_c, 9, 36, 0
13, 40320, Note_on_c, 9, 36, 127
13, 40320, Note_on_c, 9, 42, 127
13, 40375, Note_on_c, 9, 42, 0
13, 40380, Note_on_c, 9, 42, 127
13, 40435, Note_on_c, 9, 38, 0
13, 40440, Note_on_c, 9, 42, 0
13, 40440, Note_on_c, 9, 38, 127
13, 40440, Note_on_c, 9, 42, 127
13, 40495, Note_on_c, 9, 42, 0
13, 40500, Note_on_c, 9, 42, 127
13, 40555, Note_on_c, 9, 36, 0
13, 40560, Note_on_c, 9, 42, 0
13, 40560, Note_on_c, 9, 36, 127
13, 40560, Note_on_c, 9, 42, 127
13, 40615, Note_on_c, 9, 42, 0
13, 40620, Note_on_c, 9, 36, 0
13, 40620, Note_on_c, 9, 42, 127
13, 40620, Note_on_c, 9, 36, 127
13, 40675, Note_on_c, 9, 38, 0
13, 40680, Note_on_c, 9, 38, 127
13, 40735, Note_on_c, 9, 42, 0
13, 40740, Note_on_c, 9, 42, 127
13, 40800, Note_on_c, 9, 42, 0
13, 40800, Note_on_c, 9, 36, 0
13, 40800, Note_on_c, 9, 36, 127
13, 40800, Note_on_c, 9, 42, 127
13, 40855, Note_on_c, 9, 42, 0
13, 40860, Note_on_c, 9, 42, 127
13, 40920, Note_on_c, 9, 42, 0
13, 40920, Note_on_c, 9, 38, 0
13, 40920, Note_on_c, 9, 38, 127
13, 40920, Note_on_c, 9, 42, 127
13, 40975, Note_on_c, 9, 42, 0
13, 40980, Note_on_c, 9, 42, 127
13, 41035, Note_on_c, 9, 36, 0
13, 41040, Note_on_c, 9, 42, 0
13, 41040, Note_on_c, 9, 36, 65
13, 41040, Note_on_c, 9, 36, 127
13, 41040, Note_on_c, 9, 42, 127
13, 41095, Note_on_c, 9, 42, 0
13, 41095, Note_on_c, 9, 36, 0
13, 41100, Note_on_c, 9, 36, 127
13, 41100, Note_on_c, 9, 42, 127
13, 41155, Note_on_c, 9, 42, 0
13, 41155, Note_on_c, 9, 38, 0
13, 41160, Note_on_c, 9, 38, 127
13, 41160, Note_on_c, 9, 42, 127
13, 41215, Note_on_c, 9, 42, 0
13, 41215, Note_on_c, 9, 36, 0
13, 41220, Note_on_c, 9, 36, 127
13, 41220, Note_on_c, 9, 42, 127
13, 41275, Note_on_c, 9, 42, 0
13, 41275, Note_on_c, 9, 36, 0
13, 41280, Note_on_c, 9, 36, 127
13, 41280, Note_on_c, 9, 42, 127
13, 41335, Note_on_c, 9, 42, 0
13, 41340, Note_on_c, 9, 42, 127
13, 41395, Note_on_c, 9, 42, 0
13, 41395, Note_on_c, 9, 38, 0
13, 41400, Note_on_c, 9, 38, 127
13, 41400, Note_on_c, 9, 42, 127
13, 41455, Note_on_c, 9, 42, 0
13, 41460, Note_on_c, 9, 42, 127
13, 41515, Note_on_c, 9, 36, 0
13, 41520, Note_on_c, 9, 42, 0
13, 41520, Note_on_c, 9, 36, 127
13, 41520, Note_on_c, 9, 42, 127
13, 41575, Note_on_c, 9, 42, 0
13, 41580, Note_on_c, 9, 36, 0
13, 41580, Note_on_c, 9, 42, 127
13, 41580, Note_on_c, 9, 36, 127
13, 41635, Note_on_c, 9, 38, 0
13, 41640, Note_on_c, 9, 42, 0
13, 41640, Note_on_c, 9, 38, 127
13, 41640, Note_on_c, 9, 42, 127
13, 41695, Note_on_c, 9, 42, 0
13, 41700, Note_on_c, 9, 42, 127
13, 41755, Note_on_c, 9, 42, 0
13, 41760, Note_on_c, 9, 36, 0
13, 41760, Note_on_c, 9, 36, 0
13, 41760, Note_on_c, 9, 36, 101
13, 41760, Note_on_c, 9, 36, 127
13, 41760, Note_on_c, 9, 42, 127
13, 41815, Note_on_c, 9, 42, 0
13, 41820, Note_on_c, 9, 42, 127
13, 41870, Note_on_c, 9, 38, 0
13, 41880, Note_on_c, 9, 42, 0
13, 41880, Note_on_c, 9, 38, 127
13, 41880, Note_on_c, 9, 42, 127
13, 41930, Note_on_c, 9, 42, 0
13, 41940, Note_on_c, 9, 42, 127
13, 42000, Note_on_c, 9, 42, 0
13, 42000, Note_on_c, 9, 36, 0
13, 42000, Note_on_c, 9, 36, 127
13, 42000, Note_on_c, 9, 42, 127
13, 42055, Note_on_c, 9, 42, 0
13, 42055, Note_on_c, 9, 36, 0
13, 42060, Note_on_c, 9, 42, 0
13, 42060, Note_on_c, 9, 36, 127
13, 42060, Note_on_c, 9, 42, 127
13, 42115, Note_on_c, 9, 38, 0
13, 42120, Note_on_c, 9, 38, 127
13, 42120, Note_on_c, 9, 38, 127
13, 42175, Note_on_c, 9, 38, 0
13, 42180, Note_on_c, 9, 38, 127
13, 42205, Note_on_c, 9, 38, 0
13, 42210, Note_on_c, 9, 38, 127
13, 42235, Note_on_c, 9, 38, 0
13, 42240, Note_on_c, 9, 36, 0
13, 42240, Note_on_c, 9, 38, 0
13, 42240, Note_on_c, 9, 36, 0
13, 42240, Note_on_c, 9, 38, 127
13, 42240, Note_on_c, 9, 36, 127
13, 42315, Note_on_c, 9, 42, 0
13, 42520, Note_on_c, 9, 36, 0
13, 42525, Note_on_c, 9, 38, 0
13, 42720, Note_on_c, 9, 42, 127
13, 42780, Note_on_c, 9, 63, 127
13, 42780, Note_on_c, 9, 38, 127
13, 42835, Note_on_c, 9, 38, 0
13, 42840, Note_on_c, 9, 63, 0
13, 42840, Note_on_c, 9, 38, 127
13, 42840, Note_on_c, 9, 63, 127
13, 42895, Note_on_c, 9, 63, 0
13, 42895, Note_on_c, 9, 38, 0
13, 42900, Note_on_c, 9, 38, 127
13, 42900, Note_on_c, 9, 63, 127
13, 42955, Note_on_c, 9, 63, 0
13, 42955, Note_on_c, 9, 38, 0
13, 42960, Note_on_c, 9, 38, 127
13, 42960, Note_on_c, 9, 63, 127
13, 42965, Note_on_c, 9, 42, 0
13, 43015, Note_on_c, 9, 63, 0
13, 43015, Note_on_c, 9, 38, 0
13, 43020, Note_on_c, 9, 38, 127
13, 43020, Note_on_c, 9, 63, 127
13, 43075, Note_on_c, 9, 63, 0
13, 43075, Note_on_c, 9, 38, 0
13, 43080, Note_on_c, 9, 38, 127
13, 43080, Note_on_c, 9, 63, 127
13, 43135, Note_on_c, 9, 63, 0
13, 43135, Note_on_c, 9, 38, 0
13, 43140, Note_on_c, 9, 38, 127
13, 43140, Note_on_c, 9, 63, 127
13, 43195, Note_on_c, 9, 63, 0
13, 43195, Note_on_c, 9, 38, 0
13, 43200, Note_on_c, 9, 38, 127
13, 43200, Note_on_c, 9, 63, 127
13, 43475, Note_on_c, 9, 38, 0
13, 43485, Note_on_c, 9, 63, 0
13, 43500, Note_on_c, 9, 45, 127
13, 43560, Note_on_c, 9, 41, 127
13, 43620, Note_on_c, 9, 63, 127
13, 43680, Note_on_c, 9, 36, 127
13, 43680, Note_on_c, 9, 42, 127
13, 43680, Note_on_c, 9, 49, 127
13, 43740, Note_on_c, 9, 42, 0
13, 43740, Note_on_c, 9, 42, 127
13, 43785, Note_on_c, 9, 45, 0
13, 43790, Note_on_c, 9, 42, 0
13, 43800, Note_on_c, 9, 38, 127
13, 43800, Note_on_c, 9, 42, 127
13, 43840, Note_on_c, 9, 41, 0
13, 43855, Note_on_c, 9, 38, 0
13, 43860, Note_on_c, 9, 38, 127
13, 43900, Note_on_c, 9, 63, 0
13, 43915, Note_on_c, 9, 36, 0
13, 43920, Note_on_c, 9, 42, 0
13, 43920, Note_on_c, 9, 36, 127
13, 43920, Note_on_c, 9, 42, 127
13, 43965, Note_on_c, 9, 49, 0
13, 43975, Note_on_c, 9, 42, 0
13, 43975, Note_on_c, 9, 36, 0
13, 43980, Note_on_c, 9, 36, 127
13, 43980, Note_on_c, 9, 42, 127
13, 44030, Note_on_c, 9, 38, 0
13, 44035, Note_on_c, 9, 42, 0
13, 44040, Note_on_c, 9, 38, 127
13, 44040, Note_on_c, 9, 42, 127
13, 44095, Note_on_c, 9, 42, 0
13, 44095, Note_on_c, 9, 36, 0
13, 44100, Note_on_c, 9, 36, 127
13, 44100, Note_on_c, 9, 42, 127
13, 44155, Note_on_c, 9, 42, 0
13, 44155, Note_on_c, 9, 36, 0
13, 44160, Note_on_c, 9, 36, 127
13, 44160, Note_on_c, 9, 42, 127
13, 44215, Note_on_c, 9, 42, 0
13, 44220, Note_on_c, 9, 42, 127
13, 44280, Note_on_c, 9, 42, 0
13, 44280, Note_on_c, 9, 38, 0
13, 44280, Note_on_c, 9, 38, 127
13, 44280, Note_on_c, 9, 42, 127
13, 44335, Note_on_c, 9, 42, 0
13, 44335, Note_on_c, 9, 38, 0
13, 44340, Note_on_c, 9, 38, 127
13, 44340, Note_on_c, 9, 42, 127
13, 44395, Note_on_c, 9, 36, 0
13, 44400, Note_on_c, 9, 42, 0
13, 44400, Note_on_c, 9, 36, 127
13, 44400, Note_on_c, 9, 42, 127
13, 44450, Note_on_c, 9, 36, 0
13, 44455, Note_on_c, 9, 42, 0
13, 44460, Note_on_c, 9, 36, 127
13, 44460, Note_on_c, 9, 42, 127
13, 44515, Note_on_c, 9, 42, 0
13, 44515, Note_on_c, 9, 38, 0
13, 44520, Note_on_c, 9, 38, 127
13, 44520, Note_on_c, 9, 42, 127
13, 44575, Note_on_c, 9, 42, 0
13, 44580, Note_on_c, 9, 36, 0
13, 44580, Note_on_c, 9, 36, 127
13, 44580, Note_on_c, 9, 42, 127
13, 44635, Note_on_c, 9, 42, 0
13, 44635, Note_on_c, 9, 36, 0
13, 44640, Note_on_c, 9, 36, 127
13, 44640, Note_on_c, 9, 42, 127
13, 44695, Note_on_c, 9, 42, 0
13, 44700, Note_on_c, 9, 42, 127
13, 44760, Note_on_c, 9, 42, 0
13, 44760, Note_on_c, 9, 38, 0
13, 44760, Note_on_c, 9, 38, 127
13, 44760, Note_on_c, 9, 42, 127
13, 44815, Note_on_c, 9, 42, 0
13, 44815, Note_on_c, 9, 38, 0
13, 44820, Note_on_c, 9, 38, 127
13, 44820, Note_on_c, 9, 42, 127
13, 44875, Note_on_c, 9, 36, 0
13, 44880, Note_on_c, 9, 42, 0
13, 44880, Note_on_c, 9, 36, 127
13, 44880, Note_on_c, 9, 42, 127
13, 44935, Note_on_c, 9, 42, 0
13, 44935, Note_on_c, 9, 36, 0
13, 44940, Note_on_c, 9, 36, 127
13, 44940, Note_on_c, 9, 42, 127
13, 44995, Note_on_c, 9, 38, 0
13, 45000, Note_on_c, 9, 42, 0
13, 45000, Note_on_c, 9, 38, 127
13, 45000, Note_on_c, 9, 42, 127
13, 45055, Note_on_c, 9, 42, 0
13, 45060, Note_on_c, 9, 36, 0
13, 45060, Note_on_c, 9, 36, 127
13, 45060, Note_on_c, 9, 42, 127
13, 45115, Note_on_c, 9, 42, 0
13, 45115, Note_on_c, 9, 36, 0
13, 45120, Note_on_c, 9, 36, 127
13, 45120, Note_on_c, 9, 42, 127
13, 45175, Note_on_c, 9, 42, 0
13, 45180, Note_on_c, 9, 42, 127
13, 45235, Note_on_c, 9, 38, 0
13, 45240, Note_on_c, 9, 42, 0
13, 45240, Note_on_c, 9, 38, 127
13, 45240, Note_on_c, 9, 42, 127
13, 45295, Note_on_c, 9, 42, 0
13, 45295, Note_on_c, 9, 38, 0
13, 45300, Note_on_c, 9, 38, 127
13, 45300, Note_on_c, 9, 42, 127
13, 45360, Note_on_c, 9, 42, 0
13, 45360, Note_on_c, 9, 36, 0
13, 45360, Note_on_c, 9, 36, 127
13, 45360, Note_on_c, 9, 42, 127
13, 45415, Note_on_c, 9, 42, 0
13, 45415, Note_on_c, 9, 36, 0
13, 45420, Note_on_c, 9, 36, 127
13, 45420, Note_on_c, 9, 42, 127
13, 45475, Note_on_c, 9, 42, 0
13, 45475, Note_on_c, 9, 38, 0
13, 45480, Note_on_c, 9, 38, 127
13, 45480, Note_on_c, 9, 42, 127
13, 45535, Note_on_c, 9, 42, 0
13, 45540, Note_on_c, 9, 36, 0
13, 45540, Note_on_c, 9, 36, 127
13, 45540, Note_on_c, 9, 42, 127
13, 45595, Note_on_c, 9, 42, 0
13, 45595, Note_on_c, 9, 36, 0
13, 45600, Note_on_c, 9, 36, 127
13, 45600, Note_on_c, 9, 42, 127
13, 45655, Note_on_c, 9, 42, 0
13, 45660, Note_on_c, 9, 42, 127
13, 45715, Note_on_c, 9, 42, 0
13, 45715, Note_on_c, 9, 38, 0
13, 45720, Note_on_c, 9, 38, 127
13, 45720, Note_on_c, 9, 42, 127
13, 45775, Note_on_c, 9, 42, 0
13, 45775, Note_on_c, 9, 38, 0
13, 45780, Note_on_c, 9, 38, 127
13, 45780, Note_on_c, 9, 42, 127
13, 45840, Note_on_c, 9, 42, 0
13, 45840, Note_on_c, 9, 36, 0
13, 45840, Note_on_c, 9, 36, 127
13, 45840, Note_on_c, 9, 42, 127
13, 45890, Note_on_c, 9, 36, 0
13, 45895, Note_on_c, 9, 42, 0
13, 45900, Note_on_c, 9, 36, 127
13, 45900, Note_on_c, 9, 42, 127
13, 45955, Note_on_c, 9, 38, 0
13, 45960, Note_on_c, 9, 42, 0
13, 45960, Note_on_c, 9, 38, 127
13, 45960, Note_on_c, 9, 42, 127
13, 46015, Note_on_c, 9, 42, 0
13, 46020, Note_on_c, 9, 36, 0
13, 46020, Note_on_c, 9, 36, 127
13, 46020, Note_on_c, 9, 42, 127
13, 46075, Note_on_c, 9, 42, 0
13, 46075, Note_on_c, 9, 36, 0
13, 46080, Note_on_c, 9, 36, 127
13, 46080, Note_on_c, 9, 42, 127
13, 46135, Note_on_c, 9, 42, 0
13, 46140, Note_on_c, 9, 42, 127
13, 46195, Note_on_c, 9, 42, 0
13, 46200, Note_on_c, 9, 38, 0
13, 46200, Note_on_c, 9, 42, 127
13, 46200, Note_on_c, 9, 38, 127
13, 46255, Note_on_c, 9, 38, 0
13, 46255, Note_on_c, 9, 42, 0
13, 46260, Note_on_c, 9, 38, 127
13, 46260, Note_on_c, 9, 42, 127
13, 46320, Note_on_c, 9, 42, 0
13, 46320, Note_on_c, 9, 36, 0
13, 46320, Note_on_c, 9, 36, 127
13, 46320, Note_on_c, 9, 42, 127
13, 46370, Note_on_c, 9, 36, 0
13, 46375, Note_on_c, 9, 42, 0
13, 46380, Note_on_c, 9, 36, 127
13, 46380, Note_on_c, 9, 42, 127
13, 46435, Note_on_c, 9, 42, 0
13, 46435, Note_on_c, 9, 38, 0
13, 46440, Note_on_c, 9, 38, 127
13, 46440, Note_on_c, 9, 42, 127
13, 46495, Note_on_c, 9, 42, 0
13, 46500, Note_on_c, 9, 36, 0
13, 46500, Note_on_c, 9, 36, 127
13, 46500, Note_on_c, 9, 42, 127
13, 46555, Note_on_c, 9, 42, 0
13, 46555, Note_on_c, 9, 36, 0
13, 46560, Note_on_c, 9, 36, 127
13, 46560, Note_on_c, 9, 42, 127
13, 46610, Note_on_c, 9, 42, 0
13, 46620, Note_on_c, 9, 42, 127
13, 46670, Note_on_c, 9, 38, 0
13, 46675, Note_on_c, 9, 42, 0
13, 46680, Note_on_c, 9, 38, 127
13, 46680, Note_on_c, 9, 42, 127
13, 46735, Note_on_c, 9, 42, 0
13, 46735, Note_on_c, 9, 38, 0
13, 46740, Note_on_c, 9, 38, 127
13, 46740, Note_on_c, 9, 42, 127
13, 46795, Note_on_c, 9, 42, 0
13, 46795, Note_on_c, 9, 36, 0
13, 46800, Note_on_c, 9, 36, 127
13, 46800, Note_on_c, 9, 42, 127
13, 46855, Note_on_c, 9, 42, 0
13, 46855, Note_on_c, 9, 36, 0
13, 46860, Note_on_c, 9, 36, 127
13, 46860, Note_on_c, 9, 42, 127
13, 46915, Note_on_c, 9, 38, 0
13, 46920, Note_on_c, 9, 42, 0
13, 46920, Note_on_c, 9, 38, 127
13, 46920, Note_on_c, 9, 42, 127
13, 46975, Note_on_c, 9, 42, 0
13, 46980, Note_on_c, 9, 36, 0
13, 46980, Note_on_c, 9, 42, 127
13, 46980, Note_on_c, 9, 36, 127
13, 47030, Note_on_c, 9, 36, 0
13, 47035, Note_on_c, 9, 42, 0
13, 47040, Note_on_c, 9, 36, 127
13, 47040, Note_on_c, 9, 42, 127
13, 47095, Note_on_c, 9, 42, 0
13, 47100, Note_on_c, 9, 42, 127
13, 47155, Note_on_c, 9, 42, 0
13, 47155, Note_on_c, 9, 38, 0
13, 47160, Note_on_c, 9, 38, 127
13, 47160, Note_on_c, 9, 42, 127
13, 47215, Note_on_c, 9, 42, 0
13, 47215, Note_on_c, 9, 38, 0
13, 47220, Note_on_c, 9, 38, 127
13, 47220, Note_on_c, 9, 42, 127
13, 47280, Note_on_c, 9, 42, 0
13, 47280, Note_on_c, 9, 36, 0
13, 47280, Note_on_c, 9, 36, 127
13, 47280, Note_on_c, 9, 42, 127
13, 47335, Note_on_c, 9, 42, 0
13, 47335, Note_on_c, 9, 36, 0
13, 47340, Note_on_c, 9, 36, 127
13, 47340, Note_on_c, 9, 42, 127
13, 47395, Note_on_c, 9, 38, 0
13, 47400, Note_on_c, 9, 42, 0
13, 47400, Note_on_c, 9, 38, 127
13, 47400, Note_on_c, 9, 42, 127
13, 47455, Note_on_c, 9, 42, 0
13, 47460, Note_on_c, 9, 36, 0
13, 47460, Note_on_c, 9, 36, 127
13, 47460, Note_on_c, 9, 42, 127
13, 47515, Note_on_c, 9, 36, 0
13, 47520, Note_on_c, 9, 42, 0
13, 47520, Note_on_c, 9, 36, 127
13, 47520, Note_on_c, 9, 42, 127
13, 47575, Note_on_c, 9, 42, 0
13, 47580, Note_on_c, 9, 42, 127
13, 47635, Note_on_c, 9, 38, 0
13, 47640, Note_on_c, 9, 42, 0
13, 47640, Note_on_c, 9, 38, 127
13, 47640, Note_on_c, 9, 42, 127
13, 47695, Note_on_c, 9, 42, 0
13, 47700, Note_on_c, 9, 42, 127
13, 47755, Note_on_c, 9, 36, 0
13, 47760, Note_on_c, 9, 42, 0
13, 47760, Note_on_c, 9, 36, 127
13, 47760, Note_on_c, 9, 42, 127
13, 47815, Note_on_c, 9, 36, 0
13, 47820, Note_on_c, 9, 42, 0
13, 47820, Note_on_c, 9, 36, 127
13, 47820, Note_on_c, 9, 42, 127
13, 47880, Note_on_c, 9, 42, 0
13, 47880, Note_on_c, 9, 38, 0
13, 47880, Note_on_c, 9, 38, 127
13, 47880, Note_on_c, 9, 42, 127
13, 47930, Note_on_c, 9, 42, 0
13, 47940, Note_on_c, 9, 42, 127
13, 48000, Note_on_c, 9, 42, 0
13, 48000, Note_on_c, 9, 36, 0
13, 48000, Note_on_c, 9, 36, 127
13, 48000, Note_on_c, 9, 42, 127
13, 48055, Note_on_c, 9, 42, 0
13, 48060, Note_on_c, 9, 42, 127
13, 48120, Note_on_c, 9, 42, 0
13, 48120, Note_on_c, 9, 38, 0
13, 48120, Note_on_c, 9, 38, 127
13, 48120, Note_on_c, 9, 42, 127
13, 48175, Note_on_c, 9, 42, 0
13, 48180, Note_on_c, 9, 42, 127
13, 48235, Note_on_c, 9, 36, 0
13, 48240, Note_on_c, 9, 42, 0
13, 48240, Note_on_c, 9, 36, 127
13, 48240, Note_on_c, 9, 42, 127
13, 48295, Note_on_c, 9, 42, 0
13, 48295, Note_on_c, 9, 36, 0
13, 48300, Note_on_c, 9, 42, 127
13, 48300, Note_on_c, 9, 36, 127
13, 48355, Note_on_c, 9, 38, 0
13, 48360, Note_on_c, 9, 42, 0
13, 48360, Note_on_c, 9, 38, 127
13, 48360, Note_on_c, 9, 42, 127
13, 48410, Note_on_c, 9, 36, 0
13, 48415, Note_on_c, 9, 42, 0
13, 48420, Note_on_c, 9, 36, 127
13, 48420, Note_on_c, 9, 42, 127
13, 48475, Note_on_c, 9, 42, 0
13, 48475, Note_on_c, 9, 36, 0
13, 48480, Note_on_c, 9, 36, 127
13, 48480, Note_on_c, 9, 42, 127
13, 48535, Note_on_c, 9, 42, 0
13, 48540, Note_on_c, 9, 42, 127
13, 48595, Note_on_c, 9, 42, 0
13, 48595, Note_on_c, 9, 38, 0
13, 48600, Note_on_c, 9, 38, 127
13, 48600, Note_on_c, 9, 42, 127
13, 48655, Note_on_c, 9, 42, 0
13, 48660, Note_on_c, 9, 42, 127
13, 48715, Note_on_c, 9, 36, 0
13, 48720, Note_on_c, 9, 42, 0
13, 48720, Note_on_c, 9, 36, 127
13, 48720, Note_on_c, 9, 42, 127
13, 48775, Note_on_c, 9, 42, 0
13, 48775, Note_on_c, 9, 36, 0
13, 48780, Note_on_c, 9, 36, 127
13, 48780, Note_on_c, 9, 42, 127
13, 48835, Note_on_c, 9, 42, 0
13, 48835, Note_on_c, 9, 38, 0
13, 48840, Note_on_c, 9, 38, 127
13, 48840, Note_on_c, 9, 42, 127
13, 48895, Note_on_c, 9, 42, 0
13, 48900, Note_on_c, 9, 42, 127
13, 48960, Note_on_c, 9, 42, 0
13, 48960, Note_on_c, 9, 36, 0
13, 48960, Note_on_c, 9, 36, 127
13, 49020, Note_on_c, 9, 38, 0
13, 49020, Note_on_c, 9, 38, 127
13, 49050, Note_on_c, 9, 38, 0
13, 49050, Note_on_c, 9, 38, 127
13, 49075, Note_on_c, 9, 38, 0
13, 49080, Note_on_c, 9, 38, 127
13, 49140, Note_on_c, 9, 38, 0
13, 49140, Note_on_c, 9, 38, 127
13, 49200, Note_on_c, 9, 38, 0
13, 49200, Note_on_c, 9, 38, 127
13, 49230, Note_on_c, 9, 45, 127
13, 49235, Note_on_c, 9, 36, 0
13, 49255, Note_on_c, 9, 45, 0
13, 49260, Note_on_c, 9, 45, 127
13, 49320, Note_on_c, 9, 41, 127
13, 49350, Note_on_c, 9, 41, 0
13, 49350, Note_on_c, 9, 41, 127
13, 49380, Note_on_c, 9, 63, 127
13, 49440, Note_on_c, 9, 36, 127
13, 49440, Note_on_c, 9, 42, 127
13, 49440, Note_on_c, 9, 49, 127
13, 49470, Note_on_c, 9, 38, 0
13, 49495, Note_on_c, 9, 42, 0
13, 49500, Note_on_c, 9, 42, 127
13, 49540, Note_on_c, 9, 45, 0
13, 49560, Note_on_c, 9, 42, 0
13, 49560, Note_on_c, 9, 38, 127
13, 49560, Note_on_c, 9, 42, 127
13, 49615, Note_on_c, 9, 42, 0
13, 49620, Note_on_c, 9, 42, 127
13, 49630, Note_on_c, 9, 41, 0
13, 49660, Note_on_c, 9, 63, 0
13, 49680, Note_on_c, 9, 36, 0
13, 49680, Note_on_c, 9, 42, 0
13, 49680, Note_on_c, 9, 36, 127
13, 49680, Note_on_c, 9, 42, 127
13, 49725, Note_on_c, 9, 49, 0
13, 49735, Note_on_c, 9, 42, 0
13, 49735, Note_on_c, 9, 36, 0
13, 49740, Note_on_c, 9, 36, 127
13, 49740, Note_on_c, 9, 42, 127
13, 49800, Note_on_c, 9, 42, 0
13, 49800, Note_on_c, 9, 38, 0
13, 49800, Note_on_c, 9, 38, 127
13, 49800, Note_on_c, 9, 42, 127
13, 49855, Note_on_c, 9, 42, 0
13, 49860, Note_on_c, 9, 42, 127
13, 49920, Note_on_c, 9, 42, 0
13, 49920, Note_on_c, 9, 36, 0
13, 49920, Note_on_c, 9, 36, 127
13, 49920, Note_on_c, 9, 42, 127
13, 49975, Note_on_c, 9, 42, 0
13, 49980, Note_on_c, 9, 42, 127
13, 50035, Note_on_c, 9, 42, 0
13, 50040, Note_on_c, 9, 38, 0
13, 50040, Note_on_c, 9, 38, 127
13, 50040, Note_on_c, 9, 42, 127
13, 50095, Note_on_c, 9, 42, 0
13, 50100, Note_on_c, 9, 42, 127
13, 50155, Note_on_c, 9, 42, 0
13, 50155, Note_on_c, 9, 36, 0
13, 50160, Note_on_c, 9, 36, 127
13, 50160, Note_on_c, 9, 42, 127
13, 50215, Note_on_c, 9, 42, 0
13, 50215, Note_on_c, 9, 36, 0
13, 50220, Note_on_c, 9, 36, 127
13, 50220, Note_on_c, 9, 42, 127
13, 50280, Note_on_c, 9, 42, 0
13, 50280, Note_on_c, 9, 38, 0
13, 50280, Note_on_c, 9, 38, 127
13, 50280, Note_on_c, 9, 42, 127
13, 50335, Note_on_c, 9, 42, 0
13, 50335, Note_on_c, 9, 36, 0
13, 50340, Note_on_c, 9, 36, 127
13, 50340, Note_on_c, 9, 42, 127
13, 50395, Note_on_c, 9, 42, 0
13, 50395, Note_on_c, 9, 36, 0
13, 50400, Note_on_c, 9, 36, 118
13, 50400, Note_on_c, 9, 42, 127
13, 50455, Note_on_c, 9, 42, 0
13, 50460, Note_on_c, 9, 42, 127
13, 50510, Note_on_c, 9, 38, 0
13, 50515, Note_on_c, 9, 42, 0
13, 50520, Note_on_c, 9, 38, 127
13, 50520, Note_on_c, 9, 42, 127
13, 50575, Note_on_c, 9, 42, 0
13, 50580, Note_on_c, 9, 42, 127
13, 50630, Note_on_c, 9, 36, 0
13, 50635, Note_on_c, 9, 42, 0
13, 50640, Note_on_c, 9, 36, 127
13, 50640, Note_on_c, 9, 42, 127
13, 50695, Note_on_c, 9, 42, 0
13, 50695, Note_on_c, 9, 36, 0
13, 50700, Note_on_c, 9, 36, 127
13, 50700, Note_on_c, 9, 42, 127
13, 50755, Note_on_c, 9, 42, 0
13, 50755, Note_on_c, 9, 38, 0
13, 50760, Note_on_c, 9, 38, 127
13, 50760, Note_on_c, 9, 42, 127
13, 50815, Note_on_c, 9, 42, 0
13, 50820, Note_on_c, 9, 42, 127
13, 50875, Note_on_c, 9, 42, 0
13, 50875, Note_on_c, 9, 36, 0
13, 50880, Note_on_c, 9, 36, 127
13, 50880, Note_on_c, 9, 36, 0
13, 50880, Note_on_c, 9, 36, 127
13, 50940, Note_on_c, 9, 38, 0
13, 50940, Note_on_c, 9, 38, 118
13, 50940, Note_on_c, 9, 63, 122
13, 51000, Note_on_c, 9, 63, 0
13, 51000, Note_on_c, 9, 38, 0
13, 51000, Note_on_c, 9, 63, 124
13, 51000, Note_on_c, 9, 38, 122
13, 51055, Note_on_c, 9, 38, 0
13, 51060, Note_on_c, 9, 63, 0
13, 51060, Note_on_c, 9, 38, 127
13, 51060, Note_on_c, 9, 63, 122
13, 51120, Note_on_c, 9, 63, 0
13, 51120, Note_on_c, 9, 38, 0
13, 51120, Note_on_c, 9, 38, 127
13, 51120, Note_on_c, 9, 63, 127
13, 51140, Note_on_c, 9, 36, 0
13, 51175, Note_on_c, 9, 63, 0
13, 51175, Note_on_c, 9, 38, 0
13, 51180, Note_on_c, 9, 63, 127
13, 51180, Note_on_c, 9, 38, 127
13, 51235, Note_on_c, 9, 38, 0
13, 51235, Note_on_c, 9, 63, 0
13, 51240, Note_on_c, 9, 63, 127
13, 51240, Note_on_c, 9, 38, 127
13, 51295, Note_on_c, 9, 38, 0
13, 51295, Note_on_c, 9, 63, 0
13, 51300, Note_on_c, 9, 63, 127
13, 51300, Note_on_c, 9, 38, 127
13, 51355, Note_on_c, 9, 49, 127
13, 51360, Note_on_c, 9, 36, 127
13, 51360, Note_on_c, 9, 42, 127
13, 51410, Note_on_c, 9, 42, 0
13, 51420, Note_on_c, 9, 42, 127
13, 51480, Note_on_c, 9, 42, 0
13, 51480, Note_on_c, 9, 38, 0
13, 51480, Note_on_c, 9, 38, 127
13, 51480, Note_on_c, 9, 42, 127
13, 51535, Note_on_c, 9, 42, 0
13, 51540, Note_on_c, 9, 42, 127
13, 51580, Note_on_c, 9, 63, 0
13, 51595, Note_on_c, 9, 36, 0
13, 51600, Note_on_c, 9, 42, 0
13, 51600, Note_on_c, 9, 36, 127
13, 51600, Note_on_c, 9, 42, 127
13, 51640, Note_on_c, 9, 49, 0
13, 51655, Note_on_c, 9, 42, 0
13, 51660, Note_on_c, 9, 36, 0
13, 51660, Note_on_c, 9, 36, 127
13, 51660, Note_on_c, 9, 42, 127
13, 51720, Note_on_c, 9, 42, 0
13, 51720, Note_on_c, 9, 38, 0
13, 51720, Note_on_c, 9, 38, 127
13, 51720, Note_on_c, 9, 42, 127
13, 51775, Note_on_c, 9, 42, 0
13, 51780, Note_on_c, 9, 36, 0
13, 51780, Note_on_c, 9, 36, 127
13, 51780, Note_on_c, 9, 42, 127
13, 51840, Note_on_c, 9, 42, 0
13, 51840, Note_on_c, 9, 36, 0
13, 51840, Note_on_c, 9, 36, 127
13, 51840, Note_on_c, 9, 42, 127
13, 51895, Note_on_c, 9, 42, 0
13, 51900, Note_on_c, 9, 42, 127
13, 51955, Note_on_c, 9, 42, 0
13, 51960, Note_on_c, 9, 38, 0
13, 51960, Note_on_c, 9, 38, 127
13, 51960, Note_on_c, 9, 42, 127
13, 52015, Note_on_c, 9, 42, 0
13, 52020, Note_on_c, 9, 42, 127
13, 52080, Note_on_c, 9, 42, 0
13, 52080, Note_on_c, 9, 36, 0
13, 52080, Note_on_c, 9, 36, 127
13, 52080, Note_on_c, 9, 42, 127
13, 52135, Note_on_c, 9, 42, 0
13, 52135, Note_on_c, 9, 36, 0
13, 52140, Note_on_c, 9, 36, 127
13, 52140, Note_on_c, 9, 42, 127
13, 52200, Note_on_c, 9, 42, 0
13, 52200, Note_on_c, 9, 38, 0
13, 52200, Note_on_c, 9, 38, 127
13, 52200, Note_on_c, 9, 42, 127
13, 52255, Note_on_c, 9, 42, 0
13, 52260, Note_on_c, 9, 36, 0
13, 52260, Note_on_c, 9, 36, 127
13, 52260, Note_on_c, 9, 42, 127
13, 52315, Note_on_c, 9, 42, 0
13, 52315, Note_on_c, 9, 36, 0
13, 52320, Note_on_c, 9, 36, 127
13, 52320, Note_on_c, 9, 42, 127
13, 52370, Note_on_c, 9, 38, 0
13, 52380, Note_on_c, 9, 38, 127
13, 52380, Note_on_c, 9, 63, 127
13, 52440, Note_on_c, 9, 63, 0
13, 52440, Note_on_c, 9, 38, 0
13, 52440, Note_on_c, 9, 63, 127
13, 52440, Note_on_c, 9, 38, 127
13, 52495, Note_on_c, 9, 38, 0
13, 52500, Note_on_c, 9, 63, 0
13, 52500, Note_on_c, 9, 38, 127
13, 52500, Note_on_c, 9, 63, 127
13, 52555, Note_on_c, 9, 63, 0
13, 52555, Note_on_c, 9, 38, 0
13, 52560, Note_on_c, 9, 38, 127
13, 52560, Note_on_c, 9, 63, 127
13, 52565, Note_on_c, 9, 42, 0
13, 52585, Note_on_c, 9, 36, 0
13, 52615, Note_on_c, 9, 38, 0
13, 52615, Note_on_c, 9, 63, 0
13, 52620, Note_on_c, 9, 38, 127
13, 52620, Note_on_c, 9, 63, 127
13, 52675, Note_on_c, 9, 63, 0
13, 52675, Note_on_c, 9, 38, 0
13, 52680, Note_on_c, 9, 38, 127
13, 52680, Note_on_c, 9, 63, 127
13, 52735, Note_on_c, 9, 63, 0
13, 52740, Note_on_c, 9, 38, 0
13, 52740, Note_on_c, 9, 63, 127
13, 52740, Note_on_c, 9, 38, 127
13, 52795, Note_on_c, 9, 38, 0
13, 52795, Note_on_c, 9, 63, 0
13, 52800, Note_on_c, 9, 63, 127
13, 52800, Note_on_c, 9, 38, 127
13, 53080, Note_on_c, 9, 38, 0
13, 53080, Note_on_c, 9, 63, 0
13, 53080, End_track
0, 0, End_of_file
