0, 0, Header, 1, 16, 480
1, 0, Start_track
1, 0, MIDI_port, 0
1, 0, Time_signature, 4, 2, 24, 8
1, 0, Key_signature, 0, "major"
1, 0, Tempo, 535714
1, 190932, End_track
2, 0, Start_track
2, 0, MIDI_port, 0
2, 0, Copyright_t, "Song Galaxy 2015"
2, 0, Marker_t, " Dispositivo GM  2"
2, 0, Marker_t, " Dispositivo GM  3"
2, 0, Marker_t, " Dispositivo GM  4"
2, 0, Marker_t, " Dispositivo GM  5"
2, 0, Marker_t, " Dispositivo GM  6"
2, 0, Marker_t, " Dispositivo GM  7"
2, 0, Marker_t, " Dispositivo GM  8"
2, 0, Marker_t, " Dispositivo GM  9"
2, 0, Marker_t, " Dispositivo GM 10"
2, 0, Marker_t, " Dispositivo GM 11"
2, 0, Marker_t, " Dispositivo GM 12"
2, 0, Marker_t, " Dispositivo GM 13"
2, 0, Marker_t, " Dispositivo GM 14"
2, 0, Lyric_t, "www.songgalaxy.com"
2, 4, Lyric_t, "\015"
2, 5, System_exclusive, 5, 126, 127, 9, 1, 247
2, 50, System_exclusive, 10, 65, 16, 66, 18, 64, 0, 127, 0, 65, 247
2, 3600, Lyric_t, "All "
2, 3720, Lyric_t, "the "
2, 3840, Lyric_t, "girls "
2, 4080, Lyric_t, "on "
2, 4200, Lyric_t, "the "
2, 4320, Lyric_t, "block"
2, 4324, Lyric_t, "\015"
2, 4560, Lyric_t, "Knock"
2, 4680, Lyric_t, "in' "
2, 4800, Lyric_t, "at "
2, 5040, Lyric_t, "my "
2, 5280, Lyric_t, "door!"
2, 5284, Lyric_t, "\015"
2, 7440, Lyric_t, "Wan"
2, 7560, Lyric_t, "na "
2, 7680, Lyric_t, "know "
2, 7920, Lyric_t, "what "
2, 8040, Lyric_t, "it "
2, 8160, Lyric_t, "is"
2, 8164, Lyric_t, "\015"
2, 8400, Lyric_t, "Make "
2, 8520, Lyric_t, "the "
2, 8640, Lyric_t, "boys "
2, 8880, Lyric_t, "want "
2, 9120, Lyric_t, "more!"
2, 9124, Lyric_t, "\015"
2, 11040, Lyric_t, "Is "
2, 11280, Lyric_t, "your "
2, 11520, Lyric_t, "lov"
2, 11760, Lyric_t, "er "
2, 12960, Lyric_t, "play"
2, 13200, Lyric_t, "in' "
2, 13440, Lyric_t, "on "
2, 13920, Lyric_t, "your "
2, 14400, Lyric_t, "side?"
2, 14404, Lyric_t, "\015"
2, 14880, Lyric_t, "Said "
2, 15120, Lyric_t, "he "
2, 15360, Lyric_t, "loves "
2, 15600, Lyric_t, "you"
2, 15604, Lyric_t, "\015"
2, 16800, Lyric_t, "But "
2, 17040, Lyric_t, "he "
2, 17280, Lyric_t, "ain't "
2, 17760, Lyric_t, "got "
2, 18240, Lyric_t, "time."
2, 18244, Lyric_t, "\015"
2, 18720, Lyric_t, "Here's "
2, 18960, Lyric_t, "the "
2, 19200, Lyric_t, "an"
2, 19440, Lyric_t, "swer."
2, 19444, Lyric_t, "\015"
2, 20640, Lyric_t, "Come "
2, 20880, Lyric_t, "and "
2, 21120, Lyric_t, "get "
2, 21360, Lyric_t, "it"
2, 21364, Lyric_t, "\015"
2, 21840, Lyric_t, "At "
2, 21960, Lyric_t, "a "
2, 22080, Lyric_t, "knocked "
2, 22440, Lyric_t, "down "
2, 22800, Lyric_t, "price."
2, 22804, Lyric_t, "\015"
2, 24480, Lyric_t, "Hey!"
2, 24484, Lyric_t, "\015"
2, 26400, Lyric_t, "Full "
2, 26640, Lyric_t, "of "
2, 26880, Lyric_t, "hon"
2, 27120, Lyric_t, "ey"
2, 27124, Lyric_t, "\015"
2, 28320, Lyric_t, "Just "
2, 28560, Lyric_t, "to "
2, 28800, Lyric_t, "make "
2, 29280, Lyric_t, "him "
2, 29760, Lyric_t, "sweet."
2, 29764, Lyric_t, "\015"
2, 30240, Lyric_t, "Crys"
2, 30480, Lyric_t, "tal "
2, 30720, Lyric_t, "ball"
2, 30960, Lyric_t, "in'"
2, 30964, Lyric_t, "\015"
2, 32160, Lyric_t, "Just "
2, 32400, Lyric_t, "to "
2, 32640, Lyric_t, "help "
2, 33120, Lyric_t, "him "
2, 33600, Lyric_t, "see"
2, 33604, Lyric_t, "\015"
2, 33840, Lyric_t, "What "
2, 34080, Lyric_t, "he's "
2, 34320, Lyric_t, "been "
2, 34560, Lyric_t, "miss"
2, 34800, Lyric_t, "in'"
2, 34804, Lyric_t, "\015"
2, 35760, Lyric_t, "So "
2, 36000, Lyric_t, "come "
2, 36240, Lyric_t, "and "
2, 36480, Lyric_t, "get "
2, 36720, Lyric_t, "it"
2, 36724, Lyric_t, "\015"
2, 37200, Lyric_t, "While "
2, 37314, Lyric_t, "you've "
2, 37440, Lyric_t, "still "
2, 37800, Lyric_t, "got "
2, 38160, Lyric_t, "time."
2, 38164, Lyric_t, "\015"
2, 39840, Lyric_t, "Hey!"
2, 39844, Lyric_t, "\015"
2, 42000, Lyric_t, "Get "
2, 42120, Lyric_t, "your "
2, 42240, Lyric_t, "boy "
2, 42480, Lyric_t, "on "
2, 42600, Lyric_t, "his "
2, 42720, Lyric_t, "knees"
2, 42724, Lyric_t, "\015"
2, 42960, Lyric_t, "And "
2, 43080, Lyric_t, "re"
2, 43200, Lyric_t, "peat "
2, 43440, Lyric_t, "af"
2, 43560, Lyric_t, "ter "
2, 43680, Lyric_t, "me "
2, 44160, Lyric_t, "say:"
2, 44164, Lyric_t, "\015"
2, 46320, Lyric_t, "Take "
2, 46440, Lyric_t, "a "
2, 46560, Lyric_t, "sip "
2, 46800, Lyric_t, "of "
2, 46920, Lyric_t, "my "
2, 47040, Lyric_t, "se"
2, 47280, Lyric_t, "cret "
2, 47520, Lyric_t, "po"
2, 47760, Lyric_t, "tion."
2, 47764, Lyric_t, "\015"
2, 48240, Lyric_t, "I'll "
2, 48480, Lyric_t, "make "
2, 48720, Lyric_t, "you "
2, 48960, Lyric_t, "fall "
2, 49200, Lyric_t, "in "
2, 49440, Lyric_t, "love."
2, 49444, Lyric_t, "\015"
2, 50160, Lyric_t, "For "
2, 50280, Lyric_t, "a "
2, 50400, Lyric_t, "spell "
2, 50640, Lyric_t, "that "
2, 50880, Lyric_t, "can't "
2, 51120, Lyric_t, "be "
2, 51360, Lyric_t, "bro"
2, 51600, Lyric_t, "ken"
2, 51604, Lyric_t, "\015"
2, 52080, Lyric_t, "One "
2, 52320, Lyric_t, "drop "
2, 52560, Lyric_t, "should "
2, 52800, Lyric_t, "be "
2, 53040, Lyric_t, "e"
2, 53280, Lyric_t, "nough."
2, 53284, Lyric_t, "\015"
2, 54000, Lyric_t, "Boy "
2, 54240, Lyric_t, "you "
2, 54480, Lyric_t, "be"
2, 54720, Lyric_t, "long "
2, 54960, Lyric_t, "to "
2, 55200, Lyric_t, "me."
2, 55204, Lyric_t, "\015"
2, 55920, Lyric_t, "I "
2, 56160, Lyric_t, "got "
2, 56400, Lyric_t, "the "
2, 56640, Lyric_t, "rec"
2, 56880, Lyric_t, "i"
2, 57120, Lyric_t, "pe"
2, 57124, Lyric_t, "\015"
2, 57360, Lyric_t, "And "
2, 57480, Lyric_t, "it's "
2, 57600, Lyric_t, "called "
2, 57960, Lyric_t, "black "
2, 58320, Lyric_t, "mag"
2, 58800, Lyric_t, "ic"
2, 58804, Lyric_t, "\015"
2, 59280, Lyric_t, "(And "
2, 59400, Lyric_t, "it's "
2, 59520, Lyric_t, "called "
2, 59880, Lyric_t, "black "
2, 60240, Lyric_t, "mag"
2, 60720, Lyric_t, "ic.)"
2, 60724, Lyric_t, "\015"
2, 61680, Lyric_t, "Take "
2, 61800, Lyric_t, "a "
2, 61920, Lyric_t, "sip "
2, 62160, Lyric_t, "of "
2, 62280, Lyric_t, "my "
2, 62400, Lyric_t, "se"
2, 62640, Lyric_t, "cret "
2, 62880, Lyric_t, "po"
2, 63120, Lyric_t, "tion."
2, 63124, Lyric_t, "\015"
2, 63600, Lyric_t, "One "
2, 63840, Lyric_t, "taste "
2, 64080, Lyric_t, "and "
2, 64320, Lyric_t, "you'll "
2, 64560, Lyric_t, "be "
2, 64800, Lyric_t, "mine."
2, 64804, Lyric_t, "\015"
2, 65520, Lyric_t, "It's "
2, 65640, Lyric_t, "a "
2, 65760, Lyric_t, "spell "
2, 66000, Lyric_t, "that "
2, 66240, Lyric_t, "can't "
2, 66480, Lyric_t, "be "
2, 66720, Lyric_t, "bro"
2, 66960, Lyric_t, "ken."
2, 66964, Lyric_t, "\015"
2, 67440, Lyric_t, "It"
2, 67560, Lyric_t, "'ll "
2, 67680, Lyric_t, "keep "
2, 67920, Lyric_t, "you "
2, 68160, Lyric_t, "up "
2, 68400, Lyric_t, "all "
2, 68640, Lyric_t, "night."
2, 68644, Lyric_t, "\015"
2, 69360, Lyric_t, "Boy "
2, 69600, Lyric_t, "you "
2, 69840, Lyric_t, "be"
2, 70080, Lyric_t, "long "
2, 70320, Lyric_t, "to "
2, 70560, Lyric_t, "me."
2, 70564, Lyric_t, "\015"
2, 71280, Lyric_t, "I "
2, 71520, Lyric_t, "got "
2, 71760, Lyric_t, "the "
2, 72000, Lyric_t, "rec"
2, 72240, Lyric_t, "i"
2, 72480, Lyric_t, "pe"
2, 72484, Lyric_t, "\015"
2, 72720, Lyric_t, "And "
2, 72840, Lyric_t, "it's "
2, 72960, Lyric_t, "called "
2, 73320, Lyric_t, "black "
2, 73680, Lyric_t, "mag"
2, 74160, Lyric_t, "ic"
2, 74164, Lyric_t, "\015"
2, 74640, Lyric_t, "(And "
2, 74760, Lyric_t, "it's "
2, 74880, Lyric_t, "called "
2, 75240, Lyric_t, "black "
2, 75600, Lyric_t, "mag"
2, 76080, Lyric_t, "ic.)"
2, 76084, Lyric_t, "\015"
2, 76320, Lyric_t, "If "
2, 76560, Lyric_t, "you're "
2, 76800, Lyric_t, "look"
2, 77040, Lyric_t, "in' "
2, 78480, Lyric_t, "for "
2, 78720, Lyric_t, "Mr. "
2, 79680, Lyric_t, "Right"
2, 79684, Lyric_t, "\015"
2, 80160, Lyric_t, "Need "
2, 80400, Lyric_t, "that "
2, 80640, Lyric_t, "mag"
2, 80880, Lyric_t, "ic"
2, 80884, Lyric_t, "\015"
2, 81840, Lyric_t, "To "
2, 82080, Lyric_t, "change "
2, 82320, Lyric_t, "him "
2, 82560, Lyric_t, "o"
2, 83040, Lyric_t, "ver "
2, 83520, Lyric_t, "night"
2, 83524, Lyric_t, "\015"
2, 84000, Lyric_t, "Here's "
2, 84240, Lyric_t, "the "
2, 84480, Lyric_t, "an"
2, 84720, Lyric_t, "swer."
2, 84724, Lyric_t, "\015"
2, 85920, Lyric_t, "Come "
2, 86160, Lyric_t, "and "
2, 86400, Lyric_t, "get "
2, 86640, Lyric_t, "it"
2, 86644, Lyric_t, "\015"
2, 87120, Lyric_t, "While "
2, 87245, Lyric_t, "you've "
2, 87360, Lyric_t, "still "
2, 87720, Lyric_t, "got "
2, 88080, Lyric_t, "time."
2, 88084, Lyric_t, "\015"
2, 89760, Lyric_t, "Hey!"
2, 89764, Lyric_t, "\015"
2, 91920, Lyric_t, "Get "
2, 92040, Lyric_t, "your "
2, 92160, Lyric_t, "boy "
2, 92400, Lyric_t, "on "
2, 92520, Lyric_t, "his "
2, 92640, Lyric_t, "knees"
2, 92644, Lyric_t, "\015"
2, 92880, Lyric_t, "And "
2, 93000, Lyric_t, "re"
2, 93120, Lyric_t, "peat "
2, 93360, Lyric_t, "af"
2, 93480, Lyric_t, "ter "
2, 93600, Lyric_t, "me "
2, 94080, Lyric_t, "say:"
2, 94084, Lyric_t, "\015"
2, 96240, Lyric_t, "Take "
2, 96360, Lyric_t, "a "
2, 96480, Lyric_t, "sip "
2, 96720, Lyric_t, "of "
2, 96840, Lyric_t, "my "
2, 96960, Lyric_t, "se"
2, 97200, Lyric_t, "cret "
2, 97440, Lyric_t, "po"
2, 97680, Lyric_t, "tion."
2, 97684, Lyric_t, "\015"
2, 98160, Lyric_t, "I'll "
2, 98400, Lyric_t, "make "
2, 98640, Lyric_t, "you "
2, 98880, Lyric_t, "fall "
2, 99120, Lyric_t, "in "
2, 99360, Lyric_t, "love."
2, 99364, Lyric_t, "\015"
2, 100080, Lyric_t, "For "
2, 100200, Lyric_t, "a "
2, 100320, Lyric_t, "spell "
2, 100560, Lyric_t, "that "
2, 100800, Lyric_t, "can't "
2, 101040, Lyric_t, "be "
2, 101280, Lyric_t, "bro"
2, 101520, Lyric_t, "ken"
2, 101524, Lyric_t, "\015"
2, 102000, Lyric_t, "One "
2, 102240, Lyric_t, "drop "
2, 102480, Lyric_t, "should "
2, 102720, Lyric_t, "be "
2, 102960, Lyric_t, "e"
2, 103200, Lyric_t, "nough."
2, 103204, Lyric_t, "\015"
2, 103920, Lyric_t, "Boy "
2, 104160, Lyric_t, "you "
2, 104400, Lyric_t, "be"
2, 104640, Lyric_t, "long "
2, 104880, Lyric_t, "to "
2, 105120, Lyric_t, "me."
2, 105124, Lyric_t, "\015"
2, 105840, Lyric_t, "I "
2, 106080, Lyric_t, "got "
2, 106320, Lyric_t, "the "
2, 106560, Lyric_t, "rec"
2, 106800, Lyric_t, "i"
2, 107040, Lyric_t, "pe"
2, 107044, Lyric_t, "\015"
2, 107280, Lyric_t, "And "
2, 107400, Lyric_t, "it's "
2, 107520, Lyric_t, "called "
2, 107880, Lyric_t, "black "
2, 108240, Lyric_t, "mag"
2, 108720, Lyric_t, "ic"
2, 108724, Lyric_t, "\015"
2, 109200, Lyric_t, "(And "
2, 109320, Lyric_t, "it's "
2, 109440, Lyric_t, "called "
2, 109800, Lyric_t, "black "
2, 110160, Lyric_t, "mag"
2, 110640, Lyric_t, "ic.)"
2, 110644, Lyric_t, "\015"
2, 111600, Lyric_t, "Take "
2, 111720, Lyric_t, "a "
2, 111840, Lyric_t, "sip "
2, 112080, Lyric_t, "of "
2, 112200, Lyric_t, "my "
2, 112320, Lyric_t, "se"
2, 112560, Lyric_t, "cret "
2, 112800, Lyric_t, "po"
2, 113040, Lyric_t, "tion."
2, 113044, Lyric_t, "\015"
2, 113520, Lyric_t, "One "
2, 113760, Lyric_t, "taste "
2, 114000, Lyric_t, "and "
2, 114240, Lyric_t, "you'll "
2, 114480, Lyric_t, "be "
2, 114720, Lyric_t, "mine."
2, 114724, Lyric_t, "\015"
2, 115440, Lyric_t, "It's "
2, 115560, Lyric_t, "a "
2, 115680, Lyric_t, "spell "
2, 115920, Lyric_t, "that "
2, 116160, Lyric_t, "can't "
2, 116400, Lyric_t, "be "
2, 116640, Lyric_t, "bro"
2, 116880, Lyric_t, "ken."
2, 116884, Lyric_t, "\015"
2, 117360, Lyric_t, "It"
2, 117480, Lyric_t, "'ll "
2, 117600, Lyric_t, "keep "
2, 117840, Lyric_t, "you "
2, 118080, Lyric_t, "up "
2, 118320, Lyric_t, "all "
2, 118560, Lyric_t, "night."
2, 118564, Lyric_t, "\015"
2, 119280, Lyric_t, "Boy "
2, 119520, Lyric_t, "you "
2, 119760, Lyric_t, "be"
2, 120000, Lyric_t, "long "
2, 120240, Lyric_t, "to "
2, 120480, Lyric_t, "me."
2, 120484, Lyric_t, "\015"
2, 121200, Lyric_t, "I "
2, 121440, Lyric_t, "got "
2, 121680, Lyric_t, "the "
2, 121920, Lyric_t, "rec"
2, 122160, Lyric_t, "i"
2, 122400, Lyric_t, "pe"
2, 122404, Lyric_t, "\015"
2, 122640, Lyric_t, "And "
2, 122760, Lyric_t, "it's "
2, 122880, Lyric_t, "called "
2, 123240, Lyric_t, "black "
2, 123600, Lyric_t, "mag"
2, 124080, Lyric_t, "ic"
2, 124084, Lyric_t, "\015"
2, 124560, Lyric_t, "(And "
2, 124680, Lyric_t, "it's "
2, 124800, Lyric_t, "called "
2, 125160, Lyric_t, "black "
2, 125520, Lyric_t, "mag"
2, 126000, Lyric_t, "ic.)"
2, 126004, Lyric_t, "\015"
2, 126507, Lyric_t, "All "
2, 126610, Lyric_t, "the "
2, 126710, Lyric_t, "girls "
2, 126974, Lyric_t, "on "
2, 127095, Lyric_t, "the "
2, 127200, Lyric_t, "block"
2, 127204, Lyric_t, "\015"
2, 127439, Lyric_t, "Knock"
2, 127563, Lyric_t, "in' "
2, 127667, Lyric_t, "at "
2, 127911, Lyric_t, "my "
2, 128155, Lyric_t, "door!"
2, 128159, Lyric_t, "\015"
2, 128880, Lyric_t, "(I "
2, 129120, Lyric_t, "got "
2, 129360, Lyric_t, "the "
2, 129600, Lyric_t, "rec"
2, 129840, Lyric_t, "i"
2, 130080, Lyric_t, "pe.)"
2, 130084, Lyric_t, "\015"
2, 130347, Lyric_t, "Wan"
2, 130450, Lyric_t, "na "
2, 130550, Lyric_t, "know "
2, 130814, Lyric_t, "what "
2, 130935, Lyric_t, "it "
2, 131040, Lyric_t, "is"
2, 131044, Lyric_t, "\015"
2, 131279, Lyric_t, "Make "
2, 131403, Lyric_t, "the "
2, 131507, Lyric_t, "boys "
2, 131751, Lyric_t, "want "
2, 131995, Lyric_t, "more!"
2, 131999, Lyric_t, "\015"
2, 132720, Lyric_t, "(Now "
2, 132960, Lyric_t, "you "
2, 133200, Lyric_t, "be"
2, 133440, Lyric_t, "long "
2, 133680, Lyric_t, "to "
2, 133920, Lyric_t, "me.)"
2, 133924, Lyric_t, "\015"
2, 134187, Lyric_t, "All "
2, 134290, Lyric_t, "the "
2, 134390, Lyric_t, "girls "
2, 134654, Lyric_t, "on "
2, 134775, Lyric_t, "the "
2, 134880, Lyric_t, "block"
2, 134884, Lyric_t, "\015"
2, 135119, Lyric_t, "Knock"
2, 135243, Lyric_t, "in' "
2, 135347, Lyric_t, "at "
2, 135591, Lyric_t, "my "
2, 135835, Lyric_t, "door!"
2, 135839, Lyric_t, "\015"
2, 136560, Lyric_t, "(I "
2, 136800, Lyric_t, "got "
2, 137040, Lyric_t, "the "
2, 137280, Lyric_t, "rec"
2, 137520, Lyric_t, "i"
2, 137760, Lyric_t, "pe.)"
2, 137764, Lyric_t, "\015"
2, 138027, Lyric_t, "Wan"
2, 138130, Lyric_t, "na "
2, 138230, Lyric_t, "know "
2, 138494, Lyric_t, "what "
2, 138615, Lyric_t, "it "
2, 138720, Lyric_t, "is"
2, 138724, Lyric_t, "\015"
2, 138959, Lyric_t, "Make "
2, 139083, Lyric_t, "the "
2, 139187, Lyric_t, "boys "
2, 139431, Lyric_t, "want "
2, 139675, Lyric_t, "more!"
2, 139679, Lyric_t, "\015"
2, 140400, Lyric_t, "(Now "
2, 140640, Lyric_t, "you "
2, 140880, Lyric_t, "be"
2, 141120, Lyric_t, "long "
2, 141360, Lyric_t, "to "
2, 141600, Lyric_t, "me.)"
2, 141604, Lyric_t, "\015"
2, 142320, Lyric_t, "Take "
2, 142440, Lyric_t, "a "
2, 142560, Lyric_t, "sip "
2, 142800, Lyric_t, "of "
2, 142920, Lyric_t, "my "
2, 143040, Lyric_t, "se"
2, 143280, Lyric_t, "cret "
2, 143520, Lyric_t, "po"
2, 143760, Lyric_t, "tion."
2, 143764, Lyric_t, "\015"
2, 144240, Lyric_t, "I'll "
2, 144480, Lyric_t, "make "
2, 144720, Lyric_t, "you "
2, 144960, Lyric_t, "fall "
2, 145200, Lyric_t, "in "
2, 145440, Lyric_t, "love."
2, 145444, Lyric_t, "\015"
2, 146160, Lyric_t, "For "
2, 146280, Lyric_t, "a "
2, 146400, Lyric_t, "spell "
2, 146640, Lyric_t, "that "
2, 146880, Lyric_t, "can't "
2, 147120, Lyric_t, "be "
2, 147360, Lyric_t, "bro"
2, 147600, Lyric_t, "ken"
2, 147604, Lyric_t, "\015"
2, 148080, Lyric_t, "One "
2, 148320, Lyric_t, "drop "
2, 148560, Lyric_t, "should "
2, 148800, Lyric_t, "be "
2, 149040, Lyric_t, "e"
2, 149280, Lyric_t, "nough."
2, 149284, Lyric_t, "\015"
2, 150000, Lyric_t, "Boy "
2, 150240, Lyric_t, "you "
2, 150480, Lyric_t, "be"
2, 150720, Lyric_t, "long "
2, 150960, Lyric_t, "to "
2, 151200, Lyric_t, "me."
2, 151204, Lyric_t, "\015"
2, 151920, Lyric_t, "I "
2, 152160, Lyric_t, "got "
2, 152400, Lyric_t, "the "
2, 152640, Lyric_t, "rec"
2, 152880, Lyric_t, "i"
2, 153120, Lyric_t, "pe"
2, 153124, Lyric_t, "\015"
2, 153360, Lyric_t, "And "
2, 153480, Lyric_t, "it's "
2, 153600, Lyric_t, "called "
2, 153960, Lyric_t, "black "
2, 154320, Lyric_t, "mag"
2, 154800, Lyric_t, "ic"
2, 154804, Lyric_t, "\015"
2, 155280, Lyric_t, "(And "
2, 155400, Lyric_t, "it's "
2, 155520, Lyric_t, "called "
2, 155880, Lyric_t, "black "
2, 156240, Lyric_t, "mag"
2, 156720, Lyric_t, "ic.)"
2, 156724, Lyric_t, "\015"
2, 157680, Lyric_t, "Take "
2, 157800, Lyric_t, "a "
2, 157920, Lyric_t, "sip "
2, 158160, Lyric_t, "of "
2, 158280, Lyric_t, "my "
2, 158400, Lyric_t, "se"
2, 158640, Lyric_t, "cret "
2, 158880, Lyric_t, "po"
2, 159120, Lyric_t, "tion."
2, 159124, Lyric_t, "\015"
2, 159600, Lyric_t, "One "
2, 159840, Lyric_t, "taste "
2, 160080, Lyric_t, "and "
2, 160320, Lyric_t, "you'll "
2, 160560, Lyric_t, "be "
2, 160800, Lyric_t, "mine."
2, 160804, Lyric_t, "\015"
2, 161520, Lyric_t, "It's "
2, 161640, Lyric_t, "a "
2, 161760, Lyric_t, "spell "
2, 162000, Lyric_t, "that "
2, 162240, Lyric_t, "can't "
2, 162480, Lyric_t, "be "
2, 162720, Lyric_t, "bro"
2, 162960, Lyric_t, "ken."
2, 162964, Lyric_t, "\015"
2, 163440, Lyric_t, "It"
2, 163560, Lyric_t, "'ll "
2, 163680, Lyric_t, "keep "
2, 163920, Lyric_t, "you "
2, 164160, Lyric_t, "up "
2, 164400, Lyric_t, "all "
2, 164640, Lyric_t, "night."
2, 164644, Lyric_t, "\015"
2, 165360, Lyric_t, "Boy "
2, 165600, Lyric_t, "you "
2, 165840, Lyric_t, "be"
2, 166080, Lyric_t, "long "
2, 166320, Lyric_t, "to "
2, 166560, Lyric_t, "me."
2, 166564, Lyric_t, "\015"
2, 167280, Lyric_t, "I "
2, 167520, Lyric_t, "got "
2, 167760, Lyric_t, "the "
2, 168000, Lyric_t, "rec"
2, 168240, Lyric_t, "i"
2, 168480, Lyric_t, "pe"
2, 168484, Lyric_t, "\015"
2, 168720, Lyric_t, "And "
2, 168840, Lyric_t, "it's "
2, 168960, Lyric_t, "called "
2, 169320, Lyric_t, "black "
2, 169680, Lyric_t, "mag"
2, 170160, Lyric_t, "ic"
2, 170164, Lyric_t, "\015"
2, 170640, Lyric_t, "(And "
2, 170760, Lyric_t, "it's "
2, 170880, Lyric_t, "called "
2, 171240, Lyric_t, "black "
2, 171600, Lyric_t, "mag"
2, 172080, Lyric_t, "ic.)"
2, 172084, Lyric_t, "\015"
2, 172800, Lyric_t, "Fall"
2, 173160, Lyric_t, "in' "
2, 173520, Lyric_t, "in "
2, 173760, Lyric_t, "love."
2, 173764, Lyric_t, "\015"
2, 174720, Lyric_t, "Fall"
2, 175080, Lyric_t, "in' "
2, 175440, Lyric_t, "in "
2, 175680, Lyric_t, "love "
2, 176160, Lyric_t, "oh."
2, 176164, Lyric_t, "\015"
2, 176640, Lyric_t, "Fall"
2, 177000, Lyric_t, "in' "
2, 177360, Lyric_t, "in "
2, 177600, Lyric_t, "love."
2, 177604, Lyric_t, "\015"
2, 178560, Lyric_t, "Fall"
2, 178920, Lyric_t, "in' "
2, 179280, Lyric_t, "in "
2, 179520, Lyric_t, "love."
2, 179524, Lyric_t, "\015"
2, 180480, Lyric_t, "Fall"
2, 180840, Lyric_t, "in' "
2, 181200, Lyric_t, "in "
2, 181440, Lyric_t, "love."
2, 181444, Lyric_t, "\015"
2, 182400, Lyric_t, "Fall"
2, 182760, Lyric_t, "in' "
2, 183120, Lyric_t, "in "
2, 183360, Lyric_t, "love "
2, 183840, Lyric_t, "oh."
2, 183844, Lyric_t, "\015"
2, 184320, Lyric_t, "Fall"
2, 184680, Lyric_t, "in' "
2, 185040, Lyric_t, "in "
2, 185280, Lyric_t, "love."
2, 185284, Lyric_t, "\015"
2, 186240, Lyric_t, "Fall"
2, 186600, Lyric_t, "in' "
2, 186960, Lyric_t, "in "
2, 187200, Lyric_t, "love."
2, 187204, Lyric_t, "\015"
2, 187440, Lyric_t, "Mag"
2, 188160, Lyric_t, "ic!"
2, 188164, Lyric_t, "\015"
2, 190932, End_track
3, 0, Start_track
3, 0, MIDI_port, 0
3, 0, Title_t, "Fingered Bs."
3, 252, Control_c, 1, 121, 0
3, 302, Program_c, 1, 33
3, 382, Control_c, 1, 7, 109
3, 414, Control_c, 1, 10, 63
3, 446, Control_c, 1, 11, 127
3, 478, Control_c, 1, 91, 0
3, 510, Control_c, 1, 93, 51
3, 542, Control_c, 1, 1, 0
3, 574, Control_c, 1, 64, 0
3, 606, Control_c, 1, 71, 64
3, 638, Control_c, 1, 72, 64
3, 670, Control_c, 1, 73, 64
3, 702, Control_c, 1, 74, 64
3, 734, Control_c, 1, 94, 0
3, 766, Pitch_bend_c, 1, 8192
3, 930, Control_c, 1, 99, 1
3, 930, Control_c, 1, 98, 32
3, 930, Control_c, 1, 6, 49
3, 930, Control_c, 1, 38, 0
3, 11520, Note_on_c, 1, 28, 127
3, 11762, Note_off_c, 1, 28, 17
3, 11880, Note_on_c, 1, 28, 127
3, 11998, Note_off_c, 1, 28, 17
3, 13440, Note_on_c, 1, 28, 127
3, 13682, Note_off_c, 1, 28, 17
3, 13800, Note_on_c, 1, 28, 127
3, 13918, Note_off_c, 1, 28, 17
3, 15360, Note_on_c, 1, 28, 127
3, 15602, Note_off_c, 1, 28, 17
3, 15720, Note_on_c, 1, 28, 127
3, 15838, Note_off_c, 1, 28, 17
3, 17280, Note_on_c, 1, 28, 127
3, 17522, Note_off_c, 1, 28, 17
3, 17640, Note_on_c, 1, 28, 127
3, 17758, Note_off_c, 1, 28, 17
3, 19200, Note_on_c, 1, 33, 127
3, 19442, Note_off_c, 1, 33, 17
3, 19560, Note_on_c, 1, 33, 127
3, 19678, Note_off_c, 1, 33, 17
3, 21120, Note_on_c, 1, 33, 127
3, 21362, Note_off_c, 1, 33, 17
3, 21480, Note_on_c, 1, 33, 127
3, 21598, Note_off_c, 1, 33, 17
3, 22560, Note_on_c, 1, 33, 127
3, 22802, Note_off_c, 1, 33, 17
3, 23040, Note_on_c, 1, 28, 127
3, 23282, Note_off_c, 1, 28, 17
3, 23400, Note_on_c, 1, 28, 127
3, 23518, Note_off_c, 1, 28, 17
3, 24960, Note_on_c, 1, 28, 127
3, 25202, Note_off_c, 1, 28, 17
3, 25320, Note_on_c, 1, 28, 127
3, 25438, Note_off_c, 1, 28, 17
3, 26880, Note_on_c, 1, 28, 127
3, 27122, Note_off_c, 1, 28, 17
3, 27240, Note_on_c, 1, 28, 127
3, 27358, Note_off_c, 1, 28, 17
3, 28800, Note_on_c, 1, 28, 127
3, 29042, Note_off_c, 1, 28, 17
3, 29160, Note_on_c, 1, 28, 127
3, 29278, Note_off_c, 1, 28, 17
3, 30720, Note_on_c, 1, 28, 127
3, 30962, Note_off_c, 1, 28, 17
3, 31080, Note_on_c, 1, 28, 127
3, 31198, Note_off_c, 1, 28, 17
3, 32640, Note_on_c, 1, 28, 127
3, 32882, Note_off_c, 1, 28, 17
3, 33000, Note_on_c, 1, 28, 127
3, 33118, Note_off_c, 1, 28, 17
3, 34560, Note_on_c, 1, 33, 127
3, 34802, Note_off_c, 1, 33, 17
3, 34920, Note_on_c, 1, 33, 127
3, 35038, Note_off_c, 1, 33, 17
3, 36480, Note_on_c, 1, 33, 127
3, 36722, Note_off_c, 1, 33, 17
3, 36840, Note_on_c, 1, 33, 127
3, 36958, Note_off_c, 1, 33, 17
3, 37920, Note_on_c, 1, 33, 127
3, 38162, Note_off_c, 1, 33, 17
3, 38400, Note_on_c, 1, 28, 127
3, 38642, Note_off_c, 1, 28, 17
3, 38760, Note_on_c, 1, 28, 127
3, 38878, Note_off_c, 1, 28, 17
3, 40320, Note_on_c, 1, 28, 127
3, 40562, Note_off_c, 1, 28, 17
3, 40680, Note_on_c, 1, 28, 127
3, 40798, Note_off_c, 1, 28, 17
3, 42240, Note_on_c, 1, 37, 127
3, 42482, Note_off_c, 1, 37, 17
3, 42600, Note_on_c, 1, 37, 127
3, 42718, Note_off_c, 1, 37, 17
3, 42960, Note_on_c, 1, 37, 127
3, 43078, Note_off_c, 1, 37, 17
3, 43200, Note_on_c, 1, 37, 127
3, 43442, Note_off_c, 1, 37, 17
3, 43680, Note_on_c, 1, 37, 127
3, 43922, Note_off_c, 1, 37, 17
3, 44160, Note_on_c, 1, 35, 127
3, 44402, Note_off_c, 1, 35, 17
3, 44520, Note_on_c, 1, 35, 127
3, 44638, Note_off_c, 1, 35, 17
3, 44880, Note_on_c, 1, 35, 127
3, 44998, Note_off_c, 1, 35, 17
3, 45120, Note_on_c, 1, 35, 127
3, 45362, Note_off_c, 1, 35, 17
3, 45586, Pitch_bend_c, 1, 8192
3, 45597, Pitch_bend_c, 1, 8192
3, 45600, Note_on_c, 1, 35, 127
3, 45793, Pitch_bend_c, 1, 8064
3, 45811, Pitch_bend_c, 1, 7552
3, 45823, Pitch_bend_c, 1, 7168
3, 45836, Pitch_bend_c, 1, 6784
3, 45850, Pitch_bend_c, 1, 6400
3, 45861, Pitch_bend_c, 1, 5888
3, 45873, Pitch_bend_c, 1, 5504
3, 45888, Pitch_bend_c, 1, 4864
3, 45902, Pitch_bend_c, 1, 4224
3, 45915, Pitch_bend_c, 1, 3712
3, 45925, Pitch_bend_c, 1, 3072
3, 45938, Pitch_bend_c, 1, 2304
3, 45950, Pitch_bend_c, 1, 1536
3, 45963, Pitch_bend_c, 1, 640
3, 45974, Pitch_bend_c, 1, 0
3, 46044, Pitch_bend_c, 1, 7168
3, 46055, Pitch_bend_c, 1, 8192
3, 46076, Note_off_c, 1, 35, 17
3, 46080, Note_on_c, 1, 28, 127
3, 46295, Note_off_c, 1, 28, 17
3, 46440, Note_on_c, 1, 28, 127
3, 46619, Note_off_c, 1, 28, 17
3, 46800, Note_on_c, 1, 28, 127
3, 46868, Note_off_c, 1, 28, 17
3, 47040, Note_on_c, 1, 28, 127
3, 47280, Note_off_c, 1, 28, 17
3, 47520, Note_on_c, 1, 28, 127
3, 47821, Note_off_c, 1, 28, 17
3, 48000, Note_on_c, 1, 28, 127
3, 48215, Note_off_c, 1, 28, 17
3, 48360, Note_on_c, 1, 28, 127
3, 48539, Note_off_c, 1, 28, 17
3, 48720, Note_on_c, 1, 28, 127
3, 48788, Note_off_c, 1, 28, 17
3, 48960, Note_on_c, 1, 28, 127
3, 49200, Note_off_c, 1, 28, 17
3, 49440, Note_on_c, 1, 28, 127
3, 49741, Note_off_c, 1, 28, 17
3, 49920, Note_on_c, 1, 33, 127
3, 50135, Note_off_c, 1, 33, 17
3, 50280, Note_on_c, 1, 33, 127
3, 50459, Note_off_c, 1, 33, 17
3, 50640, Note_on_c, 1, 33, 127
3, 50708, Note_off_c, 1, 33, 17
3, 50880, Note_on_c, 1, 33, 127
3, 51120, Note_off_c, 1, 33, 17
3, 51360, Note_on_c, 1, 33, 127
3, 51661, Note_off_c, 1, 33, 17
3, 51840, Note_on_c, 1, 33, 127
3, 52055, Note_off_c, 1, 33, 17
3, 52200, Note_on_c, 1, 33, 127
3, 52379, Note_off_c, 1, 33, 17
3, 52560, Note_on_c, 1, 33, 127
3, 52628, Note_off_c, 1, 33, 17
3, 52800, Note_on_c, 1, 33, 127
3, 53040, Note_off_c, 1, 33, 17
3, 53280, Note_on_c, 1, 33, 127
3, 53581, Note_off_c, 1, 33, 17
3, 53760, Note_on_c, 1, 37, 127
3, 53975, Note_off_c, 1, 37, 17
3, 54120, Note_on_c, 1, 37, 127
3, 54299, Note_off_c, 1, 37, 17
3, 54480, Note_on_c, 1, 37, 127
3, 54548, Note_off_c, 1, 37, 17
3, 54720, Note_on_c, 1, 37, 127
3, 54960, Note_off_c, 1, 37, 17
3, 55200, Note_on_c, 1, 37, 127
3, 55501, Note_off_c, 1, 37, 17
3, 55680, Note_on_c, 1, 35, 127
3, 55895, Note_off_c, 1, 35, 17
3, 56040, Note_on_c, 1, 35, 127
3, 56219, Note_off_c, 1, 35, 17
3, 56400, Note_on_c, 1, 35, 127
3, 56468, Note_off_c, 1, 35, 17
3, 56640, Note_on_c, 1, 35, 127
3, 56880, Note_off_c, 1, 35, 17
3, 57120, Note_on_c, 1, 35, 127
3, 57421, Note_off_c, 1, 35, 17
3, 57600, Note_on_c, 1, 33, 127
3, 57815, Note_off_c, 1, 33, 17
3, 57960, Note_on_c, 1, 33, 127
3, 58139, Note_off_c, 1, 33, 17
3, 58320, Note_on_c, 1, 33, 127
3, 58388, Note_off_c, 1, 33, 17
3, 58560, Note_on_c, 1, 33, 127
3, 58800, Note_off_c, 1, 33, 17
3, 59040, Note_on_c, 1, 33, 127
3, 59341, Note_off_c, 1, 33, 17
3, 59520, Note_on_c, 1, 33, 127
3, 59735, Note_off_c, 1, 33, 17
3, 59880, Note_on_c, 1, 33, 127
3, 60059, Note_off_c, 1, 33, 17
3, 60240, Note_on_c, 1, 33, 127
3, 60308, Note_off_c, 1, 33, 17
3, 60480, Note_on_c, 1, 33, 127
3, 60720, Note_off_c, 1, 33, 17
3, 60960, Note_on_c, 1, 33, 127
3, 61261, Note_off_c, 1, 33, 17
3, 61440, Note_on_c, 1, 28, 127
3, 61655, Note_off_c, 1, 28, 17
3, 61800, Note_on_c, 1, 28, 127
3, 61979, Note_off_c, 1, 28, 17
3, 62160, Note_on_c, 1, 28, 127
3, 62228, Note_off_c, 1, 28, 17
3, 62400, Note_on_c, 1, 28, 127
3, 62640, Note_off_c, 1, 28, 17
3, 62880, Note_on_c, 1, 28, 127
3, 63181, Note_off_c, 1, 28, 17
3, 63360, Note_on_c, 1, 28, 127
3, 63575, Note_off_c, 1, 28, 17
3, 63720, Note_on_c, 1, 28, 127
3, 63899, Note_off_c, 1, 28, 17
3, 64080, Note_on_c, 1, 28, 127
3, 64148, Note_off_c, 1, 28, 17
3, 64320, Note_on_c, 1, 28, 127
3, 64560, Note_off_c, 1, 28, 17
3, 64800, Note_on_c, 1, 28, 127
3, 65101, Note_off_c, 1, 28, 17
3, 65280, Note_on_c, 1, 33, 127
3, 65495, Note_off_c, 1, 33, 17
3, 65640, Note_on_c, 1, 33, 127
3, 65819, Note_off_c, 1, 33, 17
3, 66000, Note_on_c, 1, 33, 127
3, 66068, Note_off_c, 1, 33, 17
3, 66240, Note_on_c, 1, 33, 127
3, 66480, Note_off_c, 1, 33, 17
3, 66720, Note_on_c, 1, 33, 127
3, 67021, Note_off_c, 1, 33, 17
3, 67200, Note_on_c, 1, 33, 127
3, 67415, Note_off_c, 1, 33, 17
3, 67560, Note_on_c, 1, 33, 127
3, 67739, Note_off_c, 1, 33, 17
3, 67920, Note_on_c, 1, 33, 127
3, 67988, Note_off_c, 1, 33, 17
3, 68160, Note_on_c, 1, 33, 127
3, 68400, Note_off_c, 1, 33, 17
3, 68640, Note_on_c, 1, 33, 127
3, 68941, Note_off_c, 1, 33, 17
3, 69120, Note_on_c, 1, 37, 127
3, 69335, Note_off_c, 1, 37, 17
3, 69480, Note_on_c, 1, 37, 127
3, 69659, Note_off_c, 1, 37, 17
3, 69840, Note_on_c, 1, 37, 127
3, 69908, Note_off_c, 1, 37, 17
3, 70080, Note_on_c, 1, 37, 127
3, 70320, Note_off_c, 1, 37, 17
3, 70560, Note_on_c, 1, 37, 127
3, 70861, Note_off_c, 1, 37, 17
3, 71040, Note_on_c, 1, 35, 127
3, 71255, Note_off_c, 1, 35, 17
3, 71400, Note_on_c, 1, 35, 127
3, 71579, Note_off_c, 1, 35, 17
3, 71760, Note_on_c, 1, 35, 127
3, 71828, Note_off_c, 1, 35, 17
3, 72000, Note_on_c, 1, 35, 127
3, 72240, Note_off_c, 1, 35, 17
3, 72480, Note_on_c, 1, 35, 127
3, 72781, Note_off_c, 1, 35, 17
3, 72960, Note_on_c, 1, 33, 127
3, 73175, Note_off_c, 1, 33, 17
3, 73320, Note_on_c, 1, 33, 127
3, 73499, Note_off_c, 1, 33, 17
3, 73680, Note_on_c, 1, 33, 127
3, 73748, Note_off_c, 1, 33, 17
3, 73920, Note_on_c, 1, 33, 127
3, 74160, Note_off_c, 1, 33, 17
3, 74400, Note_on_c, 1, 33, 127
3, 74701, Note_off_c, 1, 33, 17
3, 74880, Note_on_c, 1, 33, 127
3, 75095, Note_off_c, 1, 33, 17
3, 75240, Note_on_c, 1, 33, 127
3, 75419, Note_off_c, 1, 33, 17
3, 75600, Note_on_c, 1, 33, 127
3, 75668, Note_off_c, 1, 33, 17
3, 75840, Note_on_c, 1, 33, 127
3, 76080, Note_off_c, 1, 33, 17
3, 76320, Note_on_c, 1, 33, 127
3, 76621, Note_off_c, 1, 33, 17
3, 76800, Note_on_c, 1, 28, 127
3, 77042, Note_off_c, 1, 28, 17
3, 77160, Note_on_c, 1, 28, 127
3, 77278, Note_off_c, 1, 28, 17
3, 78720, Note_on_c, 1, 28, 127
3, 78962, Note_off_c, 1, 28, 17
3, 79080, Note_on_c, 1, 28, 127
3, 79198, Note_off_c, 1, 28, 17
3, 80640, Note_on_c, 1, 28, 127
3, 80882, Note_off_c, 1, 28, 17
3, 81000, Note_on_c, 1, 28, 127
3, 81118, Note_off_c, 1, 28, 17
3, 82560, Note_on_c, 1, 28, 127
3, 82802, Note_off_c, 1, 28, 17
3, 82920, Note_on_c, 1, 28, 127
3, 83038, Note_off_c, 1, 28, 17
3, 84480, Note_on_c, 1, 33, 127
3, 84722, Note_off_c, 1, 33, 17
3, 84840, Note_on_c, 1, 33, 127
3, 84958, Note_off_c, 1, 33, 17
3, 86400, Note_on_c, 1, 33, 127
3, 86642, Note_off_c, 1, 33, 17
3, 86760, Note_on_c, 1, 33, 127
3, 86878, Note_off_c, 1, 33, 17
3, 87840, Note_on_c, 1, 33, 127
3, 88082, Note_off_c, 1, 33, 17
3, 88320, Note_on_c, 1, 28, 127
3, 88562, Note_off_c, 1, 28, 17
3, 88680, Note_on_c, 1, 28, 127
3, 88798, Note_off_c, 1, 28, 17
3, 90240, Note_on_c, 1, 28, 127
3, 90482, Note_off_c, 1, 28, 17
3, 90600, Note_on_c, 1, 28, 127
3, 90718, Note_off_c, 1, 28, 17
3, 92160, Note_on_c, 1, 37, 127
3, 92402, Note_off_c, 1, 37, 17
3, 92520, Note_on_c, 1, 37, 127
3, 92638, Note_off_c, 1, 37, 17
3, 92880, Note_on_c, 1, 37, 127
3, 92998, Note_off_c, 1, 37, 17
3, 93120, Note_on_c, 1, 37, 127
3, 93362, Note_off_c, 1, 37, 17
3, 93600, Note_on_c, 1, 37, 127
3, 93842, Note_off_c, 1, 37, 17
3, 94080, Note_on_c, 1, 35, 127
3, 94322, Note_off_c, 1, 35, 17
3, 94440, Note_on_c, 1, 35, 127
3, 94558, Note_off_c, 1, 35, 17
3, 94800, Note_on_c, 1, 35, 127
3, 94918, Note_off_c, 1, 35, 17
3, 95040, Note_on_c, 1, 35, 127
3, 95282, Note_off_c, 1, 35, 17
3, 95506, Pitch_bend_c, 1, 8192
3, 95517, Pitch_bend_c, 1, 8192
3, 95520, Note_on_c, 1, 35, 127
3, 95713, Pitch_bend_c, 1, 8064
3, 95731, Pitch_bend_c, 1, 7552
3, 95743, Pitch_bend_c, 1, 7168
3, 95756, Pitch_bend_c, 1, 6784
3, 95770, Pitch_bend_c, 1, 6400
3, 95781, Pitch_bend_c, 1, 5888
3, 95793, Pitch_bend_c, 1, 5504
3, 95808, Pitch_bend_c, 1, 4864
3, 95822, Pitch_bend_c, 1, 4224
3, 95835, Pitch_bend_c, 1, 3712
3, 95845, Pitch_bend_c, 1, 3072
3, 95858, Pitch_bend_c, 1, 2304
3, 95870, Pitch_bend_c, 1, 1536
3, 95883, Pitch_bend_c, 1, 640
3, 95894, Pitch_bend_c, 1, 0
3, 95964, Pitch_bend_c, 1, 7168
3, 95975, Pitch_bend_c, 1, 8192
3, 95996, Note_off_c, 1, 35, 17
3, 96000, Note_on_c, 1, 28, 127
3, 96215, Note_off_c, 1, 28, 17
3, 96360, Note_on_c, 1, 28, 127
3, 96539, Note_off_c, 1, 28, 17
3, 96720, Note_on_c, 1, 28, 127
3, 96788, Note_off_c, 1, 28, 17
3, 96960, Note_on_c, 1, 28, 127
3, 97200, Note_off_c, 1, 28, 17
3, 97440, Note_on_c, 1, 28, 127
3, 97741, Note_off_c, 1, 28, 17
3, 97920, Note_on_c, 1, 28, 127
3, 98135, Note_off_c, 1, 28, 17
3, 98280, Note_on_c, 1, 28, 127
3, 98459, Note_off_c, 1, 28, 17
3, 98640, Note_on_c, 1, 28, 127
3, 98708, Note_off_c, 1, 28, 17
3, 98880, Note_on_c, 1, 28, 127
3, 99120, Note_off_c, 1, 28, 17
3, 99360, Note_on_c, 1, 28, 127
3, 99661, Note_off_c, 1, 28, 17
3, 99840, Note_on_c, 1, 33, 127
3, 100055, Note_off_c, 1, 33, 17
3, 100200, Note_on_c, 1, 33, 127
3, 100379, Note_off_c, 1, 33, 17
3, 100560, Note_on_c, 1, 33, 127
3, 100628, Note_off_c, 1, 33, 17
3, 100800, Note_on_c, 1, 33, 127
3, 101040, Note_off_c, 1, 33, 17
3, 101280, Note_on_c, 1, 33, 127
3, 101581, Note_off_c, 1, 33, 17
3, 101760, Note_on_c, 1, 33, 127
3, 101975, Note_off_c, 1, 33, 17
3, 102120, Note_on_c, 1, 33, 127
3, 102299, Note_off_c, 1, 33, 17
3, 102480, Note_on_c, 1, 33, 127
3, 102548, Note_off_c, 1, 33, 17
3, 102720, Note_on_c, 1, 33, 127
3, 102960, Note_off_c, 1, 33, 17
3, 103200, Note_on_c, 1, 33, 127
3, 103501, Note_off_c, 1, 33, 17
3, 103680, Note_on_c, 1, 37, 127
3, 103895, Note_off_c, 1, 37, 17
3, 104040, Note_on_c, 1, 37, 127
3, 104219, Note_off_c, 1, 37, 17
3, 104400, Note_on_c, 1, 37, 127
3, 104468, Note_off_c, 1, 37, 17
3, 104640, Note_on_c, 1, 37, 127
3, 104880, Note_off_c, 1, 37, 17
3, 105120, Note_on_c, 1, 37, 127
3, 105421, Note_off_c, 1, 37, 17
3, 105600, Note_on_c, 1, 35, 127
3, 105815, Note_off_c, 1, 35, 17
3, 105960, Note_on_c, 1, 35, 127
3, 106139, Note_off_c, 1, 35, 17
3, 106320, Note_on_c, 1, 35, 127
3, 106388, Note_off_c, 1, 35, 17
3, 106560, Note_on_c, 1, 35, 127
3, 106800, Note_off_c, 1, 35, 17
3, 107040, Note_on_c, 1, 35, 127
3, 107341, Note_off_c, 1, 35, 17
3, 107520, Note_on_c, 1, 33, 127
3, 107735, Note_off_c, 1, 33, 17
3, 107880, Note_on_c, 1, 33, 127
3, 108059, Note_off_c, 1, 33, 17
3, 108240, Note_on_c, 1, 33, 127
3, 108308, Note_off_c, 1, 33, 17
3, 108480, Note_on_c, 1, 33, 127
3, 108720, Note_off_c, 1, 33, 17
3, 108960, Note_on_c, 1, 33, 127
3, 109261, Note_off_c, 1, 33, 17
3, 109440, Note_on_c, 1, 33, 127
3, 109655, Note_off_c, 1, 33, 17
3, 109800, Note_on_c, 1, 33, 127
3, 109979, Note_off_c, 1, 33, 17
3, 110160, Note_on_c, 1, 33, 127
3, 110228, Note_off_c, 1, 33, 17
3, 110400, Note_on_c, 1, 33, 127
3, 110640, Note_off_c, 1, 33, 17
3, 110880, Note_on_c, 1, 33, 127
3, 111181, Note_off_c, 1, 33, 17
3, 111360, Note_on_c, 1, 28, 127
3, 111575, Note_off_c, 1, 28, 17
3, 111720, Note_on_c, 1, 28, 127
3, 111899, Note_off_c, 1, 28, 17
3, 112080, Note_on_c, 1, 28, 127
3, 112148, Note_off_c, 1, 28, 17
3, 112320, Note_on_c, 1, 28, 127
3, 112560, Note_off_c, 1, 28, 17
3, 112800, Note_on_c, 1, 28, 127
3, 113101, Note_off_c, 1, 28, 17
3, 113280, Note_on_c, 1, 28, 127
3, 113495, Note_off_c, 1, 28, 17
3, 113640, Note_on_c, 1, 28, 127
3, 113819, Note_off_c, 1, 28, 17
3, 114000, Note_on_c, 1, 28, 127
3, 114068, Note_off_c, 1, 28, 17
3, 114240, Note_on_c, 1, 28, 127
3, 114480, Note_off_c, 1, 28, 17
3, 114720, Note_on_c, 1, 28, 127
3, 115021, Note_off_c, 1, 28, 17
3, 115200, Note_on_c, 1, 33, 127
3, 115415, Note_off_c, 1, 33, 17
3, 115560, Note_on_c, 1, 33, 127
3, 115739, Note_off_c, 1, 33, 17
3, 115920, Note_on_c, 1, 33, 127
3, 115988, Note_off_c, 1, 33, 17
3, 116160, Note_on_c, 1, 33, 127
3, 116400, Note_off_c, 1, 33, 17
3, 116640, Note_on_c, 1, 33, 127
3, 116941, Note_off_c, 1, 33, 17
3, 117120, Note_on_c, 1, 33, 127
3, 117335, Note_off_c, 1, 33, 17
3, 117480, Note_on_c, 1, 33, 127
3, 117659, Note_off_c, 1, 33, 17
3, 117840, Note_on_c, 1, 33, 127
3, 117908, Note_off_c, 1, 33, 17
3, 118080, Note_on_c, 1, 33, 127
3, 118320, Note_off_c, 1, 33, 17
3, 118560, Note_on_c, 1, 33, 127
3, 118861, Note_off_c, 1, 33, 17
3, 119040, Note_on_c, 1, 37, 127
3, 119255, Note_off_c, 1, 37, 17
3, 119400, Note_on_c, 1, 37, 127
3, 119579, Note_off_c, 1, 37, 17
3, 119760, Note_on_c, 1, 37, 127
3, 119828, Note_off_c, 1, 37, 17
3, 120000, Note_on_c, 1, 37, 127
3, 120240, Note_off_c, 1, 37, 17
3, 120480, Note_on_c, 1, 37, 127
3, 120781, Note_off_c, 1, 37, 17
3, 120960, Note_on_c, 1, 35, 127
3, 121175, Note_off_c, 1, 35, 17
3, 121320, Note_on_c, 1, 35, 127
3, 121499, Note_off_c, 1, 35, 17
3, 121680, Note_on_c, 1, 35, 127
3, 121748, Note_off_c, 1, 35, 17
3, 121920, Note_on_c, 1, 35, 127
3, 122160, Note_off_c, 1, 35, 17
3, 122400, Note_on_c, 1, 35, 127
3, 122701, Note_off_c, 1, 35, 17
3, 122880, Note_on_c, 1, 33, 127
3, 123095, Note_off_c, 1, 33, 17
3, 123240, Note_on_c, 1, 33, 127
3, 123419, Note_off_c, 1, 33, 17
3, 123600, Note_on_c, 1, 33, 127
3, 123668, Note_off_c, 1, 33, 17
3, 123840, Note_on_c, 1, 33, 127
3, 124080, Note_off_c, 1, 33, 17
3, 124320, Note_on_c, 1, 33, 127
3, 124621, Note_off_c, 1, 33, 17
3, 124800, Note_on_c, 1, 33, 127
3, 125015, Note_off_c, 1, 33, 17
3, 125160, Note_on_c, 1, 33, 127
3, 125339, Note_off_c, 1, 33, 17
3, 125520, Note_on_c, 1, 33, 127
3, 125588, Note_off_c, 1, 33, 17
3, 125760, Note_on_c, 1, 33, 127
3, 126000, Note_off_c, 1, 33, 17
3, 126240, Note_on_c, 1, 33, 127
3, 126541, Note_off_c, 1, 33, 17
3, 157440, Note_on_c, 1, 28, 127
3, 157655, Note_off_c, 1, 28, 17
3, 157800, Note_on_c, 1, 28, 127
3, 157979, Note_off_c, 1, 28, 17
3, 158160, Note_on_c, 1, 28, 127
3, 158228, Note_off_c, 1, 28, 17
3, 158400, Note_on_c, 1, 28, 127
3, 158640, Note_off_c, 1, 28, 17
3, 158880, Note_on_c, 1, 28, 127
3, 159181, Note_off_c, 1, 28, 17
3, 159360, Note_on_c, 1, 28, 127
3, 159575, Note_off_c, 1, 28, 17
3, 159720, Note_on_c, 1, 28, 127
3, 159899, Note_off_c, 1, 28, 17
3, 160080, Note_on_c, 1, 28, 127
3, 160148, Note_off_c, 1, 28, 17
3, 160320, Note_on_c, 1, 28, 127
3, 160560, Note_off_c, 1, 28, 17
3, 160800, Note_on_c, 1, 28, 127
3, 161101, Note_off_c, 1, 28, 17
3, 161280, Note_on_c, 1, 33, 127
3, 161495, Note_off_c, 1, 33, 17
3, 161640, Note_on_c, 1, 33, 127
3, 161819, Note_off_c, 1, 33, 17
3, 162000, Note_on_c, 1, 33, 127
3, 162068, Note_off_c, 1, 33, 17
3, 162240, Note_on_c, 1, 33, 127
3, 162480, Note_off_c, 1, 33, 17
3, 162720, Note_on_c, 1, 33, 127
3, 163021, Note_off_c, 1, 33, 17
3, 163200, Note_on_c, 1, 33, 127
3, 163415, Note_off_c, 1, 33, 17
3, 163560, Note_on_c, 1, 33, 127
3, 163739, Note_off_c, 1, 33, 17
3, 163920, Note_on_c, 1, 33, 127
3, 163988, Note_off_c, 1, 33, 17
3, 164160, Note_on_c, 1, 33, 127
3, 164400, Note_off_c, 1, 33, 17
3, 164640, Note_on_c, 1, 33, 127
3, 164941, Note_off_c, 1, 33, 17
3, 165120, Note_on_c, 1, 37, 127
3, 165335, Note_off_c, 1, 37, 17
3, 165480, Note_on_c, 1, 37, 127
3, 165659, Note_off_c, 1, 37, 17
3, 165840, Note_on_c, 1, 37, 127
3, 165908, Note_off_c, 1, 37, 17
3, 166080, Note_on_c, 1, 37, 127
3, 166320, Note_off_c, 1, 37, 17
3, 166560, Note_on_c, 1, 37, 127
3, 166861, Note_off_c, 1, 37, 17
3, 167040, Note_on_c, 1, 35, 127
3, 167255, Note_off_c, 1, 35, 17
3, 167400, Note_on_c, 1, 35, 127
3, 167579, Note_off_c, 1, 35, 17
3, 167760, Note_on_c, 1, 35, 127
3, 167828, Note_off_c, 1, 35, 17
3, 168000, Note_on_c, 1, 35, 127
3, 168240, Note_off_c, 1, 35, 17
3, 168480, Note_on_c, 1, 35, 127
3, 168781, Note_off_c, 1, 35, 17
3, 168960, Note_on_c, 1, 33, 127
3, 169175, Note_off_c, 1, 33, 17
3, 169320, Note_on_c, 1, 33, 127
3, 169499, Note_off_c, 1, 33, 17
3, 169680, Note_on_c, 1, 33, 127
3, 169748, Note_off_c, 1, 33, 17
3, 169920, Note_on_c, 1, 33, 127
3, 170160, Note_off_c, 1, 33, 17
3, 170400, Note_on_c, 1, 33, 127
3, 170701, Note_off_c, 1, 33, 17
3, 170880, Note_on_c, 1, 33, 127
3, 171095, Note_off_c, 1, 33, 17
3, 171240, Note_on_c, 1, 33, 127
3, 171419, Note_off_c, 1, 33, 17
3, 171600, Note_on_c, 1, 33, 127
3, 171668, Note_off_c, 1, 33, 17
3, 171840, Note_on_c, 1, 33, 127
3, 172080, Note_off_c, 1, 33, 17
3, 172320, Note_on_c, 1, 33, 127
3, 172621, Note_off_c, 1, 33, 17
3, 172800, Note_on_c, 1, 28, 127
3, 173015, Note_off_c, 1, 28, 17
3, 173160, Note_on_c, 1, 28, 127
3, 173339, Note_off_c, 1, 28, 17
3, 173520, Note_on_c, 1, 28, 127
3, 173588, Note_off_c, 1, 28, 17
3, 173760, Note_on_c, 1, 28, 127
3, 174000, Note_off_c, 1, 28, 17
3, 174240, Note_on_c, 1, 28, 127
3, 174541, Note_off_c, 1, 28, 17
3, 174720, Note_on_c, 1, 28, 127
3, 174935, Note_off_c, 1, 28, 17
3, 175080, Note_on_c, 1, 28, 127
3, 175259, Note_off_c, 1, 28, 17
3, 175440, Note_on_c, 1, 28, 127
3, 175508, Note_off_c, 1, 28, 17
3, 175680, Note_on_c, 1, 28, 127
3, 175920, Note_off_c, 1, 28, 17
3, 176160, Note_on_c, 1, 28, 127
3, 176461, Note_off_c, 1, 28, 17
3, 176640, Note_on_c, 1, 33, 127
3, 176855, Note_off_c, 1, 33, 17
3, 177000, Note_on_c, 1, 33, 127
3, 177179, Note_off_c, 1, 33, 17
3, 177360, Note_on_c, 1, 33, 127
3, 177428, Note_off_c, 1, 33, 17
3, 177600, Note_on_c, 1, 33, 127
3, 177840, Note_off_c, 1, 33, 17
3, 178080, Note_on_c, 1, 33, 127
3, 178381, Note_off_c, 1, 33, 17
3, 178560, Note_on_c, 1, 33, 127
3, 178775, Note_off_c, 1, 33, 17
3, 178920, Note_on_c, 1, 33, 127
3, 179099, Note_off_c, 1, 33, 17
3, 179280, Note_on_c, 1, 33, 127
3, 179348, Note_off_c, 1, 33, 17
3, 179520, Note_on_c, 1, 33, 127
3, 179760, Note_off_c, 1, 33, 17
3, 180000, Note_on_c, 1, 33, 127
3, 180301, Note_off_c, 1, 33, 17
3, 180480, Note_on_c, 1, 37, 127
3, 180695, Note_off_c, 1, 37, 17
3, 180840, Note_on_c, 1, 37, 127
3, 181019, Note_off_c, 1, 37, 17
3, 181200, Note_on_c, 1, 37, 127
3, 181268, Note_off_c, 1, 37, 17
3, 181440, Note_on_c, 1, 37, 127
3, 181680, Note_off_c, 1, 37, 17
3, 181920, Note_on_c, 1, 37, 127
3, 182221, Note_off_c, 1, 37, 17
3, 182400, Note_on_c, 1, 35, 127
3, 182615, Note_off_c, 1, 35, 17
3, 182760, Note_on_c, 1, 35, 127
3, 182939, Note_off_c, 1, 35, 17
3, 183120, Note_on_c, 1, 35, 127
3, 183188, Note_off_c, 1, 35, 17
3, 183360, Note_on_c, 1, 35, 127
3, 183600, Note_off_c, 1, 35, 17
3, 183840, Note_on_c, 1, 35, 127
3, 184141, Note_off_c, 1, 35, 17
3, 184320, Note_on_c, 1, 33, 127
3, 184535, Note_off_c, 1, 33, 17
3, 184680, Note_on_c, 1, 33, 127
3, 184859, Note_off_c, 1, 33, 17
3, 185040, Note_on_c, 1, 33, 127
3, 185108, Note_off_c, 1, 33, 17
3, 185280, Note_on_c, 1, 33, 127
3, 185520, Note_off_c, 1, 33, 17
3, 185760, Note_on_c, 1, 33, 127
3, 186061, Note_off_c, 1, 33, 17
3, 186240, Note_on_c, 1, 33, 127
3, 186455, Note_off_c, 1, 33, 17
3, 186600, Note_on_c, 1, 33, 127
3, 186779, Note_off_c, 1, 33, 17
3, 186960, Note_on_c, 1, 33, 127
3, 187028, Note_off_c, 1, 33, 17
3, 187200, Note_on_c, 1, 33, 127
3, 187440, Note_off_c, 1, 33, 17
3, 187680, Note_on_c, 1, 33, 127
3, 187981, Note_off_c, 1, 33, 17
3, 190560, Control_c, 1, 123, 0
3, 190920, Control_c, 1, 120, 0
3, 190932, End_track
4, 0, Start_track
4, 0, MIDI_port, 0
4, 0, Title_t, "Syn.Strings1"
4, 254, Control_c, 2, 121, 0
4, 304, Program_c, 2, 50
4, 384, Control_c, 2, 7, 67
4, 416, Control_c, 2, 10, 44
4, 448, Control_c, 2, 11, 127
4, 480, Control_c, 2, 91, 77
4, 512, Control_c, 2, 93, 26
4, 544, Control_c, 2, 1, 0
4, 576, Control_c, 2, 64, 0
4, 608, Control_c, 2, 71, 64
4, 640, Control_c, 2, 72, 64
4, 672, Control_c, 2, 73, 64
4, 704, Control_c, 2, 74, 64
4, 736, Control_c, 2, 94, 0
4, 768, Pitch_bend_c, 2, 8192
4, 930, Control_c, 2, 99, 1
4, 930, Control_c, 2, 98, 99
4, 930, Control_c, 2, 6, 60
4, 930, Control_c, 2, 38, 0
4, 46080, Note_on_c, 2, 64, 92
4, 46080, Note_on_c, 2, 68, 92
4, 49920, Note_on_c, 2, 61, 92
4, 49920, Note_on_c, 2, 64, 92
4, 49924, Note_off_c, 2, 68, 17
4, 49924, Note_off_c, 2, 64, 17
4, 53760, Note_on_c, 2, 64, 92
4, 53760, Note_on_c, 2, 68, 92
4, 53764, Note_off_c, 2, 61, 17
4, 53764, Note_off_c, 2, 64, 17
4, 55680, Note_on_c, 2, 63, 92
4, 55680, Note_on_c, 2, 66, 92
4, 55684, Note_off_c, 2, 64, 17
4, 55684, Note_off_c, 2, 68, 17
4, 56636, Note_off_c, 2, 63, 17
4, 56640, Note_on_c, 2, 64, 92
4, 57116, Note_off_c, 2, 64, 17
4, 57120, Note_on_c, 2, 63, 92
4, 57596, Note_off_c, 2, 63, 17
4, 57600, Note_on_c, 2, 61, 92
4, 57600, Note_on_c, 2, 64, 92
4, 57604, Note_off_c, 2, 66, 17
4, 61440, Note_on_c, 2, 64, 92
4, 61440, Note_on_c, 2, 68, 92
4, 61444, Note_off_c, 2, 61, 17
4, 61444, Note_off_c, 2, 64, 17
4, 65280, Note_on_c, 2, 61, 92
4, 65280, Note_on_c, 2, 64, 92
4, 65284, Note_off_c, 2, 68, 17
4, 65284, Note_off_c, 2, 64, 17
4, 69120, Note_on_c, 2, 64, 92
4, 69120, Note_on_c, 2, 68, 92
4, 69124, Note_off_c, 2, 64, 17
4, 69124, Note_off_c, 2, 61, 17
4, 71040, Note_on_c, 2, 63, 92
4, 71040, Note_on_c, 2, 66, 92
4, 71044, Note_off_c, 2, 68, 17
4, 71044, Note_off_c, 2, 64, 17
4, 71996, Note_off_c, 2, 63, 17
4, 72000, Note_on_c, 2, 64, 92
4, 72476, Note_off_c, 2, 64, 17
4, 72480, Note_on_c, 2, 63, 92
4, 72956, Note_off_c, 2, 63, 17
4, 72960, Note_on_c, 2, 61, 92
4, 72960, Note_on_c, 2, 64, 92
4, 72964, Note_off_c, 2, 66, 17
4, 76804, Note_off_c, 2, 64, 17
4, 76804, Note_off_c, 2, 61, 17
4, 96000, Note_on_c, 2, 64, 92
4, 96000, Note_on_c, 2, 68, 92
4, 99840, Note_on_c, 2, 61, 92
4, 99840, Note_on_c, 2, 64, 92
4, 99844, Note_off_c, 2, 64, 17
4, 99844, Note_off_c, 2, 68, 17
4, 103680, Note_on_c, 2, 64, 92
4, 103680, Note_on_c, 2, 68, 92
4, 103684, Note_off_c, 2, 61, 17
4, 103684, Note_off_c, 2, 64, 17
4, 105600, Note_on_c, 2, 63, 92
4, 105600, Note_on_c, 2, 66, 92
4, 105604, Note_off_c, 2, 64, 17
4, 105604, Note_off_c, 2, 68, 17
4, 106556, Note_off_c, 2, 63, 17
4, 106560, Note_on_c, 2, 64, 92
4, 107036, Note_off_c, 2, 64, 17
4, 107040, Note_on_c, 2, 63, 92
4, 107516, Note_off_c, 2, 63, 17
4, 107520, Note_on_c, 2, 61, 92
4, 107520, Note_on_c, 2, 64, 92
4, 107524, Note_off_c, 2, 66, 17
4, 111360, Note_on_c, 2, 64, 92
4, 111360, Note_on_c, 2, 68, 92
4, 111364, Note_off_c, 2, 61, 17
4, 111364, Note_off_c, 2, 64, 17
4, 115200, Note_on_c, 2, 61, 92
4, 115200, Note_on_c, 2, 64, 92
4, 115204, Note_off_c, 2, 68, 17
4, 115204, Note_off_c, 2, 64, 17
4, 119040, Note_on_c, 2, 64, 92
4, 119040, Note_on_c, 2, 68, 92
4, 119044, Note_off_c, 2, 64, 17
4, 119044, Note_off_c, 2, 61, 17
4, 120960, Note_on_c, 2, 63, 92
4, 120960, Note_on_c, 2, 66, 92
4, 120964, Note_off_c, 2, 68, 17
4, 120964, Note_off_c, 2, 64, 17
4, 121916, Note_off_c, 2, 63, 17
4, 121920, Note_on_c, 2, 64, 92
4, 122396, Note_off_c, 2, 64, 17
4, 122400, Note_on_c, 2, 63, 92
4, 122876, Note_off_c, 2, 63, 17
4, 122880, Note_on_c, 2, 61, 92
4, 122880, Note_on_c, 2, 64, 92
4, 122884, Note_off_c, 2, 66, 17
4, 126724, Note_off_c, 2, 61, 17
4, 126724, Note_off_c, 2, 64, 17
4, 142080, Note_on_c, 2, 52, 104
4, 142080, Note_on_c, 2, 64, 104
4, 142080, Note_on_c, 2, 68, 117
4, 142080, Note_on_c, 2, 71, 109
4, 144956, Note_off_c, 2, 71, 17
4, 144956, Note_off_c, 2, 68, 17
4, 144956, Note_off_c, 2, 64, 17
4, 144960, Note_on_c, 2, 66, 104
4, 144960, Note_on_c, 2, 71, 75
4, 145436, Note_off_c, 2, 66, 17
4, 145440, Note_on_c, 2, 64, 93
4, 145440, Note_on_c, 2, 68, 104
4, 145916, Note_off_c, 2, 71, 17
4, 145916, Note_off_c, 2, 52, 17
4, 145920, Note_on_c, 2, 45, 104
4, 145920, Note_on_c, 2, 61, 114
4, 145920, Note_on_c, 2, 64, 101
4, 145920, Note_on_c, 2, 68, 104
4, 145935, Note_off_c, 2, 64, 17
4, 145935, Note_off_c, 2, 68, 17
4, 148796, Note_off_c, 2, 64, 17
4, 148796, Note_off_c, 2, 61, 17
4, 148796, Note_off_c, 2, 68, 17
4, 148800, Note_on_c, 2, 63, 101
4, 148800, Note_on_c, 2, 66, 111
4, 149276, Note_off_c, 2, 63, 17
4, 149276, Note_off_c, 2, 66, 17
4, 149280, Note_on_c, 2, 61, 106
4, 149280, Note_on_c, 2, 64, 111
4, 149280, Note_on_c, 2, 68, 111
4, 149756, Note_off_c, 2, 61, 17
4, 149756, Note_off_c, 2, 64, 17
4, 149756, Note_off_c, 2, 68, 17
4, 149756, Note_off_c, 2, 45, 17
4, 149760, Note_on_c, 2, 49, 104
4, 149760, Note_on_c, 2, 59, 101
4, 149760, Note_on_c, 2, 64, 101
4, 149760, Note_on_c, 2, 68, 97
4, 151676, Note_off_c, 2, 59, 17
4, 151676, Note_off_c, 2, 49, 17
4, 151676, Note_off_c, 2, 64, 17
4, 151676, Note_off_c, 2, 68, 17
4, 151680, Note_on_c, 2, 47, 104
4, 151680, Note_on_c, 2, 59, 101
4, 151680, Note_on_c, 2, 64, 109
4, 151680, Note_on_c, 2, 66, 104
4, 153596, Note_off_c, 2, 47, 17
4, 153596, Note_off_c, 2, 64, 17
4, 153596, Note_off_c, 2, 66, 17
4, 153596, Note_off_c, 2, 59, 17
4, 153600, Note_on_c, 2, 45, 104
4, 153600, Note_on_c, 2, 61, 97
4, 153600, Note_on_c, 2, 64, 106
4, 153600, Note_on_c, 2, 68, 106
4, 157436, Note_off_c, 2, 68, 17
4, 157436, Note_off_c, 2, 64, 17
4, 157436, Note_off_c, 2, 45, 17
4, 157436, Note_off_c, 2, 61, 17
4, 157440, Note_on_c, 2, 64, 92
4, 157440, Note_on_c, 2, 68, 92
4, 161280, Note_on_c, 2, 61, 92
4, 161280, Note_on_c, 2, 64, 92
4, 161284, Note_off_c, 2, 64, 17
4, 161284, Note_off_c, 2, 68, 17
4, 165120, Note_on_c, 2, 64, 92
4, 165120, Note_on_c, 2, 68, 92
4, 165124, Note_off_c, 2, 64, 17
4, 165124, Note_off_c, 2, 61, 17
4, 167040, Note_on_c, 2, 63, 92
4, 167040, Note_on_c, 2, 66, 92
4, 167044, Note_off_c, 2, 68, 17
4, 167044, Note_off_c, 2, 64, 17
4, 167996, Note_off_c, 2, 63, 17
4, 168000, Note_on_c, 2, 64, 92
4, 168476, Note_off_c, 2, 64, 17
4, 168480, Note_on_c, 2, 63, 92
4, 168956, Note_off_c, 2, 63, 17
4, 168960, Note_on_c, 2, 61, 92
4, 168960, Note_on_c, 2, 64, 92
4, 168964, Note_off_c, 2, 66, 17
4, 172800, Note_on_c, 2, 64, 92
4, 172800, Note_on_c, 2, 68, 92
4, 172804, Note_off_c, 2, 64, 17
4, 172804, Note_off_c, 2, 61, 17
4, 176640, Note_on_c, 2, 61, 92
4, 176640, Note_on_c, 2, 64, 92
4, 176644, Note_off_c, 2, 64, 17
4, 176644, Note_off_c, 2, 68, 17
4, 180480, Note_on_c, 2, 64, 92
4, 180480, Note_on_c, 2, 68, 92
4, 180484, Note_off_c, 2, 61, 17
4, 180484, Note_off_c, 2, 64, 17
4, 182400, Note_on_c, 2, 63, 92
4, 182400, Note_on_c, 2, 66, 92
4, 182404, Note_off_c, 2, 64, 17
4, 182404, Note_off_c, 2, 68, 17
4, 183356, Note_off_c, 2, 63, 17
4, 183360, Note_on_c, 2, 64, 92
4, 183836, Note_off_c, 2, 64, 17
4, 183840, Note_on_c, 2, 63, 92
4, 184316, Note_off_c, 2, 63, 17
4, 184320, Note_on_c, 2, 61, 92
4, 184320, Note_on_c, 2, 64, 92
4, 184324, Note_off_c, 2, 66, 17
4, 188164, Note_off_c, 2, 64, 17
4, 188164, Note_off_c, 2, 61, 17
4, 190565, Control_c, 2, 123, 0
4, 190925, Control_c, 2, 120, 0
4, 190932, End_track
5, 0, Start_track
5, 0, MIDI_port, 0
5, 0, Title_t, "Flute"
5, 256, Control_c, 3, 121, 0
5, 306, Program_c, 3, 73
5, 386, Control_c, 3, 7, 108
5, 418, Control_c, 3, 10, 63
5, 450, Control_c, 3, 11, 127
5, 482, Control_c, 3, 91, 93
5, 514, Control_c, 3, 93, 13
5, 546, Control_c, 3, 1, 0
5, 578, Control_c, 3, 64, 0
5, 610, Control_c, 3, 71, 64
5, 642, Control_c, 3, 72, 64
5, 674, Control_c, 3, 73, 64
5, 706, Control_c, 3, 74, 64
5, 738, Control_c, 3, 94, 0
5, 770, Pitch_bend_c, 3, 8192
5, 3600, Note_on_c, 3, 76, 119
5, 3669, Note_off_c, 3, 76, 17
5, 3720, Note_on_c, 3, 76, 127
5, 3779, Note_off_c, 3, 76, 17
5, 3840, Note_on_c, 3, 76, 127
5, 4012, Note_off_c, 3, 76, 17
5, 4080, Note_on_c, 3, 76, 109
5, 4165, Note_off_c, 3, 76, 17
5, 4200, Note_on_c, 3, 76, 127
5, 4263, Note_off_c, 3, 76, 17
5, 4320, Note_on_c, 3, 76, 127
5, 4465, Note_off_c, 3, 76, 17
5, 4560, Note_on_c, 3, 76, 109
5, 4631, Note_off_c, 3, 76, 17
5, 4680, Note_on_c, 3, 76, 127
5, 4731, Note_off_c, 3, 76, 17
5, 4800, Note_on_c, 3, 76, 122
5, 4904, Note_off_c, 3, 76, 17
5, 5040, Note_on_c, 3, 76, 117
5, 5138, Note_off_c, 3, 76, 17
5, 5280, Note_on_c, 3, 76, 125
5, 5580, Note_off_c, 3, 76, 17
5, 7440, Note_on_c, 3, 76, 119
5, 7509, Note_off_c, 3, 76, 17
5, 7560, Note_on_c, 3, 76, 127
5, 7619, Note_off_c, 3, 76, 17
5, 7680, Note_on_c, 3, 76, 127
5, 7852, Note_off_c, 3, 76, 17
5, 7920, Note_on_c, 3, 76, 109
5, 8005, Note_off_c, 3, 76, 17
5, 8040, Note_on_c, 3, 76, 127
5, 8103, Note_off_c, 3, 76, 17
5, 8160, Note_on_c, 3, 76, 127
5, 8305, Note_off_c, 3, 76, 17
5, 8400, Note_on_c, 3, 76, 109
5, 8471, Note_off_c, 3, 76, 17
5, 8520, Note_on_c, 3, 76, 127
5, 8571, Note_off_c, 3, 76, 17
5, 8640, Note_on_c, 3, 76, 122
5, 8744, Note_off_c, 3, 76, 17
5, 8880, Note_on_c, 3, 76, 117
5, 8978, Note_off_c, 3, 76, 17
5, 9120, Note_on_c, 3, 76, 125
5, 9420, Note_off_c, 3, 76, 17
5, 11040, Note_on_c, 3, 78, 122
5, 11199, Note_off_c, 3, 78, 17
5, 11280, Note_on_c, 3, 78, 116
5, 11349, Note_off_c, 3, 78, 17
5, 11520, Note_on_c, 3, 78, 122
5, 11754, Note_off_c, 3, 78, 17
5, 11760, Note_on_c, 3, 80, 119
5, 11929, Note_off_c, 3, 80, 17
5, 12960, Note_on_c, 3, 78, 119
5, 13058, Note_off_c, 3, 78, 17
5, 13200, Note_on_c, 3, 78, 116
5, 13311, Note_off_c, 3, 78, 17
5, 13440, Note_on_c, 3, 78, 119
5, 13871, Note_off_c, 3, 78, 17
5, 13920, Note_on_c, 3, 80, 122
5, 14275, Note_off_c, 3, 80, 17
5, 14400, Note_on_c, 3, 73, 116
5, 14621, Note_off_c, 3, 73, 17
5, 14640, Note_on_c, 3, 71, 114
5, 14880, Note_on_c, 3, 78, 122
5, 14894, Note_off_c, 3, 71, 17
5, 15039, Note_off_c, 3, 78, 17
5, 15120, Note_on_c, 3, 78, 116
5, 15189, Note_off_c, 3, 78, 17
5, 15360, Note_on_c, 3, 78, 122
5, 15594, Note_off_c, 3, 78, 17
5, 15600, Note_on_c, 3, 80, 119
5, 15769, Note_off_c, 3, 80, 17
5, 16800, Note_on_c, 3, 78, 119
5, 16898, Note_off_c, 3, 78, 17
5, 17040, Note_on_c, 3, 78, 116
5, 17151, Note_off_c, 3, 78, 17
5, 17280, Note_on_c, 3, 78, 119
5, 17711, Note_off_c, 3, 78, 17
5, 17760, Note_on_c, 3, 80, 122
5, 18115, Note_off_c, 3, 80, 17
5, 18240, Note_on_c, 3, 73, 116
5, 18461, Note_off_c, 3, 73, 17
5, 18480, Note_on_c, 3, 71, 114
5, 18720, Note_on_c, 3, 78, 119
5, 18734, Note_off_c, 3, 71, 17
5, 18903, Note_off_c, 3, 78, 17
5, 18960, Note_on_c, 3, 78, 116
5, 19156, Note_off_c, 3, 78, 17
5, 19200, Note_on_c, 3, 78, 119
5, 19436, Note_off_c, 3, 78, 17
5, 19440, Note_on_c, 3, 76, 122
5, 19795, Note_off_c, 3, 76, 17
5, 20640, Note_on_c, 3, 78, 119
5, 20823, Note_off_c, 3, 78, 17
5, 20880, Note_on_c, 3, 78, 116
5, 21076, Note_off_c, 3, 78, 17
5, 21120, Note_on_c, 3, 78, 119
5, 21356, Note_off_c, 3, 78, 17
5, 21360, Note_on_c, 3, 76, 122
5, 21715, Note_off_c, 3, 76, 17
5, 21840, Note_on_c, 3, 76, 122
5, 21916, Note_off_c, 3, 76, 17
5, 21960, Note_on_c, 3, 76, 122
5, 22036, Note_off_c, 3, 76, 17
5, 22080, Note_on_c, 3, 76, 122
5, 22436, Note_off_c, 3, 76, 17
5, 22440, Note_on_c, 3, 69, 122
5, 22796, Note_off_c, 3, 69, 17
5, 22800, Note_on_c, 3, 68, 122
5, 23395, Note_off_c, 3, 68, 17
5, 26400, Note_on_c, 3, 78, 122
5, 26559, Note_off_c, 3, 78, 17
5, 26640, Note_on_c, 3, 78, 116
5, 26709, Note_off_c, 3, 78, 17
5, 26880, Note_on_c, 3, 78, 122
5, 27114, Note_off_c, 3, 78, 17
5, 27120, Note_on_c, 3, 80, 119
5, 27289, Note_off_c, 3, 80, 17
5, 28320, Note_on_c, 3, 78, 119
5, 28418, Note_off_c, 3, 78, 17
5, 28560, Note_on_c, 3, 78, 116
5, 28671, Note_off_c, 3, 78, 17
5, 28800, Note_on_c, 3, 78, 119
5, 29231, Note_off_c, 3, 78, 17
5, 29280, Note_on_c, 3, 80, 122
5, 29635, Note_off_c, 3, 80, 17
5, 29760, Note_on_c, 3, 73, 116
5, 29981, Note_off_c, 3, 73, 17
5, 30000, Note_on_c, 3, 71, 114
5, 30240, Note_on_c, 3, 78, 122
5, 30254, Note_off_c, 3, 71, 17
5, 30399, Note_off_c, 3, 78, 17
5, 30480, Note_on_c, 3, 78, 116
5, 30549, Note_off_c, 3, 78, 17
5, 30720, Note_on_c, 3, 78, 122
5, 30954, Note_off_c, 3, 78, 17
5, 30960, Note_on_c, 3, 80, 119
5, 31129, Note_off_c, 3, 80, 17
5, 32160, Note_on_c, 3, 78, 119
5, 32258, Note_off_c, 3, 78, 17
5, 32400, Note_on_c, 3, 78, 116
5, 32511, Note_off_c, 3, 78, 17
5, 32640, Note_on_c, 3, 78, 119
5, 33071, Note_off_c, 3, 78, 17
5, 33120, Note_on_c, 3, 80, 122
5, 33475, Note_off_c, 3, 80, 17
5, 33600, Note_on_c, 3, 73, 116
5, 33821, Note_off_c, 3, 73, 17
5, 33840, Note_on_c, 3, 71, 114
5, 34080, Note_on_c, 3, 78, 119
5, 34094, Note_off_c, 3, 71, 17
5, 34263, Note_off_c, 3, 78, 17
5, 34320, Note_on_c, 3, 78, 116
5, 34516, Note_off_c, 3, 78, 17
5, 34560, Note_on_c, 3, 78, 119
5, 34796, Note_off_c, 3, 78, 17
5, 34800, Note_on_c, 3, 76, 122
5, 35155, Note_off_c, 3, 76, 17
5, 35760, Note_on_c, 3, 69, 114
5, 36000, Note_on_c, 3, 78, 119
5, 36014, Note_off_c, 3, 69, 17
5, 36183, Note_off_c, 3, 78, 17
5, 36240, Note_on_c, 3, 78, 116
5, 36436, Note_off_c, 3, 78, 17
5, 36480, Note_on_c, 3, 78, 119
5, 36716, Note_off_c, 3, 78, 17
5, 36720, Note_on_c, 3, 76, 122
5, 37075, Note_off_c, 3, 76, 17
5, 37200, Note_on_c, 3, 76, 122
5, 37276, Note_off_c, 3, 76, 17
5, 37314, Note_on_c, 3, 76, 122
5, 37390, Note_off_c, 3, 76, 17
5, 37440, Note_on_c, 3, 76, 122
5, 37796, Note_off_c, 3, 76, 17
5, 37800, Note_on_c, 3, 69, 122
5, 38156, Note_off_c, 3, 69, 17
5, 38160, Note_on_c, 3, 68, 122
5, 38515, Note_off_c, 3, 68, 17
5, 42000, Note_on_c, 3, 71, 127
5, 42051, Note_off_c, 3, 71, 17
5, 42120, Note_on_c, 3, 71, 122
5, 42199, Note_off_c, 3, 71, 17
5, 42240, Note_on_c, 3, 76, 127
5, 42380, Note_off_c, 3, 76, 17
5, 42480, Note_on_c, 3, 76, 117
5, 42543, Note_off_c, 3, 76, 17
5, 42600, Note_on_c, 3, 76, 114
5, 42659, Note_off_c, 3, 76, 17
5, 42720, Note_on_c, 3, 76, 122
5, 42904, Note_off_c, 3, 76, 17
5, 42960, Note_on_c, 3, 76, 106
5, 43022, Note_off_c, 3, 76, 17
5, 43080, Note_on_c, 3, 76, 122
5, 43148, Note_off_c, 3, 76, 17
5, 43200, Note_on_c, 3, 76, 114
5, 43355, Note_off_c, 3, 76, 17
5, 43440, Note_on_c, 3, 76, 111
5, 43502, Note_off_c, 3, 76, 17
5, 43560, Note_on_c, 3, 76, 114
5, 43624, Note_off_c, 3, 76, 17
5, 43680, Note_on_c, 3, 76, 122
5, 43890, Note_off_c, 3, 76, 17
5, 43920, Note_on_c, 3, 71, 127
5, 44002, Note_off_c, 3, 71, 17
5, 44160, Note_on_c, 3, 71, 125
5, 44400, Note_off_c, 3, 71, 17
5, 44400, Note_on_c, 3, 73, 102
5, 44707, Note_off_c, 3, 73, 17
5, 46320, Note_on_c, 3, 83, 127
5, 46398, Note_off_c, 3, 83, 17
5, 46440, Note_on_c, 3, 83, 127
5, 46521, Note_off_c, 3, 83, 17
5, 46560, Note_on_c, 3, 83, 127
5, 46730, Note_off_c, 3, 83, 17
5, 46800, Note_on_c, 3, 76, 125
5, 46857, Note_off_c, 3, 76, 17
5, 46920, Note_on_c, 3, 76, 122
5, 46994, Note_off_c, 3, 76, 17
5, 47040, Note_on_c, 3, 76, 127
5, 47149, Note_off_c, 3, 76, 17
5, 47280, Note_on_c, 3, 76, 127
5, 47433, Note_off_c, 3, 76, 17
5, 47520, Note_on_c, 3, 78, 126
5, 47750, Note_off_c, 3, 78, 17
5, 47760, Note_on_c, 3, 80, 119
5, 47911, Note_off_c, 3, 80, 17
5, 48240, Note_on_c, 3, 83, 127
5, 48318, Note_off_c, 3, 83, 17
5, 48360, Note_on_c, 3, 83, 127
5, 48441, Note_off_c, 3, 83, 17
5, 48480, Note_on_c, 3, 83, 127
5, 48650, Note_off_c, 3, 83, 17
5, 48720, Note_on_c, 3, 76, 125
5, 48777, Note_off_c, 3, 76, 17
5, 48840, Note_on_c, 3, 76, 122
5, 48914, Note_off_c, 3, 76, 17
5, 48960, Note_on_c, 3, 76, 127
5, 49069, Note_off_c, 3, 76, 17
5, 49200, Note_on_c, 3, 78, 127
5, 49353, Note_off_c, 3, 78, 17
5, 49440, Note_on_c, 3, 80, 122
5, 49680, Note_on_c, 3, 78, 119
5, 49703, Note_off_c, 3, 80, 17
5, 49777, Note_off_c, 3, 78, 17
5, 49800, Note_on_c, 3, 76, 127
5, 49889, Note_off_c, 3, 76, 17
5, 50160, Note_on_c, 3, 83, 127
5, 50238, Note_off_c, 3, 83, 17
5, 50280, Note_on_c, 3, 83, 127
5, 50361, Note_off_c, 3, 83, 17
5, 50400, Note_on_c, 3, 83, 127
5, 50570, Note_off_c, 3, 83, 17
5, 50640, Note_on_c, 3, 76, 125
5, 50697, Note_off_c, 3, 76, 17
5, 50760, Note_on_c, 3, 76, 122
5, 50834, Note_off_c, 3, 76, 17
5, 50880, Note_on_c, 3, 76, 127
5, 50989, Note_off_c, 3, 76, 17
5, 51120, Note_on_c, 3, 76, 127
5, 51273, Note_off_c, 3, 76, 17
5, 51360, Note_on_c, 3, 78, 126
5, 51590, Note_off_c, 3, 78, 17
5, 51600, Note_on_c, 3, 80, 119
5, 51751, Note_off_c, 3, 80, 17
5, 52080, Note_on_c, 3, 83, 127
5, 52158, Note_off_c, 3, 83, 17
5, 52200, Note_on_c, 3, 83, 127
5, 52281, Note_off_c, 3, 83, 17
5, 52320, Note_on_c, 3, 83, 127
5, 52490, Note_off_c, 3, 83, 17
5, 52560, Note_on_c, 3, 76, 125
5, 52617, Note_off_c, 3, 76, 17
5, 52680, Note_on_c, 3, 76, 122
5, 52754, Note_off_c, 3, 76, 17
5, 52800, Note_on_c, 3, 76, 127
5, 52909, Note_off_c, 3, 76, 17
5, 53040, Note_on_c, 3, 78, 127
5, 53193, Note_off_c, 3, 78, 17
5, 53280, Note_on_c, 3, 80, 122
5, 53520, Note_on_c, 3, 78, 119
5, 53543, Note_off_c, 3, 80, 17
5, 53617, Note_off_c, 3, 78, 17
5, 53640, Note_on_c, 3, 76, 127
5, 53729, Note_off_c, 3, 76, 17
5, 54000, Note_on_c, 3, 83, 127
5, 54204, Note_off_c, 3, 83, 17
5, 54240, Note_on_c, 3, 80, 116
5, 54391, Note_off_c, 3, 80, 17
5, 54480, Note_on_c, 3, 85, 119
5, 54669, Note_off_c, 3, 85, 17
5, 54720, Note_on_c, 3, 83, 127
5, 54933, Note_off_c, 3, 83, 17
5, 54960, Note_on_c, 3, 78, 116
5, 55043, Note_off_c, 3, 78, 17
5, 55200, Note_on_c, 3, 78, 119
5, 55440, Note_on_c, 3, 76, 122
5, 55462, Note_off_c, 3, 78, 17
5, 55644, Note_off_c, 3, 76, 17
5, 55920, Note_on_c, 3, 83, 127
5, 56124, Note_off_c, 3, 83, 17
5, 56160, Note_on_c, 3, 80, 116
5, 56311, Note_off_c, 3, 80, 17
5, 56400, Note_on_c, 3, 85, 119
5, 56589, Note_off_c, 3, 85, 17
5, 56640, Note_on_c, 3, 83, 127
5, 56853, Note_off_c, 3, 83, 17
5, 56880, Note_on_c, 3, 78, 116
5, 56963, Note_off_c, 3, 78, 17
5, 57120, Note_on_c, 3, 80, 126
5, 57236, Note_off_c, 3, 80, 17
5, 57240, Note_on_c, 3, 78, 122
5, 57356, Note_off_c, 3, 78, 17
5, 57360, Note_on_c, 3, 76, 117
5, 57476, Note_off_c, 3, 76, 17
5, 57480, Note_on_c, 3, 78, 122
5, 57596, Note_off_c, 3, 78, 17
5, 57600, Note_on_c, 3, 80, 119
5, 57834, Note_off_c, 3, 80, 17
5, 57840, Note_on_c, 3, 76, 119
5, 57900, Note_off_c, 3, 76, 17
5, 57960, Note_on_c, 3, 76, 119
5, 58170, Note_off_c, 3, 76, 17
5, 58200, Note_on_c, 3, 73, 110
5, 58256, Note_off_c, 3, 73, 17
5, 58320, Note_on_c, 3, 73, 122
5, 58756, Note_off_c, 3, 73, 17
5, 58800, Note_on_c, 3, 71, 106
5, 59276, Note_off_c, 3, 71, 17
5, 59280, Note_on_c, 3, 76, 117
5, 59396, Note_off_c, 3, 76, 17
5, 59400, Note_on_c, 3, 78, 122
5, 59516, Note_off_c, 3, 78, 17
5, 59520, Note_on_c, 3, 80, 119
5, 59754, Note_off_c, 3, 80, 17
5, 59760, Note_on_c, 3, 76, 119
5, 59820, Note_off_c, 3, 76, 17
5, 59880, Note_on_c, 3, 76, 119
5, 60090, Note_off_c, 3, 76, 17
5, 60120, Note_on_c, 3, 73, 110
5, 60176, Note_off_c, 3, 73, 17
5, 60240, Note_on_c, 3, 73, 122
5, 60676, Note_off_c, 3, 73, 17
5, 60720, Note_on_c, 3, 71, 106
5, 60956, Note_off_c, 3, 71, 17
5, 60960, Note_on_c, 3, 78, 106
5, 61196, Note_off_c, 3, 78, 17
5, 61200, Note_on_c, 3, 76, 106
5, 61436, Note_off_c, 3, 76, 17
5, 61680, Note_on_c, 3, 83, 127
5, 61758, Note_off_c, 3, 83, 17
5, 61800, Note_on_c, 3, 83, 127
5, 61881, Note_off_c, 3, 83, 17
5, 61920, Note_on_c, 3, 83, 127
5, 62090, Note_off_c, 3, 83, 17
5, 62160, Note_on_c, 3, 76, 125
5, 62217, Note_off_c, 3, 76, 17
5, 62280, Note_on_c, 3, 76, 122
5, 62354, Note_off_c, 3, 76, 17
5, 62400, Note_on_c, 3, 76, 127
5, 62509, Note_off_c, 3, 76, 17
5, 62640, Note_on_c, 3, 76, 127
5, 62793, Note_off_c, 3, 76, 17
5, 62880, Note_on_c, 3, 78, 126
5, 63110, Note_off_c, 3, 78, 17
5, 63120, Note_on_c, 3, 80, 119
5, 63271, Note_off_c, 3, 80, 17
5, 63600, Note_on_c, 3, 83, 127
5, 63678, Note_off_c, 3, 83, 17
5, 63720, Note_on_c, 3, 83, 127
5, 63801, Note_off_c, 3, 83, 17
5, 63840, Note_on_c, 3, 83, 127
5, 64010, Note_off_c, 3, 83, 17
5, 64080, Note_on_c, 3, 76, 125
5, 64137, Note_off_c, 3, 76, 17
5, 64200, Note_on_c, 3, 76, 122
5, 64274, Note_off_c, 3, 76, 17
5, 64320, Note_on_c, 3, 76, 127
5, 64429, Note_off_c, 3, 76, 17
5, 64560, Note_on_c, 3, 78, 127
5, 64713, Note_off_c, 3, 78, 17
5, 64800, Note_on_c, 3, 80, 122
5, 65040, Note_on_c, 3, 78, 119
5, 65063, Note_off_c, 3, 80, 17
5, 65137, Note_off_c, 3, 78, 17
5, 65160, Note_on_c, 3, 76, 127
5, 65249, Note_off_c, 3, 76, 17
5, 65520, Note_on_c, 3, 83, 127
5, 65598, Note_off_c, 3, 83, 17
5, 65640, Note_on_c, 3, 83, 127
5, 65721, Note_off_c, 3, 83, 17
5, 65760, Note_on_c, 3, 83, 127
5, 65930, Note_off_c, 3, 83, 17
5, 66000, Note_on_c, 3, 76, 125
5, 66057, Note_off_c, 3, 76, 17
5, 66120, Note_on_c, 3, 76, 122
5, 66194, Note_off_c, 3, 76, 17
5, 66240, Note_on_c, 3, 76, 127
5, 66349, Note_off_c, 3, 76, 17
5, 66480, Note_on_c, 3, 76, 127
5, 66633, Note_off_c, 3, 76, 17
5, 66720, Note_on_c, 3, 78, 126
5, 66950, Note_off_c, 3, 78, 17
5, 66960, Note_on_c, 3, 80, 119
5, 67111, Note_off_c, 3, 80, 17
5, 67440, Note_on_c, 3, 83, 127
5, 67518, Note_off_c, 3, 83, 17
5, 67560, Note_on_c, 3, 83, 127
5, 67641, Note_off_c, 3, 83, 17
5, 67680, Note_on_c, 3, 83, 127
5, 67850, Note_off_c, 3, 83, 17
5, 67920, Note_on_c, 3, 76, 125
5, 67977, Note_off_c, 3, 76, 17
5, 68040, Note_on_c, 3, 76, 122
5, 68114, Note_off_c, 3, 76, 17
5, 68160, Note_on_c, 3, 76, 127
5, 68269, Note_off_c, 3, 76, 17
5, 68400, Note_on_c, 3, 78, 127
5, 68553, Note_off_c, 3, 78, 17
5, 68640, Note_on_c, 3, 80, 122
5, 68880, Note_on_c, 3, 78, 119
5, 68903, Note_off_c, 3, 80, 17
5, 68977, Note_off_c, 3, 78, 17
5, 69000, Note_on_c, 3, 76, 127
5, 69089, Note_off_c, 3, 76, 17
5, 69360, Note_on_c, 3, 83, 127
5, 69564, Note_off_c, 3, 83, 17
5, 69600, Note_on_c, 3, 80, 116
5, 69751, Note_off_c, 3, 80, 17
5, 69840, Note_on_c, 3, 85, 119
5, 70029, Note_off_c, 3, 85, 17
5, 70080, Note_on_c, 3, 83, 127
5, 70293, Note_off_c, 3, 83, 17
5, 70320, Note_on_c, 3, 78, 116
5, 70403, Note_off_c, 3, 78, 17
5, 70560, Note_on_c, 3, 78, 119
5, 70800, Note_on_c, 3, 76, 122
5, 70822, Note_off_c, 3, 78, 17
5, 71004, Note_off_c, 3, 76, 17
5, 71280, Note_on_c, 3, 83, 127
5, 71484, Note_off_c, 3, 83, 17
5, 71520, Note_on_c, 3, 80, 116
5, 71671, Note_off_c, 3, 80, 17
5, 71760, Note_on_c, 3, 85, 119
5, 71949, Note_off_c, 3, 85, 17
5, 72000, Note_on_c, 3, 83, 127
5, 72213, Note_off_c, 3, 83, 17
5, 72240, Note_on_c, 3, 78, 116
5, 72323, Note_off_c, 3, 78, 17
5, 72480, Note_on_c, 3, 80, 126
5, 72596, Note_off_c, 3, 80, 17
5, 72600, Note_on_c, 3, 78, 122
5, 72716, Note_off_c, 3, 78, 17
5, 72720, Note_on_c, 3, 76, 117
5, 72836, Note_off_c, 3, 76, 17
5, 72840, Note_on_c, 3, 78, 122
5, 72956, Note_off_c, 3, 78, 17
5, 72960, Note_on_c, 3, 80, 119
5, 73194, Note_off_c, 3, 80, 17
5, 73200, Note_on_c, 3, 76, 119
5, 73260, Note_off_c, 3, 76, 17
5, 73320, Note_on_c, 3, 76, 119
5, 73530, Note_off_c, 3, 76, 17
5, 73560, Note_on_c, 3, 73, 110
5, 73616, Note_off_c, 3, 73, 17
5, 73680, Note_on_c, 3, 73, 122
5, 74116, Note_off_c, 3, 73, 17
5, 74160, Note_on_c, 3, 71, 106
5, 74636, Note_off_c, 3, 71, 17
5, 74640, Note_on_c, 3, 76, 117
5, 74756, Note_off_c, 3, 76, 17
5, 74760, Note_on_c, 3, 78, 122
5, 74876, Note_off_c, 3, 78, 17
5, 74880, Note_on_c, 3, 80, 119
5, 75114, Note_off_c, 3, 80, 17
5, 75120, Note_on_c, 3, 76, 119
5, 75180, Note_off_c, 3, 76, 17
5, 75240, Note_on_c, 3, 76, 119
5, 75450, Note_off_c, 3, 76, 17
5, 75480, Note_on_c, 3, 73, 110
5, 75536, Note_off_c, 3, 73, 17
5, 75600, Note_on_c, 3, 73, 122
5, 76036, Note_off_c, 3, 73, 17
5, 76080, Note_on_c, 3, 71, 106
5, 76316, Note_off_c, 3, 71, 17
5, 76320, Note_on_c, 3, 78, 122
5, 76479, Note_off_c, 3, 78, 17
5, 76560, Note_on_c, 3, 78, 116
5, 76629, Note_off_c, 3, 78, 17
5, 76800, Note_on_c, 3, 78, 122
5, 77034, Note_off_c, 3, 78, 17
5, 77040, Note_on_c, 3, 80, 119
5, 77209, Note_off_c, 3, 80, 17
5, 78480, Note_on_c, 3, 78, 116
5, 78591, Note_off_c, 3, 78, 17
5, 78720, Note_on_c, 3, 78, 119
5, 79151, Note_off_c, 3, 78, 17
5, 79200, Note_on_c, 3, 80, 122
5, 79555, Note_off_c, 3, 80, 17
5, 79680, Note_on_c, 3, 73, 116
5, 79901, Note_off_c, 3, 73, 17
5, 79920, Note_on_c, 3, 71, 114
5, 80160, Note_on_c, 3, 78, 122
5, 80174, Note_off_c, 3, 71, 17
5, 80319, Note_off_c, 3, 78, 17
5, 80400, Note_on_c, 3, 78, 116
5, 80469, Note_off_c, 3, 78, 17
5, 80640, Note_on_c, 3, 78, 122
5, 80874, Note_off_c, 3, 78, 17
5, 80880, Note_on_c, 3, 80, 119
5, 81049, Note_off_c, 3, 80, 17
5, 81840, Note_on_c, 3, 78, 119
5, 81938, Note_off_c, 3, 78, 17
5, 82080, Note_on_c, 3, 78, 119
5, 82178, Note_off_c, 3, 78, 17
5, 82320, Note_on_c, 3, 78, 116
5, 82431, Note_off_c, 3, 78, 17
5, 82560, Note_on_c, 3, 78, 119
5, 82991, Note_off_c, 3, 78, 17
5, 83040, Note_on_c, 3, 80, 122
5, 83395, Note_off_c, 3, 80, 17
5, 83520, Note_on_c, 3, 73, 116
5, 83741, Note_off_c, 3, 73, 17
5, 83760, Note_on_c, 3, 71, 114
5, 84000, Note_on_c, 3, 78, 119
5, 84014, Note_off_c, 3, 71, 17
5, 84183, Note_off_c, 3, 78, 17
5, 84240, Note_on_c, 3, 78, 116
5, 84436, Note_off_c, 3, 78, 17
5, 84480, Note_on_c, 3, 78, 119
5, 84716, Note_off_c, 3, 78, 17
5, 84720, Note_on_c, 3, 76, 122
5, 85075, Note_off_c, 3, 76, 17
5, 85920, Note_on_c, 3, 78, 119
5, 86103, Note_off_c, 3, 78, 17
5, 86160, Note_on_c, 3, 78, 116
5, 86356, Note_off_c, 3, 78, 17
5, 86400, Note_on_c, 3, 78, 119
5, 86636, Note_off_c, 3, 78, 17
5, 86640, Note_on_c, 3, 76, 122
5, 86995, Note_off_c, 3, 76, 17
5, 87120, Note_on_c, 3, 76, 122
5, 87196, Note_off_c, 3, 76, 17
5, 87245, Note_on_c, 3, 76, 122
5, 87321, Note_off_c, 3, 76, 17
5, 87360, Note_on_c, 3, 80, 122
5, 87716, Note_off_c, 3, 80, 17
5, 87720, Note_on_c, 3, 78, 122
5, 88076, Note_off_c, 3, 78, 17
5, 88080, Note_on_c, 3, 76, 122
5, 88435, Note_off_c, 3, 76, 17
5, 91920, Note_on_c, 3, 71, 127
5, 91971, Note_off_c, 3, 71, 17
5, 92040, Note_on_c, 3, 71, 122
5, 92119, Note_off_c, 3, 71, 17
5, 92160, Note_on_c, 3, 76, 127
5, 92300, Note_off_c, 3, 76, 17
5, 92400, Note_on_c, 3, 76, 117
5, 92463, Note_off_c, 3, 76, 17
5, 92520, Note_on_c, 3, 76, 114
5, 92579, Note_off_c, 3, 76, 17
5, 92640, Note_on_c, 3, 76, 122
5, 92824, Note_off_c, 3, 76, 17
5, 92880, Note_on_c, 3, 76, 106
5, 92942, Note_off_c, 3, 76, 17
5, 93000, Note_on_c, 3, 76, 122
5, 93068, Note_off_c, 3, 76, 17
5, 93120, Note_on_c, 3, 76, 114
5, 93275, Note_off_c, 3, 76, 17
5, 93360, Note_on_c, 3, 76, 111
5, 93422, Note_off_c, 3, 76, 17
5, 93480, Note_on_c, 3, 76, 114
5, 93544, Note_off_c, 3, 76, 17
5, 93600, Note_on_c, 3, 76, 122
5, 93810, Note_off_c, 3, 76, 17
5, 93840, Note_on_c, 3, 71, 127
5, 93922, Note_off_c, 3, 71, 17
5, 94080, Note_on_c, 3, 71, 125
5, 94316, Note_off_c, 3, 71, 17
5, 94320, Note_on_c, 3, 73, 102
5, 94556, Note_off_c, 3, 73, 17
5, 94560, Note_on_c, 3, 76, 102
5, 94796, Note_off_c, 3, 76, 17
5, 94800, Note_on_c, 3, 78, 102
5, 95036, Note_off_c, 3, 78, 17
5, 95040, Note_on_c, 3, 83, 102
5, 95827, Note_off_c, 3, 83, 17
5, 96240, Note_on_c, 3, 83, 127
5, 96318, Note_off_c, 3, 83, 17
5, 96360, Note_on_c, 3, 83, 127
5, 96441, Note_off_c, 3, 83, 17
5, 96480, Note_on_c, 3, 83, 127
5, 96650, Note_off_c, 3, 83, 17
5, 96720, Note_on_c, 3, 76, 125
5, 96777, Note_off_c, 3, 76, 17
5, 96840, Note_on_c, 3, 76, 122
5, 96914, Note_off_c, 3, 76, 17
5, 96960, Note_on_c, 3, 76, 127
5, 97069, Note_off_c, 3, 76, 17
5, 97200, Note_on_c, 3, 76, 127
5, 97353, Note_off_c, 3, 76, 17
5, 97440, Note_on_c, 3, 78, 126
5, 97670, Note_off_c, 3, 78, 17
5, 97680, Note_on_c, 3, 80, 119
5, 97831, Note_off_c, 3, 80, 17
5, 98160, Note_on_c, 3, 83, 127
5, 98238, Note_off_c, 3, 83, 17
5, 98280, Note_on_c, 3, 83, 127
5, 98361, Note_off_c, 3, 83, 17
5, 98400, Note_on_c, 3, 83, 127
5, 98570, Note_off_c, 3, 83, 17
5, 98640, Note_on_c, 3, 76, 125
5, 98697, Note_off_c, 3, 76, 17
5, 98760, Note_on_c, 3, 76, 122
5, 98834, Note_off_c, 3, 76, 17
5, 98880, Note_on_c, 3, 76, 127
5, 98989, Note_off_c, 3, 76, 17
5, 99120, Note_on_c, 3, 78, 127
5, 99273, Note_off_c, 3, 78, 17
5, 99360, Note_on_c, 3, 80, 122
5, 99600, Note_on_c, 3, 78, 119
5, 99623, Note_off_c, 3, 80, 17
5, 99697, Note_off_c, 3, 78, 17
5, 99720, Note_on_c, 3, 76, 127
5, 99809, Note_off_c, 3, 76, 17
5, 100080, Note_on_c, 3, 83, 127
5, 100158, Note_off_c, 3, 83, 17
5, 100200, Note_on_c, 3, 83, 127
5, 100281, Note_off_c, 3, 83, 17
5, 100320, Note_on_c, 3, 83, 127
5, 100490, Note_off_c, 3, 83, 17
5, 100560, Note_on_c, 3, 76, 125
5, 100617, Note_off_c, 3, 76, 17
5, 100680, Note_on_c, 3, 76, 122
5, 100754, Note_off_c, 3, 76, 17
5, 100800, Note_on_c, 3, 76, 127
5, 100909, Note_off_c, 3, 76, 17
5, 101040, Note_on_c, 3, 76, 127
5, 101193, Note_off_c, 3, 76, 17
5, 101280, Note_on_c, 3, 78, 126
5, 101510, Note_off_c, 3, 78, 17
5, 101520, Note_on_c, 3, 80, 119
5, 101671, Note_off_c, 3, 80, 17
5, 102000, Note_on_c, 3, 83, 127
5, 102078, Note_off_c, 3, 83, 17
5, 102120, Note_on_c, 3, 83, 127
5, 102201, Note_off_c, 3, 83, 17
5, 102240, Note_on_c, 3, 83, 127
5, 102410, Note_off_c, 3, 83, 17
5, 102480, Note_on_c, 3, 76, 125
5, 102537, Note_off_c, 3, 76, 17
5, 102600, Note_on_c, 3, 76, 122
5, 102674, Note_off_c, 3, 76, 17
5, 102720, Note_on_c, 3, 76, 127
5, 102829, Note_off_c, 3, 76, 17
5, 102960, Note_on_c, 3, 78, 127
5, 103113, Note_off_c, 3, 78, 17
5, 103200, Note_on_c, 3, 80, 122
5, 103440, Note_on_c, 3, 78, 119
5, 103463, Note_off_c, 3, 80, 17
5, 103537, Note_off_c, 3, 78, 17
5, 103560, Note_on_c, 3, 76, 127
5, 103649, Note_off_c, 3, 76, 17
5, 103920, Note_on_c, 3, 83, 127
5, 104124, Note_off_c, 3, 83, 17
5, 104160, Note_on_c, 3, 80, 116
5, 104311, Note_off_c, 3, 80, 17
5, 104400, Note_on_c, 3, 85, 119
5, 104589, Note_off_c, 3, 85, 17
5, 104640, Note_on_c, 3, 83, 127
5, 104853, Note_off_c, 3, 83, 17
5, 104880, Note_on_c, 3, 78, 116
5, 104963, Note_off_c, 3, 78, 17
5, 105120, Note_on_c, 3, 78, 119
5, 105360, Note_on_c, 3, 76, 122
5, 105382, Note_off_c, 3, 78, 17
5, 105564, Note_off_c, 3, 76, 17
5, 105840, Note_on_c, 3, 83, 127
5, 106044, Note_off_c, 3, 83, 17
5, 106080, Note_on_c, 3, 80, 116
5, 106231, Note_off_c, 3, 80, 17
5, 106320, Note_on_c, 3, 85, 119
5, 106509, Note_off_c, 3, 85, 17
5, 106560, Note_on_c, 3, 83, 127
5, 106773, Note_off_c, 3, 83, 17
5, 106800, Note_on_c, 3, 78, 116
5, 106883, Note_off_c, 3, 78, 17
5, 107040, Note_on_c, 3, 80, 126
5, 107156, Note_off_c, 3, 80, 17
5, 107160, Note_on_c, 3, 78, 122
5, 107276, Note_off_c, 3, 78, 17
5, 107280, Note_on_c, 3, 76, 117
5, 107396, Note_off_c, 3, 76, 17
5, 107400, Note_on_c, 3, 78, 122
5, 107516, Note_off_c, 3, 78, 17
5, 107520, Note_on_c, 3, 80, 119
5, 107754, Note_off_c, 3, 80, 17
5, 107760, Note_on_c, 3, 76, 119
5, 107820, Note_off_c, 3, 76, 17
5, 107880, Note_on_c, 3, 76, 119
5, 108090, Note_off_c, 3, 76, 17
5, 108120, Note_on_c, 3, 73, 110
5, 108176, Note_off_c, 3, 73, 17
5, 108240, Note_on_c, 3, 73, 122
5, 108676, Note_off_c, 3, 73, 17
5, 108720, Note_on_c, 3, 71, 106
5, 109196, Note_off_c, 3, 71, 17
5, 109200, Note_on_c, 3, 76, 117
5, 109316, Note_off_c, 3, 76, 17
5, 109320, Note_on_c, 3, 78, 122
5, 109436, Note_off_c, 3, 78, 17
5, 109440, Note_on_c, 3, 80, 119
5, 109674, Note_off_c, 3, 80, 17
5, 109680, Note_on_c, 3, 76, 119
5, 109740, Note_off_c, 3, 76, 17
5, 109800, Note_on_c, 3, 76, 119
5, 110010, Note_off_c, 3, 76, 17
5, 110040, Note_on_c, 3, 73, 110
5, 110096, Note_off_c, 3, 73, 17
5, 110160, Note_on_c, 3, 73, 122
5, 110596, Note_off_c, 3, 73, 17
5, 110640, Note_on_c, 3, 71, 106
5, 110876, Note_off_c, 3, 71, 17
5, 110880, Note_on_c, 3, 78, 106
5, 111116, Note_off_c, 3, 78, 17
5, 111120, Note_on_c, 3, 76, 106
5, 111356, Note_off_c, 3, 76, 17
5, 111600, Note_on_c, 3, 83, 127
5, 111678, Note_off_c, 3, 83, 17
5, 111720, Note_on_c, 3, 83, 127
5, 111801, Note_off_c, 3, 83, 17
5, 111840, Note_on_c, 3, 83, 127
5, 112010, Note_off_c, 3, 83, 17
5, 112080, Note_on_c, 3, 76, 125
5, 112137, Note_off_c, 3, 76, 17
5, 112200, Note_on_c, 3, 76, 122
5, 112274, Note_off_c, 3, 76, 17
5, 112320, Note_on_c, 3, 76, 127
5, 112429, Note_off_c, 3, 76, 17
5, 112560, Note_on_c, 3, 76, 127
5, 112713, Note_off_c, 3, 76, 17
5, 112800, Note_on_c, 3, 78, 126
5, 113030, Note_off_c, 3, 78, 17
5, 113040, Note_on_c, 3, 80, 119
5, 113191, Note_off_c, 3, 80, 17
5, 113520, Note_on_c, 3, 83, 127
5, 113598, Note_off_c, 3, 83, 17
5, 113640, Note_on_c, 3, 83, 127
5, 113721, Note_off_c, 3, 83, 17
5, 113760, Note_on_c, 3, 83, 127
5, 113930, Note_off_c, 3, 83, 17
5, 114000, Note_on_c, 3, 76, 125
5, 114057, Note_off_c, 3, 76, 17
5, 114120, Note_on_c, 3, 76, 122
5, 114194, Note_off_c, 3, 76, 17
5, 114240, Note_on_c, 3, 76, 127
5, 114349, Note_off_c, 3, 76, 17
5, 114480, Note_on_c, 3, 78, 127
5, 114633, Note_off_c, 3, 78, 17
5, 114720, Note_on_c, 3, 80, 122
5, 114960, Note_on_c, 3, 78, 119
5, 114983, Note_off_c, 3, 80, 17
5, 115057, Note_off_c, 3, 78, 17
5, 115080, Note_on_c, 3, 76, 127
5, 115169, Note_off_c, 3, 76, 17
5, 115440, Note_on_c, 3, 83, 127
5, 115518, Note_off_c, 3, 83, 17
5, 115560, Note_on_c, 3, 83, 127
5, 115641, Note_off_c, 3, 83, 17
5, 115680, Note_on_c, 3, 83, 127
5, 115850, Note_off_c, 3, 83, 17
5, 115920, Note_on_c, 3, 76, 125
5, 115977, Note_off_c, 3, 76, 17
5, 116040, Note_on_c, 3, 76, 122
5, 116114, Note_off_c, 3, 76, 17
5, 116160, Note_on_c, 3, 76, 127
5, 116269, Note_off_c, 3, 76, 17
5, 116400, Note_on_c, 3, 76, 127
5, 116553, Note_off_c, 3, 76, 17
5, 116640, Note_on_c, 3, 78, 126
5, 116870, Note_off_c, 3, 78, 17
5, 116880, Note_on_c, 3, 80, 119
5, 117031, Note_off_c, 3, 80, 17
5, 117360, Note_on_c, 3, 83, 127
5, 117438, Note_off_c, 3, 83, 17
5, 117480, Note_on_c, 3, 83, 127
5, 117561, Note_off_c, 3, 83, 17
5, 117600, Note_on_c, 3, 83, 127
5, 117770, Note_off_c, 3, 83, 17
5, 117840, Note_on_c, 3, 76, 125
5, 117897, Note_off_c, 3, 76, 17
5, 117960, Note_on_c, 3, 76, 122
5, 118034, Note_off_c, 3, 76, 17
5, 118080, Note_on_c, 3, 76, 127
5, 118189, Note_off_c, 3, 76, 17
5, 118320, Note_on_c, 3, 78, 127
5, 118473, Note_off_c, 3, 78, 17
5, 118560, Note_on_c, 3, 80, 122
5, 118800, Note_on_c, 3, 78, 119
5, 118823, Note_off_c, 3, 80, 17
5, 118897, Note_off_c, 3, 78, 17
5, 118920, Note_on_c, 3, 76, 127
5, 119009, Note_off_c, 3, 76, 17
5, 119280, Note_on_c, 3, 83, 127
5, 119484, Note_off_c, 3, 83, 17
5, 119520, Note_on_c, 3, 80, 116
5, 119671, Note_off_c, 3, 80, 17
5, 119760, Note_on_c, 3, 85, 119
5, 119949, Note_off_c, 3, 85, 17
5, 120000, Note_on_c, 3, 83, 127
5, 120213, Note_off_c, 3, 83, 17
5, 120240, Note_on_c, 3, 78, 116
5, 120323, Note_off_c, 3, 78, 17
5, 120480, Note_on_c, 3, 78, 119
5, 120720, Note_on_c, 3, 76, 122
5, 120742, Note_off_c, 3, 78, 17
5, 120924, Note_off_c, 3, 76, 17
5, 121200, Note_on_c, 3, 83, 127
5, 121404, Note_off_c, 3, 83, 17
5, 121440, Note_on_c, 3, 80, 116
5, 121591, Note_off_c, 3, 80, 17
5, 121680, Note_on_c, 3, 85, 119
5, 121869, Note_off_c, 3, 85, 17
5, 121920, Note_on_c, 3, 83, 127
5, 122133, Note_off_c, 3, 83, 17
5, 122160, Note_on_c, 3, 78, 116
5, 122243, Note_off_c, 3, 78, 17
5, 122400, Note_on_c, 3, 80, 126
5, 122516, Note_off_c, 3, 80, 17
5, 122520, Note_on_c, 3, 78, 122
5, 122636, Note_off_c, 3, 78, 17
5, 122640, Note_on_c, 3, 76, 117
5, 122756, Note_off_c, 3, 76, 17
5, 122760, Note_on_c, 3, 78, 122
5, 122876, Note_off_c, 3, 78, 17
5, 122880, Note_on_c, 3, 80, 119
5, 123114, Note_off_c, 3, 80, 17
5, 123120, Note_on_c, 3, 76, 119
5, 123180, Note_off_c, 3, 76, 17
5, 123240, Note_on_c, 3, 76, 119
5, 123450, Note_off_c, 3, 76, 17
5, 123480, Note_on_c, 3, 73, 110
5, 123536, Note_off_c, 3, 73, 17
5, 123600, Note_on_c, 3, 73, 122
5, 124036, Note_off_c, 3, 73, 17
5, 124080, Note_on_c, 3, 71, 106
5, 124556, Note_off_c, 3, 71, 17
5, 124560, Note_on_c, 3, 76, 117
5, 124676, Note_off_c, 3, 76, 17
5, 124680, Note_on_c, 3, 78, 122
5, 124796, Note_off_c, 3, 78, 17
5, 124800, Note_on_c, 3, 80, 119
5, 125034, Note_off_c, 3, 80, 17
5, 125040, Note_on_c, 3, 76, 119
5, 125100, Note_off_c, 3, 76, 17
5, 125160, Note_on_c, 3, 76, 119
5, 125370, Note_off_c, 3, 76, 17
5, 125400, Note_on_c, 3, 73, 110
5, 125456, Note_off_c, 3, 73, 17
5, 125520, Note_on_c, 3, 73, 122
5, 125956, Note_off_c, 3, 73, 17
5, 126000, Note_on_c, 3, 71, 106
5, 126236, Note_off_c, 3, 71, 17
5, 126240, Note_on_c, 3, 78, 106
5, 126476, Note_off_c, 3, 78, 17
5, 126507, Note_on_c, 3, 76, 119
5, 126576, Note_off_c, 3, 76, 17
5, 126610, Note_on_c, 3, 76, 127
5, 126669, Note_off_c, 3, 76, 17
5, 126710, Note_on_c, 3, 76, 127
5, 126882, Note_off_c, 3, 76, 17
5, 126974, Note_on_c, 3, 76, 109
5, 127059, Note_off_c, 3, 76, 17
5, 127095, Note_on_c, 3, 76, 127
5, 127158, Note_off_c, 3, 76, 17
5, 127200, Note_on_c, 3, 76, 127
5, 127345, Note_off_c, 3, 76, 17
5, 127439, Note_on_c, 3, 76, 109
5, 127511, Note_off_c, 3, 76, 17
5, 127563, Note_on_c, 3, 76, 127
5, 127614, Note_off_c, 3, 76, 17
5, 127667, Note_on_c, 3, 76, 122
5, 127772, Note_off_c, 3, 76, 17
5, 127911, Note_on_c, 3, 76, 117
5, 128009, Note_off_c, 3, 76, 17
5, 128155, Note_on_c, 3, 76, 125
5, 128456, Note_off_c, 3, 76, 17
5, 128880, Note_on_c, 3, 83, 111
5, 129116, Note_off_c, 3, 83, 17
5, 129120, Note_on_c, 3, 80, 111
5, 129356, Note_off_c, 3, 80, 17
5, 129360, Note_on_c, 3, 85, 127
5, 129551, Note_off_c, 3, 85, 17
5, 129600, Note_on_c, 3, 83, 125
5, 129787, Note_off_c, 3, 83, 17
5, 129840, Note_on_c, 3, 78, 122
5, 129900, Note_off_c, 3, 78, 17
5, 130080, Note_on_c, 3, 78, 127
5, 130284, Note_off_c, 3, 78, 17
5, 130347, Note_on_c, 3, 76, 119
5, 130416, Note_off_c, 3, 76, 17
5, 130450, Note_on_c, 3, 76, 127
5, 130509, Note_off_c, 3, 76, 17
5, 130550, Note_on_c, 3, 76, 127
5, 130722, Note_off_c, 3, 76, 17
5, 130814, Note_on_c, 3, 76, 109
5, 130899, Note_off_c, 3, 76, 17
5, 130935, Note_on_c, 3, 76, 127
5, 130998, Note_off_c, 3, 76, 17
5, 131040, Note_on_c, 3, 76, 127
5, 131185, Note_off_c, 3, 76, 17
5, 131279, Note_on_c, 3, 76, 109
5, 131351, Note_off_c, 3, 76, 17
5, 131403, Note_on_c, 3, 76, 127
5, 131454, Note_off_c, 3, 76, 17
5, 131507, Note_on_c, 3, 76, 122
5, 131612, Note_off_c, 3, 76, 17
5, 131751, Note_on_c, 3, 76, 117
5, 131849, Note_off_c, 3, 76, 17
5, 131995, Note_on_c, 3, 76, 125
5, 132296, Note_off_c, 3, 76, 17
5, 132720, Note_on_c, 3, 83, 111
5, 132956, Note_off_c, 3, 83, 17
5, 132960, Note_on_c, 3, 80, 111
5, 133196, Note_off_c, 3, 80, 17
5, 133200, Note_on_c, 3, 85, 127
5, 133391, Note_off_c, 3, 85, 17
5, 133440, Note_on_c, 3, 83, 125
5, 133627, Note_off_c, 3, 83, 17
5, 133680, Note_on_c, 3, 78, 122
5, 133740, Note_off_c, 3, 78, 17
5, 133920, Note_on_c, 3, 78, 127
5, 134124, Note_off_c, 3, 78, 17
5, 134187, Note_on_c, 3, 76, 119
5, 134256, Note_off_c, 3, 76, 17
5, 134290, Note_on_c, 3, 76, 127
5, 134349, Note_off_c, 3, 76, 17
5, 134390, Note_on_c, 3, 76, 127
5, 134562, Note_off_c, 3, 76, 17
5, 134654, Note_on_c, 3, 76, 109
5, 134739, Note_off_c, 3, 76, 17
5, 134775, Note_on_c, 3, 76, 127
5, 134838, Note_off_c, 3, 76, 17
5, 134880, Note_on_c, 3, 76, 127
5, 135025, Note_off_c, 3, 76, 17
5, 135119, Note_on_c, 3, 76, 109
5, 135191, Note_off_c, 3, 76, 17
5, 135243, Note_on_c, 3, 76, 127
5, 135294, Note_off_c, 3, 76, 17
5, 135347, Note_on_c, 3, 76, 122
5, 135452, Note_off_c, 3, 76, 17
5, 135591, Note_on_c, 3, 76, 117
5, 135689, Note_off_c, 3, 76, 17
5, 135835, Note_on_c, 3, 76, 125
5, 136136, Note_off_c, 3, 76, 17
5, 136560, Note_on_c, 3, 83, 111
5, 136796, Note_off_c, 3, 83, 17
5, 136800, Note_on_c, 3, 80, 111
5, 137036, Note_off_c, 3, 80, 17
5, 137040, Note_on_c, 3, 85, 127
5, 137231, Note_off_c, 3, 85, 17
5, 137280, Note_on_c, 3, 83, 125
5, 137467, Note_off_c, 3, 83, 17
5, 137520, Note_on_c, 3, 78, 122
5, 137580, Note_off_c, 3, 78, 17
5, 137760, Note_on_c, 3, 78, 127
5, 137964, Note_off_c, 3, 78, 17
5, 138027, Note_on_c, 3, 76, 119
5, 138096, Note_off_c, 3, 76, 17
5, 138130, Note_on_c, 3, 76, 127
5, 138189, Note_off_c, 3, 76, 17
5, 138230, Note_on_c, 3, 76, 127
5, 138402, Note_off_c, 3, 76, 17
5, 138494, Note_on_c, 3, 76, 109
5, 138579, Note_off_c, 3, 76, 17
5, 138615, Note_on_c, 3, 76, 127
5, 138678, Note_off_c, 3, 76, 17
5, 138720, Note_on_c, 3, 76, 127
5, 138865, Note_off_c, 3, 76, 17
5, 138959, Note_on_c, 3, 76, 109
5, 139031, Note_off_c, 3, 76, 17
5, 139083, Note_on_c, 3, 76, 127
5, 139134, Note_off_c, 3, 76, 17
5, 139187, Note_on_c, 3, 76, 122
5, 139292, Note_off_c, 3, 76, 17
5, 139431, Note_on_c, 3, 76, 117
5, 139529, Note_off_c, 3, 76, 17
5, 139675, Note_on_c, 3, 76, 125
5, 139976, Note_off_c, 3, 76, 17
5, 140400, Note_on_c, 3, 83, 111
5, 140636, Note_off_c, 3, 83, 17
5, 140640, Note_on_c, 3, 80, 111
5, 140876, Note_off_c, 3, 80, 17
5, 140880, Note_on_c, 3, 85, 127
5, 141071, Note_off_c, 3, 85, 17
5, 141120, Note_on_c, 3, 83, 125
5, 141307, Note_off_c, 3, 83, 17
5, 141360, Note_on_c, 3, 78, 122
5, 141420, Note_off_c, 3, 78, 17
5, 141600, Note_on_c, 3, 78, 127
5, 141804, Note_off_c, 3, 78, 17
5, 141840, Note_on_c, 3, 76, 127
5, 142044, Note_off_c, 3, 76, 17
5, 142320, Note_on_c, 3, 83, 127
5, 142398, Note_off_c, 3, 83, 17
5, 142440, Note_on_c, 3, 83, 127
5, 142521, Note_off_c, 3, 83, 17
5, 142560, Note_on_c, 3, 83, 127
5, 142730, Note_off_c, 3, 83, 17
5, 142800, Note_on_c, 3, 76, 125
5, 142857, Note_off_c, 3, 76, 17
5, 142920, Note_on_c, 3, 76, 122
5, 142994, Note_off_c, 3, 76, 17
5, 143040, Note_on_c, 3, 76, 127
5, 143149, Note_off_c, 3, 76, 17
5, 143280, Note_on_c, 3, 76, 127
5, 143433, Note_off_c, 3, 76, 17
5, 143520, Note_on_c, 3, 78, 126
5, 143750, Note_off_c, 3, 78, 17
5, 143760, Note_on_c, 3, 80, 119
5, 143911, Note_off_c, 3, 80, 17
5, 144240, Note_on_c, 3, 83, 127
5, 144318, Note_off_c, 3, 83, 17
5, 144360, Note_on_c, 3, 83, 127
5, 144441, Note_off_c, 3, 83, 17
5, 144480, Note_on_c, 3, 83, 127
5, 144650, Note_off_c, 3, 83, 17
5, 144720, Note_on_c, 3, 76, 125
5, 144777, Note_off_c, 3, 76, 17
5, 144840, Note_on_c, 3, 76, 122
5, 144914, Note_off_c, 3, 76, 17
5, 144960, Note_on_c, 3, 76, 127
5, 145069, Note_off_c, 3, 76, 17
5, 145200, Note_on_c, 3, 78, 127
5, 145353, Note_off_c, 3, 78, 17
5, 145440, Note_on_c, 3, 80, 122
5, 145680, Note_on_c, 3, 78, 119
5, 145703, Note_off_c, 3, 80, 17
5, 145777, Note_off_c, 3, 78, 17
5, 145800, Note_on_c, 3, 76, 127
5, 145889, Note_off_c, 3, 76, 17
5, 146160, Note_on_c, 3, 83, 127
5, 146238, Note_off_c, 3, 83, 17
5, 146280, Note_on_c, 3, 83, 127
5, 146361, Note_off_c, 3, 83, 17
5, 146400, Note_on_c, 3, 83, 127
5, 146570, Note_off_c, 3, 83, 17
5, 146640, Note_on_c, 3, 76, 125
5, 146697, Note_off_c, 3, 76, 17
5, 146760, Note_on_c, 3, 76, 122
5, 146834, Note_off_c, 3, 76, 17
5, 146880, Note_on_c, 3, 76, 127
5, 146989, Note_off_c, 3, 76, 17
5, 147120, Note_on_c, 3, 76, 127
5, 147273, Note_off_c, 3, 76, 17
5, 147360, Note_on_c, 3, 78, 126
5, 147590, Note_off_c, 3, 78, 17
5, 147600, Note_on_c, 3, 80, 119
5, 147751, Note_off_c, 3, 80, 17
5, 148080, Note_on_c, 3, 83, 127
5, 148158, Note_off_c, 3, 83, 17
5, 148200, Note_on_c, 3, 83, 127
5, 148281, Note_off_c, 3, 83, 17
5, 148320, Note_on_c, 3, 83, 127
5, 148490, Note_off_c, 3, 83, 17
5, 148560, Note_on_c, 3, 76, 125
5, 148617, Note_off_c, 3, 76, 17
5, 148680, Note_on_c, 3, 76, 122
5, 148754, Note_off_c, 3, 76, 17
5, 148800, Note_on_c, 3, 76, 127
5, 148909, Note_off_c, 3, 76, 17
5, 149040, Note_on_c, 3, 78, 127
5, 149193, Note_off_c, 3, 78, 17
5, 149280, Note_on_c, 3, 80, 122
5, 149520, Note_on_c, 3, 78, 119
5, 149543, Note_off_c, 3, 80, 17
5, 149617, Note_off_c, 3, 78, 17
5, 149640, Note_on_c, 3, 76, 127
5, 149729, Note_off_c, 3, 76, 17
5, 150000, Note_on_c, 3, 83, 127
5, 150204, Note_off_c, 3, 83, 17
5, 150240, Note_on_c, 3, 80, 116
5, 150391, Note_off_c, 3, 80, 17
5, 150480, Note_on_c, 3, 85, 119
5, 150669, Note_off_c, 3, 85, 17
5, 150720, Note_on_c, 3, 83, 127
5, 150933, Note_off_c, 3, 83, 17
5, 150960, Note_on_c, 3, 78, 116
5, 151043, Note_off_c, 3, 78, 17
5, 151200, Note_on_c, 3, 78, 119
5, 151440, Note_on_c, 3, 76, 122
5, 151462, Note_off_c, 3, 78, 17
5, 151644, Note_off_c, 3, 76, 17
5, 151920, Note_on_c, 3, 83, 127
5, 152124, Note_off_c, 3, 83, 17
5, 152160, Note_on_c, 3, 80, 116
5, 152311, Note_off_c, 3, 80, 17
5, 152400, Note_on_c, 3, 85, 119
5, 152589, Note_off_c, 3, 85, 17
5, 152640, Note_on_c, 3, 83, 127
5, 152853, Note_off_c, 3, 83, 17
5, 152880, Note_on_c, 3, 78, 116
5, 152963, Note_off_c, 3, 78, 17
5, 153120, Note_on_c, 3, 80, 126
5, 153236, Note_off_c, 3, 80, 17
5, 153240, Note_on_c, 3, 78, 122
5, 153356, Note_off_c, 3, 78, 17
5, 153360, Note_on_c, 3, 76, 117
5, 153476, Note_off_c, 3, 76, 17
5, 153480, Note_on_c, 3, 78, 122
5, 153596, Note_off_c, 3, 78, 17
5, 153600, Note_on_c, 3, 80, 119
5, 153834, Note_off_c, 3, 80, 17
5, 153840, Note_on_c, 3, 76, 119
5, 153900, Note_off_c, 3, 76, 17
5, 153960, Note_on_c, 3, 76, 119
5, 154170, Note_off_c, 3, 76, 17
5, 154200, Note_on_c, 3, 73, 110
5, 154256, Note_off_c, 3, 73, 17
5, 154320, Note_on_c, 3, 73, 122
5, 154756, Note_off_c, 3, 73, 17
5, 154800, Note_on_c, 3, 71, 106
5, 155276, Note_off_c, 3, 71, 17
5, 155280, Note_on_c, 3, 76, 117
5, 155396, Note_off_c, 3, 76, 17
5, 155400, Note_on_c, 3, 78, 122
5, 155516, Note_off_c, 3, 78, 17
5, 155520, Note_on_c, 3, 80, 119
5, 155756, Note_off_c, 3, 80, 17
5, 155760, Note_on_c, 3, 80, 119
5, 155820, Note_off_c, 3, 80, 17
5, 155880, Note_on_c, 3, 80, 119
5, 156090, Note_off_c, 3, 80, 17
5, 156120, Note_on_c, 3, 80, 110
5, 156176, Note_off_c, 3, 80, 17
5, 156240, Note_on_c, 3, 81, 122
5, 156676, Note_off_c, 3, 81, 17
5, 156720, Note_on_c, 3, 83, 106
5, 157436, Note_off_c, 3, 83, 17
5, 157680, Note_on_c, 3, 83, 127
5, 157758, Note_off_c, 3, 83, 17
5, 157800, Note_on_c, 3, 83, 127
5, 157881, Note_off_c, 3, 83, 17
5, 157920, Note_on_c, 3, 83, 127
5, 158090, Note_off_c, 3, 83, 17
5, 158160, Note_on_c, 3, 76, 125
5, 158217, Note_off_c, 3, 76, 17
5, 158280, Note_on_c, 3, 76, 122
5, 158354, Note_off_c, 3, 76, 17
5, 158400, Note_on_c, 3, 76, 127
5, 158509, Note_off_c, 3, 76, 17
5, 158640, Note_on_c, 3, 76, 127
5, 158793, Note_off_c, 3, 76, 17
5, 158880, Note_on_c, 3, 78, 126
5, 159110, Note_off_c, 3, 78, 17
5, 159120, Note_on_c, 3, 80, 119
5, 159271, Note_off_c, 3, 80, 17
5, 159600, Note_on_c, 3, 83, 127
5, 159678, Note_off_c, 3, 83, 17
5, 159720, Note_on_c, 3, 83, 127
5, 159801, Note_off_c, 3, 83, 17
5, 159840, Note_on_c, 3, 83, 127
5, 160010, Note_off_c, 3, 83, 17
5, 160080, Note_on_c, 3, 76, 125
5, 160137, Note_off_c, 3, 76, 17
5, 160200, Note_on_c, 3, 76, 122
5, 160274, Note_off_c, 3, 76, 17
5, 160320, Note_on_c, 3, 76, 127
5, 160429, Note_off_c, 3, 76, 17
5, 160560, Note_on_c, 3, 78, 127
5, 160713, Note_off_c, 3, 78, 17
5, 160800, Note_on_c, 3, 80, 122
5, 161040, Note_on_c, 3, 78, 119
5, 161063, Note_off_c, 3, 80, 17
5, 161137, Note_off_c, 3, 78, 17
5, 161160, Note_on_c, 3, 76, 127
5, 161249, Note_off_c, 3, 76, 17
5, 161520, Note_on_c, 3, 83, 127
5, 161598, Note_off_c, 3, 83, 17
5, 161640, Note_on_c, 3, 83, 127
5, 161721, Note_off_c, 3, 83, 17
5, 161760, Note_on_c, 3, 83, 127
5, 161930, Note_off_c, 3, 83, 17
5, 162000, Note_on_c, 3, 76, 125
5, 162057, Note_off_c, 3, 76, 17
5, 162120, Note_on_c, 3, 76, 122
5, 162194, Note_off_c, 3, 76, 17
5, 162240, Note_on_c, 3, 76, 127
5, 162349, Note_off_c, 3, 76, 17
5, 162480, Note_on_c, 3, 76, 127
5, 162633, Note_off_c, 3, 76, 17
5, 162720, Note_on_c, 3, 78, 126
5, 162950, Note_off_c, 3, 78, 17
5, 162960, Note_on_c, 3, 80, 119
5, 163111, Note_off_c, 3, 80, 17
5, 163440, Note_on_c, 3, 83, 127
5, 163518, Note_off_c, 3, 83, 17
5, 163560, Note_on_c, 3, 83, 127
5, 163641, Note_off_c, 3, 83, 17
5, 163680, Note_on_c, 3, 83, 127
5, 163850, Note_off_c, 3, 83, 17
5, 163920, Note_on_c, 3, 76, 125
5, 163977, Note_off_c, 3, 76, 17
5, 164040, Note_on_c, 3, 76, 122
5, 164114, Note_off_c, 3, 76, 17
5, 164160, Note_on_c, 3, 76, 127
5, 164269, Note_off_c, 3, 76, 17
5, 164400, Note_on_c, 3, 78, 127
5, 164553, Note_off_c, 3, 78, 17
5, 164640, Note_on_c, 3, 80, 122
5, 164880, Note_on_c, 3, 78, 119
5, 164903, Note_off_c, 3, 80, 17
5, 164977, Note_off_c, 3, 78, 17
5, 165000, Note_on_c, 3, 76, 127
5, 165089, Note_off_c, 3, 76, 17
5, 165360, Note_on_c, 3, 83, 127
5, 165564, Note_off_c, 3, 83, 17
5, 165600, Note_on_c, 3, 80, 116
5, 165751, Note_off_c, 3, 80, 17
5, 165840, Note_on_c, 3, 85, 119
5, 166029, Note_off_c, 3, 85, 17
5, 166080, Note_on_c, 3, 83, 127
5, 166293, Note_off_c, 3, 83, 17
5, 166320, Note_on_c, 3, 78, 116
5, 166403, Note_off_c, 3, 78, 17
5, 166560, Note_on_c, 3, 78, 119
5, 166800, Note_on_c, 3, 76, 122
5, 166822, Note_off_c, 3, 78, 17
5, 167004, Note_off_c, 3, 76, 17
5, 167280, Note_on_c, 3, 83, 127
5, 167484, Note_off_c, 3, 83, 17
5, 167520, Note_on_c, 3, 80, 116
5, 167671, Note_off_c, 3, 80, 17
5, 167760, Note_on_c, 3, 85, 119
5, 167949, Note_off_c, 3, 85, 17
5, 168000, Note_on_c, 3, 83, 127
5, 168213, Note_off_c, 3, 83, 17
5, 168240, Note_on_c, 3, 78, 116
5, 168323, Note_off_c, 3, 78, 17
5, 168480, Note_on_c, 3, 80, 126
5, 168596, Note_off_c, 3, 80, 17
5, 168600, Note_on_c, 3, 78, 122
5, 168716, Note_off_c, 3, 78, 17
5, 168720, Note_on_c, 3, 76, 117
5, 168836, Note_off_c, 3, 76, 17
5, 168840, Note_on_c, 3, 78, 122
5, 168956, Note_off_c, 3, 78, 17
5, 168960, Note_on_c, 3, 80, 119
5, 169194, Note_off_c, 3, 80, 17
5, 169200, Note_on_c, 3, 76, 119
5, 169260, Note_off_c, 3, 76, 17
5, 169320, Note_on_c, 3, 76, 119
5, 169530, Note_off_c, 3, 76, 17
5, 169560, Note_on_c, 3, 73, 110
5, 169616, Note_off_c, 3, 73, 17
5, 169680, Note_on_c, 3, 73, 122
5, 170116, Note_off_c, 3, 73, 17
5, 170160, Note_on_c, 3, 71, 106
5, 170636, Note_off_c, 3, 71, 17
5, 170640, Note_on_c, 3, 76, 117
5, 170756, Note_off_c, 3, 76, 17
5, 170760, Note_on_c, 3, 78, 122
5, 170876, Note_off_c, 3, 78, 17
5, 170880, Note_on_c, 3, 80, 119
5, 171114, Note_off_c, 3, 80, 17
5, 171120, Note_on_c, 3, 76, 119
5, 171180, Note_off_c, 3, 76, 17
5, 171240, Note_on_c, 3, 76, 119
5, 171450, Note_off_c, 3, 76, 17
5, 171480, Note_on_c, 3, 73, 110
5, 171536, Note_off_c, 3, 73, 17
5, 171600, Note_on_c, 3, 73, 122
5, 172036, Note_off_c, 3, 73, 17
5, 172080, Note_on_c, 3, 71, 106
5, 172316, Note_off_c, 3, 71, 17
5, 172320, Note_on_c, 3, 78, 106
5, 172556, Note_off_c, 3, 78, 17
5, 172560, Note_on_c, 3, 76, 106
5, 172796, Note_off_c, 3, 76, 17
5, 172800, Note_on_c, 3, 80, 127
5, 173086, Note_off_c, 3, 80, 17
5, 173160, Note_on_c, 3, 80, 127
5, 173434, Note_off_c, 3, 80, 17
5, 173520, Note_on_c, 3, 78, 127
5, 173731, Note_off_c, 3, 78, 17
5, 173760, Note_on_c, 3, 80, 127
5, 173993, Note_off_c, 3, 80, 17
5, 174720, Note_on_c, 3, 80, 127
5, 175014, Note_off_c, 3, 80, 17
5, 175080, Note_on_c, 3, 80, 125
5, 175335, Note_off_c, 3, 80, 17
5, 175440, Note_on_c, 3, 78, 119
5, 175651, Note_off_c, 3, 78, 17
5, 175680, Note_on_c, 3, 80, 127
5, 175950, Note_off_c, 3, 80, 17
5, 176160, Note_on_c, 3, 83, 127
5, 176430, Note_off_c, 3, 83, 17
5, 176640, Note_on_c, 3, 80, 127
5, 176926, Note_off_c, 3, 80, 17
5, 177000, Note_on_c, 3, 80, 122
5, 177322, Note_off_c, 3, 80, 17
5, 177360, Note_on_c, 3, 78, 114
5, 177527, Note_off_c, 3, 78, 17
5, 177600, Note_on_c, 3, 78, 125
5, 177826, Note_off_c, 3, 78, 17
5, 178560, Note_on_c, 3, 80, 127
5, 178822, Note_off_c, 3, 80, 17
5, 178920, Note_on_c, 3, 80, 125
5, 179209, Note_off_c, 3, 80, 17
5, 179280, Note_on_c, 3, 78, 122
5, 179448, Note_off_c, 3, 78, 17
5, 179520, Note_on_c, 3, 78, 119
5, 179751, Note_off_c, 3, 78, 17
5, 180480, Note_on_c, 3, 80, 125
5, 180742, Note_off_c, 3, 80, 17
5, 180840, Note_on_c, 3, 80, 122
5, 181116, Note_off_c, 3, 80, 17
5, 181200, Note_on_c, 3, 78, 125
5, 181363, Note_off_c, 3, 78, 17
5, 181440, Note_on_c, 3, 80, 127
5, 181712, Note_off_c, 3, 80, 17
5, 182400, Note_on_c, 3, 80, 127
5, 182696, Note_off_c, 3, 80, 17
5, 182760, Note_on_c, 3, 80, 119
5, 183016, Note_off_c, 3, 80, 17
5, 183120, Note_on_c, 3, 78, 122
5, 183342, Note_off_c, 3, 78, 17
5, 183360, Note_on_c, 3, 80, 127
5, 183630, Note_off_c, 3, 80, 17
5, 183840, Note_on_c, 3, 83, 127
5, 184110, Note_off_c, 3, 83, 17
5, 184320, Note_on_c, 3, 80, 127
5, 184568, Note_off_c, 3, 80, 17
5, 184680, Note_on_c, 3, 80, 122
5, 184973, Note_off_c, 3, 80, 17
5, 185040, Note_on_c, 3, 78, 122
5, 185219, Note_off_c, 3, 78, 17
5, 185280, Note_on_c, 3, 78, 122
5, 185460, Note_off_c, 3, 78, 17
5, 186240, Note_on_c, 3, 80, 127
5, 186527, Note_off_c, 3, 80, 17
5, 186600, Note_on_c, 3, 80, 119
5, 186880, Note_off_c, 3, 80, 17
5, 186960, Note_on_c, 3, 78, 122
5, 187131, Note_off_c, 3, 78, 17
5, 187200, Note_on_c, 3, 78, 125
5, 187440, Note_on_c, 3, 71, 127
5, 187442, Note_off_c, 3, 78, 17
5, 187519, Note_off_c, 3, 71, 17
5, 187680, Note_on_c, 3, 71, 127
5, 187796, Note_off_c, 3, 71, 17
5, 187920, Note_on_c, 3, 71, 127
5, 188156, Note_off_c, 3, 71, 17
5, 188160, Note_on_c, 3, 83, 125
5, 188261, Note_off_c, 3, 83, 17
5, 188280, Note_on_c, 3, 80, 109
5, 189569, Note_off_c, 3, 80, 17
5, 190572, Control_c, 3, 123, 0
5, 190932, Control_c, 3, 120, 0
5, 190932, End_track
6, 0, Start_track
6, 0, MIDI_port, 0
6, 0, Title_t, "Choir Aahs"
6, 258, Control_c, 4, 121, 0
6, 308, Program_c, 4, 52
6, 388, Control_c, 4, 7, 95
6, 420, Control_c, 4, 10, 69
6, 452, Control_c, 4, 11, 127
6, 484, Control_c, 4, 91, 74
6, 516, Control_c, 4, 93, 47
6, 548, Control_c, 4, 1, 0
6, 580, Control_c, 4, 64, 0
6, 612, Control_c, 4, 71, 64
6, 644, Control_c, 4, 72, 64
6, 676, Control_c, 4, 73, 64
6, 708, Control_c, 4, 74, 64
6, 740, Control_c, 4, 94, 0
6, 772, Pitch_bend_c, 4, 8192
6, 3600, Note_on_c, 4, 64, 119
6, 3669, Note_off_c, 4, 64, 17
6, 3720, Note_on_c, 4, 64, 127
6, 3779, Note_off_c, 4, 64, 17
6, 3840, Note_on_c, 4, 64, 127
6, 4012, Note_off_c, 4, 64, 17
6, 4080, Note_on_c, 4, 64, 109
6, 4165, Note_off_c, 4, 64, 17
6, 4200, Note_on_c, 4, 64, 127
6, 4263, Note_off_c, 4, 64, 17
6, 4320, Note_on_c, 4, 64, 127
6, 4465, Note_off_c, 4, 64, 17
6, 4560, Note_on_c, 4, 64, 109
6, 4631, Note_off_c, 4, 64, 17
6, 4680, Note_on_c, 4, 64, 127
6, 4731, Note_off_c, 4, 64, 17
6, 4800, Note_on_c, 4, 64, 122
6, 4904, Note_off_c, 4, 64, 17
6, 5040, Note_on_c, 4, 64, 117
6, 5138, Note_off_c, 4, 64, 17
6, 5280, Note_on_c, 4, 64, 125
6, 5580, Note_off_c, 4, 64, 17
6, 7440, Note_on_c, 4, 64, 119
6, 7509, Note_off_c, 4, 64, 17
6, 7560, Note_on_c, 4, 64, 127
6, 7619, Note_off_c, 4, 64, 17
6, 7680, Note_on_c, 4, 64, 127
6, 7852, Note_off_c, 4, 64, 17
6, 7920, Note_on_c, 4, 64, 109
6, 8005, Note_off_c, 4, 64, 17
6, 8040, Note_on_c, 4, 64, 127
6, 8103, Note_off_c, 4, 64, 17
6, 8160, Note_on_c, 4, 64, 127
6, 8305, Note_off_c, 4, 64, 17
6, 8400, Note_on_c, 4, 64, 109
6, 8471, Note_off_c, 4, 64, 17
6, 8520, Note_on_c, 4, 64, 127
6, 8571, Note_off_c, 4, 64, 17
6, 8640, Note_on_c, 4, 64, 122
6, 8744, Note_off_c, 4, 64, 17
6, 8880, Note_on_c, 4, 64, 117
6, 8978, Note_off_c, 4, 64, 17
6, 9120, Note_on_c, 4, 64, 125
6, 9420, Note_off_c, 4, 64, 17
6, 24480, Note_on_c, 4, 71, 119
6, 24956, Note_off_c, 4, 71, 17
6, 26400, Note_on_c, 4, 63, 116
6, 26400, Note_on_c, 4, 66, 116
6, 26400, Note_on_c, 4, 71, 106
6, 26525, Note_off_c, 4, 63, 17
6, 26535, Note_off_c, 4, 71, 17
6, 26535, Note_off_c, 4, 66, 17
6, 26640, Note_on_c, 4, 63, 110
6, 26640, Note_on_c, 4, 66, 110
6, 26640, Note_on_c, 4, 71, 99
6, 26724, Note_off_c, 4, 63, 17
6, 26727, Note_off_c, 4, 66, 17
6, 26728, Note_off_c, 4, 71, 17
6, 26880, Note_on_c, 4, 63, 116
6, 26880, Note_on_c, 4, 66, 116
6, 26880, Note_on_c, 4, 71, 106
6, 27057, Note_off_c, 4, 63, 17
6, 27061, Note_off_c, 4, 66, 17
6, 27081, Note_off_c, 4, 71, 17
6, 27120, Note_on_c, 4, 64, 122
6, 27120, Note_on_c, 4, 68, 104
6, 27120, Note_on_c, 4, 71, 70
6, 27266, Note_off_c, 4, 64, 17
6, 27272, Note_off_c, 4, 68, 17
6, 27294, Note_off_c, 4, 71, 17
6, 30240, Note_on_c, 4, 63, 116
6, 30240, Note_on_c, 4, 66, 116
6, 30240, Note_on_c, 4, 71, 106
6, 30365, Note_off_c, 4, 63, 17
6, 30375, Note_off_c, 4, 71, 17
6, 30375, Note_off_c, 4, 66, 17
6, 30480, Note_on_c, 4, 63, 110
6, 30480, Note_on_c, 4, 66, 110
6, 30480, Note_on_c, 4, 71, 99
6, 30564, Note_off_c, 4, 63, 17
6, 30567, Note_off_c, 4, 66, 17
6, 30568, Note_off_c, 4, 71, 17
6, 30720, Note_on_c, 4, 63, 116
6, 30720, Note_on_c, 4, 66, 116
6, 30720, Note_on_c, 4, 71, 106
6, 30897, Note_off_c, 4, 63, 17
6, 30901, Note_off_c, 4, 66, 17
6, 30921, Note_off_c, 4, 71, 17
6, 30960, Note_on_c, 4, 64, 122
6, 30960, Note_on_c, 4, 68, 104
6, 30960, Note_on_c, 4, 71, 70
6, 31106, Note_off_c, 4, 64, 17
6, 31112, Note_off_c, 4, 68, 17
6, 31134, Note_off_c, 4, 71, 17
6, 34080, Note_on_c, 4, 63, 110
6, 34080, Note_on_c, 4, 66, 116
6, 34080, Note_on_c, 4, 71, 97
6, 34160, Note_off_c, 4, 63, 17
6, 34165, Note_off_c, 4, 66, 17
6, 34168, Note_off_c, 4, 71, 17
6, 34320, Note_on_c, 4, 63, 110
6, 34320, Note_on_c, 4, 66, 110
6, 34320, Note_on_c, 4, 71, 99
6, 34406, Note_off_c, 4, 66, 17
6, 34417, Note_off_c, 4, 63, 17
6, 34423, Note_off_c, 4, 71, 17
6, 34560, Note_on_c, 4, 63, 119
6, 34560, Note_on_c, 4, 66, 119
6, 34560, Note_on_c, 4, 71, 111
6, 34696, Note_off_c, 4, 66, 17
6, 34704, Note_off_c, 4, 71, 17
6, 34708, Note_off_c, 4, 63, 17
6, 34800, Note_on_c, 4, 61, 107
6, 34800, Note_on_c, 4, 64, 93
6, 34800, Note_on_c, 4, 69, 106
6, 34906, Note_off_c, 4, 64, 17
6, 34939, Note_off_c, 4, 69, 17
6, 34942, Note_off_c, 4, 61, 17
6, 39840, Note_on_c, 4, 71, 119
6, 40244, Note_off_c, 4, 71, 17
6, 46320, Note_on_c, 4, 71, 127
6, 46398, Note_off_c, 4, 71, 17
6, 46440, Note_on_c, 4, 71, 127
6, 46521, Note_off_c, 4, 71, 17
6, 46560, Note_on_c, 4, 71, 127
6, 46730, Note_off_c, 4, 71, 17
6, 46800, Note_on_c, 4, 64, 125
6, 46857, Note_off_c, 4, 64, 17
6, 46920, Note_on_c, 4, 64, 122
6, 46994, Note_off_c, 4, 64, 17
6, 47040, Note_on_c, 4, 64, 127
6, 47149, Note_off_c, 4, 64, 17
6, 47280, Note_on_c, 4, 64, 127
6, 47433, Note_off_c, 4, 64, 17
6, 47520, Note_on_c, 4, 66, 126
6, 47750, Note_off_c, 4, 66, 17
6, 47760, Note_on_c, 4, 68, 119
6, 47911, Note_off_c, 4, 68, 17
6, 48240, Note_on_c, 4, 71, 127
6, 48318, Note_off_c, 4, 71, 17
6, 48360, Note_on_c, 4, 71, 127
6, 48441, Note_off_c, 4, 71, 17
6, 48480, Note_on_c, 4, 71, 127
6, 48650, Note_off_c, 4, 71, 17
6, 48720, Note_on_c, 4, 64, 125
6, 48777, Note_off_c, 4, 64, 17
6, 48840, Note_on_c, 4, 64, 122
6, 48914, Note_off_c, 4, 64, 17
6, 48960, Note_on_c, 4, 64, 127
6, 49069, Note_off_c, 4, 64, 17
6, 49200, Note_on_c, 4, 66, 127
6, 49353, Note_off_c, 4, 66, 17
6, 49440, Note_on_c, 4, 68, 122
6, 49680, Note_on_c, 4, 66, 119
6, 49703, Note_off_c, 4, 68, 17
6, 49777, Note_off_c, 4, 66, 17
6, 49800, Note_on_c, 4, 64, 127
6, 49889, Note_off_c, 4, 64, 17
6, 50160, Note_on_c, 4, 71, 127
6, 50238, Note_off_c, 4, 71, 17
6, 50280, Note_on_c, 4, 71, 127
6, 50361, Note_off_c, 4, 71, 17
6, 50400, Note_on_c, 4, 71, 127
6, 50570, Note_off_c, 4, 71, 17
6, 50640, Note_on_c, 4, 64, 125
6, 50697, Note_off_c, 4, 64, 17
6, 50760, Note_on_c, 4, 64, 122
6, 50834, Note_off_c, 4, 64, 17
6, 50880, Note_on_c, 4, 64, 127
6, 50989, Note_off_c, 4, 64, 17
6, 51120, Note_on_c, 4, 64, 127
6, 51273, Note_off_c, 4, 64, 17
6, 51360, Note_on_c, 4, 66, 126
6, 51590, Note_off_c, 4, 66, 17
6, 51600, Note_on_c, 4, 68, 119
6, 51751, Note_off_c, 4, 68, 17
6, 52080, Note_on_c, 4, 71, 127
6, 52158, Note_off_c, 4, 71, 17
6, 52200, Note_on_c, 4, 71, 127
6, 52281, Note_off_c, 4, 71, 17
6, 52320, Note_on_c, 4, 71, 127
6, 52490, Note_off_c, 4, 71, 17
6, 52560, Note_on_c, 4, 64, 125
6, 52617, Note_off_c, 4, 64, 17
6, 52680, Note_on_c, 4, 64, 122
6, 52754, Note_off_c, 4, 64, 17
6, 52800, Note_on_c, 4, 64, 127
6, 52909, Note_off_c, 4, 64, 17
6, 53040, Note_on_c, 4, 66, 127
6, 53193, Note_off_c, 4, 66, 17
6, 53280, Note_on_c, 4, 68, 122
6, 53520, Note_on_c, 4, 66, 119
6, 53543, Note_off_c, 4, 68, 17
6, 53617, Note_off_c, 4, 66, 17
6, 53640, Note_on_c, 4, 64, 127
6, 53729, Note_off_c, 4, 64, 17
6, 54000, Note_on_c, 4, 71, 127
6, 54204, Note_off_c, 4, 71, 17
6, 54240, Note_on_c, 4, 68, 116
6, 54391, Note_off_c, 4, 68, 17
6, 54480, Note_on_c, 4, 73, 119
6, 54669, Note_off_c, 4, 73, 17
6, 54720, Note_on_c, 4, 71, 127
6, 54933, Note_off_c, 4, 71, 17
6, 54960, Note_on_c, 4, 66, 116
6, 55043, Note_off_c, 4, 66, 17
6, 55200, Note_on_c, 4, 66, 119
6, 55440, Note_on_c, 4, 64, 122
6, 55462, Note_off_c, 4, 66, 17
6, 55644, Note_off_c, 4, 64, 17
6, 55920, Note_on_c, 4, 71, 127
6, 56124, Note_off_c, 4, 71, 17
6, 56160, Note_on_c, 4, 68, 116
6, 56311, Note_off_c, 4, 68, 17
6, 56400, Note_on_c, 4, 73, 119
6, 56589, Note_off_c, 4, 73, 17
6, 56640, Note_on_c, 4, 71, 127
6, 56853, Note_off_c, 4, 71, 17
6, 56880, Note_on_c, 4, 66, 116
6, 56963, Note_off_c, 4, 66, 17
6, 57120, Note_on_c, 4, 68, 126
6, 57236, Note_off_c, 4, 68, 17
6, 57240, Note_on_c, 4, 66, 122
6, 57356, Note_off_c, 4, 66, 17
6, 57360, Note_on_c, 4, 64, 117
6, 57476, Note_off_c, 4, 64, 17
6, 57480, Note_on_c, 4, 66, 122
6, 57596, Note_off_c, 4, 66, 17
6, 57600, Note_on_c, 4, 68, 119
6, 57834, Note_off_c, 4, 68, 17
6, 57840, Note_on_c, 4, 64, 119
6, 57900, Note_off_c, 4, 64, 17
6, 57960, Note_on_c, 4, 64, 119
6, 58170, Note_off_c, 4, 64, 17
6, 58200, Note_on_c, 4, 61, 110
6, 58256, Note_off_c, 4, 61, 17
6, 58320, Note_on_c, 4, 61, 122
6, 58756, Note_off_c, 4, 61, 17
6, 58800, Note_on_c, 4, 59, 106
6, 59276, Note_off_c, 4, 59, 17
6, 59280, Note_on_c, 4, 64, 117
6, 59396, Note_off_c, 4, 64, 17
6, 59400, Note_on_c, 4, 66, 122
6, 59516, Note_off_c, 4, 66, 17
6, 59520, Note_on_c, 4, 68, 119
6, 59754, Note_off_c, 4, 68, 17
6, 59760, Note_on_c, 4, 64, 119
6, 59820, Note_off_c, 4, 64, 17
6, 59880, Note_on_c, 4, 64, 119
6, 60090, Note_off_c, 4, 64, 17
6, 60120, Note_on_c, 4, 61, 110
6, 60176, Note_off_c, 4, 61, 17
6, 60240, Note_on_c, 4, 61, 122
6, 60676, Note_off_c, 4, 61, 17
6, 60720, Note_on_c, 4, 59, 106
6, 60956, Note_off_c, 4, 59, 17
6, 60960, Note_on_c, 4, 66, 106
6, 61196, Note_off_c, 4, 66, 17
6, 61200, Note_on_c, 4, 64, 106
6, 61436, Note_off_c, 4, 64, 17
6, 61680, Note_on_c, 4, 71, 127
6, 61680, Note_on_c, 4, 76, 127
6, 61758, Note_off_c, 4, 71, 17
6, 61758, Note_off_c, 4, 76, 17
6, 61800, Note_on_c, 4, 71, 127
6, 61800, Note_on_c, 4, 76, 127
6, 61881, Note_off_c, 4, 76, 17
6, 61881, Note_off_c, 4, 71, 17
6, 61920, Note_on_c, 4, 71, 127
6, 61920, Note_on_c, 4, 76, 127
6, 62090, Note_off_c, 4, 76, 17
6, 62090, Note_off_c, 4, 71, 17
6, 62160, Note_on_c, 4, 64, 125
6, 62160, Note_on_c, 4, 68, 125
6, 62217, Note_off_c, 4, 68, 17
6, 62217, Note_off_c, 4, 64, 17
6, 62280, Note_on_c, 4, 64, 122
6, 62280, Note_on_c, 4, 68, 122
6, 62354, Note_off_c, 4, 64, 17
6, 62354, Note_off_c, 4, 68, 17
6, 62400, Note_on_c, 4, 64, 127
6, 62400, Note_on_c, 4, 68, 127
6, 62509, Note_off_c, 4, 64, 17
6, 62509, Note_off_c, 4, 68, 17
6, 62640, Note_on_c, 4, 64, 127
6, 62640, Note_on_c, 4, 68, 127
6, 62793, Note_off_c, 4, 64, 17
6, 62793, Note_off_c, 4, 68, 17
6, 62880, Note_on_c, 4, 66, 126
6, 62880, Note_on_c, 4, 69, 126
6, 63110, Note_off_c, 4, 69, 17
6, 63110, Note_off_c, 4, 66, 17
6, 63120, Note_on_c, 4, 68, 119
6, 63120, Note_on_c, 4, 71, 119
6, 63271, Note_off_c, 4, 68, 17
6, 63271, Note_off_c, 4, 71, 17
6, 63600, Note_on_c, 4, 71, 127
6, 63600, Note_on_c, 4, 76, 127
6, 63678, Note_off_c, 4, 71, 17
6, 63678, Note_off_c, 4, 76, 17
6, 63720, Note_on_c, 4, 71, 127
6, 63720, Note_on_c, 4, 76, 127
6, 63801, Note_off_c, 4, 76, 17
6, 63801, Note_off_c, 4, 71, 17
6, 63840, Note_on_c, 4, 71, 127
6, 63840, Note_on_c, 4, 76, 127
6, 64010, Note_off_c, 4, 76, 17
6, 64010, Note_off_c, 4, 71, 17
6, 64080, Note_on_c, 4, 64, 125
6, 64080, Note_on_c, 4, 68, 125
6, 64137, Note_off_c, 4, 68, 17
6, 64137, Note_off_c, 4, 64, 17
6, 64200, Note_on_c, 4, 64, 122
6, 64200, Note_on_c, 4, 68, 122
6, 64274, Note_off_c, 4, 68, 17
6, 64274, Note_off_c, 4, 64, 17
6, 64320, Note_on_c, 4, 64, 127
6, 64320, Note_on_c, 4, 68, 127
6, 64429, Note_off_c, 4, 64, 17
6, 64429, Note_off_c, 4, 68, 17
6, 64560, Note_on_c, 4, 66, 127
6, 64560, Note_on_c, 4, 69, 127
6, 64713, Note_off_c, 4, 69, 17
6, 64713, Note_off_c, 4, 66, 17
6, 64800, Note_on_c, 4, 68, 122
6, 64800, Note_on_c, 4, 71, 122
6, 65040, Note_on_c, 4, 66, 119
6, 65040, Note_on_c, 4, 69, 119
6, 65063, Note_off_c, 4, 71, 17
6, 65063, Note_off_c, 4, 68, 17
6, 65137, Note_off_c, 4, 66, 17
6, 65137, Note_off_c, 4, 69, 17
6, 65160, Note_on_c, 4, 64, 127
6, 65160, Note_on_c, 4, 68, 127
6, 65249, Note_off_c, 4, 64, 17
6, 65249, Note_off_c, 4, 68, 17
6, 65520, Note_on_c, 4, 71, 127
6, 65520, Note_on_c, 4, 76, 127
6, 65598, Note_off_c, 4, 71, 17
6, 65598, Note_off_c, 4, 76, 17
6, 65640, Note_on_c, 4, 71, 127
6, 65640, Note_on_c, 4, 76, 127
6, 65721, Note_off_c, 4, 76, 17
6, 65721, Note_off_c, 4, 71, 17
6, 65760, Note_on_c, 4, 71, 127
6, 65760, Note_on_c, 4, 76, 127
6, 65930, Note_off_c, 4, 71, 17
6, 65930, Note_off_c, 4, 76, 17
6, 66000, Note_on_c, 4, 64, 125
6, 66000, Note_on_c, 4, 68, 125
6, 66057, Note_off_c, 4, 68, 17
6, 66057, Note_off_c, 4, 64, 17
6, 66120, Note_on_c, 4, 64, 122
6, 66120, Note_on_c, 4, 68, 122
6, 66194, Note_off_c, 4, 64, 17
6, 66194, Note_off_c, 4, 68, 17
6, 66240, Note_on_c, 4, 64, 127
6, 66240, Note_on_c, 4, 68, 127
6, 66349, Note_off_c, 4, 64, 17
6, 66349, Note_off_c, 4, 68, 17
6, 66480, Note_on_c, 4, 64, 127
6, 66480, Note_on_c, 4, 68, 127
6, 66633, Note_off_c, 4, 68, 17
6, 66633, Note_off_c, 4, 64, 17
6, 66720, Note_on_c, 4, 66, 126
6, 66720, Note_on_c, 4, 69, 126
6, 66950, Note_off_c, 4, 69, 17
6, 66950, Note_off_c, 4, 66, 17
6, 66960, Note_on_c, 4, 68, 119
6, 66960, Note_on_c, 4, 71, 119
6, 67111, Note_off_c, 4, 68, 17
6, 67111, Note_off_c, 4, 71, 17
6, 67440, Note_on_c, 4, 71, 127
6, 67440, Note_on_c, 4, 76, 127
6, 67518, Note_off_c, 4, 76, 17
6, 67518, Note_off_c, 4, 71, 17
6, 67560, Note_on_c, 4, 71, 127
6, 67560, Note_on_c, 4, 76, 127
6, 67641, Note_off_c, 4, 76, 17
6, 67641, Note_off_c, 4, 71, 17
6, 67680, Note_on_c, 4, 71, 127
6, 67680, Note_on_c, 4, 76, 127
6, 67850, Note_off_c, 4, 76, 17
6, 67850, Note_off_c, 4, 71, 17
6, 67920, Note_on_c, 4, 64, 125
6, 67920, Note_on_c, 4, 68, 125
6, 67977, Note_off_c, 4, 68, 17
6, 67977, Note_off_c, 4, 64, 17
6, 68040, Note_on_c, 4, 64, 122
6, 68040, Note_on_c, 4, 68, 122
6, 68114, Note_off_c, 4, 68, 17
6, 68114, Note_off_c, 4, 64, 17
6, 68160, Note_on_c, 4, 64, 127
6, 68160, Note_on_c, 4, 68, 127
6, 68269, Note_off_c, 4, 64, 17
6, 68269, Note_off_c, 4, 68, 17
6, 68400, Note_on_c, 4, 66, 127
6, 68400, Note_on_c, 4, 69, 127
6, 68553, Note_off_c, 4, 66, 17
6, 68553, Note_off_c, 4, 69, 17
6, 68640, Note_on_c, 4, 68, 122
6, 68640, Note_on_c, 4, 71, 122
6, 68880, Note_on_c, 4, 66, 119
6, 68880, Note_on_c, 4, 69, 119
6, 68903, Note_off_c, 4, 71, 17
6, 68903, Note_off_c, 4, 68, 17
6, 68977, Note_off_c, 4, 69, 17
6, 68977, Note_off_c, 4, 66, 17
6, 69000, Note_on_c, 4, 64, 127
6, 69000, Note_on_c, 4, 68, 127
6, 69089, Note_off_c, 4, 64, 17
6, 69089, Note_off_c, 4, 68, 17
6, 69360, Note_on_c, 4, 71, 127
6, 69564, Note_off_c, 4, 71, 17
6, 69600, Note_on_c, 4, 68, 116
6, 69751, Note_off_c, 4, 68, 17
6, 69840, Note_on_c, 4, 73, 119
6, 70029, Note_off_c, 4, 73, 17
6, 70080, Note_on_c, 4, 71, 127
6, 70293, Note_off_c, 4, 71, 17
6, 70320, Note_on_c, 4, 66, 116
6, 70403, Note_off_c, 4, 66, 17
6, 70560, Note_on_c, 4, 66, 119
6, 70800, Note_on_c, 4, 64, 122
6, 70822, Note_off_c, 4, 66, 17
6, 71004, Note_off_c, 4, 64, 17
6, 71280, Note_on_c, 4, 71, 127
6, 71484, Note_off_c, 4, 71, 17
6, 71520, Note_on_c, 4, 68, 116
6, 71671, Note_off_c, 4, 68, 17
6, 71760, Note_on_c, 4, 73, 119
6, 71949, Note_off_c, 4, 73, 17
6, 72000, Note_on_c, 4, 71, 127
6, 72213, Note_off_c, 4, 71, 17
6, 72240, Note_on_c, 4, 66, 116
6, 72323, Note_off_c, 4, 66, 17
6, 72480, Note_on_c, 4, 68, 126
6, 72596, Note_off_c, 4, 68, 17
6, 72600, Note_on_c, 4, 66, 122
6, 72716, Note_off_c, 4, 66, 17
6, 72720, Note_on_c, 4, 64, 117
6, 72836, Note_off_c, 4, 64, 17
6, 72840, Note_on_c, 4, 66, 122
6, 72956, Note_off_c, 4, 66, 17
6, 72960, Note_on_c, 4, 68, 119
6, 73194, Note_off_c, 4, 68, 17
6, 73200, Note_on_c, 4, 64, 119
6, 73260, Note_off_c, 4, 64, 17
6, 73320, Note_on_c, 4, 64, 119
6, 73530, Note_off_c, 4, 64, 17
6, 73560, Note_on_c, 4, 61, 110
6, 73616, Note_off_c, 4, 61, 17
6, 73680, Note_on_c, 4, 61, 122
6, 74116, Note_off_c, 4, 61, 17
6, 74160, Note_on_c, 4, 59, 106
6, 74636, Note_off_c, 4, 59, 17
6, 74640, Note_on_c, 4, 64, 117
6, 74756, Note_off_c, 4, 64, 17
6, 74760, Note_on_c, 4, 66, 122
6, 74876, Note_off_c, 4, 66, 17
6, 74880, Note_on_c, 4, 68, 119
6, 75114, Note_off_c, 4, 68, 17
6, 75120, Note_on_c, 4, 64, 119
6, 75180, Note_off_c, 4, 64, 17
6, 75240, Note_on_c, 4, 64, 119
6, 75450, Note_off_c, 4, 64, 17
6, 75480, Note_on_c, 4, 61, 110
6, 75536, Note_off_c, 4, 61, 17
6, 75600, Note_on_c, 4, 61, 122
6, 76036, Note_off_c, 4, 61, 17
6, 76080, Note_on_c, 4, 59, 106
6, 76316, Note_off_c, 4, 59, 17
6, 89760, Note_on_c, 4, 71, 119
6, 90164, Note_off_c, 4, 71, 17
6, 96240, Note_on_c, 4, 71, 127
6, 96318, Note_off_c, 4, 71, 17
6, 96360, Note_on_c, 4, 71, 127
6, 96441, Note_off_c, 4, 71, 17
6, 96480, Note_on_c, 4, 71, 127
6, 96650, Note_off_c, 4, 71, 17
6, 96720, Note_on_c, 4, 64, 125
6, 96777, Note_off_c, 4, 64, 17
6, 96840, Note_on_c, 4, 64, 122
6, 96914, Note_off_c, 4, 64, 17
6, 96960, Note_on_c, 4, 64, 127
6, 97069, Note_off_c, 4, 64, 17
6, 97200, Note_on_c, 4, 64, 127
6, 97353, Note_off_c, 4, 64, 17
6, 97440, Note_on_c, 4, 66, 126
6, 97670, Note_off_c, 4, 66, 17
6, 97680, Note_on_c, 4, 68, 119
6, 97831, Note_off_c, 4, 68, 17
6, 98160, Note_on_c, 4, 71, 127
6, 98238, Note_off_c, 4, 71, 17
6, 98280, Note_on_c, 4, 71, 127
6, 98361, Note_off_c, 4, 71, 17
6, 98400, Note_on_c, 4, 71, 127
6, 98570, Note_off_c, 4, 71, 17
6, 98640, Note_on_c, 4, 64, 125
6, 98697, Note_off_c, 4, 64, 17
6, 98760, Note_on_c, 4, 64, 122
6, 98834, Note_off_c, 4, 64, 17
6, 98880, Note_on_c, 4, 64, 127
6, 98989, Note_off_c, 4, 64, 17
6, 99120, Note_on_c, 4, 66, 127
6, 99273, Note_off_c, 4, 66, 17
6, 99360, Note_on_c, 4, 68, 122
6, 99600, Note_on_c, 4, 66, 119
6, 99623, Note_off_c, 4, 68, 17
6, 99697, Note_off_c, 4, 66, 17
6, 99720, Note_on_c, 4, 64, 127
6, 99809, Note_off_c, 4, 64, 17
6, 100080, Note_on_c, 4, 71, 127
6, 100158, Note_off_c, 4, 71, 17
6, 100200, Note_on_c, 4, 71, 127
6, 100281, Note_off_c, 4, 71, 17
6, 100320, Note_on_c, 4, 71, 127
6, 100490, Note_off_c, 4, 71, 17
6, 100560, Note_on_c, 4, 64, 125
6, 100617, Note_off_c, 4, 64, 17
6, 100680, Note_on_c, 4, 64, 122
6, 100754, Note_off_c, 4, 64, 17
6, 100800, Note_on_c, 4, 64, 127
6, 100909, Note_off_c, 4, 64, 17
6, 101040, Note_on_c, 4, 64, 127
6, 101193, Note_off_c, 4, 64, 17
6, 101280, Note_on_c, 4, 66, 126
6, 101510, Note_off_c, 4, 66, 17
6, 101520, Note_on_c, 4, 68, 119
6, 101671, Note_off_c, 4, 68, 17
6, 102000, Note_on_c, 4, 71, 127
6, 102078, Note_off_c, 4, 71, 17
6, 102120, Note_on_c, 4, 71, 127
6, 102201, Note_off_c, 4, 71, 17
6, 102240, Note_on_c, 4, 71, 127
6, 102410, Note_off_c, 4, 71, 17
6, 102480, Note_on_c, 4, 64, 125
6, 102537, Note_off_c, 4, 64, 17
6, 102600, Note_on_c, 4, 64, 122
6, 102674, Note_off_c, 4, 64, 17
6, 102720, Note_on_c, 4, 64, 127
6, 102829, Note_off_c, 4, 64, 17
6, 102960, Note_on_c, 4, 66, 127
6, 103113, Note_off_c, 4, 66, 17
6, 103200, Note_on_c, 4, 68, 122
6, 103440, Note_on_c, 4, 66, 119
6, 103463, Note_off_c, 4, 68, 17
6, 103537, Note_off_c, 4, 66, 17
6, 103560, Note_on_c, 4, 64, 127
6, 103649, Note_off_c, 4, 64, 17
6, 103920, Note_on_c, 4, 71, 127
6, 104124, Note_off_c, 4, 71, 17
6, 104160, Note_on_c, 4, 68, 116
6, 104311, Note_off_c, 4, 68, 17
6, 104400, Note_on_c, 4, 73, 119
6, 104589, Note_off_c, 4, 73, 17
6, 104640, Note_on_c, 4, 71, 127
6, 104853, Note_off_c, 4, 71, 17
6, 104880, Note_on_c, 4, 66, 116
6, 104963, Note_off_c, 4, 66, 17
6, 105120, Note_on_c, 4, 66, 119
6, 105360, Note_on_c, 4, 64, 122
6, 105382, Note_off_c, 4, 66, 17
6, 105564, Note_off_c, 4, 64, 17
6, 105840, Note_on_c, 4, 71, 127
6, 106044, Note_off_c, 4, 71, 17
6, 106080, Note_on_c, 4, 68, 116
6, 106231, Note_off_c, 4, 68, 17
6, 106320, Note_on_c, 4, 73, 119
6, 106509, Note_off_c, 4, 73, 17
6, 106560, Note_on_c, 4, 71, 127
6, 106773, Note_off_c, 4, 71, 17
6, 106800, Note_on_c, 4, 66, 116
6, 106883, Note_off_c, 4, 66, 17
6, 107040, Note_on_c, 4, 68, 126
6, 107156, Note_off_c, 4, 68, 17
6, 107160, Note_on_c, 4, 66, 122
6, 107276, Note_off_c, 4, 66, 17
6, 107280, Note_on_c, 4, 64, 117
6, 107396, Note_off_c, 4, 64, 17
6, 107400, Note_on_c, 4, 66, 122
6, 107516, Note_off_c, 4, 66, 17
6, 107520, Note_on_c, 4, 68, 119
6, 107754, Note_off_c, 4, 68, 17
6, 107760, Note_on_c, 4, 64, 119
6, 107820, Note_off_c, 4, 64, 17
6, 107880, Note_on_c, 4, 64, 119
6, 108090, Note_off_c, 4, 64, 17
6, 108120, Note_on_c, 4, 61, 110
6, 108176, Note_off_c, 4, 61, 17
6, 108240, Note_on_c, 4, 61, 122
6, 108676, Note_off_c, 4, 61, 17
6, 108720, Note_on_c, 4, 59, 106
6, 109196, Note_off_c, 4, 59, 17
6, 109200, Note_on_c, 4, 64, 117
6, 109316, Note_off_c, 4, 64, 17
6, 109320, Note_on_c, 4, 66, 122
6, 109436, Note_off_c, 4, 66, 17
6, 109440, Note_on_c, 4, 68, 119
6, 109674, Note_off_c, 4, 68, 17
6, 109680, Note_on_c, 4, 64, 119
6, 109740, Note_off_c, 4, 64, 17
6, 109800, Note_on_c, 4, 64, 119
6, 110010, Note_off_c, 4, 64, 17
6, 110040, Note_on_c, 4, 61, 110
6, 110096, Note_off_c, 4, 61, 17
6, 110160, Note_on_c, 4, 61, 122
6, 110596, Note_off_c, 4, 61, 17
6, 110640, Note_on_c, 4, 59, 106
6, 110876, Note_off_c, 4, 59, 17
6, 110880, Note_on_c, 4, 66, 106
6, 111116, Note_off_c, 4, 66, 17
6, 111120, Note_on_c, 4, 64, 106
6, 111356, Note_off_c, 4, 64, 17
6, 111600, Note_on_c, 4, 71, 127
6, 111600, Note_on_c, 4, 76, 127
6, 111678, Note_off_c, 4, 71, 17
6, 111678, Note_off_c, 4, 76, 17
6, 111720, Note_on_c, 4, 71, 127
6, 111720, Note_on_c, 4, 76, 127
6, 111801, Note_off_c, 4, 76, 17
6, 111801, Note_off_c, 4, 71, 17
6, 111840, Note_on_c, 4, 71, 127
6, 111840, Note_on_c, 4, 76, 127
6, 112010, Note_off_c, 4, 76, 17
6, 112010, Note_off_c, 4, 71, 17
6, 112080, Note_on_c, 4, 64, 125
6, 112080, Note_on_c, 4, 68, 125
6, 112137, Note_off_c, 4, 68, 17
6, 112137, Note_off_c, 4, 64, 17
6, 112200, Note_on_c, 4, 64, 122
6, 112200, Note_on_c, 4, 68, 122
6, 112274, Note_off_c, 4, 64, 17
6, 112274, Note_off_c, 4, 68, 17
6, 112320, Note_on_c, 4, 64, 127
6, 112320, Note_on_c, 4, 68, 127
6, 112429, Note_off_c, 4, 64, 17
6, 112429, Note_off_c, 4, 68, 17
6, 112560, Note_on_c, 4, 64, 127
6, 112560, Note_on_c, 4, 68, 127
6, 112713, Note_off_c, 4, 64, 17
6, 112713, Note_off_c, 4, 68, 17
6, 112800, Note_on_c, 4, 66, 126
6, 112800, Note_on_c, 4, 69, 126
6, 113030, Note_off_c, 4, 69, 17
6, 113030, Note_off_c, 4, 66, 17
6, 113040, Note_on_c, 4, 68, 119
6, 113040, Note_on_c, 4, 71, 119
6, 113191, Note_off_c, 4, 68, 17
6, 113191, Note_off_c, 4, 71, 17
6, 113520, Note_on_c, 4, 71, 127
6, 113520, Note_on_c, 4, 76, 127
6, 113598, Note_off_c, 4, 71, 17
6, 113598, Note_off_c, 4, 76, 17
6, 113640, Note_on_c, 4, 71, 127
6, 113640, Note_on_c, 4, 76, 127
6, 113721, Note_off_c, 4, 76, 17
6, 113721, Note_off_c, 4, 71, 17
6, 113760, Note_on_c, 4, 71, 127
6, 113760, Note_on_c, 4, 76, 127
6, 113930, Note_off_c, 4, 76, 17
6, 113930, Note_off_c, 4, 71, 17
6, 114000, Note_on_c, 4, 64, 125
6, 114000, Note_on_c, 4, 68, 125
6, 114057, Note_off_c, 4, 68, 17
6, 114057, Note_off_c, 4, 64, 17
6, 114120, Note_on_c, 4, 64, 122
6, 114120, Note_on_c, 4, 68, 122
6, 114194, Note_off_c, 4, 68, 17
6, 114194, Note_off_c, 4, 64, 17
6, 114240, Note_on_c, 4, 64, 127
6, 114240, Note_on_c, 4, 68, 127
6, 114349, Note_off_c, 4, 64, 17
6, 114349, Note_off_c, 4, 68, 17
6, 114480, Note_on_c, 4, 66, 127
6, 114480, Note_on_c, 4, 69, 127
6, 114633, Note_off_c, 4, 69, 17
6, 114633, Note_off_c, 4, 66, 17
6, 114720, Note_on_c, 4, 68, 122
6, 114720, Note_on_c, 4, 71, 122
6, 114960, Note_on_c, 4, 66, 119
6, 114960, Note_on_c, 4, 69, 119
6, 114983, Note_off_c, 4, 71, 17
6, 114983, Note_off_c, 4, 68, 17
6, 115057, Note_off_c, 4, 66, 17
6, 115057, Note_off_c, 4, 69, 17
6, 115080, Note_on_c, 4, 64, 127
6, 115080, Note_on_c, 4, 68, 127
6, 115169, Note_off_c, 4, 64, 17
6, 115169, Note_off_c, 4, 68, 17
6, 115440, Note_on_c, 4, 71, 127
6, 115440, Note_on_c, 4, 76, 127
6, 115518, Note_off_c, 4, 71, 17
6, 115518, Note_off_c, 4, 76, 17
6, 115560, Note_on_c, 4, 71, 127
6, 115560, Note_on_c, 4, 76, 127
6, 115641, Note_off_c, 4, 76, 17
6, 115641, Note_off_c, 4, 71, 17
6, 115680, Note_on_c, 4, 71, 127
6, 115680, Note_on_c, 4, 76, 127
6, 115850, Note_off_c, 4, 71, 17
6, 115850, Note_off_c, 4, 76, 17
6, 115920, Note_on_c, 4, 64, 125
6, 115920, Note_on_c, 4, 68, 125
6, 115977, Note_off_c, 4, 68, 17
6, 115977, Note_off_c, 4, 64, 17
6, 116040, Note_on_c, 4, 64, 122
6, 116040, Note_on_c, 4, 68, 122
6, 116114, Note_off_c, 4, 64, 17
6, 116114, Note_off_c, 4, 68, 17
6, 116160, Note_on_c, 4, 64, 127
6, 116160, Note_on_c, 4, 68, 127
6, 116269, Note_off_c, 4, 64, 17
6, 116269, Note_off_c, 4, 68, 17
6, 116400, Note_on_c, 4, 64, 127
6, 116400, Note_on_c, 4, 68, 127
6, 116553, Note_off_c, 4, 68, 17
6, 116553, Note_off_c, 4, 64, 17
6, 116640, Note_on_c, 4, 66, 126
6, 116640, Note_on_c, 4, 69, 126
6, 116870, Note_off_c, 4, 69, 17
6, 116870, Note_off_c, 4, 66, 17
6, 116880, Note_on_c, 4, 68, 119
6, 116880, Note_on_c, 4, 71, 119
6, 117031, Note_off_c, 4, 68, 17
6, 117031, Note_off_c, 4, 71, 17
6, 117360, Note_on_c, 4, 71, 127
6, 117360, Note_on_c, 4, 76, 127
6, 117438, Note_off_c, 4, 76, 17
6, 117438, Note_off_c, 4, 71, 17
6, 117480, Note_on_c, 4, 71, 127
6, 117480, Note_on_c, 4, 76, 127
6, 117561, Note_off_c, 4, 76, 17
6, 117561, Note_off_c, 4, 71, 17
6, 117600, Note_on_c, 4, 71, 127
6, 117600, Note_on_c, 4, 76, 127
6, 117770, Note_off_c, 4, 76, 17
6, 117770, Note_off_c, 4, 71, 17
6, 117840, Note_on_c, 4, 64, 125
6, 117840, Note_on_c, 4, 68, 125
6, 117897, Note_off_c, 4, 68, 17
6, 117897, Note_off_c, 4, 64, 17
6, 117960, Note_on_c, 4, 64, 122
6, 117960, Note_on_c, 4, 68, 122
6, 118034, Note_off_c, 4, 68, 17
6, 118034, Note_off_c, 4, 64, 17
6, 118080, Note_on_c, 4, 64, 127
6, 118080, Note_on_c, 4, 68, 127
6, 118189, Note_off_c, 4, 64, 17
6, 118189, Note_off_c, 4, 68, 17
6, 118320, Note_on_c, 4, 66, 127
6, 118320, Note_on_c, 4, 69, 127
6, 118473, Note_off_c, 4, 66, 17
6, 118473, Note_off_c, 4, 69, 17
6, 118560, Note_on_c, 4, 68, 122
6, 118560, Note_on_c, 4, 71, 122
6, 118800, Note_on_c, 4, 66, 119
6, 118800, Note_on_c, 4, 69, 119
6, 118823, Note_off_c, 4, 71, 17
6, 118823, Note_off_c, 4, 68, 17
6, 118897, Note_off_c, 4, 69, 17
6, 118897, Note_off_c, 4, 66, 17
6, 118920, Note_on_c, 4, 64, 127
6, 118920, Note_on_c, 4, 68, 127
6, 119009, Note_off_c, 4, 64, 17
6, 119009, Note_off_c, 4, 68, 17
6, 119280, Note_on_c, 4, 71, 127
6, 119484, Note_off_c, 4, 71, 17
6, 119520, Note_on_c, 4, 68, 116
6, 119671, Note_off_c, 4, 68, 17
6, 119760, Note_on_c, 4, 73, 119
6, 119949, Note_off_c, 4, 73, 17
6, 120000, Note_on_c, 4, 71, 127
6, 120213, Note_off_c, 4, 71, 17
6, 120240, Note_on_c, 4, 66, 116
6, 120323, Note_off_c, 4, 66, 17
6, 120480, Note_on_c, 4, 66, 119
6, 120720, Note_on_c, 4, 64, 122
6, 120742, Note_off_c, 4, 66, 17
6, 120924, Note_off_c, 4, 64, 17
6, 121200, Note_on_c, 4, 71, 127
6, 121404, Note_off_c, 4, 71, 17
6, 121440, Note_on_c, 4, 68, 116
6, 121591, Note_off_c, 4, 68, 17
6, 121680, Note_on_c, 4, 73, 119
6, 121869, Note_off_c, 4, 73, 17
6, 121920, Note_on_c, 4, 71, 127
6, 122133, Note_off_c, 4, 71, 17
6, 122160, Note_on_c, 4, 66, 116
6, 122243, Note_off_c, 4, 66, 17
6, 122400, Note_on_c, 4, 68, 126
6, 122516, Note_off_c, 4, 68, 17
6, 122520, Note_on_c, 4, 66, 122
6, 122636, Note_off_c, 4, 66, 17
6, 122640, Note_on_c, 4, 64, 117
6, 122756, Note_off_c, 4, 64, 17
6, 122760, Note_on_c, 4, 66, 122
6, 122876, Note_off_c, 4, 66, 17
6, 122880, Note_on_c, 4, 68, 119
6, 123114, Note_off_c, 4, 68, 17
6, 123120, Note_on_c, 4, 64, 119
6, 123180, Note_off_c, 4, 64, 17
6, 123240, Note_on_c, 4, 64, 119
6, 123450, Note_off_c, 4, 64, 17
6, 123480, Note_on_c, 4, 61, 110
6, 123536, Note_off_c, 4, 61, 17
6, 123600, Note_on_c, 4, 61, 122
6, 124036, Note_off_c, 4, 61, 17
6, 124080, Note_on_c, 4, 59, 106
6, 124556, Note_off_c, 4, 59, 17
6, 124560, Note_on_c, 4, 64, 117
6, 124676, Note_off_c, 4, 64, 17
6, 124680, Note_on_c, 4, 66, 122
6, 124796, Note_off_c, 4, 66, 17
6, 124800, Note_on_c, 4, 68, 119
6, 125034, Note_off_c, 4, 68, 17
6, 125040, Note_on_c, 4, 64, 119
6, 125100, Note_off_c, 4, 64, 17
6, 125160, Note_on_c, 4, 64, 119
6, 125370, Note_off_c, 4, 64, 17
6, 125400, Note_on_c, 4, 61, 110
6, 125456, Note_off_c, 4, 61, 17
6, 125520, Note_on_c, 4, 61, 122
6, 125956, Note_off_c, 4, 61, 17
6, 126000, Note_on_c, 4, 59, 106
6, 126236, Note_off_c, 4, 59, 17
6, 126507, Note_on_c, 4, 64, 119
6, 126576, Note_off_c, 4, 64, 17
6, 126610, Note_on_c, 4, 64, 127
6, 126669, Note_off_c, 4, 64, 17
6, 126710, Note_on_c, 4, 64, 127
6, 126882, Note_off_c, 4, 64, 17
6, 126974, Note_on_c, 4, 64, 109
6, 127059, Note_off_c, 4, 64, 17
6, 127095, Note_on_c, 4, 64, 127
6, 127158, Note_off_c, 4, 64, 17
6, 127200, Note_on_c, 4, 64, 127
6, 127345, Note_off_c, 4, 64, 17
6, 127439, Note_on_c, 4, 64, 109
6, 127511, Note_off_c, 4, 64, 17
6, 127563, Note_on_c, 4, 64, 127
6, 127614, Note_off_c, 4, 64, 17
6, 127667, Note_on_c, 4, 64, 122
6, 127772, Note_off_c, 4, 64, 17
6, 127911, Note_on_c, 4, 64, 117
6, 128009, Note_off_c, 4, 64, 17
6, 128155, Note_on_c, 4, 64, 125
6, 128456, Note_off_c, 4, 64, 17
6, 130347, Note_on_c, 4, 64, 119
6, 130416, Note_off_c, 4, 64, 17
6, 130450, Note_on_c, 4, 64, 127
6, 130509, Note_off_c, 4, 64, 17
6, 130550, Note_on_c, 4, 64, 127
6, 130722, Note_off_c, 4, 64, 17
6, 130814, Note_on_c, 4, 64, 109
6, 130899, Note_off_c, 4, 64, 17
6, 130935, Note_on_c, 4, 64, 127
6, 130998, Note_off_c, 4, 64, 17
6, 131040, Note_on_c, 4, 64, 127
6, 131185, Note_off_c, 4, 64, 17
6, 131279, Note_on_c, 4, 64, 109
6, 131351, Note_off_c, 4, 64, 17
6, 131403, Note_on_c, 4, 64, 127
6, 131454, Note_off_c, 4, 64, 17
6, 131507, Note_on_c, 4, 64, 122
6, 131612, Note_off_c, 4, 64, 17
6, 131751, Note_on_c, 4, 64, 117
6, 131849, Note_off_c, 4, 64, 17
6, 131995, Note_on_c, 4, 64, 125
6, 132296, Note_off_c, 4, 64, 17
6, 134187, Note_on_c, 4, 64, 119
6, 134187, Note_on_c, 4, 68, 119
6, 134256, Note_off_c, 4, 68, 17
6, 134256, Note_off_c, 4, 64, 17
6, 134290, Note_on_c, 4, 64, 127
6, 134290, Note_on_c, 4, 68, 127
6, 134349, Note_off_c, 4, 68, 17
6, 134349, Note_off_c, 4, 64, 17
6, 134390, Note_on_c, 4, 64, 127
6, 134390, Note_on_c, 4, 68, 127
6, 134562, Note_off_c, 4, 64, 17
6, 134562, Note_off_c, 4, 68, 17
6, 134654, Note_on_c, 4, 64, 109
6, 134654, Note_on_c, 4, 68, 109
6, 134739, Note_off_c, 4, 68, 17
6, 134739, Note_off_c, 4, 64, 17
6, 134775, Note_on_c, 4, 64, 127
6, 134775, Note_on_c, 4, 68, 127
6, 134838, Note_off_c, 4, 68, 17
6, 134838, Note_off_c, 4, 64, 17
6, 134880, Note_on_c, 4, 64, 127
6, 134880, Note_on_c, 4, 68, 127
6, 135025, Note_off_c, 4, 64, 17
6, 135025, Note_off_c, 4, 68, 17
6, 135119, Note_on_c, 4, 64, 109
6, 135119, Note_on_c, 4, 68, 109
6, 135191, Note_off_c, 4, 64, 17
6, 135191, Note_off_c, 4, 68, 17
6, 135243, Note_on_c, 4, 64, 127
6, 135243, Note_on_c, 4, 68, 127
6, 135294, Note_off_c, 4, 68, 17
6, 135294, Note_off_c, 4, 64, 17
6, 135347, Note_on_c, 4, 64, 122
6, 135347, Note_on_c, 4, 68, 122
6, 135452, Note_off_c, 4, 64, 17
6, 135452, Note_off_c, 4, 68, 17
6, 135591, Note_on_c, 4, 64, 117
6, 135591, Note_on_c, 4, 68, 117
6, 135689, Note_off_c, 4, 68, 17
6, 135689, Note_off_c, 4, 64, 17
6, 135835, Note_on_c, 4, 64, 125
6, 135835, Note_on_c, 4, 68, 125
6, 136136, Note_off_c, 4, 68, 17
6, 136136, Note_off_c, 4, 64, 17
6, 138027, Note_on_c, 4, 64, 119
6, 138027, Note_on_c, 4, 68, 119
6, 138096, Note_off_c, 4, 68, 17
6, 138096, Note_off_c, 4, 64, 17
6, 138130, Note_on_c, 4, 64, 127
6, 138130, Note_on_c, 4, 68, 127
6, 138189, Note_off_c, 4, 68, 17
6, 138189, Note_off_c, 4, 64, 17
6, 138230, Note_on_c, 4, 64, 127
6, 138230, Note_on_c, 4, 68, 127
6, 138402, Note_off_c, 4, 64, 17
6, 138402, Note_off_c, 4, 68, 17
6, 138494, Note_on_c, 4, 64, 109
6, 138494, Note_on_c, 4, 68, 109
6, 138579, Note_off_c, 4, 68, 17
6, 138579, Note_off_c, 4, 64, 17
6, 138615, Note_on_c, 4, 64, 127
6, 138615, Note_on_c, 4, 68, 127
6, 138678, Note_off_c, 4, 68, 17
6, 138678, Note_off_c, 4, 64, 17
6, 138720, Note_on_c, 4, 64, 127
6, 138720, Note_on_c, 4, 68, 127
6, 138865, Note_off_c, 4, 64, 17
6, 138865, Note_off_c, 4, 68, 17
6, 138959, Note_on_c, 4, 64, 109
6, 138959, Note_on_c, 4, 68, 109
6, 139031, Note_off_c, 4, 64, 17
6, 139031, Note_off_c, 4, 68, 17
6, 139083, Note_on_c, 4, 64, 127
6, 139083, Note_on_c, 4, 68, 127
6, 139134, Note_off_c, 4, 68, 17
6, 139134, Note_off_c, 4, 64, 17
6, 139187, Note_on_c, 4, 64, 122
6, 139187, Note_on_c, 4, 68, 122
6, 139292, Note_off_c, 4, 64, 17
6, 139292, Note_off_c, 4, 68, 17
6, 139431, Note_on_c, 4, 64, 117
6, 139431, Note_on_c, 4, 68, 117
6, 139529, Note_off_c, 4, 68, 17
6, 139529, Note_off_c, 4, 64, 17
6, 139675, Note_on_c, 4, 64, 125
6, 139675, Note_on_c, 4, 68, 125
6, 139976, Note_off_c, 4, 68, 17
6, 139976, Note_off_c, 4, 64, 17
6, 155264, Note_on_c, 4, 76, 105
6, 155322, Note_off_c, 4, 76, 17
6, 155405, Note_on_c, 4, 76, 108
6, 155463, Note_off_c, 4, 76, 17
6, 155531, Note_on_c, 4, 76, 114
6, 155800, Note_off_c, 4, 76, 17
6, 155885, Note_on_c, 4, 76, 117
6, 156202, Note_off_c, 4, 76, 17
6, 156250, Note_on_c, 4, 78, 114
6, 156660, Note_off_c, 4, 78, 17
6, 156744, Note_on_c, 4, 80, 114
6, 157296, Note_off_c, 4, 80, 17
6, 157680, Note_on_c, 4, 71, 127
6, 157680, Note_on_c, 4, 76, 127
6, 157758, Note_off_c, 4, 76, 17
6, 157758, Note_off_c, 4, 71, 17
6, 157800, Note_on_c, 4, 71, 127
6, 157800, Note_on_c, 4, 76, 127
6, 157881, Note_off_c, 4, 76, 17
6, 157881, Note_off_c, 4, 71, 17
6, 157920, Note_on_c, 4, 71, 127
6, 157920, Note_on_c, 4, 76, 127
6, 158090, Note_off_c, 4, 76, 17
6, 158090, Note_off_c, 4, 71, 17
6, 158160, Note_on_c, 4, 64, 125
6, 158160, Note_on_c, 4, 68, 125
6, 158217, Note_off_c, 4, 68, 17
6, 158217, Note_off_c, 4, 64, 17
6, 158280, Note_on_c, 4, 64, 122
6, 158280, Note_on_c, 4, 68, 122
6, 158354, Note_off_c, 4, 64, 17
6, 158354, Note_off_c, 4, 68, 17
6, 158400, Note_on_c, 4, 64, 127
6, 158400, Note_on_c, 4, 68, 127
6, 158509, Note_off_c, 4, 64, 17
6, 158509, Note_off_c, 4, 68, 17
6, 158640, Note_on_c, 4, 64, 127
6, 158640, Note_on_c, 4, 68, 127
6, 158793, Note_off_c, 4, 64, 17
6, 158793, Note_off_c, 4, 68, 17
6, 158880, Note_on_c, 4, 66, 126
6, 158880, Note_on_c, 4, 69, 126
6, 159110, Note_off_c, 4, 69, 17
6, 159110, Note_off_c, 4, 66, 17
6, 159120, Note_on_c, 4, 68, 119
6, 159120, Note_on_c, 4, 71, 119
6, 159271, Note_off_c, 4, 68, 17
6, 159271, Note_off_c, 4, 71, 17
6, 159600, Note_on_c, 4, 71, 127
6, 159600, Note_on_c, 4, 76, 127
6, 159678, Note_off_c, 4, 71, 17
6, 159678, Note_off_c, 4, 76, 17
6, 159720, Note_on_c, 4, 71, 127
6, 159720, Note_on_c, 4, 76, 127
6, 159801, Note_off_c, 4, 76, 17
6, 159801, Note_off_c, 4, 71, 17
6, 159840, Note_on_c, 4, 71, 127
6, 159840, Note_on_c, 4, 76, 127
6, 160010, Note_off_c, 4, 76, 17
6, 160010, Note_off_c, 4, 71, 17
6, 160080, Note_on_c, 4, 64, 125
6, 160080, Note_on_c, 4, 68, 125
6, 160137, Note_off_c, 4, 68, 17
6, 160137, Note_off_c, 4, 64, 17
6, 160200, Note_on_c, 4, 64, 122
6, 160200, Note_on_c, 4, 68, 122
6, 160274, Note_off_c, 4, 68, 17
6, 160274, Note_off_c, 4, 64, 17
6, 160320, Note_on_c, 4, 64, 127
6, 160320, Note_on_c, 4, 68, 127
6, 160429, Note_off_c, 4, 64, 17
6, 160429, Note_off_c, 4, 68, 17
6, 160560, Note_on_c, 4, 66, 127
6, 160560, Note_on_c, 4, 69, 127
6, 160713, Note_off_c, 4, 69, 17
6, 160713, Note_off_c, 4, 66, 17
6, 160800, Note_on_c, 4, 68, 122
6, 160800, Note_on_c, 4, 71, 122
6, 161040, Note_on_c, 4, 66, 119
6, 161040, Note_on_c, 4, 69, 119
6, 161063, Note_off_c, 4, 71, 17
6, 161063, Note_off_c, 4, 68, 17
6, 161137, Note_off_c, 4, 66, 17
6, 161137, Note_off_c, 4, 69, 17
6, 161160, Note_on_c, 4, 64, 127
6, 161160, Note_on_c, 4, 68, 127
6, 161249, Note_off_c, 4, 64, 17
6, 161249, Note_off_c, 4, 68, 17
6, 161520, Note_on_c, 4, 71, 127
6, 161520, Note_on_c, 4, 76, 127
6, 161598, Note_off_c, 4, 71, 17
6, 161598, Note_off_c, 4, 76, 17
6, 161640, Note_on_c, 4, 71, 127
6, 161640, Note_on_c, 4, 76, 127
6, 161721, Note_off_c, 4, 76, 17
6, 161721, Note_off_c, 4, 71, 17
6, 161760, Note_on_c, 4, 71, 127
6, 161760, Note_on_c, 4, 76, 127
6, 161930, Note_off_c, 4, 71, 17
6, 161930, Note_off_c, 4, 76, 17
6, 162000, Note_on_c, 4, 64, 125
6, 162000, Note_on_c, 4, 68, 125
6, 162057, Note_off_c, 4, 68, 17
6, 162057, Note_off_c, 4, 64, 17
6, 162120, Note_on_c, 4, 64, 122
6, 162120, Note_on_c, 4, 68, 122
6, 162194, Note_off_c, 4, 64, 17
6, 162194, Note_off_c, 4, 68, 17
6, 162240, Note_on_c, 4, 64, 127
6, 162240, Note_on_c, 4, 68, 127
6, 162349, Note_off_c, 4, 64, 17
6, 162349, Note_off_c, 4, 68, 17
6, 162480, Note_on_c, 4, 64, 127
6, 162480, Note_on_c, 4, 68, 127
6, 162633, Note_off_c, 4, 68, 17
6, 162633, Note_off_c, 4, 64, 17
6, 162720, Note_on_c, 4, 66, 126
6, 162720, Note_on_c, 4, 69, 126
6, 162950, Note_off_c, 4, 69, 17
6, 162950, Note_off_c, 4, 66, 17
6, 162960, Note_on_c, 4, 68, 119
6, 162960, Note_on_c, 4, 71, 119
6, 163111, Note_off_c, 4, 68, 17
6, 163111, Note_off_c, 4, 71, 17
6, 163440, Note_on_c, 4, 71, 127
6, 163440, Note_on_c, 4, 76, 127
6, 163518, Note_off_c, 4, 76, 17
6, 163518, Note_off_c, 4, 71, 17
6, 163560, Note_on_c, 4, 71, 127
6, 163560, Note_on_c, 4, 76, 127
6, 163641, Note_off_c, 4, 76, 17
6, 163641, Note_off_c, 4, 71, 17
6, 163680, Note_on_c, 4, 71, 127
6, 163680, Note_on_c, 4, 76, 127
6, 163850, Note_off_c, 4, 76, 17
6, 163850, Note_off_c, 4, 71, 17
6, 163920, Note_on_c, 4, 64, 125
6, 163920, Note_on_c, 4, 68, 125
6, 163977, Note_off_c, 4, 68, 17
6, 163977, Note_off_c, 4, 64, 17
6, 164040, Note_on_c, 4, 64, 122
6, 164040, Note_on_c, 4, 68, 122
6, 164114, Note_off_c, 4, 68, 17
6, 164114, Note_off_c, 4, 64, 17
6, 164160, Note_on_c, 4, 64, 127
6, 164160, Note_on_c, 4, 68, 127
6, 164269, Note_off_c, 4, 64, 17
6, 164269, Note_off_c, 4, 68, 17
6, 164400, Note_on_c, 4, 66, 127
6, 164400, Note_on_c, 4, 69, 127
6, 164553, Note_off_c, 4, 66, 17
6, 164553, Note_off_c, 4, 69, 17
6, 164640, Note_on_c, 4, 68, 122
6, 164640, Note_on_c, 4, 71, 122
6, 164880, Note_on_c, 4, 66, 119
6, 164880, Note_on_c, 4, 69, 119
6, 164903, Note_off_c, 4, 71, 17
6, 164903, Note_off_c, 4, 68, 17
6, 164977, Note_off_c, 4, 69, 17
6, 164977, Note_off_c, 4, 66, 17
6, 165000, Note_on_c, 4, 64, 127
6, 165000, Note_on_c, 4, 68, 127
6, 165089, Note_off_c, 4, 64, 17
6, 165089, Note_off_c, 4, 68, 17
6, 165360, Note_on_c, 4, 71, 127
6, 165564, Note_off_c, 4, 71, 17
6, 165600, Note_on_c, 4, 68, 116
6, 165751, Note_off_c, 4, 68, 17
6, 165840, Note_on_c, 4, 73, 119
6, 166029, Note_off_c, 4, 73, 17
6, 166080, Note_on_c, 4, 71, 127
6, 166293, Note_off_c, 4, 71, 17
6, 166320, Note_on_c, 4, 66, 116
6, 166403, Note_off_c, 4, 66, 17
6, 166560, Note_on_c, 4, 66, 119
6, 166800, Note_on_c, 4, 64, 122
6, 166822, Note_off_c, 4, 66, 17
6, 167004, Note_off_c, 4, 64, 17
6, 167280, Note_on_c, 4, 71, 127
6, 167484, Note_off_c, 4, 71, 17
6, 167520, Note_on_c, 4, 68, 116
6, 167671, Note_off_c, 4, 68, 17
6, 167760, Note_on_c, 4, 73, 119
6, 167949, Note_off_c, 4, 73, 17
6, 168000, Note_on_c, 4, 71, 127
6, 168213, Note_off_c, 4, 71, 17
6, 168240, Note_on_c, 4, 66, 116
6, 168323, Note_off_c, 4, 66, 17
6, 168480, Note_on_c, 4, 68, 126
6, 168596, Note_off_c, 4, 68, 17
6, 168600, Note_on_c, 4, 66, 122
6, 168716, Note_off_c, 4, 66, 17
6, 168720, Note_on_c, 4, 64, 117
6, 168836, Note_off_c, 4, 64, 17
6, 168840, Note_on_c, 4, 66, 122
6, 168956, Note_off_c, 4, 66, 17
6, 168960, Note_on_c, 4, 68, 119
6, 169194, Note_off_c, 4, 68, 17
6, 169200, Note_on_c, 4, 64, 119
6, 169260, Note_off_c, 4, 64, 17
6, 169320, Note_on_c, 4, 64, 119
6, 169530, Note_off_c, 4, 64, 17
6, 169560, Note_on_c, 4, 61, 110
6, 169616, Note_off_c, 4, 61, 17
6, 169680, Note_on_c, 4, 61, 122
6, 170116, Note_off_c, 4, 61, 17
6, 170160, Note_on_c, 4, 59, 106
6, 170636, Note_off_c, 4, 59, 17
6, 170640, Note_on_c, 4, 64, 117
6, 170756, Note_off_c, 4, 64, 17
6, 170760, Note_on_c, 4, 66, 122
6, 170876, Note_off_c, 4, 66, 17
6, 170880, Note_on_c, 4, 68, 119
6, 171114, Note_off_c, 4, 68, 17
6, 171120, Note_on_c, 4, 64, 119
6, 171180, Note_off_c, 4, 64, 17
6, 171240, Note_on_c, 4, 64, 119
6, 171450, Note_off_c, 4, 64, 17
6, 171480, Note_on_c, 4, 61, 110
6, 171536, Note_off_c, 4, 61, 17
6, 171600, Note_on_c, 4, 61, 122
6, 172036, Note_off_c, 4, 61, 17
6, 172080, Note_on_c, 4, 59, 106
6, 172316, Note_off_c, 4, 59, 17
6, 172320, Note_on_c, 4, 66, 106
6, 172556, Note_off_c, 4, 66, 17
6, 172560, Note_on_c, 4, 64, 106
6, 172796, Note_off_c, 4, 64, 17
6, 190561, Control_c, 4, 123, 0
6, 190921, Control_c, 4, 120, 0
6, 190932, End_track
7, 0, Start_track
7, 0, MIDI_port, 0
7, 0, Title_t, "SynVox"
7, 260, Control_c, 5, 121, 0
7, 310, Program_c, 5, 54
7, 390, Control_c, 5, 7, 76
7, 422, Control_c, 5, 10, 101
7, 454, Control_c, 5, 11, 127
7, 486, Control_c, 5, 91, 89
7, 518, Control_c, 5, 93, 44
7, 550, Control_c, 5, 1, 0
7, 582, Control_c, 5, 64, 0
7, 614, Control_c, 5, 71, 64
7, 646, Control_c, 5, 72, 64
7, 678, Control_c, 5, 73, 64
7, 710, Control_c, 5, 74, 64
7, 742, Control_c, 5, 94, 0
7, 774, Pitch_bend_c, 5, 8192
7, 142080, Note_on_c, 5, 64, 104
7, 142080, Note_on_c, 5, 68, 117
7, 142080, Note_on_c, 5, 71, 109
7, 144956, Note_off_c, 5, 64, 17
7, 144956, Note_off_c, 5, 71, 17
7, 144956, Note_off_c, 5, 68, 17
7, 144960, Note_on_c, 5, 66, 104
7, 144960, Note_on_c, 5, 71, 75
7, 145436, Note_off_c, 5, 66, 17
7, 145440, Note_on_c, 5, 64, 93
7, 145440, Note_on_c, 5, 68, 104
7, 145916, Note_off_c, 5, 71, 17
7, 145920, Note_on_c, 5, 61, 114
7, 145920, Note_on_c, 5, 64, 101
7, 145920, Note_on_c, 5, 68, 104
7, 145935, Note_off_c, 5, 64, 17
7, 145935, Note_off_c, 5, 68, 17
7, 148796, Note_off_c, 5, 64, 17
7, 148796, Note_off_c, 5, 68, 17
7, 148796, Note_off_c, 5, 61, 17
7, 148800, Note_on_c, 5, 63, 101
7, 148800, Note_on_c, 5, 66, 111
7, 149276, Note_off_c, 5, 63, 17
7, 149276, Note_off_c, 5, 66, 17
7, 149280, Note_on_c, 5, 61, 106
7, 149280, Note_on_c, 5, 64, 111
7, 149280, Note_on_c, 5, 68, 111
7, 149756, Note_off_c, 5, 68, 17
7, 149756, Note_off_c, 5, 61, 17
7, 149756, Note_off_c, 5, 64, 17
7, 149760, Note_on_c, 5, 59, 101
7, 149760, Note_on_c, 5, 64, 101
7, 149760, Note_on_c, 5, 68, 97
7, 151676, Note_off_c, 5, 68, 17
7, 151676, Note_off_c, 5, 59, 17
7, 151676, Note_off_c, 5, 64, 17
7, 151680, Note_on_c, 5, 59, 101
7, 151680, Note_on_c, 5, 64, 109
7, 151680, Note_on_c, 5, 66, 104
7, 153596, Note_off_c, 5, 66, 17
7, 153596, Note_off_c, 5, 59, 17
7, 153596, Note_off_c, 5, 64, 17
7, 153600, Note_on_c, 5, 61, 97
7, 153600, Note_on_c, 5, 64, 106
7, 153600, Note_on_c, 5, 68, 106
7, 157436, Note_off_c, 5, 68, 17
7, 157436, Note_off_c, 5, 61, 17
7, 157436, Note_off_c, 5, 64, 17
7, 188160, Note_on_c, 5, 59, 104
7, 188160, Note_on_c, 5, 64, 97
7, 188160, Note_on_c, 5, 68, 101
7, 189101, Note_off_c, 5, 64, 17
7, 189102, Note_off_c, 5, 68, 17
7, 189110, Note_off_c, 5, 59, 17
7, 190564, Control_c, 5, 123, 0
7, 190924, Control_c, 5, 120, 0
7, 190932, End_track
8, 0, Start_track
8, 0, MIDI_port, 0
8, 0, Title_t, "DistortionGt"
8, 262, Control_c, 6, 121, 0
8, 312, Program_c, 6, 30
8, 392, Control_c, 6, 7, 102
8, 424, Control_c, 6, 10, 47
8, 456, Control_c, 6, 11, 127
8, 488, Control_c, 6, 91, 90
8, 520, Control_c, 6, 93, 36
8, 552, Control_c, 6, 1, 0
8, 584, Control_c, 6, 64, 0
8, 616, Control_c, 6, 71, 64
8, 648, Control_c, 6, 72, 64
8, 680, Control_c, 6, 73, 64
8, 712, Control_c, 6, 74, 64
8, 744, Control_c, 6, 94, 0
8, 776, Pitch_bend_c, 6, 8192
8, 930, Control_c, 6, 99, 1
8, 930, Control_c, 6, 98, 33
8, 930, Control_c, 6, 6, 64
8, 930, Control_c, 6, 38, 0
8, 46080, Note_on_c, 6, 40, 127
8, 46080, Note_on_c, 6, 47, 127
8, 46309, Note_off_c, 6, 47, 17
8, 46326, Note_off_c, 6, 40, 17
8, 46440, Note_on_c, 6, 40, 127
8, 46440, Note_on_c, 6, 47, 125
8, 46625, Note_off_c, 6, 47, 17
8, 46639, Note_off_c, 6, 40, 17
8, 46800, Note_on_c, 6, 40, 127
8, 46800, Note_on_c, 6, 47, 127
8, 47216, Note_off_c, 6, 47, 17
8, 47221, Note_off_c, 6, 40, 17
8, 48000, Note_on_c, 6, 40, 127
8, 48000, Note_on_c, 6, 47, 127
8, 48289, Note_off_c, 6, 47, 17
8, 48299, Note_off_c, 6, 40, 17
8, 48360, Note_on_c, 6, 40, 127
8, 48360, Note_on_c, 6, 47, 122
8, 48590, Note_off_c, 6, 47, 17
8, 48603, Note_off_c, 6, 40, 17
8, 48720, Note_on_c, 6, 40, 127
8, 48720, Note_on_c, 6, 47, 127
8, 49106, Note_off_c, 6, 47, 17
8, 49125, Note_off_c, 6, 40, 17
8, 49440, Note_on_c, 6, 40, 127
8, 49440, Note_on_c, 6, 47, 127
8, 49531, Note_off_c, 6, 47, 17
8, 49589, Note_off_c, 6, 40, 17
8, 49920, Note_on_c, 6, 45, 119
8, 49920, Note_on_c, 6, 52, 127
8, 50194, Note_off_c, 6, 52, 17
8, 50198, Note_off_c, 6, 45, 17
8, 50280, Note_on_c, 6, 45, 119
8, 50280, Note_on_c, 6, 52, 127
8, 50456, Note_off_c, 6, 52, 17
8, 50473, Note_off_c, 6, 45, 17
8, 50640, Note_on_c, 6, 45, 122
8, 50640, Note_on_c, 6, 52, 127
8, 51123, Note_off_c, 6, 45, 17
8, 51138, Note_off_c, 6, 52, 17
8, 51840, Note_on_c, 6, 45, 116
8, 51840, Note_on_c, 6, 52, 125
8, 52085, Note_off_c, 6, 52, 17
8, 52092, Note_off_c, 6, 45, 17
8, 52200, Note_on_c, 6, 45, 122
8, 52200, Note_on_c, 6, 52, 125
8, 52372, Note_off_c, 6, 45, 17
8, 52385, Note_off_c, 6, 52, 17
8, 52560, Note_on_c, 6, 45, 122
8, 52560, Note_on_c, 6, 52, 127
8, 53027, Note_off_c, 6, 52, 17
8, 53045, Note_off_c, 6, 45, 17
8, 53760, Note_on_c, 6, 49, 116
8, 53760, Note_on_c, 6, 56, 125
8, 54005, Note_off_c, 6, 56, 17
8, 54012, Note_off_c, 6, 49, 17
8, 54120, Note_on_c, 6, 49, 122
8, 54120, Note_on_c, 6, 56, 125
8, 54292, Note_off_c, 6, 49, 17
8, 54305, Note_off_c, 6, 56, 17
8, 54480, Note_on_c, 6, 49, 122
8, 54480, Note_on_c, 6, 56, 127
8, 54947, Note_off_c, 6, 56, 17
8, 54965, Note_off_c, 6, 49, 17
8, 55680, Note_on_c, 6, 47, 116
8, 55680, Note_on_c, 6, 54, 125
8, 55925, Note_off_c, 6, 54, 17
8, 55932, Note_off_c, 6, 47, 17
8, 56040, Note_on_c, 6, 47, 122
8, 56040, Note_on_c, 6, 54, 125
8, 56212, Note_off_c, 6, 47, 17
8, 56225, Note_off_c, 6, 54, 17
8, 56400, Note_on_c, 6, 47, 122
8, 56400, Note_on_c, 6, 54, 127
8, 56867, Note_off_c, 6, 54, 17
8, 56885, Note_off_c, 6, 47, 17
8, 57600, Note_on_c, 6, 45, 116
8, 57600, Note_on_c, 6, 52, 125
8, 57845, Note_off_c, 6, 52, 17
8, 57852, Note_off_c, 6, 45, 17
8, 57960, Note_on_c, 6, 45, 122
8, 57960, Note_on_c, 6, 52, 125
8, 58132, Note_off_c, 6, 45, 17
8, 58145, Note_off_c, 6, 52, 17
8, 58320, Note_on_c, 6, 45, 122
8, 58320, Note_on_c, 6, 52, 127
8, 58787, Note_off_c, 6, 52, 17
8, 58805, Note_off_c, 6, 45, 17
8, 59520, Note_on_c, 6, 45, 116
8, 59520, Note_on_c, 6, 52, 125
8, 59765, Note_off_c, 6, 52, 17
8, 59772, Note_off_c, 6, 45, 17
8, 59880, Note_on_c, 6, 45, 122
8, 59880, Note_on_c, 6, 52, 125
8, 60052, Note_off_c, 6, 45, 17
8, 60065, Note_off_c, 6, 52, 17
8, 60240, Note_on_c, 6, 45, 122
8, 60240, Note_on_c, 6, 52, 127
8, 60707, Note_off_c, 6, 52, 17
8, 60725, Note_off_c, 6, 45, 17
8, 61440, Note_on_c, 6, 40, 127
8, 61440, Note_on_c, 6, 47, 127
8, 61669, Note_off_c, 6, 47, 17
8, 61686, Note_off_c, 6, 40, 17
8, 61800, Note_on_c, 6, 40, 127
8, 61800, Note_on_c, 6, 47, 125
8, 61985, Note_off_c, 6, 47, 17
8, 61999, Note_off_c, 6, 40, 17
8, 62160, Note_on_c, 6, 40, 127
8, 62160, Note_on_c, 6, 47, 127
8, 62576, Note_off_c, 6, 47, 17
8, 62581, Note_off_c, 6, 40, 17
8, 63360, Note_on_c, 6, 40, 127
8, 63360, Note_on_c, 6, 47, 127
8, 63649, Note_off_c, 6, 47, 17
8, 63659, Note_off_c, 6, 40, 17
8, 63720, Note_on_c, 6, 40, 127
8, 63720, Note_on_c, 6, 47, 122
8, 63950, Note_off_c, 6, 47, 17
8, 63963, Note_off_c, 6, 40, 17
8, 64080, Note_on_c, 6, 40, 127
8, 64080, Note_on_c, 6, 47, 127
8, 64466, Note_off_c, 6, 47, 17
8, 64485, Note_off_c, 6, 40, 17
8, 64800, Note_on_c, 6, 40, 127
8, 64800, Note_on_c, 6, 47, 127
8, 64891, Note_off_c, 6, 47, 17
8, 64949, Note_off_c, 6, 40, 17
8, 65280, Note_on_c, 6, 45, 119
8, 65280, Note_on_c, 6, 52, 127
8, 65554, Note_off_c, 6, 52, 17
8, 65558, Note_off_c, 6, 45, 17
8, 65640, Note_on_c, 6, 45, 119
8, 65640, Note_on_c, 6, 52, 127
8, 65816, Note_off_c, 6, 52, 17
8, 65833, Note_off_c, 6, 45, 17
8, 66000, Note_on_c, 6, 45, 122
8, 66000, Note_on_c, 6, 52, 127
8, 66483, Note_off_c, 6, 45, 17
8, 66498, Note_off_c, 6, 52, 17
8, 67200, Note_on_c, 6, 45, 116
8, 67200, Note_on_c, 6, 52, 125
8, 67445, Note_off_c, 6, 52, 17
8, 67452, Note_off_c, 6, 45, 17
8, 67560, Note_on_c, 6, 45, 122
8, 67560, Note_on_c, 6, 52, 125
8, 67732, Note_off_c, 6, 45, 17
8, 67745, Note_off_c, 6, 52, 17
8, 67920, Note_on_c, 6, 45, 122
8, 67920, Note_on_c, 6, 52, 127
8, 68387, Note_off_c, 6, 52, 17
8, 68405, Note_off_c, 6, 45, 17
8, 69120, Note_on_c, 6, 49, 116
8, 69120, Note_on_c, 6, 56, 125
8, 69365, Note_off_c, 6, 56, 17
8, 69372, Note_off_c, 6, 49, 17
8, 69480, Note_on_c, 6, 49, 122
8, 69480, Note_on_c, 6, 56, 125
8, 69652, Note_off_c, 6, 49, 17
8, 69665, Note_off_c, 6, 56, 17
8, 69840, Note_on_c, 6, 49, 122
8, 69840, Note_on_c, 6, 56, 127
8, 70307, Note_off_c, 6, 56, 17
8, 70325, Note_off_c, 6, 49, 17
8, 71040, Note_on_c, 6, 47, 116
8, 71040, Note_on_c, 6, 54, 125
8, 71285, Note_off_c, 6, 54, 17
8, 71292, Note_off_c, 6, 47, 17
8, 71400, Note_on_c, 6, 47, 122
8, 71400, Note_on_c, 6, 54, 125
8, 71572, Note_off_c, 6, 47, 17
8, 71585, Note_off_c, 6, 54, 17
8, 71760, Note_on_c, 6, 47, 122
8, 71760, Note_on_c, 6, 54, 127
8, 72227, Note_off_c, 6, 54, 17
8, 72245, Note_off_c, 6, 47, 17
8, 72960, Note_on_c, 6, 45, 116
8, 72960, Note_on_c, 6, 52, 125
8, 73205, Note_off_c, 6, 52, 17
8, 73212, Note_off_c, 6, 45, 17
8, 73320, Note_on_c, 6, 45, 122
8, 73320, Note_on_c, 6, 52, 125
8, 73492, Note_off_c, 6, 45, 17
8, 73505, Note_off_c, 6, 52, 17
8, 73680, Note_on_c, 6, 45, 122
8, 73680, Note_on_c, 6, 52, 127
8, 74147, Note_off_c, 6, 52, 17
8, 74165, Note_off_c, 6, 45, 17
8, 74880, Note_on_c, 6, 45, 116
8, 74880, Note_on_c, 6, 52, 125
8, 75125, Note_off_c, 6, 52, 17
8, 75132, Note_off_c, 6, 45, 17
8, 75240, Note_on_c, 6, 45, 122
8, 75240, Note_on_c, 6, 52, 125
8, 75412, Note_off_c, 6, 45, 17
8, 75425, Note_off_c, 6, 52, 17
8, 75600, Note_on_c, 6, 45, 122
8, 75600, Note_on_c, 6, 52, 127
8, 76067, Note_off_c, 6, 52, 17
8, 76085, Note_off_c, 6, 45, 17
8, 96000, Note_on_c, 6, 40, 127
8, 96000, Note_on_c, 6, 47, 127
8, 96229, Note_off_c, 6, 47, 17
8, 96246, Note_off_c, 6, 40, 17
8, 96360, Note_on_c, 6, 40, 127
8, 96360, Note_on_c, 6, 47, 125
8, 96545, Note_off_c, 6, 47, 17
8, 96559, Note_off_c, 6, 40, 17
8, 96720, Note_on_c, 6, 40, 127
8, 96720, Note_on_c, 6, 47, 127
8, 97136, Note_off_c, 6, 47, 17
8, 97141, Note_off_c, 6, 40, 17
8, 97920, Note_on_c, 6, 40, 127
8, 97920, Note_on_c, 6, 47, 127
8, 98209, Note_off_c, 6, 47, 17
8, 98219, Note_off_c, 6, 40, 17
8, 98280, Note_on_c, 6, 40, 127
8, 98280, Note_on_c, 6, 47, 122
8, 98510, Note_off_c, 6, 47, 17
8, 98523, Note_off_c, 6, 40, 17
8, 98640, Note_on_c, 6, 40, 127
8, 98640, Note_on_c, 6, 47, 127
8, 99026, Note_off_c, 6, 47, 17
8, 99045, Note_off_c, 6, 40, 17
8, 99360, Note_on_c, 6, 40, 127
8, 99360, Note_on_c, 6, 47, 127
8, 99451, Note_off_c, 6, 47, 17
8, 99509, Note_off_c, 6, 40, 17
8, 99840, Note_on_c, 6, 45, 119
8, 99840, Note_on_c, 6, 52, 127
8, 100114, Note_off_c, 6, 52, 17
8, 100118, Note_off_c, 6, 45, 17
8, 100200, Note_on_c, 6, 45, 119
8, 100200, Note_on_c, 6, 52, 127
8, 100376, Note_off_c, 6, 52, 17
8, 100393, Note_off_c, 6, 45, 17
8, 100560, Note_on_c, 6, 45, 122
8, 100560, Note_on_c, 6, 52, 127
8, 101043, Note_off_c, 6, 45, 17
8, 101058, Note_off_c, 6, 52, 17
8, 101760, Note_on_c, 6, 45, 116
8, 101760, Note_on_c, 6, 52, 125
8, 102005, Note_off_c, 6, 52, 17
8, 102012, Note_off_c, 6, 45, 17
8, 102120, Note_on_c, 6, 45, 122
8, 102120, Note_on_c, 6, 52, 125
8, 102292, Note_off_c, 6, 45, 17
8, 102305, Note_off_c, 6, 52, 17
8, 102480, Note_on_c, 6, 45, 122
8, 102480, Note_on_c, 6, 52, 127
8, 102947, Note_off_c, 6, 52, 17
8, 102965, Note_off_c, 6, 45, 17
8, 103680, Note_on_c, 6, 49, 116
8, 103680, Note_on_c, 6, 56, 125
8, 103925, Note_off_c, 6, 56, 17
8, 103932, Note_off_c, 6, 49, 17
8, 104040, Note_on_c, 6, 49, 122
8, 104040, Note_on_c, 6, 56, 125
8, 104212, Note_off_c, 6, 49, 17
8, 104225, Note_off_c, 6, 56, 17
8, 104400, Note_on_c, 6, 49, 122
8, 104400, Note_on_c, 6, 56, 127
8, 104867, Note_off_c, 6, 56, 17
8, 104885, Note_off_c, 6, 49, 17
8, 105600, Note_on_c, 6, 47, 116
8, 105600, Note_on_c, 6, 54, 125
8, 105845, Note_off_c, 6, 54, 17
8, 105852, Note_off_c, 6, 47, 17
8, 105960, Note_on_c, 6, 47, 122
8, 105960, Note_on_c, 6, 54, 125
8, 106132, Note_off_c, 6, 47, 17
8, 106145, Note_off_c, 6, 54, 17
8, 106320, Note_on_c, 6, 47, 122
8, 106320, Note_on_c, 6, 54, 127
8, 106787, Note_off_c, 6, 54, 17
8, 106805, Note_off_c, 6, 47, 17
8, 107520, Note_on_c, 6, 45, 116
8, 107520, Note_on_c, 6, 52, 125
8, 107765, Note_off_c, 6, 52, 17
8, 107772, Note_off_c, 6, 45, 17
8, 107880, Note_on_c, 6, 45, 122
8, 107880, Note_on_c, 6, 52, 125
8, 108052, Note_off_c, 6, 45, 17
8, 108065, Note_off_c, 6, 52, 17
8, 108240, Note_on_c, 6, 45, 122
8, 108240, Note_on_c, 6, 52, 127
8, 108707, Note_off_c, 6, 52, 17
8, 108725, Note_off_c, 6, 45, 17
8, 109440, Note_on_c, 6, 45, 116
8, 109440, Note_on_c, 6, 52, 125
8, 109685, Note_off_c, 6, 52, 17
8, 109692, Note_off_c, 6, 45, 17
8, 109800, Note_on_c, 6, 45, 122
8, 109800, Note_on_c, 6, 52, 125
8, 109972, Note_off_c, 6, 45, 17
8, 109985, Note_off_c, 6, 52, 17
8, 110160, Note_on_c, 6, 45, 122
8, 110160, Note_on_c, 6, 52, 127
8, 110627, Note_off_c, 6, 52, 17
8, 110645, Note_off_c, 6, 45, 17
8, 111360, Note_on_c, 6, 40, 127
8, 111360, Note_on_c, 6, 47, 127
8, 111589, Note_off_c, 6, 47, 17
8, 111606, Note_off_c, 6, 40, 17
8, 111720, Note_on_c, 6, 40, 127
8, 111720, Note_on_c, 6, 47, 125
8, 111905, Note_off_c, 6, 47, 17
8, 111919, Note_off_c, 6, 40, 17
8, 112080, Note_on_c, 6, 40, 127
8, 112080, Note_on_c, 6, 47, 127
8, 112496, Note_off_c, 6, 47, 17
8, 112501, Note_off_c, 6, 40, 17
8, 113280, Note_on_c, 6, 40, 127
8, 113280, Note_on_c, 6, 47, 127
8, 113569, Note_off_c, 6, 47, 17
8, 113579, Note_off_c, 6, 40, 17
8, 113640, Note_on_c, 6, 40, 127
8, 113640, Note_on_c, 6, 47, 122
8, 113870, Note_off_c, 6, 47, 17
8, 113883, Note_off_c, 6, 40, 17
8, 114000, Note_on_c, 6, 40, 127
8, 114000, Note_on_c, 6, 47, 127
8, 114386, Note_off_c, 6, 47, 17
8, 114405, Note_off_c, 6, 40, 17
8, 114720, Note_on_c, 6, 40, 127
8, 114720, Note_on_c, 6, 47, 127
8, 114811, Note_off_c, 6, 47, 17
8, 114869, Note_off_c, 6, 40, 17
8, 115200, Note_on_c, 6, 45, 119
8, 115200, Note_on_c, 6, 52, 127
8, 115474, Note_off_c, 6, 52, 17
8, 115478, Note_off_c, 6, 45, 17
8, 115560, Note_on_c, 6, 45, 119
8, 115560, Note_on_c, 6, 52, 127
8, 115736, Note_off_c, 6, 52, 17
8, 115753, Note_off_c, 6, 45, 17
8, 115920, Note_on_c, 6, 45, 122
8, 115920, Note_on_c, 6, 52, 127
8, 116403, Note_off_c, 6, 45, 17
8, 116418, Note_off_c, 6, 52, 17
8, 117120, Note_on_c, 6, 45, 116
8, 117120, Note_on_c, 6, 52, 125
8, 117365, Note_off_c, 6, 52, 17
8, 117372, Note_off_c, 6, 45, 17
8, 117480, Note_on_c, 6, 45, 122
8, 117480, Note_on_c, 6, 52, 125
8, 117652, Note_off_c, 6, 45, 17
8, 117665, Note_off_c, 6, 52, 17
8, 117840, Note_on_c, 6, 45, 122
8, 117840, Note_on_c, 6, 52, 127
8, 118307, Note_off_c, 6, 52, 17
8, 118325, Note_off_c, 6, 45, 17
8, 119040, Note_on_c, 6, 49, 116
8, 119040, Note_on_c, 6, 56, 125
8, 119285, Note_off_c, 6, 56, 17
8, 119292, Note_off_c, 6, 49, 17
8, 119400, Note_on_c, 6, 49, 122
8, 119400, Note_on_c, 6, 56, 125
8, 119572, Note_off_c, 6, 49, 17
8, 119585, Note_off_c, 6, 56, 17
8, 119760, Note_on_c, 6, 49, 122
8, 119760, Note_on_c, 6, 56, 127
8, 120227, Note_off_c, 6, 56, 17
8, 120245, Note_off_c, 6, 49, 17
8, 120960, Note_on_c, 6, 47, 116
8, 120960, Note_on_c, 6, 54, 125
8, 121205, Note_off_c, 6, 54, 17
8, 121212, Note_off_c, 6, 47, 17
8, 121320, Note_on_c, 6, 47, 122
8, 121320, Note_on_c, 6, 54, 125
8, 121492, Note_off_c, 6, 47, 17
8, 121505, Note_off_c, 6, 54, 17
8, 121680, Note_on_c, 6, 47, 122
8, 121680, Note_on_c, 6, 54, 127
8, 122147, Note_off_c, 6, 54, 17
8, 122165, Note_off_c, 6, 47, 17
8, 122880, Note_on_c, 6, 45, 116
8, 122880, Note_on_c, 6, 52, 125
8, 123125, Note_off_c, 6, 52, 17
8, 123132, Note_off_c, 6, 45, 17
8, 123240, Note_on_c, 6, 45, 122
8, 123240, Note_on_c, 6, 52, 125
8, 123412, Note_off_c, 6, 45, 17
8, 123425, Note_off_c, 6, 52, 17
8, 123600, Note_on_c, 6, 45, 122
8, 123600, Note_on_c, 6, 52, 127
8, 124067, Note_off_c, 6, 52, 17
8, 124085, Note_off_c, 6, 45, 17
8, 124800, Note_on_c, 6, 45, 116
8, 124800, Note_on_c, 6, 52, 125
8, 125045, Note_off_c, 6, 52, 17
8, 125052, Note_off_c, 6, 45, 17
8, 125160, Note_on_c, 6, 45, 122
8, 125160, Note_on_c, 6, 52, 125
8, 125332, Note_off_c, 6, 45, 17
8, 125345, Note_off_c, 6, 52, 17
8, 125520, Note_on_c, 6, 45, 122
8, 125520, Note_on_c, 6, 52, 127
8, 125987, Note_off_c, 6, 52, 17
8, 126005, Note_off_c, 6, 45, 17
8, 157440, Note_on_c, 6, 40, 127
8, 157440, Note_on_c, 6, 47, 127
8, 157669, Note_off_c, 6, 47, 17
8, 157686, Note_off_c, 6, 40, 17
8, 157800, Note_on_c, 6, 40, 127
8, 157800, Note_on_c, 6, 47, 125
8, 157985, Note_off_c, 6, 47, 17
8, 157999, Note_off_c, 6, 40, 17
8, 158160, Note_on_c, 6, 40, 127
8, 158160, Note_on_c, 6, 47, 127
8, 158576, Note_off_c, 6, 47, 17
8, 158581, Note_off_c, 6, 40, 17
8, 159360, Note_on_c, 6, 40, 127
8, 159360, Note_on_c, 6, 47, 127
8, 159649, Note_off_c, 6, 47, 17
8, 159659, Note_off_c, 6, 40, 17
8, 159720, Note_on_c, 6, 40, 127
8, 159720, Note_on_c, 6, 47, 122
8, 159950, Note_off_c, 6, 47, 17
8, 159963, Note_off_c, 6, 40, 17
8, 160080, Note_on_c, 6, 40, 127
8, 160080, Note_on_c, 6, 47, 127
8, 160466, Note_off_c, 6, 47, 17
8, 160485, Note_off_c, 6, 40, 17
8, 160800, Note_on_c, 6, 40, 127
8, 160800, Note_on_c, 6, 47, 127
8, 160891, Note_off_c, 6, 47, 17
8, 160949, Note_off_c, 6, 40, 17
8, 161280, Note_on_c, 6, 45, 119
8, 161280, Note_on_c, 6, 52, 127
8, 161554, Note_off_c, 6, 52, 17
8, 161558, Note_off_c, 6, 45, 17
8, 161640, Note_on_c, 6, 45, 119
8, 161640, Note_on_c, 6, 52, 127
8, 161816, Note_off_c, 6, 52, 17
8, 161833, Note_off_c, 6, 45, 17
8, 162000, Note_on_c, 6, 45, 122
8, 162000, Note_on_c, 6, 52, 127
8, 162483, Note_off_c, 6, 45, 17
8, 162498, Note_off_c, 6, 52, 17
8, 163200, Note_on_c, 6, 45, 116
8, 163200, Note_on_c, 6, 52, 125
8, 163445, Note_off_c, 6, 52, 17
8, 163452, Note_off_c, 6, 45, 17
8, 163560, Note_on_c, 6, 45, 122
8, 163560, Note_on_c, 6, 52, 125
8, 163732, Note_off_c, 6, 45, 17
8, 163745, Note_off_c, 6, 52, 17
8, 163920, Note_on_c, 6, 45, 122
8, 163920, Note_on_c, 6, 52, 127
8, 164387, Note_off_c, 6, 52, 17
8, 164405, Note_off_c, 6, 45, 17
8, 165120, Note_on_c, 6, 49, 116
8, 165120, Note_on_c, 6, 56, 125
8, 165365, Note_off_c, 6, 56, 17
8, 165372, Note_off_c, 6, 49, 17
8, 165480, Note_on_c, 6, 49, 122
8, 165480, Note_on_c, 6, 56, 125
8, 165652, Note_off_c, 6, 49, 17
8, 165665, Note_off_c, 6, 56, 17
8, 165840, Note_on_c, 6, 49, 122
8, 165840, Note_on_c, 6, 56, 127
8, 166307, Note_off_c, 6, 56, 17
8, 166325, Note_off_c, 6, 49, 17
8, 167040, Note_on_c, 6, 47, 116
8, 167040, Note_on_c, 6, 54, 125
8, 167285, Note_off_c, 6, 54, 17
8, 167292, Note_off_c, 6, 47, 17
8, 167400, Note_on_c, 6, 47, 122
8, 167400, Note_on_c, 6, 54, 125
8, 167572, Note_off_c, 6, 47, 17
8, 167585, Note_off_c, 6, 54, 17
8, 167760, Note_on_c, 6, 47, 122
8, 167760, Note_on_c, 6, 54, 127
8, 168227, Note_off_c, 6, 54, 17
8, 168245, Note_off_c, 6, 47, 17
8, 168960, Note_on_c, 6, 45, 116
8, 168960, Note_on_c, 6, 52, 125
8, 169205, Note_off_c, 6, 52, 17
8, 169212, Note_off_c, 6, 45, 17
8, 169320, Note_on_c, 6, 45, 122
8, 169320, Note_on_c, 6, 52, 125
8, 169492, Note_off_c, 6, 45, 17
8, 169505, Note_off_c, 6, 52, 17
8, 169680, Note_on_c, 6, 45, 122
8, 169680, Note_on_c, 6, 52, 127
8, 170147, Note_off_c, 6, 52, 17
8, 170165, Note_off_c, 6, 45, 17
8, 170880, Note_on_c, 6, 45, 116
8, 170880, Note_on_c, 6, 52, 125
8, 171125, Note_off_c, 6, 52, 17
8, 171132, Note_off_c, 6, 45, 17
8, 171240, Note_on_c, 6, 45, 122
8, 171240, Note_on_c, 6, 52, 125
8, 171412, Note_off_c, 6, 45, 17
8, 171425, Note_off_c, 6, 52, 17
8, 171600, Note_on_c, 6, 45, 122
8, 171600, Note_on_c, 6, 52, 127
8, 172067, Note_off_c, 6, 52, 17
8, 172085, Note_off_c, 6, 45, 17
8, 172800, Note_on_c, 6, 40, 127
8, 172800, Note_on_c, 6, 47, 127
8, 173029, Note_off_c, 6, 47, 17
8, 173046, Note_off_c, 6, 40, 17
8, 173160, Note_on_c, 6, 40, 127
8, 173160, Note_on_c, 6, 47, 125
8, 173345, Note_off_c, 6, 47, 17
8, 173359, Note_off_c, 6, 40, 17
8, 173520, Note_on_c, 6, 40, 127
8, 173520, Note_on_c, 6, 47, 127
8, 173936, Note_off_c, 6, 47, 17
8, 173941, Note_off_c, 6, 40, 17
8, 174720, Note_on_c, 6, 40, 127
8, 174720, Note_on_c, 6, 47, 127
8, 175009, Note_off_c, 6, 47, 17
8, 175019, Note_off_c, 6, 40, 17
8, 175080, Note_on_c, 6, 40, 127
8, 175080, Note_on_c, 6, 47, 122
8, 175310, Note_off_c, 6, 47, 17
8, 175323, Note_off_c, 6, 40, 17
8, 175440, Note_on_c, 6, 40, 127
8, 175440, Note_on_c, 6, 47, 127
8, 175826, Note_off_c, 6, 47, 17
8, 175845, Note_off_c, 6, 40, 17
8, 176160, Note_on_c, 6, 40, 127
8, 176160, Note_on_c, 6, 47, 127
8, 176251, Note_off_c, 6, 47, 17
8, 176309, Note_off_c, 6, 40, 17
8, 176640, Note_on_c, 6, 45, 119
8, 176640, Note_on_c, 6, 52, 127
8, 176914, Note_off_c, 6, 52, 17
8, 176918, Note_off_c, 6, 45, 17
8, 177000, Note_on_c, 6, 45, 119
8, 177000, Note_on_c, 6, 52, 127
8, 177176, Note_off_c, 6, 52, 17
8, 177193, Note_off_c, 6, 45, 17
8, 177360, Note_on_c, 6, 45, 122
8, 177360, Note_on_c, 6, 52, 127
8, 177843, Note_off_c, 6, 45, 17
8, 177858, Note_off_c, 6, 52, 17
8, 178560, Note_on_c, 6, 45, 116
8, 178560, Note_on_c, 6, 52, 125
8, 178805, Note_off_c, 6, 52, 17
8, 178812, Note_off_c, 6, 45, 17
8, 178920, Note_on_c, 6, 45, 122
8, 178920, Note_on_c, 6, 52, 125
8, 179092, Note_off_c, 6, 45, 17
8, 179105, Note_off_c, 6, 52, 17
8, 179280, Note_on_c, 6, 45, 122
8, 179280, Note_on_c, 6, 52, 127
8, 179747, Note_off_c, 6, 52, 17
8, 179765, Note_off_c, 6, 45, 17
8, 180480, Note_on_c, 6, 49, 116
8, 180480, Note_on_c, 6, 56, 125
8, 180725, Note_off_c, 6, 56, 17
8, 180732, Note_off_c, 6, 49, 17
8, 180840, Note_on_c, 6, 49, 122
8, 180840, Note_on_c, 6, 56, 125
8, 181012, Note_off_c, 6, 49, 17
8, 181025, Note_off_c, 6, 56, 17
8, 181200, Note_on_c, 6, 49, 122
8, 181200, Note_on_c, 6, 56, 127
8, 181667, Note_off_c, 6, 56, 17
8, 181685, Note_off_c, 6, 49, 17
8, 182400, Note_on_c, 6, 47, 116
8, 182400, Note_on_c, 6, 54, 125
8, 182645, Note_off_c, 6, 54, 17
8, 182652, Note_off_c, 6, 47, 17
8, 182760, Note_on_c, 6, 47, 122
8, 182760, Note_on_c, 6, 54, 125
8, 182932, Note_off_c, 6, 47, 17
8, 182945, Note_off_c, 6, 54, 17
8, 183120, Note_on_c, 6, 47, 122
8, 183120, Note_on_c, 6, 54, 127
8, 183587, Note_off_c, 6, 54, 17
8, 183605, Note_off_c, 6, 47, 17
8, 184320, Note_on_c, 6, 45, 116
8, 184320, Note_on_c, 6, 52, 125
8, 184565, Note_off_c, 6, 52, 17
8, 184572, Note_off_c, 6, 45, 17
8, 184680, Note_on_c, 6, 45, 122
8, 184680, Note_on_c, 6, 52, 125
8, 184852, Note_off_c, 6, 45, 17
8, 184865, Note_off_c, 6, 52, 17
8, 185040, Note_on_c, 6, 45, 122
8, 185040, Note_on_c, 6, 52, 127
8, 185507, Note_off_c, 6, 52, 17
8, 185525, Note_off_c, 6, 45, 17
8, 186240, Note_on_c, 6, 45, 116
8, 186240, Note_on_c, 6, 52, 125
8, 186485, Note_off_c, 6, 52, 17
8, 186492, Note_off_c, 6, 45, 17
8, 186600, Note_on_c, 6, 45, 122
8, 186600, Note_on_c, 6, 52, 125
8, 186772, Note_off_c, 6, 45, 17
8, 186785, Note_off_c, 6, 52, 17
8, 186960, Note_on_c, 6, 45, 122
8, 186960, Note_on_c, 6, 52, 127
8, 187427, Note_off_c, 6, 52, 17
8, 187445, Note_off_c, 6, 45, 17
8, 190562, Control_c, 6, 123, 0
8, 190922, Control_c, 6, 120, 0
8, 190932, End_track
9, 0, Start_track
9, 0, MIDI_port, 0
9, 0, Title_t, "Reverse Cym."
9, 264, Control_c, 7, 121, 0
9, 314, Program_c, 7, 119
9, 394, Control_c, 7, 7, 104
9, 426, Control_c, 7, 10, 67
9, 458, Control_c, 7, 11, 127
9, 490, Control_c, 7, 91, 96
9, 522, Control_c, 7, 93, 11
9, 554, Control_c, 7, 1, 0
9, 586, Control_c, 7, 64, 0
9, 618, Control_c, 7, 71, 64
9, 650, Control_c, 7, 72, 64
9, 682, Control_c, 7, 73, 64
9, 714, Control_c, 7, 74, 64
9, 746, Control_c, 7, 94, 0
9, 778, Pitch_bend_c, 7, 8192
9, 45120, Note_on_c, 7, 54, 119
9, 46076, Note_off_c, 7, 54, 17
9, 95040, Note_on_c, 7, 54, 119
9, 95996, Note_off_c, 7, 54, 17
9, 156480, Note_on_c, 7, 57, 104
9, 157436, Note_off_c, 7, 57, 17
9, 190567, Control_c, 7, 123, 0
9, 190927, Control_c, 7, 120, 0
9, 190932, End_track
10, 0, Start_track
10, 0, MIDI_port, 0
10, 0, Title_t, "Saw Wave"
10, 266, Control_c, 8, 121, 0
10, 316, Program_c, 8, 81
10, 396, Control_c, 8, 7, 78
10, 428, Control_c, 8, 10, 67
10, 460, Control_c, 8, 11, 127
10, 492, Control_c, 8, 91, 127
10, 524, Control_c, 8, 93, 45
10, 556, Control_c, 8, 1, 0
10, 588, Control_c, 8, 64, 0
10, 620, Control_c, 8, 71, 64
10, 652, Control_c, 8, 72, 64
10, 684, Control_c, 8, 73, 64
10, 716, Control_c, 8, 74, 64
10, 748, Control_c, 8, 94, 0
10, 780, Pitch_bend_c, 8, 8192
10, 61440, Note_on_c, 8, 71, 119
10, 61440, Note_on_c, 8, 76, 127
10, 61697, Note_off_c, 8, 76, 17
10, 61702, Note_off_c, 8, 71, 17
10, 61800, Note_on_c, 8, 71, 122
10, 61800, Note_on_c, 8, 76, 122
10, 62049, Note_off_c, 8, 76, 17
10, 62062, Note_off_c, 8, 71, 17
10, 62160, Note_on_c, 8, 71, 127
10, 62160, Note_on_c, 8, 75, 125
10, 62353, Note_off_c, 8, 75, 17
10, 62356, Note_off_c, 8, 71, 17
10, 62400, Note_on_c, 8, 71, 127
10, 62400, Note_on_c, 8, 76, 127
10, 62608, Note_off_c, 8, 71, 17
10, 62612, Note_off_c, 8, 76, 17
10, 63360, Note_on_c, 8, 68, 119
10, 63360, Note_on_c, 8, 71, 119
10, 63360, Note_on_c, 8, 76, 127
10, 63617, Note_off_c, 8, 68, 17
10, 63617, Note_off_c, 8, 76, 17
10, 63622, Note_off_c, 8, 71, 17
10, 63720, Note_on_c, 8, 68, 119
10, 63720, Note_on_c, 8, 71, 122
10, 63720, Note_on_c, 8, 76, 122
10, 63969, Note_off_c, 8, 76, 17
10, 63982, Note_off_c, 8, 68, 17
10, 63982, Note_off_c, 8, 71, 17
10, 64080, Note_on_c, 8, 66, 127
10, 64080, Note_on_c, 8, 71, 127
10, 64080, Note_on_c, 8, 75, 125
10, 64272, Note_off_c, 8, 66, 17
10, 64273, Note_off_c, 8, 75, 17
10, 64276, Note_off_c, 8, 71, 17
10, 64320, Note_on_c, 8, 68, 127
10, 64320, Note_on_c, 8, 71, 127
10, 64320, Note_on_c, 8, 76, 127
10, 64519, Note_off_c, 8, 68, 17
10, 64528, Note_off_c, 8, 71, 17
10, 64532, Note_off_c, 8, 76, 17
10, 64800, Note_on_c, 8, 68, 125
10, 64800, Note_on_c, 8, 71, 127
10, 64800, Note_on_c, 8, 76, 127
10, 65015, Note_off_c, 8, 68, 17
10, 65030, Note_off_c, 8, 71, 17
10, 65033, Note_off_c, 8, 76, 17
10, 65280, Note_on_c, 8, 71, 119
10, 65280, Note_on_c, 8, 76, 127
10, 65537, Note_off_c, 8, 76, 17
10, 65542, Note_off_c, 8, 71, 17
10, 65640, Note_on_c, 8, 71, 122
10, 65640, Note_on_c, 8, 76, 122
10, 65889, Note_off_c, 8, 76, 17
10, 65902, Note_off_c, 8, 71, 17
10, 66000, Note_on_c, 8, 71, 127
10, 66000, Note_on_c, 8, 75, 125
10, 66193, Note_off_c, 8, 75, 17
10, 66196, Note_off_c, 8, 71, 17
10, 66240, Note_on_c, 8, 71, 127
10, 66240, Note_on_c, 8, 76, 127
10, 66448, Note_off_c, 8, 71, 17
10, 66452, Note_off_c, 8, 76, 17
10, 67200, Note_on_c, 8, 68, 119
10, 67200, Note_on_c, 8, 71, 119
10, 67200, Note_on_c, 8, 76, 127
10, 67457, Note_off_c, 8, 68, 17
10, 67457, Note_off_c, 8, 76, 17
10, 67462, Note_off_c, 8, 71, 17
10, 67560, Note_on_c, 8, 68, 119
10, 67560, Note_on_c, 8, 71, 122
10, 67560, Note_on_c, 8, 76, 122
10, 67809, Note_off_c, 8, 76, 17
10, 67822, Note_off_c, 8, 68, 17
10, 67822, Note_off_c, 8, 71, 17
10, 67920, Note_on_c, 8, 66, 127
10, 67920, Note_on_c, 8, 71, 127
10, 67920, Note_on_c, 8, 75, 125
10, 68112, Note_off_c, 8, 66, 17
10, 68113, Note_off_c, 8, 75, 17
10, 68116, Note_off_c, 8, 71, 17
10, 68160, Note_on_c, 8, 68, 127
10, 68160, Note_on_c, 8, 71, 127
10, 68160, Note_on_c, 8, 76, 127
10, 68359, Note_off_c, 8, 68, 17
10, 68368, Note_off_c, 8, 71, 17
10, 68372, Note_off_c, 8, 76, 17
10, 68640, Note_on_c, 8, 68, 125
10, 68640, Note_on_c, 8, 71, 127
10, 68640, Note_on_c, 8, 76, 127
10, 68855, Note_off_c, 8, 68, 17
10, 68870, Note_off_c, 8, 71, 17
10, 68873, Note_off_c, 8, 76, 17
10, 69120, Note_on_c, 8, 71, 127
10, 69120, Note_on_c, 8, 76, 127
10, 69351, Note_off_c, 8, 71, 17
10, 69358, Note_off_c, 8, 76, 17
10, 69480, Note_on_c, 8, 71, 125
10, 69480, Note_on_c, 8, 76, 125
10, 69726, Note_off_c, 8, 71, 17
10, 69731, Note_off_c, 8, 76, 17
10, 69840, Note_on_c, 8, 71, 127
10, 69840, Note_on_c, 8, 76, 125
10, 69977, Note_off_c, 8, 71, 17
10, 69985, Note_off_c, 8, 76, 17
10, 70080, Note_on_c, 8, 71, 127
10, 70080, Note_on_c, 8, 76, 127
10, 70317, Note_off_c, 8, 71, 17
10, 70328, Note_off_c, 8, 76, 17
10, 71040, Note_on_c, 8, 71, 127
10, 71040, Note_on_c, 8, 75, 127
10, 71267, Note_off_c, 8, 71, 17
10, 71271, Note_off_c, 8, 75, 17
10, 71400, Note_on_c, 8, 71, 119
10, 71400, Note_on_c, 8, 75, 122
10, 71634, Note_off_c, 8, 71, 17
10, 71642, Note_off_c, 8, 75, 17
10, 71760, Note_on_c, 8, 71, 122
10, 71760, Note_on_c, 8, 75, 125
10, 71909, Note_off_c, 8, 71, 17
10, 71912, Note_off_c, 8, 75, 17
10, 72000, Note_on_c, 8, 71, 122
10, 72000, Note_on_c, 8, 76, 127
10, 72229, Note_off_c, 8, 71, 17
10, 72237, Note_off_c, 8, 76, 17
10, 72480, Note_on_c, 8, 71, 122
10, 72480, Note_on_c, 8, 75, 127
10, 72796, Note_off_c, 8, 71, 17
10, 72801, Note_off_c, 8, 75, 17
10, 72960, Note_on_c, 8, 71, 117
10, 72960, Note_on_c, 8, 76, 125
10, 72960, Note_on_c, 8, 80, 127
10, 73229, Note_off_c, 8, 80, 17
10, 73235, Note_off_c, 8, 71, 17
10, 73235, Note_off_c, 8, 76, 17
10, 73320, Note_on_c, 8, 71, 111
10, 73320, Note_on_c, 8, 76, 127
10, 73320, Note_on_c, 8, 80, 127
10, 73582, Note_off_c, 8, 80, 17
10, 73587, Note_off_c, 8, 76, 17
10, 73610, Note_off_c, 8, 71, 17
10, 73680, Note_on_c, 8, 71, 109
10, 73680, Note_on_c, 8, 75, 122
10, 73680, Note_on_c, 8, 78, 122
10, 73844, Note_off_c, 8, 71, 17
10, 73848, Note_off_c, 8, 75, 17
10, 73853, Note_off_c, 8, 78, 17
10, 73920, Note_on_c, 8, 71, 122
10, 73920, Note_on_c, 8, 76, 127
10, 73920, Note_on_c, 8, 80, 127
10, 74099, Note_off_c, 8, 71, 17
10, 74113, Note_off_c, 8, 80, 17
10, 74114, Note_off_c, 8, 76, 17
10, 74880, Note_on_c, 8, 71, 122
10, 74880, Note_on_c, 8, 76, 127
10, 74880, Note_on_c, 8, 80, 122
10, 75168, Note_off_c, 8, 76, 17
10, 75171, Note_off_c, 8, 71, 17
10, 75172, Note_off_c, 8, 80, 17
10, 75240, Note_on_c, 8, 71, 119
10, 75240, Note_on_c, 8, 76, 125
10, 75240, Note_on_c, 8, 80, 127
10, 75485, Note_off_c, 8, 76, 17
10, 75487, Note_off_c, 8, 80, 17
10, 75507, Note_off_c, 8, 71, 17
10, 75600, Note_on_c, 8, 71, 111
10, 75600, Note_on_c, 8, 75, 125
10, 75600, Note_on_c, 8, 78, 127
10, 75762, Note_off_c, 8, 71, 17
10, 75768, Note_off_c, 8, 75, 17
10, 75770, Note_off_c, 8, 78, 17
10, 75840, Note_on_c, 8, 71, 125
10, 75840, Note_on_c, 8, 76, 127
10, 75840, Note_on_c, 8, 80, 127
10, 76004, Note_off_c, 8, 71, 17
10, 76010, Note_off_c, 8, 80, 17
10, 76018, Note_off_c, 8, 76, 17
10, 96000, Note_on_c, 8, 71, 119
10, 96000, Note_on_c, 8, 76, 127
10, 96257, Note_off_c, 8, 76, 17
10, 96262, Note_off_c, 8, 71, 17
10, 96360, Note_on_c, 8, 71, 122
10, 96360, Note_on_c, 8, 76, 122
10, 96609, Note_off_c, 8, 76, 17
10, 96622, Note_off_c, 8, 71, 17
10, 96720, Note_on_c, 8, 71, 127
10, 96720, Note_on_c, 8, 75, 125
10, 96913, Note_off_c, 8, 75, 17
10, 96916, Note_off_c, 8, 71, 17
10, 96960, Note_on_c, 8, 71, 127
10, 96960, Note_on_c, 8, 76, 127
10, 97168, Note_off_c, 8, 71, 17
10, 97172, Note_off_c, 8, 76, 17
10, 97920, Note_on_c, 8, 68, 119
10, 97920, Note_on_c, 8, 71, 119
10, 97920, Note_on_c, 8, 76, 127
10, 98177, Note_off_c, 8, 76, 17
10, 98177, Note_off_c, 8, 68, 17
10, 98182, Note_off_c, 8, 71, 17
10, 98280, Note_on_c, 8, 68, 119
10, 98280, Note_on_c, 8, 71, 122
10, 98280, Note_on_c, 8, 76, 122
10, 98529, Note_off_c, 8, 76, 17
10, 98542, Note_off_c, 8, 71, 17
10, 98542, Note_off_c, 8, 68, 17
10, 98640, Note_on_c, 8, 66, 127
10, 98640, Note_on_c, 8, 71, 127
10, 98640, Note_on_c, 8, 75, 125
10, 98832, Note_off_c, 8, 66, 17
10, 98833, Note_off_c, 8, 75, 17
10, 98836, Note_off_c, 8, 71, 17
10, 98880, Note_on_c, 8, 68, 127
10, 98880, Note_on_c, 8, 71, 127
10, 98880, Note_on_c, 8, 76, 127
10, 99079, Note_off_c, 8, 68, 17
10, 99088, Note_off_c, 8, 71, 17
10, 99092, Note_off_c, 8, 76, 17
10, 99360, Note_on_c, 8, 68, 125
10, 99360, Note_on_c, 8, 71, 127
10, 99360, Note_on_c, 8, 76, 127
10, 99575, Note_off_c, 8, 68, 17
10, 99590, Note_off_c, 8, 71, 17
10, 99593, Note_off_c, 8, 76, 17
10, 99840, Note_on_c, 8, 71, 119
10, 99840, Note_on_c, 8, 76, 127
10, 100097, Note_off_c, 8, 76, 17
10, 100102, Note_off_c, 8, 71, 17
10, 100200, Note_on_c, 8, 71, 122
10, 100200, Note_on_c, 8, 76, 122
10, 100449, Note_off_c, 8, 76, 17
10, 100462, Note_off_c, 8, 71, 17
10, 100560, Note_on_c, 8, 71, 127
10, 100560, Note_on_c, 8, 75, 125
10, 100753, Note_off_c, 8, 75, 17
10, 100756, Note_off_c, 8, 71, 17
10, 100800, Note_on_c, 8, 71, 127
10, 100800, Note_on_c, 8, 76, 127
10, 101008, Note_off_c, 8, 71, 17
10, 101012, Note_off_c, 8, 76, 17
10, 101760, Note_on_c, 8, 68, 119
10, 101760, Note_on_c, 8, 71, 119
10, 101760, Note_on_c, 8, 76, 127
10, 102017, Note_off_c, 8, 76, 17
10, 102017, Note_off_c, 8, 68, 17
10, 102022, Note_off_c, 8, 71, 17
10, 102120, Note_on_c, 8, 68, 119
10, 102120, Note_on_c, 8, 71, 122
10, 102120, Note_on_c, 8, 76, 122
10, 102369, Note_off_c, 8, 76, 17
10, 102382, Note_off_c, 8, 71, 17
10, 102382, Note_off_c, 8, 68, 17
10, 102480, Note_on_c, 8, 66, 127
10, 102480, Note_on_c, 8, 71, 127
10, 102480, Note_on_c, 8, 75, 125
10, 102672, Note_off_c, 8, 66, 17
10, 102673, Note_off_c, 8, 75, 17
10, 102676, Note_off_c, 8, 71, 17
10, 102720, Note_on_c, 8, 68, 127
10, 102720, Note_on_c, 8, 71, 127
10, 102720, Note_on_c, 8, 76, 127
10, 102919, Note_off_c, 8, 68, 17
10, 102928, Note_off_c, 8, 71, 17
10, 102932, Note_off_c, 8, 76, 17
10, 103200, Note_on_c, 8, 68, 125
10, 103200, Note_on_c, 8, 71, 127
10, 103200, Note_on_c, 8, 76, 127
10, 103415, Note_off_c, 8, 68, 17
10, 103430, Note_off_c, 8, 71, 17
10, 103433, Note_off_c, 8, 76, 17
10, 103680, Note_on_c, 8, 71, 127
10, 103680, Note_on_c, 8, 76, 127
10, 103911, Note_off_c, 8, 71, 17
10, 103918, Note_off_c, 8, 76, 17
10, 104040, Note_on_c, 8, 71, 125
10, 104040, Note_on_c, 8, 76, 125
10, 104286, Note_off_c, 8, 71, 17
10, 104291, Note_off_c, 8, 76, 17
10, 104400, Note_on_c, 8, 71, 127
10, 104400, Note_on_c, 8, 76, 125
10, 104537, Note_off_c, 8, 71, 17
10, 104545, Note_off_c, 8, 76, 17
10, 104640, Note_on_c, 8, 71, 127
10, 104640, Note_on_c, 8, 76, 127
10, 104877, Note_off_c, 8, 71, 17
10, 104888, Note_off_c, 8, 76, 17
10, 105600, Note_on_c, 8, 71, 127
10, 105600, Note_on_c, 8, 75, 127
10, 105827, Note_off_c, 8, 71, 17
10, 105831, Note_off_c, 8, 75, 17
10, 105960, Note_on_c, 8, 71, 119
10, 105960, Note_on_c, 8, 75, 122
10, 106194, Note_off_c, 8, 71, 17
10, 106202, Note_off_c, 8, 75, 17
10, 106320, Note_on_c, 8, 71, 122
10, 106320, Note_on_c, 8, 75, 125
10, 106469, Note_off_c, 8, 71, 17
10, 106472, Note_off_c, 8, 75, 17
10, 106560, Note_on_c, 8, 71, 122
10, 106560, Note_on_c, 8, 76, 127
10, 106789, Note_off_c, 8, 71, 17
10, 106797, Note_off_c, 8, 76, 17
10, 107040, Note_on_c, 8, 71, 122
10, 107040, Note_on_c, 8, 75, 127
10, 107356, Note_off_c, 8, 71, 17
10, 107361, Note_off_c, 8, 75, 17
10, 107520, Note_on_c, 8, 71, 117
10, 107520, Note_on_c, 8, 76, 125
10, 107520, Note_on_c, 8, 80, 127
10, 107789, Note_off_c, 8, 80, 17
10, 107795, Note_off_c, 8, 71, 17
10, 107795, Note_off_c, 8, 76, 17
10, 107880, Note_on_c, 8, 71, 111
10, 107880, Note_on_c, 8, 76, 127
10, 107880, Note_on_c, 8, 80, 127
10, 108142, Note_off_c, 8, 80, 17
10, 108147, Note_off_c, 8, 76, 17
10, 108170, Note_off_c, 8, 71, 17
10, 108240, Note_on_c, 8, 71, 109
10, 108240, Note_on_c, 8, 75, 122
10, 108240, Note_on_c, 8, 78, 122
10, 108404, Note_off_c, 8, 71, 17
10, 108408, Note_off_c, 8, 75, 17
10, 108413, Note_off_c, 8, 78, 17
10, 108480, Note_on_c, 8, 71, 122
10, 108480, Note_on_c, 8, 76, 127
10, 108480, Note_on_c, 8, 80, 127
10, 108659, Note_off_c, 8, 71, 17
10, 108673, Note_off_c, 8, 80, 17
10, 108674, Note_off_c, 8, 76, 17
10, 109440, Note_on_c, 8, 71, 122
10, 109440, Note_on_c, 8, 76, 127
10, 109440, Note_on_c, 8, 80, 122
10, 109728, Note_off_c, 8, 76, 17
10, 109731, Note_off_c, 8, 71, 17
10, 109732, Note_off_c, 8, 80, 17
10, 109800, Note_on_c, 8, 71, 119
10, 109800, Note_on_c, 8, 76, 125
10, 109800, Note_on_c, 8, 80, 127
10, 110045, Note_off_c, 8, 76, 17
10, 110047, Note_off_c, 8, 80, 17
10, 110067, Note_off_c, 8, 71, 17
10, 110160, Note_on_c, 8, 71, 111
10, 110160, Note_on_c, 8, 75, 125
10, 110160, Note_on_c, 8, 78, 127
10, 110322, Note_off_c, 8, 71, 17
10, 110328, Note_off_c, 8, 75, 17
10, 110330, Note_off_c, 8, 78, 17
10, 110400, Note_on_c, 8, 71, 125
10, 110400, Note_on_c, 8, 76, 127
10, 110400, Note_on_c, 8, 80, 127
10, 110564, Note_off_c, 8, 71, 17
10, 110570, Note_off_c, 8, 80, 17
10, 110578, Note_off_c, 8, 76, 17
10, 111360, Note_on_c, 8, 71, 119
10, 111360, Note_on_c, 8, 76, 127
10, 111617, Note_off_c, 8, 76, 17
10, 111622, Note_off_c, 8, 71, 17
10, 111720, Note_on_c, 8, 71, 122
10, 111720, Note_on_c, 8, 76, 122
10, 111969, Note_off_c, 8, 76, 17
10, 111982, Note_off_c, 8, 71, 17
10, 112080, Note_on_c, 8, 71, 127
10, 112080, Note_on_c, 8, 75, 125
10, 112273, Note_off_c, 8, 75, 17
10, 112276, Note_off_c, 8, 71, 17
10, 112320, Note_on_c, 8, 71, 127
10, 112320, Note_on_c, 8, 76, 127
10, 112528, Note_off_c, 8, 71, 17
10, 112532, Note_off_c, 8, 76, 17
10, 113280, Note_on_c, 8, 68, 119
10, 113280, Note_on_c, 8, 71, 119
10, 113280, Note_on_c, 8, 76, 127
10, 113537, Note_off_c, 8, 68, 17
10, 113537, Note_off_c, 8, 76, 17
10, 113542, Note_off_c, 8, 71, 17
10, 113640, Note_on_c, 8, 68, 119
10, 113640, Note_on_c, 8, 71, 122
10, 113640, Note_on_c, 8, 76, 122
10, 113889, Note_off_c, 8, 76, 17
10, 113902, Note_off_c, 8, 68, 17
10, 113902, Note_off_c, 8, 71, 17
10, 114000, Note_on_c, 8, 66, 127
10, 114000, Note_on_c, 8, 71, 127
10, 114000, Note_on_c, 8, 75, 125
10, 114192, Note_off_c, 8, 66, 17
10, 114193, Note_off_c, 8, 75, 17
10, 114196, Note_off_c, 8, 71, 17
10, 114240, Note_on_c, 8, 68, 127
10, 114240, Note_on_c, 8, 71, 127
10, 114240, Note_on_c, 8, 76, 127
10, 114439, Note_off_c, 8, 68, 17
10, 114448, Note_off_c, 8, 71, 17
10, 114452, Note_off_c, 8, 76, 17
10, 114720, Note_on_c, 8, 68, 125
10, 114720, Note_on_c, 8, 71, 127
10, 114720, Note_on_c, 8, 76, 127
10, 114935, Note_off_c, 8, 68, 17
10, 114950, Note_off_c, 8, 71, 17
10, 114953, Note_off_c, 8, 76, 17
10, 115200, Note_on_c, 8, 71, 119
10, 115200, Note_on_c, 8, 76, 127
10, 115457, Note_off_c, 8, 76, 17
10, 115462, Note_off_c, 8, 71, 17
10, 115560, Note_on_c, 8, 71, 122
10, 115560, Note_on_c, 8, 76, 122
10, 115809, Note_off_c, 8, 76, 17
10, 115822, Note_off_c, 8, 71, 17
10, 115920, Note_on_c, 8, 71, 127
10, 115920, Note_on_c, 8, 75, 125
10, 116113, Note_off_c, 8, 75, 17
10, 116116, Note_off_c, 8, 71, 17
10, 116160, Note_on_c, 8, 71, 127
10, 116160, Note_on_c, 8, 76, 127
10, 116368, Note_off_c, 8, 71, 17
10, 116372, Note_off_c, 8, 76, 17
10, 117120, Note_on_c, 8, 68, 119
10, 117120, Note_on_c, 8, 71, 119
10, 117120, Note_on_c, 8, 76, 127
10, 117377, Note_off_c, 8, 68, 17
10, 117377, Note_off_c, 8, 76, 17
10, 117382, Note_off_c, 8, 71, 17
10, 117480, Note_on_c, 8, 68, 119
10, 117480, Note_on_c, 8, 71, 122
10, 117480, Note_on_c, 8, 76, 122
10, 117729, Note_off_c, 8, 76, 17
10, 117742, Note_off_c, 8, 68, 17
10, 117742, Note_off_c, 8, 71, 17
10, 117840, Note_on_c, 8, 66, 127
10, 117840, Note_on_c, 8, 71, 127
10, 117840, Note_on_c, 8, 75, 125
10, 118032, Note_off_c, 8, 66, 17
10, 118033, Note_off_c, 8, 75, 17
10, 118036, Note_off_c, 8, 71, 17
10, 118080, Note_on_c, 8, 68, 127
10, 118080, Note_on_c, 8, 71, 127
10, 118080, Note_on_c, 8, 76, 127
10, 118279, Note_off_c, 8, 68, 17
10, 118288, Note_off_c, 8, 71, 17
10, 118292, Note_off_c, 8, 76, 17
10, 118560, Note_on_c, 8, 68, 125
10, 118560, Note_on_c, 8, 71, 127
10, 118560, Note_on_c, 8, 76, 127
10, 118775, Note_off_c, 8, 68, 17
10, 118790, Note_off_c, 8, 71, 17
10, 118793, Note_off_c, 8, 76, 17
10, 119040, Note_on_c, 8, 71, 127
10, 119040, Note_on_c, 8, 76, 127
10, 119271, Note_off_c, 8, 71, 17
10, 119278, Note_off_c, 8, 76, 17
10, 119400, Note_on_c, 8, 71, 125
10, 119400, Note_on_c, 8, 76, 125
10, 119646, Note_off_c, 8, 71, 17
10, 119651, Note_off_c, 8, 76, 17
10, 119760, Note_on_c, 8, 71, 127
10, 119760, Note_on_c, 8, 76, 125
10, 119897, Note_off_c, 8, 71, 17
10, 119905, Note_off_c, 8, 76, 17
10, 120000, Note_on_c, 8, 71, 127
10, 120000, Note_on_c, 8, 76, 127
10, 120237, Note_off_c, 8, 71, 17
10, 120248, Note_off_c, 8, 76, 17
10, 120960, Note_on_c, 8, 71, 127
10, 120960, Note_on_c, 8, 75, 127
10, 121187, Note_off_c, 8, 71, 17
10, 121191, Note_off_c, 8, 75, 17
10, 121320, Note_on_c, 8, 71, 119
10, 121320, Note_on_c, 8, 75, 122
10, 121554, Note_off_c, 8, 71, 17
10, 121562, Note_off_c, 8, 75, 17
10, 121680, Note_on_c, 8, 71, 122
10, 121680, Note_on_c, 8, 75, 125
10, 121829, Note_off_c, 8, 71, 17
10, 121832, Note_off_c, 8, 75, 17
10, 121920, Note_on_c, 8, 71, 122
10, 121920, Note_on_c, 8, 76, 127
10, 122149, Note_off_c, 8, 71, 17
10, 122157, Note_off_c, 8, 76, 17
10, 122400, Note_on_c, 8, 71, 122
10, 122400, Note_on_c, 8, 75, 127
10, 122716, Note_off_c, 8, 71, 17
10, 122721, Note_off_c, 8, 75, 17
10, 122880, Note_on_c, 8, 71, 117
10, 122880, Note_on_c, 8, 76, 125
10, 122880, Note_on_c, 8, 80, 127
10, 123149, Note_off_c, 8, 80, 17
10, 123155, Note_off_c, 8, 71, 17
10, 123155, Note_off_c, 8, 76, 17
10, 123240, Note_on_c, 8, 71, 111
10, 123240, Note_on_c, 8, 76, 127
10, 123240, Note_on_c, 8, 80, 127
10, 123502, Note_off_c, 8, 80, 17
10, 123507, Note_off_c, 8, 76, 17
10, 123530, Note_off_c, 8, 71, 17
10, 123600, Note_on_c, 8, 71, 109
10, 123600, Note_on_c, 8, 75, 122
10, 123600, Note_on_c, 8, 78, 122
10, 123764, Note_off_c, 8, 71, 17
10, 123768, Note_off_c, 8, 75, 17
10, 123773, Note_off_c, 8, 78, 17
10, 123840, Note_on_c, 8, 71, 122
10, 123840, Note_on_c, 8, 76, 127
10, 123840, Note_on_c, 8, 80, 127
10, 124019, Note_off_c, 8, 71, 17
10, 124033, Note_off_c, 8, 80, 17
10, 124034, Note_off_c, 8, 76, 17
10, 124800, Note_on_c, 8, 71, 122
10, 124800, Note_on_c, 8, 76, 127
10, 124800, Note_on_c, 8, 80, 122
10, 125088, Note_off_c, 8, 76, 17
10, 125091, Note_off_c, 8, 71, 17
10, 125092, Note_off_c, 8, 80, 17
10, 125160, Note_on_c, 8, 71, 119
10, 125160, Note_on_c, 8, 76, 125
10, 125160, Note_on_c, 8, 80, 127
10, 125405, Note_off_c, 8, 76, 17
10, 125407, Note_off_c, 8, 80, 17
10, 125427, Note_off_c, 8, 71, 17
10, 125520, Note_on_c, 8, 71, 111
10, 125520, Note_on_c, 8, 75, 125
10, 125520, Note_on_c, 8, 78, 127
10, 125682, Note_off_c, 8, 71, 17
10, 125688, Note_off_c, 8, 75, 17
10, 125690, Note_off_c, 8, 78, 17
10, 125760, Note_on_c, 8, 71, 125
10, 125760, Note_on_c, 8, 76, 127
10, 125760, Note_on_c, 8, 80, 127
10, 125924, Note_off_c, 8, 71, 17
10, 125930, Note_off_c, 8, 80, 17
10, 125938, Note_off_c, 8, 76, 17
10, 157440, Note_on_c, 8, 71, 119
10, 157440, Note_on_c, 8, 76, 127
10, 157697, Note_off_c, 8, 76, 17
10, 157702, Note_off_c, 8, 71, 17
10, 157800, Note_on_c, 8, 71, 122
10, 157800, Note_on_c, 8, 76, 122
10, 158049, Note_off_c, 8, 76, 17
10, 158062, Note_off_c, 8, 71, 17
10, 158160, Note_on_c, 8, 71, 127
10, 158160, Note_on_c, 8, 75, 125
10, 158353, Note_off_c, 8, 75, 17
10, 158356, Note_off_c, 8, 71, 17
10, 158400, Note_on_c, 8, 71, 127
10, 158400, Note_on_c, 8, 76, 127
10, 158608, Note_off_c, 8, 71, 17
10, 158612, Note_off_c, 8, 76, 17
10, 159360, Note_on_c, 8, 68, 119
10, 159360, Note_on_c, 8, 71, 119
10, 159360, Note_on_c, 8, 76, 127
10, 159617, Note_off_c, 8, 68, 17
10, 159617, Note_off_c, 8, 76, 17
10, 159622, Note_off_c, 8, 71, 17
10, 159720, Note_on_c, 8, 68, 119
10, 159720, Note_on_c, 8, 71, 122
10, 159720, Note_on_c, 8, 76, 122
10, 159969, Note_off_c, 8, 76, 17
10, 159982, Note_off_c, 8, 68, 17
10, 159982, Note_off_c, 8, 71, 17
10, 160080, Note_on_c, 8, 66, 127
10, 160080, Note_on_c, 8, 71, 127
10, 160080, Note_on_c, 8, 75, 125
10, 160272, Note_off_c, 8, 66, 17
10, 160273, Note_off_c, 8, 75, 17
10, 160276, Note_off_c, 8, 71, 17
10, 160320, Note_on_c, 8, 68, 127
10, 160320, Note_on_c, 8, 71, 127
10, 160320, Note_on_c, 8, 76, 127
10, 160519, Note_off_c, 8, 68, 17
10, 160528, Note_off_c, 8, 71, 17
10, 160532, Note_off_c, 8, 76, 17
10, 160800, Note_on_c, 8, 68, 125
10, 160800, Note_on_c, 8, 71, 127
10, 160800, Note_on_c, 8, 76, 127
10, 161015, Note_off_c, 8, 68, 17
10, 161030, Note_off_c, 8, 71, 17
10, 161033, Note_off_c, 8, 76, 17
10, 161280, Note_on_c, 8, 71, 119
10, 161280, Note_on_c, 8, 76, 127
10, 161537, Note_off_c, 8, 76, 17
10, 161542, Note_off_c, 8, 71, 17
10, 161640, Note_on_c, 8, 71, 122
10, 161640, Note_on_c, 8, 76, 122
10, 161889, Note_off_c, 8, 76, 17
10, 161902, Note_off_c, 8, 71, 17
10, 162000, Note_on_c, 8, 71, 127
10, 162000, Note_on_c, 8, 75, 125
10, 162193, Note_off_c, 8, 75, 17
10, 162196, Note_off_c, 8, 71, 17
10, 162240, Note_on_c, 8, 71, 127
10, 162240, Note_on_c, 8, 76, 127
10, 162448, Note_off_c, 8, 71, 17
10, 162452, Note_off_c, 8, 76, 17
10, 163200, Note_on_c, 8, 68, 119
10, 163200, Note_on_c, 8, 71, 119
10, 163200, Note_on_c, 8, 76, 127
10, 163457, Note_off_c, 8, 68, 17
10, 163457, Note_off_c, 8, 76, 17
10, 163462, Note_off_c, 8, 71, 17
10, 163560, Note_on_c, 8, 68, 119
10, 163560, Note_on_c, 8, 71, 122
10, 163560, Note_on_c, 8, 76, 122
10, 163809, Note_off_c, 8, 76, 17
10, 163822, Note_off_c, 8, 68, 17
10, 163822, Note_off_c, 8, 71, 17
10, 163920, Note_on_c, 8, 66, 127
10, 163920, Note_on_c, 8, 71, 127
10, 163920, Note_on_c, 8, 75, 125
10, 164112, Note_off_c, 8, 66, 17
10, 164113, Note_off_c, 8, 75, 17
10, 164116, Note_off_c, 8, 71, 17
10, 164160, Note_on_c, 8, 68, 127
10, 164160, Note_on_c, 8, 71, 127
10, 164160, Note_on_c, 8, 76, 127
10, 164359, Note_off_c, 8, 68, 17
10, 164368, Note_off_c, 8, 71, 17
10, 164372, Note_off_c, 8, 76, 17
10, 164640, Note_on_c, 8, 68, 125
10, 164640, Note_on_c, 8, 71, 127
10, 164640, Note_on_c, 8, 76, 127
10, 164855, Note_off_c, 8, 68, 17
10, 164870, Note_off_c, 8, 71, 17
10, 164873, Note_off_c, 8, 76, 17
10, 165120, Note_on_c, 8, 71, 127
10, 165120, Note_on_c, 8, 76, 127
10, 165351, Note_off_c, 8, 71, 17
10, 165358, Note_off_c, 8, 76, 17
10, 165480, Note_on_c, 8, 71, 125
10, 165480, Note_on_c, 8, 76, 125
10, 165726, Note_off_c, 8, 71, 17
10, 165731, Note_off_c, 8, 76, 17
10, 165840, Note_on_c, 8, 71, 127
10, 165840, Note_on_c, 8, 76, 125
10, 165977, Note_off_c, 8, 71, 17
10, 165985, Note_off_c, 8, 76, 17
10, 166080, Note_on_c, 8, 71, 127
10, 166080, Note_on_c, 8, 76, 127
10, 166317, Note_off_c, 8, 71, 17
10, 166328, Note_off_c, 8, 76, 17
10, 167040, Note_on_c, 8, 71, 127
10, 167040, Note_on_c, 8, 75, 127
10, 167267, Note_off_c, 8, 71, 17
10, 167271, Note_off_c, 8, 75, 17
10, 167400, Note_on_c, 8, 71, 119
10, 167400, Note_on_c, 8, 75, 122
10, 167634, Note_off_c, 8, 71, 17
10, 167642, Note_off_c, 8, 75, 17
10, 167760, Note_on_c, 8, 71, 122
10, 167760, Note_on_c, 8, 75, 125
10, 167909, Note_off_c, 8, 71, 17
10, 167912, Note_off_c, 8, 75, 17
10, 168000, Note_on_c, 8, 71, 122
10, 168000, Note_on_c, 8, 76, 127
10, 168229, Note_off_c, 8, 71, 17
10, 168237, Note_off_c, 8, 76, 17
10, 168480, Note_on_c, 8, 71, 122
10, 168480, Note_on_c, 8, 75, 127
10, 168796, Note_off_c, 8, 71, 17
10, 168801, Note_off_c, 8, 75, 17
10, 168960, Note_on_c, 8, 71, 117
10, 168960, Note_on_c, 8, 76, 125
10, 168960, Note_on_c, 8, 80, 127
10, 169229, Note_off_c, 8, 80, 17
10, 169235, Note_off_c, 8, 71, 17
10, 169235, Note_off_c, 8, 76, 17
10, 169320, Note_on_c, 8, 71, 111
10, 169320, Note_on_c, 8, 76, 127
10, 169320, Note_on_c, 8, 80, 127
10, 169582, Note_off_c, 8, 80, 17
10, 169587, Note_off_c, 8, 76, 17
10, 169610, Note_off_c, 8, 71, 17
10, 169680, Note_on_c, 8, 71, 109
10, 169680, Note_on_c, 8, 75, 122
10, 169680, Note_on_c, 8, 78, 122
10, 169844, Note_off_c, 8, 71, 17
10, 169848, Note_off_c, 8, 75, 17
10, 169853, Note_off_c, 8, 78, 17
10, 169920, Note_on_c, 8, 71, 122
10, 169920, Note_on_c, 8, 76, 127
10, 169920, Note_on_c, 8, 80, 127
10, 170099, Note_off_c, 8, 71, 17
10, 170113, Note_off_c, 8, 80, 17
10, 170114, Note_off_c, 8, 76, 17
10, 170880, Note_on_c, 8, 71, 122
10, 170880, Note_on_c, 8, 76, 127
10, 170880, Note_on_c, 8, 80, 122
10, 171168, Note_off_c, 8, 76, 17
10, 171171, Note_off_c, 8, 71, 17
10, 171172, Note_off_c, 8, 80, 17
10, 171240, Note_on_c, 8, 71, 119
10, 171240, Note_on_c, 8, 76, 125
10, 171240, Note_on_c, 8, 80, 127
10, 171485, Note_off_c, 8, 76, 17
10, 171487, Note_off_c, 8, 80, 17
10, 171507, Note_off_c, 8, 71, 17
10, 171600, Note_on_c, 8, 71, 111
10, 171600, Note_on_c, 8, 75, 125
10, 171600, Note_on_c, 8, 78, 127
10, 171762, Note_off_c, 8, 71, 17
10, 171768, Note_off_c, 8, 75, 17
10, 171770, Note_off_c, 8, 78, 17
10, 171840, Note_on_c, 8, 71, 125
10, 171840, Note_on_c, 8, 76, 127
10, 171840, Note_on_c, 8, 80, 127
10, 172004, Note_off_c, 8, 71, 17
10, 172010, Note_off_c, 8, 80, 17
10, 172018, Note_off_c, 8, 76, 17
10, 172800, Note_on_c, 8, 71, 119
10, 172800, Note_on_c, 8, 76, 127
10, 173057, Note_off_c, 8, 76, 17
10, 173062, Note_off_c, 8, 71, 17
10, 173160, Note_on_c, 8, 71, 122
10, 173160, Note_on_c, 8, 76, 122
10, 173409, Note_off_c, 8, 76, 17
10, 173422, Note_off_c, 8, 71, 17
10, 173520, Note_on_c, 8, 71, 127
10, 173520, Note_on_c, 8, 75, 125
10, 173713, Note_off_c, 8, 75, 17
10, 173716, Note_off_c, 8, 71, 17
10, 173760, Note_on_c, 8, 71, 127
10, 173760, Note_on_c, 8, 76, 127
10, 173968, Note_off_c, 8, 71, 17
10, 173972, Note_off_c, 8, 76, 17
10, 174720, Note_on_c, 8, 68, 119
10, 174720, Note_on_c, 8, 71, 119
10, 174720, Note_on_c, 8, 76, 127
10, 174977, Note_off_c, 8, 76, 17
10, 174977, Note_off_c, 8, 68, 17
10, 174982, Note_off_c, 8, 71, 17
10, 175080, Note_on_c, 8, 68, 119
10, 175080, Note_on_c, 8, 71, 122
10, 175080, Note_on_c, 8, 76, 122
10, 175329, Note_off_c, 8, 76, 17
10, 175342, Note_off_c, 8, 68, 17
10, 175342, Note_off_c, 8, 71, 17
10, 175440, Note_on_c, 8, 66, 127
10, 175440, Note_on_c, 8, 71, 127
10, 175440, Note_on_c, 8, 75, 125
10, 175632, Note_off_c, 8, 66, 17
10, 175633, Note_off_c, 8, 75, 17
10, 175636, Note_off_c, 8, 71, 17
10, 175680, Note_on_c, 8, 68, 127
10, 175680, Note_on_c, 8, 71, 127
10, 175680, Note_on_c, 8, 76, 127
10, 175879, Note_off_c, 8, 68, 17
10, 175888, Note_off_c, 8, 71, 17
10, 175892, Note_off_c, 8, 76, 17
10, 176160, Note_on_c, 8, 68, 125
10, 176160, Note_on_c, 8, 71, 127
10, 176160, Note_on_c, 8, 76, 127
10, 176375, Note_off_c, 8, 68, 17
10, 176390, Note_off_c, 8, 71, 17
10, 176393, Note_off_c, 8, 76, 17
10, 176640, Note_on_c, 8, 71, 119
10, 176640, Note_on_c, 8, 76, 127
10, 176897, Note_off_c, 8, 76, 17
10, 176902, Note_off_c, 8, 71, 17
10, 177000, Note_on_c, 8, 71, 122
10, 177000, Note_on_c, 8, 76, 122
10, 177249, Note_off_c, 8, 76, 17
10, 177262, Note_off_c, 8, 71, 17
10, 177360, Note_on_c, 8, 71, 127
10, 177360, Note_on_c, 8, 75, 125
10, 177553, Note_off_c, 8, 75, 17
10, 177556, Note_off_c, 8, 71, 17
10, 177600, Note_on_c, 8, 71, 127
10, 177600, Note_on_c, 8, 76, 127
10, 177808, Note_off_c, 8, 71, 17
10, 177812, Note_off_c, 8, 76, 17
10, 178560, Note_on_c, 8, 68, 119
10, 178560, Note_on_c, 8, 71, 119
10, 178560, Note_on_c, 8, 76, 127
10, 178817, Note_off_c, 8, 76, 17
10, 178817, Note_off_c, 8, 68, 17
10, 178822, Note_off_c, 8, 71, 17
10, 178920, Note_on_c, 8, 68, 119
10, 178920, Note_on_c, 8, 71, 122
10, 178920, Note_on_c, 8, 76, 122
10, 179169, Note_off_c, 8, 76, 17
10, 179182, Note_off_c, 8, 71, 17
10, 179182, Note_off_c, 8, 68, 17
10, 179280, Note_on_c, 8, 66, 127
10, 179280, Note_on_c, 8, 71, 127
10, 179280, Note_on_c, 8, 75, 125
10, 179472, Note_off_c, 8, 66, 17
10, 179473, Note_off_c, 8, 75, 17
10, 179476, Note_off_c, 8, 71, 17
10, 179520, Note_on_c, 8, 68, 127
10, 179520, Note_on_c, 8, 71, 127
10, 179520, Note_on_c, 8, 76, 127
10, 179719, Note_off_c, 8, 68, 17
10, 179728, Note_off_c, 8, 71, 17
10, 179732, Note_off_c, 8, 76, 17
10, 180000, Note_on_c, 8, 68, 125
10, 180000, Note_on_c, 8, 71, 127
10, 180000, Note_on_c, 8, 76, 127
10, 180215, Note_off_c, 8, 68, 17
10, 180230, Note_off_c, 8, 71, 17
10, 180233, Note_off_c, 8, 76, 17
10, 180480, Note_on_c, 8, 71, 127
10, 180480, Note_on_c, 8, 76, 127
10, 180711, Note_off_c, 8, 71, 17
10, 180718, Note_off_c, 8, 76, 17
10, 180840, Note_on_c, 8, 71, 125
10, 180840, Note_on_c, 8, 76, 125
10, 181086, Note_off_c, 8, 71, 17
10, 181091, Note_off_c, 8, 76, 17
10, 181200, Note_on_c, 8, 71, 127
10, 181200, Note_on_c, 8, 76, 125
10, 181337, Note_off_c, 8, 71, 17
10, 181345, Note_off_c, 8, 76, 17
10, 181440, Note_on_c, 8, 71, 127
10, 181440, Note_on_c, 8, 76, 127
10, 181677, Note_off_c, 8, 71, 17
10, 181688, Note_off_c, 8, 76, 17
10, 182400, Note_on_c, 8, 71, 127
10, 182400, Note_on_c, 8, 75, 127
10, 182627, Note_off_c, 8, 71, 17
10, 182631, Note_off_c, 8, 75, 17
10, 182760, Note_on_c, 8, 71, 119
10, 182760, Note_on_c, 8, 75, 122
10, 182994, Note_off_c, 8, 71, 17
10, 183002, Note_off_c, 8, 75, 17
10, 183120, Note_on_c, 8, 71, 122
10, 183120, Note_on_c, 8, 75, 125
10, 183269, Note_off_c, 8, 71, 17
10, 183272, Note_off_c, 8, 75, 17
10, 183360, Note_on_c, 8, 71, 122
10, 183360, Note_on_c, 8, 76, 127
10, 183589, Note_off_c, 8, 71, 17
10, 183597, Note_off_c, 8, 76, 17
10, 183840, Note_on_c, 8, 71, 122
10, 183840, Note_on_c, 8, 75, 127
10, 184156, Note_off_c, 8, 71, 17
10, 184161, Note_off_c, 8, 75, 17
10, 184320, Note_on_c, 8, 71, 117
10, 184320, Note_on_c, 8, 76, 125
10, 184320, Note_on_c, 8, 80, 127
10, 184589, Note_off_c, 8, 80, 17
10, 184595, Note_off_c, 8, 76, 17
10, 184595, Note_off_c, 8, 71, 17
10, 184680, Note_on_c, 8, 71, 111
10, 184680, Note_on_c, 8, 76, 127
10, 184680, Note_on_c, 8, 80, 127
10, 184942, Note_off_c, 8, 80, 17
10, 184947, Note_off_c, 8, 76, 17
10, 184970, Note_off_c, 8, 71, 17
10, 185040, Note_on_c, 8, 71, 109
10, 185040, Note_on_c, 8, 75, 122
10, 185040, Note_on_c, 8, 78, 122
10, 185204, Note_off_c, 8, 71, 17
10, 185208, Note_off_c, 8, 75, 17
10, 185213, Note_off_c, 8, 78, 17
10, 185280, Note_on_c, 8, 71, 122
10, 185280, Note_on_c, 8, 76, 127
10, 185280, Note_on_c, 8, 80, 127
10, 185459, Note_off_c, 8, 71, 17
10, 185473, Note_off_c, 8, 80, 17
10, 185474, Note_off_c, 8, 76, 17
10, 186240, Note_on_c, 8, 71, 122
10, 186240, Note_on_c, 8, 76, 127
10, 186240, Note_on_c, 8, 80, 122
10, 186528, Note_off_c, 8, 76, 17
10, 186531, Note_off_c, 8, 71, 17
10, 186532, Note_off_c, 8, 80, 17
10, 186600, Note_on_c, 8, 71, 119
10, 186600, Note_on_c, 8, 76, 125
10, 186600, Note_on_c, 8, 80, 127
10, 186845, Note_off_c, 8, 76, 17
10, 186847, Note_off_c, 8, 80, 17
10, 186867, Note_off_c, 8, 71, 17
10, 186960, Note_on_c, 8, 71, 111
10, 186960, Note_on_c, 8, 75, 125
10, 186960, Note_on_c, 8, 78, 127
10, 187122, Note_off_c, 8, 71, 17
10, 187128, Note_off_c, 8, 75, 17
10, 187130, Note_off_c, 8, 78, 17
10, 187200, Note_on_c, 8, 71, 125
10, 187200, Note_on_c, 8, 76, 127
10, 187200, Note_on_c, 8, 80, 127
10, 187364, Note_off_c, 8, 71, 17
10, 187370, Note_off_c, 8, 80, 17
10, 187378, Note_off_c, 8, 76, 17
10, 190563, Control_c, 8, 123, 0
10, 190923, Control_c, 8, 120, 0
10, 190932, End_track
11, 0, Start_track
11, 0, MIDI_port, 0
11, 0, Title_t, "Room"
11, 268, Control_c, 9, 121, 0
11, 318, Program_c, 9, 8
11, 398, Control_c, 9, 7, 125
11, 430, Control_c, 9, 10, 64
11, 462, Control_c, 9, 11, 127
11, 494, Control_c, 9, 91, 71
11, 526, Control_c, 9, 93, 24
11, 558, Control_c, 9, 1, 0
11, 590, Control_c, 9, 64, 0
11, 622, Control_c, 9, 71, 64
11, 654, Control_c, 9, 72, 64
11, 686, Control_c, 9, 73, 64
11, 718, Control_c, 9, 74, 64
11, 750, Control_c, 9, 94, 0
11, 782, Pitch_bend_c, 9, 8192
11, 930, Control_c, 9, 99, 24
11, 930, Control_c, 9, 98, 36
11, 930, Control_c, 9, 6, 69
11, 930, Control_c, 9, 38, 0
11, 965, Control_c, 9, 99, 24
11, 965, Control_c, 9, 98, 38
11, 965, Control_c, 9, 6, 64
11, 965, Control_c, 9, 38, 0
11, 1051, Control_c, 9, 99, 24
11, 1051, Control_c, 9, 98, 31
11, 1051, Control_c, 9, 6, 49
11, 1051, Control_c, 9, 38, 0
11, 1089, Control_c, 9, 99, 24
11, 1089, Control_c, 9, 98, 27
11, 1089, Control_c, 9, 6, 45
11, 1089, Control_c, 9, 38, 0
11, 1920, Note_on_c, 9, 42, 85
11, 1948, Note_off_c, 9, 42, 17
11, 2400, Note_on_c, 9, 42, 56
11, 2435, Note_off_c, 9, 42, 17
11, 2880, Note_on_c, 9, 42, 56
11, 2915, Note_off_c, 9, 42, 17
11, 3360, Note_on_c, 9, 42, 56
11, 3395, Note_off_c, 9, 42, 17
11, 3840, Note_on_c, 9, 35, 114
11, 3840, Note_on_c, 9, 43, 127
11, 3870, Note_off_c, 9, 43, 17
11, 3870, Note_off_c, 9, 35, 17
11, 4200, Note_on_c, 9, 35, 119
11, 4200, Note_on_c, 9, 43, 125
11, 4230, Note_off_c, 9, 43, 17
11, 4230, Note_off_c, 9, 35, 17
11, 4320, Note_on_c, 9, 38, 127
11, 4320, Note_on_c, 9, 39, 119
11, 4350, Note_off_c, 9, 39, 17
11, 4350, Note_off_c, 9, 38, 17
11, 4560, Note_on_c, 9, 35, 125
11, 4560, Note_on_c, 9, 43, 125
11, 4590, Note_off_c, 9, 43, 17
11, 4590, Note_off_c, 9, 35, 17
11, 4800, Note_on_c, 9, 35, 122
11, 4800, Note_on_c, 9, 43, 125
11, 4830, Note_off_c, 9, 43, 17
11, 4830, Note_off_c, 9, 35, 17
11, 5040, Note_on_c, 9, 69, 64
11, 5156, Note_off_c, 9, 69, 17
11, 5160, Note_on_c, 9, 69, 64
11, 5276, Note_off_c, 9, 69, 17
11, 5280, Note_on_c, 9, 38, 127
11, 5280, Note_on_c, 9, 39, 119
11, 5310, Note_off_c, 9, 39, 17
11, 5310, Note_off_c, 9, 38, 17
11, 5760, Note_on_c, 9, 35, 114
11, 5760, Note_on_c, 9, 43, 127
11, 5790, Note_off_c, 9, 43, 17
11, 5790, Note_off_c, 9, 35, 17
11, 6120, Note_on_c, 9, 35, 119
11, 6120, Note_on_c, 9, 43, 125
11, 6150, Note_off_c, 9, 43, 17
11, 6150, Note_off_c, 9, 35, 17
11, 6240, Note_on_c, 9, 38, 127
11, 6240, Note_on_c, 9, 39, 119
11, 6270, Note_off_c, 9, 39, 17
11, 6270, Note_off_c, 9, 38, 17
11, 6480, Note_on_c, 9, 35, 125
11, 6480, Note_on_c, 9, 43, 125
11, 6510, Note_off_c, 9, 43, 17
11, 6510, Note_off_c, 9, 35, 17
11, 6720, Note_on_c, 9, 35, 122
11, 6720, Note_on_c, 9, 43, 125
11, 6750, Note_off_c, 9, 43, 17
11, 6750, Note_off_c, 9, 35, 17
11, 6960, Note_on_c, 9, 46, 125
11, 6990, Note_off_c, 9, 46, 17
11, 7200, Note_on_c, 9, 38, 127
11, 7200, Note_on_c, 9, 39, 119
11, 7230, Note_off_c, 9, 39, 17
11, 7230, Note_off_c, 9, 38, 17
11, 7680, Note_on_c, 9, 35, 114
11, 7680, Note_on_c, 9, 43, 127
11, 7710, Note_off_c, 9, 43, 17
11, 7710, Note_off_c, 9, 35, 17
11, 8040, Note_on_c, 9, 35, 119
11, 8040, Note_on_c, 9, 43, 125
11, 8070, Note_off_c, 9, 43, 17
11, 8070, Note_off_c, 9, 35, 17
11, 8160, Note_on_c, 9, 38, 127
11, 8160, Note_on_c, 9, 39, 119
11, 8190, Note_off_c, 9, 39, 17
11, 8190, Note_off_c, 9, 38, 17
11, 8400, Note_on_c, 9, 35, 125
11, 8400, Note_on_c, 9, 43, 125
11, 8430, Note_off_c, 9, 43, 17
11, 8430, Note_off_c, 9, 35, 17
11, 8640, Note_on_c, 9, 35, 122
11, 8640, Note_on_c, 9, 43, 125
11, 8670, Note_off_c, 9, 43, 17
11, 8670, Note_off_c, 9, 35, 17
11, 8880, Note_on_c, 9, 69, 64
11, 8996, Note_off_c, 9, 69, 17
11, 9000, Note_on_c, 9, 69, 64
11, 9116, Note_off_c, 9, 69, 17
11, 9120, Note_on_c, 9, 38, 127
11, 9120, Note_on_c, 9, 39, 119
11, 9150, Note_off_c, 9, 39, 17
11, 9150, Note_off_c, 9, 38, 17
11, 9600, Note_on_c, 9, 35, 114
11, 9600, Note_on_c, 9, 43, 127
11, 9630, Note_off_c, 9, 43, 17
11, 9630, Note_off_c, 9, 35, 17
11, 9960, Note_on_c, 9, 35, 119
11, 9960, Note_on_c, 9, 43, 125
11, 9990, Note_off_c, 9, 43, 17
11, 9990, Note_off_c, 9, 35, 17
11, 10080, Note_on_c, 9, 38, 127
11, 10080, Note_on_c, 9, 39, 119
11, 10110, Note_off_c, 9, 39, 17
11, 10110, Note_off_c, 9, 38, 17
11, 10320, Note_on_c, 9, 47, 106
11, 10350, Note_off_c, 9, 47, 17
11, 10440, Note_on_c, 9, 41, 99
11, 10470, Note_off_c, 9, 41, 17
11, 10560, Note_on_c, 9, 43, 111
11, 10590, Note_off_c, 9, 43, 17
11, 10680, Note_on_c, 9, 41, 111
11, 10710, Note_off_c, 9, 41, 17
11, 10800, Note_on_c, 9, 45, 111
11, 10830, Note_off_c, 9, 45, 17
11, 10920, Note_on_c, 9, 41, 122
11, 10950, Note_off_c, 9, 41, 17
11, 11040, Note_on_c, 9, 38, 127
11, 11040, Note_on_c, 9, 39, 119
11, 11070, Note_off_c, 9, 39, 17
11, 11070, Note_off_c, 9, 38, 17
11, 11520, Note_on_c, 9, 35, 120
11, 11520, Note_on_c, 9, 49, 98
11, 11568, Note_off_c, 9, 49, 17
11, 11568, Note_off_c, 9, 35, 17
11, 11760, Note_on_c, 9, 42, 80
11, 11808, Note_off_c, 9, 42, 17
11, 11880, Note_on_c, 9, 35, 120
11, 11928, Note_off_c, 9, 35, 17
11, 12000, Note_on_c, 9, 38, 120
11, 12000, Note_on_c, 9, 42, 80
11, 12048, Note_off_c, 9, 38, 17
11, 12048, Note_off_c, 9, 42, 17
11, 12240, Note_on_c, 9, 35, 120
11, 12240, Note_on_c, 9, 42, 80
11, 12288, Note_off_c, 9, 42, 17
11, 12288, Note_off_c, 9, 35, 17
11, 12480, Note_on_c, 9, 35, 120
11, 12480, Note_on_c, 9, 42, 80
11, 12528, Note_off_c, 9, 42, 17
11, 12528, Note_off_c, 9, 35, 17
11, 12720, Note_on_c, 9, 42, 80
11, 12720, Note_on_c, 9, 69, 64
11, 12768, Note_off_c, 9, 42, 17
11, 12836, Note_off_c, 9, 69, 17
11, 12840, Note_on_c, 9, 69, 64
11, 12956, Note_off_c, 9, 69, 17
11, 12960, Note_on_c, 9, 38, 120
11, 12960, Note_on_c, 9, 42, 80
11, 13008, Note_off_c, 9, 42, 17
11, 13008, Note_off_c, 9, 38, 17
11, 13200, Note_on_c, 9, 42, 80
11, 13248, Note_off_c, 9, 42, 17
11, 13440, Note_on_c, 9, 35, 120
11, 13440, Note_on_c, 9, 42, 80
11, 13488, Note_off_c, 9, 42, 17
11, 13488, Note_off_c, 9, 35, 17
11, 13680, Note_on_c, 9, 42, 80
11, 13728, Note_off_c, 9, 42, 17
11, 13800, Note_on_c, 9, 35, 120
11, 13848, Note_off_c, 9, 35, 17
11, 13920, Note_on_c, 9, 38, 120
11, 13920, Note_on_c, 9, 42, 80
11, 13968, Note_off_c, 9, 42, 17
11, 13968, Note_off_c, 9, 38, 17
11, 14160, Note_on_c, 9, 35, 120
11, 14160, Note_on_c, 9, 42, 80
11, 14208, Note_off_c, 9, 42, 17
11, 14208, Note_off_c, 9, 35, 17
11, 14400, Note_on_c, 9, 35, 120
11, 14400, Note_on_c, 9, 42, 80
11, 14448, Note_off_c, 9, 42, 17
11, 14448, Note_off_c, 9, 35, 17
11, 14640, Note_on_c, 9, 46, 120
11, 14688, Note_off_c, 9, 46, 17
11, 14880, Note_on_c, 9, 38, 120
11, 14880, Note_on_c, 9, 42, 120
11, 14928, Note_off_c, 9, 42, 17
11, 14928, Note_off_c, 9, 38, 17
11, 15120, Note_on_c, 9, 42, 80
11, 15168, Note_off_c, 9, 42, 17
11, 15360, Note_on_c, 9, 35, 120
11, 15360, Note_on_c, 9, 42, 80
11, 15408, Note_off_c, 9, 42, 17
11, 15408, Note_off_c, 9, 35, 17
11, 15600, Note_on_c, 9, 42, 80
11, 15648, Note_off_c, 9, 42, 17
11, 15720, Note_on_c, 9, 35, 120
11, 15768, Note_off_c, 9, 35, 17
11, 15840, Note_on_c, 9, 38, 120
11, 15840, Note_on_c, 9, 42, 80
11, 15888, Note_off_c, 9, 38, 17
11, 15888, Note_off_c, 9, 42, 17
11, 16080, Note_on_c, 9, 35, 120
11, 16080, Note_on_c, 9, 42, 80
11, 16128, Note_off_c, 9, 42, 17
11, 16128, Note_off_c, 9, 35, 17
11, 16320, Note_on_c, 9, 35, 120
11, 16320, Note_on_c, 9, 42, 80
11, 16368, Note_off_c, 9, 42, 17
11, 16368, Note_off_c, 9, 35, 17
11, 16560, Note_on_c, 9, 42, 80
11, 16560, Note_on_c, 9, 69, 64
11, 16608, Note_off_c, 9, 42, 17
11, 16676, Note_off_c, 9, 69, 17
11, 16680, Note_on_c, 9, 69, 64
11, 16796, Note_off_c, 9, 69, 17
11, 16800, Note_on_c, 9, 38, 120
11, 16800, Note_on_c, 9, 42, 80
11, 16848, Note_off_c, 9, 42, 17
11, 16848, Note_off_c, 9, 38, 17
11, 17040, Note_on_c, 9, 42, 80
11, 17088, Note_off_c, 9, 42, 17
11, 17280, Note_on_c, 9, 35, 120
11, 17280, Note_on_c, 9, 42, 80
11, 17328, Note_off_c, 9, 42, 17
11, 17328, Note_off_c, 9, 35, 17
11, 17520, Note_on_c, 9, 42, 80
11, 17568, Note_off_c, 9, 42, 17
11, 17640, Note_on_c, 9, 35, 120
11, 17688, Note_off_c, 9, 35, 17
11, 17760, Note_on_c, 9, 38, 120
11, 17760, Note_on_c, 9, 42, 80
11, 17808, Note_off_c, 9, 42, 17
11, 17808, Note_off_c, 9, 38, 17
11, 18000, Note_on_c, 9, 35, 120
11, 18000, Note_on_c, 9, 47, 106
11, 18030, Note_off_c, 9, 47, 17
11, 18048, Note_off_c, 9, 35, 17
11, 18120, Note_on_c, 9, 41, 99
11, 18150, Note_off_c, 9, 41, 17
11, 18240, Note_on_c, 9, 35, 120
11, 18240, Note_on_c, 9, 43, 111
11, 18270, Note_off_c, 9, 43, 17
11, 18288, Note_off_c, 9, 35, 17
11, 18360, Note_on_c, 9, 41, 111
11, 18390, Note_off_c, 9, 41, 17
11, 18480, Note_on_c, 9, 45, 111
11, 18480, Note_on_c, 9, 46, 120
11, 18510, Note_off_c, 9, 45, 17
11, 18528, Note_off_c, 9, 46, 17
11, 18600, Note_on_c, 9, 41, 122
11, 18630, Note_off_c, 9, 41, 17
11, 18720, Note_on_c, 9, 38, 120
11, 18720, Note_on_c, 9, 42, 120
11, 18768, Note_off_c, 9, 42, 17
11, 18768, Note_off_c, 9, 38, 17
11, 19200, Note_on_c, 9, 35, 120
11, 19200, Note_on_c, 9, 49, 98
11, 19248, Note_off_c, 9, 49, 17
11, 19248, Note_off_c, 9, 35, 17
11, 19440, Note_on_c, 9, 42, 80
11, 19488, Note_off_c, 9, 42, 17
11, 19560, Note_on_c, 9, 35, 120
11, 19608, Note_off_c, 9, 35, 17
11, 19680, Note_on_c, 9, 38, 120
11, 19680, Note_on_c, 9, 42, 80
11, 19728, Note_off_c, 9, 42, 17
11, 19728, Note_off_c, 9, 38, 17
11, 19920, Note_on_c, 9, 35, 120
11, 19920, Note_on_c, 9, 42, 80
11, 19968, Note_off_c, 9, 42, 17
11, 19968, Note_off_c, 9, 35, 17
11, 20160, Note_on_c, 9, 35, 120
11, 20160, Note_on_c, 9, 42, 80
11, 20208, Note_off_c, 9, 42, 17
11, 20208, Note_off_c, 9, 35, 17
11, 20400, Note_on_c, 9, 42, 80
11, 20400, Note_on_c, 9, 69, 64
11, 20448, Note_off_c, 9, 69, 17
11, 20448, Note_off_c, 9, 42, 17
11, 20520, Note_on_c, 9, 69, 64
11, 20568, Note_off_c, 9, 69, 17
11, 20640, Note_on_c, 9, 38, 120
11, 20640, Note_on_c, 9, 42, 80
11, 20688, Note_off_c, 9, 42, 17
11, 20688, Note_off_c, 9, 38, 17
11, 20880, Note_on_c, 9, 42, 80
11, 20928, Note_off_c, 9, 42, 17
11, 21120, Note_on_c, 9, 35, 120
11, 21120, Note_on_c, 9, 42, 80
11, 21168, Note_off_c, 9, 42, 17
11, 21168, Note_off_c, 9, 35, 17
11, 21360, Note_on_c, 9, 42, 80
11, 21408, Note_off_c, 9, 42, 17
11, 21480, Note_on_c, 9, 35, 120
11, 21528, Note_off_c, 9, 35, 17
11, 21600, Note_on_c, 9, 38, 120
11, 21600, Note_on_c, 9, 42, 80
11, 21648, Note_off_c, 9, 42, 17
11, 21648, Note_off_c, 9, 38, 17
11, 21840, Note_on_c, 9, 35, 120
11, 21840, Note_on_c, 9, 42, 80
11, 21888, Note_off_c, 9, 42, 17
11, 21888, Note_off_c, 9, 35, 17
11, 22080, Note_on_c, 9, 35, 120
11, 22080, Note_on_c, 9, 42, 80
11, 22128, Note_off_c, 9, 42, 17
11, 22128, Note_off_c, 9, 35, 17
11, 22320, Note_on_c, 9, 46, 120
11, 22368, Note_off_c, 9, 46, 17
11, 22560, Note_on_c, 9, 38, 120
11, 22560, Note_on_c, 9, 42, 120
11, 22608, Note_off_c, 9, 42, 17
11, 22608, Note_off_c, 9, 38, 17
11, 22800, Note_on_c, 9, 42, 80
11, 22848, Note_off_c, 9, 42, 17
11, 23040, Note_on_c, 9, 35, 120
11, 23040, Note_on_c, 9, 42, 80
11, 23088, Note_off_c, 9, 42, 17
11, 23088, Note_off_c, 9, 35, 17
11, 23280, Note_on_c, 9, 42, 80
11, 23328, Note_off_c, 9, 42, 17
11, 23400, Note_on_c, 9, 35, 120
11, 23448, Note_off_c, 9, 35, 17
11, 23520, Note_on_c, 9, 38, 120
11, 23520, Note_on_c, 9, 42, 80
11, 23568, Note_off_c, 9, 38, 17
11, 23568, Note_off_c, 9, 42, 17
11, 23760, Note_on_c, 9, 35, 120
11, 23760, Note_on_c, 9, 42, 80
11, 23808, Note_off_c, 9, 42, 17
11, 23808, Note_off_c, 9, 35, 17
11, 24000, Note_on_c, 9, 35, 120
11, 24000, Note_on_c, 9, 42, 80
11, 24048, Note_off_c, 9, 42, 17
11, 24048, Note_off_c, 9, 35, 17
11, 24240, Note_on_c, 9, 42, 80
11, 24240, Note_on_c, 9, 69, 64
11, 24288, Note_off_c, 9, 69, 17
11, 24288, Note_off_c, 9, 42, 17
11, 24360, Note_on_c, 9, 69, 64
11, 24408, Note_off_c, 9, 69, 17
11, 24480, Note_on_c, 9, 38, 120
11, 24480, Note_on_c, 9, 42, 80
11, 24528, Note_off_c, 9, 42, 17
11, 24528, Note_off_c, 9, 38, 17
11, 24720, Note_on_c, 9, 42, 80
11, 24768, Note_off_c, 9, 42, 17
11, 24960, Note_on_c, 9, 35, 120
11, 24960, Note_on_c, 9, 42, 80
11, 25008, Note_off_c, 9, 42, 17
11, 25008, Note_off_c, 9, 35, 17
11, 25200, Note_on_c, 9, 42, 80
11, 25248, Note_off_c, 9, 42, 17
11, 25320, Note_on_c, 9, 35, 120
11, 25368, Note_off_c, 9, 35, 17
11, 25440, Note_on_c, 9, 38, 120
11, 25440, Note_on_c, 9, 42, 80
11, 25488, Note_off_c, 9, 38, 17
11, 25488, Note_off_c, 9, 42, 17
11, 25680, Note_on_c, 9, 35, 120
11, 25680, Note_on_c, 9, 47, 106
11, 25710, Note_off_c, 9, 47, 17
11, 25728, Note_off_c, 9, 35, 17
11, 25800, Note_on_c, 9, 41, 99
11, 25830, Note_off_c, 9, 41, 17
11, 25920, Note_on_c, 9, 35, 120
11, 25920, Note_on_c, 9, 43, 111
11, 25950, Note_off_c, 9, 43, 17
11, 25968, Note_off_c, 9, 35, 17
11, 26040, Note_on_c, 9, 41, 111
11, 26070, Note_off_c, 9, 41, 17
11, 26160, Note_on_c, 9, 45, 111
11, 26160, Note_on_c, 9, 46, 120
11, 26190, Note_off_c, 9, 45, 17
11, 26208, Note_off_c, 9, 46, 17
11, 26280, Note_on_c, 9, 41, 122
11, 26310, Note_off_c, 9, 41, 17
11, 26400, Note_on_c, 9, 38, 120
11, 26400, Note_on_c, 9, 42, 120
11, 26448, Note_off_c, 9, 42, 17
11, 26448, Note_off_c, 9, 38, 17
11, 26880, Note_on_c, 9, 35, 120
11, 26880, Note_on_c, 9, 49, 98
11, 26928, Note_off_c, 9, 49, 17
11, 26928, Note_off_c, 9, 35, 17
11, 27120, Note_on_c, 9, 42, 80
11, 27168, Note_off_c, 9, 42, 17
11, 27240, Note_on_c, 9, 35, 120
11, 27288, Note_off_c, 9, 35, 17
11, 27360, Note_on_c, 9, 38, 120
11, 27360, Note_on_c, 9, 42, 80
11, 27408, Note_off_c, 9, 38, 17
11, 27408, Note_off_c, 9, 42, 17
11, 27600, Note_on_c, 9, 35, 120
11, 27600, Note_on_c, 9, 42, 80
11, 27648, Note_off_c, 9, 42, 17
11, 27648, Note_off_c, 9, 35, 17
11, 27840, Note_on_c, 9, 35, 120
11, 27840, Note_on_c, 9, 42, 80
11, 27888, Note_off_c, 9, 42, 17
11, 27888, Note_off_c, 9, 35, 17
11, 28080, Note_on_c, 9, 42, 80
11, 28080, Note_on_c, 9, 69, 64
11, 28128, Note_off_c, 9, 42, 17
11, 28128, Note_off_c, 9, 69, 17
11, 28200, Note_on_c, 9, 69, 64
11, 28248, Note_off_c, 9, 69, 17
11, 28320, Note_on_c, 9, 38, 120
11, 28320, Note_on_c, 9, 42, 80
11, 28368, Note_off_c, 9, 42, 17
11, 28368, Note_off_c, 9, 38, 17
11, 28560, Note_on_c, 9, 42, 80
11, 28608, Note_off_c, 9, 42, 17
11, 28800, Note_on_c, 9, 35, 120
11, 28800, Note_on_c, 9, 42, 80
11, 28848, Note_off_c, 9, 42, 17
11, 28848, Note_off_c, 9, 35, 17
11, 29040, Note_on_c, 9, 42, 80
11, 29088, Note_off_c, 9, 42, 17
11, 29160, Note_on_c, 9, 35, 120
11, 29208, Note_off_c, 9, 35, 17
11, 29280, Note_on_c, 9, 38, 120
11, 29280, Note_on_c, 9, 42, 80
11, 29328, Note_off_c, 9, 42, 17
11, 29328, Note_off_c, 9, 38, 17
11, 29520, Note_on_c, 9, 35, 120
11, 29520, Note_on_c, 9, 42, 80
11, 29568, Note_off_c, 9, 42, 17
11, 29568, Note_off_c, 9, 35, 17
11, 29760, Note_on_c, 9, 35, 120
11, 29760, Note_on_c, 9, 42, 80
11, 29808, Note_off_c, 9, 42, 17
11, 29808, Note_off_c, 9, 35, 17
11, 30000, Note_on_c, 9, 46, 120
11, 30048, Note_off_c, 9, 46, 17
11, 30240, Note_on_c, 9, 38, 120
11, 30240, Note_on_c, 9, 42, 120
11, 30288, Note_off_c, 9, 42, 17
11, 30288, Note_off_c, 9, 38, 17
11, 30480, Note_on_c, 9, 42, 80
11, 30528, Note_off_c, 9, 42, 17
11, 30720, Note_on_c, 9, 35, 120
11, 30720, Note_on_c, 9, 42, 80
11, 30768, Note_off_c, 9, 42, 17
11, 30768, Note_off_c, 9, 35, 17
11, 30960, Note_on_c, 9, 42, 80
11, 31008, Note_off_c, 9, 42, 17
11, 31080, Note_on_c, 9, 35, 120
11, 31128, Note_off_c, 9, 35, 17
11, 31200, Note_on_c, 9, 38, 120
11, 31200, Note_on_c, 9, 42, 80
11, 31248, Note_off_c, 9, 38, 17
11, 31248, Note_off_c, 9, 42, 17
11, 31440, Note_on_c, 9, 35, 120
11, 31440, Note_on_c, 9, 42, 80
11, 31488, Note_off_c, 9, 42, 17
11, 31488, Note_off_c, 9, 35, 17
11, 31680, Note_on_c, 9, 35, 120
11, 31680, Note_on_c, 9, 42, 80
11, 31728, Note_off_c, 9, 42, 17
11, 31728, Note_off_c, 9, 35, 17
11, 31920, Note_on_c, 9, 42, 80
11, 31920, Note_on_c, 9, 69, 64
11, 31968, Note_off_c, 9, 42, 17
11, 31968, Note_off_c, 9, 69, 17
11, 32040, Note_on_c, 9, 69, 64
11, 32088, Note_off_c, 9, 69, 17
11, 32160, Note_on_c, 9, 38, 120
11, 32160, Note_on_c, 9, 42, 80
11, 32208, Note_off_c, 9, 42, 17
11, 32208, Note_off_c, 9, 38, 17
11, 32400, Note_on_c, 9, 42, 80
11, 32448, Note_off_c, 9, 42, 17
11, 32640, Note_on_c, 9, 35, 120
11, 32640, Note_on_c, 9, 42, 80
11, 32688, Note_off_c, 9, 42, 17
11, 32688, Note_off_c, 9, 35, 17
11, 32880, Note_on_c, 9, 42, 80
11, 32928, Note_off_c, 9, 42, 17
11, 33000, Note_on_c, 9, 35, 120
11, 33048, Note_off_c, 9, 35, 17
11, 33120, Note_on_c, 9, 38, 120
11, 33120, Note_on_c, 9, 42, 80
11, 33168, Note_off_c, 9, 42, 17
11, 33168, Note_off_c, 9, 38, 17
11, 33360, Note_on_c, 9, 35, 120
11, 33360, Note_on_c, 9, 47, 106
11, 33390, Note_off_c, 9, 47, 17
11, 33408, Note_off_c, 9, 35, 17
11, 33480, Note_on_c, 9, 41, 99
11, 33510, Note_off_c, 9, 41, 17
11, 33600, Note_on_c, 9, 35, 120
11, 33600, Note_on_c, 9, 43, 111
11, 33630, Note_off_c, 9, 43, 17
11, 33648, Note_off_c, 9, 35, 17
11, 33720, Note_on_c, 9, 41, 111
11, 33750, Note_off_c, 9, 41, 17
11, 33840, Note_on_c, 9, 45, 111
11, 33840, Note_on_c, 9, 46, 120
11, 33870, Note_off_c, 9, 45, 17
11, 33888, Note_off_c, 9, 46, 17
11, 33960, Note_on_c, 9, 41, 122
11, 33990, Note_off_c, 9, 41, 17
11, 34080, Note_on_c, 9, 38, 120
11, 34080, Note_on_c, 9, 42, 120
11, 34128, Note_off_c, 9, 42, 17
11, 34128, Note_off_c, 9, 38, 17
11, 34560, Note_on_c, 9, 35, 120
11, 34560, Note_on_c, 9, 49, 98
11, 34608, Note_off_c, 9, 49, 17
11, 34608, Note_off_c, 9, 35, 17
11, 34800, Note_on_c, 9, 42, 80
11, 34848, Note_off_c, 9, 42, 17
11, 34920, Note_on_c, 9, 35, 120
11, 34968, Note_off_c, 9, 35, 17
11, 35040, Note_on_c, 9, 38, 120
11, 35040, Note_on_c, 9, 42, 80
11, 35088, Note_off_c, 9, 42, 17
11, 35088, Note_off_c, 9, 38, 17
11, 35280, Note_on_c, 9, 35, 120
11, 35280, Note_on_c, 9, 42, 80
11, 35328, Note_off_c, 9, 42, 17
11, 35328, Note_off_c, 9, 35, 17
11, 35520, Note_on_c, 9, 35, 120
11, 35520, Note_on_c, 9, 42, 80
11, 35568, Note_off_c, 9, 42, 17
11, 35568, Note_off_c, 9, 35, 17
11, 35760, Note_on_c, 9, 42, 80
11, 35760, Note_on_c, 9, 69, 64
11, 35808, Note_off_c, 9, 69, 17
11, 35808, Note_off_c, 9, 42, 17
11, 35880, Note_on_c, 9, 69, 64
11, 35928, Note_off_c, 9, 69, 17
11, 36000, Note_on_c, 9, 38, 120
11, 36000, Note_on_c, 9, 42, 80
11, 36048, Note_off_c, 9, 42, 17
11, 36048, Note_off_c, 9, 38, 17
11, 36240, Note_on_c, 9, 42, 80
11, 36288, Note_off_c, 9, 42, 17
11, 36480, Note_on_c, 9, 35, 120
11, 36480, Note_on_c, 9, 42, 80
11, 36528, Note_off_c, 9, 42, 17
11, 36528, Note_off_c, 9, 35, 17
11, 36720, Note_on_c, 9, 42, 80
11, 36768, Note_off_c, 9, 42, 17
11, 36840, Note_on_c, 9, 35, 120
11, 36888, Note_off_c, 9, 35, 17
11, 36960, Note_on_c, 9, 38, 120
11, 36960, Note_on_c, 9, 42, 80
11, 37008, Note_off_c, 9, 42, 17
11, 37008, Note_off_c, 9, 38, 17
11, 37200, Note_on_c, 9, 35, 120
11, 37200, Note_on_c, 9, 42, 80
11, 37248, Note_off_c, 9, 42, 17
11, 37248, Note_off_c, 9, 35, 17
11, 37440, Note_on_c, 9, 35, 120
11, 37440, Note_on_c, 9, 42, 80
11, 37488, Note_off_c, 9, 42, 17
11, 37488, Note_off_c, 9, 35, 17
11, 37680, Note_on_c, 9, 46, 120
11, 37728, Note_off_c, 9, 46, 17
11, 37920, Note_on_c, 9, 38, 120
11, 37920, Note_on_c, 9, 42, 120
11, 37968, Note_off_c, 9, 42, 17
11, 37968, Note_off_c, 9, 38, 17
11, 38160, Note_on_c, 9, 42, 80
11, 38208, Note_off_c, 9, 42, 17
11, 38400, Note_on_c, 9, 35, 120
11, 38400, Note_on_c, 9, 42, 80
11, 38448, Note_off_c, 9, 42, 17
11, 38448, Note_off_c, 9, 35, 17
11, 38640, Note_on_c, 9, 42, 80
11, 38688, Note_off_c, 9, 42, 17
11, 38760, Note_on_c, 9, 35, 120
11, 38808, Note_off_c, 9, 35, 17
11, 38880, Note_on_c, 9, 38, 120
11, 38880, Note_on_c, 9, 42, 80
11, 38928, Note_off_c, 9, 38, 17
11, 38928, Note_off_c, 9, 42, 17
11, 39120, Note_on_c, 9, 35, 120
11, 39120, Note_on_c, 9, 42, 80
11, 39168, Note_off_c, 9, 42, 17
11, 39168, Note_off_c, 9, 35, 17
11, 39360, Note_on_c, 9, 35, 120
11, 39360, Note_on_c, 9, 42, 80
11, 39408, Note_off_c, 9, 42, 17
11, 39408, Note_off_c, 9, 35, 17
11, 39600, Note_on_c, 9, 42, 80
11, 39600, Note_on_c, 9, 69, 64
11, 39648, Note_off_c, 9, 42, 17
11, 39648, Note_off_c, 9, 69, 17
11, 39720, Note_on_c, 9, 69, 64
11, 39768, Note_off_c, 9, 69, 17
11, 39840, Note_on_c, 9, 38, 120
11, 39840, Note_on_c, 9, 42, 80
11, 39888, Note_off_c, 9, 42, 17
11, 39888, Note_off_c, 9, 38, 17
11, 40080, Note_on_c, 9, 42, 80
11, 40128, Note_off_c, 9, 42, 17
11, 40320, Note_on_c, 9, 35, 120
11, 40320, Note_on_c, 9, 42, 80
11, 40368, Note_off_c, 9, 42, 17
11, 40368, Note_off_c, 9, 35, 17
11, 40560, Note_on_c, 9, 42, 80
11, 40608, Note_off_c, 9, 42, 17
11, 40680, Note_on_c, 9, 35, 120
11, 40728, Note_off_c, 9, 35, 17
11, 40800, Note_on_c, 9, 38, 120
11, 40800, Note_on_c, 9, 42, 80
11, 40848, Note_off_c, 9, 38, 17
11, 40848, Note_off_c, 9, 42, 17
11, 41040, Note_on_c, 9, 35, 120
11, 41040, Note_on_c, 9, 47, 106
11, 41070, Note_off_c, 9, 47, 17
11, 41088, Note_off_c, 9, 35, 17
11, 41160, Note_on_c, 9, 41, 99
11, 41190, Note_off_c, 9, 41, 17
11, 41280, Note_on_c, 9, 35, 120
11, 41280, Note_on_c, 9, 43, 111
11, 41310, Note_off_c, 9, 43, 17
11, 41328, Note_off_c, 9, 35, 17
11, 41400, Note_on_c, 9, 41, 111
11, 41430, Note_off_c, 9, 41, 17
11, 41520, Note_on_c, 9, 45, 111
11, 41520, Note_on_c, 9, 46, 120
11, 41550, Note_off_c, 9, 45, 17
11, 41568, Note_off_c, 9, 46, 17
11, 41640, Note_on_c, 9, 41, 122
11, 41670, Note_off_c, 9, 41, 17
11, 41760, Note_on_c, 9, 38, 120
11, 41760, Note_on_c, 9, 42, 120
11, 41808, Note_off_c, 9, 42, 17
11, 41808, Note_off_c, 9, 38, 17
11, 42240, Note_on_c, 9, 35, 120
11, 42240, Note_on_c, 9, 49, 80
11, 42288, Note_off_c, 9, 49, 17
11, 42288, Note_off_c, 9, 35, 17
11, 42480, Note_on_c, 9, 42, 80
11, 42528, Note_off_c, 9, 42, 17
11, 42600, Note_on_c, 9, 35, 120
11, 42648, Note_off_c, 9, 35, 17
11, 42720, Note_on_c, 9, 38, 120
11, 42720, Note_on_c, 9, 42, 80
11, 42768, Note_off_c, 9, 42, 17
11, 42768, Note_off_c, 9, 38, 17
11, 42960, Note_on_c, 9, 35, 120
11, 42960, Note_on_c, 9, 42, 80
11, 43008, Note_off_c, 9, 42, 17
11, 43008, Note_off_c, 9, 35, 17
11, 43200, Note_on_c, 9, 35, 120
11, 43200, Note_on_c, 9, 42, 80
11, 43248, Note_off_c, 9, 42, 17
11, 43248, Note_off_c, 9, 35, 17
11, 43440, Note_on_c, 9, 42, 80
11, 43440, Note_on_c, 9, 69, 64
11, 43488, Note_off_c, 9, 42, 17
11, 43488, Note_off_c, 9, 69, 17
11, 43560, Note_on_c, 9, 69, 64
11, 43608, Note_off_c, 9, 69, 17
11, 43680, Note_on_c, 9, 38, 120
11, 43680, Note_on_c, 9, 42, 80
11, 43728, Note_off_c, 9, 42, 17
11, 43728, Note_off_c, 9, 38, 17
11, 43920, Note_on_c, 9, 42, 80
11, 43968, Note_off_c, 9, 42, 17
11, 44160, Note_on_c, 9, 35, 120
11, 44160, Note_on_c, 9, 42, 80
11, 44208, Note_off_c, 9, 42, 17
11, 44208, Note_off_c, 9, 35, 17
11, 44400, Note_on_c, 9, 42, 80
11, 44448, Note_off_c, 9, 42, 17
11, 44520, Note_on_c, 9, 35, 120
11, 44568, Note_off_c, 9, 35, 17
11, 44640, Note_on_c, 9, 38, 120
11, 44640, Note_on_c, 9, 42, 80
11, 44688, Note_off_c, 9, 42, 17
11, 44688, Note_off_c, 9, 38, 17
11, 44880, Note_on_c, 9, 35, 120
11, 44880, Note_on_c, 9, 47, 106
11, 44910, Note_off_c, 9, 47, 17
11, 44928, Note_off_c, 9, 35, 17
11, 45000, Note_on_c, 9, 41, 99
11, 45030, Note_off_c, 9, 41, 17
11, 45120, Note_on_c, 9, 35, 120
11, 45120, Note_on_c, 9, 43, 111
11, 45150, Note_off_c, 9, 43, 17
11, 45168, Note_off_c, 9, 35, 17
11, 45240, Note_on_c, 9, 41, 111
11, 45270, Note_off_c, 9, 41, 17
11, 45360, Note_on_c, 9, 45, 111
11, 45360, Note_on_c, 9, 46, 120
11, 45390, Note_off_c, 9, 45, 17
11, 45408, Note_off_c, 9, 46, 17
11, 45480, Note_on_c, 9, 41, 122
11, 45510, Note_off_c, 9, 41, 17
11, 45600, Note_on_c, 9, 38, 120
11, 45600, Note_on_c, 9, 42, 120
11, 45648, Note_off_c, 9, 42, 17
11, 45648, Note_off_c, 9, 38, 17
11, 46080, Note_on_c, 9, 35, 127
11, 46080, Note_on_c, 9, 49, 109
11, 46080, Note_on_c, 9, 69, 51
11, 46128, Note_off_c, 9, 69, 17
11, 46128, Note_off_c, 9, 35, 17
11, 46128, Note_off_c, 9, 49, 17
11, 46200, Note_on_c, 9, 69, 51
11, 46248, Note_off_c, 9, 69, 17
11, 46320, Note_on_c, 9, 42, 91
11, 46320, Note_on_c, 9, 69, 51
11, 46368, Note_off_c, 9, 69, 17
11, 46368, Note_off_c, 9, 42, 17
11, 46440, Note_on_c, 9, 35, 127
11, 46440, Note_on_c, 9, 69, 51
11, 46488, Note_off_c, 9, 69, 17
11, 46488, Note_off_c, 9, 35, 17
11, 46560, Note_on_c, 9, 38, 127
11, 46560, Note_on_c, 9, 42, 91
11, 46560, Note_on_c, 9, 69, 51
11, 46608, Note_off_c, 9, 69, 17
11, 46608, Note_off_c, 9, 42, 17
11, 46608, Note_off_c, 9, 38, 17
11, 46680, Note_on_c, 9, 69, 51
11, 46728, Note_off_c, 9, 69, 17
11, 46800, Note_on_c, 9, 35, 127
11, 46800, Note_on_c, 9, 42, 91
11, 46800, Note_on_c, 9, 69, 51
11, 46848, Note_off_c, 9, 69, 17
11, 46848, Note_off_c, 9, 42, 17
11, 46848, Note_off_c, 9, 35, 17
11, 46920, Note_on_c, 9, 69, 51
11, 46968, Note_off_c, 9, 69, 17
11, 47040, Note_on_c, 9, 35, 127
11, 47040, Note_on_c, 9, 42, 91
11, 47040, Note_on_c, 9, 69, 51
11, 47088, Note_off_c, 9, 69, 17
11, 47088, Note_off_c, 9, 42, 17
11, 47088, Note_off_c, 9, 35, 17
11, 47160, Note_on_c, 9, 69, 51
11, 47208, Note_off_c, 9, 69, 17
11, 47280, Note_on_c, 9, 42, 91
11, 47280, Note_on_c, 9, 69, 51
11, 47328, Note_off_c, 9, 69, 17
11, 47328, Note_off_c, 9, 42, 17
11, 47400, Note_on_c, 9, 69, 51
11, 47448, Note_off_c, 9, 69, 17
11, 47520, Note_on_c, 9, 38, 127
11, 47520, Note_on_c, 9, 42, 91
11, 47520, Note_on_c, 9, 69, 51
11, 47568, Note_off_c, 9, 69, 17
11, 47568, Note_off_c, 9, 42, 17
11, 47568, Note_off_c, 9, 38, 17
11, 47640, Note_on_c, 9, 69, 51
11, 47688, Note_off_c, 9, 69, 17
11, 47760, Note_on_c, 9, 42, 91
11, 47760, Note_on_c, 9, 69, 51
11, 47808, Note_off_c, 9, 69, 17
11, 47808, Note_off_c, 9, 42, 17
11, 47880, Note_on_c, 9, 69, 51
11, 47928, Note_off_c, 9, 69, 17
11, 48000, Note_on_c, 9, 35, 127
11, 48000, Note_on_c, 9, 42, 91
11, 48000, Note_on_c, 9, 69, 51
11, 48048, Note_off_c, 9, 69, 17
11, 48048, Note_off_c, 9, 42, 17
11, 48048, Note_off_c, 9, 35, 17
11, 48120, Note_on_c, 9, 69, 51
11, 48168, Note_off_c, 9, 69, 17
11, 48240, Note_on_c, 9, 42, 91
11, 48240, Note_on_c, 9, 69, 51
11, 48288, Note_off_c, 9, 42, 17
11, 48288, Note_off_c, 9, 69, 17
11, 48360, Note_on_c, 9, 35, 127
11, 48360, Note_on_c, 9, 69, 51
11, 48408, Note_off_c, 9, 69, 17
11, 48408, Note_off_c, 9, 35, 17
11, 48480, Note_on_c, 9, 38, 127
11, 48480, Note_on_c, 9, 42, 91
11, 48480, Note_on_c, 9, 69, 51
11, 48528, Note_off_c, 9, 69, 17
11, 48528, Note_off_c, 9, 42, 17
11, 48528, Note_off_c, 9, 38, 17
11, 48600, Note_on_c, 9, 69, 51
11, 48648, Note_off_c, 9, 69, 17
11, 48720, Note_on_c, 9, 35, 127
11, 48720, Note_on_c, 9, 42, 91
11, 48720, Note_on_c, 9, 69, 51
11, 48768, Note_off_c, 9, 69, 17
11, 48768, Note_off_c, 9, 42, 17
11, 48768, Note_off_c, 9, 35, 17
11, 48840, Note_on_c, 9, 69, 51
11, 48888, Note_off_c, 9, 69, 17
11, 48960, Note_on_c, 9, 35, 127
11, 48960, Note_on_c, 9, 42, 91
11, 48960, Note_on_c, 9, 69, 51
11, 49008, Note_off_c, 9, 69, 17
11, 49008, Note_off_c, 9, 42, 17
11, 49008, Note_off_c, 9, 35, 17
11, 49080, Note_on_c, 9, 69, 51
11, 49128, Note_off_c, 9, 69, 17
11, 49200, Note_on_c, 9, 46, 127
11, 49200, Note_on_c, 9, 69, 51
11, 49248, Note_off_c, 9, 69, 17
11, 49248, Note_off_c, 9, 46, 17
11, 49320, Note_on_c, 9, 69, 51
11, 49368, Note_off_c, 9, 69, 17
11, 49440, Note_on_c, 9, 38, 127
11, 49440, Note_on_c, 9, 42, 127
11, 49440, Note_on_c, 9, 69, 51
11, 49488, Note_off_c, 9, 69, 17
11, 49488, Note_off_c, 9, 42, 17
11, 49488, Note_off_c, 9, 38, 17
11, 49560, Note_on_c, 9, 69, 51
11, 49608, Note_off_c, 9, 69, 17
11, 49680, Note_on_c, 9, 42, 91
11, 49680, Note_on_c, 9, 69, 51
11, 49728, Note_off_c, 9, 69, 17
11, 49728, Note_off_c, 9, 42, 17
11, 49800, Note_on_c, 9, 69, 51
11, 49848, Note_off_c, 9, 69, 17
11, 49920, Note_on_c, 9, 35, 127
11, 49920, Note_on_c, 9, 42, 91
11, 49920, Note_on_c, 9, 69, 51
11, 49968, Note_off_c, 9, 69, 17
11, 49968, Note_off_c, 9, 42, 17
11, 49968, Note_off_c, 9, 35, 17
11, 50040, Note_on_c, 9, 69, 51
11, 50088, Note_off_c, 9, 69, 17
11, 50160, Note_on_c, 9, 42, 91
11, 50160, Note_on_c, 9, 69, 51
11, 50208, Note_off_c, 9, 69, 17
11, 50208, Note_off_c, 9, 42, 17
11, 50280, Note_on_c, 9, 35, 127
11, 50280, Note_on_c, 9, 69, 51
11, 50328, Note_off_c, 9, 69, 17
11, 50328, Note_off_c, 9, 35, 17
11, 50400, Note_on_c, 9, 38, 127
11, 50400, Note_on_c, 9, 42, 91
11, 50400, Note_on_c, 9, 69, 51
11, 50448, Note_off_c, 9, 69, 17
11, 50448, Note_off_c, 9, 42, 17
11, 50448, Note_off_c, 9, 38, 17
11, 50520, Note_on_c, 9, 69, 51
11, 50568, Note_off_c, 9, 69, 17
11, 50640, Note_on_c, 9, 35, 127
11, 50640, Note_on_c, 9, 42, 91
11, 50640, Note_on_c, 9, 69, 51
11, 50688, Note_off_c, 9, 69, 17
11, 50688, Note_off_c, 9, 42, 17
11, 50688, Note_off_c, 9, 35, 17
11, 50760, Note_on_c, 9, 69, 51
11, 50808, Note_off_c, 9, 69, 17
11, 50880, Note_on_c, 9, 35, 127
11, 50880, Note_on_c, 9, 42, 91
11, 50880, Note_on_c, 9, 69, 51
11, 50928, Note_off_c, 9, 69, 17
11, 50928, Note_off_c, 9, 42, 17
11, 50928, Note_off_c, 9, 35, 17
11, 51000, Note_on_c, 9, 69, 51
11, 51048, Note_off_c, 9, 69, 17
11, 51120, Note_on_c, 9, 42, 91
11, 51120, Note_on_c, 9, 69, 51
11, 51168, Note_off_c, 9, 69, 17
11, 51168, Note_off_c, 9, 42, 17
11, 51240, Note_on_c, 9, 69, 51
11, 51288, Note_off_c, 9, 69, 17
11, 51360, Note_on_c, 9, 38, 127
11, 51360, Note_on_c, 9, 42, 91
11, 51360, Note_on_c, 9, 69, 51
11, 51408, Note_off_c, 9, 69, 17
11, 51408, Note_off_c, 9, 42, 17
11, 51408, Note_off_c, 9, 38, 17
11, 51480, Note_on_c, 9, 69, 51
11, 51528, Note_off_c, 9, 69, 17
11, 51600, Note_on_c, 9, 42, 91
11, 51600, Note_on_c, 9, 69, 51
11, 51648, Note_off_c, 9, 69, 17
11, 51648, Note_off_c, 9, 42, 17
11, 51720, Note_on_c, 9, 69, 51
11, 51768, Note_off_c, 9, 69, 17
11, 51840, Note_on_c, 9, 35, 127
11, 51840, Note_on_c, 9, 42, 91
11, 51840, Note_on_c, 9, 69, 51
11, 51888, Note_off_c, 9, 69, 17
11, 51888, Note_off_c, 9, 42, 17
11, 51888, Note_off_c, 9, 35, 17
11, 51960, Note_on_c, 9, 69, 51
11, 52008, Note_off_c, 9, 69, 17
11, 52080, Note_on_c, 9, 42, 91
11, 52080, Note_on_c, 9, 69, 51
11, 52128, Note_off_c, 9, 42, 17
11, 52128, Note_off_c, 9, 69, 17
11, 52200, Note_on_c, 9, 35, 127
11, 52200, Note_on_c, 9, 69, 51
11, 52248, Note_off_c, 9, 69, 17
11, 52248, Note_off_c, 9, 35, 17
11, 52320, Note_on_c, 9, 38, 127
11, 52320, Note_on_c, 9, 42, 91
11, 52320, Note_on_c, 9, 69, 51
11, 52368, Note_off_c, 9, 69, 17
11, 52368, Note_off_c, 9, 42, 17
11, 52368, Note_off_c, 9, 38, 17
11, 52440, Note_on_c, 9, 69, 51
11, 52488, Note_off_c, 9, 69, 17
11, 52560, Note_on_c, 9, 35, 127
11, 52560, Note_on_c, 9, 47, 117
11, 52560, Note_on_c, 9, 69, 51
11, 52590, Note_off_c, 9, 47, 17
11, 52608, Note_off_c, 9, 69, 17
11, 52608, Note_off_c, 9, 35, 17
11, 52680, Note_on_c, 9, 41, 110
11, 52680, Note_on_c, 9, 69, 51
11, 52710, Note_off_c, 9, 41, 17
11, 52728, Note_off_c, 9, 69, 17
11, 52800, Note_on_c, 9, 35, 127
11, 52800, Note_on_c, 9, 43, 122
11, 52800, Note_on_c, 9, 69, 51
11, 52830, Note_off_c, 9, 43, 17
11, 52848, Note_off_c, 9, 69, 17
11, 52848, Note_off_c, 9, 35, 17
11, 52920, Note_on_c, 9, 41, 122
11, 52920, Note_on_c, 9, 69, 51
11, 52950, Note_off_c, 9, 41, 17
11, 52968, Note_off_c, 9, 69, 17
11, 53040, Note_on_c, 9, 45, 122
11, 53040, Note_on_c, 9, 46, 127
11, 53040, Note_on_c, 9, 69, 51
11, 53070, Note_off_c, 9, 45, 17
11, 53088, Note_off_c, 9, 46, 17
11, 53088, Note_off_c, 9, 69, 17
11, 53160, Note_on_c, 9, 41, 127
11, 53160, Note_on_c, 9, 69, 51
11, 53190, Note_off_c, 9, 41, 17
11, 53208, Note_off_c, 9, 69, 17
11, 53280, Note_on_c, 9, 38, 127
11, 53280, Note_on_c, 9, 42, 127
11, 53280, Note_on_c, 9, 69, 51
11, 53328, Note_off_c, 9, 69, 17
11, 53328, Note_off_c, 9, 42, 17
11, 53328, Note_off_c, 9, 38, 17
11, 53400, Note_on_c, 9, 69, 51
11, 53448, Note_off_c, 9, 69, 17
11, 53520, Note_on_c, 9, 69, 51
11, 53568, Note_off_c, 9, 69, 17
11, 53640, Note_on_c, 9, 69, 51
11, 53688, Note_off_c, 9, 69, 17
11, 53760, Note_on_c, 9, 35, 127
11, 53760, Note_on_c, 9, 49, 109
11, 53760, Note_on_c, 9, 69, 51
11, 53808, Note_off_c, 9, 69, 17
11, 53808, Note_off_c, 9, 49, 17
11, 53808, Note_off_c, 9, 35, 17
11, 53880, Note_on_c, 9, 69, 51
11, 53928, Note_off_c, 9, 69, 17
11, 54000, Note_on_c, 9, 42, 91
11, 54000, Note_on_c, 9, 69, 51
11, 54048, Note_off_c, 9, 42, 17
11, 54048, Note_off_c, 9, 69, 17
11, 54120, Note_on_c, 9, 35, 127
11, 54120, Note_on_c, 9, 69, 51
11, 54168, Note_off_c, 9, 69, 17
11, 54168, Note_off_c, 9, 35, 17
11, 54240, Note_on_c, 9, 38, 127
11, 54240, Note_on_c, 9, 42, 91
11, 54240, Note_on_c, 9, 69, 51
11, 54288, Note_off_c, 9, 69, 17
11, 54288, Note_off_c, 9, 42, 17
11, 54288, Note_off_c, 9, 38, 17
11, 54360, Note_on_c, 9, 69, 51
11, 54408, Note_off_c, 9, 69, 17
11, 54480, Note_on_c, 9, 35, 127
11, 54480, Note_on_c, 9, 42, 91
11, 54480, Note_on_c, 9, 69, 51
11, 54528, Note_off_c, 9, 69, 17
11, 54528, Note_off_c, 9, 42, 17
11, 54528, Note_off_c, 9, 35, 17
11, 54600, Note_on_c, 9, 69, 51
11, 54648, Note_off_c, 9, 69, 17
11, 54720, Note_on_c, 9, 35, 127
11, 54720, Note_on_c, 9, 42, 91
11, 54720, Note_on_c, 9, 69, 51
11, 54768, Note_off_c, 9, 69, 17
11, 54768, Note_off_c, 9, 42, 17
11, 54768, Note_off_c, 9, 35, 17
11, 54840, Note_on_c, 9, 69, 51
11, 54888, Note_off_c, 9, 69, 17
11, 54960, Note_on_c, 9, 42, 91
11, 54960, Note_on_c, 9, 69, 51
11, 55008, Note_off_c, 9, 69, 17
11, 55008, Note_off_c, 9, 42, 17
11, 55080, Note_on_c, 9, 69, 51
11, 55128, Note_off_c, 9, 69, 17
11, 55200, Note_on_c, 9, 38, 127
11, 55200, Note_on_c, 9, 42, 91
11, 55200, Note_on_c, 9, 69, 51
11, 55248, Note_off_c, 9, 38, 17
11, 55248, Note_off_c, 9, 69, 17
11, 55248, Note_off_c, 9, 42, 17
11, 55320, Note_on_c, 9, 69, 51
11, 55368, Note_off_c, 9, 69, 17
11, 55440, Note_on_c, 9, 42, 91
11, 55440, Note_on_c, 9, 69, 51
11, 55488, Note_off_c, 9, 69, 17
11, 55488, Note_off_c, 9, 42, 17
11, 55560, Note_on_c, 9, 69, 51
11, 55608, Note_off_c, 9, 69, 17
11, 55680, Note_on_c, 9, 35, 127
11, 55680, Note_on_c, 9, 42, 91
11, 55680, Note_on_c, 9, 69, 51
11, 55728, Note_off_c, 9, 35, 17
11, 55728, Note_off_c, 9, 69, 17
11, 55728, Note_off_c, 9, 42, 17
11, 55800, Note_on_c, 9, 69, 51
11, 55848, Note_off_c, 9, 69, 17
11, 55920, Note_on_c, 9, 42, 91
11, 55920, Note_on_c, 9, 69, 51
11, 55968, Note_off_c, 9, 42, 17
11, 55968, Note_off_c, 9, 69, 17
11, 56040, Note_on_c, 9, 35, 127
11, 56040, Note_on_c, 9, 69, 51
11, 56088, Note_off_c, 9, 69, 17
11, 56088, Note_off_c, 9, 35, 17
11, 56160, Note_on_c, 9, 38, 127
11, 56160, Note_on_c, 9, 42, 91
11, 56160, Note_on_c, 9, 69, 51
11, 56208, Note_off_c, 9, 69, 17
11, 56208, Note_off_c, 9, 42, 17
11, 56208, Note_off_c, 9, 38, 17
11, 56280, Note_on_c, 9, 69, 51
11, 56328, Note_off_c, 9, 69, 17
11, 56400, Note_on_c, 9, 35, 127
11, 56400, Note_on_c, 9, 42, 91
11, 56400, Note_on_c, 9, 69, 51
11, 56448, Note_off_c, 9, 69, 17
11, 56448, Note_off_c, 9, 42, 17
11, 56448, Note_off_c, 9, 35, 17
11, 56520, Note_on_c, 9, 69, 51
11, 56568, Note_off_c, 9, 69, 17
11, 56640, Note_on_c, 9, 35, 127
11, 56640, Note_on_c, 9, 42, 91
11, 56640, Note_on_c, 9, 69, 51
11, 56688, Note_off_c, 9, 69, 17
11, 56688, Note_off_c, 9, 42, 17
11, 56688, Note_off_c, 9, 35, 17
11, 56760, Note_on_c, 9, 69, 51
11, 56808, Note_off_c, 9, 69, 17
11, 56880, Note_on_c, 9, 46, 127
11, 56880, Note_on_c, 9, 69, 51
11, 56928, Note_off_c, 9, 69, 17
11, 56928, Note_off_c, 9, 46, 17
11, 57000, Note_on_c, 9, 69, 51
11, 57048, Note_off_c, 9, 69, 17
11, 57120, Note_on_c, 9, 38, 127
11, 57120, Note_on_c, 9, 42, 127
11, 57120, Note_on_c, 9, 69, 51
11, 57168, Note_off_c, 9, 69, 17
11, 57168, Note_off_c, 9, 42, 17
11, 57168, Note_off_c, 9, 38, 17
11, 57240, Note_on_c, 9, 69, 51
11, 57288, Note_off_c, 9, 69, 17
11, 57360, Note_on_c, 9, 42, 91
11, 57360, Note_on_c, 9, 69, 51
11, 57408, Note_off_c, 9, 69, 17
11, 57408, Note_off_c, 9, 42, 17
11, 57480, Note_on_c, 9, 69, 51
11, 57528, Note_off_c, 9, 69, 17
11, 57600, Note_on_c, 9, 35, 127
11, 57600, Note_on_c, 9, 42, 91
11, 57600, Note_on_c, 9, 69, 51
11, 57648, Note_off_c, 9, 69, 17
11, 57648, Note_off_c, 9, 42, 17
11, 57648, Note_off_c, 9, 35, 17
11, 57720, Note_on_c, 9, 69, 51
11, 57768, Note_off_c, 9, 69, 17
11, 57840, Note_on_c, 9, 42, 91
11, 57840, Note_on_c, 9, 69, 51
11, 57888, Note_off_c, 9, 42, 17
11, 57888, Note_off_c, 9, 69, 17
11, 57960, Note_on_c, 9, 35, 127
11, 57960, Note_on_c, 9, 69, 51
11, 58008, Note_off_c, 9, 69, 17
11, 58008, Note_off_c, 9, 35, 17
11, 58080, Note_on_c, 9, 38, 127
11, 58080, Note_on_c, 9, 42, 91
11, 58080, Note_on_c, 9, 69, 51
11, 58128, Note_off_c, 9, 69, 17
11, 58128, Note_off_c, 9, 42, 17
11, 58128, Note_off_c, 9, 38, 17
11, 58200, Note_on_c, 9, 69, 51
11, 58248, Note_off_c, 9, 69, 17
11, 58320, Note_on_c, 9, 35, 127
11, 58320, Note_on_c, 9, 42, 91
11, 58320, Note_on_c, 9, 69, 51
11, 58368, Note_off_c, 9, 69, 17
11, 58368, Note_off_c, 9, 42, 17
11, 58368, Note_off_c, 9, 35, 17
11, 58440, Note_on_c, 9, 69, 51
11, 58488, Note_off_c, 9, 69, 17
11, 58560, Note_on_c, 9, 35, 127
11, 58560, Note_on_c, 9, 42, 91
11, 58560, Note_on_c, 9, 69, 51
11, 58608, Note_off_c, 9, 69, 17
11, 58608, Note_off_c, 9, 42, 17
11, 58608, Note_off_c, 9, 35, 17
11, 58680, Note_on_c, 9, 69, 51
11, 58728, Note_off_c, 9, 69, 17
11, 58800, Note_on_c, 9, 42, 91
11, 58800, Note_on_c, 9, 69, 51
11, 58848, Note_off_c, 9, 69, 17
11, 58848, Note_off_c, 9, 42, 17
11, 58920, Note_on_c, 9, 69, 51
11, 58968, Note_off_c, 9, 69, 17
11, 59040, Note_on_c, 9, 38, 127
11, 59040, Note_on_c, 9, 42, 91
11, 59040, Note_on_c, 9, 69, 51
11, 59088, Note_off_c, 9, 69, 17
11, 59088, Note_off_c, 9, 42, 17
11, 59088, Note_off_c, 9, 38, 17
11, 59160, Note_on_c, 9, 69, 51
11, 59208, Note_off_c, 9, 69, 17
11, 59280, Note_on_c, 9, 42, 91
11, 59280, Note_on_c, 9, 69, 51
11, 59328, Note_off_c, 9, 69, 17
11, 59328, Note_off_c, 9, 42, 17
11, 59400, Note_on_c, 9, 69, 51
11, 59448, Note_off_c, 9, 69, 17
11, 59520, Note_on_c, 9, 35, 127
11, 59520, Note_on_c, 9, 42, 91
11, 59520, Note_on_c, 9, 69, 51
11, 59568, Note_off_c, 9, 69, 17
11, 59568, Note_off_c, 9, 42, 17
11, 59568, Note_off_c, 9, 35, 17
11, 59640, Note_on_c, 9, 69, 51
11, 59688, Note_off_c, 9, 69, 17
11, 59760, Note_on_c, 9, 42, 91
11, 59760, Note_on_c, 9, 69, 51
11, 59808, Note_off_c, 9, 42, 17
11, 59808, Note_off_c, 9, 69, 17
11, 59880, Note_on_c, 9, 35, 127
11, 59880, Note_on_c, 9, 69, 51
11, 59928, Note_off_c, 9, 69, 17
11, 59928, Note_off_c, 9, 35, 17
11, 60000, Note_on_c, 9, 38, 127
11, 60000, Note_on_c, 9, 42, 91
11, 60000, Note_on_c, 9, 69, 51
11, 60048, Note_off_c, 9, 69, 17
11, 60048, Note_off_c, 9, 42, 17
11, 60048, Note_off_c, 9, 38, 17
11, 60120, Note_on_c, 9, 69, 51
11, 60168, Note_off_c, 9, 69, 17
11, 60240, Note_on_c, 9, 35, 127
11, 60240, Note_on_c, 9, 47, 117
11, 60240, Note_on_c, 9, 69, 51
11, 60270, Note_off_c, 9, 47, 17
11, 60288, Note_off_c, 9, 69, 17
11, 60288, Note_off_c, 9, 35, 17
11, 60360, Note_on_c, 9, 41, 110
11, 60360, Note_on_c, 9, 69, 51
11, 60390, Note_off_c, 9, 41, 17
11, 60408, Note_off_c, 9, 69, 17
11, 60480, Note_on_c, 9, 35, 127
11, 60480, Note_on_c, 9, 43, 122
11, 60480, Note_on_c, 9, 69, 51
11, 60510, Note_off_c, 9, 43, 17
11, 60528, Note_off_c, 9, 69, 17
11, 60528, Note_off_c, 9, 35, 17
11, 60600, Note_on_c, 9, 41, 122
11, 60600, Note_on_c, 9, 69, 51
11, 60630, Note_off_c, 9, 41, 17
11, 60648, Note_off_c, 9, 69, 17
11, 60720, Note_on_c, 9, 45, 122
11, 60720, Note_on_c, 9, 46, 127
11, 60720, Note_on_c, 9, 69, 51
11, 60750, Note_off_c, 9, 45, 17
11, 60768, Note_off_c, 9, 46, 17
11, 60768, Note_off_c, 9, 69, 17
11, 60840, Note_on_c, 9, 41, 127
11, 60840, Note_on_c, 9, 69, 51
11, 60870, Note_off_c, 9, 41, 17
11, 60888, Note_off_c, 9, 69, 17
11, 60960, Note_on_c, 9, 38, 127
11, 60960, Note_on_c, 9, 42, 127
11, 60960, Note_on_c, 9, 69, 51
11, 61008, Note_off_c, 9, 69, 17
11, 61008, Note_off_c, 9, 42, 17
11, 61008, Note_off_c, 9, 38, 17
11, 61080, Note_on_c, 9, 69, 51
11, 61128, Note_off_c, 9, 69, 17
11, 61200, Note_on_c, 9, 69, 51
11, 61248, Note_off_c, 9, 69, 17
11, 61320, Note_on_c, 9, 69, 51
11, 61368, Note_off_c, 9, 69, 17
11, 61440, Note_on_c, 9, 35, 127
11, 61440, Note_on_c, 9, 49, 109
11, 61440, Note_on_c, 9, 69, 51
11, 61488, Note_off_c, 9, 35, 17
11, 61488, Note_off_c, 9, 69, 17
11, 61488, Note_off_c, 9, 49, 17
11, 61560, Note_on_c, 9, 69, 51
11, 61608, Note_off_c, 9, 69, 17
11, 61680, Note_on_c, 9, 42, 91
11, 61680, Note_on_c, 9, 69, 51
11, 61728, Note_off_c, 9, 69, 17
11, 61728, Note_off_c, 9, 42, 17
11, 61800, Note_on_c, 9, 35, 127
11, 61800, Note_on_c, 9, 69, 51
11, 61848, Note_off_c, 9, 69, 17
11, 61848, Note_off_c, 9, 35, 17
11, 61920, Note_on_c, 9, 38, 127
11, 61920, Note_on_c, 9, 42, 91
11, 61920, Note_on_c, 9, 69, 51
11, 61968, Note_off_c, 9, 69, 17
11, 61968, Note_off_c, 9, 42, 17
11, 61968, Note_off_c, 9, 38, 17
11, 62040, Note_on_c, 9, 69, 51
11, 62088, Note_off_c, 9, 69, 17
11, 62160, Note_on_c, 9, 35, 127
11, 62160, Note_on_c, 9, 42, 91
11, 62160, Note_on_c, 9, 69, 51
11, 62208, Note_off_c, 9, 69, 17
11, 62208, Note_off_c, 9, 42, 17
11, 62208, Note_off_c, 9, 35, 17
11, 62280, Note_on_c, 9, 69, 51
11, 62328, Note_off_c, 9, 69, 17
11, 62400, Note_on_c, 9, 35, 127
11, 62400, Note_on_c, 9, 42, 91
11, 62400, Note_on_c, 9, 69, 51
11, 62448, Note_off_c, 9, 69, 17
11, 62448, Note_off_c, 9, 42, 17
11, 62448, Note_off_c, 9, 35, 17
11, 62520, Note_on_c, 9, 69, 51
11, 62568, Note_off_c, 9, 69, 17
11, 62640, Note_on_c, 9, 42, 91
11, 62640, Note_on_c, 9, 69, 51
11, 62688, Note_off_c, 9, 69, 17
11, 62688, Note_off_c, 9, 42, 17
11, 62760, Note_on_c, 9, 69, 51
11, 62808, Note_off_c, 9, 69, 17
11, 62880, Note_on_c, 9, 38, 127
11, 62880, Note_on_c, 9, 42, 91
11, 62880, Note_on_c, 9, 69, 51
11, 62928, Note_off_c, 9, 69, 17
11, 62928, Note_off_c, 9, 42, 17
11, 62928, Note_off_c, 9, 38, 17
11, 63000, Note_on_c, 9, 69, 51
11, 63048, Note_off_c, 9, 69, 17
11, 63120, Note_on_c, 9, 42, 91
11, 63120, Note_on_c, 9, 69, 51
11, 63168, Note_off_c, 9, 42, 17
11, 63168, Note_off_c, 9, 69, 17
11, 63240, Note_on_c, 9, 69, 51
11, 63288, Note_off_c, 9, 69, 17
11, 63360, Note_on_c, 9, 35, 127
11, 63360, Note_on_c, 9, 42, 91
11, 63360, Note_on_c, 9, 69, 51
11, 63408, Note_off_c, 9, 69, 17
11, 63408, Note_off_c, 9, 42, 17
11, 63408, Note_off_c, 9, 35, 17
11, 63480, Note_on_c, 9, 69, 51
11, 63528, Note_off_c, 9, 69, 17
11, 63600, Note_on_c, 9, 42, 91
11, 63600, Note_on_c, 9, 69, 51
11, 63648, Note_off_c, 9, 42, 17
11, 63648, Note_off_c, 9, 69, 17
11, 63720, Note_on_c, 9, 35, 127
11, 63720, Note_on_c, 9, 69, 51
11, 63768, Note_off_c, 9, 69, 17
11, 63768, Note_off_c, 9, 35, 17
11, 63840, Note_on_c, 9, 38, 127
11, 63840, Note_on_c, 9, 42, 91
11, 63840, Note_on_c, 9, 69, 51
11, 63888, Note_off_c, 9, 69, 17
11, 63888, Note_off_c, 9, 42, 17
11, 63888, Note_off_c, 9, 38, 17
11, 63960, Note_on_c, 9, 69, 51
11, 64008, Note_off_c, 9, 69, 17
11, 64080, Note_on_c, 9, 35, 127
11, 64080, Note_on_c, 9, 42, 91
11, 64080, Note_on_c, 9, 69, 51
11, 64128, Note_off_c, 9, 69, 17
11, 64128, Note_off_c, 9, 42, 17
11, 64128, Note_off_c, 9, 35, 17
11, 64200, Note_on_c, 9, 69, 51
11, 64248, Note_off_c, 9, 69, 17
11, 64320, Note_on_c, 9, 35, 127
11, 64320, Note_on_c, 9, 42, 91
11, 64320, Note_on_c, 9, 69, 51
11, 64368, Note_off_c, 9, 69, 17
11, 64368, Note_off_c, 9, 42, 17
11, 64368, Note_off_c, 9, 35, 17
11, 64440, Note_on_c, 9, 69, 51
11, 64488, Note_off_c, 9, 69, 17
11, 64560, Note_on_c, 9, 46, 127
11, 64560, Note_on_c, 9, 69, 51
11, 64608, Note_off_c, 9, 69, 17
11, 64608, Note_off_c, 9, 46, 17
11, 64680, Note_on_c, 9, 69, 51
11, 64728, Note_off_c, 9, 69, 17
11, 64800, Note_on_c, 9, 38, 127
11, 64800, Note_on_c, 9, 42, 127
11, 64800, Note_on_c, 9, 69, 51
11, 64848, Note_off_c, 9, 69, 17
11, 64848, Note_off_c, 9, 42, 17
11, 64848, Note_off_c, 9, 38, 17
11, 64920, Note_on_c, 9, 69, 51
11, 64968, Note_off_c, 9, 69, 17
11, 65040, Note_on_c, 9, 42, 91
11, 65040, Note_on_c, 9, 69, 51
11, 65088, Note_off_c, 9, 42, 17
11, 65088, Note_off_c, 9, 69, 17
11, 65160, Note_on_c, 9, 69, 51
11, 65208, Note_off_c, 9, 69, 17
11, 65280, Note_on_c, 9, 35, 127
11, 65280, Note_on_c, 9, 42, 91
11, 65280, Note_on_c, 9, 69, 51
11, 65328, Note_off_c, 9, 42, 17
11, 65328, Note_off_c, 9, 35, 17
11, 65328, Note_off_c, 9, 69, 17
11, 65400, Note_on_c, 9, 69, 51
11, 65448, Note_off_c, 9, 69, 17
11, 65520, Note_on_c, 9, 42, 91
11, 65520, Note_on_c, 9, 69, 51
11, 65568, Note_off_c, 9, 69, 17
11, 65568, Note_off_c, 9, 42, 17
11, 65640, Note_on_c, 9, 35, 127
11, 65640, Note_on_c, 9, 69, 51
11, 65688, Note_off_c, 9, 69, 17
11, 65688, Note_off_c, 9, 35, 17
11, 65760, Note_on_c, 9, 38, 127
11, 65760, Note_on_c, 9, 42, 91
11, 65760, Note_on_c, 9, 69, 51
11, 65808, Note_off_c, 9, 69, 17
11, 65808, Note_off_c, 9, 42, 17
11, 65808, Note_off_c, 9, 38, 17
11, 65880, Note_on_c, 9, 69, 51
11, 65928, Note_off_c, 9, 69, 17
11, 66000, Note_on_c, 9, 35, 127
11, 66000, Note_on_c, 9, 42, 91
11, 66000, Note_on_c, 9, 69, 51
11, 66048, Note_off_c, 9, 69, 17
11, 66048, Note_off_c, 9, 42, 17
11, 66048, Note_off_c, 9, 35, 17
11, 66120, Note_on_c, 9, 69, 51
11, 66168, Note_off_c, 9, 69, 17
11, 66240, Note_on_c, 9, 35, 127
11, 66240, Note_on_c, 9, 42, 91
11, 66240, Note_on_c, 9, 69, 51
11, 66288, Note_off_c, 9, 69, 17
11, 66288, Note_off_c, 9, 42, 17
11, 66288, Note_off_c, 9, 35, 17
11, 66360, Note_on_c, 9, 69, 51
11, 66408, Note_off_c, 9, 69, 17
11, 66480, Note_on_c, 9, 42, 91
11, 66480, Note_on_c, 9, 69, 51
11, 66528, Note_off_c, 9, 69, 17
11, 66528, Note_off_c, 9, 42, 17
11, 66600, Note_on_c, 9, 69, 51
11, 66648, Note_off_c, 9, 69, 17
11, 66720, Note_on_c, 9, 38, 127
11, 66720, Note_on_c, 9, 42, 91
11, 66720, Note_on_c, 9, 69, 51
11, 66768, Note_off_c, 9, 69, 17
11, 66768, Note_off_c, 9, 42, 17
11, 66768, Note_off_c, 9, 38, 17
11, 66840, Note_on_c, 9, 69, 51
11, 66888, Note_off_c, 9, 69, 17
11, 66960, Note_on_c, 9, 42, 91
11, 66960, Note_on_c, 9, 69, 51
11, 67008, Note_off_c, 9, 42, 17
11, 67008, Note_off_c, 9, 69, 17
11, 67080, Note_on_c, 9, 69, 51
11, 67128, Note_off_c, 9, 69, 17
11, 67200, Note_on_c, 9, 35, 127
11, 67200, Note_on_c, 9, 42, 91
11, 67200, Note_on_c, 9, 69, 51
11, 67248, Note_off_c, 9, 69, 17
11, 67248, Note_off_c, 9, 42, 17
11, 67248, Note_off_c, 9, 35, 17
11, 67320, Note_on_c, 9, 69, 51
11, 67368, Note_off_c, 9, 69, 17
11, 67440, Note_on_c, 9, 42, 91
11, 67440, Note_on_c, 9, 69, 51
11, 67488, Note_off_c, 9, 69, 17
11, 67488, Note_off_c, 9, 42, 17
11, 67560, Note_on_c, 9, 35, 127
11, 67560, Note_on_c, 9, 69, 51
11, 67608, Note_off_c, 9, 69, 17
11, 67608, Note_off_c, 9, 35, 17
11, 67680, Note_on_c, 9, 38, 127
11, 67680, Note_on_c, 9, 42, 91
11, 67680, Note_on_c, 9, 69, 51
11, 67728, Note_off_c, 9, 69, 17
11, 67728, Note_off_c, 9, 42, 17
11, 67728, Note_off_c, 9, 38, 17
11, 67800, Note_on_c, 9, 69, 51
11, 67848, Note_off_c, 9, 69, 17
11, 67920, Note_on_c, 9, 35, 127
11, 67920, Note_on_c, 9, 47, 117
11, 67920, Note_on_c, 9, 69, 51
11, 67950, Note_off_c, 9, 47, 17
11, 67968, Note_off_c, 9, 69, 17
11, 67968, Note_off_c, 9, 35, 17
11, 68040, Note_on_c, 9, 41, 110
11, 68040, Note_on_c, 9, 69, 51
11, 68070, Note_off_c, 9, 41, 17
11, 68088, Note_off_c, 9, 69, 17
11, 68160, Note_on_c, 9, 35, 127
11, 68160, Note_on_c, 9, 43, 122
11, 68160, Note_on_c, 9, 69, 51
11, 68190, Note_off_c, 9, 43, 17
11, 68208, Note_off_c, 9, 69, 17
11, 68208, Note_off_c, 9, 35, 17
11, 68280, Note_on_c, 9, 41, 122
11, 68280, Note_on_c, 9, 69, 51
11, 68310, Note_off_c, 9, 41, 17
11, 68328, Note_off_c, 9, 69, 17
11, 68400, Note_on_c, 9, 45, 122
11, 68400, Note_on_c, 9, 46, 127
11, 68400, Note_on_c, 9, 69, 51
11, 68430, Note_off_c, 9, 45, 17
11, 68448, Note_off_c, 9, 69, 17
11, 68448, Note_off_c, 9, 46, 17
11, 68520, Note_on_c, 9, 41, 127
11, 68520, Note_on_c, 9, 69, 51
11, 68550, Note_off_c, 9, 41, 17
11, 68568, Note_off_c, 9, 69, 17
11, 68640, Note_on_c, 9, 38, 127
11, 68640, Note_on_c, 9, 42, 127
11, 68640, Note_on_c, 9, 69, 51
11, 68688, Note_off_c, 9, 69, 17
11, 68688, Note_off_c, 9, 38, 17
11, 68688, Note_off_c, 9, 42, 17
11, 68760, Note_on_c, 9, 69, 51
11, 68808, Note_off_c, 9, 69, 17
11, 68880, Note_on_c, 9, 69, 51
11, 68928, Note_off_c, 9, 69, 17
11, 69000, Note_on_c, 9, 69, 51
11, 69048, Note_off_c, 9, 69, 17
11, 69120, Note_on_c, 9, 35, 127
11, 69120, Note_on_c, 9, 49, 109
11, 69120, Note_on_c, 9, 69, 51
11, 69168, Note_off_c, 9, 49, 17
11, 69168, Note_off_c, 9, 35, 17
11, 69168, Note_off_c, 9, 69, 17
11, 69240, Note_on_c, 9, 69, 51
11, 69288, Note_off_c, 9, 69, 17
11, 69360, Note_on_c, 9, 42, 91
11, 69360, Note_on_c, 9, 69, 51
11, 69408, Note_off_c, 9, 42, 17
11, 69408, Note_off_c, 9, 69, 17
11, 69480, Note_on_c, 9, 35, 127
11, 69480, Note_on_c, 9, 69, 51
11, 69528, Note_off_c, 9, 69, 17
11, 69528, Note_off_c, 9, 35, 17
11, 69600, Note_on_c, 9, 38, 127
11, 69600, Note_on_c, 9, 42, 91
11, 69600, Note_on_c, 9, 69, 51
11, 69648, Note_off_c, 9, 69, 17
11, 69648, Note_off_c, 9, 42, 17
11, 69648, Note_off_c, 9, 38, 17
11, 69720, Note_on_c, 9, 69, 51
11, 69768, Note_off_c, 9, 69, 17
11, 69840, Note_on_c, 9, 35, 127
11, 69840, Note_on_c, 9, 42, 91
11, 69840, Note_on_c, 9, 69, 51
11, 69888, Note_off_c, 9, 69, 17
11, 69888, Note_off_c, 9, 35, 17
11, 69888, Note_off_c, 9, 42, 17
11, 69960, Note_on_c, 9, 69, 51
11, 70008, Note_off_c, 9, 69, 17
11, 70080, Note_on_c, 9, 35, 127
11, 70080, Note_on_c, 9, 42, 91
11, 70080, Note_on_c, 9, 69, 51
11, 70128, Note_off_c, 9, 69, 17
11, 70128, Note_off_c, 9, 35, 17
11, 70128, Note_off_c, 9, 42, 17
11, 70200, Note_on_c, 9, 69, 51
11, 70248, Note_off_c, 9, 69, 17
11, 70320, Note_on_c, 9, 42, 91
11, 70320, Note_on_c, 9, 69, 51
11, 70368, Note_off_c, 9, 69, 17
11, 70368, Note_off_c, 9, 42, 17
11, 70440, Note_on_c, 9, 69, 51
11, 70488, Note_off_c, 9, 69, 17
11, 70560, Note_on_c, 9, 38, 127
11, 70560, Note_on_c, 9, 42, 91
11, 70560, Note_on_c, 9, 69, 51
11, 70608, Note_off_c, 9, 38, 17
11, 70608, Note_off_c, 9, 69, 17
11, 70608, Note_off_c, 9, 42, 17
11, 70680, Note_on_c, 9, 69, 51
11, 70728, Note_off_c, 9, 69, 17
11, 70800, Note_on_c, 9, 42, 91
11, 70800, Note_on_c, 9, 69, 51
11, 70848, Note_off_c, 9, 69, 17
11, 70848, Note_off_c, 9, 42, 17
11, 70920, Note_on_c, 9, 69, 51
11, 70968, Note_off_c, 9, 69, 17
11, 71040, Note_on_c, 9, 35, 127
11, 71040, Note_on_c, 9, 42, 91
11, 71040, Note_on_c, 9, 69, 51
11, 71088, Note_off_c, 9, 35, 17
11, 71088, Note_off_c, 9, 69, 17
11, 71088, Note_off_c, 9, 42, 17
11, 71160, Note_on_c, 9, 69, 51
11, 71208, Note_off_c, 9, 69, 17
11, 71280, Note_on_c, 9, 42, 91
11, 71280, Note_on_c, 9, 69, 51
11, 71328, Note_off_c, 9, 42, 17
11, 71328, Note_off_c, 9, 69, 17
11, 71400, Note_on_c, 9, 35, 127
11, 71400, Note_on_c, 9, 69, 51
11, 71448, Note_off_c, 9, 69, 17
11, 71448, Note_off_c, 9, 35, 17
11, 71520, Note_on_c, 9, 38, 127
11, 71520, Note_on_c, 9, 42, 91
11, 71520, Note_on_c, 9, 69, 51
11, 71568, Note_off_c, 9, 69, 17
11, 71568, Note_off_c, 9, 42, 17
11, 71568, Note_off_c, 9, 38, 17
11, 71640, Note_on_c, 9, 69, 51
11, 71688, Note_off_c, 9, 69, 17
11, 71760, Note_on_c, 9, 35, 127
11, 71760, Note_on_c, 9, 42, 91
11, 71760, Note_on_c, 9, 69, 51
11, 71808, Note_off_c, 9, 69, 17
11, 71808, Note_off_c, 9, 35, 17
11, 71808, Note_off_c, 9, 42, 17
11, 71880, Note_on_c, 9, 69, 51
11, 71928, Note_off_c, 9, 69, 17
11, 72000, Note_on_c, 9, 35, 127
11, 72000, Note_on_c, 9, 42, 91
11, 72000, Note_on_c, 9, 69, 51
11, 72048, Note_off_c, 9, 69, 17
11, 72048, Note_off_c, 9, 35, 17
11, 72048, Note_off_c, 9, 42, 17
11, 72120, Note_on_c, 9, 69, 51
11, 72168, Note_off_c, 9, 69, 17
11, 72240, Note_on_c, 9, 46, 127
11, 72240, Note_on_c, 9, 69, 51
11, 72288, Note_off_c, 9, 69, 17
11, 72288, Note_off_c, 9, 46, 17
11, 72360, Note_on_c, 9, 69, 51
11, 72408, Note_off_c, 9, 69, 17
11, 72480, Note_on_c, 9, 38, 127
11, 72480, Note_on_c, 9, 42, 127
11, 72480, Note_on_c, 9, 69, 51
11, 72528, Note_off_c, 9, 69, 17
11, 72528, Note_off_c, 9, 42, 17
11, 72528, Note_off_c, 9, 38, 17
11, 72600, Note_on_c, 9, 69, 51
11, 72648, Note_off_c, 9, 69, 17
11, 72720, Note_on_c, 9, 42, 91
11, 72720, Note_on_c, 9, 69, 51
11, 72768, Note_off_c, 9, 42, 17
11, 72768, Note_off_c, 9, 69, 17
11, 72840, Note_on_c, 9, 69, 51
11, 72888, Note_off_c, 9, 69, 17
11, 72960, Note_on_c, 9, 35, 127
11, 72960, Note_on_c, 9, 42, 91
11, 72960, Note_on_c, 9, 69, 51
11, 73008, Note_off_c, 9, 69, 17
11, 73008, Note_off_c, 9, 35, 17
11, 73008, Note_off_c, 9, 42, 17
11, 73080, Note_on_c, 9, 69, 51
11, 73128, Note_off_c, 9, 69, 17
11, 73200, Note_on_c, 9, 42, 91
11, 73200, Note_on_c, 9, 69, 51
11, 73248, Note_off_c, 9, 69, 17
11, 73248, Note_off_c, 9, 42, 17
11, 73320, Note_on_c, 9, 35, 127
11, 73320, Note_on_c, 9, 69, 51
11, 73368, Note_off_c, 9, 69, 17
11, 73368, Note_off_c, 9, 35, 17
11, 73440, Note_on_c, 9, 38, 127
11, 73440, Note_on_c, 9, 42, 91
11, 73440, Note_on_c, 9, 69, 51
11, 73488, Note_off_c, 9, 69, 17
11, 73488, Note_off_c, 9, 42, 17
11, 73488, Note_off_c, 9, 38, 17
11, 73560, Note_on_c, 9, 69, 51
11, 73608, Note_off_c, 9, 69, 17
11, 73680, Note_on_c, 9, 35, 127
11, 73680, Note_on_c, 9, 42, 91
11, 73680, Note_on_c, 9, 69, 51
11, 73728, Note_off_c, 9, 69, 17
11, 73728, Note_off_c, 9, 42, 17
11, 73728, Note_off_c, 9, 35, 17
11, 73800, Note_on_c, 9, 69, 51
11, 73848, Note_off_c, 9, 69, 17
11, 73920, Note_on_c, 9, 35, 127
11, 73920, Note_on_c, 9, 42, 91
11, 73920, Note_on_c, 9, 69, 51
11, 73968, Note_off_c, 9, 69, 17
11, 73968, Note_off_c, 9, 42, 17
11, 73968, Note_off_c, 9, 35, 17
11, 74040, Note_on_c, 9, 69, 51
11, 74088, Note_off_c, 9, 69, 17
11, 74160, Note_on_c, 9, 42, 91
11, 74160, Note_on_c, 9, 69, 51
11, 74208, Note_off_c, 9, 69, 17
11, 74208, Note_off_c, 9, 42, 17
11, 74280, Note_on_c, 9, 69, 51
11, 74328, Note_off_c, 9, 69, 17
11, 74400, Note_on_c, 9, 38, 127
11, 74400, Note_on_c, 9, 42, 91
11, 74400, Note_on_c, 9, 69, 51
11, 74448, Note_off_c, 9, 69, 17
11, 74448, Note_off_c, 9, 42, 17
11, 74448, Note_off_c, 9, 38, 17
11, 74520, Note_on_c, 9, 69, 51
11, 74568, Note_off_c, 9, 69, 17
11, 74640, Note_on_c, 9, 42, 91
11, 74640, Note_on_c, 9, 69, 51
11, 74688, Note_off_c, 9, 69, 17
11, 74688, Note_off_c, 9, 42, 17
11, 74760, Note_on_c, 9, 69, 51
11, 74808, Note_off_c, 9, 69, 17
11, 74880, Note_on_c, 9, 35, 127
11, 74880, Note_on_c, 9, 42, 91
11, 74880, Note_on_c, 9, 69, 51
11, 74928, Note_off_c, 9, 69, 17
11, 74928, Note_off_c, 9, 42, 17
11, 74928, Note_off_c, 9, 35, 17
11, 75000, Note_on_c, 9, 69, 51
11, 75048, Note_off_c, 9, 69, 17
11, 75120, Note_on_c, 9, 42, 91
11, 75120, Note_on_c, 9, 69, 51
11, 75168, Note_off_c, 9, 42, 17
11, 75168, Note_off_c, 9, 69, 17
11, 75240, Note_on_c, 9, 35, 127
11, 75240, Note_on_c, 9, 69, 51
11, 75288, Note_off_c, 9, 69, 17
11, 75288, Note_off_c, 9, 35, 17
11, 75360, Note_on_c, 9, 38, 127
11, 75360, Note_on_c, 9, 42, 91
11, 75360, Note_on_c, 9, 69, 51
11, 75408, Note_off_c, 9, 69, 17
11, 75408, Note_off_c, 9, 42, 17
11, 75408, Note_off_c, 9, 38, 17
11, 75480, Note_on_c, 9, 69, 51
11, 75528, Note_off_c, 9, 69, 17
11, 75600, Note_on_c, 9, 35, 127
11, 75600, Note_on_c, 9, 47, 117
11, 75600, Note_on_c, 9, 69, 51
11, 75630, Note_off_c, 9, 47, 17
11, 75648, Note_off_c, 9, 69, 17
11, 75648, Note_off_c, 9, 35, 17
11, 75720, Note_on_c, 9, 41, 110
11, 75720, Note_on_c, 9, 69, 51
11, 75750, Note_off_c, 9, 41, 17
11, 75768, Note_off_c, 9, 69, 17
11, 75840, Note_on_c, 9, 35, 127
11, 75840, Note_on_c, 9, 43, 122
11, 75840, Note_on_c, 9, 69, 51
11, 75870, Note_off_c, 9, 43, 17
11, 75888, Note_off_c, 9, 69, 17
11, 75888, Note_off_c, 9, 35, 17
11, 75960, Note_on_c, 9, 41, 122
11, 75960, Note_on_c, 9, 69, 51
11, 75990, Note_off_c, 9, 41, 17
11, 76008, Note_off_c, 9, 69, 17
11, 76080, Note_on_c, 9, 45, 122
11, 76080, Note_on_c, 9, 46, 127
11, 76080, Note_on_c, 9, 69, 51
11, 76110, Note_off_c, 9, 45, 17
11, 76128, Note_off_c, 9, 46, 17
11, 76128, Note_off_c, 9, 69, 17
11, 76200, Note_on_c, 9, 41, 127
11, 76200, Note_on_c, 9, 69, 51
11, 76230, Note_off_c, 9, 41, 17
11, 76248, Note_off_c, 9, 69, 17
11, 76320, Note_on_c, 9, 38, 127
11, 76320, Note_on_c, 9, 42, 127
11, 76320, Note_on_c, 9, 69, 51
11, 76368, Note_off_c, 9, 69, 17
11, 76368, Note_off_c, 9, 42, 17
11, 76368, Note_off_c, 9, 38, 17
11, 76440, Note_on_c, 9, 69, 51
11, 76488, Note_off_c, 9, 69, 17
11, 76560, Note_on_c, 9, 69, 51
11, 76608, Note_off_c, 9, 69, 17
11, 76680, Note_on_c, 9, 69, 51
11, 76728, Note_off_c, 9, 69, 17
11, 76800, Note_on_c, 9, 35, 120
11, 76800, Note_on_c, 9, 49, 98
11, 76848, Note_off_c, 9, 35, 17
11, 76848, Note_off_c, 9, 49, 17
11, 77040, Note_on_c, 9, 42, 80
11, 77088, Note_off_c, 9, 42, 17
11, 77160, Note_on_c, 9, 35, 120
11, 77208, Note_off_c, 9, 35, 17
11, 77280, Note_on_c, 9, 38, 120
11, 77280, Note_on_c, 9, 42, 80
11, 77328, Note_off_c, 9, 38, 17
11, 77328, Note_off_c, 9, 42, 17
11, 77520, Note_on_c, 9, 35, 120
11, 77520, Note_on_c, 9, 42, 80
11, 77568, Note_off_c, 9, 42, 17
11, 77568, Note_off_c, 9, 35, 17
11, 77760, Note_on_c, 9, 35, 120
11, 77760, Note_on_c, 9, 42, 80
11, 77808, Note_off_c, 9, 42, 17
11, 77808, Note_off_c, 9, 35, 17
11, 78000, Note_on_c, 9, 42, 80
11, 78000, Note_on_c, 9, 69, 64
11, 78048, Note_off_c, 9, 42, 17
11, 78048, Note_off_c, 9, 69, 17
11, 78120, Note_on_c, 9, 69, 64
11, 78168, Note_off_c, 9, 69, 17
11, 78240, Note_on_c, 9, 38, 120
11, 78240, Note_on_c, 9, 42, 80
11, 78288, Note_off_c, 9, 42, 17
11, 78288, Note_off_c, 9, 38, 17
11, 78480, Note_on_c, 9, 42, 80
11, 78528, Note_off_c, 9, 42, 17
11, 78720, Note_on_c, 9, 35, 120
11, 78720, Note_on_c, 9, 42, 80
11, 78768, Note_off_c, 9, 42, 17
11, 78768, Note_off_c, 9, 35, 17
11, 78960, Note_on_c, 9, 42, 80
11, 79008, Note_off_c, 9, 42, 17
11, 79080, Note_on_c, 9, 35, 120
11, 79128, Note_off_c, 9, 35, 17
11, 79200, Note_on_c, 9, 38, 120
11, 79200, Note_on_c, 9, 42, 80
11, 79248, Note_off_c, 9, 42, 17
11, 79248, Note_off_c, 9, 38, 17
11, 79440, Note_on_c, 9, 35, 120
11, 79440, Note_on_c, 9, 42, 80
11, 79488, Note_off_c, 9, 42, 17
11, 79488, Note_off_c, 9, 35, 17
11, 79680, Note_on_c, 9, 35, 120
11, 79680, Note_on_c, 9, 42, 80
11, 79728, Note_off_c, 9, 42, 17
11, 79728, Note_off_c, 9, 35, 17
11, 79920, Note_on_c, 9, 46, 120
11, 79968, Note_off_c, 9, 46, 17
11, 80160, Note_on_c, 9, 38, 120
11, 80160, Note_on_c, 9, 42, 120
11, 80208, Note_off_c, 9, 42, 17
11, 80208, Note_off_c, 9, 38, 17
11, 80400, Note_on_c, 9, 42, 80
11, 80448, Note_off_c, 9, 42, 17
11, 80640, Note_on_c, 9, 35, 120
11, 80640, Note_on_c, 9, 42, 80
11, 80688, Note_off_c, 9, 42, 17
11, 80688, Note_off_c, 9, 35, 17
11, 80880, Note_on_c, 9, 42, 80
11, 80928, Note_off_c, 9, 42, 17
11, 81000, Note_on_c, 9, 35, 120
11, 81048, Note_off_c, 9, 35, 17
11, 81120, Note_on_c, 9, 38, 120
11, 81120, Note_on_c, 9, 42, 80
11, 81168, Note_off_c, 9, 38, 17
11, 81168, Note_off_c, 9, 42, 17
11, 81360, Note_on_c, 9, 35, 120
11, 81360, Note_on_c, 9, 42, 80
11, 81408, Note_off_c, 9, 42, 17
11, 81408, Note_off_c, 9, 35, 17
11, 81600, Note_on_c, 9, 35, 120
11, 81600, Note_on_c, 9, 42, 80
11, 81648, Note_off_c, 9, 42, 17
11, 81648, Note_off_c, 9, 35, 17
11, 81840, Note_on_c, 9, 42, 80
11, 81840, Note_on_c, 9, 69, 64
11, 81888, Note_off_c, 9, 69, 17
11, 81888, Note_off_c, 9, 42, 17
11, 81960, Note_on_c, 9, 69, 64
11, 82008, Note_off_c, 9, 69, 17
11, 82080, Note_on_c, 9, 38, 120
11, 82080, Note_on_c, 9, 42, 80
11, 82128, Note_off_c, 9, 42, 17
11, 82128, Note_off_c, 9, 38, 17
11, 82320, Note_on_c, 9, 42, 80
11, 82368, Note_off_c, 9, 42, 17
11, 82560, Note_on_c, 9, 35, 120
11, 82560, Note_on_c, 9, 42, 80
11, 82608, Note_off_c, 9, 42, 17
11, 82608, Note_off_c, 9, 35, 17
11, 82800, Note_on_c, 9, 42, 80
11, 82848, Note_off_c, 9, 42, 17
11, 82920, Note_on_c, 9, 35, 120
11, 82968, Note_off_c, 9, 35, 17
11, 83040, Note_on_c, 9, 38, 120
11, 83040, Note_on_c, 9, 42, 80
11, 83088, Note_off_c, 9, 42, 17
11, 83088, Note_off_c, 9, 38, 17
11, 83280, Note_on_c, 9, 35, 120
11, 83280, Note_on_c, 9, 47, 106
11, 83310, Note_off_c, 9, 47, 17
11, 83328, Note_off_c, 9, 35, 17
11, 83400, Note_on_c, 9, 41, 99
11, 83430, Note_off_c, 9, 41, 17
11, 83520, Note_on_c, 9, 35, 120
11, 83520, Note_on_c, 9, 43, 111
11, 83550, Note_off_c, 9, 43, 17
11, 83568, Note_off_c, 9, 35, 17
11, 83640, Note_on_c, 9, 41, 111
11, 83670, Note_off_c, 9, 41, 17
11, 83760, Note_on_c, 9, 45, 111
11, 83760, Note_on_c, 9, 46, 120
11, 83790, Note_off_c, 9, 45, 17
11, 83808, Note_off_c, 9, 46, 17
11, 83880, Note_on_c, 9, 41, 122
11, 83910, Note_off_c, 9, 41, 17
11, 84000, Note_on_c, 9, 38, 120
11, 84000, Note_on_c, 9, 42, 120
11, 84048, Note_off_c, 9, 42, 17
11, 84048, Note_off_c, 9, 38, 17
11, 84480, Note_on_c, 9, 35, 120
11, 84480, Note_on_c, 9, 49, 98
11, 84528, Note_off_c, 9, 49, 17
11, 84528, Note_off_c, 9, 35, 17
11, 84720, Note_on_c, 9, 42, 80
11, 84768, Note_off_c, 9, 42, 17
11, 84840, Note_on_c, 9, 35, 120
11, 84888, Note_off_c, 9, 35, 17
11, 84960, Note_on_c, 9, 38, 120
11, 84960, Note_on_c, 9, 42, 80
11, 85008, Note_off_c, 9, 42, 17
11, 85008, Note_off_c, 9, 38, 17
11, 85200, Note_on_c, 9, 35, 120
11, 85200, Note_on_c, 9, 42, 80
11, 85248, Note_off_c, 9, 42, 17
11, 85248, Note_off_c, 9, 35, 17
11, 85440, Note_on_c, 9, 35, 120
11, 85440, Note_on_c, 9, 42, 80
11, 85488, Note_off_c, 9, 42, 17
11, 85488, Note_off_c, 9, 35, 17
11, 85680, Note_on_c, 9, 42, 80
11, 85680, Note_on_c, 9, 69, 64
11, 85728, Note_off_c, 9, 42, 17
11, 85728, Note_off_c, 9, 69, 17
11, 85800, Note_on_c, 9, 69, 64
11, 85848, Note_off_c, 9, 69, 17
11, 85920, Note_on_c, 9, 38, 120
11, 85920, Note_on_c, 9, 42, 80
11, 85968, Note_off_c, 9, 42, 17
11, 85968, Note_off_c, 9, 38, 17
11, 86160, Note_on_c, 9, 42, 80
11, 86208, Note_off_c, 9, 42, 17
11, 86400, Note_on_c, 9, 35, 120
11, 86400, Note_on_c, 9, 42, 80
11, 86448, Note_off_c, 9, 42, 17
11, 86448, Note_off_c, 9, 35, 17
11, 86640, Note_on_c, 9, 42, 80
11, 86688, Note_off_c, 9, 42, 17
11, 86760, Note_on_c, 9, 35, 120
11, 86808, Note_off_c, 9, 35, 17
11, 86880, Note_on_c, 9, 38, 120
11, 86880, Note_on_c, 9, 42, 80
11, 86928, Note_off_c, 9, 42, 17
11, 86928, Note_off_c, 9, 38, 17
11, 87120, Note_on_c, 9, 35, 120
11, 87120, Note_on_c, 9, 42, 80
11, 87168, Note_off_c, 9, 42, 17
11, 87168, Note_off_c, 9, 35, 17
11, 87360, Note_on_c, 9, 35, 120
11, 87360, Note_on_c, 9, 42, 80
11, 87408, Note_off_c, 9, 42, 17
11, 87408, Note_off_c, 9, 35, 17
11, 87600, Note_on_c, 9, 46, 120
11, 87648, Note_off_c, 9, 46, 17
11, 87840, Note_on_c, 9, 38, 120
11, 87840, Note_on_c, 9, 42, 120
11, 87888, Note_off_c, 9, 42, 17
11, 87888, Note_off_c, 9, 38, 17
11, 88080, Note_on_c, 9, 42, 80
11, 88128, Note_off_c, 9, 42, 17
11, 88320, Note_on_c, 9, 35, 120
11, 88320, Note_on_c, 9, 42, 80
11, 88368, Note_off_c, 9, 42, 17
11, 88368, Note_off_c, 9, 35, 17
11, 88560, Note_on_c, 9, 42, 80
11, 88608, Note_off_c, 9, 42, 17
11, 88680, Note_on_c, 9, 35, 120
11, 88728, Note_off_c, 9, 35, 17
11, 88800, Note_on_c, 9, 38, 120
11, 88800, Note_on_c, 9, 42, 80
11, 88848, Note_off_c, 9, 38, 17
11, 88848, Note_off_c, 9, 42, 17
11, 89040, Note_on_c, 9, 35, 120
11, 89040, Note_on_c, 9, 42, 80
11, 89088, Note_off_c, 9, 42, 17
11, 89088, Note_off_c, 9, 35, 17
11, 89280, Note_on_c, 9, 35, 120
11, 89280, Note_on_c, 9, 42, 80
11, 89328, Note_off_c, 9, 42, 17
11, 89328, Note_off_c, 9, 35, 17
11, 89520, Note_on_c, 9, 42, 80
11, 89520, Note_on_c, 9, 69, 64
11, 89568, Note_off_c, 9, 42, 17
11, 89568, Note_off_c, 9, 69, 17
11, 89640, Note_on_c, 9, 69, 64
11, 89688, Note_off_c, 9, 69, 17
11, 89760, Note_on_c, 9, 38, 120
11, 89760, Note_on_c, 9, 42, 80
11, 89808, Note_off_c, 9, 42, 17
11, 89808, Note_off_c, 9, 38, 17
11, 90000, Note_on_c, 9, 42, 80
11, 90048, Note_off_c, 9, 42, 17
11, 90240, Note_on_c, 9, 35, 120
11, 90240, Note_on_c, 9, 42, 80
11, 90288, Note_off_c, 9, 42, 17
11, 90288, Note_off_c, 9, 35, 17
11, 90480, Note_on_c, 9, 42, 80
11, 90528, Note_off_c, 9, 42, 17
11, 90600, Note_on_c, 9, 35, 120
11, 90648, Note_off_c, 9, 35, 17
11, 90720, Note_on_c, 9, 38, 120
11, 90720, Note_on_c, 9, 42, 80
11, 90768, Note_off_c, 9, 38, 17
11, 90768, Note_off_c, 9, 42, 17
11, 90960, Note_on_c, 9, 35, 120
11, 90960, Note_on_c, 9, 47, 106
11, 90990, Note_off_c, 9, 47, 17
11, 91008, Note_off_c, 9, 35, 17
11, 91080, Note_on_c, 9, 41, 99
11, 91110, Note_off_c, 9, 41, 17
11, 91200, Note_on_c, 9, 35, 120
11, 91200, Note_on_c, 9, 43, 111
11, 91230, Note_off_c, 9, 43, 17
11, 91248, Note_off_c, 9, 35, 17
11, 91320, Note_on_c, 9, 41, 111
11, 91350, Note_off_c, 9, 41, 17
11, 91440, Note_on_c, 9, 45, 111
11, 91440, Note_on_c, 9, 46, 120
11, 91470, Note_off_c, 9, 45, 17
11, 91488, Note_off_c, 9, 46, 17
11, 91560, Note_on_c, 9, 41, 122
11, 91590, Note_off_c, 9, 41, 17
11, 91680, Note_on_c, 9, 38, 120
11, 91680, Note_on_c, 9, 42, 120
11, 91728, Note_off_c, 9, 42, 17
11, 91728, Note_off_c, 9, 38, 17
11, 92160, Note_on_c, 9, 35, 120
11, 92160, Note_on_c, 9, 49, 80
11, 92208, Note_off_c, 9, 49, 17
11, 92208, Note_off_c, 9, 35, 17
11, 92400, Note_on_c, 9, 42, 80
11, 92448, Note_off_c, 9, 42, 17
11, 92520, Note_on_c, 9, 35, 120
11, 92568, Note_off_c, 9, 35, 17
11, 92640, Note_on_c, 9, 38, 120
11, 92640, Note_on_c, 9, 42, 80
11, 92688, Note_off_c, 9, 42, 17
11, 92688, Note_off_c, 9, 38, 17
11, 92880, Note_on_c, 9, 35, 120
11, 92880, Note_on_c, 9, 42, 80
11, 92928, Note_off_c, 9, 42, 17
11, 92928, Note_off_c, 9, 35, 17
11, 93120, Note_on_c, 9, 35, 120
11, 93120, Note_on_c, 9, 42, 80
11, 93168, Note_off_c, 9, 42, 17
11, 93168, Note_off_c, 9, 35, 17
11, 93360, Note_on_c, 9, 42, 80
11, 93360, Note_on_c, 9, 69, 64
11, 93408, Note_off_c, 9, 42, 17
11, 93408, Note_off_c, 9, 69, 17
11, 93480, Note_on_c, 9, 69, 64
11, 93528, Note_off_c, 9, 69, 17
11, 93600, Note_on_c, 9, 38, 120
11, 93600, Note_on_c, 9, 42, 80
11, 93648, Note_off_c, 9, 42, 17
11, 93648, Note_off_c, 9, 38, 17
11, 93840, Note_on_c, 9, 42, 80
11, 93888, Note_off_c, 9, 42, 17
11, 94080, Note_on_c, 9, 35, 120
11, 94080, Note_on_c, 9, 42, 80
11, 94128, Note_off_c, 9, 42, 17
11, 94128, Note_off_c, 9, 35, 17
11, 94320, Note_on_c, 9, 42, 80
11, 94368, Note_off_c, 9, 42, 17
11, 94440, Note_on_c, 9, 35, 120
11, 94488, Note_off_c, 9, 35, 17
11, 94560, Note_on_c, 9, 38, 120
11, 94560, Note_on_c, 9, 42, 80
11, 94608, Note_off_c, 9, 42, 17
11, 94608, Note_off_c, 9, 38, 17
11, 94800, Note_on_c, 9, 35, 120
11, 94800, Note_on_c, 9, 47, 106
11, 94830, Note_off_c, 9, 47, 17
11, 94848, Note_off_c, 9, 35, 17
11, 94920, Note_on_c, 9, 41, 99
11, 94950, Note_off_c, 9, 41, 17
11, 95040, Note_on_c, 9, 35, 120
11, 95040, Note_on_c, 9, 43, 111
11, 95070, Note_off_c, 9, 43, 17
11, 95088, Note_off_c, 9, 35, 17
11, 95160, Note_on_c, 9, 41, 111
11, 95190, Note_off_c, 9, 41, 17
11, 95280, Note_on_c, 9, 45, 111
11, 95280, Note_on_c, 9, 46, 120
11, 95310, Note_off_c, 9, 45, 17
11, 95328, Note_off_c, 9, 46, 17
11, 95400, Note_on_c, 9, 41, 122
11, 95430, Note_off_c, 9, 41, 17
11, 95520, Note_on_c, 9, 38, 120
11, 95520, Note_on_c, 9, 42, 120
11, 95568, Note_off_c, 9, 42, 17
11, 95568, Note_off_c, 9, 38, 17
11, 96000, Note_on_c, 9, 35, 127
11, 96000, Note_on_c, 9, 49, 109
11, 96000, Note_on_c, 9, 69, 51
11, 96048, Note_off_c, 9, 49, 17
11, 96048, Note_off_c, 9, 35, 17
11, 96048, Note_off_c, 9, 69, 17
11, 96120, Note_on_c, 9, 69, 51
11, 96168, Note_off_c, 9, 69, 17
11, 96240, Note_on_c, 9, 42, 91
11, 96240, Note_on_c, 9, 69, 51
11, 96288, Note_off_c, 9, 69, 17
11, 96288, Note_off_c, 9, 42, 17
11, 96360, Note_on_c, 9, 35, 127
11, 96360, Note_on_c, 9, 69, 51
11, 96408, Note_off_c, 9, 69, 17
11, 96408, Note_off_c, 9, 35, 17
11, 96480, Note_on_c, 9, 38, 127
11, 96480, Note_on_c, 9, 42, 91
11, 96480, Note_on_c, 9, 69, 51
11, 96528, Note_off_c, 9, 69, 17
11, 96528, Note_off_c, 9, 42, 17
11, 96528, Note_off_c, 9, 38, 17
11, 96600, Note_on_c, 9, 69, 51
11, 96648, Note_off_c, 9, 69, 17
11, 96720, Note_on_c, 9, 35, 127
11, 96720, Note_on_c, 9, 42, 91
11, 96720, Note_on_c, 9, 69, 51
11, 96768, Note_off_c, 9, 69, 17
11, 96768, Note_off_c, 9, 35, 17
11, 96768, Note_off_c, 9, 42, 17
11, 96840, Note_on_c, 9, 69, 51
11, 96888, Note_off_c, 9, 69, 17
11, 96960, Note_on_c, 9, 35, 127
11, 96960, Note_on_c, 9, 42, 91
11, 96960, Note_on_c, 9, 69, 51
11, 97008, Note_off_c, 9, 69, 17
11, 97008, Note_off_c, 9, 42, 17
11, 97008, Note_off_c, 9, 35, 17
11, 97080, Note_on_c, 9, 69, 51
11, 97128, Note_off_c, 9, 69, 17
11, 97200, Note_on_c, 9, 42, 91
11, 97200, Note_on_c, 9, 69, 51
11, 97248, Note_off_c, 9, 69, 17
11, 97248, Note_off_c, 9, 42, 17
11, 97320, Note_on_c, 9, 69, 51
11, 97368, Note_off_c, 9, 69, 17
11, 97440, Note_on_c, 9, 38, 127
11, 97440, Note_on_c, 9, 42, 91
11, 97440, Note_on_c, 9, 69, 51
11, 97488, Note_off_c, 9, 69, 17
11, 97488, Note_off_c, 9, 42, 17
11, 97488, Note_off_c, 9, 38, 17
11, 97560, Note_on_c, 9, 69, 51
11, 97608, Note_off_c, 9, 69, 17
11, 97680, Note_on_c, 9, 42, 91
11, 97680, Note_on_c, 9, 69, 51
11, 97728, Note_off_c, 9, 69, 17
11, 97728, Note_off_c, 9, 42, 17
11, 97800, Note_on_c, 9, 69, 51
11, 97848, Note_off_c, 9, 69, 17
11, 97920, Note_on_c, 9, 35, 127
11, 97920, Note_on_c, 9, 42, 91
11, 97920, Note_on_c, 9, 69, 51
11, 97968, Note_off_c, 9, 69, 17
11, 97968, Note_off_c, 9, 35, 17
11, 97968, Note_off_c, 9, 42, 17
11, 98040, Note_on_c, 9, 69, 51
11, 98088, Note_off_c, 9, 69, 17
11, 98160, Note_on_c, 9, 42, 91
11, 98160, Note_on_c, 9, 69, 51
11, 98208, Note_off_c, 9, 69, 17
11, 98208, Note_off_c, 9, 42, 17
11, 98280, Note_on_c, 9, 35, 127
11, 98280, Note_on_c, 9, 69, 51
11, 98328, Note_off_c, 9, 69, 17
11, 98328, Note_off_c, 9, 35, 17
11, 98400, Note_on_c, 9, 38, 127
11, 98400, Note_on_c, 9, 42, 91
11, 98400, Note_on_c, 9, 69, 51
11, 98448, Note_off_c, 9, 69, 17
11, 98448, Note_off_c, 9, 42, 17
11, 98448, Note_off_c, 9, 38, 17
11, 98520, Note_on_c, 9, 69, 51
11, 98568, Note_off_c, 9, 69, 17
11, 98640, Note_on_c, 9, 35, 127
11, 98640, Note_on_c, 9, 42, 91
11, 98640, Note_on_c, 9, 69, 51
11, 98688, Note_off_c, 9, 69, 17
11, 98688, Note_off_c, 9, 42, 17
11, 98688, Note_off_c, 9, 35, 17
11, 98760, Note_on_c, 9, 69, 51
11, 98808, Note_off_c, 9, 69, 17
11, 98880, Note_on_c, 9, 35, 127
11, 98880, Note_on_c, 9, 42, 91
11, 98880, Note_on_c, 9, 69, 51
11, 98928, Note_off_c, 9, 69, 17
11, 98928, Note_off_c, 9, 42, 17
11, 98928, Note_off_c, 9, 35, 17
11, 99000, Note_on_c, 9, 69, 51
11, 99048, Note_off_c, 9, 69, 17
11, 99120, Note_on_c, 9, 46, 127
11, 99120, Note_on_c, 9, 69, 51
11, 99168, Note_off_c, 9, 69, 17
11, 99168, Note_off_c, 9, 46, 17
11, 99240, Note_on_c, 9, 69, 51
11, 99288, Note_off_c, 9, 69, 17
11, 99360, Note_on_c, 9, 38, 127
11, 99360, Note_on_c, 9, 42, 127
11, 99360, Note_on_c, 9, 69, 51
11, 99408, Note_off_c, 9, 69, 17
11, 99408, Note_off_c, 9, 42, 17
11, 99408, Note_off_c, 9, 38, 17
11, 99480, Note_on_c, 9, 69, 51
11, 99528, Note_off_c, 9, 69, 17
11, 99600, Note_on_c, 9, 42, 91
11, 99600, Note_on_c, 9, 69, 51
11, 99648, Note_off_c, 9, 42, 17
11, 99648, Note_off_c, 9, 69, 17
11, 99720, Note_on_c, 9, 69, 51
11, 99768, Note_off_c, 9, 69, 17
11, 99840, Note_on_c, 9, 35, 127
11, 99840, Note_on_c, 9, 42, 91
11, 99840, Note_on_c, 9, 69, 51
11, 99888, Note_off_c, 9, 35, 17
11, 99888, Note_off_c, 9, 69, 17
11, 99888, Note_off_c, 9, 42, 17
11, 99960, Note_on_c, 9, 69, 51
11, 100008, Note_off_c, 9, 69, 17
11, 100080, Note_on_c, 9, 42, 91
11, 100080, Note_on_c, 9, 69, 51
11, 100128, Note_off_c, 9, 42, 17
11, 100128, Note_off_c, 9, 69, 17
11, 100200, Note_on_c, 9, 35, 127
11, 100200, Note_on_c, 9, 69, 51
11, 100248, Note_off_c, 9, 69, 17
11, 100248, Note_off_c, 9, 35, 17
11, 100320, Note_on_c, 9, 38, 127
11, 100320, Note_on_c, 9, 42, 91
11, 100320, Note_on_c, 9, 69, 51
11, 100368, Note_off_c, 9, 69, 17
11, 100368, Note_off_c, 9, 42, 17
11, 100368, Note_off_c, 9, 38, 17
11, 100440, Note_on_c, 9, 69, 51
11, 100488, Note_off_c, 9, 69, 17
11, 100560, Note_on_c, 9, 35, 127
11, 100560, Note_on_c, 9, 42, 91
11, 100560, Note_on_c, 9, 69, 51
11, 100608, Note_off_c, 9, 69, 17
11, 100608, Note_off_c, 9, 35, 17
11, 100608, Note_off_c, 9, 42, 17
11, 100680, Note_on_c, 9, 69, 51
11, 100728, Note_off_c, 9, 69, 17
11, 100800, Note_on_c, 9, 35, 127
11, 100800, Note_on_c, 9, 42, 91
11, 100800, Note_on_c, 9, 69, 51
11, 100848, Note_off_c, 9, 69, 17
11, 100848, Note_off_c, 9, 42, 17
11, 100848, Note_off_c, 9, 35, 17
11, 100920, Note_on_c, 9, 69, 51
11, 100968, Note_off_c, 9, 69, 17
11, 101040, Note_on_c, 9, 42, 91
11, 101040, Note_on_c, 9, 69, 51
11, 101088, Note_off_c, 9, 42, 17
11, 101088, Note_off_c, 9, 69, 17
11, 101160, Note_on_c, 9, 69, 51
11, 101208, Note_off_c, 9, 69, 17
11, 101280, Note_on_c, 9, 38, 127
11, 101280, Note_on_c, 9, 42, 91
11, 101280, Note_on_c, 9, 69, 51
11, 101328, Note_off_c, 9, 69, 17
11, 101328, Note_off_c, 9, 42, 17
11, 101328, Note_off_c, 9, 38, 17
11, 101400, Note_on_c, 9, 69, 51
11, 101448, Note_off_c, 9, 69, 17
11, 101520, Note_on_c, 9, 42, 91
11, 101520, Note_on_c, 9, 69, 51
11, 101568, Note_off_c, 9, 69, 17
11, 101568, Note_off_c, 9, 42, 17
11, 101640, Note_on_c, 9, 69, 51
11, 101688, Note_off_c, 9, 69, 17
11, 101760, Note_on_c, 9, 35, 127
11, 101760, Note_on_c, 9, 42, 91
11, 101760, Note_on_c, 9, 69, 51
11, 101808, Note_off_c, 9, 69, 17
11, 101808, Note_off_c, 9, 35, 17
11, 101808, Note_off_c, 9, 42, 17
11, 101880, Note_on_c, 9, 69, 51
11, 101928, Note_off_c, 9, 69, 17
11, 102000, Note_on_c, 9, 42, 91
11, 102000, Note_on_c, 9, 69, 51
11, 102048, Note_off_c, 9, 42, 17
11, 102048, Note_off_c, 9, 69, 17
11, 102120, Note_on_c, 9, 35, 127
11, 102120, Note_on_c, 9, 69, 51
11, 102168, Note_off_c, 9, 69, 17
11, 102168, Note_off_c, 9, 35, 17
11, 102240, Note_on_c, 9, 38, 127
11, 102240, Note_on_c, 9, 42, 91
11, 102240, Note_on_c, 9, 69, 51
11, 102288, Note_off_c, 9, 69, 17
11, 102288, Note_off_c, 9, 42, 17
11, 102288, Note_off_c, 9, 38, 17
11, 102360, Note_on_c, 9, 69, 51
11, 102408, Note_off_c, 9, 69, 17
11, 102480, Note_on_c, 9, 35, 127
11, 102480, Note_on_c, 9, 47, 117
11, 102480, Note_on_c, 9, 69, 51
11, 102510, Note_off_c, 9, 47, 17
11, 102528, Note_off_c, 9, 69, 17
11, 102528, Note_off_c, 9, 35, 17
11, 102600, Note_on_c, 9, 41, 110
11, 102600, Note_on_c, 9, 69, 51
11, 102630, Note_off_c, 9, 41, 17
11, 102648, Note_off_c, 9, 69, 17
11, 102720, Note_on_c, 9, 35, 127
11, 102720, Note_on_c, 9, 43, 122
11, 102720, Note_on_c, 9, 69, 51
11, 102750, Note_off_c, 9, 43, 17
11, 102768, Note_off_c, 9, 69, 17
11, 102768, Note_off_c, 9, 35, 17
11, 102840, Note_on_c, 9, 41, 122
11, 102840, Note_on_c, 9, 69, 51
11, 102870, Note_off_c, 9, 41, 17
11, 102888, Note_off_c, 9, 69, 17
11, 102960, Note_on_c, 9, 45, 122
11, 102960, Note_on_c, 9, 46, 127
11, 102960, Note_on_c, 9, 69, 51
11, 102990, Note_off_c, 9, 45, 17
11, 103008, Note_off_c, 9, 46, 17
11, 103008, Note_off_c, 9, 69, 17
11, 103080, Note_on_c, 9, 41, 127
11, 103080, Note_on_c, 9, 69, 51
11, 103110, Note_off_c, 9, 41, 17
11, 103128, Note_off_c, 9, 69, 17
11, 103200, Note_on_c, 9, 38, 127
11, 103200, Note_on_c, 9, 42, 127
11, 103200, Note_on_c, 9, 69, 51
11, 103248, Note_off_c, 9, 69, 17
11, 103248, Note_off_c, 9, 42, 17
11, 103248, Note_off_c, 9, 38, 17
11, 103320, Note_on_c, 9, 69, 51
11, 103368, Note_off_c, 9, 69, 17
11, 103440, Note_on_c, 9, 69, 51
11, 103488, Note_off_c, 9, 69, 17
11, 103560, Note_on_c, 9, 69, 51
11, 103608, Note_off_c, 9, 69, 17
11, 103680, Note_on_c, 9, 35, 127
11, 103680, Note_on_c, 9, 49, 109
11, 103680, Note_on_c, 9, 69, 51
11, 103728, Note_off_c, 9, 35, 17
11, 103728, Note_off_c, 9, 69, 17
11, 103728, Note_off_c, 9, 49, 17
11, 103800, Note_on_c, 9, 69, 51
11, 103848, Note_off_c, 9, 69, 17
11, 103920, Note_on_c, 9, 42, 91
11, 103920, Note_on_c, 9, 69, 51
11, 103968, Note_off_c, 9, 42, 17
11, 103968, Note_off_c, 9, 69, 17
11, 104040, Note_on_c, 9, 35, 127
11, 104040, Note_on_c, 9, 69, 51
11, 104088, Note_off_c, 9, 69, 17
11, 104088, Note_off_c, 9, 35, 17
11, 104160, Note_on_c, 9, 38, 127
11, 104160, Note_on_c, 9, 42, 91
11, 104160, Note_on_c, 9, 69, 51
11, 104208, Note_off_c, 9, 69, 17
11, 104208, Note_off_c, 9, 42, 17
11, 104208, Note_off_c, 9, 38, 17
11, 104280, Note_on_c, 9, 69, 51
11, 104328, Note_off_c, 9, 69, 17
11, 104400, Note_on_c, 9, 35, 127
11, 104400, Note_on_c, 9, 42, 91
11, 104400, Note_on_c, 9, 69, 51
11, 104448, Note_off_c, 9, 69, 17
11, 104448, Note_off_c, 9, 35, 17
11, 104448, Note_off_c, 9, 42, 17
11, 104520, Note_on_c, 9, 69, 51
11, 104568, Note_off_c, 9, 69, 17
11, 104640, Note_on_c, 9, 35, 127
11, 104640, Note_on_c, 9, 42, 91
11, 104640, Note_on_c, 9, 69, 51
11, 104688, Note_off_c, 9, 69, 17
11, 104688, Note_off_c, 9, 35, 17
11, 104688, Note_off_c, 9, 42, 17
11, 104760, Note_on_c, 9, 69, 51
11, 104808, Note_off_c, 9, 69, 17
11, 104880, Note_on_c, 9, 42, 91
11, 104880, Note_on_c, 9, 69, 51
11, 104928, Note_off_c, 9, 69, 17
11, 104928, Note_off_c, 9, 42, 17
11, 105000, Note_on_c, 9, 69, 51
11, 105048, Note_off_c, 9, 69, 17
11, 105120, Note_on_c, 9, 38, 127
11, 105120, Note_on_c, 9, 42, 91
11, 105120, Note_on_c, 9, 69, 51
11, 105168, Note_off_c, 9, 38, 17
11, 105168, Note_off_c, 9, 69, 17
11, 105168, Note_off_c, 9, 42, 17
11, 105240, Note_on_c, 9, 69, 51
11, 105288, Note_off_c, 9, 69, 17
11, 105360, Note_on_c, 9, 42, 91
11, 105360, Note_on_c, 9, 69, 51
11, 105408, Note_off_c, 9, 69, 17
11, 105408, Note_off_c, 9, 42, 17
11, 105480, Note_on_c, 9, 69, 51
11, 105528, Note_off_c, 9, 69, 17
11, 105600, Note_on_c, 9, 35, 127
11, 105600, Note_on_c, 9, 42, 91
11, 105600, Note_on_c, 9, 69, 51
11, 105648, Note_off_c, 9, 35, 17
11, 105648, Note_off_c, 9, 69, 17
11, 105648, Note_off_c, 9, 42, 17
11, 105720, Note_on_c, 9, 69, 51
11, 105768, Note_off_c, 9, 69, 17
11, 105840, Note_on_c, 9, 42, 91
11, 105840, Note_on_c, 9, 69, 51
11, 105888, Note_off_c, 9, 42, 17
11, 105888, Note_off_c, 9, 69, 17
11, 105960, Note_on_c, 9, 35, 127
11, 105960, Note_on_c, 9, 69, 51
11, 106008, Note_off_c, 9, 69, 17
11, 106008, Note_off_c, 9, 35, 17
11, 106080, Note_on_c, 9, 38, 127
11, 106080, Note_on_c, 9, 42, 91
11, 106080, Note_on_c, 9, 69, 51
11, 106128, Note_off_c, 9, 69, 17
11, 106128, Note_off_c, 9, 42, 17
11, 106128, Note_off_c, 9, 38, 17
11, 106200, Note_on_c, 9, 69, 51
11, 106248, Note_off_c, 9, 69, 17
11, 106320, Note_on_c, 9, 35, 127
11, 106320, Note_on_c, 9, 42, 91
11, 106320, Note_on_c, 9, 69, 51
11, 106368, Note_off_c, 9, 69, 17
11, 106368, Note_off_c, 9, 35, 17
11, 106368, Note_off_c, 9, 42, 17
11, 106440, Note_on_c, 9, 69, 51
11, 106488, Note_off_c, 9, 69, 17
11, 106560, Note_on_c, 9, 35, 127
11, 106560, Note_on_c, 9, 42, 91
11, 106560, Note_on_c, 9, 69, 51
11, 106608, Note_off_c, 9, 69, 17
11, 106608, Note_off_c, 9, 35, 17
11, 106608, Note_off_c, 9, 42, 17
11, 106680, Note_on_c, 9, 69, 51
11, 106728, Note_off_c, 9, 69, 17
11, 106800, Note_on_c, 9, 46, 127
11, 106800, Note_on_c, 9, 69, 51
11, 106848, Note_off_c, 9, 69, 17
11, 106848, Note_off_c, 9, 46, 17
11, 106920, Note_on_c, 9, 69, 51
11, 106968, Note_off_c, 9, 69, 17
11, 107040, Note_on_c, 9, 38, 127
11, 107040, Note_on_c, 9, 42, 127
11, 107040, Note_on_c, 9, 69, 51
11, 107088, Note_off_c, 9, 69, 17
11, 107088, Note_off_c, 9, 42, 17
11, 107088, Note_off_c, 9, 38, 17
11, 107160, Note_on_c, 9, 69, 51
11, 107208, Note_off_c, 9, 69, 17
11, 107280, Note_on_c, 9, 42, 91
11, 107280, Note_on_c, 9, 69, 51
11, 107328, Note_off_c, 9, 42, 17
11, 107328, Note_off_c, 9, 69, 17
11, 107400, Note_on_c, 9, 69, 51
11, 107448, Note_off_c, 9, 69, 17
11, 107520, Note_on_c, 9, 35, 127
11, 107520, Note_on_c, 9, 42, 91
11, 107520, Note_on_c, 9, 69, 51
11, 107568, Note_off_c, 9, 69, 17
11, 107568, Note_off_c, 9, 35, 17
11, 107568, Note_off_c, 9, 42, 17
11, 107640, Note_on_c, 9, 69, 51
11, 107688, Note_off_c, 9, 69, 17
11, 107760, Note_on_c, 9, 42, 91
11, 107760, Note_on_c, 9, 69, 51
11, 107808, Note_off_c, 9, 69, 17
11, 107808, Note_off_c, 9, 42, 17
11, 107880, Note_on_c, 9, 35, 127
11, 107880, Note_on_c, 9, 69, 51
11, 107928, Note_off_c, 9, 69, 17
11, 107928, Note_off_c, 9, 35, 17
11, 108000, Note_on_c, 9, 38, 127
11, 108000, Note_on_c, 9, 42, 91
11, 108000, Note_on_c, 9, 69, 51
11, 108048, Note_off_c, 9, 69, 17
11, 108048, Note_off_c, 9, 42, 17
11, 108048, Note_off_c, 9, 38, 17
11, 108120, Note_on_c, 9, 69, 51
11, 108168, Note_off_c, 9, 69, 17
11, 108240, Note_on_c, 9, 35, 127
11, 108240, Note_on_c, 9, 42, 91
11, 108240, Note_on_c, 9, 69, 51
11, 108288, Note_off_c, 9, 69, 17
11, 108288, Note_off_c, 9, 42, 17
11, 108288, Note_off_c, 9, 35, 17
11, 108360, Note_on_c, 9, 69, 51
11, 108408, Note_off_c, 9, 69, 17
11, 108480, Note_on_c, 9, 35, 127
11, 108480, Note_on_c, 9, 42, 91
11, 108480, Note_on_c, 9, 69, 51
11, 108528, Note_off_c, 9, 69, 17
11, 108528, Note_off_c, 9, 42, 17
11, 108528, Note_off_c, 9, 35, 17
11, 108600, Note_on_c, 9, 69, 51
11, 108648, Note_off_c, 9, 69, 17
11, 108720, Note_on_c, 9, 42, 91
11, 108720, Note_on_c, 9, 69, 51
11, 108768, Note_off_c, 9, 69, 17
11, 108768, Note_off_c, 9, 42, 17
11, 108840, Note_on_c, 9, 69, 51
11, 108888, Note_off_c, 9, 69, 17
11, 108960, Note_on_c, 9, 38, 127
11, 108960, Note_on_c, 9, 42, 91
11, 108960, Note_on_c, 9, 69, 51
11, 109008, Note_off_c, 9, 69, 17
11, 109008, Note_off_c, 9, 42, 17
11, 109008, Note_off_c, 9, 38, 17
11, 109080, Note_on_c, 9, 69, 51
11, 109128, Note_off_c, 9, 69, 17
11, 109200, Note_on_c, 9, 42, 91
11, 109200, Note_on_c, 9, 69, 51
11, 109248, Note_off_c, 9, 69, 17
11, 109248, Note_off_c, 9, 42, 17
11, 109320, Note_on_c, 9, 69, 51
11, 109368, Note_off_c, 9, 69, 17
11, 109440, Note_on_c, 9, 35, 127
11, 109440, Note_on_c, 9, 42, 91
11, 109440, Note_on_c, 9, 69, 51
11, 109488, Note_off_c, 9, 69, 17
11, 109488, Note_off_c, 9, 42, 17
11, 109488, Note_off_c, 9, 35, 17
11, 109560, Note_on_c, 9, 69, 51
11, 109608, Note_off_c, 9, 69, 17
11, 109680, Note_on_c, 9, 42, 91
11, 109680, Note_on_c, 9, 69, 51
11, 109728, Note_off_c, 9, 42, 17
11, 109728, Note_off_c, 9, 69, 17
11, 109800, Note_on_c, 9, 35, 127
11, 109800, Note_on_c, 9, 69, 51
11, 109848, Note_off_c, 9, 69, 17
11, 109848, Note_off_c, 9, 35, 17
11, 109920, Note_on_c, 9, 38, 127
11, 109920, Note_on_c, 9, 42, 91
11, 109920, Note_on_c, 9, 69, 51
11, 109968, Note_off_c, 9, 69, 17
11, 109968, Note_off_c, 9, 42, 17
11, 109968, Note_off_c, 9, 38, 17
11, 110040, Note_on_c, 9, 69, 51
11, 110088, Note_off_c, 9, 69, 17
11, 110160, Note_on_c, 9, 35, 127
11, 110160, Note_on_c, 9, 47, 117
11, 110160, Note_on_c, 9, 69, 51
11, 110190, Note_off_c, 9, 47, 17
11, 110208, Note_off_c, 9, 69, 17
11, 110208, Note_off_c, 9, 35, 17
11, 110280, Note_on_c, 9, 41, 110
11, 110280, Note_on_c, 9, 69, 51
11, 110310, Note_off_c, 9, 41, 17
11, 110328, Note_off_c, 9, 69, 17
11, 110400, Note_on_c, 9, 35, 127
11, 110400, Note_on_c, 9, 43, 122
11, 110400, Note_on_c, 9, 69, 51
11, 110430, Note_off_c, 9, 43, 17
11, 110448, Note_off_c, 9, 69, 17
11, 110448, Note_off_c, 9, 35, 17
11, 110520, Note_on_c, 9, 41, 122
11, 110520, Note_on_c, 9, 69, 51
11, 110550, Note_off_c, 9, 41, 17
11, 110568, Note_off_c, 9, 69, 17
11, 110640, Note_on_c, 9, 45, 122
11, 110640, Note_on_c, 9, 46, 127
11, 110640, Note_on_c, 9, 69, 51
11, 110670, Note_off_c, 9, 45, 17
11, 110688, Note_off_c, 9, 46, 17
11, 110688, Note_off_c, 9, 69, 17
11, 110760, Note_on_c, 9, 41, 127
11, 110760, Note_on_c, 9, 69, 51
11, 110790, Note_off_c, 9, 41, 17
11, 110808, Note_off_c, 9, 69, 17
11, 110880, Note_on_c, 9, 38, 127
11, 110880, Note_on_c, 9, 42, 127
11, 110880, Note_on_c, 9, 69, 51
11, 110928, Note_off_c, 9, 69, 17
11, 110928, Note_off_c, 9, 42, 17
11, 110928, Note_off_c, 9, 38, 17
11, 111000, Note_on_c, 9, 69, 51
11, 111048, Note_off_c, 9, 69, 17
11, 111120, Note_on_c, 9, 69, 51
11, 111168, Note_off_c, 9, 69, 17
11, 111240, Note_on_c, 9, 69, 51
11, 111288, Note_off_c, 9, 69, 17
11, 111360, Note_on_c, 9, 35, 127
11, 111360, Note_on_c, 9, 49, 109
11, 111360, Note_on_c, 9, 69, 51
11, 111408, Note_off_c, 9, 35, 17
11, 111408, Note_off_c, 9, 69, 17
11, 111408, Note_off_c, 9, 49, 17
11, 111480, Note_on_c, 9, 69, 51
11, 111528, Note_off_c, 9, 69, 17
11, 111600, Note_on_c, 9, 42, 91
11, 111600, Note_on_c, 9, 69, 51
11, 111648, Note_off_c, 9, 69, 17
11, 111648, Note_off_c, 9, 42, 17
11, 111720, Note_on_c, 9, 35, 127
11, 111720, Note_on_c, 9, 69, 51
11, 111768, Note_off_c, 9, 69, 17
11, 111768, Note_off_c, 9, 35, 17
11, 111840, Note_on_c, 9, 38, 127
11, 111840, Note_on_c, 9, 42, 91
11, 111840, Note_on_c, 9, 69, 51
11, 111888, Note_off_c, 9, 69, 17
11, 111888, Note_off_c, 9, 42, 17
11, 111888, Note_off_c, 9, 38, 17
11, 111960, Note_on_c, 9, 69, 51
11, 112008, Note_off_c, 9, 69, 17
11, 112080, Note_on_c, 9, 35, 127
11, 112080, Note_on_c, 9, 42, 91
11, 112080, Note_on_c, 9, 69, 51
11, 112128, Note_off_c, 9, 69, 17
11, 112128, Note_off_c, 9, 42, 17
11, 112128, Note_off_c, 9, 35, 17
11, 112200, Note_on_c, 9, 69, 51
11, 112248, Note_off_c, 9, 69, 17
11, 112320, Note_on_c, 9, 35, 127
11, 112320, Note_on_c, 9, 42, 91
11, 112320, Note_on_c, 9, 69, 51
11, 112368, Note_off_c, 9, 69, 17
11, 112368, Note_off_c, 9, 42, 17
11, 112368, Note_off_c, 9, 35, 17
11, 112440, Note_on_c, 9, 69, 51
11, 112488, Note_off_c, 9, 69, 17
11, 112560, Note_on_c, 9, 42, 91
11, 112560, Note_on_c, 9, 69, 51
11, 112608, Note_off_c, 9, 69, 17
11, 112608, Note_off_c, 9, 42, 17
11, 112680, Note_on_c, 9, 69, 51
11, 112728, Note_off_c, 9, 69, 17
11, 112800, Note_on_c, 9, 38, 127
11, 112800, Note_on_c, 9, 42, 91
11, 112800, Note_on_c, 9, 69, 51
11, 112848, Note_off_c, 9, 69, 17
11, 112848, Note_off_c, 9, 42, 17
11, 112848, Note_off_c, 9, 38, 17
11, 112920, Note_on_c, 9, 69, 51
11, 112968, Note_off_c, 9, 69, 17
11, 113040, Note_on_c, 9, 42, 91
11, 113040, Note_on_c, 9, 69, 51
11, 113088, Note_off_c, 9, 42, 17
11, 113088, Note_off_c, 9, 69, 17
11, 113160, Note_on_c, 9, 69, 51
11, 113208, Note_off_c, 9, 69, 17
11, 113280, Note_on_c, 9, 35, 127
11, 113280, Note_on_c, 9, 42, 91
11, 113280, Note_on_c, 9, 69, 51
11, 113328, Note_off_c, 9, 69, 17
11, 113328, Note_off_c, 9, 42, 17
11, 113328, Note_off_c, 9, 35, 17
11, 113400, Note_on_c, 9, 69, 51
11, 113448, Note_off_c, 9, 69, 17
11, 113520, Note_on_c, 9, 42, 91
11, 113520, Note_on_c, 9, 69, 51
11, 113568, Note_off_c, 9, 42, 17
11, 113568, Note_off_c, 9, 69, 17
11, 113640, Note_on_c, 9, 35, 127
11, 113640, Note_on_c, 9, 69, 51
11, 113688, Note_off_c, 9, 69, 17
11, 113688, Note_off_c, 9, 35, 17
11, 113760, Note_on_c, 9, 38, 127
11, 113760, Note_on_c, 9, 42, 91
11, 113760, Note_on_c, 9, 69, 51
11, 113808, Note_off_c, 9, 69, 17
11, 113808, Note_off_c, 9, 42, 17
11, 113808, Note_off_c, 9, 38, 17
11, 113880, Note_on_c, 9, 69, 51
11, 113928, Note_off_c, 9, 69, 17
11, 114000, Note_on_c, 9, 35, 127
11, 114000, Note_on_c, 9, 42, 91
11, 114000, Note_on_c, 9, 69, 51
11, 114048, Note_off_c, 9, 69, 17
11, 114048, Note_off_c, 9, 42, 17
11, 114048, Note_off_c, 9, 35, 17
11, 114120, Note_on_c, 9, 69, 51
11, 114168, Note_off_c, 9, 69, 17
11, 114240, Note_on_c, 9, 35, 127
11, 114240, Note_on_c, 9, 42, 91
11, 114240, Note_on_c, 9, 69, 51
11, 114288, Note_off_c, 9, 69, 17
11, 114288, Note_off_c, 9, 42, 17
11, 114288, Note_off_c, 9, 35, 17
11, 114360, Note_on_c, 9, 69, 51
11, 114408, Note_off_c, 9, 69, 17
11, 114480, Note_on_c, 9, 46, 127
11, 114480, Note_on_c, 9, 69, 51
11, 114528, Note_off_c, 9, 69, 17
11, 114528, Note_off_c, 9, 46, 17
11, 114600, Note_on_c, 9, 69, 51
11, 114648, Note_off_c, 9, 69, 17
11, 114720, Note_on_c, 9, 38, 127
11, 114720, Note_on_c, 9, 42, 127
11, 114720, Note_on_c, 9, 69, 51
11, 114768, Note_off_c, 9, 69, 17
11, 114768, Note_off_c, 9, 42, 17
11, 114768, Note_off_c, 9, 38, 17
11, 114840, Note_on_c, 9, 69, 51
11, 114888, Note_off_c, 9, 69, 17
11, 114960, Note_on_c, 9, 42, 91
11, 114960, Note_on_c, 9, 69, 51
11, 115008, Note_off_c, 9, 42, 17
11, 115008, Note_off_c, 9, 69, 17
11, 115080, Note_on_c, 9, 69, 51
11, 115128, Note_off_c, 9, 69, 17
11, 115200, Note_on_c, 9, 35, 127
11, 115200, Note_on_c, 9, 42, 91
11, 115200, Note_on_c, 9, 69, 51
11, 115248, Note_off_c, 9, 42, 17
11, 115248, Note_off_c, 9, 35, 17
11, 115248, Note_off_c, 9, 69, 17
11, 115320, Note_on_c, 9, 69, 51
11, 115368, Note_off_c, 9, 69, 17
11, 115440, Note_on_c, 9, 42, 91
11, 115440, Note_on_c, 9, 69, 51
11, 115488, Note_off_c, 9, 69, 17
11, 115488, Note_off_c, 9, 42, 17
11, 115560, Note_on_c, 9, 35, 127
11, 115560, Note_on_c, 9, 69, 51
11, 115608, Note_off_c, 9, 69, 17
11, 115608, Note_off_c, 9, 35, 17
11, 115680, Note_on_c, 9, 38, 127
11, 115680, Note_on_c, 9, 42, 91
11, 115680, Note_on_c, 9, 69, 51
11, 115728, Note_off_c, 9, 69, 17
11, 115728, Note_off_c, 9, 42, 17
11, 115728, Note_off_c, 9, 38, 17
11, 115800, Note_on_c, 9, 69, 51
11, 115848, Note_off_c, 9, 69, 17
11, 115920, Note_on_c, 9, 35, 127
11, 115920, Note_on_c, 9, 42, 91
11, 115920, Note_on_c, 9, 69, 51
11, 115968, Note_off_c, 9, 69, 17
11, 115968, Note_off_c, 9, 42, 17
11, 115968, Note_off_c, 9, 35, 17
11, 116040, Note_on_c, 9, 69, 51
11, 116088, Note_off_c, 9, 69, 17
11, 116160, Note_on_c, 9, 35, 127
11, 116160, Note_on_c, 9, 42, 91
11, 116160, Note_on_c, 9, 69, 51
11, 116208, Note_off_c, 9, 69, 17
11, 116208, Note_off_c, 9, 42, 17
11, 116208, Note_off_c, 9, 35, 17
11, 116280, Note_on_c, 9, 69, 51
11, 116328, Note_off_c, 9, 69, 17
11, 116400, Note_on_c, 9, 42, 91
11, 116400, Note_on_c, 9, 69, 51
11, 116448, Note_off_c, 9, 69, 17
11, 116448, Note_off_c, 9, 42, 17
11, 116520, Note_on_c, 9, 69, 51
11, 116568, Note_off_c, 9, 69, 17
11, 116640, Note_on_c, 9, 38, 127
11, 116640, Note_on_c, 9, 42, 91
11, 116640, Note_on_c, 9, 69, 51
11, 116688, Note_off_c, 9, 69, 17
11, 116688, Note_off_c, 9, 42, 17
11, 116688, Note_off_c, 9, 38, 17
11, 116760, Note_on_c, 9, 69, 51
11, 116808, Note_off_c, 9, 69, 17
11, 116880, Note_on_c, 9, 42, 91
11, 116880, Note_on_c, 9, 69, 51
11, 116928, Note_off_c, 9, 42, 17
11, 116928, Note_off_c, 9, 69, 17
11, 117000, Note_on_c, 9, 69, 51
11, 117048, Note_off_c, 9, 69, 17
11, 117120, Note_on_c, 9, 35, 127
11, 117120, Note_on_c, 9, 42, 91
11, 117120, Note_on_c, 9, 69, 51
11, 117168, Note_off_c, 9, 69, 17
11, 117168, Note_off_c, 9, 42, 17
11, 117168, Note_off_c, 9, 35, 17
11, 117240, Note_on_c, 9, 69, 51
11, 117288, Note_off_c, 9, 69, 17
11, 117360, Note_on_c, 9, 42, 91
11, 117360, Note_on_c, 9, 69, 51
11, 117408, Note_off_c, 9, 69, 17
11, 117408, Note_off_c, 9, 42, 17
11, 117480, Note_on_c, 9, 35, 127
11, 117480, Note_on_c, 9, 69, 51
11, 117528, Note_off_c, 9, 69, 17
11, 117528, Note_off_c, 9, 35, 17
11, 117600, Note_on_c, 9, 38, 127
11, 117600, Note_on_c, 9, 42, 91
11, 117600, Note_on_c, 9, 69, 51
11, 117648, Note_off_c, 9, 69, 17
11, 117648, Note_off_c, 9, 42, 17
11, 117648, Note_off_c, 9, 38, 17
11, 117720, Note_on_c, 9, 69, 51
11, 117768, Note_off_c, 9, 69, 17
11, 117840, Note_on_c, 9, 35, 127
11, 117840, Note_on_c, 9, 47, 117
11, 117840, Note_on_c, 9, 69, 51
11, 117870, Note_off_c, 9, 47, 17
11, 117888, Note_off_c, 9, 69, 17
11, 117888, Note_off_c, 9, 35, 17
11, 117960, Note_on_c, 9, 41, 110
11, 117960, Note_on_c, 9, 69, 51
11, 117990, Note_off_c, 9, 41, 17
11, 118008, Note_off_c, 9, 69, 17
11, 118080, Note_on_c, 9, 35, 127
11, 118080, Note_on_c, 9, 43, 122
11, 118080, Note_on_c, 9, 69, 51
11, 118110, Note_off_c, 9, 43, 17
11, 118128, Note_off_c, 9, 69, 17
11, 118128, Note_off_c, 9, 35, 17
11, 118200, Note_on_c, 9, 41, 122
11, 118200, Note_on_c, 9, 69, 51
11, 118230, Note_off_c, 9, 41, 17
11, 118248, Note_off_c, 9, 69, 17
11, 118320, Note_on_c, 9, 45, 122
11, 118320, Note_on_c, 9, 46, 127
11, 118320, Note_on_c, 9, 69, 51
11, 118350, Note_off_c, 9, 45, 17
11, 118368, Note_off_c, 9, 69, 17
11, 118368, Note_off_c, 9, 46, 17
11, 118440, Note_on_c, 9, 41, 127
11, 118440, Note_on_c, 9, 69, 51
11, 118470, Note_off_c, 9, 41, 17
11, 118488, Note_off_c, 9, 69, 17
11, 118560, Note_on_c, 9, 38, 127
11, 118560, Note_on_c, 9, 42, 127
11, 118560, Note_on_c, 9, 69, 51
11, 118608, Note_off_c, 9, 69, 17
11, 118608, Note_off_c, 9, 38, 17
11, 118608, Note_off_c, 9, 42, 17
11, 118680, Note_on_c, 9, 69, 51
11, 118728, Note_off_c, 9, 69, 17
11, 118800, Note_on_c, 9, 69, 51
11, 118848, Note_off_c, 9, 69, 17
11, 118920, Note_on_c, 9, 69, 51
11, 118968, Note_off_c, 9, 69, 17
11, 119040, Note_on_c, 9, 35, 127
11, 119040, Note_on_c, 9, 49, 109
11, 119040, Note_on_c, 9, 69, 51
11, 119088, Note_off_c, 9, 49, 17
11, 119088, Note_off_c, 9, 35, 17
11, 119088, Note_off_c, 9, 69, 17
11, 119160, Note_on_c, 9, 69, 51
11, 119208, Note_off_c, 9, 69, 17
11, 119280, Note_on_c, 9, 42, 91
11, 119280, Note_on_c, 9, 69, 51
11, 119328, Note_off_c, 9, 42, 17
11, 119328, Note_off_c, 9, 69, 17
11, 119400, Note_on_c, 9, 35, 127
11, 119400, Note_on_c, 9, 69, 51
11, 119448, Note_off_c, 9, 69, 17
11, 119448, Note_off_c, 9, 35, 17
11, 119520, Note_on_c, 9, 38, 127
11, 119520, Note_on_c, 9, 42, 91
11, 119520, Note_on_c, 9, 69, 51
11, 119568, Note_off_c, 9, 69, 17
11, 119568, Note_off_c, 9, 42, 17
11, 119568, Note_off_c, 9, 38, 17
11, 119640, Note_on_c, 9, 69, 51
11, 119688, Note_off_c, 9, 69, 17
11, 119760, Note_on_c, 9, 35, 127
11, 119760, Note_on_c, 9, 42, 91
11, 119760, Note_on_c, 9, 69, 51
11, 119808, Note_off_c, 9, 69, 17
11, 119808, Note_off_c, 9, 35, 17
11, 119808, Note_off_c, 9, 42, 17
11, 119880, Note_on_c, 9, 69, 51
11, 119928, Note_off_c, 9, 69, 17
11, 120000, Note_on_c, 9, 35, 127
11, 120000, Note_on_c, 9, 42, 91
11, 120000, Note_on_c, 9, 69, 51
11, 120048, Note_off_c, 9, 69, 17
11, 120048, Note_off_c, 9, 35, 17
11, 120048, Note_off_c, 9, 42, 17
11, 120120, Note_on_c, 9, 69, 51
11, 120168, Note_off_c, 9, 69, 17
11, 120240, Note_on_c, 9, 42, 91
11, 120240, Note_on_c, 9, 69, 51
11, 120288, Note_off_c, 9, 69, 17
11, 120288, Note_off_c, 9, 42, 17
11, 120360, Note_on_c, 9, 69, 51
11, 120408, Note_off_c, 9, 69, 17
11, 120480, Note_on_c, 9, 38, 127
11, 120480, Note_on_c, 9, 42, 91
11, 120480, Note_on_c, 9, 69, 51
11, 120528, Note_off_c, 9, 38, 17
11, 120528, Note_off_c, 9, 69, 17
11, 120528, Note_off_c, 9, 42, 17
11, 120600, Note_on_c, 9, 69, 51
11, 120648, Note_off_c, 9, 69, 17
11, 120720, Note_on_c, 9, 42, 91
11, 120720, Note_on_c, 9, 69, 51
11, 120768, Note_off_c, 9, 69, 17
11, 120768, Note_off_c, 9, 42, 17
11, 120840, Note_on_c, 9, 69, 51
11, 120888, Note_off_c, 9, 69, 17
11, 120960, Note_on_c, 9, 35, 127
11, 120960, Note_on_c, 9, 42, 91
11, 120960, Note_on_c, 9, 69, 51
11, 121008, Note_off_c, 9, 35, 17
11, 121008, Note_off_c, 9, 69, 17
11, 121008, Note_off_c, 9, 42, 17
11, 121080, Note_on_c, 9, 69, 51
11, 121128, Note_off_c, 9, 69, 17
11, 121200, Note_on_c, 9, 42, 91
11, 121200, Note_on_c, 9, 69, 51
11, 121248, Note_off_c, 9, 42, 17
11, 121248, Note_off_c, 9, 69, 17
11, 121320, Note_on_c, 9, 35, 127
11, 121320, Note_on_c, 9, 69, 51
11, 121368, Note_off_c, 9, 69, 17
11, 121368, Note_off_c, 9, 35, 17
11, 121440, Note_on_c, 9, 38, 127
11, 121440, Note_on_c, 9, 42, 91
11, 121440, Note_on_c, 9, 69, 51
11, 121488, Note_off_c, 9, 69, 17
11, 121488, Note_off_c, 9, 42, 17
11, 121488, Note_off_c, 9, 38, 17
11, 121560, Note_on_c, 9, 69, 51
11, 121608, Note_off_c, 9, 69, 17
11, 121680, Note_on_c, 9, 35, 127
11, 121680, Note_on_c, 9, 42, 91
11, 121680, Note_on_c, 9, 69, 51
11, 121728, Note_off_c, 9, 69, 17
11, 121728, Note_off_c, 9, 35, 17
11, 121728, Note_off_c, 9, 42, 17
11, 121800, Note_on_c, 9, 69, 51
11, 121848, Note_off_c, 9, 69, 17
11, 121920, Note_on_c, 9, 35, 127
11, 121920, Note_on_c, 9, 42, 91
11, 121920, Note_on_c, 9, 69, 51
11, 121968, Note_off_c, 9, 69, 17
11, 121968, Note_off_c, 9, 35, 17
11, 121968, Note_off_c, 9, 42, 17
11, 122040, Note_on_c, 9, 69, 51
11, 122088, Note_off_c, 9, 69, 17
11, 122160, Note_on_c, 9, 46, 127
11, 122160, Note_on_c, 9, 69, 51
11, 122208, Note_off_c, 9, 69, 17
11, 122208, Note_off_c, 9, 46, 17
11, 122280, Note_on_c, 9, 69, 51
11, 122328, Note_off_c, 9, 69, 17
11, 122400, Note_on_c, 9, 38, 127
11, 122400, Note_on_c, 9, 42, 127
11, 122400, Note_on_c, 9, 69, 51
11, 122448, Note_off_c, 9, 69, 17
11, 122448, Note_off_c, 9, 42, 17
11, 122448, Note_off_c, 9, 38, 17
11, 122520, Note_on_c, 9, 69, 51
11, 122568, Note_off_c, 9, 69, 17
11, 122640, Note_on_c, 9, 42, 91
11, 122640, Note_on_c, 9, 69, 51
11, 122688, Note_off_c, 9, 42, 17
11, 122688, Note_off_c, 9, 69, 17
11, 122760, Note_on_c, 9, 69, 51
11, 122808, Note_off_c, 9, 69, 17
11, 122880, Note_on_c, 9, 35, 127
11, 122880, Note_on_c, 9, 42, 91
11, 122880, Note_on_c, 9, 69, 51
11, 122928, Note_off_c, 9, 69, 17
11, 122928, Note_off_c, 9, 35, 17
11, 122928, Note_off_c, 9, 42, 17
11, 123000, Note_on_c, 9, 69, 51
11, 123048, Note_off_c, 9, 69, 17
11, 123120, Note_on_c, 9, 42, 91
11, 123120, Note_on_c, 9, 69, 51
11, 123168, Note_off_c, 9, 69, 17
11, 123168, Note_off_c, 9, 42, 17
11, 123240, Note_on_c, 9, 35, 127
11, 123240, Note_on_c, 9, 69, 51
11, 123288, Note_off_c, 9, 69, 17
11, 123288, Note_off_c, 9, 35, 17
11, 123360, Note_on_c, 9, 38, 127
11, 123360, Note_on_c, 9, 42, 91
11, 123360, Note_on_c, 9, 69, 51
11, 123408, Note_off_c, 9, 69, 17
11, 123408, Note_off_c, 9, 42, 17
11, 123408, Note_off_c, 9, 38, 17
11, 123480, Note_on_c, 9, 69, 51
11, 123528, Note_off_c, 9, 69, 17
11, 123600, Note_on_c, 9, 35, 127
11, 123600, Note_on_c, 9, 42, 91
11, 123600, Note_on_c, 9, 69, 51
11, 123648, Note_off_c, 9, 69, 17
11, 123648, Note_off_c, 9, 42, 17
11, 123648, Note_off_c, 9, 35, 17
11, 123720, Note_on_c, 9, 69, 51
11, 123768, Note_off_c, 9, 69, 17
11, 123840, Note_on_c, 9, 35, 127
11, 123840, Note_on_c, 9, 42, 91
11, 123840, Note_on_c, 9, 69, 51
11, 123888, Note_off_c, 9, 69, 17
11, 123888, Note_off_c, 9, 42, 17
11, 123888, Note_off_c, 9, 35, 17
11, 123960, Note_on_c, 9, 69, 51
11, 124008, Note_off_c, 9, 69, 17
11, 124080, Note_on_c, 9, 42, 91
11, 124080, Note_on_c, 9, 69, 51
11, 124128, Note_off_c, 9, 69, 17
11, 124128, Note_off_c, 9, 42, 17
11, 124200, Note_on_c, 9, 69, 51
11, 124248, Note_off_c, 9, 69, 17
11, 124320, Note_on_c, 9, 38, 127
11, 124320, Note_on_c, 9, 42, 91
11, 124320, Note_on_c, 9, 69, 51
11, 124368, Note_off_c, 9, 69, 17
11, 124368, Note_off_c, 9, 42, 17
11, 124368, Note_off_c, 9, 38, 17
11, 124440, Note_on_c, 9, 69, 51
11, 124488, Note_off_c, 9, 69, 17
11, 124560, Note_on_c, 9, 42, 91
11, 124560, Note_on_c, 9, 69, 51
11, 124608, Note_off_c, 9, 69, 17
11, 124608, Note_off_c, 9, 42, 17
11, 124680, Note_on_c, 9, 69, 51
11, 124728, Note_off_c, 9, 69, 17
11, 124800, Note_on_c, 9, 35, 127
11, 124800, Note_on_c, 9, 42, 91
11, 124800, Note_on_c, 9, 69, 51
11, 124848, Note_off_c, 9, 69, 17
11, 124848, Note_off_c, 9, 42, 17
11, 124848, Note_off_c, 9, 35, 17
11, 124920, Note_on_c, 9, 69, 51
11, 124968, Note_off_c, 9, 69, 17
11, 125040, Note_on_c, 9, 42, 91
11, 125040, Note_on_c, 9, 69, 51
11, 125088, Note_off_c, 9, 42, 17
11, 125088, Note_off_c, 9, 69, 17
11, 125160, Note_on_c, 9, 35, 127
11, 125160, Note_on_c, 9, 69, 51
11, 125208, Note_off_c, 9, 69, 17
11, 125208, Note_off_c, 9, 35, 17
11, 125280, Note_on_c, 9, 38, 127
11, 125280, Note_on_c, 9, 42, 91
11, 125280, Note_on_c, 9, 69, 51
11, 125328, Note_off_c, 9, 69, 17
11, 125328, Note_off_c, 9, 42, 17
11, 125328, Note_off_c, 9, 38, 17
11, 125400, Note_on_c, 9, 69, 51
11, 125448, Note_off_c, 9, 69, 17
11, 125520, Note_on_c, 9, 35, 127
11, 125520, Note_on_c, 9, 47, 117
11, 125520, Note_on_c, 9, 69, 51
11, 125550, Note_off_c, 9, 47, 17
11, 125568, Note_off_c, 9, 69, 17
11, 125568, Note_off_c, 9, 35, 17
11, 125640, Note_on_c, 9, 41, 110
11, 125640, Note_on_c, 9, 69, 51
11, 125670, Note_off_c, 9, 41, 17
11, 125688, Note_off_c, 9, 69, 17
11, 125760, Note_on_c, 9, 35, 127
11, 125760, Note_on_c, 9, 43, 122
11, 125760, Note_on_c, 9, 69, 51
11, 125790, Note_off_c, 9, 43, 17
11, 125808, Note_off_c, 9, 69, 17
11, 125808, Note_off_c, 9, 35, 17
11, 125880, Note_on_c, 9, 41, 122
11, 125880, Note_on_c, 9, 69, 51
11, 125910, Note_off_c, 9, 41, 17
11, 125928, Note_off_c, 9, 69, 17
11, 126000, Note_on_c, 9, 45, 122
11, 126000, Note_on_c, 9, 46, 127
11, 126000, Note_on_c, 9, 69, 51
11, 126030, Note_off_c, 9, 45, 17
11, 126048, Note_off_c, 9, 46, 17
11, 126048, Note_off_c, 9, 69, 17
11, 126120, Note_on_c, 9, 41, 127
11, 126120, Note_on_c, 9, 69, 51
11, 126150, Note_off_c, 9, 41, 17
11, 126168, Note_off_c, 9, 69, 17
11, 126240, Note_on_c, 9, 38, 127
11, 126240, Note_on_c, 9, 42, 127
11, 126240, Note_on_c, 9, 69, 51
11, 126288, Note_off_c, 9, 69, 17
11, 126288, Note_off_c, 9, 42, 17
11, 126288, Note_off_c, 9, 38, 17
11, 126360, Note_on_c, 9, 69, 51
11, 126408, Note_off_c, 9, 69, 17
11, 126480, Note_on_c, 9, 69, 51
11, 126528, Note_off_c, 9, 69, 17
11, 126600, Note_on_c, 9, 69, 51
11, 126648, Note_off_c, 9, 69, 17
11, 126720, Note_on_c, 9, 35, 114
11, 126720, Note_on_c, 9, 43, 127
11, 126720, Note_on_c, 9, 49, 110
11, 126750, Note_off_c, 9, 43, 17
11, 126750, Note_off_c, 9, 35, 17
11, 126768, Note_off_c, 9, 49, 17
11, 127080, Note_on_c, 9, 35, 119
11, 127080, Note_on_c, 9, 43, 125
11, 127110, Note_off_c, 9, 43, 17
11, 127110, Note_off_c, 9, 35, 17
11, 127200, Note_on_c, 9, 38, 127
11, 127200, Note_on_c, 9, 39, 119
11, 127230, Note_off_c, 9, 39, 17
11, 127230, Note_off_c, 9, 38, 17
11, 127440, Note_on_c, 9, 35, 125
11, 127440, Note_on_c, 9, 43, 125
11, 127470, Note_off_c, 9, 43, 17
11, 127470, Note_off_c, 9, 35, 17
11, 127680, Note_on_c, 9, 35, 122
11, 127680, Note_on_c, 9, 43, 125
11, 127710, Note_off_c, 9, 43, 17
11, 127710, Note_off_c, 9, 35, 17
11, 127920, Note_on_c, 9, 69, 64
11, 128036, Note_off_c, 9, 69, 17
11, 128040, Note_on_c, 9, 69, 64
11, 128156, Note_off_c, 9, 69, 17
11, 128160, Note_on_c, 9, 38, 127
11, 128160, Note_on_c, 9, 39, 119
11, 128190, Note_off_c, 9, 39, 17
11, 128190, Note_off_c, 9, 38, 17
11, 128640, Note_on_c, 9, 35, 114
11, 128640, Note_on_c, 9, 43, 127
11, 128670, Note_off_c, 9, 43, 17
11, 128670, Note_off_c, 9, 35, 17
11, 129000, Note_on_c, 9, 35, 119
11, 129000, Note_on_c, 9, 43, 125
11, 129030, Note_off_c, 9, 43, 17
11, 129030, Note_off_c, 9, 35, 17
11, 129120, Note_on_c, 9, 38, 127
11, 129120, Note_on_c, 9, 39, 119
11, 129150, Note_off_c, 9, 39, 17
11, 129150, Note_off_c, 9, 38, 17
11, 129360, Note_on_c, 9, 35, 125
11, 129360, Note_on_c, 9, 43, 125
11, 129390, Note_off_c, 9, 43, 17
11, 129390, Note_off_c, 9, 35, 17
11, 129600, Note_on_c, 9, 35, 122
11, 129600, Note_on_c, 9, 43, 125
11, 129630, Note_off_c, 9, 43, 17
11, 129630, Note_off_c, 9, 35, 17
11, 129840, Note_on_c, 9, 46, 125
11, 129870, Note_off_c, 9, 46, 17
11, 130080, Note_on_c, 9, 38, 127
11, 130080, Note_on_c, 9, 39, 119
11, 130110, Note_off_c, 9, 39, 17
11, 130110, Note_off_c, 9, 38, 17
11, 130560, Note_on_c, 9, 35, 114
11, 130560, Note_on_c, 9, 43, 127
11, 130590, Note_off_c, 9, 43, 17
11, 130590, Note_off_c, 9, 35, 17
11, 130920, Note_on_c, 9, 35, 119
11, 130920, Note_on_c, 9, 43, 125
11, 130950, Note_off_c, 9, 43, 17
11, 130950, Note_off_c, 9, 35, 17
11, 131040, Note_on_c, 9, 38, 127
11, 131040, Note_on_c, 9, 39, 119
11, 131070, Note_off_c, 9, 39, 17
11, 131070, Note_off_c, 9, 38, 17
11, 131280, Note_on_c, 9, 35, 125
11, 131280, Note_on_c, 9, 43, 125
11, 131310, Note_off_c, 9, 43, 17
11, 131310, Note_off_c, 9, 35, 17
11, 131520, Note_on_c, 9, 35, 122
11, 131520, Note_on_c, 9, 43, 125
11, 131550, Note_off_c, 9, 43, 17
11, 131550, Note_off_c, 9, 35, 17
11, 131760, Note_on_c, 9, 69, 64
11, 131876, Note_off_c, 9, 69, 17
11, 131880, Note_on_c, 9, 69, 64
11, 131996, Note_off_c, 9, 69, 17
11, 132000, Note_on_c, 9, 38, 127
11, 132000, Note_on_c, 9, 39, 119
11, 132030, Note_off_c, 9, 39, 17
11, 132030, Note_off_c, 9, 38, 17
11, 132480, Note_on_c, 9, 35, 114
11, 132480, Note_on_c, 9, 43, 127
11, 132510, Note_off_c, 9, 43, 17
11, 132510, Note_off_c, 9, 35, 17
11, 132840, Note_on_c, 9, 35, 119
11, 132840, Note_on_c, 9, 43, 125
11, 132870, Note_off_c, 9, 43, 17
11, 132870, Note_off_c, 9, 35, 17
11, 132960, Note_on_c, 9, 38, 127
11, 132960, Note_on_c, 9, 39, 119
11, 132990, Note_off_c, 9, 39, 17
11, 132990, Note_off_c, 9, 38, 17
11, 133200, Note_on_c, 9, 47, 106
11, 133230, Note_off_c, 9, 47, 17
11, 133320, Note_on_c, 9, 41, 99
11, 133350, Note_off_c, 9, 41, 17
11, 133440, Note_on_c, 9, 43, 111
11, 133470, Note_off_c, 9, 43, 17
11, 133560, Note_on_c, 9, 41, 111
11, 133590, Note_off_c, 9, 41, 17
11, 133680, Note_on_c, 9, 45, 111
11, 133710, Note_off_c, 9, 45, 17
11, 133800, Note_on_c, 9, 41, 122
11, 133830, Note_off_c, 9, 41, 17
11, 133920, Note_on_c, 9, 38, 127
11, 133920, Note_on_c, 9, 39, 119
11, 133950, Note_off_c, 9, 39, 17
11, 133950, Note_off_c, 9, 38, 17
11, 134400, Note_on_c, 9, 35, 114
11, 134400, Note_on_c, 9, 43, 127
11, 134430, Note_off_c, 9, 43, 17
11, 134430, Note_off_c, 9, 35, 17
11, 134760, Note_on_c, 9, 35, 119
11, 134760, Note_on_c, 9, 43, 125
11, 134790, Note_off_c, 9, 43, 17
11, 134790, Note_off_c, 9, 35, 17
11, 134880, Note_on_c, 9, 38, 127
11, 134880, Note_on_c, 9, 39, 119
11, 134910, Note_off_c, 9, 39, 17
11, 134910, Note_off_c, 9, 38, 17
11, 135120, Note_on_c, 9, 35, 125
11, 135120, Note_on_c, 9, 43, 125
11, 135150, Note_off_c, 9, 43, 17
11, 135150, Note_off_c, 9, 35, 17
11, 135360, Note_on_c, 9, 35, 122
11, 135360, Note_on_c, 9, 43, 125
11, 135390, Note_off_c, 9, 43, 17
11, 135390, Note_off_c, 9, 35, 17
11, 135600, Note_on_c, 9, 69, 64
11, 135716, Note_off_c, 9, 69, 17
11, 135720, Note_on_c, 9, 69, 64
11, 135836, Note_off_c, 9, 69, 17
11, 135840, Note_on_c, 9, 38, 127
11, 135840, Note_on_c, 9, 39, 119
11, 135870, Note_off_c, 9, 39, 17
11, 135870, Note_off_c, 9, 38, 17
11, 136320, Note_on_c, 9, 35, 114
11, 136320, Note_on_c, 9, 43, 127
11, 136350, Note_off_c, 9, 43, 17
11, 136350, Note_off_c, 9, 35, 17
11, 136680, Note_on_c, 9, 35, 119
11, 136680, Note_on_c, 9, 43, 125
11, 136710, Note_off_c, 9, 43, 17
11, 136710, Note_off_c, 9, 35, 17
11, 136800, Note_on_c, 9, 38, 127
11, 136800, Note_on_c, 9, 39, 119
11, 136830, Note_off_c, 9, 39, 17
11, 136830, Note_off_c, 9, 38, 17
11, 137040, Note_on_c, 9, 35, 125
11, 137040, Note_on_c, 9, 43, 125
11, 137070, Note_off_c, 9, 43, 17
11, 137070, Note_off_c, 9, 35, 17
11, 137280, Note_on_c, 9, 35, 122
11, 137280, Note_on_c, 9, 43, 125
11, 137310, Note_off_c, 9, 43, 17
11, 137310, Note_off_c, 9, 35, 17
11, 137520, Note_on_c, 9, 46, 125
11, 137550, Note_off_c, 9, 46, 17
11, 137760, Note_on_c, 9, 38, 127
11, 137760, Note_on_c, 9, 39, 119
11, 137790, Note_off_c, 9, 39, 17
11, 137790, Note_off_c, 9, 38, 17
11, 138240, Note_on_c, 9, 35, 114
11, 138240, Note_on_c, 9, 43, 127
11, 138270, Note_off_c, 9, 43, 17
11, 138270, Note_off_c, 9, 35, 17
11, 138600, Note_on_c, 9, 35, 119
11, 138600, Note_on_c, 9, 43, 125
11, 138630, Note_off_c, 9, 43, 17
11, 138630, Note_off_c, 9, 35, 17
11, 138720, Note_on_c, 9, 38, 127
11, 138720, Note_on_c, 9, 39, 119
11, 138750, Note_off_c, 9, 39, 17
11, 138750, Note_off_c, 9, 38, 17
11, 138960, Note_on_c, 9, 35, 125
11, 138960, Note_on_c, 9, 43, 125
11, 138990, Note_off_c, 9, 43, 17
11, 138990, Note_off_c, 9, 35, 17
11, 139200, Note_on_c, 9, 35, 122
11, 139200, Note_on_c, 9, 43, 125
11, 139230, Note_off_c, 9, 43, 17
11, 139230, Note_off_c, 9, 35, 17
11, 139440, Note_on_c, 9, 69, 64
11, 139556, Note_off_c, 9, 69, 17
11, 139560, Note_on_c, 9, 69, 64
11, 139676, Note_off_c, 9, 69, 17
11, 139680, Note_on_c, 9, 38, 127
11, 139680, Note_on_c, 9, 39, 119
11, 139710, Note_off_c, 9, 39, 17
11, 139710, Note_off_c, 9, 38, 17
11, 140160, Note_on_c, 9, 35, 114
11, 140160, Note_on_c, 9, 43, 127
11, 140190, Note_off_c, 9, 43, 17
11, 140190, Note_off_c, 9, 35, 17
11, 140520, Note_on_c, 9, 35, 119
11, 140520, Note_on_c, 9, 43, 125
11, 140550, Note_off_c, 9, 43, 17
11, 140550, Note_off_c, 9, 35, 17
11, 140640, Note_on_c, 9, 38, 127
11, 140640, Note_on_c, 9, 39, 119
11, 140670, Note_off_c, 9, 39, 17
11, 140670, Note_off_c, 9, 38, 17
11, 140880, Note_on_c, 9, 47, 106
11, 140910, Note_off_c, 9, 47, 17
11, 141000, Note_on_c, 9, 41, 99
11, 141030, Note_off_c, 9, 41, 17
11, 141120, Note_on_c, 9, 43, 111
11, 141150, Note_off_c, 9, 43, 17
11, 141240, Note_on_c, 9, 41, 111
11, 141270, Note_off_c, 9, 41, 17
11, 141360, Note_on_c, 9, 45, 111
11, 141390, Note_off_c, 9, 45, 17
11, 141480, Note_on_c, 9, 41, 122
11, 141510, Note_off_c, 9, 41, 17
11, 141600, Note_on_c, 9, 38, 127
11, 141600, Note_on_c, 9, 39, 119
11, 141630, Note_off_c, 9, 39, 17
11, 141630, Note_off_c, 9, 38, 17
11, 155520, Note_on_c, 9, 48, 127
11, 155550, Note_off_c, 9, 48, 17
11, 155640, Note_on_c, 9, 45, 125
11, 155670, Note_off_c, 9, 45, 17
11, 155880, Note_on_c, 9, 47, 127
11, 155910, Note_off_c, 9, 47, 17
11, 156120, Note_on_c, 9, 43, 114
11, 156150, Note_off_c, 9, 43, 17
11, 156240, Note_on_c, 9, 45, 114
11, 156270, Note_off_c, 9, 45, 17
11, 156360, Note_on_c, 9, 41, 111
11, 156390, Note_off_c, 9, 41, 17
11, 156480, Note_on_c, 9, 45, 127
11, 156510, Note_off_c, 9, 45, 17
11, 156600, Note_on_c, 9, 43, 127
11, 156630, Note_off_c, 9, 43, 17
11, 156720, Note_on_c, 9, 43, 122
11, 156750, Note_off_c, 9, 43, 17
11, 156840, Note_on_c, 9, 35, 122
11, 156870, Note_off_c, 9, 35, 17
11, 156960, Note_on_c, 9, 40, 114
11, 156960, Note_on_c, 9, 49, 119
11, 156990, Note_off_c, 9, 49, 17
11, 156990, Note_off_c, 9, 40, 17
11, 157440, Note_on_c, 9, 35, 127
11, 157440, Note_on_c, 9, 49, 109
11, 157440, Note_on_c, 9, 69, 51
11, 157488, Note_off_c, 9, 69, 17
11, 157488, Note_off_c, 9, 49, 17
11, 157488, Note_off_c, 9, 35, 17
11, 157560, Note_on_c, 9, 69, 51
11, 157608, Note_off_c, 9, 69, 17
11, 157680, Note_on_c, 9, 42, 91
11, 157680, Note_on_c, 9, 69, 51
11, 157728, Note_off_c, 9, 42, 17
11, 157728, Note_off_c, 9, 69, 17
11, 157800, Note_on_c, 9, 35, 127
11, 157800, Note_on_c, 9, 69, 51
11, 157848, Note_off_c, 9, 69, 17
11, 157848, Note_off_c, 9, 35, 17
11, 157920, Note_on_c, 9, 38, 127
11, 157920, Note_on_c, 9, 42, 91
11, 157920, Note_on_c, 9, 69, 51
11, 157968, Note_off_c, 9, 69, 17
11, 157968, Note_off_c, 9, 42, 17
11, 157968, Note_off_c, 9, 38, 17
11, 158040, Note_on_c, 9, 69, 51
11, 158088, Note_off_c, 9, 69, 17
11, 158160, Note_on_c, 9, 35, 127
11, 158160, Note_on_c, 9, 42, 91
11, 158160, Note_on_c, 9, 69, 51
11, 158208, Note_off_c, 9, 69, 17
11, 158208, Note_off_c, 9, 42, 17
11, 158208, Note_off_c, 9, 35, 17
11, 158280, Note_on_c, 9, 69, 51
11, 158328, Note_off_c, 9, 69, 17
11, 158400, Note_on_c, 9, 35, 127
11, 158400, Note_on_c, 9, 42, 91
11, 158400, Note_on_c, 9, 69, 51
11, 158448, Note_off_c, 9, 69, 17
11, 158448, Note_off_c, 9, 42, 17
11, 158448, Note_off_c, 9, 35, 17
11, 158520, Note_on_c, 9, 69, 51
11, 158568, Note_off_c, 9, 69, 17
11, 158640, Note_on_c, 9, 42, 91
11, 158640, Note_on_c, 9, 69, 51
11, 158688, Note_off_c, 9, 69, 17
11, 158688, Note_off_c, 9, 42, 17
11, 158760, Note_on_c, 9, 69, 51
11, 158808, Note_off_c, 9, 69, 17
11, 158880, Note_on_c, 9, 38, 127
11, 158880, Note_on_c, 9, 42, 91
11, 158880, Note_on_c, 9, 69, 51
11, 158928, Note_off_c, 9, 69, 17
11, 158928, Note_off_c, 9, 42, 17
11, 158928, Note_off_c, 9, 38, 17
11, 159000, Note_on_c, 9, 69, 51
11, 159048, Note_off_c, 9, 69, 17
11, 159120, Note_on_c, 9, 42, 91
11, 159120, Note_on_c, 9, 69, 51
11, 159168, Note_off_c, 9, 42, 17
11, 159168, Note_off_c, 9, 69, 17
11, 159240, Note_on_c, 9, 69, 51
11, 159288, Note_off_c, 9, 69, 17
11, 159360, Note_on_c, 9, 35, 127
11, 159360, Note_on_c, 9, 42, 91
11, 159360, Note_on_c, 9, 69, 51
11, 159408, Note_off_c, 9, 69, 17
11, 159408, Note_off_c, 9, 42, 17
11, 159408, Note_off_c, 9, 35, 17
11, 159480, Note_on_c, 9, 69, 51
11, 159528, Note_off_c, 9, 69, 17
11, 159600, Note_on_c, 9, 42, 91
11, 159600, Note_on_c, 9, 69, 51
11, 159648, Note_off_c, 9, 42, 17
11, 159648, Note_off_c, 9, 69, 17
11, 159720, Note_on_c, 9, 35, 127
11, 159720, Note_on_c, 9, 69, 51
11, 159768, Note_off_c, 9, 69, 17
11, 159768, Note_off_c, 9, 35, 17
11, 159840, Note_on_c, 9, 38, 127
11, 159840, Note_on_c, 9, 42, 91
11, 159840, Note_on_c, 9, 69, 51
11, 159888, Note_off_c, 9, 69, 17
11, 159888, Note_off_c, 9, 42, 17
11, 159888, Note_off_c, 9, 38, 17
11, 159960, Note_on_c, 9, 69, 51
11, 160008, Note_off_c, 9, 69, 17
11, 160080, Note_on_c, 9, 35, 127
11, 160080, Note_on_c, 9, 42, 91
11, 160080, Note_on_c, 9, 69, 51
11, 160128, Note_off_c, 9, 69, 17
11, 160128, Note_off_c, 9, 42, 17
11, 160128, Note_off_c, 9, 35, 17
11, 160200, Note_on_c, 9, 69, 51
11, 160248, Note_off_c, 9, 69, 17
11, 160320, Note_on_c, 9, 35, 127
11, 160320, Note_on_c, 9, 42, 91
11, 160320, Note_on_c, 9, 69, 51
11, 160368, Note_off_c, 9, 69, 17
11, 160368, Note_off_c, 9, 42, 17
11, 160368, Note_off_c, 9, 35, 17
11, 160440, Note_on_c, 9, 69, 51
11, 160488, Note_off_c, 9, 69, 17
11, 160560, Note_on_c, 9, 46, 127
11, 160560, Note_on_c, 9, 69, 51
11, 160608, Note_off_c, 9, 69, 17
11, 160608, Note_off_c, 9, 46, 17
11, 160680, Note_on_c, 9, 69, 51
11, 160728, Note_off_c, 9, 69, 17
11, 160800, Note_on_c, 9, 38, 127
11, 160800, Note_on_c, 9, 42, 127
11, 160800, Note_on_c, 9, 69, 51
11, 160848, Note_off_c, 9, 69, 17
11, 160848, Note_off_c, 9, 42, 17
11, 160848, Note_off_c, 9, 38, 17
11, 160920, Note_on_c, 9, 69, 51
11, 160968, Note_off_c, 9, 69, 17
11, 161040, Note_on_c, 9, 42, 91
11, 161040, Note_on_c, 9, 69, 51
11, 161088, Note_off_c, 9, 42, 17
11, 161088, Note_off_c, 9, 69, 17
11, 161160, Note_on_c, 9, 69, 51
11, 161208, Note_off_c, 9, 69, 17
11, 161280, Note_on_c, 9, 35, 127
11, 161280, Note_on_c, 9, 42, 91
11, 161280, Note_on_c, 9, 69, 51
11, 161328, Note_off_c, 9, 42, 17
11, 161328, Note_off_c, 9, 35, 17
11, 161328, Note_off_c, 9, 69, 17
11, 161400, Note_on_c, 9, 69, 51
11, 161448, Note_off_c, 9, 69, 17
11, 161520, Note_on_c, 9, 42, 91
11, 161520, Note_on_c, 9, 69, 51
11, 161568, Note_off_c, 9, 69, 17
11, 161568, Note_off_c, 9, 42, 17
11, 161640, Note_on_c, 9, 35, 127
11, 161640, Note_on_c, 9, 69, 51
11, 161688, Note_off_c, 9, 69, 17
11, 161688, Note_off_c, 9, 35, 17
11, 161760, Note_on_c, 9, 38, 127
11, 161760, Note_on_c, 9, 42, 91
11, 161760, Note_on_c, 9, 69, 51
11, 161808, Note_off_c, 9, 69, 17
11, 161808, Note_off_c, 9, 42, 17
11, 161808, Note_off_c, 9, 38, 17
11, 161880, Note_on_c, 9, 69, 51
11, 161928, Note_off_c, 9, 69, 17
11, 162000, Note_on_c, 9, 35, 127
11, 162000, Note_on_c, 9, 42, 91
11, 162000, Note_on_c, 9, 69, 51
11, 162048, Note_off_c, 9, 69, 17
11, 162048, Note_off_c, 9, 42, 17
11, 162048, Note_off_c, 9, 35, 17
11, 162120, Note_on_c, 9, 69, 51
11, 162168, Note_off_c, 9, 69, 17
11, 162240, Note_on_c, 9, 35, 127
11, 162240, Note_on_c, 9, 42, 91
11, 162240, Note_on_c, 9, 69, 51
11, 162288, Note_off_c, 9, 69, 17
11, 162288, Note_off_c, 9, 42, 17
11, 162288, Note_off_c, 9, 35, 17
11, 162360, Note_on_c, 9, 69, 51
11, 162408, Note_off_c, 9, 69, 17
11, 162480, Note_on_c, 9, 42, 91
11, 162480, Note_on_c, 9, 69, 51
11, 162528, Note_off_c, 9, 69, 17
11, 162528, Note_off_c, 9, 42, 17
11, 162600, Note_on_c, 9, 69, 51
11, 162648, Note_off_c, 9, 69, 17
11, 162720, Note_on_c, 9, 38, 127
11, 162720, Note_on_c, 9, 42, 91
11, 162720, Note_on_c, 9, 69, 51
11, 162768, Note_off_c, 9, 69, 17
11, 162768, Note_off_c, 9, 42, 17
11, 162768, Note_off_c, 9, 38, 17
11, 162840, Note_on_c, 9, 69, 51
11, 162888, Note_off_c, 9, 69, 17
11, 162960, Note_on_c, 9, 42, 91
11, 162960, Note_on_c, 9, 69, 51
11, 163008, Note_off_c, 9, 42, 17
11, 163008, Note_off_c, 9, 69, 17
11, 163080, Note_on_c, 9, 69, 51
11, 163128, Note_off_c, 9, 69, 17
11, 163200, Note_on_c, 9, 35, 127
11, 163200, Note_on_c, 9, 42, 91
11, 163200, Note_on_c, 9, 69, 51
11, 163248, Note_off_c, 9, 69, 17
11, 163248, Note_off_c, 9, 42, 17
11, 163248, Note_off_c, 9, 35, 17
11, 163320, Note_on_c, 9, 69, 51
11, 163368, Note_off_c, 9, 69, 17
11, 163440, Note_on_c, 9, 42, 91
11, 163440, Note_on_c, 9, 69, 51
11, 163488, Note_off_c, 9, 69, 17
11, 163488, Note_off_c, 9, 42, 17
11, 163560, Note_on_c, 9, 35, 127
11, 163560, Note_on_c, 9, 69, 51
11, 163608, Note_off_c, 9, 69, 17
11, 163608, Note_off_c, 9, 35, 17
11, 163680, Note_on_c, 9, 38, 127
11, 163680, Note_on_c, 9, 42, 91
11, 163680, Note_on_c, 9, 69, 51
11, 163728, Note_off_c, 9, 69, 17
11, 163728, Note_off_c, 9, 42, 17
11, 163728, Note_off_c, 9, 38, 17
11, 163800, Note_on_c, 9, 69, 51
11, 163848, Note_off_c, 9, 69, 17
11, 163920, Note_on_c, 9, 35, 127
11, 163920, Note_on_c, 9, 47, 117
11, 163920, Note_on_c, 9, 69, 51
11, 163950, Note_off_c, 9, 47, 17
11, 163968, Note_off_c, 9, 69, 17
11, 163968, Note_off_c, 9, 35, 17
11, 164040, Note_on_c, 9, 41, 110
11, 164040, Note_on_c, 9, 69, 51
11, 164070, Note_off_c, 9, 41, 17
11, 164088, Note_off_c, 9, 69, 17
11, 164160, Note_on_c, 9, 35, 127
11, 164160, Note_on_c, 9, 43, 122
11, 164160, Note_on_c, 9, 69, 51
11, 164190, Note_off_c, 9, 43, 17
11, 164208, Note_off_c, 9, 69, 17
11, 164208, Note_off_c, 9, 35, 17
11, 164280, Note_on_c, 9, 41, 122
11, 164280, Note_on_c, 9, 69, 51
11, 164310, Note_off_c, 9, 41, 17
11, 164328, Note_off_c, 9, 69, 17
11, 164400, Note_on_c, 9, 45, 122
11, 164400, Note_on_c, 9, 46, 127
11, 164400, Note_on_c, 9, 69, 51
11, 164430, Note_off_c, 9, 45, 17
11, 164448, Note_off_c, 9, 69, 17
11, 164448, Note_off_c, 9, 46, 17
11, 164520, Note_on_c, 9, 41, 127
11, 164520, Note_on_c, 9, 69, 51
11, 164550, Note_off_c, 9, 41, 17
11, 164568, Note_off_c, 9, 69, 17
11, 164640, Note_on_c, 9, 38, 127
11, 164640, Note_on_c, 9, 42, 127
11, 164640, Note_on_c, 9, 69, 51
11, 164688, Note_off_c, 9, 69, 17
11, 164688, Note_off_c, 9, 38, 17
11, 164688, Note_off_c, 9, 42, 17
11, 164760, Note_on_c, 9, 69, 51
11, 164808, Note_off_c, 9, 69, 17
11, 164880, Note_on_c, 9, 69, 51
11, 164928, Note_off_c, 9, 69, 17
11, 165000, Note_on_c, 9, 69, 51
11, 165048, Note_off_c, 9, 69, 17
11, 165120, Note_on_c, 9, 35, 127
11, 165120, Note_on_c, 9, 49, 109
11, 165120, Note_on_c, 9, 69, 51
11, 165168, Note_off_c, 9, 49, 17
11, 165168, Note_off_c, 9, 35, 17
11, 165168, Note_off_c, 9, 69, 17
11, 165240, Note_on_c, 9, 69, 51
11, 165288, Note_off_c, 9, 69, 17
11, 165360, Note_on_c, 9, 42, 91
11, 165360, Note_on_c, 9, 69, 51
11, 165408, Note_off_c, 9, 42, 17
11, 165408, Note_off_c, 9, 69, 17
11, 165480, Note_on_c, 9, 35, 127
11, 165480, Note_on_c, 9, 69, 51
11, 165528, Note_off_c, 9, 69, 17
11, 165528, Note_off_c, 9, 35, 17
11, 165600, Note_on_c, 9, 38, 127
11, 165600, Note_on_c, 9, 42, 91
11, 165600, Note_on_c, 9, 69, 51
11, 165648, Note_off_c, 9, 69, 17
11, 165648, Note_off_c, 9, 42, 17
11, 165648, Note_off_c, 9, 38, 17
11, 165720, Note_on_c, 9, 69, 51
11, 165768, Note_off_c, 9, 69, 17
11, 165840, Note_on_c, 9, 35, 127
11, 165840, Note_on_c, 9, 42, 91
11, 165840, Note_on_c, 9, 69, 51
11, 165888, Note_off_c, 9, 69, 17
11, 165888, Note_off_c, 9, 35, 17
11, 165888, Note_off_c, 9, 42, 17
11, 165960, Note_on_c, 9, 69, 51
11, 166008, Note_off_c, 9, 69, 17
11, 166080, Note_on_c, 9, 35, 127
11, 166080, Note_on_c, 9, 42, 91
11, 166080, Note_on_c, 9, 69, 51
11, 166128, Note_off_c, 9, 69, 17
11, 166128, Note_off_c, 9, 35, 17
11, 166128, Note_off_c, 9, 42, 17
11, 166200, Note_on_c, 9, 69, 51
11, 166248, Note_off_c, 9, 69, 17
11, 166320, Note_on_c, 9, 42, 91
11, 166320, Note_on_c, 9, 69, 51
11, 166368, Note_off_c, 9, 69, 17
11, 166368, Note_off_c, 9, 42, 17
11, 166440, Note_on_c, 9, 69, 51
11, 166488, Note_off_c, 9, 69, 17
11, 166560, Note_on_c, 9, 38, 127
11, 166560, Note_on_c, 9, 42, 91
11, 166560, Note_on_c, 9, 69, 51
11, 166608, Note_off_c, 9, 38, 17
11, 166608, Note_off_c, 9, 69, 17
11, 166608, Note_off_c, 9, 42, 17
11, 166680, Note_on_c, 9, 69, 51
11, 166728, Note_off_c, 9, 69, 17
11, 166800, Note_on_c, 9, 42, 91
11, 166800, Note_on_c, 9, 69, 51
11, 166848, Note_off_c, 9, 69, 17
11, 166848, Note_off_c, 9, 42, 17
11, 166920, Note_on_c, 9, 69, 51
11, 166968, Note_off_c, 9, 69, 17
11, 167040, Note_on_c, 9, 35, 127
11, 167040, Note_on_c, 9, 42, 91
11, 167040, Note_on_c, 9, 69, 51
11, 167088, Note_off_c, 9, 35, 17
11, 167088, Note_off_c, 9, 69, 17
11, 167088, Note_off_c, 9, 42, 17
11, 167160, Note_on_c, 9, 69, 51
11, 167208, Note_off_c, 9, 69, 17
11, 167280, Note_on_c, 9, 42, 91
11, 167280, Note_on_c, 9, 69, 51
11, 167328, Note_off_c, 9, 42, 17
11, 167328, Note_off_c, 9, 69, 17
11, 167400, Note_on_c, 9, 35, 127
11, 167400, Note_on_c, 9, 69, 51
11, 167448, Note_off_c, 9, 69, 17
11, 167448, Note_off_c, 9, 35, 17
11, 167520, Note_on_c, 9, 38, 127
11, 167520, Note_on_c, 9, 42, 91
11, 167520, Note_on_c, 9, 69, 51
11, 167568, Note_off_c, 9, 69, 17
11, 167568, Note_off_c, 9, 42, 17
11, 167568, Note_off_c, 9, 38, 17
11, 167640, Note_on_c, 9, 69, 51
11, 167688, Note_off_c, 9, 69, 17
11, 167760, Note_on_c, 9, 35, 127
11, 167760, Note_on_c, 9, 42, 91
11, 167760, Note_on_c, 9, 69, 51
11, 167808, Note_off_c, 9, 69, 17
11, 167808, Note_off_c, 9, 35, 17
11, 167808, Note_off_c, 9, 42, 17
11, 167880, Note_on_c, 9, 69, 51
11, 167928, Note_off_c, 9, 69, 17
11, 168000, Note_on_c, 9, 35, 127
11, 168000, Note_on_c, 9, 42, 91
11, 168000, Note_on_c, 9, 69, 51
11, 168048, Note_off_c, 9, 69, 17
11, 168048, Note_off_c, 9, 35, 17
11, 168048, Note_off_c, 9, 42, 17
11, 168120, Note_on_c, 9, 69, 51
11, 168168, Note_off_c, 9, 69, 17
11, 168240, Note_on_c, 9, 46, 127
11, 168240, Note_on_c, 9, 69, 51
11, 168288, Note_off_c, 9, 69, 17
11, 168288, Note_off_c, 9, 46, 17
11, 168360, Note_on_c, 9, 69, 51
11, 168408, Note_off_c, 9, 69, 17
11, 168480, Note_on_c, 9, 38, 127
11, 168480, Note_on_c, 9, 42, 127
11, 168480, Note_on_c, 9, 69, 51
11, 168528, Note_off_c, 9, 69, 17
11, 168528, Note_off_c, 9, 42, 17
11, 168528, Note_off_c, 9, 38, 17
11, 168600, Note_on_c, 9, 69, 51
11, 168648, Note_off_c, 9, 69, 17
11, 168720, Note_on_c, 9, 42, 91
11, 168720, Note_on_c, 9, 69, 51
11, 168768, Note_off_c, 9, 69, 17
11, 168768, Note_off_c, 9, 42, 17
11, 168840, Note_on_c, 9, 69, 51
11, 168888, Note_off_c, 9, 69, 17
11, 168960, Note_on_c, 9, 35, 127
11, 168960, Note_on_c, 9, 42, 91
11, 168960, Note_on_c, 9, 69, 51
11, 169008, Note_off_c, 9, 69, 17
11, 169008, Note_off_c, 9, 35, 17
11, 169008, Note_off_c, 9, 42, 17
11, 169080, Note_on_c, 9, 69, 51
11, 169128, Note_off_c, 9, 69, 17
11, 169200, Note_on_c, 9, 42, 91
11, 169200, Note_on_c, 9, 69, 51
11, 169248, Note_off_c, 9, 69, 17
11, 169248, Note_off_c, 9, 42, 17
11, 169320, Note_on_c, 9, 35, 127
11, 169320, Note_on_c, 9, 69, 51
11, 169368, Note_off_c, 9, 69, 17
11, 169368, Note_off_c, 9, 35, 17
11, 169440, Note_on_c, 9, 38, 127
11, 169440, Note_on_c, 9, 42, 91
11, 169440, Note_on_c, 9, 69, 51
11, 169488, Note_off_c, 9, 69, 17
11, 169488, Note_off_c, 9, 42, 17
11, 169488, Note_off_c, 9, 38, 17
11, 169560, Note_on_c, 9, 69, 51
11, 169608, Note_off_c, 9, 69, 17
11, 169680, Note_on_c, 9, 35, 127
11, 169680, Note_on_c, 9, 42, 91
11, 169680, Note_on_c, 9, 69, 51
11, 169728, Note_off_c, 9, 69, 17
11, 169728, Note_off_c, 9, 42, 17
11, 169728, Note_off_c, 9, 35, 17
11, 169800, Note_on_c, 9, 69, 51
11, 169848, Note_off_c, 9, 69, 17
11, 169920, Note_on_c, 9, 35, 127
11, 169920, Note_on_c, 9, 42, 91
11, 169920, Note_on_c, 9, 69, 51
11, 169968, Note_off_c, 9, 69, 17
11, 169968, Note_off_c, 9, 42, 17
11, 169968, Note_off_c, 9, 35, 17
11, 170040, Note_on_c, 9, 69, 51
11, 170088, Note_off_c, 9, 69, 17
11, 170160, Note_on_c, 9, 42, 91
11, 170160, Note_on_c, 9, 69, 51
11, 170208, Note_off_c, 9, 69, 17
11, 170208, Note_off_c, 9, 42, 17
11, 170280, Note_on_c, 9, 69, 51
11, 170328, Note_off_c, 9, 69, 17
11, 170400, Note_on_c, 9, 38, 127
11, 170400, Note_on_c, 9, 42, 91
11, 170400, Note_on_c, 9, 69, 51
11, 170448, Note_off_c, 9, 69, 17
11, 170448, Note_off_c, 9, 42, 17
11, 170448, Note_off_c, 9, 38, 17
11, 170520, Note_on_c, 9, 69, 51
11, 170568, Note_off_c, 9, 69, 17
11, 170640, Note_on_c, 9, 42, 91
11, 170640, Note_on_c, 9, 69, 51
11, 170688, Note_off_c, 9, 69, 17
11, 170688, Note_off_c, 9, 42, 17
11, 170760, Note_on_c, 9, 69, 51
11, 170808, Note_off_c, 9, 69, 17
11, 170880, Note_on_c, 9, 35, 127
11, 170880, Note_on_c, 9, 42, 91
11, 170880, Note_on_c, 9, 69, 51
11, 170928, Note_off_c, 9, 69, 17
11, 170928, Note_off_c, 9, 42, 17
11, 170928, Note_off_c, 9, 35, 17
11, 171000, Note_on_c, 9, 69, 51
11, 171048, Note_off_c, 9, 69, 17
11, 171120, Note_on_c, 9, 42, 91
11, 171120, Note_on_c, 9, 69, 51
11, 171168, Note_off_c, 9, 42, 17
11, 171168, Note_off_c, 9, 69, 17
11, 171240, Note_on_c, 9, 35, 127
11, 171240, Note_on_c, 9, 69, 51
11, 171288, Note_off_c, 9, 69, 17
11, 171288, Note_off_c, 9, 35, 17
11, 171360, Note_on_c, 9, 38, 127
11, 171360, Note_on_c, 9, 42, 91
11, 171360, Note_on_c, 9, 69, 51
11, 171408, Note_off_c, 9, 69, 17
11, 171408, Note_off_c, 9, 42, 17
11, 171408, Note_off_c, 9, 38, 17
11, 171480, Note_on_c, 9, 69, 51
11, 171528, Note_off_c, 9, 69, 17
11, 171600, Note_on_c, 9, 35, 127
11, 171600, Note_on_c, 9, 47, 117
11, 171600, Note_on_c, 9, 69, 51
11, 171630, Note_off_c, 9, 47, 17
11, 171648, Note_off_c, 9, 69, 17
11, 171648, Note_off_c, 9, 35, 17
11, 171720, Note_on_c, 9, 41, 110
11, 171720, Note_on_c, 9, 69, 51
11, 171750, Note_off_c, 9, 41, 17
11, 171768, Note_off_c, 9, 69, 17
11, 171840, Note_on_c, 9, 35, 127
11, 171840, Note_on_c, 9, 43, 122
11, 171840, Note_on_c, 9, 69, 51
11, 171870, Note_off_c, 9, 43, 17
11, 171888, Note_off_c, 9, 69, 17
11, 171888, Note_off_c, 9, 35, 17
11, 171960, Note_on_c, 9, 41, 122
11, 171960, Note_on_c, 9, 69, 51
11, 171990, Note_off_c, 9, 41, 17
11, 172008, Note_off_c, 9, 69, 17
11, 172080, Note_on_c, 9, 45, 122
11, 172080, Note_on_c, 9, 46, 127
11, 172080, Note_on_c, 9, 69, 51
11, 172110, Note_off_c, 9, 45, 17
11, 172128, Note_off_c, 9, 46, 17
11, 172128, Note_off_c, 9, 69, 17
11, 172200, Note_on_c, 9, 41, 127
11, 172200, Note_on_c, 9, 69, 51
11, 172230, Note_off_c, 9, 41, 17
11, 172248, Note_off_c, 9, 69, 17
11, 172320, Note_on_c, 9, 38, 127
11, 172320, Note_on_c, 9, 42, 127
11, 172320, Note_on_c, 9, 69, 51
11, 172368, Note_off_c, 9, 69, 17
11, 172368, Note_off_c, 9, 42, 17
11, 172368, Note_off_c, 9, 38, 17
11, 172440, Note_on_c, 9, 69, 51
11, 172488, Note_off_c, 9, 69, 17
11, 172560, Note_on_c, 9, 69, 51
11, 172608, Note_off_c, 9, 69, 17
11, 172680, Note_on_c, 9, 69, 51
11, 172728, Note_off_c, 9, 69, 17
11, 172800, Note_on_c, 9, 35, 127
11, 172800, Note_on_c, 9, 49, 109
11, 172800, Note_on_c, 9, 69, 51
11, 172848, Note_off_c, 9, 35, 17
11, 172848, Note_off_c, 9, 69, 17
11, 172848, Note_off_c, 9, 49, 17
11, 172920, Note_on_c, 9, 69, 51
11, 172968, Note_off_c, 9, 69, 17
11, 173040, Note_on_c, 9, 42, 91
11, 173040, Note_on_c, 9, 69, 51
11, 173088, Note_off_c, 9, 42, 17
11, 173088, Note_off_c, 9, 69, 17
11, 173160, Note_on_c, 9, 35, 127
11, 173160, Note_on_c, 9, 69, 51
11, 173208, Note_off_c, 9, 69, 17
11, 173208, Note_off_c, 9, 35, 17
11, 173280, Note_on_c, 9, 38, 127
11, 173280, Note_on_c, 9, 42, 91
11, 173280, Note_on_c, 9, 69, 51
11, 173328, Note_off_c, 9, 69, 17
11, 173328, Note_off_c, 9, 42, 17
11, 173328, Note_off_c, 9, 38, 17
11, 173400, Note_on_c, 9, 69, 51
11, 173448, Note_off_c, 9, 69, 17
11, 173520, Note_on_c, 9, 35, 127
11, 173520, Note_on_c, 9, 42, 91
11, 173520, Note_on_c, 9, 69, 51
11, 173568, Note_off_c, 9, 69, 17
11, 173568, Note_off_c, 9, 42, 17
11, 173568, Note_off_c, 9, 35, 17
11, 173640, Note_on_c, 9, 69, 51
11, 173688, Note_off_c, 9, 69, 17
11, 173760, Note_on_c, 9, 35, 127
11, 173760, Note_on_c, 9, 42, 91
11, 173760, Note_on_c, 9, 69, 51
11, 173808, Note_off_c, 9, 69, 17
11, 173808, Note_off_c, 9, 42, 17
11, 173808, Note_off_c, 9, 35, 17
11, 173880, Note_on_c, 9, 69, 51
11, 173928, Note_off_c, 9, 69, 17
11, 174000, Note_on_c, 9, 42, 91
11, 174000, Note_on_c, 9, 69, 51
11, 174048, Note_off_c, 9, 69, 17
11, 174048, Note_off_c, 9, 42, 17
11, 174120, Note_on_c, 9, 69, 51
11, 174168, Note_off_c, 9, 69, 17
11, 174240, Note_on_c, 9, 38, 127
11, 174240, Note_on_c, 9, 42, 91
11, 174240, Note_on_c, 9, 69, 51
11, 174288, Note_off_c, 9, 69, 17
11, 174288, Note_off_c, 9, 38, 17
11, 174288, Note_off_c, 9, 42, 17
11, 174360, Note_on_c, 9, 69, 51
11, 174408, Note_off_c, 9, 69, 17
11, 174480, Note_on_c, 9, 42, 91
11, 174480, Note_on_c, 9, 69, 51
11, 174528, Note_off_c, 9, 69, 17
11, 174528, Note_off_c, 9, 42, 17
11, 174600, Note_on_c, 9, 69, 51
11, 174648, Note_off_c, 9, 69, 17
11, 174720, Note_on_c, 9, 35, 127
11, 174720, Note_on_c, 9, 42, 91
11, 174720, Note_on_c, 9, 69, 51
11, 174768, Note_off_c, 9, 69, 17
11, 174768, Note_off_c, 9, 35, 17
11, 174768, Note_off_c, 9, 42, 17
11, 174840, Note_on_c, 9, 69, 51
11, 174888, Note_off_c, 9, 69, 17
11, 174960, Note_on_c, 9, 42, 91
11, 174960, Note_on_c, 9, 69, 51
11, 175008, Note_off_c, 9, 42, 17
11, 175008, Note_off_c, 9, 69, 17
11, 175080, Note_on_c, 9, 35, 127
11, 175080, Note_on_c, 9, 69, 51
11, 175128, Note_off_c, 9, 69, 17
11, 175128, Note_off_c, 9, 35, 17
11, 175200, Note_on_c, 9, 38, 127
11, 175200, Note_on_c, 9, 42, 91
11, 175200, Note_on_c, 9, 69, 51
11, 175248, Note_off_c, 9, 69, 17
11, 175248, Note_off_c, 9, 42, 17
11, 175248, Note_off_c, 9, 38, 17
11, 175320, Note_on_c, 9, 69, 51
11, 175368, Note_off_c, 9, 69, 17
11, 175440, Note_on_c, 9, 35, 127
11, 175440, Note_on_c, 9, 42, 91
11, 175440, Note_on_c, 9, 69, 51
11, 175488, Note_off_c, 9, 69, 17
11, 175488, Note_off_c, 9, 35, 17
11, 175488, Note_off_c, 9, 42, 17
11, 175560, Note_on_c, 9, 69, 51
11, 175608, Note_off_c, 9, 69, 17
11, 175680, Note_on_c, 9, 35, 127
11, 175680, Note_on_c, 9, 42, 91
11, 175680, Note_on_c, 9, 69, 51
11, 175728, Note_off_c, 9, 69, 17
11, 175728, Note_off_c, 9, 35, 17
11, 175728, Note_off_c, 9, 42, 17
11, 175800, Note_on_c, 9, 69, 51
11, 175848, Note_off_c, 9, 69, 17
11, 175920, Note_on_c, 9, 46, 127
11, 175920, Note_on_c, 9, 69, 51
11, 175968, Note_off_c, 9, 69, 17
11, 175968, Note_off_c, 9, 46, 17
11, 176040, Note_on_c, 9, 69, 51
11, 176088, Note_off_c, 9, 69, 17
11, 176160, Note_on_c, 9, 38, 127
11, 176160, Note_on_c, 9, 42, 127
11, 176160, Note_on_c, 9, 69, 51
11, 176208, Note_off_c, 9, 69, 17
11, 176208, Note_off_c, 9, 38, 17
11, 176208, Note_off_c, 9, 42, 17
11, 176280, Note_on_c, 9, 69, 51
11, 176328, Note_off_c, 9, 69, 17
11, 176400, Note_on_c, 9, 42, 91
11, 176400, Note_on_c, 9, 69, 51
11, 176448, Note_off_c, 9, 42, 17
11, 176448, Note_off_c, 9, 69, 17
11, 176520, Note_on_c, 9, 69, 51
11, 176568, Note_off_c, 9, 69, 17
11, 176640, Note_on_c, 9, 35, 127
11, 176640, Note_on_c, 9, 42, 91
11, 176640, Note_on_c, 9, 69, 51
11, 176688, Note_off_c, 9, 35, 17
11, 176688, Note_off_c, 9, 69, 17
11, 176688, Note_off_c, 9, 42, 17
11, 176760, Note_on_c, 9, 69, 51
11, 176808, Note_off_c, 9, 69, 17
11, 176880, Note_on_c, 9, 42, 91
11, 176880, Note_on_c, 9, 69, 51
11, 176928, Note_off_c, 9, 69, 17
11, 176928, Note_off_c, 9, 42, 17
11, 177000, Note_on_c, 9, 35, 127
11, 177000, Note_on_c, 9, 69, 51
11, 177048, Note_off_c, 9, 69, 17
11, 177048, Note_off_c, 9, 35, 17
11, 177120, Note_on_c, 9, 38, 127
11, 177120, Note_on_c, 9, 42, 91
11, 177120, Note_on_c, 9, 69, 51
11, 177168, Note_off_c, 9, 69, 17
11, 177168, Note_off_c, 9, 42, 17
11, 177168, Note_off_c, 9, 38, 17
11, 177240, Note_on_c, 9, 69, 51
11, 177288, Note_off_c, 9, 69, 17
11, 177360, Note_on_c, 9, 35, 127
11, 177360, Note_on_c, 9, 42, 91
11, 177360, Note_on_c, 9, 69, 51
11, 177408, Note_off_c, 9, 69, 17
11, 177408, Note_off_c, 9, 42, 17
11, 177408, Note_off_c, 9, 35, 17
11, 177480, Note_on_c, 9, 69, 51
11, 177528, Note_off_c, 9, 69, 17
11, 177600, Note_on_c, 9, 35, 127
11, 177600, Note_on_c, 9, 42, 91
11, 177600, Note_on_c, 9, 69, 51
11, 177648, Note_off_c, 9, 69, 17
11, 177648, Note_off_c, 9, 42, 17
11, 177648, Note_off_c, 9, 35, 17
11, 177720, Note_on_c, 9, 69, 51
11, 177768, Note_off_c, 9, 69, 17
11, 177840, Note_on_c, 9, 42, 91
11, 177840, Note_on_c, 9, 69, 51
11, 177888, Note_off_c, 9, 42, 17
11, 177888, Note_off_c, 9, 69, 17
11, 177960, Note_on_c, 9, 69, 51
11, 178008, Note_off_c, 9, 69, 17
11, 178080, Note_on_c, 9, 38, 127
11, 178080, Note_on_c, 9, 42, 91
11, 178080, Note_on_c, 9, 69, 51
11, 178128, Note_off_c, 9, 69, 17
11, 178128, Note_off_c, 9, 38, 17
11, 178128, Note_off_c, 9, 42, 17
11, 178200, Note_on_c, 9, 69, 51
11, 178248, Note_off_c, 9, 69, 17
11, 178320, Note_on_c, 9, 42, 91
11, 178320, Note_on_c, 9, 69, 51
11, 178368, Note_off_c, 9, 69, 17
11, 178368, Note_off_c, 9, 42, 17
11, 178440, Note_on_c, 9, 69, 51
11, 178488, Note_off_c, 9, 69, 17
11, 178560, Note_on_c, 9, 35, 127
11, 178560, Note_on_c, 9, 42, 91
11, 178560, Note_on_c, 9, 69, 51
11, 178608, Note_off_c, 9, 69, 17
11, 178608, Note_off_c, 9, 35, 17
11, 178608, Note_off_c, 9, 42, 17
11, 178680, Note_on_c, 9, 69, 51
11, 178728, Note_off_c, 9, 69, 17
11, 178800, Note_on_c, 9, 42, 91
11, 178800, Note_on_c, 9, 69, 51
11, 178848, Note_off_c, 9, 69, 17
11, 178848, Note_off_c, 9, 42, 17
11, 178920, Note_on_c, 9, 35, 127
11, 178920, Note_on_c, 9, 69, 51
11, 178968, Note_off_c, 9, 69, 17
11, 178968, Note_off_c, 9, 35, 17
11, 179040, Note_on_c, 9, 38, 127
11, 179040, Note_on_c, 9, 42, 91
11, 179040, Note_on_c, 9, 69, 51
11, 179088, Note_off_c, 9, 69, 17
11, 179088, Note_off_c, 9, 42, 17
11, 179088, Note_off_c, 9, 38, 17
11, 179160, Note_on_c, 9, 69, 51
11, 179208, Note_off_c, 9, 69, 17
11, 179280, Note_on_c, 9, 35, 127
11, 179280, Note_on_c, 9, 47, 117
11, 179280, Note_on_c, 9, 69, 51
11, 179310, Note_off_c, 9, 47, 17
11, 179328, Note_off_c, 9, 35, 17
11, 179328, Note_off_c, 9, 69, 17
11, 179400, Note_on_c, 9, 41, 110
11, 179400, Note_on_c, 9, 69, 51
11, 179430, Note_off_c, 9, 41, 17
11, 179448, Note_off_c, 9, 69, 17
11, 179520, Note_on_c, 9, 35, 127
11, 179520, Note_on_c, 9, 43, 122
11, 179520, Note_on_c, 9, 69, 51
11, 179550, Note_off_c, 9, 43, 17
11, 179568, Note_off_c, 9, 35, 17
11, 179568, Note_off_c, 9, 69, 17
11, 179640, Note_on_c, 9, 41, 122
11, 179640, Note_on_c, 9, 69, 51
11, 179670, Note_off_c, 9, 41, 17
11, 179688, Note_off_c, 9, 69, 17
11, 179760, Note_on_c, 9, 45, 122
11, 179760, Note_on_c, 9, 46, 127
11, 179760, Note_on_c, 9, 69, 51
11, 179790, Note_off_c, 9, 45, 17
11, 179808, Note_off_c, 9, 46, 17
11, 179808, Note_off_c, 9, 69, 17
11, 179880, Note_on_c, 9, 41, 127
11, 179880, Note_on_c, 9, 69, 51
11, 179910, Note_off_c, 9, 41, 17
11, 179928, Note_off_c, 9, 69, 17
11, 180000, Note_on_c, 9, 38, 127
11, 180000, Note_on_c, 9, 42, 127
11, 180000, Note_on_c, 9, 69, 51
11, 180048, Note_off_c, 9, 69, 17
11, 180048, Note_off_c, 9, 42, 17
11, 180048, Note_off_c, 9, 38, 17
11, 180120, Note_on_c, 9, 69, 51
11, 180168, Note_off_c, 9, 69, 17
11, 180240, Note_on_c, 9, 69, 51
11, 180288, Note_off_c, 9, 69, 17
11, 180360, Note_on_c, 9, 69, 51
11, 180408, Note_off_c, 9, 69, 17
11, 180480, Note_on_c, 9, 35, 127
11, 180480, Note_on_c, 9, 49, 109
11, 180480, Note_on_c, 9, 69, 51
11, 180528, Note_off_c, 9, 35, 17
11, 180528, Note_off_c, 9, 69, 17
11, 180528, Note_off_c, 9, 49, 17
11, 180600, Note_on_c, 9, 69, 51
11, 180648, Note_off_c, 9, 69, 17
11, 180720, Note_on_c, 9, 42, 91
11, 180720, Note_on_c, 9, 69, 51
11, 180768, Note_off_c, 9, 69, 17
11, 180768, Note_off_c, 9, 42, 17
11, 180840, Note_on_c, 9, 35, 127
11, 180840, Note_on_c, 9, 69, 51
11, 180888, Note_off_c, 9, 69, 17
11, 180888, Note_off_c, 9, 35, 17
11, 180960, Note_on_c, 9, 38, 127
11, 180960, Note_on_c, 9, 42, 91
11, 180960, Note_on_c, 9, 69, 51
11, 181008, Note_off_c, 9, 69, 17
11, 181008, Note_off_c, 9, 42, 17
11, 181008, Note_off_c, 9, 38, 17
11, 181080, Note_on_c, 9, 69, 51
11, 181128, Note_off_c, 9, 69, 17
11, 181200, Note_on_c, 9, 35, 127
11, 181200, Note_on_c, 9, 42, 91
11, 181200, Note_on_c, 9, 69, 51
11, 181248, Note_off_c, 9, 69, 17
11, 181248, Note_off_c, 9, 42, 17
11, 181248, Note_off_c, 9, 35, 17
11, 181320, Note_on_c, 9, 69, 51
11, 181368, Note_off_c, 9, 69, 17
11, 181440, Note_on_c, 9, 35, 127
11, 181440, Note_on_c, 9, 42, 91
11, 181440, Note_on_c, 9, 69, 51
11, 181488, Note_off_c, 9, 69, 17
11, 181488, Note_off_c, 9, 42, 17
11, 181488, Note_off_c, 9, 35, 17
11, 181560, Note_on_c, 9, 69, 51
11, 181608, Note_off_c, 9, 69, 17
11, 181680, Note_on_c, 9, 42, 91
11, 181680, Note_on_c, 9, 69, 51
11, 181728, Note_off_c, 9, 42, 17
11, 181728, Note_off_c, 9, 69, 17
11, 181800, Note_on_c, 9, 69, 51
11, 181848, Note_off_c, 9, 69, 17
11, 181920, Note_on_c, 9, 38, 127
11, 181920, Note_on_c, 9, 42, 91
11, 181920, Note_on_c, 9, 69, 51
11, 181968, Note_off_c, 9, 69, 17
11, 181968, Note_off_c, 9, 38, 17
11, 181968, Note_off_c, 9, 42, 17
11, 182040, Note_on_c, 9, 69, 51
11, 182088, Note_off_c, 9, 69, 17
11, 182160, Note_on_c, 9, 42, 91
11, 182160, Note_on_c, 9, 69, 51
11, 182208, Note_off_c, 9, 69, 17
11, 182208, Note_off_c, 9, 42, 17
11, 182280, Note_on_c, 9, 69, 51
11, 182328, Note_off_c, 9, 69, 17
11, 182400, Note_on_c, 9, 35, 127
11, 182400, Note_on_c, 9, 42, 91
11, 182400, Note_on_c, 9, 69, 51
11, 182448, Note_off_c, 9, 35, 17
11, 182448, Note_off_c, 9, 69, 17
11, 182448, Note_off_c, 9, 42, 17
11, 182520, Note_on_c, 9, 69, 51
11, 182568, Note_off_c, 9, 69, 17
11, 182640, Note_on_c, 9, 42, 91
11, 182640, Note_on_c, 9, 69, 51
11, 182688, Note_off_c, 9, 69, 17
11, 182688, Note_off_c, 9, 42, 17
11, 182760, Note_on_c, 9, 35, 127
11, 182760, Note_on_c, 9, 69, 51
11, 182808, Note_off_c, 9, 69, 17
11, 182808, Note_off_c, 9, 35, 17
11, 182880, Note_on_c, 9, 38, 127
11, 182880, Note_on_c, 9, 42, 91
11, 182880, Note_on_c, 9, 69, 51
11, 182928, Note_off_c, 9, 69, 17
11, 182928, Note_off_c, 9, 42, 17
11, 182928, Note_off_c, 9, 38, 17
11, 183000, Note_on_c, 9, 69, 51
11, 183048, Note_off_c, 9, 69, 17
11, 183120, Note_on_c, 9, 35, 127
11, 183120, Note_on_c, 9, 42, 91
11, 183120, Note_on_c, 9, 69, 51
11, 183168, Note_off_c, 9, 69, 17
11, 183168, Note_off_c, 9, 42, 17
11, 183168, Note_off_c, 9, 35, 17
11, 183240, Note_on_c, 9, 69, 51
11, 183288, Note_off_c, 9, 69, 17
11, 183360, Note_on_c, 9, 35, 127
11, 183360, Note_on_c, 9, 42, 91
11, 183360, Note_on_c, 9, 69, 51
11, 183408, Note_off_c, 9, 69, 17
11, 183408, Note_off_c, 9, 42, 17
11, 183408, Note_off_c, 9, 35, 17
11, 183480, Note_on_c, 9, 69, 51
11, 183528, Note_off_c, 9, 69, 17
11, 183600, Note_on_c, 9, 46, 127
11, 183600, Note_on_c, 9, 69, 51
11, 183648, Note_off_c, 9, 46, 17
11, 183648, Note_off_c, 9, 69, 17
11, 183720, Note_on_c, 9, 69, 51
11, 183768, Note_off_c, 9, 69, 17
11, 183840, Note_on_c, 9, 38, 127
11, 183840, Note_on_c, 9, 42, 127
11, 183840, Note_on_c, 9, 69, 51
11, 183888, Note_off_c, 9, 69, 17
11, 183888, Note_off_c, 9, 42, 17
11, 183888, Note_off_c, 9, 38, 17
11, 183960, Note_on_c, 9, 69, 51
11, 184008, Note_off_c, 9, 69, 17
11, 184080, Note_on_c, 9, 42, 91
11, 184080, Note_on_c, 9, 69, 51
11, 184128, Note_off_c, 9, 69, 17
11, 184128, Note_off_c, 9, 42, 17
11, 184200, Note_on_c, 9, 69, 51
11, 184248, Note_off_c, 9, 69, 17
11, 184320, Note_on_c, 9, 35, 127
11, 184320, Note_on_c, 9, 42, 91
11, 184320, Note_on_c, 9, 69, 51
11, 184368, Note_off_c, 9, 35, 17
11, 184368, Note_off_c, 9, 69, 17
11, 184368, Note_off_c, 9, 42, 17
11, 184440, Note_on_c, 9, 69, 51
11, 184488, Note_off_c, 9, 69, 17
11, 184560, Note_on_c, 9, 42, 91
11, 184560, Note_on_c, 9, 69, 51
11, 184608, Note_off_c, 9, 42, 17
11, 184608, Note_off_c, 9, 69, 17
11, 184680, Note_on_c, 9, 35, 127
11, 184680, Note_on_c, 9, 69, 51
11, 184728, Note_off_c, 9, 69, 17
11, 184728, Note_off_c, 9, 35, 17
11, 184800, Note_on_c, 9, 38, 127
11, 184800, Note_on_c, 9, 42, 91
11, 184800, Note_on_c, 9, 69, 51
11, 184848, Note_off_c, 9, 69, 17
11, 184848, Note_off_c, 9, 42, 17
11, 184848, Note_off_c, 9, 38, 17
11, 184920, Note_on_c, 9, 69, 51
11, 184968, Note_off_c, 9, 69, 17
11, 185040, Note_on_c, 9, 35, 127
11, 185040, Note_on_c, 9, 42, 91
11, 185040, Note_on_c, 9, 69, 51
11, 185088, Note_off_c, 9, 69, 17
11, 185088, Note_off_c, 9, 35, 17
11, 185088, Note_off_c, 9, 42, 17
11, 185160, Note_on_c, 9, 69, 51
11, 185208, Note_off_c, 9, 69, 17
11, 185280, Note_on_c, 9, 35, 127
11, 185280, Note_on_c, 9, 42, 91
11, 185280, Note_on_c, 9, 69, 51
11, 185328, Note_off_c, 9, 69, 17
11, 185328, Note_off_c, 9, 35, 17
11, 185328, Note_off_c, 9, 42, 17
11, 185400, Note_on_c, 9, 69, 51
11, 185448, Note_off_c, 9, 69, 17
11, 185520, Note_on_c, 9, 42, 91
11, 185520, Note_on_c, 9, 69, 51
11, 185568, Note_off_c, 9, 69, 17
11, 185568, Note_off_c, 9, 42, 17
11, 185640, Note_on_c, 9, 69, 51
11, 185688, Note_off_c, 9, 69, 17
11, 185760, Note_on_c, 9, 38, 127
11, 185760, Note_on_c, 9, 42, 91
11, 185760, Note_on_c, 9, 69, 51
11, 185808, Note_off_c, 9, 69, 17
11, 185808, Note_off_c, 9, 38, 17
11, 185808, Note_off_c, 9, 42, 17
11, 185880, Note_on_c, 9, 69, 51
11, 185928, Note_off_c, 9, 69, 17
11, 186000, Note_on_c, 9, 42, 91
11, 186000, Note_on_c, 9, 69, 51
11, 186048, Note_off_c, 9, 69, 17
11, 186048, Note_off_c, 9, 42, 17
11, 186120, Note_on_c, 9, 69, 51
11, 186168, Note_off_c, 9, 69, 17
11, 186240, Note_on_c, 9, 35, 127
11, 186240, Note_on_c, 9, 42, 91
11, 186240, Note_on_c, 9, 69, 51
11, 186288, Note_off_c, 9, 69, 17
11, 186288, Note_off_c, 9, 35, 17
11, 186288, Note_off_c, 9, 42, 17
11, 186360, Note_on_c, 9, 69, 51
11, 186408, Note_off_c, 9, 69, 17
11, 186480, Note_on_c, 9, 42, 91
11, 186480, Note_on_c, 9, 69, 51
11, 186528, Note_off_c, 9, 42, 17
11, 186528, Note_off_c, 9, 69, 17
11, 186600, Note_on_c, 9, 35, 127
11, 186600, Note_on_c, 9, 69, 51
11, 186648, Note_off_c, 9, 69, 17
11, 186648, Note_off_c, 9, 35, 17
11, 186720, Note_on_c, 9, 38, 127
11, 186720, Note_on_c, 9, 42, 91
11, 186720, Note_on_c, 9, 69, 51
11, 186768, Note_off_c, 9, 69, 17
11, 186768, Note_off_c, 9, 42, 17
11, 186768, Note_off_c, 9, 38, 17
11, 186840, Note_on_c, 9, 69, 51
11, 186888, Note_off_c, 9, 69, 17
11, 186960, Note_on_c, 9, 35, 127
11, 186960, Note_on_c, 9, 47, 117
11, 186960, Note_on_c, 9, 69, 51
11, 186990, Note_off_c, 9, 47, 17
11, 187008, Note_off_c, 9, 35, 17
11, 187008, Note_off_c, 9, 69, 17
11, 187080, Note_on_c, 9, 41, 110
11, 187080, Note_on_c, 9, 69, 51
11, 187110, Note_off_c, 9, 41, 17
11, 187128, Note_off_c, 9, 69, 17
11, 187200, Note_on_c, 9, 35, 127
11, 187200, Note_on_c, 9, 43, 122
11, 187200, Note_on_c, 9, 69, 51
11, 187230, Note_off_c, 9, 43, 17
11, 187248, Note_off_c, 9, 35, 17
11, 187248, Note_off_c, 9, 69, 17
11, 187320, Note_on_c, 9, 41, 122
11, 187320, Note_on_c, 9, 69, 51
11, 187350, Note_off_c, 9, 41, 17
11, 187368, Note_off_c, 9, 69, 17
11, 187440, Note_on_c, 9, 45, 122
11, 187440, Note_on_c, 9, 46, 127
11, 187440, Note_on_c, 9, 69, 51
11, 187470, Note_off_c, 9, 45, 17
11, 187488, Note_off_c, 9, 46, 17
11, 187488, Note_off_c, 9, 69, 17
11, 187560, Note_on_c, 9, 41, 127
11, 187560, Note_on_c, 9, 69, 51
11, 187590, Note_off_c, 9, 41, 17
11, 187608, Note_off_c, 9, 69, 17
11, 187680, Note_on_c, 9, 38, 127
11, 187680, Note_on_c, 9, 42, 127
11, 187680, Note_on_c, 9, 69, 51
11, 187728, Note_off_c, 9, 69, 17
11, 187728, Note_off_c, 9, 42, 17
11, 187728, Note_off_c, 9, 38, 17
11, 187800, Note_on_c, 9, 69, 51
11, 187848, Note_off_c, 9, 69, 17
11, 187920, Note_on_c, 9, 69, 51
11, 187968, Note_off_c, 9, 69, 17
11, 188040, Note_on_c, 9, 69, 51
11, 188088, Note_off_c, 9, 69, 17
11, 190564, Control_c, 9, 123, 0
11, 190924, Control_c, 9, 120, 0
11, 190932, End_track
12, 0, Start_track
12, 0, MIDI_port, 0
12, 0, Title_t, "Fantasia"
12, 270, Control_c, 10, 121, 0
12, 320, Program_c, 10, 88
12, 400, Control_c, 10, 7, 81
12, 432, Control_c, 10, 10, 66
12, 464, Control_c, 10, 11, 127
12, 496, Control_c, 10, 91, 52
12, 528, Control_c, 10, 93, 33
12, 560, Control_c, 10, 1, 0
12, 592, Control_c, 10, 64, 0
12, 624, Control_c, 10, 71, 64
12, 656, Control_c, 10, 72, 64
12, 688, Control_c, 10, 73, 64
12, 720, Control_c, 10, 74, 64
12, 752, Control_c, 10, 94, 0
12, 784, Pitch_bend_c, 10, 8192
12, 42240, Note_on_c, 10, 64, 99
12, 42240, Note_on_c, 10, 68, 101
12, 42240, Note_on_c, 10, 73, 106
12, 44156, Note_off_c, 10, 68, 17
12, 44156, Note_off_c, 10, 64, 17
12, 44156, Note_off_c, 10, 73, 17
12, 44160, Note_on_c, 10, 63, 93
12, 44160, Note_on_c, 10, 66, 101
12, 44160, Note_on_c, 10, 71, 101
12, 46076, Note_off_c, 10, 63, 17
12, 46076, Note_off_c, 10, 71, 17
12, 46076, Note_off_c, 10, 66, 17
12, 92160, Note_on_c, 10, 64, 99
12, 92160, Note_on_c, 10, 68, 101
12, 92160, Note_on_c, 10, 73, 106
12, 94076, Note_off_c, 10, 68, 17
12, 94076, Note_off_c, 10, 64, 17
12, 94076, Note_off_c, 10, 73, 17
12, 94080, Note_on_c, 10, 63, 93
12, 94080, Note_on_c, 10, 66, 101
12, 94080, Note_on_c, 10, 71, 101
12, 95996, Note_off_c, 10, 71, 17
12, 95996, Note_off_c, 10, 63, 17
12, 95996, Note_off_c, 10, 66, 17
12, 190567, Control_c, 10, 123, 0
12, 190927, Control_c, 10, 120, 0
12, 190932, End_track
13, 0, Start_track
13, 0, MIDI_port, 0
13, 0, Title_t, "Clean Gt."
13, 272, Control_c, 11, 121, 0
13, 322, Program_c, 11, 27
13, 402, Control_c, 11, 7, 83
13, 434, Control_c, 11, 10, 39
13, 466, Control_c, 11, 11, 127
13, 498, Control_c, 11, 91, 92
13, 530, Control_c, 11, 93, 46
13, 562, Control_c, 11, 1, 0
13, 594, Control_c, 11, 64, 0
13, 626, Control_c, 11, 71, 64
13, 658, Control_c, 11, 72, 64
13, 690, Control_c, 11, 73, 64
13, 722, Control_c, 11, 74, 64
13, 754, Control_c, 11, 94, 0
13, 786, Pitch_bend_c, 11, 8192
13, 11520, Note_on_c, 11, 40, 127
13, 11703, Note_off_c, 11, 40, 17
13, 11760, Note_on_c, 11, 40, 83
13, 11843, Note_off_c, 11, 40, 17
13, 11880, Note_on_c, 11, 52, 127
13, 12023, Note_off_c, 11, 52, 17
13, 12120, Note_on_c, 11, 52, 127
13, 12195, Note_off_c, 11, 52, 17
13, 12240, Note_on_c, 11, 40, 125
13, 12325, Note_off_c, 11, 40, 17
13, 13440, Note_on_c, 11, 40, 127
13, 13623, Note_off_c, 11, 40, 17
13, 13680, Note_on_c, 11, 40, 83
13, 13763, Note_off_c, 11, 40, 17
13, 13800, Note_on_c, 11, 52, 127
13, 13943, Note_off_c, 11, 52, 17
13, 14040, Note_on_c, 11, 52, 127
13, 14115, Note_off_c, 11, 52, 17
13, 14160, Note_on_c, 11, 40, 125
13, 14245, Note_off_c, 11, 40, 17
13, 15120, Note_on_c, 11, 40, 126
13, 15124, Note_off_c, 11, 40, 17
13, 15240, Note_on_c, 11, 40, 126
13, 15244, Note_off_c, 11, 40, 17
13, 15360, Note_on_c, 11, 40, 127
13, 15543, Note_off_c, 11, 40, 17
13, 15600, Note_on_c, 11, 40, 83
13, 15683, Note_off_c, 11, 40, 17
13, 15720, Note_on_c, 11, 52, 127
13, 15863, Note_off_c, 11, 52, 17
13, 15960, Note_on_c, 11, 52, 127
13, 16035, Note_off_c, 11, 52, 17
13, 16080, Note_on_c, 11, 40, 125
13, 16165, Note_off_c, 11, 40, 17
13, 17280, Note_on_c, 11, 40, 127
13, 17463, Note_off_c, 11, 40, 17
13, 17520, Note_on_c, 11, 40, 83
13, 17603, Note_off_c, 11, 40, 17
13, 17640, Note_on_c, 11, 52, 127
13, 17783, Note_off_c, 11, 52, 17
13, 17880, Note_on_c, 11, 52, 127
13, 17955, Note_off_c, 11, 52, 17
13, 18000, Note_on_c, 11, 40, 125
13, 18085, Note_off_c, 11, 40, 17
13, 18960, Note_on_c, 11, 40, 126
13, 18964, Note_off_c, 11, 40, 17
13, 19080, Note_on_c, 11, 40, 126
13, 19084, Note_off_c, 11, 40, 17
13, 19200, Note_on_c, 11, 45, 127
13, 19383, Note_off_c, 11, 45, 17
13, 19440, Note_on_c, 11, 45, 83
13, 19523, Note_off_c, 11, 45, 17
13, 19560, Note_on_c, 11, 57, 127
13, 19703, Note_off_c, 11, 57, 17
13, 19800, Note_on_c, 11, 57, 127
13, 19875, Note_off_c, 11, 57, 17
13, 19920, Note_on_c, 11, 45, 125
13, 20005, Note_off_c, 11, 45, 17
13, 21120, Note_on_c, 11, 45, 127
13, 21303, Note_off_c, 11, 45, 17
13, 21360, Note_on_c, 11, 45, 83
13, 21443, Note_off_c, 11, 45, 17
13, 21480, Note_on_c, 11, 57, 127
13, 21623, Note_off_c, 11, 57, 17
13, 21720, Note_on_c, 11, 57, 127
13, 21795, Note_off_c, 11, 57, 17
13, 21840, Note_on_c, 11, 45, 125
13, 21925, Note_off_c, 11, 45, 17
13, 22800, Note_on_c, 11, 45, 126
13, 22804, Note_off_c, 11, 45, 17
13, 22920, Note_on_c, 11, 45, 126
13, 22924, Note_off_c, 11, 45, 17
13, 23040, Note_on_c, 11, 40, 127
13, 23223, Note_off_c, 11, 40, 17
13, 23280, Note_on_c, 11, 40, 83
13, 23363, Note_off_c, 11, 40, 17
13, 23400, Note_on_c, 11, 52, 127
13, 23543, Note_off_c, 11, 52, 17
13, 23640, Note_on_c, 11, 52, 127
13, 23715, Note_off_c, 11, 52, 17
13, 23760, Note_on_c, 11, 40, 125
13, 23845, Note_off_c, 11, 40, 17
13, 24960, Note_on_c, 11, 40, 127
13, 25143, Note_off_c, 11, 40, 17
13, 25200, Note_on_c, 11, 40, 83
13, 25283, Note_off_c, 11, 40, 17
13, 25320, Note_on_c, 11, 52, 127
13, 25463, Note_off_c, 11, 52, 17
13, 25560, Note_on_c, 11, 52, 127
13, 25635, Note_off_c, 11, 52, 17
13, 25680, Note_on_c, 11, 40, 125
13, 25765, Note_off_c, 11, 40, 17
13, 25920, Note_on_c, 11, 52, 127
13, 26103, Note_off_c, 11, 52, 17
13, 26160, Note_on_c, 11, 40, 126
13, 26164, Note_off_c, 11, 40, 17
13, 26280, Note_on_c, 11, 40, 126
13, 26284, Note_off_c, 11, 40, 17
13, 26400, Note_on_c, 11, 40, 127
13, 26583, Note_off_c, 11, 40, 17
13, 26640, Note_on_c, 11, 40, 126
13, 26644, Note_off_c, 11, 40, 17
13, 26760, Note_on_c, 11, 40, 126
13, 26764, Note_off_c, 11, 40, 17
13, 26880, Note_on_c, 11, 40, 127
13, 27063, Note_off_c, 11, 40, 17
13, 27120, Note_on_c, 11, 40, 83
13, 27203, Note_off_c, 11, 40, 17
13, 27240, Note_on_c, 11, 52, 127
13, 27383, Note_off_c, 11, 52, 17
13, 27480, Note_on_c, 11, 52, 127
13, 27555, Note_off_c, 11, 52, 17
13, 27600, Note_on_c, 11, 40, 125
13, 27685, Note_off_c, 11, 40, 17
13, 27840, Note_on_c, 11, 52, 127
13, 28023, Note_off_c, 11, 52, 17
13, 28080, Note_on_c, 11, 40, 126
13, 28084, Note_off_c, 11, 40, 17
13, 28200, Note_on_c, 11, 40, 126
13, 28204, Note_off_c, 11, 40, 17
13, 28320, Note_on_c, 11, 52, 127
13, 28503, Note_off_c, 11, 52, 17
13, 28800, Note_on_c, 11, 40, 127
13, 28983, Note_off_c, 11, 40, 17
13, 29040, Note_on_c, 11, 40, 83
13, 29123, Note_off_c, 11, 40, 17
13, 29160, Note_on_c, 11, 52, 127
13, 29303, Note_off_c, 11, 52, 17
13, 29400, Note_on_c, 11, 52, 127
13, 29475, Note_off_c, 11, 52, 17
13, 29520, Note_on_c, 11, 40, 125
13, 29605, Note_off_c, 11, 40, 17
13, 29760, Note_on_c, 11, 52, 127
13, 29943, Note_off_c, 11, 52, 17
13, 30000, Note_on_c, 11, 40, 126
13, 30004, Note_off_c, 11, 40, 17
13, 30120, Note_on_c, 11, 40, 126
13, 30124, Note_off_c, 11, 40, 17
13, 30240, Note_on_c, 11, 52, 127
13, 30423, Note_off_c, 11, 52, 17
13, 30480, Note_on_c, 11, 40, 126
13, 30484, Note_off_c, 11, 40, 17
13, 30600, Note_on_c, 11, 40, 126
13, 30604, Note_off_c, 11, 40, 17
13, 30720, Note_on_c, 11, 40, 127
13, 30903, Note_off_c, 11, 40, 17
13, 30960, Note_on_c, 11, 40, 83
13, 31043, Note_off_c, 11, 40, 17
13, 31080, Note_on_c, 11, 52, 127
13, 31223, Note_off_c, 11, 52, 17
13, 31320, Note_on_c, 11, 52, 127
13, 31395, Note_off_c, 11, 52, 17
13, 31440, Note_on_c, 11, 40, 125
13, 31525, Note_off_c, 11, 40, 17
13, 31680, Note_on_c, 11, 52, 127
13, 31863, Note_off_c, 11, 52, 17
13, 31920, Note_on_c, 11, 40, 126
13, 31924, Note_off_c, 11, 40, 17
13, 32040, Note_on_c, 11, 40, 126
13, 32044, Note_off_c, 11, 40, 17
13, 32160, Note_on_c, 11, 52, 127
13, 32343, Note_off_c, 11, 52, 17
13, 32400, Note_on_c, 11, 40, 126
13, 32404, Note_off_c, 11, 40, 17
13, 32520, Note_on_c, 11, 40, 126
13, 32524, Note_off_c, 11, 40, 17
13, 32640, Note_on_c, 11, 40, 127
13, 32823, Note_off_c, 11, 40, 17
13, 32880, Note_on_c, 11, 40, 83
13, 32963, Note_off_c, 11, 40, 17
13, 33000, Note_on_c, 11, 52, 127
13, 33143, Note_off_c, 11, 52, 17
13, 33240, Note_on_c, 11, 52, 127
13, 33315, Note_off_c, 11, 52, 17
13, 33360, Note_on_c, 11, 40, 125
13, 33445, Note_off_c, 11, 40, 17
13, 33600, Note_on_c, 11, 52, 127
13, 33783, Note_off_c, 11, 52, 17
13, 33840, Note_on_c, 11, 40, 126
13, 33844, Note_off_c, 11, 40, 17
13, 33960, Note_on_c, 11, 40, 126
13, 33964, Note_off_c, 11, 40, 17
13, 34080, Note_on_c, 11, 52, 127
13, 34263, Note_off_c, 11, 52, 17
13, 34320, Note_on_c, 11, 40, 126
13, 34324, Note_off_c, 11, 40, 17
13, 34440, Note_on_c, 11, 40, 126
13, 34444, Note_off_c, 11, 40, 17
13, 34560, Note_on_c, 11, 45, 127
13, 34743, Note_off_c, 11, 45, 17
13, 34800, Note_on_c, 11, 45, 83
13, 34883, Note_off_c, 11, 45, 17
13, 34920, Note_on_c, 11, 57, 127
13, 35063, Note_off_c, 11, 57, 17
13, 35160, Note_on_c, 11, 57, 127
13, 35235, Note_off_c, 11, 57, 17
13, 35280, Note_on_c, 11, 45, 125
13, 35365, Note_off_c, 11, 45, 17
13, 35520, Note_on_c, 11, 45, 127
13, 35703, Note_off_c, 11, 45, 17
13, 35760, Note_on_c, 11, 45, 126
13, 35764, Note_off_c, 11, 45, 17
13, 35880, Note_on_c, 11, 45, 126
13, 35884, Note_off_c, 11, 45, 17
13, 36000, Note_on_c, 11, 45, 127
13, 36183, Note_off_c, 11, 45, 17
13, 36240, Note_on_c, 11, 45, 126
13, 36244, Note_off_c, 11, 45, 17
13, 36360, Note_on_c, 11, 45, 126
13, 36364, Note_off_c, 11, 45, 17
13, 36480, Note_on_c, 11, 45, 127
13, 36663, Note_off_c, 11, 45, 17
13, 36720, Note_on_c, 11, 45, 83
13, 36803, Note_off_c, 11, 45, 17
13, 36840, Note_on_c, 11, 57, 127
13, 36983, Note_off_c, 11, 57, 17
13, 37080, Note_on_c, 11, 57, 127
13, 37155, Note_off_c, 11, 57, 17
13, 37200, Note_on_c, 11, 45, 125
13, 37285, Note_off_c, 11, 45, 17
13, 37440, Note_on_c, 11, 45, 127
13, 37623, Note_off_c, 11, 45, 17
13, 37680, Note_on_c, 11, 45, 126
13, 37684, Note_off_c, 11, 45, 17
13, 37800, Note_on_c, 11, 45, 126
13, 37804, Note_off_c, 11, 45, 17
13, 37920, Note_on_c, 11, 45, 127
13, 38103, Note_off_c, 11, 45, 17
13, 38160, Note_on_c, 11, 45, 126
13, 38164, Note_off_c, 11, 45, 17
13, 38280, Note_on_c, 11, 45, 126
13, 38284, Note_off_c, 11, 45, 17
13, 38400, Note_on_c, 11, 40, 127
13, 38583, Note_off_c, 11, 40, 17
13, 38640, Note_on_c, 11, 40, 83
13, 38723, Note_off_c, 11, 40, 17
13, 38760, Note_on_c, 11, 52, 127
13, 38903, Note_off_c, 11, 52, 17
13, 39000, Note_on_c, 11, 52, 127
13, 39075, Note_off_c, 11, 52, 17
13, 39120, Note_on_c, 11, 40, 125
13, 39205, Note_off_c, 11, 40, 17
13, 39360, Note_on_c, 11, 40, 127
13, 39543, Note_off_c, 11, 40, 17
13, 39600, Note_on_c, 11, 40, 126
13, 39604, Note_off_c, 11, 40, 17
13, 39720, Note_on_c, 11, 40, 126
13, 39724, Note_off_c, 11, 40, 17
13, 39840, Note_on_c, 11, 40, 127
13, 40023, Note_off_c, 11, 40, 17
13, 40320, Note_on_c, 11, 40, 127
13, 40503, Note_off_c, 11, 40, 17
13, 40560, Note_on_c, 11, 40, 83
13, 40643, Note_off_c, 11, 40, 17
13, 40680, Note_on_c, 11, 52, 127
13, 40823, Note_off_c, 11, 52, 17
13, 40920, Note_on_c, 11, 52, 127
13, 40995, Note_off_c, 11, 52, 17
13, 41040, Note_on_c, 11, 40, 125
13, 41125, Note_off_c, 11, 40, 17
13, 41280, Note_on_c, 11, 52, 127
13, 41463, Note_off_c, 11, 52, 17
13, 41520, Note_on_c, 11, 40, 126
13, 41524, Note_off_c, 11, 40, 17
13, 41640, Note_on_c, 11, 40, 126
13, 41644, Note_off_c, 11, 40, 17
13, 41760, Note_on_c, 11, 40, 127
13, 41943, Note_off_c, 11, 40, 17
13, 42160, Note_on_c, 11, 49, 116
13, 42200, Note_on_c, 11, 56, 119
13, 42240, Note_on_c, 11, 61, 116
13, 42280, Note_on_c, 11, 64, 127
13, 42320, Note_on_c, 11, 68, 118
13, 44076, Note_off_c, 11, 49, 17
13, 44080, Note_on_c, 11, 47, 120
13, 44116, Note_off_c, 11, 56, 17
13, 44120, Note_on_c, 11, 54, 122
13, 44156, Note_off_c, 11, 61, 17
13, 44160, Note_on_c, 11, 63, 111
13, 44196, Note_off_c, 11, 64, 17
13, 44200, Note_on_c, 11, 66, 125
13, 44236, Note_off_c, 11, 68, 17
13, 44240, Note_on_c, 11, 71, 119
13, 45996, Note_off_c, 11, 47, 17
13, 46036, Note_off_c, 11, 54, 17
13, 46076, Note_off_c, 11, 63, 17
13, 46080, Note_on_c, 11, 52, 127
13, 46080, Note_on_c, 11, 64, 127
13, 46080, Note_on_c, 11, 68, 127
13, 46080, Note_on_c, 11, 71, 125
13, 46116, Note_off_c, 11, 66, 17
13, 46156, Note_off_c, 11, 71, 17
13, 46316, Note_off_c, 11, 71, 17
13, 46316, Note_off_c, 11, 68, 17
13, 46316, Note_off_c, 11, 64, 17
13, 46320, Note_on_c, 11, 64, 92
13, 46320, Note_on_c, 11, 68, 92
13, 46320, Note_on_c, 11, 71, 92
13, 46324, Note_off_c, 11, 71, 17
13, 46324, Note_off_c, 11, 68, 17
13, 46324, Note_off_c, 11, 64, 17
13, 46440, Note_on_c, 11, 64, 127
13, 46440, Note_on_c, 11, 68, 127
13, 46440, Note_on_c, 11, 71, 122
13, 46515, Note_off_c, 11, 52, 17
13, 46676, Note_off_c, 11, 71, 17
13, 46676, Note_off_c, 11, 64, 17
13, 46676, Note_off_c, 11, 68, 17
13, 46680, Note_on_c, 11, 52, 127
13, 46680, Note_on_c, 11, 63, 126
13, 46680, Note_on_c, 11, 66, 126
13, 46680, Note_on_c, 11, 71, 126
13, 46684, Note_off_c, 11, 71, 17
13, 46684, Note_off_c, 11, 66, 17
13, 46684, Note_off_c, 11, 63, 17
13, 46758, Note_off_c, 11, 52, 17
13, 46800, Note_on_c, 11, 51, 127
13, 46800, Note_on_c, 11, 63, 127
13, 46800, Note_on_c, 11, 66, 127
13, 46800, Note_on_c, 11, 71, 127
13, 46953, Note_off_c, 11, 63, 17
13, 46957, Note_off_c, 11, 71, 17
13, 46961, Note_off_c, 11, 66, 17
13, 46969, Note_off_c, 11, 51, 17
13, 47040, Note_on_c, 11, 52, 127
13, 47040, Note_on_c, 11, 64, 127
13, 47040, Note_on_c, 11, 68, 127
13, 47040, Note_on_c, 11, 71, 114
13, 47269, Note_off_c, 11, 52, 17
13, 47333, Note_off_c, 11, 64, 17
13, 47335, Note_off_c, 11, 71, 17
13, 47348, Note_off_c, 11, 68, 17
13, 47760, Note_on_c, 11, 52, 126
13, 47760, Note_on_c, 11, 64, 126
13, 47760, Note_on_c, 11, 68, 126
13, 47760, Note_on_c, 11, 71, 126
13, 47764, Note_off_c, 11, 71, 17
13, 47764, Note_off_c, 11, 68, 17
13, 47764, Note_off_c, 11, 64, 17
13, 47764, Note_off_c, 11, 52, 17
13, 47880, Note_on_c, 11, 52, 126
13, 47880, Note_on_c, 11, 64, 126
13, 47880, Note_on_c, 11, 68, 126
13, 47880, Note_on_c, 11, 71, 126
13, 47884, Note_off_c, 11, 71, 17
13, 47884, Note_off_c, 11, 68, 17
13, 47884, Note_off_c, 11, 52, 17
13, 47884, Note_off_c, 11, 64, 17
13, 48000, Note_on_c, 11, 52, 127
13, 48000, Note_on_c, 11, 64, 127
13, 48000, Note_on_c, 11, 68, 127
13, 48000, Note_on_c, 11, 71, 125
13, 48236, Note_off_c, 11, 64, 17
13, 48236, Note_off_c, 11, 68, 17
13, 48236, Note_off_c, 11, 71, 17
13, 48240, Note_on_c, 11, 64, 92
13, 48240, Note_on_c, 11, 68, 92
13, 48240, Note_on_c, 11, 71, 92
13, 48244, Note_off_c, 11, 71, 17
13, 48244, Note_off_c, 11, 68, 17
13, 48244, Note_off_c, 11, 64, 17
13, 48360, Note_on_c, 11, 64, 127
13, 48360, Note_on_c, 11, 68, 127
13, 48360, Note_on_c, 11, 71, 122
13, 48435, Note_off_c, 11, 52, 17
13, 48596, Note_off_c, 11, 71, 17
13, 48596, Note_off_c, 11, 64, 17
13, 48596, Note_off_c, 11, 68, 17
13, 48600, Note_on_c, 11, 52, 127
13, 48600, Note_on_c, 11, 63, 126
13, 48600, Note_on_c, 11, 66, 126
13, 48600, Note_on_c, 11, 71, 126
13, 48604, Note_off_c, 11, 71, 17
13, 48604, Note_off_c, 11, 63, 17
13, 48604, Note_off_c, 11, 66, 17
13, 48678, Note_off_c, 11, 52, 17
13, 48720, Note_on_c, 11, 51, 127
13, 48720, Note_on_c, 11, 63, 127
13, 48720, Note_on_c, 11, 66, 127
13, 48720, Note_on_c, 11, 71, 127
13, 48873, Note_off_c, 11, 63, 17
13, 48877, Note_off_c, 11, 71, 17
13, 48881, Note_off_c, 11, 66, 17
13, 48889, Note_off_c, 11, 51, 17
13, 48960, Note_on_c, 11, 52, 127
13, 48960, Note_on_c, 11, 64, 127
13, 48960, Note_on_c, 11, 68, 127
13, 48960, Note_on_c, 11, 71, 114
13, 49189, Note_off_c, 11, 52, 17
13, 49253, Note_off_c, 11, 64, 17
13, 49255, Note_off_c, 11, 71, 17
13, 49268, Note_off_c, 11, 68, 17
13, 49440, Note_on_c, 11, 52, 127
13, 49440, Note_on_c, 11, 64, 127
13, 49440, Note_on_c, 11, 68, 127
13, 49440, Note_on_c, 11, 71, 127
13, 49698, Note_off_c, 11, 64, 17
13, 49699, Note_off_c, 11, 68, 17
13, 49706, Note_off_c, 11, 71, 17
13, 49719, Note_off_c, 11, 52, 17
13, 49920, Note_on_c, 11, 45, 127
13, 49920, Note_on_c, 11, 64, 127
13, 49920, Note_on_c, 11, 68, 127
13, 49920, Note_on_c, 11, 71, 125
13, 50156, Note_off_c, 11, 71, 17
13, 50156, Note_off_c, 11, 64, 17
13, 50156, Note_off_c, 11, 68, 17
13, 50160, Note_on_c, 11, 64, 92
13, 50160, Note_on_c, 11, 68, 92
13, 50160, Note_on_c, 11, 71, 92
13, 50164, Note_off_c, 11, 71, 17
13, 50164, Note_off_c, 11, 68, 17
13, 50164, Note_off_c, 11, 64, 17
13, 50280, Note_on_c, 11, 64, 127
13, 50280, Note_on_c, 11, 68, 127
13, 50280, Note_on_c, 11, 71, 122
13, 50355, Note_off_c, 11, 45, 17
13, 50516, Note_off_c, 11, 71, 17
13, 50516, Note_off_c, 11, 64, 17
13, 50516, Note_off_c, 11, 68, 17
13, 50520, Note_on_c, 11, 45, 127
13, 50520, Note_on_c, 11, 63, 126
13, 50520, Note_on_c, 11, 66, 126
13, 50520, Note_on_c, 11, 71, 126
13, 50524, Note_off_c, 11, 71, 17
13, 50524, Note_off_c, 11, 66, 17
13, 50524, Note_off_c, 11, 63, 17
13, 50598, Note_off_c, 11, 45, 17
13, 50640, Note_on_c, 11, 44, 127
13, 50640, Note_on_c, 11, 63, 127
13, 50640, Note_on_c, 11, 66, 127
13, 50640, Note_on_c, 11, 71, 127
13, 50793, Note_off_c, 11, 63, 17
13, 50797, Note_off_c, 11, 71, 17
13, 50801, Note_off_c, 11, 66, 17
13, 50809, Note_off_c, 11, 44, 17
13, 50880, Note_on_c, 11, 45, 127
13, 50880, Note_on_c, 11, 64, 127
13, 50880, Note_on_c, 11, 68, 127
13, 50880, Note_on_c, 11, 71, 114
13, 51109, Note_off_c, 11, 45, 17
13, 51173, Note_off_c, 11, 64, 17
13, 51175, Note_off_c, 11, 71, 17
13, 51188, Note_off_c, 11, 68, 17
13, 51600, Note_on_c, 11, 45, 126
13, 51600, Note_on_c, 11, 64, 126
13, 51600, Note_on_c, 11, 68, 126
13, 51600, Note_on_c, 11, 71, 126
13, 51604, Note_off_c, 11, 71, 17
13, 51604, Note_off_c, 11, 68, 17
13, 51604, Note_off_c, 11, 64, 17
13, 51604, Note_off_c, 11, 45, 17
13, 51720, Note_on_c, 11, 45, 126
13, 51720, Note_on_c, 11, 64, 126
13, 51720, Note_on_c, 11, 68, 126
13, 51720, Note_on_c, 11, 71, 126
13, 51724, Note_off_c, 11, 71, 17
13, 51724, Note_off_c, 11, 68, 17
13, 51724, Note_off_c, 11, 45, 17
13, 51724, Note_off_c, 11, 64, 17
13, 51840, Note_on_c, 11, 45, 127
13, 51840, Note_on_c, 11, 64, 127
13, 51840, Note_on_c, 11, 68, 127
13, 51840, Note_on_c, 11, 71, 125
13, 52076, Note_off_c, 11, 64, 17
13, 52076, Note_off_c, 11, 68, 17
13, 52076, Note_off_c, 11, 71, 17
13, 52080, Note_on_c, 11, 64, 92
13, 52080, Note_on_c, 11, 68, 92
13, 52080, Note_on_c, 11, 71, 92
13, 52084, Note_off_c, 11, 71, 17
13, 52084, Note_off_c, 11, 68, 17
13, 52084, Note_off_c, 11, 64, 17
13, 52200, Note_on_c, 11, 64, 127
13, 52200, Note_on_c, 11, 68, 127
13, 52200, Note_on_c, 11, 71, 122
13, 52275, Note_off_c, 11, 45, 17
13, 52436, Note_off_c, 11, 71, 17
13, 52436, Note_off_c, 11, 64, 17
13, 52436, Note_off_c, 11, 68, 17
13, 52440, Note_on_c, 11, 45, 127
13, 52440, Note_on_c, 11, 63, 126
13, 52440, Note_on_c, 11, 66, 126
13, 52440, Note_on_c, 11, 71, 126
13, 52444, Note_off_c, 11, 71, 17
13, 52444, Note_off_c, 11, 66, 17
13, 52444, Note_off_c, 11, 63, 17
13, 52518, Note_off_c, 11, 45, 17
13, 52560, Note_on_c, 11, 44, 127
13, 52560, Note_on_c, 11, 63, 127
13, 52560, Note_on_c, 11, 66, 127
13, 52560, Note_on_c, 11, 71, 127
13, 52713, Note_off_c, 11, 63, 17
13, 52717, Note_off_c, 11, 71, 17
13, 52721, Note_off_c, 11, 66, 17
13, 52729, Note_off_c, 11, 44, 17
13, 52800, Note_on_c, 11, 45, 127
13, 52800, Note_on_c, 11, 64, 127
13, 52800, Note_on_c, 11, 68, 127
13, 52800, Note_on_c, 11, 71, 114
13, 53029, Note_off_c, 11, 45, 17
13, 53093, Note_off_c, 11, 64, 17
13, 53095, Note_off_c, 11, 71, 17
13, 53108, Note_off_c, 11, 68, 17
13, 53280, Note_on_c, 11, 45, 127
13, 53280, Note_on_c, 11, 64, 127
13, 53280, Note_on_c, 11, 68, 127
13, 53280, Note_on_c, 11, 71, 127
13, 53538, Note_off_c, 11, 64, 17
13, 53539, Note_off_c, 11, 68, 17
13, 53546, Note_off_c, 11, 71, 17
13, 53559, Note_off_c, 11, 45, 17
13, 53760, Note_on_c, 11, 49, 127
13, 53760, Note_on_c, 11, 64, 127
13, 53760, Note_on_c, 11, 68, 127
13, 53760, Note_on_c, 11, 73, 125
13, 53996, Note_off_c, 11, 73, 17
13, 53996, Note_off_c, 11, 64, 17
13, 53996, Note_off_c, 11, 68, 17
13, 54000, Note_on_c, 11, 64, 92
13, 54000, Note_on_c, 11, 68, 92
13, 54000, Note_on_c, 11, 73, 92
13, 54004, Note_off_c, 11, 73, 17
13, 54004, Note_off_c, 11, 68, 17
13, 54004, Note_off_c, 11, 64, 17
13, 54120, Note_on_c, 11, 64, 127
13, 54120, Note_on_c, 11, 68, 127
13, 54120, Note_on_c, 11, 73, 122
13, 54195, Note_off_c, 11, 49, 17
13, 54356, Note_off_c, 11, 64, 17
13, 54356, Note_off_c, 11, 73, 17
13, 54356, Note_off_c, 11, 68, 17
13, 54360, Note_on_c, 11, 49, 127
13, 54360, Note_on_c, 11, 64, 126
13, 54360, Note_on_c, 11, 68, 126
13, 54360, Note_on_c, 11, 73, 126
13, 54364, Note_off_c, 11, 73, 17
13, 54364, Note_off_c, 11, 68, 17
13, 54364, Note_off_c, 11, 64, 17
13, 54438, Note_off_c, 11, 49, 17
13, 54480, Note_on_c, 11, 49, 127
13, 54480, Note_on_c, 11, 64, 127
13, 54480, Note_on_c, 11, 68, 127
13, 54480, Note_on_c, 11, 73, 127
13, 54633, Note_off_c, 11, 64, 17
13, 54637, Note_off_c, 11, 73, 17
13, 54641, Note_off_c, 11, 68, 17
13, 54649, Note_off_c, 11, 49, 17
13, 54720, Note_on_c, 11, 49, 127
13, 54720, Note_on_c, 11, 64, 127
13, 54720, Note_on_c, 11, 68, 127
13, 54720, Note_on_c, 11, 73, 114
13, 54949, Note_off_c, 11, 49, 17
13, 55013, Note_off_c, 11, 64, 17
13, 55015, Note_off_c, 11, 73, 17
13, 55028, Note_off_c, 11, 68, 17
13, 55200, Note_on_c, 11, 64, 126
13, 55200, Note_on_c, 11, 68, 126
13, 55200, Note_on_c, 11, 73, 126
13, 55204, Note_off_c, 11, 73, 17
13, 55204, Note_off_c, 11, 64, 17
13, 55204, Note_off_c, 11, 68, 17
13, 55440, Note_on_c, 11, 64, 126
13, 55440, Note_on_c, 11, 68, 126
13, 55440, Note_on_c, 11, 73, 126
13, 55444, Note_off_c, 11, 73, 17
13, 55444, Note_off_c, 11, 64, 17
13, 55444, Note_off_c, 11, 68, 17
13, 55560, Note_on_c, 11, 64, 126
13, 55560, Note_on_c, 11, 68, 126
13, 55560, Note_on_c, 11, 73, 126
13, 55564, Note_off_c, 11, 73, 17
13, 55564, Note_off_c, 11, 68, 17
13, 55564, Note_off_c, 11, 64, 17
13, 55680, Note_on_c, 11, 47, 127
13, 55680, Note_on_c, 11, 63, 127
13, 55680, Note_on_c, 11, 66, 127
13, 55680, Note_on_c, 11, 71, 125
13, 55916, Note_off_c, 11, 63, 17
13, 55916, Note_off_c, 11, 66, 17
13, 55916, Note_off_c, 11, 71, 17
13, 55920, Note_on_c, 11, 63, 92
13, 55920, Note_on_c, 11, 66, 92
13, 55920, Note_on_c, 11, 71, 92
13, 55924, Note_off_c, 11, 71, 17
13, 55924, Note_off_c, 11, 66, 17
13, 55924, Note_off_c, 11, 63, 17
13, 56040, Note_on_c, 11, 63, 127
13, 56040, Note_on_c, 11, 66, 127
13, 56040, Note_on_c, 11, 71, 122
13, 56115, Note_off_c, 11, 47, 17
13, 56276, Note_off_c, 11, 71, 17
13, 56276, Note_off_c, 11, 66, 17
13, 56276, Note_off_c, 11, 63, 17
13, 56280, Note_on_c, 11, 47, 127
13, 56280, Note_on_c, 11, 63, 126
13, 56280, Note_on_c, 11, 66, 126
13, 56280, Note_on_c, 11, 71, 126
13, 56284, Note_off_c, 11, 71, 17
13, 56284, Note_off_c, 11, 66, 17
13, 56284, Note_off_c, 11, 63, 17
13, 56358, Note_off_c, 11, 47, 17
13, 56400, Note_on_c, 11, 47, 127
13, 56400, Note_on_c, 11, 63, 127
13, 56400, Note_on_c, 11, 66, 127
13, 56400, Note_on_c, 11, 71, 127
13, 56553, Note_off_c, 11, 63, 17
13, 56557, Note_off_c, 11, 71, 17
13, 56561, Note_off_c, 11, 66, 17
13, 56569, Note_off_c, 11, 47, 17
13, 56640, Note_on_c, 11, 47, 127
13, 56640, Note_on_c, 11, 64, 127
13, 56640, Note_on_c, 11, 68, 127
13, 56640, Note_on_c, 11, 71, 114
13, 56869, Note_off_c, 11, 47, 17
13, 56933, Note_off_c, 11, 64, 17
13, 56935, Note_off_c, 11, 71, 17
13, 56948, Note_off_c, 11, 68, 17
13, 57120, Note_on_c, 11, 63, 126
13, 57120, Note_on_c, 11, 66, 126
13, 57120, Note_on_c, 11, 71, 126
13, 57356, Note_off_c, 11, 63, 17
13, 57356, Note_off_c, 11, 71, 17
13, 57356, Note_off_c, 11, 66, 17
13, 57360, Note_on_c, 11, 63, 126
13, 57360, Note_on_c, 11, 66, 126
13, 57360, Note_on_c, 11, 71, 126
13, 57364, Note_off_c, 11, 71, 17
13, 57364, Note_off_c, 11, 66, 17
13, 57364, Note_off_c, 11, 63, 17
13, 57480, Note_on_c, 11, 63, 126
13, 57480, Note_on_c, 11, 66, 126
13, 57480, Note_on_c, 11, 71, 126
13, 57484, Note_off_c, 11, 71, 17
13, 57484, Note_off_c, 11, 66, 17
13, 57484, Note_off_c, 11, 63, 17
13, 57600, Note_on_c, 11, 45, 127
13, 57600, Note_on_c, 11, 64, 127
13, 57600, Note_on_c, 11, 68, 127
13, 57600, Note_on_c, 11, 71, 125
13, 57836, Note_off_c, 11, 68, 17
13, 57836, Note_off_c, 11, 64, 17
13, 57836, Note_off_c, 11, 71, 17
13, 57840, Note_on_c, 11, 64, 92
13, 57840, Note_on_c, 11, 68, 92
13, 57840, Note_on_c, 11, 71, 92
13, 57844, Note_off_c, 11, 71, 17
13, 57844, Note_off_c, 11, 68, 17
13, 57844, Note_off_c, 11, 64, 17
13, 57960, Note_on_c, 11, 64, 127
13, 57960, Note_on_c, 11, 68, 127
13, 57960, Note_on_c, 11, 71, 122
13, 58035, Note_off_c, 11, 45, 17
13, 58196, Note_off_c, 11, 64, 17
13, 58196, Note_off_c, 11, 71, 17
13, 58196, Note_off_c, 11, 68, 17
13, 58200, Note_on_c, 11, 45, 127
13, 58200, Note_on_c, 11, 63, 126
13, 58200, Note_on_c, 11, 66, 126
13, 58200, Note_on_c, 11, 71, 126
13, 58204, Note_off_c, 11, 71, 17
13, 58204, Note_off_c, 11, 63, 17
13, 58204, Note_off_c, 11, 66, 17
13, 58278, Note_off_c, 11, 45, 17
13, 58320, Note_on_c, 11, 44, 127
13, 58320, Note_on_c, 11, 63, 127
13, 58320, Note_on_c, 11, 66, 127
13, 58320, Note_on_c, 11, 71, 127
13, 58473, Note_off_c, 11, 63, 17
13, 58477, Note_off_c, 11, 71, 17
13, 58481, Note_off_c, 11, 66, 17
13, 58489, Note_off_c, 11, 44, 17
13, 58560, Note_on_c, 11, 45, 127
13, 58560, Note_on_c, 11, 64, 127
13, 58560, Note_on_c, 11, 68, 127
13, 58560, Note_on_c, 11, 71, 114
13, 58789, Note_off_c, 11, 45, 17
13, 58853, Note_off_c, 11, 64, 17
13, 58855, Note_off_c, 11, 71, 17
13, 58868, Note_off_c, 11, 68, 17
13, 59280, Note_on_c, 11, 45, 126
13, 59280, Note_on_c, 11, 64, 126
13, 59280, Note_on_c, 11, 68, 126
13, 59280, Note_on_c, 11, 71, 126
13, 59284, Note_off_c, 11, 71, 17
13, 59284, Note_off_c, 11, 68, 17
13, 59284, Note_off_c, 11, 64, 17
13, 59284, Note_off_c, 11, 45, 17
13, 59400, Note_on_c, 11, 45, 126
13, 59400, Note_on_c, 11, 64, 126
13, 59400, Note_on_c, 11, 68, 126
13, 59400, Note_on_c, 11, 71, 126
13, 59404, Note_off_c, 11, 71, 17
13, 59404, Note_off_c, 11, 68, 17
13, 59404, Note_off_c, 11, 64, 17
13, 59404, Note_off_c, 11, 45, 17
13, 59520, Note_on_c, 11, 45, 127
13, 59520, Note_on_c, 11, 64, 127
13, 59520, Note_on_c, 11, 68, 127
13, 59520, Note_on_c, 11, 71, 125
13, 59756, Note_off_c, 11, 71, 17
13, 59756, Note_off_c, 11, 64, 17
13, 59756, Note_off_c, 11, 68, 17
13, 59760, Note_on_c, 11, 64, 92
13, 59760, Note_on_c, 11, 68, 92
13, 59760, Note_on_c, 11, 71, 92
13, 59764, Note_off_c, 11, 71, 17
13, 59764, Note_off_c, 11, 68, 17
13, 59764, Note_off_c, 11, 64, 17
13, 59880, Note_on_c, 11, 64, 127
13, 59880, Note_on_c, 11, 68, 127
13, 59880, Note_on_c, 11, 71, 122
13, 59955, Note_off_c, 11, 45, 17
13, 60116, Note_off_c, 11, 64, 17
13, 60116, Note_off_c, 11, 71, 17
13, 60116, Note_off_c, 11, 68, 17
13, 60120, Note_on_c, 11, 45, 127
13, 60120, Note_on_c, 11, 63, 126
13, 60120, Note_on_c, 11, 66, 126
13, 60120, Note_on_c, 11, 71, 126
13, 60124, Note_off_c, 11, 71, 17
13, 60124, Note_off_c, 11, 63, 17
13, 60124, Note_off_c, 11, 66, 17
13, 60198, Note_off_c, 11, 45, 17
13, 60240, Note_on_c, 11, 44, 127
13, 60240, Note_on_c, 11, 63, 127
13, 60240, Note_on_c, 11, 66, 127
13, 60240, Note_on_c, 11, 71, 127
13, 60393, Note_off_c, 11, 63, 17
13, 60397, Note_off_c, 11, 71, 17
13, 60401, Note_off_c, 11, 66, 17
13, 60409, Note_off_c, 11, 44, 17
13, 60480, Note_on_c, 11, 45, 127
13, 60480, Note_on_c, 11, 64, 127
13, 60480, Note_on_c, 11, 68, 127
13, 60480, Note_on_c, 11, 71, 114
13, 60709, Note_off_c, 11, 45, 17
13, 60773, Note_off_c, 11, 64, 17
13, 60775, Note_off_c, 11, 71, 17
13, 60788, Note_off_c, 11, 68, 17
13, 60960, Note_on_c, 11, 45, 127
13, 60960, Note_on_c, 11, 64, 127
13, 60960, Note_on_c, 11, 68, 127
13, 60960, Note_on_c, 11, 71, 127
13, 61218, Note_off_c, 11, 64, 17
13, 61219, Note_off_c, 11, 68, 17
13, 61226, Note_off_c, 11, 71, 17
13, 61239, Note_off_c, 11, 45, 17
13, 61440, Note_on_c, 11, 52, 127
13, 61440, Note_on_c, 11, 64, 127
13, 61440, Note_on_c, 11, 68, 127
13, 61440, Note_on_c, 11, 71, 125
13, 61676, Note_off_c, 11, 68, 17
13, 61676, Note_off_c, 11, 71, 17
13, 61676, Note_off_c, 11, 64, 17
13, 61680, Note_on_c, 11, 64, 92
13, 61680, Note_on_c, 11, 68, 92
13, 61680, Note_on_c, 11, 71, 92
13, 61684, Note_off_c, 11, 71, 17
13, 61684, Note_off_c, 11, 68, 17
13, 61684, Note_off_c, 11, 64, 17
13, 61800, Note_on_c, 11, 64, 127
13, 61800, Note_on_c, 11, 68, 127
13, 61800, Note_on_c, 11, 71, 122
13, 61875, Note_off_c, 11, 52, 17
13, 62036, Note_off_c, 11, 71, 17
13, 62036, Note_off_c, 11, 64, 17
13, 62036, Note_off_c, 11, 68, 17
13, 62040, Note_on_c, 11, 52, 127
13, 62040, Note_on_c, 11, 63, 126
13, 62040, Note_on_c, 11, 66, 126
13, 62040, Note_on_c, 11, 71, 126
13, 62044, Note_off_c, 11, 71, 17
13, 62044, Note_off_c, 11, 66, 17
13, 62044, Note_off_c, 11, 63, 17
13, 62118, Note_off_c, 11, 52, 17
13, 62160, Note_on_c, 11, 51, 127
13, 62160, Note_on_c, 11, 63, 127
13, 62160, Note_on_c, 11, 66, 127
13, 62160, Note_on_c, 11, 71, 127
13, 62313, Note_off_c, 11, 63, 17
13, 62317, Note_off_c, 11, 71, 17
13, 62321, Note_off_c, 11, 66, 17
13, 62329, Note_off_c, 11, 51, 17
13, 62400, Note_on_c, 11, 52, 127
13, 62400, Note_on_c, 11, 64, 127
13, 62400, Note_on_c, 11, 68, 127
13, 62400, Note_on_c, 11, 71, 114
13, 62629, Note_off_c, 11, 52, 17
13, 62693, Note_off_c, 11, 64, 17
13, 62695, Note_off_c, 11, 71, 17
13, 62708, Note_off_c, 11, 68, 17
13, 63120, Note_on_c, 11, 52, 126
13, 63120, Note_on_c, 11, 64, 126
13, 63120, Note_on_c, 11, 68, 126
13, 63120, Note_on_c, 11, 71, 126
13, 63124, Note_off_c, 11, 71, 17
13, 63124, Note_off_c, 11, 64, 17
13, 63124, Note_off_c, 11, 52, 17
13, 63124, Note_off_c, 11, 68, 17
13, 63240, Note_on_c, 11, 52, 126
13, 63240, Note_on_c, 11, 64, 126
13, 63240, Note_on_c, 11, 68, 126
13, 63240, Note_on_c, 11, 71, 126
13, 63244, Note_off_c, 11, 71, 17
13, 63244, Note_off_c, 11, 64, 17
13, 63244, Note_off_c, 11, 52, 17
13, 63244, Note_off_c, 11, 68, 17
13, 63360, Note_on_c, 11, 52, 127
13, 63360, Note_on_c, 11, 64, 127
13, 63360, Note_on_c, 11, 68, 127
13, 63360, Note_on_c, 11, 71, 125
13, 63596, Note_off_c, 11, 71, 17
13, 63596, Note_off_c, 11, 68, 17
13, 63596, Note_off_c, 11, 64, 17
13, 63600, Note_on_c, 11, 64, 92
13, 63600, Note_on_c, 11, 68, 92
13, 63600, Note_on_c, 11, 71, 92
13, 63604, Note_off_c, 11, 71, 17
13, 63604, Note_off_c, 11, 68, 17
13, 63604, Note_off_c, 11, 64, 17
13, 63720, Note_on_c, 11, 64, 127
13, 63720, Note_on_c, 11, 68, 127
13, 63720, Note_on_c, 11, 71, 122
13, 63795, Note_off_c, 11, 52, 17
13, 63956, Note_off_c, 11, 64, 17
13, 63956, Note_off_c, 11, 71, 17
13, 63956, Note_off_c, 11, 68, 17
13, 63960, Note_on_c, 11, 52, 127
13, 63960, Note_on_c, 11, 63, 126
13, 63960, Note_on_c, 11, 66, 126
13, 63960, Note_on_c, 11, 71, 126
13, 63964, Note_off_c, 11, 71, 17
13, 63964, Note_off_c, 11, 66, 17
13, 63964, Note_off_c, 11, 63, 17
13, 64038, Note_off_c, 11, 52, 17
13, 64080, Note_on_c, 11, 51, 127
13, 64080, Note_on_c, 11, 63, 127
13, 64080, Note_on_c, 11, 66, 127
13, 64080, Note_on_c, 11, 71, 127
13, 64233, Note_off_c, 11, 63, 17
13, 64237, Note_off_c, 11, 71, 17
13, 64241, Note_off_c, 11, 66, 17
13, 64249, Note_off_c, 11, 51, 17
13, 64320, Note_on_c, 11, 52, 127
13, 64320, Note_on_c, 11, 64, 127
13, 64320, Note_on_c, 11, 68, 127
13, 64320, Note_on_c, 11, 71, 114
13, 64549, Note_off_c, 11, 52, 17
13, 64613, Note_off_c, 11, 64, 17
13, 64615, Note_off_c, 11, 71, 17
13, 64628, Note_off_c, 11, 68, 17
13, 64800, Note_on_c, 11, 52, 127
13, 64800, Note_on_c, 11, 64, 127
13, 64800, Note_on_c, 11, 68, 127
13, 64800, Note_on_c, 11, 71, 127
13, 65058, Note_off_c, 11, 64, 17
13, 65059, Note_off_c, 11, 68, 17
13, 65066, Note_off_c, 11, 71, 17
13, 65079, Note_off_c, 11, 52, 17
13, 65280, Note_on_c, 11, 45, 127
13, 65280, Note_on_c, 11, 64, 127
13, 65280, Note_on_c, 11, 68, 127
13, 65280, Note_on_c, 11, 71, 125
13, 65516, Note_off_c, 11, 71, 17
13, 65516, Note_off_c, 11, 64, 17
13, 65516, Note_off_c, 11, 68, 17
13, 65520, Note_on_c, 11, 64, 92
13, 65520, Note_on_c, 11, 68, 92
13, 65520, Note_on_c, 11, 71, 92
13, 65524, Note_off_c, 11, 71, 17
13, 65524, Note_off_c, 11, 68, 17
13, 65524, Note_off_c, 11, 64, 17
13, 65640, Note_on_c, 11, 64, 127
13, 65640, Note_on_c, 11, 68, 127
13, 65640, Note_on_c, 11, 71, 122
13, 65715, Note_off_c, 11, 45, 17
13, 65876, Note_off_c, 11, 71, 17
13, 65876, Note_off_c, 11, 64, 17
13, 65876, Note_off_c, 11, 68, 17
13, 65880, Note_on_c, 11, 45, 127
13, 65880, Note_on_c, 11, 63, 126
13, 65880, Note_on_c, 11, 66, 126
13, 65880, Note_on_c, 11, 71, 126
13, 65884, Note_off_c, 11, 71, 17
13, 65884, Note_off_c, 11, 66, 17
13, 65884, Note_off_c, 11, 63, 17
13, 65958, Note_off_c, 11, 45, 17
13, 66000, Note_on_c, 11, 44, 127
13, 66000, Note_on_c, 11, 63, 127
13, 66000, Note_on_c, 11, 66, 127
13, 66000, Note_on_c, 11, 71, 127
13, 66153, Note_off_c, 11, 63, 17
13, 66157, Note_off_c, 11, 71, 17
13, 66161, Note_off_c, 11, 66, 17
13, 66169, Note_off_c, 11, 44, 17
13, 66240, Note_on_c, 11, 45, 127
13, 66240, Note_on_c, 11, 64, 127
13, 66240, Note_on_c, 11, 68, 127
13, 66240, Note_on_c, 11, 71, 114
13, 66469, Note_off_c, 11, 45, 17
13, 66533, Note_off_c, 11, 64, 17
13, 66535, Note_off_c, 11, 71, 17
13, 66548, Note_off_c, 11, 68, 17
13, 66960, Note_on_c, 11, 45, 126
13, 66960, Note_on_c, 11, 64, 126
13, 66960, Note_on_c, 11, 68, 126
13, 66960, Note_on_c, 11, 71, 126
13, 66964, Note_off_c, 11, 71, 17
13, 66964, Note_off_c, 11, 64, 17
13, 66964, Note_off_c, 11, 45, 17
13, 66964, Note_off_c, 11, 68, 17
13, 67080, Note_on_c, 11, 45, 126
13, 67080, Note_on_c, 11, 64, 126
13, 67080, Note_on_c, 11, 68, 126
13, 67080, Note_on_c, 11, 71, 126
13, 67084, Note_off_c, 11, 71, 17
13, 67084, Note_off_c, 11, 64, 17
13, 67084, Note_off_c, 11, 45, 17
13, 67084, Note_off_c, 11, 68, 17
13, 67200, Note_on_c, 11, 45, 127
13, 67200, Note_on_c, 11, 64, 127
13, 67200, Note_on_c, 11, 68, 127
13, 67200, Note_on_c, 11, 71, 125
13, 67436, Note_off_c, 11, 71, 17
13, 67436, Note_off_c, 11, 68, 17
13, 67436, Note_off_c, 11, 64, 17
13, 67440, Note_on_c, 11, 64, 92
13, 67440, Note_on_c, 11, 68, 92
13, 67440, Note_on_c, 11, 71, 92
13, 67444, Note_off_c, 11, 71, 17
13, 67444, Note_off_c, 11, 68, 17
13, 67444, Note_off_c, 11, 64, 17
13, 67560, Note_on_c, 11, 64, 127
13, 67560, Note_on_c, 11, 68, 127
13, 67560, Note_on_c, 11, 71, 122
13, 67635, Note_off_c, 11, 45, 17
13, 67796, Note_off_c, 11, 64, 17
13, 67796, Note_off_c, 11, 71, 17
13, 67796, Note_off_c, 11, 68, 17
13, 67800, Note_on_c, 11, 45, 127
13, 67800, Note_on_c, 11, 63, 126
13, 67800, Note_on_c, 11, 66, 126
13, 67800, Note_on_c, 11, 71, 126
13, 67804, Note_off_c, 11, 71, 17
13, 67804, Note_off_c, 11, 66, 17
13, 67804, Note_off_c, 11, 63, 17
13, 67878, Note_off_c, 11, 45, 17
13, 67920, Note_on_c, 11, 44, 127
13, 67920, Note_on_c, 11, 63, 127
13, 67920, Note_on_c, 11, 66, 127
13, 67920, Note_on_c, 11, 71, 127
13, 68073, Note_off_c, 11, 63, 17
13, 68077, Note_off_c, 11, 71, 17
13, 68081, Note_off_c, 11, 66, 17
13, 68089, Note_off_c, 11, 44, 17
13, 68160, Note_on_c, 11, 45, 127
13, 68160, Note_on_c, 11, 64, 127
13, 68160, Note_on_c, 11, 68, 127
13, 68160, Note_on_c, 11, 71, 114
13, 68389, Note_off_c, 11, 45, 17
13, 68453, Note_off_c, 11, 64, 17
13, 68455, Note_off_c, 11, 71, 17
13, 68468, Note_off_c, 11, 68, 17
13, 68640, Note_on_c, 11, 45, 127
13, 68640, Note_on_c, 11, 64, 127
13, 68640, Note_on_c, 11, 68, 127
13, 68640, Note_on_c, 11, 71, 127
13, 68898, Note_off_c, 11, 64, 17
13, 68899, Note_off_c, 11, 68, 17
13, 68906, Note_off_c, 11, 71, 17
13, 68919, Note_off_c, 11, 45, 17
13, 69120, Note_on_c, 11, 49, 127
13, 69120, Note_on_c, 11, 64, 127
13, 69120, Note_on_c, 11, 68, 127
13, 69120, Note_on_c, 11, 73, 125
13, 69356, Note_off_c, 11, 64, 17
13, 69356, Note_off_c, 11, 73, 17
13, 69356, Note_off_c, 11, 68, 17
13, 69360, Note_on_c, 11, 64, 92
13, 69360, Note_on_c, 11, 68, 92
13, 69360, Note_on_c, 11, 73, 92
13, 69364, Note_off_c, 11, 73, 17
13, 69364, Note_off_c, 11, 68, 17
13, 69364, Note_off_c, 11, 64, 17
13, 69480, Note_on_c, 11, 64, 127
13, 69480, Note_on_c, 11, 68, 127
13, 69480, Note_on_c, 11, 73, 122
13, 69555, Note_off_c, 11, 49, 17
13, 69716, Note_off_c, 11, 73, 17
13, 69716, Note_off_c, 11, 64, 17
13, 69716, Note_off_c, 11, 68, 17
13, 69720, Note_on_c, 11, 49, 127
13, 69720, Note_on_c, 11, 64, 126
13, 69720, Note_on_c, 11, 68, 126
13, 69720, Note_on_c, 11, 73, 126
13, 69724, Note_off_c, 11, 73, 17
13, 69724, Note_off_c, 11, 68, 17
13, 69724, Note_off_c, 11, 64, 17
13, 69798, Note_off_c, 11, 49, 17
13, 69840, Note_on_c, 11, 49, 127
13, 69840, Note_on_c, 11, 64, 127
13, 69840, Note_on_c, 11, 68, 127
13, 69840, Note_on_c, 11, 73, 127
13, 69993, Note_off_c, 11, 64, 17
13, 69997, Note_off_c, 11, 73, 17
13, 70001, Note_off_c, 11, 68, 17
13, 70009, Note_off_c, 11, 49, 17
13, 70080, Note_on_c, 11, 49, 127
13, 70080, Note_on_c, 11, 64, 127
13, 70080, Note_on_c, 11, 68, 127
13, 70080, Note_on_c, 11, 73, 114
13, 70309, Note_off_c, 11, 49, 17
13, 70373, Note_off_c, 11, 64, 17
13, 70375, Note_off_c, 11, 73, 17
13, 70388, Note_off_c, 11, 68, 17
13, 70560, Note_on_c, 11, 64, 126
13, 70560, Note_on_c, 11, 68, 126
13, 70560, Note_on_c, 11, 73, 126
13, 70564, Note_off_c, 11, 73, 17
13, 70564, Note_off_c, 11, 64, 17
13, 70564, Note_off_c, 11, 68, 17
13, 70800, Note_on_c, 11, 64, 126
13, 70800, Note_on_c, 11, 68, 126
13, 70800, Note_on_c, 11, 73, 126
13, 70804, Note_off_c, 11, 73, 17
13, 70804, Note_off_c, 11, 64, 17
13, 70804, Note_off_c, 11, 68, 17
13, 70920, Note_on_c, 11, 64, 126
13, 70920, Note_on_c, 11, 68, 126
13, 70920, Note_on_c, 11, 73, 126
13, 70924, Note_off_c, 11, 73, 17
13, 70924, Note_off_c, 11, 68, 17
13, 70924, Note_off_c, 11, 64, 17
13, 71040, Note_on_c, 11, 47, 127
13, 71040, Note_on_c, 11, 63, 127
13, 71040, Note_on_c, 11, 66, 127
13, 71040, Note_on_c, 11, 71, 125
13, 71276, Note_off_c, 11, 71, 17
13, 71276, Note_off_c, 11, 66, 17
13, 71276, Note_off_c, 11, 63, 17
13, 71280, Note_on_c, 11, 63, 92
13, 71280, Note_on_c, 11, 66, 92
13, 71280, Note_on_c, 11, 71, 92
13, 71284, Note_off_c, 11, 71, 17
13, 71284, Note_off_c, 11, 66, 17
13, 71284, Note_off_c, 11, 63, 17
13, 71400, Note_on_c, 11, 63, 127
13, 71400, Note_on_c, 11, 66, 127
13, 71400, Note_on_c, 11, 71, 122
13, 71475, Note_off_c, 11, 47, 17
13, 71636, Note_off_c, 11, 63, 17
13, 71636, Note_off_c, 11, 71, 17
13, 71636, Note_off_c, 11, 66, 17
13, 71640, Note_on_c, 11, 47, 127
13, 71640, Note_on_c, 11, 63, 126
13, 71640, Note_on_c, 11, 66, 126
13, 71640, Note_on_c, 11, 71, 126
13, 71644, Note_off_c, 11, 71, 17
13, 71644, Note_off_c, 11, 63, 17
13, 71644, Note_off_c, 11, 66, 17
13, 71718, Note_off_c, 11, 47, 17
13, 71760, Note_on_c, 11, 47, 127
13, 71760, Note_on_c, 11, 63, 127
13, 71760, Note_on_c, 11, 66, 127
13, 71760, Note_on_c, 11, 71, 127
13, 71913, Note_off_c, 11, 63, 17
13, 71917, Note_off_c, 11, 71, 17
13, 71921, Note_off_c, 11, 66, 17
13, 71929, Note_off_c, 11, 47, 17
13, 72000, Note_on_c, 11, 47, 127
13, 72000, Note_on_c, 11, 64, 127
13, 72000, Note_on_c, 11, 68, 127
13, 72000, Note_on_c, 11, 71, 114
13, 72229, Note_off_c, 11, 47, 17
13, 72293, Note_off_c, 11, 64, 17
13, 72295, Note_off_c, 11, 71, 17
13, 72308, Note_off_c, 11, 68, 17
13, 72480, Note_on_c, 11, 63, 126
13, 72480, Note_on_c, 11, 66, 126
13, 72480, Note_on_c, 11, 71, 126
13, 72716, Note_off_c, 11, 71, 17
13, 72716, Note_off_c, 11, 63, 17
13, 72716, Note_off_c, 11, 66, 17
13, 72720, Note_on_c, 11, 63, 126
13, 72720, Note_on_c, 11, 66, 126
13, 72720, Note_on_c, 11, 71, 126
13, 72724, Note_off_c, 11, 71, 17
13, 72724, Note_off_c, 11, 66, 17
13, 72724, Note_off_c, 11, 63, 17
13, 72840, Note_on_c, 11, 63, 126
13, 72840, Note_on_c, 11, 66, 126
13, 72840, Note_on_c, 11, 71, 126
13, 72844, Note_off_c, 11, 71, 17
13, 72844, Note_off_c, 11, 66, 17
13, 72844, Note_off_c, 11, 63, 17
13, 72960, Note_on_c, 11, 45, 127
13, 72960, Note_on_c, 11, 64, 127
13, 72960, Note_on_c, 11, 68, 127
13, 72960, Note_on_c, 11, 71, 125
13, 73196, Note_off_c, 11, 68, 17
13, 73196, Note_off_c, 11, 64, 17
13, 73196, Note_off_c, 11, 71, 17
13, 73200, Note_on_c, 11, 64, 92
13, 73200, Note_on_c, 11, 68, 92
13, 73200, Note_on_c, 11, 71, 92
13, 73204, Note_off_c, 11, 71, 17
13, 73204, Note_off_c, 11, 68, 17
13, 73204, Note_off_c, 11, 64, 17
13, 73320, Note_on_c, 11, 64, 127
13, 73320, Note_on_c, 11, 68, 127
13, 73320, Note_on_c, 11, 71, 122
13, 73395, Note_off_c, 11, 45, 17
13, 73556, Note_off_c, 11, 68, 17
13, 73556, Note_off_c, 11, 71, 17
13, 73556, Note_off_c, 11, 64, 17
13, 73560, Note_on_c, 11, 45, 127
13, 73560, Note_on_c, 11, 63, 126
13, 73560, Note_on_c, 11, 66, 126
13, 73560, Note_on_c, 11, 71, 126
13, 73564, Note_off_c, 11, 71, 17
13, 73564, Note_off_c, 11, 66, 17
13, 73564, Note_off_c, 11, 63, 17
13, 73638, Note_off_c, 11, 45, 17
13, 73680, Note_on_c, 11, 44, 127
13, 73680, Note_on_c, 11, 63, 127
13, 73680, Note_on_c, 11, 66, 127
13, 73680, Note_on_c, 11, 71, 127
13, 73833, Note_off_c, 11, 63, 17
13, 73837, Note_off_c, 11, 71, 17
13, 73841, Note_off_c, 11, 66, 17
13, 73849, Note_off_c, 11, 44, 17
13, 73920, Note_on_c, 11, 45, 127
13, 73920, Note_on_c, 11, 64, 127
13, 73920, Note_on_c, 11, 68, 127
13, 73920, Note_on_c, 11, 71, 114
13, 74149, Note_off_c, 11, 45, 17
13, 74213, Note_off_c, 11, 64, 17
13, 74215, Note_off_c, 11, 71, 17
13, 74228, Note_off_c, 11, 68, 17
13, 74640, Note_on_c, 11, 45, 126
13, 74640, Note_on_c, 11, 64, 126
13, 74640, Note_on_c, 11, 68, 126
13, 74640, Note_on_c, 11, 71, 126
13, 74644, Note_off_c, 11, 71, 17
13, 74644, Note_off_c, 11, 68, 17
13, 74644, Note_off_c, 11, 64, 17
13, 74644, Note_off_c, 11, 45, 17
13, 74760, Note_on_c, 11, 45, 126
13, 74760, Note_on_c, 11, 64, 126
13, 74760, Note_on_c, 11, 68, 126
13, 74760, Note_on_c, 11, 71, 126
13, 74764, Note_off_c, 11, 71, 17
13, 74764, Note_off_c, 11, 68, 17
13, 74764, Note_off_c, 11, 64, 17
13, 74764, Note_off_c, 11, 45, 17
13, 74880, Note_on_c, 11, 45, 127
13, 74880, Note_on_c, 11, 64, 127
13, 74880, Note_on_c, 11, 68, 127
13, 74880, Note_on_c, 11, 71, 125
13, 75116, Note_off_c, 11, 68, 17
13, 75116, Note_off_c, 11, 71, 17
13, 75116, Note_off_c, 11, 64, 17
13, 75120, Note_on_c, 11, 64, 92
13, 75120, Note_on_c, 11, 68, 92
13, 75120, Note_on_c, 11, 71, 92
13, 75124, Note_off_c, 11, 71, 17
13, 75124, Note_off_c, 11, 68, 17
13, 75124, Note_off_c, 11, 64, 17
13, 75240, Note_on_c, 11, 64, 127
13, 75240, Note_on_c, 11, 68, 127
13, 75240, Note_on_c, 11, 71, 122
13, 75315, Note_off_c, 11, 45, 17
13, 75476, Note_off_c, 11, 68, 17
13, 75476, Note_off_c, 11, 71, 17
13, 75476, Note_off_c, 11, 64, 17
13, 75480, Note_on_c, 11, 45, 127
13, 75480, Note_on_c, 11, 63, 126
13, 75480, Note_on_c, 11, 66, 126
13, 75480, Note_on_c, 11, 71, 126
13, 75484, Note_off_c, 11, 71, 17
13, 75484, Note_off_c, 11, 66, 17
13, 75484, Note_off_c, 11, 63, 17
13, 75558, Note_off_c, 11, 45, 17
13, 75600, Note_on_c, 11, 44, 127
13, 75600, Note_on_c, 11, 63, 127
13, 75600, Note_on_c, 11, 66, 127
13, 75600, Note_on_c, 11, 71, 127
13, 75753, Note_off_c, 11, 63, 17
13, 75757, Note_off_c, 11, 71, 17
13, 75761, Note_off_c, 11, 66, 17
13, 75769, Note_off_c, 11, 44, 17
13, 75840, Note_on_c, 11, 45, 127
13, 75840, Note_on_c, 11, 64, 127
13, 75840, Note_on_c, 11, 68, 127
13, 75840, Note_on_c, 11, 71, 114
13, 76069, Note_off_c, 11, 45, 17
13, 76133, Note_off_c, 11, 64, 17
13, 76135, Note_off_c, 11, 71, 17
13, 76148, Note_off_c, 11, 68, 17
13, 76320, Note_on_c, 11, 45, 127
13, 76320, Note_on_c, 11, 64, 127
13, 76320, Note_on_c, 11, 68, 127
13, 76320, Note_on_c, 11, 71, 127
13, 76578, Note_off_c, 11, 64, 17
13, 76579, Note_off_c, 11, 68, 17
13, 76586, Note_off_c, 11, 71, 17
13, 76599, Note_off_c, 11, 45, 17
13, 76800, Note_on_c, 11, 40, 127
13, 76983, Note_off_c, 11, 40, 17
13, 77040, Note_on_c, 11, 40, 83
13, 77123, Note_off_c, 11, 40, 17
13, 77160, Note_on_c, 11, 52, 127
13, 77303, Note_off_c, 11, 52, 17
13, 77400, Note_on_c, 11, 52, 127
13, 77475, Note_off_c, 11, 52, 17
13, 77520, Note_on_c, 11, 40, 125
13, 77605, Note_off_c, 11, 40, 17
13, 77760, Note_on_c, 11, 52, 127
13, 77943, Note_off_c, 11, 52, 17
13, 78000, Note_on_c, 11, 40, 126
13, 78004, Note_off_c, 11, 40, 17
13, 78120, Note_on_c, 11, 40, 126
13, 78124, Note_off_c, 11, 40, 17
13, 78240, Note_on_c, 11, 52, 127
13, 78423, Note_off_c, 11, 52, 17
13, 78720, Note_on_c, 11, 40, 127
13, 78903, Note_off_c, 11, 40, 17
13, 78960, Note_on_c, 11, 40, 83
13, 79043, Note_off_c, 11, 40, 17
13, 79080, Note_on_c, 11, 52, 127
13, 79223, Note_off_c, 11, 52, 17
13, 79320, Note_on_c, 11, 52, 127
13, 79395, Note_off_c, 11, 52, 17
13, 79440, Note_on_c, 11, 40, 125
13, 79525, Note_off_c, 11, 40, 17
13, 79680, Note_on_c, 11, 52, 127
13, 79863, Note_off_c, 11, 52, 17
13, 79920, Note_on_c, 11, 40, 126
13, 79924, Note_off_c, 11, 40, 17
13, 80040, Note_on_c, 11, 40, 126
13, 80044, Note_off_c, 11, 40, 17
13, 80160, Note_on_c, 11, 52, 127
13, 80343, Note_off_c, 11, 52, 17
13, 80400, Note_on_c, 11, 40, 126
13, 80404, Note_off_c, 11, 40, 17
13, 80520, Note_on_c, 11, 40, 126
13, 80524, Note_off_c, 11, 40, 17
13, 80640, Note_on_c, 11, 40, 127
13, 80823, Note_off_c, 11, 40, 17
13, 80880, Note_on_c, 11, 40, 83
13, 80963, Note_off_c, 11, 40, 17
13, 81000, Note_on_c, 11, 52, 127
13, 81143, Note_off_c, 11, 52, 17
13, 81240, Note_on_c, 11, 52, 127
13, 81315, Note_off_c, 11, 52, 17
13, 81360, Note_on_c, 11, 40, 125
13, 81445, Note_off_c, 11, 40, 17
13, 81600, Note_on_c, 11, 52, 127
13, 81783, Note_off_c, 11, 52, 17
13, 81840, Note_on_c, 11, 40, 126
13, 81844, Note_off_c, 11, 40, 17
13, 81960, Note_on_c, 11, 40, 126
13, 81964, Note_off_c, 11, 40, 17
13, 82080, Note_on_c, 11, 52, 127
13, 82263, Note_off_c, 11, 52, 17
13, 82320, Note_on_c, 11, 40, 126
13, 82324, Note_off_c, 11, 40, 17
13, 82440, Note_on_c, 11, 40, 126
13, 82444, Note_off_c, 11, 40, 17
13, 82560, Note_on_c, 11, 40, 127
13, 82743, Note_off_c, 11, 40, 17
13, 82800, Note_on_c, 11, 40, 83
13, 82883, Note_off_c, 11, 40, 17
13, 82920, Note_on_c, 11, 52, 127
13, 83063, Note_off_c, 11, 52, 17
13, 83160, Note_on_c, 11, 52, 127
13, 83235, Note_off_c, 11, 52, 17
13, 83280, Note_on_c, 11, 40, 125
13, 83365, Note_off_c, 11, 40, 17
13, 83520, Note_on_c, 11, 52, 127
13, 83703, Note_off_c, 11, 52, 17
13, 83760, Note_on_c, 11, 40, 126
13, 83764, Note_off_c, 11, 40, 17
13, 83880, Note_on_c, 11, 40, 126
13, 83884, Note_off_c, 11, 40, 17
13, 84000, Note_on_c, 11, 52, 127
13, 84183, Note_off_c, 11, 52, 17
13, 84240, Note_on_c, 11, 40, 126
13, 84244, Note_off_c, 11, 40, 17
13, 84360, Note_on_c, 11, 40, 126
13, 84364, Note_off_c, 11, 40, 17
13, 84480, Note_on_c, 11, 45, 127
13, 84663, Note_off_c, 11, 45, 17
13, 84720, Note_on_c, 11, 45, 83
13, 84803, Note_off_c, 11, 45, 17
13, 84840, Note_on_c, 11, 57, 127
13, 84983, Note_off_c, 11, 57, 17
13, 85080, Note_on_c, 11, 57, 127
13, 85155, Note_off_c, 11, 57, 17
13, 85200, Note_on_c, 11, 45, 125
13, 85285, Note_off_c, 11, 45, 17
13, 85440, Note_on_c, 11, 45, 127
13, 85623, Note_off_c, 11, 45, 17
13, 85680, Note_on_c, 11, 45, 126
13, 85684, Note_off_c, 11, 45, 17
13, 85800, Note_on_c, 11, 45, 126
13, 85804, Note_off_c, 11, 45, 17
13, 85920, Note_on_c, 11, 45, 127
13, 86103, Note_off_c, 11, 45, 17
13, 86160, Note_on_c, 11, 45, 126
13, 86164, Note_off_c, 11, 45, 17
13, 86280, Note_on_c, 11, 45, 126
13, 86284, Note_off_c, 11, 45, 17
13, 86400, Note_on_c, 11, 45, 127
13, 86583, Note_off_c, 11, 45, 17
13, 86640, Note_on_c, 11, 45, 83
13, 86723, Note_off_c, 11, 45, 17
13, 86760, Note_on_c, 11, 57, 127
13, 86903, Note_off_c, 11, 57, 17
13, 87000, Note_on_c, 11, 57, 127
13, 87075, Note_off_c, 11, 57, 17
13, 87120, Note_on_c, 11, 45, 125
13, 87205, Note_off_c, 11, 45, 17
13, 87360, Note_on_c, 11, 45, 127
13, 87543, Note_off_c, 11, 45, 17
13, 87600, Note_on_c, 11, 45, 126
13, 87604, Note_off_c, 11, 45, 17
13, 87720, Note_on_c, 11, 45, 126
13, 87724, Note_off_c, 11, 45, 17
13, 87840, Note_on_c, 11, 45, 127
13, 88023, Note_off_c, 11, 45, 17
13, 88080, Note_on_c, 11, 45, 126
13, 88084, Note_off_c, 11, 45, 17
13, 88200, Note_on_c, 11, 45, 126
13, 88204, Note_off_c, 11, 45, 17
13, 88320, Note_on_c, 11, 40, 127
13, 88503, Note_off_c, 11, 40, 17
13, 88560, Note_on_c, 11, 40, 83
13, 88643, Note_off_c, 11, 40, 17
13, 88680, Note_on_c, 11, 52, 127
13, 88823, Note_off_c, 11, 52, 17
13, 88920, Note_on_c, 11, 52, 127
13, 88995, Note_off_c, 11, 52, 17
13, 89040, Note_on_c, 11, 40, 125
13, 89125, Note_off_c, 11, 40, 17
13, 89280, Note_on_c, 11, 40, 127
13, 89463, Note_off_c, 11, 40, 17
13, 89520, Note_on_c, 11, 40, 126
13, 89524, Note_off_c, 11, 40, 17
13, 89640, Note_on_c, 11, 40, 126
13, 89644, Note_off_c, 11, 40, 17
13, 89760, Note_on_c, 11, 40, 127
13, 89943, Note_off_c, 11, 40, 17
13, 90240, Note_on_c, 11, 40, 127
13, 90423, Note_off_c, 11, 40, 17
13, 90480, Note_on_c, 11, 40, 83
13, 90563, Note_off_c, 11, 40, 17
13, 90600, Note_on_c, 11, 52, 127
13, 90743, Note_off_c, 11, 52, 17
13, 90840, Note_on_c, 11, 52, 127
13, 90915, Note_off_c, 11, 52, 17
13, 90960, Note_on_c, 11, 40, 125
13, 91045, Note_off_c, 11, 40, 17
13, 91200, Note_on_c, 11, 52, 127
13, 91383, Note_off_c, 11, 52, 17
13, 91440, Note_on_c, 11, 40, 126
13, 91444, Note_off_c, 11, 40, 17
13, 91560, Note_on_c, 11, 40, 126
13, 91564, Note_off_c, 11, 40, 17
13, 91680, Note_on_c, 11, 40, 127
13, 91863, Note_off_c, 11, 40, 17
13, 92080, Note_on_c, 11, 49, 116
13, 92120, Note_on_c, 11, 56, 119
13, 92160, Note_on_c, 11, 61, 116
13, 92200, Note_on_c, 11, 64, 127
13, 92240, Note_on_c, 11, 68, 118
13, 93996, Note_off_c, 11, 49, 17
13, 94000, Note_on_c, 11, 47, 120
13, 94036, Note_off_c, 11, 56, 17
13, 94040, Note_on_c, 11, 54, 122
13, 94076, Note_off_c, 11, 61, 17
13, 94080, Note_on_c, 11, 63, 111
13, 94116, Note_off_c, 11, 64, 17
13, 94120, Note_on_c, 11, 66, 125
13, 94156, Note_off_c, 11, 68, 17
13, 94160, Note_on_c, 11, 71, 119
13, 95916, Note_off_c, 11, 47, 17
13, 95956, Note_off_c, 11, 54, 17
13, 95996, Note_off_c, 11, 63, 17
13, 96000, Note_on_c, 11, 52, 127
13, 96000, Note_on_c, 11, 64, 127
13, 96000, Note_on_c, 11, 68, 127
13, 96000, Note_on_c, 11, 71, 125
13, 96036, Note_off_c, 11, 66, 17
13, 96076, Note_off_c, 11, 71, 17
13, 96236, Note_off_c, 11, 71, 17
13, 96236, Note_off_c, 11, 64, 17
13, 96236, Note_off_c, 11, 68, 17
13, 96240, Note_on_c, 11, 64, 92
13, 96240, Note_on_c, 11, 68, 92
13, 96240, Note_on_c, 11, 71, 92
13, 96244, Note_off_c, 11, 71, 17
13, 96244, Note_off_c, 11, 68, 17
13, 96244, Note_off_c, 11, 64, 17
13, 96360, Note_on_c, 11, 64, 127
13, 96360, Note_on_c, 11, 68, 127
13, 96360, Note_on_c, 11, 71, 122
13, 96435, Note_off_c, 11, 52, 17
13, 96596, Note_off_c, 11, 71, 17
13, 96596, Note_off_c, 11, 64, 17
13, 96596, Note_off_c, 11, 68, 17
13, 96600, Note_on_c, 11, 52, 127
13, 96600, Note_on_c, 11, 63, 126
13, 96600, Note_on_c, 11, 66, 126
13, 96600, Note_on_c, 11, 71, 126
13, 96604, Note_off_c, 11, 71, 17
13, 96604, Note_off_c, 11, 66, 17
13, 96604, Note_off_c, 11, 63, 17
13, 96678, Note_off_c, 11, 52, 17
13, 96720, Note_on_c, 11, 51, 127
13, 96720, Note_on_c, 11, 63, 127
13, 96720, Note_on_c, 11, 66, 127
13, 96720, Note_on_c, 11, 71, 127
13, 96873, Note_off_c, 11, 63, 17
13, 96877, Note_off_c, 11, 71, 17
13, 96881, Note_off_c, 11, 66, 17
13, 96889, Note_off_c, 11, 51, 17
13, 96960, Note_on_c, 11, 52, 127
13, 96960, Note_on_c, 11, 64, 127
13, 96960, Note_on_c, 11, 68, 127
13, 96960, Note_on_c, 11, 71, 114
13, 97189, Note_off_c, 11, 52, 17
13, 97253, Note_off_c, 11, 64, 17
13, 97255, Note_off_c, 11, 71, 17
13, 97268, Note_off_c, 11, 68, 17
13, 97680, Note_on_c, 11, 52, 126
13, 97680, Note_on_c, 11, 64, 126
13, 97680, Note_on_c, 11, 68, 126
13, 97680, Note_on_c, 11, 71, 126
13, 97684, Note_off_c, 11, 71, 17
13, 97684, Note_off_c, 11, 68, 17
13, 97684, Note_off_c, 11, 64, 17
13, 97684, Note_off_c, 11, 52, 17
13, 97800, Note_on_c, 11, 52, 126
13, 97800, Note_on_c, 11, 64, 126
13, 97800, Note_on_c, 11, 68, 126
13, 97800, Note_on_c, 11, 71, 126
13, 97804, Note_off_c, 11, 71, 17
13, 97804, Note_off_c, 11, 68, 17
13, 97804, Note_off_c, 11, 52, 17
13, 97804, Note_off_c, 11, 64, 17
13, 97920, Note_on_c, 11, 52, 127
13, 97920, Note_on_c, 11, 64, 127
13, 97920, Note_on_c, 11, 68, 127
13, 97920, Note_on_c, 11, 71, 125
13, 98156, Note_off_c, 11, 71, 17
13, 98156, Note_off_c, 11, 68, 17
13, 98156, Note_off_c, 11, 64, 17
13, 98160, Note_on_c, 11, 64, 92
13, 98160, Note_on_c, 11, 68, 92
13, 98160, Note_on_c, 11, 71, 92
13, 98164, Note_off_c, 11, 71, 17
13, 98164, Note_off_c, 11, 68, 17
13, 98164, Note_off_c, 11, 64, 17
13, 98280, Note_on_c, 11, 64, 127
13, 98280, Note_on_c, 11, 68, 127
13, 98280, Note_on_c, 11, 71, 122
13, 98355, Note_off_c, 11, 52, 17
13, 98516, Note_off_c, 11, 71, 17
13, 98516, Note_off_c, 11, 68, 17
13, 98516, Note_off_c, 11, 64, 17
13, 98520, Note_on_c, 11, 52, 127
13, 98520, Note_on_c, 11, 63, 126
13, 98520, Note_on_c, 11, 66, 126
13, 98520, Note_on_c, 11, 71, 126
13, 98524, Note_off_c, 11, 71, 17
13, 98524, Note_off_c, 11, 66, 17
13, 98524, Note_off_c, 11, 63, 17
13, 98598, Note_off_c, 11, 52, 17
13, 98640, Note_on_c, 11, 51, 127
13, 98640, Note_on_c, 11, 63, 127
13, 98640, Note_on_c, 11, 66, 127
13, 98640, Note_on_c, 11, 71, 127
13, 98793, Note_off_c, 11, 63, 17
13, 98797, Note_off_c, 11, 71, 17
13, 98801, Note_off_c, 11, 66, 17
13, 98809, Note_off_c, 11, 51, 17
13, 98880, Note_on_c, 11, 52, 127
13, 98880, Note_on_c, 11, 64, 127
13, 98880, Note_on_c, 11, 68, 127
13, 98880, Note_on_c, 11, 71, 114
13, 99109, Note_off_c, 11, 52, 17
13, 99173, Note_off_c, 11, 64, 17
13, 99175, Note_off_c, 11, 71, 17
13, 99188, Note_off_c, 11, 68, 17
13, 99360, Note_on_c, 11, 52, 127
13, 99360, Note_on_c, 11, 64, 127
13, 99360, Note_on_c, 11, 68, 127
13, 99360, Note_on_c, 11, 71, 127
13, 99618, Note_off_c, 11, 64, 17
13, 99619, Note_off_c, 11, 68, 17
13, 99626, Note_off_c, 11, 71, 17
13, 99639, Note_off_c, 11, 52, 17
13, 99840, Note_on_c, 11, 45, 127
13, 99840, Note_on_c, 11, 64, 127
13, 99840, Note_on_c, 11, 68, 127
13, 99840, Note_on_c, 11, 71, 125
13, 100076, Note_off_c, 11, 71, 17
13, 100076, Note_off_c, 11, 68, 17
13, 100076, Note_off_c, 11, 64, 17
13, 100080, Note_on_c, 11, 64, 92
13, 100080, Note_on_c, 11, 68, 92
13, 100080, Note_on_c, 11, 71, 92
13, 100084, Note_off_c, 11, 71, 17
13, 100084, Note_off_c, 11, 68, 17
13, 100084, Note_off_c, 11, 64, 17
13, 100200, Note_on_c, 11, 64, 127
13, 100200, Note_on_c, 11, 68, 127
13, 100200, Note_on_c, 11, 71, 122
13, 100275, Note_off_c, 11, 45, 17
13, 100436, Note_off_c, 11, 71, 17
13, 100436, Note_off_c, 11, 64, 17
13, 100436, Note_off_c, 11, 68, 17
13, 100440, Note_on_c, 11, 45, 127
13, 100440, Note_on_c, 11, 63, 126
13, 100440, Note_on_c, 11, 66, 126
13, 100440, Note_on_c, 11, 71, 126
13, 100444, Note_off_c, 11, 71, 17
13, 100444, Note_off_c, 11, 66, 17
13, 100444, Note_off_c, 11, 63, 17
13, 100518, Note_off_c, 11, 45, 17
13, 100560, Note_on_c, 11, 44, 127
13, 100560, Note_on_c, 11, 63, 127
13, 100560, Note_on_c, 11, 66, 127
13, 100560, Note_on_c, 11, 71, 127
13, 100713, Note_off_c, 11, 63, 17
13, 100717, Note_off_c, 11, 71, 17
13, 100721, Note_off_c, 11, 66, 17
13, 100729, Note_off_c, 11, 44, 17
13, 100800, Note_on_c, 11, 45, 127
13, 100800, Note_on_c, 11, 64, 127
13, 100800, Note_on_c, 11, 68, 127
13, 100800, Note_on_c, 11, 71, 114
13, 101029, Note_off_c, 11, 45, 17
13, 101093, Note_off_c, 11, 64, 17
13, 101095, Note_off_c, 11, 71, 17
13, 101108, Note_off_c, 11, 68, 17
13, 101520, Note_on_c, 11, 45, 126
13, 101520, Note_on_c, 11, 64, 126
13, 101520, Note_on_c, 11, 68, 126
13, 101520, Note_on_c, 11, 71, 126
13, 101524, Note_off_c, 11, 71, 17
13, 101524, Note_off_c, 11, 68, 17
13, 101524, Note_off_c, 11, 64, 17
13, 101524, Note_off_c, 11, 45, 17
13, 101640, Note_on_c, 11, 45, 126
13, 101640, Note_on_c, 11, 64, 126
13, 101640, Note_on_c, 11, 68, 126
13, 101640, Note_on_c, 11, 71, 126
13, 101644, Note_off_c, 11, 71, 17
13, 101644, Note_off_c, 11, 68, 17
13, 101644, Note_off_c, 11, 45, 17
13, 101644, Note_off_c, 11, 64, 17
13, 101760, Note_on_c, 11, 45, 127
13, 101760, Note_on_c, 11, 64, 127
13, 101760, Note_on_c, 11, 68, 127
13, 101760, Note_on_c, 11, 71, 125
13, 101996, Note_off_c, 11, 71, 17
13, 101996, Note_off_c, 11, 68, 17
13, 101996, Note_off_c, 11, 64, 17
13, 102000, Note_on_c, 11, 64, 92
13, 102000, Note_on_c, 11, 68, 92
13, 102000, Note_on_c, 11, 71, 92
13, 102004, Note_off_c, 11, 71, 17
13, 102004, Note_off_c, 11, 68, 17
13, 102004, Note_off_c, 11, 64, 17
13, 102120, Note_on_c, 11, 64, 127
13, 102120, Note_on_c, 11, 68, 127
13, 102120, Note_on_c, 11, 71, 122
13, 102195, Note_off_c, 11, 45, 17
13, 102356, Note_off_c, 11, 71, 17
13, 102356, Note_off_c, 11, 68, 17
13, 102356, Note_off_c, 11, 64, 17
13, 102360, Note_on_c, 11, 45, 127
13, 102360, Note_on_c, 11, 63, 126
13, 102360, Note_on_c, 11, 66, 126
13, 102360, Note_on_c, 11, 71, 126
13, 102364, Note_off_c, 11, 71, 17
13, 102364, Note_off_c, 11, 66, 17
13, 102364, Note_off_c, 11, 63, 17
13, 102438, Note_off_c, 11, 45, 17
13, 102480, Note_on_c, 11, 44, 127
13, 102480, Note_on_c, 11, 63, 127
13, 102480, Note_on_c, 11, 66, 127
13, 102480, Note_on_c, 11, 71, 127
13, 102633, Note_off_c, 11, 63, 17
13, 102637, Note_off_c, 11, 71, 17
13, 102641, Note_off_c, 11, 66, 17
13, 102649, Note_off_c, 11, 44, 17
13, 102720, Note_on_c, 11, 45, 127
13, 102720, Note_on_c, 11, 64, 127
13, 102720, Note_on_c, 11, 68, 127
13, 102720, Note_on_c, 11, 71, 114
13, 102949, Note_off_c, 11, 45, 17
13, 103013, Note_off_c, 11, 64, 17
13, 103015, Note_off_c, 11, 71, 17
13, 103028, Note_off_c, 11, 68, 17
13, 103200, Note_on_c, 11, 45, 127
13, 103200, Note_on_c, 11, 64, 127
13, 103200, Note_on_c, 11, 68, 127
13, 103200, Note_on_c, 11, 71, 127
13, 103458, Note_off_c, 11, 64, 17
13, 103459, Note_off_c, 11, 68, 17
13, 103466, Note_off_c, 11, 71, 17
13, 103479, Note_off_c, 11, 45, 17
13, 103680, Note_on_c, 11, 49, 127
13, 103680, Note_on_c, 11, 64, 127
13, 103680, Note_on_c, 11, 68, 127
13, 103680, Note_on_c, 11, 73, 125
13, 103916, Note_off_c, 11, 73, 17
13, 103916, Note_off_c, 11, 68, 17
13, 103916, Note_off_c, 11, 64, 17
13, 103920, Note_on_c, 11, 64, 92
13, 103920, Note_on_c, 11, 68, 92
13, 103920, Note_on_c, 11, 73, 92
13, 103924, Note_off_c, 11, 73, 17
13, 103924, Note_off_c, 11, 68, 17
13, 103924, Note_off_c, 11, 64, 17
13, 104040, Note_on_c, 11, 64, 127
13, 104040, Note_on_c, 11, 68, 127
13, 104040, Note_on_c, 11, 73, 122
13, 104115, Note_off_c, 11, 49, 17
13, 104276, Note_off_c, 11, 64, 17
13, 104276, Note_off_c, 11, 73, 17
13, 104276, Note_off_c, 11, 68, 17
13, 104280, Note_on_c, 11, 49, 127
13, 104280, Note_on_c, 11, 64, 126
13, 104280, Note_on_c, 11, 68, 126
13, 104280, Note_on_c, 11, 73, 126
13, 104284, Note_off_c, 11, 73, 17
13, 104284, Note_off_c, 11, 68, 17
13, 104284, Note_off_c, 11, 64, 17
13, 104358, Note_off_c, 11, 49, 17
13, 104400, Note_on_c, 11, 49, 127
13, 104400, Note_on_c, 11, 64, 127
13, 104400, Note_on_c, 11, 68, 127
13, 104400, Note_on_c, 11, 73, 127
13, 104553, Note_off_c, 11, 64, 17
13, 104557, Note_off_c, 11, 73, 17
13, 104561, Note_off_c, 11, 68, 17
13, 104569, Note_off_c, 11, 49, 17
13, 104640, Note_on_c, 11, 49, 127
13, 104640, Note_on_c, 11, 64, 127
13, 104640, Note_on_c, 11, 68, 127
13, 104640, Note_on_c, 11, 73, 114
13, 104869, Note_off_c, 11, 49, 17
13, 104933, Note_off_c, 11, 64, 17
13, 104935, Note_off_c, 11, 73, 17
13, 104948, Note_off_c, 11, 68, 17
13, 105120, Note_on_c, 11, 64, 126
13, 105120, Note_on_c, 11, 68, 126
13, 105120, Note_on_c, 11, 73, 126
13, 105124, Note_off_c, 11, 73, 17
13, 105124, Note_off_c, 11, 64, 17
13, 105124, Note_off_c, 11, 68, 17
13, 105360, Note_on_c, 11, 64, 126
13, 105360, Note_on_c, 11, 68, 126
13, 105360, Note_on_c, 11, 73, 126
13, 105364, Note_off_c, 11, 73, 17
13, 105364, Note_off_c, 11, 64, 17
13, 105364, Note_off_c, 11, 68, 17
13, 105480, Note_on_c, 11, 64, 126
13, 105480, Note_on_c, 11, 68, 126
13, 105480, Note_on_c, 11, 73, 126
13, 105484, Note_off_c, 11, 73, 17
13, 105484, Note_off_c, 11, 68, 17
13, 105484, Note_off_c, 11, 64, 17
13, 105600, Note_on_c, 11, 47, 127
13, 105600, Note_on_c, 11, 63, 127
13, 105600, Note_on_c, 11, 66, 127
13, 105600, Note_on_c, 11, 71, 125
13, 105836, Note_off_c, 11, 71, 17
13, 105836, Note_off_c, 11, 66, 17
13, 105836, Note_off_c, 11, 63, 17
13, 105840, Note_on_c, 11, 63, 92
13, 105840, Note_on_c, 11, 66, 92
13, 105840, Note_on_c, 11, 71, 92
13, 105844, Note_off_c, 11, 71, 17
13, 105844, Note_off_c, 11, 66, 17
13, 105844, Note_off_c, 11, 63, 17
13, 105960, Note_on_c, 11, 63, 127
13, 105960, Note_on_c, 11, 66, 127
13, 105960, Note_on_c, 11, 71, 122
13, 106035, Note_off_c, 11, 47, 17
13, 106196, Note_off_c, 11, 63, 17
13, 106196, Note_off_c, 11, 71, 17
13, 106196, Note_off_c, 11, 66, 17
13, 106200, Note_on_c, 11, 47, 127
13, 106200, Note_on_c, 11, 63, 126
13, 106200, Note_on_c, 11, 66, 126
13, 106200, Note_on_c, 11, 71, 126
13, 106204, Note_off_c, 11, 71, 17
13, 106204, Note_off_c, 11, 63, 17
13, 106204, Note_off_c, 11, 66, 17
13, 106278, Note_off_c, 11, 47, 17
13, 106320, Note_on_c, 11, 47, 127
13, 106320, Note_on_c, 11, 63, 127
13, 106320, Note_on_c, 11, 66, 127
13, 106320, Note_on_c, 11, 71, 127
13, 106473, Note_off_c, 11, 63, 17
13, 106477, Note_off_c, 11, 71, 17
13, 106481, Note_off_c, 11, 66, 17
13, 106489, Note_off_c, 11, 47, 17
13, 106560, Note_on_c, 11, 47, 127
13, 106560, Note_on_c, 11, 64, 127
13, 106560, Note_on_c, 11, 68, 127
13, 106560, Note_on_c, 11, 71, 114
13, 106789, Note_off_c, 11, 47, 17
13, 106853, Note_off_c, 11, 64, 17
13, 106855, Note_off_c, 11, 71, 17
13, 106868, Note_off_c, 11, 68, 17
13, 107040, Note_on_c, 11, 63, 126
13, 107040, Note_on_c, 11, 66, 126
13, 107040, Note_on_c, 11, 71, 126
13, 107276, Note_off_c, 11, 71, 17
13, 107276, Note_off_c, 11, 63, 17
13, 107276, Note_off_c, 11, 66, 17
13, 107280, Note_on_c, 11, 63, 126
13, 107280, Note_on_c, 11, 66, 126
13, 107280, Note_on_c, 11, 71, 126
13, 107284, Note_off_c, 11, 71, 17
13, 107284, Note_off_c, 11, 66, 17
13, 107284, Note_off_c, 11, 63, 17
13, 107400, Note_on_c, 11, 63, 126
13, 107400, Note_on_c, 11, 66, 126
13, 107400, Note_on_c, 11, 71, 126
13, 107404, Note_off_c, 11, 71, 17
13, 107404, Note_off_c, 11, 66, 17
13, 107404, Note_off_c, 11, 63, 17
13, 107520, Note_on_c, 11, 45, 127
13, 107520, Note_on_c, 11, 64, 127
13, 107520, Note_on_c, 11, 68, 127
13, 107520, Note_on_c, 11, 71, 125
13, 107756, Note_off_c, 11, 68, 17
13, 107756, Note_off_c, 11, 64, 17
13, 107756, Note_off_c, 11, 71, 17
13, 107760, Note_on_c, 11, 64, 92
13, 107760, Note_on_c, 11, 68, 92
13, 107760, Note_on_c, 11, 71, 92
13, 107764, Note_off_c, 11, 71, 17
13, 107764, Note_off_c, 11, 68, 17
13, 107764, Note_off_c, 11, 64, 17
13, 107880, Note_on_c, 11, 64, 127
13, 107880, Note_on_c, 11, 68, 127
13, 107880, Note_on_c, 11, 71, 122
13, 107955, Note_off_c, 11, 45, 17
13, 108116, Note_off_c, 11, 68, 17
13, 108116, Note_off_c, 11, 71, 17
13, 108116, Note_off_c, 11, 64, 17
13, 108120, Note_on_c, 11, 45, 127
13, 108120, Note_on_c, 11, 63, 126
13, 108120, Note_on_c, 11, 66, 126
13, 108120, Note_on_c, 11, 71, 126
13, 108124, Note_off_c, 11, 71, 17
13, 108124, Note_off_c, 11, 66, 17
13, 108124, Note_off_c, 11, 63, 17
13, 108198, Note_off_c, 11, 45, 17
13, 108240, Note_on_c, 11, 44, 127
13, 108240, Note_on_c, 11, 63, 127
13, 108240, Note_on_c, 11, 66, 127
13, 108240, Note_on_c, 11, 71, 127
13, 108393, Note_off_c, 11, 63, 17
13, 108397, Note_off_c, 11, 71, 17
13, 108401, Note_off_c, 11, 66, 17
13, 108409, Note_off_c, 11, 44, 17
13, 108480, Note_on_c, 11, 45, 127
13, 108480, Note_on_c, 11, 64, 127
13, 108480, Note_on_c, 11, 68, 127
13, 108480, Note_on_c, 11, 71, 114
13, 108709, Note_off_c, 11, 45, 17
13, 108773, Note_off_c, 11, 64, 17
13, 108775, Note_off_c, 11, 71, 17
13, 108788, Note_off_c, 11, 68, 17
13, 109200, Note_on_c, 11, 45, 126
13, 109200, Note_on_c, 11, 64, 126
13, 109200, Note_on_c, 11, 68, 126
13, 109200, Note_on_c, 11, 71, 126
13, 109204, Note_off_c, 11, 71, 17
13, 109204, Note_off_c, 11, 68, 17
13, 109204, Note_off_c, 11, 64, 17
13, 109204, Note_off_c, 11, 45, 17
13, 109320, Note_on_c, 11, 45, 126
13, 109320, Note_on_c, 11, 64, 126
13, 109320, Note_on_c, 11, 68, 126
13, 109320, Note_on_c, 11, 71, 126
13, 109324, Note_off_c, 11, 71, 17
13, 109324, Note_off_c, 11, 68, 17
13, 109324, Note_off_c, 11, 64, 17
13, 109324, Note_off_c, 11, 45, 17
13, 109440, Note_on_c, 11, 45, 127
13, 109440, Note_on_c, 11, 64, 127
13, 109440, Note_on_c, 11, 68, 127
13, 109440, Note_on_c, 11, 71, 125
13, 109676, Note_off_c, 11, 68, 17
13, 109676, Note_off_c, 11, 71, 17
13, 109676, Note_off_c, 11, 64, 17
13, 109680, Note_on_c, 11, 64, 92
13, 109680, Note_on_c, 11, 68, 92
13, 109680, Note_on_c, 11, 71, 92
13, 109684, Note_off_c, 11, 71, 17
13, 109684, Note_off_c, 11, 68, 17
13, 109684, Note_off_c, 11, 64, 17
13, 109800, Note_on_c, 11, 64, 127
13, 109800, Note_on_c, 11, 68, 127
13, 109800, Note_on_c, 11, 71, 122
13, 109875, Note_off_c, 11, 45, 17
13, 110036, Note_off_c, 11, 68, 17
13, 110036, Note_off_c, 11, 71, 17
13, 110036, Note_off_c, 11, 64, 17
13, 110040, Note_on_c, 11, 45, 127
13, 110040, Note_on_c, 11, 63, 126
13, 110040, Note_on_c, 11, 66, 126
13, 110040, Note_on_c, 11, 71, 126
13, 110044, Note_off_c, 11, 71, 17
13, 110044, Note_off_c, 11, 66, 17
13, 110044, Note_off_c, 11, 63, 17
13, 110118, Note_off_c, 11, 45, 17
13, 110160, Note_on_c, 11, 44, 127
13, 110160, Note_on_c, 11, 63, 127
13, 110160, Note_on_c, 11, 66, 127
13, 110160, Note_on_c, 11, 71, 127
13, 110313, Note_off_c, 11, 63, 17
13, 110317, Note_off_c, 11, 71, 17
13, 110321, Note_off_c, 11, 66, 17
13, 110329, Note_off_c, 11, 44, 17
13, 110400, Note_on_c, 11, 45, 127
13, 110400, Note_on_c, 11, 64, 127
13, 110400, Note_on_c, 11, 68, 127
13, 110400, Note_on_c, 11, 71, 114
13, 110629, Note_off_c, 11, 45, 17
13, 110693, Note_off_c, 11, 64, 17
13, 110695, Note_off_c, 11, 71, 17
13, 110708, Note_off_c, 11, 68, 17
13, 110880, Note_on_c, 11, 45, 127
13, 110880, Note_on_c, 11, 64, 127
13, 110880, Note_on_c, 11, 68, 127
13, 110880, Note_on_c, 11, 71, 127
13, 111138, Note_off_c, 11, 64, 17
13, 111139, Note_off_c, 11, 68, 17
13, 111146, Note_off_c, 11, 71, 17
13, 111159, Note_off_c, 11, 45, 17
13, 111360, Note_on_c, 11, 52, 127
13, 111360, Note_on_c, 11, 64, 127
13, 111360, Note_on_c, 11, 68, 127
13, 111360, Note_on_c, 11, 71, 125
13, 111596, Note_off_c, 11, 68, 17
13, 111596, Note_off_c, 11, 71, 17
13, 111596, Note_off_c, 11, 64, 17
13, 111600, Note_on_c, 11, 64, 92
13, 111600, Note_on_c, 11, 68, 92
13, 111600, Note_on_c, 11, 71, 92
13, 111604, Note_off_c, 11, 71, 17
13, 111604, Note_off_c, 11, 68, 17
13, 111604, Note_off_c, 11, 64, 17
13, 111720, Note_on_c, 11, 64, 127
13, 111720, Note_on_c, 11, 68, 127
13, 111720, Note_on_c, 11, 71, 122
13, 111795, Note_off_c, 11, 52, 17
13, 111956, Note_off_c, 11, 71, 17
13, 111956, Note_off_c, 11, 64, 17
13, 111956, Note_off_c, 11, 68, 17
13, 111960, Note_on_c, 11, 52, 127
13, 111960, Note_on_c, 11, 63, 126
13, 111960, Note_on_c, 11, 66, 126
13, 111960, Note_on_c, 11, 71, 126
13, 111964, Note_off_c, 11, 71, 17
13, 111964, Note_off_c, 11, 66, 17
13, 111964, Note_off_c, 11, 63, 17
13, 112038, Note_off_c, 11, 52, 17
13, 112080, Note_on_c, 11, 51, 127
13, 112080, Note_on_c, 11, 63, 127
13, 112080, Note_on_c, 11, 66, 127
13, 112080, Note_on_c, 11, 71, 127
13, 112233, Note_off_c, 11, 63, 17
13, 112237, Note_off_c, 11, 71, 17
13, 112241, Note_off_c, 11, 66, 17
13, 112249, Note_off_c, 11, 51, 17
13, 112320, Note_on_c, 11, 52, 127
13, 112320, Note_on_c, 11, 64, 127
13, 112320, Note_on_c, 11, 68, 127
13, 112320, Note_on_c, 11, 71, 114
13, 112549, Note_off_c, 11, 52, 17
13, 112613, Note_off_c, 11, 64, 17
13, 112615, Note_off_c, 11, 71, 17
13, 112628, Note_off_c, 11, 68, 17
13, 113040, Note_on_c, 11, 52, 126
13, 113040, Note_on_c, 11, 64, 126
13, 113040, Note_on_c, 11, 68, 126
13, 113040, Note_on_c, 11, 71, 126
13, 113044, Note_off_c, 11, 71, 17
13, 113044, Note_off_c, 11, 64, 17
13, 113044, Note_off_c, 11, 52, 17
13, 113044, Note_off_c, 11, 68, 17
13, 113160, Note_on_c, 11, 52, 126
13, 113160, Note_on_c, 11, 64, 126
13, 113160, Note_on_c, 11, 68, 126
13, 113160, Note_on_c, 11, 71, 126
13, 113164, Note_off_c, 11, 71, 17
13, 113164, Note_off_c, 11, 64, 17
13, 113164, Note_off_c, 11, 52, 17
13, 113164, Note_off_c, 11, 68, 17
13, 113280, Note_on_c, 11, 52, 127
13, 113280, Note_on_c, 11, 64, 127
13, 113280, Note_on_c, 11, 68, 127
13, 113280, Note_on_c, 11, 71, 125
13, 113516, Note_off_c, 11, 71, 17
13, 113516, Note_off_c, 11, 68, 17
13, 113516, Note_off_c, 11, 64, 17
13, 113520, Note_on_c, 11, 64, 92
13, 113520, Note_on_c, 11, 68, 92
13, 113520, Note_on_c, 11, 71, 92
13, 113524, Note_off_c, 11, 71, 17
13, 113524, Note_off_c, 11, 68, 17
13, 113524, Note_off_c, 11, 64, 17
13, 113640, Note_on_c, 11, 64, 127
13, 113640, Note_on_c, 11, 68, 127
13, 113640, Note_on_c, 11, 71, 122
13, 113715, Note_off_c, 11, 52, 17
13, 113876, Note_off_c, 11, 64, 17
13, 113876, Note_off_c, 11, 71, 17
13, 113876, Note_off_c, 11, 68, 17
13, 113880, Note_on_c, 11, 52, 127
13, 113880, Note_on_c, 11, 63, 126
13, 113880, Note_on_c, 11, 66, 126
13, 113880, Note_on_c, 11, 71, 126
13, 113884, Note_off_c, 11, 71, 17
13, 113884, Note_off_c, 11, 66, 17
13, 113884, Note_off_c, 11, 63, 17
13, 113958, Note_off_c, 11, 52, 17
13, 114000, Note_on_c, 11, 51, 127
13, 114000, Note_on_c, 11, 63, 127
13, 114000, Note_on_c, 11, 66, 127
13, 114000, Note_on_c, 11, 71, 127
13, 114153, Note_off_c, 11, 63, 17
13, 114157, Note_off_c, 11, 71, 17
13, 114161, Note_off_c, 11, 66, 17
13, 114169, Note_off_c, 11, 51, 17
13, 114240, Note_on_c, 11, 52, 127
13, 114240, Note_on_c, 11, 64, 127
13, 114240, Note_on_c, 11, 68, 127
13, 114240, Note_on_c, 11, 71, 114
13, 114469, Note_off_c, 11, 52, 17
13, 114533, Note_off_c, 11, 64, 17
13, 114535, Note_off_c, 11, 71, 17
13, 114548, Note_off_c, 11, 68, 17
13, 114720, Note_on_c, 11, 52, 127
13, 114720, Note_on_c, 11, 64, 127
13, 114720, Note_on_c, 11, 68, 127
13, 114720, Note_on_c, 11, 71, 127
13, 114978, Note_off_c, 11, 64, 17
13, 114979, Note_off_c, 11, 68, 17
13, 114986, Note_off_c, 11, 71, 17
13, 114999, Note_off_c, 11, 52, 17
13, 115200, Note_on_c, 11, 45, 127
13, 115200, Note_on_c, 11, 64, 127
13, 115200, Note_on_c, 11, 68, 127
13, 115200, Note_on_c, 11, 71, 125
13, 115436, Note_off_c, 11, 71, 17
13, 115436, Note_off_c, 11, 64, 17
13, 115436, Note_off_c, 11, 68, 17
13, 115440, Note_on_c, 11, 64, 92
13, 115440, Note_on_c, 11, 68, 92
13, 115440, Note_on_c, 11, 71, 92
13, 115444, Note_off_c, 11, 71, 17
13, 115444, Note_off_c, 11, 68, 17
13, 115444, Note_off_c, 11, 64, 17
13, 115560, Note_on_c, 11, 64, 127
13, 115560, Note_on_c, 11, 68, 127
13, 115560, Note_on_c, 11, 71, 122
13, 115635, Note_off_c, 11, 45, 17
13, 115796, Note_off_c, 11, 71, 17
13, 115796, Note_off_c, 11, 64, 17
13, 115796, Note_off_c, 11, 68, 17
13, 115800, Note_on_c, 11, 45, 127
13, 115800, Note_on_c, 11, 63, 126
13, 115800, Note_on_c, 11, 66, 126
13, 115800, Note_on_c, 11, 71, 126
13, 115804, Note_off_c, 11, 71, 17
13, 115804, Note_off_c, 11, 66, 17
13, 115804, Note_off_c, 11, 63, 17
13, 115878, Note_off_c, 11, 45, 17
13, 115920, Note_on_c, 11, 44, 127
13, 115920, Note_on_c, 11, 63, 127
13, 115920, Note_on_c, 11, 66, 127
13, 115920, Note_on_c, 11, 71, 127
13, 116073, Note_off_c, 11, 63, 17
13, 116077, Note_off_c, 11, 71, 17
13, 116081, Note_off_c, 11, 66, 17
13, 116089, Note_off_c, 11, 44, 17
13, 116160, Note_on_c, 11, 45, 127
13, 116160, Note_on_c, 11, 64, 127
13, 116160, Note_on_c, 11, 68, 127
13, 116160, Note_on_c, 11, 71, 114
13, 116389, Note_off_c, 11, 45, 17
13, 116453, Note_off_c, 11, 64, 17
13, 116455, Note_off_c, 11, 71, 17
13, 116468, Note_off_c, 11, 68, 17
13, 116880, Note_on_c, 11, 45, 126
13, 116880, Note_on_c, 11, 64, 126
13, 116880, Note_on_c, 11, 68, 126
13, 116880, Note_on_c, 11, 71, 126
13, 116884, Note_off_c, 11, 71, 17
13, 116884, Note_off_c, 11, 64, 17
13, 116884, Note_off_c, 11, 45, 17
13, 116884, Note_off_c, 11, 68, 17
13, 117000, Note_on_c, 11, 45, 126
13, 117000, Note_on_c, 11, 64, 126
13, 117000, Note_on_c, 11, 68, 126
13, 117000, Note_on_c, 11, 71, 126
13, 117004, Note_off_c, 11, 71, 17
13, 117004, Note_off_c, 11, 64, 17
13, 117004, Note_off_c, 11, 45, 17
13, 117004, Note_off_c, 11, 68, 17
13, 117120, Note_on_c, 11, 45, 127
13, 117120, Note_on_c, 11, 64, 127
13, 117120, Note_on_c, 11, 68, 127
13, 117120, Note_on_c, 11, 71, 125
13, 117356, Note_off_c, 11, 71, 17
13, 117356, Note_off_c, 11, 68, 17
13, 117356, Note_off_c, 11, 64, 17
13, 117360, Note_on_c, 11, 64, 92
13, 117360, Note_on_c, 11, 68, 92
13, 117360, Note_on_c, 11, 71, 92
13, 117364, Note_off_c, 11, 71, 17
13, 117364, Note_off_c, 11, 68, 17
13, 117364, Note_off_c, 11, 64, 17
13, 117480, Note_on_c, 11, 64, 127
13, 117480, Note_on_c, 11, 68, 127
13, 117480, Note_on_c, 11, 71, 122
13, 117555, Note_off_c, 11, 45, 17
13, 117716, Note_off_c, 11, 64, 17
13, 117716, Note_off_c, 11, 71, 17
13, 117716, Note_off_c, 11, 68, 17
13, 117720, Note_on_c, 11, 45, 127
13, 117720, Note_on_c, 11, 63, 126
13, 117720, Note_on_c, 11, 66, 126
13, 117720, Note_on_c, 11, 71, 126
13, 117724, Note_off_c, 11, 71, 17
13, 117724, Note_off_c, 11, 66, 17
13, 117724, Note_off_c, 11, 63, 17
13, 117798, Note_off_c, 11, 45, 17
13, 117840, Note_on_c, 11, 44, 127
13, 117840, Note_on_c, 11, 63, 127
13, 117840, Note_on_c, 11, 66, 127
13, 117840, Note_on_c, 11, 71, 127
13, 117993, Note_off_c, 11, 63, 17
13, 117997, Note_off_c, 11, 71, 17
13, 118001, Note_off_c, 11, 66, 17
13, 118009, Note_off_c, 11, 44, 17
13, 118080, Note_on_c, 11, 45, 127
13, 118080, Note_on_c, 11, 64, 127
13, 118080, Note_on_c, 11, 68, 127
13, 118080, Note_on_c, 11, 71, 114
13, 118309, Note_off_c, 11, 45, 17
13, 118373, Note_off_c, 11, 64, 17
13, 118375, Note_off_c, 11, 71, 17
13, 118388, Note_off_c, 11, 68, 17
13, 118560, Note_on_c, 11, 45, 127
13, 118560, Note_on_c, 11, 64, 127
13, 118560, Note_on_c, 11, 68, 127
13, 118560, Note_on_c, 11, 71, 127
13, 118818, Note_off_c, 11, 64, 17
13, 118819, Note_off_c, 11, 68, 17
13, 118826, Note_off_c, 11, 71, 17
13, 118839, Note_off_c, 11, 45, 17
13, 119040, Note_on_c, 11, 49, 127
13, 119040, Note_on_c, 11, 64, 127
13, 119040, Note_on_c, 11, 68, 127
13, 119040, Note_on_c, 11, 73, 125
13, 119276, Note_off_c, 11, 64, 17
13, 119276, Note_off_c, 11, 73, 17
13, 119276, Note_off_c, 11, 68, 17
13, 119280, Note_on_c, 11, 64, 92
13, 119280, Note_on_c, 11, 68, 92
13, 119280, Note_on_c, 11, 73, 92
13, 119284, Note_off_c, 11, 73, 17
13, 119284, Note_off_c, 11, 68, 17
13, 119284, Note_off_c, 11, 64, 17
13, 119400, Note_on_c, 11, 64, 127
13, 119400, Note_on_c, 11, 68, 127
13, 119400, Note_on_c, 11, 73, 122
13, 119475, Note_off_c, 11, 49, 17
13, 119636, Note_off_c, 11, 73, 17
13, 119636, Note_off_c, 11, 64, 17
13, 119636, Note_off_c, 11, 68, 17
13, 119640, Note_on_c, 11, 49, 127
13, 119640, Note_on_c, 11, 64, 126
13, 119640, Note_on_c, 11, 68, 126
13, 119640, Note_on_c, 11, 73, 126
13, 119644, Note_off_c, 11, 73, 17
13, 119644, Note_off_c, 11, 68, 17
13, 119644, Note_off_c, 11, 64, 17
13, 119718, Note_off_c, 11, 49, 17
13, 119760, Note_on_c, 11, 49, 127
13, 119760, Note_on_c, 11, 64, 127
13, 119760, Note_on_c, 11, 68, 127
13, 119760, Note_on_c, 11, 73, 127
13, 119913, Note_off_c, 11, 64, 17
13, 119917, Note_off_c, 11, 73, 17
13, 119921, Note_off_c, 11, 68, 17
13, 119929, Note_off_c, 11, 49, 17
13, 120000, Note_on_c, 11, 49, 127
13, 120000, Note_on_c, 11, 64, 127
13, 120000, Note_on_c, 11, 68, 127
13, 120000, Note_on_c, 11, 73, 114
13, 120229, Note_off_c, 11, 49, 17
13, 120293, Note_off_c, 11, 64, 17
13, 120295, Note_off_c, 11, 73, 17
13, 120308, Note_off_c, 11, 68, 17
13, 120480, Note_on_c, 11, 64, 126
13, 120480, Note_on_c, 11, 68, 126
13, 120480, Note_on_c, 11, 73, 126
13, 120484, Note_off_c, 11, 73, 17
13, 120484, Note_off_c, 11, 64, 17
13, 120484, Note_off_c, 11, 68, 17
13, 120720, Note_on_c, 11, 64, 126
13, 120720, Note_on_c, 11, 68, 126
13, 120720, Note_on_c, 11, 73, 126
13, 120724, Note_off_c, 11, 73, 17
13, 120724, Note_off_c, 11, 64, 17
13, 120724, Note_off_c, 11, 68, 17
13, 120840, Note_on_c, 11, 64, 126
13, 120840, Note_on_c, 11, 68, 126
13, 120840, Note_on_c, 11, 73, 126
13, 120844, Note_off_c, 11, 73, 17
13, 120844, Note_off_c, 11, 68, 17
13, 120844, Note_off_c, 11, 64, 17
13, 120960, Note_on_c, 11, 47, 127
13, 120960, Note_on_c, 11, 63, 127
13, 120960, Note_on_c, 11, 66, 127
13, 120960, Note_on_c, 11, 71, 125
13, 121196, Note_off_c, 11, 71, 17
13, 121196, Note_off_c, 11, 66, 17
13, 121196, Note_off_c, 11, 63, 17
13, 121200, Note_on_c, 11, 63, 92
13, 121200, Note_on_c, 11, 66, 92
13, 121200, Note_on_c, 11, 71, 92
13, 121204, Note_off_c, 11, 71, 17
13, 121204, Note_off_c, 11, 66, 17
13, 121204, Note_off_c, 11, 63, 17
13, 121320, Note_on_c, 11, 63, 127
13, 121320, Note_on_c, 11, 66, 127
13, 121320, Note_on_c, 11, 71, 122
13, 121395, Note_off_c, 11, 47, 17
13, 121556, Note_off_c, 11, 63, 17
13, 121556, Note_off_c, 11, 71, 17
13, 121556, Note_off_c, 11, 66, 17
13, 121560, Note_on_c, 11, 47, 127
13, 121560, Note_on_c, 11, 63, 126
13, 121560, Note_on_c, 11, 66, 126
13, 121560, Note_on_c, 11, 71, 126
13, 121564, Note_off_c, 11, 71, 17
13, 121564, Note_off_c, 11, 63, 17
13, 121564, Note_off_c, 11, 66, 17
13, 121638, Note_off_c, 11, 47, 17
13, 121680, Note_on_c, 11, 47, 127
13, 121680, Note_on_c, 11, 63, 127
13, 121680, Note_on_c, 11, 66, 127
13, 121680, Note_on_c, 11, 71, 127
13, 121833, Note_off_c, 11, 63, 17
13, 121837, Note_off_c, 11, 71, 17
13, 121841, Note_off_c, 11, 66, 17
13, 121849, Note_off_c, 11, 47, 17
13, 121920, Note_on_c, 11, 47, 127
13, 121920, Note_on_c, 11, 64, 127
13, 121920, Note_on_c, 11, 68, 127
13, 121920, Note_on_c, 11, 71, 114
13, 122149, Note_off_c, 11, 47, 17
13, 122213, Note_off_c, 11, 64, 17
13, 122215, Note_off_c, 11, 71, 17
13, 122228, Note_off_c, 11, 68, 17
13, 122400, Note_on_c, 11, 63, 126
13, 122400, Note_on_c, 11, 66, 126
13, 122400, Note_on_c, 11, 71, 126
13, 122636, Note_off_c, 11, 71, 17
13, 122636, Note_off_c, 11, 63, 17
13, 122636, Note_off_c, 11, 66, 17
13, 122640, Note_on_c, 11, 63, 126
13, 122640, Note_on_c, 11, 66, 126
13, 122640, Note_on_c, 11, 71, 126
13, 122644, Note_off_c, 11, 71, 17
13, 122644, Note_off_c, 11, 66, 17
13, 122644, Note_off_c, 11, 63, 17
13, 122760, Note_on_c, 11, 63, 126
13, 122760, Note_on_c, 11, 66, 126
13, 122760, Note_on_c, 11, 71, 126
13, 122764, Note_off_c, 11, 71, 17
13, 122764, Note_off_c, 11, 66, 17
13, 122764, Note_off_c, 11, 63, 17
13, 122880, Note_on_c, 11, 45, 127
13, 122880, Note_on_c, 11, 64, 127
13, 122880, Note_on_c, 11, 68, 127
13, 122880, Note_on_c, 11, 71, 125
13, 123116, Note_off_c, 11, 68, 17
13, 123116, Note_off_c, 11, 64, 17
13, 123116, Note_off_c, 11, 71, 17
13, 123120, Note_on_c, 11, 64, 92
13, 123120, Note_on_c, 11, 68, 92
13, 123120, Note_on_c, 11, 71, 92
13, 123124, Note_off_c, 11, 71, 17
13, 123124, Note_off_c, 11, 68, 17
13, 123124, Note_off_c, 11, 64, 17
13, 123240, Note_on_c, 11, 64, 127
13, 123240, Note_on_c, 11, 68, 127
13, 123240, Note_on_c, 11, 71, 122
13, 123315, Note_off_c, 11, 45, 17
13, 123476, Note_off_c, 11, 68, 17
13, 123476, Note_off_c, 11, 71, 17
13, 123476, Note_off_c, 11, 64, 17
13, 123480, Note_on_c, 11, 45, 127
13, 123480, Note_on_c, 11, 63, 126
13, 123480, Note_on_c, 11, 66, 126
13, 123480, Note_on_c, 11, 71, 126
13, 123484, Note_off_c, 11, 71, 17
13, 123484, Note_off_c, 11, 66, 17
13, 123484, Note_off_c, 11, 63, 17
13, 123558, Note_off_c, 11, 45, 17
13, 123600, Note_on_c, 11, 44, 127
13, 123600, Note_on_c, 11, 63, 127
13, 123600, Note_on_c, 11, 66, 127
13, 123600, Note_on_c, 11, 71, 127
13, 123753, Note_off_c, 11, 63, 17
13, 123757, Note_off_c, 11, 71, 17
13, 123761, Note_off_c, 11, 66, 17
13, 123769, Note_off_c, 11, 44, 17
13, 123840, Note_on_c, 11, 45, 127
13, 123840, Note_on_c, 11, 64, 127
13, 123840, Note_on_c, 11, 68, 127
13, 123840, Note_on_c, 11, 71, 114
13, 124069, Note_off_c, 11, 45, 17
13, 124133, Note_off_c, 11, 64, 17
13, 124135, Note_off_c, 11, 71, 17
13, 124148, Note_off_c, 11, 68, 17
13, 124560, Note_on_c, 11, 45, 126
13, 124560, Note_on_c, 11, 64, 126
13, 124560, Note_on_c, 11, 68, 126
13, 124560, Note_on_c, 11, 71, 126
13, 124564, Note_off_c, 11, 71, 17
13, 124564, Note_off_c, 11, 68, 17
13, 124564, Note_off_c, 11, 64, 17
13, 124564, Note_off_c, 11, 45, 17
13, 124680, Note_on_c, 11, 45, 126
13, 124680, Note_on_c, 11, 64, 126
13, 124680, Note_on_c, 11, 68, 126
13, 124680, Note_on_c, 11, 71, 126
13, 124684, Note_off_c, 11, 71, 17
13, 124684, Note_off_c, 11, 68, 17
13, 124684, Note_off_c, 11, 64, 17
13, 124684, Note_off_c, 11, 45, 17
13, 124800, Note_on_c, 11, 45, 127
13, 124800, Note_on_c, 11, 64, 127
13, 124800, Note_on_c, 11, 68, 127
13, 124800, Note_on_c, 11, 71, 125
13, 125036, Note_off_c, 11, 68, 17
13, 125036, Note_off_c, 11, 71, 17
13, 125036, Note_off_c, 11, 64, 17
13, 125040, Note_on_c, 11, 64, 92
13, 125040, Note_on_c, 11, 68, 92
13, 125040, Note_on_c, 11, 71, 92
13, 125044, Note_off_c, 11, 71, 17
13, 125044, Note_off_c, 11, 68, 17
13, 125044, Note_off_c, 11, 64, 17
13, 125160, Note_on_c, 11, 64, 127
13, 125160, Note_on_c, 11, 68, 127
13, 125160, Note_on_c, 11, 71, 122
13, 125235, Note_off_c, 11, 45, 17
13, 125396, Note_off_c, 11, 68, 17
13, 125396, Note_off_c, 11, 71, 17
13, 125396, Note_off_c, 11, 64, 17
13, 125400, Note_on_c, 11, 45, 127
13, 125400, Note_on_c, 11, 63, 126
13, 125400, Note_on_c, 11, 66, 126
13, 125400, Note_on_c, 11, 71, 126
13, 125404, Note_off_c, 11, 71, 17
13, 125404, Note_off_c, 11, 66, 17
13, 125404, Note_off_c, 11, 63, 17
13, 125478, Note_off_c, 11, 45, 17
13, 125520, Note_on_c, 11, 44, 127
13, 125520, Note_on_c, 11, 63, 127
13, 125520, Note_on_c, 11, 66, 127
13, 125520, Note_on_c, 11, 71, 127
13, 125673, Note_off_c, 11, 63, 17
13, 125677, Note_off_c, 11, 71, 17
13, 125681, Note_off_c, 11, 66, 17
13, 125689, Note_off_c, 11, 44, 17
13, 125760, Note_on_c, 11, 45, 127
13, 125760, Note_on_c, 11, 64, 127
13, 125760, Note_on_c, 11, 68, 127
13, 125760, Note_on_c, 11, 71, 114
13, 125989, Note_off_c, 11, 45, 17
13, 126053, Note_off_c, 11, 64, 17
13, 126055, Note_off_c, 11, 71, 17
13, 126068, Note_off_c, 11, 68, 17
13, 126240, Note_on_c, 11, 45, 127
13, 126240, Note_on_c, 11, 64, 127
13, 126240, Note_on_c, 11, 68, 127
13, 126240, Note_on_c, 11, 71, 127
13, 126498, Note_off_c, 11, 64, 17
13, 126499, Note_off_c, 11, 68, 17
13, 126506, Note_off_c, 11, 71, 17
13, 126519, Note_off_c, 11, 45, 17
13, 141624, Control_c, 11, 11, 7
13, 141684, Control_c, 11, 11, 8
13, 141744, Control_c, 11, 11, 9
13, 141804, Control_c, 11, 11, 10
13, 141864, Control_c, 11, 11, 11
13, 141924, Control_c, 11, 11, 12
13, 141984, Control_c, 11, 11, 13
13, 142044, Control_c, 11, 11, 14
13, 142080, Note_on_c, 11, 52, 127
13, 142080, Note_on_c, 11, 64, 127
13, 142080, Note_on_c, 11, 68, 127
13, 142080, Note_on_c, 11, 71, 125
13, 142104, Control_c, 11, 11, 15
13, 142164, Control_c, 11, 11, 16
13, 142224, Control_c, 11, 11, 17
13, 142284, Control_c, 11, 11, 19
13, 142316, Note_off_c, 11, 71, 17
13, 142316, Note_off_c, 11, 68, 17
13, 142316, Note_off_c, 11, 64, 17
13, 142320, Note_on_c, 11, 64, 92
13, 142320, Note_on_c, 11, 68, 92
13, 142320, Note_on_c, 11, 71, 92
13, 142324, Note_off_c, 11, 71, 17
13, 142324, Note_off_c, 11, 64, 17
13, 142324, Note_off_c, 11, 68, 17
13, 142344, Control_c, 11, 11, 20
13, 142404, Control_c, 11, 11, 21
13, 142440, Note_on_c, 11, 64, 127
13, 142440, Note_on_c, 11, 68, 127
13, 142440, Note_on_c, 11, 71, 122
13, 142464, Control_c, 11, 11, 22
13, 142515, Note_off_c, 11, 52, 17
13, 142524, Control_c, 11, 11, 23
13, 142584, Control_c, 11, 11, 24
13, 142644, Control_c, 11, 11, 25
13, 142676, Note_off_c, 11, 68, 17
13, 142676, Note_off_c, 11, 64, 17
13, 142676, Note_off_c, 11, 71, 17
13, 142680, Note_on_c, 11, 52, 127
13, 142680, Note_on_c, 11, 63, 126
13, 142680, Note_on_c, 11, 66, 126
13, 142680, Note_on_c, 11, 71, 126
13, 142684, Note_off_c, 11, 71, 17
13, 142684, Note_off_c, 11, 63, 17
13, 142684, Note_off_c, 11, 66, 17
13, 142704, Control_c, 11, 11, 26
13, 142758, Note_off_c, 11, 52, 17
13, 142764, Control_c, 11, 11, 27
13, 142800, Note_on_c, 11, 51, 127
13, 142800, Note_on_c, 11, 63, 127
13, 142800, Note_on_c, 11, 66, 127
13, 142800, Note_on_c, 11, 71, 127
13, 142824, Control_c, 11, 11, 28
13, 142884, Control_c, 11, 11, 29
13, 142944, Control_c, 11, 11, 31
13, 142953, Note_off_c, 11, 63, 17
13, 142957, Note_off_c, 11, 71, 17
13, 142961, Note_off_c, 11, 66, 17
13, 142969, Note_off_c, 11, 51, 17
13, 143004, Control_c, 11, 11, 32
13, 143040, Note_on_c, 11, 52, 127
13, 143040, Note_on_c, 11, 64, 127
13, 143040, Note_on_c, 11, 68, 127
13, 143040, Note_on_c, 11, 71, 114
13, 143064, Control_c, 11, 11, 33
13, 143124, Control_c, 11, 11, 34
13, 143184, Control_c, 11, 11, 35
13, 143244, Control_c, 11, 11, 36
13, 143269, Note_off_c, 11, 52, 17
13, 143304, Control_c, 11, 11, 37
13, 143333, Note_off_c, 11, 64, 17
13, 143335, Note_off_c, 11, 71, 17
13, 143348, Note_off_c, 11, 68, 17
13, 143364, Control_c, 11, 11, 38
13, 143424, Control_c, 11, 11, 39
13, 143484, Control_c, 11, 11, 40
13, 143544, Control_c, 11, 11, 42
13, 143604, Control_c, 11, 11, 43
13, 143664, Control_c, 11, 11, 44
13, 143724, Control_c, 11, 11, 45
13, 143760, Note_on_c, 11, 52, 126
13, 143760, Note_on_c, 11, 64, 126
13, 143760, Note_on_c, 11, 68, 126
13, 143760, Note_on_c, 11, 71, 126
13, 143764, Note_off_c, 11, 71, 17
13, 143764, Note_off_c, 11, 64, 17
13, 143764, Note_off_c, 11, 52, 17
13, 143764, Note_off_c, 11, 68, 17
13, 143784, Control_c, 11, 11, 46
13, 143844, Control_c, 11, 11, 47
13, 143880, Note_on_c, 11, 52, 126
13, 143880, Note_on_c, 11, 64, 126
13, 143880, Note_on_c, 11, 68, 126
13, 143880, Note_on_c, 11, 71, 126
13, 143884, Note_off_c, 11, 71, 17
13, 143884, Note_off_c, 11, 64, 17
13, 143884, Note_off_c, 11, 52, 17
13, 143884, Note_off_c, 11, 68, 17
13, 143904, Control_c, 11, 11, 48
13, 143964, Control_c, 11, 11, 49
13, 144000, Note_on_c, 11, 52, 127
13, 144000, Note_on_c, 11, 64, 127
13, 144000, Note_on_c, 11, 68, 127
13, 144000, Note_on_c, 11, 71, 125
13, 144036, Control_c, 11, 11, 51
13, 144236, Note_off_c, 11, 71, 17
13, 144236, Note_off_c, 11, 68, 17
13, 144236, Note_off_c, 11, 64, 17
13, 144240, Note_on_c, 11, 64, 92
13, 144240, Note_on_c, 11, 68, 92
13, 144240, Note_on_c, 11, 71, 92
13, 144244, Note_off_c, 11, 71, 17
13, 144244, Note_off_c, 11, 64, 17
13, 144244, Note_off_c, 11, 68, 17
13, 144246, Control_c, 11, 11, 52
13, 144351, Control_c, 11, 11, 53
13, 144360, Note_on_c, 11, 64, 127
13, 144360, Note_on_c, 11, 68, 127
13, 144360, Note_on_c, 11, 71, 122
13, 144435, Note_off_c, 11, 52, 17
13, 144456, Control_c, 11, 11, 54
13, 144561, Control_c, 11, 11, 55
13, 144596, Note_off_c, 11, 68, 17
13, 144596, Note_off_c, 11, 64, 17
13, 144596, Note_off_c, 11, 71, 17
13, 144600, Note_on_c, 11, 52, 127
13, 144600, Note_on_c, 11, 63, 126
13, 144600, Note_on_c, 11, 66, 126
13, 144600, Note_on_c, 11, 71, 126
13, 144604, Note_off_c, 11, 71, 17
13, 144604, Note_off_c, 11, 63, 17
13, 144604, Note_off_c, 11, 66, 17
13, 144666, Control_c, 11, 11, 56
13, 144678, Note_off_c, 11, 52, 17
13, 144720, Note_on_c, 11, 51, 127
13, 144720, Note_on_c, 11, 63, 127
13, 144720, Note_on_c, 11, 66, 127
13, 144720, Note_on_c, 11, 71, 127
13, 144771, Control_c, 11, 11, 57
13, 144873, Note_off_c, 11, 63, 17
13, 144876, Control_c, 11, 11, 58
13, 144877, Note_off_c, 11, 71, 17
13, 144881, Note_off_c, 11, 66, 17
13, 144889, Note_off_c, 11, 51, 17
13, 144960, Note_on_c, 11, 52, 127
13, 144960, Note_on_c, 11, 64, 127
13, 144960, Note_on_c, 11, 68, 127
13, 144960, Note_on_c, 11, 71, 114
13, 144981, Control_c, 11, 11, 59
13, 145086, Control_c, 11, 11, 60
13, 145189, Note_off_c, 11, 52, 17
13, 145191, Control_c, 11, 11, 61
13, 145253, Note_off_c, 11, 64, 17
13, 145255, Note_off_c, 11, 71, 17
13, 145268, Note_off_c, 11, 68, 17
13, 145296, Control_c, 11, 11, 62
13, 145401, Control_c, 11, 11, 63
13, 145440, Note_on_c, 11, 52, 127
13, 145440, Note_on_c, 11, 64, 127
13, 145440, Note_on_c, 11, 68, 127
13, 145440, Note_on_c, 11, 71, 127
13, 145506, Control_c, 11, 11, 64
13, 145611, Control_c, 11, 11, 65
13, 145698, Note_off_c, 11, 64, 17
13, 145699, Note_off_c, 11, 68, 17
13, 145706, Note_off_c, 11, 71, 17
13, 145716, Control_c, 11, 11, 66
13, 145719, Note_off_c, 11, 52, 17
13, 145821, Control_c, 11, 11, 67
13, 145920, Note_on_c, 11, 45, 127
13, 145920, Note_on_c, 11, 64, 127
13, 145920, Note_on_c, 11, 68, 127
13, 145920, Note_on_c, 11, 71, 125
13, 145926, Control_c, 11, 11, 68
13, 146031, Control_c, 11, 11, 69
13, 146136, Control_c, 11, 11, 70
13, 146156, Note_off_c, 11, 68, 17
13, 146156, Note_off_c, 11, 64, 17
13, 146156, Note_off_c, 11, 71, 17
13, 146160, Note_on_c, 11, 64, 92
13, 146160, Note_on_c, 11, 68, 92
13, 146160, Note_on_c, 11, 71, 92
13, 146164, Note_off_c, 11, 71, 17
13, 146164, Note_off_c, 11, 64, 17
13, 146164, Note_off_c, 11, 68, 17
13, 146241, Control_c, 11, 11, 71
13, 146280, Note_on_c, 11, 64, 127
13, 146280, Note_on_c, 11, 68, 127
13, 146280, Note_on_c, 11, 71, 122
13, 146346, Control_c, 11, 11, 72
13, 146355, Note_off_c, 11, 45, 17
13, 146451, Control_c, 11, 11, 73
13, 146516, Note_off_c, 11, 68, 17
13, 146516, Note_off_c, 11, 64, 17
13, 146516, Note_off_c, 11, 71, 17
13, 146520, Note_on_c, 11, 45, 127
13, 146520, Note_on_c, 11, 63, 126
13, 146520, Note_on_c, 11, 66, 126
13, 146520, Note_on_c, 11, 71, 126
13, 146524, Note_off_c, 11, 71, 17
13, 146524, Note_off_c, 11, 63, 17
13, 146524, Note_off_c, 11, 66, 17
13, 146556, Control_c, 11, 11, 74
13, 146598, Note_off_c, 11, 45, 17
13, 146640, Note_on_c, 11, 44, 127
13, 146640, Note_on_c, 11, 63, 127
13, 146640, Note_on_c, 11, 66, 127
13, 146640, Note_on_c, 11, 71, 127
13, 146661, Control_c, 11, 11, 75
13, 146766, Control_c, 11, 11, 76
13, 146793, Note_off_c, 11, 63, 17
13, 146797, Note_off_c, 11, 71, 17
13, 146801, Note_off_c, 11, 66, 17
13, 146809, Note_off_c, 11, 44, 17
13, 146871, Control_c, 11, 11, 77
13, 146880, Note_on_c, 11, 45, 127
13, 146880, Note_on_c, 11, 64, 127
13, 146880, Note_on_c, 11, 68, 127
13, 146880, Note_on_c, 11, 71, 114
13, 146976, Control_c, 11, 11, 78
13, 147081, Control_c, 11, 11, 79
13, 147109, Note_off_c, 11, 45, 17
13, 147173, Note_off_c, 11, 64, 17
13, 147175, Note_off_c, 11, 71, 17
13, 147186, Control_c, 11, 11, 80
13, 147188, Note_off_c, 11, 68, 17
13, 147291, Control_c, 11, 11, 81
13, 147396, Control_c, 11, 11, 82
13, 147501, Control_c, 11, 11, 83
13, 147600, Note_on_c, 11, 45, 126
13, 147600, Note_on_c, 11, 64, 126
13, 147600, Note_on_c, 11, 68, 126
13, 147600, Note_on_c, 11, 71, 126
13, 147604, Note_off_c, 11, 71, 17
13, 147604, Note_off_c, 11, 64, 17
13, 147604, Note_off_c, 11, 45, 17
13, 147604, Note_off_c, 11, 68, 17
13, 147606, Control_c, 11, 11, 84
13, 147711, Control_c, 11, 11, 85
13, 147720, Note_on_c, 11, 45, 126
13, 147720, Note_on_c, 11, 64, 126
13, 147720, Note_on_c, 11, 68, 126
13, 147720, Note_on_c, 11, 71, 126
13, 147724, Note_off_c, 11, 71, 17
13, 147724, Note_off_c, 11, 64, 17
13, 147724, Note_off_c, 11, 45, 17
13, 147724, Note_off_c, 11, 68, 17
13, 147816, Control_c, 11, 11, 86
13, 147840, Note_on_c, 11, 45, 127
13, 147840, Note_on_c, 11, 64, 127
13, 147840, Note_on_c, 11, 68, 127
13, 147840, Note_on_c, 11, 71, 125
13, 147921, Control_c, 11, 11, 87
13, 148026, Control_c, 11, 11, 88
13, 148076, Note_off_c, 11, 71, 17
13, 148076, Note_off_c, 11, 68, 17
13, 148076, Note_off_c, 11, 64, 17
13, 148080, Note_on_c, 11, 64, 92
13, 148080, Note_on_c, 11, 68, 92
13, 148080, Note_on_c, 11, 71, 92
13, 148084, Note_off_c, 11, 71, 17
13, 148084, Note_off_c, 11, 64, 17
13, 148084, Note_off_c, 11, 68, 17
13, 148131, Control_c, 11, 11, 89
13, 148200, Note_on_c, 11, 64, 127
13, 148200, Note_on_c, 11, 68, 127
13, 148200, Note_on_c, 11, 71, 122
13, 148236, Control_c, 11, 11, 90
13, 148275, Note_off_c, 11, 45, 17
13, 148341, Control_c, 11, 11, 91
13, 148436, Note_off_c, 11, 68, 17
13, 148436, Note_off_c, 11, 64, 17
13, 148436, Note_off_c, 11, 71, 17
13, 148440, Note_on_c, 11, 45, 127
13, 148440, Note_on_c, 11, 63, 126
13, 148440, Note_on_c, 11, 66, 126
13, 148440, Note_on_c, 11, 71, 126
13, 148444, Note_off_c, 11, 71, 17
13, 148444, Note_off_c, 11, 63, 17
13, 148444, Note_off_c, 11, 66, 17
13, 148446, Control_c, 11, 11, 92
13, 148518, Note_off_c, 11, 45, 17
13, 148551, Control_c, 11, 11, 93
13, 148560, Note_on_c, 11, 44, 127
13, 148560, Note_on_c, 11, 63, 127
13, 148560, Note_on_c, 11, 66, 127
13, 148560, Note_on_c, 11, 71, 127
13, 148656, Control_c, 11, 11, 94
13, 148713, Note_off_c, 11, 63, 17
13, 148717, Note_off_c, 11, 71, 17
13, 148721, Note_off_c, 11, 66, 17
13, 148729, Note_off_c, 11, 44, 17
13, 148761, Control_c, 11, 11, 95
13, 148800, Note_on_c, 11, 45, 127
13, 148800, Note_on_c, 11, 64, 127
13, 148800, Note_on_c, 11, 68, 127
13, 148800, Note_on_c, 11, 71, 114
13, 148866, Control_c, 11, 11, 96
13, 148971, Control_c, 11, 11, 97
13, 149029, Note_off_c, 11, 45, 17
13, 149076, Control_c, 11, 11, 98
13, 149093, Note_off_c, 11, 64, 17
13, 149095, Note_off_c, 11, 71, 17
13, 149108, Note_off_c, 11, 68, 17
13, 149181, Control_c, 11, 11, 99
13, 149280, Note_on_c, 11, 45, 127
13, 149280, Note_on_c, 11, 64, 127
13, 149280, Note_on_c, 11, 68, 127
13, 149280, Note_on_c, 11, 71, 127
13, 149286, Control_c, 11, 11, 100
13, 149391, Control_c, 11, 11, 101
13, 149496, Control_c, 11, 11, 102
13, 149538, Note_off_c, 11, 64, 17
13, 149539, Note_off_c, 11, 68, 17
13, 149546, Note_off_c, 11, 71, 17
13, 149559, Note_off_c, 11, 45, 17
13, 149601, Control_c, 11, 11, 103
13, 149706, Control_c, 11, 11, 104
13, 149760, Note_on_c, 11, 49, 127
13, 149760, Note_on_c, 11, 64, 127
13, 149760, Note_on_c, 11, 68, 127
13, 149760, Note_on_c, 11, 73, 125
13, 149811, Control_c, 11, 11, 105
13, 149916, Control_c, 11, 11, 106
13, 149996, Note_off_c, 11, 73, 17
13, 149996, Note_off_c, 11, 68, 17
13, 149996, Note_off_c, 11, 64, 17
13, 150000, Note_on_c, 11, 64, 92
13, 150000, Note_on_c, 11, 68, 92
13, 150000, Note_on_c, 11, 73, 92
13, 150004, Note_off_c, 11, 73, 17
13, 150004, Note_off_c, 11, 64, 17
13, 150004, Note_off_c, 11, 68, 17
13, 150021, Control_c, 11, 11, 107
13, 150120, Note_on_c, 11, 64, 127
13, 150120, Note_on_c, 11, 68, 127
13, 150120, Note_on_c, 11, 73, 122
13, 150126, Control_c, 11, 11, 108
13, 150195, Note_off_c, 11, 49, 17
13, 150231, Control_c, 11, 11, 109
13, 150336, Control_c, 11, 11, 110
13, 150356, Note_off_c, 11, 68, 17
13, 150356, Note_off_c, 11, 64, 17
13, 150356, Note_off_c, 11, 73, 17
13, 150360, Note_on_c, 11, 49, 127
13, 150360, Note_on_c, 11, 64, 126
13, 150360, Note_on_c, 11, 68, 126
13, 150360, Note_on_c, 11, 73, 126
13, 150364, Note_off_c, 11, 73, 17
13, 150364, Note_off_c, 11, 64, 17
13, 150364, Note_off_c, 11, 68, 17
13, 150438, Note_off_c, 11, 49, 17
13, 150441, Control_c, 11, 11, 111
13, 150480, Note_on_c, 11, 49, 127
13, 150480, Note_on_c, 11, 64, 127
13, 150480, Note_on_c, 11, 68, 127
13, 150480, Note_on_c, 11, 73, 127
13, 150546, Control_c, 11, 11, 112
13, 150633, Note_off_c, 11, 64, 17
13, 150637, Note_off_c, 11, 73, 17
13, 150641, Note_off_c, 11, 68, 17
13, 150649, Note_off_c, 11, 49, 17
13, 150651, Control_c, 11, 11, 113
13, 150720, Note_on_c, 11, 49, 127
13, 150720, Note_on_c, 11, 64, 127
13, 150720, Note_on_c, 11, 68, 127
13, 150720, Note_on_c, 11, 73, 114
13, 150756, Control_c, 11, 11, 114
13, 150861, Control_c, 11, 11, 115
13, 150949, Note_off_c, 11, 49, 17
13, 150966, Control_c, 11, 11, 116
13, 151013, Note_off_c, 11, 64, 17
13, 151015, Note_off_c, 11, 73, 17
13, 151028, Note_off_c, 11, 68, 17
13, 151071, Control_c, 11, 11, 117
13, 151176, Control_c, 11, 11, 118
13, 151200, Note_on_c, 11, 64, 126
13, 151200, Note_on_c, 11, 68, 126
13, 151200, Note_on_c, 11, 73, 126
13, 151204, Note_off_c, 11, 73, 17
13, 151204, Note_off_c, 11, 68, 17
13, 151204, Note_off_c, 11, 64, 17
13, 151281, Control_c, 11, 11, 119
13, 151386, Control_c, 11, 11, 120
13, 151440, Note_on_c, 11, 64, 126
13, 151440, Note_on_c, 11, 68, 126
13, 151440, Note_on_c, 11, 73, 126
13, 151444, Note_off_c, 11, 73, 17
13, 151444, Note_off_c, 11, 64, 17
13, 151444, Note_off_c, 11, 68, 17
13, 151491, Control_c, 11, 11, 121
13, 151560, Note_on_c, 11, 64, 126
13, 151560, Note_on_c, 11, 68, 126
13, 151560, Note_on_c, 11, 73, 126
13, 151564, Note_off_c, 11, 73, 17
13, 151564, Note_off_c, 11, 68, 17
13, 151564, Note_off_c, 11, 64, 17
13, 151596, Control_c, 11, 11, 122
13, 151680, Note_on_c, 11, 47, 127
13, 151680, Note_on_c, 11, 63, 127
13, 151680, Note_on_c, 11, 66, 127
13, 151680, Note_on_c, 11, 71, 125
13, 151701, Control_c, 11, 11, 123
13, 151806, Control_c, 11, 11, 124
13, 151911, Control_c, 11, 11, 125
13, 151916, Note_off_c, 11, 71, 17
13, 151916, Note_off_c, 11, 66, 17
13, 151916, Note_off_c, 11, 63, 17
13, 151920, Note_on_c, 11, 63, 92
13, 151920, Note_on_c, 11, 66, 92
13, 151920, Note_on_c, 11, 71, 92
13, 151924, Note_off_c, 11, 71, 17
13, 151924, Note_off_c, 11, 63, 17
13, 151924, Note_off_c, 11, 66, 17
13, 152040, Note_on_c, 11, 63, 127
13, 152040, Note_on_c, 11, 66, 127
13, 152040, Note_on_c, 11, 71, 122
13, 152040, Control_c, 11, 11, 127
13, 152115, Note_off_c, 11, 47, 17
13, 152276, Note_off_c, 11, 66, 17
13, 152276, Note_off_c, 11, 63, 17
13, 152276, Note_off_c, 11, 71, 17
13, 152280, Note_on_c, 11, 47, 127
13, 152280, Note_on_c, 11, 63, 126
13, 152280, Note_on_c, 11, 66, 126
13, 152280, Note_on_c, 11, 71, 126
13, 152284, Note_off_c, 11, 71, 17
13, 152284, Note_off_c, 11, 63, 17
13, 152284, Note_off_c, 11, 66, 17
13, 152358, Note_off_c, 11, 47, 17
13, 152400, Note_on_c, 11, 47, 127
13, 152400, Note_on_c, 11, 63, 127
13, 152400, Note_on_c, 11, 66, 127
13, 152400, Note_on_c, 11, 71, 127
13, 152553, Note_off_c, 11, 63, 17
13, 152557, Note_off_c, 11, 71, 17
13, 152561, Note_off_c, 11, 66, 17
13, 152569, Note_off_c, 11, 47, 17
13, 152640, Note_on_c, 11, 47, 127
13, 152640, Note_on_c, 11, 63, 127
13, 152640, Note_on_c, 11, 66, 127
13, 152640, Note_on_c, 11, 71, 114
13, 152869, Note_off_c, 11, 47, 17
13, 152933, Note_off_c, 11, 63, 17
13, 152935, Note_off_c, 11, 71, 17
13, 152948, Note_off_c, 11, 66, 17
13, 153120, Note_on_c, 11, 63, 126
13, 153120, Note_on_c, 11, 66, 126
13, 153120, Note_on_c, 11, 71, 126
13, 153124, Note_off_c, 11, 71, 17
13, 153124, Note_off_c, 11, 66, 17
13, 153124, Note_off_c, 11, 63, 17
13, 153360, Note_on_c, 11, 63, 126
13, 153360, Note_on_c, 11, 66, 126
13, 153360, Note_on_c, 11, 71, 126
13, 153364, Note_off_c, 11, 71, 17
13, 153364, Note_off_c, 11, 66, 17
13, 153364, Note_off_c, 11, 63, 17
13, 153480, Note_on_c, 11, 63, 126
13, 153480, Note_on_c, 11, 66, 126
13, 153480, Note_on_c, 11, 71, 126
13, 153484, Note_off_c, 11, 71, 17
13, 153484, Note_off_c, 11, 66, 17
13, 153484, Note_off_c, 11, 63, 17
13, 153600, Note_on_c, 11, 45, 127
13, 153600, Note_on_c, 11, 64, 127
13, 153600, Note_on_c, 11, 68, 127
13, 153600, Note_on_c, 11, 71, 125
13, 153836, Note_off_c, 11, 68, 17
13, 153836, Note_off_c, 11, 64, 17
13, 153836, Note_off_c, 11, 71, 17
13, 153840, Note_on_c, 11, 64, 92
13, 153840, Note_on_c, 11, 68, 92
13, 153840, Note_on_c, 11, 71, 92
13, 153844, Note_off_c, 11, 71, 17
13, 153844, Note_off_c, 11, 64, 17
13, 153844, Note_off_c, 11, 68, 17
13, 153960, Note_on_c, 11, 64, 127
13, 153960, Note_on_c, 11, 68, 127
13, 153960, Note_on_c, 11, 71, 122
13, 154035, Note_off_c, 11, 45, 17
13, 154196, Note_off_c, 11, 68, 17
13, 154196, Note_off_c, 11, 64, 17
13, 154196, Note_off_c, 11, 71, 17
13, 154200, Note_on_c, 11, 45, 127
13, 154200, Note_on_c, 11, 63, 126
13, 154200, Note_on_c, 11, 66, 126
13, 154200, Note_on_c, 11, 71, 126
13, 154204, Note_off_c, 11, 71, 17
13, 154204, Note_off_c, 11, 63, 17
13, 154204, Note_off_c, 11, 66, 17
13, 154278, Note_off_c, 11, 45, 17
13, 154320, Note_on_c, 11, 44, 127
13, 154320, Note_on_c, 11, 63, 127
13, 154320, Note_on_c, 11, 66, 127
13, 154320, Note_on_c, 11, 71, 127
13, 154473, Note_off_c, 11, 63, 17
13, 154477, Note_off_c, 11, 71, 17
13, 154481, Note_off_c, 11, 66, 17
13, 154489, Note_off_c, 11, 44, 17
13, 154560, Note_on_c, 11, 45, 127
13, 154560, Note_on_c, 11, 64, 127
13, 154560, Note_on_c, 11, 68, 127
13, 154560, Note_on_c, 11, 71, 114
13, 154789, Note_off_c, 11, 45, 17
13, 154853, Note_off_c, 11, 64, 17
13, 154855, Note_off_c, 11, 71, 17
13, 154868, Note_off_c, 11, 68, 17
13, 155280, Note_on_c, 11, 45, 126
13, 155280, Note_on_c, 11, 64, 126
13, 155280, Note_on_c, 11, 68, 126
13, 155280, Note_on_c, 11, 71, 126
13, 155284, Note_off_c, 11, 71, 17
13, 155284, Note_off_c, 11, 45, 17
13, 155284, Note_off_c, 11, 68, 17
13, 155284, Note_off_c, 11, 64, 17
13, 155400, Note_on_c, 11, 45, 126
13, 155400, Note_on_c, 11, 64, 126
13, 155400, Note_on_c, 11, 68, 126
13, 155400, Note_on_c, 11, 71, 126
13, 155404, Note_off_c, 11, 71, 17
13, 155404, Note_off_c, 11, 45, 17
13, 155404, Note_off_c, 11, 68, 17
13, 155404, Note_off_c, 11, 64, 17
13, 155520, Note_on_c, 11, 45, 127
13, 155520, Note_on_c, 11, 64, 127
13, 155520, Note_on_c, 11, 68, 127
13, 155520, Note_on_c, 11, 71, 125
13, 155756, Note_off_c, 11, 68, 17
13, 155756, Note_off_c, 11, 64, 17
13, 155756, Note_off_c, 11, 71, 17
13, 155760, Note_on_c, 11, 64, 92
13, 155760, Note_on_c, 11, 68, 92
13, 155760, Note_on_c, 11, 71, 92
13, 155764, Note_off_c, 11, 71, 17
13, 155764, Note_off_c, 11, 68, 17
13, 155764, Note_off_c, 11, 64, 17
13, 155880, Note_on_c, 11, 64, 127
13, 155880, Note_on_c, 11, 68, 127
13, 155880, Note_on_c, 11, 71, 122
13, 155955, Note_off_c, 11, 45, 17
13, 156116, Note_off_c, 11, 71, 17
13, 156116, Note_off_c, 11, 64, 17
13, 156116, Note_off_c, 11, 68, 17
13, 156120, Note_on_c, 11, 45, 127
13, 156120, Note_on_c, 11, 63, 126
13, 156120, Note_on_c, 11, 66, 126
13, 156120, Note_on_c, 11, 71, 126
13, 156124, Note_off_c, 11, 71, 17
13, 156124, Note_off_c, 11, 66, 17
13, 156124, Note_off_c, 11, 63, 17
13, 156198, Note_off_c, 11, 45, 17
13, 156240, Note_on_c, 11, 44, 127
13, 156240, Note_on_c, 11, 63, 127
13, 156240, Note_on_c, 11, 66, 127
13, 156240, Note_on_c, 11, 71, 127
13, 156393, Note_off_c, 11, 63, 17
13, 156397, Note_off_c, 11, 71, 17
13, 156401, Note_off_c, 11, 66, 17
13, 156409, Note_off_c, 11, 44, 17
13, 156480, Note_on_c, 11, 45, 127
13, 156480, Note_on_c, 11, 64, 127
13, 156480, Note_on_c, 11, 68, 127
13, 156480, Note_on_c, 11, 71, 114
13, 156709, Note_off_c, 11, 45, 17
13, 156773, Note_off_c, 11, 64, 17
13, 156775, Note_off_c, 11, 71, 17
13, 156788, Note_off_c, 11, 68, 17
13, 156960, Note_on_c, 11, 45, 127
13, 156960, Note_on_c, 11, 64, 127
13, 156960, Note_on_c, 11, 68, 127
13, 156960, Note_on_c, 11, 71, 127
13, 157218, Note_off_c, 11, 64, 17
13, 157219, Note_off_c, 11, 68, 17
13, 157226, Note_off_c, 11, 71, 17
13, 157239, Note_off_c, 11, 45, 17
13, 157440, Note_on_c, 11, 52, 127
13, 157440, Note_on_c, 11, 64, 127
13, 157440, Note_on_c, 11, 68, 127
13, 157440, Note_on_c, 11, 71, 125
13, 157676, Note_off_c, 11, 68, 17
13, 157676, Note_off_c, 11, 64, 17
13, 157676, Note_off_c, 11, 71, 17
13, 157680, Note_on_c, 11, 64, 92
13, 157680, Note_on_c, 11, 68, 92
13, 157680, Note_on_c, 11, 71, 92
13, 157684, Note_off_c, 11, 71, 17
13, 157684, Note_off_c, 11, 68, 17
13, 157684, Note_off_c, 11, 64, 17
13, 157800, Note_on_c, 11, 64, 127
13, 157800, Note_on_c, 11, 68, 127
13, 157800, Note_on_c, 11, 71, 122
13, 157875, Note_off_c, 11, 52, 17
13, 158036, Note_off_c, 11, 71, 17
13, 158036, Note_off_c, 11, 64, 17
13, 158036, Note_off_c, 11, 68, 17
13, 158040, Note_on_c, 11, 52, 127
13, 158040, Note_on_c, 11, 63, 126
13, 158040, Note_on_c, 11, 66, 126
13, 158040, Note_on_c, 11, 71, 126
13, 158044, Note_off_c, 11, 71, 17
13, 158044, Note_off_c, 11, 66, 17
13, 158044, Note_off_c, 11, 63, 17
13, 158118, Note_off_c, 11, 52, 17
13, 158160, Note_on_c, 11, 51, 127
13, 158160, Note_on_c, 11, 63, 127
13, 158160, Note_on_c, 11, 66, 127
13, 158160, Note_on_c, 11, 71, 127
13, 158313, Note_off_c, 11, 63, 17
13, 158317, Note_off_c, 11, 71, 17
13, 158321, Note_off_c, 11, 66, 17
13, 158329, Note_off_c, 11, 51, 17
13, 158400, Note_on_c, 11, 52, 127
13, 158400, Note_on_c, 11, 64, 127
13, 158400, Note_on_c, 11, 68, 127
13, 158400, Note_on_c, 11, 71, 114
13, 158629, Note_off_c, 11, 52, 17
13, 158693, Note_off_c, 11, 64, 17
13, 158695, Note_off_c, 11, 71, 17
13, 158708, Note_off_c, 11, 68, 17
13, 159120, Note_on_c, 11, 52, 126
13, 159120, Note_on_c, 11, 64, 126
13, 159120, Note_on_c, 11, 68, 126
13, 159120, Note_on_c, 11, 71, 126
13, 159124, Note_off_c, 11, 71, 17
13, 159124, Note_off_c, 11, 64, 17
13, 159124, Note_off_c, 11, 52, 17
13, 159124, Note_off_c, 11, 68, 17
13, 159240, Note_on_c, 11, 52, 126
13, 159240, Note_on_c, 11, 64, 126
13, 159240, Note_on_c, 11, 68, 126
13, 159240, Note_on_c, 11, 71, 126
13, 159244, Note_off_c, 11, 71, 17
13, 159244, Note_off_c, 11, 64, 17
13, 159244, Note_off_c, 11, 52, 17
13, 159244, Note_off_c, 11, 68, 17
13, 159360, Note_on_c, 11, 52, 127
13, 159360, Note_on_c, 11, 64, 127
13, 159360, Note_on_c, 11, 68, 127
13, 159360, Note_on_c, 11, 71, 125
13, 159596, Note_off_c, 11, 71, 17
13, 159596, Note_off_c, 11, 68, 17
13, 159596, Note_off_c, 11, 64, 17
13, 159600, Note_on_c, 11, 64, 92
13, 159600, Note_on_c, 11, 68, 92
13, 159600, Note_on_c, 11, 71, 92
13, 159604, Note_off_c, 11, 71, 17
13, 159604, Note_off_c, 11, 68, 17
13, 159604, Note_off_c, 11, 64, 17
13, 159720, Note_on_c, 11, 64, 127
13, 159720, Note_on_c, 11, 68, 127
13, 159720, Note_on_c, 11, 71, 122
13, 159795, Note_off_c, 11, 52, 17
13, 159956, Note_off_c, 11, 64, 17
13, 159956, Note_off_c, 11, 71, 17
13, 159956, Note_off_c, 11, 68, 17
13, 159960, Note_on_c, 11, 52, 127
13, 159960, Note_on_c, 11, 63, 126
13, 159960, Note_on_c, 11, 66, 126
13, 159960, Note_on_c, 11, 71, 126
13, 159964, Note_off_c, 11, 71, 17
13, 159964, Note_off_c, 11, 66, 17
13, 159964, Note_off_c, 11, 63, 17
13, 160038, Note_off_c, 11, 52, 17
13, 160080, Note_on_c, 11, 51, 127
13, 160080, Note_on_c, 11, 63, 127
13, 160080, Note_on_c, 11, 66, 127
13, 160080, Note_on_c, 11, 71, 127
13, 160233, Note_off_c, 11, 63, 17
13, 160237, Note_off_c, 11, 71, 17
13, 160241, Note_off_c, 11, 66, 17
13, 160249, Note_off_c, 11, 51, 17
13, 160320, Note_on_c, 11, 52, 127
13, 160320, Note_on_c, 11, 64, 127
13, 160320, Note_on_c, 11, 68, 127
13, 160320, Note_on_c, 11, 71, 114
13, 160549, Note_off_c, 11, 52, 17
13, 160613, Note_off_c, 11, 64, 17
13, 160615, Note_off_c, 11, 71, 17
13, 160628, Note_off_c, 11, 68, 17
13, 160800, Note_on_c, 11, 52, 127
13, 160800, Note_on_c, 11, 64, 127
13, 160800, Note_on_c, 11, 68, 127
13, 160800, Note_on_c, 11, 71, 127
13, 161058, Note_off_c, 11, 64, 17
13, 161059, Note_off_c, 11, 68, 17
13, 161066, Note_off_c, 11, 71, 17
13, 161079, Note_off_c, 11, 52, 17
13, 161280, Note_on_c, 11, 45, 127
13, 161280, Note_on_c, 11, 64, 127
13, 161280, Note_on_c, 11, 68, 127
13, 161280, Note_on_c, 11, 71, 125
13, 161516, Note_off_c, 11, 71, 17
13, 161516, Note_off_c, 11, 64, 17
13, 161516, Note_off_c, 11, 68, 17
13, 161520, Note_on_c, 11, 64, 92
13, 161520, Note_on_c, 11, 68, 92
13, 161520, Note_on_c, 11, 71, 92
13, 161524, Note_off_c, 11, 71, 17
13, 161524, Note_off_c, 11, 68, 17
13, 161524, Note_off_c, 11, 64, 17
13, 161640, Note_on_c, 11, 64, 127
13, 161640, Note_on_c, 11, 68, 127
13, 161640, Note_on_c, 11, 71, 122
13, 161715, Note_off_c, 11, 45, 17
13, 161876, Note_off_c, 11, 71, 17
13, 161876, Note_off_c, 11, 64, 17
13, 161876, Note_off_c, 11, 68, 17
13, 161880, Note_on_c, 11, 45, 127
13, 161880, Note_on_c, 11, 63, 126
13, 161880, Note_on_c, 11, 66, 126
13, 161880, Note_on_c, 11, 71, 126
13, 161884, Note_off_c, 11, 71, 17
13, 161884, Note_off_c, 11, 66, 17
13, 161884, Note_off_c, 11, 63, 17
13, 161958, Note_off_c, 11, 45, 17
13, 162000, Note_on_c, 11, 44, 127
13, 162000, Note_on_c, 11, 63, 127
13, 162000, Note_on_c, 11, 66, 127
13, 162000, Note_on_c, 11, 71, 127
13, 162153, Note_off_c, 11, 63, 17
13, 162157, Note_off_c, 11, 71, 17
13, 162161, Note_off_c, 11, 66, 17
13, 162169, Note_off_c, 11, 44, 17
13, 162240, Note_on_c, 11, 45, 127
13, 162240, Note_on_c, 11, 64, 127
13, 162240, Note_on_c, 11, 68, 127
13, 162240, Note_on_c, 11, 71, 114
13, 162469, Note_off_c, 11, 45, 17
13, 162533, Note_off_c, 11, 64, 17
13, 162535, Note_off_c, 11, 71, 17
13, 162548, Note_off_c, 11, 68, 17
13, 162960, Note_on_c, 11, 45, 126
13, 162960, Note_on_c, 11, 64, 126
13, 162960, Note_on_c, 11, 68, 126
13, 162960, Note_on_c, 11, 71, 126
13, 162964, Note_off_c, 11, 71, 17
13, 162964, Note_off_c, 11, 64, 17
13, 162964, Note_off_c, 11, 45, 17
13, 162964, Note_off_c, 11, 68, 17
13, 163080, Note_on_c, 11, 45, 126
13, 163080, Note_on_c, 11, 64, 126
13, 163080, Note_on_c, 11, 68, 126
13, 163080, Note_on_c, 11, 71, 126
13, 163084, Note_off_c, 11, 71, 17
13, 163084, Note_off_c, 11, 64, 17
13, 163084, Note_off_c, 11, 45, 17
13, 163084, Note_off_c, 11, 68, 17
13, 163200, Note_on_c, 11, 45, 127
13, 163200, Note_on_c, 11, 64, 127
13, 163200, Note_on_c, 11, 68, 127
13, 163200, Note_on_c, 11, 71, 125
13, 163436, Note_off_c, 11, 71, 17
13, 163436, Note_off_c, 11, 68, 17
13, 163436, Note_off_c, 11, 64, 17
13, 163440, Note_on_c, 11, 64, 92
13, 163440, Note_on_c, 11, 68, 92
13, 163440, Note_on_c, 11, 71, 92
13, 163444, Note_off_c, 11, 71, 17
13, 163444, Note_off_c, 11, 68, 17
13, 163444, Note_off_c, 11, 64, 17
13, 163560, Note_on_c, 11, 64, 127
13, 163560, Note_on_c, 11, 68, 127
13, 163560, Note_on_c, 11, 71, 122
13, 163635, Note_off_c, 11, 45, 17
13, 163796, Note_off_c, 11, 64, 17
13, 163796, Note_off_c, 11, 71, 17
13, 163796, Note_off_c, 11, 68, 17
13, 163800, Note_on_c, 11, 45, 127
13, 163800, Note_on_c, 11, 63, 126
13, 163800, Note_on_c, 11, 66, 126
13, 163800, Note_on_c, 11, 71, 126
13, 163804, Note_off_c, 11, 71, 17
13, 163804, Note_off_c, 11, 66, 17
13, 163804, Note_off_c, 11, 63, 17
13, 163878, Note_off_c, 11, 45, 17
13, 163920, Note_on_c, 11, 44, 127
13, 163920, Note_on_c, 11, 63, 127
13, 163920, Note_on_c, 11, 66, 127
13, 163920, Note_on_c, 11, 71, 127
13, 164073, Note_off_c, 11, 63, 17
13, 164077, Note_off_c, 11, 71, 17
13, 164081, Note_off_c, 11, 66, 17
13, 164089, Note_off_c, 11, 44, 17
13, 164160, Note_on_c, 11, 45, 127
13, 164160, Note_on_c, 11, 64, 127
13, 164160, Note_on_c, 11, 68, 127
13, 164160, Note_on_c, 11, 71, 114
13, 164389, Note_off_c, 11, 45, 17
13, 164453, Note_off_c, 11, 64, 17
13, 164455, Note_off_c, 11, 71, 17
13, 164468, Note_off_c, 11, 68, 17
13, 164640, Note_on_c, 11, 45, 127
13, 164640, Note_on_c, 11, 64, 127
13, 164640, Note_on_c, 11, 68, 127
13, 164640, Note_on_c, 11, 71, 127
13, 164898, Note_off_c, 11, 64, 17
13, 164899, Note_off_c, 11, 68, 17
13, 164906, Note_off_c, 11, 71, 17
13, 164919, Note_off_c, 11, 45, 17
13, 165120, Note_on_c, 11, 49, 127
13, 165120, Note_on_c, 11, 64, 127
13, 165120, Note_on_c, 11, 68, 127
13, 165120, Note_on_c, 11, 73, 125
13, 165356, Note_off_c, 11, 64, 17
13, 165356, Note_off_c, 11, 73, 17
13, 165356, Note_off_c, 11, 68, 17
13, 165360, Note_on_c, 11, 64, 92
13, 165360, Note_on_c, 11, 68, 92
13, 165360, Note_on_c, 11, 73, 92
13, 165364, Note_off_c, 11, 73, 17
13, 165364, Note_off_c, 11, 68, 17
13, 165364, Note_off_c, 11, 64, 17
13, 165480, Note_on_c, 11, 64, 127
13, 165480, Note_on_c, 11, 68, 127
13, 165480, Note_on_c, 11, 73, 122
13, 165555, Note_off_c, 11, 49, 17
13, 165716, Note_off_c, 11, 73, 17
13, 165716, Note_off_c, 11, 64, 17
13, 165716, Note_off_c, 11, 68, 17
13, 165720, Note_on_c, 11, 49, 127
13, 165720, Note_on_c, 11, 64, 126
13, 165720, Note_on_c, 11, 68, 126
13, 165720, Note_on_c, 11, 73, 126
13, 165724, Note_off_c, 11, 73, 17
13, 165724, Note_off_c, 11, 68, 17
13, 165724, Note_off_c, 11, 64, 17
13, 165798, Note_off_c, 11, 49, 17
13, 165840, Note_on_c, 11, 49, 127
13, 165840, Note_on_c, 11, 64, 127
13, 165840, Note_on_c, 11, 68, 127
13, 165840, Note_on_c, 11, 73, 127
13, 165993, Note_off_c, 11, 64, 17
13, 165997, Note_off_c, 11, 73, 17
13, 166001, Note_off_c, 11, 68, 17
13, 166009, Note_off_c, 11, 49, 17
13, 166080, Note_on_c, 11, 49, 127
13, 166080, Note_on_c, 11, 64, 127
13, 166080, Note_on_c, 11, 68, 127
13, 166080, Note_on_c, 11, 73, 114
13, 166309, Note_off_c, 11, 49, 17
13, 166373, Note_off_c, 11, 64, 17
13, 166375, Note_off_c, 11, 73, 17
13, 166388, Note_off_c, 11, 68, 17
13, 166560, Note_on_c, 11, 64, 126
13, 166560, Note_on_c, 11, 68, 126
13, 166560, Note_on_c, 11, 73, 126
13, 166564, Note_off_c, 11, 73, 17
13, 166564, Note_off_c, 11, 64, 17
13, 166564, Note_off_c, 11, 68, 17
13, 166800, Note_on_c, 11, 64, 126
13, 166800, Note_on_c, 11, 68, 126
13, 166800, Note_on_c, 11, 73, 126
13, 166804, Note_off_c, 11, 73, 17
13, 166804, Note_off_c, 11, 64, 17
13, 166804, Note_off_c, 11, 68, 17
13, 166920, Note_on_c, 11, 64, 126
13, 166920, Note_on_c, 11, 68, 126
13, 166920, Note_on_c, 11, 73, 126
13, 166924, Note_off_c, 11, 73, 17
13, 166924, Note_off_c, 11, 68, 17
13, 166924, Note_off_c, 11, 64, 17
13, 167040, Note_on_c, 11, 47, 127
13, 167040, Note_on_c, 11, 63, 127
13, 167040, Note_on_c, 11, 66, 127
13, 167040, Note_on_c, 11, 71, 125
13, 167276, Note_off_c, 11, 71, 17
13, 167276, Note_off_c, 11, 66, 17
13, 167276, Note_off_c, 11, 63, 17
13, 167280, Note_on_c, 11, 63, 92
13, 167280, Note_on_c, 11, 66, 92
13, 167280, Note_on_c, 11, 71, 92
13, 167284, Note_off_c, 11, 71, 17
13, 167284, Note_off_c, 11, 66, 17
13, 167284, Note_off_c, 11, 63, 17
13, 167400, Note_on_c, 11, 63, 127
13, 167400, Note_on_c, 11, 66, 127
13, 167400, Note_on_c, 11, 71, 122
13, 167475, Note_off_c, 11, 47, 17
13, 167636, Note_off_c, 11, 63, 17
13, 167636, Note_off_c, 11, 71, 17
13, 167636, Note_off_c, 11, 66, 17
13, 167640, Note_on_c, 11, 47, 127
13, 167640, Note_on_c, 11, 63, 126
13, 167640, Note_on_c, 11, 66, 126
13, 167640, Note_on_c, 11, 71, 126
13, 167644, Note_off_c, 11, 71, 17
13, 167644, Note_off_c, 11, 63, 17
13, 167644, Note_off_c, 11, 66, 17
13, 167718, Note_off_c, 11, 47, 17
13, 167760, Note_on_c, 11, 47, 127
13, 167760, Note_on_c, 11, 63, 127
13, 167760, Note_on_c, 11, 66, 127
13, 167760, Note_on_c, 11, 71, 127
13, 167913, Note_off_c, 11, 63, 17
13, 167917, Note_off_c, 11, 71, 17
13, 167921, Note_off_c, 11, 66, 17
13, 167929, Note_off_c, 11, 47, 17
13, 168000, Note_on_c, 11, 47, 127
13, 168000, Note_on_c, 11, 64, 127
13, 168000, Note_on_c, 11, 68, 127
13, 168000, Note_on_c, 11, 71, 114
13, 168229, Note_off_c, 11, 47, 17
13, 168293, Note_off_c, 11, 64, 17
13, 168295, Note_off_c, 11, 71, 17
13, 168308, Note_off_c, 11, 68, 17
13, 168480, Note_on_c, 11, 63, 126
13, 168480, Note_on_c, 11, 66, 126
13, 168480, Note_on_c, 11, 71, 126
13, 168836, Note_off_c, 11, 63, 17
13, 168836, Note_off_c, 11, 71, 17
13, 168836, Note_off_c, 11, 66, 17
13, 168840, Note_on_c, 11, 63, 126
13, 168840, Note_on_c, 11, 66, 126
13, 168840, Note_on_c, 11, 71, 126
13, 168844, Note_off_c, 11, 71, 17
13, 168844, Note_off_c, 11, 66, 17
13, 168844, Note_off_c, 11, 63, 17
13, 168960, Note_on_c, 11, 45, 127
13, 168960, Note_on_c, 11, 64, 127
13, 168960, Note_on_c, 11, 68, 127
13, 168960, Note_on_c, 11, 71, 125
13, 169196, Note_off_c, 11, 68, 17
13, 169196, Note_off_c, 11, 64, 17
13, 169196, Note_off_c, 11, 71, 17
13, 169200, Note_on_c, 11, 64, 92
13, 169200, Note_on_c, 11, 68, 92
13, 169200, Note_on_c, 11, 71, 92
13, 169204, Note_off_c, 11, 71, 17
13, 169204, Note_off_c, 11, 68, 17
13, 169204, Note_off_c, 11, 64, 17
13, 169320, Note_on_c, 11, 64, 127
13, 169320, Note_on_c, 11, 68, 127
13, 169320, Note_on_c, 11, 71, 122
13, 169395, Note_off_c, 11, 45, 17
13, 169556, Note_off_c, 11, 68, 17
13, 169556, Note_off_c, 11, 71, 17
13, 169556, Note_off_c, 11, 64, 17
13, 169560, Note_on_c, 11, 45, 127
13, 169560, Note_on_c, 11, 63, 126
13, 169560, Note_on_c, 11, 66, 126
13, 169560, Note_on_c, 11, 71, 126
13, 169564, Note_off_c, 11, 71, 17
13, 169564, Note_off_c, 11, 66, 17
13, 169564, Note_off_c, 11, 63, 17
13, 169638, Note_off_c, 11, 45, 17
13, 169680, Note_on_c, 11, 44, 127
13, 169680, Note_on_c, 11, 63, 127
13, 169680, Note_on_c, 11, 66, 127
13, 169680, Note_on_c, 11, 71, 127
13, 169833, Note_off_c, 11, 63, 17
13, 169837, Note_off_c, 11, 71, 17
13, 169841, Note_off_c, 11, 66, 17
13, 169849, Note_off_c, 11, 44, 17
13, 169920, Note_on_c, 11, 45, 127
13, 169920, Note_on_c, 11, 64, 127
13, 169920, Note_on_c, 11, 68, 127
13, 169920, Note_on_c, 11, 71, 114
13, 170149, Note_off_c, 11, 45, 17
13, 170213, Note_off_c, 11, 64, 17
13, 170215, Note_off_c, 11, 71, 17
13, 170228, Note_off_c, 11, 68, 17
13, 170640, Note_on_c, 11, 45, 126
13, 170640, Note_on_c, 11, 64, 126
13, 170640, Note_on_c, 11, 68, 126
13, 170640, Note_on_c, 11, 71, 126
13, 170644, Note_off_c, 11, 71, 17
13, 170644, Note_off_c, 11, 68, 17
13, 170644, Note_off_c, 11, 64, 17
13, 170644, Note_off_c, 11, 45, 17
13, 170760, Note_on_c, 11, 45, 126
13, 170760, Note_on_c, 11, 64, 126
13, 170760, Note_on_c, 11, 68, 126
13, 170760, Note_on_c, 11, 71, 126
13, 170764, Note_off_c, 11, 71, 17
13, 170764, Note_off_c, 11, 68, 17
13, 170764, Note_off_c, 11, 64, 17
13, 170764, Note_off_c, 11, 45, 17
13, 170880, Note_on_c, 11, 45, 127
13, 170880, Note_on_c, 11, 64, 127
13, 170880, Note_on_c, 11, 68, 127
13, 170880, Note_on_c, 11, 71, 125
13, 171116, Note_off_c, 11, 68, 17
13, 171116, Note_off_c, 11, 71, 17
13, 171116, Note_off_c, 11, 64, 17
13, 171120, Note_on_c, 11, 64, 92
13, 171120, Note_on_c, 11, 68, 92
13, 171120, Note_on_c, 11, 71, 92
13, 171124, Note_off_c, 11, 71, 17
13, 171124, Note_off_c, 11, 68, 17
13, 171124, Note_off_c, 11, 64, 17
13, 171240, Note_on_c, 11, 64, 127
13, 171240, Note_on_c, 11, 68, 127
13, 171240, Note_on_c, 11, 71, 122
13, 171315, Note_off_c, 11, 45, 17
13, 171476, Note_off_c, 11, 68, 17
13, 171476, Note_off_c, 11, 71, 17
13, 171476, Note_off_c, 11, 64, 17
13, 171480, Note_on_c, 11, 45, 127
13, 171480, Note_on_c, 11, 63, 126
13, 171480, Note_on_c, 11, 66, 126
13, 171480, Note_on_c, 11, 71, 126
13, 171484, Note_off_c, 11, 71, 17
13, 171484, Note_off_c, 11, 66, 17
13, 171484, Note_off_c, 11, 63, 17
13, 171558, Note_off_c, 11, 45, 17
13, 171600, Note_on_c, 11, 44, 127
13, 171600, Note_on_c, 11, 63, 127
13, 171600, Note_on_c, 11, 66, 127
13, 171600, Note_on_c, 11, 71, 127
13, 171753, Note_off_c, 11, 63, 17
13, 171757, Note_off_c, 11, 71, 17
13, 171761, Note_off_c, 11, 66, 17
13, 171769, Note_off_c, 11, 44, 17
13, 171840, Note_on_c, 11, 45, 127
13, 171840, Note_on_c, 11, 64, 127
13, 171840, Note_on_c, 11, 68, 127
13, 171840, Note_on_c, 11, 71, 114
13, 172069, Note_off_c, 11, 45, 17
13, 172133, Note_off_c, 11, 64, 17
13, 172135, Note_off_c, 11, 71, 17
13, 172148, Note_off_c, 11, 68, 17
13, 172320, Note_on_c, 11, 45, 127
13, 172320, Note_on_c, 11, 64, 127
13, 172320, Note_on_c, 11, 68, 127
13, 172320, Note_on_c, 11, 71, 127
13, 172578, Note_off_c, 11, 64, 17
13, 172579, Note_off_c, 11, 68, 17
13, 172586, Note_off_c, 11, 71, 17
13, 172599, Note_off_c, 11, 45, 17
13, 172800, Note_on_c, 11, 52, 127
13, 172800, Note_on_c, 11, 64, 127
13, 172800, Note_on_c, 11, 68, 127
13, 172800, Note_on_c, 11, 71, 125
13, 173036, Note_off_c, 11, 71, 17
13, 173036, Note_off_c, 11, 68, 17
13, 173036, Note_off_c, 11, 64, 17
13, 173040, Note_on_c, 11, 64, 92
13, 173040, Note_on_c, 11, 68, 92
13, 173040, Note_on_c, 11, 71, 92
13, 173044, Note_off_c, 11, 71, 17
13, 173044, Note_off_c, 11, 68, 17
13, 173044, Note_off_c, 11, 64, 17
13, 173160, Note_on_c, 11, 64, 127
13, 173160, Note_on_c, 11, 68, 127
13, 173160, Note_on_c, 11, 71, 122
13, 173235, Note_off_c, 11, 52, 17
13, 173396, Note_off_c, 11, 64, 17
13, 173396, Note_off_c, 11, 68, 17
13, 173396, Note_off_c, 11, 71, 17
13, 173400, Note_on_c, 11, 52, 127
13, 173400, Note_on_c, 11, 63, 126
13, 173400, Note_on_c, 11, 66, 126
13, 173400, Note_on_c, 11, 71, 126
13, 173404, Note_off_c, 11, 71, 17
13, 173404, Note_off_c, 11, 66, 17
13, 173404, Note_off_c, 11, 63, 17
13, 173478, Note_off_c, 11, 52, 17
13, 173520, Note_on_c, 11, 51, 127
13, 173520, Note_on_c, 11, 63, 127
13, 173520, Note_on_c, 11, 66, 127
13, 173520, Note_on_c, 11, 71, 127
13, 173673, Note_off_c, 11, 63, 17
13, 173677, Note_off_c, 11, 71, 17
13, 173681, Note_off_c, 11, 66, 17
13, 173689, Note_off_c, 11, 51, 17
13, 173760, Note_on_c, 11, 52, 127
13, 173760, Note_on_c, 11, 64, 127
13, 173760, Note_on_c, 11, 68, 127
13, 173760, Note_on_c, 11, 71, 114
13, 173989, Note_off_c, 11, 52, 17
13, 174053, Note_off_c, 11, 64, 17
13, 174055, Note_off_c, 11, 71, 17
13, 174068, Note_off_c, 11, 68, 17
13, 174480, Note_on_c, 11, 52, 126
13, 174480, Note_on_c, 11, 64, 126
13, 174480, Note_on_c, 11, 68, 126
13, 174480, Note_on_c, 11, 71, 126
13, 174484, Note_off_c, 11, 71, 17
13, 174484, Note_off_c, 11, 68, 17
13, 174484, Note_off_c, 11, 64, 17
13, 174484, Note_off_c, 11, 52, 17
13, 174600, Note_on_c, 11, 52, 126
13, 174600, Note_on_c, 11, 64, 126
13, 174600, Note_on_c, 11, 68, 126
13, 174600, Note_on_c, 11, 71, 126
13, 174604, Note_off_c, 11, 71, 17
13, 174604, Note_off_c, 11, 64, 17
13, 174604, Note_off_c, 11, 52, 17
13, 174604, Note_off_c, 11, 68, 17
13, 174720, Note_on_c, 11, 52, 127
13, 174720, Note_on_c, 11, 64, 127
13, 174720, Note_on_c, 11, 68, 127
13, 174720, Note_on_c, 11, 71, 125
13, 174956, Note_off_c, 11, 71, 17
13, 174956, Note_off_c, 11, 68, 17
13, 174956, Note_off_c, 11, 64, 17
13, 174960, Note_on_c, 11, 64, 92
13, 174960, Note_on_c, 11, 68, 92
13, 174960, Note_on_c, 11, 71, 92
13, 174964, Note_off_c, 11, 71, 17
13, 174964, Note_off_c, 11, 68, 17
13, 174964, Note_off_c, 11, 64, 17
13, 175080, Note_on_c, 11, 64, 127
13, 175080, Note_on_c, 11, 68, 127
13, 175080, Note_on_c, 11, 71, 122
13, 175155, Note_off_c, 11, 52, 17
13, 175316, Note_off_c, 11, 68, 17
13, 175316, Note_off_c, 11, 64, 17
13, 175316, Note_off_c, 11, 71, 17
13, 175320, Note_on_c, 11, 52, 127
13, 175320, Note_on_c, 11, 63, 126
13, 175320, Note_on_c, 11, 66, 126
13, 175320, Note_on_c, 11, 71, 126
13, 175324, Note_off_c, 11, 63, 17
13, 175324, Note_off_c, 11, 71, 17
13, 175324, Note_off_c, 11, 66, 17
13, 175398, Note_off_c, 11, 52, 17
13, 175440, Note_on_c, 11, 51, 127
13, 175440, Note_on_c, 11, 63, 127
13, 175440, Note_on_c, 11, 66, 127
13, 175440, Note_on_c, 11, 71, 127
13, 175593, Note_off_c, 11, 63, 17
13, 175597, Note_off_c, 11, 71, 17
13, 175601, Note_off_c, 11, 66, 17
13, 175609, Note_off_c, 11, 51, 17
13, 175680, Note_on_c, 11, 52, 127
13, 175680, Note_on_c, 11, 64, 127
13, 175680, Note_on_c, 11, 68, 127
13, 175680, Note_on_c, 11, 71, 114
13, 175909, Note_off_c, 11, 52, 17
13, 175973, Note_off_c, 11, 64, 17
13, 175975, Note_off_c, 11, 71, 17
13, 175988, Note_off_c, 11, 68, 17
13, 176160, Note_on_c, 11, 52, 127
13, 176160, Note_on_c, 11, 64, 127
13, 176160, Note_on_c, 11, 68, 127
13, 176160, Note_on_c, 11, 71, 127
13, 176418, Note_off_c, 11, 64, 17
13, 176419, Note_off_c, 11, 68, 17
13, 176426, Note_off_c, 11, 71, 17
13, 176439, Note_off_c, 11, 52, 17
13, 176640, Note_on_c, 11, 45, 127
13, 176640, Note_on_c, 11, 64, 127
13, 176640, Note_on_c, 11, 68, 127
13, 176640, Note_on_c, 11, 71, 125
13, 176876, Note_off_c, 11, 71, 17
13, 176876, Note_off_c, 11, 68, 17
13, 176876, Note_off_c, 11, 64, 17
13, 176880, Note_on_c, 11, 64, 92
13, 176880, Note_on_c, 11, 68, 92
13, 176880, Note_on_c, 11, 71, 92
13, 176884, Note_off_c, 11, 71, 17
13, 176884, Note_off_c, 11, 68, 17
13, 176884, Note_off_c, 11, 64, 17
13, 177000, Note_on_c, 11, 64, 127
13, 177000, Note_on_c, 11, 68, 127
13, 177000, Note_on_c, 11, 71, 122
13, 177075, Note_off_c, 11, 45, 17
13, 177236, Note_off_c, 11, 64, 17
13, 177236, Note_off_c, 11, 68, 17
13, 177236, Note_off_c, 11, 71, 17
13, 177240, Note_on_c, 11, 45, 127
13, 177240, Note_on_c, 11, 63, 126
13, 177240, Note_on_c, 11, 66, 126
13, 177240, Note_on_c, 11, 71, 126
13, 177244, Note_off_c, 11, 71, 17
13, 177244, Note_off_c, 11, 66, 17
13, 177244, Note_off_c, 11, 63, 17
13, 177318, Note_off_c, 11, 45, 17
13, 177360, Note_on_c, 11, 44, 127
13, 177360, Note_on_c, 11, 63, 127
13, 177360, Note_on_c, 11, 66, 127
13, 177360, Note_on_c, 11, 71, 127
13, 177513, Note_off_c, 11, 63, 17
13, 177517, Note_off_c, 11, 71, 17
13, 177521, Note_off_c, 11, 66, 17
13, 177529, Note_off_c, 11, 44, 17
13, 177600, Note_on_c, 11, 45, 127
13, 177600, Note_on_c, 11, 64, 127
13, 177600, Note_on_c, 11, 68, 127
13, 177600, Note_on_c, 11, 71, 114
13, 177829, Note_off_c, 11, 45, 17
13, 177893, Note_off_c, 11, 64, 17
13, 177895, Note_off_c, 11, 71, 17
13, 177908, Note_off_c, 11, 68, 17
13, 178320, Note_on_c, 11, 45, 126
13, 178320, Note_on_c, 11, 64, 126
13, 178320, Note_on_c, 11, 68, 126
13, 178320, Note_on_c, 11, 71, 126
13, 178324, Note_off_c, 11, 71, 17
13, 178324, Note_off_c, 11, 68, 17
13, 178324, Note_off_c, 11, 64, 17
13, 178324, Note_off_c, 11, 45, 17
13, 178440, Note_on_c, 11, 45, 126
13, 178440, Note_on_c, 11, 64, 126
13, 178440, Note_on_c, 11, 68, 126
13, 178440, Note_on_c, 11, 71, 126
13, 178444, Note_off_c, 11, 71, 17
13, 178444, Note_off_c, 11, 64, 17
13, 178444, Note_off_c, 11, 45, 17
13, 178444, Note_off_c, 11, 68, 17
13, 178560, Note_on_c, 11, 45, 127
13, 178560, Note_on_c, 11, 64, 127
13, 178560, Note_on_c, 11, 68, 127
13, 178560, Note_on_c, 11, 71, 125
13, 178796, Note_off_c, 11, 71, 17
13, 178796, Note_off_c, 11, 68, 17
13, 178796, Note_off_c, 11, 64, 17
13, 178800, Note_on_c, 11, 64, 92
13, 178800, Note_on_c, 11, 68, 92
13, 178800, Note_on_c, 11, 71, 92
13, 178804, Note_off_c, 11, 71, 17
13, 178804, Note_off_c, 11, 68, 17
13, 178804, Note_off_c, 11, 64, 17
13, 178920, Note_on_c, 11, 64, 127
13, 178920, Note_on_c, 11, 68, 127
13, 178920, Note_on_c, 11, 71, 122
13, 178995, Note_off_c, 11, 45, 17
13, 179156, Note_off_c, 11, 71, 17
13, 179156, Note_off_c, 11, 64, 17
13, 179156, Note_off_c, 11, 68, 17
13, 179160, Note_on_c, 11, 45, 127
13, 179160, Note_on_c, 11, 63, 126
13, 179160, Note_on_c, 11, 66, 126
13, 179160, Note_on_c, 11, 71, 126
13, 179164, Note_off_c, 11, 71, 17
13, 179164, Note_off_c, 11, 66, 17
13, 179164, Note_off_c, 11, 63, 17
13, 179238, Note_off_c, 11, 45, 17
13, 179280, Note_on_c, 11, 44, 127
13, 179280, Note_on_c, 11, 63, 127
13, 179280, Note_on_c, 11, 66, 127
13, 179280, Note_on_c, 11, 71, 127
13, 179433, Note_off_c, 11, 63, 17
13, 179437, Note_off_c, 11, 71, 17
13, 179441, Note_off_c, 11, 66, 17
13, 179449, Note_off_c, 11, 44, 17
13, 179520, Note_on_c, 11, 45, 127
13, 179520, Note_on_c, 11, 64, 127
13, 179520, Note_on_c, 11, 68, 127
13, 179520, Note_on_c, 11, 71, 114
13, 179749, Note_off_c, 11, 45, 17
13, 179813, Note_off_c, 11, 64, 17
13, 179815, Note_off_c, 11, 71, 17
13, 179828, Note_off_c, 11, 68, 17
13, 180000, Note_on_c, 11, 45, 127
13, 180000, Note_on_c, 11, 64, 127
13, 180000, Note_on_c, 11, 68, 127
13, 180000, Note_on_c, 11, 71, 127
13, 180258, Note_off_c, 11, 64, 17
13, 180259, Note_off_c, 11, 68, 17
13, 180266, Note_off_c, 11, 71, 17
13, 180279, Note_off_c, 11, 45, 17
13, 180480, Note_on_c, 11, 49, 127
13, 180480, Note_on_c, 11, 64, 127
13, 180480, Note_on_c, 11, 68, 127
13, 180480, Note_on_c, 11, 73, 125
13, 180716, Note_off_c, 11, 73, 17
13, 180716, Note_off_c, 11, 68, 17
13, 180716, Note_off_c, 11, 64, 17
13, 180720, Note_on_c, 11, 64, 92
13, 180720, Note_on_c, 11, 68, 92
13, 180720, Note_on_c, 11, 73, 92
13, 180724, Note_off_c, 11, 73, 17
13, 180724, Note_off_c, 11, 68, 17
13, 180724, Note_off_c, 11, 64, 17
13, 180840, Note_on_c, 11, 64, 127
13, 180840, Note_on_c, 11, 68, 127
13, 180840, Note_on_c, 11, 73, 122
13, 180915, Note_off_c, 11, 49, 17
13, 181076, Note_off_c, 11, 64, 17
13, 181076, Note_off_c, 11, 68, 17
13, 181076, Note_off_c, 11, 73, 17
13, 181080, Note_on_c, 11, 49, 127
13, 181080, Note_on_c, 11, 64, 126
13, 181080, Note_on_c, 11, 68, 126
13, 181080, Note_on_c, 11, 73, 126
13, 181084, Note_off_c, 11, 73, 17
13, 181084, Note_off_c, 11, 68, 17
13, 181084, Note_off_c, 11, 64, 17
13, 181158, Note_off_c, 11, 49, 17
13, 181200, Note_on_c, 11, 49, 127
13, 181200, Note_on_c, 11, 64, 127
13, 181200, Note_on_c, 11, 68, 127
13, 181200, Note_on_c, 11, 73, 127
13, 181353, Note_off_c, 11, 64, 17
13, 181357, Note_off_c, 11, 73, 17
13, 181361, Note_off_c, 11, 68, 17
13, 181369, Note_off_c, 11, 49, 17
13, 181440, Note_on_c, 11, 49, 127
13, 181440, Note_on_c, 11, 64, 127
13, 181440, Note_on_c, 11, 68, 127
13, 181440, Note_on_c, 11, 73, 114
13, 181669, Note_off_c, 11, 49, 17
13, 181733, Note_off_c, 11, 64, 17
13, 181735, Note_off_c, 11, 73, 17
13, 181748, Note_off_c, 11, 68, 17
13, 181920, Note_on_c, 11, 64, 126
13, 181920, Note_on_c, 11, 68, 126
13, 181920, Note_on_c, 11, 73, 126
13, 181924, Note_off_c, 11, 73, 17
13, 181924, Note_off_c, 11, 68, 17
13, 181924, Note_off_c, 11, 64, 17
13, 182160, Note_on_c, 11, 64, 126
13, 182160, Note_on_c, 11, 68, 126
13, 182160, Note_on_c, 11, 73, 126
13, 182164, Note_off_c, 11, 73, 17
13, 182164, Note_off_c, 11, 68, 17
13, 182164, Note_off_c, 11, 64, 17
13, 182280, Note_on_c, 11, 64, 126
13, 182280, Note_on_c, 11, 68, 126
13, 182280, Note_on_c, 11, 73, 126
13, 182284, Note_off_c, 11, 73, 17
13, 182284, Note_off_c, 11, 64, 17
13, 182284, Note_off_c, 11, 68, 17
13, 182400, Note_on_c, 11, 47, 127
13, 182400, Note_on_c, 11, 63, 127
13, 182400, Note_on_c, 11, 66, 127
13, 182400, Note_on_c, 11, 71, 125
13, 182636, Note_off_c, 11, 71, 17
13, 182636, Note_off_c, 11, 66, 17
13, 182636, Note_off_c, 11, 63, 17
13, 182640, Note_on_c, 11, 63, 92
13, 182640, Note_on_c, 11, 66, 92
13, 182640, Note_on_c, 11, 71, 92
13, 182644, Note_off_c, 11, 71, 17
13, 182644, Note_off_c, 11, 66, 17
13, 182644, Note_off_c, 11, 63, 17
13, 182760, Note_on_c, 11, 63, 127
13, 182760, Note_on_c, 11, 66, 127
13, 182760, Note_on_c, 11, 71, 122
13, 182835, Note_off_c, 11, 47, 17
13, 182996, Note_off_c, 11, 63, 17
13, 182996, Note_off_c, 11, 66, 17
13, 182996, Note_off_c, 11, 71, 17
13, 183000, Note_on_c, 11, 47, 127
13, 183000, Note_on_c, 11, 63, 126
13, 183000, Note_on_c, 11, 66, 126
13, 183000, Note_on_c, 11, 71, 126
13, 183004, Note_off_c, 11, 66, 17
13, 183004, Note_off_c, 11, 63, 17
13, 183004, Note_off_c, 11, 71, 17
13, 183078, Note_off_c, 11, 47, 17
13, 183120, Note_on_c, 11, 47, 127
13, 183120, Note_on_c, 11, 63, 127
13, 183120, Note_on_c, 11, 66, 127
13, 183120, Note_on_c, 11, 71, 127
13, 183273, Note_off_c, 11, 63, 17
13, 183277, Note_off_c, 11, 71, 17
13, 183281, Note_off_c, 11, 66, 17
13, 183289, Note_off_c, 11, 47, 17
13, 183360, Note_on_c, 11, 47, 127
13, 183360, Note_on_c, 11, 64, 127
13, 183360, Note_on_c, 11, 68, 127
13, 183360, Note_on_c, 11, 71, 114
13, 183589, Note_off_c, 11, 47, 17
13, 183653, Note_off_c, 11, 64, 17
13, 183655, Note_off_c, 11, 71, 17
13, 183668, Note_off_c, 11, 68, 17
13, 183840, Note_on_c, 11, 63, 126
13, 183840, Note_on_c, 11, 66, 126
13, 183840, Note_on_c, 11, 71, 126
13, 184196, Note_off_c, 11, 66, 17
13, 184196, Note_off_c, 11, 63, 17
13, 184196, Note_off_c, 11, 71, 17
13, 184200, Note_on_c, 11, 63, 126
13, 184200, Note_on_c, 11, 66, 126
13, 184200, Note_on_c, 11, 71, 126
13, 184204, Note_off_c, 11, 71, 17
13, 184204, Note_off_c, 11, 66, 17
13, 184204, Note_off_c, 11, 63, 17
13, 184320, Note_on_c, 11, 45, 127
13, 184320, Note_on_c, 11, 64, 127
13, 184320, Note_on_c, 11, 68, 127
13, 184320, Note_on_c, 11, 71, 125
13, 184556, Note_off_c, 11, 71, 17
13, 184556, Note_off_c, 11, 68, 17
13, 184556, Note_off_c, 11, 64, 17
13, 184560, Note_on_c, 11, 64, 92
13, 184560, Note_on_c, 11, 68, 92
13, 184560, Note_on_c, 11, 71, 92
13, 184564, Note_off_c, 11, 71, 17
13, 184564, Note_off_c, 11, 68, 17
13, 184564, Note_off_c, 11, 64, 17
13, 184680, Note_on_c, 11, 64, 127
13, 184680, Note_on_c, 11, 68, 127
13, 184680, Note_on_c, 11, 71, 122
13, 184755, Note_off_c, 11, 45, 17
13, 184916, Note_off_c, 11, 71, 17
13, 184916, Note_off_c, 11, 64, 17
13, 184916, Note_off_c, 11, 68, 17
13, 184920, Note_on_c, 11, 45, 127
13, 184920, Note_on_c, 11, 63, 126
13, 184920, Note_on_c, 11, 66, 126
13, 184920, Note_on_c, 11, 71, 126
13, 184924, Note_off_c, 11, 71, 17
13, 184924, Note_off_c, 11, 66, 17
13, 184924, Note_off_c, 11, 63, 17
13, 184998, Note_off_c, 11, 45, 17
13, 185040, Note_on_c, 11, 44, 127
13, 185040, Note_on_c, 11, 63, 127
13, 185040, Note_on_c, 11, 66, 127
13, 185040, Note_on_c, 11, 71, 127
13, 185193, Note_off_c, 11, 63, 17
13, 185197, Note_off_c, 11, 71, 17
13, 185201, Note_off_c, 11, 66, 17
13, 185209, Note_off_c, 11, 44, 17
13, 185280, Note_on_c, 11, 45, 127
13, 185280, Note_on_c, 11, 64, 127
13, 185280, Note_on_c, 11, 68, 127
13, 185280, Note_on_c, 11, 71, 114
13, 185509, Note_off_c, 11, 45, 17
13, 185573, Note_off_c, 11, 64, 17
13, 185575, Note_off_c, 11, 71, 17
13, 185588, Note_off_c, 11, 68, 17
13, 186000, Note_on_c, 11, 45, 126
13, 186000, Note_on_c, 11, 64, 126
13, 186000, Note_on_c, 11, 68, 126
13, 186000, Note_on_c, 11, 71, 126
13, 186004, Note_off_c, 11, 71, 17
13, 186004, Note_off_c, 11, 68, 17
13, 186004, Note_off_c, 11, 64, 17
13, 186004, Note_off_c, 11, 45, 17
13, 186120, Note_on_c, 11, 45, 126
13, 186120, Note_on_c, 11, 64, 126
13, 186120, Note_on_c, 11, 68, 126
13, 186120, Note_on_c, 11, 71, 126
13, 186124, Note_off_c, 11, 71, 17
13, 186124, Note_off_c, 11, 64, 17
13, 186124, Note_off_c, 11, 45, 17
13, 186124, Note_off_c, 11, 68, 17
13, 186240, Note_on_c, 11, 45, 127
13, 186240, Note_on_c, 11, 64, 127
13, 186240, Note_on_c, 11, 68, 127
13, 186240, Note_on_c, 11, 71, 125
13, 186476, Note_off_c, 11, 71, 17
13, 186476, Note_off_c, 11, 68, 17
13, 186476, Note_off_c, 11, 64, 17
13, 186480, Note_on_c, 11, 64, 92
13, 186480, Note_on_c, 11, 68, 92
13, 186480, Note_on_c, 11, 71, 92
13, 186484, Note_off_c, 11, 71, 17
13, 186484, Note_off_c, 11, 68, 17
13, 186484, Note_off_c, 11, 64, 17
13, 186600, Note_on_c, 11, 64, 127
13, 186600, Note_on_c, 11, 68, 127
13, 186600, Note_on_c, 11, 71, 122
13, 186675, Note_off_c, 11, 45, 17
13, 186836, Note_off_c, 11, 71, 17
13, 186836, Note_off_c, 11, 64, 17
13, 186836, Note_off_c, 11, 68, 17
13, 186840, Note_on_c, 11, 45, 127
13, 186840, Note_on_c, 11, 63, 126
13, 186840, Note_on_c, 11, 66, 126
13, 186840, Note_on_c, 11, 71, 126
13, 186844, Note_off_c, 11, 71, 17
13, 186844, Note_off_c, 11, 66, 17
13, 186844, Note_off_c, 11, 63, 17
13, 186918, Note_off_c, 11, 45, 17
13, 186960, Note_on_c, 11, 44, 127
13, 186960, Note_on_c, 11, 63, 127
13, 186960, Note_on_c, 11, 66, 127
13, 186960, Note_on_c, 11, 71, 127
13, 187113, Note_off_c, 11, 63, 17
13, 187117, Note_off_c, 11, 71, 17
13, 187121, Note_off_c, 11, 66, 17
13, 187129, Note_off_c, 11, 44, 17
13, 187200, Note_on_c, 11, 45, 127
13, 187200, Note_on_c, 11, 64, 127
13, 187200, Note_on_c, 11, 68, 127
13, 187200, Note_on_c, 11, 71, 114
13, 187429, Note_off_c, 11, 45, 17
13, 187493, Note_off_c, 11, 64, 17
13, 187495, Note_off_c, 11, 71, 17
13, 187508, Note_off_c, 11, 68, 17
13, 187680, Note_on_c, 11, 45, 127
13, 187680, Note_on_c, 11, 64, 127
13, 187680, Note_on_c, 11, 68, 127
13, 187680, Note_on_c, 11, 71, 127
13, 187938, Note_off_c, 11, 64, 17
13, 187939, Note_off_c, 11, 68, 17
13, 187946, Note_off_c, 11, 71, 17
13, 187959, Note_off_c, 11, 45, 17
13, 190565, Control_c, 11, 123, 0
13, 190925, Control_c, 11, 120, 0
13, 190932, End_track
14, 0, Start_track
14, 0, MIDI_port, 0
14, 0, Title_t, "Clav."
14, 274, Control_c, 12, 121, 0
14, 324, Program_c, 12, 7
14, 404, Control_c, 12, 7, 83
14, 436, Control_c, 12, 10, 98
14, 468, Control_c, 12, 11, 127
14, 500, Control_c, 12, 91, 82
14, 532, Control_c, 12, 93, 24
14, 564, Control_c, 12, 1, 0
14, 596, Control_c, 12, 64, 0
14, 628, Control_c, 12, 71, 64
14, 660, Control_c, 12, 72, 64
14, 692, Control_c, 12, 73, 64
14, 724, Control_c, 12, 74, 64
14, 756, Control_c, 12, 94, 0
14, 788, Pitch_bend_c, 12, 8192
14, 46104, Note_on_c, 12, 64, 127
14, 46104, Note_on_c, 12, 68, 127
14, 46104, Note_on_c, 12, 71, 125
14, 46340, Note_off_c, 12, 64, 17
14, 46340, Note_off_c, 12, 71, 17
14, 46340, Note_off_c, 12, 68, 17
14, 46344, Note_on_c, 12, 64, 92
14, 46344, Note_on_c, 12, 68, 92
14, 46344, Note_on_c, 12, 71, 92
14, 46348, Note_off_c, 12, 71, 17
14, 46348, Note_off_c, 12, 68, 17
14, 46348, Note_off_c, 12, 64, 17
14, 46464, Note_on_c, 12, 64, 127
14, 46464, Note_on_c, 12, 68, 127
14, 46464, Note_on_c, 12, 71, 122
14, 46700, Note_off_c, 12, 68, 17
14, 46700, Note_off_c, 12, 71, 17
14, 46700, Note_off_c, 12, 64, 17
14, 46704, Note_on_c, 12, 63, 126
14, 46704, Note_on_c, 12, 66, 126
14, 46704, Note_on_c, 12, 71, 126
14, 46708, Note_off_c, 12, 71, 17
14, 46708, Note_off_c, 12, 66, 17
14, 46708, Note_off_c, 12, 63, 17
14, 46824, Note_on_c, 12, 63, 127
14, 46824, Note_on_c, 12, 66, 127
14, 46824, Note_on_c, 12, 71, 127
14, 46977, Note_off_c, 12, 63, 17
14, 46981, Note_off_c, 12, 71, 17
14, 46985, Note_off_c, 12, 66, 17
14, 47064, Note_on_c, 12, 64, 127
14, 47064, Note_on_c, 12, 68, 127
14, 47064, Note_on_c, 12, 71, 114
14, 47357, Note_off_c, 12, 64, 17
14, 47359, Note_off_c, 12, 71, 17
14, 47372, Note_off_c, 12, 68, 17
14, 47784, Note_on_c, 12, 64, 126
14, 47784, Note_on_c, 12, 68, 126
14, 47784, Note_on_c, 12, 71, 126
14, 47788, Note_off_c, 12, 71, 17
14, 47788, Note_off_c, 12, 68, 17
14, 47788, Note_off_c, 12, 64, 17
14, 47904, Note_on_c, 12, 64, 126
14, 47904, Note_on_c, 12, 68, 126
14, 47904, Note_on_c, 12, 71, 126
14, 47908, Note_off_c, 12, 71, 17
14, 47908, Note_off_c, 12, 68, 17
14, 47908, Note_off_c, 12, 64, 17
14, 48024, Note_on_c, 12, 64, 127
14, 48024, Note_on_c, 12, 68, 127
14, 48024, Note_on_c, 12, 71, 125
14, 48260, Note_off_c, 12, 64, 17
14, 48260, Note_off_c, 12, 68, 17
14, 48260, Note_off_c, 12, 71, 17
14, 48264, Note_on_c, 12, 64, 92
14, 48264, Note_on_c, 12, 68, 92
14, 48264, Note_on_c, 12, 71, 92
14, 48268, Note_off_c, 12, 71, 17
14, 48268, Note_off_c, 12, 68, 17
14, 48268, Note_off_c, 12, 64, 17
14, 48384, Note_on_c, 12, 64, 127
14, 48384, Note_on_c, 12, 68, 127
14, 48384, Note_on_c, 12, 71, 122
14, 48620, Note_off_c, 12, 71, 17
14, 48620, Note_off_c, 12, 64, 17
14, 48620, Note_off_c, 12, 68, 17
14, 48624, Note_on_c, 12, 63, 126
14, 48624, Note_on_c, 12, 66, 126
14, 48624, Note_on_c, 12, 71, 126
14, 48628, Note_off_c, 12, 71, 17
14, 48628, Note_off_c, 12, 66, 17
14, 48628, Note_off_c, 12, 63, 17
14, 48744, Note_on_c, 12, 63, 127
14, 48744, Note_on_c, 12, 66, 127
14, 48744, Note_on_c, 12, 71, 127
14, 48897, Note_off_c, 12, 63, 17
14, 48901, Note_off_c, 12, 71, 17
14, 48905, Note_off_c, 12, 66, 17
14, 48984, Note_on_c, 12, 64, 127
14, 48984, Note_on_c, 12, 68, 127
14, 48984, Note_on_c, 12, 71, 114
14, 49277, Note_off_c, 12, 64, 17
14, 49279, Note_off_c, 12, 71, 17
14, 49292, Note_off_c, 12, 68, 17
14, 49464, Note_on_c, 12, 64, 127
14, 49464, Note_on_c, 12, 68, 127
14, 49464, Note_on_c, 12, 71, 127
14, 49722, Note_off_c, 12, 64, 17
14, 49723, Note_off_c, 12, 68, 17
14, 49730, Note_off_c, 12, 71, 17
14, 49944, Note_on_c, 12, 64, 127
14, 49944, Note_on_c, 12, 68, 127
14, 49944, Note_on_c, 12, 71, 125
14, 50180, Note_off_c, 12, 64, 17
14, 50180, Note_off_c, 12, 71, 17
14, 50180, Note_off_c, 12, 68, 17
14, 50184, Note_on_c, 12, 64, 92
14, 50184, Note_on_c, 12, 68, 92
14, 50184, Note_on_c, 12, 71, 92
14, 50188, Note_off_c, 12, 71, 17
14, 50188, Note_off_c, 12, 68, 17
14, 50188, Note_off_c, 12, 64, 17
14, 50304, Note_on_c, 12, 64, 127
14, 50304, Note_on_c, 12, 68, 127
14, 50304, Note_on_c, 12, 71, 122
14, 50540, Note_off_c, 12, 68, 17
14, 50540, Note_off_c, 12, 71, 17
14, 50540, Note_off_c, 12, 64, 17
14, 50544, Note_on_c, 12, 63, 126
14, 50544, Note_on_c, 12, 66, 126
14, 50544, Note_on_c, 12, 71, 126
14, 50548, Note_off_c, 12, 71, 17
14, 50548, Note_off_c, 12, 66, 17
14, 50548, Note_off_c, 12, 63, 17
14, 50664, Note_on_c, 12, 63, 127
14, 50664, Note_on_c, 12, 66, 127
14, 50664, Note_on_c, 12, 71, 127
14, 50817, Note_off_c, 12, 63, 17
14, 50821, Note_off_c, 12, 71, 17
14, 50825, Note_off_c, 12, 66, 17
14, 50904, Note_on_c, 12, 64, 127
14, 50904, Note_on_c, 12, 68, 127
14, 50904, Note_on_c, 12, 71, 114
14, 51197, Note_off_c, 12, 64, 17
14, 51199, Note_off_c, 12, 71, 17
14, 51212, Note_off_c, 12, 68, 17
14, 51624, Note_on_c, 12, 64, 126
14, 51624, Note_on_c, 12, 68, 126
14, 51624, Note_on_c, 12, 71, 126
14, 51628, Note_off_c, 12, 71, 17
14, 51628, Note_off_c, 12, 68, 17
14, 51628, Note_off_c, 12, 64, 17
14, 51744, Note_on_c, 12, 64, 126
14, 51744, Note_on_c, 12, 68, 126
14, 51744, Note_on_c, 12, 71, 126
14, 51748, Note_off_c, 12, 71, 17
14, 51748, Note_off_c, 12, 68, 17
14, 51748, Note_off_c, 12, 64, 17
14, 51864, Note_on_c, 12, 64, 127
14, 51864, Note_on_c, 12, 68, 127
14, 51864, Note_on_c, 12, 71, 125
14, 52100, Note_off_c, 12, 64, 17
14, 52100, Note_off_c, 12, 71, 17
14, 52100, Note_off_c, 12, 68, 17
14, 52104, Note_on_c, 12, 64, 92
14, 52104, Note_on_c, 12, 68, 92
14, 52104, Note_on_c, 12, 71, 92
14, 52108, Note_off_c, 12, 71, 17
14, 52108, Note_off_c, 12, 68, 17
14, 52108, Note_off_c, 12, 64, 17
14, 52224, Note_on_c, 12, 64, 127
14, 52224, Note_on_c, 12, 68, 127
14, 52224, Note_on_c, 12, 71, 122
14, 52460, Note_off_c, 12, 68, 17
14, 52460, Note_off_c, 12, 71, 17
14, 52460, Note_off_c, 12, 64, 17
14, 52464, Note_on_c, 12, 63, 126
14, 52464, Note_on_c, 12, 66, 126
14, 52464, Note_on_c, 12, 71, 126
14, 52468, Note_off_c, 12, 71, 17
14, 52468, Note_off_c, 12, 66, 17
14, 52468, Note_off_c, 12, 63, 17
14, 52584, Note_on_c, 12, 63, 127
14, 52584, Note_on_c, 12, 66, 127
14, 52584, Note_on_c, 12, 71, 127
14, 52737, Note_off_c, 12, 63, 17
14, 52741, Note_off_c, 12, 71, 17
14, 52745, Note_off_c, 12, 66, 17
14, 52824, Note_on_c, 12, 64, 127
14, 52824, Note_on_c, 12, 68, 127
14, 52824, Note_on_c, 12, 71, 114
14, 53117, Note_off_c, 12, 64, 17
14, 53119, Note_off_c, 12, 71, 17
14, 53132, Note_off_c, 12, 68, 17
14, 53304, Note_on_c, 12, 64, 127
14, 53304, Note_on_c, 12, 68, 127
14, 53304, Note_on_c, 12, 71, 127
14, 53562, Note_off_c, 12, 64, 17
14, 53563, Note_off_c, 12, 68, 17
14, 53570, Note_off_c, 12, 71, 17
14, 53784, Note_on_c, 12, 64, 127
14, 53784, Note_on_c, 12, 68, 127
14, 53784, Note_on_c, 12, 73, 125
14, 54020, Note_off_c, 12, 64, 17
14, 54020, Note_off_c, 12, 68, 17
14, 54020, Note_off_c, 12, 73, 17
14, 54024, Note_on_c, 12, 64, 92
14, 54024, Note_on_c, 12, 68, 92
14, 54024, Note_on_c, 12, 73, 92
14, 54028, Note_off_c, 12, 73, 17
14, 54028, Note_off_c, 12, 68, 17
14, 54028, Note_off_c, 12, 64, 17
14, 54144, Note_on_c, 12, 64, 127
14, 54144, Note_on_c, 12, 68, 127
14, 54144, Note_on_c, 12, 73, 122
14, 54380, Note_off_c, 12, 68, 17
14, 54380, Note_off_c, 12, 73, 17
14, 54380, Note_off_c, 12, 64, 17
14, 54384, Note_on_c, 12, 64, 126
14, 54384, Note_on_c, 12, 68, 126
14, 54384, Note_on_c, 12, 73, 126
14, 54388, Note_off_c, 12, 73, 17
14, 54388, Note_off_c, 12, 68, 17
14, 54388, Note_off_c, 12, 64, 17
14, 54504, Note_on_c, 12, 64, 127
14, 54504, Note_on_c, 12, 68, 127
14, 54504, Note_on_c, 12, 73, 127
14, 54657, Note_off_c, 12, 64, 17
14, 54661, Note_off_c, 12, 73, 17
14, 54665, Note_off_c, 12, 68, 17
14, 54744, Note_on_c, 12, 64, 127
14, 54744, Note_on_c, 12, 68, 127
14, 54744, Note_on_c, 12, 73, 114
14, 55037, Note_off_c, 12, 64, 17
14, 55039, Note_off_c, 12, 73, 17
14, 55052, Note_off_c, 12, 68, 17
14, 55224, Note_on_c, 12, 64, 126
14, 55224, Note_on_c, 12, 68, 126
14, 55224, Note_on_c, 12, 73, 126
14, 55228, Note_off_c, 12, 73, 17
14, 55228, Note_off_c, 12, 64, 17
14, 55228, Note_off_c, 12, 68, 17
14, 55464, Note_on_c, 12, 64, 126
14, 55464, Note_on_c, 12, 68, 126
14, 55464, Note_on_c, 12, 73, 126
14, 55468, Note_off_c, 12, 73, 17
14, 55468, Note_off_c, 12, 68, 17
14, 55468, Note_off_c, 12, 64, 17
14, 55584, Note_on_c, 12, 64, 126
14, 55584, Note_on_c, 12, 68, 126
14, 55584, Note_on_c, 12, 73, 126
14, 55588, Note_off_c, 12, 73, 17
14, 55588, Note_off_c, 12, 68, 17
14, 55588, Note_off_c, 12, 64, 17
14, 55704, Note_on_c, 12, 63, 127
14, 55704, Note_on_c, 12, 66, 127
14, 55704, Note_on_c, 12, 71, 125
14, 55940, Note_off_c, 12, 63, 17
14, 55940, Note_off_c, 12, 66, 17
14, 55940, Note_off_c, 12, 71, 17
14, 55944, Note_on_c, 12, 63, 92
14, 55944, Note_on_c, 12, 66, 92
14, 55944, Note_on_c, 12, 71, 92
14, 55948, Note_off_c, 12, 71, 17
14, 55948, Note_off_c, 12, 66, 17
14, 55948, Note_off_c, 12, 63, 17
14, 56064, Note_on_c, 12, 63, 127
14, 56064, Note_on_c, 12, 66, 127
14, 56064, Note_on_c, 12, 71, 122
14, 56300, Note_off_c, 12, 71, 17
14, 56300, Note_off_c, 12, 63, 17
14, 56300, Note_off_c, 12, 66, 17
14, 56304, Note_on_c, 12, 63, 126
14, 56304, Note_on_c, 12, 66, 126
14, 56304, Note_on_c, 12, 71, 126
14, 56308, Note_off_c, 12, 71, 17
14, 56308, Note_off_c, 12, 66, 17
14, 56308, Note_off_c, 12, 63, 17
14, 56424, Note_on_c, 12, 63, 127
14, 56424, Note_on_c, 12, 66, 127
14, 56424, Note_on_c, 12, 71, 127
14, 56577, Note_off_c, 12, 63, 17
14, 56581, Note_off_c, 12, 71, 17
14, 56585, Note_off_c, 12, 66, 17
14, 56664, Note_on_c, 12, 64, 127
14, 56664, Note_on_c, 12, 68, 127
14, 56664, Note_on_c, 12, 71, 114
14, 56957, Note_off_c, 12, 64, 17
14, 56959, Note_off_c, 12, 71, 17
14, 56972, Note_off_c, 12, 68, 17
14, 57144, Note_on_c, 12, 63, 126
14, 57144, Note_on_c, 12, 66, 126
14, 57144, Note_on_c, 12, 71, 126
14, 57380, Note_off_c, 12, 66, 17
14, 57380, Note_off_c, 12, 63, 17
14, 57380, Note_off_c, 12, 71, 17
14, 57384, Note_on_c, 12, 63, 126
14, 57384, Note_on_c, 12, 66, 126
14, 57384, Note_on_c, 12, 71, 126
14, 57388, Note_off_c, 12, 71, 17
14, 57388, Note_off_c, 12, 66, 17
14, 57388, Note_off_c, 12, 63, 17
14, 57504, Note_on_c, 12, 63, 126
14, 57504, Note_on_c, 12, 66, 126
14, 57504, Note_on_c, 12, 71, 126
14, 57508, Note_off_c, 12, 71, 17
14, 57508, Note_off_c, 12, 66, 17
14, 57508, Note_off_c, 12, 63, 17
14, 57624, Note_on_c, 12, 64, 127
14, 57624, Note_on_c, 12, 68, 127
14, 57624, Note_on_c, 12, 71, 125
14, 57860, Note_off_c, 12, 71, 17
14, 57860, Note_off_c, 12, 68, 17
14, 57860, Note_off_c, 12, 64, 17
14, 57864, Note_on_c, 12, 64, 92
14, 57864, Note_on_c, 12, 68, 92
14, 57864, Note_on_c, 12, 71, 92
14, 57868, Note_off_c, 12, 71, 17
14, 57868, Note_off_c, 12, 68, 17
14, 57868, Note_off_c, 12, 64, 17
14, 57984, Note_on_c, 12, 64, 127
14, 57984, Note_on_c, 12, 68, 127
14, 57984, Note_on_c, 12, 71, 122
14, 58220, Note_off_c, 12, 71, 17
14, 58220, Note_off_c, 12, 64, 17
14, 58220, Note_off_c, 12, 68, 17
14, 58224, Note_on_c, 12, 63, 126
14, 58224, Note_on_c, 12, 66, 126
14, 58224, Note_on_c, 12, 71, 126
14, 58228, Note_off_c, 12, 71, 17
14, 58228, Note_off_c, 12, 66, 17
14, 58228, Note_off_c, 12, 63, 17
14, 58344, Note_on_c, 12, 63, 127
14, 58344, Note_on_c, 12, 66, 127
14, 58344, Note_on_c, 12, 71, 127
14, 58497, Note_off_c, 12, 63, 17
14, 58501, Note_off_c, 12, 71, 17
14, 58505, Note_off_c, 12, 66, 17
14, 58584, Note_on_c, 12, 64, 127
14, 58584, Note_on_c, 12, 68, 127
14, 58584, Note_on_c, 12, 71, 114
14, 58877, Note_off_c, 12, 64, 17
14, 58879, Note_off_c, 12, 71, 17
14, 58892, Note_off_c, 12, 68, 17
14, 59304, Note_on_c, 12, 64, 126
14, 59304, Note_on_c, 12, 68, 126
14, 59304, Note_on_c, 12, 71, 126
14, 59308, Note_off_c, 12, 71, 17
14, 59308, Note_off_c, 12, 68, 17
14, 59308, Note_off_c, 12, 64, 17
14, 59424, Note_on_c, 12, 64, 126
14, 59424, Note_on_c, 12, 68, 126
14, 59424, Note_on_c, 12, 71, 126
14, 59428, Note_off_c, 12, 71, 17
14, 59428, Note_off_c, 12, 68, 17
14, 59428, Note_off_c, 12, 64, 17
14, 59544, Note_on_c, 12, 64, 127
14, 59544, Note_on_c, 12, 68, 127
14, 59544, Note_on_c, 12, 71, 125
14, 59780, Note_off_c, 12, 68, 17
14, 59780, Note_off_c, 12, 71, 17
14, 59780, Note_off_c, 12, 64, 17
14, 59784, Note_on_c, 12, 64, 92
14, 59784, Note_on_c, 12, 68, 92
14, 59784, Note_on_c, 12, 71, 92
14, 59788, Note_off_c, 12, 71, 17
14, 59788, Note_off_c, 12, 68, 17
14, 59788, Note_off_c, 12, 64, 17
14, 59904, Note_on_c, 12, 64, 127
14, 59904, Note_on_c, 12, 68, 127
14, 59904, Note_on_c, 12, 71, 122
14, 60140, Note_off_c, 12, 71, 17
14, 60140, Note_off_c, 12, 64, 17
14, 60140, Note_off_c, 12, 68, 17
14, 60144, Note_on_c, 12, 63, 126
14, 60144, Note_on_c, 12, 66, 126
14, 60144, Note_on_c, 12, 71, 126
14, 60148, Note_off_c, 12, 71, 17
14, 60148, Note_off_c, 12, 66, 17
14, 60148, Note_off_c, 12, 63, 17
14, 60264, Note_on_c, 12, 63, 127
14, 60264, Note_on_c, 12, 66, 127
14, 60264, Note_on_c, 12, 71, 127
14, 60417, Note_off_c, 12, 63, 17
14, 60421, Note_off_c, 12, 71, 17
14, 60425, Note_off_c, 12, 66, 17
14, 60504, Note_on_c, 12, 64, 127
14, 60504, Note_on_c, 12, 68, 127
14, 60504, Note_on_c, 12, 71, 114
14, 60797, Note_off_c, 12, 64, 17
14, 60799, Note_off_c, 12, 71, 17
14, 60812, Note_off_c, 12, 68, 17
14, 60984, Note_on_c, 12, 64, 127
14, 60984, Note_on_c, 12, 68, 127
14, 60984, Note_on_c, 12, 71, 127
14, 61242, Note_off_c, 12, 64, 17
14, 61243, Note_off_c, 12, 68, 17
14, 61250, Note_off_c, 12, 71, 17
14, 61464, Note_on_c, 12, 64, 127
14, 61464, Note_on_c, 12, 68, 127
14, 61464, Note_on_c, 12, 71, 125
14, 61700, Note_off_c, 12, 64, 17
14, 61700, Note_off_c, 12, 68, 17
14, 61700, Note_off_c, 12, 71, 17
14, 61704, Note_on_c, 12, 64, 92
14, 61704, Note_on_c, 12, 68, 92
14, 61704, Note_on_c, 12, 71, 92
14, 61708, Note_off_c, 12, 71, 17
14, 61708, Note_off_c, 12, 68, 17
14, 61708, Note_off_c, 12, 64, 17
14, 61824, Note_on_c, 12, 64, 127
14, 61824, Note_on_c, 12, 68, 127
14, 61824, Note_on_c, 12, 71, 122
14, 62060, Note_off_c, 12, 68, 17
14, 62060, Note_off_c, 12, 71, 17
14, 62060, Note_off_c, 12, 64, 17
14, 62064, Note_on_c, 12, 63, 126
14, 62064, Note_on_c, 12, 66, 126
14, 62064, Note_on_c, 12, 71, 126
14, 62068, Note_off_c, 12, 71, 17
14, 62068, Note_off_c, 12, 63, 17
14, 62068, Note_off_c, 12, 66, 17
14, 62184, Note_on_c, 12, 63, 127
14, 62184, Note_on_c, 12, 66, 127
14, 62184, Note_on_c, 12, 71, 127
14, 62337, Note_off_c, 12, 63, 17
14, 62341, Note_off_c, 12, 71, 17
14, 62345, Note_off_c, 12, 66, 17
14, 62424, Note_on_c, 12, 64, 127
14, 62424, Note_on_c, 12, 68, 127
14, 62424, Note_on_c, 12, 71, 114
14, 62717, Note_off_c, 12, 64, 17
14, 62719, Note_off_c, 12, 71, 17
14, 62732, Note_off_c, 12, 68, 17
14, 63144, Note_on_c, 12, 64, 126
14, 63144, Note_on_c, 12, 68, 126
14, 63144, Note_on_c, 12, 71, 126
14, 63148, Note_off_c, 12, 71, 17
14, 63148, Note_off_c, 12, 68, 17
14, 63148, Note_off_c, 12, 64, 17
14, 63264, Note_on_c, 12, 64, 126
14, 63264, Note_on_c, 12, 68, 126
14, 63264, Note_on_c, 12, 71, 126
14, 63268, Note_off_c, 12, 71, 17
14, 63268, Note_off_c, 12, 68, 17
14, 63268, Note_off_c, 12, 64, 17
14, 63384, Note_on_c, 12, 64, 127
14, 63384, Note_on_c, 12, 68, 127
14, 63384, Note_on_c, 12, 71, 125
14, 63620, Note_off_c, 12, 68, 17
14, 63620, Note_off_c, 12, 71, 17
14, 63620, Note_off_c, 12, 64, 17
14, 63624, Note_on_c, 12, 64, 92
14, 63624, Note_on_c, 12, 68, 92
14, 63624, Note_on_c, 12, 71, 92
14, 63628, Note_off_c, 12, 71, 17
14, 63628, Note_off_c, 12, 68, 17
14, 63628, Note_off_c, 12, 64, 17
14, 63744, Note_on_c, 12, 64, 127
14, 63744, Note_on_c, 12, 68, 127
14, 63744, Note_on_c, 12, 71, 122
14, 63980, Note_off_c, 12, 71, 17
14, 63980, Note_off_c, 12, 68, 17
14, 63980, Note_off_c, 12, 64, 17
14, 63984, Note_on_c, 12, 63, 126
14, 63984, Note_on_c, 12, 66, 126
14, 63984, Note_on_c, 12, 71, 126
14, 63988, Note_off_c, 12, 71, 17
14, 63988, Note_off_c, 12, 63, 17
14, 63988, Note_off_c, 12, 66, 17
14, 64104, Note_on_c, 12, 63, 127
14, 64104, Note_on_c, 12, 66, 127
14, 64104, Note_on_c, 12, 71, 127
14, 64257, Note_off_c, 12, 63, 17
14, 64261, Note_off_c, 12, 71, 17
14, 64265, Note_off_c, 12, 66, 17
14, 64344, Note_on_c, 12, 64, 127
14, 64344, Note_on_c, 12, 68, 127
14, 64344, Note_on_c, 12, 71, 114
14, 64637, Note_off_c, 12, 64, 17
14, 64639, Note_off_c, 12, 71, 17
14, 64652, Note_off_c, 12, 68, 17
14, 64824, Note_on_c, 12, 64, 127
14, 64824, Note_on_c, 12, 68, 127
14, 64824, Note_on_c, 12, 71, 127
14, 65082, Note_off_c, 12, 64, 17
14, 65083, Note_off_c, 12, 68, 17
14, 65090, Note_off_c, 12, 71, 17
14, 65304, Note_on_c, 12, 64, 127
14, 65304, Note_on_c, 12, 68, 127
14, 65304, Note_on_c, 12, 71, 125
14, 65540, Note_off_c, 12, 64, 17
14, 65540, Note_off_c, 12, 68, 17
14, 65540, Note_off_c, 12, 71, 17
14, 65544, Note_on_c, 12, 64, 92
14, 65544, Note_on_c, 12, 68, 92
14, 65544, Note_on_c, 12, 71, 92
14, 65548, Note_off_c, 12, 71, 17
14, 65548, Note_off_c, 12, 68, 17
14, 65548, Note_off_c, 12, 64, 17
14, 65664, Note_on_c, 12, 64, 127
14, 65664, Note_on_c, 12, 68, 127
14, 65664, Note_on_c, 12, 71, 122
14, 65900, Note_off_c, 12, 68, 17
14, 65900, Note_off_c, 12, 71, 17
14, 65900, Note_off_c, 12, 64, 17
14, 65904, Note_on_c, 12, 63, 126
14, 65904, Note_on_c, 12, 66, 126
14, 65904, Note_on_c, 12, 71, 126
14, 65908, Note_off_c, 12, 71, 17
14, 65908, Note_off_c, 12, 63, 17
14, 65908, Note_off_c, 12, 66, 17
14, 66024, Note_on_c, 12, 63, 127
14, 66024, Note_on_c, 12, 66, 127
14, 66024, Note_on_c, 12, 71, 127
14, 66177, Note_off_c, 12, 63, 17
14, 66181, Note_off_c, 12, 71, 17
14, 66185, Note_off_c, 12, 66, 17
14, 66264, Note_on_c, 12, 64, 127
14, 66264, Note_on_c, 12, 68, 127
14, 66264, Note_on_c, 12, 71, 114
14, 66557, Note_off_c, 12, 64, 17
14, 66559, Note_off_c, 12, 71, 17
14, 66572, Note_off_c, 12, 68, 17
14, 66984, Note_on_c, 12, 64, 126
14, 66984, Note_on_c, 12, 68, 126
14, 66984, Note_on_c, 12, 71, 126
14, 66988, Note_off_c, 12, 71, 17
14, 66988, Note_off_c, 12, 68, 17
14, 66988, Note_off_c, 12, 64, 17
14, 67104, Note_on_c, 12, 64, 126
14, 67104, Note_on_c, 12, 68, 126
14, 67104, Note_on_c, 12, 71, 126
14, 67108, Note_off_c, 12, 71, 17
14, 67108, Note_off_c, 12, 68, 17
14, 67108, Note_off_c, 12, 64, 17
14, 67224, Note_on_c, 12, 64, 127
14, 67224, Note_on_c, 12, 68, 127
14, 67224, Note_on_c, 12, 71, 125
14, 67460, Note_off_c, 12, 68, 17
14, 67460, Note_off_c, 12, 71, 17
14, 67460, Note_off_c, 12, 64, 17
14, 67464, Note_on_c, 12, 64, 92
14, 67464, Note_on_c, 12, 68, 92
14, 67464, Note_on_c, 12, 71, 92
14, 67468, Note_off_c, 12, 71, 17
14, 67468, Note_off_c, 12, 68, 17
14, 67468, Note_off_c, 12, 64, 17
14, 67584, Note_on_c, 12, 64, 127
14, 67584, Note_on_c, 12, 68, 127
14, 67584, Note_on_c, 12, 71, 122
14, 67820, Note_off_c, 12, 71, 17
14, 67820, Note_off_c, 12, 68, 17
14, 67820, Note_off_c, 12, 64, 17
14, 67824, Note_on_c, 12, 63, 126
14, 67824, Note_on_c, 12, 66, 126
14, 67824, Note_on_c, 12, 71, 126
14, 67828, Note_off_c, 12, 71, 17
14, 67828, Note_off_c, 12, 63, 17
14, 67828, Note_off_c, 12, 66, 17
14, 67944, Note_on_c, 12, 63, 127
14, 67944, Note_on_c, 12, 66, 127
14, 67944, Note_on_c, 12, 71, 127
14, 68097, Note_off_c, 12, 63, 17
14, 68101, Note_off_c, 12, 71, 17
14, 68105, Note_off_c, 12, 66, 17
14, 68184, Note_on_c, 12, 64, 127
14, 68184, Note_on_c, 12, 68, 127
14, 68184, Note_on_c, 12, 71, 114
14, 68477, Note_off_c, 12, 64, 17
14, 68479, Note_off_c, 12, 71, 17
14, 68492, Note_off_c, 12, 68, 17
14, 68664, Note_on_c, 12, 64, 127
14, 68664, Note_on_c, 12, 68, 127
14, 68664, Note_on_c, 12, 71, 127
14, 68922, Note_off_c, 12, 64, 17
14, 68923, Note_off_c, 12, 68, 17
14, 68930, Note_off_c, 12, 71, 17
14, 69144, Note_on_c, 12, 64, 127
14, 69144, Note_on_c, 12, 68, 127
14, 69144, Note_on_c, 12, 73, 125
14, 69380, Note_off_c, 12, 64, 17
14, 69380, Note_off_c, 12, 68, 17
14, 69380, Note_off_c, 12, 73, 17
14, 69384, Note_on_c, 12, 64, 92
14, 69384, Note_on_c, 12, 68, 92
14, 69384, Note_on_c, 12, 73, 92
14, 69388, Note_off_c, 12, 73, 17
14, 69388, Note_off_c, 12, 68, 17
14, 69388, Note_off_c, 12, 64, 17
14, 69504, Note_on_c, 12, 64, 127
14, 69504, Note_on_c, 12, 68, 127
14, 69504, Note_on_c, 12, 73, 122
14, 69740, Note_off_c, 12, 73, 17
14, 69740, Note_off_c, 12, 64, 17
14, 69740, Note_off_c, 12, 68, 17
14, 69744, Note_on_c, 12, 64, 126
14, 69744, Note_on_c, 12, 68, 126
14, 69744, Note_on_c, 12, 73, 126
14, 69748, Note_off_c, 12, 73, 17
14, 69748, Note_off_c, 12, 68, 17
14, 69748, Note_off_c, 12, 64, 17
14, 69864, Note_on_c, 12, 64, 127
14, 69864, Note_on_c, 12, 68, 127
14, 69864, Note_on_c, 12, 73, 127
14, 70017, Note_off_c, 12, 64, 17
14, 70021, Note_off_c, 12, 73, 17
14, 70025, Note_off_c, 12, 68, 17
14, 70104, Note_on_c, 12, 64, 127
14, 70104, Note_on_c, 12, 68, 127
14, 70104, Note_on_c, 12, 73, 114
14, 70397, Note_off_c, 12, 64, 17
14, 70399, Note_off_c, 12, 73, 17
14, 70412, Note_off_c, 12, 68, 17
14, 70584, Note_on_c, 12, 64, 126
14, 70584, Note_on_c, 12, 68, 126
14, 70584, Note_on_c, 12, 73, 126
14, 70588, Note_off_c, 12, 73, 17
14, 70588, Note_off_c, 12, 64, 17
14, 70588, Note_off_c, 12, 68, 17
14, 70824, Note_on_c, 12, 64, 126
14, 70824, Note_on_c, 12, 68, 126
14, 70824, Note_on_c, 12, 73, 126
14, 70828, Note_off_c, 12, 73, 17
14, 70828, Note_off_c, 12, 68, 17
14, 70828, Note_off_c, 12, 64, 17
14, 70944, Note_on_c, 12, 64, 126
14, 70944, Note_on_c, 12, 68, 126
14, 70944, Note_on_c, 12, 73, 126
14, 70948, Note_off_c, 12, 73, 17
14, 70948, Note_off_c, 12, 68, 17
14, 70948, Note_off_c, 12, 64, 17
14, 71064, Note_on_c, 12, 63, 127
14, 71064, Note_on_c, 12, 66, 127
14, 71064, Note_on_c, 12, 71, 125
14, 71300, Note_off_c, 12, 63, 17
14, 71300, Note_off_c, 12, 71, 17
14, 71300, Note_off_c, 12, 66, 17
14, 71304, Note_on_c, 12, 63, 92
14, 71304, Note_on_c, 12, 66, 92
14, 71304, Note_on_c, 12, 71, 92
14, 71308, Note_off_c, 12, 71, 17
14, 71308, Note_off_c, 12, 66, 17
14, 71308, Note_off_c, 12, 63, 17
14, 71424, Note_on_c, 12, 63, 127
14, 71424, Note_on_c, 12, 66, 127
14, 71424, Note_on_c, 12, 71, 122
14, 71660, Note_off_c, 12, 71, 17
14, 71660, Note_off_c, 12, 63, 17
14, 71660, Note_off_c, 12, 66, 17
14, 71664, Note_on_c, 12, 63, 126
14, 71664, Note_on_c, 12, 66, 126
14, 71664, Note_on_c, 12, 71, 126
14, 71668, Note_off_c, 12, 71, 17
14, 71668, Note_off_c, 12, 66, 17
14, 71668, Note_off_c, 12, 63, 17
14, 71784, Note_on_c, 12, 63, 127
14, 71784, Note_on_c, 12, 66, 127
14, 71784, Note_on_c, 12, 71, 127
14, 71937, Note_off_c, 12, 63, 17
14, 71941, Note_off_c, 12, 71, 17
14, 71945, Note_off_c, 12, 66, 17
14, 72024, Note_on_c, 12, 64, 127
14, 72024, Note_on_c, 12, 68, 127
14, 72024, Note_on_c, 12, 71, 114
14, 72317, Note_off_c, 12, 64, 17
14, 72319, Note_off_c, 12, 71, 17
14, 72332, Note_off_c, 12, 68, 17
14, 72504, Note_on_c, 12, 63, 126
14, 72504, Note_on_c, 12, 66, 126
14, 72504, Note_on_c, 12, 71, 126
14, 72740, Note_off_c, 12, 71, 17
14, 72740, Note_off_c, 12, 66, 17
14, 72740, Note_off_c, 12, 63, 17
14, 72744, Note_on_c, 12, 63, 126
14, 72744, Note_on_c, 12, 66, 126
14, 72744, Note_on_c, 12, 71, 126
14, 72748, Note_off_c, 12, 71, 17
14, 72748, Note_off_c, 12, 66, 17
14, 72748, Note_off_c, 12, 63, 17
14, 72864, Note_on_c, 12, 63, 126
14, 72864, Note_on_c, 12, 66, 126
14, 72864, Note_on_c, 12, 71, 126
14, 72868, Note_off_c, 12, 71, 17
14, 72868, Note_off_c, 12, 66, 17
14, 72868, Note_off_c, 12, 63, 17
14, 72984, Note_on_c, 12, 64, 127
14, 72984, Note_on_c, 12, 68, 127
14, 72984, Note_on_c, 12, 71, 125
14, 73220, Note_off_c, 12, 68, 17
14, 73220, Note_off_c, 12, 64, 17
14, 73220, Note_off_c, 12, 71, 17
14, 73224, Note_on_c, 12, 64, 92
14, 73224, Note_on_c, 12, 68, 92
14, 73224, Note_on_c, 12, 71, 92
14, 73228, Note_off_c, 12, 71, 17
14, 73228, Note_off_c, 12, 68, 17
14, 73228, Note_off_c, 12, 64, 17
14, 73344, Note_on_c, 12, 64, 127
14, 73344, Note_on_c, 12, 68, 127
14, 73344, Note_on_c, 12, 71, 122
14, 73580, Note_off_c, 12, 71, 17
14, 73580, Note_off_c, 12, 68, 17
14, 73580, Note_off_c, 12, 64, 17
14, 73584, Note_on_c, 12, 63, 126
14, 73584, Note_on_c, 12, 66, 126
14, 73584, Note_on_c, 12, 71, 126
14, 73588, Note_off_c, 12, 66, 17
14, 73588, Note_off_c, 12, 63, 17
14, 73588, Note_off_c, 12, 71, 17
14, 73704, Note_on_c, 12, 63, 127
14, 73704, Note_on_c, 12, 66, 127
14, 73704, Note_on_c, 12, 71, 127
14, 73857, Note_off_c, 12, 63, 17
14, 73861, Note_off_c, 12, 71, 17
14, 73865, Note_off_c, 12, 66, 17
14, 73944, Note_on_c, 12, 64, 127
14, 73944, Note_on_c, 12, 68, 127
14, 73944, Note_on_c, 12, 71, 114
14, 74237, Note_off_c, 12, 64, 17
14, 74239, Note_off_c, 12, 71, 17
14, 74252, Note_off_c, 12, 68, 17
14, 74664, Note_on_c, 12, 64, 126
14, 74664, Note_on_c, 12, 68, 126
14, 74664, Note_on_c, 12, 71, 126
14, 74668, Note_off_c, 12, 71, 17
14, 74668, Note_off_c, 12, 68, 17
14, 74668, Note_off_c, 12, 64, 17
14, 74784, Note_on_c, 12, 64, 126
14, 74784, Note_on_c, 12, 68, 126
14, 74784, Note_on_c, 12, 71, 126
14, 74788, Note_off_c, 12, 71, 17
14, 74788, Note_off_c, 12, 68, 17
14, 74788, Note_off_c, 12, 64, 17
14, 74904, Note_on_c, 12, 64, 127
14, 74904, Note_on_c, 12, 68, 127
14, 74904, Note_on_c, 12, 71, 125
14, 75140, Note_off_c, 12, 71, 17
14, 75140, Note_off_c, 12, 64, 17
14, 75140, Note_off_c, 12, 68, 17
14, 75144, Note_on_c, 12, 64, 92
14, 75144, Note_on_c, 12, 68, 92
14, 75144, Note_on_c, 12, 71, 92
14, 75148, Note_off_c, 12, 71, 17
14, 75148, Note_off_c, 12, 68, 17
14, 75148, Note_off_c, 12, 64, 17
14, 75264, Note_on_c, 12, 64, 127
14, 75264, Note_on_c, 12, 68, 127
14, 75264, Note_on_c, 12, 71, 122
14, 75500, Note_off_c, 12, 64, 17
14, 75500, Note_off_c, 12, 68, 17
14, 75500, Note_off_c, 12, 71, 17
14, 75504, Note_on_c, 12, 63, 126
14, 75504, Note_on_c, 12, 66, 126
14, 75504, Note_on_c, 12, 71, 126
14, 75508, Note_off_c, 12, 63, 17
14, 75508, Note_off_c, 12, 71, 17
14, 75508, Note_off_c, 12, 66, 17
14, 75624, Note_on_c, 12, 63, 127
14, 75624, Note_on_c, 12, 66, 127
14, 75624, Note_on_c, 12, 71, 127
14, 75777, Note_off_c, 12, 63, 17
14, 75781, Note_off_c, 12, 71, 17
14, 75785, Note_off_c, 12, 66, 17
14, 75864, Note_on_c, 12, 64, 127
14, 75864, Note_on_c, 12, 68, 127
14, 75864, Note_on_c, 12, 71, 114
14, 76157, Note_off_c, 12, 64, 17
14, 76159, Note_off_c, 12, 71, 17
14, 76172, Note_off_c, 12, 68, 17
14, 76344, Note_on_c, 12, 64, 127
14, 76344, Note_on_c, 12, 68, 127
14, 76344, Note_on_c, 12, 71, 127
14, 76602, Note_off_c, 12, 64, 17
14, 76603, Note_off_c, 12, 68, 17
14, 76610, Note_off_c, 12, 71, 17
14, 96024, Note_on_c, 12, 64, 127
14, 96024, Note_on_c, 12, 68, 127
14, 96024, Note_on_c, 12, 71, 125
14, 96260, Note_off_c, 12, 71, 17
14, 96260, Note_off_c, 12, 68, 17
14, 96260, Note_off_c, 12, 64, 17
14, 96264, Note_on_c, 12, 64, 92
14, 96264, Note_on_c, 12, 68, 92
14, 96264, Note_on_c, 12, 71, 92
14, 96268, Note_off_c, 12, 71, 17
14, 96268, Note_off_c, 12, 68, 17
14, 96268, Note_off_c, 12, 64, 17
14, 96384, Note_on_c, 12, 64, 127
14, 96384, Note_on_c, 12, 68, 127
14, 96384, Note_on_c, 12, 71, 122
14, 96620, Note_off_c, 12, 64, 17
14, 96620, Note_off_c, 12, 68, 17
14, 96620, Note_off_c, 12, 71, 17
14, 96624, Note_on_c, 12, 63, 126
14, 96624, Note_on_c, 12, 66, 126
14, 96624, Note_on_c, 12, 71, 126
14, 96628, Note_off_c, 12, 71, 17
14, 96628, Note_off_c, 12, 66, 17
14, 96628, Note_off_c, 12, 63, 17
14, 96744, Note_on_c, 12, 63, 127
14, 96744, Note_on_c, 12, 66, 127
14, 96744, Note_on_c, 12, 71, 127
14, 96897, Note_off_c, 12, 63, 17
14, 96901, Note_off_c, 12, 71, 17
14, 96905, Note_off_c, 12, 66, 17
14, 96984, Note_on_c, 12, 64, 127
14, 96984, Note_on_c, 12, 68, 127
14, 96984, Note_on_c, 12, 71, 114
14, 97277, Note_off_c, 12, 64, 17
14, 97279, Note_off_c, 12, 71, 17
14, 97292, Note_off_c, 12, 68, 17
14, 97704, Note_on_c, 12, 64, 126
14, 97704, Note_on_c, 12, 68, 126
14, 97704, Note_on_c, 12, 71, 126
14, 97708, Note_off_c, 12, 71, 17
14, 97708, Note_off_c, 12, 68, 17
14, 97708, Note_off_c, 12, 64, 17
14, 97824, Note_on_c, 12, 64, 126
14, 97824, Note_on_c, 12, 68, 126
14, 97824, Note_on_c, 12, 71, 126
14, 97828, Note_off_c, 12, 71, 17
14, 97828, Note_off_c, 12, 68, 17
14, 97828, Note_off_c, 12, 64, 17
14, 97944, Note_on_c, 12, 64, 127
14, 97944, Note_on_c, 12, 68, 127
14, 97944, Note_on_c, 12, 71, 125
14, 98180, Note_off_c, 12, 64, 17
14, 98180, Note_off_c, 12, 71, 17
14, 98180, Note_off_c, 12, 68, 17
14, 98184, Note_on_c, 12, 64, 92
14, 98184, Note_on_c, 12, 68, 92
14, 98184, Note_on_c, 12, 71, 92
14, 98188, Note_off_c, 12, 71, 17
14, 98188, Note_off_c, 12, 68, 17
14, 98188, Note_off_c, 12, 64, 17
14, 98304, Note_on_c, 12, 64, 127
14, 98304, Note_on_c, 12, 68, 127
14, 98304, Note_on_c, 12, 71, 122
14, 98540, Note_off_c, 12, 71, 17
14, 98540, Note_off_c, 12, 68, 17
14, 98540, Note_off_c, 12, 64, 17
14, 98544, Note_on_c, 12, 63, 126
14, 98544, Note_on_c, 12, 66, 126
14, 98544, Note_on_c, 12, 71, 126
14, 98548, Note_off_c, 12, 71, 17
14, 98548, Note_off_c, 12, 66, 17
14, 98548, Note_off_c, 12, 63, 17
14, 98664, Note_on_c, 12, 63, 127
14, 98664, Note_on_c, 12, 66, 127
14, 98664, Note_on_c, 12, 71, 127
14, 98817, Note_off_c, 12, 63, 17
14, 98821, Note_off_c, 12, 71, 17
14, 98825, Note_off_c, 12, 66, 17
14, 98904, Note_on_c, 12, 64, 127
14, 98904, Note_on_c, 12, 68, 127
14, 98904, Note_on_c, 12, 71, 114
14, 99197, Note_off_c, 12, 64, 17
14, 99199, Note_off_c, 12, 71, 17
14, 99212, Note_off_c, 12, 68, 17
14, 99384, Note_on_c, 12, 64, 127
14, 99384, Note_on_c, 12, 68, 127
14, 99384, Note_on_c, 12, 71, 127
14, 99642, Note_off_c, 12, 64, 17
14, 99643, Note_off_c, 12, 68, 17
14, 99650, Note_off_c, 12, 71, 17
14, 99864, Note_on_c, 12, 64, 127
14, 99864, Note_on_c, 12, 68, 127
14, 99864, Note_on_c, 12, 71, 125
14, 100100, Note_off_c, 12, 64, 17
14, 100100, Note_off_c, 12, 71, 17
14, 100100, Note_off_c, 12, 68, 17
14, 100104, Note_on_c, 12, 64, 92
14, 100104, Note_on_c, 12, 68, 92
14, 100104, Note_on_c, 12, 71, 92
14, 100108, Note_off_c, 12, 71, 17
14, 100108, Note_off_c, 12, 68, 17
14, 100108, Note_off_c, 12, 64, 17
14, 100224, Note_on_c, 12, 64, 127
14, 100224, Note_on_c, 12, 68, 127
14, 100224, Note_on_c, 12, 71, 122
14, 100460, Note_off_c, 12, 64, 17
14, 100460, Note_off_c, 12, 68, 17
14, 100460, Note_off_c, 12, 71, 17
14, 100464, Note_on_c, 12, 63, 126
14, 100464, Note_on_c, 12, 66, 126
14, 100464, Note_on_c, 12, 71, 126
14, 100468, Note_off_c, 12, 71, 17
14, 100468, Note_off_c, 12, 66, 17
14, 100468, Note_off_c, 12, 63, 17
14, 100584, Note_on_c, 12, 63, 127
14, 100584, Note_on_c, 12, 66, 127
14, 100584, Note_on_c, 12, 71, 127
14, 100737, Note_off_c, 12, 63, 17
14, 100741, Note_off_c, 12, 71, 17
14, 100745, Note_off_c, 12, 66, 17
14, 100824, Note_on_c, 12, 64, 127
14, 100824, Note_on_c, 12, 68, 127
14, 100824, Note_on_c, 12, 71, 114
14, 101117, Note_off_c, 12, 64, 17
14, 101119, Note_off_c, 12, 71, 17
14, 101132, Note_off_c, 12, 68, 17
14, 101544, Note_on_c, 12, 64, 126
14, 101544, Note_on_c, 12, 68, 126
14, 101544, Note_on_c, 12, 71, 126
14, 101548, Note_off_c, 12, 71, 17
14, 101548, Note_off_c, 12, 68, 17
14, 101548, Note_off_c, 12, 64, 17
14, 101664, Note_on_c, 12, 64, 126
14, 101664, Note_on_c, 12, 68, 126
14, 101664, Note_on_c, 12, 71, 126
14, 101668, Note_off_c, 12, 71, 17
14, 101668, Note_off_c, 12, 68, 17
14, 101668, Note_off_c, 12, 64, 17
14, 101784, Note_on_c, 12, 64, 127
14, 101784, Note_on_c, 12, 68, 127
14, 101784, Note_on_c, 12, 71, 125
14, 102020, Note_off_c, 12, 64, 17
14, 102020, Note_off_c, 12, 71, 17
14, 102020, Note_off_c, 12, 68, 17
14, 102024, Note_on_c, 12, 64, 92
14, 102024, Note_on_c, 12, 68, 92
14, 102024, Note_on_c, 12, 71, 92
14, 102028, Note_off_c, 12, 71, 17
14, 102028, Note_off_c, 12, 68, 17
14, 102028, Note_off_c, 12, 64, 17
14, 102144, Note_on_c, 12, 64, 127
14, 102144, Note_on_c, 12, 68, 127
14, 102144, Note_on_c, 12, 71, 122
14, 102380, Note_off_c, 12, 64, 17
14, 102380, Note_off_c, 12, 71, 17
14, 102380, Note_off_c, 12, 68, 17
14, 102384, Note_on_c, 12, 63, 126
14, 102384, Note_on_c, 12, 66, 126
14, 102384, Note_on_c, 12, 71, 126
14, 102388, Note_off_c, 12, 71, 17
14, 102388, Note_off_c, 12, 66, 17
14, 102388, Note_off_c, 12, 63, 17
14, 102504, Note_on_c, 12, 63, 127
14, 102504, Note_on_c, 12, 66, 127
14, 102504, Note_on_c, 12, 71, 127
14, 102657, Note_off_c, 12, 63, 17
14, 102661, Note_off_c, 12, 71, 17
14, 102665, Note_off_c, 12, 66, 17
14, 102744, Note_on_c, 12, 64, 127
14, 102744, Note_on_c, 12, 68, 127
14, 102744, Note_on_c, 12, 71, 114
14, 103037, Note_off_c, 12, 64, 17
14, 103039, Note_off_c, 12, 71, 17
14, 103052, Note_off_c, 12, 68, 17
14, 103224, Note_on_c, 12, 64, 127
14, 103224, Note_on_c, 12, 68, 127
14, 103224, Note_on_c, 12, 71, 127
14, 103482, Note_off_c, 12, 64, 17
14, 103483, Note_off_c, 12, 68, 17
14, 103490, Note_off_c, 12, 71, 17
14, 103704, Note_on_c, 12, 64, 127
14, 103704, Note_on_c, 12, 68, 127
14, 103704, Note_on_c, 12, 73, 125
14, 103940, Note_off_c, 12, 64, 17
14, 103940, Note_off_c, 12, 68, 17
14, 103940, Note_off_c, 12, 73, 17
14, 103944, Note_on_c, 12, 64, 92
14, 103944, Note_on_c, 12, 68, 92
14, 103944, Note_on_c, 12, 73, 92
14, 103948, Note_off_c, 12, 73, 17
14, 103948, Note_off_c, 12, 68, 17
14, 103948, Note_off_c, 12, 64, 17
14, 104064, Note_on_c, 12, 64, 127
14, 104064, Note_on_c, 12, 68, 127
14, 104064, Note_on_c, 12, 73, 122
14, 104300, Note_off_c, 12, 73, 17
14, 104300, Note_off_c, 12, 64, 17
14, 104300, Note_off_c, 12, 68, 17
14, 104304, Note_on_c, 12, 64, 126
14, 104304, Note_on_c, 12, 68, 126
14, 104304, Note_on_c, 12, 73, 126
14, 104308, Note_off_c, 12, 73, 17
14, 104308, Note_off_c, 12, 68, 17
14, 104308, Note_off_c, 12, 64, 17
14, 104424, Note_on_c, 12, 64, 127
14, 104424, Note_on_c, 12, 68, 127
14, 104424, Note_on_c, 12, 73, 127
14, 104577, Note_off_c, 12, 64, 17
14, 104581, Note_off_c, 12, 73, 17
14, 104585, Note_off_c, 12, 68, 17
14, 104664, Note_on_c, 12, 64, 127
14, 104664, Note_on_c, 12, 68, 127
14, 104664, Note_on_c, 12, 73, 114
14, 104957, Note_off_c, 12, 64, 17
14, 104959, Note_off_c, 12, 73, 17
14, 104972, Note_off_c, 12, 68, 17
14, 105144, Note_on_c, 12, 64, 126
14, 105144, Note_on_c, 12, 68, 126
14, 105144, Note_on_c, 12, 73, 126
14, 105148, Note_off_c, 12, 73, 17
14, 105148, Note_off_c, 12, 64, 17
14, 105148, Note_off_c, 12, 68, 17
14, 105384, Note_on_c, 12, 64, 126
14, 105384, Note_on_c, 12, 68, 126
14, 105384, Note_on_c, 12, 73, 126
14, 105388, Note_off_c, 12, 73, 17
14, 105388, Note_off_c, 12, 68, 17
14, 105388, Note_off_c, 12, 64, 17
14, 105504, Note_on_c, 12, 64, 126
14, 105504, Note_on_c, 12, 68, 126
14, 105504, Note_on_c, 12, 73, 126
14, 105508, Note_off_c, 12, 73, 17
14, 105508, Note_off_c, 12, 68, 17
14, 105508, Note_off_c, 12, 64, 17
14, 105624, Note_on_c, 12, 63, 127
14, 105624, Note_on_c, 12, 66, 127
14, 105624, Note_on_c, 12, 71, 125
14, 105860, Note_off_c, 12, 63, 17
14, 105860, Note_off_c, 12, 71, 17
14, 105860, Note_off_c, 12, 66, 17
14, 105864, Note_on_c, 12, 63, 92
14, 105864, Note_on_c, 12, 66, 92
14, 105864, Note_on_c, 12, 71, 92
14, 105868, Note_off_c, 12, 71, 17
14, 105868, Note_off_c, 12, 66, 17
14, 105868, Note_off_c, 12, 63, 17
14, 105984, Note_on_c, 12, 63, 127
14, 105984, Note_on_c, 12, 66, 127
14, 105984, Note_on_c, 12, 71, 122
14, 106220, Note_off_c, 12, 71, 17
14, 106220, Note_off_c, 12, 63, 17
14, 106220, Note_off_c, 12, 66, 17
14, 106224, Note_on_c, 12, 63, 126
14, 106224, Note_on_c, 12, 66, 126
14, 106224, Note_on_c, 12, 71, 126
14, 106228, Note_off_c, 12, 71, 17
14, 106228, Note_off_c, 12, 66, 17
14, 106228, Note_off_c, 12, 63, 17
14, 106344, Note_on_c, 12, 63, 127
14, 106344, Note_on_c, 12, 66, 127
14, 106344, Note_on_c, 12, 71, 127
14, 106497, Note_off_c, 12, 63, 17
14, 106501, Note_off_c, 12, 71, 17
14, 106505, Note_off_c, 12, 66, 17
14, 106584, Note_on_c, 12, 64, 127
14, 106584, Note_on_c, 12, 68, 127
14, 106584, Note_on_c, 12, 71, 114
14, 106877, Note_off_c, 12, 64, 17
14, 106879, Note_off_c, 12, 71, 17
14, 106892, Note_off_c, 12, 68, 17
14, 107064, Note_on_c, 12, 63, 126
14, 107064, Note_on_c, 12, 66, 126
14, 107064, Note_on_c, 12, 71, 126
14, 107300, Note_off_c, 12, 71, 17
14, 107300, Note_off_c, 12, 66, 17
14, 107300, Note_off_c, 12, 63, 17
14, 107304, Note_on_c, 12, 63, 126
14, 107304, Note_on_c, 12, 66, 126
14, 107304, Note_on_c, 12, 71, 126
14, 107308, Note_off_c, 12, 71, 17
14, 107308, Note_off_c, 12, 66, 17
14, 107308, Note_off_c, 12, 63, 17
14, 107424, Note_on_c, 12, 63, 126
14, 107424, Note_on_c, 12, 66, 126
14, 107424, Note_on_c, 12, 71, 126
14, 107428, Note_off_c, 12, 71, 17
14, 107428, Note_off_c, 12, 66, 17
14, 107428, Note_off_c, 12, 63, 17
14, 107544, Note_on_c, 12, 64, 127
14, 107544, Note_on_c, 12, 68, 127
14, 107544, Note_on_c, 12, 71, 125
14, 107780, Note_off_c, 12, 68, 17
14, 107780, Note_off_c, 12, 64, 17
14, 107780, Note_off_c, 12, 71, 17
14, 107784, Note_on_c, 12, 64, 92
14, 107784, Note_on_c, 12, 68, 92
14, 107784, Note_on_c, 12, 71, 92
14, 107788, Note_off_c, 12, 71, 17
14, 107788, Note_off_c, 12, 68, 17
14, 107788, Note_off_c, 12, 64, 17
14, 107904, Note_on_c, 12, 64, 127
14, 107904, Note_on_c, 12, 68, 127
14, 107904, Note_on_c, 12, 71, 122
14, 108140, Note_off_c, 12, 71, 17
14, 108140, Note_off_c, 12, 68, 17
14, 108140, Note_off_c, 12, 64, 17
14, 108144, Note_on_c, 12, 63, 126
14, 108144, Note_on_c, 12, 66, 126
14, 108144, Note_on_c, 12, 71, 126
14, 108148, Note_off_c, 12, 66, 17
14, 108148, Note_off_c, 12, 63, 17
14, 108148, Note_off_c, 12, 71, 17
14, 108264, Note_on_c, 12, 63, 127
14, 108264, Note_on_c, 12, 66, 127
14, 108264, Note_on_c, 12, 71, 127
14, 108417, Note_off_c, 12, 63, 17
14, 108421, Note_off_c, 12, 71, 17
14, 108425, Note_off_c, 12, 66, 17
14, 108504, Note_on_c, 12, 64, 127
14, 108504, Note_on_c, 12, 68, 127
14, 108504, Note_on_c, 12, 71, 114
14, 108797, Note_off_c, 12, 64, 17
14, 108799, Note_off_c, 12, 71, 17
14, 108812, Note_off_c, 12, 68, 17
14, 109224, Note_on_c, 12, 64, 126
14, 109224, Note_on_c, 12, 68, 126
14, 109224, Note_on_c, 12, 71, 126
14, 109228, Note_off_c, 12, 71, 17
14, 109228, Note_off_c, 12, 68, 17
14, 109228, Note_off_c, 12, 64, 17
14, 109344, Note_on_c, 12, 64, 126
14, 109344, Note_on_c, 12, 68, 126
14, 109344, Note_on_c, 12, 71, 126
14, 109348, Note_off_c, 12, 71, 17
14, 109348, Note_off_c, 12, 68, 17
14, 109348, Note_off_c, 12, 64, 17
14, 109464, Note_on_c, 12, 64, 127
14, 109464, Note_on_c, 12, 68, 127
14, 109464, Note_on_c, 12, 71, 125
14, 109700, Note_off_c, 12, 71, 17
14, 109700, Note_off_c, 12, 64, 17
14, 109700, Note_off_c, 12, 68, 17
14, 109704, Note_on_c, 12, 64, 92
14, 109704, Note_on_c, 12, 68, 92
14, 109704, Note_on_c, 12, 71, 92
14, 109708, Note_off_c, 12, 71, 17
14, 109708, Note_off_c, 12, 68, 17
14, 109708, Note_off_c, 12, 64, 17
14, 109824, Note_on_c, 12, 64, 127
14, 109824, Note_on_c, 12, 68, 127
14, 109824, Note_on_c, 12, 71, 122
14, 110060, Note_off_c, 12, 64, 17
14, 110060, Note_off_c, 12, 68, 17
14, 110060, Note_off_c, 12, 71, 17
14, 110064, Note_on_c, 12, 63, 126
14, 110064, Note_on_c, 12, 66, 126
14, 110064, Note_on_c, 12, 71, 126
14, 110068, Note_off_c, 12, 63, 17
14, 110068, Note_off_c, 12, 71, 17
14, 110068, Note_off_c, 12, 66, 17
14, 110184, Note_on_c, 12, 63, 127
14, 110184, Note_on_c, 12, 66, 127
14, 110184, Note_on_c, 12, 71, 127
14, 110337, Note_off_c, 12, 63, 17
14, 110341, Note_off_c, 12, 71, 17
14, 110345, Note_off_c, 12, 66, 17
14, 110424, Note_on_c, 12, 64, 127
14, 110424, Note_on_c, 12, 68, 127
14, 110424, Note_on_c, 12, 71, 114
14, 110717, Note_off_c, 12, 64, 17
14, 110719, Note_off_c, 12, 71, 17
14, 110732, Note_off_c, 12, 68, 17
14, 110904, Note_on_c, 12, 64, 127
14, 110904, Note_on_c, 12, 68, 127
14, 110904, Note_on_c, 12, 71, 127
14, 111162, Note_off_c, 12, 64, 17
14, 111163, Note_off_c, 12, 68, 17
14, 111170, Note_off_c, 12, 71, 17
14, 111384, Note_on_c, 12, 64, 127
14, 111384, Note_on_c, 12, 68, 127
14, 111384, Note_on_c, 12, 71, 125
14, 111620, Note_off_c, 12, 64, 17
14, 111620, Note_off_c, 12, 68, 17
14, 111620, Note_off_c, 12, 71, 17
14, 111624, Note_on_c, 12, 64, 92
14, 111624, Note_on_c, 12, 68, 92
14, 111624, Note_on_c, 12, 71, 92
14, 111628, Note_off_c, 12, 71, 17
14, 111628, Note_off_c, 12, 68, 17
14, 111628, Note_off_c, 12, 64, 17
14, 111744, Note_on_c, 12, 64, 127
14, 111744, Note_on_c, 12, 68, 127
14, 111744, Note_on_c, 12, 71, 122
14, 111980, Note_off_c, 12, 68, 17
14, 111980, Note_off_c, 12, 71, 17
14, 111980, Note_off_c, 12, 64, 17
14, 111984, Note_on_c, 12, 63, 126
14, 111984, Note_on_c, 12, 66, 126
14, 111984, Note_on_c, 12, 71, 126
14, 111988, Note_off_c, 12, 71, 17
14, 111988, Note_off_c, 12, 63, 17
14, 111988, Note_off_c, 12, 66, 17
14, 112104, Note_on_c, 12, 63, 127
14, 112104, Note_on_c, 12, 66, 127
14, 112104, Note_on_c, 12, 71, 127
14, 112257, Note_off_c, 12, 63, 17
14, 112261, Note_off_c, 12, 71, 17
14, 112265, Note_off_c, 12, 66, 17
14, 112344, Note_on_c, 12, 64, 127
14, 112344, Note_on_c, 12, 68, 127
14, 112344, Note_on_c, 12, 71, 114
14, 112637, Note_off_c, 12, 64, 17
14, 112639, Note_off_c, 12, 71, 17
14, 112652, Note_off_c, 12, 68, 17
14, 113064, Note_on_c, 12, 64, 126
14, 113064, Note_on_c, 12, 68, 126
14, 113064, Note_on_c, 12, 71, 126
14, 113068, Note_off_c, 12, 71, 17
14, 113068, Note_off_c, 12, 68, 17
14, 113068, Note_off_c, 12, 64, 17
14, 113184, Note_on_c, 12, 64, 126
14, 113184, Note_on_c, 12, 68, 126
14, 113184, Note_on_c, 12, 71, 126
14, 113188, Note_off_c, 12, 71, 17
14, 113188, Note_off_c, 12, 68, 17
14, 113188, Note_off_c, 12, 64, 17
14, 113304, Note_on_c, 12, 64, 127
14, 113304, Note_on_c, 12, 68, 127
14, 113304, Note_on_c, 12, 71, 125
14, 113540, Note_off_c, 12, 68, 17
14, 113540, Note_off_c, 12, 71, 17
14, 113540, Note_off_c, 12, 64, 17
14, 113544, Note_on_c, 12, 64, 92
14, 113544, Note_on_c, 12, 68, 92
14, 113544, Note_on_c, 12, 71, 92
14, 113548, Note_off_c, 12, 71, 17
14, 113548, Note_off_c, 12, 68, 17
14, 113548, Note_off_c, 12, 64, 17
14, 113664, Note_on_c, 12, 64, 127
14, 113664, Note_on_c, 12, 68, 127
14, 113664, Note_on_c, 12, 71, 122
14, 113900, Note_off_c, 12, 71, 17
14, 113900, Note_off_c, 12, 68, 17
14, 113900, Note_off_c, 12, 64, 17
14, 113904, Note_on_c, 12, 63, 126
14, 113904, Note_on_c, 12, 66, 126
14, 113904, Note_on_c, 12, 71, 126
14, 113908, Note_off_c, 12, 71, 17
14, 113908, Note_off_c, 12, 63, 17
14, 113908, Note_off_c, 12, 66, 17
14, 114024, Note_on_c, 12, 63, 127
14, 114024, Note_on_c, 12, 66, 127
14, 114024, Note_on_c, 12, 71, 127
14, 114177, Note_off_c, 12, 63, 17
14, 114181, Note_off_c, 12, 71, 17
14, 114185, Note_off_c, 12, 66, 17
14, 114264, Note_on_c, 12, 64, 127
14, 114264, Note_on_c, 12, 68, 127
14, 114264, Note_on_c, 12, 71, 114
14, 114557, Note_off_c, 12, 64, 17
14, 114559, Note_off_c, 12, 71, 17
14, 114572, Note_off_c, 12, 68, 17
14, 114744, Note_on_c, 12, 64, 127
14, 114744, Note_on_c, 12, 68, 127
14, 114744, Note_on_c, 12, 71, 127
14, 115002, Note_off_c, 12, 64, 17
14, 115003, Note_off_c, 12, 68, 17
14, 115010, Note_off_c, 12, 71, 17
14, 115224, Note_on_c, 12, 64, 127
14, 115224, Note_on_c, 12, 68, 127
14, 115224, Note_on_c, 12, 71, 125
14, 115460, Note_off_c, 12, 64, 17
14, 115460, Note_off_c, 12, 68, 17
14, 115460, Note_off_c, 12, 71, 17
14, 115464, Note_on_c, 12, 64, 92
14, 115464, Note_on_c, 12, 68, 92
14, 115464, Note_on_c, 12, 71, 92
14, 115468, Note_off_c, 12, 71, 17
14, 115468, Note_off_c, 12, 68, 17
14, 115468, Note_off_c, 12, 64, 17
14, 115584, Note_on_c, 12, 64, 127
14, 115584, Note_on_c, 12, 68, 127
14, 115584, Note_on_c, 12, 71, 122
14, 115820, Note_off_c, 12, 68, 17
14, 115820, Note_off_c, 12, 71, 17
14, 115820, Note_off_c, 12, 64, 17
14, 115824, Note_on_c, 12, 63, 126
14, 115824, Note_on_c, 12, 66, 126
14, 115824, Note_on_c, 12, 71, 126
14, 115828, Note_off_c, 12, 71, 17
14, 115828, Note_off_c, 12, 63, 17
14, 115828, Note_off_c, 12, 66, 17
14, 115944, Note_on_c, 12, 63, 127
14, 115944, Note_on_c, 12, 66, 127
14, 115944, Note_on_c, 12, 71, 127
14, 116097, Note_off_c, 12, 63, 17
14, 116101, Note_off_c, 12, 71, 17
14, 116105, Note_off_c, 12, 66, 17
14, 116184, Note_on_c, 12, 64, 127
14, 116184, Note_on_c, 12, 68, 127
14, 116184, Note_on_c, 12, 71, 114
14, 116477, Note_off_c, 12, 64, 17
14, 116479, Note_off_c, 12, 71, 17
14, 116492, Note_off_c, 12, 68, 17
14, 116904, Note_on_c, 12, 64, 126
14, 116904, Note_on_c, 12, 68, 126
14, 116904, Note_on_c, 12, 71, 126
14, 116908, Note_off_c, 12, 71, 17
14, 116908, Note_off_c, 12, 68, 17
14, 116908, Note_off_c, 12, 64, 17
14, 117024, Note_on_c, 12, 64, 126
14, 117024, Note_on_c, 12, 68, 126
14, 117024, Note_on_c, 12, 71, 126
14, 117028, Note_off_c, 12, 71, 17
14, 117028, Note_off_c, 12, 68, 17
14, 117028, Note_off_c, 12, 64, 17
14, 117144, Note_on_c, 12, 64, 127
14, 117144, Note_on_c, 12, 68, 127
14, 117144, Note_on_c, 12, 71, 125
14, 117380, Note_off_c, 12, 68, 17
14, 117380, Note_off_c, 12, 71, 17
14, 117380, Note_off_c, 12, 64, 17
14, 117384, Note_on_c, 12, 64, 92
14, 117384, Note_on_c, 12, 68, 92
14, 117384, Note_on_c, 12, 71, 92
14, 117388, Note_off_c, 12, 71, 17
14, 117388, Note_off_c, 12, 68, 17
14, 117388, Note_off_c, 12, 64, 17
14, 117504, Note_on_c, 12, 64, 127
14, 117504, Note_on_c, 12, 68, 127
14, 117504, Note_on_c, 12, 71, 122
14, 117740, Note_off_c, 12, 71, 17
14, 117740, Note_off_c, 12, 68, 17
14, 117740, Note_off_c, 12, 64, 17
14, 117744, Note_on_c, 12, 63, 126
14, 117744, Note_on_c, 12, 66, 126
14, 117744, Note_on_c, 12, 71, 126
14, 117748, Note_off_c, 12, 71, 17
14, 117748, Note_off_c, 12, 63, 17
14, 117748, Note_off_c, 12, 66, 17
14, 117864, Note_on_c, 12, 63, 127
14, 117864, Note_on_c, 12, 66, 127
14, 117864, Note_on_c, 12, 71, 127
14, 118017, Note_off_c, 12, 63, 17
14, 118021, Note_off_c, 12, 71, 17
14, 118025, Note_off_c, 12, 66, 17
14, 118104, Note_on_c, 12, 64, 127
14, 118104, Note_on_c, 12, 68, 127
14, 118104, Note_on_c, 12, 71, 114
14, 118397, Note_off_c, 12, 64, 17
14, 118399, Note_off_c, 12, 71, 17
14, 118412, Note_off_c, 12, 68, 17
14, 118584, Note_on_c, 12, 64, 127
14, 118584, Note_on_c, 12, 68, 127
14, 118584, Note_on_c, 12, 71, 127
14, 118842, Note_off_c, 12, 64, 17
14, 118843, Note_off_c, 12, 68, 17
14, 118850, Note_off_c, 12, 71, 17
14, 119064, Note_on_c, 12, 64, 127
14, 119064, Note_on_c, 12, 68, 127
14, 119064, Note_on_c, 12, 73, 125
14, 119300, Note_off_c, 12, 64, 17
14, 119300, Note_off_c, 12, 68, 17
14, 119300, Note_off_c, 12, 73, 17
14, 119304, Note_on_c, 12, 64, 92
14, 119304, Note_on_c, 12, 68, 92
14, 119304, Note_on_c, 12, 73, 92
14, 119308, Note_off_c, 12, 73, 17
14, 119308, Note_off_c, 12, 68, 17
14, 119308, Note_off_c, 12, 64, 17
14, 119424, Note_on_c, 12, 64, 127
14, 119424, Note_on_c, 12, 68, 127
14, 119424, Note_on_c, 12, 73, 122
14, 119660, Note_off_c, 12, 73, 17
14, 119660, Note_off_c, 12, 64, 17
14, 119660, Note_off_c, 12, 68, 17
14, 119664, Note_on_c, 12, 64, 126
14, 119664, Note_on_c, 12, 68, 126
14, 119664, Note_on_c, 12, 73, 126
14, 119668, Note_off_c, 12, 73, 17
14, 119668, Note_off_c, 12, 68, 17
14, 119668, Note_off_c, 12, 64, 17
14, 119784, Note_on_c, 12, 64, 127
14, 119784, Note_on_c, 12, 68, 127
14, 119784, Note_on_c, 12, 73, 127
14, 119937, Note_off_c, 12, 64, 17
14, 119941, Note_off_c, 12, 73, 17
14, 119945, Note_off_c, 12, 68, 17
14, 120024, Note_on_c, 12, 64, 127
14, 120024, Note_on_c, 12, 68, 127
14, 120024, Note_on_c, 12, 73, 114
14, 120317, Note_off_c, 12, 64, 17
14, 120319, Note_off_c, 12, 73, 17
14, 120332, Note_off_c, 12, 68, 17
14, 120504, Note_on_c, 12, 64, 126
14, 120504, Note_on_c, 12, 68, 126
14, 120504, Note_on_c, 12, 73, 126
14, 120508, Note_off_c, 12, 73, 17
14, 120508, Note_off_c, 12, 64, 17
14, 120508, Note_off_c, 12, 68, 17
14, 120744, Note_on_c, 12, 64, 126
14, 120744, Note_on_c, 12, 68, 126
14, 120744, Note_on_c, 12, 73, 126
14, 120748, Note_off_c, 12, 73, 17
14, 120748, Note_off_c, 12, 68, 17
14, 120748, Note_off_c, 12, 64, 17
14, 120864, Note_on_c, 12, 64, 126
14, 120864, Note_on_c, 12, 68, 126
14, 120864, Note_on_c, 12, 73, 126
14, 120868, Note_off_c, 12, 73, 17
14, 120868, Note_off_c, 12, 68, 17
14, 120868, Note_off_c, 12, 64, 17
14, 120984, Note_on_c, 12, 63, 127
14, 120984, Note_on_c, 12, 66, 127
14, 120984, Note_on_c, 12, 71, 125
14, 121220, Note_off_c, 12, 63, 17
14, 121220, Note_off_c, 12, 71, 17
14, 121220, Note_off_c, 12, 66, 17
14, 121224, Note_on_c, 12, 63, 92
14, 121224, Note_on_c, 12, 66, 92
14, 121224, Note_on_c, 12, 71, 92
14, 121228, Note_off_c, 12, 71, 17
14, 121228, Note_off_c, 12, 66, 17
14, 121228, Note_off_c, 12, 63, 17
14, 121344, Note_on_c, 12, 63, 127
14, 121344, Note_on_c, 12, 66, 127
14, 121344, Note_on_c, 12, 71, 122
14, 121580, Note_off_c, 12, 71, 17
14, 121580, Note_off_c, 12, 63, 17
14, 121580, Note_off_c, 12, 66, 17
14, 121584, Note_on_c, 12, 63, 126
14, 121584, Note_on_c, 12, 66, 126
14, 121584, Note_on_c, 12, 71, 126
14, 121588, Note_off_c, 12, 71, 17
14, 121588, Note_off_c, 12, 66, 17
14, 121588, Note_off_c, 12, 63, 17
14, 121704, Note_on_c, 12, 63, 127
14, 121704, Note_on_c, 12, 66, 127
14, 121704, Note_on_c, 12, 71, 127
14, 121857, Note_off_c, 12, 63, 17
14, 121861, Note_off_c, 12, 71, 17
14, 121865, Note_off_c, 12, 66, 17
14, 121944, Note_on_c, 12, 64, 127
14, 121944, Note_on_c, 12, 68, 127
14, 121944, Note_on_c, 12, 71, 114
14, 122237, Note_off_c, 12, 64, 17
14, 122239, Note_off_c, 12, 71, 17
14, 122252, Note_off_c, 12, 68, 17
14, 122424, Note_on_c, 12, 63, 126
14, 122424, Note_on_c, 12, 66, 126
14, 122424, Note_on_c, 12, 71, 126
14, 122660, Note_off_c, 12, 71, 17
14, 122660, Note_off_c, 12, 66, 17
14, 122660, Note_off_c, 12, 63, 17
14, 122664, Note_on_c, 12, 63, 126
14, 122664, Note_on_c, 12, 66, 126
14, 122664, Note_on_c, 12, 71, 126
14, 122668, Note_off_c, 12, 71, 17
14, 122668, Note_off_c, 12, 66, 17
14, 122668, Note_off_c, 12, 63, 17
14, 122784, Note_on_c, 12, 63, 126
14, 122784, Note_on_c, 12, 66, 126
14, 122784, Note_on_c, 12, 71, 126
14, 122788, Note_off_c, 12, 71, 17
14, 122788, Note_off_c, 12, 66, 17
14, 122788, Note_off_c, 12, 63, 17
14, 122904, Note_on_c, 12, 64, 127
14, 122904, Note_on_c, 12, 68, 127
14, 122904, Note_on_c, 12, 71, 125
14, 123140, Note_off_c, 12, 68, 17
14, 123140, Note_off_c, 12, 64, 17
14, 123140, Note_off_c, 12, 71, 17
14, 123144, Note_on_c, 12, 64, 92
14, 123144, Note_on_c, 12, 68, 92
14, 123144, Note_on_c, 12, 71, 92
14, 123148, Note_off_c, 12, 71, 17
14, 123148, Note_off_c, 12, 68, 17
14, 123148, Note_off_c, 12, 64, 17
14, 123264, Note_on_c, 12, 64, 127
14, 123264, Note_on_c, 12, 68, 127
14, 123264, Note_on_c, 12, 71, 122
14, 123500, Note_off_c, 12, 71, 17
14, 123500, Note_off_c, 12, 68, 17
14, 123500, Note_off_c, 12, 64, 17
14, 123504, Note_on_c, 12, 63, 126
14, 123504, Note_on_c, 12, 66, 126
14, 123504, Note_on_c, 12, 71, 126
14, 123508, Note_off_c, 12, 66, 17
14, 123508, Note_off_c, 12, 63, 17
14, 123508, Note_off_c, 12, 71, 17
14, 123624, Note_on_c, 12, 63, 127
14, 123624, Note_on_c, 12, 66, 127
14, 123624, Note_on_c, 12, 71, 127
14, 123777, Note_off_c, 12, 63, 17
14, 123781, Note_off_c, 12, 71, 17
14, 123785, Note_off_c, 12, 66, 17
14, 123864, Note_on_c, 12, 64, 127
14, 123864, Note_on_c, 12, 68, 127
14, 123864, Note_on_c, 12, 71, 114
14, 124157, Note_off_c, 12, 64, 17
14, 124159, Note_off_c, 12, 71, 17
14, 124172, Note_off_c, 12, 68, 17
14, 124584, Note_on_c, 12, 64, 126
14, 124584, Note_on_c, 12, 68, 126
14, 124584, Note_on_c, 12, 71, 126
14, 124588, Note_off_c, 12, 71, 17
14, 124588, Note_off_c, 12, 68, 17
14, 124588, Note_off_c, 12, 64, 17
14, 124704, Note_on_c, 12, 64, 126
14, 124704, Note_on_c, 12, 68, 126
14, 124704, Note_on_c, 12, 71, 126
14, 124708, Note_off_c, 12, 71, 17
14, 124708, Note_off_c, 12, 68, 17
14, 124708, Note_off_c, 12, 64, 17
14, 124824, Note_on_c, 12, 64, 127
14, 124824, Note_on_c, 12, 68, 127
14, 124824, Note_on_c, 12, 71, 125
14, 125060, Note_off_c, 12, 71, 17
14, 125060, Note_off_c, 12, 64, 17
14, 125060, Note_off_c, 12, 68, 17
14, 125064, Note_on_c, 12, 64, 92
14, 125064, Note_on_c, 12, 68, 92
14, 125064, Note_on_c, 12, 71, 92
14, 125068, Note_off_c, 12, 71, 17
14, 125068, Note_off_c, 12, 68, 17
14, 125068, Note_off_c, 12, 64, 17
14, 125184, Note_on_c, 12, 64, 127
14, 125184, Note_on_c, 12, 68, 127
14, 125184, Note_on_c, 12, 71, 122
14, 125420, Note_off_c, 12, 64, 17
14, 125420, Note_off_c, 12, 68, 17
14, 125420, Note_off_c, 12, 71, 17
14, 125424, Note_on_c, 12, 63, 126
14, 125424, Note_on_c, 12, 66, 126
14, 125424, Note_on_c, 12, 71, 126
14, 125428, Note_off_c, 12, 63, 17
14, 125428, Note_off_c, 12, 71, 17
14, 125428, Note_off_c, 12, 66, 17
14, 125544, Note_on_c, 12, 63, 127
14, 125544, Note_on_c, 12, 66, 127
14, 125544, Note_on_c, 12, 71, 127
14, 125697, Note_off_c, 12, 63, 17
14, 125701, Note_off_c, 12, 71, 17
14, 125705, Note_off_c, 12, 66, 17
14, 125784, Note_on_c, 12, 64, 127
14, 125784, Note_on_c, 12, 68, 127
14, 125784, Note_on_c, 12, 71, 114
14, 126077, Note_off_c, 12, 64, 17
14, 126079, Note_off_c, 12, 71, 17
14, 126092, Note_off_c, 12, 68, 17
14, 126264, Note_on_c, 12, 64, 127
14, 126264, Note_on_c, 12, 68, 127
14, 126264, Note_on_c, 12, 71, 127
14, 126522, Note_off_c, 12, 64, 17
14, 126523, Note_off_c, 12, 68, 17
14, 126530, Note_off_c, 12, 71, 17
14, 157464, Note_on_c, 12, 64, 127
14, 157464, Note_on_c, 12, 68, 127
14, 157464, Note_on_c, 12, 71, 125
14, 157700, Note_off_c, 12, 68, 17
14, 157700, Note_off_c, 12, 64, 17
14, 157700, Note_off_c, 12, 71, 17
14, 157704, Note_on_c, 12, 64, 92
14, 157704, Note_on_c, 12, 68, 92
14, 157704, Note_on_c, 12, 71, 92
14, 157708, Note_off_c, 12, 71, 17
14, 157708, Note_off_c, 12, 68, 17
14, 157708, Note_off_c, 12, 64, 17
14, 157824, Note_on_c, 12, 64, 127
14, 157824, Note_on_c, 12, 68, 127
14, 157824, Note_on_c, 12, 71, 122
14, 158060, Note_off_c, 12, 68, 17
14, 158060, Note_off_c, 12, 71, 17
14, 158060, Note_off_c, 12, 64, 17
14, 158064, Note_on_c, 12, 63, 126
14, 158064, Note_on_c, 12, 66, 126
14, 158064, Note_on_c, 12, 71, 126
14, 158068, Note_off_c, 12, 71, 17
14, 158068, Note_off_c, 12, 63, 17
14, 158068, Note_off_c, 12, 66, 17
14, 158184, Note_on_c, 12, 63, 127
14, 158184, Note_on_c, 12, 66, 127
14, 158184, Note_on_c, 12, 71, 127
14, 158337, Note_off_c, 12, 63, 17
14, 158341, Note_off_c, 12, 71, 17
14, 158345, Note_off_c, 12, 66, 17
14, 158424, Note_on_c, 12, 64, 127
14, 158424, Note_on_c, 12, 68, 127
14, 158424, Note_on_c, 12, 71, 114
14, 158717, Note_off_c, 12, 64, 17
14, 158719, Note_off_c, 12, 71, 17
14, 158732, Note_off_c, 12, 68, 17
14, 159144, Note_on_c, 12, 64, 126
14, 159144, Note_on_c, 12, 68, 126
14, 159144, Note_on_c, 12, 71, 126
14, 159148, Note_off_c, 12, 71, 17
14, 159148, Note_off_c, 12, 68, 17
14, 159148, Note_off_c, 12, 64, 17
14, 159264, Note_on_c, 12, 64, 126
14, 159264, Note_on_c, 12, 68, 126
14, 159264, Note_on_c, 12, 71, 126
14, 159268, Note_off_c, 12, 71, 17
14, 159268, Note_off_c, 12, 68, 17
14, 159268, Note_off_c, 12, 64, 17
14, 159384, Note_on_c, 12, 64, 127
14, 159384, Note_on_c, 12, 68, 127
14, 159384, Note_on_c, 12, 71, 125
14, 159620, Note_off_c, 12, 68, 17
14, 159620, Note_off_c, 12, 71, 17
14, 159620, Note_off_c, 12, 64, 17
14, 159624, Note_on_c, 12, 64, 92
14, 159624, Note_on_c, 12, 68, 92
14, 159624, Note_on_c, 12, 71, 92
14, 159628, Note_off_c, 12, 71, 17
14, 159628, Note_off_c, 12, 68, 17
14, 159628, Note_off_c, 12, 64, 17
14, 159744, Note_on_c, 12, 64, 127
14, 159744, Note_on_c, 12, 68, 127
14, 159744, Note_on_c, 12, 71, 122
14, 159980, Note_off_c, 12, 71, 17
14, 159980, Note_off_c, 12, 68, 17
14, 159980, Note_off_c, 12, 64, 17
14, 159984, Note_on_c, 12, 63, 126
14, 159984, Note_on_c, 12, 66, 126
14, 159984, Note_on_c, 12, 71, 126
14, 159988, Note_off_c, 12, 71, 17
14, 159988, Note_off_c, 12, 63, 17
14, 159988, Note_off_c, 12, 66, 17
14, 160104, Note_on_c, 12, 63, 127
14, 160104, Note_on_c, 12, 66, 127
14, 160104, Note_on_c, 12, 71, 127
14, 160257, Note_off_c, 12, 63, 17
14, 160261, Note_off_c, 12, 71, 17
14, 160265, Note_off_c, 12, 66, 17
14, 160344, Note_on_c, 12, 64, 127
14, 160344, Note_on_c, 12, 68, 127
14, 160344, Note_on_c, 12, 71, 114
14, 160637, Note_off_c, 12, 64, 17
14, 160639, Note_off_c, 12, 71, 17
14, 160652, Note_off_c, 12, 68, 17
14, 160824, Note_on_c, 12, 64, 127
14, 160824, Note_on_c, 12, 68, 127
14, 160824, Note_on_c, 12, 71, 127
14, 161082, Note_off_c, 12, 64, 17
14, 161083, Note_off_c, 12, 68, 17
14, 161090, Note_off_c, 12, 71, 17
14, 161304, Note_on_c, 12, 64, 127
14, 161304, Note_on_c, 12, 68, 127
14, 161304, Note_on_c, 12, 71, 125
14, 161540, Note_off_c, 12, 64, 17
14, 161540, Note_off_c, 12, 68, 17
14, 161540, Note_off_c, 12, 71, 17
14, 161544, Note_on_c, 12, 64, 92
14, 161544, Note_on_c, 12, 68, 92
14, 161544, Note_on_c, 12, 71, 92
14, 161548, Note_off_c, 12, 71, 17
14, 161548, Note_off_c, 12, 68, 17
14, 161548, Note_off_c, 12, 64, 17
14, 161664, Note_on_c, 12, 64, 127
14, 161664, Note_on_c, 12, 68, 127
14, 161664, Note_on_c, 12, 71, 122
14, 161900, Note_off_c, 12, 68, 17
14, 161900, Note_off_c, 12, 71, 17
14, 161900, Note_off_c, 12, 64, 17
14, 161904, Note_on_c, 12, 63, 126
14, 161904, Note_on_c, 12, 66, 126
14, 161904, Note_on_c, 12, 71, 126
14, 161908, Note_off_c, 12, 71, 17
14, 161908, Note_off_c, 12, 63, 17
14, 161908, Note_off_c, 12, 66, 17
14, 162024, Note_on_c, 12, 63, 127
14, 162024, Note_on_c, 12, 66, 127
14, 162024, Note_on_c, 12, 71, 127
14, 162177, Note_off_c, 12, 63, 17
14, 162181, Note_off_c, 12, 71, 17
14, 162185, Note_off_c, 12, 66, 17
14, 162264, Note_on_c, 12, 64, 127
14, 162264, Note_on_c, 12, 68, 127
14, 162264, Note_on_c, 12, 71, 114
14, 162557, Note_off_c, 12, 64, 17
14, 162559, Note_off_c, 12, 71, 17
14, 162572, Note_off_c, 12, 68, 17
14, 162984, Note_on_c, 12, 64, 126
14, 162984, Note_on_c, 12, 68, 126
14, 162984, Note_on_c, 12, 71, 126
14, 162988, Note_off_c, 12, 71, 17
14, 162988, Note_off_c, 12, 68, 17
14, 162988, Note_off_c, 12, 64, 17
14, 163104, Note_on_c, 12, 64, 126
14, 163104, Note_on_c, 12, 68, 126
14, 163104, Note_on_c, 12, 71, 126
14, 163108, Note_off_c, 12, 71, 17
14, 163108, Note_off_c, 12, 68, 17
14, 163108, Note_off_c, 12, 64, 17
14, 163224, Note_on_c, 12, 64, 127
14, 163224, Note_on_c, 12, 68, 127
14, 163224, Note_on_c, 12, 71, 125
14, 163460, Note_off_c, 12, 68, 17
14, 163460, Note_off_c, 12, 71, 17
14, 163460, Note_off_c, 12, 64, 17
14, 163464, Note_on_c, 12, 64, 92
14, 163464, Note_on_c, 12, 68, 92
14, 163464, Note_on_c, 12, 71, 92
14, 163468, Note_off_c, 12, 71, 17
14, 163468, Note_off_c, 12, 68, 17
14, 163468, Note_off_c, 12, 64, 17
14, 163584, Note_on_c, 12, 64, 127
14, 163584, Note_on_c, 12, 68, 127
14, 163584, Note_on_c, 12, 71, 122
14, 163820, Note_off_c, 12, 71, 17
14, 163820, Note_off_c, 12, 68, 17
14, 163820, Note_off_c, 12, 64, 17
14, 163824, Note_on_c, 12, 63, 126
14, 163824, Note_on_c, 12, 66, 126
14, 163824, Note_on_c, 12, 71, 126
14, 163828, Note_off_c, 12, 71, 17
14, 163828, Note_off_c, 12, 63, 17
14, 163828, Note_off_c, 12, 66, 17
14, 163944, Note_on_c, 12, 63, 127
14, 163944, Note_on_c, 12, 66, 127
14, 163944, Note_on_c, 12, 71, 127
14, 164097, Note_off_c, 12, 63, 17
14, 164101, Note_off_c, 12, 71, 17
14, 164105, Note_off_c, 12, 66, 17
14, 164184, Note_on_c, 12, 64, 127
14, 164184, Note_on_c, 12, 68, 127
14, 164184, Note_on_c, 12, 71, 114
14, 164477, Note_off_c, 12, 64, 17
14, 164479, Note_off_c, 12, 71, 17
14, 164492, Note_off_c, 12, 68, 17
14, 164664, Note_on_c, 12, 64, 127
14, 164664, Note_on_c, 12, 68, 127
14, 164664, Note_on_c, 12, 71, 127
14, 164922, Note_off_c, 12, 64, 17
14, 164923, Note_off_c, 12, 68, 17
14, 164930, Note_off_c, 12, 71, 17
14, 165144, Note_on_c, 12, 64, 127
14, 165144, Note_on_c, 12, 68, 127
14, 165144, Note_on_c, 12, 73, 125
14, 165380, Note_off_c, 12, 64, 17
14, 165380, Note_off_c, 12, 68, 17
14, 165380, Note_off_c, 12, 73, 17
14, 165384, Note_on_c, 12, 64, 92
14, 165384, Note_on_c, 12, 68, 92
14, 165384, Note_on_c, 12, 73, 92
14, 165388, Note_off_c, 12, 73, 17
14, 165388, Note_off_c, 12, 68, 17
14, 165388, Note_off_c, 12, 64, 17
14, 165504, Note_on_c, 12, 64, 127
14, 165504, Note_on_c, 12, 68, 127
14, 165504, Note_on_c, 12, 73, 122
14, 165740, Note_off_c, 12, 73, 17
14, 165740, Note_off_c, 12, 64, 17
14, 165740, Note_off_c, 12, 68, 17
14, 165744, Note_on_c, 12, 64, 126
14, 165744, Note_on_c, 12, 68, 126
14, 165744, Note_on_c, 12, 73, 126
14, 165748, Note_off_c, 12, 73, 17
14, 165748, Note_off_c, 12, 68, 17
14, 165748, Note_off_c, 12, 64, 17
14, 165864, Note_on_c, 12, 64, 127
14, 165864, Note_on_c, 12, 68, 127
14, 165864, Note_on_c, 12, 73, 127
14, 166017, Note_off_c, 12, 64, 17
14, 166021, Note_off_c, 12, 73, 17
14, 166025, Note_off_c, 12, 68, 17
14, 166104, Note_on_c, 12, 64, 127
14, 166104, Note_on_c, 12, 68, 127
14, 166104, Note_on_c, 12, 73, 114
14, 166397, Note_off_c, 12, 64, 17
14, 166399, Note_off_c, 12, 73, 17
14, 166412, Note_off_c, 12, 68, 17
14, 166584, Note_on_c, 12, 64, 126
14, 166584, Note_on_c, 12, 68, 126
14, 166584, Note_on_c, 12, 73, 126
14, 166588, Note_off_c, 12, 73, 17
14, 166588, Note_off_c, 12, 64, 17
14, 166588, Note_off_c, 12, 68, 17
14, 166824, Note_on_c, 12, 64, 126
14, 166824, Note_on_c, 12, 68, 126
14, 166824, Note_on_c, 12, 73, 126
14, 166828, Note_off_c, 12, 73, 17
14, 166828, Note_off_c, 12, 68, 17
14, 166828, Note_off_c, 12, 64, 17
14, 166944, Note_on_c, 12, 64, 126
14, 166944, Note_on_c, 12, 68, 126
14, 166944, Note_on_c, 12, 73, 126
14, 166948, Note_off_c, 12, 73, 17
14, 166948, Note_off_c, 12, 68, 17
14, 166948, Note_off_c, 12, 64, 17
14, 167064, Note_on_c, 12, 63, 127
14, 167064, Note_on_c, 12, 66, 127
14, 167064, Note_on_c, 12, 71, 125
14, 167300, Note_off_c, 12, 63, 17
14, 167300, Note_off_c, 12, 71, 17
14, 167300, Note_off_c, 12, 66, 17
14, 167304, Note_on_c, 12, 63, 92
14, 167304, Note_on_c, 12, 66, 92
14, 167304, Note_on_c, 12, 71, 92
14, 167308, Note_off_c, 12, 71, 17
14, 167308, Note_off_c, 12, 66, 17
14, 167308, Note_off_c, 12, 63, 17
14, 167424, Note_on_c, 12, 63, 127
14, 167424, Note_on_c, 12, 66, 127
14, 167424, Note_on_c, 12, 71, 122
14, 167660, Note_off_c, 12, 71, 17
14, 167660, Note_off_c, 12, 63, 17
14, 167660, Note_off_c, 12, 66, 17
14, 167664, Note_on_c, 12, 63, 126
14, 167664, Note_on_c, 12, 66, 126
14, 167664, Note_on_c, 12, 71, 126
14, 167668, Note_off_c, 12, 71, 17
14, 167668, Note_off_c, 12, 66, 17
14, 167668, Note_off_c, 12, 63, 17
14, 167784, Note_on_c, 12, 63, 127
14, 167784, Note_on_c, 12, 66, 127
14, 167784, Note_on_c, 12, 71, 127
14, 167937, Note_off_c, 12, 63, 17
14, 167941, Note_off_c, 12, 71, 17
14, 167945, Note_off_c, 12, 66, 17
14, 168024, Note_on_c, 12, 64, 127
14, 168024, Note_on_c, 12, 68, 127
14, 168024, Note_on_c, 12, 71, 114
14, 168317, Note_off_c, 12, 64, 17
14, 168319, Note_off_c, 12, 71, 17
14, 168332, Note_off_c, 12, 68, 17
14, 168504, Note_on_c, 12, 63, 126
14, 168504, Note_on_c, 12, 66, 126
14, 168504, Note_on_c, 12, 71, 126
14, 168740, Note_off_c, 12, 66, 17
14, 168740, Note_off_c, 12, 63, 17
14, 168740, Note_off_c, 12, 71, 17
14, 168744, Note_on_c, 12, 63, 126
14, 168744, Note_on_c, 12, 66, 126
14, 168744, Note_on_c, 12, 71, 126
14, 168748, Note_off_c, 12, 71, 17
14, 168748, Note_off_c, 12, 66, 17
14, 168748, Note_off_c, 12, 63, 17
14, 168864, Note_on_c, 12, 63, 126
14, 168864, Note_on_c, 12, 66, 126
14, 168864, Note_on_c, 12, 71, 126
14, 168868, Note_off_c, 12, 71, 17
14, 168868, Note_off_c, 12, 66, 17
14, 168868, Note_off_c, 12, 63, 17
14, 168984, Note_on_c, 12, 64, 127
14, 168984, Note_on_c, 12, 68, 127
14, 168984, Note_on_c, 12, 71, 125
14, 169220, Note_off_c, 12, 68, 17
14, 169220, Note_off_c, 12, 64, 17
14, 169220, Note_off_c, 12, 71, 17
14, 169224, Note_on_c, 12, 64, 92
14, 169224, Note_on_c, 12, 68, 92
14, 169224, Note_on_c, 12, 71, 92
14, 169228, Note_off_c, 12, 71, 17
14, 169228, Note_off_c, 12, 68, 17
14, 169228, Note_off_c, 12, 64, 17
14, 169344, Note_on_c, 12, 64, 127
14, 169344, Note_on_c, 12, 68, 127
14, 169344, Note_on_c, 12, 71, 122
14, 169580, Note_off_c, 12, 71, 17
14, 169580, Note_off_c, 12, 68, 17
14, 169580, Note_off_c, 12, 64, 17
14, 169584, Note_on_c, 12, 63, 126
14, 169584, Note_on_c, 12, 66, 126
14, 169584, Note_on_c, 12, 71, 126
14, 169588, Note_off_c, 12, 66, 17
14, 169588, Note_off_c, 12, 63, 17
14, 169588, Note_off_c, 12, 71, 17
14, 169704, Note_on_c, 12, 63, 127
14, 169704, Note_on_c, 12, 66, 127
14, 169704, Note_on_c, 12, 71, 127
14, 169857, Note_off_c, 12, 63, 17
14, 169861, Note_off_c, 12, 71, 17
14, 169865, Note_off_c, 12, 66, 17
14, 169944, Note_on_c, 12, 64, 127
14, 169944, Note_on_c, 12, 68, 127
14, 169944, Note_on_c, 12, 71, 114
14, 170237, Note_off_c, 12, 64, 17
14, 170239, Note_off_c, 12, 71, 17
14, 170252, Note_off_c, 12, 68, 17
14, 170664, Note_on_c, 12, 64, 126
14, 170664, Note_on_c, 12, 68, 126
14, 170664, Note_on_c, 12, 71, 126
14, 170668, Note_off_c, 12, 71, 17
14, 170668, Note_off_c, 12, 68, 17
14, 170668, Note_off_c, 12, 64, 17
14, 170784, Note_on_c, 12, 64, 126
14, 170784, Note_on_c, 12, 68, 126
14, 170784, Note_on_c, 12, 71, 126
14, 170788, Note_off_c, 12, 71, 17
14, 170788, Note_off_c, 12, 68, 17
14, 170788, Note_off_c, 12, 64, 17
14, 170904, Note_on_c, 12, 64, 127
14, 170904, Note_on_c, 12, 68, 127
14, 170904, Note_on_c, 12, 71, 125
14, 171140, Note_off_c, 12, 71, 17
14, 171140, Note_off_c, 12, 64, 17
14, 171140, Note_off_c, 12, 68, 17
14, 171144, Note_on_c, 12, 64, 92
14, 171144, Note_on_c, 12, 68, 92
14, 171144, Note_on_c, 12, 71, 92
14, 171148, Note_off_c, 12, 71, 17
14, 171148, Note_off_c, 12, 68, 17
14, 171148, Note_off_c, 12, 64, 17
14, 171264, Note_on_c, 12, 64, 127
14, 171264, Note_on_c, 12, 68, 127
14, 171264, Note_on_c, 12, 71, 122
14, 171500, Note_off_c, 12, 64, 17
14, 171500, Note_off_c, 12, 68, 17
14, 171500, Note_off_c, 12, 71, 17
14, 171504, Note_on_c, 12, 63, 126
14, 171504, Note_on_c, 12, 66, 126
14, 171504, Note_on_c, 12, 71, 126
14, 171508, Note_off_c, 12, 63, 17
14, 171508, Note_off_c, 12, 71, 17
14, 171508, Note_off_c, 12, 66, 17
14, 171624, Note_on_c, 12, 63, 127
14, 171624, Note_on_c, 12, 66, 127
14, 171624, Note_on_c, 12, 71, 127
14, 171777, Note_off_c, 12, 63, 17
14, 171781, Note_off_c, 12, 71, 17
14, 171785, Note_off_c, 12, 66, 17
14, 171864, Note_on_c, 12, 64, 127
14, 171864, Note_on_c, 12, 68, 127
14, 171864, Note_on_c, 12, 71, 114
14, 172157, Note_off_c, 12, 64, 17
14, 172159, Note_off_c, 12, 71, 17
14, 172172, Note_off_c, 12, 68, 17
14, 172344, Note_on_c, 12, 64, 127
14, 172344, Note_on_c, 12, 68, 127
14, 172344, Note_on_c, 12, 71, 127
14, 172602, Note_off_c, 12, 64, 17
14, 172603, Note_off_c, 12, 68, 17
14, 172610, Note_off_c, 12, 71, 17
14, 172824, Note_on_c, 12, 64, 127
14, 172824, Note_on_c, 12, 68, 127
14, 172824, Note_on_c, 12, 71, 125
14, 173060, Note_off_c, 12, 68, 17
14, 173060, Note_off_c, 12, 71, 17
14, 173060, Note_off_c, 12, 64, 17
14, 173064, Note_on_c, 12, 64, 92
14, 173064, Note_on_c, 12, 68, 92
14, 173064, Note_on_c, 12, 71, 92
14, 173068, Note_off_c, 12, 71, 17
14, 173068, Note_off_c, 12, 68, 17
14, 173068, Note_off_c, 12, 64, 17
14, 173184, Note_on_c, 12, 64, 127
14, 173184, Note_on_c, 12, 68, 127
14, 173184, Note_on_c, 12, 71, 122
14, 173420, Note_off_c, 12, 68, 17
14, 173420, Note_off_c, 12, 64, 17
14, 173420, Note_off_c, 12, 71, 17
14, 173424, Note_on_c, 12, 63, 126
14, 173424, Note_on_c, 12, 66, 126
14, 173424, Note_on_c, 12, 71, 126
14, 173428, Note_off_c, 12, 71, 17
14, 173428, Note_off_c, 12, 66, 17
14, 173428, Note_off_c, 12, 63, 17
14, 173544, Note_on_c, 12, 63, 127
14, 173544, Note_on_c, 12, 66, 127
14, 173544, Note_on_c, 12, 71, 127
14, 173697, Note_off_c, 12, 63, 17
14, 173701, Note_off_c, 12, 71, 17
14, 173705, Note_off_c, 12, 66, 17
14, 173784, Note_on_c, 12, 64, 127
14, 173784, Note_on_c, 12, 68, 127
14, 173784, Note_on_c, 12, 71, 114
14, 174077, Note_off_c, 12, 64, 17
14, 174079, Note_off_c, 12, 71, 17
14, 174092, Note_off_c, 12, 68, 17
14, 174504, Note_on_c, 12, 64, 126
14, 174504, Note_on_c, 12, 68, 126
14, 174504, Note_on_c, 12, 71, 126
14, 174508, Note_off_c, 12, 71, 17
14, 174508, Note_off_c, 12, 68, 17
14, 174508, Note_off_c, 12, 64, 17
14, 174624, Note_on_c, 12, 64, 126
14, 174624, Note_on_c, 12, 68, 126
14, 174624, Note_on_c, 12, 71, 126
14, 174628, Note_off_c, 12, 71, 17
14, 174628, Note_off_c, 12, 64, 17
14, 174628, Note_off_c, 12, 68, 17
14, 174744, Note_on_c, 12, 64, 127
14, 174744, Note_on_c, 12, 68, 127
14, 174744, Note_on_c, 12, 71, 125
14, 174980, Note_off_c, 12, 71, 17
14, 174980, Note_off_c, 12, 64, 17
14, 174980, Note_off_c, 12, 68, 17
14, 174984, Note_on_c, 12, 64, 92
14, 174984, Note_on_c, 12, 68, 92
14, 174984, Note_on_c, 12, 71, 92
14, 174988, Note_off_c, 12, 71, 17
14, 174988, Note_off_c, 12, 68, 17
14, 174988, Note_off_c, 12, 64, 17
14, 175104, Note_on_c, 12, 64, 127
14, 175104, Note_on_c, 12, 68, 127
14, 175104, Note_on_c, 12, 71, 122
14, 175340, Note_off_c, 12, 64, 17
14, 175340, Note_off_c, 12, 71, 17
14, 175340, Note_off_c, 12, 68, 17
14, 175344, Note_on_c, 12, 63, 126
14, 175344, Note_on_c, 12, 66, 126
14, 175344, Note_on_c, 12, 71, 126
14, 175348, Note_off_c, 12, 71, 17
14, 175348, Note_off_c, 12, 63, 17
14, 175348, Note_off_c, 12, 66, 17
14, 175464, Note_on_c, 12, 63, 127
14, 175464, Note_on_c, 12, 66, 127
14, 175464, Note_on_c, 12, 71, 127
14, 175617, Note_off_c, 12, 63, 17
14, 175621, Note_off_c, 12, 71, 17
14, 175625, Note_off_c, 12, 66, 17
14, 175704, Note_on_c, 12, 64, 127
14, 175704, Note_on_c, 12, 68, 127
14, 175704, Note_on_c, 12, 71, 114
14, 175997, Note_off_c, 12, 64, 17
14, 175999, Note_off_c, 12, 71, 17
14, 176012, Note_off_c, 12, 68, 17
14, 176184, Note_on_c, 12, 64, 127
14, 176184, Note_on_c, 12, 68, 127
14, 176184, Note_on_c, 12, 71, 127
14, 176442, Note_off_c, 12, 64, 17
14, 176443, Note_off_c, 12, 68, 17
14, 176450, Note_off_c, 12, 71, 17
14, 176664, Note_on_c, 12, 64, 127
14, 176664, Note_on_c, 12, 68, 127
14, 176664, Note_on_c, 12, 71, 125
14, 176900, Note_off_c, 12, 68, 17
14, 176900, Note_off_c, 12, 71, 17
14, 176900, Note_off_c, 12, 64, 17
14, 176904, Note_on_c, 12, 64, 92
14, 176904, Note_on_c, 12, 68, 92
14, 176904, Note_on_c, 12, 71, 92
14, 176908, Note_off_c, 12, 71, 17
14, 176908, Note_off_c, 12, 68, 17
14, 176908, Note_off_c, 12, 64, 17
14, 177024, Note_on_c, 12, 64, 127
14, 177024, Note_on_c, 12, 68, 127
14, 177024, Note_on_c, 12, 71, 122
14, 177260, Note_off_c, 12, 68, 17
14, 177260, Note_off_c, 12, 71, 17
14, 177260, Note_off_c, 12, 64, 17
14, 177264, Note_on_c, 12, 63, 126
14, 177264, Note_on_c, 12, 66, 126
14, 177264, Note_on_c, 12, 71, 126
14, 177268, Note_off_c, 12, 71, 17
14, 177268, Note_off_c, 12, 66, 17
14, 177268, Note_off_c, 12, 63, 17
14, 177384, Note_on_c, 12, 63, 127
14, 177384, Note_on_c, 12, 66, 127
14, 177384, Note_on_c, 12, 71, 127
14, 177537, Note_off_c, 12, 63, 17
14, 177541, Note_off_c, 12, 71, 17
14, 177545, Note_off_c, 12, 66, 17
14, 177624, Note_on_c, 12, 64, 127
14, 177624, Note_on_c, 12, 68, 127
14, 177624, Note_on_c, 12, 71, 114
14, 177917, Note_off_c, 12, 64, 17
14, 177919, Note_off_c, 12, 71, 17
14, 177932, Note_off_c, 12, 68, 17
14, 178344, Note_on_c, 12, 64, 126
14, 178344, Note_on_c, 12, 68, 126
14, 178344, Note_on_c, 12, 71, 126
14, 178348, Note_off_c, 12, 71, 17
14, 178348, Note_off_c, 12, 68, 17
14, 178348, Note_off_c, 12, 64, 17
14, 178464, Note_on_c, 12, 64, 126
14, 178464, Note_on_c, 12, 68, 126
14, 178464, Note_on_c, 12, 71, 126
14, 178468, Note_off_c, 12, 71, 17
14, 178468, Note_off_c, 12, 64, 17
14, 178468, Note_off_c, 12, 68, 17
14, 178584, Note_on_c, 12, 64, 127
14, 178584, Note_on_c, 12, 68, 127
14, 178584, Note_on_c, 12, 71, 125
14, 178820, Note_off_c, 12, 64, 17
14, 178820, Note_off_c, 12, 71, 17
14, 178820, Note_off_c, 12, 68, 17
14, 178824, Note_on_c, 12, 64, 92
14, 178824, Note_on_c, 12, 68, 92
14, 178824, Note_on_c, 12, 71, 92
14, 178828, Note_off_c, 12, 71, 17
14, 178828, Note_off_c, 12, 68, 17
14, 178828, Note_off_c, 12, 64, 17
14, 178944, Note_on_c, 12, 64, 127
14, 178944, Note_on_c, 12, 68, 127
14, 178944, Note_on_c, 12, 71, 122
14, 179180, Note_off_c, 12, 64, 17
14, 179180, Note_off_c, 12, 71, 17
14, 179180, Note_off_c, 12, 68, 17
14, 179184, Note_on_c, 12, 63, 126
14, 179184, Note_on_c, 12, 66, 126
14, 179184, Note_on_c, 12, 71, 126
14, 179188, Note_off_c, 12, 71, 17
14, 179188, Note_off_c, 12, 66, 17
14, 179188, Note_off_c, 12, 63, 17
14, 179304, Note_on_c, 12, 63, 127
14, 179304, Note_on_c, 12, 66, 127
14, 179304, Note_on_c, 12, 71, 127
14, 179457, Note_off_c, 12, 63, 17
14, 179461, Note_off_c, 12, 71, 17
14, 179465, Note_off_c, 12, 66, 17
14, 179544, Note_on_c, 12, 64, 127
14, 179544, Note_on_c, 12, 68, 127
14, 179544, Note_on_c, 12, 71, 114
14, 179837, Note_off_c, 12, 64, 17
14, 179839, Note_off_c, 12, 71, 17
14, 179852, Note_off_c, 12, 68, 17
14, 180024, Note_on_c, 12, 64, 127
14, 180024, Note_on_c, 12, 68, 127
14, 180024, Note_on_c, 12, 71, 127
14, 180282, Note_off_c, 12, 64, 17
14, 180283, Note_off_c, 12, 68, 17
14, 180290, Note_off_c, 12, 71, 17
14, 180504, Note_on_c, 12, 64, 127
14, 180504, Note_on_c, 12, 68, 127
14, 180504, Note_on_c, 12, 73, 125
14, 180740, Note_off_c, 12, 68, 17
14, 180740, Note_off_c, 12, 73, 17
14, 180740, Note_off_c, 12, 64, 17
14, 180744, Note_on_c, 12, 64, 92
14, 180744, Note_on_c, 12, 68, 92
14, 180744, Note_on_c, 12, 73, 92
14, 180748, Note_off_c, 12, 73, 17
14, 180748, Note_off_c, 12, 68, 17
14, 180748, Note_off_c, 12, 64, 17
14, 180864, Note_on_c, 12, 64, 127
14, 180864, Note_on_c, 12, 68, 127
14, 180864, Note_on_c, 12, 73, 122
14, 181100, Note_off_c, 12, 64, 17
14, 181100, Note_off_c, 12, 73, 17
14, 181100, Note_off_c, 12, 68, 17
14, 181104, Note_on_c, 12, 64, 126
14, 181104, Note_on_c, 12, 68, 126
14, 181104, Note_on_c, 12, 73, 126
14, 181108, Note_off_c, 12, 73, 17
14, 181108, Note_off_c, 12, 68, 17
14, 181108, Note_off_c, 12, 64, 17
14, 181224, Note_on_c, 12, 64, 127
14, 181224, Note_on_c, 12, 68, 127
14, 181224, Note_on_c, 12, 73, 127
14, 181377, Note_off_c, 12, 64, 17
14, 181381, Note_off_c, 12, 73, 17
14, 181385, Note_off_c, 12, 68, 17
14, 181464, Note_on_c, 12, 64, 127
14, 181464, Note_on_c, 12, 68, 127
14, 181464, Note_on_c, 12, 73, 114
14, 181757, Note_off_c, 12, 64, 17
14, 181759, Note_off_c, 12, 73, 17
14, 181772, Note_off_c, 12, 68, 17
14, 181944, Note_on_c, 12, 64, 126
14, 181944, Note_on_c, 12, 68, 126
14, 181944, Note_on_c, 12, 73, 126
14, 181948, Note_off_c, 12, 73, 17
14, 181948, Note_off_c, 12, 68, 17
14, 181948, Note_off_c, 12, 64, 17
14, 182184, Note_on_c, 12, 64, 126
14, 182184, Note_on_c, 12, 68, 126
14, 182184, Note_on_c, 12, 73, 126
14, 182188, Note_off_c, 12, 73, 17
14, 182188, Note_off_c, 12, 68, 17
14, 182188, Note_off_c, 12, 64, 17
14, 182304, Note_on_c, 12, 64, 126
14, 182304, Note_on_c, 12, 68, 126
14, 182304, Note_on_c, 12, 73, 126
14, 182308, Note_off_c, 12, 73, 17
14, 182308, Note_off_c, 12, 64, 17
14, 182308, Note_off_c, 12, 68, 17
14, 182424, Note_on_c, 12, 63, 127
14, 182424, Note_on_c, 12, 66, 127
14, 182424, Note_on_c, 12, 71, 125
14, 182660, Note_off_c, 12, 66, 17
14, 182660, Note_off_c, 12, 71, 17
14, 182660, Note_off_c, 12, 63, 17
14, 182664, Note_on_c, 12, 63, 92
14, 182664, Note_on_c, 12, 66, 92
14, 182664, Note_on_c, 12, 71, 92
14, 182668, Note_off_c, 12, 71, 17
14, 182668, Note_off_c, 12, 66, 17
14, 182668, Note_off_c, 12, 63, 17
14, 182784, Note_on_c, 12, 63, 127
14, 182784, Note_on_c, 12, 66, 127
14, 182784, Note_on_c, 12, 71, 122
14, 183020, Note_off_c, 12, 71, 17
14, 183020, Note_off_c, 12, 66, 17
14, 183020, Note_off_c, 12, 63, 17
14, 183024, Note_on_c, 12, 63, 126
14, 183024, Note_on_c, 12, 66, 126
14, 183024, Note_on_c, 12, 71, 126
14, 183028, Note_off_c, 12, 71, 17
14, 183028, Note_off_c, 12, 63, 17
14, 183028, Note_off_c, 12, 66, 17
14, 183144, Note_on_c, 12, 63, 127
14, 183144, Note_on_c, 12, 66, 127
14, 183144, Note_on_c, 12, 71, 127
14, 183297, Note_off_c, 12, 63, 17
14, 183301, Note_off_c, 12, 71, 17
14, 183305, Note_off_c, 12, 66, 17
14, 183384, Note_on_c, 12, 64, 127
14, 183384, Note_on_c, 12, 68, 127
14, 183384, Note_on_c, 12, 71, 114
14, 183677, Note_off_c, 12, 64, 17
14, 183679, Note_off_c, 12, 71, 17
14, 183692, Note_off_c, 12, 68, 17
14, 183864, Note_on_c, 12, 63, 126
14, 183864, Note_on_c, 12, 66, 126
14, 183864, Note_on_c, 12, 71, 126
14, 184220, Note_off_c, 12, 63, 17
14, 184220, Note_off_c, 12, 71, 17
14, 184220, Note_off_c, 12, 66, 17
14, 184224, Note_on_c, 12, 63, 126
14, 184224, Note_on_c, 12, 66, 126
14, 184224, Note_on_c, 12, 71, 126
14, 184228, Note_off_c, 12, 71, 17
14, 184228, Note_off_c, 12, 63, 17
14, 184228, Note_off_c, 12, 66, 17
14, 184344, Note_on_c, 12, 64, 127
14, 184344, Note_on_c, 12, 68, 127
14, 184344, Note_on_c, 12, 71, 125
14, 184580, Note_off_c, 12, 64, 17
14, 184580, Note_off_c, 12, 71, 17
14, 184580, Note_off_c, 12, 68, 17
14, 184584, Note_on_c, 12, 64, 92
14, 184584, Note_on_c, 12, 68, 92
14, 184584, Note_on_c, 12, 71, 92
14, 184588, Note_off_c, 12, 71, 17
14, 184588, Note_off_c, 12, 68, 17
14, 184588, Note_off_c, 12, 64, 17
14, 184704, Note_on_c, 12, 64, 127
14, 184704, Note_on_c, 12, 68, 127
14, 184704, Note_on_c, 12, 71, 122
14, 184940, Note_off_c, 12, 71, 17
14, 184940, Note_off_c, 12, 68, 17
14, 184940, Note_off_c, 12, 64, 17
14, 184944, Note_on_c, 12, 63, 126
14, 184944, Note_on_c, 12, 66, 126
14, 184944, Note_on_c, 12, 71, 126
14, 184948, Note_off_c, 12, 71, 17
14, 184948, Note_off_c, 12, 63, 17
14, 184948, Note_off_c, 12, 66, 17
14, 185064, Note_on_c, 12, 63, 127
14, 185064, Note_on_c, 12, 66, 127
14, 185064, Note_on_c, 12, 71, 127
14, 185217, Note_off_c, 12, 63, 17
14, 185221, Note_off_c, 12, 71, 17
14, 185225, Note_off_c, 12, 66, 17
14, 185304, Note_on_c, 12, 64, 127
14, 185304, Note_on_c, 12, 68, 127
14, 185304, Note_on_c, 12, 71, 114
14, 185597, Note_off_c, 12, 64, 17
14, 185599, Note_off_c, 12, 71, 17
14, 185612, Note_off_c, 12, 68, 17
14, 186024, Note_on_c, 12, 64, 126
14, 186024, Note_on_c, 12, 68, 126
14, 186024, Note_on_c, 12, 71, 126
14, 186028, Note_off_c, 12, 71, 17
14, 186028, Note_off_c, 12, 68, 17
14, 186028, Note_off_c, 12, 64, 17
14, 186144, Note_on_c, 12, 64, 126
14, 186144, Note_on_c, 12, 68, 126
14, 186144, Note_on_c, 12, 71, 126
14, 186148, Note_off_c, 12, 71, 17
14, 186148, Note_off_c, 12, 64, 17
14, 186148, Note_off_c, 12, 68, 17
14, 186264, Note_on_c, 12, 64, 127
14, 186264, Note_on_c, 12, 68, 127
14, 186264, Note_on_c, 12, 71, 125
14, 186500, Note_off_c, 12, 64, 17
14, 186500, Note_off_c, 12, 71, 17
14, 186500, Note_off_c, 12, 68, 17
14, 186504, Note_on_c, 12, 64, 92
14, 186504, Note_on_c, 12, 68, 92
14, 186504, Note_on_c, 12, 71, 92
14, 186508, Note_off_c, 12, 71, 17
14, 186508, Note_off_c, 12, 64, 17
14, 186508, Note_off_c, 12, 68, 17
14, 186624, Note_on_c, 12, 64, 127
14, 186624, Note_on_c, 12, 68, 127
14, 186624, Note_on_c, 12, 71, 122
14, 186860, Note_off_c, 12, 68, 17
14, 186860, Note_off_c, 12, 71, 17
14, 186860, Note_off_c, 12, 64, 17
14, 186864, Note_on_c, 12, 63, 126
14, 186864, Note_on_c, 12, 66, 126
14, 186864, Note_on_c, 12, 71, 126
14, 186868, Note_off_c, 12, 71, 17
14, 186868, Note_off_c, 12, 66, 17
14, 186868, Note_off_c, 12, 63, 17
14, 186984, Note_on_c, 12, 63, 127
14, 186984, Note_on_c, 12, 66, 127
14, 186984, Note_on_c, 12, 71, 127
14, 187137, Note_off_c, 12, 63, 17
14, 187141, Note_off_c, 12, 71, 17
14, 187145, Note_off_c, 12, 66, 17
14, 187224, Note_on_c, 12, 64, 127
14, 187224, Note_on_c, 12, 68, 127
14, 187224, Note_on_c, 12, 71, 114
14, 187517, Note_off_c, 12, 64, 17
14, 187519, Note_off_c, 12, 71, 17
14, 187532, Note_off_c, 12, 68, 17
14, 187704, Note_on_c, 12, 64, 127
14, 187704, Note_on_c, 12, 68, 127
14, 187704, Note_on_c, 12, 71, 127
14, 187962, Note_off_c, 12, 64, 17
14, 187963, Note_off_c, 12, 68, 17
14, 187970, Note_off_c, 12, 71, 17
14, 190566, Control_c, 12, 123, 0
14, 190926, Control_c, 12, 120, 0
14, 190932, End_track
15, 0, Start_track
15, 0, MIDI_port, 0
15, 0, Title_t, "Muted Gt."
15, 276, Control_c, 13, 121, 0
15, 326, Program_c, 13, 28
15, 406, Control_c, 13, 7, 97
15, 438, Control_c, 13, 10, 61
15, 470, Control_c, 13, 11, 127
15, 502, Control_c, 13, 91, 93
15, 534, Control_c, 13, 93, 34
15, 566, Control_c, 13, 1, 0
15, 598, Control_c, 13, 64, 0
15, 630, Control_c, 13, 71, 64
15, 662, Control_c, 13, 72, 64
15, 694, Control_c, 13, 73, 64
15, 726, Control_c, 13, 74, 64
15, 758, Control_c, 13, 94, 0
15, 790, Pitch_bend_c, 13, 8192
15, 930, Control_c, 13, 99, 1
15, 930, Control_c, 13, 98, 100
15, 930, Control_c, 13, 6, 73
15, 930, Control_c, 13, 38, 0
15, 993, Control_c, 13, 99, 1
15, 993, Control_c, 13, 98, 33
15, 993, Control_c, 13, 6, 80
15, 993, Control_c, 13, 38, 0
15, 11520, Note_on_c, 13, 40, 122
15, 11756, Note_off_c, 13, 40, 17
15, 11760, Note_on_c, 13, 40, 119
15, 11996, Note_off_c, 13, 40, 17
15, 12000, Note_on_c, 13, 40, 119
15, 12236, Note_off_c, 13, 40, 17
15, 12240, Note_on_c, 13, 40, 114
15, 12476, Note_off_c, 13, 40, 17
15, 12480, Note_on_c, 13, 40, 122
15, 12716, Note_off_c, 13, 40, 17
15, 12720, Note_on_c, 13, 40, 119
15, 12956, Note_off_c, 13, 40, 17
15, 12960, Note_on_c, 13, 40, 125
15, 13196, Note_off_c, 13, 40, 17
15, 13200, Note_on_c, 13, 40, 119
15, 13436, Note_off_c, 13, 40, 17
15, 13440, Note_on_c, 13, 40, 114
15, 13676, Note_off_c, 13, 40, 17
15, 13680, Note_on_c, 13, 40, 114
15, 13916, Note_off_c, 13, 40, 17
15, 13920, Note_on_c, 13, 40, 119
15, 14156, Note_off_c, 13, 40, 17
15, 14160, Note_on_c, 13, 40, 117
15, 14396, Note_off_c, 13, 40, 17
15, 14400, Note_on_c, 13, 40, 111
15, 14636, Note_off_c, 13, 40, 17
15, 14640, Note_on_c, 13, 40, 117
15, 14876, Note_off_c, 13, 40, 17
15, 14880, Note_on_c, 13, 40, 119
15, 15116, Note_off_c, 13, 40, 17
15, 15120, Note_on_c, 13, 40, 117
15, 15356, Note_off_c, 13, 40, 17
15, 15360, Note_on_c, 13, 40, 122
15, 15596, Note_off_c, 13, 40, 17
15, 15600, Note_on_c, 13, 40, 119
15, 15836, Note_off_c, 13, 40, 17
15, 15840, Note_on_c, 13, 40, 119
15, 16076, Note_off_c, 13, 40, 17
15, 16080, Note_on_c, 13, 40, 114
15, 16316, Note_off_c, 13, 40, 17
15, 16320, Note_on_c, 13, 40, 122
15, 16556, Note_off_c, 13, 40, 17
15, 16560, Note_on_c, 13, 40, 119
15, 16796, Note_off_c, 13, 40, 17
15, 16800, Note_on_c, 13, 40, 125
15, 17036, Note_off_c, 13, 40, 17
15, 17040, Note_on_c, 13, 40, 119
15, 17276, Note_off_c, 13, 40, 17
15, 17280, Note_on_c, 13, 40, 114
15, 17516, Note_off_c, 13, 40, 17
15, 17520, Note_on_c, 13, 40, 114
15, 17756, Note_off_c, 13, 40, 17
15, 17760, Note_on_c, 13, 40, 119
15, 17996, Note_off_c, 13, 40, 17
15, 18000, Note_on_c, 13, 40, 117
15, 18236, Note_off_c, 13, 40, 17
15, 18240, Note_on_c, 13, 40, 111
15, 18476, Note_off_c, 13, 40, 17
15, 18480, Note_on_c, 13, 40, 117
15, 18716, Note_off_c, 13, 40, 17
15, 18720, Note_on_c, 13, 40, 119
15, 18956, Note_off_c, 13, 40, 17
15, 18960, Note_on_c, 13, 40, 117
15, 19196, Note_off_c, 13, 40, 17
15, 19200, Note_on_c, 13, 45, 122
15, 19436, Note_off_c, 13, 45, 17
15, 19440, Note_on_c, 13, 45, 119
15, 19676, Note_off_c, 13, 45, 17
15, 19680, Note_on_c, 13, 45, 119
15, 19916, Note_off_c, 13, 45, 17
15, 19920, Note_on_c, 13, 45, 114
15, 20156, Note_off_c, 13, 45, 17
15, 20160, Note_on_c, 13, 45, 122
15, 20396, Note_off_c, 13, 45, 17
15, 20400, Note_on_c, 13, 45, 119
15, 20636, Note_off_c, 13, 45, 17
15, 20640, Note_on_c, 13, 45, 125
15, 20876, Note_off_c, 13, 45, 17
15, 20880, Note_on_c, 13, 45, 119
15, 21116, Note_off_c, 13, 45, 17
15, 21120, Note_on_c, 13, 45, 114
15, 21356, Note_off_c, 13, 45, 17
15, 21360, Note_on_c, 13, 45, 114
15, 21596, Note_off_c, 13, 45, 17
15, 21600, Note_on_c, 13, 45, 119
15, 21836, Note_off_c, 13, 45, 17
15, 21840, Note_on_c, 13, 45, 117
15, 22076, Note_off_c, 13, 45, 17
15, 22080, Note_on_c, 13, 45, 111
15, 22316, Note_off_c, 13, 45, 17
15, 22320, Note_on_c, 13, 45, 117
15, 22556, Note_off_c, 13, 45, 17
15, 22560, Note_on_c, 13, 45, 119
15, 22796, Note_off_c, 13, 45, 17
15, 22800, Note_on_c, 13, 45, 117
15, 23036, Note_off_c, 13, 45, 17
15, 23040, Note_on_c, 13, 40, 122
15, 23276, Note_off_c, 13, 40, 17
15, 23280, Note_on_c, 13, 40, 119
15, 23516, Note_off_c, 13, 40, 17
15, 23520, Note_on_c, 13, 40, 119
15, 23756, Note_off_c, 13, 40, 17
15, 23760, Note_on_c, 13, 40, 114
15, 23996, Note_off_c, 13, 40, 17
15, 24000, Note_on_c, 13, 40, 122
15, 24236, Note_off_c, 13, 40, 17
15, 24240, Note_on_c, 13, 40, 119
15, 24476, Note_off_c, 13, 40, 17
15, 24480, Note_on_c, 13, 40, 125
15, 24716, Note_off_c, 13, 40, 17
15, 24720, Note_on_c, 13, 40, 119
15, 24956, Note_off_c, 13, 40, 17
15, 24960, Note_on_c, 13, 40, 114
15, 25196, Note_off_c, 13, 40, 17
15, 25200, Note_on_c, 13, 40, 114
15, 25436, Note_off_c, 13, 40, 17
15, 25440, Note_on_c, 13, 40, 119
15, 25676, Note_off_c, 13, 40, 17
15, 25680, Note_on_c, 13, 40, 117
15, 25916, Note_off_c, 13, 40, 17
15, 25920, Note_on_c, 13, 40, 111
15, 26156, Note_off_c, 13, 40, 17
15, 26160, Note_on_c, 13, 40, 117
15, 26396, Note_off_c, 13, 40, 17
15, 26400, Note_on_c, 13, 40, 119
15, 26636, Note_off_c, 13, 40, 17
15, 26640, Note_on_c, 13, 40, 117
15, 26876, Note_off_c, 13, 40, 17
15, 26880, Note_on_c, 13, 40, 122
15, 27116, Note_off_c, 13, 40, 17
15, 27120, Note_on_c, 13, 40, 119
15, 27356, Note_off_c, 13, 40, 17
15, 27360, Note_on_c, 13, 40, 119
15, 27596, Note_off_c, 13, 40, 17
15, 27600, Note_on_c, 13, 40, 114
15, 27836, Note_off_c, 13, 40, 17
15, 27840, Note_on_c, 13, 40, 122
15, 28076, Note_off_c, 13, 40, 17
15, 28080, Note_on_c, 13, 40, 119
15, 28316, Note_off_c, 13, 40, 17
15, 28320, Note_on_c, 13, 40, 125
15, 28556, Note_off_c, 13, 40, 17
15, 28560, Note_on_c, 13, 40, 119
15, 28796, Note_off_c, 13, 40, 17
15, 28800, Note_on_c, 13, 40, 114
15, 29036, Note_off_c, 13, 40, 17
15, 29040, Note_on_c, 13, 40, 114
15, 29276, Note_off_c, 13, 40, 17
15, 29280, Note_on_c, 13, 40, 119
15, 29516, Note_off_c, 13, 40, 17
15, 29520, Note_on_c, 13, 40, 117
15, 29756, Note_off_c, 13, 40, 17
15, 29760, Note_on_c, 13, 40, 111
15, 29996, Note_off_c, 13, 40, 17
15, 30000, Note_on_c, 13, 40, 117
15, 30236, Note_off_c, 13, 40, 17
15, 30240, Note_on_c, 13, 40, 119
15, 30476, Note_off_c, 13, 40, 17
15, 30480, Note_on_c, 13, 40, 117
15, 30716, Note_off_c, 13, 40, 17
15, 30720, Note_on_c, 13, 40, 122
15, 30956, Note_off_c, 13, 40, 17
15, 30960, Note_on_c, 13, 40, 119
15, 31196, Note_off_c, 13, 40, 17
15, 31200, Note_on_c, 13, 40, 119
15, 31436, Note_off_c, 13, 40, 17
15, 31440, Note_on_c, 13, 40, 114
15, 31676, Note_off_c, 13, 40, 17
15, 31680, Note_on_c, 13, 40, 122
15, 31916, Note_off_c, 13, 40, 17
15, 31920, Note_on_c, 13, 40, 119
15, 32156, Note_off_c, 13, 40, 17
15, 32160, Note_on_c, 13, 40, 125
15, 32396, Note_off_c, 13, 40, 17
15, 32400, Note_on_c, 13, 40, 119
15, 32636, Note_off_c, 13, 40, 17
15, 32640, Note_on_c, 13, 40, 114
15, 32876, Note_off_c, 13, 40, 17
15, 32880, Note_on_c, 13, 40, 114
15, 33116, Note_off_c, 13, 40, 17
15, 33120, Note_on_c, 13, 40, 119
15, 33356, Note_off_c, 13, 40, 17
15, 33360, Note_on_c, 13, 40, 117
15, 33596, Note_off_c, 13, 40, 17
15, 33600, Note_on_c, 13, 40, 111
15, 33836, Note_off_c, 13, 40, 17
15, 33840, Note_on_c, 13, 40, 117
15, 34076, Note_off_c, 13, 40, 17
15, 34080, Note_on_c, 13, 40, 119
15, 34316, Note_off_c, 13, 40, 17
15, 34320, Note_on_c, 13, 40, 117
15, 34556, Note_off_c, 13, 40, 17
15, 34560, Note_on_c, 13, 45, 122
15, 34796, Note_off_c, 13, 45, 17
15, 34800, Note_on_c, 13, 45, 119
15, 35036, Note_off_c, 13, 45, 17
15, 35040, Note_on_c, 13, 45, 119
15, 35276, Note_off_c, 13, 45, 17
15, 35280, Note_on_c, 13, 45, 114
15, 35516, Note_off_c, 13, 45, 17
15, 35520, Note_on_c, 13, 45, 122
15, 35756, Note_off_c, 13, 45, 17
15, 35760, Note_on_c, 13, 45, 119
15, 35996, Note_off_c, 13, 45, 17
15, 36000, Note_on_c, 13, 45, 125
15, 36236, Note_off_c, 13, 45, 17
15, 36240, Note_on_c, 13, 45, 119
15, 36476, Note_off_c, 13, 45, 17
15, 36480, Note_on_c, 13, 45, 114
15, 36716, Note_off_c, 13, 45, 17
15, 36720, Note_on_c, 13, 45, 114
15, 36956, Note_off_c, 13, 45, 17
15, 36960, Note_on_c, 13, 45, 119
15, 37196, Note_off_c, 13, 45, 17
15, 37200, Note_on_c, 13, 45, 117
15, 37436, Note_off_c, 13, 45, 17
15, 37440, Note_on_c, 13, 45, 111
15, 37676, Note_off_c, 13, 45, 17
15, 37680, Note_on_c, 13, 45, 117
15, 37916, Note_off_c, 13, 45, 17
15, 37920, Note_on_c, 13, 45, 119
15, 38156, Note_off_c, 13, 45, 17
15, 38160, Note_on_c, 13, 45, 117
15, 38396, Note_off_c, 13, 45, 17
15, 38400, Note_on_c, 13, 40, 122
15, 38636, Note_off_c, 13, 40, 17
15, 38640, Note_on_c, 13, 40, 119
15, 38876, Note_off_c, 13, 40, 17
15, 38880, Note_on_c, 13, 40, 119
15, 39116, Note_off_c, 13, 40, 17
15, 39120, Note_on_c, 13, 40, 114
15, 39356, Note_off_c, 13, 40, 17
15, 39360, Note_on_c, 13, 40, 122
15, 39596, Note_off_c, 13, 40, 17
15, 39600, Note_on_c, 13, 40, 119
15, 39836, Note_off_c, 13, 40, 17
15, 39840, Note_on_c, 13, 40, 125
15, 40076, Note_off_c, 13, 40, 17
15, 40080, Note_on_c, 13, 40, 119
15, 40316, Note_off_c, 13, 40, 17
15, 40320, Note_on_c, 13, 40, 114
15, 40556, Note_off_c, 13, 40, 17
15, 40560, Note_on_c, 13, 40, 114
15, 40796, Note_off_c, 13, 40, 17
15, 40800, Note_on_c, 13, 40, 119
15, 41036, Note_off_c, 13, 40, 17
15, 41040, Note_on_c, 13, 40, 117
15, 41276, Note_off_c, 13, 40, 17
15, 41280, Note_on_c, 13, 40, 111
15, 41516, Note_off_c, 13, 40, 17
15, 41520, Note_on_c, 13, 40, 117
15, 41756, Note_off_c, 13, 40, 17
15, 41760, Note_on_c, 13, 40, 119
15, 41996, Note_off_c, 13, 40, 17
15, 42000, Note_on_c, 13, 40, 117
15, 42164, Note_off_c, 13, 40, 17
15, 76800, Note_on_c, 13, 40, 122
15, 77036, Note_off_c, 13, 40, 17
15, 77040, Note_on_c, 13, 40, 119
15, 77276, Note_off_c, 13, 40, 17
15, 77280, Note_on_c, 13, 40, 119
15, 77516, Note_off_c, 13, 40, 17
15, 77520, Note_on_c, 13, 40, 114
15, 77756, Note_off_c, 13, 40, 17
15, 77760, Note_on_c, 13, 40, 122
15, 77996, Note_off_c, 13, 40, 17
15, 78000, Note_on_c, 13, 40, 119
15, 78236, Note_off_c, 13, 40, 17
15, 78240, Note_on_c, 13, 40, 125
15, 78476, Note_off_c, 13, 40, 17
15, 78480, Note_on_c, 13, 40, 119
15, 78716, Note_off_c, 13, 40, 17
15, 78720, Note_on_c, 13, 40, 114
15, 78956, Note_off_c, 13, 40, 17
15, 78960, Note_on_c, 13, 40, 114
15, 79196, Note_off_c, 13, 40, 17
15, 79200, Note_on_c, 13, 40, 119
15, 79436, Note_off_c, 13, 40, 17
15, 79440, Note_on_c, 13, 40, 117
15, 79676, Note_off_c, 13, 40, 17
15, 79680, Note_on_c, 13, 40, 111
15, 79916, Note_off_c, 13, 40, 17
15, 79920, Note_on_c, 13, 40, 117
15, 80156, Note_off_c, 13, 40, 17
15, 80160, Note_on_c, 13, 40, 119
15, 80396, Note_off_c, 13, 40, 17
15, 80400, Note_on_c, 13, 40, 117
15, 80636, Note_off_c, 13, 40, 17
15, 80640, Note_on_c, 13, 40, 122
15, 80876, Note_off_c, 13, 40, 17
15, 80880, Note_on_c, 13, 40, 119
15, 81116, Note_off_c, 13, 40, 17
15, 81120, Note_on_c, 13, 40, 119
15, 81356, Note_off_c, 13, 40, 17
15, 81360, Note_on_c, 13, 40, 114
15, 81596, Note_off_c, 13, 40, 17
15, 81600, Note_on_c, 13, 40, 122
15, 81836, Note_off_c, 13, 40, 17
15, 81840, Note_on_c, 13, 40, 119
15, 82076, Note_off_c, 13, 40, 17
15, 82080, Note_on_c, 13, 40, 125
15, 82316, Note_off_c, 13, 40, 17
15, 82320, Note_on_c, 13, 40, 119
15, 82556, Note_off_c, 13, 40, 17
15, 82560, Note_on_c, 13, 40, 114
15, 82796, Note_off_c, 13, 40, 17
15, 82800, Note_on_c, 13, 40, 114
15, 83036, Note_off_c, 13, 40, 17
15, 83040, Note_on_c, 13, 40, 119
15, 83276, Note_off_c, 13, 40, 17
15, 83280, Note_on_c, 13, 40, 117
15, 83516, Note_off_c, 13, 40, 17
15, 83520, Note_on_c, 13, 40, 111
15, 83756, Note_off_c, 13, 40, 17
15, 83760, Note_on_c, 13, 40, 117
15, 83996, Note_off_c, 13, 40, 17
15, 84000, Note_on_c, 13, 40, 119
15, 84236, Note_off_c, 13, 40, 17
15, 84240, Note_on_c, 13, 40, 117
15, 84476, Note_off_c, 13, 40, 17
15, 84480, Note_on_c, 13, 45, 122
15, 84716, Note_off_c, 13, 45, 17
15, 84720, Note_on_c, 13, 45, 119
15, 84956, Note_off_c, 13, 45, 17
15, 84960, Note_on_c, 13, 45, 119
15, 85196, Note_off_c, 13, 45, 17
15, 85200, Note_on_c, 13, 45, 114
15, 85436, Note_off_c, 13, 45, 17
15, 85440, Note_on_c, 13, 45, 122
15, 85676, Note_off_c, 13, 45, 17
15, 85680, Note_on_c, 13, 45, 119
15, 85916, Note_off_c, 13, 45, 17
15, 85920, Note_on_c, 13, 45, 125
15, 86156, Note_off_c, 13, 45, 17
15, 86160, Note_on_c, 13, 45, 119
15, 86396, Note_off_c, 13, 45, 17
15, 86400, Note_on_c, 13, 45, 114
15, 86636, Note_off_c, 13, 45, 17
15, 86640, Note_on_c, 13, 45, 114
15, 86876, Note_off_c, 13, 45, 17
15, 86880, Note_on_c, 13, 45, 119
15, 87116, Note_off_c, 13, 45, 17
15, 87120, Note_on_c, 13, 45, 117
15, 87356, Note_off_c, 13, 45, 17
15, 87360, Note_on_c, 13, 45, 111
15, 87596, Note_off_c, 13, 45, 17
15, 87600, Note_on_c, 13, 45, 117
15, 87836, Note_off_c, 13, 45, 17
15, 87840, Note_on_c, 13, 45, 119
15, 88076, Note_off_c, 13, 45, 17
15, 88080, Note_on_c, 13, 45, 117
15, 88316, Note_off_c, 13, 45, 17
15, 88320, Note_on_c, 13, 40, 122
15, 88556, Note_off_c, 13, 40, 17
15, 88560, Note_on_c, 13, 40, 119
15, 88796, Note_off_c, 13, 40, 17
15, 88800, Note_on_c, 13, 40, 119
15, 89036, Note_off_c, 13, 40, 17
15, 89040, Note_on_c, 13, 40, 114
15, 89276, Note_off_c, 13, 40, 17
15, 89280, Note_on_c, 13, 40, 122
15, 89516, Note_off_c, 13, 40, 17
15, 89520, Note_on_c, 13, 40, 119
15, 89756, Note_off_c, 13, 40, 17
15, 89760, Note_on_c, 13, 40, 125
15, 89996, Note_off_c, 13, 40, 17
15, 90000, Note_on_c, 13, 40, 119
15, 90236, Note_off_c, 13, 40, 17
15, 90240, Note_on_c, 13, 40, 114
15, 90476, Note_off_c, 13, 40, 17
15, 90480, Note_on_c, 13, 40, 114
15, 90716, Note_off_c, 13, 40, 17
15, 90720, Note_on_c, 13, 40, 119
15, 90956, Note_off_c, 13, 40, 17
15, 90960, Note_on_c, 13, 40, 117
15, 91196, Note_off_c, 13, 40, 17
15, 91200, Note_on_c, 13, 40, 111
15, 91436, Note_off_c, 13, 40, 17
15, 91440, Note_on_c, 13, 40, 117
15, 91676, Note_off_c, 13, 40, 17
15, 91680, Note_on_c, 13, 40, 119
15, 91916, Note_off_c, 13, 40, 17
15, 91920, Note_on_c, 13, 40, 117
15, 92084, Note_off_c, 13, 40, 17
15, 190567, Control_c, 13, 123, 0
15, 190927, Control_c, 13, 120, 0
15, 190932, End_track
16, 0, Start_track
16, 0, MIDI_port, 0
16, 0, Title_t, "Piano 1"
16, 280, Control_c, 15, 121, 0
16, 330, Program_c, 15, 0
16, 410, Control_c, 15, 7, 100
16, 442, Control_c, 15, 10, 64
16, 474, Control_c, 15, 11, 127
16, 506, Control_c, 15, 91, 0
16, 538, Control_c, 15, 93, 0
16, 570, Control_c, 15, 1, 0
16, 602, Control_c, 15, 64, 0
16, 634, Control_c, 15, 71, 64
16, 666, Control_c, 15, 72, 64
16, 698, Control_c, 15, 73, 64
16, 730, Control_c, 15, 74, 64
16, 762, Control_c, 15, 94, 0
16, 794, Pitch_bend_c, 15, 8192
16, 3600, Note_on_c, 15, 64, 1
16, 5640, Note_off_c, 15, 64, 17
16, 7440, Note_on_c, 15, 64, 1
16, 9480, Note_off_c, 15, 64, 17
16, 24480, Note_on_c, 15, 71, 1
16, 24956, Note_off_c, 15, 71, 17
16, 26400, Note_on_c, 15, 63, 1
16, 26400, Note_on_c, 15, 66, 1
16, 26400, Note_on_c, 15, 71, 1
16, 27120, Note_off_c, 15, 71, 17
16, 27120, Note_off_c, 15, 66, 17
16, 27120, Note_off_c, 15, 63, 17
16, 27120, Note_on_c, 15, 64, 1
16, 27120, Note_on_c, 15, 68, 1
16, 27120, Note_on_c, 15, 71, 1
16, 27240, Note_off_c, 15, 71, 17
16, 27240, Note_off_c, 15, 68, 17
16, 27240, Note_off_c, 15, 64, 17
16, 30240, Note_on_c, 15, 63, 1
16, 30240, Note_on_c, 15, 66, 1
16, 30240, Note_on_c, 15, 71, 1
16, 30960, Note_off_c, 15, 63, 17
16, 30960, Note_off_c, 15, 71, 17
16, 30960, Note_off_c, 15, 66, 17
16, 30960, Note_on_c, 15, 64, 1
16, 30960, Note_on_c, 15, 68, 1
16, 30960, Note_on_c, 15, 71, 1
16, 31080, Note_off_c, 15, 71, 17
16, 31080, Note_off_c, 15, 68, 17
16, 31080, Note_off_c, 15, 64, 17
16, 34080, Note_on_c, 15, 63, 1
16, 34080, Note_on_c, 15, 66, 1
16, 34080, Note_on_c, 15, 71, 1
16, 34800, Note_off_c, 15, 71, 17
16, 34800, Note_off_c, 15, 66, 17
16, 34800, Note_off_c, 15, 63, 17
16, 34800, Note_on_c, 15, 61, 1
16, 34800, Note_on_c, 15, 64, 1
16, 34800, Note_on_c, 15, 69, 1
16, 34920, Note_off_c, 15, 61, 17
16, 34920, Note_off_c, 15, 69, 17
16, 34920, Note_off_c, 15, 64, 17
16, 39840, Note_on_c, 15, 71, 1
16, 40244, Note_off_c, 15, 71, 17
16, 46320, Note_on_c, 15, 71, 1
16, 46800, Note_off_c, 15, 71, 17
16, 46800, Note_on_c, 15, 64, 1
16, 47520, Note_off_c, 15, 64, 17
16, 47520, Note_on_c, 15, 66, 1
16, 47760, Note_off_c, 15, 66, 17
16, 47760, Note_on_c, 15, 68, 1
16, 48240, Note_off_c, 15, 68, 17
16, 48240, Note_on_c, 15, 71, 1
16, 48720, Note_off_c, 15, 71, 17
16, 48720, Note_on_c, 15, 64, 1
16, 49200, Note_off_c, 15, 64, 17
16, 49200, Note_on_c, 15, 66, 1
16, 49440, Note_off_c, 15, 66, 17
16, 49440, Note_on_c, 15, 68, 1
16, 49680, Note_on_c, 15, 66, 1
16, 49703, Note_off_c, 15, 68, 17
16, 49800, Note_off_c, 15, 66, 17
16, 49800, Note_on_c, 15, 64, 1
16, 50160, Note_off_c, 15, 64, 17
16, 50160, Note_on_c, 15, 71, 1
16, 50640, Note_off_c, 15, 71, 17
16, 50640, Note_on_c, 15, 64, 1
16, 51360, Note_off_c, 15, 64, 17
16, 51360, Note_on_c, 15, 66, 1
16, 51600, Note_off_c, 15, 66, 17
16, 51600, Note_on_c, 15, 68, 1
16, 52080, Note_off_c, 15, 68, 17
16, 52080, Note_on_c, 15, 71, 1
16, 52560, Note_off_c, 15, 71, 17
16, 52560, Note_on_c, 15, 64, 1
16, 53040, Note_off_c, 15, 64, 17
16, 53040, Note_on_c, 15, 66, 1
16, 53280, Note_off_c, 15, 66, 17
16, 53280, Note_on_c, 15, 68, 1
16, 53520, Note_on_c, 15, 66, 1
16, 53543, Note_off_c, 15, 68, 17
16, 53640, Note_off_c, 15, 66, 17
16, 53640, Note_on_c, 15, 64, 1
16, 54000, Note_off_c, 15, 64, 17
16, 54000, Note_on_c, 15, 71, 1
16, 54240, Note_off_c, 15, 71, 17
16, 54240, Note_on_c, 15, 68, 1
16, 54480, Note_off_c, 15, 68, 17
16, 54480, Note_on_c, 15, 73, 1
16, 54720, Note_off_c, 15, 73, 17
16, 54720, Note_on_c, 15, 71, 1
16, 54960, Note_off_c, 15, 71, 17
16, 54960, Note_on_c, 15, 66, 1
16, 55440, Note_off_c, 15, 66, 17
16, 55440, Note_on_c, 15, 64, 1
16, 55920, Note_off_c, 15, 64, 17
16, 55920, Note_on_c, 15, 71, 1
16, 56160, Note_off_c, 15, 71, 17
16, 56160, Note_on_c, 15, 68, 1
16, 56400, Note_off_c, 15, 68, 17
16, 56400, Note_on_c, 15, 73, 1
16, 56640, Note_off_c, 15, 73, 17
16, 56640, Note_on_c, 15, 71, 1
16, 56880, Note_off_c, 15, 71, 17
16, 56880, Note_on_c, 15, 66, 1
16, 57120, Note_off_c, 15, 66, 17
16, 57120, Note_on_c, 15, 68, 1
16, 57240, Note_off_c, 15, 68, 17
16, 57240, Note_on_c, 15, 66, 1
16, 57360, Note_off_c, 15, 66, 17
16, 57360, Note_on_c, 15, 64, 1
16, 57480, Note_off_c, 15, 64, 17
16, 57480, Note_on_c, 15, 66, 1
16, 57600, Note_off_c, 15, 66, 17
16, 57600, Note_on_c, 15, 68, 1
16, 57840, Note_off_c, 15, 68, 17
16, 57840, Note_on_c, 15, 64, 1
16, 58200, Note_off_c, 15, 64, 17
16, 58200, Note_on_c, 15, 61, 1
16, 58800, Note_off_c, 15, 61, 17
16, 58800, Note_on_c, 15, 59, 1
16, 59280, Note_off_c, 15, 59, 17
16, 59280, Note_on_c, 15, 64, 1
16, 59400, Note_off_c, 15, 64, 17
16, 59400, Note_on_c, 15, 66, 1
16, 59520, Note_off_c, 15, 66, 17
16, 59520, Note_on_c, 15, 68, 1
16, 59760, Note_off_c, 15, 68, 17
16, 59760, Note_on_c, 15, 64, 1
16, 60120, Note_off_c, 15, 64, 17
16, 60120, Note_on_c, 15, 61, 1
16, 60720, Note_off_c, 15, 61, 17
16, 60720, Note_on_c, 15, 59, 1
16, 60960, Note_off_c, 15, 59, 17
16, 60960, Note_on_c, 15, 66, 1
16, 61200, Note_off_c, 15, 66, 17
16, 61200, Note_on_c, 15, 64, 1
16, 61680, Note_off_c, 15, 64, 17
16, 61680, Note_on_c, 15, 71, 1
16, 61680, Note_on_c, 15, 76, 1
16, 62160, Note_off_c, 15, 71, 17
16, 62160, Note_off_c, 15, 76, 17
16, 62160, Note_on_c, 15, 64, 1
16, 62160, Note_on_c, 15, 68, 1
16, 62880, Note_off_c, 15, 64, 17
16, 62880, Note_off_c, 15, 68, 17
16, 62880, Note_on_c, 15, 66, 1
16, 62880, Note_on_c, 15, 69, 1
16, 63120, Note_off_c, 15, 66, 17
16, 63120, Note_off_c, 15, 69, 17
16, 63120, Note_on_c, 15, 68, 1
16, 63120, Note_on_c, 15, 71, 1
16, 63600, Note_off_c, 15, 71, 17
16, 63600, Note_off_c, 15, 68, 17
16, 63600, Note_on_c, 15, 71, 1
16, 63600, Note_on_c, 15, 76, 1
16, 64080, Note_off_c, 15, 71, 17
16, 64080, Note_off_c, 15, 76, 17
16, 64080, Note_on_c, 15, 64, 1
16, 64080, Note_on_c, 15, 68, 1
16, 64560, Note_off_c, 15, 64, 17
16, 64560, Note_off_c, 15, 68, 17
16, 64560, Note_on_c, 15, 66, 1
16, 64560, Note_on_c, 15, 69, 1
16, 64800, Note_off_c, 15, 69, 17
16, 64800, Note_off_c, 15, 66, 17
16, 64800, Note_on_c, 15, 68, 1
16, 64800, Note_on_c, 15, 71, 1
16, 65040, Note_off_c, 15, 68, 17
16, 65040, Note_off_c, 15, 71, 17
16, 65040, Note_on_c, 15, 66, 1
16, 65040, Note_on_c, 15, 69, 1
16, 65160, Note_off_c, 15, 66, 17
16, 65160, Note_off_c, 15, 69, 17
16, 65160, Note_on_c, 15, 64, 1
16, 65160, Note_on_c, 15, 68, 1
16, 65520, Note_off_c, 15, 68, 17
16, 65520, Note_off_c, 15, 64, 17
16, 65520, Note_on_c, 15, 71, 1
16, 65520, Note_on_c, 15, 76, 1
16, 66000, Note_off_c, 15, 71, 17
16, 66000, Note_off_c, 15, 76, 17
16, 66000, Note_on_c, 15, 64, 1
16, 66000, Note_on_c, 15, 68, 1
16, 66720, Note_off_c, 15, 64, 17
16, 66720, Note_off_c, 15, 68, 17
16, 66720, Note_on_c, 15, 66, 1
16, 66720, Note_on_c, 15, 69, 1
16, 66960, Note_off_c, 15, 66, 17
16, 66960, Note_off_c, 15, 69, 17
16, 66960, Note_on_c, 15, 68, 1
16, 66960, Note_on_c, 15, 71, 1
16, 67440, Note_off_c, 15, 71, 17
16, 67440, Note_off_c, 15, 68, 17
16, 67440, Note_on_c, 15, 71, 1
16, 67440, Note_on_c, 15, 76, 1
16, 67920, Note_off_c, 15, 71, 17
16, 67920, Note_off_c, 15, 76, 17
16, 67920, Note_on_c, 15, 64, 1
16, 67920, Note_on_c, 15, 68, 1
16, 68400, Note_off_c, 15, 64, 17
16, 68400, Note_off_c, 15, 68, 17
16, 68400, Note_on_c, 15, 66, 1
16, 68400, Note_on_c, 15, 69, 1
16, 68640, Note_off_c, 15, 69, 17
16, 68640, Note_off_c, 15, 66, 17
16, 68640, Note_on_c, 15, 68, 1
16, 68640, Note_on_c, 15, 71, 1
16, 68880, Note_off_c, 15, 68, 17
16, 68880, Note_off_c, 15, 71, 17
16, 68880, Note_on_c, 15, 66, 1
16, 68880, Note_on_c, 15, 69, 1
16, 69000, Note_off_c, 15, 66, 17
16, 69000, Note_off_c, 15, 69, 17
16, 69000, Note_on_c, 15, 64, 1
16, 69000, Note_on_c, 15, 68, 1
16, 69360, Note_off_c, 15, 68, 17
16, 69360, Note_off_c, 15, 64, 17
16, 69360, Note_on_c, 15, 71, 1
16, 69600, Note_off_c, 15, 71, 17
16, 69600, Note_on_c, 15, 68, 1
16, 69840, Note_off_c, 15, 68, 17
16, 69840, Note_on_c, 15, 73, 1
16, 70080, Note_off_c, 15, 73, 17
16, 70080, Note_on_c, 15, 71, 1
16, 70320, Note_off_c, 15, 71, 17
16, 70320, Note_on_c, 15, 66, 1
16, 70800, Note_off_c, 15, 66, 17
16, 70800, Note_on_c, 15, 64, 1
16, 71280, Note_off_c, 15, 64, 17
16, 71280, Note_on_c, 15, 71, 1
16, 71520, Note_off_c, 15, 71, 17
16, 71520, Note_on_c, 15, 68, 1
16, 71760, Note_off_c, 15, 68, 17
16, 71760, Note_on_c, 15, 73, 1
16, 72000, Note_off_c, 15, 73, 17
16, 72000, Note_on_c, 15, 71, 1
16, 72240, Note_off_c, 15, 71, 17
16, 72240, Note_on_c, 15, 66, 1
16, 72480, Note_off_c, 15, 66, 17
16, 72480, Note_on_c, 15, 68, 1
16, 72600, Note_off_c, 15, 68, 17
16, 72600, Note_on_c, 15, 66, 1
16, 72720, Note_off_c, 15, 66, 17
16, 72720, Note_on_c, 15, 64, 1
16, 72840, Note_off_c, 15, 64, 17
16, 72840, Note_on_c, 15, 66, 1
16, 72960, Note_off_c, 15, 66, 17
16, 72960, Note_on_c, 15, 68, 1
16, 73200, Note_off_c, 15, 68, 17
16, 73200, Note_on_c, 15, 64, 1
16, 73560, Note_off_c, 15, 64, 17
16, 73560, Note_on_c, 15, 61, 1
16, 74160, Note_off_c, 15, 61, 17
16, 74160, Note_on_c, 15, 59, 1
16, 74640, Note_off_c, 15, 59, 17
16, 74640, Note_on_c, 15, 64, 1
16, 74760, Note_off_c, 15, 64, 17
16, 74760, Note_on_c, 15, 66, 1
16, 74880, Note_off_c, 15, 66, 17
16, 74880, Note_on_c, 15, 68, 1
16, 75120, Note_off_c, 15, 68, 17
16, 75120, Note_on_c, 15, 64, 1
16, 75480, Note_off_c, 15, 64, 17
16, 75480, Note_on_c, 15, 61, 1
16, 76080, Note_off_c, 15, 61, 17
16, 76080, Note_on_c, 15, 59, 1
16, 76316, Note_off_c, 15, 59, 17
16, 89760, Note_on_c, 15, 71, 1
16, 90164, Note_off_c, 15, 71, 17
16, 96240, Note_on_c, 15, 71, 1
16, 96720, Note_off_c, 15, 71, 17
16, 96720, Note_on_c, 15, 64, 1
16, 97440, Note_off_c, 15, 64, 17
16, 97440, Note_on_c, 15, 66, 1
16, 97680, Note_off_c, 15, 66, 17
16, 97680, Note_on_c, 15, 68, 1
16, 98160, Note_off_c, 15, 68, 17
16, 98160, Note_on_c, 15, 71, 1
16, 98640, Note_off_c, 15, 71, 17
16, 98640, Note_on_c, 15, 64, 1
16, 99120, Note_off_c, 15, 64, 17
16, 99120, Note_on_c, 15, 66, 1
16, 99360, Note_off_c, 15, 66, 17
16, 99360, Note_on_c, 15, 68, 1
16, 99600, Note_on_c, 15, 66, 1
16, 99623, Note_off_c, 15, 68, 17
16, 99720, Note_off_c, 15, 66, 17
16, 99720, Note_on_c, 15, 64, 1
16, 100080, Note_off_c, 15, 64, 17
16, 100080, Note_on_c, 15, 71, 1
16, 100560, Note_off_c, 15, 71, 17
16, 100560, Note_on_c, 15, 64, 1
16, 101280, Note_off_c, 15, 64, 17
16, 101280, Note_on_c, 15, 66, 1
16, 101520, Note_off_c, 15, 66, 17
16, 101520, Note_on_c, 15, 68, 1
16, 102000, Note_off_c, 15, 68, 17
16, 102000, Note_on_c, 15, 71, 1
16, 102480, Note_off_c, 15, 71, 17
16, 102480, Note_on_c, 15, 64, 1
16, 102960, Note_off_c, 15, 64, 17
16, 102960, Note_on_c, 15, 66, 1
16, 103200, Note_off_c, 15, 66, 17
16, 103200, Note_on_c, 15, 68, 1
16, 103440, Note_on_c, 15, 66, 1
16, 103463, Note_off_c, 15, 68, 17
16, 103560, Note_off_c, 15, 66, 17
16, 103560, Note_on_c, 15, 64, 1
16, 103920, Note_off_c, 15, 64, 17
16, 103920, Note_on_c, 15, 71, 1
16, 104160, Note_off_c, 15, 71, 17
16, 104160, Note_on_c, 15, 68, 1
16, 104400, Note_off_c, 15, 68, 17
16, 104400, Note_on_c, 15, 73, 1
16, 104640, Note_off_c, 15, 73, 17
16, 104640, Note_on_c, 15, 71, 1
16, 104880, Note_off_c, 15, 71, 17
16, 104880, Note_on_c, 15, 66, 1
16, 105360, Note_off_c, 15, 66, 17
16, 105360, Note_on_c, 15, 64, 1
16, 105840, Note_off_c, 15, 64, 17
16, 105840, Note_on_c, 15, 71, 1
16, 106080, Note_off_c, 15, 71, 17
16, 106080, Note_on_c, 15, 68, 1
16, 106320, Note_off_c, 15, 68, 17
16, 106320, Note_on_c, 15, 73, 1
16, 106560, Note_off_c, 15, 73, 17
16, 106560, Note_on_c, 15, 71, 1
16, 106800, Note_off_c, 15, 71, 17
16, 106800, Note_on_c, 15, 66, 1
16, 107040, Note_off_c, 15, 66, 17
16, 107040, Note_on_c, 15, 68, 1
16, 107160, Note_off_c, 15, 68, 17
16, 107160, Note_on_c, 15, 66, 1
16, 107280, Note_off_c, 15, 66, 17
16, 107280, Note_on_c, 15, 64, 1
16, 107400, Note_off_c, 15, 64, 17
16, 107400, Note_on_c, 15, 66, 1
16, 107520, Note_off_c, 15, 66, 17
16, 107520, Note_on_c, 15, 68, 1
16, 107760, Note_off_c, 15, 68, 17
16, 107760, Note_on_c, 15, 64, 1
16, 108120, Note_off_c, 15, 64, 17
16, 108120, Note_on_c, 15, 61, 1
16, 108720, Note_off_c, 15, 61, 17
16, 108720, Note_on_c, 15, 59, 1
16, 109200, Note_off_c, 15, 59, 17
16, 109200, Note_on_c, 15, 64, 1
16, 109320, Note_off_c, 15, 64, 17
16, 109320, Note_on_c, 15, 66, 1
16, 109440, Note_off_c, 15, 66, 17
16, 109440, Note_on_c, 15, 68, 1
16, 109680, Note_off_c, 15, 68, 17
16, 109680, Note_on_c, 15, 64, 1
16, 110040, Note_off_c, 15, 64, 17
16, 110040, Note_on_c, 15, 61, 1
16, 110640, Note_off_c, 15, 61, 17
16, 110640, Note_on_c, 15, 59, 1
16, 110880, Note_off_c, 15, 59, 17
16, 110880, Note_on_c, 15, 66, 1
16, 111120, Note_off_c, 15, 66, 17
16, 111120, Note_on_c, 15, 64, 1
16, 111600, Note_off_c, 15, 64, 17
16, 111600, Note_on_c, 15, 71, 1
16, 111600, Note_on_c, 15, 76, 1
16, 112080, Note_off_c, 15, 71, 17
16, 112080, Note_off_c, 15, 76, 17
16, 112080, Note_on_c, 15, 64, 1
16, 112080, Note_on_c, 15, 68, 1
16, 112800, Note_off_c, 15, 64, 17
16, 112800, Note_off_c, 15, 68, 17
16, 112800, Note_on_c, 15, 66, 1
16, 112800, Note_on_c, 15, 69, 1
16, 113040, Note_off_c, 15, 66, 17
16, 113040, Note_off_c, 15, 69, 17
16, 113040, Note_on_c, 15, 68, 1
16, 113040, Note_on_c, 15, 71, 1
16, 113520, Note_off_c, 15, 71, 17
16, 113520, Note_off_c, 15, 68, 17
16, 113520, Note_on_c, 15, 71, 1
16, 113520, Note_on_c, 15, 76, 1
16, 114000, Note_off_c, 15, 71, 17
16, 114000, Note_off_c, 15, 76, 17
16, 114000, Note_on_c, 15, 64, 1
16, 114000, Note_on_c, 15, 68, 1
16, 114480, Note_off_c, 15, 64, 17
16, 114480, Note_off_c, 15, 68, 17
16, 114480, Note_on_c, 15, 66, 1
16, 114480, Note_on_c, 15, 69, 1
16, 114720, Note_off_c, 15, 69, 17
16, 114720, Note_off_c, 15, 66, 17
16, 114720, Note_on_c, 15, 68, 1
16, 114720, Note_on_c, 15, 71, 1
16, 114960, Note_off_c, 15, 68, 17
16, 114960, Note_off_c, 15, 71, 17
16, 114960, Note_on_c, 15, 66, 1
16, 114960, Note_on_c, 15, 69, 1
16, 115080, Note_off_c, 15, 66, 17
16, 115080, Note_off_c, 15, 69, 17
16, 115080, Note_on_c, 15, 64, 1
16, 115080, Note_on_c, 15, 68, 1
16, 115440, Note_off_c, 15, 68, 17
16, 115440, Note_off_c, 15, 64, 17
16, 115440, Note_on_c, 15, 71, 1
16, 115440, Note_on_c, 15, 76, 1
16, 115920, Note_off_c, 15, 71, 17
16, 115920, Note_off_c, 15, 76, 17
16, 115920, Note_on_c, 15, 64, 1
16, 115920, Note_on_c, 15, 68, 1
16, 116640, Note_off_c, 15, 64, 17
16, 116640, Note_off_c, 15, 68, 17
16, 116640, Note_on_c, 15, 66, 1
16, 116640, Note_on_c, 15, 69, 1
16, 116880, Note_off_c, 15, 66, 17
16, 116880, Note_off_c, 15, 69, 17
16, 116880, Note_on_c, 15, 68, 1
16, 116880, Note_on_c, 15, 71, 1
16, 117360, Note_off_c, 15, 71, 17
16, 117360, Note_off_c, 15, 68, 17
16, 117360, Note_on_c, 15, 71, 1
16, 117360, Note_on_c, 15, 76, 1
16, 117840, Note_off_c, 15, 71, 17
16, 117840, Note_off_c, 15, 76, 17
16, 117840, Note_on_c, 15, 64, 1
16, 117840, Note_on_c, 15, 68, 1
16, 118320, Note_off_c, 15, 64, 17
16, 118320, Note_off_c, 15, 68, 17
16, 118320, Note_on_c, 15, 66, 1
16, 118320, Note_on_c, 15, 69, 1
16, 118560, Note_off_c, 15, 69, 17
16, 118560, Note_off_c, 15, 66, 17
16, 118560, Note_on_c, 15, 68, 1
16, 118560, Note_on_c, 15, 71, 1
16, 118800, Note_off_c, 15, 68, 17
16, 118800, Note_off_c, 15, 71, 17
16, 118800, Note_on_c, 15, 66, 1
16, 118800, Note_on_c, 15, 69, 1
16, 118920, Note_off_c, 15, 66, 17
16, 118920, Note_off_c, 15, 69, 17
16, 118920, Note_on_c, 15, 64, 1
16, 118920, Note_on_c, 15, 68, 1
16, 119280, Note_off_c, 15, 68, 17
16, 119280, Note_off_c, 15, 64, 17
16, 119280, Note_on_c, 15, 71, 1
16, 119520, Note_off_c, 15, 71, 17
16, 119520, Note_on_c, 15, 68, 1
16, 119760, Note_off_c, 15, 68, 17
16, 119760, Note_on_c, 15, 73, 1
16, 120000, Note_off_c, 15, 73, 17
16, 120000, Note_on_c, 15, 71, 1
16, 120240, Note_off_c, 15, 71, 17
16, 120240, Note_on_c, 15, 66, 1
16, 120720, Note_off_c, 15, 66, 17
16, 120720, Note_on_c, 15, 64, 1
16, 121200, Note_off_c, 15, 64, 17
16, 121200, Note_on_c, 15, 71, 1
16, 121440, Note_off_c, 15, 71, 17
16, 121440, Note_on_c, 15, 68, 1
16, 121680, Note_off_c, 15, 68, 17
16, 121680, Note_on_c, 15, 73, 1
16, 121920, Note_off_c, 15, 73, 17
16, 121920, Note_on_c, 15, 71, 1
16, 122160, Note_off_c, 15, 71, 17
16, 122160, Note_on_c, 15, 66, 1
16, 122400, Note_off_c, 15, 66, 17
16, 122400, Note_on_c, 15, 68, 1
16, 122520, Note_off_c, 15, 68, 17
16, 122520, Note_on_c, 15, 66, 1
16, 122640, Note_off_c, 15, 66, 17
16, 122640, Note_on_c, 15, 64, 1
16, 122760, Note_off_c, 15, 64, 17
16, 122760, Note_on_c, 15, 66, 1
16, 122880, Note_off_c, 15, 66, 17
16, 122880, Note_on_c, 15, 68, 1
16, 123120, Note_off_c, 15, 68, 17
16, 123120, Note_on_c, 15, 64, 1
16, 123480, Note_off_c, 15, 64, 17
16, 123480, Note_on_c, 15, 61, 1
16, 124080, Note_off_c, 15, 61, 17
16, 124080, Note_on_c, 15, 59, 1
16, 124560, Note_off_c, 15, 59, 17
16, 124560, Note_on_c, 15, 64, 1
16, 124680, Note_off_c, 15, 64, 17
16, 124680, Note_on_c, 15, 66, 1
16, 124800, Note_off_c, 15, 66, 17
16, 124800, Note_on_c, 15, 68, 1
16, 125040, Note_off_c, 15, 68, 17
16, 125040, Note_on_c, 15, 64, 1
16, 125400, Note_off_c, 15, 64, 17
16, 125400, Note_on_c, 15, 61, 1
16, 126000, Note_off_c, 15, 61, 17
16, 126000, Note_on_c, 15, 59, 1
16, 126507, Note_off_c, 15, 59, 17
16, 126507, Note_on_c, 15, 64, 1
16, 128400, Note_off_c, 15, 64, 17
16, 130347, Note_on_c, 15, 64, 1
16, 130416, Note_off_c, 15, 64, 17
16, 130450, Note_on_c, 15, 64, 1
16, 130509, Note_off_c, 15, 64, 17
16, 130550, Note_on_c, 15, 64, 1
16, 130722, Note_off_c, 15, 64, 17
16, 130814, Note_on_c, 15, 64, 1
16, 130899, Note_off_c, 15, 64, 17
16, 130935, Note_on_c, 15, 64, 1
16, 130998, Note_off_c, 15, 64, 17
16, 131040, Note_on_c, 15, 64, 1
16, 131185, Note_off_c, 15, 64, 17
16, 131279, Note_on_c, 15, 64, 1
16, 131351, Note_off_c, 15, 64, 17
16, 131403, Note_on_c, 15, 64, 1
16, 131454, Note_off_c, 15, 64, 17
16, 131507, Note_on_c, 15, 64, 1
16, 131612, Note_off_c, 15, 64, 17
16, 131751, Note_on_c, 15, 64, 1
16, 131849, Note_off_c, 15, 64, 17
16, 131995, Note_on_c, 15, 64, 1
16, 132296, Note_off_c, 15, 64, 17
16, 134187, Note_on_c, 15, 64, 1
16, 134187, Note_on_c, 15, 68, 1
16, 134256, Note_off_c, 15, 68, 17
16, 134256, Note_off_c, 15, 64, 17
16, 134290, Note_on_c, 15, 64, 1
16, 134290, Note_on_c, 15, 68, 1
16, 134349, Note_off_c, 15, 68, 17
16, 134349, Note_off_c, 15, 64, 17
16, 134390, Note_on_c, 15, 64, 1
16, 134390, Note_on_c, 15, 68, 1
16, 134562, Note_off_c, 15, 68, 17
16, 134562, Note_off_c, 15, 64, 17
16, 134654, Note_on_c, 15, 64, 1
16, 134654, Note_on_c, 15, 68, 1
16, 134739, Note_off_c, 15, 68, 17
16, 134739, Note_off_c, 15, 64, 17
16, 134775, Note_on_c, 15, 64, 1
16, 134775, Note_on_c, 15, 68, 1
16, 134838, Note_off_c, 15, 68, 17
16, 134838, Note_off_c, 15, 64, 17
16, 134880, Note_on_c, 15, 64, 1
16, 134880, Note_on_c, 15, 68, 1
16, 135025, Note_off_c, 15, 68, 17
16, 135025, Note_off_c, 15, 64, 17
16, 135119, Note_on_c, 15, 64, 1
16, 135119, Note_on_c, 15, 68, 1
16, 135191, Note_off_c, 15, 68, 17
16, 135191, Note_off_c, 15, 64, 17
16, 135243, Note_on_c, 15, 64, 1
16, 135243, Note_on_c, 15, 68, 1
16, 135294, Note_off_c, 15, 68, 17
16, 135294, Note_off_c, 15, 64, 17
16, 135347, Note_on_c, 15, 64, 1
16, 135347, Note_on_c, 15, 68, 1
16, 135452, Note_off_c, 15, 68, 17
16, 135452, Note_off_c, 15, 64, 17
16, 135591, Note_on_c, 15, 64, 1
16, 135591, Note_on_c, 15, 68, 1
16, 135689, Note_off_c, 15, 68, 17
16, 135689, Note_off_c, 15, 64, 17
16, 135835, Note_on_c, 15, 64, 1
16, 135835, Note_on_c, 15, 68, 1
16, 136136, Note_off_c, 15, 68, 17
16, 136136, Note_off_c, 15, 64, 17
16, 138027, Note_on_c, 15, 64, 1
16, 138027, Note_on_c, 15, 68, 1
16, 138096, Note_off_c, 15, 68, 17
16, 138096, Note_off_c, 15, 64, 17
16, 138130, Note_on_c, 15, 64, 1
16, 138130, Note_on_c, 15, 68, 1
16, 138189, Note_off_c, 15, 68, 17
16, 138189, Note_off_c, 15, 64, 17
16, 138230, Note_on_c, 15, 64, 1
16, 138230, Note_on_c, 15, 68, 1
16, 138402, Note_off_c, 15, 68, 17
16, 138402, Note_off_c, 15, 64, 17
16, 138494, Note_on_c, 15, 64, 1
16, 138494, Note_on_c, 15, 68, 1
16, 138579, Note_off_c, 15, 68, 17
16, 138579, Note_off_c, 15, 64, 17
16, 138615, Note_on_c, 15, 64, 1
16, 138615, Note_on_c, 15, 68, 1
16, 138678, Note_off_c, 15, 68, 17
16, 138678, Note_off_c, 15, 64, 17
16, 138720, Note_on_c, 15, 64, 1
16, 138720, Note_on_c, 15, 68, 1
16, 138865, Note_off_c, 15, 68, 17
16, 138865, Note_off_c, 15, 64, 17
16, 138959, Note_on_c, 15, 64, 1
16, 138959, Note_on_c, 15, 68, 1
16, 139031, Note_off_c, 15, 68, 17
16, 139031, Note_off_c, 15, 64, 17
16, 139083, Note_on_c, 15, 64, 1
16, 139083, Note_on_c, 15, 68, 1
16, 139134, Note_off_c, 15, 68, 17
16, 139134, Note_off_c, 15, 64, 17
16, 139187, Note_on_c, 15, 64, 1
16, 139187, Note_on_c, 15, 68, 1
16, 139292, Note_off_c, 15, 68, 17
16, 139292, Note_off_c, 15, 64, 17
16, 139431, Note_on_c, 15, 64, 1
16, 139431, Note_on_c, 15, 68, 1
16, 139529, Note_off_c, 15, 68, 17
16, 139529, Note_off_c, 15, 64, 17
16, 139675, Note_on_c, 15, 64, 1
16, 139675, Note_on_c, 15, 68, 1
16, 139976, Note_off_c, 15, 68, 17
16, 139976, Note_off_c, 15, 64, 17
16, 155280, Note_on_c, 15, 76, 1
16, 156240, Note_off_c, 15, 76, 17
16, 156240, Note_on_c, 15, 78, 1
16, 156720, Note_off_c, 15, 78, 17
16, 156720, Note_on_c, 15, 80, 1
16, 157680, Note_off_c, 15, 80, 17
16, 157680, Note_on_c, 15, 71, 1
16, 157680, Note_on_c, 15, 76, 1
16, 158160, Note_off_c, 15, 76, 17
16, 158160, Note_off_c, 15, 71, 17
16, 158160, Note_on_c, 15, 64, 1
16, 158160, Note_on_c, 15, 68, 1
16, 158880, Note_off_c, 15, 64, 17
16, 158880, Note_off_c, 15, 68, 17
16, 158880, Note_on_c, 15, 66, 1
16, 158880, Note_on_c, 15, 69, 1
16, 159120, Note_off_c, 15, 66, 17
16, 159120, Note_off_c, 15, 69, 17
16, 159120, Note_on_c, 15, 68, 1
16, 159120, Note_on_c, 15, 71, 1
16, 159600, Note_off_c, 15, 71, 17
16, 159600, Note_off_c, 15, 68, 17
16, 159600, Note_on_c, 15, 71, 1
16, 159600, Note_on_c, 15, 76, 1
16, 160080, Note_off_c, 15, 71, 17
16, 160080, Note_off_c, 15, 76, 17
16, 160080, Note_on_c, 15, 64, 1
16, 160080, Note_on_c, 15, 68, 1
16, 160560, Note_off_c, 15, 64, 17
16, 160560, Note_off_c, 15, 68, 17
16, 160560, Note_on_c, 15, 66, 1
16, 160560, Note_on_c, 15, 69, 1
16, 160800, Note_off_c, 15, 69, 17
16, 160800, Note_off_c, 15, 66, 17
16, 160800, Note_on_c, 15, 68, 1
16, 160800, Note_on_c, 15, 71, 1
16, 161040, Note_off_c, 15, 68, 17
16, 161040, Note_off_c, 15, 71, 17
16, 161040, Note_on_c, 15, 66, 1
16, 161040, Note_on_c, 15, 69, 1
16, 161160, Note_off_c, 15, 66, 17
16, 161160, Note_off_c, 15, 69, 17
16, 161160, Note_on_c, 15, 64, 1
16, 161160, Note_on_c, 15, 68, 1
16, 161520, Note_off_c, 15, 68, 17
16, 161520, Note_off_c, 15, 64, 17
16, 161520, Note_on_c, 15, 71, 1
16, 161520, Note_on_c, 15, 76, 1
16, 162000, Note_off_c, 15, 71, 17
16, 162000, Note_off_c, 15, 76, 17
16, 162000, Note_on_c, 15, 64, 1
16, 162000, Note_on_c, 15, 68, 1
16, 162720, Note_off_c, 15, 64, 17
16, 162720, Note_off_c, 15, 68, 17
16, 162720, Note_on_c, 15, 66, 1
16, 162720, Note_on_c, 15, 69, 1
16, 162960, Note_off_c, 15, 66, 17
16, 162960, Note_off_c, 15, 69, 17
16, 162960, Note_on_c, 15, 68, 1
16, 162960, Note_on_c, 15, 71, 1
16, 163440, Note_off_c, 15, 71, 17
16, 163440, Note_off_c, 15, 68, 17
16, 163440, Note_on_c, 15, 71, 1
16, 163440, Note_on_c, 15, 76, 1
16, 163920, Note_off_c, 15, 71, 17
16, 163920, Note_off_c, 15, 76, 17
16, 163920, Note_on_c, 15, 64, 1
16, 163920, Note_on_c, 15, 68, 1
16, 164400, Note_off_c, 15, 64, 17
16, 164400, Note_off_c, 15, 68, 17
16, 164400, Note_on_c, 15, 66, 1
16, 164400, Note_on_c, 15, 69, 1
16, 164640, Note_off_c, 15, 69, 17
16, 164640, Note_off_c, 15, 66, 17
16, 164640, Note_on_c, 15, 68, 1
16, 164640, Note_on_c, 15, 71, 1
16, 164880, Note_off_c, 15, 68, 17
16, 164880, Note_off_c, 15, 71, 17
16, 164880, Note_on_c, 15, 66, 1
16, 164880, Note_on_c, 15, 69, 1
16, 165000, Note_off_c, 15, 66, 17
16, 165000, Note_off_c, 15, 69, 17
16, 165000, Note_on_c, 15, 64, 1
16, 165000, Note_on_c, 15, 68, 1
16, 165360, Note_off_c, 15, 68, 17
16, 165360, Note_off_c, 15, 64, 17
16, 165360, Note_on_c, 15, 71, 1
16, 165600, Note_off_c, 15, 71, 17
16, 165600, Note_on_c, 15, 68, 1
16, 165840, Note_off_c, 15, 68, 17
16, 165840, Note_on_c, 15, 73, 1
16, 166080, Note_off_c, 15, 73, 17
16, 166080, Note_on_c, 15, 71, 1
16, 166320, Note_off_c, 15, 71, 17
16, 166320, Note_on_c, 15, 66, 1
16, 166800, Note_off_c, 15, 66, 17
16, 166800, Note_on_c, 15, 64, 1
16, 167280, Note_off_c, 15, 64, 17
16, 167280, Note_on_c, 15, 71, 1
16, 167520, Note_off_c, 15, 71, 17
16, 167520, Note_on_c, 15, 68, 1
16, 167760, Note_off_c, 15, 68, 17
16, 167760, Note_on_c, 15, 73, 1
16, 168000, Note_off_c, 15, 73, 17
16, 168000, Note_on_c, 15, 71, 1
16, 168240, Note_off_c, 15, 71, 17
16, 168240, Note_on_c, 15, 66, 1
16, 168480, Note_off_c, 15, 66, 17
16, 168480, Note_on_c, 15, 68, 1
16, 168600, Note_off_c, 15, 68, 17
16, 168600, Note_on_c, 15, 66, 1
16, 168720, Note_off_c, 15, 66, 17
16, 168720, Note_on_c, 15, 64, 1
16, 168840, Note_off_c, 15, 64, 17
16, 168840, Note_on_c, 15, 66, 1
16, 168960, Note_off_c, 15, 66, 17
16, 168960, Note_on_c, 15, 68, 1
16, 169200, Note_off_c, 15, 68, 17
16, 169200, Note_on_c, 15, 64, 1
16, 169560, Note_off_c, 15, 64, 17
16, 169560, Note_on_c, 15, 61, 1
16, 170160, Note_off_c, 15, 61, 17
16, 170160, Note_on_c, 15, 59, 1
16, 170640, Note_off_c, 15, 59, 17
16, 170640, Note_on_c, 15, 64, 1
16, 170760, Note_off_c, 15, 64, 17
16, 170760, Note_on_c, 15, 66, 1
16, 170880, Note_off_c, 15, 66, 17
16, 170880, Note_on_c, 15, 68, 1
16, 171120, Note_off_c, 15, 68, 17
16, 171120, Note_on_c, 15, 64, 1
16, 171480, Note_off_c, 15, 64, 17
16, 171480, Note_on_c, 15, 61, 1
16, 172080, Note_off_c, 15, 61, 17
16, 172080, Note_on_c, 15, 59, 1
16, 172320, Note_off_c, 15, 59, 17
16, 172320, Note_on_c, 15, 66, 1
16, 172560, Note_off_c, 15, 66, 17
16, 172560, Note_on_c, 15, 64, 1
16, 172796, Note_off_c, 15, 64, 17
16, 190561, Control_c, 15, 123, 0
16, 190921, Control_c, 15, 120, 0
16, 190932, End_track
0, 0, End_of_file
