0, 0, Header, 0, 1, 384
1, 0, Start_track
1, 0, Title_t, "0283"
1, 0, Tempo, 500000
1, 0, Time_signature, 4, 2, 24, 8
1, 0, Text_t, "0283\000\000"
1, 6, Text_t, "(c)'93 by GEERDES midisystems\000\000\000"
1, 16, System_exclusive, 5, 126, 127, 9, 1, 247
1, 32, System_exclusive, 10, 65, 16, 66, 18, 64, 0, 127, 0, 65, 247
1, 48, System_exclusive, 25, 65, 16, 66, 18, 64, 1, 16, 2, 0, 2, 0, 0, 0, 0, 2, 0, 0, 0, 0, 0, 0, 0, 0, 41, 247
1, 64, System_exclusive, 10, 65, 16, 66, 18, 64, 1, 48, 4, 11, 247
1, 80, System_exclusive, 10, 65, 16, 66, 18, 64, 1, 56, 2, 5, 247
1, 96, Control_c, 1, 121, 0
1, 112, Control_c, 2, 121, 0
1, 128, Control_c, 3, 121, 0
1, 144, Control_c, 4, 121, 0
1, 160, Control_c, 5, 121, 0
1, 176, Control_c, 6, 121, 0
1, 224, Control_c, 9, 121, 0
1, 336, Program_c, 1, 33
1, 352, Program_c, 2, 61
1, 368, Program_c, 3, 61
1, 384, Program_c, 4, 62
1, 400, Program_c, 5, 48
1, 416, Program_c, 6, 4
1, 464, Program_c, 9, 0
1, 576, Control_c, 1, 7, 127
1, 592, Control_c, 2, 7, 127
1, 608, Control_c, 3, 7, 127
1, 624, Control_c, 4, 7, 127
1, 640, Control_c, 5, 7, 127
1, 656, Control_c, 6, 7, 127
1, 704, Control_c, 9, 7, 127
1, 816, Control_c, 1, 10, 64
1, 832, Control_c, 2, 10, 34
1, 848, Control_c, 3, 10, 84
1, 864, Control_c, 4, 10, 64
1, 880, Control_c, 5, 10, 94
1, 896, Control_c, 6, 10, 54
1, 944, Control_c, 9, 10, 64
1, 1056, Control_c, 1, 91, 60
1, 1072, Control_c, 2, 91, 95
1, 1088, Control_c, 3, 91, 100
1, 1104, Control_c, 4, 91, 80
1, 1120, Control_c, 5, 91, 100
1, 1136, Control_c, 6, 91, 80
1, 1184, Control_c, 9, 91, 90
1, 1296, Control_c, 1, 93, 0
1, 1312, Control_c, 2, 93, 20
1, 1328, Control_c, 3, 93, 30
1, 1344, Control_c, 4, 93, 0
1, 1360, Control_c, 5, 93, 0
1, 1376, Control_c, 6, 93, 20
1, 1424, Control_c, 9, 93, 0
1, 1930, Control_c, 3, 7, 90
1, 2306, Note_on_c, 9, 50, 80
1, 2308, Note_off_c, 9, 50, 80
1, 2374, Note_on_c, 9, 38, 80
1, 2418, Note_off_c, 9, 38, 80
1, 2434, Note_on_c, 9, 38, 90
1, 2490, Note_off_c, 9, 38, 90
1, 2502, Note_on_c, 9, 38, 112
1, 2506, Note_off_c, 9, 38, 112
1, 2566, Note_on_c, 9, 38, 105
1, 2568, Note_off_c, 9, 38, 105
1, 2628, Note_on_c, 9, 38, 103
1, 2632, Note_off_c, 9, 38, 103
1, 2694, Note_on_c, 9, 38, 120
1, 2698, Note_off_c, 9, 38, 120
1, 2790, Note_on_c, 9, 38, 120
1, 2794, Note_off_c, 9, 38, 120
1, 2886, Note_on_c, 9, 50, 80
1, 2890, Note_off_c, 9, 50, 80
1, 3072, Note_on_c, 3, 82, 127
1, 3072, Note_on_c, 3, 70, 127
1, 3076, Note_on_c, 9, 36, 100
1, 3078, Note_on_c, 9, 42, 82
1, 3078, Note_on_c, 9, 51, 55
1, 3082, Note_on_c, 9, 47, 62
1, 3082, Note_on_c, 9, 67, 80
1, 3082, Note_on_c, 6, 63, 89
1, 3084, Note_off_c, 9, 67, 80
1, 3086, Note_off_c, 9, 47, 62
1, 3086, Note_off_c, 9, 51, 55
1, 3086, Note_off_c, 9, 42, 82
1, 3086, Note_off_c, 9, 36, 100
1, 3090, Note_on_c, 1, 27, 122
1, 3090, Note_on_c, 6, 51, 89
1, 3090, Note_on_c, 6, 58, 89
1, 3090, Note_on_c, 6, 67, 89
1, 3094, Note_on_c, 5, 58, 80
1, 3094, Note_on_c, 5, 63, 80
1, 3094, Note_on_c, 5, 67, 80
1, 3198, Note_off_c, 6, 58, 89
1, 3198, Note_off_c, 6, 63, 89
1, 3206, Note_off_c, 6, 51, 89
1, 3222, Note_off_c, 6, 67, 89
1, 3270, Note_on_c, 9, 42, 70
1, 3270, Note_on_c, 9, 70, 80
1, 3270, Note_on_c, 9, 36, 100
1, 3274, Note_off_c, 9, 36, 100
1, 3274, Note_off_c, 9, 70, 80
1, 3274, Note_off_c, 9, 42, 70
1, 3342, Note_off_c, 1, 27, 122
1, 3462, Note_on_c, 9, 38, 120
1, 3462, Note_on_c, 9, 42, 78
1, 3462, Note_on_c, 9, 47, 60
1, 3466, Note_off_c, 9, 47, 60
1, 3466, Note_off_c, 9, 42, 78
1, 3466, Note_off_c, 9, 38, 120
1, 3546, Note_off_c, 5, 58, 80
1, 3566, Note_off_c, 5, 63, 80
1, 3580, Note_off_c, 5, 67, 80
1, 3642, Note_on_c, 5, 60, 80
1, 3642, Note_on_c, 5, 63, 80
1, 3642, Note_on_c, 5, 68, 80
1, 3652, Note_on_c, 9, 36, 100
1, 3654, Note_on_c, 9, 42, 70
1, 3654, Note_on_c, 9, 70, 80
1, 3654, Note_on_c, 6, 63, 89
1, 3656, Note_on_c, 6, 60, 89
1, 3658, Note_off_c, 9, 42, 70
1, 3658, Note_off_c, 9, 36, 100
1, 3658, Note_on_c, 1, 32, 122
1, 3658, Note_on_c, 6, 56, 89
1, 3660, Note_off_c, 9, 70, 80
1, 3660, Note_on_c, 6, 68, 89
1, 3748, Note_on_c, 9, 70, 80
1, 3754, Note_off_c, 9, 70, 80
1, 3770, Note_off_c, 6, 68, 89
1, 3782, Note_off_c, 6, 56, 89
1, 3782, Note_off_c, 6, 60, 89
1, 3790, Note_off_c, 6, 63, 89
1, 3818, Note_off_c, 1, 32, 122
1, 3846, Note_on_c, 9, 42, 82
1, 3846, Note_on_c, 9, 47, 62
1, 3848, Note_off_c, 9, 47, 62
1, 3850, Note_off_c, 9, 42, 82
1, 4038, Note_on_c, 9, 42, 70
1, 4038, Note_on_c, 9, 67, 80
1, 4038, Note_on_c, 9, 36, 100
1, 4040, Note_on_c, 6, 56, 89
1, 4040, Note_on_c, 6, 60, 89
1, 4042, Note_off_c, 9, 36, 100
1, 4042, Note_off_c, 9, 42, 70
1, 4042, Note_on_c, 1, 32, 122
1, 4042, Note_on_c, 6, 63, 89
1, 4044, Note_on_c, 6, 68, 89
1, 4046, Note_off_c, 9, 67, 80
1, 4158, Note_off_c, 6, 68, 89
1, 4166, Note_off_c, 6, 60, 89
1, 4170, Note_off_c, 6, 63, 89
1, 4186, Note_off_c, 6, 56, 89
1, 4218, Note_off_c, 1, 32, 122
1, 4226, Note_on_c, 9, 38, 120
1, 4230, Note_off_c, 9, 38, 120
1, 4230, Note_on_c, 9, 42, 78
1, 4230, Note_on_c, 9, 47, 60
1, 4232, Note_off_c, 9, 47, 60
1, 4234, Note_off_c, 9, 42, 78
1, 4390, Note_on_c, 9, 46, 80
1, 4394, Note_off_c, 9, 46, 80
1, 4422, Note_on_c, 9, 42, 70
1, 4422, Note_on_c, 9, 46, 95
1, 4422, Note_on_c, 9, 36, 100
1, 4424, Note_on_c, 6, 53, 89
1, 4424, Note_on_c, 6, 60, 89
1, 4424, Note_on_c, 6, 63, 89
1, 4426, Note_off_c, 9, 36, 100
1, 4426, Note_off_c, 9, 42, 70
1, 4426, Note_on_c, 1, 29, 122
1, 4428, Note_on_c, 6, 68, 89
1, 4430, Note_off_c, 9, 46, 95
1, 4542, Note_off_c, 6, 60, 89
1, 4554, Note_off_c, 6, 68, 89
1, 4554, Note_off_c, 6, 53, 89
1, 4560, Note_off_c, 6, 63, 89
1, 4610, Note_on_c, 9, 36, 100
1, 4612, Note_off_c, 9, 36, 100
1, 4614, Note_on_c, 9, 42, 82
1, 4614, Note_on_c, 9, 47, 62
1, 4614, Note_on_c, 9, 67, 80
1, 4616, Note_off_c, 9, 67, 80
1, 4616, Note_off_c, 9, 47, 62
1, 4618, Note_off_c, 9, 42, 82
1, 4668, Note_off_c, 1, 29, 122
1, 4672, Note_off_c, 3, 82, 127
1, 4698, Note_off_c, 3, 70, 127
1, 4800, Note_on_c, 3, 68, 127
1, 4800, Note_on_c, 3, 80, 127
1, 4802, Note_on_c, 9, 42, 70
1, 4802, Note_on_c, 9, 36, 100
1, 4804, Note_off_c, 9, 42, 70
1, 4806, Note_off_c, 9, 36, 100
1, 4806, Note_on_c, 9, 70, 80
1, 4810, Note_off_c, 9, 70, 80
1, 4842, Note_off_c, 3, 68, 127
1, 4846, Note_off_c, 3, 80, 127
1, 4896, Note_on_c, 3, 68, 127
1, 4896, Note_on_c, 3, 80, 127
1, 4938, Note_off_c, 3, 68, 127
1, 4946, Note_off_c, 3, 80, 127
1, 4992, Note_on_c, 3, 68, 127
1, 4992, Note_on_c, 3, 80, 127
1, 4994, Note_on_c, 9, 38, 120
1, 4994, Note_on_c, 9, 42, 78
1, 4994, Note_on_c, 9, 47, 60
1, 4996, Note_off_c, 9, 47, 60
1, 4998, Note_off_c, 9, 42, 78
1, 4998, Note_off_c, 9, 38, 120
1, 5108, Note_off_c, 3, 80, 127
1, 5114, Note_off_c, 3, 68, 127
1, 5184, Note_on_c, 3, 67, 127
1, 5184, Note_on_c, 3, 79, 127
1, 5186, Note_on_c, 9, 42, 70
1, 5186, Note_on_c, 9, 70, 80
1, 5186, Note_on_c, 9, 36, 100
1, 5188, Note_off_c, 9, 70, 80
1, 5190, Note_off_c, 9, 36, 100
1, 5190, Note_off_c, 9, 42, 70
1, 5192, Note_on_c, 1, 29, 122
1, 5194, Note_off_c, 5, 63, 80
1, 5208, Note_off_c, 3, 79, 127
1, 5224, Note_off_c, 3, 67, 127
1, 5252, Note_off_c, 5, 60, 80
1, 5280, Note_on_c, 3, 67, 127
1, 5280, Note_on_c, 3, 79, 127
1, 5282, Note_on_c, 9, 70, 80
1, 5284, Note_off_c, 9, 70, 80
1, 5298, Note_off_c, 5, 68, 80
1, 5328, Note_off_c, 3, 79, 127
1, 5338, Note_off_c, 3, 67, 127
1, 5366, Note_on_c, 5, 70, 80
1, 5368, Note_off_c, 1, 29, 122
1, 5372, Note_on_c, 5, 62, 80
1, 5372, Note_on_c, 5, 65, 80
1, 5376, Note_on_c, 3, 67, 127
1, 5376, Note_on_c, 3, 79, 127
1, 5378, Note_on_c, 9, 42, 82
1, 5378, Note_on_c, 6, 65, 89
1, 5382, Note_on_c, 9, 47, 62
1, 5382, Note_on_c, 9, 36, 100
1, 5382, Note_on_c, 1, 34, 122
1, 5384, Note_on_c, 6, 58, 89
1, 5384, Note_on_c, 6, 62, 89
1, 5384, Note_on_c, 6, 70, 89
1, 5386, Note_off_c, 9, 36, 100
1, 5386, Note_off_c, 9, 47, 62
1, 5386, Note_off_c, 9, 42, 82
1, 5468, Note_off_c, 3, 79, 127
1, 5488, Note_off_c, 3, 67, 127
1, 5498, Note_off_c, 6, 58, 89
1, 5502, Note_off_c, 6, 70, 89
1, 5504, Note_off_c, 6, 62, 89
1, 5526, Note_off_c, 6, 65, 89
1, 5562, Note_off_c, 1, 34, 122
1, 5568, Note_on_c, 3, 65, 127
1, 5568, Note_on_c, 3, 77, 127
1, 5570, Note_on_c, 9, 42, 70
1, 5570, Note_on_c, 9, 67, 80
1, 5572, Note_off_c, 9, 67, 80
1, 5574, Note_off_c, 9, 42, 70
1, 5606, Note_off_c, 3, 77, 127
1, 5608, Note_off_c, 3, 65, 127
1, 5664, Note_on_c, 3, 65, 127
1, 5664, Note_on_c, 3, 77, 127
1, 5694, Note_off_c, 3, 65, 127
1, 5708, Note_off_c, 3, 77, 127
1, 5734, Note_on_c, 9, 46, 80
1, 5736, Note_off_c, 9, 46, 80
1, 5760, Note_on_c, 3, 65, 127
1, 5760, Note_on_c, 3, 77, 127
1, 5766, Note_on_c, 9, 38, 120
1, 5766, Note_on_c, 9, 42, 78
1, 5766, Note_on_c, 9, 47, 60
1, 5766, Note_on_c, 6, 65, 89
1, 5770, Note_off_c, 9, 38, 120
1, 5770, Note_on_c, 9, 46, 95
1, 5770, Note_on_c, 1, 34, 122
1, 5772, Note_on_c, 6, 62, 89
1, 5772, Note_on_c, 6, 70, 89
1, 5774, Note_off_c, 9, 46, 95
1, 5774, Note_off_c, 9, 47, 60
1, 5774, Note_off_c, 9, 42, 78
1, 5776, Note_on_c, 6, 58, 89
1, 5838, Note_off_c, 3, 77, 127
1, 5880, Note_off_c, 6, 58, 89
1, 5894, Note_off_c, 6, 70, 89
1, 5902, Note_off_c, 6, 62, 89
1, 5914, Note_off_c, 6, 65, 89
1, 5932, Note_off_c, 5, 62, 80
1, 5950, Note_off_c, 3, 65, 127
1, 5952, Note_on_c, 3, 63, 127
1, 5952, Note_on_c, 3, 75, 127
1, 5956, Note_on_c, 9, 42, 70
1, 5958, Note_on_c, 9, 46, 95
1, 5960, Note_off_c, 9, 46, 95
1, 5962, Note_off_c, 9, 42, 70
1, 5978, Note_off_c, 5, 70, 80
1, 5988, Note_off_c, 5, 65, 80
1, 6022, Note_off_c, 3, 75, 127
1, 6026, Note_off_c, 1, 34, 122
1, 6038, Note_off_c, 3, 63, 127
1, 6048, Note_on_c, 3, 77, 127
1, 6048, Note_on_c, 3, 65, 127
1, 6052, Note_on_c, 9, 46, 85
1, 6056, Note_off_c, 9, 46, 85
1, 6138, Note_on_c, 5, 63, 80
1, 6138, Note_on_c, 5, 67, 80
1, 6142, Note_off_c, 3, 77, 127
1, 6142, Note_on_c, 5, 58, 80
1, 6144, Note_off_c, 3, 65, 127
1, 6144, Note_on_c, 3, 79, 127
1, 6144, Note_on_c, 3, 67, 127
1, 6148, Note_on_c, 9, 42, 82
1, 6148, Note_on_c, 9, 36, 100
1, 6150, Note_on_c, 9, 47, 62
1, 6150, Note_on_c, 6, 51, 89
1, 6152, Note_on_c, 9, 67, 80
1, 6152, Note_on_c, 1, 27, 122
1, 6154, Note_on_c, 6, 58, 89
1, 6154, Note_on_c, 6, 63, 89
1, 6154, Note_on_c, 6, 67, 89
1, 6156, Note_off_c, 9, 67, 80
1, 6156, Note_off_c, 9, 47, 62
1, 6158, Note_off_c, 9, 36, 100
1, 6158, Note_off_c, 9, 42, 82
1, 6224, Note_off_c, 3, 79, 127
1, 6250, Note_off_c, 3, 67, 127
1, 6266, Note_off_c, 6, 58, 89
1, 6266, Note_off_c, 6, 51, 89
1, 6274, Note_off_c, 6, 63, 89
1, 6298, Note_off_c, 6, 67, 89
1, 6336, Note_on_c, 3, 75, 127
1, 6336, Note_on_c, 3, 63, 127
1, 6340, Note_on_c, 9, 36, 100
1, 6342, Note_on_c, 9, 42, 70
1, 6342, Note_on_c, 9, 70, 80
1, 6344, Note_off_c, 9, 70, 80
1, 6346, Note_off_c, 9, 42, 70
1, 6346, Note_off_c, 9, 36, 100
1, 6410, Note_off_c, 3, 75, 127
1, 6428, Note_off_c, 3, 63, 127
1, 6436, Note_off_c, 1, 27, 122
1, 6532, Note_on_c, 9, 38, 120
1, 6534, Note_on_c, 9, 42, 78
1, 6534, Note_on_c, 9, 47, 60
1, 6536, Note_off_c, 9, 47, 60
1, 6538, Note_off_c, 9, 42, 78
1, 6538, Note_off_c, 9, 38, 120
1, 6598, Note_off_c, 5, 58, 80
1, 6620, Note_off_c, 5, 63, 80
1, 6644, Note_off_c, 5, 67, 80
1, 6714, Note_on_c, 5, 60, 80
1, 6714, Note_on_c, 5, 63, 80
1, 6714, Note_on_c, 5, 68, 80
1, 6720, Note_on_c, 3, 70, 127
1, 6720, Note_on_c, 3, 58, 127
1, 6726, Note_on_c, 9, 42, 70
1, 6726, Note_on_c, 9, 70, 80
1, 6726, Note_on_c, 9, 36, 100
1, 6726, Note_on_c, 1, 32, 122
1, 6728, Note_on_c, 6, 60, 89
1, 6728, Note_on_c, 6, 63, 89
1, 6730, Note_off_c, 9, 36, 100
1, 6730, Note_off_c, 9, 70, 80
1, 6730, Note_off_c, 9, 42, 70
1, 6732, Note_on_c, 6, 56, 89
1, 6732, Note_on_c, 6, 68, 89
1, 6818, Note_on_c, 9, 70, 80
1, 6820, Note_off_c, 9, 70, 80
1, 6826, Note_off_c, 6, 56, 89
1, 6830, Note_off_c, 6, 68, 89
1, 6838, Note_off_c, 6, 63, 89
1, 6846, Note_off_c, 6, 60, 89
1, 6894, Note_off_c, 1, 32, 122
1, 6914, Note_on_c, 9, 42, 82
1, 6916, Note_off_c, 9, 42, 82
1, 6918, Note_on_c, 9, 47, 62
1, 6922, Note_off_c, 9, 47, 62
1, 7106, Note_on_c, 9, 42, 70
1, 7106, Note_on_c, 9, 36, 100
1, 7106, Note_on_c, 1, 32, 122
1, 7108, Note_on_c, 9, 67, 80
1, 7108, Note_on_c, 6, 56, 89
1, 7108, Note_on_c, 6, 60, 89
1, 7108, Note_on_c, 6, 63, 89
1, 7110, Note_on_c, 6, 68, 89
1, 7112, Note_off_c, 9, 67, 80
1, 7112, Note_off_c, 9, 42, 70
1, 7114, Note_off_c, 9, 36, 100
1, 7210, Note_off_c, 6, 68, 89
1, 7222, Note_off_c, 6, 60, 89
1, 7226, Note_off_c, 6, 63, 89
1, 7230, Note_off_c, 6, 56, 89
1, 7270, Note_on_c, 9, 46, 80
1, 7274, Note_off_c, 9, 46, 80
1, 7278, Note_off_c, 1, 32, 122
1, 7302, Note_on_c, 9, 38, 120
1, 7302, Note_on_c, 9, 42, 78
1, 7302, Note_on_c, 9, 46, 95
1, 7302, Note_on_c, 9, 47, 60
1, 7306, Note_off_c, 9, 47, 60
1, 7306, Note_off_c, 9, 46, 95
1, 7306, Note_off_c, 9, 42, 78
1, 7306, Note_off_c, 9, 38, 120
1, 7494, Note_on_c, 9, 42, 70
1, 7494, Note_on_c, 9, 46, 95
1, 7494, Note_on_c, 9, 36, 100
1, 7494, Note_on_c, 6, 68, 89
1, 7498, Note_off_c, 9, 36, 100
1, 7498, Note_on_c, 1, 29, 122
1, 7498, Note_on_c, 6, 63, 89
1, 7500, Note_on_c, 6, 53, 89
1, 7500, Note_on_c, 6, 60, 89
1, 7502, Note_off_c, 9, 46, 95
1, 7502, Note_off_c, 9, 42, 70
1, 7590, Note_off_c, 6, 60, 89
1, 7606, Note_off_c, 6, 63, 89
1, 7610, Note_off_c, 6, 68, 89
1, 7626, Note_off_c, 6, 53, 89
1, 7674, Note_off_c, 1, 29, 122
1, 7684, Note_on_c, 9, 36, 100
1, 7686, Note_on_c, 9, 42, 82
1, 7686, Note_on_c, 9, 47, 62
1, 7686, Note_on_c, 9, 67, 80
1, 7688, Note_off_c, 9, 67, 80
1, 7690, Note_off_c, 9, 47, 62
1, 7690, Note_off_c, 9, 42, 82
1, 7690, Note_off_c, 9, 36, 100
1, 7878, Note_on_c, 9, 42, 70
1, 7878, Note_on_c, 9, 70, 80
1, 7878, Note_on_c, 9, 36, 100
1, 7878, Note_on_c, 6, 63, 89
1, 7880, Note_off_c, 9, 42, 70
1, 7880, Note_on_c, 6, 53, 89
1, 7882, Note_off_c, 9, 36, 100
1, 7882, Note_on_c, 1, 32, 122
1, 7884, Note_on_c, 6, 68, 89
1, 7884, Note_on_c, 6, 72, 89
1, 7886, Note_off_c, 9, 70, 80
1, 7982, Note_off_c, 6, 72, 89
1, 7990, Note_off_c, 6, 68, 89
1, 7990, Note_off_c, 6, 53, 89
1, 8014, Note_off_c, 6, 63, 89
1, 8062, Note_off_c, 1, 32, 122
1, 8070, Note_on_c, 9, 38, 120
1, 8070, Note_on_c, 9, 42, 78
1, 8070, Note_on_c, 9, 47, 60
1, 8074, Note_off_c, 9, 47, 60
1, 8074, Note_off_c, 9, 42, 78
1, 8074, Note_off_c, 9, 38, 120
1, 8262, Note_on_c, 9, 42, 70
1, 8262, Note_on_c, 9, 70, 80
1, 8262, Note_on_c, 9, 36, 100
1, 8262, Note_on_c, 6, 65, 89
1, 8264, Note_on_c, 6, 58, 89
1, 8266, Note_off_c, 9, 36, 100
1, 8266, Note_off_c, 9, 70, 80
1, 8266, Note_off_c, 9, 42, 70
1, 8268, Note_on_c, 1, 29, 122
1, 8268, Note_on_c, 6, 63, 89
1, 8268, Note_on_c, 6, 70, 89
1, 8278, Note_off_c, 5, 63, 80
1, 8300, Note_off_c, 5, 60, 80
1, 8354, Note_on_c, 9, 70, 80
1, 8358, Note_off_c, 9, 70, 80
1, 8382, Note_off_c, 6, 70, 89
1, 8384, Note_off_c, 6, 58, 89
1, 8386, Note_off_c, 6, 65, 89
1, 8388, Note_off_c, 6, 63, 89
1, 8428, Note_off_c, 1, 29, 122
1, 8442, Note_off_c, 5, 68, 80
1, 8442, Note_on_c, 5, 62, 80
1, 8442, Note_on_c, 5, 65, 80
1, 8444, Note_on_c, 5, 58, 80
1, 8450, Note_on_c, 9, 42, 82
1, 8452, Note_off_c, 9, 42, 82
1, 8454, Note_on_c, 9, 47, 62
1, 8454, Note_on_c, 9, 36, 100
1, 8456, Note_off_c, 9, 47, 62
1, 8458, Note_off_c, 9, 36, 100
1, 8472, Note_off_c, 3, 70, 127
1, 8642, Note_on_c, 6, 62, 89
1, 8646, Note_on_c, 9, 42, 70
1, 8646, Note_on_c, 9, 67, 80
1, 8646, Note_on_c, 1, 34, 122
1, 8648, Note_on_c, 6, 58, 89
1, 8648, Note_on_c, 6, 65, 89
1, 8650, Note_off_c, 9, 67, 80
1, 8650, Note_off_c, 9, 42, 70
1, 8650, Note_on_c, 6, 70, 89
1, 8776, Note_off_c, 3, 58, 127
1, 8806, Note_on_c, 9, 46, 80
1, 8810, Note_off_c, 9, 46, 80
1, 8834, Note_on_c, 9, 38, 120
1, 8834, Note_on_c, 9, 42, 78
1, 8838, Note_off_c, 9, 42, 78
1, 8838, Note_off_c, 9, 38, 120
1, 8838, Note_on_c, 9, 47, 60
1, 8840, Note_on_c, 9, 46, 95
1, 8842, Note_off_c, 9, 47, 60
1, 8930, Note_on_c, 9, 46, 75
1, 8932, Note_off_c, 9, 46, 75
1, 8962, Note_off_c, 1, 34, 122
1, 8974, Note_off_c, 6, 70, 89
1, 8988, Note_off_c, 6, 65, 89
1, 8998, Note_off_c, 6, 58, 89
1, 9002, Note_off_c, 6, 62, 89
1, 9026, Note_on_c, 9, 42, 70
1, 9026, Note_on_c, 9, 46, 95
1, 9030, Note_off_c, 9, 42, 70
1, 9030, Note_off_c, 9, 46, 95
1, 9054, Note_off_c, 5, 62, 80
1, 9068, Note_off_c, 5, 58, 80
1, 9116, Note_off_c, 5, 65, 80
1, 9210, Note_on_c, 5, 58, 80
1, 9210, Note_on_c, 5, 63, 80
1, 9212, Note_on_c, 5, 67, 80
1, 9216, Note_on_c, 3, 63, 127
1, 9216, Note_on_c, 3, 75, 127
1, 9218, Note_on_c, 9, 36, 100
1, 9220, Note_on_c, 9, 42, 82
1, 9220, Note_on_c, 9, 51, 55
1, 9222, Note_on_c, 9, 47, 62
1, 9222, Note_on_c, 9, 67, 80
1, 9222, Note_on_c, 6, 58, 89
1, 9222, Note_on_c, 6, 63, 89
1, 9224, Note_off_c, 9, 42, 82
1, 9226, Note_off_c, 9, 36, 100
1, 9226, Note_on_c, 1, 27, 122
1, 9226, Note_on_c, 6, 51, 89
1, 9226, Note_on_c, 6, 67, 89
1, 9228, Note_off_c, 9, 67, 80
1, 9228, Note_off_c, 9, 47, 62
1, 9230, Note_off_c, 9, 51, 55
1, 9300, Note_off_c, 3, 63, 127
1, 9310, Note_off_c, 3, 75, 127
1, 9312, Note_on_c, 3, 65, 127
1, 9312, Note_on_c, 3, 77, 127
1, 9342, Note_off_c, 6, 63, 89
1, 9342, Note_off_c, 6, 58, 89
1, 9346, Note_off_c, 6, 51, 89
1, 9364, Note_off_c, 6, 67, 89
1, 9406, Note_off_c, 3, 77, 127
1, 9406, Note_off_c, 3, 65, 127
1, 9408, Note_on_c, 3, 67, 127
1, 9408, Note_on_c, 3, 79, 127
1, 9408, Note_on_c, 3, 79, 127
1, 9410, Note_off_c, 3, 79, 127
1, 9410, Note_on_c, 9, 42, 70
1, 9410, Note_on_c, 9, 70, 80
1, 9410, Note_on_c, 9, 36, 100
1, 9412, Note_off_c, 9, 70, 80
1, 9414, Note_off_c, 9, 36, 100
1, 9414, Note_off_c, 9, 42, 70
1, 9484, Note_off_c, 1, 27, 122
1, 9492, Note_off_c, 3, 79, 127
1, 9498, Note_off_c, 3, 67, 127
1, 9602, Note_on_c, 9, 38, 120
1, 9602, Note_on_c, 9, 42, 78
1, 9602, Note_on_c, 9, 47, 60
1, 9604, Note_off_c, 9, 47, 60
1, 9606, Note_off_c, 9, 42, 78
1, 9606, Note_off_c, 9, 38, 120
1, 9678, Note_off_c, 5, 58, 80
1, 9714, Note_off_c, 5, 63, 80
1, 9716, Note_off_c, 5, 67, 80
1, 9786, Note_on_c, 5, 60, 80
1, 9786, Note_on_c, 5, 63, 80
1, 9786, Note_on_c, 5, 68, 80
1, 9794, Note_on_c, 9, 36, 100
1, 9794, Note_on_c, 6, 63, 89
1, 9798, Note_on_c, 9, 42, 70
1, 9798, Note_on_c, 9, 70, 80
1, 9798, Note_on_c, 1, 32, 122
1, 9800, Note_on_c, 6, 56, 89
1, 9800, Note_on_c, 6, 60, 89
1, 9802, Note_off_c, 9, 70, 80
1, 9802, Note_off_c, 9, 42, 70
1, 9802, Note_off_c, 9, 36, 100
1, 9804, Note_on_c, 6, 68, 89
1, 9890, Note_on_c, 9, 70, 80
1, 9892, Note_off_c, 9, 70, 80
1, 9910, Note_off_c, 6, 68, 89
1, 9922, Note_off_c, 6, 60, 89
1, 9926, Note_off_c, 6, 56, 89
1, 9930, Note_off_c, 6, 63, 89
1, 9958, Note_off_c, 1, 32, 122
1, 9984, Note_on_c, 3, 63, 127
1, 9984, Note_on_c, 3, 75, 127
1, 9986, Note_on_c, 9, 42, 82
1, 9986, Note_on_c, 9, 47, 62
1, 9988, Note_off_c, 9, 47, 62
1, 9988, Note_off_c, 9, 42, 82
1, 10066, Note_off_c, 3, 63, 127
1, 10072, Note_off_c, 3, 75, 127
1, 10080, Note_on_c, 3, 65, 127
1, 10080, Note_on_c, 3, 77, 127
1, 10148, Note_on_c, 9, 46, 65
1, 10152, Note_off_c, 9, 46, 65
1, 10174, Note_off_c, 3, 77, 127
1, 10174, Note_off_c, 3, 65, 127
1, 10176, Note_on_c, 3, 67, 127
1, 10176, Note_on_c, 3, 79, 127
1, 10182, Note_on_c, 9, 42, 70
1, 10182, Note_on_c, 9, 36, 100
1, 10182, Note_on_c, 6, 56, 89
1, 10186, Note_off_c, 9, 36, 100
1, 10186, Note_on_c, 9, 67, 80
1, 10186, Note_on_c, 1, 32, 122
1, 10188, Note_on_c, 9, 46, 95
1, 10188, Note_on_c, 6, 60, 89
1, 10188, Note_on_c, 6, 63, 89
1, 10190, Note_off_c, 9, 67, 80
1, 10190, Note_off_c, 9, 42, 70
1, 10190, Note_off_c, 9, 46, 95
1, 10192, Note_on_c, 6, 68, 89
1, 10238, Note_off_c, 3, 67, 127
1, 10266, Note_off_c, 3, 79, 127
1, 10302, Note_off_c, 6, 68, 89
1, 10310, Note_off_c, 6, 60, 89
1, 10314, Note_off_c, 6, 63, 89
1, 10334, Note_off_c, 6, 56, 89
1, 10364, Note_off_c, 1, 32, 122
1, 10372, Note_on_c, 9, 38, 120
1, 10374, Note_on_c, 9, 42, 78
1, 10374, Note_on_c, 9, 47, 60
1, 10376, Note_off_c, 9, 47, 60
1, 10378, Note_off_c, 9, 42, 78
1, 10378, Note_off_c, 9, 38, 120
1, 10564, Note_on_c, 9, 36, 100
1, 10566, Note_on_c, 9, 42, 70
1, 10566, Note_on_c, 6, 53, 89
1, 10566, Note_on_c, 6, 60, 89
1, 10570, Note_off_c, 9, 42, 70
1, 10570, Note_off_c, 9, 36, 100
1, 10570, Note_on_c, 1, 29, 122
1, 10572, Note_on_c, 6, 63, 89
1, 10572, Note_on_c, 6, 68, 89
1, 10686, Note_off_c, 6, 60, 89
1, 10698, Note_off_c, 6, 68, 89
1, 10702, Note_off_c, 6, 63, 89
1, 10704, Note_off_c, 6, 53, 89
1, 10756, Note_on_c, 9, 42, 82
1, 10756, Note_on_c, 9, 36, 100
1, 10758, Note_on_c, 9, 47, 62
1, 10758, Note_on_c, 9, 67, 80
1, 10760, Note_off_c, 9, 67, 80
1, 10760, Note_off_c, 9, 47, 62
1, 10762, Note_off_c, 9, 36, 100
1, 10762, Note_off_c, 9, 42, 82
1, 10814, Note_off_c, 1, 29, 122
1, 10944, Note_on_c, 3, 68, 127
1, 10944, Note_on_c, 3, 80, 127
1, 10950, Note_on_c, 9, 42, 70
1, 10950, Note_on_c, 9, 70, 80
1, 10950, Note_on_c, 9, 36, 100
1, 10952, Note_off_c, 9, 70, 80
1, 10954, Note_off_c, 9, 36, 100
1, 10954, Note_off_c, 9, 42, 70
1, 10976, Note_off_c, 3, 80, 127
1, 10986, Note_off_c, 3, 68, 127
1, 11040, Note_on_c, 3, 68, 127
1, 11040, Note_on_c, 3, 80, 127
1, 11080, Note_off_c, 3, 80, 127
1, 11090, Note_off_c, 3, 68, 127
1, 11136, Note_on_c, 3, 68, 127
1, 11136, Note_on_c, 3, 80, 127
1, 11140, Note_on_c, 9, 38, 120
1, 11142, Note_on_c, 9, 42, 78
1, 11142, Note_on_c, 9, 47, 60
1, 11144, Note_off_c, 9, 47, 60
1, 11146, Note_off_c, 9, 42, 78
1, 11146, Note_off_c, 9, 38, 120
1, 11240, Note_off_c, 3, 80, 127
1, 11258, Note_off_c, 3, 68, 127
1, 11328, Note_on_c, 3, 67, 127
1, 11328, Note_on_c, 3, 79, 127
1, 11330, Note_on_c, 9, 36, 100
1, 11332, Note_off_c, 9, 36, 100
1, 11334, Note_on_c, 9, 42, 70
1, 11334, Note_on_c, 1, 29, 122
1, 11336, Note_on_c, 9, 70, 80
1, 11338, Note_off_c, 9, 70, 80
1, 11338, Note_off_c, 9, 42, 70
1, 11370, Note_off_c, 3, 79, 127
1, 11372, Note_off_c, 3, 67, 127
1, 11372, Note_off_c, 5, 63, 80
1, 11424, Note_on_c, 3, 67, 127
1, 11424, Note_on_c, 3, 79, 127
1, 11426, Note_on_c, 9, 70, 80
1, 11428, Note_off_c, 9, 70, 80
1, 11466, Note_off_c, 3, 67, 127
1, 11470, Note_off_c, 5, 68, 80
1, 11474, Note_off_c, 3, 79, 127
1, 11500, Note_off_c, 5, 60, 80
1, 11514, Note_on_c, 5, 62, 80
1, 11514, Note_on_c, 5, 65, 80
1, 11514, Note_on_c, 5, 70, 80
1, 11516, Note_off_c, 1, 29, 122
1, 11520, Note_on_c, 3, 67, 127
1, 11520, Note_on_c, 3, 79, 127
1, 11522, Note_on_c, 6, 65, 89
1, 11524, Note_on_c, 9, 42, 82
1, 11526, Note_on_c, 9, 47, 62
1, 11526, Note_on_c, 9, 36, 100
1, 11526, Note_on_c, 6, 58, 89
1, 11526, Note_on_c, 6, 62, 89
1, 11530, Note_off_c, 9, 36, 100
1, 11530, Note_off_c, 9, 42, 82
1, 11530, Note_on_c, 1, 34, 122
1, 11530, Note_on_c, 6, 70, 89
1, 11532, Note_off_c, 9, 47, 62
1, 11600, Note_off_c, 3, 79, 127
1, 11624, Note_off_c, 3, 67, 127
1, 11642, Note_off_c, 6, 58, 89
1, 11648, Note_off_c, 6, 70, 89
1, 11648, Note_off_c, 6, 62, 89
1, 11666, Note_off_c, 6, 65, 89
1, 11706, Note_off_c, 1, 34, 122
1, 11712, Note_on_c, 3, 65, 127
1, 11712, Note_on_c, 3, 77, 127
1, 11714, Note_on_c, 9, 42, 70
1, 11716, Note_off_c, 9, 42, 70
1, 11718, Note_on_c, 9, 67, 80
1, 11722, Note_off_c, 9, 67, 80
1, 11746, Note_off_c, 3, 65, 127
1, 11752, Note_off_c, 3, 77, 127
1, 11808, Note_on_c, 3, 65, 127
1, 11808, Note_on_c, 3, 77, 127
1, 11854, Note_off_c, 3, 77, 127
1, 11856, Note_off_c, 3, 65, 127
1, 11878, Note_on_c, 9, 46, 65
1, 11880, Note_off_c, 9, 46, 65
1, 11904, Note_on_c, 3, 65, 127
1, 11904, Note_on_c, 3, 77, 127
1, 11906, Note_on_c, 9, 38, 120
1, 11908, Note_on_c, 9, 42, 78
1, 11910, Note_on_c, 9, 46, 95
1, 11910, Note_on_c, 9, 47, 60
1, 11910, Note_on_c, 6, 65, 89
1, 11910, Note_on_c, 6, 70, 89
1, 11914, Note_off_c, 9, 42, 78
1, 11914, Note_off_c, 9, 38, 120
1, 11914, Note_on_c, 1, 34, 122
1, 11916, Note_on_c, 6, 58, 89
1, 11916, Note_on_c, 6, 62, 89
1, 11918, Note_off_c, 9, 47, 60
1, 11918, Note_off_c, 9, 46, 95
1, 12008, Note_off_c, 3, 77, 127
1, 12026, Note_off_c, 6, 58, 89
1, 12034, Note_off_c, 6, 70, 89
1, 12042, Note_off_c, 6, 62, 89
1, 12054, Note_off_c, 6, 65, 89
1, 12078, Note_off_c, 5, 62, 80
1, 12084, Note_off_c, 3, 65, 127
1, 12084, Note_off_c, 5, 70, 80
1, 12094, Note_off_c, 5, 65, 80
1, 12096, Note_on_c, 3, 63, 127
1, 12096, Note_on_c, 3, 75, 127
1, 12098, Note_on_c, 9, 42, 70
1, 12098, Note_on_c, 9, 46, 75
1, 12100, Note_off_c, 9, 46, 75
1, 12102, Note_off_c, 9, 42, 70
1, 12170, Note_off_c, 1, 34, 122
1, 12184, Note_off_c, 3, 63, 127
1, 12186, Note_off_c, 3, 75, 127
1, 12192, Note_on_c, 3, 65, 127
1, 12192, Note_on_c, 3, 77, 127
1, 12194, Note_on_c, 9, 46, 75
1, 12196, Note_off_c, 9, 46, 75
1, 12282, Note_on_c, 5, 58, 80
1, 12282, Note_on_c, 5, 63, 80
1, 12282, Note_on_c, 5, 67, 80
1, 12286, Note_off_c, 3, 77, 127
1, 12286, Note_off_c, 3, 65, 127
1, 12288, Note_on_c, 3, 67, 127
1, 12288, Note_on_c, 3, 79, 127
1, 12290, Note_on_c, 9, 36, 100
1, 12292, Note_on_c, 9, 42, 82
1, 12294, Note_on_c, 9, 47, 62
1, 12294, Note_on_c, 6, 51, 89
1, 12294, Note_on_c, 6, 58, 89
1, 12294, Note_on_c, 6, 63, 89
1, 12296, Note_off_c, 9, 36, 100
1, 12298, Note_on_c, 9, 67, 80
1, 12298, Note_on_c, 1, 27, 122
1, 12298, Note_on_c, 6, 67, 89
1, 12302, Note_off_c, 9, 67, 80
1, 12302, Note_off_c, 9, 47, 62
1, 12302, Note_off_c, 9, 42, 82
1, 12354, Note_off_c, 3, 79, 127
1, 12376, Note_off_c, 3, 67, 127
1, 12406, Note_off_c, 6, 51, 89
1, 12410, Note_off_c, 6, 58, 89
1, 12418, Note_off_c, 6, 63, 89
1, 12442, Note_off_c, 6, 67, 89
1, 12480, Note_on_c, 3, 70, 127
1, 12480, Note_on_c, 3, 82, 127
1, 12482, Note_on_c, 9, 42, 70
1, 12482, Note_on_c, 9, 70, 80
1, 12482, Note_on_c, 9, 36, 100
1, 12484, Note_off_c, 9, 70, 80
1, 12486, Note_off_c, 9, 36, 100
1, 12486, Note_off_c, 9, 42, 70
1, 12488, Note_on_c, 9, 46, 95
1, 12490, Note_off_c, 9, 46, 95
1, 12568, Note_off_c, 3, 82, 127
1, 12578, Note_off_c, 1, 27, 122
1, 12584, Note_off_c, 3, 70, 127
1, 12678, Note_on_c, 9, 38, 120
1, 12678, Note_on_c, 9, 42, 78
1, 12678, Note_on_c, 9, 47, 60
1, 12680, Note_off_c, 9, 47, 60
1, 12682, Note_off_c, 9, 42, 78
1, 12682, Note_off_c, 9, 38, 120
1, 12740, Note_off_c, 5, 58, 80
1, 12760, Note_off_c, 5, 67, 80
1, 12764, Note_off_c, 5, 63, 80
1, 12838, Note_on_c, 9, 46, 65
1, 12840, Note_off_c, 9, 46, 65
1, 12858, Note_on_c, 5, 60, 80
1, 12858, Note_on_c, 5, 63, 80
1, 12862, Note_on_c, 5, 68, 80
1, 12864, Note_on_c, 3, 70, 127
1, 12864, Note_on_c, 3, 82, 127
1, 12870, Note_on_c, 9, 42, 70
1, 12870, Note_on_c, 9, 70, 80
1, 12870, Note_on_c, 9, 36, 100
1, 12870, Note_on_c, 6, 60, 89
1, 12874, Note_on_c, 9, 46, 95
1, 12874, Note_on_c, 1, 32, 122
1, 12876, Note_on_c, 6, 56, 89
1, 12876, Note_on_c, 6, 63, 89
1, 12876, Note_on_c, 6, 68, 89
1, 12878, Note_off_c, 9, 36, 100
1, 12878, Note_off_c, 9, 70, 80
1, 12878, Note_off_c, 9, 42, 70
1, 12878, Note_off_c, 9, 46, 95
1, 12964, Note_on_c, 9, 70, 80
1, 12968, Note_off_c, 9, 70, 80
1, 12970, Note_off_c, 6, 56, 89
1, 12974, Note_off_c, 6, 68, 89
1, 12982, Note_off_c, 6, 63, 89
1, 12990, Note_off_c, 6, 60, 89
1, 13036, Note_off_c, 1, 32, 122
1, 13062, Note_on_c, 9, 42, 82
1, 13062, Note_on_c, 9, 47, 62
1, 13064, Note_off_c, 9, 47, 62
1, 13066, Note_off_c, 9, 42, 82
1, 13254, Note_on_c, 9, 42, 70
1, 13254, Note_on_c, 9, 67, 80
1, 13254, Note_on_c, 9, 36, 100
1, 13254, Note_on_c, 6, 56, 89
1, 13256, Note_on_c, 6, 60, 89
1, 13258, Note_off_c, 9, 36, 100
1, 13258, Note_off_c, 9, 42, 70
1, 13258, Note_on_c, 1, 32, 122
1, 13258, Note_on_c, 6, 63, 89
1, 13260, Note_on_c, 6, 68, 89
1, 13262, Note_off_c, 9, 67, 80
1, 13354, Note_off_c, 6, 68, 89
1, 13366, Note_off_c, 6, 63, 89
1, 13366, Note_off_c, 6, 60, 89
1, 13374, Note_off_c, 6, 56, 89
1, 13422, Note_off_c, 1, 32, 122
1, 13446, Note_on_c, 9, 38, 120
1, 13446, Note_on_c, 9, 42, 78
1, 13446, Note_on_c, 9, 47, 60
1, 13448, Note_off_c, 9, 47, 60
1, 13450, Note_off_c, 9, 42, 78
1, 13450, Note_off_c, 9, 38, 120
1, 13636, Note_on_c, 1, 29, 122
1, 13638, Note_on_c, 9, 42, 70
1, 13638, Note_on_c, 9, 36, 100
1, 13640, Note_on_c, 6, 60, 89
1, 13640, Note_on_c, 6, 63, 89
1, 13640, Note_on_c, 6, 68, 89
1, 13642, Note_off_c, 9, 36, 100
1, 13642, Note_off_c, 9, 42, 70
1, 13644, Note_on_c, 6, 53, 89
1, 13734, Note_off_c, 6, 60, 89
1, 13750, Note_off_c, 6, 63, 89
1, 13754, Note_off_c, 6, 68, 89
1, 13770, Note_off_c, 6, 53, 89
1, 13798, Note_on_c, 9, 46, 75
1, 13802, Note_off_c, 9, 46, 75
1, 13812, Note_off_c, 1, 29, 122
1, 13828, Note_on_c, 9, 42, 82
1, 13828, Note_on_c, 9, 36, 100
1, 13830, Note_on_c, 9, 46, 95
1, 13830, Note_on_c, 9, 47, 62
1, 13830, Note_on_c, 9, 67, 80
1, 13832, Note_off_c, 9, 67, 80
1, 13832, Note_off_c, 9, 46, 95
1, 13834, Note_off_c, 9, 47, 62
1, 13834, Note_off_c, 9, 36, 100
1, 13834, Note_off_c, 9, 42, 82
1, 13922, Note_on_c, 9, 46, 85
1, 13924, Note_off_c, 9, 46, 85
1, 14018, Note_on_c, 9, 36, 100
1, 14020, Note_on_c, 9, 42, 70
1, 14022, Note_on_c, 9, 46, 75
1, 14022, Note_on_c, 9, 70, 80
1, 14022, Note_on_c, 6, 53, 89
1, 14022, Note_on_c, 6, 63, 89
1, 14026, Note_off_c, 9, 42, 70
1, 14026, Note_off_c, 9, 36, 100
1, 14026, Note_on_c, 1, 32, 122
1, 14026, Note_on_c, 6, 72, 89
1, 14028, Note_on_c, 6, 68, 89
1, 14030, Note_off_c, 9, 70, 80
1, 14030, Note_off_c, 9, 46, 75
1, 14126, Note_off_c, 6, 72, 89
1, 14134, Note_off_c, 6, 68, 89
1, 14134, Note_off_c, 6, 53, 89
1, 14150, Note_off_c, 9, 46, 64
1, 14158, Note_off_c, 6, 63, 89
1, 14206, Note_off_c, 1, 32, 122
1, 14210, Note_on_c, 9, 38, 120
1, 14210, Note_on_c, 9, 42, 78
1, 14212, Note_off_c, 9, 42, 78
1, 14214, Note_off_c, 9, 38, 120
1, 14214, Note_on_c, 9, 47, 60
1, 14218, Note_off_c, 9, 47, 60
1, 14378, Note_off_c, 5, 63, 80
1, 14394, Note_off_c, 5, 60, 80
1, 14402, Note_on_c, 6, 65, 89
1, 14406, Note_on_c, 9, 42, 70
1, 14406, Note_on_c, 9, 70, 80
1, 14406, Note_on_c, 9, 36, 100
1, 14406, Note_on_c, 1, 29, 122
1, 14408, Note_on_c, 6, 58, 89
1, 14408, Note_on_c, 6, 63, 89
1, 14410, Note_off_c, 9, 36, 100
1, 14410, Note_off_c, 9, 70, 80
1, 14410, Note_off_c, 9, 42, 70
1, 14412, Note_on_c, 6, 70, 89
1, 14444, Note_off_c, 5, 68, 80
1, 14498, Note_on_c, 9, 70, 80
1, 14500, Note_off_c, 9, 70, 80
1, 14522, Note_off_c, 6, 58, 89
1, 14526, Note_off_c, 6, 70, 89
1, 14530, Note_off_c, 6, 65, 89
1, 14534, Note_off_c, 6, 63, 89
1, 14574, Note_off_c, 1, 29, 122
1, 14586, Note_on_c, 5, 58, 80
1, 14586, Note_on_c, 5, 62, 80
1, 14586, Note_on_c, 5, 65, 80
1, 14586, Note_on_c, 5, 70, 80
1, 14594, Note_on_c, 9, 42, 82
1, 14594, Note_on_c, 9, 50, 80
1, 14594, Note_on_c, 9, 36, 100
1, 14596, Note_off_c, 9, 50, 80
1, 14598, Note_off_c, 9, 36, 100
1, 14598, Note_off_c, 9, 42, 82
1, 14600, Note_on_c, 9, 47, 62
1, 14602, Note_off_c, 9, 47, 62
1, 14658, Note_on_c, 9, 38, 80
1, 14680, Note_off_c, 3, 70, 127
1, 14710, Note_off_c, 9, 38, 80
1, 14722, Note_on_c, 9, 38, 90
1, 14774, Note_off_c, 9, 38, 90
1, 14786, Note_on_c, 9, 42, 70
1, 14786, Note_on_c, 6, 62, 89
1, 14790, Note_on_c, 9, 38, 112
1, 14790, Note_on_c, 9, 67, 80
1, 14790, Note_on_c, 1, 34, 122
1, 14790, Note_on_c, 6, 65, 89
1, 14792, Note_on_c, 6, 58, 89
1, 14794, Note_off_c, 9, 67, 80
1, 14794, Note_off_c, 9, 38, 112
1, 14794, Note_off_c, 9, 42, 70
1, 14796, Note_on_c, 6, 70, 89
1, 14800, Note_off_c, 3, 82, 127
1, 14850, Note_on_c, 9, 38, 105
1, 14852, Note_off_c, 9, 38, 105
1, 14914, Note_on_c, 9, 38, 103
1, 14916, Note_off_c, 9, 38, 103
1, 14972, Control_c, 3, 7, 110
1, 14978, Note_on_c, 9, 38, 120
1, 14978, Note_on_c, 9, 42, 78
1, 14978, Note_on_c, 9, 47, 60
1, 14980, Note_off_c, 9, 47, 60
1, 14980, Note_off_c, 9, 42, 78
1, 14982, Note_off_c, 9, 38, 120
1, 15074, Note_on_c, 9, 38, 120
1, 15076, Note_off_c, 9, 38, 120
1, 15110, Note_off_c, 1, 34, 122
1, 15118, Note_off_c, 6, 70, 89
1, 15132, Note_off_c, 6, 65, 89
1, 15142, Note_off_c, 6, 58, 89
1, 15144, Note_off_c, 6, 62, 89
1, 15170, Note_on_c, 9, 42, 70
1, 15170, Note_on_c, 9, 50, 80
1, 15172, Note_off_c, 9, 50, 80
1, 15172, Note_off_c, 9, 42, 70
1, 15186, Note_off_c, 5, 70, 80
1, 15194, Note_off_c, 5, 58, 80
1, 15204, Note_off_c, 5, 62, 80
1, 15206, Note_off_c, 5, 65, 80
1, 15354, Note_on_c, 5, 58, 80
1, 15354, Note_on_c, 5, 67, 80
1, 15356, Note_on_c, 5, 63, 80
1, 15360, Note_on_c, 3, 75, 124
1, 15364, Note_on_c, 9, 42, 82
1, 15364, Note_on_c, 9, 36, 100
1, 15366, Note_on_c, 9, 51, 55
1, 15366, Note_on_c, 6, 67, 89
1, 15368, Note_on_c, 1, 27, 122
1, 15370, Note_on_c, 9, 47, 62
1, 15370, Note_on_c, 9, 67, 80
1, 15370, Note_on_c, 6, 58, 89
1, 15370, Note_on_c, 6, 63, 89
1, 15372, Note_off_c, 9, 67, 80
1, 15372, Note_off_c, 9, 47, 62
1, 15374, Note_off_c, 9, 51, 55
1, 15374, Note_off_c, 9, 36, 100
1, 15374, Note_off_c, 9, 42, 82
1, 15376, Note_on_c, 6, 51, 89
1, 15556, Note_on_c, 1, 29, 122
1, 15558, Note_on_c, 9, 42, 70
1, 15558, Note_on_c, 9, 70, 80
1, 15560, Note_off_c, 9, 70, 80
1, 15562, Note_off_c, 9, 42, 70
1, 15562, Note_off_c, 1, 27, 122
1, 15716, Note_off_c, 1, 29, 122
1, 15746, Note_on_c, 9, 38, 120
1, 15748, Note_off_c, 9, 38, 120
1, 15750, Note_on_c, 1, 31, 122
1, 15752, Note_on_c, 9, 42, 78
1, 15752, Note_on_c, 9, 47, 60
1, 15754, Note_off_c, 9, 42, 78
1, 15766, Note_off_c, 6, 63, 89
1, 15770, Note_off_c, 6, 58, 89
1, 15774, Note_off_c, 6, 51, 89
1, 15790, Note_off_c, 6, 67, 89
1, 15812, Note_off_c, 3, 75, 124
1, 15866, Note_off_c, 5, 58, 80
1, 15906, Note_off_c, 1, 31, 122
1, 15930, Note_on_c, 5, 60, 80
1, 15930, Note_on_c, 5, 68, 80
1, 15936, Note_on_c, 3, 70, 124
1, 15938, Note_on_c, 6, 60, 89
1, 15940, Note_on_c, 9, 36, 100
1, 15942, Note_on_c, 9, 42, 70
1, 15942, Note_on_c, 9, 70, 80
1, 15942, Note_on_c, 6, 68, 89
1, 15944, Note_on_c, 6, 63, 89
1, 15946, Note_off_c, 9, 42, 70
1, 15946, Note_off_c, 9, 36, 100
1, 15946, Note_on_c, 1, 32, 122
1, 15948, Note_off_c, 9, 70, 80
1, 15948, Note_on_c, 6, 56, 89
1, 15950, Note_off_c, 5, 67, 80
1, 16016, Note_off_c, 3, 70, 124
1, 16032, Note_on_c, 3, 72, 124
1, 16034, Note_on_c, 9, 70, 80
1, 16036, Note_off_c, 9, 70, 80
1, 16128, Note_off_c, 3, 72, 124
1, 16128, Note_on_c, 3, 75, 124
1, 16130, Note_on_c, 9, 42, 82
1, 16132, Note_off_c, 9, 42, 82
1, 16134, Note_on_c, 9, 47, 62
1, 16134, Note_on_c, 9, 36, 100
1, 16138, Note_off_c, 9, 36, 100
1, 16138, Note_off_c, 9, 47, 62
1, 16252, Note_off_c, 1, 32, 122
1, 16318, Note_off_c, 3, 75, 124
1, 16320, Note_on_c, 3, 72, 124
1, 16322, Note_on_c, 9, 42, 70
1, 16322, Note_on_c, 9, 67, 80
1, 16324, Note_off_c, 9, 67, 80
1, 16326, Note_off_c, 9, 42, 70
1, 16326, Note_on_c, 1, 32, 122
1, 16416, Note_off_c, 3, 72, 124
1, 16416, Note_on_c, 3, 70, 124
1, 16482, Note_off_c, 1, 32, 122
1, 16512, Note_off_c, 3, 70, 124
1, 16512, Note_on_c, 3, 72, 124
1, 16514, Note_on_c, 9, 38, 120
1, 16514, Note_on_c, 9, 42, 78
1, 16516, Note_off_c, 9, 42, 78
1, 16518, Note_off_c, 9, 38, 120
1, 16520, Note_on_c, 9, 47, 60
1, 16520, Note_on_c, 1, 31, 122
1, 16522, Note_off_c, 9, 47, 60
1, 16546, Note_off_c, 6, 68, 89
1, 16554, Note_off_c, 6, 63, 89
1, 16558, Note_off_c, 6, 56, 89
1, 16566, Note_off_c, 6, 60, 89
1, 16580, Note_off_c, 3, 72, 124
1, 16686, Note_off_c, 1, 31, 122
1, 16704, Note_on_c, 3, 70, 124
1, 16704, Note_on_c, 3, 75, 124
1, 16706, Note_on_c, 9, 42, 70
1, 16706, Note_on_c, 6, 60, 89
1, 16706, Note_on_c, 6, 68, 89
1, 16710, Note_off_c, 9, 42, 70
1, 16710, Note_on_c, 1, 29, 122
1, 16712, Note_on_c, 6, 53, 89
1, 16712, Note_on_c, 6, 63, 89
1, 16898, Note_on_c, 9, 36, 100
1, 16900, Note_off_c, 9, 47, 62
1, 16900, Note_on_c, 9, 42, 82
1, 16900, Note_on_c, 9, 47, 62
1, 16902, Note_off_c, 9, 42, 82
1, 16902, Note_off_c, 9, 36, 100
1, 16904, Note_on_c, 9, 67, 80
1, 16906, Note_off_c, 9, 67, 80
1, 17036, Note_off_c, 1, 29, 122
1, 17090, Note_on_c, 9, 42, 70
1, 17090, Note_on_c, 9, 70, 80
1, 17090, Note_on_c, 1, 29, 122
1, 17092, Note_off_c, 9, 70, 80
1, 17094, Note_off_c, 9, 42, 70
1, 17278, Note_off_c, 1, 29, 122
1, 17286, Note_on_c, 9, 38, 120
1, 17286, Note_on_c, 9, 42, 78
1, 17286, Note_on_c, 9, 47, 60
1, 17286, Note_on_c, 1, 36, 122
1, 17290, Note_off_c, 9, 42, 78
1, 17290, Note_off_c, 9, 38, 120
1, 17290, Note_off_c, 9, 47, 60
1, 17390, Note_off_c, 6, 63, 89
1, 17406, Note_off_c, 6, 53, 89
1, 17406, Note_off_c, 6, 60, 89
1, 17430, Note_off_c, 6, 68, 89
1, 17450, Note_off_c, 1, 36, 122
1, 17478, Note_on_c, 9, 42, 70
1, 17478, Note_on_c, 9, 70, 80
1, 17478, Note_on_c, 9, 36, 100
1, 17478, Note_on_c, 1, 29, 122
1, 17482, Note_off_c, 9, 36, 100
1, 17482, Note_off_c, 9, 70, 80
1, 17482, Note_off_c, 9, 42, 70
1, 17502, Note_off_c, 5, 63, 80
1, 17514, Note_off_c, 5, 60, 80
1, 17566, Note_off_c, 5, 68, 80
1, 17574, Note_on_c, 9, 70, 80
1, 17576, Note_off_c, 9, 70, 80
1, 17578, Note_off_c, 1, 29, 122
1, 17658, Note_on_c, 5, 62, 80
1, 17658, Note_on_c, 5, 65, 80
1, 17658, Note_on_c, 5, 70, 80
1, 17670, Note_on_c, 9, 42, 82
1, 17670, Note_on_c, 9, 47, 62
1, 17670, Note_on_c, 9, 36, 100
1, 17670, Note_on_c, 6, 62, 89
1, 17672, Note_on_c, 6, 65, 89
1, 17674, Note_off_c, 9, 36, 100
1, 17674, Note_off_c, 9, 42, 82
1, 17674, Note_on_c, 1, 34, 122
1, 17674, Note_on_c, 6, 70, 89
1, 17676, Note_on_c, 6, 58, 89
1, 17678, Note_off_c, 9, 47, 62
1, 17772, Note_off_c, 3, 75, 124
1, 17798, Note_off_c, 6, 70, 89
1, 17800, Note_off_c, 3, 70, 124
1, 17802, Note_off_c, 6, 58, 89
1, 17808, Note_off_c, 6, 65, 89
1, 17808, Note_off_c, 6, 62, 89
1, 17862, Note_on_c, 9, 42, 70
1, 17862, Note_on_c, 9, 67, 80
1, 17862, Note_on_c, 1, 36, 122
1, 17864, Note_off_c, 9, 67, 80
1, 17866, Note_off_c, 9, 42, 70
1, 17902, Note_off_c, 1, 34, 122
1, 18012, Note_off_c, 1, 36, 122
1, 18048, Note_on_c, 3, 70, 124
1, 18054, Note_on_c, 9, 38, 120
1, 18054, Note_on_c, 9, 42, 78
1, 18054, Note_on_c, 9, 47, 60
1, 18054, Note_on_c, 6, 62, 89
1, 18056, Note_on_c, 6, 65, 89
1, 18058, Note_off_c, 9, 42, 78
1, 18058, Note_off_c, 9, 38, 120
1, 18058, Note_on_c, 1, 34, 122
1, 18060, Note_on_c, 6, 58, 89
1, 18060, Note_on_c, 6, 70, 89
1, 18062, Note_off_c, 9, 47, 60
1, 18158, Note_off_c, 6, 70, 89
1, 18174, Note_off_c, 6, 58, 89
1, 18190, Note_off_c, 6, 65, 89
1, 18190, Note_off_c, 6, 62, 89
1, 18236, Note_off_c, 1, 34, 122
1, 18238, Note_off_c, 3, 70, 124
1, 18240, Note_on_c, 3, 72, 124
1, 18244, Note_on_c, 1, 36, 122
1, 18246, Note_on_c, 9, 42, 70
1, 18248, Note_off_c, 9, 42, 70
1, 18302, Note_off_c, 5, 62, 80
1, 18338, Note_off_c, 3, 72, 124
1, 18370, Note_off_c, 5, 65, 80
1, 18374, Note_off_c, 1, 36, 122
1, 18374, Note_off_c, 5, 70, 80
1, 18426, Note_on_c, 5, 58, 80
1, 18426, Note_on_c, 5, 63, 80
1, 18426, Note_on_c, 5, 67, 80
1, 18432, Note_on_c, 3, 67, 124
1, 18432, Note_on_c, 3, 70, 124
1, 18432, Note_on_c, 3, 75, 124
1, 18436, Note_on_c, 9, 42, 82
1, 18436, Note_on_c, 9, 36, 100
1, 18438, Note_on_c, 9, 47, 62
1, 18438, Note_on_c, 9, 67, 80
1, 18438, Note_on_c, 6, 51, 89
1, 18440, Note_off_c, 9, 36, 100
1, 18442, Note_on_c, 1, 27, 122
1, 18442, Note_on_c, 6, 58, 89
1, 18442, Note_on_c, 6, 63, 89
1, 18442, Note_on_c, 6, 67, 89
1, 18444, Note_off_c, 9, 67, 80
1, 18444, Note_off_c, 9, 47, 62
1, 18446, Note_off_c, 9, 42, 82
1, 18620, Note_off_c, 1, 27, 122
1, 18626, Note_on_c, 9, 42, 70
1, 18628, Note_off_c, 9, 42, 70
1, 18630, Note_on_c, 1, 29, 122
1, 18632, Note_on_c, 9, 70, 80
1, 18636, Note_off_c, 3, 75, 124
1, 18662, Note_off_c, 3, 70, 124
1, 18674, Note_off_c, 3, 67, 124
1, 18790, Note_off_c, 1, 29, 122
1, 18818, Note_on_c, 9, 38, 120
1, 18818, Note_on_c, 9, 42, 78
1, 18820, Note_off_c, 9, 42, 78
1, 18822, Note_off_c, 9, 38, 120
1, 18822, Note_on_c, 1, 31, 122
1, 18824, Note_on_c, 9, 47, 60
1, 18826, Note_off_c, 9, 47, 60
1, 18846, Note_off_c, 6, 63, 89
1, 18854, Note_off_c, 6, 67, 89
1, 18856, Note_off_c, 6, 58, 89
1, 18878, Note_off_c, 6, 51, 89
1, 18880, Note_off_c, 5, 58, 80
1, 18886, Note_off_c, 5, 67, 80
1, 18898, Note_off_c, 5, 63, 80
1, 18966, Note_off_c, 1, 31, 122
1, 19002, Note_on_c, 5, 60, 80
1, 19004, Note_on_c, 5, 63, 80
1, 19004, Note_on_c, 5, 68, 80
1, 19008, Note_on_c, 3, 60, 124
1, 19008, Note_on_c, 3, 68, 124
1, 19008, Note_on_c, 3, 63, 124
1, 19010, Note_on_c, 9, 36, 100
1, 19014, Note_on_c, 9, 42, 70
1, 19014, Note_on_c, 9, 70, 80
1, 19014, Note_on_c, 1, 32, 122
1, 19014, Note_on_c, 6, 63, 89
1, 19016, Note_on_c, 6, 60, 89
1, 19018, Note_off_c, 9, 42, 70
1, 19018, Note_off_c, 9, 36, 100
1, 19018, Note_off_c, 9, 70, 80
1, 19020, Note_on_c, 6, 56, 89
1, 19020, Note_on_c, 6, 68, 89
1, 19106, Note_on_c, 9, 70, 80
1, 19108, Note_off_c, 9, 70, 80
1, 19202, Note_on_c, 9, 42, 82
1, 19202, Note_on_c, 9, 47, 62
1, 19202, Note_on_c, 9, 36, 100
1, 19204, Note_off_c, 9, 47, 62
1, 19206, Note_off_c, 9, 36, 100
1, 19206, Note_off_c, 9, 42, 82
1, 19268, Note_off_c, 3, 68, 124
1, 19272, Note_off_c, 3, 63, 124
1, 19282, Note_off_c, 3, 60, 124
1, 19310, Note_off_c, 1, 32, 122
1, 19394, Note_on_c, 9, 42, 70
1, 19394, Note_on_c, 9, 67, 80
1, 19394, Note_on_c, 1, 32, 122
1, 19398, Note_off_c, 9, 67, 80
1, 19398, Note_off_c, 9, 42, 70
1, 19574, Note_off_c, 1, 32, 122
1, 19586, Note_on_c, 9, 38, 120
1, 19586, Note_on_c, 9, 42, 78
1, 19586, Note_on_c, 9, 47, 60
1, 19588, Note_off_c, 9, 47, 60
1, 19590, Note_off_c, 9, 42, 78
1, 19590, Note_off_c, 9, 38, 120
1, 19592, Note_on_c, 1, 31, 122
1, 19674, Note_off_c, 6, 60, 89
1, 19690, Note_off_c, 6, 63, 89
1, 19694, Note_off_c, 6, 68, 89
1, 19704, Note_off_c, 6, 56, 89
1, 19722, Note_off_c, 1, 31, 122
1, 19776, Note_on_c, 3, 56, 124
1, 19776, Note_on_c, 3, 60, 124
1, 19776, Note_on_c, 3, 65, 124
1, 19780, Note_on_c, 9, 42, 70
1, 19782, Note_on_c, 6, 53, 89
1, 19782, Note_on_c, 6, 60, 89
1, 19782, Note_on_c, 6, 68, 89
1, 19786, Note_off_c, 9, 42, 70
1, 19786, Note_on_c, 1, 29, 122
1, 19788, Note_on_c, 6, 63, 89
1, 19972, Note_on_c, 9, 42, 82
1, 19972, Note_on_c, 9, 36, 100
1, 19974, Note_on_c, 9, 47, 62
1, 19974, Note_on_c, 9, 67, 80
1, 19976, Note_off_c, 9, 67, 80
1, 19976, Note_off_c, 9, 47, 62
1, 19978, Note_off_c, 9, 36, 100
1, 19978, Note_off_c, 9, 42, 82
1, 20094, Note_off_c, 1, 29, 122
1, 20096, Note_off_c, 3, 56, 124
1, 20116, Note_off_c, 3, 60, 124
1, 20142, Note_off_c, 3, 65, 124
1, 20164, Note_on_c, 1, 29, 122
1, 20166, Note_on_c, 9, 42, 70
1, 20166, Note_on_c, 9, 70, 80
1, 20168, Note_off_c, 9, 70, 80
1, 20170, Note_off_c, 9, 42, 70
1, 20266, Note_off_c, 6, 63, 89
1, 20278, Note_off_c, 6, 60, 89
1, 20294, Note_off_c, 6, 68, 89
1, 20310, Note_off_c, 1, 29, 122
1, 20356, Note_on_c, 9, 38, 120
1, 20358, Note_on_c, 9, 42, 78
1, 20358, Note_on_c, 9, 47, 60
1, 20360, Note_on_c, 6, 63, 89
1, 20360, Note_on_c, 6, 68, 89
1, 20362, Note_off_c, 9, 42, 78
1, 20362, Note_off_c, 9, 38, 120
1, 20362, Note_on_c, 1, 36, 122
1, 20362, Note_on_c, 6, 60, 89
1, 20364, Note_off_c, 9, 47, 60
1, 20510, Note_off_c, 6, 60, 89
1, 20518, Note_off_c, 6, 63, 89
1, 20522, Note_off_c, 6, 53, 89
1, 20526, Note_off_c, 6, 68, 89
1, 20532, Note_off_c, 1, 36, 122
1, 20544, Note_on_c, 3, 70, 124
1, 20550, Note_on_c, 9, 42, 70
1, 20550, Note_on_c, 9, 36, 100
1, 20550, Note_on_c, 1, 29, 122
1, 20552, Note_off_c, 9, 70, 80
1, 20552, Note_on_c, 9, 70, 80
1, 20554, Note_off_c, 9, 36, 100
1, 20554, Note_off_c, 9, 42, 70
1, 20570, Note_off_c, 5, 63, 80
1, 20588, Note_off_c, 5, 60, 80
1, 20638, Note_off_c, 3, 70, 124
1, 20640, Note_on_c, 3, 72, 124
1, 20646, Note_on_c, 9, 70, 80
1, 20648, Note_off_c, 9, 70, 80
1, 20682, Note_off_c, 1, 29, 122
1, 20684, Note_off_c, 3, 72, 124
1, 20718, Note_off_c, 5, 68, 80
1, 20730, Note_on_c, 5, 58, 80
1, 20730, Note_on_c, 5, 62, 80
1, 20730, Note_on_c, 5, 65, 80
1, 20736, Note_on_c, 3, 75, 124
1, 20742, Note_on_c, 9, 42, 82
1, 20742, Note_on_c, 9, 47, 62
1, 20742, Note_on_c, 9, 36, 100
1, 20744, Note_on_c, 6, 62, 89
1, 20744, Note_on_c, 6, 70, 89
1, 20746, Note_off_c, 9, 36, 100
1, 20746, Note_off_c, 9, 42, 82
1, 20746, Note_on_c, 1, 34, 122
1, 20746, Note_on_c, 6, 58, 89
1, 20748, Note_on_c, 6, 65, 89
1, 20750, Note_off_c, 9, 47, 62
1, 20816, Note_off_c, 3, 75, 124
1, 20832, Note_on_c, 3, 77, 124
1, 20870, Note_off_c, 6, 65, 89
1, 20874, Note_off_c, 6, 70, 89
1, 20882, Note_off_c, 6, 62, 89
1, 20898, Note_off_c, 6, 58, 89
1, 20926, Note_off_c, 3, 77, 124
1, 20928, Note_on_c, 3, 79, 124
1, 20930, Note_on_c, 9, 42, 70
1, 20932, Note_off_c, 9, 42, 70
1, 20934, Note_on_c, 9, 38, 113
1, 20934, Note_on_c, 9, 67, 80
1, 20938, Note_off_c, 9, 67, 80
1, 20938, Note_off_c, 9, 38, 113
1, 20954, Note_off_c, 1, 34, 122
1, 20994, Note_on_c, 9, 38, 105
1, 20996, Note_off_c, 9, 38, 105
1, 21010, Note_off_c, 3, 79, 124
1, 21058, Note_on_c, 9, 38, 100
1, 21060, Note_off_c, 9, 38, 100
1, 21120, Note_on_c, 3, 77, 124
1, 21122, Note_on_c, 6, 62, 89
1, 21126, Note_on_c, 9, 38, 120
1, 21126, Note_on_c, 9, 42, 78
1, 21126, Note_on_c, 9, 47, 60
1, 21128, Note_on_c, 6, 58, 89
1, 21128, Note_on_c, 6, 65, 89
1, 21130, Note_off_c, 9, 42, 78
1, 21130, Note_off_c, 9, 38, 120
1, 21130, Note_off_c, 9, 47, 60
1, 21132, Note_on_c, 1, 34, 122
1, 21132, Note_on_c, 6, 70, 89
1, 21188, Note_off_c, 3, 77, 124
1, 21216, Note_on_c, 3, 75, 124
1, 21218, Note_on_c, 9, 38, 120
1, 21220, Note_off_c, 9, 38, 120
1, 21242, Note_off_c, 6, 58, 89
1, 21264, Note_off_c, 6, 62, 89
1, 21278, Note_off_c, 6, 65, 89
1, 21286, Note_off_c, 6, 70, 89
1, 21306, Note_off_c, 5, 62, 80
1, 21312, Note_off_c, 3, 75, 124
1, 21312, Note_on_c, 3, 72, 124
1, 21314, Note_on_c, 9, 42, 70
1, 21314, Note_on_c, 9, 50, 80
1, 21316, Note_off_c, 9, 50, 80
1, 21318, Note_off_c, 9, 42, 70
1, 21346, Note_off_c, 1, 34, 122
1, 21378, Note_off_c, 5, 58, 80
1, 21404, Note_off_c, 5, 65, 80
1, 21426, Note_off_c, 3, 72, 124
1, 21498, Note_on_c, 5, 67, 80
1, 21500, Note_on_c, 5, 58, 80
1, 21500, Note_on_c, 5, 63, 80
1, 21504, Note_on_c, 3, 70, 124
1, 21504, Note_on_c, 3, 75, 124
1, 21506, Note_on_c, 9, 36, 100
1, 21508, Note_on_c, 9, 42, 82
1, 21508, Note_on_c, 9, 51, 55
1, 21510, Note_on_c, 9, 47, 62
1, 21510, Note_on_c, 6, 63, 89
1, 21510, Note_on_c, 6, 67, 89
1, 21512, Note_off_c, 9, 42, 82
1, 21514, Note_off_c, 9, 36, 100
1, 21514, Note_on_c, 9, 67, 80
1, 21514, Note_on_c, 1, 27, 122
1, 21516, Note_off_c, 9, 67, 80
1, 21516, Note_on_c, 6, 51, 89
1, 21516, Note_on_c, 6, 58, 89
1, 21518, Note_off_c, 9, 51, 55
1, 21518, Note_off_c, 9, 47, 62
1, 21698, Note_on_c, 9, 42, 70
1, 21698, Note_on_c, 9, 70, 80
1, 21700, Note_off_c, 9, 70, 80
1, 21702, Note_off_c, 9, 42, 70
1, 21702, Note_off_c, 1, 27, 122
1, 21704, Note_on_c, 1, 29, 122
1, 21858, Note_off_c, 1, 29, 122
1, 21890, Note_on_c, 9, 38, 120
1, 21890, Note_on_c, 9, 42, 78
1, 21890, Note_on_c, 9, 47, 60
1, 21892, Note_off_c, 9, 47, 60
1, 21894, Note_off_c, 9, 42, 78
1, 21894, Note_off_c, 9, 38, 120
1, 21896, Note_on_c, 1, 31, 122
1, 21910, Note_off_c, 6, 63, 89
1, 21914, Note_off_c, 6, 58, 89
1, 21918, Note_off_c, 6, 51, 89
1, 21934, Note_off_c, 6, 67, 89
1, 21950, Note_off_c, 5, 58, 80
1, 21956, Note_off_c, 3, 75, 124
1, 21980, Note_off_c, 3, 70, 124
1, 21996, Note_off_c, 5, 63, 80
1, 22006, Note_off_c, 5, 67, 80
1, 22050, Note_off_c, 1, 31, 122
1, 22074, Note_on_c, 5, 60, 80
1, 22078, Note_on_c, 5, 63, 80
1, 22078, Note_on_c, 5, 68, 80
1, 22080, Note_on_c, 3, 70, 124
1, 22082, Note_on_c, 9, 36, 100
1, 22082, Note_on_c, 6, 60, 89
1, 22086, Note_on_c, 9, 42, 70
1, 22086, Note_on_c, 9, 70, 80
1, 22086, Note_on_c, 1, 32, 122
1, 22088, Note_on_c, 6, 63, 89
1, 22088, Note_on_c, 6, 68, 89
1, 22090, Note_off_c, 9, 42, 70
1, 22090, Note_off_c, 9, 36, 100
1, 22090, Note_off_c, 9, 70, 80
1, 22092, Note_on_c, 6, 56, 89
1, 22160, Note_off_c, 3, 70, 124
1, 22176, Note_on_c, 3, 72, 124
1, 22178, Note_on_c, 9, 70, 80
1, 22182, Note_off_c, 9, 70, 80
1, 22266, Note_off_c, 3, 72, 124
1, 22272, Note_on_c, 3, 75, 124
1, 22274, Note_on_c, 9, 42, 82
1, 22274, Note_on_c, 9, 47, 62
1, 22274, Note_on_c, 9, 36, 100
1, 22276, Note_off_c, 9, 36, 100
1, 22276, Note_off_c, 9, 47, 62
1, 22278, Note_off_c, 9, 42, 82
1, 22394, Note_off_c, 1, 32, 122
1, 22462, Note_off_c, 3, 75, 124
1, 22464, Note_on_c, 3, 72, 124
1, 22466, Note_on_c, 9, 42, 70
1, 22466, Note_on_c, 9, 67, 80
1, 22466, Note_on_c, 1, 32, 122
1, 22470, Note_off_c, 9, 67, 80
1, 22470, Note_off_c, 9, 42, 70
1, 22552, Note_off_c, 3, 72, 124
1, 22560, Note_on_c, 3, 70, 124
1, 22628, Note_off_c, 1, 32, 122
1, 22654, Note_off_c, 3, 70, 124
1, 22656, Note_on_c, 3, 72, 124
1, 22662, Note_on_c, 9, 38, 120
1, 22662, Note_on_c, 9, 42, 78
1, 22662, Note_on_c, 9, 47, 60
1, 22662, Note_on_c, 1, 31, 122
1, 22664, Note_off_c, 9, 47, 60
1, 22666, Note_off_c, 9, 42, 78
1, 22666, Note_off_c, 9, 38, 120
1, 22694, Note_off_c, 6, 68, 89
1, 22702, Note_off_c, 6, 56, 89
1, 22702, Note_off_c, 6, 63, 89
1, 22714, Note_off_c, 6, 60, 89
1, 22728, Note_off_c, 3, 72, 124
1, 22828, Note_off_c, 1, 31, 122
1, 22848, Note_on_c, 3, 75, 124
1, 22848, Note_on_c, 3, 70, 124
1, 22852, Note_on_c, 9, 42, 70
1, 22854, Note_on_c, 6, 60, 89
1, 22854, Note_on_c, 6, 68, 89
1, 22856, Note_on_c, 6, 53, 89
1, 22858, Note_off_c, 9, 42, 70
1, 22858, Note_on_c, 1, 29, 122
1, 22860, Note_on_c, 6, 63, 89
1, 23044, Note_on_c, 9, 42, 82
1, 23044, Note_on_c, 9, 36, 100
1, 23046, Note_on_c, 9, 47, 62
1, 23046, Note_on_c, 9, 67, 80
1, 23048, Note_off_c, 9, 67, 80
1, 23050, Note_off_c, 9, 36, 100
1, 23050, Note_off_c, 9, 42, 82
1, 23050, Note_off_c, 9, 47, 62
1, 23182, Note_off_c, 1, 29, 122
1, 23238, Note_on_c, 9, 42, 70
1, 23238, Note_on_c, 9, 70, 80
1, 23238, Note_on_c, 1, 29, 122
1, 23242, Note_off_c, 9, 42, 70
1, 23242, Note_off_c, 9, 70, 80
1, 23422, Note_off_c, 1, 29, 122
1, 23428, Note_on_c, 1, 36, 122
1, 23430, Note_on_c, 9, 38, 120
1, 23430, Note_on_c, 9, 42, 78
1, 23432, Note_on_c, 9, 47, 60
1, 23434, Note_off_c, 9, 42, 78
1, 23434, Note_off_c, 9, 38, 120
1, 23434, Note_off_c, 9, 47, 60
1, 23534, Note_off_c, 6, 63, 89
1, 23550, Note_off_c, 6, 53, 89
1, 23550, Note_off_c, 6, 60, 89
1, 23570, Note_off_c, 6, 68, 89
1, 23594, Note_off_c, 1, 36, 122
1, 23620, Note_off_c, 5, 63, 80
1, 23622, Note_on_c, 9, 36, 100
1, 23622, Note_on_c, 1, 29, 122
1, 23624, Note_on_c, 9, 42, 70
1, 23624, Note_on_c, 9, 70, 80
1, 23626, Note_off_c, 9, 42, 70
1, 23626, Note_off_c, 9, 36, 100
1, 23626, Note_off_c, 9, 70, 80
1, 23658, Note_off_c, 5, 60, 80
1, 23678, Note_off_c, 3, 75, 124
1, 23692, Note_off_c, 3, 70, 124
1, 23694, Note_off_c, 5, 68, 80
1, 23714, Note_on_c, 9, 70, 80
1, 23716, Note_off_c, 9, 70, 80
1, 23722, Note_off_c, 1, 29, 122
1, 23802, Note_on_c, 5, 62, 80
1, 23802, Note_on_c, 5, 65, 80
1, 23804, Note_on_c, 5, 70, 80
1, 23808, Note_on_c, 3, 70, 124
1, 23810, Note_on_c, 9, 42, 82
1, 23812, Note_on_c, 9, 36, 100
1, 23814, Note_on_c, 9, 47, 62
1, 23814, Note_on_c, 6, 62, 89
1, 23814, Note_on_c, 6, 65, 89
1, 23818, Note_off_c, 9, 36, 100
1, 23818, Note_off_c, 9, 42, 82
1, 23818, Note_off_c, 9, 47, 62
1, 23820, Note_on_c, 1, 34, 122
1, 23820, Note_on_c, 6, 58, 89
1, 23820, Note_on_c, 6, 70, 89
1, 23942, Note_off_c, 6, 70, 89
1, 23946, Note_off_c, 6, 58, 89
1, 23952, Note_off_c, 6, 65, 89
1, 23952, Note_off_c, 6, 62, 89
1, 23998, Note_off_c, 3, 70, 124
1, 24000, Note_on_c, 3, 72, 124
1, 24002, Note_on_c, 9, 42, 70
1, 24002, Note_on_c, 9, 67, 80
1, 24004, Note_off_c, 9, 67, 80
1, 24006, Note_off_c, 9, 42, 70
1, 24006, Note_on_c, 1, 36, 122
1, 24046, Note_off_c, 1, 34, 122
1, 24098, Note_off_c, 3, 72, 124
1, 24158, Note_off_c, 1, 36, 122
1, 24192, Note_on_c, 3, 70, 124
1, 24192, Note_on_c, 3, 74, 124
1, 24194, Note_on_c, 9, 38, 120
1, 24196, Note_on_c, 1, 34, 122
1, 24198, Note_on_c, 9, 42, 78
1, 24198, Note_on_c, 9, 47, 60
1, 24198, Note_on_c, 6, 62, 89
1, 24198, Note_on_c, 6, 65, 89
1, 24200, Note_off_c, 9, 47, 60
1, 24202, Note_off_c, 9, 42, 78
1, 24202, Note_off_c, 9, 38, 120
1, 24204, Note_on_c, 6, 58, 89
1, 24204, Note_on_c, 6, 70, 89
1, 24240, Note_off_c, 3, 74, 124
1, 24242, Note_off_c, 3, 70, 124
1, 24288, Note_on_c, 3, 70, 124
1, 24288, Note_on_c, 3, 74, 124
1, 24302, Note_off_c, 6, 70, 89
1, 24318, Note_off_c, 6, 58, 89
1, 24334, Note_off_c, 6, 65, 89
1, 24334, Note_off_c, 6, 62, 89
1, 24344, Note_off_c, 3, 70, 124
1, 24362, Note_off_c, 3, 74, 124
1, 24366, Note_off_c, 5, 62, 80
1, 24378, Note_off_c, 1, 34, 122
1, 24384, Note_on_c, 3, 70, 124
1, 24386, Note_on_c, 9, 42, 70
1, 24386, Note_on_c, 1, 36, 122
1, 24390, Note_off_c, 9, 42, 70
1, 24426, Note_off_c, 5, 70, 80
1, 24468, Note_off_c, 3, 70, 124
1, 24482, Note_off_c, 5, 65, 80
1, 24514, Note_off_c, 1, 36, 122
1, 24570, Note_on_c, 5, 63, 80
1, 24570, Note_on_c, 5, 67, 80
1, 24572, Note_on_c, 5, 58, 80
1, 24576, Note_on_c, 3, 67, 124
1, 24576, Note_on_c, 3, 70, 124
1, 24576, Note_on_c, 3, 75, 124
1, 24578, Note_on_c, 9, 36, 100
1, 24582, Note_on_c, 9, 42, 82
1, 24582, Note_on_c, 9, 47, 62
1, 24582, Note_on_c, 9, 67, 80
1, 24582, Note_on_c, 6, 51, 89
1, 24584, Note_off_c, 9, 47, 62
1, 24584, Note_on_c, 6, 58, 89
1, 24586, Note_off_c, 9, 42, 82
1, 24586, Note_off_c, 9, 36, 100
1, 24588, Note_on_c, 1, 27, 122
1, 24588, Note_on_c, 6, 63, 89
1, 24588, Note_on_c, 6, 67, 89
1, 24590, Note_off_c, 9, 67, 80
1, 24748, Note_off_c, 3, 70, 124
1, 24760, Note_off_c, 3, 75, 124
1, 24766, Note_off_c, 1, 27, 122
1, 24770, Note_on_c, 9, 42, 70
1, 24770, Note_on_c, 9, 70, 80
1, 24770, Note_on_c, 1, 29, 122
1, 24772, Note_off_c, 3, 67, 124
1, 24774, Note_off_c, 9, 42, 70
1, 24774, Note_off_c, 9, 70, 80
1, 24930, Note_off_c, 1, 29, 122
1, 24962, Note_on_c, 9, 38, 120
1, 24962, Note_on_c, 9, 42, 78
1, 24966, Note_off_c, 9, 42, 78
1, 24966, Note_off_c, 9, 38, 120
1, 24966, Note_on_c, 1, 31, 122
1, 24968, Note_off_c, 9, 47, 60
1, 24968, Note_on_c, 9, 47, 60
1, 24990, Note_off_c, 6, 63, 89
1, 24998, Note_off_c, 6, 67, 89
1, 24998, Note_off_c, 5, 58, 80
1, 25002, Note_off_c, 6, 58, 89
1, 25014, Note_off_c, 5, 67, 80
1, 25014, Note_off_c, 5, 63, 80
1, 25018, Note_off_c, 6, 51, 89
1, 25106, Note_off_c, 1, 31, 122
1, 25146, Note_on_c, 5, 60, 80
1, 25146, Note_on_c, 5, 63, 80
1, 25148, Note_on_c, 5, 68, 80
1, 25152, Note_on_c, 3, 63, 124
1, 25152, Note_on_c, 3, 72, 124
1, 25152, Note_on_c, 3, 68, 124
1, 25154, Note_on_c, 9, 36, 100
1, 25154, Note_on_c, 6, 63, 89
1, 25158, Note_on_c, 9, 42, 70
1, 25158, Note_on_c, 9, 70, 80
1, 25158, Note_on_c, 1, 32, 122
1, 25160, Note_on_c, 6, 56, 89
1, 25160, Note_on_c, 6, 60, 89
1, 25162, Note_off_c, 9, 42, 70
1, 25162, Note_off_c, 9, 36, 100
1, 25162, Note_off_c, 9, 70, 80
1, 25164, Note_on_c, 6, 68, 89
1, 25250, Note_on_c, 9, 70, 80
1, 25252, Note_off_c, 9, 70, 80
1, 25344, Note_off_c, 3, 63, 124
1, 25346, Note_off_c, 3, 68, 124
1, 25346, Note_on_c, 9, 42, 82
1, 25346, Note_on_c, 9, 47, 62
1, 25346, Note_on_c, 9, 36, 100
1, 25350, Note_off_c, 9, 36, 100
1, 25350, Note_off_c, 9, 42, 82
1, 25350, Note_off_c, 9, 47, 62
1, 25380, Note_off_c, 3, 72, 124
1, 25442, Note_off_c, 1, 32, 122
1, 25542, Note_on_c, 9, 42, 70
1, 25542, Note_on_c, 9, 67, 80
1, 25542, Note_on_c, 1, 32, 122
1, 25546, Note_off_c, 9, 67, 80
1, 25546, Note_off_c, 9, 42, 70
1, 25718, Note_off_c, 1, 32, 122
1, 25734, Note_on_c, 9, 38, 120
1, 25734, Note_on_c, 9, 42, 78
1, 25734, Note_on_c, 1, 31, 122
1, 25736, Note_on_c, 9, 47, 60
1, 25738, Note_off_c, 9, 42, 78
1, 25738, Note_off_c, 9, 38, 120
1, 25738, Note_off_c, 9, 47, 60
1, 25818, Note_off_c, 6, 60, 89
1, 25834, Note_off_c, 6, 63, 89
1, 25838, Note_off_c, 6, 68, 89
1, 25846, Note_off_c, 6, 56, 89
1, 25866, Note_off_c, 1, 31, 122
1, 25920, Note_on_c, 3, 68, 124
1, 25920, Note_on_c, 3, 72, 124
1, 25920, Note_on_c, 3, 77, 124
1, 25926, Note_on_c, 9, 42, 70
1, 25926, Note_on_c, 6, 60, 89
1, 25926, Note_on_c, 6, 68, 89
1, 25928, Note_on_c, 6, 53, 89
1, 25930, Note_off_c, 9, 42, 70
1, 25930, Note_on_c, 1, 29, 122
1, 25932, Note_on_c, 6, 63, 89
1, 26088, Note_off_c, 3, 77, 124
1, 26100, Note_off_c, 3, 72, 124
1, 26102, Note_off_c, 3, 68, 124
1, 26116, Note_on_c, 9, 36, 100
1, 26118, Note_on_c, 9, 42, 82
1, 26118, Note_on_c, 9, 47, 62
1, 26118, Note_on_c, 9, 67, 80
1, 26120, Note_off_c, 9, 67, 80
1, 26122, Note_off_c, 9, 42, 82
1, 26122, Note_off_c, 9, 36, 100
1, 26122, Note_off_c, 9, 47, 62
1, 26236, Note_off_c, 1, 29, 122
1, 26310, Note_on_c, 9, 42, 70
1, 26310, Note_on_c, 9, 70, 80
1, 26310, Note_on_c, 1, 29, 122
1, 26314, Note_off_c, 9, 42, 70
1, 26314, Note_off_c, 9, 70, 80
1, 26410, Note_off_c, 6, 63, 89
1, 26422, Note_off_c, 6, 60, 89
1, 26438, Note_off_c, 6, 68, 89
1, 26454, Note_off_c, 1, 29, 122
1, 26502, Note_on_c, 9, 38, 120
1, 26502, Note_on_c, 9, 42, 78
1, 26502, Note_on_c, 9, 47, 60
1, 26502, Note_on_c, 6, 68, 89
1, 26504, Note_on_c, 6, 63, 89
1, 26506, Note_off_c, 9, 42, 78
1, 26506, Note_off_c, 9, 38, 120
1, 26506, Note_on_c, 1, 36, 122
1, 26508, Note_on_c, 6, 60, 89
1, 26510, Note_off_c, 9, 47, 60
1, 26654, Note_off_c, 6, 60, 89
1, 26662, Note_off_c, 6, 63, 89
1, 26666, Note_off_c, 6, 53, 89
1, 26670, Note_off_c, 6, 68, 89
1, 26674, Note_off_c, 1, 36, 122
1, 26694, Note_on_c, 9, 42, 70
1, 26694, Note_on_c, 9, 70, 80
1, 26694, Note_on_c, 9, 36, 100
1, 26694, Note_on_c, 1, 29, 122
1, 26698, Note_off_c, 9, 36, 100
1, 26698, Note_off_c, 9, 42, 70
1, 26698, Note_off_c, 9, 70, 80
1, 26726, Note_off_c, 5, 63, 80
1, 26750, Note_off_c, 5, 60, 80
1, 26790, Note_on_c, 9, 70, 80
1, 26794, Note_off_c, 9, 70, 80
1, 26794, Note_off_c, 5, 68, 80
1, 26826, Note_off_c, 1, 29, 122
1, 26874, Note_on_c, 5, 58, 80
1, 26874, Note_on_c, 5, 65, 80
1, 26876, Note_on_c, 5, 62, 80
1, 26880, Note_on_c, 3, 75, 124
1, 26886, Note_on_c, 9, 42, 82
1, 26886, Note_on_c, 9, 47, 62
1, 26886, Note_on_c, 9, 50, 80
1, 26886, Note_on_c, 9, 36, 100
1, 26888, Note_on_c, 6, 62, 89
1, 26888, Note_on_c, 6, 70, 89
1, 26890, Note_off_c, 9, 36, 100
1, 26890, Note_off_c, 9, 42, 82
1, 26890, Note_on_c, 1, 34, 122
1, 26892, Note_on_c, 6, 58, 89
1, 26892, Note_on_c, 6, 65, 89
1, 26894, Note_off_c, 9, 50, 80
1, 26894, Note_off_c, 9, 47, 62
1, 26946, Note_on_c, 9, 38, 80
1, 26974, Note_off_c, 3, 75, 124
1, 26976, Note_on_c, 3, 72, 124
1, 26998, Note_off_c, 9, 38, 80
1, 27010, Note_on_c, 9, 38, 90
1, 27014, Note_off_c, 6, 65, 89
1, 27014, Note_off_c, 6, 70, 89
1, 27026, Note_off_c, 6, 62, 89
1, 27042, Note_off_c, 6, 58, 89
1, 27062, Note_off_c, 9, 38, 90
1, 27070, Note_off_c, 3, 72, 124
1, 27072, Note_on_c, 3, 70, 124
1, 27074, Note_on_c, 9, 42, 70
1, 27076, Note_off_c, 9, 42, 70
1, 27078, Note_on_c, 9, 38, 112
1, 27078, Note_on_c, 9, 67, 80
1, 27080, Note_off_c, 9, 67, 80
1, 27082, Note_off_c, 9, 38, 112
1, 27098, Note_off_c, 1, 34, 122
1, 27138, Note_on_c, 9, 38, 105
1, 27140, Note_off_c, 9, 38, 105
1, 27154, Note_off_c, 3, 70, 124
1, 27168, Note_on_c, 3, 67, 124
1, 27202, Note_on_c, 9, 38, 103
1, 27204, Note_off_c, 9, 38, 103
1, 27262, Note_off_c, 3, 67, 124
1, 27264, Note_on_c, 3, 70, 124
1, 27266, Note_on_c, 6, 62, 89
1, 27270, Note_on_c, 9, 38, 120
1, 27270, Note_on_c, 9, 42, 78
1, 27270, Note_on_c, 9, 47, 60
1, 27270, Note_on_c, 6, 65, 89
1, 27272, Note_on_c, 6, 58, 89
1, 27274, Note_on_c, 1, 34, 122
1, 27274, Note_on_c, 6, 70, 89
1, 27276, Note_on_c, 4, 70, 114
1, 27276, Note_on_c, 4, 75, 114
1, 27276, Note_on_c, 4, 87, 114
1, 27278, Note_off_c, 9, 42, 78
1, 27278, Note_off_c, 9, 38, 120
1, 27278, Note_off_c, 9, 47, 60
1, 27282, Note_on_c, 2, 70, 113
1, 27282, Note_on_c, 2, 75, 113
1, 27282, Note_on_c, 2, 87, 113
1, 27282, Note_on_c, 4, 82, 114
1, 27284, Note_on_c, 2, 82, 113
1, 27294, Note_off_c, 2, 70, 113
1, 27294, Note_off_c, 4, 70, 114
1, 27298, Note_off_c, 2, 82, 113
1, 27298, Note_off_c, 4, 82, 114
1, 27310, Note_off_c, 2, 87, 113
1, 27310, Note_off_c, 2, 75, 113
1, 27310, Note_off_c, 4, 87, 114
1, 27312, Note_off_c, 4, 75, 114
1, 27328, Note_off_c, 3, 70, 124
1, 27360, Note_on_c, 3, 70, 124
1, 27362, Note_on_c, 9, 38, 120
1, 27362, Note_on_c, 4, 82, 114
1, 27366, Note_on_c, 2, 82, 113
1, 27366, Note_on_c, 4, 70, 114
1, 27366, Note_on_c, 4, 75, 114
1, 27366, Note_on_c, 4, 87, 114
1, 27368, Note_on_c, 2, 75, 113
1, 27368, Note_on_c, 2, 87, 113
1, 27370, Note_off_c, 9, 38, 120
1, 27370, Note_on_c, 2, 70, 113
1, 27386, Note_off_c, 6, 58, 89
1, 27390, Note_off_c, 5, 62, 80
1, 27396, Note_off_c, 2, 70, 113
1, 27398, Note_off_c, 4, 70, 114
1, 27400, Note_off_c, 2, 75, 113
1, 27402, Note_off_c, 4, 75, 114
1, 27404, Note_off_c, 5, 58, 80
1, 27410, Note_off_c, 6, 62, 89
1, 27414, Note_off_c, 2, 87, 113
1, 27414, Note_off_c, 4, 87, 114
1, 27414, Note_off_c, 5, 65, 80
1, 27418, Note_off_c, 6, 65, 89
1, 27422, Note_off_c, 2, 82, 113
1, 27422, Note_off_c, 4, 82, 114
1, 27430, Note_off_c, 6, 70, 89
1, 27458, Note_on_c, 9, 42, 70
1, 27458, Note_on_c, 9, 50, 80
1, 27460, Note_off_c, 9, 50, 80
1, 27462, Note_off_c, 9, 42, 70
1, 27468, Note_off_c, 3, 70, 124
1, 27490, Note_off_c, 1, 34, 122
1, 27642, Note_on_c, 5, 58, 80
1, 27642, Note_on_c, 5, 63, 80
1, 27642, Note_on_c, 5, 67, 80
1, 27650, Note_on_c, 9, 36, 100
1, 27652, Note_on_c, 9, 42, 82
1, 27652, Note_on_c, 9, 51, 55
1, 27654, Note_on_c, 9, 47, 62
1, 27654, Note_on_c, 9, 67, 60
1, 27654, Note_on_c, 6, 63, 89
1, 27654, Note_on_c, 6, 67, 89
1, 27656, Note_off_c, 9, 42, 82
1, 27658, Note_off_c, 9, 36, 100
1, 27658, Note_on_c, 1, 27, 122
1, 27658, Note_on_c, 6, 51, 89
1, 27658, Note_on_c, 6, 58, 89
1, 27660, Note_off_c, 9, 67, 60
1, 27660, Note_off_c, 9, 47, 62
1, 27662, Note_off_c, 9, 51, 55
1, 27842, Note_on_c, 9, 42, 70
1, 27842, Note_on_c, 9, 70, 60
1, 27842, Note_on_c, 1, 29, 122
1, 27844, Note_off_c, 9, 70, 60
1, 27846, Note_off_c, 9, 42, 70
1, 27846, Note_off_c, 1, 27, 122
1, 28006, Note_off_c, 1, 29, 122
1, 28038, Note_on_c, 9, 38, 120
1, 28038, Note_on_c, 9, 42, 78
1, 28038, Note_on_c, 1, 31, 122
1, 28040, Note_off_c, 9, 47, 60
1, 28040, Note_on_c, 9, 47, 60
1, 28042, Note_off_c, 9, 42, 78
1, 28042, Note_off_c, 9, 38, 120
1, 28052, Note_off_c, 6, 63, 89
1, 28058, Note_off_c, 6, 58, 89
1, 28062, Note_off_c, 6, 51, 89
1, 28078, Note_off_c, 6, 67, 89
1, 28110, Note_off_c, 5, 58, 80
1, 28124, Note_off_c, 5, 63, 80
1, 28140, Note_off_c, 5, 67, 80
1, 28198, Note_off_c, 1, 31, 122
1, 28218, Note_on_c, 5, 60, 80
1, 28218, Note_on_c, 5, 63, 80
1, 28218, Note_on_c, 5, 68, 80
1, 28230, Note_on_c, 9, 42, 70
1, 28230, Note_on_c, 9, 70, 60
1, 28230, Note_on_c, 9, 36, 100
1, 28230, Note_on_c, 6, 60, 89
1, 28234, Note_off_c, 9, 36, 100
1, 28234, Note_on_c, 1, 32, 122
1, 28234, Note_on_c, 6, 68, 89
1, 28236, Note_off_c, 9, 70, 60
1, 28236, Note_on_c, 6, 56, 89
1, 28236, Note_on_c, 6, 63, 89
1, 28238, Note_off_c, 9, 42, 70
1, 28326, Note_on_c, 9, 70, 60
1, 28330, Note_off_c, 9, 70, 60
1, 28422, Note_on_c, 9, 42, 82
1, 28422, Note_on_c, 9, 47, 62
1, 28422, Note_on_c, 9, 36, 100
1, 28426, Note_off_c, 9, 36, 100
1, 28426, Note_off_c, 9, 42, 82
1, 28426, Note_off_c, 9, 47, 62
1, 28542, Note_off_c, 1, 32, 122
1, 28614, Note_on_c, 9, 42, 70
1, 28614, Note_on_c, 9, 67, 60
1, 28614, Note_on_c, 1, 32, 122
1, 28618, Note_off_c, 9, 67, 60
1, 28618, Note_off_c, 9, 42, 70
1, 28774, Note_off_c, 1, 32, 122
1, 28806, Note_on_c, 9, 38, 120
1, 28806, Note_on_c, 9, 42, 78
1, 28806, Note_on_c, 9, 47, 60
1, 28806, Note_on_c, 1, 31, 122
1, 28810, Note_off_c, 9, 42, 78
1, 28810, Note_off_c, 9, 38, 120
1, 28810, Note_off_c, 9, 47, 60
1, 28838, Note_off_c, 6, 68, 89
1, 28846, Note_off_c, 6, 63, 89
1, 28846, Note_off_c, 6, 56, 89
1, 28852, Note_off_c, 6, 60, 89
1, 28974, Note_off_c, 1, 31, 122
1, 28994, Note_on_c, 6, 68, 89
1, 28998, Note_on_c, 9, 42, 70
1, 28998, Note_on_c, 1, 29, 122
1, 28998, Note_on_c, 6, 53, 89
1, 28998, Note_on_c, 6, 60, 89
1, 29002, Note_off_c, 9, 42, 70
1, 29002, Note_on_c, 6, 63, 89
1, 29190, Note_on_c, 9, 42, 82
1, 29190, Note_on_c, 9, 47, 62
1, 29190, Note_on_c, 9, 67, 60
1, 29190, Note_on_c, 9, 36, 100
1, 29192, Note_off_c, 9, 67, 60
1, 29194, Note_off_c, 9, 36, 100
1, 29194, Note_off_c, 9, 42, 82
1, 29194, Note_off_c, 9, 47, 62
1, 29326, Note_off_c, 1, 29, 122
1, 29378, Note_on_c, 9, 42, 70
1, 29382, Note_off_c, 9, 42, 70
1, 29382, Note_on_c, 1, 29, 122
1, 29384, Note_off_c, 9, 70, 60
1, 29384, Note_on_c, 9, 70, 60
1, 29566, Note_off_c, 1, 29, 122
1, 29570, Note_on_c, 9, 38, 120
1, 29570, Note_on_c, 9, 42, 78
1, 29574, Note_off_c, 9, 42, 78
1, 29574, Note_off_c, 9, 38, 120
1, 29574, Note_on_c, 1, 36, 122
1, 29576, Note_off_c, 9, 47, 60
1, 29576, Note_on_c, 9, 47, 60
1, 29678, Note_off_c, 6, 63, 89
1, 29694, Note_off_c, 6, 60, 89
1, 29694, Note_off_c, 6, 53, 89
1, 29714, Note_off_c, 6, 68, 89
1, 29738, Note_off_c, 1, 36, 122
1, 29762, Note_on_c, 9, 42, 70
1, 29762, Note_on_c, 9, 36, 100
1, 29766, Note_off_c, 9, 36, 100
1, 29766, Note_off_c, 9, 42, 70
1, 29766, Note_on_c, 1, 29, 122
1, 29768, Note_off_c, 9, 70, 60
1, 29768, Note_on_c, 9, 70, 60
1, 29774, Note_off_c, 5, 63, 80
1, 29834, Note_off_c, 5, 60, 80
1, 29858, Note_on_c, 9, 70, 60
1, 29860, Note_off_c, 9, 70, 60
1, 29866, Note_off_c, 1, 29, 122
1, 29874, Note_off_c, 5, 68, 80
1, 29946, Note_on_c, 5, 62, 80
1, 29946, Note_on_c, 5, 65, 80
1, 29946, Note_on_c, 5, 70, 80
1, 29954, Note_on_c, 9, 42, 82
1, 29954, Note_on_c, 6, 62, 89
1, 29956, Note_on_c, 1, 34, 122
1, 29958, Note_on_c, 9, 47, 62
1, 29958, Note_on_c, 9, 36, 100
1, 29960, Note_on_c, 6, 65, 89
1, 29960, Note_on_c, 6, 70, 89
1, 29962, Note_off_c, 9, 36, 100
1, 29962, Note_off_c, 9, 42, 82
1, 29962, Note_off_c, 9, 47, 62
1, 29964, Note_on_c, 6, 58, 89
1, 30086, Note_off_c, 6, 58, 89
1, 30086, Note_off_c, 6, 70, 89
1, 30090, Note_off_c, 6, 65, 89
1, 30096, Note_off_c, 6, 62, 89
1, 30146, Note_on_c, 9, 42, 70
1, 30146, Note_on_c, 9, 67, 60
1, 30150, Note_off_c, 9, 67, 60
1, 30150, Note_off_c, 9, 42, 70
1, 30150, Note_on_c, 1, 36, 122
1, 30190, Note_off_c, 1, 34, 122
1, 30302, Note_off_c, 1, 36, 122
1, 30342, Note_on_c, 9, 38, 120
1, 30342, Note_on_c, 9, 42, 78
1, 30342, Note_on_c, 9, 47, 60
1, 30344, Note_on_c, 6, 62, 89
1, 30346, Note_off_c, 9, 38, 120
1, 30346, Note_on_c, 1, 34, 122
1, 30346, Note_on_c, 6, 65, 89
1, 30348, Note_on_c, 6, 58, 89
1, 30348, Note_on_c, 6, 70, 89
1, 30350, Note_off_c, 9, 42, 78
1, 30350, Note_off_c, 9, 47, 60
1, 30446, Note_off_c, 6, 70, 89
1, 30462, Note_off_c, 6, 58, 89
1, 30478, Note_off_c, 6, 65, 89
1, 30478, Note_off_c, 6, 62, 89
1, 30506, Note_off_c, 5, 62, 80
1, 30526, Note_off_c, 1, 34, 122
1, 30534, Note_on_c, 9, 42, 70
1, 30534, Note_on_c, 1, 36, 122
1, 30538, Note_off_c, 9, 42, 70
1, 30554, Note_off_c, 5, 70, 80
1, 30566, Note_off_c, 5, 65, 80
1, 30662, Note_off_c, 1, 36, 122
1, 30714, Note_on_c, 5, 58, 80
1, 30714, Note_on_c, 5, 63, 80
1, 30714, Note_on_c, 5, 67, 80
1, 30724, Note_on_c, 9, 36, 100
1, 30726, Note_on_c, 9, 42, 82
1, 30726, Note_on_c, 9, 47, 62
1, 30726, Note_on_c, 6, 51, 89
1, 30728, Note_on_c, 1, 27, 122
1, 30730, Note_on_c, 9, 67, 60
1, 30730, Note_on_c, 6, 58, 89
1, 30730, Note_on_c, 6, 63, 89
1, 30732, Note_off_c, 9, 67, 60
1, 30732, Note_off_c, 9, 47, 62
1, 30732, Note_on_c, 6, 67, 89
1, 30734, Note_off_c, 9, 42, 82
1, 30734, Note_off_c, 9, 36, 100
1, 30910, Note_off_c, 1, 27, 122
1, 30918, Note_on_c, 9, 42, 70
1, 30918, Note_on_c, 9, 70, 60
1, 30918, Note_on_c, 1, 29, 122
1, 30922, Note_off_c, 9, 42, 70
1, 30922, Note_off_c, 9, 70, 60
1, 31078, Note_off_c, 1, 29, 122
1, 31110, Note_on_c, 9, 38, 120
1, 31110, Note_on_c, 9, 42, 78
1, 31110, Note_on_c, 9, 47, 60
1, 31110, Note_on_c, 1, 31, 122
1, 31114, Note_off_c, 9, 42, 78
1, 31114, Note_off_c, 9, 38, 120
1, 31114, Note_off_c, 9, 47, 60
1, 31134, Note_off_c, 6, 63, 89
1, 31142, Note_off_c, 6, 67, 89
1, 31150, Note_off_c, 6, 58, 89
1, 31166, Note_off_c, 6, 51, 89
1, 31174, Note_off_c, 5, 58, 80
1, 31198, Note_off_c, 5, 63, 80
1, 31222, Note_off_c, 5, 67, 80
1, 31254, Note_off_c, 1, 31, 122
1, 31290, Note_on_c, 5, 60, 80
1, 31290, Note_on_c, 5, 63, 80
1, 31290, Note_on_c, 5, 68, 80
1, 31302, Note_on_c, 9, 42, 70
1, 31302, Note_on_c, 9, 70, 60
1, 31302, Note_on_c, 9, 36, 100
1, 31302, Note_on_c, 6, 63, 89
1, 31304, Note_on_c, 6, 60, 89
1, 31306, Note_off_c, 9, 36, 100
1, 31306, Note_off_c, 9, 42, 70
1, 31306, Note_off_c, 9, 70, 60
1, 31308, Note_on_c, 1, 32, 122
1, 31308, Note_on_c, 6, 56, 89
1, 31308, Note_on_c, 6, 68, 89
1, 31394, Note_on_c, 9, 70, 60
1, 31398, Note_off_c, 9, 70, 60
1, 31490, Note_on_c, 9, 42, 82
1, 31492, Note_off_c, 9, 42, 82
1, 31494, Note_on_c, 9, 47, 62
1, 31494, Note_on_c, 9, 36, 100
1, 31496, Note_off_c, 9, 47, 62
1, 31498, Note_off_c, 9, 36, 100
1, 31598, Note_off_c, 1, 32, 122
1, 31682, Note_on_c, 9, 42, 70
1, 31682, Note_on_c, 9, 67, 60
1, 31686, Note_off_c, 9, 67, 60
1, 31686, Note_off_c, 9, 42, 70
1, 31686, Note_on_c, 1, 32, 122
1, 31862, Note_off_c, 1, 32, 122
1, 31874, Note_on_c, 9, 38, 120
1, 31874, Note_on_c, 9, 42, 78
1, 31876, Note_off_c, 9, 42, 78
1, 31876, Note_off_c, 9, 38, 120
1, 31878, Note_on_c, 9, 47, 60
1, 31878, Note_on_c, 1, 31, 122
1, 31880, Note_off_c, 9, 47, 60
1, 31956, Note_off_c, 6, 60, 89
1, 31974, Note_off_c, 6, 63, 89
1, 31982, Note_off_c, 6, 68, 89
1, 31990, Note_off_c, 6, 56, 89
1, 32006, Note_off_c, 1, 31, 122
1, 32066, Note_on_c, 9, 42, 70
1, 32066, Note_on_c, 6, 68, 89
1, 32070, Note_off_c, 9, 42, 70
1, 32070, Note_on_c, 1, 29, 122
1, 32072, Note_on_c, 6, 53, 89
1, 32072, Note_on_c, 6, 60, 89
1, 32072, Note_on_c, 6, 63, 89
1, 32258, Note_on_c, 9, 42, 82
1, 32258, Note_on_c, 9, 36, 100
1, 32260, Note_off_c, 9, 36, 100
1, 32260, Note_off_c, 9, 42, 82
1, 32262, Note_on_c, 9, 47, 62
1, 32262, Note_on_c, 9, 67, 60
1, 32264, Note_off_c, 9, 67, 60
1, 32264, Note_off_c, 9, 47, 62
1, 32378, Note_off_c, 1, 29, 122
1, 32450, Note_on_c, 9, 42, 70
1, 32450, Note_on_c, 9, 70, 60
1, 32450, Note_on_c, 1, 29, 122
1, 32452, Note_off_c, 9, 70, 60
1, 32454, Note_off_c, 9, 42, 70
1, 32554, Note_off_c, 6, 63, 89
1, 32562, Note_off_c, 6, 60, 89
1, 32582, Note_off_c, 6, 68, 89
1, 32602, Note_off_c, 1, 29, 122
1, 32642, Note_on_c, 9, 38, 120
1, 32642, Note_on_c, 9, 42, 78
1, 32642, Note_on_c, 1, 36, 122
1, 32644, Note_on_c, 9, 47, 60
1, 32644, Note_on_c, 6, 60, 89
1, 32644, Note_on_c, 6, 63, 89
1, 32644, Note_on_c, 6, 68, 89
1, 32648, Note_off_c, 9, 42, 78
1, 32648, Note_off_c, 9, 38, 120
1, 32648, Note_off_c, 9, 47, 60
1, 32798, Note_off_c, 6, 60, 89
1, 32806, Note_off_c, 6, 63, 89
1, 32810, Note_off_c, 6, 53, 89
1, 32814, Note_off_c, 6, 68, 89
1, 32822, Note_off_c, 1, 36, 122
1, 32838, Note_on_c, 9, 42, 70
1, 32838, Note_on_c, 9, 36, 100
1, 32838, Note_on_c, 1, 29, 122
1, 32840, Note_on_c, 9, 70, 60
1, 32842, Note_off_c, 9, 36, 100
1, 32842, Note_off_c, 9, 42, 70
1, 32842, Note_off_c, 9, 70, 60
1, 32852, Note_off_c, 5, 63, 80
1, 32878, Note_off_c, 5, 60, 80
1, 32934, Note_on_c, 9, 70, 60
1, 32936, Note_off_c, 9, 70, 60
1, 32970, Note_off_c, 1, 29, 122
1, 33018, Note_on_c, 5, 58, 80
1, 33018, Note_on_c, 5, 62, 80
1, 33018, Note_on_c, 5, 65, 80
1, 33020, Note_off_c, 5, 68, 80
1, 33030, Note_on_c, 9, 42, 82
1, 33030, Note_on_c, 9, 47, 62
1, 33030, Note_on_c, 9, 36, 100
1, 33030, Note_on_c, 6, 62, 89
1, 33034, Note_off_c, 9, 42, 82
1, 33034, Note_on_c, 1, 34, 122
1, 33034, Note_on_c, 6, 70, 89
1, 33036, Note_off_c, 9, 47, 62
1, 33036, Note_on_c, 6, 58, 89
1, 33036, Note_on_c, 6, 65, 89
1, 33038, Note_off_c, 9, 36, 100
1, 33156, Note_off_c, 6, 65, 89
1, 33162, Note_off_c, 6, 70, 89
1, 33174, Note_off_c, 6, 62, 89
1, 33190, Note_off_c, 6, 58, 89
1, 33222, Note_on_c, 9, 42, 70
1, 33222, Note_on_c, 9, 67, 60
1, 33226, Note_off_c, 9, 67, 60
1, 33226, Note_off_c, 9, 42, 70
1, 33242, Note_off_c, 1, 34, 122
1, 33414, Note_on_c, 9, 38, 120
1, 33414, Note_on_c, 9, 42, 78
1, 33414, Note_on_c, 9, 47, 60
1, 33414, Note_on_c, 6, 62, 89
1, 33416, Note_on_c, 6, 65, 89
1, 33418, Note_on_c, 1, 34, 122
1, 33418, Note_on_c, 6, 58, 89
1, 33418, Note_on_c, 6, 70, 89
1, 33420, Note_on_c, 4, 75, 114
1, 33420, Note_on_c, 4, 87, 114
1, 33422, Note_off_c, 9, 42, 78
1, 33422, Note_off_c, 9, 38, 120
1, 33422, Note_off_c, 9, 47, 60
1, 33426, Note_on_c, 2, 75, 113
1, 33426, Note_on_c, 4, 70, 114
1, 33426, Note_on_c, 4, 82, 114
1, 33428, Note_on_c, 2, 70, 113
1, 33428, Note_on_c, 2, 82, 113
1, 33428, Note_on_c, 2, 87, 113
1, 33432, Note_off_c, 4, 70, 114
1, 33436, Note_off_c, 2, 70, 113
1, 33442, Note_off_c, 2, 82, 113
1, 33442, Note_off_c, 4, 82, 114
1, 33452, Note_off_c, 2, 87, 113
1, 33454, Note_off_c, 2, 75, 113
1, 33454, Note_off_c, 4, 87, 114
1, 33456, Note_off_c, 4, 75, 114
1, 33510, Note_on_c, 9, 38, 120
1, 33510, Note_on_c, 4, 75, 114
1, 33510, Note_on_c, 4, 82, 114
1, 33510, Note_on_c, 4, 87, 114
1, 33512, Note_on_c, 4, 70, 114
1, 33514, Note_off_c, 9, 38, 120
1, 33514, Note_on_c, 2, 82, 113
1, 33516, Note_on_c, 2, 70, 113
1, 33516, Note_on_c, 2, 75, 113
1, 33516, Note_on_c, 2, 87, 113
1, 33530, Note_off_c, 6, 58, 89
1, 33540, Note_off_c, 2, 70, 113
1, 33542, Note_off_c, 4, 70, 114
1, 33548, Note_off_c, 2, 75, 113
1, 33550, Note_off_c, 4, 75, 114
1, 33556, Note_off_c, 2, 87, 113
1, 33558, Note_off_c, 4, 87, 114
1, 33560, Note_off_c, 6, 62, 89
1, 33564, Note_off_c, 2, 82, 113
1, 33566, Note_off_c, 4, 82, 114
1, 33568, Note_off_c, 6, 65, 89
1, 33574, Note_off_c, 6, 70, 89
1, 33606, Note_on_c, 9, 42, 70
1, 33606, Note_on_c, 9, 50, 80
1, 33610, Note_off_c, 9, 50, 80
1, 33610, Note_off_c, 9, 42, 70
1, 33630, Note_off_c, 5, 62, 80
1, 33638, Note_off_c, 1, 34, 122
1, 33644, Note_off_c, 5, 58, 80
1, 33692, Note_off_c, 5, 65, 80
1, 33786, Note_on_c, 5, 58, 80
1, 33786, Note_on_c, 5, 63, 80
1, 33786, Note_on_c, 5, 67, 80
1, 33798, Note_on_c, 9, 42, 82
1, 33798, Note_on_c, 9, 47, 62
1, 33798, Note_on_c, 9, 36, 100
1, 33798, Note_on_c, 6, 67, 89
1, 33800, Note_off_c, 9, 36, 100
1, 33802, Note_on_c, 9, 67, 60
1, 33802, Note_on_c, 1, 27, 122
1, 33802, Note_on_c, 6, 63, 89
1, 33804, Note_on_c, 6, 58, 89
1, 33806, Note_off_c, 9, 67, 60
1, 33806, Note_off_c, 9, 42, 82
1, 33806, Note_off_c, 9, 47, 62
1, 33808, Note_on_c, 6, 51, 89
1, 33990, Note_on_c, 9, 42, 70
1, 33990, Note_on_c, 9, 70, 60
1, 33990, Note_on_c, 1, 29, 122
1, 33994, Note_off_c, 9, 42, 70
1, 33994, Note_off_c, 9, 70, 60
1, 33996, Note_off_c, 1, 27, 122
1, 34148, Note_off_c, 1, 29, 122
1, 34182, Note_on_c, 9, 38, 120
1, 34182, Note_on_c, 9, 42, 78
1, 34182, Note_on_c, 9, 47, 60
1, 34182, Note_on_c, 1, 31, 122
1, 34184, Note_off_c, 9, 47, 60
1, 34186, Note_off_c, 9, 42, 78
1, 34186, Note_off_c, 9, 38, 120
1, 34198, Note_off_c, 6, 63, 89
1, 34202, Note_off_c, 6, 58, 89
1, 34206, Note_off_c, 6, 51, 89
1, 34222, Note_off_c, 6, 67, 89
1, 34252, Note_off_c, 5, 58, 80
1, 34294, Note_off_c, 5, 67, 80
1, 34294, Note_off_c, 5, 63, 80
1, 34338, Note_off_c, 1, 31, 122
1, 34362, Note_on_c, 5, 60, 80
1, 34362, Note_on_c, 5, 63, 80
1, 34362, Note_on_c, 5, 68, 80
1, 34370, Note_on_c, 6, 60, 89
1, 34372, Note_on_c, 9, 36, 100
1, 34374, Note_on_c, 9, 42, 70
1, 34374, Note_on_c, 9, 70, 60
1, 34374, Note_on_c, 6, 68, 89
1, 34378, Note_off_c, 9, 42, 70
1, 34378, Note_off_c, 9, 36, 100
1, 34378, Note_on_c, 1, 32, 122
1, 34378, Note_on_c, 6, 63, 89
1, 34380, Note_off_c, 9, 70, 60
1, 34380, Note_on_c, 6, 56, 89
1, 34466, Note_on_c, 9, 70, 60
1, 34468, Note_off_c, 9, 70, 60
1, 34562, Note_on_c, 9, 42, 82
1, 34564, Note_off_c, 9, 42, 82
1, 34566, Note_on_c, 9, 47, 62
1, 34566, Note_on_c, 9, 36, 100
1, 34568, Note_off_c, 9, 47, 62
1, 34570, Note_off_c, 9, 36, 100
1, 34686, Note_off_c, 1, 32, 122
1, 34754, Note_on_c, 9, 42, 70
1, 34754, Note_on_c, 9, 67, 60
1, 34756, Note_off_c, 9, 67, 60
1, 34758, Note_off_c, 9, 42, 70
1, 34758, Note_on_c, 1, 32, 122
1, 34914, Note_off_c, 1, 32, 122
1, 34946, Note_on_c, 9, 38, 120
1, 34946, Note_on_c, 9, 42, 78
1, 34948, Note_off_c, 9, 42, 78
1, 34950, Note_off_c, 9, 38, 120
1, 34952, Note_on_c, 9, 47, 60
1, 34952, Note_on_c, 1, 31, 122
1, 34954, Note_off_c, 9, 47, 60
1, 34978, Note_off_c, 6, 68, 89
1, 34984, Note_off_c, 6, 63, 89
1, 34990, Note_off_c, 6, 56, 89
1, 34998, Note_off_c, 6, 60, 89
1, 35118, Note_off_c, 1, 31, 122
1, 35138, Note_on_c, 9, 42, 70
1, 35138, Note_on_c, 6, 68, 89
1, 35140, Note_off_c, 9, 42, 70
1, 35142, Note_on_c, 1, 29, 122
1, 35144, Note_on_c, 6, 53, 89
1, 35144, Note_on_c, 6, 60, 89
1, 35144, Note_on_c, 6, 63, 89
1, 35330, Note_on_c, 9, 42, 82
1, 35330, Note_on_c, 9, 36, 100
1, 35332, Note_off_c, 9, 36, 100
1, 35332, Note_off_c, 9, 42, 82
1, 35334, Note_on_c, 9, 47, 62
1, 35334, Note_on_c, 9, 67, 60
1, 35336, Note_off_c, 9, 67, 60
1, 35338, Note_off_c, 9, 47, 62
1, 35470, Note_off_c, 1, 29, 122
1, 35522, Note_on_c, 9, 42, 70
1, 35522, Note_on_c, 9, 70, 60
1, 35522, Note_on_c, 1, 29, 122
1, 35524, Note_off_c, 9, 70, 60
1, 35526, Note_off_c, 9, 42, 70
1, 35710, Note_off_c, 1, 29, 122
1, 35718, Note_on_c, 9, 38, 120
1, 35718, Note_on_c, 9, 42, 78
1, 35718, Note_on_c, 1, 36, 122
1, 35720, Note_on_c, 9, 47, 60
1, 35722, Note_off_c, 9, 42, 78
1, 35722, Note_off_c, 9, 38, 120
1, 35722, Note_off_c, 9, 47, 60
1, 35822, Note_off_c, 6, 63, 89
1, 35838, Note_off_c, 6, 60, 89
1, 35838, Note_off_c, 6, 53, 89
1, 35862, Note_off_c, 6, 68, 89
1, 35882, Note_off_c, 1, 36, 122
1, 35910, Note_on_c, 9, 42, 70
1, 35910, Note_on_c, 9, 70, 60
1, 35910, Note_on_c, 9, 36, 100
1, 35910, Note_on_c, 1, 29, 122
1, 35914, Note_off_c, 9, 36, 100
1, 35914, Note_off_c, 9, 42, 70
1, 35914, Note_off_c, 9, 70, 60
1, 35950, Note_off_c, 5, 63, 80
1, 36006, Note_on_c, 9, 70, 60
1, 36010, Note_off_c, 1, 29, 122
1, 36010, Note_off_c, 9, 70, 60
1, 36046, Note_off_c, 5, 68, 80
1, 36078, Note_off_c, 5, 60, 80
1, 36090, Note_on_c, 5, 62, 80
1, 36090, Note_on_c, 5, 65, 80
1, 36090, Note_on_c, 5, 70, 80
1, 36100, Note_on_c, 9, 42, 82
1, 36102, Note_on_c, 9, 47, 62
1, 36102, Note_on_c, 9, 36, 100
1, 36102, Note_on_c, 6, 62, 89
1, 36106, Note_off_c, 9, 42, 82
1, 36106, Note_on_c, 1, 34, 122
1, 36106, Note_on_c, 6, 65, 89
1, 36106, Note_on_c, 6, 70, 89
1, 36108, Note_off_c, 9, 47, 62
1, 36108, Note_on_c, 6, 58, 89
1, 36110, Note_off_c, 9, 36, 100
1, 36234, Note_off_c, 6, 58, 89
1, 36234, Note_off_c, 6, 70, 89
1, 36240, Note_off_c, 6, 65, 89
1, 36240, Note_off_c, 6, 62, 89
1, 36294, Note_on_c, 9, 42, 70
1, 36294, Note_on_c, 9, 67, 60
1, 36294, Note_on_c, 1, 36, 122
1, 36296, Note_off_c, 9, 67, 60
1, 36298, Note_off_c, 9, 42, 70
1, 36334, Note_off_c, 1, 34, 122
1, 36444, Note_off_c, 1, 36, 122
1, 36486, Note_on_c, 9, 38, 120
1, 36486, Note_on_c, 9, 42, 78
1, 36486, Note_on_c, 9, 47, 60
1, 36486, Note_on_c, 6, 62, 89
1, 36488, Note_on_c, 6, 65, 89
1, 36490, Note_off_c, 9, 42, 78
1, 36490, Note_off_c, 9, 38, 120
1, 36490, Note_on_c, 1, 34, 122
1, 36490, Note_on_c, 6, 70, 89
1, 36492, Note_on_c, 6, 58, 89
1, 36494, Note_off_c, 9, 47, 60
1, 36590, Note_off_c, 6, 70, 89
1, 36606, Note_off_c, 6, 58, 89
1, 36622, Note_off_c, 6, 65, 89
1, 36622, Note_off_c, 6, 62, 89
1, 36652, Note_off_c, 5, 62, 80
1, 36660, Note_off_c, 5, 70, 80
1, 36668, Note_off_c, 1, 34, 122
1, 36670, Note_off_c, 5, 65, 80
1, 36676, Note_on_c, 1, 36, 122
1, 36678, Note_on_c, 9, 42, 70
1, 36680, Note_off_c, 9, 42, 70
1, 36806, Note_off_c, 1, 36, 122
1, 36858, Note_on_c, 5, 58, 80
1, 36858, Note_on_c, 5, 63, 80
1, 36858, Note_on_c, 5, 67, 80
1, 36868, Note_on_c, 9, 42, 82
1, 36868, Note_on_c, 9, 36, 100
1, 36870, Note_on_c, 9, 47, 62
1, 36870, Note_on_c, 6, 51, 89
1, 36870, Note_on_c, 6, 58, 89
1, 36872, Note_off_c, 9, 36, 100
1, 36874, Note_on_c, 9, 67, 60
1, 36874, Note_on_c, 1, 27, 122
1, 36874, Note_on_c, 6, 63, 89
1, 36876, Note_off_c, 9, 67, 60
1, 36876, Note_off_c, 9, 47, 62
1, 36876, Note_on_c, 6, 67, 89
1, 36878, Note_off_c, 9, 42, 82
1, 37052, Note_off_c, 1, 27, 122
1, 37058, Note_on_c, 9, 42, 70
1, 37060, Note_off_c, 9, 42, 70
1, 37062, Note_on_c, 1, 29, 122
1, 37064, Note_off_c, 9, 70, 60
1, 37064, Note_on_c, 9, 70, 60
1, 37222, Note_off_c, 1, 29, 122
1, 37250, Note_on_c, 9, 38, 120
1, 37252, Note_off_c, 9, 38, 120
1, 37254, Note_on_c, 1, 31, 122
1, 37256, Note_on_c, 9, 42, 78
1, 37256, Note_on_c, 9, 47, 60
1, 37258, Note_off_c, 9, 42, 78
1, 37258, Note_off_c, 9, 47, 60
1, 37278, Note_off_c, 6, 63, 89
1, 37286, Note_off_c, 6, 67, 89
1, 37288, Note_off_c, 6, 58, 89
1, 37310, Note_off_c, 6, 51, 89
1, 37314, Note_off_c, 5, 58, 80
1, 37332, Note_off_c, 5, 67, 80
1, 37340, Note_off_c, 5, 63, 80
1, 37398, Note_off_c, 1, 31, 122
1, 37434, Note_on_c, 5, 60, 80
1, 37434, Note_on_c, 5, 63, 80
1, 37434, Note_on_c, 5, 68, 80
1, 37442, Note_on_c, 6, 63, 89
1, 37446, Note_on_c, 9, 42, 70
1, 37446, Note_on_c, 9, 36, 100
1, 37446, Note_on_c, 1, 32, 122
1, 37448, Note_on_c, 9, 70, 60
1, 37448, Note_on_c, 6, 56, 89
1, 37448, Note_on_c, 6, 60, 89
1, 37450, Note_off_c, 9, 36, 100
1, 37450, Note_off_c, 9, 42, 70
1, 37450, Note_off_c, 9, 70, 60
1, 37452, Note_on_c, 6, 68, 89
1, 37538, Note_on_c, 9, 70, 60
1, 37540, Note_off_c, 9, 70, 60
1, 37634, Note_on_c, 9, 42, 82
1, 37634, Note_on_c, 9, 47, 62
1, 37634, Note_on_c, 9, 36, 100
1, 37636, Note_off_c, 9, 47, 62
1, 37638, Note_off_c, 9, 36, 100
1, 37638, Note_off_c, 9, 42, 82
1, 37740, Note_off_c, 1, 32, 122
1, 37826, Note_on_c, 9, 42, 70
1, 37826, Note_on_c, 9, 67, 60
1, 37828, Note_off_c, 9, 67, 60
1, 37830, Note_off_c, 9, 42, 70
1, 37830, Note_on_c, 1, 32, 122
1, 38002, Note_off_c, 1, 32, 122
1, 38018, Note_on_c, 9, 38, 120
1, 38018, Note_on_c, 9, 42, 78
1, 38018, Note_on_c, 9, 47, 60
1, 38020, Note_off_c, 9, 47, 60
1, 38022, Note_off_c, 9, 42, 78
1, 38022, Note_off_c, 9, 38, 120
1, 38024, Note_on_c, 1, 31, 122
1, 38102, Note_off_c, 6, 60, 89
1, 38114, Note_off_c, 6, 68, 89
1, 38116, Note_off_c, 6, 63, 89
1, 38130, Note_off_c, 6, 56, 89
1, 38146, Note_off_c, 1, 31, 122
1, 38214, Note_on_c, 9, 42, 70
1, 38214, Note_on_c, 6, 53, 89
1, 38214, Note_on_c, 6, 60, 89
1, 38214, Note_on_c, 6, 68, 89
1, 38218, Note_off_c, 9, 42, 70
1, 38218, Note_on_c, 1, 29, 122
1, 38220, Note_on_c, 6, 63, 89
1, 38406, Note_on_c, 9, 42, 82
1, 38406, Note_on_c, 9, 47, 62
1, 38406, Note_on_c, 9, 67, 60
1, 38406, Note_on_c, 9, 36, 100
1, 38408, Note_off_c, 9, 67, 60
1, 38410, Note_off_c, 9, 36, 100
1, 38410, Note_off_c, 9, 42, 82
1, 38410, Note_off_c, 9, 47, 62
1, 38526, Note_off_c, 1, 29, 122
1, 38598, Note_on_c, 9, 42, 70
1, 38598, Note_on_c, 9, 70, 60
1, 38598, Note_on_c, 1, 29, 122
1, 38602, Note_off_c, 9, 42, 70
1, 38602, Note_off_c, 9, 70, 60
1, 38698, Note_off_c, 6, 63, 89
1, 38710, Note_off_c, 6, 60, 89
1, 38726, Note_off_c, 6, 68, 89
1, 38746, Note_off_c, 1, 29, 122
1, 38790, Note_on_c, 9, 38, 120
1, 38790, Note_on_c, 9, 42, 78
1, 38790, Note_on_c, 6, 63, 89
1, 38790, Note_on_c, 6, 68, 89
1, 38794, Note_off_c, 9, 42, 78
1, 38794, Note_off_c, 9, 38, 120
1, 38796, Note_on_c, 9, 47, 60
1, 38796, Note_on_c, 1, 36, 122
1, 38796, Note_on_c, 6, 60, 89
1, 38798, Note_off_c, 9, 47, 60
1, 38942, Note_off_c, 6, 60, 89
1, 38950, Note_off_c, 6, 63, 89
1, 38954, Note_off_c, 6, 53, 89
1, 38954, Note_off_c, 5, 63, 80
1, 38958, Note_off_c, 6, 68, 89
1, 38966, Note_off_c, 1, 36, 122
1, 38970, Note_off_c, 5, 60, 80
1, 38982, Note_on_c, 9, 42, 70
1, 38982, Note_on_c, 9, 70, 60
1, 38982, Note_on_c, 9, 36, 100
1, 38982, Note_on_c, 1, 29, 122
1, 38984, Note_off_c, 9, 70, 60
1, 38986, Note_off_c, 9, 36, 100
1, 38986, Note_off_c, 9, 42, 70
1, 39022, Note_off_c, 5, 68, 80
1, 39078, Note_on_c, 9, 70, 60
1, 39080, Note_off_c, 9, 70, 60
1, 39114, Note_off_c, 1, 29, 122
1, 39162, Note_on_c, 5, 58, 80
1, 39162, Note_on_c, 5, 65, 80
1, 39162, Note_on_c, 5, 70, 80
1, 39164, Note_on_c, 5, 62, 80
1, 39174, Note_on_c, 9, 42, 82
1, 39174, Note_on_c, 9, 50, 80
1, 39174, Note_on_c, 9, 36, 100
1, 39176, Note_on_c, 6, 62, 89
1, 39176, Note_on_c, 6, 70, 89
1, 39178, Note_off_c, 9, 36, 100
1, 39178, Note_off_c, 9, 42, 82
1, 39178, Note_on_c, 1, 34, 122
1, 39180, Note_on_c, 9, 47, 62
1, 39180, Note_on_c, 6, 58, 89
1, 39180, Note_on_c, 6, 65, 89
1, 39182, Note_off_c, 9, 50, 80
1, 39182, Note_off_c, 9, 47, 62
1, 39238, Note_on_c, 9, 38, 80
1, 39286, Note_off_c, 9, 38, 80
1, 39298, Note_on_c, 9, 38, 90
1, 39302, Note_off_c, 6, 65, 89
1, 39306, Note_off_c, 6, 70, 89
1, 39314, Note_off_c, 6, 62, 89
1, 39330, Note_off_c, 6, 58, 89
1, 39350, Note_off_c, 9, 38, 90
1, 39362, Note_on_c, 9, 42, 70
1, 39364, Note_off_c, 9, 42, 70
1, 39366, Note_on_c, 9, 38, 112
1, 39366, Note_on_c, 9, 67, 60
1, 39368, Note_off_c, 9, 67, 60
1, 39370, Note_off_c, 9, 38, 112
1, 39386, Note_off_c, 1, 34, 122
1, 39426, Note_on_c, 9, 38, 105
1, 39428, Note_off_c, 9, 38, 105
1, 39490, Note_on_c, 9, 38, 103
1, 39494, Note_off_c, 9, 38, 103
1, 39554, Note_on_c, 9, 38, 120
1, 39558, Note_on_c, 9, 42, 78
1, 39558, Note_on_c, 9, 47, 60
1, 39558, Note_on_c, 1, 34, 122
1, 39560, Note_on_c, 6, 62, 89
1, 39560, Note_on_c, 6, 65, 89
1, 39562, Note_on_c, 4, 75, 114
1, 39562, Note_on_c, 4, 87, 114
1, 39562, Note_on_c, 6, 58, 89
1, 39562, Note_on_c, 6, 70, 89
1, 39564, Note_on_c, 4, 70, 114
1, 39566, Note_off_c, 9, 42, 78
1, 39566, Note_off_c, 9, 38, 120
1, 39566, Note_off_c, 9, 47, 60
1, 39570, Note_on_c, 2, 75, 113
1, 39570, Note_on_c, 2, 87, 113
1, 39570, Note_on_c, 4, 82, 114
1, 39572, Note_on_c, 2, 70, 113
1, 39572, Note_on_c, 2, 82, 113
1, 39582, Note_off_c, 2, 70, 113
1, 39582, Note_off_c, 4, 70, 114
1, 39586, Note_off_c, 2, 82, 113
1, 39586, Note_off_c, 4, 82, 114
1, 39598, Note_off_c, 2, 87, 113
1, 39598, Note_off_c, 2, 75, 113
1, 39598, Note_off_c, 4, 87, 114
1, 39600, Note_off_c, 4, 75, 114
1, 39650, Note_on_c, 9, 38, 120
1, 39652, Note_on_c, 4, 82, 114
1, 39654, Note_on_c, 4, 70, 114
1, 39654, Note_on_c, 4, 75, 114
1, 39654, Note_on_c, 4, 87, 114
1, 39656, Note_on_c, 2, 82, 113
1, 39656, Note_on_c, 2, 87, 113
1, 39658, Note_off_c, 9, 38, 120
1, 39658, Note_on_c, 2, 75, 113
1, 39660, Note_on_c, 2, 70, 113
1, 39674, Note_off_c, 6, 58, 89
1, 39686, Note_off_c, 2, 70, 113
1, 39686, Note_off_c, 4, 70, 114
1, 39688, Note_off_c, 4, 75, 114
1, 39694, Note_off_c, 2, 75, 113
1, 39698, Note_off_c, 6, 62, 89
1, 39702, Note_off_c, 2, 87, 113
1, 39702, Note_off_c, 4, 87, 114
1, 39710, Note_off_c, 2, 82, 113
1, 39710, Note_off_c, 4, 82, 114
1, 39712, Note_off_c, 6, 65, 89
1, 39718, Note_off_c, 6, 70, 89
1, 39746, Note_on_c, 9, 42, 70
1, 39746, Note_on_c, 9, 50, 80
1, 39748, Note_off_c, 9, 50, 80
1, 39750, Note_off_c, 9, 42, 70
1, 39770, Note_off_c, 5, 70, 80
1, 39772, Note_off_c, 5, 58, 80
1, 39778, Note_off_c, 1, 34, 122
1, 39780, Note_off_c, 5, 62, 80
1, 39782, Note_off_c, 5, 65, 80
1, 39938, Note_on_c, 9, 36, 100
1, 39940, Note_on_c, 9, 42, 82
1, 39940, Note_on_c, 9, 51, 55
1, 39942, Note_on_c, 9, 47, 62
1, 39942, Note_on_c, 6, 63, 89
1, 39942, Note_on_c, 6, 67, 89
1, 39944, Note_off_c, 9, 42, 82
1, 39946, Note_off_c, 9, 36, 100
1, 39946, Note_on_c, 9, 67, 60
1, 39946, Note_on_c, 1, 27, 122
1, 39948, Note_off_c, 9, 67, 60
1, 39948, Note_off_c, 9, 47, 62
1, 39948, Note_on_c, 6, 51, 89
1, 39948, Note_on_c, 6, 58, 89
1, 39950, Note_off_c, 9, 51, 55
1, 40130, Note_on_c, 9, 42, 70
1, 40130, Note_on_c, 9, 70, 60
1, 40132, Note_off_c, 9, 70, 60
1, 40134, Note_off_c, 9, 42, 70
1, 40134, Note_off_c, 1, 27, 122
1, 40136, Note_on_c, 1, 29, 122
1, 40290, Note_off_c, 1, 29, 122
1, 40322, Note_on_c, 9, 38, 120
1, 40322, Note_on_c, 9, 42, 78
1, 40322, Note_on_c, 9, 47, 60
1, 40324, Note_off_c, 9, 47, 60
1, 40326, Note_off_c, 9, 42, 78
1, 40326, Note_off_c, 9, 38, 120
1, 40328, Note_on_c, 1, 31, 122
1, 40342, Note_off_c, 6, 63, 89
1, 40346, Note_off_c, 6, 58, 89
1, 40350, Note_off_c, 6, 51, 89
1, 40366, Note_off_c, 6, 67, 89
1, 40482, Note_off_c, 1, 31, 122
1, 40514, Note_on_c, 9, 36, 100
1, 40514, Note_on_c, 6, 60, 89
1, 40518, Note_on_c, 9, 42, 70
1, 40518, Note_on_c, 9, 70, 60
1, 40518, Note_on_c, 1, 32, 122
1, 40520, Note_on_c, 6, 56, 89
1, 40520, Note_on_c, 6, 63, 89
1, 40520, Note_on_c, 6, 68, 89
1, 40522, Note_off_c, 9, 42, 70
1, 40522, Note_off_c, 9, 36, 100
1, 40522, Note_off_c, 9, 70, 60
1, 40610, Note_on_c, 9, 70, 60
1, 40612, Note_off_c, 9, 70, 60
1, 40708, Note_on_c, 9, 42, 82
1, 40710, Note_on_c, 9, 47, 62
1, 40710, Note_on_c, 9, 36, 100
1, 40712, Note_off_c, 9, 47, 62
1, 40714, Note_off_c, 9, 36, 100
1, 40714, Note_off_c, 9, 42, 82
1, 40830, Note_off_c, 1, 32, 122
1, 40902, Note_on_c, 9, 42, 70
1, 40902, Note_on_c, 9, 67, 60
1, 40902, Note_on_c, 1, 32, 122
1, 40904, Note_off_c, 9, 67, 60
1, 40906, Note_off_c, 9, 42, 70
1, 41060, Note_off_c, 1, 32, 122
1, 41094, Note_on_c, 9, 38, 120
1, 41094, Note_on_c, 9, 42, 78
1, 41094, Note_on_c, 9, 47, 60
1, 41094, Note_on_c, 1, 31, 122
1, 41098, Note_off_c, 9, 42, 78
1, 41098, Note_off_c, 9, 38, 120
1, 41098, Note_off_c, 9, 47, 60
1, 41126, Note_off_c, 6, 68, 89
1, 41134, Note_off_c, 6, 56, 89
1, 41136, Note_off_c, 6, 63, 89
1, 41146, Note_off_c, 6, 60, 89
1, 41260, Note_off_c, 1, 31, 122
1, 41286, Note_on_c, 9, 42, 70
1, 41286, Note_on_c, 6, 53, 89
1, 41286, Note_on_c, 6, 60, 89
1, 41286, Note_on_c, 6, 68, 89
1, 41290, Note_off_c, 9, 42, 70
1, 41290, Note_on_c, 1, 29, 122
1, 41292, Note_on_c, 6, 63, 89
1, 41476, Note_on_c, 9, 42, 82
1, 41476, Note_on_c, 9, 36, 100
1, 41478, Note_on_c, 9, 47, 62
1, 41478, Note_on_c, 9, 67, 60
1, 41480, Note_off_c, 9, 67, 60
1, 41480, Note_off_c, 9, 47, 62
1, 41482, Note_off_c, 9, 36, 100
1, 41482, Note_off_c, 9, 42, 82
1, 41614, Note_off_c, 1, 29, 122
1, 41668, Note_on_c, 1, 29, 122
1, 41670, Note_on_c, 9, 42, 70
1, 41670, Note_on_c, 9, 70, 60
1, 41672, Note_off_c, 9, 70, 60
1, 41674, Note_off_c, 9, 42, 70
1, 41854, Note_off_c, 1, 29, 122
1, 41862, Note_on_c, 9, 38, 120
1, 41862, Note_on_c, 9, 42, 78
1, 41862, Note_on_c, 9, 47, 60
1, 41862, Note_on_c, 1, 36, 122
1, 41864, Note_off_c, 9, 47, 60
1, 41866, Note_off_c, 9, 42, 78
1, 41866, Note_off_c, 9, 38, 120
1, 41964, Note_off_c, 6, 63, 89
1, 41982, Note_off_c, 6, 60, 89
1, 41982, Note_off_c, 6, 53, 89
1, 42006, Note_off_c, 6, 68, 89
1, 42026, Note_off_c, 1, 36, 122
1, 42054, Note_on_c, 9, 42, 70
1, 42054, Note_on_c, 9, 36, 100
1, 42054, Note_on_c, 1, 29, 122
1, 42056, Note_off_c, 9, 70, 60
1, 42056, Note_on_c, 9, 70, 60
1, 42058, Note_off_c, 9, 36, 100
1, 42058, Note_off_c, 9, 42, 70
1, 42150, Note_on_c, 9, 70, 60
1, 42154, Note_off_c, 9, 70, 60
1, 42154, Note_off_c, 1, 29, 122
1, 42246, Note_on_c, 9, 42, 82
1, 42246, Note_on_c, 9, 47, 62
1, 42246, Note_on_c, 9, 36, 100
1, 42246, Note_on_c, 6, 62, 89
1, 42248, Note_on_c, 6, 65, 89
1, 42250, Note_off_c, 9, 36, 100
1, 42250, Note_off_c, 9, 42, 82
1, 42250, Note_off_c, 9, 47, 62
1, 42252, Note_on_c, 1, 34, 122
1, 42252, Note_on_c, 6, 58, 89
1, 42252, Note_on_c, 6, 70, 89
1, 42374, Note_off_c, 6, 70, 89
1, 42378, Note_off_c, 6, 58, 89
1, 42384, Note_off_c, 6, 65, 89
1, 42384, Note_off_c, 6, 62, 89
1, 42434, Note_on_c, 9, 42, 70
1, 42436, Note_off_c, 9, 42, 70
1, 42438, Note_on_c, 9, 67, 60
1, 42438, Note_on_c, 1, 36, 122
1, 42442, Note_off_c, 9, 67, 60
1, 42476, Note_off_c, 1, 34, 122
1, 42590, Note_off_c, 1, 36, 122
1, 42626, Note_on_c, 9, 38, 120
1, 42630, Note_on_c, 9, 42, 78
1, 42630, Note_on_c, 9, 47, 60
1, 42630, Note_on_c, 1, 34, 122
1, 42632, Note_on_c, 6, 62, 89
1, 42632, Note_on_c, 6, 65, 89
1, 42634, Note_off_c, 9, 42, 78
1, 42634, Note_off_c, 9, 38, 120
1, 42634, Note_off_c, 9, 47, 60
1, 42636, Note_on_c, 6, 58, 89
1, 42636, Note_on_c, 6, 70, 89
1, 42734, Note_off_c, 6, 70, 89
1, 42750, Note_off_c, 6, 58, 89
1, 42766, Note_off_c, 6, 65, 89
1, 42766, Note_off_c, 6, 62, 89
1, 42810, Note_off_c, 1, 34, 122
1, 42818, Note_on_c, 9, 42, 70
1, 42818, Note_on_c, 1, 36, 122
1, 42820, Note_off_c, 9, 42, 70
1, 42950, Note_off_c, 1, 36, 122
1, 43010, Note_on_c, 9, 36, 100
1, 43012, Note_on_c, 9, 42, 82
1, 43012, Note_on_c, 9, 47, 62
1, 43014, Note_on_c, 9, 67, 60
1, 43014, Note_on_c, 6, 51, 89
1, 43014, Note_on_c, 6, 58, 89
1, 43016, Note_off_c, 9, 42, 82
1, 43018, Note_off_c, 9, 36, 100
1, 43018, Note_on_c, 1, 27, 122
1, 43018, Note_on_c, 6, 63, 89
1, 43020, Note_off_c, 9, 67, 60
1, 43020, Note_on_c, 6, 67, 89
1, 43022, Note_off_c, 9, 47, 62
1, 43198, Note_off_c, 1, 27, 122
1, 43202, Note_on_c, 9, 42, 70
1, 43202, Note_on_c, 9, 70, 60
1, 43204, Note_off_c, 9, 70, 60
1, 43206, Note_off_c, 9, 42, 70
1, 43206, Note_on_c, 1, 29, 122
1, 43362, Note_off_c, 1, 29, 122
1, 43394, Note_on_c, 9, 38, 120
1, 43394, Note_on_c, 9, 42, 78
1, 43394, Note_on_c, 9, 47, 60
1, 43396, Note_off_c, 9, 47, 60
1, 43398, Note_off_c, 9, 42, 78
1, 43398, Note_off_c, 9, 38, 120
1, 43400, Note_on_c, 1, 31, 122
1, 43418, Note_off_c, 6, 63, 89
1, 43426, Note_off_c, 6, 67, 89
1, 43434, Note_off_c, 6, 58, 89
1, 43450, Note_off_c, 6, 51, 89
1, 43538, Note_off_c, 1, 31, 122
1, 43588, Note_on_c, 9, 36, 100
1, 43590, Note_on_c, 9, 42, 70
1, 43590, Note_on_c, 9, 70, 60
1, 43590, Note_on_c, 6, 63, 89
1, 43594, Note_off_c, 9, 36, 100
1, 43594, Note_on_c, 1, 32, 122
1, 43594, Note_on_c, 6, 56, 89
1, 43594, Note_on_c, 6, 60, 89
1, 43596, Note_off_c, 9, 70, 60
1, 43596, Note_on_c, 6, 68, 89
1, 43598, Note_off_c, 9, 42, 70
1, 43684, Note_on_c, 9, 70, 60
1, 43688, Note_off_c, 9, 70, 60
1, 43782, Note_on_c, 9, 42, 82
1, 43782, Note_on_c, 9, 47, 62
1, 43782, Note_on_c, 9, 36, 100
1, 43784, Note_off_c, 9, 47, 62
1, 43786, Note_off_c, 9, 36, 100
1, 43786, Note_off_c, 9, 42, 82
1, 43886, Note_off_c, 1, 32, 122
1, 43972, Note_on_c, 1, 32, 122
1, 43974, Note_on_c, 9, 42, 70
1, 43974, Note_on_c, 9, 67, 60
1, 43978, Note_off_c, 9, 67, 60
1, 43978, Note_off_c, 9, 42, 70
1, 44150, Note_off_c, 1, 32, 122
1, 44166, Note_on_c, 9, 38, 120
1, 44166, Note_on_c, 9, 42, 78
1, 44166, Note_on_c, 1, 31, 122
1, 44168, Note_off_c, 9, 47, 60
1, 44168, Note_on_c, 9, 47, 60
1, 44170, Note_off_c, 9, 42, 78
1, 44170, Note_off_c, 9, 38, 120
1, 44250, Note_off_c, 6, 60, 89
1, 44266, Note_off_c, 6, 63, 89
1, 44270, Note_off_c, 6, 68, 89
1, 44278, Note_off_c, 6, 56, 89
1, 44298, Note_off_c, 1, 31, 122
1, 44358, Note_on_c, 9, 42, 70
1, 44358, Note_on_c, 1, 29, 122
1, 44358, Note_on_c, 6, 68, 89
1, 44360, Note_on_c, 6, 53, 89
1, 44360, Note_on_c, 6, 60, 89
1, 44362, Note_off_c, 9, 42, 70
1, 44362, Note_on_c, 6, 63, 89
1, 44548, Note_on_c, 9, 42, 82
1, 44548, Note_on_c, 9, 36, 100
1, 44550, Note_on_c, 9, 47, 62
1, 44550, Note_on_c, 9, 67, 60
1, 44552, Note_off_c, 9, 67, 60
1, 44552, Note_off_c, 9, 47, 62
1, 44554, Note_off_c, 9, 36, 100
1, 44554, Note_off_c, 9, 42, 82
1, 44668, Note_off_c, 1, 29, 122
1, 44738, Note_on_c, 9, 42, 70
1, 44740, Note_off_c, 9, 42, 70
1, 44742, Note_on_c, 9, 70, 60
1, 44742, Note_on_c, 1, 29, 122
1, 44746, Note_off_c, 9, 70, 60
1, 44842, Note_off_c, 6, 63, 89
1, 44850, Note_off_c, 6, 60, 89
1, 44870, Note_off_c, 6, 68, 89
1, 44884, Note_off_c, 1, 29, 122
1, 44934, Note_on_c, 9, 38, 120
1, 44934, Note_on_c, 9, 42, 78
1, 44934, Note_on_c, 9, 47, 60
1, 44934, Note_on_c, 1, 36, 122
1, 44936, Note_on_c, 6, 63, 89
1, 44936, Note_on_c, 6, 68, 89
1, 44938, Note_off_c, 9, 42, 78
1, 44938, Note_off_c, 9, 38, 120
1, 44938, Note_off_c, 9, 47, 60
1, 44940, Note_on_c, 6, 60, 89
1, 45086, Note_off_c, 6, 60, 89
1, 45094, Note_off_c, 6, 63, 89
1, 45094, Note_off_c, 6, 53, 89
1, 45102, Note_off_c, 6, 68, 89
1, 45106, Note_off_c, 1, 36, 122
1, 45122, Note_on_c, 9, 42, 70
1, 45122, Note_on_c, 9, 36, 100
1, 45124, Note_off_c, 9, 42, 70
1, 45126, Note_off_c, 9, 36, 100
1, 45126, Note_on_c, 1, 29, 122
1, 45128, Note_on_c, 9, 70, 60
1, 45130, Note_off_c, 9, 70, 60
1, 45218, Note_on_c, 9, 70, 60
1, 45220, Note_off_c, 9, 70, 60
1, 45254, Note_off_c, 1, 29, 122
1, 45314, Note_on_c, 6, 62, 89
1, 45318, Note_on_c, 9, 42, 82
1, 45318, Note_on_c, 9, 47, 62
1, 45318, Note_on_c, 9, 36, 100
1, 45318, Note_on_c, 1, 34, 122
1, 45320, Note_off_c, 9, 47, 62
1, 45320, Note_on_c, 6, 58, 89
1, 45320, Note_on_c, 6, 70, 89
1, 45322, Note_off_c, 9, 36, 100
1, 45322, Note_off_c, 9, 42, 82
1, 45324, Note_on_c, 6, 65, 89
1, 45446, Note_off_c, 6, 65, 89
1, 45448, Note_off_c, 6, 70, 89
1, 45458, Note_off_c, 6, 62, 89
1, 45474, Note_off_c, 6, 58, 89
1, 45506, Note_on_c, 9, 42, 70
1, 45506, Note_on_c, 9, 67, 60
1, 45508, Note_off_c, 9, 67, 60
1, 45510, Note_off_c, 9, 42, 70
1, 45530, Note_off_c, 1, 34, 122
1, 45698, Note_on_c, 9, 38, 120
1, 45698, Note_on_c, 6, 62, 89
1, 45702, Note_on_c, 9, 42, 78
1, 45702, Note_on_c, 9, 47, 60
1, 45702, Note_on_c, 1, 34, 122
1, 45704, Note_off_c, 9, 47, 60
1, 45704, Note_on_c, 6, 58, 89
1, 45704, Note_on_c, 6, 65, 89
1, 45706, Note_off_c, 9, 42, 78
1, 45706, Note_off_c, 9, 38, 120
1, 45708, Note_on_c, 6, 70, 89
1, 45794, Note_on_c, 9, 38, 120
1, 45798, Note_off_c, 9, 38, 120
1, 45818, Note_off_c, 6, 58, 89
1, 45842, Note_off_c, 6, 62, 89
1, 45850, Note_off_c, 6, 65, 89
1, 45862, Note_off_c, 6, 70, 89
1, 45890, Note_on_c, 9, 42, 70
1, 45890, Note_on_c, 9, 50, 80
1, 45894, Note_off_c, 9, 50, 80
1, 45894, Note_off_c, 9, 42, 70
1, 45922, Note_off_c, 1, 34, 122
1, 46074, Note_on_c, 5, 51, 80
1, 46074, Note_on_c, 5, 63, 80
1, 46082, Note_on_c, 9, 42, 82
1, 46082, Note_on_c, 9, 36, 100
1, 46084, Note_on_c, 1, 27, 122
1, 46086, Note_on_c, 9, 47, 62
1, 46086, Note_on_c, 9, 67, 60
1, 46086, Note_on_c, 6, 63, 89
1, 46086, Note_on_c, 6, 67, 89
1, 46088, Note_off_c, 9, 47, 62
1, 46090, Note_off_c, 9, 36, 100
1, 46090, Note_off_c, 9, 42, 82
1, 46090, Note_on_c, 6, 51, 89
1, 46090, Note_on_c, 6, 58, 89
1, 46092, Note_off_c, 9, 67, 60
1, 46274, Note_on_c, 9, 42, 70
1, 46274, Note_on_c, 9, 70, 60
1, 46274, Note_on_c, 1, 29, 122
1, 46276, Note_off_c, 9, 70, 60
1, 46278, Note_off_c, 9, 42, 70
1, 46280, Note_off_c, 1, 27, 122
1, 46434, Note_off_c, 1, 29, 122
1, 46468, Note_on_c, 1, 31, 122
1, 46470, Note_on_c, 9, 38, 120
1, 46470, Note_on_c, 9, 42, 78
1, 46472, Note_off_c, 9, 47, 60
1, 46472, Note_on_c, 9, 47, 60
1, 46474, Note_off_c, 9, 42, 78
1, 46474, Note_off_c, 9, 38, 120
1, 46484, Note_off_c, 6, 63, 89
1, 46490, Note_off_c, 6, 58, 89
1, 46494, Note_off_c, 6, 51, 89
1, 46510, Note_off_c, 6, 67, 89
1, 46630, Note_off_c, 1, 31, 122
1, 46662, Note_on_c, 9, 42, 70
1, 46662, Note_on_c, 9, 36, 100
1, 46662, Note_on_c, 6, 60, 89
1, 46664, Note_on_c, 6, 68, 89
1, 46666, Note_off_c, 9, 36, 100
1, 46666, Note_on_c, 9, 70, 60
1, 46666, Note_on_c, 1, 32, 122
1, 46668, Note_off_c, 9, 70, 60
1, 46668, Note_on_c, 6, 56, 89
1, 46668, Note_on_c, 6, 63, 89
1, 46670, Note_off_c, 9, 42, 70
1, 46758, Note_on_c, 9, 70, 60
1, 46762, Note_off_c, 9, 70, 60
1, 46854, Note_on_c, 9, 42, 82
1, 46854, Note_on_c, 9, 47, 62
1, 46854, Note_on_c, 9, 36, 100
1, 46856, Note_off_c, 9, 47, 62
1, 46858, Note_off_c, 9, 36, 100
1, 46858, Note_off_c, 9, 42, 82
1, 46974, Note_off_c, 1, 32, 122
1, 47046, Note_on_c, 9, 42, 70
1, 47046, Note_on_c, 9, 67, 60
1, 47046, Note_on_c, 1, 32, 122
1, 47050, Note_off_c, 9, 67, 60
1, 47050, Note_off_c, 9, 42, 70
1, 47206, Note_off_c, 1, 32, 122
1, 47238, Note_on_c, 9, 38, 120
1, 47238, Note_on_c, 9, 42, 78
1, 47238, Note_on_c, 1, 31, 122
1, 47240, Note_on_c, 9, 47, 60
1, 47242, Note_off_c, 9, 42, 78
1, 47242, Note_off_c, 9, 38, 120
1, 47242, Note_off_c, 9, 47, 60
1, 47270, Note_off_c, 6, 68, 89
1, 47278, Note_off_c, 6, 63, 89
1, 47278, Note_off_c, 6, 56, 89
1, 47286, Note_off_c, 6, 60, 89
1, 47406, Note_off_c, 1, 31, 122
1, 47426, Note_on_c, 6, 68, 89
1, 47430, Note_on_c, 9, 42, 70
1, 47430, Note_on_c, 1, 29, 122
1, 47432, Note_on_c, 6, 53, 89
1, 47432, Note_on_c, 6, 60, 89
1, 47432, Note_on_c, 6, 63, 89
1, 47434, Note_off_c, 9, 42, 70
1, 47622, Note_on_c, 9, 42, 82
1, 47622, Note_on_c, 9, 47, 62
1, 47622, Note_on_c, 9, 67, 60
1, 47622, Note_on_c, 9, 36, 100
1, 47624, Note_off_c, 9, 67, 60
1, 47626, Note_off_c, 9, 36, 100
1, 47626, Note_off_c, 9, 42, 82
1, 47626, Note_off_c, 9, 47, 62
1, 47758, Note_off_c, 1, 29, 122
1, 47810, Note_on_c, 9, 42, 70
1, 47812, Note_off_c, 9, 42, 70
1, 47814, Note_on_c, 9, 70, 60
1, 47814, Note_on_c, 1, 29, 122
1, 47818, Note_off_c, 9, 70, 60
1, 47998, Note_off_c, 1, 29, 122
1, 48002, Note_on_c, 9, 38, 120
1, 48002, Note_on_c, 9, 42, 78
1, 48004, Note_off_c, 9, 42, 78
1, 48006, Note_off_c, 9, 38, 120
1, 48006, Note_on_c, 1, 36, 122
1, 48008, Note_on_c, 9, 47, 60
1, 48010, Note_off_c, 9, 47, 60
1, 48110, Note_off_c, 6, 63, 89
1, 48126, Note_off_c, 6, 60, 89
1, 48126, Note_off_c, 6, 53, 89
1, 48146, Note_off_c, 6, 68, 89
1, 48170, Note_off_c, 1, 36, 122
1, 48194, Note_on_c, 9, 42, 70
1, 48194, Note_on_c, 9, 36, 100
1, 48196, Note_off_c, 9, 42, 70
1, 48198, Note_off_c, 9, 36, 100
1, 48198, Note_on_c, 1, 29, 122
1, 48200, Note_off_c, 9, 70, 60
1, 48200, Note_on_c, 9, 70, 60
1, 48290, Note_on_c, 9, 70, 60
1, 48294, Note_off_c, 9, 70, 60
1, 48298, Note_off_c, 1, 29, 122
1, 48386, Note_on_c, 9, 42, 82
1, 48386, Note_on_c, 6, 62, 89
1, 48390, Note_on_c, 9, 47, 62
1, 48390, Note_on_c, 9, 36, 100
1, 48390, Note_on_c, 1, 34, 122
1, 48392, Note_on_c, 6, 65, 89
1, 48392, Note_on_c, 6, 70, 89
1, 48394, Note_off_c, 9, 36, 100
1, 48394, Note_off_c, 9, 42, 82
1, 48394, Note_off_c, 9, 47, 62
1, 48396, Note_on_c, 6, 58, 89
1, 48518, Note_off_c, 6, 58, 89
1, 48518, Note_off_c, 6, 70, 89
1, 48522, Note_off_c, 6, 65, 89
1, 48526, Note_off_c, 6, 62, 89
1, 48578, Note_on_c, 9, 42, 70
1, 48578, Note_on_c, 9, 67, 60
1, 48582, Note_off_c, 9, 67, 60
1, 48582, Note_off_c, 9, 42, 70
1, 48584, Note_on_c, 1, 36, 122
1, 48620, Note_off_c, 1, 34, 122
1, 48734, Note_off_c, 1, 36, 122
1, 48770, Note_on_c, 9, 38, 120
1, 48770, Note_on_c, 6, 62, 89
1, 48774, Note_on_c, 9, 42, 78
1, 48774, Note_on_c, 9, 47, 60
1, 48774, Note_on_c, 1, 34, 122
1, 48776, Note_on_c, 6, 65, 89
1, 48776, Note_on_c, 6, 70, 89
1, 48778, Note_off_c, 9, 42, 78
1, 48778, Note_off_c, 9, 38, 120
1, 48778, Note_off_c, 9, 47, 60
1, 48780, Note_on_c, 6, 58, 89
1, 48878, Note_off_c, 6, 70, 89
1, 48890, Note_off_c, 6, 58, 89
1, 48910, Note_off_c, 6, 65, 89
1, 48910, Note_off_c, 6, 62, 89
1, 48954, Note_off_c, 1, 34, 122
1, 48962, Note_on_c, 9, 42, 70
1, 48962, Note_on_c, 1, 36, 122
1, 48966, Note_off_c, 9, 42, 70
1, 49092, Note_off_c, 1, 36, 122
1, 49154, Note_on_c, 9, 36, 100
1, 49154, Note_on_c, 6, 67, 89
1, 49156, Note_on_c, 9, 42, 82
1, 49156, Note_on_c, 9, 47, 62
1, 49158, Note_on_c, 9, 67, 60
1, 49158, Note_on_c, 6, 58, 89
1, 49158, Note_on_c, 6, 63, 89
1, 49160, Note_off_c, 9, 47, 62
1, 49162, Note_off_c, 9, 42, 82
1, 49162, Note_off_c, 9, 36, 100
1, 49162, Note_on_c, 1, 27, 122
1, 49164, Note_off_c, 9, 67, 60
1, 49342, Note_off_c, 1, 27, 122
1, 49346, Note_on_c, 9, 42, 70
1, 49346, Note_on_c, 9, 70, 60
1, 49346, Note_on_c, 1, 29, 122
1, 49348, Note_off_c, 9, 70, 60
1, 49350, Note_off_c, 9, 42, 70
1, 49506, Note_off_c, 1, 29, 122
1, 49538, Note_on_c, 9, 38, 120
1, 49538, Note_on_c, 9, 42, 78
1, 49538, Note_on_c, 1, 31, 122
1, 49540, Note_off_c, 9, 47, 60
1, 49540, Note_on_c, 9, 47, 60
1, 49542, Note_off_c, 9, 42, 78
1, 49542, Note_off_c, 9, 38, 120
1, 49572, Note_off_c, 6, 58, 89
1, 49578, Note_off_c, 6, 63, 89
1, 49594, Note_off_c, 6, 67, 89
1, 49684, Note_off_c, 1, 31, 122
1, 49734, Note_on_c, 9, 42, 70
1, 49734, Note_on_c, 9, 70, 60
1, 49734, Note_on_c, 9, 36, 100
1, 49734, Note_on_c, 6, 63, 89
1, 49738, Note_off_c, 9, 36, 100
1, 49738, Note_on_c, 1, 32, 122
1, 49738, Note_on_c, 6, 60, 89
1, 49740, Note_on_c, 6, 68, 89
1, 49742, Note_off_c, 9, 42, 70
1, 49742, Note_off_c, 9, 70, 60
1, 49830, Note_on_c, 9, 70, 60
1, 49834, Note_off_c, 9, 70, 60
1, 49926, Note_on_c, 9, 42, 82
1, 49926, Note_on_c, 9, 47, 62
1, 49926, Note_on_c, 9, 36, 100
1, 49930, Note_off_c, 9, 36, 100
1, 49930, Note_off_c, 9, 42, 82
1, 49930, Note_off_c, 9, 47, 62
1, 50030, Note_off_c, 1, 32, 122
1, 50118, Note_on_c, 9, 42, 70
1, 50118, Note_on_c, 9, 67, 60
1, 50118, Note_on_c, 1, 32, 122
1, 50122, Note_off_c, 9, 67, 60
1, 50122, Note_off_c, 9, 42, 70
1, 50294, Note_off_c, 1, 32, 122
1, 50310, Note_on_c, 9, 38, 120
1, 50310, Note_on_c, 9, 42, 78
1, 50310, Note_on_c, 9, 47, 60
1, 50310, Note_on_c, 1, 31, 122
1, 50314, Note_off_c, 9, 42, 78
1, 50314, Note_off_c, 9, 38, 120
1, 50314, Note_off_c, 9, 47, 60
1, 50374, Note_off_c, 6, 68, 89
1, 50394, Note_off_c, 6, 60, 89
1, 50398, Note_off_c, 6, 63, 89
1, 50438, Note_off_c, 1, 31, 122
1, 50498, Note_on_c, 6, 68, 89
1, 50502, Note_on_c, 9, 42, 70
1, 50502, Note_on_c, 1, 29, 122
1, 50502, Note_on_c, 6, 63, 89
1, 50504, Note_on_c, 6, 60, 89
1, 50506, Note_off_c, 9, 42, 70
1, 50620, Note_off_c, 5, 63, 80
1, 50692, Note_on_c, 9, 42, 82
1, 50692, Note_on_c, 9, 36, 100
1, 50694, Note_on_c, 9, 47, 62
1, 50694, Note_on_c, 9, 67, 60
1, 50696, Note_off_c, 9, 67, 60
1, 50696, Note_off_c, 9, 47, 62
1, 50698, Note_off_c, 9, 36, 100
1, 50698, Note_off_c, 9, 42, 82
1, 50812, Note_off_c, 1, 29, 122
1, 50882, Note_on_c, 9, 42, 70
1, 50884, Note_off_c, 9, 42, 70
1, 50886, Note_on_c, 1, 29, 122
1, 50888, Note_off_c, 9, 70, 60
1, 50888, Note_on_c, 9, 70, 60
1, 50986, Note_off_c, 6, 68, 89
1, 50988, Note_off_c, 6, 60, 89
1, 50990, Note_off_c, 6, 63, 89
1, 51030, Note_off_c, 1, 29, 122
1, 51074, Note_on_c, 9, 38, 120
1, 51076, Note_on_c, 1, 36, 122
1, 51078, Note_on_c, 9, 42, 78
1, 51078, Note_on_c, 9, 47, 60
1, 51078, Note_on_c, 6, 68, 89
1, 51080, Note_on_c, 6, 63, 89
1, 51082, Note_off_c, 9, 42, 78
1, 51082, Note_off_c, 9, 38, 120
1, 51082, Note_off_c, 9, 47, 60
1, 51084, Note_on_c, 6, 60, 89
1, 51246, Note_off_c, 6, 60, 89
1, 51250, Note_off_c, 1, 36, 122
1, 51254, Note_off_c, 6, 63, 89
1, 51258, Note_off_c, 6, 68, 89
1, 51266, Note_on_c, 9, 42, 70
1, 51266, Note_on_c, 9, 36, 100
1, 51268, Note_off_c, 9, 42, 70
1, 51270, Note_off_c, 9, 36, 100
1, 51270, Note_on_c, 1, 29, 122
1, 51272, Note_on_c, 9, 70, 60
1, 51274, Note_off_c, 9, 70, 60
1, 51362, Note_on_c, 9, 70, 60
1, 51364, Note_off_c, 9, 70, 60
1, 51396, Note_off_c, 1, 29, 122
1, 51458, Note_on_c, 9, 42, 82
1, 51462, Note_on_c, 9, 47, 62
1, 51462, Note_on_c, 9, 50, 80
1, 51462, Note_on_c, 9, 36, 100
1, 51462, Note_on_c, 1, 34, 122
1, 51464, Note_on_c, 6, 65, 89
1, 51464, Note_on_c, 6, 70, 89
1, 51466, Note_off_c, 9, 36, 100
1, 51466, Note_off_c, 9, 50, 80
1, 51466, Note_off_c, 9, 42, 82
1, 51466, Note_on_c, 6, 62, 89
1, 51468, Note_off_c, 9, 47, 62
1, 51522, Note_on_c, 9, 38, 80
1, 51572, Note_off_c, 9, 38, 80
1, 51586, Note_on_c, 9, 38, 90
1, 51594, Note_off_c, 6, 62, 89
1, 51598, Note_off_c, 6, 65, 89
1, 51610, Note_off_c, 6, 70, 89
1, 51638, Note_off_c, 9, 38, 90
1, 51650, Note_on_c, 9, 38, 112
1, 51650, Note_on_c, 9, 42, 70
1, 51650, Note_on_c, 9, 67, 60
1, 51652, Note_off_c, 9, 67, 60
1, 51654, Note_off_c, 9, 42, 70
1, 51654, Note_off_c, 9, 38, 112
1, 51668, Note_off_c, 1, 34, 122
1, 51714, Note_on_c, 9, 38, 105
1, 51716, Note_off_c, 9, 38, 105
1, 51734, Note_off_c, 5, 51, 80
1, 51778, Note_on_c, 9, 38, 103
1, 51780, Note_off_c, 9, 38, 103
1, 51842, Note_on_c, 9, 38, 120
1, 51842, Note_on_c, 6, 65, 89
1, 51846, Note_off_c, 9, 38, 120
1, 51846, Note_on_c, 1, 34, 122
1, 51848, Note_on_c, 9, 42, 78
1, 51848, Note_on_c, 9, 47, 60
1, 51848, Note_on_c, 6, 70, 89
1, 51850, Note_off_c, 9, 42, 78
1, 51850, Note_off_c, 9, 47, 60
1, 51850, Note_on_c, 6, 62, 89
1, 51938, Note_on_c, 9, 38, 120
1, 51940, Note_off_c, 9, 38, 120
1, 51966, Note_off_c, 6, 70, 89
1, 51974, Note_off_c, 6, 62, 89
1, 51990, Note_off_c, 6, 65, 89
1, 52034, Note_on_c, 9, 42, 70
1, 52034, Note_on_c, 9, 50, 80
1, 52036, Note_off_c, 9, 50, 80
1, 52038, Note_off_c, 9, 42, 70
1, 52066, Note_off_c, 1, 34, 122
1, 52218, Note_on_c, 5, 63, 80
1, 52218, Note_on_c, 5, 67, 80
1, 52220, Note_on_c, 5, 58, 80
1, 52228, Note_on_c, 9, 36, 100
1, 52230, Note_on_c, 9, 42, 82
1, 52230, Note_on_c, 6, 58, 89
1, 52232, Note_on_c, 9, 51, 55
1, 52234, Note_on_c, 9, 47, 62
1, 52234, Note_on_c, 9, 67, 60
1, 52234, Note_on_c, 6, 63, 89
1, 52234, Note_on_c, 6, 67, 89
1, 52236, Note_off_c, 9, 67, 60
1, 52238, Note_off_c, 9, 51, 55
1, 52238, Note_off_c, 9, 42, 82
1, 52238, Note_off_c, 9, 36, 100
1, 52238, Note_off_c, 9, 47, 62
1, 52240, Note_on_c, 1, 27, 122
1, 52366, Note_off_c, 6, 58, 89
1, 52374, Note_off_c, 6, 63, 89
1, 52388, Note_off_c, 6, 67, 89
1, 52422, Note_on_c, 9, 42, 70
1, 52422, Note_on_c, 9, 70, 60
1, 52426, Note_off_c, 9, 42, 70
1, 52426, Note_off_c, 9, 70, 60
1, 52494, Note_off_c, 1, 27, 122
1, 52614, Note_on_c, 9, 38, 120
1, 52614, Note_on_c, 9, 42, 78
1, 52614, Note_on_c, 9, 47, 60
1, 52618, Note_off_c, 9, 42, 78
1, 52618, Note_off_c, 9, 38, 120
1, 52618, Note_off_c, 9, 47, 60
1, 52652, Note_off_c, 5, 63, 80
1, 52660, Note_off_c, 5, 67, 80
1, 52666, Note_off_c, 5, 58, 80
1, 52794, Note_on_c, 5, 60, 80
1, 52794, Note_on_c, 5, 63, 80
1, 52794, Note_on_c, 5, 68, 80
1, 52806, Note_on_c, 9, 42, 70
1, 52806, Note_on_c, 9, 70, 60
1, 52806, Note_on_c, 9, 36, 100
1, 52806, Note_on_c, 6, 63, 89
1, 52808, Note_on_c, 6, 60, 89
1, 52810, Note_off_c, 9, 36, 100
1, 52810, Note_off_c, 9, 42, 70
1, 52810, Note_on_c, 1, 32, 122
1, 52810, Note_on_c, 6, 68, 89
1, 52814, Note_off_c, 9, 70, 60
1, 52902, Note_on_c, 9, 70, 60
1, 52904, Note_off_c, 9, 70, 60
1, 52918, Note_off_c, 6, 60, 89
1, 52922, Note_off_c, 6, 68, 89
1, 52926, Note_off_c, 6, 63, 89
1, 52970, Note_off_c, 1, 32, 122
1, 52998, Note_on_c, 9, 42, 82
1, 52998, Note_on_c, 9, 47, 62
1, 52998, Note_on_c, 9, 36, 100
1, 53002, Note_off_c, 9, 36, 100
1, 53002, Note_off_c, 9, 42, 82
1, 53002, Note_off_c, 9, 47, 62
1, 53186, Note_on_c, 6, 63, 89
1, 53190, Note_on_c, 9, 42, 70
1, 53190, Note_on_c, 9, 67, 60
1, 53190, Note_on_c, 6, 68, 89
1, 53192, Note_on_c, 6, 60, 89
1, 53194, Note_off_c, 9, 67, 60
1, 53194, Note_off_c, 9, 42, 70
1, 53196, Note_on_c, 1, 32, 122
1, 53302, Note_off_c, 6, 68, 89
1, 53306, Note_off_c, 6, 60, 89
1, 53318, Note_off_c, 6, 63, 89
1, 53374, Note_off_c, 1, 32, 122
1, 53382, Note_on_c, 9, 38, 120
1, 53382, Note_on_c, 9, 42, 78
1, 53382, Note_on_c, 9, 47, 60
1, 53384, Note_off_c, 9, 47, 60
1, 53386, Note_off_c, 9, 42, 78
1, 53386, Note_off_c, 9, 38, 120
1, 53570, Note_on_c, 6, 63, 89
1, 53572, Note_on_c, 1, 29, 122
1, 53574, Note_on_c, 9, 42, 70
1, 53574, Note_on_c, 6, 60, 89
1, 53576, Note_on_c, 6, 68, 89
1, 53578, Note_off_c, 9, 42, 70
1, 53690, Note_off_c, 6, 60, 89
1, 53696, Note_off_c, 6, 68, 89
1, 53696, Note_off_c, 6, 63, 89
1, 53764, Note_on_c, 9, 42, 82
1, 53764, Note_on_c, 9, 36, 100
1, 53766, Note_on_c, 9, 47, 62
1, 53766, Note_on_c, 9, 67, 60
1, 53768, Note_off_c, 9, 67, 60
1, 53768, Note_off_c, 9, 47, 62
1, 53770, Note_off_c, 9, 36, 100
1, 53770, Note_off_c, 9, 42, 82
1, 53822, Note_off_c, 1, 29, 122
1, 53954, Note_on_c, 9, 42, 70
1, 53954, Note_on_c, 9, 70, 60
1, 53956, Note_off_c, 9, 70, 60
1, 53958, Note_off_c, 9, 42, 70
1, 54146, Note_on_c, 9, 38, 120
1, 54146, Note_on_c, 9, 42, 78
1, 54146, Note_on_c, 9, 47, 60
1, 54148, Note_off_c, 9, 47, 60
1, 54150, Note_off_c, 9, 42, 78
1, 54150, Note_off_c, 9, 38, 120
1, 54338, Note_on_c, 9, 42, 70
1, 54338, Note_on_c, 9, 70, 60
1, 54338, Note_on_c, 9, 36, 100
1, 54340, Note_off_c, 9, 70, 60
1, 54342, Note_off_c, 9, 36, 100
1, 54342, Note_off_c, 9, 42, 70
1, 54344, Note_off_c, 5, 63, 80
1, 54344, Note_on_c, 1, 29, 122
1, 54406, Note_off_c, 5, 60, 80
1, 54420, Note_off_c, 5, 68, 80
1, 54434, Note_on_c, 9, 70, 60
1, 54436, Note_off_c, 9, 70, 60
1, 54516, Note_on_c, 5, 70, 80
1, 54520, Note_off_c, 1, 29, 122
1, 54522, Note_on_c, 5, 62, 80
1, 54522, Note_on_c, 5, 65, 80
1, 54530, Note_on_c, 9, 42, 82
1, 54530, Note_on_c, 9, 36, 100
1, 54530, Note_on_c, 6, 62, 89
1, 54534, Note_off_c, 9, 42, 82
1, 54534, Note_on_c, 9, 47, 62
1, 54534, Note_on_c, 1, 34, 122
1, 54536, Note_on_c, 6, 65, 89
1, 54536, Note_on_c, 6, 70, 89
1, 54538, Note_off_c, 9, 36, 100
1, 54538, Note_off_c, 9, 47, 62
1, 54654, Note_off_c, 6, 70, 89
1, 54654, Note_off_c, 6, 62, 89
1, 54660, Note_off_c, 6, 65, 89
1, 54718, Note_off_c, 1, 34, 122
1, 54726, Note_on_c, 9, 42, 70
1, 54726, Note_on_c, 9, 67, 60
1, 54730, Note_off_c, 9, 67, 60
1, 54730, Note_off_c, 9, 42, 70
1, 54918, Note_on_c, 9, 38, 120
1, 54918, Note_on_c, 9, 42, 78
1, 54918, Note_on_c, 6, 65, 89
1, 54918, Note_on_c, 6, 70, 89
1, 54922, Note_on_c, 9, 47, 60
1, 54922, Note_on_c, 1, 34, 122
1, 54922, Note_on_c, 6, 62, 89
1, 54924, Note_on_c, 4, 75, 114
1, 54926, Note_off_c, 9, 42, 78
1, 54926, Note_off_c, 9, 38, 120
1, 54926, Note_off_c, 9, 47, 60
1, 54928, Note_on_c, 4, 87, 114
1, 54930, Note_on_c, 2, 75, 113
1, 54930, Note_on_c, 4, 70, 114
1, 54930, Note_on_c, 4, 82, 114
1, 54932, Note_on_c, 2, 70, 113
1, 54932, Note_on_c, 2, 82, 113
1, 54932, Note_on_c, 2, 87, 113
1, 54940, Note_off_c, 2, 70, 113
1, 54942, Note_off_c, 4, 70, 114
1, 54950, Note_off_c, 2, 82, 113
1, 54950, Note_off_c, 4, 82, 114
1, 54956, Note_off_c, 2, 87, 113
1, 54958, Note_off_c, 2, 75, 113
1, 54958, Note_off_c, 4, 87, 114
1, 54960, Note_off_c, 4, 75, 114
1, 55014, Note_on_c, 4, 70, 114
1, 55014, Note_on_c, 4, 75, 114
1, 55014, Note_on_c, 4, 82, 114
1, 55014, Note_on_c, 4, 87, 114
1, 55018, Note_on_c, 2, 70, 113
1, 55018, Note_on_c, 2, 75, 113
1, 55018, Note_on_c, 2, 82, 113
1, 55018, Note_on_c, 2, 87, 113
1, 55022, Note_off_c, 6, 62, 89
1, 55046, Note_off_c, 4, 70, 114
1, 55046, Note_off_c, 6, 70, 89
1, 55050, Note_off_c, 2, 70, 113
1, 55052, Note_off_c, 2, 75, 113
1, 55054, Note_off_c, 4, 75, 114
1, 55056, Note_off_c, 6, 65, 89
1, 55062, Note_off_c, 4, 87, 114
1, 55066, Note_off_c, 2, 87, 113
1, 55068, Note_off_c, 2, 82, 113
1, 55070, Note_off_c, 4, 82, 114
1, 55078, Note_off_c, 5, 62, 80
1, 55080, Note_off_c, 5, 65, 80
1, 55096, Note_off_c, 5, 70, 80
1, 55110, Note_on_c, 9, 42, 70
1, 55114, Note_off_c, 9, 42, 70
1, 55178, Note_off_c, 1, 34, 122
1, 55290, Note_on_c, 5, 58, 80
1, 55290, Note_on_c, 5, 63, 80
1, 55290, Note_on_c, 5, 67, 80
1, 55302, Note_on_c, 9, 42, 82
1, 55302, Note_on_c, 9, 47, 62
1, 55302, Note_on_c, 9, 36, 100
1, 55302, Note_on_c, 6, 58, 89
1, 55306, Note_off_c, 9, 36, 100
1, 55306, Note_on_c, 1, 27, 122
1, 55308, Note_on_c, 9, 67, 60
1, 55308, Note_on_c, 6, 63, 89
1, 55308, Note_on_c, 6, 67, 89
1, 55310, Note_off_c, 9, 67, 60
1, 55310, Note_off_c, 9, 42, 82
1, 55310, Note_off_c, 9, 47, 62
1, 55446, Note_off_c, 6, 63, 89
1, 55448, Note_off_c, 6, 58, 89
1, 55470, Note_off_c, 6, 67, 89
1, 55494, Note_on_c, 9, 42, 70
1, 55494, Note_on_c, 9, 70, 60
1, 55496, Note_off_c, 9, 70, 60
1, 55498, Note_off_c, 9, 42, 70
1, 55590, Note_off_c, 1, 27, 122
1, 55684, Note_on_c, 9, 38, 120
1, 55686, Note_on_c, 9, 42, 78
1, 55686, Note_on_c, 9, 47, 60
1, 55688, Note_off_c, 9, 47, 60
1, 55690, Note_off_c, 9, 42, 78
1, 55690, Note_off_c, 9, 38, 120
1, 55710, Note_off_c, 5, 63, 80
1, 55720, Note_off_c, 5, 58, 80
1, 55724, Note_off_c, 5, 67, 80
1, 55866, Note_on_c, 5, 60, 80
1, 55866, Note_on_c, 5, 63, 80
1, 55866, Note_on_c, 5, 68, 80
1, 55876, Note_on_c, 9, 36, 100
1, 55878, Note_on_c, 9, 42, 70
1, 55878, Note_on_c, 9, 70, 60
1, 55880, Note_on_c, 6, 63, 89
1, 55880, Note_on_c, 6, 68, 89
1, 55882, Note_off_c, 9, 42, 70
1, 55882, Note_off_c, 9, 36, 100
1, 55882, Note_on_c, 1, 32, 122
1, 55884, Note_off_c, 9, 70, 60
1, 55884, Note_on_c, 6, 60, 89
1, 55974, Note_on_c, 9, 70, 60
1, 55976, Note_off_c, 9, 70, 60
1, 55998, Note_off_c, 6, 60, 89
1, 55998, Note_off_c, 6, 63, 89
1, 56006, Note_off_c, 6, 68, 89
1, 56046, Note_off_c, 1, 32, 122
1, 56068, Note_on_c, 9, 42, 82
1, 56070, Note_on_c, 9, 47, 62
1, 56070, Note_on_c, 9, 36, 100
1, 56074, Note_off_c, 9, 36, 100
1, 56074, Note_off_c, 9, 42, 82
1, 56074, Note_off_c, 9, 47, 62
1, 56258, Note_on_c, 6, 68, 89
1, 56262, Note_on_c, 9, 42, 70
1, 56262, Note_on_c, 9, 67, 60
1, 56262, Note_on_c, 1, 32, 122
1, 56264, Note_on_c, 6, 60, 89
1, 56264, Note_on_c, 6, 63, 89
1, 56266, Note_off_c, 9, 67, 60
1, 56266, Note_off_c, 9, 42, 70
1, 56378, Note_off_c, 6, 63, 89
1, 56386, Note_off_c, 6, 68, 89
1, 56392, Note_off_c, 6, 60, 89
1, 56430, Note_off_c, 1, 32, 122
1, 56450, Note_on_c, 9, 38, 120
1, 56452, Note_off_c, 9, 38, 120
1, 56454, Note_on_c, 9, 42, 78
1, 56454, Note_on_c, 9, 47, 60
1, 56458, Note_off_c, 9, 42, 78
1, 56458, Note_off_c, 9, 47, 60
1, 56642, Note_on_c, 9, 42, 70
1, 56642, Note_on_c, 6, 68, 89
1, 56646, Note_off_c, 9, 42, 70
1, 56646, Note_on_c, 1, 29, 122
1, 56648, Note_on_c, 6, 60, 89
1, 56648, Note_on_c, 6, 63, 89
1, 56746, Note_off_c, 6, 60, 89
1, 56766, Note_off_c, 6, 63, 89
1, 56778, Note_off_c, 6, 68, 89
1, 56822, Note_off_c, 1, 29, 122
1, 56834, Note_on_c, 9, 42, 82
1, 56834, Note_on_c, 9, 36, 100
1, 56836, Note_off_c, 9, 36, 100
1, 56836, Note_off_c, 9, 42, 82
1, 56838, Note_on_c, 9, 47, 62
1, 56838, Note_on_c, 9, 67, 60
1, 56840, Note_off_c, 9, 67, 60
1, 56842, Note_off_c, 9, 47, 62
1, 57026, Note_on_c, 9, 42, 70
1, 57026, Note_on_c, 6, 63, 89
1, 57030, Note_off_c, 9, 42, 70
1, 57030, Note_on_c, 1, 32, 122
1, 57032, Note_on_c, 9, 70, 60
1, 57032, Note_on_c, 6, 68, 89
1, 57032, Note_on_c, 6, 72, 89
1, 57034, Note_off_c, 9, 70, 60
1, 57154, Note_off_c, 6, 72, 89
1, 57158, Note_off_c, 6, 68, 89
1, 57174, Note_off_c, 6, 63, 89
1, 57214, Note_off_c, 1, 32, 122
1, 57218, Note_on_c, 9, 38, 120
1, 57218, Note_on_c, 9, 42, 78
1, 57218, Note_on_c, 9, 47, 60
1, 57220, Note_off_c, 9, 47, 60
1, 57222, Note_off_c, 9, 42, 78
1, 57222, Note_off_c, 9, 38, 120
1, 57414, Note_on_c, 9, 42, 70
1, 57414, Note_on_c, 9, 70, 60
1, 57414, Note_on_c, 9, 36, 100
1, 57414, Note_on_c, 6, 65, 89
1, 57418, Note_off_c, 9, 36, 100
1, 57418, Note_on_c, 1, 29, 122
1, 57418, Note_on_c, 6, 70, 89
1, 57420, Note_on_c, 6, 63, 89
1, 57422, Note_off_c, 9, 42, 70
1, 57422, Note_off_c, 9, 70, 60
1, 57438, Note_off_c, 5, 63, 80
1, 57438, Note_on_c, 5, 63, 43
1, 57452, Note_off_c, 5, 60, 80
1, 57510, Note_on_c, 9, 70, 60
1, 57514, Note_off_c, 9, 70, 60
1, 57550, Note_off_c, 6, 65, 89
1, 57562, Note_off_c, 6, 70, 89
1, 57578, Note_off_c, 6, 63, 89
1, 57582, Note_off_c, 1, 29, 122
1, 57594, Note_on_c, 5, 58, 80
1, 57594, Note_on_c, 5, 62, 80
1, 57594, Note_on_c, 5, 65, 80
1, 57598, Note_off_c, 5, 68, 80
1, 57606, Note_on_c, 9, 42, 82
1, 57606, Note_on_c, 9, 47, 62
1, 57606, Note_on_c, 9, 36, 100
1, 57610, Note_off_c, 9, 36, 100
1, 57610, Note_off_c, 9, 42, 82
1, 57610, Note_off_c, 9, 47, 62
1, 57798, Note_on_c, 9, 42, 70
1, 57798, Note_on_c, 9, 67, 60
1, 57798, Note_on_c, 6, 62, 89
1, 57800, Note_on_c, 6, 65, 89
1, 57802, Note_off_c, 9, 67, 60
1, 57802, Note_off_c, 9, 42, 70
1, 57802, Note_on_c, 1, 34, 122
1, 57804, Note_on_c, 6, 70, 89
1, 57942, Note_off_c, 6, 65, 89
1, 57946, Note_off_c, 6, 62, 89
1, 57962, Note_off_c, 6, 70, 89
1, 57990, Note_on_c, 9, 38, 120
1, 57990, Note_on_c, 9, 42, 78
1, 57990, Note_on_c, 9, 47, 60
1, 57992, Note_off_c, 9, 47, 60
1, 57994, Note_off_c, 9, 42, 78
1, 57994, Note_off_c, 9, 38, 120
1, 58084, Note_on_c, 9, 38, 120
1, 58088, Note_off_c, 9, 38, 120
1, 58118, Note_off_c, 1, 34, 122
1, 58150, Note_off_c, 5, 62, 80
1, 58156, Note_off_c, 5, 65, 80
1, 58164, Note_off_c, 5, 58, 80
1, 58180, Note_on_c, 9, 42, 70
1, 58182, Note_on_c, 9, 50, 80
1, 58186, Note_off_c, 9, 50, 80
1, 58186, Note_off_c, 9, 42, 70
1, 58362, Note_off_c, 5, 63, 43
1, 58362, Note_on_c, 5, 58, 80
1, 58362, Note_on_c, 5, 63, 80
1, 58362, Note_on_c, 5, 67, 80
1, 58372, Note_on_c, 9, 42, 82
1, 58372, Note_on_c, 9, 36, 100
1, 58374, Note_on_c, 9, 47, 62
1, 58374, Note_on_c, 9, 67, 60
1, 58374, Note_on_c, 6, 58, 89
1, 58376, Note_off_c, 9, 42, 82
1, 58378, Note_off_c, 9, 36, 100
1, 58378, Note_on_c, 1, 27, 122
1, 58378, Note_on_c, 6, 63, 89
1, 58378, Note_on_c, 6, 67, 89
1, 58380, Note_off_c, 9, 67, 60
1, 58380, Note_off_c, 9, 47, 62
1, 58490, Note_off_c, 6, 58, 89
1, 58494, Note_off_c, 6, 63, 89
1, 58510, Note_off_c, 6, 67, 89
1, 58562, Note_on_c, 9, 42, 70
1, 58564, Note_off_c, 9, 42, 70
1, 58566, Note_on_c, 9, 70, 60
1, 58570, Note_off_c, 9, 70, 60
1, 58638, Note_off_c, 1, 27, 122
1, 58754, Note_on_c, 9, 38, 120
1, 58756, Note_off_c, 9, 38, 120
1, 58758, Note_on_c, 9, 42, 78
1, 58760, Note_on_c, 9, 47, 60
1, 58762, Note_off_c, 9, 42, 78
1, 58762, Note_off_c, 9, 47, 60
1, 58834, Note_off_c, 5, 67, 80
1, 58834, Note_off_c, 5, 58, 80
1, 58858, Note_off_c, 5, 63, 80
1, 58938, Note_on_c, 5, 60, 80
1, 58938, Note_on_c, 5, 63, 80
1, 58938, Note_on_c, 5, 68, 80
1, 58946, Note_on_c, 6, 68, 89
1, 58950, Note_on_c, 9, 42, 70
1, 58950, Note_on_c, 9, 70, 60
1, 58950, Note_on_c, 9, 36, 100
1, 58952, Note_on_c, 6, 60, 89
1, 58952, Note_on_c, 6, 63, 89
1, 58954, Note_off_c, 9, 36, 100
1, 58954, Note_off_c, 9, 42, 70
1, 58954, Note_off_c, 9, 70, 60
1, 58956, Note_on_c, 1, 32, 122
1, 59042, Note_on_c, 9, 70, 60
1, 59044, Note_off_c, 9, 70, 60
1, 59070, Note_off_c, 6, 60, 89
1, 59078, Note_off_c, 6, 68, 89
1, 59082, Note_off_c, 6, 63, 89
1, 59114, Note_off_c, 1, 32, 122
1, 59138, Note_on_c, 9, 42, 82
1, 59138, Note_on_c, 9, 36, 100
1, 59140, Note_off_c, 9, 36, 100
1, 59142, Note_off_c, 9, 42, 82
1, 59142, Note_on_c, 9, 47, 62
1, 59146, Note_off_c, 9, 47, 62
1, 59330, Note_on_c, 9, 42, 70
1, 59330, Note_on_c, 6, 68, 89
1, 59334, Note_on_c, 9, 67, 60
1, 59334, Note_on_c, 1, 32, 122
1, 59334, Note_on_c, 6, 63, 89
1, 59336, Note_on_c, 6, 60, 89
1, 59338, Note_off_c, 9, 67, 60
1, 59338, Note_off_c, 9, 42, 70
1, 59458, Note_off_c, 6, 60, 89
1, 59462, Note_off_c, 6, 68, 89
1, 59466, Note_off_c, 6, 63, 89
1, 59514, Note_off_c, 1, 32, 122
1, 59522, Note_on_c, 9, 38, 120
1, 59522, Note_on_c, 9, 42, 78
1, 59522, Note_on_c, 9, 47, 60
1, 59524, Note_off_c, 9, 47, 60
1, 59526, Note_off_c, 9, 42, 78
1, 59526, Note_off_c, 9, 38, 120
1, 59714, Note_on_c, 9, 42, 70
1, 59714, Note_on_c, 6, 60, 89
1, 59714, Note_on_c, 6, 68, 89
1, 59718, Note_off_c, 9, 42, 70
1, 59718, Note_on_c, 1, 29, 122
1, 59720, Note_on_c, 6, 63, 89
1, 59846, Note_off_c, 6, 60, 89
1, 59850, Note_off_c, 6, 63, 89
1, 59852, Note_off_c, 6, 68, 89
1, 59910, Note_on_c, 9, 42, 82
1, 59910, Note_on_c, 9, 47, 62
1, 59910, Note_on_c, 9, 67, 60
1, 59910, Note_on_c, 9, 36, 100
1, 59914, Note_off_c, 9, 36, 100
1, 59914, Note_off_c, 9, 67, 60
1, 59914, Note_off_c, 9, 42, 82
1, 59914, Note_off_c, 9, 47, 62
1, 59966, Note_off_c, 1, 29, 122
1, 60100, Note_on_c, 9, 42, 70
1, 60102, Note_on_c, 9, 70, 60
1, 60104, Note_off_c, 9, 70, 60
1, 60106, Note_off_c, 9, 42, 70
1, 60292, Note_on_c, 9, 38, 120
1, 60294, Note_on_c, 9, 42, 78
1, 60294, Note_on_c, 9, 47, 60
1, 60296, Note_off_c, 9, 47, 60
1, 60298, Note_off_c, 9, 42, 78
1, 60298, Note_off_c, 9, 38, 120
1, 60446, Note_off_c, 5, 63, 80
1, 60484, Note_on_c, 1, 29, 122
1, 60486, Note_on_c, 9, 42, 70
1, 60486, Note_on_c, 9, 70, 60
1, 60486, Note_on_c, 9, 36, 100
1, 60490, Note_off_c, 9, 36, 100
1, 60490, Note_off_c, 9, 42, 70
1, 60490, Note_off_c, 9, 70, 60
1, 60532, Note_off_c, 5, 68, 80
1, 60548, Note_off_c, 5, 60, 80
1, 60580, Note_on_c, 9, 70, 60
1, 60584, Note_off_c, 9, 70, 60
1, 60666, Note_on_c, 5, 62, 80
1, 60666, Note_on_c, 5, 65, 80
1, 60666, Note_on_c, 5, 70, 80
1, 60668, Note_off_c, 1, 29, 122
1, 60676, Note_on_c, 9, 42, 82
1, 60678, Note_on_c, 9, 47, 62
1, 60678, Note_on_c, 9, 36, 100
1, 60678, Note_on_c, 6, 62, 89
1, 60678, Note_on_c, 6, 65, 89
1, 60682, Note_off_c, 9, 36, 100
1, 60682, Note_off_c, 9, 42, 82
1, 60682, Note_on_c, 1, 34, 122
1, 60682, Note_on_c, 6, 70, 89
1, 60684, Note_off_c, 9, 47, 62
1, 60798, Note_off_c, 6, 62, 89
1, 60810, Note_off_c, 6, 70, 89
1, 60812, Note_off_c, 6, 65, 89
1, 60862, Note_off_c, 1, 34, 122
1, 60870, Note_on_c, 9, 42, 70
1, 60870, Note_on_c, 9, 67, 60
1, 60874, Note_off_c, 9, 67, 60
1, 60874, Note_off_c, 9, 42, 70
1, 61062, Note_on_c, 9, 38, 120
1, 61062, Note_on_c, 9, 42, 78
1, 61062, Note_on_c, 9, 47, 60
1, 61062, Note_on_c, 6, 70, 89
1, 61064, Note_on_c, 6, 65, 89
1, 61066, Note_on_c, 1, 34, 122
1, 61066, Note_on_c, 6, 62, 89
1, 61068, Note_off_c, 9, 47, 60
1, 61068, Note_on_c, 4, 75, 114
1, 61068, Note_on_c, 4, 87, 114
1, 61070, Note_off_c, 9, 42, 78
1, 61070, Note_off_c, 9, 38, 120
1, 61072, Note_on_c, 4, 70, 114
1, 61072, Note_on_c, 4, 82, 114
1, 61074, Note_on_c, 2, 70, 113
1, 61074, Note_on_c, 2, 75, 113
1, 61074, Note_on_c, 2, 82, 113
1, 61074, Note_on_c, 2, 87, 113
1, 61084, Note_off_c, 2, 70, 113
1, 61084, Note_off_c, 4, 70, 114
1, 61090, Note_off_c, 2, 82, 113
1, 61090, Note_off_c, 4, 82, 114
1, 61100, Note_off_c, 2, 87, 113
1, 61102, Note_off_c, 2, 75, 113
1, 61102, Note_off_c, 4, 87, 114
1, 61102, Note_off_c, 4, 75, 114
1, 61154, Note_on_c, 4, 82, 114
1, 61156, Note_on_c, 4, 87, 114
1, 61158, Note_on_c, 2, 82, 113
1, 61158, Note_on_c, 2, 87, 113
1, 61158, Note_on_c, 4, 70, 114
1, 61158, Note_on_c, 4, 75, 114
1, 61160, Note_on_c, 2, 75, 113
1, 61162, Note_off_c, 6, 62, 89
1, 61162, Note_on_c, 2, 70, 113
1, 61182, Note_off_c, 6, 70, 89
1, 61188, Note_off_c, 2, 70, 113
1, 61190, Note_off_c, 4, 70, 114
1, 61192, Note_off_c, 4, 75, 114
1, 61194, Note_off_c, 6, 65, 89
1, 61196, Note_off_c, 2, 75, 113
1, 61204, Note_off_c, 2, 87, 113
1, 61206, Note_off_c, 4, 87, 114
1, 61212, Note_off_c, 2, 82, 113
1, 61214, Note_off_c, 4, 82, 114
1, 61226, Note_off_c, 5, 62, 80
1, 61236, Note_off_c, 5, 65, 80
1, 61238, Note_off_c, 5, 70, 80
1, 61250, Note_on_c, 9, 42, 70
1, 61252, Note_off_c, 9, 42, 70
1, 61322, Note_off_c, 1, 34, 122
1, 61434, Note_on_c, 5, 58, 80
1, 61434, Note_on_c, 5, 63, 80
1, 61434, Note_on_c, 5, 67, 80
1, 61444, Note_on_c, 9, 36, 100
1, 61446, Note_on_c, 9, 42, 82
1, 61446, Note_on_c, 9, 47, 62
1, 61446, Note_on_c, 9, 67, 60
1, 61446, Note_on_c, 6, 58, 89
1, 61448, Note_off_c, 9, 42, 82
1, 61448, Note_off_c, 9, 36, 100
1, 61448, Note_on_c, 6, 67, 89
1, 61450, Note_on_c, 1, 27, 122
1, 61450, Note_on_c, 6, 63, 89
1, 61452, Note_off_c, 9, 67, 60
1, 61452, Note_off_c, 9, 47, 62
1, 61572, Note_off_c, 6, 63, 89
1, 61578, Note_off_c, 6, 58, 89
1, 61592, Note_off_c, 6, 67, 89
1, 61634, Note_on_c, 9, 42, 70
1, 61634, Note_on_c, 9, 70, 60
1, 61638, Note_off_c, 9, 42, 70
1, 61638, Note_off_c, 9, 70, 60
1, 61730, Note_off_c, 1, 27, 122
1, 61826, Note_on_c, 9, 38, 120
1, 61826, Note_on_c, 9, 42, 78
1, 61828, Note_off_c, 9, 42, 78
1, 61830, Note_off_c, 9, 38, 120
1, 61830, Note_on_c, 9, 47, 60
1, 61834, Note_off_c, 9, 47, 60
1, 61846, Note_off_c, 5, 63, 80
1, 61852, Note_off_c, 5, 58, 80
1, 61860, Note_off_c, 5, 67, 80
1, 62010, Note_on_c, 5, 60, 80
1, 62010, Note_on_c, 5, 63, 80
1, 62010, Note_on_c, 5, 68, 80
1, 62018, Note_on_c, 9, 36, 100
1, 62018, Note_on_c, 6, 68, 89
1, 62022, Note_on_c, 9, 42, 70
1, 62022, Note_on_c, 9, 70, 60
1, 62022, Note_on_c, 1, 32, 122
1, 62024, Note_on_c, 6, 60, 89
1, 62024, Note_on_c, 6, 63, 89
1, 62026, Note_off_c, 9, 42, 70
1, 62026, Note_off_c, 9, 36, 100
1, 62026, Note_off_c, 9, 70, 60
1, 62114, Note_on_c, 9, 70, 60
1, 62118, Note_off_c, 9, 70, 60
1, 62130, Note_off_c, 6, 60, 89
1, 62138, Note_off_c, 6, 63, 89
1, 62150, Note_off_c, 6, 68, 89
1, 62188, Note_off_c, 1, 32, 122
1, 62210, Note_on_c, 9, 42, 82
1, 62210, Note_on_c, 9, 47, 62
1, 62210, Note_on_c, 9, 36, 100
1, 62214, Note_off_c, 9, 36, 100
1, 62214, Note_off_c, 9, 42, 82
1, 62214, Note_off_c, 9, 47, 62
1, 62402, Note_on_c, 9, 42, 70
1, 62402, Note_on_c, 9, 67, 60
1, 62402, Note_on_c, 1, 32, 122
1, 62404, Note_on_c, 6, 60, 89
1, 62404, Note_on_c, 6, 63, 89
1, 62404, Note_on_c, 6, 68, 89
1, 62406, Note_off_c, 9, 67, 60
1, 62408, Note_off_c, 9, 42, 70
1, 62526, Note_off_c, 6, 63, 89
1, 62534, Note_off_c, 6, 60, 89
1, 62542, Note_off_c, 6, 68, 89
1, 62574, Note_off_c, 1, 32, 122
1, 62598, Note_on_c, 9, 38, 120
1, 62598, Note_on_c, 9, 42, 78
1, 62598, Note_on_c, 9, 47, 60
1, 62600, Note_off_c, 9, 47, 60
1, 62602, Note_off_c, 9, 42, 78
1, 62602, Note_off_c, 9, 38, 120
1, 62788, Note_on_c, 1, 29, 122
1, 62790, Note_on_c, 9, 42, 70
1, 62790, Note_on_c, 6, 68, 89
1, 62792, Note_on_c, 6, 60, 89
1, 62792, Note_on_c, 6, 63, 89
1, 62794, Note_off_c, 9, 42, 70
1, 62878, Note_off_c, 6, 60, 89
1, 62902, Note_off_c, 6, 63, 89
1, 62918, Note_off_c, 6, 68, 89
1, 62964, Note_off_c, 1, 29, 122
1, 62980, Note_on_c, 9, 42, 82
1, 62980, Note_on_c, 9, 36, 100
1, 62982, Note_on_c, 9, 47, 62
1, 62982, Note_on_c, 9, 67, 60
1, 62984, Note_off_c, 9, 67, 60
1, 62984, Note_off_c, 9, 47, 62
1, 62986, Note_off_c, 9, 36, 100
1, 62986, Note_off_c, 9, 42, 82
1, 63172, Note_on_c, 9, 42, 70
1, 63174, Note_on_c, 9, 70, 60
1, 63174, Note_on_c, 6, 72, 89
1, 63176, Note_on_c, 6, 63, 89
1, 63176, Note_on_c, 6, 68, 89
1, 63178, Note_off_c, 9, 42, 70
1, 63178, Note_off_c, 9, 70, 60
1, 63180, Note_on_c, 1, 32, 122
1, 63282, Note_off_c, 6, 72, 89
1, 63294, Note_off_c, 6, 68, 89
1, 63294, Note_off_c, 6, 63, 89
1, 63356, Note_off_c, 1, 32, 122
1, 63366, Note_on_c, 9, 38, 120
1, 63366, Note_on_c, 9, 42, 78
1, 63366, Note_on_c, 9, 47, 60
1, 63370, Note_off_c, 9, 42, 78
1, 63370, Note_off_c, 9, 38, 120
1, 63370, Note_off_c, 9, 47, 60
1, 63514, Note_off_c, 5, 63, 80
1, 63522, Note_off_c, 5, 60, 80
1, 63558, Note_on_c, 9, 42, 70
1, 63558, Note_on_c, 9, 70, 60
1, 63558, Note_on_c, 9, 36, 100
1, 63558, Note_on_c, 6, 65, 89
1, 63560, Note_on_c, 6, 63, 89
1, 63562, Note_off_c, 9, 36, 100
1, 63562, Note_off_c, 9, 42, 70
1, 63562, Note_on_c, 1, 29, 122
1, 63564, Note_off_c, 9, 70, 60
1, 63564, Note_on_c, 6, 70, 89
1, 63650, Note_on_c, 9, 70, 60
1, 63652, Note_off_c, 9, 70, 60
1, 63686, Note_off_c, 6, 63, 89
1, 63694, Note_off_c, 6, 70, 89
1, 63706, Note_off_c, 5, 68, 80
1, 63710, Note_off_c, 6, 65, 89
1, 63726, Note_off_c, 1, 29, 122
1, 63738, Note_on_c, 5, 58, 80
1, 63738, Note_on_c, 5, 62, 80
1, 63738, Note_on_c, 5, 65, 80
1, 63746, Note_on_c, 9, 42, 82
1, 63748, Note_off_c, 9, 42, 82
1, 63750, Note_on_c, 9, 50, 80
1, 63750, Note_on_c, 9, 36, 100
1, 63752, Note_on_c, 9, 47, 62
1, 63754, Note_off_c, 9, 36, 100
1, 63754, Note_off_c, 9, 50, 80
1, 63754, Note_off_c, 9, 47, 62
1, 63810, Note_on_c, 9, 38, 80
1, 63860, Note_off_c, 9, 38, 80
1, 63874, Note_on_c, 9, 38, 90
1, 63924, Note_off_c, 9, 38, 90
1, 63938, Note_on_c, 6, 65, 89
1, 63942, Note_on_c, 9, 38, 112
1, 63942, Note_on_c, 9, 42, 70
1, 63942, Note_on_c, 9, 67, 60
1, 63942, Note_on_c, 6, 62, 89
1, 63944, Note_on_c, 6, 70, 89
1, 63946, Note_off_c, 9, 67, 60
1, 63946, Note_off_c, 9, 42, 70
1, 63946, Note_off_c, 9, 38, 112
1, 63948, Note_on_c, 1, 34, 122
1, 64002, Note_on_c, 9, 38, 105
1, 64006, Note_off_c, 9, 38, 105
1, 64066, Note_on_c, 9, 38, 103
1, 64068, Note_off_c, 9, 38, 103
1, 64102, Note_off_c, 6, 62, 89
1, 64106, Note_off_c, 6, 70, 89
1, 64110, Note_off_c, 6, 65, 89
1, 64130, Note_on_c, 9, 38, 120
1, 64130, Note_on_c, 9, 42, 78
1, 64130, Note_on_c, 9, 47, 60
1, 64134, Note_on_c, 4, 70, 114
1, 64134, Note_on_c, 4, 75, 114
1, 64134, Note_on_c, 4, 82, 114
1, 64134, Note_on_c, 4, 87, 114
1, 64136, Note_on_c, 2, 75, 113
1, 64138, Note_off_c, 9, 42, 78
1, 64138, Note_off_c, 9, 38, 120
1, 64138, Note_off_c, 9, 47, 60
1, 64140, Note_on_c, 2, 70, 113
1, 64140, Note_on_c, 2, 82, 113
1, 64140, Note_on_c, 2, 87, 113
1, 64156, Note_off_c, 2, 70, 113
1, 64158, Note_off_c, 4, 70, 114
1, 64162, Note_off_c, 2, 82, 113
1, 64162, Note_off_c, 4, 82, 114
1, 64174, Note_off_c, 2, 87, 113
1, 64174, Note_off_c, 2, 75, 113
1, 64176, Note_off_c, 4, 87, 114
1, 64176, Note_off_c, 4, 75, 114
1, 64226, Note_on_c, 9, 38, 120
1, 64226, Note_on_c, 4, 82, 114
1, 64230, Note_on_c, 2, 82, 113
1, 64230, Note_on_c, 4, 70, 114
1, 64230, Note_on_c, 4, 75, 114
1, 64230, Note_on_c, 4, 87, 114
1, 64232, Note_on_c, 2, 75, 113
1, 64232, Note_on_c, 2, 87, 113
1, 64234, Note_off_c, 9, 38, 120
1, 64234, Note_on_c, 2, 70, 113
1, 64242, Note_off_c, 5, 58, 80
1, 64258, Note_off_c, 1, 34, 122
1, 64262, Note_off_c, 2, 70, 113
1, 64262, Note_off_c, 4, 70, 114
1, 64262, Note_off_c, 5, 62, 80
1, 64266, Note_off_c, 2, 75, 113
1, 64266, Note_off_c, 4, 75, 114
1, 64270, Note_off_c, 5, 65, 80
1, 64278, Note_off_c, 2, 87, 113
1, 64278, Note_off_c, 4, 87, 114
1, 64286, Note_off_c, 2, 82, 113
1, 64286, Note_off_c, 4, 82, 114
1, 64322, Note_on_c, 9, 42, 70
1, 64322, Note_on_c, 9, 50, 80
1, 64324, Note_off_c, 9, 50, 80
1, 64326, Note_off_c, 9, 42, 70
1, 64514, Note_on_c, 9, 36, 100
1, 64516, Note_on_c, 9, 42, 82
1, 64518, Note_on_c, 9, 47, 62
1, 64518, Note_on_c, 9, 51, 55
1, 64518, Note_on_c, 9, 67, 60
1, 64518, Note_on_c, 6, 58, 89
1, 64520, Note_on_c, 6, 67, 89
1, 64522, Note_off_c, 9, 42, 82
1, 64522, Note_off_c, 9, 36, 100
1, 64522, Note_on_c, 1, 27, 122
1, 64522, Note_on_c, 6, 63, 89
1, 64524, Note_off_c, 9, 67, 60
1, 64526, Note_off_c, 9, 51, 55
1, 64526, Note_off_c, 9, 47, 62
1, 64706, Note_on_c, 9, 42, 70
1, 64706, Note_on_c, 9, 70, 60
1, 64710, Note_off_c, 9, 42, 70
1, 64710, Note_off_c, 1, 27, 122
1, 64710, Note_off_c, 9, 70, 60
1, 64712, Note_on_c, 1, 29, 122
1, 64866, Note_off_c, 1, 29, 122
1, 64898, Note_on_c, 9, 38, 120
1, 64898, Note_on_c, 9, 42, 78
1, 64898, Note_on_c, 9, 47, 60
1, 64898, Note_on_c, 1, 31, 122
1, 64902, Note_off_c, 9, 42, 78
1, 64902, Note_off_c, 9, 38, 120
1, 64902, Note_off_c, 9, 47, 60
1, 64904, Note_off_c, 6, 63, 89
1, 64918, Note_off_c, 6, 58, 89
1, 64942, Note_off_c, 6, 67, 89
1, 65062, Note_off_c, 1, 31, 122
1, 65094, Note_on_c, 9, 42, 70
1, 65094, Note_on_c, 9, 70, 60
1, 65094, Note_on_c, 9, 36, 100
1, 65094, Note_on_c, 6, 63, 89
1, 65098, Note_off_c, 9, 36, 100
1, 65098, Note_on_c, 1, 32, 122
1, 65098, Note_on_c, 6, 60, 89
1, 65098, Note_on_c, 6, 68, 89
1, 65102, Note_off_c, 9, 42, 70
1, 65102, Note_off_c, 9, 70, 60
1, 65190, Note_on_c, 9, 70, 60
1, 65192, Note_off_c, 9, 70, 60
1, 65286, Note_on_c, 9, 42, 82
1, 65286, Note_on_c, 9, 47, 62
1, 65286, Note_on_c, 9, 36, 100
1, 65288, Note_off_c, 9, 47, 62
1, 65290, Note_off_c, 9, 36, 100
1, 65290, Note_off_c, 9, 42, 82
1, 65406, Note_off_c, 1, 32, 122
1, 65478, Note_on_c, 9, 42, 70
1, 65478, Note_on_c, 9, 67, 60
1, 65478, Note_on_c, 1, 32, 122
1, 65482, Note_off_c, 9, 67, 60
1, 65482, Note_off_c, 9, 42, 70
1, 65638, Note_off_c, 1, 32, 122
1, 65670, Note_on_c, 9, 38, 120
1, 65670, Note_on_c, 9, 42, 78
1, 65670, Note_on_c, 1, 31, 122
1, 65672, Note_on_c, 9, 47, 60
1, 65674, Note_off_c, 9, 42, 78
1, 65674, Note_off_c, 9, 38, 120
1, 65674, Note_off_c, 9, 47, 60
1, 65730, Note_off_c, 6, 68, 89
1, 65738, Note_off_c, 6, 60, 89
1, 65740, Note_off_c, 6, 63, 89
1, 65838, Note_off_c, 1, 31, 122
1, 65858, Note_on_c, 6, 68, 89
1, 65862, Note_on_c, 9, 42, 70
1, 65862, Note_on_c, 1, 29, 122
1, 65862, Note_on_c, 6, 63, 89
1, 65864, Note_on_c, 6, 60, 89
1, 65866, Note_off_c, 9, 42, 70
1, 66052, Note_on_c, 9, 36, 100
1, 66054, Note_on_c, 9, 42, 82
1, 66054, Note_on_c, 9, 47, 62
1, 66054, Note_on_c, 9, 67, 60
1, 66056, Note_off_c, 9, 67, 60
1, 66058, Note_off_c, 9, 42, 82
1, 66058, Note_off_c, 9, 36, 100
1, 66058, Note_off_c, 9, 47, 62
1, 66188, Note_off_c, 1, 29, 122
1, 66242, Note_on_c, 9, 42, 70
1, 66244, Note_off_c, 9, 42, 70
1, 66246, Note_on_c, 9, 70, 60
1, 66246, Note_on_c, 1, 29, 122
1, 66250, Note_off_c, 9, 70, 60
1, 66428, Note_off_c, 1, 29, 122
1, 66434, Note_on_c, 9, 38, 120
1, 66436, Note_off_c, 9, 38, 120
1, 66438, Note_on_c, 9, 42, 78
1, 66438, Note_on_c, 1, 36, 122
1, 66440, Note_off_c, 9, 47, 60
1, 66440, Note_on_c, 9, 47, 60
1, 66442, Note_off_c, 9, 42, 78
1, 66582, Note_off_c, 6, 63, 89
1, 66590, Note_off_c, 6, 60, 89
1, 66602, Note_off_c, 1, 36, 122
1, 66614, Note_off_c, 6, 68, 89
1, 66626, Note_on_c, 9, 42, 70
1, 66626, Note_on_c, 9, 36, 100
1, 66628, Note_off_c, 9, 42, 70
1, 66630, Note_off_c, 9, 36, 100
1, 66630, Note_on_c, 1, 29, 122
1, 66632, Note_on_c, 9, 70, 60
1, 66634, Note_off_c, 9, 70, 60
1, 66722, Note_on_c, 9, 70, 60
1, 66726, Note_off_c, 9, 70, 60
1, 66730, Note_off_c, 1, 29, 122
1, 66818, Note_on_c, 9, 42, 82
1, 66818, Note_on_c, 6, 70, 89
1, 66822, Note_on_c, 9, 47, 62
1, 66822, Note_on_c, 9, 36, 100
1, 66822, Note_on_c, 1, 34, 122
1, 66824, Note_on_c, 6, 62, 89
1, 66824, Note_on_c, 6, 65, 89
1, 66826, Note_off_c, 9, 36, 100
1, 66826, Note_off_c, 9, 42, 82
1, 66826, Note_off_c, 9, 47, 62
1, 66958, Note_off_c, 6, 62, 89
1, 66970, Note_off_c, 6, 65, 89
1, 66982, Note_off_c, 6, 70, 89
1, 67010, Note_on_c, 9, 42, 70
1, 67010, Note_on_c, 9, 67, 60
1, 67012, Note_off_c, 9, 67, 60
1, 67014, Note_off_c, 9, 42, 70
1, 67014, Note_on_c, 1, 36, 122
1, 67052, Note_off_c, 1, 34, 122
1, 67166, Note_off_c, 1, 36, 122
1, 67202, Note_on_c, 9, 38, 120
1, 67202, Note_on_c, 6, 70, 89
1, 67206, Note_on_c, 9, 42, 78
1, 67206, Note_on_c, 9, 47, 60
1, 67206, Note_on_c, 1, 34, 122
1, 67208, Note_on_c, 6, 62, 89
1, 67208, Note_on_c, 6, 65, 89
1, 67210, Note_off_c, 9, 42, 78
1, 67210, Note_off_c, 9, 38, 120
1, 67210, Note_off_c, 9, 47, 60
1, 67330, Note_off_c, 6, 62, 89
1, 67346, Note_off_c, 6, 70, 89
1, 67362, Note_off_c, 6, 65, 89
1, 67388, Note_off_c, 1, 34, 122
1, 67396, Note_on_c, 1, 36, 122
1, 67398, Note_on_c, 9, 42, 70
1, 67402, Note_off_c, 9, 42, 70
1, 67526, Note_off_c, 1, 36, 122
1, 67588, Note_on_c, 9, 42, 82
1, 67588, Note_on_c, 9, 36, 100
1, 67590, Note_on_c, 6, 58, 89
1, 67592, Note_on_c, 1, 39, 122
1, 67594, Note_on_c, 9, 47, 62
1, 67594, Note_on_c, 9, 67, 60
1, 67594, Note_on_c, 6, 63, 89
1, 67594, Note_on_c, 6, 67, 89
1, 67596, Note_off_c, 9, 67, 60
1, 67596, Note_off_c, 9, 47, 62
1, 67598, Note_off_c, 9, 36, 100
1, 67598, Note_off_c, 9, 42, 82
1, 67772, Note_off_c, 1, 39, 122
1, 67782, Note_on_c, 9, 42, 70
1, 67782, Note_on_c, 9, 70, 60
1, 67782, Note_on_c, 1, 34, 122
1, 67784, Note_off_c, 9, 70, 60
1, 67786, Note_off_c, 9, 42, 70
1, 67926, Note_off_c, 6, 63, 89
1, 67930, Note_off_c, 6, 58, 89
1, 67942, Note_off_c, 1, 34, 122
1, 67944, Note_off_c, 6, 67, 89
1, 67974, Note_on_c, 9, 38, 120
1, 67974, Note_on_c, 9, 42, 78
1, 67974, Note_on_c, 1, 31, 122
1, 67976, Note_on_c, 9, 47, 60
1, 67978, Note_off_c, 9, 42, 78
1, 67978, Note_off_c, 9, 38, 120
1, 67978, Note_off_c, 9, 47, 60
1, 68118, Note_off_c, 1, 31, 122
1, 68166, Note_on_c, 9, 42, 70
1, 68166, Note_on_c, 9, 70, 60
1, 68166, Note_on_c, 9, 36, 100
1, 68168, Note_on_c, 6, 63, 89
1, 68168, Note_on_c, 6, 68, 89
1, 68170, Note_off_c, 9, 36, 100
1, 68170, Note_off_c, 9, 42, 70
1, 68170, Note_on_c, 1, 32, 122
1, 68172, Note_off_c, 9, 70, 60
1, 68172, Note_on_c, 6, 60, 89
1, 68262, Note_on_c, 9, 70, 60
1, 68266, Note_off_c, 9, 70, 60
1, 68358, Note_on_c, 9, 42, 82
1, 68358, Note_on_c, 9, 47, 62
1, 68358, Note_on_c, 9, 36, 100
1, 68362, Note_off_c, 9, 36, 100
1, 68362, Note_off_c, 9, 42, 82
1, 68362, Note_off_c, 9, 47, 62
1, 68460, Note_off_c, 1, 32, 122
1, 68546, Note_on_c, 9, 42, 70
1, 68548, Note_off_c, 9, 42, 70
1, 68550, Note_on_c, 9, 67, 60
1, 68550, Note_on_c, 1, 32, 122
1, 68554, Note_off_c, 9, 67, 60
1, 68726, Note_off_c, 1, 32, 122
1, 68738, Note_on_c, 9, 38, 120
1, 68740, Note_off_c, 9, 38, 120
1, 68742, Note_on_c, 9, 42, 78
1, 68742, Note_on_c, 1, 31, 122
1, 68744, Note_on_c, 9, 47, 60
1, 68746, Note_off_c, 9, 42, 78
1, 68746, Note_off_c, 9, 47, 60
1, 68870, Note_off_c, 1, 31, 122
1, 68922, Note_off_c, 6, 60, 89
1, 68924, Note_off_c, 6, 68, 89
1, 68930, Note_on_c, 9, 42, 70
1, 68932, Note_off_c, 9, 42, 70
1, 68936, Note_off_c, 6, 63, 89
1, 68936, Note_on_c, 1, 29, 122
1, 69122, Note_on_c, 9, 36, 100
1, 69126, Note_on_c, 9, 42, 82
1, 69126, Note_on_c, 9, 47, 62
1, 69126, Note_on_c, 9, 67, 60
1, 69126, Note_on_c, 6, 60, 89
1, 69128, Note_on_c, 6, 63, 89
1, 69130, Note_off_c, 9, 67, 60
1, 69130, Note_off_c, 9, 42, 82
1, 69130, Note_off_c, 9, 36, 100
1, 69130, Note_off_c, 9, 47, 62
1, 69132, Note_on_c, 6, 68, 89
1, 69242, Note_off_c, 1, 29, 122
1, 69314, Note_on_c, 9, 42, 70
1, 69314, Note_on_c, 9, 70, 60
1, 69316, Note_off_c, 9, 70, 60
1, 69318, Note_off_c, 9, 42, 70
1, 69318, Note_on_c, 1, 29, 122
1, 69330, Note_off_c, 6, 63, 89
1, 69338, Note_off_c, 6, 60, 89
1, 69350, Note_off_c, 6, 68, 89
1, 69460, Note_off_c, 1, 29, 122
1, 69506, Note_on_c, 9, 38, 120
1, 69506, Note_on_c, 6, 68, 89
1, 69508, Note_on_c, 1, 36, 122
1, 69510, Note_on_c, 9, 42, 78
1, 69510, Note_on_c, 9, 47, 60
1, 69512, Note_on_c, 6, 60, 89
1, 69512, Note_on_c, 6, 63, 89
1, 69514, Note_off_c, 9, 42, 78
1, 69514, Note_off_c, 9, 38, 120
1, 69514, Note_off_c, 9, 47, 60
1, 69682, Note_off_c, 1, 36, 122
1, 69686, Note_off_c, 6, 60, 89
1, 69690, Note_off_c, 6, 63, 89
1, 69690, Note_off_c, 6, 68, 89
1, 69698, Note_on_c, 9, 42, 70
1, 69698, Note_on_c, 9, 70, 60
1, 69698, Note_on_c, 9, 36, 100
1, 69702, Note_off_c, 9, 36, 100
1, 69702, Note_off_c, 9, 42, 70
1, 69702, Note_off_c, 9, 70, 60
1, 69704, Note_on_c, 1, 29, 122
1, 69796, Note_on_c, 9, 70, 60
1, 69800, Note_off_c, 9, 70, 60
1, 69830, Note_off_c, 1, 29, 122
1, 69892, Note_on_c, 9, 42, 82
1, 69894, Note_on_c, 9, 36, 100
1, 69894, Note_on_c, 6, 62, 89
1, 69898, Note_off_c, 9, 42, 82
1, 69898, Note_on_c, 9, 47, 62
1, 69898, Note_on_c, 1, 34, 122
1, 69900, Note_on_c, 6, 65, 89
1, 69900, Note_on_c, 6, 70, 89
1, 69902, Note_off_c, 9, 36, 100
1, 69902, Note_off_c, 9, 47, 62
1, 70046, Note_off_c, 6, 70, 89
1, 70046, Note_off_c, 6, 65, 89
1, 70046, Note_off_c, 6, 62, 89
1, 70086, Note_on_c, 9, 42, 70
1, 70086, Note_on_c, 9, 67, 60
1, 70088, Note_off_c, 9, 67, 60
1, 70090, Note_off_c, 9, 42, 70
1, 70106, Note_off_c, 1, 34, 122
1, 70276, Note_on_c, 9, 38, 120
1, 70278, Note_on_c, 9, 42, 78
1, 70278, Note_on_c, 6, 65, 89
1, 70282, Note_on_c, 9, 47, 60
1, 70282, Note_on_c, 1, 34, 122
1, 70282, Note_on_c, 6, 62, 89
1, 70284, Note_on_c, 4, 75, 114
1, 70284, Note_on_c, 6, 70, 89
1, 70286, Note_off_c, 9, 42, 78
1, 70286, Note_off_c, 9, 38, 120
1, 70286, Note_off_c, 9, 47, 60
1, 70290, Note_on_c, 2, 75, 113
1, 70290, Note_on_c, 4, 70, 114
1, 70290, Note_on_c, 4, 82, 114
1, 70290, Note_on_c, 4, 87, 114
1, 70292, Note_on_c, 2, 70, 113
1, 70292, Note_on_c, 2, 82, 113
1, 70292, Note_on_c, 2, 87, 113
1, 70302, Note_off_c, 2, 70, 113
1, 70302, Note_off_c, 4, 70, 114
1, 70306, Note_off_c, 2, 82, 113
1, 70306, Note_off_c, 4, 82, 114
1, 70318, Note_off_c, 2, 87, 113
1, 70318, Note_off_c, 2, 75, 113
1, 70320, Note_off_c, 4, 87, 114
1, 70320, Note_off_c, 4, 75, 114
1, 70374, Note_on_c, 9, 38, 120
1, 70374, Note_on_c, 4, 82, 114
1, 70374, Note_on_c, 4, 87, 114
1, 70376, Note_on_c, 4, 75, 114
1, 70378, Note_on_c, 2, 75, 113
1, 70378, Note_on_c, 2, 82, 113
1, 70378, Note_on_c, 2, 87, 113
1, 70378, Note_on_c, 4, 70, 114
1, 70380, Note_on_c, 2, 70, 113
1, 70382, Note_off_c, 9, 38, 120
1, 70406, Note_off_c, 4, 70, 114
1, 70410, Note_off_c, 2, 70, 113
1, 70414, Note_off_c, 2, 75, 113
1, 70414, Note_off_c, 4, 75, 114
1, 70416, Note_off_c, 6, 62, 89
1, 70422, Note_off_c, 4, 87, 114
1, 70426, Note_off_c, 2, 87, 113
1, 70426, Note_off_c, 6, 70, 89
1, 70430, Note_off_c, 2, 82, 113
1, 70430, Note_off_c, 4, 82, 114
1, 70446, Note_off_c, 6, 65, 89
1, 70470, Note_on_c, 9, 42, 70
1, 70470, Note_on_c, 9, 50, 80
1, 70474, Note_off_c, 9, 50, 80
1, 70474, Note_off_c, 9, 42, 70
1, 70500, Note_off_c, 1, 34, 122
1, 70660, Note_on_c, 9, 36, 100
1, 70662, Note_on_c, 9, 42, 82
1, 70662, Note_on_c, 6, 67, 89
1, 70664, Note_off_c, 9, 36, 100
1, 70666, Note_on_c, 9, 47, 62
1, 70666, Note_on_c, 9, 67, 60
1, 70666, Note_on_c, 1, 27, 122
1, 70668, Note_off_c, 9, 67, 60
1, 70668, Note_on_c, 6, 58, 89
1, 70668, Note_on_c, 6, 63, 89
1, 70670, Note_off_c, 9, 42, 82
1, 70670, Note_off_c, 9, 47, 62
1, 70854, Note_on_c, 9, 42, 70
1, 70854, Note_on_c, 9, 70, 60
1, 70854, Note_on_c, 1, 29, 122
1, 70858, Note_off_c, 9, 42, 70
1, 70858, Note_off_c, 9, 70, 60
1, 70860, Note_off_c, 1, 27, 122
1, 70998, Note_off_c, 6, 63, 89
1, 71014, Note_off_c, 1, 29, 122
1, 71016, Note_off_c, 6, 58, 89
1, 71018, Note_off_c, 6, 67, 89
1, 71046, Note_on_c, 9, 38, 120
1, 71046, Note_on_c, 9, 42, 78
1, 71046, Note_on_c, 9, 47, 60
1, 71046, Note_on_c, 1, 31, 122
1, 71050, Note_off_c, 9, 42, 78
1, 71050, Note_off_c, 9, 38, 120
1, 71050, Note_off_c, 9, 47, 60
1, 71206, Note_off_c, 1, 31, 122
1, 71238, Note_on_c, 9, 42, 70
1, 71238, Note_on_c, 9, 70, 60
1, 71238, Note_on_c, 9, 36, 100
1, 71238, Note_on_c, 6, 63, 89
1, 71240, Note_on_c, 6, 68, 89
1, 71242, Note_off_c, 9, 36, 100
1, 71242, Note_off_c, 9, 42, 70
1, 71242, Note_on_c, 1, 32, 122
1, 71244, Note_on_c, 6, 60, 89
1, 71246, Note_off_c, 9, 70, 60
1, 71334, Note_on_c, 9, 70, 60
1, 71338, Note_off_c, 9, 70, 60
1, 71430, Note_on_c, 9, 42, 82
1, 71430, Note_on_c, 9, 47, 62
1, 71430, Note_on_c, 9, 36, 100
1, 71432, Note_off_c, 9, 47, 62
1, 71434, Note_off_c, 9, 36, 100
1, 71434, Note_off_c, 9, 42, 82
1, 71550, Note_off_c, 1, 32, 122
1, 71622, Note_on_c, 9, 42, 70
1, 71622, Note_on_c, 9, 67, 60
1, 71622, Note_on_c, 1, 32, 122
1, 71626, Note_off_c, 9, 67, 60
1, 71626, Note_off_c, 9, 42, 70
1, 71782, Note_off_c, 1, 32, 122
1, 71790, Note_off_c, 6, 63, 89
1, 71794, Note_off_c, 6, 60, 89
1, 71804, Note_off_c, 6, 68, 89
1, 71814, Note_on_c, 9, 38, 120
1, 71814, Note_on_c, 9, 42, 78
1, 71814, Note_on_c, 1, 31, 122
1, 71816, Note_off_c, 9, 47, 60
1, 71816, Note_on_c, 9, 47, 60
1, 71818, Note_off_c, 9, 42, 78
1, 71818, Note_off_c, 9, 38, 120
1, 71980, Note_off_c, 1, 31, 122
1, 72002, Note_on_c, 6, 68, 89
1, 72004, Note_on_c, 1, 29, 122
1, 72006, Note_on_c, 9, 42, 70
1, 72006, Note_on_c, 6, 63, 89
1, 72008, Note_on_c, 6, 60, 89
1, 72010, Note_off_c, 9, 42, 70
1, 72194, Note_on_c, 9, 36, 100
1, 72196, Note_off_c, 9, 36, 100
1, 72198, Note_on_c, 9, 42, 82
1, 72198, Note_on_c, 9, 47, 62
1, 72198, Note_on_c, 9, 67, 60
1, 72200, Note_off_c, 9, 67, 60
1, 72200, Note_off_c, 9, 47, 62
1, 72202, Note_off_c, 9, 42, 82
1, 72334, Note_off_c, 1, 29, 122
1, 72386, Note_on_c, 9, 42, 70
1, 72386, Note_on_c, 9, 70, 60
1, 72388, Note_off_c, 9, 70, 60
1, 72390, Note_off_c, 9, 42, 70
1, 72390, Note_on_c, 1, 29, 122
1, 72574, Note_off_c, 1, 29, 122
1, 72578, Note_on_c, 9, 38, 120
1, 72578, Note_on_c, 9, 42, 78
1, 72578, Note_on_c, 9, 47, 60
1, 72580, Note_off_c, 9, 47, 60
1, 72582, Note_off_c, 9, 42, 78
1, 72582, Note_off_c, 9, 38, 120
1, 72584, Note_on_c, 1, 36, 122
1, 72698, Note_off_c, 6, 63, 89
1, 72702, Note_off_c, 6, 68, 89
1, 72706, Note_off_c, 6, 60, 89
1, 72746, Note_off_c, 1, 36, 122
1, 72770, Note_on_c, 9, 42, 70
1, 72770, Note_on_c, 9, 70, 60
1, 72770, Note_on_c, 9, 36, 100
1, 72772, Note_off_c, 9, 70, 60
1, 72774, Note_off_c, 9, 36, 100
1, 72774, Note_off_c, 9, 42, 70
1, 72776, Note_on_c, 1, 29, 122
1, 72866, Note_on_c, 9, 70, 60
1, 72868, Note_off_c, 9, 70, 60
1, 72870, Note_off_c, 1, 29, 122
1, 72962, Note_on_c, 9, 42, 82
1, 72962, Note_on_c, 9, 36, 100
1, 72962, Note_on_c, 6, 62, 89
1, 72964, Note_off_c, 9, 42, 82
1, 72966, Note_on_c, 9, 47, 62
1, 72966, Note_on_c, 1, 34, 122
1, 72968, Note_on_c, 6, 65, 89
1, 72968, Note_on_c, 6, 70, 89
1, 72970, Note_off_c, 9, 36, 100
1, 72970, Note_off_c, 9, 47, 62
1, 73094, Note_off_c, 6, 62, 89
1, 73102, Note_off_c, 6, 65, 89
1, 73110, Note_off_c, 6, 70, 89
1, 73158, Note_on_c, 9, 42, 70
1, 73158, Note_on_c, 9, 67, 60
1, 73158, Note_on_c, 1, 36, 122
1, 73162, Note_off_c, 9, 67, 60
1, 73162, Note_off_c, 9, 42, 70
1, 73198, Note_off_c, 1, 34, 122
1, 73310, Note_off_c, 1, 36, 122
1, 73350, Note_on_c, 9, 38, 120
1, 73350, Note_on_c, 9, 42, 78
1, 73350, Note_on_c, 9, 47, 60
1, 73350, Note_on_c, 6, 65, 89
1, 73354, Note_off_c, 9, 42, 78
1, 73354, Note_off_c, 9, 38, 120
1, 73354, Note_on_c, 1, 34, 122
1, 73356, Note_on_c, 6, 62, 89
1, 73356, Note_on_c, 6, 70, 89
1, 73358, Note_off_c, 9, 47, 60
1, 73484, Note_off_c, 6, 70, 89
1, 73498, Note_off_c, 6, 62, 89
1, 73530, Note_off_c, 6, 65, 89
1, 73534, Note_off_c, 1, 34, 122
1, 73542, Note_on_c, 9, 42, 70
1, 73542, Note_on_c, 1, 36, 122
1, 73546, Note_off_c, 9, 42, 70
1, 73668, Note_off_c, 1, 36, 122
1, 73734, Note_on_c, 9, 42, 82
1, 73734, Note_on_c, 9, 47, 62
1, 73734, Note_on_c, 9, 36, 100
1, 73734, Note_on_c, 6, 58, 89
1, 73738, Note_on_c, 9, 67, 60
1, 73738, Note_on_c, 1, 39, 122
1, 73738, Note_on_c, 6, 67, 89
1, 73740, Note_on_c, 6, 63, 89
1, 73742, Note_off_c, 9, 67, 60
1, 73742, Note_off_c, 9, 36, 100
1, 73742, Note_off_c, 9, 42, 82
1, 73742, Note_off_c, 9, 47, 62
1, 73918, Note_off_c, 1, 39, 122
1, 73926, Note_on_c, 9, 42, 70
1, 73926, Note_on_c, 9, 70, 60
1, 73926, Note_on_c, 1, 34, 122
1, 73930, Note_off_c, 9, 42, 70
1, 73930, Note_off_c, 9, 70, 60
1, 74014, Note_off_c, 6, 63, 89
1, 74026, Note_off_c, 6, 58, 89
1, 74034, Note_off_c, 6, 67, 89
1, 74084, Note_off_c, 1, 34, 122
1, 74118, Note_on_c, 9, 38, 120
1, 74118, Note_on_c, 9, 42, 78
1, 74118, Note_on_c, 9, 47, 60
1, 74118, Note_on_c, 1, 31, 122
1, 74120, Note_off_c, 9, 47, 60
1, 74122, Note_off_c, 9, 42, 78
1, 74122, Note_off_c, 9, 38, 120
1, 74262, Note_off_c, 1, 31, 122
1, 74310, Note_on_c, 9, 42, 70
1, 74310, Note_on_c, 9, 36, 100
1, 74310, Note_on_c, 1, 32, 122
1, 74312, Note_on_c, 9, 70, 60
1, 74312, Note_on_c, 6, 63, 89
1, 74312, Note_on_c, 6, 68, 89
1, 74314, Note_off_c, 9, 36, 100
1, 74314, Note_off_c, 9, 42, 70
1, 74314, Note_off_c, 9, 70, 60
1, 74316, Note_on_c, 6, 60, 89
1, 74402, Note_on_c, 9, 70, 60
1, 74406, Note_off_c, 9, 70, 60
1, 74498, Note_on_c, 9, 42, 82
1, 74502, Note_off_c, 9, 42, 82
1, 74502, Note_on_c, 9, 47, 62
1, 74502, Note_on_c, 9, 36, 100
1, 74504, Note_off_c, 9, 47, 62
1, 74506, Note_off_c, 9, 36, 100
1, 74606, Note_off_c, 1, 32, 122
1, 74690, Note_on_c, 9, 42, 70
1, 74690, Note_on_c, 9, 67, 60
1, 74692, Note_off_c, 9, 67, 60
1, 74694, Note_off_c, 9, 42, 70
1, 74694, Note_on_c, 1, 32, 122
1, 74854, Note_off_c, 6, 68, 89
1, 74858, Note_off_c, 6, 63, 89
1, 74868, Note_off_c, 1, 32, 122
1, 74872, Note_off_c, 6, 60, 89
1, 74882, Note_on_c, 9, 38, 120
1, 74882, Note_on_c, 9, 42, 78
1, 74884, Note_off_c, 9, 42, 78
1, 74886, Note_off_c, 9, 38, 120
1, 74886, Note_on_c, 1, 31, 122
1, 74888, Note_on_c, 9, 47, 60
1, 74890, Note_off_c, 9, 47, 60
1, 75014, Note_off_c, 1, 31, 122
1, 75074, Note_on_c, 9, 42, 70
1, 75074, Note_on_c, 6, 63, 89
1, 75074, Note_on_c, 6, 68, 89
1, 75076, Note_off_c, 9, 42, 70
1, 75078, Note_on_c, 1, 29, 122
1, 75080, Note_on_c, 6, 60, 89
1, 75266, Note_on_c, 9, 42, 82
1, 75266, Note_on_c, 9, 36, 100
1, 75268, Note_off_c, 9, 36, 100
1, 75268, Note_off_c, 9, 42, 82
1, 75270, Note_on_c, 9, 47, 62
1, 75270, Note_on_c, 9, 67, 60
1, 75272, Note_off_c, 9, 67, 60
1, 75274, Note_off_c, 9, 47, 62
1, 75386, Note_off_c, 1, 29, 122
1, 75458, Note_on_c, 9, 42, 70
1, 75458, Note_on_c, 9, 70, 60
1, 75458, Note_on_c, 1, 29, 122
1, 75460, Note_off_c, 9, 70, 60
1, 75462, Note_off_c, 9, 42, 70
1, 75534, Note_off_c, 6, 68, 89
1, 75542, Note_off_c, 6, 60, 89
1, 75550, Note_off_c, 6, 63, 89
1, 75610, Note_off_c, 1, 29, 122
1, 75654, Note_on_c, 9, 38, 120
1, 75654, Note_on_c, 9, 42, 78
1, 75654, Note_on_c, 6, 68, 89
1, 75656, Note_on_c, 6, 60, 89
1, 75658, Note_off_c, 9, 38, 120
1, 75658, Note_on_c, 9, 47, 60
1, 75658, Note_on_c, 1, 36, 122
1, 75660, Note_on_c, 6, 63, 89
1, 75662, Note_off_c, 9, 42, 78
1, 75662, Note_off_c, 9, 47, 60
1, 75818, Note_off_c, 6, 63, 89
1, 75820, Note_off_c, 6, 68, 89
1, 75822, Note_off_c, 6, 60, 89
1, 75830, Note_off_c, 1, 36, 122
1, 75846, Note_on_c, 9, 42, 70
1, 75846, Note_on_c, 9, 70, 60
1, 75846, Note_on_c, 9, 36, 100
1, 75846, Note_on_c, 1, 29, 122
1, 75850, Note_off_c, 9, 36, 100
1, 75850, Note_off_c, 9, 42, 70
1, 75850, Note_off_c, 9, 70, 60
1, 75940, Note_on_c, 9, 70, 60
1, 75944, Note_off_c, 9, 70, 60
1, 75978, Note_off_c, 1, 29, 122
1, 76038, Note_on_c, 9, 42, 82
1, 76038, Note_on_c, 9, 50, 80
1, 76038, Note_on_c, 9, 36, 100
1, 76038, Note_on_c, 6, 65, 89
1, 76042, Note_off_c, 9, 42, 82
1, 76042, Note_on_c, 9, 47, 62
1, 76042, Note_on_c, 1, 34, 122
1, 76044, Note_on_c, 6, 62, 89
1, 76044, Note_on_c, 6, 70, 89
1, 76046, Note_off_c, 9, 36, 100
1, 76046, Note_off_c, 9, 50, 80
1, 76046, Note_off_c, 9, 47, 62
1, 76102, Note_on_c, 9, 38, 80
1, 76148, Note_off_c, 9, 38, 80
1, 76166, Note_on_c, 9, 38, 90
1, 76202, Note_off_c, 6, 65, 89
1, 76208, Note_off_c, 6, 70, 89
1, 76208, Note_off_c, 6, 62, 89
1, 76212, Note_off_c, 9, 38, 90
1, 76228, Note_on_c, 9, 42, 70
1, 76230, Note_on_c, 9, 38, 112
1, 76230, Note_on_c, 9, 67, 60
1, 76232, Note_off_c, 9, 67, 60
1, 76234, Note_off_c, 9, 38, 112
1, 76234, Note_off_c, 9, 42, 70
1, 76250, Note_off_c, 1, 34, 122
1, 76292, Note_on_c, 9, 38, 105
1, 76296, Note_off_c, 9, 38, 105
1, 76358, Note_on_c, 9, 38, 103
1, 76362, Note_off_c, 9, 38, 103
1, 76422, Note_on_c, 9, 38, 120
1, 76422, Note_on_c, 9, 42, 78
1, 76422, Note_on_c, 9, 47, 60
1, 76422, Note_on_c, 6, 65, 89
1, 76424, Note_off_c, 9, 42, 78
1, 76424, Note_on_c, 6, 62, 89
1, 76426, Note_off_c, 9, 38, 120
1, 76426, Note_on_c, 1, 34, 122
1, 76426, Note_on_c, 6, 70, 89
1, 76430, Note_off_c, 9, 47, 60
1, 76518, Note_on_c, 9, 38, 120
1, 76520, Note_off_c, 9, 38, 120
1, 76582, Note_off_c, 6, 62, 89
1, 76590, Note_off_c, 6, 70, 89
1, 76598, Note_off_c, 6, 65, 89
1, 76614, Note_on_c, 9, 42, 70
1, 76614, Note_on_c, 9, 50, 80
1, 76616, Note_off_c, 9, 50, 80
1, 76618, Note_off_c, 9, 42, 70
1, 76642, Note_off_c, 1, 34, 122
1, 76794, Note_on_c, 5, 63, 80
1, 76794, Note_on_c, 5, 66, 80
1, 76794, Note_on_c, 5, 73, 80
1, 76798, Note_on_c, 5, 70, 80
1, 76800, Note_on_c, 3, 87, 124
1, 76804, Note_on_c, 9, 42, 82
1, 76804, Note_on_c, 9, 36, 100
1, 76806, Note_on_c, 9, 47, 62
1, 76806, Note_on_c, 9, 51, 55
1, 76806, Note_on_c, 6, 66, 89
1, 76808, Note_off_c, 9, 36, 100
1, 76810, Note_on_c, 9, 67, 60
1, 76810, Note_on_c, 1, 27, 122
1, 76810, Note_on_c, 6, 63, 89
1, 76812, Note_off_c, 9, 67, 60
1, 76812, Note_off_c, 9, 47, 62
1, 76812, Note_on_c, 6, 51, 89
1, 76812, Note_on_c, 6, 73, 89
1, 76814, Note_off_c, 9, 51, 55
1, 76814, Note_off_c, 9, 42, 82
1, 76994, Note_on_c, 9, 42, 70
1, 76994, Note_on_c, 9, 70, 60
1, 76998, Note_off_c, 9, 42, 70
1, 76998, Note_off_c, 9, 70, 60
1, 77186, Note_on_c, 9, 38, 120
1, 77186, Note_on_c, 9, 42, 78
1, 77188, Note_off_c, 9, 42, 78
1, 77190, Note_off_c, 9, 38, 120
1, 77190, Note_on_c, 9, 47, 60
1, 77194, Note_off_c, 9, 47, 60
1, 77262, Note_off_c, 1, 27, 122
1, 77378, Note_on_c, 9, 42, 70
1, 77378, Note_on_c, 9, 36, 100
1, 77380, Note_off_c, 9, 42, 70
1, 77382, Note_off_c, 9, 36, 100
1, 77384, Note_on_c, 9, 70, 60
1, 77384, Note_on_c, 1, 27, 122
1, 77386, Note_off_c, 9, 70, 60
1, 77418, Note_off_c, 1, 27, 122
1, 77474, Note_on_c, 9, 70, 60
1, 77474, Note_on_c, 1, 27, 122
1, 77476, Note_off_c, 9, 70, 60
1, 77542, Note_off_c, 1, 27, 122
1, 77570, Note_on_c, 9, 42, 82
1, 77570, Note_on_c, 9, 47, 62
1, 77570, Note_on_c, 9, 36, 100
1, 77572, Note_off_c, 9, 47, 62
1, 77574, Note_off_c, 9, 36, 100
1, 77574, Note_off_c, 9, 42, 82
1, 77576, Note_on_c, 1, 30, 122
1, 77762, Note_on_c, 9, 42, 70
1, 77762, Note_on_c, 9, 67, 60
1, 77762, Note_on_c, 1, 34, 122
1, 77764, Note_off_c, 9, 67, 60
1, 77766, Note_off_c, 9, 42, 70
1, 77778, Note_off_c, 1, 30, 122
1, 77950, Note_off_c, 1, 34, 122
1, 77958, Note_on_c, 9, 38, 120
1, 77958, Note_on_c, 9, 42, 78
1, 77958, Note_on_c, 9, 47, 60
1, 77958, Note_on_c, 1, 27, 122
1, 77962, Note_off_c, 9, 42, 78
1, 77962, Note_off_c, 9, 38, 120
1, 77962, Note_off_c, 9, 47, 60
1, 78110, Note_off_c, 6, 66, 89
1, 78138, Note_off_c, 5, 63, 80
1, 78150, Note_on_c, 9, 42, 70
1, 78154, Note_off_c, 9, 42, 70
1, 78158, Note_off_c, 1, 27, 122
1, 78160, Note_off_c, 6, 63, 89
1, 78166, Note_off_c, 6, 73, 89
1, 78182, Note_off_c, 6, 51, 89
1, 78302, Note_off_c, 5, 70, 80
1, 78310, Note_off_c, 5, 66, 80
1, 78330, Note_on_c, 5, 65, 80
1, 78334, Note_off_c, 3, 87, 124
1, 78334, Note_on_c, 5, 68, 80
1, 78336, Note_on_c, 3, 94, 124
1, 78342, Note_on_c, 9, 42, 82
1, 78342, Note_on_c, 9, 47, 62
1, 78342, Note_on_c, 9, 36, 100
1, 78342, Note_on_c, 6, 51, 89
1, 78346, Note_off_c, 9, 36, 100
1, 78346, Note_on_c, 9, 67, 60
1, 78346, Note_on_c, 1, 27, 122
1, 78348, Note_on_c, 6, 65, 89
1, 78348, Note_on_c, 6, 68, 89
1, 78350, Note_off_c, 9, 67, 60
1, 78350, Note_off_c, 9, 42, 82
1, 78350, Note_off_c, 9, 47, 62
1, 78352, Note_on_c, 6, 61, 89
1, 78352, Note_on_c, 6, 73, 89
1, 78534, Note_on_c, 9, 42, 70
1, 78534, Note_on_c, 9, 70, 60
1, 78536, Note_off_c, 9, 70, 60
1, 78538, Note_off_c, 9, 42, 70
1, 78726, Note_on_c, 9, 38, 120
1, 78726, Note_on_c, 9, 42, 78
1, 78726, Note_on_c, 9, 47, 60
1, 78728, Note_off_c, 9, 47, 60
1, 78730, Note_off_c, 9, 42, 78
1, 78730, Note_off_c, 9, 38, 120
1, 78804, Note_off_c, 1, 27, 122
1, 78918, Note_on_c, 9, 42, 70
1, 78918, Note_on_c, 9, 70, 60
1, 78918, Note_on_c, 9, 36, 100
1, 78918, Note_on_c, 1, 27, 122
1, 78920, Note_off_c, 9, 70, 60
1, 78922, Note_off_c, 9, 36, 100
1, 78922, Note_off_c, 9, 42, 70
1, 78970, Note_off_c, 1, 27, 122
1, 79014, Note_on_c, 9, 70, 60
1, 79014, Note_on_c, 1, 27, 122
1, 79016, Note_off_c, 9, 70, 60
1, 79054, Note_off_c, 1, 27, 122
1, 79110, Note_on_c, 9, 42, 82
1, 79110, Note_on_c, 9, 36, 100
1, 79110, Note_on_c, 1, 27, 122
1, 79112, Note_off_c, 9, 47, 62
1, 79112, Note_on_c, 9, 47, 62
1, 79114, Note_off_c, 9, 36, 100
1, 79114, Note_off_c, 9, 42, 82
1, 79190, Note_off_c, 1, 27, 122
1, 79298, Note_on_c, 9, 42, 70
1, 79302, Note_off_c, 9, 42, 70
1, 79302, Note_on_c, 1, 27, 122
1, 79304, Note_on_c, 9, 67, 60
1, 79490, Note_on_c, 9, 38, 120
1, 79492, Note_off_c, 9, 38, 120
1, 79494, Note_on_c, 9, 42, 78
1, 79496, Note_off_c, 9, 47, 60
1, 79496, Note_on_c, 9, 47, 60
1, 79498, Note_off_c, 9, 42, 78
1, 79498, Note_off_c, 1, 27, 122
1, 79530, Note_off_c, 6, 65, 89
1, 79534, Note_off_c, 5, 65, 80
1, 79546, Note_off_c, 6, 68, 89
1, 79562, Note_off_c, 6, 61, 89
1, 79566, Note_off_c, 6, 73, 89
1, 79574, Note_off_c, 6, 51, 89
1, 79674, Note_on_c, 5, 63, 80
1, 79674, Note_on_c, 5, 70, 80
1, 79678, Note_off_c, 3, 94, 124
1, 79680, Note_on_c, 3, 87, 124
1, 79682, Note_on_c, 9, 42, 70
1, 79682, Note_on_c, 6, 63, 89
1, 79686, Note_off_c, 9, 42, 70
1, 79686, Note_on_c, 1, 27, 122
1, 79688, Note_on_c, 6, 51, 89
1, 79688, Note_on_c, 6, 68, 89
1, 79688, Note_on_c, 6, 70, 89
1, 79702, Note_off_c, 5, 73, 80
1, 79874, Note_on_c, 9, 42, 82
1, 79874, Note_on_c, 9, 36, 100
1, 79876, Note_off_c, 9, 36, 100
1, 79876, Note_off_c, 9, 42, 82
1, 79878, Note_on_c, 9, 47, 62
1, 79878, Note_on_c, 9, 67, 60
1, 79880, Note_off_c, 9, 67, 60
1, 79882, Note_off_c, 9, 47, 62
1, 80066, Note_on_c, 9, 42, 70
1, 80066, Note_on_c, 9, 70, 60
1, 80068, Note_off_c, 9, 70, 60
1, 80070, Note_off_c, 9, 42, 70
1, 80258, Note_on_c, 9, 38, 120
1, 80258, Note_on_c, 9, 42, 78
1, 80258, Note_on_c, 9, 47, 60
1, 80260, Note_off_c, 9, 47, 60
1, 80262, Note_off_c, 9, 42, 78
1, 80262, Note_off_c, 9, 38, 120
1, 80322, Note_off_c, 1, 27, 122
1, 80454, Note_on_c, 9, 42, 70
1, 80454, Note_on_c, 9, 70, 60
1, 80454, Note_on_c, 9, 36, 100
1, 80454, Note_on_c, 1, 27, 122
1, 80458, Note_off_c, 9, 36, 100
1, 80458, Note_off_c, 9, 42, 70
1, 80458, Note_off_c, 9, 70, 60
1, 80516, Note_off_c, 1, 27, 122
1, 80550, Note_on_c, 9, 70, 60
1, 80550, Note_on_c, 1, 27, 122
1, 80554, Note_off_c, 9, 70, 60
1, 80590, Note_off_c, 1, 27, 122
1, 80646, Note_on_c, 9, 42, 82
1, 80646, Note_on_c, 9, 47, 62
1, 80646, Note_on_c, 9, 36, 100
1, 80646, Note_on_c, 1, 27, 122
1, 80648, Note_off_c, 9, 47, 62
1, 80650, Note_off_c, 9, 36, 100
1, 80650, Note_off_c, 9, 42, 82
1, 80766, Note_off_c, 1, 27, 122
1, 80838, Note_on_c, 9, 42, 70
1, 80838, Note_on_c, 9, 67, 60
1, 80838, Note_on_c, 1, 27, 122
1, 80840, Note_off_c, 9, 67, 60
1, 80842, Note_off_c, 9, 42, 70
1, 80966, Note_off_c, 1, 27, 122
1, 81030, Note_on_c, 9, 38, 120
1, 81030, Note_on_c, 9, 42, 78
1, 81030, Note_on_c, 9, 47, 60
1, 81032, Note_off_c, 9, 47, 60
1, 81034, Note_off_c, 9, 42, 78
1, 81034, Note_off_c, 9, 38, 120
1, 81222, Note_on_c, 9, 42, 70
1, 81224, Note_off_c, 9, 42, 70
1, 81402, Note_on_c, 5, 75, 80
1, 81414, Note_on_c, 9, 42, 82
1, 81414, Note_on_c, 9, 47, 62
1, 81414, Note_on_c, 9, 67, 60
1, 81414, Note_on_c, 9, 36, 100
1, 81416, Note_off_c, 9, 67, 60
1, 81418, Note_off_c, 9, 36, 100
1, 81418, Note_off_c, 9, 42, 82
1, 81418, Note_off_c, 9, 47, 62
1, 81602, Note_on_c, 9, 42, 70
1, 81604, Note_off_c, 9, 42, 70
1, 81606, Note_on_c, 1, 42, 122
1, 81608, Note_off_c, 9, 70, 60
1, 81608, Note_on_c, 9, 70, 60
1, 81674, Note_off_c, 1, 42, 122
1, 81794, Note_on_c, 9, 38, 120
1, 81798, Note_off_c, 9, 38, 120
1, 81798, Note_on_c, 1, 42, 122
1, 81800, Note_off_c, 9, 47, 60
1, 81800, Note_on_c, 9, 42, 78
1, 81800, Note_on_c, 9, 47, 60
1, 81802, Note_off_c, 9, 42, 78
1, 81898, Note_off_c, 1, 42, 122
1, 81986, Note_on_c, 9, 42, 70
1, 81986, Note_on_c, 9, 36, 100
1, 81988, Note_off_c, 9, 42, 70
1, 81990, Note_off_c, 9, 36, 100
1, 81992, Note_on_c, 9, 70, 60
1, 81992, Note_on_c, 1, 37, 122
1, 81994, Note_off_c, 9, 70, 60
1, 82082, Note_on_c, 9, 70, 60
1, 82086, Note_off_c, 9, 70, 60
1, 82086, Note_on_c, 1, 39, 122
1, 82094, Note_off_c, 1, 37, 122
1, 82178, Note_on_c, 9, 42, 82
1, 82178, Note_on_c, 9, 36, 100
1, 82182, Note_off_c, 9, 36, 100
1, 82182, Note_off_c, 9, 42, 82
1, 82184, Note_on_c, 9, 47, 62
1, 82184, Note_on_c, 1, 42, 122
1, 82186, Note_off_c, 9, 47, 62
1, 82198, Note_off_c, 1, 39, 122
1, 82250, Note_off_c, 1, 42, 122
1, 82370, Note_on_c, 9, 42, 70
1, 82370, Note_on_c, 9, 67, 60
1, 82370, Note_on_c, 9, 36, 100
1, 82372, Note_off_c, 9, 67, 60
1, 82374, Note_off_c, 9, 36, 100
1, 82374, Note_off_c, 9, 42, 70
1, 82376, Note_on_c, 1, 37, 122
1, 82466, Note_on_c, 1, 39, 122
1, 82474, Note_off_c, 1, 37, 122
1, 82562, Note_on_c, 9, 38, 120
1, 82562, Note_on_c, 9, 42, 78
1, 82562, Note_on_c, 9, 47, 60
1, 82564, Note_off_c, 9, 47, 60
1, 82566, Note_off_c, 9, 42, 78
1, 82566, Note_off_c, 9, 38, 120
1, 82568, Note_off_c, 1, 39, 122
1, 82568, Note_on_c, 1, 37, 122
1, 82634, Note_off_c, 6, 70, 89
1, 82646, Note_off_c, 6, 68, 89
1, 82646, Note_off_c, 6, 51, 89
1, 82652, Note_off_c, 6, 63, 89
1, 82666, Note_off_c, 5, 70, 80
1, 82692, Note_off_c, 5, 68, 80
1, 82706, Note_off_c, 5, 75, 80
1, 82754, Note_on_c, 9, 42, 70
1, 82754, Note_on_c, 9, 36, 100
1, 82754, Note_on_c, 1, 39, 122
1, 82756, Note_off_c, 9, 36, 100
1, 82758, Note_off_c, 9, 42, 70
1, 82766, Note_off_c, 1, 37, 122
1, 82824, Note_off_c, 1, 39, 122
1, 82938, Note_on_c, 5, 70, 80
1, 82938, Note_on_c, 5, 73, 80
1, 82942, Note_on_c, 5, 66, 80
1, 82950, Note_on_c, 9, 42, 82
1, 82950, Note_on_c, 9, 36, 100
1, 82950, Note_on_c, 6, 51, 89
1, 82954, Note_on_c, 9, 47, 62
1, 82954, Note_on_c, 9, 51, 55
1, 82954, Note_on_c, 9, 67, 60
1, 82956, Note_on_c, 6, 66, 89
1, 82956, Note_on_c, 6, 73, 89
1, 82958, Note_off_c, 9, 51, 55
1, 82958, Note_off_c, 9, 36, 100
1, 82958, Note_off_c, 9, 42, 82
1, 82958, Note_off_c, 9, 47, 62
1, 82958, Note_off_c, 9, 67, 60
1, 82960, Note_on_c, 1, 27, 122
1, 82962, Note_on_c, 6, 63, 89
1, 82962, Note_on_c, 6, 70, 89
1, 83142, Note_on_c, 9, 42, 70
1, 83142, Note_on_c, 9, 70, 60
1, 83146, Note_off_c, 9, 42, 70
1, 83146, Note_off_c, 9, 70, 60
1, 83334, Note_on_c, 9, 38, 120
1, 83334, Note_on_c, 9, 42, 78
1, 83334, Note_on_c, 9, 47, 60
1, 83336, Note_off_c, 9, 47, 60
1, 83338, Note_off_c, 9, 42, 78
1, 83338, Note_off_c, 9, 38, 120
1, 83470, Note_off_c, 1, 27, 122
1, 83526, Note_on_c, 9, 42, 70
1, 83526, Note_on_c, 9, 70, 60
1, 83526, Note_on_c, 1, 27, 122
1, 83528, Note_off_c, 9, 70, 60
1, 83530, Note_off_c, 9, 42, 70
1, 83578, Note_off_c, 1, 27, 122
1, 83622, Note_on_c, 9, 70, 60
1, 83622, Note_on_c, 9, 36, 100
1, 83622, Note_on_c, 1, 27, 122
1, 83624, Note_off_c, 9, 70, 60
1, 83626, Note_off_c, 9, 36, 100
1, 83706, Note_off_c, 1, 27, 122
1, 83718, Note_on_c, 9, 42, 82
1, 83718, Note_on_c, 9, 47, 62
1, 83718, Note_on_c, 9, 36, 100
1, 83720, Note_off_c, 9, 47, 62
1, 83722, Note_off_c, 9, 36, 100
1, 83722, Note_off_c, 9, 42, 82
1, 83908, Note_on_c, 1, 27, 122
1, 83910, Note_on_c, 9, 42, 70
1, 83910, Note_on_c, 9, 36, 100
1, 83912, Note_off_c, 9, 67, 60
1, 83912, Note_on_c, 9, 67, 60
1, 83914, Note_off_c, 9, 36, 100
1, 83914, Note_off_c, 9, 42, 70
1, 84038, Note_off_c, 1, 27, 122
1, 84100, Note_on_c, 9, 38, 120
1, 84102, Note_on_c, 9, 42, 78
1, 84102, Note_on_c, 9, 47, 60
1, 84106, Note_off_c, 9, 42, 78
1, 84106, Note_off_c, 9, 38, 120
1, 84106, Note_off_c, 9, 47, 60
1, 84218, Note_off_c, 5, 63, 80
1, 84262, Note_off_c, 6, 66, 89
1, 84294, Note_off_c, 6, 63, 89
1, 84294, Note_on_c, 9, 42, 70
1, 84296, Note_on_c, 9, 36, 100
1, 84298, Note_off_c, 9, 42, 70
1, 84300, Note_off_c, 6, 51, 89
1, 84304, Note_off_c, 6, 70, 89
1, 84304, Note_off_c, 6, 73, 89
1, 84458, Note_off_c, 5, 70, 80
1, 84460, Note_off_c, 5, 66, 80
1, 84474, Note_on_c, 5, 65, 80
1, 84474, Note_on_c, 5, 68, 80
1, 84478, Note_off_c, 3, 87, 124
1, 84480, Note_on_c, 3, 94, 124
1, 84482, Note_on_c, 9, 36, 100
1, 84484, Note_on_c, 9, 42, 82
1, 84484, Note_on_c, 9, 51, 55
1, 84486, Note_on_c, 9, 47, 62
1, 84486, Note_on_c, 6, 65, 89
1, 84486, Note_on_c, 6, 68, 89
1, 84488, Note_off_c, 9, 36, 100
1, 84490, Note_on_c, 9, 67, 60
1, 84490, Note_on_c, 1, 27, 122
1, 84490, Note_on_c, 6, 61, 89
1, 84492, Note_off_c, 9, 47, 62
1, 84492, Note_off_c, 9, 67, 60
1, 84492, Note_on_c, 6, 51, 89
1, 84494, Note_off_c, 9, 51, 55
1, 84494, Note_off_c, 9, 42, 82
1, 84496, Note_on_c, 6, 73, 89
1, 84674, Note_on_c, 9, 42, 70
1, 84676, Note_off_c, 9, 42, 70
1, 84678, Note_on_c, 9, 70, 60
1, 84682, Note_off_c, 9, 70, 60
1, 84866, Note_on_c, 9, 38, 120
1, 84866, Note_on_c, 9, 42, 78
1, 84868, Note_off_c, 9, 42, 78
1, 84870, Note_off_c, 9, 38, 120
1, 84870, Note_on_c, 9, 47, 60
1, 84874, Note_off_c, 9, 47, 60
1, 84988, Note_off_c, 1, 27, 122
1, 85058, Note_on_c, 9, 42, 70
1, 85058, Note_on_c, 9, 70, 60
1, 85060, Note_off_c, 9, 70, 60
1, 85062, Note_off_c, 9, 42, 70
1, 85062, Note_on_c, 1, 27, 122
1, 85116, Note_off_c, 1, 27, 122
1, 85154, Note_on_c, 9, 70, 60
1, 85154, Note_on_c, 9, 36, 100
1, 85158, Note_off_c, 9, 70, 60
1, 85158, Note_off_c, 9, 36, 100
1, 85158, Note_on_c, 1, 27, 122
1, 85238, Note_off_c, 1, 27, 122
1, 85250, Note_on_c, 9, 42, 82
1, 85250, Note_on_c, 9, 47, 62
1, 85250, Note_on_c, 9, 36, 100
1, 85252, Note_off_c, 9, 47, 62
1, 85254, Note_off_c, 9, 42, 82
1, 85254, Note_off_c, 9, 36, 100
1, 85442, Note_on_c, 9, 42, 70
1, 85442, Note_on_c, 9, 67, 60
1, 85442, Note_on_c, 9, 36, 100
1, 85446, Note_off_c, 9, 42, 70
1, 85446, Note_off_c, 9, 36, 100
1, 85446, Note_off_c, 9, 67, 60
1, 85448, Note_on_c, 1, 27, 122
1, 85532, Note_off_c, 1, 27, 122
1, 85638, Note_on_c, 9, 38, 120
1, 85638, Note_on_c, 9, 42, 78
1, 85638, Note_on_c, 9, 47, 60
1, 85638, Note_on_c, 1, 30, 122
1, 85640, Note_off_c, 9, 47, 60
1, 85642, Note_off_c, 9, 42, 78
1, 85642, Note_off_c, 9, 38, 120
1, 85790, Note_off_c, 6, 65, 89
1, 85822, Note_off_c, 6, 61, 89
1, 85830, Note_off_c, 6, 51, 89
1, 85830, Note_on_c, 9, 38, 120
1, 85830, Note_on_c, 9, 42, 70
1, 85832, Note_off_c, 9, 38, 120
1, 85834, Note_off_c, 9, 42, 70
1, 85836, Note_on_c, 1, 31, 122
1, 85838, Note_off_c, 6, 68, 89
1, 85850, Note_off_c, 1, 30, 122
1, 85854, Note_off_c, 5, 65, 80
1, 85878, Note_off_c, 6, 73, 89
1, 85886, Note_off_c, 3, 94, 124
1, 85926, Note_on_c, 9, 38, 120
1, 85928, Note_off_c, 9, 38, 120
1, 85958, Note_off_c, 1, 31, 122
1, 86010, Note_on_c, 5, 63, 80
1, 86010, Note_on_c, 5, 66, 80
1, 86010, Note_on_c, 5, 71, 80
1, 86014, Note_off_c, 5, 68, 80
1, 86016, Note_on_c, 3, 63, 124
1, 86016, Note_on_c, 3, 75, 124
1, 86020, Note_on_c, 9, 42, 82
1, 86020, Note_on_c, 9, 36, 100
1, 86022, Note_on_c, 9, 51, 55
1, 86022, Note_on_c, 6, 71, 89
1, 86024, Note_on_c, 1, 32, 122
1, 86026, Note_on_c, 9, 47, 62
1, 86026, Note_on_c, 9, 67, 60
1, 86026, Note_on_c, 6, 63, 89
1, 86026, Note_on_c, 6, 73, 89
1, 86028, Note_off_c, 9, 47, 62
1, 86028, Note_off_c, 9, 67, 60
1, 86030, Note_off_c, 9, 51, 55
1, 86030, Note_off_c, 9, 42, 82
1, 86030, Note_off_c, 9, 36, 100
1, 86032, Note_on_c, 6, 66, 89
1, 86034, Note_on_c, 6, 56, 89
1, 86214, Note_on_c, 9, 42, 70
1, 86214, Note_on_c, 9, 70, 60
1, 86216, Note_off_c, 9, 70, 60
1, 86218, Note_off_c, 9, 42, 70
1, 86406, Note_on_c, 9, 38, 120
1, 86406, Note_on_c, 9, 42, 78
1, 86406, Note_on_c, 9, 47, 60
1, 86408, Note_off_c, 9, 47, 60
1, 86410, Note_off_c, 9, 42, 78
1, 86410, Note_off_c, 9, 38, 120
1, 86440, Note_off_c, 1, 32, 122
1, 86552, Note_off_c, 3, 75, 124
1, 86568, Note_off_c, 3, 63, 124
1, 86592, Note_on_c, 3, 77, 124
1, 86592, Note_on_c, 3, 65, 124
1, 86598, Note_on_c, 9, 42, 70
1, 86598, Note_on_c, 9, 70, 60
1, 86602, Note_off_c, 9, 42, 70
1, 86602, Note_off_c, 9, 70, 60
1, 86694, Note_on_c, 9, 70, 60
1, 86694, Note_on_c, 1, 35, 122
1, 86698, Note_off_c, 9, 70, 60
1, 86762, Note_off_c, 1, 35, 122
1, 86782, Note_off_c, 3, 65, 124
1, 86782, Note_off_c, 3, 77, 124
1, 86784, Note_on_c, 3, 66, 124
1, 86784, Note_on_c, 3, 78, 124
1, 86790, Note_on_c, 9, 42, 82
1, 86790, Note_on_c, 9, 36, 100
1, 86790, Note_on_c, 1, 37, 122
1, 86792, Note_on_c, 9, 47, 62
1, 86794, Note_off_c, 9, 42, 82
1, 86794, Note_off_c, 9, 47, 62
1, 86794, Note_off_c, 9, 36, 100
1, 86846, Note_off_c, 1, 37, 122
1, 86886, Note_on_c, 1, 37, 122
1, 86978, Note_on_c, 9, 42, 70
1, 86980, Note_off_c, 9, 42, 70
1, 86982, Note_on_c, 9, 36, 100
1, 86982, Note_on_c, 1, 35, 122
1, 86984, Note_on_c, 9, 67, 60
1, 86986, Note_off_c, 9, 36, 100
1, 86986, Note_off_c, 9, 67, 60
1, 86990, Note_off_c, 1, 37, 122
1, 87074, Note_on_c, 1, 32, 122
1, 87084, Note_off_c, 1, 35, 122
1, 87154, Note_off_c, 1, 32, 122
1, 87170, Note_on_c, 9, 38, 120
1, 87172, Note_off_c, 9, 38, 120
1, 87174, Note_on_c, 9, 42, 78
1, 87174, Note_on_c, 1, 37, 122
1, 87176, Note_on_c, 9, 47, 60
1, 87178, Note_off_c, 9, 42, 78
1, 87178, Note_off_c, 9, 47, 60
1, 87324, Note_off_c, 5, 66, 80
1, 87334, Note_off_c, 6, 66, 89
1, 87338, Note_off_c, 5, 71, 80
1, 87342, Note_off_c, 6, 73, 89
1, 87352, Note_off_c, 6, 63, 89
1, 87354, Note_off_c, 6, 71, 89
1, 87362, Note_on_c, 9, 42, 70
1, 87364, Note_off_c, 9, 42, 70
1, 87388, Note_off_c, 3, 66, 124
1, 87402, Note_off_c, 1, 37, 122
1, 87536, Note_off_c, 3, 78, 124
1, 87546, Note_on_c, 5, 65, 80
1, 87546, Note_on_c, 5, 68, 80
1, 87546, Note_on_c, 5, 70, 80
1, 87552, Note_on_c, 3, 80, 124
1, 87552, Note_on_c, 3, 68, 124
1, 87554, Note_on_c, 9, 36, 100
1, 87556, Note_on_c, 9, 42, 82
1, 87558, Note_on_c, 9, 47, 62
1, 87558, Note_on_c, 9, 51, 55
1, 87558, Note_on_c, 6, 65, 89
1, 87560, Note_off_c, 9, 36, 100
1, 87560, Note_on_c, 6, 58, 89
1, 87562, Note_on_c, 9, 67, 60
1, 87562, Note_on_c, 1, 34, 122
1, 87562, Note_on_c, 6, 70, 89
1, 87564, Note_off_c, 9, 67, 60
1, 87564, Note_on_c, 6, 63, 89
1, 87566, Note_off_c, 9, 51, 55
1, 87566, Note_off_c, 9, 42, 82
1, 87566, Note_off_c, 9, 47, 62
1, 87568, Note_on_c, 6, 68, 89
1, 87568, Note_on_c, 6, 73, 89
1, 87574, Note_off_c, 6, 56, 89
1, 87750, Note_on_c, 9, 42, 70
1, 87750, Note_on_c, 9, 70, 60
1, 87754, Note_off_c, 9, 42, 70
1, 87754, Note_off_c, 9, 70, 60
1, 87942, Note_on_c, 9, 38, 120
1, 87942, Note_on_c, 9, 42, 78
1, 87942, Note_on_c, 9, 47, 60
1, 87944, Note_off_c, 9, 47, 60
1, 87946, Note_off_c, 9, 42, 78
1, 87946, Note_off_c, 9, 38, 120
1, 87978, Note_off_c, 1, 34, 122
1, 88030, Note_off_c, 3, 68, 124
1, 88030, Note_off_c, 3, 80, 124
1, 88032, Note_on_c, 3, 68, 124
1, 88046, Note_off_c, 3, 68, 124
1, 88128, Note_on_c, 3, 85, 124
1, 88130, Note_on_c, 9, 42, 70
1, 88134, Note_off_c, 9, 42, 70
1, 88134, Note_on_c, 9, 70, 60
1, 88138, Note_off_c, 9, 70, 60
1, 88226, Note_on_c, 9, 70, 60
1, 88228, Note_off_c, 9, 70, 60
1, 88230, Note_on_c, 1, 31, 122
1, 88230, Note_on_c, 1, 34, 122
1, 88266, Note_off_c, 1, 31, 122
1, 88292, Note_off_c, 1, 34, 122
1, 88318, Note_off_c, 3, 85, 124
1, 88320, Note_on_c, 3, 73, 124
1, 88320, Note_on_c, 3, 89, 124
1, 88322, Note_on_c, 9, 42, 82
1, 88322, Note_on_c, 9, 36, 100
1, 88324, Note_off_c, 9, 36, 100
1, 88326, Note_off_c, 9, 42, 82
1, 88326, Note_on_c, 1, 25, 122
1, 88328, Note_off_c, 9, 47, 62
1, 88328, Note_on_c, 9, 47, 62
1, 88514, Note_on_c, 9, 42, 70
1, 88514, Note_on_c, 9, 36, 100
1, 88516, Note_off_c, 9, 36, 100
1, 88518, Note_off_c, 9, 42, 70
1, 88520, Note_off_c, 9, 67, 60
1, 88520, Note_on_c, 9, 67, 60
1, 88520, Note_on_c, 1, 29, 122
1, 88524, Note_off_c, 1, 25, 122
1, 88706, Note_on_c, 9, 38, 120
1, 88706, Note_on_c, 9, 42, 78
1, 88706, Note_on_c, 9, 47, 60
1, 88710, Note_off_c, 9, 42, 78
1, 88710, Note_off_c, 9, 38, 120
1, 88710, Note_off_c, 9, 47, 60
1, 88712, Note_on_c, 1, 25, 122
1, 88714, Note_off_c, 1, 29, 122
1, 88806, Note_off_c, 6, 73, 89
1, 88814, Note_off_c, 6, 70, 89
1, 88816, Note_off_c, 3, 73, 124
1, 88826, Note_off_c, 6, 58, 89
1, 88834, Note_off_c, 6, 65, 89
1, 88842, Note_off_c, 6, 63, 89
1, 88846, Note_off_c, 6, 68, 89
1, 88848, Note_off_c, 3, 89, 124
1, 88894, Note_off_c, 1, 25, 122
1, 88898, Note_on_c, 9, 42, 70
1, 88898, Note_on_c, 1, 29, 122
1, 88900, Note_off_c, 9, 42, 70
1, 88954, Note_off_c, 5, 65, 80
1, 88954, Note_off_c, 5, 63, 80
1, 88980, Note_off_c, 5, 68, 80
1, 89030, Note_off_c, 1, 29, 122
1, 89034, Note_off_c, 5, 70, 80
1, 89058, Note_off_c, 5, 73, 80
1, 89078, Note_on_c, 5, 65, 80
1, 89082, Note_on_c, 5, 61, 80
1, 89082, Note_on_c, 5, 68, 80
1, 89088, Note_on_c, 3, 68, 124
1, 89088, Note_on_c, 3, 80, 124
1, 89090, Note_on_c, 9, 36, 100
1, 89092, Note_on_c, 9, 42, 82
1, 89092, Note_on_c, 9, 51, 55
1, 89094, Note_on_c, 9, 47, 62
1, 89094, Note_on_c, 9, 67, 60
1, 89094, Note_on_c, 6, 53, 89
1, 89094, Note_on_c, 6, 68, 89
1, 89096, Note_off_c, 9, 42, 82
1, 89098, Note_off_c, 9, 36, 100
1, 89098, Note_on_c, 1, 29, 122
1, 89098, Note_on_c, 6, 61, 89
1, 89098, Note_on_c, 6, 65, 89
1, 89100, Note_off_c, 9, 47, 62
1, 89100, Note_off_c, 9, 67, 60
1, 89102, Note_off_c, 9, 51, 55
1, 89282, Note_on_c, 9, 42, 70
1, 89282, Note_on_c, 9, 70, 60
1, 89284, Note_off_c, 9, 70, 60
1, 89286, Note_off_c, 9, 42, 70
1, 89396, Note_off_c, 1, 29, 122
1, 89474, Note_on_c, 9, 38, 120
1, 89474, Note_on_c, 9, 42, 78
1, 89474, Note_on_c, 1, 29, 122
1, 89476, Note_off_c, 9, 47, 60
1, 89476, Note_on_c, 9, 47, 60
1, 89478, Note_off_c, 9, 42, 78
1, 89478, Note_off_c, 9, 38, 120
1, 89516, Note_off_c, 5, 65, 80
1, 89550, Note_off_c, 6, 65, 89
1, 89598, Note_off_c, 6, 53, 89
1, 89614, Note_off_c, 6, 61, 89
1, 89622, Note_off_c, 1, 29, 122
1, 89630, Note_off_c, 3, 80, 124
1, 89636, Note_off_c, 3, 68, 124
1, 89646, Note_off_c, 6, 68, 89
1, 89658, Note_on_c, 5, 66, 80
1, 89658, Note_on_c, 5, 70, 80
1, 89664, Note_on_c, 3, 73, 124
1, 89664, Note_on_c, 3, 85, 124
1, 89670, Note_on_c, 9, 42, 70
1, 89670, Note_on_c, 9, 51, 55
1, 89670, Note_on_c, 9, 36, 100
1, 89670, Note_on_c, 6, 70, 89
1, 89674, Note_on_c, 9, 70, 60
1, 89674, Note_on_c, 1, 30, 122
1, 89674, Note_on_c, 6, 66, 89
1, 89676, Note_on_c, 6, 54, 89
1, 89676, Note_on_c, 6, 61, 89
1, 89678, Note_off_c, 9, 51, 55
1, 89678, Note_off_c, 9, 42, 70
1, 89678, Note_off_c, 9, 70, 60
1, 89678, Note_off_c, 9, 36, 100
1, 89684, Note_off_c, 5, 68, 80
1, 89744, Note_off_c, 3, 85, 124
1, 89744, Note_off_c, 3, 73, 124
1, 89766, Note_on_c, 9, 70, 60
1, 89770, Note_off_c, 9, 70, 60
1, 89804, Note_off_c, 1, 30, 122
1, 89856, Note_on_c, 3, 75, 124
1, 89856, Note_on_c, 3, 87, 124
1, 89860, Note_on_c, 9, 42, 82
1, 89862, Note_on_c, 9, 47, 62
1, 89864, Note_off_c, 9, 47, 62
1, 89866, Note_off_c, 9, 42, 82
1, 90054, Note_on_c, 9, 42, 70
1, 90054, Note_on_c, 9, 67, 60
1, 90054, Note_on_c, 1, 30, 122
1, 90058, Note_off_c, 9, 42, 70
1, 90058, Note_off_c, 9, 67, 60
1, 90212, Note_off_c, 1, 30, 122
1, 90218, Note_off_c, 6, 70, 89
1, 90230, Note_off_c, 6, 61, 89
1, 90246, Note_on_c, 9, 38, 120
1, 90246, Note_on_c, 9, 42, 78
1, 90246, Note_on_c, 9, 47, 60
1, 90250, Note_off_c, 9, 42, 78
1, 90250, Note_off_c, 9, 38, 120
1, 90250, Note_off_c, 9, 47, 60
1, 90252, Note_off_c, 6, 66, 89
1, 90266, Note_off_c, 6, 54, 89
1, 90316, Note_off_c, 5, 61, 80
1, 90356, Note_off_c, 3, 75, 124
1, 90380, Note_off_c, 3, 87, 124
1, 90426, Note_on_c, 5, 63, 80
1, 90430, Note_on_c, 5, 71, 80
1, 90432, Note_on_c, 3, 92, 124
1, 90432, Note_on_c, 3, 75, 124
1, 90432, Note_on_c, 3, 68, 124
1, 90432, Note_on_c, 3, 80, 124
1, 90436, Note_on_c, 9, 42, 70
1, 90438, Note_on_c, 9, 51, 55
1, 90438, Note_on_c, 9, 36, 100
1, 90438, Note_on_c, 6, 66, 89
1, 90440, Note_on_c, 6, 63, 89
1, 90442, Note_off_c, 9, 51, 55
1, 90442, Note_off_c, 9, 42, 70
1, 90442, Note_on_c, 1, 32, 122
1, 90442, Note_on_c, 6, 71, 89
1, 90444, Note_off_c, 9, 36, 100
1, 90444, Note_on_c, 6, 56, 89
1, 90446, Note_off_c, 5, 70, 80
1, 90630, Note_on_c, 9, 42, 82
1, 90630, Note_on_c, 9, 47, 62
1, 90630, Note_on_c, 9, 67, 60
1, 90630, Note_on_c, 9, 36, 100
1, 90632, Note_off_c, 9, 67, 60
1, 90634, Note_off_c, 9, 42, 82
1, 90634, Note_off_c, 9, 36, 100
1, 90634, Note_off_c, 9, 47, 62
1, 90822, Note_on_c, 9, 42, 70
1, 90822, Note_on_c, 9, 70, 60
1, 90822, Note_on_c, 9, 36, 100
1, 90824, Note_off_c, 9, 70, 60
1, 90826, Note_off_c, 9, 42, 70
1, 90826, Note_off_c, 9, 36, 100
1, 91010, Note_on_c, 9, 38, 120
1, 91010, Note_on_c, 9, 42, 78
1, 91014, Note_off_c, 9, 42, 78
1, 91014, Note_off_c, 9, 38, 120
1, 91014, Note_on_c, 9, 47, 60
1, 91018, Note_off_c, 9, 47, 60
1, 91202, Note_on_c, 9, 42, 70
1, 91202, Note_on_c, 9, 70, 60
1, 91206, Note_off_c, 9, 42, 70
1, 91206, Note_off_c, 9, 70, 60
1, 91214, Note_off_c, 1, 32, 122
1, 91298, Note_on_c, 9, 70, 60
1, 91302, Note_off_c, 9, 70, 60
1, 91394, Note_on_c, 9, 42, 82
1, 91394, Note_on_c, 9, 47, 62
1, 91394, Note_on_c, 9, 36, 100
1, 91398, Note_off_c, 9, 42, 82
1, 91398, Note_off_c, 9, 47, 62
1, 91398, Note_off_c, 9, 36, 100
1, 91586, Note_on_c, 9, 38, 110
1, 91586, Note_on_c, 9, 42, 70
1, 91586, Note_on_c, 9, 36, 100
1, 91588, Note_off_c, 9, 38, 110
1, 91590, Note_off_c, 9, 42, 70
1, 91590, Note_off_c, 9, 36, 100
1, 91592, Note_on_c, 9, 67, 60
1, 91592, Note_on_c, 1, 47, 122
1, 91594, Note_off_c, 9, 67, 60
1, 91650, Note_on_c, 9, 38, 100
1, 91652, Note_off_c, 9, 38, 100
1, 91682, Note_on_c, 1, 44, 122
1, 91692, Note_off_c, 1, 47, 122
1, 91714, Note_on_c, 9, 38, 100
1, 91716, Note_off_c, 9, 38, 100
1, 91778, Note_on_c, 9, 38, 120
1, 91778, Note_on_c, 9, 42, 78
1, 91778, Note_on_c, 9, 47, 60
1, 91780, Note_off_c, 9, 47, 60
1, 91782, Note_off_c, 9, 42, 78
1, 91782, Note_off_c, 9, 38, 120
1, 91784, Note_on_c, 1, 42, 122
1, 91786, Note_off_c, 1, 44, 122
1, 91902, Note_off_c, 3, 80, 124
1, 91902, Note_off_c, 3, 75, 124
1, 91906, Note_off_c, 1, 42, 122
1, 91910, Note_off_c, 3, 68, 124
1, 91930, Note_off_c, 3, 92, 124
1, 91970, Note_on_c, 9, 38, 120
1, 91970, Note_on_c, 9, 42, 70
1, 91970, Note_on_c, 1, 44, 122
1, 91972, Note_off_c, 9, 38, 120
1, 91974, Note_off_c, 9, 42, 70
1, 92066, Note_on_c, 9, 38, 120
1, 92068, Note_off_c, 9, 38, 120
1, 92114, Note_off_c, 1, 44, 122
1, 92160, Note_on_c, 3, 59, 124
1, 92160, Note_on_c, 3, 75, 124
1, 92164, Note_on_c, 9, 36, 100
1, 92166, Note_on_c, 9, 42, 82
1, 92166, Note_on_c, 9, 47, 62
1, 92166, Note_on_c, 9, 51, 55
1, 92168, Note_off_c, 9, 47, 62
1, 92170, Note_off_c, 9, 51, 55
1, 92170, Note_off_c, 9, 42, 82
1, 92170, Note_off_c, 9, 36, 100
1, 92172, Note_off_c, 9, 67, 60
1, 92172, Note_on_c, 9, 67, 60
1, 92172, Note_on_c, 1, 32, 122
1, 92358, Note_on_c, 9, 42, 70
1, 92358, Note_on_c, 9, 70, 60
1, 92362, Note_off_c, 9, 42, 70
1, 92362, Note_off_c, 9, 70, 60
1, 92550, Note_on_c, 9, 38, 120
1, 92550, Note_on_c, 9, 42, 78
1, 92550, Note_on_c, 9, 47, 60
1, 92554, Note_off_c, 9, 42, 78
1, 92554, Note_off_c, 9, 38, 120
1, 92554, Note_off_c, 9, 47, 60
1, 92604, Note_off_c, 1, 32, 122
1, 92708, Note_off_c, 3, 59, 124
1, 92710, Note_off_c, 3, 75, 124
1, 92736, Note_on_c, 3, 61, 124
1, 92736, Note_on_c, 3, 77, 124
1, 92742, Note_on_c, 9, 42, 70
1, 92742, Note_on_c, 9, 70, 60
1, 92742, Note_on_c, 1, 32, 122
1, 92744, Note_off_c, 9, 70, 60
1, 92746, Note_off_c, 9, 42, 70
1, 92828, Note_off_c, 1, 32, 122
1, 92836, Note_on_c, 1, 35, 122
1, 92838, Note_on_c, 9, 70, 60
1, 92840, Note_off_c, 9, 70, 60
1, 92918, Note_off_c, 1, 35, 122
1, 92926, Note_off_c, 3, 77, 124
1, 92926, Note_off_c, 3, 61, 124
1, 92928, Note_on_c, 3, 63, 124
1, 92928, Note_on_c, 3, 78, 124
1, 92934, Note_on_c, 9, 42, 82
1, 92934, Note_on_c, 9, 47, 62
1, 92934, Note_on_c, 9, 36, 100
1, 92936, Note_off_c, 9, 47, 62
1, 92938, Note_off_c, 9, 42, 82
1, 92938, Note_off_c, 9, 36, 100
1, 92940, Note_on_c, 1, 37, 122
1, 92978, Note_off_c, 1, 37, 122
1, 93030, Note_on_c, 1, 37, 122
1, 93126, Note_on_c, 9, 42, 70
1, 93126, Note_on_c, 9, 67, 60
1, 93126, Note_on_c, 9, 36, 100
1, 93126, Note_on_c, 1, 35, 122
1, 93128, Note_off_c, 9, 67, 60
1, 93130, Note_off_c, 9, 42, 70
1, 93130, Note_off_c, 9, 36, 100
1, 93132, Note_off_c, 1, 37, 122
1, 93222, Note_off_c, 1, 35, 122
1, 93222, Note_on_c, 1, 32, 122
1, 93318, Note_off_c, 1, 32, 122
1, 93318, Note_on_c, 1, 37, 122
1, 93320, Note_off_c, 9, 47, 60
1, 93320, Note_on_c, 9, 38, 120
1, 93320, Note_on_c, 9, 42, 78
1, 93320, Note_on_c, 9, 47, 60
1, 93322, Note_off_c, 9, 42, 78
1, 93322, Note_off_c, 9, 38, 120
1, 93474, Note_off_c, 6, 56, 89
1, 93478, Note_off_c, 6, 71, 89
1, 93480, Note_off_c, 6, 63, 89
1, 93480, Note_off_c, 6, 66, 89
1, 93484, Note_off_c, 3, 63, 124
1, 93502, Note_off_c, 5, 63, 80
1, 93508, Note_off_c, 3, 78, 124
1, 93510, Note_on_c, 9, 42, 70
1, 93510, Note_on_c, 9, 36, 100
1, 93514, Note_off_c, 9, 42, 70
1, 93514, Note_off_c, 1, 37, 122
1, 93514, Note_off_c, 9, 36, 100
1, 93630, Note_off_c, 5, 71, 80
1, 93690, Note_on_c, 5, 65, 80
1, 93690, Note_on_c, 5, 68, 80
1, 93690, Note_on_c, 5, 73, 80
1, 93696, Note_on_c, 3, 80, 124
1, 93696, Note_on_c, 3, 65, 124
1, 93700, Note_on_c, 9, 42, 82
1, 93700, Note_on_c, 9, 36, 100
1, 93702, Note_on_c, 9, 47, 62
1, 93702, Note_on_c, 9, 51, 55
1, 93702, Note_on_c, 6, 58, 89
1, 93702, Note_on_c, 6, 68, 89
1, 93704, Note_off_c, 9, 36, 100
1, 93706, Note_on_c, 9, 67, 60
1, 93706, Note_on_c, 1, 34, 122
1, 93706, Note_on_c, 6, 73, 89
1, 93708, Note_off_c, 9, 47, 62
1, 93708, Note_off_c, 9, 67, 60
1, 93708, Note_on_c, 6, 65, 89
1, 93710, Note_off_c, 9, 51, 55
1, 93710, Note_off_c, 9, 42, 82
1, 93712, Note_off_c, 5, 66, 80
1, 93890, Note_on_c, 9, 42, 70
1, 93890, Note_on_c, 9, 70, 60
1, 93892, Note_off_c, 9, 70, 60
1, 93894, Note_off_c, 9, 42, 70
1, 94082, Note_on_c, 9, 38, 120
1, 94082, Note_on_c, 9, 42, 78
1, 94082, Note_on_c, 9, 47, 60
1, 94084, Note_off_c, 9, 47, 60
1, 94086, Note_off_c, 9, 42, 78
1, 94086, Note_off_c, 9, 38, 120
1, 94094, Note_off_c, 1, 34, 122
1, 94240, Note_off_c, 3, 80, 124
1, 94260, Note_off_c, 3, 65, 124
1, 94272, Note_on_c, 3, 68, 124
1, 94272, Note_on_c, 3, 85, 124
1, 94274, Note_on_c, 9, 42, 70
1, 94274, Note_on_c, 9, 70, 60
1, 94276, Note_off_c, 9, 70, 60
1, 94278, Note_off_c, 9, 42, 70
1, 94280, Note_on_c, 1, 29, 122
1, 94310, Note_off_c, 1, 29, 122
1, 94370, Note_on_c, 9, 70, 60
1, 94370, Note_on_c, 1, 29, 122
1, 94372, Note_off_c, 9, 70, 60
1, 94450, Note_off_c, 1, 29, 122
1, 94462, Note_off_c, 3, 85, 124
1, 94462, Note_off_c, 3, 68, 124
1, 94464, Note_on_c, 3, 73, 124
1, 94464, Note_on_c, 3, 89, 124
1, 94470, Note_on_c, 9, 42, 82
1, 94470, Note_on_c, 9, 47, 62
1, 94470, Note_on_c, 9, 36, 100
1, 94474, Note_off_c, 9, 42, 82
1, 94474, Note_off_c, 9, 47, 62
1, 94474, Note_off_c, 9, 36, 100
1, 94476, Note_on_c, 1, 25, 122
1, 94650, Note_off_c, 1, 25, 122
1, 94658, Note_on_c, 9, 42, 70
1, 94658, Note_on_c, 9, 67, 60
1, 94658, Note_on_c, 9, 36, 100
1, 94662, Note_off_c, 9, 42, 70
1, 94662, Note_off_c, 9, 36, 100
1, 94662, Note_off_c, 9, 67, 60
1, 94664, Note_on_c, 1, 29, 122
1, 94838, Note_off_c, 1, 29, 122
1, 94850, Note_on_c, 9, 38, 120
1, 94850, Note_on_c, 9, 42, 78
1, 94850, Note_on_c, 9, 47, 60
1, 94852, Note_off_c, 9, 47, 60
1, 94854, Note_off_c, 9, 42, 78
1, 94854, Note_off_c, 9, 38, 120
1, 94856, Note_on_c, 1, 25, 122
1, 94952, Note_off_c, 3, 73, 124
1, 94986, Note_off_c, 3, 89, 124
1, 95006, Note_off_c, 6, 73, 89
1, 95012, Note_off_c, 6, 65, 89
1, 95022, Note_off_c, 6, 68, 89
1, 95046, Note_on_c, 9, 42, 70
1, 95046, Note_on_c, 9, 36, 100
1, 95046, Note_on_c, 1, 29, 122
1, 95050, Note_off_c, 9, 42, 70
1, 95050, Note_off_c, 9, 36, 100
1, 95052, Note_off_c, 1, 25, 122
1, 95054, Note_off_c, 6, 58, 89
1, 95066, Note_off_c, 5, 65, 80
1, 95068, Note_off_c, 5, 68, 80
1, 95180, Note_off_c, 5, 73, 80
1, 95204, Note_off_c, 1, 29, 122
1, 95226, Note_on_c, 5, 65, 80
1, 95226, Note_on_c, 5, 68, 80
1, 95230, Note_on_c, 5, 61, 80
1, 95232, Note_on_c, 3, 68, 124
1, 95232, Note_on_c, 3, 80, 124
1, 95236, Note_on_c, 9, 36, 100
1, 95238, Note_on_c, 9, 42, 82
1, 95238, Note_on_c, 6, 53, 89
1, 95242, Note_on_c, 9, 47, 62
1, 95242, Note_on_c, 9, 51, 55
1, 95242, Note_on_c, 9, 67, 60
1, 95242, Note_on_c, 6, 65, 89
1, 95244, Note_off_c, 9, 67, 60
1, 95244, Note_on_c, 6, 61, 89
1, 95246, Note_off_c, 9, 51, 55
1, 95246, Note_off_c, 9, 42, 82
1, 95246, Note_off_c, 9, 47, 62
1, 95248, Note_off_c, 9, 36, 100
1, 95248, Note_on_c, 1, 29, 122
1, 95250, Note_on_c, 6, 68, 89
1, 95326, Note_off_c, 3, 80, 124
1, 95330, Note_off_c, 3, 68, 124
1, 95424, Note_on_c, 3, 68, 124
1, 95424, Note_on_c, 3, 80, 124
1, 95428, Note_on_c, 9, 42, 70
1, 95430, Note_on_c, 9, 70, 60
1, 95432, Note_off_c, 9, 70, 60
1, 95434, Note_off_c, 9, 42, 70
1, 95502, Note_off_c, 3, 80, 124
1, 95518, Note_off_c, 3, 68, 124
1, 95520, Note_on_c, 3, 85, 124
1, 95520, Note_on_c, 3, 73, 124
1, 95542, Note_off_c, 1, 29, 122
1, 95614, Note_off_c, 3, 73, 124
1, 95616, Note_off_c, 3, 85, 124
1, 95616, Note_on_c, 3, 89, 124
1, 95616, Note_on_c, 3, 77, 124
1, 95622, Note_on_c, 9, 38, 120
1, 95622, Note_on_c, 9, 42, 78
1, 95622, Note_on_c, 9, 47, 60
1, 95622, Note_on_c, 1, 29, 122
1, 95624, Note_off_c, 9, 47, 60
1, 95626, Note_off_c, 9, 42, 78
1, 95626, Note_off_c, 9, 38, 120
1, 95646, Note_off_c, 5, 65, 80
1, 95678, Note_off_c, 6, 65, 89
1, 95696, Note_off_c, 3, 77, 124
1, 95730, Note_off_c, 3, 89, 124
1, 95742, Note_off_c, 6, 53, 89
1, 95750, Note_off_c, 6, 61, 89
1, 95766, Note_off_c, 1, 29, 122
1, 95790, Note_off_c, 6, 68, 89
1, 95802, Note_on_c, 5, 66, 80
1, 95802, Note_on_c, 5, 70, 80
1, 95808, Note_on_c, 3, 78, 124
1, 95808, Note_on_c, 3, 90, 124
1, 95812, Note_on_c, 9, 42, 70
1, 95814, Note_on_c, 9, 51, 55
1, 95814, Note_on_c, 9, 36, 100
1, 95814, Note_on_c, 6, 70, 89
1, 95816, Note_on_c, 6, 66, 89
1, 95818, Note_off_c, 9, 42, 70
1, 95818, Note_on_c, 9, 70, 60
1, 95818, Note_on_c, 1, 30, 122
1, 95820, Note_on_c, 6, 54, 89
1, 95820, Note_on_c, 6, 61, 89
1, 95822, Note_off_c, 9, 51, 55
1, 95822, Note_off_c, 9, 70, 60
1, 95822, Note_off_c, 9, 36, 100
1, 95870, Note_off_c, 5, 68, 80
1, 95910, Note_on_c, 9, 70, 60
1, 95912, Note_off_c, 9, 70, 60
1, 95930, Note_off_c, 1, 30, 122
1, 96006, Note_on_c, 9, 42, 82
1, 96006, Note_on_c, 9, 47, 62
1, 96010, Note_off_c, 9, 42, 82
1, 96010, Note_off_c, 9, 47, 62
1, 96132, Note_off_c, 3, 78, 124
1, 96190, Note_off_c, 3, 90, 124
1, 96192, Note_on_c, 3, 75, 124
1, 96192, Note_on_c, 3, 87, 124
1, 96194, Note_on_c, 9, 42, 70
1, 96198, Note_off_c, 9, 42, 70
1, 96198, Note_on_c, 1, 30, 122
1, 96200, Note_on_c, 9, 67, 60
1, 96202, Note_off_c, 9, 67, 60
1, 96340, Note_off_c, 1, 30, 122
1, 96358, Note_off_c, 6, 70, 89
1, 96374, Note_off_c, 6, 66, 89
1, 96386, Note_on_c, 9, 38, 120
1, 96388, Note_off_c, 9, 38, 120
1, 96390, Note_on_c, 9, 42, 78
1, 96392, Note_on_c, 9, 47, 60
1, 96394, Note_off_c, 9, 42, 78
1, 96394, Note_off_c, 9, 47, 60
1, 96414, Note_off_c, 6, 61, 89
1, 96418, Note_off_c, 6, 54, 89
1, 96426, Note_off_c, 5, 61, 80
1, 96570, Note_on_c, 5, 63, 80
1, 96570, Note_on_c, 5, 71, 80
1, 96572, Note_off_c, 3, 75, 124
1, 96572, Note_off_c, 5, 70, 80
1, 96574, Note_off_c, 3, 87, 124
1, 96576, Note_on_c, 3, 80, 124
1, 96576, Note_on_c, 3, 92, 124
1, 96578, Note_on_c, 6, 66, 89
1, 96582, Note_on_c, 9, 42, 70
1, 96582, Note_on_c, 9, 51, 55
1, 96582, Note_on_c, 9, 36, 100
1, 96584, Note_on_c, 6, 63, 89
1, 96584, Note_on_c, 6, 71, 89
1, 96586, Note_off_c, 9, 51, 55
1, 96586, Note_off_c, 9, 42, 70
1, 96586, Note_off_c, 9, 36, 100
1, 96588, Note_on_c, 1, 32, 122
1, 96588, Note_on_c, 6, 56, 89
1, 96770, Note_on_c, 9, 36, 100
1, 96772, Note_off_c, 9, 36, 100
1, 96774, Note_on_c, 9, 42, 82
1, 96774, Note_on_c, 9, 47, 62
1, 96774, Note_on_c, 9, 67, 60
1, 96776, Note_off_c, 9, 67, 60
1, 96778, Note_off_c, 9, 42, 82
1, 96778, Note_off_c, 9, 47, 62
1, 96962, Note_on_c, 9, 42, 70
1, 96962, Note_on_c, 9, 70, 60
1, 96962, Note_on_c, 9, 36, 100
1, 96964, Note_off_c, 9, 70, 60
1, 96966, Note_off_c, 9, 42, 70
1, 96966, Note_off_c, 9, 36, 100
1, 97154, Note_on_c, 9, 38, 120
1, 97154, Note_on_c, 9, 42, 78
1, 97154, Note_on_c, 9, 47, 60
1, 97158, Note_off_c, 9, 42, 78
1, 97158, Note_off_c, 9, 38, 120
1, 97158, Note_off_c, 9, 47, 60
1, 97346, Note_on_c, 9, 42, 70
1, 97346, Note_on_c, 9, 70, 60
1, 97350, Note_off_c, 9, 42, 70
1, 97350, Note_off_c, 9, 70, 60
1, 97350, Note_off_c, 1, 32, 122
1, 97442, Note_on_c, 9, 70, 60
1, 97442, Note_on_c, 1, 32, 122
1, 97446, Note_off_c, 9, 70, 60
1, 97502, Note_off_c, 1, 32, 122
1, 97542, Note_on_c, 9, 42, 82
1, 97542, Note_on_c, 9, 36, 100
1, 97542, Note_on_c, 1, 32, 122
1, 97544, Note_off_c, 9, 47, 62
1, 97544, Note_on_c, 9, 47, 62
1, 97546, Note_off_c, 9, 42, 82
1, 97546, Note_off_c, 9, 36, 100
1, 97636, Note_off_c, 1, 32, 122
1, 97734, Note_on_c, 9, 42, 70
1, 97734, Note_on_c, 9, 36, 100
1, 97734, Note_on_c, 1, 32, 122
1, 97736, Note_off_c, 9, 67, 60
1, 97736, Note_on_c, 9, 67, 60
1, 97738, Note_off_c, 9, 42, 70
1, 97738, Note_off_c, 9, 36, 100
1, 97838, Note_off_c, 1, 32, 122
1, 97926, Note_on_c, 9, 38, 120
1, 97926, Note_on_c, 9, 42, 78
1, 97926, Note_on_c, 9, 47, 60
1, 97926, Note_on_c, 1, 29, 122
1, 97928, Note_off_c, 9, 47, 60
1, 97930, Note_off_c, 9, 42, 78
1, 97930, Note_off_c, 9, 38, 120
1, 97966, Note_off_c, 6, 66, 89
1, 97990, Note_off_c, 6, 63, 89
1, 97994, Note_off_c, 6, 71, 89
1, 97998, Note_off_c, 6, 56, 89
1, 98074, Note_off_c, 5, 66, 80
1, 98106, Note_off_c, 1, 29, 122
1, 98108, Note_off_c, 5, 63, 80
1, 98110, Note_off_c, 5, 71, 80
1, 98116, Note_on_c, 1, 32, 122
1, 98118, Note_on_c, 9, 38, 120
1, 98118, Note_on_c, 9, 42, 70
1, 98122, Note_off_c, 9, 42, 70
1, 98122, Note_off_c, 9, 38, 120
1, 98202, Note_off_c, 3, 80, 124
1, 98214, Note_on_c, 9, 38, 120
1, 98216, Note_off_c, 9, 38, 120
1, 98234, Note_off_c, 3, 92, 124
1, 98266, Note_off_c, 1, 32, 122
1, 98298, Note_on_c, 5, 68, 80
1, 98298, Note_on_c, 5, 70, 80
1, 98298, Note_on_c, 5, 73, 80
1, 98300, Note_on_c, 5, 65, 80
1, 98302, Note_on_c, 5, 63, 80
1, 98308, Note_on_c, 9, 36, 100
1, 98310, Note_on_c, 9, 42, 82
1, 98310, Note_on_c, 9, 51, 55
1, 98310, Note_on_c, 6, 63, 89
1, 98312, Note_on_c, 1, 34, 122
1, 98314, Note_on_c, 9, 47, 62
1, 98314, Note_on_c, 9, 67, 60
1, 98314, Note_on_c, 6, 73, 89
1, 98316, Note_off_c, 9, 47, 62
1, 98316, Note_off_c, 9, 67, 60
1, 98316, Note_on_c, 6, 58, 89
1, 98318, Note_off_c, 9, 51, 55
1, 98318, Note_off_c, 9, 42, 82
1, 98318, Note_off_c, 9, 36, 100
1, 98320, Note_on_c, 6, 68, 89
1, 98322, Note_on_c, 6, 65, 89
1, 98322, Note_on_c, 6, 70, 89
1, 98502, Note_on_c, 9, 42, 70
1, 98502, Note_on_c, 9, 70, 60
1, 98506, Note_off_c, 9, 42, 70
1, 98506, Note_off_c, 9, 70, 60
1, 98694, Note_on_c, 9, 38, 120
1, 98694, Note_on_c, 9, 42, 78
1, 98694, Note_on_c, 9, 47, 60
1, 98698, Note_off_c, 9, 42, 78
1, 98698, Note_off_c, 9, 38, 120
1, 98698, Note_off_c, 9, 47, 60
1, 98838, Note_off_c, 1, 34, 122
1, 98886, Note_on_c, 9, 42, 70
1, 98886, Note_on_c, 9, 70, 60
1, 98890, Note_off_c, 9, 42, 70
1, 98890, Note_off_c, 9, 70, 60
1, 98982, Note_on_c, 9, 70, 60
1, 98982, Note_on_c, 1, 34, 122
1, 98986, Note_off_c, 9, 70, 60
1, 99058, Note_off_c, 1, 34, 122
1, 99078, Note_on_c, 9, 42, 82
1, 99078, Note_on_c, 9, 47, 62
1, 99078, Note_on_c, 9, 36, 100
1, 99078, Note_on_c, 1, 25, 122
1, 99082, Note_off_c, 9, 42, 82
1, 99082, Note_off_c, 9, 47, 62
1, 99082, Note_off_c, 9, 36, 100
1, 99270, Note_on_c, 9, 42, 70
1, 99270, Note_on_c, 9, 67, 60
1, 99270, Note_on_c, 9, 36, 100
1, 99270, Note_on_c, 1, 29, 122
1, 99274, Note_off_c, 9, 42, 70
1, 99274, Note_off_c, 9, 36, 100
1, 99274, Note_off_c, 9, 67, 60
1, 99294, Note_off_c, 1, 25, 122
1, 99458, Note_on_c, 9, 38, 120
1, 99460, Note_off_c, 9, 38, 120
1, 99462, Note_on_c, 9, 42, 78
1, 99462, Note_on_c, 1, 25, 122
1, 99464, Note_on_c, 9, 47, 60
1, 99466, Note_off_c, 9, 42, 78
1, 99466, Note_off_c, 9, 47, 60
1, 99470, Note_off_c, 1, 29, 122
1, 99630, Note_off_c, 1, 25, 122
1, 99648, Note_on_c, 3, 73, 124
1, 99648, Note_on_c, 3, 85, 124
1, 99650, Note_on_c, 9, 42, 70
1, 99650, Note_on_c, 9, 36, 100
1, 99654, Note_off_c, 9, 42, 70
1, 99654, Note_off_c, 9, 36, 100
1, 99654, Note_on_c, 1, 29, 122
1, 99728, Note_off_c, 3, 85, 124
1, 99746, Note_off_c, 1, 29, 122
1, 99756, Note_off_c, 3, 73, 124
1, 99840, Note_on_c, 3, 75, 124
1, 99840, Note_on_c, 3, 87, 124
1, 99842, Note_on_c, 9, 36, 100
1, 99844, Note_on_c, 1, 34, 122
1, 99846, Note_on_c, 9, 42, 82
1, 99846, Note_on_c, 9, 47, 62
1, 99846, Note_on_c, 9, 51, 55
1, 99846, Note_on_c, 9, 67, 60
1, 99848, Note_off_c, 9, 67, 60
1, 99850, Note_off_c, 9, 51, 55
1, 99850, Note_off_c, 9, 42, 82
1, 99850, Note_off_c, 9, 36, 100
1, 99850, Note_off_c, 9, 47, 62
1, 99884, Note_off_c, 3, 87, 124
1, 99884, Note_off_c, 3, 75, 124
1, 99886, Note_off_c, 1, 34, 122
1, 99936, Note_on_c, 3, 75, 124
1, 99936, Note_on_c, 3, 87, 124
1, 100000, Note_off_c, 3, 75, 124
1, 100002, Note_off_c, 3, 87, 124
1, 100032, Note_on_c, 3, 73, 124
1, 100032, Note_on_c, 3, 85, 124
1, 100034, Note_on_c, 9, 42, 70
1, 100034, Note_on_c, 9, 70, 60
1, 100038, Note_off_c, 9, 42, 70
1, 100038, Note_off_c, 9, 70, 60
1, 100076, Note_off_c, 3, 85, 124
1, 100082, Note_off_c, 3, 73, 124
1, 100128, Note_on_c, 3, 73, 124
1, 100128, Note_on_c, 3, 85, 124
1, 100130, Note_on_c, 1, 34, 122
1, 100172, Note_off_c, 3, 73, 124
1, 100190, Note_off_c, 1, 34, 122
1, 100192, Note_off_c, 3, 85, 124
1, 100224, Note_on_c, 3, 75, 124
1, 100224, Note_on_c, 3, 87, 124
1, 100226, Note_on_c, 9, 38, 120
1, 100226, Note_on_c, 9, 42, 78
1, 100226, Note_on_c, 9, 47, 60
1, 100230, Note_off_c, 9, 42, 78
1, 100230, Note_off_c, 9, 38, 120
1, 100230, Note_off_c, 9, 47, 60
1, 100276, Note_off_c, 3, 75, 124
1, 100282, Note_off_c, 3, 87, 124
1, 100320, Note_on_c, 3, 75, 124
1, 100320, Note_on_c, 3, 87, 124
1, 100322, Note_on_c, 1, 34, 122
1, 100366, Note_off_c, 3, 75, 124
1, 100374, Note_off_c, 1, 34, 122
1, 100388, Note_off_c, 3, 87, 124
1, 100416, Note_on_c, 3, 73, 124
1, 100416, Note_on_c, 3, 85, 124
1, 100418, Note_on_c, 9, 42, 70
1, 100418, Note_on_c, 9, 70, 60
1, 100418, Note_on_c, 1, 25, 122
1, 100422, Note_off_c, 9, 42, 70
1, 100422, Note_off_c, 9, 70, 60
1, 100464, Note_off_c, 3, 73, 124
1, 100466, Note_off_c, 1, 25, 122
1, 100466, Note_off_c, 3, 85, 124
1, 100512, Note_on_c, 3, 73, 124
1, 100512, Note_on_c, 3, 85, 124
1, 100514, Note_on_c, 9, 70, 60
1, 100514, Note_on_c, 1, 25, 122
1, 100516, Note_off_c, 9, 70, 60
1, 100562, Note_off_c, 1, 25, 122
1, 100564, Note_off_c, 3, 73, 124
1, 100580, Note_off_c, 3, 85, 124
1, 100608, Note_on_c, 3, 75, 124
1, 100608, Note_on_c, 3, 87, 124
1, 100610, Note_on_c, 9, 42, 82
1, 100610, Note_on_c, 9, 36, 100
1, 100612, Note_off_c, 9, 36, 100
1, 100614, Note_off_c, 9, 42, 82
1, 100614, Note_on_c, 1, 29, 122
1, 100616, Note_off_c, 9, 47, 62
1, 100616, Note_on_c, 9, 47, 62
1, 100652, Note_off_c, 3, 75, 124
1, 100660, Note_off_c, 3, 87, 124
1, 100704, Note_on_c, 3, 75, 124
1, 100704, Note_on_c, 3, 87, 124
1, 100750, Note_off_c, 3, 75, 124
1, 100770, Note_off_c, 3, 87, 124
1, 100790, Note_off_c, 1, 29, 122
1, 100800, Note_on_c, 3, 73, 124
1, 100800, Note_on_c, 3, 85, 124
1, 100802, Note_on_c, 9, 42, 70
1, 100802, Note_on_c, 9, 67, 60
1, 100802, Note_on_c, 9, 36, 100
1, 100804, Note_off_c, 9, 67, 60
1, 100806, Note_off_c, 9, 42, 70
1, 100806, Note_off_c, 9, 36, 100
1, 100808, Note_on_c, 1, 25, 122
1, 100848, Note_off_c, 3, 85, 124
1, 100856, Note_off_c, 3, 73, 124
1, 100890, Note_off_c, 1, 25, 122
1, 100896, Note_on_c, 3, 73, 124
1, 100896, Note_on_c, 3, 85, 124
1, 100948, Note_off_c, 3, 73, 124
1, 100954, Note_off_c, 3, 85, 124
1, 100992, Note_on_c, 3, 75, 124
1, 100992, Note_on_c, 3, 87, 124
1, 100994, Note_on_c, 9, 38, 120
1, 100994, Note_on_c, 9, 42, 78
1, 100994, Note_on_c, 9, 47, 60
1, 100996, Note_off_c, 9, 47, 60
1, 100998, Note_off_c, 9, 42, 78
1, 100998, Note_off_c, 9, 38, 120
1, 101000, Note_on_c, 1, 25, 122
1, 101030, Note_off_c, 6, 73, 89
1, 101036, Note_off_c, 3, 75, 124
1, 101050, Note_off_c, 6, 68, 89
1, 101052, Note_off_c, 3, 87, 124
1, 101058, Note_off_c, 6, 65, 89
1, 101062, Note_off_c, 6, 70, 89
1, 101078, Note_off_c, 6, 63, 89
1, 101088, Note_on_c, 3, 75, 124
1, 101088, Note_on_c, 3, 87, 124
1, 101114, Note_off_c, 6, 58, 89
1, 101136, Note_off_c, 3, 75, 124
1, 101140, Note_off_c, 3, 87, 124
1, 101184, Note_on_c, 3, 73, 124
1, 101184, Note_on_c, 3, 85, 124
1, 101186, Note_on_c, 9, 42, 70
1, 101188, Note_off_c, 9, 42, 70
1, 101202, Note_off_c, 1, 25, 122
1, 101236, Note_off_c, 3, 85, 124
1, 101244, Note_off_c, 3, 73, 124
1, 101280, Note_on_c, 3, 85, 124
1, 101280, Note_on_c, 3, 73, 124
1, 101330, Note_off_c, 3, 73, 124
1, 101340, Note_off_c, 3, 85, 124
1, 101370, Note_on_c, 5, 60, 80
1, 101372, Note_off_c, 5, 73, 80
1, 101376, Note_on_c, 3, 75, 124
1, 101376, Note_on_c, 3, 87, 124
1, 101378, Note_on_c, 9, 36, 100
1, 101380, Note_on_c, 9, 42, 82
1, 101380, Note_on_c, 9, 51, 55
1, 101382, Note_on_c, 9, 47, 62
1, 101382, Note_on_c, 6, 58, 89
1, 101382, Note_on_c, 6, 60, 89
1, 101384, Note_on_c, 1, 22, 122
1, 101386, Note_on_c, 9, 67, 60
1, 101386, Note_on_c, 6, 63, 89
1, 101386, Note_on_c, 6, 68, 89
1, 101388, Note_off_c, 9, 47, 62
1, 101388, Note_off_c, 9, 67, 60
1, 101390, Note_off_c, 9, 51, 55
1, 101390, Note_off_c, 9, 42, 82
1, 101390, Note_off_c, 9, 36, 100
1, 101394, Note_off_c, 5, 70, 80
1, 101400, Note_off_c, 5, 65, 80
1, 101434, Note_off_c, 3, 75, 124
1, 101436, Note_off_c, 3, 87, 124
1, 101472, Note_on_c, 3, 75, 124
1, 101472, Note_on_c, 3, 87, 124
1, 101486, Note_off_c, 1, 22, 122
1, 101538, Note_off_c, 3, 75, 124
1, 101540, Note_off_c, 3, 87, 124
1, 101568, Note_on_c, 3, 73, 124
1, 101568, Note_on_c, 3, 85, 124
1, 101570, Note_on_c, 9, 42, 70
1, 101570, Note_on_c, 9, 70, 60
1, 101574, Note_off_c, 9, 42, 70
1, 101574, Note_off_c, 9, 70, 60
1, 101626, Note_off_c, 3, 85, 124
1, 101634, Note_off_c, 3, 73, 124
1, 101664, Note_on_c, 3, 73, 124
1, 101664, Note_on_c, 3, 85, 124
1, 101730, Note_off_c, 3, 85, 124
1, 101738, Note_off_c, 3, 73, 124
1, 101760, Note_on_c, 3, 75, 124
1, 101760, Note_on_c, 3, 87, 124
1, 101762, Note_on_c, 9, 38, 120
1, 101762, Note_on_c, 9, 42, 78
1, 101762, Note_on_c, 9, 47, 60
1, 101766, Note_off_c, 9, 42, 78
1, 101766, Note_off_c, 9, 38, 120
1, 101766, Note_off_c, 9, 47, 60
1, 101824, Note_off_c, 3, 75, 124
1, 101826, Note_off_c, 3, 87, 124
1, 101856, Note_on_c, 3, 75, 124
1, 101856, Note_on_c, 3, 87, 124
1, 101920, Note_off_c, 3, 87, 124
1, 101920, Note_off_c, 3, 75, 124
1, 101952, Note_on_c, 3, 73, 124
1, 101952, Note_on_c, 3, 85, 124
1, 101954, Note_on_c, 9, 42, 70
1, 101954, Note_on_c, 9, 70, 60
1, 101958, Note_off_c, 9, 42, 70
1, 101958, Note_off_c, 9, 70, 60
1, 102004, Note_off_c, 3, 73, 124
1, 102018, Note_off_c, 3, 85, 124
1, 102048, Note_on_c, 3, 73, 124
1, 102048, Note_on_c, 3, 85, 124
1, 102050, Note_on_c, 9, 70, 60
1, 102050, Note_on_c, 1, 22, 122
1, 102054, Note_off_c, 9, 70, 60
1, 102100, Note_off_c, 1, 22, 122
1, 102126, Note_off_c, 3, 73, 124
1, 102128, Note_off_c, 3, 85, 124
1, 102144, Note_on_c, 3, 75, 124
1, 102144, Note_on_c, 3, 87, 124
1, 102150, Note_on_c, 9, 42, 82
1, 102150, Note_on_c, 9, 47, 62
1, 102150, Note_on_c, 9, 36, 100
1, 102150, Note_on_c, 1, 22, 122
1, 102152, Note_off_c, 9, 47, 62
1, 102154, Note_off_c, 9, 42, 82
1, 102154, Note_off_c, 9, 36, 100
1, 102200, Note_off_c, 3, 75, 124
1, 102206, Note_off_c, 3, 87, 124
1, 102240, Note_on_c, 3, 87, 124
1, 102240, Note_on_c, 3, 75, 124
1, 102300, Note_off_c, 3, 75, 124
1, 102300, Note_off_c, 3, 87, 124
1, 102310, Note_on_c, 9, 38, 110
1, 102314, Note_off_c, 9, 38, 110
1, 102318, Note_off_c, 1, 22, 122
1, 102336, Note_on_c, 3, 73, 124
1, 102336, Note_on_c, 3, 85, 124
1, 102342, Note_on_c, 9, 38, 120
1, 102342, Note_on_c, 9, 42, 70
1, 102342, Note_on_c, 1, 25, 122
1, 102344, Note_off_c, 9, 67, 60
1, 102344, Note_on_c, 9, 67, 60
1, 102346, Note_off_c, 9, 42, 70
1, 102346, Note_off_c, 9, 38, 120
1, 102380, Note_off_c, 3, 85, 124
1, 102382, Note_off_c, 3, 73, 124
1, 102426, Note_on_c, 5, 61, 80
1, 102432, Note_on_c, 3, 85, 124
1, 102432, Note_on_c, 3, 73, 124
1, 102478, Note_off_c, 5, 61, 80
1, 102502, Note_on_c, 9, 38, 100
1, 102504, Note_off_c, 9, 38, 100
1, 102510, Note_off_c, 1, 25, 122
1, 102512, Note_off_c, 3, 85, 124
1, 102516, Note_off_c, 3, 73, 124
1, 102528, Note_on_c, 3, 75, 124
1, 102528, Note_on_c, 3, 87, 124
1, 102534, Note_on_c, 9, 38, 120
1, 102534, Note_on_c, 9, 42, 78
1, 102534, Note_on_c, 1, 29, 122
1, 102536, Note_off_c, 9, 47, 60
1, 102536, Note_on_c, 9, 47, 60
1, 102538, Note_off_c, 9, 42, 78
1, 102538, Note_off_c, 9, 38, 120
1, 102540, Note_off_c, 6, 63, 89
1, 102550, Note_off_c, 6, 68, 89
1, 102558, Note_off_c, 6, 60, 89
1, 102566, Note_off_c, 3, 87, 124
1, 102570, Note_off_c, 6, 58, 89
1, 102594, Note_off_c, 3, 75, 124
1, 102624, Note_on_c, 3, 87, 124
1, 102624, Note_on_c, 3, 75, 124
1, 102698, Note_off_c, 3, 75, 124
1, 102700, Note_off_c, 3, 87, 124
1, 102714, Note_on_c, 5, 70, 80
1, 102716, Note_off_c, 1, 29, 122
1, 102720, Note_on_c, 3, 89, 124
1, 102720, Note_on_c, 3, 77, 124
1, 102724, Note_on_c, 9, 42, 70
1, 102726, Note_on_c, 9, 51, 55
1, 102726, Note_on_c, 9, 36, 100
1, 102728, Note_on_c, 6, 63, 89
1, 102728, Note_on_c, 6, 68, 89
1, 102730, Note_off_c, 9, 42, 70
1, 102730, Note_off_c, 9, 36, 100
1, 102730, Note_on_c, 1, 34, 122
1, 102732, Note_off_c, 9, 51, 55
1, 102732, Note_on_c, 6, 58, 89
1, 102732, Note_on_c, 6, 60, 89
1, 102732, Note_on_c, 6, 70, 89
1, 102916, Note_on_c, 9, 42, 82
1, 102916, Note_on_c, 9, 47, 62
1, 102918, Note_on_c, 9, 67, 60
1, 102920, Note_off_c, 9, 47, 62
1, 102920, Note_off_c, 9, 67, 60
1, 102922, Note_off_c, 9, 42, 82
1, 103110, Note_on_c, 9, 42, 70
1, 103110, Note_on_c, 9, 70, 60
1, 103114, Note_off_c, 9, 42, 70
1, 103114, Note_off_c, 9, 70, 60
1, 103298, Note_on_c, 9, 38, 120
1, 103300, Note_off_c, 9, 38, 120
1, 103302, Note_on_c, 9, 42, 78
1, 103304, Note_on_c, 9, 47, 60
1, 103306, Note_off_c, 9, 42, 78
1, 103306, Note_off_c, 9, 47, 60
1, 103374, Note_off_c, 1, 34, 122
1, 103476, Note_off_c, 3, 89, 124
1, 103484, Note_off_c, 3, 77, 124
1, 103488, Note_on_c, 3, 89, 124
1, 103488, Note_on_c, 3, 77, 124
1, 103490, Note_on_c, 9, 42, 70
1, 103492, Note_off_c, 9, 42, 70
1, 103494, Note_on_c, 1, 34, 122
1, 103496, Note_on_c, 9, 70, 60
1, 103498, Note_off_c, 9, 70, 60
1, 103550, Note_off_c, 1, 34, 122
1, 103586, Note_on_c, 9, 70, 60
1, 103588, Note_off_c, 9, 70, 60
1, 103648, Note_off_c, 3, 89, 124
1, 103680, Note_off_c, 3, 77, 124
1, 103680, Note_on_c, 3, 89, 124
1, 103680, Note_on_c, 3, 77, 124
1, 103682, Note_on_c, 9, 42, 82
1, 103682, Note_on_c, 9, 36, 100
1, 103684, Note_off_c, 9, 36, 100
1, 103686, Note_off_c, 9, 42, 82
1, 103686, Note_on_c, 1, 34, 122
1, 103688, Note_on_c, 9, 47, 62
1, 103688, Note_on_c, 9, 50, 80
1, 103690, Note_off_c, 9, 50, 80
1, 103690, Note_off_c, 9, 47, 62
1, 103746, Note_on_c, 9, 38, 80
1, 103796, Note_off_c, 9, 38, 80
1, 103810, Note_on_c, 9, 38, 90
1, 103862, Note_off_c, 9, 38, 90
1, 103874, Note_on_c, 9, 38, 112
1, 103874, Note_on_c, 9, 42, 70
1, 103876, Note_off_c, 9, 38, 112
1, 103878, Note_off_c, 9, 42, 70
1, 103878, Note_on_c, 9, 67, 60
1, 103882, Note_off_c, 9, 67, 60
1, 103938, Note_on_c, 9, 38, 105
1, 103942, Note_off_c, 9, 38, 105
1, 104002, Note_on_c, 9, 38, 103
1, 104004, Note_off_c, 9, 38, 103
1, 104066, Note_on_c, 9, 38, 120
1, 104066, Note_on_c, 9, 42, 78
1, 104066, Note_on_c, 9, 47, 60
1, 104068, Note_off_c, 9, 47, 60
1, 104070, Note_off_c, 9, 42, 78
1, 104070, Note_off_c, 9, 38, 120
1, 104142, Note_off_c, 6, 60, 89
1, 104142, Note_off_c, 5, 60, 80
1, 104150, Note_off_c, 6, 70, 89
1, 104158, Note_off_c, 6, 58, 89
1, 104162, Note_on_c, 9, 38, 120
1, 104166, Note_off_c, 9, 38, 120
1, 104168, Note_off_c, 6, 63, 89
1, 104174, Note_off_c, 5, 70, 80
1, 104182, Note_off_c, 6, 68, 89
1, 104190, Note_off_c, 5, 68, 80
1, 104196, Note_off_c, 5, 63, 80
1, 104258, Note_on_c, 9, 42, 70
1, 104258, Note_on_c, 9, 50, 80
1, 104262, Note_off_c, 9, 50, 80
1, 104262, Note_off_c, 9, 42, 70
1, 104290, Note_off_c, 1, 34, 122
1, 104320, Note_off_c, 3, 89, 124
1, 104442, Note_on_c, 5, 58, 80
1, 104442, Note_on_c, 5, 63, 80
1, 104442, Note_on_c, 5, 67, 80
1, 104452, Note_on_c, 9, 36, 100
1, 104454, Note_on_c, 9, 42, 82
1, 104454, Note_on_c, 9, 47, 62
1, 104454, Note_on_c, 9, 67, 80
1, 104454, Note_on_c, 6, 63, 89
1, 104456, Note_on_c, 6, 51, 89
1, 104456, Note_on_c, 6, 58, 89
1, 104458, Note_off_c, 9, 42, 82
1, 104458, Note_off_c, 9, 36, 100
1, 104458, Note_on_c, 1, 27, 122
1, 104460, Note_on_c, 6, 67, 89
1, 104462, Note_off_c, 9, 47, 62
1, 104462, Note_off_c, 9, 67, 80
1, 104464, Note_off_c, 5, 67, 80
1, 104464, Note_off_c, 5, 63, 80
1, 104466, Note_off_c, 5, 58, 80
1, 104566, Note_off_c, 1, 27, 122
1, 104622, Note_off_c, 6, 63, 89
1, 104634, Note_off_c, 6, 51, 89
1, 104638, Note_off_c, 6, 58, 89
1, 104642, Note_off_c, 6, 67, 89
1, 104644, Note_on_c, 9, 42, 70
1, 104644, Note_on_c, 9, 36, 100
1, 104646, Note_off_c, 9, 42, 70
1, 104646, Note_off_c, 9, 36, 100
1, 104646, Note_off_c, 9, 70, 80
1, 104646, Note_on_c, 9, 70, 80
1, 104834, Note_on_c, 9, 38, 120
1, 104834, Note_on_c, 9, 42, 78
1, 104834, Note_on_c, 9, 47, 60
1, 104838, Note_off_c, 9, 42, 78
1, 104838, Note_off_c, 9, 38, 120
1, 104838, Note_off_c, 9, 47, 60
1, 105028, Note_on_c, 9, 42, 70
1, 105030, Note_on_c, 9, 70, 80
1, 105030, Note_on_c, 6, 56, 89
1, 105032, Note_on_c, 6, 63, 89
1, 105034, Note_off_c, 9, 42, 70
1, 105034, Note_off_c, 9, 70, 80
1, 105036, Note_on_c, 1, 32, 122
1, 105036, Note_on_c, 6, 60, 89
1, 105036, Note_on_c, 6, 68, 89
1, 105126, Note_on_c, 9, 70, 80
1, 105128, Note_off_c, 9, 70, 80
1, 105166, Note_off_c, 1, 32, 122
1, 105182, Note_off_c, 6, 60, 89
1, 105182, Note_off_c, 6, 56, 89
1, 105194, Note_off_c, 6, 68, 89
1, 105194, Note_off_c, 6, 63, 89
1, 105220, Note_on_c, 9, 42, 82
1, 105222, Note_on_c, 9, 47, 62
1, 105222, Note_on_c, 9, 36, 100
1, 105224, Note_off_c, 9, 47, 62
1, 105226, Note_off_c, 9, 42, 82
1, 105226, Note_off_c, 9, 36, 100
1, 105382, Note_on_c, 9, 46, 70
1, 105386, Note_off_c, 9, 46, 70
1, 105414, Note_on_c, 9, 42, 70
1, 105414, Note_on_c, 9, 46, 90
1, 105414, Note_on_c, 9, 67, 80
1, 105414, Note_on_c, 9, 36, 100
1, 105418, Note_off_c, 9, 46, 90
1, 105418, Note_off_c, 9, 42, 70
1, 105418, Note_off_c, 9, 36, 100
1, 105418, Note_off_c, 9, 67, 80
1, 105606, Note_on_c, 9, 38, 120
1, 105606, Note_on_c, 9, 42, 78
1, 105606, Note_on_c, 9, 46, 90
1, 105606, Note_on_c, 9, 47, 60
1, 105610, Note_off_c, 9, 46, 90
1, 105610, Note_off_c, 9, 42, 78
1, 105610, Note_off_c, 9, 38, 120
1, 105610, Note_off_c, 9, 47, 60
1, 105798, Note_on_c, 9, 38, 120
1, 105798, Note_on_c, 9, 42, 82
1, 105798, Note_on_c, 9, 46, 90
1, 105798, Note_on_c, 9, 36, 100
1, 105800, Note_on_c, 6, 63, 89
1, 105802, Note_off_c, 9, 42, 82
1, 105802, Note_on_c, 1, 29, 122
1, 105802, Note_on_c, 6, 68, 89
1, 105804, Note_on_c, 6, 53, 89
1, 105804, Note_on_c, 6, 72, 89
1, 105806, Note_off_c, 9, 46, 90
1, 105806, Note_off_c, 9, 38, 120
1, 105806, Note_off_c, 9, 36, 100
1, 105912, Note_off_c, 1, 29, 122
1, 105962, Note_off_c, 6, 53, 89
1, 105974, Note_off_c, 6, 72, 89
1, 105978, Note_off_c, 6, 63, 89
1, 105982, Note_off_c, 6, 68, 89
1, 105988, Note_on_c, 9, 36, 100
1, 105990, Note_on_c, 9, 42, 82
1, 105990, Note_on_c, 9, 47, 62
1, 105990, Note_on_c, 9, 67, 80
1, 105992, Note_off_c, 9, 47, 62
1, 105992, Note_off_c, 9, 67, 80
1, 105994, Note_off_c, 9, 42, 82
1, 105994, Note_off_c, 9, 36, 100
1, 106148, Note_on_c, 9, 72, 90
1, 106152, Note_off_c, 9, 72, 90
1, 106178, Note_on_c, 9, 42, 70
1, 106182, Note_off_c, 9, 42, 70
1, 106182, Note_on_c, 9, 70, 80
1, 106182, Note_on_c, 9, 36, 100
1, 106184, Note_on_c, 9, 72, 80
1, 106186, Note_off_c, 9, 72, 80
1, 106186, Note_off_c, 9, 36, 100
1, 106186, Note_off_c, 9, 70, 80
1, 106242, Note_on_c, 9, 72, 90
1, 106244, Note_off_c, 9, 72, 90
1, 106306, Note_on_c, 9, 72, 80
1, 106308, Note_off_c, 9, 72, 80
1, 106370, Note_on_c, 9, 38, 120
1, 106370, Note_on_c, 9, 42, 78
1, 106370, Note_on_c, 9, 47, 60
1, 106370, Note_on_c, 9, 72, 100
1, 106374, Note_off_c, 9, 72, 100
1, 106374, Note_off_c, 9, 42, 78
1, 106374, Note_off_c, 9, 38, 120
1, 106374, Note_off_c, 9, 47, 60
1, 106566, Note_on_c, 9, 42, 70
1, 106566, Note_on_c, 9, 70, 80
1, 106566, Note_on_c, 9, 72, 90
1, 106570, Note_off_c, 9, 72, 90
1, 106570, Note_off_c, 9, 42, 70
1, 106570, Note_off_c, 9, 70, 80
1, 106612, Note_on_c, 9, 72, 60
1, 106618, Note_off_c, 9, 72, 60
1, 106628, Note_on_c, 9, 72, 80
1, 106632, Note_off_c, 9, 72, 80
1, 106660, Note_on_c, 9, 70, 80
1, 106664, Note_off_c, 9, 70, 80
1, 106694, Note_on_c, 9, 72, 90
1, 106698, Note_off_c, 9, 72, 90
1, 106756, Note_on_c, 9, 42, 82
1, 106758, Note_on_c, 9, 47, 62
1, 106758, Note_on_c, 9, 36, 100
1, 106758, Note_on_c, 6, 65, 89
1, 106762, Note_off_c, 9, 42, 82
1, 106762, Note_on_c, 9, 72, 100
1, 106762, Note_on_c, 1, 34, 122
1, 106764, Note_off_c, 9, 72, 100
1, 106764, Note_on_c, 6, 62, 89
1, 106764, Note_on_c, 6, 70, 89
1, 106766, Note_off_c, 9, 47, 62
1, 106766, Note_off_c, 9, 36, 100
1, 106768, Note_on_c, 6, 58, 89
1, 106844, Note_off_c, 1, 34, 122
1, 106874, Note_off_c, 6, 58, 89
1, 106886, Note_off_c, 6, 62, 89
1, 106890, Note_off_c, 6, 70, 89
1, 106894, Note_off_c, 6, 65, 89
1, 106950, Note_on_c, 9, 42, 70
1, 106950, Note_on_c, 9, 67, 80
1, 106950, Note_on_c, 9, 36, 100
1, 106952, Note_off_c, 9, 67, 80
1, 106954, Note_off_c, 9, 42, 70
1, 106954, Note_off_c, 9, 36, 100
1, 107118, Note_on_c, 9, 72, 100
1, 107122, Note_off_c, 9, 72, 100
1, 107142, Note_on_c, 9, 38, 120
1, 107142, Note_on_c, 9, 42, 78
1, 107142, Note_on_c, 9, 47, 60
1, 107142, Note_on_c, 6, 58, 89
1, 107144, Note_on_c, 6, 62, 89
1, 107146, Note_off_c, 9, 38, 120
1, 107146, Note_on_c, 9, 72, 100
1, 107146, Note_on_c, 1, 34, 122
1, 107148, Note_on_c, 6, 65, 89
1, 107148, Note_on_c, 6, 70, 89
1, 107150, Note_off_c, 9, 72, 100
1, 107150, Note_off_c, 9, 42, 78
1, 107150, Note_off_c, 9, 47, 60
1, 107238, Note_on_c, 9, 72, 80
1, 107240, Note_off_c, 9, 72, 80
1, 107282, Note_off_c, 6, 58, 89
1, 107290, Note_off_c, 6, 62, 89
1, 107294, Note_off_c, 6, 70, 89
1, 107296, Note_off_c, 6, 65, 89
1, 107332, Note_on_c, 9, 42, 70
1, 107334, Note_on_c, 9, 46, 90
1, 107336, Note_off_c, 9, 46, 90
1, 107338, Note_off_c, 9, 42, 70
1, 107390, Note_off_c, 1, 34, 122
1, 107524, Note_on_c, 9, 42, 82
1, 107524, Note_on_c, 9, 36, 100
1, 107526, Note_on_c, 9, 47, 62
1, 107526, Note_on_c, 9, 67, 80
1, 107526, Note_on_c, 6, 51, 89
1, 107528, Note_off_c, 9, 36, 100
1, 107530, Note_on_c, 1, 27, 122
1, 107530, Note_on_c, 6, 58, 89
1, 107530, Note_on_c, 6, 63, 89
1, 107530, Note_on_c, 6, 67, 89
1, 107532, Note_off_c, 9, 47, 62
1, 107532, Note_off_c, 9, 67, 80
1, 107534, Note_off_c, 9, 42, 82
1, 107612, Note_off_c, 1, 27, 122
1, 107662, Note_off_c, 6, 51, 89
1, 107666, Note_off_c, 6, 58, 89
1, 107670, Note_off_c, 6, 63, 89
1, 107690, Note_off_c, 6, 67, 89
1, 107714, Note_on_c, 9, 42, 70
1, 107716, Note_off_c, 9, 42, 70
1, 107718, Note_on_c, 9, 36, 100
1, 107720, Note_off_c, 9, 70, 80
1, 107720, Note_on_c, 9, 70, 80
1, 107722, Note_off_c, 9, 36, 100
1, 107906, Note_on_c, 9, 38, 120
1, 107908, Note_off_c, 9, 38, 120
1, 107910, Note_on_c, 9, 42, 78
1, 107910, Note_on_c, 9, 47, 60
1, 107912, Note_off_c, 9, 47, 60
1, 107914, Note_off_c, 9, 42, 78
1, 108098, Note_on_c, 6, 56, 89
1, 108102, Note_on_c, 9, 42, 70
1, 108102, Note_on_c, 9, 70, 80
1, 108102, Note_on_c, 1, 32, 122
1, 108104, Note_on_c, 6, 63, 89
1, 108104, Note_on_c, 6, 68, 89
1, 108106, Note_off_c, 9, 42, 70
1, 108106, Note_off_c, 9, 70, 80
1, 108108, Note_on_c, 6, 60, 89
1, 108190, Note_off_c, 1, 32, 122
1, 108194, Note_on_c, 9, 70, 80
1, 108196, Note_off_c, 9, 70, 80
1, 108250, Note_off_c, 6, 60, 89
1, 108266, Note_off_c, 6, 68, 89
1, 108266, Note_off_c, 6, 63, 89
1, 108270, Note_off_c, 6, 56, 89
1, 108290, Note_on_c, 9, 42, 82
1, 108290, Note_on_c, 9, 36, 100
1, 108292, Note_off_c, 9, 36, 100
1, 108294, Note_off_c, 9, 42, 82
1, 108294, Note_on_c, 9, 47, 62
1, 108298, Note_off_c, 9, 47, 62
1, 108454, Note_on_c, 9, 46, 70
1, 108456, Note_off_c, 9, 46, 70
1, 108482, Note_on_c, 9, 42, 70
1, 108482, Note_on_c, 9, 67, 80
1, 108482, Note_on_c, 9, 36, 100
1, 108484, Note_off_c, 9, 67, 80
1, 108486, Note_off_c, 9, 42, 70
1, 108486, Note_off_c, 9, 36, 100
1, 108488, Note_on_c, 9, 46, 90
1, 108490, Note_off_c, 9, 46, 90
1, 108674, Note_on_c, 9, 38, 120
1, 108674, Note_on_c, 9, 42, 78
1, 108674, Note_on_c, 9, 47, 60
1, 108676, Note_off_c, 9, 47, 60
1, 108678, Note_off_c, 9, 42, 78
1, 108678, Note_off_c, 9, 38, 120
1, 108838, Note_on_c, 9, 46, 70
1, 108840, Note_off_c, 9, 46, 70
1, 108866, Note_on_c, 9, 38, 120
1, 108866, Note_on_c, 9, 42, 82
1, 108870, Note_on_c, 9, 46, 90
1, 108870, Note_on_c, 9, 36, 100
1, 108870, Note_on_c, 1, 29, 122
1, 108872, Note_off_c, 9, 36, 100
1, 108872, Note_on_c, 6, 53, 89
1, 108872, Note_on_c, 6, 60, 89
1, 108872, Note_on_c, 6, 63, 89
1, 108874, Note_off_c, 9, 42, 82
1, 108874, Note_off_c, 9, 38, 120
1, 108878, Note_off_c, 9, 46, 90
1, 108942, Note_off_c, 1, 29, 122
1, 108978, Note_off_c, 6, 60, 89
1, 108996, Note_off_c, 6, 63, 89
1, 108996, Note_off_c, 6, 53, 89
1, 109062, Note_on_c, 9, 42, 82
1, 109062, Note_on_c, 9, 47, 62
1, 109062, Note_on_c, 9, 67, 80
1, 109062, Note_on_c, 9, 36, 100
1, 109064, Note_off_c, 9, 67, 80
1, 109066, Note_off_c, 9, 42, 82
1, 109066, Note_off_c, 9, 36, 100
1, 109066, Note_off_c, 9, 47, 62
1, 109158, Note_on_c, 9, 67, 80
1, 109160, Note_off_c, 9, 67, 80
1, 109252, Note_on_c, 9, 42, 70
1, 109254, Note_on_c, 9, 36, 100
1, 109254, Note_on_c, 6, 53, 89
1, 109254, Note_on_c, 6, 68, 89
1, 109256, Note_off_c, 9, 36, 100
1, 109258, Note_off_c, 9, 42, 70
1, 109258, Note_on_c, 9, 70, 80
1, 109260, Note_on_c, 6, 63, 89
1, 109260, Note_on_c, 6, 72, 89
1, 109262, Note_off_c, 9, 70, 80
1, 109382, Note_off_c, 6, 72, 89
1, 109382, Note_off_c, 6, 68, 89
1, 109386, Note_off_c, 6, 63, 89
1, 109390, Note_off_c, 6, 53, 89
1, 109446, Note_on_c, 9, 38, 120
1, 109446, Note_on_c, 9, 42, 78
1, 109446, Note_on_c, 9, 47, 60
1, 109446, Note_on_c, 9, 67, 80
1, 109448, Note_off_c, 9, 67, 80
1, 109450, Note_off_c, 9, 42, 78
1, 109450, Note_off_c, 9, 38, 120
1, 109450, Note_off_c, 9, 47, 60
1, 109542, Note_on_c, 9, 67, 80
1, 109544, Note_off_c, 9, 67, 80
1, 109636, Note_on_c, 9, 42, 70
1, 109638, Note_on_c, 9, 70, 80
1, 109638, Note_on_c, 9, 36, 100
1, 109638, Note_on_c, 6, 63, 89
1, 109640, Note_on_c, 6, 65, 89
1, 109642, Note_off_c, 9, 42, 70
1, 109642, Note_off_c, 9, 36, 100
1, 109642, Note_on_c, 1, 29, 122
1, 109642, Note_on_c, 6, 70, 89
1, 109644, Note_on_c, 6, 58, 89
1, 109646, Note_off_c, 9, 70, 80
1, 109734, Note_on_c, 9, 70, 80
1, 109736, Note_off_c, 9, 70, 80
1, 109754, Note_off_c, 6, 58, 89
1, 109774, Note_off_c, 6, 70, 89
1, 109778, Note_off_c, 6, 63, 89
1, 109782, Note_off_c, 6, 65, 89
1, 109822, Note_off_c, 1, 29, 122
1, 109830, Note_on_c, 9, 42, 82
1, 109830, Note_on_c, 9, 47, 62
1, 109830, Note_on_c, 9, 36, 100
1, 109830, Note_on_c, 1, 34, 122
1, 109834, Note_off_c, 9, 42, 82
1, 109834, Note_off_c, 9, 36, 100
1, 109834, Note_off_c, 9, 47, 62
1, 109902, Note_off_c, 1, 34, 122
1, 110022, Note_on_c, 9, 42, 70
1, 110022, Note_on_c, 9, 67, 80
1, 110022, Note_on_c, 9, 36, 100
1, 110024, Note_on_c, 6, 65, 89
1, 110024, Note_on_c, 6, 70, 89
1, 110026, Note_off_c, 9, 42, 70
1, 110026, Note_off_c, 9, 36, 100
1, 110026, Note_on_c, 1, 22, 122
1, 110028, Note_off_c, 9, 67, 80
1, 110028, Note_on_c, 6, 58, 89
1, 110028, Note_on_c, 6, 62, 89
1, 110062, Note_off_c, 1, 22, 122
1, 110116, Note_on_c, 9, 67, 80
1, 110122, Note_off_c, 9, 67, 80
1, 110190, Note_on_c, 9, 67, 80
1, 110194, Note_off_c, 9, 67, 80
1, 110204, Control_c, 3, 7, 90
1, 110212, Note_on_c, 1, 34, 122
1, 110214, Note_on_c, 9, 38, 120
1, 110214, Note_on_c, 9, 42, 78
1, 110216, Note_off_c, 9, 67, 80
1, 110216, Note_on_c, 9, 47, 60
1, 110216, Note_on_c, 9, 67, 80
1, 110218, Note_off_c, 9, 42, 78
1, 110218, Note_off_c, 9, 38, 120
1, 110218, Note_off_c, 9, 47, 60
1, 110306, Note_on_c, 9, 67, 80
1, 110308, Note_off_c, 9, 67, 80
1, 110366, Note_off_c, 6, 70, 89
1, 110378, Note_off_c, 6, 62, 89
1, 110378, Note_off_c, 6, 58, 89
1, 110390, Note_off_c, 6, 65, 89
1, 110402, Note_on_c, 9, 42, 70
1, 110404, Note_off_c, 9, 42, 70
1, 110406, Note_on_c, 9, 70, 80
1, 110406, Note_on_c, 9, 36, 100
1, 110410, Note_off_c, 9, 36, 100
1, 110410, Note_off_c, 9, 70, 80
1, 110452, Note_off_c, 1, 34, 122
1, 110498, Note_on_c, 9, 70, 80
1, 110500, Note_off_c, 9, 70, 80
1, 110586, Note_on_c, 5, 58, 80
1, 110586, Note_on_c, 5, 63, 80
1, 110586, Note_on_c, 5, 67, 80
1, 110590, Note_off_c, 3, 77, 127
1, 110592, Note_on_c, 3, 70, 127
1, 110592, Note_on_c, 3, 82, 127
1, 110596, Note_on_c, 9, 36, 100
1, 110598, Note_on_c, 9, 42, 82
1, 110598, Note_on_c, 9, 47, 62
1, 110598, Note_on_c, 9, 51, 55
1, 110598, Note_on_c, 6, 63, 89
1, 110600, Note_off_c, 9, 36, 100
1, 110600, Note_on_c, 6, 58, 89
1, 110602, Note_on_c, 9, 67, 60
1, 110602, Note_on_c, 1, 27, 122
1, 110602, Note_on_c, 6, 67, 89
1, 110604, Note_off_c, 9, 67, 60
1, 110604, Note_off_c, 9, 47, 62
1, 110604, Note_on_c, 6, 51, 89
1, 110606, Note_off_c, 9, 51, 55
1, 110606, Note_off_c, 9, 42, 82
1, 110718, Note_off_c, 6, 58, 89
1, 110718, Note_off_c, 6, 63, 89
1, 110722, Note_off_c, 6, 51, 89
1, 110738, Note_off_c, 6, 67, 89
1, 110786, Note_on_c, 9, 42, 70
1, 110786, Note_on_c, 9, 70, 60
1, 110788, Note_off_c, 9, 70, 60
1, 110790, Note_off_c, 9, 42, 70
1, 110860, Note_off_c, 1, 27, 122
1, 110978, Note_on_c, 9, 38, 120
1, 110978, Note_on_c, 9, 42, 78
1, 110978, Note_on_c, 9, 47, 60
1, 110982, Note_off_c, 9, 42, 78
1, 110982, Note_off_c, 9, 38, 120
1, 110982, Note_off_c, 9, 47, 60
1, 111058, Note_off_c, 5, 58, 80
1, 111162, Note_on_c, 5, 60, 80
1, 111162, Note_on_c, 5, 68, 80
1, 111170, Note_on_c, 9, 42, 70
1, 111170, Note_on_c, 6, 63, 89
1, 111174, Note_off_c, 9, 42, 70
1, 111174, Note_on_c, 1, 32, 122
1, 111176, Note_on_c, 9, 70, 60
1, 111176, Note_on_c, 6, 56, 89
1, 111176, Note_on_c, 6, 60, 89
1, 111178, Note_off_c, 9, 70, 60
1, 111178, Note_on_c, 6, 68, 89
1, 111182, Note_off_c, 5, 67, 80
1, 111266, Note_on_c, 9, 70, 60
1, 111268, Note_off_c, 9, 70, 60
1, 111286, Note_off_c, 6, 68, 89
1, 111298, Note_off_c, 6, 60, 89
1, 111302, Note_off_c, 6, 56, 89
1, 111306, Note_off_c, 6, 63, 89
1, 111334, Note_off_c, 1, 32, 122
1, 111362, Note_on_c, 9, 42, 82
1, 111362, Note_on_c, 9, 47, 62
1, 111362, Note_on_c, 9, 36, 100
1, 111364, Note_off_c, 9, 47, 62
1, 111366, Note_off_c, 9, 42, 82
1, 111366, Note_off_c, 9, 36, 100
1, 111558, Note_on_c, 9, 42, 70
1, 111558, Note_on_c, 9, 36, 100
1, 111558, Note_on_c, 6, 56, 89
1, 111558, Note_on_c, 6, 60, 89
1, 111562, Note_off_c, 9, 42, 70
1, 111562, Note_on_c, 9, 67, 70
1, 111562, Note_on_c, 1, 32, 122
1, 111564, Note_on_c, 6, 63, 89
1, 111564, Note_on_c, 6, 68, 89
1, 111566, Note_off_c, 9, 36, 100
1, 111566, Note_off_c, 9, 67, 70
1, 111654, Note_on_c, 9, 67, 70
1, 111656, Note_off_c, 9, 67, 70
1, 111678, Note_off_c, 6, 68, 89
1, 111686, Note_off_c, 6, 60, 89
1, 111690, Note_off_c, 6, 63, 89
1, 111710, Note_off_c, 6, 56, 89
1, 111742, Note_off_c, 1, 32, 122
1, 111750, Note_on_c, 9, 38, 120
1, 111750, Note_on_c, 9, 42, 78
1, 111750, Note_on_c, 9, 47, 60
1, 111752, Note_off_c, 9, 47, 60
1, 111754, Note_off_c, 9, 42, 78
1, 111754, Note_off_c, 9, 38, 120
1, 111940, Note_on_c, 1, 29, 122
1, 111942, Note_on_c, 9, 42, 70
1, 111942, Note_on_c, 6, 53, 89
1, 111944, Note_on_c, 6, 60, 89
1, 111944, Note_on_c, 6, 63, 89
1, 111946, Note_off_c, 9, 42, 70
1, 111946, Note_on_c, 6, 68, 89
1, 112062, Note_off_c, 6, 60, 89
1, 112074, Note_off_c, 6, 68, 89
1, 112078, Note_off_c, 6, 63, 89
1, 112080, Note_off_c, 6, 53, 89
1, 112132, Note_on_c, 9, 42, 82
1, 112132, Note_on_c, 9, 36, 100
1, 112134, Note_on_c, 9, 47, 62
1, 112134, Note_on_c, 9, 67, 60
1, 112136, Note_off_c, 9, 47, 62
1, 112136, Note_off_c, 9, 67, 60
1, 112138, Note_off_c, 9, 42, 82
1, 112138, Note_off_c, 9, 36, 100
1, 112190, Note_off_c, 1, 29, 122
1, 112192, Note_off_c, 3, 82, 127
1, 112226, Note_off_c, 3, 70, 127
1, 112228, Note_on_c, 9, 67, 70
1, 112232, Note_off_c, 9, 67, 70
1, 112320, Note_on_c, 3, 80, 127
1, 112320, Note_on_c, 3, 68, 127
1, 112326, Note_on_c, 9, 42, 70
1, 112326, Note_on_c, 9, 70, 60
1, 112326, Note_on_c, 9, 36, 100
1, 112328, Note_off_c, 9, 70, 60
1, 112330, Note_off_c, 9, 42, 70
1, 112330, Note_off_c, 9, 36, 100
1, 112362, Note_off_c, 3, 68, 127
1, 112366, Note_off_c, 3, 80, 127
1, 112416, Note_on_c, 3, 80, 127
1, 112416, Note_on_c, 3, 68, 127
1, 112456, Note_off_c, 3, 68, 127
1, 112466, Note_off_c, 3, 80, 127
1, 112512, Note_on_c, 3, 68, 127
1, 112512, Note_on_c, 3, 80, 127
1, 112518, Note_on_c, 9, 38, 120
1, 112518, Note_on_c, 9, 42, 78
1, 112518, Note_on_c, 9, 47, 60
1, 112518, Note_on_c, 9, 67, 70
1, 112522, Note_off_c, 9, 42, 78
1, 112522, Note_off_c, 9, 38, 120
1, 112522, Note_off_c, 9, 67, 70
1, 112522, Note_off_c, 9, 47, 60
1, 112624, Note_off_c, 3, 80, 127
1, 112634, Note_off_c, 3, 68, 127
1, 112704, Note_on_c, 3, 67, 127
1, 112704, Note_on_c, 3, 79, 127
1, 112706, Note_on_c, 9, 42, 70
1, 112708, Note_off_c, 9, 42, 70
1, 112710, Note_on_c, 9, 70, 60
1, 112710, Note_on_c, 1, 29, 122
1, 112714, Note_off_c, 9, 70, 60
1, 112730, Note_off_c, 3, 79, 127
1, 112738, Note_off_c, 3, 67, 127
1, 112754, Note_off_c, 5, 63, 80
1, 112800, Note_on_c, 3, 67, 127
1, 112800, Note_on_c, 3, 79, 127
1, 112802, Note_on_c, 9, 70, 60
1, 112804, Note_off_c, 9, 70, 60
1, 112834, Note_off_c, 5, 60, 80
1, 112848, Note_off_c, 3, 79, 127
1, 112858, Note_off_c, 3, 67, 127
1, 112860, Note_off_c, 5, 68, 80
1, 112890, Note_off_c, 1, 29, 122
1, 112892, Note_on_c, 5, 62, 80
1, 112892, Note_on_c, 5, 65, 80
1, 112892, Note_on_c, 5, 70, 80
1, 112896, Note_on_c, 3, 67, 127
1, 112896, Note_on_c, 3, 79, 127
1, 112898, Note_on_c, 9, 42, 82
1, 112902, Note_on_c, 9, 47, 62
1, 112902, Note_on_c, 9, 36, 100
1, 112902, Note_on_c, 1, 34, 122
1, 112902, Note_on_c, 6, 65, 89
1, 112904, Note_on_c, 6, 62, 89
1, 112906, Note_off_c, 9, 42, 82
1, 112906, Note_off_c, 9, 47, 62
1, 112906, Note_off_c, 9, 36, 100
1, 112908, Note_on_c, 6, 58, 89
1, 112908, Note_on_c, 6, 70, 89
1, 112984, Note_off_c, 3, 79, 127
1, 113008, Note_off_c, 3, 67, 127
1, 113018, Note_off_c, 6, 58, 89
1, 113024, Note_off_c, 6, 70, 89
1, 113024, Note_off_c, 6, 62, 89
1, 113042, Note_off_c, 6, 65, 89
1, 113086, Note_off_c, 1, 34, 122
1, 113088, Note_on_c, 3, 65, 127
1, 113088, Note_on_c, 3, 77, 127
1, 113090, Note_on_c, 9, 42, 70
1, 113090, Note_on_c, 9, 36, 100
1, 113092, Note_off_c, 9, 36, 100
1, 113094, Note_off_c, 9, 42, 70
1, 113094, Note_on_c, 9, 67, 60
1, 113098, Note_off_c, 9, 67, 60
1, 113134, Note_off_c, 3, 65, 127
1, 113182, Note_off_c, 3, 77, 127
1, 113184, Note_on_c, 3, 65, 127
1, 113184, Note_on_c, 3, 77, 127
1, 113218, Note_off_c, 3, 65, 127
1, 113278, Note_off_c, 3, 77, 127
1, 113280, Note_on_c, 3, 65, 127
1, 113280, Note_on_c, 3, 77, 127
1, 113282, Note_on_c, 9, 38, 120
1, 113282, Note_on_c, 6, 65, 89
1, 113286, Note_on_c, 9, 42, 78
1, 113286, Note_on_c, 9, 47, 60
1, 113286, Note_on_c, 1, 34, 122
1, 113286, Note_on_c, 6, 70, 89
1, 113288, Note_on_c, 6, 62, 89
1, 113290, Note_off_c, 9, 42, 78
1, 113290, Note_off_c, 9, 38, 120
1, 113290, Note_off_c, 9, 47, 60
1, 113292, Note_on_c, 6, 58, 89
1, 113402, Note_off_c, 6, 58, 89
1, 113410, Note_off_c, 6, 70, 89
1, 113418, Note_off_c, 6, 62, 89
1, 113430, Note_off_c, 6, 65, 89
1, 113450, Note_off_c, 5, 62, 80
1, 113470, Note_off_c, 3, 77, 127
1, 113470, Note_off_c, 3, 65, 127
1, 113472, Note_on_c, 3, 63, 127
1, 113472, Note_on_c, 3, 75, 127
1, 113474, Note_on_c, 9, 42, 70
1, 113476, Note_off_c, 9, 42, 70
1, 113490, Note_off_c, 5, 65, 80
1, 113498, Note_off_c, 5, 70, 80
1, 113544, Note_off_c, 3, 75, 127
1, 113546, Note_off_c, 1, 34, 122
1, 113564, Note_off_c, 3, 63, 127
1, 113568, Note_on_c, 3, 65, 127
1, 113568, Note_on_c, 3, 77, 127
1, 113654, Note_on_c, 5, 58, 80
1, 113658, Note_on_c, 5, 63, 80
1, 113660, Note_on_c, 5, 67, 80
1, 113662, Note_off_c, 3, 77, 127
1, 113662, Note_off_c, 3, 65, 127
1, 113664, Note_on_c, 3, 67, 127
1, 113664, Note_on_c, 3, 79, 127
1, 113668, Note_on_c, 9, 42, 82
1, 113668, Note_on_c, 9, 36, 100
1, 113670, Note_on_c, 9, 47, 62
1, 113670, Note_on_c, 9, 67, 60
1, 113670, Note_on_c, 1, 27, 122
1, 113672, Note_on_c, 6, 51, 89
1, 113672, Note_on_c, 6, 58, 89
1, 113674, Note_off_c, 9, 42, 82
1, 113674, Note_off_c, 9, 47, 62
1, 113674, Note_off_c, 9, 36, 100
1, 113674, Note_on_c, 6, 63, 89
1, 113676, Note_on_c, 6, 67, 89
1, 113678, Note_off_c, 9, 67, 60
1, 113740, Note_off_c, 3, 79, 127
1, 113770, Note_off_c, 3, 67, 127
1, 113782, Note_off_c, 6, 51, 89
1, 113786, Note_off_c, 6, 58, 89
1, 113794, Note_off_c, 6, 63, 89
1, 113814, Note_off_c, 6, 67, 89
1, 113856, Note_on_c, 3, 63, 127
1, 113856, Note_on_c, 3, 75, 127
1, 113858, Note_on_c, 9, 42, 70
1, 113858, Note_on_c, 9, 70, 60
1, 113858, Note_on_c, 9, 36, 100
1, 113860, Note_off_c, 9, 70, 60
1, 113862, Note_off_c, 9, 42, 70
1, 113862, Note_off_c, 9, 36, 100
1, 113938, Note_off_c, 3, 75, 127
1, 113958, Note_off_c, 1, 27, 122
1, 113964, Note_off_c, 3, 63, 127
1, 114054, Note_on_c, 9, 38, 120
1, 114054, Note_on_c, 9, 42, 78
1, 114054, Note_on_c, 9, 47, 60
1, 114056, Note_off_c, 9, 47, 60
1, 114058, Note_off_c, 9, 42, 78
1, 114058, Note_off_c, 9, 38, 120
1, 114116, Note_off_c, 5, 58, 80
1, 114132, Note_off_c, 5, 63, 80
1, 114138, Note_off_c, 5, 67, 80
1, 114234, Note_on_c, 5, 60, 80
1, 114234, Note_on_c, 5, 63, 80
1, 114238, Note_on_c, 5, 68, 80
1, 114240, Note_on_c, 3, 70, 127
1, 114240, Note_on_c, 3, 58, 127
1, 114244, Note_on_c, 9, 42, 70
1, 114246, Note_on_c, 9, 70, 60
1, 114246, Note_on_c, 6, 60, 89
1, 114248, Note_on_c, 6, 63, 89
1, 114250, Note_off_c, 9, 42, 70
1, 114250, Note_off_c, 9, 70, 60
1, 114250, Note_on_c, 1, 32, 122
1, 114252, Note_on_c, 6, 56, 89
1, 114252, Note_on_c, 6, 68, 89
1, 114342, Note_on_c, 9, 70, 60
1, 114344, Note_off_c, 9, 70, 60
1, 114346, Note_off_c, 6, 56, 89
1, 114350, Note_off_c, 6, 68, 89
1, 114358, Note_off_c, 6, 63, 89
1, 114366, Note_off_c, 6, 60, 89
1, 114414, Note_off_c, 1, 32, 122
1, 114438, Note_on_c, 9, 42, 82
1, 114438, Note_on_c, 9, 46, 90
1, 114438, Note_on_c, 9, 47, 62
1, 114438, Note_on_c, 9, 36, 100
1, 114440, Note_off_c, 9, 46, 90
1, 114442, Note_off_c, 9, 42, 82
1, 114442, Note_off_c, 9, 47, 62
1, 114442, Note_off_c, 9, 36, 100
1, 114534, Note_on_c, 9, 46, 60
1, 114538, Note_off_c, 9, 46, 60
1, 114630, Note_on_c, 9, 42, 70
1, 114630, Note_on_c, 9, 67, 60
1, 114630, Note_on_c, 9, 36, 100
1, 114632, Note_on_c, 6, 56, 89
1, 114632, Note_on_c, 6, 60, 89
1, 114634, Note_off_c, 9, 42, 70
1, 114634, Note_off_c, 9, 36, 100
1, 114634, Note_on_c, 1, 32, 122
1, 114636, Note_off_c, 9, 67, 60
1, 114636, Note_on_c, 6, 63, 89
1, 114636, Note_on_c, 6, 68, 89
1, 114730, Note_off_c, 6, 68, 89
1, 114742, Note_off_c, 6, 63, 89
1, 114742, Note_off_c, 6, 60, 89
1, 114750, Note_off_c, 6, 56, 89
1, 114798, Note_off_c, 1, 32, 122
1, 114822, Note_on_c, 9, 38, 120
1, 114822, Note_on_c, 9, 42, 78
1, 114822, Note_on_c, 9, 47, 60
1, 114826, Note_off_c, 9, 42, 78
1, 114826, Note_off_c, 9, 38, 120
1, 114826, Note_off_c, 9, 47, 60
1, 114982, Note_on_c, 9, 46, 60
1, 114986, Note_off_c, 9, 46, 60
1, 115014, Note_on_c, 9, 42, 70
1, 115014, Note_on_c, 9, 46, 90
1, 115014, Note_on_c, 6, 68, 89
1, 115016, Note_on_c, 6, 60, 89
1, 115016, Note_on_c, 6, 63, 89
1, 115018, Note_off_c, 9, 46, 90
1, 115018, Note_off_c, 9, 42, 70
1, 115020, Note_on_c, 1, 29, 122
1, 115020, Note_on_c, 6, 53, 89
1, 115110, Note_off_c, 6, 60, 89
1, 115126, Note_off_c, 6, 63, 89
1, 115130, Note_off_c, 6, 68, 89
1, 115148, Note_off_c, 6, 53, 89
1, 115190, Note_off_c, 1, 29, 122
1, 115204, Note_on_c, 9, 36, 100
1, 115206, Note_on_c, 9, 42, 82
1, 115206, Note_on_c, 9, 47, 62
1, 115206, Note_on_c, 9, 67, 60
1, 115208, Note_off_c, 9, 67, 60
1, 115210, Note_off_c, 9, 42, 82
1, 115210, Note_off_c, 9, 47, 62
1, 115210, Note_off_c, 9, 36, 100
1, 115298, Note_on_c, 9, 67, 70
1, 115300, Note_off_c, 9, 67, 70
1, 115394, Note_on_c, 6, 63, 89
1, 115398, Note_on_c, 9, 42, 70
1, 115398, Note_on_c, 9, 70, 60
1, 115398, Note_on_c, 9, 36, 100
1, 115398, Note_on_c, 6, 53, 89
1, 115400, Note_on_c, 6, 72, 89
1, 115402, Note_off_c, 9, 42, 70
1, 115402, Note_off_c, 9, 36, 100
1, 115402, Note_off_c, 9, 70, 60
1, 115404, Note_on_c, 1, 32, 122
1, 115404, Note_on_c, 6, 68, 89
1, 115502, Note_off_c, 6, 72, 89
1, 115510, Note_off_c, 6, 68, 89
1, 115510, Note_off_c, 6, 53, 89
1, 115534, Note_off_c, 6, 63, 89
1, 115582, Note_off_c, 1, 32, 122
1, 115586, Note_on_c, 9, 38, 120
1, 115586, Note_on_c, 9, 42, 78
1, 115588, Note_off_c, 9, 42, 78
1, 115590, Note_off_c, 9, 38, 120
1, 115590, Note_on_c, 9, 47, 60
1, 115592, Note_on_c, 9, 67, 70
1, 115594, Note_off_c, 9, 67, 70
1, 115594, Note_off_c, 9, 47, 60
1, 115778, Note_on_c, 9, 42, 70
1, 115778, Note_on_c, 6, 65, 89
1, 115782, Note_on_c, 9, 70, 60
1, 115782, Note_on_c, 1, 29, 122
1, 115782, Note_on_c, 6, 58, 89
1, 115784, Note_on_c, 6, 63, 89
1, 115784, Note_on_c, 6, 70, 89
1, 115786, Note_off_c, 9, 42, 70
1, 115786, Note_off_c, 9, 70, 60
1, 115790, Note_off_c, 5, 63, 80
1, 115822, Note_off_c, 5, 68, 80
1, 115822, Note_off_c, 5, 60, 80
1, 115874, Note_on_c, 9, 70, 60
1, 115876, Note_off_c, 9, 70, 60
1, 115898, Note_off_c, 6, 58, 89
1, 115902, Note_off_c, 6, 70, 89
1, 115906, Note_off_c, 6, 65, 89
1, 115910, Note_off_c, 6, 63, 89
1, 115950, Note_off_c, 1, 29, 122
1, 115956, Note_on_c, 5, 65, 80
1, 115962, Note_on_c, 5, 62, 80
1, 115962, Note_on_c, 5, 70, 80
1, 115970, Note_on_c, 9, 42, 82
1, 115970, Note_on_c, 9, 47, 62
1, 115970, Note_on_c, 9, 36, 100
1, 115972, Note_off_c, 9, 47, 62
1, 115972, Note_off_c, 9, 36, 100
1, 115974, Note_off_c, 9, 42, 82
1, 115990, Note_off_c, 3, 70, 127
1, 116162, Note_on_c, 9, 42, 70
1, 116162, Note_on_c, 6, 62, 89
1, 116166, Note_on_c, 9, 67, 60
1, 116166, Note_on_c, 9, 36, 100
1, 116166, Note_on_c, 1, 34, 122
1, 116168, Note_on_c, 6, 58, 89
1, 116168, Note_on_c, 6, 65, 89
1, 116168, Note_on_c, 6, 70, 89
1, 116170, Note_off_c, 9, 42, 70
1, 116170, Note_off_c, 9, 36, 100
1, 116170, Note_off_c, 9, 67, 60
1, 116296, Note_off_c, 3, 58, 127
1, 116358, Note_on_c, 9, 38, 120
1, 116358, Note_on_c, 9, 42, 78
1, 116358, Note_on_c, 9, 47, 60
1, 116360, Note_off_c, 9, 47, 60
1, 116362, Note_off_c, 9, 42, 78
1, 116362, Note_off_c, 9, 38, 120
1, 116486, Note_off_c, 1, 34, 122
1, 116494, Note_off_c, 6, 70, 89
1, 116508, Note_off_c, 6, 65, 89
1, 116522, Note_off_c, 6, 58, 89
1, 116526, Note_off_c, 6, 62, 89
1, 116528, Note_off_c, 5, 62, 80
1, 116550, Note_on_c, 9, 42, 70
1, 116550, Note_on_c, 9, 36, 100
1, 116552, Note_off_c, 9, 36, 100
1, 116554, Note_off_c, 9, 42, 70
1, 116558, Note_off_c, 5, 70, 80
1, 116568, Note_off_c, 5, 65, 80
1, 116730, Note_on_c, 5, 58, 80
1, 116730, Note_on_c, 5, 67, 80
1, 116734, Note_on_c, 5, 63, 80
1, 116736, Note_on_c, 3, 63, 127
1, 116736, Note_on_c, 3, 75, 127
1, 116740, Note_on_c, 9, 42, 82
1, 116740, Note_on_c, 9, 36, 100
1, 116742, Note_on_c, 6, 63, 89
1, 116744, Note_on_c, 1, 27, 122
1, 116746, Note_on_c, 9, 47, 62
1, 116746, Note_on_c, 9, 51, 55
1, 116746, Note_on_c, 9, 67, 60
1, 116748, Note_off_c, 9, 47, 62
1, 116748, Note_off_c, 9, 67, 60
1, 116748, Note_on_c, 6, 58, 89
1, 116748, Note_on_c, 6, 67, 89
1, 116750, Note_off_c, 9, 51, 55
1, 116750, Note_off_c, 9, 42, 82
1, 116750, Note_off_c, 9, 36, 100
1, 116752, Note_on_c, 6, 51, 89
1, 116814, Note_off_c, 3, 63, 127
1, 116830, Note_off_c, 3, 75, 127
1, 116832, Note_on_c, 3, 77, 127
1, 116832, Note_on_c, 3, 65, 127
1, 116862, Note_off_c, 6, 58, 89
1, 116862, Note_off_c, 6, 63, 89
1, 116870, Note_off_c, 6, 51, 89
1, 116886, Note_off_c, 6, 67, 89
1, 116926, Note_off_c, 3, 65, 127
1, 116926, Note_off_c, 3, 77, 127
1, 116928, Note_on_c, 3, 67, 127
1, 116928, Note_on_c, 3, 79, 127
1, 116928, Note_on_c, 3, 79, 127
1, 116932, Note_on_c, 9, 42, 70
1, 116934, Note_on_c, 9, 70, 60
1, 116936, Note_off_c, 9, 70, 60
1, 116938, Note_off_c, 9, 42, 70
1, 117006, Note_off_c, 1, 27, 122
1, 117016, Note_off_c, 3, 79, 127
1, 117020, Note_off_c, 3, 67, 127
1, 117126, Note_on_c, 9, 38, 120
1, 117126, Note_on_c, 9, 42, 78
1, 117126, Note_on_c, 9, 47, 60
1, 117128, Note_off_c, 9, 47, 60
1, 117130, Note_off_c, 9, 42, 78
1, 117130, Note_off_c, 9, 38, 120
1, 117186, Note_off_c, 5, 58, 80
1, 117204, Note_off_c, 5, 63, 80
1, 117212, Note_off_c, 5, 67, 80
1, 117306, Note_on_c, 5, 60, 80
1, 117306, Note_on_c, 5, 63, 80
1, 117306, Note_on_c, 5, 68, 80
1, 117318, Note_on_c, 9, 42, 70
1, 117318, Note_on_c, 9, 70, 60
1, 117318, Note_on_c, 1, 32, 122
1, 117320, Note_on_c, 6, 56, 89
1, 117320, Note_on_c, 6, 60, 89
1, 117320, Note_on_c, 6, 63, 89
1, 117322, Note_off_c, 9, 42, 70
1, 117322, Note_off_c, 9, 70, 60
1, 117324, Note_on_c, 6, 68, 89
1, 117414, Note_on_c, 9, 70, 60
1, 117418, Note_off_c, 9, 70, 60
1, 117434, Note_off_c, 6, 68, 89
1, 117446, Note_off_c, 6, 60, 89
1, 117446, Note_off_c, 6, 56, 89
1, 117454, Note_off_c, 6, 63, 89
1, 117482, Note_off_c, 1, 32, 122
1, 117502, Note_off_c, 3, 79, 127
1, 117504, Note_on_c, 3, 75, 127
1, 117504, Note_on_c, 3, 63, 127
1, 117510, Note_on_c, 9, 42, 82
1, 117510, Note_on_c, 9, 47, 62
1, 117510, Note_on_c, 9, 36, 100
1, 117514, Note_off_c, 9, 42, 82
1, 117514, Note_off_c, 9, 47, 62
1, 117514, Note_off_c, 9, 36, 100
1, 117586, Note_off_c, 3, 63, 127
1, 117594, Note_off_c, 3, 75, 127
1, 117600, Note_on_c, 3, 65, 127
1, 117600, Note_on_c, 3, 77, 127
1, 117694, Note_off_c, 3, 77, 127
1, 117694, Note_off_c, 3, 65, 127
1, 117696, Note_on_c, 3, 67, 127
1, 117696, Note_on_c, 3, 79, 127
1, 117698, Note_on_c, 9, 42, 70
1, 117702, Note_on_c, 9, 67, 60
1, 117702, Note_on_c, 9, 36, 100
1, 117702, Note_on_c, 1, 32, 122
1, 117704, Note_on_c, 6, 56, 89
1, 117704, Note_on_c, 6, 60, 89
1, 117706, Note_off_c, 9, 42, 70
1, 117706, Note_off_c, 9, 36, 100
1, 117706, Note_off_c, 9, 67, 60
1, 117708, Note_on_c, 6, 63, 89
1, 117708, Note_on_c, 6, 68, 89
1, 117764, Note_off_c, 3, 67, 127
1, 117818, Note_off_c, 6, 68, 89
1, 117826, Note_off_c, 6, 60, 89
1, 117830, Note_off_c, 6, 63, 89
1, 117850, Note_off_c, 6, 56, 89
1, 117882, Note_off_c, 1, 32, 122
1, 117890, Note_on_c, 9, 38, 120
1, 117892, Note_off_c, 9, 38, 120
1, 117894, Note_on_c, 9, 42, 78
1, 117894, Note_on_c, 9, 47, 60
1, 117898, Note_off_c, 9, 42, 78
1, 117898, Note_off_c, 9, 47, 60
1, 118054, Note_on_c, 9, 46, 70
1, 118056, Note_off_c, 9, 46, 70
1, 118082, Note_on_c, 6, 53, 89
1, 118086, Note_on_c, 9, 42, 70
1, 118086, Note_on_c, 9, 46, 90
1, 118086, Note_on_c, 1, 29, 122
1, 118088, Note_on_c, 6, 60, 89
1, 118088, Note_on_c, 6, 63, 89
1, 118088, Note_on_c, 6, 68, 89
1, 118090, Note_off_c, 9, 46, 90
1, 118090, Note_off_c, 9, 42, 70
1, 118206, Note_off_c, 6, 60, 89
1, 118218, Note_off_c, 6, 68, 89
1, 118218, Note_off_c, 6, 53, 89
1, 118224, Note_off_c, 6, 63, 89
1, 118274, Note_on_c, 9, 36, 100
1, 118276, Note_off_c, 9, 36, 100
1, 118278, Note_on_c, 9, 42, 82
1, 118278, Note_on_c, 9, 47, 62
1, 118278, Note_on_c, 9, 67, 60
1, 118280, Note_off_c, 9, 67, 60
1, 118282, Note_off_c, 9, 42, 82
1, 118282, Note_off_c, 9, 47, 62
1, 118332, Note_off_c, 1, 29, 122
1, 118462, Note_off_c, 3, 79, 127
1, 118464, Note_on_c, 3, 68, 127
1, 118464, Note_on_c, 3, 80, 127
1, 118466, Note_on_c, 9, 42, 70
1, 118466, Note_on_c, 9, 70, 60
1, 118466, Note_on_c, 9, 36, 100
1, 118470, Note_off_c, 9, 42, 70
1, 118470, Note_off_c, 9, 36, 100
1, 118470, Note_off_c, 9, 70, 60
1, 118500, Note_off_c, 3, 80, 127
1, 118506, Note_off_c, 3, 68, 127
1, 118560, Note_on_c, 3, 68, 127
1, 118560, Note_on_c, 3, 80, 127
1, 118602, Note_off_c, 3, 80, 127
1, 118610, Note_off_c, 3, 68, 127
1, 118656, Note_on_c, 3, 68, 127
1, 118656, Note_on_c, 3, 80, 127
1, 118658, Note_on_c, 9, 38, 120
1, 118658, Note_on_c, 9, 42, 78
1, 118658, Note_on_c, 9, 47, 60
1, 118662, Note_off_c, 9, 42, 78
1, 118662, Note_off_c, 9, 38, 120
1, 118662, Note_off_c, 9, 47, 60
1, 118764, Note_off_c, 3, 80, 127
1, 118776, Note_off_c, 3, 68, 127
1, 118848, Note_on_c, 3, 67, 127
1, 118848, Note_on_c, 3, 79, 127
1, 118850, Note_on_c, 9, 42, 70
1, 118850, Note_on_c, 9, 70, 60
1, 118850, Note_on_c, 1, 29, 122
1, 118854, Note_off_c, 9, 42, 70
1, 118854, Note_off_c, 9, 70, 60
1, 118890, Note_off_c, 3, 67, 127
1, 118898, Note_off_c, 5, 63, 80
1, 118942, Note_off_c, 3, 79, 127
1, 118944, Note_on_c, 3, 67, 127
1, 118944, Note_on_c, 3, 79, 127
1, 118950, Note_on_c, 9, 70, 60
1, 118952, Note_off_c, 9, 70, 60
1, 118986, Note_off_c, 5, 60, 80
1, 118996, Note_off_c, 3, 67, 127
1, 119022, Note_off_c, 5, 68, 80
1, 119034, Note_on_c, 5, 62, 80
1, 119034, Note_on_c, 5, 65, 80
1, 119034, Note_on_c, 5, 70, 80
1, 119038, Note_off_c, 3, 79, 127
1, 119038, Note_off_c, 1, 29, 122
1, 119040, Note_on_c, 3, 67, 127
1, 119040, Note_on_c, 3, 79, 127
1, 119046, Note_on_c, 9, 42, 82
1, 119046, Note_on_c, 9, 47, 62
1, 119046, Note_on_c, 9, 36, 100
1, 119048, Note_on_c, 6, 62, 89
1, 119048, Note_on_c, 6, 65, 89
1, 119050, Note_off_c, 9, 42, 82
1, 119050, Note_off_c, 9, 36, 100
1, 119050, Note_on_c, 1, 34, 122
1, 119052, Note_on_c, 6, 58, 89
1, 119052, Note_on_c, 6, 70, 89
1, 119054, Note_off_c, 9, 47, 62
1, 119142, Note_off_c, 3, 67, 127
1, 119166, Note_off_c, 6, 70, 89
1, 119168, Note_off_c, 6, 58, 89
1, 119168, Note_off_c, 6, 62, 89
1, 119190, Note_off_c, 6, 65, 89
1, 119228, Note_off_c, 1, 34, 122
1, 119230, Note_off_c, 3, 79, 127
1, 119232, Note_on_c, 3, 65, 127
1, 119232, Note_on_c, 3, 77, 127
1, 119236, Note_on_c, 9, 42, 70
1, 119238, Note_on_c, 9, 67, 60
1, 119238, Note_on_c, 9, 36, 100
1, 119242, Note_off_c, 9, 42, 70
1, 119242, Note_off_c, 9, 36, 100
1, 119242, Note_off_c, 9, 67, 60
1, 119264, Note_off_c, 3, 65, 127
1, 119326, Note_off_c, 3, 77, 127
1, 119328, Note_on_c, 3, 65, 127
1, 119328, Note_on_c, 3, 77, 127
1, 119378, Note_off_c, 3, 65, 127
1, 119422, Note_off_c, 3, 77, 127
1, 119424, Note_on_c, 3, 65, 127
1, 119424, Note_on_c, 3, 77, 127
1, 119428, Note_on_c, 9, 38, 120
1, 119430, Note_on_c, 9, 42, 78
1, 119430, Note_on_c, 9, 47, 60
1, 119430, Note_on_c, 6, 65, 89
1, 119430, Note_on_c, 6, 70, 89
1, 119434, Note_off_c, 9, 42, 78
1, 119434, Note_off_c, 9, 38, 120
1, 119434, Note_on_c, 1, 34, 122
1, 119434, Note_on_c, 6, 62, 89
1, 119436, Note_off_c, 9, 47, 60
1, 119436, Note_on_c, 6, 58, 89
1, 119546, Note_off_c, 6, 58, 89
1, 119558, Note_off_c, 6, 70, 89
1, 119566, Note_off_c, 6, 62, 89
1, 119572, Note_off_c, 6, 65, 89
1, 119582, Note_off_c, 5, 62, 80
1, 119600, Note_off_c, 3, 65, 127
1, 119614, Note_off_c, 3, 77, 127
1, 119616, Note_on_c, 3, 63, 127
1, 119616, Note_on_c, 3, 75, 127
1, 119622, Note_on_c, 9, 42, 70
1, 119626, Note_off_c, 9, 42, 70
1, 119626, Note_off_c, 5, 70, 80
1, 119652, Note_off_c, 5, 65, 80
1, 119690, Note_off_c, 1, 34, 122
1, 119706, Note_off_c, 3, 75, 127
1, 119708, Note_off_c, 3, 63, 127
1, 119712, Note_on_c, 3, 65, 127
1, 119712, Note_on_c, 3, 77, 127
1, 119802, Note_on_c, 5, 63, 80
1, 119802, Note_on_c, 5, 67, 80
1, 119804, Note_off_c, 3, 65, 127
1, 119806, Note_off_c, 3, 77, 124
1, 119806, Note_on_c, 5, 58, 80
1, 119808, Note_on_c, 3, 67, 127
1, 119808, Note_on_c, 3, 79, 127
1, 119812, Note_on_c, 9, 36, 100
1, 119814, Note_on_c, 9, 42, 82
1, 119814, Note_on_c, 9, 47, 62
1, 119814, Note_on_c, 6, 51, 89
1, 119816, Note_off_c, 9, 36, 100
1, 119818, Note_on_c, 9, 67, 60
1, 119818, Note_on_c, 1, 27, 122
1, 119818, Note_on_c, 6, 58, 89
1, 119820, Note_off_c, 9, 47, 62
1, 119820, Note_off_c, 9, 67, 60
1, 119820, Note_on_c, 6, 63, 89
1, 119820, Note_on_c, 6, 67, 89
1, 119822, Note_off_c, 9, 42, 82
1, 119898, Note_off_c, 3, 67, 127
1, 119930, Note_off_c, 6, 58, 89
1, 119930, Note_off_c, 6, 51, 89
1, 119938, Note_off_c, 6, 63, 89
1, 119962, Note_off_c, 6, 67, 89
1, 119998, Note_off_c, 3, 79, 124
1, 120000, Note_on_c, 3, 70, 127
1, 120000, Note_on_c, 3, 82, 127
1, 120006, Note_on_c, 9, 42, 70
1, 120006, Note_on_c, 9, 70, 60
1, 120006, Note_on_c, 9, 36, 100
1, 120010, Note_off_c, 9, 42, 70
1, 120010, Note_off_c, 9, 36, 100
1, 120010, Note_off_c, 9, 70, 60
1, 120090, Note_off_c, 3, 82, 127
1, 120102, Note_off_c, 1, 27, 122
1, 120116, Note_off_c, 3, 70, 127
1, 120198, Note_on_c, 9, 38, 120
1, 120198, Note_on_c, 9, 42, 78
1, 120198, Note_on_c, 9, 47, 60
1, 120198, Note_on_c, 9, 70, 60
1, 120202, Note_off_c, 9, 42, 78
1, 120202, Note_off_c, 9, 38, 120
1, 120202, Note_off_c, 9, 70, 60
1, 120202, Note_off_c, 9, 47, 60
1, 120244, Note_off_c, 5, 58, 80
1, 120248, Note_off_c, 5, 63, 80
1, 120290, Note_on_c, 9, 70, 60
1, 120292, Note_off_c, 9, 70, 60
1, 120326, Note_off_c, 5, 67, 80
1, 120378, Note_on_c, 5, 60, 80
1, 120378, Note_on_c, 5, 63, 80
1, 120380, Note_on_c, 5, 68, 80
1, 120384, Note_on_c, 3, 70, 127
1, 120384, Note_on_c, 3, 82, 127
1, 120386, Note_on_c, 6, 60, 89
1, 120390, Note_on_c, 9, 42, 70
1, 120390, Note_on_c, 9, 67, 60
1, 120390, Note_on_c, 1, 32, 122
1, 120392, Note_on_c, 6, 63, 89
1, 120392, Note_on_c, 6, 68, 89
1, 120394, Note_off_c, 9, 42, 70
1, 120394, Note_off_c, 9, 67, 60
1, 120396, Note_on_c, 6, 56, 89
1, 120482, Note_on_c, 9, 67, 60
1, 120484, Note_off_c, 9, 67, 60
1, 120490, Note_off_c, 6, 56, 89
1, 120494, Note_off_c, 6, 68, 89
1, 120502, Note_off_c, 6, 63, 89
1, 120506, Note_off_c, 6, 60, 89
1, 120558, Note_off_c, 1, 32, 122
1, 120578, Note_on_c, 9, 42, 82
1, 120578, Note_on_c, 9, 36, 100
1, 120580, Note_off_c, 9, 42, 82
1, 120580, Note_off_c, 9, 36, 100
1, 120582, Note_on_c, 9, 47, 62
1, 120584, Note_off_c, 9, 47, 62
1, 120770, Note_on_c, 6, 56, 89
1, 120772, Note_on_c, 9, 42, 70
1, 120774, Note_on_c, 9, 70, 60
1, 120774, Note_on_c, 9, 36, 100
1, 120774, Note_on_c, 6, 60, 89
1, 120774, Note_on_c, 6, 63, 89
1, 120778, Note_off_c, 9, 42, 70
1, 120778, Note_off_c, 9, 36, 100
1, 120778, Note_off_c, 9, 70, 60
1, 120780, Note_on_c, 1, 32, 122
1, 120780, Note_on_c, 6, 68, 89
1, 120874, Note_off_c, 6, 68, 89
1, 120886, Note_off_c, 6, 63, 89
1, 120886, Note_off_c, 6, 60, 89
1, 120894, Note_off_c, 6, 56, 89
1, 120940, Note_off_c, 1, 32, 122
1, 120962, Note_on_c, 9, 38, 120
1, 120962, Note_on_c, 9, 42, 78
1, 120962, Note_on_c, 9, 47, 60
1, 120964, Note_off_c, 9, 47, 60
1, 120966, Note_off_c, 9, 42, 78
1, 120966, Note_off_c, 9, 38, 120
1, 121154, Note_on_c, 9, 42, 70
1, 121154, Note_on_c, 6, 63, 89
1, 121154, Note_on_c, 6, 68, 89
1, 121156, Note_off_c, 9, 42, 70
1, 121158, Note_on_c, 1, 29, 122
1, 121160, Note_on_c, 6, 53, 89
1, 121160, Note_on_c, 6, 60, 89
1, 121250, Note_off_c, 6, 60, 89
1, 121266, Note_off_c, 6, 63, 89
1, 121274, Note_off_c, 6, 68, 89
1, 121290, Note_off_c, 6, 53, 89
1, 121332, Note_off_c, 1, 29, 122
1, 121346, Note_on_c, 9, 36, 100
1, 121348, Note_off_c, 9, 47, 62
1, 121348, Note_on_c, 9, 42, 82
1, 121348, Note_on_c, 9, 47, 62
1, 121350, Note_off_c, 9, 42, 82
1, 121350, Note_off_c, 9, 36, 100
1, 121352, Note_off_c, 9, 67, 60
1, 121352, Note_on_c, 9, 67, 60
1, 121510, Note_on_c, 9, 46, 70
1, 121514, Note_off_c, 9, 46, 70
1, 121542, Note_on_c, 9, 42, 70
1, 121542, Note_on_c, 9, 70, 60
1, 121542, Note_on_c, 9, 36, 100
1, 121544, Note_on_c, 6, 63, 89
1, 121546, Note_off_c, 9, 42, 70
1, 121546, Note_on_c, 9, 46, 90
1, 121546, Note_on_c, 1, 32, 122
1, 121548, Note_on_c, 6, 53, 89
1, 121548, Note_on_c, 6, 72, 89
1, 121550, Note_off_c, 9, 46, 90
1, 121550, Note_off_c, 9, 36, 100
1, 121550, Note_off_c, 9, 70, 60
1, 121552, Note_on_c, 6, 68, 89
1, 121646, Note_off_c, 6, 72, 89
1, 121654, Note_off_c, 6, 53, 89
1, 121658, Note_off_c, 6, 68, 89
1, 121678, Note_off_c, 6, 63, 89
1, 121724, Note_off_c, 1, 32, 122
1, 121732, Note_on_c, 9, 38, 120
1, 121734, Note_on_c, 9, 42, 78
1, 121734, Note_on_c, 9, 47, 60
1, 121736, Note_off_c, 9, 47, 60
1, 121738, Note_off_c, 9, 42, 78
1, 121738, Note_off_c, 9, 38, 120
1, 121926, Note_on_c, 9, 42, 70
1, 121926, Note_on_c, 9, 70, 60
1, 121926, Note_on_c, 6, 58, 89
1, 121926, Note_on_c, 6, 65, 89
1, 121928, Note_on_c, 6, 63, 89
1, 121930, Note_off_c, 9, 42, 70
1, 121930, Note_off_c, 9, 70, 60
1, 121932, Note_on_c, 1, 29, 122
1, 121932, Note_on_c, 6, 70, 89
1, 121934, Note_off_c, 5, 63, 80
1, 121956, Note_off_c, 5, 60, 80
1, 121972, Note_off_c, 5, 68, 80
1, 122022, Note_on_c, 9, 70, 60
1, 122026, Note_off_c, 9, 70, 60
1, 122046, Note_off_c, 6, 70, 89
1, 122046, Note_off_c, 6, 58, 89
1, 122050, Note_off_c, 6, 65, 89
1, 122058, Note_off_c, 6, 63, 89
1, 122094, Note_off_c, 1, 29, 122
1, 122106, Note_on_c, 5, 62, 80
1, 122106, Note_on_c, 5, 65, 80
1, 122106, Note_on_c, 5, 70, 80
1, 122118, Note_on_c, 9, 42, 82
1, 122118, Note_on_c, 9, 47, 62
1, 122118, Note_on_c, 9, 50, 80
1, 122118, Note_on_c, 9, 36, 100
1, 122122, Note_off_c, 9, 50, 80
1, 122122, Note_off_c, 9, 42, 82
1, 122122, Note_off_c, 9, 47, 62
1, 122122, Note_off_c, 9, 36, 100
1, 122182, Note_on_c, 9, 38, 80
1, 122204, Note_off_c, 3, 70, 127
1, 122228, Note_off_c, 9, 38, 80
1, 122246, Note_on_c, 9, 38, 90
1, 122294, Note_off_c, 9, 38, 90
1, 122310, Note_on_c, 9, 38, 112
1, 122310, Note_on_c, 9, 42, 70
1, 122310, Note_on_c, 9, 36, 100
1, 122310, Note_on_c, 6, 62, 89
1, 122312, Note_on_c, 6, 65, 89
1, 122314, Note_off_c, 9, 42, 70
1, 122314, Note_on_c, 9, 67, 60
1, 122314, Note_on_c, 1, 34, 122
1, 122316, Note_on_c, 6, 58, 89
1, 122316, Note_on_c, 6, 70, 89
1, 122318, Note_off_c, 9, 38, 112
1, 122318, Note_off_c, 9, 36, 100
1, 122318, Note_off_c, 9, 67, 60
1, 122322, Note_off_c, 3, 82, 127
1, 122374, Note_on_c, 9, 38, 105
1, 122376, Note_off_c, 9, 38, 105
1, 122438, Note_on_c, 9, 38, 103
1, 122442, Note_off_c, 9, 38, 103
1, 122494, Control_c, 3, 7, 110
1, 122502, Note_on_c, 9, 38, 120
1, 122502, Note_on_c, 9, 42, 78
1, 122502, Note_on_c, 9, 47, 60
1, 122506, Note_off_c, 9, 42, 78
1, 122506, Note_off_c, 9, 38, 120
1, 122506, Note_off_c, 9, 47, 60
1, 122594, Note_on_c, 9, 38, 120
1, 122596, Note_off_c, 9, 38, 120
1, 122620, Note_off_c, 5, 62, 80
1, 122626, Note_off_c, 1, 34, 122
1, 122638, Note_off_c, 6, 70, 89
1, 122638, Note_off_c, 5, 70, 80
1, 122646, Note_off_c, 5, 65, 80
1, 122654, Note_off_c, 6, 65, 89
1, 122662, Note_off_c, 6, 58, 89
1, 122666, Note_off_c, 6, 62, 89
1, 122694, Note_on_c, 9, 42, 70
1, 122694, Note_on_c, 9, 50, 80
1, 122694, Note_on_c, 9, 36, 100
1, 122698, Note_off_c, 9, 50, 80
1, 122698, Note_off_c, 9, 42, 70
1, 122698, Note_off_c, 9, 36, 100
1, 122874, Note_on_c, 5, 58, 80
1, 122874, Note_on_c, 5, 63, 80
1, 122876, Note_on_c, 5, 55, 80
1, 122878, Note_on_c, 5, 67, 80
1, 122880, Note_on_c, 3, 70, 124
1, 122880, Note_on_c, 3, 82, 124
1, 122884, Note_on_c, 9, 36, 100
1, 122886, Note_on_c, 9, 42, 82
1, 122886, Note_on_c, 9, 47, 62
1, 122886, Note_on_c, 9, 51, 55
1, 122886, Note_on_c, 6, 70, 89
1, 122888, Note_off_c, 9, 36, 100
1, 122888, Note_on_c, 6, 67, 89
1, 122890, Note_on_c, 9, 67, 60
1, 122890, Note_on_c, 1, 31, 122
1, 122890, Note_on_c, 6, 63, 89
1, 122892, Note_off_c, 9, 67, 60
1, 122892, Note_on_c, 6, 51, 89
1, 122894, Note_off_c, 9, 51, 55
1, 122894, Note_off_c, 9, 42, 82
1, 122894, Note_off_c, 9, 47, 62
1, 123074, Note_on_c, 9, 42, 70
1, 123074, Note_on_c, 9, 70, 60
1, 123076, Note_off_c, 9, 70, 60
1, 123078, Note_off_c, 9, 42, 70
1, 123266, Note_on_c, 9, 38, 120
1, 123266, Note_on_c, 9, 42, 78
1, 123270, Note_off_c, 9, 42, 78
1, 123270, Note_off_c, 9, 38, 120
1, 123270, Note_on_c, 9, 47, 60
1, 123274, Note_off_c, 9, 47, 60
1, 123382, Note_off_c, 1, 31, 122
1, 123458, Note_on_c, 9, 42, 70
1, 123458, Note_on_c, 9, 36, 100
1, 123460, Note_off_c, 9, 42, 70
1, 123462, Note_off_c, 9, 36, 100
1, 123462, Note_on_c, 1, 31, 122
1, 123464, Note_off_c, 9, 70, 60
1, 123464, Note_on_c, 9, 70, 60
1, 123514, Note_off_c, 1, 31, 122
1, 123554, Note_on_c, 9, 70, 60
1, 123558, Note_off_c, 9, 70, 60
1, 123592, Note_off_c, 3, 70, 124
1, 123606, Note_off_c, 3, 82, 124
1, 123648, Note_on_c, 3, 67, 124
1, 123648, Note_on_c, 3, 79, 124
1, 123650, Note_on_c, 9, 42, 82
1, 123650, Note_on_c, 9, 47, 62
1, 123650, Note_on_c, 9, 36, 100
1, 123654, Note_off_c, 9, 42, 82
1, 123654, Note_off_c, 9, 36, 100
1, 123654, Note_off_c, 9, 47, 62
1, 123656, Note_on_c, 1, 31, 122
1, 123788, Note_off_c, 1, 31, 122
1, 123834, Note_off_c, 3, 67, 124
1, 123838, Note_off_c, 3, 79, 124
1, 123840, Note_on_c, 3, 70, 124
1, 123840, Note_on_c, 3, 82, 124
1, 123844, Note_on_c, 1, 31, 122
1, 123846, Note_on_c, 9, 42, 70
1, 123846, Note_on_c, 9, 67, 60
1, 123848, Note_off_c, 9, 67, 60
1, 123850, Note_off_c, 9, 42, 70
1, 123870, Note_off_c, 1, 31, 122
1, 123938, Note_on_c, 1, 31, 122
1, 124008, Note_off_c, 3, 70, 124
1, 124018, Note_off_c, 3, 82, 124
1, 124026, Note_off_c, 1, 31, 122
1, 124032, Note_on_c, 3, 75, 124
1, 124032, Note_on_c, 3, 87, 124
1, 124038, Note_on_c, 9, 38, 120
1, 124038, Note_on_c, 9, 42, 78
1, 124038, Note_on_c, 1, 34, 122
1, 124040, Note_off_c, 9, 47, 60
1, 124040, Note_on_c, 9, 47, 60
1, 124042, Note_off_c, 9, 42, 78
1, 124042, Note_off_c, 9, 38, 120
1, 124206, Note_off_c, 1, 34, 122
1, 124222, Note_off_c, 3, 87, 124
1, 124222, Note_off_c, 3, 75, 124
1, 124224, Note_on_c, 3, 70, 124
1, 124224, Note_on_c, 3, 82, 124
1, 124230, Note_on_c, 9, 42, 70
1, 124230, Note_on_c, 1, 35, 122
1, 124234, Note_off_c, 9, 42, 70
1, 124286, Note_off_c, 6, 67, 89
1, 124294, Note_off_c, 6, 63, 89
1, 124304, Note_off_c, 6, 51, 89
1, 124304, Note_off_c, 6, 70, 89
1, 124410, Note_on_c, 5, 48, 80
1, 124410, Note_on_c, 5, 70, 80
1, 124420, Note_on_c, 9, 36, 100
1, 124422, Note_on_c, 9, 42, 82
1, 124422, Note_on_c, 6, 48, 89
1, 124424, Note_on_c, 1, 36, 122
1, 124426, Note_on_c, 9, 47, 62
1, 124426, Note_on_c, 9, 67, 60
1, 124426, Note_on_c, 6, 70, 89
1, 124428, Note_off_c, 9, 47, 62
1, 124428, Note_off_c, 9, 67, 60
1, 124428, Note_on_c, 6, 60, 89
1, 124430, Note_off_c, 9, 42, 82
1, 124430, Note_off_c, 9, 36, 100
1, 124432, Note_off_c, 1, 35, 122
1, 124432, Note_off_c, 5, 55, 80
1, 124434, Note_on_c, 6, 63, 89
1, 124434, Note_on_c, 6, 67, 89
1, 124614, Note_on_c, 9, 42, 70
1, 124614, Note_on_c, 9, 70, 60
1, 124618, Note_off_c, 9, 42, 70
1, 124618, Note_off_c, 9, 70, 60
1, 124806, Note_on_c, 9, 38, 120
1, 124806, Note_on_c, 9, 42, 78
1, 124806, Note_on_c, 9, 47, 60
1, 124810, Note_off_c, 9, 42, 78
1, 124810, Note_off_c, 9, 38, 120
1, 124810, Note_off_c, 9, 47, 60
1, 124938, Note_off_c, 1, 36, 122
1, 124998, Note_on_c, 9, 42, 70
1, 124998, Note_on_c, 9, 70, 60
1, 124998, Note_on_c, 9, 36, 100
1, 124998, Note_on_c, 1, 36, 122
1, 125002, Note_off_c, 9, 42, 70
1, 125002, Note_off_c, 9, 70, 60
1, 125002, Note_off_c, 9, 36, 100
1, 125078, Note_off_c, 1, 36, 122
1, 125094, Note_on_c, 9, 70, 60
1, 125098, Note_off_c, 9, 70, 60
1, 125190, Note_on_c, 9, 42, 82
1, 125190, Note_on_c, 9, 47, 62
1, 125190, Note_on_c, 9, 36, 100
1, 125190, Note_on_c, 1, 36, 122
1, 125192, Note_off_c, 9, 47, 62
1, 125194, Note_off_c, 9, 42, 82
1, 125194, Note_off_c, 9, 36, 100
1, 125288, Note_off_c, 3, 70, 124
1, 125324, Note_off_c, 3, 82, 124
1, 125356, Note_off_c, 1, 36, 122
1, 125376, Note_on_c, 3, 70, 124
1, 125376, Note_on_c, 3, 82, 124
1, 125378, Note_on_c, 9, 42, 70
1, 125380, Note_off_c, 9, 42, 70
1, 125382, Note_on_c, 9, 67, 60
1, 125382, Note_on_c, 1, 34, 122
1, 125386, Note_off_c, 9, 67, 60
1, 125518, Note_off_c, 6, 70, 89
1, 125526, Note_off_c, 6, 60, 89
1, 125534, Note_off_c, 6, 63, 89
1, 125536, Note_off_c, 6, 67, 89
1, 125564, Note_off_c, 3, 70, 124
1, 125568, Note_off_c, 3, 82, 124
1, 125568, Note_on_c, 3, 79, 124
1, 125568, Note_on_c, 3, 91, 124
1, 125574, Note_on_c, 9, 38, 120
1, 125574, Note_on_c, 9, 42, 78
1, 125574, Note_on_c, 9, 47, 60
1, 125574, Note_on_c, 6, 70, 89
1, 125576, Note_on_c, 6, 60, 89
1, 125578, Note_off_c, 9, 42, 78
1, 125578, Note_off_c, 9, 38, 120
1, 125578, Note_off_c, 9, 47, 60
1, 125580, Note_on_c, 1, 32, 122
1, 125580, Note_on_c, 6, 63, 89
1, 125580, Note_on_c, 6, 67, 89
1, 125594, Note_off_c, 1, 34, 122
1, 125662, Note_off_c, 5, 58, 80
1, 125708, Note_off_c, 5, 63, 80
1, 125758, Note_off_c, 3, 79, 124
1, 125760, Note_off_c, 3, 91, 124
1, 125760, Note_on_c, 3, 80, 124
1, 125760, Note_on_c, 3, 92, 124
1, 125762, Note_off_c, 1, 32, 122
1, 125766, Note_on_c, 9, 42, 70
1, 125766, Note_on_c, 1, 31, 122
1, 125770, Note_off_c, 9, 42, 70
1, 125834, Note_off_c, 6, 63, 89
1, 125866, Note_off_c, 6, 60, 89
1, 125878, Note_off_c, 6, 67, 89
1, 125886, Note_off_c, 6, 70, 89
1, 125916, Note_off_c, 5, 67, 80
1, 125934, Note_off_c, 1, 31, 122
1, 125946, Note_on_c, 5, 53, 80
1, 125946, Note_on_c, 5, 60, 80
1, 125946, Note_on_c, 5, 63, 80
1, 125946, Note_on_c, 5, 68, 80
1, 125956, Note_on_c, 9, 42, 82
1, 125956, Note_on_c, 9, 36, 100
1, 125958, Note_on_c, 9, 47, 62
1, 125958, Note_on_c, 9, 67, 60
1, 125958, Note_on_c, 6, 60, 89
1, 125958, Note_on_c, 6, 68, 89
1, 125960, Note_off_c, 9, 36, 100
1, 125962, Note_on_c, 1, 29, 122
1, 125962, Note_on_c, 6, 53, 89
1, 125962, Note_on_c, 6, 63, 89
1, 125964, Note_off_c, 9, 47, 62
1, 125964, Note_off_c, 9, 67, 60
1, 125966, Note_off_c, 9, 42, 82
1, 125966, Note_off_c, 5, 70, 80
1, 125968, Note_off_c, 5, 48, 80
1, 125972, Note_off_c, 6, 48, 89
1, 126146, Note_on_c, 9, 42, 70
1, 126146, Note_on_c, 9, 70, 60
1, 126148, Note_off_c, 9, 70, 60
1, 126150, Note_off_c, 9, 42, 70
1, 126338, Note_on_c, 9, 38, 120
1, 126338, Note_on_c, 9, 42, 78
1, 126340, Note_off_c, 9, 42, 78
1, 126342, Note_off_c, 9, 38, 120
1, 126342, Note_on_c, 9, 47, 60
1, 126346, Note_off_c, 9, 47, 60
1, 126434, Note_off_c, 1, 29, 122
1, 126530, Note_on_c, 9, 42, 70
1, 126530, Note_on_c, 9, 70, 60
1, 126530, Note_on_c, 9, 36, 100
1, 126532, Note_off_c, 9, 70, 60
1, 126534, Note_off_c, 9, 42, 70
1, 126534, Note_off_c, 9, 36, 100
1, 126534, Note_on_c, 1, 29, 122
1, 126614, Note_off_c, 1, 29, 122
1, 126626, Note_on_c, 9, 70, 60
1, 126628, Note_off_c, 9, 70, 60
1, 126722, Note_on_c, 9, 42, 82
1, 126722, Note_on_c, 9, 47, 62
1, 126722, Note_on_c, 9, 36, 100
1, 126724, Note_off_c, 9, 47, 62
1, 126726, Note_off_c, 9, 42, 82
1, 126726, Note_off_c, 9, 36, 100
1, 126728, Note_on_c, 1, 29, 122
1, 126914, Note_off_c, 1, 29, 122
1, 126914, Note_on_c, 1, 32, 122
1, 126916, Note_off_c, 9, 67, 60
1, 126916, Note_on_c, 9, 42, 70
1, 126916, Note_on_c, 9, 67, 60
1, 126918, Note_off_c, 9, 42, 70
1, 127106, Note_on_c, 9, 38, 120
1, 127106, Note_on_c, 9, 42, 78
1, 127106, Note_on_c, 9, 47, 60
1, 127108, Note_off_c, 9, 47, 60
1, 127110, Note_off_c, 9, 42, 78
1, 127110, Note_off_c, 9, 38, 120
1, 127112, Note_on_c, 1, 33, 122
1, 127124, Note_off_c, 1, 32, 122
1, 127266, Note_off_c, 6, 53, 89
1, 127274, Note_off_c, 5, 63, 80
1, 127278, Note_off_c, 5, 60, 80
1, 127294, Note_off_c, 6, 63, 89
1, 127298, Note_off_c, 6, 60, 89
1, 127298, Note_on_c, 9, 42, 70
1, 127300, Note_off_c, 9, 42, 70
1, 127302, Note_off_c, 5, 68, 80
1, 127304, Note_on_c, 1, 34, 122
1, 127310, Note_off_c, 6, 68, 89
1, 127310, Note_off_c, 3, 80, 124
1, 127312, Note_off_c, 3, 92, 124
1, 127350, Note_off_c, 1, 33, 122
1, 127426, Note_off_c, 5, 53, 80
1, 127482, Note_on_c, 5, 58, 80
1, 127482, Note_on_c, 5, 72, 80
1, 127486, Note_on_c, 5, 60, 80
1, 127486, Note_on_c, 5, 63, 80
1, 127486, Note_on_c, 5, 68, 80
1, 127492, Note_on_c, 9, 36, 100
1, 127494, Note_on_c, 9, 42, 82
1, 127494, Note_on_c, 6, 58, 89
1, 127496, Note_off_c, 9, 36, 100
1, 127498, Note_on_c, 9, 47, 62
1, 127498, Note_on_c, 9, 67, 60
1, 127498, Note_on_c, 6, 60, 89
1, 127498, Note_on_c, 6, 63, 89
1, 127500, Note_off_c, 9, 67, 60
1, 127502, Note_off_c, 9, 42, 82
1, 127502, Note_off_c, 9, 47, 62
1, 127502, Note_on_c, 6, 68, 89
1, 127686, Note_on_c, 9, 42, 70
1, 127686, Note_on_c, 9, 70, 60
1, 127688, Note_off_c, 9, 70, 60
1, 127690, Note_off_c, 9, 42, 70
1, 127782, Note_on_c, 1, 29, 122
1, 127802, Note_off_c, 1, 34, 122
1, 127878, Note_on_c, 9, 38, 120
1, 127878, Note_on_c, 9, 42, 78
1, 127878, Note_on_c, 9, 47, 60
1, 127880, Note_off_c, 9, 47, 60
1, 127882, Note_off_c, 9, 42, 78
1, 127882, Note_off_c, 9, 38, 120
1, 127914, Note_off_c, 1, 29, 122
1, 128064, Note_on_c, 3, 70, 124
1, 128064, Note_on_c, 3, 70, 124
1, 128068, Note_off_c, 3, 70, 124
1, 128070, Note_on_c, 9, 42, 70
1, 128070, Note_on_c, 9, 70, 60
1, 128070, Note_on_c, 9, 36, 100
1, 128070, Note_on_c, 1, 29, 122
1, 128072, Note_off_c, 9, 70, 60
1, 128074, Note_off_c, 9, 42, 70
1, 128074, Note_off_c, 9, 36, 100
1, 128094, Note_off_c, 1, 29, 122
1, 128140, Note_off_c, 3, 70, 124
1, 128160, Note_on_c, 3, 72, 124
1, 128160, Note_on_c, 3, 72, 124
1, 128164, Note_off_c, 3, 72, 124
1, 128166, Note_on_c, 9, 70, 60
1, 128166, Note_on_c, 1, 29, 122
1, 128168, Note_off_c, 9, 70, 60
1, 128238, Note_off_c, 1, 29, 122
1, 128252, Note_off_c, 3, 72, 124
1, 128256, Note_on_c, 3, 70, 124
1, 128256, Note_on_c, 3, 70, 124
1, 128256, Note_on_c, 3, 72, 124
1, 128260, Note_off_c, 3, 72, 124
1, 128260, Note_off_c, 3, 70, 124
1, 128262, Note_on_c, 9, 42, 82
1, 128262, Note_on_c, 9, 47, 62
1, 128262, Note_on_c, 9, 36, 100
1, 128262, Note_on_c, 1, 34, 122
1, 128264, Note_off_c, 9, 47, 62
1, 128266, Note_off_c, 9, 42, 82
1, 128266, Note_off_c, 9, 36, 100
1, 128328, Note_off_c, 3, 70, 124
1, 128352, Note_on_c, 3, 72, 124
1, 128352, Note_on_c, 3, 70, 124
1, 128414, Note_off_c, 3, 70, 124
1, 128414, Note_off_c, 1, 34, 122
1, 128446, Note_off_c, 3, 72, 124
1, 128448, Note_on_c, 3, 70, 124
1, 128448, Note_on_c, 3, 72, 124
1, 128452, Note_off_c, 3, 72, 124
1, 128454, Note_on_c, 9, 42, 70
1, 128454, Note_on_c, 9, 36, 100
1, 128454, Note_on_c, 1, 34, 122
1, 128456, Note_off_c, 9, 67, 60
1, 128456, Note_on_c, 9, 67, 60
1, 128458, Note_off_c, 9, 42, 70
1, 128458, Note_off_c, 9, 36, 100
1, 128528, Note_off_c, 3, 70, 124
1, 128544, Note_on_c, 3, 72, 124
1, 128544, Note_on_c, 3, 75, 124
1, 128544, Note_on_c, 3, 75, 124
1, 128604, Note_off_c, 3, 72, 124
1, 128614, Note_off_c, 3, 75, 124
1, 128622, Note_off_c, 1, 34, 122
1, 128638, Note_off_c, 3, 75, 124
1, 128640, Note_on_c, 3, 77, 124
1, 128640, Note_on_c, 3, 77, 124
1, 128644, Note_on_c, 1, 29, 122
1, 128646, Note_on_c, 9, 38, 120
1, 128646, Note_on_c, 9, 42, 78
1, 128646, Note_on_c, 9, 47, 60
1, 128648, Note_off_c, 9, 47, 60
1, 128650, Note_off_c, 9, 42, 78
1, 128650, Note_off_c, 9, 38, 120
1, 128734, Note_off_c, 3, 77, 124
1, 128736, Note_off_c, 3, 77, 124
1, 128736, Note_on_c, 3, 79, 124
1, 128736, Note_on_c, 3, 79, 124
1, 128748, Note_off_c, 1, 29, 122
1, 128756, Note_off_c, 5, 58, 80
1, 128766, Note_off_c, 5, 72, 80
1, 128782, Note_off_c, 5, 68, 80
1, 128782, Note_off_c, 5, 60, 80
1, 128794, Note_off_c, 5, 63, 80
1, 128816, Note_off_c, 3, 79, 124
1, 128830, Note_off_c, 3, 79, 124
1, 128832, Note_on_c, 3, 80, 124
1, 128832, Note_on_c, 3, 80, 124
1, 128834, Note_on_c, 9, 42, 70
1, 128836, Note_off_c, 9, 42, 70
1, 128838, Note_on_c, 1, 29, 122
1, 128840, Note_on_c, 9, 36, 100
1, 128842, Note_off_c, 9, 36, 100
1, 128894, Note_off_c, 6, 68, 89
1, 128898, Note_off_c, 6, 58, 89
1, 128926, Note_off_c, 3, 80, 124
1, 128926, Note_off_c, 3, 80, 124
1, 128926, Note_off_c, 6, 60, 89
1, 128928, Note_on_c, 3, 82, 124
1, 128928, Note_on_c, 3, 82, 124
1, 128942, Note_off_c, 6, 63, 89
1, 128966, Note_off_c, 1, 29, 122
1, 129018, Note_on_c, 5, 55, 80
1, 129018, Note_on_c, 5, 58, 80
1, 129018, Note_on_c, 5, 63, 80
1, 129018, Note_on_c, 5, 67, 80
1, 129028, Note_on_c, 9, 36, 100
1, 129030, Note_on_c, 9, 42, 82
1, 129030, Note_on_c, 9, 47, 62
1, 129030, Note_on_c, 9, 51, 55
1, 129030, Note_on_c, 6, 51, 89
1, 129032, Note_off_c, 9, 36, 100
1, 129032, Note_on_c, 6, 67, 89
1, 129034, Note_on_c, 9, 67, 60
1, 129034, Note_on_c, 1, 31, 122
1, 129034, Note_on_c, 6, 58, 89
1, 129036, Note_off_c, 9, 47, 62
1, 129036, Note_off_c, 9, 67, 60
1, 129036, Note_on_c, 6, 63, 89
1, 129038, Note_off_c, 9, 51, 55
1, 129038, Note_off_c, 9, 42, 82
1, 129048, Note_off_c, 3, 82, 124
1, 129218, Note_on_c, 9, 42, 70
1, 129218, Note_on_c, 9, 70, 60
1, 129220, Note_off_c, 9, 70, 60
1, 129222, Note_off_c, 9, 42, 70
1, 129410, Note_on_c, 9, 38, 120
1, 129410, Note_on_c, 9, 42, 78
1, 129410, Note_on_c, 9, 47, 60
1, 129412, Note_off_c, 9, 47, 60
1, 129414, Note_off_c, 9, 42, 78
1, 129414, Note_off_c, 9, 38, 120
1, 129494, Note_off_c, 1, 31, 122
1, 129598, Note_off_c, 3, 82, 124
1, 129600, Note_on_c, 3, 82, 124
1, 129602, Note_on_c, 9, 42, 70
1, 129602, Note_on_c, 9, 70, 60
1, 129604, Note_off_c, 9, 70, 60
1, 129606, Note_off_c, 9, 42, 70
1, 129606, Note_on_c, 1, 31, 122
1, 129688, Note_off_c, 1, 31, 122
1, 129694, Note_off_c, 3, 82, 124
1, 129696, Note_on_c, 3, 80, 124
1, 129698, Note_on_c, 9, 70, 60
1, 129698, Note_on_c, 9, 36, 100
1, 129700, Note_off_c, 9, 70, 60
1, 129702, Note_off_c, 9, 36, 100
1, 129790, Note_off_c, 3, 80, 127
1, 129792, Note_on_c, 3, 79, 124
1, 129794, Note_on_c, 9, 42, 82
1, 129794, Note_on_c, 9, 47, 62
1, 129794, Note_on_c, 9, 36, 100
1, 129796, Note_off_c, 9, 47, 62
1, 129798, Note_off_c, 9, 42, 82
1, 129798, Note_off_c, 9, 36, 100
1, 129800, Note_on_c, 1, 31, 122
1, 129982, Note_off_c, 3, 79, 124
1, 129984, Note_on_c, 3, 77, 124
1, 129986, Note_on_c, 9, 42, 70
1, 129986, Note_on_c, 9, 67, 60
1, 129986, Note_on_c, 9, 36, 100
1, 129990, Note_off_c, 9, 42, 70
1, 129990, Note_off_c, 9, 36, 100
1, 129990, Note_off_c, 9, 67, 60
1, 130006, Note_off_c, 1, 31, 122
1, 130082, Note_on_c, 1, 31, 122
1, 130154, Note_off_c, 1, 31, 122
1, 130174, Note_off_c, 3, 77, 124
1, 130176, Note_on_c, 3, 79, 124
1, 130182, Note_on_c, 9, 38, 120
1, 130182, Note_on_c, 9, 42, 78
1, 130182, Note_on_c, 9, 47, 60
1, 130182, Note_on_c, 1, 34, 122
1, 130186, Note_off_c, 9, 42, 78
1, 130186, Note_off_c, 9, 38, 120
1, 130186, Note_off_c, 9, 47, 60
1, 130366, Note_off_c, 3, 79, 124
1, 130368, Note_on_c, 3, 94, 124
1, 130368, Note_on_c, 3, 82, 124
1, 130374, Note_on_c, 9, 42, 70
1, 130374, Note_on_c, 9, 36, 100
1, 130374, Note_on_c, 1, 35, 122
1, 130376, Note_off_c, 9, 36, 100
1, 130378, Note_off_c, 9, 42, 70
1, 130394, Note_off_c, 1, 34, 122
1, 130410, Note_off_c, 6, 58, 89
1, 130430, Note_off_c, 6, 63, 89
1, 130430, Note_off_c, 6, 67, 89
1, 130554, Note_on_c, 5, 48, 80
1, 130554, Note_on_c, 5, 70, 80
1, 130558, Note_off_c, 5, 55, 80
1, 130564, Note_on_c, 9, 42, 82
1, 130564, Note_on_c, 9, 36, 100
1, 130566, Note_on_c, 9, 51, 55
1, 130566, Note_on_c, 6, 67, 89
1, 130568, Note_on_c, 1, 36, 122
1, 130570, Note_on_c, 9, 47, 62
1, 130570, Note_on_c, 9, 67, 60
1, 130570, Note_on_c, 6, 60, 89
1, 130570, Note_on_c, 6, 70, 89
1, 130572, Note_off_c, 9, 47, 62
1, 130572, Note_off_c, 9, 67, 60
1, 130574, Note_off_c, 9, 51, 55
1, 130574, Note_off_c, 9, 42, 82
1, 130574, Note_off_c, 9, 36, 100
1, 130576, Note_off_c, 1, 35, 122
1, 130578, Note_on_c, 6, 48, 89
1, 130578, Note_on_c, 6, 63, 89
1, 130598, Note_off_c, 6, 51, 89
1, 130758, Note_on_c, 9, 42, 70
1, 130758, Note_on_c, 9, 70, 60
1, 130760, Note_off_c, 9, 70, 60
1, 130762, Note_off_c, 9, 42, 70
1, 130948, Note_on_c, 9, 38, 120
1, 130950, Note_on_c, 9, 42, 78
1, 130950, Note_on_c, 9, 47, 60
1, 130954, Note_off_c, 9, 42, 78
1, 130954, Note_off_c, 9, 38, 120
1, 130954, Note_off_c, 9, 47, 60
1, 131062, Note_off_c, 1, 36, 122
1, 131140, Note_on_c, 1, 36, 122
1, 131142, Note_on_c, 9, 42, 70
1, 131142, Note_on_c, 9, 70, 60
1, 131146, Note_off_c, 9, 42, 70
1, 131146, Note_off_c, 9, 70, 60
1, 131222, Note_off_c, 1, 36, 122
1, 131238, Note_on_c, 9, 70, 60
1, 131238, Note_on_c, 9, 36, 100
1, 131240, Note_off_c, 9, 70, 60
1, 131242, Note_off_c, 9, 36, 100
1, 131332, Note_on_c, 1, 36, 122
1, 131334, Note_on_c, 9, 42, 82
1, 131334, Note_on_c, 9, 36, 100
1, 131336, Note_on_c, 9, 47, 62
1, 131338, Note_off_c, 9, 42, 82
1, 131338, Note_off_c, 9, 36, 100
1, 131338, Note_off_c, 9, 47, 62
1, 131498, Note_off_c, 1, 36, 122
1, 131526, Note_on_c, 9, 42, 70
1, 131526, Note_on_c, 9, 36, 100
1, 131526, Note_on_c, 1, 34, 122
1, 131528, Note_on_c, 9, 67, 60
1, 131530, Note_off_c, 9, 42, 70
1, 131530, Note_off_c, 9, 36, 100
1, 131530, Note_off_c, 9, 67, 60
1, 131714, Note_on_c, 9, 38, 120
1, 131716, Note_off_c, 9, 38, 120
1, 131718, Note_on_c, 1, 32, 122
1, 131720, Note_on_c, 9, 42, 78
1, 131720, Note_on_c, 9, 47, 60
1, 131722, Note_off_c, 9, 42, 78
1, 131722, Note_off_c, 9, 47, 60
1, 131740, Note_off_c, 1, 34, 122
1, 131854, Note_off_c, 5, 48, 80
1, 131862, Note_off_c, 5, 58, 80
1, 131874, Note_off_c, 5, 67, 80
1, 131874, Note_off_c, 5, 63, 80
1, 131882, Note_off_c, 5, 70, 80
1, 131904, Note_off_c, 3, 94, 124
1, 131906, Note_on_c, 9, 38, 120
1, 131906, Note_on_c, 9, 42, 70
1, 131908, Note_off_c, 9, 38, 120
1, 131910, Note_off_c, 9, 42, 70
1, 131910, Note_on_c, 1, 31, 122
1, 131914, Note_off_c, 1, 32, 122
1, 131950, Note_off_c, 6, 48, 89
1, 131974, Note_off_c, 6, 63, 89
1, 131978, Note_off_c, 6, 70, 89
1, 131982, Note_off_c, 6, 60, 89
1, 132002, Note_on_c, 9, 38, 120
1, 132004, Note_off_c, 9, 38, 120
1, 132008, Note_off_c, 6, 67, 89
1, 132044, Note_off_c, 1, 31, 122
1, 132090, Note_on_c, 5, 60, 80
1, 132090, Note_on_c, 5, 68, 80
1, 132092, Note_on_c, 5, 63, 80
1, 132094, Note_off_c, 3, 82, 124
1, 132094, Note_on_c, 5, 53, 80
1, 132096, Note_on_c, 3, 82, 124
1, 132096, Note_on_c, 3, 94, 124
1, 132100, Note_on_c, 9, 36, 100
1, 132102, Note_on_c, 9, 42, 82
1, 132102, Note_on_c, 9, 47, 62
1, 132102, Note_on_c, 9, 51, 55
1, 132102, Note_on_c, 6, 53, 89
1, 132104, Note_off_c, 9, 36, 100
1, 132104, Note_on_c, 6, 60, 89
1, 132106, Note_on_c, 9, 67, 60
1, 132106, Note_on_c, 1, 29, 122
1, 132106, Note_on_c, 6, 63, 89
1, 132108, Note_off_c, 9, 67, 60
1, 132108, Note_on_c, 6, 68, 89
1, 132110, Note_off_c, 9, 51, 55
1, 132110, Note_off_c, 9, 42, 82
1, 132110, Note_off_c, 9, 47, 62
1, 132290, Note_on_c, 9, 42, 70
1, 132290, Note_on_c, 9, 70, 60
1, 132292, Note_off_c, 9, 42, 70
1, 132292, Note_off_c, 9, 70, 60
1, 132482, Note_on_c, 9, 38, 120
1, 132482, Note_on_c, 9, 42, 78
1, 132482, Note_on_c, 9, 47, 60
1, 132484, Note_off_c, 9, 47, 60
1, 132486, Note_off_c, 9, 42, 78
1, 132486, Note_off_c, 9, 38, 120
1, 132590, Note_off_c, 1, 29, 122
1, 132674, Note_on_c, 9, 42, 70
1, 132674, Note_on_c, 9, 70, 60
1, 132674, Note_on_c, 1, 29, 122
1, 132676, Note_off_c, 9, 42, 70
1, 132676, Note_off_c, 9, 70, 60
1, 132770, Note_on_c, 9, 70, 60
1, 132772, Note_off_c, 9, 70, 60
1, 132778, Note_off_c, 1, 29, 122
1, 132866, Note_on_c, 9, 42, 82
1, 132866, Note_on_c, 9, 47, 62
1, 132866, Note_on_c, 9, 36, 100
1, 132868, Note_off_c, 9, 47, 62
1, 132868, Note_off_c, 9, 36, 100
1, 132870, Note_off_c, 9, 42, 82
1, 132872, Note_on_c, 1, 29, 122
1, 133036, Note_off_c, 1, 29, 122
1, 133062, Note_on_c, 9, 42, 70
1, 133062, Note_on_c, 9, 36, 100
1, 133062, Note_on_c, 1, 32, 122
1, 133064, Note_off_c, 9, 67, 60
1, 133064, Note_on_c, 9, 67, 60
1, 133066, Note_off_c, 9, 42, 70
1, 133066, Note_off_c, 9, 36, 100
1, 133242, Note_off_c, 1, 32, 122
1, 133254, Note_on_c, 9, 38, 120
1, 133254, Note_on_c, 9, 42, 78
1, 133254, Note_on_c, 9, 47, 60
1, 133254, Note_on_c, 1, 33, 122
1, 133256, Note_off_c, 9, 47, 60
1, 133258, Note_off_c, 9, 42, 78
1, 133258, Note_off_c, 9, 38, 120
1, 133402, Note_off_c, 5, 53, 80
1, 133402, Note_off_c, 5, 68, 80
1, 133404, Note_off_c, 5, 63, 80
1, 133412, Note_off_c, 5, 60, 80
1, 133422, Note_off_c, 6, 53, 89
1, 133434, Note_off_c, 1, 33, 122
1, 133438, Note_off_c, 6, 63, 89
1, 133438, Note_off_c, 6, 60, 89
1, 133448, Note_off_c, 6, 68, 89
1, 133448, Note_on_c, 1, 34, 122
1, 133450, Note_on_c, 9, 42, 70
1, 133542, Note_on_c, 6, 52, 89
1, 133546, Note_off_c, 6, 52, 89
1, 133626, Note_on_c, 5, 58, 80
1, 133626, Note_on_c, 5, 60, 80
1, 133626, Note_on_c, 5, 68, 80
1, 133628, Note_on_c, 5, 63, 80
1, 133636, Note_on_c, 9, 42, 82
1, 133636, Note_on_c, 9, 36, 100
1, 133638, Note_on_c, 9, 51, 55
1, 133638, Note_on_c, 6, 58, 89
1, 133640, Note_off_c, 9, 36, 100
1, 133642, Note_on_c, 9, 47, 62
1, 133642, Note_on_c, 9, 67, 60
1, 133642, Note_on_c, 6, 60, 89
1, 133642, Note_on_c, 6, 63, 89
1, 133644, Note_off_c, 9, 67, 60
1, 133646, Note_off_c, 9, 51, 55
1, 133646, Note_off_c, 9, 42, 82
1, 133646, Note_off_c, 9, 47, 62
1, 133648, Note_on_c, 6, 68, 89
1, 133830, Note_on_c, 9, 42, 70
1, 133830, Note_on_c, 9, 70, 60
1, 133834, Note_off_c, 9, 42, 70
1, 133834, Note_off_c, 9, 70, 60
1, 134022, Note_on_c, 9, 38, 120
1, 134022, Note_on_c, 9, 42, 78
1, 134022, Note_on_c, 9, 47, 60
1, 134026, Note_off_c, 9, 38, 120
1, 134026, Note_off_c, 9, 42, 78
1, 134026, Note_off_c, 9, 47, 60
1, 134102, Note_off_c, 6, 60, 89
1, 134106, Note_off_c, 6, 63, 89
1, 134110, Note_off_c, 1, 34, 122
1, 134118, Note_off_c, 6, 68, 89
1, 134210, Note_on_c, 6, 68, 89
1, 134214, Note_on_c, 9, 42, 70
1, 134214, Note_on_c, 9, 70, 60
1, 134214, Note_on_c, 1, 34, 122
1, 134216, Note_on_c, 6, 60, 89
1, 134216, Note_on_c, 6, 63, 89
1, 134218, Note_off_c, 9, 42, 70
1, 134218, Note_off_c, 9, 70, 60
1, 134298, Note_off_c, 6, 60, 89
1, 134306, Note_on_c, 9, 70, 60
1, 134308, Note_off_c, 9, 70, 60
1, 134314, Note_off_c, 6, 63, 89
1, 134316, Note_off_c, 6, 68, 89
1, 134332, Note_off_c, 1, 34, 122
1, 134402, Note_on_c, 9, 42, 82
1, 134406, Note_on_c, 9, 47, 62
1, 134406, Note_on_c, 9, 36, 100
1, 134406, Note_on_c, 1, 34, 122
1, 134406, Note_on_c, 6, 60, 89
1, 134408, Note_on_c, 6, 63, 89
1, 134410, Note_off_c, 9, 42, 82
1, 134410, Note_off_c, 9, 47, 62
1, 134410, Note_off_c, 9, 36, 100
1, 134412, Note_on_c, 6, 68, 89
1, 134594, Note_on_c, 9, 42, 70
1, 134594, Note_on_c, 9, 36, 100
1, 134598, Note_off_c, 9, 36, 100
1, 134598, Note_off_c, 9, 42, 70
1, 134598, Note_on_c, 1, 46, 122
1, 134600, Note_on_c, 9, 67, 60
1, 134602, Note_off_c, 9, 67, 60
1, 134610, Note_off_c, 1, 34, 122
1, 134786, Note_on_c, 9, 38, 120
1, 134786, Note_on_c, 9, 42, 78
1, 134788, Note_off_c, 9, 42, 78
1, 134790, Note_off_c, 9, 38, 120
1, 134790, Note_on_c, 1, 34, 122
1, 134792, Note_on_c, 9, 47, 60
1, 134794, Note_off_c, 1, 46, 122
1, 134794, Note_off_c, 9, 47, 60
1, 134870, Note_off_c, 1, 34, 122
1, 134978, Note_on_c, 9, 42, 70
1, 134978, Note_on_c, 1, 34, 122
1, 134980, Note_off_c, 9, 42, 70
1, 135042, Note_off_c, 1, 34, 122
1, 135098, Note_off_c, 6, 58, 89
1, 135118, Note_off_c, 6, 60, 89
1, 135132, Note_off_c, 6, 68, 89
1, 135132, Note_off_c, 6, 63, 89
1, 135170, Note_on_c, 9, 36, 100
1, 135174, Note_on_c, 9, 42, 82
1, 135174, Note_on_c, 9, 47, 62
1, 135174, Note_on_c, 9, 51, 55
1, 135174, Note_on_c, 9, 67, 60
1, 135176, Note_on_c, 6, 58, 89
1, 135176, Note_on_c, 6, 60, 89
1, 135178, Note_off_c, 9, 42, 82
1, 135178, Note_off_c, 9, 36, 100
1, 135178, Note_on_c, 1, 34, 122
1, 135178, Note_on_c, 6, 70, 89
1, 135180, Note_on_c, 6, 63, 89
1, 135182, Note_off_c, 9, 51, 55
1, 135182, Note_off_c, 9, 47, 62
1, 135182, Note_off_c, 9, 67, 60
1, 135184, Note_on_c, 6, 68, 89
1, 135362, Note_on_c, 9, 42, 70
1, 135362, Note_on_c, 9, 70, 60
1, 135366, Note_off_c, 9, 42, 70
1, 135366, Note_off_c, 9, 70, 60
1, 135554, Note_on_c, 9, 38, 120
1, 135554, Note_on_c, 9, 42, 78
1, 135558, Note_off_c, 9, 38, 120
1, 135558, Note_off_c, 9, 42, 78
1, 135558, Note_on_c, 9, 47, 60
1, 135562, Note_off_c, 9, 47, 60
1, 135642, Note_off_c, 6, 70, 89
1, 135646, Note_off_c, 6, 60, 89
1, 135656, Note_off_c, 6, 63, 89
1, 135674, Note_off_c, 6, 68, 89
1, 135674, Note_off_c, 1, 34, 122
1, 135746, Note_on_c, 9, 42, 70
1, 135746, Note_on_c, 6, 63, 89
1, 135750, Note_on_c, 9, 70, 60
1, 135750, Note_on_c, 1, 34, 122
1, 135750, Note_on_c, 6, 60, 89
1, 135752, Note_on_c, 6, 68, 89
1, 135752, Note_on_c, 6, 70, 89
1, 135754, Note_off_c, 9, 42, 70
1, 135754, Note_off_c, 9, 70, 60
1, 135842, Note_on_c, 9, 70, 60
1, 135846, Note_off_c, 9, 70, 60
1, 135848, Note_off_c, 6, 70, 89
1, 135870, Note_off_c, 6, 60, 89
1, 135874, Note_off_c, 6, 68, 89
1, 135886, Note_off_c, 6, 63, 89
1, 135938, Note_off_c, 1, 34, 122
1, 135938, Note_on_c, 9, 42, 82
1, 135940, Note_on_c, 6, 63, 89
1, 135942, Note_on_c, 9, 47, 62
1, 135942, Note_on_c, 9, 50, 80
1, 135942, Note_on_c, 9, 36, 100
1, 135944, Note_on_c, 6, 60, 89
1, 135944, Note_on_c, 6, 70, 89
1, 135946, Note_off_c, 9, 50, 80
1, 135946, Note_off_c, 9, 42, 82
1, 135946, Note_off_c, 9, 36, 100
1, 135946, Note_on_c, 1, 46, 122
1, 135948, Note_on_c, 6, 68, 89
1, 135950, Note_off_c, 9, 47, 62
1, 136002, Note_on_c, 9, 38, 80
1, 136052, Note_off_c, 9, 38, 80
1, 136066, Note_on_c, 9, 38, 90
1, 136078, Note_off_c, 6, 60, 89
1, 136094, Note_off_c, 6, 68, 89
1, 136094, Note_off_c, 6, 70, 89
1, 136102, Note_off_c, 6, 63, 89
1, 136110, Note_off_c, 1, 46, 122
1, 136118, Note_off_c, 9, 38, 90
1, 136130, Note_on_c, 9, 38, 112
1, 136130, Note_on_c, 9, 42, 70
1, 136130, Note_on_c, 9, 36, 100
1, 136132, Note_off_c, 9, 38, 112
1, 136134, Note_off_c, 9, 36, 100
1, 136134, Note_off_c, 9, 42, 70
1, 136136, Note_on_c, 9, 67, 60
1, 136138, Note_off_c, 9, 67, 60
1, 136194, Note_on_c, 9, 38, 105
1, 136198, Note_off_c, 9, 38, 105
1, 136258, Note_on_c, 9, 38, 103
1, 136260, Note_off_c, 9, 38, 103
1, 136322, Note_on_c, 9, 38, 120
1, 136322, Note_on_c, 9, 42, 78
1, 136322, Note_on_c, 6, 63, 89
1, 136326, Note_on_c, 9, 47, 60
1, 136326, Note_on_c, 1, 34, 122
1, 136326, Note_on_c, 6, 68, 89
1, 136328, Note_on_c, 6, 60, 89
1, 136328, Note_on_c, 6, 70, 89
1, 136330, Note_off_c, 9, 38, 120
1, 136330, Note_off_c, 9, 42, 78
1, 136330, Note_off_c, 9, 47, 60
1, 136418, Note_on_c, 9, 38, 120
1, 136420, Note_off_c, 9, 38, 120
1, 136470, Note_off_c, 6, 58, 89
1, 136478, Note_off_c, 6, 60, 89
1, 136490, Note_off_c, 6, 70, 89
1, 136494, Note_off_c, 6, 63, 89
1, 136496, Note_off_c, 3, 94, 124
1, 136502, Note_off_c, 6, 68, 89
1, 136518, Note_on_c, 9, 42, 70
1, 136518, Note_on_c, 9, 50, 80
1, 136522, Note_off_c, 9, 50, 80
1, 136522, Note_off_c, 9, 42, 70
1, 136538, Note_off_c, 1, 34, 122
1, 136540, Note_off_c, 5, 68, 80
1, 136548, Note_off_c, 5, 63, 80
1, 136550, Note_off_c, 5, 60, 80
1, 136552, Note_off_c, 5, 58, 80
1, 136698, Note_on_c, 5, 67, 80
1, 136702, Note_off_c, 3, 82, 127
1, 136702, Note_on_c, 5, 58, 80
1, 136702, Note_on_c, 5, 63, 80
1, 136704, Note_on_c, 3, 75, 124
1, 136708, Note_on_c, 9, 36, 100
1, 136710, Note_on_c, 9, 42, 82
1, 136710, Note_on_c, 6, 58, 89
1, 136712, Note_on_c, 9, 51, 55
1, 136714, Note_on_c, 9, 47, 62
1, 136714, Note_on_c, 9, 67, 60
1, 136714, Note_on_c, 6, 63, 89
1, 136714, Note_on_c, 6, 67, 89
1, 136716, Note_off_c, 9, 67, 60
1, 136718, Note_off_c, 9, 51, 55
1, 136718, Note_off_c, 9, 42, 82
1, 136718, Note_off_c, 9, 47, 62
1, 136718, Note_off_c, 9, 36, 100
1, 136720, Note_on_c, 1, 27, 122
1, 136902, Note_on_c, 9, 42, 70
1, 136902, Note_on_c, 9, 70, 60
1, 136902, Note_on_c, 1, 29, 122
1, 136906, Note_off_c, 9, 42, 70
1, 136906, Note_off_c, 9, 70, 60
1, 136908, Note_off_c, 1, 27, 122
1, 137060, Note_off_c, 1, 29, 122
1, 137094, Note_on_c, 9, 38, 120
1, 137094, Note_on_c, 9, 42, 78
1, 137094, Note_on_c, 9, 47, 60
1, 137094, Note_on_c, 1, 31, 122
1, 137098, Note_off_c, 9, 38, 120
1, 137098, Note_off_c, 9, 42, 78
1, 137098, Note_off_c, 9, 47, 60
1, 137102, Note_off_c, 6, 63, 89
1, 137110, Note_off_c, 6, 58, 89
1, 137134, Note_off_c, 6, 67, 89
1, 137164, Note_off_c, 5, 58, 80
1, 137182, Note_off_c, 5, 63, 80
1, 137198, Note_off_c, 5, 67, 80
1, 137250, Note_off_c, 1, 31, 122
1, 137274, Note_on_c, 5, 60, 80
1, 137274, Note_on_c, 5, 63, 80
1, 137274, Note_on_c, 5, 68, 80
1, 137278, Note_off_c, 3, 75, 124
1, 137280, Note_on_c, 3, 70, 124
1, 137286, Note_on_c, 9, 42, 70
1, 137286, Note_on_c, 9, 70, 60
1, 137286, Note_on_c, 9, 36, 100
1, 137286, Note_on_c, 6, 63, 89
1, 137288, Note_on_c, 6, 60, 89
1, 137290, Note_off_c, 9, 42, 70
1, 137290, Note_off_c, 9, 36, 100
1, 137290, Note_on_c, 1, 32, 122
1, 137290, Note_on_c, 6, 68, 89
1, 137294, Note_off_c, 9, 70, 60
1, 137360, Note_off_c, 3, 70, 124
1, 137376, Note_on_c, 3, 72, 124
1, 137382, Note_on_c, 9, 70, 60
1, 137384, Note_off_c, 9, 70, 60
1, 137472, Note_off_c, 3, 72, 124
1, 137472, Note_on_c, 3, 75, 124
1, 137478, Note_on_c, 9, 42, 82
1, 137478, Note_on_c, 9, 47, 62
1, 137478, Note_on_c, 9, 36, 100
1, 137480, Note_off_c, 9, 47, 62
1, 137482, Note_off_c, 9, 36, 100
1, 137482, Note_off_c, 9, 42, 82
1, 137598, Note_off_c, 1, 32, 122
1, 137662, Note_off_c, 3, 75, 124
1, 137664, Note_on_c, 3, 72, 124
1, 137666, Note_on_c, 9, 42, 70
1, 137670, Note_off_c, 9, 42, 70
1, 137670, Note_on_c, 1, 32, 122
1, 137672, Note_off_c, 9, 67, 60
1, 137672, Note_on_c, 9, 67, 60
1, 137758, Note_off_c, 3, 72, 124
1, 137760, Note_on_c, 3, 70, 124
1, 137826, Note_off_c, 1, 32, 122
1, 137856, Note_off_c, 3, 70, 124
1, 137856, Note_on_c, 3, 72, 124
1, 137858, Note_on_c, 9, 38, 120
1, 137862, Note_off_c, 9, 38, 120
1, 137862, Note_on_c, 1, 31, 122
1, 137864, Note_off_c, 9, 47, 60
1, 137864, Note_on_c, 9, 42, 78
1, 137864, Note_on_c, 9, 47, 60
1, 137866, Note_off_c, 9, 42, 78
1, 137920, Note_off_c, 3, 72, 124
1, 137922, Note_off_c, 6, 68, 89
1, 137930, Note_off_c, 6, 60, 89
1, 137934, Note_off_c, 6, 63, 89
1, 138030, Note_off_c, 1, 31, 122
1, 138048, Note_on_c, 3, 70, 124
1, 138048, Note_on_c, 3, 75, 124
1, 138050, Note_on_c, 6, 68, 89
1, 138052, Note_on_c, 1, 29, 122
1, 138054, Note_on_c, 9, 42, 70
1, 138054, Note_on_c, 6, 63, 89
1, 138056, Note_on_c, 6, 60, 89
1, 138058, Note_off_c, 9, 42, 70
1, 138242, Note_on_c, 9, 36, 100
1, 138244, Note_off_c, 9, 36, 100
1, 138246, Note_on_c, 9, 42, 82
1, 138246, Note_on_c, 9, 47, 62
1, 138246, Note_on_c, 9, 67, 60
1, 138248, Note_off_c, 9, 47, 62
1, 138248, Note_off_c, 9, 67, 60
1, 138250, Note_off_c, 9, 42, 82
1, 138380, Note_off_c, 1, 29, 122
1, 138434, Note_on_c, 9, 42, 70
1, 138434, Note_on_c, 9, 70, 60
1, 138436, Note_off_c, 9, 70, 60
1, 138438, Note_off_c, 9, 42, 70
1, 138438, Note_on_c, 1, 29, 122
1, 138622, Note_off_c, 1, 29, 122
1, 138626, Note_on_c, 9, 38, 120
1, 138626, Note_on_c, 9, 42, 78
1, 138626, Note_on_c, 9, 47, 60
1, 138628, Note_off_c, 9, 47, 60
1, 138630, Note_off_c, 9, 38, 120
1, 138630, Note_off_c, 9, 42, 78
1, 138632, Note_on_c, 1, 36, 122
1, 138770, Note_off_c, 6, 63, 89
1, 138782, Note_off_c, 6, 60, 89
1, 138794, Note_off_c, 1, 36, 122
1, 138810, Note_off_c, 6, 68, 89
1, 138818, Note_on_c, 9, 42, 70
1, 138818, Note_on_c, 9, 70, 60
1, 138818, Note_on_c, 9, 36, 100
1, 138820, Note_off_c, 9, 70, 60
1, 138822, Note_off_c, 9, 42, 70
1, 138822, Note_off_c, 9, 36, 100
1, 138824, Note_on_c, 1, 29, 122
1, 138826, Note_off_c, 5, 63, 80
1, 138886, Note_off_c, 5, 60, 80
1, 138914, Note_on_c, 9, 70, 60
1, 138916, Note_off_c, 9, 70, 60
1, 138918, Note_off_c, 1, 29, 122
1, 138930, Note_off_c, 5, 68, 80
1, 138998, Note_on_c, 5, 70, 80
1, 139002, Note_on_c, 5, 62, 80
1, 139002, Note_on_c, 5, 65, 80
1, 139010, Note_on_c, 9, 42, 82
1, 139010, Note_on_c, 6, 70, 89
1, 139014, Note_off_c, 9, 42, 82
1, 139014, Note_on_c, 1, 34, 122
1, 139016, Note_on_c, 9, 47, 62
1, 139016, Note_on_c, 9, 36, 100
1, 139016, Note_on_c, 6, 65, 89
1, 139018, Note_on_c, 6, 62, 89
1, 139020, Note_off_c, 9, 36, 100
1, 139020, Note_off_c, 9, 47, 62
1, 139138, Note_off_c, 3, 70, 124
1, 139142, Note_off_c, 6, 62, 89
1, 139154, Note_off_c, 6, 65, 89
1, 139172, Note_off_c, 6, 70, 89
1, 139206, Note_on_c, 9, 42, 70
1, 139206, Note_on_c, 9, 67, 60
1, 139206, Note_on_c, 1, 36, 122
1, 139210, Note_off_c, 9, 42, 70
1, 139210, Note_off_c, 9, 67, 60
1, 139246, Note_off_c, 1, 34, 122
1, 139358, Note_off_c, 1, 36, 122
1, 139390, Note_off_c, 3, 75, 124
1, 139392, Note_on_c, 3, 70, 124
1, 139398, Note_on_c, 9, 38, 120
1, 139398, Note_on_c, 9, 42, 78
1, 139398, Note_on_c, 9, 47, 60
1, 139398, Note_on_c, 6, 70, 89
1, 139400, Note_on_c, 6, 65, 89
1, 139402, Note_off_c, 9, 38, 120
1, 139402, Note_off_c, 9, 42, 78
1, 139402, Note_on_c, 1, 34, 122
1, 139404, Note_on_c, 6, 62, 89
1, 139406, Note_off_c, 9, 47, 60
1, 139534, Note_off_c, 6, 62, 89
1, 139550, Note_off_c, 6, 70, 89
1, 139558, Note_off_c, 6, 65, 89
1, 139562, Note_off_c, 5, 62, 80
1, 139582, Note_off_c, 1, 34, 122
1, 139582, Note_off_c, 3, 70, 124
1, 139584, Note_on_c, 3, 72, 124
1, 139588, Note_on_c, 1, 36, 122
1, 139590, Note_on_c, 9, 42, 70
1, 139592, Note_off_c, 9, 42, 70
1, 139606, Note_off_c, 5, 70, 80
1, 139618, Note_off_c, 5, 65, 80
1, 139682, Note_off_c, 3, 72, 124
1, 139718, Note_off_c, 1, 36, 122
1, 139770, Note_on_c, 5, 58, 80
1, 139770, Note_on_c, 5, 63, 80
1, 139770, Note_on_c, 5, 67, 80
1, 139776, Note_on_c, 3, 67, 124
1, 139776, Note_on_c, 3, 70, 124
1, 139776, Note_on_c, 3, 75, 124
1, 139780, Note_on_c, 9, 42, 82
1, 139780, Note_on_c, 9, 36, 100
1, 139782, Note_on_c, 9, 47, 62
1, 139782, Note_on_c, 6, 58, 89
1, 139782, Note_on_c, 6, 67, 89
1, 139784, Note_off_c, 9, 42, 82
1, 139784, Note_off_c, 9, 36, 100
1, 139786, Note_on_c, 9, 67, 60
1, 139786, Note_on_c, 1, 39, 122
1, 139786, Note_on_c, 6, 63, 89
1, 139788, Note_off_c, 9, 47, 62
1, 139788, Note_off_c, 9, 67, 60
1, 139964, Note_off_c, 1, 39, 122
1, 139970, Note_on_c, 9, 42, 70
1, 139972, Note_off_c, 9, 42, 70
1, 139974, Note_on_c, 1, 34, 122
1, 139976, Note_off_c, 9, 70, 60
1, 139976, Note_on_c, 9, 70, 60
1, 140006, Note_off_c, 3, 70, 124
1, 140020, Note_off_c, 3, 67, 124
1, 140118, Note_off_c, 6, 63, 89
1, 140122, Note_off_c, 6, 58, 89
1, 140134, Note_off_c, 1, 34, 122
1, 140136, Note_off_c, 6, 67, 89
1, 140162, Note_on_c, 9, 38, 120
1, 140164, Note_off_c, 9, 38, 120
1, 140166, Note_on_c, 1, 31, 122
1, 140168, Note_off_c, 9, 47, 60
1, 140168, Note_on_c, 9, 42, 78
1, 140168, Note_on_c, 9, 47, 60
1, 140170, Note_off_c, 9, 42, 78
1, 140226, Note_off_c, 5, 58, 80
1, 140252, Note_off_c, 5, 63, 80
1, 140274, Note_off_c, 5, 67, 80
1, 140310, Note_off_c, 1, 31, 122
1, 140346, Note_on_c, 5, 63, 80
1, 140346, Note_on_c, 5, 68, 80
1, 140348, Note_on_c, 5, 60, 80
1, 140350, Note_off_c, 3, 75, 124
1, 140352, Note_on_c, 3, 60, 124
1, 140352, Note_on_c, 3, 68, 124
1, 140352, Note_on_c, 3, 63, 124
1, 140354, Note_on_c, 9, 36, 100
1, 140354, Note_on_c, 6, 63, 89
1, 140358, Note_on_c, 9, 42, 70
1, 140358, Note_on_c, 9, 70, 60
1, 140358, Note_on_c, 1, 32, 122
1, 140360, Note_on_c, 6, 60, 89
1, 140360, Note_on_c, 6, 68, 89
1, 140362, Note_off_c, 9, 42, 70
1, 140362, Note_off_c, 9, 70, 60
1, 140362, Note_off_c, 9, 36, 100
1, 140450, Note_on_c, 9, 70, 60
1, 140452, Note_off_c, 9, 70, 60
1, 140546, Note_on_c, 9, 42, 82
1, 140546, Note_on_c, 9, 47, 62
1, 140546, Note_on_c, 9, 36, 100
1, 140548, Note_off_c, 9, 47, 62
1, 140550, Note_off_c, 9, 42, 82
1, 140550, Note_off_c, 9, 36, 100
1, 140612, Note_off_c, 3, 68, 124
1, 140616, Note_off_c, 3, 63, 124
1, 140626, Note_off_c, 3, 60, 124
1, 140654, Note_off_c, 1, 32, 122
1, 140738, Note_on_c, 9, 42, 70
1, 140738, Note_on_c, 9, 67, 60
1, 140740, Note_off_c, 9, 67, 60
1, 140742, Note_off_c, 9, 42, 70
1, 140742, Note_on_c, 1, 32, 122
1, 140914, Note_off_c, 1, 32, 122
1, 140930, Note_on_c, 9, 38, 120
1, 140930, Note_on_c, 9, 42, 78
1, 140930, Note_on_c, 9, 47, 60
1, 140932, Note_off_c, 9, 47, 60
1, 140934, Note_off_c, 9, 38, 120
1, 140934, Note_off_c, 9, 42, 78
1, 140936, Note_on_c, 1, 31, 122
1, 141064, Note_off_c, 1, 31, 122
1, 141114, Note_off_c, 6, 68, 89
1, 141118, Note_off_c, 6, 60, 89
1, 141120, Note_on_c, 3, 56, 124
1, 141120, Note_on_c, 3, 60, 124
1, 141120, Note_on_c, 3, 65, 124
1, 141126, Note_off_c, 6, 63, 89
1, 141126, Note_on_c, 9, 42, 70
1, 141130, Note_off_c, 9, 42, 70
1, 141132, Note_on_c, 1, 29, 122
1, 141316, Note_on_c, 9, 36, 100
1, 141318, Note_on_c, 6, 60, 89
1, 141320, Note_off_c, 9, 36, 100
1, 141322, Note_on_c, 9, 42, 82
1, 141322, Note_on_c, 9, 47, 62
1, 141324, Note_off_c, 9, 67, 60
1, 141324, Note_on_c, 9, 67, 60
1, 141324, Note_on_c, 6, 63, 89
1, 141324, Note_on_c, 6, 68, 89
1, 141326, Note_off_c, 9, 42, 82
1, 141326, Note_off_c, 9, 47, 62
1, 141438, Note_off_c, 1, 29, 122
1, 141438, Note_off_c, 3, 56, 124
1, 141460, Note_off_c, 3, 60, 124
1, 141484, Note_off_c, 3, 65, 124
1, 141510, Note_on_c, 9, 42, 70
1, 141510, Note_on_c, 9, 70, 60
1, 141510, Note_on_c, 1, 29, 122
1, 141514, Note_off_c, 9, 42, 70
1, 141514, Note_off_c, 9, 70, 60
1, 141526, Note_off_c, 6, 63, 89
1, 141530, Note_off_c, 6, 60, 89
1, 141546, Note_off_c, 6, 68, 89
1, 141658, Note_off_c, 1, 29, 122
1, 141702, Note_on_c, 9, 38, 120
1, 141702, Note_on_c, 9, 42, 78
1, 141702, Note_on_c, 6, 63, 89
1, 141702, Note_on_c, 6, 68, 89
1, 141706, Note_off_c, 9, 38, 120
1, 141706, Note_on_c, 9, 47, 60
1, 141706, Note_on_c, 1, 36, 122
1, 141708, Note_on_c, 6, 60, 89
1, 141710, Note_off_c, 9, 42, 78
1, 141710, Note_off_c, 9, 47, 60
1, 141876, Note_off_c, 1, 36, 122
1, 141882, Note_off_c, 6, 60, 89
1, 141882, Note_off_c, 6, 68, 89
1, 141886, Note_off_c, 6, 63, 89
1, 141888, Note_on_c, 3, 70, 124
1, 141894, Note_on_c, 9, 42, 70
1, 141894, Note_on_c, 9, 70, 60
1, 141894, Note_on_c, 9, 36, 100
1, 141894, Note_on_c, 1, 29, 122
1, 141898, Note_off_c, 9, 42, 70
1, 141898, Note_off_c, 9, 70, 60
1, 141898, Note_off_c, 9, 36, 100
1, 141910, Note_off_c, 5, 63, 80
1, 141932, Note_off_c, 5, 60, 80
1, 141982, Note_off_c, 3, 70, 124
1, 141984, Note_on_c, 3, 72, 124
1, 141990, Note_on_c, 9, 70, 60
1, 141992, Note_off_c, 9, 70, 60
1, 142026, Note_off_c, 1, 29, 122
1, 142028, Note_off_c, 3, 72, 124
1, 142074, Note_on_c, 5, 62, 80
1, 142074, Note_on_c, 5, 65, 80
1, 142076, Note_off_c, 5, 68, 80
1, 142078, Note_on_c, 5, 58, 80
1, 142080, Note_on_c, 3, 75, 124
1, 142084, Note_on_c, 9, 42, 82
1, 142086, Note_on_c, 9, 47, 62
1, 142086, Note_on_c, 9, 36, 100
1, 142086, Note_on_c, 6, 62, 89
1, 142088, Note_off_c, 9, 36, 100
1, 142088, Note_on_c, 6, 70, 89
1, 142090, Note_off_c, 9, 42, 82
1, 142090, Note_on_c, 1, 34, 122
1, 142090, Note_on_c, 6, 65, 89
1, 142092, Note_off_c, 9, 47, 62
1, 142174, Note_off_c, 3, 75, 124
1, 142176, Note_on_c, 3, 77, 124
1, 142238, Note_off_c, 6, 65, 89
1, 142238, Note_off_c, 6, 70, 89
1, 142240, Note_off_c, 6, 62, 89
1, 142270, Note_off_c, 3, 77, 124
1, 142272, Note_on_c, 3, 79, 124
1, 142276, Note_on_c, 9, 42, 70
1, 142278, Note_on_c, 9, 67, 60
1, 142282, Note_off_c, 9, 42, 70
1, 142282, Note_off_c, 9, 67, 60
1, 142298, Note_off_c, 1, 34, 122
1, 142462, Note_off_c, 3, 79, 124
1, 142464, Note_on_c, 3, 77, 124
1, 142468, Note_on_c, 9, 38, 120
1, 142470, Note_on_c, 9, 42, 78
1, 142470, Note_on_c, 9, 47, 60
1, 142470, Note_on_c, 6, 62, 89
1, 142470, Note_on_c, 6, 65, 89
1, 142474, Note_on_c, 1, 34, 122
1, 142474, Note_on_c, 6, 70, 89
1, 142476, Note_off_c, 9, 47, 60
1, 142476, Note_on_c, 4, 70, 114
1, 142476, Note_on_c, 4, 75, 114
1, 142476, Note_on_c, 4, 87, 114
1, 142478, Note_off_c, 9, 38, 120
1, 142478, Note_off_c, 9, 42, 78
1, 142480, Note_on_c, 4, 82, 114
1, 142482, Note_on_c, 2, 70, 113
1, 142482, Note_on_c, 2, 75, 113
1, 142482, Note_on_c, 2, 82, 113
1, 142482, Note_on_c, 2, 87, 113
1, 142492, Note_off_c, 2, 70, 113
1, 142494, Note_off_c, 4, 70, 114
1, 142498, Note_off_c, 4, 82, 114
1, 142502, Note_off_c, 2, 82, 113
1, 142508, Note_off_c, 2, 87, 113
1, 142510, Note_off_c, 2, 75, 113
1, 142510, Note_off_c, 4, 87, 114
1, 142512, Note_off_c, 4, 75, 114
1, 142558, Note_off_c, 3, 77, 124
1, 142560, Note_on_c, 3, 75, 124
1, 142562, Note_on_c, 9, 38, 120
1, 142564, Note_on_c, 4, 82, 114
1, 142566, Note_on_c, 2, 82, 113
1, 142566, Note_on_c, 4, 70, 114
1, 142566, Note_on_c, 4, 75, 114
1, 142566, Note_on_c, 4, 87, 114
1, 142570, Note_off_c, 9, 38, 120
1, 142570, Note_on_c, 2, 75, 113
1, 142570, Note_on_c, 2, 87, 113
1, 142572, Note_on_c, 2, 70, 113
1, 142596, Note_off_c, 2, 70, 113
1, 142598, Note_off_c, 4, 70, 114
1, 142604, Note_off_c, 2, 75, 113
1, 142606, Note_off_c, 4, 75, 114
1, 142608, Note_off_c, 6, 62, 89
1, 142614, Note_off_c, 2, 87, 113
1, 142614, Note_off_c, 4, 87, 114
1, 142618, Note_off_c, 6, 70, 89
1, 142622, Note_off_c, 2, 82, 113
1, 142622, Note_off_c, 4, 82, 114
1, 142638, Note_off_c, 6, 65, 89
1, 142654, Note_off_c, 3, 75, 124
1, 142656, Note_on_c, 3, 72, 124
1, 142658, Note_on_c, 9, 42, 70
1, 142660, Note_off_c, 9, 42, 70
1, 142662, Note_on_c, 9, 50, 80
1, 142664, Note_off_c, 9, 50, 80
1, 142684, Note_off_c, 5, 62, 80
1, 142690, Note_off_c, 1, 34, 122
1, 142700, Note_off_c, 5, 58, 80
1, 142748, Note_off_c, 5, 65, 80
1, 142770, Note_off_c, 3, 72, 124
1, 142842, Note_on_c, 5, 58, 80
1, 142842, Note_on_c, 5, 63, 80
1, 142844, Note_on_c, 5, 67, 80
1, 142848, Note_on_c, 3, 70, 124
1, 142848, Note_on_c, 3, 75, 124
1, 142852, Note_on_c, 9, 42, 82
1, 142852, Note_on_c, 9, 36, 100
1, 142854, Note_on_c, 9, 47, 62
1, 142854, Note_on_c, 9, 67, 60
1, 142854, Note_on_c, 6, 67, 89
1, 142856, Note_off_c, 9, 42, 82
1, 142856, Note_off_c, 9, 36, 100
1, 142858, Note_on_c, 1, 27, 122
1, 142858, Note_on_c, 6, 58, 89
1, 142858, Note_on_c, 6, 63, 89
1, 142860, Note_off_c, 9, 47, 62
1, 142860, Note_off_c, 9, 67, 60
1, 143042, Note_on_c, 9, 42, 70
1, 143044, Note_off_c, 9, 42, 70
1, 143046, Note_on_c, 9, 70, 60
1, 143046, Note_on_c, 1, 29, 122
1, 143050, Note_off_c, 1, 27, 122
1, 143050, Note_off_c, 9, 70, 60
1, 143186, Note_off_c, 6, 63, 89
1, 143202, Note_off_c, 6, 58, 89
1, 143206, Note_off_c, 1, 29, 122
1, 143206, Note_off_c, 6, 67, 89
1, 143234, Note_on_c, 9, 38, 120
1, 143234, Note_on_c, 9, 42, 78
1, 143236, Note_off_c, 9, 42, 78
1, 143238, Note_off_c, 9, 38, 120
1, 143238, Note_on_c, 1, 31, 122
1, 143240, Note_on_c, 9, 47, 60
1, 143242, Note_off_c, 9, 47, 60
1, 143310, Note_off_c, 5, 58, 80
1, 143324, Note_off_c, 3, 70, 124
1, 143346, Note_off_c, 5, 63, 80
1, 143348, Note_off_c, 5, 67, 80
1, 143394, Note_off_c, 1, 31, 122
1, 143414, Note_on_c, 5, 63, 80
1, 143418, Note_on_c, 5, 60, 80
1, 143418, Note_on_c, 5, 68, 80
1, 143422, Note_off_c, 3, 75, 124
1, 143424, Note_on_c, 3, 70, 124
1, 143426, Note_on_c, 9, 36, 100
1, 143426, Note_on_c, 6, 63, 89
1, 143430, Note_on_c, 9, 42, 70
1, 143430, Note_on_c, 9, 70, 60
1, 143430, Note_on_c, 1, 32, 122
1, 143430, Note_on_c, 6, 68, 89
1, 143432, Note_on_c, 6, 60, 89
1, 143434, Note_off_c, 9, 42, 70
1, 143434, Note_off_c, 9, 70, 60
1, 143434, Note_off_c, 9, 36, 100
1, 143506, Note_off_c, 3, 70, 124
1, 143520, Note_on_c, 3, 72, 124
1, 143522, Note_on_c, 9, 70, 60
1, 143524, Note_off_c, 9, 70, 60
1, 143612, Note_off_c, 3, 72, 124
1, 143616, Note_on_c, 3, 75, 124
1, 143618, Note_on_c, 9, 42, 82
1, 143618, Note_on_c, 9, 47, 62
1, 143618, Note_on_c, 9, 36, 100
1, 143620, Note_off_c, 9, 47, 62
1, 143622, Note_off_c, 9, 42, 82
1, 143622, Note_off_c, 9, 36, 100
1, 143738, Note_off_c, 1, 32, 122
1, 143806, Note_off_c, 3, 75, 124
1, 143808, Note_on_c, 3, 72, 124
1, 143810, Note_on_c, 9, 42, 70
1, 143810, Note_on_c, 9, 67, 60
1, 143810, Note_on_c, 1, 32, 122
1, 143814, Note_off_c, 9, 42, 70
1, 143814, Note_off_c, 9, 67, 60
1, 143904, Note_off_c, 3, 72, 124
1, 143904, Note_on_c, 3, 70, 124
1, 143974, Note_off_c, 1, 32, 122
1, 143982, Note_off_c, 6, 63, 89
1, 143992, Note_off_c, 6, 60, 89
1, 143996, Note_off_c, 3, 70, 124
1, 143998, Note_off_c, 6, 68, 89
1, 144000, Note_on_c, 3, 72, 124
1, 144006, Note_on_c, 9, 38, 120
1, 144006, Note_on_c, 9, 42, 78
1, 144006, Note_on_c, 9, 47, 60
1, 144006, Note_on_c, 1, 31, 122
1, 144010, Note_off_c, 9, 38, 120
1, 144010, Note_off_c, 9, 42, 78
1, 144010, Note_off_c, 9, 47, 60
1, 144070, Note_off_c, 3, 72, 124
1, 144174, Note_off_c, 1, 31, 122
1, 144192, Note_on_c, 3, 70, 124
1, 144192, Note_on_c, 3, 75, 124
1, 144198, Note_on_c, 9, 42, 70
1, 144198, Note_on_c, 6, 60, 89
1, 144198, Note_on_c, 6, 63, 89
1, 144198, Note_on_c, 6, 68, 89
1, 144202, Note_off_c, 9, 42, 70
1, 144202, Note_on_c, 1, 29, 122
1, 144390, Note_on_c, 9, 42, 82
1, 144390, Note_on_c, 9, 47, 62
1, 144390, Note_on_c, 9, 67, 60
1, 144390, Note_on_c, 9, 36, 100
1, 144392, Note_off_c, 9, 67, 60
1, 144394, Note_off_c, 9, 42, 82
1, 144394, Note_off_c, 9, 47, 62
1, 144394, Note_off_c, 9, 36, 100
1, 144526, Note_off_c, 1, 29, 122
1, 144580, Note_on_c, 1, 29, 122
1, 144582, Note_on_c, 9, 42, 70
1, 144582, Note_on_c, 9, 70, 60
1, 144584, Note_off_c, 9, 70, 60
1, 144586, Note_off_c, 9, 42, 70
1, 144764, Note_off_c, 1, 29, 122
1, 144774, Note_on_c, 9, 38, 120
1, 144774, Note_on_c, 9, 42, 78
1, 144774, Note_on_c, 9, 47, 60
1, 144774, Note_on_c, 1, 36, 122
1, 144776, Note_off_c, 9, 47, 60
1, 144778, Note_off_c, 9, 38, 120
1, 144778, Note_off_c, 9, 42, 78
1, 144888, Note_off_c, 6, 63, 89
1, 144894, Note_off_c, 6, 68, 89
1, 144898, Note_off_c, 6, 60, 89
1, 144938, Note_off_c, 1, 36, 122
1, 144964, Note_on_c, 1, 29, 122
1, 144966, Note_on_c, 9, 42, 70
1, 144966, Note_on_c, 9, 70, 60
1, 144966, Note_on_c, 9, 36, 100
1, 144968, Note_off_c, 9, 70, 60
1, 144970, Note_off_c, 9, 42, 70
1, 144970, Note_off_c, 9, 36, 100
1, 145006, Note_off_c, 5, 63, 80
1, 145036, Note_off_c, 3, 70, 124
1, 145062, Note_on_c, 9, 70, 60
1, 145064, Note_off_c, 9, 70, 60
1, 145066, Note_off_c, 1, 29, 122
1, 145102, Note_off_c, 5, 68, 80
1, 145132, Note_off_c, 5, 60, 80
1, 145146, Note_on_c, 5, 62, 80
1, 145146, Note_on_c, 5, 65, 80
1, 145146, Note_on_c, 5, 70, 80
1, 145150, Note_off_c, 3, 75, 124
1, 145152, Note_on_c, 3, 70, 124
1, 145156, Note_on_c, 9, 42, 82
1, 145158, Note_on_c, 9, 47, 62
1, 145158, Note_on_c, 9, 36, 100
1, 145160, Note_on_c, 6, 62, 89
1, 145160, Note_on_c, 6, 65, 89
1, 145160, Note_on_c, 6, 70, 89
1, 145162, Note_off_c, 9, 36, 100
1, 145162, Note_off_c, 9, 42, 82
1, 145162, Note_on_c, 1, 34, 122
1, 145166, Note_off_c, 9, 47, 62
1, 145286, Note_off_c, 6, 62, 89
1, 145294, Note_off_c, 6, 65, 89
1, 145298, Note_off_c, 6, 70, 89
1, 145342, Note_off_c, 3, 70, 124
1, 145344, Note_on_c, 3, 72, 124
1, 145346, Note_on_c, 9, 42, 70
1, 145350, Note_off_c, 9, 42, 70
1, 145350, Note_on_c, 1, 36, 122
1, 145352, Note_off_c, 9, 67, 60
1, 145352, Note_on_c, 9, 67, 60
1, 145390, Note_off_c, 1, 34, 122
1, 145444, Note_off_c, 3, 72, 124
1, 145500, Note_off_c, 1, 36, 122
1, 145536, Note_on_c, 3, 70, 124
1, 145536, Note_on_c, 3, 74, 124
1, 145538, Note_on_c, 9, 38, 120
1, 145542, Note_on_c, 9, 42, 78
1, 145542, Note_on_c, 9, 47, 60
1, 145542, Note_on_c, 1, 34, 122
1, 145544, Note_on_c, 6, 62, 89
1, 145544, Note_on_c, 6, 65, 89
1, 145546, Note_off_c, 9, 38, 120
1, 145546, Note_off_c, 9, 42, 78
1, 145546, Note_off_c, 9, 47, 60
1, 145548, Note_on_c, 6, 70, 89
1, 145578, Note_off_c, 3, 74, 124
1, 145588, Note_off_c, 3, 70, 124
1, 145632, Note_on_c, 3, 70, 124
1, 145632, Note_on_c, 3, 74, 124
1, 145678, Note_off_c, 6, 70, 89
1, 145688, Note_off_c, 3, 70, 124
1, 145690, Note_off_c, 6, 62, 89
1, 145706, Note_off_c, 5, 62, 80
1, 145708, Note_off_c, 3, 74, 124
1, 145716, Note_off_c, 5, 70, 80
1, 145722, Note_off_c, 6, 65, 89
1, 145724, Note_off_c, 1, 34, 122
1, 145726, Note_off_c, 5, 65, 80
1, 145728, Note_on_c, 3, 70, 124
1, 145730, Note_on_c, 9, 42, 70
1, 145730, Note_on_c, 1, 36, 122
1, 145732, Note_off_c, 9, 42, 70
1, 145808, Note_off_c, 3, 70, 124
1, 145860, Note_off_c, 1, 36, 122
1, 145914, Note_on_c, 5, 67, 80
1, 145916, Note_on_c, 5, 58, 80
1, 145916, Note_on_c, 5, 63, 80
1, 145920, Note_on_c, 3, 67, 124
1, 145920, Note_on_c, 3, 70, 124
1, 145920, Note_on_c, 3, 75, 124
1, 145922, Note_on_c, 9, 36, 100
1, 145924, Note_on_c, 9, 42, 82
1, 145924, Note_on_c, 9, 47, 62
1, 145926, Note_on_c, 9, 67, 60
1, 145926, Note_on_c, 6, 58, 89
1, 145926, Note_on_c, 6, 67, 89
1, 145928, Note_off_c, 9, 42, 82
1, 145930, Note_off_c, 9, 36, 100
1, 145930, Note_on_c, 1, 39, 122
1, 145930, Note_on_c, 6, 63, 89
1, 145932, Note_off_c, 9, 67, 60
1, 145934, Note_off_c, 9, 47, 62
1, 146096, Note_off_c, 3, 70, 124
1, 146108, Note_off_c, 1, 39, 122
1, 146114, Note_on_c, 9, 42, 70
1, 146116, Note_on_c, 9, 70, 60
1, 146118, Note_off_c, 9, 42, 70
1, 146118, Note_off_c, 9, 70, 60
1, 146118, Note_on_c, 1, 34, 122
1, 146120, Note_off_c, 3, 67, 124
1, 146206, Note_off_c, 6, 63, 89
1, 146218, Note_off_c, 6, 58, 89
1, 146230, Note_off_c, 6, 67, 89
1, 146276, Note_off_c, 1, 34, 122
1, 146310, Note_on_c, 9, 38, 120
1, 146310, Note_on_c, 9, 42, 78
1, 146310, Note_on_c, 9, 47, 60
1, 146310, Note_on_c, 1, 31, 122
1, 146314, Note_off_c, 9, 38, 120
1, 146314, Note_off_c, 9, 42, 78
1, 146314, Note_off_c, 9, 47, 60
1, 146372, Note_off_c, 5, 58, 80
1, 146394, Note_off_c, 5, 67, 80
1, 146396, Note_off_c, 5, 63, 80
1, 146452, Note_off_c, 1, 31, 122
1, 146490, Note_on_c, 5, 60, 80
1, 146490, Note_on_c, 5, 63, 80
1, 146494, Note_off_c, 3, 75, 124
1, 146494, Note_on_c, 5, 68, 80
1, 146496, Note_on_c, 3, 63, 124
1, 146496, Note_on_c, 3, 68, 124
1, 146496, Note_on_c, 3, 72, 124
1, 146502, Note_on_c, 9, 42, 70
1, 146502, Note_on_c, 9, 36, 100
1, 146502, Note_on_c, 6, 63, 89
1, 146502, Note_on_c, 6, 68, 89
1, 146506, Note_off_c, 9, 42, 70
1, 146506, Note_off_c, 9, 36, 100
1, 146508, Note_on_c, 9, 70, 60
1, 146508, Note_on_c, 1, 32, 122
1, 146508, Note_on_c, 6, 60, 89
1, 146510, Note_off_c, 9, 70, 60
1, 146598, Note_on_c, 9, 70, 60
1, 146600, Note_off_c, 9, 70, 60
1, 146686, Note_off_c, 3, 68, 124
1, 146688, Note_off_c, 3, 63, 124
1, 146694, Note_on_c, 9, 42, 82
1, 146694, Note_on_c, 9, 47, 62
1, 146694, Note_on_c, 9, 36, 100
1, 146696, Note_off_c, 9, 47, 62
1, 146698, Note_off_c, 9, 36, 100
1, 146698, Note_off_c, 9, 42, 82
1, 146720, Note_off_c, 3, 72, 124
1, 146798, Note_off_c, 1, 32, 122
1, 146884, Note_on_c, 1, 32, 122
1, 146886, Note_on_c, 9, 42, 70
1, 146886, Note_on_c, 9, 67, 60
1, 146888, Note_off_c, 9, 67, 60
1, 146890, Note_off_c, 9, 42, 70
1, 147046, Note_off_c, 6, 68, 89
1, 147048, Note_off_c, 6, 63, 89
1, 147060, Note_off_c, 1, 32, 122
1, 147064, Note_off_c, 6, 60, 89
1, 147076, Note_on_c, 1, 31, 122
1, 147078, Note_on_c, 9, 38, 120
1, 147078, Note_on_c, 9, 42, 78
1, 147080, Note_off_c, 9, 47, 60
1, 147080, Note_on_c, 9, 47, 60
1, 147082, Note_off_c, 9, 38, 120
1, 147082, Note_off_c, 9, 42, 78
1, 147206, Note_off_c, 1, 31, 122
1, 147264, Note_on_c, 3, 68, 124
1, 147264, Note_on_c, 3, 72, 124
1, 147264, Note_on_c, 3, 77, 124
1, 147266, Note_on_c, 6, 68, 89
1, 147268, Note_on_c, 1, 29, 122
1, 147270, Note_on_c, 9, 42, 70
1, 147270, Note_on_c, 6, 63, 89
1, 147272, Note_on_c, 6, 60, 89
1, 147274, Note_off_c, 9, 42, 70
1, 147446, Note_off_c, 3, 72, 124
1, 147450, Note_off_c, 3, 68, 124
1, 147460, Note_on_c, 9, 42, 82
1, 147460, Note_on_c, 9, 36, 100
1, 147462, Note_on_c, 9, 47, 62
1, 147462, Note_on_c, 9, 67, 60
1, 147464, Note_off_c, 9, 47, 62
1, 147464, Note_off_c, 9, 67, 60
1, 147466, Note_off_c, 9, 42, 82
1, 147466, Note_off_c, 9, 36, 100
1, 147578, Note_off_c, 1, 29, 122
1, 147650, Note_on_c, 9, 42, 70
1, 147650, Note_on_c, 9, 70, 60
1, 147652, Note_off_c, 9, 70, 60
1, 147654, Note_off_c, 9, 42, 70
1, 147654, Note_on_c, 1, 29, 122
1, 147726, Note_off_c, 6, 68, 89
1, 147734, Note_off_c, 6, 60, 89
1, 147738, Note_off_c, 6, 63, 89
1, 147798, Note_off_c, 1, 29, 122
1, 147842, Note_on_c, 6, 68, 89
1, 147846, Note_on_c, 9, 38, 120
1, 147846, Note_on_c, 9, 42, 78
1, 147846, Note_on_c, 9, 47, 60
1, 147848, Note_on_c, 6, 60, 89
1, 147848, Note_on_c, 6, 63, 89
1, 147850, Note_off_c, 9, 38, 120
1, 147850, Note_off_c, 9, 42, 78
1, 147850, Note_off_c, 9, 47, 60
1, 147852, Note_on_c, 1, 36, 122
1, 148006, Note_off_c, 6, 63, 89
1, 148010, Note_off_c, 6, 68, 89
1, 148010, Note_off_c, 5, 63, 80
1, 148014, Note_off_c, 6, 60, 89
1, 148018, Note_off_c, 1, 36, 122
1, 148026, Note_off_c, 5, 60, 80
1, 148034, Note_on_c, 9, 42, 70
1, 148034, Note_on_c, 9, 36, 100
1, 148036, Note_off_c, 9, 42, 70
1, 148038, Note_off_c, 9, 36, 100
1, 148040, Note_on_c, 9, 70, 60
1, 148040, Note_on_c, 1, 29, 122
1, 148042, Note_off_c, 9, 70, 60
1, 148078, Note_off_c, 5, 68, 80
1, 148130, Note_on_c, 9, 70, 60
1, 148132, Note_off_c, 9, 70, 60
1, 148166, Note_off_c, 1, 29, 122
1, 148218, Note_on_c, 5, 58, 80
1, 148218, Note_on_c, 5, 70, 80
1, 148220, Note_on_c, 5, 62, 80
1, 148220, Note_on_c, 5, 65, 80
1, 148222, Note_off_c, 3, 77, 124
1, 148224, Note_on_c, 3, 75, 124
1, 148226, Note_on_c, 9, 42, 82
1, 148226, Note_on_c, 6, 65, 89
1, 148230, Note_on_c, 9, 47, 62
1, 148230, Note_on_c, 9, 50, 80
1, 148230, Note_on_c, 9, 36, 100
1, 148230, Note_on_c, 6, 62, 89
1, 148232, Note_on_c, 6, 70, 89
1, 148234, Note_off_c, 9, 36, 100
1, 148234, Note_off_c, 9, 42, 82
1, 148234, Note_on_c, 1, 34, 122
1, 148238, Note_off_c, 9, 50, 80
1, 148238, Note_off_c, 9, 47, 62
1, 148290, Note_on_c, 9, 38, 80
1, 148318, Note_off_c, 3, 75, 124
1, 148320, Note_on_c, 3, 72, 124
1, 148340, Note_off_c, 9, 38, 80
1, 148354, Note_on_c, 9, 38, 90
1, 148388, Note_off_c, 6, 65, 89
1, 148394, Note_off_c, 6, 70, 89
1, 148394, Note_off_c, 6, 62, 89
1, 148404, Note_off_c, 9, 38, 90
1, 148414, Note_off_c, 3, 72, 124
1, 148416, Note_on_c, 3, 70, 124
1, 148418, Note_on_c, 9, 38, 112
1, 148418, Note_on_c, 9, 42, 70
1, 148418, Note_on_c, 9, 67, 60
1, 148420, Note_off_c, 9, 67, 60
1, 148422, Note_off_c, 9, 38, 112
1, 148422, Note_off_c, 9, 42, 70
1, 148438, Note_off_c, 1, 34, 122
1, 148482, Note_on_c, 9, 38, 105
1, 148484, Note_off_c, 9, 38, 105
1, 148498, Note_off_c, 3, 70, 124
1, 148512, Note_on_c, 3, 67, 124
1, 148546, Note_on_c, 9, 38, 103
1, 148548, Note_off_c, 9, 38, 103
1, 148606, Note_off_c, 3, 67, 124
1, 148608, Note_on_c, 3, 70, 124
1, 148614, Note_on_c, 9, 38, 120
1, 148614, Note_on_c, 9, 42, 78
1, 148614, Note_on_c, 6, 62, 89
1, 148614, Note_on_c, 6, 65, 89
1, 148618, Note_on_c, 9, 47, 60
1, 148618, Note_on_c, 1, 34, 122
1, 148618, Note_on_c, 6, 70, 89
1, 148620, Note_on_c, 4, 75, 114
1, 148622, Note_off_c, 9, 38, 120
1, 148622, Note_off_c, 9, 42, 78
1, 148622, Note_off_c, 9, 47, 60
1, 148626, Note_on_c, 2, 75, 113
1, 148626, Note_on_c, 4, 70, 114
1, 148626, Note_on_c, 4, 82, 114
1, 148626, Note_on_c, 4, 87, 114
1, 148628, Note_on_c, 2, 70, 113
1, 148628, Note_on_c, 2, 82, 113
1, 148628, Note_on_c, 2, 87, 113
1, 148636, Note_off_c, 2, 70, 113
1, 148638, Note_off_c, 4, 70, 114
1, 148646, Note_off_c, 2, 82, 113
1, 148646, Note_off_c, 4, 82, 114
1, 148652, Note_off_c, 2, 87, 113
1, 148654, Note_off_c, 4, 87, 114
1, 148654, Note_off_c, 2, 75, 113
1, 148656, Note_off_c, 4, 75, 114
1, 148676, Note_off_c, 3, 70, 124
1, 148704, Note_on_c, 3, 70, 124
1, 148710, Note_on_c, 9, 38, 120
1, 148710, Note_on_c, 4, 75, 114
1, 148710, Note_on_c, 4, 82, 114
1, 148710, Note_on_c, 4, 87, 114
1, 148714, Note_on_c, 2, 75, 113
1, 148714, Note_on_c, 2, 82, 113
1, 148714, Note_on_c, 2, 87, 113
1, 148714, Note_on_c, 4, 70, 114
1, 148716, Note_on_c, 2, 70, 113
1, 148718, Note_off_c, 9, 38, 120
1, 148742, Note_off_c, 4, 70, 114
1, 148746, Note_off_c, 2, 70, 113
1, 148748, Note_off_c, 2, 75, 113
1, 148750, Note_off_c, 4, 75, 114
1, 148756, Note_off_c, 4, 87, 114
1, 148762, Note_off_c, 2, 87, 113
1, 148764, Note_off_c, 2, 82, 113
1, 148766, Note_off_c, 4, 82, 114
1, 148778, Note_off_c, 6, 62, 89
1, 148782, Note_off_c, 6, 70, 89
1, 148788, Note_off_c, 6, 65, 89
1, 148806, Note_on_c, 9, 42, 70
1, 148806, Note_on_c, 9, 50, 80
1, 148808, Note_off_c, 3, 70, 124
1, 148810, Note_off_c, 9, 50, 80
1, 148810, Note_off_c, 9, 42, 70
1, 148830, Note_off_c, 5, 70, 80
1, 148830, Note_off_c, 5, 58, 80
1, 148838, Note_off_c, 1, 34, 122
1, 148838, Note_off_c, 5, 62, 80
1, 148842, Note_off_c, 5, 65, 80
1, 148986, Note_on_c, 5, 58, 80
1, 148986, Note_on_c, 5, 67, 80
1, 148990, Note_on_c, 5, 63, 80
1, 148992, Note_on_c, 3, 75, 124
1, 148996, Note_on_c, 9, 36, 100
1, 148998, Note_on_c, 9, 42, 82
1, 148998, Note_on_c, 6, 58, 89
1, 149002, Note_on_c, 9, 47, 62
1, 149002, Note_on_c, 9, 51, 55
1, 149002, Note_on_c, 9, 67, 60
1, 149002, Note_on_c, 1, 27, 122
1, 149004, Note_on_c, 6, 63, 89
1, 149004, Note_on_c, 6, 67, 89
1, 149006, Note_off_c, 9, 51, 55
1, 149006, Note_off_c, 9, 42, 82
1, 149006, Note_off_c, 9, 47, 62
1, 149006, Note_off_c, 9, 67, 60
1, 149008, Note_off_c, 9, 36, 100
1, 149188, Note_on_c, 1, 29, 122
1, 149190, Note_on_c, 9, 42, 70
1, 149190, Note_on_c, 9, 70, 60
1, 149192, Note_off_c, 9, 70, 60
1, 149194, Note_off_c, 1, 27, 122
1, 149194, Note_off_c, 9, 42, 70
1, 149348, Note_off_c, 1, 29, 122
1, 149382, Note_on_c, 9, 38, 120
1, 149382, Note_on_c, 9, 42, 78
1, 149382, Note_on_c, 9, 47, 60
1, 149382, Note_on_c, 1, 31, 122
1, 149384, Note_off_c, 9, 47, 60
1, 149386, Note_off_c, 9, 38, 120
1, 149386, Note_off_c, 9, 42, 78
1, 149390, Note_off_c, 6, 63, 89
1, 149398, Note_off_c, 6, 58, 89
1, 149422, Note_off_c, 6, 67, 89
1, 149452, Note_off_c, 5, 58, 80
1, 149470, Note_off_c, 5, 63, 80
1, 149486, Note_off_c, 5, 67, 80
1, 149538, Note_off_c, 1, 31, 122
1, 149562, Note_on_c, 5, 60, 80
1, 149562, Note_on_c, 5, 63, 80
1, 149562, Note_on_c, 5, 68, 80
1, 149566, Note_off_c, 3, 75, 124
1, 149568, Note_on_c, 3, 70, 124
1, 149574, Note_on_c, 9, 42, 70
1, 149574, Note_on_c, 9, 70, 60
1, 149574, Note_on_c, 9, 36, 100
1, 149576, Note_on_c, 6, 60, 89
1, 149576, Note_on_c, 6, 63, 89
1, 149578, Note_off_c, 9, 42, 70
1, 149578, Note_off_c, 9, 36, 100
1, 149578, Note_on_c, 1, 32, 122
1, 149580, Note_on_c, 6, 68, 89
1, 149582, Note_off_c, 9, 70, 60
1, 149650, Note_off_c, 3, 70, 124
1, 149664, Note_on_c, 3, 72, 124
1, 149670, Note_on_c, 9, 70, 60
1, 149672, Note_off_c, 9, 70, 60
1, 149760, Note_off_c, 3, 72, 124
1, 149760, Note_on_c, 3, 75, 124
1, 149766, Note_on_c, 9, 42, 82
1, 149766, Note_on_c, 9, 47, 62
1, 149766, Note_on_c, 9, 36, 100
1, 149768, Note_off_c, 9, 47, 62
1, 149770, Note_off_c, 9, 36, 100
1, 149770, Note_off_c, 9, 42, 82
1, 149886, Note_off_c, 1, 32, 122
1, 149950, Note_off_c, 3, 75, 124
1, 149952, Note_on_c, 3, 72, 124
1, 149954, Note_on_c, 9, 42, 70
1, 149956, Note_off_c, 9, 42, 70
1, 149958, Note_on_c, 9, 67, 60
1, 149958, Note_on_c, 1, 32, 122
1, 149960, Note_off_c, 9, 67, 60
1, 150046, Note_off_c, 3, 72, 124
1, 150048, Note_on_c, 3, 70, 124
1, 150114, Note_off_c, 1, 32, 122
1, 150144, Note_off_c, 3, 70, 124
1, 150144, Note_on_c, 3, 72, 124
1, 150146, Note_on_c, 9, 38, 120
1, 150148, Note_off_c, 9, 38, 120
1, 150150, Note_on_c, 1, 31, 122
1, 150152, Note_off_c, 9, 47, 60
1, 150152, Note_on_c, 9, 42, 78
1, 150152, Note_on_c, 9, 47, 60
1, 150154, Note_off_c, 9, 42, 78
1, 150208, Note_off_c, 3, 72, 124
1, 150210, Note_off_c, 6, 68, 89
1, 150218, Note_off_c, 6, 60, 89
1, 150220, Note_off_c, 6, 63, 89
1, 150318, Note_off_c, 1, 31, 122
1, 150336, Note_on_c, 3, 70, 124
1, 150336, Note_on_c, 3, 75, 124
1, 150338, Note_on_c, 9, 42, 70
1, 150338, Note_on_c, 6, 68, 89
1, 150342, Note_off_c, 9, 42, 70
1, 150342, Note_on_c, 1, 29, 122
1, 150344, Note_on_c, 6, 60, 89
1, 150344, Note_on_c, 6, 63, 89
1, 150532, Note_on_c, 9, 36, 100
1, 150534, Note_on_c, 9, 42, 82
1, 150534, Note_on_c, 9, 47, 62
1, 150534, Note_on_c, 9, 67, 60
1, 150536, Note_off_c, 9, 67, 60
1, 150538, Note_off_c, 9, 42, 82
1, 150538, Note_off_c, 9, 47, 62
1, 150538, Note_off_c, 9, 36, 100
1, 150668, Note_off_c, 1, 29, 122
1, 150722, Note_on_c, 9, 42, 70
1, 150722, Note_on_c, 9, 70, 60
1, 150724, Note_off_c, 9, 70, 60
1, 150726, Note_off_c, 9, 42, 70
1, 150726, Note_on_c, 1, 29, 122
1, 150908, Note_off_c, 1, 29, 122
1, 150914, Note_on_c, 9, 38, 120
1, 150914, Note_on_c, 9, 42, 78
1, 150914, Note_on_c, 9, 47, 60
1, 150916, Note_off_c, 9, 47, 60
1, 150918, Note_off_c, 9, 38, 120
1, 150918, Note_off_c, 9, 42, 78
1, 150920, Note_on_c, 1, 36, 122
1, 151058, Note_off_c, 6, 63, 89
1, 151070, Note_off_c, 6, 60, 89
1, 151082, Note_off_c, 1, 36, 122
1, 151098, Note_off_c, 6, 68, 89
1, 151106, Note_on_c, 9, 42, 70
1, 151106, Note_on_c, 9, 70, 60
1, 151106, Note_on_c, 9, 36, 100
1, 151110, Note_off_c, 9, 42, 70
1, 151110, Note_off_c, 9, 70, 60
1, 151110, Note_off_c, 9, 36, 100
1, 151112, Note_on_c, 1, 29, 122
1, 151114, Note_off_c, 5, 63, 80
1, 151172, Note_off_c, 5, 60, 80
1, 151202, Note_on_c, 9, 70, 60
1, 151206, Note_off_c, 1, 29, 122
1, 151206, Note_off_c, 9, 70, 60
1, 151218, Note_off_c, 5, 68, 80
1, 151284, Note_on_c, 5, 70, 80
1, 151286, Note_on_c, 5, 62, 80
1, 151286, Note_on_c, 5, 65, 80
1, 151298, Note_on_c, 9, 42, 82
1, 151298, Note_on_c, 9, 47, 62
1, 151298, Note_on_c, 9, 36, 100
1, 151298, Note_on_c, 1, 34, 122
1, 151300, Note_on_c, 6, 62, 89
1, 151300, Note_on_c, 6, 65, 89
1, 151300, Note_on_c, 6, 70, 89
1, 151304, Note_off_c, 9, 36, 100
1, 151304, Note_off_c, 9, 42, 82
1, 151304, Note_off_c, 9, 47, 62
1, 151434, Note_off_c, 3, 70, 124
1, 151438, Note_off_c, 6, 62, 89
1, 151454, Note_off_c, 6, 65, 89
1, 151466, Note_off_c, 6, 70, 89
1, 151494, Note_on_c, 9, 42, 70
1, 151494, Note_on_c, 9, 67, 60
1, 151494, Note_on_c, 1, 36, 122
1, 151498, Note_off_c, 9, 42, 70
1, 151498, Note_off_c, 9, 67, 60
1, 151534, Note_off_c, 1, 34, 122
1, 151644, Note_off_c, 1, 36, 122
1, 151678, Note_off_c, 3, 75, 124
1, 151680, Note_on_c, 3, 70, 124
1, 151684, Note_on_c, 9, 38, 120
1, 151686, Note_on_c, 9, 42, 78
1, 151686, Note_on_c, 6, 65, 89
1, 151686, Note_on_c, 6, 70, 89
1, 151690, Note_off_c, 9, 38, 120
1, 151690, Note_on_c, 9, 47, 60
1, 151690, Note_on_c, 1, 34, 122
1, 151692, Note_on_c, 6, 62, 89
1, 151694, Note_off_c, 9, 42, 78
1, 151694, Note_off_c, 9, 47, 60
1, 151822, Note_off_c, 6, 62, 89
1, 151838, Note_off_c, 6, 70, 89
1, 151846, Note_off_c, 6, 65, 89
1, 151852, Note_off_c, 5, 62, 80
1, 151868, Note_off_c, 1, 34, 122
1, 151870, Note_off_c, 3, 70, 124
1, 151872, Note_on_c, 3, 72, 124
1, 151876, Note_on_c, 1, 36, 122
1, 151878, Note_on_c, 9, 42, 70
1, 151880, Note_off_c, 9, 42, 70
1, 151894, Note_off_c, 5, 70, 80
1, 151906, Note_off_c, 5, 65, 80
1, 151970, Note_off_c, 3, 72, 124
1, 152006, Note_off_c, 1, 36, 122
1, 152058, Note_on_c, 5, 63, 80
1, 152058, Note_on_c, 5, 67, 80
1, 152062, Note_on_c, 5, 58, 80
1, 152064, Note_on_c, 3, 67, 124
1, 152064, Note_on_c, 3, 70, 124
1, 152064, Note_on_c, 3, 75, 124
1, 152068, Note_on_c, 9, 42, 82
1, 152068, Note_on_c, 9, 36, 100
1, 152070, Note_on_c, 9, 47, 62
1, 152070, Note_on_c, 6, 58, 89
1, 152072, Note_off_c, 9, 36, 100
1, 152074, Note_on_c, 9, 67, 60
1, 152074, Note_on_c, 1, 39, 122
1, 152074, Note_on_c, 6, 67, 89
1, 152076, Note_off_c, 9, 47, 62
1, 152076, Note_off_c, 9, 67, 60
1, 152076, Note_on_c, 6, 63, 89
1, 152078, Note_off_c, 9, 42, 82
1, 152254, Note_off_c, 1, 39, 122
1, 152260, Note_on_c, 1, 34, 122
1, 152262, Note_on_c, 9, 42, 70
1, 152262, Note_on_c, 9, 70, 60
1, 152264, Note_off_c, 9, 70, 60
1, 152266, Note_off_c, 9, 42, 70
1, 152296, Note_off_c, 3, 70, 124
1, 152306, Note_off_c, 3, 67, 124
1, 152406, Note_off_c, 6, 63, 89
1, 152410, Note_off_c, 6, 58, 89
1, 152422, Note_off_c, 1, 34, 122
1, 152424, Note_off_c, 6, 67, 89
1, 152454, Note_on_c, 9, 38, 120
1, 152454, Note_on_c, 9, 42, 78
1, 152454, Note_on_c, 9, 47, 60
1, 152454, Note_on_c, 1, 31, 122
1, 152458, Note_off_c, 9, 38, 120
1, 152458, Note_off_c, 9, 42, 78
1, 152458, Note_off_c, 9, 47, 60
1, 152518, Note_off_c, 5, 58, 80
1, 152540, Note_off_c, 5, 63, 80
1, 152564, Note_off_c, 5, 67, 80
1, 152598, Note_off_c, 1, 31, 122
1, 152634, Note_on_c, 5, 63, 80
1, 152634, Note_on_c, 5, 68, 80
1, 152636, Note_on_c, 5, 60, 80
1, 152638, Note_off_c, 3, 75, 124
1, 152640, Note_on_c, 3, 68, 124
1, 152640, Note_on_c, 3, 60, 124
1, 152640, Note_on_c, 3, 63, 124
1, 152642, Note_on_c, 9, 36, 100
1, 152646, Note_on_c, 9, 42, 70
1, 152646, Note_on_c, 9, 70, 60
1, 152646, Note_on_c, 1, 32, 122
1, 152646, Note_on_c, 6, 63, 89
1, 152648, Note_on_c, 6, 68, 89
1, 152650, Note_off_c, 9, 42, 70
1, 152650, Note_off_c, 9, 70, 60
1, 152650, Note_off_c, 9, 36, 100
1, 152652, Note_on_c, 6, 60, 89
1, 152738, Note_on_c, 9, 70, 60
1, 152740, Note_off_c, 9, 70, 60
1, 152834, Note_on_c, 9, 42, 82
1, 152836, Note_off_c, 9, 42, 82
1, 152838, Note_on_c, 9, 47, 62
1, 152838, Note_on_c, 9, 36, 100
1, 152842, Note_off_c, 9, 36, 100
1, 152842, Note_off_c, 9, 47, 62
1, 152898, Note_off_c, 3, 68, 124
1, 152902, Note_off_c, 3, 63, 124
1, 152910, Note_off_c, 3, 60, 124
1, 152942, Note_off_c, 1, 32, 122
1, 153026, Note_on_c, 9, 42, 70
1, 153026, Note_on_c, 9, 67, 60
1, 153028, Note_off_c, 9, 67, 60
1, 153030, Note_off_c, 9, 42, 70
1, 153030, Note_on_c, 1, 32, 122
1, 153206, Note_off_c, 1, 32, 122
1, 153218, Note_on_c, 9, 38, 120
1, 153218, Note_on_c, 9, 42, 78
1, 153220, Note_off_c, 9, 42, 78
1, 153222, Note_off_c, 9, 38, 120
1, 153222, Note_on_c, 1, 31, 122
1, 153224, Note_on_c, 9, 47, 60
1, 153226, Note_off_c, 9, 47, 60
1, 153348, Note_off_c, 1, 31, 122
1, 153402, Note_off_c, 6, 60, 89
1, 153402, Note_off_c, 6, 68, 89
1, 153408, Note_on_c, 3, 60, 124
1, 153408, Note_on_c, 3, 65, 124
1, 153408, Note_on_c, 3, 56, 124
1, 153410, Note_on_c, 9, 42, 70
1, 153414, Note_off_c, 9, 42, 70
1, 153416, Note_off_c, 6, 63, 89
1, 153418, Note_on_c, 1, 29, 122
1, 153604, Note_on_c, 9, 36, 100
1, 153606, Note_on_c, 9, 42, 82
1, 153606, Note_on_c, 9, 47, 62
1, 153606, Note_on_c, 9, 67, 60
1, 153606, Note_on_c, 6, 60, 89
1, 153608, Note_on_c, 6, 63, 89
1, 153608, Note_on_c, 6, 68, 89
1, 153610, Note_off_c, 9, 42, 82
1, 153610, Note_off_c, 9, 47, 62
1, 153610, Note_off_c, 9, 67, 60
1, 153610, Note_off_c, 9, 36, 100
1, 153722, Note_off_c, 1, 29, 122
1, 153724, Note_off_c, 3, 56, 124
1, 153750, Note_off_c, 3, 60, 124
1, 153778, Note_off_c, 3, 65, 124
1, 153794, Note_on_c, 9, 42, 70
1, 153794, Note_on_c, 9, 70, 60
1, 153794, Note_on_c, 1, 29, 122
1, 153796, Note_off_c, 9, 70, 60
1, 153798, Note_off_c, 9, 42, 70
1, 153810, Note_off_c, 6, 63, 89
1, 153818, Note_off_c, 6, 60, 89
1, 153830, Note_off_c, 6, 68, 89
1, 153946, Note_off_c, 1, 29, 122
1, 153986, Note_on_c, 9, 38, 120
1, 153986, Note_on_c, 9, 42, 78
1, 153986, Note_on_c, 6, 68, 89
1, 153990, Note_off_c, 9, 38, 120
1, 153990, Note_on_c, 9, 47, 60
1, 153990, Note_on_c, 1, 36, 122
1, 153992, Note_on_c, 6, 60, 89
1, 153992, Note_on_c, 6, 63, 89
1, 153994, Note_off_c, 9, 42, 78
1, 153994, Note_off_c, 9, 47, 60
1, 154166, Note_off_c, 1, 36, 122
1, 154170, Note_off_c, 6, 60, 89
1, 154170, Note_off_c, 6, 68, 89
1, 154176, Note_off_c, 6, 63, 89
1, 154176, Note_on_c, 3, 70, 124
1, 154180, Note_on_c, 9, 36, 100
1, 154182, Note_on_c, 9, 42, 70
1, 154182, Note_on_c, 9, 70, 60
1, 154184, Note_off_c, 9, 70, 60
1, 154186, Note_off_c, 9, 42, 70
1, 154186, Note_off_c, 9, 36, 100
1, 154188, Note_on_c, 1, 29, 122
1, 154196, Note_off_c, 5, 63, 80
1, 154220, Note_off_c, 5, 60, 80
1, 154270, Note_off_c, 3, 70, 124
1, 154272, Note_on_c, 3, 72, 124
1, 154278, Note_on_c, 9, 70, 60
1, 154280, Note_off_c, 9, 70, 60
1, 154312, Note_off_c, 3, 72, 124
1, 154314, Note_off_c, 1, 29, 122
1, 154362, Note_on_c, 5, 62, 80
1, 154362, Note_on_c, 5, 65, 80
1, 154364, Note_off_c, 5, 68, 80
1, 154366, Note_on_c, 5, 58, 80
1, 154368, Note_on_c, 3, 75, 124
1, 154374, Note_on_c, 9, 42, 82
1, 154374, Note_on_c, 9, 36, 100
1, 154374, Note_on_c, 6, 62, 89
1, 154376, Note_on_c, 6, 70, 89
1, 154378, Note_off_c, 9, 42, 82
1, 154378, Note_on_c, 9, 47, 62
1, 154378, Note_on_c, 1, 34, 122
1, 154380, Note_on_c, 6, 65, 89
1, 154382, Note_off_c, 9, 36, 100
1, 154382, Note_off_c, 9, 47, 62
1, 154462, Note_off_c, 3, 75, 124
1, 154464, Note_on_c, 3, 77, 124
1, 154526, Note_off_c, 6, 65, 89
1, 154526, Note_off_c, 6, 70, 89
1, 154528, Note_off_c, 6, 62, 89
1, 154558, Note_off_c, 3, 77, 124
1, 154560, Note_on_c, 3, 79, 124
1, 154564, Note_on_c, 9, 42, 70
1, 154566, Note_on_c, 9, 67, 60
1, 154568, Note_off_c, 9, 67, 60
1, 154570, Note_off_c, 9, 42, 70
1, 154586, Note_off_c, 1, 34, 122
1, 154750, Note_off_c, 3, 79, 127
1, 154752, Note_on_c, 3, 77, 124
1, 154758, Note_on_c, 9, 38, 120
1, 154758, Note_on_c, 9, 42, 78
1, 154758, Note_on_c, 6, 65, 89
1, 154760, Note_on_c, 6, 62, 89
1, 154762, Note_on_c, 9, 47, 60
1, 154762, Note_on_c, 1, 34, 122
1, 154762, Note_on_c, 6, 70, 89
1, 154764, Note_on_c, 4, 75, 114
1, 154766, Note_off_c, 9, 38, 120
1, 154766, Note_off_c, 9, 42, 78
1, 154766, Note_off_c, 9, 47, 60
1, 154768, Note_on_c, 4, 70, 114
1, 154768, Note_on_c, 4, 87, 114
1, 154770, Note_on_c, 2, 70, 113
1, 154770, Note_on_c, 2, 75, 113
1, 154770, Note_on_c, 2, 87, 113
1, 154770, Note_on_c, 4, 82, 114
1, 154772, Note_on_c, 2, 82, 113
1, 154780, Note_off_c, 2, 70, 113
1, 154780, Note_off_c, 4, 70, 114
1, 154788, Note_off_c, 2, 82, 113
1, 154790, Note_off_c, 4, 82, 114
1, 154796, Note_off_c, 2, 87, 113
1, 154798, Note_off_c, 2, 75, 113
1, 154798, Note_off_c, 4, 87, 114
1, 154800, Note_off_c, 4, 75, 114
1, 154846, Note_off_c, 3, 77, 124
1, 154848, Note_on_c, 3, 75, 124
1, 154854, Note_on_c, 9, 38, 120
1, 154854, Note_on_c, 4, 82, 114
1, 154854, Note_on_c, 4, 87, 114
1, 154856, Note_on_c, 4, 70, 114
1, 154856, Note_on_c, 4, 75, 114
1, 154858, Note_off_c, 9, 38, 120
1, 154858, Note_on_c, 2, 82, 113
1, 154860, Note_on_c, 2, 70, 113
1, 154860, Note_on_c, 2, 75, 113
1, 154860, Note_on_c, 2, 87, 113
1, 154886, Note_off_c, 2, 70, 113
1, 154886, Note_off_c, 4, 70, 114
1, 154894, Note_off_c, 2, 75, 113
1, 154894, Note_off_c, 4, 75, 114
1, 154896, Note_off_c, 6, 62, 89
1, 154902, Note_off_c, 2, 87, 113
1, 154902, Note_off_c, 4, 87, 114
1, 154906, Note_off_c, 6, 70, 89
1, 154910, Note_off_c, 2, 82, 113
1, 154910, Note_off_c, 4, 82, 114
1, 154926, Note_off_c, 6, 65, 89
1, 154942, Note_off_c, 3, 75, 124
1, 154944, Note_on_c, 3, 72, 124
1, 154950, Note_on_c, 9, 42, 70
1, 154950, Note_on_c, 9, 50, 80
1, 154954, Note_off_c, 9, 50, 80
1, 154954, Note_off_c, 9, 42, 70
1, 154974, Note_off_c, 5, 62, 80
1, 154982, Note_off_c, 1, 34, 122
1, 154990, Note_off_c, 5, 58, 80
1, 155038, Note_off_c, 5, 65, 80
1, 155056, Note_off_c, 3, 72, 124
1, 155130, Note_on_c, 5, 58, 80
1, 155130, Note_on_c, 5, 63, 80
1, 155134, Note_on_c, 5, 67, 80
1, 155136, Note_on_c, 3, 70, 124
1, 155136, Note_on_c, 3, 75, 124
1, 155140, Note_on_c, 9, 36, 100
1, 155142, Note_on_c, 9, 42, 82
1, 155142, Note_on_c, 9, 47, 62
1, 155142, Note_on_c, 6, 67, 89
1, 155144, Note_off_c, 9, 36, 100
1, 155146, Note_on_c, 9, 67, 60
1, 155146, Note_on_c, 1, 27, 122
1, 155146, Note_on_c, 6, 58, 89
1, 155148, Note_off_c, 9, 67, 60
1, 155148, Note_on_c, 6, 63, 89
1, 155150, Note_off_c, 9, 42, 82
1, 155150, Note_off_c, 9, 47, 62
1, 155334, Note_on_c, 9, 42, 70
1, 155334, Note_on_c, 9, 70, 60
1, 155334, Note_on_c, 1, 29, 122
1, 155338, Note_off_c, 1, 27, 122
1, 155338, Note_off_c, 9, 42, 70
1, 155338, Note_off_c, 9, 70, 60
1, 155474, Note_off_c, 6, 63, 89
1, 155490, Note_off_c, 6, 58, 89
1, 155494, Note_off_c, 1, 29, 122
1, 155498, Note_off_c, 6, 67, 89
1, 155526, Note_on_c, 9, 38, 120
1, 155526, Note_on_c, 9, 42, 78
1, 155526, Note_on_c, 9, 47, 60
1, 155526, Note_on_c, 1, 31, 122
1, 155528, Note_off_c, 9, 47, 60
1, 155530, Note_off_c, 9, 38, 120
1, 155530, Note_off_c, 9, 42, 78
1, 155596, Note_off_c, 5, 58, 80
1, 155612, Note_off_c, 3, 70, 124
1, 155638, Note_off_c, 5, 67, 80
1, 155638, Note_off_c, 5, 63, 80
1, 155682, Note_off_c, 1, 31, 122
1, 155706, Note_on_c, 5, 60, 80
1, 155706, Note_on_c, 5, 63, 80
1, 155708, Note_on_c, 5, 68, 80
1, 155710, Note_off_c, 3, 75, 124
1, 155712, Note_on_c, 3, 70, 124
1, 155718, Note_on_c, 9, 42, 70
1, 155718, Note_on_c, 9, 70, 60
1, 155718, Note_on_c, 9, 36, 100
1, 155718, Note_on_c, 1, 32, 122
1, 155720, Note_on_c, 6, 63, 89
1, 155720, Note_on_c, 6, 68, 89
1, 155722, Note_off_c, 9, 42, 70
1, 155722, Note_off_c, 9, 70, 60
1, 155722, Note_off_c, 9, 36, 100
1, 155724, Note_on_c, 6, 60, 89
1, 155796, Note_off_c, 3, 70, 124
1, 155808, Note_on_c, 3, 72, 124
1, 155810, Note_on_c, 9, 70, 60
1, 155814, Note_off_c, 9, 70, 60
1, 155900, Note_off_c, 3, 72, 124
1, 155904, Note_on_c, 3, 75, 124
1, 155906, Note_on_c, 9, 42, 82
1, 155910, Note_off_c, 9, 42, 82
1, 155910, Note_on_c, 9, 47, 62
1, 155910, Note_on_c, 9, 36, 100
1, 155914, Note_off_c, 9, 36, 100
1, 155914, Note_off_c, 9, 47, 62
1, 156030, Note_off_c, 1, 32, 122
1, 156094, Note_off_c, 3, 75, 124
1, 156096, Note_on_c, 3, 72, 124
1, 156098, Note_on_c, 9, 42, 70
1, 156098, Note_on_c, 9, 67, 60
1, 156100, Note_off_c, 9, 42, 70
1, 156100, Note_off_c, 9, 67, 60
1, 156102, Note_on_c, 1, 32, 122
1, 156190, Note_off_c, 3, 72, 124
1, 156192, Note_on_c, 3, 70, 124
1, 156258, Note_off_c, 1, 32, 122
1, 156270, Note_off_c, 6, 63, 89
1, 156274, Note_off_c, 6, 60, 89
1, 156282, Note_off_c, 3, 70, 124
1, 156282, Note_off_c, 6, 68, 89
1, 156288, Note_on_c, 3, 72, 124
1, 156290, Note_on_c, 9, 38, 120
1, 156290, Note_on_c, 9, 42, 78
1, 156294, Note_off_c, 9, 38, 120
1, 156294, Note_off_c, 9, 42, 78
1, 156294, Note_on_c, 1, 31, 122
1, 156296, Note_off_c, 9, 47, 60
1, 156296, Note_on_c, 9, 47, 60
1, 156362, Note_off_c, 3, 72, 124
1, 156460, Note_off_c, 1, 31, 122
1, 156480, Note_on_c, 3, 70, 124
1, 156480, Note_on_c, 3, 75, 124
1, 156482, Note_on_c, 9, 42, 70
1, 156482, Note_on_c, 6, 63, 89
1, 156482, Note_on_c, 6, 68, 89
1, 156484, Note_off_c, 9, 42, 70
1, 156486, Note_on_c, 1, 29, 122
1, 156488, Note_on_c, 6, 60, 89
1, 156674, Note_on_c, 9, 42, 82
1, 156674, Note_on_c, 9, 36, 100
1, 156676, Note_off_c, 9, 42, 82
1, 156676, Note_off_c, 9, 47, 62
1, 156676, Note_on_c, 9, 47, 62
1, 156678, Note_off_c, 9, 36, 100
1, 156678, Note_on_c, 9, 67, 60
1, 156680, Note_off_c, 9, 67, 60
1, 156814, Note_off_c, 1, 29, 122
1, 156866, Note_on_c, 9, 42, 70
1, 156866, Note_on_c, 9, 70, 60
1, 156866, Note_on_c, 1, 29, 122
1, 156868, Note_off_c, 9, 70, 60
1, 156870, Note_off_c, 9, 42, 70
1, 157054, Note_off_c, 1, 29, 122
1, 157060, Note_on_c, 1, 36, 122
1, 157062, Note_on_c, 9, 38, 120
1, 157062, Note_on_c, 9, 42, 78
1, 157064, Note_on_c, 9, 47, 60
1, 157066, Note_off_c, 9, 38, 120
1, 157066, Note_off_c, 9, 42, 78
1, 157066, Note_off_c, 9, 47, 60
1, 157182, Note_off_c, 6, 68, 89
1, 157182, Note_off_c, 6, 63, 89
1, 157190, Note_off_c, 6, 60, 89
1, 157226, Note_off_c, 1, 36, 122
1, 157254, Note_on_c, 9, 42, 70
1, 157254, Note_on_c, 9, 36, 100
1, 157254, Note_on_c, 1, 29, 122
1, 157256, Note_on_c, 9, 70, 60
1, 157258, Note_off_c, 9, 42, 70
1, 157258, Note_off_c, 9, 70, 60
1, 157258, Note_off_c, 9, 36, 100
1, 157294, Note_off_c, 5, 63, 80
1, 157328, Note_off_c, 3, 70, 124
1, 157350, Note_on_c, 9, 70, 60
1, 157354, Note_off_c, 9, 70, 60
1, 157354, Note_off_c, 1, 29, 122
1, 157390, Note_off_c, 5, 68, 80
1, 157420, Note_off_c, 5, 60, 80
1, 157434, Note_on_c, 5, 65, 80
1, 157434, Note_on_c, 5, 70, 80
1, 157438, Note_off_c, 3, 75, 124
1, 157438, Note_on_c, 5, 62, 80
1, 157440, Note_on_c, 3, 70, 124
1, 157446, Note_on_c, 9, 42, 82
1, 157446, Note_on_c, 9, 47, 62
1, 157446, Note_on_c, 9, 36, 100
1, 157448, Note_on_c, 6, 62, 89
1, 157448, Note_on_c, 6, 70, 89
1, 157450, Note_off_c, 9, 36, 100
1, 157450, Note_off_c, 9, 42, 82
1, 157450, Note_on_c, 1, 34, 122
1, 157452, Note_off_c, 9, 47, 62
1, 157452, Note_on_c, 6, 65, 89
1, 157574, Note_off_c, 6, 62, 89
1, 157582, Note_off_c, 6, 65, 89
1, 157586, Note_off_c, 6, 70, 89
1, 157630, Note_off_c, 3, 70, 124
1, 157632, Note_on_c, 3, 72, 124
1, 157638, Note_on_c, 9, 42, 70
1, 157638, Note_on_c, 9, 67, 60
1, 157638, Note_on_c, 1, 36, 122
1, 157642, Note_off_c, 9, 42, 70
1, 157642, Note_off_c, 9, 67, 60
1, 157678, Note_off_c, 1, 34, 122
1, 157730, Note_off_c, 3, 72, 124
1, 157790, Note_off_c, 1, 36, 122
1, 157824, Note_on_c, 3, 74, 124
1, 157824, Note_on_c, 3, 70, 124
1, 157830, Note_on_c, 9, 38, 120
1, 157830, Note_on_c, 9, 42, 78
1, 157830, Note_on_c, 9, 47, 60
1, 157830, Note_on_c, 6, 65, 89
1, 157832, Note_on_c, 6, 62, 89
1, 157834, Note_off_c, 9, 38, 120
1, 157834, Note_off_c, 9, 42, 78
1, 157834, Note_on_c, 1, 34, 122
1, 157836, Note_on_c, 6, 70, 89
1, 157838, Note_off_c, 9, 47, 60
1, 157870, Note_off_c, 3, 70, 124
1, 157872, Note_off_c, 3, 74, 124
1, 157920, Note_on_c, 3, 70, 124
1, 157920, Note_on_c, 3, 74, 124
1, 157964, Note_off_c, 6, 70, 89
1, 157978, Note_off_c, 6, 62, 89
1, 157980, Note_off_c, 3, 70, 124
1, 157996, Note_off_c, 3, 74, 124
1, 157998, Note_off_c, 5, 62, 80
1, 158010, Note_off_c, 6, 65, 89
1, 158012, Note_off_c, 5, 70, 80
1, 158014, Note_off_c, 1, 34, 122
1, 158014, Note_off_c, 5, 65, 80
1, 158016, Note_on_c, 3, 70, 124
1, 158018, Note_on_c, 9, 42, 70
1, 158020, Note_off_c, 9, 42, 70
1, 158022, Note_on_c, 1, 36, 122
1, 158098, Note_off_c, 3, 70, 124
1, 158150, Note_off_c, 1, 36, 122
1, 158202, Note_on_c, 5, 63, 80
1, 158202, Note_on_c, 5, 67, 80
1, 158204, Note_on_c, 5, 58, 80
1, 158208, Note_on_c, 3, 70, 124
1, 158208, Note_on_c, 3, 67, 124
1, 158208, Note_on_c, 3, 75, 124
1, 158212, Note_on_c, 9, 36, 100
1, 158214, Note_on_c, 9, 42, 82
1, 158214, Note_on_c, 9, 47, 62
1, 158214, Note_on_c, 9, 67, 60
1, 158214, Note_on_c, 6, 58, 89
1, 158216, Note_on_c, 6, 67, 89
1, 158218, Note_off_c, 9, 42, 82
1, 158218, Note_off_c, 9, 36, 100
1, 158218, Note_on_c, 1, 39, 122
1, 158218, Note_on_c, 6, 63, 89
1, 158220, Note_off_c, 9, 67, 60
1, 158222, Note_off_c, 9, 47, 62
1, 158384, Note_off_c, 3, 70, 124
1, 158396, Note_off_c, 1, 39, 122
1, 158400, Note_off_c, 3, 67, 124
1, 158402, Note_on_c, 9, 42, 70
1, 158402, Note_on_c, 9, 70, 60
1, 158406, Note_off_c, 9, 42, 70
1, 158406, Note_off_c, 9, 70, 60
1, 158406, Note_on_c, 1, 34, 122
1, 158494, Note_off_c, 6, 63, 89
1, 158506, Note_off_c, 6, 58, 89
1, 158514, Note_off_c, 6, 67, 89
1, 158564, Note_off_c, 1, 34, 122
1, 158594, Note_on_c, 9, 38, 120
1, 158594, Note_on_c, 9, 42, 78
1, 158598, Note_off_c, 9, 38, 120
1, 158598, Note_off_c, 9, 42, 78
1, 158598, Note_on_c, 1, 31, 122
1, 158600, Note_off_c, 9, 47, 60
1, 158600, Note_on_c, 9, 47, 60
1, 158658, Note_off_c, 5, 58, 80
1, 158678, Note_off_c, 5, 67, 80
1, 158686, Note_off_c, 5, 63, 80
1, 158742, Note_off_c, 1, 31, 122
1, 158778, Note_on_c, 5, 60, 80
1, 158778, Note_on_c, 5, 63, 80
1, 158780, Note_on_c, 5, 68, 80
1, 158782, Note_off_c, 3, 75, 124
1, 158784, Note_on_c, 3, 63, 124
1, 158784, Note_on_c, 3, 72, 124
1, 158784, Note_on_c, 3, 68, 124
1, 158786, Note_on_c, 9, 36, 100
1, 158786, Note_on_c, 6, 63, 89
1, 158790, Note_on_c, 9, 42, 70
1, 158790, Note_on_c, 9, 70, 60
1, 158790, Note_on_c, 1, 32, 122
1, 158792, Note_on_c, 6, 60, 89
1, 158792, Note_on_c, 6, 68, 89
1, 158794, Note_off_c, 9, 42, 70
1, 158794, Note_off_c, 9, 70, 60
1, 158794, Note_off_c, 9, 36, 100
1, 158882, Note_on_c, 9, 70, 60
1, 158886, Note_off_c, 9, 70, 60
1, 158974, Note_off_c, 3, 68, 124
1, 158976, Note_off_c, 3, 63, 124
1, 158978, Note_on_c, 9, 42, 82
1, 158978, Note_on_c, 9, 47, 62
1, 158978, Note_on_c, 9, 36, 100
1, 158980, Note_off_c, 9, 47, 62
1, 158982, Note_off_c, 9, 42, 82
1, 158982, Note_off_c, 9, 36, 100
1, 159012, Note_off_c, 3, 72, 124
1, 159086, Note_off_c, 1, 32, 122
1, 159170, Note_on_c, 9, 42, 70
1, 159170, Note_on_c, 9, 67, 60
1, 159172, Note_off_c, 9, 67, 60
1, 159174, Note_off_c, 9, 42, 70
1, 159176, Note_on_c, 1, 32, 122
1, 159330, Note_off_c, 6, 68, 89
1, 159338, Note_off_c, 6, 63, 89
1, 159346, Note_off_c, 1, 32, 122
1, 159350, Note_off_c, 6, 60, 89
1, 159362, Note_on_c, 9, 38, 120
1, 159362, Note_on_c, 9, 42, 78
1, 159362, Note_on_c, 9, 47, 60
1, 159366, Note_off_c, 9, 38, 120
1, 159366, Note_off_c, 9, 42, 78
1, 159366, Note_off_c, 9, 47, 60
1, 159368, Note_on_c, 1, 31, 122
1, 159496, Note_off_c, 1, 31, 122
1, 159552, Note_on_c, 3, 68, 124
1, 159552, Note_on_c, 3, 72, 124
1, 159552, Note_on_c, 3, 77, 124
1, 159558, Note_on_c, 9, 42, 70
1, 159558, Note_on_c, 6, 63, 89
1, 159558, Note_on_c, 6, 68, 89
1, 159560, Note_on_c, 6, 60, 89
1, 159562, Note_off_c, 9, 42, 70
1, 159562, Note_on_c, 1, 29, 122
1, 159734, Note_off_c, 3, 72, 124
1, 159736, Note_off_c, 3, 68, 124
1, 159748, Note_on_c, 9, 36, 100
1, 159750, Note_on_c, 9, 42, 82
1, 159750, Note_on_c, 9, 47, 62
1, 159750, Note_on_c, 9, 67, 60
1, 159752, Note_off_c, 9, 47, 62
1, 159752, Note_off_c, 9, 67, 60
1, 159754, Note_off_c, 9, 42, 82
1, 159754, Note_off_c, 9, 36, 100
1, 159868, Note_off_c, 1, 29, 122
1, 159942, Note_on_c, 9, 42, 70
1, 159942, Note_on_c, 9, 70, 60
1, 159942, Note_on_c, 1, 29, 122
1, 159946, Note_off_c, 9, 42, 70
1, 159946, Note_off_c, 9, 70, 60
1, 160014, Note_off_c, 6, 68, 89
1, 160022, Note_off_c, 6, 60, 89
1, 160026, Note_off_c, 6, 63, 89
1, 160090, Note_off_c, 1, 29, 122
1, 160134, Note_on_c, 9, 38, 120
1, 160134, Note_on_c, 9, 42, 78
1, 160134, Note_on_c, 9, 47, 60
1, 160136, Note_on_c, 6, 60, 89
1, 160136, Note_on_c, 6, 68, 89
1, 160138, Note_off_c, 9, 38, 120
1, 160138, Note_off_c, 9, 42, 78
1, 160138, Note_on_c, 1, 36, 122
1, 160140, Note_on_c, 6, 63, 89
1, 160142, Note_off_c, 9, 47, 60
1, 160294, Note_off_c, 6, 63, 89
1, 160298, Note_off_c, 6, 68, 89
1, 160298, Note_off_c, 5, 63, 80
1, 160302, Note_off_c, 6, 60, 89
1, 160310, Note_off_c, 1, 36, 122
1, 160312, Note_off_c, 5, 60, 80
1, 160326, Note_on_c, 9, 42, 70
1, 160326, Note_on_c, 9, 70, 60
1, 160326, Note_on_c, 9, 36, 100
1, 160326, Note_on_c, 1, 29, 122
1, 160330, Note_off_c, 9, 42, 70
1, 160330, Note_off_c, 9, 70, 60
1, 160330, Note_off_c, 9, 36, 100
1, 160364, Note_off_c, 5, 68, 80
1, 160422, Note_on_c, 9, 70, 60
1, 160426, Note_off_c, 9, 70, 60
1, 160458, Note_off_c, 1, 29, 122
1, 160506, Note_on_c, 5, 58, 80
1, 160506, Note_on_c, 5, 70, 80
1, 160510, Note_off_c, 3, 77, 127
1, 160510, Note_on_c, 5, 62, 80
1, 160510, Note_on_c, 5, 65, 80
1, 160512, Note_on_c, 3, 75, 124
1, 160518, Note_on_c, 9, 42, 82
1, 160518, Note_on_c, 9, 50, 80
1, 160518, Note_on_c, 9, 36, 100
1, 160518, Note_on_c, 6, 65, 89
1, 160520, Note_off_c, 9, 36, 100
1, 160520, Note_on_c, 6, 62, 89
1, 160522, Note_off_c, 9, 42, 82
1, 160522, Note_on_c, 1, 34, 122
1, 160524, Note_on_c, 9, 47, 62
1, 160524, Note_on_c, 6, 70, 89
1, 160526, Note_off_c, 9, 50, 80
1, 160526, Note_off_c, 9, 47, 62
1, 160582, Note_on_c, 9, 38, 80
1, 160606, Note_off_c, 3, 75, 127
1, 160608, Note_on_c, 3, 72, 124
1, 160630, Note_off_c, 9, 38, 80
1, 160646, Note_on_c, 9, 38, 90
1, 160682, Note_off_c, 6, 65, 89
1, 160688, Note_off_c, 6, 70, 89
1, 160688, Note_off_c, 6, 62, 89
1, 160694, Note_off_c, 9, 38, 90
1, 160702, Note_off_c, 3, 72, 124
1, 160704, Note_on_c, 3, 70, 124
1, 160710, Note_on_c, 9, 38, 112
1, 160710, Note_on_c, 9, 42, 70
1, 160710, Note_on_c, 9, 67, 60
1, 160714, Note_off_c, 9, 38, 112
1, 160714, Note_off_c, 9, 42, 70
1, 160714, Note_off_c, 9, 67, 60
1, 160730, Note_off_c, 1, 34, 122
1, 160770, Note_on_c, 9, 38, 105
1, 160774, Note_off_c, 9, 38, 105
1, 160788, Note_off_c, 3, 70, 124
1, 160800, Note_on_c, 3, 67, 124
1, 160834, Note_on_c, 9, 38, 103
1, 160836, Note_off_c, 9, 38, 103
1, 160894, Note_off_c, 3, 67, 124
1, 160896, Note_on_c, 3, 70, 124
1, 160898, Note_on_c, 6, 65, 89
1, 160902, Note_on_c, 9, 38, 120
1, 160902, Note_on_c, 9, 42, 78
1, 160902, Note_on_c, 9, 47, 60
1, 160902, Note_on_c, 6, 62, 89
1, 160904, Note_on_c, 6, 70, 89
1, 160906, Note_on_c, 1, 34, 122
1, 160908, Note_on_c, 4, 70, 114
1, 160908, Note_on_c, 4, 75, 114
1, 160908, Note_on_c, 4, 87, 114
1, 160910, Note_off_c, 9, 38, 120
1, 160910, Note_off_c, 9, 42, 78
1, 160910, Note_off_c, 9, 47, 60
1, 160912, Note_on_c, 4, 82, 114
1, 160914, Note_on_c, 2, 70, 113
1, 160914, Note_on_c, 2, 75, 113
1, 160914, Note_on_c, 2, 82, 113
1, 160914, Note_on_c, 2, 87, 113
1, 160924, Note_off_c, 2, 70, 113
1, 160926, Note_off_c, 4, 70, 114
1, 160930, Note_off_c, 2, 82, 113
1, 160930, Note_off_c, 4, 82, 114
1, 160942, Note_off_c, 2, 87, 113
1, 160942, Note_off_c, 2, 75, 113
1, 160942, Note_off_c, 4, 87, 114
1, 160944, Note_off_c, 4, 75, 114
1, 160960, Note_off_c, 3, 70, 124
1, 160994, Note_on_c, 9, 38, 120
1, 160996, Note_on_c, 4, 82, 114
1, 160998, Note_on_c, 4, 70, 114
1, 160998, Note_on_c, 4, 75, 114
1, 160998, Note_on_c, 4, 87, 114
1, 161000, Note_on_c, 2, 82, 113
1, 161000, Note_on_c, 2, 87, 113
1, 161002, Note_off_c, 9, 38, 120
1, 161002, Note_on_c, 2, 70, 113
1, 161002, Note_on_c, 2, 75, 113
1, 161028, Note_off_c, 2, 70, 113
1, 161030, Note_off_c, 4, 70, 114
1, 161034, Note_off_c, 4, 75, 114
1, 161038, Note_off_c, 2, 75, 113
1, 161044, Note_off_c, 2, 87, 113
1, 161046, Note_off_c, 4, 87, 114
1, 161054, Note_off_c, 2, 82, 113
1, 161054, Note_off_c, 4, 82, 114
1, 161062, Note_off_c, 6, 62, 89
1, 161066, Note_off_c, 6, 70, 89
1, 161078, Note_off_c, 6, 65, 89
1, 161090, Note_on_c, 9, 42, 70
1, 161090, Note_on_c, 9, 50, 80
1, 161094, Note_off_c, 9, 50, 80
1, 161094, Note_off_c, 9, 42, 70
1, 161114, Note_off_c, 5, 70, 80
1, 161118, Note_off_c, 5, 58, 80
1, 161122, Note_off_c, 1, 34, 122
1, 161126, Note_off_c, 5, 65, 80
1, 161126, Note_off_c, 5, 62, 80
1, 161252, Control_c, 3, 7, 90
1, 161274, Note_on_c, 5, 58, 80
1, 161274, Note_on_c, 5, 67, 80
1, 161276, Note_on_c, 5, 63, 80
1, 161280, Note_on_c, 3, 70, 127
1, 161280, Note_on_c, 3, 82, 127
1, 161282, Note_on_c, 9, 36, 100
1, 161284, Note_on_c, 9, 42, 82
1, 161284, Note_on_c, 9, 51, 55
1, 161286, Note_on_c, 9, 47, 62
1, 161286, Note_on_c, 6, 58, 89
1, 161286, Note_on_c, 6, 63, 89
1, 161288, Note_off_c, 9, 36, 100
1, 161290, Note_on_c, 9, 67, 60
1, 161290, Note_on_c, 1, 27, 122
1, 161290, Note_on_c, 6, 67, 89
1, 161292, Note_off_c, 9, 47, 62
1, 161292, Note_off_c, 9, 67, 60
1, 161292, Note_on_c, 6, 51, 89
1, 161294, Note_off_c, 9, 51, 55
1, 161294, Note_off_c, 9, 42, 82
1, 161406, Note_off_c, 6, 63, 89
1, 161406, Note_off_c, 6, 58, 89
1, 161410, Note_off_c, 6, 51, 89
1, 161426, Note_off_c, 6, 67, 89
1, 161474, Note_on_c, 9, 42, 70
1, 161474, Note_on_c, 9, 70, 60
1, 161476, Note_off_c, 9, 70, 60
1, 161478, Note_off_c, 1, 27, 122
1, 161478, Note_off_c, 9, 42, 70
1, 161480, Note_on_c, 1, 29, 122
1, 161634, Note_off_c, 1, 29, 122
1, 161666, Note_on_c, 9, 38, 120
1, 161666, Note_on_c, 9, 42, 78
1, 161666, Note_on_c, 9, 47, 60
1, 161670, Note_off_c, 9, 38, 120
1, 161670, Note_off_c, 9, 42, 78
1, 161670, Note_off_c, 9, 47, 60
1, 161672, Note_on_c, 1, 31, 122
1, 161742, Note_off_c, 5, 58, 80
1, 161756, Note_off_c, 5, 63, 80
1, 161772, Note_off_c, 5, 67, 80
1, 161826, Note_off_c, 1, 31, 122
1, 161854, Note_on_c, 5, 60, 80
1, 161854, Note_on_c, 5, 63, 80
1, 161854, Note_on_c, 5, 68, 80
1, 161858, Note_on_c, 9, 36, 100
1, 161858, Note_on_c, 6, 63, 89
1, 161862, Note_on_c, 9, 42, 70
1, 161862, Note_on_c, 9, 70, 60
1, 161862, Note_on_c, 1, 32, 122
1, 161864, Note_on_c, 6, 56, 89
1, 161864, Note_on_c, 6, 60, 89
1, 161866, Note_off_c, 9, 42, 70
1, 161866, Note_off_c, 9, 70, 60
1, 161866, Note_off_c, 9, 36, 100
1, 161868, Note_on_c, 6, 68, 89
1, 161954, Note_on_c, 9, 70, 60
1, 161956, Note_off_c, 9, 70, 60
1, 161974, Note_off_c, 6, 68, 89
1, 161986, Note_off_c, 6, 60, 89
1, 161990, Note_off_c, 6, 56, 89
1, 161994, Note_off_c, 6, 63, 89
1, 162050, Note_on_c, 9, 42, 82
1, 162050, Note_on_c, 9, 47, 62
1, 162050, Note_on_c, 9, 36, 100
1, 162052, Note_off_c, 9, 47, 62
1, 162054, Note_off_c, 9, 42, 82
1, 162054, Note_off_c, 9, 36, 100
1, 162174, Note_off_c, 1, 32, 122
1, 162242, Note_on_c, 9, 42, 70
1, 162242, Note_on_c, 6, 56, 89
1, 162246, Note_off_c, 9, 42, 70
1, 162248, Note_on_c, 9, 67, 60
1, 162248, Note_on_c, 1, 32, 122
1, 162248, Note_on_c, 6, 60, 89
1, 162248, Note_on_c, 6, 63, 89
1, 162250, Note_off_c, 9, 67, 60
1, 162250, Note_on_c, 6, 68, 89
1, 162362, Note_off_c, 6, 68, 89
1, 162370, Note_off_c, 6, 60, 89
1, 162374, Note_off_c, 6, 63, 89
1, 162394, Note_off_c, 6, 56, 89
1, 162402, Note_off_c, 1, 32, 122
1, 162434, Note_on_c, 9, 38, 120
1, 162434, Note_on_c, 9, 42, 78
1, 162434, Note_on_c, 9, 47, 60
1, 162436, Note_off_c, 9, 47, 60
1, 162438, Note_off_c, 9, 38, 120
1, 162438, Note_off_c, 9, 42, 78
1, 162440, Note_on_c, 1, 31, 122
1, 162606, Note_off_c, 1, 31, 122
1, 162630, Note_on_c, 9, 42, 70
1, 162630, Note_on_c, 6, 53, 89
1, 162630, Note_on_c, 6, 60, 89
1, 162634, Note_off_c, 9, 42, 70
1, 162634, Note_on_c, 1, 29, 122
1, 162636, Note_on_c, 6, 63, 89
1, 162636, Note_on_c, 6, 68, 89
1, 162750, Note_off_c, 6, 60, 89
1, 162762, Note_off_c, 6, 68, 89
1, 162768, Note_off_c, 6, 63, 89
1, 162768, Note_off_c, 6, 53, 89
1, 162822, Note_on_c, 9, 42, 82
1, 162822, Note_on_c, 9, 47, 62
1, 162822, Note_on_c, 9, 36, 100
1, 162824, Note_off_c, 9, 47, 62
1, 162826, Note_off_c, 9, 42, 82
1, 162826, Note_off_c, 9, 36, 100
1, 162826, Note_on_c, 9, 67, 60
1, 162828, Note_off_c, 9, 67, 60
1, 162916, Note_off_c, 3, 70, 127
1, 162956, Note_off_c, 1, 29, 122
1, 163006, Note_off_c, 3, 82, 127
1, 163008, Note_on_c, 3, 68, 127
1, 163008, Note_on_c, 3, 80, 127
1, 163014, Note_on_c, 9, 42, 70
1, 163014, Note_on_c, 9, 70, 60
1, 163014, Note_on_c, 1, 29, 122
1, 163016, Note_off_c, 9, 70, 60
1, 163018, Note_off_c, 9, 42, 70
1, 163052, Note_off_c, 3, 68, 127
1, 163102, Note_off_c, 3, 80, 127
1, 163104, Note_on_c, 3, 68, 127
1, 163104, Note_on_c, 3, 80, 127
1, 163142, Note_off_c, 3, 68, 127
1, 163198, Note_off_c, 3, 80, 127
1, 163198, Note_off_c, 1, 29, 122
1, 163200, Note_on_c, 3, 68, 127
1, 163200, Note_on_c, 3, 80, 127
1, 163206, Note_on_c, 9, 38, 120
1, 163206, Note_on_c, 9, 42, 78
1, 163206, Note_on_c, 9, 47, 60
1, 163206, Note_on_c, 1, 36, 122
1, 163208, Note_off_c, 9, 47, 60
1, 163210, Note_off_c, 9, 38, 120
1, 163210, Note_off_c, 9, 42, 78
1, 163326, Note_off_c, 3, 68, 127
1, 163370, Note_off_c, 1, 36, 122
1, 163390, Note_off_c, 3, 80, 127
1, 163392, Note_on_c, 3, 67, 127
1, 163392, Note_on_c, 3, 79, 127
1, 163398, Note_on_c, 9, 42, 70
1, 163398, Note_on_c, 9, 70, 60
1, 163398, Note_on_c, 9, 36, 100
1, 163398, Note_on_c, 1, 29, 122
1, 163400, Note_off_c, 9, 70, 60
1, 163402, Note_off_c, 9, 42, 70
1, 163402, Note_off_c, 9, 36, 100
1, 163406, Note_off_c, 5, 63, 80
1, 163432, Note_off_c, 3, 67, 127
1, 163466, Note_off_c, 5, 60, 80
1, 163486, Note_off_c, 3, 79, 127
1, 163488, Note_on_c, 3, 67, 127
1, 163488, Note_on_c, 3, 79, 127
1, 163494, Note_on_c, 9, 70, 60
1, 163496, Note_off_c, 9, 70, 60
1, 163498, Note_off_c, 1, 29, 122
1, 163510, Note_off_c, 5, 68, 80
1, 163546, Note_off_c, 3, 67, 127
1, 163578, Note_on_c, 5, 65, 80
1, 163578, Note_on_c, 5, 70, 80
1, 163582, Note_off_c, 3, 79, 127
1, 163582, Note_on_c, 5, 62, 80
1, 163584, Note_on_c, 3, 67, 127
1, 163584, Note_on_c, 3, 79, 127
1, 163590, Note_on_c, 9, 42, 82
1, 163590, Note_on_c, 9, 47, 62
1, 163590, Note_on_c, 9, 36, 100
1, 163590, Note_on_c, 6, 65, 89
1, 163592, Note_on_c, 6, 62, 89
1, 163594, Note_off_c, 9, 36, 100
1, 163594, Note_off_c, 9, 42, 82
1, 163594, Note_on_c, 1, 34, 122
1, 163596, Note_on_c, 6, 58, 89
1, 163596, Note_on_c, 6, 70, 89
1, 163598, Note_off_c, 9, 47, 62
1, 163696, Note_off_c, 3, 67, 127
1, 163710, Note_off_c, 6, 70, 89
1, 163710, Note_off_c, 6, 58, 89
1, 163712, Note_off_c, 6, 62, 89
1, 163728, Note_off_c, 6, 65, 89
1, 163774, Note_off_c, 3, 79, 127
1, 163776, Note_on_c, 3, 65, 127
1, 163776, Note_on_c, 3, 77, 127
1, 163782, Note_on_c, 9, 42, 70
1, 163782, Note_on_c, 9, 67, 60
1, 163782, Note_on_c, 1, 36, 122
1, 163784, Note_off_c, 9, 67, 60
1, 163786, Note_off_c, 9, 42, 70
1, 163820, Note_off_c, 1, 34, 122
1, 163822, Note_off_c, 3, 65, 127
1, 163870, Note_off_c, 3, 77, 127
1, 163872, Note_on_c, 3, 65, 127
1, 163872, Note_on_c, 3, 77, 127
1, 163906, Note_off_c, 3, 65, 127
1, 163934, Note_off_c, 1, 36, 122
1, 163966, Note_off_c, 3, 77, 127
1, 163968, Note_on_c, 3, 65, 127
1, 163968, Note_on_c, 3, 77, 127
1, 163974, Note_on_c, 9, 38, 120
1, 163974, Note_on_c, 9, 42, 78
1, 163974, Note_on_c, 9, 47, 60
1, 163976, Note_on_c, 6, 65, 89
1, 163976, Note_on_c, 6, 70, 89
1, 163978, Note_off_c, 9, 38, 120
1, 163978, Note_off_c, 9, 42, 78
1, 163978, Note_on_c, 1, 34, 122
1, 163980, Note_off_c, 9, 47, 60
1, 163980, Note_on_c, 6, 58, 89
1, 163980, Note_on_c, 6, 62, 89
1, 164090, Note_off_c, 6, 58, 89
1, 164102, Note_off_c, 6, 70, 89
1, 164110, Note_off_c, 6, 62, 89
1, 164116, Note_off_c, 6, 65, 89
1, 164138, Note_off_c, 5, 62, 80
1, 164158, Note_off_c, 1, 34, 122
1, 164158, Note_off_c, 3, 77, 127
1, 164158, Note_off_c, 3, 65, 127
1, 164160, Note_on_c, 3, 63, 127
1, 164160, Note_on_c, 3, 75, 127
1, 164162, Note_on_c, 9, 42, 70
1, 164164, Note_off_c, 9, 42, 70
1, 164166, Note_on_c, 1, 36, 122
1, 164180, Note_off_c, 5, 70, 80
1, 164194, Note_off_c, 5, 65, 80
1, 164250, Note_off_c, 3, 63, 127
1, 164254, Note_off_c, 3, 75, 127
1, 164256, Note_on_c, 3, 65, 127
1, 164256, Note_on_c, 3, 77, 127
1, 164292, Note_off_c, 1, 36, 122
1, 164346, Note_on_c, 5, 58, 80
1, 164346, Note_on_c, 5, 63, 80
1, 164346, Note_on_c, 5, 67, 80
1, 164350, Note_off_c, 3, 77, 127
1, 164350, Note_off_c, 3, 65, 127
1, 164352, Note_on_c, 3, 79, 127
1, 164352, Note_on_c, 3, 67, 127
1, 164356, Note_on_c, 9, 36, 100
1, 164358, Note_on_c, 9, 42, 82
1, 164358, Note_on_c, 9, 47, 62
1, 164358, Note_on_c, 6, 51, 89
1, 164358, Note_on_c, 6, 58, 89
1, 164360, Note_off_c, 9, 42, 82
1, 164362, Note_off_c, 9, 36, 100
1, 164362, Note_on_c, 9, 67, 60
1, 164362, Note_on_c, 1, 39, 122
1, 164364, Note_off_c, 9, 47, 62
1, 164364, Note_off_c, 9, 67, 60
1, 164364, Note_on_c, 6, 63, 89
1, 164364, Note_on_c, 6, 67, 89
1, 164454, Note_off_c, 3, 67, 127
1, 164468, Note_off_c, 6, 51, 89
1, 164474, Note_off_c, 6, 58, 89
1, 164482, Note_off_c, 6, 63, 89
1, 164506, Note_off_c, 6, 67, 89
1, 164542, Note_off_c, 1, 39, 122
1, 164542, Note_off_c, 3, 79, 127
1, 164544, Note_on_c, 3, 63, 127
1, 164544, Note_on_c, 3, 75, 127
1, 164546, Note_on_c, 9, 42, 70
1, 164546, Note_on_c, 9, 70, 60
1, 164548, Note_off_c, 9, 70, 60
1, 164550, Note_off_c, 9, 42, 70
1, 164550, Note_on_c, 1, 34, 122
1, 164640, Note_off_c, 3, 63, 127
1, 164708, Note_off_c, 1, 34, 122
1, 164738, Note_on_c, 9, 38, 120
1, 164738, Note_on_c, 9, 42, 78
1, 164740, Note_off_c, 9, 42, 78
1, 164742, Note_off_c, 9, 38, 120
1, 164742, Note_on_c, 1, 31, 122
1, 164744, Note_on_c, 9, 47, 60
1, 164746, Note_off_c, 9, 47, 60
1, 164802, Note_off_c, 5, 58, 80
1, 164828, Note_off_c, 5, 63, 80
1, 164850, Note_off_c, 5, 67, 80
1, 164882, Note_off_c, 1, 31, 122
1, 164922, Note_on_c, 5, 63, 80
1, 164922, Note_on_c, 5, 68, 80
1, 164924, Note_on_c, 5, 60, 80
1, 164926, Note_off_c, 3, 75, 127
1, 164928, Note_on_c, 3, 58, 127
1, 164928, Note_on_c, 3, 70, 127
1, 164930, Note_on_c, 9, 36, 100
1, 164930, Note_on_c, 6, 60, 89
1, 164934, Note_on_c, 9, 42, 70
1, 164934, Note_on_c, 9, 70, 60
1, 164934, Note_on_c, 1, 32, 122
1, 164936, Note_on_c, 6, 63, 89
1, 164936, Note_on_c, 6, 68, 89
1, 164938, Note_off_c, 9, 42, 70
1, 164938, Note_off_c, 9, 70, 60
1, 164938, Note_off_c, 9, 36, 100
1, 164940, Note_on_c, 6, 56, 89
1, 165026, Note_on_c, 9, 70, 60
1, 165028, Note_off_c, 9, 70, 60
1, 165034, Note_off_c, 6, 56, 89
1, 165038, Note_off_c, 6, 68, 89
1, 165046, Note_off_c, 6, 63, 89
1, 165050, Note_off_c, 6, 60, 89
1, 165122, Note_on_c, 9, 42, 82
1, 165122, Note_on_c, 9, 47, 62
1, 165122, Note_on_c, 9, 36, 100
1, 165124, Note_off_c, 9, 47, 62
1, 165126, Note_off_c, 9, 42, 82
1, 165126, Note_off_c, 9, 36, 100
1, 165230, Note_off_c, 1, 32, 122
1, 165314, Note_on_c, 9, 42, 70
1, 165314, Note_on_c, 6, 56, 89
1, 165318, Note_on_c, 9, 67, 60
1, 165318, Note_on_c, 1, 32, 122
1, 165318, Note_on_c, 6, 60, 89
1, 165320, Note_off_c, 9, 67, 60
1, 165320, Note_on_c, 6, 63, 89
1, 165320, Note_on_c, 6, 68, 89
1, 165322, Note_off_c, 9, 42, 70
1, 165418, Note_off_c, 6, 68, 89
1, 165430, Note_off_c, 6, 63, 89
1, 165430, Note_off_c, 6, 60, 89
1, 165438, Note_off_c, 6, 56, 89
1, 165490, Note_off_c, 1, 32, 122
1, 165506, Note_on_c, 9, 38, 120
1, 165506, Note_on_c, 9, 42, 78
1, 165506, Note_on_c, 9, 47, 60
1, 165510, Note_off_c, 9, 38, 120
1, 165510, Note_off_c, 9, 42, 78
1, 165510, Note_off_c, 9, 47, 60
1, 165512, Note_on_c, 1, 31, 122
1, 165638, Note_off_c, 1, 31, 122
1, 165702, Note_on_c, 9, 42, 70
1, 165702, Note_on_c, 6, 63, 89
1, 165702, Note_on_c, 6, 68, 89
1, 165704, Note_on_c, 6, 60, 89
1, 165706, Note_off_c, 9, 42, 70
1, 165706, Note_on_c, 1, 29, 122
1, 165708, Note_on_c, 6, 53, 89
1, 165798, Note_off_c, 6, 60, 89
1, 165814, Note_off_c, 6, 63, 89
1, 165816, Note_off_c, 6, 68, 89
1, 165834, Note_off_c, 6, 53, 89
1, 165892, Note_on_c, 9, 42, 82
1, 165892, Note_on_c, 9, 36, 100
1, 165894, Note_on_c, 9, 47, 62
1, 165894, Note_on_c, 9, 67, 60
1, 165896, Note_off_c, 9, 47, 62
1, 165896, Note_off_c, 9, 67, 60
1, 165898, Note_off_c, 9, 42, 82
1, 165898, Note_off_c, 9, 36, 100
1, 166012, Note_off_c, 1, 29, 122
1, 166086, Note_on_c, 9, 42, 70
1, 166086, Note_on_c, 9, 70, 60
1, 166086, Note_on_c, 6, 63, 89
1, 166088, Note_on_c, 6, 53, 89
1, 166090, Note_off_c, 9, 42, 70
1, 166090, Note_off_c, 9, 70, 60
1, 166090, Note_on_c, 1, 29, 122
1, 166092, Note_on_c, 6, 68, 89
1, 166092, Note_on_c, 6, 72, 89
1, 166190, Note_off_c, 6, 72, 89
1, 166198, Note_off_c, 6, 68, 89
1, 166198, Note_off_c, 6, 53, 89
1, 166222, Note_off_c, 6, 63, 89
1, 166234, Note_off_c, 1, 29, 122
1, 166276, Note_on_c, 1, 36, 122
1, 166278, Note_on_c, 9, 38, 120
1, 166278, Note_on_c, 9, 42, 78
1, 166280, Note_off_c, 9, 47, 60
1, 166280, Note_on_c, 9, 47, 60
1, 166282, Note_off_c, 9, 38, 120
1, 166282, Note_off_c, 9, 42, 78
1, 166454, Note_off_c, 1, 36, 122
1, 166470, Note_on_c, 9, 42, 70
1, 166470, Note_on_c, 9, 70, 60
1, 166470, Note_on_c, 9, 36, 100
1, 166472, Note_on_c, 6, 58, 89
1, 166472, Note_on_c, 6, 65, 89
1, 166474, Note_off_c, 9, 42, 70
1, 166474, Note_off_c, 9, 36, 100
1, 166474, Note_on_c, 1, 29, 122
1, 166476, Note_off_c, 9, 70, 60
1, 166476, Note_on_c, 6, 63, 89
1, 166476, Note_on_c, 6, 70, 89
1, 166486, Note_off_c, 5, 63, 80
1, 166508, Note_off_c, 5, 60, 80
1, 166566, Note_on_c, 9, 70, 60
1, 166570, Note_off_c, 9, 70, 60
1, 166590, Note_off_c, 6, 70, 89
1, 166590, Note_off_c, 6, 58, 89
1, 166594, Note_off_c, 6, 65, 89
1, 166602, Note_off_c, 6, 63, 89
1, 166604, Note_off_c, 1, 29, 122
1, 166650, Note_off_c, 5, 68, 80
1, 166650, Note_on_c, 5, 65, 80
1, 166652, Note_on_c, 5, 58, 80
1, 166652, Note_on_c, 5, 62, 80
1, 166662, Note_on_c, 9, 42, 82
1, 166662, Note_on_c, 9, 36, 100
1, 166662, Note_on_c, 1, 34, 122
1, 166664, Note_on_c, 9, 47, 62
1, 166666, Note_off_c, 9, 36, 100
1, 166666, Note_off_c, 9, 42, 82
1, 166666, Note_off_c, 9, 47, 62
1, 166680, Note_off_c, 3, 70, 127
1, 166854, Note_on_c, 9, 42, 70
1, 166854, Note_on_c, 9, 67, 60
1, 166854, Note_on_c, 6, 62, 89
1, 166856, Note_on_c, 6, 58, 89
1, 166856, Note_on_c, 6, 65, 89
1, 166858, Note_off_c, 9, 42, 70
1, 166858, Note_off_c, 9, 67, 60
1, 166860, Note_on_c, 6, 70, 89
1, 166874, Note_off_c, 1, 34, 122
1, 166988, Note_off_c, 3, 58, 127
1, 167042, Note_on_c, 9, 38, 120
1, 167044, Note_off_c, 9, 38, 120
1, 167046, Note_on_c, 1, 34, 122
1, 167048, Note_on_c, 9, 42, 78
1, 167048, Note_on_c, 9, 47, 60
1, 167050, Note_off_c, 9, 42, 78
1, 167050, Note_off_c, 9, 47, 60
1, 167138, Note_on_c, 9, 38, 120
1, 167140, Note_off_c, 9, 38, 120
1, 167182, Note_off_c, 6, 70, 89
1, 167196, Note_off_c, 6, 65, 89
1, 167206, Note_off_c, 6, 58, 89
1, 167210, Note_off_c, 6, 62, 89
1, 167234, Note_on_c, 9, 42, 70
1, 167236, Note_off_c, 9, 42, 70
1, 167238, Note_on_c, 9, 50, 80
1, 167242, Note_off_c, 9, 50, 80
1, 167262, Note_off_c, 5, 62, 80
1, 167266, Note_off_c, 1, 34, 122
1, 167276, Note_off_c, 5, 58, 80
1, 167324, Note_off_c, 5, 65, 80
1, 167418, Note_on_c, 5, 58, 80
1, 167418, Note_on_c, 5, 63, 80
1, 167420, Note_on_c, 5, 67, 80
1, 167424, Note_on_c, 3, 63, 127
1, 167424, Note_on_c, 3, 75, 127
1, 167430, Note_on_c, 9, 42, 82
1, 167430, Note_on_c, 9, 47, 62
1, 167430, Note_on_c, 9, 67, 60
1, 167430, Note_on_c, 9, 36, 100
1, 167432, Note_off_c, 9, 42, 82
1, 167432, Note_on_c, 6, 58, 89
1, 167432, Note_on_c, 6, 63, 89
1, 167434, Note_off_c, 9, 36, 100
1, 167434, Note_on_c, 1, 27, 122
1, 167436, Note_on_c, 6, 51, 89
1, 167436, Note_on_c, 6, 67, 89
1, 167438, Note_off_c, 9, 47, 62
1, 167438, Note_off_c, 9, 67, 60
1, 167506, Note_off_c, 3, 63, 127
1, 167518, Note_off_c, 3, 75, 127
1, 167520, Note_on_c, 3, 77, 127
1, 167520, Note_on_c, 3, 65, 127
1, 167550, Note_off_c, 6, 63, 89
1, 167550, Note_off_c, 6, 58, 89
1, 167554, Note_off_c, 6, 51, 89
1, 167570, Note_off_c, 6, 67, 89
1, 167614, Note_off_c, 3, 65, 127
1, 167614, Note_off_c, 3, 77, 127
1, 167616, Note_on_c, 3, 67, 127
1, 167616, Note_on_c, 3, 79, 127
1, 167616, Note_on_c, 3, 79, 127
1, 167618, Note_on_c, 9, 42, 70
1, 167618, Note_on_c, 9, 70, 60
1, 167620, Note_off_c, 9, 70, 60
1, 167622, Note_off_c, 9, 42, 70
1, 167622, Note_on_c, 1, 29, 122
1, 167626, Note_off_c, 1, 27, 122
1, 167704, Note_off_c, 3, 79, 127
1, 167708, Note_off_c, 3, 67, 127
1, 167778, Note_off_c, 1, 29, 122
1, 167810, Note_on_c, 9, 38, 120
1, 167810, Note_on_c, 9, 42, 78
1, 167810, Note_on_c, 9, 47, 60
1, 167814, Note_off_c, 9, 38, 120
1, 167814, Note_off_c, 9, 42, 78
1, 167814, Note_off_c, 9, 47, 60
1, 167816, Note_on_c, 1, 31, 122
1, 167884, Note_off_c, 5, 58, 80
1, 167922, Note_off_c, 5, 63, 80
1, 167924, Note_off_c, 5, 67, 80
1, 167970, Note_off_c, 1, 31, 122
1, 167994, Note_on_c, 5, 63, 80
1, 167996, Note_on_c, 5, 60, 80
1, 167998, Note_on_c, 5, 68, 80
1, 168002, Note_on_c, 9, 36, 100
1, 168002, Note_on_c, 6, 63, 89
1, 168004, Note_on_c, 1, 32, 122
1, 168006, Note_on_c, 9, 42, 70
1, 168006, Note_on_c, 9, 70, 60
1, 168006, Note_on_c, 6, 60, 89
1, 168008, Note_on_c, 6, 56, 89
1, 168010, Note_off_c, 9, 42, 70
1, 168010, Note_off_c, 9, 70, 60
1, 168010, Note_off_c, 9, 36, 100
1, 168012, Note_on_c, 6, 68, 89
1, 168098, Note_on_c, 9, 70, 60
1, 168100, Note_off_c, 9, 70, 60
1, 168118, Note_off_c, 6, 68, 89
1, 168130, Note_off_c, 6, 60, 89
1, 168134, Note_off_c, 6, 56, 89
1, 168138, Note_off_c, 6, 63, 89
1, 168190, Note_off_c, 3, 79, 127
1, 168192, Note_on_c, 3, 63, 127
1, 168192, Note_on_c, 3, 75, 127
1, 168194, Note_on_c, 9, 42, 82
1, 168194, Note_on_c, 9, 47, 62
1, 168194, Note_on_c, 9, 36, 100
1, 168196, Note_off_c, 9, 47, 62
1, 168198, Note_off_c, 9, 42, 82
1, 168198, Note_off_c, 9, 36, 100
1, 168274, Note_off_c, 3, 63, 127
1, 168286, Note_off_c, 3, 75, 127
1, 168288, Note_on_c, 3, 65, 127
1, 168288, Note_on_c, 3, 77, 127
1, 168312, Note_off_c, 1, 32, 122
1, 168382, Note_off_c, 3, 77, 127
1, 168382, Note_off_c, 3, 65, 127
1, 168384, Note_on_c, 3, 67, 127
1, 168384, Note_on_c, 3, 79, 127
1, 168386, Note_on_c, 9, 42, 70
1, 168386, Note_on_c, 9, 67, 60
1, 168386, Note_on_c, 6, 56, 89
1, 168388, Note_off_c, 9, 42, 70
1, 168390, Note_on_c, 1, 32, 122
1, 168390, Note_on_c, 6, 60, 89
1, 168392, Note_on_c, 6, 63, 89
1, 168392, Note_on_c, 6, 68, 89
1, 168394, Note_off_c, 9, 67, 60
1, 168452, Note_off_c, 3, 67, 127
1, 168506, Note_off_c, 6, 68, 89
1, 168514, Note_off_c, 6, 60, 89
1, 168518, Note_off_c, 6, 63, 89
1, 168542, Note_off_c, 6, 56, 89
1, 168546, Note_off_c, 1, 32, 122
1, 168578, Note_on_c, 9, 38, 120
1, 168578, Note_on_c, 9, 42, 78
1, 168578, Note_on_c, 9, 47, 60
1, 168580, Note_off_c, 9, 47, 60
1, 168582, Note_off_c, 9, 38, 120
1, 168582, Note_off_c, 9, 42, 78
1, 168584, Note_on_c, 1, 31, 122
1, 168748, Note_off_c, 1, 31, 122
1, 168774, Note_on_c, 9, 42, 70
1, 168774, Note_on_c, 6, 53, 89
1, 168774, Note_on_c, 6, 60, 89
1, 168776, Note_on_c, 6, 63, 89
1, 168778, Note_off_c, 9, 42, 70
1, 168778, Note_on_c, 1, 29, 122
1, 168780, Note_on_c, 6, 68, 89
1, 168894, Note_off_c, 6, 60, 89
1, 168906, Note_off_c, 6, 68, 89
1, 168912, Note_off_c, 6, 63, 89
1, 168912, Note_off_c, 6, 53, 89
1, 168964, Note_on_c, 9, 42, 82
1, 168964, Note_on_c, 9, 36, 100
1, 168966, Note_on_c, 9, 47, 62
1, 168966, Note_on_c, 9, 67, 60
1, 168968, Note_off_c, 9, 67, 60
1, 168970, Note_off_c, 9, 42, 82
1, 168970, Note_off_c, 9, 47, 62
1, 168970, Note_off_c, 9, 36, 100
1, 169102, Note_off_c, 1, 29, 122
1, 169150, Note_off_c, 3, 79, 127
1, 169152, Note_on_c, 3, 68, 127
1, 169152, Note_on_c, 3, 80, 127
1, 169158, Note_on_c, 9, 42, 70
1, 169158, Note_on_c, 9, 70, 60
1, 169158, Note_on_c, 1, 29, 122
1, 169162, Note_off_c, 9, 42, 70
1, 169162, Note_off_c, 9, 70, 60
1, 169194, Note_off_c, 3, 68, 127
1, 169246, Note_off_c, 3, 80, 127
1, 169248, Note_on_c, 3, 68, 127
1, 169248, Note_on_c, 3, 80, 127
1, 169300, Note_off_c, 3, 68, 127
1, 169342, Note_off_c, 3, 80, 127
1, 169342, Note_off_c, 1, 29, 122
1, 169344, Note_on_c, 3, 68, 127
1, 169344, Note_on_c, 3, 80, 127
1, 169350, Note_on_c, 9, 38, 120
1, 169350, Note_on_c, 9, 42, 78
1, 169350, Note_on_c, 9, 47, 60
1, 169350, Note_on_c, 1, 36, 122
1, 169354, Note_off_c, 9, 38, 120
1, 169354, Note_off_c, 9, 42, 78
1, 169354, Note_off_c, 9, 47, 60
1, 169466, Note_off_c, 3, 68, 127
1, 169514, Note_off_c, 1, 36, 122
1, 169534, Note_off_c, 3, 80, 127
1, 169536, Note_on_c, 3, 67, 127
1, 169536, Note_on_c, 3, 79, 127
1, 169542, Note_on_c, 9, 42, 70
1, 169542, Note_on_c, 9, 70, 60
1, 169542, Note_on_c, 9, 36, 100
1, 169542, Note_on_c, 1, 29, 122
1, 169546, Note_off_c, 9, 42, 70
1, 169546, Note_off_c, 9, 70, 60
1, 169546, Note_off_c, 9, 36, 100
1, 169580, Note_off_c, 3, 67, 127
1, 169580, Note_off_c, 5, 63, 80
1, 169630, Note_off_c, 3, 79, 127
1, 169632, Note_on_c, 3, 67, 127
1, 169632, Note_on_c, 3, 79, 127
1, 169638, Note_on_c, 9, 70, 60
1, 169642, Note_off_c, 1, 29, 122
1, 169642, Note_off_c, 9, 70, 60
1, 169674, Note_off_c, 3, 67, 127
1, 169678, Note_off_c, 5, 68, 80
1, 169708, Note_off_c, 5, 60, 80
1, 169722, Note_on_c, 5, 65, 80
1, 169722, Note_on_c, 5, 70, 80
1, 169726, Note_off_c, 3, 79, 127
1, 169726, Note_on_c, 5, 62, 80
1, 169728, Note_on_c, 3, 67, 127
1, 169728, Note_on_c, 3, 79, 127
1, 169734, Note_on_c, 9, 42, 82
1, 169734, Note_on_c, 9, 47, 62
1, 169734, Note_on_c, 9, 36, 100
1, 169734, Note_on_c, 6, 65, 89
1, 169736, Note_on_c, 6, 62, 89
1, 169738, Note_off_c, 9, 36, 100
1, 169738, Note_off_c, 9, 42, 82
1, 169738, Note_on_c, 1, 34, 122
1, 169740, Note_on_c, 6, 58, 89
1, 169740, Note_on_c, 6, 70, 89
1, 169742, Note_off_c, 9, 47, 62
1, 169832, Note_off_c, 3, 67, 127
1, 169854, Note_off_c, 6, 70, 89
1, 169856, Note_off_c, 6, 58, 89
1, 169856, Note_off_c, 6, 62, 89
1, 169874, Note_off_c, 6, 65, 89
1, 169918, Note_off_c, 3, 79, 127
1, 169920, Note_on_c, 3, 65, 127
1, 169920, Note_on_c, 3, 77, 127
1, 169922, Note_on_c, 9, 42, 70
1, 169924, Note_off_c, 9, 42, 70
1, 169926, Note_on_c, 9, 67, 60
1, 169926, Note_on_c, 1, 36, 122
1, 169928, Note_off_c, 9, 67, 60
1, 169956, Note_off_c, 3, 65, 127
1, 169966, Note_off_c, 1, 34, 122
1, 170014, Note_off_c, 3, 77, 127
1, 170016, Note_on_c, 3, 65, 127
1, 170016, Note_on_c, 3, 77, 127
1, 170064, Note_off_c, 3, 65, 127
1, 170078, Note_off_c, 1, 36, 122
1, 170110, Note_off_c, 3, 77, 127
1, 170112, Note_on_c, 3, 65, 127
1, 170112, Note_on_c, 3, 77, 127
1, 170114, Note_on_c, 6, 65, 89
1, 170118, Note_on_c, 9, 38, 120
1, 170118, Note_on_c, 9, 42, 78
1, 170118, Note_on_c, 9, 47, 60
1, 170118, Note_on_c, 6, 70, 89
1, 170120, Note_off_c, 9, 47, 60
1, 170120, Note_on_c, 6, 62, 89
1, 170122, Note_off_c, 9, 38, 120
1, 170122, Note_off_c, 9, 42, 78
1, 170124, Note_on_c, 1, 34, 122
1, 170124, Note_on_c, 6, 58, 89
1, 170234, Note_off_c, 6, 58, 89
1, 170242, Note_off_c, 6, 70, 89
1, 170250, Note_off_c, 6, 62, 89
1, 170262, Note_off_c, 6, 65, 89
1, 170286, Note_off_c, 5, 62, 80
1, 170290, Note_off_c, 3, 65, 127
1, 170298, Note_off_c, 1, 34, 122
1, 170298, Note_off_c, 5, 70, 80
1, 170300, Note_off_c, 5, 65, 80
1, 170302, Note_off_c, 3, 77, 127
1, 170304, Note_on_c, 3, 63, 127
1, 170304, Note_on_c, 3, 75, 127
1, 170306, Note_on_c, 9, 42, 70
1, 170308, Note_off_c, 9, 42, 70
1, 170310, Note_on_c, 1, 36, 122
1, 170390, Note_off_c, 3, 63, 127
1, 170398, Note_off_c, 3, 75, 127
1, 170400, Note_on_c, 3, 65, 127
1, 170400, Note_on_c, 3, 77, 127
1, 170438, Note_off_c, 1, 36, 122
1, 170490, Note_off_c, 3, 65, 127
1, 170490, Note_on_c, 5, 63, 80
1, 170490, Note_on_c, 5, 67, 80
1, 170492, Note_on_c, 5, 58, 80
1, 170494, Note_off_c, 3, 77, 64
1, 170496, Note_on_c, 3, 67, 127
1, 170496, Note_on_c, 3, 79, 127
1, 170498, Note_on_c, 9, 36, 100
1, 170500, Note_on_c, 9, 42, 82
1, 170500, Note_on_c, 9, 47, 62
1, 170500, Note_on_c, 9, 67, 60
1, 170502, Note_on_c, 6, 51, 89
1, 170502, Note_on_c, 6, 58, 89
1, 170504, Note_off_c, 9, 42, 82
1, 170504, Note_off_c, 9, 47, 62
1, 170506, Note_off_c, 9, 36, 100
1, 170506, Note_on_c, 1, 39, 122
1, 170506, Note_on_c, 6, 63, 89
1, 170508, Note_off_c, 9, 67, 60
1, 170508, Note_on_c, 6, 67, 89
1, 170584, Note_off_c, 3, 67, 127
1, 170614, Note_off_c, 6, 51, 89
1, 170618, Note_off_c, 6, 58, 89
1, 170626, Note_off_c, 6, 63, 89
1, 170650, Note_off_c, 6, 67, 89
1, 170684, Note_off_c, 1, 39, 122
1, 170686, Note_off_c, 3, 79, 127
1, 170688, Note_on_c, 3, 70, 127
1, 170688, Note_on_c, 3, 82, 127
1, 170690, Note_on_c, 9, 42, 70
1, 170690, Note_on_c, 9, 70, 60
1, 170692, Note_off_c, 9, 70, 60
1, 170694, Note_off_c, 9, 42, 70
1, 170694, Note_on_c, 1, 34, 122
1, 170806, Note_off_c, 3, 70, 127
1, 170850, Note_off_c, 1, 34, 122
1, 170882, Note_on_c, 9, 38, 120
1, 170882, Note_on_c, 9, 42, 78
1, 170882, Note_on_c, 9, 47, 60
1, 170884, Note_off_c, 9, 47, 60
1, 170886, Note_off_c, 9, 38, 120
1, 170886, Note_off_c, 9, 42, 78
1, 170888, Note_on_c, 1, 31, 122
1, 170946, Note_off_c, 5, 58, 80
1, 170964, Note_off_c, 5, 67, 80
1, 170972, Note_off_c, 5, 63, 80
1, 171026, Note_off_c, 1, 31, 122
1, 171062, Note_on_c, 5, 60, 80
1, 171066, Note_on_c, 5, 56, 80
1, 171066, Note_on_c, 5, 63, 80
1, 171068, Note_on_c, 5, 68, 80
1, 171070, Note_off_c, 3, 82, 127
1, 171072, Note_on_c, 3, 70, 127
1, 171072, Note_on_c, 3, 82, 127
1, 171074, Note_on_c, 9, 36, 100
1, 171074, Note_on_c, 6, 63, 89
1, 171078, Note_on_c, 9, 42, 70
1, 171078, Note_on_c, 9, 70, 60
1, 171078, Note_on_c, 1, 32, 122
1, 171080, Note_on_c, 6, 56, 89
1, 171080, Note_on_c, 6, 60, 89
1, 171082, Note_off_c, 9, 42, 70
1, 171082, Note_off_c, 9, 70, 60
1, 171082, Note_off_c, 9, 36, 100
1, 171084, Note_on_c, 6, 68, 89
1, 171170, Note_on_c, 9, 70, 60
1, 171172, Note_off_c, 9, 70, 60
1, 171202, Note_off_c, 6, 68, 89
1, 171206, Note_off_c, 6, 56, 89
1, 171218, Note_off_c, 6, 60, 89
1, 171234, Note_off_c, 6, 63, 89
1, 171270, Note_on_c, 9, 42, 82
1, 171270, Note_on_c, 9, 47, 62
1, 171270, Note_on_c, 9, 36, 100
1, 171272, Note_off_c, 9, 47, 62
1, 171274, Note_off_c, 9, 42, 82
1, 171274, Note_off_c, 9, 36, 100
1, 171374, Note_off_c, 1, 32, 122
1, 171462, Note_on_c, 9, 42, 70
1, 171462, Note_on_c, 9, 67, 60
1, 171462, Note_on_c, 1, 32, 122
1, 171466, Note_off_c, 9, 42, 70
1, 171466, Note_off_c, 9, 67, 60
1, 171630, Note_off_c, 5, 68, 80
1, 171638, Note_off_c, 1, 32, 122
1, 171642, Note_off_c, 5, 56, 80
1, 171644, Note_off_c, 5, 63, 80
1, 171646, Note_off_c, 5, 60, 80
1, 171654, Note_on_c, 9, 38, 120
1, 171654, Note_on_c, 9, 42, 78
1, 171654, Note_on_c, 1, 31, 122
1, 171656, Note_on_c, 9, 47, 60
1, 171658, Note_off_c, 9, 38, 120
1, 171658, Note_off_c, 9, 42, 78
1, 171658, Note_off_c, 9, 47, 60
1, 171782, Note_off_c, 1, 31, 122
1, 171834, Note_on_c, 5, 53, 80
1, 171834, Note_on_c, 5, 63, 80
1, 171846, Note_on_c, 9, 42, 70
1, 171846, Note_on_c, 1, 29, 122
1, 171846, Note_on_c, 6, 53, 89
1, 171848, Note_on_c, 6, 63, 89
1, 171848, Note_on_c, 6, 68, 89
1, 171850, Note_off_c, 9, 42, 70
1, 171850, Note_on_c, 6, 60, 89
1, 171928, Note_on_c, 5, 60, 80
1, 171930, Note_on_c, 5, 68, 80
1, 172036, Note_on_c, 9, 36, 100
1, 172038, Note_on_c, 9, 42, 82
1, 172038, Note_on_c, 9, 47, 62
1, 172038, Note_on_c, 9, 67, 80
1, 172040, Note_off_c, 9, 67, 80
1, 172042, Note_off_c, 9, 42, 82
1, 172042, Note_off_c, 9, 47, 62
1, 172042, Note_off_c, 9, 36, 100
1, 172134, Note_on_c, 9, 67, 70
1, 172138, Note_off_c, 9, 67, 70
1, 172144, Note_off_c, 3, 70, 127
1, 172158, Note_off_c, 1, 29, 122
1, 172230, Note_on_c, 9, 42, 70
1, 172230, Note_on_c, 9, 70, 60
1, 172230, Note_on_c, 1, 29, 122
1, 172234, Note_off_c, 9, 42, 70
1, 172234, Note_off_c, 9, 70, 60
1, 172372, Note_off_c, 1, 29, 122
1, 172422, Note_on_c, 9, 38, 120
1, 172422, Note_on_c, 9, 42, 78
1, 172422, Note_on_c, 9, 47, 60
1, 172422, Note_on_c, 1, 36, 122
1, 172426, Note_off_c, 9, 38, 120
1, 172426, Note_off_c, 9, 42, 78
1, 172426, Note_off_c, 9, 47, 60
1, 172594, Note_off_c, 1, 36, 122
1, 172606, Note_off_c, 6, 63, 89
1, 172610, Note_on_c, 9, 36, 100
1, 172612, Note_off_c, 9, 36, 100
1, 172614, Note_off_c, 6, 68, 89
1, 172616, Note_on_c, 9, 42, 70
1, 172616, Note_on_c, 9, 70, 60
1, 172616, Note_on_c, 1, 29, 122
1, 172618, Note_off_c, 9, 42, 70
1, 172618, Note_off_c, 9, 70, 60
1, 172630, Note_off_c, 6, 60, 89
1, 172638, Note_off_c, 5, 53, 80
1, 172652, Note_off_c, 5, 63, 80
1, 172690, Note_off_c, 6, 53, 89
1, 172706, Note_on_c, 9, 70, 60
1, 172710, Note_off_c, 9, 70, 60
1, 172722, Note_off_c, 5, 68, 80
1, 172740, Note_off_c, 5, 60, 80
1, 172746, Note_off_c, 1, 29, 122
1, 172794, Note_on_c, 5, 58, 80
1, 172794, Note_on_c, 5, 60, 80
1, 172794, Note_on_c, 5, 63, 80
1, 172794, Note_on_c, 5, 68, 80
1, 172802, Note_on_c, 9, 42, 82
1, 172806, Note_on_c, 9, 47, 62
1, 172806, Note_on_c, 9, 36, 100
1, 172806, Note_on_c, 1, 34, 122
1, 172808, Note_on_c, 6, 60, 89
1, 172808, Note_on_c, 6, 63, 89
1, 172810, Note_off_c, 9, 42, 82
1, 172810, Note_off_c, 9, 36, 100
1, 172810, Note_off_c, 9, 47, 62
1, 172812, Note_on_c, 6, 58, 89
1, 172812, Note_on_c, 6, 68, 89
1, 172878, Note_off_c, 6, 68, 89
1, 172878, Note_off_c, 6, 58, 89
1, 172880, Note_off_c, 5, 68, 80
1, 172880, Note_off_c, 5, 58, 80
1, 172882, Note_off_c, 5, 63, 80
1, 172882, Note_off_c, 5, 60, 80
1, 172892, Note_off_c, 6, 63, 89
1, 172892, Note_off_c, 6, 60, 89
1, 172990, Note_off_c, 3, 82, 127
1, 172992, Note_on_c, 3, 70, 127
1, 172992, Note_on_c, 3, 82, 127
1, 172994, Note_on_c, 9, 42, 70
1, 172994, Note_on_c, 9, 67, 60
1, 172996, Note_off_c, 9, 67, 60
1, 172998, Note_off_c, 9, 42, 70
1, 173018, Note_off_c, 1, 34, 122
1, 173080, Note_off_c, 3, 70, 127
1, 173086, Note_off_c, 3, 82, 127
1, 173088, Note_on_c, 3, 72, 127
1, 173088, Note_on_c, 3, 84, 127
1, 173158, Note_on_c, 9, 46, 70
1, 173162, Note_off_c, 9, 46, 70
1, 173178, Note_on_c, 5, 58, 80
1, 173178, Note_on_c, 5, 60, 80
1, 173178, Note_on_c, 5, 63, 80
1, 173178, Note_on_c, 5, 68, 80
1, 173182, Note_off_c, 3, 84, 127
1, 173182, Note_off_c, 3, 72, 127
1, 173184, Note_on_c, 3, 75, 127
1, 173184, Note_on_c, 3, 87, 127
1, 173186, Note_on_c, 9, 38, 120
1, 173186, Note_on_c, 6, 58, 89
1, 173188, Note_on_c, 9, 42, 78
1, 173190, Note_on_c, 9, 46, 90
1, 173190, Note_on_c, 9, 47, 60
1, 173190, Note_on_c, 6, 63, 89
1, 173190, Note_on_c, 6, 68, 89
1, 173194, Note_off_c, 9, 38, 120
1, 173194, Note_off_c, 9, 42, 78
1, 173194, Note_on_c, 1, 34, 122
1, 173196, Note_off_c, 9, 46, 90
1, 173196, Note_on_c, 6, 60, 89
1, 173198, Note_off_c, 9, 47, 60
1, 173254, Note_off_c, 3, 87, 127
1, 173374, Note_off_c, 3, 75, 127
1, 173376, Note_on_c, 3, 70, 127
1, 173376, Note_on_c, 3, 82, 127
1, 173378, Note_on_c, 9, 42, 70
1, 173378, Note_on_c, 9, 46, 90
1, 173380, Note_off_c, 9, 46, 90
1, 173382, Note_off_c, 9, 42, 70
1, 173410, Note_off_c, 1, 34, 122
1, 173470, Note_off_c, 3, 82, 127
1, 173470, Note_off_c, 3, 70, 127
1, 173472, Note_on_c, 3, 72, 127
1, 173472, Note_on_c, 3, 84, 127
1, 173474, Note_on_c, 9, 46, 90
1, 173476, Note_off_c, 9, 46, 90
1, 173544, Note_off_c, 3, 72, 127
1, 173548, Note_off_c, 3, 84, 127
1, 173568, Note_on_c, 3, 75, 127
1, 173568, Note_on_c, 3, 87, 127
1, 173570, Note_on_c, 9, 42, 82
1, 173570, Note_on_c, 9, 36, 100
1, 173572, Note_off_c, 9, 42, 82
1, 173572, Note_off_c, 9, 47, 62
1, 173572, Note_on_c, 9, 47, 62
1, 173574, Note_off_c, 9, 36, 100
1, 173574, Note_on_c, 9, 67, 60
1, 173576, Note_off_c, 9, 67, 60
1, 173662, Note_off_c, 3, 87, 127
1, 173662, Note_off_c, 3, 75, 127
1, 173664, Note_on_c, 3, 79, 127
1, 173664, Note_on_c, 3, 91, 127
1, 173748, Note_off_c, 3, 91, 127
1, 173762, Note_on_c, 9, 42, 70
1, 173762, Note_on_c, 9, 70, 60
1, 173764, Note_off_c, 9, 70, 60
1, 173766, Note_off_c, 9, 42, 70
1, 173766, Note_on_c, 1, 34, 122
1, 173854, Note_off_c, 3, 79, 127
1, 173856, Note_on_c, 3, 80, 127
1, 173856, Note_on_c, 3, 92, 127
1, 173866, Note_off_c, 1, 34, 122
1, 173954, Note_on_c, 9, 38, 120
1, 173954, Note_on_c, 9, 42, 78
1, 173954, Note_on_c, 9, 47, 60
1, 173956, Note_off_c, 9, 47, 60
1, 173958, Note_off_c, 9, 38, 120
1, 173958, Note_off_c, 9, 42, 78
1, 173960, Note_off_c, 3, 92, 127
1, 173984, Note_off_c, 3, 80, 64
1, 174048, Note_on_c, 3, 79, 127
1, 174048, Note_on_c, 3, 91, 127
1, 174146, Note_off_c, 3, 91, 127
1, 174146, Note_on_c, 9, 42, 70
1, 174146, Note_on_c, 9, 70, 60
1, 174146, Note_on_c, 9, 36, 100
1, 174148, Note_off_c, 9, 70, 60
1, 174150, Note_off_c, 9, 42, 70
1, 174150, Note_off_c, 9, 36, 100
1, 174152, Note_on_c, 1, 34, 122
1, 174238, Note_off_c, 3, 79, 127
1, 174240, Note_on_c, 3, 82, 127
1, 174240, Note_on_c, 3, 94, 127
1, 174246, Note_on_c, 9, 70, 60
1, 174250, Note_off_c, 9, 70, 60
1, 174336, Note_off_c, 3, 94, 127
1, 174338, Note_on_c, 9, 42, 82
1, 174338, Note_on_c, 9, 50, 80
1, 174338, Note_on_c, 9, 36, 100
1, 174340, Note_off_c, 9, 50, 80
1, 174342, Note_off_c, 9, 36, 100
1, 174342, Note_off_c, 9, 42, 82
1, 174344, Note_on_c, 9, 47, 62
1, 174346, Note_off_c, 9, 47, 62
1, 174374, Note_off_c, 9, 70, 64
1, 174402, Note_on_c, 9, 38, 80
1, 174430, Note_off_c, 3, 82, 127
1, 174432, Note_on_c, 3, 79, 127
1, 174432, Note_on_c, 3, 91, 127
1, 174454, Note_off_c, 9, 38, 80
1, 174466, Note_on_c, 9, 38, 90
1, 174516, Note_off_c, 9, 38, 90
1, 174526, Note_off_c, 3, 91, 127
1, 174526, Note_off_c, 3, 79, 64
1, 174528, Note_on_c, 3, 75, 127
1, 174528, Note_on_c, 3, 87, 127
1, 174534, Note_on_c, 9, 38, 112
1, 174534, Note_on_c, 9, 42, 70
1, 174534, Note_on_c, 9, 67, 60
1, 174538, Note_off_c, 9, 38, 112
1, 174538, Note_off_c, 9, 42, 70
1, 174538, Note_off_c, 9, 67, 60
1, 174582, Note_off_c, 3, 87, 127
1, 174598, Note_on_c, 9, 38, 105
1, 174600, Note_off_c, 9, 38, 105
1, 174658, Note_on_c, 9, 38, 103
1, 174660, Note_off_c, 9, 38, 103
1, 174718, Note_off_c, 3, 75, 127
1, 174720, Note_on_c, 3, 70, 127
1, 174720, Note_on_c, 3, 82, 127
1, 174726, Note_on_c, 9, 38, 120
1, 174726, Note_on_c, 9, 42, 78
1, 174726, Note_on_c, 9, 47, 60
1, 174730, Note_off_c, 9, 38, 120
1, 174730, Note_off_c, 9, 42, 78
1, 174730, Note_off_c, 9, 47, 60
1, 174814, Note_off_c, 3, 82, 64
1, 174814, Note_off_c, 3, 70, 127
1, 174816, Note_on_c, 3, 72, 127
1, 174816, Note_on_c, 3, 84, 127
1, 174818, Note_on_c, 9, 38, 120
1, 174820, Note_off_c, 9, 38, 120
1, 174874, Note_off_c, 5, 68, 80
1, 174884, Note_off_c, 5, 58, 80
1, 174886, Note_off_c, 5, 60, 80
1, 174894, Note_off_c, 5, 63, 80
1, 174910, Note_off_c, 3, 84, 127
1, 174910, Note_off_c, 3, 72, 127
1, 174912, Note_on_c, 3, 75, 127
1, 174912, Note_on_c, 3, 87, 127
1, 174914, Note_on_c, 9, 42, 70
1, 174914, Note_on_c, 9, 50, 80
1, 174918, Note_off_c, 9, 50, 80
1, 174918, Note_off_c, 9, 42, 70
1, 175004, Note_off_c, 3, 87, 127
1, 175034, Note_off_c, 6, 68, 89
1, 175038, Note_off_c, 6, 60, 89
1, 175042, Note_off_c, 6, 63, 89
1, 175050, Note_off_c, 1, 34, 122
1, 175058, Note_off_c, 6, 58, 89
1, 175290, Note_on_c, 5, 63, 80
1, 175294, Note_off_c, 3, 75, 64
1, 175294, Note_on_c, 5, 51, 80
1, 175294, Note_on_c, 5, 58, 80
1, 175294, Note_on_c, 5, 70, 80
1, 175296, Note_on_c, 3, 63, 127
1, 175296, Note_on_c, 3, 75, 127
1, 175296, Note_on_c, 3, 87, 127
1, 175296, Note_on_c, 3, 99, 127
1, 175300, Note_on_c, 9, 36, 100
1, 175302, Note_on_c, 9, 38, 120
1, 175302, Note_on_c, 9, 51, 55
1, 175304, Note_on_c, 6, 70, 89
1, 175306, Note_on_c, 9, 42, 72
1, 175306, Note_on_c, 9, 47, 62
1, 175306, Note_on_c, 9, 67, 60
1, 175306, Note_on_c, 1, 27, 122
1, 175308, Note_off_c, 9, 67, 60
1, 175308, Note_on_c, 6, 58, 89
1, 175308, Note_on_c, 6, 63, 89
1, 175310, Note_off_c, 9, 51, 55
1, 175310, Note_off_c, 9, 42, 72
1, 175310, Note_off_c, 9, 47, 62
1, 175312, Note_off_c, 9, 38, 120
1, 175312, Note_off_c, 9, 36, 100
1, 175314, Note_on_c, 6, 51, 89
1, 175426, Note_off_c, 3, 99, 127
1, 175428, Note_off_c, 9, 36, 64
1, 175428, Note_off_c, 3, 87, 127
1, 175428, Note_off_c, 3, 75, 127
1, 175430, Note_off_c, 3, 63, 127
1, 175434, Note_off_c, 9, 67, 64
1, 175434, Note_off_c, 9, 47, 64
1, 175434, Note_off_c, 9, 42, 64
1, 175438, Note_off_c, 6, 58, 89
1, 175438, Note_off_c, 5, 70, 80
1, 175450, Note_off_c, 5, 58, 80
1, 175450, Note_off_c, 5, 51, 80
1, 175454, Note_off_c, 6, 63, 89
1, 175454, Note_off_c, 6, 70, 89
1, 175460, Note_off_c, 6, 51, 89
1, 175462, Note_off_c, 5, 63, 80
1, 175468, Note_off_c, 1, 27, 122
1, 176640, End_track
0, 0, End_of_file
