0, 0, Header, 1, 9, 96
1, 0, Start_track
1, 0, Time_signature, 4, 2, 96, 8
1, 0, Tempo, 853485
1, 4224, Time_signature, 1, 2, 96, 8
1, 4320, Time_signature, 4, 2, 96, 8
1, 10848, Time_signature, 1, 2, 96, 8
1, 10944, Time_signature, 4, 2, 96, 8
1, 10944, End_track
2, 0, Start_track
2, 0, Title_t, "Soft karaoke"
2, 0, Text_t, "@KMIDI KARAOKR FILE"
2, 0, Title_t, "Soft karaoke"
2, 0, Text_t, "@KMIDI KARAOKR FILE"
2, 0, Title_t, "Soft karaoke"
2, 0, Text_t, "@KMIDI KARAOKR FILE"
2, 0, Title_t, "Soft karaoke"
2, 0, Text_t, "@KMIDI KARAOKR FILE"
2, 0, Title_t, "Soft karaoke"
2, 0, Text_t, "@KMIDI KARAOKR FILE"
2, 0, Title_t, "Lonely Boy (I'm Just a)"
2, 0, Control_c, 0, 0, 0
2, 0, Program_c, 0, 33
2, 0, Control_c, 0, 10, 76
2, 0, Time_signature, 4, 2, 96, 8
2, 0, Tempo, 853485
2, 0, Control_c, 0, 7, 100
2, 19, Control_c, 0, 10, 76
2, 24, Control_c, 0, 10, 76
2, 28, Control_c, 0, 10, 76
2, 33, Control_c, 0, 10, 76
2, 384, Note_on_c, 0, 36, 78
2, 480, Note_on_c, 0, 34, 78
2, 486, Note_on_c, 0, 36, 0
2, 538, Note_on_c, 0, 34, 0
2, 544, Note_on_c, 0, 41, 91
2, 576, Note_on_c, 0, 36, 96
2, 578, Note_on_c, 0, 41, 0
2, 664, Note_on_c, 0, 36, 0
2, 672, Note_on_c, 0, 34, 100
2, 729, Note_on_c, 0, 34, 0
2, 736, Note_on_c, 0, 41, 105
2, 768, Note_on_c, 0, 36, 91
2, 769, Note_on_c, 0, 41, 0
2, 860, Note_on_c, 0, 36, 0
2, 864, Note_on_c, 0, 34, 100
2, 928, Note_on_c, 0, 34, 0
2, 928, Note_on_c, 0, 41, 96
2, 960, Note_on_c, 0, 36, 100
2, 962, Note_on_c, 0, 41, 0
2, 1126, Note_on_c, 0, 36, 0
2, 1152, Note_on_c, 0, 36, 100
2, 1243, Note_on_c, 0, 36, 0
2, 1248, Note_on_c, 0, 34, 96
2, 1306, Note_on_c, 0, 34, 0
2, 1312, Note_on_c, 0, 41, 91
2, 1344, Note_on_c, 0, 36, 100
2, 1345, Note_on_c, 0, 41, 0
2, 1428, Note_on_c, 0, 36, 0
2, 1440, Note_on_c, 0, 36, 91
2, 1472, Note_on_c, 0, 31, 87
2, 1478, Note_on_c, 0, 36, 0
2, 1501, Note_on_c, 0, 31, 0
2, 1504, Note_on_c, 0, 36, 91
2, 1518, Note_on_c, 0, 36, 0
2, 1536, Note_on_c, 0, 43, 100
2, 1626, Note_on_c, 0, 43, 0
2, 1632, Note_on_c, 0, 41, 100
2, 1726, Note_on_c, 0, 41, 0
2, 1728, Note_on_c, 0, 31, 91
2, 1820, Note_on_c, 0, 31, 0
2, 1824, Note_on_c, 0, 31, 87
2, 1886, Note_on_c, 0, 31, 0
2, 1888, Note_on_c, 0, 38, 74
2, 1904, Note_on_c, 0, 38, 0
2, 1920, Note_on_c, 0, 43, 91
2, 2014, Note_on_c, 0, 43, 0
2, 2016, Note_on_c, 0, 41, 105
2, 2075, Note_on_c, 0, 41, 0
2, 2080, Note_on_c, 0, 40, 74
2, 2108, Note_on_c, 0, 40, 0
2, 2112, Note_on_c, 0, 31, 87
2, 2205, Note_on_c, 0, 31, 0
2, 2208, Note_on_c, 0, 43, 83
2, 2240, Note_on_c, 0, 31, 78
2, 2245, Note_on_c, 0, 43, 0
2, 2272, Note_on_c, 0, 43, 87
2, 2273, Note_on_c, 0, 31, 0
2, 2300, Note_on_c, 0, 43, 0
2, 2304, Note_on_c, 0, 36, 87
2, 2398, Note_on_c, 0, 36, 0
2, 2400, Note_on_c, 0, 34, 100
2, 2453, Note_on_c, 0, 34, 0
2, 2464, Note_on_c, 0, 41, 83
2, 2496, Note_on_c, 0, 41, 0
2, 2496, Note_on_c, 0, 36, 105
2, 2581, Note_on_c, 0, 36, 0
2, 2592, Note_on_c, 0, 36, 87
2, 2624, Note_on_c, 0, 31, 87
2, 2628, Note_on_c, 0, 36, 0
2, 2653, Note_on_c, 0, 31, 0
2, 2656, Note_on_c, 0, 36, 91
2, 2675, Note_on_c, 0, 36, 0
2, 2688, Note_on_c, 0, 36, 100
2, 2779, Note_on_c, 0, 36, 0
2, 2784, Note_on_c, 0, 34, 96
2, 2842, Note_on_c, 0, 34, 0
2, 2848, Note_on_c, 0, 41, 91
2, 2880, Note_on_c, 0, 36, 100
2, 2881, Note_on_c, 0, 41, 0
2, 2964, Note_on_c, 0, 36, 0
2, 2976, Note_on_c, 0, 36, 91
2, 3008, Note_on_c, 0, 31, 87
2, 3014, Note_on_c, 0, 36, 0
2, 3037, Note_on_c, 0, 31, 0
2, 3040, Note_on_c, 0, 36, 91
2, 3054, Note_on_c, 0, 36, 0
2, 3072, Note_on_c, 0, 43, 100
2, 3162, Note_on_c, 0, 43, 0
2, 3168, Note_on_c, 0, 41, 100
2, 3262, Note_on_c, 0, 41, 0
2, 3264, Note_on_c, 0, 31, 91
2, 3356, Note_on_c, 0, 31, 0
2, 3360, Note_on_c, 0, 31, 87
2, 3422, Note_on_c, 0, 31, 0
2, 3424, Note_on_c, 0, 38, 74
2, 3440, Note_on_c, 0, 38, 0
2, 3456, Note_on_c, 0, 43, 91
2, 3550, Note_on_c, 0, 43, 0
2, 3552, Note_on_c, 0, 41, 105
2, 3611, Note_on_c, 0, 41, 0
2, 3616, Note_on_c, 0, 40, 74
2, 3644, Note_on_c, 0, 40, 0
2, 3648, Note_on_c, 0, 31, 87
2, 3741, Note_on_c, 0, 31, 0
2, 3744, Note_on_c, 0, 43, 83
2, 3776, Note_on_c, 0, 31, 78
2, 3781, Note_on_c, 0, 43, 0
2, 3808, Note_on_c, 0, 43, 87
2, 3809, Note_on_c, 0, 31, 0
2, 3836, Note_on_c, 0, 43, 0
2, 3840, Note_on_c, 0, 36, 87
2, 3934, Note_on_c, 0, 36, 0
2, 3936, Note_on_c, 0, 34, 100
2, 3989, Note_on_c, 0, 34, 0
2, 4000, Note_on_c, 0, 41, 83
2, 4032, Note_on_c, 0, 41, 0
2, 4032, Note_on_c, 0, 36, 105
2, 4117, Note_on_c, 0, 36, 0
2, 4128, Note_on_c, 0, 36, 87
2, 4160, Note_on_c, 0, 31, 87
2, 4164, Note_on_c, 0, 36, 0
2, 4167, Note_on_c, 0, 48, 41
2, 4176, Note_on_c, 0, 48, 0
2, 4189, Note_on_c, 0, 31, 0
2, 4190, Note_on_c, 0, 48, 66
2, 4192, Note_on_c, 0, 36, 91
2, 4204, Note_on_c, 0, 48, 0
2, 4211, Note_on_c, 0, 36, 0
2, 4224, Time_signature, 1, 2, 96, 8
2, 4225, Note_on_c, 0, 48, 111
2, 4238, Note_on_c, 0, 48, 0
2, 4255, Note_on_c, 0, 48, 91
2, 4269, Note_on_c, 0, 48, 0
2, 4287, Note_on_c, 0, 48, 125
2, 4303, Note_on_c, 0, 48, 0
2, 4320, Time_signature, 4, 2, 96, 8
2, 4320, Note_on_c, 0, 36, 100
2, 4414, Note_on_c, 0, 36, 0
2, 4416, Note_on_c, 0, 40, 91
2, 4476, Note_on_c, 0, 40, 0
2, 4480, Note_on_c, 0, 45, 91
2, 4512, Note_on_c, 0, 43, 78
2, 4514, Note_on_c, 0, 45, 0
2, 4568, Note_on_c, 0, 43, 0
2, 4576, Note_on_c, 0, 45, 74
2, 4608, Note_on_c, 0, 43, 91
2, 4615, Note_on_c, 0, 45, 0
2, 4668, Note_on_c, 0, 43, 0
2, 4672, Note_on_c, 0, 40, 91
2, 4700, Note_on_c, 0, 40, 0
2, 4704, Note_on_c, 0, 31, 100
2, 4798, Note_on_c, 0, 31, 0
2, 4800, Note_on_c, 0, 35, 87
2, 4862, Note_on_c, 0, 35, 0
2, 4864, Note_on_c, 0, 40, 87
2, 4890, Note_on_c, 0, 40, 0
2, 4896, Note_on_c, 0, 38, 83
2, 4988, Note_on_c, 0, 38, 0
2, 4992, Note_on_c, 0, 40, 83
2, 5053, Note_on_c, 0, 40, 0
2, 5056, Note_on_c, 0, 38, 87
2, 5084, Note_on_c, 0, 38, 0
2, 5088, Note_on_c, 0, 31, 91
2, 5180, Note_on_c, 0, 31, 0
2, 5184, Note_on_c, 0, 35, 87
2, 5240, Note_on_c, 0, 35, 0
2, 5248, Note_on_c, 0, 40, 87
2, 5277, Note_on_c, 0, 40, 0
2, 5280, Note_on_c, 0, 38, 83
2, 5333, Note_on_c, 0, 38, 0
2, 5344, Note_on_c, 0, 38, 91
2, 5375, Note_on_c, 0, 38, 0
2, 5376, Note_on_c, 0, 40, 74
2, 5434, Note_on_c, 0, 40, 0
2, 5440, Note_on_c, 0, 38, 74
2, 5469, Note_on_c, 0, 38, 0
2, 5472, Note_on_c, 0, 36, 91
2, 5565, Note_on_c, 0, 36, 0
2, 5568, Note_on_c, 0, 40, 91
2, 5622, Note_on_c, 0, 40, 0
2, 5632, Note_on_c, 0, 45, 87
2, 5661, Note_on_c, 0, 45, 0
2, 5664, Note_on_c, 0, 43, 83
2, 5713, Note_on_c, 0, 43, 0
2, 5728, Note_on_c, 0, 43, 87
2, 5749, Note_on_c, 0, 43, 0
2, 5760, Note_on_c, 0, 43, 91
2, 5789, Note_on_c, 0, 43, 0
2, 5792, Note_on_c, 0, 45, 74
2, 5824, Note_on_c, 0, 43, 87
2, 5825, Note_on_c, 0, 45, 0
2, 5845, Note_on_c, 0, 43, 0
2, 5856, Note_on_c, 0, 36, 100
2, 5950, Note_on_c, 0, 36, 0
2, 5952, Note_on_c, 0, 40, 91
2, 6012, Note_on_c, 0, 40, 0
2, 6016, Note_on_c, 0, 45, 91
2, 6048, Note_on_c, 0, 43, 78
2, 6050, Note_on_c, 0, 45, 0
2, 6104, Note_on_c, 0, 43, 0
2, 6112, Note_on_c, 0, 45, 74
2, 6144, Note_on_c, 0, 43, 91
2, 6151, Note_on_c, 0, 45, 0
2, 6204, Note_on_c, 0, 43, 0
2, 6208, Note_on_c, 0, 40, 91
2, 6236, Note_on_c, 0, 40, 0
2, 6240, Note_on_c, 0, 31, 100
2, 6334, Note_on_c, 0, 31, 0
2, 6336, Note_on_c, 0, 35, 87
2, 6398, Note_on_c, 0, 35, 0
2, 6400, Note_on_c, 0, 40, 87
2, 6426, Note_on_c, 0, 40, 0
2, 6432, Note_on_c, 0, 38, 83
2, 6524, Note_on_c, 0, 38, 0
2, 6528, Note_on_c, 0, 40, 83
2, 6589, Note_on_c, 0, 40, 0
2, 6592, Note_on_c, 0, 38, 87
2, 6620, Note_on_c, 0, 38, 0
2, 6624, Note_on_c, 0, 31, 91
2, 6716, Note_on_c, 0, 31, 0
2, 6720, Note_on_c, 0, 35, 87
2, 6776, Note_on_c, 0, 35, 0
2, 6784, Note_on_c, 0, 40, 87
2, 6813, Note_on_c, 0, 40, 0
2, 6816, Note_on_c, 0, 38, 83
2, 6869, Note_on_c, 0, 38, 0
2, 6880, Note_on_c, 0, 38, 91
2, 6911, Note_on_c, 0, 38, 0
2, 6912, Note_on_c, 0, 40, 74
2, 6970, Note_on_c, 0, 40, 0
2, 6976, Note_on_c, 0, 38, 74
2, 7005, Note_on_c, 0, 38, 0
2, 7008, Note_on_c, 0, 36, 91
2, 7104, Note_on_c, 0, 34, 105
2, 7110, Note_on_c, 0, 36, 0
2, 7162, Note_on_c, 0, 34, 0
2, 7168, Note_on_c, 0, 41, 91
2, 7200, Note_on_c, 0, 36, 96
2, 7202, Note_on_c, 0, 41, 0
2, 7288, Note_on_c, 0, 36, 0
2, 7296, Note_on_c, 0, 34, 100
2, 7353, Note_on_c, 0, 34, 0
2, 7360, Note_on_c, 0, 41, 105
2, 7392, Note_on_c, 0, 36, 91
2, 7393, Note_on_c, 0, 41, 0
2, 7484, Note_on_c, 0, 36, 0
2, 7488, Note_on_c, 0, 34, 100
2, 7552, Note_on_c, 0, 34, 0
2, 7552, Note_on_c, 0, 41, 96
2, 7584, Note_on_c, 0, 36, 100
2, 7586, Note_on_c, 0, 41, 0
2, 7750, Note_on_c, 0, 36, 0
2, 7776, Note_on_c, 0, 36, 100
2, 7867, Note_on_c, 0, 36, 0
2, 7872, Note_on_c, 0, 34, 96
2, 7930, Note_on_c, 0, 34, 0
2, 7936, Note_on_c, 0, 41, 91
2, 7968, Note_on_c, 0, 36, 100
2, 7969, Note_on_c, 0, 41, 0
2, 8052, Note_on_c, 0, 36, 0
2, 8064, Note_on_c, 0, 36, 91
2, 8096, Note_on_c, 0, 31, 87
2, 8102, Note_on_c, 0, 36, 0
2, 8125, Note_on_c, 0, 31, 0
2, 8128, Note_on_c, 0, 36, 91
2, 8142, Note_on_c, 0, 36, 0
2, 8160, Note_on_c, 0, 43, 100
2, 8250, Note_on_c, 0, 43, 0
2, 8256, Note_on_c, 0, 41, 100
2, 8350, Note_on_c, 0, 41, 0
2, 8352, Note_on_c, 0, 31, 91
2, 8444, Note_on_c, 0, 31, 0
2, 8448, Note_on_c, 0, 31, 87
2, 8510, Note_on_c, 0, 31, 0
2, 8512, Note_on_c, 0, 38, 74
2, 8528, Note_on_c, 0, 38, 0
2, 8544, Note_on_c, 0, 43, 91
2, 8638, Note_on_c, 0, 43, 0
2, 8640, Note_on_c, 0, 41, 105
2, 8699, Note_on_c, 0, 41, 0
2, 8704, Note_on_c, 0, 40, 74
2, 8732, Note_on_c, 0, 40, 0
2, 8736, Note_on_c, 0, 31, 87
2, 8829, Note_on_c, 0, 31, 0
2, 8832, Note_on_c, 0, 43, 83
2, 8864, Note_on_c, 0, 31, 78
2, 8869, Note_on_c, 0, 43, 0
2, 8896, Note_on_c, 0, 43, 87
2, 8897, Note_on_c, 0, 31, 0
2, 8924, Note_on_c, 0, 43, 0
2, 8928, Note_on_c, 0, 36, 87
2, 9022, Note_on_c, 0, 36, 0
2, 9024, Note_on_c, 0, 34, 100
2, 9077, Note_on_c, 0, 34, 0
2, 9088, Note_on_c, 0, 41, 83
2, 9120, Note_on_c, 0, 41, 0
2, 9120, Note_on_c, 0, 36, 105
2, 9205, Note_on_c, 0, 36, 0
2, 9216, Note_on_c, 0, 36, 87
2, 9248, Note_on_c, 0, 31, 87
2, 9252, Note_on_c, 0, 36, 0
2, 9277, Note_on_c, 0, 31, 0
2, 9280, Note_on_c, 0, 36, 91
2, 9299, Note_on_c, 0, 36, 0
2, 9312, Note_on_c, 0, 36, 100
2, 9403, Note_on_c, 0, 36, 0
2, 9408, Note_on_c, 0, 34, 96
2, 9466, Note_on_c, 0, 34, 0
2, 9472, Note_on_c, 0, 41, 91
2, 9504, Note_on_c, 0, 36, 100
2, 9505, Note_on_c, 0, 41, 0
2, 9588, Note_on_c, 0, 36, 0
2, 9600, Note_on_c, 0, 36, 91
2, 9632, Note_on_c, 0, 31, 87
2, 9638, Note_on_c, 0, 36, 0
2, 9661, Note_on_c, 0, 31, 0
2, 9664, Note_on_c, 0, 36, 91
2, 9678, Note_on_c, 0, 36, 0
2, 9696, Note_on_c, 0, 43, 100
2, 9786, Note_on_c, 0, 43, 0
2, 9792, Note_on_c, 0, 41, 100
2, 9886, Note_on_c, 0, 41, 0
2, 9888, Note_on_c, 0, 31, 91
2, 9980, Note_on_c, 0, 31, 0
2, 9984, Note_on_c, 0, 31, 87
2, 10046, Note_on_c, 0, 31, 0
2, 10048, Note_on_c, 0, 38, 74
2, 10064, Note_on_c, 0, 38, 0
2, 10080, Note_on_c, 0, 43, 91
2, 10174, Note_on_c, 0, 43, 0
2, 10176, Note_on_c, 0, 41, 105
2, 10235, Note_on_c, 0, 41, 0
2, 10240, Note_on_c, 0, 40, 74
2, 10268, Note_on_c, 0, 40, 0
2, 10272, Note_on_c, 0, 31, 87
2, 10365, Note_on_c, 0, 31, 0
2, 10368, Note_on_c, 0, 43, 83
2, 10400, Note_on_c, 0, 31, 78
2, 10405, Note_on_c, 0, 43, 0
2, 10432, Note_on_c, 0, 43, 87
2, 10433, Note_on_c, 0, 31, 0
2, 10460, Note_on_c, 0, 43, 0
2, 10464, Note_on_c, 0, 36, 87
2, 10558, Note_on_c, 0, 36, 0
2, 10560, Note_on_c, 0, 34, 100
2, 10613, Note_on_c, 0, 34, 0
2, 10624, Note_on_c, 0, 41, 83
2, 10656, Note_on_c, 0, 41, 0
2, 10656, Note_on_c, 0, 36, 105
2, 10741, Note_on_c, 0, 36, 0
2, 10752, Note_on_c, 0, 36, 87
2, 10784, Note_on_c, 0, 31, 87
2, 10788, Note_on_c, 0, 36, 0
2, 10791, Note_on_c, 0, 48, 41
2, 10800, Note_on_c, 0, 48, 0
2, 10813, Note_on_c, 0, 31, 0
2, 10814, Note_on_c, 0, 48, 66
2, 10816, Note_on_c, 0, 36, 91
2, 10828, Note_on_c, 0, 48, 0
2, 10835, Note_on_c, 0, 36, 0
2, 10848, Time_signature, 1, 2, 96, 8
2, 10849, Note_on_c, 0, 48, 111
2, 10862, Note_on_c, 0, 48, 0
2, 10879, Note_on_c, 0, 48, 91
2, 10893, Note_on_c, 0, 48, 0
2, 10911, Note_on_c, 0, 48, 125
2, 10927, Note_on_c, 0, 48, 0
2, 10944, Time_signature, 4, 2, 96, 8
2, 10944, Note_on_c, 0, 36, 100
2, 11038, Note_on_c, 0, 36, 0
2, 11040, Note_on_c, 0, 40, 91
2, 11100, Note_on_c, 0, 40, 0
2, 11104, Note_on_c, 0, 45, 91
2, 11136, Note_on_c, 0, 43, 78
2, 11138, Note_on_c, 0, 45, 0
2, 11192, Note_on_c, 0, 43, 0
2, 11200, Note_on_c, 0, 45, 74
2, 11232, Note_on_c, 0, 43, 91
2, 11239, Note_on_c, 0, 45, 0
2, 11292, Note_on_c, 0, 43, 0
2, 11296, Note_on_c, 0, 40, 91
2, 11324, Note_on_c, 0, 40, 0
2, 11328, Note_on_c, 0, 31, 100
2, 11422, Note_on_c, 0, 31, 0
2, 11424, Note_on_c, 0, 35, 87
2, 11486, Note_on_c, 0, 35, 0
2, 11488, Note_on_c, 0, 40, 87
2, 11514, Note_on_c, 0, 40, 0
2, 11520, Note_on_c, 0, 38, 83
2, 11612, Note_on_c, 0, 38, 0
2, 11616, Note_on_c, 0, 40, 83
2, 11677, Note_on_c, 0, 40, 0
2, 11680, Note_on_c, 0, 38, 87
2, 11708, Note_on_c, 0, 38, 0
2, 11712, Note_on_c, 0, 31, 91
2, 11804, Note_on_c, 0, 31, 0
2, 11808, Note_on_c, 0, 35, 87
2, 11864, Note_on_c, 0, 35, 0
2, 11872, Note_on_c, 0, 40, 87
2, 11901, Note_on_c, 0, 40, 0
2, 11904, Note_on_c, 0, 38, 83
2, 11957, Note_on_c, 0, 38, 0
2, 11968, Note_on_c, 0, 38, 91
2, 11999, Note_on_c, 0, 38, 0
2, 12000, Note_on_c, 0, 40, 74
2, 12058, Note_on_c, 0, 40, 0
2, 12064, Note_on_c, 0, 38, 74
2, 12093, Note_on_c, 0, 38, 0
2, 12096, Note_on_c, 0, 36, 91
2, 12189, Note_on_c, 0, 36, 0
2, 12192, Note_on_c, 0, 40, 91
2, 12246, Note_on_c, 0, 40, 0
2, 12256, Note_on_c, 0, 45, 87
2, 12285, Note_on_c, 0, 45, 0
2, 12288, Note_on_c, 0, 43, 83
2, 12337, Note_on_c, 0, 43, 0
2, 12352, Note_on_c, 0, 43, 87
2, 12373, Note_on_c, 0, 43, 0
2, 12384, Note_on_c, 0, 43, 91
2, 12413, Note_on_c, 0, 43, 0
2, 12416, Note_on_c, 0, 45, 74
2, 12448, Note_on_c, 0, 43, 87
2, 12449, Note_on_c, 0, 45, 0
2, 12469, Note_on_c, 0, 43, 0
2, 12480, Note_on_c, 0, 36, 100
2, 12574, Note_on_c, 0, 36, 0
2, 12576, Note_on_c, 0, 40, 91
2, 12636, Note_on_c, 0, 40, 0
2, 12640, Note_on_c, 0, 45, 91
2, 12672, Note_on_c, 0, 43, 78
2, 12674, Note_on_c, 0, 45, 0
2, 12728, Note_on_c, 0, 43, 0
2, 12736, Note_on_c, 0, 45, 74
2, 12768, Note_on_c, 0, 43, 91
2, 12775, Note_on_c, 0, 45, 0
2, 12828, Note_on_c, 0, 43, 0
2, 12832, Note_on_c, 0, 40, 91
2, 12860, Note_on_c, 0, 40, 0
2, 12864, Note_on_c, 0, 31, 100
2, 12958, Note_on_c, 0, 31, 0
2, 12960, Note_on_c, 0, 35, 87
2, 13022, Note_on_c, 0, 35, 0
2, 13024, Note_on_c, 0, 40, 87
2, 13050, Note_on_c, 0, 40, 0
2, 13056, Note_on_c, 0, 38, 83
2, 13148, Note_on_c, 0, 38, 0
2, 13152, Note_on_c, 0, 40, 83
2, 13213, Note_on_c, 0, 40, 0
2, 13216, Note_on_c, 0, 38, 87
2, 13244, Note_on_c, 0, 38, 0
2, 13248, Note_on_c, 0, 31, 91
2, 13340, Note_on_c, 0, 31, 0
2, 13344, Note_on_c, 0, 35, 87
2, 13400, Note_on_c, 0, 35, 0
2, 13408, Note_on_c, 0, 40, 87
2, 13437, Note_on_c, 0, 40, 0
2, 13440, Note_on_c, 0, 38, 83
2, 13493, Note_on_c, 0, 38, 0
2, 13504, Note_on_c, 0, 38, 91
2, 13535, Note_on_c, 0, 38, 0
2, 13536, Note_on_c, 0, 40, 74
2, 13594, Note_on_c, 0, 40, 0
2, 13600, Note_on_c, 0, 38, 74
2, 13629, Note_on_c, 0, 38, 0
2, 13632, Note_on_c, 0, 36, 91
2, 13728, Note_on_c, 0, 34, 105
2, 13734, Note_on_c, 0, 36, 0
2, 13786, Note_on_c, 0, 34, 0
2, 13792, Note_on_c, 0, 41, 91
2, 13824, Note_on_c, 0, 36, 96
2, 13826, Note_on_c, 0, 41, 0
2, 13912, Note_on_c, 0, 36, 0
2, 13920, Note_on_c, 0, 34, 100
2, 13977, Note_on_c, 0, 34, 0
2, 13984, Note_on_c, 0, 41, 105
2, 14016, Note_on_c, 0, 36, 91
2, 14017, Note_on_c, 0, 41, 0
2, 14108, Note_on_c, 0, 36, 0
2, 14112, Note_on_c, 0, 34, 100
2, 14176, Note_on_c, 0, 34, 0
2, 14176, Note_on_c, 0, 41, 96
2, 14208, Note_on_c, 0, 36, 100
2, 14210, Note_on_c, 0, 41, 0
2, 14374, Note_on_c, 0, 36, 0
2, 14400, Note_on_c, 0, 36, 100
2, 14491, Note_on_c, 0, 36, 0
2, 14496, Note_on_c, 0, 34, 96
2, 14554, Note_on_c, 0, 34, 0
2, 14560, Note_on_c, 0, 41, 91
2, 14592, Note_on_c, 0, 36, 100
2, 14593, Note_on_c, 0, 41, 0
2, 14676, Note_on_c, 0, 36, 0
2, 14688, Note_on_c, 0, 36, 91
2, 14720, Note_on_c, 0, 31, 87
2, 14726, Note_on_c, 0, 36, 0
2, 14749, Note_on_c, 0, 31, 0
2, 14752, Note_on_c, 0, 36, 91
2, 14766, Note_on_c, 0, 36, 0
2, 14784, Note_on_c, 0, 43, 100
2, 14874, Note_on_c, 0, 43, 0
2, 14880, Note_on_c, 0, 41, 100
2, 14974, Note_on_c, 0, 41, 0
2, 14976, Note_on_c, 0, 31, 91
2, 15068, Note_on_c, 0, 31, 0
2, 15072, Note_on_c, 0, 31, 87
2, 15134, Note_on_c, 0, 31, 0
2, 15136, Note_on_c, 0, 38, 74
2, 15152, Note_on_c, 0, 38, 0
2, 15168, Note_on_c, 0, 43, 91
2, 15262, Note_on_c, 0, 43, 0
2, 15264, Note_on_c, 0, 41, 105
2, 15323, Note_on_c, 0, 41, 0
2, 15328, Note_on_c, 0, 40, 74
2, 15356, Note_on_c, 0, 40, 0
2, 15360, Note_on_c, 0, 31, 87
2, 15453, Note_on_c, 0, 31, 0
2, 15456, Note_on_c, 0, 43, 83
2, 15488, Note_on_c, 0, 31, 78
2, 15493, Note_on_c, 0, 43, 0
2, 15520, Note_on_c, 0, 43, 87
2, 15521, Note_on_c, 0, 31, 0
2, 15548, Note_on_c, 0, 43, 0
2, 15552, Note_on_c, 0, 36, 87
2, 15646, Note_on_c, 0, 36, 0
2, 15648, Note_on_c, 0, 34, 100
2, 15701, Note_on_c, 0, 34, 0
2, 15712, Note_on_c, 0, 41, 83
2, 15744, Note_on_c, 0, 41, 0
2, 15744, Note_on_c, 0, 36, 105
2, 15829, Note_on_c, 0, 36, 0
2, 15840, Note_on_c, 0, 36, 87
2, 15872, Note_on_c, 0, 31, 87
2, 15876, Note_on_c, 0, 36, 0
2, 15901, Note_on_c, 0, 31, 0
2, 15904, Note_on_c, 0, 36, 91
2, 15923, Note_on_c, 0, 36, 0
2, 15936, Note_on_c, 0, 36, 100
2, 16027, Note_on_c, 0, 36, 0
2, 16032, Note_on_c, 0, 34, 96
2, 16090, Note_on_c, 0, 34, 0
2, 16096, Note_on_c, 0, 41, 91
2, 16128, Note_on_c, 0, 36, 100
2, 16129, Note_on_c, 0, 41, 0
2, 16212, Note_on_c, 0, 36, 0
2, 16224, Note_on_c, 0, 36, 91
2, 16256, Note_on_c, 0, 31, 87
2, 16262, Note_on_c, 0, 36, 0
2, 16285, Note_on_c, 0, 31, 0
2, 16288, Note_on_c, 0, 36, 91
2, 16302, Note_on_c, 0, 36, 0
2, 16320, Note_on_c, 0, 43, 100
2, 16410, Note_on_c, 0, 43, 0
2, 16416, Note_on_c, 0, 41, 100
2, 16510, Note_on_c, 0, 41, 0
2, 16512, Note_on_c, 0, 31, 91
2, 16604, Note_on_c, 0, 31, 0
2, 16608, Note_on_c, 0, 31, 87
2, 16670, Note_on_c, 0, 31, 0
2, 16672, Note_on_c, 0, 38, 74
2, 16688, Note_on_c, 0, 38, 0
2, 16704, Note_on_c, 0, 43, 91
2, 16798, Note_on_c, 0, 43, 0
2, 16800, Note_on_c, 0, 41, 105
2, 16859, Note_on_c, 0, 41, 0
2, 16864, Note_on_c, 0, 40, 74
2, 16892, Note_on_c, 0, 40, 0
2, 16896, Note_on_c, 0, 31, 87
2, 16989, Note_on_c, 0, 31, 0
2, 16992, Note_on_c, 0, 43, 83
2, 17024, Note_on_c, 0, 31, 78
2, 17029, Note_on_c, 0, 43, 0
2, 17056, Note_on_c, 0, 43, 87
2, 17057, Note_on_c, 0, 31, 0
2, 17084, Note_on_c, 0, 43, 0
2, 17088, Note_on_c, 0, 36, 91
2, 17184, Note_on_c, 0, 34, 105
2, 17190, Note_on_c, 0, 36, 0
2, 17242, Note_on_c, 0, 34, 0
2, 17248, Note_on_c, 0, 41, 91
2, 17280, Note_on_c, 0, 36, 96
2, 17282, Note_on_c, 0, 41, 0
2, 17368, Note_on_c, 0, 36, 0
2, 17376, Note_on_c, 0, 34, 100
2, 17433, Note_on_c, 0, 34, 0
2, 17440, Note_on_c, 0, 41, 105
2, 17472, Note_on_c, 0, 36, 91
2, 17473, Note_on_c, 0, 41, 0
2, 17564, Note_on_c, 0, 36, 0
2, 17568, Note_on_c, 0, 34, 100
2, 17632, Note_on_c, 0, 34, 0
2, 17632, Note_on_c, 0, 41, 96
2, 17664, Note_on_c, 0, 36, 100
2, 17666, Note_on_c, 0, 41, 0
2, 18310, Note_on_c, 0, 36, 0
2, 18310, End_track
3, 0, Start_track
3, 0, Text_t, "@LENGL"
3, 0, Text_t, "@TLONELY BOY (I'm Just A)"
3, 956, Text_t, "/"
3, 1061, Text_t, "I'm "
3, 1090, Text_t, "just "
3, 1120, Text_t, "a "
3, 1152, Text_t, "lone"
3, 1184, Text_t, "ly "
3, 1215, Text_t, "boy "
3, 1431, Text_t, "/"
3, 1441, Text_t, "lone"
3, 1472, Text_t, "ly "
3, 1501, Text_t, "and "
3, 1533, Text_t, "blue "
3, 1814, Text_t, "/"
3, 1826, Text_t, "I'm "
3, 1854, Text_t, "all "
3, 1884, Text_t, "a"
3, 1918, Text_t, "lone "
3, 2166, Text_t, "/"
3, 2175, Text_t, "with "
3, 2207, Text_t, "noth"
3, 2237, Text_t, "in' "
3, 2270, Text_t, "to "
3, 2305, Text_t, "do "
3, 2544, Text_t, "/"
3, 2562, Text_t, "I've "
3, 2595, Text_t, "got  "
3, 2624, Text_t, "ev"
3, 2655, Text_t, "'ry"
3, 2689, Text_t, "thing "
3, 2966, Text_t, "/"
3, 2977, Text_t, "you "
3, 3006, Text_t, "could "
3, 3037, Text_t, "think "
3, 3070, Text_t, "of "
3, 3350, Text_t, "/"
3, 3360, Text_t, "But "
3, 3389, Text_t, "all "
3, 3421, Text_t, "I "
3, 3454, Text_t, "want "
3, 3701, Text_t, "/"
3, 3712, Text_t, "is "
3, 3744, Text_t, "some"
3, 3776, Text_t, "one "
3, 3806, Text_t, "to "
3, 3841, Text_t, "love "
3, 4118, Text_t, "/"
3, 4130, Text_t, "Some"
3, 4162, Text_t, "one "
3, 4193, Text_t, "yes "
3, 4223, Text_t, "some"
3, 4257, Text_t, "one "
3, 4287, Text_t, "to "
3, 4320, Text_t, "love "
3, 4595, Text_t, "/"
3, 4607, Text_t, "some"
3, 4641, Text_t, "one "
3, 4671, Text_t, "to "
3, 4704, Text_t, "kiss "
3, 4981, Text_t, "/"
3, 4995, Text_t, "Some"
3, 5023, Text_t, "one "
3, 5053, Text_t, "to "
3, 5086, Text_t, "hold "
3, 5334, Text_t, "/"
3, 5350, Text_t, "at "
3, 5359, Text_t, "a "
3, 5380, Text_t, "mo"
3, 5402, Text_t, "ment "
3, 5439, Text_t, "like "
3, 5474, Text_t, "this "
3, 5713, Text_t, "/"
3, 5730, Text_t, "I'd "
3, 5762, Text_t, "like "
3, 5810, Text_t, "to "
3, 5856, Text_t, "hear "
3, 6126, Text_t, "/"
3, 6143, Text_t, "some"
3, 6177, Text_t, "bo"
3, 6207, Text_t, "dy "
3, 6240, Text_t, "say "
3, 6516, Text_t, "/"
3, 6519, Text_t, "I'll "
3, 6532, Text_t, "give "
3, 6559, Text_t, "you "
3, 6589, Text_t, "my "
3, 6622, Text_t, "love "
3, 6876, Text_t, "/"
3, 6886, Text_t, "each "
3, 6916, Text_t, "night "
3, 6975, Text_t, "and "
3, 7010, Text_t, "day "
3, 7076, Text_t, ""
3, 7668, Text_t, "/"
3, 7685, Text_t, "I'm "
3, 7714, Text_t, "just "
3, 7744, Text_t, "a "
3, 7776, Text_t, "lone"
3, 7808, Text_t, "ly "
3, 7839, Text_t, "boy "
3, 8058, Text_t, "/"
3, 8065, Text_t, "lone"
3, 8096, Text_t, "ly "
3, 8125, Text_t, "and "
3, 8157, Text_t, "blue "
3, 8441, Text_t, "/"
3, 8450, Text_t, "I'm "
3, 8478, Text_t, "all "
3, 8508, Text_t, "a"
3, 8542, Text_t, "lone "
3, 8788, Text_t, "/"
3, 8799, Text_t, "with "
3, 8831, Text_t, "noth"
3, 8861, Text_t, "in' "
3, 8894, Text_t, "to "
3, 8929, Text_t, "do "
3, 9176, Text_t, "/"
3, 9186, Text_t, "I've "
3, 9219, Text_t, "got "
3, 9248, Text_t, "e"
3, 9280, Text_t, "ver"
3, 9313, Text_t, "y"
3, 9344, Text_t, "thing "
3, 9594, Text_t, "/"
3, 9601, Text_t, "you "
3, 9630, Text_t, "could "
3, 9661, Text_t, "think "
3, 9694, Text_t, "of "
3, 9976, Text_t, "/"
3, 9984, Text_t, "But "
3, 10013, Text_t, "all "
3, 10045, Text_t, "I "
3, 10078, Text_t, "want "
3, 10329, Text_t, "/"
3, 10336, Text_t, "is "
3, 10368, Text_t, "some"
3, 10400, Text_t, "one "
3, 10430, Text_t, "to "
3, 10465, Text_t, "love "
3, 10737, Text_t, "/"
3, 10780, Text_t, "Some"
3, 10797, Text_t, "bod"
3, 10811, Text_t, "y "
3, 10846, Text_t, "some"
3, 10867, Text_t, "bod"
3, 10883, Text_t, "y "
3, 10907, Text_t, "some"
3, 10944, Text_t, "bod"
3, 10975, Text_t, "y "
3, 10994, Text_t, "please "
3, 11213, Text_t, "/"
3, 11231, Text_t, "send "
3, 11265, Text_t, "her "
3, 11295, Text_t, "to "
3, 11328, Text_t, "me "
3, 11600, Text_t, "/"
3, 11619, Text_t, "I'll "
3, 11647, Text_t, "make "
3, 11677, Text_t, "her "
3, 11710, Text_t, "hap"
3, 11771, Text_t, "py "
3, 11962, Text_t, "/"
3, 11974, Text_t, "just "
3, 12004, Text_t, "wait "
3, 12063, Text_t, "and "
3, 12098, Text_t, "see "
3, 12345, Text_t, "/"
3, 12354, Text_t, "I "
3, 12386, Text_t, "pray"
3, 12417, Text_t, "ed "
3, 12448, Text_t, "so "
3, 12480, Text_t, "hard "
3, 12687, Text_t, "/"
3, 12724, Text_t, "to "
3, 12753, Text_t, "the "
3, 12769, Text_t, "heav"
3, 12801, Text_t, "ens "
3, 12831, Text_t, "a"
3, 12864, Text_t, "bove "
3, 13143, Text_t, "/"
3, 13155, Text_t, "That "
3, 13183, Text_t, "I "
3, 13213, Text_t, "might "
3, 13246, Text_t, "find "
3, 13496, Text_t, "/"
3, 13510, Text_t, "some"
3, 13540, Text_t, "one "
3, 13599, Text_t, "to "
3, 13634, Text_t, "love "
3, 14289, Text_t, "/"
3, 14309, Text_t, "I'm "
3, 14338, Text_t, "just "
3, 14368, Text_t, "a "
3, 14400, Text_t, "lone"
3, 14432, Text_t, "ly "
3, 14463, Text_t, "boy "
3, 14678, Text_t, "/"
3, 14689, Text_t, "lone"
3, 14720, Text_t, "ly "
3, 14749, Text_t, "and "
3, 14781, Text_t, "blue "
3, 15052, Text_t, "/"
3, 15074, Text_t, "I'm "
3, 15102, Text_t, "all "
3, 15132, Text_t, "a"
3, 15166, Text_t, "lone "
3, 15410, Text_t, "/"
3, 15423, Text_t, "with "
3, 15455, Text_t, "noth"
3, 15485, Text_t, "in' "
3, 15518, Text_t, "to "
3, 15553, Text_t, "do "
3, 15799, Text_t, "/"
3, 15810, Text_t, "I've "
3, 15843, Text_t, "got "
3, 15872, Text_t, "e"
3, 15904, Text_t, "ver"
3, 15937, Text_t, "y"
3, 15968, Text_t, "thing "
3, 16216, Text_t, "/"
3, 16225, Text_t, "you "
3, 16254, Text_t, "could "
3, 16285, Text_t, "think "
3, 16318, Text_t, "of "
3, 16595, Text_t, "/"
3, 16608, Text_t, "But "
3, 16637, Text_t, "all "
3, 16669, Text_t, "I "
3, 16702, Text_t, "want "
3, 16949, Text_t, "/"
3, 16960, Text_t, "is "
3, 16992, Text_t, "some"
3, 17024, Text_t, "one "
3, 17054, Text_t, "to "
3, 17088, Text_t, "love "
3, 17254, Text_t, ""
3, 17254, End_track
4, 0, Start_track
4, 0, Control_c, 1, 0, 0
4, 0, Program_c, 1, 0
4, 0, Control_c, 1, 10, 102
4, 0, Time_signature, 4, 2, 96, 8
4, 0, Tempo, 853485
4, 0, Control_c, 1, 7, 90
4, 28, Control_c, 1, 10, 102
4, 33, Control_c, 1, 10, 102
4, 38, Control_c, 1, 10, 102
4, 43, Control_c, 1, 10, 102
4, 384, Note_on_c, 1, 67, 81
4, 384, Note_on_c, 1, 64, 86
4, 384, Note_on_c, 1, 60, 81
4, 384, Note_on_c, 1, 36, 81
4, 405, Control_c, 1, 64, 127
4, 413, Note_on_c, 1, 67, 0
4, 413, Note_on_c, 1, 64, 0
4, 413, Note_on_c, 1, 36, 0
4, 414, Note_on_c, 1, 60, 0
4, 474, Control_c, 1, 64, 0
4, 480, Note_on_c, 1, 58, 68
4, 480, Note_on_c, 1, 65, 81
4, 480, Note_on_c, 1, 62, 86
4, 480, Note_on_c, 1, 46, 77
4, 495, Control_c, 1, 64, 127
4, 500, Note_on_c, 1, 62, 0
4, 502, Note_on_c, 1, 65, 0
4, 503, Note_on_c, 1, 58, 0
4, 503, Note_on_c, 1, 46, 0
4, 541, Control_c, 1, 64, 0
4, 544, Note_on_c, 1, 57, 86
4, 544, Note_on_c, 1, 60, 90
4, 544, Note_on_c, 1, 53, 81
4, 553, Note_on_c, 1, 57, 0
4, 553, Note_on_c, 1, 53, 0
4, 555, Note_on_c, 1, 60, 0
4, 576, Note_on_c, 1, 64, 86
4, 576, Note_on_c, 1, 60, 77
4, 576, Note_on_c, 1, 55, 68
4, 576, Note_on_c, 1, 48, 73
4, 582, Control_c, 1, 64, 127
4, 610, Note_on_c, 1, 64, 0
4, 610, Note_on_c, 1, 60, 0
4, 612, Note_on_c, 1, 55, 0
4, 618, Note_on_c, 1, 48, 0
4, 668, Control_c, 1, 64, 0
4, 672, Note_on_c, 1, 58, 64
4, 672, Note_on_c, 1, 65, 86
4, 672, Note_on_c, 1, 62, 95
4, 672, Note_on_c, 1, 46, 81
4, 686, Control_c, 1, 64, 127
4, 692, Note_on_c, 1, 62, 0
4, 693, Note_on_c, 1, 46, 0
4, 695, Note_on_c, 1, 58, 0
4, 696, Note_on_c, 1, 65, 0
4, 736, Note_on_c, 1, 53, 77
4, 736, Note_on_c, 1, 60, 73
4, 736, Note_on_c, 1, 69, 81
4, 736, Note_on_c, 1, 65, 73
4, 737, Control_c, 1, 64, 0
4, 746, Note_on_c, 1, 60, 0
4, 748, Note_on_c, 1, 53, 0
4, 748, Note_on_c, 1, 69, 0
4, 749, Note_on_c, 1, 65, 0
4, 765, Control_c, 1, 64, 127
4, 768, Note_on_c, 1, 60, 77
4, 768, Note_on_c, 1, 67, 77
4, 768, Note_on_c, 1, 64, 81
4, 809, Note_on_c, 1, 67, 0
4, 810, Note_on_c, 1, 60, 0
4, 810, Note_on_c, 1, 64, 0
4, 860, Control_c, 1, 64, 0
4, 864, Note_on_c, 1, 46, 90
4, 864, Note_on_c, 1, 58, 60
4, 864, Note_on_c, 1, 62, 95
4, 864, Note_on_c, 1, 65, 86
4, 877, Control_c, 1, 64, 127
4, 884, Note_on_c, 1, 46, 0
4, 885, Note_on_c, 1, 62, 0
4, 886, Note_on_c, 1, 58, 0
4, 889, Note_on_c, 1, 65, 0
4, 925, Control_c, 1, 64, 0
4, 928, Note_on_c, 1, 69, 77
4, 928, Note_on_c, 1, 65, 64
4, 928, Note_on_c, 1, 53, 73
4, 928, Note_on_c, 1, 60, 64
4, 938, Note_on_c, 1, 60, 0
4, 938, Control_c, 1, 64, 127
4, 940, Note_on_c, 1, 53, 0
4, 941, Note_on_c, 1, 69, 0
4, 941, Note_on_c, 1, 65, 0
4, 952, Control_c, 1, 64, 0
4, 960, Note_on_c, 1, 67, 77
4, 960, Note_on_c, 1, 60, 73
4, 960, Note_on_c, 1, 64, 81
4, 1047, Note_on_c, 1, 60, 0
4, 1064, Note_on_c, 1, 64, 0
4, 1092, Note_on_c, 1, 67, 0
4, 1153, Note_on_c, 1, 36, 73
4, 1155, Note_on_c, 1, 67, 73
4, 1155, Note_on_c, 1, 64, 60
4, 1155, Note_on_c, 1, 60, 60
4, 1170, Control_c, 1, 64, 127
4, 1185, Note_on_c, 1, 36, 0
4, 1187, Note_on_c, 1, 67, 0
4, 1187, Note_on_c, 1, 64, 0
4, 1189, Note_on_c, 1, 60, 0
4, 1249, Control_c, 1, 64, 0
4, 1250, Note_on_c, 1, 62, 77
4, 1251, Note_on_c, 1, 58, 77
4, 1272, Control_c, 1, 64, 127
4, 1291, Note_on_c, 1, 62, 0
4, 1294, Note_on_c, 1, 58, 0
4, 1337, Control_c, 1, 64, 0
4, 1345, Note_on_c, 1, 48, 73
4, 1413, Control_c, 1, 64, 127
4, 1438, Note_on_c, 1, 64, 56
4, 1439, Note_on_c, 1, 60, 48
4, 1453, Note_on_c, 1, 64, 0
4, 1453, Note_on_c, 1, 60, 0
4, 1481, Note_on_c, 1, 48, 0
4, 1533, Control_c, 1, 64, 0
4, 1537, Note_on_c, 1, 55, 48
4, 1538, Note_on_c, 1, 59, 50
4, 1538, Note_on_c, 1, 62, 50
4, 1560, Control_c, 1, 64, 127
4, 1590, Note_on_c, 1, 59, 0
4, 1596, Note_on_c, 1, 55, 0
4, 1596, Note_on_c, 1, 62, 0
4, 1626, Control_c, 1, 64, 0
4, 1630, Note_on_c, 1, 57, 77
4, 1630, Note_on_c, 1, 53, 64
4, 1631, Note_on_c, 1, 60, 77
4, 1655, Control_c, 1, 64, 127
4, 1676, Note_on_c, 1, 53, 0
4, 1682, Note_on_c, 1, 60, 0
4, 1687, Note_on_c, 1, 57, 0
4, 1726, Control_c, 1, 64, 0
4, 1727, Note_on_c, 1, 59, 50
4, 1727, Note_on_c, 1, 43, 64
4, 1727, Note_on_c, 1, 62, 48
4, 1728, Note_on_c, 1, 55, 48
4, 1818, Control_c, 1, 64, 127
4, 1831, Note_on_c, 1, 55, 0
4, 1836, Note_on_c, 1, 59, 0
4, 1838, Note_on_c, 1, 62, 0
4, 1847, Note_on_c, 1, 43, 0
4, 1913, Control_c, 1, 64, 0
4, 1918, Note_on_c, 1, 62, 48
4, 1918, Note_on_c, 1, 59, 45
4, 1918, Note_on_c, 1, 67, 48
4, 1918, Note_on_c, 1, 43, 47
4, 1937, Control_c, 1, 64, 127
4, 1954, Note_on_c, 1, 43, 0
4, 1955, Note_on_c, 1, 62, 0
4, 1956, Note_on_c, 1, 67, 0
4, 1957, Note_on_c, 1, 59, 0
4, 2011, Control_c, 1, 64, 0
4, 2015, Note_on_c, 1, 60, 73
4, 2015, Note_on_c, 1, 57, 64
4, 2015, Note_on_c, 1, 65, 77
4, 2032, Control_c, 1, 64, 127
4, 2043, Note_on_c, 1, 60, 0
4, 2044, Note_on_c, 1, 65, 0
4, 2047, Note_on_c, 1, 57, 0
4, 2110, Note_on_c, 1, 55, 45
4, 2110, Note_on_c, 1, 62, 48
4, 2110, Note_on_c, 1, 59, 52
4, 2110, Control_c, 1, 64, 0
4, 2110, Note_on_c, 1, 43, 50
4, 2210, Note_on_c, 1, 43, 0
4, 2210, Control_c, 1, 64, 127
4, 2217, Note_on_c, 1, 55, 0
4, 2222, Note_on_c, 1, 62, 0
4, 2222, Note_on_c, 1, 59, 0
4, 2293, Control_c, 1, 64, 0
4, 2304, Note_on_c, 1, 60, 64
4, 2304, Note_on_c, 1, 64, 73
4, 2304, Note_on_c, 1, 67, 73
4, 2304, Note_on_c, 1, 36, 64
4, 2316, Control_c, 1, 64, 127
4, 2324, Note_on_c, 1, 36, 0
4, 2332, Note_on_c, 1, 64, 0
4, 2332, Note_on_c, 1, 67, 0
4, 2334, Note_on_c, 1, 60, 0
4, 2398, Control_c, 1, 64, 0
4, 2401, Note_on_c, 1, 46, 77
4, 2401, Note_on_c, 1, 58, 64
4, 2401, Note_on_c, 1, 62, 77
4, 2402, Note_on_c, 1, 53, 48
4, 2425, Control_c, 1, 64, 127
4, 2438, Note_on_c, 1, 46, 0
4, 2443, Note_on_c, 1, 53, 0
4, 2446, Note_on_c, 1, 58, 0
4, 2449, Note_on_c, 1, 62, 0
4, 2466, Control_c, 1, 64, 0
4, 2498, Note_on_c, 1, 64, 64
4, 2499, Note_on_c, 1, 60, 48
4, 2504, Note_on_c, 1, 48, 47
4, 2538, Control_c, 1, 64, 127
4, 2592, Note_on_c, 1, 55, 50
4, 2600, Note_on_c, 1, 60, 0
4, 2600, Note_on_c, 1, 55, 0
4, 2604, Note_on_c, 1, 64, 0
4, 2622, Note_on_c, 1, 64, 50
4, 2623, Note_on_c, 1, 60, 43
4, 2634, Note_on_c, 1, 64, 0
4, 2634, Note_on_c, 1, 60, 0
4, 2654, Note_on_c, 1, 60, 77
4, 2654, Note_on_c, 1, 64, 86
4, 2663, Note_on_c, 1, 64, 0
4, 2664, Note_on_c, 1, 48, 0
4, 2664, Note_on_c, 1, 60, 0
4, 2667, Control_c, 1, 64, 0
4, 2689, Note_on_c, 1, 36, 73
4, 2691, Note_on_c, 1, 67, 73
4, 2691, Note_on_c, 1, 64, 60
4, 2691, Note_on_c, 1, 60, 60
4, 2706, Control_c, 1, 64, 127
4, 2721, Note_on_c, 1, 36, 0
4, 2723, Note_on_c, 1, 67, 0
4, 2723, Note_on_c, 1, 64, 0
4, 2725, Note_on_c, 1, 60, 0
4, 2785, Control_c, 1, 64, 0
4, 2786, Note_on_c, 1, 62, 77
4, 2787, Note_on_c, 1, 58, 77
4, 2808, Control_c, 1, 64, 127
4, 2827, Note_on_c, 1, 62, 0
4, 2830, Note_on_c, 1, 58, 0
4, 2873, Control_c, 1, 64, 0
4, 2881, Note_on_c, 1, 48, 73
4, 2949, Control_c, 1, 64, 127
4, 2974, Note_on_c, 1, 64, 56
4, 2975, Note_on_c, 1, 60, 48
4, 2989, Note_on_c, 1, 64, 0
4, 2989, Note_on_c, 1, 60, 0
4, 3017, Note_on_c, 1, 48, 0
4, 3069, Control_c, 1, 64, 0
4, 3073, Note_on_c, 1, 55, 48
4, 3074, Note_on_c, 1, 59, 50
4, 3074, Note_on_c, 1, 62, 50
4, 3096, Control_c, 1, 64, 127
4, 3126, Note_on_c, 1, 59, 0
4, 3132, Note_on_c, 1, 55, 0
4, 3132, Note_on_c, 1, 62, 0
4, 3162, Control_c, 1, 64, 0
4, 3166, Note_on_c, 1, 57, 77
4, 3166, Note_on_c, 1, 53, 64
4, 3167, Note_on_c, 1, 60, 77
4, 3191, Control_c, 1, 64, 127
4, 3212, Note_on_c, 1, 53, 0
4, 3218, Note_on_c, 1, 60, 0
4, 3223, Note_on_c, 1, 57, 0
4, 3262, Control_c, 1, 64, 0
4, 3263, Note_on_c, 1, 59, 50
4, 3263, Note_on_c, 1, 43, 64
4, 3263, Note_on_c, 1, 62, 48
4, 3264, Note_on_c, 1, 55, 48
4, 3354, Control_c, 1, 64, 127
4, 3367, Note_on_c, 1, 55, 0
4, 3372, Note_on_c, 1, 59, 0
4, 3374, Note_on_c, 1, 62, 0
4, 3383, Note_on_c, 1, 43, 0
4, 3449, Control_c, 1, 64, 0
4, 3454, Note_on_c, 1, 62, 48
4, 3454, Note_on_c, 1, 59, 45
4, 3454, Note_on_c, 1, 67, 48
4, 3454, Note_on_c, 1, 43, 47
4, 3473, Control_c, 1, 64, 127
4, 3490, Note_on_c, 1, 43, 0
4, 3491, Note_on_c, 1, 62, 0
4, 3492, Note_on_c, 1, 67, 0
4, 3493, Note_on_c, 1, 59, 0
4, 3547, Control_c, 1, 64, 0
4, 3551, Note_on_c, 1, 60, 73
4, 3551, Note_on_c, 1, 57, 64
4, 3551, Note_on_c, 1, 65, 77
4, 3568, Control_c, 1, 64, 127
4, 3579, Note_on_c, 1, 60, 0
4, 3580, Note_on_c, 1, 65, 0
4, 3583, Note_on_c, 1, 57, 0
4, 3646, Note_on_c, 1, 55, 45
4, 3646, Note_on_c, 1, 62, 48
4, 3646, Note_on_c, 1, 59, 52
4, 3646, Control_c, 1, 64, 0
4, 3646, Note_on_c, 1, 43, 50
4, 3746, Note_on_c, 1, 43, 0
4, 3746, Control_c, 1, 64, 127
4, 3753, Note_on_c, 1, 55, 0
4, 3758, Note_on_c, 1, 62, 0
4, 3758, Note_on_c, 1, 59, 0
4, 3829, Control_c, 1, 64, 0
4, 3840, Note_on_c, 1, 60, 64
4, 3840, Note_on_c, 1, 64, 73
4, 3840, Note_on_c, 1, 67, 73
4, 3840, Note_on_c, 1, 36, 64
4, 3852, Control_c, 1, 64, 127
4, 3860, Note_on_c, 1, 36, 0
4, 3868, Note_on_c, 1, 64, 0
4, 3868, Note_on_c, 1, 67, 0
4, 3870, Note_on_c, 1, 60, 0
4, 3934, Control_c, 1, 64, 0
4, 3937, Note_on_c, 1, 46, 77
4, 3937, Note_on_c, 1, 58, 64
4, 3937, Note_on_c, 1, 62, 77
4, 3938, Note_on_c, 1, 53, 48
4, 3961, Control_c, 1, 64, 127
4, 3974, Note_on_c, 1, 46, 0
4, 3979, Note_on_c, 1, 53, 0
4, 3982, Note_on_c, 1, 58, 0
4, 3985, Note_on_c, 1, 62, 0
4, 4002, Control_c, 1, 64, 0
4, 4034, Note_on_c, 1, 64, 64
4, 4035, Note_on_c, 1, 60, 48
4, 4040, Note_on_c, 1, 48, 47
4, 4074, Control_c, 1, 64, 127
4, 4128, Note_on_c, 1, 55, 50
4, 4136, Note_on_c, 1, 60, 0
4, 4136, Note_on_c, 1, 55, 0
4, 4140, Note_on_c, 1, 64, 0
4, 4158, Note_on_c, 1, 64, 50
4, 4159, Note_on_c, 1, 60, 43
4, 4170, Note_on_c, 1, 64, 0
4, 4170, Note_on_c, 1, 60, 0
4, 4190, Note_on_c, 1, 60, 77
4, 4190, Note_on_c, 1, 64, 86
4, 4199, Note_on_c, 1, 64, 0
4, 4200, Note_on_c, 1, 48, 0
4, 4200, Note_on_c, 1, 60, 0
4, 4203, Control_c, 1, 64, 0
4, 4220, Control_c, 1, 64, 127
4, 4222, Note_on_c, 1, 48, 56
4, 4222, Note_on_c, 1, 67, 50
4, 4223, Note_on_c, 1, 60, 45
4, 4223, Note_on_c, 1, 64, 48
4, 4224, Time_signature, 1, 2, 96, 8
4, 4234, Note_on_c, 1, 60, 0
4, 4234, Note_on_c, 1, 64, 0
4, 4235, Note_on_c, 1, 67, 0
4, 4236, Note_on_c, 1, 48, 0
4, 4256, Note_on_c, 1, 67, 64
4, 4256, Note_on_c, 1, 48, 68
4, 4256, Note_on_c, 1, 64, 56
4, 4256, Note_on_c, 1, 60, 50
4, 4266, Note_on_c, 1, 60, 0
4, 4267, Note_on_c, 1, 64, 0
4, 4268, Note_on_c, 1, 67, 0
4, 4268, Note_on_c, 1, 48, 0
4, 4287, Note_on_c, 1, 48, 81
4, 4287, Note_on_c, 1, 67, 86
4, 4288, Note_on_c, 1, 64, 73
4, 4288, Note_on_c, 1, 60, 73
4, 4293, Control_c, 1, 64, 0
4, 4298, Note_on_c, 1, 64, 0
4, 4298, Note_on_c, 1, 60, 0
4, 4300, Note_on_c, 1, 48, 0
4, 4300, Note_on_c, 1, 67, 0
4, 4320, Time_signature, 4, 2, 96, 8
4, 4321, Note_on_c, 1, 72, 77
4, 4321, Note_on_c, 1, 67, 50
4, 4322, Note_on_c, 1, 76, 64
4, 4336, Note_on_c, 1, 72, 0
4, 4337, Note_on_c, 1, 76, 0
4, 4339, Note_on_c, 1, 67, 0
4, 4354, Note_on_c, 1, 67, 44
4, 4354, Note_on_c, 1, 72, 50
4, 4355, Note_on_c, 1, 76, 48
4, 4368, Note_on_c, 1, 72, 0
4, 4368, Note_on_c, 1, 76, 0
4, 4370, Note_on_c, 1, 67, 0
4, 4386, Note_on_c, 1, 72, 56
4, 4387, Note_on_c, 1, 76, 64
4, 4387, Note_on_c, 1, 67, 44
4, 4397, Note_on_c, 1, 72, 0
4, 4398, Note_on_c, 1, 76, 0
4, 4398, Note_on_c, 1, 67, 0
4, 4416, Note_on_c, 1, 76, 77
4, 4417, Note_on_c, 1, 72, 64
4, 4417, Note_on_c, 1, 67, 48
4, 4429, Note_on_c, 1, 72, 0
4, 4429, Note_on_c, 1, 67, 0
4, 4431, Note_on_c, 1, 76, 0
4, 4448, Note_on_c, 1, 72, 50
4, 4448, Note_on_c, 1, 67, 43
4, 4448, Note_on_c, 1, 76, 56
4, 4459, Note_on_c, 1, 72, 0
4, 4460, Note_on_c, 1, 67, 0
4, 4461, Note_on_c, 1, 76, 0
4, 4478, Note_on_c, 1, 76, 56
4, 4479, Note_on_c, 1, 72, 60
4, 4479, Note_on_c, 1, 67, 43
4, 4490, Note_on_c, 1, 72, 0
4, 4491, Note_on_c, 1, 76, 0
4, 4491, Note_on_c, 1, 67, 0
4, 4510, Note_on_c, 1, 76, 64
4, 4511, Note_on_c, 1, 72, 60
4, 4511, Note_on_c, 1, 67, 44
4, 4522, Note_on_c, 1, 72, 0
4, 4523, Note_on_c, 1, 67, 0
4, 4524, Note_on_c, 1, 76, 0
4, 4543, Note_on_c, 1, 76, 60
4, 4544, Note_on_c, 1, 67, 41
4, 4544, Note_on_c, 1, 72, 50
4, 4556, Note_on_c, 1, 72, 0
4, 4557, Note_on_c, 1, 76, 0
4, 4557, Note_on_c, 1, 67, 0
4, 4576, Note_on_c, 1, 67, 44
4, 4576, Note_on_c, 1, 76, 52
4, 4576, Note_on_c, 1, 72, 52
4, 4586, Note_on_c, 1, 72, 0
4, 4588, Note_on_c, 1, 67, 0
4, 4588, Note_on_c, 1, 76, 0
4, 4607, Note_on_c, 1, 67, 48
4, 4607, Note_on_c, 1, 76, 52
4, 4608, Note_on_c, 1, 72, 60
4, 4619, Note_on_c, 1, 72, 0
4, 4620, Note_on_c, 1, 67, 0
4, 4621, Note_on_c, 1, 76, 0
4, 4639, Note_on_c, 1, 67, 47
4, 4639, Note_on_c, 1, 76, 60
4, 4639, Note_on_c, 1, 72, 64
4, 4650, Note_on_c, 1, 72, 0
4, 4651, Note_on_c, 1, 76, 0
4, 4652, Note_on_c, 1, 67, 0
4, 4671, Note_on_c, 1, 72, 60
4, 4671, Note_on_c, 1, 76, 68
4, 4671, Note_on_c, 1, 67, 50
4, 4683, Note_on_c, 1, 72, 0
4, 4684, Note_on_c, 1, 76, 0
4, 4684, Note_on_c, 1, 67, 0
4, 4706, Note_on_c, 1, 74, 77
4, 4706, Note_on_c, 1, 71, 68
4, 4707, Note_on_c, 1, 65, 56
4, 4718, Note_on_c, 1, 71, 0
4, 4719, Note_on_c, 1, 65, 0
4, 4721, Note_on_c, 1, 74, 0
4, 4738, Note_on_c, 1, 74, 60
4, 4738, Note_on_c, 1, 71, 48
4, 4739, Note_on_c, 1, 65, 36
4, 4749, Note_on_c, 1, 71, 0
4, 4750, Note_on_c, 1, 65, 0
4, 4751, Note_on_c, 1, 74, 0
4, 4768, Note_on_c, 1, 74, 60
4, 4768, Note_on_c, 1, 71, 52
4, 4769, Note_on_c, 1, 65, 33
4, 4780, Note_on_c, 1, 71, 0
4, 4780, Note_on_c, 1, 65, 0
4, 4781, Note_on_c, 1, 74, 0
4, 4801, Note_on_c, 1, 71, 60
4, 4801, Note_on_c, 1, 74, 64
4, 4802, Note_on_c, 1, 65, 41
4, 4813, Note_on_c, 1, 71, 0
4, 4813, Note_on_c, 1, 65, 0
4, 4815, Note_on_c, 1, 74, 0
4, 4833, Note_on_c, 1, 74, 60
4, 4833, Note_on_c, 1, 71, 48
4, 4834, Note_on_c, 1, 65, 40
4, 4844, Note_on_c, 1, 71, 0
4, 4844, Note_on_c, 1, 65, 0
4, 4846, Note_on_c, 1, 74, 0
4, 4864, Note_on_c, 1, 74, 64
4, 4865, Note_on_c, 1, 71, 60
4, 4865, Note_on_c, 1, 65, 43
4, 4877, Note_on_c, 1, 71, 0
4, 4877, Note_on_c, 1, 65, 0
4, 4878, Note_on_c, 1, 74, 0
4, 4897, Note_on_c, 1, 74, 68
4, 4898, Note_on_c, 1, 71, 60
4, 4898, Note_on_c, 1, 65, 41
4, 4908, Note_on_c, 1, 65, 0
4, 4909, Note_on_c, 1, 71, 0
4, 4910, Note_on_c, 1, 74, 0
4, 4930, Note_on_c, 1, 74, 60
4, 4930, Note_on_c, 1, 71, 48
4, 4930, Note_on_c, 1, 65, 41
4, 4941, Note_on_c, 1, 71, 0
4, 4941, Note_on_c, 1, 65, 0
4, 4943, Note_on_c, 1, 74, 0
4, 4960, Note_on_c, 1, 74, 68
4, 4961, Note_on_c, 1, 71, 52
4, 4961, Note_on_c, 1, 65, 43
4, 4971, Note_on_c, 1, 71, 0
4, 4971, Note_on_c, 1, 65, 0
4, 4973, Note_on_c, 1, 74, 0
4, 4991, Note_on_c, 1, 74, 64
4, 4992, Note_on_c, 1, 71, 56
4, 4992, Note_on_c, 1, 65, 40
4, 5003, Note_on_c, 1, 71, 0
4, 5003, Note_on_c, 1, 65, 0
4, 5005, Note_on_c, 1, 74, 0
4, 5023, Note_on_c, 1, 74, 64
4, 5023, Note_on_c, 1, 65, 45
4, 5023, Note_on_c, 1, 71, 60
4, 5035, Note_on_c, 1, 65, 0
4, 5035, Note_on_c, 1, 71, 0
4, 5036, Note_on_c, 1, 74, 0
4, 5055, Note_on_c, 1, 74, 64
4, 5056, Note_on_c, 1, 71, 50
4, 5056, Note_on_c, 1, 65, 43
4, 5066, Note_on_c, 1, 71, 0
4, 5067, Note_on_c, 1, 65, 0
4, 5069, Note_on_c, 1, 74, 0
4, 5088, Note_on_c, 1, 74, 68
4, 5089, Note_on_c, 1, 71, 60
4, 5089, Note_on_c, 1, 65, 47
4, 5100, Note_on_c, 1, 71, 0
4, 5100, Note_on_c, 1, 65, 0
4, 5102, Note_on_c, 1, 74, 0
4, 5120, Note_on_c, 1, 74, 60
4, 5121, Note_on_c, 1, 65, 43
4, 5121, Note_on_c, 1, 71, 52
4, 5132, Note_on_c, 1, 65, 0
4, 5132, Note_on_c, 1, 71, 0
4, 5134, Note_on_c, 1, 74, 0
4, 5152, Note_on_c, 1, 74, 60
4, 5153, Note_on_c, 1, 71, 52
4, 5153, Note_on_c, 1, 65, 39
4, 5163, Note_on_c, 1, 71, 0
4, 5163, Note_on_c, 1, 65, 0
4, 5164, Note_on_c, 1, 74, 0
4, 5183, Note_on_c, 1, 74, 68
4, 5184, Note_on_c, 1, 71, 64
4, 5184, Note_on_c, 1, 65, 44
4, 5194, Note_on_c, 1, 71, 0
4, 5195, Note_on_c, 1, 65, 0
4, 5197, Note_on_c, 1, 74, 0
4, 5215, Note_on_c, 1, 74, 64
4, 5216, Note_on_c, 1, 71, 52
4, 5216, Note_on_c, 1, 65, 41
4, 5226, Note_on_c, 1, 71, 0
4, 5226, Note_on_c, 1, 65, 0
4, 5228, Note_on_c, 1, 74, 0
4, 5248, Note_on_c, 1, 74, 60
4, 5248, Note_on_c, 1, 71, 60
4, 5249, Note_on_c, 1, 65, 43
4, 5260, Note_on_c, 1, 74, 0
4, 5260, Note_on_c, 1, 71, 0
4, 5260, Note_on_c, 1, 65, 0
4, 5280, Note_on_c, 1, 74, 68
4, 5280, Note_on_c, 1, 71, 60
4, 5280, Note_on_c, 1, 65, 44
4, 5291, Note_on_c, 1, 65, 0
4, 5292, Note_on_c, 1, 71, 0
4, 5293, Note_on_c, 1, 74, 0
4, 5312, Note_on_c, 1, 74, 68
4, 5312, Note_on_c, 1, 71, 60
4, 5313, Note_on_c, 1, 65, 37
4, 5322, Note_on_c, 1, 71, 0
4, 5322, Note_on_c, 1, 65, 0
4, 5324, Note_on_c, 1, 74, 0
4, 5344, Note_on_c, 1, 74, 68
4, 5344, Note_on_c, 1, 71, 52
4, 5345, Note_on_c, 1, 65, 41
4, 5354, Note_on_c, 1, 71, 0
4, 5354, Note_on_c, 1, 65, 0
4, 5356, Note_on_c, 1, 74, 0
4, 5377, Note_on_c, 1, 74, 73
4, 5377, Note_on_c, 1, 71, 60
4, 5378, Note_on_c, 1, 65, 43
4, 5387, Note_on_c, 1, 71, 0
4, 5387, Note_on_c, 1, 65, 0
4, 5389, Note_on_c, 1, 74, 0
4, 5408, Note_on_c, 1, 74, 73
4, 5408, Note_on_c, 1, 71, 60
4, 5409, Note_on_c, 1, 65, 40
4, 5418, Note_on_c, 1, 71, 0
4, 5418, Note_on_c, 1, 65, 0
4, 5420, Note_on_c, 1, 74, 0
4, 5439, Note_on_c, 1, 74, 73
4, 5440, Note_on_c, 1, 71, 60
4, 5440, Note_on_c, 1, 65, 41
4, 5449, Note_on_c, 1, 65, 0
4, 5451, Note_on_c, 1, 71, 0
4, 5452, Note_on_c, 1, 74, 0
4, 5470, Note_on_c, 1, 67, 48
4, 5470, Note_on_c, 1, 76, 56
4, 5470, Note_on_c, 1, 72, 52
4, 5483, Note_on_c, 1, 72, 0
4, 5484, Note_on_c, 1, 76, 0
4, 5485, Note_on_c, 1, 67, 0
4, 5502, Note_on_c, 1, 67, 47
4, 5503, Note_on_c, 1, 72, 60
4, 5503, Note_on_c, 1, 76, 56
4, 5513, Note_on_c, 1, 72, 0
4, 5514, Note_on_c, 1, 67, 0
4, 5515, Note_on_c, 1, 76, 0
4, 5536, Note_on_c, 1, 67, 48
4, 5536, Note_on_c, 1, 76, 60
4, 5536, Note_on_c, 1, 72, 64
4, 5546, Note_on_c, 1, 72, 0
4, 5547, Note_on_c, 1, 67, 0
4, 5548, Note_on_c, 1, 76, 0
4, 5570, Note_on_c, 1, 76, 60
4, 5570, Note_on_c, 1, 67, 50
4, 5570, Note_on_c, 1, 72, 68
4, 5580, Note_on_c, 1, 72, 0
4, 5581, Note_on_c, 1, 67, 0
4, 5582, Note_on_c, 1, 76, 0
4, 5601, Note_on_c, 1, 67, 47
4, 5602, Note_on_c, 1, 76, 52
4, 5602, Note_on_c, 1, 72, 60
4, 5612, Note_on_c, 1, 67, 0
4, 5612, Note_on_c, 1, 72, 0
4, 5614, Note_on_c, 1, 76, 0
4, 5632, Note_on_c, 1, 76, 60
4, 5633, Note_on_c, 1, 67, 44
4, 5633, Note_on_c, 1, 72, 56
4, 5642, Note_on_c, 1, 72, 0
4, 5643, Note_on_c, 1, 67, 0
4, 5645, Note_on_c, 1, 76, 0
4, 5664, Note_on_c, 1, 76, 64
4, 5664, Note_on_c, 1, 67, 50
4, 5664, Note_on_c, 1, 72, 60
4, 5674, Note_on_c, 1, 72, 0
4, 5675, Note_on_c, 1, 67, 0
4, 5677, Note_on_c, 1, 76, 0
4, 5695, Note_on_c, 1, 76, 64
4, 5696, Note_on_c, 1, 67, 43
4, 5696, Note_on_c, 1, 72, 56
4, 5705, Note_on_c, 1, 72, 0
4, 5706, Note_on_c, 1, 67, 0
4, 5708, Note_on_c, 1, 76, 0
4, 5728, Note_on_c, 1, 72, 60
4, 5728, Note_on_c, 1, 76, 60
4, 5728, Note_on_c, 1, 67, 45
4, 5739, Note_on_c, 1, 72, 0
4, 5739, Note_on_c, 1, 67, 0
4, 5740, Note_on_c, 1, 76, 0
4, 5762, Note_on_c, 1, 76, 60
4, 5762, Note_on_c, 1, 67, 47
4, 5763, Note_on_c, 1, 72, 56
4, 5772, Note_on_c, 1, 72, 0
4, 5774, Note_on_c, 1, 76, 0
4, 5774, Note_on_c, 1, 67, 0
4, 5794, Note_on_c, 1, 76, 64
4, 5795, Note_on_c, 1, 67, 43
4, 5795, Note_on_c, 1, 72, 60
4, 5804, Note_on_c, 1, 72, 0
4, 5805, Note_on_c, 1, 67, 0
4, 5807, Note_on_c, 1, 76, 0
4, 5825, Note_on_c, 1, 76, 73
4, 5825, Note_on_c, 1, 67, 50
4, 5826, Note_on_c, 1, 72, 56
4, 5835, Note_on_c, 1, 72, 0
4, 5836, Note_on_c, 1, 67, 0
4, 5837, Note_on_c, 1, 76, 0
4, 5857, Note_on_c, 1, 72, 77
4, 5857, Note_on_c, 1, 67, 50
4, 5858, Note_on_c, 1, 76, 64
4, 5872, Note_on_c, 1, 72, 0
4, 5873, Note_on_c, 1, 76, 0
4, 5875, Note_on_c, 1, 67, 0
4, 5890, Note_on_c, 1, 67, 44
4, 5890, Note_on_c, 1, 72, 50
4, 5891, Note_on_c, 1, 76, 48
4, 5904, Note_on_c, 1, 72, 0
4, 5904, Note_on_c, 1, 76, 0
4, 5906, Note_on_c, 1, 67, 0
4, 5922, Note_on_c, 1, 72, 56
4, 5923, Note_on_c, 1, 76, 64
4, 5923, Note_on_c, 1, 67, 44
4, 5933, Note_on_c, 1, 72, 0
4, 5934, Note_on_c, 1, 76, 0
4, 5934, Note_on_c, 1, 67, 0
4, 5952, Note_on_c, 1, 76, 77
4, 5953, Note_on_c, 1, 72, 64
4, 5953, Note_on_c, 1, 67, 48
4, 5965, Note_on_c, 1, 72, 0
4, 5965, Note_on_c, 1, 67, 0
4, 5967, Note_on_c, 1, 76, 0
4, 5984, Note_on_c, 1, 72, 50
4, 5984, Note_on_c, 1, 67, 43
4, 5984, Note_on_c, 1, 76, 56
4, 5995, Note_on_c, 1, 72, 0
4, 5996, Note_on_c, 1, 67, 0
4, 5997, Note_on_c, 1, 76, 0
4, 6014, Note_on_c, 1, 76, 56
4, 6015, Note_on_c, 1, 72, 60
4, 6015, Note_on_c, 1, 67, 43
4, 6026, Note_on_c, 1, 72, 0
4, 6027, Note_on_c, 1, 76, 0
4, 6027, Note_on_c, 1, 67, 0
4, 6046, Note_on_c, 1, 76, 64
4, 6047, Note_on_c, 1, 72, 60
4, 6047, Note_on_c, 1, 67, 44
4, 6058, Note_on_c, 1, 72, 0
4, 6059, Note_on_c, 1, 67, 0
4, 6060, Note_on_c, 1, 76, 0
4, 6079, Note_on_c, 1, 76, 60
4, 6080, Note_on_c, 1, 67, 41
4, 6080, Note_on_c, 1, 72, 50
4, 6092, Note_on_c, 1, 72, 0
4, 6093, Note_on_c, 1, 76, 0
4, 6093, Note_on_c, 1, 67, 0
4, 6112, Note_on_c, 1, 67, 44
4, 6112, Note_on_c, 1, 76, 52
4, 6112, Note_on_c, 1, 72, 52
4, 6122, Note_on_c, 1, 72, 0
4, 6124, Note_on_c, 1, 67, 0
4, 6124, Note_on_c, 1, 76, 0
4, 6143, Note_on_c, 1, 67, 48
4, 6143, Note_on_c, 1, 76, 52
4, 6144, Note_on_c, 1, 72, 60
4, 6155, Note_on_c, 1, 72, 0
4, 6156, Note_on_c, 1, 67, 0
4, 6157, Note_on_c, 1, 76, 0
4, 6175, Note_on_c, 1, 67, 47
4, 6175, Note_on_c, 1, 76, 60
4, 6175, Note_on_c, 1, 72, 64
4, 6186, Note_on_c, 1, 72, 0
4, 6187, Note_on_c, 1, 76, 0
4, 6188, Note_on_c, 1, 67, 0
4, 6207, Note_on_c, 1, 72, 60
4, 6207, Note_on_c, 1, 76, 68
4, 6207, Note_on_c, 1, 67, 50
4, 6219, Note_on_c, 1, 72, 0
4, 6220, Note_on_c, 1, 76, 0
4, 6220, Note_on_c, 1, 67, 0
4, 6242, Note_on_c, 1, 74, 77
4, 6242, Note_on_c, 1, 71, 68
4, 6243, Note_on_c, 1, 65, 56
4, 6254, Note_on_c, 1, 71, 0
4, 6255, Note_on_c, 1, 65, 0
4, 6257, Note_on_c, 1, 74, 0
4, 6274, Note_on_c, 1, 74, 60
4, 6274, Note_on_c, 1, 71, 48
4, 6275, Note_on_c, 1, 65, 36
4, 6285, Note_on_c, 1, 71, 0
4, 6286, Note_on_c, 1, 65, 0
4, 6287, Note_on_c, 1, 74, 0
4, 6304, Note_on_c, 1, 74, 60
4, 6304, Note_on_c, 1, 71, 52
4, 6305, Note_on_c, 1, 65, 33
4, 6316, Note_on_c, 1, 71, 0
4, 6316, Note_on_c, 1, 65, 0
4, 6317, Note_on_c, 1, 74, 0
4, 6337, Note_on_c, 1, 71, 60
4, 6337, Note_on_c, 1, 74, 64
4, 6338, Note_on_c, 1, 65, 41
4, 6349, Note_on_c, 1, 71, 0
4, 6349, Note_on_c, 1, 65, 0
4, 6351, Note_on_c, 1, 74, 0
4, 6369, Note_on_c, 1, 74, 60
4, 6369, Note_on_c, 1, 71, 48
4, 6370, Note_on_c, 1, 65, 40
4, 6380, Note_on_c, 1, 71, 0
4, 6380, Note_on_c, 1, 65, 0
4, 6382, Note_on_c, 1, 74, 0
4, 6400, Note_on_c, 1, 74, 64
4, 6401, Note_on_c, 1, 71, 60
4, 6401, Note_on_c, 1, 65, 43
4, 6413, Note_on_c, 1, 71, 0
4, 6413, Note_on_c, 1, 65, 0
4, 6414, Note_on_c, 1, 74, 0
4, 6433, Note_on_c, 1, 74, 68
4, 6434, Note_on_c, 1, 71, 60
4, 6434, Note_on_c, 1, 65, 41
4, 6444, Note_on_c, 1, 65, 0
4, 6445, Note_on_c, 1, 71, 0
4, 6446, Note_on_c, 1, 74, 0
4, 6466, Note_on_c, 1, 74, 60
4, 6466, Note_on_c, 1, 71, 48
4, 6466, Note_on_c, 1, 65, 41
4, 6477, Note_on_c, 1, 71, 0
4, 6477, Note_on_c, 1, 65, 0
4, 6479, Note_on_c, 1, 74, 0
4, 6496, Note_on_c, 1, 74, 68
4, 6497, Note_on_c, 1, 71, 52
4, 6497, Note_on_c, 1, 65, 43
4, 6507, Note_on_c, 1, 71, 0
4, 6507, Note_on_c, 1, 65, 0
4, 6509, Note_on_c, 1, 74, 0
4, 6527, Note_on_c, 1, 74, 64
4, 6528, Note_on_c, 1, 71, 56
4, 6528, Note_on_c, 1, 65, 40
4, 6539, Note_on_c, 1, 71, 0
4, 6539, Note_on_c, 1, 65, 0
4, 6541, Note_on_c, 1, 74, 0
4, 6559, Note_on_c, 1, 74, 64
4, 6559, Note_on_c, 1, 65, 45
4, 6559, Note_on_c, 1, 71, 60
4, 6571, Note_on_c, 1, 65, 0
4, 6571, Note_on_c, 1, 71, 0
4, 6572, Note_on_c, 1, 74, 0
4, 6591, Note_on_c, 1, 74, 64
4, 6592, Note_on_c, 1, 71, 50
4, 6592, Note_on_c, 1, 65, 43
4, 6602, Note_on_c, 1, 71, 0
4, 6603, Note_on_c, 1, 65, 0
4, 6605, Note_on_c, 1, 74, 0
4, 6624, Note_on_c, 1, 74, 68
4, 6625, Note_on_c, 1, 71, 60
4, 6625, Note_on_c, 1, 65, 47
4, 6636, Note_on_c, 1, 71, 0
4, 6636, Note_on_c, 1, 65, 0
4, 6638, Note_on_c, 1, 74, 0
4, 6656, Note_on_c, 1, 74, 60
4, 6657, Note_on_c, 1, 65, 43
4, 6657, Note_on_c, 1, 71, 52
4, 6668, Note_on_c, 1, 65, 0
4, 6668, Note_on_c, 1, 71, 0
4, 6670, Note_on_c, 1, 74, 0
4, 6688, Note_on_c, 1, 74, 60
4, 6689, Note_on_c, 1, 71, 52
4, 6689, Note_on_c, 1, 65, 39
4, 6699, Note_on_c, 1, 71, 0
4, 6699, Note_on_c, 1, 65, 0
4, 6700, Note_on_c, 1, 74, 0
4, 6719, Note_on_c, 1, 74, 68
4, 6720, Note_on_c, 1, 71, 64
4, 6720, Note_on_c, 1, 65, 44
4, 6730, Note_on_c, 1, 71, 0
4, 6731, Note_on_c, 1, 65, 0
4, 6733, Note_on_c, 1, 74, 0
4, 6751, Note_on_c, 1, 74, 64
4, 6752, Note_on_c, 1, 71, 52
4, 6752, Note_on_c, 1, 65, 41
4, 6762, Note_on_c, 1, 71, 0
4, 6762, Note_on_c, 1, 65, 0
4, 6764, Note_on_c, 1, 74, 0
4, 6784, Note_on_c, 1, 74, 60
4, 6784, Note_on_c, 1, 71, 60
4, 6785, Note_on_c, 1, 65, 43
4, 6796, Note_on_c, 1, 74, 0
4, 6796, Note_on_c, 1, 71, 0
4, 6796, Note_on_c, 1, 65, 0
4, 6816, Note_on_c, 1, 74, 68
4, 6816, Note_on_c, 1, 71, 60
4, 6816, Note_on_c, 1, 65, 44
4, 6827, Note_on_c, 1, 65, 0
4, 6828, Note_on_c, 1, 71, 0
4, 6829, Note_on_c, 1, 74, 0
4, 6848, Note_on_c, 1, 74, 68
4, 6848, Note_on_c, 1, 71, 60
4, 6849, Note_on_c, 1, 65, 37
4, 6858, Note_on_c, 1, 71, 0
4, 6858, Note_on_c, 1, 65, 0
4, 6860, Note_on_c, 1, 74, 0
4, 6880, Note_on_c, 1, 74, 68
4, 6880, Note_on_c, 1, 71, 52
4, 6881, Note_on_c, 1, 65, 41
4, 6890, Note_on_c, 1, 71, 0
4, 6890, Note_on_c, 1, 65, 0
4, 6892, Note_on_c, 1, 74, 0
4, 6913, Note_on_c, 1, 74, 73
4, 6913, Note_on_c, 1, 71, 60
4, 6914, Note_on_c, 1, 65, 43
4, 6923, Note_on_c, 1, 71, 0
4, 6923, Note_on_c, 1, 65, 0
4, 6925, Note_on_c, 1, 74, 0
4, 6944, Note_on_c, 1, 74, 73
4, 6944, Note_on_c, 1, 71, 60
4, 6945, Note_on_c, 1, 65, 40
4, 6954, Note_on_c, 1, 71, 0
4, 6954, Note_on_c, 1, 65, 0
4, 6956, Note_on_c, 1, 74, 0
4, 6975, Note_on_c, 1, 74, 73
4, 6976, Note_on_c, 1, 71, 60
4, 6976, Note_on_c, 1, 65, 41
4, 6985, Note_on_c, 1, 65, 0
4, 6987, Note_on_c, 1, 71, 0
4, 6988, Note_on_c, 1, 74, 0
4, 7006, Note_on_c, 1, 67, 48
4, 7006, Note_on_c, 1, 76, 56
4, 7006, Note_on_c, 1, 72, 52
4, 7008, Note_on_c, 1, 67, 0
4, 7008, Note_on_c, 1, 76, 0
4, 7008, Note_on_c, 1, 72, 0
4, 7008, Note_on_c, 1, 67, 81
4, 7008, Note_on_c, 1, 64, 86
4, 7008, Note_on_c, 1, 60, 81
4, 7008, Note_on_c, 1, 36, 81
4, 7029, Control_c, 1, 64, 127
4, 7037, Note_on_c, 1, 67, 0
4, 7037, Note_on_c, 1, 64, 0
4, 7037, Note_on_c, 1, 36, 0
4, 7038, Note_on_c, 1, 60, 0
4, 7098, Control_c, 1, 64, 0
4, 7104, Note_on_c, 1, 58, 68
4, 7104, Note_on_c, 1, 65, 81
4, 7104, Note_on_c, 1, 62, 86
4, 7104, Note_on_c, 1, 46, 77
4, 7119, Control_c, 1, 64, 127
4, 7124, Note_on_c, 1, 62, 0
4, 7126, Note_on_c, 1, 65, 0
4, 7127, Note_on_c, 1, 58, 0
4, 7127, Note_on_c, 1, 46, 0
4, 7165, Control_c, 1, 64, 0
4, 7168, Note_on_c, 1, 57, 86
4, 7168, Note_on_c, 1, 60, 90
4, 7168, Note_on_c, 1, 53, 81
4, 7177, Note_on_c, 1, 57, 0
4, 7177, Note_on_c, 1, 53, 0
4, 7179, Note_on_c, 1, 60, 0
4, 7200, Note_on_c, 1, 64, 86
4, 7200, Note_on_c, 1, 60, 77
4, 7200, Note_on_c, 1, 55, 68
4, 7200, Note_on_c, 1, 48, 73
4, 7206, Control_c, 1, 64, 127
4, 7234, Note_on_c, 1, 64, 0
4, 7234, Note_on_c, 1, 60, 0
4, 7236, Note_on_c, 1, 55, 0
4, 7242, Note_on_c, 1, 48, 0
4, 7292, Control_c, 1, 64, 0
4, 7296, Note_on_c, 1, 58, 64
4, 7296, Note_on_c, 1, 65, 86
4, 7296, Note_on_c, 1, 62, 95
4, 7296, Note_on_c, 1, 46, 81
4, 7310, Control_c, 1, 64, 127
4, 7316, Note_on_c, 1, 62, 0
4, 7317, Note_on_c, 1, 46, 0
4, 7319, Note_on_c, 1, 58, 0
4, 7320, Note_on_c, 1, 65, 0
4, 7360, Note_on_c, 1, 53, 77
4, 7360, Note_on_c, 1, 60, 73
4, 7360, Note_on_c, 1, 69, 81
4, 7360, Note_on_c, 1, 65, 73
4, 7361, Control_c, 1, 64, 0
4, 7370, Note_on_c, 1, 60, 0
4, 7372, Note_on_c, 1, 53, 0
4, 7372, Note_on_c, 1, 69, 0
4, 7373, Note_on_c, 1, 65, 0
4, 7389, Control_c, 1, 64, 127
4, 7392, Note_on_c, 1, 60, 77
4, 7392, Note_on_c, 1, 67, 77
4, 7392, Note_on_c, 1, 64, 81
4, 7433, Note_on_c, 1, 67, 0
4, 7434, Note_on_c, 1, 60, 0
4, 7434, Note_on_c, 1, 64, 0
4, 7484, Control_c, 1, 64, 0
4, 7488, Note_on_c, 1, 46, 90
4, 7488, Note_on_c, 1, 58, 60
4, 7488, Note_on_c, 1, 62, 95
4, 7488, Note_on_c, 1, 65, 86
4, 7501, Control_c, 1, 64, 127
4, 7508, Note_on_c, 1, 46, 0
4, 7509, Note_on_c, 1, 62, 0
4, 7510, Note_on_c, 1, 58, 0
4, 7513, Note_on_c, 1, 65, 0
4, 7549, Control_c, 1, 64, 0
4, 7552, Note_on_c, 1, 69, 77
4, 7552, Note_on_c, 1, 65, 64
4, 7552, Note_on_c, 1, 53, 73
4, 7552, Note_on_c, 1, 60, 64
4, 7562, Note_on_c, 1, 60, 0
4, 7562, Control_c, 1, 64, 127
4, 7564, Note_on_c, 1, 53, 0
4, 7565, Note_on_c, 1, 69, 0
4, 7565, Note_on_c, 1, 65, 0
4, 7576, Control_c, 1, 64, 0
4, 7584, Note_on_c, 1, 67, 77
4, 7584, Note_on_c, 1, 60, 73
4, 7584, Note_on_c, 1, 64, 81
4, 7671, Note_on_c, 1, 60, 0
4, 7688, Note_on_c, 1, 64, 0
4, 7716, Note_on_c, 1, 67, 0
4, 7777, Note_on_c, 1, 36, 73
4, 7779, Note_on_c, 1, 67, 73
4, 7779, Note_on_c, 1, 64, 60
4, 7779, Note_on_c, 1, 60, 60
4, 7794, Control_c, 1, 64, 127
4, 7809, Note_on_c, 1, 36, 0
4, 7811, Note_on_c, 1, 67, 0
4, 7811, Note_on_c, 1, 64, 0
4, 7813, Note_on_c, 1, 60, 0
4, 7873, Control_c, 1, 64, 0
4, 7874, Note_on_c, 1, 62, 77
4, 7875, Note_on_c, 1, 58, 77
4, 7896, Control_c, 1, 64, 127
4, 7915, Note_on_c, 1, 62, 0
4, 7918, Note_on_c, 1, 58, 0
4, 7961, Control_c, 1, 64, 0
4, 7969, Note_on_c, 1, 48, 73
4, 8037, Control_c, 1, 64, 127
4, 8062, Note_on_c, 1, 64, 56
4, 8063, Note_on_c, 1, 60, 48
4, 8077, Note_on_c, 1, 64, 0
4, 8077, Note_on_c, 1, 60, 0
4, 8105, Note_on_c, 1, 48, 0
4, 8157, Control_c, 1, 64, 0
4, 8161, Note_on_c, 1, 55, 48
4, 8162, Note_on_c, 1, 59, 50
4, 8162, Note_on_c, 1, 62, 50
4, 8184, Control_c, 1, 64, 127
4, 8214, Note_on_c, 1, 59, 0
4, 8220, Note_on_c, 1, 55, 0
4, 8220, Note_on_c, 1, 62, 0
4, 8250, Control_c, 1, 64, 0
4, 8254, Note_on_c, 1, 57, 77
4, 8254, Note_on_c, 1, 53, 64
4, 8255, Note_on_c, 1, 60, 77
4, 8279, Control_c, 1, 64, 127
4, 8300, Note_on_c, 1, 53, 0
4, 8306, Note_on_c, 1, 60, 0
4, 8311, Note_on_c, 1, 57, 0
4, 8350, Control_c, 1, 64, 0
4, 8351, Note_on_c, 1, 59, 50
4, 8351, Note_on_c, 1, 43, 64
4, 8351, Note_on_c, 1, 62, 48
4, 8352, Note_on_c, 1, 55, 48
4, 8442, Control_c, 1, 64, 127
4, 8455, Note_on_c, 1, 55, 0
4, 8460, Note_on_c, 1, 59, 0
4, 8462, Note_on_c, 1, 62, 0
4, 8471, Note_on_c, 1, 43, 0
4, 8537, Control_c, 1, 64, 0
4, 8542, Note_on_c, 1, 62, 48
4, 8542, Note_on_c, 1, 59, 45
4, 8542, Note_on_c, 1, 67, 48
4, 8542, Note_on_c, 1, 43, 47
4, 8561, Control_c, 1, 64, 127
4, 8578, Note_on_c, 1, 43, 0
4, 8579, Note_on_c, 1, 62, 0
4, 8580, Note_on_c, 1, 67, 0
4, 8581, Note_on_c, 1, 59, 0
4, 8635, Control_c, 1, 64, 0
4, 8639, Note_on_c, 1, 60, 73
4, 8639, Note_on_c, 1, 57, 64
4, 8639, Note_on_c, 1, 65, 77
4, 8656, Control_c, 1, 64, 127
4, 8667, Note_on_c, 1, 60, 0
4, 8668, Note_on_c, 1, 65, 0
4, 8671, Note_on_c, 1, 57, 0
4, 8734, Note_on_c, 1, 55, 45
4, 8734, Note_on_c, 1, 62, 48
4, 8734, Note_on_c, 1, 59, 52
4, 8734, Control_c, 1, 64, 0
4, 8734, Note_on_c, 1, 43, 50
4, 8834, Note_on_c, 1, 43, 0
4, 8834, Control_c, 1, 64, 127
4, 8841, Note_on_c, 1, 55, 0
4, 8846, Note_on_c, 1, 62, 0
4, 8846, Note_on_c, 1, 59, 0
4, 8917, Control_c, 1, 64, 0
4, 8928, Note_on_c, 1, 60, 64
4, 8928, Note_on_c, 1, 64, 73
4, 8928, Note_on_c, 1, 67, 73
4, 8928, Note_on_c, 1, 36, 64
4, 8940, Control_c, 1, 64, 127
4, 8948, Note_on_c, 1, 36, 0
4, 8956, Note_on_c, 1, 64, 0
4, 8956, Note_on_c, 1, 67, 0
4, 8958, Note_on_c, 1, 60, 0
4, 9022, Control_c, 1, 64, 0
4, 9025, Note_on_c, 1, 46, 77
4, 9025, Note_on_c, 1, 58, 64
4, 9025, Note_on_c, 1, 62, 77
4, 9026, Note_on_c, 1, 53, 48
4, 9049, Control_c, 1, 64, 127
4, 9062, Note_on_c, 1, 46, 0
4, 9067, Note_on_c, 1, 53, 0
4, 9070, Note_on_c, 1, 58, 0
4, 9073, Note_on_c, 1, 62, 0
4, 9090, Control_c, 1, 64, 0
4, 9122, Note_on_c, 1, 64, 64
4, 9123, Note_on_c, 1, 60, 48
4, 9128, Note_on_c, 1, 48, 47
4, 9162, Control_c, 1, 64, 127
4, 9216, Note_on_c, 1, 55, 50
4, 9224, Note_on_c, 1, 60, 0
4, 9224, Note_on_c, 1, 55, 0
4, 9228, Note_on_c, 1, 64, 0
4, 9246, Note_on_c, 1, 64, 50
4, 9247, Note_on_c, 1, 60, 43
4, 9258, Note_on_c, 1, 64, 0
4, 9258, Note_on_c, 1, 60, 0
4, 9278, Note_on_c, 1, 60, 77
4, 9278, Note_on_c, 1, 64, 86
4, 9287, Note_on_c, 1, 64, 0
4, 9288, Note_on_c, 1, 48, 0
4, 9288, Note_on_c, 1, 60, 0
4, 9291, Control_c, 1, 64, 0
4, 9313, Note_on_c, 1, 36, 73
4, 9315, Note_on_c, 1, 67, 73
4, 9315, Note_on_c, 1, 64, 60
4, 9315, Note_on_c, 1, 60, 60
4, 9330, Control_c, 1, 64, 127
4, 9345, Note_on_c, 1, 36, 0
4, 9347, Note_on_c, 1, 67, 0
4, 9347, Note_on_c, 1, 64, 0
4, 9349, Note_on_c, 1, 60, 0
4, 9409, Control_c, 1, 64, 0
4, 9410, Note_on_c, 1, 62, 77
4, 9411, Note_on_c, 1, 58, 77
4, 9432, Control_c, 1, 64, 127
4, 9451, Note_on_c, 1, 62, 0
4, 9454, Note_on_c, 1, 58, 0
4, 9497, Control_c, 1, 64, 0
4, 9505, Note_on_c, 1, 48, 73
4, 9573, Control_c, 1, 64, 127
4, 9598, Note_on_c, 1, 64, 56
4, 9599, Note_on_c, 1, 60, 48
4, 9613, Note_on_c, 1, 64, 0
4, 9613, Note_on_c, 1, 60, 0
4, 9641, Note_on_c, 1, 48, 0
4, 9693, Control_c, 1, 64, 0
4, 9697, Note_on_c, 1, 55, 48
4, 9698, Note_on_c, 1, 59, 50
4, 9698, Note_on_c, 1, 62, 50
4, 9720, Control_c, 1, 64, 127
4, 9750, Note_on_c, 1, 59, 0
4, 9756, Note_on_c, 1, 55, 0
4, 9756, Note_on_c, 1, 62, 0
4, 9786, Control_c, 1, 64, 0
4, 9790, Note_on_c, 1, 57, 77
4, 9790, Note_on_c, 1, 53, 64
4, 9791, Note_on_c, 1, 60, 77
4, 9815, Control_c, 1, 64, 127
4, 9836, Note_on_c, 1, 53, 0
4, 9842, Note_on_c, 1, 60, 0
4, 9847, Note_on_c, 1, 57, 0
4, 9886, Control_c, 1, 64, 0
4, 9887, Note_on_c, 1, 59, 50
4, 9887, Note_on_c, 1, 43, 64
4, 9887, Note_on_c, 1, 62, 48
4, 9888, Note_on_c, 1, 55, 48
4, 9978, Control_c, 1, 64, 127
4, 9991, Note_on_c, 1, 55, 0
4, 9996, Note_on_c, 1, 59, 0
4, 9998, Note_on_c, 1, 62, 0
4, 10007, Note_on_c, 1, 43, 0
4, 10073, Control_c, 1, 64, 0
4, 10078, Note_on_c, 1, 62, 48
4, 10078, Note_on_c, 1, 59, 45
4, 10078, Note_on_c, 1, 67, 48
4, 10078, Note_on_c, 1, 43, 47
4, 10097, Control_c, 1, 64, 127
4, 10114, Note_on_c, 1, 43, 0
4, 10115, Note_on_c, 1, 62, 0
4, 10116, Note_on_c, 1, 67, 0
4, 10117, Note_on_c, 1, 59, 0
4, 10171, Control_c, 1, 64, 0
4, 10175, Note_on_c, 1, 60, 73
4, 10175, Note_on_c, 1, 57, 64
4, 10175, Note_on_c, 1, 65, 77
4, 10192, Control_c, 1, 64, 127
4, 10203, Note_on_c, 1, 60, 0
4, 10204, Note_on_c, 1, 65, 0
4, 10207, Note_on_c, 1, 57, 0
4, 10270, Note_on_c, 1, 55, 45
4, 10270, Note_on_c, 1, 62, 48
4, 10270, Note_on_c, 1, 59, 52
4, 10270, Control_c, 1, 64, 0
4, 10270, Note_on_c, 1, 43, 50
4, 10370, Note_on_c, 1, 43, 0
4, 10370, Control_c, 1, 64, 127
4, 10377, Note_on_c, 1, 55, 0
4, 10382, Note_on_c, 1, 62, 0
4, 10382, Note_on_c, 1, 59, 0
4, 10453, Control_c, 1, 64, 0
4, 10464, Note_on_c, 1, 60, 64
4, 10464, Note_on_c, 1, 64, 73
4, 10464, Note_on_c, 1, 67, 73
4, 10464, Note_on_c, 1, 36, 64
4, 10476, Control_c, 1, 64, 127
4, 10484, Note_on_c, 1, 36, 0
4, 10492, Note_on_c, 1, 64, 0
4, 10492, Note_on_c, 1, 67, 0
4, 10494, Note_on_c, 1, 60, 0
4, 10558, Control_c, 1, 64, 0
4, 10561, Note_on_c, 1, 46, 77
4, 10561, Note_on_c, 1, 58, 64
4, 10561, Note_on_c, 1, 62, 77
4, 10562, Note_on_c, 1, 53, 48
4, 10585, Control_c, 1, 64, 127
4, 10598, Note_on_c, 1, 46, 0
4, 10603, Note_on_c, 1, 53, 0
4, 10606, Note_on_c, 1, 58, 0
4, 10609, Note_on_c, 1, 62, 0
4, 10626, Control_c, 1, 64, 0
4, 10658, Note_on_c, 1, 64, 64
4, 10659, Note_on_c, 1, 60, 48
4, 10664, Note_on_c, 1, 48, 47
4, 10698, Control_c, 1, 64, 127
4, 10752, Note_on_c, 1, 55, 50
4, 10760, Note_on_c, 1, 60, 0
4, 10760, Note_on_c, 1, 55, 0
4, 10764, Note_on_c, 1, 64, 0
4, 10782, Note_on_c, 1, 64, 50
4, 10783, Note_on_c, 1, 60, 43
4, 10794, Note_on_c, 1, 64, 0
4, 10794, Note_on_c, 1, 60, 0
4, 10814, Note_on_c, 1, 60, 77
4, 10814, Note_on_c, 1, 64, 86
4, 10823, Note_on_c, 1, 64, 0
4, 10824, Note_on_c, 1, 48, 0
4, 10824, Note_on_c, 1, 60, 0
4, 10827, Control_c, 1, 64, 0
4, 10844, Control_c, 1, 64, 127
4, 10846, Note_on_c, 1, 48, 56
4, 10846, Note_on_c, 1, 67, 50
4, 10847, Note_on_c, 1, 60, 45
4, 10847, Note_on_c, 1, 64, 48
4, 10848, Time_signature, 1, 2, 96, 8
4, 10858, Note_on_c, 1, 60, 0
4, 10858, Note_on_c, 1, 64, 0
4, 10859, Note_on_c, 1, 67, 0
4, 10860, Note_on_c, 1, 48, 0
4, 10880, Note_on_c, 1, 67, 64
4, 10880, Note_on_c, 1, 48, 68
4, 10880, Note_on_c, 1, 64, 56
4, 10880, Note_on_c, 1, 60, 50
4, 10890, Note_on_c, 1, 60, 0
4, 10891, Note_on_c, 1, 64, 0
4, 10892, Note_on_c, 1, 67, 0
4, 10892, Note_on_c, 1, 48, 0
4, 10911, Note_on_c, 1, 48, 81
4, 10911, Note_on_c, 1, 67, 86
4, 10912, Note_on_c, 1, 64, 73
4, 10912, Note_on_c, 1, 60, 73
4, 10917, Control_c, 1, 64, 0
4, 10922, Note_on_c, 1, 64, 0
4, 10922, Note_on_c, 1, 60, 0
4, 10924, Note_on_c, 1, 48, 0
4, 10924, Note_on_c, 1, 67, 0
4, 10944, Time_signature, 4, 2, 96, 8
4, 10945, Note_on_c, 1, 72, 77
4, 10945, Note_on_c, 1, 67, 50
4, 10946, Note_on_c, 1, 76, 64
4, 10960, Note_on_c, 1, 72, 0
4, 10961, Note_on_c, 1, 76, 0
4, 10963, Note_on_c, 1, 67, 0
4, 10978, Note_on_c, 1, 67, 44
4, 10978, Note_on_c, 1, 72, 50
4, 10979, Note_on_c, 1, 76, 48
4, 10992, Note_on_c, 1, 72, 0
4, 10992, Note_on_c, 1, 76, 0
4, 10994, Note_on_c, 1, 67, 0
4, 11010, Note_on_c, 1, 72, 56
4, 11011, Note_on_c, 1, 76, 64
4, 11011, Note_on_c, 1, 67, 44
4, 11021, Note_on_c, 1, 72, 0
4, 11022, Note_on_c, 1, 76, 0
4, 11022, Note_on_c, 1, 67, 0
4, 11040, Note_on_c, 1, 76, 77
4, 11041, Note_on_c, 1, 72, 64
4, 11041, Note_on_c, 1, 67, 48
4, 11053, Note_on_c, 1, 72, 0
4, 11053, Note_on_c, 1, 67, 0
4, 11055, Note_on_c, 1, 76, 0
4, 11072, Note_on_c, 1, 72, 50
4, 11072, Note_on_c, 1, 67, 43
4, 11072, Note_on_c, 1, 76, 56
4, 11083, Note_on_c, 1, 72, 0
4, 11084, Note_on_c, 1, 67, 0
4, 11085, Note_on_c, 1, 76, 0
4, 11102, Note_on_c, 1, 76, 56
4, 11103, Note_on_c, 1, 72, 60
4, 11103, Note_on_c, 1, 67, 43
4, 11114, Note_on_c, 1, 72, 0
4, 11115, Note_on_c, 1, 76, 0
4, 11115, Note_on_c, 1, 67, 0
4, 11134, Note_on_c, 1, 76, 64
4, 11135, Note_on_c, 1, 72, 60
4, 11135, Note_on_c, 1, 67, 44
4, 11146, Note_on_c, 1, 72, 0
4, 11147, Note_on_c, 1, 67, 0
4, 11148, Note_on_c, 1, 76, 0
4, 11167, Note_on_c, 1, 76, 60
4, 11168, Note_on_c, 1, 67, 41
4, 11168, Note_on_c, 1, 72, 50
4, 11180, Note_on_c, 1, 72, 0
4, 11181, Note_on_c, 1, 76, 0
4, 11181, Note_on_c, 1, 67, 0
4, 11200, Note_on_c, 1, 67, 44
4, 11200, Note_on_c, 1, 76, 52
4, 11200, Note_on_c, 1, 72, 52
4, 11210, Note_on_c, 1, 72, 0
4, 11212, Note_on_c, 1, 67, 0
4, 11212, Note_on_c, 1, 76, 0
4, 11231, Note_on_c, 1, 67, 48
4, 11231, Note_on_c, 1, 76, 52
4, 11232, Note_on_c, 1, 72, 60
4, 11243, Note_on_c, 1, 72, 0
4, 11244, Note_on_c, 1, 67, 0
4, 11245, Note_on_c, 1, 76, 0
4, 11263, Note_on_c, 1, 67, 47
4, 11263, Note_on_c, 1, 76, 60
4, 11263, Note_on_c, 1, 72, 64
4, 11274, Note_on_c, 1, 72, 0
4, 11275, Note_on_c, 1, 76, 0
4, 11276, Note_on_c, 1, 67, 0
4, 11295, Note_on_c, 1, 72, 60
4, 11295, Note_on_c, 1, 76, 68
4, 11295, Note_on_c, 1, 67, 50
4, 11307, Note_on_c, 1, 72, 0
4, 11308, Note_on_c, 1, 76, 0
4, 11308, Note_on_c, 1, 67, 0
4, 11330, Note_on_c, 1, 74, 77
4, 11330, Note_on_c, 1, 71, 68
4, 11331, Note_on_c, 1, 65, 56
4, 11342, Note_on_c, 1, 71, 0
4, 11343, Note_on_c, 1, 65, 0
4, 11345, Note_on_c, 1, 74, 0
4, 11362, Note_on_c, 1, 74, 60
4, 11362, Note_on_c, 1, 71, 48
4, 11363, Note_on_c, 1, 65, 36
4, 11373, Note_on_c, 1, 71, 0
4, 11374, Note_on_c, 1, 65, 0
4, 11375, Note_on_c, 1, 74, 0
4, 11392, Note_on_c, 1, 74, 60
4, 11392, Note_on_c, 1, 71, 52
4, 11393, Note_on_c, 1, 65, 33
4, 11404, Note_on_c, 1, 71, 0
4, 11404, Note_on_c, 1, 65, 0
4, 11405, Note_on_c, 1, 74, 0
4, 11425, Note_on_c, 1, 71, 60
4, 11425, Note_on_c, 1, 74, 64
4, 11426, Note_on_c, 1, 65, 41
4, 11437, Note_on_c, 1, 71, 0
4, 11437, Note_on_c, 1, 65, 0
4, 11439, Note_on_c, 1, 74, 0
4, 11457, Note_on_c, 1, 74, 60
4, 11457, Note_on_c, 1, 71, 48
4, 11458, Note_on_c, 1, 65, 40
4, 11468, Note_on_c, 1, 71, 0
4, 11468, Note_on_c, 1, 65, 0
4, 11470, Note_on_c, 1, 74, 0
4, 11488, Note_on_c, 1, 74, 64
4, 11489, Note_on_c, 1, 71, 60
4, 11489, Note_on_c, 1, 65, 43
4, 11501, Note_on_c, 1, 71, 0
4, 11501, Note_on_c, 1, 65, 0
4, 11502, Note_on_c, 1, 74, 0
4, 11521, Note_on_c, 1, 74, 68
4, 11522, Note_on_c, 1, 71, 60
4, 11522, Note_on_c, 1, 65, 41
4, 11532, Note_on_c, 1, 65, 0
4, 11533, Note_on_c, 1, 71, 0
4, 11534, Note_on_c, 1, 74, 0
4, 11554, Note_on_c, 1, 74, 60
4, 11554, Note_on_c, 1, 71, 48
4, 11554, Note_on_c, 1, 65, 41
4, 11565, Note_on_c, 1, 71, 0
4, 11565, Note_on_c, 1, 65, 0
4, 11567, Note_on_c, 1, 74, 0
4, 11584, Note_on_c, 1, 74, 68
4, 11585, Note_on_c, 1, 71, 52
4, 11585, Note_on_c, 1, 65, 43
4, 11595, Note_on_c, 1, 71, 0
4, 11595, Note_on_c, 1, 65, 0
4, 11597, Note_on_c, 1, 74, 0
4, 11615, Note_on_c, 1, 74, 64
4, 11616, Note_on_c, 1, 71, 56
4, 11616, Note_on_c, 1, 65, 40
4, 11627, Note_on_c, 1, 71, 0
4, 11627, Note_on_c, 1, 65, 0
4, 11629, Note_on_c, 1, 74, 0
4, 11647, Note_on_c, 1, 74, 64
4, 11647, Note_on_c, 1, 65, 45
4, 11647, Note_on_c, 1, 71, 60
4, 11659, Note_on_c, 1, 65, 0
4, 11659, Note_on_c, 1, 71, 0
4, 11660, Note_on_c, 1, 74, 0
4, 11679, Note_on_c, 1, 74, 64
4, 11680, Note_on_c, 1, 71, 50
4, 11680, Note_on_c, 1, 65, 43
4, 11690, Note_on_c, 1, 71, 0
4, 11691, Note_on_c, 1, 65, 0
4, 11693, Note_on_c, 1, 74, 0
4, 11712, Note_on_c, 1, 74, 68
4, 11713, Note_on_c, 1, 71, 60
4, 11713, Note_on_c, 1, 65, 47
4, 11724, Note_on_c, 1, 71, 0
4, 11724, Note_on_c, 1, 65, 0
4, 11726, Note_on_c, 1, 74, 0
4, 11744, Note_on_c, 1, 74, 60
4, 11745, Note_on_c, 1, 65, 43
4, 11745, Note_on_c, 1, 71, 52
4, 11756, Note_on_c, 1, 65, 0
4, 11756, Note_on_c, 1, 71, 0
4, 11758, Note_on_c, 1, 74, 0
4, 11776, Note_on_c, 1, 74, 60
4, 11777, Note_on_c, 1, 71, 52
4, 11777, Note_on_c, 1, 65, 39
4, 11787, Note_on_c, 1, 71, 0
4, 11787, Note_on_c, 1, 65, 0
4, 11788, Note_on_c, 1, 74, 0
4, 11807, Note_on_c, 1, 74, 68
4, 11808, Note_on_c, 1, 71, 64
4, 11808, Note_on_c, 1, 65, 44
4, 11818, Note_on_c, 1, 71, 0
4, 11819, Note_on_c, 1, 65, 0
4, 11821, Note_on_c, 1, 74, 0
4, 11839, Note_on_c, 1, 74, 64
4, 11840, Note_on_c, 1, 71, 52
4, 11840, Note_on_c, 1, 65, 41
4, 11850, Note_on_c, 1, 71, 0
4, 11850, Note_on_c, 1, 65, 0
4, 11852, Note_on_c, 1, 74, 0
4, 11872, Note_on_c, 1, 74, 60
4, 11872, Note_on_c, 1, 71, 60
4, 11873, Note_on_c, 1, 65, 43
4, 11884, Note_on_c, 1, 74, 0
4, 11884, Note_on_c, 1, 71, 0
4, 11884, Note_on_c, 1, 65, 0
4, 11904, Note_on_c, 1, 74, 68
4, 11904, Note_on_c, 1, 71, 60
4, 11904, Note_on_c, 1, 65, 44
4, 11915, Note_on_c, 1, 65, 0
4, 11916, Note_on_c, 1, 71, 0
4, 11917, Note_on_c, 1, 74, 0
4, 11936, Note_on_c, 1, 74, 68
4, 11936, Note_on_c, 1, 71, 60
4, 11937, Note_on_c, 1, 65, 37
4, 11946, Note_on_c, 1, 71, 0
4, 11946, Note_on_c, 1, 65, 0
4, 11948, Note_on_c, 1, 74, 0
4, 11968, Note_on_c, 1, 74, 68
4, 11968, Note_on_c, 1, 71, 52
4, 11969, Note_on_c, 1, 65, 41
4, 11978, Note_on_c, 1, 71, 0
4, 11978, Note_on_c, 1, 65, 0
4, 11980, Note_on_c, 1, 74, 0
4, 12001, Note_on_c, 1, 74, 73
4, 12001, Note_on_c, 1, 71, 60
4, 12002, Note_on_c, 1, 65, 43
4, 12011, Note_on_c, 1, 71, 0
4, 12011, Note_on_c, 1, 65, 0
4, 12013, Note_on_c, 1, 74, 0
4, 12032, Note_on_c, 1, 74, 73
4, 12032, Note_on_c, 1, 71, 60
4, 12033, Note_on_c, 1, 65, 40
4, 12042, Note_on_c, 1, 71, 0
4, 12042, Note_on_c, 1, 65, 0
4, 12044, Note_on_c, 1, 74, 0
4, 12063, Note_on_c, 1, 74, 73
4, 12064, Note_on_c, 1, 71, 60
4, 12064, Note_on_c, 1, 65, 41
4, 12073, Note_on_c, 1, 65, 0
4, 12075, Note_on_c, 1, 71, 0
4, 12076, Note_on_c, 1, 74, 0
4, 12094, Note_on_c, 1, 67, 48
4, 12094, Note_on_c, 1, 76, 56
4, 12094, Note_on_c, 1, 72, 52
4, 12107, Note_on_c, 1, 72, 0
4, 12108, Note_on_c, 1, 76, 0
4, 12109, Note_on_c, 1, 67, 0
4, 12126, Note_on_c, 1, 67, 47
4, 12127, Note_on_c, 1, 72, 60
4, 12127, Note_on_c, 1, 76, 56
4, 12137, Note_on_c, 1, 72, 0
4, 12138, Note_on_c, 1, 67, 0
4, 12139, Note_on_c, 1, 76, 0
4, 12160, Note_on_c, 1, 67, 48
4, 12160, Note_on_c, 1, 76, 60
4, 12160, Note_on_c, 1, 72, 64
4, 12170, Note_on_c, 1, 72, 0
4, 12171, Note_on_c, 1, 67, 0
4, 12172, Note_on_c, 1, 76, 0
4, 12194, Note_on_c, 1, 76, 60
4, 12194, Note_on_c, 1, 67, 50
4, 12194, Note_on_c, 1, 72, 68
4, 12204, Note_on_c, 1, 72, 0
4, 12205, Note_on_c, 1, 67, 0
4, 12206, Note_on_c, 1, 76, 0
4, 12225, Note_on_c, 1, 67, 47
4, 12226, Note_on_c, 1, 76, 52
4, 12226, Note_on_c, 1, 72, 60
4, 12236, Note_on_c, 1, 67, 0
4, 12236, Note_on_c, 1, 72, 0
4, 12238, Note_on_c, 1, 76, 0
4, 12256, Note_on_c, 1, 76, 60
4, 12257, Note_on_c, 1, 67, 44
4, 12257, Note_on_c, 1, 72, 56
4, 12266, Note_on_c, 1, 72, 0
4, 12267, Note_on_c, 1, 67, 0
4, 12269, Note_on_c, 1, 76, 0
4, 12288, Note_on_c, 1, 76, 64
4, 12288, Note_on_c, 1, 67, 50
4, 12288, Note_on_c, 1, 72, 60
4, 12298, Note_on_c, 1, 72, 0
4, 12299, Note_on_c, 1, 67, 0
4, 12301, Note_on_c, 1, 76, 0
4, 12319, Note_on_c, 1, 76, 64
4, 12320, Note_on_c, 1, 67, 43
4, 12320, Note_on_c, 1, 72, 56
4, 12329, Note_on_c, 1, 72, 0
4, 12330, Note_on_c, 1, 67, 0
4, 12332, Note_on_c, 1, 76, 0
4, 12352, Note_on_c, 1, 72, 60
4, 12352, Note_on_c, 1, 76, 60
4, 12352, Note_on_c, 1, 67, 45
4, 12363, Note_on_c, 1, 72, 0
4, 12363, Note_on_c, 1, 67, 0
4, 12364, Note_on_c, 1, 76, 0
4, 12386, Note_on_c, 1, 76, 60
4, 12386, Note_on_c, 1, 67, 47
4, 12387, Note_on_c, 1, 72, 56
4, 12396, Note_on_c, 1, 72, 0
4, 12398, Note_on_c, 1, 76, 0
4, 12398, Note_on_c, 1, 67, 0
4, 12418, Note_on_c, 1, 76, 64
4, 12419, Note_on_c, 1, 67, 43
4, 12419, Note_on_c, 1, 72, 60
4, 12428, Note_on_c, 1, 72, 0
4, 12429, Note_on_c, 1, 67, 0
4, 12431, Note_on_c, 1, 76, 0
4, 12449, Note_on_c, 1, 76, 73
4, 12449, Note_on_c, 1, 67, 50
4, 12450, Note_on_c, 1, 72, 56
4, 12459, Note_on_c, 1, 72, 0
4, 12460, Note_on_c, 1, 67, 0
4, 12461, Note_on_c, 1, 76, 0
4, 12481, Note_on_c, 1, 72, 77
4, 12481, Note_on_c, 1, 67, 50
4, 12482, Note_on_c, 1, 76, 64
4, 12496, Note_on_c, 1, 72, 0
4, 12497, Note_on_c, 1, 76, 0
4, 12499, Note_on_c, 1, 67, 0
4, 12514, Note_on_c, 1, 67, 44
4, 12514, Note_on_c, 1, 72, 50
4, 12515, Note_on_c, 1, 76, 48
4, 12528, Note_on_c, 1, 72, 0
4, 12528, Note_on_c, 1, 76, 0
4, 12530, Note_on_c, 1, 67, 0
4, 12546, Note_on_c, 1, 72, 56
4, 12547, Note_on_c, 1, 76, 64
4, 12547, Note_on_c, 1, 67, 44
4, 12557, Note_on_c, 1, 72, 0
4, 12558, Note_on_c, 1, 76, 0
4, 12558, Note_on_c, 1, 67, 0
4, 12576, Note_on_c, 1, 76, 77
4, 12577, Note_on_c, 1, 72, 64
4, 12577, Note_on_c, 1, 67, 48
4, 12589, Note_on_c, 1, 72, 0
4, 12589, Note_on_c, 1, 67, 0
4, 12591, Note_on_c, 1, 76, 0
4, 12608, Note_on_c, 1, 72, 50
4, 12608, Note_on_c, 1, 67, 43
4, 12608, Note_on_c, 1, 76, 56
4, 12619, Note_on_c, 1, 72, 0
4, 12620, Note_on_c, 1, 67, 0
4, 12621, Note_on_c, 1, 76, 0
4, 12638, Note_on_c, 1, 76, 56
4, 12639, Note_on_c, 1, 72, 60
4, 12639, Note_on_c, 1, 67, 43
4, 12650, Note_on_c, 1, 72, 0
4, 12651, Note_on_c, 1, 76, 0
4, 12651, Note_on_c, 1, 67, 0
4, 12670, Note_on_c, 1, 76, 64
4, 12671, Note_on_c, 1, 72, 60
4, 12671, Note_on_c, 1, 67, 44
4, 12682, Note_on_c, 1, 72, 0
4, 12683, Note_on_c, 1, 67, 0
4, 12684, Note_on_c, 1, 76, 0
4, 12703, Note_on_c, 1, 76, 60
4, 12704, Note_on_c, 1, 67, 41
4, 12704, Note_on_c, 1, 72, 50
4, 12716, Note_on_c, 1, 72, 0
4, 12717, Note_on_c, 1, 76, 0
4, 12717, Note_on_c, 1, 67, 0
4, 12736, Note_on_c, 1, 67, 44
4, 12736, Note_on_c, 1, 76, 52
4, 12736, Note_on_c, 1, 72, 52
4, 12746, Note_on_c, 1, 72, 0
4, 12748, Note_on_c, 1, 67, 0
4, 12748, Note_on_c, 1, 76, 0
4, 12767, Note_on_c, 1, 67, 48
4, 12767, Note_on_c, 1, 76, 52
4, 12768, Note_on_c, 1, 72, 60
4, 12779, Note_on_c, 1, 72, 0
4, 12780, Note_on_c, 1, 67, 0
4, 12781, Note_on_c, 1, 76, 0
4, 12799, Note_on_c, 1, 67, 47
4, 12799, Note_on_c, 1, 76, 60
4, 12799, Note_on_c, 1, 72, 64
4, 12810, Note_on_c, 1, 72, 0
4, 12811, Note_on_c, 1, 76, 0
4, 12812, Note_on_c, 1, 67, 0
4, 12831, Note_on_c, 1, 72, 60
4, 12831, Note_on_c, 1, 76, 68
4, 12831, Note_on_c, 1, 67, 50
4, 12843, Note_on_c, 1, 72, 0
4, 12844, Note_on_c, 1, 76, 0
4, 12844, Note_on_c, 1, 67, 0
4, 12866, Note_on_c, 1, 74, 77
4, 12866, Note_on_c, 1, 71, 68
4, 12867, Note_on_c, 1, 65, 56
4, 12878, Note_on_c, 1, 71, 0
4, 12879, Note_on_c, 1, 65, 0
4, 12881, Note_on_c, 1, 74, 0
4, 12898, Note_on_c, 1, 74, 60
4, 12898, Note_on_c, 1, 71, 48
4, 12899, Note_on_c, 1, 65, 36
4, 12909, Note_on_c, 1, 71, 0
4, 12910, Note_on_c, 1, 65, 0
4, 12911, Note_on_c, 1, 74, 0
4, 12928, Note_on_c, 1, 74, 60
4, 12928, Note_on_c, 1, 71, 52
4, 12929, Note_on_c, 1, 65, 33
4, 12940, Note_on_c, 1, 71, 0
4, 12940, Note_on_c, 1, 65, 0
4, 12941, Note_on_c, 1, 74, 0
4, 12961, Note_on_c, 1, 71, 60
4, 12961, Note_on_c, 1, 74, 64
4, 12962, Note_on_c, 1, 65, 41
4, 12973, Note_on_c, 1, 71, 0
4, 12973, Note_on_c, 1, 65, 0
4, 12975, Note_on_c, 1, 74, 0
4, 12993, Note_on_c, 1, 74, 60
4, 12993, Note_on_c, 1, 71, 48
4, 12994, Note_on_c, 1, 65, 40
4, 13004, Note_on_c, 1, 71, 0
4, 13004, Note_on_c, 1, 65, 0
4, 13006, Note_on_c, 1, 74, 0
4, 13024, Note_on_c, 1, 74, 64
4, 13025, Note_on_c, 1, 71, 60
4, 13025, Note_on_c, 1, 65, 43
4, 13037, Note_on_c, 1, 71, 0
4, 13037, Note_on_c, 1, 65, 0
4, 13038, Note_on_c, 1, 74, 0
4, 13057, Note_on_c, 1, 74, 68
4, 13058, Note_on_c, 1, 71, 60
4, 13058, Note_on_c, 1, 65, 41
4, 13068, Note_on_c, 1, 65, 0
4, 13069, Note_on_c, 1, 71, 0
4, 13070, Note_on_c, 1, 74, 0
4, 13090, Note_on_c, 1, 74, 60
4, 13090, Note_on_c, 1, 71, 48
4, 13090, Note_on_c, 1, 65, 41
4, 13101, Note_on_c, 1, 71, 0
4, 13101, Note_on_c, 1, 65, 0
4, 13103, Note_on_c, 1, 74, 0
4, 13120, Note_on_c, 1, 74, 68
4, 13121, Note_on_c, 1, 71, 52
4, 13121, Note_on_c, 1, 65, 43
4, 13131, Note_on_c, 1, 71, 0
4, 13131, Note_on_c, 1, 65, 0
4, 13133, Note_on_c, 1, 74, 0
4, 13151, Note_on_c, 1, 74, 64
4, 13152, Note_on_c, 1, 71, 56
4, 13152, Note_on_c, 1, 65, 40
4, 13163, Note_on_c, 1, 71, 0
4, 13163, Note_on_c, 1, 65, 0
4, 13165, Note_on_c, 1, 74, 0
4, 13183, Note_on_c, 1, 74, 64
4, 13183, Note_on_c, 1, 65, 45
4, 13183, Note_on_c, 1, 71, 60
4, 13195, Note_on_c, 1, 65, 0
4, 13195, Note_on_c, 1, 71, 0
4, 13196, Note_on_c, 1, 74, 0
4, 13215, Note_on_c, 1, 74, 64
4, 13216, Note_on_c, 1, 71, 50
4, 13216, Note_on_c, 1, 65, 43
4, 13226, Note_on_c, 1, 71, 0
4, 13227, Note_on_c, 1, 65, 0
4, 13229, Note_on_c, 1, 74, 0
4, 13248, Note_on_c, 1, 74, 68
4, 13249, Note_on_c, 1, 71, 60
4, 13249, Note_on_c, 1, 65, 47
4, 13260, Note_on_c, 1, 71, 0
4, 13260, Note_on_c, 1, 65, 0
4, 13262, Note_on_c, 1, 74, 0
4, 13280, Note_on_c, 1, 74, 60
4, 13281, Note_on_c, 1, 65, 43
4, 13281, Note_on_c, 1, 71, 52
4, 13292, Note_on_c, 1, 65, 0
4, 13292, Note_on_c, 1, 71, 0
4, 13294, Note_on_c, 1, 74, 0
4, 13312, Note_on_c, 1, 74, 60
4, 13313, Note_on_c, 1, 71, 52
4, 13313, Note_on_c, 1, 65, 39
4, 13323, Note_on_c, 1, 71, 0
4, 13323, Note_on_c, 1, 65, 0
4, 13324, Note_on_c, 1, 74, 0
4, 13343, Note_on_c, 1, 74, 68
4, 13344, Note_on_c, 1, 71, 64
4, 13344, Note_on_c, 1, 65, 44
4, 13354, Note_on_c, 1, 71, 0
4, 13355, Note_on_c, 1, 65, 0
4, 13357, Note_on_c, 1, 74, 0
4, 13375, Note_on_c, 1, 74, 64
4, 13376, Note_on_c, 1, 71, 52
4, 13376, Note_on_c, 1, 65, 41
4, 13386, Note_on_c, 1, 71, 0
4, 13386, Note_on_c, 1, 65, 0
4, 13388, Note_on_c, 1, 74, 0
4, 13408, Note_on_c, 1, 74, 60
4, 13408, Note_on_c, 1, 71, 60
4, 13409, Note_on_c, 1, 65, 43
4, 13420, Note_on_c, 1, 74, 0
4, 13420, Note_on_c, 1, 71, 0
4, 13420, Note_on_c, 1, 65, 0
4, 13440, Note_on_c, 1, 74, 68
4, 13440, Note_on_c, 1, 71, 60
4, 13440, Note_on_c, 1, 65, 44
4, 13451, Note_on_c, 1, 65, 0
4, 13452, Note_on_c, 1, 71, 0
4, 13453, Note_on_c, 1, 74, 0
4, 13472, Note_on_c, 1, 74, 68
4, 13472, Note_on_c, 1, 71, 60
4, 13473, Note_on_c, 1, 65, 37
4, 13482, Note_on_c, 1, 71, 0
4, 13482, Note_on_c, 1, 65, 0
4, 13484, Note_on_c, 1, 74, 0
4, 13504, Note_on_c, 1, 74, 68
4, 13504, Note_on_c, 1, 71, 52
4, 13505, Note_on_c, 1, 65, 41
4, 13514, Note_on_c, 1, 71, 0
4, 13514, Note_on_c, 1, 65, 0
4, 13516, Note_on_c, 1, 74, 0
4, 13537, Note_on_c, 1, 74, 73
4, 13537, Note_on_c, 1, 71, 60
4, 13538, Note_on_c, 1, 65, 43
4, 13547, Note_on_c, 1, 71, 0
4, 13547, Note_on_c, 1, 65, 0
4, 13549, Note_on_c, 1, 74, 0
4, 13568, Note_on_c, 1, 74, 73
4, 13568, Note_on_c, 1, 71, 60
4, 13569, Note_on_c, 1, 65, 40
4, 13578, Note_on_c, 1, 71, 0
4, 13578, Note_on_c, 1, 65, 0
4, 13580, Note_on_c, 1, 74, 0
4, 13599, Note_on_c, 1, 74, 73
4, 13600, Note_on_c, 1, 71, 60
4, 13600, Note_on_c, 1, 65, 41
4, 13609, Note_on_c, 1, 65, 0
4, 13611, Note_on_c, 1, 71, 0
4, 13612, Note_on_c, 1, 74, 0
4, 13630, Note_on_c, 1, 67, 48
4, 13630, Note_on_c, 1, 76, 56
4, 13630, Note_on_c, 1, 72, 52
4, 13632, Note_on_c, 1, 67, 0
4, 13632, Note_on_c, 1, 76, 0
4, 13632, Note_on_c, 1, 72, 0
4, 13632, Note_on_c, 1, 67, 81
4, 13632, Note_on_c, 1, 64, 86
4, 13632, Note_on_c, 1, 60, 81
4, 13632, Note_on_c, 1, 36, 81
4, 13653, Control_c, 1, 64, 127
4, 13661, Note_on_c, 1, 67, 0
4, 13661, Note_on_c, 1, 64, 0
4, 13661, Note_on_c, 1, 36, 0
4, 13662, Note_on_c, 1, 60, 0
4, 13722, Control_c, 1, 64, 0
4, 13728, Note_on_c, 1, 58, 68
4, 13728, Note_on_c, 1, 65, 81
4, 13728, Note_on_c, 1, 62, 86
4, 13728, Note_on_c, 1, 46, 77
4, 13743, Control_c, 1, 64, 127
4, 13748, Note_on_c, 1, 62, 0
4, 13750, Note_on_c, 1, 65, 0
4, 13751, Note_on_c, 1, 58, 0
4, 13751, Note_on_c, 1, 46, 0
4, 13789, Control_c, 1, 64, 0
4, 13792, Note_on_c, 1, 57, 86
4, 13792, Note_on_c, 1, 60, 90
4, 13792, Note_on_c, 1, 53, 81
4, 13801, Note_on_c, 1, 57, 0
4, 13801, Note_on_c, 1, 53, 0
4, 13803, Note_on_c, 1, 60, 0
4, 13824, Note_on_c, 1, 64, 86
4, 13824, Note_on_c, 1, 60, 77
4, 13824, Note_on_c, 1, 55, 68
4, 13824, Note_on_c, 1, 48, 73
4, 13830, Control_c, 1, 64, 127
4, 13858, Note_on_c, 1, 64, 0
4, 13858, Note_on_c, 1, 60, 0
4, 13860, Note_on_c, 1, 55, 0
4, 13866, Note_on_c, 1, 48, 0
4, 13916, Control_c, 1, 64, 0
4, 13920, Note_on_c, 1, 58, 64
4, 13920, Note_on_c, 1, 65, 86
4, 13920, Note_on_c, 1, 62, 95
4, 13920, Note_on_c, 1, 46, 81
4, 13934, Control_c, 1, 64, 127
4, 13940, Note_on_c, 1, 62, 0
4, 13941, Note_on_c, 1, 46, 0
4, 13943, Note_on_c, 1, 58, 0
4, 13944, Note_on_c, 1, 65, 0
4, 13984, Note_on_c, 1, 53, 77
4, 13984, Note_on_c, 1, 60, 73
4, 13984, Note_on_c, 1, 69, 81
4, 13984, Note_on_c, 1, 65, 73
4, 13985, Control_c, 1, 64, 0
4, 13994, Note_on_c, 1, 60, 0
4, 13996, Note_on_c, 1, 53, 0
4, 13996, Note_on_c, 1, 69, 0
4, 13997, Note_on_c, 1, 65, 0
4, 14013, Control_c, 1, 64, 127
4, 14016, Note_on_c, 1, 60, 77
4, 14016, Note_on_c, 1, 67, 77
4, 14016, Note_on_c, 1, 64, 81
4, 14057, Note_on_c, 1, 67, 0
4, 14058, Note_on_c, 1, 60, 0
4, 14058, Note_on_c, 1, 64, 0
4, 14108, Control_c, 1, 64, 0
4, 14112, Note_on_c, 1, 46, 90
4, 14112, Note_on_c, 1, 58, 60
4, 14112, Note_on_c, 1, 62, 95
4, 14112, Note_on_c, 1, 65, 86
4, 14125, Control_c, 1, 64, 127
4, 14132, Note_on_c, 1, 46, 0
4, 14133, Note_on_c, 1, 62, 0
4, 14134, Note_on_c, 1, 58, 0
4, 14137, Note_on_c, 1, 65, 0
4, 14173, Control_c, 1, 64, 0
4, 14176, Note_on_c, 1, 69, 77
4, 14176, Note_on_c, 1, 65, 64
4, 14176, Note_on_c, 1, 53, 73
4, 14176, Note_on_c, 1, 60, 64
4, 14186, Note_on_c, 1, 60, 0
4, 14186, Control_c, 1, 64, 127
4, 14188, Note_on_c, 1, 53, 0
4, 14189, Note_on_c, 1, 69, 0
4, 14189, Note_on_c, 1, 65, 0
4, 14200, Control_c, 1, 64, 0
4, 14208, Note_on_c, 1, 67, 77
4, 14208, Note_on_c, 1, 60, 73
4, 14208, Note_on_c, 1, 64, 81
4, 14295, Note_on_c, 1, 60, 0
4, 14312, Note_on_c, 1, 64, 0
4, 14340, Note_on_c, 1, 67, 0
4, 14401, Note_on_c, 1, 36, 73
4, 14403, Note_on_c, 1, 67, 73
4, 14403, Note_on_c, 1, 64, 60
4, 14403, Note_on_c, 1, 60, 60
4, 14418, Control_c, 1, 64, 127
4, 14433, Note_on_c, 1, 36, 0
4, 14435, Note_on_c, 1, 67, 0
4, 14435, Note_on_c, 1, 64, 0
4, 14437, Note_on_c, 1, 60, 0
4, 14497, Control_c, 1, 64, 0
4, 14498, Note_on_c, 1, 62, 77
4, 14499, Note_on_c, 1, 58, 77
4, 14520, Control_c, 1, 64, 127
4, 14539, Note_on_c, 1, 62, 0
4, 14542, Note_on_c, 1, 58, 0
4, 14585, Control_c, 1, 64, 0
4, 14593, Note_on_c, 1, 48, 73
4, 14661, Control_c, 1, 64, 127
4, 14686, Note_on_c, 1, 64, 56
4, 14687, Note_on_c, 1, 60, 48
4, 14701, Note_on_c, 1, 64, 0
4, 14701, Note_on_c, 1, 60, 0
4, 14729, Note_on_c, 1, 48, 0
4, 14781, Control_c, 1, 64, 0
4, 14785, Note_on_c, 1, 55, 48
4, 14786, Note_on_c, 1, 59, 50
4, 14786, Note_on_c, 1, 62, 50
4, 14808, Control_c, 1, 64, 127
4, 14838, Note_on_c, 1, 59, 0
4, 14844, Note_on_c, 1, 55, 0
4, 14844, Note_on_c, 1, 62, 0
4, 14874, Control_c, 1, 64, 0
4, 14878, Note_on_c, 1, 57, 77
4, 14878, Note_on_c, 1, 53, 64
4, 14879, Note_on_c, 1, 60, 77
4, 14903, Control_c, 1, 64, 127
4, 14924, Note_on_c, 1, 53, 0
4, 14930, Note_on_c, 1, 60, 0
4, 14935, Note_on_c, 1, 57, 0
4, 14974, Control_c, 1, 64, 0
4, 14975, Note_on_c, 1, 59, 50
4, 14975, Note_on_c, 1, 43, 64
4, 14975, Note_on_c, 1, 62, 48
4, 14976, Note_on_c, 1, 55, 48
4, 15066, Control_c, 1, 64, 127
4, 15079, Note_on_c, 1, 55, 0
4, 15084, Note_on_c, 1, 59, 0
4, 15086, Note_on_c, 1, 62, 0
4, 15095, Note_on_c, 1, 43, 0
4, 15161, Control_c, 1, 64, 0
4, 15166, Note_on_c, 1, 62, 48
4, 15166, Note_on_c, 1, 59, 45
4, 15166, Note_on_c, 1, 67, 48
4, 15166, Note_on_c, 1, 43, 47
4, 15185, Control_c, 1, 64, 127
4, 15202, Note_on_c, 1, 43, 0
4, 15203, Note_on_c, 1, 62, 0
4, 15204, Note_on_c, 1, 67, 0
4, 15205, Note_on_c, 1, 59, 0
4, 15259, Control_c, 1, 64, 0
4, 15263, Note_on_c, 1, 60, 73
4, 15263, Note_on_c, 1, 57, 64
4, 15263, Note_on_c, 1, 65, 77
4, 15280, Control_c, 1, 64, 127
4, 15291, Note_on_c, 1, 60, 0
4, 15292, Note_on_c, 1, 65, 0
4, 15295, Note_on_c, 1, 57, 0
4, 15358, Note_on_c, 1, 55, 45
4, 15358, Note_on_c, 1, 62, 48
4, 15358, Note_on_c, 1, 59, 52
4, 15358, Control_c, 1, 64, 0
4, 15358, Note_on_c, 1, 43, 50
4, 15458, Note_on_c, 1, 43, 0
4, 15458, Control_c, 1, 64, 127
4, 15465, Note_on_c, 1, 55, 0
4, 15470, Note_on_c, 1, 62, 0
4, 15470, Note_on_c, 1, 59, 0
4, 15541, Control_c, 1, 64, 0
4, 15552, Note_on_c, 1, 60, 64
4, 15552, Note_on_c, 1, 64, 73
4, 15552, Note_on_c, 1, 67, 73
4, 15552, Note_on_c, 1, 36, 64
4, 15564, Control_c, 1, 64, 127
4, 15572, Note_on_c, 1, 36, 0
4, 15580, Note_on_c, 1, 64, 0
4, 15580, Note_on_c, 1, 67, 0
4, 15582, Note_on_c, 1, 60, 0
4, 15646, Control_c, 1, 64, 0
4, 15649, Note_on_c, 1, 46, 77
4, 15649, Note_on_c, 1, 58, 64
4, 15649, Note_on_c, 1, 62, 77
4, 15650, Note_on_c, 1, 53, 48
4, 15673, Control_c, 1, 64, 127
4, 15686, Note_on_c, 1, 46, 0
4, 15691, Note_on_c, 1, 53, 0
4, 15694, Note_on_c, 1, 58, 0
4, 15697, Note_on_c, 1, 62, 0
4, 15714, Control_c, 1, 64, 0
4, 15746, Note_on_c, 1, 64, 64
4, 15747, Note_on_c, 1, 60, 48
4, 15752, Note_on_c, 1, 48, 47
4, 15786, Control_c, 1, 64, 127
4, 15840, Note_on_c, 1, 55, 50
4, 15848, Note_on_c, 1, 60, 0
4, 15848, Note_on_c, 1, 55, 0
4, 15852, Note_on_c, 1, 64, 0
4, 15870, Note_on_c, 1, 64, 50
4, 15871, Note_on_c, 1, 60, 43
4, 15882, Note_on_c, 1, 64, 0
4, 15882, Note_on_c, 1, 60, 0
4, 15902, Note_on_c, 1, 60, 77
4, 15902, Note_on_c, 1, 64, 86
4, 15911, Note_on_c, 1, 64, 0
4, 15912, Note_on_c, 1, 48, 0
4, 15912, Note_on_c, 1, 60, 0
4, 15915, Control_c, 1, 64, 0
4, 15937, Note_on_c, 1, 36, 73
4, 15939, Note_on_c, 1, 67, 73
4, 15939, Note_on_c, 1, 64, 60
4, 15939, Note_on_c, 1, 60, 60
4, 15954, Control_c, 1, 64, 127
4, 15969, Note_on_c, 1, 36, 0
4, 15971, Note_on_c, 1, 67, 0
4, 15971, Note_on_c, 1, 64, 0
4, 15973, Note_on_c, 1, 60, 0
4, 16033, Control_c, 1, 64, 0
4, 16034, Note_on_c, 1, 62, 77
4, 16035, Note_on_c, 1, 58, 77
4, 16056, Control_c, 1, 64, 127
4, 16075, Note_on_c, 1, 62, 0
4, 16078, Note_on_c, 1, 58, 0
4, 16121, Control_c, 1, 64, 0
4, 16129, Note_on_c, 1, 48, 73
4, 16197, Control_c, 1, 64, 127
4, 16222, Note_on_c, 1, 64, 56
4, 16223, Note_on_c, 1, 60, 48
4, 16237, Note_on_c, 1, 64, 0
4, 16237, Note_on_c, 1, 60, 0
4, 16265, Note_on_c, 1, 48, 0
4, 16317, Control_c, 1, 64, 0
4, 16321, Note_on_c, 1, 55, 48
4, 16322, Note_on_c, 1, 59, 50
4, 16322, Note_on_c, 1, 62, 50
4, 16344, Control_c, 1, 64, 127
4, 16374, Note_on_c, 1, 59, 0
4, 16380, Note_on_c, 1, 55, 0
4, 16380, Note_on_c, 1, 62, 0
4, 16410, Control_c, 1, 64, 0
4, 16414, Note_on_c, 1, 57, 77
4, 16414, Note_on_c, 1, 53, 64
4, 16415, Note_on_c, 1, 60, 77
4, 16439, Control_c, 1, 64, 127
4, 16460, Note_on_c, 1, 53, 0
4, 16466, Note_on_c, 1, 60, 0
4, 16471, Note_on_c, 1, 57, 0
4, 16510, Control_c, 1, 64, 0
4, 16511, Note_on_c, 1, 59, 50
4, 16511, Note_on_c, 1, 43, 64
4, 16511, Note_on_c, 1, 62, 48
4, 16512, Note_on_c, 1, 55, 48
4, 16602, Control_c, 1, 64, 127
4, 16615, Note_on_c, 1, 55, 0
4, 16620, Note_on_c, 1, 59, 0
4, 16622, Note_on_c, 1, 62, 0
4, 16631, Note_on_c, 1, 43, 0
4, 16697, Control_c, 1, 64, 0
4, 16702, Note_on_c, 1, 62, 48
4, 16702, Note_on_c, 1, 59, 45
4, 16702, Note_on_c, 1, 67, 48
4, 16702, Note_on_c, 1, 43, 47
4, 16721, Control_c, 1, 64, 127
4, 16738, Note_on_c, 1, 43, 0
4, 16739, Note_on_c, 1, 62, 0
4, 16740, Note_on_c, 1, 67, 0
4, 16741, Note_on_c, 1, 59, 0
4, 16795, Control_c, 1, 64, 0
4, 16799, Note_on_c, 1, 60, 73
4, 16799, Note_on_c, 1, 57, 64
4, 16799, Note_on_c, 1, 65, 77
4, 16816, Control_c, 1, 64, 127
4, 16827, Note_on_c, 1, 60, 0
4, 16828, Note_on_c, 1, 65, 0
4, 16831, Note_on_c, 1, 57, 0
4, 16894, Note_on_c, 1, 55, 45
4, 16894, Note_on_c, 1, 62, 48
4, 16894, Note_on_c, 1, 59, 52
4, 16894, Control_c, 1, 64, 0
4, 16894, Note_on_c, 1, 43, 50
4, 16994, Note_on_c, 1, 43, 0
4, 16994, Control_c, 1, 64, 127
4, 17001, Note_on_c, 1, 55, 0
4, 17006, Note_on_c, 1, 62, 0
4, 17006, Note_on_c, 1, 59, 0
4, 17077, Control_c, 1, 64, 0
4, 17088, Note_on_c, 1, 67, 81
4, 17088, Note_on_c, 1, 64, 86
4, 17088, Note_on_c, 1, 60, 81
4, 17088, Note_on_c, 1, 36, 81
4, 17109, Control_c, 1, 64, 127
4, 17117, Note_on_c, 1, 67, 0
4, 17117, Note_on_c, 1, 64, 0
4, 17117, Note_on_c, 1, 36, 0
4, 17118, Note_on_c, 1, 60, 0
4, 17178, Control_c, 1, 64, 0
4, 17184, Note_on_c, 1, 58, 68
4, 17184, Note_on_c, 1, 65, 81
4, 17184, Note_on_c, 1, 62, 86
4, 17184, Note_on_c, 1, 46, 77
4, 17199, Control_c, 1, 64, 127
4, 17204, Note_on_c, 1, 62, 0
4, 17206, Note_on_c, 1, 65, 0
4, 17207, Note_on_c, 1, 58, 0
4, 17207, Note_on_c, 1, 46, 0
4, 17245, Control_c, 1, 64, 0
4, 17248, Note_on_c, 1, 57, 86
4, 17248, Note_on_c, 1, 60, 90
4, 17248, Note_on_c, 1, 53, 81
4, 17257, Note_on_c, 1, 57, 0
4, 17257, Note_on_c, 1, 53, 0
4, 17259, Note_on_c, 1, 60, 0
4, 17280, Note_on_c, 1, 64, 86
4, 17280, Note_on_c, 1, 60, 77
4, 17280, Note_on_c, 1, 55, 68
4, 17280, Note_on_c, 1, 48, 73
4, 17286, Control_c, 1, 64, 127
4, 17314, Note_on_c, 1, 64, 0
4, 17314, Note_on_c, 1, 60, 0
4, 17316, Note_on_c, 1, 55, 0
4, 17322, Note_on_c, 1, 48, 0
4, 17372, Control_c, 1, 64, 0
4, 17376, Note_on_c, 1, 58, 64
4, 17376, Note_on_c, 1, 65, 86
4, 17376, Note_on_c, 1, 62, 95
4, 17376, Note_on_c, 1, 46, 81
4, 17390, Control_c, 1, 64, 127
4, 17396, Note_on_c, 1, 62, 0
4, 17397, Note_on_c, 1, 46, 0
4, 17399, Note_on_c, 1, 58, 0
4, 17400, Note_on_c, 1, 65, 0
4, 17440, Note_on_c, 1, 53, 77
4, 17440, Note_on_c, 1, 60, 73
4, 17440, Note_on_c, 1, 69, 81
4, 17440, Note_on_c, 1, 65, 73
4, 17441, Control_c, 1, 64, 0
4, 17450, Note_on_c, 1, 60, 0
4, 17452, Note_on_c, 1, 53, 0
4, 17452, Note_on_c, 1, 69, 0
4, 17453, Note_on_c, 1, 65, 0
4, 17469, Control_c, 1, 64, 127
4, 17472, Note_on_c, 1, 60, 77
4, 17472, Note_on_c, 1, 67, 77
4, 17472, Note_on_c, 1, 64, 81
4, 17513, Note_on_c, 1, 67, 0
4, 17514, Note_on_c, 1, 60, 0
4, 17514, Note_on_c, 1, 64, 0
4, 17564, Control_c, 1, 64, 0
4, 17568, Note_on_c, 1, 46, 90
4, 17568, Note_on_c, 1, 58, 60
4, 17568, Note_on_c, 1, 62, 95
4, 17568, Note_on_c, 1, 65, 86
4, 17581, Control_c, 1, 64, 127
4, 17588, Note_on_c, 1, 46, 0
4, 17589, Note_on_c, 1, 62, 0
4, 17590, Note_on_c, 1, 58, 0
4, 17593, Note_on_c, 1, 65, 0
4, 17629, Control_c, 1, 64, 0
4, 17632, Note_on_c, 1, 69, 77
4, 17632, Note_on_c, 1, 65, 64
4, 17632, Note_on_c, 1, 53, 73
4, 17632, Note_on_c, 1, 60, 64
4, 17642, Note_on_c, 1, 60, 0
4, 17642, Control_c, 1, 64, 127
4, 17644, Note_on_c, 1, 53, 0
4, 17645, Note_on_c, 1, 69, 0
4, 17645, Note_on_c, 1, 65, 0
4, 17656, Control_c, 1, 64, 0
4, 17664, Note_on_c, 1, 64, 81
4, 17664, Note_on_c, 1, 60, 73
4, 17664, Note_on_c, 1, 67, 77
4, 18102, Note_on_c, 1, 60, 0
4, 18184, Note_on_c, 1, 64, 0
4, 18328, Note_on_c, 1, 67, 0
4, 18328, End_track
5, 0, Start_track
5, 0, Control_c, 2, 0, 0
5, 0, Program_c, 2, 25
5, 0, Control_c, 2, 10, 40
5, 0, Time_signature, 4, 2, 96, 8
5, 0, Tempo, 853485
5, 0, Control_c, 2, 7, 110
5, 52, Control_c, 2, 91, 70
5, 57, Control_c, 2, 10, 17
5, 62, Control_c, 2, 10, 17
5, 67, Control_c, 2, 10, 17
5, 72, Control_c, 2, 10, 17
5, 76, Control_c, 2, 10, 17
5, 81, Control_c, 2, 10, 17
5, 86, Control_c, 2, 10, 17
5, 384, Note_on_c, 2, 55, 60
5, 384, Note_on_c, 2, 64, 70
5, 384, Note_on_c, 2, 60, 70
5, 384, Note_on_c, 2, 48, 70
5, 388, Control_c, 2, 64, 127
5, 394, Note_on_c, 2, 55, 0
5, 394, Note_on_c, 2, 60, 0
5, 395, Note_on_c, 2, 64, 0
5, 398, Note_on_c, 2, 48, 0
5, 416, Note_on_c, 2, 55, 63
5, 416, Note_on_c, 2, 60, 73
5, 416, Note_on_c, 2, 64, 70
5, 421, Note_on_c, 2, 60, 0
5, 422, Note_on_c, 2, 55, 0
5, 423, Note_on_c, 2, 64, 0
5, 432, Note_on_c, 2, 55, 60
5, 432, Note_on_c, 2, 60, 83
5, 432, Note_on_c, 2, 64, 76
5, 437, Note_on_c, 2, 60, 0
5, 438, Note_on_c, 2, 55, 0
5, 440, Note_on_c, 2, 64, 0
5, 448, Note_on_c, 2, 55, 76
5, 448, Note_on_c, 2, 60, 92
5, 448, Note_on_c, 2, 64, 87
5, 454, Note_on_c, 2, 55, 0
5, 455, Note_on_c, 2, 60, 0
5, 456, Note_on_c, 2, 64, 0
5, 468, Control_c, 2, 64, 0
5, 480, Note_on_c, 2, 58, 80
5, 480, Note_on_c, 2, 53, 76
5, 480, Note_on_c, 2, 62, 92
5, 498, Note_on_c, 2, 58, 0
5, 498, Note_on_c, 2, 53, 0
5, 499, Note_on_c, 2, 62, 0
5, 500, Control_c, 2, 64, 127
5, 512, Note_on_c, 2, 62, 96
5, 512, Note_on_c, 2, 58, 83
5, 512, Note_on_c, 2, 53, 76
5, 519, Note_on_c, 2, 53, 0
5, 521, Note_on_c, 2, 62, 0
5, 522, Note_on_c, 2, 58, 0
5, 542, Control_c, 2, 64, 0
5, 544, Note_on_c, 2, 57, 76
5, 544, Note_on_c, 2, 60, 92
5, 544, Note_on_c, 2, 65, 87
5, 553, Note_on_c, 2, 60, 0
5, 555, Note_on_c, 2, 57, 0
5, 555, Note_on_c, 2, 65, 0
5, 573, Control_c, 2, 64, 127
5, 576, Note_on_c, 2, 60, 92
5, 576, Note_on_c, 2, 64, 83
5, 576, Note_on_c, 2, 55, 87
5, 587, Note_on_c, 2, 60, 0
5, 587, Note_on_c, 2, 55, 0
5, 588, Note_on_c, 2, 64, 0
5, 608, Note_on_c, 2, 60, 73
5, 608, Note_on_c, 2, 55, 63
5, 608, Note_on_c, 2, 64, 70
5, 613, Note_on_c, 2, 60, 0
5, 615, Note_on_c, 2, 55, 0
5, 615, Note_on_c, 2, 64, 0
5, 624, Note_on_c, 2, 60, 87
5, 624, Note_on_c, 2, 55, 73
5, 624, Note_on_c, 2, 64, 80
5, 630, Note_on_c, 2, 60, 0
5, 630, Note_on_c, 2, 55, 0
5, 632, Note_on_c, 2, 64, 0
5, 640, Note_on_c, 2, 55, 76
5, 640, Note_on_c, 2, 60, 87
5, 640, Note_on_c, 2, 64, 83
5, 647, Note_on_c, 2, 55, 0
5, 647, Note_on_c, 2, 60, 0
5, 649, Note_on_c, 2, 64, 0
5, 662, Control_c, 2, 64, 0
5, 672, Note_on_c, 2, 58, 73
5, 672, Note_on_c, 2, 53, 83
5, 672, Note_on_c, 2, 62, 87
5, 681, Control_c, 2, 64, 127
5, 685, Note_on_c, 2, 53, 0
5, 686, Note_on_c, 2, 58, 0
5, 686, Note_on_c, 2, 62, 0
5, 704, Note_on_c, 2, 58, 83
5, 704, Note_on_c, 2, 62, 92
5, 704, Note_on_c, 2, 53, 76
5, 712, Note_on_c, 2, 53, 0
5, 714, Note_on_c, 2, 62, 0
5, 715, Note_on_c, 2, 58, 0
5, 726, Control_c, 2, 64, 0
5, 736, Note_on_c, 2, 57, 83
5, 736, Note_on_c, 2, 60, 92
5, 736, Note_on_c, 2, 65, 76
5, 748, Note_on_c, 2, 57, 0
5, 748, Note_on_c, 2, 60, 0
5, 748, Note_on_c, 2, 65, 0
5, 766, Control_c, 2, 64, 127
5, 768, Note_on_c, 2, 55, 83
5, 768, Note_on_c, 2, 60, 87
5, 768, Note_on_c, 2, 64, 80
5, 780, Note_on_c, 2, 55, 0
5, 780, Note_on_c, 2, 60, 0
5, 782, Note_on_c, 2, 64, 0
5, 800, Note_on_c, 2, 55, 60
5, 800, Note_on_c, 2, 64, 70
5, 800, Note_on_c, 2, 60, 80
5, 806, Note_on_c, 2, 55, 0
5, 806, Note_on_c, 2, 60, 0
5, 807, Note_on_c, 2, 64, 0
5, 816, Note_on_c, 2, 60, 87
5, 816, Note_on_c, 2, 55, 73
5, 816, Note_on_c, 2, 64, 76
5, 822, Note_on_c, 2, 60, 0
5, 823, Note_on_c, 2, 55, 0
5, 824, Note_on_c, 2, 64, 0
5, 832, Note_on_c, 2, 55, 76
5, 832, Note_on_c, 2, 60, 83
5, 832, Note_on_c, 2, 64, 83
5, 840, Note_on_c, 2, 55, 0
5, 840, Note_on_c, 2, 60, 0
5, 842, Note_on_c, 2, 64, 0
5, 850, Control_c, 2, 64, 0
5, 864, Note_on_c, 2, 58, 73
5, 864, Note_on_c, 2, 53, 80
5, 864, Note_on_c, 2, 62, 92
5, 873, Control_c, 2, 64, 127
5, 876, Note_on_c, 2, 58, 0
5, 876, Note_on_c, 2, 53, 0
5, 877, Note_on_c, 2, 62, 0
5, 896, Note_on_c, 2, 58, 73
5, 896, Note_on_c, 2, 53, 76
5, 896, Note_on_c, 2, 62, 92
5, 905, Note_on_c, 2, 53, 0
5, 908, Note_on_c, 2, 62, 0
5, 909, Note_on_c, 2, 58, 0
5, 916, Control_c, 2, 64, 0
5, 928, Note_on_c, 2, 57, 63
5, 928, Note_on_c, 2, 60, 87
5, 928, Note_on_c, 2, 65, 87
5, 939, Control_c, 2, 64, 127
5, 942, Note_on_c, 2, 57, 0
5, 942, Note_on_c, 2, 65, 0
5, 943, Note_on_c, 2, 60, 0
5, 952, Control_c, 2, 64, 0
5, 960, Note_on_c, 2, 55, 83
5, 960, Note_on_c, 2, 64, 83
5, 960, Note_on_c, 2, 60, 92
5, 1089, Note_on_c, 2, 55, 0
5, 1098, Note_on_c, 2, 60, 0
5, 1110, Note_on_c, 2, 64, 0
5, 1155, Note_on_c, 2, 48, 60
5, 1155, Control_c, 2, 64, 127
5, 1155, Note_on_c, 2, 60, 73
5, 1156, Note_on_c, 2, 64, 63
5, 1156, Note_on_c, 2, 55, 51
5, 1165, Note_on_c, 2, 60, 0
5, 1166, Note_on_c, 2, 64, 0
5, 1166, Note_on_c, 2, 55, 0
5, 1169, Note_on_c, 2, 48, 0
5, 1184, Note_on_c, 2, 60, 63
5, 1184, Note_on_c, 2, 64, 54
5, 1186, Note_on_c, 2, 55, 37
5, 1190, Note_on_c, 2, 60, 0
5, 1191, Note_on_c, 2, 64, 0
5, 1191, Note_on_c, 2, 55, 0
5, 1202, Note_on_c, 2, 60, 57
5, 1202, Note_on_c, 2, 64, 43
5, 1204, Note_on_c, 2, 55, 44
5, 1208, Note_on_c, 2, 60, 0
5, 1209, Note_on_c, 2, 64, 0
5, 1210, Note_on_c, 2, 55, 0
5, 1216, Note_on_c, 2, 64, 73
5, 1216, Note_on_c, 2, 60, 76
5, 1217, Note_on_c, 2, 55, 52
5, 1225, Note_on_c, 2, 60, 0
5, 1225, Note_on_c, 2, 55, 0
5, 1227, Note_on_c, 2, 64, 0
5, 1244, Control_c, 2, 64, 0
5, 1248, Note_on_c, 2, 62, 76
5, 1250, Note_on_c, 2, 53, 63
5, 1250, Note_on_c, 2, 58, 60
5, 1264, Note_on_c, 2, 62, 0
5, 1264, Note_on_c, 2, 53, 0
5, 1267, Note_on_c, 2, 58, 0
5, 1268, Control_c, 2, 64, 127
5, 1282, Note_on_c, 2, 58, 63
5, 1282, Note_on_c, 2, 62, 73
5, 1282, Note_on_c, 2, 53, 54
5, 1293, Note_on_c, 2, 62, 0
5, 1293, Note_on_c, 2, 53, 0
5, 1296, Note_on_c, 2, 58, 0
5, 1309, Control_c, 2, 64, 0
5, 1312, Note_on_c, 2, 60, 83
5, 1313, Note_on_c, 2, 57, 80
5, 1313, Note_on_c, 2, 53, 73
5, 1339, Note_on_c, 2, 53, 0
5, 1342, Note_on_c, 2, 57, 0
5, 1344, Note_on_c, 2, 60, 0
5, 1346, Note_on_c, 2, 48, 92
5, 1348, Control_c, 2, 64, 127
5, 1380, Note_on_c, 2, 48, 0
5, 1380, Note_on_c, 2, 55, 31
5, 1383, Note_on_c, 2, 55, 0
5, 1394, Note_on_c, 2, 64, 60
5, 1396, Note_on_c, 2, 55, 48
5, 1396, Note_on_c, 2, 60, 60
5, 1400, Note_on_c, 2, 60, 0
5, 1402, Note_on_c, 2, 64, 0
5, 1402, Note_on_c, 2, 55, 0
5, 1409, Note_on_c, 2, 64, 60
5, 1409, Note_on_c, 2, 60, 70
5, 1409, Note_on_c, 2, 55, 51
5, 1417, Note_on_c, 2, 60, 0
5, 1418, Note_on_c, 2, 64, 0
5, 1418, Note_on_c, 2, 55, 0
5, 1438, Control_c, 2, 64, 0
5, 1440, Note_on_c, 2, 64, 83
5, 1440, Note_on_c, 2, 60, 87
5, 1441, Note_on_c, 2, 55, 76
5, 1458, Note_on_c, 2, 60, 0
5, 1458, Note_on_c, 2, 55, 0
5, 1459, Note_on_c, 2, 64, 0
5, 1471, Control_c, 2, 64, 127
5, 1472, Note_on_c, 2, 60, 73
5, 1472, Note_on_c, 2, 55, 63
5, 1472, Note_on_c, 2, 64, 63
5, 1481, Note_on_c, 2, 60, 0
5, 1481, Note_on_c, 2, 55, 0
5, 1482, Note_on_c, 2, 64, 0
5, 1504, Note_on_c, 2, 64, 63
5, 1504, Note_on_c, 2, 60, 66
5, 1505, Note_on_c, 2, 55, 48
5, 1513, Note_on_c, 2, 60, 0
5, 1514, Note_on_c, 2, 64, 0
5, 1514, Note_on_c, 2, 55, 0
5, 1525, Control_c, 2, 64, 0
5, 1534, Note_on_c, 2, 62, 80
5, 1534, Note_on_c, 2, 59, 80
5, 1534, Note_on_c, 2, 55, 73
5, 1546, Control_c, 2, 64, 127
5, 1550, Note_on_c, 2, 59, 0
5, 1550, Note_on_c, 2, 55, 0
5, 1551, Note_on_c, 2, 62, 0
5, 1565, Note_on_c, 2, 59, 57
5, 1565, Note_on_c, 2, 62, 60
5, 1566, Note_on_c, 2, 55, 40
5, 1572, Note_on_c, 2, 55, 0
5, 1573, Note_on_c, 2, 59, 0
5, 1573, Note_on_c, 2, 62, 0
5, 1584, Note_on_c, 2, 59, 57
5, 1585, Note_on_c, 2, 62, 51
5, 1586, Note_on_c, 2, 55, 37
5, 1590, Note_on_c, 2, 59, 0
5, 1591, Note_on_c, 2, 62, 0
5, 1591, Note_on_c, 2, 55, 0
5, 1596, Note_on_c, 2, 62, 66
5, 1597, Note_on_c, 2, 59, 73
5, 1598, Note_on_c, 2, 55, 54
5, 1607, Note_on_c, 2, 55, 0
5, 1608, Note_on_c, 2, 62, 0
5, 1608, Note_on_c, 2, 59, 0
5, 1625, Control_c, 2, 64, 0
5, 1632, Note_on_c, 2, 60, 80
5, 1632, Note_on_c, 2, 57, 76
5, 1632, Note_on_c, 2, 53, 76
5, 1642, Note_on_c, 2, 57, 0
5, 1642, Note_on_c, 2, 53, 0
5, 1644, Note_on_c, 2, 60, 0
5, 1665, Note_on_c, 2, 57, 76
5, 1665, Note_on_c, 2, 60, 73
5, 1665, Note_on_c, 2, 53, 60
5, 1670, Control_c, 2, 64, 127
5, 1682, Note_on_c, 2, 57, 0
5, 1682, Note_on_c, 2, 53, 0
5, 1683, Note_on_c, 2, 60, 0
5, 1696, Note_on_c, 2, 60, 76
5, 1696, Note_on_c, 2, 57, 73
5, 1696, Note_on_c, 2, 53, 63
5, 1704, Note_on_c, 2, 53, 0
5, 1705, Note_on_c, 2, 57, 0
5, 1707, Note_on_c, 2, 60, 0
5, 1718, Control_c, 2, 64, 0
5, 1729, Note_on_c, 2, 59, 80
5, 1729, Note_on_c, 2, 62, 80
5, 1729, Note_on_c, 2, 55, 70
5, 1739, Control_c, 2, 64, 127
5, 1742, Note_on_c, 2, 59, 0
5, 1743, Note_on_c, 2, 55, 0
5, 1744, Note_on_c, 2, 62, 0
5, 1760, Note_on_c, 2, 59, 66
5, 1760, Note_on_c, 2, 62, 63
5, 1761, Note_on_c, 2, 55, 47
5, 1768, Note_on_c, 2, 59, 0
5, 1768, Note_on_c, 2, 62, 0
5, 1769, Note_on_c, 2, 55, 0
5, 1778, Note_on_c, 2, 62, 70
5, 1778, Note_on_c, 2, 59, 70
5, 1779, Note_on_c, 2, 55, 48
5, 1787, Note_on_c, 2, 59, 0
5, 1787, Note_on_c, 2, 55, 0
5, 1788, Note_on_c, 2, 62, 0
5, 1792, Note_on_c, 2, 62, 47
5, 1793, Note_on_c, 2, 59, 66
5, 1794, Note_on_c, 2, 55, 50
5, 1804, Note_on_c, 2, 59, 0
5, 1804, Note_on_c, 2, 55, 0
5, 1806, Note_on_c, 2, 62, 0
5, 1818, Control_c, 2, 64, 0
5, 1824, Note_on_c, 2, 62, 83
5, 1824, Note_on_c, 2, 59, 83
5, 1825, Note_on_c, 2, 55, 73
5, 1834, Note_on_c, 2, 59, 0
5, 1834, Note_on_c, 2, 55, 0
5, 1836, Note_on_c, 2, 62, 0
5, 1856, Note_on_c, 2, 62, 76
5, 1856, Note_on_c, 2, 59, 73
5, 1857, Note_on_c, 2, 55, 52
5, 1864, Note_on_c, 2, 59, 0
5, 1864, Note_on_c, 2, 55, 0
5, 1866, Note_on_c, 2, 62, 0
5, 1884, Control_c, 2, 64, 127
5, 1885, Note_on_c, 2, 62, 76
5, 1886, Note_on_c, 2, 59, 63
5, 1886, Note_on_c, 2, 55, 47
5, 1892, Note_on_c, 2, 59, 0
5, 1892, Note_on_c, 2, 55, 0
5, 1896, Note_on_c, 2, 62, 0
5, 1917, Control_c, 2, 64, 0
5, 1918, Note_on_c, 2, 62, 57
5, 1918, Note_on_c, 2, 67, 63
5, 1918, Note_on_c, 2, 65, 63
5, 1920, Note_on_c, 2, 59, 37
5, 1928, Note_on_c, 2, 62, 0
5, 1928, Note_on_c, 2, 67, 0
5, 1928, Note_on_c, 2, 65, 0
5, 1928, Note_on_c, 2, 59, 0
5, 1936, Control_c, 2, 64, 127
5, 1949, Note_on_c, 2, 62, 73
5, 1950, Note_on_c, 2, 67, 66
5, 1950, Note_on_c, 2, 59, 48
5, 1957, Note_on_c, 2, 62, 0
5, 1957, Note_on_c, 2, 59, 0
5, 1959, Note_on_c, 2, 67, 0
5, 1965, Note_on_c, 2, 67, 63
5, 1965, Note_on_c, 2, 62, 66
5, 1966, Note_on_c, 2, 59, 54
5, 1974, Note_on_c, 2, 62, 0
5, 1974, Note_on_c, 2, 59, 0
5, 1976, Note_on_c, 2, 67, 0
5, 1981, Note_on_c, 2, 67, 76
5, 1981, Note_on_c, 2, 62, 80
5, 1982, Note_on_c, 2, 59, 60
5, 1990, Note_on_c, 2, 59, 0
5, 1992, Note_on_c, 2, 62, 0
5, 1994, Note_on_c, 2, 67, 0
5, 2014, Control_c, 2, 64, 0
5, 2015, Note_on_c, 2, 65, 73
5, 2016, Note_on_c, 2, 57, 70
5, 2016, Note_on_c, 2, 60, 73
5, 2024, Note_on_c, 2, 60, 0
5, 2025, Note_on_c, 2, 57, 0
5, 2027, Note_on_c, 2, 65, 0
5, 2047, Note_on_c, 2, 65, 76
5, 2047, Note_on_c, 2, 60, 80
5, 2047, Note_on_c, 2, 57, 73
5, 2052, Control_c, 2, 64, 127
5, 2064, Note_on_c, 2, 57, 0
5, 2065, Note_on_c, 2, 60, 0
5, 2066, Note_on_c, 2, 65, 0
5, 2078, Note_on_c, 2, 65, 66
5, 2078, Note_on_c, 2, 60, 70
5, 2078, Note_on_c, 2, 57, 52
5, 2088, Note_on_c, 2, 57, 0
5, 2090, Note_on_c, 2, 60, 0
5, 2094, Note_on_c, 2, 65, 0
5, 2103, Control_c, 2, 64, 0
5, 2110, Note_on_c, 2, 62, 70
5, 2111, Note_on_c, 2, 67, 73
5, 2111, Note_on_c, 2, 59, 52
5, 2126, Control_c, 2, 64, 127
5, 2128, Note_on_c, 2, 62, 0
5, 2128, Note_on_c, 2, 59, 0
5, 2130, Note_on_c, 2, 67, 0
5, 2142, Note_on_c, 2, 62, 60
5, 2143, Note_on_c, 2, 59, 48
5, 2143, Note_on_c, 2, 67, 54
5, 2150, Note_on_c, 2, 62, 0
5, 2150, Note_on_c, 2, 67, 0
5, 2151, Note_on_c, 2, 59, 0
5, 2160, Note_on_c, 2, 67, 52
5, 2160, Note_on_c, 2, 62, 63
5, 2161, Note_on_c, 2, 59, 47
5, 2167, Note_on_c, 2, 62, 0
5, 2168, Note_on_c, 2, 67, 0
5, 2168, Note_on_c, 2, 59, 0
5, 2175, Note_on_c, 2, 62, 66
5, 2175, Note_on_c, 2, 67, 60
5, 2176, Note_on_c, 2, 59, 48
5, 2182, Note_on_c, 2, 59, 0
5, 2183, Note_on_c, 2, 62, 0
5, 2185, Note_on_c, 2, 67, 0
5, 2204, Control_c, 2, 64, 0
5, 2206, Note_on_c, 2, 67, 80
5, 2207, Note_on_c, 2, 62, 80
5, 2207, Note_on_c, 2, 59, 73
5, 2217, Note_on_c, 2, 62, 0
5, 2218, Note_on_c, 2, 59, 0
5, 2220, Note_on_c, 2, 67, 0
5, 2235, Control_c, 2, 64, 127
5, 2239, Note_on_c, 2, 67, 73
5, 2239, Note_on_c, 2, 59, 66
5, 2239, Note_on_c, 2, 62, 76
5, 2246, Note_on_c, 2, 62, 0
5, 2248, Note_on_c, 2, 59, 0
5, 2249, Note_on_c, 2, 67, 0
5, 2270, Note_on_c, 2, 67, 70
5, 2271, Note_on_c, 2, 59, 52
5, 2271, Note_on_c, 2, 62, 60
5, 2278, Note_on_c, 2, 59, 0
5, 2278, Note_on_c, 2, 62, 0
5, 2281, Note_on_c, 2, 67, 0
5, 2297, Control_c, 2, 64, 0
5, 2301, Note_on_c, 2, 48, 73
5, 2302, Note_on_c, 2, 64, 76
5, 2303, Note_on_c, 2, 60, 70
5, 2316, Note_on_c, 2, 64, 0
5, 2316, Note_on_c, 2, 60, 0
5, 2319, Control_c, 2, 64, 127
5, 2334, Note_on_c, 2, 64, 57
5, 2335, Note_on_c, 2, 60, 51
5, 2342, Note_on_c, 2, 64, 0
5, 2343, Note_on_c, 2, 60, 0
5, 2346, Note_on_c, 2, 48, 0
5, 2354, Note_on_c, 2, 64, 70
5, 2354, Note_on_c, 2, 60, 57
5, 2359, Note_on_c, 2, 64, 0
5, 2361, Note_on_c, 2, 60, 0
5, 2367, Note_on_c, 2, 60, 66
5, 2367, Note_on_c, 2, 64, 87
5, 2374, Note_on_c, 2, 64, 0
5, 2376, Note_on_c, 2, 60, 0
5, 2398, Control_c, 2, 64, 0
5, 2402, Note_on_c, 2, 62, 83
5, 2402, Note_on_c, 2, 53, 73
5, 2402, Note_on_c, 2, 58, 70
5, 2410, Note_on_c, 2, 53, 0
5, 2411, Note_on_c, 2, 62, 0
5, 2412, Note_on_c, 2, 58, 0
5, 2433, Note_on_c, 2, 58, 73
5, 2433, Note_on_c, 2, 62, 87
5, 2433, Note_on_c, 2, 53, 80
5, 2434, Control_c, 2, 64, 127
5, 2446, Note_on_c, 2, 62, 0
5, 2448, Note_on_c, 2, 53, 0
5, 2451, Note_on_c, 2, 58, 0
5, 2466, Note_on_c, 2, 60, 83
5, 2466, Note_on_c, 2, 57, 83
5, 2466, Note_on_c, 2, 53, 76
5, 2488, Note_on_c, 2, 53, 0
5, 2490, Note_on_c, 2, 57, 0
5, 2492, Note_on_c, 2, 60, 0
5, 2492, Control_c, 2, 64, 0
5, 2498, Note_on_c, 2, 48, 80
5, 2522, Control_c, 2, 64, 127
5, 2529, Note_on_c, 2, 60, 70
5, 2560, Note_on_c, 2, 55, 76
5, 2564, Note_on_c, 2, 60, 0
5, 2587, Note_on_c, 2, 55, 0
5, 2592, Note_on_c, 2, 64, 83
5, 2592, Note_on_c, 2, 60, 73
5, 2602, Note_on_c, 2, 64, 0
5, 2602, Note_on_c, 2, 60, 0
5, 2620, Note_on_c, 2, 48, 0
5, 2624, Note_on_c, 2, 64, 76
5, 2624, Note_on_c, 2, 60, 63
5, 2631, Note_on_c, 2, 64, 0
5, 2632, Note_on_c, 2, 60, 0
5, 2641, Note_on_c, 2, 64, 80
5, 2641, Note_on_c, 2, 60, 63
5, 2647, Control_c, 2, 64, 0
5, 2648, Note_on_c, 2, 64, 0
5, 2650, Note_on_c, 2, 60, 0
5, 2658, Note_on_c, 2, 60, 66
5, 2658, Note_on_c, 2, 64, 73
5, 2668, Note_on_c, 2, 60, 0
5, 2668, Note_on_c, 2, 64, 0
5, 2691, Note_on_c, 2, 48, 60
5, 2691, Control_c, 2, 64, 127
5, 2691, Note_on_c, 2, 60, 73
5, 2692, Note_on_c, 2, 64, 63
5, 2692, Note_on_c, 2, 55, 51
5, 2701, Note_on_c, 2, 60, 0
5, 2702, Note_on_c, 2, 64, 0
5, 2702, Note_on_c, 2, 55, 0
5, 2705, Note_on_c, 2, 48, 0
5, 2720, Note_on_c, 2, 60, 63
5, 2720, Note_on_c, 2, 64, 54
5, 2722, Note_on_c, 2, 55, 37
5, 2726, Note_on_c, 2, 60, 0
5, 2727, Note_on_c, 2, 64, 0
5, 2727, Note_on_c, 2, 55, 0
5, 2738, Note_on_c, 2, 60, 57
5, 2738, Note_on_c, 2, 64, 43
5, 2740, Note_on_c, 2, 55, 44
5, 2744, Note_on_c, 2, 60, 0
5, 2745, Note_on_c, 2, 64, 0
5, 2746, Note_on_c, 2, 55, 0
5, 2752, Note_on_c, 2, 64, 73
5, 2752, Note_on_c, 2, 60, 76
5, 2753, Note_on_c, 2, 55, 52
5, 2761, Note_on_c, 2, 60, 0
5, 2761, Note_on_c, 2, 55, 0
5, 2763, Note_on_c, 2, 64, 0
5, 2780, Control_c, 2, 64, 0
5, 2784, Note_on_c, 2, 62, 76
5, 2786, Note_on_c, 2, 53, 63
5, 2786, Note_on_c, 2, 58, 60
5, 2800, Note_on_c, 2, 62, 0
5, 2800, Note_on_c, 2, 53, 0
5, 2803, Note_on_c, 2, 58, 0
5, 2804, Control_c, 2, 64, 127
5, 2818, Note_on_c, 2, 58, 63
5, 2818, Note_on_c, 2, 62, 73
5, 2818, Note_on_c, 2, 53, 54
5, 2829, Note_on_c, 2, 62, 0
5, 2829, Note_on_c, 2, 53, 0
5, 2832, Note_on_c, 2, 58, 0
5, 2845, Control_c, 2, 64, 0
5, 2848, Note_on_c, 2, 60, 83
5, 2849, Note_on_c, 2, 57, 80
5, 2849, Note_on_c, 2, 53, 73
5, 2875, Note_on_c, 2, 53, 0
5, 2878, Note_on_c, 2, 57, 0
5, 2880, Note_on_c, 2, 60, 0
5, 2882, Note_on_c, 2, 48, 92
5, 2884, Control_c, 2, 64, 127
5, 2916, Note_on_c, 2, 48, 0
5, 2916, Note_on_c, 2, 55, 31
5, 2919, Note_on_c, 2, 55, 0
5, 2930, Note_on_c, 2, 64, 60
5, 2932, Note_on_c, 2, 55, 48
5, 2932, Note_on_c, 2, 60, 60
5, 2936, Note_on_c, 2, 60, 0
5, 2938, Note_on_c, 2, 64, 0
5, 2938, Note_on_c, 2, 55, 0
5, 2945, Note_on_c, 2, 64, 60
5, 2945, Note_on_c, 2, 60, 70
5, 2945, Note_on_c, 2, 55, 51
5, 2953, Note_on_c, 2, 60, 0
5, 2954, Note_on_c, 2, 64, 0
5, 2954, Note_on_c, 2, 55, 0
5, 2974, Control_c, 2, 64, 0
5, 2976, Note_on_c, 2, 64, 83
5, 2976, Note_on_c, 2, 60, 87
5, 2977, Note_on_c, 2, 55, 76
5, 2994, Note_on_c, 2, 60, 0
5, 2994, Note_on_c, 2, 55, 0
5, 2995, Note_on_c, 2, 64, 0
5, 3007, Control_c, 2, 64, 127
5, 3008, Note_on_c, 2, 60, 73
5, 3008, Note_on_c, 2, 55, 63
5, 3008, Note_on_c, 2, 64, 63
5, 3017, Note_on_c, 2, 60, 0
5, 3017, Note_on_c, 2, 55, 0
5, 3018, Note_on_c, 2, 64, 0
5, 3040, Note_on_c, 2, 64, 63
5, 3040, Note_on_c, 2, 60, 66
5, 3041, Note_on_c, 2, 55, 48
5, 3049, Note_on_c, 2, 60, 0
5, 3050, Note_on_c, 2, 64, 0
5, 3050, Note_on_c, 2, 55, 0
5, 3061, Control_c, 2, 64, 0
5, 3070, Note_on_c, 2, 62, 80
5, 3070, Note_on_c, 2, 59, 80
5, 3070, Note_on_c, 2, 55, 73
5, 3082, Control_c, 2, 64, 127
5, 3086, Note_on_c, 2, 59, 0
5, 3086, Note_on_c, 2, 55, 0
5, 3087, Note_on_c, 2, 62, 0
5, 3101, Note_on_c, 2, 59, 57
5, 3101, Note_on_c, 2, 62, 60
5, 3102, Note_on_c, 2, 55, 40
5, 3108, Note_on_c, 2, 55, 0
5, 3109, Note_on_c, 2, 59, 0
5, 3109, Note_on_c, 2, 62, 0
5, 3120, Note_on_c, 2, 59, 57
5, 3121, Note_on_c, 2, 62, 51
5, 3122, Note_on_c, 2, 55, 37
5, 3126, Note_on_c, 2, 59, 0
5, 3127, Note_on_c, 2, 62, 0
5, 3127, Note_on_c, 2, 55, 0
5, 3132, Note_on_c, 2, 62, 66
5, 3133, Note_on_c, 2, 59, 73
5, 3134, Note_on_c, 2, 55, 54
5, 3143, Note_on_c, 2, 55, 0
5, 3144, Note_on_c, 2, 62, 0
5, 3144, Note_on_c, 2, 59, 0
5, 3161, Control_c, 2, 64, 0
5, 3168, Note_on_c, 2, 60, 80
5, 3168, Note_on_c, 2, 57, 76
5, 3168, Note_on_c, 2, 53, 76
5, 3178, Note_on_c, 2, 57, 0
5, 3178, Note_on_c, 2, 53, 0
5, 3180, Note_on_c, 2, 60, 0
5, 3201, Note_on_c, 2, 57, 76
5, 3201, Note_on_c, 2, 60, 73
5, 3201, Note_on_c, 2, 53, 60
5, 3206, Control_c, 2, 64, 127
5, 3218, Note_on_c, 2, 57, 0
5, 3218, Note_on_c, 2, 53, 0
5, 3219, Note_on_c, 2, 60, 0
5, 3232, Note_on_c, 2, 60, 76
5, 3232, Note_on_c, 2, 57, 73
5, 3232, Note_on_c, 2, 53, 63
5, 3240, Note_on_c, 2, 53, 0
5, 3241, Note_on_c, 2, 57, 0
5, 3243, Note_on_c, 2, 60, 0
5, 3254, Control_c, 2, 64, 0
5, 3265, Note_on_c, 2, 59, 80
5, 3265, Note_on_c, 2, 62, 80
5, 3265, Note_on_c, 2, 55, 70
5, 3275, Control_c, 2, 64, 127
5, 3278, Note_on_c, 2, 59, 0
5, 3279, Note_on_c, 2, 55, 0
5, 3280, Note_on_c, 2, 62, 0
5, 3296, Note_on_c, 2, 59, 66
5, 3296, Note_on_c, 2, 62, 63
5, 3297, Note_on_c, 2, 55, 47
5, 3304, Note_on_c, 2, 59, 0
5, 3304, Note_on_c, 2, 62, 0
5, 3305, Note_on_c, 2, 55, 0
5, 3314, Note_on_c, 2, 62, 70
5, 3314, Note_on_c, 2, 59, 70
5, 3315, Note_on_c, 2, 55, 48
5, 3323, Note_on_c, 2, 59, 0
5, 3323, Note_on_c, 2, 55, 0
5, 3324, Note_on_c, 2, 62, 0
5, 3328, Note_on_c, 2, 62, 47
5, 3329, Note_on_c, 2, 59, 66
5, 3330, Note_on_c, 2, 55, 50
5, 3340, Note_on_c, 2, 59, 0
5, 3340, Note_on_c, 2, 55, 0
5, 3342, Note_on_c, 2, 62, 0
5, 3354, Control_c, 2, 64, 0
5, 3360, Note_on_c, 2, 62, 83
5, 3360, Note_on_c, 2, 59, 83
5, 3361, Note_on_c, 2, 55, 73
5, 3370, Note_on_c, 2, 59, 0
5, 3370, Note_on_c, 2, 55, 0
5, 3372, Note_on_c, 2, 62, 0
5, 3392, Note_on_c, 2, 62, 76
5, 3392, Note_on_c, 2, 59, 73
5, 3393, Note_on_c, 2, 55, 52
5, 3400, Note_on_c, 2, 59, 0
5, 3400, Note_on_c, 2, 55, 0
5, 3402, Note_on_c, 2, 62, 0
5, 3420, Control_c, 2, 64, 127
5, 3421, Note_on_c, 2, 62, 76
5, 3422, Note_on_c, 2, 59, 63
5, 3422, Note_on_c, 2, 55, 47
5, 3428, Note_on_c, 2, 59, 0
5, 3428, Note_on_c, 2, 55, 0
5, 3432, Note_on_c, 2, 62, 0
5, 3453, Control_c, 2, 64, 0
5, 3454, Note_on_c, 2, 62, 57
5, 3454, Note_on_c, 2, 67, 63
5, 3454, Note_on_c, 2, 65, 63
5, 3456, Note_on_c, 2, 59, 37
5, 3464, Note_on_c, 2, 62, 0
5, 3464, Note_on_c, 2, 67, 0
5, 3464, Note_on_c, 2, 65, 0
5, 3464, Note_on_c, 2, 59, 0
5, 3472, Control_c, 2, 64, 127
5, 3485, Note_on_c, 2, 62, 73
5, 3486, Note_on_c, 2, 67, 66
5, 3486, Note_on_c, 2, 59, 48
5, 3493, Note_on_c, 2, 62, 0
5, 3493, Note_on_c, 2, 59, 0
5, 3495, Note_on_c, 2, 67, 0
5, 3501, Note_on_c, 2, 67, 63
5, 3501, Note_on_c, 2, 62, 66
5, 3502, Note_on_c, 2, 59, 54
5, 3510, Note_on_c, 2, 62, 0
5, 3510, Note_on_c, 2, 59, 0
5, 3512, Note_on_c, 2, 67, 0
5, 3517, Note_on_c, 2, 67, 76
5, 3517, Note_on_c, 2, 62, 80
5, 3518, Note_on_c, 2, 59, 60
5, 3526, Note_on_c, 2, 59, 0
5, 3528, Note_on_c, 2, 62, 0
5, 3530, Note_on_c, 2, 67, 0
5, 3550, Control_c, 2, 64, 0
5, 3551, Note_on_c, 2, 65, 73
5, 3552, Note_on_c, 2, 57, 70
5, 3552, Note_on_c, 2, 60, 73
5, 3560, Note_on_c, 2, 60, 0
5, 3561, Note_on_c, 2, 57, 0
5, 3563, Note_on_c, 2, 65, 0
5, 3583, Note_on_c, 2, 65, 76
5, 3583, Note_on_c, 2, 60, 80
5, 3583, Note_on_c, 2, 57, 73
5, 3588, Control_c, 2, 64, 127
5, 3600, Note_on_c, 2, 57, 0
5, 3601, Note_on_c, 2, 60, 0
5, 3602, Note_on_c, 2, 65, 0
5, 3614, Note_on_c, 2, 65, 66
5, 3614, Note_on_c, 2, 60, 70
5, 3614, Note_on_c, 2, 57, 52
5, 3624, Note_on_c, 2, 57, 0
5, 3626, Note_on_c, 2, 60, 0
5, 3630, Note_on_c, 2, 65, 0
5, 3639, Control_c, 2, 64, 0
5, 3646, Note_on_c, 2, 62, 70
5, 3647, Note_on_c, 2, 67, 73
5, 3647, Note_on_c, 2, 59, 52
5, 3662, Control_c, 2, 64, 127
5, 3664, Note_on_c, 2, 62, 0
5, 3664, Note_on_c, 2, 59, 0
5, 3666, Note_on_c, 2, 67, 0
5, 3678, Note_on_c, 2, 62, 60
5, 3679, Note_on_c, 2, 59, 48
5, 3679, Note_on_c, 2, 67, 54
5, 3686, Note_on_c, 2, 62, 0
5, 3686, Note_on_c, 2, 67, 0
5, 3687, Note_on_c, 2, 59, 0
5, 3696, Note_on_c, 2, 67, 52
5, 3696, Note_on_c, 2, 62, 63
5, 3697, Note_on_c, 2, 59, 47
5, 3703, Note_on_c, 2, 62, 0
5, 3704, Note_on_c, 2, 67, 0
5, 3704, Note_on_c, 2, 59, 0
5, 3711, Note_on_c, 2, 62, 66
5, 3711, Note_on_c, 2, 67, 60
5, 3712, Note_on_c, 2, 59, 48
5, 3718, Note_on_c, 2, 59, 0
5, 3719, Note_on_c, 2, 62, 0
5, 3721, Note_on_c, 2, 67, 0
5, 3740, Control_c, 2, 64, 0
5, 3742, Note_on_c, 2, 67, 80
5, 3743, Note_on_c, 2, 62, 80
5, 3743, Note_on_c, 2, 59, 73
5, 3753, Note_on_c, 2, 62, 0
5, 3754, Note_on_c, 2, 59, 0
5, 3756, Note_on_c, 2, 67, 0
5, 3771, Control_c, 2, 64, 127
5, 3775, Note_on_c, 2, 67, 73
5, 3775, Note_on_c, 2, 59, 66
5, 3775, Note_on_c, 2, 62, 76
5, 3782, Note_on_c, 2, 62, 0
5, 3784, Note_on_c, 2, 59, 0
5, 3785, Note_on_c, 2, 67, 0
5, 3806, Note_on_c, 2, 67, 70
5, 3807, Note_on_c, 2, 59, 52
5, 3807, Note_on_c, 2, 62, 60
5, 3814, Note_on_c, 2, 59, 0
5, 3814, Note_on_c, 2, 62, 0
5, 3817, Note_on_c, 2, 67, 0
5, 3833, Control_c, 2, 64, 0
5, 3837, Note_on_c, 2, 48, 73
5, 3838, Note_on_c, 2, 64, 76
5, 3839, Note_on_c, 2, 60, 70
5, 3852, Note_on_c, 2, 64, 0
5, 3852, Note_on_c, 2, 60, 0
5, 3855, Control_c, 2, 64, 127
5, 3870, Note_on_c, 2, 64, 57
5, 3871, Note_on_c, 2, 60, 51
5, 3878, Note_on_c, 2, 64, 0
5, 3879, Note_on_c, 2, 60, 0
5, 3882, Note_on_c, 2, 48, 0
5, 3890, Note_on_c, 2, 64, 70
5, 3890, Note_on_c, 2, 60, 57
5, 3895, Note_on_c, 2, 64, 0
5, 3897, Note_on_c, 2, 60, 0
5, 3903, Note_on_c, 2, 60, 66
5, 3903, Note_on_c, 2, 64, 87
5, 3910, Note_on_c, 2, 64, 0
5, 3912, Note_on_c, 2, 60, 0
5, 3934, Control_c, 2, 64, 0
5, 3938, Note_on_c, 2, 62, 83
5, 3938, Note_on_c, 2, 53, 73
5, 3938, Note_on_c, 2, 58, 70
5, 3946, Note_on_c, 2, 53, 0
5, 3947, Note_on_c, 2, 62, 0
5, 3948, Note_on_c, 2, 58, 0
5, 3969, Note_on_c, 2, 58, 73
5, 3969, Note_on_c, 2, 62, 87
5, 3969, Note_on_c, 2, 53, 80
5, 3970, Control_c, 2, 64, 127
5, 3982, Note_on_c, 2, 62, 0
5, 3984, Note_on_c, 2, 53, 0
5, 3987, Note_on_c, 2, 58, 0
5, 4002, Note_on_c, 2, 60, 83
5, 4002, Note_on_c, 2, 57, 83
5, 4002, Note_on_c, 2, 53, 76
5, 4024, Note_on_c, 2, 53, 0
5, 4026, Note_on_c, 2, 57, 0
5, 4028, Note_on_c, 2, 60, 0
5, 4028, Control_c, 2, 64, 0
5, 4034, Note_on_c, 2, 48, 80
5, 4058, Control_c, 2, 64, 127
5, 4156, Note_on_c, 2, 48, 0
5, 4183, Control_c, 2, 64, 0
5, 4224, Time_signature, 1, 2, 96, 8
5, 4224, Note_on_c, 2, 67, 50
5, 4224, Note_on_c, 2, 64, 48
5, 4224, Note_on_c, 2, 60, 45
5, 4235, Note_on_c, 2, 64, 0
5, 4236, Note_on_c, 2, 60, 0
5, 4237, Note_on_c, 2, 67, 0
5, 4254, Note_on_c, 2, 67, 63
5, 4255, Note_on_c, 2, 64, 54
5, 4255, Note_on_c, 2, 60, 51
5, 4267, Note_on_c, 2, 64, 0
5, 4268, Note_on_c, 2, 60, 0
5, 4269, Note_on_c, 2, 67, 0
5, 4285, Note_on_c, 2, 67, 76
5, 4286, Note_on_c, 2, 64, 70
5, 4286, Note_on_c, 2, 60, 66
5, 4297, Note_on_c, 2, 64, 0
5, 4297, Note_on_c, 2, 60, 0
5, 4300, Note_on_c, 2, 67, 0
5, 4320, Time_signature, 4, 2, 96, 8
5, 4416, Note_on_c, 2, 67, 76
5, 4416, Note_on_c, 2, 64, 73
5, 4417, Note_on_c, 2, 60, 70
5, 4426, Note_on_c, 2, 64, 0
5, 4426, Note_on_c, 2, 60, 0
5, 4428, Note_on_c, 2, 67, 0
5, 4607, Note_on_c, 2, 67, 83
5, 4607, Note_on_c, 2, 64, 87
5, 4608, Note_on_c, 2, 60, 73
5, 4617, Note_on_c, 2, 64, 0
5, 4617, Note_on_c, 2, 60, 0
5, 4621, Note_on_c, 2, 67, 0
5, 4800, Note_on_c, 2, 62, 87
5, 4800, Note_on_c, 2, 67, 76
5, 4801, Note_on_c, 2, 59, 76
5, 4810, Note_on_c, 2, 59, 0
5, 4811, Note_on_c, 2, 62, 0
5, 4814, Note_on_c, 2, 67, 0
5, 4991, Note_on_c, 2, 62, 87
5, 4991, Note_on_c, 2, 67, 80
5, 4991, Note_on_c, 2, 59, 73
5, 5001, Note_on_c, 2, 59, 0
5, 5002, Note_on_c, 2, 62, 0
5, 5004, Note_on_c, 2, 67, 0
5, 5184, Note_on_c, 2, 62, 80
5, 5184, Note_on_c, 2, 67, 80
5, 5185, Note_on_c, 2, 59, 63
5, 5196, Note_on_c, 2, 62, 0
5, 5196, Note_on_c, 2, 59, 0
5, 5198, Note_on_c, 2, 67, 0
5, 5376, Note_on_c, 2, 62, 83
5, 5377, Note_on_c, 2, 67, 80
5, 5377, Note_on_c, 2, 59, 73
5, 5387, Note_on_c, 2, 59, 0
5, 5388, Note_on_c, 2, 62, 0
5, 5390, Note_on_c, 2, 67, 0
5, 5569, Note_on_c, 2, 67, 83
5, 5570, Note_on_c, 2, 64, 80
5, 5570, Note_on_c, 2, 60, 76
5, 5580, Note_on_c, 2, 64, 0
5, 5580, Note_on_c, 2, 60, 0
5, 5583, Note_on_c, 2, 67, 0
5, 5760, Note_on_c, 2, 67, 80
5, 5760, Note_on_c, 2, 64, 83
5, 5761, Note_on_c, 2, 60, 73
5, 5771, Note_on_c, 2, 64, 0
5, 5771, Note_on_c, 2, 60, 0
5, 5774, Note_on_c, 2, 67, 0
5, 5952, Note_on_c, 2, 67, 76
5, 5952, Note_on_c, 2, 64, 73
5, 5953, Note_on_c, 2, 60, 70
5, 5962, Note_on_c, 2, 64, 0
5, 5962, Note_on_c, 2, 60, 0
5, 5964, Note_on_c, 2, 67, 0
5, 6143, Note_on_c, 2, 67, 83
5, 6143, Note_on_c, 2, 64, 87
5, 6144, Note_on_c, 2, 60, 73
5, 6153, Note_on_c, 2, 64, 0
5, 6153, Note_on_c, 2, 60, 0
5, 6157, Note_on_c, 2, 67, 0
5, 6336, Note_on_c, 2, 62, 87
5, 6336, Note_on_c, 2, 67, 76
5, 6337, Note_on_c, 2, 59, 76
5, 6346, Note_on_c, 2, 59, 0
5, 6347, Note_on_c, 2, 62, 0
5, 6350, Note_on_c, 2, 67, 0
5, 6527, Note_on_c, 2, 62, 87
5, 6527, Note_on_c, 2, 67, 80
5, 6527, Note_on_c, 2, 59, 73
5, 6537, Note_on_c, 2, 59, 0
5, 6538, Note_on_c, 2, 62, 0
5, 6540, Note_on_c, 2, 67, 0
5, 6720, Note_on_c, 2, 62, 80
5, 6720, Note_on_c, 2, 67, 80
5, 6721, Note_on_c, 2, 59, 63
5, 6732, Note_on_c, 2, 62, 0
5, 6732, Note_on_c, 2, 59, 0
5, 6734, Note_on_c, 2, 67, 0
5, 6912, Note_on_c, 2, 62, 83
5, 6913, Note_on_c, 2, 67, 80
5, 6913, Note_on_c, 2, 59, 73
5, 6923, Note_on_c, 2, 59, 0
5, 6924, Note_on_c, 2, 62, 0
5, 6926, Note_on_c, 2, 67, 0
5, 7008, Note_on_c, 2, 55, 76
5, 7008, Note_on_c, 2, 64, 83
5, 7008, Note_on_c, 2, 60, 87
5, 7008, Note_on_c, 2, 48, 87
5, 7012, Control_c, 2, 64, 127
5, 7018, Note_on_c, 2, 55, 0
5, 7018, Note_on_c, 2, 60, 0
5, 7019, Note_on_c, 2, 64, 0
5, 7022, Note_on_c, 2, 48, 0
5, 7040, Note_on_c, 2, 55, 63
5, 7040, Note_on_c, 2, 60, 73
5, 7040, Note_on_c, 2, 64, 70
5, 7045, Note_on_c, 2, 60, 0
5, 7046, Note_on_c, 2, 55, 0
5, 7047, Note_on_c, 2, 64, 0
5, 7056, Note_on_c, 2, 55, 60
5, 7056, Note_on_c, 2, 60, 83
5, 7056, Note_on_c, 2, 64, 76
5, 7061, Note_on_c, 2, 60, 0
5, 7062, Note_on_c, 2, 55, 0
5, 7064, Note_on_c, 2, 64, 0
5, 7072, Note_on_c, 2, 55, 76
5, 7072, Note_on_c, 2, 60, 92
5, 7072, Note_on_c, 2, 64, 87
5, 7078, Note_on_c, 2, 55, 0
5, 7079, Note_on_c, 2, 60, 0
5, 7080, Note_on_c, 2, 64, 0
5, 7092, Control_c, 2, 64, 0
5, 7104, Note_on_c, 2, 58, 80
5, 7104, Note_on_c, 2, 53, 76
5, 7104, Note_on_c, 2, 62, 92
5, 7122, Note_on_c, 2, 58, 0
5, 7122, Note_on_c, 2, 53, 0
5, 7123, Note_on_c, 2, 62, 0
5, 7124, Control_c, 2, 64, 127
5, 7136, Note_on_c, 2, 62, 96
5, 7136, Note_on_c, 2, 58, 83
5, 7136, Note_on_c, 2, 53, 76
5, 7143, Note_on_c, 2, 53, 0
5, 7145, Note_on_c, 2, 62, 0
5, 7146, Note_on_c, 2, 58, 0
5, 7166, Control_c, 2, 64, 0
5, 7168, Note_on_c, 2, 57, 76
5, 7168, Note_on_c, 2, 60, 92
5, 7168, Note_on_c, 2, 65, 87
5, 7177, Note_on_c, 2, 60, 0
5, 7179, Note_on_c, 2, 57, 0
5, 7179, Note_on_c, 2, 65, 0
5, 7197, Control_c, 2, 64, 127
5, 7200, Note_on_c, 2, 60, 92
5, 7200, Note_on_c, 2, 64, 83
5, 7200, Note_on_c, 2, 55, 87
5, 7211, Note_on_c, 2, 60, 0
5, 7211, Note_on_c, 2, 55, 0
5, 7212, Note_on_c, 2, 64, 0
5, 7232, Note_on_c, 2, 60, 73
5, 7232, Note_on_c, 2, 55, 63
5, 7232, Note_on_c, 2, 64, 70
5, 7237, Note_on_c, 2, 60, 0
5, 7239, Note_on_c, 2, 55, 0
5, 7239, Note_on_c, 2, 64, 0
5, 7248, Note_on_c, 2, 60, 87
5, 7248, Note_on_c, 2, 55, 73
5, 7248, Note_on_c, 2, 64, 80
5, 7254, Note_on_c, 2, 60, 0
5, 7254, Note_on_c, 2, 55, 0
5, 7256, Note_on_c, 2, 64, 0
5, 7264, Note_on_c, 2, 55, 76
5, 7264, Note_on_c, 2, 60, 87
5, 7264, Note_on_c, 2, 64, 83
5, 7271, Note_on_c, 2, 55, 0
5, 7271, Note_on_c, 2, 60, 0
5, 7273, Note_on_c, 2, 64, 0
5, 7286, Control_c, 2, 64, 0
5, 7296, Note_on_c, 2, 58, 73
5, 7296, Note_on_c, 2, 53, 83
5, 7296, Note_on_c, 2, 62, 87
5, 7305, Control_c, 2, 64, 127
5, 7309, Note_on_c, 2, 53, 0
5, 7310, Note_on_c, 2, 58, 0
5, 7310, Note_on_c, 2, 62, 0
5, 7328, Note_on_c, 2, 58, 83
5, 7328, Note_on_c, 2, 62, 92
5, 7328, Note_on_c, 2, 53, 76
5, 7336, Note_on_c, 2, 53, 0
5, 7338, Note_on_c, 2, 62, 0
5, 7339, Note_on_c, 2, 58, 0
5, 7350, Control_c, 2, 64, 0
5, 7360, Note_on_c, 2, 57, 83
5, 7360, Note_on_c, 2, 60, 92
5, 7360, Note_on_c, 2, 65, 76
5, 7372, Note_on_c, 2, 57, 0
5, 7372, Note_on_c, 2, 60, 0
5, 7372, Note_on_c, 2, 65, 0
5, 7390, Control_c, 2, 64, 127
5, 7392, Note_on_c, 2, 55, 83
5, 7392, Note_on_c, 2, 60, 87
5, 7392, Note_on_c, 2, 64, 80
5, 7404, Note_on_c, 2, 55, 0
5, 7404, Note_on_c, 2, 60, 0
5, 7406, Note_on_c, 2, 64, 0
5, 7424, Note_on_c, 2, 55, 60
5, 7424, Note_on_c, 2, 64, 70
5, 7424, Note_on_c, 2, 60, 80
5, 7430, Note_on_c, 2, 55, 0
5, 7430, Note_on_c, 2, 60, 0
5, 7431, Note_on_c, 2, 64, 0
5, 7440, Note_on_c, 2, 60, 87
5, 7440, Note_on_c, 2, 55, 73
5, 7440, Note_on_c, 2, 64, 76
5, 7446, Note_on_c, 2, 60, 0
5, 7447, Note_on_c, 2, 55, 0
5, 7448, Note_on_c, 2, 64, 0
5, 7456, Note_on_c, 2, 55, 76
5, 7456, Note_on_c, 2, 60, 83
5, 7456, Note_on_c, 2, 64, 83
5, 7464, Note_on_c, 2, 55, 0
5, 7464, Note_on_c, 2, 60, 0
5, 7466, Note_on_c, 2, 64, 0
5, 7474, Control_c, 2, 64, 0
5, 7488, Note_on_c, 2, 58, 73
5, 7488, Note_on_c, 2, 53, 80
5, 7488, Note_on_c, 2, 62, 92
5, 7497, Control_c, 2, 64, 127
5, 7500, Note_on_c, 2, 58, 0
5, 7500, Note_on_c, 2, 53, 0
5, 7501, Note_on_c, 2, 62, 0
5, 7520, Note_on_c, 2, 58, 73
5, 7520, Note_on_c, 2, 53, 76
5, 7520, Note_on_c, 2, 62, 92
5, 7529, Note_on_c, 2, 53, 0
5, 7532, Note_on_c, 2, 62, 0
5, 7533, Note_on_c, 2, 58, 0
5, 7540, Control_c, 2, 64, 0
5, 7552, Note_on_c, 2, 57, 63
5, 7552, Note_on_c, 2, 60, 87
5, 7552, Note_on_c, 2, 65, 87
5, 7563, Control_c, 2, 64, 127
5, 7566, Note_on_c, 2, 57, 0
5, 7566, Note_on_c, 2, 65, 0
5, 7567, Note_on_c, 2, 60, 0
5, 7576, Control_c, 2, 64, 0
5, 7584, Note_on_c, 2, 55, 83
5, 7584, Note_on_c, 2, 64, 83
5, 7584, Note_on_c, 2, 60, 92
5, 7713, Note_on_c, 2, 55, 0
5, 7722, Note_on_c, 2, 60, 0
5, 7734, Note_on_c, 2, 64, 0
5, 7779, Note_on_c, 2, 48, 60
5, 7779, Control_c, 2, 64, 127
5, 7779, Note_on_c, 2, 60, 73
5, 7780, Note_on_c, 2, 64, 63
5, 7780, Note_on_c, 2, 55, 51
5, 7789, Note_on_c, 2, 60, 0
5, 7790, Note_on_c, 2, 64, 0
5, 7790, Note_on_c, 2, 55, 0
5, 7793, Note_on_c, 2, 48, 0
5, 7808, Note_on_c, 2, 60, 63
5, 7808, Note_on_c, 2, 64, 54
5, 7810, Note_on_c, 2, 55, 37
5, 7814, Note_on_c, 2, 60, 0
5, 7815, Note_on_c, 2, 64, 0
5, 7815, Note_on_c, 2, 55, 0
5, 7826, Note_on_c, 2, 60, 57
5, 7826, Note_on_c, 2, 64, 43
5, 7828, Note_on_c, 2, 55, 44
5, 7832, Note_on_c, 2, 60, 0
5, 7833, Note_on_c, 2, 64, 0
5, 7834, Note_on_c, 2, 55, 0
5, 7840, Note_on_c, 2, 64, 73
5, 7840, Note_on_c, 2, 60, 76
5, 7841, Note_on_c, 2, 55, 52
5, 7849, Note_on_c, 2, 60, 0
5, 7849, Note_on_c, 2, 55, 0
5, 7851, Note_on_c, 2, 64, 0
5, 7868, Control_c, 2, 64, 0
5, 7872, Note_on_c, 2, 62, 76
5, 7874, Note_on_c, 2, 53, 63
5, 7874, Note_on_c, 2, 58, 60
5, 7888, Note_on_c, 2, 62, 0
5, 7888, Note_on_c, 2, 53, 0
5, 7891, Note_on_c, 2, 58, 0
5, 7892, Control_c, 2, 64, 127
5, 7906, Note_on_c, 2, 58, 63
5, 7906, Note_on_c, 2, 62, 73
5, 7906, Note_on_c, 2, 53, 54
5, 7917, Note_on_c, 2, 62, 0
5, 7917, Note_on_c, 2, 53, 0
5, 7920, Note_on_c, 2, 58, 0
5, 7933, Control_c, 2, 64, 0
5, 7936, Note_on_c, 2, 60, 83
5, 7937, Note_on_c, 2, 57, 80
5, 7937, Note_on_c, 2, 53, 73
5, 7963, Note_on_c, 2, 53, 0
5, 7966, Note_on_c, 2, 57, 0
5, 7968, Note_on_c, 2, 60, 0
5, 7970, Note_on_c, 2, 48, 92
5, 7972, Control_c, 2, 64, 127
5, 8004, Note_on_c, 2, 48, 0
5, 8004, Note_on_c, 2, 55, 31
5, 8007, Note_on_c, 2, 55, 0
5, 8018, Note_on_c, 2, 64, 60
5, 8020, Note_on_c, 2, 55, 48
5, 8020, Note_on_c, 2, 60, 60
5, 8024, Note_on_c, 2, 60, 0
5, 8026, Note_on_c, 2, 64, 0
5, 8026, Note_on_c, 2, 55, 0
5, 8033, Note_on_c, 2, 64, 60
5, 8033, Note_on_c, 2, 60, 70
5, 8033, Note_on_c, 2, 55, 51
5, 8041, Note_on_c, 2, 60, 0
5, 8042, Note_on_c, 2, 64, 0
5, 8042, Note_on_c, 2, 55, 0
5, 8062, Control_c, 2, 64, 0
5, 8064, Note_on_c, 2, 64, 83
5, 8064, Note_on_c, 2, 60, 87
5, 8065, Note_on_c, 2, 55, 76
5, 8082, Note_on_c, 2, 60, 0
5, 8082, Note_on_c, 2, 55, 0
5, 8083, Note_on_c, 2, 64, 0
5, 8095, Control_c, 2, 64, 127
5, 8096, Note_on_c, 2, 60, 73
5, 8096, Note_on_c, 2, 55, 63
5, 8096, Note_on_c, 2, 64, 63
5, 8105, Note_on_c, 2, 60, 0
5, 8105, Note_on_c, 2, 55, 0
5, 8106, Note_on_c, 2, 64, 0
5, 8128, Note_on_c, 2, 64, 63
5, 8128, Note_on_c, 2, 60, 66
5, 8129, Note_on_c, 2, 55, 48
5, 8137, Note_on_c, 2, 60, 0
5, 8138, Note_on_c, 2, 64, 0
5, 8138, Note_on_c, 2, 55, 0
5, 8149, Control_c, 2, 64, 0
5, 8158, Note_on_c, 2, 62, 80
5, 8158, Note_on_c, 2, 59, 80
5, 8158, Note_on_c, 2, 55, 73
5, 8170, Control_c, 2, 64, 127
5, 8174, Note_on_c, 2, 59, 0
5, 8174, Note_on_c, 2, 55, 0
5, 8175, Note_on_c, 2, 62, 0
5, 8189, Note_on_c, 2, 59, 57
5, 8189, Note_on_c, 2, 62, 60
5, 8190, Note_on_c, 2, 55, 40
5, 8196, Note_on_c, 2, 55, 0
5, 8197, Note_on_c, 2, 59, 0
5, 8197, Note_on_c, 2, 62, 0
5, 8208, Note_on_c, 2, 59, 57
5, 8209, Note_on_c, 2, 62, 51
5, 8210, Note_on_c, 2, 55, 37
5, 8214, Note_on_c, 2, 59, 0
5, 8215, Note_on_c, 2, 62, 0
5, 8215, Note_on_c, 2, 55, 0
5, 8220, Note_on_c, 2, 62, 66
5, 8221, Note_on_c, 2, 59, 73
5, 8222, Note_on_c, 2, 55, 54
5, 8231, Note_on_c, 2, 55, 0
5, 8232, Note_on_c, 2, 62, 0
5, 8232, Note_on_c, 2, 59, 0
5, 8249, Control_c, 2, 64, 0
5, 8256, Note_on_c, 2, 60, 80
5, 8256, Note_on_c, 2, 57, 76
5, 8256, Note_on_c, 2, 53, 76
5, 8266, Note_on_c, 2, 57, 0
5, 8266, Note_on_c, 2, 53, 0
5, 8268, Note_on_c, 2, 60, 0
5, 8289, Note_on_c, 2, 57, 76
5, 8289, Note_on_c, 2, 60, 73
5, 8289, Note_on_c, 2, 53, 60
5, 8294, Control_c, 2, 64, 127
5, 8306, Note_on_c, 2, 57, 0
5, 8306, Note_on_c, 2, 53, 0
5, 8307, Note_on_c, 2, 60, 0
5, 8320, Note_on_c, 2, 60, 76
5, 8320, Note_on_c, 2, 57, 73
5, 8320, Note_on_c, 2, 53, 63
5, 8328, Note_on_c, 2, 53, 0
5, 8329, Note_on_c, 2, 57, 0
5, 8331, Note_on_c, 2, 60, 0
5, 8342, Control_c, 2, 64, 0
5, 8353, Note_on_c, 2, 59, 80
5, 8353, Note_on_c, 2, 62, 80
5, 8353, Note_on_c, 2, 55, 70
5, 8363, Control_c, 2, 64, 127
5, 8366, Note_on_c, 2, 59, 0
5, 8367, Note_on_c, 2, 55, 0
5, 8368, Note_on_c, 2, 62, 0
5, 8384, Note_on_c, 2, 59, 66
5, 8384, Note_on_c, 2, 62, 63
5, 8385, Note_on_c, 2, 55, 47
5, 8392, Note_on_c, 2, 59, 0
5, 8392, Note_on_c, 2, 62, 0
5, 8393, Note_on_c, 2, 55, 0
5, 8402, Note_on_c, 2, 62, 70
5, 8402, Note_on_c, 2, 59, 70
5, 8403, Note_on_c, 2, 55, 48
5, 8411, Note_on_c, 2, 59, 0
5, 8411, Note_on_c, 2, 55, 0
5, 8412, Note_on_c, 2, 62, 0
5, 8416, Note_on_c, 2, 62, 47
5, 8417, Note_on_c, 2, 59, 66
5, 8418, Note_on_c, 2, 55, 50
5, 8428, Note_on_c, 2, 59, 0
5, 8428, Note_on_c, 2, 55, 0
5, 8430, Note_on_c, 2, 62, 0
5, 8442, Control_c, 2, 64, 0
5, 8448, Note_on_c, 2, 62, 83
5, 8448, Note_on_c, 2, 59, 83
5, 8449, Note_on_c, 2, 55, 73
5, 8458, Note_on_c, 2, 59, 0
5, 8458, Note_on_c, 2, 55, 0
5, 8460, Note_on_c, 2, 62, 0
5, 8480, Note_on_c, 2, 62, 76
5, 8480, Note_on_c, 2, 59, 73
5, 8481, Note_on_c, 2, 55, 52
5, 8488, Note_on_c, 2, 59, 0
5, 8488, Note_on_c, 2, 55, 0
5, 8490, Note_on_c, 2, 62, 0
5, 8508, Control_c, 2, 64, 127
5, 8509, Note_on_c, 2, 62, 76
5, 8510, Note_on_c, 2, 59, 63
5, 8510, Note_on_c, 2, 55, 47
5, 8516, Note_on_c, 2, 59, 0
5, 8516, Note_on_c, 2, 55, 0
5, 8520, Note_on_c, 2, 62, 0
5, 8541, Control_c, 2, 64, 0
5, 8542, Note_on_c, 2, 62, 57
5, 8542, Note_on_c, 2, 67, 63
5, 8542, Note_on_c, 2, 65, 63
5, 8544, Note_on_c, 2, 59, 37
5, 8552, Note_on_c, 2, 62, 0
5, 8552, Note_on_c, 2, 67, 0
5, 8552, Note_on_c, 2, 65, 0
5, 8552, Note_on_c, 2, 59, 0
5, 8560, Control_c, 2, 64, 127
5, 8573, Note_on_c, 2, 62, 73
5, 8574, Note_on_c, 2, 67, 66
5, 8574, Note_on_c, 2, 59, 48
5, 8581, Note_on_c, 2, 62, 0
5, 8581, Note_on_c, 2, 59, 0
5, 8583, Note_on_c, 2, 67, 0
5, 8589, Note_on_c, 2, 67, 63
5, 8589, Note_on_c, 2, 62, 66
5, 8590, Note_on_c, 2, 59, 54
5, 8598, Note_on_c, 2, 62, 0
5, 8598, Note_on_c, 2, 59, 0
5, 8600, Note_on_c, 2, 67, 0
5, 8605, Note_on_c, 2, 67, 76
5, 8605, Note_on_c, 2, 62, 80
5, 8606, Note_on_c, 2, 59, 60
5, 8614, Note_on_c, 2, 59, 0
5, 8616, Note_on_c, 2, 62, 0
5, 8618, Note_on_c, 2, 67, 0
5, 8638, Control_c, 2, 64, 0
5, 8639, Note_on_c, 2, 65, 73
5, 8640, Note_on_c, 2, 57, 70
5, 8640, Note_on_c, 2, 60, 73
5, 8648, Note_on_c, 2, 60, 0
5, 8649, Note_on_c, 2, 57, 0
5, 8651, Note_on_c, 2, 65, 0
5, 8671, Note_on_c, 2, 65, 76
5, 8671, Note_on_c, 2, 60, 80
5, 8671, Note_on_c, 2, 57, 73
5, 8676, Control_c, 2, 64, 127
5, 8688, Note_on_c, 2, 57, 0
5, 8689, Note_on_c, 2, 60, 0
5, 8690, Note_on_c, 2, 65, 0
5, 8702, Note_on_c, 2, 65, 66
5, 8702, Note_on_c, 2, 60, 70
5, 8702, Note_on_c, 2, 57, 52
5, 8712, Note_on_c, 2, 57, 0
5, 8714, Note_on_c, 2, 60, 0
5, 8718, Note_on_c, 2, 65, 0
5, 8727, Control_c, 2, 64, 0
5, 8734, Note_on_c, 2, 62, 70
5, 8735, Note_on_c, 2, 67, 73
5, 8735, Note_on_c, 2, 59, 52
5, 8750, Control_c, 2, 64, 127
5, 8752, Note_on_c, 2, 62, 0
5, 8752, Note_on_c, 2, 59, 0
5, 8754, Note_on_c, 2, 67, 0
5, 8766, Note_on_c, 2, 62, 60
5, 8767, Note_on_c, 2, 59, 48
5, 8767, Note_on_c, 2, 67, 54
5, 8774, Note_on_c, 2, 62, 0
5, 8774, Note_on_c, 2, 67, 0
5, 8775, Note_on_c, 2, 59, 0
5, 8784, Note_on_c, 2, 67, 52
5, 8784, Note_on_c, 2, 62, 63
5, 8785, Note_on_c, 2, 59, 47
5, 8791, Note_on_c, 2, 62, 0
5, 8792, Note_on_c, 2, 67, 0
5, 8792, Note_on_c, 2, 59, 0
5, 8799, Note_on_c, 2, 62, 66
5, 8799, Note_on_c, 2, 67, 60
5, 8800, Note_on_c, 2, 59, 48
5, 8806, Note_on_c, 2, 59, 0
5, 8807, Note_on_c, 2, 62, 0
5, 8809, Note_on_c, 2, 67, 0
5, 8828, Control_c, 2, 64, 0
5, 8830, Note_on_c, 2, 67, 80
5, 8831, Note_on_c, 2, 62, 80
5, 8831, Note_on_c, 2, 59, 73
5, 8841, Note_on_c, 2, 62, 0
5, 8842, Note_on_c, 2, 59, 0
5, 8844, Note_on_c, 2, 67, 0
5, 8859, Control_c, 2, 64, 127
5, 8863, Note_on_c, 2, 67, 73
5, 8863, Note_on_c, 2, 59, 66
5, 8863, Note_on_c, 2, 62, 76
5, 8870, Note_on_c, 2, 62, 0
5, 8872, Note_on_c, 2, 59, 0
5, 8873, Note_on_c, 2, 67, 0
5, 8894, Note_on_c, 2, 67, 70
5, 8895, Note_on_c, 2, 59, 52
5, 8895, Note_on_c, 2, 62, 60
5, 8902, Note_on_c, 2, 59, 0
5, 8902, Note_on_c, 2, 62, 0
5, 8905, Note_on_c, 2, 67, 0
5, 8921, Control_c, 2, 64, 0
5, 8925, Note_on_c, 2, 48, 73
5, 8926, Note_on_c, 2, 64, 76
5, 8927, Note_on_c, 2, 60, 70
5, 8940, Note_on_c, 2, 64, 0
5, 8940, Note_on_c, 2, 60, 0
5, 8943, Control_c, 2, 64, 127
5, 8958, Note_on_c, 2, 64, 57
5, 8959, Note_on_c, 2, 60, 51
5, 8966, Note_on_c, 2, 64, 0
5, 8967, Note_on_c, 2, 60, 0
5, 8970, Note_on_c, 2, 48, 0
5, 8978, Note_on_c, 2, 64, 70
5, 8978, Note_on_c, 2, 60, 57
5, 8983, Note_on_c, 2, 64, 0
5, 8985, Note_on_c, 2, 60, 0
5, 8991, Note_on_c, 2, 60, 66
5, 8991, Note_on_c, 2, 64, 87
5, 8998, Note_on_c, 2, 64, 0
5, 9000, Note_on_c, 2, 60, 0
5, 9022, Control_c, 2, 64, 0
5, 9026, Note_on_c, 2, 62, 83
5, 9026, Note_on_c, 2, 53, 73
5, 9026, Note_on_c, 2, 58, 70
5, 9034, Note_on_c, 2, 53, 0
5, 9035, Note_on_c, 2, 62, 0
5, 9036, Note_on_c, 2, 58, 0
5, 9057, Note_on_c, 2, 58, 73
5, 9057, Note_on_c, 2, 62, 87
5, 9057, Note_on_c, 2, 53, 80
5, 9058, Control_c, 2, 64, 127
5, 9070, Note_on_c, 2, 62, 0
5, 9072, Note_on_c, 2, 53, 0
5, 9075, Note_on_c, 2, 58, 0
5, 9090, Note_on_c, 2, 60, 83
5, 9090, Note_on_c, 2, 57, 83
5, 9090, Note_on_c, 2, 53, 76
5, 9112, Note_on_c, 2, 53, 0
5, 9114, Note_on_c, 2, 57, 0
5, 9116, Note_on_c, 2, 60, 0
5, 9116, Control_c, 2, 64, 0
5, 9122, Note_on_c, 2, 48, 80
5, 9146, Control_c, 2, 64, 127
5, 9153, Note_on_c, 2, 60, 70
5, 9184, Note_on_c, 2, 55, 76
5, 9188, Note_on_c, 2, 60, 0
5, 9211, Note_on_c, 2, 55, 0
5, 9216, Note_on_c, 2, 64, 83
5, 9216, Note_on_c, 2, 60, 73
5, 9226, Note_on_c, 2, 64, 0
5, 9226, Note_on_c, 2, 60, 0
5, 9244, Note_on_c, 2, 48, 0
5, 9248, Note_on_c, 2, 64, 76
5, 9248, Note_on_c, 2, 60, 63
5, 9255, Note_on_c, 2, 64, 0
5, 9256, Note_on_c, 2, 60, 0
5, 9265, Note_on_c, 2, 64, 80
5, 9265, Note_on_c, 2, 60, 63
5, 9271, Control_c, 2, 64, 0
5, 9272, Note_on_c, 2, 64, 0
5, 9274, Note_on_c, 2, 60, 0
5, 9282, Note_on_c, 2, 60, 66
5, 9282, Note_on_c, 2, 64, 73
5, 9292, Note_on_c, 2, 60, 0
5, 9292, Note_on_c, 2, 64, 0
5, 9315, Note_on_c, 2, 48, 60
5, 9315, Control_c, 2, 64, 127
5, 9315, Note_on_c, 2, 60, 73
5, 9316, Note_on_c, 2, 64, 63
5, 9316, Note_on_c, 2, 55, 51
5, 9325, Note_on_c, 2, 60, 0
5, 9326, Note_on_c, 2, 64, 0
5, 9326, Note_on_c, 2, 55, 0
5, 9329, Note_on_c, 2, 48, 0
5, 9344, Note_on_c, 2, 60, 63
5, 9344, Note_on_c, 2, 64, 54
5, 9346, Note_on_c, 2, 55, 37
5, 9350, Note_on_c, 2, 60, 0
5, 9351, Note_on_c, 2, 64, 0
5, 9351, Note_on_c, 2, 55, 0
5, 9362, Note_on_c, 2, 60, 57
5, 9362, Note_on_c, 2, 64, 43
5, 9364, Note_on_c, 2, 55, 44
5, 9368, Note_on_c, 2, 60, 0
5, 9369, Note_on_c, 2, 64, 0
5, 9370, Note_on_c, 2, 55, 0
5, 9376, Note_on_c, 2, 64, 73
5, 9376, Note_on_c, 2, 60, 76
5, 9377, Note_on_c, 2, 55, 52
5, 9385, Note_on_c, 2, 60, 0
5, 9385, Note_on_c, 2, 55, 0
5, 9387, Note_on_c, 2, 64, 0
5, 9404, Control_c, 2, 64, 0
5, 9408, Note_on_c, 2, 62, 76
5, 9410, Note_on_c, 2, 53, 63
5, 9410, Note_on_c, 2, 58, 60
5, 9424, Note_on_c, 2, 62, 0
5, 9424, Note_on_c, 2, 53, 0
5, 9427, Note_on_c, 2, 58, 0
5, 9428, Control_c, 2, 64, 127
5, 9442, Note_on_c, 2, 58, 63
5, 9442, Note_on_c, 2, 62, 73
5, 9442, Note_on_c, 2, 53, 54
5, 9453, Note_on_c, 2, 62, 0
5, 9453, Note_on_c, 2, 53, 0
5, 9456, Note_on_c, 2, 58, 0
5, 9469, Control_c, 2, 64, 0
5, 9472, Note_on_c, 2, 60, 83
5, 9473, Note_on_c, 2, 57, 80
5, 9473, Note_on_c, 2, 53, 73
5, 9499, Note_on_c, 2, 53, 0
5, 9502, Note_on_c, 2, 57, 0
5, 9504, Note_on_c, 2, 60, 0
5, 9506, Note_on_c, 2, 48, 92
5, 9508, Control_c, 2, 64, 127
5, 9540, Note_on_c, 2, 48, 0
5, 9540, Note_on_c, 2, 55, 31
5, 9543, Note_on_c, 2, 55, 0
5, 9554, Note_on_c, 2, 64, 60
5, 9556, Note_on_c, 2, 55, 48
5, 9556, Note_on_c, 2, 60, 60
5, 9560, Note_on_c, 2, 60, 0
5, 9562, Note_on_c, 2, 64, 0
5, 9562, Note_on_c, 2, 55, 0
5, 9569, Note_on_c, 2, 64, 60
5, 9569, Note_on_c, 2, 60, 70
5, 9569, Note_on_c, 2, 55, 51
5, 9577, Note_on_c, 2, 60, 0
5, 9578, Note_on_c, 2, 64, 0
5, 9578, Note_on_c, 2, 55, 0
5, 9598, Control_c, 2, 64, 0
5, 9600, Note_on_c, 2, 64, 83
5, 9600, Note_on_c, 2, 60, 87
5, 9601, Note_on_c, 2, 55, 76
5, 9618, Note_on_c, 2, 60, 0
5, 9618, Note_on_c, 2, 55, 0
5, 9619, Note_on_c, 2, 64, 0
5, 9631, Control_c, 2, 64, 127
5, 9632, Note_on_c, 2, 60, 73
5, 9632, Note_on_c, 2, 55, 63
5, 9632, Note_on_c, 2, 64, 63
5, 9641, Note_on_c, 2, 60, 0
5, 9641, Note_on_c, 2, 55, 0
5, 9642, Note_on_c, 2, 64, 0
5, 9664, Note_on_c, 2, 64, 63
5, 9664, Note_on_c, 2, 60, 66
5, 9665, Note_on_c, 2, 55, 48
5, 9673, Note_on_c, 2, 60, 0
5, 9674, Note_on_c, 2, 64, 0
5, 9674, Note_on_c, 2, 55, 0
5, 9685, Control_c, 2, 64, 0
5, 9694, Note_on_c, 2, 62, 80
5, 9694, Note_on_c, 2, 59, 80
5, 9694, Note_on_c, 2, 55, 73
5, 9706, Control_c, 2, 64, 127
5, 9710, Note_on_c, 2, 59, 0
5, 9710, Note_on_c, 2, 55, 0
5, 9711, Note_on_c, 2, 62, 0
5, 9725, Note_on_c, 2, 59, 57
5, 9725, Note_on_c, 2, 62, 60
5, 9726, Note_on_c, 2, 55, 40
5, 9732, Note_on_c, 2, 55, 0
5, 9733, Note_on_c, 2, 59, 0
5, 9733, Note_on_c, 2, 62, 0
5, 9744, Note_on_c, 2, 59, 57
5, 9745, Note_on_c, 2, 62, 51
5, 9746, Note_on_c, 2, 55, 37
5, 9750, Note_on_c, 2, 59, 0
5, 9751, Note_on_c, 2, 62, 0
5, 9751, Note_on_c, 2, 55, 0
5, 9756, Note_on_c, 2, 62, 66
5, 9757, Note_on_c, 2, 59, 73
5, 9758, Note_on_c, 2, 55, 54
5, 9767, Note_on_c, 2, 55, 0
5, 9768, Note_on_c, 2, 62, 0
5, 9768, Note_on_c, 2, 59, 0
5, 9785, Control_c, 2, 64, 0
5, 9792, Note_on_c, 2, 60, 80
5, 9792, Note_on_c, 2, 57, 76
5, 9792, Note_on_c, 2, 53, 76
5, 9802, Note_on_c, 2, 57, 0
5, 9802, Note_on_c, 2, 53, 0
5, 9804, Note_on_c, 2, 60, 0
5, 9825, Note_on_c, 2, 57, 76
5, 9825, Note_on_c, 2, 60, 73
5, 9825, Note_on_c, 2, 53, 60
5, 9830, Control_c, 2, 64, 127
5, 9842, Note_on_c, 2, 57, 0
5, 9842, Note_on_c, 2, 53, 0
5, 9843, Note_on_c, 2, 60, 0
5, 9856, Note_on_c, 2, 60, 76
5, 9856, Note_on_c, 2, 57, 73
5, 9856, Note_on_c, 2, 53, 63
5, 9864, Note_on_c, 2, 53, 0
5, 9865, Note_on_c, 2, 57, 0
5, 9867, Note_on_c, 2, 60, 0
5, 9878, Control_c, 2, 64, 0
5, 9889, Note_on_c, 2, 59, 80
5, 9889, Note_on_c, 2, 62, 80
5, 9889, Note_on_c, 2, 55, 70
5, 9899, Control_c, 2, 64, 127
5, 9902, Note_on_c, 2, 59, 0
5, 9903, Note_on_c, 2, 55, 0
5, 9904, Note_on_c, 2, 62, 0
5, 9920, Note_on_c, 2, 59, 66
5, 9920, Note_on_c, 2, 62, 63
5, 9921, Note_on_c, 2, 55, 47
5, 9928, Note_on_c, 2, 59, 0
5, 9928, Note_on_c, 2, 62, 0
5, 9929, Note_on_c, 2, 55, 0
5, 9938, Note_on_c, 2, 62, 70
5, 9938, Note_on_c, 2, 59, 70
5, 9939, Note_on_c, 2, 55, 48
5, 9947, Note_on_c, 2, 59, 0
5, 9947, Note_on_c, 2, 55, 0
5, 9948, Note_on_c, 2, 62, 0
5, 9952, Note_on_c, 2, 62, 47
5, 9953, Note_on_c, 2, 59, 66
5, 9954, Note_on_c, 2, 55, 50
5, 9964, Note_on_c, 2, 59, 0
5, 9964, Note_on_c, 2, 55, 0
5, 9966, Note_on_c, 2, 62, 0
5, 9978, Control_c, 2, 64, 0
5, 9984, Note_on_c, 2, 62, 83
5, 9984, Note_on_c, 2, 59, 83
5, 9985, Note_on_c, 2, 55, 73
5, 9994, Note_on_c, 2, 59, 0
5, 9994, Note_on_c, 2, 55, 0
5, 9996, Note_on_c, 2, 62, 0
5, 10016, Note_on_c, 2, 62, 76
5, 10016, Note_on_c, 2, 59, 73
5, 10017, Note_on_c, 2, 55, 52
5, 10024, Note_on_c, 2, 59, 0
5, 10024, Note_on_c, 2, 55, 0
5, 10026, Note_on_c, 2, 62, 0
5, 10044, Control_c, 2, 64, 127
5, 10045, Note_on_c, 2, 62, 76
5, 10046, Note_on_c, 2, 59, 63
5, 10046, Note_on_c, 2, 55, 47
5, 10052, Note_on_c, 2, 59, 0
5, 10052, Note_on_c, 2, 55, 0
5, 10056, Note_on_c, 2, 62, 0
5, 10077, Control_c, 2, 64, 0
5, 10078, Note_on_c, 2, 62, 57
5, 10078, Note_on_c, 2, 67, 63
5, 10078, Note_on_c, 2, 65, 63
5, 10080, Note_on_c, 2, 59, 37
5, 10088, Note_on_c, 2, 62, 0
5, 10088, Note_on_c, 2, 67, 0
5, 10088, Note_on_c, 2, 65, 0
5, 10088, Note_on_c, 2, 59, 0
5, 10096, Control_c, 2, 64, 127
5, 10109, Note_on_c, 2, 62, 73
5, 10110, Note_on_c, 2, 67, 66
5, 10110, Note_on_c, 2, 59, 48
5, 10117, Note_on_c, 2, 62, 0
5, 10117, Note_on_c, 2, 59, 0
5, 10119, Note_on_c, 2, 67, 0
5, 10125, Note_on_c, 2, 67, 63
5, 10125, Note_on_c, 2, 62, 66
5, 10126, Note_on_c, 2, 59, 54
5, 10134, Note_on_c, 2, 62, 0
5, 10134, Note_on_c, 2, 59, 0
5, 10136, Note_on_c, 2, 67, 0
5, 10141, Note_on_c, 2, 67, 76
5, 10141, Note_on_c, 2, 62, 80
5, 10142, Note_on_c, 2, 59, 60
5, 10150, Note_on_c, 2, 59, 0
5, 10152, Note_on_c, 2, 62, 0
5, 10154, Note_on_c, 2, 67, 0
5, 10174, Control_c, 2, 64, 0
5, 10175, Note_on_c, 2, 65, 73
5, 10176, Note_on_c, 2, 57, 70
5, 10176, Note_on_c, 2, 60, 73
5, 10184, Note_on_c, 2, 60, 0
5, 10185, Note_on_c, 2, 57, 0
5, 10187, Note_on_c, 2, 65, 0
5, 10207, Note_on_c, 2, 65, 76
5, 10207, Note_on_c, 2, 60, 80
5, 10207, Note_on_c, 2, 57, 73
5, 10212, Control_c, 2, 64, 127
5, 10224, Note_on_c, 2, 57, 0
5, 10225, Note_on_c, 2, 60, 0
5, 10226, Note_on_c, 2, 65, 0
5, 10238, Note_on_c, 2, 65, 66
5, 10238, Note_on_c, 2, 60, 70
5, 10238, Note_on_c, 2, 57, 52
5, 10248, Note_on_c, 2, 57, 0
5, 10250, Note_on_c, 2, 60, 0
5, 10254, Note_on_c, 2, 65, 0
5, 10263, Control_c, 2, 64, 0
5, 10270, Note_on_c, 2, 62, 70
5, 10271, Note_on_c, 2, 67, 73
5, 10271, Note_on_c, 2, 59, 52
5, 10286, Control_c, 2, 64, 127
5, 10288, Note_on_c, 2, 62, 0
5, 10288, Note_on_c, 2, 59, 0
5, 10290, Note_on_c, 2, 67, 0
5, 10302, Note_on_c, 2, 62, 60
5, 10303, Note_on_c, 2, 59, 48
5, 10303, Note_on_c, 2, 67, 54
5, 10310, Note_on_c, 2, 62, 0
5, 10310, Note_on_c, 2, 67, 0
5, 10311, Note_on_c, 2, 59, 0
5, 10320, Note_on_c, 2, 67, 52
5, 10320, Note_on_c, 2, 62, 63
5, 10321, Note_on_c, 2, 59, 47
5, 10327, Note_on_c, 2, 62, 0
5, 10328, Note_on_c, 2, 67, 0
5, 10328, Note_on_c, 2, 59, 0
5, 10335, Note_on_c, 2, 62, 66
5, 10335, Note_on_c, 2, 67, 60
5, 10336, Note_on_c, 2, 59, 48
5, 10342, Note_on_c, 2, 59, 0
5, 10343, Note_on_c, 2, 62, 0
5, 10345, Note_on_c, 2, 67, 0
5, 10364, Control_c, 2, 64, 0
5, 10366, Note_on_c, 2, 67, 80
5, 10367, Note_on_c, 2, 62, 80
5, 10367, Note_on_c, 2, 59, 73
5, 10377, Note_on_c, 2, 62, 0
5, 10378, Note_on_c, 2, 59, 0
5, 10380, Note_on_c, 2, 67, 0
5, 10395, Control_c, 2, 64, 127
5, 10399, Note_on_c, 2, 67, 73
5, 10399, Note_on_c, 2, 59, 66
5, 10399, Note_on_c, 2, 62, 76
5, 10406, Note_on_c, 2, 62, 0
5, 10408, Note_on_c, 2, 59, 0
5, 10409, Note_on_c, 2, 67, 0
5, 10430, Note_on_c, 2, 67, 70
5, 10431, Note_on_c, 2, 59, 52
5, 10431, Note_on_c, 2, 62, 60
5, 10438, Note_on_c, 2, 59, 0
5, 10438, Note_on_c, 2, 62, 0
5, 10441, Note_on_c, 2, 67, 0
5, 10457, Control_c, 2, 64, 0
5, 10461, Note_on_c, 2, 48, 73
5, 10462, Note_on_c, 2, 64, 76
5, 10463, Note_on_c, 2, 60, 70
5, 10476, Note_on_c, 2, 64, 0
5, 10476, Note_on_c, 2, 60, 0
5, 10479, Control_c, 2, 64, 127
5, 10494, Note_on_c, 2, 64, 57
5, 10495, Note_on_c, 2, 60, 51
5, 10502, Note_on_c, 2, 64, 0
5, 10503, Note_on_c, 2, 60, 0
5, 10506, Note_on_c, 2, 48, 0
5, 10514, Note_on_c, 2, 64, 70
5, 10514, Note_on_c, 2, 60, 57
5, 10519, Note_on_c, 2, 64, 0
5, 10521, Note_on_c, 2, 60, 0
5, 10527, Note_on_c, 2, 60, 66
5, 10527, Note_on_c, 2, 64, 87
5, 10534, Note_on_c, 2, 64, 0
5, 10536, Note_on_c, 2, 60, 0
5, 10558, Control_c, 2, 64, 0
5, 10562, Note_on_c, 2, 62, 83
5, 10562, Note_on_c, 2, 53, 73
5, 10562, Note_on_c, 2, 58, 70
5, 10570, Note_on_c, 2, 53, 0
5, 10571, Note_on_c, 2, 62, 0
5, 10572, Note_on_c, 2, 58, 0
5, 10593, Note_on_c, 2, 58, 73
5, 10593, Note_on_c, 2, 62, 87
5, 10593, Note_on_c, 2, 53, 80
5, 10594, Control_c, 2, 64, 127
5, 10606, Note_on_c, 2, 62, 0
5, 10608, Note_on_c, 2, 53, 0
5, 10611, Note_on_c, 2, 58, 0
5, 10626, Note_on_c, 2, 60, 83
5, 10626, Note_on_c, 2, 57, 83
5, 10626, Note_on_c, 2, 53, 76
5, 10648, Note_on_c, 2, 53, 0
5, 10650, Note_on_c, 2, 57, 0
5, 10652, Note_on_c, 2, 60, 0
5, 10652, Control_c, 2, 64, 0
5, 10658, Note_on_c, 2, 48, 80
5, 10682, Control_c, 2, 64, 127
5, 10780, Note_on_c, 2, 48, 0
5, 10807, Control_c, 2, 64, 0
5, 10848, Time_signature, 1, 2, 96, 8
5, 10848, Note_on_c, 2, 67, 50
5, 10848, Note_on_c, 2, 64, 48
5, 10848, Note_on_c, 2, 60, 45
5, 10859, Note_on_c, 2, 64, 0
5, 10860, Note_on_c, 2, 60, 0
5, 10861, Note_on_c, 2, 67, 0
5, 10878, Note_on_c, 2, 67, 63
5, 10879, Note_on_c, 2, 64, 54
5, 10879, Note_on_c, 2, 60, 51
5, 10891, Note_on_c, 2, 64, 0
5, 10892, Note_on_c, 2, 60, 0
5, 10893, Note_on_c, 2, 67, 0
5, 10909, Note_on_c, 2, 67, 76
5, 10910, Note_on_c, 2, 64, 70
5, 10910, Note_on_c, 2, 60, 66
5, 10921, Note_on_c, 2, 64, 0
5, 10921, Note_on_c, 2, 60, 0
5, 10924, Note_on_c, 2, 67, 0
5, 10944, Time_signature, 4, 2, 96, 8
5, 11040, Note_on_c, 2, 67, 76
5, 11040, Note_on_c, 2, 64, 73
5, 11041, Note_on_c, 2, 60, 70
5, 11050, Note_on_c, 2, 64, 0
5, 11050, Note_on_c, 2, 60, 0
5, 11052, Note_on_c, 2, 67, 0
5, 11231, Note_on_c, 2, 67, 83
5, 11231, Note_on_c, 2, 64, 87
5, 11232, Note_on_c, 2, 60, 73
5, 11241, Note_on_c, 2, 64, 0
5, 11241, Note_on_c, 2, 60, 0
5, 11245, Note_on_c, 2, 67, 0
5, 11424, Note_on_c, 2, 62, 87
5, 11424, Note_on_c, 2, 67, 76
5, 11425, Note_on_c, 2, 59, 76
5, 11434, Note_on_c, 2, 59, 0
5, 11435, Note_on_c, 2, 62, 0
5, 11438, Note_on_c, 2, 67, 0
5, 11615, Note_on_c, 2, 62, 87
5, 11615, Note_on_c, 2, 67, 80
5, 11615, Note_on_c, 2, 59, 73
5, 11625, Note_on_c, 2, 59, 0
5, 11626, Note_on_c, 2, 62, 0
5, 11628, Note_on_c, 2, 67, 0
5, 11808, Note_on_c, 2, 62, 80
5, 11808, Note_on_c, 2, 67, 80
5, 11809, Note_on_c, 2, 59, 63
5, 11820, Note_on_c, 2, 62, 0
5, 11820, Note_on_c, 2, 59, 0
5, 11822, Note_on_c, 2, 67, 0
5, 12000, Note_on_c, 2, 62, 83
5, 12001, Note_on_c, 2, 67, 80
5, 12001, Note_on_c, 2, 59, 73
5, 12011, Note_on_c, 2, 59, 0
5, 12012, Note_on_c, 2, 62, 0
5, 12014, Note_on_c, 2, 67, 0
5, 12193, Note_on_c, 2, 67, 83
5, 12194, Note_on_c, 2, 64, 80
5, 12194, Note_on_c, 2, 60, 76
5, 12204, Note_on_c, 2, 64, 0
5, 12204, Note_on_c, 2, 60, 0
5, 12207, Note_on_c, 2, 67, 0
5, 12384, Note_on_c, 2, 67, 80
5, 12384, Note_on_c, 2, 64, 83
5, 12385, Note_on_c, 2, 60, 73
5, 12395, Note_on_c, 2, 64, 0
5, 12395, Note_on_c, 2, 60, 0
5, 12398, Note_on_c, 2, 67, 0
5, 12576, Note_on_c, 2, 67, 76
5, 12576, Note_on_c, 2, 64, 73
5, 12577, Note_on_c, 2, 60, 70
5, 12586, Note_on_c, 2, 64, 0
5, 12586, Note_on_c, 2, 60, 0
5, 12588, Note_on_c, 2, 67, 0
5, 12767, Note_on_c, 2, 67, 83
5, 12767, Note_on_c, 2, 64, 87
5, 12768, Note_on_c, 2, 60, 73
5, 12777, Note_on_c, 2, 64, 0
5, 12777, Note_on_c, 2, 60, 0
5, 12781, Note_on_c, 2, 67, 0
5, 12960, Note_on_c, 2, 62, 87
5, 12960, Note_on_c, 2, 67, 76
5, 12961, Note_on_c, 2, 59, 76
5, 12970, Note_on_c, 2, 59, 0
5, 12971, Note_on_c, 2, 62, 0
5, 12974, Note_on_c, 2, 67, 0
5, 13151, Note_on_c, 2, 62, 87
5, 13151, Note_on_c, 2, 67, 80
5, 13151, Note_on_c, 2, 59, 73
5, 13161, Note_on_c, 2, 59, 0
5, 13162, Note_on_c, 2, 62, 0
5, 13164, Note_on_c, 2, 67, 0
5, 13344, Note_on_c, 2, 62, 80
5, 13344, Note_on_c, 2, 67, 80
5, 13345, Note_on_c, 2, 59, 63
5, 13356, Note_on_c, 2, 62, 0
5, 13356, Note_on_c, 2, 59, 0
5, 13358, Note_on_c, 2, 67, 0
5, 13536, Note_on_c, 2, 62, 83
5, 13537, Note_on_c, 2, 67, 80
5, 13537, Note_on_c, 2, 59, 73
5, 13547, Note_on_c, 2, 59, 0
5, 13548, Note_on_c, 2, 62, 0
5, 13550, Note_on_c, 2, 67, 0
5, 13632, Note_on_c, 2, 55, 76
5, 13632, Note_on_c, 2, 64, 83
5, 13632, Note_on_c, 2, 60, 87
5, 13632, Note_on_c, 2, 48, 87
5, 13636, Control_c, 2, 64, 127
5, 13642, Note_on_c, 2, 55, 0
5, 13642, Note_on_c, 2, 60, 0
5, 13643, Note_on_c, 2, 64, 0
5, 13646, Note_on_c, 2, 48, 0
5, 13664, Note_on_c, 2, 55, 63
5, 13664, Note_on_c, 2, 60, 73
5, 13664, Note_on_c, 2, 64, 70
5, 13669, Note_on_c, 2, 60, 0
5, 13670, Note_on_c, 2, 55, 0
5, 13671, Note_on_c, 2, 64, 0
5, 13680, Note_on_c, 2, 55, 60
5, 13680, Note_on_c, 2, 60, 83
5, 13680, Note_on_c, 2, 64, 76
5, 13685, Note_on_c, 2, 60, 0
5, 13686, Note_on_c, 2, 55, 0
5, 13688, Note_on_c, 2, 64, 0
5, 13696, Note_on_c, 2, 55, 76
5, 13696, Note_on_c, 2, 60, 92
5, 13696, Note_on_c, 2, 64, 87
5, 13702, Note_on_c, 2, 55, 0
5, 13703, Note_on_c, 2, 60, 0
5, 13704, Note_on_c, 2, 64, 0
5, 13716, Control_c, 2, 64, 0
5, 13728, Note_on_c, 2, 58, 80
5, 13728, Note_on_c, 2, 53, 76
5, 13728, Note_on_c, 2, 62, 92
5, 13746, Note_on_c, 2, 58, 0
5, 13746, Note_on_c, 2, 53, 0
5, 13747, Note_on_c, 2, 62, 0
5, 13748, Control_c, 2, 64, 127
5, 13760, Note_on_c, 2, 62, 96
5, 13760, Note_on_c, 2, 58, 83
5, 13760, Note_on_c, 2, 53, 76
5, 13767, Note_on_c, 2, 53, 0
5, 13769, Note_on_c, 2, 62, 0
5, 13770, Note_on_c, 2, 58, 0
5, 13790, Control_c, 2, 64, 0
5, 13792, Note_on_c, 2, 57, 76
5, 13792, Note_on_c, 2, 60, 92
5, 13792, Note_on_c, 2, 65, 87
5, 13801, Note_on_c, 2, 60, 0
5, 13803, Note_on_c, 2, 57, 0
5, 13803, Note_on_c, 2, 65, 0
5, 13821, Control_c, 2, 64, 127
5, 13824, Note_on_c, 2, 60, 92
5, 13824, Note_on_c, 2, 64, 83
5, 13824, Note_on_c, 2, 55, 87
5, 13835, Note_on_c, 2, 60, 0
5, 13835, Note_on_c, 2, 55, 0
5, 13836, Note_on_c, 2, 64, 0
5, 13856, Note_on_c, 2, 60, 73
5, 13856, Note_on_c, 2, 55, 63
5, 13856, Note_on_c, 2, 64, 70
5, 13861, Note_on_c, 2, 60, 0
5, 13863, Note_on_c, 2, 55, 0
5, 13863, Note_on_c, 2, 64, 0
5, 13872, Note_on_c, 2, 60, 87
5, 13872, Note_on_c, 2, 55, 73
5, 13872, Note_on_c, 2, 64, 80
5, 13878, Note_on_c, 2, 60, 0
5, 13878, Note_on_c, 2, 55, 0
5, 13880, Note_on_c, 2, 64, 0
5, 13888, Note_on_c, 2, 55, 76
5, 13888, Note_on_c, 2, 60, 87
5, 13888, Note_on_c, 2, 64, 83
5, 13895, Note_on_c, 2, 55, 0
5, 13895, Note_on_c, 2, 60, 0
5, 13897, Note_on_c, 2, 64, 0
5, 13910, Control_c, 2, 64, 0
5, 13920, Note_on_c, 2, 58, 73
5, 13920, Note_on_c, 2, 53, 83
5, 13920, Note_on_c, 2, 62, 87
5, 13929, Control_c, 2, 64, 127
5, 13933, Note_on_c, 2, 53, 0
5, 13934, Note_on_c, 2, 58, 0
5, 13934, Note_on_c, 2, 62, 0
5, 13952, Note_on_c, 2, 58, 83
5, 13952, Note_on_c, 2, 62, 92
5, 13952, Note_on_c, 2, 53, 76
5, 13960, Note_on_c, 2, 53, 0
5, 13962, Note_on_c, 2, 62, 0
5, 13963, Note_on_c, 2, 58, 0
5, 13974, Control_c, 2, 64, 0
5, 13984, Note_on_c, 2, 57, 83
5, 13984, Note_on_c, 2, 60, 92
5, 13984, Note_on_c, 2, 65, 76
5, 13996, Note_on_c, 2, 57, 0
5, 13996, Note_on_c, 2, 60, 0
5, 13996, Note_on_c, 2, 65, 0
5, 14014, Control_c, 2, 64, 127
5, 14016, Note_on_c, 2, 55, 83
5, 14016, Note_on_c, 2, 60, 87
5, 14016, Note_on_c, 2, 64, 80
5, 14028, Note_on_c, 2, 55, 0
5, 14028, Note_on_c, 2, 60, 0
5, 14030, Note_on_c, 2, 64, 0
5, 14048, Note_on_c, 2, 55, 60
5, 14048, Note_on_c, 2, 64, 70
5, 14048, Note_on_c, 2, 60, 80
5, 14054, Note_on_c, 2, 55, 0
5, 14054, Note_on_c, 2, 60, 0
5, 14055, Note_on_c, 2, 64, 0
5, 14064, Note_on_c, 2, 60, 87
5, 14064, Note_on_c, 2, 55, 73
5, 14064, Note_on_c, 2, 64, 76
5, 14070, Note_on_c, 2, 60, 0
5, 14071, Note_on_c, 2, 55, 0
5, 14072, Note_on_c, 2, 64, 0
5, 14080, Note_on_c, 2, 55, 76
5, 14080, Note_on_c, 2, 60, 83
5, 14080, Note_on_c, 2, 64, 83
5, 14088, Note_on_c, 2, 55, 0
5, 14088, Note_on_c, 2, 60, 0
5, 14090, Note_on_c, 2, 64, 0
5, 14098, Control_c, 2, 64, 0
5, 14112, Note_on_c, 2, 58, 73
5, 14112, Note_on_c, 2, 53, 80
5, 14112, Note_on_c, 2, 62, 92
5, 14121, Control_c, 2, 64, 127
5, 14124, Note_on_c, 2, 58, 0
5, 14124, Note_on_c, 2, 53, 0
5, 14125, Note_on_c, 2, 62, 0
5, 14144, Note_on_c, 2, 58, 73
5, 14144, Note_on_c, 2, 53, 76
5, 14144, Note_on_c, 2, 62, 92
5, 14153, Note_on_c, 2, 53, 0
5, 14156, Note_on_c, 2, 62, 0
5, 14157, Note_on_c, 2, 58, 0
5, 14164, Control_c, 2, 64, 0
5, 14176, Note_on_c, 2, 57, 63
5, 14176, Note_on_c, 2, 60, 87
5, 14176, Note_on_c, 2, 65, 87
5, 14187, Control_c, 2, 64, 127
5, 14190, Note_on_c, 2, 57, 0
5, 14190, Note_on_c, 2, 65, 0
5, 14191, Note_on_c, 2, 60, 0
5, 14200, Control_c, 2, 64, 0
5, 14208, Note_on_c, 2, 55, 83
5, 14208, Note_on_c, 2, 64, 83
5, 14208, Note_on_c, 2, 60, 92
5, 14337, Note_on_c, 2, 55, 0
5, 14346, Note_on_c, 2, 60, 0
5, 14358, Note_on_c, 2, 64, 0
5, 14403, Note_on_c, 2, 48, 60
5, 14403, Control_c, 2, 64, 127
5, 14403, Note_on_c, 2, 60, 73
5, 14404, Note_on_c, 2, 64, 63
5, 14404, Note_on_c, 2, 55, 51
5, 14413, Note_on_c, 2, 60, 0
5, 14414, Note_on_c, 2, 64, 0
5, 14414, Note_on_c, 2, 55, 0
5, 14417, Note_on_c, 2, 48, 0
5, 14432, Note_on_c, 2, 60, 63
5, 14432, Note_on_c, 2, 64, 54
5, 14434, Note_on_c, 2, 55, 37
5, 14438, Note_on_c, 2, 60, 0
5, 14439, Note_on_c, 2, 64, 0
5, 14439, Note_on_c, 2, 55, 0
5, 14450, Note_on_c, 2, 60, 57
5, 14450, Note_on_c, 2, 64, 43
5, 14452, Note_on_c, 2, 55, 44
5, 14456, Note_on_c, 2, 60, 0
5, 14457, Note_on_c, 2, 64, 0
5, 14458, Note_on_c, 2, 55, 0
5, 14464, Note_on_c, 2, 64, 73
5, 14464, Note_on_c, 2, 60, 76
5, 14465, Note_on_c, 2, 55, 52
5, 14473, Note_on_c, 2, 60, 0
5, 14473, Note_on_c, 2, 55, 0
5, 14475, Note_on_c, 2, 64, 0
5, 14492, Control_c, 2, 64, 0
5, 14496, Note_on_c, 2, 62, 76
5, 14498, Note_on_c, 2, 53, 63
5, 14498, Note_on_c, 2, 58, 60
5, 14512, Note_on_c, 2, 62, 0
5, 14512, Note_on_c, 2, 53, 0
5, 14515, Note_on_c, 2, 58, 0
5, 14516, Control_c, 2, 64, 127
5, 14530, Note_on_c, 2, 58, 63
5, 14530, Note_on_c, 2, 62, 73
5, 14530, Note_on_c, 2, 53, 54
5, 14541, Note_on_c, 2, 62, 0
5, 14541, Note_on_c, 2, 53, 0
5, 14544, Note_on_c, 2, 58, 0
5, 14557, Control_c, 2, 64, 0
5, 14560, Note_on_c, 2, 60, 83
5, 14561, Note_on_c, 2, 57, 80
5, 14561, Note_on_c, 2, 53, 73
5, 14587, Note_on_c, 2, 53, 0
5, 14590, Note_on_c, 2, 57, 0
5, 14592, Note_on_c, 2, 60, 0
5, 14594, Note_on_c, 2, 48, 92
5, 14596, Control_c, 2, 64, 127
5, 14628, Note_on_c, 2, 48, 0
5, 14628, Note_on_c, 2, 55, 31
5, 14631, Note_on_c, 2, 55, 0
5, 14642, Note_on_c, 2, 64, 60
5, 14644, Note_on_c, 2, 55, 48
5, 14644, Note_on_c, 2, 60, 60
5, 14648, Note_on_c, 2, 60, 0
5, 14650, Note_on_c, 2, 64, 0
5, 14650, Note_on_c, 2, 55, 0
5, 14657, Note_on_c, 2, 64, 60
5, 14657, Note_on_c, 2, 60, 70
5, 14657, Note_on_c, 2, 55, 51
5, 14665, Note_on_c, 2, 60, 0
5, 14666, Note_on_c, 2, 64, 0
5, 14666, Note_on_c, 2, 55, 0
5, 14686, Control_c, 2, 64, 0
5, 14688, Note_on_c, 2, 64, 83
5, 14688, Note_on_c, 2, 60, 87
5, 14689, Note_on_c, 2, 55, 76
5, 14706, Note_on_c, 2, 60, 0
5, 14706, Note_on_c, 2, 55, 0
5, 14707, Note_on_c, 2, 64, 0
5, 14719, Control_c, 2, 64, 127
5, 14720, Note_on_c, 2, 60, 73
5, 14720, Note_on_c, 2, 55, 63
5, 14720, Note_on_c, 2, 64, 63
5, 14729, Note_on_c, 2, 60, 0
5, 14729, Note_on_c, 2, 55, 0
5, 14730, Note_on_c, 2, 64, 0
5, 14752, Note_on_c, 2, 64, 63
5, 14752, Note_on_c, 2, 60, 66
5, 14753, Note_on_c, 2, 55, 48
5, 14761, Note_on_c, 2, 60, 0
5, 14762, Note_on_c, 2, 64, 0
5, 14762, Note_on_c, 2, 55, 0
5, 14773, Control_c, 2, 64, 0
5, 14782, Note_on_c, 2, 62, 80
5, 14782, Note_on_c, 2, 59, 80
5, 14782, Note_on_c, 2, 55, 73
5, 14794, Control_c, 2, 64, 127
5, 14798, Note_on_c, 2, 59, 0
5, 14798, Note_on_c, 2, 55, 0
5, 14799, Note_on_c, 2, 62, 0
5, 14813, Note_on_c, 2, 59, 57
5, 14813, Note_on_c, 2, 62, 60
5, 14814, Note_on_c, 2, 55, 40
5, 14820, Note_on_c, 2, 55, 0
5, 14821, Note_on_c, 2, 59, 0
5, 14821, Note_on_c, 2, 62, 0
5, 14832, Note_on_c, 2, 59, 57
5, 14833, Note_on_c, 2, 62, 51
5, 14834, Note_on_c, 2, 55, 37
5, 14838, Note_on_c, 2, 59, 0
5, 14839, Note_on_c, 2, 62, 0
5, 14839, Note_on_c, 2, 55, 0
5, 14844, Note_on_c, 2, 62, 66
5, 14845, Note_on_c, 2, 59, 73
5, 14846, Note_on_c, 2, 55, 54
5, 14855, Note_on_c, 2, 55, 0
5, 14856, Note_on_c, 2, 62, 0
5, 14856, Note_on_c, 2, 59, 0
5, 14873, Control_c, 2, 64, 0
5, 14880, Note_on_c, 2, 60, 80
5, 14880, Note_on_c, 2, 57, 76
5, 14880, Note_on_c, 2, 53, 76
5, 14890, Note_on_c, 2, 57, 0
5, 14890, Note_on_c, 2, 53, 0
5, 14892, Note_on_c, 2, 60, 0
5, 14913, Note_on_c, 2, 57, 76
5, 14913, Note_on_c, 2, 60, 73
5, 14913, Note_on_c, 2, 53, 60
5, 14918, Control_c, 2, 64, 127
5, 14930, Note_on_c, 2, 57, 0
5, 14930, Note_on_c, 2, 53, 0
5, 14931, Note_on_c, 2, 60, 0
5, 14944, Note_on_c, 2, 60, 76
5, 14944, Note_on_c, 2, 57, 73
5, 14944, Note_on_c, 2, 53, 63
5, 14952, Note_on_c, 2, 53, 0
5, 14953, Note_on_c, 2, 57, 0
5, 14955, Note_on_c, 2, 60, 0
5, 14966, Control_c, 2, 64, 0
5, 14977, Note_on_c, 2, 59, 80
5, 14977, Note_on_c, 2, 62, 80
5, 14977, Note_on_c, 2, 55, 70
5, 14987, Control_c, 2, 64, 127
5, 14990, Note_on_c, 2, 59, 0
5, 14991, Note_on_c, 2, 55, 0
5, 14992, Note_on_c, 2, 62, 0
5, 15008, Note_on_c, 2, 59, 66
5, 15008, Note_on_c, 2, 62, 63
5, 15009, Note_on_c, 2, 55, 47
5, 15016, Note_on_c, 2, 59, 0
5, 15016, Note_on_c, 2, 62, 0
5, 15017, Note_on_c, 2, 55, 0
5, 15026, Note_on_c, 2, 62, 70
5, 15026, Note_on_c, 2, 59, 70
5, 15027, Note_on_c, 2, 55, 48
5, 15035, Note_on_c, 2, 59, 0
5, 15035, Note_on_c, 2, 55, 0
5, 15036, Note_on_c, 2, 62, 0
5, 15040, Note_on_c, 2, 62, 47
5, 15041, Note_on_c, 2, 59, 66
5, 15042, Note_on_c, 2, 55, 50
5, 15052, Note_on_c, 2, 59, 0
5, 15052, Note_on_c, 2, 55, 0
5, 15054, Note_on_c, 2, 62, 0
5, 15066, Control_c, 2, 64, 0
5, 15072, Note_on_c, 2, 62, 83
5, 15072, Note_on_c, 2, 59, 83
5, 15073, Note_on_c, 2, 55, 73
5, 15082, Note_on_c, 2, 59, 0
5, 15082, Note_on_c, 2, 55, 0
5, 15084, Note_on_c, 2, 62, 0
5, 15104, Note_on_c, 2, 62, 76
5, 15104, Note_on_c, 2, 59, 73
5, 15105, Note_on_c, 2, 55, 52
5, 15112, Note_on_c, 2, 59, 0
5, 15112, Note_on_c, 2, 55, 0
5, 15114, Note_on_c, 2, 62, 0
5, 15132, Control_c, 2, 64, 127
5, 15133, Note_on_c, 2, 62, 76
5, 15134, Note_on_c, 2, 59, 63
5, 15134, Note_on_c, 2, 55, 47
5, 15140, Note_on_c, 2, 59, 0
5, 15140, Note_on_c, 2, 55, 0
5, 15144, Note_on_c, 2, 62, 0
5, 15165, Control_c, 2, 64, 0
5, 15166, Note_on_c, 2, 62, 57
5, 15166, Note_on_c, 2, 67, 63
5, 15166, Note_on_c, 2, 65, 63
5, 15168, Note_on_c, 2, 59, 37
5, 15176, Note_on_c, 2, 62, 0
5, 15176, Note_on_c, 2, 67, 0
5, 15176, Note_on_c, 2, 65, 0
5, 15176, Note_on_c, 2, 59, 0
5, 15184, Control_c, 2, 64, 127
5, 15197, Note_on_c, 2, 62, 73
5, 15198, Note_on_c, 2, 67, 66
5, 15198, Note_on_c, 2, 59, 48
5, 15205, Note_on_c, 2, 62, 0
5, 15205, Note_on_c, 2, 59, 0
5, 15207, Note_on_c, 2, 67, 0
5, 15213, Note_on_c, 2, 67, 63
5, 15213, Note_on_c, 2, 62, 66
5, 15214, Note_on_c, 2, 59, 54
5, 15222, Note_on_c, 2, 62, 0
5, 15222, Note_on_c, 2, 59, 0
5, 15224, Note_on_c, 2, 67, 0
5, 15229, Note_on_c, 2, 67, 76
5, 15229, Note_on_c, 2, 62, 80
5, 15230, Note_on_c, 2, 59, 60
5, 15238, Note_on_c, 2, 59, 0
5, 15240, Note_on_c, 2, 62, 0
5, 15242, Note_on_c, 2, 67, 0
5, 15262, Control_c, 2, 64, 0
5, 15263, Note_on_c, 2, 65, 73
5, 15264, Note_on_c, 2, 57, 70
5, 15264, Note_on_c, 2, 60, 73
5, 15272, Note_on_c, 2, 60, 0
5, 15273, Note_on_c, 2, 57, 0
5, 15275, Note_on_c, 2, 65, 0
5, 15295, Note_on_c, 2, 65, 76
5, 15295, Note_on_c, 2, 60, 80
5, 15295, Note_on_c, 2, 57, 73
5, 15300, Control_c, 2, 64, 127
5, 15312, Note_on_c, 2, 57, 0
5, 15313, Note_on_c, 2, 60, 0
5, 15314, Note_on_c, 2, 65, 0
5, 15326, Note_on_c, 2, 65, 66
5, 15326, Note_on_c, 2, 60, 70
5, 15326, Note_on_c, 2, 57, 52
5, 15336, Note_on_c, 2, 57, 0
5, 15338, Note_on_c, 2, 60, 0
5, 15342, Note_on_c, 2, 65, 0
5, 15351, Control_c, 2, 64, 0
5, 15358, Note_on_c, 2, 62, 70
5, 15359, Note_on_c, 2, 67, 73
5, 15359, Note_on_c, 2, 59, 52
5, 15374, Control_c, 2, 64, 127
5, 15376, Note_on_c, 2, 62, 0
5, 15376, Note_on_c, 2, 59, 0
5, 15378, Note_on_c, 2, 67, 0
5, 15390, Note_on_c, 2, 62, 60
5, 15391, Note_on_c, 2, 59, 48
5, 15391, Note_on_c, 2, 67, 54
5, 15398, Note_on_c, 2, 62, 0
5, 15398, Note_on_c, 2, 67, 0
5, 15399, Note_on_c, 2, 59, 0
5, 15408, Note_on_c, 2, 67, 52
5, 15408, Note_on_c, 2, 62, 63
5, 15409, Note_on_c, 2, 59, 47
5, 15415, Note_on_c, 2, 62, 0
5, 15416, Note_on_c, 2, 67, 0
5, 15416, Note_on_c, 2, 59, 0
5, 15423, Note_on_c, 2, 62, 66
5, 15423, Note_on_c, 2, 67, 60
5, 15424, Note_on_c, 2, 59, 48
5, 15430, Note_on_c, 2, 59, 0
5, 15431, Note_on_c, 2, 62, 0
5, 15433, Note_on_c, 2, 67, 0
5, 15452, Control_c, 2, 64, 0
5, 15454, Note_on_c, 2, 67, 80
5, 15455, Note_on_c, 2, 62, 80
5, 15455, Note_on_c, 2, 59, 73
5, 15465, Note_on_c, 2, 62, 0
5, 15466, Note_on_c, 2, 59, 0
5, 15468, Note_on_c, 2, 67, 0
5, 15483, Control_c, 2, 64, 127
5, 15487, Note_on_c, 2, 67, 73
5, 15487, Note_on_c, 2, 59, 66
5, 15487, Note_on_c, 2, 62, 76
5, 15494, Note_on_c, 2, 62, 0
5, 15496, Note_on_c, 2, 59, 0
5, 15497, Note_on_c, 2, 67, 0
5, 15518, Note_on_c, 2, 67, 70
5, 15519, Note_on_c, 2, 59, 52
5, 15519, Note_on_c, 2, 62, 60
5, 15526, Note_on_c, 2, 59, 0
5, 15526, Note_on_c, 2, 62, 0
5, 15529, Note_on_c, 2, 67, 0
5, 15545, Control_c, 2, 64, 0
5, 15549, Note_on_c, 2, 48, 73
5, 15550, Note_on_c, 2, 64, 76
5, 15551, Note_on_c, 2, 60, 70
5, 15564, Note_on_c, 2, 64, 0
5, 15564, Note_on_c, 2, 60, 0
5, 15567, Control_c, 2, 64, 127
5, 15582, Note_on_c, 2, 64, 57
5, 15583, Note_on_c, 2, 60, 51
5, 15590, Note_on_c, 2, 64, 0
5, 15591, Note_on_c, 2, 60, 0
5, 15594, Note_on_c, 2, 48, 0
5, 15602, Note_on_c, 2, 64, 70
5, 15602, Note_on_c, 2, 60, 57
5, 15607, Note_on_c, 2, 64, 0
5, 15609, Note_on_c, 2, 60, 0
5, 15615, Note_on_c, 2, 60, 66
5, 15615, Note_on_c, 2, 64, 87
5, 15622, Note_on_c, 2, 64, 0
5, 15624, Note_on_c, 2, 60, 0
5, 15646, Control_c, 2, 64, 0
5, 15650, Note_on_c, 2, 62, 83
5, 15650, Note_on_c, 2, 53, 73
5, 15650, Note_on_c, 2, 58, 70
5, 15658, Note_on_c, 2, 53, 0
5, 15659, Note_on_c, 2, 62, 0
5, 15660, Note_on_c, 2, 58, 0
5, 15681, Note_on_c, 2, 58, 73
5, 15681, Note_on_c, 2, 62, 87
5, 15681, Note_on_c, 2, 53, 80
5, 15682, Control_c, 2, 64, 127
5, 15694, Note_on_c, 2, 62, 0
5, 15696, Note_on_c, 2, 53, 0
5, 15699, Note_on_c, 2, 58, 0
5, 15714, Note_on_c, 2, 60, 83
5, 15714, Note_on_c, 2, 57, 83
5, 15714, Note_on_c, 2, 53, 76
5, 15736, Note_on_c, 2, 53, 0
5, 15738, Note_on_c, 2, 57, 0
5, 15740, Note_on_c, 2, 60, 0
5, 15740, Control_c, 2, 64, 0
5, 15746, Note_on_c, 2, 48, 80
5, 15770, Control_c, 2, 64, 127
5, 15777, Note_on_c, 2, 60, 70
5, 15808, Note_on_c, 2, 55, 76
5, 15812, Note_on_c, 2, 60, 0
5, 15835, Note_on_c, 2, 55, 0
5, 15840, Note_on_c, 2, 64, 83
5, 15840, Note_on_c, 2, 60, 73
5, 15850, Note_on_c, 2, 64, 0
5, 15850, Note_on_c, 2, 60, 0
5, 15868, Note_on_c, 2, 48, 0
5, 15872, Note_on_c, 2, 64, 76
5, 15872, Note_on_c, 2, 60, 63
5, 15879, Note_on_c, 2, 64, 0
5, 15880, Note_on_c, 2, 60, 0
5, 15889, Note_on_c, 2, 64, 80
5, 15889, Note_on_c, 2, 60, 63
5, 15895, Control_c, 2, 64, 0
5, 15896, Note_on_c, 2, 64, 0
5, 15898, Note_on_c, 2, 60, 0
5, 15906, Note_on_c, 2, 60, 66
5, 15906, Note_on_c, 2, 64, 73
5, 15916, Note_on_c, 2, 60, 0
5, 15916, Note_on_c, 2, 64, 0
5, 15939, Note_on_c, 2, 48, 60
5, 15939, Control_c, 2, 64, 127
5, 15939, Note_on_c, 2, 60, 73
5, 15940, Note_on_c, 2, 64, 63
5, 15940, Note_on_c, 2, 55, 51
5, 15949, Note_on_c, 2, 60, 0
5, 15950, Note_on_c, 2, 64, 0
5, 15950, Note_on_c, 2, 55, 0
5, 15953, Note_on_c, 2, 48, 0
5, 15968, Note_on_c, 2, 60, 63
5, 15968, Note_on_c, 2, 64, 54
5, 15970, Note_on_c, 2, 55, 37
5, 15974, Note_on_c, 2, 60, 0
5, 15975, Note_on_c, 2, 64, 0
5, 15975, Note_on_c, 2, 55, 0
5, 15986, Note_on_c, 2, 60, 57
5, 15986, Note_on_c, 2, 64, 43
5, 15988, Note_on_c, 2, 55, 44
5, 15992, Note_on_c, 2, 60, 0
5, 15993, Note_on_c, 2, 64, 0
5, 15994, Note_on_c, 2, 55, 0
5, 16000, Note_on_c, 2, 64, 73
5, 16000, Note_on_c, 2, 60, 76
5, 16001, Note_on_c, 2, 55, 52
5, 16009, Note_on_c, 2, 60, 0
5, 16009, Note_on_c, 2, 55, 0
5, 16011, Note_on_c, 2, 64, 0
5, 16028, Control_c, 2, 64, 0
5, 16032, Note_on_c, 2, 62, 76
5, 16034, Note_on_c, 2, 53, 63
5, 16034, Note_on_c, 2, 58, 60
5, 16048, Note_on_c, 2, 62, 0
5, 16048, Note_on_c, 2, 53, 0
5, 16051, Note_on_c, 2, 58, 0
5, 16052, Control_c, 2, 64, 127
5, 16066, Note_on_c, 2, 58, 63
5, 16066, Note_on_c, 2, 62, 73
5, 16066, Note_on_c, 2, 53, 54
5, 16077, Note_on_c, 2, 62, 0
5, 16077, Note_on_c, 2, 53, 0
5, 16080, Note_on_c, 2, 58, 0
5, 16093, Control_c, 2, 64, 0
5, 16096, Note_on_c, 2, 60, 83
5, 16097, Note_on_c, 2, 57, 80
5, 16097, Note_on_c, 2, 53, 73
5, 16123, Note_on_c, 2, 53, 0
5, 16126, Note_on_c, 2, 57, 0
5, 16128, Note_on_c, 2, 60, 0
5, 16130, Note_on_c, 2, 48, 92
5, 16132, Control_c, 2, 64, 127
5, 16164, Note_on_c, 2, 48, 0
5, 16164, Note_on_c, 2, 55, 31
5, 16167, Note_on_c, 2, 55, 0
5, 16178, Note_on_c, 2, 64, 60
5, 16180, Note_on_c, 2, 55, 48
5, 16180, Note_on_c, 2, 60, 60
5, 16184, Note_on_c, 2, 60, 0
5, 16186, Note_on_c, 2, 64, 0
5, 16186, Note_on_c, 2, 55, 0
5, 16193, Note_on_c, 2, 64, 60
5, 16193, Note_on_c, 2, 60, 70
5, 16193, Note_on_c, 2, 55, 51
5, 16201, Note_on_c, 2, 60, 0
5, 16202, Note_on_c, 2, 64, 0
5, 16202, Note_on_c, 2, 55, 0
5, 16222, Control_c, 2, 64, 0
5, 16224, Note_on_c, 2, 64, 83
5, 16224, Note_on_c, 2, 60, 87
5, 16225, Note_on_c, 2, 55, 76
5, 16242, Note_on_c, 2, 60, 0
5, 16242, Note_on_c, 2, 55, 0
5, 16243, Note_on_c, 2, 64, 0
5, 16255, Control_c, 2, 64, 127
5, 16256, Note_on_c, 2, 60, 73
5, 16256, Note_on_c, 2, 55, 63
5, 16256, Note_on_c, 2, 64, 63
5, 16265, Note_on_c, 2, 60, 0
5, 16265, Note_on_c, 2, 55, 0
5, 16266, Note_on_c, 2, 64, 0
5, 16288, Note_on_c, 2, 64, 63
5, 16288, Note_on_c, 2, 60, 66
5, 16289, Note_on_c, 2, 55, 48
5, 16297, Note_on_c, 2, 60, 0
5, 16298, Note_on_c, 2, 64, 0
5, 16298, Note_on_c, 2, 55, 0
5, 16309, Control_c, 2, 64, 0
5, 16318, Note_on_c, 2, 62, 80
5, 16318, Note_on_c, 2, 59, 80
5, 16318, Note_on_c, 2, 55, 73
5, 16330, Control_c, 2, 64, 127
5, 16334, Note_on_c, 2, 59, 0
5, 16334, Note_on_c, 2, 55, 0
5, 16335, Note_on_c, 2, 62, 0
5, 16349, Note_on_c, 2, 59, 57
5, 16349, Note_on_c, 2, 62, 60
5, 16350, Note_on_c, 2, 55, 40
5, 16356, Note_on_c, 2, 55, 0
5, 16357, Note_on_c, 2, 59, 0
5, 16357, Note_on_c, 2, 62, 0
5, 16368, Note_on_c, 2, 59, 57
5, 16369, Note_on_c, 2, 62, 51
5, 16370, Note_on_c, 2, 55, 37
5, 16374, Note_on_c, 2, 59, 0
5, 16375, Note_on_c, 2, 62, 0
5, 16375, Note_on_c, 2, 55, 0
5, 16380, Note_on_c, 2, 62, 66
5, 16381, Note_on_c, 2, 59, 73
5, 16382, Note_on_c, 2, 55, 54
5, 16391, Note_on_c, 2, 55, 0
5, 16392, Note_on_c, 2, 62, 0
5, 16392, Note_on_c, 2, 59, 0
5, 16409, Control_c, 2, 64, 0
5, 16416, Note_on_c, 2, 60, 80
5, 16416, Note_on_c, 2, 57, 76
5, 16416, Note_on_c, 2, 53, 76
5, 16426, Note_on_c, 2, 57, 0
5, 16426, Note_on_c, 2, 53, 0
5, 16428, Note_on_c, 2, 60, 0
5, 16449, Note_on_c, 2, 57, 76
5, 16449, Note_on_c, 2, 60, 73
5, 16449, Note_on_c, 2, 53, 60
5, 16454, Control_c, 2, 64, 127
5, 16466, Note_on_c, 2, 57, 0
5, 16466, Note_on_c, 2, 53, 0
5, 16467, Note_on_c, 2, 60, 0
5, 16480, Note_on_c, 2, 60, 76
5, 16480, Note_on_c, 2, 57, 73
5, 16480, Note_on_c, 2, 53, 63
5, 16488, Note_on_c, 2, 53, 0
5, 16489, Note_on_c, 2, 57, 0
5, 16491, Note_on_c, 2, 60, 0
5, 16502, Control_c, 2, 64, 0
5, 16513, Note_on_c, 2, 59, 80
5, 16513, Note_on_c, 2, 62, 80
5, 16513, Note_on_c, 2, 55, 70
5, 16523, Control_c, 2, 64, 127
5, 16526, Note_on_c, 2, 59, 0
5, 16527, Note_on_c, 2, 55, 0
5, 16528, Note_on_c, 2, 62, 0
5, 16544, Note_on_c, 2, 59, 66
5, 16544, Note_on_c, 2, 62, 63
5, 16545, Note_on_c, 2, 55, 47
5, 16552, Note_on_c, 2, 59, 0
5, 16552, Note_on_c, 2, 62, 0
5, 16553, Note_on_c, 2, 55, 0
5, 16562, Note_on_c, 2, 62, 70
5, 16562, Note_on_c, 2, 59, 70
5, 16563, Note_on_c, 2, 55, 48
5, 16571, Note_on_c, 2, 59, 0
5, 16571, Note_on_c, 2, 55, 0
5, 16572, Note_on_c, 2, 62, 0
5, 16576, Note_on_c, 2, 62, 47
5, 16577, Note_on_c, 2, 59, 66
5, 16578, Note_on_c, 2, 55, 50
5, 16588, Note_on_c, 2, 59, 0
5, 16588, Note_on_c, 2, 55, 0
5, 16590, Note_on_c, 2, 62, 0
5, 16602, Control_c, 2, 64, 0
5, 16608, Note_on_c, 2, 62, 83
5, 16608, Note_on_c, 2, 59, 83
5, 16609, Note_on_c, 2, 55, 73
5, 16618, Note_on_c, 2, 59, 0
5, 16618, Note_on_c, 2, 55, 0
5, 16620, Note_on_c, 2, 62, 0
5, 16640, Note_on_c, 2, 62, 76
5, 16640, Note_on_c, 2, 59, 73
5, 16641, Note_on_c, 2, 55, 52
5, 16648, Note_on_c, 2, 59, 0
5, 16648, Note_on_c, 2, 55, 0
5, 16650, Note_on_c, 2, 62, 0
5, 16668, Control_c, 2, 64, 127
5, 16669, Note_on_c, 2, 62, 76
5, 16670, Note_on_c, 2, 59, 63
5, 16670, Note_on_c, 2, 55, 47
5, 16676, Note_on_c, 2, 59, 0
5, 16676, Note_on_c, 2, 55, 0
5, 16680, Note_on_c, 2, 62, 0
5, 16701, Control_c, 2, 64, 0
5, 16702, Note_on_c, 2, 62, 57
5, 16702, Note_on_c, 2, 67, 63
5, 16702, Note_on_c, 2, 65, 63
5, 16704, Note_on_c, 2, 59, 37
5, 16712, Note_on_c, 2, 62, 0
5, 16712, Note_on_c, 2, 67, 0
5, 16712, Note_on_c, 2, 65, 0
5, 16712, Note_on_c, 2, 59, 0
5, 16720, Control_c, 2, 64, 127
5, 16733, Note_on_c, 2, 62, 73
5, 16734, Note_on_c, 2, 67, 66
5, 16734, Note_on_c, 2, 59, 48
5, 16741, Note_on_c, 2, 62, 0
5, 16741, Note_on_c, 2, 59, 0
5, 16743, Note_on_c, 2, 67, 0
5, 16749, Note_on_c, 2, 67, 63
5, 16749, Note_on_c, 2, 62, 66
5, 16750, Note_on_c, 2, 59, 54
5, 16758, Note_on_c, 2, 62, 0
5, 16758, Note_on_c, 2, 59, 0
5, 16760, Note_on_c, 2, 67, 0
5, 16765, Note_on_c, 2, 67, 76
5, 16765, Note_on_c, 2, 62, 80
5, 16766, Note_on_c, 2, 59, 60
5, 16774, Note_on_c, 2, 59, 0
5, 16776, Note_on_c, 2, 62, 0
5, 16778, Note_on_c, 2, 67, 0
5, 16798, Control_c, 2, 64, 0
5, 16799, Note_on_c, 2, 65, 73
5, 16800, Note_on_c, 2, 57, 70
5, 16800, Note_on_c, 2, 60, 73
5, 16808, Note_on_c, 2, 60, 0
5, 16809, Note_on_c, 2, 57, 0
5, 16811, Note_on_c, 2, 65, 0
5, 16831, Note_on_c, 2, 65, 76
5, 16831, Note_on_c, 2, 60, 80
5, 16831, Note_on_c, 2, 57, 73
5, 16836, Control_c, 2, 64, 127
5, 16848, Note_on_c, 2, 57, 0
5, 16849, Note_on_c, 2, 60, 0
5, 16850, Note_on_c, 2, 65, 0
5, 16862, Note_on_c, 2, 65, 66
5, 16862, Note_on_c, 2, 60, 70
5, 16862, Note_on_c, 2, 57, 52
5, 16872, Note_on_c, 2, 57, 0
5, 16874, Note_on_c, 2, 60, 0
5, 16878, Note_on_c, 2, 65, 0
5, 16887, Control_c, 2, 64, 0
5, 16894, Note_on_c, 2, 62, 70
5, 16895, Note_on_c, 2, 67, 73
5, 16895, Note_on_c, 2, 59, 52
5, 16910, Control_c, 2, 64, 127
5, 16912, Note_on_c, 2, 62, 0
5, 16912, Note_on_c, 2, 59, 0
5, 16914, Note_on_c, 2, 67, 0
5, 16926, Note_on_c, 2, 62, 60
5, 16927, Note_on_c, 2, 59, 48
5, 16927, Note_on_c, 2, 67, 54
5, 16934, Note_on_c, 2, 62, 0
5, 16934, Note_on_c, 2, 67, 0
5, 16935, Note_on_c, 2, 59, 0
5, 16944, Note_on_c, 2, 67, 52
5, 16944, Note_on_c, 2, 62, 63
5, 16945, Note_on_c, 2, 59, 47
5, 16951, Note_on_c, 2, 62, 0
5, 16952, Note_on_c, 2, 67, 0
5, 16952, Note_on_c, 2, 59, 0
5, 16959, Note_on_c, 2, 62, 66
5, 16959, Note_on_c, 2, 67, 60
5, 16960, Note_on_c, 2, 59, 48
5, 16966, Note_on_c, 2, 59, 0
5, 16967, Note_on_c, 2, 62, 0
5, 16969, Note_on_c, 2, 67, 0
5, 16988, Control_c, 2, 64, 0
5, 16990, Note_on_c, 2, 67, 80
5, 16991, Note_on_c, 2, 62, 80
5, 16991, Note_on_c, 2, 59, 73
5, 17001, Note_on_c, 2, 62, 0
5, 17002, Note_on_c, 2, 59, 0
5, 17004, Note_on_c, 2, 67, 0
5, 17019, Control_c, 2, 64, 127
5, 17023, Note_on_c, 2, 67, 73
5, 17023, Note_on_c, 2, 59, 66
5, 17023, Note_on_c, 2, 62, 76
5, 17030, Note_on_c, 2, 62, 0
5, 17032, Note_on_c, 2, 59, 0
5, 17033, Note_on_c, 2, 67, 0
5, 17054, Note_on_c, 2, 67, 70
5, 17055, Note_on_c, 2, 59, 52
5, 17055, Note_on_c, 2, 62, 60
5, 17062, Note_on_c, 2, 59, 0
5, 17062, Note_on_c, 2, 62, 0
5, 17065, Note_on_c, 2, 67, 0
5, 17081, Control_c, 2, 64, 0
5, 17085, Note_on_c, 2, 48, 73
5, 17086, Note_on_c, 2, 64, 76
5, 17087, Note_on_c, 2, 60, 70
5, 17088, Note_on_c, 2, 48, 0
5, 17088, Note_on_c, 2, 64, 0
5, 17088, Note_on_c, 2, 60, 0
5, 17088, Note_on_c, 2, 55, 76
5, 17088, Note_on_c, 2, 64, 83
5, 17088, Note_on_c, 2, 60, 87
5, 17088, Note_on_c, 2, 48, 87
5, 17092, Control_c, 2, 64, 127
5, 17098, Note_on_c, 2, 55, 0
5, 17098, Note_on_c, 2, 60, 0
5, 17099, Note_on_c, 2, 64, 0
5, 17102, Note_on_c, 2, 48, 0
5, 17120, Note_on_c, 2, 55, 63
5, 17120, Note_on_c, 2, 60, 73
5, 17120, Note_on_c, 2, 64, 70
5, 17125, Note_on_c, 2, 60, 0
5, 17126, Note_on_c, 2, 55, 0
5, 17127, Note_on_c, 2, 64, 0
5, 17136, Note_on_c, 2, 55, 60
5, 17136, Note_on_c, 2, 60, 83
5, 17136, Note_on_c, 2, 64, 76
5, 17141, Note_on_c, 2, 60, 0
5, 17142, Note_on_c, 2, 55, 0
5, 17144, Note_on_c, 2, 64, 0
5, 17152, Note_on_c, 2, 55, 76
5, 17152, Note_on_c, 2, 60, 92
5, 17152, Note_on_c, 2, 64, 87
5, 17158, Note_on_c, 2, 55, 0
5, 17159, Note_on_c, 2, 60, 0
5, 17160, Note_on_c, 2, 64, 0
5, 17172, Control_c, 2, 64, 0
5, 17184, Note_on_c, 2, 58, 80
5, 17184, Note_on_c, 2, 53, 76
5, 17184, Note_on_c, 2, 62, 92
5, 17202, Note_on_c, 2, 58, 0
5, 17202, Note_on_c, 2, 53, 0
5, 17203, Note_on_c, 2, 62, 0
5, 17204, Control_c, 2, 64, 127
5, 17216, Note_on_c, 2, 62, 96
5, 17216, Note_on_c, 2, 58, 83
5, 17216, Note_on_c, 2, 53, 76
5, 17223, Note_on_c, 2, 53, 0
5, 17225, Note_on_c, 2, 62, 0
5, 17226, Note_on_c, 2, 58, 0
5, 17246, Control_c, 2, 64, 0
5, 17248, Note_on_c, 2, 57, 76
5, 17248, Note_on_c, 2, 60, 92
5, 17248, Note_on_c, 2, 65, 87
5, 17257, Note_on_c, 2, 60, 0
5, 17259, Note_on_c, 2, 57, 0
5, 17259, Note_on_c, 2, 65, 0
5, 17277, Control_c, 2, 64, 127
5, 17280, Note_on_c, 2, 60, 92
5, 17280, Note_on_c, 2, 64, 83
5, 17280, Note_on_c, 2, 55, 87
5, 17291, Note_on_c, 2, 60, 0
5, 17291, Note_on_c, 2, 55, 0
5, 17292, Note_on_c, 2, 64, 0
5, 17312, Note_on_c, 2, 60, 73
5, 17312, Note_on_c, 2, 55, 63
5, 17312, Note_on_c, 2, 64, 70
5, 17317, Note_on_c, 2, 60, 0
5, 17319, Note_on_c, 2, 55, 0
5, 17319, Note_on_c, 2, 64, 0
5, 17328, Note_on_c, 2, 60, 87
5, 17328, Note_on_c, 2, 55, 73
5, 17328, Note_on_c, 2, 64, 80
5, 17334, Note_on_c, 2, 60, 0
5, 17334, Note_on_c, 2, 55, 0
5, 17336, Note_on_c, 2, 64, 0
5, 17344, Note_on_c, 2, 55, 76
5, 17344, Note_on_c, 2, 60, 87
5, 17344, Note_on_c, 2, 64, 83
5, 17351, Note_on_c, 2, 55, 0
5, 17351, Note_on_c, 2, 60, 0
5, 17353, Note_on_c, 2, 64, 0
5, 17366, Control_c, 2, 64, 0
5, 17376, Note_on_c, 2, 58, 73
5, 17376, Note_on_c, 2, 53, 83
5, 17376, Note_on_c, 2, 62, 87
5, 17385, Control_c, 2, 64, 127
5, 17389, Note_on_c, 2, 53, 0
5, 17390, Note_on_c, 2, 58, 0
5, 17390, Note_on_c, 2, 62, 0
5, 17408, Note_on_c, 2, 58, 83
5, 17408, Note_on_c, 2, 62, 92
5, 17408, Note_on_c, 2, 53, 76
5, 17416, Note_on_c, 2, 53, 0
5, 17418, Note_on_c, 2, 62, 0
5, 17419, Note_on_c, 2, 58, 0
5, 17430, Control_c, 2, 64, 0
5, 17440, Note_on_c, 2, 57, 83
5, 17440, Note_on_c, 2, 60, 92
5, 17440, Note_on_c, 2, 65, 76
5, 17452, Note_on_c, 2, 57, 0
5, 17452, Note_on_c, 2, 60, 0
5, 17452, Note_on_c, 2, 65, 0
5, 17470, Control_c, 2, 64, 127
5, 17472, Note_on_c, 2, 55, 83
5, 17472, Note_on_c, 2, 60, 87
5, 17472, Note_on_c, 2, 64, 80
5, 17484, Note_on_c, 2, 55, 0
5, 17484, Note_on_c, 2, 60, 0
5, 17486, Note_on_c, 2, 64, 0
5, 17504, Note_on_c, 2, 55, 60
5, 17504, Note_on_c, 2, 64, 70
5, 17504, Note_on_c, 2, 60, 80
5, 17510, Note_on_c, 2, 55, 0
5, 17510, Note_on_c, 2, 60, 0
5, 17511, Note_on_c, 2, 64, 0
5, 17520, Note_on_c, 2, 60, 87
5, 17520, Note_on_c, 2, 55, 73
5, 17520, Note_on_c, 2, 64, 76
5, 17526, Note_on_c, 2, 60, 0
5, 17527, Note_on_c, 2, 55, 0
5, 17528, Note_on_c, 2, 64, 0
5, 17536, Note_on_c, 2, 55, 76
5, 17536, Note_on_c, 2, 60, 83
5, 17536, Note_on_c, 2, 64, 83
5, 17544, Note_on_c, 2, 55, 0
5, 17544, Note_on_c, 2, 60, 0
5, 17546, Note_on_c, 2, 64, 0
5, 17554, Control_c, 2, 64, 0
5, 17568, Note_on_c, 2, 58, 73
5, 17568, Note_on_c, 2, 53, 80
5, 17568, Note_on_c, 2, 62, 92
5, 17577, Control_c, 2, 64, 127
5, 17580, Note_on_c, 2, 58, 0
5, 17580, Note_on_c, 2, 53, 0
5, 17581, Note_on_c, 2, 62, 0
5, 17600, Note_on_c, 2, 58, 73
5, 17600, Note_on_c, 2, 53, 76
5, 17600, Note_on_c, 2, 62, 92
5, 17609, Note_on_c, 2, 53, 0
5, 17612, Note_on_c, 2, 62, 0
5, 17613, Note_on_c, 2, 58, 0
5, 17620, Control_c, 2, 64, 0
5, 17632, Note_on_c, 2, 57, 63
5, 17632, Note_on_c, 2, 60, 87
5, 17632, Note_on_c, 2, 65, 87
5, 17643, Control_c, 2, 64, 127
5, 17646, Note_on_c, 2, 57, 0
5, 17646, Note_on_c, 2, 65, 0
5, 17647, Note_on_c, 2, 60, 0
5, 17656, Control_c, 2, 64, 0
5, 17664, Note_on_c, 2, 60, 92
5, 17664, Note_on_c, 2, 64, 83
5, 17664, Note_on_c, 2, 55, 83
5, 18441, Note_on_c, 2, 55, 0
5, 18496, Note_on_c, 2, 60, 0
5, 18568, Note_on_c, 2, 64, 0
5, 18568, End_track
6, 0, Start_track
6, 0, Control_c, 3, 0, 0
6, 0, Program_c, 3, 48
6, 0, Control_c, 3, 10, 76
6, 0, Time_signature, 4, 2, 96, 8
6, 0, Tempo, 853485
6, 0, Control_c, 3, 7, 94
6, 38, Control_c, 3, 10, 76
6, 43, Control_c, 3, 10, 76
6, 384, Note_on_c, 3, 67, 69
6, 480, Note_on_c, 3, 70, 76
6, 484, Note_on_c, 3, 67, 0
6, 537, Note_on_c, 3, 70, 0
6, 544, Note_on_c, 3, 69, 76
6, 572, Note_on_c, 3, 69, 0
6, 576, Note_on_c, 3, 67, 80
6, 662, Note_on_c, 3, 67, 0
6, 672, Note_on_c, 3, 70, 72
6, 729, Note_on_c, 3, 70, 0
6, 736, Note_on_c, 3, 69, 83
6, 758, Note_on_c, 3, 69, 0
6, 768, Note_on_c, 3, 67, 83
6, 849, Note_on_c, 3, 67, 0
6, 864, Note_on_c, 3, 70, 69
6, 924, Note_on_c, 3, 70, 0
6, 928, Note_on_c, 3, 69, 72
6, 960, Note_on_c, 3, 69, 0
6, 960, Note_on_c, 3, 67, 62
6, 1082, Note_on_c, 3, 67, 0
6, 4224, Time_signature, 1, 2, 96, 8
6, 4320, Time_signature, 4, 2, 96, 8
6, 4320, Note_on_c, 3, 48, 50
6, 4320, Note_on_c, 3, 67, 49
6, 4320, Note_on_c, 3, 72, 55
6, 4320, Note_on_c, 3, 76, 50
6, 4386, Note_on_c, 3, 93, 59
6, 4422, Note_on_c, 3, 93, 0
6, 4422, Note_on_c, 3, 91, 62
6, 4480, Note_on_c, 3, 91, 0
6, 4482, Note_on_c, 3, 93, 59
6, 4518, Note_on_c, 3, 91, 49
6, 4520, Note_on_c, 3, 93, 0
6, 4613, Control_c, 3, 64, 127
6, 4622, Note_on_c, 3, 72, 0
6, 4625, Note_on_c, 3, 76, 0
6, 4639, Note_on_c, 3, 48, 0
6, 4646, Note_on_c, 3, 67, 0
6, 4700, Control_c, 3, 64, 0
6, 4700, Note_on_c, 3, 71, 62
6, 4700, Note_on_c, 3, 65, 50
6, 4702, Note_on_c, 3, 74, 49
6, 4703, Note_on_c, 3, 91, 0
6, 4703, Note_on_c, 3, 55, 62
6, 4771, Note_on_c, 3, 93, 69
6, 4806, Note_on_c, 3, 93, 0
6, 4806, Note_on_c, 3, 91, 55
6, 4863, Note_on_c, 3, 91, 0
6, 4864, Note_on_c, 3, 93, 59
6, 4897, Note_on_c, 3, 91, 45
6, 4899, Note_on_c, 3, 93, 0
6, 5089, Note_on_c, 3, 91, 0
6, 5153, Note_on_c, 3, 93, 59
6, 5187, Note_on_c, 3, 93, 0
6, 5187, Note_on_c, 3, 91, 50
6, 5249, Note_on_c, 3, 91, 0
6, 5251, Note_on_c, 3, 93, 52
6, 5282, Note_on_c, 3, 91, 50
6, 5285, Note_on_c, 3, 93, 0
6, 5306, Control_c, 3, 64, 127
6, 5348, Control_c, 3, 64, 0
6, 5390, Control_c, 3, 64, 127
6, 5414, Note_on_c, 3, 71, 0
6, 5414, Note_on_c, 3, 74, 0
6, 5418, Note_on_c, 3, 65, 0
6, 5428, Note_on_c, 3, 55, 0
6, 5463, Note_on_c, 3, 91, 0
6, 5466, Control_c, 3, 64, 0
6, 5469, Note_on_c, 3, 67, 65
6, 5470, Note_on_c, 3, 64, 52
6, 5470, Note_on_c, 3, 72, 69
6, 5537, Note_on_c, 3, 88, 65
6, 5571, Note_on_c, 3, 88, 0
6, 5573, Note_on_c, 3, 84, 69
6, 5626, Note_on_c, 3, 84, 0
6, 5628, Note_on_c, 3, 81, 62
6, 5662, Note_on_c, 3, 81, 0
6, 5663, Note_on_c, 3, 84, 50
6, 5818, Note_on_c, 3, 64, 0
6, 5821, Note_on_c, 3, 67, 0
6, 5824, Note_on_c, 3, 84, 0
6, 5827, Note_on_c, 3, 72, 0
6, 5856, Note_on_c, 3, 72, 55
6, 5856, Note_on_c, 3, 76, 50
6, 5856, Note_on_c, 3, 67, 49
6, 5856, Note_on_c, 3, 48, 50
6, 5922, Note_on_c, 3, 93, 59
6, 5958, Note_on_c, 3, 93, 0
6, 5958, Note_on_c, 3, 91, 62
6, 6016, Note_on_c, 3, 91, 0
6, 6018, Note_on_c, 3, 93, 59
6, 6054, Note_on_c, 3, 91, 49
6, 6056, Note_on_c, 3, 93, 0
6, 6149, Control_c, 3, 64, 127
6, 6158, Note_on_c, 3, 72, 0
6, 6160, Note_on_c, 3, 76, 0
6, 6175, Note_on_c, 3, 48, 0
6, 6180, Note_on_c, 3, 67, 0
6, 6236, Control_c, 3, 64, 0
6, 6236, Note_on_c, 3, 71, 62
6, 6236, Note_on_c, 3, 65, 50
6, 6238, Note_on_c, 3, 74, 49
6, 6239, Note_on_c, 3, 91, 0
6, 6239, Note_on_c, 3, 55, 62
6, 6307, Note_on_c, 3, 93, 69
6, 6342, Note_on_c, 3, 93, 0
6, 6342, Note_on_c, 3, 91, 55
6, 6399, Note_on_c, 3, 91, 0
6, 6400, Note_on_c, 3, 93, 59
6, 6433, Note_on_c, 3, 91, 45
6, 6435, Note_on_c, 3, 93, 0
6, 6625, Note_on_c, 3, 91, 0
6, 6689, Note_on_c, 3, 93, 59
6, 6723, Note_on_c, 3, 93, 0
6, 6723, Note_on_c, 3, 91, 50
6, 6785, Note_on_c, 3, 91, 0
6, 6787, Note_on_c, 3, 93, 52
6, 6818, Note_on_c, 3, 91, 50
6, 6821, Note_on_c, 3, 93, 0
6, 6842, Control_c, 3, 64, 127
6, 6884, Control_c, 3, 64, 0
6, 6926, Control_c, 3, 64, 127
6, 6950, Note_on_c, 3, 71, 0
6, 6950, Note_on_c, 3, 74, 0
6, 6954, Note_on_c, 3, 65, 0
6, 6964, Note_on_c, 3, 55, 0
6, 6999, Note_on_c, 3, 91, 0
6, 7002, Control_c, 3, 64, 0
6, 7005, Note_on_c, 3, 67, 65
6, 7006, Note_on_c, 3, 64, 52
6, 7006, Note_on_c, 3, 72, 69
6, 7008, Note_on_c, 3, 67, 0
6, 7008, Note_on_c, 3, 64, 0
6, 7008, Note_on_c, 3, 72, 0
6, 7008, Note_on_c, 3, 91, 65
6, 7008, Note_on_c, 3, 67, 69
6, 7104, Note_on_c, 3, 70, 76
6, 7108, Note_on_c, 3, 67, 0
6, 7111, Note_on_c, 3, 91, 0
6, 7112, Note_on_c, 3, 89, 76
6, 7161, Note_on_c, 3, 70, 0
6, 7168, Note_on_c, 3, 69, 76
6, 7196, Note_on_c, 3, 69, 0
6, 7199, Note_on_c, 3, 89, 0
6, 7200, Note_on_c, 3, 88, 69
6, 7200, Note_on_c, 3, 67, 80
6, 7286, Note_on_c, 3, 67, 0
6, 7295, Note_on_c, 3, 88, 0
6, 7296, Note_on_c, 3, 86, 76
6, 7296, Note_on_c, 3, 70, 72
6, 7353, Note_on_c, 3, 70, 0
6, 7360, Note_on_c, 3, 69, 83
6, 7382, Note_on_c, 3, 69, 0
6, 7392, Note_on_c, 3, 86, 0
6, 7392, Note_on_c, 3, 84, 69
6, 7392, Note_on_c, 3, 67, 83
6, 7473, Note_on_c, 3, 67, 0
6, 7488, Note_on_c, 3, 70, 69
6, 7548, Note_on_c, 3, 70, 0
6, 7552, Note_on_c, 3, 69, 72
6, 7584, Note_on_c, 3, 69, 0
6, 7584, Note_on_c, 3, 67, 62
6, 7589, Note_on_c, 3, 84, 0
6, 7706, Note_on_c, 3, 67, 0
6, 10848, Time_signature, 1, 2, 96, 8
6, 10944, Time_signature, 4, 2, 96, 8
6, 10944, Note_on_c, 3, 48, 50
6, 10944, Note_on_c, 3, 67, 49
6, 10944, Note_on_c, 3, 72, 55
6, 10944, Note_on_c, 3, 76, 50
6, 11010, Note_on_c, 3, 93, 59
6, 11046, Note_on_c, 3, 93, 0
6, 11046, Note_on_c, 3, 91, 62
6, 11104, Note_on_c, 3, 91, 0
6, 11106, Note_on_c, 3, 93, 59
6, 11142, Note_on_c, 3, 91, 49
6, 11144, Note_on_c, 3, 93, 0
6, 11237, Control_c, 3, 64, 127
6, 11246, Note_on_c, 3, 72, 0
6, 11249, Note_on_c, 3, 76, 0
6, 11263, Note_on_c, 3, 48, 0
6, 11270, Note_on_c, 3, 67, 0
6, 11324, Control_c, 3, 64, 0
6, 11324, Note_on_c, 3, 71, 62
6, 11324, Note_on_c, 3, 65, 50
6, 11326, Note_on_c, 3, 74, 49
6, 11327, Note_on_c, 3, 91, 0
6, 11327, Note_on_c, 3, 55, 62
6, 11395, Note_on_c, 3, 93, 69
6, 11430, Note_on_c, 3, 93, 0
6, 11430, Note_on_c, 3, 91, 55
6, 11487, Note_on_c, 3, 91, 0
6, 11488, Note_on_c, 3, 93, 59
6, 11521, Note_on_c, 3, 91, 45
6, 11523, Note_on_c, 3, 93, 0
6, 11713, Note_on_c, 3, 91, 0
6, 11777, Note_on_c, 3, 93, 59
6, 11811, Note_on_c, 3, 93, 0
6, 11811, Note_on_c, 3, 91, 50
6, 11873, Note_on_c, 3, 91, 0
6, 11875, Note_on_c, 3, 93, 52
6, 11906, Note_on_c, 3, 91, 50
6, 11909, Note_on_c, 3, 93, 0
6, 11930, Control_c, 3, 64, 127
6, 11972, Control_c, 3, 64, 0
6, 12014, Control_c, 3, 64, 127
6, 12038, Note_on_c, 3, 71, 0
6, 12038, Note_on_c, 3, 74, 0
6, 12042, Note_on_c, 3, 65, 0
6, 12052, Note_on_c, 3, 55, 0
6, 12087, Note_on_c, 3, 91, 0
6, 12090, Control_c, 3, 64, 0
6, 12093, Note_on_c, 3, 67, 65
6, 12094, Note_on_c, 3, 64, 52
6, 12094, Note_on_c, 3, 72, 69
6, 12161, Note_on_c, 3, 88, 65
6, 12195, Note_on_c, 3, 88, 0
6, 12197, Note_on_c, 3, 84, 69
6, 12250, Note_on_c, 3, 84, 0
6, 12252, Note_on_c, 3, 81, 62
6, 12286, Note_on_c, 3, 81, 0
6, 12287, Note_on_c, 3, 84, 50
6, 12442, Note_on_c, 3, 64, 0
6, 12445, Note_on_c, 3, 67, 0
6, 12448, Note_on_c, 3, 84, 0
6, 12451, Note_on_c, 3, 72, 0
6, 12480, Note_on_c, 3, 72, 55
6, 12480, Note_on_c, 3, 76, 50
6, 12480, Note_on_c, 3, 67, 49
6, 12480, Note_on_c, 3, 48, 50
6, 12546, Note_on_c, 3, 93, 59
6, 12582, Note_on_c, 3, 93, 0
6, 12582, Note_on_c, 3, 91, 62
6, 12640, Note_on_c, 3, 91, 0
6, 12642, Note_on_c, 3, 93, 59
6, 12678, Note_on_c, 3, 91, 49
6, 12680, Note_on_c, 3, 93, 0
6, 12773, Control_c, 3, 64, 127
6, 12782, Note_on_c, 3, 72, 0
6, 12784, Note_on_c, 3, 76, 0
6, 12799, Note_on_c, 3, 48, 0
6, 12804, Note_on_c, 3, 67, 0
6, 12860, Control_c, 3, 64, 0
6, 12860, Note_on_c, 3, 71, 62
6, 12860, Note_on_c, 3, 65, 50
6, 12862, Note_on_c, 3, 74, 49
6, 12863, Note_on_c, 3, 91, 0
6, 12863, Note_on_c, 3, 55, 62
6, 12931, Note_on_c, 3, 93, 69
6, 12966, Note_on_c, 3, 93, 0
6, 12966, Note_on_c, 3, 91, 55
6, 13023, Note_on_c, 3, 91, 0
6, 13024, Note_on_c, 3, 93, 59
6, 13057, Note_on_c, 3, 91, 45
6, 13059, Note_on_c, 3, 93, 0
6, 13249, Note_on_c, 3, 91, 0
6, 13313, Note_on_c, 3, 93, 59
6, 13347, Note_on_c, 3, 93, 0
6, 13347, Note_on_c, 3, 91, 50
6, 13409, Note_on_c, 3, 91, 0
6, 13411, Note_on_c, 3, 93, 52
6, 13442, Note_on_c, 3, 91, 50
6, 13445, Note_on_c, 3, 93, 0
6, 13466, Control_c, 3, 64, 127
6, 13508, Control_c, 3, 64, 0
6, 13550, Control_c, 3, 64, 127
6, 13574, Note_on_c, 3, 71, 0
6, 13574, Note_on_c, 3, 74, 0
6, 13578, Note_on_c, 3, 65, 0
6, 13588, Note_on_c, 3, 55, 0
6, 13623, Note_on_c, 3, 91, 0
6, 13626, Control_c, 3, 64, 0
6, 13629, Note_on_c, 3, 67, 65
6, 13630, Note_on_c, 3, 64, 52
6, 13630, Note_on_c, 3, 72, 69
6, 13632, Note_on_c, 3, 67, 0
6, 13632, Note_on_c, 3, 64, 0
6, 13632, Note_on_c, 3, 72, 0
6, 13632, Note_on_c, 3, 91, 65
6, 13632, Note_on_c, 3, 67, 69
6, 13728, Note_on_c, 3, 70, 76
6, 13732, Note_on_c, 3, 67, 0
6, 13735, Note_on_c, 3, 91, 0
6, 13736, Note_on_c, 3, 89, 76
6, 13785, Note_on_c, 3, 70, 0
6, 13792, Note_on_c, 3, 69, 76
6, 13820, Note_on_c, 3, 69, 0
6, 13823, Note_on_c, 3, 89, 0
6, 13824, Note_on_c, 3, 88, 69
6, 13824, Note_on_c, 3, 67, 80
6, 13910, Note_on_c, 3, 67, 0
6, 13919, Note_on_c, 3, 88, 0
6, 13920, Note_on_c, 3, 86, 76
6, 13920, Note_on_c, 3, 70, 72
6, 13977, Note_on_c, 3, 70, 0
6, 13984, Note_on_c, 3, 69, 83
6, 14006, Note_on_c, 3, 69, 0
6, 14016, Note_on_c, 3, 86, 0
6, 14016, Note_on_c, 3, 84, 69
6, 14016, Note_on_c, 3, 67, 83
6, 14097, Note_on_c, 3, 67, 0
6, 14112, Note_on_c, 3, 70, 69
6, 14172, Note_on_c, 3, 70, 0
6, 14176, Note_on_c, 3, 69, 72
6, 14208, Note_on_c, 3, 69, 0
6, 14208, Note_on_c, 3, 67, 62
6, 14213, Note_on_c, 3, 84, 0
6, 14330, Note_on_c, 3, 67, 0
6, 17086, Note_on_c, 3, 91, 65
6, 17088, Note_on_c, 3, 67, 69
6, 17184, Note_on_c, 3, 70, 76
6, 17187, Note_on_c, 3, 91, 0
6, 17187, Note_on_c, 3, 89, 72
6, 17188, Note_on_c, 3, 67, 0
6, 17241, Note_on_c, 3, 70, 0
6, 17248, Note_on_c, 3, 69, 76
6, 17276, Note_on_c, 3, 69, 0
6, 17280, Note_on_c, 3, 67, 80
6, 17284, Note_on_c, 3, 89, 0
6, 17284, Note_on_c, 3, 88, 65
6, 17366, Note_on_c, 3, 67, 0
6, 17376, Note_on_c, 3, 70, 72
6, 17379, Note_on_c, 3, 88, 0
6, 17379, Note_on_c, 3, 86, 69
6, 17433, Note_on_c, 3, 70, 0
6, 17440, Note_on_c, 3, 69, 83
6, 17462, Note_on_c, 3, 69, 0
6, 17469, Note_on_c, 3, 86, 0
6, 17471, Note_on_c, 3, 84, 62
6, 17472, Note_on_c, 3, 67, 83
6, 17553, Note_on_c, 3, 67, 0
6, 17568, Note_on_c, 3, 70, 69
6, 17568, Note_on_c, 3, 86, 72
6, 17570, Note_on_c, 3, 84, 0
6, 17628, Note_on_c, 3, 70, 0
6, 17632, Note_on_c, 3, 69, 72
6, 17660, Note_on_c, 3, 86, 0
6, 17664, Note_on_c, 3, 69, 0
6, 17664, Note_on_c, 3, 67, 62
6, 17664, Note_on_c, 3, 67, 0
6, 17833, Note_on_c, 3, 88, 48
6, 17833, Note_on_c, 3, 88, 0
6, 17833, End_track
7, 0, Start_track
7, 0, Control_c, 4, 0, 0
7, 0, Program_c, 4, 52
7, 0, Control_c, 4, 10, 62
7, 0, Time_signature, 4, 2, 96, 8
7, 0, Tempo, 853485
7, 0, Control_c, 4, 7, 104
7, 19, Control_c, 4, 10, 62
7, 24, Control_c, 4, 10, 62
7, 28, Control_c, 4, 10, 62
7, 33, Control_c, 4, 10, 62
7, 38, Control_c, 4, 10, 62
7, 43, Control_c, 4, 10, 62
7, 48, Control_c, 4, 10, 62
7, 52, Control_c, 4, 10, 62
7, 57, Control_c, 4, 10, 62
7, 4224, Time_signature, 1, 2, 96, 8
7, 4320, Time_signature, 4, 2, 96, 8
7, 4387, Note_on_c, 4, 81, 99
7, 4421, Note_on_c, 4, 81, 0
7, 4422, Note_on_c, 4, 79, 91
7, 4480, Note_on_c, 4, 79, 0
7, 4481, Note_on_c, 4, 81, 74
7, 4512, Note_on_c, 4, 79, 68
7, 4515, Note_on_c, 4, 81, 0
7, 4708, Note_on_c, 4, 79, 0
7, 4771, Note_on_c, 4, 81, 99
7, 4803, Note_on_c, 4, 81, 0
7, 4806, Note_on_c, 4, 79, 86
7, 4864, Note_on_c, 4, 79, 0
7, 4867, Note_on_c, 4, 81, 86
7, 4899, Note_on_c, 4, 81, 0
7, 4899, Note_on_c, 4, 79, 91
7, 5085, Note_on_c, 4, 79, 0
7, 5156, Note_on_c, 4, 81, 99
7, 5188, Note_on_c, 4, 81, 0
7, 5188, Note_on_c, 4, 79, 86
7, 5248, Note_on_c, 4, 79, 0
7, 5249, Note_on_c, 4, 81, 99
7, 5285, Note_on_c, 4, 79, 94
7, 5287, Note_on_c, 4, 81, 0
7, 5447, Note_on_c, 4, 79, 0
7, 5537, Note_on_c, 4, 76, 104
7, 5568, Note_on_c, 4, 76, 0
7, 5571, Note_on_c, 4, 72, 94
7, 5627, Note_on_c, 4, 72, 0
7, 5632, Note_on_c, 4, 69, 94
7, 5665, Note_on_c, 4, 69, 0
7, 5665, Note_on_c, 4, 72, 91
7, 5823, Note_on_c, 4, 72, 0
7, 5923, Note_on_c, 4, 81, 99
7, 5957, Note_on_c, 4, 81, 0
7, 5958, Note_on_c, 4, 79, 91
7, 6016, Note_on_c, 4, 79, 0
7, 6017, Note_on_c, 4, 81, 74
7, 6048, Note_on_c, 4, 79, 68
7, 6051, Note_on_c, 4, 81, 0
7, 6244, Note_on_c, 4, 79, 0
7, 6307, Note_on_c, 4, 81, 99
7, 6339, Note_on_c, 4, 81, 0
7, 6342, Note_on_c, 4, 79, 86
7, 6400, Note_on_c, 4, 79, 0
7, 6403, Note_on_c, 4, 81, 86
7, 6435, Note_on_c, 4, 81, 0
7, 6435, Note_on_c, 4, 79, 91
7, 6621, Note_on_c, 4, 79, 0
7, 6692, Note_on_c, 4, 81, 99
7, 6724, Note_on_c, 4, 81, 0
7, 6724, Note_on_c, 4, 79, 86
7, 6784, Note_on_c, 4, 79, 0
7, 6785, Note_on_c, 4, 81, 99
7, 6821, Note_on_c, 4, 79, 94
7, 6823, Note_on_c, 4, 81, 0
7, 6983, Note_on_c, 4, 79, 0
7, 7005, Note_on_c, 4, 76, 70
7, 7005, Note_on_c, 4, 72, 68
7, 7006, Note_on_c, 4, 67, 57
7, 7066, Control_c, 4, 64, 127
7, 7076, Note_on_c, 4, 76, 0
7, 7079, Note_on_c, 4, 72, 0
7, 7081, Note_on_c, 4, 67, 0
7, 7102, Control_c, 4, 64, 0
7, 7104, Note_on_c, 4, 70, 70
7, 7106, Note_on_c, 4, 74, 74
7, 7106, Note_on_c, 4, 65, 57
7, 7164, Control_c, 4, 64, 127
7, 7170, Note_on_c, 4, 65, 0
7, 7172, Note_on_c, 4, 70, 0
7, 7175, Note_on_c, 4, 74, 0
7, 7196, Control_c, 4, 64, 0
7, 7200, Note_on_c, 4, 76, 74
7, 7200, Note_on_c, 4, 67, 61
7, 7200, Note_on_c, 4, 72, 78
7, 7256, Control_c, 4, 64, 127
7, 7266, Note_on_c, 4, 76, 0
7, 7271, Note_on_c, 4, 67, 0
7, 7271, Note_on_c, 4, 72, 0
7, 7294, Control_c, 4, 64, 0
7, 7299, Note_on_c, 4, 74, 91
7, 7299, Note_on_c, 4, 70, 82
7, 7299, Note_on_c, 4, 65, 70
7, 7348, Control_c, 4, 64, 127
7, 7361, Note_on_c, 4, 65, 0
7, 7363, Note_on_c, 4, 70, 0
7, 7367, Note_on_c, 4, 74, 0
7, 7387, Control_c, 4, 64, 0
7, 7390, Note_on_c, 4, 72, 65
7, 7392, Note_on_c, 4, 67, 66
7, 7463, Note_on_c, 4, 67, 0
7, 7488, Note_on_c, 4, 72, 0
7, 10848, Time_signature, 1, 2, 96, 8
7, 10944, Time_signature, 4, 2, 96, 8
7, 11011, Note_on_c, 4, 81, 99
7, 11045, Note_on_c, 4, 81, 0
7, 11046, Note_on_c, 4, 79, 91
7, 11104, Note_on_c, 4, 79, 0
7, 11105, Note_on_c, 4, 81, 74
7, 11136, Note_on_c, 4, 79, 68
7, 11139, Note_on_c, 4, 81, 0
7, 11332, Note_on_c, 4, 79, 0
7, 11395, Note_on_c, 4, 81, 99
7, 11427, Note_on_c, 4, 81, 0
7, 11430, Note_on_c, 4, 79, 86
7, 11488, Note_on_c, 4, 79, 0
7, 11491, Note_on_c, 4, 81, 86
7, 11523, Note_on_c, 4, 81, 0
7, 11523, Note_on_c, 4, 79, 91
7, 11709, Note_on_c, 4, 79, 0
7, 11780, Note_on_c, 4, 81, 99
7, 11812, Note_on_c, 4, 81, 0
7, 11812, Note_on_c, 4, 79, 86
7, 11872, Note_on_c, 4, 79, 0
7, 11873, Note_on_c, 4, 81, 99
7, 11909, Note_on_c, 4, 79, 94
7, 11911, Note_on_c, 4, 81, 0
7, 12071, Note_on_c, 4, 79, 0
7, 12161, Note_on_c, 4, 76, 104
7, 12192, Note_on_c, 4, 76, 0
7, 12195, Note_on_c, 4, 72, 94
7, 12251, Note_on_c, 4, 72, 0
7, 12256, Note_on_c, 4, 69, 94
7, 12289, Note_on_c, 4, 69, 0
7, 12289, Note_on_c, 4, 72, 91
7, 12447, Note_on_c, 4, 72, 0
7, 12547, Note_on_c, 4, 81, 99
7, 12581, Note_on_c, 4, 81, 0
7, 12582, Note_on_c, 4, 79, 91
7, 12640, Note_on_c, 4, 79, 0
7, 12641, Note_on_c, 4, 81, 74
7, 12672, Note_on_c, 4, 79, 68
7, 12675, Note_on_c, 4, 81, 0
7, 12868, Note_on_c, 4, 79, 0
7, 12931, Note_on_c, 4, 81, 99
7, 12963, Note_on_c, 4, 81, 0
7, 12966, Note_on_c, 4, 79, 86
7, 13024, Note_on_c, 4, 79, 0
7, 13027, Note_on_c, 4, 81, 86
7, 13059, Note_on_c, 4, 81, 0
7, 13059, Note_on_c, 4, 79, 91
7, 13245, Note_on_c, 4, 79, 0
7, 13316, Note_on_c, 4, 81, 99
7, 13348, Note_on_c, 4, 81, 0
7, 13348, Note_on_c, 4, 79, 86
7, 13408, Note_on_c, 4, 79, 0
7, 13409, Note_on_c, 4, 81, 99
7, 13445, Note_on_c, 4, 79, 94
7, 13447, Note_on_c, 4, 81, 0
7, 13607, Note_on_c, 4, 79, 0
7, 13629, Note_on_c, 4, 76, 70
7, 13629, Note_on_c, 4, 72, 68
7, 13630, Note_on_c, 4, 67, 57
7, 13690, Control_c, 4, 64, 127
7, 13700, Note_on_c, 4, 76, 0
7, 13703, Note_on_c, 4, 72, 0
7, 13705, Note_on_c, 4, 67, 0
7, 13726, Control_c, 4, 64, 0
7, 13728, Note_on_c, 4, 70, 70
7, 13730, Note_on_c, 4, 74, 74
7, 13730, Note_on_c, 4, 65, 57
7, 13788, Control_c, 4, 64, 127
7, 13794, Note_on_c, 4, 65, 0
7, 13796, Note_on_c, 4, 70, 0
7, 13799, Note_on_c, 4, 74, 0
7, 13820, Control_c, 4, 64, 0
7, 13824, Note_on_c, 4, 76, 74
7, 13824, Note_on_c, 4, 67, 61
7, 13824, Note_on_c, 4, 72, 78
7, 13880, Control_c, 4, 64, 127
7, 13890, Note_on_c, 4, 76, 0
7, 13895, Note_on_c, 4, 67, 0
7, 13895, Note_on_c, 4, 72, 0
7, 13918, Control_c, 4, 64, 0
7, 13923, Note_on_c, 4, 74, 91
7, 13923, Note_on_c, 4, 70, 82
7, 13923, Note_on_c, 4, 65, 70
7, 13972, Control_c, 4, 64, 127
7, 13985, Note_on_c, 4, 65, 0
7, 13987, Note_on_c, 4, 70, 0
7, 13991, Note_on_c, 4, 74, 0
7, 14011, Control_c, 4, 64, 0
7, 14014, Note_on_c, 4, 72, 65
7, 14016, Note_on_c, 4, 67, 66
7, 14087, Note_on_c, 4, 67, 0
7, 14112, Note_on_c, 4, 72, 0
7, 17280, Note_on_c, 4, 76, 78
7, 17280, Note_on_c, 4, 72, 68
7, 17280, Note_on_c, 4, 67, 58
7, 17306, Control_c, 4, 64, 127
7, 17330, Note_on_c, 4, 76, 0
7, 17335, Note_on_c, 4, 72, 0
7, 17336, Note_on_c, 4, 67, 0
7, 17367, Control_c, 4, 64, 0
7, 17372, Note_on_c, 4, 70, 70
7, 17372, Note_on_c, 4, 74, 82
7, 17374, Note_on_c, 4, 65, 63
7, 17421, Control_c, 4, 64, 127
7, 17441, Note_on_c, 4, 70, 0
7, 17441, Note_on_c, 4, 65, 0
7, 17443, Note_on_c, 4, 74, 0
7, 17470, Control_c, 4, 64, 0
7, 17474, Note_on_c, 4, 67, 74
7, 17474, Note_on_c, 4, 72, 86
7, 17474, Note_on_c, 4, 76, 86
7, 17516, Control_c, 4, 64, 127
7, 17545, Note_on_c, 4, 67, 0
7, 17548, Note_on_c, 4, 76, 0
7, 17551, Note_on_c, 4, 72, 0
7, 17567, Control_c, 4, 64, 0
7, 17568, Note_on_c, 4, 70, 74
7, 17570, Note_on_c, 4, 77, 82
7, 17571, Note_on_c, 4, 74, 91
7, 17618, Control_c, 4, 64, 127
7, 17619, Note_on_c, 4, 70, 0
7, 17626, Note_on_c, 4, 74, 0
7, 17631, Note_on_c, 4, 77, 0
7, 17657, Control_c, 4, 64, 0
7, 17664, Control_c, 4, 7, 0
7, 17664, Note_on_c, 4, 76, 61
7, 17666, Note_on_c, 4, 72, 55
7, 18169, Note_on_c, 4, 72, 0
7, 18170, Note_on_c, 4, 76, 0
7, 18170, Control_c, 4, 0, 0
7, 18170, End_track
8, 0, Start_track
8, 0, Control_c, 9, 0, 0
8, 0, Time_signature, 4, 2, 96, 8
8, 0, Tempo, 853485
8, 0, Control_c, 9, 7, 100
8, 0, Note_on_c, 9, 42, 88
8, 3, Note_on_c, 9, 42, 0
8, 96, Note_on_c, 9, 42, 83
8, 99, Note_on_c, 9, 42, 0
8, 192, Note_on_c, 9, 42, 88
8, 195, Note_on_c, 9, 42, 0
8, 288, Note_on_c, 9, 42, 83
8, 291, Note_on_c, 9, 42, 0
8, 384, Note_on_c, 9, 36, 117
8, 384, Note_on_c, 9, 49, 103
8, 384, Note_on_c, 9, 46, 109
8, 387, Note_on_c, 9, 36, 0
8, 387, Note_on_c, 9, 49, 0
8, 387, Note_on_c, 9, 46, 0
8, 416, Note_on_c, 9, 42, 79
8, 416, Note_on_c, 9, 51, 43
8, 419, Note_on_c, 9, 42, 0
8, 419, Note_on_c, 9, 51, 0
8, 432, Note_on_c, 9, 42, 79
8, 435, Note_on_c, 9, 42, 0
8, 448, Note_on_c, 9, 42, 97
8, 448, Note_on_c, 9, 51, 31
8, 451, Note_on_c, 9, 42, 0
8, 451, Note_on_c, 9, 51, 0
8, 480, Note_on_c, 9, 38, 97
8, 480, Note_on_c, 9, 51, 97
8, 480, Note_on_c, 9, 46, 97
8, 483, Note_on_c, 9, 38, 0
8, 483, Note_on_c, 9, 51, 0
8, 483, Note_on_c, 9, 46, 0
8, 512, Note_on_c, 9, 42, 97
8, 512, Note_on_c, 9, 51, 62
8, 515, Note_on_c, 9, 42, 0
8, 515, Note_on_c, 9, 51, 0
8, 544, Note_on_c, 9, 36, 103
8, 544, Note_on_c, 9, 42, 97
8, 544, Note_on_c, 9, 51, 83
8, 547, Note_on_c, 9, 36, 0
8, 547, Note_on_c, 9, 42, 0
8, 547, Note_on_c, 9, 51, 0
8, 576, Note_on_c, 9, 36, 103
8, 576, Note_on_c, 9, 51, 103
8, 576, Note_on_c, 9, 46, 92
8, 579, Note_on_c, 9, 36, 0
8, 579, Note_on_c, 9, 51, 0
8, 579, Note_on_c, 9, 46, 0
8, 608, Note_on_c, 9, 42, 79
8, 608, Note_on_c, 9, 51, 50
8, 611, Note_on_c, 9, 42, 0
8, 611, Note_on_c, 9, 51, 0
8, 624, Note_on_c, 9, 42, 88
8, 627, Note_on_c, 9, 42, 0
8, 640, Note_on_c, 9, 42, 97
8, 640, Note_on_c, 9, 51, 54
8, 643, Note_on_c, 9, 42, 0
8, 643, Note_on_c, 9, 51, 0
8, 672, Note_on_c, 9, 38, 103
8, 672, Note_on_c, 9, 51, 103
8, 672, Note_on_c, 9, 46, 97
8, 675, Note_on_c, 9, 38, 0
8, 675, Note_on_c, 9, 51, 0
8, 675, Note_on_c, 9, 46, 0
8, 704, Note_on_c, 9, 42, 97
8, 704, Note_on_c, 9, 51, 54
8, 707, Note_on_c, 9, 42, 0
8, 707, Note_on_c, 9, 51, 0
8, 736, Note_on_c, 9, 42, 103
8, 736, Note_on_c, 9, 51, 103
8, 739, Note_on_c, 9, 42, 0
8, 739, Note_on_c, 9, 51, 0
8, 768, Note_on_c, 9, 36, 109
8, 768, Note_on_c, 9, 51, 103
8, 768, Note_on_c, 9, 46, 97
8, 771, Note_on_c, 9, 36, 0
8, 771, Note_on_c, 9, 51, 0
8, 771, Note_on_c, 9, 46, 0
8, 800, Note_on_c, 9, 42, 97
8, 800, Note_on_c, 9, 51, 25
8, 803, Note_on_c, 9, 42, 0
8, 803, Note_on_c, 9, 51, 0
8, 816, Note_on_c, 9, 42, 92
8, 819, Note_on_c, 9, 42, 0
8, 832, Note_on_c, 9, 42, 97
8, 832, Note_on_c, 9, 51, 79
8, 835, Note_on_c, 9, 42, 0
8, 835, Note_on_c, 9, 51, 0
8, 864, Note_on_c, 9, 38, 103
8, 864, Note_on_c, 9, 51, 109
8, 864, Note_on_c, 9, 46, 92
8, 867, Note_on_c, 9, 38, 0
8, 867, Note_on_c, 9, 51, 0
8, 867, Note_on_c, 9, 46, 0
8, 896, Note_on_c, 9, 42, 97
8, 896, Note_on_c, 9, 51, 88
8, 899, Note_on_c, 9, 42, 0
8, 899, Note_on_c, 9, 51, 0
8, 928, Note_on_c, 9, 36, 103
8, 928, Note_on_c, 9, 42, 97
8, 928, Note_on_c, 9, 51, 103
8, 931, Note_on_c, 9, 36, 0
8, 931, Note_on_c, 9, 42, 0
8, 931, Note_on_c, 9, 51, 0
8, 960, Note_on_c, 9, 36, 109
8, 960, Note_on_c, 9, 49, 97
8, 960, Note_on_c, 9, 46, 103
8, 963, Note_on_c, 9, 36, 0
8, 963, Note_on_c, 9, 49, 0
8, 963, Note_on_c, 9, 46, 0
8, 1056, Note_on_c, 9, 42, 97
8, 1059, Note_on_c, 9, 42, 0
8, 1152, Note_on_c, 9, 36, 109
8, 1152, Note_on_c, 9, 42, 103
8, 1152, Note_on_c, 9, 49, 97
8, 1155, Note_on_c, 9, 36, 0
8, 1155, Note_on_c, 9, 42, 0
8, 1155, Note_on_c, 9, 49, 0
8, 1184, Note_on_c, 9, 42, 52
8, 1187, Note_on_c, 9, 42, 0
8, 1216, Note_on_c, 9, 42, 70
8, 1216, Note_on_c, 9, 51, 50
8, 1219, Note_on_c, 9, 42, 0
8, 1219, Note_on_c, 9, 51, 0
8, 1248, Note_on_c, 9, 38, 109
8, 1248, Note_on_c, 9, 42, 103
8, 1248, Note_on_c, 9, 51, 103
8, 1251, Note_on_c, 9, 38, 0
8, 1251, Note_on_c, 9, 42, 0
8, 1251, Note_on_c, 9, 51, 0
8, 1280, Note_on_c, 9, 42, 47
8, 1280, Note_on_c, 9, 51, 45
8, 1283, Note_on_c, 9, 42, 0
8, 1283, Note_on_c, 9, 51, 0
8, 1312, Note_on_c, 9, 36, 103
8, 1312, Note_on_c, 9, 42, 75
8, 1312, Note_on_c, 9, 51, 83
8, 1315, Note_on_c, 9, 36, 0
8, 1315, Note_on_c, 9, 42, 0
8, 1315, Note_on_c, 9, 51, 0
8, 1344, Note_on_c, 9, 36, 103
8, 1344, Note_on_c, 9, 42, 92
8, 1344, Note_on_c, 9, 51, 97
8, 1347, Note_on_c, 9, 36, 0
8, 1347, Note_on_c, 9, 42, 0
8, 1347, Note_on_c, 9, 51, 0
8, 1376, Note_on_c, 9, 42, 62
8, 1376, Note_on_c, 9, 51, 21
8, 1379, Note_on_c, 9, 42, 0
8, 1379, Note_on_c, 9, 51, 0
8, 1408, Note_on_c, 9, 42, 54
8, 1408, Note_on_c, 9, 51, 46
8, 1411, Note_on_c, 9, 42, 0
8, 1411, Note_on_c, 9, 51, 0
8, 1440, Note_on_c, 9, 38, 109
8, 1440, Note_on_c, 9, 42, 92
8, 1440, Note_on_c, 9, 51, 97
8, 1443, Note_on_c, 9, 38, 0
8, 1443, Note_on_c, 9, 42, 0
8, 1443, Note_on_c, 9, 51, 0
8, 1472, Note_on_c, 9, 42, 66
8, 1472, Note_on_c, 9, 51, 83
8, 1475, Note_on_c, 9, 42, 0
8, 1475, Note_on_c, 9, 51, 0
8, 1504, Note_on_c, 9, 42, 54
8, 1504, Note_on_c, 9, 51, 103
8, 1507, Note_on_c, 9, 42, 0
8, 1507, Note_on_c, 9, 51, 0
8, 1536, Note_on_c, 9, 36, 109
8, 1536, Note_on_c, 9, 42, 92
8, 1536, Note_on_c, 9, 51, 103
8, 1539, Note_on_c, 9, 36, 0
8, 1539, Note_on_c, 9, 42, 0
8, 1539, Note_on_c, 9, 51, 0
8, 1568, Note_on_c, 9, 42, 58
8, 1568, Note_on_c, 9, 51, 62
8, 1571, Note_on_c, 9, 42, 0
8, 1571, Note_on_c, 9, 51, 0
8, 1600, Note_on_c, 9, 42, 62
8, 1600, Note_on_c, 9, 51, 79
8, 1603, Note_on_c, 9, 42, 0
8, 1603, Note_on_c, 9, 51, 0
8, 1632, Note_on_c, 9, 38, 109
8, 1632, Note_on_c, 9, 42, 97
8, 1632, Note_on_c, 9, 51, 103
8, 1635, Note_on_c, 9, 38, 0
8, 1635, Note_on_c, 9, 42, 0
8, 1635, Note_on_c, 9, 51, 0
8, 1664, Note_on_c, 9, 42, 62
8, 1664, Note_on_c, 9, 51, 62
8, 1667, Note_on_c, 9, 42, 0
8, 1667, Note_on_c, 9, 51, 0
8, 1696, Note_on_c, 9, 36, 103
8, 1696, Note_on_c, 9, 42, 54
8, 1696, Note_on_c, 9, 51, 97
8, 1699, Note_on_c, 9, 36, 0
8, 1699, Note_on_c, 9, 42, 0
8, 1699, Note_on_c, 9, 51, 0
8, 1728, Note_on_c, 9, 36, 103
8, 1728, Note_on_c, 9, 42, 92
8, 1728, Note_on_c, 9, 51, 103
8, 1731, Note_on_c, 9, 36, 0
8, 1731, Note_on_c, 9, 42, 0
8, 1731, Note_on_c, 9, 51, 0
8, 1760, Note_on_c, 9, 42, 58
8, 1760, Note_on_c, 9, 51, 66
8, 1763, Note_on_c, 9, 42, 0
8, 1763, Note_on_c, 9, 51, 0
8, 1792, Note_on_c, 9, 42, 50
8, 1792, Note_on_c, 9, 51, 75
8, 1795, Note_on_c, 9, 42, 0
8, 1795, Note_on_c, 9, 51, 0
8, 1824, Note_on_c, 9, 38, 117
8, 1824, Note_on_c, 9, 42, 92
8, 1824, Note_on_c, 9, 51, 103
8, 1827, Note_on_c, 9, 38, 0
8, 1827, Note_on_c, 9, 42, 0
8, 1827, Note_on_c, 9, 51, 0
8, 1856, Note_on_c, 9, 42, 58
8, 1856, Note_on_c, 9, 51, 54
8, 1859, Note_on_c, 9, 42, 0
8, 1859, Note_on_c, 9, 51, 0
8, 1888, Note_on_c, 9, 42, 62
8, 1888, Note_on_c, 9, 51, 97
8, 1891, Note_on_c, 9, 42, 0
8, 1891, Note_on_c, 9, 51, 0
8, 1920, Note_on_c, 9, 36, 109
8, 1920, Note_on_c, 9, 42, 92
8, 1920, Note_on_c, 9, 51, 103
8, 1923, Note_on_c, 9, 36, 0
8, 1923, Note_on_c, 9, 42, 0
8, 1923, Note_on_c, 9, 51, 0
8, 1952, Note_on_c, 9, 42, 58
8, 1952, Note_on_c, 9, 51, 62
8, 1955, Note_on_c, 9, 42, 0
8, 1955, Note_on_c, 9, 51, 0
8, 1984, Note_on_c, 9, 42, 50
8, 1984, Note_on_c, 9, 51, 88
8, 1987, Note_on_c, 9, 42, 0
8, 1987, Note_on_c, 9, 51, 0
8, 2016, Note_on_c, 9, 38, 109
8, 2016, Note_on_c, 9, 42, 92
8, 2016, Note_on_c, 9, 51, 109
8, 2019, Note_on_c, 9, 38, 0
8, 2019, Note_on_c, 9, 42, 0
8, 2019, Note_on_c, 9, 51, 0
8, 2048, Note_on_c, 9, 42, 62
8, 2048, Note_on_c, 9, 51, 45
8, 2051, Note_on_c, 9, 42, 0
8, 2051, Note_on_c, 9, 51, 0
8, 2080, Note_on_c, 9, 36, 97
8, 2080, Note_on_c, 9, 42, 52
8, 2080, Note_on_c, 9, 51, 103
8, 2083, Note_on_c, 9, 36, 0
8, 2083, Note_on_c, 9, 42, 0
8, 2083, Note_on_c, 9, 51, 0
8, 2112, Note_on_c, 9, 36, 109
8, 2112, Note_on_c, 9, 42, 97
8, 2112, Note_on_c, 9, 51, 97
8, 2115, Note_on_c, 9, 36, 0
8, 2115, Note_on_c, 9, 42, 0
8, 2115, Note_on_c, 9, 51, 0
8, 2144, Note_on_c, 9, 42, 62
8, 2144, Note_on_c, 9, 51, 79
8, 2147, Note_on_c, 9, 42, 0
8, 2147, Note_on_c, 9, 51, 0
8, 2176, Note_on_c, 9, 42, 62
8, 2176, Note_on_c, 9, 51, 75
8, 2179, Note_on_c, 9, 42, 0
8, 2179, Note_on_c, 9, 51, 0
8, 2208, Note_on_c, 9, 38, 109
8, 2208, Note_on_c, 9, 42, 97
8, 2208, Note_on_c, 9, 51, 103
8, 2211, Note_on_c, 9, 38, 0
8, 2211, Note_on_c, 9, 42, 0
8, 2211, Note_on_c, 9, 51, 0
8, 2240, Note_on_c, 9, 42, 70
8, 2240, Note_on_c, 9, 51, 52
8, 2243, Note_on_c, 9, 42, 0
8, 2243, Note_on_c, 9, 51, 0
8, 2272, Note_on_c, 9, 42, 58
8, 2272, Note_on_c, 9, 51, 83
8, 2275, Note_on_c, 9, 42, 0
8, 2275, Note_on_c, 9, 51, 0
8, 2304, Note_on_c, 9, 36, 109
8, 2304, Note_on_c, 9, 42, 92
8, 2304, Note_on_c, 9, 51, 103
8, 2307, Note_on_c, 9, 36, 0
8, 2307, Note_on_c, 9, 42, 0
8, 2307, Note_on_c, 9, 51, 0
8, 2336, Note_on_c, 9, 42, 58
8, 2336, Note_on_c, 9, 51, 70
8, 2339, Note_on_c, 9, 42, 0
8, 2339, Note_on_c, 9, 51, 0
8, 2368, Note_on_c, 9, 42, 58
8, 2368, Note_on_c, 9, 51, 75
8, 2371, Note_on_c, 9, 42, 0
8, 2371, Note_on_c, 9, 51, 0
8, 2400, Note_on_c, 9, 38, 103
8, 2400, Note_on_c, 9, 42, 92
8, 2400, Note_on_c, 9, 51, 103
8, 2403, Note_on_c, 9, 38, 0
8, 2403, Note_on_c, 9, 42, 0
8, 2403, Note_on_c, 9, 51, 0
8, 2432, Note_on_c, 9, 42, 70
8, 2432, Note_on_c, 9, 51, 62
8, 2435, Note_on_c, 9, 42, 0
8, 2435, Note_on_c, 9, 51, 0
8, 2464, Note_on_c, 9, 36, 97
8, 2464, Note_on_c, 9, 42, 62
8, 2464, Note_on_c, 9, 51, 97
8, 2467, Note_on_c, 9, 36, 0
8, 2467, Note_on_c, 9, 42, 0
8, 2467, Note_on_c, 9, 51, 0
8, 2496, Note_on_c, 9, 36, 109
8, 2496, Note_on_c, 9, 42, 92
8, 2496, Note_on_c, 9, 51, 97
8, 2499, Note_on_c, 9, 36, 0
8, 2499, Note_on_c, 9, 42, 0
8, 2499, Note_on_c, 9, 51, 0
8, 2528, Note_on_c, 9, 42, 50
8, 2528, Note_on_c, 9, 51, 66
8, 2531, Note_on_c, 9, 42, 0
8, 2531, Note_on_c, 9, 51, 0
8, 2560, Note_on_c, 9, 42, 62
8, 2560, Note_on_c, 9, 51, 88
8, 2563, Note_on_c, 9, 42, 0
8, 2563, Note_on_c, 9, 51, 0
8, 2592, Note_on_c, 9, 38, 109
8, 2592, Note_on_c, 9, 42, 88
8, 2592, Note_on_c, 9, 51, 109
8, 2595, Note_on_c, 9, 38, 0
8, 2595, Note_on_c, 9, 42, 0
8, 2595, Note_on_c, 9, 51, 0
8, 2624, Note_on_c, 9, 36, 103
8, 2624, Note_on_c, 9, 42, 70
8, 2624, Note_on_c, 9, 51, 88
8, 2627, Note_on_c, 9, 36, 0
8, 2627, Note_on_c, 9, 42, 0
8, 2627, Note_on_c, 9, 51, 0
8, 2656, Note_on_c, 9, 38, 103
8, 2656, Note_on_c, 9, 42, 49
8, 2656, Note_on_c, 9, 51, 103
8, 2659, Note_on_c, 9, 38, 0
8, 2659, Note_on_c, 9, 42, 0
8, 2659, Note_on_c, 9, 51, 0
8, 2688, Note_on_c, 9, 36, 109
8, 2688, Note_on_c, 9, 42, 103
8, 2688, Note_on_c, 9, 49, 97
8, 2691, Note_on_c, 9, 36, 0
8, 2691, Note_on_c, 9, 42, 0
8, 2691, Note_on_c, 9, 49, 0
8, 2720, Note_on_c, 9, 42, 52
8, 2723, Note_on_c, 9, 42, 0
8, 2752, Note_on_c, 9, 42, 70
8, 2752, Note_on_c, 9, 51, 50
8, 2755, Note_on_c, 9, 42, 0
8, 2755, Note_on_c, 9, 51, 0
8, 2784, Note_on_c, 9, 38, 109
8, 2784, Note_on_c, 9, 42, 103
8, 2784, Note_on_c, 9, 51, 103
8, 2787, Note_on_c, 9, 38, 0
8, 2787, Note_on_c, 9, 42, 0
8, 2787, Note_on_c, 9, 51, 0
8, 2816, Note_on_c, 9, 42, 47
8, 2816, Note_on_c, 9, 51, 45
8, 2819, Note_on_c, 9, 42, 0
8, 2819, Note_on_c, 9, 51, 0
8, 2848, Note_on_c, 9, 36, 103
8, 2848, Note_on_c, 9, 42, 75
8, 2848, Note_on_c, 9, 51, 83
8, 2851, Note_on_c, 9, 36, 0
8, 2851, Note_on_c, 9, 42, 0
8, 2851, Note_on_c, 9, 51, 0
8, 2880, Note_on_c, 9, 36, 103
8, 2880, Note_on_c, 9, 42, 92
8, 2880, Note_on_c, 9, 51, 97
8, 2883, Note_on_c, 9, 36, 0
8, 2883, Note_on_c, 9, 42, 0
8, 2883, Note_on_c, 9, 51, 0
8, 2912, Note_on_c, 9, 42, 62
8, 2912, Note_on_c, 9, 51, 21
8, 2915, Note_on_c, 9, 42, 0
8, 2915, Note_on_c, 9, 51, 0
8, 2944, Note_on_c, 9, 42, 54
8, 2944, Note_on_c, 9, 51, 46
8, 2947, Note_on_c, 9, 42, 0
8, 2947, Note_on_c, 9, 51, 0
8, 2976, Note_on_c, 9, 38, 109
8, 2976, Note_on_c, 9, 42, 92
8, 2976, Note_on_c, 9, 51, 97
8, 2979, Note_on_c, 9, 38, 0
8, 2979, Note_on_c, 9, 42, 0
8, 2979, Note_on_c, 9, 51, 0
8, 3008, Note_on_c, 9, 42, 66
8, 3008, Note_on_c, 9, 51, 83
8, 3011, Note_on_c, 9, 42, 0
8, 3011, Note_on_c, 9, 51, 0
8, 3040, Note_on_c, 9, 42, 54
8, 3040, Note_on_c, 9, 51, 103
8, 3043, Note_on_c, 9, 42, 0
8, 3043, Note_on_c, 9, 51, 0
8, 3072, Note_on_c, 9, 36, 109
8, 3072, Note_on_c, 9, 42, 92
8, 3072, Note_on_c, 9, 51, 103
8, 3075, Note_on_c, 9, 36, 0
8, 3075, Note_on_c, 9, 42, 0
8, 3075, Note_on_c, 9, 51, 0
8, 3104, Note_on_c, 9, 42, 58
8, 3104, Note_on_c, 9, 51, 62
8, 3107, Note_on_c, 9, 42, 0
8, 3107, Note_on_c, 9, 51, 0
8, 3136, Note_on_c, 9, 42, 62
8, 3136, Note_on_c, 9, 51, 79
8, 3139, Note_on_c, 9, 42, 0
8, 3139, Note_on_c, 9, 51, 0
8, 3168, Note_on_c, 9, 38, 109
8, 3168, Note_on_c, 9, 42, 97
8, 3168, Note_on_c, 9, 51, 103
8, 3171, Note_on_c, 9, 38, 0
8, 3171, Note_on_c, 9, 42, 0
8, 3171, Note_on_c, 9, 51, 0
8, 3200, Note_on_c, 9, 42, 62
8, 3200, Note_on_c, 9, 51, 62
8, 3203, Note_on_c, 9, 42, 0
8, 3203, Note_on_c, 9, 51, 0
8, 3232, Note_on_c, 9, 36, 103
8, 3232, Note_on_c, 9, 42, 54
8, 3232, Note_on_c, 9, 51, 97
8, 3235, Note_on_c, 9, 36, 0
8, 3235, Note_on_c, 9, 42, 0
8, 3235, Note_on_c, 9, 51, 0
8, 3264, Note_on_c, 9, 36, 103
8, 3264, Note_on_c, 9, 42, 92
8, 3264, Note_on_c, 9, 51, 103
8, 3267, Note_on_c, 9, 36, 0
8, 3267, Note_on_c, 9, 42, 0
8, 3267, Note_on_c, 9, 51, 0
8, 3296, Note_on_c, 9, 42, 58
8, 3296, Note_on_c, 9, 51, 66
8, 3299, Note_on_c, 9, 42, 0
8, 3299, Note_on_c, 9, 51, 0
8, 3328, Note_on_c, 9, 42, 50
8, 3328, Note_on_c, 9, 51, 75
8, 3331, Note_on_c, 9, 42, 0
8, 3331, Note_on_c, 9, 51, 0
8, 3360, Note_on_c, 9, 38, 117
8, 3360, Note_on_c, 9, 42, 92
8, 3360, Note_on_c, 9, 51, 103
8, 3363, Note_on_c, 9, 38, 0
8, 3363, Note_on_c, 9, 42, 0
8, 3363, Note_on_c, 9, 51, 0
8, 3392, Note_on_c, 9, 42, 58
8, 3392, Note_on_c, 9, 51, 54
8, 3395, Note_on_c, 9, 42, 0
8, 3395, Note_on_c, 9, 51, 0
8, 3424, Note_on_c, 9, 42, 62
8, 3424, Note_on_c, 9, 51, 97
8, 3427, Note_on_c, 9, 42, 0
8, 3427, Note_on_c, 9, 51, 0
8, 3456, Note_on_c, 9, 36, 109
8, 3456, Note_on_c, 9, 42, 92
8, 3456, Note_on_c, 9, 51, 103
8, 3459, Note_on_c, 9, 36, 0
8, 3459, Note_on_c, 9, 42, 0
8, 3459, Note_on_c, 9, 51, 0
8, 3488, Note_on_c, 9, 42, 58
8, 3488, Note_on_c, 9, 51, 62
8, 3491, Note_on_c, 9, 42, 0
8, 3491, Note_on_c, 9, 51, 0
8, 3520, Note_on_c, 9, 42, 50
8, 3520, Note_on_c, 9, 51, 88
8, 3523, Note_on_c, 9, 42, 0
8, 3523, Note_on_c, 9, 51, 0
8, 3552, Note_on_c, 9, 38, 109
8, 3552, Note_on_c, 9, 42, 92
8, 3552, Note_on_c, 9, 51, 109
8, 3555, Note_on_c, 9, 38, 0
8, 3555, Note_on_c, 9, 42, 0
8, 3555, Note_on_c, 9, 51, 0
8, 3584, Note_on_c, 9, 42, 62
8, 3584, Note_on_c, 9, 51, 45
8, 3587, Note_on_c, 9, 42, 0
8, 3587, Note_on_c, 9, 51, 0
8, 3616, Note_on_c, 9, 36, 97
8, 3616, Note_on_c, 9, 42, 52
8, 3616, Note_on_c, 9, 51, 103
8, 3619, Note_on_c, 9, 36, 0
8, 3619, Note_on_c, 9, 42, 0
8, 3619, Note_on_c, 9, 51, 0
8, 3648, Note_on_c, 9, 36, 109
8, 3648, Note_on_c, 9, 42, 97
8, 3648, Note_on_c, 9, 51, 97
8, 3651, Note_on_c, 9, 36, 0
8, 3651, Note_on_c, 9, 42, 0
8, 3651, Note_on_c, 9, 51, 0
8, 3680, Note_on_c, 9, 42, 62
8, 3680, Note_on_c, 9, 51, 79
8, 3683, Note_on_c, 9, 42, 0
8, 3683, Note_on_c, 9, 51, 0
8, 3712, Note_on_c, 9, 42, 62
8, 3712, Note_on_c, 9, 51, 75
8, 3715, Note_on_c, 9, 42, 0
8, 3715, Note_on_c, 9, 51, 0
8, 3744, Note_on_c, 9, 38, 109
8, 3744, Note_on_c, 9, 42, 97
8, 3744, Note_on_c, 9, 51, 103
8, 3747, Note_on_c, 9, 38, 0
8, 3747, Note_on_c, 9, 42, 0
8, 3747, Note_on_c, 9, 51, 0
8, 3776, Note_on_c, 9, 42, 70
8, 3776, Note_on_c, 9, 51, 52
8, 3779, Note_on_c, 9, 42, 0
8, 3779, Note_on_c, 9, 51, 0
8, 3808, Note_on_c, 9, 42, 58
8, 3808, Note_on_c, 9, 51, 83
8, 3811, Note_on_c, 9, 42, 0
8, 3811, Note_on_c, 9, 51, 0
8, 3840, Note_on_c, 9, 36, 109
8, 3840, Note_on_c, 9, 42, 92
8, 3843, Note_on_c, 9, 36, 0
8, 3843, Note_on_c, 9, 42, 0
8, 3872, Note_on_c, 9, 42, 58
8, 3875, Note_on_c, 9, 42, 0
8, 3904, Note_on_c, 9, 42, 58
8, 3907, Note_on_c, 9, 42, 0
8, 3936, Note_on_c, 9, 38, 103
8, 3936, Note_on_c, 9, 42, 92
8, 3939, Note_on_c, 9, 38, 0
8, 3939, Note_on_c, 9, 42, 0
8, 3968, Note_on_c, 9, 42, 70
8, 3971, Note_on_c, 9, 42, 0
8, 4000, Note_on_c, 9, 36, 97
8, 4000, Note_on_c, 9, 42, 62
8, 4003, Note_on_c, 9, 36, 0
8, 4003, Note_on_c, 9, 42, 0
8, 4032, Note_on_c, 9, 36, 109
8, 4032, Note_on_c, 9, 42, 92
8, 4035, Note_on_c, 9, 36, 0
8, 4035, Note_on_c, 9, 42, 0
8, 4035, Note_on_c, 9, 49, 97
8, 4038, Note_on_c, 9, 49, 0
8, 4064, Note_on_c, 9, 42, 50
8, 4067, Note_on_c, 9, 42, 0
8, 4096, Note_on_c, 9, 42, 62
8, 4099, Note_on_c, 9, 42, 0
8, 4128, Note_on_c, 9, 42, 88
8, 4130, Note_on_c, 9, 38, 88
8, 4131, Note_on_c, 9, 42, 0
8, 4133, Note_on_c, 9, 38, 0
8, 4160, Note_on_c, 9, 42, 70
8, 4161, Note_on_c, 9, 38, 83
8, 4163, Note_on_c, 9, 42, 0
8, 4164, Note_on_c, 9, 38, 0
8, 4192, Note_on_c, 9, 42, 49
8, 4193, Note_on_c, 9, 38, 109
8, 4195, Note_on_c, 9, 42, 0
8, 4197, Note_on_c, 9, 38, 0
8, 4224, Time_signature, 1, 2, 96, 8
8, 4224, Note_on_c, 9, 48, 103
8, 4224, Note_on_c, 9, 38, 103
8, 4226, Note_on_c, 9, 36, 103
8, 4227, Note_on_c, 9, 48, 0
8, 4228, Note_on_c, 9, 38, 0
8, 4229, Note_on_c, 9, 36, 0
8, 4256, Note_on_c, 9, 36, 109
8, 4256, Note_on_c, 9, 38, 103
8, 4257, Note_on_c, 9, 45, 103
8, 4259, Note_on_c, 9, 36, 0
8, 4260, Note_on_c, 9, 38, 0
8, 4261, Note_on_c, 9, 45, 0
8, 4286, Note_on_c, 9, 36, 109
8, 4288, Note_on_c, 9, 41, 109
8, 4288, Note_on_c, 9, 38, 109
8, 4290, Note_on_c, 9, 36, 0
8, 4291, Note_on_c, 9, 41, 0
8, 4292, Note_on_c, 9, 38, 0
8, 4320, Time_signature, 4, 2, 96, 8
8, 4320, Note_on_c, 9, 36, 109
8, 4320, Note_on_c, 9, 42, 103
8, 4320, Note_on_c, 9, 49, 97
8, 4323, Note_on_c, 9, 36, 0
8, 4323, Note_on_c, 9, 42, 0
8, 4323, Note_on_c, 9, 49, 0
8, 4352, Note_on_c, 9, 42, 52
8, 4355, Note_on_c, 9, 42, 0
8, 4384, Note_on_c, 9, 42, 70
8, 4384, Note_on_c, 9, 51, 50
8, 4387, Note_on_c, 9, 42, 0
8, 4387, Note_on_c, 9, 51, 0
8, 4416, Note_on_c, 9, 38, 109
8, 4416, Note_on_c, 9, 42, 103
8, 4416, Note_on_c, 9, 51, 103
8, 4419, Note_on_c, 9, 38, 0
8, 4419, Note_on_c, 9, 42, 0
8, 4419, Note_on_c, 9, 51, 0
8, 4448, Note_on_c, 9, 42, 47
8, 4448, Note_on_c, 9, 51, 45
8, 4451, Note_on_c, 9, 42, 0
8, 4451, Note_on_c, 9, 51, 0
8, 4480, Note_on_c, 9, 36, 103
8, 4480, Note_on_c, 9, 42, 75
8, 4480, Note_on_c, 9, 51, 83
8, 4483, Note_on_c, 9, 36, 0
8, 4483, Note_on_c, 9, 42, 0
8, 4483, Note_on_c, 9, 51, 0
8, 4512, Note_on_c, 9, 36, 103
8, 4512, Note_on_c, 9, 42, 92
8, 4512, Note_on_c, 9, 51, 97
8, 4515, Note_on_c, 9, 36, 0
8, 4515, Note_on_c, 9, 42, 0
8, 4515, Note_on_c, 9, 51, 0
8, 4544, Note_on_c, 9, 42, 62
8, 4544, Note_on_c, 9, 51, 21
8, 4547, Note_on_c, 9, 42, 0
8, 4547, Note_on_c, 9, 51, 0
8, 4576, Note_on_c, 9, 42, 54
8, 4576, Note_on_c, 9, 51, 46
8, 4579, Note_on_c, 9, 42, 0
8, 4579, Note_on_c, 9, 51, 0
8, 4608, Note_on_c, 9, 38, 109
8, 4608, Note_on_c, 9, 42, 92
8, 4608, Note_on_c, 9, 51, 97
8, 4611, Note_on_c, 9, 38, 0
8, 4611, Note_on_c, 9, 42, 0
8, 4611, Note_on_c, 9, 51, 0
8, 4640, Note_on_c, 9, 42, 66
8, 4640, Note_on_c, 9, 51, 83
8, 4643, Note_on_c, 9, 42, 0
8, 4643, Note_on_c, 9, 51, 0
8, 4672, Note_on_c, 9, 42, 54
8, 4672, Note_on_c, 9, 51, 103
8, 4675, Note_on_c, 9, 42, 0
8, 4675, Note_on_c, 9, 51, 0
8, 4704, Note_on_c, 9, 36, 109
8, 4704, Note_on_c, 9, 42, 92
8, 4704, Note_on_c, 9, 51, 103
8, 4707, Note_on_c, 9, 36, 0
8, 4707, Note_on_c, 9, 42, 0
8, 4707, Note_on_c, 9, 51, 0
8, 4736, Note_on_c, 9, 42, 58
8, 4736, Note_on_c, 9, 51, 62
8, 4739, Note_on_c, 9, 42, 0
8, 4739, Note_on_c, 9, 51, 0
8, 4768, Note_on_c, 9, 42, 62
8, 4768, Note_on_c, 9, 51, 79
8, 4771, Note_on_c, 9, 42, 0
8, 4771, Note_on_c, 9, 51, 0
8, 4800, Note_on_c, 9, 38, 109
8, 4800, Note_on_c, 9, 42, 97
8, 4800, Note_on_c, 9, 51, 103
8, 4803, Note_on_c, 9, 38, 0
8, 4803, Note_on_c, 9, 42, 0
8, 4803, Note_on_c, 9, 51, 0
8, 4832, Note_on_c, 9, 42, 62
8, 4832, Note_on_c, 9, 51, 62
8, 4835, Note_on_c, 9, 42, 0
8, 4835, Note_on_c, 9, 51, 0
8, 4864, Note_on_c, 9, 36, 103
8, 4864, Note_on_c, 9, 42, 54
8, 4864, Note_on_c, 9, 51, 97
8, 4867, Note_on_c, 9, 36, 0
8, 4867, Note_on_c, 9, 42, 0
8, 4867, Note_on_c, 9, 51, 0
8, 4896, Note_on_c, 9, 36, 103
8, 4896, Note_on_c, 9, 42, 92
8, 4896, Note_on_c, 9, 51, 103
8, 4899, Note_on_c, 9, 36, 0
8, 4899, Note_on_c, 9, 42, 0
8, 4899, Note_on_c, 9, 51, 0
8, 4928, Note_on_c, 9, 42, 58
8, 4928, Note_on_c, 9, 51, 66
8, 4931, Note_on_c, 9, 42, 0
8, 4931, Note_on_c, 9, 51, 0
8, 4960, Note_on_c, 9, 42, 50
8, 4960, Note_on_c, 9, 51, 75
8, 4963, Note_on_c, 9, 42, 0
8, 4963, Note_on_c, 9, 51, 0
8, 4992, Note_on_c, 9, 38, 117
8, 4992, Note_on_c, 9, 42, 92
8, 4992, Note_on_c, 9, 51, 103
8, 4995, Note_on_c, 9, 38, 0
8, 4995, Note_on_c, 9, 42, 0
8, 4995, Note_on_c, 9, 51, 0
8, 5024, Note_on_c, 9, 42, 58
8, 5024, Note_on_c, 9, 51, 54
8, 5027, Note_on_c, 9, 42, 0
8, 5027, Note_on_c, 9, 51, 0
8, 5056, Note_on_c, 9, 42, 62
8, 5056, Note_on_c, 9, 51, 97
8, 5059, Note_on_c, 9, 42, 0
8, 5059, Note_on_c, 9, 51, 0
8, 5088, Note_on_c, 9, 36, 109
8, 5088, Note_on_c, 9, 42, 92
8, 5088, Note_on_c, 9, 51, 103
8, 5091, Note_on_c, 9, 36, 0
8, 5091, Note_on_c, 9, 42, 0
8, 5091, Note_on_c, 9, 51, 0
8, 5120, Note_on_c, 9, 42, 58
8, 5120, Note_on_c, 9, 51, 62
8, 5123, Note_on_c, 9, 42, 0
8, 5123, Note_on_c, 9, 51, 0
8, 5152, Note_on_c, 9, 42, 50
8, 5152, Note_on_c, 9, 51, 88
8, 5155, Note_on_c, 9, 42, 0
8, 5155, Note_on_c, 9, 51, 0
8, 5184, Note_on_c, 9, 38, 109
8, 5184, Note_on_c, 9, 42, 92
8, 5184, Note_on_c, 9, 51, 109
8, 5187, Note_on_c, 9, 38, 0
8, 5187, Note_on_c, 9, 42, 0
8, 5187, Note_on_c, 9, 51, 0
8, 5216, Note_on_c, 9, 42, 62
8, 5216, Note_on_c, 9, 51, 45
8, 5219, Note_on_c, 9, 42, 0
8, 5219, Note_on_c, 9, 51, 0
8, 5248, Note_on_c, 9, 36, 97
8, 5248, Note_on_c, 9, 42, 52
8, 5248, Note_on_c, 9, 51, 103
8, 5251, Note_on_c, 9, 36, 0
8, 5251, Note_on_c, 9, 42, 0
8, 5251, Note_on_c, 9, 51, 0
8, 5280, Note_on_c, 9, 36, 109
8, 5280, Note_on_c, 9, 42, 97
8, 5280, Note_on_c, 9, 51, 97
8, 5283, Note_on_c, 9, 36, 0
8, 5283, Note_on_c, 9, 42, 0
8, 5283, Note_on_c, 9, 51, 0
8, 5312, Note_on_c, 9, 42, 62
8, 5312, Note_on_c, 9, 51, 79
8, 5315, Note_on_c, 9, 42, 0
8, 5315, Note_on_c, 9, 51, 0
8, 5344, Note_on_c, 9, 42, 62
8, 5344, Note_on_c, 9, 51, 75
8, 5347, Note_on_c, 9, 42, 0
8, 5347, Note_on_c, 9, 51, 0
8, 5376, Note_on_c, 9, 38, 109
8, 5376, Note_on_c, 9, 42, 97
8, 5376, Note_on_c, 9, 51, 103
8, 5379, Note_on_c, 9, 38, 0
8, 5379, Note_on_c, 9, 42, 0
8, 5379, Note_on_c, 9, 51, 0
8, 5408, Note_on_c, 9, 42, 70
8, 5408, Note_on_c, 9, 51, 52
8, 5411, Note_on_c, 9, 42, 0
8, 5411, Note_on_c, 9, 51, 0
8, 5440, Note_on_c, 9, 42, 58
8, 5440, Note_on_c, 9, 51, 83
8, 5443, Note_on_c, 9, 42, 0
8, 5443, Note_on_c, 9, 51, 0
8, 5472, Note_on_c, 9, 36, 109
8, 5472, Note_on_c, 9, 42, 92
8, 5472, Note_on_c, 9, 51, 103
8, 5475, Note_on_c, 9, 36, 0
8, 5475, Note_on_c, 9, 42, 0
8, 5475, Note_on_c, 9, 51, 0
8, 5504, Note_on_c, 9, 42, 58
8, 5504, Note_on_c, 9, 51, 70
8, 5507, Note_on_c, 9, 42, 0
8, 5507, Note_on_c, 9, 51, 0
8, 5536, Note_on_c, 9, 42, 58
8, 5536, Note_on_c, 9, 51, 75
8, 5539, Note_on_c, 9, 42, 0
8, 5539, Note_on_c, 9, 51, 0
8, 5568, Note_on_c, 9, 38, 103
8, 5568, Note_on_c, 9, 42, 92
8, 5568, Note_on_c, 9, 51, 103
8, 5571, Note_on_c, 9, 38, 0
8, 5571, Note_on_c, 9, 42, 0
8, 5571, Note_on_c, 9, 51, 0
8, 5600, Note_on_c, 9, 42, 70
8, 5600, Note_on_c, 9, 51, 62
8, 5603, Note_on_c, 9, 42, 0
8, 5603, Note_on_c, 9, 51, 0
8, 5632, Note_on_c, 9, 36, 97
8, 5632, Note_on_c, 9, 42, 62
8, 5632, Note_on_c, 9, 51, 97
8, 5635, Note_on_c, 9, 36, 0
8, 5635, Note_on_c, 9, 42, 0
8, 5635, Note_on_c, 9, 51, 0
8, 5664, Note_on_c, 9, 36, 109
8, 5664, Note_on_c, 9, 42, 92
8, 5664, Note_on_c, 9, 51, 97
8, 5667, Note_on_c, 9, 36, 0
8, 5667, Note_on_c, 9, 42, 0
8, 5667, Note_on_c, 9, 51, 0
8, 5696, Note_on_c, 9, 42, 50
8, 5696, Note_on_c, 9, 51, 66
8, 5699, Note_on_c, 9, 42, 0
8, 5699, Note_on_c, 9, 51, 0
8, 5728, Note_on_c, 9, 42, 62
8, 5728, Note_on_c, 9, 51, 88
8, 5731, Note_on_c, 9, 42, 0
8, 5731, Note_on_c, 9, 51, 0
8, 5760, Note_on_c, 9, 38, 109
8, 5760, Note_on_c, 9, 42, 88
8, 5760, Note_on_c, 9, 51, 109
8, 5763, Note_on_c, 9, 38, 0
8, 5763, Note_on_c, 9, 42, 0
8, 5763, Note_on_c, 9, 51, 0
8, 5792, Note_on_c, 9, 36, 103
8, 5792, Note_on_c, 9, 42, 70
8, 5792, Note_on_c, 9, 51, 88
8, 5795, Note_on_c, 9, 36, 0
8, 5795, Note_on_c, 9, 42, 0
8, 5795, Note_on_c, 9, 51, 0
8, 5824, Note_on_c, 9, 38, 103
8, 5824, Note_on_c, 9, 42, 49
8, 5824, Note_on_c, 9, 51, 103
8, 5827, Note_on_c, 9, 38, 0
8, 5827, Note_on_c, 9, 42, 0
8, 5827, Note_on_c, 9, 51, 0
8, 5856, Note_on_c, 9, 36, 109
8, 5856, Note_on_c, 9, 42, 103
8, 5856, Note_on_c, 9, 49, 97
8, 5859, Note_on_c, 9, 36, 0
8, 5859, Note_on_c, 9, 42, 0
8, 5859, Note_on_c, 9, 49, 0
8, 5888, Note_on_c, 9, 42, 52
8, 5891, Note_on_c, 9, 42, 0
8, 5920, Note_on_c, 9, 42, 70
8, 5920, Note_on_c, 9, 51, 50
8, 5923, Note_on_c, 9, 42, 0
8, 5923, Note_on_c, 9, 51, 0
8, 5952, Note_on_c, 9, 38, 109
8, 5952, Note_on_c, 9, 42, 103
8, 5952, Note_on_c, 9, 51, 103
8, 5955, Note_on_c, 9, 38, 0
8, 5955, Note_on_c, 9, 42, 0
8, 5955, Note_on_c, 9, 51, 0
8, 5984, Note_on_c, 9, 42, 47
8, 5984, Note_on_c, 9, 51, 45
8, 5987, Note_on_c, 9, 42, 0
8, 5987, Note_on_c, 9, 51, 0
8, 6016, Note_on_c, 9, 36, 103
8, 6016, Note_on_c, 9, 42, 75
8, 6016, Note_on_c, 9, 51, 83
8, 6019, Note_on_c, 9, 36, 0
8, 6019, Note_on_c, 9, 42, 0
8, 6019, Note_on_c, 9, 51, 0
8, 6048, Note_on_c, 9, 36, 103
8, 6048, Note_on_c, 9, 42, 92
8, 6048, Note_on_c, 9, 51, 97
8, 6051, Note_on_c, 9, 36, 0
8, 6051, Note_on_c, 9, 42, 0
8, 6051, Note_on_c, 9, 51, 0
8, 6080, Note_on_c, 9, 42, 62
8, 6080, Note_on_c, 9, 51, 21
8, 6083, Note_on_c, 9, 42, 0
8, 6083, Note_on_c, 9, 51, 0
8, 6112, Note_on_c, 9, 42, 54
8, 6112, Note_on_c, 9, 51, 46
8, 6115, Note_on_c, 9, 42, 0
8, 6115, Note_on_c, 9, 51, 0
8, 6144, Note_on_c, 9, 38, 109
8, 6144, Note_on_c, 9, 42, 92
8, 6144, Note_on_c, 9, 51, 97
8, 6147, Note_on_c, 9, 38, 0
8, 6147, Note_on_c, 9, 42, 0
8, 6147, Note_on_c, 9, 51, 0
8, 6176, Note_on_c, 9, 42, 66
8, 6176, Note_on_c, 9, 51, 83
8, 6179, Note_on_c, 9, 42, 0
8, 6179, Note_on_c, 9, 51, 0
8, 6208, Note_on_c, 9, 42, 54
8, 6208, Note_on_c, 9, 51, 103
8, 6211, Note_on_c, 9, 42, 0
8, 6211, Note_on_c, 9, 51, 0
8, 6240, Note_on_c, 9, 36, 109
8, 6240, Note_on_c, 9, 42, 92
8, 6240, Note_on_c, 9, 51, 103
8, 6243, Note_on_c, 9, 36, 0
8, 6243, Note_on_c, 9, 42, 0
8, 6243, Note_on_c, 9, 51, 0
8, 6272, Note_on_c, 9, 42, 58
8, 6272, Note_on_c, 9, 51, 62
8, 6275, Note_on_c, 9, 42, 0
8, 6275, Note_on_c, 9, 51, 0
8, 6304, Note_on_c, 9, 42, 62
8, 6304, Note_on_c, 9, 51, 79
8, 6307, Note_on_c, 9, 42, 0
8, 6307, Note_on_c, 9, 51, 0
8, 6336, Note_on_c, 9, 38, 109
8, 6336, Note_on_c, 9, 42, 97
8, 6336, Note_on_c, 9, 51, 103
8, 6339, Note_on_c, 9, 38, 0
8, 6339, Note_on_c, 9, 42, 0
8, 6339, Note_on_c, 9, 51, 0
8, 6368, Note_on_c, 9, 42, 62
8, 6368, Note_on_c, 9, 51, 62
8, 6371, Note_on_c, 9, 42, 0
8, 6371, Note_on_c, 9, 51, 0
8, 6400, Note_on_c, 9, 36, 103
8, 6400, Note_on_c, 9, 42, 54
8, 6400, Note_on_c, 9, 51, 97
8, 6403, Note_on_c, 9, 36, 0
8, 6403, Note_on_c, 9, 42, 0
8, 6403, Note_on_c, 9, 51, 0
8, 6432, Note_on_c, 9, 36, 103
8, 6432, Note_on_c, 9, 42, 92
8, 6432, Note_on_c, 9, 51, 103
8, 6435, Note_on_c, 9, 36, 0
8, 6435, Note_on_c, 9, 42, 0
8, 6435, Note_on_c, 9, 51, 0
8, 6464, Note_on_c, 9, 42, 58
8, 6464, Note_on_c, 9, 51, 66
8, 6467, Note_on_c, 9, 42, 0
8, 6467, Note_on_c, 9, 51, 0
8, 6496, Note_on_c, 9, 42, 50
8, 6496, Note_on_c, 9, 51, 75
8, 6499, Note_on_c, 9, 42, 0
8, 6499, Note_on_c, 9, 51, 0
8, 6528, Note_on_c, 9, 38, 117
8, 6528, Note_on_c, 9, 42, 92
8, 6528, Note_on_c, 9, 51, 103
8, 6531, Note_on_c, 9, 38, 0
8, 6531, Note_on_c, 9, 42, 0
8, 6531, Note_on_c, 9, 51, 0
8, 6560, Note_on_c, 9, 42, 58
8, 6560, Note_on_c, 9, 51, 54
8, 6563, Note_on_c, 9, 42, 0
8, 6563, Note_on_c, 9, 51, 0
8, 6592, Note_on_c, 9, 42, 62
8, 6592, Note_on_c, 9, 51, 97
8, 6595, Note_on_c, 9, 42, 0
8, 6595, Note_on_c, 9, 51, 0
8, 6624, Note_on_c, 9, 36, 109
8, 6624, Note_on_c, 9, 42, 92
8, 6624, Note_on_c, 9, 51, 103
8, 6627, Note_on_c, 9, 36, 0
8, 6627, Note_on_c, 9, 42, 0
8, 6627, Note_on_c, 9, 51, 0
8, 6656, Note_on_c, 9, 42, 58
8, 6656, Note_on_c, 9, 51, 62
8, 6659, Note_on_c, 9, 42, 0
8, 6659, Note_on_c, 9, 51, 0
8, 6688, Note_on_c, 9, 42, 50
8, 6688, Note_on_c, 9, 51, 88
8, 6691, Note_on_c, 9, 42, 0
8, 6691, Note_on_c, 9, 51, 0
8, 6720, Note_on_c, 9, 38, 109
8, 6720, Note_on_c, 9, 42, 92
8, 6720, Note_on_c, 9, 51, 109
8, 6723, Note_on_c, 9, 38, 0
8, 6723, Note_on_c, 9, 42, 0
8, 6723, Note_on_c, 9, 51, 0
8, 6752, Note_on_c, 9, 42, 62
8, 6752, Note_on_c, 9, 51, 45
8, 6755, Note_on_c, 9, 42, 0
8, 6755, Note_on_c, 9, 51, 0
8, 6784, Note_on_c, 9, 36, 97
8, 6784, Note_on_c, 9, 42, 52
8, 6784, Note_on_c, 9, 51, 103
8, 6787, Note_on_c, 9, 36, 0
8, 6787, Note_on_c, 9, 42, 0
8, 6787, Note_on_c, 9, 51, 0
8, 6816, Note_on_c, 9, 36, 109
8, 6816, Note_on_c, 9, 42, 97
8, 6816, Note_on_c, 9, 51, 97
8, 6819, Note_on_c, 9, 36, 0
8, 6819, Note_on_c, 9, 42, 0
8, 6819, Note_on_c, 9, 51, 0
8, 6848, Note_on_c, 9, 42, 62
8, 6848, Note_on_c, 9, 51, 79
8, 6851, Note_on_c, 9, 42, 0
8, 6851, Note_on_c, 9, 51, 0
8, 6880, Note_on_c, 9, 42, 62
8, 6880, Note_on_c, 9, 51, 75
8, 6883, Note_on_c, 9, 42, 0
8, 6883, Note_on_c, 9, 51, 0
8, 6912, Note_on_c, 9, 38, 109
8, 6912, Note_on_c, 9, 42, 97
8, 6912, Note_on_c, 9, 51, 103
8, 6915, Note_on_c, 9, 38, 0
8, 6915, Note_on_c, 9, 42, 0
8, 6915, Note_on_c, 9, 51, 0
8, 6944, Note_on_c, 9, 42, 70
8, 6944, Note_on_c, 9, 51, 52
8, 6947, Note_on_c, 9, 42, 0
8, 6947, Note_on_c, 9, 51, 0
8, 6976, Note_on_c, 9, 42, 58
8, 6976, Note_on_c, 9, 51, 83
8, 6979, Note_on_c, 9, 42, 0
8, 6979, Note_on_c, 9, 51, 0
8, 7008, Note_on_c, 9, 36, 117
8, 7008, Note_on_c, 9, 49, 103
8, 7008, Note_on_c, 9, 46, 109
8, 7011, Note_on_c, 9, 36, 0
8, 7011, Note_on_c, 9, 49, 0
8, 7011, Note_on_c, 9, 46, 0
8, 7040, Note_on_c, 9, 42, 79
8, 7040, Note_on_c, 9, 51, 43
8, 7043, Note_on_c, 9, 42, 0
8, 7043, Note_on_c, 9, 51, 0
8, 7056, Note_on_c, 9, 42, 79
8, 7059, Note_on_c, 9, 42, 0
8, 7072, Note_on_c, 9, 42, 97
8, 7072, Note_on_c, 9, 51, 31
8, 7075, Note_on_c, 9, 42, 0
8, 7075, Note_on_c, 9, 51, 0
8, 7104, Note_on_c, 9, 38, 97
8, 7104, Note_on_c, 9, 51, 97
8, 7104, Note_on_c, 9, 46, 97
8, 7107, Note_on_c, 9, 38, 0
8, 7107, Note_on_c, 9, 51, 0
8, 7107, Note_on_c, 9, 46, 0
8, 7136, Note_on_c, 9, 42, 97
8, 7136, Note_on_c, 9, 51, 62
8, 7139, Note_on_c, 9, 42, 0
8, 7139, Note_on_c, 9, 51, 0
8, 7168, Note_on_c, 9, 36, 103
8, 7168, Note_on_c, 9, 42, 97
8, 7168, Note_on_c, 9, 51, 83
8, 7171, Note_on_c, 9, 36, 0
8, 7171, Note_on_c, 9, 42, 0
8, 7171, Note_on_c, 9, 51, 0
8, 7200, Note_on_c, 9, 36, 103
8, 7200, Note_on_c, 9, 51, 103
8, 7200, Note_on_c, 9, 46, 92
8, 7203, Note_on_c, 9, 36, 0
8, 7203, Note_on_c, 9, 51, 0
8, 7203, Note_on_c, 9, 46, 0
8, 7232, Note_on_c, 9, 42, 79
8, 7232, Note_on_c, 9, 51, 50
8, 7235, Note_on_c, 9, 42, 0
8, 7235, Note_on_c, 9, 51, 0
8, 7248, Note_on_c, 9, 42, 88
8, 7251, Note_on_c, 9, 42, 0
8, 7264, Note_on_c, 9, 42, 97
8, 7264, Note_on_c, 9, 51, 54
8, 7267, Note_on_c, 9, 42, 0
8, 7267, Note_on_c, 9, 51, 0
8, 7296, Note_on_c, 9, 38, 103
8, 7296, Note_on_c, 9, 51, 103
8, 7296, Note_on_c, 9, 46, 97
8, 7299, Note_on_c, 9, 38, 0
8, 7299, Note_on_c, 9, 51, 0
8, 7299, Note_on_c, 9, 46, 0
8, 7328, Note_on_c, 9, 42, 97
8, 7328, Note_on_c, 9, 51, 54
8, 7331, Note_on_c, 9, 42, 0
8, 7331, Note_on_c, 9, 51, 0
8, 7360, Note_on_c, 9, 42, 103
8, 7360, Note_on_c, 9, 51, 103
8, 7363, Note_on_c, 9, 42, 0
8, 7363, Note_on_c, 9, 51, 0
8, 7392, Note_on_c, 9, 36, 109
8, 7392, Note_on_c, 9, 51, 103
8, 7392, Note_on_c, 9, 46, 97
8, 7395, Note_on_c, 9, 36, 0
8, 7395, Note_on_c, 9, 51, 0
8, 7395, Note_on_c, 9, 46, 0
8, 7424, Note_on_c, 9, 42, 97
8, 7424, Note_on_c, 9, 51, 25
8, 7427, Note_on_c, 9, 42, 0
8, 7427, Note_on_c, 9, 51, 0
8, 7440, Note_on_c, 9, 42, 92
8, 7443, Note_on_c, 9, 42, 0
8, 7456, Note_on_c, 9, 42, 97
8, 7456, Note_on_c, 9, 51, 79
8, 7459, Note_on_c, 9, 42, 0
8, 7459, Note_on_c, 9, 51, 0
8, 7488, Note_on_c, 9, 38, 103
8, 7488, Note_on_c, 9, 51, 109
8, 7488, Note_on_c, 9, 46, 92
8, 7491, Note_on_c, 9, 38, 0
8, 7491, Note_on_c, 9, 51, 0
8, 7491, Note_on_c, 9, 46, 0
8, 7520, Note_on_c, 9, 42, 97
8, 7520, Note_on_c, 9, 51, 88
8, 7523, Note_on_c, 9, 42, 0
8, 7523, Note_on_c, 9, 51, 0
8, 7552, Note_on_c, 9, 36, 103
8, 7552, Note_on_c, 9, 42, 97
8, 7552, Note_on_c, 9, 51, 103
8, 7555, Note_on_c, 9, 36, 0
8, 7555, Note_on_c, 9, 42, 0
8, 7555, Note_on_c, 9, 51, 0
8, 7584, Note_on_c, 9, 36, 109
8, 7584, Note_on_c, 9, 49, 97
8, 7584, Note_on_c, 9, 46, 103
8, 7587, Note_on_c, 9, 36, 0
8, 7587, Note_on_c, 9, 49, 0
8, 7587, Note_on_c, 9, 46, 0
8, 7680, Note_on_c, 9, 42, 97
8, 7683, Note_on_c, 9, 42, 0
8, 7776, Note_on_c, 9, 36, 109
8, 7776, Note_on_c, 9, 42, 103
8, 7776, Note_on_c, 9, 49, 97
8, 7779, Note_on_c, 9, 36, 0
8, 7779, Note_on_c, 9, 42, 0
8, 7779, Note_on_c, 9, 49, 0
8, 7808, Note_on_c, 9, 42, 52
8, 7811, Note_on_c, 9, 42, 0
8, 7840, Note_on_c, 9, 42, 70
8, 7840, Note_on_c, 9, 51, 50
8, 7843, Note_on_c, 9, 42, 0
8, 7843, Note_on_c, 9, 51, 0
8, 7872, Note_on_c, 9, 38, 109
8, 7872, Note_on_c, 9, 42, 103
8, 7872, Note_on_c, 9, 51, 103
8, 7875, Note_on_c, 9, 38, 0
8, 7875, Note_on_c, 9, 42, 0
8, 7875, Note_on_c, 9, 51, 0
8, 7904, Note_on_c, 9, 42, 47
8, 7904, Note_on_c, 9, 51, 45
8, 7907, Note_on_c, 9, 42, 0
8, 7907, Note_on_c, 9, 51, 0
8, 7936, Note_on_c, 9, 36, 103
8, 7936, Note_on_c, 9, 42, 75
8, 7936, Note_on_c, 9, 51, 83
8, 7939, Note_on_c, 9, 36, 0
8, 7939, Note_on_c, 9, 42, 0
8, 7939, Note_on_c, 9, 51, 0
8, 7968, Note_on_c, 9, 36, 103
8, 7968, Note_on_c, 9, 42, 92
8, 7968, Note_on_c, 9, 51, 97
8, 7971, Note_on_c, 9, 36, 0
8, 7971, Note_on_c, 9, 42, 0
8, 7971, Note_on_c, 9, 51, 0
8, 8000, Note_on_c, 9, 42, 62
8, 8000, Note_on_c, 9, 51, 21
8, 8003, Note_on_c, 9, 42, 0
8, 8003, Note_on_c, 9, 51, 0
8, 8032, Note_on_c, 9, 42, 54
8, 8032, Note_on_c, 9, 51, 46
8, 8035, Note_on_c, 9, 42, 0
8, 8035, Note_on_c, 9, 51, 0
8, 8064, Note_on_c, 9, 38, 109
8, 8064, Note_on_c, 9, 42, 92
8, 8064, Note_on_c, 9, 51, 97
8, 8067, Note_on_c, 9, 38, 0
8, 8067, Note_on_c, 9, 42, 0
8, 8067, Note_on_c, 9, 51, 0
8, 8096, Note_on_c, 9, 42, 66
8, 8096, Note_on_c, 9, 51, 83
8, 8099, Note_on_c, 9, 42, 0
8, 8099, Note_on_c, 9, 51, 0
8, 8128, Note_on_c, 9, 42, 54
8, 8128, Note_on_c, 9, 51, 103
8, 8131, Note_on_c, 9, 42, 0
8, 8131, Note_on_c, 9, 51, 0
8, 8160, Note_on_c, 9, 36, 109
8, 8160, Note_on_c, 9, 42, 92
8, 8160, Note_on_c, 9, 51, 103
8, 8163, Note_on_c, 9, 36, 0
8, 8163, Note_on_c, 9, 42, 0
8, 8163, Note_on_c, 9, 51, 0
8, 8192, Note_on_c, 9, 42, 58
8, 8192, Note_on_c, 9, 51, 62
8, 8195, Note_on_c, 9, 42, 0
8, 8195, Note_on_c, 9, 51, 0
8, 8224, Note_on_c, 9, 42, 62
8, 8224, Note_on_c, 9, 51, 79
8, 8227, Note_on_c, 9, 42, 0
8, 8227, Note_on_c, 9, 51, 0
8, 8256, Note_on_c, 9, 38, 109
8, 8256, Note_on_c, 9, 42, 97
8, 8256, Note_on_c, 9, 51, 103
8, 8259, Note_on_c, 9, 38, 0
8, 8259, Note_on_c, 9, 42, 0
8, 8259, Note_on_c, 9, 51, 0
8, 8288, Note_on_c, 9, 42, 62
8, 8288, Note_on_c, 9, 51, 62
8, 8291, Note_on_c, 9, 42, 0
8, 8291, Note_on_c, 9, 51, 0
8, 8320, Note_on_c, 9, 36, 103
8, 8320, Note_on_c, 9, 42, 54
8, 8320, Note_on_c, 9, 51, 97
8, 8323, Note_on_c, 9, 36, 0
8, 8323, Note_on_c, 9, 42, 0
8, 8323, Note_on_c, 9, 51, 0
8, 8352, Note_on_c, 9, 36, 103
8, 8352, Note_on_c, 9, 42, 92
8, 8352, Note_on_c, 9, 51, 103
8, 8355, Note_on_c, 9, 36, 0
8, 8355, Note_on_c, 9, 42, 0
8, 8355, Note_on_c, 9, 51, 0
8, 8384, Note_on_c, 9, 42, 58
8, 8384, Note_on_c, 9, 51, 66
8, 8387, Note_on_c, 9, 42, 0
8, 8387, Note_on_c, 9, 51, 0
8, 8416, Note_on_c, 9, 42, 50
8, 8416, Note_on_c, 9, 51, 75
8, 8419, Note_on_c, 9, 42, 0
8, 8419, Note_on_c, 9, 51, 0
8, 8448, Note_on_c, 9, 38, 117
8, 8448, Note_on_c, 9, 42, 92
8, 8448, Note_on_c, 9, 51, 103
8, 8451, Note_on_c, 9, 38, 0
8, 8451, Note_on_c, 9, 42, 0
8, 8451, Note_on_c, 9, 51, 0
8, 8480, Note_on_c, 9, 42, 58
8, 8480, Note_on_c, 9, 51, 54
8, 8483, Note_on_c, 9, 42, 0
8, 8483, Note_on_c, 9, 51, 0
8, 8512, Note_on_c, 9, 42, 62
8, 8512, Note_on_c, 9, 51, 97
8, 8515, Note_on_c, 9, 42, 0
8, 8515, Note_on_c, 9, 51, 0
8, 8544, Note_on_c, 9, 36, 109
8, 8544, Note_on_c, 9, 42, 92
8, 8544, Note_on_c, 9, 51, 103
8, 8547, Note_on_c, 9, 36, 0
8, 8547, Note_on_c, 9, 42, 0
8, 8547, Note_on_c, 9, 51, 0
8, 8576, Note_on_c, 9, 42, 58
8, 8576, Note_on_c, 9, 51, 62
8, 8579, Note_on_c, 9, 42, 0
8, 8579, Note_on_c, 9, 51, 0
8, 8608, Note_on_c, 9, 42, 50
8, 8608, Note_on_c, 9, 51, 88
8, 8611, Note_on_c, 9, 42, 0
8, 8611, Note_on_c, 9, 51, 0
8, 8640, Note_on_c, 9, 38, 109
8, 8640, Note_on_c, 9, 42, 92
8, 8640, Note_on_c, 9, 51, 109
8, 8643, Note_on_c, 9, 38, 0
8, 8643, Note_on_c, 9, 42, 0
8, 8643, Note_on_c, 9, 51, 0
8, 8672, Note_on_c, 9, 42, 62
8, 8672, Note_on_c, 9, 51, 45
8, 8675, Note_on_c, 9, 42, 0
8, 8675, Note_on_c, 9, 51, 0
8, 8704, Note_on_c, 9, 36, 97
8, 8704, Note_on_c, 9, 42, 52
8, 8704, Note_on_c, 9, 51, 103
8, 8707, Note_on_c, 9, 36, 0
8, 8707, Note_on_c, 9, 42, 0
8, 8707, Note_on_c, 9, 51, 0
8, 8736, Note_on_c, 9, 36, 109
8, 8736, Note_on_c, 9, 42, 97
8, 8736, Note_on_c, 9, 51, 97
8, 8739, Note_on_c, 9, 36, 0
8, 8739, Note_on_c, 9, 42, 0
8, 8739, Note_on_c, 9, 51, 0
8, 8768, Note_on_c, 9, 42, 62
8, 8768, Note_on_c, 9, 51, 79
8, 8771, Note_on_c, 9, 42, 0
8, 8771, Note_on_c, 9, 51, 0
8, 8800, Note_on_c, 9, 42, 62
8, 8800, Note_on_c, 9, 51, 75
8, 8803, Note_on_c, 9, 42, 0
8, 8803, Note_on_c, 9, 51, 0
8, 8832, Note_on_c, 9, 38, 109
8, 8832, Note_on_c, 9, 42, 97
8, 8832, Note_on_c, 9, 51, 103
8, 8835, Note_on_c, 9, 38, 0
8, 8835, Note_on_c, 9, 42, 0
8, 8835, Note_on_c, 9, 51, 0
8, 8864, Note_on_c, 9, 42, 70
8, 8864, Note_on_c, 9, 51, 52
8, 8867, Note_on_c, 9, 42, 0
8, 8867, Note_on_c, 9, 51, 0
8, 8896, Note_on_c, 9, 42, 58
8, 8896, Note_on_c, 9, 51, 83
8, 8899, Note_on_c, 9, 42, 0
8, 8899, Note_on_c, 9, 51, 0
8, 8928, Note_on_c, 9, 36, 109
8, 8928, Note_on_c, 9, 42, 92
8, 8928, Note_on_c, 9, 51, 103
8, 8931, Note_on_c, 9, 36, 0
8, 8931, Note_on_c, 9, 42, 0
8, 8931, Note_on_c, 9, 51, 0
8, 8960, Note_on_c, 9, 42, 58
8, 8960, Note_on_c, 9, 51, 70
8, 8963, Note_on_c, 9, 42, 0
8, 8963, Note_on_c, 9, 51, 0
8, 8992, Note_on_c, 9, 42, 58
8, 8992, Note_on_c, 9, 51, 75
8, 8995, Note_on_c, 9, 42, 0
8, 8995, Note_on_c, 9, 51, 0
8, 9024, Note_on_c, 9, 38, 103
8, 9024, Note_on_c, 9, 42, 92
8, 9024, Note_on_c, 9, 51, 103
8, 9027, Note_on_c, 9, 38, 0
8, 9027, Note_on_c, 9, 42, 0
8, 9027, Note_on_c, 9, 51, 0
8, 9056, Note_on_c, 9, 42, 70
8, 9056, Note_on_c, 9, 51, 62
8, 9059, Note_on_c, 9, 42, 0
8, 9059, Note_on_c, 9, 51, 0
8, 9088, Note_on_c, 9, 36, 97
8, 9088, Note_on_c, 9, 42, 62
8, 9088, Note_on_c, 9, 51, 97
8, 9091, Note_on_c, 9, 36, 0
8, 9091, Note_on_c, 9, 42, 0
8, 9091, Note_on_c, 9, 51, 0
8, 9120, Note_on_c, 9, 36, 109
8, 9120, Note_on_c, 9, 42, 92
8, 9120, Note_on_c, 9, 51, 97
8, 9123, Note_on_c, 9, 36, 0
8, 9123, Note_on_c, 9, 42, 0
8, 9123, Note_on_c, 9, 51, 0
8, 9152, Note_on_c, 9, 42, 50
8, 9152, Note_on_c, 9, 51, 66
8, 9155, Note_on_c, 9, 42, 0
8, 9155, Note_on_c, 9, 51, 0
8, 9184, Note_on_c, 9, 42, 62
8, 9184, Note_on_c, 9, 51, 88
8, 9187, Note_on_c, 9, 42, 0
8, 9187, Note_on_c, 9, 51, 0
8, 9216, Note_on_c, 9, 38, 109
8, 9216, Note_on_c, 9, 42, 88
8, 9216, Note_on_c, 9, 51, 109
8, 9219, Note_on_c, 9, 38, 0
8, 9219, Note_on_c, 9, 42, 0
8, 9219, Note_on_c, 9, 51, 0
8, 9248, Note_on_c, 9, 36, 103
8, 9248, Note_on_c, 9, 42, 70
8, 9248, Note_on_c, 9, 51, 88
8, 9251, Note_on_c, 9, 36, 0
8, 9251, Note_on_c, 9, 42, 0
8, 9251, Note_on_c, 9, 51, 0
8, 9280, Note_on_c, 9, 38, 103
8, 9280, Note_on_c, 9, 42, 49
8, 9280, Note_on_c, 9, 51, 103
8, 9283, Note_on_c, 9, 38, 0
8, 9283, Note_on_c, 9, 42, 0
8, 9283, Note_on_c, 9, 51, 0
8, 9312, Note_on_c, 9, 36, 109
8, 9312, Note_on_c, 9, 42, 103
8, 9312, Note_on_c, 9, 49, 97
8, 9315, Note_on_c, 9, 36, 0
8, 9315, Note_on_c, 9, 42, 0
8, 9315, Note_on_c, 9, 49, 0
8, 9344, Note_on_c, 9, 42, 52
8, 9347, Note_on_c, 9, 42, 0
8, 9376, Note_on_c, 9, 42, 70
8, 9376, Note_on_c, 9, 51, 50
8, 9379, Note_on_c, 9, 42, 0
8, 9379, Note_on_c, 9, 51, 0
8, 9408, Note_on_c, 9, 38, 109
8, 9408, Note_on_c, 9, 42, 103
8, 9408, Note_on_c, 9, 51, 103
8, 9411, Note_on_c, 9, 38, 0
8, 9411, Note_on_c, 9, 42, 0
8, 9411, Note_on_c, 9, 51, 0
8, 9440, Note_on_c, 9, 42, 47
8, 9440, Note_on_c, 9, 51, 45
8, 9443, Note_on_c, 9, 42, 0
8, 9443, Note_on_c, 9, 51, 0
8, 9472, Note_on_c, 9, 36, 103
8, 9472, Note_on_c, 9, 42, 75
8, 9472, Note_on_c, 9, 51, 83
8, 9475, Note_on_c, 9, 36, 0
8, 9475, Note_on_c, 9, 42, 0
8, 9475, Note_on_c, 9, 51, 0
8, 9504, Note_on_c, 9, 36, 103
8, 9504, Note_on_c, 9, 42, 92
8, 9504, Note_on_c, 9, 51, 97
8, 9507, Note_on_c, 9, 36, 0
8, 9507, Note_on_c, 9, 42, 0
8, 9507, Note_on_c, 9, 51, 0
8, 9536, Note_on_c, 9, 42, 62
8, 9536, Note_on_c, 9, 51, 21
8, 9539, Note_on_c, 9, 42, 0
8, 9539, Note_on_c, 9, 51, 0
8, 9568, Note_on_c, 9, 42, 54
8, 9568, Note_on_c, 9, 51, 46
8, 9571, Note_on_c, 9, 42, 0
8, 9571, Note_on_c, 9, 51, 0
8, 9600, Note_on_c, 9, 38, 109
8, 9600, Note_on_c, 9, 42, 92
8, 9600, Note_on_c, 9, 51, 97
8, 9603, Note_on_c, 9, 38, 0
8, 9603, Note_on_c, 9, 42, 0
8, 9603, Note_on_c, 9, 51, 0
8, 9632, Note_on_c, 9, 42, 66
8, 9632, Note_on_c, 9, 51, 83
8, 9635, Note_on_c, 9, 42, 0
8, 9635, Note_on_c, 9, 51, 0
8, 9664, Note_on_c, 9, 42, 54
8, 9664, Note_on_c, 9, 51, 103
8, 9667, Note_on_c, 9, 42, 0
8, 9667, Note_on_c, 9, 51, 0
8, 9696, Note_on_c, 9, 36, 109
8, 9696, Note_on_c, 9, 42, 92
8, 9696, Note_on_c, 9, 51, 103
8, 9699, Note_on_c, 9, 36, 0
8, 9699, Note_on_c, 9, 42, 0
8, 9699, Note_on_c, 9, 51, 0
8, 9728, Note_on_c, 9, 42, 58
8, 9728, Note_on_c, 9, 51, 62
8, 9731, Note_on_c, 9, 42, 0
8, 9731, Note_on_c, 9, 51, 0
8, 9760, Note_on_c, 9, 42, 62
8, 9760, Note_on_c, 9, 51, 79
8, 9763, Note_on_c, 9, 42, 0
8, 9763, Note_on_c, 9, 51, 0
8, 9792, Note_on_c, 9, 38, 109
8, 9792, Note_on_c, 9, 42, 97
8, 9792, Note_on_c, 9, 51, 103
8, 9795, Note_on_c, 9, 38, 0
8, 9795, Note_on_c, 9, 42, 0
8, 9795, Note_on_c, 9, 51, 0
8, 9824, Note_on_c, 9, 42, 62
8, 9824, Note_on_c, 9, 51, 62
8, 9827, Note_on_c, 9, 42, 0
8, 9827, Note_on_c, 9, 51, 0
8, 9856, Note_on_c, 9, 36, 103
8, 9856, Note_on_c, 9, 42, 54
8, 9856, Note_on_c, 9, 51, 97
8, 9859, Note_on_c, 9, 36, 0
8, 9859, Note_on_c, 9, 42, 0
8, 9859, Note_on_c, 9, 51, 0
8, 9888, Note_on_c, 9, 36, 103
8, 9888, Note_on_c, 9, 42, 92
8, 9888, Note_on_c, 9, 51, 103
8, 9891, Note_on_c, 9, 36, 0
8, 9891, Note_on_c, 9, 42, 0
8, 9891, Note_on_c, 9, 51, 0
8, 9920, Note_on_c, 9, 42, 58
8, 9920, Note_on_c, 9, 51, 66
8, 9923, Note_on_c, 9, 42, 0
8, 9923, Note_on_c, 9, 51, 0
8, 9952, Note_on_c, 9, 42, 50
8, 9952, Note_on_c, 9, 51, 75
8, 9955, Note_on_c, 9, 42, 0
8, 9955, Note_on_c, 9, 51, 0
8, 9984, Note_on_c, 9, 38, 117
8, 9984, Note_on_c, 9, 42, 92
8, 9984, Note_on_c, 9, 51, 103
8, 9987, Note_on_c, 9, 38, 0
8, 9987, Note_on_c, 9, 42, 0
8, 9987, Note_on_c, 9, 51, 0
8, 10016, Note_on_c, 9, 42, 58
8, 10016, Note_on_c, 9, 51, 54
8, 10019, Note_on_c, 9, 42, 0
8, 10019, Note_on_c, 9, 51, 0
8, 10048, Note_on_c, 9, 42, 62
8, 10048, Note_on_c, 9, 51, 97
8, 10051, Note_on_c, 9, 42, 0
8, 10051, Note_on_c, 9, 51, 0
8, 10080, Note_on_c, 9, 36, 109
8, 10080, Note_on_c, 9, 42, 92
8, 10080, Note_on_c, 9, 51, 103
8, 10083, Note_on_c, 9, 36, 0
8, 10083, Note_on_c, 9, 42, 0
8, 10083, Note_on_c, 9, 51, 0
8, 10112, Note_on_c, 9, 42, 58
8, 10112, Note_on_c, 9, 51, 62
8, 10115, Note_on_c, 9, 42, 0
8, 10115, Note_on_c, 9, 51, 0
8, 10144, Note_on_c, 9, 42, 50
8, 10144, Note_on_c, 9, 51, 88
8, 10147, Note_on_c, 9, 42, 0
8, 10147, Note_on_c, 9, 51, 0
8, 10176, Note_on_c, 9, 38, 109
8, 10176, Note_on_c, 9, 42, 92
8, 10176, Note_on_c, 9, 51, 109
8, 10179, Note_on_c, 9, 38, 0
8, 10179, Note_on_c, 9, 42, 0
8, 10179, Note_on_c, 9, 51, 0
8, 10208, Note_on_c, 9, 42, 62
8, 10208, Note_on_c, 9, 51, 45
8, 10211, Note_on_c, 9, 42, 0
8, 10211, Note_on_c, 9, 51, 0
8, 10240, Note_on_c, 9, 36, 97
8, 10240, Note_on_c, 9, 42, 52
8, 10240, Note_on_c, 9, 51, 103
8, 10243, Note_on_c, 9, 36, 0
8, 10243, Note_on_c, 9, 42, 0
8, 10243, Note_on_c, 9, 51, 0
8, 10272, Note_on_c, 9, 36, 109
8, 10272, Note_on_c, 9, 42, 97
8, 10272, Note_on_c, 9, 51, 97
8, 10275, Note_on_c, 9, 36, 0
8, 10275, Note_on_c, 9, 42, 0
8, 10275, Note_on_c, 9, 51, 0
8, 10304, Note_on_c, 9, 42, 62
8, 10304, Note_on_c, 9, 51, 79
8, 10307, Note_on_c, 9, 42, 0
8, 10307, Note_on_c, 9, 51, 0
8, 10336, Note_on_c, 9, 42, 62
8, 10336, Note_on_c, 9, 51, 75
8, 10339, Note_on_c, 9, 42, 0
8, 10339, Note_on_c, 9, 51, 0
8, 10368, Note_on_c, 9, 38, 109
8, 10368, Note_on_c, 9, 42, 97
8, 10368, Note_on_c, 9, 51, 103
8, 10371, Note_on_c, 9, 38, 0
8, 10371, Note_on_c, 9, 42, 0
8, 10371, Note_on_c, 9, 51, 0
8, 10400, Note_on_c, 9, 42, 70
8, 10400, Note_on_c, 9, 51, 52
8, 10403, Note_on_c, 9, 42, 0
8, 10403, Note_on_c, 9, 51, 0
8, 10432, Note_on_c, 9, 42, 58
8, 10432, Note_on_c, 9, 51, 83
8, 10435, Note_on_c, 9, 42, 0
8, 10435, Note_on_c, 9, 51, 0
8, 10464, Note_on_c, 9, 36, 109
8, 10464, Note_on_c, 9, 42, 92
8, 10467, Note_on_c, 9, 36, 0
8, 10467, Note_on_c, 9, 42, 0
8, 10496, Note_on_c, 9, 42, 58
8, 10499, Note_on_c, 9, 42, 0
8, 10528, Note_on_c, 9, 42, 58
8, 10531, Note_on_c, 9, 42, 0
8, 10560, Note_on_c, 9, 38, 103
8, 10560, Note_on_c, 9, 42, 92
8, 10563, Note_on_c, 9, 38, 0
8, 10563, Note_on_c, 9, 42, 0
8, 10592, Note_on_c, 9, 42, 70
8, 10595, Note_on_c, 9, 42, 0
8, 10624, Note_on_c, 9, 36, 97
8, 10624, Note_on_c, 9, 42, 62
8, 10627, Note_on_c, 9, 36, 0
8, 10627, Note_on_c, 9, 42, 0
8, 10656, Note_on_c, 9, 36, 109
8, 10656, Note_on_c, 9, 42, 92
8, 10659, Note_on_c, 9, 36, 0
8, 10659, Note_on_c, 9, 42, 0
8, 10659, Note_on_c, 9, 49, 97
8, 10662, Note_on_c, 9, 49, 0
8, 10688, Note_on_c, 9, 42, 50
8, 10691, Note_on_c, 9, 42, 0
8, 10720, Note_on_c, 9, 42, 62
8, 10723, Note_on_c, 9, 42, 0
8, 10752, Note_on_c, 9, 42, 88
8, 10754, Note_on_c, 9, 38, 88
8, 10755, Note_on_c, 9, 42, 0
8, 10757, Note_on_c, 9, 38, 0
8, 10784, Note_on_c, 9, 42, 70
8, 10785, Note_on_c, 9, 38, 83
8, 10787, Note_on_c, 9, 42, 0
8, 10788, Note_on_c, 9, 38, 0
8, 10816, Note_on_c, 9, 42, 49
8, 10817, Note_on_c, 9, 38, 109
8, 10819, Note_on_c, 9, 42, 0
8, 10821, Note_on_c, 9, 38, 0
8, 10848, Time_signature, 1, 2, 96, 8
8, 10848, Note_on_c, 9, 48, 103
8, 10848, Note_on_c, 9, 38, 103
8, 10850, Note_on_c, 9, 36, 103
8, 10851, Note_on_c, 9, 48, 0
8, 10852, Note_on_c, 9, 38, 0
8, 10853, Note_on_c, 9, 36, 0
8, 10880, Note_on_c, 9, 36, 109
8, 10880, Note_on_c, 9, 38, 103
8, 10881, Note_on_c, 9, 45, 103
8, 10883, Note_on_c, 9, 36, 0
8, 10884, Note_on_c, 9, 38, 0
8, 10885, Note_on_c, 9, 45, 0
8, 10910, Note_on_c, 9, 36, 109
8, 10912, Note_on_c, 9, 41, 109
8, 10912, Note_on_c, 9, 38, 109
8, 10914, Note_on_c, 9, 36, 0
8, 10915, Note_on_c, 9, 41, 0
8, 10916, Note_on_c, 9, 38, 0
8, 10944, Time_signature, 4, 2, 96, 8
8, 10944, Note_on_c, 9, 36, 109
8, 10944, Note_on_c, 9, 42, 103
8, 10944, Note_on_c, 9, 49, 97
8, 10947, Note_on_c, 9, 36, 0
8, 10947, Note_on_c, 9, 42, 0
8, 10947, Note_on_c, 9, 49, 0
8, 10976, Note_on_c, 9, 42, 52
8, 10979, Note_on_c, 9, 42, 0
8, 11008, Note_on_c, 9, 42, 70
8, 11008, Note_on_c, 9, 51, 50
8, 11011, Note_on_c, 9, 42, 0
8, 11011, Note_on_c, 9, 51, 0
8, 11040, Note_on_c, 9, 38, 109
8, 11040, Note_on_c, 9, 42, 103
8, 11040, Note_on_c, 9, 51, 103
8, 11043, Note_on_c, 9, 38, 0
8, 11043, Note_on_c, 9, 42, 0
8, 11043, Note_on_c, 9, 51, 0
8, 11072, Note_on_c, 9, 42, 47
8, 11072, Note_on_c, 9, 51, 45
8, 11075, Note_on_c, 9, 42, 0
8, 11075, Note_on_c, 9, 51, 0
8, 11104, Note_on_c, 9, 36, 103
8, 11104, Note_on_c, 9, 42, 75
8, 11104, Note_on_c, 9, 51, 83
8, 11107, Note_on_c, 9, 36, 0
8, 11107, Note_on_c, 9, 42, 0
8, 11107, Note_on_c, 9, 51, 0
8, 11136, Note_on_c, 9, 36, 103
8, 11136, Note_on_c, 9, 42, 92
8, 11136, Note_on_c, 9, 51, 97
8, 11139, Note_on_c, 9, 36, 0
8, 11139, Note_on_c, 9, 42, 0
8, 11139, Note_on_c, 9, 51, 0
8, 11168, Note_on_c, 9, 42, 62
8, 11168, Note_on_c, 9, 51, 21
8, 11171, Note_on_c, 9, 42, 0
8, 11171, Note_on_c, 9, 51, 0
8, 11200, Note_on_c, 9, 42, 54
8, 11200, Note_on_c, 9, 51, 46
8, 11203, Note_on_c, 9, 42, 0
8, 11203, Note_on_c, 9, 51, 0
8, 11232, Note_on_c, 9, 38, 109
8, 11232, Note_on_c, 9, 42, 92
8, 11232, Note_on_c, 9, 51, 97
8, 11235, Note_on_c, 9, 38, 0
8, 11235, Note_on_c, 9, 42, 0
8, 11235, Note_on_c, 9, 51, 0
8, 11264, Note_on_c, 9, 42, 66
8, 11264, Note_on_c, 9, 51, 83
8, 11267, Note_on_c, 9, 42, 0
8, 11267, Note_on_c, 9, 51, 0
8, 11296, Note_on_c, 9, 42, 54
8, 11296, Note_on_c, 9, 51, 103
8, 11299, Note_on_c, 9, 42, 0
8, 11299, Note_on_c, 9, 51, 0
8, 11328, Note_on_c, 9, 36, 109
8, 11328, Note_on_c, 9, 42, 92
8, 11328, Note_on_c, 9, 51, 103
8, 11331, Note_on_c, 9, 36, 0
8, 11331, Note_on_c, 9, 42, 0
8, 11331, Note_on_c, 9, 51, 0
8, 11360, Note_on_c, 9, 42, 58
8, 11360, Note_on_c, 9, 51, 62
8, 11363, Note_on_c, 9, 42, 0
8, 11363, Note_on_c, 9, 51, 0
8, 11392, Note_on_c, 9, 42, 62
8, 11392, Note_on_c, 9, 51, 79
8, 11395, Note_on_c, 9, 42, 0
8, 11395, Note_on_c, 9, 51, 0
8, 11424, Note_on_c, 9, 38, 109
8, 11424, Note_on_c, 9, 42, 97
8, 11424, Note_on_c, 9, 51, 103
8, 11427, Note_on_c, 9, 38, 0
8, 11427, Note_on_c, 9, 42, 0
8, 11427, Note_on_c, 9, 51, 0
8, 11456, Note_on_c, 9, 42, 62
8, 11456, Note_on_c, 9, 51, 62
8, 11459, Note_on_c, 9, 42, 0
8, 11459, Note_on_c, 9, 51, 0
8, 11488, Note_on_c, 9, 36, 103
8, 11488, Note_on_c, 9, 42, 54
8, 11488, Note_on_c, 9, 51, 97
8, 11491, Note_on_c, 9, 36, 0
8, 11491, Note_on_c, 9, 42, 0
8, 11491, Note_on_c, 9, 51, 0
8, 11520, Note_on_c, 9, 36, 103
8, 11520, Note_on_c, 9, 42, 92
8, 11520, Note_on_c, 9, 51, 103
8, 11523, Note_on_c, 9, 36, 0
8, 11523, Note_on_c, 9, 42, 0
8, 11523, Note_on_c, 9, 51, 0
8, 11552, Note_on_c, 9, 42, 58
8, 11552, Note_on_c, 9, 51, 66
8, 11555, Note_on_c, 9, 42, 0
8, 11555, Note_on_c, 9, 51, 0
8, 11584, Note_on_c, 9, 42, 50
8, 11584, Note_on_c, 9, 51, 75
8, 11587, Note_on_c, 9, 42, 0
8, 11587, Note_on_c, 9, 51, 0
8, 11616, Note_on_c, 9, 38, 117
8, 11616, Note_on_c, 9, 42, 92
8, 11616, Note_on_c, 9, 51, 103
8, 11619, Note_on_c, 9, 38, 0
8, 11619, Note_on_c, 9, 42, 0
8, 11619, Note_on_c, 9, 51, 0
8, 11648, Note_on_c, 9, 42, 58
8, 11648, Note_on_c, 9, 51, 54
8, 11651, Note_on_c, 9, 42, 0
8, 11651, Note_on_c, 9, 51, 0
8, 11680, Note_on_c, 9, 42, 62
8, 11680, Note_on_c, 9, 51, 97
8, 11683, Note_on_c, 9, 42, 0
8, 11683, Note_on_c, 9, 51, 0
8, 11712, Note_on_c, 9, 36, 109
8, 11712, Note_on_c, 9, 42, 92
8, 11712, Note_on_c, 9, 51, 103
8, 11715, Note_on_c, 9, 36, 0
8, 11715, Note_on_c, 9, 42, 0
8, 11715, Note_on_c, 9, 51, 0
8, 11744, Note_on_c, 9, 42, 58
8, 11744, Note_on_c, 9, 51, 62
8, 11747, Note_on_c, 9, 42, 0
8, 11747, Note_on_c, 9, 51, 0
8, 11776, Note_on_c, 9, 42, 50
8, 11776, Note_on_c, 9, 51, 88
8, 11779, Note_on_c, 9, 42, 0
8, 11779, Note_on_c, 9, 51, 0
8, 11808, Note_on_c, 9, 38, 109
8, 11808, Note_on_c, 9, 42, 92
8, 11808, Note_on_c, 9, 51, 109
8, 11811, Note_on_c, 9, 38, 0
8, 11811, Note_on_c, 9, 42, 0
8, 11811, Note_on_c, 9, 51, 0
8, 11840, Note_on_c, 9, 42, 62
8, 11840, Note_on_c, 9, 51, 45
8, 11843, Note_on_c, 9, 42, 0
8, 11843, Note_on_c, 9, 51, 0
8, 11872, Note_on_c, 9, 36, 97
8, 11872, Note_on_c, 9, 42, 52
8, 11872, Note_on_c, 9, 51, 103
8, 11875, Note_on_c, 9, 36, 0
8, 11875, Note_on_c, 9, 42, 0
8, 11875, Note_on_c, 9, 51, 0
8, 11904, Note_on_c, 9, 36, 109
8, 11904, Note_on_c, 9, 42, 97
8, 11904, Note_on_c, 9, 51, 97
8, 11907, Note_on_c, 9, 36, 0
8, 11907, Note_on_c, 9, 42, 0
8, 11907, Note_on_c, 9, 51, 0
8, 11936, Note_on_c, 9, 42, 62
8, 11936, Note_on_c, 9, 51, 79
8, 11939, Note_on_c, 9, 42, 0
8, 11939, Note_on_c, 9, 51, 0
8, 11968, Note_on_c, 9, 42, 62
8, 11968, Note_on_c, 9, 51, 75
8, 11971, Note_on_c, 9, 42, 0
8, 11971, Note_on_c, 9, 51, 0
8, 12000, Note_on_c, 9, 38, 109
8, 12000, Note_on_c, 9, 42, 97
8, 12000, Note_on_c, 9, 51, 103
8, 12003, Note_on_c, 9, 38, 0
8, 12003, Note_on_c, 9, 42, 0
8, 12003, Note_on_c, 9, 51, 0
8, 12032, Note_on_c, 9, 42, 70
8, 12032, Note_on_c, 9, 51, 52
8, 12035, Note_on_c, 9, 42, 0
8, 12035, Note_on_c, 9, 51, 0
8, 12064, Note_on_c, 9, 42, 58
8, 12064, Note_on_c, 9, 51, 83
8, 12067, Note_on_c, 9, 42, 0
8, 12067, Note_on_c, 9, 51, 0
8, 12096, Note_on_c, 9, 36, 109
8, 12096, Note_on_c, 9, 42, 92
8, 12096, Note_on_c, 9, 51, 103
8, 12099, Note_on_c, 9, 36, 0
8, 12099, Note_on_c, 9, 42, 0
8, 12099, Note_on_c, 9, 51, 0
8, 12128, Note_on_c, 9, 42, 58
8, 12128, Note_on_c, 9, 51, 70
8, 12131, Note_on_c, 9, 42, 0
8, 12131, Note_on_c, 9, 51, 0
8, 12160, Note_on_c, 9, 42, 58
8, 12160, Note_on_c, 9, 51, 75
8, 12163, Note_on_c, 9, 42, 0
8, 12163, Note_on_c, 9, 51, 0
8, 12192, Note_on_c, 9, 38, 103
8, 12192, Note_on_c, 9, 42, 92
8, 12192, Note_on_c, 9, 51, 103
8, 12195, Note_on_c, 9, 38, 0
8, 12195, Note_on_c, 9, 42, 0
8, 12195, Note_on_c, 9, 51, 0
8, 12224, Note_on_c, 9, 42, 70
8, 12224, Note_on_c, 9, 51, 62
8, 12227, Note_on_c, 9, 42, 0
8, 12227, Note_on_c, 9, 51, 0
8, 12256, Note_on_c, 9, 36, 97
8, 12256, Note_on_c, 9, 42, 62
8, 12256, Note_on_c, 9, 51, 97
8, 12259, Note_on_c, 9, 36, 0
8, 12259, Note_on_c, 9, 42, 0
8, 12259, Note_on_c, 9, 51, 0
8, 12288, Note_on_c, 9, 36, 109
8, 12288, Note_on_c, 9, 42, 92
8, 12288, Note_on_c, 9, 51, 97
8, 12291, Note_on_c, 9, 36, 0
8, 12291, Note_on_c, 9, 42, 0
8, 12291, Note_on_c, 9, 51, 0
8, 12320, Note_on_c, 9, 42, 50
8, 12320, Note_on_c, 9, 51, 66
8, 12323, Note_on_c, 9, 42, 0
8, 12323, Note_on_c, 9, 51, 0
8, 12352, Note_on_c, 9, 42, 62
8, 12352, Note_on_c, 9, 51, 88
8, 12355, Note_on_c, 9, 42, 0
8, 12355, Note_on_c, 9, 51, 0
8, 12384, Note_on_c, 9, 38, 109
8, 12384, Note_on_c, 9, 42, 88
8, 12384, Note_on_c, 9, 51, 109
8, 12387, Note_on_c, 9, 38, 0
8, 12387, Note_on_c, 9, 42, 0
8, 12387, Note_on_c, 9, 51, 0
8, 12416, Note_on_c, 9, 36, 103
8, 12416, Note_on_c, 9, 42, 70
8, 12416, Note_on_c, 9, 51, 88
8, 12419, Note_on_c, 9, 36, 0
8, 12419, Note_on_c, 9, 42, 0
8, 12419, Note_on_c, 9, 51, 0
8, 12448, Note_on_c, 9, 38, 103
8, 12448, Note_on_c, 9, 42, 49
8, 12448, Note_on_c, 9, 51, 103
8, 12451, Note_on_c, 9, 38, 0
8, 12451, Note_on_c, 9, 42, 0
8, 12451, Note_on_c, 9, 51, 0
8, 12480, Note_on_c, 9, 36, 109
8, 12480, Note_on_c, 9, 42, 103
8, 12480, Note_on_c, 9, 49, 97
8, 12483, Note_on_c, 9, 36, 0
8, 12483, Note_on_c, 9, 42, 0
8, 12483, Note_on_c, 9, 49, 0
8, 12512, Note_on_c, 9, 42, 52
8, 12515, Note_on_c, 9, 42, 0
8, 12544, Note_on_c, 9, 42, 70
8, 12544, Note_on_c, 9, 51, 50
8, 12547, Note_on_c, 9, 42, 0
8, 12547, Note_on_c, 9, 51, 0
8, 12576, Note_on_c, 9, 38, 109
8, 12576, Note_on_c, 9, 42, 103
8, 12576, Note_on_c, 9, 51, 103
8, 12579, Note_on_c, 9, 38, 0
8, 12579, Note_on_c, 9, 42, 0
8, 12579, Note_on_c, 9, 51, 0
8, 12608, Note_on_c, 9, 42, 47
8, 12608, Note_on_c, 9, 51, 45
8, 12611, Note_on_c, 9, 42, 0
8, 12611, Note_on_c, 9, 51, 0
8, 12640, Note_on_c, 9, 36, 103
8, 12640, Note_on_c, 9, 42, 75
8, 12640, Note_on_c, 9, 51, 83
8, 12643, Note_on_c, 9, 36, 0
8, 12643, Note_on_c, 9, 42, 0
8, 12643, Note_on_c, 9, 51, 0
8, 12672, Note_on_c, 9, 36, 103
8, 12672, Note_on_c, 9, 42, 92
8, 12672, Note_on_c, 9, 51, 97
8, 12675, Note_on_c, 9, 36, 0
8, 12675, Note_on_c, 9, 42, 0
8, 12675, Note_on_c, 9, 51, 0
8, 12704, Note_on_c, 9, 42, 62
8, 12704, Note_on_c, 9, 51, 21
8, 12707, Note_on_c, 9, 42, 0
8, 12707, Note_on_c, 9, 51, 0
8, 12736, Note_on_c, 9, 42, 54
8, 12736, Note_on_c, 9, 51, 46
8, 12739, Note_on_c, 9, 42, 0
8, 12739, Note_on_c, 9, 51, 0
8, 12768, Note_on_c, 9, 38, 109
8, 12768, Note_on_c, 9, 42, 92
8, 12768, Note_on_c, 9, 51, 97
8, 12771, Note_on_c, 9, 38, 0
8, 12771, Note_on_c, 9, 42, 0
8, 12771, Note_on_c, 9, 51, 0
8, 12800, Note_on_c, 9, 42, 66
8, 12800, Note_on_c, 9, 51, 83
8, 12803, Note_on_c, 9, 42, 0
8, 12803, Note_on_c, 9, 51, 0
8, 12832, Note_on_c, 9, 42, 54
8, 12832, Note_on_c, 9, 51, 103
8, 12835, Note_on_c, 9, 42, 0
8, 12835, Note_on_c, 9, 51, 0
8, 12864, Note_on_c, 9, 36, 109
8, 12864, Note_on_c, 9, 42, 92
8, 12864, Note_on_c, 9, 51, 103
8, 12867, Note_on_c, 9, 36, 0
8, 12867, Note_on_c, 9, 42, 0
8, 12867, Note_on_c, 9, 51, 0
8, 12896, Note_on_c, 9, 42, 58
8, 12896, Note_on_c, 9, 51, 62
8, 12899, Note_on_c, 9, 42, 0
8, 12899, Note_on_c, 9, 51, 0
8, 12928, Note_on_c, 9, 42, 62
8, 12928, Note_on_c, 9, 51, 79
8, 12931, Note_on_c, 9, 42, 0
8, 12931, Note_on_c, 9, 51, 0
8, 12960, Note_on_c, 9, 38, 109
8, 12960, Note_on_c, 9, 42, 97
8, 12960, Note_on_c, 9, 51, 103
8, 12963, Note_on_c, 9, 38, 0
8, 12963, Note_on_c, 9, 42, 0
8, 12963, Note_on_c, 9, 51, 0
8, 12992, Note_on_c, 9, 42, 62
8, 12992, Note_on_c, 9, 51, 62
8, 12995, Note_on_c, 9, 42, 0
8, 12995, Note_on_c, 9, 51, 0
8, 13024, Note_on_c, 9, 36, 103
8, 13024, Note_on_c, 9, 42, 54
8, 13024, Note_on_c, 9, 51, 97
8, 13027, Note_on_c, 9, 36, 0
8, 13027, Note_on_c, 9, 42, 0
8, 13027, Note_on_c, 9, 51, 0
8, 13056, Note_on_c, 9, 36, 103
8, 13056, Note_on_c, 9, 42, 92
8, 13056, Note_on_c, 9, 51, 103
8, 13059, Note_on_c, 9, 36, 0
8, 13059, Note_on_c, 9, 42, 0
8, 13059, Note_on_c, 9, 51, 0
8, 13088, Note_on_c, 9, 42, 58
8, 13088, Note_on_c, 9, 51, 66
8, 13091, Note_on_c, 9, 42, 0
8, 13091, Note_on_c, 9, 51, 0
8, 13120, Note_on_c, 9, 42, 50
8, 13120, Note_on_c, 9, 51, 75
8, 13123, Note_on_c, 9, 42, 0
8, 13123, Note_on_c, 9, 51, 0
8, 13152, Note_on_c, 9, 38, 117
8, 13152, Note_on_c, 9, 42, 92
8, 13152, Note_on_c, 9, 51, 103
8, 13155, Note_on_c, 9, 38, 0
8, 13155, Note_on_c, 9, 42, 0
8, 13155, Note_on_c, 9, 51, 0
8, 13184, Note_on_c, 9, 42, 58
8, 13184, Note_on_c, 9, 51, 54
8, 13187, Note_on_c, 9, 42, 0
8, 13187, Note_on_c, 9, 51, 0
8, 13216, Note_on_c, 9, 42, 62
8, 13216, Note_on_c, 9, 51, 97
8, 13219, Note_on_c, 9, 42, 0
8, 13219, Note_on_c, 9, 51, 0
8, 13248, Note_on_c, 9, 36, 109
8, 13248, Note_on_c, 9, 42, 92
8, 13248, Note_on_c, 9, 51, 103
8, 13251, Note_on_c, 9, 36, 0
8, 13251, Note_on_c, 9, 42, 0
8, 13251, Note_on_c, 9, 51, 0
8, 13280, Note_on_c, 9, 42, 58
8, 13280, Note_on_c, 9, 51, 62
8, 13283, Note_on_c, 9, 42, 0
8, 13283, Note_on_c, 9, 51, 0
8, 13312, Note_on_c, 9, 42, 50
8, 13312, Note_on_c, 9, 51, 88
8, 13315, Note_on_c, 9, 42, 0
8, 13315, Note_on_c, 9, 51, 0
8, 13344, Note_on_c, 9, 38, 109
8, 13344, Note_on_c, 9, 42, 92
8, 13344, Note_on_c, 9, 51, 109
8, 13347, Note_on_c, 9, 38, 0
8, 13347, Note_on_c, 9, 42, 0
8, 13347, Note_on_c, 9, 51, 0
8, 13376, Note_on_c, 9, 42, 62
8, 13376, Note_on_c, 9, 51, 45
8, 13379, Note_on_c, 9, 42, 0
8, 13379, Note_on_c, 9, 51, 0
8, 13408, Note_on_c, 9, 36, 97
8, 13408, Note_on_c, 9, 42, 52
8, 13408, Note_on_c, 9, 51, 103
8, 13411, Note_on_c, 9, 36, 0
8, 13411, Note_on_c, 9, 42, 0
8, 13411, Note_on_c, 9, 51, 0
8, 13440, Note_on_c, 9, 36, 109
8, 13440, Note_on_c, 9, 42, 97
8, 13440, Note_on_c, 9, 51, 97
8, 13443, Note_on_c, 9, 36, 0
8, 13443, Note_on_c, 9, 42, 0
8, 13443, Note_on_c, 9, 51, 0
8, 13472, Note_on_c, 9, 42, 62
8, 13472, Note_on_c, 9, 51, 79
8, 13475, Note_on_c, 9, 42, 0
8, 13475, Note_on_c, 9, 51, 0
8, 13504, Note_on_c, 9, 42, 62
8, 13504, Note_on_c, 9, 51, 75
8, 13507, Note_on_c, 9, 42, 0
8, 13507, Note_on_c, 9, 51, 0
8, 13536, Note_on_c, 9, 38, 109
8, 13536, Note_on_c, 9, 42, 97
8, 13536, Note_on_c, 9, 51, 103
8, 13539, Note_on_c, 9, 38, 0
8, 13539, Note_on_c, 9, 42, 0
8, 13539, Note_on_c, 9, 51, 0
8, 13568, Note_on_c, 9, 42, 70
8, 13568, Note_on_c, 9, 51, 52
8, 13571, Note_on_c, 9, 42, 0
8, 13571, Note_on_c, 9, 51, 0
8, 13600, Note_on_c, 9, 42, 58
8, 13600, Note_on_c, 9, 51, 83
8, 13603, Note_on_c, 9, 42, 0
8, 13603, Note_on_c, 9, 51, 0
8, 13632, Note_on_c, 9, 36, 117
8, 13632, Note_on_c, 9, 49, 103
8, 13632, Note_on_c, 9, 46, 109
8, 13635, Note_on_c, 9, 36, 0
8, 13635, Note_on_c, 9, 49, 0
8, 13635, Note_on_c, 9, 46, 0
8, 13664, Note_on_c, 9, 42, 79
8, 13664, Note_on_c, 9, 51, 43
8, 13667, Note_on_c, 9, 42, 0
8, 13667, Note_on_c, 9, 51, 0
8, 13680, Note_on_c, 9, 42, 79
8, 13683, Note_on_c, 9, 42, 0
8, 13696, Note_on_c, 9, 42, 97
8, 13696, Note_on_c, 9, 51, 31
8, 13699, Note_on_c, 9, 42, 0
8, 13699, Note_on_c, 9, 51, 0
8, 13728, Note_on_c, 9, 38, 97
8, 13728, Note_on_c, 9, 51, 97
8, 13728, Note_on_c, 9, 46, 97
8, 13731, Note_on_c, 9, 38, 0
8, 13731, Note_on_c, 9, 51, 0
8, 13731, Note_on_c, 9, 46, 0
8, 13760, Note_on_c, 9, 42, 97
8, 13760, Note_on_c, 9, 51, 62
8, 13763, Note_on_c, 9, 42, 0
8, 13763, Note_on_c, 9, 51, 0
8, 13792, Note_on_c, 9, 36, 103
8, 13792, Note_on_c, 9, 42, 97
8, 13792, Note_on_c, 9, 51, 83
8, 13795, Note_on_c, 9, 36, 0
8, 13795, Note_on_c, 9, 42, 0
8, 13795, Note_on_c, 9, 51, 0
8, 13824, Note_on_c, 9, 36, 103
8, 13824, Note_on_c, 9, 51, 103
8, 13824, Note_on_c, 9, 46, 92
8, 13827, Note_on_c, 9, 36, 0
8, 13827, Note_on_c, 9, 51, 0
8, 13827, Note_on_c, 9, 46, 0
8, 13856, Note_on_c, 9, 42, 79
8, 13856, Note_on_c, 9, 51, 50
8, 13859, Note_on_c, 9, 42, 0
8, 13859, Note_on_c, 9, 51, 0
8, 13872, Note_on_c, 9, 42, 88
8, 13875, Note_on_c, 9, 42, 0
8, 13888, Note_on_c, 9, 42, 97
8, 13888, Note_on_c, 9, 51, 54
8, 13891, Note_on_c, 9, 42, 0
8, 13891, Note_on_c, 9, 51, 0
8, 13920, Note_on_c, 9, 38, 103
8, 13920, Note_on_c, 9, 51, 103
8, 13920, Note_on_c, 9, 46, 97
8, 13923, Note_on_c, 9, 38, 0
8, 13923, Note_on_c, 9, 51, 0
8, 13923, Note_on_c, 9, 46, 0
8, 13952, Note_on_c, 9, 42, 97
8, 13952, Note_on_c, 9, 51, 54
8, 13955, Note_on_c, 9, 42, 0
8, 13955, Note_on_c, 9, 51, 0
8, 13984, Note_on_c, 9, 42, 103
8, 13984, Note_on_c, 9, 51, 103
8, 13987, Note_on_c, 9, 42, 0
8, 13987, Note_on_c, 9, 51, 0
8, 14016, Note_on_c, 9, 36, 109
8, 14016, Note_on_c, 9, 51, 103
8, 14016, Note_on_c, 9, 46, 97
8, 14019, Note_on_c, 9, 36, 0
8, 14019, Note_on_c, 9, 51, 0
8, 14019, Note_on_c, 9, 46, 0
8, 14048, Note_on_c, 9, 42, 97
8, 14048, Note_on_c, 9, 51, 25
8, 14051, Note_on_c, 9, 42, 0
8, 14051, Note_on_c, 9, 51, 0
8, 14064, Note_on_c, 9, 42, 92
8, 14067, Note_on_c, 9, 42, 0
8, 14080, Note_on_c, 9, 42, 97
8, 14080, Note_on_c, 9, 51, 79
8, 14083, Note_on_c, 9, 42, 0
8, 14083, Note_on_c, 9, 51, 0
8, 14112, Note_on_c, 9, 38, 103
8, 14112, Note_on_c, 9, 51, 109
8, 14112, Note_on_c, 9, 46, 92
8, 14115, Note_on_c, 9, 38, 0
8, 14115, Note_on_c, 9, 51, 0
8, 14115, Note_on_c, 9, 46, 0
8, 14144, Note_on_c, 9, 42, 97
8, 14144, Note_on_c, 9, 51, 88
8, 14147, Note_on_c, 9, 42, 0
8, 14147, Note_on_c, 9, 51, 0
8, 14176, Note_on_c, 9, 36, 103
8, 14176, Note_on_c, 9, 42, 97
8, 14176, Note_on_c, 9, 51, 103
8, 14179, Note_on_c, 9, 36, 0
8, 14179, Note_on_c, 9, 42, 0
8, 14179, Note_on_c, 9, 51, 0
8, 14208, Note_on_c, 9, 36, 109
8, 14208, Note_on_c, 9, 49, 97
8, 14208, Note_on_c, 9, 46, 103
8, 14211, Note_on_c, 9, 36, 0
8, 14211, Note_on_c, 9, 49, 0
8, 14211, Note_on_c, 9, 46, 0
8, 14304, Note_on_c, 9, 42, 97
8, 14307, Note_on_c, 9, 42, 0
8, 14400, Note_on_c, 9, 36, 109
8, 14400, Note_on_c, 9, 42, 103
8, 14400, Note_on_c, 9, 49, 97
8, 14403, Note_on_c, 9, 36, 0
8, 14403, Note_on_c, 9, 42, 0
8, 14403, Note_on_c, 9, 49, 0
8, 14432, Note_on_c, 9, 42, 52
8, 14435, Note_on_c, 9, 42, 0
8, 14464, Note_on_c, 9, 42, 70
8, 14464, Note_on_c, 9, 51, 50
8, 14467, Note_on_c, 9, 42, 0
8, 14467, Note_on_c, 9, 51, 0
8, 14496, Note_on_c, 9, 38, 109
8, 14496, Note_on_c, 9, 42, 103
8, 14496, Note_on_c, 9, 51, 103
8, 14499, Note_on_c, 9, 38, 0
8, 14499, Note_on_c, 9, 42, 0
8, 14499, Note_on_c, 9, 51, 0
8, 14528, Note_on_c, 9, 42, 47
8, 14528, Note_on_c, 9, 51, 45
8, 14531, Note_on_c, 9, 42, 0
8, 14531, Note_on_c, 9, 51, 0
8, 14560, Note_on_c, 9, 36, 103
8, 14560, Note_on_c, 9, 42, 75
8, 14560, Note_on_c, 9, 51, 83
8, 14563, Note_on_c, 9, 36, 0
8, 14563, Note_on_c, 9, 42, 0
8, 14563, Note_on_c, 9, 51, 0
8, 14592, Note_on_c, 9, 36, 103
8, 14592, Note_on_c, 9, 42, 92
8, 14592, Note_on_c, 9, 51, 97
8, 14595, Note_on_c, 9, 36, 0
8, 14595, Note_on_c, 9, 42, 0
8, 14595, Note_on_c, 9, 51, 0
8, 14624, Note_on_c, 9, 42, 62
8, 14624, Note_on_c, 9, 51, 21
8, 14627, Note_on_c, 9, 42, 0
8, 14627, Note_on_c, 9, 51, 0
8, 14656, Note_on_c, 9, 42, 54
8, 14656, Note_on_c, 9, 51, 46
8, 14659, Note_on_c, 9, 42, 0
8, 14659, Note_on_c, 9, 51, 0
8, 14688, Note_on_c, 9, 38, 109
8, 14688, Note_on_c, 9, 42, 92
8, 14688, Note_on_c, 9, 51, 97
8, 14691, Note_on_c, 9, 38, 0
8, 14691, Note_on_c, 9, 42, 0
8, 14691, Note_on_c, 9, 51, 0
8, 14720, Note_on_c, 9, 42, 66
8, 14720, Note_on_c, 9, 51, 83
8, 14723, Note_on_c, 9, 42, 0
8, 14723, Note_on_c, 9, 51, 0
8, 14752, Note_on_c, 9, 42, 54
8, 14752, Note_on_c, 9, 51, 103
8, 14755, Note_on_c, 9, 42, 0
8, 14755, Note_on_c, 9, 51, 0
8, 14784, Note_on_c, 9, 36, 109
8, 14784, Note_on_c, 9, 42, 92
8, 14784, Note_on_c, 9, 51, 103
8, 14787, Note_on_c, 9, 36, 0
8, 14787, Note_on_c, 9, 42, 0
8, 14787, Note_on_c, 9, 51, 0
8, 14816, Note_on_c, 9, 42, 58
8, 14816, Note_on_c, 9, 51, 62
8, 14819, Note_on_c, 9, 42, 0
8, 14819, Note_on_c, 9, 51, 0
8, 14848, Note_on_c, 9, 42, 62
8, 14848, Note_on_c, 9, 51, 79
8, 14851, Note_on_c, 9, 42, 0
8, 14851, Note_on_c, 9, 51, 0
8, 14880, Note_on_c, 9, 38, 109
8, 14880, Note_on_c, 9, 42, 97
8, 14880, Note_on_c, 9, 51, 103
8, 14883, Note_on_c, 9, 38, 0
8, 14883, Note_on_c, 9, 42, 0
8, 14883, Note_on_c, 9, 51, 0
8, 14912, Note_on_c, 9, 42, 62
8, 14912, Note_on_c, 9, 51, 62
8, 14915, Note_on_c, 9, 42, 0
8, 14915, Note_on_c, 9, 51, 0
8, 14944, Note_on_c, 9, 36, 103
8, 14944, Note_on_c, 9, 42, 54
8, 14944, Note_on_c, 9, 51, 97
8, 14947, Note_on_c, 9, 36, 0
8, 14947, Note_on_c, 9, 42, 0
8, 14947, Note_on_c, 9, 51, 0
8, 14976, Note_on_c, 9, 36, 103
8, 14976, Note_on_c, 9, 42, 92
8, 14976, Note_on_c, 9, 51, 103
8, 14979, Note_on_c, 9, 36, 0
8, 14979, Note_on_c, 9, 42, 0
8, 14979, Note_on_c, 9, 51, 0
8, 15008, Note_on_c, 9, 42, 58
8, 15008, Note_on_c, 9, 51, 66
8, 15011, Note_on_c, 9, 42, 0
8, 15011, Note_on_c, 9, 51, 0
8, 15040, Note_on_c, 9, 42, 50
8, 15040, Note_on_c, 9, 51, 75
8, 15043, Note_on_c, 9, 42, 0
8, 15043, Note_on_c, 9, 51, 0
8, 15072, Note_on_c, 9, 38, 117
8, 15072, Note_on_c, 9, 42, 92
8, 15072, Note_on_c, 9, 51, 103
8, 15075, Note_on_c, 9, 38, 0
8, 15075, Note_on_c, 9, 42, 0
8, 15075, Note_on_c, 9, 51, 0
8, 15104, Note_on_c, 9, 42, 58
8, 15104, Note_on_c, 9, 51, 54
8, 15107, Note_on_c, 9, 42, 0
8, 15107, Note_on_c, 9, 51, 0
8, 15136, Note_on_c, 9, 42, 62
8, 15136, Note_on_c, 9, 51, 97
8, 15139, Note_on_c, 9, 42, 0
8, 15139, Note_on_c, 9, 51, 0
8, 15168, Note_on_c, 9, 36, 109
8, 15168, Note_on_c, 9, 42, 92
8, 15168, Note_on_c, 9, 51, 103
8, 15171, Note_on_c, 9, 36, 0
8, 15171, Note_on_c, 9, 42, 0
8, 15171, Note_on_c, 9, 51, 0
8, 15200, Note_on_c, 9, 42, 58
8, 15200, Note_on_c, 9, 51, 62
8, 15203, Note_on_c, 9, 42, 0
8, 15203, Note_on_c, 9, 51, 0
8, 15232, Note_on_c, 9, 42, 50
8, 15232, Note_on_c, 9, 51, 88
8, 15235, Note_on_c, 9, 42, 0
8, 15235, Note_on_c, 9, 51, 0
8, 15264, Note_on_c, 9, 38, 109
8, 15264, Note_on_c, 9, 42, 92
8, 15264, Note_on_c, 9, 51, 109
8, 15267, Note_on_c, 9, 38, 0
8, 15267, Note_on_c, 9, 42, 0
8, 15267, Note_on_c, 9, 51, 0
8, 15296, Note_on_c, 9, 42, 62
8, 15296, Note_on_c, 9, 51, 45
8, 15299, Note_on_c, 9, 42, 0
8, 15299, Note_on_c, 9, 51, 0
8, 15328, Note_on_c, 9, 36, 97
8, 15328, Note_on_c, 9, 42, 52
8, 15328, Note_on_c, 9, 51, 103
8, 15331, Note_on_c, 9, 36, 0
8, 15331, Note_on_c, 9, 42, 0
8, 15331, Note_on_c, 9, 51, 0
8, 15360, Note_on_c, 9, 36, 109
8, 15360, Note_on_c, 9, 42, 97
8, 15360, Note_on_c, 9, 51, 97
8, 15363, Note_on_c, 9, 36, 0
8, 15363, Note_on_c, 9, 42, 0
8, 15363, Note_on_c, 9, 51, 0
8, 15392, Note_on_c, 9, 42, 62
8, 15392, Note_on_c, 9, 51, 79
8, 15395, Note_on_c, 9, 42, 0
8, 15395, Note_on_c, 9, 51, 0
8, 15424, Note_on_c, 9, 42, 62
8, 15424, Note_on_c, 9, 51, 75
8, 15427, Note_on_c, 9, 42, 0
8, 15427, Note_on_c, 9, 51, 0
8, 15456, Note_on_c, 9, 38, 109
8, 15456, Note_on_c, 9, 42, 97
8, 15456, Note_on_c, 9, 51, 103
8, 15459, Note_on_c, 9, 38, 0
8, 15459, Note_on_c, 9, 42, 0
8, 15459, Note_on_c, 9, 51, 0
8, 15488, Note_on_c, 9, 42, 70
8, 15488, Note_on_c, 9, 51, 52
8, 15491, Note_on_c, 9, 42, 0
8, 15491, Note_on_c, 9, 51, 0
8, 15520, Note_on_c, 9, 42, 58
8, 15520, Note_on_c, 9, 51, 83
8, 15523, Note_on_c, 9, 42, 0
8, 15523, Note_on_c, 9, 51, 0
8, 15552, Note_on_c, 9, 36, 109
8, 15552, Note_on_c, 9, 42, 92
8, 15552, Note_on_c, 9, 51, 103
8, 15555, Note_on_c, 9, 36, 0
8, 15555, Note_on_c, 9, 42, 0
8, 15555, Note_on_c, 9, 51, 0
8, 15584, Note_on_c, 9, 42, 58
8, 15584, Note_on_c, 9, 51, 70
8, 15587, Note_on_c, 9, 42, 0
8, 15587, Note_on_c, 9, 51, 0
8, 15616, Note_on_c, 9, 42, 58
8, 15616, Note_on_c, 9, 51, 75
8, 15619, Note_on_c, 9, 42, 0
8, 15619, Note_on_c, 9, 51, 0
8, 15648, Note_on_c, 9, 38, 103
8, 15648, Note_on_c, 9, 42, 92
8, 15648, Note_on_c, 9, 51, 103
8, 15651, Note_on_c, 9, 38, 0
8, 15651, Note_on_c, 9, 42, 0
8, 15651, Note_on_c, 9, 51, 0
8, 15680, Note_on_c, 9, 42, 70
8, 15680, Note_on_c, 9, 51, 62
8, 15683, Note_on_c, 9, 42, 0
8, 15683, Note_on_c, 9, 51, 0
8, 15712, Note_on_c, 9, 36, 97
8, 15712, Note_on_c, 9, 42, 62
8, 15712, Note_on_c, 9, 51, 97
8, 15715, Note_on_c, 9, 36, 0
8, 15715, Note_on_c, 9, 42, 0
8, 15715, Note_on_c, 9, 51, 0
8, 15744, Note_on_c, 9, 36, 109
8, 15744, Note_on_c, 9, 42, 92
8, 15744, Note_on_c, 9, 51, 97
8, 15747, Note_on_c, 9, 36, 0
8, 15747, Note_on_c, 9, 42, 0
8, 15747, Note_on_c, 9, 51, 0
8, 15776, Note_on_c, 9, 42, 50
8, 15776, Note_on_c, 9, 51, 66
8, 15779, Note_on_c, 9, 42, 0
8, 15779, Note_on_c, 9, 51, 0
8, 15808, Note_on_c, 9, 42, 62
8, 15808, Note_on_c, 9, 51, 88
8, 15811, Note_on_c, 9, 42, 0
8, 15811, Note_on_c, 9, 51, 0
8, 15840, Note_on_c, 9, 38, 109
8, 15840, Note_on_c, 9, 42, 88
8, 15840, Note_on_c, 9, 51, 109
8, 15843, Note_on_c, 9, 38, 0
8, 15843, Note_on_c, 9, 42, 0
8, 15843, Note_on_c, 9, 51, 0
8, 15872, Note_on_c, 9, 36, 103
8, 15872, Note_on_c, 9, 42, 70
8, 15872, Note_on_c, 9, 51, 88
8, 15875, Note_on_c, 9, 36, 0
8, 15875, Note_on_c, 9, 42, 0
8, 15875, Note_on_c, 9, 51, 0
8, 15904, Note_on_c, 9, 38, 103
8, 15904, Note_on_c, 9, 42, 49
8, 15904, Note_on_c, 9, 51, 103
8, 15907, Note_on_c, 9, 38, 0
8, 15907, Note_on_c, 9, 42, 0
8, 15907, Note_on_c, 9, 51, 0
8, 15936, Note_on_c, 9, 36, 109
8, 15936, Note_on_c, 9, 42, 103
8, 15936, Note_on_c, 9, 49, 97
8, 15939, Note_on_c, 9, 36, 0
8, 15939, Note_on_c, 9, 42, 0
8, 15939, Note_on_c, 9, 49, 0
8, 15968, Note_on_c, 9, 42, 52
8, 15971, Note_on_c, 9, 42, 0
8, 16000, Note_on_c, 9, 42, 70
8, 16000, Note_on_c, 9, 51, 50
8, 16003, Note_on_c, 9, 42, 0
8, 16003, Note_on_c, 9, 51, 0
8, 16032, Note_on_c, 9, 38, 109
8, 16032, Note_on_c, 9, 42, 103
8, 16032, Note_on_c, 9, 51, 103
8, 16035, Note_on_c, 9, 38, 0
8, 16035, Note_on_c, 9, 42, 0
8, 16035, Note_on_c, 9, 51, 0
8, 16064, Note_on_c, 9, 42, 47
8, 16064, Note_on_c, 9, 51, 45
8, 16067, Note_on_c, 9, 42, 0
8, 16067, Note_on_c, 9, 51, 0
8, 16096, Note_on_c, 9, 36, 103
8, 16096, Note_on_c, 9, 42, 75
8, 16096, Note_on_c, 9, 51, 83
8, 16099, Note_on_c, 9, 36, 0
8, 16099, Note_on_c, 9, 42, 0
8, 16099, Note_on_c, 9, 51, 0
8, 16128, Note_on_c, 9, 36, 103
8, 16128, Note_on_c, 9, 42, 92
8, 16128, Note_on_c, 9, 51, 97
8, 16131, Note_on_c, 9, 36, 0
8, 16131, Note_on_c, 9, 42, 0
8, 16131, Note_on_c, 9, 51, 0
8, 16160, Note_on_c, 9, 42, 62
8, 16160, Note_on_c, 9, 51, 21
8, 16163, Note_on_c, 9, 42, 0
8, 16163, Note_on_c, 9, 51, 0
8, 16192, Note_on_c, 9, 42, 54
8, 16192, Note_on_c, 9, 51, 46
8, 16195, Note_on_c, 9, 42, 0
8, 16195, Note_on_c, 9, 51, 0
8, 16224, Note_on_c, 9, 38, 109
8, 16224, Note_on_c, 9, 42, 92
8, 16224, Note_on_c, 9, 51, 97
8, 16227, Note_on_c, 9, 38, 0
8, 16227, Note_on_c, 9, 42, 0
8, 16227, Note_on_c, 9, 51, 0
8, 16256, Note_on_c, 9, 42, 66
8, 16256, Note_on_c, 9, 51, 83
8, 16259, Note_on_c, 9, 42, 0
8, 16259, Note_on_c, 9, 51, 0
8, 16288, Note_on_c, 9, 42, 54
8, 16288, Note_on_c, 9, 51, 103
8, 16291, Note_on_c, 9, 42, 0
8, 16291, Note_on_c, 9, 51, 0
8, 16320, Note_on_c, 9, 36, 109
8, 16320, Note_on_c, 9, 42, 92
8, 16320, Note_on_c, 9, 51, 103
8, 16323, Note_on_c, 9, 36, 0
8, 16323, Note_on_c, 9, 42, 0
8, 16323, Note_on_c, 9, 51, 0
8, 16352, Note_on_c, 9, 42, 58
8, 16352, Note_on_c, 9, 51, 62
8, 16355, Note_on_c, 9, 42, 0
8, 16355, Note_on_c, 9, 51, 0
8, 16384, Note_on_c, 9, 42, 62
8, 16384, Note_on_c, 9, 51, 79
8, 16387, Note_on_c, 9, 42, 0
8, 16387, Note_on_c, 9, 51, 0
8, 16416, Note_on_c, 9, 38, 109
8, 16416, Note_on_c, 9, 42, 97
8, 16416, Note_on_c, 9, 51, 103
8, 16419, Note_on_c, 9, 38, 0
8, 16419, Note_on_c, 9, 42, 0
8, 16419, Note_on_c, 9, 51, 0
8, 16448, Note_on_c, 9, 42, 62
8, 16448, Note_on_c, 9, 51, 62
8, 16451, Note_on_c, 9, 42, 0
8, 16451, Note_on_c, 9, 51, 0
8, 16480, Note_on_c, 9, 36, 103
8, 16480, Note_on_c, 9, 42, 54
8, 16480, Note_on_c, 9, 51, 97
8, 16483, Note_on_c, 9, 36, 0
8, 16483, Note_on_c, 9, 42, 0
8, 16483, Note_on_c, 9, 51, 0
8, 16512, Note_on_c, 9, 36, 103
8, 16512, Note_on_c, 9, 42, 92
8, 16512, Note_on_c, 9, 51, 103
8, 16515, Note_on_c, 9, 36, 0
8, 16515, Note_on_c, 9, 42, 0
8, 16515, Note_on_c, 9, 51, 0
8, 16544, Note_on_c, 9, 42, 58
8, 16544, Note_on_c, 9, 51, 66
8, 16547, Note_on_c, 9, 42, 0
8, 16547, Note_on_c, 9, 51, 0
8, 16576, Note_on_c, 9, 42, 50
8, 16576, Note_on_c, 9, 51, 75
8, 16579, Note_on_c, 9, 42, 0
8, 16579, Note_on_c, 9, 51, 0
8, 16608, Note_on_c, 9, 38, 117
8, 16608, Note_on_c, 9, 42, 92
8, 16608, Note_on_c, 9, 51, 103
8, 16611, Note_on_c, 9, 38, 0
8, 16611, Note_on_c, 9, 42, 0
8, 16611, Note_on_c, 9, 51, 0
8, 16640, Note_on_c, 9, 42, 58
8, 16640, Note_on_c, 9, 51, 54
8, 16643, Note_on_c, 9, 42, 0
8, 16643, Note_on_c, 9, 51, 0
8, 16672, Note_on_c, 9, 42, 62
8, 16672, Note_on_c, 9, 51, 97
8, 16675, Note_on_c, 9, 42, 0
8, 16675, Note_on_c, 9, 51, 0
8, 16704, Note_on_c, 9, 36, 109
8, 16704, Note_on_c, 9, 42, 92
8, 16704, Note_on_c, 9, 51, 103
8, 16707, Note_on_c, 9, 36, 0
8, 16707, Note_on_c, 9, 42, 0
8, 16707, Note_on_c, 9, 51, 0
8, 16736, Note_on_c, 9, 42, 58
8, 16736, Note_on_c, 9, 51, 62
8, 16739, Note_on_c, 9, 42, 0
8, 16739, Note_on_c, 9, 51, 0
8, 16768, Note_on_c, 9, 42, 50
8, 16768, Note_on_c, 9, 51, 88
8, 16771, Note_on_c, 9, 42, 0
8, 16771, Note_on_c, 9, 51, 0
8, 16800, Note_on_c, 9, 38, 109
8, 16800, Note_on_c, 9, 42, 92
8, 16800, Note_on_c, 9, 51, 109
8, 16803, Note_on_c, 9, 38, 0
8, 16803, Note_on_c, 9, 42, 0
8, 16803, Note_on_c, 9, 51, 0
8, 16832, Note_on_c, 9, 42, 62
8, 16832, Note_on_c, 9, 51, 45
8, 16835, Note_on_c, 9, 42, 0
8, 16835, Note_on_c, 9, 51, 0
8, 16864, Note_on_c, 9, 36, 97
8, 16864, Note_on_c, 9, 42, 52
8, 16864, Note_on_c, 9, 51, 103
8, 16867, Note_on_c, 9, 36, 0
8, 16867, Note_on_c, 9, 42, 0
8, 16867, Note_on_c, 9, 51, 0
8, 16896, Note_on_c, 9, 36, 109
8, 16896, Note_on_c, 9, 42, 97
8, 16896, Note_on_c, 9, 51, 97
8, 16899, Note_on_c, 9, 36, 0
8, 16899, Note_on_c, 9, 42, 0
8, 16899, Note_on_c, 9, 51, 0
8, 16928, Note_on_c, 9, 42, 62
8, 16928, Note_on_c, 9, 51, 79
8, 16931, Note_on_c, 9, 42, 0
8, 16931, Note_on_c, 9, 51, 0
8, 16960, Note_on_c, 9, 42, 62
8, 16960, Note_on_c, 9, 51, 75
8, 16963, Note_on_c, 9, 42, 0
8, 16963, Note_on_c, 9, 51, 0
8, 16992, Note_on_c, 9, 38, 109
8, 16992, Note_on_c, 9, 42, 97
8, 16992, Note_on_c, 9, 51, 103
8, 16995, Note_on_c, 9, 38, 0
8, 16995, Note_on_c, 9, 42, 0
8, 16995, Note_on_c, 9, 51, 0
8, 17024, Note_on_c, 9, 42, 70
8, 17024, Note_on_c, 9, 51, 52
8, 17027, Note_on_c, 9, 42, 0
8, 17027, Note_on_c, 9, 51, 0
8, 17056, Note_on_c, 9, 42, 58
8, 17056, Note_on_c, 9, 51, 83
8, 17059, Note_on_c, 9, 42, 0
8, 17059, Note_on_c, 9, 51, 0
8, 17088, Note_on_c, 9, 36, 117
8, 17088, Note_on_c, 9, 49, 103
8, 17088, Note_on_c, 9, 46, 109
8, 17091, Note_on_c, 9, 36, 0
8, 17091, Note_on_c, 9, 49, 0
8, 17091, Note_on_c, 9, 46, 0
8, 17120, Note_on_c, 9, 42, 79
8, 17120, Note_on_c, 9, 51, 43
8, 17123, Note_on_c, 9, 42, 0
8, 17123, Note_on_c, 9, 51, 0
8, 17136, Note_on_c, 9, 42, 79
8, 17139, Note_on_c, 9, 42, 0
8, 17152, Note_on_c, 9, 42, 97
8, 17152, Note_on_c, 9, 51, 31
8, 17155, Note_on_c, 9, 42, 0
8, 17155, Note_on_c, 9, 51, 0
8, 17184, Note_on_c, 9, 38, 97
8, 17184, Note_on_c, 9, 51, 97
8, 17184, Note_on_c, 9, 46, 97
8, 17187, Note_on_c, 9, 38, 0
8, 17187, Note_on_c, 9, 51, 0
8, 17187, Note_on_c, 9, 46, 0
8, 17216, Note_on_c, 9, 42, 97
8, 17216, Note_on_c, 9, 51, 62
8, 17219, Note_on_c, 9, 42, 0
8, 17219, Note_on_c, 9, 51, 0
8, 17248, Note_on_c, 9, 36, 103
8, 17248, Note_on_c, 9, 42, 97
8, 17248, Note_on_c, 9, 51, 83
8, 17251, Note_on_c, 9, 36, 0
8, 17251, Note_on_c, 9, 42, 0
8, 17251, Note_on_c, 9, 51, 0
8, 17280, Note_on_c, 9, 36, 103
8, 17280, Note_on_c, 9, 51, 103
8, 17280, Note_on_c, 9, 46, 92
8, 17283, Note_on_c, 9, 36, 0
8, 17283, Note_on_c, 9, 51, 0
8, 17283, Note_on_c, 9, 46, 0
8, 17312, Note_on_c, 9, 42, 79
8, 17312, Note_on_c, 9, 51, 50
8, 17315, Note_on_c, 9, 42, 0
8, 17315, Note_on_c, 9, 51, 0
8, 17328, Note_on_c, 9, 42, 88
8, 17331, Note_on_c, 9, 42, 0
8, 17344, Note_on_c, 9, 42, 97
8, 17344, Note_on_c, 9, 51, 54
8, 17347, Note_on_c, 9, 42, 0
8, 17347, Note_on_c, 9, 51, 0
8, 17376, Note_on_c, 9, 38, 103
8, 17376, Note_on_c, 9, 51, 103
8, 17376, Note_on_c, 9, 46, 97
8, 17379, Note_on_c, 9, 38, 0
8, 17379, Note_on_c, 9, 51, 0
8, 17379, Note_on_c, 9, 46, 0
8, 17408, Note_on_c, 9, 42, 97
8, 17408, Note_on_c, 9, 51, 54
8, 17411, Note_on_c, 9, 42, 0
8, 17411, Note_on_c, 9, 51, 0
8, 17440, Note_on_c, 9, 42, 103
8, 17440, Note_on_c, 9, 51, 103
8, 17443, Note_on_c, 9, 42, 0
8, 17443, Note_on_c, 9, 51, 0
8, 17472, Note_on_c, 9, 36, 109
8, 17472, Note_on_c, 9, 51, 103
8, 17472, Note_on_c, 9, 46, 97
8, 17475, Note_on_c, 9, 36, 0
8, 17475, Note_on_c, 9, 51, 0
8, 17475, Note_on_c, 9, 46, 0
8, 17504, Note_on_c, 9, 42, 97
8, 17504, Note_on_c, 9, 51, 25
8, 17507, Note_on_c, 9, 42, 0
8, 17507, Note_on_c, 9, 51, 0
8, 17520, Note_on_c, 9, 42, 92
8, 17523, Note_on_c, 9, 42, 0
8, 17536, Note_on_c, 9, 42, 97
8, 17536, Note_on_c, 9, 51, 79
8, 17539, Note_on_c, 9, 42, 0
8, 17539, Note_on_c, 9, 51, 0
8, 17568, Note_on_c, 9, 38, 103
8, 17568, Note_on_c, 9, 51, 109
8, 17568, Note_on_c, 9, 46, 92
8, 17571, Note_on_c, 9, 38, 0
8, 17571, Note_on_c, 9, 51, 0
8, 17571, Note_on_c, 9, 46, 0
8, 17600, Note_on_c, 9, 42, 97
8, 17600, Note_on_c, 9, 51, 88
8, 17603, Note_on_c, 9, 42, 0
8, 17603, Note_on_c, 9, 51, 0
8, 17632, Note_on_c, 9, 36, 103
8, 17632, Note_on_c, 9, 42, 97
8, 17632, Note_on_c, 9, 51, 103
8, 17635, Note_on_c, 9, 36, 0
8, 17635, Note_on_c, 9, 42, 0
8, 17635, Note_on_c, 9, 51, 0
8, 17664, Note_on_c, 9, 36, 109
8, 17664, Note_on_c, 9, 49, 97
8, 17664, Note_on_c, 9, 46, 103
8, 17667, Note_on_c, 9, 36, 0
8, 17667, Note_on_c, 9, 49, 0
8, 17667, Note_on_c, 9, 46, 0
8, 17667, End_track
9, 0, Start_track
9, 0, Control_c, 15, 0, 0
9, 0, Program_c, 15, 11
9, 0, Control_c, 15, 10, 91
9, 0, Time_signature, 4, 2, 96, 8
9, 0, Tempo, 853485
9, 0, Control_c, 15, 7, 30
9, 16, Control_c, 15, 64, 0
9, 24, Control_c, 15, 10, 91
9, 28, Control_c, 15, 10, 91
9, 33, Control_c, 15, 10, 91
9, 38, Control_c, 15, 10, 91
9, 43, Control_c, 15, 10, 91
9, 46, Control_c, 15, 64, 0
9, 48, Control_c, 15, 10, 91
9, 52, Control_c, 15, 10, 91
9, 57, Control_c, 15, 10, 91
9, 62, Control_c, 15, 10, 91
9, 67, Control_c, 15, 10, 91
9, 1061, Note_on_c, 15, 76, 82
9, 1076, Note_on_c, 15, 76, 0
9, 1090, Note_on_c, 15, 76, 82
9, 1102, Note_on_c, 15, 76, 0
9, 1120, Note_on_c, 15, 76, 82
9, 1131, Note_on_c, 15, 76, 0
9, 1152, Note_on_c, 15, 76, 82
9, 1181, Note_on_c, 15, 76, 0
9, 1184, Note_on_c, 15, 74, 82
9, 1213, Note_on_c, 15, 74, 0
9, 1215, Note_on_c, 15, 72, 82
9, 1437, Note_on_c, 15, 72, 0
9, 1441, Note_on_c, 15, 76, 82
9, 1459, Note_on_c, 15, 76, 0
9, 1472, Note_on_c, 15, 76, 82
9, 1485, Note_on_c, 15, 76, 0
9, 1501, Note_on_c, 15, 76, 82
9, 1512, Note_on_c, 15, 76, 0
9, 1533, Note_on_c, 15, 76, 82
9, 1562, Note_on_c, 15, 76, 0
9, 1564, Note_on_c, 15, 74, 82
9, 1798, Note_on_c, 15, 74, 0
9, 1826, Note_on_c, 15, 74, 82
9, 1838, Note_on_c, 15, 74, 0
9, 1854, Note_on_c, 15, 74, 82
9, 1876, Note_on_c, 15, 74, 0
9, 1884, Note_on_c, 15, 77, 82
9, 1897, Note_on_c, 15, 77, 0
9, 1918, Note_on_c, 15, 77, 82
9, 1947, Note_on_c, 15, 77, 0
9, 1950, Note_on_c, 15, 74, 82
9, 2156, Note_on_c, 15, 74, 0
9, 2175, Note_on_c, 15, 74, 82
9, 2206, Note_on_c, 15, 74, 0
9, 2207, Note_on_c, 15, 76, 82
9, 2219, Note_on_c, 15, 76, 0
9, 2237, Note_on_c, 15, 76, 82
9, 2266, Note_on_c, 15, 76, 0
9, 2270, Note_on_c, 15, 74, 82
9, 2304, Note_on_c, 15, 74, 0
9, 2305, Note_on_c, 15, 72, 82
9, 2506, Note_on_c, 15, 72, 0
9, 2562, Note_on_c, 15, 76, 82
9, 2571, Note_on_c, 15, 76, 0
9, 2595, Note_on_c, 15, 76, 82
9, 2610, Note_on_c, 15, 76, 0
9, 2624, Note_on_c, 15, 76, 82
9, 2637, Note_on_c, 15, 76, 0
9, 2656, Note_on_c, 15, 74, 82
9, 2664, Note_on_c, 15, 74, 0
9, 2689, Note_on_c, 15, 76, 82
9, 2719, Note_on_c, 15, 76, 0
9, 2720, Note_on_c, 15, 74, 82
9, 2751, Note_on_c, 15, 72, 82
9, 2752, Note_on_c, 15, 74, 0
9, 2974, Note_on_c, 15, 72, 0
9, 2977, Note_on_c, 15, 76, 82
9, 2990, Note_on_c, 15, 76, 0
9, 3006, Note_on_c, 15, 76, 82
9, 3016, Note_on_c, 15, 76, 0
9, 3037, Note_on_c, 15, 76, 82
9, 3048, Note_on_c, 15, 76, 0
9, 3070, Note_on_c, 15, 76, 82
9, 3099, Note_on_c, 15, 76, 0
9, 3101, Note_on_c, 15, 74, 82
9, 3334, Note_on_c, 15, 74, 0
9, 3360, Note_on_c, 15, 74, 82
9, 3374, Note_on_c, 15, 74, 0
9, 3389, Note_on_c, 15, 74, 82
9, 3409, Note_on_c, 15, 74, 0
9, 3421, Note_on_c, 15, 77, 82
9, 3435, Note_on_c, 15, 77, 0
9, 3454, Note_on_c, 15, 77, 82
9, 3482, Note_on_c, 15, 77, 0
9, 3485, Note_on_c, 15, 74, 82
9, 3693, Note_on_c, 15, 74, 0
9, 3712, Note_on_c, 15, 74, 82
9, 3724, Note_on_c, 15, 74, 0
9, 3744, Note_on_c, 15, 76, 82
9, 3760, Note_on_c, 15, 76, 0
9, 3776, Note_on_c, 15, 76, 82
9, 3804, Note_on_c, 15, 76, 0
9, 3806, Note_on_c, 15, 74, 82
9, 3838, Note_on_c, 15, 74, 0
9, 3841, Note_on_c, 15, 72, 82
9, 4006, Note_on_c, 15, 72, 0
9, 4130, Note_on_c, 15, 76, 82
9, 4144, Note_on_c, 15, 76, 0
9, 4162, Note_on_c, 15, 76, 82
9, 4188, Note_on_c, 15, 76, 0
9, 4193, Note_on_c, 15, 72, 82
9, 4216, Note_on_c, 15, 72, 0
9, 4223, Note_on_c, 15, 76, 82
9, 4224, Time_signature, 1, 2, 96, 8
9, 4241, Note_on_c, 15, 76, 0
9, 4257, Note_on_c, 15, 76, 82
9, 4279, Note_on_c, 15, 76, 0
9, 4287, Note_on_c, 15, 74, 82
9, 4306, Note_on_c, 15, 74, 0
9, 4320, Time_signature, 4, 2, 96, 8
9, 4320, Note_on_c, 15, 76, 82
9, 4356, Note_on_c, 15, 76, 0
9, 4356, Note_on_c, 15, 74, 82
9, 4388, Note_on_c, 15, 72, 82
9, 4389, Note_on_c, 15, 74, 0
9, 4589, Note_on_c, 15, 72, 0
9, 4607, Note_on_c, 15, 76, 82
9, 4630, Note_on_c, 15, 76, 0
9, 4641, Note_on_c, 15, 76, 82
9, 4657, Note_on_c, 15, 76, 0
9, 4671, Note_on_c, 15, 76, 82
9, 4686, Note_on_c, 15, 76, 0
9, 4704, Note_on_c, 15, 76, 82
9, 4762, Note_on_c, 15, 76, 0
9, 4764, Note_on_c, 15, 74, 82
9, 4975, Note_on_c, 15, 74, 0
9, 4995, Note_on_c, 15, 74, 82
9, 5008, Note_on_c, 15, 74, 0
9, 5023, Note_on_c, 15, 74, 82
9, 5047, Note_on_c, 15, 74, 0
9, 5053, Note_on_c, 15, 77, 82
9, 5071, Note_on_c, 15, 77, 0
9, 5086, Note_on_c, 15, 77, 82
9, 5145, Note_on_c, 15, 77, 0
9, 5147, Note_on_c, 15, 74, 82
9, 5329, Note_on_c, 15, 74, 0
9, 5350, Note_on_c, 15, 74, 82
9, 5360, Note_on_c, 15, 74, 0
9, 5380, Note_on_c, 15, 76, 82
9, 5434, Note_on_c, 15, 76, 0
9, 5439, Note_on_c, 15, 74, 82
9, 5471, Note_on_c, 15, 74, 0
9, 5474, Note_on_c, 15, 72, 82
9, 5666, Note_on_c, 15, 72, 0
9, 5730, Note_on_c, 15, 76, 82
9, 5743, Note_on_c, 15, 76, 0
9, 5762, Note_on_c, 15, 76, 82
9, 5780, Note_on_c, 15, 76, 0
9, 5793, Note_on_c, 15, 76, 82
9, 5821, Note_on_c, 15, 76, 0
9, 5824, Note_on_c, 15, 74, 82
9, 5846, Note_on_c, 15, 74, 0
9, 5856, Note_on_c, 15, 76, 82
9, 5892, Note_on_c, 15, 76, 0
9, 5892, Note_on_c, 15, 74, 82
9, 5924, Note_on_c, 15, 72, 82
9, 5925, Note_on_c, 15, 74, 0
9, 6125, Note_on_c, 15, 72, 0
9, 6143, Note_on_c, 15, 76, 82
9, 6166, Note_on_c, 15, 76, 0
9, 6177, Note_on_c, 15, 76, 82
9, 6193, Note_on_c, 15, 76, 0
9, 6207, Note_on_c, 15, 76, 82
9, 6222, Note_on_c, 15, 76, 0
9, 6240, Note_on_c, 15, 76, 82
9, 6298, Note_on_c, 15, 76, 0
9, 6300, Note_on_c, 15, 74, 82
9, 6511, Note_on_c, 15, 74, 0
9, 6531, Note_on_c, 15, 74, 82
9, 6544, Note_on_c, 15, 74, 0
9, 6559, Note_on_c, 15, 74, 82
9, 6583, Note_on_c, 15, 74, 0
9, 6589, Note_on_c, 15, 77, 82
9, 6607, Note_on_c, 15, 77, 0
9, 6622, Note_on_c, 15, 77, 82
9, 6681, Note_on_c, 15, 77, 0
9, 6683, Note_on_c, 15, 74, 82
9, 6865, Note_on_c, 15, 74, 0
9, 6886, Note_on_c, 15, 74, 82
9, 6896, Note_on_c, 15, 74, 0
9, 6916, Note_on_c, 15, 76, 82
9, 6970, Note_on_c, 15, 76, 0
9, 6975, Note_on_c, 15, 74, 82
9, 7007, Note_on_c, 15, 74, 0
9, 7010, Note_on_c, 15, 72, 82
9, 7202, Note_on_c, 15, 72, 0
9, 7685, Note_on_c, 15, 76, 82
9, 7700, Note_on_c, 15, 76, 0
9, 7714, Note_on_c, 15, 76, 82
9, 7726, Note_on_c, 15, 76, 0
9, 7744, Note_on_c, 15, 76, 82
9, 7755, Note_on_c, 15, 76, 0
9, 7776, Note_on_c, 15, 76, 82
9, 7805, Note_on_c, 15, 76, 0
9, 7808, Note_on_c, 15, 74, 82
9, 7837, Note_on_c, 15, 74, 0
9, 7839, Note_on_c, 15, 72, 82
9, 8061, Note_on_c, 15, 72, 0
9, 8065, Note_on_c, 15, 76, 82
9, 8083, Note_on_c, 15, 76, 0
9, 8096, Note_on_c, 15, 76, 82
9, 8109, Note_on_c, 15, 76, 0
9, 8125, Note_on_c, 15, 76, 82
9, 8136, Note_on_c, 15, 76, 0
9, 8157, Note_on_c, 15, 76, 82
9, 8186, Note_on_c, 15, 76, 0
9, 8188, Note_on_c, 15, 74, 82
9, 8422, Note_on_c, 15, 74, 0
9, 8450, Note_on_c, 15, 74, 82
9, 8462, Note_on_c, 15, 74, 0
9, 8478, Note_on_c, 15, 74, 82
9, 8500, Note_on_c, 15, 74, 0
9, 8508, Note_on_c, 15, 77, 82
9, 8521, Note_on_c, 15, 77, 0
9, 8542, Note_on_c, 15, 77, 82
9, 8571, Note_on_c, 15, 77, 0
9, 8574, Note_on_c, 15, 74, 82
9, 8780, Note_on_c, 15, 74, 0
9, 8799, Note_on_c, 15, 74, 82
9, 8830, Note_on_c, 15, 74, 0
9, 8831, Note_on_c, 15, 76, 82
9, 8843, Note_on_c, 15, 76, 0
9, 8861, Note_on_c, 15, 76, 82
9, 8890, Note_on_c, 15, 76, 0
9, 8894, Note_on_c, 15, 74, 82
9, 8928, Note_on_c, 15, 74, 0
9, 8929, Note_on_c, 15, 72, 82
9, 9130, Note_on_c, 15, 72, 0
9, 9186, Note_on_c, 15, 76, 82
9, 9195, Note_on_c, 15, 76, 0
9, 9219, Note_on_c, 15, 76, 82
9, 9234, Note_on_c, 15, 76, 0
9, 9248, Note_on_c, 15, 76, 82
9, 9261, Note_on_c, 15, 76, 0
9, 9280, Note_on_c, 15, 74, 82
9, 9288, Note_on_c, 15, 74, 0
9, 9313, Note_on_c, 15, 76, 82
9, 9343, Note_on_c, 15, 76, 0
9, 9344, Note_on_c, 15, 74, 82
9, 9375, Note_on_c, 15, 72, 82
9, 9376, Note_on_c, 15, 74, 0
9, 9598, Note_on_c, 15, 72, 0
9, 9601, Note_on_c, 15, 76, 82
9, 9614, Note_on_c, 15, 76, 0
9, 9630, Note_on_c, 15, 76, 82
9, 9640, Note_on_c, 15, 76, 0
9, 9661, Note_on_c, 15, 76, 82
9, 9672, Note_on_c, 15, 76, 0
9, 9694, Note_on_c, 15, 76, 82
9, 9723, Note_on_c, 15, 76, 0
9, 9725, Note_on_c, 15, 74, 82
9, 9958, Note_on_c, 15, 74, 0
9, 9984, Note_on_c, 15, 74, 82
9, 9998, Note_on_c, 15, 74, 0
9, 10013, Note_on_c, 15, 74, 82
9, 10033, Note_on_c, 15, 74, 0
9, 10045, Note_on_c, 15, 77, 82
9, 10059, Note_on_c, 15, 77, 0
9, 10078, Note_on_c, 15, 77, 82
9, 10106, Note_on_c, 15, 77, 0
9, 10109, Note_on_c, 15, 74, 82
9, 10317, Note_on_c, 15, 74, 0
9, 10336, Note_on_c, 15, 74, 82
9, 10348, Note_on_c, 15, 74, 0
9, 10368, Note_on_c, 15, 76, 82
9, 10384, Note_on_c, 15, 76, 0
9, 10400, Note_on_c, 15, 76, 82
9, 10428, Note_on_c, 15, 76, 0
9, 10430, Note_on_c, 15, 74, 82
9, 10462, Note_on_c, 15, 74, 0
9, 10465, Note_on_c, 15, 72, 82
9, 10630, Note_on_c, 15, 72, 0
9, 10754, Note_on_c, 15, 76, 82
9, 10768, Note_on_c, 15, 76, 0
9, 10786, Note_on_c, 15, 76, 82
9, 10812, Note_on_c, 15, 76, 0
9, 10817, Note_on_c, 15, 72, 82
9, 10840, Note_on_c, 15, 72, 0
9, 10847, Note_on_c, 15, 76, 82
9, 10848, Time_signature, 1, 2, 96, 8
9, 10865, Note_on_c, 15, 76, 0
9, 10881, Note_on_c, 15, 76, 82
9, 10903, Note_on_c, 15, 76, 0
9, 10911, Note_on_c, 15, 74, 82
9, 10930, Note_on_c, 15, 74, 0
9, 10944, Time_signature, 4, 2, 96, 8
9, 10944, Note_on_c, 15, 76, 82
9, 10980, Note_on_c, 15, 76, 0
9, 10980, Note_on_c, 15, 74, 82
9, 11012, Note_on_c, 15, 72, 82
9, 11013, Note_on_c, 15, 74, 0
9, 11213, Note_on_c, 15, 72, 0
9, 11231, Note_on_c, 15, 76, 82
9, 11254, Note_on_c, 15, 76, 0
9, 11265, Note_on_c, 15, 76, 82
9, 11281, Note_on_c, 15, 76, 0
9, 11295, Note_on_c, 15, 76, 82
9, 11310, Note_on_c, 15, 76, 0
9, 11328, Note_on_c, 15, 76, 82
9, 11386, Note_on_c, 15, 76, 0
9, 11388, Note_on_c, 15, 74, 82
9, 11599, Note_on_c, 15, 74, 0
9, 11619, Note_on_c, 15, 74, 82
9, 11632, Note_on_c, 15, 74, 0
9, 11647, Note_on_c, 15, 74, 82
9, 11671, Note_on_c, 15, 74, 0
9, 11677, Note_on_c, 15, 77, 82
9, 11695, Note_on_c, 15, 77, 0
9, 11710, Note_on_c, 15, 77, 82
9, 11769, Note_on_c, 15, 77, 0
9, 11771, Note_on_c, 15, 74, 82
9, 11953, Note_on_c, 15, 74, 0
9, 11974, Note_on_c, 15, 74, 82
9, 11984, Note_on_c, 15, 74, 0
9, 12004, Note_on_c, 15, 76, 82
9, 12058, Note_on_c, 15, 76, 0
9, 12063, Note_on_c, 15, 74, 82
9, 12095, Note_on_c, 15, 74, 0
9, 12098, Note_on_c, 15, 72, 82
9, 12290, Note_on_c, 15, 72, 0
9, 12354, Note_on_c, 15, 76, 82
9, 12367, Note_on_c, 15, 76, 0
9, 12386, Note_on_c, 15, 76, 82
9, 12404, Note_on_c, 15, 76, 0
9, 12417, Note_on_c, 15, 76, 82
9, 12445, Note_on_c, 15, 76, 0
9, 12448, Note_on_c, 15, 74, 82
9, 12470, Note_on_c, 15, 74, 0
9, 12480, Note_on_c, 15, 76, 82
9, 12516, Note_on_c, 15, 76, 0
9, 12516, Note_on_c, 15, 74, 82
9, 12548, Note_on_c, 15, 72, 82
9, 12549, Note_on_c, 15, 74, 0
9, 12749, Note_on_c, 15, 72, 0
9, 12767, Note_on_c, 15, 76, 82
9, 12790, Note_on_c, 15, 76, 0
9, 12801, Note_on_c, 15, 76, 82
9, 12817, Note_on_c, 15, 76, 0
9, 12831, Note_on_c, 15, 76, 82
9, 12846, Note_on_c, 15, 76, 0
9, 12864, Note_on_c, 15, 76, 82
9, 12922, Note_on_c, 15, 76, 0
9, 12924, Note_on_c, 15, 74, 82
9, 13135, Note_on_c, 15, 74, 0
9, 13155, Note_on_c, 15, 74, 82
9, 13168, Note_on_c, 15, 74, 0
9, 13183, Note_on_c, 15, 74, 82
9, 13207, Note_on_c, 15, 74, 0
9, 13213, Note_on_c, 15, 77, 82
9, 13231, Note_on_c, 15, 77, 0
9, 13246, Note_on_c, 15, 77, 82
9, 13305, Note_on_c, 15, 77, 0
9, 13307, Note_on_c, 15, 74, 82
9, 13489, Note_on_c, 15, 74, 0
9, 13510, Note_on_c, 15, 74, 82
9, 13520, Note_on_c, 15, 74, 0
9, 13540, Note_on_c, 15, 76, 82
9, 13594, Note_on_c, 15, 76, 0
9, 13599, Note_on_c, 15, 74, 82
9, 13631, Note_on_c, 15, 74, 0
9, 13634, Note_on_c, 15, 72, 82
9, 13826, Note_on_c, 15, 72, 0
9, 14309, Note_on_c, 15, 76, 82
9, 14324, Note_on_c, 15, 76, 0
9, 14338, Note_on_c, 15, 76, 82
9, 14350, Note_on_c, 15, 76, 0
9, 14368, Note_on_c, 15, 76, 82
9, 14379, Note_on_c, 15, 76, 0
9, 14400, Note_on_c, 15, 76, 82
9, 14429, Note_on_c, 15, 76, 0
9, 14432, Note_on_c, 15, 74, 82
9, 14461, Note_on_c, 15, 74, 0
9, 14463, Note_on_c, 15, 72, 82
9, 14685, Note_on_c, 15, 72, 0
9, 14689, Note_on_c, 15, 76, 82
9, 14707, Note_on_c, 15, 76, 0
9, 14720, Note_on_c, 15, 76, 82
9, 14733, Note_on_c, 15, 76, 0
9, 14749, Note_on_c, 15, 76, 82
9, 14760, Note_on_c, 15, 76, 0
9, 14781, Note_on_c, 15, 76, 82
9, 14810, Note_on_c, 15, 76, 0
9, 14812, Note_on_c, 15, 74, 82
9, 15046, Note_on_c, 15, 74, 0
9, 15074, Note_on_c, 15, 74, 82
9, 15086, Note_on_c, 15, 74, 0
9, 15102, Note_on_c, 15, 74, 82
9, 15124, Note_on_c, 15, 74, 0
9, 15132, Note_on_c, 15, 77, 82
9, 15145, Note_on_c, 15, 77, 0
9, 15166, Note_on_c, 15, 77, 82
9, 15195, Note_on_c, 15, 77, 0
9, 15198, Note_on_c, 15, 74, 82
9, 15404, Note_on_c, 15, 74, 0
9, 15423, Note_on_c, 15, 74, 82
9, 15454, Note_on_c, 15, 74, 0
9, 15455, Note_on_c, 15, 76, 82
9, 15467, Note_on_c, 15, 76, 0
9, 15485, Note_on_c, 15, 76, 82
9, 15514, Note_on_c, 15, 76, 0
9, 15518, Note_on_c, 15, 74, 82
9, 15552, Note_on_c, 15, 74, 0
9, 15553, Note_on_c, 15, 72, 82
9, 15754, Note_on_c, 15, 72, 0
9, 15810, Note_on_c, 15, 76, 82
9, 15819, Note_on_c, 15, 76, 0
9, 15843, Note_on_c, 15, 76, 82
9, 15858, Note_on_c, 15, 76, 0
9, 15872, Note_on_c, 15, 76, 82
9, 15885, Note_on_c, 15, 76, 0
9, 15904, Note_on_c, 15, 74, 82
9, 15912, Note_on_c, 15, 74, 0
9, 15937, Note_on_c, 15, 76, 82
9, 15967, Note_on_c, 15, 76, 0
9, 15968, Note_on_c, 15, 74, 82
9, 15999, Note_on_c, 15, 72, 82
9, 16000, Note_on_c, 15, 74, 0
9, 16222, Note_on_c, 15, 72, 0
9, 16225, Note_on_c, 15, 76, 82
9, 16238, Note_on_c, 15, 76, 0
9, 16254, Note_on_c, 15, 76, 82
9, 16264, Note_on_c, 15, 76, 0
9, 16285, Note_on_c, 15, 76, 82
9, 16296, Note_on_c, 15, 76, 0
9, 16318, Note_on_c, 15, 76, 82
9, 16347, Note_on_c, 15, 76, 0
9, 16349, Note_on_c, 15, 74, 82
9, 16582, Note_on_c, 15, 74, 0
9, 16608, Note_on_c, 15, 74, 82
9, 16622, Note_on_c, 15, 74, 0
9, 16637, Note_on_c, 15, 74, 82
9, 16657, Note_on_c, 15, 74, 0
9, 16669, Note_on_c, 15, 77, 82
9, 16683, Note_on_c, 15, 77, 0
9, 16702, Note_on_c, 15, 77, 82
9, 16730, Note_on_c, 15, 77, 0
9, 16733, Note_on_c, 15, 74, 82
9, 16941, Note_on_c, 15, 74, 0
9, 16960, Note_on_c, 15, 74, 82
9, 16972, Note_on_c, 15, 74, 0
9, 16992, Note_on_c, 15, 76, 82
9, 17008, Note_on_c, 15, 76, 0
9, 17024, Note_on_c, 15, 76, 82
9, 17052, Note_on_c, 15, 76, 0
9, 17054, Note_on_c, 15, 74, 82
9, 17086, Note_on_c, 15, 74, 0
9, 17088, Note_on_c, 15, 72, 82
9, 17454, Note_on_c, 15, 72, 0
9, 17454, End_track
0, 0, End_of_file
