0, 0, Header, 1, 3, 960
1, 0, Start_track
1, 0, Control_c, 0, 101, 0
1, 0, Control_c, 0, 100, 0
1, 0, Control_c, 0, 6, 12
1, 0, Control_c, 0, 38, 0
1, 0, Control_c, 1, 101, 0
1, 0, Control_c, 1, 100, 0
1, 0, Control_c, 1, 6, 12
1, 0, Control_c, 1, 38, 0
1, 0, Control_c, 2, 101, 0
1, 0, Control_c, 2, 100, 0
1, 0, Control_c, 2, 6, 12
1, 0, Control_c, 2, 38, 0
1, 0, Control_c, 3, 101, 0
1, 0, Control_c, 3, 100, 0
1, 0, Control_c, 3, 6, 12
1, 0, Control_c, 3, 38, 0
1, 0, Control_c, 4, 101, 0
1, 0, Control_c, 4, 100, 0
1, 0, Control_c, 4, 6, 12
1, 0, Control_c, 4, 38, 0
1, 0, Control_c, 5, 101, 0
1, 0, Control_c, 5, 100, 0
1, 0, Control_c, 5, 6, 12
1, 0, Control_c, 5, 38, 0
1, 0, Control_c, 6, 101, 0
1, 0, Control_c, 6, 100, 0
1, 0, Control_c, 6, 6, 12
1, 0, Control_c, 6, 38, 0
1, 0, Control_c, 7, 101, 0
1, 0, Control_c, 7, 100, 0
1, 0, Control_c, 7, 6, 12
1, 0, Control_c, 7, 38, 0
1, 0, Control_c, 8, 101, 0
1, 0, Control_c, 8, 100, 0
1, 0, Control_c, 8, 6, 12
1, 0, Control_c, 8, 38, 0
1, 0, Control_c, 9, 101, 0
1, 0, Control_c, 9, 100, 0
1, 0, Control_c, 9, 6, 12
1, 0, Control_c, 9, 38, 0
1, 0, Control_c, 10, 101, 0
1, 0, Control_c, 10, 100, 0
1, 0, Control_c, 10, 6, 12
1, 0, Control_c, 10, 38, 0
1, 0, Control_c, 11, 101, 0
1, 0, Control_c, 11, 100, 0
1, 0, Control_c, 11, 6, 12
1, 0, Control_c, 11, 38, 0
1, 0, Control_c, 12, 101, 0
1, 0, Control_c, 12, 100, 0
1, 0, Control_c, 12, 6, 12
1, 0, Control_c, 12, 38, 0
1, 0, Control_c, 13, 101, 0
1, 0, Control_c, 13, 100, 0
1, 0, Control_c, 13, 6, 12
1, 0, Control_c, 13, 38, 0
1, 0, Control_c, 14, 101, 0
1, 0, Control_c, 14, 100, 0
1, 0, Control_c, 14, 6, 12
1, 0, Control_c, 14, 38, 0
1, 0, Control_c, 15, 101, 0
1, 0, Control_c, 15, 100, 0
1, 0, Control_c, 15, 6, 12
1, 0, Control_c, 15, 38, 0
1, 0, Time_signature, 12, 3, 12, 8
1, 0, Tempo, 612244
1, 0, End_track
2, 0, Start_track
2, 0, Pitch_bend_c, 0, 8192
2, 0, Control_c, 0, 7, 111
2, 0, Control_c, 0, 10, 63
2, 0, Control_c, 0, 93, 0
2, 0, Control_c, 0, 91, 0
2, 0, Control_c, 0, 95, 0
2, 0, Control_c, 0, 92, 0
2, 0, Control_c, 0, 11, 127
2, 0, Program_c, 0, 27
2, 0, Control_c, 1, 7, 111
2, 0, Control_c, 1, 10, 63
2, 0, Control_c, 1, 93, 0
2, 0, Control_c, 1, 91, 0
2, 0, Control_c, 1, 95, 0
2, 0, Control_c, 1, 92, 0
2, 0, Control_c, 1, 11, 127
2, 0, Program_c, 1, 27
2, 0, Note_on_c, 1, 69, 95
2, 120, Pitch_bend_c, 1, 8192
2, 240, Pitch_bend_c, 1, 8192
2, 360, Pitch_bend_c, 1, 8192
2, 480, Pitch_bend_c, 1, 8192
2, 600, Pitch_bend_c, 1, 8192
2, 720, Pitch_bend_c, 1, 8192
2, 840, Pitch_bend_c, 1, 8192
2, 960, Pitch_bend_c, 1, 8192
2, 960, Pitch_bend_c, 1, 8192
2, 960, Note_off_c, 1, 69, 95
2, 960, Note_on_c, 0, 69, 95
2, 1440, Note_off_c, 0, 69, 95
2, 1440, Note_on_c, 1, 69, 95
2, 1560, Pitch_bend_c, 1, 8192
2, 1680, Pitch_bend_c, 1, 8192
2, 1800, Pitch_bend_c, 1, 8192
2, 1920, Pitch_bend_c, 1, 8192
2, 2040, Pitch_bend_c, 1, 8192
2, 2160, Pitch_bend_c, 1, 8192
2, 2280, Pitch_bend_c, 1, 8192
2, 2400, Pitch_bend_c, 1, 8192
2, 2400, Pitch_bend_c, 1, 8192
2, 2400, Note_off_c, 1, 69, 95
2, 2400, Note_on_c, 0, 69, 95
2, 2880, Note_off_c, 0, 69, 95
2, 2880, Note_on_c, 1, 69, 95
2, 3000, Pitch_bend_c, 1, 7552
2, 3120, Pitch_bend_c, 1, 6784
2, 3120, Pitch_bend_c, 1, 8192
2, 3120, Note_off_c, 1, 69, 95
2, 3120, Note_on_c, 0, 67, 95
2, 3600, Note_off_c, 0, 67, 95
2, 3600, Note_on_c, 0, 64, 95
2, 3840, Note_off_c, 0, 64, 95
2, 3840, Note_on_c, 0, 62, 95
2, 4320, Note_off_c, 0, 62, 95
2, 4320, Note_on_c, 1, 64, 95
2, 4480, Pitch_bend_c, 1, 8192
2, 4640, Pitch_bend_c, 1, 8320
2, 4800, Pitch_bend_c, 1, 8192
2, 4960, Pitch_bend_c, 1, 8320
2, 5120, Pitch_bend_c, 1, 8192
2, 5280, Pitch_bend_c, 1, 8320
2, 5440, Pitch_bend_c, 1, 8192
2, 5600, Pitch_bend_c, 1, 8320
2, 5760, Pitch_bend_c, 1, 8192
2, 5760, Pitch_bend_c, 1, 8320
2, 5760, Pitch_bend_c, 1, 8192
2, 5760, Note_off_c, 1, 64, 95
2, 5760, Note_on_c, 1, 73, 95
2, 6480, Note_off_c, 1, 73, 95
2, 6480, Note_on_c, 0, 69, 95
2, 6720, Note_off_c, 0, 69, 95
2, 6720, Note_on_c, 0, 64, 95
2, 7200, Note_off_c, 0, 64, 95
2, 7200, Note_on_c, 1, 73, 95
2, 7920, Note_off_c, 1, 73, 95
2, 7920, Note_on_c, 0, 69, 95
2, 8160, Note_off_c, 0, 69, 95
2, 8160, Note_on_c, 0, 64, 95
2, 8640, Note_off_c, 0, 64, 95
2, 8640, Note_on_c, 1, 64, 95
2, 8760, Pitch_bend_c, 1, 7936
2, 8880, Pitch_bend_c, 1, 7552
2, 9000, Pitch_bend_c, 1, 7168
2, 9120, Pitch_bend_c, 1, 6784
2, 9120, Pitch_bend_c, 1, 8192
2, 9120, Note_off_c, 1, 64, 95
2, 9120, Note_on_c, 0, 62, 95
2, 10080, Note_off_c, 0, 62, 95
2, 10080, Note_on_c, 1, 61, 95
2, 10200, Pitch_bend_c, 1, 8192
2, 10320, Pitch_bend_c, 1, 8320
2, 10440, Pitch_bend_c, 1, 8448
2, 10560, Pitch_bend_c, 1, 8448
2, 10680, Pitch_bend_c, 1, 8576
2, 10800, Pitch_bend_c, 1, 8704
2, 10920, Pitch_bend_c, 1, 8704
2, 11040, Pitch_bend_c, 1, 8832
2, 11040, Pitch_bend_c, 1, 8192
2, 11040, Note_off_c, 1, 61, 95
2, 11040, Note_on_c, 0, 62, 95
2, 11520, Note_off_c, 0, 62, 95
2, 11520, Note_on_c, 1, 57, 95
2, 11680, Pitch_bend_c, 1, 8192
2, 11840, Pitch_bend_c, 1, 8320
2, 12000, Pitch_bend_c, 1, 8192
2, 12160, Pitch_bend_c, 1, 8320
2, 12320, Pitch_bend_c, 1, 8192
2, 12480, Pitch_bend_c, 1, 8320
2, 12640, Pitch_bend_c, 1, 8192
2, 12800, Pitch_bend_c, 1, 8320
2, 12960, Pitch_bend_c, 1, 8192
2, 12960, Pitch_bend_c, 1, 8320
2, 12960, Pitch_bend_c, 1, 8192
2, 12960, Note_off_c, 1, 57, 95
2, 12960, Note_on_c, 1, 60, 95
2, 13080, Pitch_bend_c, 1, 8448
2, 13200, Pitch_bend_c, 1, 8832
2, 13200, Pitch_bend_c, 1, 8192
2, 13200, Note_off_c, 1, 60, 95
2, 13200, Note_on_c, 0, 61, 95
2, 13680, Note_off_c, 0, 61, 95
2, 13680, Note_on_c, 0, 57, 95
2, 13920, Note_off_c, 0, 57, 95
2, 13920, Note_on_c, 1, 60, 95
2, 14040, Pitch_bend_c, 1, 8448
2, 14160, Pitch_bend_c, 1, 8832
2, 14160, Pitch_bend_c, 1, 8192
2, 14160, Note_off_c, 1, 60, 95
2, 14160, Note_on_c, 0, 61, 95
2, 14400, Note_off_c, 0, 61, 95
2, 14400, Note_on_c, 0, 57, 95
2, 14880, Note_off_c, 0, 57, 95
2, 14880, Note_on_c, 0, 52, 95
2, 15360, Note_off_c, 0, 52, 95
2, 15360, Note_on_c, 0, 51, 95
2, 15840, Note_off_c, 0, 51, 95
2, 15840, Note_on_c, 0, 50, 95
2, 16160, Note_off_c, 0, 50, 95
2, 16160, Note_on_c, 0, 48, 95
2, 16480, Note_off_c, 0, 48, 95
2, 16480, Note_on_c, 0, 45, 95
2, 17280, Note_off_c, 0, 45, 95
2, 17280, Note_on_c, 1, 57, 95
2, 17440, Pitch_bend_c, 1, 8192
2, 17600, Pitch_bend_c, 1, 8320
2, 17760, Pitch_bend_c, 1, 8192
2, 17920, Pitch_bend_c, 1, 8320
2, 18080, Pitch_bend_c, 1, 8192
2, 18240, Pitch_bend_c, 1, 8320
2, 18400, Pitch_bend_c, 1, 8192
2, 18560, Pitch_bend_c, 1, 8320
2, 18720, Pitch_bend_c, 1, 8192
2, 18720, Pitch_bend_c, 1, 8320
2, 18720, Pitch_bend_c, 1, 8192
2, 18720, Note_off_c, 1, 57, 95
2, 19200, Note_on_c, 1, 61, 95
2, 19680, Note_off_c, 1, 61, 95
2, 19680, Note_on_c, 0, 64, 95
2, 20160, Note_off_c, 0, 64, 95
2, 20160, Note_on_c, 0, 52, 95
2, 21600, Note_off_c, 0, 52, 95
2, 21600, Note_on_c, 1, 50, 95
2, 22560, Note_off_c, 1, 50, 95
2, 23040, Note_on_c, 0, 52, 95
2, 23040, Note_on_c, 0, 45, 95
2, 24000, Note_off_c, 0, 52, 95
2, 24000, Note_off_c, 0, 45, 95
2, 24000, Note_on_c, 0, 52, 95
2, 24000, Note_on_c, 0, 45, 95
2, 24480, Note_off_c, 0, 52, 95
2, 24480, Note_off_c, 0, 45, 95
2, 24480, Note_on_c, 0, 55, 95
2, 24480, Note_on_c, 0, 45, 95
2, 25440, Note_off_c, 0, 55, 95
2, 25440, Note_off_c, 0, 45, 95
2, 25440, Note_on_c, 0, 55, 95
2, 25440, Note_on_c, 0, 45, 95
2, 25920, Note_off_c, 0, 55, 95
2, 25920, Note_off_c, 0, 45, 95
2, 25920, Note_on_c, 0, 54, 95
2, 25920, Note_on_c, 0, 45, 95
2, 26880, Note_off_c, 0, 54, 95
2, 26880, Note_off_c, 0, 45, 95
2, 26880, Note_on_c, 0, 54, 95
2, 26880, Note_on_c, 0, 45, 95
2, 27360, Note_off_c, 0, 54, 95
2, 27360, Note_off_c, 0, 45, 95
2, 27360, Note_on_c, 0, 52, 95
2, 27360, Note_on_c, 0, 45, 95
2, 28320, Note_off_c, 0, 52, 95
2, 28320, Note_off_c, 0, 45, 95
2, 28320, Pitch_bend_c, 1, 8192
2, 28320, Note_on_c, 1, 48, 95
2, 28440, Pitch_bend_c, 1, 8320
2, 28560, Pitch_bend_c, 1, 8448
2, 28560, Pitch_bend_c, 1, 8448
2, 28800, Pitch_bend_c, 1, 8448
2, 28800, Pitch_bend_c, 1, 8192
2, 28800, Note_off_c, 1, 48, 95
2, 28800, Note_on_c, 0, 45, 95
2, 29760, Note_off_c, 0, 45, 95
2, 30240, Note_on_c, 0, 60, 95
2, 30240, Note_on_c, 0, 55, 95
2, 30240, Note_on_c, 0, 45, 95
2, 31200, Note_off_c, 0, 60, 95
2, 31200, Note_off_c, 0, 55, 95
2, 31200, Note_off_c, 0, 45, 95
2, 31200, Note_on_c, 0, 60, 95
2, 31200, Note_on_c, 0, 55, 95
2, 31200, Note_on_c, 0, 45, 95
2, 31680, Note_off_c, 0, 60, 95
2, 31680, Note_off_c, 0, 55, 95
2, 31680, Note_off_c, 0, 45, 95
2, 31680, Note_on_c, 0, 59, 95
2, 31680, Note_on_c, 0, 54, 95
2, 31680, Note_on_c, 0, 45, 95
2, 32640, Note_off_c, 0, 59, 95
2, 32640, Note_off_c, 0, 54, 95
2, 32640, Note_off_c, 0, 45, 95
2, 32640, Note_on_c, 0, 59, 95
2, 32640, Note_on_c, 0, 54, 95
2, 32640, Note_on_c, 0, 45, 95
2, 33120, Note_off_c, 0, 59, 95
2, 33120, Note_off_c, 0, 54, 95
2, 33120, Note_off_c, 0, 45, 95
2, 33120, Note_on_c, 0, 57, 95
2, 33120, Note_on_c, 0, 52, 95
2, 33120, Note_on_c, 0, 45, 95
2, 34080, Note_off_c, 0, 57, 95
2, 34080, Note_off_c, 0, 52, 95
2, 34080, Note_off_c, 0, 45, 95
2, 34080, Note_on_c, 1, 57, 95
2, 34080, Note_on_c, 1, 45, 95
2, 34200, Pitch_bend_c, 1, 7424
2, 34200, Pitch_bend_c, 1, 8192
2, 34320, Pitch_bend_c, 1, 6528
2, 34320, Pitch_bend_c, 1, 8192
2, 34440, Pitch_bend_c, 1, 5632
2, 34440, Pitch_bend_c, 1, 8192
2, 34560, Pitch_bend_c, 1, 4736
2, 34560, Pitch_bend_c, 1, 8192
2, 34560, Note_off_c, 1, 57, 95
2, 34560, Pitch_bend_c, 1, 8192
2, 34560, Pitch_bend_c, 1, 8192
2, 34560, Note_off_c, 1, 45, 95
2, 34560, Note_on_c, 0, 52, 95
2, 34560, Note_on_c, 0, 45, 95
2, 35520, Note_off_c, 0, 52, 95
2, 35520, Note_off_c, 0, 45, 95
2, 36000, Note_on_c, 1, 73, 95
2, 36120, Pitch_bend_c, 1, 8192
2, 36240, Pitch_bend_c, 1, 8192
2, 36360, Pitch_bend_c, 1, 8192
2, 36480, Pitch_bend_c, 1, 8192
2, 36480, Pitch_bend_c, 1, 8192
2, 36480, Note_off_c, 1, 73, 95
2, 36480, Note_on_c, 0, 73, 95
2, 36960, Note_off_c, 0, 73, 95
2, 36960, Note_on_c, 0, 73, 95
2, 37440, Note_off_c, 0, 73, 95
2, 37440, Note_on_c, 1, 73, 95
2, 37920, Note_off_c, 1, 73, 95
2, 37920, Note_on_c, 0, 76, 95
2, 38400, Note_off_c, 0, 76, 95
2, 38400, Note_on_c, 0, 73, 95
2, 38880, Note_off_c, 0, 73, 95
2, 38880, Note_on_c, 1, 73, 95
2, 39000, Pitch_bend_c, 1, 7936
2, 39120, Pitch_bend_c, 1, 7552
2, 39240, Pitch_bend_c, 1, 7168
2, 39360, Pitch_bend_c, 1, 6784
2, 39360, Pitch_bend_c, 1, 8192
2, 39360, Note_off_c, 1, 73, 95
2, 39360, Note_on_c, 1, 71, 95
2, 39840, Note_off_c, 1, 71, 95
2, 39840, Note_on_c, 0, 69, 95
2, 40080, Note_off_c, 0, 69, 95
2, 40080, Note_on_c, 0, 64, 95
2, 40320, Note_off_c, 0, 64, 95
2, 40320, Note_on_c, 1, 69, 95
2, 40480, Pitch_bend_c, 1, 8192
2, 40640, Pitch_bend_c, 1, 8320
2, 40800, Pitch_bend_c, 1, 8192
2, 40960, Pitch_bend_c, 1, 8320
2, 41120, Pitch_bend_c, 1, 8192
2, 41280, Pitch_bend_c, 1, 8320
2, 41440, Pitch_bend_c, 1, 8192
2, 41600, Pitch_bend_c, 1, 8320
2, 41760, Pitch_bend_c, 1, 8192
2, 41760, Pitch_bend_c, 1, 8320
2, 41760, Pitch_bend_c, 1, 8192
2, 41760, Note_off_c, 1, 69, 95
2, 41760, Note_on_c, 1, 67, 95
2, 41920, Pitch_bend_c, 1, 8192
2, 42080, Pitch_bend_c, 1, 8320
2, 42240, Pitch_bend_c, 1, 8192
2, 42400, Pitch_bend_c, 1, 8320
2, 42480, Pitch_bend_c, 1, 8192
2, 42480, Pitch_bend_c, 1, 8320
2, 42480, Pitch_bend_c, 1, 8192
2, 42480, Note_off_c, 1, 67, 95
2, 42480, Note_on_c, 0, 64, 95
2, 42720, Note_off_c, 0, 64, 95
2, 42720, Note_on_c, 0, 67, 95
2, 43200, Note_off_c, 0, 67, 95
2, 43200, Note_on_c, 0, 67, 95
2, 44160, Note_off_c, 0, 67, 95
2, 44160, Note_on_c, 1, 69, 95
2, 44640, Note_off_c, 1, 69, 95
2, 44640, Note_on_c, 0, 45, 95
2, 45360, Note_off_c, 0, 45, 95
2, 45360, Note_on_c, 1, 49, 95
2, 45480, Pitch_bend_c, 1, 8192
2, 45600, Pitch_bend_c, 1, 8192
2, 45600, Pitch_bend_c, 1, 8192
2, 46080, Note_off_c, 1, 49, 95
2, 46080, Note_on_c, 0, 50, 95
2, 47040, Note_off_c, 0, 50, 95
2, 47520, Note_on_c, 0, 60, 95
2, 47520, Note_on_c, 0, 50, 95
2, 48480, Note_off_c, 0, 60, 95
2, 48480, Note_off_c, 0, 50, 95
2, 48480, Note_on_c, 0, 60, 95
2, 48480, Note_on_c, 0, 50, 95
2, 48960, Note_off_c, 0, 60, 95
2, 48960, Note_off_c, 0, 50, 95
2, 48960, Note_on_c, 0, 59, 95
2, 48960, Note_on_c, 0, 50, 95
2, 49920, Note_off_c, 0, 59, 95
2, 49920, Note_off_c, 0, 50, 95
2, 49920, Note_on_c, 0, 59, 95
2, 49920, Note_on_c, 0, 50, 95
2, 50400, Note_off_c, 0, 59, 95
2, 50400, Note_off_c, 0, 50, 95
2, 50400, Note_on_c, 0, 57, 95
2, 50400, Note_on_c, 0, 50, 95
2, 51360, Note_off_c, 0, 57, 95
2, 51360, Note_off_c, 0, 50, 95
2, 51360, Pitch_bend_c, 1, 8192
2, 51360, Note_on_c, 1, 48, 95
2, 51480, Pitch_bend_c, 1, 8320
2, 51600, Pitch_bend_c, 1, 8448
2, 51600, Pitch_bend_c, 1, 8448
2, 51840, Pitch_bend_c, 1, 8448
2, 51840, Pitch_bend_c, 1, 8192
2, 51840, Note_off_c, 1, 48, 95
2, 51840, Note_on_c, 0, 50, 95
2, 52800, Note_off_c, 0, 50, 95
2, 52800, Note_on_c, 0, 57, 95
2, 52800, Note_on_c, 0, 50, 95
2, 53280, Note_off_c, 0, 57, 95
2, 53280, Note_off_c, 0, 50, 95
2, 53280, Note_on_c, 0, 60, 95
2, 53280, Note_on_c, 0, 50, 95
2, 54240, Note_off_c, 0, 60, 95
2, 54240, Note_off_c, 0, 50, 95
2, 54240, Note_on_c, 0, 60, 95
2, 54240, Note_on_c, 0, 50, 95
2, 54720, Note_off_c, 0, 60, 95
2, 54720, Note_off_c, 0, 50, 95
2, 54720, Note_on_c, 0, 59, 95
2, 54720, Note_on_c, 0, 50, 95
2, 55680, Note_off_c, 0, 59, 95
2, 55680, Note_off_c, 0, 50, 95
2, 55680, Note_on_c, 0, 59, 95
2, 55680, Note_on_c, 0, 50, 95
2, 56160, Note_off_c, 0, 59, 95
2, 56160, Note_off_c, 0, 50, 95
2, 56160, Note_on_c, 0, 57, 95
2, 56160, Note_on_c, 0, 50, 95
2, 57120, Note_off_c, 0, 57, 95
2, 57120, Note_off_c, 0, 50, 95
2, 57120, Note_on_c, 0, 55, 95
2, 57360, Note_off_c, 0, 55, 95
2, 57360, Note_on_c, 0, 57, 70
2, 57600, Note_off_c, 0, 57, 70
2, 57600, Note_on_c, 0, 52, 95
2, 57600, Note_on_c, 0, 45, 95
2, 58560, Note_off_c, 0, 52, 95
2, 58560, Note_off_c, 0, 45, 95
2, 58560, Note_on_c, 0, 52, 95
2, 59040, Note_off_c, 0, 52, 95
2, 59040, Note_on_c, 1, 73, 95
2, 59160, Pitch_bend_c, 1, 8192
2, 59280, Pitch_bend_c, 1, 8192
2, 59400, Pitch_bend_c, 1, 8192
2, 59520, Pitch_bend_c, 1, 8192
2, 59640, Pitch_bend_c, 1, 8192
2, 59760, Pitch_bend_c, 1, 8192
2, 59880, Pitch_bend_c, 1, 8192
2, 60000, Pitch_bend_c, 1, 8192
2, 60000, Pitch_bend_c, 1, 8192
2, 60000, Note_off_c, 1, 73, 95
2, 60000, Note_on_c, 0, 73, 95
2, 60480, Note_off_c, 0, 73, 95
2, 60480, Note_on_c, 1, 73, 95
2, 61200, Note_off_c, 1, 73, 95
2, 61200, Note_on_c, 0, 76, 95
2, 61440, Note_off_c, 0, 76, 95
2, 61440, Note_on_c, 0, 73, 95
2, 61920, Note_off_c, 0, 73, 95
2, 61920, Note_on_c, 1, 73, 95
2, 62040, Pitch_bend_c, 1, 7552
2, 62160, Pitch_bend_c, 1, 6784
2, 62160, Pitch_bend_c, 1, 8192
2, 62160, Note_off_c, 1, 73, 95
2, 62160, Note_on_c, 0, 71, 95
2, 62400, Note_off_c, 0, 71, 95
2, 62400, Note_on_c, 0, 69, 95
2, 62880, Note_off_c, 0, 69, 95
2, 62880, Note_on_c, 0, 64, 95
2, 63360, Note_off_c, 0, 64, 95
2, 63360, Note_on_c, 1, 69, 95
2, 63520, Pitch_bend_c, 1, 8192
2, 63680, Pitch_bend_c, 1, 8320
2, 63840, Pitch_bend_c, 1, 8192
2, 64000, Pitch_bend_c, 1, 8320
2, 64160, Pitch_bend_c, 1, 8192
2, 64320, Pitch_bend_c, 1, 8320
2, 64480, Pitch_bend_c, 1, 8192
2, 64640, Pitch_bend_c, 1, 8320
2, 64800, Pitch_bend_c, 1, 8192
2, 64800, Pitch_bend_c, 1, 8320
2, 64800, Pitch_bend_c, 1, 8192
2, 64800, Note_off_c, 1, 69, 95
2, 64800, Note_on_c, 0, 67, 95
2, 65280, Note_off_c, 0, 67, 95
2, 65280, Note_on_c, 0, 64, 95
2, 65760, Note_off_c, 0, 64, 95
2, 65760, Note_on_c, 1, 64, 95
2, 65880, Pitch_bend_c, 1, 7552
2, 66000, Pitch_bend_c, 1, 6784
2, 66000, Pitch_bend_c, 1, 8192
2, 66000, Note_off_c, 1, 64, 95
2, 66000, Note_on_c, 0, 62, 95
2, 66240, Note_off_c, 0, 62, 95
2, 66240, Note_on_c, 1, 61, 95
2, 66400, Pitch_bend_c, 1, 8192
2, 66560, Pitch_bend_c, 1, 8320
2, 66720, Pitch_bend_c, 1, 8192
2, 66880, Pitch_bend_c, 1, 8320
2, 67040, Pitch_bend_c, 1, 8192
2, 67200, Pitch_bend_c, 1, 8320
2, 67200, Pitch_bend_c, 1, 8192
2, 67200, Note_off_c, 1, 61, 95
2, 67200, Note_on_c, 0, 57, 95
2, 67680, Note_off_c, 0, 57, 95
2, 67680, Note_on_c, 0, 61, 95
2, 68160, Note_off_c, 0, 61, 95
2, 68160, Note_on_c, 0, 62, 95
2, 68640, Note_off_c, 0, 62, 95
2, 68640, Note_on_c, 1, 61, 95
2, 69120, Note_off_c, 1, 61, 95
2, 69120, Note_on_c, 1, 52, 95
2, 69280, Pitch_bend_c, 1, 8192
2, 69440, Pitch_bend_c, 1, 8320
2, 69600, Pitch_bend_c, 1, 8192
2, 69760, Pitch_bend_c, 1, 8320
2, 69920, Pitch_bend_c, 1, 8192
2, 70080, Pitch_bend_c, 1, 8320
2, 70080, Pitch_bend_c, 1, 8192
2, 70080, Note_off_c, 1, 52, 95
2, 70080, Note_on_c, 0, 52, 95
2, 70560, Note_off_c, 0, 52, 95
2, 70560, Note_on_c, 0, 64, 95
2, 71040, Note_off_c, 0, 64, 95
2, 71040, Note_on_c, 0, 62, 95
2, 71520, Note_off_c, 0, 62, 95
2, 71520, Note_on_c, 0, 64, 95
2, 72000, Note_off_c, 0, 64, 95
2, 72000, Note_on_c, 0, 64, 95
2, 72960, Note_off_c, 0, 64, 95
2, 72960, Note_on_c, 0, 64, 95
2, 72960, Note_on_c, 0, 52, 95
2, 73440, Note_off_c, 0, 64, 95
2, 73440, Note_off_c, 0, 52, 95
2, 73440, Note_on_c, 0, 64, 95
2, 73440, Note_on_c, 0, 52, 95
2, 73920, Note_off_c, 0, 64, 95
2, 73920, Note_off_c, 0, 52, 95
2, 73920, Note_on_c, 0, 40, 95
2, 74400, Note_off_c, 0, 40, 95
2, 74400, Note_on_c, 0, 41, 95
2, 74880, Note_off_c, 0, 41, 95
2, 74880, Note_on_c, 0, 42, 95
2, 75840, Note_off_c, 0, 42, 95
2, 75840, Note_on_c, 0, 66, 95
2, 76320, Note_off_c, 0, 66, 95
2, 76320, Note_on_c, 0, 66, 95
2, 76800, Note_off_c, 0, 66, 95
2, 76800, Note_on_c, 0, 60, 95
2, 77280, Note_off_c, 0, 60, 95
2, 77280, Note_on_c, 0, 57, 95
2, 77760, Note_off_c, 0, 57, 95
2, 77760, Note_on_c, 0, 60, 95
2, 78240, Note_off_c, 0, 60, 95
2, 78240, Note_on_c, 0, 66, 95
2, 78720, Note_off_c, 0, 66, 95
2, 78720, Note_on_c, 0, 60, 95
2, 79200, Note_off_c, 0, 60, 95
2, 79200, Note_on_c, 0, 66, 95
2, 79200, Note_on_c, 0, 60, 95
2, 79200, Note_on_c, 0, 52, 95
2, 80160, Note_off_c, 0, 66, 95
2, 80160, Note_off_c, 0, 60, 95
2, 80160, Note_off_c, 0, 52, 95
2, 80160, Note_on_c, 0, 61, 95
2, 80160, Note_on_c, 1, 57, 95
2, 80640, Note_off_c, 0, 61, 95
2, 80640, Note_off_c, 1, 57, 95
2, 80640, Note_on_c, 0, 45, 95
2, 81600, Note_off_c, 0, 45, 95
2, 81600, Note_on_c, 0, 45, 95
2, 82080, Note_off_c, 0, 45, 95
2, 82080, Note_on_c, 0, 60, 95
2, 82320, Note_off_c, 0, 60, 95
2, 82320, Note_on_c, 0, 57, 70
2, 82560, Note_off_c, 0, 57, 70
2, 82560, Note_on_c, 1, 57, 95
2, 82680, Pitch_bend_c, 1, 8192
2, 82800, Pitch_bend_c, 1, 8192
2, 82920, Pitch_bend_c, 1, 8192
2, 83040, Pitch_bend_c, 1, 8192
2, 83040, Pitch_bend_c, 1, 8192
2, 83040, Note_off_c, 1, 57, 95
2, 83040, Note_on_c, 1, 57, 95
2, 83160, Pitch_bend_c, 1, 8192
2, 83280, Pitch_bend_c, 1, 8192
2, 83400, Pitch_bend_c, 1, 8192
2, 83520, Pitch_bend_c, 1, 8192
2, 83520, Pitch_bend_c, 1, 8192
2, 83520, Note_off_c, 1, 57, 95
2, 83520, Note_on_c, 1, 57, 95
2, 83640, Pitch_bend_c, 1, 7936
2, 83760, Pitch_bend_c, 1, 7552
2, 83880, Pitch_bend_c, 1, 7168
2, 84000, Pitch_bend_c, 1, 6784
2, 84000, Pitch_bend_c, 1, 8192
2, 84000, Note_off_c, 1, 57, 95
2, 84000, Note_on_c, 0, 55, 95
2, 84480, Note_off_c, 0, 55, 95
2, 84480, Note_on_c, 0, 52, 95
2, 84960, Note_off_c, 0, 52, 95
2, 84960, Note_on_c, 0, 51, 95
2, 85200, Note_off_c, 0, 51, 95
2, 85200, Note_on_c, 0, 50, 70
2, 85680, Note_off_c, 0, 50, 70
2, 85680, Note_on_c, 0, 48, 95
2, 85920, Note_off_c, 0, 48, 95
2, 85920, Note_on_c, 0, 45, 95
2, 86400, Note_off_c, 0, 45, 95
2, 86400, Note_on_c, 0, 57, 95
2, 86400, Note_on_c, 0, 45, 95
2, 87360, Note_off_c, 0, 57, 95
2, 87360, Note_off_c, 0, 45, 95
2, 87360, Note_on_c, 0, 40, 95
2, 87840, Note_off_c, 0, 40, 95
2, 87840, Note_on_c, 1, 55, 95
2, 87840, Note_on_c, 0, 40, 95
2, 87960, Pitch_bend_c, 1, 8448
2, 88080, Pitch_bend_c, 1, 8832
2, 88080, Pitch_bend_c, 1, 8192
2, 88080, Note_off_c, 1, 55, 95
2, 88080, Note_off_c, 0, 40, 95
2, 88080, Note_on_c, 0, 56, 95
2, 88320, Note_off_c, 0, 56, 95
2, 88320, Note_on_c, 0, 64, 95
2, 88320, Note_on_c, 0, 63, 95
2, 88800, Note_off_c, 0, 64, 95
2, 88800, Note_off_c, 0, 63, 95
2, 88800, Note_on_c, 0, 62, 95
2, 88800, Note_on_c, 0, 40, 95
2, 89280, Note_off_c, 0, 62, 95
2, 89280, Note_off_c, 0, 40, 95
2, 89280, Note_on_c, 0, 64, 95
2, 89280, Note_on_c, 0, 62, 95
2, 89280, Note_on_c, 0, 59, 95
2, 89280, Note_on_c, 0, 40, 95
2, 90240, Note_off_c, 0, 64, 95
2, 90240, Note_off_c, 0, 62, 95
2, 90240, Note_off_c, 0, 59, 95
2, 90240, Note_off_c, 0, 40, 95
2, 90240, Note_on_c, 0, 64, 95
2, 90240, Note_on_c, 0, 62, 95
2, 90240, Note_on_c, 0, 59, 95
2, 90240, Note_on_c, 0, 40, 95
2, 90720, Note_off_c, 0, 64, 95
2, 90720, Note_off_c, 0, 62, 95
2, 90720, Note_off_c, 0, 59, 95
2, 90720, Note_off_c, 0, 40, 95
2, 90720, Note_on_c, 0, 40, 95
2, 91680, Note_off_c, 0, 40, 95
2, 91680, Note_on_c, 0, 57, 95
2, 91680, Note_on_c, 0, 52, 95
2, 91680, Note_on_c, 0, 45, 95
2, 92160, Note_off_c, 0, 57, 95
2, 92160, Note_off_c, 0, 52, 95
2, 92160, Note_off_c, 0, 45, 95
2, 92160, Note_on_c, 0, 57, 95
2, 92160, Note_on_c, 0, 52, 95
2, 92160, Note_on_c, 0, 45, 95
2, 93120, Note_off_c, 0, 57, 95
2, 93120, Note_off_c, 0, 52, 95
2, 93120, Note_off_c, 0, 45, 95
2, 93120, Note_on_c, 0, 45, 95
2, 93600, Note_off_c, 0, 45, 95
2, 93600, Note_on_c, 0, 55, 95
2, 93600, Note_on_c, 0, 45, 95
2, 94560, Note_off_c, 0, 55, 95
2, 94560, Note_off_c, 0, 45, 95
2, 94560, Note_on_c, 0, 55, 95
2, 94560, Note_on_c, 0, 45, 95
2, 95040, Note_off_c, 0, 55, 95
2, 95040, Note_off_c, 0, 45, 95
2, 95040, Note_on_c, 0, 59, 95
2, 95040, Note_on_c, 0, 54, 95
2, 95040, Note_on_c, 0, 45, 95
2, 96000, Note_off_c, 0, 59, 95
2, 96000, Note_off_c, 0, 54, 95
2, 96000, Note_off_c, 0, 45, 95
2, 96000, Note_on_c, 0, 59, 95
2, 96000, Note_on_c, 0, 54, 95
2, 96000, Note_on_c, 0, 45, 95
2, 96480, Note_off_c, 0, 59, 95
2, 96480, Note_off_c, 0, 54, 95
2, 96480, Note_off_c, 0, 45, 95
2, 96480, Note_on_c, 0, 57, 95
2, 96480, Note_on_c, 0, 52, 95
2, 96480, Note_on_c, 0, 45, 95
2, 97440, Note_off_c, 0, 57, 95
2, 97440, Note_off_c, 0, 52, 95
2, 97440, Note_off_c, 0, 45, 95
2, 97440, Note_on_c, 0, 52, 95
2, 97440, Note_on_c, 1, 46, 95
2, 97560, Pitch_bend_c, 1, 8064
2, 97680, Pitch_bend_c, 1, 7936
2, 97800, Pitch_bend_c, 1, 7680
2, 97920, Note_off_c, 0, 52, 95
2, 97920, Pitch_bend_c, 1, 7552
2, 97920, Pitch_bend_c, 1, 8192
2, 97920, Note_off_c, 1, 46, 95
2, 97920, Note_on_c, 0, 52, 95
2, 97920, Note_on_c, 0, 45, 95
2, 98880, Note_off_c, 0, 52, 95
2, 98880, Note_off_c, 0, 45, 95
2, 98880, Note_on_c, 0, 45, 95
2, 99360, Note_off_c, 0, 45, 95
2, 99360, Note_on_c, 0, 55, 95
2, 99360, Note_on_c, 0, 45, 95
2, 100320, Note_off_c, 0, 55, 95
2, 100320, Note_off_c, 0, 45, 95
2, 100320, Note_on_c, 0, 55, 95
2, 100320, Note_on_c, 0, 45, 95
2, 100800, Note_off_c, 0, 55, 95
2, 100800, Note_off_c, 0, 45, 95
2, 100800, Note_on_c, 0, 59, 95
2, 100800, Note_on_c, 0, 54, 95
2, 100800, Note_on_c, 0, 45, 95
2, 101760, Note_off_c, 0, 59, 95
2, 101760, Note_off_c, 0, 54, 95
2, 101760, Note_off_c, 0, 45, 95
2, 101760, Note_on_c, 0, 59, 95
2, 101760, Note_on_c, 0, 54, 95
2, 101760, Note_on_c, 0, 45, 95
2, 102240, Note_off_c, 0, 59, 95
2, 102240, Note_off_c, 0, 54, 95
2, 102240, Note_off_c, 0, 45, 95
2, 102240, Note_on_c, 0, 57, 95
2, 102240, Note_on_c, 0, 52, 95
2, 102240, Note_on_c, 0, 45, 95
2, 103200, Note_off_c, 0, 57, 95
2, 103200, Note_off_c, 0, 52, 95
2, 103200, Note_off_c, 0, 45, 95
2, 103200, Note_on_c, 1, 49, 95
2, 103320, Pitch_bend_c, 1, 7552
2, 103440, Pitch_bend_c, 1, 6784
2, 103560, Pitch_bend_c, 1, 6144
2, 103680, Pitch_bend_c, 1, 5376
2, 103680, Pitch_bend_c, 1, 8192
2, 103680, Note_off_c, 1, 49, 95
2, 103680, Note_on_c, 0, 52, 95
2, 103680, Note_on_c, 0, 45, 95
2, 104640, Note_off_c, 0, 52, 95
2, 104640, Note_off_c, 0, 45, 95
2, 104640, Note_on_c, 0, 45, 95
2, 105120, Note_off_c, 0, 45, 95
2, 105120, Note_on_c, 1, 73, 95
2, 105240, Pitch_bend_c, 1, 8192
2, 105360, Pitch_bend_c, 1, 8192
2, 105480, Pitch_bend_c, 1, 8192
2, 105600, Pitch_bend_c, 1, 8192
2, 105720, Pitch_bend_c, 1, 8192
2, 105840, Pitch_bend_c, 1, 8192
2, 105960, Pitch_bend_c, 1, 8192
2, 106080, Pitch_bend_c, 1, 8192
2, 106080, Pitch_bend_c, 1, 8192
2, 106080, Note_off_c, 1, 73, 95
2, 106080, Note_on_c, 0, 73, 95
2, 106560, Note_off_c, 0, 73, 95
2, 106560, Note_on_c, 1, 73, 95
2, 106680, Pitch_bend_c, 1, 8192
2, 106800, Pitch_bend_c, 1, 8192
2, 106920, Pitch_bend_c, 1, 8192
2, 107040, Pitch_bend_c, 1, 8192
2, 107040, Pitch_bend_c, 1, 8192
2, 107040, Note_off_c, 1, 73, 95
2, 107040, Note_on_c, 0, 73, 95
2, 107520, Note_off_c, 0, 73, 95
2, 107520, Note_on_c, 0, 73, 95
2, 108000, Note_off_c, 0, 73, 95
2, 108000, Note_on_c, 1, 73, 95
2, 108120, Pitch_bend_c, 1, 7552
2, 108240, Pitch_bend_c, 1, 6784
2, 108240, Pitch_bend_c, 1, 8192
2, 108240, Note_off_c, 1, 73, 95
2, 108240, Note_on_c, 0, 71, 95
2, 108480, Note_off_c, 0, 71, 95
2, 108480, Note_on_c, 0, 69, 95
2, 108960, Note_off_c, 0, 69, 95
2, 108960, Note_on_c, 0, 69, 95
2, 109440, Note_off_c, 0, 69, 95
2, 109440, Note_on_c, 0, 69, 95
2, 110880, Note_off_c, 0, 69, 95
2, 110880, Note_on_c, 0, 67, 95
2, 111600, Note_off_c, 0, 67, 95
2, 111600, Note_on_c, 0, 64, 95
2, 111840, Note_off_c, 0, 64, 95
2, 111840, Note_on_c, 0, 67, 95
2, 112320, Note_off_c, 0, 67, 95
2, 112320, Note_on_c, 1, 67, 95
2, 112480, Pitch_bend_c, 1, 8192
2, 112640, Pitch_bend_c, 1, 8320
2, 112800, Pitch_bend_c, 1, 8192
2, 112960, Pitch_bend_c, 1, 8320
2, 113120, Pitch_bend_c, 1, 8192
2, 113280, Pitch_bend_c, 1, 8320
2, 113440, Pitch_bend_c, 1, 8192
2, 113600, Pitch_bend_c, 1, 8320
2, 113760, Pitch_bend_c, 1, 8192
2, 113760, Pitch_bend_c, 1, 8320
2, 113760, Pitch_bend_c, 1, 8192
2, 113760, Note_off_c, 1, 67, 95
2, 113760, Note_on_c, 0, 64, 95
2, 114240, Note_off_c, 0, 64, 95
2, 114240, Note_on_c, 0, 61, 95
2, 114720, Note_off_c, 0, 61, 95
2, 114720, Note_on_c, 0, 62, 95
2, 115200, Note_off_c, 0, 62, 95
2, 115200, Note_on_c, 0, 50, 95
2, 115200, Note_on_c, 0, 45, 95
2, 116160, Note_off_c, 0, 50, 95
2, 116160, Note_off_c, 0, 45, 95
2, 116160, Note_on_c, 0, 62, 95
2, 116640, Note_off_c, 0, 62, 95
2, 116640, Note_on_c, 0, 60, 95
2, 116640, Note_on_c, 0, 50, 95
2, 117600, Note_off_c, 0, 60, 95
2, 117600, Note_off_c, 0, 50, 95
2, 117600, Note_on_c, 0, 60, 95
2, 117600, Note_on_c, 0, 50, 95
2, 118080, Note_off_c, 0, 60, 95
2, 118080, Note_off_c, 0, 50, 95
2, 118080, Note_on_c, 0, 59, 95
2, 118080, Note_on_c, 0, 50, 95
2, 119040, Note_off_c, 0, 59, 95
2, 119040, Note_off_c, 0, 50, 95
2, 119040, Note_on_c, 0, 59, 95
2, 119040, Note_on_c, 0, 50, 95
2, 119520, Note_off_c, 0, 59, 95
2, 119520, Note_off_c, 0, 50, 95
2, 119520, Note_on_c, 0, 57, 95
2, 119520, Note_on_c, 0, 50, 95
2, 120480, Note_off_c, 0, 57, 95
2, 120480, Note_off_c, 0, 50, 95
2, 120480, Note_on_c, 0, 48, 95
2, 120960, Note_off_c, 0, 48, 95
2, 120960, Note_on_c, 0, 57, 95
2, 120960, Note_on_c, 0, 50, 95
2, 121920, Note_off_c, 0, 57, 95
2, 121920, Note_off_c, 0, 50, 95
2, 121920, Note_on_c, 0, 50, 95
2, 122400, Note_off_c, 0, 50, 95
2, 122400, Note_on_c, 1, 65, 95
2, 122400, Note_on_c, 1, 60, 95
2, 122400, Note_on_c, 0, 50, 95
2, 122520, Pitch_bend_c, 1, 8192
2, 122520, Pitch_bend_c, 1, 8192
2, 122640, Pitch_bend_c, 1, 8192
2, 122640, Pitch_bend_c, 1, 8192
2, 122760, Pitch_bend_c, 1, 8192
2, 122760, Pitch_bend_c, 1, 8192
2, 122880, Pitch_bend_c, 1, 8192
2, 122880, Pitch_bend_c, 1, 8192
2, 123000, Pitch_bend_c, 1, 8192
2, 123000, Pitch_bend_c, 1, 8192
2, 123120, Pitch_bend_c, 1, 8192
2, 123120, Pitch_bend_c, 1, 8192
2, 123120, Note_off_c, 1, 65, 95
2, 123120, Pitch_bend_c, 1, 8192
2, 123120, Pitch_bend_c, 1, 8192
2, 123120, Note_off_c, 1, 60, 95
2, 123120, Note_off_c, 0, 50, 95
2, 123120, Note_on_c, 0, 65, 95
2, 123120, Note_on_c, 0, 60, 95
2, 123360, Note_off_c, 0, 65, 95
2, 123360, Note_off_c, 0, 60, 95
2, 123360, Note_on_c, 0, 65, 95
2, 123360, Note_on_c, 0, 60, 95
2, 123840, Note_off_c, 0, 65, 95
2, 123840, Note_off_c, 0, 60, 95
2, 123840, Note_on_c, 0, 64, 95
2, 123840, Note_on_c, 0, 59, 95
2, 123840, Note_on_c, 0, 50, 95
2, 124800, Note_off_c, 0, 64, 95
2, 124800, Note_off_c, 0, 59, 95
2, 124800, Note_off_c, 0, 50, 95
2, 124800, Note_on_c, 0, 64, 95
2, 124800, Note_on_c, 0, 59, 95
2, 124800, Note_on_c, 0, 50, 95
2, 125280, Note_off_c, 0, 64, 95
2, 125280, Note_off_c, 0, 59, 95
2, 125280, Note_off_c, 0, 50, 95
2, 125280, Note_on_c, 0, 57, 95
2, 125280, Note_on_c, 0, 50, 95
2, 126000, Note_off_c, 0, 57, 95
2, 126000, Note_off_c, 0, 50, 95
2, 126000, Note_on_c, 0, 57, 95
2, 126000, Note_on_c, 1, 55, 95
2, 126120, Pitch_bend_c, 1, 8832
2, 126240, Note_off_c, 0, 57, 95
2, 126240, Pitch_bend_c, 1, 9600
2, 126240, Pitch_bend_c, 1, 8192
2, 126240, Note_off_c, 1, 55, 95
2, 126240, Note_on_c, 0, 57, 95
2, 126720, Note_off_c, 0, 57, 95
2, 126720, Note_on_c, 0, 52, 95
2, 126720, Note_on_c, 0, 45, 95
2, 127680, Note_off_c, 0, 52, 95
2, 127680, Note_off_c, 0, 45, 95
2, 127680, Note_on_c, 0, 45, 95
2, 128160, Note_off_c, 0, 45, 95
2, 128160, Note_on_c, 1, 73, 95
2, 128880, Note_off_c, 1, 73, 95
2, 128880, Note_on_c, 0, 76, 95
2, 129120, Note_off_c, 0, 76, 95
2, 129120, Note_on_c, 0, 73, 95
2, 129600, Note_off_c, 0, 73, 95
2, 129600, Note_on_c, 1, 73, 95
2, 129720, Pitch_bend_c, 1, 7552
2, 129840, Pitch_bend_c, 1, 6784
2, 129840, Pitch_bend_c, 1, 8192
2, 129840, Note_off_c, 1, 73, 95
2, 129840, Note_on_c, 0, 71, 95
2, 130080, Note_off_c, 0, 71, 95
2, 130080, Note_on_c, 0, 69, 95
2, 130560, Note_off_c, 0, 69, 95
2, 130560, Note_on_c, 0, 64, 95
2, 131040, Note_off_c, 0, 64, 95
2, 131040, Note_on_c, 1, 73, 95
2, 131160, Pitch_bend_c, 1, 7552
2, 131280, Pitch_bend_c, 1, 6784
2, 131280, Pitch_bend_c, 1, 8192
2, 131280, Note_off_c, 1, 73, 95
2, 131280, Note_on_c, 0, 71, 95
2, 131520, Note_off_c, 0, 71, 95
2, 131520, Note_on_c, 0, 64, 95
2, 132000, Note_off_c, 0, 64, 95
2, 132000, Note_on_c, 1, 61, 95
2, 132480, Note_off_c, 1, 61, 95
2, 132480, Note_on_c, 1, 57, 95
2, 132640, Pitch_bend_c, 1, 8192
2, 132800, Pitch_bend_c, 1, 8320
2, 132960, Pitch_bend_c, 1, 8192
2, 133120, Pitch_bend_c, 1, 8320
2, 133280, Pitch_bend_c, 1, 8192
2, 133440, Pitch_bend_c, 1, 8320
2, 133600, Pitch_bend_c, 1, 8192
2, 133760, Pitch_bend_c, 1, 8320
2, 133920, Pitch_bend_c, 1, 8192
2, 133920, Pitch_bend_c, 1, 8320
2, 133920, Pitch_bend_c, 1, 8192
2, 133920, Note_off_c, 1, 57, 95
2, 133920, Note_on_c, 1, 62, 95
2, 134040, Pitch_bend_c, 1, 8832
2, 134160, Pitch_bend_c, 1, 9600
2, 134160, Pitch_bend_c, 1, 8192
2, 134160, Note_off_c, 1, 62, 95
2, 134160, Note_on_c, 0, 64, 95
2, 134400, Note_off_c, 0, 64, 95
2, 134400, Note_on_c, 0, 64, 95
2, 134880, Note_off_c, 0, 64, 95
2, 134880, Note_on_c, 0, 69, 95
2, 135360, Note_off_c, 0, 69, 95
2, 135360, Note_on_c, 1, 64, 95
2, 135480, Pitch_bend_c, 1, 7552
2, 135600, Pitch_bend_c, 1, 6784
2, 135600, Pitch_bend_c, 1, 8192
2, 135600, Note_off_c, 1, 64, 95
2, 135600, Note_on_c, 0, 62, 95
2, 135840, Note_off_c, 0, 62, 95
2, 135840, Note_on_c, 0, 61, 95
2, 136320, Note_off_c, 0, 61, 95
2, 136320, Note_on_c, 0, 62, 95
2, 136800, Note_off_c, 0, 62, 95
2, 136800, Note_on_c, 1, 61, 95
2, 136920, Pitch_bend_c, 1, 7936
2, 137040, Pitch_bend_c, 1, 7552
2, 137160, Pitch_bend_c, 1, 7168
2, 137280, Pitch_bend_c, 1, 6784
2, 137400, Pitch_bend_c, 1, 6528
2, 137520, Pitch_bend_c, 1, 6144
2, 137640, Pitch_bend_c, 1, 5760
2, 137760, Pitch_bend_c, 1, 5376
2, 137760, Pitch_bend_c, 1, 8192
2, 137760, Note_off_c, 1, 61, 95
2, 137760, Note_on_c, 0, 57, 95
2, 138240, Note_off_c, 0, 57, 95
2, 138240, Note_on_c, 0, 52, 95
2, 139200, Note_off_c, 0, 52, 95
2, 139200, Note_on_c, 0, 52, 95
2, 139680, Note_off_c, 0, 52, 95
2, 139680, Note_on_c, 0, 64, 95
2, 139680, Note_on_c, 0, 52, 95
2, 140160, Note_off_c, 0, 64, 95
2, 140160, Note_off_c, 0, 52, 95
2, 140160, Note_on_c, 0, 62, 95
2, 140160, Note_on_c, 0, 52, 95
2, 140640, Note_off_c, 0, 62, 95
2, 140640, Note_off_c, 0, 52, 95
2, 140640, Note_on_c, 0, 64, 95
2, 140640, Note_on_c, 0, 52, 95
2, 141120, Note_off_c, 0, 64, 95
2, 141120, Note_off_c, 0, 52, 95
2, 141120, Note_on_c, 0, 64, 95
2, 141120, Note_on_c, 0, 52, 95
2, 141600, Note_off_c, 0, 64, 95
2, 141600, Note_off_c, 0, 52, 95
2, 141600, Note_on_c, 0, 62, 95
2, 142080, Note_off_c, 0, 62, 95
2, 142080, Note_on_c, 0, 64, 95
2, 142080, Note_on_c, 0, 52, 95
2, 142560, Note_off_c, 0, 64, 95
2, 142560, Note_off_c, 0, 52, 95
2, 142560, Note_on_c, 1, 59, 95
2, 142560, Note_on_c, 1, 52, 95
2, 143040, Note_off_c, 1, 59, 95
2, 143040, Note_off_c, 1, 52, 95
2, 143040, Note_on_c, 0, 40, 95
2, 143520, Note_off_c, 0, 40, 95
2, 143520, Note_on_c, 0, 41, 95
2, 144000, Note_off_c, 0, 41, 95
2, 144000, Note_on_c, 0, 57, 95
2, 144000, Note_on_c, 0, 42, 95
2, 144960, Note_off_c, 0, 57, 95
2, 144960, Note_off_c, 0, 42, 95
2, 144960, Note_on_c, 0, 66, 95
2, 144960, Note_on_c, 0, 45, 95
2, 145440, Note_off_c, 0, 66, 95
2, 145440, Note_off_c, 0, 45, 95
2, 145440, Note_on_c, 0, 66, 95
2, 145440, Note_on_c, 0, 45, 95
2, 145920, Note_off_c, 0, 66, 95
2, 145920, Note_off_c, 0, 45, 95
2, 145920, Note_on_c, 0, 60, 95
2, 146400, Note_off_c, 0, 60, 95
2, 146400, Note_on_c, 0, 57, 95
2, 146880, Note_off_c, 0, 57, 95
2, 146880, Note_on_c, 0, 66, 95
2, 147360, Note_off_c, 0, 66, 95
2, 147360, Note_on_c, 0, 60, 95
2, 147840, Note_off_c, 0, 60, 95
2, 147840, Note_on_c, 0, 57, 95
2, 148320, Note_off_c, 0, 57, 95
2, 148320, Note_on_c, 0, 66, 95
2, 148320, Note_on_c, 0, 60, 95
2, 149280, Note_off_c, 0, 66, 95
2, 149280, Note_off_c, 0, 60, 95
2, 149280, Note_on_c, 0, 61, 95
2, 149280, Note_on_c, 0, 57, 95
2, 149280, Note_on_c, 0, 52, 95
2, 149760, Note_off_c, 0, 61, 95
2, 149760, Note_off_c, 0, 57, 95
2, 149760, Note_off_c, 0, 52, 95
2, 149760, Note_on_c, 0, 52, 95
2, 149760, Note_on_c, 0, 45, 95
2, 150720, Note_off_c, 0, 52, 95
2, 150720, Note_off_c, 0, 45, 95
2, 150720, Note_on_c, 0, 57, 95
2, 150720, Note_on_c, 0, 52, 95
2, 151200, Note_off_c, 0, 57, 95
2, 151200, Note_off_c, 0, 52, 95
2, 151200, Note_on_c, 1, 57, 95
2, 151320, Pitch_bend_c, 1, 7936
2, 151440, Pitch_bend_c, 1, 7552
2, 151560, Pitch_bend_c, 1, 7168
2, 151680, Pitch_bend_c, 1, 6784
2, 151680, Pitch_bend_c, 1, 8192
2, 151680, Note_off_c, 1, 57, 95
2, 151680, Note_on_c, 0, 55, 95
2, 152160, Note_off_c, 0, 55, 95
2, 152160, Note_on_c, 0, 52, 95
2, 152640, Note_off_c, 0, 52, 95
2, 152640, Note_on_c, 0, 51, 95
2, 152880, Note_off_c, 0, 51, 95
2, 152880, Note_on_c, 0, 50, 70
2, 154080, Note_off_c, 0, 50, 70
2, 154080, Note_on_c, 0, 48, 95
2, 154560, Note_off_c, 0, 48, 95
2, 154560, Note_on_c, 1, 49, 95
2, 154680, Pitch_bend_c, 1, 7552
2, 154800, Pitch_bend_c, 1, 6784
2, 154920, Pitch_bend_c, 1, 6144
2, 155040, Pitch_bend_c, 1, 5376
2, 155040, Pitch_bend_c, 1, 8192
2, 155040, Note_off_c, 1, 49, 95
2, 155040, Note_on_c, 0, 45, 95
2, 155520, Note_off_c, 0, 45, 95
2, 155520, Note_on_c, 0, 61, 95
2, 155520, Note_on_c, 0, 57, 95
2, 155520, Note_on_c, 0, 52, 95
2, 156960, Note_off_c, 0, 61, 95
2, 156960, Note_off_c, 0, 57, 95
2, 156960, Note_off_c, 0, 52, 95
2, 156960, Note_on_c, 0, 56, 95
2, 157080, Note_off_c, 0, 56, 95
2, 157080, Note_on_c, 0, 55, 95
2, 157200, Note_off_c, 0, 55, 95
2, 157200, Note_on_c, 0, 56, 95
2, 157320, Note_off_c, 0, 56, 95
2, 157320, Note_on_c, 0, 55, 95
2, 157439, Note_off_c, 0, 55, 95
2, 157440, Note_on_c, 0, 64, 95
2, 157920, Note_off_c, 0, 64, 95
2, 157920, Note_on_c, 0, 62, 95
2, 158400, Note_off_c, 0, 62, 95
2, 158400, Note_on_c, 0, 64, 95
2, 158400, Note_on_c, 0, 40, 95
2, 159360, Note_off_c, 0, 64, 95
2, 159360, Note_off_c, 0, 40, 95
2, 159360, Note_on_c, 0, 62, 95
2, 159360, Note_on_c, 0, 56, 95
2, 159840, Note_off_c, 0, 62, 95
2, 159840, Note_off_c, 0, 56, 95
2, 159840, Note_on_c, 0, 40, 95
2, 160800, Note_off_c, 0, 40, 95
2, 160800, Note_on_c, 0, 57, 95
2, 161280, Note_off_c, 0, 57, 95
2, 161280, Note_on_c, 1, 64, 95
2, 161400, Pitch_bend_c, 1, 8192
2, 161520, Pitch_bend_c, 1, 8192
2, 161640, Pitch_bend_c, 1, 8192
2, 161760, Pitch_bend_c, 1, 8192
2, 161760, Pitch_bend_c, 1, 8192
2, 161760, Note_off_c, 1, 64, 95
2, 161760, Note_on_c, 0, 64, 95
2, 162240, Note_off_c, 0, 64, 95
2, 162240, Note_on_c, 0, 64, 95
2, 162720, Note_off_c, 0, 64, 95
2, 162720, Note_on_c, 1, 64, 95
2, 162840, Pitch_bend_c, 1, 8192
2, 162960, Pitch_bend_c, 1, 8192
2, 163080, Pitch_bend_c, 1, 8192
2, 163200, Pitch_bend_c, 1, 8192
2, 163200, Pitch_bend_c, 1, 8192
2, 163200, Note_off_c, 1, 64, 95
2, 163200, Note_on_c, 0, 64, 95
2, 163680, Note_off_c, 0, 64, 95
2, 163680, Note_on_c, 0, 64, 95
2, 164160, Note_off_c, 0, 64, 95
2, 164160, Note_on_c, 1, 64, 95
2, 164280, Pitch_bend_c, 1, 8192
2, 164400, Pitch_bend_c, 1, 8192
2, 164520, Pitch_bend_c, 1, 8192
2, 164640, Pitch_bend_c, 1, 8192
2, 164640, Pitch_bend_c, 1, 8192
2, 164640, Note_off_c, 1, 64, 95
2, 164640, Note_on_c, 0, 64, 95
2, 165120, Note_off_c, 0, 64, 95
2, 165120, Note_on_c, 0, 64, 95
2, 165600, Note_off_c, 0, 64, 95
2, 165600, Note_on_c, 1, 64, 95
2, 165720, Pitch_bend_c, 1, 8192
2, 165840, Pitch_bend_c, 1, 8192
2, 165960, Pitch_bend_c, 1, 8192
2, 166080, Pitch_bend_c, 1, 8192
2, 166080, Pitch_bend_c, 1, 8192
2, 166080, Note_off_c, 1, 64, 95
2, 166080, Note_on_c, 0, 64, 95
2, 166560, Note_off_c, 0, 64, 95
2, 166560, Note_on_c, 0, 64, 95
2, 167040, Note_off_c, 0, 64, 95
2, 167040, Note_on_c, 1, 64, 95
2, 167160, Pitch_bend_c, 1, 8192
2, 167280, Pitch_bend_c, 1, 8192
2, 167400, Pitch_bend_c, 1, 8192
2, 167520, Pitch_bend_c, 1, 8192
2, 167520, Pitch_bend_c, 1, 8192
2, 167520, Note_off_c, 1, 64, 95
2, 167520, Note_on_c, 0, 64, 95
2, 168000, Note_off_c, 0, 64, 95
2, 168000, Note_on_c, 0, 64, 95
2, 168480, Note_off_c, 0, 64, 95
2, 168480, Note_on_c, 1, 64, 95
2, 168600, Pitch_bend_c, 1, 7552
2, 168720, Pitch_bend_c, 1, 6784
2, 168720, Pitch_bend_c, 1, 8192
2, 168720, Note_off_c, 1, 64, 95
2, 168720, Note_on_c, 0, 62, 95
2, 168960, Note_off_c, 0, 62, 95
2, 168960, Note_on_c, 1, 61, 95
2, 169080, Pitch_bend_c, 1, 7552
2, 169200, Pitch_bend_c, 1, 6784
2, 169320, Pitch_bend_c, 1, 6144
2, 169440, Pitch_bend_c, 1, 5376
2, 169440, Pitch_bend_c, 1, 8192
2, 169440, Note_off_c, 1, 61, 95
2, 169440, Note_on_c, 0, 57, 95
2, 169920, Note_off_c, 0, 57, 95
2, 169920, Note_on_c, 1, 57, 95
2, 170040, Pitch_bend_c, 1, 7936
2, 170160, Pitch_bend_c, 1, 7680
2, 170280, Pitch_bend_c, 1, 7424
2, 170400, Pitch_bend_c, 1, 7040
2, 170520, Pitch_bend_c, 1, 6784
2, 170640, Pitch_bend_c, 1, 6528
2, 170760, Pitch_bend_c, 1, 6144
2, 170880, Pitch_bend_c, 1, 5888
2, 171000, Pitch_bend_c, 1, 5632
2, 171120, Pitch_bend_c, 1, 5376
2, 171240, Pitch_bend_c, 1, 4992
2, 171360, Pitch_bend_c, 1, 4736
2, 171360, Pitch_bend_c, 1, 8192
2, 171360, Note_off_c, 1, 57, 95
2, 171360, Note_on_c, 0, 52, 95
2, 171360, Note_on_c, 0, 45, 95
2, 171840, Note_off_c, 0, 52, 95
2, 171840, Note_off_c, 0, 45, 95
2, 171840, Note_on_c, 0, 40, 95
2, 172320, Note_off_c, 0, 40, 95
2, 172320, Note_on_c, 0, 45, 95
2, 172800, Note_off_c, 0, 45, 95
2, 172800, Note_on_c, 1, 64, 95
2, 172920, Pitch_bend_c, 1, 8192
2, 173040, Pitch_bend_c, 1, 8192
2, 173160, Pitch_bend_c, 1, 8192
2, 173280, Pitch_bend_c, 1, 8192
2, 173280, Pitch_bend_c, 1, 8192
2, 173280, Note_off_c, 1, 64, 95
2, 173280, Note_on_c, 0, 64, 95
2, 173760, Note_off_c, 0, 64, 95
2, 173760, Note_on_c, 0, 64, 95
2, 174240, Note_off_c, 0, 64, 95
2, 174240, Note_on_c, 1, 64, 95
2, 174360, Pitch_bend_c, 1, 8192
2, 174480, Pitch_bend_c, 1, 8192
2, 174600, Pitch_bend_c, 1, 8192
2, 174720, Pitch_bend_c, 1, 8192
2, 174720, Pitch_bend_c, 1, 8192
2, 174720, Note_off_c, 1, 64, 95
2, 174720, Note_on_c, 0, 64, 95
2, 175200, Note_off_c, 0, 64, 95
2, 175200, Note_on_c, 0, 64, 95
2, 175680, Note_off_c, 0, 64, 95
2, 175680, Note_on_c, 1, 64, 95
2, 175800, Pitch_bend_c, 1, 8192
2, 175920, Pitch_bend_c, 1, 8192
2, 176040, Pitch_bend_c, 1, 8192
2, 176160, Pitch_bend_c, 1, 8192
2, 176160, Pitch_bend_c, 1, 8192
2, 176160, Note_off_c, 1, 64, 95
2, 176160, Note_on_c, 0, 64, 95
2, 176640, Note_off_c, 0, 64, 95
2, 176640, Note_on_c, 0, 64, 95
2, 177120, Note_off_c, 0, 64, 95
2, 177120, Note_on_c, 1, 64, 95
2, 177240, Pitch_bend_c, 1, 8192
2, 177360, Pitch_bend_c, 1, 8192
2, 177480, Pitch_bend_c, 1, 8192
2, 177600, Pitch_bend_c, 1, 8192
2, 177600, Pitch_bend_c, 1, 8192
2, 177600, Note_off_c, 1, 64, 95
2, 177600, Note_on_c, 0, 64, 95
2, 178080, Note_off_c, 0, 64, 95
2, 178080, Note_on_c, 0, 64, 95
2, 178560, Note_off_c, 0, 64, 95
2, 178560, Note_on_c, 1, 67, 95
2, 178680, Pitch_bend_c, 1, 8192
2, 178800, Pitch_bend_c, 1, 8192
2, 178920, Pitch_bend_c, 1, 8192
2, 179040, Pitch_bend_c, 1, 8192
2, 179040, Pitch_bend_c, 1, 8192
2, 179040, Note_off_c, 1, 67, 95
2, 179040, Note_on_c, 0, 67, 95
2, 179520, Note_off_c, 0, 67, 95
2, 179520, Note_on_c, 0, 67, 95
2, 180000, Note_off_c, 0, 67, 95
2, 180000, Note_on_c, 1, 67, 95
2, 180160, Pitch_bend_c, 1, 8192
2, 180320, Pitch_bend_c, 1, 8320
2, 180480, Pitch_bend_c, 1, 8192
2, 180480, Pitch_bend_c, 1, 8320
2, 180480, Pitch_bend_c, 1, 8192
2, 180480, Note_off_c, 1, 67, 95
2, 180480, Note_on_c, 1, 67, 95
2, 180640, Pitch_bend_c, 1, 8192
2, 180800, Pitch_bend_c, 1, 8320
2, 180960, Pitch_bend_c, 1, 8192
2, 180960, Pitch_bend_c, 1, 8320
2, 180960, Pitch_bend_c, 1, 8192
2, 180960, Note_off_c, 1, 67, 95
2, 180960, Note_on_c, 1, 67, 95
2, 181120, Pitch_bend_c, 1, 8192
2, 181280, Pitch_bend_c, 1, 8320
2, 181440, Pitch_bend_c, 1, 8192
2, 181440, Pitch_bend_c, 1, 8320
2, 181440, Pitch_bend_c, 1, 8192
2, 181440, Note_off_c, 1, 67, 95
2, 181440, Note_on_c, 0, 67, 95
2, 182400, Note_off_c, 0, 67, 95
2, 182400, Note_on_c, 0, 61, 95
2, 182880, Note_off_c, 0, 61, 95
2, 182880, Note_on_c, 0, 57, 95
2, 182880, Note_on_c, 0, 52, 95
2, 183360, Note_off_c, 0, 57, 95
2, 183360, Note_off_c, 0, 52, 95
2, 183360, Note_on_c, 1, 61, 95
2, 183480, Pitch_bend_c, 1, 7552
2, 183600, Pitch_bend_c, 1, 6784
2, 183720, Pitch_bend_c, 1, 6144
2, 183840, Pitch_bend_c, 1, 5376
2, 183840, Pitch_bend_c, 1, 8192
2, 183840, Note_off_c, 1, 61, 95
2, 183840, Note_on_c, 0, 57, 95
2, 184320, Note_off_c, 0, 57, 95
2, 184320, Note_on_c, 1, 72, 95
2, 184480, Pitch_bend_c, 1, 8192
2, 184640, Pitch_bend_c, 1, 8320
2, 184800, Pitch_bend_c, 1, 8192
2, 184960, Pitch_bend_c, 1, 8320
2, 185120, Pitch_bend_c, 1, 8192
2, 185280, Pitch_bend_c, 1, 8320
2, 185440, Pitch_bend_c, 1, 8192
2, 185600, Pitch_bend_c, 1, 8320
2, 185760, Pitch_bend_c, 1, 8192
2, 185760, Pitch_bend_c, 1, 8320
2, 185760, Pitch_bend_c, 1, 8192
2, 185760, Note_off_c, 1, 72, 95
2, 185760, Note_on_c, 0, 69, 95
2, 186240, Note_off_c, 0, 69, 95
2, 186240, Note_on_c, 0, 64, 95
2, 186720, Note_off_c, 0, 64, 95
2, 186720, Note_on_c, 0, 62, 95
2, 187200, Note_off_c, 0, 62, 95
2, 187200, Note_on_c, 1, 57, 95
2, 187360, Pitch_bend_c, 1, 8192
2, 187520, Pitch_bend_c, 1, 8320
2, 187680, Pitch_bend_c, 1, 8192
2, 187840, Pitch_bend_c, 1, 8320
2, 188000, Pitch_bend_c, 1, 8192
2, 188160, Pitch_bend_c, 1, 8320
2, 188320, Pitch_bend_c, 1, 8192
2, 188480, Pitch_bend_c, 1, 8320
2, 188640, Pitch_bend_c, 1, 8192
2, 188640, Pitch_bend_c, 1, 8320
2, 188640, Pitch_bend_c, 1, 8192
2, 188640, Note_off_c, 1, 57, 95
2, 188640, Note_on_c, 1, 53, 95
2, 189600, Note_off_c, 1, 53, 95
2, 190080, Note_on_c, 1, 69, 95
2, 190560, Note_off_c, 1, 69, 95
2, 190560, Note_on_c, 0, 69, 95
2, 191040, Note_off_c, 0, 69, 95
2, 191040, Note_on_c, 0, 69, 95
2, 191520, Note_off_c, 0, 69, 95
2, 191520, Note_on_c, 1, 69, 95
2, 192000, Note_off_c, 1, 69, 95
2, 192000, Note_on_c, 0, 69, 95
2, 192480, Note_off_c, 0, 69, 95
2, 192480, Note_on_c, 0, 69, 95
2, 192960, Note_off_c, 0, 69, 95
2, 192960, Note_on_c, 1, 69, 95
2, 193080, Pitch_bend_c, 1, 7936
2, 193200, Pitch_bend_c, 1, 7552
2, 193320, Pitch_bend_c, 1, 7168
2, 193440, Pitch_bend_c, 1, 6784
2, 193440, Pitch_bend_c, 1, 8192
2, 193440, Note_off_c, 1, 69, 95
2, 193440, Note_on_c, 0, 67, 95
2, 193920, Note_off_c, 0, 67, 95
2, 193920, Note_on_c, 0, 64, 95
2, 194400, Note_off_c, 0, 64, 95
2, 194400, Note_on_c, 1, 64, 95
2, 194520, Pitch_bend_c, 1, 7552
2, 194640, Pitch_bend_c, 1, 6784
2, 194640, Pitch_bend_c, 1, 8192
2, 194640, Note_off_c, 1, 64, 95
2, 194640, Note_on_c, 0, 62, 95
2, 194880, Note_off_c, 0, 62, 95
2, 194880, Note_on_c, 0, 61, 95
2, 195360, Note_off_c, 0, 61, 95
2, 195360, Note_on_c, 0, 57, 95
2, 195840, Note_off_c, 0, 57, 95
2, 195840, Note_on_c, 1, 57, 95
2, 196000, Pitch_bend_c, 1, 8192
2, 196160, Pitch_bend_c, 1, 8320
2, 196320, Pitch_bend_c, 1, 8192
2, 196480, Pitch_bend_c, 1, 8320
2, 196640, Pitch_bend_c, 1, 8192
2, 196800, Pitch_bend_c, 1, 8320
2, 196960, Pitch_bend_c, 1, 8192
2, 197120, Pitch_bend_c, 1, 8320
2, 197280, Pitch_bend_c, 1, 8192
2, 197280, Pitch_bend_c, 1, 8320
2, 197280, Pitch_bend_c, 1, 8192
2, 197280, Note_off_c, 1, 57, 95
2, 197280, Pitch_bend_c, 1, 8192
2, 197280, Note_on_c, 1, 60, 95
2, 197520, Pitch_bend_c, 1, 8320
2, 197760, Pitch_bend_c, 1, 8448
2, 197760, Pitch_bend_c, 1, 8448
2, 198240, Pitch_bend_c, 1, 8448
2, 198240, Pitch_bend_c, 1, 8192
2, 198240, Note_off_c, 1, 60, 95
2, 198240, Note_on_c, 0, 62, 95
2, 198720, Note_off_c, 0, 62, 95
2, 198720, Pitch_bend_c, 1, 8192
2, 198720, Note_on_c, 1, 60, 95
2, 198768, Pitch_bend_c, 1, 8320
2, 198816, Pitch_bend_c, 1, 8448
2, 198864, Pitch_bend_c, 1, 8576
2, 198912, Pitch_bend_c, 1, 8704
2, 198960, Pitch_bend_c, 1, 8832
2, 198960, Pitch_bend_c, 1, 8832
2, 199200, Pitch_bend_c, 1, 8832
2, 199200, Pitch_bend_c, 1, 8192
2, 199200, Note_off_c, 1, 60, 95
2, 199200, Note_on_c, 0, 57, 95
2, 199680, Note_off_c, 0, 57, 95
2, 199680, Note_on_c, 0, 52, 95
2, 200160, Note_off_c, 0, 52, 95
2, 200160, Note_on_c, 0, 50, 95
2, 200640, Note_off_c, 0, 50, 95
2, 200640, Note_on_c, 0, 49, 95
2, 201120, Note_off_c, 0, 49, 95
2, 201120, Note_on_c, 0, 45, 95
2, 201600, Note_off_c, 0, 45, 95
2, 201600, Note_on_c, 1, 57, 95
2, 201760, Pitch_bend_c, 1, 8192
2, 201920, Pitch_bend_c, 1, 8320
2, 202080, Pitch_bend_c, 1, 8192
2, 202240, Pitch_bend_c, 1, 8320
2, 202400, Pitch_bend_c, 1, 8192
2, 202560, Pitch_bend_c, 1, 8320
2, 202720, Pitch_bend_c, 1, 8192
2, 202880, Pitch_bend_c, 1, 8320
2, 203040, Pitch_bend_c, 1, 8192
2, 203040, Pitch_bend_c, 1, 8320
2, 203040, Pitch_bend_c, 1, 8192
2, 203040, Note_off_c, 1, 57, 95
2, 203040, Note_on_c, 0, 61, 95
2, 203160, Note_off_c, 0, 61, 95
2, 203160, Note_on_c, 0, 60, 95
2, 203280, Note_off_c, 0, 60, 95
2, 203280, Note_on_c, 0, 61, 95
2, 203400, Note_off_c, 0, 61, 95
2, 203400, Note_on_c, 0, 60, 95
2, 203520, Note_off_c, 0, 60, 95
2, 203520, Note_on_c, 0, 61, 95
2, 203640, Note_off_c, 0, 61, 95
2, 203640, Note_on_c, 0, 60, 95
2, 203760, Note_off_c, 0, 60, 95
2, 203760, Note_on_c, 0, 61, 95
2, 203880, Note_off_c, 0, 61, 95
2, 203880, Note_on_c, 0, 60, 95
2, 203999, Note_off_c, 0, 60, 95
2, 204000, Note_on_c, 0, 62, 95
2, 204480, Note_off_c, 0, 62, 95
2, 204480, Note_on_c, 0, 61, 95
2, 204600, Note_off_c, 0, 61, 95
2, 204600, Note_on_c, 0, 60, 95
2, 204720, Note_off_c, 0, 60, 95
2, 204720, Note_on_c, 0, 61, 95
2, 204840, Note_off_c, 0, 61, 95
2, 204840, Note_on_c, 0, 60, 95
2, 204960, Note_off_c, 0, 60, 95
2, 204960, Note_on_c, 0, 61, 95
2, 205080, Note_off_c, 0, 61, 95
2, 205080, Note_on_c, 0, 60, 95
2, 205200, Note_off_c, 0, 60, 95
2, 205200, Note_on_c, 0, 61, 95
2, 205320, Note_off_c, 0, 61, 95
2, 205320, Note_on_c, 0, 60, 95
2, 205439, Note_off_c, 0, 60, 95
2, 205440, Note_on_c, 0, 52, 95
2, 205920, Note_off_c, 0, 52, 95
2, 205920, Pitch_bend_c, 1, 8192
2, 205920, Note_on_c, 1, 55, 95
2, 206160, Pitch_bend_c, 1, 8320
2, 206400, Pitch_bend_c, 1, 8448
2, 206400, Pitch_bend_c, 1, 8448
2, 206880, Pitch_bend_c, 1, 8448
2, 206880, Pitch_bend_c, 1, 8192
2, 206880, Note_off_c, 1, 55, 95
2, 206880, Note_on_c, 0, 57, 95
2, 207360, Note_off_c, 0, 57, 95
2, 207360, Note_on_c, 1, 52, 95
2, 207520, Pitch_bend_c, 1, 8192
2, 207680, Pitch_bend_c, 1, 8320
2, 207840, Pitch_bend_c, 1, 8192
2, 208000, Pitch_bend_c, 1, 8320
2, 208160, Pitch_bend_c, 1, 8192
2, 208320, Pitch_bend_c, 1, 8320
2, 208480, Pitch_bend_c, 1, 8192
2, 208640, Pitch_bend_c, 1, 8320
2, 208800, Pitch_bend_c, 1, 8192
2, 208800, Pitch_bend_c, 1, 8320
2, 208800, Pitch_bend_c, 1, 8192
2, 208800, Note_off_c, 1, 52, 95
2, 208800, Note_on_c, 1, 73, 95
2, 209280, Note_off_c, 1, 73, 95
2, 209760, Note_on_c, 1, 73, 95
2, 210240, Note_off_c, 1, 73, 95
2, 210240, Note_on_c, 0, 69, 95
2, 210720, Note_off_c, 0, 69, 95
2, 210720, Note_on_c, 0, 64, 95
2, 211200, Note_off_c, 0, 64, 95
2, 211200, Note_on_c, 0, 62, 95
2, 211680, Note_off_c, 0, 62, 95
2, 211680, Note_on_c, 1, 64, 95
2, 211840, Pitch_bend_c, 1, 8192
2, 212000, Pitch_bend_c, 1, 8320
2, 212160, Pitch_bend_c, 1, 8192
2, 212320, Pitch_bend_c, 1, 8320
2, 212480, Pitch_bend_c, 1, 8192
2, 212640, Pitch_bend_c, 1, 8320
2, 212800, Pitch_bend_c, 1, 8192
2, 212960, Pitch_bend_c, 1, 8320
2, 213120, Pitch_bend_c, 1, 8192
2, 213120, Pitch_bend_c, 1, 8320
2, 213120, Pitch_bend_c, 1, 8192
2, 213120, Note_off_c, 1, 64, 95
2, 213120, Note_on_c, 1, 66, 95
2, 213240, Pitch_bend_c, 1, 8192
2, 213360, Pitch_bend_c, 1, 8192
2, 213480, Pitch_bend_c, 1, 8192
2, 213600, Pitch_bend_c, 1, 8192
2, 213720, Pitch_bend_c, 1, 8192
2, 213840, Pitch_bend_c, 1, 8192
2, 213960, Pitch_bend_c, 1, 8192
2, 214080, Pitch_bend_c, 1, 8192
2, 214080, Pitch_bend_c, 1, 8192
2, 214080, Note_off_c, 1, 66, 95
2, 214080, Note_on_c, 1, 66, 95
2, 214200, Pitch_bend_c, 1, 8192
2, 214320, Pitch_bend_c, 1, 8192
2, 214440, Pitch_bend_c, 1, 8192
2, 214560, Pitch_bend_c, 1, 8192
2, 214560, Pitch_bend_c, 1, 8192
2, 214560, Note_off_c, 1, 66, 95
2, 214560, Note_on_c, 1, 66, 95
2, 214680, Pitch_bend_c, 1, 8192
2, 214800, Pitch_bend_c, 1, 8192
2, 214920, Pitch_bend_c, 1, 8192
2, 215040, Pitch_bend_c, 1, 8192
2, 215160, Pitch_bend_c, 1, 8192
2, 215280, Pitch_bend_c, 1, 8192
2, 215400, Pitch_bend_c, 1, 8192
2, 215520, Pitch_bend_c, 1, 8192
2, 215520, Pitch_bend_c, 1, 8192
2, 215520, Note_off_c, 1, 66, 95
2, 215520, Note_on_c, 1, 66, 95
2, 215640, Pitch_bend_c, 1, 8192
2, 215760, Pitch_bend_c, 1, 8192
2, 215880, Pitch_bend_c, 1, 8192
2, 216000, Pitch_bend_c, 1, 8192
2, 216000, Pitch_bend_c, 1, 8192
2, 216000, Note_off_c, 1, 66, 95
2, 216000, Note_on_c, 1, 66, 95
2, 216480, Note_off_c, 1, 66, 95
2, 216480, Note_on_c, 0, 64, 95
2, 216960, Note_off_c, 0, 64, 95
2, 216960, Note_on_c, 0, 62, 95
2, 217440, Note_off_c, 0, 62, 95
2, 217440, Note_on_c, 1, 61, 95
2, 218400, Note_off_c, 1, 61, 95
2, 218880, Note_on_c, 1, 57, 95
2, 219040, Pitch_bend_c, 1, 8192
2, 219200, Pitch_bend_c, 1, 8320
2, 219360, Pitch_bend_c, 1, 8192
2, 219520, Pitch_bend_c, 1, 8320
2, 219680, Pitch_bend_c, 1, 8192
2, 219840, Pitch_bend_c, 1, 8320
2, 220000, Pitch_bend_c, 1, 8192
2, 220160, Pitch_bend_c, 1, 8320
2, 220320, Pitch_bend_c, 1, 8192
2, 220320, Pitch_bend_c, 1, 8320
2, 220320, Pitch_bend_c, 1, 8192
2, 220320, Note_off_c, 1, 57, 95
2, 220320, Note_on_c, 1, 61, 95
2, 220440, Pitch_bend_c, 1, 7552
2, 220560, Pitch_bend_c, 1, 6784
2, 220680, Pitch_bend_c, 1, 6144
2, 220800, Pitch_bend_c, 1, 5376
2, 220800, Pitch_bend_c, 1, 8192
2, 220800, Note_off_c, 1, 61, 95
2, 220800, Note_on_c, 0, 57, 95
2, 221280, Note_off_c, 0, 57, 95
2, 221280, Note_on_c, 1, 61, 95
2, 221400, Pitch_bend_c, 1, 7552
2, 221520, Pitch_bend_c, 1, 6784
2, 221640, Pitch_bend_c, 1, 6144
2, 221760, Pitch_bend_c, 1, 5376
2, 221760, Pitch_bend_c, 1, 8192
2, 221760, Note_off_c, 1, 61, 95
2, 221760, Note_on_c, 0, 57, 95
2, 222240, Note_off_c, 0, 57, 95
2, 222240, Note_on_c, 0, 52, 95
2, 222720, Note_off_c, 0, 52, 95
2, 222720, Note_on_c, 0, 51, 95
2, 223200, Note_off_c, 0, 51, 95
2, 223200, Note_on_c, 0, 50, 95
2, 223680, Note_off_c, 0, 50, 95
2, 223680, Note_on_c, 1, 49, 95
2, 223800, Pitch_bend_c, 1, 7552
2, 223920, Pitch_bend_c, 1, 6784
2, 224040, Pitch_bend_c, 1, 6144
2, 224160, Pitch_bend_c, 1, 5376
2, 224160, Pitch_bend_c, 1, 8192
2, 224160, Note_off_c, 1, 49, 95
2, 224160, Note_on_c, 0, 45, 95
2, 224640, Note_off_c, 0, 45, 95
2, 224640, Note_on_c, 1, 57, 95
2, 226080, Note_off_c, 1, 57, 95
2, 226080, Note_on_c, 0, 61, 95
2, 226200, Note_off_c, 0, 61, 95
2, 226200, Note_on_c, 0, 60, 95
2, 226320, Note_off_c, 0, 60, 95
2, 226320, Note_on_c, 0, 61, 95
2, 226440, Note_off_c, 0, 61, 95
2, 226440, Note_on_c, 0, 60, 95
2, 226559, Note_off_c, 0, 60, 95
2, 226560, Note_on_c, 0, 64, 95
2, 227040, Note_off_c, 0, 64, 95
2, 227040, Note_on_c, 0, 64, 95
2, 227520, Note_off_c, 0, 64, 95
2, 227520, Note_on_c, 1, 52, 95
2, 227680, Pitch_bend_c, 1, 8192
2, 227840, Pitch_bend_c, 1, 8320
2, 228000, Pitch_bend_c, 1, 8192
2, 228160, Pitch_bend_c, 1, 8320
2, 228320, Pitch_bend_c, 1, 8192
2, 228480, Pitch_bend_c, 1, 8320
2, 228640, Pitch_bend_c, 1, 8192
2, 228800, Pitch_bend_c, 1, 8320
2, 228960, Pitch_bend_c, 1, 8192
2, 228960, Pitch_bend_c, 1, 8320
2, 228960, Pitch_bend_c, 1, 8192
2, 228960, Note_off_c, 1, 52, 95
2, 228960, Note_on_c, 0, 55, 95
2, 229920, Note_off_c, 0, 55, 95
2, 229920, Note_on_c, 1, 57, 95
2, 230040, Pitch_bend_c, 1, 7424
2, 230160, Pitch_bend_c, 1, 6528
2, 230280, Pitch_bend_c, 1, 5632
2, 230400, Pitch_bend_c, 1, 4736
2, 230400, Pitch_bend_c, 1, 8192
2, 230400, Note_off_c, 1, 57, 95
2, 230400, Note_on_c, 0, 52, 95
2, 230400, Note_on_c, 0, 45, 95
2, 231360, Note_off_c, 0, 52, 95
2, 231360, Note_off_c, 0, 45, 95
2, 231360, Note_on_c, 0, 52, 95
2, 231360, Note_on_c, 0, 45, 95
2, 231840, Note_off_c, 0, 52, 95
2, 231840, Note_off_c, 0, 45, 95
2, 231840, Note_on_c, 0, 60, 95
2, 231840, Note_on_c, 0, 55, 95
2, 231840, Note_on_c, 0, 45, 95
2, 232800, Note_off_c, 0, 60, 95
2, 232800, Note_off_c, 0, 55, 95
2, 232800, Note_off_c, 0, 45, 95
2, 232800, Note_on_c, 0, 60, 95
2, 232800, Note_on_c, 0, 55, 95
2, 232800, Note_on_c, 0, 45, 95
2, 233280, Note_off_c, 0, 60, 95
2, 233280, Note_off_c, 0, 55, 95
2, 233280, Note_off_c, 0, 45, 95
2, 233280, Note_on_c, 0, 59, 95
2, 233280, Note_on_c, 0, 54, 95
2, 233280, Note_on_c, 0, 45, 95
2, 234240, Note_off_c, 0, 59, 95
2, 234240, Note_off_c, 0, 54, 95
2, 234240, Note_off_c, 0, 45, 95
2, 234240, Note_on_c, 0, 59, 95
2, 234240, Note_on_c, 0, 54, 95
2, 234240, Note_on_c, 0, 45, 95
2, 234720, Note_off_c, 0, 59, 95
2, 234720, Note_off_c, 0, 54, 95
2, 234720, Note_off_c, 0, 45, 95
2, 234720, Note_on_c, 0, 57, 95
2, 234720, Note_on_c, 0, 52, 95
2, 234720, Note_on_c, 0, 45, 95
2, 235680, Note_off_c, 0, 57, 95
2, 235680, Note_off_c, 0, 52, 95
2, 235680, Note_off_c, 0, 45, 95
2, 235680, Pitch_bend_c, 1, 8192
2, 235680, Note_on_c, 1, 48, 95
2, 235800, Pitch_bend_c, 1, 8320
2, 235920, Pitch_bend_c, 1, 8448
2, 235920, Pitch_bend_c, 1, 8448
2, 236160, Pitch_bend_c, 1, 8448
2, 236160, Pitch_bend_c, 1, 8192
2, 236160, Note_off_c, 1, 48, 95
2, 236160, Note_on_c, 0, 45, 95
2, 237120, Note_off_c, 0, 45, 95
2, 237600, Note_on_c, 0, 60, 95
2, 237600, Note_on_c, 0, 55, 95
2, 237600, Note_on_c, 0, 45, 95
2, 238560, Note_off_c, 0, 60, 95
2, 238560, Note_off_c, 0, 55, 95
2, 238560, Note_off_c, 0, 45, 95
2, 238560, Note_on_c, 0, 60, 95
2, 238560, Note_on_c, 0, 55, 95
2, 238560, Note_on_c, 0, 45, 95
2, 239040, Note_off_c, 0, 60, 95
2, 239040, Note_off_c, 0, 55, 95
2, 239040, Note_off_c, 0, 45, 95
2, 239040, Note_on_c, 0, 59, 95
2, 239040, Note_on_c, 0, 54, 95
2, 239040, Note_on_c, 0, 45, 95
2, 240000, Note_off_c, 0, 59, 95
2, 240000, Note_off_c, 0, 54, 95
2, 240000, Note_off_c, 0, 45, 95
2, 240000, Note_on_c, 0, 59, 95
2, 240000, Note_on_c, 0, 54, 95
2, 240000, Note_on_c, 0, 45, 95
2, 240480, Note_off_c, 0, 59, 95
2, 240480, Note_off_c, 0, 54, 95
2, 240480, Note_off_c, 0, 45, 95
2, 240480, Note_on_c, 0, 57, 95
2, 240480, Note_on_c, 0, 52, 95
2, 240480, Note_on_c, 0, 45, 95
2, 241440, Note_off_c, 0, 57, 95
2, 241440, Note_off_c, 0, 52, 95
2, 241440, Note_off_c, 0, 45, 95
2, 241440, Pitch_bend_c, 1, 8192
2, 241440, Note_on_c, 1, 48, 95
2, 241560, Pitch_bend_c, 1, 8320
2, 241680, Pitch_bend_c, 1, 8448
2, 241680, Pitch_bend_c, 1, 8448
2, 241920, Pitch_bend_c, 1, 8448
2, 241920, Pitch_bend_c, 1, 8192
2, 241920, Note_off_c, 1, 48, 95
2, 241920, Note_on_c, 0, 45, 95
2, 242880, Note_off_c, 0, 45, 95
2, 242880, Note_on_c, 0, 45, 95
2, 243360, Note_off_c, 0, 45, 95
2, 243360, Note_on_c, 0, 73, 95
2, 243360, Note_on_c, 0, 50, 95
2, 243840, Note_off_c, 0, 73, 95
2, 243840, Note_off_c, 0, 50, 95
2, 243840, Note_on_c, 0, 73, 95
2, 244320, Note_off_c, 0, 73, 95
2, 244320, Note_on_c, 0, 73, 95
2, 244800, Note_off_c, 0, 73, 95
2, 244800, Note_on_c, 0, 73, 95
2, 244800, Note_on_c, 0, 55, 95
2, 245280, Note_off_c, 0, 73, 95
2, 245280, Note_off_c, 0, 55, 95
2, 245280, Note_on_c, 0, 73, 95
2, 245760, Note_off_c, 0, 73, 95
2, 245760, Note_on_c, 0, 73, 95
2, 246240, Note_off_c, 0, 73, 95
2, 246240, Note_on_c, 1, 73, 95
2, 246240, Note_on_c, 0, 55, 95
2, 246360, Pitch_bend_c, 1, 7552
2, 246480, Pitch_bend_c, 1, 6784
2, 246480, Pitch_bend_c, 1, 8192
2, 246480, Note_off_c, 1, 73, 95
2, 246480, Note_off_c, 0, 55, 95
2, 246480, Note_on_c, 0, 71, 95
2, 246720, Note_off_c, 0, 71, 95
2, 246720, Note_on_c, 0, 69, 95
2, 247200, Note_off_c, 0, 69, 95
2, 247200, Note_on_c, 0, 64, 95
2, 247200, Note_on_c, 0, 52, 95
2, 247680, Note_off_c, 0, 64, 95
2, 247680, Note_off_c, 0, 52, 95
2, 247680, Note_on_c, 0, 69, 95
2, 247680, Note_on_c, 0, 45, 95
2, 249120, Note_off_c, 0, 69, 95
2, 249120, Note_off_c, 0, 45, 95
2, 249120, Note_on_c, 1, 69, 95
2, 249120, Note_on_c, 1, 50, 95
2, 249280, Pitch_bend_c, 1, 8192
2, 249280, Pitch_bend_c, 1, 8192
2, 249440, Pitch_bend_c, 1, 8320
2, 249440, Pitch_bend_c, 1, 8320
2, 249600, Pitch_bend_c, 1, 8192
2, 249600, Pitch_bend_c, 1, 8192
2, 249760, Pitch_bend_c, 1, 8320
2, 249760, Pitch_bend_c, 1, 8320
2, 249920, Pitch_bend_c, 1, 8192
2, 249920, Pitch_bend_c, 1, 8192
2, 250080, Pitch_bend_c, 1, 8320
2, 250080, Pitch_bend_c, 1, 8192
2, 250080, Note_off_c, 1, 69, 95
2, 250080, Pitch_bend_c, 1, 8320
2, 250080, Pitch_bend_c, 1, 8192
2, 250080, Note_off_c, 1, 50, 95
2, 250080, Note_on_c, 0, 69, 95
2, 250560, Note_off_c, 0, 69, 95
2, 250560, Note_on_c, 0, 76, 95
2, 251040, Note_off_c, 0, 76, 95
2, 251040, Note_on_c, 0, 73, 95
2, 251520, Note_off_c, 0, 73, 95
2, 251520, Note_on_c, 0, 69, 95
2, 252000, Note_off_c, 0, 69, 95
2, 252000, Note_on_c, 1, 69, 95
2, 252160, Pitch_bend_c, 1, 8192
2, 252320, Pitch_bend_c, 1, 8320
2, 252480, Pitch_bend_c, 1, 8192
2, 252640, Pitch_bend_c, 1, 8320
2, 252800, Pitch_bend_c, 1, 8192
2, 252960, Pitch_bend_c, 1, 8320
2, 252960, Pitch_bend_c, 1, 8192
2, 252960, Note_off_c, 1, 69, 95
2, 252960, Note_on_c, 0, 64, 95
2, 253440, Note_off_c, 0, 64, 95
2, 253440, Note_on_c, 0, 57, 95
2, 253440, Note_on_c, 0, 50, 95
2, 254400, Note_off_c, 0, 57, 95
2, 254400, Note_off_c, 0, 50, 95
2, 254400, Note_on_c, 0, 57, 95
2, 254400, Note_on_c, 0, 50, 95
2, 254880, Note_off_c, 0, 57, 95
2, 254880, Note_off_c, 0, 50, 95
2, 254880, Note_on_c, 0, 64, 95
2, 254880, Note_on_c, 0, 60, 95
2, 254880, Note_on_c, 0, 50, 95
2, 255840, Note_off_c, 0, 64, 95
2, 255840, Note_off_c, 0, 60, 95
2, 255840, Note_off_c, 0, 50, 95
2, 255840, Note_on_c, 0, 64, 95
2, 255840, Note_on_c, 0, 60, 95
2, 255840, Note_on_c, 0, 50, 95
2, 256320, Note_off_c, 0, 64, 95
2, 256320, Note_off_c, 0, 60, 95
2, 256320, Note_off_c, 0, 50, 95
2, 256320, Note_on_c, 0, 64, 95
2, 256320, Note_on_c, 0, 59, 95
2, 256320, Note_on_c, 0, 50, 95
2, 257280, Note_off_c, 0, 64, 95
2, 257280, Note_off_c, 0, 59, 95
2, 257280, Note_off_c, 0, 50, 95
2, 257280, Note_on_c, 0, 64, 95
2, 257280, Note_on_c, 0, 59, 95
2, 257280, Note_on_c, 0, 50, 95
2, 257760, Note_off_c, 0, 64, 95
2, 257760, Note_off_c, 0, 59, 95
2, 257760, Note_off_c, 0, 50, 95
2, 257760, Note_on_c, 0, 62, 95
2, 257760, Note_on_c, 0, 57, 95
2, 257760, Note_on_c, 0, 50, 95
2, 258720, Note_off_c, 0, 62, 95
2, 258720, Note_off_c, 0, 57, 95
2, 258720, Note_off_c, 0, 50, 95
2, 258720, Note_on_c, 0, 48, 95
2, 259200, Note_off_c, 0, 48, 95
2, 259200, Note_on_c, 0, 57, 95
2, 259200, Note_on_c, 0, 50, 95
2, 260160, Note_off_c, 0, 57, 95
2, 260160, Note_off_c, 0, 50, 95
2, 260160, Note_on_c, 0, 57, 95
2, 260160, Note_on_c, 0, 50, 95
2, 260640, Note_off_c, 0, 57, 95
2, 260640, Note_off_c, 0, 50, 95
2, 260640, Note_on_c, 0, 64, 95
2, 260640, Note_on_c, 0, 60, 95
2, 260640, Note_on_c, 0, 50, 95
2, 261600, Note_off_c, 0, 64, 95
2, 261600, Note_off_c, 0, 60, 95
2, 261600, Note_off_c, 0, 50, 95
2, 261600, Note_on_c, 0, 64, 95
2, 261600, Note_on_c, 0, 60, 95
2, 261600, Note_on_c, 0, 50, 95
2, 262080, Note_off_c, 0, 64, 95
2, 262080, Note_off_c, 0, 60, 95
2, 262080, Note_off_c, 0, 50, 95
2, 262080, Note_on_c, 0, 64, 95
2, 262080, Note_on_c, 0, 59, 95
2, 262080, Note_on_c, 0, 50, 95
2, 263040, Note_off_c, 0, 64, 95
2, 263040, Note_off_c, 0, 59, 95
2, 263040, Note_off_c, 0, 50, 95
2, 263040, Note_on_c, 0, 64, 95
2, 263040, Note_on_c, 0, 59, 95
2, 263040, Note_on_c, 0, 52, 95
2, 263520, Note_off_c, 0, 64, 95
2, 263520, Note_off_c, 0, 59, 95
2, 263520, Note_off_c, 0, 52, 95
2, 263520, Note_on_c, 0, 62, 95
2, 263520, Note_on_c, 0, 57, 95
2, 263520, Note_on_c, 0, 50, 95
2, 264240, Note_off_c, 0, 62, 95
2, 264240, Note_off_c, 0, 57, 95
2, 264240, Note_off_c, 0, 50, 95
2, 264240, Note_on_c, 0, 55, 95
2, 264480, Note_off_c, 0, 55, 95
2, 264480, Note_on_c, 0, 52, 70
2, 264960, Note_off_c, 0, 52, 70
2, 264960, Note_on_c, 0, 52, 95
2, 264960, Note_on_c, 0, 45, 95
2, 265920, Note_off_c, 0, 52, 95
2, 265920, Note_off_c, 0, 45, 95
2, 265920, Note_on_c, 0, 45, 95
2, 266400, Note_off_c, 0, 45, 95
2, 266400, Note_on_c, 0, 73, 95
2, 267360, Note_off_c, 0, 73, 95
2, 267360, Note_on_c, 0, 73, 95
2, 267840, Note_off_c, 0, 73, 95
2, 267840, Note_on_c, 0, 73, 95
2, 268320, Note_off_c, 0, 73, 95
2, 268320, Note_on_c, 0, 73, 95
2, 268800, Note_off_c, 0, 73, 95
2, 268800, Note_on_c, 0, 73, 95
2, 269280, Note_off_c, 0, 73, 95
2, 269280, Note_on_c, 0, 73, 95
2, 269760, Note_off_c, 0, 73, 95
2, 269760, Note_on_c, 0, 69, 95
2, 270240, Note_off_c, 0, 69, 95
2, 270240, Note_on_c, 0, 66, 95
2, 270720, Note_off_c, 0, 66, 95
2, 270720, Note_on_c, 1, 69, 95
2, 270880, Pitch_bend_c, 1, 8192
2, 271040, Pitch_bend_c, 1, 8320
2, 271200, Pitch_bend_c, 1, 8192
2, 271360, Pitch_bend_c, 1, 8320
2, 271520, Pitch_bend_c, 1, 8192
2, 271680, Pitch_bend_c, 1, 8320
2, 271680, Pitch_bend_c, 1, 8192
2, 271680, Note_off_c, 1, 69, 95
2, 271680, Note_on_c, 0, 69, 95
2, 272160, Note_off_c, 0, 69, 95
2, 272160, Note_on_c, 0, 73, 95
2, 272640, Note_off_c, 0, 73, 95
2, 272640, Note_on_c, 0, 76, 95
2, 273120, Note_off_c, 0, 76, 95
2, 273120, Note_on_c, 0, 73, 95
2, 273600, Note_off_c, 0, 73, 95
2, 273600, Note_on_c, 1, 69, 95
2, 273760, Pitch_bend_c, 1, 8192
2, 273920, Pitch_bend_c, 1, 8320
2, 274080, Pitch_bend_c, 1, 8192
2, 274240, Pitch_bend_c, 1, 8320
2, 274400, Pitch_bend_c, 1, 8192
2, 274560, Pitch_bend_c, 1, 8320
2, 274560, Pitch_bend_c, 1, 8192
2, 274560, Note_off_c, 1, 69, 95
2, 274560, Note_on_c, 0, 69, 95
2, 275040, Note_off_c, 0, 69, 95
2, 275040, Note_on_c, 0, 57, 95
2, 275520, Note_off_c, 0, 57, 95
2, 275520, Note_on_c, 0, 52, 95
2, 276000, Note_off_c, 0, 52, 95
2, 276000, Note_on_c, 0, 52, 95
2, 276480, Note_off_c, 0, 52, 95
2, 276480, Note_on_c, 0, 62, 95
2, 276480, Note_on_c, 0, 52, 95
2, 277440, Note_off_c, 0, 62, 95
2, 277440, Note_off_c, 0, 52, 95
2, 277440, Note_on_c, 0, 52, 95
2, 277920, Note_off_c, 0, 52, 95
2, 277920, Note_on_c, 0, 64, 95
2, 277920, Note_on_c, 0, 52, 95
2, 278400, Note_off_c, 0, 64, 95
2, 278400, Note_off_c, 0, 52, 95
2, 278400, Note_on_c, 0, 62, 95
2, 278400, Note_on_c, 0, 52, 95
2, 278880, Note_off_c, 0, 62, 95
2, 278880, Note_off_c, 0, 52, 95
2, 278880, Note_on_c, 0, 64, 95
2, 278880, Note_on_c, 0, 52, 95
2, 279360, Note_off_c, 0, 64, 95
2, 279360, Note_off_c, 0, 52, 95
2, 279360, Note_on_c, 0, 64, 95
2, 279360, Note_on_c, 0, 52, 95
2, 280320, Note_off_c, 0, 64, 95
2, 280320, Note_off_c, 0, 52, 95
2, 280320, Note_on_c, 0, 64, 95
2, 280320, Note_on_c, 0, 52, 95
2, 280800, Note_off_c, 0, 64, 95
2, 280800, Note_off_c, 0, 52, 95
2, 280800, Note_on_c, 0, 52, 95
2, 281280, Note_off_c, 0, 52, 95
2, 281280, Note_on_c, 0, 40, 95
2, 281760, Note_off_c, 0, 40, 95
2, 281760, Note_on_c, 0, 41, 95
2, 282240, Note_off_c, 0, 41, 95
2, 282240, Note_on_c, 0, 42, 95
2, 283200, Note_off_c, 0, 42, 95
2, 283200, Note_on_c, 0, 66, 95
2, 283680, Note_off_c, 0, 66, 95
2, 283680, Note_on_c, 0, 66, 95
2, 284160, Note_off_c, 0, 66, 95
2, 284160, Note_on_c, 0, 60, 95
2, 284640, Note_off_c, 0, 60, 95
2, 284640, Note_on_c, 0, 57, 95
2, 285120, Note_off_c, 0, 57, 95
2, 285120, Note_on_c, 0, 66, 95
2, 285120, Note_on_c, 0, 60, 95
2, 285120, Note_on_c, 0, 45, 95
2, 286560, Note_off_c, 0, 66, 95
2, 286560, Note_off_c, 0, 60, 95
2, 286560, Note_off_c, 0, 45, 95
2, 286560, Note_on_c, 0, 52, 95
2, 286560, Note_on_c, 0, 45, 95
2, 287040, Note_off_c, 0, 52, 95
2, 287040, Note_off_c, 0, 45, 95
2, 287040, Note_on_c, 0, 57, 95
2, 287040, Note_on_c, 0, 52, 95
2, 287040, Note_on_c, 0, 52, 95
2, 288000, Note_off_c, 0, 57, 95
2, 288000, Note_off_c, 0, 52, 95
2, 288000, Note_off_c, 0, 52, 95
2, 288000, Note_on_c, 0, 45, 95
2, 288960, Note_off_c, 0, 45, 95
2, 288960, Note_on_c, 0, 64, 95
2, 289440, Note_off_c, 0, 64, 95
2, 289440, Note_on_c, 0, 73, 95
2, 289920, Note_off_c, 0, 73, 95
2, 289920, Note_on_c, 0, 69, 95
2, 290400, Note_off_c, 0, 69, 95
2, 290400, Note_on_c, 0, 64, 95
2, 290880, Note_off_c, 0, 64, 95
2, 290880, Note_on_c, 1, 62, 95
2, 291000, Pitch_bend_c, 1, 8832
2, 291120, Pitch_bend_c, 1, 9600
2, 291120, Pitch_bend_c, 1, 8192
2, 291120, Note_off_c, 1, 62, 95
2, 291120, Note_on_c, 0, 64, 95
2, 291360, Note_off_c, 0, 64, 95
2, 291360, Note_on_c, 0, 64, 95
2, 291840, Note_off_c, 0, 64, 95
2, 291840, Note_on_c, 0, 69, 95
2, 292320, Note_off_c, 0, 69, 95
2, 292320, Note_on_c, 1, 64, 95
2, 292440, Pitch_bend_c, 1, 7552
2, 292560, Pitch_bend_c, 1, 6784
2, 292560, Pitch_bend_c, 1, 8192
2, 292560, Note_off_c, 1, 64, 95
2, 292560, Note_on_c, 0, 62, 95
2, 292800, Note_off_c, 0, 62, 95
2, 292800, Note_on_c, 0, 61, 95
2, 293280, Note_off_c, 0, 61, 95
2, 293280, Note_on_c, 0, 57, 95
2, 293760, Note_off_c, 0, 57, 95
2, 293760, Note_on_c, 0, 55, 95
2, 294720, Note_off_c, 0, 55, 95
2, 295200, Note_on_c, 0, 65, 95
2, 295200, Note_on_c, 0, 60, 95
2, 295200, Note_on_c, 0, 56, 95
2, 296160, Note_off_c, 0, 65, 95
2, 296160, Note_off_c, 0, 60, 95
2, 296160, Note_off_c, 0, 56, 95
2, 296160, Note_on_c, 0, 64, 95
2, 296160, Note_on_c, 0, 59, 95
2, 296160, Note_on_c, 0, 55, 95
2, 299520, Note_off_c, 0, 64, 95
2, 299520, Note_off_c, 0, 59, 95
2, 299520, Note_off_c, 0, 55, 95
2, 299520, End_track
3, 0, Start_track
3, 0, Pitch_bend_c, 2, 8192
3, 0, Control_c, 2, 7, 127
3, 0, Control_c, 2, 10, 63
3, 0, Control_c, 2, 93, 0
3, 0, Control_c, 2, 91, 0
3, 0, Control_c, 2, 95, 0
3, 0, Control_c, 2, 92, 0
3, 0, Control_c, 2, 11, 127
3, 0, Program_c, 2, 23
3, 0, Control_c, 3, 7, 127
3, 0, Control_c, 3, 10, 63
3, 0, Control_c, 3, 93, 0
3, 0, Control_c, 3, 91, 0
3, 0, Control_c, 3, 95, 0
3, 0, Control_c, 3, 92, 0
3, 0, Control_c, 3, 11, 127
3, 0, Program_c, 3, 23
3, 24480, Note_on_c, 2, 69, 95
3, 25200, Note_off_c, 2, 69, 95
3, 25200, Note_on_c, 2, 64, 95
3, 25440, Note_off_c, 2, 64, 95
3, 25440, Note_on_c, 2, 69, 95
3, 25680, Note_off_c, 2, 69, 95
3, 25680, Note_on_c, 2, 69, 95
3, 25920, Note_off_c, 2, 69, 95
3, 25920, Note_on_c, 2, 69, 95
3, 26640, Note_off_c, 2, 69, 95
3, 26640, Note_on_c, 2, 62, 95
3, 27360, Note_off_c, 2, 62, 95
3, 30720, Note_on_c, 2, 67, 95
3, 31200, Note_off_c, 2, 67, 95
3, 31200, Note_on_c, 2, 64, 95
3, 31680, Note_off_c, 2, 64, 95
3, 31680, Note_on_c, 2, 67, 95
3, 32160, Note_off_c, 2, 67, 95
3, 32160, Note_on_c, 2, 64, 95
3, 32400, Note_off_c, 2, 64, 95
3, 32400, Note_on_c, 2, 62, 95
3, 33120, Note_off_c, 2, 62, 95
3, 33120, Note_on_c, 2, 62, 95
3, 33360, Note_off_c, 2, 62, 95
3, 33360, Note_on_c, 2, 57, 95
3, 33600, Note_off_c, 2, 57, 95
3, 33600, Note_on_c, 2, 60, 95
3, 34560, Note_off_c, 2, 60, 95
3, 34560, Note_on_c, 2, 57, 95
3, 36000, Note_off_c, 2, 57, 95
3, 47520, Note_on_c, 2, 69, 95
3, 48240, Note_off_c, 2, 69, 95
3, 48240, Note_on_c, 2, 64, 95
3, 48480, Note_off_c, 2, 64, 95
3, 48480, Note_on_c, 2, 69, 95
3, 48720, Note_off_c, 2, 69, 95
3, 48720, Note_on_c, 2, 69, 95
3, 48960, Note_off_c, 2, 69, 95
3, 48960, Note_on_c, 2, 69, 95
3, 49680, Note_off_c, 2, 69, 95
3, 49680, Note_on_c, 2, 62, 95
3, 50400, Note_off_c, 2, 62, 95
3, 53760, Note_on_c, 2, 67, 95
3, 54240, Note_off_c, 2, 67, 95
3, 54240, Note_on_c, 2, 64, 95
3, 54720, Note_off_c, 2, 64, 95
3, 54720, Note_on_c, 2, 69, 95
3, 55200, Note_off_c, 2, 69, 95
3, 55200, Note_on_c, 2, 64, 95
3, 55440, Note_off_c, 2, 64, 95
3, 55440, Note_on_c, 2, 62, 95
3, 56160, Note_off_c, 2, 62, 95
3, 56160, Note_on_c, 2, 62, 95
3, 56640, Note_off_c, 2, 62, 95
3, 56640, Note_on_c, 2, 57, 95
3, 57600, Note_off_c, 2, 57, 95
3, 57600, Note_on_c, 2, 57, 95
3, 59040, Note_off_c, 2, 57, 95
3, 70560, Note_on_c, 2, 69, 95
3, 71040, Note_off_c, 2, 69, 95
3, 71040, Note_on_c, 2, 69, 95
3, 71280, Note_off_c, 2, 69, 95
3, 71280, Note_on_c, 2, 69, 95
3, 71520, Note_off_c, 2, 69, 95
3, 71520, Note_on_c, 2, 69, 95
3, 71760, Note_off_c, 2, 69, 95
3, 71760, Note_on_c, 2, 71, 95
3, 72000, Note_off_c, 2, 71, 95
3, 72000, Note_on_c, 2, 69, 95
3, 72240, Note_off_c, 2, 69, 95
3, 72240, Note_on_c, 2, 67, 95
3, 72480, Note_off_c, 2, 67, 95
3, 72480, Note_on_c, 2, 64, 95
3, 73440, Note_off_c, 2, 64, 95
3, 73440, Note_on_c, 2, 69, 95
3, 73920, Note_off_c, 2, 69, 95
3, 76800, Note_on_c, 2, 65, 95
3, 77280, Note_off_c, 2, 65, 95
3, 77280, Note_on_c, 2, 65, 95
3, 77520, Note_off_c, 2, 65, 95
3, 77520, Note_on_c, 2, 64, 95
3, 77760, Note_off_c, 2, 64, 95
3, 77760, Note_on_c, 2, 69, 95
3, 78240, Note_off_c, 2, 69, 95
3, 78240, Note_on_c, 2, 65, 95
3, 78720, Note_off_c, 2, 65, 95
3, 78720, Note_on_c, 2, 60, 95
3, 79200, Note_off_c, 2, 60, 95
3, 79200, Note_on_c, 2, 62, 95
3, 79440, Note_off_c, 2, 62, 95
3, 79440, Note_on_c, 2, 57, 95
3, 79680, Note_off_c, 2, 57, 95
3, 79680, Note_on_c, 2, 60, 95
3, 80640, Note_off_c, 2, 60, 95
3, 80640, Note_on_c, 2, 57, 95
3, 82080, Note_off_c, 2, 57, 95
3, 93600, Note_on_c, 2, 69, 95
3, 93840, Note_off_c, 2, 69, 95
3, 93840, Note_on_c, 2, 69, 95
3, 94080, Note_off_c, 2, 69, 95
3, 94080, Note_on_c, 2, 69, 95
3, 94320, Note_off_c, 2, 69, 95
3, 94320, Note_on_c, 2, 67, 95
3, 94560, Note_off_c, 2, 67, 95
3, 94560, Note_on_c, 2, 69, 95
3, 94800, Note_off_c, 2, 69, 95
3, 94800, Note_on_c, 2, 67, 95
3, 95040, Note_off_c, 2, 67, 95
3, 95040, Note_on_c, 2, 69, 95
3, 95520, Note_off_c, 2, 69, 95
3, 95520, Note_on_c, 2, 64, 95
3, 95760, Note_off_c, 2, 64, 95
3, 95760, Note_on_c, 2, 62, 95
3, 96960, Note_off_c, 2, 62, 95
3, 100080, Note_on_c, 2, 67, 95
3, 100320, Note_off_c, 2, 67, 95
3, 100320, Note_on_c, 2, 65, 95
3, 100560, Note_off_c, 2, 65, 95
3, 100560, Note_on_c, 2, 64, 95
3, 100800, Note_off_c, 2, 64, 95
3, 100800, Note_on_c, 2, 69, 95
3, 101280, Note_off_c, 2, 69, 95
3, 101280, Note_on_c, 2, 64, 95
3, 101520, Note_off_c, 2, 64, 95
3, 101520, Note_on_c, 2, 60, 95
3, 102240, Note_off_c, 2, 60, 95
3, 102240, Note_on_c, 2, 62, 95
3, 102720, Note_off_c, 2, 62, 95
3, 102720, Note_on_c, 2, 57, 95
3, 102960, Note_off_c, 2, 57, 95
3, 102960, Note_on_c, 2, 60, 95
3, 103680, Note_off_c, 2, 60, 95
3, 103680, Note_on_c, 2, 57, 95
3, 105120, Note_off_c, 2, 57, 95
3, 116640, Note_on_c, 2, 69, 95
3, 116880, Note_off_c, 2, 69, 95
3, 116880, Note_on_c, 2, 69, 95
3, 117120, Note_off_c, 2, 69, 95
3, 117120, Note_on_c, 2, 69, 95
3, 117360, Note_off_c, 2, 69, 95
3, 117360, Note_on_c, 2, 67, 95
3, 117600, Note_off_c, 2, 67, 95
3, 117600, Note_on_c, 2, 69, 95
3, 117840, Note_off_c, 2, 69, 95
3, 117840, Note_on_c, 2, 67, 95
3, 118080, Note_off_c, 2, 67, 95
3, 118080, Note_on_c, 2, 69, 95
3, 118560, Note_off_c, 2, 69, 95
3, 118560, Note_on_c, 2, 64, 95
3, 118800, Note_off_c, 2, 64, 95
3, 118800, Note_on_c, 2, 62, 95
3, 119040, Note_off_c, 2, 62, 95
3, 119040, Note_on_c, 2, 60, 95
3, 120000, Note_off_c, 2, 60, 95
3, 122880, Note_on_c, 2, 67, 95
3, 123360, Note_off_c, 2, 67, 95
3, 123360, Note_on_c, 2, 64, 95
3, 123600, Note_off_c, 2, 64, 95
3, 123600, Note_on_c, 2, 64, 95
3, 123840, Note_off_c, 2, 64, 95
3, 123840, Note_on_c, 2, 67, 95
3, 124320, Note_off_c, 2, 67, 95
3, 124320, Note_on_c, 2, 64, 95
3, 124560, Note_off_c, 2, 64, 95
3, 124560, Note_on_c, 2, 62, 95
3, 124800, Note_off_c, 2, 62, 95
3, 124800, Note_on_c, 2, 60, 95
3, 125280, Note_off_c, 2, 60, 95
3, 125280, Note_on_c, 2, 62, 95
3, 125760, Note_off_c, 2, 62, 95
3, 125760, Note_on_c, 2, 57, 95
3, 126240, Note_off_c, 2, 57, 95
3, 126240, Note_on_c, 2, 60, 95
3, 126720, Note_off_c, 2, 60, 95
3, 126720, Note_on_c, 2, 57, 95
3, 128160, Note_off_c, 2, 57, 95
3, 137280, Note_on_c, 2, 64, 95
3, 137760, Note_off_c, 2, 64, 95
3, 137760, Note_on_c, 2, 64, 95
3, 138000, Note_off_c, 2, 64, 95
3, 138000, Note_on_c, 2, 64, 95
3, 138240, Note_off_c, 2, 64, 95
3, 138240, Note_on_c, 2, 67, 95
3, 138480, Note_off_c, 2, 67, 95
3, 138480, Note_on_c, 2, 64, 95
3, 138720, Note_off_c, 2, 64, 95
3, 138720, Note_on_c, 2, 67, 95
3, 138960, Note_off_c, 2, 67, 95
3, 138960, Note_on_c, 2, 64, 95
3, 139680, Note_off_c, 2, 64, 95
3, 139680, Note_on_c, 2, 67, 95
3, 140160, Note_off_c, 2, 67, 95
3, 140160, Note_on_c, 2, 62, 95
3, 140400, Note_off_c, 2, 62, 95
3, 140400, Note_on_c, 2, 64, 95
3, 141120, Note_off_c, 2, 64, 95
3, 141120, Note_on_c, 2, 64, 95
3, 141600, Note_off_c, 2, 64, 95
3, 141600, Note_on_c, 2, 62, 95
3, 141840, Note_off_c, 2, 62, 95
3, 141840, Note_on_c, 2, 60, 95
3, 142080, Note_off_c, 2, 60, 95
3, 142080, Note_on_c, 2, 57, 95
3, 143040, Note_off_c, 2, 57, 95
3, 145920, Note_on_c, 2, 64, 95
3, 146400, Note_off_c, 2, 64, 95
3, 146400, Note_on_c, 2, 64, 95
3, 146880, Note_off_c, 2, 64, 95
3, 146880, Note_on_c, 2, 69, 95
3, 147360, Note_off_c, 2, 69, 95
3, 147360, Note_on_c, 2, 64, 95
3, 147600, Note_off_c, 2, 64, 95
3, 147600, Note_on_c, 2, 62, 95
3, 147840, Note_off_c, 2, 62, 95
3, 147840, Note_on_c, 2, 60, 95
3, 148320, Note_off_c, 2, 60, 95
3, 148320, Note_on_c, 2, 62, 95
3, 148560, Note_off_c, 2, 62, 95
3, 148560, Note_on_c, 2, 57, 95
3, 148800, Note_off_c, 2, 57, 95
3, 148800, Note_on_c, 2, 60, 95
3, 149280, Note_off_c, 2, 60, 95
3, 149280, Note_on_c, 2, 62, 95
3, 149760, Note_off_c, 2, 62, 95
3, 149760, Note_on_c, 2, 57, 95
3, 151200, Note_off_c, 2, 57, 95
3, 231840, Note_on_c, 2, 69, 95
3, 232080, Note_off_c, 2, 69, 95
3, 232080, Note_on_c, 2, 67, 95
3, 232320, Note_off_c, 2, 67, 95
3, 232320, Note_on_c, 2, 69, 95
3, 232560, Note_off_c, 2, 69, 95
3, 232560, Note_on_c, 2, 67, 95
3, 232800, Note_off_c, 2, 67, 95
3, 232800, Note_on_c, 2, 69, 95
3, 233040, Note_off_c, 2, 69, 95
3, 233040, Note_on_c, 2, 67, 95
3, 233280, Note_off_c, 2, 67, 95
3, 233280, Note_on_c, 2, 69, 95
3, 233760, Note_off_c, 2, 69, 95
3, 233760, Note_on_c, 2, 64, 95
3, 234000, Note_off_c, 2, 64, 95
3, 234000, Note_on_c, 2, 62, 95
3, 234240, Note_off_c, 2, 62, 95
3, 234240, Note_on_c, 2, 60, 95
3, 234720, Note_off_c, 2, 60, 95
3, 238080, Note_on_c, 2, 67, 95
3, 238560, Note_off_c, 2, 67, 95
3, 238560, Note_on_c, 2, 64, 95
3, 238800, Note_off_c, 2, 64, 95
3, 238800, Note_on_c, 2, 64, 95
3, 239040, Note_off_c, 2, 64, 95
3, 239040, Note_on_c, 2, 67, 95
3, 239520, Note_off_c, 2, 67, 95
3, 239520, Note_on_c, 2, 64, 95
3, 239760, Note_off_c, 2, 64, 95
3, 239760, Note_on_c, 2, 62, 95
3, 240000, Note_off_c, 2, 62, 95
3, 240000, Note_on_c, 2, 60, 95
3, 240480, Note_off_c, 2, 60, 95
3, 240480, Note_on_c, 2, 62, 95
3, 240720, Note_off_c, 2, 62, 95
3, 240720, Note_on_c, 2, 57, 95
3, 240960, Note_off_c, 2, 57, 95
3, 240960, Note_on_c, 2, 57, 95
3, 241440, Note_off_c, 2, 57, 95
3, 241440, Note_on_c, 2, 60, 95
3, 241920, Note_off_c, 2, 60, 95
3, 241920, Note_on_c, 2, 57, 95
3, 243360, Note_off_c, 2, 57, 95
3, 254880, Note_on_c, 2, 67, 95
3, 255360, Note_off_c, 2, 67, 95
3, 255360, Note_on_c, 2, 67, 95
3, 255600, Note_off_c, 2, 67, 95
3, 255600, Note_on_c, 2, 67, 95
3, 255840, Note_off_c, 2, 67, 95
3, 255840, Note_on_c, 2, 67, 95
3, 256080, Note_off_c, 2, 67, 95
3, 256080, Note_on_c, 2, 67, 95
3, 256320, Note_off_c, 2, 67, 95
3, 256320, Note_on_c, 2, 69, 95
3, 256560, Note_off_c, 2, 69, 95
3, 256560, Note_on_c, 2, 69, 95
3, 256800, Note_off_c, 2, 69, 95
3, 256800, Note_on_c, 2, 64, 95
3, 257040, Note_off_c, 2, 64, 95
3, 257040, Note_on_c, 2, 62, 95
3, 257280, Note_off_c, 2, 62, 95
3, 257280, Note_on_c, 2, 60, 95
3, 257520, Note_off_c, 2, 60, 95
3, 257520, Note_on_c, 2, 57, 95
3, 257760, Note_off_c, 2, 57, 95
3, 261120, Note_on_c, 2, 67, 95
3, 261600, Note_off_c, 2, 67, 95
3, 261600, Note_on_c, 2, 67, 95
3, 261840, Note_off_c, 2, 67, 95
3, 261840, Note_on_c, 2, 64, 95
3, 262080, Note_off_c, 2, 64, 95
3, 262080, Note_on_c, 2, 67, 95
3, 262560, Note_off_c, 2, 67, 95
3, 262560, Note_on_c, 2, 64, 95
3, 262800, Note_off_c, 2, 64, 95
3, 262800, Note_on_c, 2, 62, 95
3, 263040, Note_off_c, 2, 62, 95
3, 263040, Note_on_c, 2, 60, 95
3, 263520, Note_off_c, 2, 60, 95
3, 263520, Note_on_c, 2, 62, 95
3, 263760, Note_off_c, 2, 62, 95
3, 263760, Note_on_c, 2, 57, 95
3, 264000, Note_off_c, 2, 57, 95
3, 264000, Note_on_c, 2, 57, 95
3, 264480, Note_off_c, 2, 57, 95
3, 264480, Note_on_c, 2, 60, 95
3, 264960, Note_off_c, 2, 60, 95
3, 264960, Note_on_c, 2, 57, 95
3, 266400, Note_off_c, 2, 57, 95
3, 277920, Note_on_c, 2, 67, 95
3, 278160, Note_off_c, 2, 67, 95
3, 278160, Note_on_c, 2, 64, 95
3, 278400, Note_off_c, 2, 64, 95
3, 278400, Note_on_c, 2, 71, 95
3, 278880, Note_off_c, 2, 71, 95
3, 278880, Note_on_c, 2, 69, 95
3, 279120, Note_off_c, 2, 69, 95
3, 279120, Note_on_c, 2, 67, 95
3, 279360, Note_off_c, 2, 67, 95
3, 279360, Note_on_c, 2, 69, 95
3, 279600, Note_off_c, 2, 69, 95
3, 279600, Note_on_c, 2, 67, 95
3, 279840, Note_off_c, 2, 67, 95
3, 279840, Note_on_c, 2, 64, 95
3, 280800, Note_off_c, 2, 64, 95
3, 280800, Note_on_c, 2, 67, 95
3, 281280, Note_off_c, 2, 67, 95
3, 284160, Note_on_c, 2, 64, 95
3, 284400, Note_off_c, 2, 64, 95
3, 284400, Note_on_c, 2, 64, 95
3, 284640, Note_off_c, 2, 64, 95
3, 284640, Note_on_c, 2, 64, 95
3, 285120, Note_off_c, 2, 64, 95
3, 285120, Note_on_c, 2, 69, 95
3, 285600, Note_off_c, 2, 69, 95
3, 285600, Note_on_c, 2, 64, 95
3, 285840, Note_off_c, 2, 64, 95
3, 285840, Note_on_c, 2, 62, 95
3, 286080, Note_off_c, 2, 62, 95
3, 286080, Note_on_c, 2, 60, 95
3, 286560, Note_off_c, 2, 60, 95
3, 286560, Note_on_c, 2, 62, 95
3, 287040, Note_off_c, 2, 62, 95
3, 287040, Note_on_c, 2, 57, 95
3, 287760, Note_off_c, 2, 57, 95
3, 287760, Note_on_c, 2, 60, 95
3, 288000, Note_off_c, 2, 60, 95
3, 288000, Note_on_c, 2, 57, 95
3, 289440, Note_off_c, 2, 57, 95
3, 289440, End_track
0, 0, End_of_file
