0, 0, Header, 1, 11, 120
1, 0, Start_track
1, 0, Key_signature, -1, "major"
1, 0, SMPTE_offset, 96, 0, 0, 0, 0
1, 0, Sequencer_specific, 126, 0, 0, 0, 106, 0, 1, 0, 0, 0, 0, 0, 0, 0, 0, 0, 0, 0, 0, 0, 0, 0, 0, 29, 24, 0, 0, 0, 0, 0, 0, 1, 24, 0, 0, 0, 0, 0, 0, 29, 6, 0, 0, 0, 0, 0, 0, 29, 24, 0, 0, 0, 0, 0, 0, 70, 42, 0, 0, 0, 0, 0, 0, 0, 0, 0, 0, 0, 0, 0, 0, 29, 24, 0, 0, 0, 0, 0, 0, 0, 0, 0, 0, 0, 0, 0, 0, 64, 29, 0, 0, 0, 0, 0, 0, 70, 42, 0, 0, 0, 0, 0, 0, 29, 24, 0, 0, 0, 0, 0, 0, 0, 0, 0, 0, 0, 0, 0, 0, 29, 6, 0, 0, 0, 0, 0, 0
1, 0, Sequencer_specific, 126, 0, 0, 0, 106, 0, 1, 1, 24, 0, 0, 0, 0, 0, 0, 1, 6, 0, 0, 0, 0, 0, 0, 29, 24, 0, 0, 0, 0, 0, 0, 70, 11, 0, 0, 0, 0, 0, 0, 0, 0, 0, 0, 0, 0, 0, 0, 1, 24, 0, 0, 0, 0, 0, 0, 0, 0, 0, 0, 0, 0, 0, 0, 64, 29, 0, 0, 0, 0, 0, 0, 70, 42, 0, 0, 0, 0, 0, 0, 29, 6, 0, 0, 0, 0, 0, 0, 0, 0, 0, 0, 0, 0, 0, 0, 1, 24, 0, 0, 0, 0, 0, 0, 29, 24, 0, 0, 0, 0, 0, 0, 29, 24, 0, 0, 0, 0, 0, 0, 29, 24, 0, 0, 0, 0, 0, 0
1, 0, Sequencer_specific, 126, 0, 0, 0, 106, 0, 1, 70, 11, 0, 0, 0, 0, 0, 0, 0, 0, 0, 0, 0, 0, 0, 0, 1, 24, 0, 0, 0, 0, 0, 0, 0, 0, 0, 0, 0, 0, 0, 0, 64, 29, 0, 0, 0, 0, 0, 0, 70, 11, 0, 0, 0, 0, 0, 0, 29, 24, 0, 0, 0, 0, 0, 0, 0, 0, 0, 0, 0, 0, 0, 0, 29, 6, 0, 0, 0, 0, 0, 0, 29, 24, 0, 0, 0, 0, 0, 0, 0, 0, 0, 0, 0, 0, 0, 0, 0, 0, 0, 0, 0, 0, 0, 0, 70, 42, 0, 0, 0, 0, 0, 0, 0, 0, 0, 0, 0, 0, 0, 0, 29, 24, 0, 0, 0, 0, 0, 0
1, 0, Sequencer_specific, 126, 0, 0, 0, 106, 0, 1, 0, 0, 0, 0, 0, 0, 0, 0, 64, 29, 0, 0, 0, 0, 0, 0, 70, 11, 0, 0, 0, 0, 0, 0, 29, 6, 0, 0, 0, 0, 0, 0, 0, 0, 0, 0, 0, 0, 0, 0, 1, 6, 0, 0, 0, 0, 0, 0, 0, 0, 0, 0, 0, 0, 0, 0, 0, 0, 0, 0, 0, 0, 0, 0, 64, 24, 0, 0, 0, 0, 0, 0, 70, 42, 0, 0, 0, 0, 0, 0, 0, 0, 0, 0, 0, 0, 0, 0, 29, 24, 0, 0, 0, 0, 0, 0, 0, 0, 0, 0, 0, 0, 0, 0, 64, 1, 0, 0, 0, 0, 0, 0, 70, 42, 0, 0, 0, 0, 0, 0
1, 0, Sequencer_specific, 126, 0, 0, 0, 106, 0, 1, 1, 24, 0, 0, 0, 0, 0, 0, 0, 0, 0, 0, 0, 0, 0, 0, 29, 24, 0, 0, 0, 0, 0, 0, 1, 6, 0, 0, 0, 0, 0, 0, 1, 6, 0, 0, 0, 0, 0, 0, 1, 6, 0, 0, 0, 0, 0, 0, 70, 11, 0, 0, 0, 0, 0, 0, 0, 0, 0, 0, 0, 0, 0, 0, 1, 6, 0, 0, 0, 0, 0, 0, 0, 0, 0, 0, 0, 0, 0, 0, 64, 1, 0, 0, 0, 0, 0, 0, 70, 11, 0, 0, 0, 0, 0, 0, 1, 6, 0, 0, 0, 0, 0, 0, 0, 0, 0, 0, 0, 0, 0, 0, 1, 6, 0, 0, 0, 0, 0, 0
1, 0, Sequencer_specific, 126, 0, 0, 0, 106, 0, 1, 1, 6, 0, 0, 0, 0, 0, 0, 1, 6, 0, 0, 0, 0, 0, 0, 1, 6, 0, 0, 0, 0, 0, 0, 70, 11, 0, 0, 0, 0, 0, 0, 0, 0, 0, 0, 0, 0, 0, 0, 1, 6, 0, 0, 0, 0, 0, 0, 0, 0, 0, 0, 0, 0, 0, 0, 64, 1, 0, 0, 0, 0, 0, 0, 70, 11, 0, 0, 0, 0, 0, 0, 1, 6, 0, 0, 0, 0, 0, 0, 0, 0, 0, 0, 0, 0, 0, 0, 1, 6, 0, 0, 0, 0, 0, 0, 1, 6, 0, 0, 0, 0, 0, 0, 1, 6, 0, 0, 0, 0, 0, 0, 1, 6, 0, 0, 0, 0, 0, 0
1, 0, Sequencer_specific, 126, 0, 0, 0, 106, 0, 1, 70, 11, 0, 0, 0, 0, 0, 0, 0, 0, 0, 0, 0, 0, 0, 0, 1, 6, 0, 0, 0, 0, 0, 0, 0, 0, 0, 0, 0, 0, 0, 0, 64, 1, 0, 0, 0, 0, 0, 0, 70, 11, 0, 0, 0, 0, 0, 0, 1, 6, 0, 0, 0, 0, 0, 0, 0, 0, 0, 0, 0, 0, 0, 0, 1, 6, 0, 0, 0, 0, 0, 0, 1, 6, 0, 0, 0, 0, 0, 0, 0, 0, 0, 0, 0, 0, 0, 0, 0, 0, 0, 0, 0, 0, 0, 0, 70, 11, 0, 0, 0, 0, 0, 0, 0, 0, 0, 0, 0, 0, 0, 0, 1, 6, 0, 0, 0, 0, 0, 0
1, 0, Sequencer_specific, 32, 0, 0, 0, 106, 0, 1, 0, 0, 0, 0, 0, 0, 0, 0, 64, 1, 0, 0, 0, 0, 0, 0, 70, 11, 0, 0, 0, 0, 0, 0, 1, 6
1, 0, Sequencer_specific, 120, 0, 0, 0, 106, 0, 6, 0, 0, 1, 0, 0, 0, 2, 0, 0, 0, 0, 0, 0, 0, 1, 0, 0, 0, 2, 0, 0, 0, 0, 0, 0, 0, 1, 0, 0, 0, 2, 0, 0, 0, 0, 0, 0, 0, 1, 0, 0, 0, 0, 0, 0, 0, 0, 0, 0, 0, 2, 0, 0, 0, 0, 0, 0, 0, 0, 0, 0, 0, 1, 0, 0, 0, 2, 0, 0, 0, 0, 0, 0, 0, 1, 0, 0, 0, 2, 0, 0, 0, 0, 0, 0, 0, 1, 0, 0, 0, 2, 0, 0, 0, 0, 0, 0, 0, 1, 0, 0, 0, 0, 0, 0, 0, 0, 0, 1, 0, 0, 0, 0, 0
1, 0, Tempo, 315789
1, 0, Time_signature, 4, 2, 24, 8
1, 0, End_track
2, 0, Start_track
2, 0, MIDI_port, 0
2, 0, Sequencer_specific, 7, 0, 0, 0, 106, 0, 4, 0
2, 0, Title_t, "Long Tall Sally"
2, 0, System_exclusive, 5, 126, 127, 9, 1, 247
2, 0, End_track
3, 0, Start_track
3, 0, MIDI_port, 0
3, 0, Sequencer_specific, 7, 0, 0, 0, 106, 0, 4, 0
3, 0, Title_t, "Soft Karaoke"
3, 0, Text_t, "@K MIDI KARAOKE FILE "
3, 0, Text_t, "@V0100 "
3, 0, End_track
4, 0, Start_track
4, 0, MIDI_port, 0
4, 0, Sequencer_specific, 7, 0, 0, 0, 106, 0, 4, 0
4, 0, Title_t, "Words"
4, 0, Text_t, "@LENGL "
4, 0, Text_t, "@TLong Tall Sally "
4, 0, Text_t, "@TJohnson, Penniman and Blackwell "
4, 0, Text_t, "@TSeq by Richard Williams 2002-05\012\012\012\012\012\012\012\012"
4, 840, Text_t, "\\Gon"
4, 900, Text_t, "na"
4, 960, Text_t, " tell"
4, 1080, Text_t, " Aunt"
4, 1200, Text_t, " Ma"
4, 1320, Text_t, "ry"
4, 1440, Text_t, "/'bout"
4, 1560, Text_t, " Unc"
4, 1620, Text_t, "le"
4, 1680, Text_t, " John"
4, 1860, Text_t, "/He"
4, 1920, Text_t, " says"
4, 1980, Text_t, " he"
4, 2040, Text_t, " has"
4, 2100, Text_t, " the"
4, 2160, Text_t, " blues"
4, 2280, Text_t, "/but"
4, 2340, Text_t, " he"
4, 2400, Text_t, " has"
4, 2460, Text_t, "/a"
4, 2520, Text_t, " lot"
4, 2580, Text_t, " of"
4, 2640, Text_t, " fun"
4, 2760, Text_t, "/Oh,"
4, 2880, Text_t, " ba"
4, 3000, Text_t, "by"
4, 3360, Text_t, "/Ye-"
4, 3480, Text_t, "e-"
4, 3600, Text_t, "e-"
4, 3720, Text_t, "es"
4, 3840, Text_t, " ba"
4, 3960, Text_t, "by"
4, 4320, Text_t, "/Woo-"
4, 4440, Text_t, "oo-"
4, 4560, Text_t, "oo-"
4, 4680, Text_t, "oo"
4, 4800, Text_t, " ba"
4, 4860, Text_t, "b"
4, 4980, Text_t, "y"
4, 5280, Text_t, "/Hav"
4, 5340, Text_t, "in'"
4, 5400, Text_t, " me"
4, 5460, Text_t, " some"
4, 5520, Text_t, " fun"
4, 5700, Text_t, "/to"
4, 5760, Text_t, "ni"
4, 5880, Text_t, "ght."
4, 6240, Text_t, " Ye"
4, 6300, Text_t, "a"
4, 6360, Text_t, "h!"
4, 6600, Text_t, "/Well"
4, 6720, Text_t, " Long"
4, 6840, Text_t, " Tall"
4, 6960, Text_t, " Sal"
4, 7020, Text_t, "ly"
4, 7080, Text_t, "/has"
4, 7140, Text_t, " a"
4, 7200, Text_t, " lot"
4, 7320, Text_t, " on"
4, 7380, Text_t, " the"
4, 7440, Text_t, " ball"
4, 7620, Text_t, "/And"
4, 7680, Text_t, " no"
4, 7800, Text_t, "bod"
4, 7860, Text_t, "y"
4, 7920, Text_t, " cares"
4, 8040, Text_t, "/if"
4, 8100, Text_t, " she's"
4, 8160, Text_t, " long"
4, 8280, Text_t, " and"
4, 8400, Text_t, " tall"
4, 8520, Text_t, "/Oh,"
4, 8640, Text_t, " ba"
4, 8760, Text_t, "by"
4, 9120, Text_t, "/Ye-"
4, 9240, Text_t, "e-"
4, 9360, Text_t, "e-"
4, 9480, Text_t, "es"
4, 9600, Text_t, " ba"
4, 9720, Text_t, "by"
4, 10080, Text_t, "/Woo-"
4, 10200, Text_t, "oo-"
4, 10320, Text_t, "oo-"
4, 10440, Text_t, "oo"
4, 10560, Text_t, " ba"
4, 10620, Text_t, "b"
4, 10740, Text_t, "y"
4, 11040, Text_t, "/Hav"
4, 11100, Text_t, "in'"
4, 11160, Text_t, " me"
4, 11220, Text_t, " some"
4, 11280, Text_t, " fun"
4, 11460, Text_t, "/to"
4, 11520, Text_t, "ni"
4, 11640, Text_t, "ght."
4, 12000, Text_t, " Ye"
4, 12060, Text_t, "a"
4, 12120, Text_t, "h!"
4, 12360, Text_t, "/Well"
4, 12420, Text_t, " I"
4, 12480, Text_t, " saw"
4, 12600, Text_t, " Un"
4, 12660, Text_t, "cle"
4, 12720, Text_t, " John"
4, 12840, Text_t, "/with"
4, 12960, Text_t, " Long"
4, 13080, Text_t, " Tall"
4, 13200, Text_t, " Sal"
4, 13260, Text_t, "ly"
4, 13380, Text_t, "/He"
4, 13440, Text_t, " saw"
4, 13500, Text_t, " Aunt"
4, 13560, Text_t, " Ma"
4, 13620, Text_t, "ry"
4, 13680, Text_t, " com"
4, 13740, Text_t, "in'"
4, 13800, Text_t, "/and"
4, 13860, Text_t, " he"
4, 13920, Text_t, " ducked"
4, 13980, Text_t, "/back"
4, 14040, Text_t, " in"
4, 14100, Text_t, " the"
4, 14160, Text_t, " al"
4, 14220, Text_t, "ley"
4, 14280, Text_t, "/Oh,"
4, 14400, Text_t, " ba"
4, 14520, Text_t, "by"
4, 14880, Text_t, "/Ye-"
4, 15000, Text_t, "e-"
4, 15120, Text_t, "e-"
4, 15240, Text_t, "es"
4, 15360, Text_t, " ba"
4, 15480, Text_t, "by"
4, 15840, Text_t, "/Woo-"
4, 15960, Text_t, "oo-"
4, 16080, Text_t, "oo-"
4, 16200, Text_t, "oo"
4, 16320, Text_t, " ba"
4, 16380, Text_t, "b"
4, 16500, Text_t, "y"
4, 16800, Text_t, "/Hav"
4, 16860, Text_t, "in'"
4, 16920, Text_t, " me"
4, 16980, Text_t, " some"
4, 17040, Text_t, " fun"
4, 17220, Text_t, "/to"
4, 17280, Text_t, "ni"
4, 17400, Text_t, "ght."
4, 17760, Text_t, " Ye"
4, 17820, Text_t, "a"
4, 17880, Text_t, "h!"
4, 18060, Text_t, "/We're"
4, 18120, Text_t, " gon"
4, 18180, Text_t, "na"
4, 18240, Text_t, " have"
4, 18360, Text_t, "/some"
4, 18480, Text_t, " fun"
4, 18600, Text_t, " to"
4, 18660, Text_t, "night"
4, 19080, Text_t, "/Gon"
4, 19170, Text_t, "na"
4, 19200, Text_t, " have"
4, 19320, Text_t, " some"
4, 19440, Text_t, " fun"
4, 19560, Text_t, "/to"
4, 19620, Text_t, "night."
4, 19800, Text_t, " Woo!"
4, 19980, Text_t, "/We're"
4, 20040, Text_t, " gon"
4, 20100, Text_t, "na"
4, 20160, Text_t, " have"
4, 20280, Text_t, " some"
4, 20400, Text_t, "/fun"
4, 20520, Text_t, " to"
4, 20580, Text_t, "night."
4, 21120, Text_t, "/Ev"
4, 21180, Text_t, "'ry"
4, 21240, Text_t, "thing"
4, 21300, Text_t, " will"
4, 21360, Text_t, " be"
4, 21480, Text_t, " al"
4, 21540, Text_t, "right"
4, 21900, Text_t, "/We're"
4, 21960, Text_t, " gon"
4, 22020, Text_t, "na"
4, 22080, Text_t, " have"
4, 22200, Text_t, " some"
4, 22320, Text_t, " fun"
4, 22440, Text_t, "/gon"
4, 22500, Text_t, "na"
4, 22560, Text_t, " have"
4, 22680, Text_t, " some"
4, 22800, Text_t, " fun"
4, 22920, Text_t, " to"
4, 22980, Text_t, "night!"
4, 29640, Text_t, "/Gon"
4, 29700, Text_t, "na"
4, 29760, Text_t, " tell"
4, 29880, Text_t, " Aunt"
4, 30000, Text_t, " Ma"
4, 30120, Text_t, "ry"
4, 30240, Text_t, "/'bout"
4, 30360, Text_t, " Un"
4, 30420, Text_t, "cle"
4, 30480, Text_t, " John"
4, 30660, Text_t, "/He"
4, 30720, Text_t, " says"
4, 30780, Text_t, " he"
4, 30840, Text_t, " has"
4, 30900, Text_t, " the"
4, 30960, Text_t, " blues,"
4, 31080, Text_t, "/But"
4, 31140, Text_t, " he"
4, 31200, Text_t, " has"
4, 31260, Text_t, "/a"
4, 31320, Text_t, " lot"
4, 31380, Text_t, " of"
4, 31440, Text_t, " fun"
4, 31560, Text_t, "/Oh"
4, 31680, Text_t, " ba"
4, 31800, Text_t, "by"
4, 32160, Text_t, "/Ye-"
4, 32280, Text_t, "e-"
4, 32400, Text_t, "e-"
4, 32520, Text_t, "es"
4, 32640, Text_t, " ba"
4, 32760, Text_t, "by"
4, 33120, Text_t, "/Woo-"
4, 33240, Text_t, "oo-"
4, 33360, Text_t, "oo-"
4, 33480, Text_t, "oo"
4, 33600, Text_t, " ba"
4, 33660, Text_t, "b"
4, 33780, Text_t, "y"
4, 34080, Text_t, "/Hav"
4, 34140, Text_t, "in'"
4, 34200, Text_t, " me"
4, 34260, Text_t, " some"
4, 34320, Text_t, " fun"
4, 34500, Text_t, "/to"
4, 34560, Text_t, "ni"
4, 34680, Text_t, "ght."
4, 35040, Text_t, " Ye"
4, 35100, Text_t, "a"
4, 35160, Text_t, "h!"
4, 35400, Text_t, "/Well"
4, 35520, Text_t, " Long"
4, 35640, Text_t, " Tall"
4, 35760, Text_t, " Sal"
4, 35820, Text_t, "ly"
4, 35880, Text_t, "/has"
4, 35940, Text_t, " a"
4, 36000, Text_t, " lot"
4, 36120, Text_t, " on"
4, 36180, Text_t, " the"
4, 36240, Text_t, " ball"
4, 36420, Text_t, "/And"
4, 36480, Text_t, " no"
4, 36600, Text_t, "bod"
4, 36660, Text_t, "y"
4, 36720, Text_t, " cares"
4, 36840, Text_t, "/if"
4, 36900, Text_t, " she's"
4, 36960, Text_t, " long"
4, 37080, Text_t, " and"
4, 37200, Text_t, " tall"
4, 37320, Text_t, "/Oh"
4, 37440, Text_t, " ba"
4, 37560, Text_t, "by"
4, 37920, Text_t, "/Ye-"
4, 38040, Text_t, "e-"
4, 38160, Text_t, "e-"
4, 38280, Text_t, "es"
4, 38400, Text_t, " ba"
4, 38520, Text_t, "by"
4, 38880, Text_t, "/Woo-"
4, 39000, Text_t, "oo-"
4, 39120, Text_t, "oo-"
4, 39240, Text_t, "oo"
4, 39360, Text_t, " ba"
4, 39420, Text_t, "b"
4, 39540, Text_t, "y"
4, 39840, Text_t, "/Hav"
4, 39900, Text_t, "in'"
4, 39960, Text_t, " me"
4, 40020, Text_t, " some"
4, 40080, Text_t, " fun"
4, 40260, Text_t, "/to"
4, 40320, Text_t, "ni"
4, 40440, Text_t, "ght."
4, 40800, Text_t, " Ye"
4, 40860, Text_t, "a"
4, 40920, Text_t, "h!"
4, 41160, Text_t, "/Well"
4, 41220, Text_t, " I"
4, 41280, Text_t, " saw"
4, 41400, Text_t, " Un"
4, 41460, Text_t, "cle"
4, 41520, Text_t, " John"
4, 41640, Text_t, "/with"
4, 41760, Text_t, " Long"
4, 41880, Text_t, " Tall"
4, 42000, Text_t, " Sal"
4, 42060, Text_t, "ly"
4, 42180, Text_t, "/he"
4, 42240, Text_t, " saw"
4, 42300, Text_t, " Aunt"
4, 42360, Text_t, " Ma"
4, 42420, Text_t, "ry"
4, 42480, Text_t, " com"
4, 42540, Text_t, "in'"
4, 42600, Text_t, "/And"
4, 42660, Text_t, " he"
4, 42720, Text_t, " ducked"
4, 42780, Text_t, "/back"
4, 42840, Text_t, " in"
4, 42900, Text_t, " the"
4, 42960, Text_t, " al"
4, 43020, Text_t, "ley"
4, 43080, Text_t, "/Oh"
4, 43200, Text_t, " ba"
4, 43320, Text_t, "by"
4, 43680, Text_t, "/Ye-"
4, 43800, Text_t, "e-"
4, 43920, Text_t, "e-"
4, 44040, Text_t, "es"
4, 44160, Text_t, " ba"
4, 44280, Text_t, "by"
4, 44640, Text_t, "/Woo-"
4, 44760, Text_t, "oo-"
4, 44880, Text_t, "oo-"
4, 45000, Text_t, "oo"
4, 45120, Text_t, " ba"
4, 45180, Text_t, "b"
4, 45300, Text_t, "y"
4, 45600, Text_t, "/Hav"
4, 45660, Text_t, "in'"
4, 45720, Text_t, " me"
4, 45780, Text_t, " some"
4, 45840, Text_t, " fun"
4, 46020, Text_t, "/to"
4, 46080, Text_t, "ni"
4, 46200, Text_t, "ght."
4, 46560, Text_t, " Ye"
4, 46620, Text_t, "a"
4, 46680, Text_t, "h!"
4, 46860, Text_t, "/We're"
4, 46920, Text_t, " gon"
4, 46980, Text_t, "na"
4, 47040, Text_t, " have"
4, 47160, Text_t, "/some"
4, 47280, Text_t, " fun"
4, 47400, Text_t, " to"
4, 47460, Text_t, "night"
4, 47880, Text_t, "/Gon"
4, 47970, Text_t, "na"
4, 48000, Text_t, " have"
4, 48120, Text_t, " some"
4, 48240, Text_t, " fun"
4, 48360, Text_t, "/to"
4, 48420, Text_t, "night."
4, 48600, Text_t, " Woo!"
4, 48780, Text_t, "/We're"
4, 48840, Text_t, " gon"
4, 48900, Text_t, "na"
4, 48960, Text_t, " have"
4, 49080, Text_t, "/some"
4, 49200, Text_t, " fun"
4, 49320, Text_t, " to"
4, 49380, Text_t, "night"
4, 49920, Text_t, "/Ev"
4, 49980, Text_t, "'ry"
4, 50040, Text_t, "thing"
4, 50100, Text_t, " will"
4, 50160, Text_t, " be"
4, 50280, Text_t, " al"
4, 50340, Text_t, "right"
4, 50700, Text_t, "/We're"
4, 50760, Text_t, " gon"
4, 50820, Text_t, "na"
4, 50880, Text_t, " have"
4, 51000, Text_t, " some"
4, 51120, Text_t, " fun"
4, 51240, Text_t, "/gon"
4, 51300, Text_t, "na"
4, 51360, Text_t, " have"
4, 51480, Text_t, " some"
4, 51600, Text_t, " fun"
4, 51720, Text_t, " to"
4, 51780, Text_t, "night!"
4, 51780, End_track
5, 0, Start_track
5, 0, MIDI_port, 0
5, 0, Sequencer_specific, 7, 0, 0, 0, 106, 0, 4, 4
5, 0, Title_t, "Melody"
5, 0, Program_c, 3, 18
5, 0, Control_c, 3, 121, 0
5, 53, Control_c, 3, 7, 110
5, 54, Control_c, 3, 10, 64
5, 55, Control_c, 3, 123, 0
5, 56, Control_c, 3, 91, 65
5, 57, Control_c, 3, 93, 0
5, 58, Control_c, 3, 76, 64
5, 59, Control_c, 3, 1, 0
5, 849, Note_on_c, 3, 80, 103
5, 892, Note_on_c, 3, 80, 0
5, 909, Note_on_c, 3, 80, 102
5, 950, Note_on_c, 3, 80, 0
5, 969, Note_on_c, 3, 80, 103
5, 1046, Note_on_c, 3, 80, 0
5, 1089, Note_on_c, 3, 80, 121
5, 1147, Note_on_c, 3, 80, 0
5, 1209, Note_on_c, 3, 80, 120
5, 1285, Note_on_c, 3, 80, 0
5, 1329, Note_on_c, 3, 80, 121
5, 1393, Note_on_c, 3, 80, 0
5, 1449, Note_on_c, 3, 80, 101
5, 1515, Note_on_c, 3, 80, 0
5, 1569, Note_on_c, 3, 80, 67
5, 1619, Note_on_c, 3, 80, 0
5, 1629, Note_on_c, 3, 80, 85
5, 1669, Note_on_c, 3, 80, 0
5, 1689, Note_on_c, 3, 80, 99
5, 1813, Note_on_c, 3, 80, 0
5, 1869, Note_on_c, 3, 77, 98
5, 1910, Note_on_c, 3, 77, 0
5, 1929, Note_on_c, 3, 80, 88
5, 1977, Note_on_c, 3, 80, 0
5, 1989, Note_on_c, 3, 80, 100
5, 2029, Note_on_c, 3, 80, 0
5, 2049, Note_on_c, 3, 80, 75
5, 2092, Note_on_c, 3, 80, 0
5, 2109, Note_on_c, 3, 80, 110
5, 2152, Note_on_c, 3, 80, 0
5, 2169, Note_on_c, 3, 80, 92
5, 2249, Note_on_c, 3, 80, 0
5, 2289, Note_on_c, 3, 80, 73
5, 2336, Note_on_c, 3, 80, 0
5, 2349, Note_on_c, 3, 80, 104
5, 2390, Note_on_c, 3, 80, 0
5, 2409, Note_on_c, 3, 80, 66
5, 2457, Note_on_c, 3, 80, 0
5, 2469, Note_on_c, 3, 80, 87
5, 2513, Note_on_c, 3, 80, 0
5, 2529, Note_on_c, 3, 80, 89
5, 2578, Note_on_c, 3, 80, 0
5, 2589, Note_on_c, 3, 80, 93
5, 2629, Note_on_c, 3, 80, 0
5, 2649, Note_on_c, 3, 80, 104
5, 2708, Note_on_c, 3, 80, 0
5, 2769, Note_on_c, 3, 79, 124
5, 2819, Note_on_c, 3, 79, 0
5, 2889, Note_on_c, 3, 77, 97
5, 2972, Note_on_c, 3, 77, 0
5, 3009, Note_on_c, 3, 79, 110
5, 3109, Note_on_c, 3, 79, 0
5, 3120, Control_c, 3, 86, 37
5, 3369, Note_on_c, 3, 84, 118
5, 3435, Note_on_c, 3, 84, 0
5, 3489, Note_on_c, 3, 82, 112
5, 3569, Note_on_c, 3, 82, 0
5, 3609, Note_on_c, 3, 80, 99
5, 3697, Note_on_c, 3, 80, 0
5, 3729, Note_on_c, 3, 77, 116
5, 3794, Note_on_c, 3, 77, 0
5, 3849, Note_on_c, 3, 81, 120
5, 3927, Note_on_c, 3, 81, 0
5, 3969, Note_on_c, 3, 77, 107
5, 4080, Control_c, 3, 86, 37
5, 4105, Note_on_c, 3, 77, 0
5, 4329, Note_on_c, 3, 89, 97
5, 4395, Note_on_c, 3, 89, 0
5, 4449, Note_on_c, 3, 87, 86
5, 4500, Note_on_c, 3, 87, 0
5, 4510, Note_on_c, 3, 89, 79
5, 4530, Note_on_c, 3, 89, 0
5, 4538, Note_on_c, 3, 87, 74
5, 4563, Note_on_c, 3, 87, 0
5, 4569, Note_on_c, 3, 84, 117
5, 4625, Note_on_c, 3, 84, 0
5, 4689, Note_on_c, 3, 81, 108
5, 4774, Note_on_c, 3, 81, 0
5, 4809, Note_on_c, 3, 79, 100
5, 4855, Note_on_c, 3, 79, 0
5, 4869, Note_on_c, 3, 76, 116
5, 4921, Note_on_c, 3, 76, 0
5, 4989, Note_on_c, 3, 72, 103
5, 5187, Note_on_c, 3, 72, 0
5, 5289, Note_on_c, 3, 74, 83
5, 5337, Note_on_c, 3, 74, 0
5, 5349, Note_on_c, 3, 77, 79
5, 5393, Note_on_c, 3, 77, 0
5, 5409, Note_on_c, 3, 79, 95
5, 5456, Note_on_c, 3, 79, 0
5, 5469, Note_on_c, 3, 77, 90
5, 5517, Note_on_c, 3, 77, 0
5, 5529, Note_on_c, 3, 79, 106
5, 5642, Note_on_c, 3, 79, 0
5, 5709, Note_on_c, 3, 77, 84
5, 5758, Note_on_c, 3, 77, 0
5, 5769, Note_on_c, 3, 74, 95
5, 5847, Note_on_c, 3, 74, 0
5, 5889, Note_on_c, 3, 72, 97
5, 6173, Note_on_c, 3, 72, 0
5, 6249, Note_on_c, 3, 77, 82
5, 6297, Note_on_c, 3, 77, 0
5, 6309, Note_on_c, 3, 74, 60
5, 6356, Note_on_c, 3, 74, 0
5, 6369, Note_on_c, 3, 72, 110
5, 6542, Note_on_c, 3, 72, 0
5, 6609, Note_on_c, 3, 80, 82
5, 6687, Note_on_c, 3, 80, 0
5, 6729, Note_on_c, 3, 80, 98
5, 6818, Note_on_c, 3, 80, 0
5, 6849, Note_on_c, 3, 80, 106
5, 6928, Note_on_c, 3, 80, 0
5, 6969, Note_on_c, 3, 80, 73
5, 7023, Note_on_c, 3, 80, 0
5, 7029, Note_on_c, 3, 80, 109
5, 7073, Note_on_c, 3, 80, 0
5, 7089, Note_on_c, 3, 80, 82
5, 7131, Note_on_c, 3, 80, 0
5, 7149, Note_on_c, 3, 80, 107
5, 7185, Note_on_c, 3, 80, 0
5, 7209, Note_on_c, 3, 80, 91
5, 7289, Note_on_c, 3, 80, 0
5, 7329, Note_on_c, 3, 80, 89
5, 7375, Note_on_c, 3, 80, 0
5, 7389, Note_on_c, 3, 80, 75
5, 7441, Note_on_c, 3, 80, 0
5, 7449, Note_on_c, 3, 80, 108
5, 7570, Note_on_c, 3, 80, 0
5, 7629, Note_on_c, 3, 77, 92
5, 7676, Note_on_c, 3, 77, 0
5, 7689, Note_on_c, 3, 80, 115
5, 7750, Note_on_c, 3, 80, 0
5, 7809, Note_on_c, 3, 80, 79
5, 7855, Note_on_c, 3, 80, 0
5, 7869, Note_on_c, 3, 80, 80
5, 7918, Note_on_c, 3, 80, 0
5, 7929, Note_on_c, 3, 80, 89
5, 7955, Note_on_c, 3, 80, 0
5, 7968, Note_on_c, 3, 82, 83
5, 7987, Note_on_c, 3, 80, 83
5, 8004, Note_on_c, 3, 82, 0
5, 8016, Note_on_c, 3, 79, 73
5, 8023, Note_on_c, 3, 80, 0
5, 8048, Note_on_c, 3, 79, 0
5, 8049, Note_on_c, 3, 80, 100
5, 8092, Note_on_c, 3, 80, 0
5, 8109, Note_on_c, 3, 80, 94
5, 8152, Note_on_c, 3, 80, 0
5, 8169, Note_on_c, 3, 80, 96
5, 8251, Note_on_c, 3, 80, 0
5, 8289, Note_on_c, 3, 80, 106
5, 8368, Note_on_c, 3, 80, 0
5, 8409, Note_on_c, 3, 80, 116
5, 8467, Note_on_c, 3, 80, 0
5, 8529, Note_on_c, 3, 79, 83
5, 8605, Note_on_c, 3, 79, 0
5, 8649, Note_on_c, 3, 77, 90
5, 8735, Note_on_c, 3, 77, 0
5, 8769, Note_on_c, 3, 79, 96
5, 8880, Control_c, 3, 86, 37
5, 8881, Note_on_c, 3, 79, 0
5, 9129, Note_on_c, 3, 84, 121
5, 9193, Note_on_c, 3, 84, 0
5, 9249, Note_on_c, 3, 82, 115
5, 9320, Note_on_c, 3, 82, 0
5, 9369, Note_on_c, 3, 80, 118
5, 9429, Note_on_c, 3, 80, 0
5, 9489, Note_on_c, 3, 77, 94
5, 9566, Note_on_c, 3, 77, 0
5, 9609, Note_on_c, 3, 81, 109
5, 9683, Note_on_c, 3, 81, 0
5, 9729, Note_on_c, 3, 77, 124
5, 9840, Control_c, 3, 86, 37
5, 9862, Note_on_c, 3, 77, 0
5, 10089, Note_on_c, 3, 89, 92
5, 10167, Note_on_c, 3, 89, 0
5, 10209, Note_on_c, 3, 87, 109
5, 10281, Note_on_c, 3, 87, 0
5, 10329, Note_on_c, 3, 84, 99
5, 10377, Note_on_c, 3, 84, 0
5, 10390, Note_on_c, 3, 83, 74
5, 10411, Note_on_c, 3, 83, 0
5, 10417, Note_on_c, 3, 82, 70
5, 10445, Note_on_c, 3, 82, 0
5, 10449, Note_on_c, 3, 81, 109
5, 10523, Note_on_c, 3, 81, 0
5, 10569, Note_on_c, 3, 78, 107
5, 10569, Control_c, 3, 85, 34
5, 10591, Note_on_c, 3, 78, 0
5, 10592, Note_on_c, 3, 79, 100
5, 10629, Note_on_c, 3, 76, 99
5, 10636, Note_on_c, 3, 79, 0
5, 10696, Note_on_c, 3, 76, 0
5, 10749, Note_on_c, 3, 72, 96
5, 10965, Note_on_c, 3, 72, 0
5, 11049, Note_on_c, 3, 74, 79
5, 11095, Note_on_c, 3, 74, 0
5, 11109, Note_on_c, 3, 77, 103
5, 11150, Note_on_c, 3, 77, 0
5, 11169, Note_on_c, 3, 79, 99
5, 11211, Note_on_c, 3, 79, 0
5, 11229, Note_on_c, 3, 77, 72
5, 11280, Note_on_c, 3, 77, 0
5, 11289, Note_on_c, 3, 79, 96
5, 11410, Note_on_c, 3, 79, 0
5, 11469, Note_on_c, 3, 77, 85
5, 11523, Note_on_c, 3, 77, 0
5, 11529, Note_on_c, 3, 74, 99
5, 11605, Note_on_c, 3, 74, 0
5, 11649, Note_on_c, 3, 72, 117
5, 11865, Note_on_c, 3, 72, 0
5, 12009, Note_on_c, 3, 77, 104
5, 12047, Note_on_c, 3, 77, 0
5, 12069, Note_on_c, 3, 74, 79
5, 12110, Note_on_c, 3, 74, 0
5, 12129, Note_on_c, 3, 72, 111
5, 12285, Note_on_c, 3, 72, 0
5, 12369, Note_on_c, 3, 80, 102
5, 12409, Note_on_c, 3, 80, 0
5, 12429, Note_on_c, 3, 80, 68
5, 12479, Note_on_c, 3, 80, 0
5, 12489, Note_on_c, 3, 80, 89
5, 12578, Note_on_c, 3, 80, 0
5, 12609, Note_on_c, 3, 80, 98
5, 12647, Note_on_c, 3, 80, 0
5, 12669, Note_on_c, 3, 80, 64
5, 12713, Note_on_c, 3, 80, 0
5, 12729, Note_on_c, 3, 80, 119
5, 12785, Note_on_c, 3, 80, 0
5, 12849, Note_on_c, 3, 80, 98
5, 12938, Note_on_c, 3, 80, 0
5, 12969, Note_on_c, 3, 80, 107
5, 13039, Note_on_c, 3, 80, 0
5, 13089, Note_on_c, 3, 80, 109
5, 13173, Note_on_c, 3, 80, 0
5, 13209, Note_on_c, 3, 80, 95
5, 13252, Note_on_c, 3, 80, 0
5, 13269, Note_on_c, 3, 80, 104
5, 13336, Note_on_c, 3, 80, 0
5, 13389, Note_on_c, 3, 77, 83
5, 13433, Note_on_c, 3, 77, 0
5, 13449, Note_on_c, 3, 80, 81
5, 13496, Note_on_c, 3, 80, 0
5, 13509, Note_on_c, 3, 80, 82
5, 13551, Note_on_c, 3, 80, 0
5, 13569, Note_on_c, 3, 80, 96
5, 13606, Note_on_c, 3, 80, 0
5, 13629, Note_on_c, 3, 80, 99
5, 13670, Note_on_c, 3, 80, 0
5, 13689, Note_on_c, 3, 80, 92
5, 13731, Note_on_c, 3, 80, 0
5, 13749, Note_on_c, 3, 80, 80
5, 13798, Note_on_c, 3, 80, 0
5, 13809, Note_on_c, 3, 80, 66
5, 13856, Note_on_c, 3, 80, 0
5, 13869, Note_on_c, 3, 80, 84
5, 13909, Note_on_c, 3, 80, 0
5, 13929, Note_on_c, 3, 80, 102
5, 13970, Note_on_c, 3, 80, 0
5, 13989, Note_on_c, 3, 80, 75
5, 14037, Note_on_c, 3, 80, 0
5, 14049, Note_on_c, 3, 80, 68
5, 14101, Note_on_c, 3, 80, 0
5, 14109, Note_on_c, 3, 80, 72
5, 14155, Note_on_c, 3, 80, 0
5, 14169, Note_on_c, 3, 80, 72
5, 14224, Note_on_c, 3, 80, 0
5, 14229, Note_on_c, 3, 80, 87
5, 14280, Note_on_c, 3, 80, 0
5, 14289, Note_on_c, 3, 79, 88
5, 14383, Note_on_c, 3, 79, 0
5, 14409, Note_on_c, 3, 77, 124
5, 14467, Note_on_c, 3, 77, 0
5, 14529, Note_on_c, 3, 79, 97
5, 14640, Control_c, 3, 86, 37
5, 14641, Note_on_c, 3, 79, 0
5, 14889, Note_on_c, 3, 84, 102
5, 14953, Note_on_c, 3, 84, 0
5, 15009, Note_on_c, 3, 82, 105
5, 15089, Note_on_c, 3, 82, 0
5, 15129, Note_on_c, 3, 80, 95
5, 15215, Note_on_c, 3, 80, 0
5, 15249, Note_on_c, 3, 77, 115
5, 15308, Note_on_c, 3, 77, 0
5, 15369, Note_on_c, 3, 81, 112
5, 15445, Note_on_c, 3, 81, 0
5, 15489, Note_on_c, 3, 77, 104
5, 15600, Control_c, 3, 86, 37
5, 15626, Note_on_c, 3, 77, 0
5, 15849, Note_on_c, 3, 88, 110
5, 15849, Control_c, 3, 85, 34
5, 15871, Note_on_c, 3, 88, 0
5, 15872, Note_on_c, 3, 89, 99
5, 15942, Note_on_c, 3, 89, 0
5, 15969, Note_on_c, 3, 87, 127
5, 16039, Note_on_c, 3, 87, 0
5, 16089, Note_on_c, 3, 84, 126
5, 16139, Note_on_c, 3, 84, 0
5, 16209, Note_on_c, 3, 81, 110
5, 16282, Note_on_c, 3, 81, 0
5, 16329, Note_on_c, 3, 79, 97
5, 16366, Note_on_c, 3, 79, 0
5, 16389, Note_on_c, 3, 75, 101
5, 16389, Control_c, 3, 85, 34
5, 16411, Note_on_c, 3, 75, 0
5, 16412, Note_on_c, 3, 76, 95
5, 16498, Note_on_c, 3, 76, 0
5, 16509, Note_on_c, 3, 72, 111
5, 16665, Note_on_c, 3, 72, 0
5, 16809, Note_on_c, 3, 74, 97
5, 16856, Note_on_c, 3, 74, 0
5, 16869, Note_on_c, 3, 77, 93
5, 16915, Note_on_c, 3, 77, 0
5, 16929, Note_on_c, 3, 79, 81
5, 16973, Note_on_c, 3, 79, 0
5, 16989, Note_on_c, 3, 77, 84
5, 17035, Note_on_c, 3, 77, 0
5, 17049, Note_on_c, 3, 79, 97
5, 17144, Note_on_c, 3, 79, 0
5, 17229, Note_on_c, 3, 77, 73
5, 17279, Note_on_c, 3, 77, 0
5, 17289, Note_on_c, 3, 74, 99
5, 17324, Note_on_c, 3, 74, 0
5, 17347, Note_on_c, 3, 76, 103
5, 17372, Note_on_c, 3, 76, 0
5, 17381, Note_on_c, 3, 74, 66
5, 17405, Note_on_c, 3, 74, 0
5, 17409, Note_on_c, 3, 72, 115
5, 17585, Note_on_c, 3, 72, 0
5, 17769, Note_on_c, 3, 77, 97
5, 17807, Note_on_c, 3, 77, 0
5, 17829, Note_on_c, 3, 74, 77
5, 17884, Note_on_c, 3, 74, 0
5, 17889, Note_on_c, 3, 72, 100
5, 17984, Note_on_c, 3, 72, 0
5, 18000, Control_c, 3, 86, 37
5, 18069, Note_on_c, 3, 80, 102
5, 18109, Note_on_c, 3, 80, 0
5, 18129, Note_on_c, 3, 80, 84
5, 18174, Note_on_c, 3, 80, 0
5, 18189, Note_on_c, 3, 80, 94
5, 18229, Note_on_c, 3, 80, 0
5, 18249, Note_on_c, 3, 80, 92
5, 18326, Note_on_c, 3, 80, 0
5, 18369, Note_on_c, 3, 80, 108
5, 18447, Note_on_c, 3, 80, 0
5, 18489, Note_on_c, 3, 80, 103
5, 18569, Note_on_c, 3, 80, 0
5, 18609, Note_on_c, 3, 77, 93
5, 18646, Note_on_c, 3, 77, 0
5, 18669, Note_on_c, 3, 77, 94
5, 18955, Note_on_c, 3, 77, 0
5, 18960, Control_c, 3, 86, 37
5, 19089, Note_on_c, 3, 80, 104
5, 19153, Note_on_c, 3, 80, 0
5, 19179, Note_on_c, 3, 80, 91
5, 19200, Note_on_c, 3, 80, 0
5, 19209, Note_on_c, 3, 80, 110
5, 19279, Note_on_c, 3, 80, 0
5, 19329, Note_on_c, 3, 80, 117
5, 19397, Note_on_c, 3, 80, 0
5, 19449, Note_on_c, 3, 80, 119
5, 19509, Note_on_c, 3, 80, 0
5, 19569, Note_on_c, 3, 77, 93
5, 19607, Note_on_c, 3, 77, 0
5, 19629, Note_on_c, 3, 77, 116
5, 19724, Note_on_c, 3, 77, 0
5, 19809, Note_on_c, 3, 89, 106
5, 19917, Note_on_c, 3, 89, 0
5, 19989, Note_on_c, 3, 77, 100
5, 20030, Note_on_c, 3, 77, 0
5, 20049, Note_on_c, 3, 77, 69
5, 20102, Note_on_c, 3, 77, 0
5, 20109, Note_on_c, 3, 77, 83
5, 20159, Note_on_c, 3, 77, 0
5, 20169, Note_on_c, 3, 80, 92
5, 20245, Note_on_c, 3, 80, 0
5, 20289, Note_on_c, 3, 80, 90
5, 20373, Note_on_c, 3, 80, 0
5, 20409, Note_on_c, 3, 80, 79
5, 20494, Note_on_c, 3, 80, 0
5, 20529, Note_on_c, 3, 77, 90
5, 20567, Note_on_c, 3, 77, 0
5, 20589, Note_on_c, 3, 77, 99
5, 20837, Note_on_c, 3, 77, 0
5, 20880, Control_c, 3, 86, 37
5, 21129, Note_on_c, 3, 84, 74
5, 21177, Note_on_c, 3, 84, 0
5, 21189, Note_on_c, 3, 84, 91
5, 21235, Note_on_c, 3, 84, 0
5, 21249, Note_on_c, 3, 82, 93
5, 21290, Note_on_c, 3, 82, 0
5, 21309, Note_on_c, 3, 82, 89
5, 21358, Note_on_c, 3, 82, 0
5, 21369, Note_on_c, 3, 81, 107
5, 21439, Note_on_c, 3, 81, 0
5, 21489, Note_on_c, 3, 77, 97
5, 21529, Note_on_c, 3, 77, 0
5, 21549, Note_on_c, 3, 77, 91
5, 21794, Note_on_c, 3, 77, 0
5, 21840, Control_c, 3, 86, 37
5, 21909, Note_on_c, 3, 77, 77
5, 21955, Note_on_c, 3, 77, 0
5, 21969, Note_on_c, 3, 77, 95
5, 22009, Note_on_c, 3, 77, 0
5, 22029, Note_on_c, 3, 77, 80
5, 22076, Note_on_c, 3, 77, 0
5, 22089, Note_on_c, 3, 79, 79
5, 22136, Note_on_c, 3, 79, 0
5, 22150, Note_on_c, 3, 81, 97
5, 22174, Note_on_c, 3, 81, 0
5, 22181, Note_on_c, 3, 79, 77
5, 22204, Note_on_c, 3, 79, 0
5, 22209, Note_on_c, 3, 76, 113
5, 22275, Note_on_c, 3, 76, 0
5, 22329, Note_on_c, 3, 72, 113
5, 22397, Note_on_c, 3, 72, 0
5, 22449, Note_on_c, 3, 72, 81
5, 22492, Note_on_c, 3, 72, 0
5, 22509, Note_on_c, 3, 72, 88
5, 22558, Note_on_c, 3, 72, 0
5, 22569, Note_on_c, 3, 74, 115
5, 22643, Note_on_c, 3, 74, 0
5, 22689, Note_on_c, 3, 77, 100
5, 22757, Note_on_c, 3, 77, 0
5, 22809, Note_on_c, 3, 79, 122
5, 22874, Note_on_c, 3, 79, 0
5, 22929, Note_on_c, 3, 77, 95
5, 22973, Note_on_c, 3, 77, 0
5, 22989, Note_on_c, 3, 77, 102
5, 23502, Note_on_c, 3, 77, 0
5, 29649, Note_on_c, 3, 80, 80
5, 29699, Note_on_c, 3, 80, 0
5, 29709, Note_on_c, 3, 80, 105
5, 29745, Note_on_c, 3, 80, 0
5, 29769, Note_on_c, 3, 80, 75
5, 29800, Note_on_c, 3, 80, 0
5, 29805, Note_on_c, 3, 82, 96
5, 29820, Note_on_c, 3, 82, 0
5, 29827, Note_on_c, 3, 80, 89
5, 29850, Note_on_c, 3, 80, 0
5, 29855, Note_on_c, 3, 79, 73
5, 29884, Note_on_c, 3, 79, 0
5, 29889, Note_on_c, 3, 80, 115
5, 29941, Note_on_c, 3, 80, 0
5, 30009, Note_on_c, 3, 80, 109
5, 30082, Note_on_c, 3, 80, 0
5, 30129, Note_on_c, 3, 80, 99
5, 30220, Note_on_c, 3, 80, 0
5, 30249, Note_on_c, 3, 80, 100
5, 30315, Note_on_c, 3, 80, 0
5, 30369, Note_on_c, 3, 80, 99
5, 30407, Note_on_c, 3, 80, 0
5, 30429, Note_on_c, 3, 80, 82
5, 30482, Note_on_c, 3, 80, 0
5, 30489, Note_on_c, 3, 80, 102
5, 30577, Note_on_c, 3, 80, 0
5, 30669, Note_on_c, 3, 77, 75
5, 30718, Note_on_c, 3, 77, 0
5, 30729, Note_on_c, 3, 80, 66
5, 30779, Note_on_c, 3, 80, 0
5, 30789, Note_on_c, 3, 80, 85
5, 30832, Note_on_c, 3, 80, 0
5, 30849, Note_on_c, 3, 80, 94
5, 30895, Note_on_c, 3, 80, 0
5, 30909, Note_on_c, 3, 80, 104
5, 30956, Note_on_c, 3, 80, 0
5, 30969, Note_on_c, 3, 80, 115
5, 31041, Note_on_c, 3, 80, 0
5, 31089, Note_on_c, 3, 80, 97
5, 31136, Note_on_c, 3, 80, 0
5, 31149, Note_on_c, 3, 80, 73
5, 31195, Note_on_c, 3, 80, 0
5, 31209, Note_on_c, 3, 80, 89
5, 31254, Note_on_c, 3, 80, 0
5, 31269, Note_on_c, 3, 80, 93
5, 31318, Note_on_c, 3, 80, 0
5, 31329, Note_on_c, 3, 80, 96
5, 31373, Note_on_c, 3, 80, 0
5, 31389, Note_on_c, 3, 80, 79
5, 31440, Note_on_c, 3, 80, 0
5, 31449, Note_on_c, 3, 80, 87
5, 31521, Note_on_c, 3, 80, 0
5, 31569, Note_on_c, 3, 79, 116
5, 31630, Note_on_c, 3, 79, 0
5, 31689, Note_on_c, 3, 77, 95
5, 31767, Note_on_c, 3, 77, 0
5, 31809, Note_on_c, 3, 79, 107
5, 31902, Note_on_c, 3, 79, 0
5, 31920, Control_c, 3, 86, 37
5, 32169, Note_on_c, 3, 84, 99
5, 32255, Note_on_c, 3, 84, 0
5, 32289, Note_on_c, 3, 82, 100
5, 32357, Note_on_c, 3, 82, 0
5, 32409, Note_on_c, 3, 80, 83
5, 32491, Note_on_c, 3, 80, 0
5, 32529, Note_on_c, 3, 77, 112
5, 32607, Note_on_c, 3, 77, 0
5, 32649, Note_on_c, 3, 81, 121
5, 32703, Note_on_c, 3, 81, 0
5, 32769, Note_on_c, 3, 77, 117
5, 32875, Note_on_c, 3, 77, 0
5, 32880, Control_c, 3, 86, 37
5, 33129, Note_on_c, 3, 89, 103
5, 33217, Note_on_c, 3, 89, 0
5, 33249, Note_on_c, 3, 87, 108
5, 33328, Note_on_c, 3, 87, 0
5, 33369, Note_on_c, 3, 83, 127
5, 33369, Control_c, 3, 85, 34
5, 33391, Note_on_c, 3, 83, 0
5, 33392, Note_on_c, 3, 84, 127
5, 33462, Note_on_c, 3, 84, 0
5, 33489, Note_on_c, 3, 81, 104
5, 33525, Note_on_c, 3, 81, 0
5, 33548, Note_on_c, 3, 82, 87
5, 33574, Note_on_c, 3, 82, 0
5, 33578, Note_on_c, 3, 81, 87
5, 33604, Note_on_c, 3, 81, 0
5, 33609, Note_on_c, 3, 79, 102
5, 33655, Note_on_c, 3, 79, 0
5, 33669, Note_on_c, 3, 76, 96
5, 33739, Note_on_c, 3, 76, 0
5, 33789, Note_on_c, 3, 72, 127
5, 33951, Note_on_c, 3, 72, 0
5, 34089, Note_on_c, 3, 74, 90
5, 34127, Note_on_c, 3, 74, 0
5, 34149, Note_on_c, 3, 77, 93
5, 34195, Note_on_c, 3, 77, 0
5, 34209, Note_on_c, 3, 79, 93
5, 34253, Note_on_c, 3, 79, 0
5, 34269, Note_on_c, 3, 77, 95
5, 34309, Note_on_c, 3, 77, 0
5, 34329, Note_on_c, 3, 79, 103
5, 34430, Note_on_c, 3, 79, 0
5, 34509, Note_on_c, 3, 77, 83
5, 34553, Note_on_c, 3, 77, 0
5, 34569, Note_on_c, 3, 74, 112
5, 34646, Note_on_c, 3, 74, 0
5, 34689, Note_on_c, 3, 72, 121
5, 34887, Note_on_c, 3, 72, 0
5, 35049, Note_on_c, 3, 77, 76
5, 35102, Note_on_c, 3, 77, 0
5, 35109, Note_on_c, 3, 74, 77
5, 35165, Note_on_c, 3, 74, 0
5, 35169, Note_on_c, 3, 72, 108
5, 35306, Note_on_c, 3, 72, 0
5, 35409, Note_on_c, 3, 80, 106
5, 35480, Note_on_c, 3, 80, 0
5, 35529, Note_on_c, 3, 80, 116
5, 35590, Note_on_c, 3, 80, 0
5, 35649, Note_on_c, 3, 80, 103
5, 35729, Note_on_c, 3, 80, 0
5, 35769, Note_on_c, 3, 80, 70
5, 35816, Note_on_c, 3, 80, 0
5, 35829, Note_on_c, 3, 80, 76
5, 35873, Note_on_c, 3, 80, 0
5, 35889, Note_on_c, 3, 80, 98
5, 35929, Note_on_c, 3, 80, 0
5, 35949, Note_on_c, 3, 80, 101
5, 35997, Note_on_c, 3, 80, 0
5, 36009, Note_on_c, 3, 80, 92
5, 36077, Note_on_c, 3, 80, 0
5, 36129, Note_on_c, 3, 80, 93
5, 36172, Note_on_c, 3, 80, 0
5, 36189, Note_on_c, 3, 80, 98
5, 36232, Note_on_c, 3, 80, 0
5, 36249, Note_on_c, 3, 80, 109
5, 36328, Note_on_c, 3, 80, 0
5, 36429, Note_on_c, 3, 77, 70
5, 36476, Note_on_c, 3, 77, 0
5, 36489, Note_on_c, 3, 80, 120
5, 36544, Note_on_c, 3, 80, 0
5, 36609, Note_on_c, 3, 80, 85
5, 36653, Note_on_c, 3, 80, 0
5, 36669, Note_on_c, 3, 80, 112
5, 36715, Note_on_c, 3, 80, 0
5, 36729, Note_on_c, 3, 80, 104
5, 36790, Note_on_c, 3, 80, 0
5, 36849, Note_on_c, 3, 80, 92
5, 36892, Note_on_c, 3, 80, 0
5, 36909, Note_on_c, 3, 80, 81
5, 36958, Note_on_c, 3, 80, 0
5, 36969, Note_on_c, 3, 80, 97
5, 37031, Note_on_c, 3, 80, 0
5, 37089, Note_on_c, 3, 80, 71
5, 37120, Note_on_c, 3, 80, 0
5, 37128, Note_on_c, 3, 82, 76
5, 37146, Note_on_c, 3, 80, 76
5, 37167, Note_on_c, 3, 82, 0
5, 37172, Note_on_c, 3, 79, 68
5, 37185, Note_on_c, 3, 80, 0
5, 37205, Note_on_c, 3, 79, 0
5, 37209, Note_on_c, 3, 80, 117
5, 37277, Note_on_c, 3, 80, 0
5, 37329, Note_on_c, 3, 79, 109
5, 37402, Note_on_c, 3, 79, 0
5, 37449, Note_on_c, 3, 77, 100
5, 37526, Note_on_c, 3, 77, 0
5, 37569, Note_on_c, 3, 79, 120
5, 37680, Control_c, 3, 86, 37
5, 37705, Note_on_c, 3, 79, 0
5, 37929, Note_on_c, 3, 84, 113
5, 37988, Note_on_c, 3, 84, 0
5, 38049, Note_on_c, 3, 82, 93
5, 38141, Note_on_c, 3, 82, 0
5, 38169, Note_on_c, 3, 80, 85
5, 38253, Note_on_c, 3, 80, 0
5, 38289, Note_on_c, 3, 77, 120
5, 38344, Note_on_c, 3, 77, 0
5, 38409, Note_on_c, 3, 81, 121
5, 38470, Note_on_c, 3, 81, 0
5, 38529, Note_on_c, 3, 77, 118
5, 38640, Control_c, 3, 86, 37
5, 38645, Note_on_c, 3, 77, 0
5, 38889, Note_on_c, 3, 89, 108
5, 38951, Note_on_c, 3, 89, 0
5, 39009, Note_on_c, 3, 87, 90
5, 39059, Note_on_c, 3, 87, 0
5, 39069, Note_on_c, 3, 89, 93
5, 39088, Note_on_c, 3, 89, 0
5, 39098, Note_on_c, 3, 87, 67
5, 39122, Note_on_c, 3, 87, 0
5, 39129, Note_on_c, 3, 84, 117
5, 39185, Note_on_c, 3, 84, 0
5, 39249, Note_on_c, 3, 81, 117
5, 39316, Note_on_c, 3, 81, 0
5, 39369, Note_on_c, 3, 79, 72
5, 39415, Note_on_c, 3, 79, 0
5, 39429, Note_on_c, 3, 76, 113
5, 39499, Note_on_c, 3, 76, 0
5, 39549, Note_on_c, 3, 72, 109
5, 39711, Note_on_c, 3, 72, 0
5, 39849, Note_on_c, 3, 74, 83
5, 39896, Note_on_c, 3, 74, 0
5, 39909, Note_on_c, 3, 77, 98
5, 39948, Note_on_c, 3, 77, 0
5, 39969, Note_on_c, 3, 79, 80
5, 40020, Note_on_c, 3, 79, 0
5, 40029, Note_on_c, 3, 77, 97
5, 40074, Note_on_c, 3, 77, 0
5, 40089, Note_on_c, 3, 79, 97
5, 40190, Note_on_c, 3, 79, 0
5, 40269, Note_on_c, 3, 77, 89
5, 40310, Note_on_c, 3, 77, 0
5, 40329, Note_on_c, 3, 74, 122
5, 40388, Note_on_c, 3, 74, 0
5, 40449, Note_on_c, 3, 72, 101
5, 40687, Note_on_c, 3, 72, 0
5, 40809, Note_on_c, 3, 77, 66
5, 40855, Note_on_c, 3, 77, 0
5, 40869, Note_on_c, 3, 74, 104
5, 40913, Note_on_c, 3, 74, 0
5, 40929, Note_on_c, 3, 72, 116
5, 41054, Note_on_c, 3, 72, 0
5, 41169, Note_on_c, 3, 80, 83
5, 41212, Note_on_c, 3, 80, 0
5, 41229, Note_on_c, 3, 80, 106
5, 41272, Note_on_c, 3, 80, 0
5, 41289, Note_on_c, 3, 80, 92
5, 41366, Note_on_c, 3, 80, 0
5, 41409, Note_on_c, 3, 80, 75
5, 41459, Note_on_c, 3, 80, 0
5, 41469, Note_on_c, 3, 80, 95
5, 41512, Note_on_c, 3, 80, 0
5, 41529, Note_on_c, 3, 80, 88
5, 41595, Note_on_c, 3, 80, 0
5, 41649, Note_on_c, 3, 80, 127
5, 41702, Note_on_c, 3, 80, 0
5, 41769, Note_on_c, 3, 80, 127
5, 41845, Note_on_c, 3, 80, 0
5, 41889, Note_on_c, 3, 80, 117
5, 41957, Note_on_c, 3, 80, 0
5, 42009, Note_on_c, 3, 80, 100
5, 42051, Note_on_c, 3, 80, 0
5, 42069, Note_on_c, 3, 80, 95
5, 42141, Note_on_c, 3, 80, 0
5, 42189, Note_on_c, 3, 77, 104
5, 42226, Note_on_c, 3, 77, 0
5, 42249, Note_on_c, 3, 80, 98
5, 42295, Note_on_c, 3, 80, 0
5, 42309, Note_on_c, 3, 80, 87
5, 42353, Note_on_c, 3, 80, 0
5, 42369, Note_on_c, 3, 80, 84
5, 42409, Note_on_c, 3, 80, 0
5, 42429, Note_on_c, 3, 80, 71
5, 42477, Note_on_c, 3, 80, 0
5, 42489, Note_on_c, 3, 80, 98
5, 42530, Note_on_c, 3, 80, 0
5, 42549, Note_on_c, 3, 80, 82
5, 42599, Note_on_c, 3, 80, 0
5, 42609, Note_on_c, 3, 80, 83
5, 42653, Note_on_c, 3, 80, 0
5, 42669, Note_on_c, 3, 80, 85
5, 42722, Note_on_c, 3, 80, 0
5, 42729, Note_on_c, 3, 80, 80
5, 42777, Note_on_c, 3, 80, 0
5, 42789, Note_on_c, 3, 80, 86
5, 42830, Note_on_c, 3, 80, 0
5, 42849, Note_on_c, 3, 80, 86
5, 42890, Note_on_c, 3, 80, 0
5, 42909, Note_on_c, 3, 80, 109
5, 42949, Note_on_c, 3, 80, 0
5, 42969, Note_on_c, 3, 80, 68
5, 43014, Note_on_c, 3, 80, 0
5, 43029, Note_on_c, 3, 80, 94
5, 43076, Note_on_c, 3, 80, 0
5, 43089, Note_on_c, 3, 79, 101
5, 43161, Note_on_c, 3, 79, 0
5, 43209, Note_on_c, 3, 77, 95
5, 43257, Note_on_c, 3, 77, 0
5, 43270, Note_on_c, 3, 76, 73
5, 43293, Note_on_c, 3, 76, 0
5, 43298, Note_on_c, 3, 77, 96
5, 43322, Note_on_c, 3, 77, 0
5, 43329, Note_on_c, 3, 79, 88
5, 43439, Note_on_c, 3, 79, 0
5, 43440, Control_c, 3, 86, 37
5, 43689, Note_on_c, 3, 84, 107
5, 43762, Note_on_c, 3, 84, 0
5, 43809, Note_on_c, 3, 82, 116
5, 43891, Note_on_c, 3, 82, 0
5, 43929, Note_on_c, 3, 80, 127
5, 43990, Note_on_c, 3, 80, 0
5, 44049, Note_on_c, 3, 77, 103
5, 44134, Note_on_c, 3, 77, 0
5, 44169, Note_on_c, 3, 81, 98
5, 44252, Note_on_c, 3, 81, 0
5, 44289, Note_on_c, 3, 77, 112
5, 44400, Control_c, 3, 86, 37
5, 44413, Note_on_c, 3, 77, 0
5, 44649, Note_on_c, 3, 89, 120
5, 44727, Note_on_c, 3, 89, 0
5, 44769, Note_on_c, 3, 87, 88
5, 44843, Note_on_c, 3, 87, 0
5, 44889, Note_on_c, 3, 84, 88
5, 44977, Note_on_c, 3, 84, 0
5, 45009, Note_on_c, 3, 81, 126
5, 45074, Note_on_c, 3, 81, 0
5, 45129, Note_on_c, 3, 79, 100
5, 45164, Note_on_c, 3, 79, 0
5, 45189, Note_on_c, 3, 76, 81
5, 45265, Note_on_c, 3, 76, 0
5, 45309, Note_on_c, 3, 72, 100
5, 45495, Note_on_c, 3, 72, 0
5, 45609, Note_on_c, 3, 74, 95
5, 45655, Note_on_c, 3, 74, 0
5, 45669, Note_on_c, 3, 77, 79
5, 45715, Note_on_c, 3, 77, 0
5, 45729, Note_on_c, 3, 79, 94
5, 45767, Note_on_c, 3, 79, 0
5, 45789, Note_on_c, 3, 77, 102
5, 45826, Note_on_c, 3, 77, 0
5, 45849, Note_on_c, 3, 79, 89
5, 45964, Note_on_c, 3, 79, 0
5, 46029, Note_on_c, 3, 77, 103
5, 46076, Note_on_c, 3, 77, 0
5, 46089, Note_on_c, 3, 74, 90
5, 46130, Note_on_c, 3, 74, 0
5, 46150, Note_on_c, 3, 76, 99
5, 46169, Note_on_c, 3, 76, 0
5, 46180, Note_on_c, 3, 74, 94
5, 46201, Note_on_c, 3, 74, 0
5, 46209, Note_on_c, 3, 72, 103
5, 46479, Note_on_c, 3, 72, 0
5, 46569, Note_on_c, 3, 77, 75
5, 46615, Note_on_c, 3, 77, 0
5, 46629, Note_on_c, 3, 74, 57
5, 46684, Note_on_c, 3, 74, 0
5, 46689, Note_on_c, 3, 72, 104
5, 46784, Note_on_c, 3, 72, 0
5, 46800, Control_c, 3, 86, 37
5, 46869, Note_on_c, 3, 80, 96
5, 46917, Note_on_c, 3, 80, 0
5, 46929, Note_on_c, 3, 80, 94
5, 46972, Note_on_c, 3, 80, 0
5, 46989, Note_on_c, 3, 80, 85
5, 47031, Note_on_c, 3, 80, 0
5, 47049, Note_on_c, 3, 80, 96
5, 47128, Note_on_c, 3, 80, 0
5, 47169, Note_on_c, 3, 80, 89
5, 47246, Note_on_c, 3, 80, 0
5, 47289, Note_on_c, 3, 80, 96
5, 47362, Note_on_c, 3, 80, 0
5, 47409, Note_on_c, 3, 76, 109
5, 47409, Control_c, 3, 85, 34
5, 47431, Note_on_c, 3, 76, 0
5, 47432, Note_on_c, 3, 77, 102
5, 47469, Note_on_c, 3, 77, 107
5, 47473, Note_on_c, 3, 77, 0
5, 47759, Note_on_c, 3, 77, 0
5, 47760, Control_c, 3, 86, 37
5, 47889, Note_on_c, 3, 80, 96
5, 47944, Note_on_c, 3, 80, 0
5, 47979, Note_on_c, 3, 80, 67
5, 48004, Note_on_c, 3, 80, 0
5, 48009, Note_on_c, 3, 80, 98
5, 48071, Note_on_c, 3, 80, 0
5, 48129, Note_on_c, 3, 80, 94
5, 48207, Note_on_c, 3, 80, 0
5, 48249, Note_on_c, 3, 80, 100
5, 48311, Note_on_c, 3, 80, 0
5, 48369, Note_on_c, 3, 77, 100
5, 48409, Note_on_c, 3, 77, 0
5, 48429, Note_on_c, 3, 77, 101
5, 48519, Note_on_c, 3, 77, 0
5, 48609, Note_on_c, 3, 89, 110
5, 48724, Note_on_c, 3, 89, 0
5, 48789, Note_on_c, 3, 77, 78
5, 48844, Note_on_c, 3, 77, 0
5, 48849, Note_on_c, 3, 77, 67
5, 48902, Note_on_c, 3, 77, 0
5, 48909, Note_on_c, 3, 77, 80
5, 48952, Note_on_c, 3, 77, 0
5, 48969, Note_on_c, 3, 80, 103
5, 49051, Note_on_c, 3, 80, 0
5, 49089, Note_on_c, 3, 80, 127
5, 49147, Note_on_c, 3, 80, 0
5, 49209, Note_on_c, 3, 80, 83
5, 49299, Note_on_c, 3, 80, 0
5, 49329, Note_on_c, 3, 77, 89
5, 49375, Note_on_c, 3, 77, 0
5, 49389, Note_on_c, 3, 77, 108
5, 49649, Note_on_c, 3, 77, 0
5, 49680, Control_c, 3, 86, 37
5, 49929, Note_on_c, 3, 84, 77
5, 49981, Note_on_c, 3, 84, 0
5, 49989, Note_on_c, 3, 84, 100
5, 50027, Note_on_c, 3, 84, 0
5, 50049, Note_on_c, 3, 82, 90
5, 50093, Note_on_c, 3, 82, 0
5, 50109, Note_on_c, 3, 82, 100
5, 50156, Note_on_c, 3, 82, 0
5, 50169, Note_on_c, 3, 81, 83
5, 50246, Note_on_c, 3, 81, 0
5, 50289, Note_on_c, 3, 77, 89
5, 50333, Note_on_c, 3, 77, 0
5, 50349, Note_on_c, 3, 77, 100
5, 50529, Note_on_c, 3, 77, 0
5, 50640, Control_c, 3, 86, 37
5, 50709, Note_on_c, 3, 77, 97
5, 50752, Note_on_c, 3, 77, 0
5, 50769, Note_on_c, 3, 77, 75
5, 50818, Note_on_c, 3, 77, 0
5, 50829, Note_on_c, 3, 77, 77
5, 50879, Note_on_c, 3, 77, 0
5, 50889, Note_on_c, 3, 79, 87
5, 50939, Note_on_c, 3, 79, 0
5, 50950, Note_on_c, 3, 81, 79
5, 50972, Note_on_c, 3, 81, 0
5, 50977, Note_on_c, 3, 79, 77
5, 51005, Note_on_c, 3, 79, 0
5, 51009, Note_on_c, 3, 76, 86
5, 51089, Note_on_c, 3, 76, 0
5, 51129, Note_on_c, 3, 72, 103
5, 51212, Note_on_c, 3, 72, 0
5, 51249, Note_on_c, 3, 72, 91
5, 51287, Note_on_c, 3, 72, 0
5, 51309, Note_on_c, 3, 72, 88
5, 51351, Note_on_c, 3, 72, 0
5, 51369, Note_on_c, 3, 74, 70
5, 51420, Note_on_c, 3, 74, 0
5, 51431, Note_on_c, 3, 73, 73
5, 51454, Note_on_c, 3, 73, 0
5, 51459, Note_on_c, 3, 74, 101
5, 51480, Note_on_c, 3, 74, 0
5, 51489, Note_on_c, 3, 77, 97
5, 51554, Note_on_c, 3, 77, 0
5, 51609, Note_on_c, 3, 79, 81
5, 51655, Note_on_c, 3, 79, 0
5, 51667, Note_on_c, 3, 80, 75
5, 51692, Note_on_c, 3, 80, 0
5, 51697, Note_on_c, 3, 79, 97
5, 51718, Note_on_c, 3, 79, 0
5, 51729, Note_on_c, 3, 77, 99
5, 51771, Note_on_c, 3, 77, 0
5, 51789, Note_on_c, 3, 77, 101
5, 52110, Note_on_c, 3, 77, 0
5, 52110, End_track
6, 0, Start_track
6, 0, MIDI_port, 0
6, 0, Sequencer_specific, 7, 0, 0, 0, 106, 0, 4, 10
6, 0, Title_t, "Drums"
6, 0, Program_c, 9, 0
6, 0, Control_c, 9, 121, 0
6, 3, Control_c, 9, 7, 104
6, 4, Control_c, 9, 10, 64
6, 4, Control_c, 9, 123, 0
6, 5, Control_c, 9, 91, 40
6, 5, Control_c, 9, 93, 0
6, 6, Note_on_c, 9, 49, 127
6, 6, Note_on_c, 9, 36, 86
6, 35, Note_on_c, 9, 36, 0
6, 38, Note_on_c, 9, 49, 0
6, 120, Note_on_c, 9, 51, 121
6, 120, Note_on_c, 9, 38, 127
6, 149, Note_on_c, 9, 51, 0
6, 149, Note_on_c, 9, 38, 0
6, 180, Note_on_c, 9, 51, 53
6, 212, Note_on_c, 9, 51, 0
6, 240, Note_on_c, 9, 36, 79
6, 240, Note_on_c, 9, 51, 127
6, 271, Note_on_c, 9, 36, 0
6, 273, Note_on_c, 9, 51, 0
6, 300, Note_on_c, 9, 51, 53
6, 331, Note_on_c, 9, 51, 0
6, 360, Note_on_c, 9, 51, 122
6, 360, Note_on_c, 9, 38, 127
6, 392, Note_on_c, 9, 38, 0
6, 393, Note_on_c, 9, 51, 0
6, 420, Note_on_c, 9, 51, 69
6, 420, Note_on_c, 9, 38, 127
6, 452, Note_on_c, 9, 38, 0
6, 453, Note_on_c, 9, 51, 0
6, 480, Note_on_c, 9, 36, 80
6, 480, Note_on_c, 9, 51, 75
6, 510, Note_on_c, 9, 51, 0
6, 511, Note_on_c, 9, 36, 0
6, 540, Note_on_c, 9, 51, 72
6, 568, Note_on_c, 9, 51, 0
6, 600, Note_on_c, 9, 51, 116
6, 600, Note_on_c, 9, 38, 127
6, 633, Note_on_c, 9, 38, 0
6, 635, Note_on_c, 9, 51, 0
6, 660, Note_on_c, 9, 51, 64
6, 689, Note_on_c, 9, 51, 0
6, 720, Note_on_c, 9, 51, 108
6, 720, Note_on_c, 9, 36, 74
6, 747, Note_on_c, 9, 36, 0
6, 749, Note_on_c, 9, 51, 0
6, 780, Note_on_c, 9, 51, 67
6, 808, Note_on_c, 9, 51, 0
6, 840, Note_on_c, 9, 51, 122
6, 840, Note_on_c, 9, 38, 127
6, 867, Note_on_c, 9, 38, 0
6, 868, Note_on_c, 9, 51, 0
6, 900, Note_on_c, 9, 51, 74
6, 900, Note_on_c, 9, 38, 127
6, 927, Note_on_c, 9, 38, 0
6, 928, Note_on_c, 9, 51, 0
6, 950, Note_on_c, 9, 38, 100
6, 980, Note_on_c, 9, 38, 0
6, 1430, Note_on_c, 9, 38, 100
6, 1460, Note_on_c, 9, 38, 0
6, 1910, Note_on_c, 9, 38, 100
6, 1940, Note_on_c, 9, 38, 0
6, 2400, Note_on_c, 9, 36, 73
6, 2400, Note_on_c, 9, 51, 127
6, 2425, Note_on_c, 9, 36, 0
6, 2425, Note_on_c, 9, 51, 0
6, 2880, Note_on_c, 9, 36, 86
6, 2880, Note_on_c, 9, 49, 127
6, 2909, Note_on_c, 9, 36, 0
6, 2912, Note_on_c, 9, 49, 0
6, 3000, Note_on_c, 9, 51, 121
6, 3000, Note_on_c, 9, 38, 127
6, 3029, Note_on_c, 9, 51, 0
6, 3029, Note_on_c, 9, 38, 0
6, 3060, Note_on_c, 9, 51, 53
6, 3092, Note_on_c, 9, 51, 0
6, 3120, Note_on_c, 9, 36, 79
6, 3120, Note_on_c, 9, 51, 127
6, 3151, Note_on_c, 9, 36, 0
6, 3153, Note_on_c, 9, 51, 0
6, 3180, Note_on_c, 9, 51, 53
6, 3211, Note_on_c, 9, 51, 0
6, 3240, Note_on_c, 9, 51, 122
6, 3240, Note_on_c, 9, 38, 127
6, 3272, Note_on_c, 9, 38, 0
6, 3273, Note_on_c, 9, 51, 0
6, 3300, Note_on_c, 9, 51, 69
6, 3300, Note_on_c, 9, 38, 127
6, 3332, Note_on_c, 9, 38, 0
6, 3333, Note_on_c, 9, 51, 0
6, 3360, Note_on_c, 9, 36, 80
6, 3360, Note_on_c, 9, 51, 75
6, 3390, Note_on_c, 9, 51, 0
6, 3391, Note_on_c, 9, 36, 0
6, 3420, Note_on_c, 9, 51, 72
6, 3448, Note_on_c, 9, 51, 0
6, 3480, Note_on_c, 9, 51, 116
6, 3480, Note_on_c, 9, 38, 127
6, 3513, Note_on_c, 9, 38, 0
6, 3515, Note_on_c, 9, 51, 0
6, 3540, Note_on_c, 9, 51, 64
6, 3569, Note_on_c, 9, 51, 0
6, 3600, Note_on_c, 9, 51, 108
6, 3600, Note_on_c, 9, 36, 74
6, 3627, Note_on_c, 9, 36, 0
6, 3629, Note_on_c, 9, 51, 0
6, 3660, Note_on_c, 9, 51, 67
6, 3688, Note_on_c, 9, 51, 0
6, 3720, Note_on_c, 9, 51, 122
6, 3720, Note_on_c, 9, 38, 127
6, 3747, Note_on_c, 9, 38, 0
6, 3748, Note_on_c, 9, 51, 0
6, 3780, Note_on_c, 9, 51, 74
6, 3780, Note_on_c, 9, 38, 127
6, 3807, Note_on_c, 9, 38, 0
6, 3808, Note_on_c, 9, 51, 0
6, 3840, Note_on_c, 9, 36, 80
6, 3840, Note_on_c, 9, 51, 106
6, 3870, Note_on_c, 9, 51, 0
6, 3871, Note_on_c, 9, 36, 0
6, 3900, Note_on_c, 9, 51, 54
6, 3932, Note_on_c, 9, 51, 0
6, 3960, Note_on_c, 9, 51, 116
6, 3960, Note_on_c, 9, 38, 119
6, 3989, Note_on_c, 9, 38, 0
6, 3991, Note_on_c, 9, 51, 0
6, 4020, Note_on_c, 9, 51, 53
6, 4050, Note_on_c, 9, 51, 0
6, 4080, Note_on_c, 9, 51, 100
6, 4080, Note_on_c, 9, 36, 85
6, 4106, Note_on_c, 9, 36, 0
6, 4108, Note_on_c, 9, 51, 0
6, 4140, Note_on_c, 9, 51, 69
6, 4173, Note_on_c, 9, 51, 0
6, 4200, Note_on_c, 9, 51, 121
6, 4200, Note_on_c, 9, 38, 127
6, 4229, Note_on_c, 9, 38, 0
6, 4231, Note_on_c, 9, 51, 0
6, 4260, Note_on_c, 9, 38, 127
6, 4260, Note_on_c, 9, 51, 80
6, 4289, Note_on_c, 9, 38, 0
6, 4289, Note_on_c, 9, 51, 0
6, 4320, Note_on_c, 9, 36, 91
6, 4320, Note_on_c, 9, 51, 92
6, 4347, Note_on_c, 9, 36, 0
6, 4349, Note_on_c, 9, 51, 0
6, 4380, Note_on_c, 9, 51, 61
6, 4411, Note_on_c, 9, 51, 0
6, 4440, Note_on_c, 9, 51, 127
6, 4440, Note_on_c, 9, 38, 127
6, 4468, Note_on_c, 9, 38, 0
6, 4470, Note_on_c, 9, 51, 0
6, 4500, Note_on_c, 9, 51, 74
6, 4529, Note_on_c, 9, 51, 0
6, 4560, Note_on_c, 9, 36, 85
6, 4560, Note_on_c, 9, 51, 111
6, 4588, Note_on_c, 9, 36, 0
6, 4588, Note_on_c, 9, 51, 0
6, 4620, Note_on_c, 9, 51, 72
6, 4647, Note_on_c, 9, 51, 0
6, 4680, Note_on_c, 9, 38, 127
6, 4680, Note_on_c, 9, 51, 118
6, 4710, Note_on_c, 9, 38, 0
6, 4710, Note_on_c, 9, 51, 0
6, 4740, Note_on_c, 9, 38, 111
6, 4740, Note_on_c, 9, 51, 69
6, 4769, Note_on_c, 9, 51, 0
6, 4772, Note_on_c, 9, 38, 0
6, 4800, Note_on_c, 9, 36, 86
6, 4800, Note_on_c, 9, 49, 127
6, 4829, Note_on_c, 9, 36, 0
6, 4832, Note_on_c, 9, 49, 0
6, 4920, Note_on_c, 9, 51, 121
6, 4920, Note_on_c, 9, 38, 127
6, 4949, Note_on_c, 9, 51, 0
6, 4949, Note_on_c, 9, 38, 0
6, 4980, Note_on_c, 9, 51, 53
6, 5012, Note_on_c, 9, 51, 0
6, 5040, Note_on_c, 9, 36, 79
6, 5040, Note_on_c, 9, 51, 127
6, 5071, Note_on_c, 9, 36, 0
6, 5073, Note_on_c, 9, 51, 0
6, 5100, Note_on_c, 9, 51, 53
6, 5131, Note_on_c, 9, 51, 0
6, 5160, Note_on_c, 9, 51, 122
6, 5160, Note_on_c, 9, 38, 127
6, 5192, Note_on_c, 9, 38, 0
6, 5193, Note_on_c, 9, 51, 0
6, 5220, Note_on_c, 9, 51, 69
6, 5220, Note_on_c, 9, 38, 127
6, 5252, Note_on_c, 9, 38, 0
6, 5253, Note_on_c, 9, 51, 0
6, 5280, Note_on_c, 9, 36, 80
6, 5280, Note_on_c, 9, 51, 75
6, 5310, Note_on_c, 9, 51, 0
6, 5311, Note_on_c, 9, 36, 0
6, 5340, Note_on_c, 9, 51, 72
6, 5368, Note_on_c, 9, 51, 0
6, 5400, Note_on_c, 9, 51, 116
6, 5400, Note_on_c, 9, 38, 127
6, 5433, Note_on_c, 9, 38, 0
6, 5435, Note_on_c, 9, 51, 0
6, 5460, Note_on_c, 9, 51, 64
6, 5489, Note_on_c, 9, 51, 0
6, 5520, Note_on_c, 9, 51, 108
6, 5520, Note_on_c, 9, 36, 74
6, 5547, Note_on_c, 9, 36, 0
6, 5549, Note_on_c, 9, 51, 0
6, 5580, Note_on_c, 9, 51, 67
6, 5608, Note_on_c, 9, 51, 0
6, 5640, Note_on_c, 9, 51, 122
6, 5640, Note_on_c, 9, 38, 127
6, 5667, Note_on_c, 9, 38, 0
6, 5668, Note_on_c, 9, 51, 0
6, 5700, Note_on_c, 9, 51, 74
6, 5700, Note_on_c, 9, 38, 127
6, 5727, Note_on_c, 9, 38, 0
6, 5728, Note_on_c, 9, 51, 0
6, 5760, Note_on_c, 9, 36, 83
6, 5760, Note_on_c, 9, 51, 82
6, 5789, Note_on_c, 9, 51, 0
6, 5790, Note_on_c, 9, 36, 0
6, 5820, Note_on_c, 9, 51, 66
6, 5852, Note_on_c, 9, 51, 0
6, 5880, Note_on_c, 9, 51, 118
6, 5880, Note_on_c, 9, 38, 127
6, 5910, Note_on_c, 9, 51, 0
6, 5913, Note_on_c, 9, 38, 0
6, 5940, Note_on_c, 9, 51, 66
6, 5968, Note_on_c, 9, 51, 0
6, 6000, Note_on_c, 9, 51, 98
6, 6000, Note_on_c, 9, 36, 73
6, 6028, Note_on_c, 9, 36, 0
6, 6029, Note_on_c, 9, 51, 0
6, 6060, Note_on_c, 9, 51, 66
6, 6087, Note_on_c, 9, 51, 0
6, 6120, Note_on_c, 9, 38, 127
6, 6120, Note_on_c, 9, 51, 108
6, 6149, Note_on_c, 9, 51, 0
6, 6152, Note_on_c, 9, 38, 0
6, 6180, Note_on_c, 9, 38, 127
6, 6180, Note_on_c, 9, 51, 61
6, 6219, Note_on_c, 9, 51, 0
6, 6220, Note_on_c, 9, 38, 0
6, 6240, Note_on_c, 9, 36, 82
6, 6240, Note_on_c, 9, 51, 98
6, 6265, Note_on_c, 9, 36, 0
6, 6265, Note_on_c, 9, 51, 0
6, 6300, Note_on_c, 9, 38, 62
6, 6300, Note_on_c, 9, 51, 82
6, 6325, Note_on_c, 9, 38, 0
6, 6325, Note_on_c, 9, 51, 0
6, 6360, Note_on_c, 9, 36, 70
6, 6360, Note_on_c, 9, 38, 93
6, 6360, Note_on_c, 9, 51, 106
6, 6385, Note_on_c, 9, 36, 0
6, 6385, Note_on_c, 9, 38, 0
6, 6385, Note_on_c, 9, 51, 0
6, 6420, Note_on_c, 9, 38, 127
6, 6420, Note_on_c, 9, 51, 79
6, 6445, Note_on_c, 9, 38, 0
6, 6445, Note_on_c, 9, 51, 0
6, 6480, Note_on_c, 9, 36, 76
6, 6480, Note_on_c, 9, 38, 127
6, 6480, Note_on_c, 9, 51, 119
6, 6505, Note_on_c, 9, 36, 0
6, 6505, Note_on_c, 9, 38, 0
6, 6505, Note_on_c, 9, 51, 0
6, 6540, Note_on_c, 9, 38, 119
6, 6540, Note_on_c, 9, 48, 127
6, 6565, Note_on_c, 9, 38, 0
6, 6565, Note_on_c, 9, 48, 0
6, 6600, Note_on_c, 9, 38, 127
6, 6600, Note_on_c, 9, 44, 13
6, 6600, Note_on_c, 9, 48, 127
6, 6625, Note_on_c, 9, 38, 0
6, 6625, Note_on_c, 9, 44, 0
6, 6625, Note_on_c, 9, 48, 0
6, 6660, Note_on_c, 9, 38, 127
6, 6660, Note_on_c, 9, 48, 124
6, 6685, Note_on_c, 9, 38, 0
6, 6685, Note_on_c, 9, 48, 0
6, 6710, Note_on_c, 9, 38, 100
6, 6740, Note_on_c, 9, 38, 0
6, 7190, Note_on_c, 9, 38, 100
6, 7220, Note_on_c, 9, 38, 0
6, 7670, Note_on_c, 9, 38, 100
6, 7700, Note_on_c, 9, 38, 0
6, 8160, Note_on_c, 9, 36, 73
6, 8160, Note_on_c, 9, 51, 127
6, 8185, Note_on_c, 9, 36, 0
6, 8185, Note_on_c, 9, 51, 0
6, 8640, Note_on_c, 9, 36, 86
6, 8640, Note_on_c, 9, 49, 127
6, 8669, Note_on_c, 9, 36, 0
6, 8672, Note_on_c, 9, 49, 0
6, 8760, Note_on_c, 9, 51, 121
6, 8760, Note_on_c, 9, 38, 127
6, 8789, Note_on_c, 9, 51, 0
6, 8789, Note_on_c, 9, 38, 0
6, 8820, Note_on_c, 9, 51, 53
6, 8852, Note_on_c, 9, 51, 0
6, 8880, Note_on_c, 9, 36, 79
6, 8880, Note_on_c, 9, 51, 127
6, 8911, Note_on_c, 9, 36, 0
6, 8913, Note_on_c, 9, 51, 0
6, 8940, Note_on_c, 9, 51, 53
6, 8971, Note_on_c, 9, 51, 0
6, 9000, Note_on_c, 9, 51, 122
6, 9000, Note_on_c, 9, 38, 127
6, 9032, Note_on_c, 9, 38, 0
6, 9033, Note_on_c, 9, 51, 0
6, 9060, Note_on_c, 9, 51, 69
6, 9060, Note_on_c, 9, 38, 127
6, 9092, Note_on_c, 9, 38, 0
6, 9093, Note_on_c, 9, 51, 0
6, 9120, Note_on_c, 9, 36, 80
6, 9120, Note_on_c, 9, 51, 75
6, 9150, Note_on_c, 9, 51, 0
6, 9151, Note_on_c, 9, 36, 0
6, 9180, Note_on_c, 9, 51, 72
6, 9208, Note_on_c, 9, 51, 0
6, 9240, Note_on_c, 9, 51, 116
6, 9240, Note_on_c, 9, 38, 127
6, 9273, Note_on_c, 9, 38, 0
6, 9275, Note_on_c, 9, 51, 0
6, 9300, Note_on_c, 9, 51, 64
6, 9329, Note_on_c, 9, 51, 0
6, 9360, Note_on_c, 9, 51, 108
6, 9360, Note_on_c, 9, 36, 74
6, 9387, Note_on_c, 9, 36, 0
6, 9389, Note_on_c, 9, 51, 0
6, 9420, Note_on_c, 9, 51, 67
6, 9448, Note_on_c, 9, 51, 0
6, 9480, Note_on_c, 9, 51, 122
6, 9480, Note_on_c, 9, 38, 127
6, 9507, Note_on_c, 9, 38, 0
6, 9508, Note_on_c, 9, 51, 0
6, 9540, Note_on_c, 9, 51, 74
6, 9540, Note_on_c, 9, 38, 127
6, 9567, Note_on_c, 9, 38, 0
6, 9568, Note_on_c, 9, 51, 0
6, 9600, Note_on_c, 9, 36, 80
6, 9600, Note_on_c, 9, 51, 106
6, 9630, Note_on_c, 9, 51, 0
6, 9631, Note_on_c, 9, 36, 0
6, 9660, Note_on_c, 9, 51, 54
6, 9692, Note_on_c, 9, 51, 0
6, 9720, Note_on_c, 9, 51, 116
6, 9720, Note_on_c, 9, 38, 119
6, 9749, Note_on_c, 9, 38, 0
6, 9751, Note_on_c, 9, 51, 0
6, 9780, Note_on_c, 9, 51, 53
6, 9810, Note_on_c, 9, 51, 0
6, 9840, Note_on_c, 9, 51, 100
6, 9840, Note_on_c, 9, 36, 85
6, 9866, Note_on_c, 9, 36, 0
6, 9868, Note_on_c, 9, 51, 0
6, 9900, Note_on_c, 9, 51, 69
6, 9933, Note_on_c, 9, 51, 0
6, 9960, Note_on_c, 9, 51, 121
6, 9960, Note_on_c, 9, 38, 127
6, 9989, Note_on_c, 9, 38, 0
6, 9991, Note_on_c, 9, 51, 0
6, 10020, Note_on_c, 9, 38, 127
6, 10020, Note_on_c, 9, 51, 80
6, 10049, Note_on_c, 9, 38, 0
6, 10049, Note_on_c, 9, 51, 0
6, 10080, Note_on_c, 9, 36, 91
6, 10080, Note_on_c, 9, 51, 92
6, 10107, Note_on_c, 9, 36, 0
6, 10109, Note_on_c, 9, 51, 0
6, 10140, Note_on_c, 9, 51, 61
6, 10171, Note_on_c, 9, 51, 0
6, 10200, Note_on_c, 9, 51, 127
6, 10200, Note_on_c, 9, 38, 127
6, 10228, Note_on_c, 9, 38, 0
6, 10230, Note_on_c, 9, 51, 0
6, 10260, Note_on_c, 9, 51, 74
6, 10289, Note_on_c, 9, 51, 0
6, 10320, Note_on_c, 9, 36, 85
6, 10320, Note_on_c, 9, 51, 111
6, 10348, Note_on_c, 9, 36, 0
6, 10348, Note_on_c, 9, 51, 0
6, 10380, Note_on_c, 9, 51, 72
6, 10407, Note_on_c, 9, 51, 0
6, 10440, Note_on_c, 9, 38, 127
6, 10440, Note_on_c, 9, 51, 118
6, 10470, Note_on_c, 9, 38, 0
6, 10470, Note_on_c, 9, 51, 0
6, 10500, Note_on_c, 9, 38, 111
6, 10500, Note_on_c, 9, 51, 69
6, 10529, Note_on_c, 9, 51, 0
6, 10532, Note_on_c, 9, 38, 0
6, 10560, Note_on_c, 9, 36, 80
6, 10560, Note_on_c, 9, 51, 106
6, 10590, Note_on_c, 9, 51, 0
6, 10591, Note_on_c, 9, 36, 0
6, 10620, Note_on_c, 9, 51, 54
6, 10652, Note_on_c, 9, 51, 0
6, 10680, Note_on_c, 9, 51, 116
6, 10680, Note_on_c, 9, 38, 119
6, 10709, Note_on_c, 9, 38, 0
6, 10711, Note_on_c, 9, 51, 0
6, 10740, Note_on_c, 9, 51, 53
6, 10770, Note_on_c, 9, 51, 0
6, 10800, Note_on_c, 9, 51, 100
6, 10800, Note_on_c, 9, 36, 85
6, 10826, Note_on_c, 9, 36, 0
6, 10828, Note_on_c, 9, 51, 0
6, 10860, Note_on_c, 9, 51, 69
6, 10893, Note_on_c, 9, 51, 0
6, 10920, Note_on_c, 9, 51, 121
6, 10920, Note_on_c, 9, 38, 127
6, 10949, Note_on_c, 9, 38, 0
6, 10951, Note_on_c, 9, 51, 0
6, 10980, Note_on_c, 9, 38, 127
6, 10980, Note_on_c, 9, 51, 80
6, 11009, Note_on_c, 9, 38, 0
6, 11009, Note_on_c, 9, 51, 0
6, 11040, Note_on_c, 9, 36, 91
6, 11040, Note_on_c, 9, 51, 92
6, 11067, Note_on_c, 9, 36, 0
6, 11069, Note_on_c, 9, 51, 0
6, 11100, Note_on_c, 9, 51, 61
6, 11131, Note_on_c, 9, 51, 0
6, 11160, Note_on_c, 9, 51, 127
6, 11160, Note_on_c, 9, 38, 127
6, 11188, Note_on_c, 9, 38, 0
6, 11190, Note_on_c, 9, 51, 0
6, 11220, Note_on_c, 9, 51, 74
6, 11249, Note_on_c, 9, 51, 0
6, 11280, Note_on_c, 9, 36, 85
6, 11280, Note_on_c, 9, 51, 111
6, 11308, Note_on_c, 9, 36, 0
6, 11308, Note_on_c, 9, 51, 0
6, 11340, Note_on_c, 9, 51, 72
6, 11367, Note_on_c, 9, 51, 0
6, 11400, Note_on_c, 9, 38, 127
6, 11400, Note_on_c, 9, 51, 118
6, 11430, Note_on_c, 9, 38, 0
6, 11430, Note_on_c, 9, 51, 0
6, 11460, Note_on_c, 9, 38, 111
6, 11460, Note_on_c, 9, 51, 69
6, 11489, Note_on_c, 9, 51, 0
6, 11492, Note_on_c, 9, 38, 0
6, 11520, Note_on_c, 9, 36, 80
6, 11520, Note_on_c, 9, 51, 106
6, 11550, Note_on_c, 9, 51, 0
6, 11551, Note_on_c, 9, 36, 0
6, 11580, Note_on_c, 9, 51, 54
6, 11612, Note_on_c, 9, 51, 0
6, 11640, Note_on_c, 9, 51, 116
6, 11640, Note_on_c, 9, 38, 119
6, 11669, Note_on_c, 9, 38, 0
6, 11671, Note_on_c, 9, 51, 0
6, 11700, Note_on_c, 9, 51, 53
6, 11730, Note_on_c, 9, 51, 0
6, 11760, Note_on_c, 9, 51, 100
6, 11760, Note_on_c, 9, 36, 85
6, 11786, Note_on_c, 9, 36, 0
6, 11788, Note_on_c, 9, 51, 0
6, 11820, Note_on_c, 9, 51, 69
6, 11853, Note_on_c, 9, 51, 0
6, 11880, Note_on_c, 9, 51, 121
6, 11880, Note_on_c, 9, 38, 127
6, 11909, Note_on_c, 9, 38, 0
6, 11911, Note_on_c, 9, 51, 0
6, 11940, Note_on_c, 9, 38, 127
6, 11940, Note_on_c, 9, 51, 80
6, 11969, Note_on_c, 9, 38, 0
6, 11969, Note_on_c, 9, 51, 0
6, 12000, Note_on_c, 9, 36, 82
6, 12000, Note_on_c, 9, 51, 98
6, 12025, Note_on_c, 9, 36, 0
6, 12025, Note_on_c, 9, 51, 0
6, 12060, Note_on_c, 9, 38, 62
6, 12060, Note_on_c, 9, 51, 82
6, 12085, Note_on_c, 9, 38, 0
6, 12085, Note_on_c, 9, 51, 0
6, 12120, Note_on_c, 9, 36, 70
6, 12120, Note_on_c, 9, 38, 93
6, 12120, Note_on_c, 9, 51, 106
6, 12145, Note_on_c, 9, 36, 0
6, 12145, Note_on_c, 9, 38, 0
6, 12145, Note_on_c, 9, 51, 0
6, 12180, Note_on_c, 9, 38, 127
6, 12180, Note_on_c, 9, 51, 79
6, 12205, Note_on_c, 9, 38, 0
6, 12205, Note_on_c, 9, 51, 0
6, 12240, Note_on_c, 9, 36, 76
6, 12240, Note_on_c, 9, 38, 127
6, 12240, Note_on_c, 9, 51, 119
6, 12265, Note_on_c, 9, 36, 0
6, 12265, Note_on_c, 9, 38, 0
6, 12265, Note_on_c, 9, 51, 0
6, 12300, Note_on_c, 9, 38, 119
6, 12300, Note_on_c, 9, 48, 127
6, 12325, Note_on_c, 9, 38, 0
6, 12325, Note_on_c, 9, 48, 0
6, 12360, Note_on_c, 9, 38, 127
6, 12360, Note_on_c, 9, 44, 13
6, 12360, Note_on_c, 9, 48, 127
6, 12385, Note_on_c, 9, 38, 0
6, 12385, Note_on_c, 9, 44, 0
6, 12385, Note_on_c, 9, 48, 0
6, 12420, Note_on_c, 9, 38, 127
6, 12420, Note_on_c, 9, 48, 124
6, 12445, Note_on_c, 9, 38, 0
6, 12445, Note_on_c, 9, 48, 0
6, 12470, Note_on_c, 9, 38, 100
6, 12500, Note_on_c, 9, 38, 0
6, 12950, Note_on_c, 9, 38, 100
6, 12980, Note_on_c, 9, 38, 0
6, 13430, Note_on_c, 9, 38, 100
6, 13460, Note_on_c, 9, 38, 0
6, 13920, Note_on_c, 9, 51, 113
6, 13945, Note_on_c, 9, 51, 0
6, 14400, Note_on_c, 9, 36, 86
6, 14400, Note_on_c, 9, 49, 127
6, 14429, Note_on_c, 9, 36, 0
6, 14432, Note_on_c, 9, 49, 0
6, 14520, Note_on_c, 9, 51, 121
6, 14520, Note_on_c, 9, 38, 127
6, 14549, Note_on_c, 9, 51, 0
6, 14549, Note_on_c, 9, 38, 0
6, 14580, Note_on_c, 9, 51, 53
6, 14612, Note_on_c, 9, 51, 0
6, 14640, Note_on_c, 9, 36, 79
6, 14640, Note_on_c, 9, 51, 127
6, 14671, Note_on_c, 9, 36, 0
6, 14673, Note_on_c, 9, 51, 0
6, 14700, Note_on_c, 9, 51, 53
6, 14731, Note_on_c, 9, 51, 0
6, 14760, Note_on_c, 9, 51, 122
6, 14760, Note_on_c, 9, 38, 127
6, 14792, Note_on_c, 9, 38, 0
6, 14793, Note_on_c, 9, 51, 0
6, 14820, Note_on_c, 9, 51, 69
6, 14820, Note_on_c, 9, 38, 127
6, 14852, Note_on_c, 9, 38, 0
6, 14853, Note_on_c, 9, 51, 0
6, 14880, Note_on_c, 9, 36, 80
6, 14880, Note_on_c, 9, 51, 75
6, 14910, Note_on_c, 9, 51, 0
6, 14911, Note_on_c, 9, 36, 0
6, 14940, Note_on_c, 9, 51, 72
6, 14968, Note_on_c, 9, 51, 0
6, 15000, Note_on_c, 9, 51, 116
6, 15000, Note_on_c, 9, 38, 127
6, 15033, Note_on_c, 9, 38, 0
6, 15035, Note_on_c, 9, 51, 0
6, 15060, Note_on_c, 9, 51, 64
6, 15089, Note_on_c, 9, 51, 0
6, 15120, Note_on_c, 9, 51, 108
6, 15120, Note_on_c, 9, 36, 74
6, 15147, Note_on_c, 9, 36, 0
6, 15149, Note_on_c, 9, 51, 0
6, 15180, Note_on_c, 9, 51, 67
6, 15208, Note_on_c, 9, 51, 0
6, 15240, Note_on_c, 9, 51, 122
6, 15240, Note_on_c, 9, 38, 127
6, 15267, Note_on_c, 9, 38, 0
6, 15268, Note_on_c, 9, 51, 0
6, 15300, Note_on_c, 9, 51, 74
6, 15300, Note_on_c, 9, 38, 127
6, 15327, Note_on_c, 9, 38, 0
6, 15328, Note_on_c, 9, 51, 0
6, 15360, Note_on_c, 9, 36, 86
6, 15360, Note_on_c, 9, 49, 127
6, 15389, Note_on_c, 9, 36, 0
6, 15392, Note_on_c, 9, 49, 0
6, 15480, Note_on_c, 9, 51, 121
6, 15480, Note_on_c, 9, 38, 127
6, 15509, Note_on_c, 9, 51, 0
6, 15509, Note_on_c, 9, 38, 0
6, 15540, Note_on_c, 9, 51, 53
6, 15572, Note_on_c, 9, 51, 0
6, 15600, Note_on_c, 9, 36, 79
6, 15600, Note_on_c, 9, 51, 127
6, 15631, Note_on_c, 9, 36, 0
6, 15633, Note_on_c, 9, 51, 0
6, 15660, Note_on_c, 9, 51, 53
6, 15691, Note_on_c, 9, 51, 0
6, 15720, Note_on_c, 9, 51, 122
6, 15720, Note_on_c, 9, 38, 127
6, 15752, Note_on_c, 9, 38, 0
6, 15753, Note_on_c, 9, 51, 0
6, 15780, Note_on_c, 9, 51, 69
6, 15780, Note_on_c, 9, 38, 127
6, 15812, Note_on_c, 9, 38, 0
6, 15813, Note_on_c, 9, 51, 0
6, 15840, Note_on_c, 9, 36, 80
6, 15840, Note_on_c, 9, 51, 75
6, 15870, Note_on_c, 9, 51, 0
6, 15871, Note_on_c, 9, 36, 0
6, 15900, Note_on_c, 9, 51, 72
6, 15928, Note_on_c, 9, 51, 0
6, 15960, Note_on_c, 9, 51, 116
6, 15960, Note_on_c, 9, 38, 127
6, 15993, Note_on_c, 9, 38, 0
6, 15995, Note_on_c, 9, 51, 0
6, 16020, Note_on_c, 9, 51, 64
6, 16049, Note_on_c, 9, 51, 0
6, 16080, Note_on_c, 9, 51, 108
6, 16080, Note_on_c, 9, 36, 74
6, 16107, Note_on_c, 9, 36, 0
6, 16109, Note_on_c, 9, 51, 0
6, 16140, Note_on_c, 9, 51, 67
6, 16168, Note_on_c, 9, 51, 0
6, 16200, Note_on_c, 9, 51, 122
6, 16200, Note_on_c, 9, 38, 127
6, 16227, Note_on_c, 9, 38, 0
6, 16228, Note_on_c, 9, 51, 0
6, 16260, Note_on_c, 9, 51, 74
6, 16260, Note_on_c, 9, 38, 127
6, 16287, Note_on_c, 9, 38, 0
6, 16288, Note_on_c, 9, 51, 0
6, 16320, Note_on_c, 9, 36, 94
6, 16320, Note_on_c, 9, 49, 127
6, 16348, Note_on_c, 9, 36, 0
6, 16349, Note_on_c, 9, 49, 0
6, 16440, Note_on_c, 9, 38, 127
6, 16440, Note_on_c, 9, 51, 127
6, 16469, Note_on_c, 9, 51, 0
6, 16472, Note_on_c, 9, 38, 0
6, 16500, Note_on_c, 9, 51, 65
6, 16531, Note_on_c, 9, 51, 0
6, 16560, Note_on_c, 9, 36, 80
6, 16560, Note_on_c, 9, 51, 95
6, 16588, Note_on_c, 9, 51, 0
6, 16589, Note_on_c, 9, 36, 0
6, 16620, Note_on_c, 9, 51, 72
6, 16656, Note_on_c, 9, 51, 0
6, 16680, Note_on_c, 9, 51, 119
6, 16680, Note_on_c, 9, 38, 105
6, 16711, Note_on_c, 9, 38, 0
6, 16713, Note_on_c, 9, 51, 0
6, 16740, Note_on_c, 9, 51, 62
6, 16740, Note_on_c, 9, 38, 127
6, 16772, Note_on_c, 9, 38, 0
6, 16773, Note_on_c, 9, 51, 0
6, 16800, Note_on_c, 9, 36, 77
6, 16800, Note_on_c, 9, 51, 80
6, 16827, Note_on_c, 9, 36, 0
6, 16827, Note_on_c, 9, 51, 0
6, 16860, Note_on_c, 9, 51, 56
6, 16890, Note_on_c, 9, 51, 0
6, 16920, Note_on_c, 9, 51, 96
6, 16920, Note_on_c, 9, 38, 127
6, 16948, Note_on_c, 9, 51, 0
6, 16952, Note_on_c, 9, 38, 0
6, 16980, Note_on_c, 9, 51, 72
6, 17010, Note_on_c, 9, 51, 0
6, 17040, Note_on_c, 9, 51, 93
6, 17040, Note_on_c, 9, 36, 83
6, 17074, Note_on_c, 9, 36, 0
6, 17076, Note_on_c, 9, 51, 0
6, 17100, Note_on_c, 9, 51, 69
6, 17130, Note_on_c, 9, 51, 0
6, 17160, Note_on_c, 9, 51, 119
6, 17160, Note_on_c, 9, 38, 109
6, 17188, Note_on_c, 9, 38, 0
6, 17191, Note_on_c, 9, 51, 0
6, 17220, Note_on_c, 9, 51, 85
6, 17220, Note_on_c, 9, 38, 127
6, 17248, Note_on_c, 9, 38, 0
6, 17251, Note_on_c, 9, 51, 0
6, 17280, Note_on_c, 9, 36, 77
6, 17280, Note_on_c, 9, 51, 103
6, 17311, Note_on_c, 9, 51, 0
6, 17312, Note_on_c, 9, 36, 0
6, 17340, Note_on_c, 9, 51, 56
6, 17368, Note_on_c, 9, 51, 0
6, 17400, Note_on_c, 9, 51, 109
6, 17400, Note_on_c, 9, 38, 127
6, 17429, Note_on_c, 9, 38, 0
6, 17433, Note_on_c, 9, 51, 0
6, 17460, Note_on_c, 9, 51, 51
6, 17492, Note_on_c, 9, 51, 0
6, 17520, Note_on_c, 9, 36, 80
6, 17520, Note_on_c, 9, 51, 127
6, 17547, Note_on_c, 9, 51, 0
6, 17548, Note_on_c, 9, 36, 0
6, 17580, Note_on_c, 9, 51, 62
6, 17613, Note_on_c, 9, 51, 0
6, 17640, Note_on_c, 9, 51, 127
6, 17640, Note_on_c, 9, 38, 127
6, 17667, Note_on_c, 9, 38, 0
6, 17668, Note_on_c, 9, 51, 0
6, 17700, Note_on_c, 9, 51, 57
6, 17700, Note_on_c, 9, 38, 127
6, 17729, Note_on_c, 9, 51, 0
6, 17729, Note_on_c, 9, 38, 0
6, 17760, Note_on_c, 9, 36, 82
6, 17760, Note_on_c, 9, 51, 98
6, 17785, Note_on_c, 9, 36, 0
6, 17785, Note_on_c, 9, 51, 0
6, 17820, Note_on_c, 9, 38, 62
6, 17820, Note_on_c, 9, 51, 82
6, 17845, Note_on_c, 9, 38, 0
6, 17845, Note_on_c, 9, 51, 0
6, 17880, Note_on_c, 9, 36, 70
6, 17880, Note_on_c, 9, 38, 93
6, 17880, Note_on_c, 9, 51, 106
6, 17905, Note_on_c, 9, 36, 0
6, 17905, Note_on_c, 9, 38, 0
6, 17905, Note_on_c, 9, 51, 0
6, 17940, Note_on_c, 9, 38, 127
6, 17940, Note_on_c, 9, 51, 79
6, 17965, Note_on_c, 9, 38, 0
6, 17965, Note_on_c, 9, 51, 0
6, 18000, Note_on_c, 9, 36, 76
6, 18000, Note_on_c, 9, 38, 127
6, 18000, Note_on_c, 9, 51, 119
6, 18025, Note_on_c, 9, 36, 0
6, 18025, Note_on_c, 9, 38, 0
6, 18025, Note_on_c, 9, 51, 0
6, 18060, Note_on_c, 9, 38, 119
6, 18060, Note_on_c, 9, 48, 127
6, 18085, Note_on_c, 9, 38, 0
6, 18085, Note_on_c, 9, 48, 0
6, 18120, Note_on_c, 9, 38, 127
6, 18120, Note_on_c, 9, 44, 13
6, 18120, Note_on_c, 9, 48, 127
6, 18145, Note_on_c, 9, 38, 0
6, 18145, Note_on_c, 9, 44, 0
6, 18145, Note_on_c, 9, 48, 0
6, 18180, Note_on_c, 9, 38, 127
6, 18180, Note_on_c, 9, 48, 124
6, 18205, Note_on_c, 9, 38, 0
6, 18205, Note_on_c, 9, 48, 0
6, 18240, Note_on_c, 9, 49, 111
6, 18240, Note_on_c, 9, 36, 80
6, 18271, Note_on_c, 9, 49, 0
6, 18272, Note_on_c, 9, 36, 0
6, 18360, Note_on_c, 9, 51, 127
6, 18360, Note_on_c, 9, 38, 127
6, 18389, Note_on_c, 9, 38, 0
6, 18390, Note_on_c, 9, 51, 0
6, 18480, Note_on_c, 9, 51, 95
6, 18480, Note_on_c, 9, 36, 80
6, 18508, Note_on_c, 9, 36, 0
6, 18509, Note_on_c, 9, 51, 0
6, 18540, Note_on_c, 9, 38, 90
6, 18570, Note_on_c, 9, 38, 0
6, 18600, Note_on_c, 9, 38, 127
6, 18629, Note_on_c, 9, 38, 0
6, 18660, Note_on_c, 9, 38, 105
6, 18692, Note_on_c, 9, 38, 0
6, 18720, Note_on_c, 9, 36, 79
6, 18720, Note_on_c, 9, 51, 127
6, 18748, Note_on_c, 9, 36, 0
6, 18751, Note_on_c, 9, 51, 0
6, 18840, Note_on_c, 9, 38, 127
6, 18840, Note_on_c, 9, 51, 87
6, 18871, Note_on_c, 9, 51, 0
6, 18872, Note_on_c, 9, 38, 0
6, 18960, Note_on_c, 9, 36, 77
6, 18960, Note_on_c, 9, 51, 69
6, 18991, Note_on_c, 9, 51, 0
6, 18992, Note_on_c, 9, 36, 0
6, 19080, Note_on_c, 9, 51, 103
6, 19080, Note_on_c, 9, 38, 127
6, 19106, Note_on_c, 9, 38, 0
6, 19107, Note_on_c, 9, 51, 0
6, 19200, Note_on_c, 9, 36, 83
6, 19200, Note_on_c, 9, 51, 87
6, 19227, Note_on_c, 9, 36, 0
6, 19229, Note_on_c, 9, 51, 0
6, 19320, Note_on_c, 9, 38, 95
6, 19320, Note_on_c, 9, 51, 93
6, 19349, Note_on_c, 9, 51, 0
6, 19350, Note_on_c, 9, 38, 0
6, 19440, Note_on_c, 9, 36, 85
6, 19440, Note_on_c, 9, 51, 105
6, 19471, Note_on_c, 9, 51, 0
6, 19472, Note_on_c, 9, 36, 0
6, 19560, Note_on_c, 9, 38, 127
6, 19560, Note_on_c, 9, 51, 127
6, 19587, Note_on_c, 9, 38, 0
6, 19592, Note_on_c, 9, 51, 0
6, 19680, Note_on_c, 9, 36, 80
6, 19680, Note_on_c, 9, 51, 100
6, 19711, Note_on_c, 9, 51, 0
6, 19712, Note_on_c, 9, 36, 0
6, 19800, Note_on_c, 9, 51, 127
6, 19800, Note_on_c, 9, 38, 127
6, 19829, Note_on_c, 9, 38, 0
6, 19830, Note_on_c, 9, 51, 0
6, 19920, Note_on_c, 9, 51, 87
6, 19920, Note_on_c, 9, 36, 80
6, 19948, Note_on_c, 9, 36, 0
6, 19949, Note_on_c, 9, 51, 0
6, 19980, Note_on_c, 9, 38, 90
6, 20010, Note_on_c, 9, 38, 0
6, 20040, Note_on_c, 9, 38, 127
6, 20069, Note_on_c, 9, 38, 0
6, 20100, Note_on_c, 9, 38, 105
6, 20132, Note_on_c, 9, 38, 0
6, 20160, Note_on_c, 9, 36, 79
6, 20160, Note_on_c, 9, 51, 127
6, 20188, Note_on_c, 9, 36, 0
6, 20191, Note_on_c, 9, 51, 0
6, 20280, Note_on_c, 9, 38, 127
6, 20280, Note_on_c, 9, 51, 87
6, 20311, Note_on_c, 9, 51, 0
6, 20312, Note_on_c, 9, 38, 0
6, 20400, Note_on_c, 9, 36, 77
6, 20400, Note_on_c, 9, 51, 69
6, 20431, Note_on_c, 9, 51, 0
6, 20432, Note_on_c, 9, 36, 0
6, 20520, Note_on_c, 9, 51, 103
6, 20520, Note_on_c, 9, 38, 127
6, 20546, Note_on_c, 9, 38, 0
6, 20547, Note_on_c, 9, 51, 0
6, 20640, Note_on_c, 9, 36, 85
6, 20640, Note_on_c, 9, 51, 79
6, 20669, Note_on_c, 9, 36, 0
6, 20673, Note_on_c, 9, 51, 0
6, 20760, Note_on_c, 9, 51, 83
6, 20760, Note_on_c, 9, 38, 127
6, 20790, Note_on_c, 9, 38, 0
6, 20792, Note_on_c, 9, 51, 0
6, 20880, Note_on_c, 9, 51, 83
6, 20880, Note_on_c, 9, 36, 83
6, 20911, Note_on_c, 9, 36, 0
6, 20913, Note_on_c, 9, 51, 0
6, 21000, Note_on_c, 9, 51, 98
6, 21000, Note_on_c, 9, 38, 127
6, 21032, Note_on_c, 9, 38, 0
6, 21033, Note_on_c, 9, 51, 0
6, 21060, Note_on_c, 9, 38, 100
6, 21092, Note_on_c, 9, 38, 0
6, 21120, Note_on_c, 9, 36, 82
6, 21120, Note_on_c, 9, 51, 85
6, 21149, Note_on_c, 9, 36, 0
6, 21149, Note_on_c, 9, 51, 0
6, 21240, Note_on_c, 9, 38, 127
6, 21240, Note_on_c, 9, 51, 72
6, 21277, Note_on_c, 9, 51, 0
6, 21278, Note_on_c, 9, 38, 0
6, 21360, Note_on_c, 9, 36, 77
6, 21360, Note_on_c, 9, 51, 92
6, 21391, Note_on_c, 9, 51, 0
6, 21392, Note_on_c, 9, 36, 0
6, 21480, Note_on_c, 9, 51, 103
6, 21480, Note_on_c, 9, 38, 127
6, 21507, Note_on_c, 9, 38, 0
6, 21508, Note_on_c, 9, 51, 0
6, 21600, Note_on_c, 9, 36, 76
6, 21600, Note_on_c, 9, 51, 72
6, 21627, Note_on_c, 9, 36, 0
6, 21631, Note_on_c, 9, 51, 0
6, 21720, Note_on_c, 9, 38, 127
6, 21720, Note_on_c, 9, 51, 127
6, 21752, Note_on_c, 9, 38, 0
6, 21752, Note_on_c, 9, 51, 0
6, 21840, Note_on_c, 9, 36, 71
6, 21840, Note_on_c, 9, 51, 106
6, 21867, Note_on_c, 9, 36, 0
6, 21872, Note_on_c, 9, 51, 0
6, 21960, Note_on_c, 9, 51, 106
6, 21960, Note_on_c, 9, 38, 127
6, 21991, Note_on_c, 9, 38, 0
6, 21993, Note_on_c, 9, 51, 0
6, 22020, Note_on_c, 9, 38, 127
6, 22052, Note_on_c, 9, 38, 0
6, 22080, Note_on_c, 9, 36, 74
6, 22080, Note_on_c, 9, 51, 103
6, 22106, Note_on_c, 9, 36, 0
6, 22111, Note_on_c, 9, 51, 0
6, 22200, Note_on_c, 9, 38, 105
6, 22200, Note_on_c, 9, 51, 124
6, 22230, Note_on_c, 9, 51, 0
6, 22233, Note_on_c, 9, 38, 0
6, 22320, Note_on_c, 9, 36, 77
6, 22320, Note_on_c, 9, 51, 92
6, 22350, Note_on_c, 9, 51, 0
6, 22352, Note_on_c, 9, 36, 0
6, 22440, Note_on_c, 9, 51, 118
6, 22440, Note_on_c, 9, 38, 127
6, 22466, Note_on_c, 9, 51, 0
6, 22466, Note_on_c, 9, 38, 0
6, 22560, Note_on_c, 9, 36, 77
6, 22560, Note_on_c, 9, 51, 92
6, 22589, Note_on_c, 9, 51, 0
6, 22591, Note_on_c, 9, 36, 0
6, 22680, Note_on_c, 9, 51, 119
6, 22680, Note_on_c, 9, 38, 127
6, 22708, Note_on_c, 9, 38, 0
6, 22711, Note_on_c, 9, 51, 0
6, 22800, Note_on_c, 9, 51, 100
6, 22800, Note_on_c, 9, 36, 76
6, 22832, Note_on_c, 9, 36, 0
6, 22833, Note_on_c, 9, 51, 0
6, 22920, Note_on_c, 9, 51, 108
6, 22952, Note_on_c, 9, 51, 0
6, 22980, Note_on_c, 9, 38, 127
6, 22980, Note_on_c, 9, 51, 87
6, 23007, Note_on_c, 9, 38, 0
6, 23011, Note_on_c, 9, 51, 0
6, 23040, Note_on_c, 9, 36, 83
6, 23040, Note_on_c, 9, 51, 87
6, 23067, Note_on_c, 9, 36, 0
6, 23069, Note_on_c, 9, 51, 0
6, 23160, Note_on_c, 9, 38, 95
6, 23160, Note_on_c, 9, 51, 93
6, 23189, Note_on_c, 9, 51, 0
6, 23190, Note_on_c, 9, 38, 0
6, 23280, Note_on_c, 9, 36, 85
6, 23280, Note_on_c, 9, 51, 105
6, 23311, Note_on_c, 9, 51, 0
6, 23312, Note_on_c, 9, 36, 0
6, 23400, Note_on_c, 9, 38, 127
6, 23400, Note_on_c, 9, 51, 127
6, 23427, Note_on_c, 9, 38, 0
6, 23432, Note_on_c, 9, 51, 0
6, 23520, Note_on_c, 9, 51, 113
6, 23545, Note_on_c, 9, 51, 0
6, 23550, Note_on_c, 9, 36, 82
6, 23575, Note_on_c, 9, 36, 0
6, 23580, Note_on_c, 9, 38, 103
6, 23605, Note_on_c, 9, 38, 0
6, 23640, Note_on_c, 9, 51, 108
6, 23665, Note_on_c, 9, 51, 0
6, 23700, Note_on_c, 9, 38, 96
6, 23725, Note_on_c, 9, 38, 0
6, 23760, Note_on_c, 9, 38, 124
6, 23785, Note_on_c, 9, 38, 0
6, 23820, Note_on_c, 9, 38, 127
6, 23845, Note_on_c, 9, 38, 0
6, 23880, Note_on_c, 9, 38, 127
6, 23905, Note_on_c, 9, 38, 0
6, 23940, Note_on_c, 9, 38, 127
6, 23965, Note_on_c, 9, 38, 0
6, 24000, Note_on_c, 9, 36, 86
6, 24000, Note_on_c, 9, 49, 127
6, 24029, Note_on_c, 9, 36, 0
6, 24032, Note_on_c, 9, 49, 0
6, 24120, Note_on_c, 9, 51, 121
6, 24120, Note_on_c, 9, 38, 127
6, 24149, Note_on_c, 9, 51, 0
6, 24149, Note_on_c, 9, 38, 0
6, 24180, Note_on_c, 9, 51, 53
6, 24212, Note_on_c, 9, 51, 0
6, 24240, Note_on_c, 9, 36, 79
6, 24240, Note_on_c, 9, 51, 127
6, 24271, Note_on_c, 9, 36, 0
6, 24273, Note_on_c, 9, 51, 0
6, 24300, Note_on_c, 9, 51, 53
6, 24331, Note_on_c, 9, 51, 0
6, 24360, Note_on_c, 9, 51, 122
6, 24360, Note_on_c, 9, 38, 127
6, 24392, Note_on_c, 9, 38, 0
6, 24393, Note_on_c, 9, 51, 0
6, 24420, Note_on_c, 9, 51, 69
6, 24420, Note_on_c, 9, 38, 127
6, 24452, Note_on_c, 9, 38, 0
6, 24453, Note_on_c, 9, 51, 0
6, 24480, Note_on_c, 9, 36, 80
6, 24480, Note_on_c, 9, 51, 75
6, 24510, Note_on_c, 9, 51, 0
6, 24511, Note_on_c, 9, 36, 0
6, 24540, Note_on_c, 9, 51, 72
6, 24568, Note_on_c, 9, 51, 0
6, 24600, Note_on_c, 9, 51, 116
6, 24600, Note_on_c, 9, 38, 127
6, 24633, Note_on_c, 9, 38, 0
6, 24635, Note_on_c, 9, 51, 0
6, 24660, Note_on_c, 9, 51, 64
6, 24689, Note_on_c, 9, 51, 0
6, 24720, Note_on_c, 9, 51, 108
6, 24720, Note_on_c, 9, 36, 74
6, 24747, Note_on_c, 9, 36, 0
6, 24749, Note_on_c, 9, 51, 0
6, 24780, Note_on_c, 9, 51, 67
6, 24808, Note_on_c, 9, 51, 0
6, 24840, Note_on_c, 9, 51, 122
6, 24840, Note_on_c, 9, 38, 127
6, 24867, Note_on_c, 9, 38, 0
6, 24868, Note_on_c, 9, 51, 0
6, 24900, Note_on_c, 9, 51, 74
6, 24900, Note_on_c, 9, 38, 127
6, 24927, Note_on_c, 9, 38, 0
6, 24928, Note_on_c, 9, 51, 0
6, 24960, Note_on_c, 9, 36, 86
6, 24960, Note_on_c, 9, 49, 127
6, 24989, Note_on_c, 9, 36, 0
6, 24992, Note_on_c, 9, 49, 0
6, 25080, Note_on_c, 9, 51, 121
6, 25080, Note_on_c, 9, 38, 127
6, 25109, Note_on_c, 9, 51, 0
6, 25109, Note_on_c, 9, 38, 0
6, 25140, Note_on_c, 9, 51, 53
6, 25172, Note_on_c, 9, 51, 0
6, 25200, Note_on_c, 9, 36, 79
6, 25200, Note_on_c, 9, 51, 127
6, 25231, Note_on_c, 9, 36, 0
6, 25233, Note_on_c, 9, 51, 0
6, 25260, Note_on_c, 9, 51, 53
6, 25291, Note_on_c, 9, 51, 0
6, 25320, Note_on_c, 9, 51, 122
6, 25320, Note_on_c, 9, 38, 127
6, 25352, Note_on_c, 9, 38, 0
6, 25353, Note_on_c, 9, 51, 0
6, 25380, Note_on_c, 9, 51, 69
6, 25380, Note_on_c, 9, 38, 127
6, 25412, Note_on_c, 9, 38, 0
6, 25413, Note_on_c, 9, 51, 0
6, 25440, Note_on_c, 9, 36, 80
6, 25440, Note_on_c, 9, 51, 75
6, 25470, Note_on_c, 9, 51, 0
6, 25471, Note_on_c, 9, 36, 0
6, 25500, Note_on_c, 9, 51, 72
6, 25528, Note_on_c, 9, 51, 0
6, 25560, Note_on_c, 9, 51, 116
6, 25560, Note_on_c, 9, 38, 127
6, 25593, Note_on_c, 9, 38, 0
6, 25595, Note_on_c, 9, 51, 0
6, 25620, Note_on_c, 9, 51, 64
6, 25649, Note_on_c, 9, 51, 0
6, 25680, Note_on_c, 9, 51, 108
6, 25680, Note_on_c, 9, 36, 74
6, 25707, Note_on_c, 9, 36, 0
6, 25709, Note_on_c, 9, 51, 0
6, 25740, Note_on_c, 9, 51, 67
6, 25768, Note_on_c, 9, 51, 0
6, 25800, Note_on_c, 9, 51, 122
6, 25800, Note_on_c, 9, 38, 127
6, 25827, Note_on_c, 9, 38, 0
6, 25828, Note_on_c, 9, 51, 0
6, 25860, Note_on_c, 9, 51, 74
6, 25860, Note_on_c, 9, 38, 127
6, 25887, Note_on_c, 9, 38, 0
6, 25888, Note_on_c, 9, 51, 0
6, 25920, Note_on_c, 9, 36, 94
6, 25920, Note_on_c, 9, 49, 127
6, 25948, Note_on_c, 9, 36, 0
6, 25949, Note_on_c, 9, 49, 0
6, 26040, Note_on_c, 9, 38, 127
6, 26040, Note_on_c, 9, 51, 127
6, 26069, Note_on_c, 9, 51, 0
6, 26072, Note_on_c, 9, 38, 0
6, 26100, Note_on_c, 9, 51, 65
6, 26131, Note_on_c, 9, 51, 0
6, 26160, Note_on_c, 9, 36, 80
6, 26160, Note_on_c, 9, 51, 95
6, 26188, Note_on_c, 9, 51, 0
6, 26189, Note_on_c, 9, 36, 0
6, 26220, Note_on_c, 9, 51, 72
6, 26256, Note_on_c, 9, 51, 0
6, 26280, Note_on_c, 9, 51, 119
6, 26280, Note_on_c, 9, 38, 105
6, 26311, Note_on_c, 9, 38, 0
6, 26313, Note_on_c, 9, 51, 0
6, 26340, Note_on_c, 9, 51, 62
6, 26340, Note_on_c, 9, 38, 127
6, 26372, Note_on_c, 9, 38, 0
6, 26373, Note_on_c, 9, 51, 0
6, 26400, Note_on_c, 9, 36, 77
6, 26400, Note_on_c, 9, 51, 80
6, 26427, Note_on_c, 9, 36, 0
6, 26427, Note_on_c, 9, 51, 0
6, 26460, Note_on_c, 9, 51, 56
6, 26490, Note_on_c, 9, 51, 0
6, 26520, Note_on_c, 9, 51, 96
6, 26520, Note_on_c, 9, 38, 127
6, 26548, Note_on_c, 9, 51, 0
6, 26552, Note_on_c, 9, 38, 0
6, 26580, Note_on_c, 9, 51, 72
6, 26610, Note_on_c, 9, 51, 0
6, 26640, Note_on_c, 9, 51, 93
6, 26640, Note_on_c, 9, 36, 83
6, 26674, Note_on_c, 9, 36, 0
6, 26676, Note_on_c, 9, 51, 0
6, 26700, Note_on_c, 9, 51, 69
6, 26730, Note_on_c, 9, 51, 0
6, 26760, Note_on_c, 9, 51, 119
6, 26760, Note_on_c, 9, 38, 109
6, 26788, Note_on_c, 9, 38, 0
6, 26791, Note_on_c, 9, 51, 0
6, 26820, Note_on_c, 9, 51, 85
6, 26820, Note_on_c, 9, 38, 127
6, 26848, Note_on_c, 9, 38, 0
6, 26851, Note_on_c, 9, 51, 0
6, 26880, Note_on_c, 9, 36, 80
6, 26880, Note_on_c, 9, 51, 106
6, 26910, Note_on_c, 9, 51, 0
6, 26911, Note_on_c, 9, 36, 0
6, 26940, Note_on_c, 9, 51, 54
6, 26972, Note_on_c, 9, 51, 0
6, 27000, Note_on_c, 9, 51, 116
6, 27000, Note_on_c, 9, 38, 119
6, 27029, Note_on_c, 9, 38, 0
6, 27031, Note_on_c, 9, 51, 0
6, 27060, Note_on_c, 9, 51, 53
6, 27090, Note_on_c, 9, 51, 0
6, 27120, Note_on_c, 9, 51, 100
6, 27120, Note_on_c, 9, 36, 85
6, 27146, Note_on_c, 9, 36, 0
6, 27148, Note_on_c, 9, 51, 0
6, 27180, Note_on_c, 9, 51, 69
6, 27213, Note_on_c, 9, 51, 0
6, 27240, Note_on_c, 9, 51, 121
6, 27240, Note_on_c, 9, 38, 127
6, 27269, Note_on_c, 9, 38, 0
6, 27271, Note_on_c, 9, 51, 0
6, 27300, Note_on_c, 9, 38, 127
6, 27300, Note_on_c, 9, 51, 80
6, 27329, Note_on_c, 9, 38, 0
6, 27329, Note_on_c, 9, 51, 0
6, 27360, Note_on_c, 9, 36, 91
6, 27360, Note_on_c, 9, 51, 92
6, 27387, Note_on_c, 9, 36, 0
6, 27389, Note_on_c, 9, 51, 0
6, 27420, Note_on_c, 9, 51, 61
6, 27451, Note_on_c, 9, 51, 0
6, 27480, Note_on_c, 9, 51, 127
6, 27480, Note_on_c, 9, 38, 127
6, 27508, Note_on_c, 9, 38, 0
6, 27510, Note_on_c, 9, 51, 0
6, 27540, Note_on_c, 9, 51, 74
6, 27569, Note_on_c, 9, 51, 0
6, 27600, Note_on_c, 9, 36, 85
6, 27600, Note_on_c, 9, 51, 111
6, 27628, Note_on_c, 9, 36, 0
6, 27628, Note_on_c, 9, 51, 0
6, 27660, Note_on_c, 9, 51, 72
6, 27687, Note_on_c, 9, 51, 0
6, 27720, Note_on_c, 9, 38, 127
6, 27720, Note_on_c, 9, 51, 118
6, 27750, Note_on_c, 9, 38, 0
6, 27750, Note_on_c, 9, 51, 0
6, 27780, Note_on_c, 9, 38, 111
6, 27780, Note_on_c, 9, 51, 69
6, 27809, Note_on_c, 9, 51, 0
6, 27812, Note_on_c, 9, 38, 0
6, 27840, Note_on_c, 9, 36, 80
6, 27840, Note_on_c, 9, 51, 106
6, 27870, Note_on_c, 9, 51, 0
6, 27871, Note_on_c, 9, 36, 0
6, 27900, Note_on_c, 9, 51, 54
6, 27932, Note_on_c, 9, 51, 0
6, 27960, Note_on_c, 9, 51, 116
6, 27960, Note_on_c, 9, 38, 119
6, 27989, Note_on_c, 9, 38, 0
6, 27991, Note_on_c, 9, 51, 0
6, 28020, Note_on_c, 9, 51, 53
6, 28050, Note_on_c, 9, 51, 0
6, 28080, Note_on_c, 9, 51, 100
6, 28080, Note_on_c, 9, 36, 85
6, 28106, Note_on_c, 9, 36, 0
6, 28108, Note_on_c, 9, 51, 0
6, 28140, Note_on_c, 9, 51, 69
6, 28173, Note_on_c, 9, 51, 0
6, 28200, Note_on_c, 9, 51, 121
6, 28200, Note_on_c, 9, 38, 127
6, 28229, Note_on_c, 9, 38, 0
6, 28231, Note_on_c, 9, 51, 0
6, 28260, Note_on_c, 9, 38, 127
6, 28260, Note_on_c, 9, 51, 80
6, 28289, Note_on_c, 9, 38, 0
6, 28289, Note_on_c, 9, 51, 0
6, 28320, Note_on_c, 9, 36, 91
6, 28320, Note_on_c, 9, 51, 92
6, 28347, Note_on_c, 9, 36, 0
6, 28349, Note_on_c, 9, 51, 0
6, 28380, Note_on_c, 9, 51, 61
6, 28411, Note_on_c, 9, 51, 0
6, 28440, Note_on_c, 9, 51, 127
6, 28440, Note_on_c, 9, 38, 127
6, 28468, Note_on_c, 9, 38, 0
6, 28470, Note_on_c, 9, 51, 0
6, 28500, Note_on_c, 9, 51, 74
6, 28529, Note_on_c, 9, 51, 0
6, 28560, Note_on_c, 9, 36, 85
6, 28560, Note_on_c, 9, 51, 111
6, 28588, Note_on_c, 9, 36, 0
6, 28588, Note_on_c, 9, 51, 0
6, 28620, Note_on_c, 9, 51, 72
6, 28647, Note_on_c, 9, 51, 0
6, 28680, Note_on_c, 9, 38, 127
6, 28680, Note_on_c, 9, 51, 118
6, 28710, Note_on_c, 9, 38, 0
6, 28710, Note_on_c, 9, 51, 0
6, 28740, Note_on_c, 9, 38, 111
6, 28740, Note_on_c, 9, 51, 69
6, 28769, Note_on_c, 9, 51, 0
6, 28772, Note_on_c, 9, 38, 0
6, 28800, Note_on_c, 9, 36, 83
6, 28800, Note_on_c, 9, 51, 82
6, 28829, Note_on_c, 9, 51, 0
6, 28830, Note_on_c, 9, 36, 0
6, 28860, Note_on_c, 9, 51, 66
6, 28892, Note_on_c, 9, 51, 0
6, 28920, Note_on_c, 9, 51, 118
6, 28920, Note_on_c, 9, 38, 127
6, 28950, Note_on_c, 9, 51, 0
6, 28953, Note_on_c, 9, 38, 0
6, 28980, Note_on_c, 9, 51, 66
6, 29008, Note_on_c, 9, 51, 0
6, 29040, Note_on_c, 9, 51, 98
6, 29040, Note_on_c, 9, 36, 73
6, 29068, Note_on_c, 9, 36, 0
6, 29069, Note_on_c, 9, 51, 0
6, 29100, Note_on_c, 9, 51, 66
6, 29127, Note_on_c, 9, 51, 0
6, 29160, Note_on_c, 9, 38, 127
6, 29160, Note_on_c, 9, 51, 108
6, 29189, Note_on_c, 9, 51, 0
6, 29192, Note_on_c, 9, 38, 0
6, 29220, Note_on_c, 9, 38, 127
6, 29220, Note_on_c, 9, 51, 61
6, 29259, Note_on_c, 9, 51, 0
6, 29260, Note_on_c, 9, 38, 0
6, 29280, Note_on_c, 9, 36, 68
6, 29280, Note_on_c, 9, 51, 56
6, 29305, Note_on_c, 9, 36, 0
6, 29305, Note_on_c, 9, 51, 0
6, 29340, Note_on_c, 9, 51, 56
6, 29365, Note_on_c, 9, 51, 0
6, 29400, Note_on_c, 9, 38, 127
6, 29400, Note_on_c, 9, 51, 108
6, 29425, Note_on_c, 9, 38, 0
6, 29425, Note_on_c, 9, 51, 0
6, 29460, Note_on_c, 9, 51, 74
6, 29485, Note_on_c, 9, 51, 0
6, 29520, Note_on_c, 9, 36, 80
6, 29520, Note_on_c, 9, 51, 77
6, 29545, Note_on_c, 9, 36, 0
6, 29545, Note_on_c, 9, 51, 0
6, 29580, Note_on_c, 9, 38, 127
6, 29605, Note_on_c, 9, 38, 0
6, 29640, Note_on_c, 9, 38, 127
6, 29665, Note_on_c, 9, 38, 0
6, 29700, Note_on_c, 9, 38, 122
6, 29725, Note_on_c, 9, 38, 0
6, 29750, Note_on_c, 9, 38, 100
6, 29780, Note_on_c, 9, 38, 0
6, 30230, Note_on_c, 9, 38, 100
6, 30260, Note_on_c, 9, 38, 0
6, 30710, Note_on_c, 9, 38, 100
6, 30740, Note_on_c, 9, 38, 0
6, 31200, Note_on_c, 9, 36, 73
6, 31200, Note_on_c, 9, 51, 127
6, 31225, Note_on_c, 9, 36, 0
6, 31225, Note_on_c, 9, 51, 0
6, 31680, Note_on_c, 9, 36, 86
6, 31680, Note_on_c, 9, 49, 127
6, 31709, Note_on_c, 9, 36, 0
6, 31712, Note_on_c, 9, 49, 0
6, 31800, Note_on_c, 9, 51, 121
6, 31800, Note_on_c, 9, 38, 127
6, 31829, Note_on_c, 9, 51, 0
6, 31829, Note_on_c, 9, 38, 0
6, 31860, Note_on_c, 9, 51, 53
6, 31892, Note_on_c, 9, 51, 0
6, 31920, Note_on_c, 9, 36, 79
6, 31920, Note_on_c, 9, 51, 127
6, 31951, Note_on_c, 9, 36, 0
6, 31953, Note_on_c, 9, 51, 0
6, 31980, Note_on_c, 9, 51, 53
6, 32011, Note_on_c, 9, 51, 0
6, 32040, Note_on_c, 9, 51, 122
6, 32040, Note_on_c, 9, 38, 127
6, 32072, Note_on_c, 9, 38, 0
6, 32073, Note_on_c, 9, 51, 0
6, 32100, Note_on_c, 9, 51, 69
6, 32100, Note_on_c, 9, 38, 127
6, 32132, Note_on_c, 9, 38, 0
6, 32133, Note_on_c, 9, 51, 0
6, 32160, Note_on_c, 9, 36, 80
6, 32160, Note_on_c, 9, 51, 75
6, 32190, Note_on_c, 9, 51, 0
6, 32191, Note_on_c, 9, 36, 0
6, 32220, Note_on_c, 9, 51, 72
6, 32248, Note_on_c, 9, 51, 0
6, 32280, Note_on_c, 9, 51, 116
6, 32280, Note_on_c, 9, 38, 127
6, 32313, Note_on_c, 9, 38, 0
6, 32315, Note_on_c, 9, 51, 0
6, 32340, Note_on_c, 9, 51, 64
6, 32369, Note_on_c, 9, 51, 0
6, 32400, Note_on_c, 9, 51, 108
6, 32400, Note_on_c, 9, 36, 74
6, 32427, Note_on_c, 9, 36, 0
6, 32429, Note_on_c, 9, 51, 0
6, 32460, Note_on_c, 9, 51, 67
6, 32488, Note_on_c, 9, 51, 0
6, 32520, Note_on_c, 9, 51, 122
6, 32520, Note_on_c, 9, 38, 127
6, 32547, Note_on_c, 9, 38, 0
6, 32548, Note_on_c, 9, 51, 0
6, 32580, Note_on_c, 9, 51, 74
6, 32580, Note_on_c, 9, 38, 127
6, 32607, Note_on_c, 9, 38, 0
6, 32608, Note_on_c, 9, 51, 0
6, 32640, Note_on_c, 9, 36, 82
6, 32640, Note_on_c, 9, 51, 88
6, 32670, Note_on_c, 9, 36, 0
6, 32671, Note_on_c, 9, 51, 0
6, 32700, Note_on_c, 9, 51, 53
6, 32728, Note_on_c, 9, 51, 0
6, 32760, Note_on_c, 9, 51, 114
6, 32760, Note_on_c, 9, 38, 127
6, 32791, Note_on_c, 9, 38, 0
6, 32793, Note_on_c, 9, 51, 0
6, 32820, Note_on_c, 9, 51, 65
6, 32853, Note_on_c, 9, 51, 0
6, 32880, Note_on_c, 9, 36, 83
6, 32880, Note_on_c, 9, 51, 114
6, 32909, Note_on_c, 9, 51, 0
6, 32910, Note_on_c, 9, 36, 0
6, 32940, Note_on_c, 9, 51, 50
6, 32968, Note_on_c, 9, 51, 0
6, 33000, Note_on_c, 9, 51, 96
6, 33000, Note_on_c, 9, 38, 127
6, 33030, Note_on_c, 9, 38, 0
6, 33031, Note_on_c, 9, 51, 0
6, 33060, Note_on_c, 9, 51, 77
6, 33060, Note_on_c, 9, 38, 127
6, 33090, Note_on_c, 9, 38, 0
6, 33091, Note_on_c, 9, 51, 0
6, 33120, Note_on_c, 9, 51, 98
6, 33120, Note_on_c, 9, 36, 82
6, 33151, Note_on_c, 9, 36, 0
6, 33152, Note_on_c, 9, 51, 0
6, 33180, Note_on_c, 9, 38, 62
6, 33180, Note_on_c, 9, 51, 82
6, 33207, Note_on_c, 9, 51, 0
6, 33209, Note_on_c, 9, 38, 0
6, 33240, Note_on_c, 9, 38, 93
6, 33240, Note_on_c, 9, 51, 106
6, 33240, Note_on_c, 9, 36, 70
6, 33269, Note_on_c, 9, 51, 0
6, 33270, Note_on_c, 9, 38, 0
6, 33271, Note_on_c, 9, 36, 0
6, 33300, Note_on_c, 9, 51, 79
6, 33300, Note_on_c, 9, 38, 127
6, 33331, Note_on_c, 9, 38, 0
6, 33332, Note_on_c, 9, 51, 0
6, 33360, Note_on_c, 9, 51, 119
6, 33360, Note_on_c, 9, 38, 127
6, 33360, Note_on_c, 9, 36, 76
6, 33387, Note_on_c, 9, 38, 0
6, 33388, Note_on_c, 9, 51, 0
6, 33389, Note_on_c, 9, 36, 0
6, 33420, Note_on_c, 9, 48, 127
6, 33420, Note_on_c, 9, 38, 119
6, 33436, Note_on_c, 9, 48, 0
6, 33449, Note_on_c, 9, 38, 0
6, 33480, Note_on_c, 9, 48, 127
6, 33480, Note_on_c, 9, 38, 127
6, 33480, Note_on_c, 9, 44, 13
6, 33518, Note_on_c, 9, 44, 0
6, 33519, Note_on_c, 9, 38, 0
6, 33520, Note_on_c, 9, 48, 0
6, 33540, Note_on_c, 9, 48, 124
6, 33540, Note_on_c, 9, 38, 127
6, 33569, Note_on_c, 9, 38, 0
6, 33571, Note_on_c, 9, 48, 0
6, 33600, Note_on_c, 9, 36, 86
6, 33600, Note_on_c, 9, 49, 127
6, 33629, Note_on_c, 9, 36, 0
6, 33632, Note_on_c, 9, 49, 0
6, 33720, Note_on_c, 9, 51, 121
6, 33720, Note_on_c, 9, 38, 127
6, 33749, Note_on_c, 9, 51, 0
6, 33749, Note_on_c, 9, 38, 0
6, 33780, Note_on_c, 9, 51, 53
6, 33812, Note_on_c, 9, 51, 0
6, 33840, Note_on_c, 9, 36, 79
6, 33840, Note_on_c, 9, 51, 127
6, 33871, Note_on_c, 9, 36, 0
6, 33873, Note_on_c, 9, 51, 0
6, 33900, Note_on_c, 9, 51, 53
6, 33931, Note_on_c, 9, 51, 0
6, 33960, Note_on_c, 9, 51, 122
6, 33960, Note_on_c, 9, 38, 127
6, 33992, Note_on_c, 9, 38, 0
6, 33993, Note_on_c, 9, 51, 0
6, 34020, Note_on_c, 9, 51, 69
6, 34020, Note_on_c, 9, 38, 127
6, 34052, Note_on_c, 9, 38, 0
6, 34053, Note_on_c, 9, 51, 0
6, 34080, Note_on_c, 9, 36, 80
6, 34080, Note_on_c, 9, 51, 75
6, 34110, Note_on_c, 9, 51, 0
6, 34111, Note_on_c, 9, 36, 0
6, 34140, Note_on_c, 9, 51, 72
6, 34168, Note_on_c, 9, 51, 0
6, 34200, Note_on_c, 9, 51, 116
6, 34200, Note_on_c, 9, 38, 127
6, 34233, Note_on_c, 9, 38, 0
6, 34235, Note_on_c, 9, 51, 0
6, 34260, Note_on_c, 9, 51, 64
6, 34289, Note_on_c, 9, 51, 0
6, 34320, Note_on_c, 9, 51, 108
6, 34320, Note_on_c, 9, 36, 74
6, 34347, Note_on_c, 9, 36, 0
6, 34349, Note_on_c, 9, 51, 0
6, 34380, Note_on_c, 9, 51, 67
6, 34408, Note_on_c, 9, 51, 0
6, 34440, Note_on_c, 9, 51, 122
6, 34440, Note_on_c, 9, 38, 127
6, 34467, Note_on_c, 9, 38, 0
6, 34468, Note_on_c, 9, 51, 0
6, 34500, Note_on_c, 9, 51, 74
6, 34500, Note_on_c, 9, 38, 127
6, 34527, Note_on_c, 9, 38, 0
6, 34528, Note_on_c, 9, 51, 0
6, 34560, Note_on_c, 9, 36, 80
6, 34560, Note_on_c, 9, 51, 83
6, 34590, Note_on_c, 9, 51, 0
6, 34591, Note_on_c, 9, 36, 0
6, 34620, Note_on_c, 9, 51, 79
6, 34648, Note_on_c, 9, 51, 0
6, 34680, Note_on_c, 9, 51, 116
6, 34680, Note_on_c, 9, 38, 127
6, 34713, Note_on_c, 9, 38, 0
6, 34715, Note_on_c, 9, 51, 0
6, 34740, Note_on_c, 9, 51, 64
6, 34769, Note_on_c, 9, 51, 0
6, 34800, Note_on_c, 9, 51, 108
6, 34800, Note_on_c, 9, 36, 74
6, 34827, Note_on_c, 9, 36, 0
6, 34829, Note_on_c, 9, 51, 0
6, 34860, Note_on_c, 9, 51, 67
6, 34888, Note_on_c, 9, 51, 0
6, 34920, Note_on_c, 9, 51, 122
6, 34920, Note_on_c, 9, 38, 127
6, 34947, Note_on_c, 9, 38, 0
6, 34948, Note_on_c, 9, 51, 0
6, 34980, Note_on_c, 9, 51, 74
6, 34980, Note_on_c, 9, 38, 127
6, 35007, Note_on_c, 9, 38, 0
6, 35008, Note_on_c, 9, 51, 0
6, 35040, Note_on_c, 9, 36, 82
6, 35040, Note_on_c, 9, 51, 98
6, 35065, Note_on_c, 9, 36, 0
6, 35065, Note_on_c, 9, 51, 0
6, 35100, Note_on_c, 9, 38, 62
6, 35100, Note_on_c, 9, 51, 82
6, 35125, Note_on_c, 9, 38, 0
6, 35125, Note_on_c, 9, 51, 0
6, 35160, Note_on_c, 9, 36, 70
6, 35160, Note_on_c, 9, 38, 93
6, 35160, Note_on_c, 9, 51, 106
6, 35185, Note_on_c, 9, 36, 0
6, 35185, Note_on_c, 9, 38, 0
6, 35185, Note_on_c, 9, 51, 0
6, 35220, Note_on_c, 9, 38, 127
6, 35220, Note_on_c, 9, 51, 79
6, 35245, Note_on_c, 9, 38, 0
6, 35245, Note_on_c, 9, 51, 0
6, 35280, Note_on_c, 9, 36, 76
6, 35280, Note_on_c, 9, 38, 127
6, 35280, Note_on_c, 9, 51, 119
6, 35305, Note_on_c, 9, 36, 0
6, 35305, Note_on_c, 9, 38, 0
6, 35305, Note_on_c, 9, 51, 0
6, 35340, Note_on_c, 9, 38, 119
6, 35340, Note_on_c, 9, 48, 127
6, 35365, Note_on_c, 9, 38, 0
6, 35365, Note_on_c, 9, 48, 0
6, 35400, Note_on_c, 9, 38, 127
6, 35400, Note_on_c, 9, 44, 13
6, 35400, Note_on_c, 9, 48, 127
6, 35425, Note_on_c, 9, 38, 0
6, 35425, Note_on_c, 9, 44, 0
6, 35425, Note_on_c, 9, 48, 0
6, 35460, Note_on_c, 9, 38, 127
6, 35460, Note_on_c, 9, 48, 124
6, 35485, Note_on_c, 9, 38, 0
6, 35485, Note_on_c, 9, 48, 0
6, 35510, Note_on_c, 9, 38, 100
6, 35540, Note_on_c, 9, 38, 0
6, 35990, Note_on_c, 9, 38, 100
6, 36020, Note_on_c, 9, 38, 0
6, 36470, Note_on_c, 9, 38, 100
6, 36500, Note_on_c, 9, 38, 0
6, 36960, Note_on_c, 9, 36, 76
6, 36960, Note_on_c, 9, 51, 67
6, 36985, Note_on_c, 9, 36, 0
6, 36985, Note_on_c, 9, 51, 0
6, 37440, Note_on_c, 9, 36, 86
6, 37440, Note_on_c, 9, 49, 127
6, 37469, Note_on_c, 9, 36, 0
6, 37472, Note_on_c, 9, 49, 0
6, 37560, Note_on_c, 9, 51, 121
6, 37560, Note_on_c, 9, 38, 127
6, 37589, Note_on_c, 9, 51, 0
6, 37589, Note_on_c, 9, 38, 0
6, 37620, Note_on_c, 9, 51, 53
6, 37652, Note_on_c, 9, 51, 0
6, 37680, Note_on_c, 9, 36, 79
6, 37680, Note_on_c, 9, 51, 127
6, 37711, Note_on_c, 9, 36, 0
6, 37713, Note_on_c, 9, 51, 0
6, 37740, Note_on_c, 9, 51, 53
6, 37771, Note_on_c, 9, 51, 0
6, 37800, Note_on_c, 9, 51, 122
6, 37800, Note_on_c, 9, 38, 127
6, 37832, Note_on_c, 9, 38, 0
6, 37833, Note_on_c, 9, 51, 0
6, 37860, Note_on_c, 9, 51, 69
6, 37860, Note_on_c, 9, 38, 127
6, 37892, Note_on_c, 9, 38, 0
6, 37893, Note_on_c, 9, 51, 0
6, 37920, Note_on_c, 9, 36, 80
6, 37920, Note_on_c, 9, 51, 75
6, 37950, Note_on_c, 9, 51, 0
6, 37951, Note_on_c, 9, 36, 0
6, 37980, Note_on_c, 9, 51, 72
6, 38008, Note_on_c, 9, 51, 0
6, 38040, Note_on_c, 9, 51, 116
6, 38040, Note_on_c, 9, 38, 127
6, 38073, Note_on_c, 9, 38, 0
6, 38075, Note_on_c, 9, 51, 0
6, 38100, Note_on_c, 9, 51, 64
6, 38129, Note_on_c, 9, 51, 0
6, 38160, Note_on_c, 9, 51, 108
6, 38160, Note_on_c, 9, 36, 74
6, 38187, Note_on_c, 9, 36, 0
6, 38189, Note_on_c, 9, 51, 0
6, 38220, Note_on_c, 9, 51, 67
6, 38248, Note_on_c, 9, 51, 0
6, 38280, Note_on_c, 9, 51, 122
6, 38280, Note_on_c, 9, 38, 127
6, 38307, Note_on_c, 9, 38, 0
6, 38308, Note_on_c, 9, 51, 0
6, 38340, Note_on_c, 9, 51, 74
6, 38340, Note_on_c, 9, 38, 127
6, 38367, Note_on_c, 9, 38, 0
6, 38368, Note_on_c, 9, 51, 0
6, 38400, Note_on_c, 9, 36, 80
6, 38400, Note_on_c, 9, 51, 83
6, 38430, Note_on_c, 9, 51, 0
6, 38431, Note_on_c, 9, 36, 0
6, 38460, Note_on_c, 9, 51, 79
6, 38488, Note_on_c, 9, 51, 0
6, 38520, Note_on_c, 9, 51, 116
6, 38520, Note_on_c, 9, 38, 127
6, 38553, Note_on_c, 9, 38, 0
6, 38555, Note_on_c, 9, 51, 0
6, 38580, Note_on_c, 9, 51, 64
6, 38609, Note_on_c, 9, 51, 0
6, 38640, Note_on_c, 9, 51, 108
6, 38640, Note_on_c, 9, 36, 74
6, 38667, Note_on_c, 9, 36, 0
6, 38669, Note_on_c, 9, 51, 0
6, 38700, Note_on_c, 9, 51, 67
6, 38728, Note_on_c, 9, 51, 0
6, 38760, Note_on_c, 9, 51, 122
6, 38760, Note_on_c, 9, 38, 127
6, 38787, Note_on_c, 9, 38, 0
6, 38788, Note_on_c, 9, 51, 0
6, 38820, Note_on_c, 9, 51, 74
6, 38820, Note_on_c, 9, 38, 127
6, 38847, Note_on_c, 9, 38, 0
6, 38848, Note_on_c, 9, 51, 0
6, 38880, Note_on_c, 9, 36, 83
6, 38880, Note_on_c, 9, 51, 109
6, 38911, Note_on_c, 9, 51, 0
6, 38912, Note_on_c, 9, 36, 0
6, 38940, Note_on_c, 9, 51, 57
6, 38967, Note_on_c, 9, 51, 0
6, 39000, Note_on_c, 9, 51, 118
6, 39000, Note_on_c, 9, 38, 127
6, 39032, Note_on_c, 9, 51, 0
6, 39032, Note_on_c, 9, 38, 0
6, 39060, Note_on_c, 9, 51, 51
6, 39063, Note_on_c, 9, 50, 121
6, 39087, Note_on_c, 9, 51, 0
6, 39092, Note_on_c, 9, 50, 0
6, 39120, Note_on_c, 9, 51, 101
6, 39120, Note_on_c, 9, 36, 80
6, 39149, Note_on_c, 9, 36, 0
6, 39150, Note_on_c, 9, 51, 0
6, 39179, Note_on_c, 9, 48, 124
6, 39180, Note_on_c, 9, 51, 69
6, 39210, Note_on_c, 9, 48, 0
6, 39211, Note_on_c, 9, 51, 0
6, 39240, Note_on_c, 9, 51, 126
6, 39240, Note_on_c, 9, 38, 124
6, 39269, Note_on_c, 9, 51, 0
6, 39273, Note_on_c, 9, 38, 0
6, 39300, Note_on_c, 9, 45, 127
6, 39327, Note_on_c, 9, 45, 0
6, 39360, Note_on_c, 9, 36, 86
6, 39360, Note_on_c, 9, 49, 127
6, 39389, Note_on_c, 9, 36, 0
6, 39392, Note_on_c, 9, 49, 0
6, 39480, Note_on_c, 9, 51, 121
6, 39480, Note_on_c, 9, 38, 127
6, 39509, Note_on_c, 9, 51, 0
6, 39509, Note_on_c, 9, 38, 0
6, 39540, Note_on_c, 9, 51, 53
6, 39572, Note_on_c, 9, 51, 0
6, 39600, Note_on_c, 9, 36, 79
6, 39600, Note_on_c, 9, 51, 127
6, 39631, Note_on_c, 9, 36, 0
6, 39633, Note_on_c, 9, 51, 0
6, 39660, Note_on_c, 9, 51, 53
6, 39691, Note_on_c, 9, 51, 0
6, 39720, Note_on_c, 9, 51, 122
6, 39720, Note_on_c, 9, 38, 127
6, 39752, Note_on_c, 9, 38, 0
6, 39753, Note_on_c, 9, 51, 0
6, 39780, Note_on_c, 9, 51, 69
6, 39780, Note_on_c, 9, 38, 127
6, 39812, Note_on_c, 9, 38, 0
6, 39813, Note_on_c, 9, 51, 0
6, 39840, Note_on_c, 9, 36, 80
6, 39840, Note_on_c, 9, 51, 75
6, 39870, Note_on_c, 9, 51, 0
6, 39871, Note_on_c, 9, 36, 0
6, 39900, Note_on_c, 9, 51, 72
6, 39928, Note_on_c, 9, 51, 0
6, 39960, Note_on_c, 9, 51, 116
6, 39960, Note_on_c, 9, 38, 127
6, 39993, Note_on_c, 9, 38, 0
6, 39995, Note_on_c, 9, 51, 0
6, 40020, Note_on_c, 9, 51, 64
6, 40049, Note_on_c, 9, 51, 0
6, 40080, Note_on_c, 9, 51, 108
6, 40080, Note_on_c, 9, 36, 74
6, 40107, Note_on_c, 9, 36, 0
6, 40109, Note_on_c, 9, 51, 0
6, 40140, Note_on_c, 9, 51, 67
6, 40168, Note_on_c, 9, 51, 0
6, 40200, Note_on_c, 9, 51, 122
6, 40200, Note_on_c, 9, 38, 127
6, 40227, Note_on_c, 9, 38, 0
6, 40228, Note_on_c, 9, 51, 0
6, 40260, Note_on_c, 9, 51, 74
6, 40260, Note_on_c, 9, 38, 127
6, 40287, Note_on_c, 9, 38, 0
6, 40288, Note_on_c, 9, 51, 0
6, 40320, Note_on_c, 9, 36, 83
6, 40320, Note_on_c, 9, 51, 82
6, 40349, Note_on_c, 9, 51, 0
6, 40350, Note_on_c, 9, 36, 0
6, 40380, Note_on_c, 9, 51, 66
6, 40412, Note_on_c, 9, 51, 0
6, 40440, Note_on_c, 9, 51, 118
6, 40440, Note_on_c, 9, 38, 127
6, 40470, Note_on_c, 9, 51, 0
6, 40473, Note_on_c, 9, 38, 0
6, 40500, Note_on_c, 9, 51, 66
6, 40528, Note_on_c, 9, 51, 0
6, 40560, Note_on_c, 9, 51, 98
6, 40560, Note_on_c, 9, 36, 73
6, 40588, Note_on_c, 9, 36, 0
6, 40589, Note_on_c, 9, 51, 0
6, 40620, Note_on_c, 9, 51, 66
6, 40647, Note_on_c, 9, 51, 0
6, 40680, Note_on_c, 9, 38, 127
6, 40680, Note_on_c, 9, 51, 108
6, 40709, Note_on_c, 9, 51, 0
6, 40712, Note_on_c, 9, 38, 0
6, 40740, Note_on_c, 9, 38, 127
6, 40740, Note_on_c, 9, 51, 61
6, 40779, Note_on_c, 9, 51, 0
6, 40780, Note_on_c, 9, 38, 0
6, 40800, Note_on_c, 9, 36, 68
6, 40800, Note_on_c, 9, 51, 56
6, 40825, Note_on_c, 9, 36, 0
6, 40825, Note_on_c, 9, 51, 0
6, 40860, Note_on_c, 9, 51, 56
6, 40885, Note_on_c, 9, 51, 0
6, 40920, Note_on_c, 9, 38, 127
6, 40920, Note_on_c, 9, 51, 108
6, 40945, Note_on_c, 9, 38, 0
6, 40945, Note_on_c, 9, 51, 0
6, 40980, Note_on_c, 9, 51, 74
6, 41005, Note_on_c, 9, 51, 0
6, 41040, Note_on_c, 9, 36, 80
6, 41040, Note_on_c, 9, 51, 77
6, 41065, Note_on_c, 9, 36, 0
6, 41065, Note_on_c, 9, 51, 0
6, 41100, Note_on_c, 9, 38, 127
6, 41125, Note_on_c, 9, 38, 0
6, 41160, Note_on_c, 9, 38, 127
6, 41185, Note_on_c, 9, 38, 0
6, 41220, Note_on_c, 9, 38, 122
6, 41245, Note_on_c, 9, 38, 0
6, 41270, Note_on_c, 9, 38, 100
6, 41300, Note_on_c, 9, 38, 0
6, 41750, Note_on_c, 9, 38, 100
6, 41780, Note_on_c, 9, 38, 0
6, 42230, Note_on_c, 9, 38, 100
6, 42260, Note_on_c, 9, 38, 0
6, 42720, Note_on_c, 9, 36, 73
6, 42720, Note_on_c, 9, 51, 127
6, 42745, Note_on_c, 9, 36, 0
6, 42745, Note_on_c, 9, 51, 0
6, 43200, Note_on_c, 9, 36, 86
6, 43200, Note_on_c, 9, 49, 127
6, 43229, Note_on_c, 9, 36, 0
6, 43232, Note_on_c, 9, 49, 0
6, 43320, Note_on_c, 9, 51, 121
6, 43320, Note_on_c, 9, 38, 127
6, 43349, Note_on_c, 9, 51, 0
6, 43349, Note_on_c, 9, 38, 0
6, 43380, Note_on_c, 9, 51, 53
6, 43412, Note_on_c, 9, 51, 0
6, 43440, Note_on_c, 9, 36, 79
6, 43440, Note_on_c, 9, 51, 127
6, 43471, Note_on_c, 9, 36, 0
6, 43473, Note_on_c, 9, 51, 0
6, 43500, Note_on_c, 9, 51, 53
6, 43531, Note_on_c, 9, 51, 0
6, 43560, Note_on_c, 9, 51, 122
6, 43560, Note_on_c, 9, 38, 127
6, 43592, Note_on_c, 9, 38, 0
6, 43593, Note_on_c, 9, 51, 0
6, 43620, Note_on_c, 9, 51, 69
6, 43620, Note_on_c, 9, 38, 127
6, 43652, Note_on_c, 9, 38, 0
6, 43653, Note_on_c, 9, 51, 0
6, 43680, Note_on_c, 9, 36, 80
6, 43680, Note_on_c, 9, 51, 75
6, 43710, Note_on_c, 9, 51, 0
6, 43711, Note_on_c, 9, 36, 0
6, 43740, Note_on_c, 9, 51, 72
6, 43768, Note_on_c, 9, 51, 0
6, 43800, Note_on_c, 9, 51, 116
6, 43800, Note_on_c, 9, 38, 127
6, 43833, Note_on_c, 9, 38, 0
6, 43835, Note_on_c, 9, 51, 0
6, 43860, Note_on_c, 9, 51, 64
6, 43889, Note_on_c, 9, 51, 0
6, 43920, Note_on_c, 9, 51, 108
6, 43920, Note_on_c, 9, 36, 74
6, 43947, Note_on_c, 9, 36, 0
6, 43949, Note_on_c, 9, 51, 0
6, 43980, Note_on_c, 9, 51, 67
6, 44008, Note_on_c, 9, 51, 0
6, 44040, Note_on_c, 9, 51, 122
6, 44040, Note_on_c, 9, 38, 127
6, 44067, Note_on_c, 9, 38, 0
6, 44068, Note_on_c, 9, 51, 0
6, 44100, Note_on_c, 9, 51, 74
6, 44100, Note_on_c, 9, 38, 127
6, 44127, Note_on_c, 9, 38, 0
6, 44128, Note_on_c, 9, 51, 0
6, 44160, Note_on_c, 9, 36, 80
6, 44160, Note_on_c, 9, 51, 106
6, 44190, Note_on_c, 9, 51, 0
6, 44191, Note_on_c, 9, 36, 0
6, 44220, Note_on_c, 9, 51, 54
6, 44252, Note_on_c, 9, 51, 0
6, 44280, Note_on_c, 9, 51, 116
6, 44280, Note_on_c, 9, 38, 119
6, 44309, Note_on_c, 9, 38, 0
6, 44311, Note_on_c, 9, 51, 0
6, 44340, Note_on_c, 9, 51, 53
6, 44370, Note_on_c, 9, 51, 0
6, 44400, Note_on_c, 9, 51, 100
6, 44400, Note_on_c, 9, 36, 85
6, 44426, Note_on_c, 9, 36, 0
6, 44428, Note_on_c, 9, 51, 0
6, 44460, Note_on_c, 9, 51, 69
6, 44493, Note_on_c, 9, 51, 0
6, 44520, Note_on_c, 9, 51, 121
6, 44520, Note_on_c, 9, 38, 127
6, 44549, Note_on_c, 9, 38, 0
6, 44551, Note_on_c, 9, 51, 0
6, 44580, Note_on_c, 9, 38, 127
6, 44580, Note_on_c, 9, 51, 80
6, 44609, Note_on_c, 9, 38, 0
6, 44609, Note_on_c, 9, 51, 0
6, 44640, Note_on_c, 9, 36, 91
6, 44640, Note_on_c, 9, 51, 92
6, 44667, Note_on_c, 9, 36, 0
6, 44669, Note_on_c, 9, 51, 0
6, 44700, Note_on_c, 9, 51, 61
6, 44731, Note_on_c, 9, 51, 0
6, 44760, Note_on_c, 9, 51, 127
6, 44760, Note_on_c, 9, 38, 127
6, 44788, Note_on_c, 9, 38, 0
6, 44790, Note_on_c, 9, 51, 0
6, 44820, Note_on_c, 9, 51, 74
6, 44849, Note_on_c, 9, 51, 0
6, 44880, Note_on_c, 9, 36, 85
6, 44880, Note_on_c, 9, 51, 111
6, 44908, Note_on_c, 9, 36, 0
6, 44908, Note_on_c, 9, 51, 0
6, 44940, Note_on_c, 9, 51, 72
6, 44967, Note_on_c, 9, 51, 0
6, 45000, Note_on_c, 9, 38, 127
6, 45000, Note_on_c, 9, 51, 118
6, 45030, Note_on_c, 9, 38, 0
6, 45030, Note_on_c, 9, 51, 0
6, 45060, Note_on_c, 9, 38, 111
6, 45060, Note_on_c, 9, 51, 69
6, 45089, Note_on_c, 9, 51, 0
6, 45092, Note_on_c, 9, 38, 0
6, 45120, Note_on_c, 9, 36, 86
6, 45120, Note_on_c, 9, 49, 127
6, 45149, Note_on_c, 9, 36, 0
6, 45152, Note_on_c, 9, 49, 0
6, 45240, Note_on_c, 9, 51, 121
6, 45240, Note_on_c, 9, 38, 127
6, 45269, Note_on_c, 9, 51, 0
6, 45269, Note_on_c, 9, 38, 0
6, 45300, Note_on_c, 9, 51, 53
6, 45332, Note_on_c, 9, 51, 0
6, 45360, Note_on_c, 9, 36, 79
6, 45360, Note_on_c, 9, 51, 127
6, 45391, Note_on_c, 9, 36, 0
6, 45393, Note_on_c, 9, 51, 0
6, 45420, Note_on_c, 9, 51, 53
6, 45451, Note_on_c, 9, 51, 0
6, 45480, Note_on_c, 9, 51, 122
6, 45480, Note_on_c, 9, 38, 127
6, 45512, Note_on_c, 9, 38, 0
6, 45513, Note_on_c, 9, 51, 0
6, 45540, Note_on_c, 9, 51, 69
6, 45540, Note_on_c, 9, 38, 127
6, 45572, Note_on_c, 9, 38, 0
6, 45573, Note_on_c, 9, 51, 0
6, 45600, Note_on_c, 9, 36, 80
6, 45600, Note_on_c, 9, 51, 75
6, 45630, Note_on_c, 9, 51, 0
6, 45631, Note_on_c, 9, 36, 0
6, 45660, Note_on_c, 9, 51, 72
6, 45688, Note_on_c, 9, 51, 0
6, 45720, Note_on_c, 9, 51, 116
6, 45720, Note_on_c, 9, 38, 127
6, 45753, Note_on_c, 9, 38, 0
6, 45755, Note_on_c, 9, 51, 0
6, 45780, Note_on_c, 9, 51, 64
6, 45809, Note_on_c, 9, 51, 0
6, 45840, Note_on_c, 9, 51, 108
6, 45840, Note_on_c, 9, 36, 74
6, 45867, Note_on_c, 9, 36, 0
6, 45869, Note_on_c, 9, 51, 0
6, 45900, Note_on_c, 9, 51, 67
6, 45928, Note_on_c, 9, 51, 0
6, 45960, Note_on_c, 9, 51, 122
6, 45960, Note_on_c, 9, 38, 127
6, 45987, Note_on_c, 9, 38, 0
6, 45988, Note_on_c, 9, 51, 0
6, 46020, Note_on_c, 9, 51, 74
6, 46020, Note_on_c, 9, 38, 127
6, 46047, Note_on_c, 9, 38, 0
6, 46048, Note_on_c, 9, 51, 0
6, 46080, Note_on_c, 9, 36, 80
6, 46080, Note_on_c, 9, 51, 106
6, 46110, Note_on_c, 9, 51, 0
6, 46111, Note_on_c, 9, 36, 0
6, 46140, Note_on_c, 9, 51, 54
6, 46172, Note_on_c, 9, 51, 0
6, 46200, Note_on_c, 9, 51, 116
6, 46200, Note_on_c, 9, 38, 119
6, 46229, Note_on_c, 9, 38, 0
6, 46231, Note_on_c, 9, 51, 0
6, 46260, Note_on_c, 9, 51, 53
6, 46290, Note_on_c, 9, 51, 0
6, 46320, Note_on_c, 9, 51, 100
6, 46320, Note_on_c, 9, 36, 85
6, 46346, Note_on_c, 9, 36, 0
6, 46348, Note_on_c, 9, 51, 0
6, 46380, Note_on_c, 9, 51, 69
6, 46413, Note_on_c, 9, 51, 0
6, 46440, Note_on_c, 9, 51, 121
6, 46440, Note_on_c, 9, 38, 127
6, 46469, Note_on_c, 9, 38, 0
6, 46471, Note_on_c, 9, 51, 0
6, 46500, Note_on_c, 9, 38, 127
6, 46500, Note_on_c, 9, 51, 80
6, 46529, Note_on_c, 9, 38, 0
6, 46529, Note_on_c, 9, 51, 0
6, 46560, Note_on_c, 9, 36, 68
6, 46560, Note_on_c, 9, 51, 56
6, 46585, Note_on_c, 9, 36, 0
6, 46585, Note_on_c, 9, 51, 0
6, 46620, Note_on_c, 9, 51, 56
6, 46645, Note_on_c, 9, 51, 0
6, 46680, Note_on_c, 9, 38, 127
6, 46680, Note_on_c, 9, 51, 108
6, 46705, Note_on_c, 9, 38, 0
6, 46705, Note_on_c, 9, 51, 0
6, 46740, Note_on_c, 9, 51, 74
6, 46765, Note_on_c, 9, 51, 0
6, 46800, Note_on_c, 9, 36, 80
6, 46800, Note_on_c, 9, 51, 77
6, 46825, Note_on_c, 9, 36, 0
6, 46825, Note_on_c, 9, 51, 0
6, 46860, Note_on_c, 9, 38, 127
6, 46885, Note_on_c, 9, 38, 0
6, 46920, Note_on_c, 9, 38, 127
6, 46945, Note_on_c, 9, 38, 0
6, 46980, Note_on_c, 9, 38, 122
6, 47005, Note_on_c, 9, 38, 0
6, 47040, Note_on_c, 9, 49, 111
6, 47040, Note_on_c, 9, 36, 80
6, 47071, Note_on_c, 9, 49, 0
6, 47072, Note_on_c, 9, 36, 0
6, 47160, Note_on_c, 9, 51, 127
6, 47160, Note_on_c, 9, 38, 127
6, 47189, Note_on_c, 9, 38, 0
6, 47190, Note_on_c, 9, 51, 0
6, 47280, Note_on_c, 9, 51, 95
6, 47280, Note_on_c, 9, 36, 80
6, 47308, Note_on_c, 9, 36, 0
6, 47309, Note_on_c, 9, 51, 0
6, 47340, Note_on_c, 9, 38, 90
6, 47370, Note_on_c, 9, 38, 0
6, 47400, Note_on_c, 9, 38, 127
6, 47429, Note_on_c, 9, 38, 0
6, 47460, Note_on_c, 9, 38, 105
6, 47492, Note_on_c, 9, 38, 0
6, 47520, Note_on_c, 9, 36, 79
6, 47520, Note_on_c, 9, 51, 127
6, 47548, Note_on_c, 9, 36, 0
6, 47551, Note_on_c, 9, 51, 0
6, 47640, Note_on_c, 9, 38, 127
6, 47640, Note_on_c, 9, 51, 87
6, 47671, Note_on_c, 9, 51, 0
6, 47672, Note_on_c, 9, 38, 0
6, 47760, Note_on_c, 9, 36, 77
6, 47760, Note_on_c, 9, 51, 69
6, 47791, Note_on_c, 9, 51, 0
6, 47792, Note_on_c, 9, 36, 0
6, 47880, Note_on_c, 9, 51, 103
6, 47880, Note_on_c, 9, 38, 127
6, 47906, Note_on_c, 9, 38, 0
6, 47907, Note_on_c, 9, 51, 0
6, 48000, Note_on_c, 9, 51, 69
6, 48000, Note_on_c, 9, 36, 88
6, 48031, Note_on_c, 9, 51, 0
6, 48033, Note_on_c, 9, 36, 0
6, 48120, Note_on_c, 9, 51, 113
6, 48120, Note_on_c, 9, 38, 114
6, 48153, Note_on_c, 9, 38, 0
6, 48154, Note_on_c, 9, 51, 0
6, 48239, Note_on_c, 9, 36, 79
6, 48239, Note_on_c, 9, 51, 92
6, 48266, Note_on_c, 9, 51, 0
6, 48270, Note_on_c, 9, 36, 0
6, 48360, Note_on_c, 9, 38, 127
6, 48360, Note_on_c, 9, 51, 114
6, 48390, Note_on_c, 9, 51, 0
6, 48393, Note_on_c, 9, 38, 0
6, 48480, Note_on_c, 9, 36, 76
6, 48480, Note_on_c, 9, 51, 82
6, 48508, Note_on_c, 9, 51, 0
6, 48509, Note_on_c, 9, 36, 0
6, 48600, Note_on_c, 9, 51, 92
6, 48600, Note_on_c, 9, 38, 127
6, 48629, Note_on_c, 9, 38, 0
6, 48632, Note_on_c, 9, 51, 0
6, 48720, Note_on_c, 9, 36, 79
6, 48720, Note_on_c, 9, 51, 75
6, 48752, Note_on_c, 9, 51, 0
6, 48753, Note_on_c, 9, 36, 0
6, 48840, Note_on_c, 9, 51, 109
6, 48840, Note_on_c, 9, 38, 122
6, 48871, Note_on_c, 9, 38, 0
6, 48873, Note_on_c, 9, 51, 0
6, 48960, Note_on_c, 9, 36, 76
6, 48960, Note_on_c, 9, 51, 82
6, 48988, Note_on_c, 9, 51, 0
6, 48989, Note_on_c, 9, 36, 0
6, 49080, Note_on_c, 9, 51, 92
6, 49080, Note_on_c, 9, 38, 127
6, 49109, Note_on_c, 9, 38, 0
6, 49112, Note_on_c, 9, 51, 0
6, 49200, Note_on_c, 9, 36, 86
6, 49200, Note_on_c, 9, 51, 75
6, 49232, Note_on_c, 9, 51, 0
6, 49233, Note_on_c, 9, 36, 0
6, 49320, Note_on_c, 9, 51, 109
6, 49320, Note_on_c, 9, 38, 122
6, 49351, Note_on_c, 9, 38, 0
6, 49353, Note_on_c, 9, 51, 0
6, 49440, Note_on_c, 9, 36, 76
6, 49440, Note_on_c, 9, 51, 82
6, 49468, Note_on_c, 9, 51, 0
6, 49469, Note_on_c, 9, 36, 0
6, 49560, Note_on_c, 9, 51, 92
6, 49560, Note_on_c, 9, 38, 127
6, 49589, Note_on_c, 9, 38, 0
6, 49592, Note_on_c, 9, 51, 0
6, 49680, Note_on_c, 9, 36, 86
6, 49680, Note_on_c, 9, 51, 75
6, 49712, Note_on_c, 9, 51, 0
6, 49713, Note_on_c, 9, 36, 0
6, 49800, Note_on_c, 9, 51, 109
6, 49800, Note_on_c, 9, 38, 122
6, 49831, Note_on_c, 9, 38, 0
6, 49833, Note_on_c, 9, 51, 0
6, 49920, Note_on_c, 9, 36, 82
6, 49920, Note_on_c, 9, 51, 85
6, 49949, Note_on_c, 9, 36, 0
6, 49949, Note_on_c, 9, 51, 0
6, 50040, Note_on_c, 9, 38, 127
6, 50040, Note_on_c, 9, 51, 72
6, 50077, Note_on_c, 9, 51, 0
6, 50078, Note_on_c, 9, 38, 0
6, 50160, Note_on_c, 9, 36, 77
6, 50160, Note_on_c, 9, 51, 92
6, 50191, Note_on_c, 9, 51, 0
6, 50192, Note_on_c, 9, 36, 0
6, 50280, Note_on_c, 9, 51, 103
6, 50280, Note_on_c, 9, 38, 127
6, 50307, Note_on_c, 9, 38, 0
6, 50308, Note_on_c, 9, 51, 0
6, 50400, Note_on_c, 9, 36, 76
6, 50400, Note_on_c, 9, 51, 72
6, 50427, Note_on_c, 9, 36, 0
6, 50431, Note_on_c, 9, 51, 0
6, 50520, Note_on_c, 9, 38, 127
6, 50520, Note_on_c, 9, 51, 127
6, 50552, Note_on_c, 9, 38, 0
6, 50552, Note_on_c, 9, 51, 0
6, 50640, Note_on_c, 9, 36, 71
6, 50640, Note_on_c, 9, 51, 106
6, 50667, Note_on_c, 9, 36, 0
6, 50672, Note_on_c, 9, 51, 0
6, 50760, Note_on_c, 9, 51, 106
6, 50760, Note_on_c, 9, 38, 127
6, 50791, Note_on_c, 9, 38, 0
6, 50793, Note_on_c, 9, 51, 0
6, 50820, Note_on_c, 9, 38, 127
6, 50852, Note_on_c, 9, 38, 0
6, 50880, Note_on_c, 9, 36, 74
6, 50880, Note_on_c, 9, 51, 103
6, 50906, Note_on_c, 9, 36, 0
6, 50911, Note_on_c, 9, 51, 0
6, 51000, Note_on_c, 9, 38, 105
6, 51000, Note_on_c, 9, 51, 124
6, 51030, Note_on_c, 9, 51, 0
6, 51033, Note_on_c, 9, 38, 0
6, 51120, Note_on_c, 9, 36, 77
6, 51120, Note_on_c, 9, 51, 92
6, 51150, Note_on_c, 9, 51, 0
6, 51152, Note_on_c, 9, 36, 0
6, 51240, Note_on_c, 9, 51, 118
6, 51240, Note_on_c, 9, 38, 127
6, 51266, Note_on_c, 9, 51, 0
6, 51266, Note_on_c, 9, 38, 0
6, 51360, Note_on_c, 9, 36, 77
6, 51360, Note_on_c, 9, 51, 92
6, 51389, Note_on_c, 9, 51, 0
6, 51391, Note_on_c, 9, 36, 0
6, 51480, Note_on_c, 9, 51, 119
6, 51480, Note_on_c, 9, 38, 127
6, 51508, Note_on_c, 9, 38, 0
6, 51511, Note_on_c, 9, 51, 0
6, 51600, Note_on_c, 9, 51, 100
6, 51600, Note_on_c, 9, 36, 76
6, 51632, Note_on_c, 9, 36, 0
6, 51633, Note_on_c, 9, 51, 0
6, 51720, Note_on_c, 9, 51, 108
6, 51752, Note_on_c, 9, 51, 0
6, 51780, Note_on_c, 9, 38, 127
6, 51780, Note_on_c, 9, 51, 87
6, 51807, Note_on_c, 9, 38, 0
6, 51811, Note_on_c, 9, 51, 0
6, 51840, Note_on_c, 9, 38, 127
6, 51865, Note_on_c, 9, 38, 0
6, 51900, Note_on_c, 9, 38, 127
6, 51925, Note_on_c, 9, 38, 0
6, 51960, Note_on_c, 9, 38, 33
6, 51985, Note_on_c, 9, 38, 0
6, 52020, Note_on_c, 9, 38, 127
6, 52045, Note_on_c, 9, 38, 0
6, 52080, Note_on_c, 9, 50, 127
6, 52105, Note_on_c, 9, 50, 0
6, 52140, Note_on_c, 9, 50, 127
6, 52165, Note_on_c, 9, 50, 0
6, 52200, Note_on_c, 9, 48, 127
6, 52225, Note_on_c, 9, 48, 0
6, 52260, Note_on_c, 9, 48, 127
6, 52285, Note_on_c, 9, 48, 0
6, 52320, Note_on_c, 9, 45, 127
6, 52345, Note_on_c, 9, 45, 0
6, 52440, Note_on_c, 9, 38, 127
6, 52465, Note_on_c, 9, 38, 0
6, 52530, Note_on_c, 9, 36, 116
6, 52530, Note_on_c, 9, 49, 89
6, 52555, Note_on_c, 9, 36, 0
6, 52555, Note_on_c, 9, 49, 0
6, 52555, End_track
7, 0, Start_track
7, 0, MIDI_port, 0
7, 0, Sequencer_specific, 7, 0, 0, 0, 106, 0, 4, 2
7, 0, Title_t, "Bass"
7, 0, Control_c, 1, 0, 0
7, 0, Control_c, 1, 32, 0
7, 0, Program_c, 1, 32
7, 0, Control_c, 1, 121, 0
7, 5, Control_c, 1, 7, 115
7, 6, Control_c, 1, 10, 64
7, 7, Control_c, 1, 123, 0
7, 8, Control_c, 1, 91, 40
7, 9, Control_c, 1, 93, 0
7, 10, Control_c, 1, 64, 0
7, 960, Note_on_c, 1, 29, 95
7, 995, Note_on_c, 1, 29, 0
7, 1440, Note_on_c, 1, 29, 95
7, 1475, Note_on_c, 1, 29, 0
7, 1920, Note_on_c, 1, 29, 95
7, 1955, Note_on_c, 1, 29, 0
7, 2400, Note_on_c, 1, 29, 95
7, 2435, Note_on_c, 1, 29, 0
7, 2880, Note_on_c, 1, 34, 92
7, 3098, Note_on_c, 1, 34, 0
7, 3120, Note_on_c, 1, 29, 87
7, 3299, Note_on_c, 1, 29, 0
7, 3360, Note_on_c, 1, 34, 86
7, 3497, Note_on_c, 1, 34, 0
7, 3540, Note_on_c, 1, 34, 82
7, 3586, Note_on_c, 1, 34, 0
7, 3600, Note_on_c, 1, 29, 70
7, 3713, Note_on_c, 1, 29, 0
7, 3720, Note_on_c, 1, 32, 98
7, 3806, Note_on_c, 1, 32, 0
7, 3840, Note_on_c, 1, 41, 89
7, 4048, Note_on_c, 1, 41, 0
7, 4080, Note_on_c, 1, 36, 93
7, 4249, Note_on_c, 1, 36, 0
7, 4260, Note_on_c, 1, 36, 65
7, 4294, Note_on_c, 1, 36, 0
7, 4320, Note_on_c, 1, 41, 88
7, 4400, Note_on_c, 1, 41, 0
7, 4440, Note_on_c, 1, 43, 90
7, 4531, Note_on_c, 1, 43, 0
7, 4560, Note_on_c, 1, 44, 84
7, 4656, Note_on_c, 1, 44, 0
7, 4680, Note_on_c, 1, 45, 90
7, 4777, Note_on_c, 1, 45, 0
7, 4800, Note_on_c, 1, 36, 86
7, 5001, Note_on_c, 1, 36, 0
7, 5040, Note_on_c, 1, 31, 90
7, 5238, Note_on_c, 1, 31, 0
7, 5280, Note_on_c, 1, 34, 87
7, 5485, Note_on_c, 1, 34, 0
7, 5520, Note_on_c, 1, 41, 83
7, 5706, Note_on_c, 1, 41, 0
7, 5760, Note_on_c, 1, 41, 88
7, 5899, Note_on_c, 1, 41, 0
7, 6000, Note_on_c, 1, 36, 84
7, 6186, Note_on_c, 1, 36, 0
7, 6240, Note_on_c, 1, 41, 90
7, 6397, Note_on_c, 1, 41, 0
7, 6420, Note_on_c, 1, 41, 73
7, 6474, Note_on_c, 1, 41, 0
7, 6480, Note_on_c, 1, 36, 77
7, 6572, Note_on_c, 1, 36, 0
7, 6600, Note_on_c, 1, 36, 98
7, 6691, Note_on_c, 1, 36, 0
7, 6720, Note_on_c, 1, 29, 95
7, 6755, Note_on_c, 1, 29, 0
7, 7200, Note_on_c, 1, 29, 95
7, 7235, Note_on_c, 1, 29, 0
7, 7680, Note_on_c, 1, 29, 95
7, 7715, Note_on_c, 1, 29, 0
7, 8160, Note_on_c, 1, 29, 95
7, 8195, Note_on_c, 1, 29, 0
7, 8640, Note_on_c, 1, 34, 92
7, 8858, Note_on_c, 1, 34, 0
7, 8880, Note_on_c, 1, 29, 87
7, 9059, Note_on_c, 1, 29, 0
7, 9120, Note_on_c, 1, 34, 86
7, 9257, Note_on_c, 1, 34, 0
7, 9300, Note_on_c, 1, 34, 82
7, 9346, Note_on_c, 1, 34, 0
7, 9360, Note_on_c, 1, 29, 70
7, 9473, Note_on_c, 1, 29, 0
7, 9480, Note_on_c, 1, 32, 98
7, 9566, Note_on_c, 1, 32, 0
7, 9600, Note_on_c, 1, 41, 89
7, 9808, Note_on_c, 1, 41, 0
7, 9840, Note_on_c, 1, 36, 93
7, 10009, Note_on_c, 1, 36, 0
7, 10020, Note_on_c, 1, 36, 65
7, 10054, Note_on_c, 1, 36, 0
7, 10080, Note_on_c, 1, 41, 88
7, 10160, Note_on_c, 1, 41, 0
7, 10200, Note_on_c, 1, 43, 90
7, 10291, Note_on_c, 1, 43, 0
7, 10320, Note_on_c, 1, 44, 84
7, 10416, Note_on_c, 1, 44, 0
7, 10440, Note_on_c, 1, 45, 90
7, 10537, Note_on_c, 1, 45, 0
7, 10560, Note_on_c, 1, 36, 86
7, 10761, Note_on_c, 1, 36, 0
7, 10800, Note_on_c, 1, 31, 90
7, 10998, Note_on_c, 1, 31, 0
7, 11040, Note_on_c, 1, 34, 87
7, 11245, Note_on_c, 1, 34, 0
7, 11280, Note_on_c, 1, 41, 83
7, 11466, Note_on_c, 1, 41, 0
7, 11520, Note_on_c, 1, 41, 92
7, 11738, Note_on_c, 1, 41, 0
7, 11760, Note_on_c, 1, 36, 87
7, 11939, Note_on_c, 1, 36, 0
7, 12000, Note_on_c, 1, 41, 86
7, 12137, Note_on_c, 1, 41, 0
7, 12180, Note_on_c, 1, 41, 82
7, 12226, Note_on_c, 1, 41, 0
7, 12240, Note_on_c, 1, 36, 70
7, 12353, Note_on_c, 1, 36, 0
7, 12360, Note_on_c, 1, 39, 98
7, 12446, Note_on_c, 1, 39, 0
7, 12480, Note_on_c, 1, 29, 95
7, 12515, Note_on_c, 1, 29, 0
7, 12960, Note_on_c, 1, 29, 95
7, 12995, Note_on_c, 1, 29, 0
7, 13440, Note_on_c, 1, 29, 95
7, 13475, Note_on_c, 1, 29, 0
7, 13920, Note_on_c, 1, 29, 95
7, 13955, Note_on_c, 1, 29, 0
7, 14400, Note_on_c, 1, 34, 92
7, 14618, Note_on_c, 1, 34, 0
7, 14640, Note_on_c, 1, 29, 87
7, 14819, Note_on_c, 1, 29, 0
7, 14880, Note_on_c, 1, 34, 86
7, 15017, Note_on_c, 1, 34, 0
7, 15060, Note_on_c, 1, 34, 82
7, 15106, Note_on_c, 1, 34, 0
7, 15120, Note_on_c, 1, 29, 70
7, 15233, Note_on_c, 1, 29, 0
7, 15240, Note_on_c, 1, 32, 98
7, 15326, Note_on_c, 1, 32, 0
7, 15360, Note_on_c, 1, 41, 89
7, 15568, Note_on_c, 1, 41, 0
7, 15600, Note_on_c, 1, 36, 93
7, 15769, Note_on_c, 1, 36, 0
7, 15780, Note_on_c, 1, 36, 65
7, 15814, Note_on_c, 1, 36, 0
7, 15840, Note_on_c, 1, 41, 88
7, 15920, Note_on_c, 1, 41, 0
7, 15960, Note_on_c, 1, 43, 90
7, 16051, Note_on_c, 1, 43, 0
7, 16080, Note_on_c, 1, 44, 84
7, 16176, Note_on_c, 1, 44, 0
7, 16200, Note_on_c, 1, 45, 90
7, 16297, Note_on_c, 1, 45, 0
7, 16320, Note_on_c, 1, 36, 86
7, 16521, Note_on_c, 1, 36, 0
7, 16560, Note_on_c, 1, 31, 90
7, 16758, Note_on_c, 1, 31, 0
7, 16800, Note_on_c, 1, 34, 87
7, 17005, Note_on_c, 1, 34, 0
7, 17040, Note_on_c, 1, 41, 83
7, 17226, Note_on_c, 1, 41, 0
7, 17280, Note_on_c, 1, 41, 92
7, 17498, Note_on_c, 1, 41, 0
7, 17520, Note_on_c, 1, 36, 87
7, 17699, Note_on_c, 1, 36, 0
7, 17760, Note_on_c, 1, 41, 86
7, 17897, Note_on_c, 1, 41, 0
7, 17940, Note_on_c, 1, 41, 82
7, 17986, Note_on_c, 1, 41, 0
7, 18000, Note_on_c, 1, 36, 70
7, 18113, Note_on_c, 1, 36, 0
7, 18120, Note_on_c, 1, 39, 98
7, 18206, Note_on_c, 1, 39, 0
7, 18240, Note_on_c, 1, 29, 95
7, 18359, Note_on_c, 1, 29, 0
7, 18480, Note_on_c, 1, 36, 88
7, 18622, Note_on_c, 1, 36, 0
7, 18720, Note_on_c, 1, 29, 87
7, 18925, Note_on_c, 1, 29, 0
7, 18960, Note_on_c, 1, 29, 83
7, 19187, Note_on_c, 1, 29, 0
7, 19200, Note_on_c, 1, 41, 89
7, 19408, Note_on_c, 1, 41, 0
7, 19440, Note_on_c, 1, 36, 93
7, 19609, Note_on_c, 1, 36, 0
7, 19620, Note_on_c, 1, 36, 65
7, 19654, Note_on_c, 1, 36, 0
7, 19680, Note_on_c, 1, 41, 88
7, 19760, Note_on_c, 1, 41, 0
7, 19800, Note_on_c, 1, 43, 90
7, 19891, Note_on_c, 1, 43, 0
7, 19920, Note_on_c, 1, 44, 84
7, 20016, Note_on_c, 1, 44, 0
7, 20040, Note_on_c, 1, 45, 90
7, 20137, Note_on_c, 1, 45, 0
7, 20160, Note_on_c, 1, 34, 92
7, 20378, Note_on_c, 1, 34, 0
7, 20400, Note_on_c, 1, 29, 87
7, 20579, Note_on_c, 1, 29, 0
7, 20640, Note_on_c, 1, 34, 86
7, 20777, Note_on_c, 1, 34, 0
7, 20820, Note_on_c, 1, 34, 82
7, 20866, Note_on_c, 1, 34, 0
7, 20880, Note_on_c, 1, 29, 70
7, 20993, Note_on_c, 1, 29, 0
7, 21000, Note_on_c, 1, 32, 98
7, 21086, Note_on_c, 1, 32, 0
7, 21120, Note_on_c, 1, 41, 88
7, 21302, Note_on_c, 1, 41, 0
7, 21359, Note_on_c, 1, 36, 84
7, 21545, Note_on_c, 1, 36, 0
7, 21600, Note_on_c, 1, 41, 90
7, 21757, Note_on_c, 1, 41, 0
7, 21780, Note_on_c, 1, 41, 73
7, 21834, Note_on_c, 1, 41, 0
7, 21840, Note_on_c, 1, 34, 77
7, 21932, Note_on_c, 1, 34, 0
7, 21960, Note_on_c, 1, 35, 98
7, 22051, Note_on_c, 1, 35, 0
7, 22080, Note_on_c, 1, 36, 95
7, 22199, Note_on_c, 1, 36, 0
7, 22320, Note_on_c, 1, 43, 88
7, 22462, Note_on_c, 1, 43, 0
7, 22560, Note_on_c, 1, 34, 87
7, 22765, Note_on_c, 1, 34, 0
7, 22800, Note_on_c, 1, 34, 83
7, 23027, Note_on_c, 1, 34, 0
7, 23040, Note_on_c, 1, 41, 89
7, 23248, Note_on_c, 1, 41, 0
7, 23280, Note_on_c, 1, 36, 93
7, 23449, Note_on_c, 1, 36, 0
7, 23460, Note_on_c, 1, 36, 65
7, 23494, Note_on_c, 1, 36, 0
7, 23520, Note_on_c, 1, 41, 88
7, 23600, Note_on_c, 1, 41, 0
7, 23640, Note_on_c, 1, 43, 90
7, 23731, Note_on_c, 1, 43, 0
7, 23760, Note_on_c, 1, 44, 84
7, 23856, Note_on_c, 1, 44, 0
7, 23880, Note_on_c, 1, 45, 90
7, 23977, Note_on_c, 1, 45, 0
7, 24000, Note_on_c, 1, 41, 92
7, 24218, Note_on_c, 1, 41, 0
7, 24240, Note_on_c, 1, 36, 87
7, 24419, Note_on_c, 1, 36, 0
7, 24480, Note_on_c, 1, 41, 86
7, 24617, Note_on_c, 1, 41, 0
7, 24660, Note_on_c, 1, 41, 82
7, 24706, Note_on_c, 1, 41, 0
7, 24720, Note_on_c, 1, 36, 70
7, 24833, Note_on_c, 1, 36, 0
7, 24840, Note_on_c, 1, 39, 98
7, 24926, Note_on_c, 1, 39, 0
7, 24960, Note_on_c, 1, 41, 94
7, 25093, Note_on_c, 1, 41, 0
7, 25200, Note_on_c, 1, 36, 90
7, 25376, Note_on_c, 1, 36, 0
7, 25440, Note_on_c, 1, 29, 87
7, 25583, Note_on_c, 1, 29, 0
7, 25620, Note_on_c, 1, 29, 74
7, 25669, Note_on_c, 1, 29, 0
7, 25680, Note_on_c, 1, 36, 88
7, 25791, Note_on_c, 1, 36, 0
7, 25800, Note_on_c, 1, 29, 83
7, 25911, Note_on_c, 1, 29, 0
7, 25920, Note_on_c, 1, 34, 92
7, 26138, Note_on_c, 1, 34, 0
7, 26160, Note_on_c, 1, 29, 87
7, 26339, Note_on_c, 1, 29, 0
7, 26400, Note_on_c, 1, 34, 86
7, 26537, Note_on_c, 1, 34, 0
7, 26580, Note_on_c, 1, 34, 82
7, 26626, Note_on_c, 1, 34, 0
7, 26640, Note_on_c, 1, 29, 70
7, 26753, Note_on_c, 1, 29, 0
7, 26760, Note_on_c, 1, 32, 98
7, 26846, Note_on_c, 1, 32, 0
7, 26880, Note_on_c, 1, 41, 88
7, 27062, Note_on_c, 1, 41, 0
7, 27119, Note_on_c, 1, 36, 84
7, 27305, Note_on_c, 1, 36, 0
7, 27360, Note_on_c, 1, 41, 90
7, 27517, Note_on_c, 1, 41, 0
7, 27540, Note_on_c, 1, 41, 73
7, 27594, Note_on_c, 1, 41, 0
7, 27600, Note_on_c, 1, 34, 77
7, 27692, Note_on_c, 1, 34, 0
7, 27720, Note_on_c, 1, 35, 98
7, 27811, Note_on_c, 1, 35, 0
7, 27840, Note_on_c, 1, 48, 85
7, 27953, Note_on_c, 1, 48, 0
7, 28079, Note_on_c, 1, 36, 89
7, 28270, Note_on_c, 1, 36, 0
7, 28320, Note_on_c, 1, 34, 87
7, 28459, Note_on_c, 1, 34, 0
7, 28560, Note_on_c, 1, 29, 83
7, 28746, Note_on_c, 1, 29, 0
7, 28800, Note_on_c, 1, 41, 89
7, 29008, Note_on_c, 1, 41, 0
7, 29040, Note_on_c, 1, 36, 93
7, 29209, Note_on_c, 1, 36, 0
7, 29220, Note_on_c, 1, 36, 65
7, 29254, Note_on_c, 1, 36, 0
7, 29280, Note_on_c, 1, 41, 88
7, 29360, Note_on_c, 1, 41, 0
7, 29400, Note_on_c, 1, 43, 90
7, 29491, Note_on_c, 1, 43, 0
7, 29520, Note_on_c, 1, 44, 84
7, 29616, Note_on_c, 1, 44, 0
7, 29640, Note_on_c, 1, 45, 90
7, 29737, Note_on_c, 1, 45, 0
7, 29760, Note_on_c, 1, 29, 95
7, 29795, Note_on_c, 1, 29, 0
7, 30240, Note_on_c, 1, 29, 95
7, 30275, Note_on_c, 1, 29, 0
7, 30720, Note_on_c, 1, 29, 95
7, 30755, Note_on_c, 1, 29, 0
7, 31200, Note_on_c, 1, 29, 95
7, 31235, Note_on_c, 1, 29, 0
7, 31680, Note_on_c, 1, 34, 92
7, 31898, Note_on_c, 1, 34, 0
7, 31920, Note_on_c, 1, 29, 87
7, 32099, Note_on_c, 1, 29, 0
7, 32160, Note_on_c, 1, 34, 86
7, 32297, Note_on_c, 1, 34, 0
7, 32340, Note_on_c, 1, 34, 82
7, 32386, Note_on_c, 1, 34, 0
7, 32400, Note_on_c, 1, 29, 70
7, 32513, Note_on_c, 1, 29, 0
7, 32520, Note_on_c, 1, 32, 98
7, 32606, Note_on_c, 1, 32, 0
7, 32640, Note_on_c, 1, 41, 89
7, 32848, Note_on_c, 1, 41, 0
7, 32880, Note_on_c, 1, 36, 93
7, 33049, Note_on_c, 1, 36, 0
7, 33060, Note_on_c, 1, 36, 65
7, 33094, Note_on_c, 1, 36, 0
7, 33120, Note_on_c, 1, 41, 88
7, 33200, Note_on_c, 1, 41, 0
7, 33240, Note_on_c, 1, 43, 90
7, 33331, Note_on_c, 1, 43, 0
7, 33360, Note_on_c, 1, 44, 84
7, 33456, Note_on_c, 1, 44, 0
7, 33480, Note_on_c, 1, 45, 90
7, 33577, Note_on_c, 1, 45, 0
7, 33600, Note_on_c, 1, 36, 86
7, 33801, Note_on_c, 1, 36, 0
7, 33840, Note_on_c, 1, 31, 90
7, 34038, Note_on_c, 1, 31, 0
7, 34080, Note_on_c, 1, 34, 87
7, 34285, Note_on_c, 1, 34, 0
7, 34320, Note_on_c, 1, 34, 83
7, 34547, Note_on_c, 1, 34, 0
7, 34560, Note_on_c, 1, 41, 89
7, 34768, Note_on_c, 1, 41, 0
7, 34800, Note_on_c, 1, 36, 93
7, 34969, Note_on_c, 1, 36, 0
7, 34980, Note_on_c, 1, 36, 65
7, 35014, Note_on_c, 1, 36, 0
7, 35040, Note_on_c, 1, 41, 88
7, 35120, Note_on_c, 1, 41, 0
7, 35160, Note_on_c, 1, 43, 90
7, 35251, Note_on_c, 1, 43, 0
7, 35280, Note_on_c, 1, 44, 84
7, 35376, Note_on_c, 1, 44, 0
7, 35400, Note_on_c, 1, 45, 90
7, 35497, Note_on_c, 1, 45, 0
7, 35520, Note_on_c, 1, 29, 95
7, 35555, Note_on_c, 1, 29, 0
7, 36000, Note_on_c, 1, 29, 95
7, 36035, Note_on_c, 1, 29, 0
7, 36480, Note_on_c, 1, 29, 95
7, 36515, Note_on_c, 1, 29, 0
7, 36960, Note_on_c, 1, 29, 95
7, 36995, Note_on_c, 1, 29, 0
7, 37440, Note_on_c, 1, 34, 92
7, 37658, Note_on_c, 1, 34, 0
7, 37680, Note_on_c, 1, 29, 87
7, 37859, Note_on_c, 1, 29, 0
7, 37920, Note_on_c, 1, 34, 86
7, 38057, Note_on_c, 1, 34, 0
7, 38100, Note_on_c, 1, 34, 82
7, 38146, Note_on_c, 1, 34, 0
7, 38160, Note_on_c, 1, 29, 70
7, 38273, Note_on_c, 1, 29, 0
7, 38280, Note_on_c, 1, 32, 98
7, 38366, Note_on_c, 1, 32, 0
7, 38400, Note_on_c, 1, 41, 89
7, 38608, Note_on_c, 1, 41, 0
7, 38640, Note_on_c, 1, 36, 93
7, 38809, Note_on_c, 1, 36, 0
7, 38820, Note_on_c, 1, 36, 65
7, 38854, Note_on_c, 1, 36, 0
7, 38880, Note_on_c, 1, 41, 88
7, 38960, Note_on_c, 1, 41, 0
7, 39000, Note_on_c, 1, 43, 90
7, 39091, Note_on_c, 1, 43, 0
7, 39120, Note_on_c, 1, 44, 84
7, 39216, Note_on_c, 1, 44, 0
7, 39240, Note_on_c, 1, 45, 90
7, 39337, Note_on_c, 1, 45, 0
7, 39360, Note_on_c, 1, 36, 86
7, 39561, Note_on_c, 1, 36, 0
7, 39600, Note_on_c, 1, 31, 90
7, 39798, Note_on_c, 1, 31, 0
7, 39840, Note_on_c, 1, 34, 87
7, 40045, Note_on_c, 1, 34, 0
7, 40080, Note_on_c, 1, 34, 83
7, 40307, Note_on_c, 1, 34, 0
7, 40320, Note_on_c, 1, 41, 92
7, 40538, Note_on_c, 1, 41, 0
7, 40560, Note_on_c, 1, 36, 87
7, 40739, Note_on_c, 1, 36, 0
7, 40800, Note_on_c, 1, 41, 86
7, 40937, Note_on_c, 1, 41, 0
7, 40980, Note_on_c, 1, 41, 82
7, 41026, Note_on_c, 1, 41, 0
7, 41040, Note_on_c, 1, 36, 70
7, 41153, Note_on_c, 1, 36, 0
7, 41160, Note_on_c, 1, 39, 98
7, 41246, Note_on_c, 1, 39, 0
7, 41280, Note_on_c, 1, 29, 95
7, 41315, Note_on_c, 1, 29, 0
7, 41760, Note_on_c, 1, 29, 95
7, 41795, Note_on_c, 1, 29, 0
7, 42240, Note_on_c, 1, 29, 95
7, 42275, Note_on_c, 1, 29, 0
7, 42720, Note_on_c, 1, 29, 95
7, 42755, Note_on_c, 1, 29, 0
7, 43200, Note_on_c, 1, 34, 92
7, 43418, Note_on_c, 1, 34, 0
7, 43440, Note_on_c, 1, 29, 87
7, 43619, Note_on_c, 1, 29, 0
7, 43680, Note_on_c, 1, 34, 86
7, 43817, Note_on_c, 1, 34, 0
7, 43860, Note_on_c, 1, 34, 82
7, 43906, Note_on_c, 1, 34, 0
7, 43920, Note_on_c, 1, 29, 70
7, 44033, Note_on_c, 1, 29, 0
7, 44040, Note_on_c, 1, 32, 98
7, 44126, Note_on_c, 1, 32, 0
7, 44160, Note_on_c, 1, 41, 89
7, 44368, Note_on_c, 1, 41, 0
7, 44400, Note_on_c, 1, 36, 93
7, 44569, Note_on_c, 1, 36, 0
7, 44580, Note_on_c, 1, 36, 65
7, 44614, Note_on_c, 1, 36, 0
7, 44640, Note_on_c, 1, 41, 88
7, 44720, Note_on_c, 1, 41, 0
7, 44760, Note_on_c, 1, 43, 90
7, 44851, Note_on_c, 1, 43, 0
7, 44880, Note_on_c, 1, 44, 84
7, 44976, Note_on_c, 1, 44, 0
7, 45000, Note_on_c, 1, 45, 90
7, 45097, Note_on_c, 1, 45, 0
7, 45120, Note_on_c, 1, 36, 86
7, 45321, Note_on_c, 1, 36, 0
7, 45360, Note_on_c, 1, 31, 90
7, 45558, Note_on_c, 1, 31, 0
7, 45600, Note_on_c, 1, 34, 87
7, 45805, Note_on_c, 1, 34, 0
7, 45840, Note_on_c, 1, 41, 83
7, 46026, Note_on_c, 1, 41, 0
7, 46080, Note_on_c, 1, 41, 92
7, 46298, Note_on_c, 1, 41, 0
7, 46320, Note_on_c, 1, 36, 87
7, 46499, Note_on_c, 1, 36, 0
7, 46560, Note_on_c, 1, 41, 86
7, 46697, Note_on_c, 1, 41, 0
7, 46740, Note_on_c, 1, 41, 82
7, 46786, Note_on_c, 1, 41, 0
7, 46800, Note_on_c, 1, 36, 70
7, 46913, Note_on_c, 1, 36, 0
7, 46920, Note_on_c, 1, 39, 98
7, 47006, Note_on_c, 1, 39, 0
7, 47040, Note_on_c, 1, 29, 95
7, 47159, Note_on_c, 1, 29, 0
7, 47280, Note_on_c, 1, 36, 88
7, 47422, Note_on_c, 1, 36, 0
7, 47520, Note_on_c, 1, 29, 87
7, 47725, Note_on_c, 1, 29, 0
7, 47760, Note_on_c, 1, 29, 83
7, 47987, Note_on_c, 1, 29, 0
7, 48000, Note_on_c, 1, 41, 89
7, 48208, Note_on_c, 1, 41, 0
7, 48240, Note_on_c, 1, 36, 93
7, 48409, Note_on_c, 1, 36, 0
7, 48420, Note_on_c, 1, 36, 65
7, 48454, Note_on_c, 1, 36, 0
7, 48480, Note_on_c, 1, 41, 88
7, 48560, Note_on_c, 1, 41, 0
7, 48600, Note_on_c, 1, 43, 90
7, 48691, Note_on_c, 1, 43, 0
7, 48720, Note_on_c, 1, 44, 84
7, 48816, Note_on_c, 1, 44, 0
7, 48840, Note_on_c, 1, 45, 90
7, 48937, Note_on_c, 1, 45, 0
7, 48960, Note_on_c, 1, 34, 92
7, 49178, Note_on_c, 1, 34, 0
7, 49200, Note_on_c, 1, 29, 87
7, 49379, Note_on_c, 1, 29, 0
7, 49440, Note_on_c, 1, 34, 86
7, 49577, Note_on_c, 1, 34, 0
7, 49620, Note_on_c, 1, 34, 82
7, 49666, Note_on_c, 1, 34, 0
7, 49680, Note_on_c, 1, 29, 70
7, 49793, Note_on_c, 1, 29, 0
7, 49800, Note_on_c, 1, 32, 98
7, 49886, Note_on_c, 1, 32, 0
7, 49920, Note_on_c, 1, 41, 88
7, 50102, Note_on_c, 1, 41, 0
7, 50159, Note_on_c, 1, 36, 84
7, 50345, Note_on_c, 1, 36, 0
7, 50400, Note_on_c, 1, 41, 90
7, 50557, Note_on_c, 1, 41, 0
7, 50580, Note_on_c, 1, 41, 73
7, 50634, Note_on_c, 1, 41, 0
7, 50640, Note_on_c, 1, 34, 77
7, 50732, Note_on_c, 1, 34, 0
7, 50760, Note_on_c, 1, 35, 98
7, 50851, Note_on_c, 1, 35, 0
7, 50880, Note_on_c, 1, 36, 95
7, 50999, Note_on_c, 1, 36, 0
7, 51120, Note_on_c, 1, 43, 88
7, 51262, Note_on_c, 1, 43, 0
7, 51360, Note_on_c, 1, 34, 87
7, 51499, Note_on_c, 1, 34, 0
7, 51600, Note_on_c, 1, 29, 83
7, 51786, Note_on_c, 1, 29, 0
7, 51840, Note_on_c, 1, 41, 96
7, 51892, Note_on_c, 1, 41, 0
7, 51899, Note_on_c, 1, 41, 79
7, 51953, Note_on_c, 1, 41, 0
7, 51959, Note_on_c, 1, 45, 93
7, 52052, Note_on_c, 1, 45, 0
7, 52080, Note_on_c, 1, 46, 86
7, 52176, Note_on_c, 1, 46, 0
7, 52200, Note_on_c, 1, 47, 99
7, 52285, Note_on_c, 1, 47, 0
7, 52320, Note_on_c, 1, 48, 76
7, 52365, Note_on_c, 1, 48, 0
7, 52381, Note_on_c, 1, 36, 59
7, 52439, Note_on_c, 1, 36, 0
7, 52440, Note_on_c, 1, 40, 73
7, 52489, Note_on_c, 1, 40, 0
7, 52501, Note_on_c, 1, 41, 104
7, 52660, Note_on_c, 1, 41, 0
7, 52660, End_track
8, 0, Start_track
8, 0, MIDI_port, 0
8, 0, Sequencer_specific, 7, 0, 0, 0, 106, 0, 4, 3
8, 0, Title_t, "Piano"
8, 0, Control_c, 2, 0, 0
8, 0, Control_c, 2, 32, 0
8, 0, Program_c, 2, 0
8, 0, Control_c, 2, 121, 0
8, 14, Control_c, 2, 7, 100
8, 15, Control_c, 2, 10, 64
8, 16, Control_c, 2, 123, 0
8, 17, Control_c, 2, 91, 40
8, 18, Control_c, 2, 93, 0
8, 19, Control_c, 2, 64, 0
8, 960, Note_on_c, 2, 92, 85
8, 961, Note_on_c, 2, 84, 85
8, 961, Note_on_c, 2, 57, 85
8, 964, Note_on_c, 2, 41, 85
8, 967, Note_on_c, 2, 92, 0
8, 967, Note_on_c, 2, 89, 85
8, 970, Note_on_c, 2, 93, 85
8, 996, Note_on_c, 2, 84, 0
8, 996, Note_on_c, 2, 57, 0
8, 999, Note_on_c, 2, 41, 0
8, 1002, Note_on_c, 2, 89, 0
8, 1002, Note_on_c, 2, 93, 0
8, 1440, Note_on_c, 2, 92, 85
8, 1441, Note_on_c, 2, 84, 85
8, 1441, Note_on_c, 2, 57, 85
8, 1444, Note_on_c, 2, 41, 85
8, 1447, Note_on_c, 2, 92, 0
8, 1447, Note_on_c, 2, 89, 85
8, 1450, Note_on_c, 2, 93, 85
8, 1476, Note_on_c, 2, 84, 0
8, 1476, Note_on_c, 2, 57, 0
8, 1479, Note_on_c, 2, 41, 0
8, 1482, Note_on_c, 2, 89, 0
8, 1485, Note_on_c, 2, 93, 0
8, 1921, Note_on_c, 2, 84, 85
8, 1921, Note_on_c, 2, 57, 85
8, 1924, Note_on_c, 2, 41, 85
8, 1927, Note_on_c, 2, 89, 85
8, 1930, Note_on_c, 2, 93, 85
8, 1956, Note_on_c, 2, 84, 0
8, 1956, Note_on_c, 2, 57, 0
8, 1959, Note_on_c, 2, 41, 0
8, 1962, Note_on_c, 2, 89, 0
8, 1965, Note_on_c, 2, 93, 0
8, 2400, Note_on_c, 2, 92, 85
8, 2401, Note_on_c, 2, 84, 85
8, 2401, Note_on_c, 2, 57, 85
8, 2404, Note_on_c, 2, 41, 85
8, 2407, Note_on_c, 2, 92, 0
8, 2407, Note_on_c, 2, 89, 85
8, 2410, Note_on_c, 2, 93, 85
8, 2436, Note_on_c, 2, 84, 0
8, 2436, Note_on_c, 2, 57, 0
8, 2439, Note_on_c, 2, 41, 0
8, 2442, Note_on_c, 2, 89, 0
8, 2445, Note_on_c, 2, 93, 0
8, 2885, Note_on_c, 2, 41, 90
8, 2887, Note_on_c, 2, 89, 93
8, 2887, Note_on_c, 2, 34, 69
8, 2888, Note_on_c, 2, 92, 103
8, 2919, Note_on_c, 2, 92, 0
8, 2927, Note_on_c, 2, 89, 0
8, 2928, Note_on_c, 2, 34, 0
8, 2929, Note_on_c, 2, 41, 0
8, 2949, Note_on_c, 2, 89, 78
8, 2952, Note_on_c, 2, 92, 84
8, 2978, Note_on_c, 2, 92, 0
8, 2979, Note_on_c, 2, 89, 0
8, 3002, Note_on_c, 2, 43, 95
8, 3004, Note_on_c, 2, 34, 85
8, 3007, Note_on_c, 2, 87, 110
8, 3009, Note_on_c, 2, 91, 96
8, 3056, Note_on_c, 2, 34, 0
8, 3059, Note_on_c, 2, 43, 0
8, 3061, Note_on_c, 2, 91, 0
8, 3067, Note_on_c, 2, 82, 67
8, 3086, Note_on_c, 2, 87, 0
8, 3099, Note_on_c, 2, 82, 0
8, 3122, Note_on_c, 2, 85, 102
8, 3124, Note_on_c, 2, 89, 85
8, 3125, Note_on_c, 2, 41, 84
8, 3128, Note_on_c, 2, 34, 72
8, 3133, Note_on_c, 2, 86, 92
8, 3141, Note_on_c, 2, 85, 0
8, 3167, Note_on_c, 2, 41, 0
8, 3167, Note_on_c, 2, 34, 0
8, 3171, Note_on_c, 2, 86, 0
8, 3180, Note_on_c, 2, 89, 0
8, 3190, Note_on_c, 2, 82, 79
8, 3202, Note_on_c, 2, 41, 75
8, 3222, Note_on_c, 2, 82, 0
8, 3229, Note_on_c, 2, 41, 0
8, 3245, Note_on_c, 2, 91, 100
8, 3246, Note_on_c, 2, 34, 79
8, 3246, Note_on_c, 2, 87, 107
8, 3248, Note_on_c, 2, 43, 93
8, 3282, Note_on_c, 2, 34, 0
8, 3282, Note_on_c, 2, 43, 0
8, 3306, Note_on_c, 2, 91, 0
8, 3308, Note_on_c, 2, 82, 77
8, 3314, Note_on_c, 2, 43, 80
8, 3317, Note_on_c, 2, 87, 0
8, 3317, Note_on_c, 2, 34, 59
8, 3339, Note_on_c, 2, 34, 0
8, 3342, Note_on_c, 2, 82, 0
8, 3344, Note_on_c, 2, 43, 0
8, 3364, Note_on_c, 2, 85, 99
8, 3367, Note_on_c, 2, 89, 79
8, 3371, Note_on_c, 2, 41, 82
8, 3371, Note_on_c, 2, 34, 72
8, 3386, Note_on_c, 2, 86, 80
8, 3391, Note_on_c, 2, 85, 0
8, 3403, Note_on_c, 2, 34, 0
8, 3404, Note_on_c, 2, 41, 0
8, 3419, Note_on_c, 2, 86, 0
8, 3428, Note_on_c, 2, 82, 77
8, 3439, Note_on_c, 2, 41, 77
8, 3443, Note_on_c, 2, 34, 57
8, 3444, Note_on_c, 2, 89, 0
8, 3461, Note_on_c, 2, 82, 0
8, 3462, Note_on_c, 2, 34, 0
8, 3465, Note_on_c, 2, 41, 0
8, 3487, Note_on_c, 2, 91, 96
8, 3488, Note_on_c, 2, 87, 106
8, 3490, Note_on_c, 2, 43, 89
8, 3492, Note_on_c, 2, 34, 85
8, 3519, Note_on_c, 2, 43, 0
8, 3520, Note_on_c, 2, 34, 0
8, 3527, Note_on_c, 2, 91, 0
8, 3530, Note_on_c, 2, 87, 0
8, 3548, Note_on_c, 2, 85, 101
8, 3549, Note_on_c, 2, 43, 98
8, 3551, Note_on_c, 2, 89, 83
8, 3554, Note_on_c, 2, 34, 76
8, 3558, Note_on_c, 2, 86, 94
8, 3565, Note_on_c, 2, 85, 0
8, 3581, Note_on_c, 2, 34, 0
8, 3589, Note_on_c, 2, 89, 0
8, 3591, Note_on_c, 2, 86, 0
8, 3592, Note_on_c, 2, 43, 0
8, 3605, Note_on_c, 2, 34, 69
8, 3608, Note_on_c, 2, 41, 88
8, 3634, Note_on_c, 2, 41, 0
8, 3635, Note_on_c, 2, 34, 0
8, 3670, Note_on_c, 2, 77, 96
8, 3672, Note_on_c, 2, 41, 99
8, 3676, Note_on_c, 2, 34, 78
8, 3694, Note_on_c, 2, 34, 0
8, 3704, Note_on_c, 2, 77, 0
8, 3706, Note_on_c, 2, 41, 0
8, 3724, Note_on_c, 2, 43, 100
8, 3730, Note_on_c, 2, 77, 67
8, 3750, Note_on_c, 2, 43, 0
8, 3758, Note_on_c, 2, 77, 0
8, 3784, Note_on_c, 2, 48, 84
8, 3786, Note_on_c, 2, 77, 92
8, 3813, Note_on_c, 2, 48, 0
8, 3820, Note_on_c, 2, 77, 0
8, 3843, Note_on_c, 2, 53, 78
8, 3844, Note_on_c, 2, 60, 80
8, 3845, Note_on_c, 2, 84, 86
8, 3851, Note_on_c, 2, 89, 82
8, 3885, Note_on_c, 2, 84, 0
8, 3888, Note_on_c, 2, 89, 0
8, 3894, Note_on_c, 2, 53, 0
8, 3894, Note_on_c, 2, 60, 0
8, 3910, Note_on_c, 2, 84, 66
8, 3911, Note_on_c, 2, 89, 50
8, 3940, Note_on_c, 2, 84, 0
8, 3943, Note_on_c, 2, 89, 0
8, 3961, Note_on_c, 2, 62, 87
8, 3965, Note_on_c, 2, 53, 74
8, 3965, Note_on_c, 2, 89, 89
8, 3966, Note_on_c, 2, 84, 99
8, 4005, Note_on_c, 2, 53, 0
8, 4007, Note_on_c, 2, 62, 0
8, 4012, Note_on_c, 2, 84, 0
8, 4019, Note_on_c, 2, 89, 0
8, 4082, Note_on_c, 2, 83, 97
8, 4085, Note_on_c, 2, 89, 89
8, 4085, Note_on_c, 2, 60, 88
8, 4086, Note_on_c, 2, 84, 92
8, 4088, Note_on_c, 2, 53, 82
8, 4116, Note_on_c, 2, 83, 0
8, 4136, Note_on_c, 2, 60, 0
8, 4138, Note_on_c, 2, 84, 0
8, 4139, Note_on_c, 2, 53, 0
8, 4146, Note_on_c, 2, 89, 0
8, 4204, Note_on_c, 2, 62, 91
8, 4209, Note_on_c, 2, 53, 82
8, 4265, Note_on_c, 2, 62, 0
8, 4265, Note_on_c, 2, 53, 0
8, 4271, Note_on_c, 2, 83, 90
8, 4273, Note_on_c, 2, 89, 90
8, 4273, Note_on_c, 2, 84, 87
8, 4306, Note_on_c, 2, 83, 0
8, 4325, Note_on_c, 2, 60, 77
8, 4327, Note_on_c, 2, 84, 0
8, 4328, Note_on_c, 2, 53, 73
8, 4335, Note_on_c, 2, 89, 0
8, 4388, Note_on_c, 2, 60, 0
8, 4391, Note_on_c, 2, 53, 0
8, 4392, Note_on_c, 2, 89, 102
8, 4394, Note_on_c, 2, 83, 98
8, 4394, Note_on_c, 2, 84, 98
8, 4440, Note_on_c, 2, 83, 0
8, 4444, Note_on_c, 2, 62, 79
8, 4450, Note_on_c, 2, 53, 67
8, 4458, Note_on_c, 2, 84, 0
8, 4463, Note_on_c, 2, 89, 0
8, 4507, Note_on_c, 2, 89, 98
8, 4507, Note_on_c, 2, 83, 96
8, 4507, Note_on_c, 2, 84, 96
8, 4521, Note_on_c, 2, 53, 0
8, 4523, Note_on_c, 2, 62, 0
8, 4539, Note_on_c, 2, 83, 0
8, 4545, Note_on_c, 2, 84, 0
8, 4562, Note_on_c, 2, 60, 84
8, 4564, Note_on_c, 2, 89, 0
8, 4564, Note_on_c, 2, 53, 77
8, 4640, Note_on_c, 2, 53, 0
8, 4642, Note_on_c, 2, 60, 0
8, 4682, Note_on_c, 2, 62, 96
8, 4683, Note_on_c, 2, 53, 87
8, 4780, Note_on_c, 2, 53, 0
8, 4789, Note_on_c, 2, 62, 0
8, 4806, Note_on_c, 2, 79, 89
8, 4806, Note_on_c, 2, 82, 103
8, 4807, Note_on_c, 2, 74, 83
8, 4809, Note_on_c, 2, 55, 82
8, 4810, Note_on_c, 2, 48, 81
8, 4846, Note_on_c, 2, 48, 0
8, 4847, Note_on_c, 2, 55, 0
8, 4856, Note_on_c, 2, 82, 0
8, 4857, Note_on_c, 2, 79, 0
8, 4858, Note_on_c, 2, 74, 0
8, 4868, Note_on_c, 2, 55, 72
8, 4870, Note_on_c, 2, 48, 58
8, 4913, Note_on_c, 2, 48, 0
8, 4925, Note_on_c, 2, 51, 96
8, 4930, Note_on_c, 2, 55, 0
8, 4973, Note_on_c, 2, 51, 0
8, 4990, Note_on_c, 2, 52, 85
8, 4991, Note_on_c, 2, 82, 101
8, 4991, Note_on_c, 2, 79, 80
8, 4992, Note_on_c, 2, 74, 80
8, 4993, Note_on_c, 2, 76, 75
8, 5030, Note_on_c, 2, 52, 0
8, 5039, Note_on_c, 2, 82, 0
8, 5043, Note_on_c, 2, 74, 0
8, 5046, Note_on_c, 2, 76, 0
8, 5048, Note_on_c, 2, 79, 0
8, 5048, Note_on_c, 2, 55, 83
8, 5051, Note_on_c, 2, 48, 78
8, 5085, Note_on_c, 2, 48, 0
8, 5088, Note_on_c, 2, 55, 0
8, 5107, Note_on_c, 2, 79, 84
8, 5110, Note_on_c, 2, 55, 73
8, 5110, Note_on_c, 2, 82, 91
8, 5110, Note_on_c, 2, 48, 71
8, 5111, Note_on_c, 2, 76, 82
8, 5111, Note_on_c, 2, 74, 80
8, 5142, Note_on_c, 2, 82, 0
8, 5153, Note_on_c, 2, 48, 0
8, 5154, Note_on_c, 2, 74, 0
8, 5161, Note_on_c, 2, 79, 0
8, 5161, Note_on_c, 2, 76, 0
8, 5163, Note_on_c, 2, 55, 0
8, 5168, Note_on_c, 2, 51, 87
8, 5215, Note_on_c, 2, 51, 0
8, 5220, Note_on_c, 2, 72, 85
8, 5231, Note_on_c, 2, 52, 78
8, 5275, Note_on_c, 2, 72, 0
8, 5276, Note_on_c, 2, 52, 0
8, 5290, Note_on_c, 2, 53, 84
8, 5292, Note_on_c, 2, 46, 78
8, 5330, Note_on_c, 2, 46, 0
8, 5333, Note_on_c, 2, 53, 0
8, 5351, Note_on_c, 2, 46, 65
8, 5352, Note_on_c, 2, 53, 82
8, 5353, Note_on_c, 2, 65, 71
8, 5388, Note_on_c, 2, 65, 0
8, 5392, Note_on_c, 2, 46, 0
8, 5402, Note_on_c, 2, 53, 0
8, 5411, Note_on_c, 2, 49, 100
8, 5411, Note_on_c, 2, 74, 93
8, 5461, Note_on_c, 2, 49, 0
8, 5472, Note_on_c, 2, 50, 73
8, 5488, Note_on_c, 2, 74, 0
8, 5508, Note_on_c, 2, 50, 0
8, 5526, Note_on_c, 2, 53, 87
8, 5527, Note_on_c, 2, 65, 96
8, 5528, Note_on_c, 2, 77, 97
8, 5529, Note_on_c, 2, 46, 83
8, 5560, Note_on_c, 2, 65, 0
8, 5567, Note_on_c, 2, 46, 0
8, 5582, Note_on_c, 2, 77, 0
8, 5584, Note_on_c, 2, 46, 78
8, 5603, Control_c, 2, 64, 127
8, 5622, Note_on_c, 2, 46, 0
8, 5644, Note_on_c, 2, 49, 106
8, 5654, Control_c, 2, 64, 0
8, 5659, Note_on_c, 2, 53, 0
8, 5664, Note_on_c, 2, 98, 44
8, 5670, Note_on_c, 2, 96, 83
8, 5677, Note_on_c, 2, 94, 95
8, 5680, Note_on_c, 2, 98, 0
8, 5681, Note_on_c, 2, 49, 0
8, 5681, Note_on_c, 2, 96, 0
8, 5685, Note_on_c, 2, 93, 96
8, 5689, Note_on_c, 2, 94, 0
8, 5692, Note_on_c, 2, 91, 95
8, 5693, Note_on_c, 2, 93, 0
8, 5700, Note_on_c, 2, 50, 88
8, 5701, Note_on_c, 2, 89, 89
8, 5702, Note_on_c, 2, 91, 0
8, 5709, Note_on_c, 2, 88, 93
8, 5711, Note_on_c, 2, 89, 0
8, 5717, Note_on_c, 2, 86, 82
8, 5720, Note_on_c, 2, 88, 0
8, 5725, Note_on_c, 2, 84, 88
8, 5731, Note_on_c, 2, 86, 0
8, 5734, Note_on_c, 2, 82, 89
8, 5738, Note_on_c, 2, 84, 0
8, 5739, Note_on_c, 2, 50, 0
8, 5742, Note_on_c, 2, 81, 93
8, 5743, Note_on_c, 2, 82, 0
8, 5750, Note_on_c, 2, 79, 99
8, 5751, Note_on_c, 2, 81, 0
8, 5755, Note_on_c, 2, 79, 0
8, 5766, Note_on_c, 2, 99, 95
8, 5766, Note_on_c, 2, 101, 92
8, 5766, Note_on_c, 2, 95, 108
8, 5767, Note_on_c, 2, 60, 83
8, 5768, Note_on_c, 2, 96, 96
8, 5769, Note_on_c, 2, 53, 76
8, 5794, Note_on_c, 2, 95, 0
8, 5804, Note_on_c, 2, 101, 0
8, 5805, Note_on_c, 2, 96, 0
8, 5808, Note_on_c, 2, 99, 0
8, 5811, Note_on_c, 2, 53, 0
8, 5814, Note_on_c, 2, 60, 0
8, 5826, Note_on_c, 2, 96, 77
8, 5826, Note_on_c, 2, 99, 69
8, 5827, Note_on_c, 2, 101, 74
8, 5829, Note_on_c, 2, 95, 85
8, 5852, Note_on_c, 2, 95, 0
8, 5857, Note_on_c, 2, 101, 0
8, 5858, Note_on_c, 2, 96, 0
8, 5860, Note_on_c, 2, 99, 0
8, 5880, Note_on_c, 2, 62, 88
8, 5882, Note_on_c, 2, 53, 84
8, 5886, Note_on_c, 2, 99, 57
8, 5886, Note_on_c, 2, 95, 102
8, 5886, Note_on_c, 2, 96, 92
8, 5887, Note_on_c, 2, 101, 82
8, 5916, Note_on_c, 2, 95, 0
8, 5918, Note_on_c, 2, 101, 0
8, 5919, Note_on_c, 2, 96, 0
8, 5921, Note_on_c, 2, 99, 0
8, 5934, Note_on_c, 2, 53, 0
8, 5938, Note_on_c, 2, 62, 0
8, 5948, Note_on_c, 2, 101, 77
8, 5948, Note_on_c, 2, 96, 84
8, 5949, Note_on_c, 2, 99, 53
8, 5949, Note_on_c, 2, 95, 88
8, 5973, Note_on_c, 2, 95, 0
8, 5979, Note_on_c, 2, 101, 0
8, 5979, Note_on_c, 2, 96, 0
8, 5979, Note_on_c, 2, 99, 0
8, 6000, Note_on_c, 2, 60, 88
8, 6000, Note_on_c, 2, 101, 87
8, 6002, Note_on_c, 2, 53, 81
8, 6003, Note_on_c, 2, 96, 85
8, 6003, Note_on_c, 2, 99, 69
8, 6004, Note_on_c, 2, 95, 98
8, 6030, Note_on_c, 2, 95, 0
8, 6037, Note_on_c, 2, 96, 0
8, 6038, Note_on_c, 2, 101, 0
8, 6039, Note_on_c, 2, 99, 0
8, 6058, Note_on_c, 2, 53, 0
8, 6061, Note_on_c, 2, 60, 0
8, 6065, Note_on_c, 2, 96, 82
8, 6065, Note_on_c, 2, 101, 72
8, 6065, Note_on_c, 2, 99, 60
8, 6065, Note_on_c, 2, 95, 98
8, 6090, Note_on_c, 2, 95, 0
8, 6094, Note_on_c, 2, 101, 0
8, 6096, Note_on_c, 2, 96, 0
8, 6098, Note_on_c, 2, 99, 0
8, 6116, Note_on_c, 2, 62, 91
8, 6122, Note_on_c, 2, 53, 76
8, 6122, Note_on_c, 2, 99, 60
8, 6122, Note_on_c, 2, 101, 80
8, 6123, Note_on_c, 2, 96, 84
8, 6123, Note_on_c, 2, 95, 103
8, 6149, Note_on_c, 2, 95, 0
8, 6152, Note_on_c, 2, 101, 0
8, 6154, Note_on_c, 2, 96, 0
8, 6156, Note_on_c, 2, 99, 0
8, 6183, Note_on_c, 2, 101, 78
8, 6183, Note_on_c, 2, 99, 59
8, 6184, Note_on_c, 2, 96, 89
8, 6184, Note_on_c, 2, 95, 100
8, 6207, Note_on_c, 2, 53, 0
8, 6210, Note_on_c, 2, 95, 0
8, 6212, Note_on_c, 2, 101, 0
8, 6215, Note_on_c, 2, 96, 0
8, 6216, Note_on_c, 2, 62, 0
8, 6216, Note_on_c, 2, 99, 0
8, 6242, Note_on_c, 2, 60, 74
8, 6243, Note_on_c, 2, 53, 63
8, 6245, Note_on_c, 2, 95, 103
8, 6245, Note_on_c, 2, 96, 99
8, 6245, Note_on_c, 2, 101, 87
8, 6246, Note_on_c, 2, 99, 86
8, 6291, Note_on_c, 2, 95, 0
8, 6294, Note_on_c, 2, 53, 0
8, 6298, Note_on_c, 2, 60, 0
8, 6304, Note_on_c, 2, 96, 0
8, 6305, Note_on_c, 2, 89, 77
8, 6311, Note_on_c, 2, 99, 0
8, 6320, Note_on_c, 2, 101, 0
8, 6340, Note_on_c, 2, 89, 0
8, 6361, Note_on_c, 2, 62, 87
8, 6362, Note_on_c, 2, 101, 89
8, 6363, Note_on_c, 2, 98, 88
8, 6364, Note_on_c, 2, 94, 93
8, 6367, Note_on_c, 2, 53, 76
8, 6399, Note_on_c, 2, 94, 0
8, 6421, Note_on_c, 2, 98, 0
8, 6427, Note_on_c, 2, 89, 80
8, 6432, Note_on_c, 2, 53, 0
8, 6442, Note_on_c, 2, 62, 0
8, 6445, Note_on_c, 2, 101, 0
8, 6457, Note_on_c, 2, 89, 0
8, 6484, Note_on_c, 2, 96, 98
8, 6485, Note_on_c, 2, 60, 88
8, 6486, Note_on_c, 2, 101, 93
8, 6486, Note_on_c, 2, 92, 110
8, 6488, Note_on_c, 2, 53, 82
8, 6524, Note_on_c, 2, 92, 0
8, 6531, Note_on_c, 2, 96, 0
8, 6544, Note_on_c, 2, 101, 0
8, 6570, Note_on_c, 2, 53, 0
8, 6576, Note_on_c, 2, 60, 0
8, 6605, Note_on_c, 2, 96, 96
8, 6607, Note_on_c, 2, 62, 93
8, 6609, Note_on_c, 2, 97, 107
8, 6621, Note_on_c, 2, 98, 93
8, 6625, Note_on_c, 2, 97, 0
8, 6635, Note_on_c, 2, 96, 0
8, 6646, Note_on_c, 2, 62, 0
8, 6669, Note_on_c, 2, 98, 0
8, 6673, Note_on_c, 2, 101, 94
8, 6707, Note_on_c, 2, 101, 0
8, 6720, Note_on_c, 2, 92, 85
8, 6721, Note_on_c, 2, 84, 85
8, 6721, Note_on_c, 2, 57, 85
8, 6724, Note_on_c, 2, 41, 85
8, 6727, Note_on_c, 2, 92, 0
8, 6727, Note_on_c, 2, 89, 85
8, 6730, Note_on_c, 2, 93, 85
8, 6756, Note_on_c, 2, 84, 0
8, 6756, Note_on_c, 2, 57, 0
8, 6759, Note_on_c, 2, 41, 0
8, 6762, Note_on_c, 2, 89, 0
8, 6765, Note_on_c, 2, 93, 0
8, 7200, Note_on_c, 2, 92, 85
8, 7201, Note_on_c, 2, 84, 85
8, 7201, Note_on_c, 2, 57, 85
8, 7204, Note_on_c, 2, 41, 85
8, 7207, Note_on_c, 2, 92, 0
8, 7207, Note_on_c, 2, 89, 85
8, 7210, Note_on_c, 2, 93, 85
8, 7236, Note_on_c, 2, 84, 0
8, 7236, Note_on_c, 2, 57, 0
8, 7239, Note_on_c, 2, 41, 0
8, 7242, Note_on_c, 2, 89, 0
8, 7242, Note_on_c, 2, 93, 0
8, 7680, Note_on_c, 2, 92, 85
8, 7681, Note_on_c, 2, 84, 85
8, 7681, Note_on_c, 2, 57, 85
8, 7684, Note_on_c, 2, 41, 85
8, 7687, Note_on_c, 2, 92, 0
8, 7687, Note_on_c, 2, 89, 85
8, 7690, Note_on_c, 2, 93, 85
8, 7716, Note_on_c, 2, 84, 0
8, 7716, Note_on_c, 2, 57, 0
8, 7719, Note_on_c, 2, 41, 0
8, 7722, Note_on_c, 2, 89, 0
8, 7722, Note_on_c, 2, 93, 0
8, 8160, Note_on_c, 2, 92, 85
8, 8161, Note_on_c, 2, 84, 85
8, 8161, Note_on_c, 2, 57, 85
8, 8164, Note_on_c, 2, 41, 85
8, 8167, Note_on_c, 2, 92, 0
8, 8167, Note_on_c, 2, 89, 85
8, 8170, Note_on_c, 2, 93, 85
8, 8196, Note_on_c, 2, 84, 0
8, 8196, Note_on_c, 2, 57, 0
8, 8199, Note_on_c, 2, 41, 0
8, 8202, Note_on_c, 2, 89, 0
8, 8205, Note_on_c, 2, 93, 0
8, 8646, Note_on_c, 2, 92, 95
8, 8646, Note_on_c, 2, 94, 92
8, 8646, Note_on_c, 2, 88, 108
8, 8647, Note_on_c, 2, 53, 83
8, 8648, Note_on_c, 2, 89, 96
8, 8649, Note_on_c, 2, 46, 76
8, 8674, Note_on_c, 2, 88, 0
8, 8684, Note_on_c, 2, 94, 0
8, 8685, Note_on_c, 2, 89, 0
8, 8688, Note_on_c, 2, 92, 0
8, 8691, Note_on_c, 2, 46, 0
8, 8694, Note_on_c, 2, 53, 0
8, 8706, Note_on_c, 2, 89, 77
8, 8706, Note_on_c, 2, 92, 69
8, 8707, Note_on_c, 2, 94, 74
8, 8709, Note_on_c, 2, 88, 85
8, 8732, Note_on_c, 2, 88, 0
8, 8737, Note_on_c, 2, 94, 0
8, 8738, Note_on_c, 2, 89, 0
8, 8740, Note_on_c, 2, 92, 0
8, 8760, Note_on_c, 2, 55, 88
8, 8762, Note_on_c, 2, 46, 84
8, 8766, Note_on_c, 2, 92, 57
8, 8766, Note_on_c, 2, 88, 102
8, 8766, Note_on_c, 2, 89, 92
8, 8767, Note_on_c, 2, 94, 82
8, 8796, Note_on_c, 2, 88, 0
8, 8798, Note_on_c, 2, 94, 0
8, 8799, Note_on_c, 2, 89, 0
8, 8801, Note_on_c, 2, 92, 0
8, 8814, Note_on_c, 2, 46, 0
8, 8818, Note_on_c, 2, 55, 0
8, 8828, Note_on_c, 2, 94, 77
8, 8828, Note_on_c, 2, 89, 84
8, 8829, Note_on_c, 2, 92, 53
8, 8829, Note_on_c, 2, 88, 88
8, 8853, Note_on_c, 2, 88, 0
8, 8859, Note_on_c, 2, 94, 0
8, 8859, Note_on_c, 2, 89, 0
8, 8859, Note_on_c, 2, 92, 0
8, 8880, Note_on_c, 2, 53, 88
8, 8880, Note_on_c, 2, 94, 87
8, 8882, Note_on_c, 2, 46, 81
8, 8883, Note_on_c, 2, 89, 85
8, 8883, Note_on_c, 2, 92, 69
8, 8884, Note_on_c, 2, 88, 98
8, 8910, Note_on_c, 2, 88, 0
8, 8917, Note_on_c, 2, 89, 0
8, 8918, Note_on_c, 2, 94, 0
8, 8919, Note_on_c, 2, 92, 0
8, 8938, Note_on_c, 2, 46, 0
8, 8941, Note_on_c, 2, 53, 0
8, 8945, Note_on_c, 2, 89, 82
8, 8945, Note_on_c, 2, 94, 72
8, 8945, Note_on_c, 2, 92, 60
8, 8945, Note_on_c, 2, 88, 98
8, 8970, Note_on_c, 2, 88, 0
8, 8974, Note_on_c, 2, 94, 0
8, 8976, Note_on_c, 2, 89, 0
8, 8978, Note_on_c, 2, 92, 0
8, 8996, Note_on_c, 2, 55, 91
8, 9002, Note_on_c, 2, 46, 76
8, 9002, Note_on_c, 2, 92, 60
8, 9002, Note_on_c, 2, 94, 80
8, 9003, Note_on_c, 2, 89, 84
8, 9003, Note_on_c, 2, 88, 103
8, 9029, Note_on_c, 2, 88, 0
8, 9032, Note_on_c, 2, 94, 0
8, 9034, Note_on_c, 2, 89, 0
8, 9036, Note_on_c, 2, 92, 0
8, 9063, Note_on_c, 2, 94, 78
8, 9063, Note_on_c, 2, 92, 59
8, 9064, Note_on_c, 2, 89, 89
8, 9064, Note_on_c, 2, 88, 100
8, 9087, Note_on_c, 2, 46, 0
8, 9090, Note_on_c, 2, 88, 0
8, 9092, Note_on_c, 2, 94, 0
8, 9095, Note_on_c, 2, 89, 0
8, 9096, Note_on_c, 2, 55, 0
8, 9096, Note_on_c, 2, 92, 0
8, 9122, Note_on_c, 2, 53, 74
8, 9123, Note_on_c, 2, 46, 63
8, 9125, Note_on_c, 2, 88, 103
8, 9125, Note_on_c, 2, 89, 99
8, 9125, Note_on_c, 2, 94, 87
8, 9126, Note_on_c, 2, 92, 86
8, 9171, Note_on_c, 2, 88, 0
8, 9174, Note_on_c, 2, 46, 0
8, 9178, Note_on_c, 2, 53, 0
8, 9184, Note_on_c, 2, 89, 0
8, 9185, Note_on_c, 2, 82, 77
8, 9191, Note_on_c, 2, 92, 0
8, 9200, Note_on_c, 2, 94, 0
8, 9220, Note_on_c, 2, 82, 0
8, 9241, Note_on_c, 2, 55, 87
8, 9242, Note_on_c, 2, 94, 89
8, 9243, Note_on_c, 2, 91, 88
8, 9244, Note_on_c, 2, 87, 93
8, 9247, Note_on_c, 2, 46, 76
8, 9279, Note_on_c, 2, 87, 0
8, 9301, Note_on_c, 2, 91, 0
8, 9307, Note_on_c, 2, 82, 80
8, 9312, Note_on_c, 2, 46, 0
8, 9322, Note_on_c, 2, 55, 0
8, 9325, Note_on_c, 2, 94, 0
8, 9337, Note_on_c, 2, 82, 0
8, 9364, Note_on_c, 2, 89, 98
8, 9365, Note_on_c, 2, 53, 88
8, 9366, Note_on_c, 2, 94, 93
8, 9366, Note_on_c, 2, 85, 110
8, 9368, Note_on_c, 2, 46, 82
8, 9404, Note_on_c, 2, 85, 0
8, 9411, Note_on_c, 2, 89, 0
8, 9424, Note_on_c, 2, 94, 0
8, 9450, Note_on_c, 2, 46, 0
8, 9456, Note_on_c, 2, 53, 0
8, 9485, Note_on_c, 2, 89, 96
8, 9487, Note_on_c, 2, 55, 93
8, 9489, Note_on_c, 2, 90, 107
8, 9501, Note_on_c, 2, 91, 93
8, 9505, Note_on_c, 2, 90, 0
8, 9515, Note_on_c, 2, 89, 0
8, 9526, Note_on_c, 2, 55, 0
8, 9549, Note_on_c, 2, 91, 0
8, 9553, Note_on_c, 2, 94, 94
8, 9587, Note_on_c, 2, 94, 0
8, 9606, Note_on_c, 2, 99, 95
8, 9606, Note_on_c, 2, 101, 92
8, 9606, Note_on_c, 2, 95, 108
8, 9607, Note_on_c, 2, 60, 83
8, 9608, Note_on_c, 2, 96, 96
8, 9609, Note_on_c, 2, 53, 76
8, 9634, Note_on_c, 2, 95, 0
8, 9644, Note_on_c, 2, 101, 0
8, 9645, Note_on_c, 2, 96, 0
8, 9648, Note_on_c, 2, 99, 0
8, 9651, Note_on_c, 2, 53, 0
8, 9654, Note_on_c, 2, 60, 0
8, 9666, Note_on_c, 2, 96, 77
8, 9666, Note_on_c, 2, 99, 69
8, 9667, Note_on_c, 2, 101, 74
8, 9669, Note_on_c, 2, 95, 85
8, 9692, Note_on_c, 2, 95, 0
8, 9697, Note_on_c, 2, 101, 0
8, 9698, Note_on_c, 2, 96, 0
8, 9700, Note_on_c, 2, 99, 0
8, 9720, Note_on_c, 2, 62, 88
8, 9722, Note_on_c, 2, 53, 84
8, 9726, Note_on_c, 2, 99, 57
8, 9726, Note_on_c, 2, 95, 102
8, 9726, Note_on_c, 2, 96, 92
8, 9727, Note_on_c, 2, 101, 82
8, 9756, Note_on_c, 2, 95, 0
8, 9758, Note_on_c, 2, 101, 0
8, 9759, Note_on_c, 2, 96, 0
8, 9761, Note_on_c, 2, 99, 0
8, 9774, Note_on_c, 2, 53, 0
8, 9778, Note_on_c, 2, 62, 0
8, 9788, Note_on_c, 2, 101, 77
8, 9788, Note_on_c, 2, 96, 84
8, 9789, Note_on_c, 2, 99, 53
8, 9789, Note_on_c, 2, 95, 88
8, 9813, Note_on_c, 2, 95, 0
8, 9819, Note_on_c, 2, 101, 0
8, 9819, Note_on_c, 2, 96, 0
8, 9819, Note_on_c, 2, 99, 0
8, 9840, Note_on_c, 2, 60, 88
8, 9840, Note_on_c, 2, 101, 87
8, 9842, Note_on_c, 2, 53, 81
8, 9843, Note_on_c, 2, 96, 85
8, 9843, Note_on_c, 2, 99, 69
8, 9844, Note_on_c, 2, 95, 98
8, 9870, Note_on_c, 2, 95, 0
8, 9877, Note_on_c, 2, 96, 0
8, 9878, Note_on_c, 2, 101, 0
8, 9879, Note_on_c, 2, 99, 0
8, 9898, Note_on_c, 2, 53, 0
8, 9901, Note_on_c, 2, 60, 0
8, 9905, Note_on_c, 2, 96, 82
8, 9905, Note_on_c, 2, 101, 72
8, 9905, Note_on_c, 2, 99, 60
8, 9905, Note_on_c, 2, 95, 98
8, 9930, Note_on_c, 2, 95, 0
8, 9934, Note_on_c, 2, 101, 0
8, 9936, Note_on_c, 2, 96, 0
8, 9938, Note_on_c, 2, 99, 0
8, 9956, Note_on_c, 2, 62, 91
8, 9962, Note_on_c, 2, 53, 76
8, 9962, Note_on_c, 2, 99, 60
8, 9962, Note_on_c, 2, 101, 80
8, 9963, Note_on_c, 2, 96, 84
8, 9963, Note_on_c, 2, 95, 103
8, 9989, Note_on_c, 2, 95, 0
8, 9992, Note_on_c, 2, 101, 0
8, 9994, Note_on_c, 2, 96, 0
8, 9996, Note_on_c, 2, 99, 0
8, 10023, Note_on_c, 2, 101, 78
8, 10023, Note_on_c, 2, 99, 59
8, 10024, Note_on_c, 2, 96, 89
8, 10024, Note_on_c, 2, 95, 100
8, 10047, Note_on_c, 2, 53, 0
8, 10050, Note_on_c, 2, 95, 0
8, 10052, Note_on_c, 2, 101, 0
8, 10055, Note_on_c, 2, 96, 0
8, 10056, Note_on_c, 2, 62, 0
8, 10056, Note_on_c, 2, 99, 0
8, 10082, Note_on_c, 2, 60, 74
8, 10083, Note_on_c, 2, 53, 63
8, 10085, Note_on_c, 2, 95, 103
8, 10085, Note_on_c, 2, 96, 99
8, 10085, Note_on_c, 2, 101, 87
8, 10086, Note_on_c, 2, 99, 86
8, 10131, Note_on_c, 2, 95, 0
8, 10134, Note_on_c, 2, 53, 0
8, 10138, Note_on_c, 2, 60, 0
8, 10144, Note_on_c, 2, 96, 0
8, 10145, Note_on_c, 2, 89, 77
8, 10151, Note_on_c, 2, 99, 0
8, 10160, Note_on_c, 2, 101, 0
8, 10180, Note_on_c, 2, 89, 0
8, 10201, Note_on_c, 2, 62, 87
8, 10202, Note_on_c, 2, 101, 89
8, 10203, Note_on_c, 2, 98, 88
8, 10204, Note_on_c, 2, 94, 93
8, 10207, Note_on_c, 2, 53, 76
8, 10239, Note_on_c, 2, 94, 0
8, 10261, Note_on_c, 2, 98, 0
8, 10267, Note_on_c, 2, 89, 80
8, 10272, Note_on_c, 2, 53, 0
8, 10282, Note_on_c, 2, 62, 0
8, 10285, Note_on_c, 2, 101, 0
8, 10297, Note_on_c, 2, 89, 0
8, 10324, Note_on_c, 2, 96, 98
8, 10325, Note_on_c, 2, 60, 88
8, 10326, Note_on_c, 2, 101, 93
8, 10326, Note_on_c, 2, 92, 110
8, 10328, Note_on_c, 2, 53, 82
8, 10364, Note_on_c, 2, 92, 0
8, 10371, Note_on_c, 2, 96, 0
8, 10384, Note_on_c, 2, 101, 0
8, 10410, Note_on_c, 2, 53, 0
8, 10416, Note_on_c, 2, 60, 0
8, 10445, Note_on_c, 2, 96, 96
8, 10447, Note_on_c, 2, 62, 93
8, 10449, Note_on_c, 2, 97, 107
8, 10461, Note_on_c, 2, 98, 93
8, 10465, Note_on_c, 2, 97, 0
8, 10475, Note_on_c, 2, 96, 0
8, 10486, Note_on_c, 2, 62, 0
8, 10509, Note_on_c, 2, 98, 0
8, 10513, Note_on_c, 2, 101, 94
8, 10547, Note_on_c, 2, 101, 0
8, 10566, Note_on_c, 2, 79, 89
8, 10566, Note_on_c, 2, 82, 103
8, 10567, Note_on_c, 2, 74, 83
8, 10569, Note_on_c, 2, 55, 82
8, 10570, Note_on_c, 2, 48, 81
8, 10606, Note_on_c, 2, 48, 0
8, 10607, Note_on_c, 2, 55, 0
8, 10616, Note_on_c, 2, 82, 0
8, 10617, Note_on_c, 2, 79, 0
8, 10618, Note_on_c, 2, 74, 0
8, 10628, Note_on_c, 2, 55, 72
8, 10630, Note_on_c, 2, 48, 58
8, 10673, Note_on_c, 2, 48, 0
8, 10685, Note_on_c, 2, 51, 96
8, 10690, Note_on_c, 2, 55, 0
8, 10733, Note_on_c, 2, 51, 0
8, 10750, Note_on_c, 2, 52, 85
8, 10751, Note_on_c, 2, 82, 101
8, 10751, Note_on_c, 2, 79, 80
8, 10752, Note_on_c, 2, 74, 80
8, 10753, Note_on_c, 2, 76, 75
8, 10790, Note_on_c, 2, 52, 0
8, 10799, Note_on_c, 2, 82, 0
8, 10803, Note_on_c, 2, 74, 0
8, 10806, Note_on_c, 2, 76, 0
8, 10808, Note_on_c, 2, 79, 0
8, 10808, Note_on_c, 2, 55, 83
8, 10811, Note_on_c, 2, 48, 78
8, 10845, Note_on_c, 2, 48, 0
8, 10848, Note_on_c, 2, 55, 0
8, 10867, Note_on_c, 2, 79, 84
8, 10870, Note_on_c, 2, 55, 73
8, 10870, Note_on_c, 2, 82, 91
8, 10870, Note_on_c, 2, 48, 71
8, 10871, Note_on_c, 2, 76, 82
8, 10871, Note_on_c, 2, 74, 80
8, 10902, Note_on_c, 2, 82, 0
8, 10913, Note_on_c, 2, 48, 0
8, 10914, Note_on_c, 2, 74, 0
8, 10921, Note_on_c, 2, 79, 0
8, 10921, Note_on_c, 2, 76, 0
8, 10923, Note_on_c, 2, 55, 0
8, 10928, Note_on_c, 2, 51, 87
8, 10975, Note_on_c, 2, 51, 0
8, 10980, Note_on_c, 2, 72, 85
8, 10991, Note_on_c, 2, 52, 78
8, 11035, Note_on_c, 2, 72, 0
8, 11036, Note_on_c, 2, 52, 0
8, 11044, Note_on_c, 2, 85, 99
8, 11047, Note_on_c, 2, 89, 79
8, 11051, Note_on_c, 2, 41, 82
8, 11051, Note_on_c, 2, 34, 72
8, 11066, Note_on_c, 2, 86, 80
8, 11071, Note_on_c, 2, 85, 0
8, 11083, Note_on_c, 2, 34, 0
8, 11084, Note_on_c, 2, 41, 0
8, 11099, Note_on_c, 2, 86, 0
8, 11108, Note_on_c, 2, 82, 77
8, 11119, Note_on_c, 2, 41, 77
8, 11123, Note_on_c, 2, 34, 57
8, 11124, Note_on_c, 2, 89, 0
8, 11141, Note_on_c, 2, 82, 0
8, 11142, Note_on_c, 2, 34, 0
8, 11145, Note_on_c, 2, 41, 0
8, 11167, Note_on_c, 2, 91, 96
8, 11168, Note_on_c, 2, 87, 106
8, 11170, Note_on_c, 2, 43, 89
8, 11172, Note_on_c, 2, 34, 85
8, 11199, Note_on_c, 2, 43, 0
8, 11200, Note_on_c, 2, 34, 0
8, 11207, Note_on_c, 2, 91, 0
8, 11210, Note_on_c, 2, 87, 0
8, 11228, Note_on_c, 2, 85, 101
8, 11229, Note_on_c, 2, 43, 98
8, 11231, Note_on_c, 2, 89, 83
8, 11234, Note_on_c, 2, 34, 76
8, 11238, Note_on_c, 2, 86, 94
8, 11245, Note_on_c, 2, 85, 0
8, 11261, Note_on_c, 2, 34, 0
8, 11269, Note_on_c, 2, 89, 0
8, 11271, Note_on_c, 2, 86, 0
8, 11272, Note_on_c, 2, 43, 0
8, 11285, Note_on_c, 2, 34, 69
8, 11288, Note_on_c, 2, 41, 88
8, 11314, Note_on_c, 2, 41, 0
8, 11315, Note_on_c, 2, 34, 0
8, 11350, Note_on_c, 2, 77, 96
8, 11352, Note_on_c, 2, 41, 99
8, 11356, Note_on_c, 2, 34, 78
8, 11374, Note_on_c, 2, 34, 0
8, 11384, Note_on_c, 2, 77, 0
8, 11386, Note_on_c, 2, 41, 0
8, 11404, Note_on_c, 2, 43, 100
8, 11410, Note_on_c, 2, 77, 67
8, 11430, Note_on_c, 2, 43, 0
8, 11438, Note_on_c, 2, 77, 0
8, 11464, Note_on_c, 2, 48, 84
8, 11466, Note_on_c, 2, 77, 92
8, 11493, Note_on_c, 2, 48, 0
8, 11500, Note_on_c, 2, 77, 0
8, 11527, Note_on_c, 2, 60, 72
8, 11531, Note_on_c, 2, 53, 70
8, 11587, Note_on_c, 2, 60, 0
8, 11587, Note_on_c, 2, 96, 108
8, 11587, Note_on_c, 2, 92, 112
8, 11590, Note_on_c, 2, 53, 0
8, 11598, Note_on_c, 2, 93, 80
8, 11612, Note_on_c, 2, 92, 0
8, 11629, Note_on_c, 2, 96, 0
8, 11630, Note_on_c, 2, 93, 0
8, 11646, Note_on_c, 2, 62, 78
8, 11646, Note_on_c, 2, 96, 90
8, 11647, Note_on_c, 2, 93, 94
8, 11651, Note_on_c, 2, 53, 60
8, 11682, Note_on_c, 2, 96, 0
8, 11682, Note_on_c, 2, 93, 0
8, 11692, Note_on_c, 2, 53, 0
8, 11698, Note_on_c, 2, 62, 0
8, 11704, Note_on_c, 2, 96, 84
8, 11705, Note_on_c, 2, 93, 91
8, 11736, Note_on_c, 2, 96, 0
8, 11737, Note_on_c, 2, 93, 0
8, 11758, Note_on_c, 2, 60, 68
8, 11760, Note_on_c, 2, 96, 91
8, 11760, Note_on_c, 2, 53, 66
8, 11762, Note_on_c, 2, 93, 98
8, 11796, Note_on_c, 2, 96, 0
8, 11796, Note_on_c, 2, 93, 0
8, 11807, Note_on_c, 2, 60, 0
8, 11807, Note_on_c, 2, 53, 0
8, 11823, Note_on_c, 2, 96, 77
8, 11823, Note_on_c, 2, 93, 92
8, 11852, Note_on_c, 2, 96, 0
8, 11854, Note_on_c, 2, 93, 0
8, 11878, Note_on_c, 2, 62, 78
8, 11880, Note_on_c, 2, 53, 73
8, 11881, Note_on_c, 2, 96, 98
8, 11882, Note_on_c, 2, 93, 105
8, 11913, Note_on_c, 2, 96, 0
8, 11914, Note_on_c, 2, 93, 0
8, 11923, Note_on_c, 2, 62, 0
8, 11924, Note_on_c, 2, 53, 0
8, 11943, Note_on_c, 2, 96, 89
8, 11943, Note_on_c, 2, 93, 95
8, 11971, Note_on_c, 2, 96, 0
8, 11973, Note_on_c, 2, 93, 0
8, 11994, Note_on_c, 2, 60, 69
8, 11995, Note_on_c, 2, 53, 67
8, 12000, Note_on_c, 2, 96, 98
8, 12001, Note_on_c, 2, 93, 102
8, 12030, Note_on_c, 2, 96, 0
8, 12031, Note_on_c, 2, 93, 0
8, 12043, Note_on_c, 2, 60, 0
8, 12047, Note_on_c, 2, 53, 0
8, 12060, Note_on_c, 2, 96, 85
8, 12061, Note_on_c, 2, 93, 89
8, 12091, Note_on_c, 2, 96, 0
8, 12091, Note_on_c, 2, 93, 0
8, 12119, Note_on_c, 2, 53, 69
8, 12120, Note_on_c, 2, 96, 95
8, 12120, Note_on_c, 2, 62, 68
8, 12121, Note_on_c, 2, 93, 97
8, 12152, Note_on_c, 2, 96, 0
8, 12153, Note_on_c, 2, 93, 0
8, 12165, Note_on_c, 2, 62, 0
8, 12167, Note_on_c, 2, 53, 0
8, 12183, Note_on_c, 2, 96, 84
8, 12184, Note_on_c, 2, 93, 91
8, 12216, Note_on_c, 2, 96, 0
8, 12216, Note_on_c, 2, 93, 0
8, 12242, Note_on_c, 2, 86, 82
8, 12243, Note_on_c, 2, 60, 73
8, 12245, Note_on_c, 2, 53, 68
8, 12290, Note_on_c, 2, 60, 0
8, 12291, Note_on_c, 2, 86, 0
8, 12294, Note_on_c, 2, 53, 0
8, 12306, Note_on_c, 2, 89, 90
8, 12344, Note_on_c, 2, 89, 0
8, 12363, Note_on_c, 2, 53, 76
8, 12363, Note_on_c, 2, 91, 109
8, 12363, Note_on_c, 2, 62, 85
8, 12391, Note_on_c, 2, 53, 0
8, 12393, Note_on_c, 2, 62, 0
8, 12414, Note_on_c, 2, 91, 0
8, 12425, Note_on_c, 2, 89, 95
8, 12456, Note_on_c, 2, 89, 0
8, 12480, Note_on_c, 2, 92, 85
8, 12481, Note_on_c, 2, 84, 85
8, 12481, Note_on_c, 2, 57, 85
8, 12484, Note_on_c, 2, 41, 85
8, 12487, Note_on_c, 2, 92, 0
8, 12487, Note_on_c, 2, 89, 85
8, 12490, Note_on_c, 2, 93, 85
8, 12516, Note_on_c, 2, 84, 0
8, 12516, Note_on_c, 2, 57, 0
8, 12519, Note_on_c, 2, 41, 0
8, 12522, Note_on_c, 2, 89, 0
8, 12522, Note_on_c, 2, 93, 0
8, 12961, Note_on_c, 2, 84, 85
8, 12961, Note_on_c, 2, 57, 85
8, 12964, Note_on_c, 2, 41, 85
8, 12967, Note_on_c, 2, 89, 85
8, 12970, Note_on_c, 2, 93, 85
8, 12996, Note_on_c, 2, 84, 0
8, 12996, Note_on_c, 2, 57, 0
8, 12999, Note_on_c, 2, 41, 0
8, 13002, Note_on_c, 2, 89, 0
8, 13005, Note_on_c, 2, 93, 0
8, 13440, Note_on_c, 2, 92, 85
8, 13441, Note_on_c, 2, 84, 85
8, 13441, Note_on_c, 2, 57, 85
8, 13444, Note_on_c, 2, 41, 85
8, 13447, Note_on_c, 2, 92, 0
8, 13447, Note_on_c, 2, 89, 85
8, 13450, Note_on_c, 2, 93, 85
8, 13476, Note_on_c, 2, 84, 0
8, 13476, Note_on_c, 2, 57, 0
8, 13479, Note_on_c, 2, 41, 0
8, 13482, Note_on_c, 2, 89, 0
8, 13482, Note_on_c, 2, 93, 0
8, 13920, Note_on_c, 2, 92, 85
8, 13921, Note_on_c, 2, 84, 85
8, 13921, Note_on_c, 2, 57, 85
8, 13924, Note_on_c, 2, 41, 85
8, 13927, Note_on_c, 2, 92, 0
8, 13927, Note_on_c, 2, 89, 85
8, 13930, Note_on_c, 2, 93, 85
8, 13956, Note_on_c, 2, 84, 0
8, 13956, Note_on_c, 2, 57, 0
8, 13959, Note_on_c, 2, 41, 0
8, 13962, Note_on_c, 2, 89, 0
8, 13965, Note_on_c, 2, 93, 0
8, 14403, Note_on_c, 2, 46, 78
8, 14404, Note_on_c, 2, 53, 80
8, 14405, Note_on_c, 2, 77, 86
8, 14411, Note_on_c, 2, 82, 82
8, 14445, Note_on_c, 2, 77, 0
8, 14448, Note_on_c, 2, 82, 0
8, 14454, Note_on_c, 2, 46, 0
8, 14454, Note_on_c, 2, 53, 0
8, 14470, Note_on_c, 2, 77, 66
8, 14471, Note_on_c, 2, 82, 50
8, 14500, Note_on_c, 2, 77, 0
8, 14503, Note_on_c, 2, 82, 0
8, 14521, Note_on_c, 2, 55, 87
8, 14525, Note_on_c, 2, 46, 74
8, 14525, Note_on_c, 2, 82, 89
8, 14526, Note_on_c, 2, 77, 99
8, 14565, Note_on_c, 2, 46, 0
8, 14567, Note_on_c, 2, 55, 0
8, 14572, Note_on_c, 2, 77, 0
8, 14579, Note_on_c, 2, 82, 0
8, 14642, Note_on_c, 2, 76, 97
8, 14645, Note_on_c, 2, 82, 89
8, 14645, Note_on_c, 2, 53, 88
8, 14646, Note_on_c, 2, 77, 92
8, 14648, Note_on_c, 2, 46, 82
8, 14676, Note_on_c, 2, 76, 0
8, 14696, Note_on_c, 2, 53, 0
8, 14698, Note_on_c, 2, 77, 0
8, 14699, Note_on_c, 2, 46, 0
8, 14706, Note_on_c, 2, 82, 0
8, 14764, Note_on_c, 2, 55, 91
8, 14769, Note_on_c, 2, 46, 82
8, 14825, Note_on_c, 2, 55, 0
8, 14825, Note_on_c, 2, 46, 0
8, 14831, Note_on_c, 2, 76, 90
8, 14833, Note_on_c, 2, 82, 90
8, 14833, Note_on_c, 2, 77, 87
8, 14866, Note_on_c, 2, 76, 0
8, 14885, Note_on_c, 2, 53, 77
8, 14887, Note_on_c, 2, 77, 0
8, 14888, Note_on_c, 2, 46, 73
8, 14895, Note_on_c, 2, 82, 0
8, 14948, Note_on_c, 2, 53, 0
8, 14951, Note_on_c, 2, 46, 0
8, 14952, Note_on_c, 2, 82, 102
8, 14954, Note_on_c, 2, 76, 98
8, 14954, Note_on_c, 2, 77, 98
8, 15000, Note_on_c, 2, 76, 0
8, 15004, Note_on_c, 2, 55, 79
8, 15010, Note_on_c, 2, 46, 67
8, 15018, Note_on_c, 2, 77, 0
8, 15023, Note_on_c, 2, 82, 0
8, 15067, Note_on_c, 2, 82, 98
8, 15067, Note_on_c, 2, 76, 96
8, 15067, Note_on_c, 2, 77, 96
8, 15081, Note_on_c, 2, 46, 0
8, 15083, Note_on_c, 2, 55, 0
8, 15099, Note_on_c, 2, 76, 0
8, 15105, Note_on_c, 2, 77, 0
8, 15122, Note_on_c, 2, 53, 84
8, 15124, Note_on_c, 2, 82, 0
8, 15124, Note_on_c, 2, 46, 77
8, 15200, Note_on_c, 2, 46, 0
8, 15202, Note_on_c, 2, 53, 0
8, 15242, Note_on_c, 2, 55, 96
8, 15243, Note_on_c, 2, 46, 87
8, 15340, Note_on_c, 2, 46, 0
8, 15349, Note_on_c, 2, 55, 0
8, 15363, Note_on_c, 2, 53, 78
8, 15364, Note_on_c, 2, 60, 80
8, 15365, Note_on_c, 2, 84, 86
8, 15371, Note_on_c, 2, 89, 82
8, 15405, Note_on_c, 2, 84, 0
8, 15408, Note_on_c, 2, 89, 0
8, 15414, Note_on_c, 2, 53, 0
8, 15414, Note_on_c, 2, 60, 0
8, 15430, Note_on_c, 2, 84, 66
8, 15431, Note_on_c, 2, 89, 50
8, 15460, Note_on_c, 2, 84, 0
8, 15463, Note_on_c, 2, 89, 0
8, 15481, Note_on_c, 2, 62, 87
8, 15485, Note_on_c, 2, 53, 74
8, 15485, Note_on_c, 2, 89, 89
8, 15486, Note_on_c, 2, 84, 99
8, 15525, Note_on_c, 2, 53, 0
8, 15527, Note_on_c, 2, 62, 0
8, 15532, Note_on_c, 2, 84, 0
8, 15539, Note_on_c, 2, 89, 0
8, 15602, Note_on_c, 2, 83, 97
8, 15605, Note_on_c, 2, 89, 89
8, 15605, Note_on_c, 2, 60, 88
8, 15606, Note_on_c, 2, 84, 92
8, 15608, Note_on_c, 2, 53, 82
8, 15636, Note_on_c, 2, 83, 0
8, 15656, Note_on_c, 2, 60, 0
8, 15658, Note_on_c, 2, 84, 0
8, 15659, Note_on_c, 2, 53, 0
8, 15666, Note_on_c, 2, 89, 0
8, 15724, Note_on_c, 2, 62, 91
8, 15729, Note_on_c, 2, 53, 82
8, 15785, Note_on_c, 2, 62, 0
8, 15785, Note_on_c, 2, 53, 0
8, 15791, Note_on_c, 2, 83, 90
8, 15793, Note_on_c, 2, 89, 90
8, 15793, Note_on_c, 2, 84, 87
8, 15826, Note_on_c, 2, 83, 0
8, 15845, Note_on_c, 2, 60, 77
8, 15847, Note_on_c, 2, 84, 0
8, 15848, Note_on_c, 2, 53, 73
8, 15855, Note_on_c, 2, 89, 0
8, 15908, Note_on_c, 2, 60, 0
8, 15911, Note_on_c, 2, 53, 0
8, 15912, Note_on_c, 2, 89, 102
8, 15914, Note_on_c, 2, 83, 98
8, 15914, Note_on_c, 2, 84, 98
8, 15960, Note_on_c, 2, 83, 0
8, 15964, Note_on_c, 2, 62, 79
8, 15970, Note_on_c, 2, 53, 67
8, 15978, Note_on_c, 2, 84, 0
8, 15983, Note_on_c, 2, 89, 0
8, 16027, Note_on_c, 2, 89, 98
8, 16027, Note_on_c, 2, 83, 96
8, 16027, Note_on_c, 2, 84, 96
8, 16041, Note_on_c, 2, 53, 0
8, 16043, Note_on_c, 2, 62, 0
8, 16059, Note_on_c, 2, 83, 0
8, 16065, Note_on_c, 2, 84, 0
8, 16082, Note_on_c, 2, 60, 84
8, 16084, Note_on_c, 2, 89, 0
8, 16084, Note_on_c, 2, 53, 77
8, 16160, Note_on_c, 2, 53, 0
8, 16162, Note_on_c, 2, 60, 0
8, 16202, Note_on_c, 2, 62, 96
8, 16203, Note_on_c, 2, 53, 87
8, 16300, Note_on_c, 2, 53, 0
8, 16309, Note_on_c, 2, 62, 0
8, 16326, Note_on_c, 2, 79, 89
8, 16326, Note_on_c, 2, 82, 103
8, 16327, Note_on_c, 2, 74, 83
8, 16329, Note_on_c, 2, 55, 82
8, 16330, Note_on_c, 2, 48, 81
8, 16366, Note_on_c, 2, 48, 0
8, 16367, Note_on_c, 2, 55, 0
8, 16376, Note_on_c, 2, 82, 0
8, 16377, Note_on_c, 2, 79, 0
8, 16378, Note_on_c, 2, 74, 0
8, 16388, Note_on_c, 2, 55, 72
8, 16390, Note_on_c, 2, 48, 58
8, 16433, Note_on_c, 2, 48, 0
8, 16445, Note_on_c, 2, 51, 96
8, 16450, Note_on_c, 2, 55, 0
8, 16493, Note_on_c, 2, 51, 0
8, 16510, Note_on_c, 2, 52, 85
8, 16511, Note_on_c, 2, 82, 101
8, 16511, Note_on_c, 2, 79, 80
8, 16512, Note_on_c, 2, 74, 80
8, 16513, Note_on_c, 2, 76, 75
8, 16550, Note_on_c, 2, 52, 0
8, 16559, Note_on_c, 2, 82, 0
8, 16563, Note_on_c, 2, 74, 0
8, 16566, Note_on_c, 2, 76, 0
8, 16568, Note_on_c, 2, 79, 0
8, 16568, Note_on_c, 2, 55, 83
8, 16571, Note_on_c, 2, 48, 78
8, 16605, Note_on_c, 2, 48, 0
8, 16608, Note_on_c, 2, 55, 0
8, 16627, Note_on_c, 2, 79, 84
8, 16630, Note_on_c, 2, 55, 73
8, 16630, Note_on_c, 2, 82, 91
8, 16630, Note_on_c, 2, 48, 71
8, 16631, Note_on_c, 2, 76, 82
8, 16631, Note_on_c, 2, 74, 80
8, 16662, Note_on_c, 2, 82, 0
8, 16673, Note_on_c, 2, 48, 0
8, 16674, Note_on_c, 2, 74, 0
8, 16681, Note_on_c, 2, 79, 0
8, 16681, Note_on_c, 2, 76, 0
8, 16683, Note_on_c, 2, 55, 0
8, 16688, Note_on_c, 2, 51, 87
8, 16735, Note_on_c, 2, 51, 0
8, 16740, Note_on_c, 2, 72, 85
8, 16751, Note_on_c, 2, 52, 78
8, 16795, Note_on_c, 2, 72, 0
8, 16796, Note_on_c, 2, 52, 0
8, 16810, Note_on_c, 2, 53, 84
8, 16812, Note_on_c, 2, 46, 78
8, 16850, Note_on_c, 2, 46, 0
8, 16853, Note_on_c, 2, 53, 0
8, 16871, Note_on_c, 2, 46, 65
8, 16872, Note_on_c, 2, 53, 82
8, 16873, Note_on_c, 2, 65, 71
8, 16908, Note_on_c, 2, 65, 0
8, 16912, Note_on_c, 2, 46, 0
8, 16922, Note_on_c, 2, 53, 0
8, 16931, Note_on_c, 2, 49, 100
8, 16931, Note_on_c, 2, 74, 93
8, 16981, Note_on_c, 2, 49, 0
8, 16992, Note_on_c, 2, 50, 73
8, 17008, Note_on_c, 2, 74, 0
8, 17028, Note_on_c, 2, 50, 0
8, 17046, Note_on_c, 2, 53, 87
8, 17047, Note_on_c, 2, 65, 96
8, 17048, Note_on_c, 2, 77, 97
8, 17049, Note_on_c, 2, 46, 83
8, 17080, Note_on_c, 2, 65, 0
8, 17087, Note_on_c, 2, 46, 0
8, 17102, Note_on_c, 2, 77, 0
8, 17104, Note_on_c, 2, 46, 78
8, 17123, Control_c, 2, 64, 127
8, 17142, Note_on_c, 2, 46, 0
8, 17164, Note_on_c, 2, 49, 106
8, 17174, Control_c, 2, 64, 0
8, 17179, Note_on_c, 2, 53, 0
8, 17184, Note_on_c, 2, 98, 44
8, 17190, Note_on_c, 2, 96, 83
8, 17197, Note_on_c, 2, 94, 95
8, 17200, Note_on_c, 2, 98, 0
8, 17201, Note_on_c, 2, 49, 0
8, 17201, Note_on_c, 2, 96, 0
8, 17205, Note_on_c, 2, 93, 96
8, 17209, Note_on_c, 2, 94, 0
8, 17212, Note_on_c, 2, 91, 95
8, 17213, Note_on_c, 2, 93, 0
8, 17220, Note_on_c, 2, 50, 88
8, 17221, Note_on_c, 2, 89, 89
8, 17222, Note_on_c, 2, 91, 0
8, 17229, Note_on_c, 2, 88, 93
8, 17231, Note_on_c, 2, 89, 0
8, 17237, Note_on_c, 2, 86, 82
8, 17240, Note_on_c, 2, 88, 0
8, 17245, Note_on_c, 2, 84, 88
8, 17251, Note_on_c, 2, 86, 0
8, 17254, Note_on_c, 2, 82, 89
8, 17258, Note_on_c, 2, 84, 0
8, 17259, Note_on_c, 2, 50, 0
8, 17262, Note_on_c, 2, 81, 93
8, 17263, Note_on_c, 2, 82, 0
8, 17270, Note_on_c, 2, 79, 99
8, 17271, Note_on_c, 2, 81, 0
8, 17275, Note_on_c, 2, 79, 0
8, 17287, Note_on_c, 2, 60, 72
8, 17291, Note_on_c, 2, 53, 70
8, 17347, Note_on_c, 2, 60, 0
8, 17347, Note_on_c, 2, 96, 108
8, 17347, Note_on_c, 2, 92, 112
8, 17350, Note_on_c, 2, 53, 0
8, 17358, Note_on_c, 2, 93, 80
8, 17372, Note_on_c, 2, 92, 0
8, 17389, Note_on_c, 2, 96, 0
8, 17390, Note_on_c, 2, 93, 0
8, 17406, Note_on_c, 2, 62, 78
8, 17406, Note_on_c, 2, 96, 90
8, 17407, Note_on_c, 2, 93, 94
8, 17411, Note_on_c, 2, 53, 60
8, 17442, Note_on_c, 2, 96, 0
8, 17442, Note_on_c, 2, 93, 0
8, 17452, Note_on_c, 2, 53, 0
8, 17458, Note_on_c, 2, 62, 0
8, 17464, Note_on_c, 2, 96, 84
8, 17465, Note_on_c, 2, 93, 91
8, 17496, Note_on_c, 2, 96, 0
8, 17497, Note_on_c, 2, 93, 0
8, 17518, Note_on_c, 2, 60, 68
8, 17520, Note_on_c, 2, 96, 91
8, 17520, Note_on_c, 2, 53, 66
8, 17522, Note_on_c, 2, 93, 98
8, 17556, Note_on_c, 2, 96, 0
8, 17556, Note_on_c, 2, 93, 0
8, 17567, Note_on_c, 2, 60, 0
8, 17567, Note_on_c, 2, 53, 0
8, 17583, Note_on_c, 2, 96, 77
8, 17583, Note_on_c, 2, 93, 92
8, 17612, Note_on_c, 2, 96, 0
8, 17614, Note_on_c, 2, 93, 0
8, 17638, Note_on_c, 2, 62, 78
8, 17640, Note_on_c, 2, 53, 73
8, 17641, Note_on_c, 2, 96, 98
8, 17642, Note_on_c, 2, 93, 105
8, 17673, Note_on_c, 2, 96, 0
8, 17674, Note_on_c, 2, 93, 0
8, 17683, Note_on_c, 2, 62, 0
8, 17684, Note_on_c, 2, 53, 0
8, 17703, Note_on_c, 2, 96, 89
8, 17703, Note_on_c, 2, 93, 95
8, 17731, Note_on_c, 2, 96, 0
8, 17733, Note_on_c, 2, 93, 0
8, 17754, Note_on_c, 2, 60, 69
8, 17755, Note_on_c, 2, 53, 67
8, 17760, Note_on_c, 2, 96, 98
8, 17761, Note_on_c, 2, 93, 102
8, 17790, Note_on_c, 2, 96, 0
8, 17791, Note_on_c, 2, 93, 0
8, 17803, Note_on_c, 2, 60, 0
8, 17807, Note_on_c, 2, 53, 0
8, 17820, Note_on_c, 2, 96, 85
8, 17821, Note_on_c, 2, 93, 89
8, 17851, Note_on_c, 2, 96, 0
8, 17851, Note_on_c, 2, 93, 0
8, 17879, Note_on_c, 2, 53, 69
8, 17880, Note_on_c, 2, 96, 95
8, 17880, Note_on_c, 2, 62, 68
8, 17881, Note_on_c, 2, 93, 97
8, 17912, Note_on_c, 2, 96, 0
8, 17913, Note_on_c, 2, 93, 0
8, 17925, Note_on_c, 2, 62, 0
8, 17927, Note_on_c, 2, 53, 0
8, 17943, Note_on_c, 2, 96, 84
8, 17944, Note_on_c, 2, 93, 91
8, 17976, Note_on_c, 2, 96, 0
8, 17976, Note_on_c, 2, 93, 0
8, 18002, Note_on_c, 2, 86, 82
8, 18003, Note_on_c, 2, 60, 73
8, 18005, Note_on_c, 2, 53, 68
8, 18050, Note_on_c, 2, 60, 0
8, 18051, Note_on_c, 2, 86, 0
8, 18054, Note_on_c, 2, 53, 0
8, 18066, Note_on_c, 2, 89, 90
8, 18104, Note_on_c, 2, 89, 0
8, 18123, Note_on_c, 2, 53, 76
8, 18123, Note_on_c, 2, 91, 109
8, 18123, Note_on_c, 2, 62, 85
8, 18151, Note_on_c, 2, 53, 0
8, 18153, Note_on_c, 2, 62, 0
8, 18174, Note_on_c, 2, 91, 0
8, 18185, Note_on_c, 2, 89, 95
8, 18216, Note_on_c, 2, 89, 0
8, 18248, Note_on_c, 2, 60, 84
8, 18249, Note_on_c, 2, 53, 80
8, 18311, Note_on_c, 2, 89, 83
8, 18336, Note_on_c, 2, 60, 0
8, 18336, Note_on_c, 2, 53, 0
8, 18339, Note_on_c, 2, 89, 0
8, 18359, Note_on_c, 2, 62, 84
8, 18359, Note_on_c, 2, 92, 104
8, 18411, Note_on_c, 2, 92, 0
8, 18428, Note_on_c, 2, 93, 83
8, 18437, Note_on_c, 2, 62, 0
8, 18469, Note_on_c, 2, 93, 0
8, 18482, Note_on_c, 2, 60, 73
8, 18485, Note_on_c, 2, 53, 74
8, 18487, Note_on_c, 2, 101, 95
8, 18543, Note_on_c, 2, 101, 0
8, 18550, Note_on_c, 2, 89, 73
8, 18566, Note_on_c, 2, 60, 0
8, 18571, Note_on_c, 2, 53, 0
8, 18587, Note_on_c, 2, 89, 0
8, 18604, Note_on_c, 2, 62, 82
8, 18606, Note_on_c, 2, 92, 94
8, 18644, Note_on_c, 2, 92, 0
8, 18665, Note_on_c, 2, 93, 86
8, 18690, Note_on_c, 2, 62, 0
8, 18701, Note_on_c, 2, 93, 0
8, 18721, Note_on_c, 2, 53, 67
8, 18722, Note_on_c, 2, 60, 63
8, 18785, Note_on_c, 2, 53, 0
8, 18785, Note_on_c, 2, 62, 102
8, 18790, Note_on_c, 2, 96, 92
8, 18791, Note_on_c, 2, 93, 91
8, 18792, Note_on_c, 2, 89, 94
8, 18794, Note_on_c, 2, 60, 0
8, 18814, Note_on_c, 2, 62, 0
8, 18846, Note_on_c, 2, 53, 69
8, 18850, Note_on_c, 2, 93, 0
8, 18851, Note_on_c, 2, 96, 0
8, 18851, Note_on_c, 2, 89, 0
8, 18895, Note_on_c, 2, 53, 0
8, 18903, Note_on_c, 2, 62, 100
8, 18912, Note_on_c, 2, 94, 91
8, 18913, Note_on_c, 2, 96, 83
8, 18914, Note_on_c, 2, 89, 90
8, 18929, Note_on_c, 2, 62, 0
8, 18943, Note_on_c, 2, 96, 0
8, 18944, Note_on_c, 2, 89, 0
8, 18946, Note_on_c, 2, 94, 0
8, 18962, Note_on_c, 2, 53, 68
8, 18962, Note_on_c, 2, 60, 71
8, 18970, Note_on_c, 2, 96, 90
8, 18971, Note_on_c, 2, 93, 68
8, 18973, Note_on_c, 2, 89, 92
8, 19022, Note_on_c, 2, 53, 0
8, 19024, Note_on_c, 2, 96, 0
8, 19025, Note_on_c, 2, 60, 0
8, 19033, Note_on_c, 2, 89, 0
8, 19036, Note_on_c, 2, 93, 0
8, 19084, Note_on_c, 2, 62, 94
8, 19086, Note_on_c, 2, 96, 91
8, 19086, Note_on_c, 2, 93, 91
8, 19087, Note_on_c, 2, 89, 91
8, 19088, Note_on_c, 2, 53, 83
8, 19128, Note_on_c, 2, 53, 0
8, 19129, Note_on_c, 2, 62, 0
8, 19149, Note_on_c, 2, 93, 0
8, 19157, Note_on_c, 2, 96, 0
8, 19162, Note_on_c, 2, 89, 0
8, 19205, Note_on_c, 2, 60, 85
8, 19205, Control_c, 2, 64, 0
8, 19206, Note_on_c, 2, 53, 85
8, 19312, Note_on_c, 2, 53, 0
8, 19320, Note_on_c, 2, 60, 0
8, 19325, Note_on_c, 2, 56, 93
8, 19328, Note_on_c, 2, 92, 112
8, 19371, Note_on_c, 2, 92, 0
8, 19388, Note_on_c, 2, 56, 0
8, 19390, Note_on_c, 2, 57, 71
8, 19391, Note_on_c, 2, 93, 94
8, 19428, Note_on_c, 2, 93, 0
8, 19431, Note_on_c, 2, 57, 0
8, 19446, Note_on_c, 2, 60, 81
8, 19448, Note_on_c, 2, 89, 95
8, 19448, Note_on_c, 2, 53, 84
8, 19487, Note_on_c, 2, 89, 0
8, 19520, Note_on_c, 2, 93, 63
8, 19542, Note_on_c, 2, 89, 90
8, 19559, Note_on_c, 2, 93, 0
8, 19565, Note_on_c, 2, 84, 89
8, 19568, Note_on_c, 2, 53, 0
8, 19579, Note_on_c, 2, 89, 0
8, 19599, Note_on_c, 2, 60, 0
8, 19602, Note_on_c, 2, 84, 0
8, 19624, Note_on_c, 2, 82, 99
8, 19626, Note_on_c, 2, 89, 93
8, 19653, Note_on_c, 2, 82, 0
8, 19663, Note_on_c, 2, 89, 0
8, 19685, Note_on_c, 2, 60, 71
8, 19685, Note_on_c, 2, 53, 73
8, 19686, Note_on_c, 2, 80, 102
8, 19687, Note_on_c, 2, 89, 45
8, 19705, Note_on_c, 2, 80, 0
8, 19708, Note_on_c, 2, 81, 63
8, 19739, Note_on_c, 2, 81, 0
8, 19740, Note_on_c, 2, 89, 0
8, 19745, Note_on_c, 2, 77, 65
8, 19772, Note_on_c, 2, 77, 0
8, 19799, Note_on_c, 2, 89, 93
8, 19800, Note_on_c, 2, 82, 98
8, 19818, Note_on_c, 2, 53, 0
8, 19822, Note_on_c, 2, 60, 0
8, 19831, Note_on_c, 2, 82, 0
8, 19837, Note_on_c, 2, 89, 0
8, 19866, Note_on_c, 2, 89, 89
8, 19871, Note_on_c, 2, 81, 90
8, 19919, Note_on_c, 2, 60, 77
8, 19922, Note_on_c, 2, 53, 75
8, 19925, Note_on_c, 2, 81, 0
8, 19930, Note_on_c, 2, 89, 0
8, 19987, Note_on_c, 2, 89, 104
8, 19987, Note_on_c, 2, 77, 109
8, 20013, Note_on_c, 2, 60, 0
8, 20017, Note_on_c, 2, 77, 0
8, 20020, Note_on_c, 2, 53, 0
8, 20025, Note_on_c, 2, 89, 0
8, 20041, Control_c, 2, 64, 127
8, 20045, Note_on_c, 2, 60, 90
8, 20071, Note_on_c, 2, 60, 0
8, 20160, Control_c, 2, 64, 0
8, 20167, Note_on_c, 2, 53, 72
8, 20171, Note_on_c, 2, 46, 70
8, 20227, Note_on_c, 2, 53, 0
8, 20227, Note_on_c, 2, 89, 108
8, 20227, Note_on_c, 2, 85, 112
8, 20230, Note_on_c, 2, 46, 0
8, 20238, Note_on_c, 2, 86, 80
8, 20252, Note_on_c, 2, 85, 0
8, 20269, Note_on_c, 2, 89, 0
8, 20270, Note_on_c, 2, 86, 0
8, 20286, Note_on_c, 2, 55, 78
8, 20286, Note_on_c, 2, 89, 90
8, 20287, Note_on_c, 2, 86, 94
8, 20291, Note_on_c, 2, 46, 60
8, 20322, Note_on_c, 2, 89, 0
8, 20322, Note_on_c, 2, 86, 0
8, 20332, Note_on_c, 2, 46, 0
8, 20338, Note_on_c, 2, 55, 0
8, 20344, Note_on_c, 2, 89, 84
8, 20345, Note_on_c, 2, 86, 91
8, 20376, Note_on_c, 2, 89, 0
8, 20377, Note_on_c, 2, 86, 0
8, 20398, Note_on_c, 2, 53, 68
8, 20400, Note_on_c, 2, 89, 91
8, 20400, Note_on_c, 2, 46, 66
8, 20402, Note_on_c, 2, 86, 98
8, 20436, Note_on_c, 2, 89, 0
8, 20436, Note_on_c, 2, 86, 0
8, 20447, Note_on_c, 2, 53, 0
8, 20447, Note_on_c, 2, 46, 0
8, 20463, Note_on_c, 2, 89, 77
8, 20463, Note_on_c, 2, 86, 92
8, 20492, Note_on_c, 2, 89, 0
8, 20494, Note_on_c, 2, 86, 0
8, 20518, Note_on_c, 2, 55, 78
8, 20520, Note_on_c, 2, 46, 73
8, 20521, Note_on_c, 2, 89, 98
8, 20522, Note_on_c, 2, 86, 105
8, 20553, Note_on_c, 2, 89, 0
8, 20554, Note_on_c, 2, 86, 0
8, 20563, Note_on_c, 2, 55, 0
8, 20564, Note_on_c, 2, 46, 0
8, 20583, Note_on_c, 2, 89, 89
8, 20583, Note_on_c, 2, 86, 95
8, 20611, Note_on_c, 2, 89, 0
8, 20613, Note_on_c, 2, 86, 0
8, 20634, Note_on_c, 2, 53, 69
8, 20635, Note_on_c, 2, 46, 67
8, 20640, Note_on_c, 2, 89, 98
8, 20641, Note_on_c, 2, 86, 102
8, 20670, Note_on_c, 2, 89, 0
8, 20671, Note_on_c, 2, 86, 0
8, 20683, Note_on_c, 2, 53, 0
8, 20687, Note_on_c, 2, 46, 0
8, 20700, Note_on_c, 2, 89, 85
8, 20701, Note_on_c, 2, 86, 89
8, 20731, Note_on_c, 2, 89, 0
8, 20731, Note_on_c, 2, 86, 0
8, 20759, Note_on_c, 2, 46, 69
8, 20760, Note_on_c, 2, 89, 95
8, 20760, Note_on_c, 2, 55, 68
8, 20761, Note_on_c, 2, 86, 97
8, 20792, Note_on_c, 2, 89, 0
8, 20793, Note_on_c, 2, 86, 0
8, 20805, Note_on_c, 2, 55, 0
8, 20807, Note_on_c, 2, 46, 0
8, 20823, Note_on_c, 2, 89, 84
8, 20824, Note_on_c, 2, 86, 91
8, 20856, Note_on_c, 2, 89, 0
8, 20856, Note_on_c, 2, 86, 0
8, 20882, Note_on_c, 2, 79, 82
8, 20883, Note_on_c, 2, 53, 73
8, 20885, Note_on_c, 2, 46, 68
8, 20930, Note_on_c, 2, 53, 0
8, 20931, Note_on_c, 2, 79, 0
8, 20934, Note_on_c, 2, 46, 0
8, 20946, Note_on_c, 2, 82, 90
8, 20984, Note_on_c, 2, 82, 0
8, 21003, Note_on_c, 2, 46, 76
8, 21003, Note_on_c, 2, 84, 109
8, 21003, Note_on_c, 2, 55, 85
8, 21031, Note_on_c, 2, 46, 0
8, 21033, Note_on_c, 2, 55, 0
8, 21054, Note_on_c, 2, 84, 0
8, 21065, Note_on_c, 2, 82, 95
8, 21096, Note_on_c, 2, 82, 0
8, 21127, Note_on_c, 2, 60, 72
8, 21131, Note_on_c, 2, 53, 70
8, 21187, Note_on_c, 2, 60, 0
8, 21187, Note_on_c, 2, 96, 108
8, 21187, Note_on_c, 2, 92, 112
8, 21190, Note_on_c, 2, 53, 0
8, 21198, Note_on_c, 2, 93, 80
8, 21212, Note_on_c, 2, 92, 0
8, 21229, Note_on_c, 2, 96, 0
8, 21230, Note_on_c, 2, 93, 0
8, 21246, Note_on_c, 2, 62, 78
8, 21246, Note_on_c, 2, 96, 90
8, 21247, Note_on_c, 2, 93, 94
8, 21251, Note_on_c, 2, 53, 60
8, 21282, Note_on_c, 2, 96, 0
8, 21282, Note_on_c, 2, 93, 0
8, 21292, Note_on_c, 2, 53, 0
8, 21298, Note_on_c, 2, 62, 0
8, 21304, Note_on_c, 2, 96, 84
8, 21305, Note_on_c, 2, 93, 91
8, 21336, Note_on_c, 2, 96, 0
8, 21337, Note_on_c, 2, 93, 0
8, 21358, Note_on_c, 2, 60, 68
8, 21360, Note_on_c, 2, 96, 91
8, 21360, Note_on_c, 2, 53, 66
8, 21362, Note_on_c, 2, 93, 98
8, 21396, Note_on_c, 2, 96, 0
8, 21396, Note_on_c, 2, 93, 0
8, 21407, Note_on_c, 2, 60, 0
8, 21407, Note_on_c, 2, 53, 0
8, 21423, Note_on_c, 2, 96, 77
8, 21423, Note_on_c, 2, 93, 92
8, 21452, Note_on_c, 2, 96, 0
8, 21454, Note_on_c, 2, 93, 0
8, 21478, Note_on_c, 2, 62, 78
8, 21480, Note_on_c, 2, 53, 73
8, 21481, Note_on_c, 2, 96, 98
8, 21482, Note_on_c, 2, 93, 105
8, 21513, Note_on_c, 2, 96, 0
8, 21514, Note_on_c, 2, 93, 0
8, 21523, Note_on_c, 2, 62, 0
8, 21524, Note_on_c, 2, 53, 0
8, 21543, Note_on_c, 2, 96, 89
8, 21543, Note_on_c, 2, 93, 95
8, 21571, Note_on_c, 2, 96, 0
8, 21573, Note_on_c, 2, 93, 0
8, 21594, Note_on_c, 2, 60, 69
8, 21595, Note_on_c, 2, 53, 67
8, 21600, Note_on_c, 2, 96, 98
8, 21601, Note_on_c, 2, 93, 102
8, 21630, Note_on_c, 2, 96, 0
8, 21631, Note_on_c, 2, 93, 0
8, 21643, Note_on_c, 2, 60, 0
8, 21647, Note_on_c, 2, 53, 0
8, 21660, Note_on_c, 2, 96, 85
8, 21661, Note_on_c, 2, 93, 89
8, 21691, Note_on_c, 2, 96, 0
8, 21691, Note_on_c, 2, 93, 0
8, 21719, Note_on_c, 2, 53, 69
8, 21720, Note_on_c, 2, 96, 95
8, 21720, Note_on_c, 2, 62, 68
8, 21721, Note_on_c, 2, 93, 97
8, 21752, Note_on_c, 2, 96, 0
8, 21753, Note_on_c, 2, 93, 0
8, 21765, Note_on_c, 2, 62, 0
8, 21767, Note_on_c, 2, 53, 0
8, 21783, Note_on_c, 2, 96, 84
8, 21784, Note_on_c, 2, 93, 91
8, 21816, Note_on_c, 2, 96, 0
8, 21816, Note_on_c, 2, 93, 0
8, 21842, Note_on_c, 2, 86, 82
8, 21843, Note_on_c, 2, 60, 73
8, 21845, Note_on_c, 2, 53, 68
8, 21890, Note_on_c, 2, 60, 0
8, 21891, Note_on_c, 2, 86, 0
8, 21894, Note_on_c, 2, 53, 0
8, 21906, Note_on_c, 2, 89, 90
8, 21944, Note_on_c, 2, 89, 0
8, 21963, Note_on_c, 2, 53, 76
8, 21963, Note_on_c, 2, 91, 109
8, 21963, Note_on_c, 2, 62, 85
8, 21991, Note_on_c, 2, 53, 0
8, 21993, Note_on_c, 2, 62, 0
8, 22014, Note_on_c, 2, 91, 0
8, 22025, Note_on_c, 2, 89, 95
8, 22056, Note_on_c, 2, 89, 0
8, 22088, Note_on_c, 2, 55, 84
8, 22089, Note_on_c, 2, 48, 80
8, 22151, Note_on_c, 2, 84, 83
8, 22176, Note_on_c, 2, 55, 0
8, 22176, Note_on_c, 2, 48, 0
8, 22179, Note_on_c, 2, 84, 0
8, 22199, Note_on_c, 2, 57, 84
8, 22199, Note_on_c, 2, 87, 104
8, 22251, Note_on_c, 2, 87, 0
8, 22268, Note_on_c, 2, 88, 83
8, 22277, Note_on_c, 2, 57, 0
8, 22309, Note_on_c, 2, 88, 0
8, 22322, Note_on_c, 2, 55, 73
8, 22325, Note_on_c, 2, 48, 74
8, 22327, Note_on_c, 2, 96, 95
8, 22383, Note_on_c, 2, 96, 0
8, 22390, Note_on_c, 2, 84, 73
8, 22406, Note_on_c, 2, 55, 0
8, 22411, Note_on_c, 2, 48, 0
8, 22427, Note_on_c, 2, 84, 0
8, 22444, Note_on_c, 2, 57, 82
8, 22446, Note_on_c, 2, 87, 94
8, 22484, Note_on_c, 2, 87, 0
8, 22505, Note_on_c, 2, 88, 86
8, 22530, Note_on_c, 2, 57, 0
8, 22541, Note_on_c, 2, 88, 0
8, 22568, Note_on_c, 2, 53, 84
8, 22569, Note_on_c, 2, 46, 80
8, 22631, Note_on_c, 2, 82, 83
8, 22656, Note_on_c, 2, 53, 0
8, 22656, Note_on_c, 2, 46, 0
8, 22659, Note_on_c, 2, 82, 0
8, 22679, Note_on_c, 2, 55, 84
8, 22679, Note_on_c, 2, 85, 104
8, 22731, Note_on_c, 2, 85, 0
8, 22748, Note_on_c, 2, 86, 83
8, 22757, Note_on_c, 2, 55, 0
8, 22789, Note_on_c, 2, 86, 0
8, 22802, Note_on_c, 2, 53, 73
8, 22805, Note_on_c, 2, 46, 74
8, 22807, Note_on_c, 2, 94, 95
8, 22863, Note_on_c, 2, 94, 0
8, 22870, Note_on_c, 2, 82, 73
8, 22886, Note_on_c, 2, 53, 0
8, 22891, Note_on_c, 2, 46, 0
8, 22907, Note_on_c, 2, 82, 0
8, 22924, Note_on_c, 2, 55, 82
8, 22926, Note_on_c, 2, 85, 94
8, 22964, Note_on_c, 2, 85, 0
8, 22985, Note_on_c, 2, 86, 86
8, 23010, Note_on_c, 2, 55, 0
8, 23021, Note_on_c, 2, 86, 0
8, 23045, Note_on_c, 2, 48, 90
8, 23047, Note_on_c, 2, 96, 93
8, 23047, Note_on_c, 2, 41, 69
8, 23048, Note_on_c, 2, 99, 103
8, 23079, Note_on_c, 2, 99, 0
8, 23087, Note_on_c, 2, 96, 0
8, 23088, Note_on_c, 2, 41, 0
8, 23089, Note_on_c, 2, 48, 0
8, 23109, Note_on_c, 2, 96, 78
8, 23112, Note_on_c, 2, 99, 84
8, 23138, Note_on_c, 2, 99, 0
8, 23139, Note_on_c, 2, 96, 0
8, 23162, Note_on_c, 2, 50, 95
8, 23164, Note_on_c, 2, 41, 85
8, 23167, Note_on_c, 2, 94, 110
8, 23169, Note_on_c, 2, 98, 96
8, 23216, Note_on_c, 2, 41, 0
8, 23219, Note_on_c, 2, 50, 0
8, 23221, Note_on_c, 2, 98, 0
8, 23227, Note_on_c, 2, 89, 67
8, 23246, Note_on_c, 2, 94, 0
8, 23259, Note_on_c, 2, 89, 0
8, 23282, Note_on_c, 2, 92, 102
8, 23284, Note_on_c, 2, 96, 85
8, 23285, Note_on_c, 2, 48, 84
8, 23288, Note_on_c, 2, 41, 72
8, 23293, Note_on_c, 2, 93, 92
8, 23301, Note_on_c, 2, 92, 0
8, 23327, Note_on_c, 2, 48, 0
8, 23327, Note_on_c, 2, 41, 0
8, 23331, Note_on_c, 2, 93, 0
8, 23340, Note_on_c, 2, 96, 0
8, 23350, Note_on_c, 2, 89, 79
8, 23362, Note_on_c, 2, 48, 75
8, 23382, Note_on_c, 2, 89, 0
8, 23389, Note_on_c, 2, 48, 0
8, 23405, Note_on_c, 2, 98, 100
8, 23406, Note_on_c, 2, 41, 79
8, 23406, Note_on_c, 2, 94, 107
8, 23408, Note_on_c, 2, 50, 93
8, 23442, Note_on_c, 2, 41, 0
8, 23442, Note_on_c, 2, 50, 0
8, 23466, Note_on_c, 2, 98, 0
8, 23468, Note_on_c, 2, 89, 77
8, 23474, Note_on_c, 2, 50, 80
8, 23477, Note_on_c, 2, 94, 0
8, 23477, Note_on_c, 2, 41, 59
8, 23499, Note_on_c, 2, 41, 0
8, 23502, Note_on_c, 2, 89, 0
8, 23504, Note_on_c, 2, 50, 0
8, 23524, Note_on_c, 2, 92, 99
8, 23527, Note_on_c, 2, 96, 79
8, 23531, Note_on_c, 2, 48, 82
8, 23531, Note_on_c, 2, 41, 72
8, 23546, Note_on_c, 2, 93, 80
8, 23551, Note_on_c, 2, 92, 0
8, 23563, Note_on_c, 2, 41, 0
8, 23564, Note_on_c, 2, 48, 0
8, 23579, Note_on_c, 2, 93, 0
8, 23588, Note_on_c, 2, 89, 77
8, 23599, Note_on_c, 2, 48, 77
8, 23603, Note_on_c, 2, 41, 57
8, 23604, Note_on_c, 2, 96, 0
8, 23621, Note_on_c, 2, 89, 0
8, 23622, Note_on_c, 2, 41, 0
8, 23625, Note_on_c, 2, 48, 0
8, 23647, Note_on_c, 2, 98, 96
8, 23648, Note_on_c, 2, 94, 106
8, 23650, Note_on_c, 2, 50, 89
8, 23652, Note_on_c, 2, 41, 85
8, 23679, Note_on_c, 2, 50, 0
8, 23680, Note_on_c, 2, 41, 0
8, 23687, Note_on_c, 2, 98, 0
8, 23690, Note_on_c, 2, 94, 0
8, 23708, Note_on_c, 2, 92, 101
8, 23709, Note_on_c, 2, 50, 98
8, 23711, Note_on_c, 2, 96, 83
8, 23714, Note_on_c, 2, 41, 76
8, 23718, Note_on_c, 2, 93, 94
8, 23725, Note_on_c, 2, 92, 0
8, 23741, Note_on_c, 2, 41, 0
8, 23749, Note_on_c, 2, 96, 0
8, 23751, Note_on_c, 2, 93, 0
8, 23752, Note_on_c, 2, 50, 0
8, 23765, Note_on_c, 2, 41, 69
8, 23768, Note_on_c, 2, 48, 88
8, 23794, Note_on_c, 2, 48, 0
8, 23795, Note_on_c, 2, 41, 0
8, 23830, Note_on_c, 2, 84, 96
8, 23832, Note_on_c, 2, 48, 99
8, 23836, Note_on_c, 2, 41, 78
8, 23854, Note_on_c, 2, 41, 0
8, 23864, Note_on_c, 2, 84, 0
8, 23866, Note_on_c, 2, 48, 0
8, 23884, Note_on_c, 2, 50, 100
8, 23890, Note_on_c, 2, 84, 67
8, 23910, Note_on_c, 2, 50, 0
8, 23918, Note_on_c, 2, 84, 0
8, 23944, Note_on_c, 2, 55, 84
8, 23946, Note_on_c, 2, 84, 92
8, 23973, Note_on_c, 2, 55, 0
8, 23980, Note_on_c, 2, 84, 0
8, 24006, Note_on_c, 2, 99, 95
8, 24006, Note_on_c, 2, 101, 92
8, 24006, Note_on_c, 2, 95, 108
8, 24007, Note_on_c, 2, 60, 83
8, 24008, Note_on_c, 2, 96, 96
8, 24009, Note_on_c, 2, 53, 76
8, 24034, Note_on_c, 2, 95, 0
8, 24044, Note_on_c, 2, 101, 0
8, 24045, Note_on_c, 2, 96, 0
8, 24048, Note_on_c, 2, 99, 0
8, 24051, Note_on_c, 2, 53, 0
8, 24054, Note_on_c, 2, 60, 0
8, 24066, Note_on_c, 2, 96, 77
8, 24066, Note_on_c, 2, 99, 69
8, 24067, Note_on_c, 2, 101, 74
8, 24069, Note_on_c, 2, 95, 85
8, 24092, Note_on_c, 2, 95, 0
8, 24097, Note_on_c, 2, 101, 0
8, 24098, Note_on_c, 2, 96, 0
8, 24100, Note_on_c, 2, 99, 0
8, 24120, Note_on_c, 2, 62, 88
8, 24122, Note_on_c, 2, 53, 84
8, 24126, Note_on_c, 2, 99, 57
8, 24126, Note_on_c, 2, 95, 102
8, 24126, Note_on_c, 2, 96, 92
8, 24127, Note_on_c, 2, 101, 82
8, 24156, Note_on_c, 2, 95, 0
8, 24158, Note_on_c, 2, 101, 0
8, 24159, Note_on_c, 2, 96, 0
8, 24161, Note_on_c, 2, 99, 0
8, 24174, Note_on_c, 2, 53, 0
8, 24178, Note_on_c, 2, 62, 0
8, 24188, Note_on_c, 2, 101, 77
8, 24188, Note_on_c, 2, 96, 84
8, 24189, Note_on_c, 2, 99, 53
8, 24189, Note_on_c, 2, 95, 88
8, 24213, Note_on_c, 2, 95, 0
8, 24219, Note_on_c, 2, 101, 0
8, 24219, Note_on_c, 2, 96, 0
8, 24219, Note_on_c, 2, 99, 0
8, 24240, Note_on_c, 2, 60, 88
8, 24240, Note_on_c, 2, 101, 87
8, 24242, Note_on_c, 2, 53, 81
8, 24243, Note_on_c, 2, 96, 85
8, 24243, Note_on_c, 2, 99, 69
8, 24244, Note_on_c, 2, 95, 98
8, 24270, Note_on_c, 2, 95, 0
8, 24277, Note_on_c, 2, 96, 0
8, 24278, Note_on_c, 2, 101, 0
8, 24279, Note_on_c, 2, 99, 0
8, 24298, Note_on_c, 2, 53, 0
8, 24301, Note_on_c, 2, 60, 0
8, 24305, Note_on_c, 2, 96, 82
8, 24305, Note_on_c, 2, 101, 72
8, 24305, Note_on_c, 2, 99, 60
8, 24305, Note_on_c, 2, 95, 98
8, 24330, Note_on_c, 2, 95, 0
8, 24334, Note_on_c, 2, 101, 0
8, 24336, Note_on_c, 2, 96, 0
8, 24338, Note_on_c, 2, 99, 0
8, 24356, Note_on_c, 2, 62, 91
8, 24362, Note_on_c, 2, 53, 76
8, 24362, Note_on_c, 2, 99, 60
8, 24362, Note_on_c, 2, 101, 80
8, 24363, Note_on_c, 2, 96, 84
8, 24363, Note_on_c, 2, 95, 103
8, 24389, Note_on_c, 2, 95, 0
8, 24392, Note_on_c, 2, 101, 0
8, 24394, Note_on_c, 2, 96, 0
8, 24396, Note_on_c, 2, 99, 0
8, 24423, Note_on_c, 2, 101, 78
8, 24423, Note_on_c, 2, 99, 59
8, 24424, Note_on_c, 2, 96, 89
8, 24424, Note_on_c, 2, 95, 100
8, 24447, Note_on_c, 2, 53, 0
8, 24450, Note_on_c, 2, 95, 0
8, 24452, Note_on_c, 2, 101, 0
8, 24455, Note_on_c, 2, 96, 0
8, 24456, Note_on_c, 2, 62, 0
8, 24456, Note_on_c, 2, 99, 0
8, 24482, Note_on_c, 2, 60, 74
8, 24483, Note_on_c, 2, 53, 63
8, 24485, Note_on_c, 2, 95, 103
8, 24485, Note_on_c, 2, 96, 99
8, 24485, Note_on_c, 2, 101, 87
8, 24486, Note_on_c, 2, 99, 86
8, 24531, Note_on_c, 2, 95, 0
8, 24534, Note_on_c, 2, 53, 0
8, 24538, Note_on_c, 2, 60, 0
8, 24544, Note_on_c, 2, 96, 0
8, 24545, Note_on_c, 2, 89, 77
8, 24551, Note_on_c, 2, 99, 0
8, 24560, Note_on_c, 2, 101, 0
8, 24580, Note_on_c, 2, 89, 0
8, 24601, Note_on_c, 2, 62, 87
8, 24602, Note_on_c, 2, 101, 89
8, 24603, Note_on_c, 2, 98, 88
8, 24604, Note_on_c, 2, 94, 93
8, 24607, Note_on_c, 2, 53, 76
8, 24639, Note_on_c, 2, 94, 0
8, 24661, Note_on_c, 2, 98, 0
8, 24667, Note_on_c, 2, 89, 80
8, 24672, Note_on_c, 2, 53, 0
8, 24682, Note_on_c, 2, 62, 0
8, 24685, Note_on_c, 2, 101, 0
8, 24697, Note_on_c, 2, 89, 0
8, 24724, Note_on_c, 2, 96, 98
8, 24725, Note_on_c, 2, 60, 88
8, 24726, Note_on_c, 2, 101, 93
8, 24726, Note_on_c, 2, 92, 110
8, 24728, Note_on_c, 2, 53, 82
8, 24764, Note_on_c, 2, 92, 0
8, 24771, Note_on_c, 2, 96, 0
8, 24784, Note_on_c, 2, 101, 0
8, 24810, Note_on_c, 2, 53, 0
8, 24816, Note_on_c, 2, 60, 0
8, 24845, Note_on_c, 2, 96, 96
8, 24847, Note_on_c, 2, 62, 93
8, 24849, Note_on_c, 2, 97, 107
8, 24861, Note_on_c, 2, 98, 93
8, 24865, Note_on_c, 2, 97, 0
8, 24875, Note_on_c, 2, 96, 0
8, 24886, Note_on_c, 2, 62, 0
8, 24909, Note_on_c, 2, 98, 0
8, 24913, Note_on_c, 2, 101, 94
8, 24947, Note_on_c, 2, 101, 0
8, 24967, Note_on_c, 2, 60, 84
8, 24969, Note_on_c, 2, 53, 77
8, 25011, Note_on_c, 2, 53, 0
8, 25014, Note_on_c, 2, 60, 0
8, 25026, Note_on_c, 2, 96, 78
8, 25026, Note_on_c, 2, 99, 70
8, 25027, Note_on_c, 2, 101, 75
8, 25029, Note_on_c, 2, 95, 86
8, 25052, Note_on_c, 2, 95, 0
8, 25057, Note_on_c, 2, 101, 0
8, 25058, Note_on_c, 2, 96, 0
8, 25060, Note_on_c, 2, 99, 0
8, 25080, Note_on_c, 2, 62, 89
8, 25082, Note_on_c, 2, 53, 85
8, 25086, Note_on_c, 2, 99, 58
8, 25086, Note_on_c, 2, 95, 103
8, 25086, Note_on_c, 2, 96, 93
8, 25087, Note_on_c, 2, 101, 83
8, 25116, Note_on_c, 2, 95, 0
8, 25118, Note_on_c, 2, 101, 0
8, 25119, Note_on_c, 2, 96, 0
8, 25121, Note_on_c, 2, 99, 0
8, 25134, Note_on_c, 2, 53, 0
8, 25138, Note_on_c, 2, 62, 0
8, 25148, Note_on_c, 2, 101, 78
8, 25148, Note_on_c, 2, 96, 85
8, 25149, Note_on_c, 2, 99, 54
8, 25149, Note_on_c, 2, 95, 89
8, 25173, Note_on_c, 2, 95, 0
8, 25179, Note_on_c, 2, 101, 0
8, 25179, Note_on_c, 2, 96, 0
8, 25179, Note_on_c, 2, 99, 0
8, 25200, Note_on_c, 2, 60, 89
8, 25200, Note_on_c, 2, 101, 88
8, 25202, Note_on_c, 2, 53, 82
8, 25203, Note_on_c, 2, 96, 86
8, 25203, Note_on_c, 2, 99, 70
8, 25204, Note_on_c, 2, 95, 99
8, 25230, Note_on_c, 2, 95, 0
8, 25237, Note_on_c, 2, 96, 0
8, 25238, Note_on_c, 2, 101, 0
8, 25239, Note_on_c, 2, 99, 0
8, 25258, Note_on_c, 2, 53, 0
8, 25261, Note_on_c, 2, 60, 0
8, 25265, Note_on_c, 2, 96, 83
8, 25265, Note_on_c, 2, 101, 73
8, 25265, Note_on_c, 2, 99, 61
8, 25265, Note_on_c, 2, 95, 99
8, 25290, Note_on_c, 2, 95, 0
8, 25294, Note_on_c, 2, 101, 0
8, 25296, Note_on_c, 2, 96, 0
8, 25298, Note_on_c, 2, 99, 0
8, 25316, Note_on_c, 2, 62, 92
8, 25322, Note_on_c, 2, 53, 77
8, 25322, Note_on_c, 2, 99, 61
8, 25322, Note_on_c, 2, 101, 81
8, 25323, Note_on_c, 2, 96, 85
8, 25323, Note_on_c, 2, 95, 104
8, 25349, Note_on_c, 2, 95, 0
8, 25352, Note_on_c, 2, 101, 0
8, 25354, Note_on_c, 2, 96, 0
8, 25356, Note_on_c, 2, 99, 0
8, 25407, Note_on_c, 2, 53, 0
8, 25416, Note_on_c, 2, 62, 0
8, 25440, Note_on_c, 2, 41, 83
8, 25440, Control_c, 2, 64, 127
8, 25472, Note_on_c, 2, 41, 0
8, 25500, Note_on_c, 2, 53, 88
8, 25538, Note_on_c, 2, 53, 0
8, 25560, Control_c, 2, 64, 0
8, 25560, Note_on_c, 2, 41, 82
8, 25590, Note_on_c, 2, 41, 0
8, 25620, Note_on_c, 2, 53, 100
8, 25653, Note_on_c, 2, 53, 0
8, 25680, Note_on_c, 2, 101, 91
8, 25680, Note_on_c, 2, 89, 96
8, 25680, Note_on_c, 2, 41, 92
8, 25706, Note_on_c, 2, 101, 0
8, 25706, Note_on_c, 2, 89, 0
8, 25706, Note_on_c, 2, 41, 0
8, 25740, Note_on_c, 2, 53, 84
8, 25740, Note_on_c, 2, 101, 82
8, 25740, Note_on_c, 2, 89, 88
8, 25771, Note_on_c, 2, 53, 0
8, 25771, Note_on_c, 2, 101, 0
8, 25771, Note_on_c, 2, 89, 0
8, 25800, Control_c, 2, 64, 127
8, 25800, Note_on_c, 2, 41, 79
8, 25800, Note_on_c, 2, 101, 84
8, 25800, Note_on_c, 2, 89, 92
8, 25829, Note_on_c, 2, 89, 0
8, 25832, Note_on_c, 2, 41, 0
8, 25832, Note_on_c, 2, 101, 0
8, 25860, Note_on_c, 2, 89, 84
8, 25860, Note_on_c, 2, 101, 77
8, 25863, Note_on_c, 2, 53, 68
8, 25892, Note_on_c, 2, 89, 0
8, 25902, Note_on_c, 2, 101, 0
8, 25915, Note_on_c, 2, 53, 0
8, 25920, Control_c, 2, 64, 0
8, 25921, Note_on_c, 2, 46, 94
8, 25922, Note_on_c, 2, 53, 96
8, 25987, Note_on_c, 2, 82, 80
8, 26003, Note_on_c, 2, 53, 0
8, 26011, Note_on_c, 2, 46, 0
8, 26019, Note_on_c, 2, 82, 0
8, 26036, Note_on_c, 2, 88, 102
8, 26037, Note_on_c, 2, 94, 96
8, 26039, Note_on_c, 2, 89, 86
8, 26041, Note_on_c, 2, 92, 85
8, 26046, Note_on_c, 2, 55, 70
8, 26065, Note_on_c, 2, 88, 0
8, 26083, Note_on_c, 2, 55, 0
8, 26103, Note_on_c, 2, 92, 0
8, 26104, Note_on_c, 2, 94, 0
8, 26106, Note_on_c, 2, 89, 0
8, 26162, Note_on_c, 2, 53, 70
8, 26163, Note_on_c, 2, 46, 69
8, 26166, Note_on_c, 2, 94, 96
8, 26166, Note_on_c, 2, 88, 106
8, 26167, Note_on_c, 2, 92, 89
8, 26168, Note_on_c, 2, 89, 90
8, 26225, Note_on_c, 2, 88, 0
8, 26239, Note_on_c, 2, 53, 0
8, 26241, Note_on_c, 2, 92, 0
8, 26245, Note_on_c, 2, 94, 0
8, 26248, Note_on_c, 2, 46, 0
8, 26254, Note_on_c, 2, 89, 0
8, 26288, Note_on_c, 2, 82, 81
8, 26289, Note_on_c, 2, 55, 69
8, 26323, Note_on_c, 2, 82, 0
8, 26353, Note_on_c, 2, 55, 0
8, 26353, Note_on_c, 2, 88, 109
8, 26355, Note_on_c, 2, 94, 95
8, 26355, Note_on_c, 2, 89, 95
8, 26356, Note_on_c, 2, 92, 87
8, 26387, Note_on_c, 2, 88, 0
8, 26408, Note_on_c, 2, 53, 55
8, 26410, Note_on_c, 2, 46, 55
8, 26418, Note_on_c, 2, 89, 0
8, 26419, Note_on_c, 2, 94, 0
8, 26419, Note_on_c, 2, 92, 0
8, 26475, Note_on_c, 2, 53, 0
8, 26475, Note_on_c, 2, 46, 0
8, 26475, Note_on_c, 2, 88, 113
8, 26475, Note_on_c, 2, 92, 100
8, 26476, Note_on_c, 2, 94, 96
8, 26477, Note_on_c, 2, 89, 97
8, 26515, Note_on_c, 2, 88, 0
8, 26527, Note_on_c, 2, 55, 72
8, 26542, Note_on_c, 2, 94, 0
8, 26543, Note_on_c, 2, 89, 0
8, 26546, Note_on_c, 2, 92, 0
8, 26595, Note_on_c, 2, 82, 84
8, 26606, Note_on_c, 2, 55, 0
8, 26634, Note_on_c, 2, 82, 0
8, 26646, Note_on_c, 2, 53, 57
8, 26648, Note_on_c, 2, 88, 104
8, 26650, Note_on_c, 2, 89, 87
8, 26650, Note_on_c, 2, 92, 84
8, 26651, Note_on_c, 2, 46, 56
8, 26652, Note_on_c, 2, 94, 73
8, 26697, Note_on_c, 2, 88, 0
8, 26703, Note_on_c, 2, 94, 0
8, 26704, Note_on_c, 2, 89, 0
8, 26709, Note_on_c, 2, 92, 0
8, 26712, Note_on_c, 2, 53, 0
8, 26715, Note_on_c, 2, 82, 73
8, 26718, Note_on_c, 2, 46, 0
8, 26745, Note_on_c, 2, 82, 0
8, 26762, Note_on_c, 2, 55, 79
8, 26762, Note_on_c, 2, 87, 92
8, 26763, Note_on_c, 2, 94, 88
8, 26764, Note_on_c, 2, 91, 86
8, 26811, Note_on_c, 2, 87, 0
8, 26813, Note_on_c, 2, 94, 0
8, 26819, Note_on_c, 2, 91, 0
8, 26848, Note_on_c, 2, 55, 0
8, 26887, Note_on_c, 2, 60, 72
8, 26891, Note_on_c, 2, 53, 70
8, 26947, Note_on_c, 2, 60, 0
8, 26947, Note_on_c, 2, 96, 108
8, 26947, Note_on_c, 2, 92, 112
8, 26950, Note_on_c, 2, 53, 0
8, 26958, Note_on_c, 2, 93, 80
8, 26972, Note_on_c, 2, 92, 0
8, 26989, Note_on_c, 2, 96, 0
8, 26990, Note_on_c, 2, 93, 0
8, 27006, Note_on_c, 2, 62, 78
8, 27006, Note_on_c, 2, 96, 90
8, 27007, Note_on_c, 2, 93, 94
8, 27011, Note_on_c, 2, 53, 60
8, 27042, Note_on_c, 2, 96, 0
8, 27042, Note_on_c, 2, 93, 0
8, 27052, Note_on_c, 2, 53, 0
8, 27058, Note_on_c, 2, 62, 0
8, 27064, Note_on_c, 2, 96, 84
8, 27065, Note_on_c, 2, 93, 91
8, 27096, Note_on_c, 2, 96, 0
8, 27097, Note_on_c, 2, 93, 0
8, 27118, Note_on_c, 2, 60, 68
8, 27120, Note_on_c, 2, 96, 91
8, 27120, Note_on_c, 2, 53, 66
8, 27122, Note_on_c, 2, 93, 98
8, 27156, Note_on_c, 2, 96, 0
8, 27156, Note_on_c, 2, 93, 0
8, 27167, Note_on_c, 2, 60, 0
8, 27167, Note_on_c, 2, 53, 0
8, 27183, Note_on_c, 2, 96, 77
8, 27183, Note_on_c, 2, 93, 92
8, 27212, Note_on_c, 2, 96, 0
8, 27214, Note_on_c, 2, 93, 0
8, 27238, Note_on_c, 2, 62, 78
8, 27240, Note_on_c, 2, 53, 73
8, 27241, Note_on_c, 2, 96, 98
8, 27242, Note_on_c, 2, 93, 105
8, 27273, Note_on_c, 2, 96, 0
8, 27274, Note_on_c, 2, 93, 0
8, 27283, Note_on_c, 2, 62, 0
8, 27284, Note_on_c, 2, 53, 0
8, 27303, Note_on_c, 2, 96, 89
8, 27303, Note_on_c, 2, 93, 95
8, 27331, Note_on_c, 2, 96, 0
8, 27333, Note_on_c, 2, 93, 0
8, 27354, Note_on_c, 2, 60, 69
8, 27355, Note_on_c, 2, 53, 67
8, 27360, Note_on_c, 2, 96, 98
8, 27361, Note_on_c, 2, 93, 102
8, 27390, Note_on_c, 2, 96, 0
8, 27391, Note_on_c, 2, 93, 0
8, 27403, Note_on_c, 2, 60, 0
8, 27407, Note_on_c, 2, 53, 0
8, 27420, Note_on_c, 2, 96, 85
8, 27421, Note_on_c, 2, 93, 89
8, 27451, Note_on_c, 2, 96, 0
8, 27451, Note_on_c, 2, 93, 0
8, 27479, Note_on_c, 2, 53, 69
8, 27480, Note_on_c, 2, 96, 95
8, 27480, Note_on_c, 2, 62, 68
8, 27481, Note_on_c, 2, 93, 97
8, 27512, Note_on_c, 2, 96, 0
8, 27513, Note_on_c, 2, 93, 0
8, 27525, Note_on_c, 2, 62, 0
8, 27527, Note_on_c, 2, 53, 0
8, 27543, Note_on_c, 2, 96, 84
8, 27544, Note_on_c, 2, 93, 91
8, 27576, Note_on_c, 2, 96, 0
8, 27576, Note_on_c, 2, 93, 0
8, 27602, Note_on_c, 2, 86, 82
8, 27603, Note_on_c, 2, 60, 73
8, 27605, Note_on_c, 2, 53, 68
8, 27650, Note_on_c, 2, 60, 0
8, 27651, Note_on_c, 2, 86, 0
8, 27654, Note_on_c, 2, 53, 0
8, 27666, Note_on_c, 2, 89, 90
8, 27704, Note_on_c, 2, 89, 0
8, 27723, Note_on_c, 2, 53, 76
8, 27723, Note_on_c, 2, 91, 109
8, 27723, Note_on_c, 2, 62, 85
8, 27751, Note_on_c, 2, 53, 0
8, 27753, Note_on_c, 2, 62, 0
8, 27774, Note_on_c, 2, 91, 0
8, 27785, Note_on_c, 2, 89, 95
8, 27816, Note_on_c, 2, 89, 0
8, 27840, Control_c, 2, 64, 0
8, 27844, Note_on_c, 2, 55, 87
8, 27847, Note_on_c, 2, 48, 78
8, 27847, Note_on_c, 2, 76, 92
8, 27905, Note_on_c, 2, 76, 0
8, 27913, Note_on_c, 2, 84, 69
8, 27951, Note_on_c, 2, 48, 0
8, 27951, Note_on_c, 2, 84, 0
8, 27964, Note_on_c, 2, 51, 96
8, 27966, Note_on_c, 2, 75, 102
8, 27968, Note_on_c, 2, 55, 0
8, 27973, Note_on_c, 2, 84, 62
8, 28002, Note_on_c, 2, 84, 0
8, 28011, Note_on_c, 2, 75, 0
8, 28026, Note_on_c, 2, 52, 87
8, 28032, Note_on_c, 2, 84, 92
8, 28032, Note_on_c, 2, 76, 86
8, 28037, Note_on_c, 2, 51, 0
8, 28083, Note_on_c, 2, 76, 0
8, 28084, Note_on_c, 2, 52, 0
8, 28085, Note_on_c, 2, 84, 0
8, 28088, Note_on_c, 2, 72, 87
8, 28088, Note_on_c, 2, 55, 88
8, 28090, Note_on_c, 2, 48, 81
8, 28137, Note_on_c, 2, 72, 0
8, 28151, Note_on_c, 2, 75, 96
8, 28188, Note_on_c, 2, 75, 0
8, 28199, Note_on_c, 2, 48, 0
8, 28203, Note_on_c, 2, 51, 97
8, 28206, Note_on_c, 2, 76, 88
8, 28220, Note_on_c, 2, 55, 0
8, 28255, Note_on_c, 2, 51, 0
8, 28267, Note_on_c, 2, 72, 93
8, 28269, Note_on_c, 2, 52, 82
8, 28278, Note_on_c, 2, 76, 0
8, 28308, Note_on_c, 2, 52, 0
8, 28315, Note_on_c, 2, 72, 0
8, 28320, Note_on_c, 2, 86, 75
8, 28325, Note_on_c, 2, 53, 66
8, 28327, Note_on_c, 2, 46, 56
8, 28328, Note_on_c, 2, 84, 93
8, 28356, Note_on_c, 2, 86, 0
8, 28374, Note_on_c, 2, 84, 0
8, 28387, Note_on_c, 2, 53, 0
8, 28392, Note_on_c, 2, 86, 91
8, 28394, Note_on_c, 2, 92, 107
8, 28402, Note_on_c, 2, 46, 0
8, 28441, Note_on_c, 2, 55, 76
8, 28445, Note_on_c, 2, 86, 0
8, 28446, Note_on_c, 2, 46, 57
8, 28455, Note_on_c, 2, 91, 63
8, 28473, Note_on_c, 2, 89, 72
8, 28485, Note_on_c, 2, 92, 0
8, 28494, Note_on_c, 2, 86, 64
8, 28496, Note_on_c, 2, 91, 0
8, 28506, Note_on_c, 2, 46, 0
8, 28510, Note_on_c, 2, 55, 0
8, 28518, Note_on_c, 2, 89, 0
8, 28523, Note_on_c, 2, 84, 89
8, 28541, Note_on_c, 2, 86, 0
8, 28556, Note_on_c, 2, 84, 0
8, 28561, Note_on_c, 2, 53, 92
8, 28563, Note_on_c, 2, 46, 82
8, 28574, Note_on_c, 2, 86, 98
8, 28576, Note_on_c, 2, 92, 110
8, 28619, Note_on_c, 2, 53, 0
8, 28621, Note_on_c, 2, 46, 0
8, 28630, Note_on_c, 2, 86, 0
8, 28640, Note_on_c, 2, 91, 70
8, 28655, Note_on_c, 2, 89, 69
8, 28668, Note_on_c, 2, 86, 71
8, 28672, Note_on_c, 2, 92, 0
8, 28678, Note_on_c, 2, 91, 0
8, 28684, Note_on_c, 2, 46, 76
8, 28687, Note_on_c, 2, 84, 93
8, 28688, Note_on_c, 2, 55, 89
8, 28693, Note_on_c, 2, 89, 0
8, 28710, Note_on_c, 2, 86, 0
8, 28712, Note_on_c, 2, 46, 0
8, 28714, Note_on_c, 2, 84, 0
8, 28714, Note_on_c, 2, 55, 0
8, 28740, Note_on_c, 2, 82, 87
8, 28772, Note_on_c, 2, 82, 0
8, 28806, Note_on_c, 2, 99, 95
8, 28806, Note_on_c, 2, 101, 92
8, 28806, Note_on_c, 2, 95, 108
8, 28807, Note_on_c, 2, 60, 83
8, 28808, Note_on_c, 2, 96, 96
8, 28809, Note_on_c, 2, 53, 76
8, 28834, Note_on_c, 2, 95, 0
8, 28844, Note_on_c, 2, 101, 0
8, 28845, Note_on_c, 2, 96, 0
8, 28848, Note_on_c, 2, 99, 0
8, 28851, Note_on_c, 2, 53, 0
8, 28854, Note_on_c, 2, 60, 0
8, 28866, Note_on_c, 2, 96, 77
8, 28866, Note_on_c, 2, 99, 69
8, 28867, Note_on_c, 2, 101, 74
8, 28869, Note_on_c, 2, 95, 85
8, 28892, Note_on_c, 2, 95, 0
8, 28897, Note_on_c, 2, 101, 0
8, 28898, Note_on_c, 2, 96, 0
8, 28900, Note_on_c, 2, 99, 0
8, 28920, Note_on_c, 2, 62, 88
8, 28922, Note_on_c, 2, 53, 84
8, 28926, Note_on_c, 2, 99, 57
8, 28926, Note_on_c, 2, 95, 102
8, 28926, Note_on_c, 2, 96, 92
8, 28927, Note_on_c, 2, 101, 82
8, 28956, Note_on_c, 2, 95, 0
8, 28958, Note_on_c, 2, 101, 0
8, 28959, Note_on_c, 2, 96, 0
8, 28961, Note_on_c, 2, 99, 0
8, 28974, Note_on_c, 2, 53, 0
8, 28978, Note_on_c, 2, 62, 0
8, 28988, Note_on_c, 2, 101, 77
8, 28988, Note_on_c, 2, 96, 84
8, 28989, Note_on_c, 2, 99, 53
8, 28989, Note_on_c, 2, 95, 88
8, 29013, Note_on_c, 2, 95, 0
8, 29019, Note_on_c, 2, 101, 0
8, 29019, Note_on_c, 2, 96, 0
8, 29019, Note_on_c, 2, 99, 0
8, 29040, Note_on_c, 2, 60, 88
8, 29040, Note_on_c, 2, 101, 87
8, 29042, Note_on_c, 2, 53, 81
8, 29043, Note_on_c, 2, 96, 85
8, 29043, Note_on_c, 2, 99, 69
8, 29044, Note_on_c, 2, 95, 98
8, 29070, Note_on_c, 2, 95, 0
8, 29077, Note_on_c, 2, 96, 0
8, 29078, Note_on_c, 2, 101, 0
8, 29079, Note_on_c, 2, 99, 0
8, 29098, Note_on_c, 2, 53, 0
8, 29101, Note_on_c, 2, 60, 0
8, 29105, Note_on_c, 2, 96, 82
8, 29105, Note_on_c, 2, 101, 72
8, 29105, Note_on_c, 2, 99, 60
8, 29105, Note_on_c, 2, 95, 98
8, 29130, Note_on_c, 2, 95, 0
8, 29134, Note_on_c, 2, 101, 0
8, 29136, Note_on_c, 2, 96, 0
8, 29138, Note_on_c, 2, 99, 0
8, 29156, Note_on_c, 2, 62, 91
8, 29162, Note_on_c, 2, 53, 76
8, 29162, Note_on_c, 2, 99, 60
8, 29162, Note_on_c, 2, 101, 80
8, 29163, Note_on_c, 2, 96, 84
8, 29163, Note_on_c, 2, 95, 103
8, 29189, Note_on_c, 2, 95, 0
8, 29192, Note_on_c, 2, 101, 0
8, 29194, Note_on_c, 2, 96, 0
8, 29196, Note_on_c, 2, 99, 0
8, 29223, Note_on_c, 2, 101, 78
8, 29223, Note_on_c, 2, 99, 59
8, 29224, Note_on_c, 2, 96, 89
8, 29224, Note_on_c, 2, 95, 100
8, 29247, Note_on_c, 2, 53, 0
8, 29250, Note_on_c, 2, 95, 0
8, 29252, Note_on_c, 2, 101, 0
8, 29255, Note_on_c, 2, 96, 0
8, 29256, Note_on_c, 2, 62, 0
8, 29256, Note_on_c, 2, 99, 0
8, 29282, Note_on_c, 2, 60, 74
8, 29283, Note_on_c, 2, 53, 63
8, 29285, Note_on_c, 2, 95, 103
8, 29285, Note_on_c, 2, 96, 99
8, 29285, Note_on_c, 2, 101, 87
8, 29286, Note_on_c, 2, 99, 86
8, 29331, Note_on_c, 2, 95, 0
8, 29334, Note_on_c, 2, 53, 0
8, 29338, Note_on_c, 2, 60, 0
8, 29344, Note_on_c, 2, 96, 0
8, 29345, Note_on_c, 2, 89, 77
8, 29351, Note_on_c, 2, 99, 0
8, 29360, Note_on_c, 2, 101, 0
8, 29380, Note_on_c, 2, 89, 0
8, 29401, Note_on_c, 2, 62, 87
8, 29402, Note_on_c, 2, 101, 89
8, 29403, Note_on_c, 2, 98, 88
8, 29404, Note_on_c, 2, 94, 93
8, 29407, Note_on_c, 2, 53, 76
8, 29439, Note_on_c, 2, 94, 0
8, 29461, Note_on_c, 2, 98, 0
8, 29467, Note_on_c, 2, 89, 80
8, 29472, Note_on_c, 2, 53, 0
8, 29482, Note_on_c, 2, 62, 0
8, 29485, Note_on_c, 2, 101, 0
8, 29497, Note_on_c, 2, 89, 0
8, 29524, Note_on_c, 2, 96, 98
8, 29525, Note_on_c, 2, 60, 88
8, 29526, Note_on_c, 2, 101, 93
8, 29526, Note_on_c, 2, 92, 110
8, 29528, Note_on_c, 2, 53, 82
8, 29564, Note_on_c, 2, 92, 0
8, 29571, Note_on_c, 2, 96, 0
8, 29584, Note_on_c, 2, 101, 0
8, 29610, Note_on_c, 2, 53, 0
8, 29616, Note_on_c, 2, 60, 0
8, 29645, Note_on_c, 2, 96, 96
8, 29647, Note_on_c, 2, 62, 93
8, 29649, Note_on_c, 2, 97, 107
8, 29661, Note_on_c, 2, 98, 93
8, 29665, Note_on_c, 2, 97, 0
8, 29675, Note_on_c, 2, 96, 0
8, 29686, Note_on_c, 2, 62, 0
8, 29709, Note_on_c, 2, 98, 0
8, 29713, Note_on_c, 2, 101, 94
8, 29747, Note_on_c, 2, 101, 0
8, 29760, Note_on_c, 2, 92, 85
8, 29761, Note_on_c, 2, 84, 85
8, 29761, Note_on_c, 2, 57, 85
8, 29764, Note_on_c, 2, 41, 85
8, 29767, Note_on_c, 2, 92, 0
8, 29767, Note_on_c, 2, 89, 85
8, 29770, Note_on_c, 2, 93, 85
8, 29796, Note_on_c, 2, 84, 0
8, 29796, Note_on_c, 2, 57, 0
8, 29799, Note_on_c, 2, 41, 0
8, 29802, Note_on_c, 2, 89, 0
8, 29805, Note_on_c, 2, 93, 0
8, 30240, Note_on_c, 2, 92, 85
8, 30241, Note_on_c, 2, 84, 85
8, 30241, Note_on_c, 2, 57, 85
8, 30244, Note_on_c, 2, 41, 85
8, 30247, Note_on_c, 2, 92, 0
8, 30247, Note_on_c, 2, 89, 85
8, 30250, Note_on_c, 2, 93, 85
8, 30276, Note_on_c, 2, 84, 0
8, 30276, Note_on_c, 2, 57, 0
8, 30279, Note_on_c, 2, 41, 0
8, 30282, Note_on_c, 2, 89, 0
8, 30285, Note_on_c, 2, 93, 0
8, 30720, Note_on_c, 2, 92, 85
8, 30721, Note_on_c, 2, 84, 85
8, 30721, Note_on_c, 2, 57, 85
8, 30724, Note_on_c, 2, 41, 85
8, 30727, Note_on_c, 2, 92, 0
8, 30727, Note_on_c, 2, 89, 85
8, 30730, Note_on_c, 2, 93, 85
8, 30756, Note_on_c, 2, 84, 0
8, 30756, Note_on_c, 2, 57, 0
8, 30759, Note_on_c, 2, 41, 0
8, 30762, Note_on_c, 2, 89, 0
8, 30765, Note_on_c, 2, 93, 0
8, 31200, Note_on_c, 2, 92, 85
8, 31201, Note_on_c, 2, 84, 85
8, 31201, Note_on_c, 2, 57, 85
8, 31204, Note_on_c, 2, 41, 85
8, 31207, Note_on_c, 2, 92, 0
8, 31207, Note_on_c, 2, 89, 85
8, 31210, Note_on_c, 2, 93, 85
8, 31236, Note_on_c, 2, 84, 0
8, 31236, Note_on_c, 2, 57, 0
8, 31239, Note_on_c, 2, 41, 0
8, 31242, Note_on_c, 2, 89, 0
8, 31242, Note_on_c, 2, 93, 0
8, 31686, Note_on_c, 2, 92, 95
8, 31686, Note_on_c, 2, 94, 92
8, 31686, Note_on_c, 2, 88, 108
8, 31687, Note_on_c, 2, 53, 83
8, 31688, Note_on_c, 2, 89, 96
8, 31689, Note_on_c, 2, 46, 76
8, 31714, Note_on_c, 2, 88, 0
8, 31724, Note_on_c, 2, 94, 0
8, 31725, Note_on_c, 2, 89, 0
8, 31728, Note_on_c, 2, 92, 0
8, 31731, Note_on_c, 2, 46, 0
8, 31734, Note_on_c, 2, 53, 0
8, 31746, Note_on_c, 2, 89, 77
8, 31746, Note_on_c, 2, 92, 69
8, 31747, Note_on_c, 2, 94, 74
8, 31749, Note_on_c, 2, 88, 85
8, 31772, Note_on_c, 2, 88, 0
8, 31777, Note_on_c, 2, 94, 0
8, 31778, Note_on_c, 2, 89, 0
8, 31780, Note_on_c, 2, 92, 0
8, 31800, Note_on_c, 2, 55, 88
8, 31802, Note_on_c, 2, 46, 84
8, 31806, Note_on_c, 2, 92, 57
8, 31806, Note_on_c, 2, 88, 102
8, 31806, Note_on_c, 2, 89, 92
8, 31807, Note_on_c, 2, 94, 82
8, 31836, Note_on_c, 2, 88, 0
8, 31838, Note_on_c, 2, 94, 0
8, 31839, Note_on_c, 2, 89, 0
8, 31841, Note_on_c, 2, 92, 0
8, 31854, Note_on_c, 2, 46, 0
8, 31858, Note_on_c, 2, 55, 0
8, 31868, Note_on_c, 2, 94, 77
8, 31868, Note_on_c, 2, 89, 84
8, 31869, Note_on_c, 2, 92, 53
8, 31869, Note_on_c, 2, 88, 88
8, 31893, Note_on_c, 2, 88, 0
8, 31899, Note_on_c, 2, 94, 0
8, 31899, Note_on_c, 2, 89, 0
8, 31899, Note_on_c, 2, 92, 0
8, 31920, Note_on_c, 2, 53, 88
8, 31920, Note_on_c, 2, 94, 87
8, 31922, Note_on_c, 2, 46, 81
8, 31923, Note_on_c, 2, 89, 85
8, 31923, Note_on_c, 2, 92, 69
8, 31924, Note_on_c, 2, 88, 98
8, 31950, Note_on_c, 2, 88, 0
8, 31957, Note_on_c, 2, 89, 0
8, 31958, Note_on_c, 2, 94, 0
8, 31959, Note_on_c, 2, 92, 0
8, 31978, Note_on_c, 2, 46, 0
8, 31981, Note_on_c, 2, 53, 0
8, 31985, Note_on_c, 2, 89, 82
8, 31985, Note_on_c, 2, 94, 72
8, 31985, Note_on_c, 2, 92, 60
8, 31985, Note_on_c, 2, 88, 98
8, 32010, Note_on_c, 2, 88, 0
8, 32014, Note_on_c, 2, 94, 0
8, 32016, Note_on_c, 2, 89, 0
8, 32018, Note_on_c, 2, 92, 0
8, 32036, Note_on_c, 2, 55, 91
8, 32042, Note_on_c, 2, 46, 76
8, 32042, Note_on_c, 2, 92, 60
8, 32042, Note_on_c, 2, 94, 80
8, 32043, Note_on_c, 2, 89, 84
8, 32043, Note_on_c, 2, 88, 103
8, 32069, Note_on_c, 2, 88, 0
8, 32072, Note_on_c, 2, 94, 0
8, 32074, Note_on_c, 2, 89, 0
8, 32076, Note_on_c, 2, 92, 0
8, 32103, Note_on_c, 2, 94, 78
8, 32103, Note_on_c, 2, 92, 59
8, 32104, Note_on_c, 2, 89, 89
8, 32104, Note_on_c, 2, 88, 100
8, 32127, Note_on_c, 2, 46, 0
8, 32130, Note_on_c, 2, 88, 0
8, 32132, Note_on_c, 2, 94, 0
8, 32135, Note_on_c, 2, 89, 0
8, 32136, Note_on_c, 2, 55, 0
8, 32136, Note_on_c, 2, 92, 0
8, 32162, Note_on_c, 2, 53, 74
8, 32163, Note_on_c, 2, 46, 63
8, 32165, Note_on_c, 2, 88, 103
8, 32165, Note_on_c, 2, 89, 99
8, 32165, Note_on_c, 2, 94, 87
8, 32166, Note_on_c, 2, 92, 86
8, 32211, Note_on_c, 2, 88, 0
8, 32214, Note_on_c, 2, 46, 0
8, 32218, Note_on_c, 2, 53, 0
8, 32224, Note_on_c, 2, 89, 0
8, 32225, Note_on_c, 2, 82, 77
8, 32231, Note_on_c, 2, 92, 0
8, 32240, Note_on_c, 2, 94, 0
8, 32260, Note_on_c, 2, 82, 0
8, 32281, Note_on_c, 2, 55, 87
8, 32282, Note_on_c, 2, 94, 89
8, 32283, Note_on_c, 2, 91, 88
8, 32284, Note_on_c, 2, 87, 93
8, 32287, Note_on_c, 2, 46, 76
8, 32319, Note_on_c, 2, 87, 0
8, 32341, Note_on_c, 2, 91, 0
8, 32347, Note_on_c, 2, 82, 80
8, 32352, Note_on_c, 2, 46, 0
8, 32362, Note_on_c, 2, 55, 0
8, 32365, Note_on_c, 2, 94, 0
8, 32377, Note_on_c, 2, 82, 0
8, 32404, Note_on_c, 2, 89, 98
8, 32405, Note_on_c, 2, 53, 88
8, 32406, Note_on_c, 2, 94, 93
8, 32406, Note_on_c, 2, 85, 110
8, 32408, Note_on_c, 2, 46, 82
8, 32444, Note_on_c, 2, 85, 0
8, 32451, Note_on_c, 2, 89, 0
8, 32464, Note_on_c, 2, 94, 0
8, 32490, Note_on_c, 2, 46, 0
8, 32496, Note_on_c, 2, 53, 0
8, 32525, Note_on_c, 2, 89, 96
8, 32527, Note_on_c, 2, 55, 93
8, 32529, Note_on_c, 2, 90, 107
8, 32541, Note_on_c, 2, 91, 93
8, 32545, Note_on_c, 2, 90, 0
8, 32555, Note_on_c, 2, 89, 0
8, 32566, Note_on_c, 2, 55, 0
8, 32589, Note_on_c, 2, 91, 0
8, 32593, Note_on_c, 2, 94, 94
8, 32627, Note_on_c, 2, 94, 0
8, 32642, Note_on_c, 2, 60, 90
8, 32645, Note_on_c, 2, 89, 94
8, 32646, Note_on_c, 2, 53, 91
8, 32648, Note_on_c, 2, 101, 92
8, 32674, Note_on_c, 2, 53, 0
8, 32676, Note_on_c, 2, 89, 0
8, 32681, Note_on_c, 2, 101, 0
8, 32691, Note_on_c, 2, 60, 0
8, 32704, Note_on_c, 2, 60, 45
8, 32704, Note_on_c, 2, 53, 71
8, 32706, Note_on_c, 2, 101, 85
8, 32709, Note_on_c, 2, 89, 76
8, 32733, Note_on_c, 2, 101, 0
8, 32738, Note_on_c, 2, 89, 0
8, 32763, Note_on_c, 2, 56, 107
8, 32763, Note_on_c, 2, 95, 110
8, 32764, Note_on_c, 2, 101, 96
8, 32776, Note_on_c, 2, 53, 0
8, 32777, Note_on_c, 2, 60, 0
8, 32794, Note_on_c, 2, 95, 0
8, 32797, Note_on_c, 2, 101, 0
8, 32825, Note_on_c, 2, 57, 79
8, 32825, Note_on_c, 2, 96, 81
8, 32826, Note_on_c, 2, 56, 0
8, 32827, Note_on_c, 2, 101, 62
8, 32851, Note_on_c, 2, 101, 0
8, 32856, Note_on_c, 2, 96, 0
8, 32857, Note_on_c, 2, 57, 0
8, 32881, Note_on_c, 2, 60, 89
8, 32882, Note_on_c, 2, 101, 91
8, 32883, Note_on_c, 2, 53, 93
8, 32884, Note_on_c, 2, 89, 88
8, 32911, Note_on_c, 2, 53, 0
8, 32916, Note_on_c, 2, 89, 0
8, 32918, Note_on_c, 2, 60, 0
8, 32919, Note_on_c, 2, 101, 0
8, 32940, Note_on_c, 2, 60, 68
8, 32942, Note_on_c, 2, 101, 82
8, 32943, Note_on_c, 2, 89, 76
8, 32944, Note_on_c, 2, 53, 62
8, 32973, Note_on_c, 2, 101, 0
8, 32976, Note_on_c, 2, 89, 0
8, 32979, Note_on_c, 2, 53, 0
8, 32991, Note_on_c, 2, 60, 0
8, 33000, Note_on_c, 2, 56, 103
8, 33002, Note_on_c, 2, 101, 93
8, 33003, Note_on_c, 2, 95, 110
8, 33042, Note_on_c, 2, 95, 0
8, 33043, Note_on_c, 2, 101, 0
8, 33047, Note_on_c, 2, 56, 0
8, 33063, Note_on_c, 2, 57, 83
8, 33064, Note_on_c, 2, 96, 89
8, 33064, Note_on_c, 2, 101, 72
8, 33093, Note_on_c, 2, 101, 0
8, 33098, Note_on_c, 2, 57, 0
8, 33098, Note_on_c, 2, 96, 0
8, 33121, Note_on_c, 2, 101, 92
8, 33121, Note_on_c, 2, 60, 86
8, 33122, Note_on_c, 2, 53, 90
8, 33123, Note_on_c, 2, 89, 88
8, 33153, Note_on_c, 2, 53, 0
8, 33153, Note_on_c, 2, 89, 0
8, 33154, Note_on_c, 2, 101, 0
8, 33156, Note_on_c, 2, 60, 0
8, 33179, Note_on_c, 2, 60, 76
8, 33183, Note_on_c, 2, 89, 87
8, 33184, Note_on_c, 2, 53, 62
8, 33184, Note_on_c, 2, 101, 84
8, 33211, Note_on_c, 2, 101, 0
8, 33216, Note_on_c, 2, 89, 0
8, 33219, Note_on_c, 2, 53, 0
8, 33234, Note_on_c, 2, 60, 0
8, 33241, Note_on_c, 2, 95, 107
8, 33242, Note_on_c, 2, 101, 91
8, 33242, Note_on_c, 2, 56, 106
8, 33278, Note_on_c, 2, 95, 0
8, 33278, Note_on_c, 2, 101, 0
8, 33279, Note_on_c, 2, 56, 0
8, 33302, Note_on_c, 2, 57, 76
8, 33304, Note_on_c, 2, 96, 86
8, 33305, Note_on_c, 2, 101, 60
8, 33330, Note_on_c, 2, 101, 0
8, 33334, Note_on_c, 2, 57, 0
8, 33337, Note_on_c, 2, 96, 0
8, 33356, Note_on_c, 2, 60, 87
8, 33360, Note_on_c, 2, 53, 86
8, 33361, Note_on_c, 2, 101, 98
8, 33361, Note_on_c, 2, 89, 96
8, 33390, Note_on_c, 2, 53, 0
8, 33395, Note_on_c, 2, 60, 0
8, 33408, Note_on_c, 2, 101, 0
8, 33413, Note_on_c, 2, 89, 0
8, 33415, Note_on_c, 2, 53, 50
8, 33416, Note_on_c, 2, 60, 67
8, 33448, Note_on_c, 2, 53, 0
8, 33450, Note_on_c, 2, 60, 0
8, 33473, Control_c, 2, 64, 127
8, 33482, Note_on_c, 2, 56, 107
8, 33510, Note_on_c, 2, 56, 0
8, 33543, Note_on_c, 2, 87, 104
8, 33580, Note_on_c, 2, 87, 0
8, 33592, Control_c, 2, 64, 0
8, 33606, Note_on_c, 2, 79, 89
8, 33606, Note_on_c, 2, 82, 103
8, 33607, Note_on_c, 2, 74, 83
8, 33609, Note_on_c, 2, 55, 82
8, 33610, Note_on_c, 2, 48, 81
8, 33646, Note_on_c, 2, 48, 0
8, 33647, Note_on_c, 2, 55, 0
8, 33656, Note_on_c, 2, 82, 0
8, 33657, Note_on_c, 2, 79, 0
8, 33658, Note_on_c, 2, 74, 0
8, 33668, Note_on_c, 2, 55, 72
8, 33670, Note_on_c, 2, 48, 58
8, 33713, Note_on_c, 2, 48, 0
8, 33725, Note_on_c, 2, 51, 96
8, 33730, Note_on_c, 2, 55, 0
8, 33773, Note_on_c, 2, 51, 0
8, 33790, Note_on_c, 2, 52, 85
8, 33791, Note_on_c, 2, 82, 101
8, 33791, Note_on_c, 2, 79, 80
8, 33792, Note_on_c, 2, 74, 80
8, 33793, Note_on_c, 2, 76, 75
8, 33830, Note_on_c, 2, 52, 0
8, 33839, Note_on_c, 2, 82, 0
8, 33843, Note_on_c, 2, 74, 0
8, 33846, Note_on_c, 2, 76, 0
8, 33848, Note_on_c, 2, 79, 0
8, 33848, Note_on_c, 2, 55, 83
8, 33851, Note_on_c, 2, 48, 78
8, 33885, Note_on_c, 2, 48, 0
8, 33888, Note_on_c, 2, 55, 0
8, 33907, Note_on_c, 2, 79, 84
8, 33910, Note_on_c, 2, 55, 73
8, 33910, Note_on_c, 2, 82, 91
8, 33910, Note_on_c, 2, 48, 71
8, 33911, Note_on_c, 2, 76, 82
8, 33911, Note_on_c, 2, 74, 80
8, 33942, Note_on_c, 2, 82, 0
8, 33953, Note_on_c, 2, 48, 0
8, 33954, Note_on_c, 2, 74, 0
8, 33961, Note_on_c, 2, 79, 0
8, 33961, Note_on_c, 2, 76, 0
8, 33963, Note_on_c, 2, 55, 0
8, 33968, Note_on_c, 2, 51, 87
8, 34015, Note_on_c, 2, 51, 0
8, 34020, Note_on_c, 2, 72, 85
8, 34031, Note_on_c, 2, 52, 78
8, 34075, Note_on_c, 2, 72, 0
8, 34076, Note_on_c, 2, 52, 0
8, 34090, Note_on_c, 2, 53, 84
8, 34092, Note_on_c, 2, 46, 78
8, 34130, Note_on_c, 2, 46, 0
8, 34133, Note_on_c, 2, 53, 0
8, 34151, Note_on_c, 2, 46, 65
8, 34152, Note_on_c, 2, 53, 82
8, 34153, Note_on_c, 2, 65, 71
8, 34188, Note_on_c, 2, 65, 0
8, 34192, Note_on_c, 2, 46, 0
8, 34202, Note_on_c, 2, 53, 0
8, 34211, Note_on_c, 2, 49, 100
8, 34211, Note_on_c, 2, 74, 93
8, 34261, Note_on_c, 2, 49, 0
8, 34272, Note_on_c, 2, 50, 73
8, 34288, Note_on_c, 2, 74, 0
8, 34308, Note_on_c, 2, 50, 0
8, 34326, Note_on_c, 2, 53, 87
8, 34327, Note_on_c, 2, 65, 96
8, 34328, Note_on_c, 2, 77, 97
8, 34329, Note_on_c, 2, 46, 83
8, 34360, Note_on_c, 2, 65, 0
8, 34367, Note_on_c, 2, 46, 0
8, 34382, Note_on_c, 2, 77, 0
8, 34384, Note_on_c, 2, 46, 78
8, 34403, Control_c, 2, 64, 127
8, 34422, Note_on_c, 2, 46, 0
8, 34444, Note_on_c, 2, 49, 106
8, 34454, Control_c, 2, 64, 0
8, 34459, Note_on_c, 2, 53, 0
8, 34464, Note_on_c, 2, 98, 44
8, 34470, Note_on_c, 2, 96, 83
8, 34477, Note_on_c, 2, 94, 95
8, 34480, Note_on_c, 2, 98, 0
8, 34481, Note_on_c, 2, 49, 0
8, 34481, Note_on_c, 2, 96, 0
8, 34485, Note_on_c, 2, 93, 96
8, 34489, Note_on_c, 2, 94, 0
8, 34492, Note_on_c, 2, 91, 95
8, 34493, Note_on_c, 2, 93, 0
8, 34500, Note_on_c, 2, 50, 88
8, 34501, Note_on_c, 2, 89, 89
8, 34502, Note_on_c, 2, 91, 0
8, 34509, Note_on_c, 2, 88, 93
8, 34511, Note_on_c, 2, 89, 0
8, 34517, Note_on_c, 2, 86, 82
8, 34520, Note_on_c, 2, 88, 0
8, 34525, Note_on_c, 2, 84, 88
8, 34531, Note_on_c, 2, 86, 0
8, 34534, Note_on_c, 2, 82, 89
8, 34538, Note_on_c, 2, 84, 0
8, 34539, Note_on_c, 2, 50, 0
8, 34542, Note_on_c, 2, 81, 93
8, 34543, Note_on_c, 2, 82, 0
8, 34550, Note_on_c, 2, 79, 99
8, 34551, Note_on_c, 2, 81, 0
8, 34555, Note_on_c, 2, 79, 0
8, 34567, Note_on_c, 2, 60, 72
8, 34571, Note_on_c, 2, 53, 70
8, 34627, Note_on_c, 2, 60, 0
8, 34627, Note_on_c, 2, 96, 108
8, 34627, Note_on_c, 2, 92, 112
8, 34630, Note_on_c, 2, 53, 0
8, 34638, Note_on_c, 2, 93, 80
8, 34652, Note_on_c, 2, 92, 0
8, 34669, Note_on_c, 2, 96, 0
8, 34670, Note_on_c, 2, 93, 0
8, 34686, Note_on_c, 2, 62, 78
8, 34686, Note_on_c, 2, 96, 90
8, 34687, Note_on_c, 2, 93, 94
8, 34691, Note_on_c, 2, 53, 60
8, 34722, Note_on_c, 2, 96, 0
8, 34722, Note_on_c, 2, 93, 0
8, 34732, Note_on_c, 2, 53, 0
8, 34738, Note_on_c, 2, 62, 0
8, 34744, Note_on_c, 2, 96, 84
8, 34745, Note_on_c, 2, 93, 91
8, 34776, Note_on_c, 2, 96, 0
8, 34777, Note_on_c, 2, 93, 0
8, 34798, Note_on_c, 2, 60, 68
8, 34800, Note_on_c, 2, 96, 91
8, 34800, Note_on_c, 2, 53, 66
8, 34802, Note_on_c, 2, 93, 98
8, 34836, Note_on_c, 2, 96, 0
8, 34836, Note_on_c, 2, 93, 0
8, 34847, Note_on_c, 2, 60, 0
8, 34847, Note_on_c, 2, 53, 0
8, 34863, Note_on_c, 2, 96, 77
8, 34863, Note_on_c, 2, 93, 92
8, 34892, Note_on_c, 2, 96, 0
8, 34894, Note_on_c, 2, 93, 0
8, 34918, Note_on_c, 2, 62, 78
8, 34920, Note_on_c, 2, 53, 73
8, 34921, Note_on_c, 2, 96, 98
8, 34922, Note_on_c, 2, 93, 105
8, 34953, Note_on_c, 2, 96, 0
8, 34954, Note_on_c, 2, 93, 0
8, 34963, Note_on_c, 2, 62, 0
8, 34964, Note_on_c, 2, 53, 0
8, 34983, Note_on_c, 2, 96, 89
8, 34983, Note_on_c, 2, 93, 95
8, 35011, Note_on_c, 2, 96, 0
8, 35013, Note_on_c, 2, 93, 0
8, 35034, Note_on_c, 2, 60, 69
8, 35035, Note_on_c, 2, 53, 67
8, 35040, Note_on_c, 2, 96, 98
8, 35041, Note_on_c, 2, 93, 102
8, 35070, Note_on_c, 2, 96, 0
8, 35071, Note_on_c, 2, 93, 0
8, 35083, Note_on_c, 2, 60, 0
8, 35087, Note_on_c, 2, 53, 0
8, 35100, Note_on_c, 2, 96, 85
8, 35101, Note_on_c, 2, 93, 89
8, 35131, Note_on_c, 2, 96, 0
8, 35131, Note_on_c, 2, 93, 0
8, 35159, Note_on_c, 2, 53, 69
8, 35160, Note_on_c, 2, 96, 95
8, 35160, Note_on_c, 2, 62, 68
8, 35161, Note_on_c, 2, 93, 97
8, 35192, Note_on_c, 2, 96, 0
8, 35193, Note_on_c, 2, 93, 0
8, 35205, Note_on_c, 2, 62, 0
8, 35207, Note_on_c, 2, 53, 0
8, 35223, Note_on_c, 2, 96, 84
8, 35224, Note_on_c, 2, 93, 91
8, 35256, Note_on_c, 2, 96, 0
8, 35256, Note_on_c, 2, 93, 0
8, 35282, Note_on_c, 2, 86, 82
8, 35283, Note_on_c, 2, 60, 73
8, 35285, Note_on_c, 2, 53, 68
8, 35330, Note_on_c, 2, 60, 0
8, 35331, Note_on_c, 2, 86, 0
8, 35334, Note_on_c, 2, 53, 0
8, 35346, Note_on_c, 2, 89, 90
8, 35384, Note_on_c, 2, 89, 0
8, 35403, Note_on_c, 2, 53, 76
8, 35403, Note_on_c, 2, 91, 109
8, 35403, Note_on_c, 2, 62, 85
8, 35431, Note_on_c, 2, 53, 0
8, 35433, Note_on_c, 2, 62, 0
8, 35454, Note_on_c, 2, 91, 0
8, 35465, Note_on_c, 2, 89, 95
8, 35496, Note_on_c, 2, 89, 0
8, 35521, Note_on_c, 2, 84, 85
8, 35521, Note_on_c, 2, 57, 85
8, 35524, Note_on_c, 2, 41, 85
8, 35527, Note_on_c, 2, 89, 85
8, 35530, Note_on_c, 2, 93, 85
8, 35556, Note_on_c, 2, 84, 0
8, 35556, Note_on_c, 2, 57, 0
8, 35559, Note_on_c, 2, 41, 0
8, 35562, Note_on_c, 2, 89, 0
8, 35565, Note_on_c, 2, 93, 0
8, 36000, Note_on_c, 2, 92, 85
8, 36001, Note_on_c, 2, 84, 85
8, 36001, Note_on_c, 2, 57, 85
8, 36004, Note_on_c, 2, 41, 85
8, 36007, Note_on_c, 2, 92, 0
8, 36007, Note_on_c, 2, 89, 85
8, 36010, Note_on_c, 2, 93, 85
8, 36036, Note_on_c, 2, 84, 0
8, 36036, Note_on_c, 2, 57, 0
8, 36039, Note_on_c, 2, 41, 0
8, 36042, Note_on_c, 2, 89, 0
8, 36042, Note_on_c, 2, 93, 0
8, 36481, Note_on_c, 2, 84, 85
8, 36481, Note_on_c, 2, 57, 85
8, 36484, Note_on_c, 2, 41, 85
8, 36487, Note_on_c, 2, 89, 85
8, 36490, Note_on_c, 2, 93, 85
8, 36516, Note_on_c, 2, 84, 0
8, 36516, Note_on_c, 2, 57, 0
8, 36519, Note_on_c, 2, 41, 0
8, 36522, Note_on_c, 2, 89, 0
8, 36525, Note_on_c, 2, 93, 0
8, 36960, Note_on_c, 2, 92, 85
8, 36961, Note_on_c, 2, 84, 85
8, 36961, Note_on_c, 2, 57, 85
8, 36964, Note_on_c, 2, 41, 85
8, 36967, Note_on_c, 2, 92, 0
8, 36967, Note_on_c, 2, 89, 85
8, 36970, Note_on_c, 2, 93, 85
8, 36996, Note_on_c, 2, 84, 0
8, 36996, Note_on_c, 2, 57, 0
8, 36999, Note_on_c, 2, 41, 0
8, 37002, Note_on_c, 2, 89, 0
8, 37002, Note_on_c, 2, 93, 0
8, 37443, Note_on_c, 2, 46, 78
8, 37444, Note_on_c, 2, 53, 80
8, 37445, Note_on_c, 2, 77, 86
8, 37451, Note_on_c, 2, 82, 82
8, 37485, Note_on_c, 2, 77, 0
8, 37488, Note_on_c, 2, 82, 0
8, 37494, Note_on_c, 2, 46, 0
8, 37494, Note_on_c, 2, 53, 0
8, 37510, Note_on_c, 2, 77, 66
8, 37511, Note_on_c, 2, 82, 50
8, 37540, Note_on_c, 2, 77, 0
8, 37543, Note_on_c, 2, 82, 0
8, 37561, Note_on_c, 2, 55, 87
8, 37565, Note_on_c, 2, 46, 74
8, 37565, Note_on_c, 2, 82, 89
8, 37566, Note_on_c, 2, 77, 99
8, 37605, Note_on_c, 2, 46, 0
8, 37607, Note_on_c, 2, 55, 0
8, 37612, Note_on_c, 2, 77, 0
8, 37619, Note_on_c, 2, 82, 0
8, 37682, Note_on_c, 2, 76, 97
8, 37685, Note_on_c, 2, 82, 89
8, 37685, Note_on_c, 2, 53, 88
8, 37686, Note_on_c, 2, 77, 92
8, 37688, Note_on_c, 2, 46, 82
8, 37716, Note_on_c, 2, 76, 0
8, 37736, Note_on_c, 2, 53, 0
8, 37738, Note_on_c, 2, 77, 0
8, 37739, Note_on_c, 2, 46, 0
8, 37746, Note_on_c, 2, 82, 0
8, 37804, Note_on_c, 2, 55, 91
8, 37809, Note_on_c, 2, 46, 82
8, 37865, Note_on_c, 2, 55, 0
8, 37865, Note_on_c, 2, 46, 0
8, 37871, Note_on_c, 2, 76, 90
8, 37873, Note_on_c, 2, 82, 90
8, 37873, Note_on_c, 2, 77, 87
8, 37906, Note_on_c, 2, 76, 0
8, 37925, Note_on_c, 2, 53, 77
8, 37927, Note_on_c, 2, 77, 0
8, 37928, Note_on_c, 2, 46, 73
8, 37935, Note_on_c, 2, 82, 0
8, 37988, Note_on_c, 2, 53, 0
8, 37991, Note_on_c, 2, 46, 0
8, 37992, Note_on_c, 2, 82, 102
8, 37994, Note_on_c, 2, 76, 98
8, 37994, Note_on_c, 2, 77, 98
8, 38040, Note_on_c, 2, 76, 0
8, 38044, Note_on_c, 2, 55, 79
8, 38050, Note_on_c, 2, 46, 67
8, 38058, Note_on_c, 2, 77, 0
8, 38063, Note_on_c, 2, 82, 0
8, 38107, Note_on_c, 2, 82, 98
8, 38107, Note_on_c, 2, 76, 96
8, 38107, Note_on_c, 2, 77, 96
8, 38121, Note_on_c, 2, 46, 0
8, 38123, Note_on_c, 2, 55, 0
8, 38139, Note_on_c, 2, 76, 0
8, 38145, Note_on_c, 2, 77, 0
8, 38162, Note_on_c, 2, 53, 84
8, 38164, Note_on_c, 2, 82, 0
8, 38164, Note_on_c, 2, 46, 77
8, 38240, Note_on_c, 2, 46, 0
8, 38242, Note_on_c, 2, 53, 0
8, 38282, Note_on_c, 2, 55, 96
8, 38283, Note_on_c, 2, 46, 87
8, 38380, Note_on_c, 2, 46, 0
8, 38389, Note_on_c, 2, 55, 0
8, 38402, Note_on_c, 2, 60, 90
8, 38405, Note_on_c, 2, 89, 94
8, 38406, Note_on_c, 2, 53, 91
8, 38408, Note_on_c, 2, 101, 92
8, 38434, Note_on_c, 2, 53, 0
8, 38436, Note_on_c, 2, 89, 0
8, 38441, Note_on_c, 2, 101, 0
8, 38451, Note_on_c, 2, 60, 0
8, 38464, Note_on_c, 2, 60, 45
8, 38464, Note_on_c, 2, 53, 71
8, 38466, Note_on_c, 2, 101, 85
8, 38469, Note_on_c, 2, 89, 76
8, 38493, Note_on_c, 2, 101, 0
8, 38498, Note_on_c, 2, 89, 0
8, 38523, Note_on_c, 2, 56, 107
8, 38523, Note_on_c, 2, 95, 110
8, 38524, Note_on_c, 2, 101, 96
8, 38536, Note_on_c, 2, 53, 0
8, 38537, Note_on_c, 2, 60, 0
8, 38554, Note_on_c, 2, 95, 0
8, 38557, Note_on_c, 2, 101, 0
8, 38585, Note_on_c, 2, 57, 79
8, 38585, Note_on_c, 2, 96, 81
8, 38586, Note_on_c, 2, 56, 0
8, 38587, Note_on_c, 2, 101, 62
8, 38611, Note_on_c, 2, 101, 0
8, 38616, Note_on_c, 2, 96, 0
8, 38617, Note_on_c, 2, 57, 0
8, 38641, Note_on_c, 2, 60, 89
8, 38642, Note_on_c, 2, 101, 91
8, 38643, Note_on_c, 2, 53, 93
8, 38644, Note_on_c, 2, 89, 88
8, 38671, Note_on_c, 2, 53, 0
8, 38676, Note_on_c, 2, 89, 0
8, 38678, Note_on_c, 2, 60, 0
8, 38679, Note_on_c, 2, 101, 0
8, 38700, Note_on_c, 2, 60, 68
8, 38702, Note_on_c, 2, 101, 82
8, 38703, Note_on_c, 2, 89, 76
8, 38704, Note_on_c, 2, 53, 62
8, 38733, Note_on_c, 2, 101, 0
8, 38736, Note_on_c, 2, 89, 0
8, 38739, Note_on_c, 2, 53, 0
8, 38751, Note_on_c, 2, 60, 0
8, 38760, Note_on_c, 2, 56, 103
8, 38762, Note_on_c, 2, 101, 93
8, 38763, Note_on_c, 2, 95, 110
8, 38802, Note_on_c, 2, 95, 0
8, 38803, Note_on_c, 2, 101, 0
8, 38807, Note_on_c, 2, 56, 0
8, 38823, Note_on_c, 2, 57, 83
8, 38824, Note_on_c, 2, 96, 89
8, 38824, Note_on_c, 2, 101, 72
8, 38853, Note_on_c, 2, 101, 0
8, 38858, Note_on_c, 2, 57, 0
8, 38858, Note_on_c, 2, 96, 0
8, 38881, Note_on_c, 2, 101, 92
8, 38881, Note_on_c, 2, 60, 86
8, 38882, Note_on_c, 2, 53, 90
8, 38883, Note_on_c, 2, 89, 88
8, 38913, Note_on_c, 2, 53, 0
8, 38913, Note_on_c, 2, 89, 0
8, 38914, Note_on_c, 2, 101, 0
8, 38916, Note_on_c, 2, 60, 0
8, 38939, Note_on_c, 2, 60, 76
8, 38943, Note_on_c, 2, 89, 87
8, 38944, Note_on_c, 2, 53, 62
8, 38944, Note_on_c, 2, 101, 84
8, 38971, Note_on_c, 2, 101, 0
8, 38976, Note_on_c, 2, 89, 0
8, 38979, Note_on_c, 2, 53, 0
8, 38994, Note_on_c, 2, 60, 0
8, 39001, Note_on_c, 2, 95, 107
8, 39002, Note_on_c, 2, 101, 91
8, 39002, Note_on_c, 2, 56, 106
8, 39038, Note_on_c, 2, 95, 0
8, 39038, Note_on_c, 2, 101, 0
8, 39039, Note_on_c, 2, 56, 0
8, 39062, Note_on_c, 2, 57, 76
8, 39064, Note_on_c, 2, 96, 86
8, 39065, Note_on_c, 2, 101, 60
8, 39090, Note_on_c, 2, 101, 0
8, 39094, Note_on_c, 2, 57, 0
8, 39097, Note_on_c, 2, 96, 0
8, 39116, Note_on_c, 2, 60, 87
8, 39120, Note_on_c, 2, 53, 86
8, 39121, Note_on_c, 2, 101, 98
8, 39121, Note_on_c, 2, 89, 96
8, 39150, Note_on_c, 2, 53, 0
8, 39155, Note_on_c, 2, 60, 0
8, 39168, Note_on_c, 2, 101, 0
8, 39173, Note_on_c, 2, 89, 0
8, 39175, Note_on_c, 2, 53, 50
8, 39176, Note_on_c, 2, 60, 67
8, 39208, Note_on_c, 2, 53, 0
8, 39210, Note_on_c, 2, 60, 0
8, 39233, Control_c, 2, 64, 127
8, 39242, Note_on_c, 2, 56, 107
8, 39270, Note_on_c, 2, 56, 0
8, 39303, Note_on_c, 2, 87, 104
8, 39340, Note_on_c, 2, 87, 0
8, 39352, Control_c, 2, 64, 0
8, 39366, Note_on_c, 2, 79, 89
8, 39366, Note_on_c, 2, 82, 103
8, 39367, Note_on_c, 2, 74, 83
8, 39369, Note_on_c, 2, 55, 82
8, 39370, Note_on_c, 2, 48, 81
8, 39406, Note_on_c, 2, 48, 0
8, 39407, Note_on_c, 2, 55, 0
8, 39416, Note_on_c, 2, 82, 0
8, 39417, Note_on_c, 2, 79, 0
8, 39418, Note_on_c, 2, 74, 0
8, 39428, Note_on_c, 2, 55, 72
8, 39430, Note_on_c, 2, 48, 58
8, 39473, Note_on_c, 2, 48, 0
8, 39485, Note_on_c, 2, 51, 96
8, 39490, Note_on_c, 2, 55, 0
8, 39533, Note_on_c, 2, 51, 0
8, 39550, Note_on_c, 2, 52, 85
8, 39551, Note_on_c, 2, 82, 101
8, 39551, Note_on_c, 2, 79, 80
8, 39552, Note_on_c, 2, 74, 80
8, 39553, Note_on_c, 2, 76, 75
8, 39590, Note_on_c, 2, 52, 0
8, 39599, Note_on_c, 2, 82, 0
8, 39603, Note_on_c, 2, 74, 0
8, 39606, Note_on_c, 2, 76, 0
8, 39608, Note_on_c, 2, 79, 0
8, 39608, Note_on_c, 2, 55, 83
8, 39611, Note_on_c, 2, 48, 78
8, 39645, Note_on_c, 2, 48, 0
8, 39648, Note_on_c, 2, 55, 0
8, 39667, Note_on_c, 2, 79, 84
8, 39670, Note_on_c, 2, 55, 73
8, 39670, Note_on_c, 2, 82, 91
8, 39670, Note_on_c, 2, 48, 71
8, 39671, Note_on_c, 2, 76, 82
8, 39671, Note_on_c, 2, 74, 80
8, 39702, Note_on_c, 2, 82, 0
8, 39713, Note_on_c, 2, 48, 0
8, 39714, Note_on_c, 2, 74, 0
8, 39721, Note_on_c, 2, 79, 0
8, 39721, Note_on_c, 2, 76, 0
8, 39723, Note_on_c, 2, 55, 0
8, 39728, Note_on_c, 2, 51, 87
8, 39775, Note_on_c, 2, 51, 0
8, 39780, Note_on_c, 2, 72, 85
8, 39791, Note_on_c, 2, 52, 78
8, 39835, Note_on_c, 2, 72, 0
8, 39836, Note_on_c, 2, 52, 0
8, 39840, Note_on_c, 2, 86, 75
8, 39845, Note_on_c, 2, 53, 66
8, 39847, Note_on_c, 2, 46, 56
8, 39848, Note_on_c, 2, 84, 93
8, 39876, Note_on_c, 2, 86, 0
8, 39894, Note_on_c, 2, 84, 0
8, 39907, Note_on_c, 2, 53, 0
8, 39912, Note_on_c, 2, 86, 91
8, 39914, Note_on_c, 2, 92, 107
8, 39922, Note_on_c, 2, 46, 0
8, 39961, Note_on_c, 2, 55, 76
8, 39965, Note_on_c, 2, 86, 0
8, 39966, Note_on_c, 2, 46, 57
8, 39975, Note_on_c, 2, 91, 63
8, 39993, Note_on_c, 2, 89, 72
8, 40005, Note_on_c, 2, 92, 0
8, 40014, Note_on_c, 2, 86, 64
8, 40016, Note_on_c, 2, 91, 0
8, 40026, Note_on_c, 2, 46, 0
8, 40030, Note_on_c, 2, 55, 0
8, 40038, Note_on_c, 2, 89, 0
8, 40043, Note_on_c, 2, 84, 89
8, 40061, Note_on_c, 2, 86, 0
8, 40076, Note_on_c, 2, 84, 0
8, 40081, Note_on_c, 2, 53, 92
8, 40083, Note_on_c, 2, 46, 82
8, 40094, Note_on_c, 2, 86, 98
8, 40096, Note_on_c, 2, 92, 110
8, 40139, Note_on_c, 2, 53, 0
8, 40141, Note_on_c, 2, 46, 0
8, 40150, Note_on_c, 2, 86, 0
8, 40160, Note_on_c, 2, 91, 70
8, 40175, Note_on_c, 2, 89, 69
8, 40188, Note_on_c, 2, 86, 71
8, 40192, Note_on_c, 2, 92, 0
8, 40198, Note_on_c, 2, 91, 0
8, 40204, Note_on_c, 2, 46, 76
8, 40207, Note_on_c, 2, 84, 93
8, 40208, Note_on_c, 2, 55, 89
8, 40213, Note_on_c, 2, 89, 0
8, 40230, Note_on_c, 2, 86, 0
8, 40232, Note_on_c, 2, 46, 0
8, 40234, Note_on_c, 2, 84, 0
8, 40234, Note_on_c, 2, 55, 0
8, 40260, Note_on_c, 2, 82, 87
8, 40292, Note_on_c, 2, 82, 0
8, 40326, Note_on_c, 2, 99, 95
8, 40326, Note_on_c, 2, 101, 92
8, 40326, Note_on_c, 2, 95, 108
8, 40327, Note_on_c, 2, 60, 83
8, 40328, Note_on_c, 2, 96, 96
8, 40329, Note_on_c, 2, 53, 76
8, 40354, Note_on_c, 2, 95, 0
8, 40364, Note_on_c, 2, 101, 0
8, 40365, Note_on_c, 2, 96, 0
8, 40368, Note_on_c, 2, 99, 0
8, 40371, Note_on_c, 2, 53, 0
8, 40374, Note_on_c, 2, 60, 0
8, 40386, Note_on_c, 2, 96, 77
8, 40386, Note_on_c, 2, 99, 69
8, 40387, Note_on_c, 2, 101, 74
8, 40389, Note_on_c, 2, 95, 85
8, 40412, Note_on_c, 2, 95, 0
8, 40417, Note_on_c, 2, 101, 0
8, 40418, Note_on_c, 2, 96, 0
8, 40420, Note_on_c, 2, 99, 0
8, 40440, Note_on_c, 2, 62, 88
8, 40442, Note_on_c, 2, 53, 84
8, 40446, Note_on_c, 2, 99, 57
8, 40446, Note_on_c, 2, 95, 102
8, 40446, Note_on_c, 2, 96, 92
8, 40447, Note_on_c, 2, 101, 82
8, 40476, Note_on_c, 2, 95, 0
8, 40478, Note_on_c, 2, 101, 0
8, 40479, Note_on_c, 2, 96, 0
8, 40481, Note_on_c, 2, 99, 0
8, 40494, Note_on_c, 2, 53, 0
8, 40498, Note_on_c, 2, 62, 0
8, 40508, Note_on_c, 2, 101, 77
8, 40508, Note_on_c, 2, 96, 84
8, 40509, Note_on_c, 2, 99, 53
8, 40509, Note_on_c, 2, 95, 88
8, 40533, Note_on_c, 2, 95, 0
8, 40539, Note_on_c, 2, 101, 0
8, 40539, Note_on_c, 2, 96, 0
8, 40539, Note_on_c, 2, 99, 0
8, 40560, Note_on_c, 2, 60, 88
8, 40560, Note_on_c, 2, 101, 87
8, 40562, Note_on_c, 2, 53, 81
8, 40563, Note_on_c, 2, 96, 85
8, 40563, Note_on_c, 2, 99, 69
8, 40564, Note_on_c, 2, 95, 98
8, 40590, Note_on_c, 2, 95, 0
8, 40597, Note_on_c, 2, 96, 0
8, 40598, Note_on_c, 2, 101, 0
8, 40599, Note_on_c, 2, 99, 0
8, 40618, Note_on_c, 2, 53, 0
8, 40621, Note_on_c, 2, 60, 0
8, 40625, Note_on_c, 2, 96, 82
8, 40625, Note_on_c, 2, 101, 72
8, 40625, Note_on_c, 2, 99, 60
8, 40625, Note_on_c, 2, 95, 98
8, 40650, Note_on_c, 2, 95, 0
8, 40654, Note_on_c, 2, 101, 0
8, 40656, Note_on_c, 2, 96, 0
8, 40658, Note_on_c, 2, 99, 0
8, 40676, Note_on_c, 2, 62, 91
8, 40682, Note_on_c, 2, 53, 76
8, 40682, Note_on_c, 2, 99, 60
8, 40682, Note_on_c, 2, 101, 80
8, 40683, Note_on_c, 2, 96, 84
8, 40683, Note_on_c, 2, 95, 103
8, 40709, Note_on_c, 2, 95, 0
8, 40712, Note_on_c, 2, 101, 0
8, 40714, Note_on_c, 2, 96, 0
8, 40716, Note_on_c, 2, 99, 0
8, 40743, Note_on_c, 2, 101, 78
8, 40743, Note_on_c, 2, 99, 59
8, 40744, Note_on_c, 2, 96, 89
8, 40744, Note_on_c, 2, 95, 100
8, 40767, Note_on_c, 2, 53, 0
8, 40770, Note_on_c, 2, 95, 0
8, 40772, Note_on_c, 2, 101, 0
8, 40775, Note_on_c, 2, 96, 0
8, 40776, Note_on_c, 2, 62, 0
8, 40776, Note_on_c, 2, 99, 0
8, 40802, Note_on_c, 2, 60, 74
8, 40803, Note_on_c, 2, 53, 63
8, 40805, Note_on_c, 2, 95, 103
8, 40805, Note_on_c, 2, 96, 99
8, 40805, Note_on_c, 2, 101, 87
8, 40806, Note_on_c, 2, 99, 86
8, 40851, Note_on_c, 2, 95, 0
8, 40854, Note_on_c, 2, 53, 0
8, 40858, Note_on_c, 2, 60, 0
8, 40864, Note_on_c, 2, 96, 0
8, 40865, Note_on_c, 2, 89, 77
8, 40871, Note_on_c, 2, 99, 0
8, 40880, Note_on_c, 2, 101, 0
8, 40900, Note_on_c, 2, 89, 0
8, 40921, Note_on_c, 2, 62, 87
8, 40922, Note_on_c, 2, 101, 89
8, 40923, Note_on_c, 2, 98, 88
8, 40924, Note_on_c, 2, 94, 93
8, 40927, Note_on_c, 2, 53, 76
8, 40959, Note_on_c, 2, 94, 0
8, 40981, Note_on_c, 2, 98, 0
8, 40987, Note_on_c, 2, 89, 80
8, 40992, Note_on_c, 2, 53, 0
8, 41002, Note_on_c, 2, 62, 0
8, 41005, Note_on_c, 2, 101, 0
8, 41017, Note_on_c, 2, 89, 0
8, 41044, Note_on_c, 2, 96, 98
8, 41045, Note_on_c, 2, 60, 88
8, 41046, Note_on_c, 2, 101, 93
8, 41046, Note_on_c, 2, 92, 110
8, 41048, Note_on_c, 2, 53, 82
8, 41084, Note_on_c, 2, 92, 0
8, 41091, Note_on_c, 2, 96, 0
8, 41104, Note_on_c, 2, 101, 0
8, 41130, Note_on_c, 2, 53, 0
8, 41136, Note_on_c, 2, 60, 0
8, 41165, Note_on_c, 2, 96, 96
8, 41167, Note_on_c, 2, 62, 93
8, 41169, Note_on_c, 2, 97, 107
8, 41181, Note_on_c, 2, 98, 93
8, 41185, Note_on_c, 2, 97, 0
8, 41195, Note_on_c, 2, 96, 0
8, 41206, Note_on_c, 2, 62, 0
8, 41229, Note_on_c, 2, 98, 0
8, 41233, Note_on_c, 2, 101, 94
8, 41267, Note_on_c, 2, 101, 0
8, 41280, Note_on_c, 2, 92, 85
8, 41281, Note_on_c, 2, 84, 85
8, 41281, Note_on_c, 2, 57, 85
8, 41284, Note_on_c, 2, 41, 85
8, 41287, Note_on_c, 2, 92, 0
8, 41287, Note_on_c, 2, 89, 85
8, 41290, Note_on_c, 2, 93, 85
8, 41316, Note_on_c, 2, 84, 0
8, 41316, Note_on_c, 2, 57, 0
8, 41319, Note_on_c, 2, 41, 0
8, 41322, Note_on_c, 2, 89, 0
8, 41322, Note_on_c, 2, 93, 0
8, 41760, Note_on_c, 2, 92, 85
8, 41761, Note_on_c, 2, 84, 85
8, 41761, Note_on_c, 2, 57, 85
8, 41764, Note_on_c, 2, 41, 85
8, 41767, Note_on_c, 2, 92, 0
8, 41767, Note_on_c, 2, 89, 85
8, 41770, Note_on_c, 2, 93, 85
8, 41796, Note_on_c, 2, 84, 0
8, 41796, Note_on_c, 2, 57, 0
8, 41799, Note_on_c, 2, 41, 0
8, 41802, Note_on_c, 2, 89, 0
8, 41802, Note_on_c, 2, 93, 0
8, 42241, Note_on_c, 2, 84, 85
8, 42241, Note_on_c, 2, 57, 85
8, 42244, Note_on_c, 2, 41, 85
8, 42247, Note_on_c, 2, 89, 85
8, 42250, Note_on_c, 2, 93, 85
8, 42276, Note_on_c, 2, 84, 0
8, 42276, Note_on_c, 2, 57, 0
8, 42279, Note_on_c, 2, 41, 0
8, 42282, Note_on_c, 2, 89, 0
8, 42285, Note_on_c, 2, 93, 0
8, 42721, Note_on_c, 2, 84, 85
8, 42721, Note_on_c, 2, 57, 85
8, 42724, Note_on_c, 2, 41, 85
8, 42727, Note_on_c, 2, 89, 85
8, 42730, Note_on_c, 2, 93, 85
8, 42756, Note_on_c, 2, 84, 0
8, 42756, Note_on_c, 2, 57, 0
8, 42759, Note_on_c, 2, 41, 0
8, 42762, Note_on_c, 2, 89, 0
8, 42765, Note_on_c, 2, 93, 0
8, 43201, Note_on_c, 2, 46, 94
8, 43202, Note_on_c, 2, 53, 96
8, 43267, Note_on_c, 2, 82, 80
8, 43283, Note_on_c, 2, 53, 0
8, 43291, Note_on_c, 2, 46, 0
8, 43299, Note_on_c, 2, 82, 0
8, 43316, Note_on_c, 2, 88, 102
8, 43317, Note_on_c, 2, 94, 96
8, 43319, Note_on_c, 2, 89, 86
8, 43321, Note_on_c, 2, 92, 85
8, 43326, Note_on_c, 2, 55, 70
8, 43345, Note_on_c, 2, 88, 0
8, 43363, Note_on_c, 2, 55, 0
8, 43383, Note_on_c, 2, 92, 0
8, 43384, Note_on_c, 2, 94, 0
8, 43386, Note_on_c, 2, 89, 0
8, 43442, Note_on_c, 2, 53, 70
8, 43443, Note_on_c, 2, 46, 69
8, 43446, Note_on_c, 2, 94, 96
8, 43446, Note_on_c, 2, 88, 106
8, 43447, Note_on_c, 2, 92, 89
8, 43448, Note_on_c, 2, 89, 90
8, 43505, Note_on_c, 2, 88, 0
8, 43519, Note_on_c, 2, 53, 0
8, 43521, Note_on_c, 2, 92, 0
8, 43525, Note_on_c, 2, 94, 0
8, 43528, Note_on_c, 2, 46, 0
8, 43534, Note_on_c, 2, 89, 0
8, 43568, Note_on_c, 2, 82, 81
8, 43569, Note_on_c, 2, 55, 69
8, 43603, Note_on_c, 2, 82, 0
8, 43633, Note_on_c, 2, 55, 0
8, 43633, Note_on_c, 2, 88, 109
8, 43635, Note_on_c, 2, 94, 95
8, 43635, Note_on_c, 2, 89, 95
8, 43636, Note_on_c, 2, 92, 87
8, 43667, Note_on_c, 2, 88, 0
8, 43688, Note_on_c, 2, 53, 55
8, 43690, Note_on_c, 2, 46, 55
8, 43698, Note_on_c, 2, 89, 0
8, 43699, Note_on_c, 2, 94, 0
8, 43699, Note_on_c, 2, 92, 0
8, 43755, Note_on_c, 2, 53, 0
8, 43755, Note_on_c, 2, 46, 0
8, 43755, Note_on_c, 2, 88, 113
8, 43755, Note_on_c, 2, 92, 100
8, 43756, Note_on_c, 2, 94, 96
8, 43757, Note_on_c, 2, 89, 97
8, 43795, Note_on_c, 2, 88, 0
8, 43807, Note_on_c, 2, 55, 72
8, 43822, Note_on_c, 2, 94, 0
8, 43823, Note_on_c, 2, 89, 0
8, 43826, Note_on_c, 2, 92, 0
8, 43875, Note_on_c, 2, 82, 84
8, 43886, Note_on_c, 2, 55, 0
8, 43914, Note_on_c, 2, 82, 0
8, 43926, Note_on_c, 2, 53, 57
8, 43928, Note_on_c, 2, 88, 104
8, 43930, Note_on_c, 2, 89, 87
8, 43930, Note_on_c, 2, 92, 84
8, 43931, Note_on_c, 2, 46, 56
8, 43932, Note_on_c, 2, 94, 73
8, 43977, Note_on_c, 2, 88, 0
8, 43983, Note_on_c, 2, 94, 0
8, 43984, Note_on_c, 2, 89, 0
8, 43989, Note_on_c, 2, 92, 0
8, 43992, Note_on_c, 2, 53, 0
8, 43995, Note_on_c, 2, 82, 73
8, 43998, Note_on_c, 2, 46, 0
8, 44025, Note_on_c, 2, 82, 0
8, 44042, Note_on_c, 2, 55, 79
8, 44042, Note_on_c, 2, 87, 92
8, 44043, Note_on_c, 2, 94, 88
8, 44044, Note_on_c, 2, 91, 86
8, 44091, Note_on_c, 2, 87, 0
8, 44093, Note_on_c, 2, 94, 0
8, 44099, Note_on_c, 2, 91, 0
8, 44128, Note_on_c, 2, 55, 0
8, 44162, Note_on_c, 2, 60, 90
8, 44165, Note_on_c, 2, 89, 94
8, 44166, Note_on_c, 2, 53, 91
8, 44168, Note_on_c, 2, 101, 92
8, 44194, Note_on_c, 2, 53, 0
8, 44196, Note_on_c, 2, 89, 0
8, 44201, Note_on_c, 2, 101, 0
8, 44211, Note_on_c, 2, 60, 0
8, 44224, Note_on_c, 2, 60, 45
8, 44224, Note_on_c, 2, 53, 71
8, 44226, Note_on_c, 2, 101, 85
8, 44229, Note_on_c, 2, 89, 76
8, 44253, Note_on_c, 2, 101, 0
8, 44258, Note_on_c, 2, 89, 0
8, 44283, Note_on_c, 2, 56, 107
8, 44283, Note_on_c, 2, 95, 110
8, 44284, Note_on_c, 2, 101, 96
8, 44296, Note_on_c, 2, 53, 0
8, 44297, Note_on_c, 2, 60, 0
8, 44314, Note_on_c, 2, 95, 0
8, 44317, Note_on_c, 2, 101, 0
8, 44345, Note_on_c, 2, 57, 79
8, 44345, Note_on_c, 2, 96, 81
8, 44346, Note_on_c, 2, 56, 0
8, 44347, Note_on_c, 2, 101, 62
8, 44371, Note_on_c, 2, 101, 0
8, 44376, Note_on_c, 2, 96, 0
8, 44377, Note_on_c, 2, 57, 0
8, 44401, Note_on_c, 2, 60, 89
8, 44402, Note_on_c, 2, 101, 91
8, 44403, Note_on_c, 2, 53, 93
8, 44404, Note_on_c, 2, 89, 88
8, 44431, Note_on_c, 2, 53, 0
8, 44436, Note_on_c, 2, 89, 0
8, 44438, Note_on_c, 2, 60, 0
8, 44439, Note_on_c, 2, 101, 0
8, 44460, Note_on_c, 2, 60, 68
8, 44462, Note_on_c, 2, 101, 82
8, 44463, Note_on_c, 2, 89, 76
8, 44464, Note_on_c, 2, 53, 62
8, 44493, Note_on_c, 2, 101, 0
8, 44496, Note_on_c, 2, 89, 0
8, 44499, Note_on_c, 2, 53, 0
8, 44511, Note_on_c, 2, 60, 0
8, 44520, Note_on_c, 2, 56, 103
8, 44522, Note_on_c, 2, 101, 93
8, 44523, Note_on_c, 2, 95, 110
8, 44562, Note_on_c, 2, 95, 0
8, 44563, Note_on_c, 2, 101, 0
8, 44567, Note_on_c, 2, 56, 0
8, 44583, Note_on_c, 2, 57, 83
8, 44584, Note_on_c, 2, 96, 89
8, 44584, Note_on_c, 2, 101, 72
8, 44613, Note_on_c, 2, 101, 0
8, 44618, Note_on_c, 2, 57, 0
8, 44618, Note_on_c, 2, 96, 0
8, 44641, Note_on_c, 2, 101, 92
8, 44641, Note_on_c, 2, 60, 86
8, 44642, Note_on_c, 2, 53, 90
8, 44643, Note_on_c, 2, 89, 88
8, 44673, Note_on_c, 2, 53, 0
8, 44673, Note_on_c, 2, 89, 0
8, 44674, Note_on_c, 2, 101, 0
8, 44676, Note_on_c, 2, 60, 0
8, 44699, Note_on_c, 2, 60, 76
8, 44703, Note_on_c, 2, 89, 87
8, 44704, Note_on_c, 2, 53, 62
8, 44704, Note_on_c, 2, 101, 84
8, 44731, Note_on_c, 2, 101, 0
8, 44736, Note_on_c, 2, 89, 0
8, 44739, Note_on_c, 2, 53, 0
8, 44754, Note_on_c, 2, 60, 0
8, 44761, Note_on_c, 2, 95, 107
8, 44762, Note_on_c, 2, 101, 91
8, 44762, Note_on_c, 2, 56, 106
8, 44798, Note_on_c, 2, 95, 0
8, 44798, Note_on_c, 2, 101, 0
8, 44799, Note_on_c, 2, 56, 0
8, 44822, Note_on_c, 2, 57, 76
8, 44824, Note_on_c, 2, 96, 86
8, 44825, Note_on_c, 2, 101, 60
8, 44850, Note_on_c, 2, 101, 0
8, 44854, Note_on_c, 2, 57, 0
8, 44857, Note_on_c, 2, 96, 0
8, 44876, Note_on_c, 2, 60, 87
8, 44880, Note_on_c, 2, 53, 86
8, 44881, Note_on_c, 2, 101, 98
8, 44881, Note_on_c, 2, 89, 96
8, 44910, Note_on_c, 2, 53, 0
8, 44915, Note_on_c, 2, 60, 0
8, 44928, Note_on_c, 2, 101, 0
8, 44933, Note_on_c, 2, 89, 0
8, 44935, Note_on_c, 2, 53, 50
8, 44936, Note_on_c, 2, 60, 67
8, 44968, Note_on_c, 2, 53, 0
8, 44970, Note_on_c, 2, 60, 0
8, 44993, Control_c, 2, 64, 127
8, 45002, Note_on_c, 2, 56, 107
8, 45030, Note_on_c, 2, 56, 0
8, 45063, Note_on_c, 2, 87, 104
8, 45100, Note_on_c, 2, 87, 0
8, 45112, Control_c, 2, 64, 0
8, 45126, Note_on_c, 2, 79, 89
8, 45126, Note_on_c, 2, 82, 103
8, 45127, Note_on_c, 2, 74, 83
8, 45129, Note_on_c, 2, 55, 82
8, 45130, Note_on_c, 2, 48, 81
8, 45166, Note_on_c, 2, 48, 0
8, 45167, Note_on_c, 2, 55, 0
8, 45176, Note_on_c, 2, 82, 0
8, 45177, Note_on_c, 2, 79, 0
8, 45178, Note_on_c, 2, 74, 0
8, 45188, Note_on_c, 2, 55, 72
8, 45190, Note_on_c, 2, 48, 58
8, 45233, Note_on_c, 2, 48, 0
8, 45245, Note_on_c, 2, 51, 96
8, 45250, Note_on_c, 2, 55, 0
8, 45293, Note_on_c, 2, 51, 0
8, 45310, Note_on_c, 2, 52, 85
8, 45311, Note_on_c, 2, 82, 101
8, 45311, Note_on_c, 2, 79, 80
8, 45312, Note_on_c, 2, 74, 80
8, 45313, Note_on_c, 2, 76, 75
8, 45350, Note_on_c, 2, 52, 0
8, 45359, Note_on_c, 2, 82, 0
8, 45363, Note_on_c, 2, 74, 0
8, 45366, Note_on_c, 2, 76, 0
8, 45368, Note_on_c, 2, 79, 0
8, 45368, Note_on_c, 2, 55, 83
8, 45371, Note_on_c, 2, 48, 78
8, 45405, Note_on_c, 2, 48, 0
8, 45408, Note_on_c, 2, 55, 0
8, 45427, Note_on_c, 2, 79, 84
8, 45430, Note_on_c, 2, 55, 73
8, 45430, Note_on_c, 2, 82, 91
8, 45430, Note_on_c, 2, 48, 71
8, 45431, Note_on_c, 2, 76, 82
8, 45431, Note_on_c, 2, 74, 80
8, 45462, Note_on_c, 2, 82, 0
8, 45473, Note_on_c, 2, 48, 0
8, 45474, Note_on_c, 2, 74, 0
8, 45481, Note_on_c, 2, 79, 0
8, 45481, Note_on_c, 2, 76, 0
8, 45483, Note_on_c, 2, 55, 0
8, 45488, Note_on_c, 2, 51, 87
8, 45535, Note_on_c, 2, 51, 0
8, 45540, Note_on_c, 2, 72, 85
8, 45551, Note_on_c, 2, 52, 78
8, 45595, Note_on_c, 2, 72, 0
8, 45596, Note_on_c, 2, 52, 0
8, 45610, Note_on_c, 2, 53, 84
8, 45612, Note_on_c, 2, 46, 78
8, 45650, Note_on_c, 2, 46, 0
8, 45653, Note_on_c, 2, 53, 0
8, 45671, Note_on_c, 2, 46, 65
8, 45672, Note_on_c, 2, 53, 82
8, 45673, Note_on_c, 2, 65, 71
8, 45708, Note_on_c, 2, 65, 0
8, 45712, Note_on_c, 2, 46, 0
8, 45722, Note_on_c, 2, 53, 0
8, 45731, Note_on_c, 2, 49, 100
8, 45731, Note_on_c, 2, 74, 93
8, 45781, Note_on_c, 2, 49, 0
8, 45792, Note_on_c, 2, 50, 73
8, 45808, Note_on_c, 2, 74, 0
8, 45828, Note_on_c, 2, 50, 0
8, 45846, Note_on_c, 2, 53, 87
8, 45847, Note_on_c, 2, 65, 96
8, 45848, Note_on_c, 2, 77, 97
8, 45849, Note_on_c, 2, 46, 83
8, 45880, Note_on_c, 2, 65, 0
8, 45887, Note_on_c, 2, 46, 0
8, 45902, Note_on_c, 2, 77, 0
8, 45904, Note_on_c, 2, 46, 78
8, 45923, Control_c, 2, 64, 127
8, 45942, Note_on_c, 2, 46, 0
8, 45964, Note_on_c, 2, 49, 106
8, 45974, Control_c, 2, 64, 0
8, 45979, Note_on_c, 2, 53, 0
8, 45984, Note_on_c, 2, 98, 44
8, 45990, Note_on_c, 2, 96, 83
8, 45997, Note_on_c, 2, 94, 95
8, 46000, Note_on_c, 2, 98, 0
8, 46001, Note_on_c, 2, 49, 0
8, 46001, Note_on_c, 2, 96, 0
8, 46005, Note_on_c, 2, 93, 96
8, 46009, Note_on_c, 2, 94, 0
8, 46012, Note_on_c, 2, 91, 95
8, 46013, Note_on_c, 2, 93, 0
8, 46020, Note_on_c, 2, 50, 88
8, 46021, Note_on_c, 2, 89, 89
8, 46022, Note_on_c, 2, 91, 0
8, 46029, Note_on_c, 2, 88, 93
8, 46031, Note_on_c, 2, 89, 0
8, 46037, Note_on_c, 2, 86, 82
8, 46040, Note_on_c, 2, 88, 0
8, 46045, Note_on_c, 2, 84, 88
8, 46051, Note_on_c, 2, 86, 0
8, 46054, Note_on_c, 2, 82, 89
8, 46058, Note_on_c, 2, 84, 0
8, 46059, Note_on_c, 2, 50, 0
8, 46062, Note_on_c, 2, 81, 93
8, 46063, Note_on_c, 2, 82, 0
8, 46070, Note_on_c, 2, 79, 99
8, 46071, Note_on_c, 2, 81, 0
8, 46075, Note_on_c, 2, 79, 0
8, 46081, Note_on_c, 2, 53, 94
8, 46082, Note_on_c, 2, 60, 96
8, 46147, Note_on_c, 2, 89, 80
8, 46163, Note_on_c, 2, 60, 0
8, 46171, Note_on_c, 2, 53, 0
8, 46179, Note_on_c, 2, 89, 0
8, 46196, Note_on_c, 2, 95, 102
8, 46197, Note_on_c, 2, 101, 96
8, 46199, Note_on_c, 2, 96, 86
8, 46201, Note_on_c, 2, 99, 85
8, 46206, Note_on_c, 2, 62, 70
8, 46225, Note_on_c, 2, 95, 0
8, 46243, Note_on_c, 2, 62, 0
8, 46263, Note_on_c, 2, 99, 0
8, 46264, Note_on_c, 2, 101, 0
8, 46266, Note_on_c, 2, 96, 0
8, 46322, Note_on_c, 2, 60, 70
8, 46323, Note_on_c, 2, 53, 69
8, 46326, Note_on_c, 2, 101, 96
8, 46326, Note_on_c, 2, 95, 106
8, 46327, Note_on_c, 2, 99, 89
8, 46328, Note_on_c, 2, 96, 90
8, 46385, Note_on_c, 2, 95, 0
8, 46399, Note_on_c, 2, 60, 0
8, 46401, Note_on_c, 2, 99, 0
8, 46405, Note_on_c, 2, 101, 0
8, 46408, Note_on_c, 2, 53, 0
8, 46414, Note_on_c, 2, 96, 0
8, 46448, Note_on_c, 2, 89, 81
8, 46449, Note_on_c, 2, 62, 69
8, 46483, Note_on_c, 2, 89, 0
8, 46513, Note_on_c, 2, 62, 0
8, 46513, Note_on_c, 2, 95, 109
8, 46515, Note_on_c, 2, 101, 95
8, 46515, Note_on_c, 2, 96, 95
8, 46516, Note_on_c, 2, 99, 87
8, 46547, Note_on_c, 2, 95, 0
8, 46568, Note_on_c, 2, 60, 55
8, 46570, Note_on_c, 2, 53, 55
8, 46578, Note_on_c, 2, 96, 0
8, 46579, Note_on_c, 2, 101, 0
8, 46579, Note_on_c, 2, 99, 0
8, 46635, Note_on_c, 2, 60, 0
8, 46635, Note_on_c, 2, 53, 0
8, 46635, Note_on_c, 2, 95, 113
8, 46635, Note_on_c, 2, 99, 100
8, 46636, Note_on_c, 2, 101, 96
8, 46637, Note_on_c, 2, 96, 97
8, 46675, Note_on_c, 2, 95, 0
8, 46687, Note_on_c, 2, 62, 72
8, 46702, Note_on_c, 2, 101, 0
8, 46703, Note_on_c, 2, 96, 0
8, 46706, Note_on_c, 2, 99, 0
8, 46755, Note_on_c, 2, 89, 84
8, 46766, Note_on_c, 2, 62, 0
8, 46794, Note_on_c, 2, 89, 0
8, 46806, Note_on_c, 2, 60, 57
8, 46808, Note_on_c, 2, 95, 104
8, 46810, Note_on_c, 2, 96, 87
8, 46810, Note_on_c, 2, 99, 84
8, 46811, Note_on_c, 2, 53, 56
8, 46812, Note_on_c, 2, 101, 73
8, 46857, Note_on_c, 2, 95, 0
8, 46863, Note_on_c, 2, 101, 0
8, 46864, Note_on_c, 2, 96, 0
8, 46869, Note_on_c, 2, 99, 0
8, 46872, Note_on_c, 2, 60, 0
8, 46875, Note_on_c, 2, 89, 73
8, 46878, Note_on_c, 2, 53, 0
8, 46905, Note_on_c, 2, 89, 0
8, 46922, Note_on_c, 2, 62, 79
8, 46922, Note_on_c, 2, 94, 92
8, 46923, Note_on_c, 2, 101, 88
8, 46924, Note_on_c, 2, 98, 86
8, 46971, Note_on_c, 2, 94, 0
8, 46973, Note_on_c, 2, 101, 0
8, 46979, Note_on_c, 2, 98, 0
8, 47008, Note_on_c, 2, 62, 0
8, 47048, Note_on_c, 2, 60, 84
8, 47049, Note_on_c, 2, 53, 80
8, 47111, Note_on_c, 2, 89, 83
8, 47136, Note_on_c, 2, 60, 0
8, 47136, Note_on_c, 2, 53, 0
8, 47139, Note_on_c, 2, 89, 0
8, 47159, Note_on_c, 2, 62, 84
8, 47159, Note_on_c, 2, 92, 104
8, 47211, Note_on_c, 2, 92, 0
8, 47228, Note_on_c, 2, 93, 83
8, 47237, Note_on_c, 2, 62, 0
8, 47269, Note_on_c, 2, 93, 0
8, 47282, Note_on_c, 2, 60, 73
8, 47285, Note_on_c, 2, 53, 74
8, 47287, Note_on_c, 2, 101, 95
8, 47343, Note_on_c, 2, 101, 0
8, 47350, Note_on_c, 2, 89, 73
8, 47366, Note_on_c, 2, 60, 0
8, 47371, Note_on_c, 2, 53, 0
8, 47387, Note_on_c, 2, 89, 0
8, 47404, Note_on_c, 2, 62, 82
8, 47406, Note_on_c, 2, 92, 94
8, 47444, Note_on_c, 2, 92, 0
8, 47465, Note_on_c, 2, 93, 86
8, 47490, Note_on_c, 2, 62, 0
8, 47501, Note_on_c, 2, 93, 0
8, 47525, Note_on_c, 2, 60, 91
8, 47527, Note_on_c, 2, 93, 88
8, 47528, Note_on_c, 2, 53, 82
8, 47592, Note_on_c, 2, 96, 80
8, 47600, Note_on_c, 2, 53, 0
8, 47601, Note_on_c, 2, 60, 0
8, 47613, Note_on_c, 2, 93, 0
8, 47618, Note_on_c, 2, 96, 0
8, 47644, Note_on_c, 2, 53, 85
8, 47645, Note_on_c, 2, 62, 92
8, 47650, Note_on_c, 2, 98, 100
8, 47717, Note_on_c, 2, 98, 0
8, 47719, Note_on_c, 2, 96, 87
8, 47722, Note_on_c, 2, 53, 0
8, 47726, Note_on_c, 2, 62, 0
8, 47739, Note_on_c, 2, 96, 0
8, 47758, Note_on_c, 2, 60, 93
8, 47761, Note_on_c, 2, 53, 66
8, 47770, Note_on_c, 2, 87, 111
8, 47772, Note_on_c, 2, 99, 114
8, 47819, Note_on_c, 2, 53, 0
8, 47832, Note_on_c, 2, 99, 0
8, 47833, Note_on_c, 2, 87, 0
8, 47839, Note_on_c, 2, 60, 0
8, 47845, Note_on_c, 2, 96, 59
8, 47865, Note_on_c, 2, 96, 0
8, 47884, Note_on_c, 2, 53, 85
8, 47885, Note_on_c, 2, 62, 94
8, 47891, Note_on_c, 2, 98, 105
8, 47892, Note_on_c, 2, 86, 107
8, 47923, Note_on_c, 2, 62, 0
8, 47946, Note_on_c, 2, 53, 0
8, 47950, Note_on_c, 2, 98, 0
8, 47969, Note_on_c, 2, 86, 0
8, 48007, Note_on_c, 2, 60, 72
8, 48011, Note_on_c, 2, 53, 70
8, 48067, Note_on_c, 2, 60, 0
8, 48067, Note_on_c, 2, 96, 108
8, 48067, Note_on_c, 2, 92, 112
8, 48070, Note_on_c, 2, 53, 0
8, 48078, Note_on_c, 2, 93, 80
8, 48092, Note_on_c, 2, 92, 0
8, 48109, Note_on_c, 2, 96, 0
8, 48110, Note_on_c, 2, 93, 0
8, 48126, Note_on_c, 2, 62, 78
8, 48126, Note_on_c, 2, 96, 90
8, 48127, Note_on_c, 2, 93, 94
8, 48131, Note_on_c, 2, 53, 60
8, 48162, Note_on_c, 2, 96, 0
8, 48162, Note_on_c, 2, 93, 0
8, 48172, Note_on_c, 2, 53, 0
8, 48178, Note_on_c, 2, 62, 0
8, 48184, Note_on_c, 2, 96, 84
8, 48185, Note_on_c, 2, 93, 91
8, 48216, Note_on_c, 2, 96, 0
8, 48217, Note_on_c, 2, 93, 0
8, 48238, Note_on_c, 2, 60, 68
8, 48240, Note_on_c, 2, 96, 91
8, 48240, Note_on_c, 2, 53, 66
8, 48242, Note_on_c, 2, 93, 98
8, 48276, Note_on_c, 2, 96, 0
8, 48276, Note_on_c, 2, 93, 0
8, 48287, Note_on_c, 2, 60, 0
8, 48287, Note_on_c, 2, 53, 0
8, 48303, Note_on_c, 2, 96, 77
8, 48303, Note_on_c, 2, 93, 92
8, 48332, Note_on_c, 2, 96, 0
8, 48334, Note_on_c, 2, 93, 0
8, 48358, Note_on_c, 2, 62, 78
8, 48360, Note_on_c, 2, 53, 73
8, 48361, Note_on_c, 2, 96, 98
8, 48362, Note_on_c, 2, 93, 105
8, 48393, Note_on_c, 2, 96, 0
8, 48394, Note_on_c, 2, 93, 0
8, 48403, Note_on_c, 2, 62, 0
8, 48404, Note_on_c, 2, 53, 0
8, 48423, Note_on_c, 2, 96, 89
8, 48423, Note_on_c, 2, 93, 95
8, 48451, Note_on_c, 2, 96, 0
8, 48453, Note_on_c, 2, 93, 0
8, 48474, Note_on_c, 2, 60, 69
8, 48475, Note_on_c, 2, 53, 67
8, 48480, Note_on_c, 2, 96, 98
8, 48481, Note_on_c, 2, 93, 102
8, 48510, Note_on_c, 2, 96, 0
8, 48511, Note_on_c, 2, 93, 0
8, 48523, Note_on_c, 2, 60, 0
8, 48527, Note_on_c, 2, 53, 0
8, 48540, Note_on_c, 2, 96, 85
8, 48541, Note_on_c, 2, 93, 89
8, 48571, Note_on_c, 2, 96, 0
8, 48571, Note_on_c, 2, 93, 0
8, 48599, Note_on_c, 2, 53, 69
8, 48600, Note_on_c, 2, 96, 95
8, 48600, Note_on_c, 2, 62, 68
8, 48601, Note_on_c, 2, 93, 97
8, 48632, Note_on_c, 2, 96, 0
8, 48633, Note_on_c, 2, 93, 0
8, 48645, Note_on_c, 2, 62, 0
8, 48647, Note_on_c, 2, 53, 0
8, 48663, Note_on_c, 2, 96, 84
8, 48664, Note_on_c, 2, 93, 91
8, 48696, Note_on_c, 2, 96, 0
8, 48696, Note_on_c, 2, 93, 0
8, 48722, Note_on_c, 2, 86, 82
8, 48723, Note_on_c, 2, 60, 73
8, 48725, Note_on_c, 2, 53, 68
8, 48770, Note_on_c, 2, 60, 0
8, 48771, Note_on_c, 2, 86, 0
8, 48774, Note_on_c, 2, 53, 0
8, 48786, Note_on_c, 2, 89, 90
8, 48824, Note_on_c, 2, 89, 0
8, 48843, Note_on_c, 2, 53, 76
8, 48843, Note_on_c, 2, 91, 109
8, 48843, Note_on_c, 2, 62, 85
8, 48871, Note_on_c, 2, 53, 0
8, 48873, Note_on_c, 2, 62, 0
8, 48894, Note_on_c, 2, 91, 0
8, 48905, Note_on_c, 2, 89, 95
8, 48936, Note_on_c, 2, 89, 0
8, 48966, Note_on_c, 2, 53, 74
8, 48968, Note_on_c, 2, 46, 71
8, 49029, Note_on_c, 2, 70, 88
8, 49037, Note_on_c, 2, 53, 0
8, 49037, Note_on_c, 2, 46, 0
8, 49062, Note_on_c, 2, 70, 0
8, 49078, Note_on_c, 2, 76, 99
8, 49081, Note_on_c, 2, 55, 76
8, 49083, Note_on_c, 2, 82, 78
8, 49083, Note_on_c, 2, 80, 84
8, 49096, Note_on_c, 2, 77, 78
8, 49103, Note_on_c, 2, 76, 0
8, 49123, Note_on_c, 2, 82, 0
8, 49126, Note_on_c, 2, 77, 0
8, 49128, Note_on_c, 2, 80, 0
8, 49134, Note_on_c, 2, 55, 0
8, 49149, Note_on_c, 2, 80, 74
8, 49149, Note_on_c, 2, 77, 88
8, 49149, Note_on_c, 2, 82, 92
8, 49200, Note_on_c, 2, 53, 52
8, 49201, Note_on_c, 2, 46, 58
8, 49206, Note_on_c, 2, 77, 0
8, 49211, Note_on_c, 2, 82, 0
8, 49215, Note_on_c, 2, 80, 0
8, 49268, Note_on_c, 2, 76, 106
8, 49269, Note_on_c, 2, 82, 92
8, 49270, Note_on_c, 2, 80, 93
8, 49274, Note_on_c, 2, 53, 0
8, 49276, Note_on_c, 2, 46, 0
8, 49291, Note_on_c, 2, 77, 67
8, 49296, Note_on_c, 2, 76, 0
8, 49321, Note_on_c, 2, 55, 70
8, 49332, Note_on_c, 2, 77, 0
8, 49336, Note_on_c, 2, 82, 0
8, 49337, Note_on_c, 2, 80, 0
8, 49389, Note_on_c, 2, 76, 105
8, 49389, Note_on_c, 2, 82, 89
8, 49390, Note_on_c, 2, 80, 93
8, 49403, Note_on_c, 2, 77, 86
8, 49411, Note_on_c, 2, 55, 0
8, 49411, Note_on_c, 2, 76, 0
8, 49438, Note_on_c, 2, 53, 74
8, 49440, Control_c, 2, 64, 127
8, 49450, Note_on_c, 2, 77, 0
8, 49452, Note_on_c, 2, 82, 0
8, 49457, Note_on_c, 2, 80, 0
8, 49483, Note_on_c, 2, 53, 0
8, 49680, Note_on_c, 2, 53, 90
8, 49683, Control_c, 2, 64, 0
8, 49685, Note_on_c, 2, 77, 97
8, 49685, Note_on_c, 2, 89, 104
8, 49685, Note_on_c, 2, 52, 108
8, 49701, Note_on_c, 2, 52, 0
8, 49715, Note_on_c, 2, 77, 0
8, 49716, Note_on_c, 2, 89, 0
8, 49742, Note_on_c, 2, 77, 76
8, 49742, Note_on_c, 2, 89, 83
8, 49769, Note_on_c, 2, 89, 0
8, 49771, Note_on_c, 2, 53, 0
8, 49771, Note_on_c, 2, 77, 0
8, 49800, Note_on_c, 2, 77, 88
8, 49800, Note_on_c, 2, 89, 96
8, 49800, Note_on_c, 2, 53, 89
8, 49830, Note_on_c, 2, 77, 0
8, 49832, Note_on_c, 2, 89, 0
8, 49834, Note_on_c, 2, 53, 0
8, 49856, Note_on_c, 2, 53, 73
8, 49861, Note_on_c, 2, 89, 99
8, 49862, Note_on_c, 2, 77, 89
8, 49895, Note_on_c, 2, 77, 0
8, 49896, Note_on_c, 2, 53, 0
8, 49912, Note_on_c, 2, 89, 0
8, 49922, Note_on_c, 2, 60, 90
8, 49925, Note_on_c, 2, 89, 94
8, 49926, Note_on_c, 2, 53, 91
8, 49928, Note_on_c, 2, 101, 92
8, 49954, Note_on_c, 2, 53, 0
8, 49956, Note_on_c, 2, 89, 0
8, 49961, Note_on_c, 2, 101, 0
8, 49971, Note_on_c, 2, 60, 0
8, 49984, Note_on_c, 2, 60, 45
8, 49984, Note_on_c, 2, 53, 71
8, 49986, Note_on_c, 2, 101, 85
8, 49989, Note_on_c, 2, 89, 76
8, 50013, Note_on_c, 2, 101, 0
8, 50018, Note_on_c, 2, 89, 0
8, 50043, Note_on_c, 2, 56, 107
8, 50043, Note_on_c, 2, 95, 110
8, 50044, Note_on_c, 2, 101, 96
8, 50056, Note_on_c, 2, 53, 0
8, 50057, Note_on_c, 2, 60, 0
8, 50074, Note_on_c, 2, 95, 0
8, 50077, Note_on_c, 2, 101, 0
8, 50105, Note_on_c, 2, 57, 79
8, 50105, Note_on_c, 2, 96, 81
8, 50106, Note_on_c, 2, 56, 0
8, 50107, Note_on_c, 2, 101, 62
8, 50131, Note_on_c, 2, 101, 0
8, 50136, Note_on_c, 2, 96, 0
8, 50137, Note_on_c, 2, 57, 0
8, 50161, Note_on_c, 2, 60, 89
8, 50162, Note_on_c, 2, 101, 91
8, 50163, Note_on_c, 2, 53, 93
8, 50164, Note_on_c, 2, 89, 88
8, 50191, Note_on_c, 2, 53, 0
8, 50196, Note_on_c, 2, 89, 0
8, 50198, Note_on_c, 2, 60, 0
8, 50199, Note_on_c, 2, 101, 0
8, 50220, Note_on_c, 2, 60, 68
8, 50222, Note_on_c, 2, 101, 82
8, 50223, Note_on_c, 2, 89, 76
8, 50224, Note_on_c, 2, 53, 62
8, 50253, Note_on_c, 2, 101, 0
8, 50256, Note_on_c, 2, 89, 0
8, 50259, Note_on_c, 2, 53, 0
8, 50271, Note_on_c, 2, 60, 0
8, 50280, Note_on_c, 2, 56, 103
8, 50282, Note_on_c, 2, 101, 93
8, 50283, Note_on_c, 2, 95, 110
8, 50322, Note_on_c, 2, 95, 0
8, 50323, Note_on_c, 2, 101, 0
8, 50327, Note_on_c, 2, 56, 0
8, 50343, Note_on_c, 2, 57, 83
8, 50344, Note_on_c, 2, 96, 89
8, 50344, Note_on_c, 2, 101, 72
8, 50373, Note_on_c, 2, 101, 0
8, 50378, Note_on_c, 2, 57, 0
8, 50378, Note_on_c, 2, 96, 0
8, 50401, Note_on_c, 2, 101, 92
8, 50401, Note_on_c, 2, 60, 86
8, 50402, Note_on_c, 2, 53, 90
8, 50403, Note_on_c, 2, 89, 88
8, 50433, Note_on_c, 2, 53, 0
8, 50433, Note_on_c, 2, 89, 0
8, 50434, Note_on_c, 2, 101, 0
8, 50436, Note_on_c, 2, 60, 0
8, 50459, Note_on_c, 2, 60, 76
8, 50463, Note_on_c, 2, 89, 87
8, 50464, Note_on_c, 2, 53, 62
8, 50464, Note_on_c, 2, 101, 84
8, 50491, Note_on_c, 2, 101, 0
8, 50496, Note_on_c, 2, 89, 0
8, 50499, Note_on_c, 2, 53, 0
8, 50514, Note_on_c, 2, 60, 0
8, 50521, Note_on_c, 2, 95, 107
8, 50522, Note_on_c, 2, 101, 91
8, 50522, Note_on_c, 2, 56, 106
8, 50558, Note_on_c, 2, 95, 0
8, 50558, Note_on_c, 2, 101, 0
8, 50559, Note_on_c, 2, 56, 0
8, 50582, Note_on_c, 2, 57, 76
8, 50584, Note_on_c, 2, 96, 86
8, 50585, Note_on_c, 2, 101, 60
8, 50610, Note_on_c, 2, 101, 0
8, 50614, Note_on_c, 2, 57, 0
8, 50617, Note_on_c, 2, 96, 0
8, 50636, Note_on_c, 2, 60, 87
8, 50640, Note_on_c, 2, 53, 86
8, 50641, Note_on_c, 2, 101, 98
8, 50641, Note_on_c, 2, 89, 96
8, 50670, Note_on_c, 2, 53, 0
8, 50675, Note_on_c, 2, 60, 0
8, 50688, Note_on_c, 2, 101, 0
8, 50693, Note_on_c, 2, 89, 0
8, 50695, Note_on_c, 2, 53, 50
8, 50696, Note_on_c, 2, 60, 67
8, 50728, Note_on_c, 2, 53, 0
8, 50730, Note_on_c, 2, 60, 0
8, 50753, Control_c, 2, 64, 127
8, 50762, Note_on_c, 2, 56, 107
8, 50790, Note_on_c, 2, 56, 0
8, 50823, Note_on_c, 2, 87, 104
8, 50860, Note_on_c, 2, 87, 0
8, 50872, Control_c, 2, 64, 0
8, 50886, Note_on_c, 2, 55, 85
8, 50888, Note_on_c, 2, 48, 85
8, 50972, Note_on_c, 2, 48, 0
8, 50974, Note_on_c, 2, 55, 0
8, 51001, Note_on_c, 2, 96, 94
8, 51003, Note_on_c, 2, 90, 99
8, 51003, Note_on_c, 2, 94, 87
8, 51004, Note_on_c, 2, 57, 81
8, 51006, Note_on_c, 2, 91, 92
8, 51009, Note_on_c, 2, 48, 61
8, 51031, Note_on_c, 2, 90, 0
8, 51038, Note_on_c, 2, 91, 0
8, 51041, Note_on_c, 2, 96, 0
8, 51041, Note_on_c, 2, 48, 0
8, 51042, Note_on_c, 2, 57, 0
8, 51044, Note_on_c, 2, 94, 0
8, 51061, Note_on_c, 2, 94, 73
8, 51064, Note_on_c, 2, 91, 85
8, 51064, Note_on_c, 2, 96, 67
8, 51096, Note_on_c, 2, 91, 0
8, 51096, Note_on_c, 2, 96, 0
8, 51098, Note_on_c, 2, 94, 0
8, 51121, Note_on_c, 2, 55, 81
8, 51124, Note_on_c, 2, 48, 75
8, 51124, Note_on_c, 2, 96, 88
8, 51125, Note_on_c, 2, 94, 80
8, 51126, Note_on_c, 2, 91, 101
8, 51178, Note_on_c, 2, 91, 0
8, 51179, Note_on_c, 2, 96, 0
8, 51183, Note_on_c, 2, 94, 0
8, 51189, Note_on_c, 2, 55, 0
8, 51196, Note_on_c, 2, 48, 0
8, 51243, Note_on_c, 2, 84, 87
8, 51247, Note_on_c, 2, 57, 78
8, 51285, Note_on_c, 2, 84, 0
8, 51291, Note_on_c, 2, 57, 0
8, 51308, Note_on_c, 2, 96, 95
8, 51308, Note_on_c, 2, 94, 93
8, 51308, Note_on_c, 2, 90, 103
8, 51310, Note_on_c, 2, 91, 87
8, 51343, Note_on_c, 2, 90, 0
8, 51355, Note_on_c, 2, 96, 0
8, 51355, Note_on_c, 2, 94, 0
8, 51355, Note_on_c, 2, 91, 0
8, 51360, Note_on_c, 2, 86, 75
8, 51365, Note_on_c, 2, 53, 66
8, 51367, Note_on_c, 2, 46, 56
8, 51368, Note_on_c, 2, 84, 93
8, 51396, Note_on_c, 2, 86, 0
8, 51414, Note_on_c, 2, 84, 0
8, 51427, Note_on_c, 2, 53, 0
8, 51432, Note_on_c, 2, 86, 91
8, 51434, Note_on_c, 2, 92, 107
8, 51442, Note_on_c, 2, 46, 0
8, 51481, Note_on_c, 2, 55, 76
8, 51485, Note_on_c, 2, 86, 0
8, 51486, Note_on_c, 2, 46, 57
8, 51495, Note_on_c, 2, 91, 63
8, 51513, Note_on_c, 2, 89, 72
8, 51525, Note_on_c, 2, 92, 0
8, 51534, Note_on_c, 2, 86, 64
8, 51536, Note_on_c, 2, 91, 0
8, 51546, Note_on_c, 2, 46, 0
8, 51550, Note_on_c, 2, 55, 0
8, 51558, Note_on_c, 2, 89, 0
8, 51563, Note_on_c, 2, 84, 89
8, 51581, Note_on_c, 2, 86, 0
8, 51596, Note_on_c, 2, 84, 0
8, 51601, Note_on_c, 2, 53, 92
8, 51603, Note_on_c, 2, 46, 82
8, 51614, Note_on_c, 2, 86, 98
8, 51616, Note_on_c, 2, 92, 110
8, 51659, Note_on_c, 2, 53, 0
8, 51661, Note_on_c, 2, 46, 0
8, 51670, Note_on_c, 2, 86, 0
8, 51680, Note_on_c, 2, 91, 70
8, 51695, Note_on_c, 2, 89, 69
8, 51708, Note_on_c, 2, 86, 71
8, 51712, Note_on_c, 2, 92, 0
8, 51718, Note_on_c, 2, 91, 0
8, 51724, Note_on_c, 2, 46, 76
8, 51727, Note_on_c, 2, 84, 93
8, 51728, Note_on_c, 2, 55, 89
8, 51733, Note_on_c, 2, 89, 0
8, 51750, Note_on_c, 2, 86, 0
8, 51752, Note_on_c, 2, 46, 0
8, 51754, Note_on_c, 2, 84, 0
8, 51754, Note_on_c, 2, 55, 0
8, 51780, Note_on_c, 2, 82, 87
8, 51812, Note_on_c, 2, 82, 0
8, 51840, Note_on_c, 2, 41, 92
8, 51840, Note_on_c, 2, 95, 109
8, 51841, Note_on_c, 2, 89, 92
8, 51841, Note_on_c, 2, 96, 98
8, 51842, Note_on_c, 2, 101, 100
8, 51869, Note_on_c, 2, 95, 0
8, 51872, Note_on_c, 2, 89, 0
8, 51878, Note_on_c, 2, 96, 0
8, 51880, Note_on_c, 2, 101, 0
8, 51901, Note_on_c, 2, 89, 64
8, 51901, Note_on_c, 2, 101, 72
8, 51901, Note_on_c, 2, 96, 62
8, 51904, Note_on_c, 2, 95, 85
8, 51929, Note_on_c, 2, 95, 0
8, 51933, Note_on_c, 2, 89, 0
8, 51933, Note_on_c, 2, 101, 0
8, 51933, Note_on_c, 2, 96, 0
8, 51962, Note_on_c, 2, 89, 88
8, 51962, Note_on_c, 2, 101, 93
8, 51966, Note_on_c, 2, 45, 80
8, 51976, Note_on_c, 2, 41, 0
8, 51988, Note_on_c, 2, 89, 0
8, 51997, Note_on_c, 2, 101, 0
8, 52022, Note_on_c, 2, 84, 79
8, 52022, Note_on_c, 2, 96, 88
8, 52046, Note_on_c, 2, 96, 0
8, 52050, Note_on_c, 2, 84, 0
8, 52078, Note_on_c, 2, 46, 65
8, 52082, Note_on_c, 2, 83, 92
8, 52082, Note_on_c, 2, 95, 99
8, 52106, Note_on_c, 2, 45, 0
8, 52115, Note_on_c, 2, 83, 0
8, 52122, Note_on_c, 2, 95, 0
8, 52142, Note_on_c, 2, 94, 82
8, 52142, Note_on_c, 2, 82, 72
8, 52169, Note_on_c, 2, 82, 0
8, 52173, Note_on_c, 2, 94, 0
8, 52188, Note_on_c, 2, 46, 0
8, 52204, Note_on_c, 2, 47, 83
8, 52210, Note_on_c, 2, 92, 96
8, 52210, Note_on_c, 2, 80, 93
8, 52239, Note_on_c, 2, 80, 0
8, 52245, Note_on_c, 2, 92, 0
8, 52262, Note_on_c, 2, 77, 98
8, 52262, Note_on_c, 2, 89, 99
8, 52286, Note_on_c, 2, 77, 0
8, 52296, Note_on_c, 2, 89, 0
8, 52308, Note_on_c, 2, 47, 0
8, 52321, Note_on_c, 2, 96, 106
8, 52326, Note_on_c, 2, 48, 94
8, 52348, Note_on_c, 2, 94, 41
8, 52355, Note_on_c, 2, 96, 0
8, 52359, Note_on_c, 2, 94, 0
8, 52359, Note_on_c, 2, 93, 81
8, 52362, Note_on_c, 2, 48, 0
8, 52369, Note_on_c, 2, 93, 0
8, 52369, Note_on_c, 2, 91, 81
8, 52377, Note_on_c, 2, 89, 90
8, 52380, Note_on_c, 2, 91, 0
8, 52385, Note_on_c, 2, 88, 89
8, 52386, Note_on_c, 2, 89, 0
8, 52394, Note_on_c, 2, 88, 0
8, 52394, Note_on_c, 2, 86, 81
8, 52404, Note_on_c, 2, 86, 0
8, 52404, Note_on_c, 2, 84, 79
8, 52414, Note_on_c, 2, 82, 80
8, 52415, Note_on_c, 2, 84, 0
8, 52424, Note_on_c, 2, 81, 83
8, 52425, Note_on_c, 2, 82, 0
8, 52433, Note_on_c, 2, 79, 80
8, 52435, Note_on_c, 2, 81, 0
8, 52441, Note_on_c, 2, 77, 83
8, 52444, Note_on_c, 2, 79, 0
8, 52449, Note_on_c, 2, 76, 80
8, 52454, Note_on_c, 2, 77, 0
8, 52454, Note_on_c, 2, 74, 78
8, 52461, Note_on_c, 2, 72, 72
8, 52465, Note_on_c, 2, 76, 0
8, 52475, Note_on_c, 2, 74, 0
8, 52478, Note_on_c, 2, 72, 0
8, 52520, Note_on_c, 2, 65, 108
8, 52520, Note_on_c, 2, 41, 94
8, 52521, Note_on_c, 2, 77, 107
8, 52521, Note_on_c, 2, 53, 86
8, 52680, Note_on_c, 2, 77, 0
8, 52681, Note_on_c, 2, 41, 0
8, 52685, Note_on_c, 2, 65, 0
8, 52688, Note_on_c, 2, 53, 0
8, 52800, Control_c, 2, 64, 0
8, 52800, End_track
9, 0, Start_track
9, 0, MIDI_port, 0
9, 0, Sequencer_specific, 7, 0, 0, 0, 106, 0, 4, 7
9, 0, Title_t, "Clean El. Guitar"
9, 0, Control_c, 6, 0, 0
9, 0, Control_c, 6, 32, 0
9, 0, Program_c, 6, 27
9, 0, Control_c, 6, 121, 0
9, 24, Control_c, 6, 7, 105
9, 25, Control_c, 6, 10, 64
9, 26, Control_c, 6, 123, 0
9, 27, Control_c, 6, 91, 40
9, 28, Control_c, 6, 93, 0
9, 29, Control_c, 6, 64, 0
9, 961, Note_on_c, 6, 41, 96
9, 962, Note_on_c, 6, 48, 90
9, 996, Note_on_c, 6, 41, 0
9, 997, Note_on_c, 6, 48, 0
9, 1441, Note_on_c, 6, 41, 96
9, 1442, Note_on_c, 6, 48, 90
9, 1476, Note_on_c, 6, 41, 0
9, 1477, Note_on_c, 6, 48, 0
9, 1921, Note_on_c, 6, 41, 96
9, 1922, Note_on_c, 6, 48, 90
9, 1956, Note_on_c, 6, 41, 0
9, 1957, Note_on_c, 6, 48, 0
9, 2401, Note_on_c, 6, 41, 96
9, 2402, Note_on_c, 6, 48, 90
9, 2436, Note_on_c, 6, 41, 0
9, 2437, Note_on_c, 6, 48, 0
9, 3000, Note_on_c, 6, 65, 84
9, 3001, Note_on_c, 6, 60, 84
9, 3017, Note_on_c, 6, 65, 0
9, 3018, Note_on_c, 6, 60, 0
9, 3180, Note_on_c, 6, 65, 84
9, 3181, Note_on_c, 6, 60, 84
9, 3197, Note_on_c, 6, 65, 0
9, 3198, Note_on_c, 6, 60, 0
9, 3480, Note_on_c, 6, 60, 84
9, 3480, Note_on_c, 6, 65, 84
9, 3497, Note_on_c, 6, 60, 0
9, 3497, Note_on_c, 6, 65, 0
9, 3660, Note_on_c, 6, 65, 84
9, 3677, Note_on_c, 6, 65, 0
9, 3959, Note_on_c, 6, 69, 84
9, 3960, Note_on_c, 6, 65, 84
9, 3961, Note_on_c, 6, 60, 84
9, 3976, Note_on_c, 6, 69, 0
9, 3977, Note_on_c, 6, 65, 0
9, 3978, Note_on_c, 6, 60, 0
9, 4139, Note_on_c, 6, 69, 84
9, 4140, Note_on_c, 6, 65, 84
9, 4141, Note_on_c, 6, 60, 84
9, 4156, Note_on_c, 6, 69, 0
9, 4157, Note_on_c, 6, 65, 0
9, 4158, Note_on_c, 6, 60, 0
9, 4440, Note_on_c, 6, 60, 84
9, 4440, Note_on_c, 6, 65, 84
9, 4440, Note_on_c, 6, 69, 84
9, 4457, Note_on_c, 6, 60, 0
9, 4457, Note_on_c, 6, 65, 0
9, 4457, Note_on_c, 6, 69, 0
9, 4620, Note_on_c, 6, 65, 84
9, 4621, Note_on_c, 6, 69, 84
9, 4637, Note_on_c, 6, 65, 0
9, 4638, Note_on_c, 6, 69, 0
9, 4922, Note_on_c, 6, 64, 84
9, 4922, Note_on_c, 6, 67, 84
9, 4922, Note_on_c, 6, 72, 84
9, 4939, Note_on_c, 6, 64, 0
9, 4939, Note_on_c, 6, 67, 0
9, 4939, Note_on_c, 6, 72, 0
9, 5101, Note_on_c, 6, 72, 84
9, 5102, Note_on_c, 6, 67, 84
9, 5103, Note_on_c, 6, 64, 84
9, 5118, Note_on_c, 6, 72, 0
9, 5119, Note_on_c, 6, 67, 0
9, 5120, Note_on_c, 6, 64, 0
9, 5402, Note_on_c, 6, 60, 84
9, 5402, Note_on_c, 6, 65, 84
9, 5419, Note_on_c, 6, 60, 0
9, 5419, Note_on_c, 6, 65, 0
9, 5582, Note_on_c, 6, 65, 84
9, 5583, Note_on_c, 6, 60, 84
9, 5599, Note_on_c, 6, 65, 0
9, 5600, Note_on_c, 6, 60, 0
9, 5879, Note_on_c, 6, 69, 84
9, 5880, Note_on_c, 6, 65, 84
9, 5881, Note_on_c, 6, 60, 84
9, 5896, Note_on_c, 6, 69, 0
9, 5897, Note_on_c, 6, 65, 0
9, 5898, Note_on_c, 6, 60, 0
9, 6059, Note_on_c, 6, 69, 84
9, 6060, Note_on_c, 6, 65, 84
9, 6061, Note_on_c, 6, 60, 84
9, 6076, Note_on_c, 6, 69, 0
9, 6077, Note_on_c, 6, 65, 0
9, 6078, Note_on_c, 6, 60, 0
9, 6360, Note_on_c, 6, 60, 84
9, 6360, Note_on_c, 6, 65, 84
9, 6360, Note_on_c, 6, 69, 84
9, 6377, Note_on_c, 6, 60, 0
9, 6377, Note_on_c, 6, 65, 0
9, 6377, Note_on_c, 6, 69, 0
9, 6540, Note_on_c, 6, 65, 84
9, 6541, Note_on_c, 6, 69, 84
9, 6557, Note_on_c, 6, 65, 0
9, 6558, Note_on_c, 6, 69, 0
9, 6721, Note_on_c, 6, 41, 96
9, 6722, Note_on_c, 6, 48, 90
9, 6756, Note_on_c, 6, 41, 0
9, 6757, Note_on_c, 6, 48, 0
9, 7201, Note_on_c, 6, 41, 96
9, 7202, Note_on_c, 6, 48, 90
9, 7236, Note_on_c, 6, 41, 0
9, 7237, Note_on_c, 6, 48, 0
9, 7681, Note_on_c, 6, 41, 96
9, 7682, Note_on_c, 6, 48, 90
9, 7716, Note_on_c, 6, 41, 0
9, 7717, Note_on_c, 6, 48, 0
9, 8161, Note_on_c, 6, 41, 96
9, 8162, Note_on_c, 6, 48, 90
9, 8196, Note_on_c, 6, 41, 0
9, 8197, Note_on_c, 6, 48, 0
9, 8760, Note_on_c, 6, 65, 84
9, 8761, Note_on_c, 6, 62, 84
9, 8777, Note_on_c, 6, 65, 0
9, 8778, Note_on_c, 6, 62, 0
9, 8940, Note_on_c, 6, 65, 84
9, 8941, Note_on_c, 6, 62, 84
9, 8957, Note_on_c, 6, 65, 0
9, 8958, Note_on_c, 6, 62, 0
9, 9240, Note_on_c, 6, 62, 84
9, 9240, Note_on_c, 6, 65, 84
9, 9257, Note_on_c, 6, 62, 0
9, 9257, Note_on_c, 6, 65, 0
9, 9420, Note_on_c, 6, 65, 84
9, 9437, Note_on_c, 6, 65, 0
9, 9720, Note_on_c, 6, 69, 84
9, 9721, Note_on_c, 6, 65, 84
9, 9722, Note_on_c, 6, 60, 84
9, 9737, Note_on_c, 6, 69, 0
9, 9738, Note_on_c, 6, 65, 0
9, 9739, Note_on_c, 6, 60, 0
9, 9900, Note_on_c, 6, 69, 84
9, 9901, Note_on_c, 6, 65, 84
9, 9902, Note_on_c, 6, 60, 84
9, 9917, Note_on_c, 6, 69, 0
9, 9918, Note_on_c, 6, 65, 0
9, 9919, Note_on_c, 6, 60, 0
9, 10201, Note_on_c, 6, 60, 84
9, 10201, Note_on_c, 6, 65, 84
9, 10201, Note_on_c, 6, 69, 84
9, 10218, Note_on_c, 6, 60, 0
9, 10218, Note_on_c, 6, 65, 0
9, 10218, Note_on_c, 6, 69, 0
9, 10381, Note_on_c, 6, 65, 84
9, 10382, Note_on_c, 6, 69, 84
9, 10398, Note_on_c, 6, 65, 0
9, 10399, Note_on_c, 6, 69, 0
9, 10680, Note_on_c, 6, 72, 84
9, 10681, Note_on_c, 6, 67, 84
9, 10682, Note_on_c, 6, 64, 84
9, 10697, Note_on_c, 6, 72, 0
9, 10698, Note_on_c, 6, 67, 0
9, 10699, Note_on_c, 6, 64, 0
9, 10860, Note_on_c, 6, 72, 84
9, 10861, Note_on_c, 6, 67, 84
9, 10862, Note_on_c, 6, 64, 84
9, 10877, Note_on_c, 6, 72, 0
9, 10878, Note_on_c, 6, 67, 0
9, 10879, Note_on_c, 6, 64, 0
9, 11160, Note_on_c, 6, 65, 84
9, 11161, Note_on_c, 6, 60, 84
9, 11177, Note_on_c, 6, 65, 0
9, 11178, Note_on_c, 6, 60, 0
9, 11340, Note_on_c, 6, 65, 84
9, 11341, Note_on_c, 6, 60, 84
9, 11357, Note_on_c, 6, 65, 0
9, 11358, Note_on_c, 6, 60, 0
9, 11642, Note_on_c, 6, 60, 84
9, 11642, Note_on_c, 6, 65, 84
9, 11642, Note_on_c, 6, 69, 84
9, 11659, Note_on_c, 6, 60, 0
9, 11659, Note_on_c, 6, 65, 0
9, 11659, Note_on_c, 6, 69, 0
9, 11821, Note_on_c, 6, 69, 84
9, 11822, Note_on_c, 6, 65, 84
9, 11823, Note_on_c, 6, 60, 84
9, 11838, Note_on_c, 6, 69, 0
9, 11839, Note_on_c, 6, 65, 0
9, 11840, Note_on_c, 6, 60, 0
9, 12122, Note_on_c, 6, 60, 84
9, 12122, Note_on_c, 6, 65, 84
9, 12122, Note_on_c, 6, 69, 84
9, 12139, Note_on_c, 6, 60, 0
9, 12139, Note_on_c, 6, 65, 0
9, 12139, Note_on_c, 6, 69, 0
9, 12302, Note_on_c, 6, 65, 84
9, 12303, Note_on_c, 6, 69, 84
9, 12319, Note_on_c, 6, 65, 0
9, 12320, Note_on_c, 6, 69, 0
9, 12481, Note_on_c, 6, 41, 96
9, 12482, Note_on_c, 6, 48, 90
9, 12516, Note_on_c, 6, 41, 0
9, 12517, Note_on_c, 6, 48, 0
9, 12961, Note_on_c, 6, 41, 96
9, 12962, Note_on_c, 6, 48, 90
9, 12996, Note_on_c, 6, 41, 0
9, 12997, Note_on_c, 6, 48, 0
9, 13441, Note_on_c, 6, 41, 96
9, 13442, Note_on_c, 6, 48, 90
9, 13476, Note_on_c, 6, 41, 0
9, 13477, Note_on_c, 6, 48, 0
9, 13921, Note_on_c, 6, 41, 96
9, 13922, Note_on_c, 6, 48, 90
9, 13956, Note_on_c, 6, 41, 0
9, 13957, Note_on_c, 6, 48, 0
9, 14521, Note_on_c, 6, 65, 84
9, 14522, Note_on_c, 6, 60, 84
9, 14538, Note_on_c, 6, 65, 0
9, 14539, Note_on_c, 6, 60, 0
9, 14701, Note_on_c, 6, 65, 84
9, 14702, Note_on_c, 6, 60, 84
9, 14718, Note_on_c, 6, 65, 0
9, 14719, Note_on_c, 6, 60, 0
9, 15001, Note_on_c, 6, 60, 84
9, 15001, Note_on_c, 6, 65, 84
9, 15018, Note_on_c, 6, 60, 0
9, 15018, Note_on_c, 6, 65, 0
9, 15181, Note_on_c, 6, 65, 84
9, 15198, Note_on_c, 6, 65, 0
9, 15480, Note_on_c, 6, 69, 84
9, 15481, Note_on_c, 6, 65, 84
9, 15482, Note_on_c, 6, 60, 84
9, 15497, Note_on_c, 6, 69, 0
9, 15498, Note_on_c, 6, 65, 0
9, 15499, Note_on_c, 6, 60, 0
9, 15660, Note_on_c, 6, 69, 84
9, 15661, Note_on_c, 6, 65, 84
9, 15662, Note_on_c, 6, 60, 84
9, 15677, Note_on_c, 6, 69, 0
9, 15678, Note_on_c, 6, 65, 0
9, 15679, Note_on_c, 6, 60, 0
9, 15961, Note_on_c, 6, 60, 84
9, 15961, Note_on_c, 6, 65, 84
9, 15961, Note_on_c, 6, 69, 84
9, 15978, Note_on_c, 6, 60, 0
9, 15978, Note_on_c, 6, 65, 0
9, 15978, Note_on_c, 6, 69, 0
9, 16141, Note_on_c, 6, 65, 84
9, 16142, Note_on_c, 6, 69, 84
9, 16158, Note_on_c, 6, 65, 0
9, 16159, Note_on_c, 6, 69, 0
9, 16441, Note_on_c, 6, 64, 84
9, 16442, Note_on_c, 6, 60, 84
9, 16458, Note_on_c, 6, 64, 0
9, 16459, Note_on_c, 6, 60, 0
9, 16621, Note_on_c, 6, 64, 84
9, 16622, Note_on_c, 6, 60, 84
9, 16638, Note_on_c, 6, 64, 0
9, 16639, Note_on_c, 6, 60, 0
9, 16920, Note_on_c, 6, 65, 84
9, 16921, Note_on_c, 6, 60, 84
9, 16937, Note_on_c, 6, 65, 0
9, 16938, Note_on_c, 6, 60, 0
9, 17100, Note_on_c, 6, 65, 84
9, 17101, Note_on_c, 6, 60, 84
9, 17117, Note_on_c, 6, 65, 0
9, 17118, Note_on_c, 6, 60, 0
9, 17402, Note_on_c, 6, 60, 84
9, 17402, Note_on_c, 6, 65, 84
9, 17402, Note_on_c, 6, 69, 84
9, 17419, Note_on_c, 6, 60, 0
9, 17419, Note_on_c, 6, 65, 0
9, 17419, Note_on_c, 6, 69, 0
9, 17581, Note_on_c, 6, 69, 84
9, 17582, Note_on_c, 6, 65, 84
9, 17583, Note_on_c, 6, 60, 84
9, 17598, Note_on_c, 6, 69, 0
9, 17599, Note_on_c, 6, 65, 0
9, 17600, Note_on_c, 6, 60, 0
9, 17882, Note_on_c, 6, 60, 84
9, 17882, Note_on_c, 6, 65, 84
9, 17882, Note_on_c, 6, 69, 84
9, 17899, Note_on_c, 6, 60, 0
9, 17899, Note_on_c, 6, 65, 0
9, 17899, Note_on_c, 6, 69, 0
9, 18062, Note_on_c, 6, 65, 84
9, 18063, Note_on_c, 6, 69, 84
9, 18079, Note_on_c, 6, 65, 0
9, 18080, Note_on_c, 6, 69, 0
9, 18241, Note_on_c, 6, 41, 86
9, 18242, Note_on_c, 6, 48, 80
9, 18297, Note_on_c, 6, 41, 0
9, 18298, Note_on_c, 6, 48, 0
9, 18300, Note_on_c, 6, 41, 67
9, 18302, Note_on_c, 6, 48, 57
9, 18330, Note_on_c, 6, 48, 0
9, 18334, Note_on_c, 6, 41, 0
9, 18361, Note_on_c, 6, 41, 73
9, 18362, Note_on_c, 6, 50, 76
9, 18414, Note_on_c, 6, 50, 0
9, 18417, Note_on_c, 6, 41, 0
9, 18421, Note_on_c, 6, 41, 53
9, 18422, Note_on_c, 6, 50, 54
9, 18444, Note_on_c, 6, 50, 0
9, 18447, Note_on_c, 6, 41, 0
9, 18481, Note_on_c, 6, 41, 87
9, 18481, Note_on_c, 6, 48, 79
9, 18531, Note_on_c, 6, 48, 0
9, 18535, Note_on_c, 6, 41, 0
9, 18541, Note_on_c, 6, 41, 57
9, 18541, Note_on_c, 6, 48, 57
9, 18570, Note_on_c, 6, 48, 0
9, 18598, Note_on_c, 6, 41, 0
9, 18600, Note_on_c, 6, 65, 71
9, 18601, Note_on_c, 6, 60, 65
9, 18602, Note_on_c, 6, 57, 67
9, 18618, Note_on_c, 6, 65, 0
9, 18619, Note_on_c, 6, 60, 0
9, 18621, Note_on_c, 6, 57, 0
9, 18661, Note_on_c, 6, 41, 86
9, 18662, Note_on_c, 6, 48, 80
9, 18775, Note_on_c, 6, 41, 0
9, 18776, Note_on_c, 6, 48, 0
9, 18780, Note_on_c, 6, 41, 67
9, 18782, Note_on_c, 6, 48, 57
9, 18810, Note_on_c, 6, 48, 0
9, 18814, Note_on_c, 6, 41, 0
9, 18841, Note_on_c, 6, 41, 73
9, 18842, Note_on_c, 6, 50, 76
9, 18894, Note_on_c, 6, 50, 0
9, 18897, Note_on_c, 6, 41, 0
9, 18901, Note_on_c, 6, 41, 53
9, 18902, Note_on_c, 6, 50, 54
9, 18924, Note_on_c, 6, 50, 0
9, 18927, Note_on_c, 6, 41, 0
9, 18961, Note_on_c, 6, 41, 87
9, 18961, Note_on_c, 6, 48, 79
9, 19011, Note_on_c, 6, 48, 0
9, 19015, Note_on_c, 6, 41, 0
9, 19021, Note_on_c, 6, 41, 57
9, 19021, Note_on_c, 6, 48, 57
9, 19050, Note_on_c, 6, 48, 0
9, 19078, Note_on_c, 6, 41, 0
9, 19080, Note_on_c, 6, 65, 71
9, 19081, Note_on_c, 6, 60, 65
9, 19082, Note_on_c, 6, 57, 67
9, 19098, Note_on_c, 6, 65, 0
9, 19099, Note_on_c, 6, 60, 0
9, 19101, Note_on_c, 6, 57, 0
9, 19140, Note_on_c, 6, 48, 67
9, 19141, Note_on_c, 6, 41, 37
9, 19166, Note_on_c, 6, 48, 0
9, 19167, Note_on_c, 6, 41, 0
9, 19201, Note_on_c, 6, 41, 86
9, 19202, Note_on_c, 6, 48, 80
9, 19257, Note_on_c, 6, 41, 0
9, 19258, Note_on_c, 6, 48, 0
9, 19260, Note_on_c, 6, 41, 67
9, 19262, Note_on_c, 6, 48, 57
9, 19290, Note_on_c, 6, 48, 0
9, 19318, Note_on_c, 6, 41, 0
9, 19320, Note_on_c, 6, 48, 76
9, 19321, Note_on_c, 6, 41, 73
9, 19377, Note_on_c, 6, 41, 0
9, 19379, Note_on_c, 6, 48, 0
9, 19381, Note_on_c, 6, 41, 53
9, 19382, Note_on_c, 6, 48, 54
9, 19404, Note_on_c, 6, 48, 0
9, 19407, Note_on_c, 6, 41, 0
9, 19441, Note_on_c, 6, 41, 87
9, 19441, Note_on_c, 6, 48, 79
9, 19491, Note_on_c, 6, 48, 0
9, 19495, Note_on_c, 6, 41, 0
9, 19501, Note_on_c, 6, 41, 57
9, 19501, Note_on_c, 6, 48, 57
9, 19530, Note_on_c, 6, 48, 0
9, 19558, Note_on_c, 6, 41, 0
9, 19560, Note_on_c, 6, 65, 103
9, 19561, Note_on_c, 6, 60, 87
9, 19562, Note_on_c, 6, 57, 64
9, 19579, Note_on_c, 6, 65, 0
9, 19584, Note_on_c, 6, 57, 0
9, 19588, Note_on_c, 6, 60, 0
9, 19621, Note_on_c, 6, 48, 94
9, 19621, Note_on_c, 6, 41, 80
9, 19719, Note_on_c, 6, 41, 0
9, 19724, Note_on_c, 6, 48, 0
9, 19741, Note_on_c, 6, 41, 58
9, 19741, Note_on_c, 6, 48, 69
9, 19756, Note_on_c, 6, 48, 0
9, 19763, Note_on_c, 6, 41, 0
9, 19801, Note_on_c, 6, 48, 90
9, 19801, Note_on_c, 6, 41, 69
9, 19851, Note_on_c, 6, 41, 0
9, 19858, Note_on_c, 6, 48, 0
9, 19860, Note_on_c, 6, 48, 64
9, 19861, Note_on_c, 6, 41, 54
9, 19884, Note_on_c, 6, 41, 0
9, 19919, Note_on_c, 6, 48, 0
9, 19921, Note_on_c, 6, 41, 64
9, 19921, Note_on_c, 6, 48, 87
9, 19972, Note_on_c, 6, 48, 0
9, 19980, Note_on_c, 6, 41, 0
9, 19981, Note_on_c, 6, 48, 69
9, 19981, Note_on_c, 6, 41, 44
9, 20010, Note_on_c, 6, 41, 0
9, 20038, Note_on_c, 6, 48, 0
9, 20041, Note_on_c, 6, 60, 101
9, 20041, Note_on_c, 6, 65, 85
9, 20042, Note_on_c, 6, 57, 67
9, 20056, Note_on_c, 6, 65, 0
9, 20059, Note_on_c, 6, 60, 0
9, 20060, Note_on_c, 6, 57, 0
9, 20100, Note_on_c, 6, 48, 50
9, 20101, Note_on_c, 6, 41, 76
9, 20121, Note_on_c, 6, 41, 0
9, 20131, Note_on_c, 6, 48, 0
9, 20161, Note_on_c, 6, 46, 86
9, 20162, Note_on_c, 6, 53, 80
9, 20217, Note_on_c, 6, 46, 0
9, 20218, Note_on_c, 6, 53, 0
9, 20220, Note_on_c, 6, 46, 67
9, 20222, Note_on_c, 6, 53, 57
9, 20250, Note_on_c, 6, 53, 0
9, 20254, Note_on_c, 6, 46, 0
9, 20281, Note_on_c, 6, 46, 73
9, 20282, Note_on_c, 6, 55, 76
9, 20334, Note_on_c, 6, 55, 0
9, 20337, Note_on_c, 6, 46, 0
9, 20341, Note_on_c, 6, 46, 53
9, 20342, Note_on_c, 6, 55, 54
9, 20364, Note_on_c, 6, 55, 0
9, 20367, Note_on_c, 6, 46, 0
9, 20401, Note_on_c, 6, 46, 87
9, 20401, Note_on_c, 6, 53, 79
9, 20451, Note_on_c, 6, 53, 0
9, 20455, Note_on_c, 6, 46, 0
9, 20461, Note_on_c, 6, 46, 57
9, 20461, Note_on_c, 6, 53, 57
9, 20489, Note_on_c, 6, 46, 0
9, 20490, Note_on_c, 6, 53, 0
9, 20521, Note_on_c, 6, 46, 65
9, 20521, Note_on_c, 6, 55, 71
9, 20540, Note_on_c, 6, 55, 0
9, 20543, Note_on_c, 6, 46, 0
9, 20581, Note_on_c, 6, 53, 94
9, 20581, Note_on_c, 6, 46, 80
9, 20679, Note_on_c, 6, 46, 0
9, 20684, Note_on_c, 6, 53, 0
9, 20701, Note_on_c, 6, 46, 58
9, 20701, Note_on_c, 6, 53, 69
9, 20716, Note_on_c, 6, 53, 0
9, 20723, Note_on_c, 6, 46, 0
9, 20761, Note_on_c, 6, 46, 69
9, 20761, Note_on_c, 6, 55, 90
9, 20811, Note_on_c, 6, 46, 0
9, 20811, Note_on_c, 6, 55, 0
9, 20821, Note_on_c, 6, 55, 64
9, 20821, Note_on_c, 6, 46, 54
9, 20844, Note_on_c, 6, 46, 0
9, 20855, Note_on_c, 6, 55, 0
9, 20881, Note_on_c, 6, 46, 64
9, 20881, Note_on_c, 6, 53, 87
9, 20932, Note_on_c, 6, 53, 0
9, 20940, Note_on_c, 6, 46, 0
9, 20941, Note_on_c, 6, 53, 69
9, 20941, Note_on_c, 6, 46, 44
9, 20970, Note_on_c, 6, 53, 0
9, 20970, Note_on_c, 6, 46, 0
9, 21001, Note_on_c, 6, 46, 69
9, 21001, Note_on_c, 6, 55, 101
9, 21043, Note_on_c, 6, 46, 0
9, 21050, Note_on_c, 6, 55, 0
9, 21061, Note_on_c, 6, 55, 73
9, 21061, Note_on_c, 6, 46, 76
9, 21087, Note_on_c, 6, 55, 0
9, 21087, Note_on_c, 6, 46, 0
9, 21121, Note_on_c, 6, 41, 86
9, 21122, Note_on_c, 6, 48, 80
9, 21177, Note_on_c, 6, 41, 0
9, 21178, Note_on_c, 6, 48, 0
9, 21180, Note_on_c, 6, 41, 67
9, 21182, Note_on_c, 6, 48, 57
9, 21210, Note_on_c, 6, 48, 0
9, 21238, Note_on_c, 6, 41, 0
9, 21240, Note_on_c, 6, 50, 76
9, 21241, Note_on_c, 6, 41, 73
9, 21297, Note_on_c, 6, 41, 0
9, 21299, Note_on_c, 6, 50, 0
9, 21301, Note_on_c, 6, 41, 53
9, 21302, Note_on_c, 6, 50, 54
9, 21324, Note_on_c, 6, 50, 0
9, 21327, Note_on_c, 6, 41, 0
9, 21361, Note_on_c, 6, 41, 87
9, 21361, Note_on_c, 6, 48, 79
9, 21411, Note_on_c, 6, 48, 0
9, 21415, Note_on_c, 6, 41, 0
9, 21421, Note_on_c, 6, 41, 57
9, 21421, Note_on_c, 6, 48, 57
9, 21450, Note_on_c, 6, 48, 0
9, 21478, Note_on_c, 6, 41, 0
9, 21480, Note_on_c, 6, 65, 103
9, 21481, Note_on_c, 6, 60, 87
9, 21482, Note_on_c, 6, 57, 64
9, 21499, Note_on_c, 6, 65, 0
9, 21504, Note_on_c, 6, 57, 0
9, 21508, Note_on_c, 6, 60, 0
9, 21541, Note_on_c, 6, 48, 94
9, 21541, Note_on_c, 6, 41, 80
9, 21639, Note_on_c, 6, 41, 0
9, 21644, Note_on_c, 6, 48, 0
9, 21661, Note_on_c, 6, 41, 58
9, 21661, Note_on_c, 6, 48, 69
9, 21676, Note_on_c, 6, 48, 0
9, 21683, Note_on_c, 6, 41, 0
9, 21721, Note_on_c, 6, 50, 90
9, 21721, Note_on_c, 6, 41, 69
9, 21771, Note_on_c, 6, 41, 0
9, 21778, Note_on_c, 6, 50, 0
9, 21780, Note_on_c, 6, 50, 64
9, 21781, Note_on_c, 6, 41, 54
9, 21804, Note_on_c, 6, 41, 0
9, 21839, Note_on_c, 6, 50, 0
9, 21841, Note_on_c, 6, 41, 64
9, 21841, Note_on_c, 6, 48, 87
9, 21892, Note_on_c, 6, 48, 0
9, 21900, Note_on_c, 6, 41, 0
9, 21901, Note_on_c, 6, 48, 69
9, 21901, Note_on_c, 6, 41, 44
9, 21930, Note_on_c, 6, 41, 0
9, 21958, Note_on_c, 6, 48, 0
9, 21961, Note_on_c, 6, 60, 101
9, 21961, Note_on_c, 6, 65, 85
9, 21962, Note_on_c, 6, 57, 67
9, 21976, Note_on_c, 6, 65, 0
9, 21980, Note_on_c, 6, 60, 0
9, 21980, Note_on_c, 6, 57, 0
9, 22020, Note_on_c, 6, 48, 50
9, 22021, Note_on_c, 6, 41, 76
9, 22041, Note_on_c, 6, 41, 0
9, 22051, Note_on_c, 6, 48, 0
9, 22081, Note_on_c, 6, 48, 86
9, 22082, Note_on_c, 6, 55, 80
9, 22137, Note_on_c, 6, 48, 0
9, 22138, Note_on_c, 6, 55, 0
9, 22140, Note_on_c, 6, 48, 67
9, 22142, Note_on_c, 6, 55, 57
9, 22170, Note_on_c, 6, 55, 0
9, 22174, Note_on_c, 6, 48, 0
9, 22201, Note_on_c, 6, 48, 73
9, 22202, Note_on_c, 6, 57, 76
9, 22254, Note_on_c, 6, 57, 0
9, 22257, Note_on_c, 6, 48, 0
9, 22261, Note_on_c, 6, 48, 53
9, 22262, Note_on_c, 6, 57, 54
9, 22284, Note_on_c, 6, 57, 0
9, 22287, Note_on_c, 6, 48, 0
9, 22321, Note_on_c, 6, 58, 79
9, 22321, Note_on_c, 6, 48, 87
9, 22371, Note_on_c, 6, 58, 0
9, 22375, Note_on_c, 6, 48, 0
9, 22381, Note_on_c, 6, 58, 57
9, 22381, Note_on_c, 6, 48, 57
9, 22409, Note_on_c, 6, 48, 0
9, 22410, Note_on_c, 6, 58, 0
9, 22441, Note_on_c, 6, 48, 65
9, 22441, Note_on_c, 6, 57, 71
9, 22460, Note_on_c, 6, 57, 0
9, 22463, Note_on_c, 6, 48, 0
9, 22501, Note_on_c, 6, 46, 74
9, 22502, Note_on_c, 6, 53, 93
9, 22615, Note_on_c, 6, 46, 0
9, 22616, Note_on_c, 6, 53, 0
9, 22620, Note_on_c, 6, 46, 67
9, 22622, Note_on_c, 6, 53, 57
9, 22650, Note_on_c, 6, 53, 0
9, 22678, Note_on_c, 6, 46, 0
9, 22680, Note_on_c, 6, 53, 76
9, 22681, Note_on_c, 6, 46, 73
9, 22737, Note_on_c, 6, 46, 0
9, 22739, Note_on_c, 6, 53, 0
9, 22741, Note_on_c, 6, 46, 53
9, 22742, Note_on_c, 6, 53, 54
9, 22764, Note_on_c, 6, 53, 0
9, 22767, Note_on_c, 6, 46, 0
9, 22801, Note_on_c, 6, 46, 87
9, 22801, Note_on_c, 6, 53, 79
9, 22851, Note_on_c, 6, 53, 0
9, 22855, Note_on_c, 6, 46, 0
9, 22861, Note_on_c, 6, 46, 57
9, 22861, Note_on_c, 6, 53, 57
9, 22890, Note_on_c, 6, 53, 0
9, 22918, Note_on_c, 6, 46, 0
9, 22920, Note_on_c, 6, 72, 103
9, 22921, Note_on_c, 6, 65, 87
9, 22922, Note_on_c, 6, 62, 64
9, 22939, Note_on_c, 6, 72, 0
9, 22944, Note_on_c, 6, 62, 0
9, 22948, Note_on_c, 6, 65, 0
9, 22981, Note_on_c, 6, 53, 48
9, 22981, Note_on_c, 6, 46, 56
9, 23011, Note_on_c, 6, 53, 0
9, 23019, Note_on_c, 6, 46, 0
9, 23041, Note_on_c, 6, 41, 86
9, 23042, Note_on_c, 6, 48, 80
9, 23097, Note_on_c, 6, 41, 0
9, 23098, Note_on_c, 6, 48, 0
9, 23100, Note_on_c, 6, 41, 67
9, 23102, Note_on_c, 6, 48, 57
9, 23130, Note_on_c, 6, 48, 0
9, 23158, Note_on_c, 6, 41, 0
9, 23160, Note_on_c, 6, 50, 76
9, 23161, Note_on_c, 6, 41, 73
9, 23217, Note_on_c, 6, 41, 0
9, 23219, Note_on_c, 6, 50, 0
9, 23221, Note_on_c, 6, 41, 53
9, 23222, Note_on_c, 6, 50, 54
9, 23244, Note_on_c, 6, 50, 0
9, 23247, Note_on_c, 6, 41, 0
9, 23281, Note_on_c, 6, 41, 87
9, 23281, Note_on_c, 6, 48, 79
9, 23331, Note_on_c, 6, 48, 0
9, 23335, Note_on_c, 6, 41, 0
9, 23341, Note_on_c, 6, 41, 57
9, 23341, Note_on_c, 6, 48, 57
9, 23370, Note_on_c, 6, 48, 0
9, 23398, Note_on_c, 6, 41, 0
9, 23400, Note_on_c, 6, 65, 103
9, 23401, Note_on_c, 6, 60, 87
9, 23402, Note_on_c, 6, 57, 64
9, 23419, Note_on_c, 6, 65, 0
9, 23424, Note_on_c, 6, 57, 0
9, 23428, Note_on_c, 6, 60, 0
9, 23461, Note_on_c, 6, 48, 94
9, 23461, Note_on_c, 6, 41, 80
9, 23559, Note_on_c, 6, 41, 0
9, 23564, Note_on_c, 6, 48, 0
9, 23581, Note_on_c, 6, 41, 58
9, 23581, Note_on_c, 6, 48, 69
9, 23596, Note_on_c, 6, 48, 0
9, 23603, Note_on_c, 6, 41, 0
9, 23641, Note_on_c, 6, 50, 90
9, 23641, Note_on_c, 6, 41, 69
9, 23691, Note_on_c, 6, 41, 0
9, 23698, Note_on_c, 6, 50, 0
9, 23700, Note_on_c, 6, 50, 64
9, 23701, Note_on_c, 6, 41, 54
9, 23724, Note_on_c, 6, 41, 0
9, 23759, Note_on_c, 6, 50, 0
9, 23761, Note_on_c, 6, 41, 64
9, 23761, Note_on_c, 6, 48, 87
9, 23812, Note_on_c, 6, 48, 0
9, 23820, Note_on_c, 6, 41, 0
9, 23821, Note_on_c, 6, 48, 69
9, 23821, Note_on_c, 6, 41, 44
9, 23850, Note_on_c, 6, 41, 0
9, 23878, Note_on_c, 6, 48, 0
9, 23881, Note_on_c, 6, 60, 101
9, 23881, Note_on_c, 6, 65, 85
9, 23882, Note_on_c, 6, 57, 67
9, 23896, Note_on_c, 6, 65, 0
9, 23900, Note_on_c, 6, 60, 0
9, 23900, Note_on_c, 6, 57, 0
9, 23940, Note_on_c, 6, 48, 50
9, 23941, Note_on_c, 6, 41, 76
9, 23961, Note_on_c, 6, 41, 0
9, 23971, Note_on_c, 6, 48, 0
9, 24001, Note_on_c, 6, 41, 86
9, 24002, Note_on_c, 6, 48, 80
9, 24057, Note_on_c, 6, 41, 0
9, 24058, Note_on_c, 6, 48, 0
9, 24060, Note_on_c, 6, 41, 67
9, 24062, Note_on_c, 6, 48, 57
9, 24090, Note_on_c, 6, 48, 0
9, 24094, Note_on_c, 6, 41, 0
9, 24121, Note_on_c, 6, 41, 73
9, 24122, Note_on_c, 6, 50, 76
9, 24174, Note_on_c, 6, 50, 0
9, 24177, Note_on_c, 6, 41, 0
9, 24181, Note_on_c, 6, 41, 53
9, 24182, Note_on_c, 6, 50, 54
9, 24204, Note_on_c, 6, 50, 0
9, 24207, Note_on_c, 6, 41, 0
9, 24241, Note_on_c, 6, 41, 87
9, 24241, Note_on_c, 6, 48, 79
9, 24291, Note_on_c, 6, 48, 0
9, 24295, Note_on_c, 6, 41, 0
9, 24301, Note_on_c, 6, 41, 57
9, 24301, Note_on_c, 6, 48, 57
9, 24330, Note_on_c, 6, 48, 0
9, 24358, Note_on_c, 6, 41, 0
9, 24360, Note_on_c, 6, 57, 67
9, 24361, Note_on_c, 6, 65, 71
9, 24361, Note_on_c, 6, 60, 65
9, 24372, Note_on_c, 6, 57, 0
9, 24376, Note_on_c, 6, 60, 0
9, 24380, Note_on_c, 6, 65, 0
9, 24421, Note_on_c, 6, 48, 94
9, 24421, Note_on_c, 6, 41, 80
9, 24519, Note_on_c, 6, 41, 0
9, 24524, Note_on_c, 6, 48, 0
9, 24541, Note_on_c, 6, 41, 58
9, 24541, Note_on_c, 6, 48, 69
9, 24556, Note_on_c, 6, 48, 0
9, 24563, Note_on_c, 6, 41, 0
9, 24601, Note_on_c, 6, 41, 69
9, 24601, Note_on_c, 6, 50, 90
9, 24651, Note_on_c, 6, 41, 0
9, 24651, Note_on_c, 6, 50, 0
9, 24661, Note_on_c, 6, 50, 64
9, 24661, Note_on_c, 6, 41, 54
9, 24684, Note_on_c, 6, 41, 0
9, 24695, Note_on_c, 6, 50, 0
9, 24721, Note_on_c, 6, 41, 64
9, 24721, Note_on_c, 6, 48, 87
9, 24772, Note_on_c, 6, 48, 0
9, 24780, Note_on_c, 6, 41, 0
9, 24781, Note_on_c, 6, 48, 69
9, 24781, Note_on_c, 6, 41, 44
9, 24810, Note_on_c, 6, 48, 0
9, 24810, Note_on_c, 6, 41, 0
9, 24841, Note_on_c, 6, 41, 69
9, 24841, Note_on_c, 6, 50, 101
9, 24883, Note_on_c, 6, 41, 0
9, 24890, Note_on_c, 6, 50, 0
9, 24901, Note_on_c, 6, 50, 73
9, 24901, Note_on_c, 6, 41, 76
9, 24927, Note_on_c, 6, 50, 0
9, 24927, Note_on_c, 6, 41, 0
9, 24961, Note_on_c, 6, 41, 86
9, 24962, Note_on_c, 6, 48, 80
9, 25017, Note_on_c, 6, 41, 0
9, 25018, Note_on_c, 6, 48, 0
9, 25020, Note_on_c, 6, 41, 67
9, 25022, Note_on_c, 6, 48, 57
9, 25050, Note_on_c, 6, 48, 0
9, 25054, Note_on_c, 6, 41, 0
9, 25081, Note_on_c, 6, 41, 73
9, 25082, Note_on_c, 6, 50, 76
9, 25134, Note_on_c, 6, 50, 0
9, 25137, Note_on_c, 6, 41, 0
9, 25141, Note_on_c, 6, 41, 53
9, 25142, Note_on_c, 6, 50, 54
9, 25164, Note_on_c, 6, 50, 0
9, 25167, Note_on_c, 6, 41, 0
9, 25201, Note_on_c, 6, 41, 87
9, 25201, Note_on_c, 6, 48, 79
9, 25251, Note_on_c, 6, 48, 0
9, 25255, Note_on_c, 6, 41, 0
9, 25261, Note_on_c, 6, 41, 57
9, 25261, Note_on_c, 6, 48, 57
9, 25289, Note_on_c, 6, 41, 0
9, 25290, Note_on_c, 6, 48, 0
9, 25321, Note_on_c, 6, 41, 65
9, 25321, Note_on_c, 6, 50, 71
9, 25340, Note_on_c, 6, 50, 0
9, 25343, Note_on_c, 6, 41, 0
9, 25381, Note_on_c, 6, 41, 74
9, 25382, Note_on_c, 6, 48, 93
9, 25495, Note_on_c, 6, 41, 0
9, 25496, Note_on_c, 6, 48, 0
9, 25500, Note_on_c, 6, 41, 67
9, 25502, Note_on_c, 6, 48, 57
9, 25530, Note_on_c, 6, 48, 0
9, 25558, Note_on_c, 6, 41, 0
9, 25560, Note_on_c, 6, 48, 76
9, 25561, Note_on_c, 6, 41, 73
9, 25617, Note_on_c, 6, 41, 0
9, 25619, Note_on_c, 6, 48, 0
9, 25621, Note_on_c, 6, 41, 53
9, 25622, Note_on_c, 6, 48, 54
9, 25644, Note_on_c, 6, 48, 0
9, 25647, Note_on_c, 6, 41, 0
9, 25681, Note_on_c, 6, 41, 87
9, 25681, Note_on_c, 6, 48, 79
9, 25731, Note_on_c, 6, 48, 0
9, 25735, Note_on_c, 6, 41, 0
9, 25741, Note_on_c, 6, 41, 57
9, 25741, Note_on_c, 6, 48, 57
9, 25770, Note_on_c, 6, 48, 0
9, 25798, Note_on_c, 6, 41, 0
9, 25800, Note_on_c, 6, 65, 103
9, 25801, Note_on_c, 6, 60, 87
9, 25802, Note_on_c, 6, 57, 64
9, 25819, Note_on_c, 6, 65, 0
9, 25824, Note_on_c, 6, 57, 0
9, 25828, Note_on_c, 6, 60, 0
9, 25861, Note_on_c, 6, 48, 48
9, 25861, Note_on_c, 6, 41, 56
9, 25891, Note_on_c, 6, 48, 0
9, 25899, Note_on_c, 6, 41, 0
9, 25921, Note_on_c, 6, 46, 86
9, 25922, Note_on_c, 6, 53, 80
9, 25977, Note_on_c, 6, 46, 0
9, 25978, Note_on_c, 6, 53, 0
9, 25980, Note_on_c, 6, 46, 67
9, 25982, Note_on_c, 6, 53, 57
9, 26010, Note_on_c, 6, 53, 0
9, 26014, Note_on_c, 6, 46, 0
9, 26041, Note_on_c, 6, 46, 73
9, 26042, Note_on_c, 6, 55, 76
9, 26094, Note_on_c, 6, 55, 0
9, 26097, Note_on_c, 6, 46, 0
9, 26101, Note_on_c, 6, 46, 53
9, 26102, Note_on_c, 6, 55, 54
9, 26124, Note_on_c, 6, 55, 0
9, 26127, Note_on_c, 6, 46, 0
9, 26161, Note_on_c, 6, 46, 87
9, 26161, Note_on_c, 6, 53, 79
9, 26211, Note_on_c, 6, 53, 0
9, 26215, Note_on_c, 6, 46, 0
9, 26221, Note_on_c, 6, 46, 57
9, 26221, Note_on_c, 6, 53, 57
9, 26249, Note_on_c, 6, 46, 0
9, 26250, Note_on_c, 6, 53, 0
9, 26281, Note_on_c, 6, 46, 65
9, 26281, Note_on_c, 6, 55, 71
9, 26300, Note_on_c, 6, 55, 0
9, 26303, Note_on_c, 6, 46, 0
9, 26341, Note_on_c, 6, 53, 94
9, 26341, Note_on_c, 6, 46, 80
9, 26439, Note_on_c, 6, 46, 0
9, 26444, Note_on_c, 6, 53, 0
9, 26461, Note_on_c, 6, 46, 58
9, 26461, Note_on_c, 6, 53, 69
9, 26476, Note_on_c, 6, 53, 0
9, 26483, Note_on_c, 6, 46, 0
9, 26521, Note_on_c, 6, 46, 69
9, 26521, Note_on_c, 6, 55, 90
9, 26571, Note_on_c, 6, 46, 0
9, 26571, Note_on_c, 6, 55, 0
9, 26581, Note_on_c, 6, 55, 64
9, 26581, Note_on_c, 6, 46, 54
9, 26604, Note_on_c, 6, 46, 0
9, 26615, Note_on_c, 6, 55, 0
9, 26641, Note_on_c, 6, 46, 64
9, 26641, Note_on_c, 6, 53, 87
9, 26692, Note_on_c, 6, 53, 0
9, 26700, Note_on_c, 6, 46, 0
9, 26701, Note_on_c, 6, 53, 69
9, 26701, Note_on_c, 6, 46, 44
9, 26730, Note_on_c, 6, 53, 0
9, 26730, Note_on_c, 6, 46, 0
9, 26761, Note_on_c, 6, 46, 69
9, 26761, Note_on_c, 6, 55, 101
9, 26803, Note_on_c, 6, 46, 0
9, 26810, Note_on_c, 6, 55, 0
9, 26821, Note_on_c, 6, 55, 73
9, 26821, Note_on_c, 6, 46, 76
9, 26847, Note_on_c, 6, 55, 0
9, 26847, Note_on_c, 6, 46, 0
9, 26881, Note_on_c, 6, 41, 86
9, 26882, Note_on_c, 6, 48, 80
9, 26937, Note_on_c, 6, 41, 0
9, 26938, Note_on_c, 6, 48, 0
9, 26940, Note_on_c, 6, 41, 67
9, 26942, Note_on_c, 6, 48, 57
9, 26970, Note_on_c, 6, 48, 0
9, 26998, Note_on_c, 6, 41, 0
9, 27000, Note_on_c, 6, 48, 76
9, 27001, Note_on_c, 6, 41, 73
9, 27057, Note_on_c, 6, 41, 0
9, 27059, Note_on_c, 6, 48, 0
9, 27061, Note_on_c, 6, 41, 53
9, 27062, Note_on_c, 6, 48, 54
9, 27084, Note_on_c, 6, 48, 0
9, 27087, Note_on_c, 6, 41, 0
9, 27121, Note_on_c, 6, 41, 87
9, 27121, Note_on_c, 6, 48, 79
9, 27171, Note_on_c, 6, 48, 0
9, 27175, Note_on_c, 6, 41, 0
9, 27181, Note_on_c, 6, 41, 57
9, 27181, Note_on_c, 6, 48, 57
9, 27210, Note_on_c, 6, 48, 0
9, 27238, Note_on_c, 6, 41, 0
9, 27240, Note_on_c, 6, 65, 103
9, 27241, Note_on_c, 6, 60, 87
9, 27242, Note_on_c, 6, 57, 64
9, 27259, Note_on_c, 6, 65, 0
9, 27264, Note_on_c, 6, 57, 0
9, 27268, Note_on_c, 6, 60, 0
9, 27301, Note_on_c, 6, 48, 94
9, 27301, Note_on_c, 6, 41, 80
9, 27399, Note_on_c, 6, 41, 0
9, 27404, Note_on_c, 6, 48, 0
9, 27421, Note_on_c, 6, 41, 58
9, 27421, Note_on_c, 6, 48, 69
9, 27436, Note_on_c, 6, 48, 0
9, 27443, Note_on_c, 6, 41, 0
9, 27481, Note_on_c, 6, 48, 90
9, 27481, Note_on_c, 6, 41, 69
9, 27531, Note_on_c, 6, 41, 0
9, 27538, Note_on_c, 6, 48, 0
9, 27540, Note_on_c, 6, 48, 64
9, 27541, Note_on_c, 6, 41, 54
9, 27564, Note_on_c, 6, 41, 0
9, 27599, Note_on_c, 6, 48, 0
9, 27601, Note_on_c, 6, 41, 64
9, 27601, Note_on_c, 6, 48, 87
9, 27652, Note_on_c, 6, 48, 0
9, 27660, Note_on_c, 6, 41, 0
9, 27661, Note_on_c, 6, 48, 69
9, 27661, Note_on_c, 6, 41, 44
9, 27690, Note_on_c, 6, 41, 0
9, 27718, Note_on_c, 6, 48, 0
9, 27721, Note_on_c, 6, 60, 101
9, 27721, Note_on_c, 6, 65, 85
9, 27722, Note_on_c, 6, 57, 67
9, 27736, Note_on_c, 6, 65, 0
9, 27739, Note_on_c, 6, 60, 0
9, 27740, Note_on_c, 6, 57, 0
9, 27780, Note_on_c, 6, 48, 50
9, 27781, Note_on_c, 6, 41, 76
9, 27801, Note_on_c, 6, 41, 0
9, 27811, Note_on_c, 6, 48, 0
9, 27841, Note_on_c, 6, 48, 86
9, 27842, Note_on_c, 6, 55, 80
9, 27897, Note_on_c, 6, 48, 0
9, 27898, Note_on_c, 6, 55, 0
9, 27900, Note_on_c, 6, 48, 67
9, 27902, Note_on_c, 6, 55, 57
9, 27930, Note_on_c, 6, 55, 0
9, 27934, Note_on_c, 6, 48, 0
9, 27961, Note_on_c, 6, 48, 73
9, 27962, Note_on_c, 6, 57, 76
9, 28014, Note_on_c, 6, 57, 0
9, 28017, Note_on_c, 6, 48, 0
9, 28021, Note_on_c, 6, 48, 53
9, 28022, Note_on_c, 6, 57, 54
9, 28044, Note_on_c, 6, 57, 0
9, 28047, Note_on_c, 6, 48, 0
9, 28081, Note_on_c, 6, 58, 79
9, 28081, Note_on_c, 6, 48, 87
9, 28131, Note_on_c, 6, 58, 0
9, 28135, Note_on_c, 6, 48, 0
9, 28141, Note_on_c, 6, 58, 57
9, 28141, Note_on_c, 6, 48, 57
9, 28169, Note_on_c, 6, 48, 0
9, 28170, Note_on_c, 6, 58, 0
9, 28201, Note_on_c, 6, 48, 65
9, 28201, Note_on_c, 6, 57, 71
9, 28220, Note_on_c, 6, 57, 0
9, 28223, Note_on_c, 6, 48, 0
9, 28261, Note_on_c, 6, 46, 86
9, 28262, Note_on_c, 6, 53, 80
9, 28375, Note_on_c, 6, 46, 0
9, 28376, Note_on_c, 6, 53, 0
9, 28380, Note_on_c, 6, 46, 67
9, 28382, Note_on_c, 6, 53, 57
9, 28410, Note_on_c, 6, 53, 0
9, 28414, Note_on_c, 6, 46, 0
9, 28441, Note_on_c, 6, 46, 73
9, 28442, Note_on_c, 6, 55, 76
9, 28494, Note_on_c, 6, 55, 0
9, 28497, Note_on_c, 6, 46, 0
9, 28501, Note_on_c, 6, 46, 53
9, 28502, Note_on_c, 6, 55, 54
9, 28524, Note_on_c, 6, 55, 0
9, 28527, Note_on_c, 6, 46, 0
9, 28561, Note_on_c, 6, 56, 79
9, 28561, Note_on_c, 6, 46, 87
9, 28611, Note_on_c, 6, 56, 0
9, 28615, Note_on_c, 6, 46, 0
9, 28621, Note_on_c, 6, 56, 57
9, 28621, Note_on_c, 6, 46, 57
9, 28649, Note_on_c, 6, 46, 0
9, 28650, Note_on_c, 6, 56, 0
9, 28681, Note_on_c, 6, 46, 65
9, 28681, Note_on_c, 6, 55, 71
9, 28700, Note_on_c, 6, 55, 0
9, 28738, Note_on_c, 6, 46, 0
9, 28740, Note_on_c, 6, 46, 64
9, 28740, Note_on_c, 6, 55, 58
9, 28756, Note_on_c, 6, 46, 0
9, 28763, Note_on_c, 6, 55, 0
9, 28801, Note_on_c, 6, 41, 86
9, 28802, Note_on_c, 6, 48, 80
9, 28857, Note_on_c, 6, 41, 0
9, 28858, Note_on_c, 6, 48, 0
9, 28860, Note_on_c, 6, 41, 67
9, 28862, Note_on_c, 6, 48, 57
9, 28890, Note_on_c, 6, 48, 0
9, 28894, Note_on_c, 6, 41, 0
9, 28921, Note_on_c, 6, 41, 73
9, 28922, Note_on_c, 6, 50, 76
9, 28974, Note_on_c, 6, 50, 0
9, 28977, Note_on_c, 6, 41, 0
9, 28981, Note_on_c, 6, 41, 53
9, 28982, Note_on_c, 6, 50, 54
9, 29004, Note_on_c, 6, 50, 0
9, 29007, Note_on_c, 6, 41, 0
9, 29041, Note_on_c, 6, 41, 87
9, 29041, Note_on_c, 6, 48, 79
9, 29091, Note_on_c, 6, 48, 0
9, 29095, Note_on_c, 6, 41, 0
9, 29101, Note_on_c, 6, 41, 57
9, 29101, Note_on_c, 6, 48, 57
9, 29130, Note_on_c, 6, 48, 0
9, 29158, Note_on_c, 6, 41, 0
9, 29160, Note_on_c, 6, 57, 67
9, 29161, Note_on_c, 6, 65, 71
9, 29161, Note_on_c, 6, 60, 65
9, 29172, Note_on_c, 6, 57, 0
9, 29176, Note_on_c, 6, 60, 0
9, 29180, Note_on_c, 6, 65, 0
9, 29221, Note_on_c, 6, 48, 94
9, 29221, Note_on_c, 6, 41, 80
9, 29319, Note_on_c, 6, 41, 0
9, 29324, Note_on_c, 6, 48, 0
9, 29341, Note_on_c, 6, 41, 58
9, 29341, Note_on_c, 6, 48, 69
9, 29356, Note_on_c, 6, 48, 0
9, 29363, Note_on_c, 6, 41, 0
9, 29401, Note_on_c, 6, 41, 69
9, 29401, Note_on_c, 6, 50, 90
9, 29451, Note_on_c, 6, 41, 0
9, 29451, Note_on_c, 6, 50, 0
9, 29461, Note_on_c, 6, 50, 64
9, 29461, Note_on_c, 6, 41, 54
9, 29484, Note_on_c, 6, 41, 0
9, 29495, Note_on_c, 6, 50, 0
9, 29521, Note_on_c, 6, 41, 64
9, 29521, Note_on_c, 6, 48, 87
9, 29572, Note_on_c, 6, 48, 0
9, 29580, Note_on_c, 6, 41, 0
9, 29581, Note_on_c, 6, 48, 69
9, 29581, Note_on_c, 6, 41, 44
9, 29610, Note_on_c, 6, 48, 0
9, 29610, Note_on_c, 6, 41, 0
9, 29641, Note_on_c, 6, 41, 69
9, 29641, Note_on_c, 6, 50, 101
9, 29683, Note_on_c, 6, 41, 0
9, 29690, Note_on_c, 6, 50, 0
9, 29701, Note_on_c, 6, 50, 73
9, 29701, Note_on_c, 6, 41, 76
9, 29727, Note_on_c, 6, 50, 0
9, 29727, Note_on_c, 6, 41, 0
9, 29761, Note_on_c, 6, 41, 96
9, 29762, Note_on_c, 6, 48, 90
9, 29796, Note_on_c, 6, 41, 0
9, 29797, Note_on_c, 6, 48, 0
9, 30241, Note_on_c, 6, 41, 96
9, 30242, Note_on_c, 6, 48, 90
9, 30276, Note_on_c, 6, 41, 0
9, 30277, Note_on_c, 6, 48, 0
9, 30721, Note_on_c, 6, 41, 96
9, 30722, Note_on_c, 6, 48, 90
9, 30756, Note_on_c, 6, 41, 0
9, 30757, Note_on_c, 6, 48, 0
9, 31201, Note_on_c, 6, 41, 96
9, 31202, Note_on_c, 6, 48, 90
9, 31236, Note_on_c, 6, 41, 0
9, 31237, Note_on_c, 6, 48, 0
9, 31800, Note_on_c, 6, 65, 84
9, 31801, Note_on_c, 6, 60, 84
9, 31817, Note_on_c, 6, 65, 0
9, 31818, Note_on_c, 6, 60, 0
9, 31980, Note_on_c, 6, 65, 84
9, 31981, Note_on_c, 6, 60, 84
9, 31997, Note_on_c, 6, 65, 0
9, 31998, Note_on_c, 6, 60, 0
9, 32280, Note_on_c, 6, 60, 84
9, 32280, Note_on_c, 6, 65, 84
9, 32297, Note_on_c, 6, 60, 0
9, 32297, Note_on_c, 6, 65, 0
9, 32460, Note_on_c, 6, 65, 84
9, 32477, Note_on_c, 6, 65, 0
9, 32760, Note_on_c, 6, 69, 84
9, 32761, Note_on_c, 6, 65, 84
9, 32762, Note_on_c, 6, 60, 84
9, 32777, Note_on_c, 6, 69, 0
9, 32778, Note_on_c, 6, 65, 0
9, 32779, Note_on_c, 6, 60, 0
9, 32940, Note_on_c, 6, 69, 84
9, 32941, Note_on_c, 6, 65, 84
9, 32942, Note_on_c, 6, 60, 84
9, 32957, Note_on_c, 6, 69, 0
9, 32958, Note_on_c, 6, 65, 0
9, 32959, Note_on_c, 6, 60, 0
9, 33241, Note_on_c, 6, 60, 84
9, 33241, Note_on_c, 6, 65, 84
9, 33241, Note_on_c, 6, 69, 84
9, 33258, Note_on_c, 6, 60, 0
9, 33258, Note_on_c, 6, 65, 0
9, 33258, Note_on_c, 6, 69, 0
9, 33421, Note_on_c, 6, 65, 84
9, 33422, Note_on_c, 6, 69, 84
9, 33438, Note_on_c, 6, 65, 0
9, 33439, Note_on_c, 6, 69, 0
9, 33720, Note_on_c, 6, 72, 84
9, 33721, Note_on_c, 6, 67, 84
9, 33722, Note_on_c, 6, 64, 84
9, 33737, Note_on_c, 6, 72, 0
9, 33738, Note_on_c, 6, 67, 0
9, 33739, Note_on_c, 6, 64, 0
9, 33900, Note_on_c, 6, 72, 84
9, 33901, Note_on_c, 6, 67, 84
9, 33902, Note_on_c, 6, 64, 84
9, 33917, Note_on_c, 6, 72, 0
9, 33918, Note_on_c, 6, 67, 0
9, 33919, Note_on_c, 6, 64, 0
9, 34200, Note_on_c, 6, 65, 84
9, 34201, Note_on_c, 6, 60, 84
9, 34217, Note_on_c, 6, 65, 0
9, 34218, Note_on_c, 6, 60, 0
9, 34380, Note_on_c, 6, 65, 84
9, 34381, Note_on_c, 6, 60, 84
9, 34397, Note_on_c, 6, 65, 0
9, 34398, Note_on_c, 6, 60, 0
9, 34679, Note_on_c, 6, 69, 84
9, 34680, Note_on_c, 6, 65, 84
9, 34681, Note_on_c, 6, 60, 84
9, 34696, Note_on_c, 6, 69, 0
9, 34697, Note_on_c, 6, 65, 0
9, 34698, Note_on_c, 6, 60, 0
9, 34859, Note_on_c, 6, 69, 84
9, 34860, Note_on_c, 6, 65, 84
9, 34861, Note_on_c, 6, 60, 84
9, 34876, Note_on_c, 6, 69, 0
9, 34877, Note_on_c, 6, 65, 0
9, 34878, Note_on_c, 6, 60, 0
9, 35160, Note_on_c, 6, 60, 84
9, 35160, Note_on_c, 6, 65, 84
9, 35160, Note_on_c, 6, 69, 84
9, 35177, Note_on_c, 6, 60, 0
9, 35177, Note_on_c, 6, 65, 0
9, 35177, Note_on_c, 6, 69, 0
9, 35340, Note_on_c, 6, 65, 84
9, 35341, Note_on_c, 6, 69, 84
9, 35357, Note_on_c, 6, 65, 0
9, 35358, Note_on_c, 6, 69, 0
9, 35521, Note_on_c, 6, 41, 96
9, 35522, Note_on_c, 6, 48, 90
9, 35556, Note_on_c, 6, 41, 0
9, 35557, Note_on_c, 6, 48, 0
9, 36001, Note_on_c, 6, 41, 96
9, 36002, Note_on_c, 6, 48, 90
9, 36036, Note_on_c, 6, 41, 0
9, 36037, Note_on_c, 6, 48, 0
9, 36481, Note_on_c, 6, 41, 96
9, 36482, Note_on_c, 6, 48, 90
9, 36516, Note_on_c, 6, 41, 0
9, 36517, Note_on_c, 6, 48, 0
9, 36961, Note_on_c, 6, 41, 96
9, 36962, Note_on_c, 6, 48, 90
9, 36996, Note_on_c, 6, 41, 0
9, 36997, Note_on_c, 6, 48, 0
9, 37561, Note_on_c, 6, 65, 84
9, 37562, Note_on_c, 6, 60, 84
9, 37578, Note_on_c, 6, 65, 0
9, 37579, Note_on_c, 6, 60, 0
9, 37741, Note_on_c, 6, 65, 84
9, 37742, Note_on_c, 6, 60, 84
9, 37758, Note_on_c, 6, 65, 0
9, 37759, Note_on_c, 6, 60, 0
9, 38041, Note_on_c, 6, 60, 84
9, 38041, Note_on_c, 6, 65, 84
9, 38058, Note_on_c, 6, 60, 0
9, 38058, Note_on_c, 6, 65, 0
9, 38221, Note_on_c, 6, 65, 84
9, 38238, Note_on_c, 6, 65, 0
9, 38522, Note_on_c, 6, 60, 84
9, 38522, Note_on_c, 6, 65, 84
9, 38522, Note_on_c, 6, 69, 84
9, 38539, Note_on_c, 6, 60, 0
9, 38539, Note_on_c, 6, 65, 0
9, 38539, Note_on_c, 6, 69, 0
9, 38701, Note_on_c, 6, 69, 84
9, 38702, Note_on_c, 6, 65, 84
9, 38703, Note_on_c, 6, 60, 84
9, 38718, Note_on_c, 6, 69, 0
9, 38719, Note_on_c, 6, 65, 0
9, 38720, Note_on_c, 6, 60, 0
9, 39002, Note_on_c, 6, 60, 84
9, 39002, Note_on_c, 6, 65, 84
9, 39002, Note_on_c, 6, 69, 84
9, 39019, Note_on_c, 6, 60, 0
9, 39019, Note_on_c, 6, 65, 0
9, 39019, Note_on_c, 6, 69, 0
9, 39182, Note_on_c, 6, 65, 84
9, 39183, Note_on_c, 6, 69, 84
9, 39199, Note_on_c, 6, 65, 0
9, 39200, Note_on_c, 6, 69, 0
9, 39480, Note_on_c, 6, 72, 84
9, 39481, Note_on_c, 6, 67, 84
9, 39482, Note_on_c, 6, 64, 84
9, 39497, Note_on_c, 6, 72, 0
9, 39498, Note_on_c, 6, 67, 0
9, 39499, Note_on_c, 6, 64, 0
9, 39660, Note_on_c, 6, 72, 84
9, 39661, Note_on_c, 6, 67, 84
9, 39662, Note_on_c, 6, 64, 84
9, 39677, Note_on_c, 6, 72, 0
9, 39678, Note_on_c, 6, 67, 0
9, 39679, Note_on_c, 6, 64, 0
9, 39961, Note_on_c, 6, 65, 84
9, 39962, Note_on_c, 6, 60, 84
9, 39978, Note_on_c, 6, 65, 0
9, 39979, Note_on_c, 6, 60, 0
9, 40141, Note_on_c, 6, 65, 84
9, 40142, Note_on_c, 6, 60, 84
9, 40158, Note_on_c, 6, 65, 0
9, 40159, Note_on_c, 6, 60, 0
9, 40440, Note_on_c, 6, 69, 84
9, 40441, Note_on_c, 6, 65, 84
9, 40442, Note_on_c, 6, 60, 84
9, 40457, Note_on_c, 6, 69, 0
9, 40458, Note_on_c, 6, 65, 0
9, 40459, Note_on_c, 6, 60, 0
9, 40620, Note_on_c, 6, 69, 84
9, 40621, Note_on_c, 6, 65, 84
9, 40622, Note_on_c, 6, 60, 84
9, 40637, Note_on_c, 6, 69, 0
9, 40638, Note_on_c, 6, 65, 0
9, 40639, Note_on_c, 6, 60, 0
9, 40921, Note_on_c, 6, 60, 84
9, 40921, Note_on_c, 6, 65, 84
9, 40921, Note_on_c, 6, 69, 84
9, 40938, Note_on_c, 6, 60, 0
9, 40938, Note_on_c, 6, 65, 0
9, 40938, Note_on_c, 6, 69, 0
9, 41101, Note_on_c, 6, 65, 84
9, 41102, Note_on_c, 6, 69, 84
9, 41118, Note_on_c, 6, 65, 0
9, 41119, Note_on_c, 6, 69, 0
9, 41281, Note_on_c, 6, 41, 96
9, 41282, Note_on_c, 6, 48, 90
9, 41316, Note_on_c, 6, 41, 0
9, 41317, Note_on_c, 6, 48, 0
9, 41761, Note_on_c, 6, 41, 96
9, 41762, Note_on_c, 6, 48, 90
9, 41796, Note_on_c, 6, 41, 0
9, 41797, Note_on_c, 6, 48, 0
9, 42241, Note_on_c, 6, 41, 96
9, 42242, Note_on_c, 6, 48, 90
9, 42276, Note_on_c, 6, 41, 0
9, 42277, Note_on_c, 6, 48, 0
9, 42721, Note_on_c, 6, 41, 96
9, 42722, Note_on_c, 6, 48, 90
9, 42756, Note_on_c, 6, 41, 0
9, 42757, Note_on_c, 6, 48, 0
9, 43320, Note_on_c, 6, 65, 84
9, 43321, Note_on_c, 6, 60, 84
9, 43337, Note_on_c, 6, 65, 0
9, 43338, Note_on_c, 6, 60, 0
9, 43500, Note_on_c, 6, 65, 84
9, 43501, Note_on_c, 6, 60, 84
9, 43517, Note_on_c, 6, 65, 0
9, 43518, Note_on_c, 6, 60, 0
9, 43800, Note_on_c, 6, 60, 84
9, 43800, Note_on_c, 6, 65, 84
9, 43817, Note_on_c, 6, 60, 0
9, 43817, Note_on_c, 6, 65, 0
9, 43980, Note_on_c, 6, 65, 84
9, 43997, Note_on_c, 6, 65, 0
9, 44279, Note_on_c, 6, 69, 84
9, 44280, Note_on_c, 6, 65, 84
9, 44281, Note_on_c, 6, 60, 84
9, 44296, Note_on_c, 6, 69, 0
9, 44297, Note_on_c, 6, 65, 0
9, 44298, Note_on_c, 6, 60, 0
9, 44459, Note_on_c, 6, 69, 84
9, 44460, Note_on_c, 6, 65, 84
9, 44461, Note_on_c, 6, 60, 84
9, 44476, Note_on_c, 6, 69, 0
9, 44477, Note_on_c, 6, 65, 0
9, 44478, Note_on_c, 6, 60, 0
9, 44760, Note_on_c, 6, 60, 84
9, 44760, Note_on_c, 6, 65, 84
9, 44760, Note_on_c, 6, 69, 84
9, 44777, Note_on_c, 6, 60, 0
9, 44777, Note_on_c, 6, 65, 0
9, 44777, Note_on_c, 6, 69, 0
9, 44940, Note_on_c, 6, 65, 84
9, 44941, Note_on_c, 6, 69, 84
9, 44957, Note_on_c, 6, 65, 0
9, 44958, Note_on_c, 6, 69, 0
9, 45240, Note_on_c, 6, 72, 84
9, 45241, Note_on_c, 6, 67, 84
9, 45242, Note_on_c, 6, 64, 84
9, 45257, Note_on_c, 6, 72, 0
9, 45258, Note_on_c, 6, 67, 0
9, 45259, Note_on_c, 6, 64, 0
9, 45420, Note_on_c, 6, 72, 84
9, 45421, Note_on_c, 6, 67, 84
9, 45422, Note_on_c, 6, 64, 84
9, 45437, Note_on_c, 6, 72, 0
9, 45438, Note_on_c, 6, 67, 0
9, 45439, Note_on_c, 6, 64, 0
9, 45720, Note_on_c, 6, 65, 84
9, 45721, Note_on_c, 6, 60, 84
9, 45737, Note_on_c, 6, 65, 0
9, 45738, Note_on_c, 6, 60, 0
9, 45900, Note_on_c, 6, 65, 84
9, 45901, Note_on_c, 6, 60, 84
9, 45917, Note_on_c, 6, 65, 0
9, 45918, Note_on_c, 6, 60, 0
9, 46200, Note_on_c, 6, 69, 84
9, 46201, Note_on_c, 6, 65, 84
9, 46202, Note_on_c, 6, 60, 84
9, 46217, Note_on_c, 6, 69, 0
9, 46218, Note_on_c, 6, 65, 0
9, 46219, Note_on_c, 6, 60, 0
9, 46380, Note_on_c, 6, 69, 84
9, 46381, Note_on_c, 6, 65, 84
9, 46382, Note_on_c, 6, 60, 84
9, 46397, Note_on_c, 6, 69, 0
9, 46398, Note_on_c, 6, 65, 0
9, 46399, Note_on_c, 6, 60, 0
9, 46681, Note_on_c, 6, 60, 84
9, 46681, Note_on_c, 6, 65, 84
9, 46681, Note_on_c, 6, 69, 84
9, 46698, Note_on_c, 6, 60, 0
9, 46698, Note_on_c, 6, 65, 0
9, 46698, Note_on_c, 6, 69, 0
9, 46861, Note_on_c, 6, 65, 84
9, 46862, Note_on_c, 6, 69, 84
9, 46878, Note_on_c, 6, 65, 0
9, 46879, Note_on_c, 6, 69, 0
9, 47041, Note_on_c, 6, 41, 86
9, 47042, Note_on_c, 6, 48, 80
9, 47097, Note_on_c, 6, 41, 0
9, 47098, Note_on_c, 6, 48, 0
9, 47100, Note_on_c, 6, 41, 67
9, 47102, Note_on_c, 6, 48, 57
9, 47130, Note_on_c, 6, 48, 0
9, 47134, Note_on_c, 6, 41, 0
9, 47161, Note_on_c, 6, 41, 73
9, 47162, Note_on_c, 6, 50, 76
9, 47214, Note_on_c, 6, 50, 0
9, 47217, Note_on_c, 6, 41, 0
9, 47221, Note_on_c, 6, 41, 53
9, 47222, Note_on_c, 6, 50, 54
9, 47244, Note_on_c, 6, 50, 0
9, 47247, Note_on_c, 6, 41, 0
9, 47281, Note_on_c, 6, 41, 87
9, 47281, Note_on_c, 6, 48, 79
9, 47331, Note_on_c, 6, 48, 0
9, 47335, Note_on_c, 6, 41, 0
9, 47341, Note_on_c, 6, 41, 57
9, 47341, Note_on_c, 6, 48, 57
9, 47370, Note_on_c, 6, 48, 0
9, 47398, Note_on_c, 6, 41, 0
9, 47400, Note_on_c, 6, 65, 71
9, 47401, Note_on_c, 6, 60, 65
9, 47402, Note_on_c, 6, 57, 67
9, 47418, Note_on_c, 6, 65, 0
9, 47419, Note_on_c, 6, 60, 0
9, 47421, Note_on_c, 6, 57, 0
9, 47461, Note_on_c, 6, 41, 86
9, 47462, Note_on_c, 6, 48, 80
9, 47575, Note_on_c, 6, 41, 0
9, 47576, Note_on_c, 6, 48, 0
9, 47580, Note_on_c, 6, 41, 67
9, 47582, Note_on_c, 6, 48, 57
9, 47610, Note_on_c, 6, 48, 0
9, 47614, Note_on_c, 6, 41, 0
9, 47641, Note_on_c, 6, 41, 73
9, 47642, Note_on_c, 6, 50, 76
9, 47694, Note_on_c, 6, 50, 0
9, 47697, Note_on_c, 6, 41, 0
9, 47701, Note_on_c, 6, 41, 53
9, 47702, Note_on_c, 6, 50, 54
9, 47724, Note_on_c, 6, 50, 0
9, 47727, Note_on_c, 6, 41, 0
9, 47761, Note_on_c, 6, 41, 87
9, 47761, Note_on_c, 6, 48, 79
9, 47811, Note_on_c, 6, 48, 0
9, 47815, Note_on_c, 6, 41, 0
9, 47821, Note_on_c, 6, 41, 57
9, 47821, Note_on_c, 6, 48, 57
9, 47850, Note_on_c, 6, 48, 0
9, 47878, Note_on_c, 6, 41, 0
9, 47880, Note_on_c, 6, 65, 71
9, 47881, Note_on_c, 6, 60, 65
9, 47882, Note_on_c, 6, 57, 67
9, 47894, Note_on_c, 6, 57, 0
9, 47898, Note_on_c, 6, 65, 0
9, 47906, Note_on_c, 6, 60, 0
9, 47940, Note_on_c, 6, 48, 42
9, 47941, Note_on_c, 6, 41, 32
9, 47966, Note_on_c, 6, 48, 0
9, 47967, Note_on_c, 6, 41, 0
9, 48001, Note_on_c, 6, 41, 86
9, 48002, Note_on_c, 6, 48, 80
9, 48057, Note_on_c, 6, 41, 0
9, 48058, Note_on_c, 6, 48, 0
9, 48060, Note_on_c, 6, 41, 67
9, 48062, Note_on_c, 6, 48, 57
9, 48090, Note_on_c, 6, 48, 0
9, 48118, Note_on_c, 6, 41, 0
9, 48120, Note_on_c, 6, 50, 76
9, 48121, Note_on_c, 6, 41, 73
9, 48177, Note_on_c, 6, 41, 0
9, 48179, Note_on_c, 6, 50, 0
9, 48181, Note_on_c, 6, 41, 53
9, 48182, Note_on_c, 6, 50, 54
9, 48204, Note_on_c, 6, 50, 0
9, 48207, Note_on_c, 6, 41, 0
9, 48241, Note_on_c, 6, 41, 87
9, 48241, Note_on_c, 6, 48, 79
9, 48291, Note_on_c, 6, 48, 0
9, 48295, Note_on_c, 6, 41, 0
9, 48301, Note_on_c, 6, 41, 57
9, 48301, Note_on_c, 6, 48, 57
9, 48330, Note_on_c, 6, 48, 0
9, 48358, Note_on_c, 6, 41, 0
9, 48360, Note_on_c, 6, 65, 103
9, 48361, Note_on_c, 6, 60, 87
9, 48362, Note_on_c, 6, 57, 64
9, 48379, Note_on_c, 6, 65, 0
9, 48384, Note_on_c, 6, 57, 0
9, 48388, Note_on_c, 6, 60, 0
9, 48421, Note_on_c, 6, 48, 94
9, 48421, Note_on_c, 6, 41, 80
9, 48519, Note_on_c, 6, 41, 0
9, 48524, Note_on_c, 6, 48, 0
9, 48541, Note_on_c, 6, 41, 58
9, 48541, Note_on_c, 6, 48, 69
9, 48556, Note_on_c, 6, 48, 0
9, 48563, Note_on_c, 6, 41, 0
9, 48601, Note_on_c, 6, 50, 90
9, 48601, Note_on_c, 6, 41, 69
9, 48651, Note_on_c, 6, 41, 0
9, 48658, Note_on_c, 6, 50, 0
9, 48660, Note_on_c, 6, 50, 64
9, 48661, Note_on_c, 6, 41, 54
9, 48684, Note_on_c, 6, 41, 0
9, 48719, Note_on_c, 6, 50, 0
9, 48721, Note_on_c, 6, 41, 64
9, 48721, Note_on_c, 6, 48, 87
9, 48772, Note_on_c, 6, 48, 0
9, 48780, Note_on_c, 6, 41, 0
9, 48781, Note_on_c, 6, 48, 69
9, 48781, Note_on_c, 6, 41, 44
9, 48810, Note_on_c, 6, 41, 0
9, 48838, Note_on_c, 6, 48, 0
9, 48841, Note_on_c, 6, 60, 101
9, 48841, Note_on_c, 6, 65, 85
9, 48842, Note_on_c, 6, 57, 67
9, 48856, Note_on_c, 6, 65, 0
9, 48860, Note_on_c, 6, 60, 0
9, 48860, Note_on_c, 6, 57, 0
9, 48900, Note_on_c, 6, 48, 50
9, 48901, Note_on_c, 6, 41, 76
9, 48921, Note_on_c, 6, 41, 0
9, 48931, Note_on_c, 6, 48, 0
9, 48961, Note_on_c, 6, 46, 86
9, 48962, Note_on_c, 6, 53, 80
9, 49017, Note_on_c, 6, 46, 0
9, 49018, Note_on_c, 6, 53, 0
9, 49020, Note_on_c, 6, 46, 67
9, 49022, Note_on_c, 6, 53, 57
9, 49050, Note_on_c, 6, 53, 0
9, 49054, Note_on_c, 6, 46, 0
9, 49081, Note_on_c, 6, 46, 73
9, 49082, Note_on_c, 6, 55, 76
9, 49134, Note_on_c, 6, 55, 0
9, 49137, Note_on_c, 6, 46, 0
9, 49141, Note_on_c, 6, 46, 53
9, 49142, Note_on_c, 6, 55, 54
9, 49164, Note_on_c, 6, 55, 0
9, 49167, Note_on_c, 6, 46, 0
9, 49201, Note_on_c, 6, 46, 87
9, 49201, Note_on_c, 6, 53, 79
9, 49251, Note_on_c, 6, 53, 0
9, 49255, Note_on_c, 6, 46, 0
9, 49261, Note_on_c, 6, 46, 57
9, 49261, Note_on_c, 6, 53, 57
9, 49290, Note_on_c, 6, 53, 0
9, 49318, Note_on_c, 6, 46, 0
9, 49320, Note_on_c, 6, 62, 67
9, 49321, Note_on_c, 6, 70, 71
9, 49321, Note_on_c, 6, 65, 65
9, 49332, Note_on_c, 6, 62, 0
9, 49336, Note_on_c, 6, 65, 0
9, 49340, Note_on_c, 6, 70, 0
9, 49381, Note_on_c, 6, 53, 94
9, 49381, Note_on_c, 6, 46, 80
9, 49479, Note_on_c, 6, 46, 0
9, 49484, Note_on_c, 6, 53, 0
9, 49501, Note_on_c, 6, 46, 58
9, 49501, Note_on_c, 6, 53, 69
9, 49516, Note_on_c, 6, 53, 0
9, 49523, Note_on_c, 6, 46, 0
9, 49561, Note_on_c, 6, 46, 69
9, 49561, Note_on_c, 6, 55, 90
9, 49611, Note_on_c, 6, 46, 0
9, 49611, Note_on_c, 6, 55, 0
9, 49621, Note_on_c, 6, 55, 64
9, 49621, Note_on_c, 6, 46, 54
9, 49644, Note_on_c, 6, 46, 0
9, 49655, Note_on_c, 6, 55, 0
9, 49681, Note_on_c, 6, 46, 64
9, 49681, Note_on_c, 6, 53, 87
9, 49732, Note_on_c, 6, 53, 0
9, 49740, Note_on_c, 6, 46, 0
9, 49741, Note_on_c, 6, 53, 69
9, 49741, Note_on_c, 6, 46, 44
9, 49770, Note_on_c, 6, 53, 0
9, 49770, Note_on_c, 6, 46, 0
9, 49801, Note_on_c, 6, 46, 69
9, 49801, Note_on_c, 6, 55, 101
9, 49843, Note_on_c, 6, 46, 0
9, 49850, Note_on_c, 6, 55, 0
9, 49861, Note_on_c, 6, 55, 73
9, 49861, Note_on_c, 6, 46, 76
9, 49887, Note_on_c, 6, 55, 0
9, 49887, Note_on_c, 6, 46, 0
9, 49921, Note_on_c, 6, 41, 86
9, 49922, Note_on_c, 6, 48, 80
9, 49977, Note_on_c, 6, 41, 0
9, 49978, Note_on_c, 6, 48, 0
9, 49980, Note_on_c, 6, 41, 67
9, 49982, Note_on_c, 6, 48, 57
9, 50010, Note_on_c, 6, 48, 0
9, 50038, Note_on_c, 6, 41, 0
9, 50040, Note_on_c, 6, 48, 76
9, 50041, Note_on_c, 6, 41, 73
9, 50097, Note_on_c, 6, 41, 0
9, 50099, Note_on_c, 6, 48, 0
9, 50101, Note_on_c, 6, 41, 53
9, 50102, Note_on_c, 6, 48, 54
9, 50124, Note_on_c, 6, 48, 0
9, 50127, Note_on_c, 6, 41, 0
9, 50161, Note_on_c, 6, 41, 87
9, 50161, Note_on_c, 6, 48, 79
9, 50211, Note_on_c, 6, 48, 0
9, 50215, Note_on_c, 6, 41, 0
9, 50221, Note_on_c, 6, 41, 57
9, 50221, Note_on_c, 6, 48, 57
9, 50250, Note_on_c, 6, 48, 0
9, 50278, Note_on_c, 6, 41, 0
9, 50280, Note_on_c, 6, 65, 103
9, 50281, Note_on_c, 6, 60, 87
9, 50282, Note_on_c, 6, 57, 64
9, 50299, Note_on_c, 6, 65, 0
9, 50304, Note_on_c, 6, 57, 0
9, 50308, Note_on_c, 6, 60, 0
9, 50341, Note_on_c, 6, 48, 94
9, 50341, Note_on_c, 6, 41, 80
9, 50439, Note_on_c, 6, 41, 0
9, 50444, Note_on_c, 6, 48, 0
9, 50461, Note_on_c, 6, 41, 58
9, 50461, Note_on_c, 6, 48, 69
9, 50476, Note_on_c, 6, 48, 0
9, 50483, Note_on_c, 6, 41, 0
9, 50521, Note_on_c, 6, 48, 90
9, 50521, Note_on_c, 6, 41, 69
9, 50571, Note_on_c, 6, 41, 0
9, 50578, Note_on_c, 6, 48, 0
9, 50580, Note_on_c, 6, 48, 64
9, 50581, Note_on_c, 6, 41, 54
9, 50604, Note_on_c, 6, 41, 0
9, 50639, Note_on_c, 6, 48, 0
9, 50641, Note_on_c, 6, 41, 64
9, 50641, Note_on_c, 6, 48, 87
9, 50692, Note_on_c, 6, 48, 0
9, 50700, Note_on_c, 6, 41, 0
9, 50701, Note_on_c, 6, 48, 69
9, 50701, Note_on_c, 6, 41, 44
9, 50730, Note_on_c, 6, 41, 0
9, 50758, Note_on_c, 6, 48, 0
9, 50761, Note_on_c, 6, 60, 101
9, 50761, Note_on_c, 6, 65, 85
9, 50762, Note_on_c, 6, 57, 67
9, 50776, Note_on_c, 6, 65, 0
9, 50779, Note_on_c, 6, 60, 0
9, 50780, Note_on_c, 6, 57, 0
9, 50820, Note_on_c, 6, 48, 50
9, 50821, Note_on_c, 6, 41, 76
9, 50841, Note_on_c, 6, 41, 0
9, 50851, Note_on_c, 6, 48, 0
9, 50881, Note_on_c, 6, 48, 86
9, 50882, Note_on_c, 6, 55, 80
9, 50937, Note_on_c, 6, 48, 0
9, 50938, Note_on_c, 6, 55, 0
9, 50940, Note_on_c, 6, 48, 67
9, 50942, Note_on_c, 6, 55, 57
9, 50970, Note_on_c, 6, 55, 0
9, 50998, Note_on_c, 6, 48, 0
9, 51000, Note_on_c, 6, 57, 76
9, 51001, Note_on_c, 6, 48, 73
9, 51057, Note_on_c, 6, 48, 0
9, 51059, Note_on_c, 6, 57, 0
9, 51061, Note_on_c, 6, 48, 53
9, 51062, Note_on_c, 6, 57, 54
9, 51084, Note_on_c, 6, 57, 0
9, 51087, Note_on_c, 6, 48, 0
9, 51121, Note_on_c, 6, 48, 87
9, 51121, Note_on_c, 6, 55, 79
9, 51171, Note_on_c, 6, 55, 0
9, 51175, Note_on_c, 6, 48, 0
9, 51181, Note_on_c, 6, 48, 57
9, 51181, Note_on_c, 6, 55, 57
9, 51210, Note_on_c, 6, 55, 0
9, 51238, Note_on_c, 6, 48, 0
9, 51240, Note_on_c, 6, 72, 103
9, 51241, Note_on_c, 6, 67, 87
9, 51242, Note_on_c, 6, 64, 64
9, 51259, Note_on_c, 6, 72, 0
9, 51264, Note_on_c, 6, 64, 0
9, 51268, Note_on_c, 6, 67, 0
9, 51301, Note_on_c, 6, 46, 74
9, 51302, Note_on_c, 6, 53, 93
9, 51415, Note_on_c, 6, 46, 0
9, 51416, Note_on_c, 6, 53, 0
9, 51420, Note_on_c, 6, 46, 67
9, 51422, Note_on_c, 6, 53, 57
9, 51450, Note_on_c, 6, 53, 0
9, 51478, Note_on_c, 6, 46, 0
9, 51480, Note_on_c, 6, 53, 76
9, 51481, Note_on_c, 6, 46, 73
9, 51537, Note_on_c, 6, 46, 0
9, 51539, Note_on_c, 6, 53, 0
9, 51541, Note_on_c, 6, 46, 53
9, 51542, Note_on_c, 6, 53, 54
9, 51564, Note_on_c, 6, 53, 0
9, 51567, Note_on_c, 6, 46, 0
9, 51601, Note_on_c, 6, 46, 87
9, 51601, Note_on_c, 6, 53, 79
9, 51651, Note_on_c, 6, 53, 0
9, 51655, Note_on_c, 6, 46, 0
9, 51661, Note_on_c, 6, 46, 57
9, 51661, Note_on_c, 6, 53, 57
9, 51690, Note_on_c, 6, 53, 0
9, 51718, Note_on_c, 6, 46, 0
9, 51720, Note_on_c, 6, 72, 103
9, 51721, Note_on_c, 6, 65, 87
9, 51722, Note_on_c, 6, 62, 64
9, 51739, Note_on_c, 6, 72, 0
9, 51744, Note_on_c, 6, 62, 0
9, 51748, Note_on_c, 6, 65, 0
9, 51781, Note_on_c, 6, 41, 83
9, 51782, Note_on_c, 6, 48, 102
9, 51895, Note_on_c, 6, 41, 0
9, 51896, Note_on_c, 6, 48, 0
9, 51900, Note_on_c, 6, 41, 76
9, 51902, Note_on_c, 6, 48, 66
9, 51930, Note_on_c, 6, 48, 0
9, 51958, Note_on_c, 6, 41, 0
9, 51960, Note_on_c, 6, 48, 85
9, 51961, Note_on_c, 6, 41, 82
9, 52017, Note_on_c, 6, 41, 0
9, 52019, Note_on_c, 6, 48, 0
9, 52021, Note_on_c, 6, 41, 62
9, 52022, Note_on_c, 6, 48, 63
9, 52044, Note_on_c, 6, 48, 0
9, 52047, Note_on_c, 6, 41, 0
9, 52081, Note_on_c, 6, 41, 96
9, 52081, Note_on_c, 6, 48, 88
9, 52131, Note_on_c, 6, 48, 0
9, 52135, Note_on_c, 6, 41, 0
9, 52141, Note_on_c, 6, 41, 66
9, 52141, Note_on_c, 6, 48, 66
9, 52170, Note_on_c, 6, 48, 0
9, 52198, Note_on_c, 6, 41, 0
9, 52200, Note_on_c, 6, 65, 112
9, 52201, Note_on_c, 6, 60, 96
9, 52202, Note_on_c, 6, 57, 73
9, 52218, Note_on_c, 6, 65, 0
9, 52221, Note_on_c, 6, 57, 0
9, 52258, Note_on_c, 6, 60, 0
9, 52260, Note_on_c, 6, 48, 76
9, 52318, Note_on_c, 6, 48, 0
9, 52320, Note_on_c, 6, 48, 102
9, 52356, Note_on_c, 6, 48, 0
9, 52500, Note_on_c, 6, 48, 76
9, 52500, Note_on_c, 6, 53, 76
9, 52500, Note_on_c, 6, 57, 75
9, 52500, Note_on_c, 6, 60, 110
9, 52500, Note_on_c, 6, 65, 117
9, 52679, Note_on_c, 6, 53, 0
9, 52681, Note_on_c, 6, 60, 0
9, 52684, Note_on_c, 6, 48, 0
9, 52684, Note_on_c, 6, 57, 0
9, 52702, Note_on_c, 6, 65, 0
9, 52800, Control_c, 6, 64, 0
9, 52800, End_track
10, 0, Start_track
10, 0, MIDI_port, 0
10, 0, Sequencer_specific, 7, 0, 0, 0, 106, 0, 4, 6
10, 0, Title_t, "Rock Organ"
10, 0, Control_c, 5, 0, 0
10, 0, Control_c, 5, 32, 0
10, 0, Program_c, 5, 18
10, 0, Control_c, 5, 121, 0
10, 44, Control_c, 5, 7, 100
10, 45, Control_c, 5, 10, 64
10, 46, Control_c, 5, 123, 0
10, 47, Control_c, 5, 91, 40
10, 48, Control_c, 5, 93, 0
10, 49, Control_c, 5, 64, 0
10, 963, Note_on_c, 5, 77, 76
10, 963, Note_on_c, 5, 81, 76
10, 998, Note_on_c, 5, 77, 0
10, 998, Note_on_c, 5, 81, 0
10, 1443, Note_on_c, 5, 77, 76
10, 1443, Note_on_c, 5, 81, 76
10, 1478, Note_on_c, 5, 77, 0
10, 1478, Note_on_c, 5, 81, 0
10, 1923, Note_on_c, 5, 77, 76
10, 1923, Note_on_c, 5, 81, 76
10, 1958, Note_on_c, 5, 77, 0
10, 1958, Note_on_c, 5, 81, 0
10, 2403, Note_on_c, 5, 77, 76
10, 2403, Note_on_c, 5, 81, 76
10, 2438, Note_on_c, 5, 77, 0
10, 2438, Note_on_c, 5, 81, 0
10, 2886, Note_on_c, 5, 74, 74
10, 2886, Note_on_c, 5, 80, 55
10, 2886, Note_on_c, 5, 77, 51
10, 3211, Note_on_c, 5, 77, 0
10, 3212, Note_on_c, 5, 74, 0
10, 3215, Note_on_c, 5, 80, 0
10, 3302, Note_on_c, 5, 74, 48
10, 3305, Note_on_c, 5, 77, 44
10, 3306, Note_on_c, 5, 72, 53
10, 3582, Note_on_c, 5, 72, 0
10, 3596, Note_on_c, 5, 74, 0
10, 3596, Note_on_c, 5, 77, 0
10, 3666, Note_on_c, 5, 74, 82
10, 3666, Note_on_c, 5, 77, 67
10, 3666, Note_on_c, 5, 80, 91
10, 3693, Note_on_c, 5, 80, 0
10, 3701, Note_on_c, 5, 74, 0
10, 3701, Note_on_c, 5, 77, 0
10, 3846, Note_on_c, 5, 72, 76
10, 3906, Note_on_c, 5, 81, 83
10, 3906, Note_on_c, 5, 77, 46
10, 4592, Note_on_c, 5, 72, 0
10, 4603, Note_on_c, 5, 81, 0
10, 4626, Note_on_c, 5, 81, 80
10, 4626, Note_on_c, 5, 72, 71
10, 4648, Note_on_c, 5, 81, 0
10, 4651, Note_on_c, 5, 77, 0
10, 4661, Note_on_c, 5, 72, 0
10, 4746, Note_on_c, 5, 72, 70
10, 4775, Note_on_c, 5, 72, 0
10, 4926, Note_on_c, 5, 76, 90
10, 4926, Note_on_c, 5, 82, 71
10, 4926, Note_on_c, 5, 79, 68
10, 5042, Note_on_c, 5, 82, 0
10, 5044, Note_on_c, 5, 79, 0
10, 5056, Note_on_c, 5, 76, 0
10, 5106, Note_on_c, 5, 72, 69
10, 5106, Note_on_c, 5, 79, 61
10, 5106, Note_on_c, 5, 76, 64
10, 5208, Note_on_c, 5, 79, 0
10, 5211, Note_on_c, 5, 76, 0
10, 5215, Note_on_c, 5, 72, 0
10, 5406, Note_on_c, 5, 74, 90
10, 5406, Note_on_c, 5, 80, 71
10, 5406, Note_on_c, 5, 77, 68
10, 5522, Note_on_c, 5, 80, 0
10, 5524, Note_on_c, 5, 77, 0
10, 5536, Note_on_c, 5, 74, 0
10, 5586, Note_on_c, 5, 72, 69
10, 5586, Note_on_c, 5, 77, 61
10, 5586, Note_on_c, 5, 74, 64
10, 5688, Note_on_c, 5, 77, 0
10, 5691, Note_on_c, 5, 74, 0
10, 5695, Note_on_c, 5, 72, 0
10, 5763, Note_on_c, 5, 77, 70
10, 5763, Note_on_c, 5, 81, 70
10, 6435, Note_on_c, 5, 77, 0
10, 6435, Note_on_c, 5, 81, 0
10, 6723, Note_on_c, 5, 77, 76
10, 6723, Note_on_c, 5, 81, 76
10, 6758, Note_on_c, 5, 77, 0
10, 6758, Note_on_c, 5, 81, 0
10, 7203, Note_on_c, 5, 77, 76
10, 7203, Note_on_c, 5, 81, 76
10, 7238, Note_on_c, 5, 77, 0
10, 7238, Note_on_c, 5, 81, 0
10, 7683, Note_on_c, 5, 77, 76
10, 7683, Note_on_c, 5, 81, 76
10, 7718, Note_on_c, 5, 77, 0
10, 7718, Note_on_c, 5, 81, 0
10, 8163, Note_on_c, 5, 77, 76
10, 8163, Note_on_c, 5, 81, 76
10, 8198, Note_on_c, 5, 77, 0
10, 8198, Note_on_c, 5, 81, 0
10, 8646, Note_on_c, 5, 74, 82
10, 8646, Note_on_c, 5, 80, 63
10, 8646, Note_on_c, 5, 77, 60
10, 8762, Note_on_c, 5, 80, 0
10, 8764, Note_on_c, 5, 77, 0
10, 8776, Note_on_c, 5, 74, 0
10, 8826, Note_on_c, 5, 72, 61
10, 8826, Note_on_c, 5, 77, 53
10, 8826, Note_on_c, 5, 74, 56
10, 9342, Note_on_c, 5, 74, 0
10, 9355, Note_on_c, 5, 77, 0
10, 9360, Note_on_c, 5, 72, 0
10, 9426, Note_on_c, 5, 74, 90
10, 9426, Note_on_c, 5, 77, 75
10, 9426, Note_on_c, 5, 80, 99
10, 9453, Note_on_c, 5, 80, 0
10, 9461, Note_on_c, 5, 74, 0
10, 9461, Note_on_c, 5, 77, 0
10, 9606, Note_on_c, 5, 72, 76
10, 9666, Note_on_c, 5, 81, 83
10, 9666, Note_on_c, 5, 77, 46
10, 10352, Note_on_c, 5, 72, 0
10, 10363, Note_on_c, 5, 81, 0
10, 10386, Note_on_c, 5, 81, 80
10, 10386, Note_on_c, 5, 72, 71
10, 10408, Note_on_c, 5, 81, 0
10, 10411, Note_on_c, 5, 77, 0
10, 10421, Note_on_c, 5, 72, 0
10, 10506, Note_on_c, 5, 72, 70
10, 10535, Note_on_c, 5, 72, 0
10, 10563, Note_on_c, 5, 76, 70
10, 10563, Note_on_c, 5, 79, 70
10, 10563, Note_on_c, 5, 82, 70
10, 11035, Note_on_c, 5, 76, 0
10, 11035, Note_on_c, 5, 79, 0
10, 11035, Note_on_c, 5, 82, 0
10, 11045, Note_on_c, 5, 74, 82
10, 11045, Note_on_c, 5, 80, 63
10, 11045, Note_on_c, 5, 77, 60
10, 11161, Note_on_c, 5, 80, 0
10, 11163, Note_on_c, 5, 77, 0
10, 11175, Note_on_c, 5, 74, 0
10, 11225, Note_on_c, 5, 72, 61
10, 11225, Note_on_c, 5, 77, 53
10, 11225, Note_on_c, 5, 74, 56
10, 11515, Note_on_c, 5, 72, 0
10, 11515, Note_on_c, 5, 77, 0
10, 11515, Note_on_c, 5, 74, 0
10, 11523, Note_on_c, 5, 77, 70
10, 11523, Note_on_c, 5, 81, 70
10, 12195, Note_on_c, 5, 77, 0
10, 12195, Note_on_c, 5, 81, 0
10, 12483, Note_on_c, 5, 77, 76
10, 12483, Note_on_c, 5, 81, 76
10, 12518, Note_on_c, 5, 77, 0
10, 12518, Note_on_c, 5, 81, 0
10, 12963, Note_on_c, 5, 77, 76
10, 12963, Note_on_c, 5, 81, 76
10, 12998, Note_on_c, 5, 77, 0
10, 12998, Note_on_c, 5, 81, 0
10, 13443, Note_on_c, 5, 77, 76
10, 13443, Note_on_c, 5, 81, 76
10, 13478, Note_on_c, 5, 77, 0
10, 13478, Note_on_c, 5, 81, 0
10, 13923, Note_on_c, 5, 77, 76
10, 13923, Note_on_c, 5, 81, 76
10, 13958, Note_on_c, 5, 77, 0
10, 13958, Note_on_c, 5, 81, 0
10, 14403, Note_on_c, 5, 74, 70
10, 14403, Note_on_c, 5, 77, 70
10, 14403, Note_on_c, 5, 80, 70
10, 15075, Note_on_c, 5, 74, 0
10, 15075, Note_on_c, 5, 77, 0
10, 15075, Note_on_c, 5, 80, 0
10, 15365, Note_on_c, 5, 77, 87
10, 15365, Note_on_c, 5, 81, 69
10, 15481, Note_on_c, 5, 81, 0
10, 15495, Note_on_c, 5, 77, 0
10, 15545, Note_on_c, 5, 72, 67
10, 15545, Note_on_c, 5, 81, 58
10, 15545, Note_on_c, 5, 77, 62
10, 16061, Note_on_c, 5, 77, 0
10, 16074, Note_on_c, 5, 81, 0
10, 16079, Note_on_c, 5, 72, 0
10, 16145, Note_on_c, 5, 72, 67
10, 16187, Note_on_c, 5, 72, 0
10, 16205, Note_on_c, 5, 81, 80
10, 16265, Note_on_c, 5, 72, 91
10, 16282, Note_on_c, 5, 81, 0
10, 16315, Note_on_c, 5, 72, 0
10, 16446, Note_on_c, 5, 76, 90
10, 16446, Note_on_c, 5, 82, 71
10, 16446, Note_on_c, 5, 79, 68
10, 16562, Note_on_c, 5, 82, 0
10, 16564, Note_on_c, 5, 79, 0
10, 16576, Note_on_c, 5, 76, 0
10, 16626, Note_on_c, 5, 72, 69
10, 16626, Note_on_c, 5, 79, 61
10, 16626, Note_on_c, 5, 76, 64
10, 16728, Note_on_c, 5, 79, 0
10, 16731, Note_on_c, 5, 76, 0
10, 16735, Note_on_c, 5, 72, 0
10, 16805, Note_on_c, 5, 74, 91
10, 16805, Note_on_c, 5, 80, 74
10, 16805, Note_on_c, 5, 77, 69
10, 16921, Note_on_c, 5, 80, 0
10, 16923, Note_on_c, 5, 77, 0
10, 16935, Note_on_c, 5, 74, 0
10, 16985, Note_on_c, 5, 72, 70
10, 16985, Note_on_c, 5, 77, 62
10, 16985, Note_on_c, 5, 74, 67
10, 17065, Note_on_c, 5, 72, 0
10, 17065, Note_on_c, 5, 77, 0
10, 17065, Note_on_c, 5, 74, 0
10, 17100, Note_on_c, 5, 68, 67
10, 17160, Note_on_c, 5, 77, 75
10, 17182, Note_on_c, 5, 68, 0
10, 17220, Note_on_c, 5, 72, 70
10, 17233, Note_on_c, 5, 77, 0
10, 17272, Note_on_c, 5, 72, 0
10, 17286, Note_on_c, 5, 77, 82
10, 17286, Note_on_c, 5, 81, 63
10, 17402, Note_on_c, 5, 81, 0
10, 17416, Note_on_c, 5, 77, 0
10, 17466, Note_on_c, 5, 72, 61
10, 17466, Note_on_c, 5, 81, 53
10, 17466, Note_on_c, 5, 77, 56
10, 17982, Note_on_c, 5, 77, 0
10, 17995, Note_on_c, 5, 81, 0
10, 18000, Note_on_c, 5, 72, 0
10, 18066, Note_on_c, 5, 77, 90
10, 18066, Note_on_c, 5, 81, 75
10, 18093, Note_on_c, 5, 81, 0
10, 18101, Note_on_c, 5, 77, 0
10, 18246, Note_on_c, 5, 72, 70
10, 18306, Note_on_c, 5, 81, 77
10, 18306, Note_on_c, 5, 77, 40
10, 18650, Note_on_c, 5, 72, 0
10, 18650, Note_on_c, 5, 81, 0
10, 18650, Note_on_c, 5, 77, 0
10, 18665, Note_on_c, 5, 77, 83
10, 18665, Note_on_c, 5, 81, 64
10, 18839, Note_on_c, 5, 81, 0
10, 18853, Note_on_c, 5, 77, 0
10, 18905, Note_on_c, 5, 72, 62
10, 18905, Note_on_c, 5, 81, 54
10, 18905, Note_on_c, 5, 77, 58
10, 18985, Note_on_c, 5, 72, 0
10, 18985, Note_on_c, 5, 81, 0
10, 18985, Note_on_c, 5, 77, 0
10, 19020, Note_on_c, 5, 69, 58
10, 19080, Note_on_c, 5, 81, 67
10, 19102, Note_on_c, 5, 69, 0
10, 19140, Note_on_c, 5, 72, 62
10, 19153, Note_on_c, 5, 81, 0
10, 19192, Note_on_c, 5, 72, 0
10, 19203, Note_on_c, 5, 77, 62
10, 19203, Note_on_c, 5, 81, 62
10, 19203, Note_on_c, 5, 84, 62
10, 19875, Note_on_c, 5, 77, 0
10, 19875, Note_on_c, 5, 81, 0
10, 19875, Note_on_c, 5, 84, 0
10, 20163, Note_on_c, 5, 74, 62
10, 20163, Note_on_c, 5, 77, 62
10, 20163, Note_on_c, 5, 80, 62
10, 20835, Note_on_c, 5, 74, 0
10, 20835, Note_on_c, 5, 77, 0
10, 20835, Note_on_c, 5, 80, 0
10, 21126, Note_on_c, 5, 72, 68
10, 21186, Note_on_c, 5, 84, 75
10, 21186, Note_on_c, 5, 81, 58
10, 21186, Note_on_c, 5, 77, 37
10, 21872, Note_on_c, 5, 72, 0
10, 21883, Note_on_c, 5, 84, 0
10, 21883, Note_on_c, 5, 81, 0
10, 21906, Note_on_c, 5, 81, 71
10, 21906, Note_on_c, 5, 84, 67
10, 21906, Note_on_c, 5, 72, 63
10, 21928, Note_on_c, 5, 81, 0
10, 21931, Note_on_c, 5, 77, 0
10, 21938, Note_on_c, 5, 84, 0
10, 21941, Note_on_c, 5, 72, 0
10, 22025, Note_on_c, 5, 76, 82
10, 22025, Note_on_c, 5, 82, 63
10, 22025, Note_on_c, 5, 79, 60
10, 22199, Note_on_c, 5, 82, 0
10, 22201, Note_on_c, 5, 79, 0
10, 22213, Note_on_c, 5, 76, 0
10, 22265, Note_on_c, 5, 72, 61
10, 22265, Note_on_c, 5, 79, 53
10, 22265, Note_on_c, 5, 76, 56
10, 22490, Note_on_c, 5, 72, 0
10, 22490, Note_on_c, 5, 79, 0
10, 22490, Note_on_c, 5, 76, 0
10, 22505, Note_on_c, 5, 74, 82
10, 22505, Note_on_c, 5, 80, 63
10, 22505, Note_on_c, 5, 77, 60
10, 22679, Note_on_c, 5, 80, 0
10, 22681, Note_on_c, 5, 77, 0
10, 22693, Note_on_c, 5, 74, 0
10, 22745, Note_on_c, 5, 72, 61
10, 22745, Note_on_c, 5, 77, 53
10, 22745, Note_on_c, 5, 74, 56
10, 23035, Note_on_c, 5, 72, 0
10, 23035, Note_on_c, 5, 77, 0
10, 23035, Note_on_c, 5, 74, 0
10, 23046, Note_on_c, 5, 81, 74
10, 23046, Note_on_c, 5, 84, 55
10, 23371, Note_on_c, 5, 81, 0
10, 23375, Note_on_c, 5, 84, 0
10, 23462, Note_on_c, 5, 81, 48
10, 23466, Note_on_c, 5, 77, 53
10, 23742, Note_on_c, 5, 77, 0
10, 23756, Note_on_c, 5, 81, 0
10, 23826, Note_on_c, 5, 81, 82
10, 23826, Note_on_c, 5, 84, 91
10, 23853, Note_on_c, 5, 84, 0
10, 23861, Note_on_c, 5, 81, 0
10, 24006, Note_on_c, 5, 81, 74
10, 24006, Note_on_c, 5, 84, 55
10, 24331, Note_on_c, 5, 81, 0
10, 24335, Note_on_c, 5, 84, 0
10, 24422, Note_on_c, 5, 81, 48
10, 24426, Note_on_c, 5, 77, 53
10, 24702, Note_on_c, 5, 77, 0
10, 24716, Note_on_c, 5, 81, 0
10, 24786, Note_on_c, 5, 81, 82
10, 24786, Note_on_c, 5, 84, 91
10, 24813, Note_on_c, 5, 84, 0
10, 24821, Note_on_c, 5, 81, 0
10, 24965, Note_on_c, 5, 77, 82
10, 24965, Note_on_c, 5, 84, 63
10, 24965, Note_on_c, 5, 81, 60
10, 25081, Note_on_c, 5, 84, 0
10, 25083, Note_on_c, 5, 81, 0
10, 25095, Note_on_c, 5, 77, 0
10, 25145, Note_on_c, 5, 72, 61
10, 25145, Note_on_c, 5, 81, 53
10, 25145, Note_on_c, 5, 77, 56
10, 25370, Note_on_c, 5, 72, 0
10, 25370, Note_on_c, 5, 81, 0
10, 25370, Note_on_c, 5, 77, 0
10, 25385, Note_on_c, 5, 75, 82
10, 25385, Note_on_c, 5, 81, 63
10, 25385, Note_on_c, 5, 77, 60
10, 25559, Note_on_c, 5, 81, 0
10, 25561, Note_on_c, 5, 77, 0
10, 25573, Note_on_c, 5, 75, 0
10, 25625, Note_on_c, 5, 72, 61
10, 25625, Note_on_c, 5, 77, 53
10, 25625, Note_on_c, 5, 75, 56
10, 25915, Note_on_c, 5, 72, 0
10, 25915, Note_on_c, 5, 77, 0
10, 25915, Note_on_c, 5, 75, 0
10, 25925, Note_on_c, 5, 74, 78
10, 25925, Note_on_c, 5, 80, 61
10, 25925, Note_on_c, 5, 77, 56
10, 26041, Note_on_c, 5, 80, 0
10, 26043, Note_on_c, 5, 77, 0
10, 26055, Note_on_c, 5, 74, 0
10, 26105, Note_on_c, 5, 72, 58
10, 26105, Note_on_c, 5, 77, 49
10, 26105, Note_on_c, 5, 74, 54
10, 26621, Note_on_c, 5, 74, 0
10, 26634, Note_on_c, 5, 77, 0
10, 26639, Note_on_c, 5, 72, 0
10, 26705, Note_on_c, 5, 72, 58
10, 26747, Note_on_c, 5, 72, 0
10, 26765, Note_on_c, 5, 77, 71
10, 26825, Note_on_c, 5, 72, 83
10, 26842, Note_on_c, 5, 77, 0
10, 26875, Note_on_c, 5, 72, 0
10, 26885, Note_on_c, 5, 77, 78
10, 26885, Note_on_c, 5, 84, 61
10, 26885, Note_on_c, 5, 81, 56
10, 27001, Note_on_c, 5, 84, 0
10, 27003, Note_on_c, 5, 81, 0
10, 27015, Note_on_c, 5, 77, 0
10, 27065, Note_on_c, 5, 72, 58
10, 27065, Note_on_c, 5, 81, 49
10, 27065, Note_on_c, 5, 77, 54
10, 27581, Note_on_c, 5, 77, 0
10, 27594, Note_on_c, 5, 81, 0
10, 27599, Note_on_c, 5, 72, 0
10, 27665, Note_on_c, 5, 72, 58
10, 27707, Note_on_c, 5, 72, 0
10, 27725, Note_on_c, 5, 81, 71
10, 27785, Note_on_c, 5, 72, 83
10, 27802, Note_on_c, 5, 81, 0
10, 27835, Note_on_c, 5, 72, 0
10, 27846, Note_on_c, 5, 76, 82
10, 27846, Note_on_c, 5, 82, 63
10, 27846, Note_on_c, 5, 79, 60
10, 27962, Note_on_c, 5, 82, 0
10, 27964, Note_on_c, 5, 79, 0
10, 27976, Note_on_c, 5, 76, 0
10, 28026, Note_on_c, 5, 72, 61
10, 28026, Note_on_c, 5, 79, 53
10, 28026, Note_on_c, 5, 76, 56
10, 28315, Note_on_c, 5, 72, 0
10, 28315, Note_on_c, 5, 79, 0
10, 28315, Note_on_c, 5, 76, 0
10, 28446, Note_on_c, 5, 74, 82
10, 28446, Note_on_c, 5, 80, 63
10, 28446, Note_on_c, 5, 77, 60
10, 28562, Note_on_c, 5, 80, 0
10, 28564, Note_on_c, 5, 77, 0
10, 28576, Note_on_c, 5, 74, 0
10, 28626, Note_on_c, 5, 72, 61
10, 28626, Note_on_c, 5, 77, 53
10, 28626, Note_on_c, 5, 74, 56
10, 28728, Note_on_c, 5, 77, 0
10, 28731, Note_on_c, 5, 74, 0
10, 28735, Note_on_c, 5, 72, 0
10, 28805, Note_on_c, 5, 77, 78
10, 28805, Note_on_c, 5, 84, 61
10, 28805, Note_on_c, 5, 81, 56
10, 28921, Note_on_c, 5, 84, 0
10, 28923, Note_on_c, 5, 81, 0
10, 28935, Note_on_c, 5, 77, 0
10, 28985, Note_on_c, 5, 72, 58
10, 28985, Note_on_c, 5, 81, 49
10, 28985, Note_on_c, 5, 77, 54
10, 29501, Note_on_c, 5, 77, 0
10, 29514, Note_on_c, 5, 81, 0
10, 29519, Note_on_c, 5, 72, 0
10, 29585, Note_on_c, 5, 72, 58
10, 29627, Note_on_c, 5, 72, 0
10, 29645, Note_on_c, 5, 81, 71
10, 29705, Note_on_c, 5, 72, 83
10, 29722, Note_on_c, 5, 81, 0
10, 29755, Note_on_c, 5, 72, 0
10, 29763, Note_on_c, 5, 77, 76
10, 29763, Note_on_c, 5, 81, 76
10, 29798, Note_on_c, 5, 77, 0
10, 29798, Note_on_c, 5, 81, 0
10, 30243, Note_on_c, 5, 77, 76
10, 30243, Note_on_c, 5, 81, 76
10, 30278, Note_on_c, 5, 77, 0
10, 30278, Note_on_c, 5, 81, 0
10, 30723, Note_on_c, 5, 77, 76
10, 30723, Note_on_c, 5, 81, 76
10, 30758, Note_on_c, 5, 77, 0
10, 30758, Note_on_c, 5, 81, 0
10, 31203, Note_on_c, 5, 77, 76
10, 31203, Note_on_c, 5, 81, 76
10, 31238, Note_on_c, 5, 77, 0
10, 31238, Note_on_c, 5, 81, 0
10, 31686, Note_on_c, 5, 74, 74
10, 31686, Note_on_c, 5, 80, 55
10, 31686, Note_on_c, 5, 77, 51
10, 32011, Note_on_c, 5, 77, 0
10, 32012, Note_on_c, 5, 74, 0
10, 32015, Note_on_c, 5, 80, 0
10, 32102, Note_on_c, 5, 74, 48
10, 32105, Note_on_c, 5, 77, 44
10, 32106, Note_on_c, 5, 72, 53
10, 32382, Note_on_c, 5, 72, 0
10, 32396, Note_on_c, 5, 74, 0
10, 32396, Note_on_c, 5, 77, 0
10, 32466, Note_on_c, 5, 74, 82
10, 32466, Note_on_c, 5, 77, 67
10, 32466, Note_on_c, 5, 80, 91
10, 32493, Note_on_c, 5, 80, 0
10, 32501, Note_on_c, 5, 74, 0
10, 32501, Note_on_c, 5, 77, 0
10, 32646, Note_on_c, 5, 77, 82
10, 32646, Note_on_c, 5, 81, 63
10, 32762, Note_on_c, 5, 81, 0
10, 32776, Note_on_c, 5, 77, 0
10, 32826, Note_on_c, 5, 72, 61
10, 32826, Note_on_c, 5, 81, 53
10, 32826, Note_on_c, 5, 77, 56
10, 33342, Note_on_c, 5, 77, 0
10, 33355, Note_on_c, 5, 81, 0
10, 33360, Note_on_c, 5, 72, 0
10, 33426, Note_on_c, 5, 77, 90
10, 33426, Note_on_c, 5, 81, 75
10, 33453, Note_on_c, 5, 81, 0
10, 33461, Note_on_c, 5, 77, 0
10, 33726, Note_on_c, 5, 76, 90
10, 33726, Note_on_c, 5, 82, 71
10, 33726, Note_on_c, 5, 79, 68
10, 33842, Note_on_c, 5, 82, 0
10, 33844, Note_on_c, 5, 79, 0
10, 33856, Note_on_c, 5, 76, 0
10, 33906, Note_on_c, 5, 72, 69
10, 33906, Note_on_c, 5, 79, 61
10, 33906, Note_on_c, 5, 76, 64
10, 34008, Note_on_c, 5, 79, 0
10, 34011, Note_on_c, 5, 76, 0
10, 34015, Note_on_c, 5, 72, 0
10, 34206, Note_on_c, 5, 74, 90
10, 34206, Note_on_c, 5, 80, 71
10, 34206, Note_on_c, 5, 77, 68
10, 34322, Note_on_c, 5, 80, 0
10, 34324, Note_on_c, 5, 77, 0
10, 34336, Note_on_c, 5, 74, 0
10, 34386, Note_on_c, 5, 72, 69
10, 34386, Note_on_c, 5, 77, 61
10, 34386, Note_on_c, 5, 74, 64
10, 34488, Note_on_c, 5, 77, 0
10, 34491, Note_on_c, 5, 74, 0
10, 34495, Note_on_c, 5, 72, 0
10, 34566, Note_on_c, 5, 81, 74
10, 34566, Note_on_c, 5, 84, 55
10, 34891, Note_on_c, 5, 81, 0
10, 34895, Note_on_c, 5, 84, 0
10, 34982, Note_on_c, 5, 81, 48
10, 34986, Note_on_c, 5, 77, 53
10, 35262, Note_on_c, 5, 77, 0
10, 35276, Note_on_c, 5, 81, 0
10, 35346, Note_on_c, 5, 81, 82
10, 35346, Note_on_c, 5, 84, 91
10, 35373, Note_on_c, 5, 84, 0
10, 35381, Note_on_c, 5, 81, 0
10, 35523, Note_on_c, 5, 77, 76
10, 35523, Note_on_c, 5, 81, 76
10, 35558, Note_on_c, 5, 77, 0
10, 35558, Note_on_c, 5, 81, 0
10, 36003, Note_on_c, 5, 77, 76
10, 36003, Note_on_c, 5, 81, 76
10, 36038, Note_on_c, 5, 77, 0
10, 36038, Note_on_c, 5, 81, 0
10, 36483, Note_on_c, 5, 77, 76
10, 36483, Note_on_c, 5, 81, 76
10, 36518, Note_on_c, 5, 77, 0
10, 36518, Note_on_c, 5, 81, 0
10, 36963, Note_on_c, 5, 77, 76
10, 36963, Note_on_c, 5, 81, 76
10, 36998, Note_on_c, 5, 77, 0
10, 36998, Note_on_c, 5, 81, 0
10, 37446, Note_on_c, 5, 74, 82
10, 37446, Note_on_c, 5, 80, 63
10, 37446, Note_on_c, 5, 77, 60
10, 37562, Note_on_c, 5, 80, 0
10, 37564, Note_on_c, 5, 77, 0
10, 37576, Note_on_c, 5, 74, 0
10, 37626, Note_on_c, 5, 72, 61
10, 37626, Note_on_c, 5, 77, 53
10, 37626, Note_on_c, 5, 74, 56
10, 38142, Note_on_c, 5, 74, 0
10, 38155, Note_on_c, 5, 77, 0
10, 38160, Note_on_c, 5, 72, 0
10, 38226, Note_on_c, 5, 74, 90
10, 38226, Note_on_c, 5, 77, 75
10, 38226, Note_on_c, 5, 80, 99
10, 38253, Note_on_c, 5, 80, 0
10, 38261, Note_on_c, 5, 74, 0
10, 38261, Note_on_c, 5, 77, 0
10, 38406, Note_on_c, 5, 77, 82
10, 38406, Note_on_c, 5, 81, 63
10, 38522, Note_on_c, 5, 81, 0
10, 38536, Note_on_c, 5, 77, 0
10, 38586, Note_on_c, 5, 72, 61
10, 38586, Note_on_c, 5, 81, 53
10, 38586, Note_on_c, 5, 77, 56
10, 39102, Note_on_c, 5, 77, 0
10, 39115, Note_on_c, 5, 81, 0
10, 39120, Note_on_c, 5, 72, 0
10, 39186, Note_on_c, 5, 77, 90
10, 39186, Note_on_c, 5, 81, 75
10, 39213, Note_on_c, 5, 81, 0
10, 39221, Note_on_c, 5, 77, 0
10, 39305, Note_on_c, 5, 76, 91
10, 39305, Note_on_c, 5, 82, 74
10, 39305, Note_on_c, 5, 79, 69
10, 39479, Note_on_c, 5, 82, 0
10, 39481, Note_on_c, 5, 79, 0
10, 39493, Note_on_c, 5, 76, 0
10, 39545, Note_on_c, 5, 72, 70
10, 39545, Note_on_c, 5, 79, 62
10, 39545, Note_on_c, 5, 76, 67
10, 39625, Note_on_c, 5, 72, 0
10, 39625, Note_on_c, 5, 79, 0
10, 39625, Note_on_c, 5, 76, 0
10, 39660, Note_on_c, 5, 70, 67
10, 39720, Note_on_c, 5, 79, 75
10, 39742, Note_on_c, 5, 70, 0
10, 39780, Note_on_c, 5, 72, 70
10, 39793, Note_on_c, 5, 79, 0
10, 39832, Note_on_c, 5, 72, 0
10, 39845, Note_on_c, 5, 74, 91
10, 39845, Note_on_c, 5, 80, 74
10, 39845, Note_on_c, 5, 77, 69
10, 39961, Note_on_c, 5, 80, 0
10, 39963, Note_on_c, 5, 77, 0
10, 39975, Note_on_c, 5, 74, 0
10, 40025, Note_on_c, 5, 72, 70
10, 40025, Note_on_c, 5, 77, 62
10, 40025, Note_on_c, 5, 74, 67
10, 40105, Note_on_c, 5, 72, 0
10, 40105, Note_on_c, 5, 77, 0
10, 40105, Note_on_c, 5, 74, 0
10, 40140, Note_on_c, 5, 68, 67
10, 40200, Note_on_c, 5, 77, 75
10, 40222, Note_on_c, 5, 68, 0
10, 40260, Note_on_c, 5, 72, 70
10, 40273, Note_on_c, 5, 77, 0
10, 40312, Note_on_c, 5, 72, 0
10, 40326, Note_on_c, 5, 81, 74
10, 40326, Note_on_c, 5, 84, 55
10, 40651, Note_on_c, 5, 81, 0
10, 40655, Note_on_c, 5, 84, 0
10, 40742, Note_on_c, 5, 81, 48
10, 40746, Note_on_c, 5, 77, 53
10, 41022, Note_on_c, 5, 77, 0
10, 41036, Note_on_c, 5, 81, 0
10, 41106, Note_on_c, 5, 81, 82
10, 41106, Note_on_c, 5, 84, 91
10, 41133, Note_on_c, 5, 84, 0
10, 41141, Note_on_c, 5, 81, 0
10, 41283, Note_on_c, 5, 77, 76
10, 41283, Note_on_c, 5, 81, 76
10, 41318, Note_on_c, 5, 77, 0
10, 41318, Note_on_c, 5, 81, 0
10, 41763, Note_on_c, 5, 77, 76
10, 41763, Note_on_c, 5, 81, 76
10, 41798, Note_on_c, 5, 77, 0
10, 41798, Note_on_c, 5, 81, 0
10, 42243, Note_on_c, 5, 77, 76
10, 42243, Note_on_c, 5, 81, 76
10, 42278, Note_on_c, 5, 77, 0
10, 42278, Note_on_c, 5, 81, 0
10, 42723, Note_on_c, 5, 77, 76
10, 42723, Note_on_c, 5, 81, 76
10, 42758, Note_on_c, 5, 77, 0
10, 42758, Note_on_c, 5, 81, 0
10, 43206, Note_on_c, 5, 72, 76
10, 43266, Note_on_c, 5, 80, 83
10, 43266, Note_on_c, 5, 77, 67
10, 43266, Note_on_c, 5, 74, 46
10, 43952, Note_on_c, 5, 72, 0
10, 43963, Note_on_c, 5, 80, 0
10, 43963, Note_on_c, 5, 77, 0
10, 43986, Note_on_c, 5, 77, 80
10, 43986, Note_on_c, 5, 80, 75
10, 43986, Note_on_c, 5, 72, 71
10, 44008, Note_on_c, 5, 77, 0
10, 44011, Note_on_c, 5, 74, 0
10, 44018, Note_on_c, 5, 80, 0
10, 44021, Note_on_c, 5, 72, 0
10, 44106, Note_on_c, 5, 72, 70
10, 44135, Note_on_c, 5, 72, 0
10, 44166, Note_on_c, 5, 77, 82
10, 44166, Note_on_c, 5, 81, 63
10, 44282, Note_on_c, 5, 81, 0
10, 44296, Note_on_c, 5, 77, 0
10, 44346, Note_on_c, 5, 72, 61
10, 44346, Note_on_c, 5, 81, 53
10, 44346, Note_on_c, 5, 77, 56
10, 44862, Note_on_c, 5, 77, 0
10, 44875, Note_on_c, 5, 81, 0
10, 44880, Note_on_c, 5, 72, 0
10, 44946, Note_on_c, 5, 77, 90
10, 44946, Note_on_c, 5, 81, 75
10, 44973, Note_on_c, 5, 81, 0
10, 44981, Note_on_c, 5, 77, 0
10, 45125, Note_on_c, 5, 76, 91
10, 45125, Note_on_c, 5, 82, 74
10, 45125, Note_on_c, 5, 79, 69
10, 45241, Note_on_c, 5, 82, 0
10, 45243, Note_on_c, 5, 79, 0
10, 45255, Note_on_c, 5, 76, 0
10, 45305, Note_on_c, 5, 72, 70
10, 45305, Note_on_c, 5, 79, 62
10, 45305, Note_on_c, 5, 76, 67
10, 45385, Note_on_c, 5, 72, 0
10, 45385, Note_on_c, 5, 79, 0
10, 45385, Note_on_c, 5, 76, 0
10, 45420, Note_on_c, 5, 70, 67
10, 45480, Note_on_c, 5, 79, 75
10, 45502, Note_on_c, 5, 70, 0
10, 45540, Note_on_c, 5, 72, 70
10, 45553, Note_on_c, 5, 79, 0
10, 45592, Note_on_c, 5, 72, 0
10, 45605, Note_on_c, 5, 74, 82
10, 45605, Note_on_c, 5, 80, 63
10, 45605, Note_on_c, 5, 77, 60
10, 45721, Note_on_c, 5, 80, 0
10, 45723, Note_on_c, 5, 77, 0
10, 45735, Note_on_c, 5, 74, 0
10, 45785, Note_on_c, 5, 72, 61
10, 45785, Note_on_c, 5, 77, 53
10, 45785, Note_on_c, 5, 74, 56
10, 46075, Note_on_c, 5, 72, 0
10, 46075, Note_on_c, 5, 77, 0
10, 46075, Note_on_c, 5, 74, 0
10, 46085, Note_on_c, 5, 77, 87
10, 46085, Note_on_c, 5, 81, 69
10, 46201, Note_on_c, 5, 81, 0
10, 46215, Note_on_c, 5, 77, 0
10, 46265, Note_on_c, 5, 72, 67
10, 46265, Note_on_c, 5, 81, 58
10, 46265, Note_on_c, 5, 77, 62
10, 46781, Note_on_c, 5, 77, 0
10, 46794, Note_on_c, 5, 81, 0
10, 46799, Note_on_c, 5, 72, 0
10, 46865, Note_on_c, 5, 72, 67
10, 46907, Note_on_c, 5, 72, 0
10, 46925, Note_on_c, 5, 81, 80
10, 46985, Note_on_c, 5, 72, 91
10, 47002, Note_on_c, 5, 81, 0
10, 47035, Note_on_c, 5, 72, 0
10, 47043, Note_on_c, 5, 77, 62
10, 47043, Note_on_c, 5, 81, 62
10, 47043, Note_on_c, 5, 84, 62
10, 47515, Note_on_c, 5, 77, 0
10, 47515, Note_on_c, 5, 81, 0
10, 47515, Note_on_c, 5, 84, 0
10, 47526, Note_on_c, 5, 77, 82
10, 47526, Note_on_c, 5, 84, 63
10, 47526, Note_on_c, 5, 81, 60
10, 47642, Note_on_c, 5, 84, 0
10, 47644, Note_on_c, 5, 81, 0
10, 47656, Note_on_c, 5, 77, 0
10, 47706, Note_on_c, 5, 72, 61
10, 47706, Note_on_c, 5, 81, 53
10, 47706, Note_on_c, 5, 77, 56
10, 47995, Note_on_c, 5, 72, 0
10, 47995, Note_on_c, 5, 81, 0
10, 47995, Note_on_c, 5, 77, 0
10, 48005, Note_on_c, 5, 77, 78
10, 48005, Note_on_c, 5, 84, 61
10, 48005, Note_on_c, 5, 81, 56
10, 48121, Note_on_c, 5, 84, 0
10, 48123, Note_on_c, 5, 81, 0
10, 48135, Note_on_c, 5, 77, 0
10, 48185, Note_on_c, 5, 72, 58
10, 48185, Note_on_c, 5, 81, 49
10, 48185, Note_on_c, 5, 77, 54
10, 48701, Note_on_c, 5, 77, 0
10, 48714, Note_on_c, 5, 81, 0
10, 48719, Note_on_c, 5, 72, 0
10, 48785, Note_on_c, 5, 72, 58
10, 48827, Note_on_c, 5, 72, 0
10, 48845, Note_on_c, 5, 81, 71
10, 48905, Note_on_c, 5, 72, 83
10, 48922, Note_on_c, 5, 81, 0
10, 48955, Note_on_c, 5, 72, 0
10, 48966, Note_on_c, 5, 74, 74
10, 48966, Note_on_c, 5, 80, 55
10, 48966, Note_on_c, 5, 77, 51
10, 49291, Note_on_c, 5, 77, 0
10, 49292, Note_on_c, 5, 74, 0
10, 49295, Note_on_c, 5, 80, 0
10, 49382, Note_on_c, 5, 74, 48
10, 49385, Note_on_c, 5, 77, 44
10, 49386, Note_on_c, 5, 72, 53
10, 49662, Note_on_c, 5, 72, 0
10, 49676, Note_on_c, 5, 74, 0
10, 49676, Note_on_c, 5, 77, 0
10, 49746, Note_on_c, 5, 74, 82
10, 49746, Note_on_c, 5, 77, 67
10, 49746, Note_on_c, 5, 80, 91
10, 49773, Note_on_c, 5, 80, 0
10, 49781, Note_on_c, 5, 74, 0
10, 49781, Note_on_c, 5, 77, 0
10, 49926, Note_on_c, 5, 77, 74
10, 49926, Note_on_c, 5, 84, 55
10, 49926, Note_on_c, 5, 81, 51
10, 50042, Note_on_c, 5, 84, 0
10, 50044, Note_on_c, 5, 81, 0
10, 50056, Note_on_c, 5, 77, 0
10, 50106, Note_on_c, 5, 72, 53
10, 50106, Note_on_c, 5, 81, 44
10, 50106, Note_on_c, 5, 77, 48
10, 50622, Note_on_c, 5, 77, 0
10, 50635, Note_on_c, 5, 81, 0
10, 50640, Note_on_c, 5, 72, 0
10, 50706, Note_on_c, 5, 77, 82
10, 50706, Note_on_c, 5, 81, 67
10, 50706, Note_on_c, 5, 84, 91
10, 50733, Note_on_c, 5, 84, 0
10, 50741, Note_on_c, 5, 77, 0
10, 50741, Note_on_c, 5, 81, 0
10, 50885, Note_on_c, 5, 76, 82
10, 50885, Note_on_c, 5, 82, 63
10, 50885, Note_on_c, 5, 79, 60
10, 51001, Note_on_c, 5, 82, 0
10, 51003, Note_on_c, 5, 79, 0
10, 51015, Note_on_c, 5, 76, 0
10, 51065, Note_on_c, 5, 72, 61
10, 51065, Note_on_c, 5, 79, 53
10, 51065, Note_on_c, 5, 76, 56
10, 51290, Note_on_c, 5, 72, 0
10, 51290, Note_on_c, 5, 79, 0
10, 51290, Note_on_c, 5, 76, 0
10, 51305, Note_on_c, 5, 74, 83
10, 51305, Note_on_c, 5, 80, 64
10, 51305, Note_on_c, 5, 77, 61
10, 51479, Note_on_c, 5, 80, 0
10, 51481, Note_on_c, 5, 77, 0
10, 51493, Note_on_c, 5, 74, 0
10, 51545, Note_on_c, 5, 72, 62
10, 51545, Note_on_c, 5, 77, 54
10, 51545, Note_on_c, 5, 74, 58
10, 51625, Note_on_c, 5, 72, 0
10, 51625, Note_on_c, 5, 77, 0
10, 51625, Note_on_c, 5, 74, 0
10, 51660, Note_on_c, 5, 68, 58
10, 51720, Note_on_c, 5, 77, 67
10, 51742, Note_on_c, 5, 68, 0
10, 51780, Note_on_c, 5, 72, 62
10, 51793, Note_on_c, 5, 77, 0
10, 51832, Note_on_c, 5, 72, 0
10, 51845, Note_on_c, 5, 77, 77
10, 51845, Note_on_c, 5, 84, 60
10, 51845, Note_on_c, 5, 81, 55
10, 51961, Note_on_c, 5, 84, 0
10, 51963, Note_on_c, 5, 81, 0
10, 51975, Note_on_c, 5, 77, 0
10, 52025, Note_on_c, 5, 77, 56
10, 52025, Note_on_c, 5, 81, 77
10, 52289, Note_on_c, 5, 77, 0
10, 52301, Note_on_c, 5, 81, 0
10, 52500, Note_on_c, 5, 77, 82
10, 52500, Note_on_c, 5, 81, 77
10, 52500, Note_on_c, 5, 84, 78
10, 52665, Note_on_c, 5, 84, 0
10, 52679, Note_on_c, 5, 81, 0
10, 52684, Note_on_c, 5, 77, 0
10, 52800, Control_c, 5, 64, 0
10, 52800, End_track
11, 0, Start_track
11, 0, MIDI_port, 0
11, 0, Sequencer_specific, 7, 0, 0, 0, 106, 0, 4, 0
11, 0, Title_t, "Alto Sax"
11, 0, Control_c, 7, 121, 0
11, 63, Control_c, 7, 0, 0
11, 64, Control_c, 7, 32, 0
11, 65, Program_c, 7, 65
11, 66, Control_c, 7, 7, 120
11, 67, Control_c, 7, 10, 64
11, 68, Control_c, 7, 123, 0
11, 69, Control_c, 7, 91, 70
11, 70, Control_c, 7, 93, 20
11, 24074, Note_on_c, 7, 65, 127
11, 24123, Note_on_c, 7, 65, 0
11, 24195, Note_on_c, 7, 65, 127
11, 24241, Note_on_c, 7, 65, 0
11, 24314, Note_on_c, 7, 65, 127
11, 24362, Note_on_c, 7, 65, 0
11, 24432, Note_on_c, 7, 65, 126
11, 24523, Note_on_c, 7, 65, 0
11, 24547, Note_on_c, 7, 65, 118
11, 24589, Note_on_c, 7, 65, 0
11, 24608, Note_on_c, 7, 62, 120
11, 24644, Note_on_c, 7, 62, 0
11, 24666, Note_on_c, 7, 62, 119
11, 24705, Note_on_c, 7, 62, 0
11, 24732, Note_on_c, 7, 60, 94
11, 24756, Note_on_c, 7, 60, 0
11, 24785, Note_on_c, 7, 60, 115
11, 24828, Note_on_c, 7, 60, 0
11, 24846, Note_on_c, 7, 62, 127
11, 24906, Note_on_c, 7, 62, 0
11, 24909, Note_on_c, 7, 60, 54
11, 24942, Note_on_c, 7, 60, 0
11, 24975, Note_on_c, 7, 62, 58
11, 25020, Note_on_c, 7, 62, 0
11, 25033, Note_on_c, 7, 65, 85
11, 25067, Note_on_c, 7, 65, 0
11, 25089, Note_on_c, 7, 65, 127
11, 25148, Note_on_c, 7, 65, 0
11, 25158, Note_on_c, 7, 62, 35
11, 25191, Note_on_c, 7, 62, 0
11, 25212, Note_on_c, 7, 65, 121
11, 25316, Note_on_c, 7, 65, 0
11, 25331, Note_on_c, 7, 67, 127
11, 25387, Note_on_c, 7, 67, 0
11, 25389, Note_on_c, 7, 65, 86
11, 25417, Note_on_c, 7, 65, 0
11, 25443, Note_on_c, 7, 56, 127
11, 25489, Note_on_c, 7, 56, 0
11, 25514, Note_on_c, 7, 57, 92
11, 25544, Note_on_c, 7, 57, 0
11, 25575, Note_on_c, 7, 57, 98
11, 25605, Note_on_c, 7, 57, 0
11, 25632, Note_on_c, 7, 57, 90
11, 25666, Note_on_c, 7, 57, 0
11, 25694, Note_on_c, 7, 57, 115
11, 25726, Note_on_c, 7, 57, 0
11, 25989, Note_on_c, 7, 62, 115
11, 26028, Note_on_c, 7, 62, 0
11, 26052, Note_on_c, 7, 65, 122
11, 26089, Note_on_c, 7, 65, 0
11, 26110, Note_on_c, 7, 67, 106
11, 26143, Note_on_c, 7, 67, 0
11, 26168, Note_on_c, 7, 74, 127
11, 26231, Note_on_c, 7, 74, 0
11, 26232, Note_on_c, 7, 67, 94
11, 26270, Note_on_c, 7, 67, 0
11, 26284, Note_on_c, 7, 68, 127
11, 26356, Note_on_c, 7, 68, 0
11, 26830, Note_on_c, 7, 68, 127
11, 26871, Note_on_c, 7, 68, 0
11, 26895, Note_on_c, 7, 69, 73
11, 26950, Note_on_c, 7, 72, 113
11, 26958, Note_on_c, 7, 69, 0
11, 26990, Note_on_c, 7, 72, 0
11, 27013, Note_on_c, 7, 75, 127
11, 27075, Note_on_c, 7, 75, 0
11, 27076, Note_on_c, 7, 69, 60
11, 27118, Note_on_c, 7, 69, 0
11, 27131, Note_on_c, 7, 74, 127
11, 27176, Note_on_c, 7, 74, 0
11, 27195, Note_on_c, 7, 67, 72
11, 27247, Note_on_c, 7, 67, 0
11, 27258, Note_on_c, 7, 68, 98
11, 27300, Note_on_c, 7, 68, 0
11, 27317, Note_on_c, 7, 69, 91
11, 27366, Note_on_c, 7, 69, 0
11, 27375, Note_on_c, 7, 75, 127
11, 27436, Note_on_c, 7, 69, 60
11, 27440, Note_on_c, 7, 75, 0
11, 27485, Note_on_c, 7, 69, 0
11, 27491, Note_on_c, 7, 74, 121
11, 27551, Note_on_c, 7, 74, 0
11, 27552, Note_on_c, 7, 75, 127
11, 27596, Note_on_c, 7, 75, 0
11, 27670, Note_on_c, 7, 75, 127
11, 27721, Note_on_c, 7, 75, 0
11, 27736, Note_on_c, 7, 76, 127
11, 27778, Note_on_c, 7, 76, 0
11, 27792, Note_on_c, 7, 72, 127
11, 27838, Note_on_c, 7, 72, 0
11, 27853, Note_on_c, 7, 67, 66
11, 27900, Note_on_c, 7, 67, 0
11, 27908, Note_on_c, 7, 66, 127
11, 27957, Note_on_c, 7, 66, 0
11, 27969, Note_on_c, 7, 65, 96
11, 28018, Note_on_c, 7, 65, 0
11, 28029, Note_on_c, 7, 63, 127
11, 28080, Note_on_c, 7, 63, 0
11, 28096, Note_on_c, 7, 64, 86
11, 28144, Note_on_c, 7, 64, 0
11, 28144, Note_on_c, 7, 67, 114
11, 28199, Note_on_c, 7, 67, 0
11, 28206, Note_on_c, 7, 69, 127
11, 28261, Note_on_c, 7, 69, 0
11, 28264, Note_on_c, 7, 67, 114
11, 28293, Note_on_c, 7, 67, 0
11, 28325, Note_on_c, 7, 74, 103
11, 28353, Note_on_c, 7, 70, 96
11, 28365, Note_on_c, 7, 68, 101
11, 28384, Note_on_c, 7, 70, 0
11, 28385, Note_on_c, 7, 74, 0
11, 28390, Note_on_c, 7, 65, 115
11, 28406, Note_on_c, 7, 68, 0
11, 28432, Note_on_c, 7, 65, 0
11, 28444, Note_on_c, 7, 63, 127
11, 28503, Note_on_c, 7, 63, 0
11, 28511, Note_on_c, 7, 60, 88
11, 28559, Note_on_c, 7, 60, 0
11, 28572, Note_on_c, 7, 61, 121
11, 28619, Note_on_c, 7, 61, 0
11, 28630, Note_on_c, 7, 62, 122
11, 28681, Note_on_c, 7, 62, 0
11, 28693, Note_on_c, 7, 65, 84
11, 28733, Note_on_c, 7, 65, 0
11, 28749, Note_on_c, 7, 67, 127
11, 28803, Note_on_c, 7, 67, 0
11, 28861, Note_on_c, 7, 65, 114
11, 28898, Note_on_c, 7, 65, 0
11, 28929, Note_on_c, 7, 74, 92
11, 28952, Note_on_c, 7, 70, 84
11, 28970, Note_on_c, 7, 68, 74
11, 28984, Note_on_c, 7, 74, 0
11, 28984, Note_on_c, 7, 70, 0
11, 28995, Note_on_c, 7, 65, 118
11, 29009, Note_on_c, 7, 68, 0
11, 29031, Note_on_c, 7, 65, 0
11, 29057, Note_on_c, 7, 63, 127
11, 29110, Note_on_c, 7, 63, 0
11, 29115, Note_on_c, 7, 60, 89
11, 29155, Note_on_c, 7, 60, 0
11, 29173, Note_on_c, 7, 61, 114
11, 29215, Note_on_c, 7, 61, 0
11, 29232, Note_on_c, 7, 62, 116
11, 29275, Note_on_c, 7, 62, 0
11, 29290, Note_on_c, 7, 65, 116
11, 29321, Note_on_c, 7, 65, 0
11, 29346, Note_on_c, 7, 65, 127
11, 29393, Note_on_c, 7, 65, 0
11, 29412, Note_on_c, 7, 67, 127
11, 29468, Note_on_c, 7, 67, 0
11, 29473, Note_on_c, 7, 62, 60
11, 29515, Note_on_c, 7, 62, 0
11, 29529, Note_on_c, 7, 65, 127
11, 29581, Note_on_c, 7, 65, 0
11, 29760, Program_c, 0, 65
11, 29760, Program_c, 0, 65
11, 29760, Program_c, 0, 65
11, 29760, Program_c, 0, 65
11, 29760, Program_c, 0, 65
11, 29760, Program_c, 0, 65
11, 29760, Program_c, 0, 65
11, 29760, Program_c, 0, 65
11, 29760, End_track
0, 0, End_of_file
