0, 0, Header, 1, 6, 960
1, 0, Start_track
1, 0, Control_c, 0, 101, 0
1, 0, Control_c, 0, 100, 0
1, 0, Control_c, 0, 6, 12
1, 0, Control_c, 0, 38, 0
1, 0, Control_c, 1, 101, 0
1, 0, Control_c, 1, 100, 0
1, 0, Control_c, 1, 6, 12
1, 0, Control_c, 1, 38, 0
1, 0, Control_c, 2, 101, 0
1, 0, Control_c, 2, 100, 0
1, 0, Control_c, 2, 6, 12
1, 0, Control_c, 2, 38, 0
1, 0, Control_c, 3, 101, 0
1, 0, Control_c, 3, 100, 0
1, 0, Control_c, 3, 6, 12
1, 0, Control_c, 3, 38, 0
1, 0, Control_c, 4, 101, 0
1, 0, Control_c, 4, 100, 0
1, 0, Control_c, 4, 6, 12
1, 0, Control_c, 4, 38, 0
1, 0, Control_c, 5, 101, 0
1, 0, Control_c, 5, 100, 0
1, 0, Control_c, 5, 6, 12
1, 0, Control_c, 5, 38, 0
1, 0, Control_c, 6, 101, 0
1, 0, Control_c, 6, 100, 0
1, 0, Control_c, 6, 6, 12
1, 0, Control_c, 6, 38, 0
1, 0, Control_c, 7, 101, 0
1, 0, Control_c, 7, 100, 0
1, 0, Control_c, 7, 6, 12
1, 0, Control_c, 7, 38, 0
1, 0, Control_c, 8, 101, 0
1, 0, Control_c, 8, 100, 0
1, 0, Control_c, 8, 6, 12
1, 0, Control_c, 8, 38, 0
1, 0, Control_c, 9, 101, 0
1, 0, Control_c, 9, 100, 0
1, 0, Control_c, 9, 6, 12
1, 0, Control_c, 9, 38, 0
1, 0, Control_c, 10, 101, 0
1, 0, Control_c, 10, 100, 0
1, 0, Control_c, 10, 6, 12
1, 0, Control_c, 10, 38, 0
1, 0, Control_c, 11, 101, 0
1, 0, Control_c, 11, 100, 0
1, 0, Control_c, 11, 6, 12
1, 0, Control_c, 11, 38, 0
1, 0, Control_c, 12, 101, 0
1, 0, Control_c, 12, 100, 0
1, 0, Control_c, 12, 6, 12
1, 0, Control_c, 12, 38, 0
1, 0, Control_c, 13, 101, 0
1, 0, Control_c, 13, 100, 0
1, 0, Control_c, 13, 6, 12
1, 0, Control_c, 13, 38, 0
1, 0, Control_c, 14, 101, 0
1, 0, Control_c, 14, 100, 0
1, 0, Control_c, 14, 6, 12
1, 0, Control_c, 14, 38, 0
1, 0, Control_c, 15, 101, 0
1, 0, Control_c, 15, 100, 0
1, 0, Control_c, 15, 6, 12
1, 0, Control_c, 15, 38, 0
1, 0, Time_signature, 4, 2, 24, 8
1, 0, Tempo, 681818
1, 0, End_track
2, 0, Start_track
2, 0, Pitch_bend_c, 0, 8192
2, 0, Control_c, 0, 7, 87
2, 0, Control_c, 0, 10, 31
2, 0, Control_c, 0, 93, 31
2, 0, Control_c, 0, 91, 31
2, 0, Control_c, 0, 95, 0
2, 0, Control_c, 0, 92, 0
2, 0, Control_c, 0, 11, 127
2, 0, Program_c, 0, 29
2, 0, Control_c, 1, 7, 87
2, 0, Control_c, 1, 10, 31
2, 0, Control_c, 1, 93, 31
2, 0, Control_c, 1, 91, 31
2, 0, Control_c, 1, 95, 0
2, 0, Control_c, 1, 92, 0
2, 0, Control_c, 1, 11, 127
2, 0, Program_c, 1, 29
2, 0, Note_on_c, 0, 39, 95
2, 240, Note_off_c, 0, 39, 95
2, 240, Note_on_c, 0, 41, 95
2, 480, Note_off_c, 0, 41, 95
2, 480, Note_on_c, 0, 43, 95
2, 720, Note_off_c, 0, 43, 95
2, 720, Note_on_c, 0, 46, 95
2, 960, Note_off_c, 0, 46, 95
2, 960, Pitch_bend_c, 1, 8192
2, 960, Note_on_c, 1, 51, 95
2, 1080, Pitch_bend_c, 1, 8320
2, 1200, Pitch_bend_c, 1, 8448
2, 1200, Pitch_bend_c, 1, 8448
2, 1440, Pitch_bend_c, 1, 8448
2, 1440, Pitch_bend_c, 1, 8192
2, 1440, Note_off_c, 1, 51, 95
2, 1440, Pitch_bend_c, 1, 8192
2, 1440, Note_on_c, 1, 51, 95
2, 1500, Pitch_bend_c, 1, 8320
2, 1560, Pitch_bend_c, 1, 8448
2, 1560, Pitch_bend_c, 1, 8448
2, 1680, Pitch_bend_c, 1, 8448
2, 1680, Pitch_bend_c, 1, 8192
2, 1680, Note_off_c, 1, 51, 95
2, 1680, Note_on_c, 0, 39, 95
2, 1920, Note_off_c, 0, 39, 95
2, 1920, Note_on_c, 0, 41, 95
2, 2160, Note_off_c, 0, 41, 95
2, 2160, Note_on_c, 0, 44, 95
2, 2160, Note_on_c, 0, 41, 95
2, 2400, Note_off_c, 0, 44, 95
2, 2400, Note_off_c, 0, 41, 95
2, 2400, Note_on_c, 0, 57, 95
2, 2400, Note_on_c, 0, 51, 95
2, 3840, Note_off_c, 0, 57, 95
2, 3840, Note_off_c, 0, 51, 95
2, 3840, Note_on_c, 0, 39, 95
2, 4080, Note_off_c, 0, 39, 95
2, 4080, Note_on_c, 0, 43, 95
2, 4320, Note_off_c, 0, 43, 95
2, 4320, Note_on_c, 0, 49, 95
2, 4560, Note_off_c, 0, 49, 95
2, 4560, Note_on_c, 0, 44, 63
2, 4800, Note_off_c, 0, 44, 63
2, 4800, Note_on_c, 0, 59, 95
2, 4800, Note_on_c, 0, 53, 95
2, 5040, Note_off_c, 0, 59, 95
2, 5040, Note_off_c, 0, 53, 95
2, 5280, Note_on_c, 0, 59, 95
2, 5280, Note_on_c, 0, 53, 95
2, 5520, Note_off_c, 0, 59, 95
2, 5520, Note_off_c, 0, 53, 95
2, 5760, Note_on_c, 0, 39, 95
2, 6000, Note_off_c, 0, 39, 95
2, 6000, Note_on_c, 0, 41, 95
2, 6240, Note_off_c, 0, 41, 95
2, 6240, Note_on_c, 0, 41, 95
2, 6480, Note_off_c, 0, 41, 95
2, 6480, Note_on_c, 0, 57, 95
2, 6480, Note_on_c, 0, 51, 95
2, 7680, Note_off_c, 0, 57, 95
2, 7680, Note_off_c, 0, 51, 95
2, 7680, Note_on_c, 0, 39, 95
2, 7920, Note_off_c, 0, 39, 95
2, 7920, Note_on_c, 0, 41, 95
2, 8160, Note_off_c, 0, 41, 95
2, 8160, Note_on_c, 0, 43, 95
2, 8400, Note_off_c, 0, 43, 95
2, 8400, Note_on_c, 0, 46, 95
2, 8640, Note_off_c, 0, 46, 95
2, 8640, Pitch_bend_c, 1, 8192
2, 8640, Note_on_c, 1, 51, 95
2, 8760, Pitch_bend_c, 1, 8320
2, 8880, Pitch_bend_c, 1, 8448
2, 8880, Pitch_bend_c, 1, 8448
2, 9120, Pitch_bend_c, 1, 8448
2, 9120, Pitch_bend_c, 1, 8192
2, 9120, Note_off_c, 1, 51, 95
2, 9120, Note_on_c, 0, 51, 95
2, 9360, Note_off_c, 0, 51, 95
2, 9360, Note_on_c, 0, 39, 95
2, 9600, Note_off_c, 0, 39, 95
2, 9600, Note_on_c, 0, 41, 95
2, 9840, Note_off_c, 0, 41, 95
2, 9840, Note_on_c, 0, 41, 95
2, 10080, Note_off_c, 0, 41, 95
2, 10080, Note_on_c, 0, 57, 95
2, 10080, Note_on_c, 0, 51, 95
2, 11520, Note_off_c, 0, 57, 95
2, 11520, Note_off_c, 0, 51, 95
2, 11520, Note_on_c, 0, 39, 95
2, 11760, Note_off_c, 0, 39, 95
2, 11760, Note_on_c, 0, 43, 95
2, 12000, Note_off_c, 0, 43, 95
2, 12000, Note_on_c, 0, 43, 95
2, 12240, Note_off_c, 0, 43, 95
2, 12240, Note_on_c, 0, 43, 95
2, 12480, Note_off_c, 0, 43, 95
2, 12480, Note_on_c, 0, 59, 95
2, 12480, Note_on_c, 0, 53, 95
2, 12960, Note_off_c, 0, 59, 95
2, 12960, Note_off_c, 0, 53, 95
2, 12960, Note_on_c, 0, 59, 95
2, 12960, Note_on_c, 0, 53, 95
2, 13200, Note_off_c, 0, 59, 95
2, 13200, Note_off_c, 0, 53, 95
2, 13440, Note_on_c, 0, 51, 95
2, 13680, Note_off_c, 0, 51, 95
2, 13680, Note_on_c, 0, 48, 95
2, 13920, Note_off_c, 0, 48, 95
2, 13920, Note_on_c, 0, 46, 95
2, 14160, Note_off_c, 0, 46, 95
2, 14160, Note_on_c, 0, 43, 95
2, 14400, Note_off_c, 0, 43, 95
2, 14400, Note_on_c, 0, 42, 95
2, 14640, Note_off_c, 0, 42, 95
2, 14640, Note_on_c, 0, 41, 95
2, 14880, Note_off_c, 0, 41, 95
2, 14880, Note_on_c, 0, 39, 95
2, 15360, Note_off_c, 0, 39, 95
2, 15360, Note_on_c, 0, 48, 95
2, 15840, Note_off_c, 0, 48, 95
2, 15840, Note_on_c, 0, 48, 63
2, 16320, Note_off_c, 0, 48, 63
2, 16320, Note_on_c, 0, 67, 95
2, 16320, Note_on_c, 0, 62, 95
2, 16320, Note_on_c, 0, 58, 95
2, 16320, Note_on_c, 0, 52, 95
2, 16560, Note_off_c, 0, 67, 95
2, 16560, Note_off_c, 0, 62, 95
2, 16560, Note_off_c, 0, 58, 95
2, 16560, Note_off_c, 0, 52, 95
2, 16800, Note_on_c, 0, 63, 95
2, 16800, Note_on_c, 0, 58, 95
2, 16800, Note_on_c, 0, 54, 95
2, 16800, Note_on_c, 0, 49, 95
2, 16844, Note_off_c, 0, 63, 95
2, 16844, Note_off_c, 0, 58, 95
2, 16844, Note_off_c, 0, 54, 95
2, 16844, Note_off_c, 0, 49, 95
2, 17160, Note_on_c, 0, 63, 95
2, 17160, Note_on_c, 0, 58, 95
2, 17160, Note_on_c, 0, 54, 95
2, 17160, Note_on_c, 0, 49, 95
2, 17204, Note_off_c, 0, 63, 95
2, 17204, Note_off_c, 0, 58, 95
2, 17204, Note_off_c, 0, 54, 95
2, 17204, Note_off_c, 0, 49, 95
2, 17280, Note_on_c, 0, 41, 95
2, 17760, Note_off_c, 0, 41, 95
2, 17760, Note_on_c, 0, 41, 95
2, 18240, Note_off_c, 0, 41, 95
2, 18240, Note_on_c, 0, 65, 95
2, 18240, Note_on_c, 0, 60, 95
2, 18240, Note_on_c, 0, 57, 95
2, 18240, Note_on_c, 0, 53, 95
2, 18480, Note_off_c, 0, 65, 95
2, 18480, Note_off_c, 0, 60, 95
2, 18480, Note_off_c, 0, 57, 95
2, 18480, Note_off_c, 0, 53, 95
2, 18720, Note_on_c, 0, 63, 95
2, 18720, Note_on_c, 0, 58, 95
2, 18720, Note_on_c, 0, 54, 95
2, 18720, Note_on_c, 0, 49, 95
2, 18764, Note_off_c, 0, 63, 95
2, 18764, Note_off_c, 0, 58, 95
2, 18764, Note_off_c, 0, 54, 95
2, 18764, Note_off_c, 0, 49, 95
2, 19080, Note_on_c, 0, 63, 95
2, 19080, Note_on_c, 0, 58, 95
2, 19080, Note_on_c, 0, 54, 95
2, 19080, Note_on_c, 0, 49, 95
2, 19124, Note_off_c, 0, 63, 95
2, 19124, Note_off_c, 0, 58, 95
2, 19124, Note_off_c, 0, 54, 95
2, 19124, Note_off_c, 0, 49, 95
2, 19200, Note_on_c, 0, 63, 95
2, 19200, Note_on_c, 0, 58, 95
2, 19200, Note_on_c, 0, 54, 95
2, 19200, Note_on_c, 0, 49, 95
2, 19244, Note_off_c, 0, 63, 95
2, 19244, Note_off_c, 0, 58, 95
2, 19244, Note_off_c, 0, 54, 95
2, 19244, Note_off_c, 0, 49, 95
2, 20160, Note_on_c, 0, 67, 95
2, 20160, Note_on_c, 0, 62, 95
2, 20160, Note_on_c, 0, 59, 95
2, 20160, Note_on_c, 0, 55, 95
2, 20640, Note_off_c, 0, 67, 95
2, 20640, Note_off_c, 0, 62, 95
2, 20640, Note_off_c, 0, 59, 95
2, 20640, Note_off_c, 0, 55, 95
2, 20640, Note_on_c, 0, 63, 95
2, 20640, Note_on_c, 0, 58, 95
2, 20640, Note_on_c, 0, 54, 95
2, 20640, Note_on_c, 0, 49, 95
2, 20684, Note_off_c, 0, 63, 95
2, 20684, Note_off_c, 0, 58, 95
2, 20684, Note_off_c, 0, 54, 95
2, 20684, Note_off_c, 0, 49, 95
2, 21000, Note_on_c, 0, 63, 95
2, 21000, Note_on_c, 0, 58, 95
2, 21000, Note_on_c, 0, 54, 95
2, 21000, Note_on_c, 0, 49, 95
2, 21044, Note_off_c, 0, 63, 95
2, 21044, Note_off_c, 0, 58, 95
2, 21044, Note_off_c, 0, 54, 95
2, 21044, Note_off_c, 0, 49, 95
2, 21120, Note_on_c, 0, 53, 95
2, 21600, Note_off_c, 0, 53, 95
2, 21600, Note_on_c, 0, 63, 95
2, 21600, Note_on_c, 0, 58, 95
2, 21600, Note_on_c, 0, 54, 95
2, 21600, Note_on_c, 0, 49, 95
2, 21644, Note_off_c, 0, 63, 95
2, 21644, Note_off_c, 0, 58, 95
2, 21644, Note_off_c, 0, 54, 95
2, 21644, Note_off_c, 0, 49, 95
2, 21960, Note_on_c, 0, 63, 95
2, 21960, Note_on_c, 0, 58, 95
2, 21960, Note_on_c, 0, 54, 95
2, 21960, Note_on_c, 0, 49, 95
2, 22004, Note_off_c, 0, 63, 95
2, 22004, Note_off_c, 0, 58, 95
2, 22004, Note_off_c, 0, 54, 95
2, 22004, Note_off_c, 0, 49, 95
2, 22080, Note_on_c, 0, 63, 95
2, 22080, Note_on_c, 0, 58, 95
2, 22080, Note_on_c, 0, 54, 95
2, 22080, Note_on_c, 0, 49, 95
2, 22124, Note_off_c, 0, 63, 95
2, 22124, Note_off_c, 0, 58, 95
2, 22124, Note_off_c, 0, 54, 95
2, 22124, Note_off_c, 0, 49, 95
2, 22320, Note_on_c, 0, 58, 95
2, 22320, Note_on_c, 0, 53, 95
2, 23040, Note_off_c, 0, 58, 95
2, 23040, Note_off_c, 0, 53, 95
2, 23040, Note_on_c, 0, 48, 95
2, 24000, Note_off_c, 0, 48, 95
2, 24000, Note_on_c, 0, 67, 95
2, 24000, Note_on_c, 0, 62, 95
2, 24000, Note_on_c, 0, 58, 95
2, 24000, Note_on_c, 0, 52, 95
2, 24240, Note_off_c, 0, 67, 95
2, 24240, Note_off_c, 0, 62, 95
2, 24240, Note_off_c, 0, 58, 95
2, 24240, Note_off_c, 0, 52, 95
2, 24720, Note_on_c, 0, 48, 63
2, 24960, Note_off_c, 0, 48, 63
2, 24960, Note_on_c, 0, 50, 95
2, 25440, Note_off_c, 0, 50, 95
2, 25440, Note_on_c, 0, 50, 95
2, 25920, Note_off_c, 0, 50, 95
2, 25920, Note_on_c, 0, 63, 95
2, 25920, Note_on_c, 0, 66, 95
2, 25920, Note_on_c, 0, 62, 95
2, 25920, Note_on_c, 0, 57, 95
2, 25964, Note_off_c, 0, 63, 95
2, 26280, Note_off_c, 0, 66, 95
2, 26280, Note_off_c, 0, 62, 95
2, 26280, Note_off_c, 0, 57, 95
2, 26280, Note_on_c, 0, 63, 95
2, 26280, Note_on_c, 0, 58, 95
2, 26280, Note_on_c, 0, 54, 95
2, 26280, Note_on_c, 0, 49, 95
2, 26324, Note_off_c, 0, 63, 95
2, 26324, Note_off_c, 0, 58, 95
2, 26324, Note_off_c, 0, 54, 95
2, 26324, Note_off_c, 0, 49, 95
2, 26400, Note_on_c, 0, 63, 95
2, 26400, Note_on_c, 0, 58, 95
2, 26400, Note_on_c, 0, 54, 95
2, 26400, Note_on_c, 0, 49, 95
2, 26444, Note_off_c, 0, 63, 95
2, 26444, Note_off_c, 0, 58, 95
2, 26444, Note_off_c, 0, 54, 95
2, 26444, Note_off_c, 0, 49, 95
2, 26760, Note_on_c, 0, 66, 95
2, 26760, Note_on_c, 0, 62, 95
2, 26760, Note_on_c, 0, 57, 95
2, 26880, Note_off_c, 0, 66, 95
2, 26880, Note_off_c, 0, 62, 95
2, 26880, Note_off_c, 0, 57, 95
2, 26880, Note_on_c, 0, 43, 95
2, 27360, Note_off_c, 0, 43, 95
2, 27360, Note_on_c, 0, 43, 95
2, 27840, Note_off_c, 0, 43, 95
2, 27840, Note_on_c, 0, 59, 95
2, 27840, Note_on_c, 0, 55, 95
2, 27840, Note_on_c, 0, 50, 95
2, 28080, Note_off_c, 0, 59, 95
2, 28080, Note_off_c, 0, 55, 95
2, 28080, Note_off_c, 0, 50, 95
2, 28800, Note_on_c, 0, 53, 95
2, 29040, Note_off_c, 0, 53, 95
2, 29280, Note_on_c, 0, 46, 95
2, 29520, Note_off_c, 0, 46, 95
2, 29760, Note_on_c, 0, 53, 95
2, 29760, Note_on_c, 0, 46, 95
2, 30000, Note_off_c, 0, 53, 95
2, 30000, Note_off_c, 0, 46, 95
2, 30000, Note_on_c, 0, 53, 95
2, 30000, Note_on_c, 0, 46, 95
2, 30720, Note_off_c, 0, 53, 95
2, 30720, Note_off_c, 0, 46, 95
2, 30720, Note_on_c, 0, 48, 95
2, 31200, Note_off_c, 0, 48, 95
2, 31200, Note_on_c, 0, 55, 95
2, 31680, Note_off_c, 0, 55, 95
2, 31680, Note_on_c, 0, 64, 95
2, 31680, Note_on_c, 0, 60, 95
2, 31680, Note_on_c, 0, 55, 95
2, 31920, Note_off_c, 0, 64, 95
2, 31920, Note_off_c, 0, 60, 95
2, 31920, Note_off_c, 0, 55, 95
2, 32160, Note_on_c, 0, 63, 95
2, 32160, Note_on_c, 0, 58, 95
2, 32160, Note_on_c, 0, 54, 95
2, 32160, Note_on_c, 0, 49, 95
2, 32204, Note_off_c, 0, 63, 95
2, 32204, Note_off_c, 0, 58, 95
2, 32204, Note_off_c, 0, 54, 95
2, 32204, Note_off_c, 0, 49, 95
2, 32400, Note_on_c, 0, 63, 95
2, 32400, Note_on_c, 0, 58, 95
2, 32400, Note_on_c, 0, 54, 95
2, 32400, Note_on_c, 0, 49, 95
2, 32444, Note_off_c, 0, 63, 95
2, 32444, Note_off_c, 0, 58, 95
2, 32444, Note_off_c, 0, 54, 95
2, 32444, Note_off_c, 0, 49, 95
2, 32640, Note_on_c, 0, 41, 95
2, 33120, Note_off_c, 0, 41, 95
2, 33120, Note_on_c, 0, 41, 95
2, 33600, Note_off_c, 0, 41, 95
2, 33600, Note_on_c, 0, 65, 95
2, 33600, Note_on_c, 0, 60, 95
2, 33600, Note_on_c, 0, 57, 95
2, 33600, Note_on_c, 0, 53, 95
2, 33840, Note_off_c, 0, 65, 95
2, 33840, Note_off_c, 0, 60, 95
2, 33840, Note_off_c, 0, 57, 95
2, 33840, Note_off_c, 0, 53, 95
2, 33840, Note_on_c, 0, 63, 95
2, 33840, Note_on_c, 0, 58, 95
2, 33840, Note_on_c, 0, 54, 95
2, 33840, Note_on_c, 0, 49, 95
2, 33884, Note_off_c, 0, 63, 95
2, 33884, Note_off_c, 0, 58, 95
2, 33884, Note_off_c, 0, 54, 95
2, 33884, Note_off_c, 0, 49, 95
2, 34080, Note_on_c, 0, 63, 95
2, 34080, Note_on_c, 0, 58, 95
2, 34080, Note_on_c, 0, 54, 95
2, 34080, Note_on_c, 0, 49, 95
2, 34124, Note_off_c, 0, 63, 95
2, 34124, Note_off_c, 0, 58, 95
2, 34124, Note_off_c, 0, 54, 95
2, 34124, Note_off_c, 0, 49, 95
2, 34320, Note_on_c, 0, 63, 95
2, 34320, Note_on_c, 0, 58, 95
2, 34320, Note_on_c, 0, 54, 95
2, 34320, Note_on_c, 0, 49, 95
2, 34364, Note_off_c, 0, 63, 95
2, 34364, Note_off_c, 0, 58, 95
2, 34364, Note_off_c, 0, 54, 95
2, 34364, Note_off_c, 0, 49, 95
2, 34560, Note_on_c, 0, 43, 95
2, 35040, Note_off_c, 0, 43, 95
2, 35040, Note_on_c, 0, 43, 95
2, 35520, Note_off_c, 0, 43, 95
2, 35520, Note_on_c, 0, 67, 95
2, 35520, Note_on_c, 0, 62, 95
2, 35520, Note_on_c, 0, 59, 95
2, 35520, Note_on_c, 0, 55, 95
2, 36000, Note_off_c, 0, 67, 95
2, 36000, Note_off_c, 0, 62, 95
2, 36000, Note_off_c, 0, 59, 95
2, 36000, Note_off_c, 0, 55, 95
2, 36000, Note_on_c, 0, 63, 95
2, 36000, Note_on_c, 0, 58, 95
2, 36000, Note_on_c, 0, 54, 95
2, 36000, Note_on_c, 0, 49, 95
2, 36044, Note_off_c, 0, 63, 95
2, 36044, Note_off_c, 0, 58, 95
2, 36044, Note_off_c, 0, 54, 95
2, 36044, Note_off_c, 0, 49, 95
2, 36240, Note_on_c, 0, 63, 95
2, 36240, Note_on_c, 0, 58, 95
2, 36240, Note_on_c, 0, 54, 95
2, 36240, Note_on_c, 0, 49, 95
2, 36284, Note_off_c, 0, 63, 95
2, 36284, Note_off_c, 0, 58, 95
2, 36284, Note_off_c, 0, 54, 95
2, 36284, Note_off_c, 0, 49, 95
2, 36480, Note_on_c, 0, 42, 95
2, 36960, Note_off_c, 0, 42, 95
2, 36960, Note_on_c, 0, 58, 95
2, 36960, Note_on_c, 0, 54, 95
2, 36960, Note_on_c, 0, 49, 95
2, 37200, Note_off_c, 0, 58, 95
2, 37200, Note_off_c, 0, 54, 95
2, 37200, Note_off_c, 0, 49, 95
2, 37200, Note_on_c, 0, 61, 95
2, 37200, Note_on_c, 0, 58, 95
2, 37200, Note_on_c, 0, 54, 95
2, 37200, Note_on_c, 0, 49, 95
2, 37440, Note_off_c, 0, 61, 95
2, 37440, Note_off_c, 0, 58, 95
2, 37440, Note_off_c, 0, 54, 95
2, 37440, Note_off_c, 0, 49, 95
2, 37440, Note_on_c, 0, 61, 95
2, 37440, Note_on_c, 0, 58, 95
2, 37440, Note_on_c, 0, 54, 95
2, 37440, Note_on_c, 0, 49, 95
2, 37680, Note_off_c, 0, 61, 95
2, 37680, Note_off_c, 0, 58, 95
2, 37680, Note_off_c, 0, 54, 95
2, 37680, Note_off_c, 0, 49, 95
2, 37680, Note_on_c, 0, 61, 95
2, 37680, Note_on_c, 0, 58, 95
2, 37680, Note_on_c, 0, 54, 95
2, 37680, Note_on_c, 0, 49, 95
2, 37920, Note_off_c, 0, 61, 95
2, 37920, Note_off_c, 0, 58, 95
2, 37920, Note_off_c, 0, 54, 95
2, 37920, Note_off_c, 0, 49, 95
2, 37920, Note_on_c, 0, 58, 95
2, 37920, Note_on_c, 0, 54, 95
2, 37920, Note_on_c, 0, 49, 95
2, 38400, Note_off_c, 0, 58, 95
2, 38400, Note_off_c, 0, 54, 95
2, 38400, Note_off_c, 0, 49, 95
2, 38400, Note_on_c, 0, 53, 95
2, 38880, Note_off_c, 0, 53, 95
2, 38880, Note_on_c, 0, 45, 95
2, 39360, Note_off_c, 0, 45, 95
2, 39360, Note_on_c, 0, 49, 95
2, 39360, Note_on_c, 0, 46, 95
2, 39360, Note_on_c, 0, 39, 95
2, 39404, Note_off_c, 0, 49, 95
2, 39404, Note_off_c, 0, 39, 95
2, 39840, Note_off_c, 0, 46, 95
2, 39840, Note_on_c, 0, 47, 95
2, 40320, Note_off_c, 0, 47, 95
2, 40320, Note_on_c, 0, 48, 95
2, 40800, Note_off_c, 0, 48, 95
2, 40800, Note_on_c, 0, 39, 95
2, 41040, Note_off_c, 0, 39, 95
2, 41040, Note_on_c, 0, 39, 95
2, 41280, Note_off_c, 0, 39, 95
2, 41280, Note_on_c, 0, 40, 95
2, 41520, Note_off_c, 0, 40, 95
2, 41520, Note_on_c, 0, 40, 95
2, 41760, Note_off_c, 0, 40, 95
2, 41760, Note_on_c, 0, 41, 95
2, 42240, Note_off_c, 0, 41, 95
2, 42240, Note_on_c, 0, 51, 95
2, 42720, Note_off_c, 0, 51, 95
2, 42720, Note_on_c, 0, 58, 95
2, 42720, Note_on_c, 0, 53, 95
2, 43680, Note_off_c, 0, 58, 95
2, 43680, Note_off_c, 0, 53, 95
2, 43680, Note_on_c, 0, 50, 95
2, 43680, Note_on_c, 0, 46, 95
2, 44580, Note_on_c, 1, 48, 79
2, 44640, Note_off_c, 0, 50, 95
2, 44640, Note_off_c, 0, 46, 95
2, 44640, Note_off_c, 1, 48, 79
2, 44640, Note_on_c, 1, 50, 95
2, 45120, Note_off_c, 1, 50, 95
2, 45120, Note_on_c, 0, 53, 95
2, 45600, Note_off_c, 0, 53, 95
2, 45600, Note_on_c, 0, 50, 63
2, 46080, Note_off_c, 0, 50, 63
2, 46080, Note_on_c, 0, 63, 95
2, 46080, Note_on_c, 0, 63, 95
2, 46080, Note_on_c, 0, 55, 95
2, 46080, Note_on_c, 0, 53, 95
2, 46080, Note_on_c, 0, 44, 95
2, 47520, Note_off_c, 0, 63, 95
2, 47520, Note_off_c, 0, 63, 95
2, 47520, Note_off_c, 0, 55, 95
2, 47520, Note_off_c, 0, 53, 95
2, 47520, Note_off_c, 0, 44, 95
2, 47520, Note_on_c, 0, 57, 95
2, 47520, Note_on_c, 0, 53, 95
2, 47520, Note_on_c, 0, 48, 95
2, 47520, Note_on_c, 0, 41, 95
2, 48480, Note_off_c, 0, 57, 95
2, 48480, Note_off_c, 0, 53, 95
2, 48480, Note_off_c, 0, 48, 95
2, 48480, Note_off_c, 0, 41, 95
2, 48480, Note_on_c, 0, 63, 95
2, 48960, Note_off_c, 0, 63, 95
2, 48960, Note_on_c, 0, 60, 95
2, 49440, Note_off_c, 0, 60, 95
2, 49440, Note_on_c, 0, 53, 95
2, 49920, Note_off_c, 0, 53, 95
2, 49920, Note_on_c, 0, 62, 95
2, 49920, Note_on_c, 0, 58, 95
2, 49920, Note_on_c, 0, 53, 95
2, 49920, Note_on_c, 0, 46, 95
2, 50400, Note_off_c, 0, 62, 95
2, 50400, Note_off_c, 0, 58, 95
2, 50400, Note_off_c, 0, 53, 95
2, 50400, Note_off_c, 0, 46, 95
2, 50400, Note_on_c, 0, 62, 95
2, 50400, Note_on_c, 0, 58, 95
2, 50400, Note_on_c, 0, 53, 95
2, 50400, Note_on_c, 0, 46, 95
2, 50880, Note_off_c, 0, 62, 95
2, 50880, Note_off_c, 0, 58, 95
2, 50880, Note_off_c, 0, 53, 95
2, 50880, Note_off_c, 0, 46, 95
2, 50880, Note_on_c, 0, 62, 95
2, 50880, Note_on_c, 0, 58, 95
2, 50880, Note_on_c, 0, 53, 95
2, 50880, Note_on_c, 0, 46, 95
2, 51120, Note_off_c, 0, 62, 95
2, 51120, Note_off_c, 0, 58, 95
2, 51120, Note_off_c, 0, 53, 95
2, 51120, Note_off_c, 0, 46, 95
2, 51360, Note_on_c, 0, 64, 95
2, 51360, Note_on_c, 0, 60, 95
2, 51360, Note_on_c, 0, 55, 95
2, 51360, Note_on_c, 0, 48, 95
2, 55200, Note_off_c, 0, 64, 95
2, 55200, Note_off_c, 0, 60, 95
2, 55200, Note_off_c, 0, 55, 95
2, 55200, Note_off_c, 0, 48, 95
2, 55440, Note_on_c, 0, 46, 95
2, 55680, Note_off_c, 0, 46, 95
2, 55680, Note_on_c, 0, 48, 95
2, 56040, Note_off_c, 0, 48, 95
2, 56040, Note_on_c, 0, 46, 95
2, 56160, Note_off_c, 0, 46, 95
2, 56160, Note_on_c, 0, 48, 95
2, 56520, Note_off_c, 0, 48, 95
2, 56520, Note_on_c, 0, 46, 95
2, 56640, Note_off_c, 0, 46, 95
2, 56640, Note_on_c, 0, 48, 95
2, 56880, Note_off_c, 0, 48, 95
2, 56880, Note_on_c, 0, 39, 95
2, 57600, Note_off_c, 0, 39, 95
2, 57600, Note_on_c, 0, 48, 95
2, 58560, Note_off_c, 0, 48, 95
2, 58560, Note_on_c, 0, 64, 95
2, 58560, Note_on_c, 0, 60, 95
2, 58560, Note_on_c, 0, 55, 95
2, 59040, Note_off_c, 0, 64, 95
2, 59040, Note_off_c, 0, 60, 95
2, 59040, Note_off_c, 0, 55, 95
2, 59040, Note_on_c, 0, 58, 95
2, 59040, Note_on_c, 0, 54, 95
2, 59040, Note_on_c, 0, 49, 95
2, 59084, Note_off_c, 0, 58, 95
2, 59084, Note_off_c, 0, 54, 95
2, 59084, Note_off_c, 0, 49, 95
2, 59400, Note_on_c, 0, 58, 95
2, 59400, Note_on_c, 0, 54, 95
2, 59400, Note_on_c, 0, 49, 95
2, 59444, Note_off_c, 0, 58, 95
2, 59444, Note_off_c, 0, 54, 95
2, 59444, Note_off_c, 0, 49, 95
2, 59520, Note_on_c, 0, 41, 95
2, 60000, Note_off_c, 0, 41, 95
2, 60000, Note_on_c, 0, 41, 95
2, 60480, Note_off_c, 0, 41, 95
2, 60480, Note_on_c, 0, 60, 95
2, 60480, Note_on_c, 0, 57, 95
2, 60480, Note_on_c, 0, 53, 95
2, 60480, Note_on_c, 0, 48, 95
2, 60840, Note_off_c, 0, 60, 95
2, 60840, Note_off_c, 0, 57, 95
2, 60840, Note_off_c, 0, 53, 95
2, 60840, Note_off_c, 0, 48, 95
2, 60840, Note_on_c, 0, 58, 95
2, 60840, Note_on_c, 0, 54, 95
2, 60840, Note_on_c, 0, 49, 95
2, 60840, Note_on_c, 0, 44, 95
2, 60884, Note_off_c, 0, 58, 95
2, 60884, Note_off_c, 0, 54, 95
2, 60884, Note_off_c, 0, 49, 95
2, 60884, Note_off_c, 0, 44, 95
2, 60960, Note_on_c, 0, 58, 95
2, 60960, Note_on_c, 0, 54, 95
2, 60960, Note_on_c, 0, 49, 95
2, 60960, Note_on_c, 0, 44, 95
2, 61004, Note_off_c, 0, 58, 95
2, 61004, Note_off_c, 0, 54, 95
2, 61004, Note_off_c, 0, 49, 95
2, 61004, Note_off_c, 0, 44, 95
2, 62400, Note_on_c, 0, 67, 95
2, 62400, Note_on_c, 0, 62, 95
2, 62400, Note_on_c, 0, 59, 95
2, 62400, Note_on_c, 0, 55, 95
2, 62880, Note_off_c, 0, 67, 95
2, 62880, Note_off_c, 0, 62, 95
2, 62880, Note_off_c, 0, 59, 95
2, 62880, Note_off_c, 0, 55, 95
2, 63360, Note_on_c, 0, 41, 95
2, 63840, Note_off_c, 0, 41, 95
2, 63840, Note_on_c, 0, 41, 95
2, 64320, Note_off_c, 0, 41, 95
2, 64320, Note_on_c, 0, 46, 95
2, 64560, Note_off_c, 0, 46, 95
2, 64560, Note_on_c, 0, 58, 95
2, 64560, Note_on_c, 0, 53, 95
2, 64560, Note_on_c, 0, 46, 95
2, 65280, Note_off_c, 0, 58, 95
2, 65280, Note_off_c, 0, 53, 95
2, 65280, Note_off_c, 0, 46, 95
2, 65280, Note_on_c, 0, 48, 95
2, 66240, Note_off_c, 0, 48, 95
2, 66240, Note_on_c, 0, 64, 95
2, 66240, Note_on_c, 0, 60, 95
2, 66240, Note_on_c, 0, 55, 95
2, 66720, Note_off_c, 0, 64, 95
2, 66720, Note_off_c, 0, 60, 95
2, 66720, Note_off_c, 0, 55, 95
2, 67200, Note_on_c, 0, 50, 95
2, 67680, Note_off_c, 0, 50, 95
2, 67680, Note_on_c, 0, 50, 95
2, 68160, Note_off_c, 0, 50, 95
2, 68160, Note_on_c, 0, 63, 95
2, 68160, Note_on_c, 0, 64, 95
2, 68160, Note_on_c, 0, 60, 95
2, 68160, Note_on_c, 0, 54, 95
2, 68160, Note_on_c, 0, 44, 95
2, 68204, Note_off_c, 0, 63, 95
2, 68204, Note_off_c, 0, 44, 95
2, 68400, Note_off_c, 0, 64, 95
2, 68400, Note_off_c, 0, 60, 95
2, 68400, Note_off_c, 0, 54, 95
2, 68400, Note_on_c, 0, 58, 95
2, 68400, Note_on_c, 0, 54, 95
2, 68400, Note_on_c, 0, 49, 95
2, 68444, Note_off_c, 0, 58, 95
2, 68444, Note_off_c, 0, 54, 95
2, 68444, Note_off_c, 0, 49, 95
2, 68880, Note_on_c, 0, 64, 95
2, 68880, Note_on_c, 0, 60, 95
2, 68880, Note_on_c, 0, 54, 95
2, 69120, Note_off_c, 0, 64, 95
2, 69120, Note_off_c, 0, 60, 95
2, 69120, Note_off_c, 0, 54, 95
2, 69120, Note_on_c, 0, 50, 95
2, 69600, Note_off_c, 0, 50, 95
2, 69600, Note_on_c, 0, 50, 95
2, 70080, Note_off_c, 0, 50, 95
2, 70080, Note_on_c, 0, 67, 95
2, 70080, Note_on_c, 0, 62, 95
2, 70080, Note_on_c, 0, 59, 95
2, 70080, Note_on_c, 0, 55, 95
2, 70560, Note_off_c, 0, 67, 95
2, 70560, Note_off_c, 0, 62, 95
2, 70560, Note_off_c, 0, 59, 95
2, 70560, Note_off_c, 0, 55, 95
2, 71040, Note_on_c, 0, 41, 63
2, 71520, Note_off_c, 0, 41, 63
2, 71520, Note_on_c, 0, 41, 63
2, 72000, Note_off_c, 0, 41, 63
2, 72000, Note_on_c, 0, 46, 95
2, 72240, Note_off_c, 0, 46, 95
2, 72240, Note_on_c, 0, 46, 95
2, 72960, Note_off_c, 0, 46, 95
2, 72960, Note_on_c, 0, 48, 95
2, 73920, Note_off_c, 0, 48, 95
2, 73920, Note_on_c, 0, 64, 95
2, 73920, Note_on_c, 0, 60, 95
2, 73920, Note_on_c, 0, 55, 95
2, 74400, Note_off_c, 0, 64, 95
2, 74400, Note_off_c, 0, 60, 95
2, 74400, Note_off_c, 0, 55, 95
2, 74880, Note_on_c, 0, 41, 95
2, 75360, Note_off_c, 0, 41, 95
2, 75360, Note_on_c, 0, 41, 95
2, 75840, Note_off_c, 0, 41, 95
2, 75840, Note_on_c, 0, 60, 95
2, 75840, Note_on_c, 0, 57, 95
2, 75840, Note_on_c, 0, 53, 95
2, 75840, Note_on_c, 0, 48, 95
2, 76320, Note_off_c, 0, 60, 95
2, 76320, Note_off_c, 0, 57, 95
2, 76320, Note_off_c, 0, 53, 95
2, 76320, Note_off_c, 0, 48, 95
2, 76800, Note_on_c, 0, 43, 95
2, 77760, Note_off_c, 0, 43, 95
2, 77760, Note_on_c, 0, 67, 95
2, 77760, Note_on_c, 0, 62, 95
2, 77760, Note_on_c, 0, 59, 95
2, 77760, Note_on_c, 0, 55, 95
2, 78240, Note_off_c, 0, 67, 95
2, 78240, Note_off_c, 0, 62, 95
2, 78240, Note_off_c, 0, 59, 95
2, 78240, Note_off_c, 0, 55, 95
2, 78240, Note_on_c, 0, 63, 95
2, 78240, Note_on_c, 0, 58, 95
2, 78240, Note_on_c, 0, 54, 95
2, 78240, Note_on_c, 0, 49, 95
2, 78284, Note_off_c, 0, 63, 95
2, 78284, Note_off_c, 0, 58, 95
2, 78284, Note_off_c, 0, 54, 95
2, 78284, Note_off_c, 0, 49, 95
2, 78480, Note_on_c, 0, 63, 95
2, 78480, Note_on_c, 0, 58, 95
2, 78480, Note_on_c, 0, 54, 95
2, 78480, Note_on_c, 0, 49, 95
2, 78524, Note_off_c, 0, 63, 95
2, 78524, Note_off_c, 0, 58, 95
2, 78524, Note_off_c, 0, 54, 95
2, 78524, Note_off_c, 0, 49, 95
2, 78720, Note_on_c, 0, 61, 95
2, 78720, Note_on_c, 0, 58, 95
2, 78720, Note_on_c, 0, 54, 95
2, 78720, Note_on_c, 0, 49, 95
2, 78720, Note_on_c, 0, 42, 95
2, 79200, Note_off_c, 0, 61, 95
2, 79200, Note_off_c, 0, 58, 95
2, 79200, Note_off_c, 0, 54, 95
2, 79200, Note_off_c, 0, 49, 95
2, 79200, Note_off_c, 0, 42, 95
2, 79200, Note_on_c, 0, 61, 95
2, 79200, Note_on_c, 0, 58, 95
2, 79200, Note_on_c, 0, 54, 95
2, 79200, Note_on_c, 0, 49, 95
2, 79200, Note_on_c, 0, 42, 95
2, 79680, Note_off_c, 0, 61, 95
2, 79680, Note_off_c, 0, 58, 95
2, 79680, Note_off_c, 0, 54, 95
2, 79680, Note_off_c, 0, 49, 95
2, 79680, Note_off_c, 0, 42, 95
2, 79680, Note_on_c, 0, 66, 95
2, 79680, Note_on_c, 0, 61, 95
2, 79680, Note_on_c, 0, 58, 95
2, 79680, Note_on_c, 0, 54, 95
2, 79680, Note_on_c, 0, 49, 95
2, 79680, Note_on_c, 0, 42, 95
2, 80160, Note_off_c, 0, 66, 95
2, 80160, Note_off_c, 0, 61, 95
2, 80160, Note_off_c, 0, 58, 95
2, 80160, Note_off_c, 0, 54, 95
2, 80160, Note_off_c, 0, 49, 95
2, 80160, Note_off_c, 0, 42, 95
2, 80160, Note_on_c, 0, 61, 95
2, 80160, Note_on_c, 0, 58, 95
2, 80160, Note_on_c, 0, 54, 95
2, 80160, Note_on_c, 0, 49, 95
2, 80160, Note_on_c, 0, 42, 95
2, 80640, Note_off_c, 0, 61, 95
2, 80640, Note_off_c, 0, 58, 95
2, 80640, Note_off_c, 0, 54, 95
2, 80640, Note_off_c, 0, 49, 95
2, 80640, Note_off_c, 0, 42, 95
2, 80640, Note_on_c, 0, 60, 95
2, 80640, Note_on_c, 0, 57, 95
2, 80640, Note_on_c, 0, 53, 95
2, 80880, Note_off_c, 0, 60, 95
2, 80880, Note_off_c, 0, 57, 95
2, 80880, Note_off_c, 0, 53, 95
2, 81120, Note_on_c, 0, 60, 95
2, 81120, Note_on_c, 0, 57, 95
2, 81120, Note_on_c, 0, 53, 95
2, 81360, Note_off_c, 0, 60, 95
2, 81360, Note_off_c, 0, 57, 95
2, 81360, Note_off_c, 0, 53, 95
2, 81600, Note_on_c, 0, 58, 95
2, 82080, Note_off_c, 0, 58, 95
2, 82080, Note_on_c, 0, 60, 95
2, 82080, Note_on_c, 0, 57, 95
2, 82080, Note_on_c, 0, 53, 95
2, 82320, Note_off_c, 0, 60, 95
2, 82320, Note_off_c, 0, 57, 95
2, 82320, Note_off_c, 0, 53, 95
2, 82320, Note_on_c, 0, 60, 95
2, 82320, Note_on_c, 0, 57, 95
2, 82320, Note_on_c, 0, 53, 95
2, 82560, Note_off_c, 0, 60, 95
2, 82560, Note_off_c, 0, 57, 95
2, 82560, Note_off_c, 0, 53, 95
2, 82560, Note_on_c, 0, 60, 95
2, 82560, Note_on_c, 0, 57, 95
2, 82560, Note_on_c, 0, 53, 95
2, 82800, Note_off_c, 0, 60, 95
2, 82800, Note_off_c, 0, 57, 95
2, 82800, Note_off_c, 0, 53, 95
2, 82800, Note_on_c, 0, 60, 95
2, 82800, Note_on_c, 0, 57, 95
2, 82800, Note_on_c, 0, 53, 95
2, 83040, Note_off_c, 0, 60, 95
2, 83040, Note_off_c, 0, 57, 95
2, 83040, Note_off_c, 0, 53, 95
2, 83040, Note_on_c, 0, 60, 95
2, 83040, Note_on_c, 0, 57, 95
2, 83040, Note_on_c, 0, 53, 95
2, 83280, Note_off_c, 0, 60, 95
2, 83280, Note_off_c, 0, 57, 95
2, 83280, Note_off_c, 0, 53, 95
2, 83280, Note_on_c, 0, 53, 95
2, 83520, Note_off_c, 0, 53, 95
2, 83520, Pitch_bend_c, 1, 8192
2, 83520, Note_on_c, 1, 57, 95
2, 83532, Pitch_bend_c, 1, 8320
2, 83544, Pitch_bend_c, 1, 8448
2, 83556, Pitch_bend_c, 1, 8576
2, 83568, Pitch_bend_c, 1, 8704
2, 83580, Pitch_bend_c, 1, 8832
2, 83580, Pitch_bend_c, 1, 8832
2, 83640, Pitch_bend_c, 1, 8832
2, 83652, Pitch_bend_c, 1, 8704
2, 83664, Pitch_bend_c, 1, 8576
2, 83676, Pitch_bend_c, 1, 8448
2, 83688, Pitch_bend_c, 1, 8320
2, 83700, Pitch_bend_c, 1, 8192
2, 83700, Pitch_bend_c, 1, 8192
2, 83760, Pitch_bend_c, 1, 8192
2, 83760, Pitch_bend_c, 1, 8192
2, 83760, Note_off_c, 1, 57, 95
2, 83760, Note_on_c, 0, 57, 63
2, 84000, Note_off_c, 0, 57, 63
2, 84000, Note_on_c, 0, 53, 95
2, 84240, Note_off_c, 0, 53, 95
2, 84240, Note_on_c, 0, 53, 95
2, 84480, Note_off_c, 0, 53, 95
2, 84480, Note_on_c, 0, 60, 95
2, 84480, Note_on_c, 0, 57, 95
2, 84480, Note_on_c, 0, 53, 95
2, 84960, Note_off_c, 0, 60, 95
2, 84960, Note_off_c, 0, 57, 95
2, 84960, Note_off_c, 0, 53, 95
2, 84960, Note_on_c, 0, 60, 95
2, 84960, Note_on_c, 0, 57, 95
2, 84960, Note_on_c, 0, 53, 95
2, 85440, Note_off_c, 0, 60, 95
2, 85440, Note_off_c, 0, 57, 95
2, 85440, Note_off_c, 0, 53, 95
2, 85440, Note_on_c, 0, 58, 95
2, 85920, Note_off_c, 0, 58, 95
2, 85920, Note_on_c, 0, 60, 95
2, 85920, Note_on_c, 0, 57, 95
2, 85920, Note_on_c, 0, 53, 95
2, 86160, Note_off_c, 0, 60, 95
2, 86160, Note_off_c, 0, 57, 95
2, 86160, Note_off_c, 0, 53, 95
2, 86160, Note_on_c, 0, 60, 95
2, 86160, Note_on_c, 0, 57, 95
2, 86160, Note_on_c, 0, 53, 95
2, 86400, Note_off_c, 0, 60, 95
2, 86400, Note_off_c, 0, 57, 95
2, 86400, Note_off_c, 0, 53, 95
2, 86400, Note_on_c, 0, 60, 95
2, 86400, Note_on_c, 0, 57, 95
2, 86400, Note_on_c, 0, 53, 95
2, 86640, Note_off_c, 0, 60, 95
2, 86640, Note_off_c, 0, 57, 95
2, 86640, Note_off_c, 0, 53, 95
2, 86640, Note_on_c, 0, 60, 95
2, 86640, Note_on_c, 0, 57, 95
2, 86640, Note_on_c, 0, 53, 95
2, 86880, Note_off_c, 0, 60, 95
2, 86880, Note_off_c, 0, 57, 95
2, 86880, Note_off_c, 0, 53, 95
2, 86880, Note_on_c, 0, 60, 95
2, 86880, Note_on_c, 0, 57, 95
2, 86880, Note_on_c, 0, 53, 95
2, 87120, Note_off_c, 0, 60, 95
2, 87120, Note_off_c, 0, 57, 95
2, 87120, Note_off_c, 0, 53, 95
2, 87120, Note_on_c, 0, 53, 95
2, 87360, Note_off_c, 0, 53, 95
2, 87360, Pitch_bend_c, 1, 8192
2, 87360, Note_on_c, 1, 57, 95
2, 87372, Pitch_bend_c, 1, 8320
2, 87384, Pitch_bend_c, 1, 8448
2, 87396, Pitch_bend_c, 1, 8576
2, 87408, Pitch_bend_c, 1, 8704
2, 87420, Pitch_bend_c, 1, 8832
2, 87420, Pitch_bend_c, 1, 8832
2, 87480, Pitch_bend_c, 1, 8832
2, 87492, Pitch_bend_c, 1, 8704
2, 87504, Pitch_bend_c, 1, 8576
2, 87516, Pitch_bend_c, 1, 8448
2, 87528, Pitch_bend_c, 1, 8320
2, 87540, Pitch_bend_c, 1, 8192
2, 87540, Pitch_bend_c, 1, 8192
2, 87600, Pitch_bend_c, 1, 8192
2, 87600, Pitch_bend_c, 1, 8192
2, 87600, Note_off_c, 1, 57, 95
2, 87600, Note_on_c, 0, 57, 63
2, 87840, Note_off_c, 0, 57, 63
2, 87840, Note_on_c, 0, 53, 95
2, 88080, Note_off_c, 0, 53, 95
2, 88080, Note_on_c, 0, 53, 95
2, 88320, Note_off_c, 0, 53, 95
2, 88320, Note_on_c, 0, 60, 95
2, 88320, Note_on_c, 0, 57, 95
2, 88320, Note_on_c, 0, 53, 95
2, 88800, Note_off_c, 0, 60, 95
2, 88800, Note_off_c, 0, 57, 95
2, 88800, Note_off_c, 0, 53, 95
2, 88800, Note_on_c, 0, 60, 95
2, 88800, Note_on_c, 0, 57, 95
2, 88800, Note_on_c, 0, 53, 95
2, 89280, Note_off_c, 0, 60, 95
2, 89280, Note_off_c, 0, 57, 95
2, 89280, Note_off_c, 0, 53, 95
2, 89280, Note_on_c, 0, 58, 95
2, 89760, Note_off_c, 0, 58, 95
2, 89760, Note_on_c, 0, 60, 95
2, 89760, Note_on_c, 0, 57, 95
2, 89760, Note_on_c, 0, 53, 95
2, 90000, Note_off_c, 0, 60, 95
2, 90000, Note_off_c, 0, 57, 95
2, 90000, Note_off_c, 0, 53, 95
2, 90000, Note_on_c, 0, 60, 95
2, 90000, Note_on_c, 0, 57, 95
2, 90000, Note_on_c, 0, 53, 95
2, 90240, Note_off_c, 0, 60, 95
2, 90240, Note_off_c, 0, 57, 95
2, 90240, Note_off_c, 0, 53, 95
2, 90240, Note_on_c, 0, 60, 95
2, 90240, Note_on_c, 0, 57, 95
2, 90240, Note_on_c, 0, 53, 95
2, 90480, Note_off_c, 0, 60, 95
2, 90480, Note_off_c, 0, 57, 95
2, 90480, Note_off_c, 0, 53, 95
2, 90480, Note_on_c, 0, 60, 95
2, 90480, Note_on_c, 0, 57, 95
2, 90480, Note_on_c, 0, 53, 95
2, 90720, Note_off_c, 0, 60, 95
2, 90720, Note_off_c, 0, 57, 95
2, 90720, Note_off_c, 0, 53, 95
2, 90720, Note_on_c, 0, 60, 95
2, 90720, Note_on_c, 0, 57, 95
2, 90720, Note_on_c, 0, 53, 95
2, 90960, Note_off_c, 0, 60, 95
2, 90960, Note_off_c, 0, 57, 95
2, 90960, Note_off_c, 0, 53, 95
2, 90960, Note_on_c, 0, 53, 95
2, 91200, Note_off_c, 0, 53, 95
2, 91200, Pitch_bend_c, 1, 8192
2, 91200, Note_on_c, 1, 57, 95
2, 91212, Pitch_bend_c, 1, 8320
2, 91224, Pitch_bend_c, 1, 8448
2, 91236, Pitch_bend_c, 1, 8576
2, 91248, Pitch_bend_c, 1, 8704
2, 91260, Pitch_bend_c, 1, 8832
2, 91260, Pitch_bend_c, 1, 8832
2, 91320, Pitch_bend_c, 1, 8832
2, 91332, Pitch_bend_c, 1, 8704
2, 91344, Pitch_bend_c, 1, 8576
2, 91356, Pitch_bend_c, 1, 8448
2, 91368, Pitch_bend_c, 1, 8320
2, 91380, Pitch_bend_c, 1, 8192
2, 91380, Pitch_bend_c, 1, 8192
2, 91440, Pitch_bend_c, 1, 8192
2, 91440, Pitch_bend_c, 1, 8192
2, 91440, Note_off_c, 1, 57, 95
2, 91440, Note_on_c, 0, 57, 63
2, 91680, Note_off_c, 0, 57, 63
2, 91680, Note_on_c, 0, 53, 95
2, 91920, Note_off_c, 0, 53, 95
2, 91920, Note_on_c, 0, 53, 95
2, 92160, Note_off_c, 0, 53, 95
2, 92160, Note_on_c, 0, 51, 95
2, 92640, Note_off_c, 0, 51, 95
2, 92640, Note_on_c, 0, 53, 95
2, 93120, Note_off_c, 0, 53, 95
2, 93120, Note_on_c, 0, 51, 95
2, 93600, Note_off_c, 0, 51, 95
2, 93600, Note_on_c, 0, 50, 95
2, 93600, Note_on_c, 0, 46, 95
2, 94560, Note_off_c, 0, 50, 95
2, 94560, Note_off_c, 0, 46, 95
2, 94560, Note_on_c, 1, 48, 95
2, 94680, Pitch_bend_c, 1, 8832
2, 94800, Pitch_bend_c, 1, 9600
2, 94800, Pitch_bend_c, 1, 8192
2, 94800, Note_off_c, 1, 48, 95
2, 94800, Note_on_c, 0, 50, 95
2, 95040, Note_off_c, 0, 50, 95
2, 95040, Note_on_c, 0, 53, 95
2, 95280, Note_off_c, 0, 53, 95
2, 95280, Note_on_c, 0, 50, 95
2, 95520, Note_off_c, 0, 50, 95
2, 95520, Note_on_c, 0, 53, 95
2, 96000, Note_off_c, 0, 53, 95
2, 96000, Note_on_c, 0, 63, 95
2, 96000, Note_on_c, 0, 55, 95
2, 96000, Note_on_c, 0, 53, 95
2, 96000, Note_on_c, 0, 44, 95
2, 97440, Note_off_c, 0, 63, 95
2, 97440, Note_off_c, 0, 55, 95
2, 97440, Note_off_c, 0, 53, 95
2, 97440, Note_off_c, 0, 44, 95
2, 97440, Note_on_c, 0, 57, 95
2, 97440, Note_on_c, 0, 53, 95
2, 97440, Note_on_c, 0, 48, 95
2, 97440, Note_on_c, 0, 41, 95
2, 98160, Note_off_c, 0, 57, 95
2, 98160, Note_off_c, 0, 53, 95
2, 98160, Note_off_c, 0, 48, 95
2, 98160, Note_off_c, 0, 41, 95
2, 98160, Note_on_c, 0, 63, 95
2, 98400, Note_off_c, 0, 63, 95
2, 98400, Note_on_c, 0, 60, 95
2, 98640, Note_off_c, 0, 60, 95
2, 98640, Note_on_c, 0, 63, 95
2, 98880, Note_off_c, 0, 63, 95
2, 98880, Note_on_c, 0, 57, 95
2, 99360, Note_off_c, 0, 57, 95
2, 99360, Note_on_c, 0, 53, 95
2, 99600, Note_off_c, 0, 53, 95
2, 99600, Note_on_c, 0, 53, 95
2, 99840, Note_off_c, 0, 53, 95
2, 99840, Note_on_c, 0, 46, 95
2, 100320, Note_off_c, 0, 46, 95
2, 100320, Note_on_c, 0, 53, 95
2, 100800, Note_off_c, 0, 53, 95
2, 100800, Note_on_c, 0, 46, 95
2, 101280, Note_off_c, 0, 46, 95
2, 101280, Note_on_c, 0, 60, 95
2, 101280, Note_on_c, 0, 55, 95
2, 101280, Note_on_c, 0, 48, 95
2, 103680, Note_off_c, 0, 60, 95
2, 103680, Note_off_c, 0, 55, 95
2, 103680, Note_off_c, 0, 48, 95
2, 103680, Note_on_c, 0, 60, 95
2, 103680, Note_on_c, 0, 55, 95
2, 103680, Note_on_c, 0, 48, 95
2, 103920, Note_off_c, 0, 60, 95
2, 103920, Note_off_c, 0, 55, 95
2, 103920, Note_off_c, 0, 48, 95
2, 103920, Note_on_c, 0, 60, 95
2, 103920, Note_on_c, 0, 55, 95
2, 103920, Note_on_c, 0, 48, 95
2, 104160, Note_off_c, 0, 60, 95
2, 104160, Note_off_c, 0, 55, 95
2, 104160, Note_off_c, 0, 48, 95
2, 104160, Note_on_c, 0, 60, 95
2, 104160, Note_on_c, 0, 55, 95
2, 104160, Note_on_c, 0, 48, 95
2, 104400, Note_off_c, 0, 60, 95
2, 104400, Note_off_c, 0, 55, 95
2, 104400, Note_off_c, 0, 48, 95
2, 104400, Note_on_c, 0, 39, 95
2, 104640, Note_off_c, 0, 39, 95
2, 104640, Note_on_c, 0, 58, 95
2, 104640, Note_on_c, 0, 53, 95
2, 104640, Note_on_c, 0, 46, 95
2, 104880, Note_off_c, 0, 58, 95
2, 104880, Note_off_c, 0, 53, 95
2, 104880, Note_off_c, 0, 46, 95
2, 105120, Note_on_c, 0, 63, 95
2, 105120, Note_on_c, 0, 58, 95
2, 105120, Note_on_c, 0, 51, 95
2, 105840, Note_off_c, 0, 63, 95
2, 105840, Note_off_c, 0, 58, 95
2, 105840, Note_off_c, 0, 51, 95
2, 105840, Note_on_c, 0, 44, 95
2, 105840, Note_on_c, 0, 39, 63
2, 105884, Note_off_c, 0, 44, 95
2, 106080, Note_off_c, 0, 39, 63
2, 106080, Note_on_c, 0, 60, 95
2, 106080, Note_on_c, 0, 55, 95
2, 106080, Note_on_c, 0, 48, 95
2, 106320, Note_off_c, 0, 60, 95
2, 106320, Note_off_c, 0, 55, 95
2, 106320, Note_off_c, 0, 48, 95
2, 106560, Note_on_c, 0, 58, 95
2, 106560, Note_on_c, 0, 53, 95
2, 106560, Note_on_c, 0, 46, 95
2, 107040, Note_off_c, 0, 58, 95
2, 107040, Note_off_c, 0, 53, 95
2, 107040, Note_off_c, 0, 46, 95
2, 107520, Note_on_c, 0, 63, 95
2, 107520, Note_on_c, 0, 58, 95
2, 107520, Note_on_c, 0, 54, 95
2, 107520, Note_on_c, 0, 49, 95
2, 107564, Note_off_c, 0, 63, 95
2, 107564, Note_off_c, 0, 58, 95
2, 107564, Note_off_c, 0, 54, 95
2, 107564, Note_off_c, 0, 49, 95
2, 108000, Note_on_c, 0, 63, 95
2, 108000, Note_on_c, 0, 58, 95
2, 108000, Note_on_c, 0, 54, 95
2, 108000, Note_on_c, 0, 49, 95
2, 108044, Note_off_c, 0, 63, 95
2, 108044, Note_off_c, 0, 58, 95
2, 108044, Note_off_c, 0, 54, 95
2, 108044, Note_off_c, 0, 49, 95
2, 108360, Note_on_c, 0, 63, 95
2, 108360, Note_on_c, 0, 58, 95
2, 108360, Note_on_c, 0, 54, 95
2, 108360, Note_on_c, 0, 49, 95
2, 108404, Note_off_c, 0, 63, 95
2, 108404, Note_off_c, 0, 58, 95
2, 108404, Note_off_c, 0, 54, 95
2, 108404, Note_off_c, 0, 49, 95
2, 108480, Note_on_c, 0, 67, 95
2, 108480, Note_on_c, 0, 62, 95
2, 108480, Note_on_c, 0, 59, 95
2, 108480, Note_on_c, 0, 55, 95
2, 108480, Note_on_c, 0, 50, 95
2, 108480, Note_on_c, 0, 43, 95
2, 108960, Note_off_c, 0, 67, 95
2, 108960, Note_off_c, 0, 62, 95
2, 108960, Note_off_c, 0, 59, 95
2, 108960, Note_off_c, 0, 55, 95
2, 108960, Note_off_c, 0, 50, 95
2, 108960, Note_off_c, 0, 43, 95
2, 109440, Note_on_c, 0, 63, 95
2, 109440, Note_on_c, 0, 58, 95
2, 109440, Note_on_c, 0, 54, 95
2, 109440, Note_on_c, 0, 49, 95
2, 109484, Note_off_c, 0, 63, 95
2, 109484, Note_off_c, 0, 58, 95
2, 109484, Note_off_c, 0, 54, 95
2, 109484, Note_off_c, 0, 49, 95
2, 109920, Note_on_c, 0, 63, 95
2, 109920, Note_on_c, 0, 58, 95
2, 109920, Note_on_c, 0, 54, 95
2, 109920, Note_on_c, 0, 49, 95
2, 109964, Note_off_c, 0, 63, 95
2, 109964, Note_off_c, 0, 58, 95
2, 109964, Note_off_c, 0, 54, 95
2, 109964, Note_off_c, 0, 49, 95
2, 110280, Note_on_c, 0, 63, 95
2, 110280, Note_on_c, 0, 58, 95
2, 110280, Note_on_c, 0, 54, 95
2, 110280, Note_on_c, 0, 49, 95
2, 110324, Note_off_c, 0, 63, 95
2, 110324, Note_off_c, 0, 58, 95
2, 110324, Note_off_c, 0, 54, 95
2, 110324, Note_off_c, 0, 49, 95
2, 110400, Note_on_c, 0, 67, 95
2, 110400, Note_on_c, 0, 62, 95
2, 110400, Note_on_c, 0, 59, 95
2, 110400, Note_on_c, 0, 55, 95
2, 110880, Note_off_c, 0, 67, 95
2, 110880, Note_off_c, 0, 62, 95
2, 110880, Note_off_c, 0, 59, 95
2, 110880, Note_off_c, 0, 55, 95
2, 111360, Note_on_c, 0, 53, 95
2, 111360, Note_on_c, 0, 48, 95
2, 111360, Note_on_c, 0, 41, 95
2, 111840, Note_off_c, 0, 53, 95
2, 111840, Note_off_c, 0, 48, 95
2, 111840, Note_off_c, 0, 41, 95
2, 111840, Note_on_c, 0, 53, 95
2, 111840, Note_on_c, 0, 48, 95
2, 111840, Note_on_c, 0, 41, 95
2, 112320, Note_off_c, 0, 53, 95
2, 112320, Note_off_c, 0, 48, 95
2, 112320, Note_off_c, 0, 41, 95
2, 112320, Note_on_c, 0, 65, 95
2, 112320, Note_on_c, 0, 60, 95
2, 112320, Note_on_c, 0, 57, 95
2, 112320, Note_on_c, 0, 53, 95
2, 112800, Note_off_c, 0, 65, 95
2, 112800, Note_off_c, 0, 60, 95
2, 112800, Note_off_c, 0, 57, 95
2, 112800, Note_off_c, 0, 53, 95
2, 113280, Note_on_c, 0, 48, 95
2, 113280, Note_on_c, 0, 41, 95
2, 113520, Note_off_c, 0, 48, 95
2, 113520, Note_off_c, 0, 41, 95
2, 113520, Note_on_c, 0, 48, 95
2, 113520, Note_on_c, 0, 41, 95
2, 113760, Note_off_c, 0, 48, 95
2, 113760, Note_off_c, 0, 41, 95
2, 113760, Note_on_c, 0, 65, 95
2, 113760, Note_on_c, 0, 60, 95
2, 113760, Note_on_c, 0, 57, 95
2, 113760, Note_on_c, 0, 53, 95
2, 114000, Note_off_c, 0, 65, 95
2, 114000, Note_off_c, 0, 60, 95
2, 114000, Note_off_c, 0, 57, 95
2, 114000, Note_off_c, 0, 53, 95
2, 114000, Note_on_c, 0, 48, 95
2, 114000, Note_on_c, 0, 41, 95
2, 114240, Note_off_c, 0, 48, 95
2, 114240, Note_off_c, 0, 41, 95
2, 114240, Note_on_c, 0, 48, 95
2, 114240, Note_on_c, 0, 41, 95
2, 114480, Note_off_c, 0, 48, 95
2, 114480, Note_off_c, 0, 41, 95
2, 114480, Note_on_c, 0, 65, 95
2, 114480, Note_on_c, 0, 60, 95
2, 114480, Note_on_c, 0, 57, 95
2, 114480, Note_on_c, 0, 53, 95
2, 114720, Note_off_c, 0, 65, 95
2, 114720, Note_off_c, 0, 60, 95
2, 114720, Note_off_c, 0, 57, 95
2, 114720, Note_off_c, 0, 53, 95
2, 114720, Note_on_c, 0, 65, 95
2, 114720, Note_on_c, 0, 60, 95
2, 114720, Note_on_c, 0, 57, 95
2, 114720, Note_on_c, 0, 53, 95
2, 115200, Note_off_c, 0, 65, 95
2, 115200, Note_off_c, 0, 60, 95
2, 115200, Note_off_c, 0, 57, 95
2, 115200, Note_off_c, 0, 53, 95
2, 115200, Note_on_c, 0, 43, 95
2, 115440, Note_off_c, 0, 43, 95
2, 115440, Note_on_c, 0, 43, 95
2, 115680, Note_off_c, 0, 43, 95
2, 115680, Note_on_c, 0, 43, 95
2, 116160, Note_off_c, 0, 43, 95
2, 116160, Note_on_c, 0, 67, 95
2, 116160, Note_on_c, 0, 62, 95
2, 116160, Note_on_c, 0, 59, 95
2, 116160, Note_on_c, 0, 55, 95
2, 116640, Note_off_c, 0, 67, 95
2, 116640, Note_off_c, 0, 62, 95
2, 116640, Note_off_c, 0, 59, 95
2, 116640, Note_off_c, 0, 55, 95
2, 117120, Note_on_c, 0, 43, 95
2, 117360, Note_off_c, 0, 43, 95
2, 117360, Note_on_c, 0, 43, 95
2, 117600, Note_off_c, 0, 43, 95
2, 117600, Note_on_c, 0, 43, 95
2, 117840, Note_off_c, 0, 43, 95
2, 117840, Note_on_c, 0, 43, 95
2, 118080, Note_off_c, 0, 43, 95
2, 118080, Note_on_c, 0, 47, 95
2, 118320, Note_off_c, 0, 47, 95
2, 118320, Note_on_c, 0, 47, 95
2, 118560, Note_off_c, 0, 47, 95
2, 118560, Note_on_c, 0, 43, 95
2, 119040, Note_off_c, 0, 43, 95
2, 119040, Note_on_c, 0, 41, 95
2, 119520, Note_off_c, 0, 41, 95
2, 119520, Note_on_c, 0, 41, 95
2, 120000, Note_off_c, 0, 41, 95
2, 120000, Note_on_c, 0, 41, 95
2, 120480, Note_off_c, 0, 41, 95
2, 120480, Note_on_c, 0, 41, 95
2, 120720, Note_off_c, 0, 41, 95
2, 120720, Note_on_c, 0, 41, 95
2, 120960, Note_off_c, 0, 41, 95
2, 120960, Note_on_c, 0, 41, 95
2, 121440, Note_off_c, 0, 41, 95
2, 121440, Note_on_c, 0, 41, 95
2, 121920, Note_off_c, 0, 41, 95
2, 121920, Note_on_c, 0, 41, 95
2, 122160, Note_off_c, 0, 41, 95
2, 122160, Note_on_c, 0, 41, 95
2, 122400, Note_off_c, 0, 41, 95
2, 122400, Note_on_c, 0, 41, 95
2, 122640, Note_off_c, 0, 41, 95
2, 122640, Note_on_c, 0, 41, 95
2, 122880, Note_off_c, 0, 41, 95
2, 122880, Note_on_c, 0, 43, 95
2, 123120, Note_off_c, 0, 43, 95
2, 123120, Note_on_c, 0, 43, 95
2, 123360, Note_off_c, 0, 43, 95
2, 123360, Note_on_c, 0, 43, 95
2, 123840, Note_off_c, 0, 43, 95
2, 123840, Note_on_c, 0, 67, 95
2, 123840, Note_on_c, 0, 62, 95
2, 123840, Note_on_c, 0, 59, 95
2, 123840, Note_on_c, 0, 55, 95
2, 124320, Note_off_c, 0, 67, 95
2, 124320, Note_off_c, 0, 62, 95
2, 124320, Note_off_c, 0, 59, 95
2, 124320, Note_off_c, 0, 55, 95
2, 124800, Note_on_c, 0, 43, 95
2, 125040, Note_off_c, 0, 43, 95
2, 125040, Note_on_c, 0, 43, 95
2, 125280, Note_off_c, 0, 43, 95
2, 125280, Note_on_c, 0, 43, 95
2, 125520, Note_off_c, 0, 43, 95
2, 125520, Note_on_c, 0, 43, 95
2, 125760, Note_off_c, 0, 43, 95
2, 125760, Note_on_c, 0, 67, 95
2, 125760, Note_on_c, 0, 62, 95
2, 125760, Note_on_c, 0, 59, 95
2, 125760, Note_on_c, 0, 55, 95
2, 126240, Note_off_c, 0, 67, 95
2, 126240, Note_off_c, 0, 62, 95
2, 126240, Note_off_c, 0, 59, 95
2, 126240, Note_off_c, 0, 55, 95
2, 126240, Note_on_c, 0, 43, 95
2, 126480, Note_off_c, 0, 43, 95
2, 126480, Note_on_c, 0, 43, 95
2, 126720, Note_off_c, 0, 43, 95
2, 126720, Note_on_c, 0, 41, 95
2, 126960, Note_off_c, 0, 41, 95
2, 126960, Note_on_c, 0, 41, 95
2, 127200, Note_off_c, 0, 41, 95
2, 127200, Note_on_c, 0, 41, 95
2, 127440, Note_off_c, 0, 41, 95
2, 127440, Note_on_c, 0, 41, 95
2, 127680, Note_off_c, 0, 41, 95
2, 127680, Note_on_c, 0, 65, 95
2, 127680, Note_on_c, 0, 60, 95
2, 127680, Note_on_c, 0, 57, 95
2, 127680, Note_on_c, 0, 53, 95
2, 128160, Note_off_c, 0, 65, 95
2, 128160, Note_off_c, 0, 60, 95
2, 128160, Note_off_c, 0, 57, 95
2, 128160, Note_off_c, 0, 53, 95
2, 128640, Note_on_c, 0, 41, 95
2, 128880, Note_off_c, 0, 41, 95
2, 128880, Note_on_c, 0, 41, 95
2, 129120, Note_off_c, 0, 41, 95
2, 129120, Note_on_c, 0, 41, 95
2, 129360, Note_off_c, 0, 41, 95
2, 129360, Note_on_c, 0, 41, 95
2, 129600, Note_off_c, 0, 41, 95
2, 129600, Note_on_c, 0, 65, 95
2, 129600, Note_on_c, 0, 60, 95
2, 129600, Note_on_c, 0, 57, 95
2, 129600, Note_on_c, 0, 53, 95
2, 130080, Note_off_c, 0, 65, 95
2, 130080, Note_off_c, 0, 60, 95
2, 130080, Note_off_c, 0, 57, 95
2, 130080, Note_off_c, 0, 53, 95
2, 130080, Note_on_c, 0, 41, 95
2, 130320, Note_off_c, 0, 41, 95
2, 130320, Note_on_c, 0, 41, 95
2, 130560, Note_off_c, 0, 41, 95
2, 130560, Note_on_c, 0, 43, 95
2, 130800, Note_off_c, 0, 43, 95
2, 130800, Note_on_c, 0, 43, 95
2, 131040, Note_off_c, 0, 43, 95
2, 131040, Note_on_c, 0, 43, 95
2, 131280, Note_off_c, 0, 43, 95
2, 131280, Note_on_c, 0, 43, 95
2, 131520, Note_off_c, 0, 43, 95
2, 131520, Note_on_c, 0, 67, 95
2, 131520, Note_on_c, 0, 62, 95
2, 131520, Note_on_c, 0, 59, 95
2, 131520, Note_on_c, 0, 55, 95
2, 132000, Note_off_c, 0, 67, 95
2, 132000, Note_off_c, 0, 62, 95
2, 132000, Note_off_c, 0, 59, 95
2, 132000, Note_off_c, 0, 55, 95
2, 132000, Note_on_c, 0, 59, 95
2, 132000, Note_on_c, 0, 55, 95
2, 132000, Note_on_c, 0, 50, 95
2, 132000, Note_on_c, 0, 43, 95
2, 132240, Note_off_c, 0, 59, 95
2, 132240, Note_off_c, 0, 55, 95
2, 132240, Note_off_c, 0, 50, 95
2, 132240, Note_off_c, 0, 43, 95
2, 132240, Note_on_c, 0, 59, 95
2, 132240, Note_on_c, 0, 55, 95
2, 132240, Note_on_c, 0, 50, 95
2, 132240, Note_on_c, 0, 43, 95
2, 132480, Note_off_c, 0, 59, 95
2, 132480, Note_off_c, 0, 55, 95
2, 132480, Note_off_c, 0, 50, 95
2, 132480, Note_off_c, 0, 43, 95
2, 132480, Note_on_c, 0, 59, 95
2, 132480, Note_on_c, 0, 55, 95
2, 132480, Note_on_c, 0, 50, 95
2, 132480, Note_on_c, 0, 43, 95
2, 132720, Note_off_c, 0, 59, 95
2, 132720, Note_off_c, 0, 55, 95
2, 132720, Note_off_c, 0, 50, 95
2, 132720, Note_off_c, 0, 43, 95
2, 132720, Note_on_c, 0, 59, 95
2, 132720, Note_on_c, 0, 55, 95
2, 132720, Note_on_c, 0, 50, 95
2, 132720, Note_on_c, 0, 43, 95
2, 132960, Note_off_c, 0, 59, 95
2, 132960, Note_off_c, 0, 55, 95
2, 132960, Note_off_c, 0, 50, 95
2, 132960, Note_off_c, 0, 43, 95
2, 132960, Note_on_c, 0, 59, 95
2, 132960, Note_on_c, 0, 55, 95
2, 132960, Note_on_c, 0, 50, 95
2, 132960, Note_on_c, 0, 43, 95
2, 133200, Note_off_c, 0, 59, 95
2, 133200, Note_off_c, 0, 55, 95
2, 133200, Note_off_c, 0, 50, 95
2, 133200, Note_off_c, 0, 43, 95
2, 133200, Note_on_c, 0, 59, 95
2, 133200, Note_on_c, 0, 55, 95
2, 133200, Note_on_c, 0, 50, 95
2, 133200, Note_on_c, 0, 43, 95
2, 133440, Note_off_c, 0, 59, 95
2, 133440, Note_off_c, 0, 55, 95
2, 133440, Note_off_c, 0, 50, 95
2, 133440, Note_off_c, 0, 43, 95
2, 133440, Note_on_c, 0, 62, 95
2, 133440, Note_on_c, 0, 59, 95
2, 133440, Note_on_c, 0, 55, 95
2, 133440, Note_on_c, 0, 50, 95
2, 133440, Note_on_c, 0, 43, 95
2, 133680, Note_off_c, 0, 62, 95
2, 133680, Note_off_c, 0, 59, 95
2, 133680, Note_off_c, 0, 55, 95
2, 133680, Note_off_c, 0, 50, 95
2, 133680, Note_off_c, 0, 43, 95
2, 133680, Note_on_c, 0, 62, 95
2, 133680, Note_on_c, 0, 59, 95
2, 133680, Note_on_c, 0, 55, 95
2, 133680, Note_on_c, 0, 50, 95
2, 133680, Note_on_c, 0, 43, 95
2, 133920, Note_off_c, 0, 62, 95
2, 133920, Note_off_c, 0, 59, 95
2, 133920, Note_off_c, 0, 55, 95
2, 133920, Note_off_c, 0, 50, 95
2, 133920, Note_off_c, 0, 43, 95
2, 133920, Note_on_c, 0, 62, 95
2, 133920, Note_on_c, 0, 59, 95
2, 133920, Note_on_c, 0, 55, 95
2, 133920, Note_on_c, 0, 50, 95
2, 133920, Note_on_c, 0, 43, 95
2, 134160, Note_off_c, 0, 62, 95
2, 134160, Note_off_c, 0, 59, 95
2, 134160, Note_off_c, 0, 55, 95
2, 134160, Note_off_c, 0, 50, 95
2, 134160, Note_off_c, 0, 43, 95
2, 134160, Note_on_c, 0, 62, 95
2, 134160, Note_on_c, 0, 59, 95
2, 134160, Note_on_c, 0, 55, 95
2, 134160, Note_on_c, 0, 50, 95
2, 134160, Note_on_c, 0, 43, 95
2, 134400, Note_off_c, 0, 62, 95
2, 134400, Note_off_c, 0, 59, 95
2, 134400, Note_off_c, 0, 55, 95
2, 134400, Note_off_c, 0, 50, 95
2, 134400, Note_off_c, 0, 43, 95
2, 134400, Note_on_c, 0, 62, 95
2, 134400, Note_on_c, 0, 58, 95
2, 134400, Note_on_c, 0, 53, 95
2, 134400, Note_on_c, 0, 46, 95
2, 134640, Note_off_c, 0, 62, 95
2, 134640, Note_off_c, 0, 58, 95
2, 134640, Note_off_c, 0, 53, 95
2, 134640, Note_off_c, 0, 46, 95
2, 134640, Note_on_c, 0, 62, 95
2, 134640, Note_on_c, 0, 58, 95
2, 134640, Note_on_c, 0, 53, 95
2, 134640, Note_on_c, 0, 46, 95
2, 134880, Note_off_c, 0, 62, 95
2, 134880, Note_off_c, 0, 58, 95
2, 134880, Note_off_c, 0, 53, 95
2, 134880, Note_off_c, 0, 46, 95
2, 134880, Note_on_c, 0, 62, 95
2, 134880, Note_on_c, 0, 58, 95
2, 134880, Note_on_c, 0, 53, 95
2, 134880, Note_on_c, 0, 46, 95
2, 135120, Note_off_c, 0, 62, 95
2, 135120, Note_off_c, 0, 58, 95
2, 135120, Note_off_c, 0, 53, 95
2, 135120, Note_off_c, 0, 46, 95
2, 135120, Note_on_c, 0, 62, 95
2, 135120, Note_on_c, 0, 58, 95
2, 135120, Note_on_c, 0, 53, 95
2, 135120, Note_on_c, 0, 46, 95
2, 135360, Note_off_c, 0, 62, 95
2, 135360, Note_off_c, 0, 58, 95
2, 135360, Note_off_c, 0, 53, 95
2, 135360, Note_off_c, 0, 46, 95
2, 135360, Note_on_c, 0, 62, 95
2, 135360, Note_on_c, 0, 58, 95
2, 135360, Note_on_c, 0, 53, 95
2, 135360, Note_on_c, 0, 46, 95
2, 135600, Note_off_c, 0, 62, 95
2, 135600, Note_off_c, 0, 58, 95
2, 135600, Note_off_c, 0, 53, 95
2, 135600, Note_off_c, 0, 46, 95
2, 135600, Note_on_c, 0, 62, 95
2, 135600, Note_on_c, 0, 58, 95
2, 135600, Note_on_c, 0, 53, 95
2, 135600, Note_on_c, 0, 46, 95
2, 135840, Note_off_c, 0, 62, 95
2, 135840, Note_off_c, 0, 58, 95
2, 135840, Note_off_c, 0, 53, 95
2, 135840, Note_off_c, 0, 46, 95
2, 135840, Note_on_c, 0, 62, 95
2, 135840, Note_on_c, 0, 58, 95
2, 135840, Note_on_c, 0, 53, 95
2, 135840, Note_on_c, 0, 46, 95
2, 136080, Note_off_c, 0, 62, 95
2, 136080, Note_off_c, 0, 58, 95
2, 136080, Note_off_c, 0, 53, 95
2, 136080, Note_off_c, 0, 46, 95
2, 136080, Note_on_c, 0, 62, 95
2, 136080, Note_on_c, 0, 58, 95
2, 136080, Note_on_c, 0, 53, 95
2, 136080, Note_on_c, 0, 46, 95
2, 136320, Note_off_c, 0, 62, 95
2, 136320, Note_off_c, 0, 58, 95
2, 136320, Note_off_c, 0, 53, 95
2, 136320, Note_off_c, 0, 46, 95
2, 136320, Note_on_c, 0, 62, 95
2, 136320, Note_on_c, 0, 58, 95
2, 136320, Note_on_c, 0, 53, 95
2, 136320, Note_on_c, 0, 46, 95
2, 136560, Note_off_c, 0, 62, 95
2, 136560, Note_off_c, 0, 58, 95
2, 136560, Note_off_c, 0, 53, 95
2, 136560, Note_off_c, 0, 46, 95
2, 136560, Note_on_c, 0, 62, 95
2, 136560, Note_on_c, 0, 58, 95
2, 136560, Note_on_c, 0, 53, 95
2, 136560, Note_on_c, 0, 46, 95
2, 136800, Note_off_c, 0, 62, 95
2, 136800, Note_off_c, 0, 58, 95
2, 136800, Note_off_c, 0, 53, 95
2, 136800, Note_off_c, 0, 46, 95
2, 136800, Note_on_c, 0, 62, 95
2, 136800, Note_on_c, 0, 58, 95
2, 136800, Note_on_c, 0, 53, 95
2, 136800, Note_on_c, 0, 46, 95
2, 137040, Note_off_c, 0, 62, 95
2, 137040, Note_off_c, 0, 58, 95
2, 137040, Note_off_c, 0, 53, 95
2, 137040, Note_off_c, 0, 46, 95
2, 137040, Note_on_c, 0, 62, 95
2, 137040, Note_on_c, 0, 58, 95
2, 137040, Note_on_c, 0, 53, 95
2, 137040, Note_on_c, 0, 46, 95
2, 137280, Note_off_c, 0, 62, 95
2, 137280, Note_off_c, 0, 58, 95
2, 137280, Note_off_c, 0, 53, 95
2, 137280, Note_off_c, 0, 46, 95
2, 137280, Note_on_c, 0, 62, 95
2, 137280, Note_on_c, 0, 58, 95
2, 137280, Note_on_c, 0, 53, 95
2, 137280, Note_on_c, 0, 46, 95
2, 137520, Note_off_c, 0, 62, 95
2, 137520, Note_off_c, 0, 58, 95
2, 137520, Note_off_c, 0, 53, 95
2, 137520, Note_off_c, 0, 46, 95
2, 137520, Note_on_c, 0, 62, 95
2, 137520, Note_on_c, 0, 58, 95
2, 137520, Note_on_c, 0, 53, 95
2, 137520, Note_on_c, 0, 46, 95
2, 137760, Note_off_c, 0, 62, 95
2, 137760, Note_off_c, 0, 58, 95
2, 137760, Note_off_c, 0, 53, 95
2, 137760, Note_off_c, 0, 46, 95
2, 137760, Note_on_c, 0, 62, 95
2, 137760, Note_on_c, 0, 58, 95
2, 137760, Note_on_c, 0, 53, 95
2, 137760, Note_on_c, 0, 46, 95
2, 138000, Note_off_c, 0, 62, 95
2, 138000, Note_off_c, 0, 58, 95
2, 138000, Note_off_c, 0, 53, 95
2, 138000, Note_off_c, 0, 46, 95
2, 138000, Note_on_c, 0, 62, 95
2, 138000, Note_on_c, 0, 58, 95
2, 138000, Note_on_c, 0, 53, 95
2, 138000, Note_on_c, 0, 46, 95
2, 138240, Note_off_c, 0, 62, 95
2, 138240, Note_off_c, 0, 58, 95
2, 138240, Note_off_c, 0, 53, 95
2, 138240, Note_off_c, 0, 46, 95
2, 138240, Note_on_c, 0, 60, 95
2, 138240, Note_on_c, 0, 55, 95
2, 138240, Note_on_c, 0, 48, 95
2, 138720, Note_off_c, 0, 60, 95
2, 138720, Note_off_c, 0, 55, 95
2, 138720, Note_off_c, 0, 48, 95
2, 139440, Note_on_c, 0, 39, 95
2, 139484, Note_off_c, 0, 39, 95
2, 140160, Note_on_c, 0, 60, 95
2, 140160, Note_on_c, 0, 57, 95
2, 140160, Note_on_c, 0, 53, 95
2, 140160, Note_on_c, 0, 48, 95
2, 140640, Note_off_c, 0, 60, 95
2, 140640, Note_off_c, 0, 57, 95
2, 140640, Note_off_c, 0, 53, 95
2, 140640, Note_off_c, 0, 48, 95
2, 140640, Note_on_c, 0, 60, 95
2, 140640, Note_on_c, 0, 57, 95
2, 140640, Note_on_c, 0, 53, 95
2, 140640, Note_on_c, 0, 48, 95
2, 142080, Note_off_c, 0, 60, 95
2, 142080, Note_off_c, 0, 57, 95
2, 142080, Note_off_c, 0, 53, 95
2, 142080, Note_off_c, 0, 48, 95
2, 142080, Note_on_c, 0, 48, 95
2, 142560, Note_off_c, 0, 48, 95
2, 142560, Note_on_c, 0, 48, 95
2, 143040, Note_off_c, 0, 48, 95
2, 143040, Note_on_c, 0, 64, 95
2, 143040, Note_on_c, 0, 60, 95
2, 143040, Note_on_c, 0, 55, 95
2, 144000, Note_off_c, 0, 64, 95
2, 144000, Note_off_c, 0, 60, 95
2, 144000, Note_off_c, 0, 55, 95
2, 144000, Note_on_c, 0, 41, 95
2, 144480, Note_off_c, 0, 41, 95
2, 144480, Note_on_c, 0, 41, 95
2, 144960, Note_off_c, 0, 41, 95
2, 144960, Note_on_c, 0, 60, 95
2, 144960, Note_on_c, 0, 57, 95
2, 144960, Note_on_c, 0, 53, 95
2, 145440, Note_off_c, 0, 60, 95
2, 145440, Note_off_c, 0, 57, 95
2, 145440, Note_off_c, 0, 53, 95
2, 145920, Note_on_c, 0, 43, 95
2, 146400, Note_off_c, 0, 43, 95
2, 146400, Note_on_c, 0, 43, 95
2, 146880, Note_off_c, 0, 43, 95
2, 146880, Note_on_c, 0, 67, 95
2, 146880, Note_on_c, 0, 62, 95
2, 146880, Note_on_c, 0, 59, 95
2, 146880, Note_on_c, 0, 55, 95
2, 146880, Note_on_c, 0, 50, 95
2, 147360, Note_off_c, 0, 67, 95
2, 147360, Note_off_c, 0, 62, 95
2, 147360, Note_off_c, 0, 59, 95
2, 147360, Note_off_c, 0, 55, 95
2, 147360, Note_off_c, 0, 50, 95
2, 147840, Note_on_c, 0, 45, 95
2, 148320, Note_off_c, 0, 45, 95
2, 148320, Note_on_c, 0, 45, 95
2, 148800, Note_off_c, 0, 45, 95
2, 148800, Note_on_c, 0, 64, 95
2, 148800, Note_on_c, 0, 61, 95
2, 148800, Note_on_c, 0, 57, 95
2, 148800, Note_on_c, 0, 52, 95
2, 149040, Note_off_c, 0, 64, 95
2, 149040, Note_off_c, 0, 61, 95
2, 149040, Note_off_c, 0, 57, 95
2, 149040, Note_off_c, 0, 52, 95
2, 149040, Note_on_c, 0, 64, 95
2, 149040, Note_on_c, 0, 61, 95
2, 149040, Note_on_c, 0, 57, 95
2, 149040, Note_on_c, 0, 52, 95
2, 149760, Note_off_c, 0, 64, 95
2, 149760, Note_off_c, 0, 61, 95
2, 149760, Note_off_c, 0, 57, 95
2, 149760, Note_off_c, 0, 52, 95
2, 149760, Note_on_c, 0, 50, 95
2, 150240, Note_off_c, 0, 50, 95
2, 150240, Note_on_c, 0, 50, 95
2, 150720, Note_off_c, 0, 50, 95
2, 150720, Note_on_c, 0, 66, 95
2, 150720, Note_on_c, 0, 62, 95
2, 150720, Note_on_c, 0, 57, 95
2, 151200, Note_off_c, 0, 66, 95
2, 151200, Note_off_c, 0, 62, 95
2, 151200, Note_off_c, 0, 57, 95
2, 151680, Note_on_c, 0, 43, 95
2, 152160, Note_off_c, 0, 43, 95
2, 152160, Note_on_c, 0, 43, 95
2, 152640, Note_off_c, 0, 43, 95
2, 152640, Note_on_c, 0, 67, 95
2, 152640, Note_on_c, 0, 62, 95
2, 152640, Note_on_c, 0, 59, 95
2, 152640, Note_on_c, 0, 55, 95
2, 152640, Note_on_c, 0, 50, 95
2, 153120, Note_off_c, 0, 67, 95
2, 153120, Note_off_c, 0, 62, 95
2, 153120, Note_off_c, 0, 59, 95
2, 153120, Note_off_c, 0, 55, 95
2, 153120, Note_off_c, 0, 50, 95
2, 153600, Note_on_c, 0, 45, 95
2, 154080, Note_off_c, 0, 45, 95
2, 154080, Note_on_c, 0, 45, 95
2, 154560, Note_off_c, 0, 45, 95
2, 154560, Note_on_c, 0, 64, 95
2, 154560, Note_on_c, 0, 61, 95
2, 154560, Note_on_c, 0, 57, 95
2, 154560, Note_on_c, 0, 52, 95
2, 155040, Note_off_c, 0, 64, 95
2, 155040, Note_off_c, 0, 61, 95
2, 155040, Note_off_c, 0, 57, 95
2, 155040, Note_off_c, 0, 52, 95
2, 155520, Note_on_c, 0, 43, 95
2, 156000, Note_off_c, 0, 43, 95
2, 156000, Note_on_c, 0, 43, 95
2, 156480, Note_off_c, 0, 43, 95
2, 156480, Note_on_c, 0, 62, 95
2, 156480, Note_on_c, 0, 59, 95
2, 156480, Note_on_c, 0, 55, 95
2, 156480, Note_on_c, 0, 50, 95
2, 156960, Note_off_c, 0, 62, 95
2, 156960, Note_off_c, 0, 59, 95
2, 156960, Note_off_c, 0, 55, 95
2, 156960, Note_off_c, 0, 50, 95
2, 157440, Note_on_c, 0, 50, 95
2, 157920, Note_off_c, 0, 50, 95
2, 157920, Note_on_c, 0, 50, 95
2, 158400, Note_off_c, 0, 50, 95
2, 158400, Note_on_c, 0, 66, 95
2, 158400, Note_on_c, 0, 62, 95
2, 158400, Note_on_c, 0, 57, 95
2, 158880, Note_off_c, 0, 66, 95
2, 158880, Note_off_c, 0, 62, 95
2, 158880, Note_off_c, 0, 57, 95
2, 159360, Note_on_c, 0, 43, 95
2, 159840, Note_off_c, 0, 43, 95
2, 159840, Note_on_c, 0, 67, 95
2, 159840, Note_on_c, 0, 62, 95
2, 159840, Note_on_c, 0, 59, 95
2, 159840, Note_on_c, 0, 55, 95
2, 159840, Note_on_c, 0, 50, 95
2, 160320, Note_off_c, 0, 67, 95
2, 160320, Note_off_c, 0, 62, 95
2, 160320, Note_off_c, 0, 59, 95
2, 160320, Note_off_c, 0, 55, 95
2, 160320, Note_off_c, 0, 50, 95
2, 160320, Note_on_c, 0, 43, 95
2, 160560, Note_off_c, 0, 43, 95
2, 160560, Note_on_c, 0, 67, 95
2, 160560, Note_on_c, 0, 62, 95
2, 160560, Note_on_c, 0, 59, 95
2, 160560, Note_on_c, 0, 55, 95
2, 160560, Note_on_c, 0, 50, 95
2, 161040, Note_off_c, 0, 67, 95
2, 161040, Note_off_c, 0, 62, 95
2, 161040, Note_off_c, 0, 59, 95
2, 161040, Note_off_c, 0, 55, 95
2, 161040, Note_off_c, 0, 50, 95
2, 161280, Note_on_c, 0, 61, 95
2, 161280, Note_on_c, 0, 57, 95
2, 161280, Note_on_c, 0, 52, 95
2, 161280, Note_on_c, 0, 45, 95
2, 163200, Note_off_c, 0, 61, 95
2, 163200, Note_off_c, 0, 57, 95
2, 163200, Note_off_c, 0, 52, 95
2, 163200, Note_off_c, 0, 45, 95
2, 163200, Note_on_c, 0, 60, 95
2, 163440, Note_off_c, 0, 60, 95
2, 163440, Note_on_c, 0, 57, 95
2, 163680, Note_off_c, 0, 57, 95
2, 163680, Note_on_c, 0, 56, 95
2, 163920, Note_off_c, 0, 56, 95
2, 163920, Note_on_c, 0, 55, 95
2, 164160, Note_off_c, 0, 55, 95
2, 164160, Note_on_c, 0, 53, 95
2, 164400, Note_off_c, 0, 53, 95
2, 164400, Note_on_c, 0, 50, 95
2, 164640, Note_off_c, 0, 50, 95
2, 164640, Note_on_c, 0, 48, 95
2, 165120, Note_off_c, 0, 48, 95
2, 165120, Note_on_c, 0, 50, 95
2, 165600, Note_off_c, 0, 50, 95
2, 165600, Note_on_c, 0, 50, 95
2, 166080, Note_off_c, 0, 50, 95
2, 166080, Note_on_c, 0, 66, 95
2, 166080, Note_on_c, 0, 62, 95
2, 166080, Note_on_c, 0, 57, 95
2, 166560, Note_off_c, 0, 66, 95
2, 166560, Note_off_c, 0, 62, 95
2, 166560, Note_off_c, 0, 57, 95
2, 167040, Note_on_c, 0, 43, 95
2, 167520, Note_off_c, 0, 43, 95
2, 167520, Note_on_c, 0, 43, 95
2, 168000, Note_off_c, 0, 43, 95
2, 168000, Note_on_c, 1, 65, 95
2, 168000, Note_on_c, 1, 60, 95
2, 168000, Note_on_c, 1, 57, 95
2, 168120, Pitch_bend_c, 1, 8832
2, 168120, Pitch_bend_c, 1, 8832
2, 168120, Pitch_bend_c, 1, 8832
2, 168240, Pitch_bend_c, 1, 9600
2, 168240, Pitch_bend_c, 1, 8192
2, 168240, Note_off_c, 1, 65, 95
2, 168240, Pitch_bend_c, 1, 9600
2, 168240, Pitch_bend_c, 1, 8192
2, 168240, Note_off_c, 1, 60, 95
2, 168240, Pitch_bend_c, 1, 9600
2, 168240, Pitch_bend_c, 1, 8192
2, 168240, Note_off_c, 1, 57, 95
2, 168240, Note_on_c, 0, 67, 95
2, 168240, Note_on_c, 0, 62, 95
2, 168240, Note_on_c, 0, 59, 95
2, 168960, Note_off_c, 0, 67, 95
2, 168960, Note_off_c, 0, 62, 95
2, 168960, Note_off_c, 0, 59, 95
2, 168960, Note_on_c, 0, 45, 95
2, 169440, Note_off_c, 0, 45, 95
2, 169440, Note_on_c, 0, 45, 95
2, 169920, Note_off_c, 0, 45, 95
2, 169920, Note_on_c, 0, 69, 95
2, 169920, Note_on_c, 0, 64, 95
2, 169920, Note_on_c, 0, 62, 95
2, 170400, Note_off_c, 0, 69, 95
2, 170400, Note_off_c, 0, 64, 95
2, 170400, Note_off_c, 0, 62, 95
2, 170880, Note_on_c, 0, 43, 95
2, 171120, Note_off_c, 0, 43, 95
2, 171120, Note_on_c, 0, 43, 95
2, 171360, Note_off_c, 0, 43, 95
2, 171360, Note_on_c, 0, 43, 95
2, 171600, Note_off_c, 0, 43, 95
2, 171600, Note_on_c, 0, 43, 95
2, 171840, Note_off_c, 0, 43, 95
2, 171840, Note_on_c, 0, 67, 95
2, 171840, Note_on_c, 0, 62, 95
2, 171840, Note_on_c, 0, 59, 95
2, 172080, Note_off_c, 0, 67, 95
2, 172080, Note_off_c, 0, 62, 95
2, 172080, Note_off_c, 0, 59, 95
2, 172080, Note_on_c, 0, 65, 95
2, 172080, Note_on_c, 0, 60, 95
2, 172080, Note_on_c, 0, 57, 95
2, 172800, Note_off_c, 0, 65, 95
2, 172800, Note_off_c, 0, 60, 95
2, 172800, Note_off_c, 0, 57, 95
2, 172800, Note_on_c, 0, 50, 95
2, 173760, Note_off_c, 0, 50, 95
2, 173760, Note_on_c, 0, 66, 95
2, 173760, Note_on_c, 0, 62, 95
2, 173760, Note_on_c, 0, 57, 95
2, 174240, Note_off_c, 0, 66, 95
2, 174240, Note_off_c, 0, 62, 95
2, 174240, Note_off_c, 0, 57, 95
2, 174480, Note_on_c, 0, 51, 95
2, 174720, Note_off_c, 0, 51, 95
2, 174720, Note_on_c, 0, 52, 95
2, 175200, Note_off_c, 0, 52, 95
2, 175200, Note_on_c, 0, 52, 95
2, 175680, Note_off_c, 0, 52, 95
2, 175680, Note_on_c, 0, 68, 95
2, 175680, Note_on_c, 0, 62, 95
2, 175680, Note_on_c, 0, 59, 95
2, 175920, Note_off_c, 0, 68, 95
2, 175920, Note_off_c, 0, 62, 95
2, 175920, Note_off_c, 0, 59, 95
2, 175920, Note_on_c, 0, 68, 95
2, 175920, Note_on_c, 0, 62, 95
2, 175920, Note_on_c, 0, 59, 95
2, 176400, Note_off_c, 0, 68, 95
2, 176400, Note_off_c, 0, 62, 95
2, 176400, Note_off_c, 0, 59, 95
2, 176400, Note_on_c, 0, 68, 95
2, 176400, Note_on_c, 0, 62, 95
2, 176400, Note_on_c, 0, 59, 95
2, 176640, Note_off_c, 0, 68, 95
2, 176640, Note_off_c, 0, 62, 95
2, 176640, Note_off_c, 0, 59, 95
2, 176640, Note_on_c, 0, 45, 95
2, 177120, Note_off_c, 0, 45, 95
2, 177120, Note_on_c, 0, 45, 95
2, 177600, Note_off_c, 0, 45, 95
2, 177600, Note_on_c, 0, 61, 95
2, 177600, Note_on_c, 0, 57, 95
2, 177600, Note_on_c, 0, 52, 95
2, 178080, Note_off_c, 0, 61, 95
2, 178080, Note_off_c, 0, 57, 95
2, 178080, Note_off_c, 0, 52, 95
2, 178080, Note_on_c, 0, 61, 95
2, 178080, Note_on_c, 0, 57, 95
2, 178080, Note_on_c, 0, 52, 95
2, 178560, Note_off_c, 0, 61, 95
2, 178560, Note_off_c, 0, 57, 95
2, 178560, Note_off_c, 0, 52, 95
2, 179040, Note_on_c, 0, 57, 95
2, 179280, Note_off_c, 0, 57, 95
2, 179280, Note_on_c, 0, 53, 95
2, 179760, Note_off_c, 0, 53, 95
2, 179760, Note_on_c, 0, 57, 95
2, 180000, Note_off_c, 0, 57, 95
2, 180000, Note_on_c, 0, 53, 95
2, 180480, Note_off_c, 0, 53, 95
2, 180480, Note_on_c, 0, 50, 95
2, 181440, Note_off_c, 0, 50, 95
2, 181440, Note_on_c, 0, 66, 95
2, 181440, Note_on_c, 0, 62, 95
2, 181440, Note_on_c, 0, 57, 95
2, 181920, Note_off_c, 0, 66, 95
2, 181920, Note_off_c, 0, 62, 95
2, 181920, Note_off_c, 0, 57, 95
2, 182400, Note_on_c, 0, 43, 95
2, 182880, Note_off_c, 0, 43, 95
2, 182880, Note_on_c, 0, 43, 95
2, 183360, Note_off_c, 0, 43, 95
2, 183360, Note_on_c, 0, 67, 95
2, 183360, Note_on_c, 0, 62, 95
2, 183360, Note_on_c, 0, 59, 95
2, 183600, Note_off_c, 0, 67, 95
2, 183600, Note_off_c, 0, 62, 95
2, 183600, Note_off_c, 0, 59, 95
2, 183600, Note_on_c, 0, 67, 95
2, 183600, Note_on_c, 0, 62, 95
2, 183600, Note_on_c, 0, 59, 95
2, 183840, Note_off_c, 0, 67, 95
2, 183840, Note_off_c, 0, 62, 95
2, 183840, Note_off_c, 0, 59, 95
2, 183840, Note_on_c, 0, 67, 95
2, 183840, Note_on_c, 0, 62, 95
2, 183840, Note_on_c, 0, 59, 95
2, 184320, Note_off_c, 0, 67, 95
2, 184320, Note_off_c, 0, 62, 95
2, 184320, Note_off_c, 0, 59, 95
2, 184320, Note_on_c, 0, 45, 95
2, 184800, Note_off_c, 0, 45, 95
2, 184800, Note_on_c, 0, 45, 95
2, 185280, Note_off_c, 0, 45, 95
2, 185280, Note_on_c, 0, 69, 95
2, 185280, Note_on_c, 0, 64, 95
2, 185280, Note_on_c, 0, 61, 95
2, 185280, Note_on_c, 0, 57, 95
2, 185760, Note_off_c, 0, 69, 95
2, 185760, Note_off_c, 0, 64, 95
2, 185760, Note_off_c, 0, 61, 95
2, 185760, Note_off_c, 0, 57, 95
2, 185760, Note_on_c, 0, 69, 95
2, 185760, Note_on_c, 0, 64, 95
2, 185760, Note_on_c, 0, 61, 95
2, 185760, Note_on_c, 0, 57, 95
2, 186240, Note_off_c, 0, 69, 95
2, 186240, Note_off_c, 0, 64, 95
2, 186240, Note_off_c, 0, 61, 95
2, 186240, Note_off_c, 0, 57, 95
2, 186240, Note_on_c, 0, 44, 95
2, 186720, Note_off_c, 0, 44, 95
2, 186720, Note_on_c, 0, 44, 95
2, 187200, Note_off_c, 0, 44, 95
2, 187200, Note_on_c, 0, 68, 95
2, 187200, Note_on_c, 0, 63, 95
2, 187200, Note_on_c, 0, 60, 95
2, 187200, Note_on_c, 0, 56, 95
2, 187680, Note_off_c, 0, 68, 95
2, 187680, Note_off_c, 0, 63, 95
2, 187680, Note_off_c, 0, 60, 95
2, 187680, Note_off_c, 0, 56, 95
2, 187680, Note_on_c, 0, 68, 95
2, 187680, Note_on_c, 0, 63, 95
2, 187680, Note_on_c, 0, 60, 95
2, 187680, Note_on_c, 0, 56, 95
2, 188160, Note_off_c, 0, 68, 95
2, 188160, Note_off_c, 0, 63, 95
2, 188160, Note_off_c, 0, 60, 95
2, 188160, Note_off_c, 0, 56, 95
2, 188160, Note_on_c, 0, 43, 95
2, 188640, Note_off_c, 0, 43, 95
2, 188640, Note_on_c, 0, 55, 95
2, 188640, Note_on_c, 0, 50, 95
2, 189120, Note_off_c, 0, 55, 95
2, 189120, Note_off_c, 0, 50, 95
2, 189120, Note_on_c, 0, 53, 95
2, 189120, Note_on_c, 0, 48, 95
2, 189600, Note_off_c, 0, 53, 95
2, 189600, Note_off_c, 0, 48, 95
2, 189600, Note_on_c, 0, 55, 95
2, 189600, Note_on_c, 0, 50, 95
2, 190080, Note_off_c, 0, 55, 95
2, 190080, Note_off_c, 0, 50, 95
2, 190560, Note_on_c, 0, 60, 95
2, 190560, Note_on_c, 0, 55, 95
2, 191040, Note_off_c, 0, 60, 95
2, 191040, Note_off_c, 0, 55, 95
2, 191040, Note_on_c, 1, 58, 95
2, 191040, Note_on_c, 1, 53, 95
2, 191200, Pitch_bend_c, 1, 8192
2, 191200, Pitch_bend_c, 1, 8192
2, 191360, Pitch_bend_c, 1, 8320
2, 191360, Pitch_bend_c, 1, 8320
2, 191520, Pitch_bend_c, 1, 8192
2, 191520, Pitch_bend_c, 1, 8192
2, 191680, Pitch_bend_c, 1, 8320
2, 191680, Pitch_bend_c, 1, 8320
2, 191840, Pitch_bend_c, 1, 8192
2, 191840, Pitch_bend_c, 1, 8192
2, 192000, Pitch_bend_c, 1, 8320
2, 192000, Pitch_bend_c, 1, 8192
2, 192000, Note_off_c, 1, 58, 95
2, 192000, Pitch_bend_c, 1, 8320
2, 192000, Pitch_bend_c, 1, 8192
2, 192000, Note_off_c, 1, 53, 95
2, 192000, Note_on_c, 0, 53, 95
2, 192480, Note_off_c, 0, 53, 95
2, 192480, Note_on_c, 0, 48, 95
2, 192960, Note_off_c, 0, 48, 95
2, 192960, Note_on_c, 0, 53, 95
2, 193440, Note_off_c, 0, 53, 95
2, 193440, Note_on_c, 0, 50, 95
2, 195840, Note_off_c, 0, 50, 95
2, 195840, Note_on_c, 0, 58, 95
2, 195840, Note_on_c, 0, 53, 95
2, 195840, Note_on_c, 0, 46, 95
2, 196320, Note_off_c, 0, 58, 95
2, 196320, Note_off_c, 0, 53, 95
2, 196320, Note_off_c, 0, 46, 95
2, 196320, Note_on_c, 0, 58, 95
2, 196320, Note_on_c, 0, 53, 95
2, 196320, Note_on_c, 0, 46, 95
2, 196800, Note_off_c, 0, 58, 95
2, 196800, Note_off_c, 0, 53, 95
2, 196800, Note_off_c, 0, 46, 95
2, 196800, Note_on_c, 0, 58, 95
2, 196800, Note_on_c, 0, 53, 95
2, 196800, Note_on_c, 0, 46, 95
2, 197280, Note_off_c, 0, 58, 95
2, 197280, Note_off_c, 0, 53, 95
2, 197280, Note_off_c, 0, 46, 95
2, 197280, Note_on_c, 0, 59, 95
2, 197280, Note_on_c, 0, 55, 95
2, 197280, Note_on_c, 0, 50, 95
2, 197280, Note_on_c, 0, 43, 95
2, 198720, Note_off_c, 0, 59, 95
2, 198720, Note_off_c, 0, 55, 95
2, 198720, Note_off_c, 0, 50, 95
2, 198720, Note_off_c, 0, 43, 95
2, 198720, Note_on_c, 0, 43, 95
2, 199200, Note_off_c, 0, 43, 95
2, 199200, Note_on_c, 0, 43, 95
2, 199680, Note_off_c, 0, 43, 95
2, 199680, Note_on_c, 0, 48, 95
2, 200100, Note_on_c, 1, 51, 95
2, 200160, Note_off_c, 0, 48, 95
2, 200160, Note_off_c, 1, 51, 95
2, 200160, Note_on_c, 1, 52, 95
2, 200640, Note_off_c, 1, 52, 95
2, 200640, Note_on_c, 0, 55, 95
2, 201120, Note_off_c, 0, 55, 95
2, 201120, Note_on_c, 0, 57, 95
2, 201120, Note_on_c, 0, 50, 95
2, 203520, Note_off_c, 0, 57, 95
2, 203520, Note_off_c, 0, 50, 95
2, 203520, Note_on_c, 0, 50, 95
2, 204000, Note_off_c, 0, 50, 95
2, 204000, Note_on_c, 0, 48, 95
2, 204480, Note_off_c, 0, 48, 95
2, 204480, Note_on_c, 0, 45, 95
2, 204960, Note_off_c, 0, 45, 95
2, 204960, Note_on_c, 0, 44, 95
2, 205440, Note_off_c, 0, 44, 95
2, 205440, Note_on_c, 0, 43, 95
2, 205920, Note_off_c, 0, 43, 95
2, 205920, Note_on_c, 0, 41, 95
2, 206400, Note_off_c, 0, 41, 95
2, 206400, Note_on_c, 0, 39, 95
2, 206760, Note_off_c, 0, 39, 95
2, 206760, Note_on_c, 0, 39, 95
2, 206880, Note_off_c, 0, 39, 95
2, 206880, Note_on_c, 0, 41, 95
2, 207360, Note_off_c, 0, 41, 95
2, 207360, Note_on_c, 0, 50, 95
2, 207840, Note_off_c, 0, 50, 95
2, 207840, Note_on_c, 0, 50, 95
2, 208080, Note_off_c, 0, 50, 95
2, 208080, Note_on_c, 0, 50, 95
2, 208320, Note_off_c, 0, 50, 95
2, 208320, Note_on_c, 0, 50, 95
2, 208560, Note_off_c, 0, 50, 95
2, 208560, Note_on_c, 0, 50, 95
2, 208800, Note_off_c, 0, 50, 95
2, 208800, Note_on_c, 0, 50, 95
2, 209280, Note_off_c, 0, 50, 95
2, 209280, Note_on_c, 0, 59, 95
2, 209280, Note_on_c, 0, 55, 95
2, 209280, Note_on_c, 0, 50, 95
2, 209280, Note_on_c, 0, 43, 95
2, 209760, Note_off_c, 0, 59, 95
2, 209760, Note_off_c, 0, 55, 95
2, 209760, Note_off_c, 0, 50, 95
2, 209760, Note_off_c, 0, 43, 95
2, 209760, Note_on_c, 0, 59, 95
2, 209760, Note_on_c, 0, 55, 95
2, 209760, Note_on_c, 0, 50, 95
2, 209760, Note_on_c, 0, 43, 95
2, 210000, Note_off_c, 0, 59, 95
2, 210000, Note_off_c, 0, 55, 95
2, 210000, Note_off_c, 0, 50, 95
2, 210000, Note_off_c, 0, 43, 95
2, 210000, Note_on_c, 0, 59, 95
2, 210000, Note_on_c, 0, 55, 95
2, 210000, Note_on_c, 0, 50, 95
2, 210000, Note_on_c, 0, 43, 95
2, 210240, Note_off_c, 0, 59, 95
2, 210240, Note_off_c, 0, 55, 95
2, 210240, Note_off_c, 0, 50, 95
2, 210240, Note_off_c, 0, 43, 95
2, 210240, Note_on_c, 0, 65, 95
2, 210240, Note_on_c, 0, 59, 95
2, 210240, Note_on_c, 0, 55, 95
2, 210240, Note_on_c, 0, 50, 95
2, 210240, Note_on_c, 0, 43, 95
2, 210720, Note_off_c, 0, 65, 95
2, 210720, Note_off_c, 0, 59, 95
2, 210720, Note_off_c, 0, 55, 95
2, 210720, Note_off_c, 0, 50, 95
2, 210720, Note_off_c, 0, 43, 95
2, 210720, Note_on_c, 0, 59, 95
2, 210720, Note_on_c, 0, 55, 95
2, 210720, Note_on_c, 0, 50, 95
2, 210720, Note_on_c, 0, 43, 95
2, 210960, Note_off_c, 0, 59, 95
2, 210960, Note_off_c, 0, 55, 95
2, 210960, Note_off_c, 0, 50, 95
2, 210960, Note_off_c, 0, 43, 95
2, 210960, Note_on_c, 0, 59, 95
2, 210960, Note_on_c, 0, 55, 95
2, 210960, Note_on_c, 0, 50, 95
2, 210960, Note_on_c, 0, 43, 95
2, 211200, Note_off_c, 0, 59, 95
2, 211200, Note_off_c, 0, 55, 95
2, 211200, Note_off_c, 0, 50, 95
2, 211200, Note_off_c, 0, 43, 95
2, 211200, Note_on_c, 0, 61, 95
2, 211200, Note_on_c, 0, 57, 95
2, 211200, Note_on_c, 0, 52, 95
2, 211200, Note_on_c, 0, 45, 95
2, 211680, Note_off_c, 0, 61, 95
2, 211680, Note_off_c, 0, 57, 95
2, 211680, Note_off_c, 0, 52, 95
2, 211680, Note_off_c, 0, 45, 95
2, 211680, Note_on_c, 0, 61, 95
2, 211680, Note_on_c, 0, 57, 95
2, 211680, Note_on_c, 0, 52, 95
2, 211680, Note_on_c, 0, 45, 95
2, 211920, Note_off_c, 0, 61, 95
2, 211920, Note_off_c, 0, 57, 95
2, 211920, Note_off_c, 0, 52, 95
2, 211920, Note_off_c, 0, 45, 95
2, 211920, Note_on_c, 0, 61, 95
2, 211920, Note_on_c, 0, 57, 95
2, 211920, Note_on_c, 0, 52, 95
2, 211920, Note_on_c, 0, 45, 95
2, 212160, Note_off_c, 0, 61, 95
2, 212160, Note_off_c, 0, 57, 95
2, 212160, Note_off_c, 0, 52, 95
2, 212160, Note_off_c, 0, 45, 95
2, 212160, Note_on_c, 0, 61, 95
2, 212160, Note_on_c, 0, 57, 95
2, 212160, Note_on_c, 0, 52, 95
2, 212160, Note_on_c, 0, 45, 95
2, 212400, Note_off_c, 0, 61, 95
2, 212400, Note_off_c, 0, 57, 95
2, 212400, Note_off_c, 0, 52, 95
2, 212400, Note_off_c, 0, 45, 95
2, 212400, Note_on_c, 0, 61, 95
2, 212400, Note_on_c, 0, 57, 95
2, 212400, Note_on_c, 0, 52, 95
2, 212400, Note_on_c, 0, 45, 95
2, 212640, Note_off_c, 0, 61, 95
2, 212640, Note_off_c, 0, 57, 95
2, 212640, Note_off_c, 0, 52, 95
2, 212640, Note_off_c, 0, 45, 95
2, 212640, Note_on_c, 0, 61, 95
2, 212640, Note_on_c, 0, 57, 95
2, 212640, Note_on_c, 0, 52, 95
2, 212640, Note_on_c, 0, 45, 95
2, 212880, Note_off_c, 0, 61, 95
2, 212880, Note_off_c, 0, 57, 95
2, 212880, Note_off_c, 0, 52, 95
2, 212880, Note_off_c, 0, 45, 95
2, 212880, Note_on_c, 0, 61, 95
2, 212880, Note_on_c, 0, 57, 95
2, 212880, Note_on_c, 0, 52, 95
2, 212880, Note_on_c, 0, 45, 95
2, 213120, Note_off_c, 0, 61, 95
2, 213120, Note_off_c, 0, 57, 95
2, 213120, Note_off_c, 0, 52, 95
2, 213120, Note_off_c, 0, 45, 95
2, 213120, Note_on_c, 0, 59, 95
2, 213120, Note_on_c, 0, 55, 95
2, 213120, Note_on_c, 0, 50, 95
2, 213120, Note_on_c, 0, 43, 95
2, 213360, Note_off_c, 0, 59, 95
2, 213360, Note_off_c, 0, 55, 95
2, 213360, Note_off_c, 0, 50, 95
2, 213360, Note_off_c, 0, 43, 95
2, 213360, Note_on_c, 0, 59, 95
2, 213360, Note_on_c, 0, 55, 95
2, 213360, Note_on_c, 0, 50, 95
2, 213360, Note_on_c, 0, 43, 95
2, 213600, Note_off_c, 0, 59, 95
2, 213600, Note_off_c, 0, 55, 95
2, 213600, Note_off_c, 0, 50, 95
2, 213600, Note_off_c, 0, 43, 95
2, 213600, Note_on_c, 0, 59, 95
2, 213600, Note_on_c, 0, 55, 95
2, 213600, Note_on_c, 0, 50, 95
2, 213600, Note_on_c, 0, 43, 95
2, 213840, Note_off_c, 0, 59, 95
2, 213840, Note_off_c, 0, 55, 95
2, 213840, Note_off_c, 0, 50, 95
2, 213840, Note_off_c, 0, 43, 95
2, 213840, Note_on_c, 0, 59, 95
2, 213840, Note_on_c, 0, 55, 95
2, 213840, Note_on_c, 0, 50, 95
2, 213840, Note_on_c, 0, 43, 95
2, 214080, Note_off_c, 0, 59, 95
2, 214080, Note_off_c, 0, 55, 95
2, 214080, Note_off_c, 0, 50, 95
2, 214080, Note_off_c, 0, 43, 95
2, 214080, Note_on_c, 0, 57, 95
2, 214080, Note_on_c, 0, 54, 95
2, 214080, Note_on_c, 0, 49, 95
2, 214320, Note_off_c, 0, 57, 95
2, 214320, Note_off_c, 0, 54, 95
2, 214320, Note_off_c, 0, 49, 95
2, 214320, Note_on_c, 0, 57, 95
2, 214320, Note_on_c, 0, 54, 95
2, 214320, Note_on_c, 0, 49, 95
2, 214800, Note_off_c, 0, 57, 95
2, 214800, Note_off_c, 0, 54, 95
2, 214800, Note_off_c, 0, 49, 95
2, 214800, Note_on_c, 0, 57, 95
2, 214800, Note_on_c, 0, 54, 95
2, 214800, Note_on_c, 0, 49, 95
2, 215040, Note_off_c, 0, 57, 95
2, 215040, Note_off_c, 0, 54, 95
2, 215040, Note_off_c, 0, 49, 95
2, 215040, Note_on_c, 0, 50, 95
2, 215520, Note_off_c, 0, 50, 95
2, 215520, Note_on_c, 0, 50, 95
2, 216000, Note_off_c, 0, 50, 95
2, 216000, Note_on_c, 0, 62, 95
2, 216000, Note_on_c, 0, 60, 95
2, 216000, Note_on_c, 0, 54, 95
2, 216960, Note_off_c, 0, 62, 95
2, 216960, Note_off_c, 0, 60, 95
2, 216960, Note_off_c, 0, 54, 95
2, 216960, Note_on_c, 0, 52, 95
2, 217440, Note_off_c, 0, 52, 95
2, 217440, Note_on_c, 0, 52, 95
2, 217920, Note_off_c, 0, 52, 95
2, 217920, Note_on_c, 0, 62, 95
2, 217920, Note_on_c, 0, 56, 95
2, 218400, Note_off_c, 0, 62, 95
2, 218400, Note_off_c, 0, 56, 95
2, 218400, Note_on_c, 0, 64, 95
2, 218400, Note_on_c, 0, 62, 95
2, 218400, Note_on_c, 0, 56, 95
2, 218640, Note_off_c, 0, 64, 95
2, 218640, Note_off_c, 0, 62, 95
2, 218640, Note_off_c, 0, 56, 95
2, 218640, Note_on_c, 0, 62, 95
2, 218640, Note_on_c, 0, 56, 95
2, 218640, Note_on_c, 0, 52, 95
2, 218880, Note_off_c, 0, 62, 95
2, 218880, Note_off_c, 0, 56, 95
2, 218880, Note_off_c, 0, 52, 95
2, 218880, Note_on_c, 0, 45, 95
2, 219360, Note_off_c, 0, 45, 95
2, 219360, Note_on_c, 0, 45, 95
2, 219840, Note_off_c, 0, 45, 95
2, 219840, Note_on_c, 0, 69, 95
2, 219840, Note_on_c, 0, 64, 95
2, 219840, Note_on_c, 0, 61, 95
2, 219840, Note_on_c, 0, 57, 95
2, 220320, Note_off_c, 0, 69, 95
2, 220320, Note_off_c, 0, 64, 95
2, 220320, Note_off_c, 0, 61, 95
2, 220320, Note_off_c, 0, 57, 95
2, 220800, Note_on_c, 0, 57, 95
2, 221280, Note_off_c, 0, 57, 95
2, 221280, Note_on_c, 0, 55, 95
2, 221760, Note_off_c, 0, 55, 95
2, 221760, Note_on_c, 0, 53, 95
2, 222000, Note_off_c, 0, 53, 95
2, 222000, Note_on_c, 0, 55, 95
2, 222240, Note_off_c, 0, 55, 95
2, 222240, Note_on_c, 0, 53, 95
2, 222720, Note_off_c, 0, 53, 95
2, 223680, Note_on_c, 0, 67, 95
2, 223680, Note_on_c, 0, 62, 95
2, 224160, Note_off_c, 0, 67, 95
2, 224160, Note_off_c, 0, 62, 95
2, 224640, Note_on_c, 0, 55, 95
2, 225120, Note_off_c, 0, 55, 95
2, 225120, Note_on_c, 0, 55, 95
2, 225600, Note_off_c, 0, 55, 95
2, 225600, Note_on_c, 0, 59, 95
2, 225600, Note_on_c, 0, 53, 95
2, 226080, Note_off_c, 0, 59, 95
2, 226080, Note_off_c, 0, 53, 95
2, 226080, Note_on_c, 0, 63, 95
2, 226080, Note_on_c, 0, 58, 95
2, 226080, Note_on_c, 0, 54, 95
2, 226080, Note_on_c, 0, 49, 95
2, 226124, Note_off_c, 0, 63, 95
2, 226124, Note_off_c, 0, 58, 95
2, 226124, Note_off_c, 0, 54, 95
2, 226124, Note_off_c, 0, 49, 95
2, 226320, Note_on_c, 0, 63, 95
2, 226320, Note_on_c, 0, 58, 95
2, 226320, Note_on_c, 0, 54, 95
2, 226320, Note_on_c, 0, 49, 95
2, 226364, Note_off_c, 0, 63, 95
2, 226364, Note_off_c, 0, 58, 95
2, 226364, Note_off_c, 0, 54, 95
2, 226364, Note_off_c, 0, 49, 95
2, 226560, Note_on_c, 0, 57, 95
2, 227040, Note_off_c, 0, 57, 95
2, 227040, Note_on_c, 0, 57, 95
2, 227280, Note_off_c, 0, 57, 95
2, 227280, Note_on_c, 0, 61, 95
2, 227520, Note_off_c, 0, 61, 95
2, 227520, Note_on_c, 0, 64, 95
2, 228000, Note_off_c, 0, 64, 95
2, 228000, Note_on_c, 0, 61, 95
2, 228480, Note_off_c, 0, 61, 95
2, 228480, Note_on_c, 0, 54, 95
2, 228720, Note_off_c, 0, 54, 95
2, 228720, Note_on_c, 0, 60, 95
2, 228960, Note_off_c, 0, 60, 95
2, 228960, Note_on_c, 0, 70, 95
2, 228960, Note_on_c, 0, 63, 95
2, 229440, Note_off_c, 0, 70, 95
2, 229440, Note_off_c, 0, 63, 95
2, 229440, Note_on_c, 0, 63, 95
2, 229440, Note_on_c, 0, 60, 95
2, 229440, Note_on_c, 0, 56, 95
2, 229680, Note_off_c, 0, 63, 95
2, 229680, Note_off_c, 0, 60, 95
2, 229680, Note_off_c, 0, 56, 95
2, 229680, Note_on_c, 0, 63, 95
2, 229680, Note_on_c, 0, 60, 95
2, 229920, Note_off_c, 0, 63, 95
2, 229920, Note_off_c, 0, 60, 95
2, 229920, Note_on_c, 0, 63, 95
2, 229920, Note_on_c, 0, 60, 95
2, 229920, Note_on_c, 0, 56, 95
2, 230400, Note_off_c, 0, 63, 95
2, 230400, Note_off_c, 0, 60, 95
2, 230400, Note_off_c, 0, 56, 95
2, 230400, Note_on_c, 0, 59, 95
2, 230400, Note_on_c, 0, 55, 95
2, 230400, Note_on_c, 0, 50, 95
2, 230400, Note_on_c, 0, 43, 95
2, 230880, Note_off_c, 0, 59, 95
2, 230880, Note_off_c, 0, 55, 95
2, 230880, Note_off_c, 0, 50, 95
2, 230880, Note_off_c, 0, 43, 95
2, 230880, Note_on_c, 0, 59, 95
2, 230880, Note_on_c, 0, 55, 95
2, 230880, Note_on_c, 0, 50, 95
2, 230880, Note_on_c, 0, 43, 95
2, 231360, Note_off_c, 0, 59, 95
2, 231360, Note_off_c, 0, 55, 95
2, 231360, Note_off_c, 0, 50, 95
2, 231360, Note_off_c, 0, 43, 95
2, 231360, Note_on_c, 0, 59, 95
2, 231360, Note_on_c, 0, 55, 95
2, 231360, Note_on_c, 0, 50, 95
2, 231360, Note_on_c, 0, 43, 95
2, 231600, Note_off_c, 0, 59, 95
2, 231600, Note_off_c, 0, 55, 95
2, 231600, Note_off_c, 0, 50, 95
2, 231600, Note_off_c, 0, 43, 95
2, 231600, Note_on_c, 0, 59, 95
2, 231600, Note_on_c, 0, 55, 95
2, 231600, Note_on_c, 0, 50, 95
2, 231600, Note_on_c, 0, 43, 95
2, 231840, Note_off_c, 0, 59, 95
2, 231840, Note_off_c, 0, 55, 95
2, 231840, Note_off_c, 0, 50, 95
2, 231840, Note_off_c, 0, 43, 95
2, 231840, Note_on_c, 0, 59, 95
2, 231840, Note_on_c, 0, 55, 95
2, 231840, Note_on_c, 0, 50, 95
2, 231840, Note_on_c, 0, 43, 95
2, 232320, Note_off_c, 0, 59, 95
2, 232320, Note_off_c, 0, 55, 95
2, 232320, Note_off_c, 0, 50, 95
2, 232320, Note_off_c, 0, 43, 95
2, 232320, Note_on_c, 0, 59, 95
2, 232320, Note_on_c, 0, 55, 95
2, 232320, Note_on_c, 0, 50, 95
2, 232320, Note_on_c, 0, 43, 95
2, 232800, Note_off_c, 0, 59, 95
2, 232800, Note_off_c, 0, 55, 95
2, 232800, Note_off_c, 0, 50, 95
2, 232800, Note_off_c, 0, 43, 95
2, 232800, Note_on_c, 0, 59, 95
2, 232800, Note_on_c, 0, 55, 95
2, 232800, Note_on_c, 0, 50, 95
2, 232800, Note_on_c, 0, 43, 95
2, 233280, Note_off_c, 0, 59, 95
2, 233280, Note_off_c, 0, 55, 95
2, 233280, Note_off_c, 0, 50, 95
2, 233280, Note_off_c, 0, 43, 95
2, 233280, Note_on_c, 0, 59, 95
2, 233280, Note_on_c, 0, 55, 95
2, 233280, Note_on_c, 0, 50, 95
2, 233280, Note_on_c, 0, 43, 95
2, 233520, Note_off_c, 0, 59, 95
2, 233520, Note_off_c, 0, 55, 95
2, 233520, Note_off_c, 0, 50, 95
2, 233520, Note_off_c, 0, 43, 95
2, 233520, Note_on_c, 0, 59, 95
2, 233520, Note_on_c, 0, 55, 95
2, 233520, Note_on_c, 0, 50, 95
2, 233520, Note_on_c, 0, 43, 95
2, 233760, Note_off_c, 0, 59, 95
2, 233760, Note_off_c, 0, 55, 95
2, 233760, Note_off_c, 0, 50, 95
2, 233760, Note_off_c, 0, 43, 95
2, 233760, Note_on_c, 0, 59, 95
2, 233760, Note_on_c, 0, 55, 95
2, 233760, Note_on_c, 0, 50, 95
2, 233760, Note_on_c, 0, 43, 95
2, 234000, Note_off_c, 0, 59, 95
2, 234000, Note_off_c, 0, 55, 95
2, 234000, Note_off_c, 0, 50, 95
2, 234000, Note_off_c, 0, 43, 95
2, 234000, Note_on_c, 0, 59, 95
2, 234000, Note_on_c, 0, 55, 95
2, 234000, Note_on_c, 0, 50, 95
2, 234000, Note_on_c, 0, 43, 95
2, 234240, Note_off_c, 0, 59, 95
2, 234240, Note_off_c, 0, 55, 95
2, 234240, Note_off_c, 0, 50, 95
2, 234240, Note_off_c, 0, 43, 95
2, 234240, Note_on_c, 0, 59, 95
2, 234240, Note_on_c, 0, 55, 95
2, 234240, Note_on_c, 0, 50, 95
2, 234240, Note_on_c, 0, 43, 95
2, 234720, Note_off_c, 0, 59, 95
2, 234720, Note_off_c, 0, 55, 95
2, 234720, Note_off_c, 0, 50, 95
2, 234720, Note_off_c, 0, 43, 95
2, 234720, Note_on_c, 0, 59, 95
2, 234720, Note_on_c, 0, 55, 95
2, 234720, Note_on_c, 0, 50, 95
2, 234720, Note_on_c, 0, 43, 95
2, 235200, Note_off_c, 0, 59, 95
2, 235200, Note_off_c, 0, 55, 95
2, 235200, Note_off_c, 0, 50, 95
2, 235200, Note_off_c, 0, 43, 95
2, 235200, Note_on_c, 0, 59, 95
2, 235200, Note_on_c, 0, 55, 95
2, 235200, Note_on_c, 0, 50, 95
2, 235200, Note_on_c, 0, 43, 95
2, 235440, Note_off_c, 0, 59, 95
2, 235440, Note_off_c, 0, 55, 95
2, 235440, Note_off_c, 0, 50, 95
2, 235440, Note_off_c, 0, 43, 95
2, 235440, Note_on_c, 0, 59, 95
2, 235440, Note_on_c, 0, 55, 95
2, 235440, Note_on_c, 0, 50, 95
2, 235440, Note_on_c, 0, 43, 95
2, 235680, Note_off_c, 0, 59, 95
2, 235680, Note_off_c, 0, 55, 95
2, 235680, Note_off_c, 0, 50, 95
2, 235680, Note_off_c, 0, 43, 95
2, 235680, Note_on_c, 0, 59, 95
2, 235680, Note_on_c, 0, 55, 95
2, 235680, Note_on_c, 0, 50, 95
2, 235680, Note_on_c, 0, 43, 95
2, 236160, Note_off_c, 0, 59, 95
2, 236160, Note_off_c, 0, 55, 95
2, 236160, Note_off_c, 0, 50, 95
2, 236160, Note_off_c, 0, 43, 95
2, 236160, Note_on_c, 0, 59, 95
2, 236160, Note_on_c, 0, 55, 95
2, 236160, Note_on_c, 0, 50, 95
2, 236160, Note_on_c, 0, 43, 95
2, 236400, Note_off_c, 0, 59, 95
2, 236400, Note_off_c, 0, 55, 95
2, 236400, Note_off_c, 0, 50, 95
2, 236400, Note_off_c, 0, 43, 95
2, 236400, Note_on_c, 0, 59, 95
2, 236400, Note_on_c, 0, 55, 95
2, 236400, Note_on_c, 0, 50, 95
2, 236400, Note_on_c, 0, 43, 95
2, 236640, Note_off_c, 0, 59, 95
2, 236640, Note_off_c, 0, 55, 95
2, 236640, Note_off_c, 0, 50, 95
2, 236640, Note_off_c, 0, 43, 95
2, 236640, Note_on_c, 0, 59, 95
2, 236640, Note_on_c, 0, 55, 95
2, 236640, Note_on_c, 0, 50, 95
2, 236640, Note_on_c, 0, 43, 95
2, 236880, Note_off_c, 0, 59, 95
2, 236880, Note_off_c, 0, 55, 95
2, 236880, Note_off_c, 0, 50, 95
2, 236880, Note_off_c, 0, 43, 95
2, 236880, Note_on_c, 0, 59, 95
2, 236880, Note_on_c, 0, 55, 95
2, 236880, Note_on_c, 0, 50, 95
2, 236880, Note_on_c, 0, 43, 95
2, 237120, Note_off_c, 0, 59, 95
2, 237120, Note_off_c, 0, 55, 95
2, 237120, Note_off_c, 0, 50, 95
2, 237120, Note_off_c, 0, 43, 95
2, 237120, Note_on_c, 0, 59, 95
2, 237120, Note_on_c, 0, 55, 95
2, 237120, Note_on_c, 0, 50, 95
2, 237120, Note_on_c, 0, 43, 95
2, 237360, Note_off_c, 0, 59, 95
2, 237360, Note_off_c, 0, 55, 95
2, 237360, Note_off_c, 0, 50, 95
2, 237360, Note_off_c, 0, 43, 95
2, 237360, Note_on_c, 0, 59, 95
2, 237360, Note_on_c, 0, 55, 95
2, 237360, Note_on_c, 0, 50, 95
2, 237360, Note_on_c, 0, 43, 95
2, 238080, Note_off_c, 0, 59, 95
2, 238080, Note_off_c, 0, 55, 95
2, 238080, Note_off_c, 0, 50, 95
2, 238080, Note_off_c, 0, 43, 95
2, 238080, Note_on_c, 0, 59, 95
2, 238080, Note_on_c, 0, 55, 95
2, 238080, Note_on_c, 0, 50, 95
2, 238080, Note_on_c, 0, 43, 95
2, 238560, Note_off_c, 0, 59, 95
2, 238560, Note_off_c, 0, 55, 95
2, 238560, Note_off_c, 0, 50, 95
2, 238560, Note_off_c, 0, 43, 95
2, 238560, Note_on_c, 0, 59, 95
2, 238560, Note_on_c, 0, 55, 95
2, 238560, Note_on_c, 0, 50, 95
2, 238560, Note_on_c, 0, 43, 95
2, 239040, Note_off_c, 0, 59, 95
2, 239040, Note_off_c, 0, 55, 95
2, 239040, Note_off_c, 0, 50, 95
2, 239040, Note_off_c, 0, 43, 95
2, 239040, Note_on_c, 0, 59, 95
2, 239040, Note_on_c, 0, 55, 95
2, 239040, Note_on_c, 0, 50, 95
2, 239040, Note_on_c, 0, 43, 95
2, 239280, Note_off_c, 0, 59, 95
2, 239280, Note_off_c, 0, 55, 95
2, 239280, Note_off_c, 0, 50, 95
2, 239280, Note_off_c, 0, 43, 95
2, 239280, Note_on_c, 0, 59, 95
2, 239280, Note_on_c, 0, 55, 95
2, 239280, Note_on_c, 0, 50, 95
2, 239280, Note_on_c, 0, 43, 95
2, 239520, Note_off_c, 0, 59, 95
2, 239520, Note_off_c, 0, 55, 95
2, 239520, Note_off_c, 0, 50, 95
2, 239520, Note_off_c, 0, 43, 95
2, 239520, Note_on_c, 0, 59, 95
2, 239520, Note_on_c, 0, 55, 95
2, 239520, Note_on_c, 0, 50, 95
2, 239520, Note_on_c, 0, 43, 95
2, 240000, Note_off_c, 0, 59, 95
2, 240000, Note_off_c, 0, 55, 95
2, 240000, Note_off_c, 0, 50, 95
2, 240000, Note_off_c, 0, 43, 95
2, 240000, Note_on_c, 0, 59, 95
2, 240000, Note_on_c, 0, 55, 95
2, 240000, Note_on_c, 0, 50, 95
2, 240000, Note_on_c, 0, 43, 95
2, 240480, Note_off_c, 0, 59, 95
2, 240480, Note_off_c, 0, 55, 95
2, 240480, Note_off_c, 0, 50, 95
2, 240480, Note_off_c, 0, 43, 95
2, 240480, Note_on_c, 0, 59, 95
2, 240480, Note_on_c, 0, 55, 95
2, 240480, Note_on_c, 0, 50, 95
2, 240480, Note_on_c, 0, 43, 95
2, 240960, Note_off_c, 0, 59, 95
2, 240960, Note_off_c, 0, 55, 95
2, 240960, Note_off_c, 0, 50, 95
2, 240960, Note_off_c, 0, 43, 95
2, 240960, Note_on_c, 0, 59, 95
2, 240960, Note_on_c, 0, 55, 95
2, 240960, Note_on_c, 0, 50, 95
2, 240960, Note_on_c, 0, 43, 95
2, 241200, Note_off_c, 0, 59, 95
2, 241200, Note_off_c, 0, 55, 95
2, 241200, Note_off_c, 0, 50, 95
2, 241200, Note_off_c, 0, 43, 95
2, 241200, Note_on_c, 0, 59, 95
2, 241200, Note_on_c, 0, 55, 95
2, 241200, Note_on_c, 0, 50, 95
2, 241200, Note_on_c, 0, 43, 95
2, 241440, Note_off_c, 0, 59, 95
2, 241440, Note_off_c, 0, 55, 95
2, 241440, Note_off_c, 0, 50, 95
2, 241440, Note_off_c, 0, 43, 95
2, 241440, Note_on_c, 0, 59, 95
2, 241440, Note_on_c, 0, 55, 95
2, 241440, Note_on_c, 0, 50, 95
2, 241440, Note_on_c, 0, 43, 95
2, 241680, Note_off_c, 0, 59, 95
2, 241680, Note_off_c, 0, 55, 95
2, 241680, Note_off_c, 0, 50, 95
2, 241680, Note_off_c, 0, 43, 95
2, 241680, Note_on_c, 0, 59, 95
2, 241680, Note_on_c, 0, 55, 95
2, 241680, Note_on_c, 0, 50, 95
2, 241680, Note_on_c, 0, 43, 95
2, 241920, Note_off_c, 0, 59, 95
2, 241920, Note_off_c, 0, 55, 95
2, 241920, Note_off_c, 0, 50, 95
2, 241920, Note_off_c, 0, 43, 95
2, 241920, Note_on_c, 0, 59, 95
2, 241920, Note_on_c, 0, 55, 95
2, 241920, Note_on_c, 0, 50, 95
2, 241920, Note_on_c, 0, 43, 95
2, 242400, Note_off_c, 0, 59, 95
2, 242400, Note_off_c, 0, 55, 95
2, 242400, Note_off_c, 0, 50, 95
2, 242400, Note_off_c, 0, 43, 95
2, 242400, Note_on_c, 0, 59, 95
2, 242400, Note_on_c, 0, 55, 95
2, 242400, Note_on_c, 0, 50, 95
2, 242400, Note_on_c, 0, 43, 95
2, 242880, Note_off_c, 0, 59, 95
2, 242880, Note_off_c, 0, 55, 95
2, 242880, Note_off_c, 0, 50, 95
2, 242880, Note_off_c, 0, 43, 95
2, 242880, Note_on_c, 0, 59, 95
2, 242880, Note_on_c, 0, 55, 95
2, 242880, Note_on_c, 0, 50, 95
2, 242880, Note_on_c, 0, 43, 95
2, 243120, Note_off_c, 0, 59, 95
2, 243120, Note_off_c, 0, 55, 95
2, 243120, Note_off_c, 0, 50, 95
2, 243120, Note_off_c, 0, 43, 95
2, 243120, Note_on_c, 0, 59, 95
2, 243120, Note_on_c, 0, 55, 95
2, 243120, Note_on_c, 0, 50, 95
2, 243120, Note_on_c, 0, 43, 95
2, 243360, Note_off_c, 0, 59, 95
2, 243360, Note_off_c, 0, 55, 95
2, 243360, Note_off_c, 0, 50, 95
2, 243360, Note_off_c, 0, 43, 95
2, 243360, Note_on_c, 0, 59, 95
2, 243360, Note_on_c, 0, 55, 95
2, 243360, Note_on_c, 0, 50, 95
2, 243360, Note_on_c, 0, 43, 95
2, 243840, Note_off_c, 0, 59, 95
2, 243840, Note_off_c, 0, 55, 95
2, 243840, Note_off_c, 0, 50, 95
2, 243840, Note_off_c, 0, 43, 95
2, 243840, Note_on_c, 0, 59, 95
2, 243840, Note_on_c, 0, 55, 95
2, 243840, Note_on_c, 0, 50, 95
2, 243840, Note_on_c, 0, 43, 95
2, 244320, Note_off_c, 0, 59, 95
2, 244320, Note_off_c, 0, 55, 95
2, 244320, Note_off_c, 0, 50, 95
2, 244320, Note_off_c, 0, 43, 95
2, 244320, Note_on_c, 0, 59, 95
2, 244320, Note_on_c, 0, 55, 95
2, 244320, Note_on_c, 0, 50, 95
2, 244320, Note_on_c, 0, 43, 95
2, 244800, Note_off_c, 0, 59, 95
2, 244800, Note_off_c, 0, 55, 95
2, 244800, Note_off_c, 0, 50, 95
2, 244800, Note_off_c, 0, 43, 95
2, 244800, Note_on_c, 0, 59, 95
2, 244800, Note_on_c, 0, 55, 95
2, 244800, Note_on_c, 0, 50, 95
2, 244800, Note_on_c, 0, 43, 95
2, 245040, Note_off_c, 0, 59, 95
2, 245040, Note_off_c, 0, 55, 95
2, 245040, Note_off_c, 0, 50, 95
2, 245040, Note_off_c, 0, 43, 95
2, 245040, Note_on_c, 0, 59, 95
2, 245040, Note_on_c, 0, 55, 95
2, 245040, Note_on_c, 0, 50, 95
2, 245040, Note_on_c, 0, 43, 95
2, 245280, Note_off_c, 0, 59, 95
2, 245280, Note_off_c, 0, 55, 95
2, 245280, Note_off_c, 0, 50, 95
2, 245280, Note_off_c, 0, 43, 95
2, 245280, Note_on_c, 0, 59, 95
2, 245280, Note_on_c, 0, 55, 95
2, 245280, Note_on_c, 0, 50, 95
2, 245280, Note_on_c, 0, 43, 95
2, 245520, Note_off_c, 0, 59, 95
2, 245520, Note_off_c, 0, 55, 95
2, 245520, Note_off_c, 0, 50, 95
2, 245520, Note_off_c, 0, 43, 95
2, 245520, Note_on_c, 0, 59, 95
2, 245520, Note_on_c, 0, 55, 95
2, 245520, Note_on_c, 0, 50, 95
2, 245520, Note_on_c, 0, 43, 95
2, 245760, Note_off_c, 0, 59, 95
2, 245760, Note_off_c, 0, 55, 95
2, 245760, Note_off_c, 0, 50, 95
2, 245760, Note_off_c, 0, 43, 95
2, 245760, Note_on_c, 0, 59, 95
2, 245760, Note_on_c, 0, 55, 95
2, 245760, Note_on_c, 0, 50, 95
2, 245760, Note_on_c, 0, 43, 95
2, 246240, Note_off_c, 0, 59, 95
2, 246240, Note_off_c, 0, 55, 95
2, 246240, Note_off_c, 0, 50, 95
2, 246240, Note_off_c, 0, 43, 95
2, 246240, Note_on_c, 0, 59, 95
2, 246240, Note_on_c, 0, 55, 95
2, 246240, Note_on_c, 0, 50, 95
2, 246240, Note_on_c, 0, 43, 95
2, 246720, Note_off_c, 0, 59, 95
2, 246720, Note_off_c, 0, 55, 95
2, 246720, Note_off_c, 0, 50, 95
2, 246720, Note_off_c, 0, 43, 95
2, 246720, Note_on_c, 0, 59, 95
2, 246720, Note_on_c, 0, 55, 95
2, 246720, Note_on_c, 0, 50, 95
2, 246720, Note_on_c, 0, 43, 95
2, 246960, Note_off_c, 0, 59, 95
2, 246960, Note_off_c, 0, 55, 95
2, 246960, Note_off_c, 0, 50, 95
2, 246960, Note_off_c, 0, 43, 95
2, 246960, Note_on_c, 0, 59, 95
2, 246960, Note_on_c, 0, 55, 95
2, 246960, Note_on_c, 0, 50, 95
2, 246960, Note_on_c, 0, 43, 95
2, 247200, Note_off_c, 0, 59, 95
2, 247200, Note_off_c, 0, 55, 95
2, 247200, Note_off_c, 0, 50, 95
2, 247200, Note_off_c, 0, 43, 95
2, 247200, Note_on_c, 0, 59, 95
2, 247200, Note_on_c, 0, 55, 95
2, 247200, Note_on_c, 0, 50, 95
2, 247200, Note_on_c, 0, 43, 95
2, 247680, Note_off_c, 0, 59, 95
2, 247680, Note_off_c, 0, 55, 95
2, 247680, Note_off_c, 0, 50, 95
2, 247680, Note_off_c, 0, 43, 95
2, 247680, Note_on_c, 0, 59, 95
2, 247680, Note_on_c, 0, 55, 95
2, 247680, Note_on_c, 0, 50, 95
2, 247680, Note_on_c, 0, 43, 95
2, 248160, Note_off_c, 0, 59, 95
2, 248160, Note_off_c, 0, 55, 95
2, 248160, Note_off_c, 0, 50, 95
2, 248160, Note_off_c, 0, 43, 95
2, 248160, Note_on_c, 0, 59, 95
2, 248160, Note_on_c, 0, 55, 95
2, 248160, Note_on_c, 0, 50, 95
2, 248160, Note_on_c, 0, 43, 95
2, 248640, Note_off_c, 0, 59, 95
2, 248640, Note_off_c, 0, 55, 95
2, 248640, Note_off_c, 0, 50, 95
2, 248640, Note_off_c, 0, 43, 95
2, 248640, Note_on_c, 0, 59, 95
2, 248640, Note_on_c, 0, 55, 95
2, 248640, Note_on_c, 0, 50, 95
2, 248640, Note_on_c, 0, 43, 95
2, 248880, Note_off_c, 0, 59, 95
2, 248880, Note_off_c, 0, 55, 95
2, 248880, Note_off_c, 0, 50, 95
2, 248880, Note_off_c, 0, 43, 95
2, 248880, Note_on_c, 0, 59, 95
2, 248880, Note_on_c, 0, 55, 95
2, 248880, Note_on_c, 0, 50, 95
2, 248880, Note_on_c, 0, 43, 95
2, 249120, Note_off_c, 0, 59, 95
2, 249120, Note_off_c, 0, 55, 95
2, 249120, Note_off_c, 0, 50, 95
2, 249120, Note_off_c, 0, 43, 95
2, 249120, Note_on_c, 0, 59, 95
2, 249120, Note_on_c, 0, 55, 95
2, 249120, Note_on_c, 0, 50, 95
2, 249120, Note_on_c, 0, 43, 95
2, 249360, Note_off_c, 0, 59, 95
2, 249360, Note_off_c, 0, 55, 95
2, 249360, Note_off_c, 0, 50, 95
2, 249360, Note_off_c, 0, 43, 95
2, 249360, Note_on_c, 0, 59, 95
2, 249360, Note_on_c, 0, 55, 95
2, 249360, Note_on_c, 0, 50, 95
2, 249360, Note_on_c, 0, 43, 95
2, 249600, Note_off_c, 0, 59, 95
2, 249600, Note_off_c, 0, 55, 95
2, 249600, Note_off_c, 0, 50, 95
2, 249600, Note_off_c, 0, 43, 95
2, 249600, Note_on_c, 0, 59, 95
2, 249600, Note_on_c, 0, 55, 95
2, 249600, Note_on_c, 0, 50, 95
2, 249600, Note_on_c, 0, 43, 95
2, 250080, Note_off_c, 0, 59, 95
2, 250080, Note_off_c, 0, 55, 95
2, 250080, Note_off_c, 0, 50, 95
2, 250080, Note_off_c, 0, 43, 95
2, 250080, Note_on_c, 0, 59, 95
2, 250080, Note_on_c, 0, 55, 95
2, 250080, Note_on_c, 0, 50, 95
2, 250080, Note_on_c, 0, 43, 95
2, 250560, Note_off_c, 0, 59, 95
2, 250560, Note_off_c, 0, 55, 95
2, 250560, Note_off_c, 0, 50, 95
2, 250560, Note_off_c, 0, 43, 95
2, 250560, Note_on_c, 0, 59, 95
2, 250560, Note_on_c, 0, 55, 95
2, 250560, Note_on_c, 0, 50, 95
2, 250560, Note_on_c, 0, 43, 95
2, 250800, Note_off_c, 0, 59, 95
2, 250800, Note_off_c, 0, 55, 95
2, 250800, Note_off_c, 0, 50, 95
2, 250800, Note_off_c, 0, 43, 95
2, 250800, Note_on_c, 0, 59, 95
2, 250800, Note_on_c, 0, 55, 95
2, 250800, Note_on_c, 0, 50, 95
2, 250800, Note_on_c, 0, 43, 95
2, 251040, Note_off_c, 0, 59, 95
2, 251040, Note_off_c, 0, 55, 95
2, 251040, Note_off_c, 0, 50, 95
2, 251040, Note_off_c, 0, 43, 95
2, 251040, Note_on_c, 0, 59, 95
2, 251040, Note_on_c, 0, 55, 95
2, 251040, Note_on_c, 0, 50, 95
2, 251040, Note_on_c, 0, 43, 95
2, 251520, Note_off_c, 0, 59, 95
2, 251520, Note_off_c, 0, 55, 95
2, 251520, Note_off_c, 0, 50, 95
2, 251520, Note_off_c, 0, 43, 95
2, 251520, Note_on_c, 0, 59, 95
2, 251520, Note_on_c, 0, 55, 95
2, 251520, Note_on_c, 0, 50, 95
2, 251520, Note_on_c, 0, 43, 95
2, 252000, Note_off_c, 0, 59, 95
2, 252000, Note_off_c, 0, 55, 95
2, 252000, Note_off_c, 0, 50, 95
2, 252000, Note_off_c, 0, 43, 95
2, 252000, Note_on_c, 0, 59, 95
2, 252000, Note_on_c, 0, 55, 95
2, 252000, Note_on_c, 0, 50, 95
2, 252000, Note_on_c, 0, 43, 95
2, 252480, Note_off_c, 0, 59, 95
2, 252480, Note_off_c, 0, 55, 95
2, 252480, Note_off_c, 0, 50, 95
2, 252480, Note_off_c, 0, 43, 95
2, 252480, Note_on_c, 0, 59, 95
2, 252480, Note_on_c, 0, 55, 95
2, 252480, Note_on_c, 0, 50, 95
2, 252480, Note_on_c, 0, 43, 95
2, 252720, Note_off_c, 0, 59, 95
2, 252720, Note_off_c, 0, 55, 95
2, 252720, Note_off_c, 0, 50, 95
2, 252720, Note_off_c, 0, 43, 95
2, 252720, Note_on_c, 0, 59, 95
2, 252720, Note_on_c, 0, 55, 95
2, 252720, Note_on_c, 0, 50, 95
2, 252720, Note_on_c, 0, 43, 95
2, 252960, Note_off_c, 0, 59, 95
2, 252960, Note_off_c, 0, 55, 95
2, 252960, Note_off_c, 0, 50, 95
2, 252960, Note_off_c, 0, 43, 95
2, 252960, Note_on_c, 0, 59, 95
2, 252960, Note_on_c, 0, 55, 95
2, 252960, Note_on_c, 0, 50, 95
2, 252960, Note_on_c, 0, 43, 95
2, 253200, Note_off_c, 0, 59, 95
2, 253200, Note_off_c, 0, 55, 95
2, 253200, Note_off_c, 0, 50, 95
2, 253200, Note_off_c, 0, 43, 95
2, 253200, Note_on_c, 0, 59, 95
2, 253200, Note_on_c, 0, 55, 95
2, 253200, Note_on_c, 0, 50, 95
2, 253200, Note_on_c, 0, 43, 95
2, 253440, Note_off_c, 0, 59, 95
2, 253440, Note_off_c, 0, 55, 95
2, 253440, Note_off_c, 0, 50, 95
2, 253440, Note_off_c, 0, 43, 95
2, 253440, Note_on_c, 0, 59, 95
2, 253440, Note_on_c, 0, 55, 95
2, 253440, Note_on_c, 0, 50, 95
2, 253440, Note_on_c, 0, 43, 95
2, 253920, Note_off_c, 0, 59, 95
2, 253920, Note_off_c, 0, 55, 95
2, 253920, Note_off_c, 0, 50, 95
2, 253920, Note_off_c, 0, 43, 95
2, 253920, Note_on_c, 0, 59, 95
2, 253920, Note_on_c, 0, 55, 95
2, 253920, Note_on_c, 0, 50, 95
2, 253920, Note_on_c, 0, 43, 95
2, 254400, Note_off_c, 0, 59, 95
2, 254400, Note_off_c, 0, 55, 95
2, 254400, Note_off_c, 0, 50, 95
2, 254400, Note_off_c, 0, 43, 95
2, 254400, Note_on_c, 0, 59, 95
2, 254400, Note_on_c, 0, 55, 95
2, 254400, Note_on_c, 0, 50, 95
2, 254400, Note_on_c, 0, 43, 95
2, 254640, Note_off_c, 0, 59, 95
2, 254640, Note_off_c, 0, 55, 95
2, 254640, Note_off_c, 0, 50, 95
2, 254640, Note_off_c, 0, 43, 95
2, 254640, Note_on_c, 0, 59, 95
2, 254640, Note_on_c, 0, 55, 95
2, 254640, Note_on_c, 0, 50, 95
2, 254640, Note_on_c, 0, 43, 95
2, 254880, Note_off_c, 0, 59, 95
2, 254880, Note_off_c, 0, 55, 95
2, 254880, Note_off_c, 0, 50, 95
2, 254880, Note_off_c, 0, 43, 95
2, 254880, Note_on_c, 0, 59, 95
2, 254880, Note_on_c, 0, 55, 95
2, 254880, Note_on_c, 0, 50, 95
2, 254880, Note_on_c, 0, 43, 95
2, 255360, Note_off_c, 0, 59, 95
2, 255360, Note_off_c, 0, 55, 95
2, 255360, Note_off_c, 0, 50, 95
2, 255360, Note_off_c, 0, 43, 95
2, 255360, Note_on_c, 0, 59, 95
2, 255360, Note_on_c, 0, 55, 95
2, 255360, Note_on_c, 0, 50, 95
2, 255360, Note_on_c, 0, 43, 95
2, 255840, Note_off_c, 0, 59, 95
2, 255840, Note_off_c, 0, 55, 95
2, 255840, Note_off_c, 0, 50, 95
2, 255840, Note_off_c, 0, 43, 95
2, 255840, Note_on_c, 0, 59, 95
2, 255840, Note_on_c, 0, 55, 95
2, 255840, Note_on_c, 0, 50, 95
2, 255840, Note_on_c, 0, 43, 95
2, 256320, Note_off_c, 0, 59, 95
2, 256320, Note_off_c, 0, 55, 95
2, 256320, Note_off_c, 0, 50, 95
2, 256320, Note_off_c, 0, 43, 95
2, 256320, Note_on_c, 0, 59, 95
2, 256320, Note_on_c, 0, 55, 95
2, 256320, Note_on_c, 0, 50, 95
2, 256320, Note_on_c, 0, 43, 95
2, 256560, Note_off_c, 0, 59, 95
2, 256560, Note_off_c, 0, 55, 95
2, 256560, Note_off_c, 0, 50, 95
2, 256560, Note_off_c, 0, 43, 95
2, 256560, Note_on_c, 0, 59, 95
2, 256560, Note_on_c, 0, 55, 95
2, 256560, Note_on_c, 0, 50, 95
2, 256560, Note_on_c, 0, 43, 95
2, 256800, Note_off_c, 0, 59, 95
2, 256800, Note_off_c, 0, 55, 95
2, 256800, Note_off_c, 0, 50, 95
2, 256800, Note_off_c, 0, 43, 95
2, 256800, Note_on_c, 0, 59, 95
2, 256800, Note_on_c, 0, 55, 95
2, 256800, Note_on_c, 0, 50, 95
2, 256800, Note_on_c, 0, 43, 95
2, 257040, Note_off_c, 0, 59, 95
2, 257040, Note_off_c, 0, 55, 95
2, 257040, Note_off_c, 0, 50, 95
2, 257040, Note_off_c, 0, 43, 95
2, 257040, Note_on_c, 0, 59, 95
2, 257040, Note_on_c, 0, 55, 95
2, 257040, Note_on_c, 0, 50, 95
2, 257040, Note_on_c, 0, 43, 95
2, 257280, Note_off_c, 0, 59, 95
2, 257280, Note_off_c, 0, 55, 95
2, 257280, Note_off_c, 0, 50, 95
2, 257280, Note_off_c, 0, 43, 95
2, 257280, Note_on_c, 0, 59, 95
2, 257280, Note_on_c, 0, 55, 95
2, 257280, Note_on_c, 0, 50, 95
2, 257280, Note_on_c, 0, 43, 95
2, 257760, Note_off_c, 0, 59, 95
2, 257760, Note_off_c, 0, 55, 95
2, 257760, Note_off_c, 0, 50, 95
2, 257760, Note_off_c, 0, 43, 95
2, 257760, Note_on_c, 0, 59, 95
2, 257760, Note_on_c, 0, 55, 95
2, 257760, Note_on_c, 0, 50, 95
2, 257760, Note_on_c, 0, 43, 95
2, 258240, Note_off_c, 0, 59, 95
2, 258240, Note_off_c, 0, 55, 95
2, 258240, Note_off_c, 0, 50, 95
2, 258240, Note_off_c, 0, 43, 95
2, 258240, Note_on_c, 0, 59, 95
2, 258240, Note_on_c, 0, 55, 95
2, 258240, Note_on_c, 0, 50, 95
2, 258240, Note_on_c, 0, 43, 95
2, 258480, Note_off_c, 0, 59, 95
2, 258480, Note_off_c, 0, 55, 95
2, 258480, Note_off_c, 0, 50, 95
2, 258480, Note_off_c, 0, 43, 95
2, 258480, Note_on_c, 0, 59, 95
2, 258480, Note_on_c, 0, 55, 95
2, 258480, Note_on_c, 0, 50, 95
2, 258480, Note_on_c, 0, 43, 95
2, 258720, Note_off_c, 0, 59, 95
2, 258720, Note_off_c, 0, 55, 95
2, 258720, Note_off_c, 0, 50, 95
2, 258720, Note_off_c, 0, 43, 95
2, 258720, Note_on_c, 0, 59, 95
2, 258720, Note_on_c, 0, 55, 95
2, 258720, Note_on_c, 0, 50, 95
2, 258720, Note_on_c, 0, 43, 95
2, 259200, Note_off_c, 0, 59, 95
2, 259200, Note_off_c, 0, 55, 95
2, 259200, Note_off_c, 0, 50, 95
2, 259200, Note_off_c, 0, 43, 95
2, 259200, Note_on_c, 0, 59, 95
2, 259200, Note_on_c, 0, 55, 95
2, 259200, Note_on_c, 0, 50, 95
2, 259200, Note_on_c, 0, 43, 95
2, 259680, Note_off_c, 0, 59, 95
2, 259680, Note_off_c, 0, 55, 95
2, 259680, Note_off_c, 0, 50, 95
2, 259680, Note_off_c, 0, 43, 95
2, 259680, Note_on_c, 0, 59, 95
2, 259680, Note_on_c, 0, 55, 95
2, 259680, Note_on_c, 0, 50, 95
2, 259680, Note_on_c, 0, 43, 95
2, 260160, Note_off_c, 0, 59, 95
2, 260160, Note_off_c, 0, 55, 95
2, 260160, Note_off_c, 0, 50, 95
2, 260160, Note_off_c, 0, 43, 95
2, 260160, Note_on_c, 0, 59, 95
2, 260160, Note_on_c, 0, 55, 95
2, 260160, Note_on_c, 0, 50, 95
2, 260160, Note_on_c, 0, 43, 95
2, 260400, Note_off_c, 0, 59, 95
2, 260400, Note_off_c, 0, 55, 95
2, 260400, Note_off_c, 0, 50, 95
2, 260400, Note_off_c, 0, 43, 95
2, 260400, Note_on_c, 0, 59, 95
2, 260400, Note_on_c, 0, 55, 95
2, 260400, Note_on_c, 0, 50, 95
2, 260400, Note_on_c, 0, 43, 95
2, 260640, Note_off_c, 0, 59, 95
2, 260640, Note_off_c, 0, 55, 95
2, 260640, Note_off_c, 0, 50, 95
2, 260640, Note_off_c, 0, 43, 95
2, 260640, Note_on_c, 0, 59, 95
2, 260640, Note_on_c, 0, 55, 95
2, 260640, Note_on_c, 0, 50, 95
2, 260640, Note_on_c, 0, 43, 95
2, 260880, Note_off_c, 0, 59, 95
2, 260880, Note_off_c, 0, 55, 95
2, 260880, Note_off_c, 0, 50, 95
2, 260880, Note_off_c, 0, 43, 95
2, 260880, Note_on_c, 0, 59, 95
2, 260880, Note_on_c, 0, 55, 95
2, 260880, Note_on_c, 0, 50, 95
2, 260880, Note_on_c, 0, 43, 95
2, 261120, Note_off_c, 0, 59, 95
2, 261120, Note_off_c, 0, 55, 95
2, 261120, Note_off_c, 0, 50, 95
2, 261120, Note_off_c, 0, 43, 95
2, 261120, Note_on_c, 0, 59, 95
2, 261120, Note_on_c, 0, 55, 95
2, 261120, Note_on_c, 0, 50, 95
2, 261120, Note_on_c, 0, 43, 95
2, 261600, Note_off_c, 0, 59, 95
2, 261600, Note_off_c, 0, 55, 95
2, 261600, Note_off_c, 0, 50, 95
2, 261600, Note_off_c, 0, 43, 95
2, 261600, Note_on_c, 0, 59, 95
2, 261600, Note_on_c, 0, 55, 95
2, 261600, Note_on_c, 0, 50, 95
2, 261600, Note_on_c, 0, 43, 95
2, 262080, Note_off_c, 0, 59, 95
2, 262080, Note_off_c, 0, 55, 95
2, 262080, Note_off_c, 0, 50, 95
2, 262080, Note_off_c, 0, 43, 95
2, 262080, Note_on_c, 0, 59, 95
2, 262080, Note_on_c, 0, 55, 95
2, 262080, Note_on_c, 0, 50, 95
2, 262080, Note_on_c, 0, 43, 95
2, 262320, Note_off_c, 0, 59, 95
2, 262320, Note_off_c, 0, 55, 95
2, 262320, Note_off_c, 0, 50, 95
2, 262320, Note_off_c, 0, 43, 95
2, 262320, Note_on_c, 0, 59, 95
2, 262320, Note_on_c, 0, 55, 95
2, 262320, Note_on_c, 0, 50, 95
2, 262320, Note_on_c, 0, 43, 95
2, 262560, Note_off_c, 0, 59, 95
2, 262560, Note_off_c, 0, 55, 95
2, 262560, Note_off_c, 0, 50, 95
2, 262560, Note_off_c, 0, 43, 95
2, 262560, Note_on_c, 0, 59, 95
2, 262560, Note_on_c, 0, 55, 95
2, 262560, Note_on_c, 0, 50, 95
2, 262560, Note_on_c, 0, 43, 95
2, 263040, Note_off_c, 0, 59, 95
2, 263040, Note_off_c, 0, 55, 95
2, 263040, Note_off_c, 0, 50, 95
2, 263040, Note_off_c, 0, 43, 95
2, 263040, Note_on_c, 0, 59, 95
2, 263040, Note_on_c, 0, 55, 95
2, 263040, Note_on_c, 0, 50, 95
2, 263040, Note_on_c, 0, 43, 95
2, 263520, Note_off_c, 0, 59, 95
2, 263520, Note_off_c, 0, 55, 95
2, 263520, Note_off_c, 0, 50, 95
2, 263520, Note_off_c, 0, 43, 95
2, 263520, Note_on_c, 0, 59, 95
2, 263520, Note_on_c, 0, 55, 95
2, 263520, Note_on_c, 0, 50, 95
2, 263520, Note_on_c, 0, 43, 95
2, 264000, Note_off_c, 0, 59, 95
2, 264000, Note_off_c, 0, 55, 95
2, 264000, Note_off_c, 0, 50, 95
2, 264000, Note_off_c, 0, 43, 95
2, 264000, Note_on_c, 0, 59, 95
2, 264000, Note_on_c, 0, 55, 95
2, 264000, Note_on_c, 0, 50, 95
2, 264000, Note_on_c, 0, 43, 95
2, 264240, Note_off_c, 0, 59, 95
2, 264240, Note_off_c, 0, 55, 95
2, 264240, Note_off_c, 0, 50, 95
2, 264240, Note_off_c, 0, 43, 95
2, 264240, Note_on_c, 0, 59, 95
2, 264240, Note_on_c, 0, 55, 95
2, 264240, Note_on_c, 0, 50, 95
2, 264240, Note_on_c, 0, 43, 95
2, 264480, Note_off_c, 0, 59, 95
2, 264480, Note_off_c, 0, 55, 95
2, 264480, Note_off_c, 0, 50, 95
2, 264480, Note_off_c, 0, 43, 95
2, 264480, Note_on_c, 0, 59, 95
2, 264480, Note_on_c, 0, 55, 95
2, 264480, Note_on_c, 0, 50, 95
2, 264480, Note_on_c, 0, 43, 95
2, 264720, Note_off_c, 0, 59, 95
2, 264720, Note_off_c, 0, 55, 95
2, 264720, Note_off_c, 0, 50, 95
2, 264720, Note_off_c, 0, 43, 95
2, 264720, Note_on_c, 0, 59, 95
2, 264720, Note_on_c, 0, 55, 95
2, 264720, Note_on_c, 0, 50, 95
2, 264720, Note_on_c, 0, 43, 95
2, 264960, Note_off_c, 0, 59, 95
2, 264960, Note_off_c, 0, 55, 95
2, 264960, Note_off_c, 0, 50, 95
2, 264960, Note_off_c, 0, 43, 95
2, 264960, Note_on_c, 0, 59, 95
2, 264960, Note_on_c, 0, 55, 95
2, 264960, Note_on_c, 0, 50, 95
2, 264960, Note_on_c, 0, 43, 95
2, 265440, Note_off_c, 0, 59, 95
2, 265440, Note_off_c, 0, 55, 95
2, 265440, Note_off_c, 0, 50, 95
2, 265440, Note_off_c, 0, 43, 95
2, 265440, Note_on_c, 0, 59, 95
2, 265440, Note_on_c, 0, 55, 95
2, 265440, Note_on_c, 0, 50, 95
2, 265440, Note_on_c, 0, 43, 95
2, 265920, Note_off_c, 0, 59, 95
2, 265920, Note_off_c, 0, 55, 95
2, 265920, Note_off_c, 0, 50, 95
2, 265920, Note_off_c, 0, 43, 95
2, 265920, Note_on_c, 0, 59, 95
2, 265920, Note_on_c, 0, 55, 95
2, 265920, Note_on_c, 0, 50, 95
2, 265920, Note_on_c, 0, 43, 95
2, 266160, Note_off_c, 0, 59, 95
2, 266160, Note_off_c, 0, 55, 95
2, 266160, Note_off_c, 0, 50, 95
2, 266160, Note_off_c, 0, 43, 95
2, 266160, Note_on_c, 0, 59, 95
2, 266160, Note_on_c, 0, 55, 95
2, 266160, Note_on_c, 0, 50, 95
2, 266160, Note_on_c, 0, 43, 95
2, 266400, Note_off_c, 0, 59, 95
2, 266400, Note_off_c, 0, 55, 95
2, 266400, Note_off_c, 0, 50, 95
2, 266400, Note_off_c, 0, 43, 95
2, 266400, Note_on_c, 0, 59, 95
2, 266400, Note_on_c, 0, 55, 95
2, 266400, Note_on_c, 0, 50, 95
2, 266400, Note_on_c, 0, 43, 95
2, 266880, Note_off_c, 0, 59, 95
2, 266880, Note_off_c, 0, 55, 95
2, 266880, Note_off_c, 0, 50, 95
2, 266880, Note_off_c, 0, 43, 95
2, 266880, Note_on_c, 0, 59, 95
2, 266880, Note_on_c, 0, 55, 95
2, 266880, Note_on_c, 0, 50, 95
2, 266880, Note_on_c, 0, 43, 95
2, 267360, Note_off_c, 0, 59, 95
2, 267360, Note_off_c, 0, 55, 95
2, 267360, Note_off_c, 0, 50, 95
2, 267360, Note_off_c, 0, 43, 95
2, 267360, Note_on_c, 0, 59, 95
2, 267360, Note_on_c, 0, 55, 95
2, 267360, Note_on_c, 0, 50, 95
2, 267360, Note_on_c, 0, 43, 95
2, 267840, Note_off_c, 0, 59, 95
2, 267840, Note_off_c, 0, 55, 95
2, 267840, Note_off_c, 0, 50, 95
2, 267840, Note_off_c, 0, 43, 95
2, 267840, Note_on_c, 0, 59, 95
2, 267840, Note_on_c, 0, 55, 95
2, 267840, Note_on_c, 0, 50, 95
2, 267840, Note_on_c, 0, 43, 95
2, 268080, Note_off_c, 0, 59, 95
2, 268080, Note_off_c, 0, 55, 95
2, 268080, Note_off_c, 0, 50, 95
2, 268080, Note_off_c, 0, 43, 95
2, 268080, Note_on_c, 0, 59, 95
2, 268080, Note_on_c, 0, 55, 95
2, 268080, Note_on_c, 0, 50, 95
2, 268080, Note_on_c, 0, 43, 95
2, 268320, Note_off_c, 0, 59, 95
2, 268320, Note_off_c, 0, 55, 95
2, 268320, Note_off_c, 0, 50, 95
2, 268320, Note_off_c, 0, 43, 95
2, 268320, Note_on_c, 0, 59, 95
2, 268320, Note_on_c, 0, 55, 95
2, 268320, Note_on_c, 0, 50, 95
2, 268320, Note_on_c, 0, 43, 95
2, 268560, Note_off_c, 0, 59, 95
2, 268560, Note_off_c, 0, 55, 95
2, 268560, Note_off_c, 0, 50, 95
2, 268560, Note_off_c, 0, 43, 95
2, 268560, Note_on_c, 0, 59, 95
2, 268560, Note_on_c, 0, 55, 95
2, 268560, Note_on_c, 0, 50, 95
2, 268560, Note_on_c, 0, 43, 95
2, 268800, Note_off_c, 0, 59, 95
2, 268800, Note_off_c, 0, 55, 95
2, 268800, Note_off_c, 0, 50, 95
2, 268800, Note_off_c, 0, 43, 95
2, 268800, Note_on_c, 0, 59, 95
2, 268800, Note_on_c, 0, 55, 95
2, 268800, Note_on_c, 0, 50, 95
2, 268800, Note_on_c, 0, 43, 95
2, 269280, Note_off_c, 0, 59, 95
2, 269280, Note_off_c, 0, 55, 95
2, 269280, Note_off_c, 0, 50, 95
2, 269280, Note_off_c, 0, 43, 95
2, 269280, Note_on_c, 0, 59, 95
2, 269280, Note_on_c, 0, 55, 95
2, 269280, Note_on_c, 0, 50, 95
2, 269280, Note_on_c, 0, 43, 95
2, 269760, Note_off_c, 0, 59, 95
2, 269760, Note_off_c, 0, 55, 95
2, 269760, Note_off_c, 0, 50, 95
2, 269760, Note_off_c, 0, 43, 95
2, 269760, Note_on_c, 0, 59, 95
2, 269760, Note_on_c, 0, 55, 95
2, 269760, Note_on_c, 0, 50, 95
2, 269760, Note_on_c, 0, 43, 95
2, 270000, Note_off_c, 0, 59, 95
2, 270000, Note_off_c, 0, 55, 95
2, 270000, Note_off_c, 0, 50, 95
2, 270000, Note_off_c, 0, 43, 95
2, 270000, Note_on_c, 0, 59, 95
2, 270000, Note_on_c, 0, 55, 95
2, 270000, Note_on_c, 0, 50, 95
2, 270000, Note_on_c, 0, 43, 95
2, 270240, Note_off_c, 0, 59, 95
2, 270240, Note_off_c, 0, 55, 95
2, 270240, Note_off_c, 0, 50, 95
2, 270240, Note_off_c, 0, 43, 95
2, 270240, Note_on_c, 0, 59, 95
2, 270240, Note_on_c, 0, 55, 95
2, 270240, Note_on_c, 0, 50, 95
2, 270240, Note_on_c, 0, 43, 95
2, 270720, Note_off_c, 0, 59, 95
2, 270720, Note_off_c, 0, 55, 95
2, 270720, Note_off_c, 0, 50, 95
2, 270720, Note_off_c, 0, 43, 95
2, 270720, Note_on_c, 0, 59, 95
2, 270720, Note_on_c, 0, 55, 95
2, 270720, Note_on_c, 0, 50, 95
2, 270720, Note_on_c, 0, 43, 95
2, 271200, Note_off_c, 0, 59, 95
2, 271200, Note_off_c, 0, 55, 95
2, 271200, Note_off_c, 0, 50, 95
2, 271200, Note_off_c, 0, 43, 95
2, 271200, Note_on_c, 0, 59, 95
2, 271200, Note_on_c, 0, 55, 95
2, 271200, Note_on_c, 0, 50, 95
2, 271200, Note_on_c, 0, 43, 95
2, 271680, Note_off_c, 0, 59, 95
2, 271680, Note_off_c, 0, 55, 95
2, 271680, Note_off_c, 0, 50, 95
2, 271680, Note_off_c, 0, 43, 95
2, 271680, Note_on_c, 0, 59, 95
2, 271680, Note_on_c, 0, 55, 95
2, 271680, Note_on_c, 0, 50, 95
2, 271680, Note_on_c, 0, 43, 95
2, 271920, Note_off_c, 0, 59, 95
2, 271920, Note_off_c, 0, 55, 95
2, 271920, Note_off_c, 0, 50, 95
2, 271920, Note_off_c, 0, 43, 95
2, 271920, Note_on_c, 0, 59, 95
2, 271920, Note_on_c, 0, 55, 95
2, 271920, Note_on_c, 0, 50, 95
2, 271920, Note_on_c, 0, 43, 95
2, 272160, Note_off_c, 0, 59, 95
2, 272160, Note_off_c, 0, 55, 95
2, 272160, Note_off_c, 0, 50, 95
2, 272160, Note_off_c, 0, 43, 95
2, 272160, Note_on_c, 0, 59, 95
2, 272160, Note_on_c, 0, 55, 95
2, 272160, Note_on_c, 0, 50, 95
2, 272160, Note_on_c, 0, 43, 95
2, 272400, Note_off_c, 0, 59, 95
2, 272400, Note_off_c, 0, 55, 95
2, 272400, Note_off_c, 0, 50, 95
2, 272400, Note_off_c, 0, 43, 95
2, 272400, Note_on_c, 0, 59, 95
2, 272400, Note_on_c, 0, 55, 95
2, 272400, Note_on_c, 0, 50, 95
2, 272400, Note_on_c, 0, 43, 95
2, 272640, Note_off_c, 0, 59, 95
2, 272640, Note_off_c, 0, 55, 95
2, 272640, Note_off_c, 0, 50, 95
2, 272640, Note_off_c, 0, 43, 95
2, 272640, Note_on_c, 0, 59, 95
2, 272640, Note_on_c, 0, 55, 95
2, 272640, Note_on_c, 0, 50, 95
2, 272640, Note_on_c, 0, 43, 95
2, 273120, Note_off_c, 0, 59, 95
2, 273120, Note_off_c, 0, 55, 95
2, 273120, Note_off_c, 0, 50, 95
2, 273120, Note_off_c, 0, 43, 95
2, 273120, Note_on_c, 0, 59, 95
2, 273120, Note_on_c, 0, 55, 95
2, 273120, Note_on_c, 0, 50, 95
2, 273120, Note_on_c, 0, 43, 95
2, 273600, Note_off_c, 0, 59, 95
2, 273600, Note_off_c, 0, 55, 95
2, 273600, Note_off_c, 0, 50, 95
2, 273600, Note_off_c, 0, 43, 95
2, 273600, Note_on_c, 0, 59, 95
2, 273600, Note_on_c, 0, 55, 95
2, 273600, Note_on_c, 0, 50, 95
2, 273600, Note_on_c, 0, 43, 95
2, 273840, Note_off_c, 0, 59, 95
2, 273840, Note_off_c, 0, 55, 95
2, 273840, Note_off_c, 0, 50, 95
2, 273840, Note_off_c, 0, 43, 95
2, 273840, Note_on_c, 0, 59, 95
2, 273840, Note_on_c, 0, 55, 95
2, 273840, Note_on_c, 0, 50, 95
2, 273840, Note_on_c, 0, 43, 95
2, 274080, Note_off_c, 0, 59, 95
2, 274080, Note_off_c, 0, 55, 95
2, 274080, Note_off_c, 0, 50, 95
2, 274080, Note_off_c, 0, 43, 95
2, 274080, Note_on_c, 0, 59, 95
2, 274080, Note_on_c, 0, 55, 95
2, 274080, Note_on_c, 0, 50, 95
2, 274080, Note_on_c, 0, 43, 95
2, 274560, Note_off_c, 0, 59, 95
2, 274560, Note_off_c, 0, 55, 95
2, 274560, Note_off_c, 0, 50, 95
2, 274560, Note_off_c, 0, 43, 95
2, 274560, Note_on_c, 0, 59, 95
2, 274560, Note_on_c, 0, 55, 95
2, 274560, Note_on_c, 0, 50, 95
2, 274560, Note_on_c, 0, 43, 95
2, 275040, Note_off_c, 0, 59, 95
2, 275040, Note_off_c, 0, 55, 95
2, 275040, Note_off_c, 0, 50, 95
2, 275040, Note_off_c, 0, 43, 95
2, 275040, Note_on_c, 0, 59, 95
2, 275040, Note_on_c, 0, 55, 95
2, 275040, Note_on_c, 0, 50, 95
2, 275040, Note_on_c, 0, 43, 95
2, 275520, Note_off_c, 0, 59, 95
2, 275520, Note_off_c, 0, 55, 95
2, 275520, Note_off_c, 0, 50, 95
2, 275520, Note_off_c, 0, 43, 95
2, 275520, Note_on_c, 0, 59, 95
2, 275520, Note_on_c, 0, 55, 95
2, 275520, Note_on_c, 0, 50, 95
2, 275520, Note_on_c, 0, 43, 95
2, 275760, Note_off_c, 0, 59, 95
2, 275760, Note_off_c, 0, 55, 95
2, 275760, Note_off_c, 0, 50, 95
2, 275760, Note_off_c, 0, 43, 95
2, 275760, Note_on_c, 0, 59, 95
2, 275760, Note_on_c, 0, 55, 95
2, 275760, Note_on_c, 0, 50, 95
2, 275760, Note_on_c, 0, 43, 95
2, 276000, Note_off_c, 0, 59, 95
2, 276000, Note_off_c, 0, 55, 95
2, 276000, Note_off_c, 0, 50, 95
2, 276000, Note_off_c, 0, 43, 95
2, 276000, Note_on_c, 0, 59, 95
2, 276000, Note_on_c, 0, 55, 95
2, 276000, Note_on_c, 0, 50, 95
2, 276000, Note_on_c, 0, 43, 95
2, 276240, Note_off_c, 0, 59, 95
2, 276240, Note_off_c, 0, 55, 95
2, 276240, Note_off_c, 0, 50, 95
2, 276240, Note_off_c, 0, 43, 95
2, 276240, Note_on_c, 0, 59, 95
2, 276240, Note_on_c, 0, 55, 95
2, 276240, Note_on_c, 0, 50, 95
2, 276240, Note_on_c, 0, 43, 95
2, 276480, Note_off_c, 0, 59, 95
2, 276480, Note_off_c, 0, 55, 95
2, 276480, Note_off_c, 0, 50, 95
2, 276480, Note_off_c, 0, 43, 95
2, 276480, Note_on_c, 0, 59, 95
2, 276480, Note_on_c, 0, 55, 95
2, 276480, Note_on_c, 0, 50, 95
2, 276480, Note_on_c, 0, 43, 95
2, 276960, Note_off_c, 0, 59, 95
2, 276960, Note_off_c, 0, 55, 95
2, 276960, Note_off_c, 0, 50, 95
2, 276960, Note_off_c, 0, 43, 95
2, 276960, Note_on_c, 0, 59, 95
2, 276960, Note_on_c, 0, 55, 95
2, 276960, Note_on_c, 0, 50, 95
2, 276960, Note_on_c, 0, 43, 95
2, 277440, Note_off_c, 0, 59, 95
2, 277440, Note_off_c, 0, 55, 95
2, 277440, Note_off_c, 0, 50, 95
2, 277440, Note_off_c, 0, 43, 95
2, 277440, Note_on_c, 0, 59, 95
2, 277440, Note_on_c, 0, 55, 95
2, 277440, Note_on_c, 0, 50, 95
2, 277440, Note_on_c, 0, 43, 95
2, 277680, Note_off_c, 0, 59, 95
2, 277680, Note_off_c, 0, 55, 95
2, 277680, Note_off_c, 0, 50, 95
2, 277680, Note_off_c, 0, 43, 95
2, 277680, Note_on_c, 0, 59, 95
2, 277680, Note_on_c, 0, 55, 95
2, 277680, Note_on_c, 0, 50, 95
2, 277680, Note_on_c, 0, 43, 95
2, 277920, Note_off_c, 0, 59, 95
2, 277920, Note_off_c, 0, 55, 95
2, 277920, Note_off_c, 0, 50, 95
2, 277920, Note_off_c, 0, 43, 95
2, 277920, Note_on_c, 0, 59, 95
2, 277920, Note_on_c, 0, 55, 95
2, 277920, Note_on_c, 0, 50, 95
2, 277920, Note_on_c, 0, 43, 95
2, 278400, Note_off_c, 0, 59, 95
2, 278400, Note_off_c, 0, 55, 95
2, 278400, Note_off_c, 0, 50, 95
2, 278400, Note_off_c, 0, 43, 95
2, 278400, Note_on_c, 0, 59, 95
2, 278400, Note_on_c, 0, 55, 95
2, 278400, Note_on_c, 0, 50, 95
2, 278400, Note_on_c, 0, 43, 95
2, 278880, Note_off_c, 0, 59, 95
2, 278880, Note_off_c, 0, 55, 95
2, 278880, Note_off_c, 0, 50, 95
2, 278880, Note_off_c, 0, 43, 95
2, 278880, Note_on_c, 0, 59, 95
2, 278880, Note_on_c, 0, 55, 95
2, 278880, Note_on_c, 0, 50, 95
2, 278880, Note_on_c, 0, 43, 95
2, 279360, Note_off_c, 0, 59, 95
2, 279360, Note_off_c, 0, 55, 95
2, 279360, Note_off_c, 0, 50, 95
2, 279360, Note_off_c, 0, 43, 95
2, 279360, Note_on_c, 0, 59, 95
2, 279360, Note_on_c, 0, 55, 95
2, 279360, Note_on_c, 0, 50, 95
2, 279360, Note_on_c, 0, 43, 95
2, 279600, Note_off_c, 0, 59, 95
2, 279600, Note_off_c, 0, 55, 95
2, 279600, Note_off_c, 0, 50, 95
2, 279600, Note_off_c, 0, 43, 95
2, 279600, Note_on_c, 0, 59, 95
2, 279600, Note_on_c, 0, 55, 95
2, 279600, Note_on_c, 0, 50, 95
2, 279600, Note_on_c, 0, 43, 95
2, 279840, Note_off_c, 0, 59, 95
2, 279840, Note_off_c, 0, 55, 95
2, 279840, Note_off_c, 0, 50, 95
2, 279840, Note_off_c, 0, 43, 95
2, 279840, Note_on_c, 0, 59, 95
2, 279840, Note_on_c, 0, 55, 95
2, 279840, Note_on_c, 0, 50, 95
2, 279840, Note_on_c, 0, 43, 95
2, 280080, Note_off_c, 0, 59, 95
2, 280080, Note_off_c, 0, 55, 95
2, 280080, Note_off_c, 0, 50, 95
2, 280080, Note_off_c, 0, 43, 95
2, 280080, Note_on_c, 0, 59, 95
2, 280080, Note_on_c, 0, 55, 95
2, 280080, Note_on_c, 0, 50, 95
2, 280080, Note_on_c, 0, 43, 95
2, 280320, Note_off_c, 0, 59, 95
2, 280320, Note_off_c, 0, 55, 95
2, 280320, Note_off_c, 0, 50, 95
2, 280320, Note_off_c, 0, 43, 95
2, 280320, End_track
3, 0, Start_track
3, 0, Pitch_bend_c, 4, 8192
3, 0, Control_c, 4, 7, 103
3, 0, Control_c, 4, 10, 95
3, 0, Control_c, 4, 93, 31
3, 0, Control_c, 4, 91, 63
3, 0, Control_c, 4, 95, 0
3, 0, Control_c, 4, 92, 0
3, 0, Control_c, 4, 11, 127
3, 0, Program_c, 4, 29
3, 0, Control_c, 5, 7, 103
3, 0, Control_c, 5, 10, 95
3, 0, Control_c, 5, 93, 31
3, 0, Control_c, 5, 91, 63
3, 0, Control_c, 5, 95, 0
3, 0, Control_c, 5, 92, 0
3, 0, Control_c, 5, 11, 127
3, 0, Program_c, 5, 29
3, 21120, Pitch_bend_c, 5, 8192
3, 21120, Note_on_c, 5, 67, 95
3, 21141, Pitch_bend_c, 5, 8320
3, 21162, Pitch_bend_c, 5, 8448
3, 21183, Pitch_bend_c, 5, 8576
3, 21204, Pitch_bend_c, 5, 8704
3, 21225, Pitch_bend_c, 5, 8832
3, 21246, Pitch_bend_c, 5, 8960
3, 21267, Pitch_bend_c, 5, 9088
3, 21288, Pitch_bend_c, 5, 9216
3, 21309, Pitch_bend_c, 5, 9344
3, 21330, Pitch_bend_c, 5, 9472
3, 21351, Pitch_bend_c, 5, 9600
3, 21360, Pitch_bend_c, 5, 9600
3, 21600, Pitch_bend_c, 5, 9600
3, 21600, Pitch_bend_c, 5, 8192
3, 21600, Note_off_c, 5, 67, 95
3, 21600, Note_on_c, 5, 72, 95
3, 21760, Pitch_bend_c, 5, 8192
3, 21920, Pitch_bend_c, 5, 8320
3, 22080, Pitch_bend_c, 5, 8192
3, 22080, Pitch_bend_c, 5, 8320
3, 22080, Pitch_bend_c, 5, 8192
3, 22080, Note_off_c, 5, 72, 95
3, 22080, Pitch_bend_c, 5, 8192
3, 22080, Note_on_c, 5, 67, 95
3, 22092, Pitch_bend_c, 5, 8320
3, 22104, Pitch_bend_c, 5, 8448
3, 22116, Pitch_bend_c, 5, 8576
3, 22128, Pitch_bend_c, 5, 8704
3, 22140, Pitch_bend_c, 5, 8832
3, 22140, Pitch_bend_c, 5, 8832
3, 22200, Pitch_bend_c, 5, 8832
3, 22212, Pitch_bend_c, 5, 8704
3, 22224, Pitch_bend_c, 5, 8576
3, 22236, Pitch_bend_c, 5, 8448
3, 22248, Pitch_bend_c, 5, 8320
3, 22260, Pitch_bend_c, 5, 8192
3, 22260, Pitch_bend_c, 5, 8192
3, 22320, Pitch_bend_c, 5, 8192
3, 22320, Pitch_bend_c, 5, 8192
3, 22320, Note_off_c, 5, 67, 95
3, 22320, Note_on_c, 4, 67, 79
3, 23040, Note_off_c, 4, 67, 79
3, 23040, Note_on_c, 5, 63, 95
3, 23200, Pitch_bend_c, 5, 8192
3, 23360, Pitch_bend_c, 5, 8320
3, 23520, Pitch_bend_c, 5, 8192
3, 23680, Pitch_bend_c, 5, 8320
3, 23840, Pitch_bend_c, 5, 8192
3, 24000, Pitch_bend_c, 5, 8320
3, 24000, Pitch_bend_c, 5, 8192
3, 24000, Note_off_c, 5, 63, 95
3, 26880, Note_on_c, 5, 68, 95
3, 27000, Pitch_bend_c, 5, 9216
3, 27120, Pitch_bend_c, 5, 10240
3, 27120, Pitch_bend_c, 5, 8192
3, 27120, Note_off_c, 5, 68, 95
3, 27120, Note_on_c, 4, 71, 95
3, 27360, Note_off_c, 4, 71, 95
3, 27360, Note_on_c, 4, 74, 95
3, 27600, Note_off_c, 4, 74, 95
3, 27600, Note_on_c, 4, 71, 95
3, 27840, Note_off_c, 4, 71, 95
3, 27840, Note_on_c, 4, 74, 95
3, 27960, Note_off_c, 4, 74, 95
3, 27960, Note_on_c, 4, 76, 70
3, 28080, Note_off_c, 4, 76, 70
3, 28080, Note_on_c, 4, 74, 95
3, 28320, Note_off_c, 4, 74, 95
3, 28320, Note_on_c, 5, 71, 95
3, 28440, Pitch_bend_c, 5, 7168
3, 28560, Pitch_bend_c, 5, 6144
3, 28680, Pitch_bend_c, 5, 5120
3, 28800, Pitch_bend_c, 5, 3968
3, 28800, Pitch_bend_c, 5, 8192
3, 28800, Note_off_c, 5, 71, 95
3, 28800, Note_on_c, 5, 65, 95
3, 28920, Pitch_bend_c, 5, 9600
3, 29040, Pitch_bend_c, 5, 11008
3, 29040, Pitch_bend_c, 5, 8192
3, 29040, Note_off_c, 5, 65, 95
3, 29040, Note_on_c, 4, 69, 95
3, 29280, Note_off_c, 4, 69, 95
3, 29280, Note_on_c, 4, 72, 95
3, 29520, Note_off_c, 4, 72, 95
3, 29520, Note_on_c, 4, 69, 95
3, 29760, Note_off_c, 4, 69, 95
3, 29760, Note_on_c, 4, 74, 95
3, 30000, Note_off_c, 4, 74, 95
3, 30000, Note_on_c, 4, 72, 95
3, 30240, Note_off_c, 4, 72, 95
3, 30240, Note_on_c, 5, 69, 95
3, 30360, Pitch_bend_c, 5, 6784
3, 30360, Pitch_bend_c, 5, 8192
3, 30360, Note_off_c, 5, 69, 95
3, 30360, Note_on_c, 4, 67, 95
3, 30480, Note_off_c, 4, 67, 95
3, 30480, Note_on_c, 4, 65, 70
3, 30720, Note_off_c, 4, 65, 70
3, 31920, Pitch_bend_c, 5, 8192
3, 31920, Note_on_c, 5, 63, 95
3, 32100, Pitch_bend_c, 5, 8320
3, 32280, Pitch_bend_c, 5, 8448
3, 32280, Pitch_bend_c, 5, 8448
3, 32640, Pitch_bend_c, 5, 8448
3, 32640, Pitch_bend_c, 5, 8192
3, 32640, Note_off_c, 5, 63, 95
3, 32640, Note_on_c, 4, 60, 95
3, 32800, Note_off_c, 4, 60, 95
3, 32800, Note_on_c, 4, 58, 70
3, 32960, Note_off_c, 4, 58, 70
3, 32960, Note_on_c, 4, 55, 95
3, 33120, Note_off_c, 4, 55, 95
3, 33120, Note_on_c, 4, 53, 70
3, 33280, Note_off_c, 4, 53, 70
3, 33280, Note_on_c, 4, 55, 70
3, 33440, Note_off_c, 4, 55, 70
3, 33440, Note_on_c, 4, 53, 70
3, 33600, Note_off_c, 4, 53, 70
3, 34500, Note_on_c, 5, 54, 79
3, 34560, Note_off_c, 5, 54, 79
3, 34560, Note_on_c, 5, 55, 95
3, 34720, Pitch_bend_c, 5, 8192
3, 34880, Pitch_bend_c, 5, 8320
3, 35040, Pitch_bend_c, 5, 8192
3, 35040, Pitch_bend_c, 5, 8320
3, 35040, Pitch_bend_c, 5, 8192
3, 35040, Note_off_c, 5, 55, 95
3, 35040, Note_on_c, 5, 65, 95
3, 35200, Pitch_bend_c, 5, 8192
3, 35280, Pitch_bend_c, 5, 8320
3, 35280, Pitch_bend_c, 5, 8192
3, 35280, Note_off_c, 5, 65, 95
3, 35280, Note_on_c, 5, 69, 95
3, 35440, Pitch_bend_c, 5, 8192
3, 35520, Pitch_bend_c, 5, 8320
3, 35520, Pitch_bend_c, 5, 8192
3, 35520, Note_off_c, 5, 69, 95
3, 35520, Note_on_c, 5, 76, 95
3, 35680, Pitch_bend_c, 5, 8192
3, 35760, Pitch_bend_c, 5, 8320
3, 35760, Pitch_bend_c, 5, 8192
3, 35760, Note_off_c, 5, 76, 95
3, 35760, Note_on_c, 4, 74, 95
3, 36000, Note_off_c, 4, 74, 95
3, 36000, Note_on_c, 4, 69, 95
3, 36240, Note_off_c, 4, 69, 95
3, 36240, Note_on_c, 4, 59, 70
3, 36240, Note_on_c, 4, 55, 95
3, 36480, Note_off_c, 4, 59, 70
3, 36480, Note_off_c, 4, 55, 95
3, 36480, Note_on_c, 4, 54, 95
3, 36720, Note_off_c, 4, 54, 95
3, 36720, Note_on_c, 5, 54, 95
3, 36880, Pitch_bend_c, 5, 8192
3, 36960, Pitch_bend_c, 5, 8320
3, 36960, Pitch_bend_c, 5, 8192
3, 36960, Note_off_c, 5, 54, 95
3, 36960, Note_on_c, 5, 64, 95
3, 37120, Pitch_bend_c, 5, 8192
3, 37200, Pitch_bend_c, 5, 8320
3, 37200, Pitch_bend_c, 5, 8192
3, 37200, Note_off_c, 5, 64, 95
3, 37200, Note_on_c, 5, 68, 95
3, 37360, Pitch_bend_c, 5, 8192
3, 37440, Pitch_bend_c, 5, 8320
3, 37440, Pitch_bend_c, 5, 8192
3, 37440, Note_off_c, 5, 68, 95
3, 37440, Note_on_c, 5, 75, 95
3, 37600, Pitch_bend_c, 5, 8192
3, 37680, Pitch_bend_c, 5, 8320
3, 37680, Pitch_bend_c, 5, 8192
3, 37680, Note_off_c, 5, 75, 95
3, 37680, Note_on_c, 4, 73, 95
3, 38340, Note_on_c, 5, 55, 79
3, 38400, Note_off_c, 4, 73, 95
3, 38400, Note_off_c, 5, 55, 79
3, 38400, Note_on_c, 5, 57, 95
3, 38560, Pitch_bend_c, 5, 8192
3, 38720, Pitch_bend_c, 5, 8320
3, 38880, Pitch_bend_c, 5, 8192
3, 38880, Pitch_bend_c, 5, 8320
3, 38880, Pitch_bend_c, 5, 8192
3, 38880, Note_off_c, 5, 57, 95
3, 38880, Note_on_c, 4, 60, 95
3, 39120, Note_off_c, 4, 60, 95
3, 39360, Pitch_bend_c, 5, 8192
3, 39360, Note_on_c, 5, 67, 95
3, 39381, Pitch_bend_c, 5, 8320
3, 39402, Pitch_bend_c, 5, 8448
3, 39423, Pitch_bend_c, 5, 8576
3, 39444, Pitch_bend_c, 5, 8704
3, 39465, Pitch_bend_c, 5, 8832
3, 39486, Pitch_bend_c, 5, 8960
3, 39507, Pitch_bend_c, 5, 9088
3, 39528, Pitch_bend_c, 5, 9216
3, 39549, Pitch_bend_c, 5, 9344
3, 39570, Pitch_bend_c, 5, 9472
3, 39591, Pitch_bend_c, 5, 9600
3, 39600, Pitch_bend_c, 5, 9600
3, 39840, Pitch_bend_c, 5, 9600
3, 39840, Pitch_bend_c, 5, 8192
3, 39840, Note_off_c, 5, 67, 95
3, 39840, Note_on_c, 5, 77, 95
3, 40000, Pitch_bend_c, 5, 8192
3, 40160, Pitch_bend_c, 5, 8320
3, 40320, Pitch_bend_c, 5, 8192
3, 40320, Pitch_bend_c, 5, 8320
3, 40320, Pitch_bend_c, 5, 8192
3, 40320, Note_off_c, 5, 77, 95
3, 40320, Pitch_bend_c, 5, 8192
3, 40320, Note_on_c, 5, 67, 95
3, 40325, Pitch_bend_c, 5, 8320
3, 40330, Pitch_bend_c, 5, 8448
3, 40335, Pitch_bend_c, 5, 8576
3, 40340, Pitch_bend_c, 5, 8704
3, 40345, Pitch_bend_c, 5, 8832
3, 40350, Pitch_bend_c, 5, 8960
3, 40355, Pitch_bend_c, 5, 9088
3, 40360, Pitch_bend_c, 5, 9216
3, 40365, Pitch_bend_c, 5, 9344
3, 40370, Pitch_bend_c, 5, 9472
3, 40375, Pitch_bend_c, 5, 9600
3, 40380, Pitch_bend_c, 5, 9600
3, 40440, Pitch_bend_c, 5, 9600
3, 40445, Pitch_bend_c, 5, 9472
3, 40450, Pitch_bend_c, 5, 9344
3, 40455, Pitch_bend_c, 5, 9216
3, 40460, Pitch_bend_c, 5, 9088
3, 40465, Pitch_bend_c, 5, 8960
3, 40470, Pitch_bend_c, 5, 8832
3, 40475, Pitch_bend_c, 5, 8704
3, 40480, Pitch_bend_c, 5, 8576
3, 40485, Pitch_bend_c, 5, 8448
3, 40490, Pitch_bend_c, 5, 8320
3, 40495, Pitch_bend_c, 5, 8192
3, 40500, Pitch_bend_c, 5, 8192
3, 40560, Pitch_bend_c, 5, 8192
3, 40560, Pitch_bend_c, 5, 8192
3, 40560, Note_off_c, 5, 67, 95
3, 40560, Note_on_c, 4, 67, 63
3, 41280, Note_off_c, 4, 67, 63
3, 43920, Note_on_c, 5, 72, 95
3, 44080, Pitch_bend_c, 5, 8192
3, 44160, Pitch_bend_c, 5, 8320
3, 44160, Pitch_bend_c, 5, 8192
3, 44160, Note_off_c, 5, 72, 95
3, 44160, Pitch_bend_c, 5, 8192
3, 44160, Note_on_c, 5, 65, 95
3, 44170, Pitch_bend_c, 5, 8320
3, 44180, Pitch_bend_c, 5, 8448
3, 44190, Pitch_bend_c, 5, 8576
3, 44200, Pitch_bend_c, 5, 8704
3, 44210, Pitch_bend_c, 5, 8832
3, 44220, Pitch_bend_c, 5, 8960
3, 44230, Pitch_bend_c, 5, 9088
3, 44240, Pitch_bend_c, 5, 9216
3, 44250, Pitch_bend_c, 5, 9344
3, 44260, Pitch_bend_c, 5, 9472
3, 44270, Pitch_bend_c, 5, 9600
3, 44280, Pitch_bend_c, 5, 9600
3, 44400, Pitch_bend_c, 5, 9600
3, 44400, Pitch_bend_c, 5, 8192
3, 44400, Note_off_c, 5, 65, 95
3, 44400, Note_on_c, 4, 65, 95
3, 44640, Note_off_c, 4, 65, 95
3, 44640, Note_on_c, 4, 63, 95
3, 44880, Note_off_c, 4, 63, 95
3, 44880, Pitch_bend_c, 5, 8192
3, 44880, Note_on_c, 5, 70, 95
3, 44934, Pitch_bend_c, 5, 8320
3, 44988, Pitch_bend_c, 5, 8448
3, 45042, Pitch_bend_c, 5, 8576
3, 45096, Pitch_bend_c, 5, 8704
3, 45150, Pitch_bend_c, 5, 8832
3, 45204, Pitch_bend_c, 5, 8960
3, 45258, Pitch_bend_c, 5, 9088
3, 45312, Pitch_bend_c, 5, 9216
3, 45366, Pitch_bend_c, 5, 9344
3, 45420, Pitch_bend_c, 5, 9472
3, 45474, Pitch_bend_c, 5, 9600
3, 45480, Pitch_bend_c, 5, 9600
3, 46080, Pitch_bend_c, 5, 9600
3, 46080, Pitch_bend_c, 5, 8192
3, 46080, Note_off_c, 5, 70, 95
3, 47280, Note_on_c, 4, 75, 95
3, 47520, Note_off_c, 4, 75, 95
3, 47520, Note_on_c, 5, 77, 95
3, 47680, Pitch_bend_c, 5, 8192
3, 47840, Pitch_bend_c, 5, 8320
3, 48000, Pitch_bend_c, 5, 8192
3, 48000, Pitch_bend_c, 5, 8320
3, 48000, Pitch_bend_c, 5, 8192
3, 48000, Note_off_c, 5, 77, 95
3, 48000, Note_on_c, 4, 75, 95
3, 48160, Note_off_c, 4, 75, 95
3, 48160, Note_on_c, 4, 72, 95
3, 48320, Note_off_c, 4, 72, 95
3, 48320, Note_on_c, 4, 70, 95
3, 48480, Note_off_c, 4, 70, 95
3, 48480, Note_on_c, 4, 67, 95
3, 48640, Note_off_c, 4, 67, 95
3, 48640, Note_on_c, 4, 66, 95
3, 48800, Note_off_c, 4, 66, 95
3, 48800, Note_on_c, 4, 65, 95
3, 48960, Note_off_c, 4, 65, 95
3, 48960, Note_on_c, 4, 63, 95
3, 49120, Note_off_c, 4, 63, 95
3, 49120, Note_on_c, 4, 60, 95
3, 49280, Note_off_c, 4, 60, 95
3, 49280, Note_on_c, 4, 63, 95
3, 49440, Note_off_c, 4, 63, 95
3, 49440, Note_on_c, 4, 60, 95
3, 49600, Note_off_c, 4, 60, 95
3, 49600, Note_on_c, 4, 58, 70
3, 49760, Note_off_c, 4, 58, 70
3, 49760, Note_on_c, 4, 53, 95
3, 49920, Note_off_c, 4, 53, 95
3, 49920, Note_on_c, 4, 50, 95
3, 50400, Note_off_c, 4, 50, 95
3, 51360, Pitch_bend_c, 5, 8192
3, 51360, Note_on_c, 5, 67, 95
3, 51387, Pitch_bend_c, 5, 8320
3, 51414, Pitch_bend_c, 5, 8448
3, 51441, Pitch_bend_c, 5, 8576
3, 51468, Pitch_bend_c, 5, 8704
3, 51495, Pitch_bend_c, 5, 8832
3, 51522, Pitch_bend_c, 5, 8960
3, 51549, Pitch_bend_c, 5, 9088
3, 51576, Pitch_bend_c, 5, 9216
3, 51603, Pitch_bend_c, 5, 9344
3, 51630, Pitch_bend_c, 5, 9472
3, 51657, Pitch_bend_c, 5, 9600
3, 51660, Pitch_bend_c, 5, 9600
3, 51960, Pitch_bend_c, 5, 9600
3, 51987, Pitch_bend_c, 5, 9472
3, 52014, Pitch_bend_c, 5, 9344
3, 52041, Pitch_bend_c, 5, 9216
3, 52068, Pitch_bend_c, 5, 9088
3, 52095, Pitch_bend_c, 5, 8960
3, 52122, Pitch_bend_c, 5, 8832
3, 52149, Pitch_bend_c, 5, 8704
3, 52176, Pitch_bend_c, 5, 8576
3, 52203, Pitch_bend_c, 5, 8448
3, 52230, Pitch_bend_c, 5, 8320
3, 52257, Pitch_bend_c, 5, 8192
3, 52260, Pitch_bend_c, 5, 8192
3, 52560, Pitch_bend_c, 5, 8192
3, 52560, Pitch_bend_c, 5, 8192
3, 52560, Note_off_c, 5, 67, 95
3, 52560, Note_on_c, 5, 67, 63
3, 52680, Pitch_bend_c, 5, 6784
3, 52800, Pitch_bend_c, 5, 5376
3, 52800, Pitch_bend_c, 5, 8192
3, 52800, Note_off_c, 5, 67, 63
3, 52800, Note_on_c, 4, 63, 95
3, 53160, Note_off_c, 4, 63, 95
3, 53160, Note_on_c, 4, 65, 95
3, 53280, Note_off_c, 4, 65, 95
3, 53280, Note_on_c, 4, 60, 95
3, 53640, Note_off_c, 4, 60, 95
3, 53640, Note_on_c, 4, 63, 95
3, 53760, Note_off_c, 4, 63, 95
3, 53760, Note_on_c, 5, 60, 95
3, 53880, Pitch_bend_c, 5, 7040
3, 54000, Pitch_bend_c, 5, 5888
3, 54120, Pitch_bend_c, 5, 4736
3, 54240, Pitch_bend_c, 5, 3584
3, 54360, Pitch_bend_c, 5, 2432
3, 54480, Pitch_bend_c, 5, 1152
3, 54480, Pitch_bend_c, 5, 8192
3, 54480, Note_off_c, 5, 60, 95
3, 54480, Note_on_c, 4, 50, 63
3, 54720, Note_off_c, 4, 50, 63
3, 57120, Note_on_c, 4, 70, 95
3, 57120, Pitch_bend_c, 5, 8192
3, 57120, Note_on_c, 5, 65, 95
3, 57125, Pitch_bend_c, 5, 8320
3, 57130, Pitch_bend_c, 5, 8448
3, 57135, Pitch_bend_c, 5, 8576
3, 57140, Pitch_bend_c, 5, 8704
3, 57145, Pitch_bend_c, 5, 8832
3, 57150, Pitch_bend_c, 5, 8960
3, 57155, Pitch_bend_c, 5, 9088
3, 57160, Pitch_bend_c, 5, 9216
3, 57165, Pitch_bend_c, 5, 9344
3, 57170, Pitch_bend_c, 5, 9472
3, 57175, Pitch_bend_c, 5, 9600
3, 57180, Pitch_bend_c, 5, 9600
3, 57240, Pitch_bend_c, 5, 9600
3, 57245, Pitch_bend_c, 5, 9472
3, 57250, Pitch_bend_c, 5, 9344
3, 57255, Pitch_bend_c, 5, 9216
3, 57260, Pitch_bend_c, 5, 9088
3, 57265, Pitch_bend_c, 5, 8960
3, 57270, Pitch_bend_c, 5, 8832
3, 57275, Pitch_bend_c, 5, 8704
3, 57280, Pitch_bend_c, 5, 8576
3, 57285, Pitch_bend_c, 5, 8448
3, 57290, Pitch_bend_c, 5, 8320
3, 57295, Pitch_bend_c, 5, 8192
3, 57300, Pitch_bend_c, 5, 8192
3, 57360, Note_off_c, 4, 70, 95
3, 57360, Pitch_bend_c, 5, 8192
3, 57360, Pitch_bend_c, 5, 8192
3, 57360, Note_off_c, 5, 65, 95
3, 57360, Note_on_c, 4, 65, 95
3, 57480, Note_off_c, 4, 65, 95
3, 57480, Note_on_c, 4, 63, 70
3, 57600, Note_off_c, 4, 63, 70
3, 58080, Note_on_c, 5, 65, 95
3, 58200, Pitch_bend_c, 5, 8832
3, 58320, Pitch_bend_c, 5, 9600
3, 58320, Pitch_bend_c, 5, 8192
3, 58320, Note_off_c, 5, 65, 95
3, 58320, Note_on_c, 4, 67, 95
3, 58560, Note_off_c, 4, 67, 95
3, 58560, Note_on_c, 4, 76, 95
3, 59280, Note_off_c, 4, 76, 95
3, 59280, Note_on_c, 5, 67, 95
3, 59520, Note_off_c, 5, 67, 95
3, 60000, Note_on_c, 5, 67, 95
3, 60120, Pitch_bend_c, 5, 8832
3, 60240, Pitch_bend_c, 5, 9600
3, 60240, Pitch_bend_c, 5, 8192
3, 60240, Note_off_c, 5, 67, 95
3, 60240, Note_on_c, 4, 69, 95
3, 60480, Note_off_c, 4, 69, 95
3, 60480, Note_on_c, 5, 72, 95
3, 60640, Pitch_bend_c, 5, 8192
3, 60800, Pitch_bend_c, 5, 8320
3, 60960, Pitch_bend_c, 5, 8192
3, 61120, Pitch_bend_c, 5, 8320
3, 61280, Pitch_bend_c, 5, 8192
3, 61440, Pitch_bend_c, 5, 8320
3, 61440, Pitch_bend_c, 5, 8192
3, 61440, Note_off_c, 5, 72, 95
3, 61680, Note_on_c, 5, 55, 95
3, 61800, Pitch_bend_c, 5, 9600
3, 61920, Pitch_bend_c, 5, 11008
3, 61920, Pitch_bend_c, 5, 8192
3, 61920, Note_off_c, 5, 55, 95
3, 61920, Note_on_c, 4, 59, 95
3, 62400, Note_off_c, 4, 59, 95
3, 62400, Note_on_c, 4, 67, 95
3, 63120, Note_off_c, 4, 67, 95
3, 63120, Note_on_c, 5, 59, 95
3, 63240, Pitch_bend_c, 5, 7552
3, 63360, Pitch_bend_c, 5, 6784
3, 63360, Pitch_bend_c, 5, 8192
3, 63360, Note_off_c, 5, 59, 95
3, 63360, Note_on_c, 4, 57, 95
3, 63600, Note_off_c, 4, 57, 95
3, 63600, Note_on_c, 4, 65, 95
3, 64320, Note_off_c, 4, 65, 95
3, 64320, Note_on_c, 4, 55, 95
3, 64560, Note_off_c, 4, 55, 95
3, 64560, Note_on_c, 4, 63, 95
3, 65280, Note_off_c, 4, 63, 95
3, 65280, Note_on_c, 5, 60, 95
3, 66180, Note_on_c, 5, 56, 79
3, 66240, Note_off_c, 5, 60, 95
3, 66240, Note_off_c, 5, 56, 79
3, 66240, Note_on_c, 5, 57, 95
3, 66720, Note_off_c, 5, 57, 95
3, 66720, Note_on_c, 4, 60, 95
3, 66960, Note_off_c, 4, 60, 95
3, 67200, Note_on_c, 5, 57, 95
3, 67320, Pitch_bend_c, 5, 8832
3, 67440, Pitch_bend_c, 5, 9600
3, 67440, Pitch_bend_c, 5, 8192
3, 67440, Note_off_c, 5, 57, 95
3, 67440, Note_on_c, 4, 59, 95
3, 67680, Note_off_c, 4, 59, 95
3, 67680, Note_on_c, 5, 62, 95
3, 67840, Pitch_bend_c, 5, 8192
3, 68000, Pitch_bend_c, 5, 8320
3, 68160, Pitch_bend_c, 5, 8192
3, 68320, Pitch_bend_c, 5, 8320
3, 68480, Pitch_bend_c, 5, 8192
3, 68640, Pitch_bend_c, 5, 8320
3, 68800, Pitch_bend_c, 5, 8192
3, 68960, Pitch_bend_c, 5, 8320
3, 69060, Note_on_c, 5, 58, 79
3, 69120, Pitch_bend_c, 5, 8192
3, 69120, Pitch_bend_c, 5, 8320
3, 69120, Pitch_bend_c, 5, 8192
3, 69120, Note_off_c, 5, 62, 95
3, 69120, Note_off_c, 5, 58, 79
3, 69120, Note_on_c, 5, 59, 95
3, 69600, Note_off_c, 5, 59, 95
3, 69600, Note_on_c, 4, 67, 95
3, 69840, Note_off_c, 4, 67, 95
3, 69840, Pitch_bend_c, 5, 8192
3, 69840, Note_on_c, 5, 69, 95
3, 69861, Pitch_bend_c, 5, 8320
3, 69882, Pitch_bend_c, 5, 8448
3, 69903, Pitch_bend_c, 5, 8576
3, 69924, Pitch_bend_c, 5, 8704
3, 69945, Pitch_bend_c, 5, 8832
3, 69966, Pitch_bend_c, 5, 8960
3, 69987, Pitch_bend_c, 5, 9088
3, 70008, Pitch_bend_c, 5, 9216
3, 70029, Pitch_bend_c, 5, 9344
3, 70050, Pitch_bend_c, 5, 9472
3, 70071, Pitch_bend_c, 5, 9600
3, 70080, Pitch_bend_c, 5, 9600
3, 70320, Pitch_bend_c, 5, 9600
3, 70320, Pitch_bend_c, 5, 8192
3, 70320, Note_off_c, 5, 69, 95
3, 70320, Note_on_c, 4, 79, 95
3, 70560, Note_off_c, 4, 79, 95
3, 70560, Pitch_bend_c, 5, 8192
3, 70560, Note_on_c, 5, 69, 95
3, 70562, Pitch_bend_c, 5, 8320
3, 70564, Pitch_bend_c, 5, 8448
3, 70566, Pitch_bend_c, 5, 8576
3, 70568, Pitch_bend_c, 5, 8704
3, 70570, Pitch_bend_c, 5, 8832
3, 70572, Pitch_bend_c, 5, 8960
3, 70574, Pitch_bend_c, 5, 9088
3, 70576, Pitch_bend_c, 5, 9216
3, 70578, Pitch_bend_c, 5, 9344
3, 70580, Pitch_bend_c, 5, 9472
3, 70582, Pitch_bend_c, 5, 9600
3, 70590, Pitch_bend_c, 5, 9600
3, 70620, Pitch_bend_c, 5, 9600
3, 70622, Pitch_bend_c, 5, 9472
3, 70624, Pitch_bend_c, 5, 9344
3, 70626, Pitch_bend_c, 5, 9216
3, 70628, Pitch_bend_c, 5, 9088
3, 70630, Pitch_bend_c, 5, 8960
3, 70632, Pitch_bend_c, 5, 8832
3, 70634, Pitch_bend_c, 5, 8704
3, 70636, Pitch_bend_c, 5, 8576
3, 70638, Pitch_bend_c, 5, 8448
3, 70640, Pitch_bend_c, 5, 8320
3, 70642, Pitch_bend_c, 5, 8192
3, 70650, Pitch_bend_c, 5, 8192
3, 70680, Pitch_bend_c, 5, 8192
3, 70680, Pitch_bend_c, 5, 8192
3, 70680, Note_off_c, 5, 69, 95
3, 70680, Note_on_c, 4, 69, 95
3, 70800, Note_off_c, 4, 69, 95
3, 70800, Note_on_c, 4, 67, 70
3, 71040, Note_off_c, 4, 67, 70
3, 71520, Note_on_c, 4, 58, 95
3, 71564, Note_off_c, 4, 58, 95
3, 71940, Note_on_c, 5, 71, 95
3, 72000, Note_off_c, 5, 71, 95
3, 72000, Note_on_c, 5, 72, 95
3, 72120, Pitch_bend_c, 5, 8832
3, 72240, Pitch_bend_c, 5, 9600
3, 72240, Pitch_bend_c, 5, 8192
3, 72240, Note_off_c, 5, 72, 95
3, 72240, Pitch_bend_c, 5, 8192
3, 72240, Note_on_c, 5, 74, 95
3, 72420, Pitch_bend_c, 5, 8320
3, 72600, Pitch_bend_c, 5, 8448
3, 72600, Pitch_bend_c, 5, 8448
3, 72960, Pitch_bend_c, 5, 8448
3, 72960, Pitch_bend_c, 5, 8192
3, 72960, Note_off_c, 5, 74, 95
3, 72960, Note_on_c, 5, 60, 95
3, 73120, Pitch_bend_c, 5, 8192
3, 73280, Pitch_bend_c, 5, 8320
3, 73440, Pitch_bend_c, 5, 8192
3, 73600, Pitch_bend_c, 5, 8320
3, 73760, Pitch_bend_c, 5, 8192
3, 73920, Pitch_bend_c, 5, 8320
3, 73920, Pitch_bend_c, 5, 8192
3, 73920, Note_off_c, 5, 60, 95
3, 74400, Pitch_bend_c, 5, 8192
3, 74400, Note_on_c, 5, 65, 95
3, 74448, Pitch_bend_c, 5, 8320
3, 74496, Pitch_bend_c, 5, 8448
3, 74544, Pitch_bend_c, 5, 8576
3, 74592, Pitch_bend_c, 5, 8704
3, 74640, Pitch_bend_c, 5, 8832
3, 74640, Pitch_bend_c, 5, 8832
3, 74880, Pitch_bend_c, 5, 8832
3, 74880, Pitch_bend_c, 5, 8192
3, 74880, Note_off_c, 5, 65, 95
3, 74880, Note_on_c, 4, 65, 95
3, 75040, Note_off_c, 4, 65, 95
3, 75040, Note_on_c, 4, 63, 70
3, 75200, Note_off_c, 4, 63, 70
3, 75200, Note_on_c, 4, 60, 95
3, 75360, Note_off_c, 4, 60, 95
3, 75360, Note_on_c, 4, 63, 95
3, 75520, Note_off_c, 4, 63, 95
3, 75520, Note_on_c, 4, 60, 95
3, 75680, Note_off_c, 4, 60, 95
3, 75680, Note_on_c, 4, 55, 95
3, 75840, Note_off_c, 4, 55, 95
3, 75840, Note_on_c, 4, 53, 70
3, 76080, Note_off_c, 4, 53, 70
3, 76740, Note_on_c, 5, 54, 95
3, 76800, Note_off_c, 5, 54, 95
3, 76800, Note_on_c, 5, 55, 95
3, 76960, Pitch_bend_c, 5, 8192
3, 77040, Pitch_bend_c, 5, 8320
3, 77040, Pitch_bend_c, 5, 8192
3, 77040, Note_off_c, 5, 55, 95
3, 77040, Note_on_c, 5, 59, 95
3, 77200, Pitch_bend_c, 5, 8192
3, 77280, Pitch_bend_c, 5, 8320
3, 77280, Pitch_bend_c, 5, 8192
3, 77280, Note_off_c, 5, 59, 95
3, 77280, Note_on_c, 5, 65, 95
3, 77440, Pitch_bend_c, 5, 8192
3, 77600, Pitch_bend_c, 5, 8320
3, 77760, Pitch_bend_c, 5, 8192
3, 77760, Pitch_bend_c, 5, 8320
3, 77760, Pitch_bend_c, 5, 8192
3, 77760, Note_off_c, 5, 65, 95
3, 77760, Note_on_c, 5, 76, 95
3, 77920, Pitch_bend_c, 5, 8192
3, 78000, Pitch_bend_c, 5, 8320
3, 78000, Pitch_bend_c, 5, 8192
3, 78000, Note_off_c, 5, 76, 95
3, 78000, Note_on_c, 4, 74, 95
3, 78240, Note_off_c, 4, 74, 95
3, 78240, Note_on_c, 5, 65, 95
3, 78240, Note_on_c, 5, 55, 95
3, 78360, Pitch_bend_c, 5, 8064
3, 78360, Pitch_bend_c, 5, 8064
3, 78480, Pitch_bend_c, 5, 7936
3, 78480, Pitch_bend_c, 5, 7936
3, 78600, Pitch_bend_c, 5, 7680
3, 78600, Pitch_bend_c, 5, 7680
3, 78720, Pitch_bend_c, 5, 7552
3, 78720, Pitch_bend_c, 5, 8192
3, 78720, Note_off_c, 5, 65, 95
3, 78720, Pitch_bend_c, 5, 7552
3, 78720, Pitch_bend_c, 5, 8192
3, 78720, Note_off_c, 5, 55, 95
3, 78720, Note_on_c, 4, 64, 95
3, 78720, Note_on_c, 4, 54, 95
3, 78960, Note_off_c, 4, 64, 95
3, 78960, Note_off_c, 4, 54, 95
3, 78960, Note_on_c, 5, 54, 95
3, 79120, Pitch_bend_c, 5, 8192
3, 79200, Pitch_bend_c, 5, 8320
3, 79200, Pitch_bend_c, 5, 8192
3, 79200, Note_off_c, 5, 54, 95
3, 79200, Note_on_c, 5, 58, 95
3, 79360, Pitch_bend_c, 5, 8192
3, 79440, Pitch_bend_c, 5, 8320
3, 79440, Pitch_bend_c, 5, 8192
3, 79440, Note_off_c, 5, 58, 95
3, 79440, Note_on_c, 5, 64, 95
3, 79600, Pitch_bend_c, 5, 8192
3, 79680, Pitch_bend_c, 5, 8320
3, 79680, Pitch_bend_c, 5, 8192
3, 79680, Note_off_c, 5, 64, 95
3, 79680, Note_on_c, 5, 75, 95
3, 79840, Pitch_bend_c, 5, 8192
3, 79920, Pitch_bend_c, 5, 8320
3, 79920, Pitch_bend_c, 5, 8192
3, 79920, Note_off_c, 5, 75, 95
3, 79920, Note_on_c, 5, 73, 95
3, 79920, Note_on_c, 5, 68, 95
3, 80080, Pitch_bend_c, 5, 8192
3, 80080, Pitch_bend_c, 5, 8192
3, 80160, Pitch_bend_c, 5, 8320
3, 80160, Pitch_bend_c, 5, 8192
3, 80160, Note_off_c, 5, 73, 95
3, 80160, Pitch_bend_c, 5, 8320
3, 80160, Pitch_bend_c, 5, 8192
3, 80160, Note_off_c, 5, 68, 95
3, 80160, Note_on_c, 4, 68, 95
3, 80400, Note_off_c, 4, 68, 95
3, 80400, Note_on_c, 4, 68, 95
3, 80640, Note_off_c, 4, 68, 95
3, 80640, Note_on_c, 4, 53, 95
3, 81120, Note_off_c, 4, 53, 95
3, 81120, Note_on_c, 4, 65, 95
3, 81120, Note_on_c, 4, 60, 95
3, 81600, Note_off_c, 4, 65, 95
3, 81600, Note_off_c, 4, 60, 95
3, 81600, Note_on_c, 5, 55, 95
3, 81720, Pitch_bend_c, 5, 8832
3, 81840, Pitch_bend_c, 5, 9600
3, 81840, Pitch_bend_c, 5, 8192
3, 81840, Note_off_c, 5, 55, 95
3, 81840, Note_on_c, 4, 57, 95
3, 82080, Note_off_c, 4, 57, 95
3, 82080, Note_on_c, 5, 65, 95
3, 82240, Pitch_bend_c, 5, 8192
3, 82400, Pitch_bend_c, 5, 8320
3, 82560, Pitch_bend_c, 5, 8192
3, 82560, Pitch_bend_c, 5, 8320
3, 82560, Pitch_bend_c, 5, 8192
3, 82560, Note_off_c, 5, 65, 95
3, 82560, Pitch_bend_c, 5, 8192
3, 82560, Note_on_c, 5, 67, 95
3, 82581, Pitch_bend_c, 5, 8320
3, 82602, Pitch_bend_c, 5, 8448
3, 82623, Pitch_bend_c, 5, 8576
3, 82644, Pitch_bend_c, 5, 8704
3, 82665, Pitch_bend_c, 5, 8832
3, 82686, Pitch_bend_c, 5, 8960
3, 82707, Pitch_bend_c, 5, 9088
3, 82728, Pitch_bend_c, 5, 9216
3, 82749, Pitch_bend_c, 5, 9344
3, 82770, Pitch_bend_c, 5, 9472
3, 82791, Pitch_bend_c, 5, 9600
3, 82800, Pitch_bend_c, 5, 9600
3, 83040, Pitch_bend_c, 5, 9600
3, 83040, Pitch_bend_c, 5, 8192
3, 83040, Note_off_c, 5, 67, 95
3, 83040, Note_on_c, 5, 77, 95
3, 83200, Pitch_bend_c, 5, 8192
3, 83360, Pitch_bend_c, 5, 8320
3, 83520, Pitch_bend_c, 5, 8192
3, 83520, Pitch_bend_c, 5, 8320
3, 83520, Pitch_bend_c, 5, 8192
3, 83520, Note_off_c, 5, 77, 95
3, 83520, Pitch_bend_c, 5, 8192
3, 83520, Note_on_c, 5, 67, 95
3, 83525, Pitch_bend_c, 5, 8320
3, 83530, Pitch_bend_c, 5, 8448
3, 83535, Pitch_bend_c, 5, 8576
3, 83540, Pitch_bend_c, 5, 8704
3, 83545, Pitch_bend_c, 5, 8832
3, 83550, Pitch_bend_c, 5, 8960
3, 83555, Pitch_bend_c, 5, 9088
3, 83560, Pitch_bend_c, 5, 9216
3, 83565, Pitch_bend_c, 5, 9344
3, 83570, Pitch_bend_c, 5, 9472
3, 83575, Pitch_bend_c, 5, 9600
3, 83580, Pitch_bend_c, 5, 9600
3, 83640, Pitch_bend_c, 5, 9600
3, 83645, Pitch_bend_c, 5, 9472
3, 83650, Pitch_bend_c, 5, 9344
3, 83655, Pitch_bend_c, 5, 9216
3, 83660, Pitch_bend_c, 5, 9088
3, 83665, Pitch_bend_c, 5, 8960
3, 83670, Pitch_bend_c, 5, 8832
3, 83675, Pitch_bend_c, 5, 8704
3, 83680, Pitch_bend_c, 5, 8576
3, 83685, Pitch_bend_c, 5, 8448
3, 83690, Pitch_bend_c, 5, 8320
3, 83695, Pitch_bend_c, 5, 8192
3, 83700, Pitch_bend_c, 5, 8192
3, 83760, Pitch_bend_c, 5, 8192
3, 83760, Pitch_bend_c, 5, 8192
3, 83760, Note_off_c, 5, 67, 95
3, 83760, Note_on_c, 4, 67, 63
3, 84000, Note_off_c, 4, 67, 63
3, 84000, Note_on_c, 4, 65, 70
3, 84240, Note_off_c, 4, 65, 70
3, 84240, Note_on_c, 4, 62, 95
3, 84480, Note_off_c, 4, 62, 95
3, 84480, Note_on_c, 5, 55, 95
3, 84600, Pitch_bend_c, 5, 8832
3, 84720, Pitch_bend_c, 5, 9600
3, 84720, Pitch_bend_c, 5, 8192
3, 84720, Note_off_c, 5, 55, 95
3, 84720, Note_on_c, 4, 57, 95
3, 84960, Note_off_c, 4, 57, 95
3, 84960, Note_on_c, 4, 60, 95
3, 85200, Note_off_c, 4, 60, 95
3, 85200, Note_on_c, 4, 57, 63
3, 85440, Note_off_c, 4, 57, 63
3, 85440, Note_on_c, 5, 60, 95
3, 85560, Pitch_bend_c, 5, 8832
3, 85680, Pitch_bend_c, 5, 9600
3, 85680, Pitch_bend_c, 5, 8192
3, 85680, Note_off_c, 5, 60, 95
3, 85680, Note_on_c, 4, 62, 95
3, 85920, Note_off_c, 4, 62, 95
3, 85920, Note_on_c, 4, 65, 95
3, 86160, Note_off_c, 4, 65, 95
3, 86160, Note_on_c, 4, 62, 63
3, 86400, Note_off_c, 4, 62, 63
3, 86400, Pitch_bend_c, 5, 8192
3, 86400, Note_on_c, 5, 67, 95
3, 86421, Pitch_bend_c, 5, 8320
3, 86442, Pitch_bend_c, 5, 8448
3, 86463, Pitch_bend_c, 5, 8576
3, 86484, Pitch_bend_c, 5, 8704
3, 86505, Pitch_bend_c, 5, 8832
3, 86526, Pitch_bend_c, 5, 8960
3, 86547, Pitch_bend_c, 5, 9088
3, 86568, Pitch_bend_c, 5, 9216
3, 86589, Pitch_bend_c, 5, 9344
3, 86610, Pitch_bend_c, 5, 9472
3, 86631, Pitch_bend_c, 5, 9600
3, 86640, Pitch_bend_c, 5, 9600
3, 86880, Pitch_bend_c, 5, 9600
3, 86880, Pitch_bend_c, 5, 8192
3, 86880, Note_off_c, 5, 67, 95
3, 86880, Note_on_c, 5, 77, 95
3, 87040, Pitch_bend_c, 5, 8192
3, 87200, Pitch_bend_c, 5, 8320
3, 87360, Pitch_bend_c, 5, 8192
3, 87360, Pitch_bend_c, 5, 8320
3, 87360, Pitch_bend_c, 5, 8192
3, 87360, Note_off_c, 5, 77, 95
3, 87360, Pitch_bend_c, 5, 8192
3, 87360, Note_on_c, 5, 67, 95
3, 87367, Pitch_bend_c, 5, 8320
3, 87374, Pitch_bend_c, 5, 8448
3, 87381, Pitch_bend_c, 5, 8576
3, 87388, Pitch_bend_c, 5, 8704
3, 87395, Pitch_bend_c, 5, 8832
3, 87402, Pitch_bend_c, 5, 8960
3, 87409, Pitch_bend_c, 5, 9088
3, 87416, Pitch_bend_c, 5, 9216
3, 87423, Pitch_bend_c, 5, 9344
3, 87430, Pitch_bend_c, 5, 9472
3, 87437, Pitch_bend_c, 5, 9600
3, 87440, Pitch_bend_c, 5, 9600
3, 87520, Pitch_bend_c, 5, 9600
3, 87527, Pitch_bend_c, 5, 9472
3, 87534, Pitch_bend_c, 5, 9344
3, 87541, Pitch_bend_c, 5, 9216
3, 87548, Pitch_bend_c, 5, 9088
3, 87555, Pitch_bend_c, 5, 8960
3, 87562, Pitch_bend_c, 5, 8832
3, 87569, Pitch_bend_c, 5, 8704
3, 87576, Pitch_bend_c, 5, 8576
3, 87583, Pitch_bend_c, 5, 8448
3, 87590, Pitch_bend_c, 5, 8320
3, 87597, Pitch_bend_c, 5, 8192
3, 87600, Pitch_bend_c, 5, 8192
3, 87680, Pitch_bend_c, 5, 8192
3, 87680, Pitch_bend_c, 5, 8192
3, 87680, Note_off_c, 5, 67, 95
3, 87680, Pitch_bend_c, 5, 8192
3, 87680, Note_on_c, 5, 67, 95
3, 87683, Pitch_bend_c, 5, 8320
3, 87686, Pitch_bend_c, 5, 8448
3, 87689, Pitch_bend_c, 5, 8576
3, 87692, Pitch_bend_c, 5, 8704
3, 87695, Pitch_bend_c, 5, 8832
3, 87698, Pitch_bend_c, 5, 8960
3, 87701, Pitch_bend_c, 5, 9088
3, 87704, Pitch_bend_c, 5, 9216
3, 87707, Pitch_bend_c, 5, 9344
3, 87710, Pitch_bend_c, 5, 9472
3, 87713, Pitch_bend_c, 5, 9600
3, 87720, Pitch_bend_c, 5, 9600
3, 87760, Pitch_bend_c, 5, 9600
3, 87763, Pitch_bend_c, 5, 9472
3, 87766, Pitch_bend_c, 5, 9344
3, 87769, Pitch_bend_c, 5, 9216
3, 87772, Pitch_bend_c, 5, 9088
3, 87775, Pitch_bend_c, 5, 8960
3, 87778, Pitch_bend_c, 5, 8832
3, 87781, Pitch_bend_c, 5, 8704
3, 87784, Pitch_bend_c, 5, 8576
3, 87787, Pitch_bend_c, 5, 8448
3, 87790, Pitch_bend_c, 5, 8320
3, 87793, Pitch_bend_c, 5, 8192
3, 87800, Pitch_bend_c, 5, 8192
3, 87840, Pitch_bend_c, 5, 8192
3, 87840, Pitch_bend_c, 5, 8192
3, 87840, Note_off_c, 5, 67, 95
3, 87840, Note_on_c, 4, 67, 63
3, 87960, Note_off_c, 4, 67, 63
3, 87960, Note_on_c, 4, 65, 70
3, 88080, Note_off_c, 4, 65, 70
3, 88080, Note_on_c, 4, 62, 95
3, 88320, Note_off_c, 4, 62, 95
3, 88320, Note_on_c, 5, 55, 95
3, 88440, Pitch_bend_c, 5, 8832
3, 88560, Pitch_bend_c, 5, 9600
3, 88560, Pitch_bend_c, 5, 8192
3, 88560, Note_off_c, 5, 55, 95
3, 88560, Note_on_c, 4, 57, 95
3, 88800, Note_off_c, 4, 57, 95
3, 88800, Note_on_c, 4, 60, 95
3, 89040, Note_off_c, 4, 60, 95
3, 89040, Note_on_c, 4, 57, 63
3, 89040, Note_on_c, 4, 39, 95
3, 89084, Note_off_c, 4, 39, 95
3, 89280, Note_off_c, 4, 57, 63
3, 89280, Note_on_c, 5, 55, 95
3, 89400, Pitch_bend_c, 5, 8832
3, 89520, Pitch_bend_c, 5, 9600
3, 89520, Pitch_bend_c, 5, 8192
3, 89520, Note_off_c, 5, 55, 95
3, 89520, Note_on_c, 4, 57, 95
3, 89760, Note_off_c, 4, 57, 95
3, 89760, Note_on_c, 4, 60, 95
3, 90000, Note_off_c, 4, 60, 95
3, 90000, Note_on_c, 4, 57, 63
3, 90000, Note_on_c, 4, 39, 95
3, 90044, Note_off_c, 4, 39, 95
3, 90240, Note_off_c, 4, 57, 63
3, 90240, Note_on_c, 5, 55, 95
3, 90360, Pitch_bend_c, 5, 8832
3, 90480, Pitch_bend_c, 5, 9600
3, 90480, Pitch_bend_c, 5, 8192
3, 90480, Note_off_c, 5, 55, 95
3, 90480, Note_on_c, 4, 57, 95
3, 90720, Note_off_c, 4, 57, 95
3, 90720, Note_on_c, 4, 60, 95
3, 90960, Note_off_c, 4, 60, 95
3, 90960, Note_on_c, 4, 57, 63
3, 90960, Note_on_c, 4, 39, 95
3, 91004, Note_off_c, 4, 39, 95
3, 91200, Note_off_c, 4, 57, 63
3, 91200, Note_on_c, 5, 55, 95
3, 91320, Pitch_bend_c, 5, 8832
3, 91440, Pitch_bend_c, 5, 9600
3, 91440, Pitch_bend_c, 5, 8192
3, 91440, Note_off_c, 5, 55, 95
3, 91440, Note_on_c, 4, 57, 95
3, 91680, Note_off_c, 4, 57, 95
3, 91680, Note_on_c, 4, 60, 95
3, 91920, Note_off_c, 4, 60, 95
3, 91920, Note_on_c, 4, 57, 63
3, 91920, Note_on_c, 4, 39, 95
3, 91964, Note_off_c, 4, 39, 95
3, 92160, Note_off_c, 4, 57, 63
3, 93360, Pitch_bend_c, 5, 8192
3, 93360, Note_on_c, 5, 70, 95
3, 93370, Pitch_bend_c, 5, 8320
3, 93380, Pitch_bend_c, 5, 8448
3, 93390, Pitch_bend_c, 5, 8576
3, 93400, Pitch_bend_c, 5, 8704
3, 93410, Pitch_bend_c, 5, 8832
3, 93420, Pitch_bend_c, 5, 8960
3, 93430, Pitch_bend_c, 5, 9088
3, 93440, Pitch_bend_c, 5, 9216
3, 93450, Pitch_bend_c, 5, 9344
3, 93460, Pitch_bend_c, 5, 9472
3, 93470, Pitch_bend_c, 5, 9600
3, 93480, Pitch_bend_c, 5, 9600
3, 93600, Pitch_bend_c, 5, 9600
3, 93600, Pitch_bend_c, 5, 8192
3, 93600, Note_off_c, 5, 70, 95
3, 93600, Pitch_bend_c, 5, 8192
3, 93600, Note_on_c, 5, 65, 95
3, 93610, Pitch_bend_c, 5, 8320
3, 93620, Pitch_bend_c, 5, 8448
3, 93630, Pitch_bend_c, 5, 8576
3, 93640, Pitch_bend_c, 5, 8704
3, 93650, Pitch_bend_c, 5, 8832
3, 93660, Pitch_bend_c, 5, 8960
3, 93670, Pitch_bend_c, 5, 9088
3, 93680, Pitch_bend_c, 5, 9216
3, 93690, Pitch_bend_c, 5, 9344
3, 93700, Pitch_bend_c, 5, 9472
3, 93710, Pitch_bend_c, 5, 9600
3, 93720, Pitch_bend_c, 5, 9600
3, 93840, Pitch_bend_c, 5, 9600
3, 93850, Pitch_bend_c, 5, 9472
3, 93860, Pitch_bend_c, 5, 9344
3, 93870, Pitch_bend_c, 5, 9216
3, 93880, Pitch_bend_c, 5, 9088
3, 93890, Pitch_bend_c, 5, 8960
3, 93900, Pitch_bend_c, 5, 8832
3, 93910, Pitch_bend_c, 5, 8704
3, 93920, Pitch_bend_c, 5, 8576
3, 93930, Pitch_bend_c, 5, 8448
3, 93940, Pitch_bend_c, 5, 8320
3, 93950, Pitch_bend_c, 5, 8192
3, 93960, Pitch_bend_c, 5, 8192
3, 94080, Pitch_bend_c, 5, 8192
3, 94080, Pitch_bend_c, 5, 8192
3, 94080, Note_off_c, 5, 65, 95
3, 94080, Note_on_c, 4, 63, 95
3, 94320, Note_off_c, 4, 63, 95
3, 94320, Pitch_bend_c, 5, 8192
3, 94320, Note_on_c, 5, 70, 95
3, 94330, Pitch_bend_c, 5, 8320
3, 94340, Pitch_bend_c, 5, 8448
3, 94350, Pitch_bend_c, 5, 8576
3, 94360, Pitch_bend_c, 5, 8704
3, 94370, Pitch_bend_c, 5, 8832
3, 94380, Pitch_bend_c, 5, 8960
3, 94390, Pitch_bend_c, 5, 9088
3, 94400, Pitch_bend_c, 5, 9216
3, 94410, Pitch_bend_c, 5, 9344
3, 94420, Pitch_bend_c, 5, 9472
3, 94430, Pitch_bend_c, 5, 9600
3, 94440, Pitch_bend_c, 5, 9600
3, 94560, Pitch_bend_c, 5, 9600
3, 94560, Pitch_bend_c, 5, 8192
3, 94560, Note_off_c, 5, 70, 95
3, 94560, Pitch_bend_c, 5, 8192
3, 94560, Note_on_c, 5, 65, 95
3, 94570, Pitch_bend_c, 5, 8320
3, 94580, Pitch_bend_c, 5, 8448
3, 94590, Pitch_bend_c, 5, 8576
3, 94600, Pitch_bend_c, 5, 8704
3, 94610, Pitch_bend_c, 5, 8832
3, 94620, Pitch_bend_c, 5, 8960
3, 94630, Pitch_bend_c, 5, 9088
3, 94640, Pitch_bend_c, 5, 9216
3, 94650, Pitch_bend_c, 5, 9344
3, 94660, Pitch_bend_c, 5, 9472
3, 94670, Pitch_bend_c, 5, 9600
3, 94680, Pitch_bend_c, 5, 9600
3, 94800, Pitch_bend_c, 5, 9600
3, 94810, Pitch_bend_c, 5, 9472
3, 94820, Pitch_bend_c, 5, 9344
3, 94830, Pitch_bend_c, 5, 9216
3, 94840, Pitch_bend_c, 5, 9088
3, 94850, Pitch_bend_c, 5, 8960
3, 94860, Pitch_bend_c, 5, 8832
3, 94870, Pitch_bend_c, 5, 8704
3, 94880, Pitch_bend_c, 5, 8576
3, 94890, Pitch_bend_c, 5, 8448
3, 94900, Pitch_bend_c, 5, 8320
3, 94910, Pitch_bend_c, 5, 8192
3, 94920, Pitch_bend_c, 5, 8192
3, 95040, Pitch_bend_c, 5, 8192
3, 95040, Pitch_bend_c, 5, 8192
3, 95040, Note_off_c, 5, 65, 95
3, 95040, Note_on_c, 4, 63, 95
3, 95280, Note_off_c, 4, 63, 95
3, 95280, Pitch_bend_c, 5, 8192
3, 95280, Note_on_c, 5, 70, 95
3, 95290, Pitch_bend_c, 5, 8320
3, 95300, Pitch_bend_c, 5, 8448
3, 95310, Pitch_bend_c, 5, 8576
3, 95320, Pitch_bend_c, 5, 8704
3, 95330, Pitch_bend_c, 5, 8832
3, 95340, Pitch_bend_c, 5, 8960
3, 95350, Pitch_bend_c, 5, 9088
3, 95360, Pitch_bend_c, 5, 9216
3, 95370, Pitch_bend_c, 5, 9344
3, 95380, Pitch_bend_c, 5, 9472
3, 95390, Pitch_bend_c, 5, 9600
3, 95400, Pitch_bend_c, 5, 9600
3, 95520, Pitch_bend_c, 5, 9600
3, 95520, Pitch_bend_c, 5, 8192
3, 95520, Note_off_c, 5, 70, 95
3, 95520, Pitch_bend_c, 5, 8192
3, 95520, Note_on_c, 5, 65, 95
3, 95525, Pitch_bend_c, 5, 8320
3, 95530, Pitch_bend_c, 5, 8448
3, 95535, Pitch_bend_c, 5, 8576
3, 95540, Pitch_bend_c, 5, 8704
3, 95545, Pitch_bend_c, 5, 8832
3, 95550, Pitch_bend_c, 5, 8960
3, 95555, Pitch_bend_c, 5, 9088
3, 95560, Pitch_bend_c, 5, 9216
3, 95565, Pitch_bend_c, 5, 9344
3, 95570, Pitch_bend_c, 5, 9472
3, 95575, Pitch_bend_c, 5, 9600
3, 95580, Pitch_bend_c, 5, 9600
3, 95640, Pitch_bend_c, 5, 9600
3, 95645, Pitch_bend_c, 5, 9472
3, 95650, Pitch_bend_c, 5, 9344
3, 95655, Pitch_bend_c, 5, 9216
3, 95660, Pitch_bend_c, 5, 9088
3, 95665, Pitch_bend_c, 5, 8960
3, 95670, Pitch_bend_c, 5, 8832
3, 95675, Pitch_bend_c, 5, 8704
3, 95680, Pitch_bend_c, 5, 8576
3, 95685, Pitch_bend_c, 5, 8448
3, 95690, Pitch_bend_c, 5, 8320
3, 95695, Pitch_bend_c, 5, 8192
3, 95700, Pitch_bend_c, 5, 8192
3, 95760, Pitch_bend_c, 5, 8192
3, 95760, Pitch_bend_c, 5, 8192
3, 95760, Note_off_c, 5, 65, 95
3, 95760, Note_on_c, 4, 65, 95
3, 96000, Note_off_c, 4, 65, 95
3, 96000, Note_on_c, 5, 63, 95
3, 96160, Pitch_bend_c, 5, 8192
3, 96320, Pitch_bend_c, 5, 8320
3, 96480, Pitch_bend_c, 5, 8192
3, 96480, Pitch_bend_c, 5, 8320
3, 96480, Pitch_bend_c, 5, 8192
3, 96480, Note_off_c, 5, 63, 95
3, 96480, Note_on_c, 4, 60, 95
3, 96720, Note_off_c, 4, 60, 95
3, 96720, Note_on_c, 4, 58, 95
3, 96960, Note_off_c, 4, 58, 95
3, 96960, Note_on_c, 4, 55, 95
3, 97200, Note_off_c, 4, 55, 95
3, 97200, Note_on_c, 4, 54, 95
3, 97440, Note_off_c, 4, 54, 95
3, 97440, Note_on_c, 5, 51, 95
3, 97600, Pitch_bend_c, 5, 8192
3, 97760, Pitch_bend_c, 5, 8320
3, 97920, Pitch_bend_c, 5, 8192
3, 97920, Pitch_bend_c, 5, 8320
3, 97920, Pitch_bend_c, 5, 8192
3, 97920, Note_off_c, 5, 51, 95
3, 97920, Note_on_c, 5, 53, 95
3, 98080, Pitch_bend_c, 5, 9600
3, 98080, Pitch_bend_c, 5, 8192
3, 98080, Note_off_c, 5, 53, 95
3, 98080, Note_on_c, 4, 55, 95
3, 98240, Note_off_c, 4, 55, 95
3, 98240, Note_on_c, 4, 58, 95
3, 98400, Note_off_c, 4, 58, 95
3, 98400, Note_on_c, 4, 60, 70
3, 98560, Note_off_c, 4, 60, 70
3, 98560, Note_on_c, 4, 63, 95
3, 98720, Note_off_c, 4, 63, 95
3, 98720, Pitch_bend_c, 5, 8192
3, 98720, Note_on_c, 5, 65, 95
3, 98734, Pitch_bend_c, 5, 8320
3, 98748, Pitch_bend_c, 5, 8448
3, 98762, Pitch_bend_c, 5, 8576
3, 98776, Pitch_bend_c, 5, 8704
3, 98790, Pitch_bend_c, 5, 8832
3, 98804, Pitch_bend_c, 5, 8960
3, 98818, Pitch_bend_c, 5, 9088
3, 98832, Pitch_bend_c, 5, 9216
3, 98846, Pitch_bend_c, 5, 9344
3, 98860, Pitch_bend_c, 5, 9472
3, 98874, Pitch_bend_c, 5, 9600
3, 98880, Pitch_bend_c, 5, 9600
3, 99040, Pitch_bend_c, 5, 9600
3, 99040, Pitch_bend_c, 5, 8192
3, 99040, Note_off_c, 5, 65, 95
3, 99040, Note_on_c, 4, 67, 95
3, 99200, Note_off_c, 4, 67, 95
3, 99200, Note_on_c, 4, 70, 95
3, 99360, Note_off_c, 4, 70, 95
3, 99360, Note_on_c, 4, 67, 70
3, 99520, Note_off_c, 4, 67, 70
3, 99520, Note_on_c, 4, 70, 95
3, 99680, Note_off_c, 4, 70, 95
3, 99680, Note_on_c, 4, 67, 70
3, 99840, Note_off_c, 4, 67, 70
3, 99840, Pitch_bend_c, 5, 8192
3, 99840, Note_on_c, 5, 65, 95
3, 99842, Pitch_bend_c, 5, 8320
3, 99844, Pitch_bend_c, 5, 8448
3, 99846, Pitch_bend_c, 5, 8576
3, 99848, Pitch_bend_c, 5, 8704
3, 99850, Pitch_bend_c, 5, 8832
3, 99852, Pitch_bend_c, 5, 8960
3, 99854, Pitch_bend_c, 5, 9088
3, 99856, Pitch_bend_c, 5, 9216
3, 99858, Pitch_bend_c, 5, 9344
3, 99860, Pitch_bend_c, 5, 9472
3, 99862, Pitch_bend_c, 5, 9600
3, 99870, Pitch_bend_c, 5, 9600
3, 99900, Pitch_bend_c, 5, 9600
3, 99902, Pitch_bend_c, 5, 9472
3, 99904, Pitch_bend_c, 5, 9344
3, 99906, Pitch_bend_c, 5, 9216
3, 99908, Pitch_bend_c, 5, 9088
3, 99910, Pitch_bend_c, 5, 8960
3, 99912, Pitch_bend_c, 5, 8832
3, 99914, Pitch_bend_c, 5, 8704
3, 99916, Pitch_bend_c, 5, 8576
3, 99918, Pitch_bend_c, 5, 8448
3, 99920, Pitch_bend_c, 5, 8320
3, 99922, Pitch_bend_c, 5, 8192
3, 99930, Pitch_bend_c, 5, 8192
3, 99960, Pitch_bend_c, 5, 8192
3, 99960, Pitch_bend_c, 5, 8192
3, 99960, Note_off_c, 5, 65, 95
3, 99960, Note_on_c, 4, 65, 63
3, 100080, Note_off_c, 4, 65, 63
3, 100080, Note_on_c, 4, 63, 95
3, 100200, Note_off_c, 4, 63, 95
3, 100200, Note_on_c, 4, 60, 95
3, 100320, Note_off_c, 4, 60, 95
3, 100320, Note_on_c, 4, 65, 95
3, 100560, Note_off_c, 4, 65, 95
3, 100560, Note_on_c, 4, 63, 95
3, 100800, Note_off_c, 4, 63, 95
3, 100800, Note_on_c, 4, 60, 95
3, 101280, Note_off_c, 4, 60, 95
3, 101280, Note_on_c, 5, 63, 95
3, 101440, Pitch_bend_c, 5, 8192
3, 101600, Pitch_bend_c, 5, 8320
3, 101760, Pitch_bend_c, 5, 8192
3, 101920, Pitch_bend_c, 5, 8320
3, 102080, Pitch_bend_c, 5, 8192
3, 102240, Pitch_bend_c, 5, 8320
3, 102400, Pitch_bend_c, 5, 8192
3, 102560, Pitch_bend_c, 5, 8320
3, 102720, Pitch_bend_c, 5, 8192
3, 102880, Pitch_bend_c, 5, 8320
3, 103040, Pitch_bend_c, 5, 8192
3, 103200, Pitch_bend_c, 5, 8320
3, 103360, Pitch_bend_c, 5, 8192
3, 103520, Pitch_bend_c, 5, 8320
3, 103680, Pitch_bend_c, 5, 8192
3, 103680, Pitch_bend_c, 5, 8320
3, 103680, Pitch_bend_c, 5, 8192
3, 103680, Note_off_c, 5, 63, 95
3, 105360, Pitch_bend_c, 5, 8192
3, 105360, Note_on_c, 5, 70, 95
3, 105370, Pitch_bend_c, 5, 8320
3, 105380, Pitch_bend_c, 5, 8448
3, 105390, Pitch_bend_c, 5, 8576
3, 105400, Pitch_bend_c, 5, 8704
3, 105410, Pitch_bend_c, 5, 8832
3, 105420, Pitch_bend_c, 5, 8960
3, 105430, Pitch_bend_c, 5, 9088
3, 105440, Pitch_bend_c, 5, 9216
3, 105450, Pitch_bend_c, 5, 9344
3, 105460, Pitch_bend_c, 5, 9472
3, 105470, Pitch_bend_c, 5, 9600
3, 105480, Pitch_bend_c, 5, 9600
3, 105600, Pitch_bend_c, 5, 9600
3, 105600, Pitch_bend_c, 5, 8192
3, 105600, Note_off_c, 5, 70, 95
3, 105600, Pitch_bend_c, 5, 8192
3, 105600, Note_on_c, 5, 65, 95
3, 105610, Pitch_bend_c, 5, 8320
3, 105620, Pitch_bend_c, 5, 8448
3, 105630, Pitch_bend_c, 5, 8576
3, 105640, Pitch_bend_c, 5, 8704
3, 105650, Pitch_bend_c, 5, 8832
3, 105660, Pitch_bend_c, 5, 8960
3, 105670, Pitch_bend_c, 5, 9088
3, 105680, Pitch_bend_c, 5, 9216
3, 105690, Pitch_bend_c, 5, 9344
3, 105700, Pitch_bend_c, 5, 9472
3, 105710, Pitch_bend_c, 5, 9600
3, 105720, Pitch_bend_c, 5, 9600
3, 105840, Pitch_bend_c, 5, 9600
3, 105840, Pitch_bend_c, 5, 8192
3, 105840, Note_off_c, 5, 65, 95
3, 105840, Note_on_c, 4, 65, 95
3, 106080, Note_off_c, 4, 65, 95
3, 106080, Note_on_c, 4, 63, 95
3, 106320, Note_off_c, 4, 63, 95
3, 106320, Note_on_c, 4, 60, 95
3, 106560, Note_off_c, 4, 60, 95
3, 106560, Note_on_c, 4, 58, 95
3, 106800, Note_off_c, 4, 58, 95
3, 106800, Note_on_c, 4, 55, 95
3, 107040, Note_off_c, 4, 55, 95
3, 107040, Note_on_c, 4, 63, 95
3, 107040, Note_on_c, 4, 58, 95
3, 107520, Note_off_c, 4, 63, 95
3, 107520, Note_off_c, 4, 58, 95
3, 107520, Note_on_c, 5, 55, 95
3, 107640, Pitch_bend_c, 5, 9216
3, 107760, Pitch_bend_c, 5, 10240
3, 107760, Pitch_bend_c, 5, 8192
3, 107760, Note_off_c, 5, 55, 95
3, 107760, Note_on_c, 4, 58, 95
3, 108000, Note_off_c, 4, 58, 95
3, 108000, Note_on_c, 5, 67, 95
3, 108000, Note_on_c, 5, 62, 95
3, 108160, Pitch_bend_c, 5, 8192
3, 108160, Pitch_bend_c, 5, 8192
3, 108320, Pitch_bend_c, 5, 8320
3, 108320, Pitch_bend_c, 5, 8320
3, 108480, Pitch_bend_c, 5, 8192
3, 108480, Pitch_bend_c, 5, 8320
3, 108480, Pitch_bend_c, 5, 8192
3, 108480, Note_off_c, 5, 67, 95
3, 108480, Pitch_bend_c, 5, 8192
3, 108480, Pitch_bend_c, 5, 8320
3, 108480, Pitch_bend_c, 5, 8192
3, 108480, Note_off_c, 5, 62, 95
3, 108480, Note_on_c, 4, 62, 95
3, 108720, Note_off_c, 4, 62, 95
3, 108720, Note_on_c, 4, 64, 70
3, 108960, Note_off_c, 4, 64, 70
3, 108960, Note_on_c, 5, 67, 95
3, 109120, Pitch_bend_c, 5, 8192
3, 109280, Pitch_bend_c, 5, 8320
3, 109440, Pitch_bend_c, 5, 8192
3, 109440, Pitch_bend_c, 5, 8320
3, 109440, Pitch_bend_c, 5, 8192
3, 109440, Note_off_c, 5, 67, 95
3, 109440, Note_on_c, 4, 57, 95
3, 109680, Note_off_c, 4, 57, 95
3, 109680, Note_on_c, 4, 59, 70
3, 109920, Note_off_c, 4, 59, 70
3, 109920, Note_on_c, 5, 67, 95
3, 109920, Note_on_c, 5, 62, 95
3, 110080, Pitch_bend_c, 5, 8192
3, 110080, Pitch_bend_c, 5, 8192
3, 110240, Pitch_bend_c, 5, 8320
3, 110240, Pitch_bend_c, 5, 8320
3, 110400, Pitch_bend_c, 5, 8192
3, 110400, Pitch_bend_c, 5, 8320
3, 110400, Pitch_bend_c, 5, 8192
3, 110400, Note_off_c, 5, 67, 95
3, 110400, Pitch_bend_c, 5, 8192
3, 110400, Pitch_bend_c, 5, 8320
3, 110400, Pitch_bend_c, 5, 8192
3, 110400, Note_off_c, 5, 62, 95
3, 110400, Note_on_c, 4, 57, 95
3, 110640, Note_off_c, 4, 57, 95
3, 110640, Note_on_c, 4, 59, 70
3, 110880, Note_off_c, 4, 59, 70
3, 111360, Note_on_c, 5, 63, 95
3, 111520, Pitch_bend_c, 5, 9600
3, 111520, Pitch_bend_c, 5, 8192
3, 111520, Note_off_c, 5, 63, 95
3, 111520, Note_on_c, 4, 65, 95
3, 111680, Note_off_c, 4, 65, 95
3, 111680, Note_on_c, 5, 74, 95
3, 111680, Note_on_c, 5, 69, 95
3, 111840, Note_off_c, 5, 74, 95
3, 111840, Pitch_bend_c, 5, 6784
3, 111840, Pitch_bend_c, 5, 8192
3, 111840, Note_off_c, 5, 69, 95
3, 111840, Note_on_c, 5, 67, 95
3, 111840, Note_on_c, 5, 63, 95
3, 112000, Pitch_bend_c, 5, 8192
3, 112000, Pitch_bend_c, 5, 8192
3, 112160, Pitch_bend_c, 5, 8320
3, 112160, Pitch_bend_c, 5, 8320
3, 112320, Pitch_bend_c, 5, 8192
3, 112320, Pitch_bend_c, 5, 8320
3, 112320, Pitch_bend_c, 5, 8192
3, 112320, Note_off_c, 5, 67, 95
3, 112320, Pitch_bend_c, 5, 8192
3, 112320, Pitch_bend_c, 5, 8320
3, 112320, Pitch_bend_c, 5, 8192
3, 112320, Note_off_c, 5, 63, 95
3, 112320, Note_on_c, 4, 72, 95
3, 112320, Note_on_c, 4, 67, 95
3, 112560, Note_off_c, 4, 72, 95
3, 112560, Note_off_c, 4, 67, 95
3, 112560, Note_on_c, 5, 63, 95
3, 112680, Pitch_bend_c, 5, 8832
3, 112800, Pitch_bend_c, 5, 9600
3, 112800, Pitch_bend_c, 5, 8192
3, 112800, Note_off_c, 5, 63, 95
3, 112800, Note_on_c, 4, 65, 95
3, 113040, Note_off_c, 4, 65, 95
3, 113040, Note_on_c, 5, 74, 95
3, 113040, Note_on_c, 5, 69, 95
3, 113160, Pitch_bend_c, 5, 7552
3, 113280, Note_off_c, 5, 74, 95
3, 113280, Pitch_bend_c, 5, 6784
3, 113280, Pitch_bend_c, 5, 8192
3, 113280, Note_off_c, 5, 69, 95
3, 113280, Note_on_c, 5, 67, 95
3, 113280, Note_on_c, 5, 63, 95
3, 113440, Pitch_bend_c, 5, 8192
3, 113440, Pitch_bend_c, 5, 8192
3, 113600, Pitch_bend_c, 5, 8320
3, 113600, Pitch_bend_c, 5, 8320
3, 113760, Pitch_bend_c, 5, 8192
3, 113760, Pitch_bend_c, 5, 8320
3, 113760, Pitch_bend_c, 5, 8192
3, 113760, Note_off_c, 5, 67, 95
3, 113760, Pitch_bend_c, 5, 8192
3, 113760, Pitch_bend_c, 5, 8320
3, 113760, Pitch_bend_c, 5, 8192
3, 113760, Note_off_c, 5, 63, 95
3, 113760, Note_on_c, 4, 72, 95
3, 113760, Note_on_c, 4, 67, 95
3, 114000, Note_off_c, 4, 72, 95
3, 114000, Note_off_c, 4, 67, 95
3, 114000, Note_on_c, 5, 63, 95
3, 114120, Pitch_bend_c, 5, 8832
3, 114240, Pitch_bend_c, 5, 9600
3, 114240, Pitch_bend_c, 5, 8192
3, 114240, Note_off_c, 5, 63, 95
3, 114240, Note_on_c, 4, 65, 95
3, 114480, Note_off_c, 4, 65, 95
3, 114480, Note_on_c, 4, 74, 95
3, 114480, Note_on_c, 4, 69, 95
3, 114720, Note_off_c, 4, 74, 95
3, 114720, Note_off_c, 4, 69, 95
3, 114720, Note_on_c, 5, 65, 95
3, 114880, Pitch_bend_c, 5, 9600
3, 114880, Pitch_bend_c, 5, 8192
3, 114880, Note_off_c, 5, 65, 95
3, 114880, Note_on_c, 4, 67, 95
3, 115040, Note_off_c, 4, 67, 95
3, 115040, Note_on_c, 4, 76, 95
3, 115040, Note_on_c, 4, 71, 95
3, 115200, Note_off_c, 4, 76, 95
3, 115200, Note_off_c, 4, 71, 95
3, 115200, Note_on_c, 4, 65, 95
3, 115680, Note_off_c, 4, 65, 95
3, 115680, Note_on_c, 4, 69, 95
3, 116160, Note_off_c, 4, 69, 95
3, 117120, Note_on_c, 4, 67, 79
3, 117600, Note_off_c, 4, 67, 79
3, 117600, Note_on_c, 4, 57, 79
3, 118080, Note_off_c, 4, 57, 79
3, 118080, Note_on_c, 4, 59, 79
3, 118560, Note_off_c, 4, 59, 79
3, 118560, Note_on_c, 4, 69, 79
3, 118980, Note_on_c, 5, 68, 95
3, 119040, Note_off_c, 4, 69, 79
3, 119040, Note_off_c, 5, 68, 95
3, 119040, Note_on_c, 5, 69, 95
3, 119520, Note_off_c, 5, 69, 95
3, 119520, Note_on_c, 4, 72, 95
3, 120000, Note_off_c, 4, 72, 95
3, 120000, Note_on_c, 4, 69, 95
3, 120480, Note_off_c, 4, 69, 95
3, 120480, Note_on_c, 5, 72, 95
3, 120640, Pitch_bend_c, 5, 8192
3, 120800, Pitch_bend_c, 5, 8320
3, 120960, Pitch_bend_c, 5, 8192
3, 120960, Pitch_bend_c, 5, 8320
3, 120960, Pitch_bend_c, 5, 8192
3, 120960, Note_off_c, 5, 72, 95
3, 120960, Pitch_bend_c, 5, 8192
3, 120960, Note_on_c, 5, 69, 95
3, 120984, Pitch_bend_c, 5, 8320
3, 121008, Pitch_bend_c, 5, 8448
3, 121032, Pitch_bend_c, 5, 8576
3, 121056, Pitch_bend_c, 5, 8704
3, 121080, Pitch_bend_c, 5, 8832
3, 121080, Pitch_bend_c, 5, 8832
3, 121200, Pitch_bend_c, 5, 8832
3, 121200, Pitch_bend_c, 5, 8192
3, 121200, Note_off_c, 5, 69, 95
3, 121200, Note_on_c, 5, 72, 95
3, 121360, Pitch_bend_c, 5, 8192
3, 121520, Pitch_bend_c, 5, 8320
3, 121680, Pitch_bend_c, 5, 8192
3, 121680, Pitch_bend_c, 5, 8320
3, 121680, Pitch_bend_c, 5, 8192
3, 121680, Note_off_c, 5, 72, 95
3, 121680, Note_on_c, 4, 69, 95
3, 121680, Pitch_bend_c, 5, 8192
3, 121680, Note_on_c, 5, 69, 95
3, 121704, Pitch_bend_c, 5, 8320
3, 121728, Pitch_bend_c, 5, 8448
3, 121752, Pitch_bend_c, 5, 8576
3, 121776, Pitch_bend_c, 5, 8704
3, 121800, Pitch_bend_c, 5, 8832
3, 121800, Pitch_bend_c, 5, 8832
3, 121920, Note_off_c, 4, 69, 95
3, 121920, Pitch_bend_c, 5, 8832
3, 121920, Pitch_bend_c, 5, 8192
3, 121920, Note_off_c, 5, 69, 95
3, 121920, Note_on_c, 5, 72, 95
3, 122080, Pitch_bend_c, 5, 8192
3, 122240, Pitch_bend_c, 5, 8320
3, 122400, Pitch_bend_c, 5, 8192
3, 122400, Pitch_bend_c, 5, 8320
3, 122400, Pitch_bend_c, 5, 8192
3, 122400, Note_off_c, 5, 72, 95
3, 122400, Note_on_c, 4, 69, 95
3, 122640, Note_off_c, 4, 69, 95
3, 122640, Note_on_c, 4, 72, 95
3, 122880, Note_off_c, 4, 72, 95
3, 122880, Note_on_c, 5, 69, 95
3, 123000, Pitch_bend_c, 5, 8832
3, 123120, Pitch_bend_c, 5, 9600
3, 123120, Pitch_bend_c, 5, 8192
3, 123120, Note_off_c, 5, 69, 95
3, 123120, Note_on_c, 4, 71, 95
3, 123360, Note_off_c, 4, 71, 95
3, 123360, Note_on_c, 5, 74, 95
3, 123520, Pitch_bend_c, 5, 8192
3, 123680, Pitch_bend_c, 5, 8320
3, 123840, Pitch_bend_c, 5, 8192
3, 123840, Pitch_bend_c, 5, 8320
3, 123840, Pitch_bend_c, 5, 8192
3, 123840, Note_off_c, 5, 74, 95
3, 123840, Note_on_c, 4, 71, 95
3, 125520, Note_off_c, 4, 71, 95
3, 125520, Note_on_c, 4, 74, 95
3, 125760, Note_off_c, 4, 74, 95
3, 125760, Note_on_c, 4, 71, 95
3, 126000, Note_off_c, 4, 71, 95
3, 126000, Note_on_c, 4, 74, 95
3, 126240, Note_off_c, 4, 74, 95
3, 126240, Note_on_c, 5, 71, 95
3, 126400, Pitch_bend_c, 5, 8192
3, 126560, Pitch_bend_c, 5, 8320
3, 126720, Pitch_bend_c, 5, 8192
3, 126720, Pitch_bend_c, 5, 8320
3, 126720, Pitch_bend_c, 5, 8192
3, 126720, Note_off_c, 5, 71, 95
3, 126720, Note_on_c, 4, 58, 95
3, 126764, Note_off_c, 4, 58, 95
3, 127140, Note_on_c, 5, 68, 95
3, 127200, Note_off_c, 5, 68, 95
3, 127200, Note_on_c, 5, 69, 95
3, 127680, Note_off_c, 5, 69, 95
3, 127680, Note_on_c, 4, 72, 95
3, 127920, Note_off_c, 4, 72, 95
3, 127920, Note_on_c, 4, 69, 95
3, 128160, Note_off_c, 4, 69, 95
3, 128160, Note_on_c, 4, 70, 95
3, 128400, Note_off_c, 4, 70, 95
3, 128400, Note_on_c, 4, 69, 70
3, 128640, Note_off_c, 4, 69, 70
3, 128640, Note_on_c, 4, 67, 95
3, 128880, Note_off_c, 4, 67, 95
3, 128880, Note_on_c, 4, 65, 95
3, 129120, Note_off_c, 4, 65, 95
3, 129120, Note_on_c, 4, 67, 95
3, 129360, Note_off_c, 4, 67, 95
3, 129360, Note_on_c, 4, 63, 95
3, 129600, Note_off_c, 4, 63, 95
3, 129600, Note_on_c, 5, 60, 95
3, 129760, Pitch_bend_c, 5, 8192
3, 129920, Pitch_bend_c, 5, 8320
3, 130080, Pitch_bend_c, 5, 8192
3, 130080, Pitch_bend_c, 5, 8320
3, 130080, Pitch_bend_c, 5, 8192
3, 130080, Note_off_c, 5, 60, 95
3, 130500, Note_on_c, 5, 54, 95
3, 130560, Note_off_c, 5, 54, 95
3, 130560, Note_on_c, 5, 55, 95
3, 131040, Note_off_c, 5, 55, 95
3, 131040, Note_on_c, 5, 69, 95
3, 131200, Pitch_bend_c, 5, 8192
3, 131360, Pitch_bend_c, 5, 8320
3, 131520, Pitch_bend_c, 5, 8192
3, 131520, Pitch_bend_c, 5, 8320
3, 131520, Pitch_bend_c, 5, 8192
3, 131520, Note_off_c, 5, 69, 95
3, 131520, Note_on_c, 5, 65, 95
3, 131680, Pitch_bend_c, 5, 8192
3, 131840, Pitch_bend_c, 5, 8320
3, 132000, Pitch_bend_c, 5, 8192
3, 132000, Pitch_bend_c, 5, 8320
3, 132000, Pitch_bend_c, 5, 8192
3, 132000, Note_off_c, 5, 65, 95
3, 132000, Note_on_c, 5, 59, 95
3, 132160, Pitch_bend_c, 5, 8192
3, 132320, Pitch_bend_c, 5, 8320
3, 132480, Pitch_bend_c, 5, 8192
3, 132480, Pitch_bend_c, 5, 8320
3, 132480, Pitch_bend_c, 5, 8192
3, 132480, Note_off_c, 5, 59, 95
3, 132480, Note_on_c, 4, 55, 95
3, 132720, Note_off_c, 4, 55, 95
3, 132720, Note_on_c, 4, 62, 95
3, 132960, Note_off_c, 4, 62, 95
3, 132960, Note_on_c, 4, 65, 95
3, 133200, Note_off_c, 4, 65, 95
3, 133200, Note_on_c, 4, 67, 95
3, 133440, Note_off_c, 4, 67, 95
3, 133440, Note_on_c, 5, 67, 95
3, 133600, Pitch_bend_c, 5, 8192
3, 133760, Pitch_bend_c, 5, 8320
3, 133920, Pitch_bend_c, 5, 8192
3, 133920, Pitch_bend_c, 5, 8320
3, 133920, Pitch_bend_c, 5, 8192
3, 133920, Note_off_c, 5, 67, 95
3, 133920, Note_on_c, 4, 67, 95
3, 134400, Note_off_c, 4, 67, 95
3, 135360, Pitch_bend_c, 5, 8192
3, 135360, Note_on_c, 5, 70, 95
3, 135392, Pitch_bend_c, 5, 8320
3, 135424, Pitch_bend_c, 5, 8448
3, 135456, Pitch_bend_c, 5, 8576
3, 135488, Pitch_bend_c, 5, 8704
3, 135520, Pitch_bend_c, 5, 8832
3, 135552, Pitch_bend_c, 5, 8960
3, 135584, Pitch_bend_c, 5, 9088
3, 135616, Pitch_bend_c, 5, 9216
3, 135648, Pitch_bend_c, 5, 9344
3, 135680, Pitch_bend_c, 5, 9472
3, 135712, Pitch_bend_c, 5, 9600
3, 135720, Pitch_bend_c, 5, 9600
3, 136080, Pitch_bend_c, 5, 9600
3, 136080, Pitch_bend_c, 5, 8192
3, 136080, Note_off_c, 5, 70, 95
3, 136080, Note_on_c, 4, 70, 95
3, 136320, Note_off_c, 4, 70, 95
3, 136320, Note_on_c, 4, 67, 95
3, 136560, Note_off_c, 4, 67, 95
3, 136560, Pitch_bend_c, 5, 8192
3, 136560, Note_on_c, 5, 65, 95
3, 136570, Pitch_bend_c, 5, 8320
3, 136580, Pitch_bend_c, 5, 8448
3, 136590, Pitch_bend_c, 5, 8576
3, 136600, Pitch_bend_c, 5, 8704
3, 136610, Pitch_bend_c, 5, 8832
3, 136620, Pitch_bend_c, 5, 8960
3, 136630, Pitch_bend_c, 5, 9088
3, 136640, Pitch_bend_c, 5, 9216
3, 136650, Pitch_bend_c, 5, 9344
3, 136660, Pitch_bend_c, 5, 9472
3, 136670, Pitch_bend_c, 5, 9600
3, 136680, Pitch_bend_c, 5, 9600
3, 136800, Pitch_bend_c, 5, 9600
3, 136800, Pitch_bend_c, 5, 8192
3, 136800, Note_off_c, 5, 65, 95
3, 136800, Note_on_c, 4, 65, 95
3, 137040, Note_off_c, 4, 65, 95
3, 137040, Note_on_c, 4, 63, 95
3, 137280, Note_off_c, 4, 63, 95
3, 137280, Note_on_c, 4, 60, 95
3, 137520, Note_off_c, 4, 60, 95
3, 137520, Note_on_c, 5, 58, 95
3, 137680, Pitch_bend_c, 5, 8192
3, 137840, Pitch_bend_c, 5, 8320
3, 138000, Pitch_bend_c, 5, 8192
3, 138000, Pitch_bend_c, 5, 8320
3, 138000, Pitch_bend_c, 5, 8192
3, 138000, Note_off_c, 5, 58, 95
3, 138240, Pitch_bend_c, 5, 8192
3, 138240, Note_on_c, 5, 74, 95
3, 138267, Pitch_bend_c, 5, 8320
3, 138294, Pitch_bend_c, 5, 8448
3, 138321, Pitch_bend_c, 5, 8576
3, 138348, Pitch_bend_c, 5, 8704
3, 138375, Pitch_bend_c, 5, 8832
3, 138402, Pitch_bend_c, 5, 8960
3, 138429, Pitch_bend_c, 5, 9088
3, 138456, Pitch_bend_c, 5, 9216
3, 138483, Pitch_bend_c, 5, 9344
3, 138510, Pitch_bend_c, 5, 9472
3, 138537, Pitch_bend_c, 5, 9600
3, 138540, Pitch_bend_c, 5, 9600
3, 138840, Pitch_bend_c, 5, 9600
3, 138867, Pitch_bend_c, 5, 9472
3, 138894, Pitch_bend_c, 5, 9344
3, 138921, Pitch_bend_c, 5, 9216
3, 138948, Pitch_bend_c, 5, 9088
3, 138975, Pitch_bend_c, 5, 8960
3, 139002, Pitch_bend_c, 5, 8832
3, 139029, Pitch_bend_c, 5, 8704
3, 139056, Pitch_bend_c, 5, 8576
3, 139083, Pitch_bend_c, 5, 8448
3, 139110, Pitch_bend_c, 5, 8320
3, 139137, Pitch_bend_c, 5, 8192
3, 139140, Pitch_bend_c, 5, 8192
3, 139440, Pitch_bend_c, 5, 8192
3, 139440, Pitch_bend_c, 5, 8192
3, 139440, Note_off_c, 5, 74, 95
3, 139440, Note_on_c, 4, 74, 63
3, 139680, Note_off_c, 4, 74, 63
3, 139680, Note_on_c, 4, 72, 70
3, 140160, Note_off_c, 4, 72, 70
3, 140160, Pitch_bend_c, 5, 8192
3, 140160, Note_on_c, 5, 75, 95
3, 140225, Pitch_bend_c, 5, 8320
3, 140290, Pitch_bend_c, 5, 8448
3, 140355, Pitch_bend_c, 5, 8576
3, 140420, Pitch_bend_c, 5, 8704
3, 140485, Pitch_bend_c, 5, 8832
3, 140550, Pitch_bend_c, 5, 8960
3, 140615, Pitch_bend_c, 5, 9088
3, 140680, Pitch_bend_c, 5, 9216
3, 140745, Pitch_bend_c, 5, 9344
3, 140810, Pitch_bend_c, 5, 9472
3, 140875, Pitch_bend_c, 5, 9600
3, 140880, Pitch_bend_c, 5, 9600
3, 141600, Pitch_bend_c, 5, 9600
3, 141600, Pitch_bend_c, 5, 8192
3, 141600, Note_off_c, 5, 75, 95
3, 142080, Pitch_bend_c, 5, 8192
3, 142080, Note_on_c, 5, 79, 95
3, 142138, Pitch_bend_c, 5, 8320
3, 142196, Pitch_bend_c, 5, 8448
3, 142254, Pitch_bend_c, 5, 8576
3, 142312, Pitch_bend_c, 5, 8704
3, 142370, Pitch_bend_c, 5, 8832
3, 142428, Pitch_bend_c, 5, 8960
3, 142486, Pitch_bend_c, 5, 9088
3, 142544, Pitch_bend_c, 5, 9216
3, 142602, Pitch_bend_c, 5, 9344
3, 142660, Pitch_bend_c, 5, 9472
3, 142718, Pitch_bend_c, 5, 9600
3, 142720, Pitch_bend_c, 5, 9600
3, 143360, Pitch_bend_c, 5, 9600
3, 143360, Pitch_bend_c, 5, 8192
3, 143360, Note_off_c, 5, 79, 95
3, 143360, Note_on_c, 4, 79, 95
3, 143680, Note_off_c, 4, 79, 95
3, 143680, Pitch_bend_c, 5, 8192
3, 143680, Note_on_c, 5, 79, 95
3, 143694, Pitch_bend_c, 5, 8320
3, 143708, Pitch_bend_c, 5, 8448
3, 143722, Pitch_bend_c, 5, 8576
3, 143736, Pitch_bend_c, 5, 8704
3, 143750, Pitch_bend_c, 5, 8832
3, 143764, Pitch_bend_c, 5, 8960
3, 143778, Pitch_bend_c, 5, 9088
3, 143792, Pitch_bend_c, 5, 9216
3, 143806, Pitch_bend_c, 5, 9344
3, 143820, Pitch_bend_c, 5, 9472
3, 143834, Pitch_bend_c, 5, 9600
3, 143840, Pitch_bend_c, 5, 9600
3, 144000, Pitch_bend_c, 5, 9600
3, 144000, Pitch_bend_c, 5, 8192
3, 144000, Note_off_c, 5, 79, 95
3, 144000, Pitch_bend_c, 5, 8192
3, 144000, Note_on_c, 5, 74, 95
3, 144021, Pitch_bend_c, 5, 8320
3, 144042, Pitch_bend_c, 5, 8448
3, 144063, Pitch_bend_c, 5, 8576
3, 144084, Pitch_bend_c, 5, 8704
3, 144105, Pitch_bend_c, 5, 8832
3, 144126, Pitch_bend_c, 5, 8960
3, 144147, Pitch_bend_c, 5, 9088
3, 144168, Pitch_bend_c, 5, 9216
3, 144189, Pitch_bend_c, 5, 9344
3, 144210, Pitch_bend_c, 5, 9472
3, 144231, Pitch_bend_c, 5, 9600
3, 144240, Pitch_bend_c, 5, 9600
3, 144480, Pitch_bend_c, 5, 9600
3, 144480, Pitch_bend_c, 5, 8192
3, 144480, Note_off_c, 5, 74, 95
3, 144480, Note_on_c, 4, 74, 95
3, 144720, Note_off_c, 4, 74, 95
3, 144720, Note_on_c, 4, 72, 95
3, 144960, Note_off_c, 4, 72, 95
3, 144960, Note_on_c, 4, 74, 95
3, 145200, Note_off_c, 4, 74, 95
3, 145200, Note_on_c, 4, 69, 95
3, 145440, Note_off_c, 4, 69, 95
3, 145440, Note_on_c, 4, 72, 95
3, 145680, Note_off_c, 4, 72, 95
3, 145680, Pitch_bend_c, 5, 8192
3, 145680, Note_on_c, 5, 74, 95
3, 145712, Pitch_bend_c, 5, 8320
3, 145744, Pitch_bend_c, 5, 8448
3, 145776, Pitch_bend_c, 5, 8576
3, 145808, Pitch_bend_c, 5, 8704
3, 145840, Pitch_bend_c, 5, 8832
3, 145872, Pitch_bend_c, 5, 8960
3, 145904, Pitch_bend_c, 5, 9088
3, 145936, Pitch_bend_c, 5, 9216
3, 145968, Pitch_bend_c, 5, 9344
3, 146000, Pitch_bend_c, 5, 9472
3, 146032, Pitch_bend_c, 5, 9600
3, 146040, Pitch_bend_c, 5, 9600
3, 146400, Pitch_bend_c, 5, 9600
3, 146400, Pitch_bend_c, 5, 8192
3, 146400, Note_off_c, 5, 74, 95
3, 146400, Note_on_c, 5, 74, 95
3, 146560, Pitch_bend_c, 5, 8192
3, 146720, Pitch_bend_c, 5, 8320
3, 146880, Pitch_bend_c, 5, 8192
3, 147040, Pitch_bend_c, 5, 8320
3, 147120, Pitch_bend_c, 5, 8192
3, 147120, Pitch_bend_c, 5, 8320
3, 147120, Pitch_bend_c, 5, 8192
3, 147120, Note_off_c, 5, 74, 95
3, 147120, Note_on_c, 5, 74, 95
3, 147840, Note_off_c, 5, 74, 95
3, 148980, Note_on_c, 5, 65, 95
3, 149040, Note_off_c, 5, 65, 95
3, 149040, Note_on_c, 5, 66, 95
3, 149280, Note_off_c, 5, 66, 95
3, 149280, Note_on_c, 4, 69, 95
3, 149520, Note_off_c, 4, 69, 95
3, 149520, Note_on_c, 4, 74, 95
3, 149760, Note_off_c, 4, 74, 95
3, 149760, Pitch_bend_c, 5, 8192
3, 149760, Note_on_c, 5, 77, 95
3, 149832, Pitch_bend_c, 5, 8320
3, 149904, Pitch_bend_c, 5, 8448
3, 149976, Pitch_bend_c, 5, 8576
3, 150048, Pitch_bend_c, 5, 8704
3, 150120, Pitch_bend_c, 5, 8832
3, 150120, Pitch_bend_c, 5, 8832
3, 150480, Pitch_bend_c, 5, 8832
3, 150480, Pitch_bend_c, 5, 8192
3, 150480, Note_off_c, 5, 77, 95
3, 150480, Note_on_c, 4, 77, 95
3, 150720, Note_off_c, 4, 77, 95
3, 150720, Note_on_c, 4, 74, 95
3, 151040, Note_off_c, 4, 74, 95
3, 151040, Note_on_c, 4, 69, 95
3, 151360, Note_off_c, 4, 69, 95
3, 151360, Note_on_c, 4, 72, 95
3, 151680, Note_off_c, 4, 72, 95
3, 151680, Pitch_bend_c, 5, 8192
3, 151680, Note_on_c, 5, 72, 95
3, 151694, Pitch_bend_c, 5, 8320
3, 151708, Pitch_bend_c, 5, 8448
3, 151722, Pitch_bend_c, 5, 8576
3, 151736, Pitch_bend_c, 5, 8704
3, 151750, Pitch_bend_c, 5, 8832
3, 151764, Pitch_bend_c, 5, 8960
3, 151778, Pitch_bend_c, 5, 9088
3, 151792, Pitch_bend_c, 5, 9216
3, 151806, Pitch_bend_c, 5, 9344
3, 151820, Pitch_bend_c, 5, 9472
3, 151834, Pitch_bend_c, 5, 9600
3, 151840, Pitch_bend_c, 5, 9600
3, 152000, Pitch_bend_c, 5, 9600
3, 152000, Pitch_bend_c, 5, 8192
3, 152000, Note_off_c, 5, 72, 95
3, 152000, Note_on_c, 4, 74, 95
3, 152160, Note_off_c, 4, 74, 95
3, 152160, Note_on_c, 4, 72, 95
3, 152320, Note_off_c, 4, 72, 95
3, 152320, Note_on_c, 4, 69, 95
3, 152480, Note_off_c, 4, 69, 95
3, 152480, Pitch_bend_c, 5, 8192
3, 152480, Note_on_c, 5, 67, 95
3, 152487, Pitch_bend_c, 5, 8320
3, 152494, Pitch_bend_c, 5, 8448
3, 152501, Pitch_bend_c, 5, 8576
3, 152508, Pitch_bend_c, 5, 8704
3, 152515, Pitch_bend_c, 5, 8832
3, 152522, Pitch_bend_c, 5, 8960
3, 152529, Pitch_bend_c, 5, 9088
3, 152536, Pitch_bend_c, 5, 9216
3, 152543, Pitch_bend_c, 5, 9344
3, 152550, Pitch_bend_c, 5, 9472
3, 152557, Pitch_bend_c, 5, 9600
3, 152560, Pitch_bend_c, 5, 9600
3, 152640, Pitch_bend_c, 5, 9600
3, 152640, Pitch_bend_c, 5, 8192
3, 152640, Note_off_c, 5, 67, 95
3, 152640, Note_on_c, 4, 69, 95
3, 152800, Note_off_c, 4, 69, 95
3, 152800, Note_on_c, 4, 74, 95
3, 152960, Note_off_c, 4, 74, 95
3, 152960, Note_on_c, 4, 72, 95
3, 153120, Note_off_c, 4, 72, 95
3, 153120, Note_on_c, 4, 69, 95
3, 153280, Note_off_c, 4, 69, 95
3, 153280, Note_on_c, 4, 77, 95
3, 153440, Note_off_c, 4, 77, 95
3, 153440, Note_on_c, 4, 74, 95
3, 153600, Note_off_c, 4, 74, 95
3, 153600, Pitch_bend_c, 5, 8192
3, 153600, Note_on_c, 5, 77, 95
3, 153610, Pitch_bend_c, 5, 8320
3, 153620, Pitch_bend_c, 5, 8448
3, 153630, Pitch_bend_c, 5, 8576
3, 153640, Pitch_bend_c, 5, 8704
3, 153650, Pitch_bend_c, 5, 8832
3, 153660, Pitch_bend_c, 5, 8960
3, 153670, Pitch_bend_c, 5, 9088
3, 153680, Pitch_bend_c, 5, 9216
3, 153690, Pitch_bend_c, 5, 9344
3, 153700, Pitch_bend_c, 5, 9472
3, 153710, Pitch_bend_c, 5, 9600
3, 153720, Pitch_bend_c, 5, 9600
3, 153840, Pitch_bend_c, 5, 9600
3, 153840, Pitch_bend_c, 5, 8192
3, 153840, Note_off_c, 5, 77, 95
3, 153840, Note_on_c, 4, 77, 95
3, 154080, Note_off_c, 4, 77, 95
3, 154080, Note_on_c, 4, 74, 95
3, 154240, Note_off_c, 4, 74, 95
3, 154240, Note_on_c, 4, 77, 70
3, 154400, Note_off_c, 4, 77, 70
3, 154400, Note_on_c, 4, 74, 70
3, 154560, Note_off_c, 4, 74, 70
3, 154560, Note_on_c, 4, 72, 95
3, 154880, Note_off_c, 4, 72, 95
3, 154880, Note_on_c, 5, 74, 95
3, 155040, Pitch_bend_c, 5, 8192
3, 155200, Pitch_bend_c, 5, 8320
3, 155200, Pitch_bend_c, 5, 8192
3, 155200, Note_off_c, 5, 74, 95
3, 155200, Note_on_c, 4, 72, 95
3, 155520, Note_off_c, 4, 72, 95
3, 155520, Note_on_c, 5, 74, 95
3, 155680, Pitch_bend_c, 5, 8192
3, 155680, Pitch_bend_c, 5, 8320
3, 155680, Pitch_bend_c, 5, 8192
3, 155680, Note_off_c, 5, 74, 95
3, 155680, Note_on_c, 4, 72, 95
3, 155840, Note_off_c, 4, 72, 95
3, 155840, Note_on_c, 4, 74, 95
3, 156000, Note_off_c, 4, 74, 95
3, 156000, Note_on_c, 4, 72, 95
3, 156160, Note_off_c, 4, 72, 95
3, 156160, Note_on_c, 4, 74, 95
3, 156320, Note_off_c, 4, 74, 95
3, 156320, Note_on_c, 4, 72, 95
3, 156480, Note_off_c, 4, 72, 95
3, 156480, Note_on_c, 5, 74, 95
3, 156480, Note_on_c, 5, 69, 95
3, 156640, Pitch_bend_c, 5, 8192
3, 156640, Pitch_bend_c, 5, 8192
3, 156720, Pitch_bend_c, 5, 8320
3, 156720, Pitch_bend_c, 5, 8192
3, 156720, Note_off_c, 5, 74, 95
3, 156720, Pitch_bend_c, 5, 8320
3, 156720, Pitch_bend_c, 5, 8192
3, 156720, Note_off_c, 5, 69, 95
3, 156720, Note_on_c, 4, 72, 95
3, 156960, Note_off_c, 4, 72, 95
3, 156960, Pitch_bend_c, 5, 8192
3, 156960, Note_on_c, 5, 67, 95
3, 156963, Pitch_bend_c, 5, 8320
3, 156966, Pitch_bend_c, 5, 8448
3, 156969, Pitch_bend_c, 5, 8576
3, 156972, Pitch_bend_c, 5, 8704
3, 156975, Pitch_bend_c, 5, 8832
3, 156978, Pitch_bend_c, 5, 8960
3, 156981, Pitch_bend_c, 5, 9088
3, 156984, Pitch_bend_c, 5, 9216
3, 156987, Pitch_bend_c, 5, 9344
3, 156990, Pitch_bend_c, 5, 9472
3, 156993, Pitch_bend_c, 5, 9600
3, 157000, Pitch_bend_c, 5, 9600
3, 157040, Pitch_bend_c, 5, 9600
3, 157043, Pitch_bend_c, 5, 9472
3, 157046, Pitch_bend_c, 5, 9344
3, 157049, Pitch_bend_c, 5, 9216
3, 157052, Pitch_bend_c, 5, 9088
3, 157055, Pitch_bend_c, 5, 8960
3, 157058, Pitch_bend_c, 5, 8832
3, 157061, Pitch_bend_c, 5, 8704
3, 157064, Pitch_bend_c, 5, 8576
3, 157067, Pitch_bend_c, 5, 8448
3, 157070, Pitch_bend_c, 5, 8320
3, 157073, Pitch_bend_c, 5, 8192
3, 157080, Pitch_bend_c, 5, 8192
3, 157120, Pitch_bend_c, 5, 8192
3, 157120, Pitch_bend_c, 5, 8192
3, 157120, Note_off_c, 5, 67, 95
3, 157120, Note_on_c, 4, 67, 63
3, 157280, Note_off_c, 4, 67, 63
3, 157280, Note_on_c, 4, 65, 70
3, 157440, Note_off_c, 4, 65, 70
3, 157440, Note_on_c, 4, 62, 95
3, 157600, Note_off_c, 4, 62, 95
3, 157600, Note_on_c, 4, 61, 70
3, 157760, Note_off_c, 4, 61, 70
3, 157760, Note_on_c, 4, 62, 70
3, 157920, Note_off_c, 4, 62, 70
3, 158160, Pitch_bend_c, 5, 8192
3, 158160, Note_on_c, 5, 67, 95
3, 158170, Pitch_bend_c, 5, 8320
3, 158180, Pitch_bend_c, 5, 8448
3, 158190, Pitch_bend_c, 5, 8576
3, 158200, Pitch_bend_c, 5, 8704
3, 158210, Pitch_bend_c, 5, 8832
3, 158220, Pitch_bend_c, 5, 8960
3, 158230, Pitch_bend_c, 5, 9088
3, 158240, Pitch_bend_c, 5, 9216
3, 158250, Pitch_bend_c, 5, 9344
3, 158260, Pitch_bend_c, 5, 9472
3, 158270, Pitch_bend_c, 5, 9600
3, 158280, Pitch_bend_c, 5, 9600
3, 158400, Pitch_bend_c, 5, 9600
3, 158400, Pitch_bend_c, 5, 8192
3, 158400, Note_off_c, 5, 67, 95
3, 158400, Note_on_c, 4, 74, 95
3, 158400, Note_on_c, 4, 69, 95
3, 158720, Note_off_c, 4, 74, 95
3, 158720, Note_off_c, 4, 69, 95
3, 158720, Note_on_c, 4, 72, 95
3, 159040, Note_off_c, 4, 72, 95
3, 159040, Note_on_c, 4, 69, 95
3, 159360, Note_off_c, 4, 69, 95
3, 159360, Pitch_bend_c, 5, 8192
3, 159360, Note_on_c, 5, 67, 95
3, 159370, Pitch_bend_c, 5, 8320
3, 159380, Pitch_bend_c, 5, 8448
3, 159390, Pitch_bend_c, 5, 8576
3, 159400, Pitch_bend_c, 5, 8704
3, 159410, Pitch_bend_c, 5, 8832
3, 159420, Pitch_bend_c, 5, 8960
3, 159430, Pitch_bend_c, 5, 9088
3, 159440, Pitch_bend_c, 5, 9216
3, 159450, Pitch_bend_c, 5, 9344
3, 159460, Pitch_bend_c, 5, 9472
3, 159470, Pitch_bend_c, 5, 9600
3, 159480, Pitch_bend_c, 5, 9600
3, 159600, Pitch_bend_c, 5, 9600
3, 159600, Pitch_bend_c, 5, 8192
3, 159600, Note_off_c, 5, 67, 95
3, 159600, Note_on_c, 4, 67, 95
3, 159840, Note_off_c, 4, 67, 95
3, 159840, Note_on_c, 4, 65, 95
3, 160000, Note_off_c, 4, 65, 95
3, 160000, Pitch_bend_c, 5, 8192
3, 160000, Note_on_c, 5, 62, 95
3, 160007, Pitch_bend_c, 5, 8320
3, 160014, Pitch_bend_c, 5, 8448
3, 160021, Pitch_bend_c, 5, 8576
3, 160028, Pitch_bend_c, 5, 8704
3, 160035, Pitch_bend_c, 5, 8832
3, 160042, Pitch_bend_c, 5, 8960
3, 160049, Pitch_bend_c, 5, 9088
3, 160056, Pitch_bend_c, 5, 9216
3, 160063, Pitch_bend_c, 5, 9344
3, 160070, Pitch_bend_c, 5, 9472
3, 160077, Pitch_bend_c, 5, 9600
3, 160080, Pitch_bend_c, 5, 9600
3, 160160, Pitch_bend_c, 5, 9600
3, 160160, Pitch_bend_c, 5, 8192
3, 160160, Note_off_c, 5, 62, 95
3, 160160, Note_on_c, 4, 65, 95
3, 160320, Note_off_c, 4, 65, 95
3, 160320, Pitch_bend_c, 5, 8192
3, 160320, Note_on_c, 5, 67, 95
3, 160325, Pitch_bend_c, 5, 8320
3, 160330, Pitch_bend_c, 5, 8448
3, 160335, Pitch_bend_c, 5, 8576
3, 160340, Pitch_bend_c, 5, 8704
3, 160345, Pitch_bend_c, 5, 8832
3, 160350, Pitch_bend_c, 5, 8960
3, 160355, Pitch_bend_c, 5, 9088
3, 160360, Pitch_bend_c, 5, 9216
3, 160365, Pitch_bend_c, 5, 9344
3, 160370, Pitch_bend_c, 5, 9472
3, 160375, Pitch_bend_c, 5, 9600
3, 160380, Pitch_bend_c, 5, 9600
3, 160440, Pitch_bend_c, 5, 9600
3, 160440, Pitch_bend_c, 5, 8192
3, 160440, Note_off_c, 5, 67, 95
3, 160440, Note_on_c, 4, 67, 95
3, 160560, Note_off_c, 4, 67, 95
3, 160560, Note_on_c, 4, 65, 95
3, 160640, Note_off_c, 4, 65, 95
3, 160640, Note_on_c, 4, 62, 95
3, 160720, Note_off_c, 4, 62, 95
3, 160720, Note_on_c, 4, 65, 95
3, 160800, Note_off_c, 4, 65, 95
3, 160800, Pitch_bend_c, 5, 8192
3, 160800, Note_on_c, 5, 67, 95
3, 160805, Pitch_bend_c, 5, 8320
3, 160810, Pitch_bend_c, 5, 8448
3, 160815, Pitch_bend_c, 5, 8576
3, 160820, Pitch_bend_c, 5, 8704
3, 160825, Pitch_bend_c, 5, 8832
3, 160830, Pitch_bend_c, 5, 8960
3, 160835, Pitch_bend_c, 5, 9088
3, 160840, Pitch_bend_c, 5, 9216
3, 160845, Pitch_bend_c, 5, 9344
3, 160850, Pitch_bend_c, 5, 9472
3, 160855, Pitch_bend_c, 5, 9600
3, 160860, Pitch_bend_c, 5, 9600
3, 160920, Pitch_bend_c, 5, 9600
3, 160920, Pitch_bend_c, 5, 8192
3, 160920, Note_off_c, 5, 67, 95
3, 160920, Note_on_c, 4, 67, 95
3, 161040, Note_off_c, 4, 67, 95
3, 161040, Note_on_c, 4, 65, 95
3, 161120, Note_off_c, 4, 65, 95
3, 161120, Pitch_bend_c, 5, 8192
3, 161120, Note_on_c, 5, 62, 95
3, 161123, Pitch_bend_c, 5, 8320
3, 161126, Pitch_bend_c, 5, 8448
3, 161129, Pitch_bend_c, 5, 8576
3, 161132, Pitch_bend_c, 5, 8704
3, 161135, Pitch_bend_c, 5, 8832
3, 161138, Pitch_bend_c, 5, 8960
3, 161141, Pitch_bend_c, 5, 9088
3, 161144, Pitch_bend_c, 5, 9216
3, 161147, Pitch_bend_c, 5, 9344
3, 161150, Pitch_bend_c, 5, 9472
3, 161153, Pitch_bend_c, 5, 9600
3, 161160, Pitch_bend_c, 5, 9600
3, 161200, Pitch_bend_c, 5, 9600
3, 161200, Pitch_bend_c, 5, 8192
3, 161200, Note_off_c, 5, 62, 95
3, 161200, Note_on_c, 4, 65, 95
3, 161280, Note_off_c, 4, 65, 95
3, 161280, Pitch_bend_c, 5, 8192
3, 161280, Note_on_c, 5, 67, 95
3, 161287, Pitch_bend_c, 5, 8320
3, 161294, Pitch_bend_c, 5, 8448
3, 161301, Pitch_bend_c, 5, 8576
3, 161308, Pitch_bend_c, 5, 8704
3, 161315, Pitch_bend_c, 5, 8832
3, 161322, Pitch_bend_c, 5, 8960
3, 161329, Pitch_bend_c, 5, 9088
3, 161336, Pitch_bend_c, 5, 9216
3, 161343, Pitch_bend_c, 5, 9344
3, 161350, Pitch_bend_c, 5, 9472
3, 161357, Pitch_bend_c, 5, 9600
3, 161360, Pitch_bend_c, 5, 9600
3, 161440, Pitch_bend_c, 5, 9600
3, 161440, Pitch_bend_c, 5, 8192
3, 161440, Note_off_c, 5, 67, 95
3, 161440, Note_on_c, 4, 72, 95
3, 161600, Note_off_c, 4, 72, 95
3, 161600, Note_on_c, 4, 72, 95
3, 161760, Note_off_c, 4, 72, 95
3, 161760, Pitch_bend_c, 5, 8192
3, 161760, Note_on_c, 5, 67, 95
3, 161767, Pitch_bend_c, 5, 8320
3, 161774, Pitch_bend_c, 5, 8448
3, 161781, Pitch_bend_c, 5, 8576
3, 161788, Pitch_bend_c, 5, 8704
3, 161795, Pitch_bend_c, 5, 8832
3, 161802, Pitch_bend_c, 5, 8960
3, 161809, Pitch_bend_c, 5, 9088
3, 161816, Pitch_bend_c, 5, 9216
3, 161823, Pitch_bend_c, 5, 9344
3, 161830, Pitch_bend_c, 5, 9472
3, 161837, Pitch_bend_c, 5, 9600
3, 161840, Pitch_bend_c, 5, 9600
3, 161920, Pitch_bend_c, 5, 9600
3, 161920, Pitch_bend_c, 5, 8192
3, 161920, Note_off_c, 5, 67, 95
3, 161920, Note_on_c, 4, 72, 95
3, 162080, Note_off_c, 4, 72, 95
3, 162080, Note_on_c, 4, 72, 95
3, 162240, Note_off_c, 4, 72, 95
3, 162240, Pitch_bend_c, 5, 8192
3, 162240, Note_on_c, 5, 67, 95
3, 162254, Pitch_bend_c, 5, 8320
3, 162268, Pitch_bend_c, 5, 8448
3, 162282, Pitch_bend_c, 5, 8576
3, 162296, Pitch_bend_c, 5, 8704
3, 162310, Pitch_bend_c, 5, 8832
3, 162324, Pitch_bend_c, 5, 8960
3, 162338, Pitch_bend_c, 5, 9088
3, 162352, Pitch_bend_c, 5, 9216
3, 162366, Pitch_bend_c, 5, 9344
3, 162380, Pitch_bend_c, 5, 9472
3, 162394, Pitch_bend_c, 5, 9600
3, 162400, Pitch_bend_c, 5, 9600
3, 162560, Pitch_bend_c, 5, 9600
3, 162560, Pitch_bend_c, 5, 8192
3, 162560, Note_off_c, 5, 67, 95
3, 162560, Note_on_c, 5, 72, 95
3, 162720, Pitch_bend_c, 5, 8192
3, 162880, Pitch_bend_c, 5, 8320
3, 162880, Pitch_bend_c, 5, 8192
3, 162880, Note_off_c, 5, 72, 95
3, 162880, Note_on_c, 5, 72, 95
3, 163040, Pitch_bend_c, 5, 8192
3, 163200, Pitch_bend_c, 5, 8320
3, 163200, Pitch_bend_c, 5, 8192
3, 163200, Note_off_c, 5, 72, 95
3, 163200, Pitch_bend_c, 5, 8192
3, 163200, Note_on_c, 5, 67, 95
3, 163214, Pitch_bend_c, 5, 8320
3, 163228, Pitch_bend_c, 5, 8448
3, 163242, Pitch_bend_c, 5, 8576
3, 163256, Pitch_bend_c, 5, 8704
3, 163270, Pitch_bend_c, 5, 8832
3, 163284, Pitch_bend_c, 5, 8960
3, 163298, Pitch_bend_c, 5, 9088
3, 163312, Pitch_bend_c, 5, 9216
3, 163326, Pitch_bend_c, 5, 9344
3, 163340, Pitch_bend_c, 5, 9472
3, 163354, Pitch_bend_c, 5, 9600
3, 163360, Pitch_bend_c, 5, 9600
3, 163520, Pitch_bend_c, 5, 9600
3, 163520, Pitch_bend_c, 5, 8192
3, 163520, Note_off_c, 5, 67, 95
3, 163520, Note_on_c, 5, 72, 95
3, 163680, Pitch_bend_c, 5, 8192
3, 163840, Pitch_bend_c, 5, 8320
3, 163840, Pitch_bend_c, 5, 8192
3, 163840, Note_off_c, 5, 72, 95
3, 163840, Note_on_c, 5, 72, 95
3, 164000, Pitch_bend_c, 5, 8192
3, 164160, Pitch_bend_c, 5, 8320
3, 164160, Pitch_bend_c, 5, 8192
3, 164160, Note_off_c, 5, 72, 95
3, 164160, Pitch_bend_c, 5, 8192
3, 164160, Note_on_c, 5, 67, 95
3, 164184, Pitch_bend_c, 5, 8320
3, 164208, Pitch_bend_c, 5, 8448
3, 164232, Pitch_bend_c, 5, 8576
3, 164256, Pitch_bend_c, 5, 8704
3, 164280, Pitch_bend_c, 5, 8832
3, 164280, Pitch_bend_c, 5, 8832
3, 164400, Pitch_bend_c, 5, 8832
3, 164400, Pitch_bend_c, 5, 8192
3, 164400, Note_off_c, 5, 67, 95
3, 164400, Note_on_c, 5, 72, 95
3, 164560, Pitch_bend_c, 5, 8192
3, 164640, Pitch_bend_c, 5, 8320
3, 164640, Pitch_bend_c, 5, 8192
3, 164640, Note_off_c, 5, 72, 95
3, 164640, Pitch_bend_c, 5, 8192
3, 164640, Note_on_c, 5, 67, 95
3, 164661, Pitch_bend_c, 5, 8320
3, 164682, Pitch_bend_c, 5, 8448
3, 164703, Pitch_bend_c, 5, 8576
3, 164724, Pitch_bend_c, 5, 8704
3, 164745, Pitch_bend_c, 5, 8832
3, 164766, Pitch_bend_c, 5, 8960
3, 164787, Pitch_bend_c, 5, 9088
3, 164808, Pitch_bend_c, 5, 9216
3, 164829, Pitch_bend_c, 5, 9344
3, 164850, Pitch_bend_c, 5, 9472
3, 164871, Pitch_bend_c, 5, 9600
3, 164880, Pitch_bend_c, 5, 9600
3, 165120, Pitch_bend_c, 5, 9600
3, 165120, Pitch_bend_c, 5, 8192
3, 165120, Note_off_c, 5, 67, 95
3, 165120, Note_on_c, 4, 69, 95
3, 165120, Pitch_bend_c, 5, 8192
3, 165120, Note_on_c, 5, 67, 95
3, 165136, Pitch_bend_c, 5, 8320
3, 165152, Pitch_bend_c, 5, 8448
3, 165168, Pitch_bend_c, 5, 8576
3, 165184, Pitch_bend_c, 5, 8704
3, 165200, Pitch_bend_c, 5, 8832
3, 165216, Pitch_bend_c, 5, 8960
3, 165232, Pitch_bend_c, 5, 9088
3, 165248, Pitch_bend_c, 5, 9216
3, 165264, Pitch_bend_c, 5, 9344
3, 165280, Pitch_bend_c, 5, 9472
3, 165296, Pitch_bend_c, 5, 9600
3, 165300, Pitch_bend_c, 5, 9600
3, 165480, Pitch_bend_c, 5, 9600
3, 165496, Pitch_bend_c, 5, 9472
3, 165512, Pitch_bend_c, 5, 9344
3, 165528, Pitch_bend_c, 5, 9216
3, 165544, Pitch_bend_c, 5, 9088
3, 165560, Pitch_bend_c, 5, 8960
3, 165576, Pitch_bend_c, 5, 8832
3, 165592, Pitch_bend_c, 5, 8704
3, 165608, Pitch_bend_c, 5, 8576
3, 165624, Pitch_bend_c, 5, 8448
3, 165640, Pitch_bend_c, 5, 8320
3, 165656, Pitch_bend_c, 5, 8192
3, 165660, Pitch_bend_c, 5, 8192
3, 165840, Note_off_c, 4, 69, 95
3, 165840, Pitch_bend_c, 5, 8192
3, 165840, Pitch_bend_c, 5, 8192
3, 165840, Note_off_c, 5, 67, 95
3, 165840, Pitch_bend_c, 5, 8192
3, 165840, Note_on_c, 5, 67, 95
3, 165856, Pitch_bend_c, 5, 8320
3, 165872, Pitch_bend_c, 5, 8448
3, 165888, Pitch_bend_c, 5, 8576
3, 165904, Pitch_bend_c, 5, 8704
3, 165920, Pitch_bend_c, 5, 8832
3, 165936, Pitch_bend_c, 5, 8960
3, 165952, Pitch_bend_c, 5, 9088
3, 165968, Pitch_bend_c, 5, 9216
3, 165984, Pitch_bend_c, 5, 9344
3, 166000, Pitch_bend_c, 5, 9472
3, 166016, Pitch_bend_c, 5, 9600
3, 166020, Pitch_bend_c, 5, 9600
3, 166200, Pitch_bend_c, 5, 9600
3, 166216, Pitch_bend_c, 5, 9472
3, 166232, Pitch_bend_c, 5, 9344
3, 166248, Pitch_bend_c, 5, 9216
3, 166264, Pitch_bend_c, 5, 9088
3, 166280, Pitch_bend_c, 5, 8960
3, 166296, Pitch_bend_c, 5, 8832
3, 166312, Pitch_bend_c, 5, 8704
3, 166328, Pitch_bend_c, 5, 8576
3, 166344, Pitch_bend_c, 5, 8448
3, 166360, Pitch_bend_c, 5, 8320
3, 166376, Pitch_bend_c, 5, 8192
3, 166380, Pitch_bend_c, 5, 8192
3, 166560, Pitch_bend_c, 5, 8192
3, 166560, Pitch_bend_c, 5, 8192
3, 166560, Note_off_c, 5, 67, 95
3, 166560, Note_on_c, 4, 67, 63
3, 166680, Note_off_c, 4, 67, 63
3, 166680, Note_on_c, 4, 65, 70
3, 167040, Note_off_c, 4, 65, 70
3, 167520, Note_on_c, 4, 55, 95
3, 168000, Note_off_c, 4, 55, 95
3, 168000, Note_on_c, 5, 65, 95
3, 168120, Pitch_bend_c, 5, 8448
3, 168240, Pitch_bend_c, 5, 8832
3, 168360, Pitch_bend_c, 5, 9216
3, 168480, Pitch_bend_c, 5, 9600
3, 168480, Pitch_bend_c, 5, 8192
3, 168480, Note_off_c, 5, 65, 95
3, 168480, Note_on_c, 4, 67, 95
3, 168960, Note_off_c, 4, 67, 95
3, 169680, Note_on_c, 5, 59, 95
3, 169800, Pitch_bend_c, 5, 8832
3, 169920, Pitch_bend_c, 5, 9600
3, 169920, Pitch_bend_c, 5, 8192
3, 169920, Note_off_c, 5, 59, 95
3, 169920, Note_on_c, 4, 61, 95
3, 170160, Note_off_c, 4, 61, 95
3, 170160, Note_on_c, 4, 69, 95
3, 170400, Note_off_c, 4, 69, 95
3, 170400, Note_on_c, 5, 69, 95
3, 170560, Pitch_bend_c, 5, 8192
3, 170640, Pitch_bend_c, 5, 8320
3, 170640, Pitch_bend_c, 5, 8192
3, 170640, Note_off_c, 5, 69, 95
3, 170640, Note_on_c, 5, 59, 95
3, 170760, Pitch_bend_c, 5, 8448
3, 170880, Pitch_bend_c, 5, 8832
3, 170880, Pitch_bend_c, 5, 8192
3, 170880, Note_off_c, 5, 59, 95
3, 170880, Note_on_c, 4, 60, 95
3, 171120, Note_off_c, 4, 60, 95
3, 171120, Note_on_c, 5, 68, 95
3, 171280, Pitch_bend_c, 5, 8192
3, 171360, Pitch_bend_c, 5, 8320
3, 171360, Pitch_bend_c, 5, 8192
3, 171360, Note_off_c, 5, 68, 95
3, 171360, Note_on_c, 5, 59, 95
3, 171520, Pitch_bend_c, 5, 8192
3, 171680, Pitch_bend_c, 5, 8320
3, 171840, Pitch_bend_c, 5, 8192
3, 171840, Pitch_bend_c, 5, 8320
3, 171840, Pitch_bend_c, 5, 8192
3, 171840, Note_off_c, 5, 59, 95
3, 171840, Note_on_c, 5, 67, 95
3, 172000, Pitch_bend_c, 5, 8192
3, 172080, Pitch_bend_c, 5, 8320
3, 172080, Pitch_bend_c, 5, 8192
3, 172080, Note_off_c, 5, 67, 95
3, 172080, Note_on_c, 5, 57, 95
3, 172200, Pitch_bend_c, 5, 8832
3, 172320, Pitch_bend_c, 5, 9600
3, 172320, Pitch_bend_c, 5, 8192
3, 172320, Note_off_c, 5, 57, 95
3, 172320, Note_on_c, 4, 59, 95
3, 172560, Note_off_c, 4, 59, 95
3, 172560, Note_on_c, 5, 67, 95
3, 172680, Pitch_bend_c, 5, 7936
3, 172800, Pitch_bend_c, 5, 7552
3, 172800, Pitch_bend_c, 5, 8192
3, 172800, Note_off_c, 5, 67, 95
3, 172800, Note_on_c, 5, 66, 95
3, 172960, Pitch_bend_c, 5, 8192
3, 173120, Pitch_bend_c, 5, 8320
3, 173280, Pitch_bend_c, 5, 8192
3, 173440, Pitch_bend_c, 5, 8320
3, 173600, Pitch_bend_c, 5, 8192
3, 173760, Pitch_bend_c, 5, 8320
3, 173920, Pitch_bend_c, 5, 8192
3, 174080, Pitch_bend_c, 5, 8320
3, 174240, Pitch_bend_c, 5, 8192
3, 174400, Pitch_bend_c, 5, 8320
3, 174560, Pitch_bend_c, 5, 8192
3, 174720, Pitch_bend_c, 5, 8320
3, 174720, Pitch_bend_c, 5, 8192
3, 174720, Note_off_c, 5, 66, 95
3, 174720, Note_on_c, 5, 67, 95
3, 174840, Pitch_bend_c, 5, 8448
3, 174960, Pitch_bend_c, 5, 8832
3, 174960, Pitch_bend_c, 5, 8192
3, 174960, Note_off_c, 5, 67, 95
3, 174960, Note_on_c, 4, 68, 95
3, 175200, Note_off_c, 4, 68, 95
3, 175200, Note_on_c, 5, 76, 95
3, 175360, Pitch_bend_c, 5, 8192
3, 175520, Pitch_bend_c, 5, 8320
3, 175680, Pitch_bend_c, 5, 8192
3, 175840, Pitch_bend_c, 5, 8320
3, 176000, Pitch_bend_c, 5, 8192
3, 176160, Pitch_bend_c, 5, 8320
3, 176160, Pitch_bend_c, 5, 8192
3, 176160, Note_off_c, 5, 76, 95
3, 176160, Note_on_c, 5, 71, 95
3, 176320, Pitch_bend_c, 5, 8192
3, 176480, Pitch_bend_c, 5, 8320
3, 176640, Pitch_bend_c, 5, 8192
3, 176640, Pitch_bend_c, 5, 8320
3, 176640, Pitch_bend_c, 5, 8192
3, 176640, Note_off_c, 5, 71, 95
3, 176640, Note_on_c, 5, 72, 95
3, 176760, Pitch_bend_c, 5, 8448
3, 176880, Pitch_bend_c, 5, 8832
3, 176880, Pitch_bend_c, 5, 8192
3, 176880, Note_off_c, 5, 72, 95
3, 176880, Note_on_c, 4, 73, 95
3, 177120, Note_off_c, 4, 73, 95
3, 177120, Note_on_c, 4, 76, 95
3, 177360, Note_off_c, 4, 76, 95
3, 177360, Note_on_c, 4, 73, 95
3, 177600, Note_off_c, 4, 73, 95
3, 177600, Note_on_c, 4, 78, 95
3, 177720, Note_off_c, 4, 78, 95
3, 177720, Note_on_c, 4, 76, 70
3, 177840, Note_off_c, 4, 76, 70
3, 177840, Note_on_c, 4, 73, 95
3, 178080, Note_off_c, 4, 73, 95
3, 178080, Note_on_c, 4, 78, 95
3, 178200, Note_off_c, 4, 78, 95
3, 178200, Note_on_c, 4, 76, 70
3, 178320, Note_off_c, 4, 76, 70
3, 178320, Note_on_c, 4, 73, 95
3, 178560, Note_off_c, 4, 73, 95
3, 178560, Note_on_c, 4, 76, 95
3, 178680, Note_off_c, 4, 76, 95
3, 178680, Note_on_c, 4, 74, 70
3, 178800, Note_off_c, 4, 74, 70
3, 178800, Note_on_c, 4, 71, 95
3, 179040, Note_off_c, 4, 71, 95
3, 179040, Note_on_c, 4, 76, 95
3, 179160, Note_off_c, 4, 76, 95
3, 179160, Note_on_c, 4, 74, 70
3, 179280, Note_off_c, 4, 74, 70
3, 179280, Note_on_c, 4, 71, 95
3, 179520, Note_off_c, 4, 71, 95
3, 179520, Note_on_c, 4, 76, 95
3, 179640, Note_off_c, 4, 76, 95
3, 179640, Note_on_c, 4, 74, 70
3, 179760, Note_off_c, 4, 74, 70
3, 179760, Note_on_c, 4, 71, 95
3, 180000, Note_off_c, 4, 71, 95
3, 180000, Note_on_c, 4, 74, 95
3, 180240, Note_off_c, 4, 74, 95
3, 180240, Note_on_c, 4, 69, 95
3, 180480, Note_off_c, 4, 69, 95
3, 180480, Note_on_c, 4, 63, 95
3, 180480, Note_on_c, 4, 58, 95
3, 180524, Note_off_c, 4, 63, 95
3, 180524, Note_off_c, 4, 58, 95
3, 181380, Note_on_c, 5, 69, 79
3, 181440, Note_on_c, 4, 74, 95
3, 181440, Note_off_c, 5, 69, 79
3, 181440, Note_on_c, 5, 71, 95
3, 181920, Note_off_c, 4, 74, 95
3, 181920, Note_off_c, 5, 71, 95
3, 181920, Note_on_c, 4, 74, 95
3, 181920, Note_on_c, 4, 69, 95
3, 182160, Note_off_c, 4, 74, 95
3, 182160, Note_off_c, 4, 69, 95
3, 182160, Pitch_bend_c, 5, 8192
3, 182160, Note_on_c, 5, 67, 95
3, 182170, Pitch_bend_c, 5, 8320
3, 182180, Pitch_bend_c, 5, 8448
3, 182190, Pitch_bend_c, 5, 8576
3, 182200, Pitch_bend_c, 5, 8704
3, 182210, Pitch_bend_c, 5, 8832
3, 182220, Pitch_bend_c, 5, 8960
3, 182230, Pitch_bend_c, 5, 9088
3, 182240, Pitch_bend_c, 5, 9216
3, 182250, Pitch_bend_c, 5, 9344
3, 182260, Pitch_bend_c, 5, 9472
3, 182270, Pitch_bend_c, 5, 9600
3, 182280, Pitch_bend_c, 5, 9600
3, 182400, Pitch_bend_c, 5, 9600
3, 182400, Pitch_bend_c, 5, 8192
3, 182400, Note_off_c, 5, 67, 95
3, 182640, Pitch_bend_c, 5, 8192
3, 182640, Note_on_c, 5, 67, 95
3, 182650, Pitch_bend_c, 5, 8320
3, 182660, Pitch_bend_c, 5, 8448
3, 182670, Pitch_bend_c, 5, 8576
3, 182680, Pitch_bend_c, 5, 8704
3, 182690, Pitch_bend_c, 5, 8832
3, 182700, Pitch_bend_c, 5, 8960
3, 182710, Pitch_bend_c, 5, 9088
3, 182720, Pitch_bend_c, 5, 9216
3, 182730, Pitch_bend_c, 5, 9344
3, 182740, Pitch_bend_c, 5, 9472
3, 182750, Pitch_bend_c, 5, 9600
3, 182760, Pitch_bend_c, 5, 9600
3, 182880, Pitch_bend_c, 5, 9600
3, 182880, Pitch_bend_c, 5, 8192
3, 182880, Note_off_c, 5, 67, 95
3, 182880, Note_on_c, 4, 67, 95
3, 183000, Note_off_c, 4, 67, 95
3, 183000, Note_on_c, 4, 65, 70
3, 183120, Note_off_c, 4, 65, 70
3, 183120, Note_on_c, 4, 63, 95
3, 183360, Note_off_c, 4, 63, 95
3, 184260, Note_on_c, 5, 56, 95
3, 184320, Note_off_c, 5, 56, 95
3, 184320, Note_on_c, 5, 57, 95
3, 184480, Pitch_bend_c, 5, 8192
3, 184640, Pitch_bend_c, 5, 8320
3, 184800, Pitch_bend_c, 5, 8192
3, 184800, Pitch_bend_c, 5, 8320
3, 184800, Pitch_bend_c, 5, 8192
3, 184800, Note_off_c, 5, 57, 95
3, 184800, Note_on_c, 5, 67, 95
3, 184800, Note_on_c, 5, 61, 95
3, 184960, Pitch_bend_c, 5, 8192
3, 184960, Pitch_bend_c, 5, 8192
3, 185040, Pitch_bend_c, 5, 8320
3, 185040, Pitch_bend_c, 5, 8192
3, 185040, Note_off_c, 5, 67, 95
3, 185040, Pitch_bend_c, 5, 8320
3, 185040, Pitch_bend_c, 5, 8192
3, 185040, Note_off_c, 5, 61, 95
3, 185040, Note_on_c, 5, 71, 95
3, 185200, Pitch_bend_c, 5, 8192
3, 185280, Pitch_bend_c, 5, 8320
3, 185280, Pitch_bend_c, 5, 8192
3, 185280, Note_off_c, 5, 71, 95
3, 185280, Note_on_c, 5, 78, 95
3, 185440, Pitch_bend_c, 5, 8192
3, 185520, Pitch_bend_c, 5, 8320
3, 185520, Pitch_bend_c, 5, 8192
3, 185520, Note_off_c, 5, 78, 95
3, 185520, Note_on_c, 4, 76, 95
3, 185760, Note_off_c, 4, 76, 95
3, 185760, Note_on_c, 4, 67, 95
3, 186000, Note_off_c, 4, 67, 95
3, 186000, Note_on_c, 4, 57, 95
3, 186240, Note_off_c, 4, 57, 95
3, 186240, Note_on_c, 5, 56, 70
3, 186400, Pitch_bend_c, 5, 8192
3, 186480, Pitch_bend_c, 5, 8320
3, 186480, Pitch_bend_c, 5, 8192
3, 186480, Note_off_c, 5, 56, 70
3, 186480, Note_on_c, 5, 60, 95
3, 186640, Pitch_bend_c, 5, 8192
3, 186720, Pitch_bend_c, 5, 8320
3, 186720, Pitch_bend_c, 5, 8192
3, 186720, Note_off_c, 5, 60, 95
3, 186720, Note_on_c, 5, 77, 95
3, 186880, Pitch_bend_c, 5, 8192
3, 186960, Pitch_bend_c, 5, 8320
3, 186960, Pitch_bend_c, 5, 8192
3, 186960, Note_off_c, 5, 77, 95
3, 186960, Note_on_c, 5, 75, 95
3, 187120, Pitch_bend_c, 5, 8192
3, 187280, Pitch_bend_c, 5, 8320
3, 187440, Pitch_bend_c, 5, 8192
3, 187440, Pitch_bend_c, 5, 8320
3, 187440, Pitch_bend_c, 5, 8192
3, 187440, Note_off_c, 5, 75, 95
3, 187440, Note_on_c, 4, 77, 95
3, 187440, Note_on_c, 4, 72, 95
3, 187680, Note_off_c, 4, 77, 95
3, 187680, Note_off_c, 4, 72, 95
3, 187680, Note_on_c, 4, 75, 95
3, 188160, Note_off_c, 4, 75, 95
3, 188160, Note_on_c, 4, 55, 95
3, 188640, Note_off_c, 4, 55, 95
3, 188640, Note_on_c, 5, 71, 95
3, 188640, Note_on_c, 5, 67, 95
3, 188800, Pitch_bend_c, 5, 8192
3, 188800, Pitch_bend_c, 5, 8192
3, 188960, Pitch_bend_c, 5, 8320
3, 188960, Pitch_bend_c, 5, 8320
3, 189120, Pitch_bend_c, 5, 8192
3, 189120, Pitch_bend_c, 5, 8320
3, 189120, Pitch_bend_c, 5, 8192
3, 189120, Note_off_c, 5, 71, 95
3, 189120, Pitch_bend_c, 5, 8192
3, 189120, Pitch_bend_c, 5, 8320
3, 189120, Pitch_bend_c, 5, 8192
3, 189120, Note_off_c, 5, 67, 95
3, 189120, Note_on_c, 4, 71, 95
3, 189120, Note_on_c, 4, 67, 95
3, 189360, Note_off_c, 4, 71, 95
3, 189360, Note_off_c, 4, 67, 95
3, 189360, Note_on_c, 4, 59, 95
3, 189600, Note_off_c, 4, 59, 95
3, 189600, Note_on_c, 5, 67, 95
3, 189760, Pitch_bend_c, 5, 8192
3, 189920, Pitch_bend_c, 5, 8320
3, 190020, Note_on_c, 5, 58, 95
3, 190080, Pitch_bend_c, 5, 8192
3, 190080, Pitch_bend_c, 5, 8320
3, 190080, Pitch_bend_c, 5, 8192
3, 190080, Note_off_c, 5, 67, 95
3, 190080, Note_off_c, 5, 58, 95
3, 190080, Note_on_c, 5, 59, 95
3, 190240, Pitch_bend_c, 5, 8192
3, 190400, Pitch_bend_c, 5, 8320
3, 190560, Pitch_bend_c, 5, 8192
3, 190560, Pitch_bend_c, 5, 8320
3, 190560, Pitch_bend_c, 5, 8192
3, 190560, Note_off_c, 5, 59, 95
3, 190560, Note_on_c, 4, 67, 95
3, 190800, Note_off_c, 4, 67, 95
3, 190800, Note_on_c, 4, 59, 95
3, 190980, Note_on_c, 5, 62, 95
3, 191040, Note_off_c, 4, 59, 95
3, 191040, Note_on_c, 4, 67, 95
3, 191040, Note_off_c, 5, 62, 95
3, 191040, Note_on_c, 5, 64, 95
3, 191520, Note_off_c, 4, 67, 95
3, 191520, Note_off_c, 5, 64, 95
3, 191520, Note_on_c, 4, 71, 95
3, 191520, Note_on_c, 4, 67, 95
3, 192000, Note_off_c, 4, 71, 95
3, 192000, Note_off_c, 4, 67, 95
3, 193440, Pitch_bend_c, 5, 8192
3, 193440, Note_on_c, 5, 72, 95
3, 193450, Pitch_bend_c, 5, 8320
3, 193460, Pitch_bend_c, 5, 8448
3, 193470, Pitch_bend_c, 5, 8576
3, 193480, Pitch_bend_c, 5, 8704
3, 193490, Pitch_bend_c, 5, 8832
3, 193500, Pitch_bend_c, 5, 8960
3, 193510, Pitch_bend_c, 5, 9088
3, 193520, Pitch_bend_c, 5, 9216
3, 193530, Pitch_bend_c, 5, 9344
3, 193540, Pitch_bend_c, 5, 9472
3, 193550, Pitch_bend_c, 5, 9600
3, 193560, Pitch_bend_c, 5, 9600
3, 193680, Pitch_bend_c, 5, 9600
3, 193680, Pitch_bend_c, 5, 8192
3, 193680, Note_off_c, 5, 72, 95
3, 193680, Pitch_bend_c, 5, 8192
3, 193680, Note_on_c, 5, 72, 95
3, 193680, Pitch_bend_c, 5, 8192
3, 193680, Note_on_c, 5, 67, 95
3, 193682, Pitch_bend_c, 5, 8320
3, 193682, Pitch_bend_c, 5, 8320
3, 193684, Pitch_bend_c, 5, 8448
3, 193684, Pitch_bend_c, 5, 8448
3, 193686, Pitch_bend_c, 5, 8576
3, 193686, Pitch_bend_c, 5, 8576
3, 193688, Pitch_bend_c, 5, 8704
3, 193688, Pitch_bend_c, 5, 8704
3, 193690, Pitch_bend_c, 5, 8832
3, 193690, Pitch_bend_c, 5, 8832
3, 193692, Pitch_bend_c, 5, 8960
3, 193692, Pitch_bend_c, 5, 8960
3, 193694, Pitch_bend_c, 5, 9088
3, 193694, Pitch_bend_c, 5, 9088
3, 193696, Pitch_bend_c, 5, 9216
3, 193696, Pitch_bend_c, 5, 9216
3, 193698, Pitch_bend_c, 5, 9344
3, 193698, Pitch_bend_c, 5, 9344
3, 193700, Pitch_bend_c, 5, 9472
3, 193700, Pitch_bend_c, 5, 9472
3, 193702, Pitch_bend_c, 5, 9600
3, 193702, Pitch_bend_c, 5, 9600
3, 193710, Pitch_bend_c, 5, 9600
3, 193710, Pitch_bend_c, 5, 9600
3, 193740, Pitch_bend_c, 5, 9600
3, 193740, Pitch_bend_c, 5, 9600
3, 193742, Pitch_bend_c, 5, 9472
3, 193742, Pitch_bend_c, 5, 9472
3, 193744, Pitch_bend_c, 5, 9344
3, 193744, Pitch_bend_c, 5, 9344
3, 193746, Pitch_bend_c, 5, 9216
3, 193746, Pitch_bend_c, 5, 9216
3, 193748, Pitch_bend_c, 5, 9088
3, 193748, Pitch_bend_c, 5, 9088
3, 193750, Pitch_bend_c, 5, 8960
3, 193750, Pitch_bend_c, 5, 8960
3, 193752, Pitch_bend_c, 5, 8832
3, 193752, Pitch_bend_c, 5, 8832
3, 193754, Pitch_bend_c, 5, 8704
3, 193754, Pitch_bend_c, 5, 8704
3, 193756, Pitch_bend_c, 5, 8576
3, 193756, Pitch_bend_c, 5, 8576
3, 193758, Pitch_bend_c, 5, 8448
3, 193758, Pitch_bend_c, 5, 8448
3, 193760, Pitch_bend_c, 5, 8320
3, 193760, Pitch_bend_c, 5, 8320
3, 193762, Pitch_bend_c, 5, 8192
3, 193762, Pitch_bend_c, 5, 8192
3, 193770, Pitch_bend_c, 5, 8192
3, 193770, Pitch_bend_c, 5, 8192
3, 193800, Pitch_bend_c, 5, 8192
3, 193800, Pitch_bend_c, 5, 8192
3, 193800, Note_off_c, 5, 72, 95
3, 193800, Pitch_bend_c, 5, 8192
3, 193800, Pitch_bend_c, 5, 8192
3, 193800, Note_off_c, 5, 67, 95
3, 193800, Note_on_c, 4, 72, 63
3, 193800, Note_on_c, 4, 67, 63
3, 193920, Note_off_c, 4, 72, 63
3, 193920, Note_off_c, 4, 67, 63
3, 193920, Note_on_c, 4, 65, 95
3, 194240, Note_off_c, 4, 65, 95
3, 194240, Pitch_bend_c, 5, 8192
3, 194240, Note_on_c, 5, 67, 95
3, 194254, Pitch_bend_c, 5, 8320
3, 194268, Pitch_bend_c, 5, 8448
3, 194282, Pitch_bend_c, 5, 8576
3, 194296, Pitch_bend_c, 5, 8704
3, 194310, Pitch_bend_c, 5, 8832
3, 194324, Pitch_bend_c, 5, 8960
3, 194338, Pitch_bend_c, 5, 9088
3, 194352, Pitch_bend_c, 5, 9216
3, 194366, Pitch_bend_c, 5, 9344
3, 194380, Pitch_bend_c, 5, 9472
3, 194394, Pitch_bend_c, 5, 9600
3, 194400, Pitch_bend_c, 5, 9600
3, 194560, Pitch_bend_c, 5, 9600
3, 194560, Pitch_bend_c, 5, 8192
3, 194560, Note_off_c, 5, 67, 95
3, 194560, Note_on_c, 4, 67, 95
3, 194880, Note_off_c, 4, 67, 95
3, 194880, Note_on_c, 5, 65, 95
3, 195040, Pitch_bend_c, 5, 8192
3, 195200, Pitch_bend_c, 5, 8320
3, 195200, Pitch_bend_c, 5, 8192
3, 195200, Note_off_c, 5, 65, 95
3, 195200, Note_on_c, 4, 62, 95
3, 195360, Note_off_c, 4, 62, 95
3, 195360, Note_on_c, 4, 60, 70
3, 195520, Note_off_c, 4, 60, 70
3, 195520, Note_on_c, 4, 57, 95
3, 195680, Note_off_c, 4, 57, 95
3, 195680, Note_on_c, 4, 55, 70
3, 195840, Note_off_c, 4, 55, 70
3, 197040, Pitch_bend_c, 5, 8192
3, 197040, Note_on_c, 5, 77, 95
3, 197220, Pitch_bend_c, 5, 8320
3, 197400, Pitch_bend_c, 5, 8448
3, 197400, Pitch_bend_c, 5, 8448
3, 197760, Pitch_bend_c, 5, 8448
3, 197760, Pitch_bend_c, 5, 8192
3, 197760, Note_off_c, 5, 77, 95
3, 197760, Note_on_c, 5, 74, 95
3, 197920, Pitch_bend_c, 5, 8192
3, 197920, Pitch_bend_c, 5, 8320
3, 197920, Pitch_bend_c, 5, 8192
3, 197920, Note_off_c, 5, 74, 95
3, 197920, Note_on_c, 4, 72, 95
3, 198080, Note_off_c, 4, 72, 95
3, 198080, Note_on_c, 4, 69, 70
3, 198240, Note_off_c, 4, 69, 70
3, 198240, Pitch_bend_c, 5, 8192
3, 198240, Note_on_c, 5, 67, 95
3, 198247, Pitch_bend_c, 5, 8320
3, 198254, Pitch_bend_c, 5, 8448
3, 198261, Pitch_bend_c, 5, 8576
3, 198268, Pitch_bend_c, 5, 8704
3, 198275, Pitch_bend_c, 5, 8832
3, 198282, Pitch_bend_c, 5, 8960
3, 198289, Pitch_bend_c, 5, 9088
3, 198296, Pitch_bend_c, 5, 9216
3, 198303, Pitch_bend_c, 5, 9344
3, 198310, Pitch_bend_c, 5, 9472
3, 198317, Pitch_bend_c, 5, 9600
3, 198320, Pitch_bend_c, 5, 9600
3, 198400, Pitch_bend_c, 5, 9600
3, 198400, Pitch_bend_c, 5, 8192
3, 198400, Note_off_c, 5, 67, 95
3, 198400, Note_on_c, 4, 67, 95
3, 198560, Note_off_c, 4, 67, 95
3, 198560, Note_on_c, 4, 65, 95
3, 198660, Note_on_c, 5, 62, 95
3, 198720, Note_off_c, 4, 65, 95
3, 198720, Note_on_c, 4, 67, 95
3, 198720, Note_off_c, 5, 62, 95
3, 198720, Note_on_c, 5, 49, 95
3, 198880, Note_off_c, 4, 67, 95
3, 198880, Note_off_c, 5, 49, 95
3, 198880, Note_on_c, 4, 62, 95
3, 199040, Note_off_c, 4, 62, 95
3, 199040, Note_on_c, 4, 65, 95
3, 199200, Note_off_c, 4, 65, 95
3, 199200, Note_on_c, 4, 62, 95
3, 199300, Note_on_c, 5, 60, 95
3, 199360, Note_off_c, 4, 62, 95
3, 199360, Note_off_c, 5, 60, 95
3, 199360, Note_on_c, 5, 49, 70
3, 199360, Note_on_c, 4, 57, 95
3, 199520, Note_off_c, 5, 49, 70
3, 199520, Note_off_c, 4, 57, 95
3, 199520, Note_on_c, 4, 55, 70
3, 199680, Note_off_c, 4, 55, 70
3, 201120, Note_on_c, 4, 72, 95
3, 201120, Pitch_bend_c, 5, 8192
3, 201120, Note_on_c, 5, 67, 95
3, 201294, Pitch_bend_c, 5, 8320
3, 201468, Pitch_bend_c, 5, 8448
3, 201642, Pitch_bend_c, 5, 8576
3, 201816, Pitch_bend_c, 5, 8704
3, 201990, Pitch_bend_c, 5, 8832
3, 202164, Pitch_bend_c, 5, 8960
3, 202338, Pitch_bend_c, 5, 9088
3, 202512, Pitch_bend_c, 5, 9216
3, 202686, Pitch_bend_c, 5, 9344
3, 202860, Pitch_bend_c, 5, 9472
3, 203034, Pitch_bend_c, 5, 9600
3, 203040, Pitch_bend_c, 5, 9600
3, 204960, Note_off_c, 4, 72, 95
3, 204960, Pitch_bend_c, 5, 9600
3, 204960, Pitch_bend_c, 5, 8192
3, 204960, Note_off_c, 5, 67, 95
3, 204960, Note_on_c, 4, 72, 95
3, 204960, Pitch_bend_c, 5, 8192
3, 204960, Note_on_c, 5, 67, 95
3, 204981, Pitch_bend_c, 5, 8320
3, 205002, Pitch_bend_c, 5, 8448
3, 205023, Pitch_bend_c, 5, 8576
3, 205044, Pitch_bend_c, 5, 8704
3, 205065, Pitch_bend_c, 5, 8832
3, 205086, Pitch_bend_c, 5, 8960
3, 205107, Pitch_bend_c, 5, 9088
3, 205128, Pitch_bend_c, 5, 9216
3, 205149, Pitch_bend_c, 5, 9344
3, 205170, Pitch_bend_c, 5, 9472
3, 205191, Pitch_bend_c, 5, 9600
3, 205200, Pitch_bend_c, 5, 9600
3, 205440, Note_off_c, 4, 72, 95
3, 205440, Pitch_bend_c, 5, 9600
3, 205440, Pitch_bend_c, 5, 8192
3, 205440, Note_off_c, 5, 67, 95
3, 205440, Note_on_c, 4, 72, 95
3, 205440, Pitch_bend_c, 5, 8192
3, 205440, Note_on_c, 5, 67, 95
3, 205461, Pitch_bend_c, 5, 8320
3, 205482, Pitch_bend_c, 5, 8448
3, 205503, Pitch_bend_c, 5, 8576
3, 205524, Pitch_bend_c, 5, 8704
3, 205545, Pitch_bend_c, 5, 8832
3, 205566, Pitch_bend_c, 5, 8960
3, 205587, Pitch_bend_c, 5, 9088
3, 205608, Pitch_bend_c, 5, 9216
3, 205629, Pitch_bend_c, 5, 9344
3, 205650, Pitch_bend_c, 5, 9472
3, 205671, Pitch_bend_c, 5, 9600
3, 205680, Pitch_bend_c, 5, 9600
3, 205920, Note_off_c, 4, 72, 95
3, 205920, Pitch_bend_c, 5, 9600
3, 205920, Pitch_bend_c, 5, 8192
3, 205920, Note_off_c, 5, 67, 95
3, 205920, Note_on_c, 4, 65, 95
3, 206400, Note_off_c, 4, 65, 95
3, 206400, Note_on_c, 4, 62, 95
3, 206880, Note_off_c, 4, 62, 95
3, 206880, Note_on_c, 4, 60, 95
3, 207300, Note_on_c, 5, 68, 95
3, 207360, Note_off_c, 4, 60, 95
3, 207360, Note_off_c, 5, 68, 95
3, 207360, Note_on_c, 5, 69, 63
3, 207840, Note_off_c, 5, 69, 63
3, 207840, Note_on_c, 5, 78, 95
3, 208000, Pitch_bend_c, 5, 8192
3, 208160, Pitch_bend_c, 5, 8320
3, 208320, Pitch_bend_c, 5, 8192
3, 208480, Pitch_bend_c, 5, 8320
3, 208640, Pitch_bend_c, 5, 8192
3, 208800, Pitch_bend_c, 5, 8320
3, 208960, Pitch_bend_c, 5, 8192
3, 209120, Pitch_bend_c, 5, 8320
3, 209220, Note_on_c, 5, 70, 95
3, 209280, Pitch_bend_c, 5, 8192
3, 209280, Pitch_bend_c, 5, 8320
3, 209280, Pitch_bend_c, 5, 8192
3, 209280, Note_off_c, 5, 78, 95
3, 209280, Note_off_c, 5, 70, 95
3, 209280, Note_on_c, 5, 71, 95
3, 209760, Note_off_c, 5, 71, 95
3, 209760, Note_on_c, 5, 79, 95
3, 209920, Pitch_bend_c, 5, 8192
3, 210000, Pitch_bend_c, 5, 8320
3, 210000, Pitch_bend_c, 5, 8192
3, 210000, Note_off_c, 5, 79, 95
3, 210000, Note_on_c, 4, 71, 95
3, 210240, Note_off_c, 4, 71, 95
3, 210240, Note_on_c, 5, 79, 95
3, 210400, Pitch_bend_c, 5, 8192
3, 210480, Pitch_bend_c, 5, 8320
3, 210480, Pitch_bend_c, 5, 8192
3, 210480, Note_off_c, 5, 79, 95
3, 210480, Note_on_c, 4, 71, 63
3, 211140, Note_on_c, 5, 72, 95
3, 211200, Note_off_c, 4, 71, 63
3, 211200, Note_off_c, 5, 72, 95
3, 211200, Note_on_c, 5, 73, 95
3, 211360, Pitch_bend_c, 5, 8192
3, 211520, Pitch_bend_c, 5, 8320
3, 211680, Pitch_bend_c, 5, 8192
3, 211840, Pitch_bend_c, 5, 8320
3, 212000, Pitch_bend_c, 5, 8192
3, 212160, Pitch_bend_c, 5, 8320
3, 212160, Pitch_bend_c, 5, 8192
3, 212160, Note_off_c, 5, 73, 95
3, 212160, Note_on_c, 5, 81, 95
3, 212320, Pitch_bend_c, 5, 8192
3, 212480, Pitch_bend_c, 5, 8320
3, 212640, Pitch_bend_c, 5, 8192
3, 212640, Pitch_bend_c, 5, 8320
3, 212640, Pitch_bend_c, 5, 8192
3, 212640, Note_off_c, 5, 81, 95
3, 212640, Note_on_c, 4, 73, 95
3, 213120, Note_off_c, 4, 73, 95
3, 213120, Note_on_c, 5, 71, 95
3, 213280, Pitch_bend_c, 5, 8192
3, 213440, Pitch_bend_c, 5, 8320
3, 213600, Pitch_bend_c, 5, 8192
3, 213600, Pitch_bend_c, 5, 8320
3, 213600, Pitch_bend_c, 5, 8192
3, 213600, Note_off_c, 5, 71, 95
3, 213600, Note_on_c, 5, 79, 95
3, 213760, Pitch_bend_c, 5, 8192
3, 213920, Pitch_bend_c, 5, 8320
3, 214080, Pitch_bend_c, 5, 8192
3, 214080, Pitch_bend_c, 5, 8320
3, 214080, Pitch_bend_c, 5, 8192
3, 214080, Note_off_c, 5, 79, 95
3, 214500, Note_on_c, 5, 70, 95
3, 214560, Note_off_c, 5, 70, 95
3, 214560, Note_on_c, 5, 71, 95
3, 215040, Note_off_c, 5, 71, 95
3, 215040, Note_on_c, 5, 74, 95
3, 215200, Pitch_bend_c, 5, 8192
3, 215360, Pitch_bend_c, 5, 8320
3, 215520, Pitch_bend_c, 5, 8192
3, 215680, Pitch_bend_c, 5, 8320
3, 215840, Pitch_bend_c, 5, 8192
3, 216000, Pitch_bend_c, 5, 8320
3, 216000, Pitch_bend_c, 5, 8192
3, 216000, Note_off_c, 5, 74, 95
3, 216000, Note_on_c, 5, 71, 95
3, 216480, Note_off_c, 5, 71, 95
3, 217380, Note_on_c, 5, 67, 95
3, 217440, Note_off_c, 5, 67, 95
3, 217440, Note_on_c, 5, 68, 95
3, 217600, Pitch_bend_c, 5, 8192
3, 217760, Pitch_bend_c, 5, 8320
3, 217920, Pitch_bend_c, 5, 8192
3, 217920, Pitch_bend_c, 5, 8320
3, 217920, Pitch_bend_c, 5, 8192
3, 217920, Note_off_c, 5, 68, 95
3, 217920, Note_on_c, 5, 76, 95
3, 218080, Pitch_bend_c, 5, 8192
3, 218240, Pitch_bend_c, 5, 8320
3, 218400, Pitch_bend_c, 5, 8192
3, 218400, Pitch_bend_c, 5, 8320
3, 218400, Pitch_bend_c, 5, 8192
3, 218400, Note_off_c, 5, 76, 95
3, 218400, Note_on_c, 4, 76, 95
3, 218640, Note_off_c, 4, 76, 95
3, 218640, Note_on_c, 5, 72, 95
3, 218760, Pitch_bend_c, 5, 8448
3, 218880, Pitch_bend_c, 5, 8832
3, 218880, Pitch_bend_c, 5, 8192
3, 218880, Note_off_c, 5, 72, 95
3, 218880, Note_on_c, 4, 73, 95
3, 219120, Note_off_c, 4, 73, 95
3, 219120, Note_on_c, 4, 76, 95
3, 219360, Note_off_c, 4, 76, 95
3, 219360, Note_on_c, 4, 73, 95
3, 219600, Note_off_c, 4, 73, 95
3, 219600, Note_on_c, 4, 76, 95
3, 219840, Note_off_c, 4, 76, 95
3, 219840, Note_on_c, 4, 78, 95
3, 219960, Note_off_c, 4, 78, 95
3, 219960, Note_on_c, 4, 76, 70
3, 220080, Note_off_c, 4, 76, 70
3, 220080, Note_on_c, 4, 73, 95
3, 220320, Note_off_c, 4, 73, 95
3, 220320, Note_on_c, 4, 76, 95
3, 220560, Note_off_c, 4, 76, 95
3, 220560, Note_on_c, 4, 74, 95
3, 220800, Note_off_c, 4, 74, 95
3, 220800, Pitch_bend_c, 5, 8192
3, 220800, Note_on_c, 5, 77, 95
3, 220920, Pitch_bend_c, 5, 8320
3, 221040, Pitch_bend_c, 5, 8448
3, 221040, Pitch_bend_c, 5, 8448
3, 221280, Pitch_bend_c, 5, 8448
3, 221280, Pitch_bend_c, 5, 8192
3, 221280, Note_off_c, 5, 77, 95
3, 221280, Note_on_c, 4, 74, 95
3, 221760, Note_off_c, 4, 74, 95
3, 221760, Note_on_c, 4, 72, 95
3, 222000, Note_off_c, 4, 72, 95
3, 222000, Note_on_c, 4, 69, 95
3, 222240, Note_off_c, 4, 69, 95
3, 222240, Pitch_bend_c, 5, 8192
3, 222240, Note_on_c, 5, 67, 95
3, 222250, Pitch_bend_c, 5, 8320
3, 222260, Pitch_bend_c, 5, 8448
3, 222270, Pitch_bend_c, 5, 8576
3, 222280, Pitch_bend_c, 5, 8704
3, 222290, Pitch_bend_c, 5, 8832
3, 222300, Pitch_bend_c, 5, 8960
3, 222310, Pitch_bend_c, 5, 9088
3, 222320, Pitch_bend_c, 5, 9216
3, 222330, Pitch_bend_c, 5, 9344
3, 222340, Pitch_bend_c, 5, 9472
3, 222350, Pitch_bend_c, 5, 9600
3, 222360, Pitch_bend_c, 5, 9600
3, 222480, Pitch_bend_c, 5, 9600
3, 222480, Pitch_bend_c, 5, 8192
3, 222480, Note_off_c, 5, 67, 95
3, 222480, Note_on_c, 4, 65, 95
3, 222720, Note_off_c, 4, 65, 95
3, 222720, Note_on_c, 4, 62, 95
3, 223200, Note_off_c, 4, 62, 95
3, 223200, Note_on_c, 5, 60, 95
3, 223360, Pitch_bend_c, 5, 8192
3, 223520, Pitch_bend_c, 5, 8320
3, 223680, Pitch_bend_c, 5, 8192
3, 223680, Pitch_bend_c, 5, 8320
3, 223680, Pitch_bend_c, 5, 8192
3, 223680, Note_off_c, 5, 60, 95
3, 223680, Note_on_c, 4, 67, 63
3, 224160, Note_off_c, 4, 67, 63
3, 224160, Pitch_bend_c, 5, 8192
3, 224160, Note_on_c, 5, 79, 95
3, 224203, Pitch_bend_c, 5, 8320
3, 224246, Pitch_bend_c, 5, 8448
3, 224289, Pitch_bend_c, 5, 8576
3, 224332, Pitch_bend_c, 5, 8704
3, 224375, Pitch_bend_c, 5, 8832
3, 224418, Pitch_bend_c, 5, 8960
3, 224461, Pitch_bend_c, 5, 9088
3, 224504, Pitch_bend_c, 5, 9216
3, 224547, Pitch_bend_c, 5, 9344
3, 224590, Pitch_bend_c, 5, 9472
3, 224633, Pitch_bend_c, 5, 9600
3, 224640, Pitch_bend_c, 5, 9600
3, 225120, Pitch_bend_c, 5, 9600
3, 225120, Pitch_bend_c, 5, 8192
3, 225120, Note_off_c, 5, 79, 95
3, 225120, Note_on_c, 5, 77, 95
3, 225280, Pitch_bend_c, 5, 8192
3, 225440, Pitch_bend_c, 5, 8320
3, 225600, Pitch_bend_c, 5, 8192
3, 225600, Pitch_bend_c, 5, 8320
3, 225600, Pitch_bend_c, 5, 8192
3, 225600, Note_off_c, 5, 77, 95
3, 225600, Note_on_c, 5, 74, 95
3, 226080, Note_off_c, 5, 74, 95
3, 227040, Note_on_c, 4, 57, 95
3, 227280, Note_off_c, 4, 57, 95
3, 227280, Note_on_c, 4, 61, 95
3, 227520, Note_off_c, 4, 61, 95
3, 227520, Note_on_c, 4, 67, 95
3, 227760, Note_off_c, 4, 67, 95
3, 227760, Note_on_c, 4, 78, 95
3, 228000, Note_off_c, 4, 78, 95
3, 228000, Note_on_c, 5, 76, 95
3, 228160, Pitch_bend_c, 5, 8192
3, 228320, Pitch_bend_c, 5, 8320
3, 228480, Pitch_bend_c, 5, 8192
3, 228480, Pitch_bend_c, 5, 8320
3, 228480, Pitch_bend_c, 5, 8192
3, 228480, Note_off_c, 5, 76, 95
3, 228480, Note_on_c, 4, 56, 95
3, 228720, Note_off_c, 4, 56, 95
3, 228720, Note_on_c, 4, 60, 95
3, 228960, Note_off_c, 4, 60, 95
3, 228960, Note_on_c, 4, 70, 95
3, 229200, Note_off_c, 4, 70, 95
3, 229200, Note_on_c, 4, 66, 95
3, 229440, Note_off_c, 4, 66, 95
3, 229440, Note_on_c, 4, 77, 95
3, 229440, Note_on_c, 4, 72, 95
3, 229680, Note_off_c, 4, 77, 95
3, 229680, Note_off_c, 4, 72, 95
3, 229680, Note_on_c, 4, 75, 95
3, 229680, Note_on_c, 4, 70, 95
3, 229920, Note_off_c, 4, 75, 95
3, 229920, Note_off_c, 4, 70, 95
3, 229920, Note_on_c, 4, 66, 63
3, 230400, Note_off_c, 4, 66, 63
3, 230400, Note_on_c, 4, 55, 95
3, 230880, Note_off_c, 4, 55, 95
3, 230880, Note_on_c, 4, 65, 95
3, 230880, Note_on_c, 4, 59, 95
3, 231360, Note_off_c, 4, 65, 95
3, 231360, Note_off_c, 4, 59, 95
3, 231360, Note_on_c, 4, 76, 95
3, 231360, Note_on_c, 4, 69, 95
3, 231840, Note_off_c, 4, 76, 95
3, 231840, Note_off_c, 4, 69, 95
3, 231840, Note_on_c, 4, 74, 95
3, 231840, Note_on_c, 4, 69, 95
3, 232080, Note_off_c, 4, 74, 95
3, 232080, Note_off_c, 4, 69, 95
3, 232080, Note_on_c, 4, 65, 95
3, 232320, Note_off_c, 4, 65, 95
3, 232320, Note_on_c, 4, 74, 95
3, 232320, Note_on_c, 4, 69, 95
3, 232440, Note_off_c, 4, 74, 95
3, 232440, Note_off_c, 4, 69, 95
3, 232440, Note_on_c, 4, 76, 70
3, 232440, Note_on_c, 4, 71, 70
3, 232800, Note_off_c, 4, 76, 70
3, 232800, Note_off_c, 4, 71, 70
3, 232800, Note_on_c, 4, 74, 95
3, 233040, Note_off_c, 4, 74, 95
3, 233040, Note_on_c, 4, 69, 95
3, 233280, Note_off_c, 4, 69, 95
3, 233280, Note_on_c, 4, 59, 95
3, 233520, Note_off_c, 4, 59, 95
3, 233520, Note_on_c, 4, 76, 95
3, 233760, Note_off_c, 4, 76, 95
3, 233760, Note_on_c, 4, 74, 95
3, 233760, Note_on_c, 4, 65, 95
3, 234000, Note_off_c, 4, 74, 95
3, 234000, Note_off_c, 4, 65, 95
3, 234000, Note_on_c, 4, 65, 95
3, 234240, Note_off_c, 4, 65, 95
3, 234240, Note_on_c, 4, 64, 95
3, 234720, Note_off_c, 4, 64, 95
3, 234720, Note_on_c, 4, 74, 95
3, 234960, Note_off_c, 4, 74, 95
3, 234960, Note_on_c, 4, 74, 95
3, 235200, Note_off_c, 4, 74, 95
3, 235200, Note_on_c, 4, 76, 95
3, 235440, Note_off_c, 4, 76, 95
3, 235440, Note_on_c, 4, 74, 95
3, 235680, Note_off_c, 4, 74, 95
3, 235680, Note_on_c, 4, 69, 95
3, 235920, Note_off_c, 4, 69, 95
3, 235920, Note_on_c, 4, 65, 95
3, 235920, Note_on_c, 4, 59, 95
3, 236160, Note_off_c, 4, 65, 95
3, 236160, Note_off_c, 4, 59, 95
3, 236160, Note_on_c, 4, 74, 95
3, 236160, Note_on_c, 4, 69, 95
3, 236160, Note_on_c, 4, 65, 95
3, 236400, Note_off_c, 4, 74, 95
3, 236400, Note_off_c, 4, 69, 95
3, 236400, Note_off_c, 4, 65, 95
3, 236400, Note_on_c, 4, 74, 95
3, 236400, Note_on_c, 4, 69, 95
3, 236400, Note_on_c, 4, 65, 95
3, 236640, Note_off_c, 4, 74, 95
3, 236640, Note_off_c, 4, 69, 95
3, 236640, Note_off_c, 4, 65, 95
3, 236640, Note_on_c, 4, 74, 95
3, 236640, Note_on_c, 4, 69, 95
3, 236640, Note_on_c, 4, 65, 95
3, 236880, Note_off_c, 4, 74, 95
3, 236880, Note_off_c, 4, 69, 95
3, 236880, Note_off_c, 4, 65, 95
3, 236880, Note_on_c, 4, 59, 95
3, 237120, Note_off_c, 4, 59, 95
3, 237360, Note_on_c, 4, 75, 95
3, 237360, Note_on_c, 4, 70, 95
3, 237360, Note_on_c, 4, 66, 95
3, 238080, Note_off_c, 4, 75, 95
3, 238080, Note_off_c, 4, 70, 95
3, 238080, Note_off_c, 4, 66, 95
3, 238080, Note_on_c, 4, 65, 95
3, 238080, Note_on_c, 4, 59, 95
3, 238560, Note_off_c, 4, 65, 95
3, 238560, Note_off_c, 4, 59, 95
3, 238560, Note_on_c, 4, 59, 95
3, 238800, Note_off_c, 4, 59, 95
3, 238800, Note_on_c, 4, 65, 95
3, 239040, Note_off_c, 4, 65, 95
3, 239040, Note_on_c, 4, 76, 95
3, 239040, Note_on_c, 4, 69, 95
3, 239280, Note_off_c, 4, 76, 95
3, 239280, Note_off_c, 4, 69, 95
3, 239280, Note_on_c, 4, 74, 95
3, 239280, Note_on_c, 4, 69, 95
3, 239520, Note_off_c, 4, 74, 95
3, 239520, Note_off_c, 4, 69, 95
3, 239520, Note_on_c, 4, 69, 95
3, 239760, Note_off_c, 4, 69, 95
3, 239760, Note_on_c, 4, 59, 95
3, 240000, Note_off_c, 4, 59, 95
3, 240000, Note_on_c, 4, 76, 95
3, 240000, Note_on_c, 4, 69, 95
3, 240240, Note_off_c, 4, 76, 95
3, 240240, Note_off_c, 4, 69, 95
3, 240240, Note_on_c, 4, 74, 95
3, 240240, Note_on_c, 4, 69, 95
3, 240480, Note_off_c, 4, 74, 95
3, 240480, Note_off_c, 4, 69, 95
3, 240480, Note_on_c, 4, 69, 95
3, 240720, Note_off_c, 4, 69, 95
3, 240720, Note_on_c, 4, 59, 95
3, 240960, Note_off_c, 4, 59, 95
3, 240960, Note_on_c, 4, 76, 95
3, 240960, Note_on_c, 4, 71, 95
3, 241200, Note_off_c, 4, 76, 95
3, 241200, Note_off_c, 4, 71, 95
3, 241200, Note_on_c, 4, 74, 95
3, 241200, Note_on_c, 4, 69, 95
3, 241920, Note_off_c, 4, 74, 95
3, 241920, Note_off_c, 4, 69, 95
3, 241920, Note_on_c, 4, 65, 95
3, 241920, Note_on_c, 4, 59, 95
3, 242400, Note_off_c, 4, 65, 95
3, 242400, Note_off_c, 4, 59, 95
3, 242400, Note_on_c, 4, 65, 95
3, 242400, Note_on_c, 4, 59, 95
3, 242640, Note_off_c, 4, 65, 95
3, 242640, Note_off_c, 4, 59, 95
3, 242640, Note_on_c, 4, 65, 95
3, 242640, Note_on_c, 4, 59, 95
3, 242880, Note_off_c, 4, 65, 95
3, 242880, Note_off_c, 4, 59, 95
3, 242880, Note_on_c, 4, 74, 95
3, 242880, Note_on_c, 4, 69, 95
3, 243120, Note_off_c, 4, 74, 95
3, 243120, Note_off_c, 4, 69, 95
3, 243120, Note_on_c, 4, 74, 95
3, 243120, Note_on_c, 4, 69, 95
3, 243360, Note_off_c, 4, 74, 95
3, 243360, Note_off_c, 4, 69, 95
3, 243360, Note_on_c, 4, 74, 95
3, 243360, Note_on_c, 4, 69, 95
3, 243600, Note_off_c, 4, 74, 95
3, 243600, Note_off_c, 4, 69, 95
3, 243600, Note_on_c, 4, 65, 95
3, 243840, Note_off_c, 4, 65, 95
3, 243840, Note_on_c, 4, 76, 95
3, 243840, Note_on_c, 4, 71, 95
3, 244080, Note_off_c, 4, 76, 95
3, 244080, Note_off_c, 4, 71, 95
3, 244080, Note_on_c, 4, 74, 95
3, 244080, Note_on_c, 4, 69, 95
3, 244320, Note_off_c, 4, 74, 95
3, 244320, Note_off_c, 4, 69, 95
3, 244320, Note_on_c, 4, 65, 95
3, 244320, Note_on_c, 4, 59, 95
3, 244560, Note_off_c, 4, 65, 95
3, 244560, Note_off_c, 4, 59, 95
3, 244560, Note_on_c, 4, 65, 95
3, 244560, Note_on_c, 4, 59, 95
3, 244800, Note_off_c, 4, 65, 95
3, 244800, Note_off_c, 4, 59, 95
3, 244800, Note_on_c, 4, 59, 95
3, 245040, Note_off_c, 4, 59, 95
3, 245040, Note_on_c, 4, 75, 95
3, 245040, Note_on_c, 4, 70, 95
3, 245040, Note_on_c, 4, 66, 95
3, 245760, Note_off_c, 4, 75, 95
3, 245760, Note_off_c, 4, 70, 95
3, 245760, Note_off_c, 4, 66, 95
3, 245760, Note_on_c, 4, 65, 95
3, 245760, Note_on_c, 4, 59, 95
3, 246240, Note_off_c, 4, 65, 95
3, 246240, Note_off_c, 4, 59, 95
3, 246240, Note_on_c, 4, 59, 95
3, 246480, Note_off_c, 4, 59, 95
3, 246480, Note_on_c, 4, 65, 95
3, 246720, Note_off_c, 4, 65, 95
3, 246720, Note_on_c, 4, 76, 95
3, 246960, Note_off_c, 4, 76, 95
3, 246960, Note_on_c, 4, 74, 95
3, 247200, Note_off_c, 4, 74, 95
3, 247200, Note_on_c, 4, 69, 95
3, 247440, Note_off_c, 4, 69, 95
3, 247440, Note_on_c, 4, 59, 95
3, 247680, Note_off_c, 4, 59, 95
3, 247680, Note_on_c, 4, 76, 111
3, 247680, Note_on_c, 4, 71, 111
3, 247920, Note_off_c, 4, 76, 111
3, 247920, Note_off_c, 4, 71, 111
3, 247920, Note_on_c, 4, 74, 95
3, 247920, Note_on_c, 4, 69, 95
3, 248400, Note_off_c, 4, 74, 95
3, 248400, Note_off_c, 4, 69, 95
3, 248400, Note_on_c, 4, 76, 111
3, 248400, Note_on_c, 4, 71, 111
3, 248640, Note_off_c, 4, 76, 111
3, 248640, Note_off_c, 4, 71, 111
3, 248640, Note_on_c, 4, 74, 95
3, 248640, Note_on_c, 4, 69, 95
3, 249120, Note_off_c, 4, 74, 95
3, 249120, Note_off_c, 4, 69, 95
3, 249120, Note_on_c, 4, 76, 111
3, 249120, Note_on_c, 4, 71, 111
3, 249360, Note_off_c, 4, 76, 111
3, 249360, Note_off_c, 4, 71, 111
3, 249360, Note_on_c, 4, 74, 95
3, 249360, Note_on_c, 4, 69, 95
3, 249840, Note_off_c, 4, 74, 95
3, 249840, Note_off_c, 4, 69, 95
3, 249840, Note_on_c, 4, 76, 111
3, 249840, Note_on_c, 4, 71, 111
3, 250080, Note_off_c, 4, 76, 111
3, 250080, Note_off_c, 4, 71, 111
3, 250080, Note_on_c, 4, 74, 95
3, 250080, Note_on_c, 4, 69, 95
3, 250560, Note_off_c, 4, 74, 95
3, 250560, Note_off_c, 4, 69, 95
3, 250560, Note_on_c, 4, 76, 111
3, 250560, Note_on_c, 4, 71, 111
3, 250800, Note_off_c, 4, 76, 111
3, 250800, Note_off_c, 4, 71, 111
3, 250800, Note_on_c, 4, 74, 95
3, 250800, Note_on_c, 4, 69, 95
3, 251280, Note_off_c, 4, 74, 95
3, 251280, Note_off_c, 4, 69, 95
3, 251280, Note_on_c, 4, 76, 111
3, 251280, Note_on_c, 4, 71, 111
3, 251520, Note_off_c, 4, 76, 111
3, 251520, Note_off_c, 4, 71, 111
3, 251520, Note_on_c, 4, 74, 95
3, 251520, Note_on_c, 4, 69, 95
3, 252000, Note_off_c, 4, 74, 95
3, 252000, Note_off_c, 4, 69, 95
3, 252000, Note_on_c, 4, 76, 95
3, 252000, Note_on_c, 4, 71, 95
3, 252240, Note_off_c, 4, 76, 95
3, 252240, Note_off_c, 4, 71, 95
3, 252240, Note_on_c, 4, 74, 95
3, 252240, Note_on_c, 4, 69, 95
3, 252480, Note_off_c, 4, 74, 95
3, 252480, Note_off_c, 4, 69, 95
3, 252480, Note_on_c, 5, 69, 95
3, 252640, Pitch_bend_c, 5, 8192
3, 252720, Pitch_bend_c, 5, 8320
3, 252720, Pitch_bend_c, 5, 8192
3, 252720, Note_off_c, 5, 69, 95
3, 252720, Note_on_c, 5, 74, 95
3, 252880, Pitch_bend_c, 5, 8192
3, 252960, Pitch_bend_c, 5, 8320
3, 252960, Pitch_bend_c, 5, 8192
3, 252960, Note_off_c, 5, 74, 95
3, 252960, Note_on_c, 5, 69, 95
3, 253120, Pitch_bend_c, 5, 8192
3, 253200, Pitch_bend_c, 5, 8320
3, 253200, Pitch_bend_c, 5, 8192
3, 253200, Note_off_c, 5, 69, 95
3, 253200, Note_on_c, 5, 74, 95
3, 253360, Pitch_bend_c, 5, 8192
3, 253380, Note_on_c, 5, 61, 95
3, 253440, Pitch_bend_c, 5, 8320
3, 253440, Pitch_bend_c, 5, 8192
3, 253440, Note_off_c, 5, 74, 95
3, 253440, Note_off_c, 5, 61, 95
3, 253440, Note_on_c, 5, 62, 95
3, 253560, Note_off_c, 5, 62, 95
3, 253560, Note_on_c, 4, 62, 95
3, 253680, Note_off_c, 4, 62, 95
3, 253680, Note_on_c, 4, 62, 95
3, 253800, Note_off_c, 4, 62, 95
3, 253800, Note_on_c, 4, 62, 95
3, 253920, Note_off_c, 4, 62, 95
3, 253920, Note_on_c, 4, 62, 95
3, 254040, Note_off_c, 4, 62, 95
3, 254040, Note_on_c, 4, 62, 95
3, 254160, Note_off_c, 4, 62, 95
3, 254160, Note_on_c, 4, 62, 95
3, 254280, Note_off_c, 4, 62, 95
3, 254280, Note_on_c, 4, 62, 95
3, 254400, Note_off_c, 4, 62, 95
3, 254400, Note_on_c, 5, 65, 95
3, 254560, Pitch_bend_c, 5, 8192
3, 254640, Pitch_bend_c, 5, 8320
3, 254640, Pitch_bend_c, 5, 8192
3, 254640, Note_off_c, 5, 65, 95
3, 254640, Note_on_c, 5, 65, 95
3, 254800, Pitch_bend_c, 5, 8192
3, 254880, Pitch_bend_c, 5, 8320
3, 254880, Pitch_bend_c, 5, 8192
3, 254880, Note_off_c, 5, 65, 95
3, 254880, Note_on_c, 5, 67, 95
3, 255040, Pitch_bend_c, 5, 8192
3, 255120, Pitch_bend_c, 5, 8320
3, 255120, Pitch_bend_c, 5, 8192
3, 255120, Note_off_c, 5, 67, 95
3, 255120, Note_on_c, 5, 67, 95
3, 255280, Pitch_bend_c, 5, 8192
3, 255360, Pitch_bend_c, 5, 8320
3, 255360, Pitch_bend_c, 5, 8192
3, 255360, Note_off_c, 5, 67, 95
3, 255360, Note_on_c, 4, 69, 95
3, 255480, Note_off_c, 4, 69, 95
3, 255480, Note_on_c, 4, 69, 95
3, 255600, Note_off_c, 4, 69, 95
3, 255600, Note_on_c, 4, 69, 95
3, 255720, Note_off_c, 4, 69, 95
3, 255720, Note_on_c, 4, 69, 95
3, 255840, Note_off_c, 4, 69, 95
3, 255840, Note_on_c, 4, 69, 95
3, 255960, Note_off_c, 4, 69, 95
3, 255960, Note_on_c, 4, 69, 95
3, 256080, Note_off_c, 4, 69, 95
3, 256080, Note_on_c, 4, 69, 95
3, 256200, Note_off_c, 4, 69, 95
3, 256200, Note_on_c, 4, 69, 95
3, 256320, Note_off_c, 4, 69, 95
3, 256320, Note_on_c, 5, 72, 95
3, 256480, Pitch_bend_c, 5, 8192
3, 256560, Pitch_bend_c, 5, 8320
3, 256560, Pitch_bend_c, 5, 8192
3, 256560, Note_off_c, 5, 72, 95
3, 256560, Note_on_c, 5, 72, 95
3, 256720, Pitch_bend_c, 5, 8192
3, 256800, Pitch_bend_c, 5, 8320
3, 256800, Pitch_bend_c, 5, 8192
3, 256800, Note_off_c, 5, 72, 95
3, 256800, Note_on_c, 5, 74, 95
3, 256960, Pitch_bend_c, 5, 8192
3, 257040, Pitch_bend_c, 5, 8320
3, 257040, Pitch_bend_c, 5, 8192
3, 257040, Note_off_c, 5, 74, 95
3, 257040, Note_on_c, 5, 74, 95
3, 257200, Pitch_bend_c, 5, 8192
3, 257280, Pitch_bend_c, 5, 8320
3, 257280, Pitch_bend_c, 5, 8192
3, 257280, Note_off_c, 5, 74, 95
3, 257760, Note_on_c, 5, 77, 95
3, 257920, Pitch_bend_c, 5, 8192
3, 258000, Pitch_bend_c, 5, 8320
3, 258000, Pitch_bend_c, 5, 8192
3, 258000, Note_off_c, 5, 77, 95
3, 258000, Note_on_c, 5, 77, 95
3, 258160, Pitch_bend_c, 5, 8192
3, 258240, Pitch_bend_c, 5, 8320
3, 258240, Pitch_bend_c, 5, 8192
3, 258240, Note_off_c, 5, 77, 95
3, 258240, Note_on_c, 4, 79, 95
3, 258360, Note_off_c, 4, 79, 95
3, 258360, Note_on_c, 4, 79, 95
3, 258480, Note_off_c, 4, 79, 95
3, 258480, Note_on_c, 4, 79, 95
3, 258600, Note_off_c, 4, 79, 95
3, 258600, Note_on_c, 4, 79, 95
3, 258720, Note_off_c, 4, 79, 95
3, 258720, Note_on_c, 4, 79, 95
3, 258840, Note_off_c, 4, 79, 95
3, 258840, Note_on_c, 4, 79, 95
3, 258960, Note_off_c, 4, 79, 95
3, 258960, Note_on_c, 4, 79, 95
3, 259080, Note_off_c, 4, 79, 95
3, 259080, Note_on_c, 4, 79, 95
3, 259200, Note_off_c, 4, 79, 95
3, 259200, Note_on_c, 5, 79, 95
3, 259360, Pitch_bend_c, 5, 8192
3, 259440, Pitch_bend_c, 5, 8320
3, 259440, Pitch_bend_c, 5, 8192
3, 259440, Note_off_c, 5, 79, 95
3, 259440, Note_on_c, 5, 79, 95
3, 259600, Pitch_bend_c, 5, 8192
3, 259680, Pitch_bend_c, 5, 8320
3, 259680, Pitch_bend_c, 5, 8192
3, 259680, Note_off_c, 5, 79, 95
3, 259680, Note_on_c, 4, 81, 95
3, 259800, Note_off_c, 4, 81, 95
3, 259800, Note_on_c, 4, 81, 95
3, 259920, Note_off_c, 4, 81, 95
3, 259920, Note_on_c, 4, 81, 95
3, 260040, Note_off_c, 4, 81, 95
3, 260040, Note_on_c, 4, 81, 95
3, 260160, Note_off_c, 4, 81, 95
3, 260160, Note_on_c, 4, 81, 95
3, 260280, Note_off_c, 4, 81, 95
3, 260280, Note_on_c, 4, 81, 95
3, 260400, Note_off_c, 4, 81, 95
3, 260400, Note_on_c, 4, 81, 95
3, 260520, Note_off_c, 4, 81, 95
3, 260520, Note_on_c, 4, 81, 95
3, 260640, Note_off_c, 4, 81, 95
3, 260640, Note_on_c, 4, 81, 95
3, 260760, Note_off_c, 4, 81, 95
3, 260760, Note_on_c, 4, 81, 95
3, 260880, Note_off_c, 4, 81, 95
3, 260880, Note_on_c, 4, 81, 95
3, 261000, Note_off_c, 4, 81, 95
3, 261000, Note_on_c, 4, 81, 95
3, 261120, Note_off_c, 4, 81, 95
3, 261120, Note_on_c, 5, 81, 95
3, 261280, Pitch_bend_c, 5, 8192
3, 261360, Pitch_bend_c, 5, 8320
3, 261360, Pitch_bend_c, 5, 8192
3, 261360, Note_off_c, 5, 81, 95
3, 261360, Note_on_c, 5, 84, 95
3, 261520, Pitch_bend_c, 5, 8192
3, 261600, Pitch_bend_c, 5, 8320
3, 261600, Pitch_bend_c, 5, 8192
3, 261600, Note_off_c, 5, 84, 95
3, 261600, Note_on_c, 5, 84, 95
3, 261760, Pitch_bend_c, 5, 8192
3, 261840, Pitch_bend_c, 5, 8320
3, 261840, Pitch_bend_c, 5, 8192
3, 261840, Note_off_c, 5, 84, 95
3, 261840, Note_on_c, 5, 84, 95
3, 262000, Pitch_bend_c, 5, 8192
3, 262080, Pitch_bend_c, 5, 8320
3, 262080, Pitch_bend_c, 5, 8192
3, 262080, Note_off_c, 5, 84, 95
3, 262080, Note_on_c, 5, 84, 95
3, 262240, Pitch_bend_c, 5, 8192
3, 262320, Pitch_bend_c, 5, 8320
3, 262320, Pitch_bend_c, 5, 8192
3, 262320, Note_off_c, 5, 84, 95
3, 262320, Note_on_c, 5, 84, 95
3, 262480, Pitch_bend_c, 5, 8192
3, 262560, Pitch_bend_c, 5, 8320
3, 262560, Pitch_bend_c, 5, 8192
3, 262560, Note_off_c, 5, 84, 95
3, 262560, Note_on_c, 5, 81, 95
3, 262720, Pitch_bend_c, 5, 8192
3, 262800, Pitch_bend_c, 5, 8320
3, 262800, Pitch_bend_c, 5, 8192
3, 262800, Note_off_c, 5, 81, 95
3, 262800, Note_on_c, 5, 81, 95
3, 262960, Pitch_bend_c, 5, 8192
3, 263040, Pitch_bend_c, 5, 8320
3, 263040, Pitch_bend_c, 5, 8192
3, 263040, Note_off_c, 5, 81, 95
3, 263040, Note_on_c, 5, 81, 95
3, 263200, Pitch_bend_c, 5, 8192
3, 263280, Pitch_bend_c, 5, 8320
3, 263280, Pitch_bend_c, 5, 8192
3, 263280, Note_off_c, 5, 81, 95
3, 263280, Note_on_c, 5, 81, 95
3, 263440, Pitch_bend_c, 5, 8192
3, 263520, Pitch_bend_c, 5, 8320
3, 263520, Pitch_bend_c, 5, 8192
3, 263520, Note_off_c, 5, 81, 95
3, 263520, Note_on_c, 5, 79, 95
3, 263680, Pitch_bend_c, 5, 8192
3, 263760, Pitch_bend_c, 5, 8320
3, 263760, Pitch_bend_c, 5, 8192
3, 263760, Note_off_c, 5, 79, 95
3, 263760, Note_on_c, 5, 79, 95
3, 263920, Pitch_bend_c, 5, 8192
3, 264000, Pitch_bend_c, 5, 8320
3, 264000, Pitch_bend_c, 5, 8192
3, 264000, Note_off_c, 5, 79, 95
3, 264000, Note_on_c, 5, 81, 95
3, 264160, Pitch_bend_c, 5, 8192
3, 264240, Pitch_bend_c, 5, 8320
3, 264240, Pitch_bend_c, 5, 8192
3, 264240, Note_off_c, 5, 81, 95
3, 264240, Note_on_c, 5, 81, 95
3, 264400, Pitch_bend_c, 5, 8192
3, 264480, Pitch_bend_c, 5, 8320
3, 264480, Pitch_bend_c, 5, 8192
3, 264480, Note_off_c, 5, 81, 95
3, 264480, Note_on_c, 5, 84, 95
3, 264640, Pitch_bend_c, 5, 8192
3, 264720, Pitch_bend_c, 5, 8320
3, 264720, Pitch_bend_c, 5, 8192
3, 264720, Note_off_c, 5, 84, 95
3, 264720, Note_on_c, 5, 84, 95
3, 264880, Pitch_bend_c, 5, 8192
3, 264960, Pitch_bend_c, 5, 8320
3, 264960, Pitch_bend_c, 5, 8192
3, 264960, Note_off_c, 5, 84, 95
3, 264960, Note_on_c, 4, 84, 95
3, 265080, Note_off_c, 4, 84, 95
3, 265080, Note_on_c, 4, 84, 95
3, 265200, Note_off_c, 4, 84, 95
3, 265200, Note_on_c, 4, 84, 95
3, 265320, Note_off_c, 4, 84, 95
3, 265320, Note_on_c, 4, 84, 95
3, 265440, Note_off_c, 4, 84, 95
3, 265440, Note_on_c, 4, 84, 95
3, 265560, Note_off_c, 4, 84, 95
3, 265560, Note_on_c, 4, 84, 95
3, 265680, Note_off_c, 4, 84, 95
3, 265680, Note_on_c, 4, 84, 95
3, 265800, Note_off_c, 4, 84, 95
3, 265800, Note_on_c, 4, 84, 95
3, 265920, Note_off_c, 4, 84, 95
3, 265920, Note_on_c, 4, 84, 95
3, 266040, Note_off_c, 4, 84, 95
3, 266040, Note_on_c, 4, 84, 95
3, 266160, Note_off_c, 4, 84, 95
3, 266160, Note_on_c, 4, 84, 95
3, 266280, Note_off_c, 4, 84, 95
3, 266280, Note_on_c, 4, 84, 95
3, 266400, Note_off_c, 4, 84, 95
3, 266400, Note_on_c, 4, 84, 95
3, 266520, Note_off_c, 4, 84, 95
3, 266520, Note_on_c, 5, 82, 95
3, 266680, Pitch_bend_c, 5, 8192
3, 266760, Pitch_bend_c, 5, 8320
3, 266760, Pitch_bend_c, 5, 8192
3, 266760, Note_off_c, 5, 82, 95
3, 266760, Note_on_c, 5, 82, 95
3, 266920, Pitch_bend_c, 5, 8192
3, 267000, Pitch_bend_c, 5, 8320
3, 267000, Pitch_bend_c, 5, 8192
3, 267000, Note_off_c, 5, 82, 95
3, 267000, Note_on_c, 5, 81, 95
3, 267160, Pitch_bend_c, 5, 8192
3, 267240, Pitch_bend_c, 5, 8320
3, 267240, Pitch_bend_c, 5, 8192
3, 267240, Note_off_c, 5, 81, 95
3, 267240, Note_on_c, 5, 81, 95
3, 267400, Pitch_bend_c, 5, 8192
3, 267480, Pitch_bend_c, 5, 8320
3, 267480, Pitch_bend_c, 5, 8192
3, 267480, Note_off_c, 5, 81, 95
3, 267480, Note_on_c, 5, 79, 95
3, 267600, Pitch_bend_c, 5, 7552
3, 267600, Pitch_bend_c, 5, 8192
3, 267600, Note_off_c, 5, 79, 95
3, 267600, Note_on_c, 5, 78, 95
3, 267720, Pitch_bend_c, 5, 7552
3, 267720, Pitch_bend_c, 5, 8192
3, 267720, Note_off_c, 5, 78, 95
3, 267720, Note_on_c, 5, 77, 95
3, 267840, Pitch_bend_c, 5, 7552
3, 267840, Pitch_bend_c, 5, 8192
3, 267840, Note_off_c, 5, 77, 95
3, 267840, Note_on_c, 5, 76, 95
3, 267960, Pitch_bend_c, 5, 7552
3, 267960, Pitch_bend_c, 5, 8192
3, 267960, Note_off_c, 5, 76, 95
3, 267960, Note_on_c, 5, 75, 95
3, 268080, Pitch_bend_c, 5, 8832
3, 268080, Pitch_bend_c, 5, 8192
3, 268080, Note_off_c, 5, 75, 95
3, 268080, Note_on_c, 5, 76, 95
3, 268200, Pitch_bend_c, 5, 8832
3, 268200, Pitch_bend_c, 5, 8192
3, 268200, Note_off_c, 5, 76, 95
3, 268200, Note_on_c, 5, 77, 95
3, 268320, Pitch_bend_c, 5, 9600
3, 268320, Pitch_bend_c, 5, 8192
3, 268320, Note_off_c, 5, 77, 95
3, 268320, Note_on_c, 5, 79, 95
3, 268480, Pitch_bend_c, 5, 8192
3, 268560, Pitch_bend_c, 5, 8320
3, 268560, Pitch_bend_c, 5, 8192
3, 268560, Note_off_c, 5, 79, 95
3, 268560, Note_on_c, 5, 79, 95
3, 268720, Pitch_bend_c, 5, 8192
3, 268800, Pitch_bend_c, 5, 8320
3, 268800, Pitch_bend_c, 5, 8192
3, 268800, Note_off_c, 5, 79, 95
3, 268800, Note_on_c, 4, 79, 95
3, 268920, Note_off_c, 4, 79, 95
3, 268920, Note_on_c, 4, 79, 95
3, 269040, Note_off_c, 4, 79, 95
3, 269040, Note_on_c, 4, 79, 95
3, 269160, Note_off_c, 4, 79, 95
3, 269160, Note_on_c, 4, 79, 95
3, 269280, Note_off_c, 4, 79, 95
3, 269280, Note_on_c, 4, 79, 95
3, 269400, Note_off_c, 4, 79, 95
3, 269400, Note_on_c, 4, 79, 95
3, 269520, Note_off_c, 4, 79, 95
3, 269520, Note_on_c, 4, 79, 95
3, 269640, Note_off_c, 4, 79, 95
3, 269640, Note_on_c, 4, 79, 95
3, 269760, Note_off_c, 4, 79, 95
3, 269760, Note_on_c, 4, 77, 95
3, 269880, Note_off_c, 4, 77, 95
3, 269880, Note_on_c, 4, 77, 95
3, 270000, Note_off_c, 4, 77, 95
3, 270000, Note_on_c, 4, 77, 95
3, 270120, Note_off_c, 4, 77, 95
3, 270120, Note_on_c, 4, 77, 95
3, 270240, Note_off_c, 4, 77, 95
3, 270240, Note_on_c, 4, 77, 95
3, 270360, Note_off_c, 4, 77, 95
3, 270360, Note_on_c, 4, 77, 95
3, 270480, Note_off_c, 4, 77, 95
3, 270480, Note_on_c, 4, 77, 95
3, 270600, Note_off_c, 4, 77, 95
3, 270600, Note_on_c, 4, 77, 95
3, 270720, Note_off_c, 4, 77, 95
3, 270720, Note_on_c, 4, 74, 95
3, 270840, Note_off_c, 4, 74, 95
3, 270840, Note_on_c, 4, 74, 95
3, 270960, Note_off_c, 4, 74, 95
3, 270960, Note_on_c, 4, 74, 95
3, 271080, Note_off_c, 4, 74, 95
3, 271080, Note_on_c, 4, 74, 95
3, 271200, Note_off_c, 4, 74, 95
3, 271200, Note_on_c, 4, 74, 95
3, 271320, Note_off_c, 4, 74, 95
3, 271320, Note_on_c, 4, 74, 95
3, 271440, Note_off_c, 4, 74, 95
3, 271440, Note_on_c, 4, 74, 95
3, 271560, Note_off_c, 4, 74, 95
3, 271560, Note_on_c, 4, 74, 95
3, 271680, Note_off_c, 4, 74, 95
3, 271680, Note_on_c, 5, 77, 95
3, 271840, Pitch_bend_c, 5, 8192
3, 271920, Pitch_bend_c, 5, 8320
3, 271920, Pitch_bend_c, 5, 8192
3, 271920, Note_off_c, 5, 77, 95
3, 271920, Note_on_c, 5, 79, 95
3, 272080, Pitch_bend_c, 5, 8192
3, 272160, Pitch_bend_c, 5, 8320
3, 272160, Pitch_bend_c, 5, 8192
3, 272160, Note_off_c, 5, 79, 95
3, 272160, Note_on_c, 5, 79, 95
3, 272320, Pitch_bend_c, 5, 8192
3, 272400, Pitch_bend_c, 5, 8320
3, 272400, Pitch_bend_c, 5, 8192
3, 272400, Note_off_c, 5, 79, 95
3, 272400, Note_on_c, 5, 79, 95
3, 272560, Pitch_bend_c, 5, 8192
3, 272640, Pitch_bend_c, 5, 8320
3, 272640, Pitch_bend_c, 5, 8192
3, 272640, Note_off_c, 5, 79, 95
3, 272640, Note_on_c, 4, 81, 95
3, 272800, Note_off_c, 4, 81, 95
3, 272800, Note_on_c, 4, 81, 95
3, 272960, Note_off_c, 4, 81, 95
3, 272960, Note_on_c, 4, 79, 95
3, 273120, Note_off_c, 4, 79, 95
3, 273120, Note_on_c, 4, 79, 95
3, 273280, Note_off_c, 4, 79, 95
3, 273280, Note_on_c, 4, 77, 95
3, 273440, Note_off_c, 4, 77, 95
3, 273440, Note_on_c, 4, 77, 95
3, 273600, Note_off_c, 4, 77, 95
3, 273600, Note_on_c, 5, 79, 95
3, 273760, Pitch_bend_c, 5, 8192
3, 273840, Pitch_bend_c, 5, 8320
3, 273840, Pitch_bend_c, 5, 8192
3, 273840, Note_off_c, 5, 79, 95
3, 273840, Note_on_c, 5, 81, 95
3, 274000, Pitch_bend_c, 5, 8192
3, 274080, Pitch_bend_c, 5, 8320
3, 274080, Pitch_bend_c, 5, 8192
3, 274080, Note_off_c, 5, 81, 95
3, 274080, Note_on_c, 5, 79, 95
3, 274240, Pitch_bend_c, 5, 8192
3, 274320, Pitch_bend_c, 5, 8320
3, 274320, Pitch_bend_c, 5, 8192
3, 274320, Note_off_c, 5, 79, 95
3, 274320, Note_on_c, 5, 77, 95
3, 274480, Pitch_bend_c, 5, 8192
3, 274560, Pitch_bend_c, 5, 8320
3, 274560, Pitch_bend_c, 5, 8192
3, 274560, Note_off_c, 5, 77, 95
3, 274560, Note_on_c, 5, 79, 95
3, 274720, Pitch_bend_c, 5, 8192
3, 274800, Pitch_bend_c, 5, 8320
3, 274800, Pitch_bend_c, 5, 8192
3, 274800, Note_off_c, 5, 79, 95
3, 274800, Note_on_c, 5, 81, 95
3, 274960, Pitch_bend_c, 5, 8192
3, 275040, Pitch_bend_c, 5, 8320
3, 275040, Pitch_bend_c, 5, 8192
3, 275040, Note_off_c, 5, 81, 95
3, 275040, Note_on_c, 4, 79, 95
3, 275200, Note_off_c, 4, 79, 95
3, 275200, Note_on_c, 4, 77, 95
3, 275360, Note_off_c, 4, 77, 95
3, 275360, Note_on_c, 4, 79, 95
3, 275520, Note_off_c, 4, 79, 95
3, 275520, Note_on_c, 5, 81, 95
3, 275680, Pitch_bend_c, 5, 8192
3, 275760, Pitch_bend_c, 5, 8320
3, 275760, Pitch_bend_c, 5, 8192
3, 275760, Note_off_c, 5, 81, 95
3, 275760, Note_on_c, 5, 79, 95
3, 275920, Pitch_bend_c, 5, 8192
3, 276000, Pitch_bend_c, 5, 8320
3, 276000, Pitch_bend_c, 5, 8192
3, 276000, Note_off_c, 5, 79, 95
3, 276000, Note_on_c, 5, 77, 95
3, 276160, Pitch_bend_c, 5, 8192
3, 276240, Pitch_bend_c, 5, 8320
3, 276240, Pitch_bend_c, 5, 8192
3, 276240, Note_off_c, 5, 77, 95
3, 276240, Note_on_c, 5, 79, 95
3, 276400, Pitch_bend_c, 5, 8192
3, 276480, Pitch_bend_c, 5, 8320
3, 276480, Pitch_bend_c, 5, 8192
3, 276480, Note_off_c, 5, 79, 95
3, 276480, Note_on_c, 4, 81, 95
3, 276640, Note_off_c, 4, 81, 95
3, 276640, Note_on_c, 4, 79, 95
3, 276800, Note_off_c, 4, 79, 95
3, 276800, Note_on_c, 4, 77, 95
3, 276960, Note_off_c, 4, 77, 95
3, 276960, Note_on_c, 4, 79, 95
3, 277120, Note_off_c, 4, 79, 95
3, 277120, Note_on_c, 4, 81, 95
3, 277280, Note_off_c, 4, 81, 95
3, 277280, Note_on_c, 4, 79, 95
3, 277440, Note_off_c, 4, 79, 95
3, 277440, Note_on_c, 4, 77, 95
3, 277600, Note_off_c, 4, 77, 95
3, 277600, Note_on_c, 4, 79, 95
3, 277760, Note_off_c, 4, 79, 95
3, 277760, Note_on_c, 4, 81, 95
3, 277920, Note_off_c, 4, 81, 95
3, 277920, Note_on_c, 4, 79, 95
3, 278080, Note_off_c, 4, 79, 95
3, 278080, Note_on_c, 5, 77, 95
3, 278240, Pitch_bend_c, 5, 8192
3, 278400, Pitch_bend_c, 5, 8320
3, 278400, Pitch_bend_c, 5, 8192
3, 278400, Note_off_c, 5, 77, 95
3, 278400, End_track
4, 0, Start_track
4, 0, Pitch_bend_c, 2, 8192
4, 0, Control_c, 2, 7, 87
4, 0, Control_c, 2, 10, 79
4, 0, Control_c, 2, 93, 31
4, 0, Control_c, 2, 91, 31
4, 0, Control_c, 2, 95, 0
4, 0, Control_c, 2, 92, 0
4, 0, Control_c, 2, 11, 127
4, 0, Program_c, 2, 35
4, 0, Control_c, 3, 7, 87
4, 0, Control_c, 3, 10, 79
4, 0, Control_c, 3, 93, 31
4, 0, Control_c, 3, 91, 31
4, 0, Control_c, 3, 95, 0
4, 0, Control_c, 3, 92, 0
4, 0, Control_c, 3, 11, 127
4, 0, Program_c, 3, 35
4, 21120, Pitch_bend_c, 3, 8192
4, 21120, Note_on_c, 3, 67, 95
4, 21141, Pitch_bend_c, 3, 8320
4, 21162, Pitch_bend_c, 3, 8448
4, 21183, Pitch_bend_c, 3, 8576
4, 21204, Pitch_bend_c, 3, 8704
4, 21225, Pitch_bend_c, 3, 8832
4, 21246, Pitch_bend_c, 3, 8960
4, 21267, Pitch_bend_c, 3, 9088
4, 21288, Pitch_bend_c, 3, 9216
4, 21309, Pitch_bend_c, 3, 9344
4, 21330, Pitch_bend_c, 3, 9472
4, 21351, Pitch_bend_c, 3, 9600
4, 21360, Pitch_bend_c, 3, 9600
4, 21600, Pitch_bend_c, 3, 9600
4, 21600, Pitch_bend_c, 3, 8192
4, 21600, Note_off_c, 3, 67, 95
4, 21600, Note_on_c, 3, 72, 95
4, 21760, Pitch_bend_c, 3, 8192
4, 21920, Pitch_bend_c, 3, 8320
4, 22080, Pitch_bend_c, 3, 8192
4, 22080, Pitch_bend_c, 3, 8320
4, 22080, Pitch_bend_c, 3, 8192
4, 22080, Note_off_c, 3, 72, 95
4, 22080, Pitch_bend_c, 3, 8192
4, 22080, Note_on_c, 3, 67, 95
4, 22092, Pitch_bend_c, 3, 8320
4, 22104, Pitch_bend_c, 3, 8448
4, 22116, Pitch_bend_c, 3, 8576
4, 22128, Pitch_bend_c, 3, 8704
4, 22140, Pitch_bend_c, 3, 8832
4, 22140, Pitch_bend_c, 3, 8832
4, 22200, Pitch_bend_c, 3, 8832
4, 22212, Pitch_bend_c, 3, 8704
4, 22224, Pitch_bend_c, 3, 8576
4, 22236, Pitch_bend_c, 3, 8448
4, 22248, Pitch_bend_c, 3, 8320
4, 22260, Pitch_bend_c, 3, 8192
4, 22260, Pitch_bend_c, 3, 8192
4, 22320, Pitch_bend_c, 3, 8192
4, 22320, Pitch_bend_c, 3, 8192
4, 22320, Note_off_c, 3, 67, 95
4, 22320, Note_on_c, 2, 67, 79
4, 23040, Note_off_c, 2, 67, 79
4, 23040, Note_on_c, 3, 63, 95
4, 23200, Pitch_bend_c, 3, 8192
4, 23360, Pitch_bend_c, 3, 8320
4, 23520, Pitch_bend_c, 3, 8192
4, 23680, Pitch_bend_c, 3, 8320
4, 23840, Pitch_bend_c, 3, 8192
4, 24000, Pitch_bend_c, 3, 8320
4, 24000, Pitch_bend_c, 3, 8192
4, 24000, Note_off_c, 3, 63, 95
4, 26880, Note_on_c, 3, 68, 95
4, 27000, Pitch_bend_c, 3, 9216
4, 27120, Pitch_bend_c, 3, 10240
4, 27120, Pitch_bend_c, 3, 8192
4, 27120, Note_off_c, 3, 68, 95
4, 27120, Note_on_c, 2, 71, 95
4, 27360, Note_off_c, 2, 71, 95
4, 27360, Note_on_c, 2, 74, 95
4, 27600, Note_off_c, 2, 74, 95
4, 27600, Note_on_c, 2, 71, 95
4, 27840, Note_off_c, 2, 71, 95
4, 27840, Note_on_c, 2, 74, 95
4, 27960, Note_off_c, 2, 74, 95
4, 27960, Note_on_c, 2, 76, 70
4, 28080, Note_off_c, 2, 76, 70
4, 28080, Note_on_c, 2, 74, 95
4, 28320, Note_off_c, 2, 74, 95
4, 28320, Note_on_c, 3, 71, 95
4, 28440, Pitch_bend_c, 3, 7168
4, 28560, Pitch_bend_c, 3, 6144
4, 28680, Pitch_bend_c, 3, 5120
4, 28800, Pitch_bend_c, 3, 3968
4, 28800, Pitch_bend_c, 3, 8192
4, 28800, Note_off_c, 3, 71, 95
4, 28800, Note_on_c, 3, 65, 95
4, 28920, Pitch_bend_c, 3, 9600
4, 29040, Pitch_bend_c, 3, 11008
4, 29040, Pitch_bend_c, 3, 8192
4, 29040, Note_off_c, 3, 65, 95
4, 29040, Note_on_c, 2, 69, 95
4, 29280, Note_off_c, 2, 69, 95
4, 29280, Note_on_c, 2, 72, 95
4, 29520, Note_off_c, 2, 72, 95
4, 29520, Note_on_c, 2, 69, 95
4, 29760, Note_off_c, 2, 69, 95
4, 29760, Note_on_c, 2, 74, 95
4, 30000, Note_off_c, 2, 74, 95
4, 30000, Note_on_c, 2, 72, 95
4, 30240, Note_off_c, 2, 72, 95
4, 30240, Note_on_c, 3, 69, 95
4, 30360, Pitch_bend_c, 3, 6784
4, 30360, Pitch_bend_c, 3, 8192
4, 30360, Note_off_c, 3, 69, 95
4, 30360, Note_on_c, 2, 67, 95
4, 30480, Note_off_c, 2, 67, 95
4, 30480, Note_on_c, 2, 65, 70
4, 30720, Note_off_c, 2, 65, 70
4, 31920, Pitch_bend_c, 3, 8192
4, 31920, Note_on_c, 3, 63, 95
4, 32100, Pitch_bend_c, 3, 8320
4, 32280, Pitch_bend_c, 3, 8448
4, 32280, Pitch_bend_c, 3, 8448
4, 32640, Pitch_bend_c, 3, 8448
4, 32640, Pitch_bend_c, 3, 8192
4, 32640, Note_off_c, 3, 63, 95
4, 32640, Note_on_c, 2, 60, 95
4, 32800, Note_off_c, 2, 60, 95
4, 32800, Note_on_c, 2, 58, 70
4, 32960, Note_off_c, 2, 58, 70
4, 32960, Note_on_c, 2, 55, 95
4, 33120, Note_off_c, 2, 55, 95
4, 33120, Note_on_c, 2, 53, 70
4, 33280, Note_off_c, 2, 53, 70
4, 33280, Note_on_c, 2, 55, 70
4, 33440, Note_off_c, 2, 55, 70
4, 33440, Note_on_c, 2, 53, 70
4, 33600, Note_off_c, 2, 53, 70
4, 34500, Note_on_c, 3, 54, 79
4, 34560, Note_off_c, 3, 54, 79
4, 34560, Note_on_c, 3, 55, 95
4, 34720, Pitch_bend_c, 3, 8192
4, 34880, Pitch_bend_c, 3, 8320
4, 35040, Pitch_bend_c, 3, 8192
4, 35040, Pitch_bend_c, 3, 8320
4, 35040, Pitch_bend_c, 3, 8192
4, 35040, Note_off_c, 3, 55, 95
4, 35040, Note_on_c, 3, 65, 95
4, 35200, Pitch_bend_c, 3, 8192
4, 35280, Pitch_bend_c, 3, 8320
4, 35280, Pitch_bend_c, 3, 8192
4, 35280, Note_off_c, 3, 65, 95
4, 35280, Note_on_c, 3, 69, 95
4, 35440, Pitch_bend_c, 3, 8192
4, 35520, Pitch_bend_c, 3, 8320
4, 35520, Pitch_bend_c, 3, 8192
4, 35520, Note_off_c, 3, 69, 95
4, 35520, Note_on_c, 3, 76, 95
4, 35680, Pitch_bend_c, 3, 8192
4, 35760, Pitch_bend_c, 3, 8320
4, 35760, Pitch_bend_c, 3, 8192
4, 35760, Note_off_c, 3, 76, 95
4, 35760, Note_on_c, 2, 74, 95
4, 36000, Note_off_c, 2, 74, 95
4, 36000, Note_on_c, 2, 69, 95
4, 36240, Note_off_c, 2, 69, 95
4, 36240, Note_on_c, 2, 59, 70
4, 36240, Note_on_c, 2, 55, 95
4, 36480, Note_off_c, 2, 59, 70
4, 36480, Note_off_c, 2, 55, 95
4, 36480, Note_on_c, 2, 54, 95
4, 36720, Note_off_c, 2, 54, 95
4, 36720, Note_on_c, 3, 54, 95
4, 36880, Pitch_bend_c, 3, 8192
4, 36960, Pitch_bend_c, 3, 8320
4, 36960, Pitch_bend_c, 3, 8192
4, 36960, Note_off_c, 3, 54, 95
4, 36960, Note_on_c, 3, 64, 95
4, 37120, Pitch_bend_c, 3, 8192
4, 37200, Pitch_bend_c, 3, 8320
4, 37200, Pitch_bend_c, 3, 8192
4, 37200, Note_off_c, 3, 64, 95
4, 37200, Note_on_c, 3, 68, 95
4, 37360, Pitch_bend_c, 3, 8192
4, 37440, Pitch_bend_c, 3, 8320
4, 37440, Pitch_bend_c, 3, 8192
4, 37440, Note_off_c, 3, 68, 95
4, 37440, Note_on_c, 3, 75, 95
4, 37600, Pitch_bend_c, 3, 8192
4, 37680, Pitch_bend_c, 3, 8320
4, 37680, Pitch_bend_c, 3, 8192
4, 37680, Note_off_c, 3, 75, 95
4, 37680, Note_on_c, 2, 73, 95
4, 38340, Note_on_c, 3, 55, 79
4, 38400, Note_off_c, 2, 73, 95
4, 38400, Note_off_c, 3, 55, 79
4, 38400, Note_on_c, 3, 57, 95
4, 38560, Pitch_bend_c, 3, 8192
4, 38720, Pitch_bend_c, 3, 8320
4, 38880, Pitch_bend_c, 3, 8192
4, 38880, Pitch_bend_c, 3, 8320
4, 38880, Pitch_bend_c, 3, 8192
4, 38880, Note_off_c, 3, 57, 95
4, 38880, Note_on_c, 2, 60, 95
4, 39120, Note_off_c, 2, 60, 95
4, 39360, Pitch_bend_c, 3, 8192
4, 39360, Note_on_c, 3, 67, 95
4, 39381, Pitch_bend_c, 3, 8320
4, 39402, Pitch_bend_c, 3, 8448
4, 39423, Pitch_bend_c, 3, 8576
4, 39444, Pitch_bend_c, 3, 8704
4, 39465, Pitch_bend_c, 3, 8832
4, 39486, Pitch_bend_c, 3, 8960
4, 39507, Pitch_bend_c, 3, 9088
4, 39528, Pitch_bend_c, 3, 9216
4, 39549, Pitch_bend_c, 3, 9344
4, 39570, Pitch_bend_c, 3, 9472
4, 39591, Pitch_bend_c, 3, 9600
4, 39600, Pitch_bend_c, 3, 9600
4, 39840, Pitch_bend_c, 3, 9600
4, 39840, Pitch_bend_c, 3, 8192
4, 39840, Note_off_c, 3, 67, 95
4, 39840, Note_on_c, 3, 77, 95
4, 40000, Pitch_bend_c, 3, 8192
4, 40160, Pitch_bend_c, 3, 8320
4, 40320, Pitch_bend_c, 3, 8192
4, 40320, Pitch_bend_c, 3, 8320
4, 40320, Pitch_bend_c, 3, 8192
4, 40320, Note_off_c, 3, 77, 95
4, 40320, Pitch_bend_c, 3, 8192
4, 40320, Note_on_c, 3, 67, 95
4, 40325, Pitch_bend_c, 3, 8320
4, 40330, Pitch_bend_c, 3, 8448
4, 40335, Pitch_bend_c, 3, 8576
4, 40340, Pitch_bend_c, 3, 8704
4, 40345, Pitch_bend_c, 3, 8832
4, 40350, Pitch_bend_c, 3, 8960
4, 40355, Pitch_bend_c, 3, 9088
4, 40360, Pitch_bend_c, 3, 9216
4, 40365, Pitch_bend_c, 3, 9344
4, 40370, Pitch_bend_c, 3, 9472
4, 40375, Pitch_bend_c, 3, 9600
4, 40380, Pitch_bend_c, 3, 9600
4, 40440, Pitch_bend_c, 3, 9600
4, 40445, Pitch_bend_c, 3, 9472
4, 40450, Pitch_bend_c, 3, 9344
4, 40455, Pitch_bend_c, 3, 9216
4, 40460, Pitch_bend_c, 3, 9088
4, 40465, Pitch_bend_c, 3, 8960
4, 40470, Pitch_bend_c, 3, 8832
4, 40475, Pitch_bend_c, 3, 8704
4, 40480, Pitch_bend_c, 3, 8576
4, 40485, Pitch_bend_c, 3, 8448
4, 40490, Pitch_bend_c, 3, 8320
4, 40495, Pitch_bend_c, 3, 8192
4, 40500, Pitch_bend_c, 3, 8192
4, 40560, Pitch_bend_c, 3, 8192
4, 40560, Pitch_bend_c, 3, 8192
4, 40560, Note_off_c, 3, 67, 95
4, 40560, Note_on_c, 2, 67, 63
4, 41280, Note_off_c, 2, 67, 63
4, 43920, Note_on_c, 3, 72, 95
4, 44080, Pitch_bend_c, 3, 8192
4, 44160, Pitch_bend_c, 3, 8320
4, 44160, Pitch_bend_c, 3, 8192
4, 44160, Note_off_c, 3, 72, 95
4, 44160, Pitch_bend_c, 3, 8192
4, 44160, Note_on_c, 3, 65, 95
4, 44170, Pitch_bend_c, 3, 8320
4, 44180, Pitch_bend_c, 3, 8448
4, 44190, Pitch_bend_c, 3, 8576
4, 44200, Pitch_bend_c, 3, 8704
4, 44210, Pitch_bend_c, 3, 8832
4, 44220, Pitch_bend_c, 3, 8960
4, 44230, Pitch_bend_c, 3, 9088
4, 44240, Pitch_bend_c, 3, 9216
4, 44250, Pitch_bend_c, 3, 9344
4, 44260, Pitch_bend_c, 3, 9472
4, 44270, Pitch_bend_c, 3, 9600
4, 44280, Pitch_bend_c, 3, 9600
4, 44400, Pitch_bend_c, 3, 9600
4, 44400, Pitch_bend_c, 3, 8192
4, 44400, Note_off_c, 3, 65, 95
4, 44400, Note_on_c, 2, 65, 95
4, 44640, Note_off_c, 2, 65, 95
4, 44640, Note_on_c, 2, 63, 95
4, 44880, Note_off_c, 2, 63, 95
4, 44880, Pitch_bend_c, 3, 8192
4, 44880, Note_on_c, 3, 70, 95
4, 44934, Pitch_bend_c, 3, 8320
4, 44988, Pitch_bend_c, 3, 8448
4, 45042, Pitch_bend_c, 3, 8576
4, 45096, Pitch_bend_c, 3, 8704
4, 45150, Pitch_bend_c, 3, 8832
4, 45204, Pitch_bend_c, 3, 8960
4, 45258, Pitch_bend_c, 3, 9088
4, 45312, Pitch_bend_c, 3, 9216
4, 45366, Pitch_bend_c, 3, 9344
4, 45420, Pitch_bend_c, 3, 9472
4, 45474, Pitch_bend_c, 3, 9600
4, 45480, Pitch_bend_c, 3, 9600
4, 46080, Pitch_bend_c, 3, 9600
4, 46080, Pitch_bend_c, 3, 8192
4, 46080, Note_off_c, 3, 70, 95
4, 47280, Note_on_c, 2, 75, 95
4, 47520, Note_off_c, 2, 75, 95
4, 47520, Note_on_c, 3, 77, 95
4, 47680, Pitch_bend_c, 3, 8192
4, 47840, Pitch_bend_c, 3, 8320
4, 48000, Pitch_bend_c, 3, 8192
4, 48000, Pitch_bend_c, 3, 8320
4, 48000, Pitch_bend_c, 3, 8192
4, 48000, Note_off_c, 3, 77, 95
4, 48000, Note_on_c, 2, 75, 95
4, 48160, Note_off_c, 2, 75, 95
4, 48160, Note_on_c, 2, 72, 95
4, 48320, Note_off_c, 2, 72, 95
4, 48320, Note_on_c, 2, 70, 95
4, 48480, Note_off_c, 2, 70, 95
4, 48480, Note_on_c, 2, 67, 95
4, 48640, Note_off_c, 2, 67, 95
4, 48640, Note_on_c, 2, 66, 95
4, 48800, Note_off_c, 2, 66, 95
4, 48800, Note_on_c, 2, 65, 95
4, 48960, Note_off_c, 2, 65, 95
4, 48960, Note_on_c, 2, 63, 95
4, 49120, Note_off_c, 2, 63, 95
4, 49120, Note_on_c, 2, 60, 95
4, 49280, Note_off_c, 2, 60, 95
4, 49280, Note_on_c, 2, 63, 95
4, 49440, Note_off_c, 2, 63, 95
4, 49440, Note_on_c, 2, 60, 95
4, 49600, Note_off_c, 2, 60, 95
4, 49600, Note_on_c, 2, 58, 70
4, 49760, Note_off_c, 2, 58, 70
4, 49760, Note_on_c, 2, 53, 95
4, 49920, Note_off_c, 2, 53, 95
4, 49920, Note_on_c, 2, 50, 95
4, 50400, Note_off_c, 2, 50, 95
4, 51360, Pitch_bend_c, 3, 8192
4, 51360, Note_on_c, 3, 67, 95
4, 51387, Pitch_bend_c, 3, 8320
4, 51414, Pitch_bend_c, 3, 8448
4, 51441, Pitch_bend_c, 3, 8576
4, 51468, Pitch_bend_c, 3, 8704
4, 51495, Pitch_bend_c, 3, 8832
4, 51522, Pitch_bend_c, 3, 8960
4, 51549, Pitch_bend_c, 3, 9088
4, 51576, Pitch_bend_c, 3, 9216
4, 51603, Pitch_bend_c, 3, 9344
4, 51630, Pitch_bend_c, 3, 9472
4, 51657, Pitch_bend_c, 3, 9600
4, 51660, Pitch_bend_c, 3, 9600
4, 51960, Pitch_bend_c, 3, 9600
4, 51987, Pitch_bend_c, 3, 9472
4, 52014, Pitch_bend_c, 3, 9344
4, 52041, Pitch_bend_c, 3, 9216
4, 52068, Pitch_bend_c, 3, 9088
4, 52095, Pitch_bend_c, 3, 8960
4, 52122, Pitch_bend_c, 3, 8832
4, 52149, Pitch_bend_c, 3, 8704
4, 52176, Pitch_bend_c, 3, 8576
4, 52203, Pitch_bend_c, 3, 8448
4, 52230, Pitch_bend_c, 3, 8320
4, 52257, Pitch_bend_c, 3, 8192
4, 52260, Pitch_bend_c, 3, 8192
4, 52560, Pitch_bend_c, 3, 8192
4, 52560, Pitch_bend_c, 3, 8192
4, 52560, Note_off_c, 3, 67, 95
4, 52560, Note_on_c, 3, 67, 63
4, 52680, Pitch_bend_c, 3, 6784
4, 52800, Pitch_bend_c, 3, 5376
4, 52800, Pitch_bend_c, 3, 8192
4, 52800, Note_off_c, 3, 67, 63
4, 52800, Note_on_c, 2, 63, 95
4, 53160, Note_off_c, 2, 63, 95
4, 53160, Note_on_c, 2, 65, 95
4, 53280, Note_off_c, 2, 65, 95
4, 53280, Note_on_c, 2, 60, 95
4, 53640, Note_off_c, 2, 60, 95
4, 53640, Note_on_c, 2, 63, 95
4, 53760, Note_off_c, 2, 63, 95
4, 53760, Note_on_c, 3, 60, 95
4, 53880, Pitch_bend_c, 3, 7040
4, 54000, Pitch_bend_c, 3, 5888
4, 54120, Pitch_bend_c, 3, 4736
4, 54240, Pitch_bend_c, 3, 3584
4, 54360, Pitch_bend_c, 3, 2432
4, 54480, Pitch_bend_c, 3, 1152
4, 54480, Pitch_bend_c, 3, 8192
4, 54480, Note_off_c, 3, 60, 95
4, 54480, Note_on_c, 2, 50, 63
4, 54720, Note_off_c, 2, 50, 63
4, 57120, Note_on_c, 2, 70, 95
4, 57120, Pitch_bend_c, 3, 8192
4, 57120, Note_on_c, 3, 65, 95
4, 57125, Pitch_bend_c, 3, 8320
4, 57130, Pitch_bend_c, 3, 8448
4, 57135, Pitch_bend_c, 3, 8576
4, 57140, Pitch_bend_c, 3, 8704
4, 57145, Pitch_bend_c, 3, 8832
4, 57150, Pitch_bend_c, 3, 8960
4, 57155, Pitch_bend_c, 3, 9088
4, 57160, Pitch_bend_c, 3, 9216
4, 57165, Pitch_bend_c, 3, 9344
4, 57170, Pitch_bend_c, 3, 9472
4, 57175, Pitch_bend_c, 3, 9600
4, 57180, Pitch_bend_c, 3, 9600
4, 57240, Pitch_bend_c, 3, 9600
4, 57245, Pitch_bend_c, 3, 9472
4, 57250, Pitch_bend_c, 3, 9344
4, 57255, Pitch_bend_c, 3, 9216
4, 57260, Pitch_bend_c, 3, 9088
4, 57265, Pitch_bend_c, 3, 8960
4, 57270, Pitch_bend_c, 3, 8832
4, 57275, Pitch_bend_c, 3, 8704
4, 57280, Pitch_bend_c, 3, 8576
4, 57285, Pitch_bend_c, 3, 8448
4, 57290, Pitch_bend_c, 3, 8320
4, 57295, Pitch_bend_c, 3, 8192
4, 57300, Pitch_bend_c, 3, 8192
4, 57360, Note_off_c, 2, 70, 95
4, 57360, Pitch_bend_c, 3, 8192
4, 57360, Pitch_bend_c, 3, 8192
4, 57360, Note_off_c, 3, 65, 95
4, 57360, Note_on_c, 2, 65, 95
4, 57480, Note_off_c, 2, 65, 95
4, 57480, Note_on_c, 2, 63, 70
4, 57600, Note_off_c, 2, 63, 70
4, 58080, Note_on_c, 3, 65, 95
4, 58200, Pitch_bend_c, 3, 8832
4, 58320, Pitch_bend_c, 3, 9600
4, 58320, Pitch_bend_c, 3, 8192
4, 58320, Note_off_c, 3, 65, 95
4, 58320, Note_on_c, 2, 67, 95
4, 58560, Note_off_c, 2, 67, 95
4, 58560, Note_on_c, 2, 76, 95
4, 59280, Note_off_c, 2, 76, 95
4, 59280, Note_on_c, 3, 67, 95
4, 59520, Note_off_c, 3, 67, 95
4, 60000, Note_on_c, 3, 67, 95
4, 60120, Pitch_bend_c, 3, 8832
4, 60240, Pitch_bend_c, 3, 9600
4, 60240, Pitch_bend_c, 3, 8192
4, 60240, Note_off_c, 3, 67, 95
4, 60240, Note_on_c, 2, 69, 95
4, 60480, Note_off_c, 2, 69, 95
4, 60480, Note_on_c, 3, 72, 95
4, 60640, Pitch_bend_c, 3, 8192
4, 60800, Pitch_bend_c, 3, 8320
4, 60960, Pitch_bend_c, 3, 8192
4, 61120, Pitch_bend_c, 3, 8320
4, 61280, Pitch_bend_c, 3, 8192
4, 61440, Pitch_bend_c, 3, 8320
4, 61440, Pitch_bend_c, 3, 8192
4, 61440, Note_off_c, 3, 72, 95
4, 61680, Note_on_c, 3, 55, 95
4, 61800, Pitch_bend_c, 3, 9600
4, 61920, Pitch_bend_c, 3, 11008
4, 61920, Pitch_bend_c, 3, 8192
4, 61920, Note_off_c, 3, 55, 95
4, 61920, Note_on_c, 2, 59, 95
4, 62400, Note_off_c, 2, 59, 95
4, 62400, Note_on_c, 2, 67, 95
4, 63120, Note_off_c, 2, 67, 95
4, 63120, Note_on_c, 3, 59, 95
4, 63240, Pitch_bend_c, 3, 7552
4, 63360, Pitch_bend_c, 3, 6784
4, 63360, Pitch_bend_c, 3, 8192
4, 63360, Note_off_c, 3, 59, 95
4, 63360, Note_on_c, 2, 57, 95
4, 63600, Note_off_c, 2, 57, 95
4, 63600, Note_on_c, 2, 65, 95
4, 64320, Note_off_c, 2, 65, 95
4, 64320, Note_on_c, 2, 55, 95
4, 64560, Note_off_c, 2, 55, 95
4, 64560, Note_on_c, 2, 63, 95
4, 65280, Note_off_c, 2, 63, 95
4, 65280, Note_on_c, 3, 60, 95
4, 66180, Note_on_c, 3, 56, 79
4, 66240, Note_off_c, 3, 60, 95
4, 66240, Note_off_c, 3, 56, 79
4, 66240, Note_on_c, 3, 57, 95
4, 66720, Note_off_c, 3, 57, 95
4, 66720, Note_on_c, 2, 60, 95
4, 66960, Note_off_c, 2, 60, 95
4, 67200, Note_on_c, 3, 57, 95
4, 67320, Pitch_bend_c, 3, 8832
4, 67440, Pitch_bend_c, 3, 9600
4, 67440, Pitch_bend_c, 3, 8192
4, 67440, Note_off_c, 3, 57, 95
4, 67440, Note_on_c, 2, 59, 95
4, 67680, Note_off_c, 2, 59, 95
4, 67680, Note_on_c, 3, 62, 95
4, 67840, Pitch_bend_c, 3, 8192
4, 68000, Pitch_bend_c, 3, 8320
4, 68160, Pitch_bend_c, 3, 8192
4, 68320, Pitch_bend_c, 3, 8320
4, 68480, Pitch_bend_c, 3, 8192
4, 68640, Pitch_bend_c, 3, 8320
4, 68800, Pitch_bend_c, 3, 8192
4, 68960, Pitch_bend_c, 3, 8320
4, 69060, Note_on_c, 3, 58, 79
4, 69120, Pitch_bend_c, 3, 8192
4, 69120, Pitch_bend_c, 3, 8320
4, 69120, Pitch_bend_c, 3, 8192
4, 69120, Note_off_c, 3, 62, 95
4, 69120, Note_off_c, 3, 58, 79
4, 69120, Note_on_c, 3, 59, 95
4, 69600, Note_off_c, 3, 59, 95
4, 69600, Note_on_c, 2, 67, 95
4, 69840, Note_off_c, 2, 67, 95
4, 69840, Pitch_bend_c, 3, 8192
4, 69840, Note_on_c, 3, 69, 95
4, 69861, Pitch_bend_c, 3, 8320
4, 69882, Pitch_bend_c, 3, 8448
4, 69903, Pitch_bend_c, 3, 8576
4, 69924, Pitch_bend_c, 3, 8704
4, 69945, Pitch_bend_c, 3, 8832
4, 69966, Pitch_bend_c, 3, 8960
4, 69987, Pitch_bend_c, 3, 9088
4, 70008, Pitch_bend_c, 3, 9216
4, 70029, Pitch_bend_c, 3, 9344
4, 70050, Pitch_bend_c, 3, 9472
4, 70071, Pitch_bend_c, 3, 9600
4, 70080, Pitch_bend_c, 3, 9600
4, 70320, Pitch_bend_c, 3, 9600
4, 70320, Pitch_bend_c, 3, 8192
4, 70320, Note_off_c, 3, 69, 95
4, 70320, Note_on_c, 2, 79, 95
4, 70560, Note_off_c, 2, 79, 95
4, 70560, Pitch_bend_c, 3, 8192
4, 70560, Note_on_c, 3, 69, 95
4, 70562, Pitch_bend_c, 3, 8320
4, 70564, Pitch_bend_c, 3, 8448
4, 70566, Pitch_bend_c, 3, 8576
4, 70568, Pitch_bend_c, 3, 8704
4, 70570, Pitch_bend_c, 3, 8832
4, 70572, Pitch_bend_c, 3, 8960
4, 70574, Pitch_bend_c, 3, 9088
4, 70576, Pitch_bend_c, 3, 9216
4, 70578, Pitch_bend_c, 3, 9344
4, 70580, Pitch_bend_c, 3, 9472
4, 70582, Pitch_bend_c, 3, 9600
4, 70590, Pitch_bend_c, 3, 9600
4, 70620, Pitch_bend_c, 3, 9600
4, 70622, Pitch_bend_c, 3, 9472
4, 70624, Pitch_bend_c, 3, 9344
4, 70626, Pitch_bend_c, 3, 9216
4, 70628, Pitch_bend_c, 3, 9088
4, 70630, Pitch_bend_c, 3, 8960
4, 70632, Pitch_bend_c, 3, 8832
4, 70634, Pitch_bend_c, 3, 8704
4, 70636, Pitch_bend_c, 3, 8576
4, 70638, Pitch_bend_c, 3, 8448
4, 70640, Pitch_bend_c, 3, 8320
4, 70642, Pitch_bend_c, 3, 8192
4, 70650, Pitch_bend_c, 3, 8192
4, 70680, Pitch_bend_c, 3, 8192
4, 70680, Pitch_bend_c, 3, 8192
4, 70680, Note_off_c, 3, 69, 95
4, 70680, Note_on_c, 2, 69, 95
4, 70800, Note_off_c, 2, 69, 95
4, 70800, Note_on_c, 2, 67, 70
4, 71040, Note_off_c, 2, 67, 70
4, 71520, Note_on_c, 2, 58, 95
4, 71564, Note_off_c, 2, 58, 95
4, 71940, Note_on_c, 3, 71, 95
4, 72000, Note_off_c, 3, 71, 95
4, 72000, Note_on_c, 3, 72, 95
4, 72120, Pitch_bend_c, 3, 8832
4, 72240, Pitch_bend_c, 3, 9600
4, 72240, Pitch_bend_c, 3, 8192
4, 72240, Note_off_c, 3, 72, 95
4, 72240, Pitch_bend_c, 3, 8192
4, 72240, Note_on_c, 3, 74, 95
4, 72420, Pitch_bend_c, 3, 8320
4, 72600, Pitch_bend_c, 3, 8448
4, 72600, Pitch_bend_c, 3, 8448
4, 72960, Pitch_bend_c, 3, 8448
4, 72960, Pitch_bend_c, 3, 8192
4, 72960, Note_off_c, 3, 74, 95
4, 72960, Note_on_c, 3, 60, 95
4, 73120, Pitch_bend_c, 3, 8192
4, 73280, Pitch_bend_c, 3, 8320
4, 73440, Pitch_bend_c, 3, 8192
4, 73600, Pitch_bend_c, 3, 8320
4, 73760, Pitch_bend_c, 3, 8192
4, 73920, Pitch_bend_c, 3, 8320
4, 73920, Pitch_bend_c, 3, 8192
4, 73920, Note_off_c, 3, 60, 95
4, 74400, Pitch_bend_c, 3, 8192
4, 74400, Note_on_c, 3, 65, 95
4, 74448, Pitch_bend_c, 3, 8320
4, 74496, Pitch_bend_c, 3, 8448
4, 74544, Pitch_bend_c, 3, 8576
4, 74592, Pitch_bend_c, 3, 8704
4, 74640, Pitch_bend_c, 3, 8832
4, 74640, Pitch_bend_c, 3, 8832
4, 74880, Pitch_bend_c, 3, 8832
4, 74880, Pitch_bend_c, 3, 8192
4, 74880, Note_off_c, 3, 65, 95
4, 74880, Note_on_c, 2, 65, 95
4, 75040, Note_off_c, 2, 65, 95
4, 75040, Note_on_c, 2, 63, 70
4, 75200, Note_off_c, 2, 63, 70
4, 75200, Note_on_c, 2, 60, 95
4, 75360, Note_off_c, 2, 60, 95
4, 75360, Note_on_c, 2, 63, 95
4, 75520, Note_off_c, 2, 63, 95
4, 75520, Note_on_c, 2, 60, 95
4, 75680, Note_off_c, 2, 60, 95
4, 75680, Note_on_c, 2, 55, 95
4, 75840, Note_off_c, 2, 55, 95
4, 75840, Note_on_c, 2, 53, 70
4, 76080, Note_off_c, 2, 53, 70
4, 76740, Note_on_c, 3, 54, 95
4, 76800, Note_off_c, 3, 54, 95
4, 76800, Note_on_c, 3, 55, 95
4, 76960, Pitch_bend_c, 3, 8192
4, 77040, Pitch_bend_c, 3, 8320
4, 77040, Pitch_bend_c, 3, 8192
4, 77040, Note_off_c, 3, 55, 95
4, 77040, Note_on_c, 3, 59, 95
4, 77200, Pitch_bend_c, 3, 8192
4, 77280, Pitch_bend_c, 3, 8320
4, 77280, Pitch_bend_c, 3, 8192
4, 77280, Note_off_c, 3, 59, 95
4, 77280, Note_on_c, 3, 65, 95
4, 77440, Pitch_bend_c, 3, 8192
4, 77600, Pitch_bend_c, 3, 8320
4, 77760, Pitch_bend_c, 3, 8192
4, 77760, Pitch_bend_c, 3, 8320
4, 77760, Pitch_bend_c, 3, 8192
4, 77760, Note_off_c, 3, 65, 95
4, 77760, Note_on_c, 3, 76, 95
4, 77920, Pitch_bend_c, 3, 8192
4, 78000, Pitch_bend_c, 3, 8320
4, 78000, Pitch_bend_c, 3, 8192
4, 78000, Note_off_c, 3, 76, 95
4, 78000, Note_on_c, 2, 74, 95
4, 78240, Note_off_c, 2, 74, 95
4, 78240, Note_on_c, 3, 65, 95
4, 78240, Note_on_c, 3, 55, 95
4, 78360, Pitch_bend_c, 3, 8064
4, 78360, Pitch_bend_c, 3, 8064
4, 78480, Pitch_bend_c, 3, 7936
4, 78480, Pitch_bend_c, 3, 7936
4, 78600, Pitch_bend_c, 3, 7680
4, 78600, Pitch_bend_c, 3, 7680
4, 78720, Pitch_bend_c, 3, 7552
4, 78720, Pitch_bend_c, 3, 8192
4, 78720, Note_off_c, 3, 65, 95
4, 78720, Pitch_bend_c, 3, 7552
4, 78720, Pitch_bend_c, 3, 8192
4, 78720, Note_off_c, 3, 55, 95
4, 78720, Note_on_c, 2, 64, 95
4, 78720, Note_on_c, 2, 54, 95
4, 78960, Note_off_c, 2, 64, 95
4, 78960, Note_off_c, 2, 54, 95
4, 78960, Note_on_c, 3, 54, 95
4, 79120, Pitch_bend_c, 3, 8192
4, 79200, Pitch_bend_c, 3, 8320
4, 79200, Pitch_bend_c, 3, 8192
4, 79200, Note_off_c, 3, 54, 95
4, 79200, Note_on_c, 3, 58, 95
4, 79360, Pitch_bend_c, 3, 8192
4, 79440, Pitch_bend_c, 3, 8320
4, 79440, Pitch_bend_c, 3, 8192
4, 79440, Note_off_c, 3, 58, 95
4, 79440, Note_on_c, 3, 64, 95
4, 79600, Pitch_bend_c, 3, 8192
4, 79680, Pitch_bend_c, 3, 8320
4, 79680, Pitch_bend_c, 3, 8192
4, 79680, Note_off_c, 3, 64, 95
4, 79680, Note_on_c, 3, 75, 95
4, 79840, Pitch_bend_c, 3, 8192
4, 79920, Pitch_bend_c, 3, 8320
4, 79920, Pitch_bend_c, 3, 8192
4, 79920, Note_off_c, 3, 75, 95
4, 79920, Note_on_c, 3, 73, 95
4, 79920, Note_on_c, 3, 68, 95
4, 80080, Pitch_bend_c, 3, 8192
4, 80080, Pitch_bend_c, 3, 8192
4, 80160, Pitch_bend_c, 3, 8320
4, 80160, Pitch_bend_c, 3, 8192
4, 80160, Note_off_c, 3, 73, 95
4, 80160, Pitch_bend_c, 3, 8320
4, 80160, Pitch_bend_c, 3, 8192
4, 80160, Note_off_c, 3, 68, 95
4, 80160, Note_on_c, 2, 68, 95
4, 80400, Note_off_c, 2, 68, 95
4, 80400, Note_on_c, 2, 68, 95
4, 80640, Note_off_c, 2, 68, 95
4, 80640, Note_on_c, 2, 53, 95
4, 81120, Note_off_c, 2, 53, 95
4, 81120, Note_on_c, 2, 65, 95
4, 81120, Note_on_c, 2, 60, 95
4, 81600, Note_off_c, 2, 65, 95
4, 81600, Note_off_c, 2, 60, 95
4, 81600, Note_on_c, 3, 55, 95
4, 81720, Pitch_bend_c, 3, 8832
4, 81840, Pitch_bend_c, 3, 9600
4, 81840, Pitch_bend_c, 3, 8192
4, 81840, Note_off_c, 3, 55, 95
4, 81840, Note_on_c, 2, 57, 95
4, 82080, Note_off_c, 2, 57, 95
4, 82080, Note_on_c, 3, 65, 95
4, 82240, Pitch_bend_c, 3, 8192
4, 82400, Pitch_bend_c, 3, 8320
4, 82560, Pitch_bend_c, 3, 8192
4, 82560, Pitch_bend_c, 3, 8320
4, 82560, Pitch_bend_c, 3, 8192
4, 82560, Note_off_c, 3, 65, 95
4, 82560, Pitch_bend_c, 3, 8192
4, 82560, Note_on_c, 3, 67, 95
4, 82581, Pitch_bend_c, 3, 8320
4, 82602, Pitch_bend_c, 3, 8448
4, 82623, Pitch_bend_c, 3, 8576
4, 82644, Pitch_bend_c, 3, 8704
4, 82665, Pitch_bend_c, 3, 8832
4, 82686, Pitch_bend_c, 3, 8960
4, 82707, Pitch_bend_c, 3, 9088
4, 82728, Pitch_bend_c, 3, 9216
4, 82749, Pitch_bend_c, 3, 9344
4, 82770, Pitch_bend_c, 3, 9472
4, 82791, Pitch_bend_c, 3, 9600
4, 82800, Pitch_bend_c, 3, 9600
4, 83040, Pitch_bend_c, 3, 9600
4, 83040, Pitch_bend_c, 3, 8192
4, 83040, Note_off_c, 3, 67, 95
4, 83040, Note_on_c, 3, 77, 95
4, 83200, Pitch_bend_c, 3, 8192
4, 83360, Pitch_bend_c, 3, 8320
4, 83520, Pitch_bend_c, 3, 8192
4, 83520, Pitch_bend_c, 3, 8320
4, 83520, Pitch_bend_c, 3, 8192
4, 83520, Note_off_c, 3, 77, 95
4, 83520, Pitch_bend_c, 3, 8192
4, 83520, Note_on_c, 3, 67, 95
4, 83525, Pitch_bend_c, 3, 8320
4, 83530, Pitch_bend_c, 3, 8448
4, 83535, Pitch_bend_c, 3, 8576
4, 83540, Pitch_bend_c, 3, 8704
4, 83545, Pitch_bend_c, 3, 8832
4, 83550, Pitch_bend_c, 3, 8960
4, 83555, Pitch_bend_c, 3, 9088
4, 83560, Pitch_bend_c, 3, 9216
4, 83565, Pitch_bend_c, 3, 9344
4, 83570, Pitch_bend_c, 3, 9472
4, 83575, Pitch_bend_c, 3, 9600
4, 83580, Pitch_bend_c, 3, 9600
4, 83640, Pitch_bend_c, 3, 9600
4, 83645, Pitch_bend_c, 3, 9472
4, 83650, Pitch_bend_c, 3, 9344
4, 83655, Pitch_bend_c, 3, 9216
4, 83660, Pitch_bend_c, 3, 9088
4, 83665, Pitch_bend_c, 3, 8960
4, 83670, Pitch_bend_c, 3, 8832
4, 83675, Pitch_bend_c, 3, 8704
4, 83680, Pitch_bend_c, 3, 8576
4, 83685, Pitch_bend_c, 3, 8448
4, 83690, Pitch_bend_c, 3, 8320
4, 83695, Pitch_bend_c, 3, 8192
4, 83700, Pitch_bend_c, 3, 8192
4, 83760, Pitch_bend_c, 3, 8192
4, 83760, Pitch_bend_c, 3, 8192
4, 83760, Note_off_c, 3, 67, 95
4, 83760, Note_on_c, 2, 67, 63
4, 84000, Note_off_c, 2, 67, 63
4, 84000, Note_on_c, 2, 65, 70
4, 84240, Note_off_c, 2, 65, 70
4, 84240, Note_on_c, 2, 62, 95
4, 84480, Note_off_c, 2, 62, 95
4, 84480, Note_on_c, 3, 55, 95
4, 84600, Pitch_bend_c, 3, 8832
4, 84720, Pitch_bend_c, 3, 9600
4, 84720, Pitch_bend_c, 3, 8192
4, 84720, Note_off_c, 3, 55, 95
4, 84720, Note_on_c, 2, 57, 95
4, 84960, Note_off_c, 2, 57, 95
4, 84960, Note_on_c, 2, 60, 95
4, 85200, Note_off_c, 2, 60, 95
4, 85200, Note_on_c, 2, 57, 63
4, 85440, Note_off_c, 2, 57, 63
4, 85440, Note_on_c, 3, 60, 95
4, 85560, Pitch_bend_c, 3, 8832
4, 85680, Pitch_bend_c, 3, 9600
4, 85680, Pitch_bend_c, 3, 8192
4, 85680, Note_off_c, 3, 60, 95
4, 85680, Note_on_c, 2, 62, 95
4, 85920, Note_off_c, 2, 62, 95
4, 85920, Note_on_c, 2, 65, 95
4, 86160, Note_off_c, 2, 65, 95
4, 86160, Note_on_c, 2, 62, 63
4, 86400, Note_off_c, 2, 62, 63
4, 86400, Pitch_bend_c, 3, 8192
4, 86400, Note_on_c, 3, 67, 95
4, 86421, Pitch_bend_c, 3, 8320
4, 86442, Pitch_bend_c, 3, 8448
4, 86463, Pitch_bend_c, 3, 8576
4, 86484, Pitch_bend_c, 3, 8704
4, 86505, Pitch_bend_c, 3, 8832
4, 86526, Pitch_bend_c, 3, 8960
4, 86547, Pitch_bend_c, 3, 9088
4, 86568, Pitch_bend_c, 3, 9216
4, 86589, Pitch_bend_c, 3, 9344
4, 86610, Pitch_bend_c, 3, 9472
4, 86631, Pitch_bend_c, 3, 9600
4, 86640, Pitch_bend_c, 3, 9600
4, 86880, Pitch_bend_c, 3, 9600
4, 86880, Pitch_bend_c, 3, 8192
4, 86880, Note_off_c, 3, 67, 95
4, 86880, Note_on_c, 3, 77, 95
4, 87040, Pitch_bend_c, 3, 8192
4, 87200, Pitch_bend_c, 3, 8320
4, 87360, Pitch_bend_c, 3, 8192
4, 87360, Pitch_bend_c, 3, 8320
4, 87360, Pitch_bend_c, 3, 8192
4, 87360, Note_off_c, 3, 77, 95
4, 87360, Pitch_bend_c, 3, 8192
4, 87360, Note_on_c, 3, 67, 95
4, 87367, Pitch_bend_c, 3, 8320
4, 87374, Pitch_bend_c, 3, 8448
4, 87381, Pitch_bend_c, 3, 8576
4, 87388, Pitch_bend_c, 3, 8704
4, 87395, Pitch_bend_c, 3, 8832
4, 87402, Pitch_bend_c, 3, 8960
4, 87409, Pitch_bend_c, 3, 9088
4, 87416, Pitch_bend_c, 3, 9216
4, 87423, Pitch_bend_c, 3, 9344
4, 87430, Pitch_bend_c, 3, 9472
4, 87437, Pitch_bend_c, 3, 9600
4, 87440, Pitch_bend_c, 3, 9600
4, 87520, Pitch_bend_c, 3, 9600
4, 87527, Pitch_bend_c, 3, 9472
4, 87534, Pitch_bend_c, 3, 9344
4, 87541, Pitch_bend_c, 3, 9216
4, 87548, Pitch_bend_c, 3, 9088
4, 87555, Pitch_bend_c, 3, 8960
4, 87562, Pitch_bend_c, 3, 8832
4, 87569, Pitch_bend_c, 3, 8704
4, 87576, Pitch_bend_c, 3, 8576
4, 87583, Pitch_bend_c, 3, 8448
4, 87590, Pitch_bend_c, 3, 8320
4, 87597, Pitch_bend_c, 3, 8192
4, 87600, Pitch_bend_c, 3, 8192
4, 87680, Pitch_bend_c, 3, 8192
4, 87680, Pitch_bend_c, 3, 8192
4, 87680, Note_off_c, 3, 67, 95
4, 87680, Pitch_bend_c, 3, 8192
4, 87680, Note_on_c, 3, 67, 95
4, 87683, Pitch_bend_c, 3, 8320
4, 87686, Pitch_bend_c, 3, 8448
4, 87689, Pitch_bend_c, 3, 8576
4, 87692, Pitch_bend_c, 3, 8704
4, 87695, Pitch_bend_c, 3, 8832
4, 87698, Pitch_bend_c, 3, 8960
4, 87701, Pitch_bend_c, 3, 9088
4, 87704, Pitch_bend_c, 3, 9216
4, 87707, Pitch_bend_c, 3, 9344
4, 87710, Pitch_bend_c, 3, 9472
4, 87713, Pitch_bend_c, 3, 9600
4, 87720, Pitch_bend_c, 3, 9600
4, 87760, Pitch_bend_c, 3, 9600
4, 87763, Pitch_bend_c, 3, 9472
4, 87766, Pitch_bend_c, 3, 9344
4, 87769, Pitch_bend_c, 3, 9216
4, 87772, Pitch_bend_c, 3, 9088
4, 87775, Pitch_bend_c, 3, 8960
4, 87778, Pitch_bend_c, 3, 8832
4, 87781, Pitch_bend_c, 3, 8704
4, 87784, Pitch_bend_c, 3, 8576
4, 87787, Pitch_bend_c, 3, 8448
4, 87790, Pitch_bend_c, 3, 8320
4, 87793, Pitch_bend_c, 3, 8192
4, 87800, Pitch_bend_c, 3, 8192
4, 87840, Pitch_bend_c, 3, 8192
4, 87840, Pitch_bend_c, 3, 8192
4, 87840, Note_off_c, 3, 67, 95
4, 87840, Note_on_c, 2, 67, 63
4, 87960, Note_off_c, 2, 67, 63
4, 87960, Note_on_c, 2, 65, 70
4, 88080, Note_off_c, 2, 65, 70
4, 88080, Note_on_c, 2, 62, 95
4, 88320, Note_off_c, 2, 62, 95
4, 88320, Note_on_c, 3, 55, 95
4, 88440, Pitch_bend_c, 3, 8832
4, 88560, Pitch_bend_c, 3, 9600
4, 88560, Pitch_bend_c, 3, 8192
4, 88560, Note_off_c, 3, 55, 95
4, 88560, Note_on_c, 2, 57, 95
4, 88800, Note_off_c, 2, 57, 95
4, 88800, Note_on_c, 2, 60, 95
4, 89040, Note_off_c, 2, 60, 95
4, 89040, Note_on_c, 2, 57, 63
4, 89040, Note_on_c, 2, 39, 95
4, 89084, Note_off_c, 2, 39, 95
4, 89280, Note_off_c, 2, 57, 63
4, 89280, Note_on_c, 3, 55, 95
4, 89400, Pitch_bend_c, 3, 8832
4, 89520, Pitch_bend_c, 3, 9600
4, 89520, Pitch_bend_c, 3, 8192
4, 89520, Note_off_c, 3, 55, 95
4, 89520, Note_on_c, 2, 57, 95
4, 89760, Note_off_c, 2, 57, 95
4, 89760, Note_on_c, 2, 60, 95
4, 90000, Note_off_c, 2, 60, 95
4, 90000, Note_on_c, 2, 57, 63
4, 90000, Note_on_c, 2, 39, 95
4, 90044, Note_off_c, 2, 39, 95
4, 90240, Note_off_c, 2, 57, 63
4, 90240, Note_on_c, 3, 55, 95
4, 90360, Pitch_bend_c, 3, 8832
4, 90480, Pitch_bend_c, 3, 9600
4, 90480, Pitch_bend_c, 3, 8192
4, 90480, Note_off_c, 3, 55, 95
4, 90480, Note_on_c, 2, 57, 95
4, 90720, Note_off_c, 2, 57, 95
4, 90720, Note_on_c, 2, 60, 95
4, 90960, Note_off_c, 2, 60, 95
4, 90960, Note_on_c, 2, 57, 63
4, 90960, Note_on_c, 2, 39, 95
4, 91004, Note_off_c, 2, 39, 95
4, 91200, Note_off_c, 2, 57, 63
4, 91200, Note_on_c, 3, 55, 95
4, 91320, Pitch_bend_c, 3, 8832
4, 91440, Pitch_bend_c, 3, 9600
4, 91440, Pitch_bend_c, 3, 8192
4, 91440, Note_off_c, 3, 55, 95
4, 91440, Note_on_c, 2, 57, 95
4, 91680, Note_off_c, 2, 57, 95
4, 91680, Note_on_c, 2, 60, 95
4, 91920, Note_off_c, 2, 60, 95
4, 91920, Note_on_c, 2, 57, 63
4, 91920, Note_on_c, 2, 39, 95
4, 91964, Note_off_c, 2, 39, 95
4, 92160, Note_off_c, 2, 57, 63
4, 93360, Pitch_bend_c, 3, 8192
4, 93360, Note_on_c, 3, 70, 95
4, 93370, Pitch_bend_c, 3, 8320
4, 93380, Pitch_bend_c, 3, 8448
4, 93390, Pitch_bend_c, 3, 8576
4, 93400, Pitch_bend_c, 3, 8704
4, 93410, Pitch_bend_c, 3, 8832
4, 93420, Pitch_bend_c, 3, 8960
4, 93430, Pitch_bend_c, 3, 9088
4, 93440, Pitch_bend_c, 3, 9216
4, 93450, Pitch_bend_c, 3, 9344
4, 93460, Pitch_bend_c, 3, 9472
4, 93470, Pitch_bend_c, 3, 9600
4, 93480, Pitch_bend_c, 3, 9600
4, 93600, Pitch_bend_c, 3, 9600
4, 93600, Pitch_bend_c, 3, 8192
4, 93600, Note_off_c, 3, 70, 95
4, 93600, Pitch_bend_c, 3, 8192
4, 93600, Note_on_c, 3, 65, 95
4, 93610, Pitch_bend_c, 3, 8320
4, 93620, Pitch_bend_c, 3, 8448
4, 93630, Pitch_bend_c, 3, 8576
4, 93640, Pitch_bend_c, 3, 8704
4, 93650, Pitch_bend_c, 3, 8832
4, 93660, Pitch_bend_c, 3, 8960
4, 93670, Pitch_bend_c, 3, 9088
4, 93680, Pitch_bend_c, 3, 9216
4, 93690, Pitch_bend_c, 3, 9344
4, 93700, Pitch_bend_c, 3, 9472
4, 93710, Pitch_bend_c, 3, 9600
4, 93720, Pitch_bend_c, 3, 9600
4, 93840, Pitch_bend_c, 3, 9600
4, 93850, Pitch_bend_c, 3, 9472
4, 93860, Pitch_bend_c, 3, 9344
4, 93870, Pitch_bend_c, 3, 9216
4, 93880, Pitch_bend_c, 3, 9088
4, 93890, Pitch_bend_c, 3, 8960
4, 93900, Pitch_bend_c, 3, 8832
4, 93910, Pitch_bend_c, 3, 8704
4, 93920, Pitch_bend_c, 3, 8576
4, 93930, Pitch_bend_c, 3, 8448
4, 93940, Pitch_bend_c, 3, 8320
4, 93950, Pitch_bend_c, 3, 8192
4, 93960, Pitch_bend_c, 3, 8192
4, 94080, Pitch_bend_c, 3, 8192
4, 94080, Pitch_bend_c, 3, 8192
4, 94080, Note_off_c, 3, 65, 95
4, 94080, Note_on_c, 2, 63, 95
4, 94320, Note_off_c, 2, 63, 95
4, 94320, Pitch_bend_c, 3, 8192
4, 94320, Note_on_c, 3, 70, 95
4, 94330, Pitch_bend_c, 3, 8320
4, 94340, Pitch_bend_c, 3, 8448
4, 94350, Pitch_bend_c, 3, 8576
4, 94360, Pitch_bend_c, 3, 8704
4, 94370, Pitch_bend_c, 3, 8832
4, 94380, Pitch_bend_c, 3, 8960
4, 94390, Pitch_bend_c, 3, 9088
4, 94400, Pitch_bend_c, 3, 9216
4, 94410, Pitch_bend_c, 3, 9344
4, 94420, Pitch_bend_c, 3, 9472
4, 94430, Pitch_bend_c, 3, 9600
4, 94440, Pitch_bend_c, 3, 9600
4, 94560, Pitch_bend_c, 3, 9600
4, 94560, Pitch_bend_c, 3, 8192
4, 94560, Note_off_c, 3, 70, 95
4, 94560, Pitch_bend_c, 3, 8192
4, 94560, Note_on_c, 3, 65, 95
4, 94570, Pitch_bend_c, 3, 8320
4, 94580, Pitch_bend_c, 3, 8448
4, 94590, Pitch_bend_c, 3, 8576
4, 94600, Pitch_bend_c, 3, 8704
4, 94610, Pitch_bend_c, 3, 8832
4, 94620, Pitch_bend_c, 3, 8960
4, 94630, Pitch_bend_c, 3, 9088
4, 94640, Pitch_bend_c, 3, 9216
4, 94650, Pitch_bend_c, 3, 9344
4, 94660, Pitch_bend_c, 3, 9472
4, 94670, Pitch_bend_c, 3, 9600
4, 94680, Pitch_bend_c, 3, 9600
4, 94800, Pitch_bend_c, 3, 9600
4, 94810, Pitch_bend_c, 3, 9472
4, 94820, Pitch_bend_c, 3, 9344
4, 94830, Pitch_bend_c, 3, 9216
4, 94840, Pitch_bend_c, 3, 9088
4, 94850, Pitch_bend_c, 3, 8960
4, 94860, Pitch_bend_c, 3, 8832
4, 94870, Pitch_bend_c, 3, 8704
4, 94880, Pitch_bend_c, 3, 8576
4, 94890, Pitch_bend_c, 3, 8448
4, 94900, Pitch_bend_c, 3, 8320
4, 94910, Pitch_bend_c, 3, 8192
4, 94920, Pitch_bend_c, 3, 8192
4, 95040, Pitch_bend_c, 3, 8192
4, 95040, Pitch_bend_c, 3, 8192
4, 95040, Note_off_c, 3, 65, 95
4, 95040, Note_on_c, 2, 63, 95
4, 95280, Note_off_c, 2, 63, 95
4, 95280, Pitch_bend_c, 3, 8192
4, 95280, Note_on_c, 3, 70, 95
4, 95290, Pitch_bend_c, 3, 8320
4, 95300, Pitch_bend_c, 3, 8448
4, 95310, Pitch_bend_c, 3, 8576
4, 95320, Pitch_bend_c, 3, 8704
4, 95330, Pitch_bend_c, 3, 8832
4, 95340, Pitch_bend_c, 3, 8960
4, 95350, Pitch_bend_c, 3, 9088
4, 95360, Pitch_bend_c, 3, 9216
4, 95370, Pitch_bend_c, 3, 9344
4, 95380, Pitch_bend_c, 3, 9472
4, 95390, Pitch_bend_c, 3, 9600
4, 95400, Pitch_bend_c, 3, 9600
4, 95520, Pitch_bend_c, 3, 9600
4, 95520, Pitch_bend_c, 3, 8192
4, 95520, Note_off_c, 3, 70, 95
4, 95520, Pitch_bend_c, 3, 8192
4, 95520, Note_on_c, 3, 65, 95
4, 95525, Pitch_bend_c, 3, 8320
4, 95530, Pitch_bend_c, 3, 8448
4, 95535, Pitch_bend_c, 3, 8576
4, 95540, Pitch_bend_c, 3, 8704
4, 95545, Pitch_bend_c, 3, 8832
4, 95550, Pitch_bend_c, 3, 8960
4, 95555, Pitch_bend_c, 3, 9088
4, 95560, Pitch_bend_c, 3, 9216
4, 95565, Pitch_bend_c, 3, 9344
4, 95570, Pitch_bend_c, 3, 9472
4, 95575, Pitch_bend_c, 3, 9600
4, 95580, Pitch_bend_c, 3, 9600
4, 95640, Pitch_bend_c, 3, 9600
4, 95645, Pitch_bend_c, 3, 9472
4, 95650, Pitch_bend_c, 3, 9344
4, 95655, Pitch_bend_c, 3, 9216
4, 95660, Pitch_bend_c, 3, 9088
4, 95665, Pitch_bend_c, 3, 8960
4, 95670, Pitch_bend_c, 3, 8832
4, 95675, Pitch_bend_c, 3, 8704
4, 95680, Pitch_bend_c, 3, 8576
4, 95685, Pitch_bend_c, 3, 8448
4, 95690, Pitch_bend_c, 3, 8320
4, 95695, Pitch_bend_c, 3, 8192
4, 95700, Pitch_bend_c, 3, 8192
4, 95760, Pitch_bend_c, 3, 8192
4, 95760, Pitch_bend_c, 3, 8192
4, 95760, Note_off_c, 3, 65, 95
4, 95760, Note_on_c, 2, 65, 95
4, 96000, Note_off_c, 2, 65, 95
4, 96000, Note_on_c, 3, 63, 95
4, 96160, Pitch_bend_c, 3, 8192
4, 96320, Pitch_bend_c, 3, 8320
4, 96480, Pitch_bend_c, 3, 8192
4, 96480, Pitch_bend_c, 3, 8320
4, 96480, Pitch_bend_c, 3, 8192
4, 96480, Note_off_c, 3, 63, 95
4, 96480, Note_on_c, 2, 60, 95
4, 96720, Note_off_c, 2, 60, 95
4, 96720, Note_on_c, 2, 58, 95
4, 96960, Note_off_c, 2, 58, 95
4, 96960, Note_on_c, 2, 55, 95
4, 97200, Note_off_c, 2, 55, 95
4, 97200, Note_on_c, 2, 54, 95
4, 97440, Note_off_c, 2, 54, 95
4, 97440, Note_on_c, 3, 51, 95
4, 97600, Pitch_bend_c, 3, 8192
4, 97760, Pitch_bend_c, 3, 8320
4, 97920, Pitch_bend_c, 3, 8192
4, 97920, Pitch_bend_c, 3, 8320
4, 97920, Pitch_bend_c, 3, 8192
4, 97920, Note_off_c, 3, 51, 95
4, 97920, Note_on_c, 3, 53, 95
4, 98080, Pitch_bend_c, 3, 9600
4, 98080, Pitch_bend_c, 3, 8192
4, 98080, Note_off_c, 3, 53, 95
4, 98080, Note_on_c, 2, 55, 95
4, 98240, Note_off_c, 2, 55, 95
4, 98240, Note_on_c, 2, 58, 95
4, 98400, Note_off_c, 2, 58, 95
4, 98400, Note_on_c, 2, 60, 70
4, 98560, Note_off_c, 2, 60, 70
4, 98560, Note_on_c, 2, 63, 95
4, 98720, Note_off_c, 2, 63, 95
4, 98720, Pitch_bend_c, 3, 8192
4, 98720, Note_on_c, 3, 65, 95
4, 98734, Pitch_bend_c, 3, 8320
4, 98748, Pitch_bend_c, 3, 8448
4, 98762, Pitch_bend_c, 3, 8576
4, 98776, Pitch_bend_c, 3, 8704
4, 98790, Pitch_bend_c, 3, 8832
4, 98804, Pitch_bend_c, 3, 8960
4, 98818, Pitch_bend_c, 3, 9088
4, 98832, Pitch_bend_c, 3, 9216
4, 98846, Pitch_bend_c, 3, 9344
4, 98860, Pitch_bend_c, 3, 9472
4, 98874, Pitch_bend_c, 3, 9600
4, 98880, Pitch_bend_c, 3, 9600
4, 99040, Pitch_bend_c, 3, 9600
4, 99040, Pitch_bend_c, 3, 8192
4, 99040, Note_off_c, 3, 65, 95
4, 99040, Note_on_c, 2, 67, 95
4, 99200, Note_off_c, 2, 67, 95
4, 99200, Note_on_c, 2, 70, 95
4, 99360, Note_off_c, 2, 70, 95
4, 99360, Note_on_c, 2, 67, 70
4, 99520, Note_off_c, 2, 67, 70
4, 99520, Note_on_c, 2, 70, 95
4, 99680, Note_off_c, 2, 70, 95
4, 99680, Note_on_c, 2, 67, 70
4, 99840, Note_off_c, 2, 67, 70
4, 99840, Pitch_bend_c, 3, 8192
4, 99840, Note_on_c, 3, 65, 95
4, 99842, Pitch_bend_c, 3, 8320
4, 99844, Pitch_bend_c, 3, 8448
4, 99846, Pitch_bend_c, 3, 8576
4, 99848, Pitch_bend_c, 3, 8704
4, 99850, Pitch_bend_c, 3, 8832
4, 99852, Pitch_bend_c, 3, 8960
4, 99854, Pitch_bend_c, 3, 9088
4, 99856, Pitch_bend_c, 3, 9216
4, 99858, Pitch_bend_c, 3, 9344
4, 99860, Pitch_bend_c, 3, 9472
4, 99862, Pitch_bend_c, 3, 9600
4, 99870, Pitch_bend_c, 3, 9600
4, 99900, Pitch_bend_c, 3, 9600
4, 99902, Pitch_bend_c, 3, 9472
4, 99904, Pitch_bend_c, 3, 9344
4, 99906, Pitch_bend_c, 3, 9216
4, 99908, Pitch_bend_c, 3, 9088
4, 99910, Pitch_bend_c, 3, 8960
4, 99912, Pitch_bend_c, 3, 8832
4, 99914, Pitch_bend_c, 3, 8704
4, 99916, Pitch_bend_c, 3, 8576
4, 99918, Pitch_bend_c, 3, 8448
4, 99920, Pitch_bend_c, 3, 8320
4, 99922, Pitch_bend_c, 3, 8192
4, 99930, Pitch_bend_c, 3, 8192
4, 99960, Pitch_bend_c, 3, 8192
4, 99960, Pitch_bend_c, 3, 8192
4, 99960, Note_off_c, 3, 65, 95
4, 99960, Note_on_c, 2, 65, 63
4, 100080, Note_off_c, 2, 65, 63
4, 100080, Note_on_c, 2, 63, 95
4, 100200, Note_off_c, 2, 63, 95
4, 100200, Note_on_c, 2, 60, 95
4, 100320, Note_off_c, 2, 60, 95
4, 100320, Note_on_c, 2, 65, 95
4, 100560, Note_off_c, 2, 65, 95
4, 100560, Note_on_c, 2, 63, 95
4, 100800, Note_off_c, 2, 63, 95
4, 100800, Note_on_c, 2, 60, 95
4, 101280, Note_off_c, 2, 60, 95
4, 101280, Note_on_c, 3, 63, 95
4, 101440, Pitch_bend_c, 3, 8192
4, 101600, Pitch_bend_c, 3, 8320
4, 101760, Pitch_bend_c, 3, 8192
4, 101920, Pitch_bend_c, 3, 8320
4, 102080, Pitch_bend_c, 3, 8192
4, 102240, Pitch_bend_c, 3, 8320
4, 102400, Pitch_bend_c, 3, 8192
4, 102560, Pitch_bend_c, 3, 8320
4, 102720, Pitch_bend_c, 3, 8192
4, 102880, Pitch_bend_c, 3, 8320
4, 103040, Pitch_bend_c, 3, 8192
4, 103200, Pitch_bend_c, 3, 8320
4, 103360, Pitch_bend_c, 3, 8192
4, 103520, Pitch_bend_c, 3, 8320
4, 103680, Pitch_bend_c, 3, 8192
4, 103680, Pitch_bend_c, 3, 8320
4, 103680, Pitch_bend_c, 3, 8192
4, 103680, Note_off_c, 3, 63, 95
4, 105360, Pitch_bend_c, 3, 8192
4, 105360, Note_on_c, 3, 70, 95
4, 105370, Pitch_bend_c, 3, 8320
4, 105380, Pitch_bend_c, 3, 8448
4, 105390, Pitch_bend_c, 3, 8576
4, 105400, Pitch_bend_c, 3, 8704
4, 105410, Pitch_bend_c, 3, 8832
4, 105420, Pitch_bend_c, 3, 8960
4, 105430, Pitch_bend_c, 3, 9088
4, 105440, Pitch_bend_c, 3, 9216
4, 105450, Pitch_bend_c, 3, 9344
4, 105460, Pitch_bend_c, 3, 9472
4, 105470, Pitch_bend_c, 3, 9600
4, 105480, Pitch_bend_c, 3, 9600
4, 105600, Pitch_bend_c, 3, 9600
4, 105600, Pitch_bend_c, 3, 8192
4, 105600, Note_off_c, 3, 70, 95
4, 105600, Pitch_bend_c, 3, 8192
4, 105600, Note_on_c, 3, 65, 95
4, 105610, Pitch_bend_c, 3, 8320
4, 105620, Pitch_bend_c, 3, 8448
4, 105630, Pitch_bend_c, 3, 8576
4, 105640, Pitch_bend_c, 3, 8704
4, 105650, Pitch_bend_c, 3, 8832
4, 105660, Pitch_bend_c, 3, 8960
4, 105670, Pitch_bend_c, 3, 9088
4, 105680, Pitch_bend_c, 3, 9216
4, 105690, Pitch_bend_c, 3, 9344
4, 105700, Pitch_bend_c, 3, 9472
4, 105710, Pitch_bend_c, 3, 9600
4, 105720, Pitch_bend_c, 3, 9600
4, 105840, Pitch_bend_c, 3, 9600
4, 105840, Pitch_bend_c, 3, 8192
4, 105840, Note_off_c, 3, 65, 95
4, 105840, Note_on_c, 2, 65, 95
4, 106080, Note_off_c, 2, 65, 95
4, 106080, Note_on_c, 2, 63, 95
4, 106320, Note_off_c, 2, 63, 95
4, 106320, Note_on_c, 2, 60, 95
4, 106560, Note_off_c, 2, 60, 95
4, 106560, Note_on_c, 2, 58, 95
4, 106800, Note_off_c, 2, 58, 95
4, 106800, Note_on_c, 2, 55, 95
4, 107040, Note_off_c, 2, 55, 95
4, 107040, Note_on_c, 2, 63, 95
4, 107040, Note_on_c, 2, 58, 95
4, 107520, Note_off_c, 2, 63, 95
4, 107520, Note_off_c, 2, 58, 95
4, 107520, Note_on_c, 3, 55, 95
4, 107640, Pitch_bend_c, 3, 9216
4, 107760, Pitch_bend_c, 3, 10240
4, 107760, Pitch_bend_c, 3, 8192
4, 107760, Note_off_c, 3, 55, 95
4, 107760, Note_on_c, 2, 58, 95
4, 108000, Note_off_c, 2, 58, 95
4, 108000, Note_on_c, 3, 67, 95
4, 108000, Note_on_c, 3, 62, 95
4, 108160, Pitch_bend_c, 3, 8192
4, 108160, Pitch_bend_c, 3, 8192
4, 108320, Pitch_bend_c, 3, 8320
4, 108320, Pitch_bend_c, 3, 8320
4, 108480, Pitch_bend_c, 3, 8192
4, 108480, Pitch_bend_c, 3, 8320
4, 108480, Pitch_bend_c, 3, 8192
4, 108480, Note_off_c, 3, 67, 95
4, 108480, Pitch_bend_c, 3, 8192
4, 108480, Pitch_bend_c, 3, 8320
4, 108480, Pitch_bend_c, 3, 8192
4, 108480, Note_off_c, 3, 62, 95
4, 108480, Note_on_c, 2, 62, 95
4, 108720, Note_off_c, 2, 62, 95
4, 108720, Note_on_c, 2, 64, 70
4, 108960, Note_off_c, 2, 64, 70
4, 108960, Note_on_c, 3, 67, 95
4, 109120, Pitch_bend_c, 3, 8192
4, 109280, Pitch_bend_c, 3, 8320
4, 109440, Pitch_bend_c, 3, 8192
4, 109440, Pitch_bend_c, 3, 8320
4, 109440, Pitch_bend_c, 3, 8192
4, 109440, Note_off_c, 3, 67, 95
4, 109440, Note_on_c, 2, 57, 95
4, 109680, Note_off_c, 2, 57, 95
4, 109680, Note_on_c, 2, 59, 70
4, 109920, Note_off_c, 2, 59, 70
4, 109920, Note_on_c, 3, 67, 95
4, 109920, Note_on_c, 3, 62, 95
4, 110080, Pitch_bend_c, 3, 8192
4, 110080, Pitch_bend_c, 3, 8192
4, 110240, Pitch_bend_c, 3, 8320
4, 110240, Pitch_bend_c, 3, 8320
4, 110400, Pitch_bend_c, 3, 8192
4, 110400, Pitch_bend_c, 3, 8320
4, 110400, Pitch_bend_c, 3, 8192
4, 110400, Note_off_c, 3, 67, 95
4, 110400, Pitch_bend_c, 3, 8192
4, 110400, Pitch_bend_c, 3, 8320
4, 110400, Pitch_bend_c, 3, 8192
4, 110400, Note_off_c, 3, 62, 95
4, 110400, Note_on_c, 2, 57, 95
4, 110640, Note_off_c, 2, 57, 95
4, 110640, Note_on_c, 2, 59, 70
4, 110880, Note_off_c, 2, 59, 70
4, 111360, Note_on_c, 3, 63, 95
4, 111520, Pitch_bend_c, 3, 9600
4, 111520, Pitch_bend_c, 3, 8192
4, 111520, Note_off_c, 3, 63, 95
4, 111520, Note_on_c, 2, 65, 95
4, 111680, Note_off_c, 2, 65, 95
4, 111680, Note_on_c, 3, 74, 95
4, 111680, Note_on_c, 3, 69, 95
4, 111840, Note_off_c, 3, 74, 95
4, 111840, Pitch_bend_c, 3, 6784
4, 111840, Pitch_bend_c, 3, 8192
4, 111840, Note_off_c, 3, 69, 95
4, 111840, Note_on_c, 3, 67, 95
4, 111840, Note_on_c, 3, 63, 95
4, 112000, Pitch_bend_c, 3, 8192
4, 112000, Pitch_bend_c, 3, 8192
4, 112160, Pitch_bend_c, 3, 8320
4, 112160, Pitch_bend_c, 3, 8320
4, 112320, Pitch_bend_c, 3, 8192
4, 112320, Pitch_bend_c, 3, 8320
4, 112320, Pitch_bend_c, 3, 8192
4, 112320, Note_off_c, 3, 67, 95
4, 112320, Pitch_bend_c, 3, 8192
4, 112320, Pitch_bend_c, 3, 8320
4, 112320, Pitch_bend_c, 3, 8192
4, 112320, Note_off_c, 3, 63, 95
4, 112320, Note_on_c, 2, 72, 95
4, 112320, Note_on_c, 2, 67, 95
4, 112560, Note_off_c, 2, 72, 95
4, 112560, Note_off_c, 2, 67, 95
4, 112560, Note_on_c, 3, 63, 95
4, 112680, Pitch_bend_c, 3, 8832
4, 112800, Pitch_bend_c, 3, 9600
4, 112800, Pitch_bend_c, 3, 8192
4, 112800, Note_off_c, 3, 63, 95
4, 112800, Note_on_c, 2, 65, 95
4, 113040, Note_off_c, 2, 65, 95
4, 113040, Note_on_c, 3, 74, 95
4, 113040, Note_on_c, 3, 69, 95
4, 113160, Pitch_bend_c, 3, 7552
4, 113280, Note_off_c, 3, 74, 95
4, 113280, Pitch_bend_c, 3, 6784
4, 113280, Pitch_bend_c, 3, 8192
4, 113280, Note_off_c, 3, 69, 95
4, 113280, Note_on_c, 3, 67, 95
4, 113280, Note_on_c, 3, 63, 95
4, 113440, Pitch_bend_c, 3, 8192
4, 113440, Pitch_bend_c, 3, 8192
4, 113600, Pitch_bend_c, 3, 8320
4, 113600, Pitch_bend_c, 3, 8320
4, 113760, Pitch_bend_c, 3, 8192
4, 113760, Pitch_bend_c, 3, 8320
4, 113760, Pitch_bend_c, 3, 8192
4, 113760, Note_off_c, 3, 67, 95
4, 113760, Pitch_bend_c, 3, 8192
4, 113760, Pitch_bend_c, 3, 8320
4, 113760, Pitch_bend_c, 3, 8192
4, 113760, Note_off_c, 3, 63, 95
4, 113760, Note_on_c, 2, 72, 95
4, 113760, Note_on_c, 2, 67, 95
4, 114000, Note_off_c, 2, 72, 95
4, 114000, Note_off_c, 2, 67, 95
4, 114000, Note_on_c, 3, 63, 95
4, 114120, Pitch_bend_c, 3, 8832
4, 114240, Pitch_bend_c, 3, 9600
4, 114240, Pitch_bend_c, 3, 8192
4, 114240, Note_off_c, 3, 63, 95
4, 114240, Note_on_c, 2, 65, 95
4, 114480, Note_off_c, 2, 65, 95
4, 114480, Note_on_c, 2, 74, 95
4, 114480, Note_on_c, 2, 69, 95
4, 114720, Note_off_c, 2, 74, 95
4, 114720, Note_off_c, 2, 69, 95
4, 114720, Note_on_c, 3, 65, 95
4, 114880, Pitch_bend_c, 3, 9600
4, 114880, Pitch_bend_c, 3, 8192
4, 114880, Note_off_c, 3, 65, 95
4, 114880, Note_on_c, 2, 67, 95
4, 115040, Note_off_c, 2, 67, 95
4, 115040, Note_on_c, 2, 76, 95
4, 115040, Note_on_c, 2, 71, 95
4, 115200, Note_off_c, 2, 76, 95
4, 115200, Note_off_c, 2, 71, 95
4, 115200, Note_on_c, 2, 65, 95
4, 115680, Note_off_c, 2, 65, 95
4, 115680, Note_on_c, 2, 69, 95
4, 116160, Note_off_c, 2, 69, 95
4, 117120, Note_on_c, 2, 67, 79
4, 117600, Note_off_c, 2, 67, 79
4, 117600, Note_on_c, 2, 57, 79
4, 118080, Note_off_c, 2, 57, 79
4, 118080, Note_on_c, 2, 59, 79
4, 118560, Note_off_c, 2, 59, 79
4, 118560, Note_on_c, 2, 69, 79
4, 118980, Note_on_c, 3, 68, 95
4, 119040, Note_off_c, 2, 69, 79
4, 119040, Note_off_c, 3, 68, 95
4, 119040, Note_on_c, 3, 69, 95
4, 119520, Note_off_c, 3, 69, 95
4, 119520, Note_on_c, 2, 72, 95
4, 120000, Note_off_c, 2, 72, 95
4, 120000, Note_on_c, 2, 69, 95
4, 120480, Note_off_c, 2, 69, 95
4, 120480, Note_on_c, 3, 72, 95
4, 120640, Pitch_bend_c, 3, 8192
4, 120800, Pitch_bend_c, 3, 8320
4, 120960, Pitch_bend_c, 3, 8192
4, 120960, Pitch_bend_c, 3, 8320
4, 120960, Pitch_bend_c, 3, 8192
4, 120960, Note_off_c, 3, 72, 95
4, 120960, Pitch_bend_c, 3, 8192
4, 120960, Note_on_c, 3, 69, 95
4, 120984, Pitch_bend_c, 3, 8320
4, 121008, Pitch_bend_c, 3, 8448
4, 121032, Pitch_bend_c, 3, 8576
4, 121056, Pitch_bend_c, 3, 8704
4, 121080, Pitch_bend_c, 3, 8832
4, 121080, Pitch_bend_c, 3, 8832
4, 121200, Pitch_bend_c, 3, 8832
4, 121200, Pitch_bend_c, 3, 8192
4, 121200, Note_off_c, 3, 69, 95
4, 121200, Note_on_c, 3, 72, 95
4, 121360, Pitch_bend_c, 3, 8192
4, 121520, Pitch_bend_c, 3, 8320
4, 121680, Pitch_bend_c, 3, 8192
4, 121680, Pitch_bend_c, 3, 8320
4, 121680, Pitch_bend_c, 3, 8192
4, 121680, Note_off_c, 3, 72, 95
4, 121680, Note_on_c, 2, 69, 95
4, 121680, Pitch_bend_c, 3, 8192
4, 121680, Note_on_c, 3, 69, 95
4, 121704, Pitch_bend_c, 3, 8320
4, 121728, Pitch_bend_c, 3, 8448
4, 121752, Pitch_bend_c, 3, 8576
4, 121776, Pitch_bend_c, 3, 8704
4, 121800, Pitch_bend_c, 3, 8832
4, 121800, Pitch_bend_c, 3, 8832
4, 121920, Note_off_c, 2, 69, 95
4, 121920, Pitch_bend_c, 3, 8832
4, 121920, Pitch_bend_c, 3, 8192
4, 121920, Note_off_c, 3, 69, 95
4, 121920, Note_on_c, 3, 72, 95
4, 122080, Pitch_bend_c, 3, 8192
4, 122240, Pitch_bend_c, 3, 8320
4, 122400, Pitch_bend_c, 3, 8192
4, 122400, Pitch_bend_c, 3, 8320
4, 122400, Pitch_bend_c, 3, 8192
4, 122400, Note_off_c, 3, 72, 95
4, 122400, Note_on_c, 2, 69, 95
4, 122640, Note_off_c, 2, 69, 95
4, 122640, Note_on_c, 2, 72, 95
4, 122880, Note_off_c, 2, 72, 95
4, 122880, Note_on_c, 3, 69, 95
4, 123000, Pitch_bend_c, 3, 8832
4, 123120, Pitch_bend_c, 3, 9600
4, 123120, Pitch_bend_c, 3, 8192
4, 123120, Note_off_c, 3, 69, 95
4, 123120, Note_on_c, 2, 71, 95
4, 123360, Note_off_c, 2, 71, 95
4, 123360, Note_on_c, 3, 74, 95
4, 123520, Pitch_bend_c, 3, 8192
4, 123680, Pitch_bend_c, 3, 8320
4, 123840, Pitch_bend_c, 3, 8192
4, 123840, Pitch_bend_c, 3, 8320
4, 123840, Pitch_bend_c, 3, 8192
4, 123840, Note_off_c, 3, 74, 95
4, 123840, Note_on_c, 2, 71, 95
4, 125520, Note_off_c, 2, 71, 95
4, 125520, Note_on_c, 2, 74, 95
4, 125760, Note_off_c, 2, 74, 95
4, 125760, Note_on_c, 2, 71, 95
4, 126000, Note_off_c, 2, 71, 95
4, 126000, Note_on_c, 2, 74, 95
4, 126240, Note_off_c, 2, 74, 95
4, 126240, Note_on_c, 3, 71, 95
4, 126400, Pitch_bend_c, 3, 8192
4, 126560, Pitch_bend_c, 3, 8320
4, 126720, Pitch_bend_c, 3, 8192
4, 126720, Pitch_bend_c, 3, 8320
4, 126720, Pitch_bend_c, 3, 8192
4, 126720, Note_off_c, 3, 71, 95
4, 126720, Note_on_c, 2, 58, 95
4, 126764, Note_off_c, 2, 58, 95
4, 127140, Note_on_c, 3, 68, 95
4, 127200, Note_off_c, 3, 68, 95
4, 127200, Note_on_c, 3, 69, 95
4, 127680, Note_off_c, 3, 69, 95
4, 127680, Note_on_c, 2, 72, 95
4, 127920, Note_off_c, 2, 72, 95
4, 127920, Note_on_c, 2, 69, 95
4, 128160, Note_off_c, 2, 69, 95
4, 128160, Note_on_c, 2, 70, 95
4, 128400, Note_off_c, 2, 70, 95
4, 128400, Note_on_c, 2, 69, 70
4, 128640, Note_off_c, 2, 69, 70
4, 128640, Note_on_c, 2, 67, 95
4, 128880, Note_off_c, 2, 67, 95
4, 128880, Note_on_c, 2, 65, 95
4, 129120, Note_off_c, 2, 65, 95
4, 129120, Note_on_c, 2, 67, 95
4, 129360, Note_off_c, 2, 67, 95
4, 129360, Note_on_c, 2, 63, 95
4, 129600, Note_off_c, 2, 63, 95
4, 129600, Note_on_c, 3, 60, 95
4, 129760, Pitch_bend_c, 3, 8192
4, 129920, Pitch_bend_c, 3, 8320
4, 130080, Pitch_bend_c, 3, 8192
4, 130080, Pitch_bend_c, 3, 8320
4, 130080, Pitch_bend_c, 3, 8192
4, 130080, Note_off_c, 3, 60, 95
4, 130500, Note_on_c, 3, 54, 95
4, 130560, Note_off_c, 3, 54, 95
4, 130560, Note_on_c, 3, 55, 95
4, 131040, Note_off_c, 3, 55, 95
4, 131040, Note_on_c, 3, 69, 95
4, 131200, Pitch_bend_c, 3, 8192
4, 131360, Pitch_bend_c, 3, 8320
4, 131520, Pitch_bend_c, 3, 8192
4, 131520, Pitch_bend_c, 3, 8320
4, 131520, Pitch_bend_c, 3, 8192
4, 131520, Note_off_c, 3, 69, 95
4, 131520, Note_on_c, 3, 65, 95
4, 131680, Pitch_bend_c, 3, 8192
4, 131840, Pitch_bend_c, 3, 8320
4, 132000, Pitch_bend_c, 3, 8192
4, 132000, Pitch_bend_c, 3, 8320
4, 132000, Pitch_bend_c, 3, 8192
4, 132000, Note_off_c, 3, 65, 95
4, 132000, Note_on_c, 3, 59, 95
4, 132160, Pitch_bend_c, 3, 8192
4, 132320, Pitch_bend_c, 3, 8320
4, 132480, Pitch_bend_c, 3, 8192
4, 132480, Pitch_bend_c, 3, 8320
4, 132480, Pitch_bend_c, 3, 8192
4, 132480, Note_off_c, 3, 59, 95
4, 132480, Note_on_c, 2, 55, 95
4, 132720, Note_off_c, 2, 55, 95
4, 132720, Note_on_c, 2, 62, 95
4, 132960, Note_off_c, 2, 62, 95
4, 132960, Note_on_c, 2, 65, 95
4, 133200, Note_off_c, 2, 65, 95
4, 133200, Note_on_c, 2, 67, 95
4, 133440, Note_off_c, 2, 67, 95
4, 133440, Note_on_c, 3, 67, 95
4, 133600, Pitch_bend_c, 3, 8192
4, 133760, Pitch_bend_c, 3, 8320
4, 133920, Pitch_bend_c, 3, 8192
4, 133920, Pitch_bend_c, 3, 8320
4, 133920, Pitch_bend_c, 3, 8192
4, 133920, Note_off_c, 3, 67, 95
4, 133920, Note_on_c, 2, 67, 95
4, 134400, Note_off_c, 2, 67, 95
4, 135360, Pitch_bend_c, 3, 8192
4, 135360, Note_on_c, 3, 70, 95
4, 135392, Pitch_bend_c, 3, 8320
4, 135424, Pitch_bend_c, 3, 8448
4, 135456, Pitch_bend_c, 3, 8576
4, 135488, Pitch_bend_c, 3, 8704
4, 135520, Pitch_bend_c, 3, 8832
4, 135552, Pitch_bend_c, 3, 8960
4, 135584, Pitch_bend_c, 3, 9088
4, 135616, Pitch_bend_c, 3, 9216
4, 135648, Pitch_bend_c, 3, 9344
4, 135680, Pitch_bend_c, 3, 9472
4, 135712, Pitch_bend_c, 3, 9600
4, 135720, Pitch_bend_c, 3, 9600
4, 136080, Pitch_bend_c, 3, 9600
4, 136080, Pitch_bend_c, 3, 8192
4, 136080, Note_off_c, 3, 70, 95
4, 136080, Note_on_c, 2, 70, 95
4, 136320, Note_off_c, 2, 70, 95
4, 136320, Note_on_c, 2, 67, 95
4, 136560, Note_off_c, 2, 67, 95
4, 136560, Pitch_bend_c, 3, 8192
4, 136560, Note_on_c, 3, 65, 95
4, 136570, Pitch_bend_c, 3, 8320
4, 136580, Pitch_bend_c, 3, 8448
4, 136590, Pitch_bend_c, 3, 8576
4, 136600, Pitch_bend_c, 3, 8704
4, 136610, Pitch_bend_c, 3, 8832
4, 136620, Pitch_bend_c, 3, 8960
4, 136630, Pitch_bend_c, 3, 9088
4, 136640, Pitch_bend_c, 3, 9216
4, 136650, Pitch_bend_c, 3, 9344
4, 136660, Pitch_bend_c, 3, 9472
4, 136670, Pitch_bend_c, 3, 9600
4, 136680, Pitch_bend_c, 3, 9600
4, 136800, Pitch_bend_c, 3, 9600
4, 136800, Pitch_bend_c, 3, 8192
4, 136800, Note_off_c, 3, 65, 95
4, 136800, Note_on_c, 2, 65, 95
4, 137040, Note_off_c, 2, 65, 95
4, 137040, Note_on_c, 2, 63, 95
4, 137280, Note_off_c, 2, 63, 95
4, 137280, Note_on_c, 2, 60, 95
4, 137520, Note_off_c, 2, 60, 95
4, 137520, Note_on_c, 3, 58, 95
4, 137680, Pitch_bend_c, 3, 8192
4, 137840, Pitch_bend_c, 3, 8320
4, 138000, Pitch_bend_c, 3, 8192
4, 138000, Pitch_bend_c, 3, 8320
4, 138000, Pitch_bend_c, 3, 8192
4, 138000, Note_off_c, 3, 58, 95
4, 138240, Pitch_bend_c, 3, 8192
4, 138240, Note_on_c, 3, 74, 95
4, 138267, Pitch_bend_c, 3, 8320
4, 138294, Pitch_bend_c, 3, 8448
4, 138321, Pitch_bend_c, 3, 8576
4, 138348, Pitch_bend_c, 3, 8704
4, 138375, Pitch_bend_c, 3, 8832
4, 138402, Pitch_bend_c, 3, 8960
4, 138429, Pitch_bend_c, 3, 9088
4, 138456, Pitch_bend_c, 3, 9216
4, 138483, Pitch_bend_c, 3, 9344
4, 138510, Pitch_bend_c, 3, 9472
4, 138537, Pitch_bend_c, 3, 9600
4, 138540, Pitch_bend_c, 3, 9600
4, 138840, Pitch_bend_c, 3, 9600
4, 138867, Pitch_bend_c, 3, 9472
4, 138894, Pitch_bend_c, 3, 9344
4, 138921, Pitch_bend_c, 3, 9216
4, 138948, Pitch_bend_c, 3, 9088
4, 138975, Pitch_bend_c, 3, 8960
4, 139002, Pitch_bend_c, 3, 8832
4, 139029, Pitch_bend_c, 3, 8704
4, 139056, Pitch_bend_c, 3, 8576
4, 139083, Pitch_bend_c, 3, 8448
4, 139110, Pitch_bend_c, 3, 8320
4, 139137, Pitch_bend_c, 3, 8192
4, 139140, Pitch_bend_c, 3, 8192
4, 139440, Pitch_bend_c, 3, 8192
4, 139440, Pitch_bend_c, 3, 8192
4, 139440, Note_off_c, 3, 74, 95
4, 139440, Note_on_c, 2, 74, 63
4, 139680, Note_off_c, 2, 74, 63
4, 139680, Note_on_c, 2, 72, 70
4, 140160, Note_off_c, 2, 72, 70
4, 140160, Pitch_bend_c, 3, 8192
4, 140160, Note_on_c, 3, 75, 95
4, 140225, Pitch_bend_c, 3, 8320
4, 140290, Pitch_bend_c, 3, 8448
4, 140355, Pitch_bend_c, 3, 8576
4, 140420, Pitch_bend_c, 3, 8704
4, 140485, Pitch_bend_c, 3, 8832
4, 140550, Pitch_bend_c, 3, 8960
4, 140615, Pitch_bend_c, 3, 9088
4, 140680, Pitch_bend_c, 3, 9216
4, 140745, Pitch_bend_c, 3, 9344
4, 140810, Pitch_bend_c, 3, 9472
4, 140875, Pitch_bend_c, 3, 9600
4, 140880, Pitch_bend_c, 3, 9600
4, 141600, Pitch_bend_c, 3, 9600
4, 141600, Pitch_bend_c, 3, 8192
4, 141600, Note_off_c, 3, 75, 95
4, 142080, Pitch_bend_c, 3, 8192
4, 142080, Note_on_c, 3, 79, 95
4, 142138, Pitch_bend_c, 3, 8320
4, 142196, Pitch_bend_c, 3, 8448
4, 142254, Pitch_bend_c, 3, 8576
4, 142312, Pitch_bend_c, 3, 8704
4, 142370, Pitch_bend_c, 3, 8832
4, 142428, Pitch_bend_c, 3, 8960
4, 142486, Pitch_bend_c, 3, 9088
4, 142544, Pitch_bend_c, 3, 9216
4, 142602, Pitch_bend_c, 3, 9344
4, 142660, Pitch_bend_c, 3, 9472
4, 142718, Pitch_bend_c, 3, 9600
4, 142720, Pitch_bend_c, 3, 9600
4, 143360, Pitch_bend_c, 3, 9600
4, 143360, Pitch_bend_c, 3, 8192
4, 143360, Note_off_c, 3, 79, 95
4, 143360, Note_on_c, 2, 79, 95
4, 143680, Note_off_c, 2, 79, 95
4, 143680, Pitch_bend_c, 3, 8192
4, 143680, Note_on_c, 3, 79, 95
4, 143694, Pitch_bend_c, 3, 8320
4, 143708, Pitch_bend_c, 3, 8448
4, 143722, Pitch_bend_c, 3, 8576
4, 143736, Pitch_bend_c, 3, 8704
4, 143750, Pitch_bend_c, 3, 8832
4, 143764, Pitch_bend_c, 3, 8960
4, 143778, Pitch_bend_c, 3, 9088
4, 143792, Pitch_bend_c, 3, 9216
4, 143806, Pitch_bend_c, 3, 9344
4, 143820, Pitch_bend_c, 3, 9472
4, 143834, Pitch_bend_c, 3, 9600
4, 143840, Pitch_bend_c, 3, 9600
4, 144000, Pitch_bend_c, 3, 9600
4, 144000, Pitch_bend_c, 3, 8192
4, 144000, Note_off_c, 3, 79, 95
4, 144000, Pitch_bend_c, 3, 8192
4, 144000, Note_on_c, 3, 74, 95
4, 144021, Pitch_bend_c, 3, 8320
4, 144042, Pitch_bend_c, 3, 8448
4, 144063, Pitch_bend_c, 3, 8576
4, 144084, Pitch_bend_c, 3, 8704
4, 144105, Pitch_bend_c, 3, 8832
4, 144126, Pitch_bend_c, 3, 8960
4, 144147, Pitch_bend_c, 3, 9088
4, 144168, Pitch_bend_c, 3, 9216
4, 144189, Pitch_bend_c, 3, 9344
4, 144210, Pitch_bend_c, 3, 9472
4, 144231, Pitch_bend_c, 3, 9600
4, 144240, Pitch_bend_c, 3, 9600
4, 144480, Pitch_bend_c, 3, 9600
4, 144480, Pitch_bend_c, 3, 8192
4, 144480, Note_off_c, 3, 74, 95
4, 144480, Note_on_c, 2, 74, 95
4, 144720, Note_off_c, 2, 74, 95
4, 144720, Note_on_c, 2, 72, 95
4, 144960, Note_off_c, 2, 72, 95
4, 144960, Note_on_c, 2, 74, 95
4, 145200, Note_off_c, 2, 74, 95
4, 145200, Note_on_c, 2, 69, 95
4, 145440, Note_off_c, 2, 69, 95
4, 145440, Note_on_c, 2, 72, 95
4, 145680, Note_off_c, 2, 72, 95
4, 145680, Pitch_bend_c, 3, 8192
4, 145680, Note_on_c, 3, 74, 95
4, 145712, Pitch_bend_c, 3, 8320
4, 145744, Pitch_bend_c, 3, 8448
4, 145776, Pitch_bend_c, 3, 8576
4, 145808, Pitch_bend_c, 3, 8704
4, 145840, Pitch_bend_c, 3, 8832
4, 145872, Pitch_bend_c, 3, 8960
4, 145904, Pitch_bend_c, 3, 9088
4, 145936, Pitch_bend_c, 3, 9216
4, 145968, Pitch_bend_c, 3, 9344
4, 146000, Pitch_bend_c, 3, 9472
4, 146032, Pitch_bend_c, 3, 9600
4, 146040, Pitch_bend_c, 3, 9600
4, 146400, Pitch_bend_c, 3, 9600
4, 146400, Pitch_bend_c, 3, 8192
4, 146400, Note_off_c, 3, 74, 95
4, 146400, Note_on_c, 3, 74, 95
4, 146560, Pitch_bend_c, 3, 8192
4, 146720, Pitch_bend_c, 3, 8320
4, 146880, Pitch_bend_c, 3, 8192
4, 147040, Pitch_bend_c, 3, 8320
4, 147120, Pitch_bend_c, 3, 8192
4, 147120, Pitch_bend_c, 3, 8320
4, 147120, Pitch_bend_c, 3, 8192
4, 147120, Note_off_c, 3, 74, 95
4, 147120, Note_on_c, 3, 74, 95
4, 147840, Note_off_c, 3, 74, 95
4, 148980, Note_on_c, 3, 65, 95
4, 149040, Note_off_c, 3, 65, 95
4, 149040, Note_on_c, 3, 66, 95
4, 149280, Note_off_c, 3, 66, 95
4, 149280, Note_on_c, 2, 69, 95
4, 149520, Note_off_c, 2, 69, 95
4, 149520, Note_on_c, 2, 74, 95
4, 149760, Note_off_c, 2, 74, 95
4, 149760, Pitch_bend_c, 3, 8192
4, 149760, Note_on_c, 3, 77, 95
4, 149832, Pitch_bend_c, 3, 8320
4, 149904, Pitch_bend_c, 3, 8448
4, 149976, Pitch_bend_c, 3, 8576
4, 150048, Pitch_bend_c, 3, 8704
4, 150120, Pitch_bend_c, 3, 8832
4, 150120, Pitch_bend_c, 3, 8832
4, 150480, Pitch_bend_c, 3, 8832
4, 150480, Pitch_bend_c, 3, 8192
4, 150480, Note_off_c, 3, 77, 95
4, 150480, Note_on_c, 2, 77, 95
4, 150720, Note_off_c, 2, 77, 95
4, 150720, Note_on_c, 2, 74, 95
4, 151040, Note_off_c, 2, 74, 95
4, 151040, Note_on_c, 2, 69, 95
4, 151360, Note_off_c, 2, 69, 95
4, 151360, Note_on_c, 2, 72, 95
4, 151680, Note_off_c, 2, 72, 95
4, 151680, Pitch_bend_c, 3, 8192
4, 151680, Note_on_c, 3, 72, 95
4, 151694, Pitch_bend_c, 3, 8320
4, 151708, Pitch_bend_c, 3, 8448
4, 151722, Pitch_bend_c, 3, 8576
4, 151736, Pitch_bend_c, 3, 8704
4, 151750, Pitch_bend_c, 3, 8832
4, 151764, Pitch_bend_c, 3, 8960
4, 151778, Pitch_bend_c, 3, 9088
4, 151792, Pitch_bend_c, 3, 9216
4, 151806, Pitch_bend_c, 3, 9344
4, 151820, Pitch_bend_c, 3, 9472
4, 151834, Pitch_bend_c, 3, 9600
4, 151840, Pitch_bend_c, 3, 9600
4, 152000, Pitch_bend_c, 3, 9600
4, 152000, Pitch_bend_c, 3, 8192
4, 152000, Note_off_c, 3, 72, 95
4, 152000, Note_on_c, 2, 74, 95
4, 152160, Note_off_c, 2, 74, 95
4, 152160, Note_on_c, 2, 72, 95
4, 152320, Note_off_c, 2, 72, 95
4, 152320, Note_on_c, 2, 69, 95
4, 152480, Note_off_c, 2, 69, 95
4, 152480, Pitch_bend_c, 3, 8192
4, 152480, Note_on_c, 3, 67, 95
4, 152487, Pitch_bend_c, 3, 8320
4, 152494, Pitch_bend_c, 3, 8448
4, 152501, Pitch_bend_c, 3, 8576
4, 152508, Pitch_bend_c, 3, 8704
4, 152515, Pitch_bend_c, 3, 8832
4, 152522, Pitch_bend_c, 3, 8960
4, 152529, Pitch_bend_c, 3, 9088
4, 152536, Pitch_bend_c, 3, 9216
4, 152543, Pitch_bend_c, 3, 9344
4, 152550, Pitch_bend_c, 3, 9472
4, 152557, Pitch_bend_c, 3, 9600
4, 152560, Pitch_bend_c, 3, 9600
4, 152640, Pitch_bend_c, 3, 9600
4, 152640, Pitch_bend_c, 3, 8192
4, 152640, Note_off_c, 3, 67, 95
4, 152640, Note_on_c, 2, 69, 95
4, 152800, Note_off_c, 2, 69, 95
4, 152800, Note_on_c, 2, 74, 95
4, 152960, Note_off_c, 2, 74, 95
4, 152960, Note_on_c, 2, 72, 95
4, 153120, Note_off_c, 2, 72, 95
4, 153120, Note_on_c, 2, 69, 95
4, 153280, Note_off_c, 2, 69, 95
4, 153280, Note_on_c, 2, 77, 95
4, 153440, Note_off_c, 2, 77, 95
4, 153440, Note_on_c, 2, 74, 95
4, 153600, Note_off_c, 2, 74, 95
4, 153600, Pitch_bend_c, 3, 8192
4, 153600, Note_on_c, 3, 77, 95
4, 153610, Pitch_bend_c, 3, 8320
4, 153620, Pitch_bend_c, 3, 8448
4, 153630, Pitch_bend_c, 3, 8576
4, 153640, Pitch_bend_c, 3, 8704
4, 153650, Pitch_bend_c, 3, 8832
4, 153660, Pitch_bend_c, 3, 8960
4, 153670, Pitch_bend_c, 3, 9088
4, 153680, Pitch_bend_c, 3, 9216
4, 153690, Pitch_bend_c, 3, 9344
4, 153700, Pitch_bend_c, 3, 9472
4, 153710, Pitch_bend_c, 3, 9600
4, 153720, Pitch_bend_c, 3, 9600
4, 153840, Pitch_bend_c, 3, 9600
4, 153840, Pitch_bend_c, 3, 8192
4, 153840, Note_off_c, 3, 77, 95
4, 153840, Note_on_c, 2, 77, 95
4, 154080, Note_off_c, 2, 77, 95
4, 154080, Note_on_c, 2, 74, 95
4, 154240, Note_off_c, 2, 74, 95
4, 154240, Note_on_c, 2, 77, 70
4, 154400, Note_off_c, 2, 77, 70
4, 154400, Note_on_c, 2, 74, 70
4, 154560, Note_off_c, 2, 74, 70
4, 154560, Note_on_c, 2, 72, 95
4, 154880, Note_off_c, 2, 72, 95
4, 154880, Note_on_c, 3, 74, 95
4, 155040, Pitch_bend_c, 3, 8192
4, 155200, Pitch_bend_c, 3, 8320
4, 155200, Pitch_bend_c, 3, 8192
4, 155200, Note_off_c, 3, 74, 95
4, 155200, Note_on_c, 2, 72, 95
4, 155520, Note_off_c, 2, 72, 95
4, 155520, Note_on_c, 3, 74, 95
4, 155680, Pitch_bend_c, 3, 8192
4, 155680, Pitch_bend_c, 3, 8320
4, 155680, Pitch_bend_c, 3, 8192
4, 155680, Note_off_c, 3, 74, 95
4, 155680, Note_on_c, 2, 72, 95
4, 155840, Note_off_c, 2, 72, 95
4, 155840, Note_on_c, 2, 74, 95
4, 156000, Note_off_c, 2, 74, 95
4, 156000, Note_on_c, 2, 72, 95
4, 156160, Note_off_c, 2, 72, 95
4, 156160, Note_on_c, 2, 74, 95
4, 156320, Note_off_c, 2, 74, 95
4, 156320, Note_on_c, 2, 72, 95
4, 156480, Note_off_c, 2, 72, 95
4, 156480, Note_on_c, 3, 74, 95
4, 156480, Note_on_c, 3, 69, 95
4, 156640, Pitch_bend_c, 3, 8192
4, 156640, Pitch_bend_c, 3, 8192
4, 156720, Pitch_bend_c, 3, 8320
4, 156720, Pitch_bend_c, 3, 8192
4, 156720, Note_off_c, 3, 74, 95
4, 156720, Pitch_bend_c, 3, 8320
4, 156720, Pitch_bend_c, 3, 8192
4, 156720, Note_off_c, 3, 69, 95
4, 156720, Note_on_c, 2, 72, 95
4, 156960, Note_off_c, 2, 72, 95
4, 156960, Pitch_bend_c, 3, 8192
4, 156960, Note_on_c, 3, 67, 95
4, 156963, Pitch_bend_c, 3, 8320
4, 156966, Pitch_bend_c, 3, 8448
4, 156969, Pitch_bend_c, 3, 8576
4, 156972, Pitch_bend_c, 3, 8704
4, 156975, Pitch_bend_c, 3, 8832
4, 156978, Pitch_bend_c, 3, 8960
4, 156981, Pitch_bend_c, 3, 9088
4, 156984, Pitch_bend_c, 3, 9216
4, 156987, Pitch_bend_c, 3, 9344
4, 156990, Pitch_bend_c, 3, 9472
4, 156993, Pitch_bend_c, 3, 9600
4, 157000, Pitch_bend_c, 3, 9600
4, 157040, Pitch_bend_c, 3, 9600
4, 157043, Pitch_bend_c, 3, 9472
4, 157046, Pitch_bend_c, 3, 9344
4, 157049, Pitch_bend_c, 3, 9216
4, 157052, Pitch_bend_c, 3, 9088
4, 157055, Pitch_bend_c, 3, 8960
4, 157058, Pitch_bend_c, 3, 8832
4, 157061, Pitch_bend_c, 3, 8704
4, 157064, Pitch_bend_c, 3, 8576
4, 157067, Pitch_bend_c, 3, 8448
4, 157070, Pitch_bend_c, 3, 8320
4, 157073, Pitch_bend_c, 3, 8192
4, 157080, Pitch_bend_c, 3, 8192
4, 157120, Pitch_bend_c, 3, 8192
4, 157120, Pitch_bend_c, 3, 8192
4, 157120, Note_off_c, 3, 67, 95
4, 157120, Note_on_c, 2, 67, 63
4, 157280, Note_off_c, 2, 67, 63
4, 157280, Note_on_c, 2, 65, 70
4, 157440, Note_off_c, 2, 65, 70
4, 157440, Note_on_c, 2, 62, 95
4, 157600, Note_off_c, 2, 62, 95
4, 157600, Note_on_c, 2, 61, 70
4, 157760, Note_off_c, 2, 61, 70
4, 157760, Note_on_c, 2, 62, 70
4, 157920, Note_off_c, 2, 62, 70
4, 158160, Pitch_bend_c, 3, 8192
4, 158160, Note_on_c, 3, 67, 95
4, 158170, Pitch_bend_c, 3, 8320
4, 158180, Pitch_bend_c, 3, 8448
4, 158190, Pitch_bend_c, 3, 8576
4, 158200, Pitch_bend_c, 3, 8704
4, 158210, Pitch_bend_c, 3, 8832
4, 158220, Pitch_bend_c, 3, 8960
4, 158230, Pitch_bend_c, 3, 9088
4, 158240, Pitch_bend_c, 3, 9216
4, 158250, Pitch_bend_c, 3, 9344
4, 158260, Pitch_bend_c, 3, 9472
4, 158270, Pitch_bend_c, 3, 9600
4, 158280, Pitch_bend_c, 3, 9600
4, 158400, Pitch_bend_c, 3, 9600
4, 158400, Pitch_bend_c, 3, 8192
4, 158400, Note_off_c, 3, 67, 95
4, 158400, Note_on_c, 2, 74, 95
4, 158400, Note_on_c, 2, 69, 95
4, 158720, Note_off_c, 2, 74, 95
4, 158720, Note_off_c, 2, 69, 95
4, 158720, Note_on_c, 2, 72, 95
4, 159040, Note_off_c, 2, 72, 95
4, 159040, Note_on_c, 2, 69, 95
4, 159360, Note_off_c, 2, 69, 95
4, 159360, Pitch_bend_c, 3, 8192
4, 159360, Note_on_c, 3, 67, 95
4, 159370, Pitch_bend_c, 3, 8320
4, 159380, Pitch_bend_c, 3, 8448
4, 159390, Pitch_bend_c, 3, 8576
4, 159400, Pitch_bend_c, 3, 8704
4, 159410, Pitch_bend_c, 3, 8832
4, 159420, Pitch_bend_c, 3, 8960
4, 159430, Pitch_bend_c, 3, 9088
4, 159440, Pitch_bend_c, 3, 9216
4, 159450, Pitch_bend_c, 3, 9344
4, 159460, Pitch_bend_c, 3, 9472
4, 159470, Pitch_bend_c, 3, 9600
4, 159480, Pitch_bend_c, 3, 9600
4, 159600, Pitch_bend_c, 3, 9600
4, 159600, Pitch_bend_c, 3, 8192
4, 159600, Note_off_c, 3, 67, 95
4, 159600, Note_on_c, 2, 67, 95
4, 159840, Note_off_c, 2, 67, 95
4, 159840, Note_on_c, 2, 65, 95
4, 160000, Note_off_c, 2, 65, 95
4, 160000, Pitch_bend_c, 3, 8192
4, 160000, Note_on_c, 3, 62, 95
4, 160007, Pitch_bend_c, 3, 8320
4, 160014, Pitch_bend_c, 3, 8448
4, 160021, Pitch_bend_c, 3, 8576
4, 160028, Pitch_bend_c, 3, 8704
4, 160035, Pitch_bend_c, 3, 8832
4, 160042, Pitch_bend_c, 3, 8960
4, 160049, Pitch_bend_c, 3, 9088
4, 160056, Pitch_bend_c, 3, 9216
4, 160063, Pitch_bend_c, 3, 9344
4, 160070, Pitch_bend_c, 3, 9472
4, 160077, Pitch_bend_c, 3, 9600
4, 160080, Pitch_bend_c, 3, 9600
4, 160160, Pitch_bend_c, 3, 9600
4, 160160, Pitch_bend_c, 3, 8192
4, 160160, Note_off_c, 3, 62, 95
4, 160160, Note_on_c, 2, 65, 95
4, 160320, Note_off_c, 2, 65, 95
4, 160320, Pitch_bend_c, 3, 8192
4, 160320, Note_on_c, 3, 67, 95
4, 160325, Pitch_bend_c, 3, 8320
4, 160330, Pitch_bend_c, 3, 8448
4, 160335, Pitch_bend_c, 3, 8576
4, 160340, Pitch_bend_c, 3, 8704
4, 160345, Pitch_bend_c, 3, 8832
4, 160350, Pitch_bend_c, 3, 8960
4, 160355, Pitch_bend_c, 3, 9088
4, 160360, Pitch_bend_c, 3, 9216
4, 160365, Pitch_bend_c, 3, 9344
4, 160370, Pitch_bend_c, 3, 9472
4, 160375, Pitch_bend_c, 3, 9600
4, 160380, Pitch_bend_c, 3, 9600
4, 160440, Pitch_bend_c, 3, 9600
4, 160440, Pitch_bend_c, 3, 8192
4, 160440, Note_off_c, 3, 67, 95
4, 160440, Note_on_c, 2, 67, 95
4, 160560, Note_off_c, 2, 67, 95
4, 160560, Note_on_c, 2, 65, 95
4, 160640, Note_off_c, 2, 65, 95
4, 160640, Note_on_c, 2, 62, 95
4, 160720, Note_off_c, 2, 62, 95
4, 160720, Note_on_c, 2, 65, 95
4, 160800, Note_off_c, 2, 65, 95
4, 160800, Pitch_bend_c, 3, 8192
4, 160800, Note_on_c, 3, 67, 95
4, 160805, Pitch_bend_c, 3, 8320
4, 160810, Pitch_bend_c, 3, 8448
4, 160815, Pitch_bend_c, 3, 8576
4, 160820, Pitch_bend_c, 3, 8704
4, 160825, Pitch_bend_c, 3, 8832
4, 160830, Pitch_bend_c, 3, 8960
4, 160835, Pitch_bend_c, 3, 9088
4, 160840, Pitch_bend_c, 3, 9216
4, 160845, Pitch_bend_c, 3, 9344
4, 160850, Pitch_bend_c, 3, 9472
4, 160855, Pitch_bend_c, 3, 9600
4, 160860, Pitch_bend_c, 3, 9600
4, 160920, Pitch_bend_c, 3, 9600
4, 160920, Pitch_bend_c, 3, 8192
4, 160920, Note_off_c, 3, 67, 95
4, 160920, Note_on_c, 2, 67, 95
4, 161040, Note_off_c, 2, 67, 95
4, 161040, Note_on_c, 2, 65, 95
4, 161120, Note_off_c, 2, 65, 95
4, 161120, Pitch_bend_c, 3, 8192
4, 161120, Note_on_c, 3, 62, 95
4, 161123, Pitch_bend_c, 3, 8320
4, 161126, Pitch_bend_c, 3, 8448
4, 161129, Pitch_bend_c, 3, 8576
4, 161132, Pitch_bend_c, 3, 8704
4, 161135, Pitch_bend_c, 3, 8832
4, 161138, Pitch_bend_c, 3, 8960
4, 161141, Pitch_bend_c, 3, 9088
4, 161144, Pitch_bend_c, 3, 9216
4, 161147, Pitch_bend_c, 3, 9344
4, 161150, Pitch_bend_c, 3, 9472
4, 161153, Pitch_bend_c, 3, 9600
4, 161160, Pitch_bend_c, 3, 9600
4, 161200, Pitch_bend_c, 3, 9600
4, 161200, Pitch_bend_c, 3, 8192
4, 161200, Note_off_c, 3, 62, 95
4, 161200, Note_on_c, 2, 65, 95
4, 161280, Note_off_c, 2, 65, 95
4, 161280, Pitch_bend_c, 3, 8192
4, 161280, Note_on_c, 3, 67, 95
4, 161287, Pitch_bend_c, 3, 8320
4, 161294, Pitch_bend_c, 3, 8448
4, 161301, Pitch_bend_c, 3, 8576
4, 161308, Pitch_bend_c, 3, 8704
4, 161315, Pitch_bend_c, 3, 8832
4, 161322, Pitch_bend_c, 3, 8960
4, 161329, Pitch_bend_c, 3, 9088
4, 161336, Pitch_bend_c, 3, 9216
4, 161343, Pitch_bend_c, 3, 9344
4, 161350, Pitch_bend_c, 3, 9472
4, 161357, Pitch_bend_c, 3, 9600
4, 161360, Pitch_bend_c, 3, 9600
4, 161440, Pitch_bend_c, 3, 9600
4, 161440, Pitch_bend_c, 3, 8192
4, 161440, Note_off_c, 3, 67, 95
4, 161440, Note_on_c, 2, 72, 95
4, 161600, Note_off_c, 2, 72, 95
4, 161600, Note_on_c, 2, 72, 95
4, 161760, Note_off_c, 2, 72, 95
4, 161760, Pitch_bend_c, 3, 8192
4, 161760, Note_on_c, 3, 67, 95
4, 161767, Pitch_bend_c, 3, 8320
4, 161774, Pitch_bend_c, 3, 8448
4, 161781, Pitch_bend_c, 3, 8576
4, 161788, Pitch_bend_c, 3, 8704
4, 161795, Pitch_bend_c, 3, 8832
4, 161802, Pitch_bend_c, 3, 8960
4, 161809, Pitch_bend_c, 3, 9088
4, 161816, Pitch_bend_c, 3, 9216
4, 161823, Pitch_bend_c, 3, 9344
4, 161830, Pitch_bend_c, 3, 9472
4, 161837, Pitch_bend_c, 3, 9600
4, 161840, Pitch_bend_c, 3, 9600
4, 161920, Pitch_bend_c, 3, 9600
4, 161920, Pitch_bend_c, 3, 8192
4, 161920, Note_off_c, 3, 67, 95
4, 161920, Note_on_c, 2, 72, 95
4, 162080, Note_off_c, 2, 72, 95
4, 162080, Note_on_c, 2, 72, 95
4, 162240, Note_off_c, 2, 72, 95
4, 162240, Pitch_bend_c, 3, 8192
4, 162240, Note_on_c, 3, 67, 95
4, 162254, Pitch_bend_c, 3, 8320
4, 162268, Pitch_bend_c, 3, 8448
4, 162282, Pitch_bend_c, 3, 8576
4, 162296, Pitch_bend_c, 3, 8704
4, 162310, Pitch_bend_c, 3, 8832
4, 162324, Pitch_bend_c, 3, 8960
4, 162338, Pitch_bend_c, 3, 9088
4, 162352, Pitch_bend_c, 3, 9216
4, 162366, Pitch_bend_c, 3, 9344
4, 162380, Pitch_bend_c, 3, 9472
4, 162394, Pitch_bend_c, 3, 9600
4, 162400, Pitch_bend_c, 3, 9600
4, 162560, Pitch_bend_c, 3, 9600
4, 162560, Pitch_bend_c, 3, 8192
4, 162560, Note_off_c, 3, 67, 95
4, 162560, Note_on_c, 3, 72, 95
4, 162720, Pitch_bend_c, 3, 8192
4, 162880, Pitch_bend_c, 3, 8320
4, 162880, Pitch_bend_c, 3, 8192
4, 162880, Note_off_c, 3, 72, 95
4, 162880, Note_on_c, 3, 72, 95
4, 163040, Pitch_bend_c, 3, 8192
4, 163200, Pitch_bend_c, 3, 8320
4, 163200, Pitch_bend_c, 3, 8192
4, 163200, Note_off_c, 3, 72, 95
4, 163200, Pitch_bend_c, 3, 8192
4, 163200, Note_on_c, 3, 67, 95
4, 163214, Pitch_bend_c, 3, 8320
4, 163228, Pitch_bend_c, 3, 8448
4, 163242, Pitch_bend_c, 3, 8576
4, 163256, Pitch_bend_c, 3, 8704
4, 163270, Pitch_bend_c, 3, 8832
4, 163284, Pitch_bend_c, 3, 8960
4, 163298, Pitch_bend_c, 3, 9088
4, 163312, Pitch_bend_c, 3, 9216
4, 163326, Pitch_bend_c, 3, 9344
4, 163340, Pitch_bend_c, 3, 9472
4, 163354, Pitch_bend_c, 3, 9600
4, 163360, Pitch_bend_c, 3, 9600
4, 163520, Pitch_bend_c, 3, 9600
4, 163520, Pitch_bend_c, 3, 8192
4, 163520, Note_off_c, 3, 67, 95
4, 163520, Note_on_c, 3, 72, 95
4, 163680, Pitch_bend_c, 3, 8192
4, 163840, Pitch_bend_c, 3, 8320
4, 163840, Pitch_bend_c, 3, 8192
4, 163840, Note_off_c, 3, 72, 95
4, 163840, Note_on_c, 3, 72, 95
4, 164000, Pitch_bend_c, 3, 8192
4, 164160, Pitch_bend_c, 3, 8320
4, 164160, Pitch_bend_c, 3, 8192
4, 164160, Note_off_c, 3, 72, 95
4, 164160, Pitch_bend_c, 3, 8192
4, 164160, Note_on_c, 3, 67, 95
4, 164184, Pitch_bend_c, 3, 8320
4, 164208, Pitch_bend_c, 3, 8448
4, 164232, Pitch_bend_c, 3, 8576
4, 164256, Pitch_bend_c, 3, 8704
4, 164280, Pitch_bend_c, 3, 8832
4, 164280, Pitch_bend_c, 3, 8832
4, 164400, Pitch_bend_c, 3, 8832
4, 164400, Pitch_bend_c, 3, 8192
4, 164400, Note_off_c, 3, 67, 95
4, 164400, Note_on_c, 3, 72, 95
4, 164560, Pitch_bend_c, 3, 8192
4, 164640, Pitch_bend_c, 3, 8320
4, 164640, Pitch_bend_c, 3, 8192
4, 164640, Note_off_c, 3, 72, 95
4, 164640, Pitch_bend_c, 3, 8192
4, 164640, Note_on_c, 3, 67, 95
4, 164661, Pitch_bend_c, 3, 8320
4, 164682, Pitch_bend_c, 3, 8448
4, 164703, Pitch_bend_c, 3, 8576
4, 164724, Pitch_bend_c, 3, 8704
4, 164745, Pitch_bend_c, 3, 8832
4, 164766, Pitch_bend_c, 3, 8960
4, 164787, Pitch_bend_c, 3, 9088
4, 164808, Pitch_bend_c, 3, 9216
4, 164829, Pitch_bend_c, 3, 9344
4, 164850, Pitch_bend_c, 3, 9472
4, 164871, Pitch_bend_c, 3, 9600
4, 164880, Pitch_bend_c, 3, 9600
4, 165120, Pitch_bend_c, 3, 9600
4, 165120, Pitch_bend_c, 3, 8192
4, 165120, Note_off_c, 3, 67, 95
4, 165120, Note_on_c, 2, 69, 95
4, 165120, Pitch_bend_c, 3, 8192
4, 165120, Note_on_c, 3, 67, 95
4, 165136, Pitch_bend_c, 3, 8320
4, 165152, Pitch_bend_c, 3, 8448
4, 165168, Pitch_bend_c, 3, 8576
4, 165184, Pitch_bend_c, 3, 8704
4, 165200, Pitch_bend_c, 3, 8832
4, 165216, Pitch_bend_c, 3, 8960
4, 165232, Pitch_bend_c, 3, 9088
4, 165248, Pitch_bend_c, 3, 9216
4, 165264, Pitch_bend_c, 3, 9344
4, 165280, Pitch_bend_c, 3, 9472
4, 165296, Pitch_bend_c, 3, 9600
4, 165300, Pitch_bend_c, 3, 9600
4, 165480, Pitch_bend_c, 3, 9600
4, 165496, Pitch_bend_c, 3, 9472
4, 165512, Pitch_bend_c, 3, 9344
4, 165528, Pitch_bend_c, 3, 9216
4, 165544, Pitch_bend_c, 3, 9088
4, 165560, Pitch_bend_c, 3, 8960
4, 165576, Pitch_bend_c, 3, 8832
4, 165592, Pitch_bend_c, 3, 8704
4, 165608, Pitch_bend_c, 3, 8576
4, 165624, Pitch_bend_c, 3, 8448
4, 165640, Pitch_bend_c, 3, 8320
4, 165656, Pitch_bend_c, 3, 8192
4, 165660, Pitch_bend_c, 3, 8192
4, 165840, Note_off_c, 2, 69, 95
4, 165840, Pitch_bend_c, 3, 8192
4, 165840, Pitch_bend_c, 3, 8192
4, 165840, Note_off_c, 3, 67, 95
4, 165840, Pitch_bend_c, 3, 8192
4, 165840, Note_on_c, 3, 67, 95
4, 165856, Pitch_bend_c, 3, 8320
4, 165872, Pitch_bend_c, 3, 8448
4, 165888, Pitch_bend_c, 3, 8576
4, 165904, Pitch_bend_c, 3, 8704
4, 165920, Pitch_bend_c, 3, 8832
4, 165936, Pitch_bend_c, 3, 8960
4, 165952, Pitch_bend_c, 3, 9088
4, 165968, Pitch_bend_c, 3, 9216
4, 165984, Pitch_bend_c, 3, 9344
4, 166000, Pitch_bend_c, 3, 9472
4, 166016, Pitch_bend_c, 3, 9600
4, 166020, Pitch_bend_c, 3, 9600
4, 166200, Pitch_bend_c, 3, 9600
4, 166216, Pitch_bend_c, 3, 9472
4, 166232, Pitch_bend_c, 3, 9344
4, 166248, Pitch_bend_c, 3, 9216
4, 166264, Pitch_bend_c, 3, 9088
4, 166280, Pitch_bend_c, 3, 8960
4, 166296, Pitch_bend_c, 3, 8832
4, 166312, Pitch_bend_c, 3, 8704
4, 166328, Pitch_bend_c, 3, 8576
4, 166344, Pitch_bend_c, 3, 8448
4, 166360, Pitch_bend_c, 3, 8320
4, 166376, Pitch_bend_c, 3, 8192
4, 166380, Pitch_bend_c, 3, 8192
4, 166560, Pitch_bend_c, 3, 8192
4, 166560, Pitch_bend_c, 3, 8192
4, 166560, Note_off_c, 3, 67, 95
4, 166560, Note_on_c, 2, 67, 63
4, 166680, Note_off_c, 2, 67, 63
4, 166680, Note_on_c, 2, 65, 70
4, 167040, Note_off_c, 2, 65, 70
4, 167520, Note_on_c, 2, 55, 95
4, 168000, Note_off_c, 2, 55, 95
4, 168000, Note_on_c, 3, 65, 95
4, 168120, Pitch_bend_c, 3, 8448
4, 168240, Pitch_bend_c, 3, 8832
4, 168360, Pitch_bend_c, 3, 9216
4, 168480, Pitch_bend_c, 3, 9600
4, 168480, Pitch_bend_c, 3, 8192
4, 168480, Note_off_c, 3, 65, 95
4, 168480, Note_on_c, 2, 67, 95
4, 168960, Note_off_c, 2, 67, 95
4, 169680, Note_on_c, 3, 59, 95
4, 169800, Pitch_bend_c, 3, 8832
4, 169920, Pitch_bend_c, 3, 9600
4, 169920, Pitch_bend_c, 3, 8192
4, 169920, Note_off_c, 3, 59, 95
4, 169920, Note_on_c, 2, 61, 95
4, 170160, Note_off_c, 2, 61, 95
4, 170160, Note_on_c, 2, 69, 95
4, 170400, Note_off_c, 2, 69, 95
4, 170400, Note_on_c, 3, 69, 95
4, 170560, Pitch_bend_c, 3, 8192
4, 170640, Pitch_bend_c, 3, 8320
4, 170640, Pitch_bend_c, 3, 8192
4, 170640, Note_off_c, 3, 69, 95
4, 170640, Note_on_c, 3, 59, 95
4, 170760, Pitch_bend_c, 3, 8448
4, 170880, Pitch_bend_c, 3, 8832
4, 170880, Pitch_bend_c, 3, 8192
4, 170880, Note_off_c, 3, 59, 95
4, 170880, Note_on_c, 2, 60, 95
4, 171120, Note_off_c, 2, 60, 95
4, 171120, Note_on_c, 3, 68, 95
4, 171280, Pitch_bend_c, 3, 8192
4, 171360, Pitch_bend_c, 3, 8320
4, 171360, Pitch_bend_c, 3, 8192
4, 171360, Note_off_c, 3, 68, 95
4, 171360, Note_on_c, 3, 59, 95
4, 171520, Pitch_bend_c, 3, 8192
4, 171680, Pitch_bend_c, 3, 8320
4, 171840, Pitch_bend_c, 3, 8192
4, 171840, Pitch_bend_c, 3, 8320
4, 171840, Pitch_bend_c, 3, 8192
4, 171840, Note_off_c, 3, 59, 95
4, 171840, Note_on_c, 3, 67, 95
4, 172000, Pitch_bend_c, 3, 8192
4, 172080, Pitch_bend_c, 3, 8320
4, 172080, Pitch_bend_c, 3, 8192
4, 172080, Note_off_c, 3, 67, 95
4, 172080, Note_on_c, 3, 57, 95
4, 172200, Pitch_bend_c, 3, 8832
4, 172320, Pitch_bend_c, 3, 9600
4, 172320, Pitch_bend_c, 3, 8192
4, 172320, Note_off_c, 3, 57, 95
4, 172320, Note_on_c, 2, 59, 95
4, 172560, Note_off_c, 2, 59, 95
4, 172560, Note_on_c, 3, 67, 95
4, 172680, Pitch_bend_c, 3, 7936
4, 172800, Pitch_bend_c, 3, 7552
4, 172800, Pitch_bend_c, 3, 8192
4, 172800, Note_off_c, 3, 67, 95
4, 172800, Note_on_c, 3, 66, 95
4, 172960, Pitch_bend_c, 3, 8192
4, 173120, Pitch_bend_c, 3, 8320
4, 173280, Pitch_bend_c, 3, 8192
4, 173440, Pitch_bend_c, 3, 8320
4, 173600, Pitch_bend_c, 3, 8192
4, 173760, Pitch_bend_c, 3, 8320
4, 173920, Pitch_bend_c, 3, 8192
4, 174080, Pitch_bend_c, 3, 8320
4, 174240, Pitch_bend_c, 3, 8192
4, 174400, Pitch_bend_c, 3, 8320
4, 174560, Pitch_bend_c, 3, 8192
4, 174720, Pitch_bend_c, 3, 8320
4, 174720, Pitch_bend_c, 3, 8192
4, 174720, Note_off_c, 3, 66, 95
4, 174720, Note_on_c, 3, 67, 95
4, 174840, Pitch_bend_c, 3, 8448
4, 174960, Pitch_bend_c, 3, 8832
4, 174960, Pitch_bend_c, 3, 8192
4, 174960, Note_off_c, 3, 67, 95
4, 174960, Note_on_c, 2, 68, 95
4, 175200, Note_off_c, 2, 68, 95
4, 175200, Note_on_c, 3, 76, 95
4, 175360, Pitch_bend_c, 3, 8192
4, 175520, Pitch_bend_c, 3, 8320
4, 175680, Pitch_bend_c, 3, 8192
4, 175840, Pitch_bend_c, 3, 8320
4, 176000, Pitch_bend_c, 3, 8192
4, 176160, Pitch_bend_c, 3, 8320
4, 176160, Pitch_bend_c, 3, 8192
4, 176160, Note_off_c, 3, 76, 95
4, 176160, Note_on_c, 3, 71, 95
4, 176320, Pitch_bend_c, 3, 8192
4, 176480, Pitch_bend_c, 3, 8320
4, 176640, Pitch_bend_c, 3, 8192
4, 176640, Pitch_bend_c, 3, 8320
4, 176640, Pitch_bend_c, 3, 8192
4, 176640, Note_off_c, 3, 71, 95
4, 176640, Note_on_c, 3, 72, 95
4, 176760, Pitch_bend_c, 3, 8448
4, 176880, Pitch_bend_c, 3, 8832
4, 176880, Pitch_bend_c, 3, 8192
4, 176880, Note_off_c, 3, 72, 95
4, 176880, Note_on_c, 2, 73, 95
4, 177120, Note_off_c, 2, 73, 95
4, 177120, Note_on_c, 2, 76, 95
4, 177360, Note_off_c, 2, 76, 95
4, 177360, Note_on_c, 2, 73, 95
4, 177600, Note_off_c, 2, 73, 95
4, 177600, Note_on_c, 2, 78, 95
4, 177720, Note_off_c, 2, 78, 95
4, 177720, Note_on_c, 2, 76, 70
4, 177840, Note_off_c, 2, 76, 70
4, 177840, Note_on_c, 2, 73, 95
4, 178080, Note_off_c, 2, 73, 95
4, 178080, Note_on_c, 2, 78, 95
4, 178200, Note_off_c, 2, 78, 95
4, 178200, Note_on_c, 2, 76, 70
4, 178320, Note_off_c, 2, 76, 70
4, 178320, Note_on_c, 2, 73, 95
4, 178560, Note_off_c, 2, 73, 95
4, 178560, Note_on_c, 2, 76, 95
4, 178680, Note_off_c, 2, 76, 95
4, 178680, Note_on_c, 2, 74, 70
4, 178800, Note_off_c, 2, 74, 70
4, 178800, Note_on_c, 2, 71, 95
4, 179040, Note_off_c, 2, 71, 95
4, 179040, Note_on_c, 2, 76, 95
4, 179160, Note_off_c, 2, 76, 95
4, 179160, Note_on_c, 2, 74, 70
4, 179280, Note_off_c, 2, 74, 70
4, 179280, Note_on_c, 2, 71, 95
4, 179520, Note_off_c, 2, 71, 95
4, 179520, Note_on_c, 2, 76, 95
4, 179640, Note_off_c, 2, 76, 95
4, 179640, Note_on_c, 2, 74, 70
4, 179760, Note_off_c, 2, 74, 70
4, 179760, Note_on_c, 2, 71, 95
4, 180000, Note_off_c, 2, 71, 95
4, 180000, Note_on_c, 2, 74, 95
4, 180240, Note_off_c, 2, 74, 95
4, 180240, Note_on_c, 2, 69, 95
4, 180480, Note_off_c, 2, 69, 95
4, 180480, Note_on_c, 2, 63, 95
4, 180480, Note_on_c, 2, 58, 95
4, 180524, Note_off_c, 2, 63, 95
4, 180524, Note_off_c, 2, 58, 95
4, 181380, Note_on_c, 3, 69, 79
4, 181440, Note_on_c, 2, 74, 95
4, 181440, Note_off_c, 3, 69, 79
4, 181440, Note_on_c, 3, 71, 95
4, 181920, Note_off_c, 2, 74, 95
4, 181920, Note_off_c, 3, 71, 95
4, 181920, Note_on_c, 2, 74, 95
4, 181920, Note_on_c, 2, 69, 95
4, 182160, Note_off_c, 2, 74, 95
4, 182160, Note_off_c, 2, 69, 95
4, 182160, Pitch_bend_c, 3, 8192
4, 182160, Note_on_c, 3, 67, 95
4, 182170, Pitch_bend_c, 3, 8320
4, 182180, Pitch_bend_c, 3, 8448
4, 182190, Pitch_bend_c, 3, 8576
4, 182200, Pitch_bend_c, 3, 8704
4, 182210, Pitch_bend_c, 3, 8832
4, 182220, Pitch_bend_c, 3, 8960
4, 182230, Pitch_bend_c, 3, 9088
4, 182240, Pitch_bend_c, 3, 9216
4, 182250, Pitch_bend_c, 3, 9344
4, 182260, Pitch_bend_c, 3, 9472
4, 182270, Pitch_bend_c, 3, 9600
4, 182280, Pitch_bend_c, 3, 9600
4, 182400, Pitch_bend_c, 3, 9600
4, 182400, Pitch_bend_c, 3, 8192
4, 182400, Note_off_c, 3, 67, 95
4, 182640, Pitch_bend_c, 3, 8192
4, 182640, Note_on_c, 3, 67, 95
4, 182650, Pitch_bend_c, 3, 8320
4, 182660, Pitch_bend_c, 3, 8448
4, 182670, Pitch_bend_c, 3, 8576
4, 182680, Pitch_bend_c, 3, 8704
4, 182690, Pitch_bend_c, 3, 8832
4, 182700, Pitch_bend_c, 3, 8960
4, 182710, Pitch_bend_c, 3, 9088
4, 182720, Pitch_bend_c, 3, 9216
4, 182730, Pitch_bend_c, 3, 9344
4, 182740, Pitch_bend_c, 3, 9472
4, 182750, Pitch_bend_c, 3, 9600
4, 182760, Pitch_bend_c, 3, 9600
4, 182880, Pitch_bend_c, 3, 9600
4, 182880, Pitch_bend_c, 3, 8192
4, 182880, Note_off_c, 3, 67, 95
4, 182880, Note_on_c, 2, 67, 95
4, 183000, Note_off_c, 2, 67, 95
4, 183000, Note_on_c, 2, 65, 70
4, 183120, Note_off_c, 2, 65, 70
4, 183120, Note_on_c, 2, 63, 95
4, 183360, Note_off_c, 2, 63, 95
4, 184260, Note_on_c, 3, 56, 95
4, 184320, Note_off_c, 3, 56, 95
4, 184320, Note_on_c, 3, 57, 95
4, 184480, Pitch_bend_c, 3, 8192
4, 184640, Pitch_bend_c, 3, 8320
4, 184800, Pitch_bend_c, 3, 8192
4, 184800, Pitch_bend_c, 3, 8320
4, 184800, Pitch_bend_c, 3, 8192
4, 184800, Note_off_c, 3, 57, 95
4, 184800, Note_on_c, 3, 67, 95
4, 184800, Note_on_c, 3, 61, 95
4, 184960, Pitch_bend_c, 3, 8192
4, 184960, Pitch_bend_c, 3, 8192
4, 185040, Pitch_bend_c, 3, 8320
4, 185040, Pitch_bend_c, 3, 8192
4, 185040, Note_off_c, 3, 67, 95
4, 185040, Pitch_bend_c, 3, 8320
4, 185040, Pitch_bend_c, 3, 8192
4, 185040, Note_off_c, 3, 61, 95
4, 185040, Note_on_c, 3, 71, 95
4, 185200, Pitch_bend_c, 3, 8192
4, 185280, Pitch_bend_c, 3, 8320
4, 185280, Pitch_bend_c, 3, 8192
4, 185280, Note_off_c, 3, 71, 95
4, 185280, Note_on_c, 3, 78, 95
4, 185440, Pitch_bend_c, 3, 8192
4, 185520, Pitch_bend_c, 3, 8320
4, 185520, Pitch_bend_c, 3, 8192
4, 185520, Note_off_c, 3, 78, 95
4, 185520, Note_on_c, 2, 76, 95
4, 185760, Note_off_c, 2, 76, 95
4, 185760, Note_on_c, 2, 67, 95
4, 186000, Note_off_c, 2, 67, 95
4, 186000, Note_on_c, 2, 57, 95
4, 186240, Note_off_c, 2, 57, 95
4, 186240, Note_on_c, 3, 56, 70
4, 186400, Pitch_bend_c, 3, 8192
4, 186480, Pitch_bend_c, 3, 8320
4, 186480, Pitch_bend_c, 3, 8192
4, 186480, Note_off_c, 3, 56, 70
4, 186480, Note_on_c, 3, 60, 95
4, 186640, Pitch_bend_c, 3, 8192
4, 186720, Pitch_bend_c, 3, 8320
4, 186720, Pitch_bend_c, 3, 8192
4, 186720, Note_off_c, 3, 60, 95
4, 186720, Note_on_c, 3, 77, 95
4, 186880, Pitch_bend_c, 3, 8192
4, 186960, Pitch_bend_c, 3, 8320
4, 186960, Pitch_bend_c, 3, 8192
4, 186960, Note_off_c, 3, 77, 95
4, 186960, Note_on_c, 3, 75, 95
4, 187120, Pitch_bend_c, 3, 8192
4, 187280, Pitch_bend_c, 3, 8320
4, 187440, Pitch_bend_c, 3, 8192
4, 187440, Pitch_bend_c, 3, 8320
4, 187440, Pitch_bend_c, 3, 8192
4, 187440, Note_off_c, 3, 75, 95
4, 187440, Note_on_c, 2, 77, 95
4, 187440, Note_on_c, 2, 72, 95
4, 187680, Note_off_c, 2, 77, 95
4, 187680, Note_off_c, 2, 72, 95
4, 187680, Note_on_c, 2, 75, 95
4, 188160, Note_off_c, 2, 75, 95
4, 188160, Note_on_c, 2, 55, 95
4, 188640, Note_off_c, 2, 55, 95
4, 188640, Note_on_c, 3, 71, 95
4, 188640, Note_on_c, 3, 67, 95
4, 188800, Pitch_bend_c, 3, 8192
4, 188800, Pitch_bend_c, 3, 8192
4, 188960, Pitch_bend_c, 3, 8320
4, 188960, Pitch_bend_c, 3, 8320
4, 189120, Pitch_bend_c, 3, 8192
4, 189120, Pitch_bend_c, 3, 8320
4, 189120, Pitch_bend_c, 3, 8192
4, 189120, Note_off_c, 3, 71, 95
4, 189120, Pitch_bend_c, 3, 8192
4, 189120, Pitch_bend_c, 3, 8320
4, 189120, Pitch_bend_c, 3, 8192
4, 189120, Note_off_c, 3, 67, 95
4, 189120, Note_on_c, 2, 71, 95
4, 189120, Note_on_c, 2, 67, 95
4, 189360, Note_off_c, 2, 71, 95
4, 189360, Note_off_c, 2, 67, 95
4, 189360, Note_on_c, 2, 59, 95
4, 189600, Note_off_c, 2, 59, 95
4, 189600, Note_on_c, 3, 67, 95
4, 189760, Pitch_bend_c, 3, 8192
4, 189920, Pitch_bend_c, 3, 8320
4, 190020, Note_on_c, 3, 58, 95
4, 190080, Pitch_bend_c, 3, 8192
4, 190080, Pitch_bend_c, 3, 8320
4, 190080, Pitch_bend_c, 3, 8192
4, 190080, Note_off_c, 3, 67, 95
4, 190080, Note_off_c, 3, 58, 95
4, 190080, Note_on_c, 3, 59, 95
4, 190240, Pitch_bend_c, 3, 8192
4, 190400, Pitch_bend_c, 3, 8320
4, 190560, Pitch_bend_c, 3, 8192
4, 190560, Pitch_bend_c, 3, 8320
4, 190560, Pitch_bend_c, 3, 8192
4, 190560, Note_off_c, 3, 59, 95
4, 190560, Note_on_c, 2, 67, 95
4, 190800, Note_off_c, 2, 67, 95
4, 190800, Note_on_c, 2, 59, 95
4, 190980, Note_on_c, 3, 62, 95
4, 191040, Note_off_c, 2, 59, 95
4, 191040, Note_on_c, 2, 67, 95
4, 191040, Note_off_c, 3, 62, 95
4, 191040, Note_on_c, 3, 64, 95
4, 191520, Note_off_c, 2, 67, 95
4, 191520, Note_off_c, 3, 64, 95
4, 191520, Note_on_c, 2, 71, 95
4, 191520, Note_on_c, 2, 67, 95
4, 192000, Note_off_c, 2, 71, 95
4, 192000, Note_off_c, 2, 67, 95
4, 193440, Pitch_bend_c, 3, 8192
4, 193440, Note_on_c, 3, 72, 95
4, 193450, Pitch_bend_c, 3, 8320
4, 193460, Pitch_bend_c, 3, 8448
4, 193470, Pitch_bend_c, 3, 8576
4, 193480, Pitch_bend_c, 3, 8704
4, 193490, Pitch_bend_c, 3, 8832
4, 193500, Pitch_bend_c, 3, 8960
4, 193510, Pitch_bend_c, 3, 9088
4, 193520, Pitch_bend_c, 3, 9216
4, 193530, Pitch_bend_c, 3, 9344
4, 193540, Pitch_bend_c, 3, 9472
4, 193550, Pitch_bend_c, 3, 9600
4, 193560, Pitch_bend_c, 3, 9600
4, 193680, Pitch_bend_c, 3, 9600
4, 193680, Pitch_bend_c, 3, 8192
4, 193680, Note_off_c, 3, 72, 95
4, 193680, Pitch_bend_c, 3, 8192
4, 193680, Note_on_c, 3, 72, 95
4, 193680, Pitch_bend_c, 3, 8192
4, 193680, Note_on_c, 3, 67, 95
4, 193682, Pitch_bend_c, 3, 8320
4, 193682, Pitch_bend_c, 3, 8320
4, 193684, Pitch_bend_c, 3, 8448
4, 193684, Pitch_bend_c, 3, 8448
4, 193686, Pitch_bend_c, 3, 8576
4, 193686, Pitch_bend_c, 3, 8576
4, 193688, Pitch_bend_c, 3, 8704
4, 193688, Pitch_bend_c, 3, 8704
4, 193690, Pitch_bend_c, 3, 8832
4, 193690, Pitch_bend_c, 3, 8832
4, 193692, Pitch_bend_c, 3, 8960
4, 193692, Pitch_bend_c, 3, 8960
4, 193694, Pitch_bend_c, 3, 9088
4, 193694, Pitch_bend_c, 3, 9088
4, 193696, Pitch_bend_c, 3, 9216
4, 193696, Pitch_bend_c, 3, 9216
4, 193698, Pitch_bend_c, 3, 9344
4, 193698, Pitch_bend_c, 3, 9344
4, 193700, Pitch_bend_c, 3, 9472
4, 193700, Pitch_bend_c, 3, 9472
4, 193702, Pitch_bend_c, 3, 9600
4, 193702, Pitch_bend_c, 3, 9600
4, 193710, Pitch_bend_c, 3, 9600
4, 193710, Pitch_bend_c, 3, 9600
4, 193740, Pitch_bend_c, 3, 9600
4, 193740, Pitch_bend_c, 3, 9600
4, 193742, Pitch_bend_c, 3, 9472
4, 193742, Pitch_bend_c, 3, 9472
4, 193744, Pitch_bend_c, 3, 9344
4, 193744, Pitch_bend_c, 3, 9344
4, 193746, Pitch_bend_c, 3, 9216
4, 193746, Pitch_bend_c, 3, 9216
4, 193748, Pitch_bend_c, 3, 9088
4, 193748, Pitch_bend_c, 3, 9088
4, 193750, Pitch_bend_c, 3, 8960
4, 193750, Pitch_bend_c, 3, 8960
4, 193752, Pitch_bend_c, 3, 8832
4, 193752, Pitch_bend_c, 3, 8832
4, 193754, Pitch_bend_c, 3, 8704
4, 193754, Pitch_bend_c, 3, 8704
4, 193756, Pitch_bend_c, 3, 8576
4, 193756, Pitch_bend_c, 3, 8576
4, 193758, Pitch_bend_c, 3, 8448
4, 193758, Pitch_bend_c, 3, 8448
4, 193760, Pitch_bend_c, 3, 8320
4, 193760, Pitch_bend_c, 3, 8320
4, 193762, Pitch_bend_c, 3, 8192
4, 193762, Pitch_bend_c, 3, 8192
4, 193770, Pitch_bend_c, 3, 8192
4, 193770, Pitch_bend_c, 3, 8192
4, 193800, Pitch_bend_c, 3, 8192
4, 193800, Pitch_bend_c, 3, 8192
4, 193800, Note_off_c, 3, 72, 95
4, 193800, Pitch_bend_c, 3, 8192
4, 193800, Pitch_bend_c, 3, 8192
4, 193800, Note_off_c, 3, 67, 95
4, 193800, Note_on_c, 2, 72, 63
4, 193800, Note_on_c, 2, 67, 63
4, 193920, Note_off_c, 2, 72, 63
4, 193920, Note_off_c, 2, 67, 63
4, 193920, Note_on_c, 2, 65, 95
4, 194240, Note_off_c, 2, 65, 95
4, 194240, Pitch_bend_c, 3, 8192
4, 194240, Note_on_c, 3, 67, 95
4, 194254, Pitch_bend_c, 3, 8320
4, 194268, Pitch_bend_c, 3, 8448
4, 194282, Pitch_bend_c, 3, 8576
4, 194296, Pitch_bend_c, 3, 8704
4, 194310, Pitch_bend_c, 3, 8832
4, 194324, Pitch_bend_c, 3, 8960
4, 194338, Pitch_bend_c, 3, 9088
4, 194352, Pitch_bend_c, 3, 9216
4, 194366, Pitch_bend_c, 3, 9344
4, 194380, Pitch_bend_c, 3, 9472
4, 194394, Pitch_bend_c, 3, 9600
4, 194400, Pitch_bend_c, 3, 9600
4, 194560, Pitch_bend_c, 3, 9600
4, 194560, Pitch_bend_c, 3, 8192
4, 194560, Note_off_c, 3, 67, 95
4, 194560, Note_on_c, 2, 67, 95
4, 194880, Note_off_c, 2, 67, 95
4, 194880, Note_on_c, 3, 65, 95
4, 195040, Pitch_bend_c, 3, 8192
4, 195200, Pitch_bend_c, 3, 8320
4, 195200, Pitch_bend_c, 3, 8192
4, 195200, Note_off_c, 3, 65, 95
4, 195200, Note_on_c, 2, 62, 95
4, 195360, Note_off_c, 2, 62, 95
4, 195360, Note_on_c, 2, 60, 70
4, 195520, Note_off_c, 2, 60, 70
4, 195520, Note_on_c, 2, 57, 95
4, 195680, Note_off_c, 2, 57, 95
4, 195680, Note_on_c, 2, 55, 70
4, 195840, Note_off_c, 2, 55, 70
4, 197040, Pitch_bend_c, 3, 8192
4, 197040, Note_on_c, 3, 77, 95
4, 197220, Pitch_bend_c, 3, 8320
4, 197400, Pitch_bend_c, 3, 8448
4, 197400, Pitch_bend_c, 3, 8448
4, 197760, Pitch_bend_c, 3, 8448
4, 197760, Pitch_bend_c, 3, 8192
4, 197760, Note_off_c, 3, 77, 95
4, 197760, Note_on_c, 3, 74, 95
4, 197920, Pitch_bend_c, 3, 8192
4, 197920, Pitch_bend_c, 3, 8320
4, 197920, Pitch_bend_c, 3, 8192
4, 197920, Note_off_c, 3, 74, 95
4, 197920, Note_on_c, 2, 72, 95
4, 198080, Note_off_c, 2, 72, 95
4, 198080, Note_on_c, 2, 69, 70
4, 198240, Note_off_c, 2, 69, 70
4, 198240, Pitch_bend_c, 3, 8192
4, 198240, Note_on_c, 3, 67, 95
4, 198247, Pitch_bend_c, 3, 8320
4, 198254, Pitch_bend_c, 3, 8448
4, 198261, Pitch_bend_c, 3, 8576
4, 198268, Pitch_bend_c, 3, 8704
4, 198275, Pitch_bend_c, 3, 8832
4, 198282, Pitch_bend_c, 3, 8960
4, 198289, Pitch_bend_c, 3, 9088
4, 198296, Pitch_bend_c, 3, 9216
4, 198303, Pitch_bend_c, 3, 9344
4, 198310, Pitch_bend_c, 3, 9472
4, 198317, Pitch_bend_c, 3, 9600
4, 198320, Pitch_bend_c, 3, 9600
4, 198400, Pitch_bend_c, 3, 9600
4, 198400, Pitch_bend_c, 3, 8192
4, 198400, Note_off_c, 3, 67, 95
4, 198400, Note_on_c, 2, 67, 95
4, 198560, Note_off_c, 2, 67, 95
4, 198560, Note_on_c, 2, 65, 95
4, 198660, Note_on_c, 3, 62, 95
4, 198720, Note_off_c, 2, 65, 95
4, 198720, Note_on_c, 2, 67, 95
4, 198720, Note_off_c, 3, 62, 95
4, 198720, Note_on_c, 3, 49, 95
4, 198880, Note_off_c, 2, 67, 95
4, 198880, Note_off_c, 3, 49, 95
4, 198880, Note_on_c, 2, 62, 95
4, 199040, Note_off_c, 2, 62, 95
4, 199040, Note_on_c, 2, 65, 95
4, 199200, Note_off_c, 2, 65, 95
4, 199200, Note_on_c, 2, 62, 95
4, 199300, Note_on_c, 3, 60, 95
4, 199360, Note_off_c, 2, 62, 95
4, 199360, Note_off_c, 3, 60, 95
4, 199360, Note_on_c, 3, 49, 70
4, 199360, Note_on_c, 2, 57, 95
4, 199520, Note_off_c, 3, 49, 70
4, 199520, Note_off_c, 2, 57, 95
4, 199520, Note_on_c, 2, 55, 70
4, 199680, Note_off_c, 2, 55, 70
4, 201120, Note_on_c, 2, 72, 95
4, 201120, Pitch_bend_c, 3, 8192
4, 201120, Note_on_c, 3, 67, 95
4, 201294, Pitch_bend_c, 3, 8320
4, 201468, Pitch_bend_c, 3, 8448
4, 201642, Pitch_bend_c, 3, 8576
4, 201816, Pitch_bend_c, 3, 8704
4, 201990, Pitch_bend_c, 3, 8832
4, 202164, Pitch_bend_c, 3, 8960
4, 202338, Pitch_bend_c, 3, 9088
4, 202512, Pitch_bend_c, 3, 9216
4, 202686, Pitch_bend_c, 3, 9344
4, 202860, Pitch_bend_c, 3, 9472
4, 203034, Pitch_bend_c, 3, 9600
4, 203040, Pitch_bend_c, 3, 9600
4, 204960, Note_off_c, 2, 72, 95
4, 204960, Pitch_bend_c, 3, 9600
4, 204960, Pitch_bend_c, 3, 8192
4, 204960, Note_off_c, 3, 67, 95
4, 204960, Note_on_c, 2, 72, 95
4, 204960, Pitch_bend_c, 3, 8192
4, 204960, Note_on_c, 3, 67, 95
4, 204981, Pitch_bend_c, 3, 8320
4, 205002, Pitch_bend_c, 3, 8448
4, 205023, Pitch_bend_c, 3, 8576
4, 205044, Pitch_bend_c, 3, 8704
4, 205065, Pitch_bend_c, 3, 8832
4, 205086, Pitch_bend_c, 3, 8960
4, 205107, Pitch_bend_c, 3, 9088
4, 205128, Pitch_bend_c, 3, 9216
4, 205149, Pitch_bend_c, 3, 9344
4, 205170, Pitch_bend_c, 3, 9472
4, 205191, Pitch_bend_c, 3, 9600
4, 205200, Pitch_bend_c, 3, 9600
4, 205440, Note_off_c, 2, 72, 95
4, 205440, Pitch_bend_c, 3, 9600
4, 205440, Pitch_bend_c, 3, 8192
4, 205440, Note_off_c, 3, 67, 95
4, 205440, Note_on_c, 2, 72, 95
4, 205440, Pitch_bend_c, 3, 8192
4, 205440, Note_on_c, 3, 67, 95
4, 205461, Pitch_bend_c, 3, 8320
4, 205482, Pitch_bend_c, 3, 8448
4, 205503, Pitch_bend_c, 3, 8576
4, 205524, Pitch_bend_c, 3, 8704
4, 205545, Pitch_bend_c, 3, 8832
4, 205566, Pitch_bend_c, 3, 8960
4, 205587, Pitch_bend_c, 3, 9088
4, 205608, Pitch_bend_c, 3, 9216
4, 205629, Pitch_bend_c, 3, 9344
4, 205650, Pitch_bend_c, 3, 9472
4, 205671, Pitch_bend_c, 3, 9600
4, 205680, Pitch_bend_c, 3, 9600
4, 205920, Note_off_c, 2, 72, 95
4, 205920, Pitch_bend_c, 3, 9600
4, 205920, Pitch_bend_c, 3, 8192
4, 205920, Note_off_c, 3, 67, 95
4, 205920, Note_on_c, 2, 65, 95
4, 206400, Note_off_c, 2, 65, 95
4, 206400, Note_on_c, 2, 62, 95
4, 206880, Note_off_c, 2, 62, 95
4, 206880, Note_on_c, 2, 60, 95
4, 207300, Note_on_c, 3, 68, 95
4, 207360, Note_off_c, 2, 60, 95
4, 207360, Note_off_c, 3, 68, 95
4, 207360, Note_on_c, 3, 69, 63
4, 207840, Note_off_c, 3, 69, 63
4, 207840, Note_on_c, 3, 78, 95
4, 208000, Pitch_bend_c, 3, 8192
4, 208160, Pitch_bend_c, 3, 8320
4, 208320, Pitch_bend_c, 3, 8192
4, 208480, Pitch_bend_c, 3, 8320
4, 208640, Pitch_bend_c, 3, 8192
4, 208800, Pitch_bend_c, 3, 8320
4, 208960, Pitch_bend_c, 3, 8192
4, 209120, Pitch_bend_c, 3, 8320
4, 209220, Note_on_c, 3, 70, 95
4, 209280, Pitch_bend_c, 3, 8192
4, 209280, Pitch_bend_c, 3, 8320
4, 209280, Pitch_bend_c, 3, 8192
4, 209280, Note_off_c, 3, 78, 95
4, 209280, Note_off_c, 3, 70, 95
4, 209280, Note_on_c, 3, 71, 95
4, 209760, Note_off_c, 3, 71, 95
4, 209760, Note_on_c, 3, 79, 95
4, 209920, Pitch_bend_c, 3, 8192
4, 210000, Pitch_bend_c, 3, 8320
4, 210000, Pitch_bend_c, 3, 8192
4, 210000, Note_off_c, 3, 79, 95
4, 210000, Note_on_c, 2, 71, 95
4, 210240, Note_off_c, 2, 71, 95
4, 210240, Note_on_c, 3, 79, 95
4, 210400, Pitch_bend_c, 3, 8192
4, 210480, Pitch_bend_c, 3, 8320
4, 210480, Pitch_bend_c, 3, 8192
4, 210480, Note_off_c, 3, 79, 95
4, 210480, Note_on_c, 2, 71, 63
4, 211140, Note_on_c, 3, 72, 95
4, 211200, Note_off_c, 2, 71, 63
4, 211200, Note_off_c, 3, 72, 95
4, 211200, Note_on_c, 3, 73, 95
4, 211360, Pitch_bend_c, 3, 8192
4, 211520, Pitch_bend_c, 3, 8320
4, 211680, Pitch_bend_c, 3, 8192
4, 211840, Pitch_bend_c, 3, 8320
4, 212000, Pitch_bend_c, 3, 8192
4, 212160, Pitch_bend_c, 3, 8320
4, 212160, Pitch_bend_c, 3, 8192
4, 212160, Note_off_c, 3, 73, 95
4, 212160, Note_on_c, 3, 81, 95
4, 212320, Pitch_bend_c, 3, 8192
4, 212480, Pitch_bend_c, 3, 8320
4, 212640, Pitch_bend_c, 3, 8192
4, 212640, Pitch_bend_c, 3, 8320
4, 212640, Pitch_bend_c, 3, 8192
4, 212640, Note_off_c, 3, 81, 95
4, 212640, Note_on_c, 2, 73, 95
4, 213120, Note_off_c, 2, 73, 95
4, 213120, Note_on_c, 3, 71, 95
4, 213280, Pitch_bend_c, 3, 8192
4, 213440, Pitch_bend_c, 3, 8320
4, 213600, Pitch_bend_c, 3, 8192
4, 213600, Pitch_bend_c, 3, 8320
4, 213600, Pitch_bend_c, 3, 8192
4, 213600, Note_off_c, 3, 71, 95
4, 213600, Note_on_c, 3, 79, 95
4, 213760, Pitch_bend_c, 3, 8192
4, 213920, Pitch_bend_c, 3, 8320
4, 214080, Pitch_bend_c, 3, 8192
4, 214080, Pitch_bend_c, 3, 8320
4, 214080, Pitch_bend_c, 3, 8192
4, 214080, Note_off_c, 3, 79, 95
4, 214500, Note_on_c, 3, 70, 95
4, 214560, Note_off_c, 3, 70, 95
4, 214560, Note_on_c, 3, 71, 95
4, 215040, Note_off_c, 3, 71, 95
4, 215040, Note_on_c, 3, 74, 95
4, 215200, Pitch_bend_c, 3, 8192
4, 215360, Pitch_bend_c, 3, 8320
4, 215520, Pitch_bend_c, 3, 8192
4, 215680, Pitch_bend_c, 3, 8320
4, 215840, Pitch_bend_c, 3, 8192
4, 216000, Pitch_bend_c, 3, 8320
4, 216000, Pitch_bend_c, 3, 8192
4, 216000, Note_off_c, 3, 74, 95
4, 216000, Note_on_c, 3, 71, 95
4, 216480, Note_off_c, 3, 71, 95
4, 217380, Note_on_c, 3, 67, 95
4, 217440, Note_off_c, 3, 67, 95
4, 217440, Note_on_c, 3, 68, 95
4, 217600, Pitch_bend_c, 3, 8192
4, 217760, Pitch_bend_c, 3, 8320
4, 217920, Pitch_bend_c, 3, 8192
4, 217920, Pitch_bend_c, 3, 8320
4, 217920, Pitch_bend_c, 3, 8192
4, 217920, Note_off_c, 3, 68, 95
4, 217920, Note_on_c, 3, 76, 95
4, 218080, Pitch_bend_c, 3, 8192
4, 218240, Pitch_bend_c, 3, 8320
4, 218400, Pitch_bend_c, 3, 8192
4, 218400, Pitch_bend_c, 3, 8320
4, 218400, Pitch_bend_c, 3, 8192
4, 218400, Note_off_c, 3, 76, 95
4, 218400, Note_on_c, 2, 76, 95
4, 218640, Note_off_c, 2, 76, 95
4, 218640, Note_on_c, 3, 72, 95
4, 218760, Pitch_bend_c, 3, 8448
4, 218880, Pitch_bend_c, 3, 8832
4, 218880, Pitch_bend_c, 3, 8192
4, 218880, Note_off_c, 3, 72, 95
4, 218880, Note_on_c, 2, 73, 95
4, 219120, Note_off_c, 2, 73, 95
4, 219120, Note_on_c, 2, 76, 95
4, 219360, Note_off_c, 2, 76, 95
4, 219360, Note_on_c, 2, 73, 95
4, 219600, Note_off_c, 2, 73, 95
4, 219600, Note_on_c, 2, 76, 95
4, 219840, Note_off_c, 2, 76, 95
4, 219840, Note_on_c, 2, 78, 95
4, 219960, Note_off_c, 2, 78, 95
4, 219960, Note_on_c, 2, 76, 70
4, 220080, Note_off_c, 2, 76, 70
4, 220080, Note_on_c, 2, 73, 95
4, 220320, Note_off_c, 2, 73, 95
4, 220320, Note_on_c, 2, 76, 95
4, 220560, Note_off_c, 2, 76, 95
4, 220560, Note_on_c, 2, 74, 95
4, 220800, Note_off_c, 2, 74, 95
4, 220800, Pitch_bend_c, 3, 8192
4, 220800, Note_on_c, 3, 77, 95
4, 220920, Pitch_bend_c, 3, 8320
4, 221040, Pitch_bend_c, 3, 8448
4, 221040, Pitch_bend_c, 3, 8448
4, 221280, Pitch_bend_c, 3, 8448
4, 221280, Pitch_bend_c, 3, 8192
4, 221280, Note_off_c, 3, 77, 95
4, 221280, Note_on_c, 2, 74, 95
4, 221760, Note_off_c, 2, 74, 95
4, 221760, Note_on_c, 2, 72, 95
4, 222000, Note_off_c, 2, 72, 95
4, 222000, Note_on_c, 2, 69, 95
4, 222240, Note_off_c, 2, 69, 95
4, 222240, Pitch_bend_c, 3, 8192
4, 222240, Note_on_c, 3, 67, 95
4, 222250, Pitch_bend_c, 3, 8320
4, 222260, Pitch_bend_c, 3, 8448
4, 222270, Pitch_bend_c, 3, 8576
4, 222280, Pitch_bend_c, 3, 8704
4, 222290, Pitch_bend_c, 3, 8832
4, 222300, Pitch_bend_c, 3, 8960
4, 222310, Pitch_bend_c, 3, 9088
4, 222320, Pitch_bend_c, 3, 9216
4, 222330, Pitch_bend_c, 3, 9344
4, 222340, Pitch_bend_c, 3, 9472
4, 222350, Pitch_bend_c, 3, 9600
4, 222360, Pitch_bend_c, 3, 9600
4, 222480, Pitch_bend_c, 3, 9600
4, 222480, Pitch_bend_c, 3, 8192
4, 222480, Note_off_c, 3, 67, 95
4, 222480, Note_on_c, 2, 65, 95
4, 222720, Note_off_c, 2, 65, 95
4, 222720, Note_on_c, 2, 62, 95
4, 223200, Note_off_c, 2, 62, 95
4, 223200, Note_on_c, 3, 60, 95
4, 223360, Pitch_bend_c, 3, 8192
4, 223520, Pitch_bend_c, 3, 8320
4, 223680, Pitch_bend_c, 3, 8192
4, 223680, Pitch_bend_c, 3, 8320
4, 223680, Pitch_bend_c, 3, 8192
4, 223680, Note_off_c, 3, 60, 95
4, 223680, Note_on_c, 2, 67, 63
4, 224160, Note_off_c, 2, 67, 63
4, 224160, Pitch_bend_c, 3, 8192
4, 224160, Note_on_c, 3, 79, 95
4, 224203, Pitch_bend_c, 3, 8320
4, 224246, Pitch_bend_c, 3, 8448
4, 224289, Pitch_bend_c, 3, 8576
4, 224332, Pitch_bend_c, 3, 8704
4, 224375, Pitch_bend_c, 3, 8832
4, 224418, Pitch_bend_c, 3, 8960
4, 224461, Pitch_bend_c, 3, 9088
4, 224504, Pitch_bend_c, 3, 9216
4, 224547, Pitch_bend_c, 3, 9344
4, 224590, Pitch_bend_c, 3, 9472
4, 224633, Pitch_bend_c, 3, 9600
4, 224640, Pitch_bend_c, 3, 9600
4, 225120, Pitch_bend_c, 3, 9600
4, 225120, Pitch_bend_c, 3, 8192
4, 225120, Note_off_c, 3, 79, 95
4, 225120, Note_on_c, 3, 77, 95
4, 225280, Pitch_bend_c, 3, 8192
4, 225440, Pitch_bend_c, 3, 8320
4, 225600, Pitch_bend_c, 3, 8192
4, 225600, Pitch_bend_c, 3, 8320
4, 225600, Pitch_bend_c, 3, 8192
4, 225600, Note_off_c, 3, 77, 95
4, 225600, Note_on_c, 3, 74, 95
4, 226080, Note_off_c, 3, 74, 95
4, 227040, Note_on_c, 2, 57, 95
4, 227280, Note_off_c, 2, 57, 95
4, 227280, Note_on_c, 2, 61, 95
4, 227520, Note_off_c, 2, 61, 95
4, 227520, Note_on_c, 2, 67, 95
4, 227760, Note_off_c, 2, 67, 95
4, 227760, Note_on_c, 2, 78, 95
4, 228000, Note_off_c, 2, 78, 95
4, 228000, Note_on_c, 3, 76, 95
4, 228160, Pitch_bend_c, 3, 8192
4, 228320, Pitch_bend_c, 3, 8320
4, 228480, Pitch_bend_c, 3, 8192
4, 228480, Pitch_bend_c, 3, 8320
4, 228480, Pitch_bend_c, 3, 8192
4, 228480, Note_off_c, 3, 76, 95
4, 228480, Note_on_c, 2, 56, 95
4, 228720, Note_off_c, 2, 56, 95
4, 228720, Note_on_c, 2, 60, 95
4, 228960, Note_off_c, 2, 60, 95
4, 228960, Note_on_c, 2, 70, 95
4, 229200, Note_off_c, 2, 70, 95
4, 229200, Note_on_c, 2, 66, 95
4, 229440, Note_off_c, 2, 66, 95
4, 229440, Note_on_c, 2, 77, 95
4, 229440, Note_on_c, 2, 72, 95
4, 229680, Note_off_c, 2, 77, 95
4, 229680, Note_off_c, 2, 72, 95
4, 229680, Note_on_c, 2, 75, 95
4, 229680, Note_on_c, 2, 70, 95
4, 229920, Note_off_c, 2, 75, 95
4, 229920, Note_off_c, 2, 70, 95
4, 229920, Note_on_c, 2, 66, 63
4, 230400, Note_off_c, 2, 66, 63
4, 230400, Note_on_c, 2, 55, 95
4, 230880, Note_off_c, 2, 55, 95
4, 230880, Note_on_c, 2, 65, 95
4, 230880, Note_on_c, 2, 59, 95
4, 231360, Note_off_c, 2, 65, 95
4, 231360, Note_off_c, 2, 59, 95
4, 231360, Note_on_c, 2, 76, 95
4, 231360, Note_on_c, 2, 69, 95
4, 231840, Note_off_c, 2, 76, 95
4, 231840, Note_off_c, 2, 69, 95
4, 231840, Note_on_c, 2, 74, 95
4, 231840, Note_on_c, 2, 69, 95
4, 232080, Note_off_c, 2, 74, 95
4, 232080, Note_off_c, 2, 69, 95
4, 232080, Note_on_c, 2, 65, 95
4, 232320, Note_off_c, 2, 65, 95
4, 232320, Note_on_c, 2, 74, 95
4, 232320, Note_on_c, 2, 69, 95
4, 232440, Note_off_c, 2, 74, 95
4, 232440, Note_off_c, 2, 69, 95
4, 232440, Note_on_c, 2, 76, 70
4, 232440, Note_on_c, 2, 71, 70
4, 232800, Note_off_c, 2, 76, 70
4, 232800, Note_off_c, 2, 71, 70
4, 232800, Note_on_c, 2, 74, 95
4, 233040, Note_off_c, 2, 74, 95
4, 233040, Note_on_c, 2, 69, 95
4, 233280, Note_off_c, 2, 69, 95
4, 233280, Note_on_c, 2, 59, 95
4, 233520, Note_off_c, 2, 59, 95
4, 233520, Note_on_c, 2, 76, 95
4, 233760, Note_off_c, 2, 76, 95
4, 233760, Note_on_c, 2, 74, 95
4, 233760, Note_on_c, 2, 65, 95
4, 234000, Note_off_c, 2, 74, 95
4, 234000, Note_off_c, 2, 65, 95
4, 234000, Note_on_c, 2, 65, 95
4, 234240, Note_off_c, 2, 65, 95
4, 234240, Note_on_c, 2, 64, 95
4, 234720, Note_off_c, 2, 64, 95
4, 234720, Note_on_c, 2, 74, 95
4, 234960, Note_off_c, 2, 74, 95
4, 234960, Note_on_c, 2, 74, 95
4, 235200, Note_off_c, 2, 74, 95
4, 235200, Note_on_c, 2, 76, 95
4, 235440, Note_off_c, 2, 76, 95
4, 235440, Note_on_c, 2, 74, 95
4, 235680, Note_off_c, 2, 74, 95
4, 235680, Note_on_c, 2, 69, 95
4, 235920, Note_off_c, 2, 69, 95
4, 235920, Note_on_c, 2, 65, 95
4, 235920, Note_on_c, 2, 59, 95
4, 236160, Note_off_c, 2, 65, 95
4, 236160, Note_off_c, 2, 59, 95
4, 236160, Note_on_c, 2, 74, 95
4, 236160, Note_on_c, 2, 69, 95
4, 236160, Note_on_c, 2, 65, 95
4, 236400, Note_off_c, 2, 74, 95
4, 236400, Note_off_c, 2, 69, 95
4, 236400, Note_off_c, 2, 65, 95
4, 236400, Note_on_c, 2, 74, 95
4, 236400, Note_on_c, 2, 69, 95
4, 236400, Note_on_c, 2, 65, 95
4, 236640, Note_off_c, 2, 74, 95
4, 236640, Note_off_c, 2, 69, 95
4, 236640, Note_off_c, 2, 65, 95
4, 236640, Note_on_c, 2, 74, 95
4, 236640, Note_on_c, 2, 69, 95
4, 236640, Note_on_c, 2, 65, 95
4, 236880, Note_off_c, 2, 74, 95
4, 236880, Note_off_c, 2, 69, 95
4, 236880, Note_off_c, 2, 65, 95
4, 236880, Note_on_c, 2, 59, 95
4, 237120, Note_off_c, 2, 59, 95
4, 237360, Note_on_c, 2, 75, 95
4, 237360, Note_on_c, 2, 70, 95
4, 237360, Note_on_c, 2, 66, 95
4, 238080, Note_off_c, 2, 75, 95
4, 238080, Note_off_c, 2, 70, 95
4, 238080, Note_off_c, 2, 66, 95
4, 238080, Note_on_c, 2, 65, 95
4, 238080, Note_on_c, 2, 59, 95
4, 238560, Note_off_c, 2, 65, 95
4, 238560, Note_off_c, 2, 59, 95
4, 238560, Note_on_c, 2, 59, 95
4, 238800, Note_off_c, 2, 59, 95
4, 238800, Note_on_c, 2, 65, 95
4, 239040, Note_off_c, 2, 65, 95
4, 239040, Note_on_c, 2, 76, 95
4, 239040, Note_on_c, 2, 69, 95
4, 239280, Note_off_c, 2, 76, 95
4, 239280, Note_off_c, 2, 69, 95
4, 239280, Note_on_c, 2, 74, 95
4, 239280, Note_on_c, 2, 69, 95
4, 239520, Note_off_c, 2, 74, 95
4, 239520, Note_off_c, 2, 69, 95
4, 239520, Note_on_c, 2, 69, 95
4, 239760, Note_off_c, 2, 69, 95
4, 239760, Note_on_c, 2, 59, 95
4, 240000, Note_off_c, 2, 59, 95
4, 240000, Note_on_c, 2, 76, 95
4, 240000, Note_on_c, 2, 69, 95
4, 240240, Note_off_c, 2, 76, 95
4, 240240, Note_off_c, 2, 69, 95
4, 240240, Note_on_c, 2, 74, 95
4, 240240, Note_on_c, 2, 69, 95
4, 240480, Note_off_c, 2, 74, 95
4, 240480, Note_off_c, 2, 69, 95
4, 240480, Note_on_c, 2, 69, 95
4, 240720, Note_off_c, 2, 69, 95
4, 240720, Note_on_c, 2, 59, 95
4, 240960, Note_off_c, 2, 59, 95
4, 240960, Note_on_c, 2, 76, 95
4, 240960, Note_on_c, 2, 71, 95
4, 241200, Note_off_c, 2, 76, 95
4, 241200, Note_off_c, 2, 71, 95
4, 241200, Note_on_c, 2, 74, 95
4, 241200, Note_on_c, 2, 69, 95
4, 241920, Note_off_c, 2, 74, 95
4, 241920, Note_off_c, 2, 69, 95
4, 241920, Note_on_c, 2, 65, 95
4, 241920, Note_on_c, 2, 59, 95
4, 242400, Note_off_c, 2, 65, 95
4, 242400, Note_off_c, 2, 59, 95
4, 242400, Note_on_c, 2, 65, 95
4, 242400, Note_on_c, 2, 59, 95
4, 242640, Note_off_c, 2, 65, 95
4, 242640, Note_off_c, 2, 59, 95
4, 242640, Note_on_c, 2, 65, 95
4, 242640, Note_on_c, 2, 59, 95
4, 242880, Note_off_c, 2, 65, 95
4, 242880, Note_off_c, 2, 59, 95
4, 242880, Note_on_c, 2, 74, 95
4, 242880, Note_on_c, 2, 69, 95
4, 243120, Note_off_c, 2, 74, 95
4, 243120, Note_off_c, 2, 69, 95
4, 243120, Note_on_c, 2, 74, 95
4, 243120, Note_on_c, 2, 69, 95
4, 243360, Note_off_c, 2, 74, 95
4, 243360, Note_off_c, 2, 69, 95
4, 243360, Note_on_c, 2, 74, 95
4, 243360, Note_on_c, 2, 69, 95
4, 243600, Note_off_c, 2, 74, 95
4, 243600, Note_off_c, 2, 69, 95
4, 243600, Note_on_c, 2, 65, 95
4, 243840, Note_off_c, 2, 65, 95
4, 243840, Note_on_c, 2, 76, 95
4, 243840, Note_on_c, 2, 71, 95
4, 244080, Note_off_c, 2, 76, 95
4, 244080, Note_off_c, 2, 71, 95
4, 244080, Note_on_c, 2, 74, 95
4, 244080, Note_on_c, 2, 69, 95
4, 244320, Note_off_c, 2, 74, 95
4, 244320, Note_off_c, 2, 69, 95
4, 244320, Note_on_c, 2, 65, 95
4, 244320, Note_on_c, 2, 59, 95
4, 244560, Note_off_c, 2, 65, 95
4, 244560, Note_off_c, 2, 59, 95
4, 244560, Note_on_c, 2, 65, 95
4, 244560, Note_on_c, 2, 59, 95
4, 244800, Note_off_c, 2, 65, 95
4, 244800, Note_off_c, 2, 59, 95
4, 244800, Note_on_c, 2, 59, 95
4, 245040, Note_off_c, 2, 59, 95
4, 245040, Note_on_c, 2, 75, 95
4, 245040, Note_on_c, 2, 70, 95
4, 245040, Note_on_c, 2, 66, 95
4, 245760, Note_off_c, 2, 75, 95
4, 245760, Note_off_c, 2, 70, 95
4, 245760, Note_off_c, 2, 66, 95
4, 245760, Note_on_c, 2, 65, 95
4, 245760, Note_on_c, 2, 59, 95
4, 246240, Note_off_c, 2, 65, 95
4, 246240, Note_off_c, 2, 59, 95
4, 246240, Note_on_c, 2, 59, 95
4, 246480, Note_off_c, 2, 59, 95
4, 246480, Note_on_c, 2, 65, 95
4, 246720, Note_off_c, 2, 65, 95
4, 246720, Note_on_c, 2, 76, 95
4, 246960, Note_off_c, 2, 76, 95
4, 246960, Note_on_c, 2, 74, 95
4, 247200, Note_off_c, 2, 74, 95
4, 247200, Note_on_c, 2, 69, 95
4, 247440, Note_off_c, 2, 69, 95
4, 247440, Note_on_c, 2, 59, 95
4, 247680, Note_off_c, 2, 59, 95
4, 247680, Note_on_c, 2, 76, 111
4, 247680, Note_on_c, 2, 71, 111
4, 247920, Note_off_c, 2, 76, 111
4, 247920, Note_off_c, 2, 71, 111
4, 247920, Note_on_c, 2, 74, 95
4, 247920, Note_on_c, 2, 69, 95
4, 248400, Note_off_c, 2, 74, 95
4, 248400, Note_off_c, 2, 69, 95
4, 248400, Note_on_c, 2, 76, 111
4, 248400, Note_on_c, 2, 71, 111
4, 248640, Note_off_c, 2, 76, 111
4, 248640, Note_off_c, 2, 71, 111
4, 248640, Note_on_c, 2, 74, 95
4, 248640, Note_on_c, 2, 69, 95
4, 249120, Note_off_c, 2, 74, 95
4, 249120, Note_off_c, 2, 69, 95
4, 249120, Note_on_c, 2, 76, 111
4, 249120, Note_on_c, 2, 71, 111
4, 249360, Note_off_c, 2, 76, 111
4, 249360, Note_off_c, 2, 71, 111
4, 249360, Note_on_c, 2, 74, 95
4, 249360, Note_on_c, 2, 69, 95
4, 249840, Note_off_c, 2, 74, 95
4, 249840, Note_off_c, 2, 69, 95
4, 249840, Note_on_c, 2, 76, 111
4, 249840, Note_on_c, 2, 71, 111
4, 250080, Note_off_c, 2, 76, 111
4, 250080, Note_off_c, 2, 71, 111
4, 250080, Note_on_c, 2, 74, 95
4, 250080, Note_on_c, 2, 69, 95
4, 250560, Note_off_c, 2, 74, 95
4, 250560, Note_off_c, 2, 69, 95
4, 250560, Note_on_c, 2, 76, 111
4, 250560, Note_on_c, 2, 71, 111
4, 250800, Note_off_c, 2, 76, 111
4, 250800, Note_off_c, 2, 71, 111
4, 250800, Note_on_c, 2, 74, 95
4, 250800, Note_on_c, 2, 69, 95
4, 251280, Note_off_c, 2, 74, 95
4, 251280, Note_off_c, 2, 69, 95
4, 251280, Note_on_c, 2, 76, 111
4, 251280, Note_on_c, 2, 71, 111
4, 251520, Note_off_c, 2, 76, 111
4, 251520, Note_off_c, 2, 71, 111
4, 251520, Note_on_c, 2, 74, 95
4, 251520, Note_on_c, 2, 69, 95
4, 252000, Note_off_c, 2, 74, 95
4, 252000, Note_off_c, 2, 69, 95
4, 252000, Note_on_c, 2, 76, 95
4, 252000, Note_on_c, 2, 71, 95
4, 252240, Note_off_c, 2, 76, 95
4, 252240, Note_off_c, 2, 71, 95
4, 252240, Note_on_c, 2, 74, 95
4, 252240, Note_on_c, 2, 69, 95
4, 252480, Note_off_c, 2, 74, 95
4, 252480, Note_off_c, 2, 69, 95
4, 252480, Note_on_c, 3, 69, 95
4, 252640, Pitch_bend_c, 3, 8192
4, 252720, Pitch_bend_c, 3, 8320
4, 252720, Pitch_bend_c, 3, 8192
4, 252720, Note_off_c, 3, 69, 95
4, 252720, Note_on_c, 3, 74, 95
4, 252880, Pitch_bend_c, 3, 8192
4, 252960, Pitch_bend_c, 3, 8320
4, 252960, Pitch_bend_c, 3, 8192
4, 252960, Note_off_c, 3, 74, 95
4, 252960, Note_on_c, 3, 69, 95
4, 253120, Pitch_bend_c, 3, 8192
4, 253200, Pitch_bend_c, 3, 8320
4, 253200, Pitch_bend_c, 3, 8192
4, 253200, Note_off_c, 3, 69, 95
4, 253200, Note_on_c, 3, 74, 95
4, 253360, Pitch_bend_c, 3, 8192
4, 253380, Note_on_c, 3, 61, 95
4, 253440, Pitch_bend_c, 3, 8320
4, 253440, Pitch_bend_c, 3, 8192
4, 253440, Note_off_c, 3, 74, 95
4, 253440, Note_off_c, 3, 61, 95
4, 253440, Note_on_c, 3, 62, 95
4, 253560, Note_off_c, 3, 62, 95
4, 253560, Note_on_c, 2, 62, 95
4, 253680, Note_off_c, 2, 62, 95
4, 253680, Note_on_c, 2, 62, 95
4, 253800, Note_off_c, 2, 62, 95
4, 253800, Note_on_c, 2, 62, 95
4, 253920, Note_off_c, 2, 62, 95
4, 253920, Note_on_c, 2, 62, 95
4, 254040, Note_off_c, 2, 62, 95
4, 254040, Note_on_c, 2, 62, 95
4, 254160, Note_off_c, 2, 62, 95
4, 254160, Note_on_c, 2, 62, 95
4, 254280, Note_off_c, 2, 62, 95
4, 254280, Note_on_c, 2, 62, 95
4, 254400, Note_off_c, 2, 62, 95
4, 254400, Note_on_c, 3, 65, 95
4, 254560, Pitch_bend_c, 3, 8192
4, 254640, Pitch_bend_c, 3, 8320
4, 254640, Pitch_bend_c, 3, 8192
4, 254640, Note_off_c, 3, 65, 95
4, 254640, Note_on_c, 3, 65, 95
4, 254800, Pitch_bend_c, 3, 8192
4, 254880, Pitch_bend_c, 3, 8320
4, 254880, Pitch_bend_c, 3, 8192
4, 254880, Note_off_c, 3, 65, 95
4, 254880, Note_on_c, 3, 67, 95
4, 255040, Pitch_bend_c, 3, 8192
4, 255120, Pitch_bend_c, 3, 8320
4, 255120, Pitch_bend_c, 3, 8192
4, 255120, Note_off_c, 3, 67, 95
4, 255120, Note_on_c, 3, 67, 95
4, 255280, Pitch_bend_c, 3, 8192
4, 255360, Pitch_bend_c, 3, 8320
4, 255360, Pitch_bend_c, 3, 8192
4, 255360, Note_off_c, 3, 67, 95
4, 255360, Note_on_c, 2, 69, 95
4, 255480, Note_off_c, 2, 69, 95
4, 255480, Note_on_c, 2, 69, 95
4, 255600, Note_off_c, 2, 69, 95
4, 255600, Note_on_c, 2, 69, 95
4, 255720, Note_off_c, 2, 69, 95
4, 255720, Note_on_c, 2, 69, 95
4, 255840, Note_off_c, 2, 69, 95
4, 255840, Note_on_c, 2, 69, 95
4, 255960, Note_off_c, 2, 69, 95
4, 255960, Note_on_c, 2, 69, 95
4, 256080, Note_off_c, 2, 69, 95
4, 256080, Note_on_c, 2, 69, 95
4, 256200, Note_off_c, 2, 69, 95
4, 256200, Note_on_c, 2, 69, 95
4, 256320, Note_off_c, 2, 69, 95
4, 256320, Note_on_c, 3, 72, 95
4, 256480, Pitch_bend_c, 3, 8192
4, 256560, Pitch_bend_c, 3, 8320
4, 256560, Pitch_bend_c, 3, 8192
4, 256560, Note_off_c, 3, 72, 95
4, 256560, Note_on_c, 3, 72, 95
4, 256720, Pitch_bend_c, 3, 8192
4, 256800, Pitch_bend_c, 3, 8320
4, 256800, Pitch_bend_c, 3, 8192
4, 256800, Note_off_c, 3, 72, 95
4, 256800, Note_on_c, 3, 74, 95
4, 256960, Pitch_bend_c, 3, 8192
4, 257040, Pitch_bend_c, 3, 8320
4, 257040, Pitch_bend_c, 3, 8192
4, 257040, Note_off_c, 3, 74, 95
4, 257040, Note_on_c, 3, 74, 95
4, 257200, Pitch_bend_c, 3, 8192
4, 257280, Pitch_bend_c, 3, 8320
4, 257280, Pitch_bend_c, 3, 8192
4, 257280, Note_off_c, 3, 74, 95
4, 257760, Note_on_c, 3, 77, 95
4, 257920, Pitch_bend_c, 3, 8192
4, 258000, Pitch_bend_c, 3, 8320
4, 258000, Pitch_bend_c, 3, 8192
4, 258000, Note_off_c, 3, 77, 95
4, 258000, Note_on_c, 3, 77, 95
4, 258160, Pitch_bend_c, 3, 8192
4, 258240, Pitch_bend_c, 3, 8320
4, 258240, Pitch_bend_c, 3, 8192
4, 258240, Note_off_c, 3, 77, 95
4, 258240, Note_on_c, 2, 79, 95
4, 258360, Note_off_c, 2, 79, 95
4, 258360, Note_on_c, 2, 79, 95
4, 258480, Note_off_c, 2, 79, 95
4, 258480, Note_on_c, 2, 79, 95
4, 258600, Note_off_c, 2, 79, 95
4, 258600, Note_on_c, 2, 79, 95
4, 258720, Note_off_c, 2, 79, 95
4, 258720, Note_on_c, 2, 79, 95
4, 258840, Note_off_c, 2, 79, 95
4, 258840, Note_on_c, 2, 79, 95
4, 258960, Note_off_c, 2, 79, 95
4, 258960, Note_on_c, 2, 79, 95
4, 259080, Note_off_c, 2, 79, 95
4, 259080, Note_on_c, 2, 79, 95
4, 259200, Note_off_c, 2, 79, 95
4, 259200, Note_on_c, 3, 79, 95
4, 259360, Pitch_bend_c, 3, 8192
4, 259440, Pitch_bend_c, 3, 8320
4, 259440, Pitch_bend_c, 3, 8192
4, 259440, Note_off_c, 3, 79, 95
4, 259440, Note_on_c, 3, 79, 95
4, 259600, Pitch_bend_c, 3, 8192
4, 259680, Pitch_bend_c, 3, 8320
4, 259680, Pitch_bend_c, 3, 8192
4, 259680, Note_off_c, 3, 79, 95
4, 259680, Note_on_c, 2, 81, 95
4, 259800, Note_off_c, 2, 81, 95
4, 259800, Note_on_c, 2, 81, 95
4, 259920, Note_off_c, 2, 81, 95
4, 259920, Note_on_c, 2, 81, 95
4, 260040, Note_off_c, 2, 81, 95
4, 260040, Note_on_c, 2, 81, 95
4, 260160, Note_off_c, 2, 81, 95
4, 260160, Note_on_c, 2, 81, 95
4, 260280, Note_off_c, 2, 81, 95
4, 260280, Note_on_c, 2, 81, 95
4, 260400, Note_off_c, 2, 81, 95
4, 260400, Note_on_c, 2, 81, 95
4, 260520, Note_off_c, 2, 81, 95
4, 260520, Note_on_c, 2, 81, 95
4, 260640, Note_off_c, 2, 81, 95
4, 260640, Note_on_c, 2, 81, 95
4, 260760, Note_off_c, 2, 81, 95
4, 260760, Note_on_c, 2, 81, 95
4, 260880, Note_off_c, 2, 81, 95
4, 260880, Note_on_c, 2, 81, 95
4, 261000, Note_off_c, 2, 81, 95
4, 261000, Note_on_c, 2, 81, 95
4, 261120, Note_off_c, 2, 81, 95
4, 261120, Note_on_c, 3, 81, 95
4, 261280, Pitch_bend_c, 3, 8192
4, 261360, Pitch_bend_c, 3, 8320
4, 261360, Pitch_bend_c, 3, 8192
4, 261360, Note_off_c, 3, 81, 95
4, 261360, Note_on_c, 3, 84, 95
4, 261520, Pitch_bend_c, 3, 8192
4, 261600, Pitch_bend_c, 3, 8320
4, 261600, Pitch_bend_c, 3, 8192
4, 261600, Note_off_c, 3, 84, 95
4, 261600, Note_on_c, 3, 84, 95
4, 261760, Pitch_bend_c, 3, 8192
4, 261840, Pitch_bend_c, 3, 8320
4, 261840, Pitch_bend_c, 3, 8192
4, 261840, Note_off_c, 3, 84, 95
4, 261840, Note_on_c, 3, 84, 95
4, 262000, Pitch_bend_c, 3, 8192
4, 262080, Pitch_bend_c, 3, 8320
4, 262080, Pitch_bend_c, 3, 8192
4, 262080, Note_off_c, 3, 84, 95
4, 262080, Note_on_c, 3, 84, 95
4, 262240, Pitch_bend_c, 3, 8192
4, 262320, Pitch_bend_c, 3, 8320
4, 262320, Pitch_bend_c, 3, 8192
4, 262320, Note_off_c, 3, 84, 95
4, 262320, Note_on_c, 3, 84, 95
4, 262480, Pitch_bend_c, 3, 8192
4, 262560, Pitch_bend_c, 3, 8320
4, 262560, Pitch_bend_c, 3, 8192
4, 262560, Note_off_c, 3, 84, 95
4, 262560, Note_on_c, 3, 81, 95
4, 262720, Pitch_bend_c, 3, 8192
4, 262800, Pitch_bend_c, 3, 8320
4, 262800, Pitch_bend_c, 3, 8192
4, 262800, Note_off_c, 3, 81, 95
4, 262800, Note_on_c, 3, 81, 95
4, 262960, Pitch_bend_c, 3, 8192
4, 263040, Pitch_bend_c, 3, 8320
4, 263040, Pitch_bend_c, 3, 8192
4, 263040, Note_off_c, 3, 81, 95
4, 263040, Note_on_c, 3, 81, 95
4, 263200, Pitch_bend_c, 3, 8192
4, 263280, Pitch_bend_c, 3, 8320
4, 263280, Pitch_bend_c, 3, 8192
4, 263280, Note_off_c, 3, 81, 95
4, 263280, Note_on_c, 3, 81, 95
4, 263440, Pitch_bend_c, 3, 8192
4, 263520, Pitch_bend_c, 3, 8320
4, 263520, Pitch_bend_c, 3, 8192
4, 263520, Note_off_c, 3, 81, 95
4, 263520, Note_on_c, 3, 79, 95
4, 263680, Pitch_bend_c, 3, 8192
4, 263760, Pitch_bend_c, 3, 8320
4, 263760, Pitch_bend_c, 3, 8192
4, 263760, Note_off_c, 3, 79, 95
4, 263760, Note_on_c, 3, 79, 95
4, 263920, Pitch_bend_c, 3, 8192
4, 264000, Pitch_bend_c, 3, 8320
4, 264000, Pitch_bend_c, 3, 8192
4, 264000, Note_off_c, 3, 79, 95
4, 264000, Note_on_c, 3, 81, 95
4, 264160, Pitch_bend_c, 3, 8192
4, 264240, Pitch_bend_c, 3, 8320
4, 264240, Pitch_bend_c, 3, 8192
4, 264240, Note_off_c, 3, 81, 95
4, 264240, Note_on_c, 3, 81, 95
4, 264400, Pitch_bend_c, 3, 8192
4, 264480, Pitch_bend_c, 3, 8320
4, 264480, Pitch_bend_c, 3, 8192
4, 264480, Note_off_c, 3, 81, 95
4, 264480, Note_on_c, 3, 84, 95
4, 264640, Pitch_bend_c, 3, 8192
4, 264720, Pitch_bend_c, 3, 8320
4, 264720, Pitch_bend_c, 3, 8192
4, 264720, Note_off_c, 3, 84, 95
4, 264720, Note_on_c, 3, 84, 95
4, 264880, Pitch_bend_c, 3, 8192
4, 264960, Pitch_bend_c, 3, 8320
4, 264960, Pitch_bend_c, 3, 8192
4, 264960, Note_off_c, 3, 84, 95
4, 264960, Note_on_c, 2, 84, 95
4, 265080, Note_off_c, 2, 84, 95
4, 265080, Note_on_c, 2, 84, 95
4, 265200, Note_off_c, 2, 84, 95
4, 265200, Note_on_c, 2, 84, 95
4, 265320, Note_off_c, 2, 84, 95
4, 265320, Note_on_c, 2, 84, 95
4, 265440, Note_off_c, 2, 84, 95
4, 265440, Note_on_c, 2, 84, 95
4, 265560, Note_off_c, 2, 84, 95
4, 265560, Note_on_c, 2, 84, 95
4, 265680, Note_off_c, 2, 84, 95
4, 265680, Note_on_c, 2, 84, 95
4, 265800, Note_off_c, 2, 84, 95
4, 265800, Note_on_c, 2, 84, 95
4, 265920, Note_off_c, 2, 84, 95
4, 265920, Note_on_c, 2, 84, 95
4, 266040, Note_off_c, 2, 84, 95
4, 266040, Note_on_c, 2, 84, 95
4, 266160, Note_off_c, 2, 84, 95
4, 266160, Note_on_c, 2, 84, 95
4, 266280, Note_off_c, 2, 84, 95
4, 266280, Note_on_c, 2, 84, 95
4, 266400, Note_off_c, 2, 84, 95
4, 266400, Note_on_c, 2, 84, 95
4, 266520, Note_off_c, 2, 84, 95
4, 266520, Note_on_c, 3, 82, 95
4, 266680, Pitch_bend_c, 3, 8192
4, 266760, Pitch_bend_c, 3, 8320
4, 266760, Pitch_bend_c, 3, 8192
4, 266760, Note_off_c, 3, 82, 95
4, 266760, Note_on_c, 3, 82, 95
4, 266920, Pitch_bend_c, 3, 8192
4, 267000, Pitch_bend_c, 3, 8320
4, 267000, Pitch_bend_c, 3, 8192
4, 267000, Note_off_c, 3, 82, 95
4, 267000, Note_on_c, 3, 81, 95
4, 267160, Pitch_bend_c, 3, 8192
4, 267240, Pitch_bend_c, 3, 8320
4, 267240, Pitch_bend_c, 3, 8192
4, 267240, Note_off_c, 3, 81, 95
4, 267240, Note_on_c, 3, 81, 95
4, 267400, Pitch_bend_c, 3, 8192
4, 267480, Pitch_bend_c, 3, 8320
4, 267480, Pitch_bend_c, 3, 8192
4, 267480, Note_off_c, 3, 81, 95
4, 267480, Note_on_c, 3, 79, 95
4, 267600, Pitch_bend_c, 3, 7552
4, 267600, Pitch_bend_c, 3, 8192
4, 267600, Note_off_c, 3, 79, 95
4, 267600, Note_on_c, 3, 78, 95
4, 267720, Pitch_bend_c, 3, 7552
4, 267720, Pitch_bend_c, 3, 8192
4, 267720, Note_off_c, 3, 78, 95
4, 267720, Note_on_c, 3, 77, 95
4, 267840, Pitch_bend_c, 3, 7552
4, 267840, Pitch_bend_c, 3, 8192
4, 267840, Note_off_c, 3, 77, 95
4, 267840, Note_on_c, 3, 76, 95
4, 267960, Pitch_bend_c, 3, 7552
4, 267960, Pitch_bend_c, 3, 8192
4, 267960, Note_off_c, 3, 76, 95
4, 267960, Note_on_c, 3, 75, 95
4, 268080, Pitch_bend_c, 3, 8832
4, 268080, Pitch_bend_c, 3, 8192
4, 268080, Note_off_c, 3, 75, 95
4, 268080, Note_on_c, 3, 76, 95
4, 268200, Pitch_bend_c, 3, 8832
4, 268200, Pitch_bend_c, 3, 8192
4, 268200, Note_off_c, 3, 76, 95
4, 268200, Note_on_c, 3, 77, 95
4, 268320, Pitch_bend_c, 3, 9600
4, 268320, Pitch_bend_c, 3, 8192
4, 268320, Note_off_c, 3, 77, 95
4, 268320, Note_on_c, 3, 79, 95
4, 268480, Pitch_bend_c, 3, 8192
4, 268560, Pitch_bend_c, 3, 8320
4, 268560, Pitch_bend_c, 3, 8192
4, 268560, Note_off_c, 3, 79, 95
4, 268560, Note_on_c, 3, 79, 95
4, 268720, Pitch_bend_c, 3, 8192
4, 268800, Pitch_bend_c, 3, 8320
4, 268800, Pitch_bend_c, 3, 8192
4, 268800, Note_off_c, 3, 79, 95
4, 268800, Note_on_c, 2, 79, 95
4, 268920, Note_off_c, 2, 79, 95
4, 268920, Note_on_c, 2, 79, 95
4, 269040, Note_off_c, 2, 79, 95
4, 269040, Note_on_c, 2, 79, 95
4, 269160, Note_off_c, 2, 79, 95
4, 269160, Note_on_c, 2, 79, 95
4, 269280, Note_off_c, 2, 79, 95
4, 269280, Note_on_c, 2, 79, 95
4, 269400, Note_off_c, 2, 79, 95
4, 269400, Note_on_c, 2, 79, 95
4, 269520, Note_off_c, 2, 79, 95
4, 269520, Note_on_c, 2, 79, 95
4, 269640, Note_off_c, 2, 79, 95
4, 269640, Note_on_c, 2, 79, 95
4, 269760, Note_off_c, 2, 79, 95
4, 269760, Note_on_c, 2, 77, 95
4, 269880, Note_off_c, 2, 77, 95
4, 269880, Note_on_c, 2, 77, 95
4, 270000, Note_off_c, 2, 77, 95
4, 270000, Note_on_c, 2, 77, 95
4, 270120, Note_off_c, 2, 77, 95
4, 270120, Note_on_c, 2, 77, 95
4, 270240, Note_off_c, 2, 77, 95
4, 270240, Note_on_c, 2, 77, 95
4, 270360, Note_off_c, 2, 77, 95
4, 270360, Note_on_c, 2, 77, 95
4, 270480, Note_off_c, 2, 77, 95
4, 270480, Note_on_c, 2, 77, 95
4, 270600, Note_off_c, 2, 77, 95
4, 270600, Note_on_c, 2, 77, 95
4, 270720, Note_off_c, 2, 77, 95
4, 270720, Note_on_c, 2, 74, 95
4, 270840, Note_off_c, 2, 74, 95
4, 270840, Note_on_c, 2, 74, 95
4, 270960, Note_off_c, 2, 74, 95
4, 270960, Note_on_c, 2, 74, 95
4, 271080, Note_off_c, 2, 74, 95
4, 271080, Note_on_c, 2, 74, 95
4, 271200, Note_off_c, 2, 74, 95
4, 271200, Note_on_c, 2, 74, 95
4, 271320, Note_off_c, 2, 74, 95
4, 271320, Note_on_c, 2, 74, 95
4, 271440, Note_off_c, 2, 74, 95
4, 271440, Note_on_c, 2, 74, 95
4, 271560, Note_off_c, 2, 74, 95
4, 271560, Note_on_c, 2, 74, 95
4, 271680, Note_off_c, 2, 74, 95
4, 271680, Note_on_c, 3, 77, 95
4, 271840, Pitch_bend_c, 3, 8192
4, 271920, Pitch_bend_c, 3, 8320
4, 271920, Pitch_bend_c, 3, 8192
4, 271920, Note_off_c, 3, 77, 95
4, 271920, Note_on_c, 3, 79, 95
4, 272080, Pitch_bend_c, 3, 8192
4, 272160, Pitch_bend_c, 3, 8320
4, 272160, Pitch_bend_c, 3, 8192
4, 272160, Note_off_c, 3, 79, 95
4, 272160, Note_on_c, 3, 79, 95
4, 272320, Pitch_bend_c, 3, 8192
4, 272400, Pitch_bend_c, 3, 8320
4, 272400, Pitch_bend_c, 3, 8192
4, 272400, Note_off_c, 3, 79, 95
4, 272400, Note_on_c, 3, 79, 95
4, 272560, Pitch_bend_c, 3, 8192
4, 272640, Pitch_bend_c, 3, 8320
4, 272640, Pitch_bend_c, 3, 8192
4, 272640, Note_off_c, 3, 79, 95
4, 272640, Note_on_c, 2, 81, 95
4, 272800, Note_off_c, 2, 81, 95
4, 272800, Note_on_c, 2, 81, 95
4, 272960, Note_off_c, 2, 81, 95
4, 272960, Note_on_c, 2, 79, 95
4, 273120, Note_off_c, 2, 79, 95
4, 273120, Note_on_c, 2, 79, 95
4, 273280, Note_off_c, 2, 79, 95
4, 273280, Note_on_c, 2, 77, 95
4, 273440, Note_off_c, 2, 77, 95
4, 273440, Note_on_c, 2, 77, 95
4, 273600, Note_off_c, 2, 77, 95
4, 273600, Note_on_c, 3, 79, 95
4, 273760, Pitch_bend_c, 3, 8192
4, 273840, Pitch_bend_c, 3, 8320
4, 273840, Pitch_bend_c, 3, 8192
4, 273840, Note_off_c, 3, 79, 95
4, 273840, Note_on_c, 3, 81, 95
4, 274000, Pitch_bend_c, 3, 8192
4, 274080, Pitch_bend_c, 3, 8320
4, 274080, Pitch_bend_c, 3, 8192
4, 274080, Note_off_c, 3, 81, 95
4, 274080, Note_on_c, 3, 79, 95
4, 274240, Pitch_bend_c, 3, 8192
4, 274320, Pitch_bend_c, 3, 8320
4, 274320, Pitch_bend_c, 3, 8192
4, 274320, Note_off_c, 3, 79, 95
4, 274320, Note_on_c, 3, 77, 95
4, 274480, Pitch_bend_c, 3, 8192
4, 274560, Pitch_bend_c, 3, 8320
4, 274560, Pitch_bend_c, 3, 8192
4, 274560, Note_off_c, 3, 77, 95
4, 274560, Note_on_c, 3, 79, 95
4, 274720, Pitch_bend_c, 3, 8192
4, 274800, Pitch_bend_c, 3, 8320
4, 274800, Pitch_bend_c, 3, 8192
4, 274800, Note_off_c, 3, 79, 95
4, 274800, Note_on_c, 3, 81, 95
4, 274960, Pitch_bend_c, 3, 8192
4, 275040, Pitch_bend_c, 3, 8320
4, 275040, Pitch_bend_c, 3, 8192
4, 275040, Note_off_c, 3, 81, 95
4, 275040, Note_on_c, 2, 79, 95
4, 275200, Note_off_c, 2, 79, 95
4, 275200, Note_on_c, 2, 77, 95
4, 275360, Note_off_c, 2, 77, 95
4, 275360, Note_on_c, 2, 79, 95
4, 275520, Note_off_c, 2, 79, 95
4, 275520, Note_on_c, 3, 81, 95
4, 275680, Pitch_bend_c, 3, 8192
4, 275760, Pitch_bend_c, 3, 8320
4, 275760, Pitch_bend_c, 3, 8192
4, 275760, Note_off_c, 3, 81, 95
4, 275760, Note_on_c, 3, 79, 95
4, 275920, Pitch_bend_c, 3, 8192
4, 276000, Pitch_bend_c, 3, 8320
4, 276000, Pitch_bend_c, 3, 8192
4, 276000, Note_off_c, 3, 79, 95
4, 276000, Note_on_c, 3, 77, 95
4, 276160, Pitch_bend_c, 3, 8192
4, 276240, Pitch_bend_c, 3, 8320
4, 276240, Pitch_bend_c, 3, 8192
4, 276240, Note_off_c, 3, 77, 95
4, 276240, Note_on_c, 3, 79, 95
4, 276400, Pitch_bend_c, 3, 8192
4, 276480, Pitch_bend_c, 3, 8320
4, 276480, Pitch_bend_c, 3, 8192
4, 276480, Note_off_c, 3, 79, 95
4, 276480, Note_on_c, 2, 81, 95
4, 276640, Note_off_c, 2, 81, 95
4, 276640, Note_on_c, 2, 79, 95
4, 276800, Note_off_c, 2, 79, 95
4, 276800, Note_on_c, 2, 77, 95
4, 276960, Note_off_c, 2, 77, 95
4, 276960, Note_on_c, 2, 79, 95
4, 277120, Note_off_c, 2, 79, 95
4, 277120, Note_on_c, 2, 81, 95
4, 277280, Note_off_c, 2, 81, 95
4, 277280, Note_on_c, 2, 79, 95
4, 277440, Note_off_c, 2, 79, 95
4, 277440, Note_on_c, 2, 77, 95
4, 277600, Note_off_c, 2, 77, 95
4, 277600, Note_on_c, 2, 79, 95
4, 277760, Note_off_c, 2, 79, 95
4, 277760, Note_on_c, 2, 81, 95
4, 277920, Note_off_c, 2, 81, 95
4, 277920, Note_on_c, 2, 79, 95
4, 278080, Note_off_c, 2, 79, 95
4, 278080, Note_on_c, 3, 77, 95
4, 278240, Pitch_bend_c, 3, 8192
4, 278400, Pitch_bend_c, 3, 8320
4, 278400, Pitch_bend_c, 3, 8192
4, 278400, Note_off_c, 3, 77, 95
4, 278400, End_track
5, 0, Start_track
5, 0, Pitch_bend_c, 14, 8192
5, 0, Control_c, 14, 7, 103
5, 0, Control_c, 14, 10, 47
5, 0, Control_c, 14, 93, 31
5, 0, Control_c, 14, 91, 31
5, 0, Control_c, 14, 95, 0
5, 0, Control_c, 14, 92, 0
5, 0, Control_c, 14, 11, 127
5, 0, Program_c, 14, 33
5, 0, Control_c, 15, 7, 103
5, 0, Control_c, 15, 10, 47
5, 0, Control_c, 15, 93, 31
5, 0, Control_c, 15, 91, 31
5, 0, Control_c, 15, 95, 0
5, 0, Control_c, 15, 92, 0
5, 0, Control_c, 15, 11, 127
5, 0, Program_c, 15, 33
5, 14640, Note_on_c, 14, 43, 95
5, 14880, Note_off_c, 14, 43, 95
5, 14880, Note_on_c, 14, 46, 95
5, 15120, Note_off_c, 14, 46, 95
5, 15120, Note_on_c, 14, 47, 95
5, 15360, Note_off_c, 14, 47, 95
5, 15360, Note_on_c, 14, 36, 95
5, 15840, Note_off_c, 14, 36, 95
5, 15840, Note_on_c, 14, 36, 95
5, 16320, Note_off_c, 14, 36, 95
5, 16560, Note_on_c, 14, 36, 95
5, 16800, Note_off_c, 14, 36, 95
5, 16800, Note_on_c, 14, 40, 95
5, 17040, Note_off_c, 14, 40, 95
5, 17040, Note_on_c, 14, 43, 95
5, 17280, Note_off_c, 14, 43, 95
5, 17280, Note_on_c, 14, 41, 95
5, 17760, Note_off_c, 14, 41, 95
5, 17760, Note_on_c, 14, 41, 95
5, 18240, Note_off_c, 14, 41, 95
5, 18480, Note_on_c, 14, 38, 95
5, 18720, Note_off_c, 14, 38, 95
5, 18720, Note_on_c, 14, 41, 95
5, 18960, Note_off_c, 14, 41, 95
5, 18960, Note_on_c, 14, 42, 95
5, 19200, Note_off_c, 14, 42, 95
5, 19200, Note_on_c, 14, 43, 95
5, 19680, Note_off_c, 14, 43, 95
5, 19680, Note_on_c, 14, 38, 95
5, 20160, Note_off_c, 14, 38, 95
5, 20160, Note_on_c, 14, 35, 95
5, 20400, Note_off_c, 14, 35, 95
5, 20400, Note_on_c, 14, 31, 95
5, 20640, Note_off_c, 14, 31, 95
5, 21120, Note_on_c, 14, 31, 95
5, 21600, Note_off_c, 14, 31, 95
5, 21600, Note_on_c, 14, 34, 95
5, 22080, Note_off_c, 14, 34, 95
5, 22080, Note_on_c, 14, 34, 95
5, 22320, Note_off_c, 14, 34, 95
5, 22320, Note_on_c, 14, 35, 95
5, 23040, Note_off_c, 14, 35, 95
5, 23040, Note_on_c, 14, 36, 95
5, 23520, Note_off_c, 14, 36, 95
5, 23520, Note_on_c, 14, 36, 95
5, 24000, Note_off_c, 14, 36, 95
5, 24240, Note_on_c, 14, 35, 95
5, 24480, Note_off_c, 14, 35, 95
5, 24480, Note_on_c, 14, 36, 95
5, 24720, Note_off_c, 14, 36, 95
5, 24720, Note_on_c, 14, 37, 95
5, 24960, Note_off_c, 14, 37, 95
5, 24960, Note_on_c, 14, 38, 95
5, 25440, Note_off_c, 14, 38, 95
5, 25440, Note_on_c, 14, 38, 95
5, 26160, Note_off_c, 14, 38, 95
5, 26160, Note_on_c, 14, 38, 95
5, 26400, Note_off_c, 14, 38, 95
5, 26400, Note_on_c, 14, 38, 95
5, 26640, Note_off_c, 14, 38, 95
5, 26640, Note_on_c, 14, 38, 95
5, 26880, Note_off_c, 14, 38, 95
5, 26880, Note_on_c, 14, 43, 95
5, 27360, Note_off_c, 14, 43, 95
5, 27360, Note_on_c, 14, 43, 95
5, 28080, Note_off_c, 14, 43, 95
5, 28080, Note_on_c, 14, 43, 95
5, 28320, Note_off_c, 14, 43, 95
5, 28320, Note_on_c, 14, 43, 95
5, 28560, Note_off_c, 14, 43, 95
5, 28560, Note_on_c, 14, 42, 95
5, 28800, Note_off_c, 14, 42, 95
5, 28800, Note_on_c, 14, 41, 95
5, 29040, Note_off_c, 14, 41, 95
5, 29040, Note_on_c, 14, 33, 95
5, 29280, Note_off_c, 14, 33, 95
5, 29280, Note_on_c, 14, 34, 95
5, 29520, Note_off_c, 14, 34, 95
5, 29760, Note_on_c, 14, 34, 95
5, 30000, Note_off_c, 14, 34, 95
5, 30000, Note_on_c, 14, 35, 95
5, 30480, Note_off_c, 14, 35, 95
5, 30480, Note_on_c, 14, 35, 95
5, 30720, Note_off_c, 14, 35, 95
5, 30720, Note_on_c, 14, 36, 95
5, 31200, Note_off_c, 14, 36, 95
5, 31200, Note_on_c, 14, 36, 95
5, 31920, Note_off_c, 14, 36, 95
5, 31920, Note_on_c, 14, 35, 95
5, 32160, Note_off_c, 14, 35, 95
5, 32160, Note_on_c, 14, 36, 95
5, 32400, Note_off_c, 14, 36, 95
5, 32400, Note_on_c, 14, 37, 95
5, 32640, Note_off_c, 14, 37, 95
5, 32640, Note_on_c, 14, 41, 95
5, 33120, Note_off_c, 14, 41, 95
5, 33120, Note_on_c, 14, 41, 95
5, 33840, Note_off_c, 14, 41, 95
5, 33840, Note_on_c, 14, 41, 95
5, 34080, Note_off_c, 14, 41, 95
5, 34080, Note_on_c, 14, 37, 95
5, 34124, Note_off_c, 14, 37, 95
5, 34320, Note_on_c, 14, 48, 95
5, 34560, Note_off_c, 14, 48, 95
5, 34560, Note_on_c, 14, 43, 95
5, 35040, Note_off_c, 14, 43, 95
5, 35040, Note_on_c, 14, 43, 95
5, 35760, Note_off_c, 14, 43, 95
5, 35760, Note_on_c, 14, 43, 95
5, 36000, Note_off_c, 14, 43, 95
5, 36000, Note_on_c, 14, 43, 95
5, 36240, Note_off_c, 14, 43, 95
5, 36240, Note_on_c, 14, 43, 95
5, 36480, Note_off_c, 14, 43, 95
5, 36480, Note_on_c, 14, 42, 95
5, 36960, Note_off_c, 14, 42, 95
5, 36960, Note_on_c, 14, 42, 95
5, 37200, Note_off_c, 14, 42, 95
5, 37200, Note_on_c, 14, 42, 95
5, 37440, Note_off_c, 14, 42, 95
5, 37440, Note_on_c, 14, 42, 95
5, 37680, Note_off_c, 14, 42, 95
5, 37680, Note_on_c, 14, 42, 95
5, 37920, Note_off_c, 14, 42, 95
5, 37920, Note_on_c, 14, 42, 95
5, 38160, Note_off_c, 14, 42, 95
5, 38160, Note_on_c, 14, 36, 95
5, 38400, Note_off_c, 14, 36, 95
5, 38400, Note_on_c, 14, 41, 95
5, 38880, Note_off_c, 14, 41, 95
5, 38880, Note_on_c, 14, 33, 95
5, 39360, Note_off_c, 14, 33, 95
5, 39360, Note_on_c, 14, 34, 95
5, 39840, Note_off_c, 14, 34, 95
5, 39840, Note_on_c, 14, 35, 95
5, 40320, Note_off_c, 14, 35, 95
5, 40320, Note_on_c, 14, 36, 95
5, 40800, Note_off_c, 14, 36, 95
5, 40800, Note_on_c, 14, 39, 95
5, 41040, Note_off_c, 14, 39, 95
5, 41040, Note_on_c, 14, 39, 95
5, 41280, Note_off_c, 14, 39, 95
5, 41280, Note_on_c, 14, 40, 95
5, 41520, Note_off_c, 14, 40, 95
5, 41520, Note_on_c, 14, 40, 95
5, 41760, Note_off_c, 14, 40, 95
5, 41760, Note_on_c, 14, 41, 95
5, 42000, Note_off_c, 14, 41, 95
5, 42000, Note_on_c, 14, 41, 95
5, 42240, Note_off_c, 14, 41, 95
5, 42240, Note_on_c, 14, 39, 95
5, 42960, Note_off_c, 14, 39, 95
5, 42960, Note_on_c, 14, 39, 95
5, 43200, Note_off_c, 14, 39, 95
5, 43200, Note_on_c, 14, 39, 95
5, 43680, Note_off_c, 14, 39, 95
5, 43680, Note_on_c, 14, 34, 95
5, 44640, Note_off_c, 14, 34, 95
5, 44640, Note_on_c, 14, 36, 95
5, 44880, Note_off_c, 14, 36, 95
5, 44880, Note_on_c, 14, 39, 95
5, 45120, Note_off_c, 14, 39, 95
5, 45120, Note_on_c, 14, 41, 95
5, 45360, Note_off_c, 14, 41, 95
5, 45360, Note_on_c, 14, 44, 95
5, 45600, Note_off_c, 14, 44, 95
5, 45600, Note_on_c, 14, 41, 95
5, 45840, Note_off_c, 14, 41, 95
5, 45840, Note_on_c, 14, 39, 95
5, 46080, Note_off_c, 14, 39, 95
5, 46080, Note_on_c, 14, 32, 95
5, 46560, Note_off_c, 14, 32, 95
5, 46560, Note_on_c, 14, 36, 95
5, 47040, Note_off_c, 14, 36, 95
5, 47040, Note_on_c, 14, 39, 95
5, 47280, Note_off_c, 14, 39, 95
5, 47280, Note_on_c, 14, 41, 70
5, 47520, Note_off_c, 14, 41, 70
5, 47520, Note_on_c, 14, 29, 95
5, 48480, Note_off_c, 14, 29, 95
5, 48480, Note_on_c, 14, 33, 95
5, 48960, Note_off_c, 14, 33, 95
5, 48960, Note_on_c, 14, 36, 95
5, 49440, Note_off_c, 14, 36, 95
5, 49440, Note_on_c, 14, 39, 95
5, 49920, Note_off_c, 14, 39, 95
5, 49920, Note_on_c, 15, 34, 95
5, 50040, Pitch_bend_c, 15, 8832
5, 50160, Pitch_bend_c, 15, 9600
5, 50280, Pitch_bend_c, 15, 10240
5, 50340, Note_on_c, 15, 37, 95
5, 50400, Pitch_bend_c, 15, 11008
5, 50400, Pitch_bend_c, 15, 8192
5, 50400, Note_off_c, 15, 34, 95
5, 50400, Note_off_c, 15, 37, 95
5, 50400, Note_on_c, 15, 38, 95
5, 50880, Note_off_c, 15, 38, 95
5, 50880, Note_on_c, 14, 43, 95
5, 51360, Note_off_c, 14, 43, 95
5, 51360, Note_on_c, 14, 36, 95
5, 54720, Note_off_c, 14, 36, 95
5, 57600, Note_on_c, 14, 36, 95
5, 58080, Note_off_c, 14, 36, 95
5, 58080, Note_on_c, 14, 36, 95
5, 58320, Note_off_c, 14, 36, 95
5, 58320, Note_on_c, 15, 36, 95
5, 58440, Pitch_bend_c, 15, 9600
5, 58560, Pitch_bend_c, 15, 11008
5, 58560, Pitch_bend_c, 15, 8192
5, 58560, Note_off_c, 15, 36, 95
5, 58560, Note_on_c, 14, 40, 95
5, 59040, Note_off_c, 14, 40, 95
5, 59040, Note_on_c, 14, 43, 95
5, 59280, Note_off_c, 14, 43, 95
5, 59280, Note_on_c, 14, 43, 95
5, 59520, Note_off_c, 14, 43, 95
5, 59520, Note_on_c, 14, 41, 95
5, 60000, Note_off_c, 14, 41, 95
5, 60000, Note_on_c, 14, 41, 95
5, 60480, Note_off_c, 14, 41, 95
5, 60480, Note_on_c, 14, 39, 95
5, 60720, Note_off_c, 14, 39, 95
5, 60720, Note_on_c, 14, 36, 95
5, 60960, Note_off_c, 14, 36, 95
5, 60960, Note_on_c, 14, 34, 95
5, 61200, Note_off_c, 14, 34, 95
5, 61200, Note_on_c, 14, 34, 95
5, 61440, Note_off_c, 14, 34, 95
5, 61440, Note_on_c, 14, 31, 95
5, 61920, Note_off_c, 14, 31, 95
5, 61920, Note_on_c, 14, 31, 95
5, 62640, Note_off_c, 14, 31, 95
5, 62640, Note_on_c, 14, 31, 95
5, 62880, Note_off_c, 14, 31, 95
5, 62880, Note_on_c, 14, 35, 95
5, 63120, Note_off_c, 14, 35, 95
5, 63120, Note_on_c, 14, 38, 95
5, 63360, Note_off_c, 14, 38, 95
5, 63360, Note_on_c, 14, 41, 95
5, 63840, Note_off_c, 14, 41, 95
5, 63840, Note_on_c, 14, 34, 95
5, 64320, Note_off_c, 14, 34, 95
5, 64320, Note_on_c, 14, 34, 95
5, 64560, Note_off_c, 14, 34, 95
5, 64560, Note_on_c, 14, 34, 95
5, 65040, Note_off_c, 14, 34, 95
5, 65040, Note_on_c, 14, 35, 95
5, 65280, Note_off_c, 14, 35, 95
5, 65280, Note_on_c, 14, 36, 95
5, 65760, Note_off_c, 14, 36, 95
5, 65760, Note_on_c, 14, 36, 95
5, 66480, Note_off_c, 14, 36, 95
5, 66480, Note_on_c, 14, 35, 95
5, 66720, Note_off_c, 14, 35, 95
5, 66720, Note_on_c, 14, 36, 95
5, 66960, Note_off_c, 14, 36, 95
5, 66960, Note_on_c, 14, 37, 95
5, 67200, Note_off_c, 14, 37, 95
5, 67200, Note_on_c, 14, 38, 95
5, 67680, Note_off_c, 14, 38, 95
5, 67680, Note_on_c, 14, 38, 95
5, 68400, Note_off_c, 14, 38, 95
5, 68400, Note_on_c, 14, 38, 95
5, 68640, Note_off_c, 14, 38, 95
5, 68640, Note_on_c, 14, 41, 95
5, 68880, Note_off_c, 14, 41, 95
5, 68880, Note_on_c, 14, 42, 95
5, 69120, Note_off_c, 14, 42, 95
5, 69120, Note_on_c, 14, 43, 95
5, 69600, Note_off_c, 14, 43, 95
5, 69600, Note_on_c, 14, 43, 95
5, 69840, Note_off_c, 14, 43, 95
5, 69840, Note_on_c, 14, 43, 95
5, 70080, Note_off_c, 14, 43, 95
5, 70080, Note_on_c, 14, 43, 95
5, 70320, Note_off_c, 14, 43, 95
5, 70320, Note_on_c, 14, 43, 95
5, 70560, Note_off_c, 14, 43, 95
5, 70560, Note_on_c, 14, 43, 95
5, 70800, Note_off_c, 14, 43, 95
5, 70800, Note_on_c, 14, 43, 95
5, 71040, Note_off_c, 14, 43, 95
5, 71040, Note_on_c, 14, 41, 95
5, 71520, Note_off_c, 14, 41, 95
5, 71520, Note_on_c, 14, 48, 95
5, 72000, Note_off_c, 14, 48, 95
5, 72000, Pitch_bend_c, 15, 8192
5, 72000, Note_on_c, 15, 34, 95
5, 72072, Pitch_bend_c, 15, 8320
5, 72144, Pitch_bend_c, 15, 8448
5, 72216, Pitch_bend_c, 15, 8576
5, 72288, Pitch_bend_c, 15, 8704
5, 72360, Pitch_bend_c, 15, 8832
5, 72360, Pitch_bend_c, 15, 8832
5, 72720, Pitch_bend_c, 15, 8832
5, 72720, Pitch_bend_c, 15, 8192
5, 72720, Note_off_c, 15, 34, 95
5, 72720, Note_on_c, 14, 35, 63
5, 72960, Note_off_c, 14, 35, 63
5, 72960, Note_on_c, 14, 36, 95
5, 73440, Note_off_c, 14, 36, 95
5, 73440, Note_on_c, 14, 36, 95
5, 73920, Note_off_c, 14, 36, 95
5, 74160, Note_on_c, 14, 34, 95
5, 74400, Note_off_c, 14, 34, 95
5, 74400, Note_on_c, 14, 36, 95
5, 74640, Note_off_c, 14, 36, 95
5, 74640, Note_on_c, 14, 36, 95
5, 74880, Note_off_c, 14, 36, 95
5, 74880, Note_on_c, 14, 41, 95
5, 75360, Note_off_c, 14, 41, 95
5, 75360, Note_on_c, 14, 41, 95
5, 76080, Note_off_c, 14, 41, 95
5, 76080, Note_on_c, 14, 40, 95
5, 76320, Note_off_c, 14, 40, 95
5, 76320, Note_on_c, 14, 41, 95
5, 76560, Note_off_c, 14, 41, 95
5, 76560, Note_on_c, 14, 42, 95
5, 76800, Note_off_c, 14, 42, 95
5, 76800, Note_on_c, 14, 43, 95
5, 77280, Note_off_c, 14, 43, 95
5, 77280, Note_on_c, 14, 43, 95
5, 77520, Note_off_c, 14, 43, 95
5, 77520, Note_on_c, 14, 43, 95
5, 77760, Note_off_c, 14, 43, 95
5, 77760, Note_on_c, 14, 38, 95
5, 78000, Note_off_c, 14, 38, 95
5, 78000, Note_on_c, 14, 35, 95
5, 78480, Note_off_c, 14, 35, 95
5, 78480, Note_on_c, 14, 31, 95
5, 78720, Note_off_c, 14, 31, 95
5, 78720, Note_on_c, 14, 30, 95
5, 79200, Note_off_c, 14, 30, 95
5, 79200, Note_on_c, 14, 30, 95
5, 79680, Note_off_c, 14, 30, 95
5, 79680, Note_on_c, 14, 30, 95
5, 80160, Note_off_c, 14, 30, 95
5, 80160, Note_on_c, 14, 30, 95
5, 80640, Note_off_c, 14, 30, 95
5, 80640, Note_on_c, 14, 29, 95
5, 81120, Note_off_c, 14, 29, 95
5, 81120, Note_on_c, 14, 29, 95
5, 81360, Note_off_c, 14, 29, 95
5, 81360, Note_on_c, 14, 29, 95
5, 81600, Note_off_c, 14, 29, 95
5, 81600, Note_on_c, 14, 33, 95
5, 82080, Note_off_c, 14, 33, 95
5, 82080, Note_on_c, 14, 33, 95
5, 82320, Note_off_c, 14, 33, 95
5, 82320, Note_on_c, 14, 34, 95
5, 82800, Note_off_c, 14, 34, 95
5, 82800, Note_on_c, 14, 34, 95
5, 83040, Note_off_c, 14, 34, 95
5, 83040, Note_on_c, 14, 34, 95
5, 83520, Note_off_c, 14, 34, 95
5, 83520, Note_on_c, 14, 36, 95
5, 83760, Note_off_c, 14, 36, 95
5, 83760, Note_on_c, 14, 36, 95
5, 84000, Note_off_c, 14, 36, 95
5, 84000, Note_on_c, 14, 39, 95
5, 84240, Note_off_c, 14, 39, 95
5, 84240, Note_on_c, 14, 40, 95
5, 84480, Note_off_c, 14, 40, 95
5, 84480, Note_on_c, 14, 41, 95
5, 84720, Note_off_c, 14, 41, 95
5, 84720, Note_on_c, 14, 41, 95
5, 84960, Note_off_c, 14, 41, 95
5, 84960, Note_on_c, 14, 41, 95
5, 85200, Note_off_c, 14, 41, 95
5, 85200, Note_on_c, 14, 41, 95
5, 85440, Note_off_c, 14, 41, 95
5, 85440, Note_on_c, 14, 39, 95
5, 85680, Note_off_c, 14, 39, 95
5, 85680, Note_on_c, 14, 41, 95
5, 85920, Note_off_c, 14, 41, 95
5, 85920, Note_on_c, 14, 41, 95
5, 86160, Note_off_c, 14, 41, 95
5, 86160, Note_on_c, 14, 39, 95
5, 86400, Note_off_c, 14, 39, 95
5, 86400, Note_on_c, 14, 41, 95
5, 86640, Note_off_c, 14, 41, 95
5, 86640, Note_on_c, 14, 41, 95
5, 86880, Note_off_c, 14, 41, 95
5, 86880, Note_on_c, 14, 39, 95
5, 87360, Note_off_c, 14, 39, 95
5, 87360, Note_on_c, 14, 36, 95
5, 87600, Note_off_c, 14, 36, 95
5, 87600, Note_on_c, 14, 36, 95
5, 87840, Note_off_c, 14, 36, 95
5, 87840, Note_on_c, 14, 39, 95
5, 88080, Note_off_c, 14, 39, 95
5, 88080, Note_on_c, 14, 40, 95
5, 88320, Note_off_c, 14, 40, 95
5, 88320, Note_on_c, 14, 41, 95
5, 88800, Note_off_c, 14, 41, 95
5, 88800, Note_on_c, 14, 41, 95
5, 89040, Note_off_c, 14, 41, 95
5, 89040, Note_on_c, 14, 41, 95
5, 89280, Note_off_c, 14, 41, 95
5, 89280, Note_on_c, 14, 41, 95
5, 89760, Note_off_c, 14, 41, 95
5, 89760, Note_on_c, 14, 41, 95
5, 90000, Note_off_c, 14, 41, 95
5, 90000, Note_on_c, 14, 39, 95
5, 90240, Note_off_c, 14, 39, 95
5, 90240, Note_on_c, 14, 41, 95
5, 90480, Note_off_c, 14, 41, 95
5, 90480, Note_on_c, 14, 41, 95
5, 90720, Note_off_c, 14, 41, 95
5, 90720, Note_on_c, 14, 39, 95
5, 91200, Note_off_c, 14, 39, 95
5, 91200, Note_on_c, 14, 36, 95
5, 91680, Note_off_c, 14, 36, 95
5, 91680, Note_on_c, 14, 36, 95
5, 92160, Note_off_c, 14, 36, 95
5, 92160, Note_on_c, 14, 39, 95
5, 92640, Note_off_c, 14, 39, 95
5, 92640, Note_on_c, 14, 43, 95
5, 93120, Note_off_c, 14, 43, 95
5, 93120, Note_on_c, 14, 46, 95
5, 93600, Note_off_c, 14, 46, 95
5, 93600, Note_on_c, 14, 34, 95
5, 94560, Note_off_c, 14, 34, 95
5, 94560, Note_on_c, 14, 36, 95
5, 94800, Note_off_c, 14, 36, 95
5, 94800, Note_on_c, 14, 38, 95
5, 95040, Note_off_c, 14, 38, 95
5, 95040, Note_on_c, 14, 41, 95
5, 95280, Note_off_c, 14, 41, 95
5, 95280, Note_on_c, 14, 43, 95
5, 95520, Note_off_c, 14, 43, 95
5, 95520, Note_on_c, 14, 41, 95
5, 95760, Note_off_c, 14, 41, 95
5, 95760, Note_on_c, 14, 38, 95
5, 96000, Note_off_c, 14, 38, 95
5, 96000, Note_on_c, 15, 32, 95
5, 96120, Pitch_bend_c, 15, 8832
5, 96240, Pitch_bend_c, 15, 9600
5, 96360, Pitch_bend_c, 15, 10240
5, 96420, Note_on_c, 15, 35, 95
5, 96480, Pitch_bend_c, 15, 11008
5, 96480, Pitch_bend_c, 15, 8192
5, 96480, Note_off_c, 15, 32, 95
5, 96480, Note_off_c, 15, 35, 95
5, 96480, Note_on_c, 15, 36, 95
5, 96960, Note_off_c, 15, 36, 95
5, 96960, Note_on_c, 14, 39, 95
5, 97440, Note_off_c, 14, 39, 95
5, 97440, Note_on_c, 14, 29, 95
5, 98400, Note_off_c, 14, 29, 95
5, 98400, Note_on_c, 14, 33, 95
5, 98880, Note_off_c, 14, 33, 95
5, 98880, Note_on_c, 14, 36, 95
5, 99360, Note_off_c, 14, 36, 95
5, 99360, Note_on_c, 14, 39, 95
5, 99840, Note_off_c, 14, 39, 95
5, 99840, Note_on_c, 14, 34, 95
5, 100320, Note_off_c, 14, 34, 95
5, 100320, Note_on_c, 14, 34, 95
5, 100800, Note_off_c, 14, 34, 95
5, 100800, Note_on_c, 14, 34, 95
5, 101280, Note_off_c, 14, 34, 95
5, 101280, Note_on_c, 14, 36, 95
5, 103680, Note_off_c, 14, 36, 95
5, 106800, Note_on_c, 14, 38, 95
5, 107040, Note_off_c, 14, 38, 95
5, 107040, Note_on_c, 14, 41, 95
5, 107280, Note_off_c, 14, 41, 95
5, 107280, Note_on_c, 14, 43, 70
5, 107520, Note_off_c, 14, 43, 70
5, 107520, Note_on_c, 14, 43, 95
5, 107760, Note_off_c, 14, 43, 95
5, 107760, Note_on_c, 14, 38, 95
5, 108000, Note_off_c, 14, 38, 95
5, 108000, Note_on_c, 14, 35, 95
5, 108480, Note_off_c, 14, 35, 95
5, 108480, Note_on_c, 14, 31, 95
5, 108960, Note_off_c, 14, 31, 95
5, 108960, Note_on_c, 14, 35, 95
5, 109200, Note_off_c, 14, 35, 95
5, 109200, Note_on_c, 14, 36, 95
5, 109680, Note_off_c, 14, 36, 95
5, 109680, Note_on_c, 14, 37, 95
5, 109920, Note_off_c, 14, 37, 95
5, 109920, Note_on_c, 14, 38, 95
5, 110160, Note_off_c, 14, 38, 95
5, 110160, Note_on_c, 14, 41, 95
5, 110400, Note_off_c, 14, 41, 95
5, 110400, Note_on_c, 14, 43, 95
5, 110640, Note_off_c, 14, 43, 95
5, 110640, Note_on_c, 14, 43, 95
5, 110880, Note_off_c, 14, 43, 95
5, 110880, Note_on_c, 14, 42, 95
5, 111360, Note_off_c, 14, 42, 95
5, 111360, Note_on_c, 14, 41, 95
5, 111600, Note_off_c, 14, 41, 95
5, 111600, Note_on_c, 14, 41, 95
5, 111840, Note_off_c, 14, 41, 95
5, 111840, Note_on_c, 14, 39, 95
5, 112320, Note_off_c, 14, 39, 95
5, 112320, Note_on_c, 14, 38, 95
5, 112560, Note_off_c, 14, 38, 95
5, 112560, Note_on_c, 14, 38, 95
5, 112800, Note_off_c, 14, 38, 95
5, 112800, Note_on_c, 14, 36, 95
5, 113040, Note_off_c, 14, 36, 95
5, 113040, Note_on_c, 14, 36, 95
5, 113280, Note_off_c, 14, 36, 95
5, 113280, Note_on_c, 14, 34, 95
5, 113520, Note_off_c, 14, 34, 95
5, 113520, Note_on_c, 14, 34, 95
5, 113760, Note_off_c, 14, 34, 95
5, 113760, Note_on_c, 14, 29, 95
5, 114240, Note_off_c, 14, 29, 95
5, 114240, Note_on_c, 14, 29, 95
5, 114480, Note_off_c, 14, 29, 95
5, 114480, Note_on_c, 14, 29, 95
5, 114720, Note_off_c, 14, 29, 95
5, 114720, Note_on_c, 14, 32, 95
5, 114720, Note_on_c, 14, 30, 95
5, 114764, Note_off_c, 14, 32, 95
5, 114960, Note_off_c, 14, 30, 95
5, 114960, Note_on_c, 14, 30, 95
5, 115200, Note_off_c, 14, 30, 95
5, 115200, Note_on_c, 14, 31, 95
5, 115440, Note_off_c, 14, 31, 95
5, 115440, Note_on_c, 14, 31, 95
5, 115680, Note_off_c, 14, 31, 95
5, 115680, Note_on_c, 14, 35, 95
5, 115920, Note_off_c, 14, 35, 95
5, 116160, Note_on_c, 14, 36, 95
5, 116400, Note_off_c, 14, 36, 95
5, 116400, Note_on_c, 14, 38, 95
5, 116640, Note_off_c, 14, 38, 95
5, 116640, Note_on_c, 14, 38, 95
5, 116880, Note_off_c, 14, 38, 95
5, 116880, Note_on_c, 14, 43, 95
5, 117360, Note_off_c, 14, 43, 95
5, 117360, Note_on_c, 14, 43, 95
5, 117600, Note_off_c, 14, 43, 95
5, 117600, Note_on_c, 14, 41, 95
5, 118080, Note_off_c, 14, 41, 95
5, 118080, Note_on_c, 14, 38, 95
5, 118320, Note_off_c, 14, 38, 95
5, 118320, Note_on_c, 14, 35, 95
5, 118560, Note_off_c, 14, 35, 95
5, 118560, Note_on_c, 14, 31, 95
5, 118800, Note_off_c, 14, 31, 95
5, 118800, Note_on_c, 14, 30, 95
5, 119040, Note_off_c, 14, 30, 95
5, 119040, Note_on_c, 14, 29, 95
5, 119520, Note_off_c, 14, 29, 95
5, 119520, Note_on_c, 14, 29, 95
5, 120000, Note_off_c, 14, 29, 95
5, 120000, Note_on_c, 14, 41, 95
5, 120480, Note_off_c, 14, 41, 95
5, 120480, Note_on_c, 14, 41, 95
5, 120720, Note_off_c, 14, 41, 95
5, 120720, Note_on_c, 14, 39, 95
5, 121200, Note_off_c, 14, 39, 95
5, 121200, Note_on_c, 14, 41, 95
5, 121440, Note_off_c, 14, 41, 95
5, 121440, Note_on_c, 14, 39, 95
5, 121680, Note_off_c, 14, 39, 95
5, 121680, Note_on_c, 14, 41, 95
5, 121920, Note_off_c, 14, 41, 95
5, 121920, Note_on_c, 14, 37, 95
5, 121964, Note_off_c, 14, 37, 95
5, 122160, Note_on_c, 14, 39, 95
5, 122400, Note_off_c, 14, 39, 95
5, 122400, Note_on_c, 14, 36, 95
5, 122640, Note_off_c, 14, 36, 95
5, 122640, Note_on_c, 14, 34, 95
5, 122880, Note_off_c, 14, 34, 95
5, 122880, Note_on_c, 14, 43, 95
5, 123120, Note_off_c, 14, 43, 95
5, 123120, Note_on_c, 14, 43, 95
5, 123600, Note_off_c, 14, 43, 95
5, 123600, Note_on_c, 14, 43, 95
5, 123840, Note_off_c, 14, 43, 95
5, 123840, Note_on_c, 14, 41, 95
5, 124080, Note_off_c, 14, 41, 95
5, 124080, Note_on_c, 14, 41, 95
5, 124560, Note_off_c, 14, 41, 95
5, 124560, Note_on_c, 14, 41, 95
5, 124800, Note_off_c, 14, 41, 95
5, 124800, Note_on_c, 14, 40, 95
5, 125040, Note_off_c, 14, 40, 95
5, 125040, Note_on_c, 14, 40, 95
5, 125520, Note_off_c, 14, 40, 95
5, 125520, Note_on_c, 14, 40, 95
5, 125760, Note_off_c, 14, 40, 95
5, 125760, Note_on_c, 14, 38, 95
5, 126000, Note_off_c, 14, 38, 95
5, 126000, Note_on_c, 14, 38, 95
5, 126240, Note_off_c, 14, 38, 95
5, 126240, Note_on_c, 14, 36, 95
5, 126480, Note_off_c, 14, 36, 95
5, 126480, Note_on_c, 14, 35, 95
5, 126720, Note_off_c, 14, 35, 95
5, 126720, Note_on_c, 14, 41, 95
5, 126960, Note_off_c, 14, 41, 95
5, 126960, Note_on_c, 14, 36, 95
5, 127200, Note_off_c, 14, 36, 95
5, 127200, Note_on_c, 14, 33, 95
5, 127680, Note_off_c, 14, 33, 95
5, 127680, Note_on_c, 14, 34, 95
5, 128160, Note_off_c, 14, 34, 95
5, 128160, Note_on_c, 14, 35, 95
5, 128400, Note_off_c, 14, 35, 95
5, 128400, Note_on_c, 14, 36, 95
5, 128880, Note_off_c, 14, 36, 95
5, 128880, Note_on_c, 14, 36, 95
5, 129120, Note_off_c, 14, 36, 95
5, 129120, Note_on_c, 14, 39, 95
5, 129360, Note_off_c, 14, 39, 95
5, 129360, Note_on_c, 14, 40, 95
5, 129600, Note_off_c, 14, 40, 95
5, 129600, Note_on_c, 14, 41, 95
5, 130080, Note_off_c, 14, 41, 95
5, 130080, Note_on_c, 14, 42, 95
5, 130080, Note_on_c, 14, 42, 95
5, 130124, Note_off_c, 14, 42, 95
5, 130320, Note_off_c, 14, 42, 95
5, 130320, Note_on_c, 14, 42, 95
5, 130560, Note_off_c, 14, 42, 95
5, 130560, Note_on_c, 14, 43, 95
5, 130800, Note_off_c, 14, 43, 95
5, 130800, Note_on_c, 14, 43, 95
5, 131040, Note_off_c, 14, 43, 95
5, 131040, Note_on_c, 14, 43, 95
5, 131280, Note_off_c, 14, 43, 95
5, 131280, Note_on_c, 14, 43, 95
5, 131520, Note_off_c, 14, 43, 95
5, 131520, Note_on_c, 14, 43, 95
5, 131760, Note_off_c, 14, 43, 95
5, 131760, Note_on_c, 14, 43, 95
5, 132000, Note_off_c, 14, 43, 95
5, 132000, Note_on_c, 14, 43, 95
5, 132240, Note_off_c, 14, 43, 95
5, 132240, Note_on_c, 14, 43, 95
5, 132480, Note_off_c, 14, 43, 95
5, 132480, Note_on_c, 14, 43, 95
5, 132720, Note_off_c, 14, 43, 95
5, 132720, Note_on_c, 14, 43, 95
5, 132960, Note_off_c, 14, 43, 95
5, 132960, Note_on_c, 14, 43, 95
5, 133200, Note_off_c, 14, 43, 95
5, 133200, Note_on_c, 14, 43, 95
5, 133440, Note_off_c, 14, 43, 95
5, 133440, Note_on_c, 14, 43, 95
5, 133680, Note_off_c, 14, 43, 95
5, 133680, Note_on_c, 14, 43, 95
5, 133920, Note_off_c, 14, 43, 95
5, 133920, Note_on_c, 14, 43, 95
5, 134160, Note_off_c, 14, 43, 95
5, 134160, Note_on_c, 15, 43, 95
5, 134280, Pitch_bend_c, 15, 9216
5, 134340, Note_on_c, 15, 45, 95
5, 134400, Pitch_bend_c, 15, 10240
5, 134400, Pitch_bend_c, 15, 8192
5, 134400, Note_off_c, 15, 43, 95
5, 134400, Note_off_c, 15, 45, 95
5, 134400, Note_on_c, 15, 46, 95
5, 134640, Note_off_c, 15, 46, 95
5, 134640, Note_on_c, 14, 46, 95
5, 134880, Note_off_c, 14, 46, 95
5, 134880, Note_on_c, 14, 46, 95
5, 135120, Note_off_c, 14, 46, 95
5, 135120, Note_on_c, 14, 46, 95
5, 135360, Note_off_c, 14, 46, 95
5, 135360, Note_on_c, 14, 46, 95
5, 135600, Note_off_c, 14, 46, 95
5, 135600, Note_on_c, 14, 46, 95
5, 135840, Note_off_c, 14, 46, 95
5, 135840, Note_on_c, 14, 46, 95
5, 136080, Note_off_c, 14, 46, 95
5, 136080, Note_on_c, 14, 46, 95
5, 136320, Note_off_c, 14, 46, 95
5, 136320, Note_on_c, 14, 46, 95
5, 136560, Note_off_c, 14, 46, 95
5, 136560, Note_on_c, 14, 46, 95
5, 136800, Note_off_c, 14, 46, 95
5, 136800, Note_on_c, 14, 46, 95
5, 137040, Note_off_c, 14, 46, 95
5, 137040, Note_on_c, 14, 46, 95
5, 137280, Note_off_c, 14, 46, 95
5, 137280, Note_on_c, 14, 46, 95
5, 137520, Note_off_c, 14, 46, 95
5, 137520, Note_on_c, 14, 46, 95
5, 137760, Note_off_c, 14, 46, 95
5, 137760, Note_on_c, 14, 46, 95
5, 138000, Note_off_c, 14, 46, 95
5, 138000, Note_on_c, 14, 46, 95
5, 138240, Note_off_c, 14, 46, 95
5, 138240, Note_on_c, 14, 48, 95
5, 138600, Note_off_c, 14, 48, 95
5, 140160, Note_on_c, 14, 41, 95
5, 140640, Note_off_c, 14, 41, 95
5, 140640, Note_on_c, 14, 41, 95
5, 141840, Note_off_c, 14, 41, 95
5, 141840, Note_on_c, 14, 43, 95
5, 142080, Note_off_c, 14, 43, 95
5, 142080, Note_on_c, 14, 36, 95
5, 142560, Note_off_c, 14, 36, 95
5, 142560, Note_on_c, 14, 36, 95
5, 143040, Note_off_c, 14, 36, 95
5, 143040, Note_on_c, 14, 48, 95
5, 143280, Note_off_c, 14, 48, 95
5, 143280, Note_on_c, 14, 43, 95
5, 143760, Note_off_c, 14, 43, 95
5, 143760, Note_on_c, 14, 42, 95
5, 144000, Note_off_c, 14, 42, 95
5, 144000, Note_on_c, 14, 41, 95
5, 144480, Note_off_c, 14, 41, 95
5, 144480, Note_on_c, 14, 41, 95
5, 144960, Note_off_c, 14, 41, 95
5, 144960, Note_on_c, 14, 48, 95
5, 145200, Note_off_c, 14, 48, 95
5, 145200, Note_on_c, 14, 41, 95
5, 145680, Note_off_c, 14, 41, 95
5, 145680, Note_on_c, 14, 42, 95
5, 145680, Note_on_c, 14, 42, 95
5, 145680, Note_on_c, 14, 32, 95
5, 145724, Note_off_c, 14, 42, 95
5, 145724, Note_off_c, 14, 32, 95
5, 145920, Note_off_c, 14, 42, 95
5, 145920, Note_on_c, 14, 43, 95
5, 146400, Note_off_c, 14, 43, 95
5, 146400, Note_on_c, 14, 43, 95
5, 147120, Note_off_c, 14, 43, 95
5, 147120, Note_on_c, 14, 42, 95
5, 147120, Note_on_c, 14, 42, 95
5, 147120, Note_on_c, 14, 32, 95
5, 147164, Note_off_c, 14, 42, 95
5, 147164, Note_off_c, 14, 32, 95
5, 147360, Note_off_c, 14, 42, 95
5, 147360, Note_on_c, 14, 43, 95
5, 147600, Note_off_c, 14, 43, 95
5, 147600, Note_on_c, 14, 42, 95
5, 147600, Note_on_c, 14, 44, 95
5, 147600, Note_on_c, 14, 32, 95
5, 147644, Note_off_c, 14, 42, 95
5, 147644, Note_off_c, 14, 32, 95
5, 147840, Note_off_c, 14, 44, 95
5, 147840, Note_on_c, 14, 45, 95
5, 148320, Note_off_c, 14, 45, 95
5, 148320, Note_on_c, 14, 45, 95
5, 148800, Note_off_c, 14, 45, 95
5, 149040, Note_on_c, 14, 45, 95
5, 149280, Note_off_c, 14, 45, 95
5, 149280, Note_on_c, 14, 45, 95
5, 149520, Note_off_c, 14, 45, 95
5, 149520, Note_on_c, 14, 45, 95
5, 149760, Note_off_c, 14, 45, 95
5, 149760, Note_on_c, 14, 38, 95
5, 150240, Note_off_c, 14, 38, 95
5, 150240, Note_on_c, 14, 38, 95
5, 150480, Note_off_c, 14, 38, 95
5, 150480, Note_on_c, 14, 38, 95
5, 150720, Note_off_c, 14, 38, 95
5, 150720, Note_on_c, 14, 42, 95
5, 150960, Note_off_c, 14, 42, 95
5, 150960, Note_on_c, 14, 45, 95
5, 151200, Note_off_c, 14, 45, 95
5, 151200, Note_on_c, 14, 47, 95
5, 151440, Note_off_c, 14, 47, 95
5, 151680, Note_on_c, 14, 43, 95
5, 152160, Note_off_c, 14, 43, 95
5, 152160, Note_on_c, 14, 41, 95
5, 152640, Note_off_c, 14, 41, 95
5, 152640, Note_on_c, 14, 40, 95
5, 153120, Note_off_c, 14, 40, 95
5, 153120, Note_on_c, 14, 38, 95
5, 153600, Note_off_c, 14, 38, 95
5, 153600, Note_on_c, 14, 33, 95
5, 154080, Note_off_c, 14, 33, 95
5, 154080, Note_on_c, 14, 33, 95
5, 154560, Note_off_c, 14, 33, 95
5, 154560, Note_on_c, 14, 33, 95
5, 155040, Note_off_c, 14, 33, 95
5, 155040, Note_on_c, 14, 33, 95
5, 155520, Note_off_c, 14, 33, 95
5, 155520, Note_on_c, 14, 31, 95
5, 156000, Note_off_c, 14, 31, 95
5, 156000, Note_on_c, 14, 31, 95
5, 156480, Note_off_c, 14, 31, 95
5, 156480, Note_on_c, 14, 35, 95
5, 156720, Note_off_c, 14, 35, 95
5, 156720, Note_on_c, 14, 35, 95
5, 156960, Note_off_c, 14, 35, 95
5, 156960, Note_on_c, 14, 36, 95
5, 157200, Note_off_c, 14, 36, 95
5, 157200, Note_on_c, 14, 37, 95
5, 157440, Note_off_c, 14, 37, 95
5, 157440, Note_on_c, 14, 38, 95
5, 157920, Note_off_c, 14, 38, 95
5, 157920, Note_on_c, 14, 38, 95
5, 158640, Note_off_c, 14, 38, 95
5, 158640, Note_on_c, 14, 38, 95
5, 158880, Note_off_c, 14, 38, 95
5, 158880, Note_on_c, 14, 42, 95
5, 159360, Note_off_c, 14, 42, 95
5, 159360, Note_on_c, 14, 43, 95
5, 160080, Note_off_c, 14, 43, 95
5, 160080, Note_on_c, 14, 36, 95
5, 160320, Note_off_c, 14, 36, 95
5, 160560, Note_on_c, 14, 31, 95
5, 160800, Note_off_c, 14, 31, 95
5, 160800, Note_on_c, 14, 31, 95
5, 161280, Note_off_c, 14, 31, 95
5, 161280, Note_on_c, 14, 33, 95
5, 163200, Note_off_c, 14, 33, 95
5, 164400, Note_on_c, 14, 36, 95
5, 164640, Note_off_c, 14, 36, 95
5, 164640, Note_on_c, 14, 36, 95
5, 164880, Note_off_c, 14, 36, 95
5, 164880, Note_on_c, 14, 37, 95
5, 165120, Note_off_c, 14, 37, 95
5, 165120, Note_on_c, 14, 38, 95
5, 165600, Note_off_c, 14, 38, 95
5, 165600, Note_on_c, 14, 38, 95
5, 166080, Note_off_c, 14, 38, 95
5, 166560, Note_on_c, 14, 50, 95
5, 166800, Note_off_c, 14, 50, 95
5, 166800, Note_on_c, 14, 50, 95
5, 167040, Note_off_c, 14, 50, 95
5, 167040, Note_on_c, 14, 43, 95
5, 167520, Note_off_c, 14, 43, 95
5, 167520, Note_on_c, 14, 43, 95
5, 168000, Note_off_c, 14, 43, 95
5, 168480, Note_on_c, 14, 48, 95
5, 168720, Note_off_c, 14, 48, 95
5, 168720, Note_on_c, 14, 48, 95
5, 168960, Note_off_c, 14, 48, 95
5, 168960, Note_on_c, 14, 45, 95
5, 169440, Note_off_c, 14, 45, 95
5, 169440, Note_on_c, 14, 45, 95
5, 169920, Note_off_c, 14, 45, 95
5, 170640, Note_on_c, 14, 44, 95
5, 170880, Note_off_c, 14, 44, 95
5, 170880, Note_on_c, 14, 43, 95
5, 171360, Note_off_c, 14, 43, 95
5, 171360, Note_on_c, 14, 43, 95
5, 171600, Note_off_c, 14, 43, 95
5, 171600, Note_on_c, 14, 35, 95
5, 171840, Note_off_c, 14, 35, 95
5, 171840, Note_on_c, 14, 35, 95
5, 172080, Note_off_c, 14, 35, 95
5, 172080, Note_on_c, 14, 36, 95
5, 172560, Note_off_c, 14, 36, 95
5, 172560, Note_on_c, 14, 37, 95
5, 172800, Note_off_c, 14, 37, 95
5, 172800, Note_on_c, 14, 38, 95
5, 173280, Note_off_c, 14, 38, 95
5, 173280, Note_on_c, 14, 38, 95
5, 173760, Note_off_c, 14, 38, 95
5, 174000, Note_on_c, 14, 38, 95
5, 174240, Note_off_c, 14, 38, 95
5, 174240, Note_on_c, 14, 38, 95
5, 174480, Note_off_c, 14, 38, 95
5, 174480, Note_on_c, 14, 38, 95
5, 174720, Note_off_c, 14, 38, 95
5, 174720, Note_on_c, 14, 40, 95
5, 175200, Note_off_c, 14, 40, 95
5, 175200, Note_on_c, 14, 40, 95
5, 175680, Note_off_c, 14, 40, 95
5, 175920, Note_on_c, 14, 40, 95
5, 176160, Note_off_c, 14, 40, 95
5, 176160, Note_on_c, 14, 43, 95
5, 176400, Note_off_c, 14, 43, 95
5, 176400, Note_on_c, 14, 44, 95
5, 176640, Note_off_c, 14, 44, 95
5, 176640, Note_on_c, 14, 45, 95
5, 176880, Note_off_c, 14, 45, 95
5, 176880, Note_on_c, 14, 40, 95
5, 177120, Note_off_c, 14, 40, 95
5, 177120, Note_on_c, 14, 37, 95
5, 177600, Note_off_c, 14, 37, 95
5, 177600, Note_on_c, 14, 33, 95
5, 177840, Note_off_c, 14, 33, 95
5, 177840, Note_on_c, 14, 37, 95
5, 178080, Note_off_c, 14, 37, 95
5, 178080, Note_on_c, 14, 40, 95
5, 178320, Note_off_c, 14, 40, 95
5, 178320, Note_on_c, 14, 45, 95
5, 178560, Note_off_c, 14, 45, 95
5, 178560, Note_on_c, 14, 43, 95
5, 179040, Note_off_c, 14, 43, 95
5, 179040, Note_on_c, 14, 43, 95
5, 179280, Note_off_c, 14, 43, 95
5, 179280, Note_on_c, 14, 31, 95
5, 179520, Note_off_c, 14, 31, 95
5, 179520, Note_on_c, 14, 35, 95
5, 179760, Note_off_c, 14, 35, 95
5, 179760, Note_on_c, 14, 36, 95
5, 180240, Note_off_c, 14, 36, 95
5, 180240, Note_on_c, 14, 37, 95
5, 180480, Note_off_c, 14, 37, 95
5, 180480, Note_on_c, 14, 38, 95
5, 180720, Note_off_c, 14, 38, 95
5, 180720, Note_on_c, 14, 38, 95
5, 180960, Note_off_c, 14, 38, 95
5, 180960, Note_on_c, 14, 30, 95
5, 181440, Note_off_c, 14, 30, 95
5, 181440, Note_on_c, 14, 35, 95
5, 181920, Note_off_c, 14, 35, 95
5, 181920, Note_on_c, 14, 33, 95
5, 182400, Note_off_c, 14, 33, 95
5, 182400, Note_on_c, 14, 31, 95
5, 182640, Note_off_c, 14, 31, 95
5, 182640, Note_on_c, 14, 31, 95
5, 182880, Note_off_c, 14, 31, 95
5, 182880, Note_on_c, 14, 35, 95
5, 183360, Note_off_c, 14, 35, 95
5, 183360, Note_on_c, 14, 38, 95
5, 183600, Note_off_c, 14, 38, 95
5, 183600, Note_on_c, 14, 40, 95
5, 183840, Note_off_c, 14, 40, 95
5, 183840, Note_on_c, 14, 38, 95
5, 184320, Note_off_c, 14, 38, 95
5, 184320, Note_on_c, 14, 43, 95
5, 184800, Note_off_c, 14, 43, 95
5, 184800, Note_on_c, 14, 43, 95
5, 185520, Note_off_c, 14, 43, 95
5, 185520, Note_on_c, 14, 43, 95
5, 185760, Note_off_c, 14, 43, 95
5, 185760, Note_on_c, 14, 43, 95
5, 186000, Note_off_c, 14, 43, 95
5, 186000, Note_on_c, 14, 43, 95
5, 186240, Note_off_c, 14, 43, 95
5, 186240, Note_on_c, 14, 44, 95
5, 186480, Note_off_c, 14, 44, 95
5, 186480, Note_on_c, 14, 44, 95
5, 186720, Note_off_c, 14, 44, 95
5, 186720, Note_on_c, 14, 44, 95
5, 186960, Note_off_c, 14, 44, 95
5, 186960, Note_on_c, 14, 44, 95
5, 187200, Note_off_c, 14, 44, 95
5, 187200, Note_on_c, 14, 51, 95
5, 187440, Note_off_c, 14, 51, 95
5, 187440, Note_on_c, 14, 44, 95
5, 187680, Note_off_c, 14, 44, 95
5, 187680, Note_on_c, 14, 51, 95
5, 187920, Note_off_c, 14, 51, 95
5, 187920, Note_on_c, 14, 44, 95
5, 188160, Note_off_c, 14, 44, 95
5, 188160, Note_on_c, 14, 43, 95
5, 188400, Note_off_c, 14, 43, 95
5, 188400, Note_on_c, 14, 43, 95
5, 188640, Note_off_c, 14, 43, 95
5, 188640, Note_on_c, 14, 41, 95
5, 188880, Note_off_c, 14, 41, 95
5, 188880, Note_on_c, 14, 41, 95
5, 189120, Note_off_c, 14, 41, 95
5, 189120, Note_on_c, 14, 40, 95
5, 189360, Note_off_c, 14, 40, 95
5, 189360, Note_on_c, 14, 40, 95
5, 189600, Note_off_c, 14, 40, 95
5, 189600, Note_on_c, 14, 38, 95
5, 189840, Note_off_c, 14, 38, 95
5, 189840, Note_on_c, 14, 38, 95
5, 190080, Note_off_c, 14, 38, 95
5, 190080, Note_on_c, 14, 36, 95
5, 190320, Note_off_c, 14, 36, 95
5, 190320, Note_on_c, 14, 36, 95
5, 190560, Note_off_c, 14, 36, 95
5, 190560, Note_on_c, 14, 35, 95
5, 190800, Note_off_c, 14, 35, 95
5, 190800, Note_on_c, 14, 35, 95
5, 191040, Note_off_c, 14, 35, 95
5, 191040, Note_on_c, 14, 33, 95
5, 191280, Note_off_c, 14, 33, 95
5, 191280, Note_on_c, 14, 33, 95
5, 191520, Note_off_c, 14, 33, 95
5, 191520, Note_on_c, 14, 31, 95
5, 191760, Note_off_c, 14, 31, 95
5, 191760, Note_on_c, 14, 31, 95
5, 192000, Note_off_c, 14, 31, 95
5, 192000, Note_on_c, 14, 41, 95
5, 192480, Note_off_c, 14, 41, 95
5, 192480, Note_on_c, 14, 41, 95
5, 192960, Note_off_c, 14, 41, 95
5, 192960, Note_on_c, 14, 41, 95
5, 193440, Note_off_c, 14, 41, 95
5, 193440, Note_on_c, 14, 36, 95
5, 194400, Note_off_c, 14, 36, 95
5, 194400, Note_on_c, 14, 36, 95
5, 194880, Note_off_c, 14, 36, 95
5, 194880, Note_on_c, 14, 36, 95
5, 195360, Note_off_c, 14, 36, 95
5, 195360, Note_on_c, 14, 36, 95
5, 195840, Note_off_c, 14, 36, 95
5, 195840, Note_on_c, 14, 34, 95
5, 196320, Note_off_c, 14, 34, 95
5, 196320, Note_on_c, 14, 38, 95
5, 196800, Note_off_c, 14, 38, 95
5, 196800, Note_on_c, 14, 41, 95
5, 197280, Note_off_c, 14, 41, 95
5, 197280, Note_on_c, 14, 31, 95
5, 197760, Note_off_c, 14, 31, 95
5, 197760, Note_on_c, 14, 31, 95
5, 198000, Note_off_c, 14, 31, 95
5, 198000, Note_on_c, 14, 31, 95
5, 198480, Note_off_c, 14, 31, 95
5, 198480, Note_on_c, 14, 31, 95
5, 198720, Note_off_c, 14, 31, 95
5, 198720, Note_on_c, 14, 31, 95
5, 199200, Note_off_c, 14, 31, 95
5, 199200, Note_on_c, 14, 31, 95
5, 199680, Note_off_c, 14, 31, 95
5, 199680, Note_on_c, 14, 36, 95
5, 200160, Note_off_c, 14, 36, 95
5, 200160, Note_on_c, 14, 40, 95
5, 200640, Note_off_c, 14, 40, 95
5, 200640, Note_on_c, 14, 43, 95
5, 201120, Note_off_c, 14, 43, 95
5, 201120, Note_on_c, 14, 43, 95
5, 204480, Note_off_c, 14, 43, 95
5, 206880, Note_on_c, 14, 48, 95
5, 207120, Note_off_c, 14, 48, 95
5, 207120, Note_on_c, 14, 49, 95
5, 207360, Note_off_c, 14, 49, 95
5, 207360, Note_on_c, 14, 50, 95
5, 207600, Note_off_c, 14, 50, 95
5, 207600, Note_on_c, 14, 45, 95
5, 207840, Note_off_c, 14, 45, 95
5, 207840, Note_on_c, 14, 42, 95
5, 208320, Note_off_c, 14, 42, 95
5, 208320, Note_on_c, 14, 38, 95
5, 208560, Note_off_c, 14, 38, 95
5, 208560, Note_on_c, 14, 38, 95
5, 208800, Note_off_c, 14, 38, 95
5, 208800, Note_on_c, 14, 36, 95
5, 209280, Note_off_c, 14, 36, 95
5, 209280, Note_on_c, 14, 31, 95
5, 209760, Note_off_c, 14, 31, 95
5, 209760, Note_on_c, 14, 31, 95
5, 210000, Note_off_c, 14, 31, 95
5, 210000, Note_on_c, 14, 31, 95
5, 210240, Note_off_c, 14, 31, 95
5, 210240, Note_on_c, 14, 35, 95
5, 210480, Note_off_c, 14, 35, 95
5, 210480, Note_on_c, 14, 38, 95
5, 210720, Note_off_c, 14, 38, 95
5, 210720, Note_on_c, 14, 40, 95
5, 211200, Note_off_c, 14, 40, 95
5, 211200, Note_on_c, 14, 33, 95
5, 211680, Note_off_c, 14, 33, 95
5, 211680, Note_on_c, 14, 33, 95
5, 211920, Note_off_c, 14, 33, 95
5, 211920, Note_on_c, 14, 33, 95
5, 212160, Note_off_c, 14, 33, 95
5, 212160, Note_on_c, 14, 35, 95
5, 212400, Note_off_c, 14, 35, 95
5, 212400, Note_on_c, 14, 37, 95
5, 212640, Note_off_c, 14, 37, 95
5, 212640, Note_on_c, 14, 40, 95
5, 212880, Note_off_c, 14, 40, 95
5, 212880, Note_on_c, 14, 42, 95
5, 213120, Note_off_c, 14, 42, 95
5, 213120, Note_on_c, 14, 43, 95
5, 214080, Note_off_c, 14, 43, 95
5, 214080, Note_on_c, 14, 38, 95
5, 214320, Note_off_c, 14, 38, 95
5, 214320, Note_on_c, 14, 38, 95
5, 214800, Note_off_c, 14, 38, 95
5, 214800, Note_on_c, 14, 39, 95
5, 215040, Note_off_c, 14, 39, 95
5, 215040, Note_on_c, 14, 40, 95
5, 215280, Note_off_c, 14, 40, 95
5, 215280, Note_on_c, 14, 40, 95
5, 215520, Note_off_c, 14, 40, 95
5, 215520, Note_on_c, 14, 38, 95
5, 216000, Note_off_c, 14, 38, 95
5, 216000, Note_on_c, 14, 35, 95
5, 216480, Note_off_c, 14, 35, 95
5, 216480, Note_on_c, 14, 33, 95
5, 216960, Note_off_c, 14, 33, 95
5, 216960, Note_on_c, 14, 31, 95
5, 217440, Note_off_c, 14, 31, 95
5, 217440, Note_on_c, 14, 35, 95
5, 217680, Note_off_c, 14, 35, 95
5, 217680, Note_on_c, 14, 36, 95
5, 217920, Note_off_c, 14, 36, 95
5, 217920, Note_on_c, 14, 38, 95
5, 218400, Note_off_c, 14, 38, 95
5, 218400, Note_on_c, 14, 40, 95
5, 218880, Note_off_c, 14, 40, 95
5, 218880, Note_on_c, 14, 33, 95
5, 219360, Note_off_c, 14, 33, 95
5, 219360, Note_on_c, 14, 33, 95
5, 219840, Note_off_c, 14, 33, 95
5, 219840, Note_on_c, 14, 33, 95
5, 220080, Note_off_c, 14, 33, 95
5, 220080, Note_on_c, 14, 33, 95
5, 220320, Note_off_c, 14, 33, 95
5, 220320, Note_on_c, 14, 33, 95
5, 220560, Note_off_c, 14, 33, 95
5, 220560, Note_on_c, 14, 33, 95
5, 220800, Note_off_c, 14, 33, 95
5, 220800, Note_on_c, 14, 31, 95
5, 221280, Note_off_c, 14, 31, 95
5, 221280, Note_on_c, 14, 35, 95
5, 221760, Note_off_c, 14, 35, 95
5, 221760, Note_on_c, 14, 36, 95
5, 222240, Note_off_c, 14, 36, 95
5, 222240, Note_on_c, 14, 37, 95
5, 222720, Note_off_c, 14, 37, 95
5, 222720, Note_on_c, 14, 38, 95
5, 223200, Note_off_c, 14, 38, 95
5, 223200, Note_on_c, 14, 38, 95
5, 223680, Note_off_c, 14, 38, 95
5, 223680, Note_on_c, 14, 38, 95
5, 223920, Note_off_c, 14, 38, 95
5, 223920, Note_on_c, 14, 38, 95
5, 224160, Note_off_c, 14, 38, 95
5, 224160, Note_on_c, 14, 38, 95
5, 224400, Note_off_c, 14, 38, 95
5, 224400, Note_on_c, 14, 38, 95
5, 224640, Note_off_c, 14, 38, 95
5, 224640, Note_on_c, 14, 43, 95
5, 224880, Note_off_c, 14, 43, 95
5, 224880, Note_on_c, 14, 43, 95
5, 225120, Note_off_c, 14, 43, 95
5, 225120, Note_on_c, 14, 38, 95
5, 225360, Note_off_c, 14, 38, 95
5, 225360, Note_on_c, 14, 38, 95
5, 225600, Note_off_c, 14, 38, 95
5, 225600, Note_on_c, 14, 35, 95
5, 226080, Note_off_c, 14, 35, 95
5, 226080, Note_on_c, 14, 31, 95
5, 226560, Note_off_c, 14, 31, 95
5, 226560, Note_on_c, 14, 33, 95
5, 227040, Note_off_c, 14, 33, 95
5, 227040, Note_on_c, 14, 33, 95
5, 227520, Note_off_c, 14, 33, 95
5, 227520, Note_on_c, 14, 45, 95
5, 227760, Note_off_c, 14, 45, 95
5, 227760, Note_on_c, 14, 45, 95
5, 228000, Note_off_c, 14, 45, 95
5, 228000, Note_on_c, 14, 45, 95
5, 228240, Note_off_c, 14, 45, 95
5, 228240, Note_on_c, 14, 45, 95
5, 228480, Note_off_c, 14, 45, 95
5, 228480, Note_on_c, 14, 44, 95
5, 228720, Note_off_c, 14, 44, 95
5, 228720, Note_on_c, 14, 44, 95
5, 228960, Note_off_c, 14, 44, 95
5, 228960, Note_on_c, 14, 51, 95
5, 229200, Note_off_c, 14, 51, 95
5, 229200, Note_on_c, 14, 44, 95
5, 229440, Note_off_c, 14, 44, 95
5, 229440, Note_on_c, 14, 44, 95
5, 229680, Note_off_c, 14, 44, 95
5, 229680, Note_on_c, 14, 44, 95
5, 229920, Note_off_c, 14, 44, 95
5, 229920, Note_on_c, 14, 44, 95
5, 230400, Note_off_c, 14, 44, 95
5, 230400, Note_on_c, 14, 43, 95
5, 230640, Note_off_c, 14, 43, 95
5, 230640, Note_on_c, 14, 43, 95
5, 230880, Note_off_c, 14, 43, 95
5, 230880, Note_on_c, 14, 41, 95
5, 231120, Note_off_c, 14, 41, 95
5, 231120, Note_on_c, 14, 41, 95
5, 231360, Note_off_c, 14, 41, 95
5, 231360, Note_on_c, 14, 40, 95
5, 231600, Note_off_c, 14, 40, 95
5, 231600, Note_on_c, 14, 31, 95
5, 231840, Note_off_c, 14, 31, 95
5, 231840, Note_on_c, 14, 35, 95
5, 232320, Note_off_c, 14, 35, 95
5, 232320, Note_on_c, 14, 35, 95
5, 232560, Note_off_c, 14, 35, 95
5, 232560, Note_on_c, 14, 36, 95
5, 233040, Note_off_c, 14, 36, 95
5, 233040, Note_on_c, 14, 37, 95
5, 233280, Note_off_c, 14, 37, 95
5, 233280, Note_on_c, 14, 38, 95
5, 233520, Note_off_c, 14, 38, 95
5, 233520, Note_on_c, 14, 40, 95
5, 233760, Note_off_c, 14, 40, 95
5, 233760, Note_on_c, 14, 41, 95
5, 234000, Note_off_c, 14, 41, 95
5, 234000, Note_on_c, 14, 42, 95
5, 234240, Note_off_c, 14, 42, 95
5, 234240, Note_on_c, 14, 43, 95
5, 234480, Note_off_c, 14, 43, 95
5, 234480, Note_on_c, 14, 43, 95
5, 234720, Note_off_c, 14, 43, 95
5, 234720, Note_on_c, 14, 35, 95
5, 235200, Note_off_c, 14, 35, 95
5, 235200, Note_on_c, 14, 36, 95
5, 235440, Note_off_c, 14, 36, 95
5, 235440, Note_on_c, 14, 37, 95
5, 235680, Note_off_c, 14, 37, 95
5, 235680, Note_on_c, 14, 38, 95
5, 236400, Note_off_c, 14, 38, 95
5, 236400, Note_on_c, 14, 30, 95
5, 236880, Note_off_c, 14, 30, 95
5, 236880, Note_on_c, 14, 29, 95
5, 237360, Note_off_c, 14, 29, 95
5, 237360, Note_on_c, 14, 30, 95
5, 237840, Note_off_c, 14, 30, 95
5, 237840, Note_on_c, 14, 30, 95
5, 238080, Note_off_c, 14, 30, 95
5, 238080, Note_on_c, 14, 31, 95
5, 238560, Note_off_c, 14, 31, 95
5, 238560, Note_on_c, 14, 31, 95
5, 238800, Note_off_c, 14, 31, 95
5, 238800, Note_on_c, 14, 31, 95
5, 239040, Note_off_c, 14, 31, 95
5, 239040, Note_on_c, 14, 36, 95
5, 239280, Note_off_c, 14, 36, 95
5, 239280, Note_on_c, 14, 37, 95
5, 239520, Note_off_c, 14, 37, 95
5, 239520, Note_on_c, 14, 38, 95
5, 239760, Note_off_c, 14, 38, 95
5, 239760, Note_on_c, 14, 38, 95
5, 240000, Note_off_c, 14, 38, 95
5, 240000, Note_on_c, 14, 43, 95
5, 240240, Note_off_c, 14, 43, 95
5, 240240, Note_on_c, 14, 43, 95
5, 240480, Note_off_c, 14, 43, 95
5, 240480, Note_on_c, 14, 43, 95
5, 240720, Note_off_c, 14, 43, 95
5, 240720, Note_on_c, 14, 43, 95
5, 240960, Note_off_c, 14, 43, 95
5, 240960, Note_on_c, 14, 43, 95
5, 241200, Note_off_c, 14, 43, 95
5, 241200, Note_on_c, 14, 43, 95
5, 241440, Note_off_c, 14, 43, 95
5, 241440, Note_on_c, 14, 43, 95
5, 241680, Note_off_c, 14, 43, 95
5, 241680, Note_on_c, 14, 43, 95
5, 241920, Note_off_c, 14, 43, 95
5, 241920, Note_on_c, 14, 31, 95
5, 242400, Note_off_c, 14, 31, 95
5, 242400, Note_on_c, 14, 31, 95
5, 242880, Note_off_c, 14, 31, 95
5, 242880, Note_on_c, 14, 31, 95
5, 243360, Note_off_c, 14, 31, 95
5, 243360, Note_on_c, 14, 31, 95
5, 243600, Note_off_c, 14, 31, 95
5, 243600, Note_on_c, 14, 31, 95
5, 243840, Note_off_c, 14, 31, 95
5, 243840, Note_on_c, 14, 35, 95
5, 244080, Note_off_c, 14, 35, 95
5, 244080, Note_on_c, 14, 36, 95
5, 244320, Note_off_c, 14, 36, 95
5, 244320, Note_on_c, 14, 37, 95
5, 244560, Note_off_c, 14, 37, 95
5, 244560, Note_on_c, 14, 38, 95
5, 244800, Note_off_c, 14, 38, 95
5, 244800, Note_on_c, 14, 43, 95
5, 245280, Note_off_c, 14, 43, 95
5, 245280, Note_on_c, 14, 41, 95
5, 245520, Note_off_c, 14, 41, 95
5, 245520, Note_on_c, 14, 38, 95
5, 245760, Note_off_c, 14, 38, 95
5, 245760, Note_on_c, 14, 43, 95
5, 246240, Note_off_c, 14, 43, 95
5, 246240, Note_on_c, 14, 41, 95
5, 246480, Note_off_c, 14, 41, 95
5, 246480, Note_on_c, 14, 41, 95
5, 246720, Note_off_c, 14, 41, 95
5, 246720, Note_on_c, 14, 43, 95
5, 247200, Note_off_c, 14, 43, 95
5, 247200, Note_on_c, 14, 41, 95
5, 247440, Note_off_c, 14, 41, 95
5, 247440, Note_on_c, 14, 43, 95
5, 247680, Note_off_c, 14, 43, 95
5, 247680, Note_on_c, 14, 43, 95
5, 247920, Note_off_c, 14, 43, 95
5, 247920, Note_on_c, 14, 43, 95
5, 248160, Note_off_c, 14, 43, 95
5, 248160, Note_on_c, 14, 35, 95
5, 248640, Note_off_c, 14, 35, 95
5, 248640, Note_on_c, 14, 36, 95
5, 249120, Note_off_c, 14, 36, 95
5, 249120, Note_on_c, 14, 37, 95
5, 249360, Note_off_c, 14, 37, 95
5, 249360, Note_on_c, 14, 38, 95
5, 249600, Note_off_c, 14, 38, 95
5, 249600, Note_on_c, 14, 31, 95
5, 250080, Note_off_c, 14, 31, 95
5, 250080, Note_on_c, 14, 31, 95
5, 250560, Note_off_c, 14, 31, 95
5, 250560, Note_on_c, 14, 31, 95
5, 250800, Note_off_c, 14, 31, 95
5, 250800, Note_on_c, 14, 31, 95
5, 251040, Note_off_c, 14, 31, 95
5, 251040, Note_on_c, 14, 31, 95
5, 251520, Note_off_c, 14, 31, 95
5, 251520, Note_on_c, 14, 31, 95
5, 252000, Note_off_c, 14, 31, 95
5, 252000, Note_on_c, 14, 35, 95
5, 252480, Note_off_c, 14, 35, 95
5, 252480, Note_on_c, 14, 36, 95
5, 252960, Note_off_c, 14, 36, 95
5, 252960, Note_on_c, 14, 37, 95
5, 253200, Note_off_c, 14, 37, 95
5, 253200, Note_on_c, 14, 38, 95
5, 253440, Note_off_c, 14, 38, 95
5, 253440, Note_on_c, 14, 43, 95
5, 253920, Note_off_c, 14, 43, 95
5, 253920, Note_on_c, 14, 42, 95
5, 254400, Note_off_c, 14, 42, 95
5, 254400, Note_on_c, 14, 43, 95
5, 254640, Note_off_c, 14, 43, 95
5, 254640, Note_on_c, 14, 43, 95
5, 254880, Note_off_c, 14, 43, 95
5, 254880, Note_on_c, 14, 42, 95
5, 255120, Note_off_c, 14, 42, 95
5, 255120, Note_on_c, 14, 42, 95
5, 255360, Note_off_c, 14, 42, 95
5, 255360, Note_on_c, 14, 43, 95
5, 255600, Note_off_c, 14, 43, 95
5, 255600, Note_on_c, 14, 43, 95
5, 255840, Note_off_c, 14, 43, 95
5, 255840, Note_on_c, 14, 47, 95
5, 256080, Note_off_c, 14, 47, 95
5, 256080, Note_on_c, 14, 47, 95
5, 256320, Note_off_c, 14, 47, 95
5, 256320, Note_on_c, 14, 48, 95
5, 256560, Note_off_c, 14, 48, 95
5, 256560, Note_on_c, 14, 48, 95
5, 256800, Note_off_c, 14, 48, 95
5, 256800, Note_on_c, 14, 49, 95
5, 257040, Note_off_c, 14, 49, 95
5, 257040, Note_on_c, 14, 50, 95
5, 257280, Note_off_c, 14, 50, 95
5, 257280, Note_on_c, 14, 43, 95
5, 257520, Note_off_c, 14, 43, 95
5, 257520, Note_on_c, 14, 43, 95
5, 258000, Note_off_c, 14, 43, 95
5, 258000, Note_on_c, 14, 43, 95
5, 258240, Note_off_c, 14, 43, 95
5, 258240, Note_on_c, 14, 47, 95
5, 258720, Note_off_c, 14, 47, 95
5, 258720, Note_on_c, 14, 47, 95
5, 258960, Note_off_c, 14, 47, 95
5, 258960, Note_on_c, 14, 48, 95
5, 259440, Note_off_c, 14, 48, 95
5, 259440, Note_on_c, 14, 48, 95
5, 259680, Note_off_c, 14, 48, 95
5, 259680, Note_on_c, 14, 49, 95
5, 260160, Note_off_c, 14, 49, 95
5, 260160, Note_on_c, 14, 50, 95
5, 260400, Note_off_c, 14, 50, 95
5, 260400, Note_on_c, 14, 50, 95
5, 260640, Note_off_c, 14, 50, 95
5, 260640, Note_on_c, 14, 45, 95
5, 260880, Note_off_c, 14, 45, 95
5, 260880, Note_on_c, 14, 45, 95
5, 261120, Note_off_c, 14, 45, 95
5, 261120, Note_on_c, 14, 43, 95
5, 261360, Note_off_c, 14, 43, 95
5, 261360, Note_on_c, 14, 43, 95
5, 261600, Note_off_c, 14, 43, 95
5, 261600, Note_on_c, 14, 42, 95
5, 262080, Note_off_c, 14, 42, 95
5, 262080, Note_on_c, 14, 43, 95
5, 262560, Note_off_c, 14, 43, 95
5, 262560, Note_on_c, 14, 42, 95
5, 263040, Note_off_c, 14, 42, 95
5, 263040, Note_on_c, 14, 43, 95
5, 263520, Note_off_c, 14, 43, 95
5, 263520, Note_on_c, 14, 35, 95
5, 264000, Note_off_c, 14, 35, 95
5, 264000, Note_on_c, 14, 36, 95
5, 264480, Note_off_c, 14, 36, 95
5, 264480, Note_on_c, 14, 37, 95
5, 264720, Note_off_c, 14, 37, 95
5, 264720, Note_on_c, 14, 38, 95
5, 264960, Note_off_c, 14, 38, 95
5, 264960, Note_on_c, 14, 31, 95
5, 265200, Note_off_c, 14, 31, 95
5, 265200, Note_on_c, 14, 31, 95
5, 265440, Note_off_c, 14, 31, 95
5, 265440, Note_on_c, 14, 30, 95
5, 265920, Note_off_c, 14, 30, 95
5, 265920, Note_on_c, 14, 31, 95
5, 266400, Note_off_c, 14, 31, 95
5, 266400, Note_on_c, 14, 30, 95
5, 266640, Note_off_c, 14, 30, 95
5, 266640, Note_on_c, 14, 31, 95
5, 267120, Note_off_c, 14, 31, 95
5, 267120, Note_on_c, 14, 31, 95
5, 267360, Note_off_c, 14, 31, 95
5, 267360, Note_on_c, 14, 35, 95
5, 267840, Note_off_c, 14, 35, 95
5, 267840, Note_on_c, 14, 36, 95
5, 268320, Note_off_c, 14, 36, 95
5, 268320, Note_on_c, 14, 38, 95
5, 268800, Note_off_c, 14, 38, 95
5, 268800, Note_on_c, 14, 43, 95
5, 269040, Note_off_c, 14, 43, 95
5, 269040, Note_on_c, 14, 43, 95
5, 269280, Note_off_c, 14, 43, 95
5, 269280, Note_on_c, 14, 42, 95
5, 269760, Note_off_c, 14, 42, 95
5, 269760, Note_on_c, 14, 43, 95
5, 270240, Note_off_c, 14, 43, 95
5, 270240, Note_on_c, 14, 42, 95
5, 270720, Note_off_c, 14, 42, 95
5, 270720, Note_on_c, 14, 43, 95
5, 270960, Note_off_c, 14, 43, 95
5, 270960, Note_on_c, 14, 43, 95
5, 271200, Note_off_c, 14, 43, 95
5, 271200, Note_on_c, 14, 42, 95
5, 271680, Note_off_c, 14, 42, 95
5, 271680, Note_on_c, 14, 43, 95
5, 271920, Note_off_c, 14, 43, 95
5, 271920, Note_on_c, 14, 32, 95
5, 272640, Note_off_c, 14, 32, 95
5, 272640, Note_on_c, 14, 31, 95
5, 273120, Note_off_c, 14, 31, 95
5, 273120, Note_on_c, 14, 31, 95
5, 273600, Note_off_c, 14, 31, 95
5, 273600, Note_on_c, 14, 35, 95
5, 274080, Note_off_c, 14, 35, 95
5, 274080, Note_on_c, 14, 35, 95
5, 274320, Note_off_c, 14, 35, 95
5, 274320, Note_on_c, 14, 37, 95
5, 274800, Note_off_c, 14, 37, 95
5, 274800, Note_on_c, 14, 32, 95
5, 274844, Note_off_c, 14, 32, 95
5, 275040, Note_on_c, 14, 38, 95
5, 275520, Note_off_c, 14, 38, 95
5, 275520, Note_on_c, 14, 41, 95
5, 276000, Note_off_c, 14, 41, 95
5, 276000, Note_on_c, 14, 43, 95
5, 276480, Note_off_c, 14, 43, 95
5, 276480, Note_on_c, 14, 43, 95
5, 276720, Note_off_c, 14, 43, 95
5, 276720, Note_on_c, 14, 43, 95
5, 276960, Note_off_c, 14, 43, 95
5, 276960, Note_on_c, 14, 43, 95
5, 277440, Note_off_c, 14, 43, 95
5, 277440, Note_on_c, 14, 43, 95
5, 277680, Note_off_c, 14, 43, 95
5, 277680, Note_on_c, 14, 43, 95
5, 277920, Note_off_c, 14, 43, 95
5, 277920, Note_on_c, 14, 43, 95
5, 278400, Note_off_c, 14, 43, 95
5, 278400, End_track
6, 0, Start_track
6, 0, Pitch_bend_c, 9, 8192
6, 0, Control_c, 9, 7, 103
6, 0, Control_c, 9, 10, 63
6, 0, Control_c, 9, 93, 31
6, 0, Control_c, 9, 91, 63
6, 0, Control_c, 9, 95, 0
6, 0, Control_c, 9, 92, 0
6, 0, Control_c, 9, 11, 127
6, 0, Program_c, 9, 0
6, 13440, Note_on_c, 9, 48, 111
6, 13560, Note_off_c, 9, 48, 111
6, 13560, Note_on_c, 9, 40, 79
6, 13680, Note_off_c, 9, 40, 79
6, 13680, Note_on_c, 9, 40, 95
6, 13800, Note_off_c, 9, 40, 95
6, 13800, Note_on_c, 9, 40, 111
6, 13920, Note_off_c, 9, 40, 111
6, 13920, Note_on_c, 9, 40, 111
6, 14280, Note_off_c, 9, 40, 111
6, 14400, Note_on_c, 9, 40, 111
6, 14640, Note_off_c, 9, 40, 111
6, 14640, Note_on_c, 9, 36, 111
6, 15120, Note_off_c, 9, 36, 111
6, 15120, Note_on_c, 9, 36, 111
6, 15360, Note_off_c, 9, 36, 111
6, 15360, Note_on_c, 9, 51, 127
6, 15360, Note_on_c, 9, 36, 111
6, 15840, Note_off_c, 9, 51, 127
6, 15840, Note_off_c, 9, 36, 111
6, 15840, Note_on_c, 9, 46, 95
6, 16320, Note_off_c, 9, 46, 95
6, 16320, Note_on_c, 9, 42, 111
6, 16320, Note_on_c, 9, 40, 111
6, 16800, Note_off_c, 9, 42, 111
6, 16800, Note_off_c, 9, 40, 111
6, 16800, Note_on_c, 9, 42, 95
6, 17040, Note_off_c, 9, 42, 95
6, 17040, Note_on_c, 9, 40, 95
6, 17280, Note_off_c, 9, 40, 95
6, 17280, Note_on_c, 9, 42, 111
6, 17280, Note_on_c, 9, 36, 111
6, 17520, Note_off_c, 9, 42, 111
6, 17520, Note_off_c, 9, 36, 111
6, 17520, Note_on_c, 9, 40, 95
6, 17760, Note_off_c, 9, 40, 95
6, 17760, Note_on_c, 9, 46, 111
6, 17760, Note_on_c, 9, 36, 111
6, 18240, Note_off_c, 9, 46, 111
6, 18240, Note_off_c, 9, 36, 111
6, 18240, Note_on_c, 9, 42, 111
6, 18240, Note_on_c, 9, 40, 111
6, 18720, Note_off_c, 9, 42, 111
6, 18720, Note_off_c, 9, 40, 111
6, 18720, Note_on_c, 9, 42, 95
6, 18960, Note_off_c, 9, 42, 95
6, 18960, Note_on_c, 9, 40, 95
6, 19200, Note_off_c, 9, 40, 95
6, 19200, Note_on_c, 9, 42, 111
6, 19200, Note_on_c, 9, 36, 111
6, 19680, Note_off_c, 9, 42, 111
6, 19680, Note_off_c, 9, 36, 111
6, 19680, Note_on_c, 9, 42, 95
6, 19920, Note_off_c, 9, 42, 95
6, 19920, Note_on_c, 9, 36, 111
6, 20160, Note_off_c, 9, 36, 111
6, 20160, Note_on_c, 9, 42, 111
6, 20160, Note_on_c, 9, 40, 111
6, 20640, Note_off_c, 9, 42, 111
6, 20640, Note_off_c, 9, 40, 111
6, 20640, Note_on_c, 9, 42, 95
6, 20880, Note_off_c, 9, 42, 95
6, 20880, Note_on_c, 9, 40, 95
6, 21120, Note_off_c, 9, 40, 95
6, 21120, Note_on_c, 9, 42, 111
6, 21120, Note_on_c, 9, 36, 111
6, 21360, Note_off_c, 9, 42, 111
6, 21360, Note_off_c, 9, 36, 111
6, 21360, Note_on_c, 9, 40, 95
6, 21600, Note_off_c, 9, 40, 95
6, 21600, Note_on_c, 9, 46, 111
6, 21600, Note_on_c, 9, 36, 111
6, 22080, Note_off_c, 9, 46, 111
6, 22080, Note_off_c, 9, 36, 111
6, 22080, Note_on_c, 9, 42, 111
6, 22080, Note_on_c, 9, 40, 111
6, 22320, Note_off_c, 9, 42, 111
6, 22320, Note_off_c, 9, 40, 111
6, 22320, Note_on_c, 9, 36, 111
6, 22560, Note_off_c, 9, 36, 111
6, 22560, Note_on_c, 9, 42, 95
6, 22800, Note_off_c, 9, 42, 95
6, 22800, Note_on_c, 9, 36, 111
6, 23040, Note_off_c, 9, 36, 111
6, 23040, Note_on_c, 9, 42, 111
6, 23040, Note_on_c, 9, 36, 111
6, 23520, Note_off_c, 9, 42, 111
6, 23520, Note_off_c, 9, 36, 111
6, 23520, Note_on_c, 9, 42, 95
6, 24000, Note_off_c, 9, 42, 95
6, 24000, Note_on_c, 9, 42, 111
6, 24000, Note_on_c, 9, 40, 111
6, 24480, Note_off_c, 9, 42, 111
6, 24480, Note_off_c, 9, 40, 111
6, 24480, Note_on_c, 9, 42, 95
6, 24720, Note_off_c, 9, 42, 95
6, 24720, Note_on_c, 9, 40, 95
6, 24960, Note_off_c, 9, 40, 95
6, 24960, Note_on_c, 9, 42, 95
6, 24960, Note_on_c, 9, 36, 95
6, 25200, Note_off_c, 9, 42, 95
6, 25200, Note_off_c, 9, 36, 95
6, 25200, Note_on_c, 9, 40, 95
6, 25440, Note_off_c, 9, 40, 95
6, 25440, Note_on_c, 9, 46, 111
6, 25440, Note_on_c, 9, 36, 111
6, 25920, Note_off_c, 9, 46, 111
6, 25920, Note_off_c, 9, 36, 111
6, 25920, Note_on_c, 9, 42, 111
6, 25920, Note_on_c, 9, 40, 111
6, 26400, Note_off_c, 9, 42, 111
6, 26400, Note_off_c, 9, 40, 111
6, 26400, Note_on_c, 9, 42, 95
6, 26640, Note_off_c, 9, 42, 95
6, 26640, Note_on_c, 9, 40, 95
6, 26880, Note_off_c, 9, 40, 95
6, 26880, Note_on_c, 9, 42, 111
6, 26880, Note_on_c, 9, 36, 111
6, 27360, Note_off_c, 9, 42, 111
6, 27360, Note_off_c, 9, 36, 111
6, 27360, Note_on_c, 9, 42, 95
6, 27600, Note_off_c, 9, 42, 95
6, 27600, Note_on_c, 9, 36, 111
6, 27840, Note_off_c, 9, 36, 111
6, 27840, Note_on_c, 9, 46, 111
6, 27840, Note_on_c, 9, 40, 111
6, 28320, Note_off_c, 9, 46, 111
6, 28320, Note_off_c, 9, 40, 111
6, 28320, Note_on_c, 9, 42, 95
6, 28560, Note_off_c, 9, 42, 95
6, 28560, Note_on_c, 9, 40, 95
6, 28800, Note_off_c, 9, 40, 95
6, 28800, Note_on_c, 9, 42, 111
6, 28800, Note_on_c, 9, 36, 111
6, 29040, Note_off_c, 9, 42, 111
6, 29040, Note_off_c, 9, 36, 111
6, 29040, Note_on_c, 9, 40, 95
6, 29280, Note_off_c, 9, 40, 95
6, 29280, Note_on_c, 9, 42, 111
6, 29280, Note_on_c, 9, 36, 111
6, 29760, Note_off_c, 9, 42, 111
6, 29760, Note_off_c, 9, 36, 111
6, 29760, Note_on_c, 9, 46, 111
6, 29760, Note_on_c, 9, 40, 111
6, 30000, Note_off_c, 9, 46, 111
6, 30000, Note_off_c, 9, 40, 111
6, 30000, Note_on_c, 9, 36, 111
6, 30240, Note_off_c, 9, 36, 111
6, 30240, Note_on_c, 9, 42, 95
6, 30480, Note_off_c, 9, 42, 95
6, 30480, Note_on_c, 9, 36, 111
6, 30720, Note_off_c, 9, 36, 111
6, 30720, Note_on_c, 9, 42, 111
6, 30720, Note_on_c, 9, 36, 111
6, 31200, Note_off_c, 9, 42, 111
6, 31200, Note_off_c, 9, 36, 111
6, 31200, Note_on_c, 9, 42, 95
6, 31440, Note_off_c, 9, 42, 95
6, 31440, Note_on_c, 9, 36, 111
6, 31680, Note_off_c, 9, 36, 111
6, 31680, Note_on_c, 9, 42, 111
6, 31680, Note_on_c, 9, 40, 111
6, 32160, Note_off_c, 9, 42, 111
6, 32160, Note_off_c, 9, 40, 111
6, 32160, Note_on_c, 9, 42, 95
6, 32400, Note_off_c, 9, 42, 95
6, 32400, Note_on_c, 9, 40, 95
6, 32640, Note_off_c, 9, 40, 95
6, 32640, Note_on_c, 9, 42, 95
6, 32640, Note_on_c, 9, 36, 95
6, 32880, Note_off_c, 9, 42, 95
6, 32880, Note_off_c, 9, 36, 95
6, 32880, Note_on_c, 9, 40, 95
6, 33120, Note_off_c, 9, 40, 95
6, 33120, Note_on_c, 9, 46, 111
6, 33120, Note_on_c, 9, 36, 111
6, 33600, Note_off_c, 9, 46, 111
6, 33600, Note_off_c, 9, 36, 111
6, 33600, Note_on_c, 9, 42, 111
6, 33600, Note_on_c, 9, 40, 111
6, 34080, Note_off_c, 9, 42, 111
6, 34080, Note_off_c, 9, 40, 111
6, 34080, Note_on_c, 9, 42, 95
6, 34320, Note_off_c, 9, 42, 95
6, 34320, Note_on_c, 9, 40, 95
6, 34560, Note_off_c, 9, 40, 95
6, 34560, Note_on_c, 9, 42, 111
6, 34560, Note_on_c, 9, 36, 111
6, 35040, Note_off_c, 9, 42, 111
6, 35040, Note_off_c, 9, 36, 111
6, 35040, Note_on_c, 9, 42, 95
6, 35280, Note_off_c, 9, 42, 95
6, 35280, Note_on_c, 9, 36, 111
6, 35520, Note_off_c, 9, 36, 111
6, 35520, Note_on_c, 9, 42, 111
6, 35520, Note_on_c, 9, 40, 111
6, 36000, Note_off_c, 9, 42, 111
6, 36000, Note_off_c, 9, 40, 111
6, 36000, Note_on_c, 9, 42, 95
6, 36240, Note_off_c, 9, 42, 95
6, 36240, Note_on_c, 9, 40, 95
6, 36480, Note_off_c, 9, 40, 95
6, 36480, Note_on_c, 9, 42, 111
6, 36480, Note_on_c, 9, 36, 111
6, 36720, Note_off_c, 9, 42, 111
6, 36720, Note_off_c, 9, 36, 111
6, 36720, Note_on_c, 9, 40, 95
6, 36960, Note_off_c, 9, 40, 95
6, 36960, Note_on_c, 9, 42, 111
6, 36960, Note_on_c, 9, 36, 111
6, 37200, Note_off_c, 9, 42, 111
6, 37200, Note_off_c, 9, 36, 111
6, 37200, Note_on_c, 9, 36, 111
6, 37440, Note_off_c, 9, 36, 111
6, 37440, Note_on_c, 9, 46, 111
6, 37440, Note_on_c, 9, 40, 111
6, 37920, Note_off_c, 9, 46, 111
6, 37920, Note_off_c, 9, 40, 111
6, 37920, Note_on_c, 9, 46, 95
6, 38160, Note_off_c, 9, 46, 95
6, 38160, Note_on_c, 9, 40, 95
6, 38400, Note_off_c, 9, 40, 95
6, 38400, Note_on_c, 9, 42, 111
6, 38400, Note_on_c, 9, 36, 111
6, 38880, Note_off_c, 9, 42, 111
6, 38880, Note_off_c, 9, 36, 111
6, 38880, Note_on_c, 9, 46, 95
6, 38880, Note_on_c, 9, 40, 63
6, 39120, Note_off_c, 9, 46, 95
6, 39120, Note_off_c, 9, 40, 63
6, 39120, Note_on_c, 9, 36, 111
6, 39360, Note_off_c, 9, 36, 111
6, 39360, Note_on_c, 9, 46, 111
6, 39360, Note_on_c, 9, 40, 111
6, 39840, Note_off_c, 9, 46, 111
6, 39840, Note_off_c, 9, 40, 111
6, 39840, Note_on_c, 9, 46, 95
6, 39840, Note_on_c, 9, 40, 95
6, 40080, Note_off_c, 9, 46, 95
6, 40080, Note_off_c, 9, 40, 95
6, 40080, Note_on_c, 9, 36, 111
6, 40320, Note_off_c, 9, 36, 111
6, 40320, Note_on_c, 9, 46, 111
6, 40320, Note_on_c, 9, 40, 111
6, 40800, Note_off_c, 9, 46, 111
6, 40800, Note_off_c, 9, 40, 111
6, 40800, Note_on_c, 9, 46, 95
6, 40800, Note_on_c, 9, 40, 95
6, 41040, Note_off_c, 9, 46, 95
6, 41040, Note_off_c, 9, 40, 95
6, 41040, Note_on_c, 9, 36, 111
6, 41280, Note_off_c, 9, 36, 111
6, 41280, Note_on_c, 9, 46, 111
6, 41280, Note_on_c, 9, 40, 111
6, 41520, Note_off_c, 9, 46, 111
6, 41520, Note_off_c, 9, 40, 111
6, 41520, Note_on_c, 9, 36, 95
6, 41760, Note_off_c, 9, 36, 95
6, 41760, Note_on_c, 9, 46, 95
6, 42000, Note_off_c, 9, 46, 95
6, 42000, Note_on_c, 9, 40, 95
6, 42240, Note_off_c, 9, 40, 95
6, 42240, Note_on_c, 9, 51, 127
6, 42240, Note_on_c, 9, 36, 111
6, 42960, Note_off_c, 9, 51, 127
6, 42960, Note_off_c, 9, 36, 111
6, 42960, Note_on_c, 9, 40, 111
6, 43200, Note_off_c, 9, 40, 111
6, 43200, Note_on_c, 9, 40, 111
6, 43680, Note_off_c, 9, 40, 111
6, 43680, Note_on_c, 9, 51, 127
6, 43680, Note_on_c, 9, 36, 111
6, 44160, Note_off_c, 9, 51, 127
6, 44160, Note_off_c, 9, 36, 111
6, 44640, Note_on_c, 9, 40, 111
6, 45120, Note_off_c, 9, 40, 111
6, 45120, Note_on_c, 9, 40, 111
6, 45360, Note_off_c, 9, 40, 111
6, 45360, Note_on_c, 9, 36, 111
6, 45840, Note_off_c, 9, 36, 111
6, 45840, Note_on_c, 9, 36, 111
6, 46080, Note_off_c, 9, 36, 111
6, 46080, Note_on_c, 9, 49, 111
6, 46080, Note_on_c, 9, 36, 111
6, 46800, Note_off_c, 9, 49, 111
6, 46800, Note_off_c, 9, 36, 111
6, 46800, Note_on_c, 9, 40, 111
6, 47040, Note_off_c, 9, 40, 111
6, 47040, Note_on_c, 9, 40, 111
6, 47520, Note_off_c, 9, 40, 111
6, 47520, Note_on_c, 9, 57, 111
6, 47520, Note_on_c, 9, 36, 111
6, 48000, Note_off_c, 9, 57, 111
6, 48000, Note_off_c, 9, 36, 111
6, 48480, Note_on_c, 9, 40, 95
6, 48480, Note_on_c, 9, 45, 111
6, 48720, Note_off_c, 9, 40, 95
6, 48720, Note_off_c, 9, 45, 111
6, 48720, Note_on_c, 9, 40, 95
6, 48720, Note_on_c, 9, 45, 111
6, 48960, Note_off_c, 9, 40, 95
6, 48960, Note_off_c, 9, 45, 111
6, 48960, Note_on_c, 9, 40, 95
6, 48960, Note_on_c, 9, 45, 111
6, 49200, Note_off_c, 9, 40, 95
6, 49200, Note_off_c, 9, 45, 111
6, 49200, Note_on_c, 9, 40, 95
6, 49200, Note_on_c, 9, 45, 111
6, 49440, Note_off_c, 9, 40, 95
6, 49440, Note_off_c, 9, 45, 111
6, 49440, Note_on_c, 9, 40, 95
6, 49440, Note_on_c, 9, 45, 111
6, 49680, Note_off_c, 9, 40, 95
6, 49680, Note_off_c, 9, 45, 111
6, 49680, Note_on_c, 9, 36, 111
6, 49920, Note_off_c, 9, 36, 111
6, 49920, Note_on_c, 9, 51, 127
6, 49920, Note_on_c, 9, 36, 111
6, 50640, Note_off_c, 9, 51, 127
6, 50640, Note_off_c, 9, 36, 111
6, 50640, Note_on_c, 9, 40, 111
6, 50880, Note_off_c, 9, 40, 111
6, 50880, Note_on_c, 9, 40, 111
6, 51360, Note_off_c, 9, 40, 111
6, 51360, Note_on_c, 9, 49, 111
6, 51360, Note_on_c, 9, 36, 111
6, 51840, Note_off_c, 9, 49, 111
6, 51840, Note_off_c, 9, 36, 111
6, 56520, Note_on_c, 9, 40, 79
6, 56640, Note_off_c, 9, 40, 79
6, 56640, Note_on_c, 9, 40, 111
6, 56880, Note_off_c, 9, 40, 111
6, 56880, Note_on_c, 9, 36, 111
6, 57600, Note_off_c, 9, 36, 111
6, 57600, Note_on_c, 9, 51, 127
6, 57600, Note_on_c, 9, 36, 111
6, 58560, Note_off_c, 9, 51, 127
6, 58560, Note_off_c, 9, 36, 111
6, 58560, Note_on_c, 9, 42, 111
6, 58560, Note_on_c, 9, 40, 111
6, 59040, Note_off_c, 9, 42, 111
6, 59040, Note_off_c, 9, 40, 111
6, 59040, Note_on_c, 9, 42, 95
6, 59280, Note_off_c, 9, 42, 95
6, 59280, Note_on_c, 9, 40, 95
6, 59520, Note_off_c, 9, 40, 95
6, 59520, Note_on_c, 9, 42, 111
6, 59520, Note_on_c, 9, 36, 111
6, 59760, Note_off_c, 9, 42, 111
6, 59760, Note_off_c, 9, 36, 111
6, 59760, Note_on_c, 9, 40, 95
6, 60000, Note_off_c, 9, 40, 95
6, 60000, Note_on_c, 9, 46, 111
6, 60000, Note_on_c, 9, 36, 111
6, 60480, Note_off_c, 9, 46, 111
6, 60480, Note_off_c, 9, 36, 111
6, 60480, Note_on_c, 9, 42, 111
6, 60480, Note_on_c, 9, 40, 111
6, 60960, Note_off_c, 9, 42, 111
6, 60960, Note_off_c, 9, 40, 111
6, 60960, Note_on_c, 9, 42, 95
6, 61200, Note_off_c, 9, 42, 95
6, 61200, Note_on_c, 9, 40, 95
6, 61440, Note_off_c, 9, 40, 95
6, 61440, Note_on_c, 9, 42, 111
6, 61440, Note_on_c, 9, 36, 111
6, 61920, Note_off_c, 9, 42, 111
6, 61920, Note_off_c, 9, 36, 111
6, 61920, Note_on_c, 9, 42, 95
6, 62160, Note_off_c, 9, 42, 95
6, 62160, Note_on_c, 9, 36, 111
6, 62400, Note_off_c, 9, 36, 111
6, 62400, Note_on_c, 9, 42, 111
6, 62400, Note_on_c, 9, 40, 111
6, 62880, Note_off_c, 9, 42, 111
6, 62880, Note_off_c, 9, 40, 111
6, 62880, Note_on_c, 9, 42, 95
6, 63120, Note_off_c, 9, 42, 95
6, 63120, Note_on_c, 9, 40, 95
6, 63360, Note_off_c, 9, 40, 95
6, 63360, Note_on_c, 9, 42, 111
6, 63360, Note_on_c, 9, 36, 111
6, 63600, Note_off_c, 9, 42, 111
6, 63600, Note_off_c, 9, 36, 111
6, 63600, Note_on_c, 9, 40, 95
6, 63840, Note_off_c, 9, 40, 95
6, 63840, Note_on_c, 9, 46, 111
6, 63840, Note_on_c, 9, 36, 111
6, 64320, Note_off_c, 9, 46, 111
6, 64320, Note_off_c, 9, 36, 111
6, 64320, Note_on_c, 9, 42, 111
6, 64320, Note_on_c, 9, 40, 111
6, 64560, Note_off_c, 9, 42, 111
6, 64560, Note_off_c, 9, 40, 111
6, 64560, Note_on_c, 9, 36, 111
6, 64800, Note_off_c, 9, 36, 111
6, 64800, Note_on_c, 9, 42, 95
6, 65040, Note_off_c, 9, 42, 95
6, 65040, Note_on_c, 9, 36, 111
6, 65280, Note_off_c, 9, 36, 111
6, 65280, Note_on_c, 9, 42, 111
6, 65280, Note_on_c, 9, 36, 111
6, 65760, Note_off_c, 9, 42, 111
6, 65760, Note_off_c, 9, 36, 111
6, 65760, Note_on_c, 9, 42, 95
6, 66240, Note_off_c, 9, 42, 95
6, 66240, Note_on_c, 9, 42, 111
6, 66240, Note_on_c, 9, 40, 111
6, 66720, Note_off_c, 9, 42, 111
6, 66720, Note_off_c, 9, 40, 111
6, 66720, Note_on_c, 9, 42, 95
6, 66960, Note_off_c, 9, 42, 95
6, 66960, Note_on_c, 9, 40, 95
6, 67200, Note_off_c, 9, 40, 95
6, 67200, Note_on_c, 9, 42, 95
6, 67200, Note_on_c, 9, 36, 95
6, 67440, Note_off_c, 9, 42, 95
6, 67440, Note_off_c, 9, 36, 95
6, 67440, Note_on_c, 9, 40, 95
6, 67680, Note_off_c, 9, 40, 95
6, 67680, Note_on_c, 9, 46, 111
6, 67680, Note_on_c, 9, 36, 111
6, 68160, Note_off_c, 9, 46, 111
6, 68160, Note_off_c, 9, 36, 111
6, 68160, Note_on_c, 9, 42, 111
6, 68160, Note_on_c, 9, 40, 111
6, 68640, Note_off_c, 9, 42, 111
6, 68640, Note_off_c, 9, 40, 111
6, 68640, Note_on_c, 9, 42, 95
6, 68880, Note_off_c, 9, 42, 95
6, 68880, Note_on_c, 9, 40, 95
6, 69120, Note_off_c, 9, 40, 95
6, 69120, Note_on_c, 9, 42, 111
6, 69120, Note_on_c, 9, 36, 111
6, 69600, Note_off_c, 9, 42, 111
6, 69600, Note_off_c, 9, 36, 111
6, 69600, Note_on_c, 9, 42, 95
6, 69840, Note_off_c, 9, 42, 95
6, 69840, Note_on_c, 9, 36, 111
6, 70080, Note_off_c, 9, 36, 111
6, 70080, Note_on_c, 9, 42, 111
6, 70080, Note_on_c, 9, 40, 111
6, 70560, Note_off_c, 9, 42, 111
6, 70560, Note_off_c, 9, 40, 111
6, 70560, Note_on_c, 9, 42, 95
6, 70800, Note_off_c, 9, 42, 95
6, 70800, Note_on_c, 9, 40, 95
6, 71040, Note_off_c, 9, 40, 95
6, 71040, Note_on_c, 9, 42, 111
6, 71040, Note_on_c, 9, 36, 111
6, 71280, Note_off_c, 9, 42, 111
6, 71280, Note_off_c, 9, 36, 111
6, 71280, Note_on_c, 9, 40, 95
6, 71520, Note_off_c, 9, 40, 95
6, 71520, Note_on_c, 9, 46, 111
6, 71520, Note_on_c, 9, 36, 111
6, 72000, Note_off_c, 9, 46, 111
6, 72000, Note_off_c, 9, 36, 111
6, 72000, Note_on_c, 9, 42, 111
6, 72000, Note_on_c, 9, 40, 111
6, 72240, Note_off_c, 9, 42, 111
6, 72240, Note_off_c, 9, 40, 111
6, 72240, Note_on_c, 9, 36, 111
6, 72480, Note_off_c, 9, 36, 111
6, 72480, Note_on_c, 9, 42, 95
6, 72720, Note_off_c, 9, 42, 95
6, 72720, Note_on_c, 9, 36, 111
6, 72960, Note_off_c, 9, 36, 111
6, 72960, Note_on_c, 9, 42, 111
6, 72960, Note_on_c, 9, 36, 111
6, 73440, Note_off_c, 9, 42, 111
6, 73440, Note_off_c, 9, 36, 111
6, 73440, Note_on_c, 9, 42, 95
6, 73920, Note_off_c, 9, 42, 95
6, 73920, Note_on_c, 9, 42, 111
6, 73920, Note_on_c, 9, 40, 111
6, 74400, Note_off_c, 9, 42, 111
6, 74400, Note_off_c, 9, 40, 111
6, 74400, Note_on_c, 9, 42, 95
6, 74640, Note_off_c, 9, 42, 95
6, 74640, Note_on_c, 9, 40, 95
6, 74880, Note_off_c, 9, 40, 95
6, 74880, Note_on_c, 9, 42, 95
6, 74880, Note_on_c, 9, 36, 95
6, 75120, Note_off_c, 9, 42, 95
6, 75120, Note_off_c, 9, 36, 95
6, 75120, Note_on_c, 9, 40, 95
6, 75360, Note_off_c, 9, 40, 95
6, 75360, Note_on_c, 9, 46, 111
6, 75360, Note_on_c, 9, 36, 111
6, 75840, Note_off_c, 9, 46, 111
6, 75840, Note_off_c, 9, 36, 111
6, 75840, Note_on_c, 9, 42, 111
6, 75840, Note_on_c, 9, 40, 111
6, 76320, Note_off_c, 9, 42, 111
6, 76320, Note_off_c, 9, 40, 111
6, 76320, Note_on_c, 9, 42, 95
6, 76560, Note_off_c, 9, 42, 95
6, 76560, Note_on_c, 9, 40, 95
6, 76800, Note_off_c, 9, 40, 95
6, 76800, Note_on_c, 9, 42, 111
6, 76800, Note_on_c, 9, 36, 111
6, 77280, Note_off_c, 9, 42, 111
6, 77280, Note_off_c, 9, 36, 111
6, 77280, Note_on_c, 9, 42, 95
6, 77520, Note_off_c, 9, 42, 95
6, 77520, Note_on_c, 9, 36, 111
6, 77760, Note_off_c, 9, 36, 111
6, 77760, Note_on_c, 9, 42, 111
6, 77760, Note_on_c, 9, 40, 111
6, 78240, Note_off_c, 9, 42, 111
6, 78240, Note_off_c, 9, 40, 111
6, 78240, Note_on_c, 9, 42, 95
6, 78480, Note_off_c, 9, 42, 95
6, 78480, Note_on_c, 9, 40, 95
6, 78720, Note_off_c, 9, 40, 95
6, 78720, Note_on_c, 9, 46, 111
6, 78720, Note_on_c, 9, 36, 111
6, 78960, Note_off_c, 9, 46, 111
6, 78960, Note_off_c, 9, 36, 111
6, 78960, Note_on_c, 9, 36, 111
6, 79200, Note_off_c, 9, 36, 111
6, 79200, Note_on_c, 9, 46, 111
6, 79200, Note_on_c, 9, 40, 111
6, 79680, Note_off_c, 9, 46, 111
6, 79680, Note_off_c, 9, 40, 111
6, 79680, Note_on_c, 9, 46, 95
6, 79920, Note_off_c, 9, 46, 95
6, 79920, Note_on_c, 9, 36, 111
6, 80160, Note_off_c, 9, 36, 111
6, 80160, Note_on_c, 9, 46, 111
6, 80160, Note_on_c, 9, 40, 111
6, 80400, Note_off_c, 9, 46, 111
6, 80400, Note_off_c, 9, 40, 111
6, 80400, Note_on_c, 9, 36, 111
6, 80640, Note_off_c, 9, 36, 111
6, 80640, Note_on_c, 9, 46, 111
6, 80640, Note_on_c, 9, 36, 111
6, 81120, Note_off_c, 9, 46, 111
6, 81120, Note_off_c, 9, 36, 111
6, 81120, Note_on_c, 9, 46, 95
6, 81120, Note_on_c, 9, 40, 95
6, 81360, Note_off_c, 9, 46, 95
6, 81360, Note_off_c, 9, 40, 95
6, 81360, Note_on_c, 9, 36, 111
6, 81600, Note_off_c, 9, 36, 111
6, 81600, Note_on_c, 9, 46, 111
6, 81600, Note_on_c, 9, 40, 111
6, 82080, Note_off_c, 9, 46, 111
6, 82080, Note_off_c, 9, 40, 111
6, 82080, Note_on_c, 9, 46, 95
6, 82080, Note_on_c, 9, 40, 95
6, 82320, Note_off_c, 9, 46, 95
6, 82320, Note_off_c, 9, 40, 95
6, 82320, Note_on_c, 9, 36, 111
6, 82560, Note_off_c, 9, 36, 111
6, 82560, Note_on_c, 9, 46, 111
6, 82560, Note_on_c, 9, 40, 111
6, 83040, Note_off_c, 9, 46, 111
6, 83040, Note_off_c, 9, 40, 111
6, 83040, Note_on_c, 9, 46, 95
6, 83040, Note_on_c, 9, 40, 95
6, 83280, Note_off_c, 9, 46, 95
6, 83280, Note_off_c, 9, 40, 95
6, 83280, Note_on_c, 9, 36, 111
6, 83520, Note_off_c, 9, 36, 111
6, 83520, Note_on_c, 9, 46, 111
6, 83520, Note_on_c, 9, 40, 111
6, 83760, Note_off_c, 9, 46, 111
6, 83760, Note_off_c, 9, 40, 111
6, 83760, Note_on_c, 9, 36, 111
6, 84000, Note_off_c, 9, 36, 111
6, 84000, Note_on_c, 9, 46, 95
6, 84240, Note_off_c, 9, 46, 95
6, 84240, Note_on_c, 9, 36, 111
6, 84480, Note_off_c, 9, 36, 111
6, 84480, Note_on_c, 9, 46, 111
6, 84480, Note_on_c, 9, 40, 111
6, 84960, Note_off_c, 9, 46, 111
6, 84960, Note_off_c, 9, 40, 111
6, 84960, Note_on_c, 9, 46, 95
6, 84960, Note_on_c, 9, 40, 95
6, 85200, Note_off_c, 9, 46, 95
6, 85200, Note_off_c, 9, 40, 95
6, 85200, Note_on_c, 9, 36, 111
6, 85440, Note_off_c, 9, 36, 111
6, 85440, Note_on_c, 9, 46, 111
6, 85440, Note_on_c, 9, 40, 111
6, 85920, Note_off_c, 9, 46, 111
6, 85920, Note_off_c, 9, 40, 111
6, 85920, Note_on_c, 9, 46, 95
6, 85920, Note_on_c, 9, 40, 95
6, 86160, Note_off_c, 9, 46, 95
6, 86160, Note_off_c, 9, 40, 95
6, 86160, Note_on_c, 9, 36, 111
6, 86400, Note_off_c, 9, 36, 111
6, 86400, Note_on_c, 9, 46, 111
6, 86400, Note_on_c, 9, 40, 111
6, 86640, Note_off_c, 9, 46, 111
6, 86640, Note_off_c, 9, 40, 111
6, 86640, Note_on_c, 9, 36, 111
6, 86880, Note_off_c, 9, 36, 111
6, 86880, Note_on_c, 9, 46, 95
6, 87120, Note_off_c, 9, 46, 95
6, 87120, Note_on_c, 9, 36, 111
6, 87360, Note_off_c, 9, 36, 111
6, 87360, Note_on_c, 9, 46, 95
6, 87600, Note_off_c, 9, 46, 95
6, 87600, Note_on_c, 9, 36, 111
6, 87840, Note_off_c, 9, 36, 111
6, 87840, Note_on_c, 9, 46, 111
6, 87840, Note_on_c, 9, 40, 111
6, 88080, Note_off_c, 9, 46, 111
6, 88080, Note_off_c, 9, 40, 111
6, 88080, Note_on_c, 9, 36, 111
6, 88320, Note_off_c, 9, 36, 111
6, 88320, Note_on_c, 9, 46, 111
6, 88320, Note_on_c, 9, 36, 111
6, 88800, Note_off_c, 9, 46, 111
6, 88800, Note_off_c, 9, 36, 111
6, 88800, Note_on_c, 9, 46, 95
6, 88800, Note_on_c, 9, 40, 95
6, 89040, Note_off_c, 9, 46, 95
6, 89040, Note_off_c, 9, 40, 95
6, 89040, Note_on_c, 9, 36, 111
6, 89280, Note_off_c, 9, 36, 111
6, 89280, Note_on_c, 9, 46, 111
6, 89280, Note_on_c, 9, 40, 111
6, 89760, Note_off_c, 9, 46, 111
6, 89760, Note_off_c, 9, 40, 111
6, 89760, Note_on_c, 9, 46, 95
6, 89760, Note_on_c, 9, 40, 95
6, 90000, Note_off_c, 9, 46, 95
6, 90000, Note_off_c, 9, 40, 95
6, 90000, Note_on_c, 9, 36, 111
6, 90240, Note_off_c, 9, 36, 111
6, 90240, Note_on_c, 9, 46, 111
6, 90240, Note_on_c, 9, 40, 111
6, 90720, Note_off_c, 9, 46, 111
6, 90720, Note_off_c, 9, 40, 111
6, 90720, Note_on_c, 9, 46, 95
6, 90720, Note_on_c, 9, 40, 63
6, 90960, Note_off_c, 9, 46, 95
6, 90960, Note_off_c, 9, 40, 63
6, 90960, Note_on_c, 9, 40, 95
6, 91200, Note_off_c, 9, 40, 95
6, 91200, Note_on_c, 9, 47, 111
6, 91320, Note_off_c, 9, 47, 111
6, 91320, Note_on_c, 9, 40, 95
6, 91440, Note_off_c, 9, 40, 95
6, 91440, Note_on_c, 9, 40, 79
6, 91560, Note_off_c, 9, 40, 79
6, 91560, Note_on_c, 9, 40, 95
6, 91680, Note_off_c, 9, 40, 95
6, 91680, Note_on_c, 9, 40, 111
6, 91800, Note_off_c, 9, 40, 111
6, 91800, Note_on_c, 9, 40, 95
6, 91920, Note_off_c, 9, 40, 95
6, 91920, Note_on_c, 9, 45, 111
6, 92040, Note_off_c, 9, 45, 111
6, 92040, Note_on_c, 9, 45, 111
6, 92160, Note_off_c, 9, 45, 111
6, 92160, Note_on_c, 9, 51, 127
6, 92160, Note_on_c, 9, 36, 111
6, 92880, Note_off_c, 9, 51, 127
6, 92880, Note_off_c, 9, 36, 111
6, 92880, Note_on_c, 9, 40, 111
6, 93120, Note_off_c, 9, 40, 111
6, 93120, Note_on_c, 9, 40, 111
6, 93600, Note_off_c, 9, 40, 111
6, 93600, Note_on_c, 9, 51, 127
6, 93600, Note_on_c, 9, 36, 111
6, 94080, Note_off_c, 9, 51, 127
6, 94080, Note_off_c, 9, 36, 111
6, 94560, Note_on_c, 9, 46, 111
6, 94560, Note_on_c, 9, 40, 111
6, 95040, Note_off_c, 9, 46, 111
6, 95040, Note_off_c, 9, 40, 111
6, 95040, Note_on_c, 9, 40, 111
6, 95280, Note_off_c, 9, 40, 111
6, 95280, Note_on_c, 9, 36, 111
6, 95760, Note_off_c, 9, 36, 111
6, 95760, Note_on_c, 9, 36, 111
6, 96000, Note_off_c, 9, 36, 111
6, 96000, Note_on_c, 9, 51, 127
6, 96000, Note_on_c, 9, 36, 111
6, 96720, Note_off_c, 9, 51, 127
6, 96720, Note_off_c, 9, 36, 111
6, 96720, Note_on_c, 9, 40, 111
6, 96960, Note_off_c, 9, 40, 111
6, 96960, Note_on_c, 9, 40, 111
6, 97440, Note_off_c, 9, 40, 111
6, 97440, Note_on_c, 9, 57, 111
6, 97440, Note_on_c, 9, 36, 111
6, 97920, Note_off_c, 9, 57, 111
6, 97920, Note_off_c, 9, 36, 111
6, 97920, Note_on_c, 9, 46, 95
6, 98400, Note_off_c, 9, 46, 95
6, 98400, Note_on_c, 9, 40, 95
6, 98400, Note_on_c, 9, 45, 95
6, 98640, Note_off_c, 9, 40, 95
6, 98640, Note_off_c, 9, 45, 95
6, 98640, Note_on_c, 9, 40, 95
6, 98640, Note_on_c, 9, 45, 95
6, 98880, Note_off_c, 9, 40, 95
6, 98880, Note_off_c, 9, 45, 95
6, 98880, Note_on_c, 9, 40, 95
6, 98880, Note_on_c, 9, 45, 111
6, 99120, Note_off_c, 9, 40, 95
6, 99120, Note_off_c, 9, 45, 111
6, 99120, Note_on_c, 9, 40, 95
6, 99120, Note_on_c, 9, 45, 111
6, 99360, Note_off_c, 9, 40, 95
6, 99360, Note_off_c, 9, 45, 111
6, 99360, Note_on_c, 9, 40, 95
6, 99360, Note_on_c, 9, 45, 111
6, 99600, Note_off_c, 9, 40, 95
6, 99600, Note_off_c, 9, 45, 111
6, 99600, Note_on_c, 9, 36, 111
6, 99840, Note_off_c, 9, 36, 111
6, 99840, Note_on_c, 9, 51, 127
6, 99840, Note_on_c, 9, 36, 111
6, 100560, Note_off_c, 9, 51, 127
6, 100560, Note_off_c, 9, 36, 111
6, 100560, Note_on_c, 9, 40, 111
6, 100800, Note_off_c, 9, 40, 111
6, 100800, Note_on_c, 9, 40, 111
6, 101280, Note_off_c, 9, 40, 111
6, 101280, Note_on_c, 9, 51, 127
6, 101280, Note_on_c, 9, 36, 111
6, 101760, Note_off_c, 9, 51, 127
6, 101760, Note_off_c, 9, 36, 111
6, 106560, Note_on_c, 9, 40, 111
6, 106800, Note_off_c, 9, 40, 111
6, 106800, Note_on_c, 9, 36, 111
6, 107280, Note_off_c, 9, 36, 111
6, 107280, Note_on_c, 9, 36, 111
6, 107520, Note_off_c, 9, 36, 111
6, 107520, Note_on_c, 9, 51, 127
6, 107520, Note_on_c, 9, 36, 111
6, 108000, Note_off_c, 9, 51, 127
6, 108000, Note_off_c, 9, 36, 111
6, 108000, Note_on_c, 9, 51, 111
6, 108000, Note_on_c, 9, 40, 95
6, 108240, Note_off_c, 9, 51, 111
6, 108240, Note_off_c, 9, 40, 95
6, 108240, Note_on_c, 9, 36, 111
6, 108480, Note_off_c, 9, 36, 111
6, 108480, Note_on_c, 9, 51, 127
6, 108480, Note_on_c, 9, 40, 111
6, 108960, Note_off_c, 9, 51, 127
6, 108960, Note_off_c, 9, 40, 111
6, 108960, Note_on_c, 9, 51, 111
6, 108960, Note_on_c, 9, 40, 95
6, 109200, Note_off_c, 9, 51, 111
6, 109200, Note_off_c, 9, 40, 95
6, 109200, Note_on_c, 9, 36, 111
6, 109440, Note_off_c, 9, 36, 111
6, 109440, Note_on_c, 9, 51, 127
6, 109440, Note_on_c, 9, 40, 111
6, 109920, Note_off_c, 9, 51, 127
6, 109920, Note_off_c, 9, 40, 111
6, 109920, Note_on_c, 9, 51, 111
6, 109920, Note_on_c, 9, 40, 95
6, 110160, Note_off_c, 9, 51, 111
6, 110160, Note_off_c, 9, 40, 95
6, 110160, Note_on_c, 9, 36, 111
6, 110400, Note_off_c, 9, 36, 111
6, 110400, Note_on_c, 9, 51, 127
6, 110400, Note_on_c, 9, 40, 111
6, 110640, Note_off_c, 9, 51, 127
6, 110640, Note_off_c, 9, 40, 111
6, 110640, Note_on_c, 9, 36, 111
6, 110880, Note_off_c, 9, 36, 111
6, 110880, Note_on_c, 9, 51, 111
6, 111120, Note_off_c, 9, 51, 111
6, 111120, Note_on_c, 9, 36, 111
6, 111360, Note_off_c, 9, 36, 111
6, 111360, Note_on_c, 9, 51, 127
6, 111360, Note_on_c, 9, 40, 111
6, 111840, Note_off_c, 9, 51, 127
6, 111840, Note_off_c, 9, 40, 111
6, 111840, Note_on_c, 9, 51, 111
6, 111840, Note_on_c, 9, 40, 95
6, 112080, Note_off_c, 9, 51, 111
6, 112080, Note_off_c, 9, 40, 95
6, 112080, Note_on_c, 9, 36, 111
6, 112320, Note_off_c, 9, 36, 111
6, 112320, Note_on_c, 9, 51, 127
6, 112320, Note_on_c, 9, 40, 111
6, 112800, Note_off_c, 9, 51, 127
6, 112800, Note_off_c, 9, 40, 111
6, 112800, Note_on_c, 9, 51, 111
6, 113040, Note_off_c, 9, 51, 111
6, 113040, Note_on_c, 9, 40, 111
6, 113280, Note_off_c, 9, 40, 111
6, 113280, Note_on_c, 9, 51, 111
6, 113280, Note_on_c, 9, 36, 95
6, 113520, Note_off_c, 9, 51, 111
6, 113520, Note_off_c, 9, 36, 95
6, 113520, Note_on_c, 9, 46, 111
6, 113760, Note_off_c, 9, 46, 111
6, 113760, Note_on_c, 9, 51, 127
6, 113760, Note_on_c, 9, 36, 111
6, 114000, Note_off_c, 9, 51, 127
6, 114000, Note_off_c, 9, 36, 111
6, 114000, Note_on_c, 9, 36, 111
6, 114240, Note_off_c, 9, 36, 111
6, 114240, Note_on_c, 9, 51, 127
6, 114240, Note_on_c, 9, 40, 111
6, 114480, Note_off_c, 9, 51, 127
6, 114480, Note_off_c, 9, 40, 111
6, 114480, Note_on_c, 9, 36, 111
6, 114720, Note_off_c, 9, 36, 111
6, 114720, Note_on_c, 9, 51, 111
6, 114960, Note_off_c, 9, 51, 111
6, 114960, Note_on_c, 9, 36, 111
6, 115200, Note_off_c, 9, 36, 111
6, 115200, Note_on_c, 9, 51, 127
6, 115200, Note_on_c, 9, 40, 111
6, 115680, Note_off_c, 9, 51, 127
6, 115680, Note_off_c, 9, 40, 111
6, 115680, Note_on_c, 9, 51, 111
6, 115680, Note_on_c, 9, 40, 95
6, 115920, Note_off_c, 9, 51, 111
6, 115920, Note_off_c, 9, 40, 95
6, 115920, Note_on_c, 9, 36, 95
6, 116160, Note_off_c, 9, 36, 95
6, 116160, Note_on_c, 9, 53, 111
6, 116160, Note_on_c, 9, 40, 111
6, 116640, Note_off_c, 9, 53, 111
6, 116640, Note_off_c, 9, 40, 111
6, 116640, Note_on_c, 9, 53, 95
6, 116640, Note_on_c, 9, 40, 95
6, 116880, Note_off_c, 9, 53, 95
6, 116880, Note_off_c, 9, 40, 95
6, 116880, Note_on_c, 9, 36, 111
6, 117120, Note_off_c, 9, 36, 111
6, 117120, Note_on_c, 9, 53, 111
6, 117120, Note_on_c, 9, 40, 111
6, 117600, Note_off_c, 9, 53, 111
6, 117600, Note_off_c, 9, 40, 111
6, 117600, Note_on_c, 9, 53, 95
6, 117600, Note_on_c, 9, 40, 95
6, 117840, Note_off_c, 9, 53, 95
6, 117840, Note_off_c, 9, 40, 95
6, 117840, Note_on_c, 9, 36, 111
6, 118080, Note_off_c, 9, 36, 111
6, 118080, Note_on_c, 9, 51, 127
6, 118080, Note_on_c, 9, 40, 111
6, 118320, Note_off_c, 9, 51, 127
6, 118320, Note_off_c, 9, 40, 111
6, 118320, Note_on_c, 9, 36, 111
6, 118560, Note_off_c, 9, 36, 111
6, 118560, Note_on_c, 9, 51, 111
6, 118800, Note_off_c, 9, 51, 111
6, 118800, Note_on_c, 9, 36, 111
6, 119040, Note_off_c, 9, 36, 111
6, 119040, Note_on_c, 9, 51, 127
6, 119040, Note_on_c, 9, 40, 111
6, 119520, Note_off_c, 9, 51, 127
6, 119520, Note_off_c, 9, 40, 111
6, 119520, Note_on_c, 9, 51, 111
6, 119520, Note_on_c, 9, 40, 95
6, 119760, Note_off_c, 9, 51, 111
6, 119760, Note_off_c, 9, 40, 95
6, 119760, Note_on_c, 9, 36, 111
6, 120000, Note_off_c, 9, 36, 111
6, 120000, Note_on_c, 9, 51, 127
6, 120000, Note_on_c, 9, 40, 111
6, 120480, Note_off_c, 9, 51, 127
6, 120480, Note_off_c, 9, 40, 111
6, 120480, Note_on_c, 9, 51, 111
6, 120720, Note_off_c, 9, 51, 111
6, 120720, Note_on_c, 9, 40, 111
6, 120960, Note_off_c, 9, 40, 111
6, 120960, Note_on_c, 9, 51, 111
6, 120960, Note_on_c, 9, 36, 95
6, 121200, Note_off_c, 9, 51, 111
6, 121200, Note_off_c, 9, 36, 95
6, 121200, Note_on_c, 9, 46, 111
6, 121440, Note_off_c, 9, 46, 111
6, 121440, Note_on_c, 9, 51, 127
6, 121440, Note_on_c, 9, 36, 111
6, 121680, Note_off_c, 9, 51, 127
6, 121680, Note_off_c, 9, 36, 111
6, 121680, Note_on_c, 9, 36, 111
6, 121920, Note_off_c, 9, 36, 111
6, 121920, Note_on_c, 9, 51, 127
6, 121920, Note_on_c, 9, 40, 111
6, 122160, Note_off_c, 9, 51, 127
6, 122160, Note_off_c, 9, 40, 111
6, 122160, Note_on_c, 9, 36, 111
6, 122400, Note_off_c, 9, 36, 111
6, 122400, Note_on_c, 9, 51, 111
6, 122640, Note_off_c, 9, 51, 111
6, 122640, Note_on_c, 9, 36, 111
6, 122880, Note_off_c, 9, 36, 111
6, 122880, Note_on_c, 9, 51, 127
6, 122880, Note_on_c, 9, 40, 111
6, 123360, Note_off_c, 9, 51, 127
6, 123360, Note_off_c, 9, 40, 111
6, 123360, Note_on_c, 9, 51, 111
6, 123360, Note_on_c, 9, 40, 95
6, 123600, Note_off_c, 9, 51, 111
6, 123600, Note_off_c, 9, 40, 95
6, 123600, Note_on_c, 9, 36, 111
6, 123840, Note_off_c, 9, 36, 111
6, 123840, Note_on_c, 9, 51, 127
6, 123840, Note_on_c, 9, 40, 111
6, 124320, Note_off_c, 9, 51, 127
6, 124320, Note_off_c, 9, 40, 111
6, 124320, Note_on_c, 9, 51, 111
6, 124320, Note_on_c, 9, 40, 95
6, 124560, Note_off_c, 9, 51, 111
6, 124560, Note_off_c, 9, 40, 95
6, 124560, Note_on_c, 9, 36, 111
6, 124800, Note_off_c, 9, 36, 111
6, 124800, Note_on_c, 9, 51, 127
6, 124800, Note_on_c, 9, 40, 111
6, 125280, Note_off_c, 9, 51, 127
6, 125280, Note_off_c, 9, 40, 111
6, 125280, Note_on_c, 9, 51, 111
6, 125280, Note_on_c, 9, 40, 95
6, 125520, Note_off_c, 9, 51, 111
6, 125520, Note_off_c, 9, 40, 95
6, 125520, Note_on_c, 9, 36, 111
6, 125760, Note_off_c, 9, 36, 111
6, 125760, Note_on_c, 9, 51, 127
6, 125760, Note_on_c, 9, 40, 111
6, 126000, Note_off_c, 9, 51, 127
6, 126000, Note_off_c, 9, 40, 111
6, 126000, Note_on_c, 9, 36, 111
6, 126240, Note_off_c, 9, 36, 111
6, 126240, Note_on_c, 9, 51, 111
6, 126480, Note_off_c, 9, 51, 111
6, 126480, Note_on_c, 9, 36, 111
6, 126720, Note_off_c, 9, 36, 111
6, 126720, Note_on_c, 9, 51, 127
6, 126720, Note_on_c, 9, 40, 111
6, 127200, Note_off_c, 9, 51, 127
6, 127200, Note_off_c, 9, 40, 111
6, 127200, Note_on_c, 9, 51, 111
6, 127200, Note_on_c, 9, 40, 95
6, 127440, Note_off_c, 9, 51, 111
6, 127440, Note_off_c, 9, 40, 95
6, 127440, Note_on_c, 9, 36, 111
6, 127680, Note_off_c, 9, 36, 111
6, 127680, Note_on_c, 9, 51, 127
6, 127680, Note_on_c, 9, 40, 111
6, 128160, Note_off_c, 9, 51, 127
6, 128160, Note_off_c, 9, 40, 111
6, 128160, Note_on_c, 9, 51, 111
6, 128400, Note_off_c, 9, 51, 111
6, 128400, Note_on_c, 9, 40, 111
6, 128640, Note_off_c, 9, 40, 111
6, 128640, Note_on_c, 9, 51, 111
6, 128640, Note_on_c, 9, 36, 95
6, 128880, Note_off_c, 9, 51, 111
6, 128880, Note_off_c, 9, 36, 95
6, 128880, Note_on_c, 9, 46, 111
6, 129120, Note_off_c, 9, 46, 111
6, 129120, Note_on_c, 9, 51, 127
6, 129120, Note_on_c, 9, 36, 111
6, 129360, Note_off_c, 9, 51, 127
6, 129360, Note_off_c, 9, 36, 111
6, 129360, Note_on_c, 9, 36, 111
6, 129600, Note_off_c, 9, 36, 111
6, 129600, Note_on_c, 9, 51, 127
6, 129600, Note_on_c, 9, 40, 111
6, 129840, Note_off_c, 9, 51, 127
6, 129840, Note_off_c, 9, 40, 111
6, 129840, Note_on_c, 9, 36, 111
6, 130080, Note_off_c, 9, 36, 111
6, 130080, Note_on_c, 9, 51, 111
6, 130320, Note_off_c, 9, 51, 111
6, 130320, Note_on_c, 9, 36, 111
6, 130560, Note_off_c, 9, 36, 111
6, 130560, Note_on_c, 9, 51, 127
6, 130560, Note_on_c, 9, 40, 111
6, 131040, Note_off_c, 9, 51, 127
6, 131040, Note_off_c, 9, 40, 111
6, 131040, Note_on_c, 9, 51, 111
6, 131040, Note_on_c, 9, 40, 95
6, 131280, Note_off_c, 9, 51, 111
6, 131280, Note_off_c, 9, 40, 95
6, 131280, Note_on_c, 9, 36, 111
6, 131520, Note_off_c, 9, 36, 111
6, 131520, Note_on_c, 9, 51, 127
6, 131520, Note_on_c, 9, 40, 111
6, 132000, Note_off_c, 9, 51, 127
6, 132000, Note_off_c, 9, 40, 111
6, 132000, Note_on_c, 9, 51, 111
6, 132000, Note_on_c, 9, 40, 95
6, 132480, Note_off_c, 9, 51, 111
6, 132480, Note_off_c, 9, 40, 95
6, 132480, Note_on_c, 9, 51, 127
6, 132480, Note_on_c, 9, 40, 111
6, 132960, Note_off_c, 9, 51, 127
6, 132960, Note_off_c, 9, 40, 111
6, 132960, Note_on_c, 9, 51, 111
6, 132960, Note_on_c, 9, 40, 95
6, 133440, Note_off_c, 9, 51, 111
6, 133440, Note_off_c, 9, 40, 95
6, 133440, Note_on_c, 9, 51, 127
6, 133440, Note_on_c, 9, 40, 111
6, 133920, Note_off_c, 9, 51, 127
6, 133920, Note_off_c, 9, 40, 111
6, 133920, Note_on_c, 9, 51, 111
6, 133920, Note_on_c, 9, 40, 111
6, 134400, Note_off_c, 9, 51, 111
6, 134400, Note_off_c, 9, 40, 111
6, 134400, Note_on_c, 9, 51, 127
6, 134400, Note_on_c, 9, 40, 111
6, 134640, Note_off_c, 9, 51, 127
6, 134640, Note_off_c, 9, 40, 111
6, 134640, Note_on_c, 9, 36, 95
6, 134880, Note_off_c, 9, 36, 95
6, 134880, Note_on_c, 9, 51, 127
6, 134880, Note_on_c, 9, 40, 111
6, 135120, Note_off_c, 9, 51, 127
6, 135120, Note_off_c, 9, 40, 111
6, 135120, Note_on_c, 9, 36, 95
6, 135360, Note_off_c, 9, 36, 95
6, 135360, Note_on_c, 9, 51, 127
6, 135360, Note_on_c, 9, 40, 111
6, 135600, Note_off_c, 9, 51, 127
6, 135600, Note_off_c, 9, 40, 111
6, 135600, Note_on_c, 9, 36, 95
6, 135840, Note_off_c, 9, 36, 95
6, 135840, Note_on_c, 9, 51, 127
6, 135840, Note_on_c, 9, 40, 111
6, 136080, Note_off_c, 9, 51, 127
6, 136080, Note_off_c, 9, 40, 111
6, 136080, Note_on_c, 9, 36, 95
6, 136320, Note_off_c, 9, 36, 95
6, 136320, Note_on_c, 9, 51, 127
6, 136320, Note_on_c, 9, 40, 111
6, 136560, Note_off_c, 9, 51, 127
6, 136560, Note_off_c, 9, 40, 111
6, 136560, Note_on_c, 9, 40, 95
6, 136560, Note_on_c, 9, 45, 111
6, 136800, Note_off_c, 9, 40, 95
6, 136800, Note_off_c, 9, 45, 111
6, 136800, Note_on_c, 9, 40, 95
6, 136800, Note_on_c, 9, 45, 111
6, 137040, Note_off_c, 9, 40, 95
6, 137040, Note_off_c, 9, 45, 111
6, 137040, Note_on_c, 9, 40, 95
6, 137040, Note_on_c, 9, 45, 111
6, 137280, Note_off_c, 9, 40, 95
6, 137280, Note_off_c, 9, 45, 111
6, 137280, Note_on_c, 9, 47, 111
6, 137400, Note_off_c, 9, 47, 111
6, 137400, Note_on_c, 9, 40, 79
6, 137520, Note_off_c, 9, 40, 79
6, 137520, Note_on_c, 9, 40, 95
6, 137640, Note_off_c, 9, 40, 95
6, 137640, Note_on_c, 9, 40, 95
6, 137760, Note_off_c, 9, 40, 95
6, 137760, Note_on_c, 9, 40, 111
6, 137880, Note_off_c, 9, 40, 111
6, 137880, Note_on_c, 9, 40, 79
6, 138000, Note_off_c, 9, 40, 79
6, 138000, Note_on_c, 9, 40, 95
6, 138120, Note_off_c, 9, 40, 95
6, 138120, Note_on_c, 9, 40, 111
6, 138240, Note_off_c, 9, 40, 111
6, 138240, Note_on_c, 9, 36, 95
6, 139200, Note_off_c, 9, 36, 95
6, 139200, Note_on_c, 9, 40, 111
6, 139440, Note_off_c, 9, 40, 111
6, 139440, Note_on_c, 9, 36, 111
6, 140160, Note_off_c, 9, 36, 111
6, 140160, Note_on_c, 9, 51, 127
6, 140160, Note_on_c, 9, 36, 111
6, 140880, Note_off_c, 9, 51, 127
6, 140880, Note_off_c, 9, 36, 111
6, 140880, Note_on_c, 9, 40, 95
6, 140880, Note_on_c, 9, 45, 95
6, 141120, Note_off_c, 9, 40, 95
6, 141120, Note_off_c, 9, 45, 95
6, 141120, Note_on_c, 9, 40, 95
6, 141120, Note_on_c, 9, 45, 95
6, 141360, Note_off_c, 9, 40, 95
6, 141360, Note_off_c, 9, 45, 95
6, 141360, Note_on_c, 9, 40, 95
6, 141360, Note_on_c, 9, 45, 95
6, 141600, Note_off_c, 9, 40, 95
6, 141600, Note_off_c, 9, 45, 95
6, 141600, Note_on_c, 9, 40, 95
6, 141600, Note_on_c, 9, 45, 111
6, 141840, Note_off_c, 9, 40, 95
6, 141840, Note_off_c, 9, 45, 111
6, 141840, Note_on_c, 9, 36, 95
6, 142080, Note_off_c, 9, 36, 95
6, 142080, Note_on_c, 9, 51, 127
6, 142080, Note_on_c, 9, 36, 111
6, 143040, Note_off_c, 9, 51, 127
6, 143040, Note_off_c, 9, 36, 111
6, 143040, Note_on_c, 9, 51, 127
6, 143040, Note_on_c, 9, 40, 111
6, 143760, Note_off_c, 9, 51, 127
6, 143760, Note_off_c, 9, 40, 111
6, 143760, Note_on_c, 9, 40, 95
6, 144000, Note_off_c, 9, 40, 95
6, 144000, Note_on_c, 9, 51, 127
6, 144000, Note_on_c, 9, 36, 111
6, 144240, Note_off_c, 9, 51, 127
6, 144240, Note_off_c, 9, 36, 111
6, 144240, Note_on_c, 9, 46, 111
6, 144480, Note_off_c, 9, 46, 111
6, 144480, Note_on_c, 9, 36, 111
6, 144960, Note_off_c, 9, 36, 111
6, 144960, Note_on_c, 9, 51, 127
6, 144960, Note_on_c, 9, 40, 111
6, 145440, Note_off_c, 9, 51, 127
6, 145440, Note_off_c, 9, 40, 111
6, 145440, Note_on_c, 9, 51, 111
6, 145680, Note_off_c, 9, 51, 111
6, 145680, Note_on_c, 9, 40, 95
6, 145920, Note_off_c, 9, 40, 95
6, 145920, Note_on_c, 9, 51, 127
6, 145920, Note_on_c, 9, 36, 111
6, 146400, Note_off_c, 9, 51, 127
6, 146400, Note_off_c, 9, 36, 111
6, 146400, Note_on_c, 9, 51, 111
6, 146640, Note_off_c, 9, 51, 111
6, 146640, Note_on_c, 9, 36, 111
6, 146880, Note_off_c, 9, 36, 111
6, 146880, Note_on_c, 9, 51, 127
6, 146880, Note_on_c, 9, 40, 111
6, 147360, Note_off_c, 9, 51, 127
6, 147360, Note_off_c, 9, 40, 111
6, 147360, Note_on_c, 9, 51, 111
6, 147840, Note_off_c, 9, 51, 111
6, 147840, Note_on_c, 9, 40, 95
6, 147840, Note_on_c, 9, 45, 111
6, 148080, Note_off_c, 9, 40, 95
6, 148080, Note_off_c, 9, 45, 111
6, 148080, Note_on_c, 9, 40, 95
6, 148080, Note_on_c, 9, 45, 111
6, 148320, Note_off_c, 9, 40, 95
6, 148320, Note_off_c, 9, 45, 111
6, 148320, Note_on_c, 9, 40, 95
6, 148320, Note_on_c, 9, 45, 111
6, 148560, Note_off_c, 9, 40, 95
6, 148560, Note_off_c, 9, 45, 111
6, 148560, Note_on_c, 9, 40, 95
6, 148560, Note_on_c, 9, 45, 111
6, 148800, Note_off_c, 9, 40, 95
6, 148800, Note_off_c, 9, 45, 111
6, 148800, Note_on_c, 9, 40, 95
6, 148800, Note_on_c, 9, 45, 111
6, 149040, Note_off_c, 9, 40, 95
6, 149040, Note_off_c, 9, 45, 111
6, 149040, Note_on_c, 9, 40, 95
6, 149040, Note_on_c, 9, 45, 111
6, 149280, Note_off_c, 9, 40, 95
6, 149280, Note_off_c, 9, 45, 111
6, 149280, Note_on_c, 9, 40, 95
6, 149280, Note_on_c, 9, 45, 111
6, 149520, Note_off_c, 9, 40, 95
6, 149520, Note_off_c, 9, 45, 111
6, 149520, Note_on_c, 9, 40, 95
6, 149520, Note_on_c, 9, 45, 111
6, 149760, Note_off_c, 9, 40, 95
6, 149760, Note_off_c, 9, 45, 111
6, 149760, Note_on_c, 9, 51, 127
6, 149760, Note_on_c, 9, 36, 111
6, 150240, Note_off_c, 9, 51, 127
6, 150240, Note_off_c, 9, 36, 111
6, 150240, Note_on_c, 9, 51, 111
6, 150240, Note_on_c, 9, 40, 63
6, 150480, Note_off_c, 9, 51, 111
6, 150480, Note_off_c, 9, 40, 63
6, 150480, Note_on_c, 9, 36, 95
6, 150720, Note_off_c, 9, 36, 95
6, 150720, Note_on_c, 9, 51, 127
6, 150720, Note_on_c, 9, 40, 111
6, 151200, Note_off_c, 9, 51, 127
6, 151200, Note_off_c, 9, 40, 111
6, 151200, Note_on_c, 9, 51, 111
6, 151440, Note_off_c, 9, 51, 111
6, 151440, Note_on_c, 9, 40, 95
6, 151680, Note_off_c, 9, 40, 95
6, 151680, Note_on_c, 9, 51, 127
6, 151680, Note_on_c, 9, 36, 111
6, 151920, Note_off_c, 9, 51, 127
6, 151920, Note_off_c, 9, 36, 111
6, 151920, Note_on_c, 9, 40, 95
6, 152160, Note_off_c, 9, 40, 95
6, 152160, Note_on_c, 9, 51, 111
6, 152160, Note_on_c, 9, 36, 95
6, 152400, Note_off_c, 9, 51, 111
6, 152400, Note_off_c, 9, 36, 95
6, 152400, Note_on_c, 9, 36, 95
6, 152640, Note_off_c, 9, 36, 95
6, 152640, Note_on_c, 9, 51, 127
6, 152640, Note_on_c, 9, 40, 111
6, 153120, Note_off_c, 9, 51, 127
6, 153120, Note_off_c, 9, 40, 111
6, 153120, Note_on_c, 9, 51, 111
6, 153360, Note_off_c, 9, 51, 111
6, 153360, Note_on_c, 9, 40, 95
6, 153600, Note_off_c, 9, 40, 95
6, 153600, Note_on_c, 9, 51, 127
6, 153600, Note_on_c, 9, 36, 111
6, 154080, Note_off_c, 9, 51, 127
6, 154080, Note_off_c, 9, 36, 111
6, 154080, Note_on_c, 9, 51, 127
6, 154080, Note_on_c, 9, 36, 111
6, 154560, Note_off_c, 9, 51, 127
6, 154560, Note_off_c, 9, 36, 111
6, 154560, Note_on_c, 9, 51, 127
6, 154560, Note_on_c, 9, 40, 111
6, 155040, Note_off_c, 9, 51, 127
6, 155040, Note_off_c, 9, 40, 111
6, 155040, Note_on_c, 9, 51, 111
6, 155280, Note_off_c, 9, 51, 111
6, 155280, Note_on_c, 9, 40, 95
6, 155520, Note_off_c, 9, 40, 95
6, 155520, Note_on_c, 9, 51, 127
6, 155520, Note_on_c, 9, 36, 111
6, 155760, Note_off_c, 9, 51, 127
6, 155760, Note_off_c, 9, 36, 111
6, 155760, Note_on_c, 9, 36, 111
6, 156000, Note_off_c, 9, 36, 111
6, 156000, Note_on_c, 9, 51, 127
6, 156000, Note_on_c, 9, 40, 111
6, 156480, Note_off_c, 9, 51, 127
6, 156480, Note_off_c, 9, 40, 111
6, 156480, Note_on_c, 9, 47, 111
6, 156720, Note_off_c, 9, 47, 111
6, 156720, Note_on_c, 9, 40, 79
6, 156800, Note_off_c, 9, 40, 79
6, 156800, Note_on_c, 9, 40, 95
6, 156880, Note_off_c, 9, 40, 95
6, 156880, Note_on_c, 9, 40, 95
6, 156960, Note_off_c, 9, 40, 95
6, 156960, Note_on_c, 9, 40, 111
6, 157200, Note_off_c, 9, 40, 111
6, 157200, Note_on_c, 9, 40, 79
6, 157280, Note_off_c, 9, 40, 79
6, 157280, Note_on_c, 9, 40, 95
6, 157360, Note_off_c, 9, 40, 95
6, 157360, Note_on_c, 9, 40, 95
6, 157440, Note_off_c, 9, 40, 95
6, 157440, Note_on_c, 9, 51, 127
6, 157440, Note_on_c, 9, 36, 111
6, 157920, Note_off_c, 9, 51, 127
6, 157920, Note_off_c, 9, 36, 111
6, 157920, Note_on_c, 9, 51, 111
6, 158160, Note_off_c, 9, 51, 111
6, 158160, Note_on_c, 9, 36, 95
6, 158400, Note_off_c, 9, 36, 95
6, 158400, Note_on_c, 9, 51, 127
6, 158400, Note_on_c, 9, 40, 111
6, 158880, Note_off_c, 9, 51, 127
6, 158880, Note_off_c, 9, 40, 111
6, 158880, Note_on_c, 9, 51, 111
6, 159120, Note_off_c, 9, 51, 111
6, 159120, Note_on_c, 9, 40, 95
6, 159360, Note_off_c, 9, 40, 95
6, 159360, Note_on_c, 9, 51, 111
6, 159360, Note_on_c, 9, 36, 95
6, 159600, Note_off_c, 9, 51, 111
6, 159600, Note_off_c, 9, 36, 95
6, 159600, Note_on_c, 9, 46, 111
6, 159840, Note_off_c, 9, 46, 111
6, 159840, Note_on_c, 9, 51, 111
6, 159840, Note_on_c, 9, 36, 95
6, 160320, Note_off_c, 9, 51, 111
6, 160320, Note_off_c, 9, 36, 95
6, 160320, Note_on_c, 9, 51, 127
6, 160320, Note_on_c, 9, 40, 111
6, 161040, Note_off_c, 9, 51, 127
6, 161040, Note_off_c, 9, 40, 111
6, 161040, Note_on_c, 9, 40, 95
6, 161280, Note_off_c, 9, 40, 95
6, 161280, Note_on_c, 9, 51, 111
6, 161280, Note_on_c, 9, 36, 95
6, 162240, Note_off_c, 9, 51, 111
6, 162240, Note_off_c, 9, 36, 95
6, 164160, Note_on_c, 9, 40, 111
6, 164400, Note_off_c, 9, 40, 111
6, 164400, Note_on_c, 9, 36, 111
6, 165120, Note_off_c, 9, 36, 111
6, 165120, Note_on_c, 9, 51, 127
6, 165120, Note_on_c, 9, 36, 111
6, 166080, Note_off_c, 9, 51, 127
6, 166080, Note_off_c, 9, 36, 111
6, 166080, Note_on_c, 9, 42, 111
6, 166080, Note_on_c, 9, 40, 111
6, 166560, Note_off_c, 9, 42, 111
6, 166560, Note_off_c, 9, 40, 111
6, 166560, Note_on_c, 9, 42, 95
6, 166800, Note_off_c, 9, 42, 95
6, 166800, Note_on_c, 9, 40, 95
6, 167040, Note_off_c, 9, 40, 95
6, 167040, Note_on_c, 9, 42, 95
6, 167040, Note_on_c, 9, 36, 95
6, 167280, Note_off_c, 9, 42, 95
6, 167280, Note_off_c, 9, 36, 95
6, 167280, Note_on_c, 9, 40, 95
6, 167520, Note_off_c, 9, 40, 95
6, 167520, Note_on_c, 9, 46, 111
6, 167520, Note_on_c, 9, 36, 111
6, 168000, Note_off_c, 9, 46, 111
6, 168000, Note_off_c, 9, 36, 111
6, 168000, Note_on_c, 9, 42, 111
6, 168000, Note_on_c, 9, 40, 111
6, 168480, Note_off_c, 9, 42, 111
6, 168480, Note_off_c, 9, 40, 111
6, 168480, Note_on_c, 9, 42, 95
6, 168720, Note_off_c, 9, 42, 95
6, 168720, Note_on_c, 9, 40, 95
6, 168960, Note_off_c, 9, 40, 95
6, 168960, Note_on_c, 9, 42, 111
6, 168960, Note_on_c, 9, 36, 111
6, 169440, Note_off_c, 9, 42, 111
6, 169440, Note_off_c, 9, 36, 111
6, 169440, Note_on_c, 9, 42, 95
6, 169680, Note_off_c, 9, 42, 95
6, 169680, Note_on_c, 9, 36, 111
6, 169920, Note_off_c, 9, 36, 111
6, 169920, Note_on_c, 9, 42, 111
6, 169920, Note_on_c, 9, 40, 111
6, 170400, Note_off_c, 9, 42, 111
6, 170400, Note_off_c, 9, 40, 111
6, 170400, Note_on_c, 9, 42, 95
6, 170640, Note_off_c, 9, 42, 95
6, 170640, Note_on_c, 9, 40, 95
6, 170880, Note_off_c, 9, 40, 95
6, 170880, Note_on_c, 9, 42, 111
6, 170880, Note_on_c, 9, 36, 111
6, 171120, Note_off_c, 9, 42, 111
6, 171120, Note_off_c, 9, 36, 111
6, 171120, Note_on_c, 9, 40, 95
6, 171360, Note_off_c, 9, 40, 95
6, 171360, Note_on_c, 9, 46, 111
6, 171360, Note_on_c, 9, 36, 111
6, 171840, Note_off_c, 9, 46, 111
6, 171840, Note_off_c, 9, 36, 111
6, 171840, Note_on_c, 9, 42, 111
6, 171840, Note_on_c, 9, 40, 111
6, 172080, Note_off_c, 9, 42, 111
6, 172080, Note_off_c, 9, 40, 111
6, 172080, Note_on_c, 9, 36, 111
6, 172320, Note_off_c, 9, 36, 111
6, 172320, Note_on_c, 9, 42, 95
6, 172560, Note_off_c, 9, 42, 95
6, 172560, Note_on_c, 9, 36, 111
6, 172800, Note_off_c, 9, 36, 111
6, 172800, Note_on_c, 9, 42, 111
6, 172800, Note_on_c, 9, 36, 111
6, 173280, Note_off_c, 9, 42, 111
6, 173280, Note_off_c, 9, 36, 111
6, 173280, Note_on_c, 9, 42, 95
6, 173760, Note_off_c, 9, 42, 95
6, 173760, Note_on_c, 9, 42, 111
6, 173760, Note_on_c, 9, 40, 111
6, 174240, Note_off_c, 9, 42, 111
6, 174240, Note_off_c, 9, 40, 111
6, 174240, Note_on_c, 9, 42, 95
6, 174480, Note_off_c, 9, 42, 95
6, 174480, Note_on_c, 9, 40, 95
6, 174720, Note_off_c, 9, 40, 95
6, 174720, Note_on_c, 9, 42, 95
6, 174720, Note_on_c, 9, 36, 95
6, 174960, Note_off_c, 9, 42, 95
6, 174960, Note_off_c, 9, 36, 95
6, 174960, Note_on_c, 9, 40, 95
6, 175200, Note_off_c, 9, 40, 95
6, 175200, Note_on_c, 9, 46, 111
6, 175200, Note_on_c, 9, 36, 111
6, 175680, Note_off_c, 9, 46, 111
6, 175680, Note_off_c, 9, 36, 111
6, 175680, Note_on_c, 9, 42, 111
6, 175680, Note_on_c, 9, 40, 111
6, 176160, Note_off_c, 9, 42, 111
6, 176160, Note_off_c, 9, 40, 111
6, 176160, Note_on_c, 9, 42, 95
6, 176400, Note_off_c, 9, 42, 95
6, 176400, Note_on_c, 9, 40, 95
6, 176640, Note_off_c, 9, 40, 95
6, 176640, Note_on_c, 9, 42, 111
6, 176640, Note_on_c, 9, 36, 111
6, 177120, Note_off_c, 9, 42, 111
6, 177120, Note_off_c, 9, 36, 111
6, 177120, Note_on_c, 9, 42, 95
6, 177360, Note_off_c, 9, 42, 95
6, 177360, Note_on_c, 9, 36, 111
6, 177600, Note_off_c, 9, 36, 111
6, 177600, Note_on_c, 9, 42, 111
6, 177600, Note_on_c, 9, 40, 111
6, 178080, Note_off_c, 9, 42, 111
6, 178080, Note_off_c, 9, 40, 111
6, 178080, Note_on_c, 9, 42, 95
6, 178320, Note_off_c, 9, 42, 95
6, 178320, Note_on_c, 9, 40, 95
6, 178560, Note_off_c, 9, 40, 95
6, 178560, Note_on_c, 9, 42, 111
6, 178560, Note_on_c, 9, 36, 111
6, 178800, Note_off_c, 9, 42, 111
6, 178800, Note_off_c, 9, 36, 111
6, 178800, Note_on_c, 9, 40, 95
6, 179040, Note_off_c, 9, 40, 95
6, 179040, Note_on_c, 9, 46, 111
6, 179040, Note_on_c, 9, 36, 111
6, 179520, Note_off_c, 9, 46, 111
6, 179520, Note_off_c, 9, 36, 111
6, 179520, Note_on_c, 9, 42, 111
6, 179520, Note_on_c, 9, 40, 111
6, 179760, Note_off_c, 9, 42, 111
6, 179760, Note_off_c, 9, 40, 111
6, 179760, Note_on_c, 9, 36, 111
6, 180000, Note_off_c, 9, 36, 111
6, 180000, Note_on_c, 9, 42, 95
6, 180240, Note_off_c, 9, 42, 95
6, 180240, Note_on_c, 9, 36, 111
6, 180480, Note_off_c, 9, 36, 111
6, 180480, Note_on_c, 9, 42, 111
6, 180480, Note_on_c, 9, 36, 111
6, 180960, Note_off_c, 9, 42, 111
6, 180960, Note_off_c, 9, 36, 111
6, 180960, Note_on_c, 9, 42, 95
6, 181440, Note_off_c, 9, 42, 95
6, 181440, Note_on_c, 9, 42, 111
6, 181440, Note_on_c, 9, 40, 111
6, 181920, Note_off_c, 9, 42, 111
6, 181920, Note_off_c, 9, 40, 111
6, 181920, Note_on_c, 9, 42, 95
6, 182400, Note_off_c, 9, 42, 95
6, 182400, Note_on_c, 9, 42, 95
6, 182400, Note_on_c, 9, 36, 95
6, 182640, Note_off_c, 9, 42, 95
6, 182640, Note_off_c, 9, 36, 95
6, 182640, Note_on_c, 9, 40, 95
6, 182880, Note_off_c, 9, 40, 95
6, 182880, Note_on_c, 9, 46, 111
6, 182880, Note_on_c, 9, 36, 111
6, 183360, Note_off_c, 9, 46, 111
6, 183360, Note_off_c, 9, 36, 111
6, 183360, Note_on_c, 9, 42, 111
6, 183360, Note_on_c, 9, 40, 111
6, 183840, Note_off_c, 9, 42, 111
6, 183840, Note_off_c, 9, 40, 111
6, 183840, Note_on_c, 9, 42, 95
6, 184080, Note_off_c, 9, 42, 95
6, 184080, Note_on_c, 9, 40, 95
6, 184320, Note_off_c, 9, 40, 95
6, 184320, Note_on_c, 9, 42, 111
6, 184320, Note_on_c, 9, 36, 111
6, 184800, Note_off_c, 9, 42, 111
6, 184800, Note_off_c, 9, 36, 111
6, 184800, Note_on_c, 9, 42, 95
6, 185040, Note_off_c, 9, 42, 95
6, 185040, Note_on_c, 9, 36, 95
6, 185280, Note_off_c, 9, 36, 95
6, 185280, Note_on_c, 9, 42, 111
6, 185280, Note_on_c, 9, 40, 111
6, 185760, Note_off_c, 9, 42, 111
6, 185760, Note_off_c, 9, 40, 111
6, 185760, Note_on_c, 9, 42, 95
6, 186000, Note_off_c, 9, 42, 95
6, 186000, Note_on_c, 9, 40, 95
6, 186240, Note_off_c, 9, 40, 95
6, 186240, Note_on_c, 9, 42, 95
6, 186240, Note_on_c, 9, 36, 95
6, 186480, Note_off_c, 9, 42, 95
6, 186480, Note_off_c, 9, 36, 95
6, 186480, Note_on_c, 9, 40, 95
6, 186720, Note_off_c, 9, 40, 95
6, 186720, Note_on_c, 9, 46, 111
6, 186720, Note_on_c, 9, 36, 111
6, 187200, Note_off_c, 9, 46, 111
6, 187200, Note_off_c, 9, 36, 111
6, 187200, Note_on_c, 9, 42, 111
6, 187200, Note_on_c, 9, 40, 111
6, 187680, Note_off_c, 9, 42, 111
6, 187680, Note_off_c, 9, 40, 111
6, 187680, Note_on_c, 9, 42, 95
6, 188160, Note_off_c, 9, 42, 95
6, 188160, Note_on_c, 9, 46, 111
6, 188160, Note_on_c, 9, 40, 111
6, 188640, Note_off_c, 9, 46, 111
6, 188640, Note_off_c, 9, 40, 111
6, 188640, Note_on_c, 9, 46, 95
6, 188640, Note_on_c, 9, 40, 95
6, 188880, Note_off_c, 9, 46, 95
6, 188880, Note_off_c, 9, 40, 95
6, 188880, Note_on_c, 9, 36, 111
6, 189120, Note_off_c, 9, 36, 111
6, 189120, Note_on_c, 9, 46, 111
6, 189120, Note_on_c, 9, 40, 111
6, 189600, Note_off_c, 9, 46, 111
6, 189600, Note_off_c, 9, 40, 111
6, 189600, Note_on_c, 9, 46, 95
6, 189600, Note_on_c, 9, 40, 95
6, 189840, Note_off_c, 9, 46, 95
6, 189840, Note_off_c, 9, 40, 95
6, 189840, Note_on_c, 9, 36, 111
6, 190080, Note_off_c, 9, 36, 111
6, 190080, Note_on_c, 9, 46, 111
6, 190080, Note_on_c, 9, 40, 111
6, 190320, Note_off_c, 9, 46, 111
6, 190320, Note_off_c, 9, 40, 111
6, 190320, Note_on_c, 9, 36, 111
6, 190560, Note_off_c, 9, 36, 111
6, 190560, Note_on_c, 9, 46, 111
6, 191040, Note_off_c, 9, 46, 111
6, 191040, Note_on_c, 9, 47, 111
6, 191160, Note_off_c, 9, 47, 111
6, 191160, Note_on_c, 9, 40, 79
6, 191280, Note_off_c, 9, 40, 79
6, 191280, Note_on_c, 9, 40, 95
6, 191400, Note_off_c, 9, 40, 95
6, 191400, Note_on_c, 9, 40, 111
6, 191520, Note_off_c, 9, 40, 111
6, 191520, Note_on_c, 9, 40, 111
6, 191640, Note_off_c, 9, 40, 111
6, 191640, Note_on_c, 9, 40, 79
6, 191760, Note_off_c, 9, 40, 79
6, 191760, Note_on_c, 9, 40, 95
6, 191880, Note_off_c, 9, 40, 95
6, 191880, Note_on_c, 9, 40, 111
6, 192000, Note_off_c, 9, 40, 111
6, 192000, Note_on_c, 9, 51, 127
6, 192000, Note_on_c, 9, 36, 111
6, 192720, Note_off_c, 9, 51, 127
6, 192720, Note_off_c, 9, 36, 111
6, 192720, Note_on_c, 9, 40, 111
6, 192960, Note_off_c, 9, 40, 111
6, 192960, Note_on_c, 9, 40, 111
6, 193440, Note_off_c, 9, 40, 111
6, 193440, Note_on_c, 9, 51, 127
6, 193440, Note_on_c, 9, 36, 111
6, 193920, Note_off_c, 9, 51, 127
6, 193920, Note_off_c, 9, 36, 111
6, 194280, Note_on_c, 9, 40, 47
6, 194400, Note_off_c, 9, 40, 47
6, 194400, Note_on_c, 9, 40, 111
6, 194760, Note_off_c, 9, 40, 111
6, 194760, Note_on_c, 9, 40, 47
6, 194880, Note_off_c, 9, 40, 47
6, 194880, Note_on_c, 9, 40, 111
6, 195120, Note_off_c, 9, 40, 111
6, 195120, Note_on_c, 9, 36, 111
6, 195600, Note_off_c, 9, 36, 111
6, 195600, Note_on_c, 9, 36, 111
6, 195840, Note_off_c, 9, 36, 111
6, 195840, Note_on_c, 9, 51, 127
6, 195840, Note_on_c, 9, 36, 111
6, 196560, Note_off_c, 9, 51, 127
6, 196560, Note_off_c, 9, 36, 111
6, 196560, Note_on_c, 9, 40, 111
6, 196800, Note_off_c, 9, 40, 111
6, 196800, Note_on_c, 9, 40, 111
6, 197280, Note_off_c, 9, 40, 111
6, 197280, Note_on_c, 9, 49, 111
6, 197280, Note_on_c, 9, 36, 111
6, 197760, Note_off_c, 9, 49, 111
6, 197760, Note_off_c, 9, 36, 111
6, 198240, Note_on_c, 9, 40, 95
6, 198240, Note_on_c, 9, 45, 111
6, 198480, Note_off_c, 9, 40, 95
6, 198480, Note_off_c, 9, 45, 111
6, 198480, Note_on_c, 9, 40, 95
6, 198480, Note_on_c, 9, 45, 111
6, 198720, Note_off_c, 9, 40, 95
6, 198720, Note_off_c, 9, 45, 111
6, 198720, Note_on_c, 9, 40, 95
6, 198720, Note_on_c, 9, 45, 111
6, 198960, Note_off_c, 9, 40, 95
6, 198960, Note_off_c, 9, 45, 111
6, 198960, Note_on_c, 9, 36, 111
6, 199200, Note_off_c, 9, 36, 111
6, 199200, Note_on_c, 9, 40, 95
6, 199200, Note_on_c, 9, 45, 111
6, 199440, Note_off_c, 9, 40, 95
6, 199440, Note_off_c, 9, 45, 111
6, 199440, Note_on_c, 9, 36, 111
6, 199680, Note_off_c, 9, 36, 111
6, 199680, Note_on_c, 9, 51, 111
6, 199680, Note_on_c, 9, 36, 95
6, 200400, Note_off_c, 9, 51, 111
6, 200400, Note_off_c, 9, 36, 95
6, 200400, Note_on_c, 9, 40, 95
6, 200640, Note_off_c, 9, 40, 95
6, 200640, Note_on_c, 9, 40, 95
6, 201120, Note_off_c, 9, 40, 95
6, 201120, Note_on_c, 9, 51, 111
6, 201120, Note_on_c, 9, 36, 95
6, 201600, Note_off_c, 9, 51, 111
6, 201600, Note_off_c, 9, 36, 95
6, 202560, Note_on_c, 9, 44, 127
6, 203520, Note_off_c, 9, 44, 127
6, 206400, Note_on_c, 9, 40, 95
6, 206640, Note_off_c, 9, 40, 95
6, 206640, Note_on_c, 9, 36, 95
6, 207120, Note_off_c, 9, 36, 95
6, 207120, Note_on_c, 9, 36, 95
6, 207360, Note_off_c, 9, 36, 95
6, 207360, Note_on_c, 9, 51, 127
6, 207360, Note_on_c, 9, 36, 111
6, 207840, Note_off_c, 9, 51, 127
6, 207840, Note_off_c, 9, 36, 111
6, 207840, Note_on_c, 9, 51, 111
6, 208320, Note_off_c, 9, 51, 111
6, 208320, Note_on_c, 9, 51, 127
6, 208320, Note_on_c, 9, 40, 111
6, 208800, Note_off_c, 9, 51, 127
6, 208800, Note_off_c, 9, 40, 111
6, 208800, Note_on_c, 9, 51, 111
6, 209040, Note_off_c, 9, 51, 111
6, 209040, Note_on_c, 9, 40, 95
6, 209280, Note_off_c, 9, 40, 95
6, 209280, Note_on_c, 9, 51, 127
6, 209280, Note_on_c, 9, 36, 111
6, 209520, Note_off_c, 9, 51, 127
6, 209520, Note_off_c, 9, 36, 111
6, 209520, Note_on_c, 9, 46, 111
6, 209760, Note_off_c, 9, 46, 111
6, 209760, Note_on_c, 9, 51, 127
6, 209760, Note_on_c, 9, 36, 111
6, 210240, Note_off_c, 9, 51, 127
6, 210240, Note_off_c, 9, 36, 111
6, 210240, Note_on_c, 9, 51, 127
6, 210240, Note_on_c, 9, 40, 111
6, 210720, Note_off_c, 9, 51, 127
6, 210720, Note_off_c, 9, 40, 111
6, 210720, Note_on_c, 9, 51, 111
6, 210960, Note_off_c, 9, 51, 111
6, 210960, Note_on_c, 9, 40, 95
6, 211200, Note_off_c, 9, 40, 95
6, 211200, Note_on_c, 9, 51, 127
6, 211200, Note_on_c, 9, 36, 111
6, 211680, Note_off_c, 9, 51, 127
6, 211680, Note_off_c, 9, 36, 111
6, 211680, Note_on_c, 9, 51, 111
6, 211920, Note_off_c, 9, 51, 111
6, 211920, Note_on_c, 9, 36, 111
6, 212160, Note_off_c, 9, 36, 111
6, 212160, Note_on_c, 9, 51, 127
6, 212160, Note_on_c, 9, 40, 111
6, 212640, Note_off_c, 9, 51, 127
6, 212640, Note_off_c, 9, 40, 111
6, 212640, Note_on_c, 9, 51, 127
6, 212640, Note_on_c, 9, 36, 111
6, 213120, Note_off_c, 9, 51, 127
6, 213120, Note_off_c, 9, 36, 111
6, 213120, Note_on_c, 9, 40, 111
6, 213360, Note_off_c, 9, 40, 111
6, 213360, Note_on_c, 9, 40, 111
6, 213600, Note_off_c, 9, 40, 111
6, 213600, Note_on_c, 9, 40, 111
6, 213720, Note_off_c, 9, 40, 111
6, 213720, Note_on_c, 9, 40, 79
6, 213840, Note_off_c, 9, 40, 79
6, 213840, Note_on_c, 9, 40, 95
6, 213960, Note_off_c, 9, 40, 95
6, 213960, Note_on_c, 9, 40, 111
6, 214080, Note_off_c, 9, 40, 111
6, 214080, Note_on_c, 9, 40, 111
6, 214320, Note_off_c, 9, 40, 111
6, 214320, Note_on_c, 9, 49, 111
6, 214320, Note_on_c, 9, 36, 111
6, 214800, Note_off_c, 9, 49, 111
6, 214800, Note_off_c, 9, 36, 111
6, 214800, Note_on_c, 9, 40, 95
6, 215040, Note_off_c, 9, 40, 95
6, 215040, Note_on_c, 9, 51, 127
6, 215040, Note_on_c, 9, 36, 111
6, 215520, Note_off_c, 9, 51, 127
6, 215520, Note_off_c, 9, 36, 111
6, 215520, Note_on_c, 9, 51, 111
6, 216000, Note_off_c, 9, 51, 111
6, 216000, Note_on_c, 9, 51, 127
6, 216000, Note_on_c, 9, 40, 111
6, 216480, Note_off_c, 9, 51, 127
6, 216480, Note_off_c, 9, 40, 111
6, 216480, Note_on_c, 9, 51, 111
6, 216720, Note_off_c, 9, 51, 111
6, 216720, Note_on_c, 9, 40, 95
6, 216960, Note_off_c, 9, 40, 95
6, 216960, Note_on_c, 9, 51, 111
6, 216960, Note_on_c, 9, 36, 95
6, 217200, Note_off_c, 9, 51, 111
6, 217200, Note_off_c, 9, 36, 95
6, 217200, Note_on_c, 9, 40, 95
6, 217440, Note_off_c, 9, 40, 95
6, 217440, Note_on_c, 9, 51, 111
6, 217440, Note_on_c, 9, 36, 95
6, 217680, Note_off_c, 9, 51, 111
6, 217680, Note_off_c, 9, 36, 95
6, 217680, Note_on_c, 9, 36, 95
6, 217920, Note_off_c, 9, 36, 95
6, 217920, Note_on_c, 9, 51, 127
6, 217920, Note_on_c, 9, 40, 111
6, 218400, Note_off_c, 9, 51, 127
6, 218400, Note_off_c, 9, 40, 111
6, 218400, Note_on_c, 9, 51, 111
6, 218640, Note_off_c, 9, 51, 111
6, 218640, Note_on_c, 9, 40, 95
6, 218880, Note_off_c, 9, 40, 95
6, 218880, Note_on_c, 9, 51, 127
6, 218880, Note_on_c, 9, 36, 111
6, 219360, Note_off_c, 9, 51, 127
6, 219360, Note_off_c, 9, 36, 111
6, 219360, Note_on_c, 9, 51, 111
6, 219840, Note_off_c, 9, 51, 111
6, 219840, Note_on_c, 9, 51, 127
6, 219840, Note_on_c, 9, 40, 111
6, 220320, Note_off_c, 9, 51, 127
6, 220320, Note_off_c, 9, 40, 111
6, 220320, Note_on_c, 9, 51, 111
6, 220560, Note_off_c, 9, 51, 111
6, 220560, Note_on_c, 9, 40, 95
6, 220800, Note_off_c, 9, 40, 95
6, 220800, Note_on_c, 9, 51, 111
6, 220800, Note_on_c, 9, 36, 95
6, 221040, Note_off_c, 9, 51, 111
6, 221040, Note_off_c, 9, 36, 95
6, 221040, Note_on_c, 9, 36, 95
6, 221280, Note_off_c, 9, 36, 95
6, 221280, Note_on_c, 9, 51, 111
6, 221280, Note_on_c, 9, 40, 95
6, 221760, Note_off_c, 9, 51, 111
6, 221760, Note_off_c, 9, 40, 95
6, 221760, Note_on_c, 9, 40, 95
6, 221760, Note_on_c, 9, 45, 111
6, 222000, Note_off_c, 9, 40, 95
6, 222000, Note_off_c, 9, 45, 111
6, 222000, Note_on_c, 9, 36, 111
6, 222240, Note_off_c, 9, 36, 111
6, 222240, Note_on_c, 9, 40, 95
6, 222240, Note_on_c, 9, 45, 111
6, 222480, Note_off_c, 9, 40, 95
6, 222480, Note_off_c, 9, 45, 111
6, 222480, Note_on_c, 9, 36, 111
6, 222720, Note_off_c, 9, 36, 111
6, 222720, Note_on_c, 9, 51, 127
6, 222720, Note_on_c, 9, 36, 111
6, 223200, Note_off_c, 9, 51, 127
6, 223200, Note_off_c, 9, 36, 111
6, 223200, Note_on_c, 9, 51, 111
6, 223680, Note_off_c, 9, 51, 111
6, 223680, Note_on_c, 9, 51, 127
6, 223680, Note_on_c, 9, 40, 111
6, 224160, Note_off_c, 9, 51, 127
6, 224160, Note_off_c, 9, 40, 111
6, 224160, Note_on_c, 9, 51, 111
6, 224400, Note_off_c, 9, 51, 111
6, 224400, Note_on_c, 9, 40, 95
6, 224640, Note_off_c, 9, 40, 95
6, 224640, Note_on_c, 9, 51, 127
6, 224640, Note_on_c, 9, 36, 111
6, 224880, Note_off_c, 9, 51, 127
6, 224880, Note_off_c, 9, 36, 111
6, 224880, Note_on_c, 9, 40, 95
6, 225120, Note_off_c, 9, 40, 95
6, 225120, Note_on_c, 9, 51, 111
6, 225360, Note_off_c, 9, 51, 111
6, 225360, Note_on_c, 9, 36, 111
6, 225600, Note_off_c, 9, 36, 111
6, 225600, Note_on_c, 9, 51, 127
6, 225600, Note_on_c, 9, 40, 111
6, 226080, Note_off_c, 9, 51, 127
6, 226080, Note_off_c, 9, 40, 111
6, 226080, Note_on_c, 9, 51, 111
6, 226320, Note_off_c, 9, 51, 111
6, 226320, Note_on_c, 9, 40, 95
6, 226560, Note_off_c, 9, 40, 95
6, 226560, Note_on_c, 9, 51, 127
6, 226560, Note_on_c, 9, 36, 111
6, 227040, Note_off_c, 9, 51, 127
6, 227040, Note_off_c, 9, 36, 111
6, 227040, Note_on_c, 9, 51, 111
6, 227040, Note_on_c, 9, 40, 63
6, 227520, Note_off_c, 9, 51, 111
6, 227520, Note_off_c, 9, 40, 63
6, 227520, Note_on_c, 9, 51, 127
6, 227520, Note_on_c, 9, 40, 111
6, 228000, Note_off_c, 9, 51, 127
6, 228000, Note_off_c, 9, 40, 111
6, 228000, Note_on_c, 9, 53, 95
6, 228240, Note_off_c, 9, 53, 95
6, 228240, Note_on_c, 9, 40, 95
6, 228480, Note_off_c, 9, 40, 95
6, 228480, Note_on_c, 9, 47, 111
6, 228600, Note_off_c, 9, 47, 111
6, 228600, Note_on_c, 9, 40, 79
6, 228720, Note_off_c, 9, 40, 79
6, 228720, Note_on_c, 9, 40, 95
6, 228840, Note_off_c, 9, 40, 95
6, 228840, Note_on_c, 9, 40, 95
6, 228960, Note_off_c, 9, 40, 95
6, 228960, Note_on_c, 9, 40, 95
6, 228960, Note_on_c, 9, 44, 95
6, 229080, Note_off_c, 9, 40, 95
6, 229080, Note_off_c, 9, 44, 95
6, 229080, Note_on_c, 9, 45, 95
6, 229200, Note_off_c, 9, 45, 95
6, 229200, Note_on_c, 9, 40, 79
6, 229320, Note_off_c, 9, 40, 79
6, 229320, Note_on_c, 9, 40, 95
6, 229440, Note_off_c, 9, 40, 95
6, 229440, Note_on_c, 9, 45, 111
6, 229680, Note_off_c, 9, 45, 111
6, 229680, Note_on_c, 9, 57, 111
6, 229680, Note_on_c, 9, 36, 111
6, 230160, Note_off_c, 9, 57, 111
6, 230160, Note_off_c, 9, 36, 111
6, 230160, Note_on_c, 9, 40, 95
6, 230400, Note_off_c, 9, 40, 95
6, 230400, Note_on_c, 9, 53, 95
6, 230400, Note_on_c, 9, 36, 95
6, 230880, Note_off_c, 9, 53, 95
6, 230880, Note_off_c, 9, 36, 95
6, 230880, Note_on_c, 9, 53, 95
6, 231360, Note_off_c, 9, 53, 95
6, 231360, Note_on_c, 9, 53, 111
6, 231360, Note_on_c, 9, 40, 111
6, 231840, Note_off_c, 9, 53, 111
6, 231840, Note_off_c, 9, 40, 111
6, 231840, Note_on_c, 9, 53, 95
6, 232080, Note_off_c, 9, 53, 95
6, 232080, Note_on_c, 9, 36, 95
6, 232320, Note_off_c, 9, 36, 95
6, 232320, Note_on_c, 9, 53, 111
6, 232320, Note_on_c, 9, 40, 111
6, 232800, Note_off_c, 9, 53, 111
6, 232800, Note_off_c, 9, 40, 111
6, 232800, Note_on_c, 9, 53, 95
6, 232800, Note_on_c, 9, 40, 95
6, 233040, Note_off_c, 9, 53, 95
6, 233040, Note_off_c, 9, 40, 95
6, 233040, Note_on_c, 9, 36, 95
6, 233280, Note_off_c, 9, 36, 95
6, 233280, Note_on_c, 9, 53, 111
6, 233280, Note_on_c, 9, 40, 111
6, 233520, Note_off_c, 9, 53, 111
6, 233520, Note_off_c, 9, 40, 111
6, 233520, Note_on_c, 9, 36, 111
6, 233760, Note_off_c, 9, 36, 111
6, 233760, Note_on_c, 9, 53, 95
6, 234000, Note_off_c, 9, 53, 95
6, 234000, Note_on_c, 9, 36, 111
6, 234240, Note_off_c, 9, 36, 111
6, 234240, Note_on_c, 9, 53, 111
6, 234240, Note_on_c, 9, 40, 111
6, 234720, Note_off_c, 9, 53, 111
6, 234720, Note_off_c, 9, 40, 111
6, 234720, Note_on_c, 9, 53, 95
6, 234720, Note_on_c, 9, 36, 95
6, 234960, Note_off_c, 9, 53, 95
6, 234960, Note_off_c, 9, 36, 95
6, 234960, Note_on_c, 9, 36, 95
6, 235200, Note_off_c, 9, 36, 95
6, 235200, Note_on_c, 9, 53, 111
6, 235200, Note_on_c, 9, 40, 111
6, 235680, Note_off_c, 9, 53, 111
6, 235680, Note_off_c, 9, 40, 111
6, 235680, Note_on_c, 9, 53, 95
6, 236160, Note_off_c, 9, 53, 95
6, 236160, Note_on_c, 9, 40, 111
6, 236400, Note_off_c, 9, 40, 111
6, 236400, Note_on_c, 9, 40, 111
6, 236640, Note_off_c, 9, 40, 111
6, 236640, Note_on_c, 9, 40, 111
6, 236760, Note_off_c, 9, 40, 111
6, 236760, Note_on_c, 9, 40, 79
6, 236880, Note_off_c, 9, 40, 79
6, 236880, Note_on_c, 9, 40, 95
6, 237000, Note_off_c, 9, 40, 95
6, 237000, Note_on_c, 9, 40, 111
6, 237120, Note_off_c, 9, 40, 111
6, 237120, Note_on_c, 9, 40, 111
6, 237360, Note_off_c, 9, 40, 111
6, 237360, Note_on_c, 9, 53, 111
6, 237360, Note_on_c, 9, 36, 111
6, 237840, Note_off_c, 9, 53, 111
6, 237840, Note_off_c, 9, 36, 111
6, 237840, Note_on_c, 9, 40, 95
6, 238080, Note_off_c, 9, 40, 95
6, 238080, Note_on_c, 9, 53, 111
6, 238080, Note_on_c, 9, 36, 111
6, 238560, Note_off_c, 9, 53, 111
6, 238560, Note_off_c, 9, 36, 111
6, 238560, Note_on_c, 9, 53, 111
6, 238560, Note_on_c, 9, 36, 111
6, 238800, Note_off_c, 9, 53, 111
6, 238800, Note_off_c, 9, 36, 111
6, 238800, Note_on_c, 9, 36, 111
6, 239040, Note_off_c, 9, 36, 111
6, 239040, Note_on_c, 9, 53, 111
6, 239040, Note_on_c, 9, 40, 111
6, 239520, Note_off_c, 9, 53, 111
6, 239520, Note_off_c, 9, 40, 111
6, 239520, Note_on_c, 9, 53, 95
6, 239760, Note_off_c, 9, 53, 95
6, 239760, Note_on_c, 9, 40, 95
6, 240000, Note_off_c, 9, 40, 95
6, 240000, Note_on_c, 9, 48, 111
6, 240120, Note_off_c, 9, 48, 111
6, 240120, Note_on_c, 9, 40, 79
6, 240240, Note_off_c, 9, 40, 79
6, 240240, Note_on_c, 9, 40, 95
6, 240360, Note_off_c, 9, 40, 95
6, 240360, Note_on_c, 9, 40, 95
6, 240480, Note_off_c, 9, 40, 95
6, 240480, Note_on_c, 9, 40, 111
6, 240600, Note_off_c, 9, 40, 111
6, 240600, Note_on_c, 9, 40, 95
6, 240720, Note_off_c, 9, 40, 95
6, 240720, Note_on_c, 9, 45, 79
6, 240840, Note_off_c, 9, 45, 79
6, 240840, Note_on_c, 9, 45, 95
6, 240960, Note_off_c, 9, 45, 95
6, 240960, Note_on_c, 9, 45, 111
6, 241200, Note_off_c, 9, 45, 111
6, 241200, Note_on_c, 9, 53, 111
6, 241200, Note_on_c, 9, 36, 111
6, 241680, Note_off_c, 9, 53, 111
6, 241680, Note_off_c, 9, 36, 111
6, 241680, Note_on_c, 9, 40, 95
6, 241920, Note_off_c, 9, 40, 95
6, 241920, Note_on_c, 9, 53, 95
6, 242400, Note_off_c, 9, 53, 95
6, 242400, Note_on_c, 9, 53, 95
6, 242400, Note_on_c, 9, 40, 63
6, 242880, Note_off_c, 9, 53, 95
6, 242880, Note_off_c, 9, 40, 63
6, 242880, Note_on_c, 9, 53, 111
6, 242880, Note_on_c, 9, 40, 111
6, 243360, Note_off_c, 9, 53, 111
6, 243360, Note_off_c, 9, 40, 111
6, 243360, Note_on_c, 9, 53, 95
6, 243520, Note_off_c, 9, 53, 95
6, 243680, Note_on_c, 9, 40, 95
6, 243840, Note_off_c, 9, 40, 95
6, 243840, Note_on_c, 9, 40, 111
6, 244000, Note_off_c, 9, 40, 111
6, 244000, Note_on_c, 9, 40, 111
6, 244160, Note_off_c, 9, 40, 111
6, 244160, Note_on_c, 9, 48, 95
6, 244320, Note_off_c, 9, 48, 95
6, 244320, Note_on_c, 9, 40, 111
6, 244480, Note_off_c, 9, 40, 111
6, 244480, Note_on_c, 9, 40, 111
6, 244640, Note_off_c, 9, 40, 111
6, 244640, Note_on_c, 9, 36, 111
6, 244800, Note_off_c, 9, 36, 111
6, 244800, Note_on_c, 9, 40, 79
6, 244920, Note_off_c, 9, 40, 79
6, 244920, Note_on_c, 9, 40, 111
6, 245040, Note_off_c, 9, 40, 111
6, 245040, Note_on_c, 9, 53, 111
6, 245040, Note_on_c, 9, 36, 111
6, 245520, Note_off_c, 9, 53, 111
6, 245520, Note_off_c, 9, 36, 111
6, 245520, Note_on_c, 9, 40, 95
6, 245760, Note_off_c, 9, 40, 95
6, 245760, Note_on_c, 9, 53, 95
6, 245760, Note_on_c, 9, 36, 95
6, 246240, Note_off_c, 9, 53, 95
6, 246240, Note_off_c, 9, 36, 95
6, 246240, Note_on_c, 9, 53, 95
6, 246240, Note_on_c, 9, 40, 95
6, 246720, Note_off_c, 9, 53, 95
6, 246720, Note_off_c, 9, 40, 95
6, 246720, Note_on_c, 9, 53, 111
6, 246720, Note_on_c, 9, 40, 111
6, 247200, Note_off_c, 9, 53, 111
6, 247200, Note_off_c, 9, 40, 111
6, 247200, Note_on_c, 9, 53, 95
6, 247440, Note_off_c, 9, 53, 95
6, 247440, Note_on_c, 9, 40, 95
6, 247680, Note_off_c, 9, 40, 95
6, 247680, Note_on_c, 9, 40, 111
6, 247800, Note_off_c, 9, 40, 111
6, 247800, Note_on_c, 9, 40, 111
6, 247920, Note_off_c, 9, 40, 111
6, 247920, Note_on_c, 9, 36, 111
6, 248160, Note_off_c, 9, 36, 111
6, 248160, Note_on_c, 9, 48, 111
6, 248280, Note_off_c, 9, 48, 111
6, 248280, Note_on_c, 9, 40, 111
6, 248400, Note_off_c, 9, 40, 111
6, 248400, Note_on_c, 9, 36, 111
6, 248640, Note_off_c, 9, 36, 111
6, 248640, Note_on_c, 9, 45, 111
6, 248880, Note_off_c, 9, 45, 111
6, 248880, Note_on_c, 9, 53, 111
6, 248880, Note_on_c, 9, 36, 111
6, 249360, Note_off_c, 9, 53, 111
6, 249360, Note_off_c, 9, 36, 111
6, 249360, Note_on_c, 9, 40, 95
6, 249600, Note_off_c, 9, 40, 95
6, 249600, Note_on_c, 9, 53, 95
6, 249600, Note_on_c, 9, 36, 95
6, 250080, Note_off_c, 9, 53, 95
6, 250080, Note_off_c, 9, 36, 95
6, 250080, Note_on_c, 9, 53, 95
6, 250560, Note_off_c, 9, 53, 95
6, 250560, Note_on_c, 9, 53, 111
6, 250560, Note_on_c, 9, 40, 111
6, 251040, Note_off_c, 9, 53, 111
6, 251040, Note_off_c, 9, 40, 111
6, 251040, Note_on_c, 9, 53, 95
6, 251520, Note_off_c, 9, 53, 95
6, 251520, Note_on_c, 9, 45, 111
6, 251640, Note_off_c, 9, 45, 111
6, 251640, Note_on_c, 9, 40, 79
6, 251760, Note_off_c, 9, 40, 79
6, 251760, Note_on_c, 9, 40, 95
6, 251880, Note_off_c, 9, 40, 95
6, 251880, Note_on_c, 9, 40, 95
6, 252000, Note_off_c, 9, 40, 95
6, 252000, Note_on_c, 9, 40, 95
6, 252120, Note_off_c, 9, 40, 95
6, 252120, Note_on_c, 9, 45, 95
6, 252240, Note_off_c, 9, 45, 95
6, 252240, Note_on_c, 9, 40, 95
6, 252360, Note_off_c, 9, 40, 95
6, 252360, Note_on_c, 9, 40, 95
6, 252480, Note_off_c, 9, 40, 95
6, 252480, Note_on_c, 9, 45, 111
6, 252720, Note_off_c, 9, 45, 111
6, 252720, Note_on_c, 9, 49, 95
6, 252720, Note_on_c, 9, 36, 95
6, 253200, Note_off_c, 9, 49, 95
6, 253200, Note_off_c, 9, 36, 95
6, 253200, Note_on_c, 9, 40, 95
6, 253440, Note_off_c, 9, 40, 95
6, 253440, Note_on_c, 9, 53, 95
6, 253920, Note_off_c, 9, 53, 95
6, 253920, Note_on_c, 9, 53, 95
6, 254400, Note_off_c, 9, 53, 95
6, 254400, Note_on_c, 9, 53, 111
6, 254400, Note_on_c, 9, 40, 111
6, 254880, Note_off_c, 9, 53, 111
6, 254880, Note_off_c, 9, 40, 111
6, 254880, Note_on_c, 9, 53, 95
6, 255360, Note_off_c, 9, 53, 95
6, 255360, Note_on_c, 9, 47, 111
6, 255600, Note_off_c, 9, 47, 111
6, 255600, Note_on_c, 9, 40, 79
6, 255680, Note_off_c, 9, 40, 79
6, 255680, Note_on_c, 9, 40, 95
6, 255760, Note_off_c, 9, 40, 95
6, 255760, Note_on_c, 9, 40, 95
6, 255840, Note_off_c, 9, 40, 95
6, 255840, Note_on_c, 9, 40, 95
6, 256080, Note_off_c, 9, 40, 95
6, 256080, Note_on_c, 9, 40, 79
6, 256160, Note_off_c, 9, 40, 79
6, 256160, Note_on_c, 9, 40, 95
6, 256240, Note_off_c, 9, 40, 95
6, 256240, Note_on_c, 9, 40, 95
6, 256320, Note_off_c, 9, 40, 95
6, 256320, Note_on_c, 9, 40, 111
6, 256560, Note_off_c, 9, 40, 111
6, 256560, Note_on_c, 9, 53, 111
6, 256560, Note_on_c, 9, 36, 111
6, 257040, Note_off_c, 9, 53, 111
6, 257040, Note_off_c, 9, 36, 111
6, 257040, Note_on_c, 9, 40, 95
6, 257280, Note_off_c, 9, 40, 95
6, 257280, Note_on_c, 9, 53, 111
6, 257280, Note_on_c, 9, 36, 111
6, 257760, Note_off_c, 9, 53, 111
6, 257760, Note_off_c, 9, 36, 111
6, 257760, Note_on_c, 9, 53, 95
6, 258240, Note_off_c, 9, 53, 95
6, 258240, Note_on_c, 9, 53, 111
6, 258240, Note_on_c, 9, 40, 111
6, 258720, Note_off_c, 9, 53, 111
6, 258720, Note_off_c, 9, 40, 111
6, 258720, Note_on_c, 9, 53, 95
6, 258880, Note_off_c, 9, 53, 95
6, 259040, Note_on_c, 9, 40, 95
6, 259200, Note_off_c, 9, 40, 95
6, 259200, Note_on_c, 9, 40, 111
6, 259360, Note_off_c, 9, 40, 111
6, 259360, Note_on_c, 9, 48, 111
6, 259520, Note_off_c, 9, 48, 111
6, 259520, Note_on_c, 9, 36, 111
6, 259680, Note_off_c, 9, 36, 111
6, 259680, Note_on_c, 9, 40, 95
6, 259840, Note_off_c, 9, 40, 95
6, 259840, Note_on_c, 9, 48, 111
6, 260000, Note_off_c, 9, 48, 111
6, 260000, Note_on_c, 9, 36, 111
6, 260160, Note_off_c, 9, 36, 111
6, 260160, Note_on_c, 9, 45, 95
6, 260400, Note_off_c, 9, 45, 95
6, 260400, Note_on_c, 9, 53, 111
6, 260400, Note_on_c, 9, 36, 111
6, 260880, Note_off_c, 9, 53, 111
6, 260880, Note_off_c, 9, 36, 111
6, 260880, Note_on_c, 9, 40, 95
6, 261120, Note_off_c, 9, 40, 95
6, 261120, Note_on_c, 9, 53, 95
6, 261120, Note_on_c, 9, 36, 95
6, 261600, Note_off_c, 9, 53, 95
6, 261600, Note_off_c, 9, 36, 95
6, 261600, Note_on_c, 9, 53, 95
6, 261600, Note_on_c, 9, 40, 63
6, 262080, Note_off_c, 9, 53, 95
6, 262080, Note_off_c, 9, 40, 63
6, 262080, Note_on_c, 9, 53, 111
6, 262080, Note_on_c, 9, 40, 111
6, 262560, Note_off_c, 9, 53, 111
6, 262560, Note_off_c, 9, 40, 111
6, 262560, Note_on_c, 9, 53, 95
6, 263040, Note_off_c, 9, 53, 95
6, 263040, Note_on_c, 9, 40, 111
6, 263120, Note_off_c, 9, 40, 111
6, 263120, Note_on_c, 9, 48, 111
6, 263200, Note_off_c, 9, 48, 111
6, 263200, Note_on_c, 9, 45, 111
6, 263280, Note_off_c, 9, 45, 111
6, 263520, Note_on_c, 9, 40, 95
6, 263520, Note_on_c, 9, 45, 111
6, 264000, Note_off_c, 9, 40, 95
6, 264000, Note_off_c, 9, 45, 111
6, 264000, Note_on_c, 9, 40, 95
6, 264000, Note_on_c, 9, 45, 111
6, 264240, Note_off_c, 9, 40, 95
6, 264240, Note_off_c, 9, 45, 111
6, 264240, Note_on_c, 9, 53, 111
6, 264240, Note_on_c, 9, 36, 111
6, 264720, Note_off_c, 9, 53, 111
6, 264720, Note_off_c, 9, 36, 111
6, 264720, Note_on_c, 9, 40, 95
6, 264960, Note_off_c, 9, 40, 95
6, 264960, Note_on_c, 9, 53, 95
6, 264960, Note_on_c, 9, 36, 95
6, 265440, Note_off_c, 9, 53, 95
6, 265440, Note_off_c, 9, 36, 95
6, 265440, Note_on_c, 9, 53, 95
6, 265920, Note_off_c, 9, 53, 95
6, 265920, Note_on_c, 9, 53, 111
6, 265920, Note_on_c, 9, 40, 111
6, 266400, Note_off_c, 9, 53, 111
6, 266400, Note_off_c, 9, 40, 111
6, 266400, Note_on_c, 9, 53, 95
6, 266560, Note_off_c, 9, 53, 95
6, 266720, Note_on_c, 9, 40, 95
6, 266880, Note_off_c, 9, 40, 95
6, 266880, Note_on_c, 9, 45, 111
6, 267040, Note_off_c, 9, 45, 111
6, 267040, Note_on_c, 9, 40, 95
6, 267200, Note_off_c, 9, 40, 95
6, 267200, Note_on_c, 9, 36, 111
6, 267360, Note_off_c, 9, 36, 111
6, 267360, Note_on_c, 9, 45, 111
6, 267520, Note_off_c, 9, 45, 111
6, 267520, Note_on_c, 9, 40, 95
6, 267680, Note_off_c, 9, 40, 95
6, 267680, Note_on_c, 9, 36, 111
6, 267840, Note_off_c, 9, 36, 111
6, 267840, Note_on_c, 9, 45, 111
6, 268080, Note_off_c, 9, 45, 111
6, 268080, Note_on_c, 9, 53, 111
6, 268080, Note_on_c, 9, 36, 111
6, 268560, Note_off_c, 9, 53, 111
6, 268560, Note_off_c, 9, 36, 111
6, 268560, Note_on_c, 9, 40, 95
6, 268800, Note_off_c, 9, 40, 95
6, 268800, Note_on_c, 9, 53, 95
6, 268800, Note_on_c, 9, 36, 95
6, 269280, Note_off_c, 9, 53, 95
6, 269280, Note_off_c, 9, 36, 95
6, 269280, Note_on_c, 9, 53, 95
6, 269760, Note_off_c, 9, 53, 95
6, 269760, Note_on_c, 9, 53, 111
6, 269760, Note_on_c, 9, 40, 111
6, 270240, Note_off_c, 9, 53, 111
6, 270240, Note_off_c, 9, 40, 111
6, 270240, Note_on_c, 9, 53, 95
6, 270480, Note_off_c, 9, 53, 95
6, 270480, Note_on_c, 9, 40, 63
6, 270720, Note_off_c, 9, 40, 63
6, 270720, Note_on_c, 9, 47, 111
6, 270840, Note_off_c, 9, 47, 111
6, 270840, Note_on_c, 9, 40, 79
6, 270960, Note_off_c, 9, 40, 79
6, 270960, Note_on_c, 9, 40, 95
6, 271080, Note_off_c, 9, 40, 95
6, 271080, Note_on_c, 9, 40, 95
6, 271200, Note_off_c, 9, 40, 95
6, 271200, Note_on_c, 9, 40, 111
6, 271320, Note_off_c, 9, 40, 111
6, 271320, Note_on_c, 9, 40, 95
6, 271440, Note_off_c, 9, 40, 95
6, 271440, Note_on_c, 9, 45, 79
6, 271560, Note_off_c, 9, 45, 79
6, 271560, Note_on_c, 9, 45, 95
6, 271680, Note_off_c, 9, 45, 95
6, 271680, Note_on_c, 9, 45, 111
6, 271920, Note_off_c, 9, 45, 111
6, 271920, Note_on_c, 9, 53, 111
6, 271920, Note_on_c, 9, 36, 111
6, 272400, Note_off_c, 9, 53, 111
6, 272400, Note_off_c, 9, 36, 111
6, 272400, Note_on_c, 9, 40, 95
6, 272640, Note_off_c, 9, 40, 95
6, 272640, Note_on_c, 9, 53, 95
6, 272640, Note_on_c, 9, 36, 95
6, 273120, Note_off_c, 9, 53, 95
6, 273120, Note_off_c, 9, 36, 95
6, 273120, Note_on_c, 9, 53, 95
6, 273120, Note_on_c, 9, 40, 95
6, 273600, Note_off_c, 9, 53, 95
6, 273600, Note_off_c, 9, 40, 95
6, 273600, Note_on_c, 9, 53, 111
6, 273600, Note_on_c, 9, 40, 111
6, 274080, Note_off_c, 9, 53, 111
6, 274080, Note_off_c, 9, 40, 111
6, 274080, Note_on_c, 9, 53, 95
6, 274320, Note_off_c, 9, 53, 95
6, 274320, Note_on_c, 9, 40, 63
6, 274560, Note_off_c, 9, 40, 63
6, 274560, Note_on_c, 9, 47, 111
6, 274680, Note_off_c, 9, 47, 111
6, 274680, Note_on_c, 9, 40, 79
6, 274800, Note_off_c, 9, 40, 79
6, 274800, Note_on_c, 9, 40, 95
6, 274920, Note_off_c, 9, 40, 95
6, 274920, Note_on_c, 9, 40, 95
6, 275040, Note_off_c, 9, 40, 95
6, 275040, Note_on_c, 9, 45, 79
6, 275160, Note_off_c, 9, 45, 79
6, 275160, Note_on_c, 9, 45, 95
6, 275280, Note_off_c, 9, 45, 95
6, 275280, Note_on_c, 9, 45, 95
6, 275400, Note_off_c, 9, 45, 95
6, 275400, Note_on_c, 9, 45, 95
6, 275520, Note_off_c, 9, 45, 95
6, 275520, Note_on_c, 9, 45, 111
6, 275760, Note_off_c, 9, 45, 111
6, 275760, Note_on_c, 9, 53, 111
6, 275760, Note_on_c, 9, 36, 111
6, 276240, Note_off_c, 9, 53, 111
6, 276240, Note_off_c, 9, 36, 111
6, 276240, Note_on_c, 9, 40, 95
6, 276480, Note_off_c, 9, 40, 95
6, 276480, End_track
0, 0, End_of_file
