0, 0, Header, 1, 13, 480
1, 0, Start_track
1, 0, Title_t, "lonesomeblues"
1, 0, SMPTE_offset, 0, 0, 0, 0, 0
1, 0, Tempo, 545454
1, 0, Time_signature, 4, 2, 24, 8
1, 0, Key_signature, 0, "major"
1, 0, End_track
2, 0, Start_track
2, 0, Title_t, "Trombone"
2, 0, MIDI_port, 0
2, 0, Channel_prefix, 0
2, 0, Control_c, 0, 7, 127
2, 0, Control_c, 0, 10, 88
2, 0, Program_c, 0, 57
2, 0, Control_c, 0, 121, 0
2, 40, Control_c, 0, 123, 0
2, 80, Control_c, 0, 93, 65
2, 120, Control_c, 0, 91, 65
2, 160, Control_c, 0, 64, 0
2, 3360, Note_on_c, 0, 67, 110
2, 3616, Note_off_c, 0, 67, 64
2, 3680, Note_on_c, 0, 67, 110
2, 3808, Note_off_c, 0, 67, 64
2, 3840, Note_on_c, 0, 64, 108
2, 3840, Note_on_c, 0, 67, 95
2, 4224, Note_off_c, 0, 67, 64
2, 4224, Note_off_c, 0, 64, 64
2, 4320, Note_on_c, 0, 67, 112
2, 4576, Note_off_c, 0, 67, 64
2, 4640, Note_on_c, 0, 67, 112
2, 4768, Note_off_c, 0, 67, 64
2, 4800, Note_on_c, 0, 67, 106
2, 5056, Note_off_c, 0, 67, 64
2, 5120, Note_on_c, 0, 60, 123
2, 5504, Note_off_c, 0, 60, 64
2, 5600, Note_on_c, 0, 64, 104
2, 5728, Note_off_c, 0, 64, 64
2, 5760, Note_on_c, 0, 67, 100
2, 6144, Note_off_c, 0, 67, 64
2, 6240, Note_on_c, 0, 67, 112
2, 6624, Note_off_c, 0, 67, 64
2, 6720, Note_on_c, 0, 67, 110
2, 6976, Note_off_c, 0, 67, 64
2, 7040, Note_on_c, 0, 65, 109
2, 7168, Note_off_c, 0, 65, 64
2, 7200, Note_on_c, 0, 64, 110
2, 7584, Note_off_c, 0, 64, 64
2, 7680, Note_on_c, 0, 60, 110
2, 8448, Note_off_c, 0, 60, 64
2, 11040, Note_on_c, 0, 67, 104
2, 11296, Note_off_c, 0, 67, 64
2, 11360, Note_on_c, 0, 67, 110
2, 11488, Note_off_c, 0, 67, 64
2, 11520, Note_on_c, 0, 67, 103
2, 11904, Note_off_c, 0, 67, 64
2, 12000, Note_on_c, 0, 67, 110
2, 12256, Note_off_c, 0, 67, 64
2, 12320, Note_on_c, 0, 67, 109
2, 12448, Note_off_c, 0, 67, 64
2, 12480, Note_on_c, 0, 67, 112
2, 12736, Note_off_c, 0, 67, 64
2, 12800, Note_on_c, 0, 60, 110
2, 13184, Note_off_c, 0, 60, 64
2, 13280, Note_on_c, 0, 67, 102
2, 13408, Note_off_c, 0, 67, 64
2, 13440, Note_on_c, 0, 67, 116
2, 13696, Note_off_c, 0, 67, 64
2, 13760, Note_on_c, 0, 67, 107
2, 13888, Note_off_c, 0, 67, 64
2, 13920, Note_on_c, 0, 67, 109
2, 14176, Note_off_c, 0, 67, 64
2, 14240, Note_on_c, 0, 67, 113
2, 14624, Note_off_c, 0, 67, 64
2, 14720, Note_on_c, 0, 65, 105
2, 14848, Note_off_c, 0, 65, 64
2, 14880, Note_on_c, 0, 63, 114
2, 15264, Note_off_c, 0, 63, 64
2, 15360, Note_on_c, 0, 64, 110
2, 15616, Note_off_c, 0, 64, 64
2, 15680, Note_on_c, 0, 72, 110
2, 16064, Note_off_c, 0, 72, 64
2, 16160, Note_on_c, 0, 67, 107
2, 16544, Note_off_c, 0, 67, 64
2, 16640, Note_on_c, 0, 72, 111
2, 16768, Note_off_c, 0, 72, 64
2, 16800, Note_on_c, 0, 64, 124
2, 17184, Note_off_c, 0, 64, 64
2, 17280, Note_on_c, 0, 60, 109
2, 17664, Note_off_c, 0, 60, 64
2, 17760, Control_c, 0, 86, 37
2, 18240, Control_c, 0, 86, 37
2, 18560, Note_on_c, 0, 67, 115
2, 18688, Note_off_c, 0, 67, 64
2, 18720, Note_on_c, 0, 69, 117
2, 18976, Note_off_c, 0, 69, 64
2, 19040, Note_on_c, 0, 67, 101
2, 19168, Note_off_c, 0, 67, 64
2, 19200, Note_on_c, 0, 70, 111
2, 19456, Note_off_c, 0, 70, 64
2, 19520, Note_on_c, 0, 70, 112
2, 19904, Note_off_c, 0, 70, 64
2, 20000, Note_on_c, 0, 67, 115
2, 20128, Note_off_c, 0, 67, 64
2, 20160, Note_on_c, 0, 69, 123
2, 20416, Note_off_c, 0, 69, 64
2, 20480, Note_on_c, 0, 67, 96
2, 20608, Note_off_c, 0, 67, 64
2, 20640, Note_on_c, 0, 64, 113
2, 20896, Note_off_c, 0, 64, 64
2, 20960, Note_on_c, 0, 65, 114
2, 21088, Note_off_c, 0, 65, 64
2, 21120, Note_on_c, 0, 67, 103
2, 21376, Note_off_c, 0, 67, 64
2, 21440, Note_on_c, 0, 67, 99
2, 21824, Note_off_c, 0, 67, 64
2, 21920, Note_on_c, 0, 67, 101
2, 22304, Note_off_c, 0, 67, 64
2, 22400, Note_on_c, 0, 65, 116
2, 22528, Note_off_c, 0, 65, 64
2, 22560, Note_on_c, 0, 63, 120
2, 22944, Note_off_c, 0, 63, 64
2, 23040, Note_on_c, 0, 60, 110
2, 23980, Note_off_c, 0, 60, 64
2, 24000, Control_c, 0, 86, 37
2, 26720, Note_on_c, 0, 55, 103
2, 26848, Note_off_c, 0, 55, 64
2, 26880, Note_on_c, 0, 60, 109
2, 27264, Note_off_c, 0, 60, 64
2, 27360, Note_on_c, 0, 60, 117
2, 27616, Note_off_c, 0, 60, 64
2, 27680, Note_on_c, 0, 60, 96
2, 27808, Note_off_c, 0, 60, 64
2, 27840, Note_on_c, 0, 60, 116
2, 28096, Note_off_c, 0, 60, 64
2, 28160, Note_on_c, 0, 64, 112
2, 28544, Note_off_c, 0, 64, 64
2, 28640, Note_on_c, 0, 55, 111
2, 28768, Note_off_c, 0, 55, 64
2, 28800, Note_on_c, 0, 60, 110
2, 29056, Note_off_c, 0, 60, 64
2, 29120, Note_on_c, 0, 60, 113
2, 29248, Note_off_c, 0, 60, 64
2, 29280, Note_on_c, 0, 60, 110
2, 29664, Note_off_c, 0, 60, 64
2, 29760, Note_on_c, 0, 64, 111
2, 30400, Note_off_c, 0, 64, 64
2, 30560, Note_on_c, 0, 60, 109
2, 30688, Note_off_c, 0, 60, 64
2, 30720, Note_on_c, 0, 64, 116
2, 30976, Note_off_c, 0, 64, 64
2, 31040, Note_on_c, 0, 67, 100
2, 31168, Note_off_c, 0, 67, 64
2, 31200, Note_on_c, 0, 67, 102
2, 31456, Note_off_c, 0, 67, 64
2, 31520, Note_on_c, 0, 67, 112
2, 31648, Note_off_c, 0, 67, 64
2, 31680, Note_on_c, 0, 67, 110
2, 31936, Note_off_c, 0, 67, 64
2, 32000, Note_on_c, 0, 67, 112
2, 32128, Note_off_c, 0, 67, 64
2, 32160, Note_on_c, 0, 69, 105
2, 32416, Note_off_c, 0, 69, 64
2, 32480, Note_on_c, 0, 67, 110
2, 32608, Note_off_c, 0, 67, 64
2, 32640, Note_on_c, 0, 70, 109
2, 33280, Note_off_c, 0, 70, 64
2, 33440, Note_on_c, 0, 67, 121
2, 33568, Note_off_c, 0, 67, 64
2, 33600, Note_on_c, 0, 64, 109
2, 34240, Note_off_c, 0, 64, 64
2, 34400, Note_on_c, 0, 67, 119
2, 34528, Note_off_c, 0, 67, 64
2, 34560, Note_on_c, 0, 63, 97
2, 34560, Note_on_c, 0, 67, 106
2, 34944, Note_off_c, 0, 67, 64
2, 34944, Note_off_c, 0, 63, 64
2, 35040, Note_on_c, 0, 67, 110
2, 35296, Note_off_c, 0, 67, 64
2, 35360, Note_on_c, 0, 67, 110
2, 35488, Note_off_c, 0, 67, 64
2, 35520, Note_on_c, 0, 67, 112
2, 35776, Note_off_c, 0, 67, 64
2, 35840, Note_on_c, 0, 60, 108
2, 36224, Note_off_c, 0, 60, 64
2, 36320, Note_on_c, 0, 67, 111
2, 36448, Note_off_c, 0, 67, 64
2, 36480, Note_on_c, 0, 67, 113
2, 36736, Note_off_c, 0, 67, 64
2, 36800, Note_on_c, 0, 67, 97
2, 36928, Note_off_c, 0, 67, 64
2, 36960, Note_on_c, 0, 67, 108
2, 37216, Note_off_c, 0, 67, 64
2, 37280, Note_on_c, 0, 67, 96
2, 37792, Note_off_c, 0, 67, 64
2, 37920, Note_on_c, 0, 64, 122
2, 38176, Note_off_c, 0, 64, 64
2, 38240, Note_on_c, 0, 65, 115
2, 38368, Note_off_c, 0, 65, 64
2, 38400, Note_on_c, 0, 67, 108
2, 39040, Note_off_c, 0, 67, 64
2, 39200, Note_on_c, 0, 67, 110
2, 39328, Note_off_c, 0, 67, 64
2, 39360, Note_on_c, 0, 67, 110
2, 39616, Note_off_c, 0, 67, 64
2, 39680, Note_on_c, 0, 60, 106
2, 39808, Note_off_c, 0, 60, 64
2, 39840, Note_on_c, 0, 64, 106
2, 40096, Note_off_c, 0, 64, 64
2, 40160, Note_on_c, 0, 64, 112
2, 40288, Note_off_c, 0, 64, 64
2, 40320, Note_on_c, 0, 67, 111
2, 40576, Note_off_c, 0, 67, 64
2, 40640, Note_on_c, 0, 65, 110
2, 40768, Note_off_c, 0, 65, 64
2, 40800, Note_on_c, 0, 63, 104
2, 41184, Note_off_c, 0, 63, 64
2, 41280, Note_on_c, 0, 60, 109
2, 41664, Note_off_c, 0, 60, 64
2, 41760, Note_on_c, 0, 64, 112
2, 42016, Note_off_c, 0, 64, 64
2, 42080, Note_on_c, 0, 65, 105
2, 42208, Note_off_c, 0, 65, 64
2, 42240, Note_on_c, 0, 67, 114
2, 42496, Note_off_c, 0, 67, 64
2, 42560, Note_on_c, 0, 76, 113
2, 42944, Note_off_c, 0, 76, 64
2, 43040, Note_on_c, 0, 67, 111
2, 43424, Note_off_c, 0, 67, 64
2, 43520, Note_on_c, 0, 76, 106
2, 43648, Note_off_c, 0, 76, 64
2, 43680, Note_on_c, 0, 67, 109
2, 44064, Note_off_c, 0, 67, 64
2, 44160, Note_on_c, 0, 69, 125
2, 44416, Note_off_c, 0, 69, 64
2, 44480, Note_on_c, 0, 77, 110
2, 44864, Note_off_c, 0, 77, 64
2, 44960, Note_on_c, 0, 69, 120
2, 45344, Note_off_c, 0, 69, 64
2, 45440, Note_on_c, 0, 77, 113
2, 45568, Note_off_c, 0, 77, 64
2, 45600, Note_on_c, 0, 69, 97
2, 45856, Note_off_c, 0, 69, 64
2, 45920, Note_on_c, 0, 68, 124
2, 46048, Note_off_c, 0, 68, 64
2, 46080, Note_on_c, 0, 67, 114
2, 46336, Note_off_c, 0, 67, 64
2, 46400, Note_on_c, 0, 76, 124
2, 46784, Note_off_c, 0, 76, 64
2, 46880, Note_on_c, 0, 67, 121
2, 47648, Note_off_c, 0, 67, 64
2, 47840, Note_on_c, 0, 64, 110
2, 47968, Note_off_c, 0, 64, 64
2, 48000, Note_on_c, 0, 65, 110
2, 48256, Note_off_c, 0, 65, 64
2, 48320, Note_on_c, 0, 74, 110
2, 48704, Note_off_c, 0, 74, 64
2, 48800, Note_on_c, 0, 67, 117
2, 49568, Note_off_c, 0, 67, 64
2, 49760, Note_on_c, 0, 63, 108
2, 49888, Note_off_c, 0, 63, 64
2, 49920, Note_on_c, 0, 64, 121
2, 50176, Note_off_c, 0, 64, 64
2, 50240, Note_on_c, 0, 72, 102
2, 50860, Note_off_c, 0, 72, 64
2, 50880, Control_c, 0, 86, 37
2, 53280, Note_on_c, 0, 67, 107
2, 53536, Note_off_c, 0, 67, 64
2, 53600, Note_on_c, 0, 67, 113
2, 53728, Note_off_c, 0, 67, 64
2, 53760, Note_on_c, 0, 64, 124
2, 53760, Note_on_c, 0, 67, 113
2, 54144, Note_off_c, 0, 67, 64
2, 54144, Note_off_c, 0, 64, 64
2, 54240, Note_on_c, 0, 67, 110
2, 54496, Note_off_c, 0, 67, 64
2, 54560, Note_on_c, 0, 67, 111
2, 54688, Note_off_c, 0, 67, 64
2, 54720, Note_on_c, 0, 67, 110
2, 54976, Note_off_c, 0, 67, 64
2, 55040, Note_on_c, 0, 60, 110
2, 55424, Note_off_c, 0, 60, 64
2, 55520, Note_on_c, 0, 64, 111
2, 55648, Note_off_c, 0, 64, 64
2, 55680, Note_on_c, 0, 67, 98
2, 56064, Note_off_c, 0, 67, 64
2, 56160, Note_on_c, 0, 67, 114
2, 56544, Note_off_c, 0, 67, 64
2, 56640, Note_on_c, 0, 67, 110
2, 56896, Note_off_c, 0, 67, 64
2, 56960, Note_on_c, 0, 65, 109
2, 57088, Note_off_c, 0, 65, 64
2, 57120, Note_on_c, 0, 64, 98
2, 57504, Note_off_c, 0, 64, 64
2, 57600, Note_on_c, 0, 60, 110
2, 58368, Note_off_c, 0, 60, 64
2, 60960, Note_on_c, 0, 67, 104
2, 61216, Note_off_c, 0, 67, 64
2, 61280, Note_on_c, 0, 67, 99
2, 61408, Note_off_c, 0, 67, 64
2, 61440, Note_on_c, 0, 67, 121
2, 61824, Note_off_c, 0, 67, 64
2, 61920, Note_on_c, 0, 67, 103
2, 62176, Note_off_c, 0, 67, 64
2, 62240, Note_on_c, 0, 67, 121
2, 62368, Note_off_c, 0, 67, 64
2, 62400, Note_on_c, 0, 67, 124
2, 62656, Note_off_c, 0, 67, 64
2, 62720, Note_on_c, 0, 60, 106
2, 63104, Note_off_c, 0, 60, 64
2, 63200, Note_on_c, 0, 67, 97
2, 63328, Note_off_c, 0, 67, 64
2, 63360, Note_on_c, 0, 67, 101
2, 63616, Note_off_c, 0, 67, 64
2, 63680, Note_on_c, 0, 67, 101
2, 63808, Note_off_c, 0, 67, 64
2, 63840, Note_on_c, 0, 67, 112
2, 64096, Note_off_c, 0, 67, 64
2, 64160, Note_on_c, 0, 67, 101
2, 64544, Note_off_c, 0, 67, 64
2, 64640, Note_on_c, 0, 65, 110
2, 64768, Note_off_c, 0, 65, 64
2, 64800, Note_on_c, 0, 63, 100
2, 65184, Note_off_c, 0, 63, 64
2, 65280, Note_on_c, 0, 64, 100
2, 65536, Note_off_c, 0, 64, 64
2, 65600, Note_on_c, 0, 72, 106
2, 65984, Note_off_c, 0, 72, 64
2, 66080, Note_on_c, 0, 67, 109
2, 66464, Note_off_c, 0, 67, 64
2, 66560, Note_on_c, 0, 72, 100
2, 66688, Note_off_c, 0, 72, 64
2, 66720, Note_on_c, 0, 64, 113
2, 67104, Note_off_c, 0, 64, 64
2, 67200, Note_on_c, 0, 60, 108
2, 67584, Note_off_c, 0, 60, 64
2, 67680, Control_c, 0, 86, 37
2, 68160, Control_c, 0, 86, 37
2, 68480, Note_on_c, 0, 67, 111
2, 68608, Note_off_c, 0, 67, 64
2, 68640, Note_on_c, 0, 69, 124
2, 68896, Note_off_c, 0, 69, 64
2, 68960, Note_on_c, 0, 67, 108
2, 69088, Note_off_c, 0, 67, 64
2, 69120, Note_on_c, 0, 70, 120
2, 69376, Note_off_c, 0, 70, 64
2, 69440, Note_on_c, 0, 70, 105
2, 69824, Note_off_c, 0, 70, 64
2, 69920, Note_on_c, 0, 67, 110
2, 70048, Note_off_c, 0, 67, 64
2, 70080, Note_on_c, 0, 69, 110
2, 70336, Note_off_c, 0, 69, 64
2, 70400, Note_on_c, 0, 67, 117
2, 70528, Note_off_c, 0, 67, 64
2, 70560, Note_on_c, 0, 64, 99
2, 70816, Note_off_c, 0, 64, 64
2, 70880, Note_on_c, 0, 65, 122
2, 71008, Note_off_c, 0, 65, 64
2, 71040, Note_on_c, 0, 67, 112
2, 71296, Note_off_c, 0, 67, 64
2, 71360, Note_on_c, 0, 67, 118
2, 71744, Note_off_c, 0, 67, 64
2, 71840, Note_on_c, 0, 67, 119
2, 72224, Note_off_c, 0, 67, 64
2, 72320, Note_on_c, 0, 65, 108
2, 72448, Note_off_c, 0, 65, 64
2, 72480, Note_on_c, 0, 63, 114
2, 72864, Note_off_c, 0, 63, 64
2, 72960, Note_on_c, 0, 60, 116
2, 73900, Note_off_c, 0, 60, 64
2, 73920, Control_c, 0, 86, 37
2, 76640, Note_on_c, 0, 55, 110
2, 76768, Note_off_c, 0, 55, 64
2, 76800, Note_on_c, 0, 60, 116
2, 77184, Note_off_c, 0, 60, 64
2, 77280, Note_on_c, 0, 60, 113
2, 77536, Note_off_c, 0, 60, 64
2, 77600, Note_on_c, 0, 60, 121
2, 77728, Note_off_c, 0, 60, 64
2, 77760, Note_on_c, 0, 60, 110
2, 78016, Note_off_c, 0, 60, 64
2, 78080, Note_on_c, 0, 64, 120
2, 78464, Note_off_c, 0, 64, 64
2, 78560, Note_on_c, 0, 55, 121
2, 78688, Note_off_c, 0, 55, 64
2, 78720, Note_on_c, 0, 60, 96
2, 78976, Note_off_c, 0, 60, 64
2, 79040, Note_on_c, 0, 60, 110
2, 79168, Note_off_c, 0, 60, 64
2, 79200, Note_on_c, 0, 60, 110
2, 79584, Note_off_c, 0, 60, 64
2, 79680, Note_on_c, 0, 64, 98
2, 80320, Note_off_c, 0, 64, 64
2, 80480, Note_on_c, 0, 60, 110
2, 80608, Note_off_c, 0, 60, 64
2, 80640, Note_on_c, 0, 64, 118
2, 80896, Note_off_c, 0, 64, 64
2, 80960, Note_on_c, 0, 67, 110
2, 81088, Note_off_c, 0, 67, 64
2, 81120, Note_on_c, 0, 67, 110
2, 81376, Note_off_c, 0, 67, 64
2, 81440, Note_on_c, 0, 67, 121
2, 81568, Note_off_c, 0, 67, 64
2, 81600, Note_on_c, 0, 67, 111
2, 81856, Note_off_c, 0, 67, 64
2, 81920, Note_on_c, 0, 67, 98
2, 82048, Note_off_c, 0, 67, 64
2, 82080, Note_on_c, 0, 69, 110
2, 82336, Note_off_c, 0, 69, 64
2, 82400, Note_on_c, 0, 67, 111
2, 82528, Note_off_c, 0, 67, 64
2, 82560, Note_on_c, 0, 70, 111
2, 83200, Note_off_c, 0, 70, 64
2, 83360, Note_on_c, 0, 67, 119
2, 83488, Note_off_c, 0, 67, 64
2, 83520, Note_on_c, 0, 64, 118
2, 84160, Note_off_c, 0, 64, 64
2, 84320, Note_on_c, 0, 67, 112
2, 84448, Note_off_c, 0, 67, 64
2, 84480, Note_on_c, 0, 63, 117
2, 84480, Note_on_c, 0, 67, 107
2, 84864, Note_off_c, 0, 67, 64
2, 84864, Note_off_c, 0, 63, 64
2, 84960, Note_on_c, 0, 67, 100
2, 85216, Note_off_c, 0, 67, 64
2, 85280, Note_on_c, 0, 67, 99
2, 85408, Note_off_c, 0, 67, 64
2, 85440, Note_on_c, 0, 67, 110
2, 85696, Note_off_c, 0, 67, 64
2, 85760, Note_on_c, 0, 60, 99
2, 86144, Note_off_c, 0, 60, 64
2, 86240, Note_on_c, 0, 67, 110
2, 86368, Note_off_c, 0, 67, 64
2, 86400, Note_on_c, 0, 67, 105
2, 86656, Note_off_c, 0, 67, 64
2, 86720, Note_on_c, 0, 67, 100
2, 86848, Note_off_c, 0, 67, 64
2, 86880, Note_on_c, 0, 67, 122
2, 87136, Note_off_c, 0, 67, 64
2, 87200, Note_on_c, 0, 67, 110
2, 87712, Note_off_c, 0, 67, 64
2, 87840, Note_on_c, 0, 64, 111
2, 88096, Note_off_c, 0, 64, 64
2, 88160, Note_on_c, 0, 65, 105
2, 88288, Note_off_c, 0, 65, 64
2, 88320, Note_on_c, 0, 67, 111
2, 88960, Note_off_c, 0, 67, 64
2, 89120, Note_on_c, 0, 67, 108
2, 89248, Note_off_c, 0, 67, 64
2, 89280, Note_on_c, 0, 67, 110
2, 89536, Note_off_c, 0, 67, 64
2, 89600, Note_on_c, 0, 60, 123
2, 89728, Note_off_c, 0, 60, 64
2, 89760, Note_on_c, 0, 64, 124
2, 90016, Note_off_c, 0, 64, 64
2, 90080, Note_on_c, 0, 64, 110
2, 90208, Note_off_c, 0, 64, 64
2, 90240, Note_on_c, 0, 67, 101
2, 90496, Note_off_c, 0, 67, 64
2, 90560, Note_on_c, 0, 65, 111
2, 90688, Note_off_c, 0, 65, 64
2, 90720, Note_on_c, 0, 63, 109
2, 91104, Note_off_c, 0, 63, 64
2, 91200, Note_on_c, 0, 60, 110
2, 91584, Note_off_c, 0, 60, 64
2, 91680, Note_on_c, 0, 64, 117
2, 91936, Note_off_c, 0, 64, 64
2, 92000, Note_on_c, 0, 65, 105
2, 92128, Note_off_c, 0, 65, 64
2, 92160, Note_on_c, 0, 67, 112
2, 92416, Note_off_c, 0, 67, 64
2, 92480, Note_on_c, 0, 76, 114
2, 92864, Note_off_c, 0, 76, 64
2, 92960, Note_on_c, 0, 67, 104
2, 93344, Note_off_c, 0, 67, 64
2, 93440, Note_on_c, 0, 76, 111
2, 93568, Note_off_c, 0, 76, 64
2, 93600, Note_on_c, 0, 67, 110
2, 93984, Note_off_c, 0, 67, 64
2, 94080, Note_on_c, 0, 69, 108
2, 94336, Note_off_c, 0, 69, 64
2, 94400, Note_on_c, 0, 77, 112
2, 94784, Note_off_c, 0, 77, 64
2, 94880, Note_on_c, 0, 69, 119
2, 95264, Note_off_c, 0, 69, 64
2, 95360, Note_on_c, 0, 77, 103
2, 95488, Note_off_c, 0, 77, 64
2, 95520, Note_on_c, 0, 69, 109
2, 95776, Note_off_c, 0, 69, 64
2, 95840, Note_on_c, 0, 68, 110
2, 95968, Note_off_c, 0, 68, 64
2, 96000, Note_on_c, 0, 67, 103
2, 96256, Note_off_c, 0, 67, 64
2, 96320, Note_on_c, 0, 76, 101
2, 96704, Note_off_c, 0, 76, 64
2, 96800, Note_on_c, 0, 67, 119
2, 97568, Note_off_c, 0, 67, 64
2, 97760, Note_on_c, 0, 64, 125
2, 97888, Note_off_c, 0, 64, 64
2, 97920, Note_on_c, 0, 65, 102
2, 98176, Note_off_c, 0, 65, 64
2, 98240, Note_on_c, 0, 74, 119
2, 98624, Note_off_c, 0, 74, 64
2, 98720, Note_on_c, 0, 67, 100
2, 99488, Note_off_c, 0, 67, 64
2, 99680, Note_on_c, 0, 63, 105
2, 99808, Note_off_c, 0, 63, 64
2, 99840, Note_on_c, 0, 64, 119
2, 100096, Note_off_c, 0, 64, 64
2, 100160, Note_on_c, 0, 72, 100
2, 100780, Note_off_c, 0, 72, 64
2, 100800, Control_c, 0, 86, 37
2, 100800, End_track
3, 0, Start_track
3, 0, Title_t, "Sax"
3, 0, MIDI_port, 0
3, 0, Channel_prefix, 1
3, 0, Control_c, 1, 7, 94
3, 0, Control_c, 1, 10, 32
3, 0, Program_c, 1, 66
3, 0, Control_c, 1, 121, 0
3, 40, Control_c, 1, 123, 0
3, 120, Control_c, 1, 91, 65
3, 160, Control_c, 1, 64, 0
3, 3360, Note_on_c, 1, 64, 109
3, 3616, Note_off_c, 1, 64, 64
3, 3680, Note_on_c, 1, 64, 95
3, 3808, Note_off_c, 1, 64, 64
3, 3840, Note_on_c, 1, 60, 104
3, 3840, Note_on_c, 1, 64, 92
3, 4224, Note_off_c, 1, 64, 64
3, 4224, Note_off_c, 1, 60, 64
3, 4320, Note_on_c, 1, 64, 91
3, 4576, Note_off_c, 1, 64, 64
3, 4640, Note_on_c, 1, 64, 95
3, 4768, Note_off_c, 1, 64, 64
3, 4800, Note_on_c, 1, 64, 100
3, 5056, Note_off_c, 1, 64, 64
3, 5120, Note_on_c, 1, 55, 91
3, 5504, Note_off_c, 1, 55, 64
3, 5600, Note_on_c, 1, 60, 90
3, 5728, Note_off_c, 1, 60, 64
3, 5760, Note_on_c, 1, 64, 100
3, 6144, Note_off_c, 1, 64, 64
3, 6240, Note_on_c, 1, 64, 100
3, 6624, Note_off_c, 1, 64, 64
3, 6720, Note_on_c, 1, 64, 97
3, 6976, Note_off_c, 1, 64, 64
3, 7040, Note_on_c, 1, 62, 101
3, 7168, Note_off_c, 1, 62, 64
3, 7200, Note_on_c, 1, 60, 113
3, 7584, Note_off_c, 1, 60, 64
3, 7680, Note_on_c, 1, 55, 100
3, 8448, Note_off_c, 1, 55, 64
3, 11040, Note_on_c, 1, 64, 101
3, 11296, Note_off_c, 1, 64, 64
3, 11360, Note_on_c, 1, 64, 111
3, 11488, Note_off_c, 1, 64, 64
3, 11520, Note_on_c, 1, 63, 89
3, 11904, Note_off_c, 1, 63, 64
3, 12000, Note_on_c, 1, 63, 100
3, 12256, Note_off_c, 1, 63, 64
3, 12320, Note_on_c, 1, 63, 114
3, 12448, Note_off_c, 1, 63, 64
3, 12480, Note_on_c, 1, 63, 103
3, 12736, Note_off_c, 1, 63, 64
3, 12800, Note_on_c, 1, 57, 100
3, 13184, Note_off_c, 1, 57, 64
3, 13280, Note_on_c, 1, 63, 100
3, 13408, Note_off_c, 1, 63, 64
3, 13440, Note_on_c, 1, 63, 98
3, 13696, Note_off_c, 1, 63, 64
3, 13760, Note_on_c, 1, 63, 90
3, 13888, Note_off_c, 1, 63, 64
3, 13920, Note_on_c, 1, 63, 106
3, 14176, Note_off_c, 1, 63, 64
3, 14240, Note_on_c, 1, 63, 101
3, 14624, Note_off_c, 1, 63, 64
3, 14720, Note_on_c, 1, 60, 100
3, 14848, Note_off_c, 1, 60, 64
3, 14880, Note_on_c, 1, 60, 104
3, 15264, Note_off_c, 1, 60, 64
3, 15360, Note_on_c, 1, 60, 108
3, 15616, Note_off_c, 1, 60, 64
3, 15680, Note_on_c, 1, 67, 101
3, 16064, Note_off_c, 1, 67, 64
3, 16160, Note_on_c, 1, 64, 98
3, 16544, Note_off_c, 1, 64, 64
3, 16640, Note_on_c, 1, 67, 112
3, 16768, Note_off_c, 1, 67, 64
3, 16800, Note_on_c, 1, 60, 98
3, 17184, Note_off_c, 1, 60, 64
3, 17280, Note_on_c, 1, 55, 101
3, 17664, Note_off_c, 1, 55, 64
3, 18560, Note_on_c, 1, 64, 100
3, 18688, Note_off_c, 1, 64, 64
3, 18720, Note_on_c, 1, 65, 100
3, 18976, Note_off_c, 1, 65, 64
3, 19040, Note_on_c, 1, 64, 86
3, 19168, Note_off_c, 1, 64, 64
3, 19200, Note_on_c, 1, 67, 91
3, 19456, Note_off_c, 1, 67, 64
3, 19520, Note_on_c, 1, 67, 93
3, 19904, Note_off_c, 1, 67, 64
3, 20000, Note_on_c, 1, 62, 109
3, 20128, Note_off_c, 1, 62, 64
3, 20160, Note_on_c, 1, 66, 96
3, 20416, Note_off_c, 1, 66, 64
3, 20480, Note_on_c, 1, 62, 94
3, 20608, Note_off_c, 1, 62, 64
3, 20640, Note_on_c, 1, 60, 98
3, 20896, Note_off_c, 1, 60, 64
3, 20960, Note_on_c, 1, 62, 86
3, 21088, Note_off_c, 1, 62, 64
3, 21120, Note_on_c, 1, 62, 94
3, 21376, Note_off_c, 1, 62, 64
3, 21440, Note_on_c, 1, 62, 100
3, 21824, Note_off_c, 1, 62, 64
3, 21920, Note_on_c, 1, 62, 103
3, 22304, Note_off_c, 1, 62, 64
3, 22400, Note_on_c, 1, 62, 99
3, 22528, Note_off_c, 1, 62, 64
3, 22560, Note_on_c, 1, 59, 93
3, 22944, Note_off_c, 1, 59, 64
3, 23040, Note_on_c, 1, 55, 94
3, 23980, Note_off_c, 1, 55, 64
3, 26720, Note_on_c, 1, 52, 93
3, 26848, Note_off_c, 1, 52, 64
3, 26880, Note_on_c, 1, 55, 109
3, 27264, Note_off_c, 1, 55, 64
3, 27360, Note_on_c, 1, 55, 108
3, 27616, Note_off_c, 1, 55, 64
3, 27680, Note_on_c, 1, 55, 100
3, 27808, Note_off_c, 1, 55, 64
3, 27840, Note_on_c, 1, 55, 99
3, 28096, Note_off_c, 1, 55, 64
3, 28160, Note_on_c, 1, 60, 100
3, 28544, Note_off_c, 1, 60, 64
3, 28640, Note_on_c, 1, 52, 101
3, 28768, Note_off_c, 1, 52, 64
3, 28800, Note_on_c, 1, 55, 108
3, 29056, Note_off_c, 1, 55, 64
3, 29120, Note_on_c, 1, 55, 93
3, 29248, Note_off_c, 1, 55, 64
3, 29280, Note_on_c, 1, 55, 95
3, 29664, Note_off_c, 1, 55, 64
3, 29760, Note_on_c, 1, 60, 107
3, 30400, Note_off_c, 1, 60, 64
3, 30560, Note_on_c, 1, 55, 98
3, 30688, Note_off_c, 1, 55, 64
3, 30720, Note_on_c, 1, 60, 106
3, 30976, Note_off_c, 1, 60, 64
3, 31040, Note_on_c, 1, 64, 98
3, 31168, Note_off_c, 1, 64, 64
3, 31200, Note_on_c, 1, 64, 110
3, 31456, Note_off_c, 1, 64, 64
3, 31520, Note_on_c, 1, 64, 112
3, 31648, Note_off_c, 1, 64, 64
3, 31680, Note_on_c, 1, 64, 104
3, 31936, Note_off_c, 1, 64, 64
3, 32000, Note_on_c, 1, 64, 110
3, 32128, Note_off_c, 1, 64, 64
3, 32160, Note_on_c, 1, 65, 95
3, 32416, Note_off_c, 1, 65, 64
3, 32480, Note_on_c, 1, 64, 97
3, 32608, Note_off_c, 1, 64, 64
3, 32640, Note_on_c, 1, 67, 102
3, 33280, Note_off_c, 1, 67, 64
3, 33440, Note_on_c, 1, 64, 101
3, 33568, Note_off_c, 1, 64, 64
3, 33600, Note_on_c, 1, 58, 100
3, 34240, Note_off_c, 1, 58, 64
3, 34400, Note_on_c, 1, 64, 100
3, 34528, Note_off_c, 1, 64, 64
3, 34560, Note_on_c, 1, 60, 100
3, 34560, Note_on_c, 1, 63, 99
3, 34944, Note_off_c, 1, 63, 64
3, 34944, Note_off_c, 1, 60, 64
3, 35040, Note_on_c, 1, 63, 101
3, 35296, Note_off_c, 1, 63, 64
3, 35360, Note_on_c, 1, 63, 101
3, 35488, Note_off_c, 1, 63, 64
3, 35520, Note_on_c, 1, 63, 101
3, 35776, Note_off_c, 1, 63, 64
3, 35840, Note_on_c, 1, 57, 100
3, 36224, Note_off_c, 1, 57, 64
3, 36320, Note_on_c, 1, 63, 99
3, 36448, Note_off_c, 1, 63, 64
3, 36480, Note_on_c, 1, 63, 99
3, 36736, Note_off_c, 1, 63, 64
3, 36800, Note_on_c, 1, 63, 97
3, 36928, Note_off_c, 1, 63, 64
3, 36960, Note_on_c, 1, 63, 103
3, 37216, Note_off_c, 1, 63, 64
3, 37280, Note_on_c, 1, 63, 105
3, 37792, Note_off_c, 1, 63, 64
3, 37920, Note_on_c, 1, 60, 110
3, 38176, Note_off_c, 1, 60, 64
3, 38240, Note_on_c, 1, 60, 92
3, 38368, Note_off_c, 1, 60, 64
3, 38400, Note_on_c, 1, 64, 100
3, 39040, Note_off_c, 1, 64, 64
3, 39200, Note_on_c, 1, 64, 113
3, 39328, Note_off_c, 1, 64, 64
3, 39360, Note_on_c, 1, 64, 103
3, 39616, Note_off_c, 1, 64, 64
3, 39680, Note_on_c, 1, 55, 115
3, 39808, Note_off_c, 1, 55, 64
3, 39840, Note_on_c, 1, 60, 104
3, 40096, Note_off_c, 1, 60, 64
3, 40160, Note_on_c, 1, 60, 102
3, 40288, Note_off_c, 1, 60, 64
3, 40320, Note_on_c, 1, 62, 110
3, 40576, Note_off_c, 1, 62, 64
3, 40640, Note_on_c, 1, 62, 107
3, 40768, Note_off_c, 1, 62, 64
3, 40800, Note_on_c, 1, 59, 89
3, 41184, Note_off_c, 1, 59, 64
3, 41280, Note_on_c, 1, 55, 97
3, 41664, Note_off_c, 1, 55, 64
3, 41760, Note_on_c, 1, 60, 99
3, 42016, Note_off_c, 1, 60, 64
3, 42080, Note_on_c, 1, 62, 88
3, 42208, Note_off_c, 1, 62, 64
3, 42240, Note_on_c, 1, 64, 101
3, 42496, Note_off_c, 1, 64, 64
3, 42560, Note_on_c, 1, 72, 99
3, 42944, Note_off_c, 1, 72, 64
3, 43040, Note_on_c, 1, 64, 93
3, 43424, Note_off_c, 1, 64, 64
3, 43520, Note_on_c, 1, 72, 100
3, 43648, Note_off_c, 1, 72, 64
3, 43680, Note_on_c, 1, 64, 100
3, 44064, Note_off_c, 1, 64, 64
3, 44160, Note_on_c, 1, 65, 95
3, 44416, Note_off_c, 1, 65, 64
3, 44480, Note_on_c, 1, 72, 100
3, 44864, Note_off_c, 1, 72, 64
3, 44960, Note_on_c, 1, 65, 101
3, 45344, Note_off_c, 1, 65, 64
3, 45440, Note_on_c, 1, 72, 104
3, 45568, Note_off_c, 1, 72, 64
3, 45600, Note_on_c, 1, 65, 102
3, 45856, Note_off_c, 1, 65, 64
3, 45920, Note_on_c, 1, 64, 100
3, 46048, Note_off_c, 1, 64, 64
3, 46080, Note_on_c, 1, 64, 111
3, 46336, Note_off_c, 1, 64, 64
3, 46400, Note_on_c, 1, 72, 100
3, 46784, Note_off_c, 1, 72, 64
3, 46880, Note_on_c, 1, 64, 100
3, 47648, Note_off_c, 1, 64, 64
3, 47840, Note_on_c, 1, 60, 96
3, 47968, Note_off_c, 1, 60, 64
3, 48000, Note_on_c, 1, 62, 90
3, 48256, Note_off_c, 1, 62, 64
3, 48320, Note_on_c, 1, 71, 114
3, 48704, Note_off_c, 1, 71, 64
3, 48800, Note_on_c, 1, 62, 89
3, 49568, Note_off_c, 1, 62, 64
3, 49760, Note_on_c, 1, 59, 93
3, 49888, Note_off_c, 1, 59, 64
3, 49920, Note_on_c, 1, 60, 102
3, 50176, Note_off_c, 1, 60, 64
3, 50240, Note_on_c, 1, 67, 100
3, 50860, Note_off_c, 1, 67, 64
3, 53280, Note_on_c, 1, 64, 101
3, 53536, Note_off_c, 1, 64, 64
3, 53600, Note_on_c, 1, 64, 89
3, 53728, Note_off_c, 1, 64, 64
3, 53760, Note_on_c, 1, 60, 100
3, 53760, Note_on_c, 1, 64, 102
3, 54144, Note_off_c, 1, 64, 64
3, 54144, Note_off_c, 1, 60, 64
3, 54240, Note_on_c, 1, 64, 100
3, 54496, Note_off_c, 1, 64, 64
3, 54560, Note_on_c, 1, 64, 98
3, 54688, Note_off_c, 1, 64, 64
3, 54720, Note_on_c, 1, 64, 101
3, 54976, Note_off_c, 1, 64, 64
3, 55040, Note_on_c, 1, 55, 93
3, 55424, Note_off_c, 1, 55, 64
3, 55520, Note_on_c, 1, 60, 103
3, 55648, Note_off_c, 1, 60, 64
3, 55680, Note_on_c, 1, 64, 100
3, 56064, Note_off_c, 1, 64, 64
3, 56160, Note_on_c, 1, 64, 100
3, 56544, Note_off_c, 1, 64, 64
3, 56640, Note_on_c, 1, 64, 89
3, 56896, Note_off_c, 1, 64, 64
3, 56960, Note_on_c, 1, 62, 103
3, 57088, Note_off_c, 1, 62, 64
3, 57120, Note_on_c, 1, 60, 94
3, 57504, Note_off_c, 1, 60, 64
3, 57600, Note_on_c, 1, 55, 110
3, 58368, Note_off_c, 1, 55, 64
3, 60960, Note_on_c, 1, 64, 100
3, 61216, Note_off_c, 1, 64, 64
3, 61280, Note_on_c, 1, 64, 109
3, 61408, Note_off_c, 1, 64, 64
3, 61440, Note_on_c, 1, 63, 107
3, 61824, Note_off_c, 1, 63, 64
3, 61920, Note_on_c, 1, 63, 86
3, 62176, Note_off_c, 1, 63, 64
3, 62240, Note_on_c, 1, 63, 103
3, 62368, Note_off_c, 1, 63, 64
3, 62400, Note_on_c, 1, 63, 98
3, 62656, Note_off_c, 1, 63, 64
3, 62720, Note_on_c, 1, 57, 98
3, 63104, Note_off_c, 1, 57, 64
3, 63200, Note_on_c, 1, 63, 99
3, 63328, Note_off_c, 1, 63, 64
3, 63360, Note_on_c, 1, 63, 112
3, 63616, Note_off_c, 1, 63, 64
3, 63680, Note_on_c, 1, 63, 100
3, 63808, Note_off_c, 1, 63, 64
3, 63840, Note_on_c, 1, 63, 100
3, 64096, Note_off_c, 1, 63, 64
3, 64160, Note_on_c, 1, 63, 89
3, 64544, Note_off_c, 1, 63, 64
3, 64640, Note_on_c, 1, 60, 111
3, 64768, Note_off_c, 1, 60, 64
3, 64800, Note_on_c, 1, 60, 94
3, 65184, Note_off_c, 1, 60, 64
3, 65280, Note_on_c, 1, 60, 101
3, 65536, Note_off_c, 1, 60, 64
3, 65600, Note_on_c, 1, 67, 98
3, 65984, Note_off_c, 1, 67, 64
3, 66080, Note_on_c, 1, 64, 99
3, 66464, Note_off_c, 1, 64, 64
3, 66560, Note_on_c, 1, 67, 97
3, 66688, Note_off_c, 1, 67, 64
3, 66720, Note_on_c, 1, 60, 100
3, 67104, Note_off_c, 1, 60, 64
3, 67200, Note_on_c, 1, 55, 91
3, 67584, Note_off_c, 1, 55, 64
3, 68480, Note_on_c, 1, 64, 103
3, 68608, Note_off_c, 1, 64, 64
3, 68640, Note_on_c, 1, 65, 88
3, 68896, Note_off_c, 1, 65, 64
3, 68960, Note_on_c, 1, 64, 102
3, 69088, Note_off_c, 1, 64, 64
3, 69120, Note_on_c, 1, 67, 101
3, 69376, Note_off_c, 1, 67, 64
3, 69440, Note_on_c, 1, 67, 99
3, 69824, Note_off_c, 1, 67, 64
3, 69920, Note_on_c, 1, 62, 101
3, 70048, Note_off_c, 1, 62, 64
3, 70080, Note_on_c, 1, 66, 91
3, 70336, Note_off_c, 1, 66, 64
3, 70400, Note_on_c, 1, 62, 91
3, 70528, Note_off_c, 1, 62, 64
3, 70560, Note_on_c, 1, 60, 96
3, 70816, Note_off_c, 1, 60, 64
3, 70880, Note_on_c, 1, 62, 110
3, 71008, Note_off_c, 1, 62, 64
3, 71040, Note_on_c, 1, 62, 107
3, 71296, Note_off_c, 1, 62, 64
3, 71360, Note_on_c, 1, 62, 95
3, 71744, Note_off_c, 1, 62, 64
3, 71840, Note_on_c, 1, 62, 103
3, 72224, Note_off_c, 1, 62, 64
3, 72320, Note_on_c, 1, 62, 97
3, 72448, Note_off_c, 1, 62, 64
3, 72480, Note_on_c, 1, 59, 87
3, 72864, Note_off_c, 1, 59, 64
3, 72960, Note_on_c, 1, 55, 108
3, 73900, Note_off_c, 1, 55, 64
3, 76640, Note_on_c, 1, 52, 92
3, 76768, Note_off_c, 1, 52, 64
3, 76800, Note_on_c, 1, 55, 110
3, 77184, Note_off_c, 1, 55, 64
3, 77280, Note_on_c, 1, 55, 85
3, 77536, Note_off_c, 1, 55, 64
3, 77600, Note_on_c, 1, 55, 96
3, 77728, Note_off_c, 1, 55, 64
3, 77760, Note_on_c, 1, 55, 110
3, 78016, Note_off_c, 1, 55, 64
3, 78080, Note_on_c, 1, 60, 112
3, 78464, Note_off_c, 1, 60, 64
3, 78560, Note_on_c, 1, 52, 101
3, 78688, Note_off_c, 1, 52, 64
3, 78720, Note_on_c, 1, 55, 100
3, 78976, Note_off_c, 1, 55, 64
3, 79040, Note_on_c, 1, 55, 95
3, 79168, Note_off_c, 1, 55, 64
3, 79200, Note_on_c, 1, 55, 90
3, 79584, Note_off_c, 1, 55, 64
3, 79680, Note_on_c, 1, 60, 112
3, 80320, Note_off_c, 1, 60, 64
3, 80480, Note_on_c, 1, 55, 100
3, 80608, Note_off_c, 1, 55, 64
3, 80640, Note_on_c, 1, 60, 94
3, 80896, Note_off_c, 1, 60, 64
3, 80960, Note_on_c, 1, 64, 103
3, 81088, Note_off_c, 1, 64, 64
3, 81120, Note_on_c, 1, 64, 87
3, 81376, Note_off_c, 1, 64, 64
3, 81440, Note_on_c, 1, 64, 105
3, 81568, Note_off_c, 1, 64, 64
3, 81600, Note_on_c, 1, 64, 112
3, 81856, Note_off_c, 1, 64, 64
3, 81920, Note_on_c, 1, 64, 100
3, 82048, Note_off_c, 1, 64, 64
3, 82080, Note_on_c, 1, 65, 95
3, 82336, Note_off_c, 1, 65, 64
3, 82400, Note_on_c, 1, 64, 102
3, 82528, Note_off_c, 1, 64, 64
3, 82560, Note_on_c, 1, 67, 100
3, 83200, Note_off_c, 1, 67, 64
3, 83360, Note_on_c, 1, 64, 97
3, 83488, Note_off_c, 1, 64, 64
3, 83520, Note_on_c, 1, 58, 96
3, 84160, Note_off_c, 1, 58, 64
3, 84320, Note_on_c, 1, 64, 99
3, 84448, Note_off_c, 1, 64, 64
3, 84480, Note_on_c, 1, 60, 100
3, 84480, Note_on_c, 1, 63, 95
3, 84864, Note_off_c, 1, 63, 64
3, 84864, Note_off_c, 1, 60, 64
3, 84960, Note_on_c, 1, 63, 105
3, 85216, Note_off_c, 1, 63, 64
3, 85280, Note_on_c, 1, 63, 94
3, 85408, Note_off_c, 1, 63, 64
3, 85440, Note_on_c, 1, 63, 108
3, 85696, Note_off_c, 1, 63, 64
3, 85760, Note_on_c, 1, 57, 95
3, 86144, Note_off_c, 1, 57, 64
3, 86240, Note_on_c, 1, 63, 88
3, 86368, Note_off_c, 1, 63, 64
3, 86400, Note_on_c, 1, 63, 93
3, 86656, Note_off_c, 1, 63, 64
3, 86720, Note_on_c, 1, 63, 99
3, 86848, Note_off_c, 1, 63, 64
3, 86880, Note_on_c, 1, 63, 100
3, 87136, Note_off_c, 1, 63, 64
3, 87200, Note_on_c, 1, 63, 98
3, 87712, Note_off_c, 1, 63, 64
3, 87840, Note_on_c, 1, 60, 106
3, 88096, Note_off_c, 1, 60, 64
3, 88160, Note_on_c, 1, 60, 87
3, 88288, Note_off_c, 1, 60, 64
3, 88320, Note_on_c, 1, 64, 114
3, 88960, Note_off_c, 1, 64, 64
3, 89120, Note_on_c, 1, 64, 102
3, 89248, Note_off_c, 1, 64, 64
3, 89280, Note_on_c, 1, 64, 97
3, 89536, Note_off_c, 1, 64, 64
3, 89600, Note_on_c, 1, 55, 109
3, 89728, Note_off_c, 1, 55, 64
3, 89760, Note_on_c, 1, 60, 97
3, 90016, Note_off_c, 1, 60, 64
3, 90080, Note_on_c, 1, 60, 106
3, 90208, Note_off_c, 1, 60, 64
3, 90240, Note_on_c, 1, 62, 98
3, 90496, Note_off_c, 1, 62, 64
3, 90560, Note_on_c, 1, 62, 99
3, 90688, Note_off_c, 1, 62, 64
3, 90720, Note_on_c, 1, 59, 101
3, 91104, Note_off_c, 1, 59, 64
3, 91200, Note_on_c, 1, 55, 103
3, 91584, Note_off_c, 1, 55, 64
3, 91680, Note_on_c, 1, 60, 100
3, 91936, Note_off_c, 1, 60, 64
3, 92000, Note_on_c, 1, 62, 109
3, 92128, Note_off_c, 1, 62, 64
3, 92160, Note_on_c, 1, 64, 101
3, 92416, Note_off_c, 1, 64, 64
3, 92480, Note_on_c, 1, 72, 99
3, 92864, Note_off_c, 1, 72, 64
3, 92960, Note_on_c, 1, 64, 106
3, 93344, Note_off_c, 1, 64, 64
3, 93440, Note_on_c, 1, 72, 99
3, 93568, Note_off_c, 1, 72, 64
3, 93600, Note_on_c, 1, 64, 95
3, 93984, Note_off_c, 1, 64, 64
3, 94080, Note_on_c, 1, 65, 94
3, 94336, Note_off_c, 1, 65, 64
3, 94400, Note_on_c, 1, 72, 107
3, 94784, Note_off_c, 1, 72, 64
3, 94880, Note_on_c, 1, 65, 100
3, 95264, Note_off_c, 1, 65, 64
3, 95360, Note_on_c, 1, 72, 98
3, 95488, Note_off_c, 1, 72, 64
3, 95520, Note_on_c, 1, 65, 109
3, 95776, Note_off_c, 1, 65, 64
3, 95840, Note_on_c, 1, 64, 106
3, 95968, Note_off_c, 1, 64, 64
3, 96000, Note_on_c, 1, 64, 104
3, 96256, Note_off_c, 1, 64, 64
3, 96320, Note_on_c, 1, 72, 100
3, 96704, Note_off_c, 1, 72, 64
3, 96800, Note_on_c, 1, 64, 101
3, 97568, Note_off_c, 1, 64, 64
3, 97760, Note_on_c, 1, 60, 101
3, 97888, Note_off_c, 1, 60, 64
3, 97920, Note_on_c, 1, 62, 90
3, 98176, Note_off_c, 1, 62, 64
3, 98240, Note_on_c, 1, 71, 100
3, 98624, Note_off_c, 1, 71, 64
3, 98720, Note_on_c, 1, 62, 96
3, 99488, Note_off_c, 1, 62, 64
3, 99680, Note_on_c, 1, 59, 108
3, 99808, Note_off_c, 1, 59, 64
3, 99840, Note_on_c, 1, 60, 111
3, 100096, Note_off_c, 1, 60, 64
3, 100160, Note_on_c, 1, 67, 100
3, 100780, Note_off_c, 1, 67, 64
3, 100780, End_track
4, 0, Start_track
4, 0, Title_t, "Piano   "
4, 0, MIDI_port, 0
4, 0, Channel_prefix, 2
4, 0, Control_c, 2, 7, 97
4, 0, Control_c, 2, 10, 112
4, 0, Program_c, 2, 0
4, 0, Control_c, 2, 121, 0
4, 40, Control_c, 2, 123, 0
4, 80, Control_c, 2, 93, 85
4, 120, Control_c, 2, 91, 65
4, 160, Control_c, 2, 64, 0
4, 3840, Note_on_c, 2, 48, 66
4, 4320, Note_on_c, 2, 64, 57
4, 4320, Note_on_c, 2, 60, 64
4, 4320, Note_on_c, 2, 55, 43
4, 4716, Note_off_c, 2, 48, 64
4, 4800, Note_on_c, 2, 52, 68
4, 4924, Note_off_c, 2, 55, 64
4, 5016, Note_off_c, 2, 64, 64
4, 5040, Note_off_c, 2, 60, 64
4, 5120, Note_on_c, 2, 55, 50
4, 5280, Note_on_c, 2, 60, 75
4, 5600, Note_on_c, 2, 64, 73
4, 5672, Note_off_c, 2, 52, 64
4, 5760, Note_on_c, 2, 48, 46
4, 6088, Note_off_c, 2, 55, 64
4, 6108, Note_off_c, 2, 64, 64
4, 6116, Note_off_c, 2, 60, 64
4, 6240, Note_on_c, 2, 64, 64
4, 6240, Note_on_c, 2, 60, 64
4, 6240, Note_on_c, 2, 55, 42
4, 6604, Note_off_c, 2, 48, 64
4, 6720, Note_on_c, 2, 52, 65
4, 6844, Note_off_c, 2, 55, 64
4, 6960, Note_off_c, 2, 64, 64
4, 6960, Note_off_c, 2, 60, 64
4, 7040, Note_on_c, 2, 55, 30
4, 7200, Note_on_c, 2, 60, 75
4, 7200, Note_on_c, 2, 64, 49
4, 7428, Note_off_c, 2, 52, 64
4, 7620, Note_off_c, 2, 55, 64
4, 7620, Note_off_c, 2, 60, 64
4, 7620, Note_off_c, 2, 64, 64
4, 7680, Note_on_c, 2, 48, 48
4, 8160, Note_on_c, 2, 55, 51
4, 8160, Note_on_c, 2, 64, 62
4, 8160, Note_on_c, 2, 60, 66
4, 8608, Note_off_c, 2, 48, 64
4, 8640, Note_on_c, 2, 52, 18
4, 8776, Note_off_c, 2, 55, 64
4, 8880, Note_off_c, 2, 64, 64
4, 8880, Note_off_c, 2, 60, 64
4, 8960, Note_on_c, 2, 55, 62
4, 9120, Note_on_c, 2, 60, 70
4, 9440, Note_on_c, 2, 64, 63
4, 9516, Note_off_c, 2, 52, 64
4, 9600, Note_off_c, 2, 55, 64
4, 9600, Note_off_c, 2, 60, 64
4, 9600, Note_off_c, 2, 64, 64
4, 9600, Note_on_c, 2, 48, 66
4, 10080, Note_on_c, 2, 64, 57
4, 10080, Note_on_c, 2, 58, 64
4, 10080, Note_on_c, 2, 60, 56
4, 10080, Note_on_c, 2, 55, 43
4, 10476, Note_off_c, 2, 48, 64
4, 10560, Note_on_c, 2, 52, 68
4, 10684, Note_off_c, 2, 55, 64
4, 10776, Note_off_c, 2, 60, 64
4, 10800, Note_off_c, 2, 64, 64
4, 10800, Note_off_c, 2, 58, 64
4, 10880, Note_on_c, 2, 55, 50
4, 11040, Note_on_c, 2, 58, 75
4, 11360, Note_on_c, 2, 64, 73
4, 11360, Note_on_c, 2, 60, 67
4, 11432, Note_off_c, 2, 52, 64
4, 11520, Note_off_c, 2, 55, 64
4, 11520, Note_off_c, 2, 58, 64
4, 11520, Note_off_c, 2, 64, 64
4, 11520, Note_off_c, 2, 60, 64
4, 11560, Note_on_c, 2, 41, 53
4, 11848, Note_on_c, 2, 53, 43
4, 11984, Note_on_c, 2, 57, 69
4, 11996, Note_on_c, 2, 60, 52
4, 11996, Note_on_c, 2, 63, 57
4, 12204, Note_off_c, 2, 53, 64
4, 12320, Note_on_c, 2, 53, 57
4, 12496, Note_on_c, 2, 51, 65
4, 12516, Note_off_c, 2, 53, 64
4, 12724, Note_off_c, 2, 63, 64
4, 12744, Note_off_c, 2, 57, 64
4, 12744, Note_off_c, 2, 60, 64
4, 12808, Note_on_c, 2, 53, 37
4, 12952, Note_on_c, 2, 57, 73
4, 12976, Note_on_c, 2, 60, 63
4, 12976, Note_on_c, 2, 63, 67
4, 13140, Note_off_c, 2, 53, 64
4, 13184, Note_off_c, 2, 51, 64
4, 13276, Note_off_c, 2, 41, 64
4, 13276, Note_on_c, 2, 53, 49
4, 13452, Note_on_c, 2, 41, 61
4, 13548, Note_off_c, 2, 53, 64
4, 13736, Note_off_c, 2, 63, 64
4, 13756, Note_off_c, 2, 57, 64
4, 13776, Note_off_c, 2, 60, 64
4, 13788, Note_on_c, 2, 53, 46
4, 13924, Note_on_c, 2, 57, 65
4, 13924, Note_on_c, 2, 60, 39
4, 13932, Note_on_c, 2, 63, 60
4, 14112, Note_off_c, 2, 53, 64
4, 14244, Note_on_c, 2, 53, 44
4, 14400, Note_off_c, 2, 53, 64
4, 14412, Note_on_c, 2, 51, 54
4, 14672, Note_off_c, 2, 57, 64
4, 14704, Note_off_c, 2, 60, 64
4, 14724, Note_on_c, 2, 53, 39
4, 14744, Note_off_c, 2, 63, 64
4, 14872, Note_on_c, 2, 63, 48
4, 14880, Note_on_c, 2, 57, 77
4, 14892, Note_on_c, 2, 60, 53
4, 15048, Note_off_c, 2, 51, 64
4, 15164, Note_off_c, 2, 41, 64
4, 15360, Note_off_c, 2, 53, 64
4, 15360, Note_off_c, 2, 63, 64
4, 15360, Note_off_c, 2, 57, 64
4, 15360, Note_off_c, 2, 60, 64
4, 15400, Note_on_c, 2, 48, 53
4, 15688, Note_on_c, 2, 55, 43
4, 15824, Note_on_c, 2, 60, 69
4, 15836, Note_on_c, 2, 64, 52
4, 16044, Note_off_c, 2, 55, 64
4, 16160, Note_on_c, 2, 55, 57
4, 16336, Note_on_c, 2, 52, 65
4, 16356, Note_off_c, 2, 55, 64
4, 16564, Note_off_c, 2, 64, 64
4, 16584, Note_off_c, 2, 60, 64
4, 16648, Note_on_c, 2, 55, 37
4, 16792, Note_on_c, 2, 60, 73
4, 16816, Note_on_c, 2, 64, 63
4, 16980, Note_off_c, 2, 55, 64
4, 17024, Note_off_c, 2, 52, 64
4, 17116, Note_off_c, 2, 48, 64
4, 17116, Note_on_c, 2, 55, 49
4, 17292, Note_on_c, 2, 48, 61
4, 17388, Note_off_c, 2, 55, 64
4, 17576, Note_off_c, 2, 64, 64
4, 17596, Note_off_c, 2, 60, 64
4, 17628, Note_on_c, 2, 55, 46
4, 17764, Note_on_c, 2, 60, 65
4, 17764, Note_on_c, 2, 64, 39
4, 17952, Note_off_c, 2, 55, 64
4, 18084, Note_on_c, 2, 55, 44
4, 18240, Note_off_c, 2, 55, 64
4, 18252, Note_on_c, 2, 52, 54
4, 18512, Note_off_c, 2, 60, 64
4, 18544, Note_off_c, 2, 64, 64
4, 18564, Note_on_c, 2, 55, 39
4, 18712, Note_on_c, 2, 64, 48
4, 18720, Note_on_c, 2, 60, 77
4, 18888, Note_off_c, 2, 52, 64
4, 19004, Note_off_c, 2, 48, 64
4, 19200, Note_off_c, 2, 55, 64
4, 19200, Note_off_c, 2, 64, 64
4, 19200, Note_off_c, 2, 60, 64
4, 19200, Note_on_c, 2, 43, 66
4, 19680, Note_on_c, 2, 67, 57
4, 19680, Note_on_c, 2, 62, 64
4, 19680, Note_on_c, 2, 59, 43
4, 20076, Note_off_c, 2, 43, 64
4, 20160, Note_on_c, 2, 55, 68
4, 20284, Note_off_c, 2, 59, 64
4, 20376, Note_off_c, 2, 67, 64
4, 20400, Note_off_c, 2, 62, 64
4, 20480, Note_on_c, 2, 59, 50
4, 20640, Note_on_c, 2, 62, 75
4, 20960, Note_on_c, 2, 67, 73
4, 21032, Note_off_c, 2, 55, 64
4, 21120, Note_on_c, 2, 43, 46
4, 21448, Note_off_c, 2, 59, 64
4, 21468, Note_off_c, 2, 67, 64
4, 21476, Note_off_c, 2, 62, 64
4, 21600, Note_on_c, 2, 67, 64
4, 21600, Note_on_c, 2, 62, 64
4, 21600, Note_on_c, 2, 59, 42
4, 21964, Note_off_c, 2, 43, 64
4, 22080, Note_on_c, 2, 55, 65
4, 22204, Note_off_c, 2, 59, 64
4, 22320, Note_off_c, 2, 67, 64
4, 22320, Note_off_c, 2, 62, 64
4, 22400, Note_on_c, 2, 59, 30
4, 22560, Note_on_c, 2, 62, 75
4, 22560, Note_on_c, 2, 67, 49
4, 22788, Note_off_c, 2, 55, 64
4, 22980, Note_off_c, 2, 59, 64
4, 22980, Note_off_c, 2, 62, 64
4, 22980, Note_off_c, 2, 67, 64
4, 23080, Note_on_c, 2, 48, 53
4, 23368, Note_on_c, 2, 55, 43
4, 23504, Note_on_c, 2, 60, 69
4, 23516, Note_on_c, 2, 64, 52
4, 23724, Note_off_c, 2, 55, 64
4, 23840, Note_on_c, 2, 55, 57
4, 24016, Note_on_c, 2, 52, 65
4, 24036, Note_off_c, 2, 55, 64
4, 24244, Note_off_c, 2, 64, 64
4, 24264, Note_off_c, 2, 60, 64
4, 24328, Note_on_c, 2, 55, 37
4, 24472, Note_on_c, 2, 60, 73
4, 24496, Note_on_c, 2, 64, 63
4, 24660, Note_off_c, 2, 55, 64
4, 24704, Note_off_c, 2, 52, 64
4, 24796, Note_off_c, 2, 48, 64
4, 24796, Note_on_c, 2, 55, 49
4, 24972, Note_on_c, 2, 48, 61
4, 25068, Note_off_c, 2, 55, 64
4, 25256, Note_off_c, 2, 64, 64
4, 25276, Note_off_c, 2, 60, 64
4, 25308, Note_on_c, 2, 55, 46
4, 25444, Note_on_c, 2, 60, 65
4, 25444, Note_on_c, 2, 64, 39
4, 25632, Note_off_c, 2, 55, 64
4, 25764, Note_on_c, 2, 55, 44
4, 25920, Note_off_c, 2, 55, 64
4, 25932, Note_on_c, 2, 52, 54
4, 26192, Note_off_c, 2, 60, 64
4, 26224, Note_off_c, 2, 64, 64
4, 26244, Note_on_c, 2, 55, 39
4, 26392, Note_on_c, 2, 64, 48
4, 26400, Note_on_c, 2, 60, 77
4, 26568, Note_off_c, 2, 52, 64
4, 26684, Note_off_c, 2, 48, 64
4, 26880, Note_off_c, 2, 55, 64
4, 26880, Note_off_c, 2, 64, 64
4, 26880, Note_off_c, 2, 60, 64
4, 26920, Note_on_c, 2, 48, 53
4, 27208, Note_on_c, 2, 55, 43
4, 27344, Note_on_c, 2, 60, 69
4, 27356, Note_on_c, 2, 64, 52
4, 27564, Note_off_c, 2, 55, 64
4, 27680, Note_on_c, 2, 55, 57
4, 27856, Note_on_c, 2, 52, 65
4, 27876, Note_off_c, 2, 55, 64
4, 28084, Note_off_c, 2, 64, 64
4, 28104, Note_off_c, 2, 60, 64
4, 28168, Note_on_c, 2, 55, 37
4, 28312, Note_on_c, 2, 60, 73
4, 28336, Note_on_c, 2, 64, 63
4, 28500, Note_off_c, 2, 55, 64
4, 28544, Note_off_c, 2, 52, 64
4, 28636, Note_off_c, 2, 48, 64
4, 28636, Note_on_c, 2, 55, 49
4, 28812, Note_on_c, 2, 48, 61
4, 28908, Note_off_c, 2, 55, 64
4, 29096, Note_off_c, 2, 64, 64
4, 29116, Note_off_c, 2, 60, 64
4, 29148, Note_on_c, 2, 55, 46
4, 29284, Note_on_c, 2, 60, 65
4, 29284, Note_on_c, 2, 64, 39
4, 29472, Note_off_c, 2, 55, 64
4, 29604, Note_on_c, 2, 55, 44
4, 29760, Note_off_c, 2, 55, 64
4, 29772, Note_on_c, 2, 52, 54
4, 30032, Note_off_c, 2, 60, 64
4, 30064, Note_off_c, 2, 64, 64
4, 30084, Note_on_c, 2, 55, 39
4, 30232, Note_on_c, 2, 64, 48
4, 30240, Note_on_c, 2, 60, 77
4, 30408, Note_off_c, 2, 52, 64
4, 30524, Note_off_c, 2, 48, 64
4, 30720, Note_off_c, 2, 55, 64
4, 30720, Note_off_c, 2, 64, 64
4, 30720, Note_off_c, 2, 60, 64
4, 30720, Note_on_c, 2, 48, 48
4, 31200, Note_on_c, 2, 55, 51
4, 31200, Note_on_c, 2, 64, 62
4, 31200, Note_on_c, 2, 60, 66
4, 31648, Note_off_c, 2, 48, 64
4, 31680, Note_on_c, 2, 52, 18
4, 31816, Note_off_c, 2, 55, 64
4, 31920, Note_off_c, 2, 64, 64
4, 31920, Note_off_c, 2, 60, 64
4, 32000, Note_on_c, 2, 55, 62
4, 32160, Note_on_c, 2, 60, 70
4, 32480, Note_on_c, 2, 64, 63
4, 32556, Note_off_c, 2, 52, 64
4, 32640, Note_off_c, 2, 55, 64
4, 32640, Note_off_c, 2, 60, 64
4, 32640, Note_off_c, 2, 64, 64
4, 32640, Note_on_c, 2, 48, 66
4, 33120, Note_on_c, 2, 64, 57
4, 33120, Note_on_c, 2, 58, 64
4, 33120, Note_on_c, 2, 60, 56
4, 33120, Note_on_c, 2, 55, 43
4, 33516, Note_off_c, 2, 48, 64
4, 33600, Note_on_c, 2, 52, 68
4, 33724, Note_off_c, 2, 55, 64
4, 33816, Note_off_c, 2, 60, 64
4, 33840, Note_off_c, 2, 64, 64
4, 33840, Note_off_c, 2, 58, 64
4, 33920, Note_on_c, 2, 55, 50
4, 34080, Note_on_c, 2, 58, 75
4, 34400, Note_on_c, 2, 64, 73
4, 34400, Note_on_c, 2, 60, 67
4, 34472, Note_off_c, 2, 52, 64
4, 34560, Note_off_c, 2, 55, 64
4, 34560, Note_off_c, 2, 58, 64
4, 34560, Note_off_c, 2, 64, 64
4, 34560, Note_off_c, 2, 60, 64
4, 34560, Note_on_c, 2, 41, 66
4, 35040, Note_on_c, 2, 63, 57
4, 35040, Note_on_c, 2, 57, 64
4, 35040, Note_on_c, 2, 60, 56
4, 35040, Note_on_c, 2, 53, 43
4, 35436, Note_off_c, 2, 41, 64
4, 35520, Note_on_c, 2, 51, 68
4, 35644, Note_off_c, 2, 53, 64
4, 35736, Note_off_c, 2, 60, 64
4, 35760, Note_off_c, 2, 63, 64
4, 35760, Note_off_c, 2, 57, 64
4, 35840, Note_on_c, 2, 53, 50
4, 36000, Note_on_c, 2, 57, 75
4, 36320, Note_on_c, 2, 63, 73
4, 36320, Note_on_c, 2, 60, 67
4, 36392, Note_off_c, 2, 51, 64
4, 36480, Note_on_c, 2, 41, 46
4, 36808, Note_off_c, 2, 53, 64
4, 36828, Note_off_c, 2, 60, 64
4, 36836, Note_off_c, 2, 57, 64
4, 36852, Note_off_c, 2, 63, 64
4, 36960, Note_on_c, 2, 63, 64
4, 36960, Note_on_c, 2, 57, 64
4, 36960, Note_on_c, 2, 60, 52
4, 36960, Note_on_c, 2, 53, 42
4, 37324, Note_off_c, 2, 41, 64
4, 37440, Note_on_c, 2, 51, 65
4, 37564, Note_off_c, 2, 53, 64
4, 37680, Note_off_c, 2, 63, 64
4, 37680, Note_off_c, 2, 57, 64
4, 37680, Note_off_c, 2, 60, 64
4, 37760, Note_on_c, 2, 53, 30
4, 37920, Note_on_c, 2, 57, 75
4, 37920, Note_on_c, 2, 63, 49
4, 38080, Note_on_c, 2, 60, 12
4, 38148, Note_off_c, 2, 51, 64
4, 38340, Note_off_c, 2, 53, 64
4, 38340, Note_off_c, 2, 57, 64
4, 38340, Note_off_c, 2, 63, 64
4, 38340, Note_off_c, 2, 60, 64
4, 38400, Note_on_c, 2, 48, 59
4, 38880, Note_on_c, 2, 64, 65
4, 38880, Note_on_c, 2, 60, 65
4, 38880, Note_on_c, 2, 55, 45
4, 39324, Note_off_c, 2, 48, 64
4, 39360, Note_on_c, 2, 52, 49
4, 39496, Note_off_c, 2, 55, 64
4, 39620, Note_off_c, 2, 64, 64
4, 39640, Note_off_c, 2, 60, 64
4, 39680, Note_on_c, 2, 55, 27
4, 39840, Note_on_c, 2, 60, 68
4, 39840, Note_on_c, 2, 64, 56
4, 39984, Note_off_c, 2, 52, 64
4, 40108, Note_off_c, 2, 55, 64
4, 40124, Note_off_c, 2, 64, 64
4, 40144, Note_off_c, 2, 60, 64
4, 40320, Note_on_c, 2, 43, 66
4, 40800, Note_on_c, 2, 65, 57
4, 40800, Note_on_c, 2, 59, 64
4, 40800, Note_on_c, 2, 62, 56
4, 40800, Note_on_c, 2, 55, 43
4, 41196, Note_off_c, 2, 43, 64
4, 41280, Note_off_c, 2, 65, 64
4, 41280, Note_off_c, 2, 59, 64
4, 41280, Note_off_c, 2, 62, 64
4, 41280, Note_off_c, 2, 55, 64
4, 41280, Note_on_c, 2, 48, 48
4, 41760, Note_on_c, 2, 55, 51
4, 41760, Note_on_c, 2, 64, 62
4, 41760, Note_on_c, 2, 60, 66
4, 42208, Note_off_c, 2, 48, 64
4, 42240, Note_off_c, 2, 55, 64
4, 42240, Note_off_c, 2, 64, 64
4, 42240, Note_off_c, 2, 60, 64
4, 42280, Note_on_c, 2, 48, 53
4, 42568, Note_on_c, 2, 55, 43
4, 42704, Note_on_c, 2, 60, 69
4, 42716, Note_on_c, 2, 64, 52
4, 42924, Note_off_c, 2, 55, 64
4, 43040, Note_on_c, 2, 55, 57
4, 43216, Note_on_c, 2, 52, 65
4, 43236, Note_off_c, 2, 55, 64
4, 43444, Note_off_c, 2, 64, 64
4, 43464, Note_off_c, 2, 60, 64
4, 43528, Note_on_c, 2, 55, 37
4, 43672, Note_on_c, 2, 60, 73
4, 43696, Note_on_c, 2, 64, 63
4, 43860, Note_off_c, 2, 55, 64
4, 43904, Note_off_c, 2, 52, 64
4, 43996, Note_off_c, 2, 48, 64
4, 43996, Note_on_c, 2, 55, 49
4, 44160, Note_off_c, 2, 60, 64
4, 44160, Note_off_c, 2, 64, 64
4, 44160, Note_off_c, 2, 55, 64
4, 44200, Note_on_c, 2, 41, 53
4, 44488, Note_on_c, 2, 57, 43
4, 44624, Note_on_c, 2, 60, 69
4, 44636, Note_on_c, 2, 65, 52
4, 44844, Note_off_c, 2, 57, 64
4, 44960, Note_on_c, 2, 57, 57
4, 45136, Note_on_c, 2, 53, 65
4, 45156, Note_off_c, 2, 57, 64
4, 45364, Note_off_c, 2, 65, 64
4, 45384, Note_off_c, 2, 60, 64
4, 45448, Note_on_c, 2, 57, 37
4, 45592, Note_on_c, 2, 60, 73
4, 45616, Note_on_c, 2, 65, 63
4, 45780, Note_off_c, 2, 57, 64
4, 45824, Note_off_c, 2, 53, 64
4, 45916, Note_off_c, 2, 41, 64
4, 45916, Note_on_c, 2, 57, 49
4, 46080, Note_off_c, 2, 60, 64
4, 46080, Note_off_c, 2, 65, 64
4, 46080, Note_off_c, 2, 57, 64
4, 46080, Note_on_c, 2, 48, 66
4, 46560, Note_on_c, 2, 64, 57
4, 46560, Note_on_c, 2, 60, 64
4, 46560, Note_on_c, 2, 55, 43
4, 46956, Note_off_c, 2, 48, 64
4, 47040, Note_on_c, 2, 52, 68
4, 47164, Note_off_c, 2, 55, 64
4, 47256, Note_off_c, 2, 64, 64
4, 47280, Note_off_c, 2, 60, 64
4, 47360, Note_on_c, 2, 55, 50
4, 47520, Note_on_c, 2, 60, 75
4, 47840, Note_on_c, 2, 64, 73
4, 47912, Note_off_c, 2, 52, 64
4, 48000, Note_off_c, 2, 55, 64
4, 48000, Note_off_c, 2, 60, 64
4, 48000, Note_off_c, 2, 64, 64
4, 48000, Note_on_c, 2, 43, 59
4, 48480, Note_on_c, 2, 65, 65
4, 48480, Note_on_c, 2, 59, 65
4, 48480, Note_on_c, 2, 55, 45
4, 48924, Note_off_c, 2, 43, 64
4, 48960, Note_on_c, 2, 53, 49
4, 49096, Note_off_c, 2, 55, 64
4, 49220, Note_off_c, 2, 65, 64
4, 49240, Note_off_c, 2, 59, 64
4, 49280, Note_on_c, 2, 55, 27
4, 49440, Note_on_c, 2, 59, 68
4, 49440, Note_on_c, 2, 62, 56
4, 49440, Note_on_c, 2, 65, 62
4, 49584, Note_off_c, 2, 53, 64
4, 49708, Note_off_c, 2, 55, 64
4, 49724, Note_off_c, 2, 62, 64
4, 49744, Note_off_c, 2, 59, 64
4, 49744, Note_off_c, 2, 65, 64
4, 49920, Note_on_c, 2, 48, 48
4, 50400, Note_on_c, 2, 55, 51
4, 50400, Note_on_c, 2, 64, 62
4, 50400, Note_on_c, 2, 60, 66
4, 50848, Note_off_c, 2, 48, 64
4, 50880, Note_on_c, 2, 52, 18
4, 51016, Note_off_c, 2, 55, 64
4, 51120, Note_off_c, 2, 64, 64
4, 51120, Note_off_c, 2, 60, 64
4, 51200, Note_on_c, 2, 55, 62
4, 51360, Note_on_c, 2, 60, 70
4, 51680, Note_on_c, 2, 64, 63
4, 51756, Note_off_c, 2, 52, 64
4, 51840, Note_on_c, 2, 48, 44
4, 52180, Note_off_c, 2, 55, 64
4, 52180, Note_off_c, 2, 64, 64
4, 52212, Note_off_c, 2, 60, 64
4, 52320, Note_on_c, 2, 64, 56
4, 52320, Note_on_c, 2, 60, 75
4, 52320, Note_on_c, 2, 55, 48
4, 52728, Note_off_c, 2, 48, 64
4, 52800, Note_on_c, 2, 52, 65
4, 52956, Note_off_c, 2, 55, 64
4, 53028, Note_off_c, 2, 60, 64
4, 53068, Note_off_c, 2, 64, 64
4, 53280, Note_on_c, 2, 64, 36
4, 53280, Note_on_c, 2, 60, 57
4, 53280, Note_on_c, 2, 55, 63
4, 53540, Note_off_c, 2, 52, 64
4, 53688, Note_off_c, 2, 64, 64
4, 53688, Note_off_c, 2, 60, 64
4, 53696, Note_off_c, 2, 55, 64
4, 53760, Note_on_c, 2, 48, 66
4, 54240, Note_on_c, 2, 64, 57
4, 54240, Note_on_c, 2, 60, 64
4, 54240, Note_on_c, 2, 55, 43
4, 54636, Note_off_c, 2, 48, 64
4, 54720, Note_on_c, 2, 52, 68
4, 54844, Note_off_c, 2, 55, 64
4, 54936, Note_off_c, 2, 64, 64
4, 54960, Note_off_c, 2, 60, 64
4, 55040, Note_on_c, 2, 55, 50
4, 55200, Note_on_c, 2, 60, 75
4, 55520, Note_on_c, 2, 64, 73
4, 55592, Note_off_c, 2, 52, 64
4, 55680, Note_on_c, 2, 48, 46
4, 56008, Note_off_c, 2, 55, 64
4, 56028, Note_off_c, 2, 64, 64
4, 56036, Note_off_c, 2, 60, 64
4, 56160, Note_on_c, 2, 64, 64
4, 56160, Note_on_c, 2, 60, 64
4, 56160, Note_on_c, 2, 55, 42
4, 56524, Note_off_c, 2, 48, 64
4, 56640, Note_on_c, 2, 52, 65
4, 56764, Note_off_c, 2, 55, 64
4, 56880, Note_off_c, 2, 64, 64
4, 56880, Note_off_c, 2, 60, 64
4, 56960, Note_on_c, 2, 55, 30
4, 57120, Note_on_c, 2, 60, 75
4, 57120, Note_on_c, 2, 64, 49
4, 57348, Note_off_c, 2, 52, 64
4, 57540, Note_off_c, 2, 55, 64
4, 57540, Note_off_c, 2, 60, 64
4, 57540, Note_off_c, 2, 64, 64
4, 57640, Note_on_c, 2, 48, 53
4, 57928, Note_on_c, 2, 55, 43
4, 58064, Note_on_c, 2, 60, 69
4, 58076, Note_on_c, 2, 64, 52
4, 58284, Note_off_c, 2, 55, 64
4, 58400, Note_on_c, 2, 55, 57
4, 58576, Note_on_c, 2, 52, 65
4, 58596, Note_off_c, 2, 55, 64
4, 58804, Note_off_c, 2, 64, 64
4, 58824, Note_off_c, 2, 60, 64
4, 58888, Note_on_c, 2, 55, 37
4, 59032, Note_on_c, 2, 60, 73
4, 59056, Note_on_c, 2, 64, 63
4, 59220, Note_off_c, 2, 55, 64
4, 59264, Note_off_c, 2, 52, 64
4, 59356, Note_off_c, 2, 48, 64
4, 59356, Note_on_c, 2, 55, 49
4, 59520, Note_off_c, 2, 60, 64
4, 59520, Note_off_c, 2, 64, 64
4, 59520, Note_off_c, 2, 55, 64
4, 59520, Note_on_c, 2, 48, 59
4, 60000, Note_on_c, 2, 64, 65
4, 60000, Note_on_c, 2, 58, 65
4, 60000, Note_on_c, 2, 55, 45
4, 60444, Note_off_c, 2, 48, 64
4, 60480, Note_on_c, 2, 52, 49
4, 60616, Note_off_c, 2, 55, 64
4, 60740, Note_off_c, 2, 64, 64
4, 60760, Note_off_c, 2, 58, 64
4, 60800, Note_on_c, 2, 55, 27
4, 60960, Note_on_c, 2, 58, 68
4, 60960, Note_on_c, 2, 60, 56
4, 60960, Note_on_c, 2, 64, 62
4, 61104, Note_off_c, 2, 52, 64
4, 61228, Note_off_c, 2, 55, 64
4, 61244, Note_off_c, 2, 60, 64
4, 61264, Note_off_c, 2, 58, 64
4, 61264, Note_off_c, 2, 64, 64
4, 61440, Note_on_c, 2, 41, 48
4, 61920, Note_on_c, 2, 53, 51
4, 61920, Note_on_c, 2, 63, 62
4, 61920, Note_on_c, 2, 57, 66
4, 62368, Note_off_c, 2, 41, 64
4, 62400, Note_on_c, 2, 51, 18
4, 62536, Note_off_c, 2, 53, 64
4, 62640, Note_off_c, 2, 63, 64
4, 62640, Note_off_c, 2, 57, 64
4, 62720, Note_on_c, 2, 53, 62
4, 62880, Note_on_c, 2, 57, 70
4, 63200, Note_on_c, 2, 63, 63
4, 63200, Note_on_c, 2, 60, 52
4, 63276, Note_off_c, 2, 51, 64
4, 63360, Note_on_c, 2, 41, 44
4, 63700, Note_off_c, 2, 53, 64
4, 63700, Note_off_c, 2, 63, 64
4, 63712, Note_off_c, 2, 60, 64
4, 63732, Note_off_c, 2, 57, 64
4, 63840, Note_on_c, 2, 63, 56
4, 63840, Note_on_c, 2, 57, 75
4, 63840, Note_on_c, 2, 53, 48
4, 64248, Note_off_c, 2, 41, 64
4, 64320, Note_on_c, 2, 51, 65
4, 64476, Note_off_c, 2, 53, 64
4, 64548, Note_off_c, 2, 57, 64
4, 64588, Note_off_c, 2, 63, 64
4, 64800, Note_on_c, 2, 63, 36
4, 64800, Note_on_c, 2, 57, 57
4, 64800, Note_on_c, 2, 53, 63
4, 65060, Note_off_c, 2, 51, 64
4, 65208, Note_off_c, 2, 63, 64
4, 65208, Note_off_c, 2, 57, 64
4, 65216, Note_off_c, 2, 53, 64
4, 65280, Note_on_c, 2, 48, 66
4, 65760, Note_on_c, 2, 64, 57
4, 65760, Note_on_c, 2, 60, 64
4, 65760, Note_on_c, 2, 55, 43
4, 66156, Note_off_c, 2, 48, 64
4, 66240, Note_on_c, 2, 52, 68
4, 66364, Note_off_c, 2, 55, 64
4, 66456, Note_off_c, 2, 64, 64
4, 66480, Note_off_c, 2, 60, 64
4, 66560, Note_on_c, 2, 55, 50
4, 66720, Note_on_c, 2, 60, 75
4, 67040, Note_on_c, 2, 64, 73
4, 67112, Note_off_c, 2, 52, 64
4, 67200, Note_on_c, 2, 48, 46
4, 67528, Note_off_c, 2, 55, 64
4, 67548, Note_off_c, 2, 64, 64
4, 67556, Note_off_c, 2, 60, 64
4, 67680, Note_on_c, 2, 64, 64
4, 67680, Note_on_c, 2, 60, 64
4, 67680, Note_on_c, 2, 55, 42
4, 68044, Note_off_c, 2, 48, 64
4, 68160, Note_on_c, 2, 52, 65
4, 68284, Note_off_c, 2, 55, 64
4, 68400, Note_off_c, 2, 64, 64
4, 68400, Note_off_c, 2, 60, 64
4, 68480, Note_on_c, 2, 55, 30
4, 68640, Note_on_c, 2, 60, 75
4, 68640, Note_on_c, 2, 64, 49
4, 68868, Note_off_c, 2, 52, 64
4, 69060, Note_off_c, 2, 55, 64
4, 69060, Note_off_c, 2, 60, 64
4, 69060, Note_off_c, 2, 64, 64
4, 69160, Note_on_c, 2, 43, 53
4, 69448, Note_on_c, 2, 59, 43
4, 69584, Note_on_c, 2, 62, 69
4, 69596, Note_on_c, 2, 67, 52
4, 69804, Note_off_c, 2, 59, 64
4, 69920, Note_on_c, 2, 59, 57
4, 70096, Note_on_c, 2, 55, 65
4, 70116, Note_off_c, 2, 59, 64
4, 70324, Note_off_c, 2, 67, 64
4, 70344, Note_off_c, 2, 62, 64
4, 70408, Note_on_c, 2, 59, 37
4, 70552, Note_on_c, 2, 62, 73
4, 70576, Note_on_c, 2, 67, 63
4, 70740, Note_off_c, 2, 59, 64
4, 70784, Note_off_c, 2, 55, 64
4, 70876, Note_off_c, 2, 43, 64
4, 70876, Note_on_c, 2, 59, 49
4, 71052, Note_on_c, 2, 43, 61
4, 71148, Note_off_c, 2, 59, 64
4, 71336, Note_off_c, 2, 67, 64
4, 71356, Note_off_c, 2, 62, 64
4, 71388, Note_on_c, 2, 59, 46
4, 71524, Note_on_c, 2, 62, 65
4, 71524, Note_on_c, 2, 67, 39
4, 71712, Note_off_c, 2, 59, 64
4, 71844, Note_on_c, 2, 59, 44
4, 72000, Note_off_c, 2, 59, 64
4, 72012, Note_on_c, 2, 55, 54
4, 72272, Note_off_c, 2, 62, 64
4, 72304, Note_off_c, 2, 67, 64
4, 72324, Note_on_c, 2, 59, 39
4, 72472, Note_on_c, 2, 67, 48
4, 72480, Note_on_c, 2, 62, 77
4, 72648, Note_off_c, 2, 55, 64
4, 72764, Note_off_c, 2, 43, 64
4, 72960, Note_off_c, 2, 59, 64
4, 72960, Note_off_c, 2, 67, 64
4, 72960, Note_off_c, 2, 62, 64
4, 73000, Note_on_c, 2, 48, 53
4, 73288, Note_on_c, 2, 55, 43
4, 73424, Note_on_c, 2, 60, 69
4, 73436, Note_on_c, 2, 64, 52
4, 73644, Note_off_c, 2, 55, 64
4, 73760, Note_on_c, 2, 55, 57
4, 73936, Note_on_c, 2, 52, 65
4, 73956, Note_off_c, 2, 55, 64
4, 74164, Note_off_c, 2, 64, 64
4, 74184, Note_off_c, 2, 60, 64
4, 74248, Note_on_c, 2, 55, 37
4, 74392, Note_on_c, 2, 60, 73
4, 74416, Note_on_c, 2, 64, 63
4, 74580, Note_off_c, 2, 55, 64
4, 74624, Note_off_c, 2, 52, 64
4, 74716, Note_off_c, 2, 48, 64
4, 74716, Note_on_c, 2, 55, 49
4, 74892, Note_on_c, 2, 48, 61
4, 74988, Note_off_c, 2, 55, 64
4, 75176, Note_off_c, 2, 64, 64
4, 75196, Note_off_c, 2, 60, 64
4, 75228, Note_on_c, 2, 55, 46
4, 75364, Note_on_c, 2, 60, 65
4, 75364, Note_on_c, 2, 64, 39
4, 75552, Note_off_c, 2, 55, 64
4, 75684, Note_on_c, 2, 55, 44
4, 75840, Note_off_c, 2, 55, 64
4, 75852, Note_on_c, 2, 52, 54
4, 76112, Note_off_c, 2, 60, 64
4, 76144, Note_off_c, 2, 64, 64
4, 76164, Note_on_c, 2, 55, 39
4, 76312, Note_on_c, 2, 64, 48
4, 76320, Note_on_c, 2, 60, 77
4, 76488, Note_off_c, 2, 52, 64
4, 76604, Note_off_c, 2, 48, 64
4, 76800, Note_off_c, 2, 55, 64
4, 76800, Note_off_c, 2, 64, 64
4, 76800, Note_off_c, 2, 60, 64
4, 76800, Note_on_c, 2, 48, 48
4, 77280, Note_on_c, 2, 55, 51
4, 77280, Note_on_c, 2, 64, 62
4, 77280, Note_on_c, 2, 60, 66
4, 77728, Note_off_c, 2, 48, 64
4, 77760, Note_on_c, 2, 52, 18
4, 77896, Note_off_c, 2, 55, 64
4, 78000, Note_off_c, 2, 64, 64
4, 78000, Note_off_c, 2, 60, 64
4, 78080, Note_on_c, 2, 55, 62
4, 78240, Note_on_c, 2, 60, 70
4, 78560, Note_on_c, 2, 64, 63
4, 78636, Note_off_c, 2, 52, 64
4, 78720, Note_on_c, 2, 48, 44
4, 79060, Note_off_c, 2, 55, 64
4, 79060, Note_off_c, 2, 64, 64
4, 79092, Note_off_c, 2, 60, 64
4, 79200, Note_on_c, 2, 64, 56
4, 79200, Note_on_c, 2, 60, 75
4, 79200, Note_on_c, 2, 55, 48
4, 79608, Note_off_c, 2, 48, 64
4, 79680, Note_on_c, 2, 52, 65
4, 79836, Note_off_c, 2, 55, 64
4, 79908, Note_off_c, 2, 60, 64
4, 79948, Note_off_c, 2, 64, 64
4, 80160, Note_on_c, 2, 64, 36
4, 80160, Note_on_c, 2, 60, 57
4, 80160, Note_on_c, 2, 55, 63
4, 80420, Note_off_c, 2, 52, 64
4, 80568, Note_off_c, 2, 64, 64
4, 80568, Note_off_c, 2, 60, 64
4, 80576, Note_off_c, 2, 55, 64
4, 80680, Note_on_c, 2, 48, 53
4, 80968, Note_on_c, 2, 55, 43
4, 81104, Note_on_c, 2, 60, 69
4, 81116, Note_on_c, 2, 64, 52
4, 81324, Note_off_c, 2, 55, 64
4, 81440, Note_on_c, 2, 55, 57
4, 81616, Note_on_c, 2, 52, 65
4, 81636, Note_off_c, 2, 55, 64
4, 81844, Note_off_c, 2, 64, 64
4, 81864, Note_off_c, 2, 60, 64
4, 81928, Note_on_c, 2, 55, 37
4, 82072, Note_on_c, 2, 60, 73
4, 82096, Note_on_c, 2, 64, 63
4, 82260, Note_off_c, 2, 55, 64
4, 82304, Note_off_c, 2, 52, 64
4, 82396, Note_off_c, 2, 48, 64
4, 82396, Note_on_c, 2, 55, 49
4, 82560, Note_off_c, 2, 60, 64
4, 82560, Note_off_c, 2, 64, 64
4, 82560, Note_off_c, 2, 55, 64
4, 82600, Note_on_c, 2, 48, 53
4, 82888, Note_on_c, 2, 55, 43
4, 83024, Note_on_c, 2, 58, 69
4, 83036, Note_on_c, 2, 60, 52
4, 83036, Note_on_c, 2, 64, 57
4, 83244, Note_off_c, 2, 55, 64
4, 83360, Note_on_c, 2, 55, 57
4, 83536, Note_on_c, 2, 52, 65
4, 83556, Note_off_c, 2, 55, 64
4, 83764, Note_off_c, 2, 64, 64
4, 83784, Note_off_c, 2, 58, 64
4, 83784, Note_off_c, 2, 60, 64
4, 83848, Note_on_c, 2, 55, 37
4, 83992, Note_on_c, 2, 58, 73
4, 84016, Note_on_c, 2, 60, 63
4, 84016, Note_on_c, 2, 64, 67
4, 84180, Note_off_c, 2, 55, 64
4, 84224, Note_off_c, 2, 52, 64
4, 84316, Note_off_c, 2, 48, 64
4, 84316, Note_on_c, 2, 55, 49
4, 84480, Note_off_c, 2, 58, 64
4, 84480, Note_off_c, 2, 60, 64
4, 84480, Note_off_c, 2, 64, 64
4, 84480, Note_off_c, 2, 55, 64
4, 84480, Note_on_c, 2, 41, 48
4, 84960, Note_on_c, 2, 53, 51
4, 84960, Note_on_c, 2, 63, 62
4, 84960, Note_on_c, 2, 57, 66
4, 85408, Note_off_c, 2, 41, 64
4, 85440, Note_on_c, 2, 51, 18
4, 85576, Note_off_c, 2, 53, 64
4, 85680, Note_off_c, 2, 63, 64
4, 85680, Note_off_c, 2, 57, 64
4, 85760, Note_on_c, 2, 53, 62
4, 85920, Note_on_c, 2, 57, 70
4, 86240, Note_on_c, 2, 63, 63
4, 86240, Note_on_c, 2, 60, 52
4, 86316, Note_off_c, 2, 51, 64
4, 86400, Note_on_c, 2, 41, 44
4, 86740, Note_off_c, 2, 53, 64
4, 86740, Note_off_c, 2, 63, 64
4, 86752, Note_off_c, 2, 60, 64
4, 86772, Note_off_c, 2, 57, 64
4, 86880, Note_on_c, 2, 63, 56
4, 86880, Note_on_c, 2, 57, 75
4, 86880, Note_on_c, 2, 53, 48
4, 87288, Note_off_c, 2, 41, 64
4, 87360, Note_on_c, 2, 51, 65
4, 87516, Note_off_c, 2, 53, 64
4, 87588, Note_off_c, 2, 57, 64
4, 87628, Note_off_c, 2, 63, 64
4, 87840, Note_on_c, 2, 63, 36
4, 87840, Note_on_c, 2, 57, 57
4, 87840, Note_on_c, 2, 53, 63
4, 88100, Note_off_c, 2, 51, 64
4, 88248, Note_off_c, 2, 63, 64
4, 88248, Note_off_c, 2, 57, 64
4, 88256, Note_off_c, 2, 53, 64
4, 88360, Note_on_c, 2, 48, 53
4, 88648, Note_on_c, 2, 55, 43
4, 88784, Note_on_c, 2, 60, 69
4, 88796, Note_on_c, 2, 64, 52
4, 89004, Note_off_c, 2, 55, 64
4, 89120, Note_on_c, 2, 55, 57
4, 89296, Note_on_c, 2, 52, 65
4, 89316, Note_off_c, 2, 55, 64
4, 89524, Note_off_c, 2, 64, 64
4, 89544, Note_off_c, 2, 60, 64
4, 89608, Note_on_c, 2, 55, 37
4, 89752, Note_on_c, 2, 60, 73
4, 89776, Note_on_c, 2, 64, 63
4, 89940, Note_off_c, 2, 55, 64
4, 89984, Note_off_c, 2, 52, 64
4, 90076, Note_off_c, 2, 48, 64
4, 90076, Note_on_c, 2, 55, 49
4, 90240, Note_off_c, 2, 60, 64
4, 90240, Note_off_c, 2, 64, 64
4, 90240, Note_off_c, 2, 55, 64
4, 90240, Note_on_c, 2, 43, 48
4, 90720, Note_on_c, 2, 55, 51
4, 90720, Note_on_c, 2, 65, 62
4, 90720, Note_on_c, 2, 59, 66
4, 91168, Note_off_c, 2, 43, 64
4, 91200, Note_off_c, 2, 55, 64
4, 91200, Note_off_c, 2, 65, 64
4, 91200, Note_off_c, 2, 59, 64
4, 91200, Note_on_c, 2, 48, 66
4, 91680, Note_on_c, 2, 64, 57
4, 91680, Note_on_c, 2, 60, 64
4, 91680, Note_on_c, 2, 55, 43
4, 92076, Note_off_c, 2, 48, 64
4, 92160, Note_off_c, 2, 64, 64
4, 92160, Note_off_c, 2, 60, 64
4, 92160, Note_off_c, 2, 55, 64
4, 92160, Note_on_c, 2, 48, 48
4, 92640, Note_on_c, 2, 55, 51
4, 92640, Note_on_c, 2, 64, 62
4, 92640, Note_on_c, 2, 60, 66
4, 93088, Note_off_c, 2, 48, 64
4, 93120, Note_on_c, 2, 52, 18
4, 93256, Note_off_c, 2, 55, 64
4, 93360, Note_off_c, 2, 64, 64
4, 93360, Note_off_c, 2, 60, 64
4, 93440, Note_on_c, 2, 55, 62
4, 93600, Note_on_c, 2, 60, 70
4, 93920, Note_on_c, 2, 64, 63
4, 93996, Note_off_c, 2, 52, 64
4, 94080, Note_off_c, 2, 55, 64
4, 94080, Note_off_c, 2, 60, 64
4, 94080, Note_off_c, 2, 64, 64
4, 94080, Note_on_c, 2, 41, 53
4, 94560, Note_on_c, 2, 57, 46
4, 94560, Note_on_c, 2, 65, 62
4, 94560, Note_on_c, 2, 60, 67
4, 95040, Note_on_c, 2, 53, 48
4, 95164, Note_off_c, 2, 41, 64
4, 95188, Note_off_c, 2, 57, 64
4, 95204, Note_off_c, 2, 60, 64
4, 95256, Note_off_c, 2, 65, 64
4, 95360, Note_on_c, 2, 57, 27
4, 95520, Note_on_c, 2, 65, 67
4, 95520, Note_on_c, 2, 60, 75
4, 95632, Note_off_c, 2, 53, 64
4, 95812, Note_off_c, 2, 65, 64
4, 95836, Note_off_c, 2, 57, 64
4, 95836, Note_off_c, 2, 60, 64
4, 96000, Note_on_c, 2, 48, 53
4, 96480, Note_on_c, 2, 55, 46
4, 96480, Note_on_c, 2, 64, 62
4, 96480, Note_on_c, 2, 60, 67
4, 96960, Note_on_c, 2, 52, 48
4, 97084, Note_off_c, 2, 48, 64
4, 97108, Note_off_c, 2, 55, 64
4, 97124, Note_off_c, 2, 60, 64
4, 97176, Note_off_c, 2, 64, 64
4, 97280, Note_on_c, 2, 55, 27
4, 97440, Note_on_c, 2, 64, 67
4, 97440, Note_on_c, 2, 60, 75
4, 97552, Note_off_c, 2, 52, 64
4, 97732, Note_off_c, 2, 64, 64
4, 97756, Note_off_c, 2, 55, 64
4, 97756, Note_off_c, 2, 60, 64
4, 97920, Note_on_c, 2, 43, 48
4, 98400, Note_on_c, 2, 55, 51
4, 98400, Note_on_c, 2, 65, 62
4, 98400, Note_on_c, 2, 59, 66
4, 98848, Note_off_c, 2, 43, 64
4, 98880, Note_on_c, 2, 53, 18
4, 99016, Note_off_c, 2, 55, 64
4, 99120, Note_off_c, 2, 65, 64
4, 99120, Note_off_c, 2, 59, 64
4, 99200, Note_on_c, 2, 55, 62
4, 99360, Note_on_c, 2, 59, 70
4, 99680, Note_on_c, 2, 65, 63
4, 99680, Note_on_c, 2, 62, 52
4, 99756, Note_off_c, 2, 53, 64
4, 99840, Note_off_c, 2, 55, 64
4, 99840, Note_off_c, 2, 59, 64
4, 99840, Note_off_c, 2, 65, 64
4, 99840, Note_off_c, 2, 62, 64
4, 99840, Note_on_c, 2, 48, 59
4, 100320, Note_on_c, 2, 64, 65
4, 100320, Note_on_c, 2, 60, 65
4, 100320, Note_on_c, 2, 55, 45
4, 100764, Note_off_c, 2, 48, 64
4, 100800, Note_on_c, 2, 52, 49
4, 100936, Note_off_c, 2, 55, 64
4, 101060, Note_off_c, 2, 64, 64
4, 101080, Note_off_c, 2, 60, 64
4, 101120, Note_on_c, 2, 55, 27
4, 101280, Note_on_c, 2, 60, 68
4, 101280, Note_on_c, 2, 64, 56
4, 101424, Note_off_c, 2, 52, 64
4, 101548, Note_off_c, 2, 55, 64
4, 101564, Note_off_c, 2, 64, 64
4, 101584, Note_off_c, 2, 60, 64
4, 101800, Note_on_c, 2, 48, 53
4, 102240, Note_off_c, 2, 48, 64
4, 103680, Control_c, 2, 64, 0
4, 103680, End_track
5, 0, Start_track
5, 0, Title_t, "Guitar  "
5, 0, MIDI_port, 0
5, 0, Channel_prefix, 3
5, 0, Control_c, 3, 7, 118
5, 0, Control_c, 3, 10, 16
5, 0, Program_c, 3, 25
5, 0, Control_c, 3, 121, 0
5, 40, Control_c, 3, 123, 0
5, 120, Control_c, 3, 91, 65
5, 160, Control_c, 3, 64, 0
5, 3840, Control_c, 3, 64, 127
5, 3840, Note_on_c, 3, 48, 82
5, 4320, Note_on_c, 3, 64, 91
5, 4320, Note_on_c, 3, 60, 89
5, 4320, Note_on_c, 3, 52, 90
5, 4320, Note_on_c, 3, 55, 85
5, 4760, Note_off_c, 3, 55, 64
5, 4848, Note_off_c, 3, 60, 64
5, 4904, Note_off_c, 3, 64, 64
5, 4904, Note_off_c, 3, 52, 64
5, 5280, Note_on_c, 3, 60, 90
5, 5280, Note_on_c, 3, 52, 90
5, 5280, Note_on_c, 3, 55, 90
5, 5492, Note_off_c, 3, 48, 64
5, 5496, Note_off_c, 3, 52, 64
5, 5528, Note_off_c, 3, 60, 64
5, 5528, Note_off_c, 3, 55, 64
5, 5760, Note_on_c, 3, 48, 86
5, 6240, Note_on_c, 3, 52, 80
5, 6240, Note_on_c, 3, 55, 100
5, 6520, Note_off_c, 3, 52, 64
5, 6684, Note_off_c, 3, 55, 64
5, 6968, Note_off_c, 3, 48, 64
5, 7040, Note_on_c, 3, 48, 87
5, 7200, Note_on_c, 3, 55, 88
5, 7204, Note_off_c, 3, 48, 64
5, 7204, Note_on_c, 3, 52, 90
5, 7464, Note_off_c, 3, 52, 64
5, 7476, Note_off_c, 3, 55, 64
5, 8640, Note_on_c, 3, 67, 86
5, 8640, Note_on_c, 3, 72, 90
5, 8640, Note_on_c, 3, 76, 97
5, 9024, Note_off_c, 3, 76, 64
5, 9024, Note_off_c, 3, 72, 64
5, 9024, Note_off_c, 3, 67, 64
5, 9120, Note_on_c, 3, 67, 86
5, 9120, Note_on_c, 3, 72, 93
5, 9120, Note_on_c, 3, 76, 90
5, 9504, Note_off_c, 3, 76, 64
5, 9504, Note_off_c, 3, 72, 64
5, 9504, Note_off_c, 3, 67, 64
5, 9600, Note_on_c, 3, 70, 98
5, 9600, Note_on_c, 3, 72, 80
5, 9600, Note_on_c, 3, 76, 75
5, 9984, Note_off_c, 3, 76, 64
5, 9984, Note_off_c, 3, 72, 64
5, 9984, Note_off_c, 3, 70, 64
5, 10080, Note_on_c, 3, 70, 90
5, 10080, Note_on_c, 3, 72, 90
5, 10080, Note_on_c, 3, 76, 89
5, 10464, Note_off_c, 3, 76, 64
5, 10464, Note_off_c, 3, 72, 64
5, 10464, Note_off_c, 3, 70, 64
5, 10560, Note_on_c, 3, 70, 95
5, 10560, Note_on_c, 3, 72, 99
5, 10560, Note_on_c, 3, 76, 90
5, 10944, Note_off_c, 3, 76, 64
5, 10944, Note_off_c, 3, 72, 64
5, 10944, Note_off_c, 3, 70, 64
5, 11520, Control_c, 3, 64, 0
5, 11520, Control_c, 3, 64, 127
5, 11520, Note_on_c, 3, 41, 90
5, 12000, Note_on_c, 3, 57, 92
5, 12000, Note_on_c, 3, 53, 90
5, 12000, Note_on_c, 3, 51, 98
5, 12128, Note_off_c, 3, 51, 64
5, 12140, Note_off_c, 3, 53, 64
5, 12152, Note_off_c, 3, 57, 64
5, 12320, Note_on_c, 3, 57, 89
5, 12320, Note_on_c, 3, 51, 87
5, 12320, Note_on_c, 3, 53, 89
5, 12612, Note_off_c, 3, 53, 64
5, 12612, Note_off_c, 3, 51, 64
5, 12636, Note_off_c, 3, 41, 64
5, 12656, Note_off_c, 3, 57, 64
5, 12800, Note_on_c, 3, 41, 90
5, 12960, Note_on_c, 3, 57, 95
5, 12960, Note_on_c, 3, 51, 91
5, 12960, Note_on_c, 3, 53, 87
5, 13100, Note_off_c, 3, 41, 64
5, 13228, Note_off_c, 3, 53, 64
5, 13240, Note_off_c, 3, 51, 64
5, 13276, Note_off_c, 3, 57, 64
5, 13440, Note_on_c, 3, 41, 91
5, 13920, Note_on_c, 3, 57, 104
5, 13920, Note_on_c, 3, 51, 91
5, 13920, Note_on_c, 3, 53, 78
5, 13992, Note_off_c, 3, 53, 64
5, 14016, Note_off_c, 3, 51, 64
5, 14084, Note_off_c, 3, 57, 64
5, 14240, Note_on_c, 3, 57, 88
5, 14240, Note_on_c, 3, 51, 96
5, 14240, Note_on_c, 3, 53, 76
5, 14432, Note_off_c, 3, 53, 64
5, 14444, Note_off_c, 3, 51, 64
5, 14476, Note_off_c, 3, 57, 64
5, 14608, Note_off_c, 3, 41, 64
5, 14720, Note_on_c, 3, 41, 89
5, 14776, Note_off_c, 3, 41, 64
5, 14880, Note_on_c, 3, 57, 100
5, 14880, Note_on_c, 3, 51, 92
5, 14880, Note_on_c, 3, 53, 80
5, 15120, Note_off_c, 3, 53, 64
5, 15120, Note_off_c, 3, 51, 64
5, 15148, Note_off_c, 3, 57, 64
5, 15360, Control_c, 3, 64, 0
5, 15360, Control_c, 3, 64, 127
5, 15360, Note_on_c, 3, 48, 90
5, 15840, Note_on_c, 3, 64, 81
5, 15840, Note_on_c, 3, 60, 90
5, 15840, Note_on_c, 3, 52, 95
5, 15840, Note_on_c, 3, 55, 92
5, 16280, Note_off_c, 3, 55, 64
5, 16368, Note_off_c, 3, 60, 64
5, 16424, Note_off_c, 3, 64, 64
5, 16424, Note_off_c, 3, 52, 64
5, 16800, Note_on_c, 3, 60, 77
5, 16800, Note_on_c, 3, 52, 75
5, 16800, Note_on_c, 3, 55, 100
5, 17012, Note_off_c, 3, 48, 64
5, 17016, Note_off_c, 3, 52, 64
5, 17048, Note_off_c, 3, 60, 64
5, 17048, Note_off_c, 3, 55, 64
5, 17760, Note_on_c, 3, 67, 88
5, 17760, Note_on_c, 3, 72, 90
5, 17760, Note_on_c, 3, 76, 88
5, 18220, Note_off_c, 3, 76, 64
5, 18220, Note_off_c, 3, 72, 64
5, 18220, Note_off_c, 3, 67, 64
5, 18240, Control_c, 3, 86, 37
5, 19200, Control_c, 3, 64, 0
5, 19200, Control_c, 3, 64, 127
5, 19200, Note_on_c, 3, 43, 80
5, 19680, Note_on_c, 3, 62, 90
5, 19680, Note_on_c, 3, 55, 90
5, 19680, Note_on_c, 3, 59, 100
5, 20232, Note_off_c, 3, 59, 64
5, 20304, Note_off_c, 3, 55, 64
5, 20328, Note_off_c, 3, 62, 64
5, 20640, Note_on_c, 3, 62, 86
5, 20640, Note_on_c, 3, 55, 86
5, 20640, Note_on_c, 3, 59, 90
5, 20716, Note_off_c, 3, 59, 64
5, 20800, Note_off_c, 3, 55, 64
5, 20836, Note_off_c, 3, 62, 64
5, 20864, Note_off_c, 3, 43, 64
5, 21120, Note_on_c, 3, 43, 80
5, 21600, Note_on_c, 3, 62, 90
5, 21600, Note_on_c, 3, 55, 88
5, 21600, Note_on_c, 3, 59, 85
5, 22000, Note_off_c, 3, 59, 64
5, 22056, Note_off_c, 3, 55, 64
5, 22112, Note_off_c, 3, 62, 64
5, 22276, Note_off_c, 3, 43, 64
5, 22400, Note_on_c, 3, 43, 85
5, 22540, Note_off_c, 3, 43, 64
5, 22560, Note_on_c, 3, 62, 90
5, 22560, Note_on_c, 3, 55, 84
5, 22560, Note_on_c, 3, 59, 90
5, 22732, Note_off_c, 3, 59, 64
5, 22788, Note_off_c, 3, 55, 64
5, 22808, Note_off_c, 3, 62, 64
5, 24000, Note_on_c, 3, 67, 87
5, 24000, Note_on_c, 3, 72, 92
5, 24000, Note_on_c, 3, 76, 92
5, 24384, Note_off_c, 3, 76, 64
5, 24384, Note_off_c, 3, 72, 64
5, 24384, Note_off_c, 3, 67, 64
5, 24480, Note_on_c, 3, 67, 96
5, 24480, Note_on_c, 3, 72, 87
5, 24480, Note_on_c, 3, 76, 94
5, 24864, Note_off_c, 3, 76, 64
5, 24864, Note_off_c, 3, 72, 64
5, 24864, Note_off_c, 3, 67, 64
5, 24960, Note_on_c, 3, 67, 97
5, 24960, Note_on_c, 3, 72, 88
5, 24960, Note_on_c, 3, 76, 83
5, 25344, Note_off_c, 3, 76, 64
5, 25344, Note_off_c, 3, 72, 64
5, 25344, Note_off_c, 3, 67, 64
5, 25440, Note_on_c, 3, 67, 76
5, 25440, Note_on_c, 3, 72, 99
5, 25440, Note_on_c, 3, 76, 79
5, 25824, Note_off_c, 3, 76, 64
5, 25824, Note_off_c, 3, 72, 64
5, 25824, Note_off_c, 3, 67, 64
5, 25920, Note_on_c, 3, 67, 91
5, 25920, Note_on_c, 3, 72, 100
5, 25920, Note_on_c, 3, 76, 90
5, 26380, Note_off_c, 3, 76, 64
5, 26380, Note_off_c, 3, 72, 64
5, 26380, Note_off_c, 3, 67, 64
5, 26400, Control_c, 3, 86, 37
5, 26880, Control_c, 3, 64, 0
5, 26880, Control_c, 3, 64, 127
5, 26880, Note_on_c, 3, 48, 91
5, 27360, Note_on_c, 3, 64, 95
5, 27360, Note_on_c, 3, 60, 90
5, 27360, Note_on_c, 3, 52, 90
5, 27360, Note_on_c, 3, 55, 90
5, 27800, Note_off_c, 3, 55, 64
5, 27888, Note_off_c, 3, 60, 64
5, 27944, Note_off_c, 3, 64, 64
5, 27944, Note_off_c, 3, 52, 64
5, 28320, Note_on_c, 3, 60, 100
5, 28320, Note_on_c, 3, 52, 90
5, 28320, Note_on_c, 3, 55, 90
5, 28532, Note_off_c, 3, 48, 64
5, 28536, Note_off_c, 3, 52, 64
5, 28568, Note_off_c, 3, 60, 64
5, 28568, Note_off_c, 3, 55, 64
5, 28800, Note_on_c, 3, 48, 83
5, 29280, Note_on_c, 3, 52, 102
5, 29280, Note_on_c, 3, 55, 79
5, 29560, Note_off_c, 3, 52, 64
5, 29724, Note_off_c, 3, 55, 64
5, 30008, Note_off_c, 3, 48, 64
5, 30080, Note_on_c, 3, 48, 90
5, 30240, Note_on_c, 3, 55, 104
5, 30244, Note_off_c, 3, 48, 64
5, 30244, Note_on_c, 3, 52, 94
5, 30504, Note_off_c, 3, 52, 64
5, 30516, Note_off_c, 3, 55, 64
5, 30720, Control_c, 3, 64, 0
5, 30720, Control_c, 3, 64, 127
5, 30720, Note_on_c, 3, 48, 91
5, 31200, Note_on_c, 3, 60, 84
5, 31200, Note_on_c, 3, 55, 81
5, 31200, Note_on_c, 3, 52, 77
5, 31328, Note_off_c, 3, 52, 64
5, 31340, Note_off_c, 3, 55, 64
5, 31352, Note_off_c, 3, 60, 64
5, 31520, Note_on_c, 3, 60, 92
5, 31520, Note_on_c, 3, 52, 102
5, 31520, Note_on_c, 3, 55, 91
5, 31812, Note_off_c, 3, 55, 64
5, 31812, Note_off_c, 3, 52, 64
5, 31836, Note_off_c, 3, 48, 64
5, 31856, Note_off_c, 3, 60, 64
5, 32000, Note_on_c, 3, 48, 78
5, 32160, Note_on_c, 3, 60, 82
5, 32160, Note_on_c, 3, 52, 98
5, 32160, Note_on_c, 3, 55, 80
5, 32300, Note_off_c, 3, 48, 64
5, 32428, Note_off_c, 3, 55, 64
5, 32440, Note_off_c, 3, 52, 64
5, 32476, Note_off_c, 3, 60, 64
5, 32640, Control_c, 3, 64, 0
5, 32640, Control_c, 3, 64, 127
5, 32640, Note_on_c, 3, 48, 90
5, 33120, Note_on_c, 3, 58, 90
5, 33120, Note_on_c, 3, 52, 101
5, 33120, Note_on_c, 3, 55, 92
5, 33672, Note_off_c, 3, 55, 64
5, 33744, Note_off_c, 3, 52, 64
5, 33768, Note_off_c, 3, 58, 64
5, 34080, Note_on_c, 3, 58, 75
5, 34080, Note_on_c, 3, 52, 89
5, 34080, Note_on_c, 3, 55, 97
5, 34156, Note_off_c, 3, 55, 64
5, 34240, Note_off_c, 3, 52, 64
5, 34276, Note_off_c, 3, 58, 64
5, 34304, Note_off_c, 3, 48, 64
5, 34560, Control_c, 3, 64, 0
5, 34560, Control_c, 3, 64, 127
5, 34560, Note_on_c, 3, 41, 90
5, 35040, Note_on_c, 3, 57, 92
5, 35040, Note_on_c, 3, 51, 90
5, 35040, Note_on_c, 3, 53, 94
5, 35592, Note_off_c, 3, 53, 64
5, 35664, Note_off_c, 3, 51, 64
5, 35688, Note_off_c, 3, 57, 64
5, 36000, Note_on_c, 3, 57, 91
5, 36000, Note_on_c, 3, 51, 91
5, 36000, Note_on_c, 3, 53, 93
5, 36076, Note_off_c, 3, 53, 64
5, 36160, Note_off_c, 3, 51, 64
5, 36196, Note_off_c, 3, 57, 64
5, 36224, Note_off_c, 3, 41, 64
5, 36480, Note_on_c, 3, 41, 90
5, 36960, Note_on_c, 3, 57, 92
5, 36960, Note_on_c, 3, 51, 97
5, 36960, Note_on_c, 3, 53, 77
5, 37360, Note_off_c, 3, 53, 64
5, 37416, Note_off_c, 3, 51, 64
5, 37472, Note_off_c, 3, 57, 64
5, 37636, Note_off_c, 3, 41, 64
5, 37760, Note_on_c, 3, 41, 89
5, 37900, Note_off_c, 3, 41, 64
5, 37920, Note_on_c, 3, 57, 82
5, 37920, Note_on_c, 3, 51, 80
5, 37920, Note_on_c, 3, 53, 75
5, 38092, Note_off_c, 3, 53, 64
5, 38148, Note_off_c, 3, 51, 64
5, 38168, Note_off_c, 3, 57, 64
5, 38400, Control_c, 3, 64, 0
5, 38400, Control_c, 3, 64, 127
5, 38400, Note_on_c, 3, 48, 99
5, 38720, Note_on_c, 3, 52, 95
5, 38880, Note_on_c, 3, 60, 86
5, 38880, Note_on_c, 3, 55, 86
5, 38988, Note_off_c, 3, 55, 64
5, 39044, Note_off_c, 3, 60, 64
5, 39044, Note_off_c, 3, 52, 64
5, 39200, Note_on_c, 3, 60, 88
5, 39200, Note_on_c, 3, 55, 99
5, 39200, Note_on_c, 3, 52, 90
5, 39492, Note_off_c, 3, 52, 64
5, 39504, Note_off_c, 3, 55, 64
5, 39532, Note_off_c, 3, 60, 64
5, 39840, Note_on_c, 3, 60, 96
5, 39840, Note_on_c, 3, 52, 89
5, 39840, Note_on_c, 3, 55, 102
5, 40012, Note_off_c, 3, 52, 64
5, 40024, Note_off_c, 3, 55, 64
5, 40056, Note_off_c, 3, 48, 64
5, 40068, Note_off_c, 3, 60, 64
5, 40320, Control_c, 3, 64, 0
5, 40320, Control_c, 3, 64, 127
5, 40320, Note_on_c, 3, 43, 101
5, 40800, Note_on_c, 3, 59, 90
5, 40800, Note_on_c, 3, 55, 88
5, 40800, Note_on_c, 3, 53, 89
5, 40928, Note_off_c, 3, 53, 64
5, 40940, Note_off_c, 3, 55, 64
5, 40952, Note_off_c, 3, 59, 64
5, 41120, Note_on_c, 3, 59, 89
5, 41120, Note_on_c, 3, 53, 80
5, 41120, Note_on_c, 3, 55, 90
5, 41280, Note_off_c, 3, 55, 64
5, 41280, Note_off_c, 3, 53, 64
5, 41280, Note_off_c, 3, 43, 64
5, 41280, Note_off_c, 3, 59, 64
5, 41280, Control_c, 3, 64, 0
5, 41280, Control_c, 3, 64, 127
5, 41280, Note_on_c, 3, 48, 89
5, 41760, Note_on_c, 3, 60, 90
5, 41760, Note_on_c, 3, 52, 95
5, 41760, Note_on_c, 3, 55, 90
5, 42240, Note_off_c, 3, 55, 64
5, 42240, Note_off_c, 3, 52, 64
5, 42240, Note_off_c, 3, 60, 64
5, 42240, Note_off_c, 3, 48, 64
5, 42240, Control_c, 3, 64, 0
5, 42240, Note_on_c, 3, 48, 76
5, 42240, Note_on_c, 3, 60, 96
5, 42240, Control_c, 3, 64, 127
5, 42576, Note_off_c, 3, 60, 64
5, 42576, Note_on_c, 3, 52, 89
5, 42720, Note_on_c, 3, 55, 90
5, 42924, Note_off_c, 3, 55, 64
5, 43000, Note_off_c, 3, 52, 64
5, 43040, Note_on_c, 3, 60, 78
5, 43040, Note_on_c, 3, 52, 89
5, 43040, Note_on_c, 3, 55, 91
5, 43428, Note_off_c, 3, 48, 64
5, 43440, Note_off_c, 3, 55, 64
5, 43472, Note_off_c, 3, 60, 64
5, 43520, Note_off_c, 3, 52, 64
5, 43520, Note_on_c, 3, 48, 89
5, 43680, Note_on_c, 3, 55, 89
5, 43680, Note_on_c, 3, 60, 86
5, 43680, Note_on_c, 3, 52, 78
5, 43712, Note_off_c, 3, 48, 64
5, 43928, Note_off_c, 3, 55, 64
5, 43952, Note_off_c, 3, 60, 64
5, 43960, Note_off_c, 3, 52, 64
5, 44160, Control_c, 3, 64, 0
5, 44160, Note_on_c, 3, 41, 89
5, 44160, Note_on_c, 3, 60, 95
5, 44160, Control_c, 3, 64, 127
5, 44496, Note_off_c, 3, 60, 64
5, 44496, Note_on_c, 3, 53, 80
5, 44640, Note_on_c, 3, 57, 81
5, 44844, Note_off_c, 3, 57, 64
5, 44920, Note_off_c, 3, 53, 64
5, 44960, Note_on_c, 3, 60, 93
5, 44960, Note_on_c, 3, 53, 90
5, 44960, Note_on_c, 3, 57, 90
5, 45348, Note_off_c, 3, 41, 64
5, 45360, Note_off_c, 3, 57, 64
5, 45392, Note_off_c, 3, 60, 64
5, 45440, Note_off_c, 3, 53, 64
5, 45440, Note_on_c, 3, 41, 90
5, 45600, Note_on_c, 3, 57, 88
5, 45600, Note_on_c, 3, 60, 88
5, 45600, Note_on_c, 3, 53, 85
5, 45632, Note_off_c, 3, 41, 64
5, 45848, Note_off_c, 3, 57, 64
5, 45872, Note_off_c, 3, 60, 64
5, 45880, Note_off_c, 3, 53, 64
5, 46080, Control_c, 3, 64, 0
5, 46080, Control_c, 3, 64, 127
5, 46080, Note_on_c, 3, 48, 90
5, 46400, Note_on_c, 3, 52, 88
5, 46560, Note_on_c, 3, 55, 77
5, 46880, Note_on_c, 3, 60, 90
5, 47220, Note_off_c, 3, 52, 64
5, 47308, Note_off_c, 3, 55, 64
5, 47332, Note_off_c, 3, 60, 64
5, 47360, Note_on_c, 3, 52, 100
5, 47520, Note_on_c, 3, 55, 90
5, 47840, Note_on_c, 3, 60, 91
5, 48000, Note_off_c, 3, 60, 64
5, 48000, Note_off_c, 3, 55, 64
5, 48000, Note_off_c, 3, 48, 64
5, 48000, Note_off_c, 3, 52, 64
5, 48000, Control_c, 3, 64, 0
5, 48000, Control_c, 3, 64, 127
5, 48000, Note_on_c, 3, 43, 85
5, 48320, Note_on_c, 3, 53, 90
5, 48480, Note_on_c, 3, 55, 89
5, 48800, Note_on_c, 3, 59, 89
5, 49120, Note_off_c, 3, 53, 64
5, 49228, Note_off_c, 3, 55, 64
5, 49232, Note_off_c, 3, 59, 64
5, 49280, Note_on_c, 3, 53, 96
5, 49440, Note_on_c, 3, 55, 90
5, 49760, Note_on_c, 3, 59, 89
5, 49920, Note_off_c, 3, 59, 64
5, 49920, Note_off_c, 3, 55, 64
5, 49920, Note_off_c, 3, 43, 64
5, 49920, Note_off_c, 3, 53, 64
5, 50880, Note_on_c, 3, 67, 80
5, 50880, Note_on_c, 3, 72, 81
5, 50880, Note_on_c, 3, 76, 94
5, 51264, Note_off_c, 3, 76, 64
5, 51264, Note_off_c, 3, 72, 64
5, 51264, Note_off_c, 3, 67, 64
5, 51360, Note_on_c, 3, 67, 93
5, 51360, Note_on_c, 3, 72, 96
5, 51360, Note_on_c, 3, 76, 95
5, 51744, Note_off_c, 3, 76, 64
5, 51744, Note_off_c, 3, 72, 64
5, 51744, Note_off_c, 3, 67, 64
5, 51840, Note_on_c, 3, 67, 85
5, 51840, Note_on_c, 3, 72, 104
5, 51840, Note_on_c, 3, 76, 89
5, 52224, Note_off_c, 3, 76, 64
5, 52224, Note_off_c, 3, 72, 64
5, 52224, Note_off_c, 3, 67, 64
5, 52320, Note_on_c, 3, 67, 95
5, 52320, Note_on_c, 3, 72, 95
5, 52320, Note_on_c, 3, 76, 105
5, 52704, Note_off_c, 3, 76, 64
5, 52704, Note_off_c, 3, 72, 64
5, 52704, Note_off_c, 3, 67, 64
5, 52800, Note_on_c, 3, 67, 91
5, 52800, Note_on_c, 3, 72, 103
5, 52800, Note_on_c, 3, 76, 84
5, 53260, Note_off_c, 3, 76, 64
5, 53260, Note_off_c, 3, 72, 64
5, 53260, Note_off_c, 3, 67, 64
5, 53280, Control_c, 3, 86, 37
5, 53760, Control_c, 3, 64, 0
5, 53760, Control_c, 3, 64, 127
5, 53760, Note_on_c, 3, 48, 82
5, 54240, Note_on_c, 3, 60, 90
5, 54240, Note_on_c, 3, 55, 98
5, 54240, Note_on_c, 3, 52, 96
5, 54368, Note_off_c, 3, 52, 64
5, 54380, Note_off_c, 3, 55, 64
5, 54392, Note_off_c, 3, 60, 64
5, 54560, Note_on_c, 3, 60, 78
5, 54560, Note_on_c, 3, 52, 100
5, 54560, Note_on_c, 3, 55, 95
5, 54852, Note_off_c, 3, 55, 64
5, 54852, Note_off_c, 3, 52, 64
5, 54876, Note_off_c, 3, 48, 64
5, 54896, Note_off_c, 3, 60, 64
5, 55040, Note_on_c, 3, 48, 99
5, 55200, Note_on_c, 3, 60, 90
5, 55200, Note_on_c, 3, 52, 88
5, 55200, Note_on_c, 3, 55, 89
5, 55340, Note_off_c, 3, 48, 64
5, 55468, Note_off_c, 3, 55, 64
5, 55480, Note_off_c, 3, 52, 64
5, 55516, Note_off_c, 3, 60, 64
5, 55680, Note_on_c, 3, 48, 85
5, 56160, Note_on_c, 3, 60, 87
5, 56160, Note_on_c, 3, 52, 91
5, 56160, Note_on_c, 3, 55, 90
5, 56232, Note_off_c, 3, 55, 64
5, 56256, Note_off_c, 3, 52, 64
5, 56324, Note_off_c, 3, 60, 64
5, 56480, Note_on_c, 3, 60, 94
5, 56480, Note_on_c, 3, 52, 94
5, 56480, Note_on_c, 3, 55, 91
5, 56672, Note_off_c, 3, 55, 64
5, 56684, Note_off_c, 3, 52, 64
5, 56716, Note_off_c, 3, 60, 64
5, 56848, Note_off_c, 3, 48, 64
5, 56960, Note_on_c, 3, 48, 92
5, 57016, Note_off_c, 3, 48, 64
5, 57120, Note_on_c, 3, 60, 78
5, 57120, Note_on_c, 3, 52, 88
5, 57120, Note_on_c, 3, 55, 100
5, 57360, Note_off_c, 3, 55, 64
5, 57360, Note_off_c, 3, 52, 64
5, 57388, Note_off_c, 3, 60, 64
5, 58560, Note_on_c, 3, 67, 96
5, 58560, Note_on_c, 3, 72, 82
5, 58560, Note_on_c, 3, 76, 89
5, 58944, Note_off_c, 3, 76, 64
5, 58944, Note_off_c, 3, 72, 64
5, 58944, Note_off_c, 3, 67, 64
5, 59040, Note_on_c, 3, 67, 90
5, 59040, Note_on_c, 3, 72, 91
5, 59040, Note_on_c, 3, 76, 89
5, 59424, Note_off_c, 3, 76, 64
5, 59424, Note_off_c, 3, 72, 64
5, 59424, Note_off_c, 3, 67, 64
5, 59520, Note_on_c, 3, 70, 91
5, 59520, Note_on_c, 3, 72, 83
5, 59520, Note_on_c, 3, 76, 93
5, 59904, Note_off_c, 3, 76, 64
5, 59904, Note_off_c, 3, 72, 64
5, 59904, Note_off_c, 3, 70, 64
5, 60000, Note_on_c, 3, 70, 96
5, 60000, Note_on_c, 3, 72, 89
5, 60000, Note_on_c, 3, 76, 97
5, 60384, Note_off_c, 3, 76, 64
5, 60384, Note_off_c, 3, 72, 64
5, 60384, Note_off_c, 3, 70, 64
5, 60480, Note_on_c, 3, 70, 90
5, 60480, Note_on_c, 3, 72, 81
5, 60480, Note_on_c, 3, 76, 88
5, 60864, Note_off_c, 3, 76, 64
5, 60864, Note_off_c, 3, 72, 64
5, 60864, Note_off_c, 3, 70, 64
5, 61440, Control_c, 3, 64, 0
5, 61440, Control_c, 3, 64, 127
5, 61440, Note_on_c, 3, 41, 93
5, 61920, Note_on_c, 3, 57, 78
5, 61920, Note_on_c, 3, 51, 87
5, 61920, Note_on_c, 3, 53, 80
5, 62280, Note_off_c, 3, 53, 64
5, 62288, Note_off_c, 3, 51, 64
5, 62308, Note_off_c, 3, 57, 64
5, 62880, Note_on_c, 3, 57, 91
5, 62880, Note_on_c, 3, 51, 94
5, 62880, Note_on_c, 3, 53, 91
5, 63040, Note_off_c, 3, 53, 64
5, 63040, Note_off_c, 3, 51, 64
5, 63052, Note_off_c, 3, 57, 64
5, 63104, Note_off_c, 3, 41, 64
5, 63360, Note_on_c, 3, 41, 86
5, 63840, Note_on_c, 3, 57, 86
5, 63840, Note_on_c, 3, 51, 78
5, 63840, Note_on_c, 3, 53, 90
5, 64044, Note_off_c, 3, 51, 64
5, 64052, Note_off_c, 3, 41, 64
5, 64088, Note_off_c, 3, 53, 64
5, 64100, Note_off_c, 3, 57, 64
5, 64320, Note_on_c, 3, 41, 88
5, 64800, Note_on_c, 3, 51, 87
5, 64800, Note_on_c, 3, 53, 93
5, 64800, Note_on_c, 3, 57, 92
5, 64932, Note_off_c, 3, 57, 64
5, 64972, Note_off_c, 3, 53, 64
5, 64972, Note_off_c, 3, 51, 64
5, 64992, Note_off_c, 3, 41, 64
5, 65280, Control_c, 3, 64, 0
5, 65280, Control_c, 3, 64, 127
5, 65280, Note_on_c, 3, 48, 103
5, 65760, Note_on_c, 3, 60, 90
5, 65760, Note_on_c, 3, 55, 103
5, 65760, Note_on_c, 3, 52, 91
5, 65888, Note_off_c, 3, 52, 64
5, 65900, Note_off_c, 3, 55, 64
5, 65912, Note_off_c, 3, 60, 64
5, 66080, Note_on_c, 3, 60, 90
5, 66080, Note_on_c, 3, 52, 90
5, 66080, Note_on_c, 3, 55, 97
5, 66372, Note_off_c, 3, 55, 64
5, 66372, Note_off_c, 3, 52, 64
5, 66396, Note_off_c, 3, 48, 64
5, 66416, Note_off_c, 3, 60, 64
5, 66560, Note_on_c, 3, 48, 91
5, 66720, Note_on_c, 3, 60, 99
5, 66720, Note_on_c, 3, 52, 83
5, 66720, Note_on_c, 3, 55, 90
5, 66860, Note_off_c, 3, 48, 64
5, 66988, Note_off_c, 3, 55, 64
5, 67000, Note_off_c, 3, 52, 64
5, 67036, Note_off_c, 3, 60, 64
5, 67680, Note_on_c, 3, 67, 91
5, 67680, Note_on_c, 3, 72, 97
5, 67680, Note_on_c, 3, 76, 89
5, 68140, Note_off_c, 3, 76, 64
5, 68140, Note_off_c, 3, 72, 64
5, 68140, Note_off_c, 3, 67, 64
5, 68160, Control_c, 3, 86, 37
5, 69120, Control_c, 3, 64, 0
5, 69120, Control_c, 3, 64, 127
5, 69120, Note_on_c, 3, 43, 103
5, 69600, Note_on_c, 3, 62, 89
5, 69600, Note_on_c, 3, 55, 94
5, 69600, Note_on_c, 3, 59, 90
5, 69960, Note_off_c, 3, 59, 64
5, 69968, Note_off_c, 3, 55, 64
5, 69988, Note_off_c, 3, 62, 64
5, 70560, Note_on_c, 3, 62, 92
5, 70560, Note_on_c, 3, 55, 89
5, 70560, Note_on_c, 3, 59, 92
5, 70720, Note_off_c, 3, 59, 64
5, 70720, Note_off_c, 3, 55, 64
5, 70732, Note_off_c, 3, 62, 64
5, 70784, Note_off_c, 3, 43, 64
5, 71040, Note_on_c, 3, 43, 90
5, 71520, Note_on_c, 3, 62, 85
5, 71520, Note_on_c, 3, 55, 92
5, 71520, Note_on_c, 3, 59, 102
5, 71724, Note_off_c, 3, 55, 64
5, 71732, Note_off_c, 3, 43, 64
5, 71768, Note_off_c, 3, 59, 64
5, 71780, Note_off_c, 3, 62, 64
5, 72000, Note_on_c, 3, 43, 79
5, 72480, Note_on_c, 3, 55, 90
5, 72480, Note_on_c, 3, 59, 76
5, 72480, Note_on_c, 3, 62, 81
5, 72612, Note_off_c, 3, 62, 64
5, 72652, Note_off_c, 3, 59, 64
5, 72652, Note_off_c, 3, 55, 64
5, 72672, Note_off_c, 3, 43, 64
5, 73920, Note_on_c, 3, 67, 92
5, 73920, Note_on_c, 3, 72, 103
5, 73920, Note_on_c, 3, 76, 91
5, 74304, Note_off_c, 3, 76, 64
5, 74304, Note_off_c, 3, 72, 64
5, 74304, Note_off_c, 3, 67, 64
5, 74400, Note_on_c, 3, 67, 82
5, 74400, Note_on_c, 3, 72, 77
5, 74400, Note_on_c, 3, 76, 89
5, 74784, Note_off_c, 3, 76, 64
5, 74784, Note_off_c, 3, 72, 64
5, 74784, Note_off_c, 3, 67, 64
5, 74880, Note_on_c, 3, 67, 90
5, 74880, Note_on_c, 3, 72, 91
5, 74880, Note_on_c, 3, 76, 84
5, 75264, Note_off_c, 3, 76, 64
5, 75264, Note_off_c, 3, 72, 64
5, 75264, Note_off_c, 3, 67, 64
5, 75360, Note_on_c, 3, 67, 95
5, 75360, Note_on_c, 3, 72, 78
5, 75360, Note_on_c, 3, 76, 102
5, 75744, Note_off_c, 3, 76, 64
5, 75744, Note_off_c, 3, 72, 64
5, 75744, Note_off_c, 3, 67, 64
5, 75840, Note_on_c, 3, 67, 83
5, 75840, Note_on_c, 3, 72, 90
5, 75840, Note_on_c, 3, 76, 101
5, 76300, Note_off_c, 3, 76, 64
5, 76300, Note_off_c, 3, 72, 64
5, 76300, Note_off_c, 3, 67, 64
5, 76320, Control_c, 3, 86, 37
5, 76800, Control_c, 3, 64, 0
5, 76800, Control_c, 3, 64, 127
5, 76800, Note_on_c, 3, 48, 95
5, 77280, Note_on_c, 3, 60, 82
5, 77280, Note_on_c, 3, 52, 94
5, 77280, Note_on_c, 3, 55, 89
5, 77832, Note_off_c, 3, 55, 64
5, 77904, Note_off_c, 3, 52, 64
5, 77928, Note_off_c, 3, 60, 64
5, 78240, Note_on_c, 3, 60, 95
5, 78240, Note_on_c, 3, 52, 103
5, 78240, Note_on_c, 3, 55, 91
5, 78316, Note_off_c, 3, 55, 64
5, 78400, Note_off_c, 3, 52, 64
5, 78436, Note_off_c, 3, 60, 64
5, 78464, Note_off_c, 3, 48, 64
5, 78720, Note_on_c, 3, 48, 95
5, 79200, Note_on_c, 3, 60, 85
5, 79200, Note_on_c, 3, 52, 102
5, 79200, Note_on_c, 3, 55, 90
5, 79600, Note_off_c, 3, 55, 64
5, 79656, Note_off_c, 3, 52, 64
5, 79712, Note_off_c, 3, 60, 64
5, 79876, Note_off_c, 3, 48, 64
5, 80000, Note_on_c, 3, 48, 85
5, 80140, Note_off_c, 3, 48, 64
5, 80160, Note_on_c, 3, 60, 98
5, 80160, Note_on_c, 3, 52, 87
5, 80160, Note_on_c, 3, 55, 90
5, 80332, Note_off_c, 3, 55, 64
5, 80388, Note_off_c, 3, 52, 64
5, 80408, Note_off_c, 3, 60, 64
5, 80640, Control_c, 3, 64, 0
5, 80640, Control_c, 3, 64, 127
5, 80640, Note_on_c, 3, 48, 91
5, 81120, Note_on_c, 3, 64, 89
5, 81120, Note_on_c, 3, 60, 89
5, 81120, Note_on_c, 3, 52, 79
5, 81120, Note_on_c, 3, 55, 89
5, 81560, Note_off_c, 3, 55, 64
5, 81648, Note_off_c, 3, 60, 64
5, 81704, Note_off_c, 3, 64, 64
5, 81704, Note_off_c, 3, 52, 64
5, 82080, Note_on_c, 3, 60, 83
5, 82080, Note_on_c, 3, 52, 81
5, 82080, Note_on_c, 3, 55, 94
5, 82292, Note_off_c, 3, 48, 64
5, 82296, Note_off_c, 3, 52, 64
5, 82328, Note_off_c, 3, 60, 64
5, 82328, Note_off_c, 3, 55, 64
5, 82560, Control_c, 3, 64, 0
5, 82560, Control_c, 3, 64, 127
5, 82560, Note_on_c, 3, 48, 82
5, 82880, Note_on_c, 3, 52, 84
5, 83040, Note_on_c, 3, 58, 88
5, 83040, Note_on_c, 3, 55, 96
5, 83148, Note_off_c, 3, 55, 64
5, 83204, Note_off_c, 3, 58, 64
5, 83204, Note_off_c, 3, 52, 64
5, 83360, Note_on_c, 3, 58, 92
5, 83360, Note_on_c, 3, 55, 91
5, 83360, Note_on_c, 3, 52, 79
5, 83652, Note_off_c, 3, 52, 64
5, 83664, Note_off_c, 3, 55, 64
5, 83692, Note_off_c, 3, 58, 64
5, 84000, Note_on_c, 3, 58, 87
5, 84000, Note_on_c, 3, 52, 88
5, 84000, Note_on_c, 3, 55, 91
5, 84172, Note_off_c, 3, 52, 64
5, 84184, Note_off_c, 3, 55, 64
5, 84216, Note_off_c, 3, 48, 64
5, 84228, Note_off_c, 3, 58, 64
5, 84480, Control_c, 3, 64, 0
5, 84480, Control_c, 3, 64, 127
5, 84480, Note_on_c, 3, 41, 82
5, 84960, Note_on_c, 3, 57, 92
5, 84960, Note_on_c, 3, 53, 90
5, 84960, Note_on_c, 3, 51, 91
5, 85088, Note_off_c, 3, 51, 64
5, 85100, Note_off_c, 3, 53, 64
5, 85112, Note_off_c, 3, 57, 64
5, 85280, Note_on_c, 3, 57, 95
5, 85280, Note_on_c, 3, 51, 88
5, 85280, Note_on_c, 3, 53, 82
5, 85572, Note_off_c, 3, 53, 64
5, 85572, Note_off_c, 3, 51, 64
5, 85596, Note_off_c, 3, 41, 64
5, 85616, Note_off_c, 3, 57, 64
5, 85760, Note_on_c, 3, 41, 94
5, 85920, Note_on_c, 3, 57, 91
5, 85920, Note_on_c, 3, 51, 92
5, 85920, Note_on_c, 3, 53, 91
5, 86060, Note_off_c, 3, 41, 64
5, 86188, Note_off_c, 3, 53, 64
5, 86200, Note_off_c, 3, 51, 64
5, 86236, Note_off_c, 3, 57, 64
5, 86400, Note_on_c, 3, 41, 87
5, 86880, Note_on_c, 3, 57, 90
5, 86880, Note_on_c, 3, 51, 90
5, 86880, Note_on_c, 3, 53, 105
5, 86952, Note_off_c, 3, 53, 64
5, 86976, Note_off_c, 3, 51, 64
5, 87044, Note_off_c, 3, 57, 64
5, 87200, Note_on_c, 3, 57, 94
5, 87200, Note_on_c, 3, 51, 93
5, 87200, Note_on_c, 3, 53, 96
5, 87392, Note_off_c, 3, 53, 64
5, 87404, Note_off_c, 3, 51, 64
5, 87436, Note_off_c, 3, 57, 64
5, 87568, Note_off_c, 3, 41, 64
5, 87680, Note_on_c, 3, 41, 81
5, 87736, Note_off_c, 3, 41, 64
5, 87840, Note_on_c, 3, 57, 80
5, 87840, Note_on_c, 3, 51, 97
5, 87840, Note_on_c, 3, 53, 88
5, 88080, Note_off_c, 3, 53, 64
5, 88080, Note_off_c, 3, 51, 64
5, 88108, Note_off_c, 3, 57, 64
5, 88320, Control_c, 3, 64, 0
5, 88320, Control_c, 3, 64, 127
5, 88320, Note_on_c, 3, 48, 90
5, 88800, Note_on_c, 3, 60, 101
5, 88800, Note_on_c, 3, 55, 94
5, 88800, Note_on_c, 3, 52, 87
5, 88928, Note_off_c, 3, 52, 64
5, 88940, Note_off_c, 3, 55, 64
5, 88952, Note_off_c, 3, 60, 64
5, 89120, Note_on_c, 3, 60, 86
5, 89120, Note_on_c, 3, 52, 90
5, 89120, Note_on_c, 3, 55, 87
5, 89412, Note_off_c, 3, 55, 64
5, 89412, Note_off_c, 3, 52, 64
5, 89436, Note_off_c, 3, 48, 64
5, 89456, Note_off_c, 3, 60, 64
5, 89600, Note_on_c, 3, 48, 84
5, 89760, Note_on_c, 3, 60, 89
5, 89760, Note_on_c, 3, 52, 79
5, 89760, Note_on_c, 3, 55, 85
5, 89900, Note_off_c, 3, 48, 64
5, 90028, Note_off_c, 3, 55, 64
5, 90040, Note_off_c, 3, 52, 64
5, 90076, Note_off_c, 3, 60, 64
5, 90240, Control_c, 3, 64, 0
5, 90240, Control_c, 3, 64, 127
5, 90240, Note_on_c, 3, 43, 90
5, 90720, Note_on_c, 3, 59, 92
5, 90720, Note_on_c, 3, 53, 85
5, 90720, Note_on_c, 3, 55, 89
5, 91080, Note_off_c, 3, 55, 64
5, 91088, Note_off_c, 3, 53, 64
5, 91108, Note_off_c, 3, 59, 64
5, 91200, Note_off_c, 3, 43, 64
5, 91200, Control_c, 3, 64, 0
5, 91200, Control_c, 3, 64, 127
5, 91200, Note_on_c, 3, 48, 93
5, 91680, Note_on_c, 3, 64, 87
5, 91680, Note_on_c, 3, 60, 95
5, 91680, Note_on_c, 3, 52, 88
5, 91680, Note_on_c, 3, 55, 90
5, 92120, Note_off_c, 3, 55, 64
5, 92160, Note_off_c, 3, 52, 64
5, 92160, Note_off_c, 3, 60, 64
5, 92160, Note_off_c, 3, 64, 64
5, 92160, Note_off_c, 3, 48, 64
5, 92160, Control_c, 3, 64, 0
5, 92160, Note_on_c, 3, 48, 77
5, 92160, Note_on_c, 3, 60, 86
5, 92320, Control_c, 3, 64, 127
5, 92480, Note_on_c, 3, 52, 102
5, 92484, Note_off_c, 3, 60, 64
5, 92640, Note_on_c, 3, 55, 90
5, 92960, Note_on_c, 3, 60, 97
5, 93160, Note_off_c, 3, 52, 64
5, 93344, Note_off_c, 3, 55, 64
5, 93416, Note_off_c, 3, 60, 64
5, 93440, Note_on_c, 3, 52, 80
5, 93600, Note_on_c, 3, 55, 79
5, 93804, Note_off_c, 3, 48, 64
5, 93920, Note_on_c, 3, 60, 103
5, 94080, Note_off_c, 3, 52, 64
5, 94080, Note_off_c, 3, 55, 64
5, 94080, Note_off_c, 3, 60, 64
5, 94080, Control_c, 3, 64, 0
5, 94080, Note_on_c, 3, 41, 94
5, 94080, Note_on_c, 3, 60, 96
5, 94080, Control_c, 3, 64, 127
5, 94416, Note_off_c, 3, 60, 64
5, 94416, Note_on_c, 3, 53, 95
5, 94560, Note_on_c, 3, 57, 95
5, 94764, Note_off_c, 3, 57, 64
5, 94840, Note_off_c, 3, 53, 64
5, 94880, Note_on_c, 3, 60, 85
5, 94880, Note_on_c, 3, 53, 103
5, 94880, Note_on_c, 3, 57, 83
5, 95268, Note_off_c, 3, 41, 64
5, 95280, Note_off_c, 3, 57, 64
5, 95312, Note_off_c, 3, 60, 64
5, 95360, Note_off_c, 3, 53, 64
5, 95360, Note_on_c, 3, 41, 91
5, 95520, Note_on_c, 3, 57, 84
5, 95520, Note_on_c, 3, 60, 87
5, 95520, Note_on_c, 3, 53, 90
5, 95552, Note_off_c, 3, 41, 64
5, 95768, Note_off_c, 3, 57, 64
5, 95792, Note_off_c, 3, 60, 64
5, 95800, Note_off_c, 3, 53, 64
5, 96000, Control_c, 3, 64, 0
5, 96000, Note_on_c, 3, 48, 102
5, 96000, Note_on_c, 3, 60, 78
5, 96160, Control_c, 3, 64, 127
5, 96320, Note_on_c, 3, 52, 82
5, 96324, Note_off_c, 3, 60, 64
5, 96480, Note_on_c, 3, 55, 83
5, 96800, Note_on_c, 3, 60, 105
5, 97000, Note_off_c, 3, 52, 64
5, 97184, Note_off_c, 3, 55, 64
5, 97256, Note_off_c, 3, 60, 64
5, 97280, Note_on_c, 3, 52, 93
5, 97440, Note_on_c, 3, 55, 88
5, 97644, Note_off_c, 3, 48, 64
5, 97760, Note_on_c, 3, 60, 90
5, 97920, Note_off_c, 3, 52, 64
5, 97920, Note_off_c, 3, 55, 64
5, 97920, Note_off_c, 3, 60, 64
5, 97920, Control_c, 3, 64, 0
5, 97920, Control_c, 3, 64, 127
5, 97920, Note_on_c, 3, 43, 89
5, 98240, Note_on_c, 3, 53, 84
5, 98400, Note_on_c, 3, 55, 103
5, 98720, Note_on_c, 3, 59, 91
5, 99060, Note_off_c, 3, 53, 64
5, 99148, Note_off_c, 3, 55, 64
5, 99172, Note_off_c, 3, 59, 64
5, 99200, Note_on_c, 3, 53, 93
5, 99360, Note_on_c, 3, 55, 81
5, 99680, Note_on_c, 3, 59, 90
5, 99840, Note_off_c, 3, 59, 64
5, 99840, Note_off_c, 3, 55, 64
5, 99840, Note_off_c, 3, 43, 64
5, 99840, Note_off_c, 3, 53, 64
5, 100800, Note_on_c, 3, 67, 99
5, 100800, Note_on_c, 3, 72, 86
5, 100800, Note_on_c, 3, 76, 80
5, 101184, Note_off_c, 3, 76, 64
5, 101184, Note_off_c, 3, 72, 64
5, 101184, Note_off_c, 3, 67, 64
5, 101280, Note_on_c, 3, 67, 90
5, 101280, Note_on_c, 3, 72, 91
5, 101280, Note_on_c, 3, 76, 88
5, 101664, Note_off_c, 3, 76, 64
5, 101664, Note_off_c, 3, 72, 64
5, 101664, Note_off_c, 3, 67, 64
5, 101760, Note_on_c, 3, 60, 96
5, 101760, Note_on_c, 3, 64, 75
5, 101760, Note_on_c, 3, 67, 99
5, 101760, Note_on_c, 3, 72, 90
5, 101760, Note_on_c, 3, 76, 93
5, 103660, Note_off_c, 3, 76, 64
5, 103660, Note_off_c, 3, 72, 64
5, 103660, Note_off_c, 3, 67, 64
5, 103660, Note_off_c, 3, 64, 64
5, 103660, Note_off_c, 3, 60, 64
5, 103660, End_track
6, 0, Start_track
6, 0, Title_t, "Bass    "
6, 0, MIDI_port, 0
6, 0, Channel_prefix, 4
6, 0, Control_c, 4, 7, 104
6, 0, Control_c, 4, 10, 0
6, 0, Program_c, 4, 32
6, 0, Control_c, 4, 121, 0
6, 40, Control_c, 4, 123, 0
6, 120, Control_c, 4, 91, 65
6, 160, Control_c, 4, 64, 0
6, 3840, Note_on_c, 4, 36, 63
6, 4708, Note_off_c, 4, 36, 64
6, 4800, Note_on_c, 4, 43, 69
6, 5616, Note_off_c, 4, 43, 64
6, 5760, Note_on_c, 4, 36, 66
6, 6668, Note_off_c, 4, 36, 64
6, 6720, Note_on_c, 4, 43, 84
6, 7312, Note_off_c, 4, 43, 64
6, 7680, Note_on_c, 4, 36, 63
6, 8548, Note_off_c, 4, 36, 64
6, 8640, Note_on_c, 4, 43, 69
6, 9456, Note_off_c, 4, 43, 64
6, 9600, Note_on_c, 4, 36, 63
6, 10468, Note_off_c, 4, 36, 64
6, 10560, Note_on_c, 4, 43, 69
6, 11376, Note_off_c, 4, 43, 64
6, 11520, Note_on_c, 4, 41, 63
6, 12388, Note_off_c, 4, 41, 64
6, 12480, Note_on_c, 4, 36, 69
6, 13296, Note_off_c, 4, 36, 64
6, 13440, Note_on_c, 4, 41, 66
6, 14348, Note_off_c, 4, 41, 64
6, 14400, Note_on_c, 4, 36, 84
6, 14992, Note_off_c, 4, 36, 64
6, 15360, Note_on_c, 4, 36, 63
6, 16228, Note_off_c, 4, 36, 64
6, 16320, Note_on_c, 4, 43, 69
6, 17136, Note_off_c, 4, 43, 64
6, 17280, Note_on_c, 4, 36, 66
6, 18188, Note_off_c, 4, 36, 64
6, 18240, Note_on_c, 4, 43, 84
6, 18832, Note_off_c, 4, 43, 64
6, 19200, Note_on_c, 4, 43, 74
6, 20104, Note_off_c, 4, 43, 64
6, 20160, Note_on_c, 4, 38, 73
6, 21120, Note_on_c, 4, 43, 65
6, 21316, Note_off_c, 4, 38, 64
6, 22080, Note_on_c, 4, 38, 78
6, 22152, Note_off_c, 4, 43, 64
6, 22400, Note_on_c, 4, 38, 56
6, 22404, Note_off_c, 4, 38, 64
6, 22516, Note_off_c, 4, 38, 64
6, 22560, Note_on_c, 4, 43, 76
6, 22844, Note_off_c, 4, 43, 64
6, 23040, Note_on_c, 4, 36, 63
6, 23908, Note_off_c, 4, 36, 64
6, 24000, Note_on_c, 4, 43, 69
6, 24816, Note_off_c, 4, 43, 64
6, 24960, Note_on_c, 4, 36, 66
6, 25868, Note_off_c, 4, 36, 64
6, 25920, Note_on_c, 4, 43, 84
6, 26512, Note_off_c, 4, 43, 64
6, 26880, Note_on_c, 4, 36, 74
6, 27784, Note_off_c, 4, 36, 64
6, 27840, Note_on_c, 4, 43, 73
6, 28800, Note_on_c, 4, 36, 65
6, 28996, Note_off_c, 4, 43, 64
6, 29760, Note_on_c, 4, 43, 78
6, 29832, Note_off_c, 4, 36, 64
6, 30080, Note_on_c, 4, 31, 56
6, 30084, Note_off_c, 4, 43, 64
6, 30196, Note_off_c, 4, 31, 64
6, 30240, Note_on_c, 4, 36, 76
6, 30524, Note_off_c, 4, 36, 64
6, 30720, Note_on_c, 4, 36, 83
6, 31364, Note_off_c, 4, 36, 64
6, 31520, Note_on_c, 4, 36, 59
6, 31676, Note_off_c, 4, 36, 64
6, 31680, Note_on_c, 4, 43, 70
6, 32200, Note_off_c, 4, 43, 64
6, 32640, Note_on_c, 4, 36, 63
6, 33508, Note_off_c, 4, 36, 64
6, 33600, Note_on_c, 4, 43, 69
6, 34416, Note_off_c, 4, 43, 64
6, 34560, Note_on_c, 4, 41, 74
6, 35464, Note_off_c, 4, 41, 64
6, 35520, Note_on_c, 4, 36, 73
6, 36480, Note_on_c, 4, 41, 65
6, 36676, Note_off_c, 4, 36, 64
6, 37440, Note_on_c, 4, 36, 78
6, 37512, Note_off_c, 4, 41, 64
6, 37760, Note_on_c, 4, 36, 56
6, 37764, Note_off_c, 4, 36, 64
6, 37876, Note_off_c, 4, 36, 64
6, 37920, Note_on_c, 4, 41, 76
6, 38204, Note_off_c, 4, 41, 64
6, 38400, Note_on_c, 4, 36, 66
6, 39252, Note_off_c, 4, 36, 64
6, 39360, Note_on_c, 4, 31, 74
6, 40256, Note_off_c, 4, 31, 64
6, 40320, Note_on_c, 4, 43, 63
6, 41188, Note_off_c, 4, 43, 64
6, 41280, Note_on_c, 4, 36, 63
6, 42148, Note_off_c, 4, 36, 64
6, 42240, Note_on_c, 4, 36, 63
6, 43108, Note_off_c, 4, 36, 64
6, 43200, Note_on_c, 4, 43, 69
6, 44016, Note_off_c, 4, 43, 64
6, 44160, Note_on_c, 4, 41, 72
6, 44960, Note_on_c, 4, 36, 66
6, 45028, Note_off_c, 4, 41, 64
6, 45120, Note_on_c, 4, 41, 74
6, 45132, Note_off_c, 4, 36, 64
6, 45512, Note_off_c, 4, 41, 64
6, 45600, Note_on_c, 4, 41, 71
6, 45752, Note_off_c, 4, 41, 64
6, 46080, Note_on_c, 4, 36, 63
6, 46948, Note_off_c, 4, 36, 64
6, 47040, Note_on_c, 4, 43, 69
6, 47856, Note_off_c, 4, 43, 64
6, 48000, Note_on_c, 4, 43, 69
6, 48800, Note_on_c, 4, 38, 75
6, 48856, Note_off_c, 4, 43, 64
6, 48952, Note_off_c, 4, 38, 64
6, 48960, Note_on_c, 4, 43, 71
6, 49308, Note_off_c, 4, 43, 64
6, 49440, Note_on_c, 4, 43, 68
6, 49644, Note_off_c, 4, 43, 64
6, 49920, Note_on_c, 4, 36, 80
6, 50588, Note_off_c, 4, 36, 64
6, 50720, Note_on_c, 4, 36, 55
6, 50880, Note_on_c, 4, 43, 82
6, 50904, Note_off_c, 4, 36, 64
6, 51788, Note_off_c, 4, 43, 64
6, 51840, Note_on_c, 4, 36, 81
6, 52444, Note_off_c, 4, 36, 64
6, 52640, Note_on_c, 4, 36, 43
6, 52800, Note_on_c, 4, 43, 91
6, 52812, Note_off_c, 4, 36, 64
6, 53124, Note_off_c, 4, 43, 64
6, 53124, Note_on_c, 4, 31, 55
6, 53244, Note_off_c, 4, 31, 64
6, 53280, Note_on_c, 4, 36, 77
6, 53528, Note_off_c, 4, 36, 64
6, 53760, Note_on_c, 4, 36, 74
6, 54664, Note_off_c, 4, 36, 64
6, 54720, Note_on_c, 4, 43, 73
6, 55680, Note_on_c, 4, 36, 65
6, 55876, Note_off_c, 4, 43, 64
6, 56640, Note_on_c, 4, 43, 78
6, 56712, Note_off_c, 4, 36, 64
6, 56960, Note_on_c, 4, 31, 56
6, 56964, Note_off_c, 4, 43, 64
6, 57076, Note_off_c, 4, 31, 64
6, 57120, Note_on_c, 4, 36, 76
6, 57404, Note_off_c, 4, 36, 64
6, 57600, Note_on_c, 4, 36, 63
6, 58468, Note_off_c, 4, 36, 64
6, 58560, Note_on_c, 4, 43, 69
6, 59376, Note_off_c, 4, 43, 64
6, 59520, Note_on_c, 4, 36, 83
6, 60164, Note_off_c, 4, 36, 64
6, 60320, Note_on_c, 4, 36, 59
6, 60476, Note_off_c, 4, 36, 64
6, 60480, Note_on_c, 4, 43, 70
6, 61000, Note_off_c, 4, 43, 64
6, 61440, Note_on_c, 4, 41, 74
6, 62344, Note_off_c, 4, 41, 64
6, 62400, Note_on_c, 4, 36, 73
6, 63360, Note_on_c, 4, 41, 65
6, 63556, Note_off_c, 4, 36, 64
6, 64320, Note_on_c, 4, 36, 78
6, 64392, Note_off_c, 4, 41, 64
6, 64640, Note_on_c, 4, 36, 56
6, 64644, Note_off_c, 4, 36, 64
6, 64756, Note_off_c, 4, 36, 64
6, 64800, Note_on_c, 4, 41, 76
6, 65084, Note_off_c, 4, 41, 64
6, 65280, Note_on_c, 4, 36, 63
6, 66148, Note_off_c, 4, 36, 64
6, 66240, Note_on_c, 4, 43, 69
6, 67056, Note_off_c, 4, 43, 64
6, 67200, Note_on_c, 4, 36, 66
6, 68108, Note_off_c, 4, 36, 64
6, 68160, Note_on_c, 4, 43, 84
6, 68752, Note_off_c, 4, 43, 64
6, 69120, Note_on_c, 4, 43, 63
6, 69988, Note_off_c, 4, 43, 64
6, 70080, Note_on_c, 4, 38, 69
6, 70896, Note_off_c, 4, 38, 64
6, 71040, Note_on_c, 4, 43, 66
6, 71948, Note_off_c, 4, 43, 64
6, 72000, Note_on_c, 4, 38, 84
6, 72592, Note_off_c, 4, 38, 64
6, 72960, Note_on_c, 4, 36, 74
6, 73864, Note_off_c, 4, 36, 64
6, 73920, Note_on_c, 4, 43, 73
6, 74880, Note_on_c, 4, 36, 65
6, 75076, Note_off_c, 4, 43, 64
6, 75840, Note_on_c, 4, 43, 78
6, 75912, Note_off_c, 4, 36, 64
6, 76160, Note_on_c, 4, 31, 56
6, 76164, Note_off_c, 4, 43, 64
6, 76276, Note_off_c, 4, 31, 64
6, 76320, Note_on_c, 4, 36, 76
6, 76604, Note_off_c, 4, 36, 64
6, 76800, Note_on_c, 4, 36, 74
6, 77704, Note_off_c, 4, 36, 64
6, 77760, Note_on_c, 4, 43, 73
6, 78720, Note_on_c, 4, 36, 65
6, 78916, Note_off_c, 4, 43, 64
6, 79680, Note_on_c, 4, 43, 78
6, 79752, Note_off_c, 4, 36, 64
6, 80000, Note_on_c, 4, 31, 56
6, 80004, Note_off_c, 4, 43, 64
6, 80116, Note_off_c, 4, 31, 64
6, 80160, Note_on_c, 4, 36, 76
6, 80444, Note_off_c, 4, 36, 64
6, 80640, Note_on_c, 4, 36, 63
6, 81508, Note_off_c, 4, 36, 64
6, 81600, Note_on_c, 4, 43, 69
6, 82416, Note_off_c, 4, 43, 64
6, 82560, Note_on_c, 4, 36, 63
6, 83428, Note_off_c, 4, 36, 64
6, 83520, Note_on_c, 4, 43, 69
6, 84336, Note_off_c, 4, 43, 64
6, 84480, Note_on_c, 4, 41, 63
6, 85348, Note_off_c, 4, 41, 64
6, 85440, Note_on_c, 4, 36, 69
6, 86256, Note_off_c, 4, 36, 64
6, 86400, Note_on_c, 4, 41, 66
6, 87308, Note_off_c, 4, 41, 64
6, 87360, Note_on_c, 4, 36, 84
6, 87952, Note_off_c, 4, 36, 64
6, 88320, Note_on_c, 4, 36, 83
6, 88964, Note_off_c, 4, 36, 64
6, 89120, Note_on_c, 4, 36, 59
6, 89276, Note_off_c, 4, 36, 64
6, 89280, Note_on_c, 4, 43, 70
6, 89800, Note_off_c, 4, 43, 64
6, 90240, Note_on_c, 4, 43, 63
6, 91108, Note_off_c, 4, 43, 64
6, 91200, Note_on_c, 4, 36, 63
6, 92068, Note_off_c, 4, 36, 64
6, 92160, Note_on_c, 4, 36, 63
6, 93028, Note_off_c, 4, 36, 64
6, 93120, Note_on_c, 4, 43, 69
6, 93936, Note_off_c, 4, 43, 64
6, 94080, Note_on_c, 4, 41, 72
6, 94880, Note_on_c, 4, 36, 66
6, 94948, Note_off_c, 4, 41, 64
6, 95040, Note_on_c, 4, 41, 74
6, 95052, Note_off_c, 4, 36, 64
6, 95432, Note_off_c, 4, 41, 64
6, 95520, Note_on_c, 4, 41, 71
6, 95672, Note_off_c, 4, 41, 64
6, 96000, Note_on_c, 4, 36, 63
6, 96868, Note_off_c, 4, 36, 64
6, 96960, Note_on_c, 4, 43, 69
6, 97776, Note_off_c, 4, 43, 64
6, 97920, Note_on_c, 4, 43, 70
6, 98880, Note_on_c, 4, 38, 85
6, 98888, Note_off_c, 4, 43, 64
6, 99192, Note_off_c, 4, 38, 64
6, 99200, Note_on_c, 4, 38, 57
6, 99324, Note_off_c, 4, 38, 64
6, 99360, Note_on_c, 4, 43, 68
6, 99620, Note_off_c, 4, 43, 64
6, 99840, Note_on_c, 4, 36, 63
6, 100708, Note_off_c, 4, 36, 64
6, 100800, Note_on_c, 4, 43, 69
6, 101616, Note_off_c, 4, 43, 64
6, 101760, Note_on_c, 4, 36, 79
6, 102240, Note_off_c, 4, 36, 64
6, 102240, End_track
7, 0, Start_track
7, 0, Title_t, "Drums   "
7, 0, MIDI_port, 0
7, 0, Channel_prefix, 9
7, 0, Control_c, 9, 7, 127
7, 0, Control_c, 9, 10, 64
7, 0, Program_c, 9, 32
7, 0, Control_c, 9, 121, 0
7, 40, Control_c, 9, 123, 0
7, 120, Control_c, 9, 91, 65
7, 3840, Note_on_c, 9, 35, 50
7, 3840, Note_on_c, 9, 42, 40
7, 3940, Note_off_c, 9, 42, 64
7, 3940, Note_off_c, 9, 35, 64
7, 4320, Note_on_c, 9, 42, 60
7, 4320, Note_on_c, 9, 37, 70
7, 4420, Note_off_c, 9, 37, 64
7, 4420, Note_off_c, 9, 42, 64
7, 4656, Note_on_c, 9, 35, 20
7, 4756, Note_off_c, 9, 35, 64
7, 4800, Note_on_c, 9, 35, 70
7, 4800, Note_on_c, 9, 42, 40
7, 4900, Note_off_c, 9, 42, 64
7, 4900, Note_off_c, 9, 35, 64
7, 5280, Note_on_c, 9, 42, 60
7, 5280, Note_on_c, 9, 37, 70
7, 5380, Note_off_c, 9, 37, 64
7, 5380, Note_off_c, 9, 42, 64
7, 5760, Note_on_c, 9, 35, 50
7, 5760, Note_on_c, 9, 42, 40
7, 5860, Note_off_c, 9, 42, 64
7, 5860, Note_off_c, 9, 35, 64
7, 6240, Note_on_c, 9, 42, 60
7, 6240, Note_on_c, 9, 37, 70
7, 6340, Note_off_c, 9, 37, 64
7, 6340, Note_off_c, 9, 42, 64
7, 6576, Note_on_c, 9, 35, 20
7, 6676, Note_off_c, 9, 35, 64
7, 6720, Note_on_c, 9, 35, 70
7, 6720, Note_on_c, 9, 42, 40
7, 6820, Note_off_c, 9, 42, 64
7, 6820, Note_off_c, 9, 35, 64
7, 7200, Note_on_c, 9, 42, 60
7, 7200, Note_on_c, 9, 37, 70
7, 7300, Note_off_c, 9, 37, 64
7, 7300, Note_off_c, 9, 42, 64
7, 7680, Note_on_c, 9, 35, 50
7, 7680, Note_on_c, 9, 42, 40
7, 7780, Note_off_c, 9, 42, 64
7, 7780, Note_off_c, 9, 35, 64
7, 8160, Note_on_c, 9, 42, 60
7, 8160, Note_on_c, 9, 37, 70
7, 8260, Note_off_c, 9, 37, 64
7, 8260, Note_off_c, 9, 42, 64
7, 8496, Note_on_c, 9, 35, 20
7, 8596, Note_off_c, 9, 35, 64
7, 8640, Note_on_c, 9, 35, 70
7, 8640, Note_on_c, 9, 42, 40
7, 8740, Note_off_c, 9, 42, 64
7, 8740, Note_off_c, 9, 35, 64
7, 9120, Note_on_c, 9, 42, 60
7, 9120, Note_on_c, 9, 37, 70
7, 9220, Note_off_c, 9, 37, 64
7, 9220, Note_off_c, 9, 42, 64
7, 9600, Note_on_c, 9, 35, 50
7, 9600, Note_on_c, 9, 42, 40
7, 9700, Note_off_c, 9, 42, 64
7, 9700, Note_off_c, 9, 35, 64
7, 10080, Note_on_c, 9, 42, 60
7, 10080, Note_on_c, 9, 37, 70
7, 10180, Note_off_c, 9, 37, 64
7, 10180, Note_off_c, 9, 42, 64
7, 10416, Note_on_c, 9, 35, 20
7, 10516, Note_off_c, 9, 35, 64
7, 10560, Note_on_c, 9, 35, 70
7, 10560, Note_on_c, 9, 42, 40
7, 10660, Note_off_c, 9, 42, 64
7, 10660, Note_off_c, 9, 35, 64
7, 11040, Note_on_c, 9, 42, 60
7, 11040, Note_on_c, 9, 37, 70
7, 11140, Note_off_c, 9, 37, 64
7, 11140, Note_off_c, 9, 42, 64
7, 11520, Note_on_c, 9, 35, 50
7, 11520, Note_on_c, 9, 42, 40
7, 11620, Note_off_c, 9, 42, 64
7, 11620, Note_off_c, 9, 35, 64
7, 12000, Note_on_c, 9, 42, 60
7, 12000, Note_on_c, 9, 37, 70
7, 12100, Note_off_c, 9, 37, 64
7, 12100, Note_off_c, 9, 42, 64
7, 12336, Note_on_c, 9, 35, 20
7, 12436, Note_off_c, 9, 35, 64
7, 12480, Note_on_c, 9, 35, 70
7, 12480, Note_on_c, 9, 42, 40
7, 12580, Note_off_c, 9, 42, 64
7, 12580, Note_off_c, 9, 35, 64
7, 12960, Note_on_c, 9, 42, 60
7, 12960, Note_on_c, 9, 37, 70
7, 13060, Note_off_c, 9, 37, 64
7, 13060, Note_off_c, 9, 42, 64
7, 13440, Note_on_c, 9, 35, 50
7, 13440, Note_on_c, 9, 42, 40
7, 13540, Note_off_c, 9, 42, 64
7, 13540, Note_off_c, 9, 35, 64
7, 13920, Note_on_c, 9, 42, 60
7, 13920, Note_on_c, 9, 37, 70
7, 14020, Note_off_c, 9, 37, 64
7, 14020, Note_off_c, 9, 42, 64
7, 14256, Note_on_c, 9, 35, 20
7, 14356, Note_off_c, 9, 35, 64
7, 14400, Note_on_c, 9, 35, 70
7, 14400, Note_on_c, 9, 42, 40
7, 14500, Note_off_c, 9, 42, 64
7, 14500, Note_off_c, 9, 35, 64
7, 14880, Note_on_c, 9, 42, 60
7, 14880, Note_on_c, 9, 37, 70
7, 14980, Note_off_c, 9, 37, 64
7, 14980, Note_off_c, 9, 42, 64
7, 15360, Note_on_c, 9, 35, 50
7, 15360, Note_on_c, 9, 42, 40
7, 15460, Note_off_c, 9, 42, 64
7, 15460, Note_off_c, 9, 35, 64
7, 15840, Note_on_c, 9, 42, 60
7, 15840, Note_on_c, 9, 37, 70
7, 15940, Note_off_c, 9, 37, 64
7, 15940, Note_off_c, 9, 42, 64
7, 16176, Note_on_c, 9, 35, 20
7, 16276, Note_off_c, 9, 35, 64
7, 16320, Note_on_c, 9, 35, 70
7, 16320, Note_on_c, 9, 42, 40
7, 16420, Note_off_c, 9, 42, 64
7, 16420, Note_off_c, 9, 35, 64
7, 16800, Note_on_c, 9, 42, 60
7, 16800, Note_on_c, 9, 37, 70
7, 16900, Note_off_c, 9, 37, 64
7, 16900, Note_off_c, 9, 42, 64
7, 17280, Note_on_c, 9, 35, 50
7, 17280, Note_on_c, 9, 42, 40
7, 17380, Note_off_c, 9, 42, 64
7, 17380, Note_off_c, 9, 35, 64
7, 17760, Note_on_c, 9, 42, 60
7, 17760, Note_on_c, 9, 37, 70
7, 17860, Note_off_c, 9, 37, 64
7, 17860, Note_off_c, 9, 42, 64
7, 18096, Note_on_c, 9, 35, 20
7, 18196, Note_off_c, 9, 35, 64
7, 18240, Note_on_c, 9, 35, 70
7, 18240, Note_on_c, 9, 42, 40
7, 18340, Note_off_c, 9, 42, 64
7, 18340, Note_off_c, 9, 35, 64
7, 18720, Note_on_c, 9, 42, 60
7, 18720, Note_on_c, 9, 37, 70
7, 18820, Note_off_c, 9, 37, 64
7, 18820, Note_off_c, 9, 42, 64
7, 19200, Note_on_c, 9, 35, 50
7, 19200, Note_on_c, 9, 42, 40
7, 19300, Note_off_c, 9, 42, 64
7, 19300, Note_off_c, 9, 35, 64
7, 19680, Note_on_c, 9, 42, 60
7, 19680, Note_on_c, 9, 37, 70
7, 19780, Note_off_c, 9, 37, 64
7, 19780, Note_off_c, 9, 42, 64
7, 20016, Note_on_c, 9, 35, 20
7, 20116, Note_off_c, 9, 35, 64
7, 20160, Note_on_c, 9, 35, 70
7, 20160, Note_on_c, 9, 42, 40
7, 20260, Note_off_c, 9, 42, 64
7, 20260, Note_off_c, 9, 35, 64
7, 20640, Note_on_c, 9, 42, 60
7, 20640, Note_on_c, 9, 37, 70
7, 20740, Note_off_c, 9, 37, 64
7, 20740, Note_off_c, 9, 42, 64
7, 21120, Note_on_c, 9, 35, 50
7, 21120, Note_on_c, 9, 42, 40
7, 21220, Note_off_c, 9, 42, 64
7, 21220, Note_off_c, 9, 35, 64
7, 21600, Note_on_c, 9, 42, 60
7, 21600, Note_on_c, 9, 37, 70
7, 21700, Note_off_c, 9, 37, 64
7, 21700, Note_off_c, 9, 42, 64
7, 21936, Note_on_c, 9, 35, 20
7, 22036, Note_off_c, 9, 35, 64
7, 22080, Note_on_c, 9, 35, 70
7, 22080, Note_on_c, 9, 42, 40
7, 22180, Note_off_c, 9, 42, 64
7, 22180, Note_off_c, 9, 35, 64
7, 22560, Note_on_c, 9, 42, 60
7, 22560, Note_on_c, 9, 37, 70
7, 22660, Note_off_c, 9, 37, 64
7, 22660, Note_off_c, 9, 42, 64
7, 23040, Note_on_c, 9, 35, 50
7, 23040, Note_on_c, 9, 42, 40
7, 23140, Note_off_c, 9, 42, 64
7, 23140, Note_off_c, 9, 35, 64
7, 23520, Note_on_c, 9, 42, 60
7, 23520, Note_on_c, 9, 37, 70
7, 23620, Note_off_c, 9, 37, 64
7, 23620, Note_off_c, 9, 42, 64
7, 23856, Note_on_c, 9, 35, 20
7, 23956, Note_off_c, 9, 35, 64
7, 24000, Note_on_c, 9, 35, 70
7, 24000, Note_on_c, 9, 42, 40
7, 24100, Note_off_c, 9, 42, 64
7, 24100, Note_off_c, 9, 35, 64
7, 24480, Note_on_c, 9, 42, 60
7, 24480, Note_on_c, 9, 37, 70
7, 24580, Note_off_c, 9, 37, 64
7, 24580, Note_off_c, 9, 42, 64
7, 24960, Note_on_c, 9, 35, 50
7, 24960, Note_on_c, 9, 42, 40
7, 25060, Note_off_c, 9, 42, 64
7, 25060, Note_off_c, 9, 35, 64
7, 25440, Note_on_c, 9, 42, 60
7, 25440, Note_on_c, 9, 37, 70
7, 25540, Note_off_c, 9, 37, 64
7, 25540, Note_off_c, 9, 42, 64
7, 25772, Note_on_c, 9, 35, 20
7, 25872, Note_off_c, 9, 35, 64
7, 25920, Note_on_c, 9, 35, 70
7, 25920, Note_on_c, 9, 42, 40
7, 26020, Note_off_c, 9, 42, 64
7, 26020, Note_off_c, 9, 35, 64
7, 26252, Note_on_c, 9, 42, 70
7, 26352, Note_off_c, 9, 42, 64
7, 26400, Note_on_c, 9, 38, 70
7, 26400, Note_on_c, 9, 42, 60
7, 26400, Note_on_c, 9, 37, 70
7, 26500, Note_off_c, 9, 37, 64
7, 26500, Note_off_c, 9, 42, 64
7, 26500, Note_off_c, 9, 38, 64
7, 26732, Note_on_c, 9, 38, 40
7, 26732, Note_on_c, 9, 42, 70
7, 26832, Note_off_c, 9, 42, 64
7, 26832, Note_off_c, 9, 38, 64
7, 26880, Note_on_c, 9, 35, 50
7, 26880, Note_on_c, 9, 42, 40
7, 26980, Note_off_c, 9, 42, 64
7, 26980, Note_off_c, 9, 35, 64
7, 27360, Note_on_c, 9, 42, 60
7, 27360, Note_on_c, 9, 37, 70
7, 27460, Note_off_c, 9, 37, 64
7, 27460, Note_off_c, 9, 42, 64
7, 27696, Note_on_c, 9, 35, 20
7, 27796, Note_off_c, 9, 35, 64
7, 27840, Note_on_c, 9, 35, 70
7, 27840, Note_on_c, 9, 42, 40
7, 27940, Note_off_c, 9, 42, 64
7, 27940, Note_off_c, 9, 35, 64
7, 28320, Note_on_c, 9, 42, 60
7, 28320, Note_on_c, 9, 37, 70
7, 28420, Note_off_c, 9, 37, 64
7, 28420, Note_off_c, 9, 42, 64
7, 28800, Note_on_c, 9, 35, 50
7, 28800, Note_on_c, 9, 42, 40
7, 28900, Note_off_c, 9, 42, 64
7, 28900, Note_off_c, 9, 35, 64
7, 29280, Note_on_c, 9, 42, 60
7, 29280, Note_on_c, 9, 37, 70
7, 29380, Note_off_c, 9, 37, 64
7, 29380, Note_off_c, 9, 42, 64
7, 29616, Note_on_c, 9, 35, 20
7, 29716, Note_off_c, 9, 35, 64
7, 29760, Note_on_c, 9, 35, 70
7, 29760, Note_on_c, 9, 42, 40
7, 29860, Note_off_c, 9, 42, 64
7, 29860, Note_off_c, 9, 35, 64
7, 30240, Note_on_c, 9, 42, 60
7, 30240, Note_on_c, 9, 37, 70
7, 30340, Note_off_c, 9, 37, 64
7, 30340, Note_off_c, 9, 42, 64
7, 30720, Note_on_c, 9, 35, 50
7, 30720, Note_on_c, 9, 42, 40
7, 30820, Note_off_c, 9, 42, 64
7, 30820, Note_off_c, 9, 35, 64
7, 31200, Note_on_c, 9, 42, 60
7, 31200, Note_on_c, 9, 37, 70
7, 31300, Note_off_c, 9, 37, 64
7, 31300, Note_off_c, 9, 42, 64
7, 31536, Note_on_c, 9, 35, 20
7, 31636, Note_off_c, 9, 35, 64
7, 31680, Note_on_c, 9, 35, 70
7, 31680, Note_on_c, 9, 42, 40
7, 31780, Note_off_c, 9, 42, 64
7, 31780, Note_off_c, 9, 35, 64
7, 32160, Note_on_c, 9, 42, 60
7, 32160, Note_on_c, 9, 37, 70
7, 32260, Note_off_c, 9, 37, 64
7, 32260, Note_off_c, 9, 42, 64
7, 32640, Note_on_c, 9, 35, 50
7, 32640, Note_on_c, 9, 42, 40
7, 32740, Note_off_c, 9, 42, 64
7, 32740, Note_off_c, 9, 35, 64
7, 33120, Note_on_c, 9, 42, 60
7, 33120, Note_on_c, 9, 37, 70
7, 33220, Note_off_c, 9, 37, 64
7, 33220, Note_off_c, 9, 42, 64
7, 33456, Note_on_c, 9, 35, 20
7, 33556, Note_off_c, 9, 35, 64
7, 33600, Note_on_c, 9, 35, 70
7, 33600, Note_on_c, 9, 42, 40
7, 33700, Note_off_c, 9, 42, 64
7, 33700, Note_off_c, 9, 35, 64
7, 34080, Note_on_c, 9, 42, 60
7, 34080, Note_on_c, 9, 37, 70
7, 34180, Note_off_c, 9, 37, 64
7, 34180, Note_off_c, 9, 42, 64
7, 34560, Note_on_c, 9, 35, 50
7, 34560, Note_on_c, 9, 42, 40
7, 34660, Note_off_c, 9, 42, 64
7, 34660, Note_off_c, 9, 35, 64
7, 35040, Note_on_c, 9, 42, 60
7, 35040, Note_on_c, 9, 37, 70
7, 35140, Note_off_c, 9, 37, 64
7, 35140, Note_off_c, 9, 42, 64
7, 35376, Note_on_c, 9, 35, 20
7, 35476, Note_off_c, 9, 35, 64
7, 35520, Note_on_c, 9, 35, 70
7, 35520, Note_on_c, 9, 42, 40
7, 35620, Note_off_c, 9, 42, 64
7, 35620, Note_off_c, 9, 35, 64
7, 36000, Note_on_c, 9, 42, 60
7, 36000, Note_on_c, 9, 37, 70
7, 36100, Note_off_c, 9, 37, 64
7, 36100, Note_off_c, 9, 42, 64
7, 36480, Note_on_c, 9, 35, 50
7, 36480, Note_on_c, 9, 42, 40
7, 36580, Note_off_c, 9, 42, 64
7, 36580, Note_off_c, 9, 35, 64
7, 36960, Note_on_c, 9, 42, 60
7, 36960, Note_on_c, 9, 37, 70
7, 37060, Note_off_c, 9, 37, 64
7, 37060, Note_off_c, 9, 42, 64
7, 37296, Note_on_c, 9, 35, 20
7, 37396, Note_off_c, 9, 35, 64
7, 37440, Note_on_c, 9, 35, 70
7, 37440, Note_on_c, 9, 42, 40
7, 37540, Note_off_c, 9, 42, 64
7, 37540, Note_off_c, 9, 35, 64
7, 37920, Note_on_c, 9, 42, 60
7, 37920, Note_on_c, 9, 37, 70
7, 38020, Note_off_c, 9, 37, 64
7, 38020, Note_off_c, 9, 42, 64
7, 38400, Note_on_c, 9, 35, 50
7, 38400, Note_on_c, 9, 42, 40
7, 38500, Note_off_c, 9, 42, 64
7, 38500, Note_off_c, 9, 35, 64
7, 38880, Note_on_c, 9, 42, 60
7, 38880, Note_on_c, 9, 37, 70
7, 38980, Note_off_c, 9, 37, 64
7, 38980, Note_off_c, 9, 42, 64
7, 39216, Note_on_c, 9, 35, 20
7, 39316, Note_off_c, 9, 35, 64
7, 39360, Note_on_c, 9, 35, 70
7, 39360, Note_on_c, 9, 42, 40
7, 39460, Note_off_c, 9, 42, 64
7, 39460, Note_off_c, 9, 35, 64
7, 39840, Note_on_c, 9, 42, 60
7, 39840, Note_on_c, 9, 37, 70
7, 39940, Note_off_c, 9, 37, 64
7, 39940, Note_off_c, 9, 42, 64
7, 40320, Note_on_c, 9, 35, 50
7, 40320, Note_on_c, 9, 42, 40
7, 40420, Note_off_c, 9, 42, 64
7, 40420, Note_off_c, 9, 35, 64
7, 40800, Note_on_c, 9, 42, 60
7, 40800, Note_on_c, 9, 37, 70
7, 40900, Note_off_c, 9, 37, 64
7, 40900, Note_off_c, 9, 42, 64
7, 41132, Note_on_c, 9, 35, 20
7, 41232, Note_off_c, 9, 35, 64
7, 41280, Note_on_c, 9, 35, 70
7, 41280, Note_on_c, 9, 42, 40
7, 41380, Note_off_c, 9, 42, 64
7, 41380, Note_off_c, 9, 35, 64
7, 41612, Note_on_c, 9, 42, 50
7, 41712, Note_off_c, 9, 42, 64
7, 41760, Note_on_c, 9, 42, 70
7, 41760, Note_on_c, 9, 37, 70
7, 41860, Note_off_c, 9, 37, 64
7, 41860, Note_off_c, 9, 42, 64
7, 42092, Note_on_c, 9, 42, 50
7, 42192, Note_off_c, 9, 42, 64
7, 42240, Note_on_c, 9, 35, 50
7, 42240, Note_on_c, 9, 42, 70
7, 42240, Note_on_c, 9, 49, 40
7, 42340, Note_off_c, 9, 49, 64
7, 42340, Note_off_c, 9, 42, 64
7, 42340, Note_off_c, 9, 35, 64
7, 42720, Note_on_c, 9, 38, 70
7, 42720, Note_on_c, 9, 42, 70
7, 42820, Note_off_c, 9, 42, 64
7, 42820, Note_off_c, 9, 38, 64
7, 43056, Note_on_c, 9, 35, 20
7, 43156, Note_off_c, 9, 35, 64
7, 43200, Note_on_c, 9, 35, 70
7, 43200, Note_on_c, 9, 42, 70
7, 43300, Note_off_c, 9, 42, 64
7, 43300, Note_off_c, 9, 35, 64
7, 43680, Note_on_c, 9, 38, 70
7, 43680, Note_on_c, 9, 42, 70
7, 43780, Note_off_c, 9, 42, 64
7, 43780, Note_off_c, 9, 38, 64
7, 44160, Note_on_c, 9, 35, 50
7, 44160, Note_on_c, 9, 42, 70
7, 44260, Note_off_c, 9, 42, 64
7, 44260, Note_off_c, 9, 35, 64
7, 44640, Note_on_c, 9, 38, 70
7, 44640, Note_on_c, 9, 42, 70
7, 44740, Note_off_c, 9, 42, 64
7, 44740, Note_off_c, 9, 38, 64
7, 44972, Note_on_c, 9, 35, 20
7, 45072, Note_off_c, 9, 35, 64
7, 45120, Note_on_c, 9, 35, 70
7, 45120, Note_on_c, 9, 42, 70
7, 45220, Note_off_c, 9, 42, 64
7, 45220, Note_off_c, 9, 35, 64
7, 45600, Note_on_c, 9, 38, 70
7, 45600, Note_on_c, 9, 42, 70
7, 45700, Note_off_c, 9, 42, 64
7, 45700, Note_off_c, 9, 38, 64
7, 46080, Note_on_c, 9, 35, 50
7, 46080, Note_on_c, 9, 42, 70
7, 46180, Note_off_c, 9, 42, 64
7, 46180, Note_off_c, 9, 35, 64
7, 46560, Note_on_c, 9, 38, 70
7, 46560, Note_on_c, 9, 42, 70
7, 46660, Note_off_c, 9, 42, 64
7, 46660, Note_off_c, 9, 38, 64
7, 46892, Note_on_c, 9, 35, 20
7, 46992, Note_off_c, 9, 35, 64
7, 47040, Note_on_c, 9, 35, 70
7, 47040, Note_on_c, 9, 42, 70
7, 47140, Note_off_c, 9, 42, 64
7, 47140, Note_off_c, 9, 35, 64
7, 47520, Note_on_c, 9, 38, 70
7, 47520, Note_on_c, 9, 42, 70
7, 47620, Note_off_c, 9, 42, 64
7, 47620, Note_off_c, 9, 38, 64
7, 48000, Note_on_c, 9, 35, 50
7, 48000, Note_on_c, 9, 42, 70
7, 48100, Note_off_c, 9, 42, 64
7, 48100, Note_off_c, 9, 35, 64
7, 48480, Note_on_c, 9, 38, 70
7, 48480, Note_on_c, 9, 42, 70
7, 48580, Note_off_c, 9, 42, 64
7, 48580, Note_off_c, 9, 38, 64
7, 48812, Note_on_c, 9, 35, 20
7, 48912, Note_off_c, 9, 35, 64
7, 48960, Note_on_c, 9, 35, 70
7, 48960, Note_on_c, 9, 42, 70
7, 49060, Note_off_c, 9, 42, 64
7, 49060, Note_off_c, 9, 35, 64
7, 49440, Note_on_c, 9, 38, 70
7, 49440, Note_on_c, 9, 42, 70
7, 49540, Note_off_c, 9, 42, 64
7, 49540, Note_off_c, 9, 38, 64
7, 49920, Note_on_c, 9, 35, 50
7, 49920, Note_on_c, 9, 42, 70
7, 50020, Note_off_c, 9, 42, 64
7, 50020, Note_off_c, 9, 35, 64
7, 50400, Note_on_c, 9, 38, 70
7, 50400, Note_on_c, 9, 42, 70
7, 50500, Note_off_c, 9, 42, 64
7, 50500, Note_off_c, 9, 38, 64
7, 50732, Note_on_c, 9, 35, 20
7, 50832, Note_off_c, 9, 35, 64
7, 50880, Note_on_c, 9, 35, 70
7, 50880, Note_on_c, 9, 42, 70
7, 50980, Note_off_c, 9, 42, 64
7, 50980, Note_off_c, 9, 35, 64
7, 51360, Note_on_c, 9, 38, 70
7, 51360, Note_on_c, 9, 42, 70
7, 51460, Note_off_c, 9, 42, 64
7, 51460, Note_off_c, 9, 38, 64
7, 51840, Note_on_c, 9, 35, 50
7, 51840, Note_on_c, 9, 42, 70
7, 51940, Note_off_c, 9, 42, 64
7, 51940, Note_off_c, 9, 35, 64
7, 52320, Note_on_c, 9, 38, 70
7, 52320, Note_on_c, 9, 42, 70
7, 52420, Note_off_c, 9, 42, 64
7, 52420, Note_off_c, 9, 38, 64
7, 52652, Note_on_c, 9, 35, 60
7, 52752, Note_off_c, 9, 35, 64
7, 52800, Note_on_c, 9, 35, 70
7, 52800, Note_on_c, 9, 42, 70
7, 52900, Note_off_c, 9, 42, 64
7, 52900, Note_off_c, 9, 35, 64
7, 53132, Note_on_c, 9, 38, 40
7, 53232, Note_off_c, 9, 38, 64
7, 53280, Note_on_c, 9, 38, 70
7, 53280, Note_on_c, 9, 42, 70
7, 53380, Note_off_c, 9, 42, 64
7, 53380, Note_off_c, 9, 38, 64
7, 53612, Note_on_c, 9, 38, 70
7, 53612, Note_on_c, 9, 46, 72
7, 53712, Note_off_c, 9, 46, 64
7, 53712, Note_off_c, 9, 38, 64
7, 53760, Note_on_c, 9, 35, 50
7, 53760, Note_on_c, 9, 42, 40
7, 53860, Note_off_c, 9, 42, 64
7, 53860, Note_off_c, 9, 35, 64
7, 54240, Note_on_c, 9, 42, 60
7, 54240, Note_on_c, 9, 37, 70
7, 54340, Note_off_c, 9, 37, 64
7, 54340, Note_off_c, 9, 42, 64
7, 54576, Note_on_c, 9, 35, 20
7, 54676, Note_off_c, 9, 35, 64
7, 54720, Note_on_c, 9, 35, 70
7, 54720, Note_on_c, 9, 42, 40
7, 54820, Note_off_c, 9, 42, 64
7, 54820, Note_off_c, 9, 35, 64
7, 55200, Note_on_c, 9, 42, 60
7, 55200, Note_on_c, 9, 37, 70
7, 55300, Note_off_c, 9, 37, 64
7, 55300, Note_off_c, 9, 42, 64
7, 55680, Note_on_c, 9, 35, 50
7, 55680, Note_on_c, 9, 42, 40
7, 55780, Note_off_c, 9, 42, 64
7, 55780, Note_off_c, 9, 35, 64
7, 56160, Note_on_c, 9, 42, 60
7, 56160, Note_on_c, 9, 37, 70
7, 56260, Note_off_c, 9, 37, 64
7, 56260, Note_off_c, 9, 42, 64
7, 56496, Note_on_c, 9, 35, 20
7, 56596, Note_off_c, 9, 35, 64
7, 56640, Note_on_c, 9, 35, 70
7, 56640, Note_on_c, 9, 42, 40
7, 56740, Note_off_c, 9, 42, 64
7, 56740, Note_off_c, 9, 35, 64
7, 57120, Note_on_c, 9, 42, 60
7, 57120, Note_on_c, 9, 37, 70
7, 57220, Note_off_c, 9, 37, 64
7, 57220, Note_off_c, 9, 42, 64
7, 57600, Note_on_c, 9, 35, 50
7, 57600, Note_on_c, 9, 42, 40
7, 57700, Note_off_c, 9, 42, 64
7, 57700, Note_off_c, 9, 35, 64
7, 58080, Note_on_c, 9, 42, 60
7, 58080, Note_on_c, 9, 37, 70
7, 58180, Note_off_c, 9, 37, 64
7, 58180, Note_off_c, 9, 42, 64
7, 58416, Note_on_c, 9, 35, 20
7, 58516, Note_off_c, 9, 35, 64
7, 58560, Note_on_c, 9, 35, 70
7, 58560, Note_on_c, 9, 42, 40
7, 58660, Note_off_c, 9, 42, 64
7, 58660, Note_off_c, 9, 35, 64
7, 59040, Note_on_c, 9, 42, 60
7, 59040, Note_on_c, 9, 37, 70
7, 59140, Note_off_c, 9, 37, 64
7, 59140, Note_off_c, 9, 42, 64
7, 59520, Note_on_c, 9, 35, 50
7, 59520, Note_on_c, 9, 42, 40
7, 59620, Note_off_c, 9, 42, 64
7, 59620, Note_off_c, 9, 35, 64
7, 60000, Note_on_c, 9, 42, 60
7, 60000, Note_on_c, 9, 37, 70
7, 60100, Note_off_c, 9, 37, 64
7, 60100, Note_off_c, 9, 42, 64
7, 60336, Note_on_c, 9, 35, 20
7, 60436, Note_off_c, 9, 35, 64
7, 60480, Note_on_c, 9, 35, 70
7, 60480, Note_on_c, 9, 42, 40
7, 60580, Note_off_c, 9, 42, 64
7, 60580, Note_off_c, 9, 35, 64
7, 60960, Note_on_c, 9, 42, 60
7, 60960, Note_on_c, 9, 37, 70
7, 61060, Note_off_c, 9, 37, 64
7, 61060, Note_off_c, 9, 42, 64
7, 61440, Note_on_c, 9, 35, 50
7, 61440, Note_on_c, 9, 42, 40
7, 61540, Note_off_c, 9, 42, 64
7, 61540, Note_off_c, 9, 35, 64
7, 61920, Note_on_c, 9, 42, 60
7, 61920, Note_on_c, 9, 37, 70
7, 62020, Note_off_c, 9, 37, 64
7, 62020, Note_off_c, 9, 42, 64
7, 62256, Note_on_c, 9, 35, 20
7, 62356, Note_off_c, 9, 35, 64
7, 62400, Note_on_c, 9, 35, 70
7, 62400, Note_on_c, 9, 42, 40
7, 62500, Note_off_c, 9, 42, 64
7, 62500, Note_off_c, 9, 35, 64
7, 62880, Note_on_c, 9, 42, 60
7, 62880, Note_on_c, 9, 37, 70
7, 62980, Note_off_c, 9, 37, 64
7, 62980, Note_off_c, 9, 42, 64
7, 63360, Note_on_c, 9, 35, 50
7, 63360, Note_on_c, 9, 42, 40
7, 63460, Note_off_c, 9, 42, 64
7, 63460, Note_off_c, 9, 35, 64
7, 63840, Note_on_c, 9, 42, 60
7, 63840, Note_on_c, 9, 37, 70
7, 63940, Note_off_c, 9, 37, 64
7, 63940, Note_off_c, 9, 42, 64
7, 64176, Note_on_c, 9, 35, 20
7, 64276, Note_off_c, 9, 35, 64
7, 64320, Note_on_c, 9, 35, 70
7, 64320, Note_on_c, 9, 42, 40
7, 64420, Note_off_c, 9, 42, 64
7, 64420, Note_off_c, 9, 35, 64
7, 64800, Note_on_c, 9, 42, 60
7, 64800, Note_on_c, 9, 37, 70
7, 64900, Note_off_c, 9, 37, 64
7, 64900, Note_off_c, 9, 42, 64
7, 65280, Note_on_c, 9, 35, 50
7, 65280, Note_on_c, 9, 42, 40
7, 65380, Note_off_c, 9, 42, 64
7, 65380, Note_off_c, 9, 35, 64
7, 65760, Note_on_c, 9, 42, 60
7, 65760, Note_on_c, 9, 37, 70
7, 65860, Note_off_c, 9, 37, 64
7, 65860, Note_off_c, 9, 42, 64
7, 66096, Note_on_c, 9, 35, 20
7, 66196, Note_off_c, 9, 35, 64
7, 66240, Note_on_c, 9, 35, 70
7, 66240, Note_on_c, 9, 42, 40
7, 66340, Note_off_c, 9, 42, 64
7, 66340, Note_off_c, 9, 35, 64
7, 66720, Note_on_c, 9, 42, 60
7, 66720, Note_on_c, 9, 37, 70
7, 66820, Note_off_c, 9, 37, 64
7, 66820, Note_off_c, 9, 42, 64
7, 67200, Note_on_c, 9, 35, 50
7, 67200, Note_on_c, 9, 42, 40
7, 67300, Note_off_c, 9, 42, 64
7, 67300, Note_off_c, 9, 35, 64
7, 67680, Note_on_c, 9, 42, 60
7, 67680, Note_on_c, 9, 37, 70
7, 67780, Note_off_c, 9, 37, 64
7, 67780, Note_off_c, 9, 42, 64
7, 68016, Note_on_c, 9, 35, 20
7, 68116, Note_off_c, 9, 35, 64
7, 68160, Note_on_c, 9, 35, 70
7, 68160, Note_on_c, 9, 42, 40
7, 68260, Note_off_c, 9, 42, 64
7, 68260, Note_off_c, 9, 35, 64
7, 68640, Note_on_c, 9, 42, 60
7, 68640, Note_on_c, 9, 37, 70
7, 68740, Note_off_c, 9, 37, 64
7, 68740, Note_off_c, 9, 42, 64
7, 69120, Note_on_c, 9, 35, 50
7, 69120, Note_on_c, 9, 42, 40
7, 69220, Note_off_c, 9, 42, 64
7, 69220, Note_off_c, 9, 35, 64
7, 69600, Note_on_c, 9, 42, 60
7, 69600, Note_on_c, 9, 37, 70
7, 69700, Note_off_c, 9, 37, 64
7, 69700, Note_off_c, 9, 42, 64
7, 69936, Note_on_c, 9, 35, 20
7, 70036, Note_off_c, 9, 35, 64
7, 70080, Note_on_c, 9, 35, 70
7, 70080, Note_on_c, 9, 42, 40
7, 70180, Note_off_c, 9, 42, 64
7, 70180, Note_off_c, 9, 35, 64
7, 70560, Note_on_c, 9, 42, 60
7, 70560, Note_on_c, 9, 37, 70
7, 70660, Note_off_c, 9, 37, 64
7, 70660, Note_off_c, 9, 42, 64
7, 71040, Note_on_c, 9, 35, 50
7, 71040, Note_on_c, 9, 42, 40
7, 71140, Note_off_c, 9, 42, 64
7, 71140, Note_off_c, 9, 35, 64
7, 71520, Note_on_c, 9, 42, 60
7, 71520, Note_on_c, 9, 37, 70
7, 71620, Note_off_c, 9, 37, 64
7, 71620, Note_off_c, 9, 42, 64
7, 71856, Note_on_c, 9, 35, 20
7, 71956, Note_off_c, 9, 35, 64
7, 72000, Note_on_c, 9, 35, 70
7, 72000, Note_on_c, 9, 42, 40
7, 72100, Note_off_c, 9, 42, 64
7, 72100, Note_off_c, 9, 35, 64
7, 72480, Note_on_c, 9, 42, 60
7, 72480, Note_on_c, 9, 37, 70
7, 72580, Note_off_c, 9, 37, 64
7, 72580, Note_off_c, 9, 42, 64
7, 72960, Note_on_c, 9, 35, 50
7, 72960, Note_on_c, 9, 42, 40
7, 73060, Note_off_c, 9, 42, 64
7, 73060, Note_off_c, 9, 35, 64
7, 73440, Note_on_c, 9, 42, 60
7, 73440, Note_on_c, 9, 37, 70
7, 73540, Note_off_c, 9, 37, 64
7, 73540, Note_off_c, 9, 42, 64
7, 73776, Note_on_c, 9, 35, 20
7, 73876, Note_off_c, 9, 35, 64
7, 73920, Note_on_c, 9, 35, 70
7, 73920, Note_on_c, 9, 42, 40
7, 74020, Note_off_c, 9, 42, 64
7, 74020, Note_off_c, 9, 35, 64
7, 74400, Note_on_c, 9, 42, 60
7, 74400, Note_on_c, 9, 37, 70
7, 74500, Note_off_c, 9, 37, 64
7, 74500, Note_off_c, 9, 42, 64
7, 74880, Note_on_c, 9, 35, 50
7, 74880, Note_on_c, 9, 42, 40
7, 74980, Note_off_c, 9, 42, 64
7, 74980, Note_off_c, 9, 35, 64
7, 75360, Note_on_c, 9, 42, 60
7, 75360, Note_on_c, 9, 37, 70
7, 75460, Note_off_c, 9, 37, 64
7, 75460, Note_off_c, 9, 42, 64
7, 75692, Note_on_c, 9, 35, 20
7, 75792, Note_off_c, 9, 35, 64
7, 75840, Note_on_c, 9, 35, 70
7, 75840, Note_on_c, 9, 42, 40
7, 75940, Note_off_c, 9, 42, 64
7, 75940, Note_off_c, 9, 35, 64
7, 76172, Note_on_c, 9, 42, 50
7, 76272, Note_off_c, 9, 42, 64
7, 76320, Note_on_c, 9, 42, 70
7, 76320, Note_on_c, 9, 37, 70
7, 76420, Note_off_c, 9, 37, 64
7, 76420, Note_off_c, 9, 42, 64
7, 76652, Note_on_c, 9, 46, 72
7, 76752, Note_off_c, 9, 46, 64
7, 76800, Note_on_c, 9, 35, 50
7, 76800, Note_on_c, 9, 42, 40
7, 76900, Note_off_c, 9, 42, 64
7, 76900, Note_off_c, 9, 35, 64
7, 77280, Note_on_c, 9, 42, 60
7, 77280, Note_on_c, 9, 37, 70
7, 77380, Note_off_c, 9, 37, 64
7, 77380, Note_off_c, 9, 42, 64
7, 77616, Note_on_c, 9, 35, 20
7, 77716, Note_off_c, 9, 35, 64
7, 77760, Note_on_c, 9, 35, 70
7, 77760, Note_on_c, 9, 42, 40
7, 77860, Note_off_c, 9, 42, 64
7, 77860, Note_off_c, 9, 35, 64
7, 78240, Note_on_c, 9, 42, 60
7, 78240, Note_on_c, 9, 37, 70
7, 78340, Note_off_c, 9, 37, 64
7, 78340, Note_off_c, 9, 42, 64
7, 78720, Note_on_c, 9, 35, 50
7, 78720, Note_on_c, 9, 42, 40
7, 78820, Note_off_c, 9, 42, 64
7, 78820, Note_off_c, 9, 35, 64
7, 79200, Note_on_c, 9, 42, 60
7, 79200, Note_on_c, 9, 37, 70
7, 79300, Note_off_c, 9, 37, 64
7, 79300, Note_off_c, 9, 42, 64
7, 79536, Note_on_c, 9, 35, 20
7, 79636, Note_off_c, 9, 35, 64
7, 79680, Note_on_c, 9, 35, 70
7, 79680, Note_on_c, 9, 42, 40
7, 79780, Note_off_c, 9, 42, 64
7, 79780, Note_off_c, 9, 35, 64
7, 80160, Note_on_c, 9, 42, 60
7, 80160, Note_on_c, 9, 37, 70
7, 80260, Note_off_c, 9, 37, 64
7, 80260, Note_off_c, 9, 42, 64
7, 80640, Note_on_c, 9, 35, 50
7, 80640, Note_on_c, 9, 42, 40
7, 80740, Note_off_c, 9, 42, 64
7, 80740, Note_off_c, 9, 35, 64
7, 81120, Note_on_c, 9, 42, 60
7, 81120, Note_on_c, 9, 37, 70
7, 81220, Note_off_c, 9, 37, 64
7, 81220, Note_off_c, 9, 42, 64
7, 81456, Note_on_c, 9, 35, 20
7, 81556, Note_off_c, 9, 35, 64
7, 81600, Note_on_c, 9, 35, 70
7, 81600, Note_on_c, 9, 42, 40
7, 81700, Note_off_c, 9, 42, 64
7, 81700, Note_off_c, 9, 35, 64
7, 82080, Note_on_c, 9, 42, 60
7, 82080, Note_on_c, 9, 37, 70
7, 82180, Note_off_c, 9, 37, 64
7, 82180, Note_off_c, 9, 42, 64
7, 82560, Note_on_c, 9, 35, 50
7, 82560, Note_on_c, 9, 42, 40
7, 82660, Note_off_c, 9, 42, 64
7, 82660, Note_off_c, 9, 35, 64
7, 83040, Note_on_c, 9, 42, 60
7, 83040, Note_on_c, 9, 37, 70
7, 83140, Note_off_c, 9, 37, 64
7, 83140, Note_off_c, 9, 42, 64
7, 83376, Note_on_c, 9, 35, 20
7, 83476, Note_off_c, 9, 35, 64
7, 83520, Note_on_c, 9, 35, 70
7, 83520, Note_on_c, 9, 42, 40
7, 83620, Note_off_c, 9, 42, 64
7, 83620, Note_off_c, 9, 35, 64
7, 84000, Note_on_c, 9, 42, 60
7, 84000, Note_on_c, 9, 37, 70
7, 84100, Note_off_c, 9, 37, 64
7, 84100, Note_off_c, 9, 42, 64
7, 84480, Note_on_c, 9, 35, 50
7, 84480, Note_on_c, 9, 42, 40
7, 84580, Note_off_c, 9, 42, 64
7, 84580, Note_off_c, 9, 35, 64
7, 84960, Note_on_c, 9, 42, 60
7, 84960, Note_on_c, 9, 37, 70
7, 85060, Note_off_c, 9, 37, 64
7, 85060, Note_off_c, 9, 42, 64
7, 85296, Note_on_c, 9, 35, 20
7, 85396, Note_off_c, 9, 35, 64
7, 85440, Note_on_c, 9, 35, 70
7, 85440, Note_on_c, 9, 42, 40
7, 85540, Note_off_c, 9, 42, 64
7, 85540, Note_off_c, 9, 35, 64
7, 85920, Note_on_c, 9, 42, 60
7, 85920, Note_on_c, 9, 37, 70
7, 86020, Note_off_c, 9, 37, 64
7, 86020, Note_off_c, 9, 42, 64
7, 86400, Note_on_c, 9, 35, 50
7, 86400, Note_on_c, 9, 42, 40
7, 86500, Note_off_c, 9, 42, 64
7, 86500, Note_off_c, 9, 35, 64
7, 86880, Note_on_c, 9, 42, 60
7, 86880, Note_on_c, 9, 37, 70
7, 86980, Note_off_c, 9, 37, 64
7, 86980, Note_off_c, 9, 42, 64
7, 87216, Note_on_c, 9, 35, 20
7, 87316, Note_off_c, 9, 35, 64
7, 87360, Note_on_c, 9, 35, 70
7, 87360, Note_on_c, 9, 42, 40
7, 87460, Note_off_c, 9, 42, 64
7, 87460, Note_off_c, 9, 35, 64
7, 87840, Note_on_c, 9, 42, 60
7, 87840, Note_on_c, 9, 37, 70
7, 87940, Note_off_c, 9, 37, 64
7, 87940, Note_off_c, 9, 42, 64
7, 88320, Note_on_c, 9, 35, 50
7, 88320, Note_on_c, 9, 42, 40
7, 88420, Note_off_c, 9, 42, 64
7, 88420, Note_off_c, 9, 35, 64
7, 88800, Note_on_c, 9, 42, 60
7, 88800, Note_on_c, 9, 37, 70
7, 88900, Note_off_c, 9, 37, 64
7, 88900, Note_off_c, 9, 42, 64
7, 89136, Note_on_c, 9, 35, 20
7, 89236, Note_off_c, 9, 35, 64
7, 89280, Note_on_c, 9, 35, 70
7, 89280, Note_on_c, 9, 42, 40
7, 89380, Note_off_c, 9, 42, 64
7, 89380, Note_off_c, 9, 35, 64
7, 89760, Note_on_c, 9, 42, 60
7, 89760, Note_on_c, 9, 37, 70
7, 89860, Note_off_c, 9, 37, 64
7, 89860, Note_off_c, 9, 42, 64
7, 90240, Note_on_c, 9, 35, 50
7, 90240, Note_on_c, 9, 42, 40
7, 90340, Note_off_c, 9, 42, 64
7, 90340, Note_off_c, 9, 35, 64
7, 90720, Note_on_c, 9, 42, 60
7, 90720, Note_on_c, 9, 37, 70
7, 90820, Note_off_c, 9, 37, 64
7, 90820, Note_off_c, 9, 42, 64
7, 91052, Note_on_c, 9, 35, 20
7, 91152, Note_off_c, 9, 35, 64
7, 91200, Note_on_c, 9, 35, 70
7, 91200, Note_on_c, 9, 42, 40
7, 91300, Note_off_c, 9, 42, 64
7, 91300, Note_off_c, 9, 35, 64
7, 91532, Note_on_c, 9, 42, 50
7, 91632, Note_off_c, 9, 42, 64
7, 91680, Note_on_c, 9, 42, 70
7, 91680, Note_on_c, 9, 37, 70
7, 91780, Note_off_c, 9, 37, 64
7, 91780, Note_off_c, 9, 42, 64
7, 92012, Note_on_c, 9, 42, 50
7, 92112, Note_off_c, 9, 42, 64
7, 92160, Note_on_c, 9, 35, 50
7, 92160, Note_on_c, 9, 42, 70
7, 92160, Note_on_c, 9, 49, 40
7, 92260, Note_off_c, 9, 49, 64
7, 92260, Note_off_c, 9, 42, 64
7, 92260, Note_off_c, 9, 35, 64
7, 92640, Note_on_c, 9, 38, 70
7, 92640, Note_on_c, 9, 42, 70
7, 92740, Note_off_c, 9, 42, 64
7, 92740, Note_off_c, 9, 38, 64
7, 92976, Note_on_c, 9, 35, 20
7, 93076, Note_off_c, 9, 35, 64
7, 93120, Note_on_c, 9, 35, 70
7, 93120, Note_on_c, 9, 42, 70
7, 93220, Note_off_c, 9, 42, 64
7, 93220, Note_off_c, 9, 35, 64
7, 93600, Note_on_c, 9, 38, 70
7, 93600, Note_on_c, 9, 42, 70
7, 93700, Note_off_c, 9, 42, 64
7, 93700, Note_off_c, 9, 38, 64
7, 94080, Note_on_c, 9, 35, 50
7, 94080, Note_on_c, 9, 42, 70
7, 94180, Note_off_c, 9, 42, 64
7, 94180, Note_off_c, 9, 35, 64
7, 94560, Note_on_c, 9, 38, 70
7, 94560, Note_on_c, 9, 42, 70
7, 94660, Note_off_c, 9, 42, 64
7, 94660, Note_off_c, 9, 38, 64
7, 94892, Note_on_c, 9, 35, 20
7, 94992, Note_off_c, 9, 35, 64
7, 95040, Note_on_c, 9, 35, 70
7, 95040, Note_on_c, 9, 42, 70
7, 95140, Note_off_c, 9, 42, 64
7, 95140, Note_off_c, 9, 35, 64
7, 95520, Note_on_c, 9, 38, 70
7, 95520, Note_on_c, 9, 42, 70
7, 95620, Note_off_c, 9, 42, 64
7, 95620, Note_off_c, 9, 38, 64
7, 96000, Note_on_c, 9, 35, 50
7, 96000, Note_on_c, 9, 42, 70
7, 96100, Note_off_c, 9, 42, 64
7, 96100, Note_off_c, 9, 35, 64
7, 96480, Note_on_c, 9, 38, 70
7, 96480, Note_on_c, 9, 42, 70
7, 96580, Note_off_c, 9, 42, 64
7, 96580, Note_off_c, 9, 38, 64
7, 96812, Note_on_c, 9, 35, 20
7, 96912, Note_off_c, 9, 35, 64
7, 96960, Note_on_c, 9, 35, 70
7, 96960, Note_on_c, 9, 42, 70
7, 97060, Note_off_c, 9, 42, 64
7, 97060, Note_off_c, 9, 35, 64
7, 97440, Note_on_c, 9, 38, 70
7, 97440, Note_on_c, 9, 42, 70
7, 97540, Note_off_c, 9, 42, 64
7, 97540, Note_off_c, 9, 38, 64
7, 97920, Note_on_c, 9, 35, 50
7, 97920, Note_on_c, 9, 42, 70
7, 98020, Note_off_c, 9, 42, 64
7, 98020, Note_off_c, 9, 35, 64
7, 98400, Note_on_c, 9, 38, 70
7, 98400, Note_on_c, 9, 42, 70
7, 98500, Note_off_c, 9, 42, 64
7, 98500, Note_off_c, 9, 38, 64
7, 98732, Note_on_c, 9, 35, 20
7, 98832, Note_off_c, 9, 35, 64
7, 98880, Note_on_c, 9, 35, 70
7, 98880, Note_on_c, 9, 42, 70
7, 98980, Note_off_c, 9, 42, 64
7, 98980, Note_off_c, 9, 35, 64
7, 99360, Note_on_c, 9, 38, 70
7, 99360, Note_on_c, 9, 42, 70
7, 99460, Note_off_c, 9, 42, 64
7, 99460, Note_off_c, 9, 38, 64
7, 99840, Note_on_c, 9, 35, 50
7, 99840, Note_on_c, 9, 42, 70
7, 99940, Note_off_c, 9, 42, 64
7, 99940, Note_off_c, 9, 35, 64
7, 100320, Note_on_c, 9, 38, 70
7, 100320, Note_on_c, 9, 42, 70
7, 100420, Note_off_c, 9, 42, 64
7, 100420, Note_off_c, 9, 38, 64
7, 100652, Note_on_c, 9, 35, 20
7, 100752, Note_off_c, 9, 35, 64
7, 100800, Note_on_c, 9, 35, 70
7, 100800, Note_on_c, 9, 42, 70
7, 100900, Note_off_c, 9, 42, 64
7, 100900, Note_off_c, 9, 35, 64
7, 101280, Note_on_c, 9, 38, 70
7, 101280, Note_on_c, 9, 42, 70
7, 101380, Note_off_c, 9, 42, 64
7, 101380, Note_off_c, 9, 38, 64
7, 101760, Note_on_c, 9, 35, 50
7, 101760, Note_on_c, 9, 42, 70
7, 101860, Note_off_c, 9, 42, 64
7, 101860, Note_off_c, 9, 35, 64
7, 101860, End_track
8, 0, Start_track
8, 0, Title_t, "Long Gone Lonesome Blues"
8, 0, MIDI_port, 0
8, 0, End_track
9, 0, Start_track
9, 0, Title_t, "Words and Music by:"
9, 0, MIDI_port, 0
9, 0, End_track
10, 0, Start_track
10, 0, Title_t, "Hank Williams"
10, 0, MIDI_port, 0
10, 0, End_track
11, 0, Start_track
11, 0, Title_t, "Sequenced by:"
11, 0, MIDI_port, 0
11, 0, End_track
12, 0, Start_track
12, 0, Title_t, "Gary Rogers"
12, 0, MIDI_port, 0
12, 0, End_track
13, 0, Start_track
13, 0, Title_t, "10/99"
13, 0, MIDI_port, 0
13, 0, End_track
0, 0, End_of_file
