0, 0, Header, 1, 7, 192
1, 0, Start_track
1, 0, Title_t, "whosmakinglove"
1, 0, Text_t, "Generated by NoteWorthy Composer"
1, 0, Tempo, 480000
1, 0, Time_signature, 4, 2, 24, 8
1, 0, End_track
2, 0, Start_track
2, 0, MIDI_port, 0
2, 0, Title_t, "Staff-11"
2, 0, Program_c, 9, 22
2, 0, Control_c, 9, 7, 127
2, 0, Control_c, 9, 10, 64
2, 3072, Note_on_c, 9, 36, 110
2, 3232, Note_on_c, 9, 36, 0
2, 3264, Note_on_c, 9, 40, 110
2, 3406, Note_on_c, 9, 40, 0
2, 3408, Note_on_c, 9, 36, 110
2, 3454, Note_on_c, 9, 36, 0
2, 3456, Note_on_c, 9, 36, 110
2, 3456, Note_on_c, 9, 38, 110
2, 3456, Note_on_c, 9, 40, 110
2, 3502, Note_on_c, 9, 36, 0
2, 3502, Note_on_c, 9, 38, 0
2, 3502, Note_on_c, 9, 40, 0
2, 3504, Note_on_c, 9, 38, 110
2, 3504, Note_on_c, 9, 40, 110
2, 3550, Note_on_c, 9, 38, 0
2, 3550, Note_on_c, 9, 40, 0
2, 3552, Note_on_c, 9, 36, 110
2, 3552, Note_on_c, 9, 38, 110
2, 3552, Note_on_c, 9, 40, 110
2, 3598, Note_on_c, 9, 36, 0
2, 3598, Note_on_c, 9, 38, 0
2, 3598, Note_on_c, 9, 40, 0
2, 3600, Note_on_c, 9, 38, 110
2, 3600, Note_on_c, 9, 40, 110
2, 3646, Note_on_c, 9, 38, 0
2, 3646, Note_on_c, 9, 40, 0
2, 3648, Note_on_c, 9, 36, 110
2, 3648, Note_on_c, 9, 38, 110
2, 3648, Note_on_c, 9, 40, 110
2, 3694, Note_on_c, 9, 36, 0
2, 3694, Note_on_c, 9, 38, 0
2, 3694, Note_on_c, 9, 40, 0
2, 3696, Note_on_c, 9, 38, 110
2, 3696, Note_on_c, 9, 40, 110
2, 3742, Note_on_c, 9, 38, 0
2, 3742, Note_on_c, 9, 40, 0
2, 3744, Note_on_c, 9, 36, 110
2, 3744, Note_on_c, 9, 38, 110
2, 3744, Note_on_c, 9, 40, 110
2, 3790, Note_on_c, 9, 36, 0
2, 3790, Note_on_c, 9, 38, 0
2, 3790, Note_on_c, 9, 40, 0
2, 3792, Note_on_c, 9, 38, 110
2, 3792, Note_on_c, 9, 40, 110
2, 3838, Note_on_c, 9, 38, 0
2, 3838, Note_on_c, 9, 40, 0
2, 3840, Note_on_c, 9, 46, 110
2, 3840, Note_on_c, 9, 49, 110
2, 3840, Note_on_c, 9, 56, 110
2, 3840, Note_on_c, 9, 57, 110
2, 3934, Note_on_c, 9, 46, 0
2, 3934, Note_on_c, 9, 49, 0
2, 3934, Note_on_c, 9, 56, 0
2, 3934, Note_on_c, 9, 57, 0
2, 3936, Note_on_c, 9, 54, 110
2, 3982, Note_on_c, 9, 54, 0
2, 3984, Note_on_c, 9, 54, 110
2, 4030, Note_on_c, 9, 54, 0
2, 4032, Note_on_c, 9, 46, 110
2, 4032, Note_on_c, 9, 56, 110
2, 4126, Note_on_c, 9, 46, 0
2, 4126, Note_on_c, 9, 56, 0
2, 4128, Note_on_c, 9, 54, 110
2, 4174, Note_on_c, 9, 54, 0
2, 4176, Note_on_c, 9, 54, 110
2, 4222, Note_on_c, 9, 54, 0
2, 4224, Note_on_c, 9, 46, 110
2, 4224, Note_on_c, 9, 56, 110
2, 4318, Note_on_c, 9, 46, 0
2, 4318, Note_on_c, 9, 56, 0
2, 4320, Note_on_c, 9, 54, 110
2, 4366, Note_on_c, 9, 54, 0
2, 4368, Note_on_c, 9, 54, 110
2, 4414, Note_on_c, 9, 54, 0
2, 4416, Note_on_c, 9, 46, 110
2, 4416, Note_on_c, 9, 56, 110
2, 4510, Note_on_c, 9, 46, 0
2, 4510, Note_on_c, 9, 56, 0
2, 4512, Note_on_c, 9, 54, 110
2, 4558, Note_on_c, 9, 54, 0
2, 4560, Note_on_c, 9, 54, 110
2, 4606, Note_on_c, 9, 54, 0
2, 4608, Note_on_c, 9, 46, 110
2, 4608, Note_on_c, 9, 54, 110
2, 4608, Note_on_c, 9, 56, 110
2, 4702, Note_on_c, 9, 46, 0
2, 4702, Note_on_c, 9, 54, 0
2, 4702, Note_on_c, 9, 56, 0
2, 4704, Note_on_c, 9, 54, 110
2, 4750, Note_on_c, 9, 54, 0
2, 4752, Note_on_c, 9, 54, 110
2, 4798, Note_on_c, 9, 54, 0
2, 4800, Note_on_c, 9, 46, 110
2, 4800, Note_on_c, 9, 56, 110
2, 4894, Note_on_c, 9, 46, 0
2, 4894, Note_on_c, 9, 56, 0
2, 4896, Note_on_c, 9, 54, 110
2, 4942, Note_on_c, 9, 54, 0
2, 4944, Note_on_c, 9, 54, 110
2, 4990, Note_on_c, 9, 54, 0
2, 4992, Note_on_c, 9, 46, 110
2, 4992, Note_on_c, 9, 56, 110
2, 5086, Note_on_c, 9, 46, 0
2, 5086, Note_on_c, 9, 56, 0
2, 5088, Note_on_c, 9, 54, 110
2, 5134, Note_on_c, 9, 54, 0
2, 5136, Note_on_c, 9, 54, 110
2, 5182, Note_on_c, 9, 54, 0
2, 5184, Note_on_c, 9, 46, 110
2, 5184, Note_on_c, 9, 56, 110
2, 5278, Note_on_c, 9, 46, 0
2, 5278, Note_on_c, 9, 56, 0
2, 5280, Note_on_c, 9, 54, 110
2, 5326, Note_on_c, 9, 54, 0
2, 5328, Note_on_c, 9, 54, 110
2, 5374, Note_on_c, 9, 54, 0
2, 5376, Note_on_c, 9, 46, 110
2, 5376, Note_on_c, 9, 56, 110
2, 5470, Note_on_c, 9, 46, 0
2, 5470, Note_on_c, 9, 56, 0
2, 5472, Note_on_c, 9, 54, 110
2, 5518, Note_on_c, 9, 54, 0
2, 5520, Note_on_c, 9, 54, 110
2, 5566, Note_on_c, 9, 54, 0
2, 5568, Note_on_c, 9, 46, 110
2, 5568, Note_on_c, 9, 56, 110
2, 5662, Note_on_c, 9, 46, 0
2, 5662, Note_on_c, 9, 56, 0
2, 5664, Note_on_c, 9, 54, 110
2, 5710, Note_on_c, 9, 54, 0
2, 5712, Note_on_c, 9, 54, 110
2, 5758, Note_on_c, 9, 54, 0
2, 5760, Note_on_c, 9, 46, 110
2, 5760, Note_on_c, 9, 56, 110
2, 5854, Note_on_c, 9, 46, 0
2, 5854, Note_on_c, 9, 56, 0
2, 5856, Note_on_c, 9, 54, 110
2, 5902, Note_on_c, 9, 54, 0
2, 5904, Note_on_c, 9, 54, 110
2, 5950, Note_on_c, 9, 54, 0
2, 5952, Note_on_c, 9, 46, 110
2, 5952, Note_on_c, 9, 56, 110
2, 6046, Note_on_c, 9, 46, 0
2, 6046, Note_on_c, 9, 56, 0
2, 6048, Note_on_c, 9, 54, 110
2, 6094, Note_on_c, 9, 54, 0
2, 6096, Note_on_c, 9, 54, 110
2, 6142, Note_on_c, 9, 54, 0
2, 6144, Note_on_c, 9, 46, 110
2, 6144, Note_on_c, 9, 56, 110
2, 6238, Note_on_c, 9, 46, 0
2, 6238, Note_on_c, 9, 56, 0
2, 6240, Note_on_c, 9, 54, 110
2, 6286, Note_on_c, 9, 54, 0
2, 6288, Note_on_c, 9, 54, 110
2, 6334, Note_on_c, 9, 54, 0
2, 6336, Note_on_c, 9, 46, 110
2, 6336, Note_on_c, 9, 56, 110
2, 6430, Note_on_c, 9, 46, 0
2, 6430, Note_on_c, 9, 56, 0
2, 6432, Note_on_c, 9, 54, 110
2, 6478, Note_on_c, 9, 54, 0
2, 6480, Note_on_c, 9, 54, 110
2, 6526, Note_on_c, 9, 54, 0
2, 6528, Note_on_c, 9, 46, 110
2, 6528, Note_on_c, 9, 56, 110
2, 6622, Note_on_c, 9, 46, 0
2, 6622, Note_on_c, 9, 56, 0
2, 6624, Note_on_c, 9, 54, 110
2, 6670, Note_on_c, 9, 54, 0
2, 6672, Note_on_c, 9, 54, 110
2, 6718, Note_on_c, 9, 54, 0
2, 6720, Note_on_c, 9, 46, 110
2, 6720, Note_on_c, 9, 56, 110
2, 6814, Note_on_c, 9, 46, 0
2, 6814, Note_on_c, 9, 56, 0
2, 6816, Note_on_c, 9, 54, 110
2, 6862, Note_on_c, 9, 54, 0
2, 6864, Note_on_c, 9, 54, 110
2, 6910, Note_on_c, 9, 54, 0
2, 6912, Note_on_c, 9, 46, 110
2, 6912, Note_on_c, 9, 56, 110
2, 7006, Note_on_c, 9, 46, 0
2, 7006, Note_on_c, 9, 56, 0
2, 7008, Note_on_c, 9, 54, 110
2, 7054, Note_on_c, 9, 54, 0
2, 7056, Note_on_c, 9, 54, 110
2, 7102, Note_on_c, 9, 54, 0
2, 7104, Note_on_c, 9, 46, 110
2, 7104, Note_on_c, 9, 56, 110
2, 7198, Note_on_c, 9, 46, 0
2, 7198, Note_on_c, 9, 56, 0
2, 7200, Note_on_c, 9, 54, 110
2, 7246, Note_on_c, 9, 54, 0
2, 7248, Note_on_c, 9, 54, 110
2, 7294, Note_on_c, 9, 54, 0
2, 7296, Note_on_c, 9, 46, 110
2, 7296, Note_on_c, 9, 56, 110
2, 7390, Note_on_c, 9, 46, 0
2, 7390, Note_on_c, 9, 56, 0
2, 7392, Note_on_c, 9, 54, 110
2, 7438, Note_on_c, 9, 54, 0
2, 7440, Note_on_c, 9, 54, 110
2, 7486, Note_on_c, 9, 54, 0
2, 7488, Note_on_c, 9, 46, 110
2, 7488, Note_on_c, 9, 56, 110
2, 7582, Note_on_c, 9, 46, 0
2, 7582, Note_on_c, 9, 56, 0
2, 7584, Note_on_c, 9, 54, 110
2, 7630, Note_on_c, 9, 54, 0
2, 7632, Note_on_c, 9, 54, 110
2, 7678, Note_on_c, 9, 54, 0
2, 7680, Note_on_c, 9, 46, 110
2, 7680, Note_on_c, 9, 56, 110
2, 7774, Note_on_c, 9, 46, 0
2, 7774, Note_on_c, 9, 56, 0
2, 7776, Note_on_c, 9, 54, 110
2, 7822, Note_on_c, 9, 54, 0
2, 7824, Note_on_c, 9, 54, 110
2, 7870, Note_on_c, 9, 54, 0
2, 7872, Note_on_c, 9, 46, 110
2, 7872, Note_on_c, 9, 56, 110
2, 7966, Note_on_c, 9, 46, 0
2, 7966, Note_on_c, 9, 56, 0
2, 7968, Note_on_c, 9, 54, 110
2, 8014, Note_on_c, 9, 54, 0
2, 8016, Note_on_c, 9, 54, 110
2, 8062, Note_on_c, 9, 54, 0
2, 8064, Note_on_c, 9, 46, 110
2, 8064, Note_on_c, 9, 56, 110
2, 8158, Note_on_c, 9, 46, 0
2, 8158, Note_on_c, 9, 56, 0
2, 8160, Note_on_c, 9, 54, 110
2, 8206, Note_on_c, 9, 54, 0
2, 8208, Note_on_c, 9, 54, 110
2, 8254, Note_on_c, 9, 54, 0
2, 8256, Note_on_c, 9, 46, 110
2, 8256, Note_on_c, 9, 56, 110
2, 8350, Note_on_c, 9, 46, 0
2, 8350, Note_on_c, 9, 56, 0
2, 8352, Note_on_c, 9, 54, 110
2, 8398, Note_on_c, 9, 54, 0
2, 8400, Note_on_c, 9, 54, 110
2, 8446, Note_on_c, 9, 54, 0
2, 8448, Note_on_c, 9, 46, 110
2, 8448, Note_on_c, 9, 56, 110
2, 8542, Note_on_c, 9, 46, 0
2, 8542, Note_on_c, 9, 56, 0
2, 8544, Note_on_c, 9, 54, 110
2, 8590, Note_on_c, 9, 54, 0
2, 8592, Note_on_c, 9, 54, 110
2, 8638, Note_on_c, 9, 54, 0
2, 8640, Note_on_c, 9, 46, 110
2, 8640, Note_on_c, 9, 56, 110
2, 8734, Note_on_c, 9, 46, 0
2, 8734, Note_on_c, 9, 56, 0
2, 8736, Note_on_c, 9, 54, 110
2, 8782, Note_on_c, 9, 54, 0
2, 8784, Note_on_c, 9, 54, 110
2, 8830, Note_on_c, 9, 54, 0
2, 8832, Note_on_c, 9, 46, 110
2, 8832, Note_on_c, 9, 56, 110
2, 8926, Note_on_c, 9, 46, 0
2, 8926, Note_on_c, 9, 56, 0
2, 8928, Note_on_c, 9, 54, 110
2, 8974, Note_on_c, 9, 54, 0
2, 8976, Note_on_c, 9, 54, 110
2, 9022, Note_on_c, 9, 54, 0
2, 9024, Note_on_c, 9, 46, 110
2, 9024, Note_on_c, 9, 56, 110
2, 9118, Note_on_c, 9, 46, 0
2, 9118, Note_on_c, 9, 56, 0
2, 9120, Note_on_c, 9, 54, 110
2, 9166, Note_on_c, 9, 54, 0
2, 9168, Note_on_c, 9, 54, 110
2, 9214, Note_on_c, 9, 54, 0
2, 9216, Note_on_c, 9, 46, 110
2, 9216, Note_on_c, 9, 56, 110
2, 9310, Note_on_c, 9, 46, 0
2, 9310, Note_on_c, 9, 56, 0
2, 9312, Note_on_c, 9, 54, 110
2, 9358, Note_on_c, 9, 54, 0
2, 9360, Note_on_c, 9, 54, 110
2, 9406, Note_on_c, 9, 54, 0
2, 9408, Note_on_c, 9, 46, 110
2, 9408, Note_on_c, 9, 56, 110
2, 9502, Note_on_c, 9, 46, 0
2, 9502, Note_on_c, 9, 56, 0
2, 9504, Note_on_c, 9, 54, 110
2, 9550, Note_on_c, 9, 54, 0
2, 9552, Note_on_c, 9, 54, 110
2, 9598, Note_on_c, 9, 54, 0
2, 9600, Note_on_c, 9, 46, 110
2, 9600, Note_on_c, 9, 56, 110
2, 9694, Note_on_c, 9, 46, 0
2, 9694, Note_on_c, 9, 56, 0
2, 9696, Note_on_c, 9, 54, 110
2, 9742, Note_on_c, 9, 54, 0
2, 9744, Note_on_c, 9, 54, 110
2, 9790, Note_on_c, 9, 54, 0
2, 9792, Note_on_c, 9, 46, 110
2, 9792, Note_on_c, 9, 56, 110
2, 9886, Note_on_c, 9, 46, 0
2, 9886, Note_on_c, 9, 56, 0
2, 9888, Note_on_c, 9, 54, 110
2, 9934, Note_on_c, 9, 54, 0
2, 9936, Note_on_c, 9, 54, 110
2, 9982, Note_on_c, 9, 54, 0
2, 9984, Note_on_c, 9, 46, 110
2, 9984, Note_on_c, 9, 56, 110
2, 10078, Note_on_c, 9, 46, 0
2, 10078, Note_on_c, 9, 56, 0
2, 10080, Note_on_c, 9, 54, 110
2, 10126, Note_on_c, 9, 54, 0
2, 10128, Note_on_c, 9, 54, 110
2, 10174, Note_on_c, 9, 54, 0
2, 10176, Note_on_c, 9, 46, 110
2, 10176, Note_on_c, 9, 56, 110
2, 10270, Note_on_c, 9, 46, 0
2, 10270, Note_on_c, 9, 56, 0
2, 10272, Note_on_c, 9, 54, 110
2, 10318, Note_on_c, 9, 54, 0
2, 10320, Note_on_c, 9, 54, 110
2, 10366, Note_on_c, 9, 54, 0
2, 10368, Note_on_c, 9, 46, 110
2, 10368, Note_on_c, 9, 56, 110
2, 10462, Note_on_c, 9, 46, 0
2, 10462, Note_on_c, 9, 56, 0
2, 10464, Note_on_c, 9, 54, 110
2, 10510, Note_on_c, 9, 54, 0
2, 10512, Note_on_c, 9, 54, 110
2, 10558, Note_on_c, 9, 54, 0
2, 10560, Note_on_c, 9, 46, 110
2, 10560, Note_on_c, 9, 56, 110
2, 10654, Note_on_c, 9, 46, 0
2, 10654, Note_on_c, 9, 56, 0
2, 10656, Note_on_c, 9, 54, 110
2, 10702, Note_on_c, 9, 54, 0
2, 10704, Note_on_c, 9, 54, 110
2, 10750, Note_on_c, 9, 54, 0
2, 10752, Note_on_c, 9, 46, 110
2, 10752, Note_on_c, 9, 56, 110
2, 10846, Note_on_c, 9, 46, 0
2, 10846, Note_on_c, 9, 56, 0
2, 10848, Note_on_c, 9, 54, 110
2, 10894, Note_on_c, 9, 54, 0
2, 10896, Note_on_c, 9, 54, 110
2, 10942, Note_on_c, 9, 54, 0
2, 10944, Note_on_c, 9, 46, 110
2, 10944, Note_on_c, 9, 56, 110
2, 11038, Note_on_c, 9, 46, 0
2, 11038, Note_on_c, 9, 56, 0
2, 11040, Note_on_c, 9, 54, 110
2, 11086, Note_on_c, 9, 54, 0
2, 11088, Note_on_c, 9, 54, 110
2, 11134, Note_on_c, 9, 54, 0
2, 11136, Note_on_c, 9, 46, 110
2, 11136, Note_on_c, 9, 56, 110
2, 11230, Note_on_c, 9, 46, 0
2, 11230, Note_on_c, 9, 56, 0
2, 11232, Note_on_c, 9, 54, 110
2, 11278, Note_on_c, 9, 54, 0
2, 11280, Note_on_c, 9, 54, 110
2, 11326, Note_on_c, 9, 54, 0
2, 11328, Note_on_c, 9, 46, 110
2, 11328, Note_on_c, 9, 56, 110
2, 11422, Note_on_c, 9, 46, 0
2, 11422, Note_on_c, 9, 56, 0
2, 11424, Note_on_c, 9, 54, 110
2, 11470, Note_on_c, 9, 54, 0
2, 11472, Note_on_c, 9, 54, 110
2, 11518, Note_on_c, 9, 54, 0
2, 11520, Note_on_c, 9, 46, 110
2, 11520, Note_on_c, 9, 56, 110
2, 11614, Note_on_c, 9, 46, 0
2, 11614, Note_on_c, 9, 56, 0
2, 11616, Note_on_c, 9, 54, 110
2, 11662, Note_on_c, 9, 54, 0
2, 11664, Note_on_c, 9, 54, 110
2, 11710, Note_on_c, 9, 54, 0
2, 11712, Note_on_c, 9, 46, 110
2, 11712, Note_on_c, 9, 56, 110
2, 11806, Note_on_c, 9, 46, 0
2, 11806, Note_on_c, 9, 56, 0
2, 11808, Note_on_c, 9, 54, 110
2, 11854, Note_on_c, 9, 54, 0
2, 11856, Note_on_c, 9, 54, 110
2, 11902, Note_on_c, 9, 54, 0
2, 11904, Note_on_c, 9, 46, 110
2, 11904, Note_on_c, 9, 56, 110
2, 11998, Note_on_c, 9, 46, 0
2, 11998, Note_on_c, 9, 56, 0
2, 12000, Note_on_c, 9, 54, 110
2, 12046, Note_on_c, 9, 54, 0
2, 12048, Note_on_c, 9, 54, 110
2, 12094, Note_on_c, 9, 54, 0
2, 12096, Note_on_c, 9, 46, 110
2, 12096, Note_on_c, 9, 56, 110
2, 12190, Note_on_c, 9, 46, 0
2, 12190, Note_on_c, 9, 56, 0
2, 12192, Note_on_c, 9, 54, 110
2, 12238, Note_on_c, 9, 54, 0
2, 12240, Note_on_c, 9, 54, 110
2, 12286, Note_on_c, 9, 54, 0
2, 12288, Note_on_c, 9, 46, 110
2, 12288, Note_on_c, 9, 56, 110
2, 12382, Note_on_c, 9, 46, 0
2, 12382, Note_on_c, 9, 56, 0
2, 12384, Note_on_c, 9, 54, 110
2, 12430, Note_on_c, 9, 54, 0
2, 12432, Note_on_c, 9, 54, 110
2, 12478, Note_on_c, 9, 54, 0
2, 12480, Note_on_c, 9, 46, 110
2, 12480, Note_on_c, 9, 56, 110
2, 12574, Note_on_c, 9, 46, 0
2, 12574, Note_on_c, 9, 56, 0
2, 12576, Note_on_c, 9, 54, 110
2, 12622, Note_on_c, 9, 54, 0
2, 12624, Note_on_c, 9, 54, 110
2, 12670, Note_on_c, 9, 54, 0
2, 12672, Note_on_c, 9, 56, 110
2, 12766, Note_on_c, 9, 56, 0
2, 12768, Note_on_c, 9, 54, 110
2, 12814, Note_on_c, 9, 54, 0
2, 12816, Note_on_c, 9, 54, 110
2, 12862, Note_on_c, 9, 54, 0
2, 12864, Note_on_c, 9, 56, 110
2, 12958, Note_on_c, 9, 56, 0
2, 12960, Note_on_c, 9, 54, 110
2, 13006, Note_on_c, 9, 54, 0
2, 13008, Note_on_c, 9, 54, 110
2, 13054, Note_on_c, 9, 54, 0
2, 13056, Note_on_c, 9, 46, 110
2, 13056, Note_on_c, 9, 56, 110
2, 13150, Note_on_c, 9, 46, 0
2, 13150, Note_on_c, 9, 56, 0
2, 13152, Note_on_c, 9, 54, 110
2, 13198, Note_on_c, 9, 54, 0
2, 13200, Note_on_c, 9, 54, 110
2, 13246, Note_on_c, 9, 54, 0
2, 13248, Note_on_c, 9, 46, 110
2, 13248, Note_on_c, 9, 56, 110
2, 13342, Note_on_c, 9, 46, 0
2, 13342, Note_on_c, 9, 56, 0
2, 13344, Note_on_c, 9, 54, 110
2, 13390, Note_on_c, 9, 54, 0
2, 13392, Note_on_c, 9, 54, 110
2, 13438, Note_on_c, 9, 54, 0
2, 13440, Note_on_c, 9, 46, 110
2, 13440, Note_on_c, 9, 56, 110
2, 13534, Note_on_c, 9, 46, 0
2, 13534, Note_on_c, 9, 56, 0
2, 13536, Note_on_c, 9, 54, 110
2, 13582, Note_on_c, 9, 54, 0
2, 13584, Note_on_c, 9, 54, 110
2, 13630, Note_on_c, 9, 54, 0
2, 13632, Note_on_c, 9, 46, 110
2, 13632, Note_on_c, 9, 56, 110
2, 13726, Note_on_c, 9, 46, 0
2, 13726, Note_on_c, 9, 56, 0
2, 13728, Note_on_c, 9, 54, 110
2, 13774, Note_on_c, 9, 54, 0
2, 13776, Note_on_c, 9, 54, 110
2, 13822, Note_on_c, 9, 54, 0
2, 13824, Note_on_c, 9, 46, 110
2, 13824, Note_on_c, 9, 56, 110
2, 13918, Note_on_c, 9, 46, 0
2, 13918, Note_on_c, 9, 56, 0
2, 13920, Note_on_c, 9, 54, 110
2, 13966, Note_on_c, 9, 54, 0
2, 13968, Note_on_c, 9, 54, 110
2, 14014, Note_on_c, 9, 54, 0
2, 14016, Note_on_c, 9, 46, 110
2, 14016, Note_on_c, 9, 56, 110
2, 14110, Note_on_c, 9, 46, 0
2, 14110, Note_on_c, 9, 56, 0
2, 14112, Note_on_c, 9, 54, 110
2, 14158, Note_on_c, 9, 54, 0
2, 14160, Note_on_c, 9, 54, 110
2, 14206, Note_on_c, 9, 54, 0
2, 14208, Note_on_c, 9, 46, 110
2, 14208, Note_on_c, 9, 56, 110
2, 14302, Note_on_c, 9, 46, 0
2, 14302, Note_on_c, 9, 56, 0
2, 14304, Note_on_c, 9, 54, 110
2, 14350, Note_on_c, 9, 54, 0
2, 14352, Note_on_c, 9, 54, 110
2, 14398, Note_on_c, 9, 54, 0
2, 14400, Note_on_c, 9, 46, 110
2, 14400, Note_on_c, 9, 56, 110
2, 14494, Note_on_c, 9, 46, 0
2, 14494, Note_on_c, 9, 56, 0
2, 14496, Note_on_c, 9, 54, 110
2, 14542, Note_on_c, 9, 54, 0
2, 14544, Note_on_c, 9, 54, 110
2, 14590, Note_on_c, 9, 54, 0
2, 14592, Note_on_c, 9, 46, 110
2, 14592, Note_on_c, 9, 56, 110
2, 14686, Note_on_c, 9, 46, 0
2, 14686, Note_on_c, 9, 56, 0
2, 14688, Note_on_c, 9, 54, 110
2, 14734, Note_on_c, 9, 54, 0
2, 14736, Note_on_c, 9, 54, 110
2, 14782, Note_on_c, 9, 54, 0
2, 14784, Note_on_c, 9, 46, 110
2, 14784, Note_on_c, 9, 56, 110
2, 14878, Note_on_c, 9, 46, 0
2, 14878, Note_on_c, 9, 56, 0
2, 14880, Note_on_c, 9, 54, 110
2, 14926, Note_on_c, 9, 54, 0
2, 14928, Note_on_c, 9, 54, 110
2, 14974, Note_on_c, 9, 54, 0
2, 14976, Note_on_c, 9, 46, 110
2, 14976, Note_on_c, 9, 56, 110
2, 15070, Note_on_c, 9, 46, 0
2, 15070, Note_on_c, 9, 56, 0
2, 15072, Note_on_c, 9, 54, 110
2, 15118, Note_on_c, 9, 54, 0
2, 15120, Note_on_c, 9, 54, 110
2, 15166, Note_on_c, 9, 54, 0
2, 15168, Note_on_c, 9, 46, 110
2, 15168, Note_on_c, 9, 56, 110
2, 15262, Note_on_c, 9, 46, 0
2, 15262, Note_on_c, 9, 56, 0
2, 15264, Note_on_c, 9, 54, 110
2, 15310, Note_on_c, 9, 54, 0
2, 15312, Note_on_c, 9, 54, 110
2, 15358, Note_on_c, 9, 54, 0
2, 15360, Note_on_c, 9, 46, 110
2, 15360, Note_on_c, 9, 56, 110
2, 15454, Note_on_c, 9, 46, 0
2, 15454, Note_on_c, 9, 56, 0
2, 15456, Note_on_c, 9, 54, 110
2, 15502, Note_on_c, 9, 54, 0
2, 15504, Note_on_c, 9, 54, 110
2, 15550, Note_on_c, 9, 54, 0
2, 15552, Note_on_c, 9, 46, 110
2, 15552, Note_on_c, 9, 56, 110
2, 15646, Note_on_c, 9, 46, 0
2, 15646, Note_on_c, 9, 56, 0
2, 15648, Note_on_c, 9, 54, 110
2, 15694, Note_on_c, 9, 54, 0
2, 15696, Note_on_c, 9, 54, 110
2, 15742, Note_on_c, 9, 54, 0
2, 15744, Note_on_c, 9, 46, 110
2, 15744, Note_on_c, 9, 56, 110
2, 15838, Note_on_c, 9, 46, 0
2, 15838, Note_on_c, 9, 56, 0
2, 15840, Note_on_c, 9, 54, 110
2, 15886, Note_on_c, 9, 54, 0
2, 15888, Note_on_c, 9, 54, 110
2, 15934, Note_on_c, 9, 54, 0
2, 15936, Note_on_c, 9, 46, 110
2, 15936, Note_on_c, 9, 56, 110
2, 16030, Note_on_c, 9, 46, 0
2, 16030, Note_on_c, 9, 56, 0
2, 16032, Note_on_c, 9, 54, 110
2, 16078, Note_on_c, 9, 54, 0
2, 16080, Note_on_c, 9, 54, 110
2, 16126, Note_on_c, 9, 54, 0
2, 16128, Note_on_c, 9, 46, 110
2, 16128, Note_on_c, 9, 56, 110
2, 16222, Note_on_c, 9, 46, 0
2, 16222, Note_on_c, 9, 56, 0
2, 16224, Note_on_c, 9, 54, 110
2, 16270, Note_on_c, 9, 54, 0
2, 16272, Note_on_c, 9, 54, 110
2, 16318, Note_on_c, 9, 54, 0
2, 16320, Note_on_c, 9, 46, 110
2, 16320, Note_on_c, 9, 56, 110
2, 16414, Note_on_c, 9, 46, 0
2, 16414, Note_on_c, 9, 56, 0
2, 16416, Note_on_c, 9, 54, 110
2, 16462, Note_on_c, 9, 54, 0
2, 16464, Note_on_c, 9, 54, 110
2, 16510, Note_on_c, 9, 54, 0
2, 16512, Note_on_c, 9, 46, 110
2, 16512, Note_on_c, 9, 56, 110
2, 16606, Note_on_c, 9, 46, 0
2, 16606, Note_on_c, 9, 56, 0
2, 16608, Note_on_c, 9, 54, 110
2, 16654, Note_on_c, 9, 54, 0
2, 16656, Note_on_c, 9, 54, 110
2, 16702, Note_on_c, 9, 54, 0
2, 16704, Note_on_c, 9, 46, 110
2, 16704, Note_on_c, 9, 56, 110
2, 16798, Note_on_c, 9, 46, 0
2, 16798, Note_on_c, 9, 56, 0
2, 16800, Note_on_c, 9, 54, 110
2, 16846, Note_on_c, 9, 54, 0
2, 16848, Note_on_c, 9, 54, 110
2, 16894, Note_on_c, 9, 54, 0
2, 16896, Note_on_c, 9, 36, 110
2, 17056, Note_on_c, 9, 36, 0
2, 17088, Note_on_c, 9, 40, 110
2, 17230, Note_on_c, 9, 40, 0
2, 17232, Note_on_c, 9, 36, 110
2, 17278, Note_on_c, 9, 36, 0
2, 17280, Note_on_c, 9, 36, 110
2, 17280, Note_on_c, 9, 38, 110
2, 17280, Note_on_c, 9, 40, 110
2, 17326, Note_on_c, 9, 36, 0
2, 17326, Note_on_c, 9, 38, 0
2, 17326, Note_on_c, 9, 40, 0
2, 17328, Note_on_c, 9, 38, 110
2, 17328, Note_on_c, 9, 40, 110
2, 17374, Note_on_c, 9, 38, 0
2, 17374, Note_on_c, 9, 40, 0
2, 17376, Note_on_c, 9, 36, 110
2, 17376, Note_on_c, 9, 38, 110
2, 17376, Note_on_c, 9, 40, 110
2, 17422, Note_on_c, 9, 36, 0
2, 17422, Note_on_c, 9, 38, 0
2, 17422, Note_on_c, 9, 40, 0
2, 17424, Note_on_c, 9, 38, 110
2, 17424, Note_on_c, 9, 40, 110
2, 17470, Note_on_c, 9, 38, 0
2, 17470, Note_on_c, 9, 40, 0
2, 17472, Note_on_c, 9, 36, 110
2, 17472, Note_on_c, 9, 38, 110
2, 17472, Note_on_c, 9, 40, 110
2, 17518, Note_on_c, 9, 36, 0
2, 17518, Note_on_c, 9, 38, 0
2, 17518, Note_on_c, 9, 40, 0
2, 17520, Note_on_c, 9, 38, 110
2, 17520, Note_on_c, 9, 40, 110
2, 17566, Note_on_c, 9, 38, 0
2, 17566, Note_on_c, 9, 40, 0
2, 17568, Note_on_c, 9, 36, 110
2, 17568, Note_on_c, 9, 38, 110
2, 17568, Note_on_c, 9, 40, 110
2, 17614, Note_on_c, 9, 36, 0
2, 17614, Note_on_c, 9, 38, 0
2, 17614, Note_on_c, 9, 40, 0
2, 17616, Note_on_c, 9, 38, 110
2, 17616, Note_on_c, 9, 40, 110
2, 17662, Note_on_c, 9, 38, 0
2, 17662, Note_on_c, 9, 40, 0
2, 17664, Note_on_c, 9, 46, 110
2, 17664, Note_on_c, 9, 56, 110
2, 17758, Note_on_c, 9, 46, 0
2, 17758, Note_on_c, 9, 56, 0
2, 17760, Note_on_c, 9, 54, 110
2, 17806, Note_on_c, 9, 54, 0
2, 17808, Note_on_c, 9, 54, 110
2, 17854, Note_on_c, 9, 54, 0
2, 17856, Note_on_c, 9, 46, 110
2, 17856, Note_on_c, 9, 56, 110
2, 17950, Note_on_c, 9, 46, 0
2, 17950, Note_on_c, 9, 56, 0
2, 17952, Note_on_c, 9, 54, 110
2, 17998, Note_on_c, 9, 54, 0
2, 18000, Note_on_c, 9, 54, 110
2, 18046, Note_on_c, 9, 54, 0
2, 18048, Note_on_c, 9, 46, 110
2, 18048, Note_on_c, 9, 56, 110
2, 18142, Note_on_c, 9, 46, 0
2, 18142, Note_on_c, 9, 56, 0
2, 18144, Note_on_c, 9, 54, 110
2, 18190, Note_on_c, 9, 54, 0
2, 18192, Note_on_c, 9, 54, 110
2, 18238, Note_on_c, 9, 54, 0
2, 18240, Note_on_c, 9, 46, 110
2, 18240, Note_on_c, 9, 56, 110
2, 18334, Note_on_c, 9, 46, 0
2, 18334, Note_on_c, 9, 56, 0
2, 18336, Note_on_c, 9, 54, 110
2, 18382, Note_on_c, 9, 54, 0
2, 18384, Note_on_c, 9, 54, 110
2, 18430, Note_on_c, 9, 54, 0
2, 18432, Note_on_c, 9, 46, 110
2, 18432, Note_on_c, 9, 56, 110
2, 18526, Note_on_c, 9, 46, 0
2, 18526, Note_on_c, 9, 56, 0
2, 18528, Note_on_c, 9, 54, 110
2, 18574, Note_on_c, 9, 54, 0
2, 18576, Note_on_c, 9, 54, 110
2, 18622, Note_on_c, 9, 54, 0
2, 18624, Note_on_c, 9, 46, 110
2, 18624, Note_on_c, 9, 56, 110
2, 18718, Note_on_c, 9, 46, 0
2, 18718, Note_on_c, 9, 56, 0
2, 18720, Note_on_c, 9, 54, 110
2, 18766, Note_on_c, 9, 54, 0
2, 18768, Note_on_c, 9, 54, 110
2, 18814, Note_on_c, 9, 54, 0
2, 18816, Note_on_c, 9, 46, 110
2, 18816, Note_on_c, 9, 56, 110
2, 18910, Note_on_c, 9, 46, 0
2, 18910, Note_on_c, 9, 56, 0
2, 18912, Note_on_c, 9, 54, 110
2, 18958, Note_on_c, 9, 54, 0
2, 18960, Note_on_c, 9, 54, 110
2, 19006, Note_on_c, 9, 54, 0
2, 19008, Note_on_c, 9, 46, 110
2, 19008, Note_on_c, 9, 56, 110
2, 19102, Note_on_c, 9, 46, 0
2, 19102, Note_on_c, 9, 56, 0
2, 19104, Note_on_c, 9, 54, 110
2, 19150, Note_on_c, 9, 54, 0
2, 19152, Note_on_c, 9, 54, 110
2, 19198, Note_on_c, 9, 54, 0
2, 19200, Note_on_c, 9, 46, 110
2, 19200, Note_on_c, 9, 56, 110
2, 19294, Note_on_c, 9, 46, 0
2, 19294, Note_on_c, 9, 56, 0
2, 19296, Note_on_c, 9, 54, 110
2, 19342, Note_on_c, 9, 54, 0
2, 19344, Note_on_c, 9, 54, 110
2, 19390, Note_on_c, 9, 54, 0
2, 19392, Note_on_c, 9, 46, 110
2, 19392, Note_on_c, 9, 56, 110
2, 19486, Note_on_c, 9, 46, 0
2, 19486, Note_on_c, 9, 56, 0
2, 19488, Note_on_c, 9, 54, 110
2, 19534, Note_on_c, 9, 54, 0
2, 19536, Note_on_c, 9, 54, 110
2, 19582, Note_on_c, 9, 54, 0
2, 19584, Note_on_c, 9, 46, 110
2, 19584, Note_on_c, 9, 56, 110
2, 19678, Note_on_c, 9, 46, 0
2, 19678, Note_on_c, 9, 56, 0
2, 19680, Note_on_c, 9, 54, 110
2, 19726, Note_on_c, 9, 54, 0
2, 19728, Note_on_c, 9, 54, 110
2, 19774, Note_on_c, 9, 54, 0
2, 19776, Note_on_c, 9, 46, 110
2, 19776, Note_on_c, 9, 56, 110
2, 19870, Note_on_c, 9, 46, 0
2, 19870, Note_on_c, 9, 56, 0
2, 19872, Note_on_c, 9, 54, 110
2, 19918, Note_on_c, 9, 54, 0
2, 19920, Note_on_c, 9, 54, 110
2, 19966, Note_on_c, 9, 54, 0
2, 19968, Note_on_c, 9, 46, 110
2, 19968, Note_on_c, 9, 56, 110
2, 20062, Note_on_c, 9, 46, 0
2, 20062, Note_on_c, 9, 56, 0
2, 20064, Note_on_c, 9, 54, 110
2, 20110, Note_on_c, 9, 54, 0
2, 20112, Note_on_c, 9, 54, 110
2, 20158, Note_on_c, 9, 54, 0
2, 20160, Note_on_c, 9, 46, 110
2, 20160, Note_on_c, 9, 56, 110
2, 20254, Note_on_c, 9, 46, 0
2, 20254, Note_on_c, 9, 56, 0
2, 20256, Note_on_c, 9, 54, 110
2, 20302, Note_on_c, 9, 54, 0
2, 20304, Note_on_c, 9, 54, 110
2, 20350, Note_on_c, 9, 54, 0
2, 20352, Note_on_c, 9, 46, 110
2, 20352, Note_on_c, 9, 56, 110
2, 20446, Note_on_c, 9, 46, 0
2, 20446, Note_on_c, 9, 56, 0
2, 20448, Note_on_c, 9, 54, 110
2, 20494, Note_on_c, 9, 54, 0
2, 20496, Note_on_c, 9, 54, 110
2, 20542, Note_on_c, 9, 54, 0
2, 20544, Note_on_c, 9, 46, 110
2, 20544, Note_on_c, 9, 56, 110
2, 20638, Note_on_c, 9, 46, 0
2, 20638, Note_on_c, 9, 56, 0
2, 20640, Note_on_c, 9, 54, 110
2, 20686, Note_on_c, 9, 54, 0
2, 20688, Note_on_c, 9, 54, 110
2, 20734, Note_on_c, 9, 54, 0
2, 20736, Note_on_c, 9, 46, 110
2, 20736, Note_on_c, 9, 56, 110
2, 20830, Note_on_c, 9, 46, 0
2, 20830, Note_on_c, 9, 56, 0
2, 20832, Note_on_c, 9, 54, 110
2, 20878, Note_on_c, 9, 54, 0
2, 20880, Note_on_c, 9, 54, 110
2, 20926, Note_on_c, 9, 54, 0
2, 20928, Note_on_c, 9, 46, 110
2, 20928, Note_on_c, 9, 56, 110
2, 21022, Note_on_c, 9, 46, 0
2, 21022, Note_on_c, 9, 56, 0
2, 21024, Note_on_c, 9, 54, 110
2, 21070, Note_on_c, 9, 54, 0
2, 21072, Note_on_c, 9, 54, 110
2, 21118, Note_on_c, 9, 54, 0
2, 21120, Note_on_c, 9, 46, 110
2, 21120, Note_on_c, 9, 56, 110
2, 21214, Note_on_c, 9, 46, 0
2, 21214, Note_on_c, 9, 56, 0
2, 21216, Note_on_c, 9, 54, 110
2, 21262, Note_on_c, 9, 54, 0
2, 21264, Note_on_c, 9, 54, 110
2, 21310, Note_on_c, 9, 54, 0
2, 21312, Note_on_c, 9, 46, 110
2, 21312, Note_on_c, 9, 56, 110
2, 21406, Note_on_c, 9, 46, 0
2, 21406, Note_on_c, 9, 56, 0
2, 21408, Note_on_c, 9, 54, 110
2, 21454, Note_on_c, 9, 54, 0
2, 21456, Note_on_c, 9, 54, 110
2, 21502, Note_on_c, 9, 54, 0
2, 21504, Note_on_c, 9, 46, 110
2, 21504, Note_on_c, 9, 56, 110
2, 21598, Note_on_c, 9, 46, 0
2, 21598, Note_on_c, 9, 56, 0
2, 21600, Note_on_c, 9, 54, 110
2, 21646, Note_on_c, 9, 54, 0
2, 21648, Note_on_c, 9, 54, 110
2, 21694, Note_on_c, 9, 54, 0
2, 21696, Note_on_c, 9, 46, 110
2, 21696, Note_on_c, 9, 56, 110
2, 21790, Note_on_c, 9, 46, 0
2, 21790, Note_on_c, 9, 56, 0
2, 21792, Note_on_c, 9, 54, 110
2, 21838, Note_on_c, 9, 54, 0
2, 21840, Note_on_c, 9, 54, 110
2, 21886, Note_on_c, 9, 54, 0
2, 21888, Note_on_c, 9, 56, 110
2, 21982, Note_on_c, 9, 56, 0
2, 21984, Note_on_c, 9, 54, 110
2, 22030, Note_on_c, 9, 54, 0
2, 22032, Note_on_c, 9, 54, 110
2, 22078, Note_on_c, 9, 54, 0
2, 22080, Note_on_c, 9, 56, 110
2, 22174, Note_on_c, 9, 56, 0
2, 22176, Note_on_c, 9, 54, 110
2, 22222, Note_on_c, 9, 54, 0
2, 22224, Note_on_c, 9, 54, 110
2, 22270, Note_on_c, 9, 54, 0
2, 22272, Note_on_c, 9, 46, 110
2, 22272, Note_on_c, 9, 49, 110
2, 22272, Note_on_c, 9, 56, 110
2, 22272, Note_on_c, 9, 57, 110
2, 22366, Note_on_c, 9, 46, 0
2, 22366, Note_on_c, 9, 49, 0
2, 22366, Note_on_c, 9, 56, 0
2, 22366, Note_on_c, 9, 57, 0
2, 22368, Note_on_c, 9, 54, 110
2, 22414, Note_on_c, 9, 54, 0
2, 22416, Note_on_c, 9, 54, 110
2, 22462, Note_on_c, 9, 54, 0
2, 22464, Note_on_c, 9, 46, 110
2, 22464, Note_on_c, 9, 56, 110
2, 22558, Note_on_c, 9, 46, 0
2, 22558, Note_on_c, 9, 56, 0
2, 22560, Note_on_c, 9, 54, 110
2, 22606, Note_on_c, 9, 54, 0
2, 22608, Note_on_c, 9, 54, 110
2, 22654, Note_on_c, 9, 54, 0
2, 22656, Note_on_c, 9, 46, 110
2, 22656, Note_on_c, 9, 56, 110
2, 22750, Note_on_c, 9, 46, 0
2, 22750, Note_on_c, 9, 56, 0
2, 22752, Note_on_c, 9, 54, 110
2, 22798, Note_on_c, 9, 54, 0
2, 22800, Note_on_c, 9, 54, 110
2, 22846, Note_on_c, 9, 54, 0
2, 22848, Note_on_c, 9, 46, 110
2, 22848, Note_on_c, 9, 56, 110
2, 22942, Note_on_c, 9, 46, 0
2, 22942, Note_on_c, 9, 56, 0
2, 22944, Note_on_c, 9, 54, 110
2, 22990, Note_on_c, 9, 54, 0
2, 22992, Note_on_c, 9, 54, 110
2, 23038, Note_on_c, 9, 54, 0
2, 23040, Note_on_c, 9, 46, 110
2, 23040, Note_on_c, 9, 56, 110
2, 23134, Note_on_c, 9, 46, 0
2, 23134, Note_on_c, 9, 56, 0
2, 23136, Note_on_c, 9, 54, 110
2, 23182, Note_on_c, 9, 54, 0
2, 23184, Note_on_c, 9, 54, 110
2, 23230, Note_on_c, 9, 54, 0
2, 23232, Note_on_c, 9, 46, 110
2, 23232, Note_on_c, 9, 56, 110
2, 23326, Note_on_c, 9, 46, 0
2, 23326, Note_on_c, 9, 56, 0
2, 23328, Note_on_c, 9, 54, 110
2, 23374, Note_on_c, 9, 54, 0
2, 23376, Note_on_c, 9, 54, 110
2, 23422, Note_on_c, 9, 54, 0
2, 23424, Note_on_c, 9, 46, 110
2, 23424, Note_on_c, 9, 56, 110
2, 23518, Note_on_c, 9, 46, 0
2, 23518, Note_on_c, 9, 56, 0
2, 23520, Note_on_c, 9, 54, 110
2, 23566, Note_on_c, 9, 54, 0
2, 23568, Note_on_c, 9, 54, 110
2, 23614, Note_on_c, 9, 54, 0
2, 23616, Note_on_c, 9, 46, 110
2, 23616, Note_on_c, 9, 56, 110
2, 23710, Note_on_c, 9, 46, 0
2, 23710, Note_on_c, 9, 56, 0
2, 23712, Note_on_c, 9, 54, 110
2, 23758, Note_on_c, 9, 54, 0
2, 23760, Note_on_c, 9, 54, 110
2, 23806, Note_on_c, 9, 54, 0
2, 23808, Note_on_c, 9, 46, 110
2, 23808, Note_on_c, 9, 56, 110
2, 23902, Note_on_c, 9, 46, 0
2, 23902, Note_on_c, 9, 56, 0
2, 23904, Note_on_c, 9, 54, 110
2, 23950, Note_on_c, 9, 54, 0
2, 23952, Note_on_c, 9, 54, 110
2, 23998, Note_on_c, 9, 54, 0
2, 24000, Note_on_c, 9, 46, 110
2, 24000, Note_on_c, 9, 56, 110
2, 24094, Note_on_c, 9, 46, 0
2, 24094, Note_on_c, 9, 56, 0
2, 24096, Note_on_c, 9, 54, 110
2, 24142, Note_on_c, 9, 54, 0
2, 24144, Note_on_c, 9, 54, 110
2, 24190, Note_on_c, 9, 54, 0
2, 24192, Note_on_c, 9, 46, 110
2, 24192, Note_on_c, 9, 56, 110
2, 24286, Note_on_c, 9, 46, 0
2, 24286, Note_on_c, 9, 56, 0
2, 24288, Note_on_c, 9, 54, 110
2, 24334, Note_on_c, 9, 54, 0
2, 24336, Note_on_c, 9, 54, 110
2, 24382, Note_on_c, 9, 54, 0
2, 24384, Note_on_c, 9, 46, 110
2, 24384, Note_on_c, 9, 56, 110
2, 24478, Note_on_c, 9, 46, 0
2, 24478, Note_on_c, 9, 56, 0
2, 24480, Note_on_c, 9, 54, 110
2, 24526, Note_on_c, 9, 54, 0
2, 24528, Note_on_c, 9, 54, 110
2, 24574, Note_on_c, 9, 54, 0
2, 24576, Note_on_c, 9, 46, 110
2, 24576, Note_on_c, 9, 56, 110
2, 24670, Note_on_c, 9, 46, 0
2, 24670, Note_on_c, 9, 56, 0
2, 24672, Note_on_c, 9, 54, 110
2, 24718, Note_on_c, 9, 54, 0
2, 24720, Note_on_c, 9, 54, 110
2, 24766, Note_on_c, 9, 54, 0
2, 24768, Note_on_c, 9, 46, 110
2, 24768, Note_on_c, 9, 56, 110
2, 24862, Note_on_c, 9, 46, 0
2, 24862, Note_on_c, 9, 56, 0
2, 24864, Note_on_c, 9, 54, 110
2, 24910, Note_on_c, 9, 54, 0
2, 24912, Note_on_c, 9, 54, 110
2, 24958, Note_on_c, 9, 54, 0
2, 24960, Note_on_c, 9, 46, 110
2, 24960, Note_on_c, 9, 56, 110
2, 25054, Note_on_c, 9, 46, 0
2, 25054, Note_on_c, 9, 56, 0
2, 25056, Note_on_c, 9, 54, 110
2, 25102, Note_on_c, 9, 54, 0
2, 25104, Note_on_c, 9, 54, 110
2, 25150, Note_on_c, 9, 54, 0
2, 25152, Note_on_c, 9, 46, 110
2, 25152, Note_on_c, 9, 56, 110
2, 25246, Note_on_c, 9, 46, 0
2, 25246, Note_on_c, 9, 56, 0
2, 25248, Note_on_c, 9, 54, 110
2, 25294, Note_on_c, 9, 54, 0
2, 25296, Note_on_c, 9, 54, 110
2, 25342, Note_on_c, 9, 54, 0
2, 25344, Note_on_c, 9, 46, 110
2, 25344, Note_on_c, 9, 56, 110
2, 25438, Note_on_c, 9, 46, 0
2, 25438, Note_on_c, 9, 56, 0
2, 25440, Note_on_c, 9, 54, 110
2, 25486, Note_on_c, 9, 54, 0
2, 25488, Note_on_c, 9, 54, 110
2, 25534, Note_on_c, 9, 54, 0
2, 25536, Note_on_c, 9, 46, 110
2, 25536, Note_on_c, 9, 56, 110
2, 25630, Note_on_c, 9, 46, 0
2, 25630, Note_on_c, 9, 56, 0
2, 25632, Note_on_c, 9, 54, 110
2, 25678, Note_on_c, 9, 54, 0
2, 25680, Note_on_c, 9, 54, 110
2, 25726, Note_on_c, 9, 54, 0
2, 25728, Note_on_c, 9, 46, 110
2, 25728, Note_on_c, 9, 56, 110
2, 25822, Note_on_c, 9, 46, 0
2, 25822, Note_on_c, 9, 56, 0
2, 25824, Note_on_c, 9, 54, 110
2, 25870, Note_on_c, 9, 54, 0
2, 25872, Note_on_c, 9, 54, 110
2, 25918, Note_on_c, 9, 54, 0
2, 25920, Note_on_c, 9, 46, 110
2, 25920, Note_on_c, 9, 56, 110
2, 26014, Note_on_c, 9, 46, 0
2, 26014, Note_on_c, 9, 56, 0
2, 26016, Note_on_c, 9, 54, 110
2, 26062, Note_on_c, 9, 54, 0
2, 26064, Note_on_c, 9, 54, 110
2, 26110, Note_on_c, 9, 54, 0
2, 26112, Note_on_c, 9, 36, 110
2, 26272, Note_on_c, 9, 36, 0
2, 26304, Note_on_c, 9, 40, 110
2, 26446, Note_on_c, 9, 40, 0
2, 26448, Note_on_c, 9, 36, 110
2, 26494, Note_on_c, 9, 36, 0
2, 26496, Note_on_c, 9, 36, 110
2, 26496, Note_on_c, 9, 38, 110
2, 26496, Note_on_c, 9, 40, 110
2, 26542, Note_on_c, 9, 36, 0
2, 26542, Note_on_c, 9, 38, 0
2, 26542, Note_on_c, 9, 40, 0
2, 26544, Note_on_c, 9, 38, 110
2, 26544, Note_on_c, 9, 40, 110
2, 26590, Note_on_c, 9, 38, 0
2, 26590, Note_on_c, 9, 40, 0
2, 26592, Note_on_c, 9, 36, 110
2, 26592, Note_on_c, 9, 38, 110
2, 26592, Note_on_c, 9, 40, 110
2, 26638, Note_on_c, 9, 36, 0
2, 26638, Note_on_c, 9, 38, 0
2, 26638, Note_on_c, 9, 40, 0
2, 26640, Note_on_c, 9, 38, 110
2, 26640, Note_on_c, 9, 40, 110
2, 26686, Note_on_c, 9, 38, 0
2, 26686, Note_on_c, 9, 40, 0
2, 26688, Note_on_c, 9, 36, 110
2, 26688, Note_on_c, 9, 38, 110
2, 26688, Note_on_c, 9, 40, 110
2, 26734, Note_on_c, 9, 36, 0
2, 26734, Note_on_c, 9, 38, 0
2, 26734, Note_on_c, 9, 40, 0
2, 26736, Note_on_c, 9, 38, 110
2, 26736, Note_on_c, 9, 40, 110
2, 26782, Note_on_c, 9, 38, 0
2, 26782, Note_on_c, 9, 40, 0
2, 26784, Note_on_c, 9, 36, 110
2, 26784, Note_on_c, 9, 38, 110
2, 26784, Note_on_c, 9, 40, 110
2, 26830, Note_on_c, 9, 36, 0
2, 26830, Note_on_c, 9, 38, 0
2, 26830, Note_on_c, 9, 40, 0
2, 26832, Note_on_c, 9, 38, 110
2, 26832, Note_on_c, 9, 40, 110
2, 26878, Note_on_c, 9, 38, 0
2, 26878, Note_on_c, 9, 40, 0
2, 26880, Note_on_c, 9, 46, 110
2, 26880, Note_on_c, 9, 56, 110
2, 26974, Note_on_c, 9, 46, 0
2, 26974, Note_on_c, 9, 56, 0
2, 26976, Note_on_c, 9, 54, 110
2, 27022, Note_on_c, 9, 54, 0
2, 27024, Note_on_c, 9, 54, 110
2, 27070, Note_on_c, 9, 54, 0
2, 27072, Note_on_c, 9, 46, 110
2, 27072, Note_on_c, 9, 56, 110
2, 27166, Note_on_c, 9, 46, 0
2, 27166, Note_on_c, 9, 56, 0
2, 27168, Note_on_c, 9, 54, 110
2, 27214, Note_on_c, 9, 54, 0
2, 27216, Note_on_c, 9, 54, 110
2, 27262, Note_on_c, 9, 54, 0
2, 27264, Note_on_c, 9, 46, 110
2, 27264, Note_on_c, 9, 56, 110
2, 27358, Note_on_c, 9, 46, 0
2, 27358, Note_on_c, 9, 56, 0
2, 27360, Note_on_c, 9, 54, 110
2, 27406, Note_on_c, 9, 54, 0
2, 27408, Note_on_c, 9, 54, 110
2, 27454, Note_on_c, 9, 54, 0
2, 27456, Note_on_c, 9, 46, 110
2, 27456, Note_on_c, 9, 56, 110
2, 27550, Note_on_c, 9, 46, 0
2, 27550, Note_on_c, 9, 56, 0
2, 27552, Note_on_c, 9, 54, 110
2, 27598, Note_on_c, 9, 54, 0
2, 27600, Note_on_c, 9, 54, 110
2, 27646, Note_on_c, 9, 54, 0
2, 27648, Note_on_c, 9, 46, 110
2, 27648, Note_on_c, 9, 56, 110
2, 27742, Note_on_c, 9, 46, 0
2, 27742, Note_on_c, 9, 56, 0
2, 27744, Note_on_c, 9, 54, 110
2, 27790, Note_on_c, 9, 54, 0
2, 27792, Note_on_c, 9, 54, 110
2, 27838, Note_on_c, 9, 54, 0
2, 27840, Note_on_c, 9, 49, 110
2, 27840, Note_on_c, 9, 56, 110
2, 27840, Note_on_c, 9, 57, 110
2, 27934, Note_on_c, 9, 49, 0
2, 27934, Note_on_c, 9, 56, 0
2, 27934, Note_on_c, 9, 57, 0
2, 27936, Note_on_c, 9, 54, 110
2, 27982, Note_on_c, 9, 54, 0
2, 27984, Note_on_c, 9, 54, 110
2, 28030, Note_on_c, 9, 54, 0
2, 28032, Note_on_c, 9, 48, 110
2, 28032, Note_on_c, 9, 50, 110
2, 28032, Note_on_c, 9, 56, 110
2, 28078, Note_on_c, 9, 48, 0
2, 28078, Note_on_c, 9, 50, 0
2, 28078, Note_on_c, 9, 56, 0
2, 28080, Note_on_c, 9, 48, 110
2, 28080, Note_on_c, 9, 50, 110
2, 28126, Note_on_c, 9, 48, 0
2, 28126, Note_on_c, 9, 50, 0
2, 28128, Note_on_c, 9, 48, 110
2, 28128, Note_on_c, 9, 50, 110
2, 28128, Note_on_c, 9, 54, 110
2, 28174, Note_on_c, 9, 48, 0
2, 28174, Note_on_c, 9, 50, 0
2, 28174, Note_on_c, 9, 54, 0
2, 28176, Note_on_c, 9, 48, 110
2, 28176, Note_on_c, 9, 50, 110
2, 28176, Note_on_c, 9, 54, 110
2, 28222, Note_on_c, 9, 48, 0
2, 28222, Note_on_c, 9, 50, 0
2, 28222, Note_on_c, 9, 54, 0
2, 28224, Note_on_c, 9, 47, 110
2, 28224, Note_on_c, 9, 56, 110
2, 28318, Note_on_c, 9, 47, 0
2, 28318, Note_on_c, 9, 56, 0
2, 28320, Note_on_c, 9, 47, 110
2, 28320, Note_on_c, 9, 54, 110
2, 28366, Note_on_c, 9, 47, 0
2, 28366, Note_on_c, 9, 54, 0
2, 28368, Note_on_c, 9, 54, 110
2, 28414, Note_on_c, 9, 54, 0
2, 28416, Note_on_c, 9, 56, 110
2, 28510, Note_on_c, 9, 56, 0
2, 28512, Note_on_c, 9, 54, 110
2, 28558, Note_on_c, 9, 54, 0
2, 28560, Note_on_c, 9, 54, 110
2, 28606, Note_on_c, 9, 54, 0
2, 28608, Note_on_c, 9, 46, 110
2, 28608, Note_on_c, 9, 56, 110
2, 28702, Note_on_c, 9, 46, 0
2, 28702, Note_on_c, 9, 56, 0
2, 28704, Note_on_c, 9, 54, 110
2, 28750, Note_on_c, 9, 54, 0
2, 28752, Note_on_c, 9, 54, 110
2, 28798, Note_on_c, 9, 54, 0
2, 28800, Note_on_c, 9, 46, 110
2, 28800, Note_on_c, 9, 56, 110
2, 28894, Note_on_c, 9, 46, 0
2, 28894, Note_on_c, 9, 56, 0
2, 28896, Note_on_c, 9, 54, 110
2, 28942, Note_on_c, 9, 54, 0
2, 28944, Note_on_c, 9, 54, 110
2, 28990, Note_on_c, 9, 54, 0
2, 28992, Note_on_c, 9, 46, 110
2, 28992, Note_on_c, 9, 56, 110
2, 29086, Note_on_c, 9, 46, 0
2, 29086, Note_on_c, 9, 56, 0
2, 29088, Note_on_c, 9, 54, 110
2, 29134, Note_on_c, 9, 54, 0
2, 29136, Note_on_c, 9, 54, 110
2, 29182, Note_on_c, 9, 54, 0
2, 29184, Note_on_c, 9, 46, 110
2, 29184, Note_on_c, 9, 56, 110
2, 29278, Note_on_c, 9, 46, 0
2, 29278, Note_on_c, 9, 56, 0
2, 29280, Note_on_c, 9, 54, 110
2, 29326, Note_on_c, 9, 54, 0
2, 29328, Note_on_c, 9, 54, 110
2, 29374, Note_on_c, 9, 54, 0
2, 29376, Note_on_c, 9, 46, 110
2, 29376, Note_on_c, 9, 56, 110
2, 29470, Note_on_c, 9, 46, 0
2, 29470, Note_on_c, 9, 56, 0
2, 29472, Note_on_c, 9, 54, 110
2, 29518, Note_on_c, 9, 54, 0
2, 29520, Note_on_c, 9, 54, 110
2, 29566, Note_on_c, 9, 54, 0
2, 29568, Note_on_c, 9, 46, 110
2, 29568, Note_on_c, 9, 56, 110
2, 29662, Note_on_c, 9, 46, 0
2, 29662, Note_on_c, 9, 56, 0
2, 29664, Note_on_c, 9, 54, 110
2, 29710, Note_on_c, 9, 54, 0
2, 29712, Note_on_c, 9, 54, 110
2, 29758, Note_on_c, 9, 54, 0
2, 29760, Note_on_c, 9, 46, 110
2, 29760, Note_on_c, 9, 56, 110
2, 29854, Note_on_c, 9, 46, 0
2, 29854, Note_on_c, 9, 56, 0
2, 29856, Note_on_c, 9, 54, 110
2, 29902, Note_on_c, 9, 54, 0
2, 29904, Note_on_c, 9, 54, 110
2, 29950, Note_on_c, 9, 54, 0
2, 29952, Note_on_c, 9, 46, 110
2, 29952, Note_on_c, 9, 56, 110
2, 30046, Note_on_c, 9, 46, 0
2, 30046, Note_on_c, 9, 56, 0
2, 30048, Note_on_c, 9, 54, 110
2, 30094, Note_on_c, 9, 54, 0
2, 30096, Note_on_c, 9, 54, 110
2, 30142, Note_on_c, 9, 54, 0
2, 30144, Note_on_c, 9, 46, 110
2, 30144, Note_on_c, 9, 56, 110
2, 30238, Note_on_c, 9, 46, 0
2, 30238, Note_on_c, 9, 56, 0
2, 30240, Note_on_c, 9, 54, 110
2, 30286, Note_on_c, 9, 54, 0
2, 30288, Note_on_c, 9, 54, 110
2, 30334, Note_on_c, 9, 54, 0
2, 30336, Note_on_c, 9, 46, 110
2, 30336, Note_on_c, 9, 56, 110
2, 30430, Note_on_c, 9, 46, 0
2, 30430, Note_on_c, 9, 56, 0
2, 30432, Note_on_c, 9, 54, 110
2, 30478, Note_on_c, 9, 54, 0
2, 30480, Note_on_c, 9, 54, 110
2, 30526, Note_on_c, 9, 54, 0
2, 30528, Note_on_c, 9, 46, 110
2, 30528, Note_on_c, 9, 56, 110
2, 30622, Note_on_c, 9, 46, 0
2, 30622, Note_on_c, 9, 56, 0
2, 30624, Note_on_c, 9, 54, 110
2, 30670, Note_on_c, 9, 54, 0
2, 30672, Note_on_c, 9, 54, 110
2, 30718, Note_on_c, 9, 54, 0
2, 30720, Note_on_c, 9, 46, 110
2, 30720, Note_on_c, 9, 56, 110
2, 30814, Note_on_c, 9, 46, 0
2, 30814, Note_on_c, 9, 56, 0
2, 30816, Note_on_c, 9, 54, 110
2, 30862, Note_on_c, 9, 54, 0
2, 30864, Note_on_c, 9, 54, 110
2, 30910, Note_on_c, 9, 54, 0
2, 30912, Note_on_c, 9, 46, 110
2, 30912, Note_on_c, 9, 49, 110
2, 30912, Note_on_c, 9, 56, 110
2, 30912, Note_on_c, 9, 57, 110
2, 31006, Note_on_c, 9, 46, 0
2, 31006, Note_on_c, 9, 49, 0
2, 31006, Note_on_c, 9, 56, 0
2, 31006, Note_on_c, 9, 57, 0
2, 31008, Note_on_c, 9, 54, 110
2, 31054, Note_on_c, 9, 54, 0
2, 31056, Note_on_c, 9, 54, 110
2, 31102, Note_on_c, 9, 54, 0
2, 31104, Note_on_c, 9, 46, 110
2, 31104, Note_on_c, 9, 56, 110
2, 31198, Note_on_c, 9, 46, 0
2, 31198, Note_on_c, 9, 56, 0
2, 31200, Note_on_c, 9, 54, 110
2, 31246, Note_on_c, 9, 54, 0
2, 31248, Note_on_c, 9, 54, 110
2, 31294, Note_on_c, 9, 54, 0
2, 31296, Note_on_c, 9, 46, 110
2, 31296, Note_on_c, 9, 56, 110
2, 31390, Note_on_c, 9, 46, 0
2, 31390, Note_on_c, 9, 56, 0
2, 31392, Note_on_c, 9, 54, 110
2, 31438, Note_on_c, 9, 54, 0
2, 31440, Note_on_c, 9, 54, 110
2, 31486, Note_on_c, 9, 54, 0
2, 31488, Note_on_c, 9, 46, 110
2, 31488, Note_on_c, 9, 56, 110
2, 31582, Note_on_c, 9, 46, 0
2, 31582, Note_on_c, 9, 56, 0
2, 31584, Note_on_c, 9, 54, 110
2, 31630, Note_on_c, 9, 54, 0
2, 31632, Note_on_c, 9, 54, 110
2, 31678, Note_on_c, 9, 54, 0
2, 31680, Note_on_c, 9, 46, 110
2, 31680, Note_on_c, 9, 56, 110
2, 31774, Note_on_c, 9, 46, 0
2, 31774, Note_on_c, 9, 56, 0
2, 31776, Note_on_c, 9, 54, 110
2, 31822, Note_on_c, 9, 54, 0
2, 31824, Note_on_c, 9, 54, 110
2, 31870, Note_on_c, 9, 54, 0
2, 31872, Note_on_c, 9, 46, 110
2, 31872, Note_on_c, 9, 56, 110
2, 31966, Note_on_c, 9, 46, 0
2, 31966, Note_on_c, 9, 56, 0
2, 31968, Note_on_c, 9, 54, 110
2, 32014, Note_on_c, 9, 54, 0
2, 32016, Note_on_c, 9, 54, 110
2, 32062, Note_on_c, 9, 54, 0
2, 32064, Note_on_c, 9, 46, 110
2, 32064, Note_on_c, 9, 56, 110
2, 32158, Note_on_c, 9, 46, 0
2, 32158, Note_on_c, 9, 56, 0
2, 32160, Note_on_c, 9, 54, 110
2, 32206, Note_on_c, 9, 54, 0
2, 32208, Note_on_c, 9, 54, 110
2, 32254, Note_on_c, 9, 54, 0
2, 32256, Note_on_c, 9, 46, 110
2, 32256, Note_on_c, 9, 56, 110
2, 32350, Note_on_c, 9, 46, 0
2, 32350, Note_on_c, 9, 56, 0
2, 32352, Note_on_c, 9, 54, 110
2, 32398, Note_on_c, 9, 54, 0
2, 32400, Note_on_c, 9, 54, 110
2, 32446, Note_on_c, 9, 54, 0
2, 32448, Note_on_c, 9, 46, 110
2, 32448, Note_on_c, 9, 56, 110
2, 32542, Note_on_c, 9, 46, 0
2, 32542, Note_on_c, 9, 56, 0
2, 32544, Note_on_c, 9, 54, 110
2, 32590, Note_on_c, 9, 54, 0
2, 32592, Note_on_c, 9, 54, 110
2, 32638, Note_on_c, 9, 54, 0
2, 32640, Note_on_c, 9, 46, 110
2, 32640, Note_on_c, 9, 56, 110
2, 32734, Note_on_c, 9, 46, 0
2, 32734, Note_on_c, 9, 56, 0
2, 32736, Note_on_c, 9, 54, 110
2, 32782, Note_on_c, 9, 54, 0
2, 32784, Note_on_c, 9, 54, 110
2, 32830, Note_on_c, 9, 54, 0
2, 32832, Note_on_c, 9, 46, 110
2, 32832, Note_on_c, 9, 56, 110
2, 32926, Note_on_c, 9, 46, 0
2, 32926, Note_on_c, 9, 56, 0
2, 32928, Note_on_c, 9, 54, 110
2, 32974, Note_on_c, 9, 54, 0
2, 32976, Note_on_c, 9, 54, 110
2, 33022, Note_on_c, 9, 54, 0
2, 33024, Note_on_c, 9, 46, 110
2, 33024, Note_on_c, 9, 56, 110
2, 33118, Note_on_c, 9, 46, 0
2, 33118, Note_on_c, 9, 56, 0
2, 33120, Note_on_c, 9, 54, 110
2, 33166, Note_on_c, 9, 54, 0
2, 33168, Note_on_c, 9, 54, 110
2, 33214, Note_on_c, 9, 54, 0
2, 33216, Note_on_c, 9, 46, 110
2, 33216, Note_on_c, 9, 56, 110
2, 33310, Note_on_c, 9, 46, 0
2, 33310, Note_on_c, 9, 56, 0
2, 33312, Note_on_c, 9, 54, 110
2, 33358, Note_on_c, 9, 54, 0
2, 33360, Note_on_c, 9, 54, 110
2, 33406, Note_on_c, 9, 54, 0
2, 33408, Note_on_c, 9, 46, 110
2, 33408, Note_on_c, 9, 56, 110
2, 33502, Note_on_c, 9, 46, 0
2, 33502, Note_on_c, 9, 56, 0
2, 33504, Note_on_c, 9, 54, 110
2, 33550, Note_on_c, 9, 54, 0
2, 33552, Note_on_c, 9, 54, 110
2, 33598, Note_on_c, 9, 54, 0
2, 33600, Note_on_c, 9, 46, 110
2, 33600, Note_on_c, 9, 56, 110
2, 33694, Note_on_c, 9, 46, 0
2, 33694, Note_on_c, 9, 56, 0
2, 33696, Note_on_c, 9, 54, 110
2, 33742, Note_on_c, 9, 54, 0
2, 33744, Note_on_c, 9, 54, 110
2, 33790, Note_on_c, 9, 54, 0
2, 33792, Note_on_c, 9, 46, 110
2, 33792, Note_on_c, 9, 54, 110
2, 33792, Note_on_c, 9, 56, 110
2, 33886, Note_on_c, 9, 46, 0
2, 33886, Note_on_c, 9, 54, 0
2, 33886, Note_on_c, 9, 56, 0
2, 33888, Note_on_c, 9, 54, 110
2, 33934, Note_on_c, 9, 54, 0
2, 33936, Note_on_c, 9, 54, 110
2, 33982, Note_on_c, 9, 54, 0
2, 33984, Note_on_c, 9, 46, 110
2, 33984, Note_on_c, 9, 56, 110
2, 34078, Note_on_c, 9, 46, 0
2, 34078, Note_on_c, 9, 56, 0
2, 34080, Note_on_c, 9, 54, 110
2, 34126, Note_on_c, 9, 54, 0
2, 34128, Note_on_c, 9, 54, 110
2, 34174, Note_on_c, 9, 54, 0
2, 34176, Note_on_c, 9, 46, 110
2, 34176, Note_on_c, 9, 56, 110
2, 34270, Note_on_c, 9, 46, 0
2, 34270, Note_on_c, 9, 56, 0
2, 34272, Note_on_c, 9, 54, 110
2, 34318, Note_on_c, 9, 54, 0
2, 34320, Note_on_c, 9, 54, 110
2, 34366, Note_on_c, 9, 54, 0
2, 34368, Note_on_c, 9, 46, 110
2, 34368, Note_on_c, 9, 56, 110
2, 34462, Note_on_c, 9, 46, 0
2, 34462, Note_on_c, 9, 56, 0
2, 34464, Note_on_c, 9, 54, 110
2, 34510, Note_on_c, 9, 54, 0
2, 34512, Note_on_c, 9, 54, 110
2, 34558, Note_on_c, 9, 54, 0
2, 34560, Note_on_c, 9, 46, 110
2, 34560, Note_on_c, 9, 56, 110
2, 34654, Note_on_c, 9, 46, 0
2, 34654, Note_on_c, 9, 56, 0
2, 34656, Note_on_c, 9, 54, 110
2, 34702, Note_on_c, 9, 54, 0
2, 34704, Note_on_c, 9, 54, 110
2, 34750, Note_on_c, 9, 54, 0
2, 34752, Note_on_c, 9, 46, 110
2, 34752, Note_on_c, 9, 56, 110
2, 34846, Note_on_c, 9, 46, 0
2, 34846, Note_on_c, 9, 56, 0
2, 34848, Note_on_c, 9, 54, 110
2, 34894, Note_on_c, 9, 54, 0
2, 34896, Note_on_c, 9, 54, 110
2, 34942, Note_on_c, 9, 54, 0
2, 34944, Note_on_c, 9, 46, 110
2, 34944, Note_on_c, 9, 56, 110
2, 35038, Note_on_c, 9, 46, 0
2, 35038, Note_on_c, 9, 56, 0
2, 35040, Note_on_c, 9, 54, 110
2, 35086, Note_on_c, 9, 54, 0
2, 35088, Note_on_c, 9, 54, 110
2, 35134, Note_on_c, 9, 54, 0
2, 35136, Note_on_c, 9, 46, 110
2, 35136, Note_on_c, 9, 56, 110
2, 35230, Note_on_c, 9, 46, 0
2, 35230, Note_on_c, 9, 56, 0
2, 35232, Note_on_c, 9, 54, 110
2, 35278, Note_on_c, 9, 54, 0
2, 35280, Note_on_c, 9, 54, 110
2, 35326, Note_on_c, 9, 54, 0
2, 35328, Note_on_c, 9, 46, 110
2, 35328, Note_on_c, 9, 56, 110
2, 35422, Note_on_c, 9, 46, 0
2, 35422, Note_on_c, 9, 56, 0
2, 35424, Note_on_c, 9, 54, 110
2, 35470, Note_on_c, 9, 54, 0
2, 35472, Note_on_c, 9, 54, 110
2, 35518, Note_on_c, 9, 54, 0
2, 35520, Note_on_c, 9, 46, 110
2, 35520, Note_on_c, 9, 56, 110
2, 35614, Note_on_c, 9, 46, 0
2, 35614, Note_on_c, 9, 56, 0
2, 35616, Note_on_c, 9, 54, 110
2, 35662, Note_on_c, 9, 54, 0
2, 35664, Note_on_c, 9, 54, 110
2, 35710, Note_on_c, 9, 54, 0
2, 35712, Note_on_c, 9, 46, 110
2, 35712, Note_on_c, 9, 56, 110
2, 35806, Note_on_c, 9, 46, 0
2, 35806, Note_on_c, 9, 56, 0
2, 35808, Note_on_c, 9, 54, 110
2, 35854, Note_on_c, 9, 54, 0
2, 35856, Note_on_c, 9, 54, 110
2, 35902, Note_on_c, 9, 54, 0
2, 35904, Note_on_c, 9, 46, 110
2, 35904, Note_on_c, 9, 56, 110
2, 35998, Note_on_c, 9, 46, 0
2, 35998, Note_on_c, 9, 56, 0
2, 36000, Note_on_c, 9, 54, 110
2, 36046, Note_on_c, 9, 54, 0
2, 36048, Note_on_c, 9, 54, 110
2, 36094, Note_on_c, 9, 54, 0
2, 36096, Note_on_c, 9, 46, 110
2, 36096, Note_on_c, 9, 56, 110
2, 36190, Note_on_c, 9, 46, 0
2, 36190, Note_on_c, 9, 56, 0
2, 36192, Note_on_c, 9, 54, 110
2, 36238, Note_on_c, 9, 54, 0
2, 36240, Note_on_c, 9, 54, 110
2, 36286, Note_on_c, 9, 54, 0
2, 36288, Note_on_c, 9, 46, 110
2, 36288, Note_on_c, 9, 56, 110
2, 36382, Note_on_c, 9, 46, 0
2, 36382, Note_on_c, 9, 56, 0
2, 36384, Note_on_c, 9, 54, 110
2, 36430, Note_on_c, 9, 54, 0
2, 36432, Note_on_c, 9, 54, 110
2, 36478, Note_on_c, 9, 54, 0
2, 36480, Note_on_c, 9, 46, 110
2, 36480, Note_on_c, 9, 56, 110
2, 36574, Note_on_c, 9, 46, 0
2, 36574, Note_on_c, 9, 56, 0
2, 36576, Note_on_c, 9, 54, 110
2, 36622, Note_on_c, 9, 54, 0
2, 36624, Note_on_c, 9, 54, 110
2, 36670, Note_on_c, 9, 54, 0
2, 36672, Note_on_c, 9, 46, 110
2, 36672, Note_on_c, 9, 56, 110
2, 36766, Note_on_c, 9, 46, 0
2, 36766, Note_on_c, 9, 56, 0
2, 36768, Note_on_c, 9, 54, 110
2, 36814, Note_on_c, 9, 54, 0
2, 36816, Note_on_c, 9, 54, 110
2, 36862, Note_on_c, 9, 54, 0
2, 36864, Note_on_c, 9, 46, 110
2, 36864, Note_on_c, 9, 56, 110
2, 36958, Note_on_c, 9, 46, 0
2, 36958, Note_on_c, 9, 56, 0
2, 36960, Note_on_c, 9, 54, 110
2, 37006, Note_on_c, 9, 54, 0
2, 37008, Note_on_c, 9, 54, 110
2, 37054, Note_on_c, 9, 54, 0
2, 37056, Note_on_c, 9, 46, 110
2, 37056, Note_on_c, 9, 56, 110
2, 37150, Note_on_c, 9, 46, 0
2, 37150, Note_on_c, 9, 56, 0
2, 37152, Note_on_c, 9, 54, 110
2, 37198, Note_on_c, 9, 54, 0
2, 37200, Note_on_c, 9, 54, 110
2, 37246, Note_on_c, 9, 54, 0
2, 37248, Note_on_c, 9, 46, 110
2, 37248, Note_on_c, 9, 56, 110
2, 37342, Note_on_c, 9, 46, 0
2, 37342, Note_on_c, 9, 56, 0
2, 37344, Note_on_c, 9, 54, 110
2, 37390, Note_on_c, 9, 54, 0
2, 37392, Note_on_c, 9, 54, 110
2, 37438, Note_on_c, 9, 54, 0
2, 37440, Note_on_c, 9, 46, 110
2, 37440, Note_on_c, 9, 56, 110
2, 37534, Note_on_c, 9, 46, 0
2, 37534, Note_on_c, 9, 56, 0
2, 37536, Note_on_c, 9, 54, 110
2, 37582, Note_on_c, 9, 54, 0
2, 37584, Note_on_c, 9, 54, 110
2, 37630, Note_on_c, 9, 54, 0
2, 37632, Note_on_c, 9, 46, 110
2, 37632, Note_on_c, 9, 56, 110
2, 37726, Note_on_c, 9, 46, 0
2, 37726, Note_on_c, 9, 56, 0
2, 37728, Note_on_c, 9, 54, 110
2, 37774, Note_on_c, 9, 54, 0
2, 37776, Note_on_c, 9, 54, 110
2, 37822, Note_on_c, 9, 54, 0
2, 37824, Note_on_c, 9, 46, 110
2, 37824, Note_on_c, 9, 56, 110
2, 37918, Note_on_c, 9, 46, 0
2, 37918, Note_on_c, 9, 56, 0
2, 37920, Note_on_c, 9, 54, 110
2, 37966, Note_on_c, 9, 54, 0
2, 37968, Note_on_c, 9, 54, 110
2, 38014, Note_on_c, 9, 54, 0
2, 38016, Note_on_c, 9, 46, 110
2, 38016, Note_on_c, 9, 56, 110
2, 38110, Note_on_c, 9, 46, 0
2, 38110, Note_on_c, 9, 56, 0
2, 38112, Note_on_c, 9, 54, 110
2, 38158, Note_on_c, 9, 54, 0
2, 38160, Note_on_c, 9, 54, 110
2, 38206, Note_on_c, 9, 54, 0
2, 38208, Note_on_c, 9, 46, 110
2, 38208, Note_on_c, 9, 56, 110
2, 38302, Note_on_c, 9, 46, 0
2, 38302, Note_on_c, 9, 56, 0
2, 38304, Note_on_c, 9, 54, 110
2, 38350, Note_on_c, 9, 54, 0
2, 38352, Note_on_c, 9, 54, 110
2, 38398, Note_on_c, 9, 54, 0
2, 38400, Note_on_c, 9, 46, 110
2, 38400, Note_on_c, 9, 56, 110
2, 38494, Note_on_c, 9, 46, 0
2, 38494, Note_on_c, 9, 56, 0
2, 38496, Note_on_c, 9, 54, 110
2, 38542, Note_on_c, 9, 54, 0
2, 38544, Note_on_c, 9, 54, 110
2, 38590, Note_on_c, 9, 54, 0
2, 38592, Note_on_c, 9, 46, 110
2, 38592, Note_on_c, 9, 56, 110
2, 38686, Note_on_c, 9, 46, 0
2, 38686, Note_on_c, 9, 56, 0
2, 38688, Note_on_c, 9, 54, 110
2, 38734, Note_on_c, 9, 54, 0
2, 38736, Note_on_c, 9, 54, 110
2, 38782, Note_on_c, 9, 54, 0
2, 38784, Note_on_c, 9, 46, 110
2, 38784, Note_on_c, 9, 56, 110
2, 38878, Note_on_c, 9, 46, 0
2, 38878, Note_on_c, 9, 56, 0
2, 38880, Note_on_c, 9, 54, 110
2, 38926, Note_on_c, 9, 54, 0
2, 38928, Note_on_c, 9, 54, 110
2, 38974, Note_on_c, 9, 54, 0
2, 38976, Note_on_c, 9, 46, 110
2, 38976, Note_on_c, 9, 56, 110
2, 39070, Note_on_c, 9, 46, 0
2, 39070, Note_on_c, 9, 56, 0
2, 39072, Note_on_c, 9, 54, 110
2, 39118, Note_on_c, 9, 54, 0
2, 39120, Note_on_c, 9, 54, 110
2, 39166, Note_on_c, 9, 54, 0
2, 39168, Note_on_c, 9, 46, 110
2, 39168, Note_on_c, 9, 56, 110
2, 39262, Note_on_c, 9, 46, 0
2, 39262, Note_on_c, 9, 56, 0
2, 39264, Note_on_c, 9, 54, 110
2, 39310, Note_on_c, 9, 54, 0
2, 39312, Note_on_c, 9, 54, 110
2, 39358, Note_on_c, 9, 54, 0
2, 39360, Note_on_c, 9, 46, 110
2, 39360, Note_on_c, 9, 56, 110
2, 39454, Note_on_c, 9, 46, 0
2, 39454, Note_on_c, 9, 56, 0
2, 39456, Note_on_c, 9, 54, 110
2, 39502, Note_on_c, 9, 54, 0
2, 39504, Note_on_c, 9, 54, 110
2, 39550, Note_on_c, 9, 54, 0
2, 39552, Note_on_c, 9, 46, 110
2, 39552, Note_on_c, 9, 56, 110
2, 39646, Note_on_c, 9, 46, 0
2, 39646, Note_on_c, 9, 56, 0
2, 39648, Note_on_c, 9, 54, 110
2, 39694, Note_on_c, 9, 54, 0
2, 39696, Note_on_c, 9, 54, 110
2, 39742, Note_on_c, 9, 54, 0
2, 39744, Note_on_c, 9, 46, 110
2, 39744, Note_on_c, 9, 56, 110
2, 39838, Note_on_c, 9, 46, 0
2, 39838, Note_on_c, 9, 56, 0
2, 39840, Note_on_c, 9, 54, 110
2, 39886, Note_on_c, 9, 54, 0
2, 39888, Note_on_c, 9, 54, 110
2, 39934, Note_on_c, 9, 54, 0
2, 39936, Note_on_c, 9, 46, 110
2, 39936, Note_on_c, 9, 56, 110
2, 40030, Note_on_c, 9, 46, 0
2, 40030, Note_on_c, 9, 56, 0
2, 40032, Note_on_c, 9, 54, 110
2, 40078, Note_on_c, 9, 54, 0
2, 40080, Note_on_c, 9, 54, 110
2, 40126, Note_on_c, 9, 54, 0
2, 40128, Note_on_c, 9, 46, 110
2, 40128, Note_on_c, 9, 56, 110
2, 40222, Note_on_c, 9, 46, 0
2, 40222, Note_on_c, 9, 56, 0
2, 40224, Note_on_c, 9, 54, 110
2, 40270, Note_on_c, 9, 54, 0
2, 40272, Note_on_c, 9, 54, 110
2, 40318, Note_on_c, 9, 54, 0
2, 40320, Note_on_c, 9, 46, 110
2, 40320, Note_on_c, 9, 56, 110
2, 40414, Note_on_c, 9, 46, 0
2, 40414, Note_on_c, 9, 56, 0
2, 40416, Note_on_c, 9, 54, 110
2, 40462, Note_on_c, 9, 54, 0
2, 40464, Note_on_c, 9, 54, 110
2, 40510, Note_on_c, 9, 54, 0
2, 40512, Note_on_c, 9, 46, 110
2, 40512, Note_on_c, 9, 56, 110
2, 40606, Note_on_c, 9, 46, 0
2, 40606, Note_on_c, 9, 56, 0
2, 40608, Note_on_c, 9, 54, 110
2, 40654, Note_on_c, 9, 54, 0
2, 40656, Note_on_c, 9, 54, 110
2, 40702, Note_on_c, 9, 54, 0
2, 40704, Note_on_c, 9, 46, 110
2, 40704, Note_on_c, 9, 56, 110
2, 40798, Note_on_c, 9, 46, 0
2, 40798, Note_on_c, 9, 56, 0
2, 40800, Note_on_c, 9, 54, 110
2, 40846, Note_on_c, 9, 54, 0
2, 40848, Note_on_c, 9, 54, 110
2, 40894, Note_on_c, 9, 54, 0
2, 40896, Note_on_c, 9, 46, 110
2, 40896, Note_on_c, 9, 56, 110
2, 40990, Note_on_c, 9, 46, 0
2, 40990, Note_on_c, 9, 56, 0
2, 40992, Note_on_c, 9, 54, 110
2, 41038, Note_on_c, 9, 54, 0
2, 41040, Note_on_c, 9, 54, 110
2, 41086, Note_on_c, 9, 54, 0
2, 41088, Note_on_c, 9, 46, 110
2, 41088, Note_on_c, 9, 56, 110
2, 41182, Note_on_c, 9, 46, 0
2, 41182, Note_on_c, 9, 56, 0
2, 41184, Note_on_c, 9, 54, 110
2, 41230, Note_on_c, 9, 54, 0
2, 41232, Note_on_c, 9, 54, 110
2, 41278, Note_on_c, 9, 54, 0
2, 41280, Note_on_c, 9, 46, 110
2, 41280, Note_on_c, 9, 56, 110
2, 41374, Note_on_c, 9, 46, 0
2, 41374, Note_on_c, 9, 56, 0
2, 41376, Note_on_c, 9, 54, 110
2, 41422, Note_on_c, 9, 54, 0
2, 41424, Note_on_c, 9, 54, 110
2, 41470, Note_on_c, 9, 54, 0
2, 41472, Note_on_c, 9, 46, 110
2, 41472, Note_on_c, 9, 56, 110
2, 41566, Note_on_c, 9, 46, 0
2, 41566, Note_on_c, 9, 56, 0
2, 41568, Note_on_c, 9, 54, 110
2, 41614, Note_on_c, 9, 54, 0
2, 41616, Note_on_c, 9, 54, 110
2, 41662, Note_on_c, 9, 54, 0
2, 41664, Note_on_c, 9, 46, 110
2, 41664, Note_on_c, 9, 56, 110
2, 41758, Note_on_c, 9, 46, 0
2, 41758, Note_on_c, 9, 56, 0
2, 41760, Note_on_c, 9, 54, 110
2, 41806, Note_on_c, 9, 54, 0
2, 41808, Note_on_c, 9, 54, 110
2, 41854, Note_on_c, 9, 54, 0
2, 41856, Note_on_c, 9, 46, 110
2, 41856, Note_on_c, 9, 56, 110
2, 41950, Note_on_c, 9, 46, 0
2, 41950, Note_on_c, 9, 56, 0
2, 41952, Note_on_c, 9, 54, 110
2, 41998, Note_on_c, 9, 54, 0
2, 42000, Note_on_c, 9, 54, 110
2, 42046, Note_on_c, 9, 54, 0
2, 42048, Note_on_c, 9, 46, 110
2, 42048, Note_on_c, 9, 56, 110
2, 42142, Note_on_c, 9, 46, 0
2, 42142, Note_on_c, 9, 56, 0
2, 42144, Note_on_c, 9, 54, 110
2, 42190, Note_on_c, 9, 54, 0
2, 42192, Note_on_c, 9, 54, 110
2, 42238, Note_on_c, 9, 54, 0
2, 42240, Note_on_c, 9, 46, 110
2, 42240, Note_on_c, 9, 56, 110
2, 42334, Note_on_c, 9, 46, 0
2, 42334, Note_on_c, 9, 56, 0
2, 42336, Note_on_c, 9, 54, 110
2, 42382, Note_on_c, 9, 54, 0
2, 42384, Note_on_c, 9, 54, 110
2, 42430, Note_on_c, 9, 54, 0
2, 42432, Note_on_c, 9, 46, 110
2, 42432, Note_on_c, 9, 56, 110
2, 42526, Note_on_c, 9, 46, 0
2, 42526, Note_on_c, 9, 56, 0
2, 42528, Note_on_c, 9, 54, 110
2, 42574, Note_on_c, 9, 54, 0
2, 42576, Note_on_c, 9, 54, 110
2, 42622, Note_on_c, 9, 54, 0
2, 42624, Note_on_c, 9, 46, 110
2, 42624, Note_on_c, 9, 56, 110
2, 42718, Note_on_c, 9, 46, 0
2, 42718, Note_on_c, 9, 56, 0
2, 42720, Note_on_c, 9, 54, 110
2, 42766, Note_on_c, 9, 54, 0
2, 42768, Note_on_c, 9, 54, 110
2, 42814, Note_on_c, 9, 54, 0
2, 42816, Note_on_c, 9, 46, 110
2, 42816, Note_on_c, 9, 56, 110
2, 42910, Note_on_c, 9, 46, 0
2, 42910, Note_on_c, 9, 56, 0
2, 42912, Note_on_c, 9, 54, 110
2, 42958, Note_on_c, 9, 54, 0
2, 42960, Note_on_c, 9, 54, 110
2, 43006, Note_on_c, 9, 54, 0
2, 43008, Note_on_c, 9, 46, 110
2, 43008, Note_on_c, 9, 56, 110
2, 43102, Note_on_c, 9, 46, 0
2, 43102, Note_on_c, 9, 56, 0
2, 43104, Note_on_c, 9, 54, 110
2, 43150, Note_on_c, 9, 54, 0
2, 43152, Note_on_c, 9, 54, 110
2, 43198, Note_on_c, 9, 54, 0
2, 43200, Note_on_c, 9, 46, 110
2, 43200, Note_on_c, 9, 56, 110
2, 43294, Note_on_c, 9, 46, 0
2, 43294, Note_on_c, 9, 56, 0
2, 43296, Note_on_c, 9, 54, 110
2, 43342, Note_on_c, 9, 54, 0
2, 43344, Note_on_c, 9, 54, 110
2, 43390, Note_on_c, 9, 54, 0
2, 43392, Note_on_c, 9, 46, 110
2, 43392, Note_on_c, 9, 56, 110
2, 43486, Note_on_c, 9, 46, 0
2, 43486, Note_on_c, 9, 56, 0
2, 43488, Note_on_c, 9, 54, 110
2, 43534, Note_on_c, 9, 54, 0
2, 43536, Note_on_c, 9, 54, 110
2, 43582, Note_on_c, 9, 54, 0
2, 43584, Note_on_c, 9, 46, 110
2, 43584, Note_on_c, 9, 56, 110
2, 43678, Note_on_c, 9, 46, 0
2, 43678, Note_on_c, 9, 56, 0
2, 43680, Note_on_c, 9, 54, 110
2, 43726, Note_on_c, 9, 54, 0
2, 43728, Note_on_c, 9, 54, 110
2, 43774, Note_on_c, 9, 54, 0
2, 43776, Note_on_c, 9, 46, 110
2, 43776, Note_on_c, 9, 56, 110
2, 43870, Note_on_c, 9, 46, 0
2, 43870, Note_on_c, 9, 56, 0
2, 43872, Note_on_c, 9, 54, 110
2, 43918, Note_on_c, 9, 54, 0
2, 43920, Note_on_c, 9, 54, 110
2, 43966, Note_on_c, 9, 54, 0
2, 43968, Note_on_c, 9, 46, 110
2, 43968, Note_on_c, 9, 56, 110
2, 44062, Note_on_c, 9, 46, 0
2, 44062, Note_on_c, 9, 56, 0
2, 44064, Note_on_c, 9, 54, 110
2, 44110, Note_on_c, 9, 54, 0
2, 44112, Note_on_c, 9, 54, 110
2, 44158, Note_on_c, 9, 54, 0
2, 44160, Note_on_c, 9, 46, 110
2, 44160, Note_on_c, 9, 56, 110
2, 44254, Note_on_c, 9, 46, 0
2, 44254, Note_on_c, 9, 56, 0
2, 44256, Note_on_c, 9, 54, 110
2, 44302, Note_on_c, 9, 54, 0
2, 44304, Note_on_c, 9, 54, 110
2, 44350, Note_on_c, 9, 54, 0
2, 44352, Note_on_c, 9, 46, 110
2, 44352, Note_on_c, 9, 56, 110
2, 44446, Note_on_c, 9, 46, 0
2, 44446, Note_on_c, 9, 56, 0
2, 44448, Note_on_c, 9, 54, 110
2, 44494, Note_on_c, 9, 54, 0
2, 44496, Note_on_c, 9, 54, 110
2, 44542, Note_on_c, 9, 54, 0
2, 44544, Note_on_c, 9, 46, 110
2, 44544, Note_on_c, 9, 56, 110
2, 44638, Note_on_c, 9, 46, 0
2, 44638, Note_on_c, 9, 56, 0
2, 44640, Note_on_c, 9, 54, 110
2, 44686, Note_on_c, 9, 54, 0
2, 44688, Note_on_c, 9, 54, 110
2, 44734, Note_on_c, 9, 54, 0
2, 44736, Note_on_c, 9, 46, 110
2, 44736, Note_on_c, 9, 56, 110
2, 44830, Note_on_c, 9, 46, 0
2, 44830, Note_on_c, 9, 56, 0
2, 44832, Note_on_c, 9, 54, 110
2, 44878, Note_on_c, 9, 54, 0
2, 44880, Note_on_c, 9, 54, 110
2, 44926, Note_on_c, 9, 54, 0
2, 44928, Note_on_c, 9, 46, 110
2, 44928, Note_on_c, 9, 56, 110
2, 45022, Note_on_c, 9, 46, 0
2, 45022, Note_on_c, 9, 56, 0
2, 45024, Note_on_c, 9, 54, 110
2, 45070, Note_on_c, 9, 54, 0
2, 45072, Note_on_c, 9, 54, 110
2, 45118, Note_on_c, 9, 54, 0
2, 45120, Note_on_c, 9, 46, 110
2, 45120, Note_on_c, 9, 56, 110
2, 45214, Note_on_c, 9, 46, 0
2, 45214, Note_on_c, 9, 56, 0
2, 45216, Note_on_c, 9, 54, 110
2, 45262, Note_on_c, 9, 54, 0
2, 45264, Note_on_c, 9, 54, 110
2, 45310, Note_on_c, 9, 54, 0
2, 45312, Note_on_c, 9, 46, 110
2, 45312, Note_on_c, 9, 56, 110
2, 45406, Note_on_c, 9, 46, 0
2, 45406, Note_on_c, 9, 56, 0
2, 45408, Note_on_c, 9, 54, 110
2, 45454, Note_on_c, 9, 54, 0
2, 45456, Note_on_c, 9, 54, 110
2, 45502, Note_on_c, 9, 54, 0
2, 45504, Note_on_c, 9, 46, 110
2, 45504, Note_on_c, 9, 56, 110
2, 45598, Note_on_c, 9, 46, 0
2, 45598, Note_on_c, 9, 56, 0
2, 45600, Note_on_c, 9, 54, 110
2, 45646, Note_on_c, 9, 54, 0
2, 45648, Note_on_c, 9, 54, 110
2, 45694, Note_on_c, 9, 54, 0
2, 45696, Note_on_c, 9, 46, 110
2, 45696, Note_on_c, 9, 56, 110
2, 45790, Note_on_c, 9, 46, 0
2, 45790, Note_on_c, 9, 56, 0
2, 45792, Note_on_c, 9, 54, 110
2, 45838, Note_on_c, 9, 54, 0
2, 45840, Note_on_c, 9, 54, 110
2, 45886, Note_on_c, 9, 54, 0
2, 45888, Note_on_c, 9, 46, 110
2, 45888, Note_on_c, 9, 56, 110
2, 45982, Note_on_c, 9, 46, 0
2, 45982, Note_on_c, 9, 56, 0
2, 45984, Note_on_c, 9, 54, 110
2, 46030, Note_on_c, 9, 54, 0
2, 46032, Note_on_c, 9, 54, 110
2, 46078, Note_on_c, 9, 54, 0
2, 46080, Note_on_c, 9, 46, 110
2, 46080, Note_on_c, 9, 56, 110
2, 46174, Note_on_c, 9, 46, 0
2, 46174, Note_on_c, 9, 56, 0
2, 46176, Note_on_c, 9, 54, 110
2, 46222, Note_on_c, 9, 54, 0
2, 46224, Note_on_c, 9, 54, 110
2, 46270, Note_on_c, 9, 54, 0
2, 46272, Note_on_c, 9, 46, 110
2, 46272, Note_on_c, 9, 56, 110
2, 46366, Note_on_c, 9, 46, 0
2, 46366, Note_on_c, 9, 56, 0
2, 46368, Note_on_c, 9, 54, 110
2, 46414, Note_on_c, 9, 54, 0
2, 46416, Note_on_c, 9, 54, 110
2, 46462, Note_on_c, 9, 54, 0
2, 46464, Note_on_c, 9, 46, 110
2, 46464, Note_on_c, 9, 56, 110
2, 46558, Note_on_c, 9, 46, 0
2, 46558, Note_on_c, 9, 56, 0
2, 46560, Note_on_c, 9, 54, 110
2, 46606, Note_on_c, 9, 54, 0
2, 46608, Note_on_c, 9, 54, 110
2, 46654, Note_on_c, 9, 54, 0
2, 46656, Note_on_c, 9, 46, 110
2, 46656, Note_on_c, 9, 56, 110
2, 46750, Note_on_c, 9, 46, 0
2, 46750, Note_on_c, 9, 56, 0
2, 46752, Note_on_c, 9, 54, 110
2, 46798, Note_on_c, 9, 54, 0
2, 46800, Note_on_c, 9, 54, 110
2, 46846, Note_on_c, 9, 54, 0
2, 46848, Note_on_c, 9, 46, 110
2, 46848, Note_on_c, 9, 56, 110
2, 46942, Note_on_c, 9, 46, 0
2, 46942, Note_on_c, 9, 56, 0
2, 46944, Note_on_c, 9, 54, 110
2, 46990, Note_on_c, 9, 54, 0
2, 46992, Note_on_c, 9, 54, 110
2, 47038, Note_on_c, 9, 54, 0
2, 47040, Note_on_c, 9, 46, 110
2, 47040, Note_on_c, 9, 56, 110
2, 47134, Note_on_c, 9, 46, 0
2, 47134, Note_on_c, 9, 56, 0
2, 47136, Note_on_c, 9, 54, 110
2, 47182, Note_on_c, 9, 54, 0
2, 47184, Note_on_c, 9, 54, 110
2, 47230, Note_on_c, 9, 54, 0
2, 47232, Note_on_c, 9, 46, 110
2, 47232, Note_on_c, 9, 56, 110
2, 47326, Note_on_c, 9, 46, 0
2, 47326, Note_on_c, 9, 56, 0
2, 47328, Note_on_c, 9, 54, 110
2, 47374, Note_on_c, 9, 54, 0
2, 47376, Note_on_c, 9, 54, 110
2, 47422, Note_on_c, 9, 54, 0
2, 47424, Note_on_c, 9, 46, 110
2, 47424, Note_on_c, 9, 56, 110
2, 47518, Note_on_c, 9, 46, 0
2, 47518, Note_on_c, 9, 56, 0
2, 47520, Note_on_c, 9, 54, 110
2, 47566, Note_on_c, 9, 54, 0
2, 47568, Note_on_c, 9, 54, 110
2, 47614, Note_on_c, 9, 54, 0
2, 47616, Note_on_c, 9, 46, 110
2, 47616, Note_on_c, 9, 56, 110
2, 47710, Note_on_c, 9, 46, 0
2, 47710, Note_on_c, 9, 56, 0
2, 47712, Note_on_c, 9, 54, 110
2, 47758, Note_on_c, 9, 54, 0
2, 47760, Note_on_c, 9, 54, 110
2, 47806, Note_on_c, 9, 54, 0
2, 47808, Note_on_c, 9, 46, 110
2, 47808, Note_on_c, 9, 56, 110
2, 47902, Note_on_c, 9, 46, 0
2, 47902, Note_on_c, 9, 56, 0
2, 47904, Note_on_c, 9, 54, 110
2, 47950, Note_on_c, 9, 54, 0
2, 47952, Note_on_c, 9, 54, 110
2, 47998, Note_on_c, 9, 54, 0
2, 48000, Note_on_c, 9, 46, 110
2, 48000, Note_on_c, 9, 56, 110
2, 48094, Note_on_c, 9, 46, 0
2, 48094, Note_on_c, 9, 56, 0
2, 48096, Note_on_c, 9, 54, 110
2, 48142, Note_on_c, 9, 54, 0
2, 48144, Note_on_c, 9, 54, 110
2, 48190, Note_on_c, 9, 54, 0
2, 48192, Note_on_c, 9, 46, 110
2, 48192, Note_on_c, 9, 56, 110
2, 48286, Note_on_c, 9, 46, 0
2, 48286, Note_on_c, 9, 56, 0
2, 48288, Note_on_c, 9, 54, 110
2, 48334, Note_on_c, 9, 54, 0
2, 48336, Note_on_c, 9, 54, 110
2, 48382, Note_on_c, 9, 54, 0
2, 48384, Note_on_c, 9, 46, 110
2, 48384, Note_on_c, 9, 56, 110
2, 48478, Note_on_c, 9, 46, 0
2, 48478, Note_on_c, 9, 56, 0
2, 48480, Note_on_c, 9, 54, 110
2, 48526, Note_on_c, 9, 54, 0
2, 48528, Note_on_c, 9, 54, 110
2, 48574, Note_on_c, 9, 54, 0
2, 48576, Note_on_c, 9, 46, 110
2, 48576, Note_on_c, 9, 56, 110
2, 48670, Note_on_c, 9, 46, 0
2, 48670, Note_on_c, 9, 56, 0
2, 48672, Note_on_c, 9, 54, 110
2, 48718, Note_on_c, 9, 54, 0
2, 48720, Note_on_c, 9, 54, 110
2, 48766, Note_on_c, 9, 54, 0
2, 48768, Note_on_c, 9, 46, 110
2, 48768, Note_on_c, 9, 56, 110
2, 48862, Note_on_c, 9, 46, 0
2, 48862, Note_on_c, 9, 56, 0
2, 48864, Note_on_c, 9, 54, 110
2, 48910, Note_on_c, 9, 54, 0
2, 48912, Note_on_c, 9, 54, 110
2, 48958, Note_on_c, 9, 54, 0
2, 48960, Note_on_c, 9, 46, 110
2, 48960, Note_on_c, 9, 56, 110
2, 49054, Note_on_c, 9, 46, 0
2, 49054, Note_on_c, 9, 56, 0
2, 49056, Note_on_c, 9, 54, 110
2, 49102, Note_on_c, 9, 54, 0
2, 49104, Note_on_c, 9, 54, 110
2, 49150, Note_on_c, 9, 54, 0
2, 49152, Note_on_c, 9, 46, 110
2, 49152, Note_on_c, 9, 56, 110
2, 49246, Note_on_c, 9, 46, 0
2, 49246, Note_on_c, 9, 56, 0
2, 49248, Note_on_c, 9, 54, 110
2, 49294, Note_on_c, 9, 54, 0
2, 49296, Note_on_c, 9, 54, 110
2, 49342, Note_on_c, 9, 54, 0
2, 49344, Note_on_c, 9, 46, 110
2, 49344, Note_on_c, 9, 56, 110
2, 49438, Note_on_c, 9, 46, 0
2, 49438, Note_on_c, 9, 56, 0
2, 49440, Note_on_c, 9, 54, 110
2, 49486, Note_on_c, 9, 54, 0
2, 49488, Note_on_c, 9, 54, 110
2, 49534, Note_on_c, 9, 54, 0
2, 49536, Note_on_c, 9, 46, 110
2, 49536, Note_on_c, 9, 56, 110
2, 49630, Note_on_c, 9, 46, 0
2, 49630, Note_on_c, 9, 56, 0
2, 49632, Note_on_c, 9, 54, 110
2, 49678, Note_on_c, 9, 54, 0
2, 49680, Note_on_c, 9, 54, 110
2, 49726, Note_on_c, 9, 54, 0
2, 49728, Note_on_c, 9, 46, 110
2, 49728, Note_on_c, 9, 56, 110
2, 49822, Note_on_c, 9, 46, 0
2, 49822, Note_on_c, 9, 56, 0
2, 49824, Note_on_c, 9, 54, 110
2, 49870, Note_on_c, 9, 54, 0
2, 49872, Note_on_c, 9, 54, 110
2, 49918, Note_on_c, 9, 54, 0
2, 49920, Note_on_c, 9, 46, 110
2, 49920, Note_on_c, 9, 56, 110
2, 50014, Note_on_c, 9, 46, 0
2, 50014, Note_on_c, 9, 56, 0
2, 50016, Note_on_c, 9, 54, 110
2, 50062, Note_on_c, 9, 54, 0
2, 50064, Note_on_c, 9, 54, 110
2, 50110, Note_on_c, 9, 54, 0
2, 50112, Note_on_c, 9, 46, 110
2, 50112, Note_on_c, 9, 56, 110
2, 50206, Note_on_c, 9, 46, 0
2, 50206, Note_on_c, 9, 56, 0
2, 50208, Note_on_c, 9, 54, 110
2, 50254, Note_on_c, 9, 54, 0
2, 50256, Note_on_c, 9, 54, 110
2, 50302, Note_on_c, 9, 54, 0
2, 50304, Note_on_c, 9, 46, 110
2, 50304, Note_on_c, 9, 56, 110
2, 50398, Note_on_c, 9, 46, 0
2, 50398, Note_on_c, 9, 56, 0
2, 50400, Note_on_c, 9, 54, 110
2, 50446, Note_on_c, 9, 54, 0
2, 50448, Note_on_c, 9, 54, 110
2, 50494, Note_on_c, 9, 54, 0
2, 50496, Note_on_c, 9, 46, 110
2, 50496, Note_on_c, 9, 56, 110
2, 50590, Note_on_c, 9, 46, 0
2, 50590, Note_on_c, 9, 56, 0
2, 50592, Note_on_c, 9, 54, 110
2, 50638, Note_on_c, 9, 54, 0
2, 50640, Note_on_c, 9, 54, 110
2, 50686, Note_on_c, 9, 54, 0
2, 50688, Note_on_c, 9, 46, 110
2, 50688, Note_on_c, 9, 56, 110
2, 50782, Note_on_c, 9, 46, 0
2, 50782, Note_on_c, 9, 56, 0
2, 50784, Note_on_c, 9, 54, 110
2, 50830, Note_on_c, 9, 54, 0
2, 50832, Note_on_c, 9, 54, 110
2, 50878, Note_on_c, 9, 54, 0
2, 50880, Note_on_c, 9, 46, 110
2, 50880, Note_on_c, 9, 56, 110
2, 50974, Note_on_c, 9, 46, 0
2, 50974, Note_on_c, 9, 56, 0
2, 50976, Note_on_c, 9, 54, 110
2, 51022, Note_on_c, 9, 54, 0
2, 51024, Note_on_c, 9, 54, 110
2, 51070, Note_on_c, 9, 54, 0
2, 51072, Note_on_c, 9, 56, 110
2, 51166, Note_on_c, 9, 56, 0
2, 51168, Note_on_c, 9, 54, 110
2, 51214, Note_on_c, 9, 54, 0
2, 51216, Note_on_c, 9, 54, 110
2, 51262, Note_on_c, 9, 54, 0
2, 51264, Note_on_c, 9, 56, 110
2, 51358, Note_on_c, 9, 56, 0
2, 51360, Note_on_c, 9, 54, 110
2, 51406, Note_on_c, 9, 54, 0
2, 51408, Note_on_c, 9, 54, 110
2, 51454, Note_on_c, 9, 54, 0
2, 51456, Note_on_c, 9, 46, 110
2, 51456, Note_on_c, 9, 56, 110
2, 51550, Note_on_c, 9, 46, 0
2, 51550, Note_on_c, 9, 56, 0
2, 51552, Note_on_c, 9, 54, 110
2, 51598, Note_on_c, 9, 54, 0
2, 51600, Note_on_c, 9, 54, 110
2, 51646, Note_on_c, 9, 54, 0
2, 51648, Note_on_c, 9, 46, 110
2, 51648, Note_on_c, 9, 56, 110
2, 51742, Note_on_c, 9, 46, 0
2, 51742, Note_on_c, 9, 56, 0
2, 51744, Note_on_c, 9, 54, 110
2, 51790, Note_on_c, 9, 54, 0
2, 51792, Note_on_c, 9, 54, 110
2, 51838, Note_on_c, 9, 54, 0
2, 51840, Note_on_c, 9, 46, 110
2, 51840, Note_on_c, 9, 56, 110
2, 51934, Note_on_c, 9, 46, 0
2, 51934, Note_on_c, 9, 56, 0
2, 51936, Note_on_c, 9, 54, 110
2, 51982, Note_on_c, 9, 54, 0
2, 51984, Note_on_c, 9, 54, 110
2, 52030, Note_on_c, 9, 54, 0
2, 52032, Note_on_c, 9, 46, 110
2, 52032, Note_on_c, 9, 56, 110
2, 52126, Note_on_c, 9, 46, 0
2, 52126, Note_on_c, 9, 56, 0
2, 52128, Note_on_c, 9, 54, 110
2, 52174, Note_on_c, 9, 54, 0
2, 52176, Note_on_c, 9, 54, 110
2, 52222, Note_on_c, 9, 54, 0
2, 52224, Note_on_c, 9, 46, 110
2, 52224, Note_on_c, 9, 56, 110
2, 52318, Note_on_c, 9, 46, 0
2, 52318, Note_on_c, 9, 56, 0
2, 52320, Note_on_c, 9, 54, 110
2, 52366, Note_on_c, 9, 54, 0
2, 52368, Note_on_c, 9, 54, 110
2, 52414, Note_on_c, 9, 54, 0
2, 52416, Note_on_c, 9, 46, 110
2, 52416, Note_on_c, 9, 56, 110
2, 52510, Note_on_c, 9, 46, 0
2, 52510, Note_on_c, 9, 56, 0
2, 52512, Note_on_c, 9, 54, 110
2, 52558, Note_on_c, 9, 54, 0
2, 52560, Note_on_c, 9, 54, 110
2, 52606, Note_on_c, 9, 54, 0
2, 52608, Note_on_c, 9, 46, 110
2, 52608, Note_on_c, 9, 56, 110
2, 52702, Note_on_c, 9, 46, 0
2, 52702, Note_on_c, 9, 56, 0
2, 52704, Note_on_c, 9, 54, 110
2, 52750, Note_on_c, 9, 54, 0
2, 52752, Note_on_c, 9, 54, 110
2, 52798, Note_on_c, 9, 54, 0
2, 52800, Note_on_c, 9, 46, 110
2, 52800, Note_on_c, 9, 56, 110
2, 52894, Note_on_c, 9, 46, 0
2, 52894, Note_on_c, 9, 56, 0
2, 52896, Note_on_c, 9, 54, 110
2, 52942, Note_on_c, 9, 54, 0
2, 52944, Note_on_c, 9, 54, 110
2, 52990, Note_on_c, 9, 54, 0
2, 52992, Note_on_c, 9, 46, 110
2, 52992, Note_on_c, 9, 56, 110
2, 53086, Note_on_c, 9, 46, 0
2, 53086, Note_on_c, 9, 56, 0
2, 53088, Note_on_c, 9, 54, 110
2, 53134, Note_on_c, 9, 54, 0
2, 53136, Note_on_c, 9, 54, 110
2, 53182, Note_on_c, 9, 54, 0
2, 53184, Note_on_c, 9, 46, 110
2, 53184, Note_on_c, 9, 56, 110
2, 53278, Note_on_c, 9, 46, 0
2, 53278, Note_on_c, 9, 56, 0
2, 53280, Note_on_c, 9, 54, 110
2, 53326, Note_on_c, 9, 54, 0
2, 53328, Note_on_c, 9, 54, 110
2, 53374, Note_on_c, 9, 54, 0
2, 53376, Note_on_c, 9, 46, 110
2, 53376, Note_on_c, 9, 56, 110
2, 53470, Note_on_c, 9, 46, 0
2, 53470, Note_on_c, 9, 56, 0
2, 53472, Note_on_c, 9, 54, 110
2, 53518, Note_on_c, 9, 54, 0
2, 53520, Note_on_c, 9, 54, 110
2, 53566, Note_on_c, 9, 54, 0
2, 53568, Note_on_c, 9, 46, 110
2, 53568, Note_on_c, 9, 56, 110
2, 53662, Note_on_c, 9, 46, 0
2, 53662, Note_on_c, 9, 56, 0
2, 53664, Note_on_c, 9, 54, 110
2, 53710, Note_on_c, 9, 54, 0
2, 53712, Note_on_c, 9, 54, 110
2, 53758, Note_on_c, 9, 54, 0
2, 53760, Note_on_c, 9, 46, 110
2, 53760, Note_on_c, 9, 56, 110
2, 53854, Note_on_c, 9, 46, 0
2, 53854, Note_on_c, 9, 56, 0
2, 53856, Note_on_c, 9, 54, 110
2, 53902, Note_on_c, 9, 54, 0
2, 53904, Note_on_c, 9, 54, 110
2, 53950, Note_on_c, 9, 54, 0
2, 53952, Note_on_c, 9, 46, 110
2, 53952, Note_on_c, 9, 56, 110
2, 54046, Note_on_c, 9, 46, 0
2, 54046, Note_on_c, 9, 56, 0
2, 54048, Note_on_c, 9, 54, 110
2, 54094, Note_on_c, 9, 54, 0
2, 54096, Note_on_c, 9, 54, 110
2, 54142, Note_on_c, 9, 54, 0
2, 54144, Note_on_c, 9, 46, 110
2, 54144, Note_on_c, 9, 56, 110
2, 54238, Note_on_c, 9, 46, 0
2, 54238, Note_on_c, 9, 56, 0
2, 54240, Note_on_c, 9, 54, 110
2, 54286, Note_on_c, 9, 54, 0
2, 54288, Note_on_c, 9, 54, 110
2, 54334, Note_on_c, 9, 54, 0
2, 54336, Note_on_c, 9, 46, 110
2, 54336, Note_on_c, 9, 56, 110
2, 54430, Note_on_c, 9, 46, 0
2, 54430, Note_on_c, 9, 56, 0
2, 54432, Note_on_c, 9, 54, 110
2, 54478, Note_on_c, 9, 54, 0
2, 54480, Note_on_c, 9, 54, 110
2, 54526, Note_on_c, 9, 54, 0
2, 54528, Note_on_c, 9, 46, 110
2, 54528, Note_on_c, 9, 56, 110
2, 54622, Note_on_c, 9, 46, 0
2, 54622, Note_on_c, 9, 56, 0
2, 54624, Note_on_c, 9, 54, 110
2, 54670, Note_on_c, 9, 54, 0
2, 54672, Note_on_c, 9, 54, 110
2, 54718, Note_on_c, 9, 54, 0
2, 54720, Note_on_c, 9, 46, 110
2, 54720, Note_on_c, 9, 56, 110
2, 54814, Note_on_c, 9, 46, 0
2, 54814, Note_on_c, 9, 56, 0
2, 54816, Note_on_c, 9, 54, 110
2, 54862, Note_on_c, 9, 54, 0
2, 54864, Note_on_c, 9, 54, 110
2, 54910, Note_on_c, 9, 54, 0
2, 54912, Note_on_c, 9, 46, 110
2, 54912, Note_on_c, 9, 56, 110
2, 55006, Note_on_c, 9, 46, 0
2, 55006, Note_on_c, 9, 56, 0
2, 55008, Note_on_c, 9, 54, 110
2, 55054, Note_on_c, 9, 54, 0
2, 55056, Note_on_c, 9, 54, 110
2, 55102, Note_on_c, 9, 54, 0
2, 55104, Note_on_c, 9, 46, 110
2, 55104, Note_on_c, 9, 56, 110
2, 55198, Note_on_c, 9, 46, 0
2, 55198, Note_on_c, 9, 56, 0
2, 55200, Note_on_c, 9, 54, 110
2, 55246, Note_on_c, 9, 54, 0
2, 55248, Note_on_c, 9, 54, 110
2, 55294, Note_on_c, 9, 54, 0
2, 55296, Note_on_c, 9, 46, 110
2, 55296, Note_on_c, 9, 56, 110
2, 55390, Note_on_c, 9, 46, 0
2, 55390, Note_on_c, 9, 56, 0
2, 55392, Note_on_c, 9, 54, 110
2, 55438, Note_on_c, 9, 54, 0
2, 55440, Note_on_c, 9, 54, 110
2, 55486, Note_on_c, 9, 54, 0
2, 55488, Note_on_c, 9, 46, 110
2, 55488, Note_on_c, 9, 56, 110
2, 55582, Note_on_c, 9, 46, 0
2, 55582, Note_on_c, 9, 56, 0
2, 55584, Note_on_c, 9, 54, 110
2, 55630, Note_on_c, 9, 54, 0
2, 55632, Note_on_c, 9, 54, 110
2, 55678, Note_on_c, 9, 54, 0
2, 55680, Note_on_c, 9, 46, 110
2, 55680, Note_on_c, 9, 56, 110
2, 55774, Note_on_c, 9, 46, 0
2, 55774, Note_on_c, 9, 56, 0
2, 55776, Note_on_c, 9, 54, 110
2, 55822, Note_on_c, 9, 54, 0
2, 55824, Note_on_c, 9, 54, 110
2, 55870, Note_on_c, 9, 54, 0
2, 55872, Note_on_c, 9, 46, 110
2, 55872, Note_on_c, 9, 56, 110
2, 55966, Note_on_c, 9, 46, 0
2, 55966, Note_on_c, 9, 56, 0
2, 55968, Note_on_c, 9, 54, 110
2, 56014, Note_on_c, 9, 54, 0
2, 56016, Note_on_c, 9, 54, 110
2, 56062, Note_on_c, 9, 54, 0
2, 56064, Note_on_c, 9, 46, 110
2, 56064, Note_on_c, 9, 56, 110
2, 56158, Note_on_c, 9, 46, 0
2, 56158, Note_on_c, 9, 56, 0
2, 56160, Note_on_c, 9, 54, 110
2, 56206, Note_on_c, 9, 54, 0
2, 56208, Note_on_c, 9, 54, 110
2, 56254, Note_on_c, 9, 54, 0
2, 56256, Note_on_c, 9, 46, 110
2, 56256, Note_on_c, 9, 56, 110
2, 56350, Note_on_c, 9, 46, 0
2, 56350, Note_on_c, 9, 56, 0
2, 56352, Note_on_c, 9, 54, 110
2, 56398, Note_on_c, 9, 54, 0
2, 56400, Note_on_c, 9, 54, 110
2, 56446, Note_on_c, 9, 54, 0
2, 56448, Note_on_c, 9, 46, 110
2, 56448, Note_on_c, 9, 56, 110
2, 56542, Note_on_c, 9, 46, 0
2, 56542, Note_on_c, 9, 56, 0
2, 56544, Note_on_c, 9, 54, 110
2, 56590, Note_on_c, 9, 54, 0
2, 56592, Note_on_c, 9, 54, 110
2, 56638, Note_on_c, 9, 54, 0
2, 56640, Note_on_c, 9, 46, 110
2, 56640, Note_on_c, 9, 56, 110
2, 56734, Note_on_c, 9, 46, 0
2, 56734, Note_on_c, 9, 56, 0
2, 56736, Note_on_c, 9, 54, 110
2, 56782, Note_on_c, 9, 54, 0
2, 56784, Note_on_c, 9, 54, 110
2, 56830, Note_on_c, 9, 54, 0
2, 56832, Note_on_c, 9, 46, 110
2, 56832, Note_on_c, 9, 56, 110
2, 56926, Note_on_c, 9, 46, 0
2, 56926, Note_on_c, 9, 56, 0
2, 56928, Note_on_c, 9, 54, 110
2, 56974, Note_on_c, 9, 54, 0
2, 56976, Note_on_c, 9, 54, 110
2, 57022, Note_on_c, 9, 54, 0
2, 57024, Note_on_c, 9, 46, 110
2, 57024, Note_on_c, 9, 56, 110
2, 57118, Note_on_c, 9, 46, 0
2, 57118, Note_on_c, 9, 56, 0
2, 57120, Note_on_c, 9, 54, 110
2, 57166, Note_on_c, 9, 54, 0
2, 57168, Note_on_c, 9, 54, 110
2, 57214, Note_on_c, 9, 54, 0
2, 57216, Note_on_c, 9, 46, 110
2, 57216, Note_on_c, 9, 56, 110
2, 57310, Note_on_c, 9, 46, 0
2, 57310, Note_on_c, 9, 56, 0
2, 57312, Note_on_c, 9, 54, 110
2, 57358, Note_on_c, 9, 54, 0
2, 57360, Note_on_c, 9, 54, 110
2, 57406, Note_on_c, 9, 54, 0
2, 57408, Note_on_c, 9, 46, 110
2, 57408, Note_on_c, 9, 56, 110
2, 57502, Note_on_c, 9, 46, 0
2, 57502, Note_on_c, 9, 56, 0
2, 57504, Note_on_c, 9, 54, 110
2, 57550, Note_on_c, 9, 54, 0
2, 57552, Note_on_c, 9, 54, 110
2, 57598, Note_on_c, 9, 54, 0
2, 57600, Note_on_c, 9, 46, 110
2, 57600, Note_on_c, 9, 56, 110
2, 57694, Note_on_c, 9, 46, 0
2, 57694, Note_on_c, 9, 56, 0
2, 57696, Note_on_c, 9, 54, 110
2, 57742, Note_on_c, 9, 54, 0
2, 57744, Note_on_c, 9, 54, 110
2, 57790, Note_on_c, 9, 54, 0
2, 57792, Note_on_c, 9, 46, 110
2, 57792, Note_on_c, 9, 56, 110
2, 57886, Note_on_c, 9, 46, 0
2, 57886, Note_on_c, 9, 56, 0
2, 57888, Note_on_c, 9, 54, 110
2, 57934, Note_on_c, 9, 54, 0
2, 57936, Note_on_c, 9, 54, 110
2, 57982, Note_on_c, 9, 54, 0
2, 57984, Note_on_c, 9, 46, 110
2, 57984, Note_on_c, 9, 56, 110
2, 58078, Note_on_c, 9, 46, 0
2, 58078, Note_on_c, 9, 56, 0
2, 58080, Note_on_c, 9, 54, 110
2, 58126, Note_on_c, 9, 54, 0
2, 58128, Note_on_c, 9, 54, 110
2, 58174, Note_on_c, 9, 54, 0
2, 58176, Note_on_c, 9, 46, 110
2, 58176, Note_on_c, 9, 56, 110
2, 58270, Note_on_c, 9, 46, 0
2, 58270, Note_on_c, 9, 56, 0
2, 58272, Note_on_c, 9, 54, 110
2, 58318, Note_on_c, 9, 54, 0
2, 58320, Note_on_c, 9, 54, 110
2, 58366, Note_on_c, 9, 54, 0
2, 58368, Note_on_c, 9, 46, 110
2, 58368, Note_on_c, 9, 56, 110
2, 58462, Note_on_c, 9, 46, 0
2, 58462, Note_on_c, 9, 56, 0
2, 58464, Note_on_c, 9, 54, 110
2, 58510, Note_on_c, 9, 54, 0
2, 58512, Note_on_c, 9, 54, 110
2, 58558, Note_on_c, 9, 54, 0
2, 58560, Note_on_c, 9, 46, 110
2, 58560, Note_on_c, 9, 56, 110
2, 58654, Note_on_c, 9, 46, 0
2, 58654, Note_on_c, 9, 56, 0
2, 58656, Note_on_c, 9, 54, 110
2, 58702, Note_on_c, 9, 54, 0
2, 58704, Note_on_c, 9, 54, 110
2, 58750, Note_on_c, 9, 54, 0
2, 58752, Note_on_c, 9, 46, 110
2, 58752, Note_on_c, 9, 56, 110
2, 58846, Note_on_c, 9, 46, 0
2, 58846, Note_on_c, 9, 56, 0
2, 58848, Note_on_c, 9, 54, 110
2, 58894, Note_on_c, 9, 54, 0
2, 58896, Note_on_c, 9, 54, 110
2, 58942, Note_on_c, 9, 54, 0
2, 58944, Note_on_c, 9, 46, 110
2, 58944, Note_on_c, 9, 56, 110
2, 59038, Note_on_c, 9, 46, 0
2, 59038, Note_on_c, 9, 56, 0
2, 59040, Note_on_c, 9, 54, 110
2, 59086, Note_on_c, 9, 54, 0
2, 59088, Note_on_c, 9, 54, 110
2, 59134, Note_on_c, 9, 54, 0
2, 59136, Note_on_c, 9, 46, 110
2, 59136, Note_on_c, 9, 56, 110
2, 59230, Note_on_c, 9, 46, 0
2, 59230, Note_on_c, 9, 56, 0
2, 59232, Note_on_c, 9, 54, 110
2, 59278, Note_on_c, 9, 54, 0
2, 59280, Note_on_c, 9, 54, 110
2, 59326, Note_on_c, 9, 54, 0
2, 59328, Note_on_c, 9, 46, 110
2, 59328, Note_on_c, 9, 56, 110
2, 59422, Note_on_c, 9, 46, 0
2, 59422, Note_on_c, 9, 56, 0
2, 59424, Note_on_c, 9, 54, 110
2, 59470, Note_on_c, 9, 54, 0
2, 59472, Note_on_c, 9, 54, 110
2, 59518, Note_on_c, 9, 54, 0
2, 59520, Note_on_c, 9, 46, 110
2, 59520, Note_on_c, 9, 56, 110
2, 59614, Note_on_c, 9, 46, 0
2, 59614, Note_on_c, 9, 56, 0
2, 59616, Note_on_c, 9, 54, 110
2, 59662, Note_on_c, 9, 54, 0
2, 59664, Note_on_c, 9, 54, 110
2, 59710, Note_on_c, 9, 54, 0
2, 59712, Note_on_c, 9, 46, 110
2, 59712, Note_on_c, 9, 56, 110
2, 59806, Note_on_c, 9, 46, 0
2, 59806, Note_on_c, 9, 56, 0
2, 59808, Note_on_c, 9, 54, 110
2, 59854, Note_on_c, 9, 54, 0
2, 59856, Note_on_c, 9, 54, 110
2, 59902, Note_on_c, 9, 54, 0
2, 59904, Note_on_c, 9, 46, 110
2, 59904, Note_on_c, 9, 56, 110
2, 59998, Note_on_c, 9, 46, 0
2, 59998, Note_on_c, 9, 56, 0
2, 60000, Note_on_c, 9, 54, 110
2, 60046, Note_on_c, 9, 54, 0
2, 60048, Note_on_c, 9, 54, 110
2, 60094, Note_on_c, 9, 54, 0
2, 60096, Note_on_c, 9, 46, 110
2, 60096, Note_on_c, 9, 56, 110
2, 60190, Note_on_c, 9, 46, 0
2, 60190, Note_on_c, 9, 56, 0
2, 60192, Note_on_c, 9, 54, 110
2, 60238, Note_on_c, 9, 54, 0
2, 60240, Note_on_c, 9, 54, 110
2, 60286, Note_on_c, 9, 54, 0
2, 60288, Note_on_c, 9, 56, 110
2, 60382, Note_on_c, 9, 56, 0
2, 60384, Note_on_c, 9, 54, 110
2, 60430, Note_on_c, 9, 54, 0
2, 60432, Note_on_c, 9, 54, 110
2, 60478, Note_on_c, 9, 54, 0
2, 60480, Note_on_c, 9, 56, 110
2, 60574, Note_on_c, 9, 56, 0
2, 60576, Note_on_c, 9, 54, 110
2, 60622, Note_on_c, 9, 54, 0
2, 60624, Note_on_c, 9, 54, 110
2, 60670, Note_on_c, 9, 54, 0
2, 60672, Note_on_c, 9, 46, 110
2, 60672, Note_on_c, 9, 56, 110
2, 60766, Note_on_c, 9, 46, 0
2, 60766, Note_on_c, 9, 56, 0
2, 60768, Note_on_c, 9, 54, 110
2, 60814, Note_on_c, 9, 54, 0
2, 60816, Note_on_c, 9, 54, 110
2, 60862, Note_on_c, 9, 54, 0
2, 60864, Note_on_c, 9, 46, 110
2, 60864, Note_on_c, 9, 56, 110
2, 60958, Note_on_c, 9, 46, 0
2, 60958, Note_on_c, 9, 56, 0
2, 60960, Note_on_c, 9, 54, 110
2, 61006, Note_on_c, 9, 54, 0
2, 61008, Note_on_c, 9, 54, 110
2, 61054, Note_on_c, 9, 54, 0
2, 61056, Note_on_c, 9, 46, 110
2, 61056, Note_on_c, 9, 56, 110
2, 61150, Note_on_c, 9, 46, 0
2, 61150, Note_on_c, 9, 56, 0
2, 61152, Note_on_c, 9, 54, 110
2, 61198, Note_on_c, 9, 54, 0
2, 61200, Note_on_c, 9, 54, 110
2, 61246, Note_on_c, 9, 54, 0
2, 61248, Note_on_c, 9, 46, 110
2, 61248, Note_on_c, 9, 56, 110
2, 61342, Note_on_c, 9, 46, 0
2, 61342, Note_on_c, 9, 56, 0
2, 61344, Note_on_c, 9, 54, 110
2, 61390, Note_on_c, 9, 54, 0
2, 61392, Note_on_c, 9, 54, 110
2, 61438, Note_on_c, 9, 54, 0
2, 61440, Note_on_c, 9, 46, 110
2, 61440, Note_on_c, 9, 56, 110
2, 61534, Note_on_c, 9, 46, 0
2, 61534, Note_on_c, 9, 56, 0
2, 61536, Note_on_c, 9, 54, 110
2, 61582, Note_on_c, 9, 54, 0
2, 61584, Note_on_c, 9, 54, 110
2, 61630, Note_on_c, 9, 54, 0
2, 61632, Note_on_c, 9, 46, 110
2, 61632, Note_on_c, 9, 56, 110
2, 61726, Note_on_c, 9, 46, 0
2, 61726, Note_on_c, 9, 56, 0
2, 61728, Note_on_c, 9, 54, 110
2, 61774, Note_on_c, 9, 54, 0
2, 61776, Note_on_c, 9, 54, 110
2, 61822, Note_on_c, 9, 54, 0
2, 61824, Note_on_c, 9, 46, 110
2, 61824, Note_on_c, 9, 56, 110
2, 61918, Note_on_c, 9, 46, 0
2, 61918, Note_on_c, 9, 56, 0
2, 61920, Note_on_c, 9, 54, 110
2, 61966, Note_on_c, 9, 54, 0
2, 61968, Note_on_c, 9, 54, 110
2, 62014, Note_on_c, 9, 54, 0
2, 62016, Note_on_c, 9, 46, 110
2, 62016, Note_on_c, 9, 56, 110
2, 62110, Note_on_c, 9, 46, 0
2, 62110, Note_on_c, 9, 56, 0
2, 62112, Note_on_c, 9, 54, 110
2, 62158, Note_on_c, 9, 54, 0
2, 62160, Note_on_c, 9, 54, 110
2, 62206, Note_on_c, 9, 54, 0
2, 62208, Note_on_c, 9, 46, 110
2, 62208, Note_on_c, 9, 56, 110
2, 62302, Note_on_c, 9, 46, 0
2, 62302, Note_on_c, 9, 56, 0
2, 62304, Note_on_c, 9, 54, 110
2, 62350, Note_on_c, 9, 54, 0
2, 62352, Note_on_c, 9, 54, 110
2, 62398, Note_on_c, 9, 54, 0
2, 62400, Note_on_c, 9, 46, 110
2, 62400, Note_on_c, 9, 56, 110
2, 62494, Note_on_c, 9, 46, 0
2, 62494, Note_on_c, 9, 56, 0
2, 62496, Note_on_c, 9, 54, 110
2, 62542, Note_on_c, 9, 54, 0
2, 62544, Note_on_c, 9, 54, 110
2, 62590, Note_on_c, 9, 54, 0
2, 62592, Note_on_c, 9, 46, 110
2, 62592, Note_on_c, 9, 56, 110
2, 62686, Note_on_c, 9, 46, 0
2, 62686, Note_on_c, 9, 56, 0
2, 62688, Note_on_c, 9, 54, 110
2, 62734, Note_on_c, 9, 54, 0
2, 62736, Note_on_c, 9, 54, 110
2, 62782, Note_on_c, 9, 54, 0
2, 62784, Note_on_c, 9, 46, 110
2, 62784, Note_on_c, 9, 56, 110
2, 62878, Note_on_c, 9, 46, 0
2, 62878, Note_on_c, 9, 56, 0
2, 62880, Note_on_c, 9, 54, 110
2, 62926, Note_on_c, 9, 54, 0
2, 62928, Note_on_c, 9, 54, 110
2, 62974, Note_on_c, 9, 54, 0
2, 62976, Note_on_c, 9, 46, 110
2, 62976, Note_on_c, 9, 56, 110
2, 63070, Note_on_c, 9, 46, 0
2, 63070, Note_on_c, 9, 56, 0
2, 63072, Note_on_c, 9, 54, 110
2, 63118, Note_on_c, 9, 54, 0
2, 63120, Note_on_c, 9, 54, 110
2, 63166, Note_on_c, 9, 54, 0
2, 63168, Note_on_c, 9, 46, 110
2, 63168, Note_on_c, 9, 56, 110
2, 63262, Note_on_c, 9, 46, 0
2, 63262, Note_on_c, 9, 56, 0
2, 63264, Note_on_c, 9, 54, 110
2, 63310, Note_on_c, 9, 54, 0
2, 63312, Note_on_c, 9, 54, 110
2, 63358, Note_on_c, 9, 54, 0
2, 63360, Note_on_c, 9, 46, 110
2, 63360, Note_on_c, 9, 56, 110
2, 63454, Note_on_c, 9, 46, 0
2, 63454, Note_on_c, 9, 56, 0
2, 63456, Note_on_c, 9, 54, 110
2, 63502, Note_on_c, 9, 54, 0
2, 63504, Note_on_c, 9, 54, 110
2, 63550, Note_on_c, 9, 54, 0
2, 63552, Note_on_c, 9, 46, 110
2, 63552, Note_on_c, 9, 56, 110
2, 63646, Note_on_c, 9, 46, 0
2, 63646, Note_on_c, 9, 56, 0
2, 63648, Note_on_c, 9, 54, 110
2, 63694, Note_on_c, 9, 54, 0
2, 63696, Note_on_c, 9, 54, 110
2, 63742, Note_on_c, 9, 54, 0
2, 63744, Note_on_c, 9, 46, 110
2, 63744, Note_on_c, 9, 56, 110
2, 63838, Note_on_c, 9, 46, 0
2, 63838, Note_on_c, 9, 56, 0
2, 63838, End_track
3, 0, Start_track
3, 0, MIDI_port, 0
3, 0, Title_t, "Tempo Track"
3, 0, Control_c, 0, 7, 127
3, 0, Control_c, 0, 10, 64
3, 0, End_track
4, 0, Start_track
4, 0, MIDI_port, 0
4, 0, Title_t, "Staff-1"
4, 0, Control_c, 1, 7, 127
4, 0, Control_c, 1, 10, 64
4, 0, Program_c, 1, 0
4, 3936, Note_on_c, 1, 68, 110
4, 3936, Note_on_c, 1, 73, 110
4, 3936, Note_on_c, 1, 77, 110
4, 4096, Note_on_c, 1, 68, 0
4, 4096, Note_on_c, 1, 73, 0
4, 4096, Note_on_c, 1, 77, 0
4, 4224, Note_on_c, 1, 66, 110
4, 4224, Note_on_c, 1, 71, 110
4, 4224, Note_on_c, 1, 75, 110
4, 4560, Note_on_c, 1, 66, 0
4, 4560, Note_on_c, 1, 71, 0
4, 4560, Note_on_c, 1, 75, 0
4, 4704, Note_on_c, 1, 68, 110
4, 4704, Note_on_c, 1, 73, 110
4, 4704, Note_on_c, 1, 77, 110
4, 4864, Note_on_c, 1, 68, 0
4, 4864, Note_on_c, 1, 73, 0
4, 4864, Note_on_c, 1, 77, 0
4, 4992, Note_on_c, 1, 66, 110
4, 4992, Note_on_c, 1, 71, 110
4, 4992, Note_on_c, 1, 75, 110
4, 5328, Note_on_c, 1, 66, 0
4, 5328, Note_on_c, 1, 71, 0
4, 5328, Note_on_c, 1, 75, 0
4, 5472, Note_on_c, 1, 68, 110
4, 5472, Note_on_c, 1, 73, 110
4, 5472, Note_on_c, 1, 77, 110
4, 5632, Note_on_c, 1, 68, 0
4, 5632, Note_on_c, 1, 73, 0
4, 5632, Note_on_c, 1, 77, 0
4, 5760, Note_on_c, 1, 66, 110
4, 5760, Note_on_c, 1, 71, 110
4, 5760, Note_on_c, 1, 75, 110
4, 6096, Note_on_c, 1, 66, 0
4, 6096, Note_on_c, 1, 71, 0
4, 6096, Note_on_c, 1, 75, 0
4, 6240, Note_on_c, 1, 68, 110
4, 6240, Note_on_c, 1, 73, 110
4, 6240, Note_on_c, 1, 77, 110
4, 6400, Note_on_c, 1, 68, 0
4, 6400, Note_on_c, 1, 73, 0
4, 6400, Note_on_c, 1, 77, 0
4, 6528, Note_on_c, 1, 66, 110
4, 6528, Note_on_c, 1, 71, 110
4, 6528, Note_on_c, 1, 75, 110
4, 6864, Note_on_c, 1, 66, 0
4, 6864, Note_on_c, 1, 71, 0
4, 6864, Note_on_c, 1, 75, 0
4, 7008, Note_on_c, 1, 68, 110
4, 7008, Note_on_c, 1, 73, 110
4, 7008, Note_on_c, 1, 77, 110
4, 7168, Note_on_c, 1, 68, 0
4, 7168, Note_on_c, 1, 73, 0
4, 7168, Note_on_c, 1, 77, 0
4, 7296, Note_on_c, 1, 66, 110
4, 7296, Note_on_c, 1, 71, 110
4, 7296, Note_on_c, 1, 75, 110
4, 7632, Note_on_c, 1, 66, 0
4, 7632, Note_on_c, 1, 71, 0
4, 7632, Note_on_c, 1, 75, 0
4, 7776, Note_on_c, 1, 68, 110
4, 7776, Note_on_c, 1, 73, 110
4, 7776, Note_on_c, 1, 77, 110
4, 7936, Note_on_c, 1, 68, 0
4, 7936, Note_on_c, 1, 73, 0
4, 7936, Note_on_c, 1, 77, 0
4, 8064, Note_on_c, 1, 66, 110
4, 8064, Note_on_c, 1, 71, 110
4, 8064, Note_on_c, 1, 75, 110
4, 8400, Note_on_c, 1, 66, 0
4, 8400, Note_on_c, 1, 71, 0
4, 8400, Note_on_c, 1, 75, 0
4, 8544, Note_on_c, 1, 68, 110
4, 8544, Note_on_c, 1, 73, 110
4, 8544, Note_on_c, 1, 77, 110
4, 8704, Note_on_c, 1, 68, 0
4, 8704, Note_on_c, 1, 73, 0
4, 8704, Note_on_c, 1, 77, 0
4, 8832, Note_on_c, 1, 66, 110
4, 8832, Note_on_c, 1, 71, 110
4, 8832, Note_on_c, 1, 75, 110
4, 9168, Note_on_c, 1, 66, 0
4, 9168, Note_on_c, 1, 71, 0
4, 9168, Note_on_c, 1, 75, 0
4, 9312, Note_on_c, 1, 68, 110
4, 9312, Note_on_c, 1, 73, 110
4, 9312, Note_on_c, 1, 77, 110
4, 9472, Note_on_c, 1, 68, 0
4, 9472, Note_on_c, 1, 73, 0
4, 9472, Note_on_c, 1, 77, 0
4, 9600, Note_on_c, 1, 66, 110
4, 9600, Note_on_c, 1, 71, 110
4, 9600, Note_on_c, 1, 75, 110
4, 9936, Note_on_c, 1, 66, 0
4, 9936, Note_on_c, 1, 71, 0
4, 9936, Note_on_c, 1, 75, 0
4, 10080, Note_on_c, 1, 68, 110
4, 10080, Note_on_c, 1, 73, 110
4, 10080, Note_on_c, 1, 77, 110
4, 10240, Note_on_c, 1, 68, 0
4, 10240, Note_on_c, 1, 73, 0
4, 10240, Note_on_c, 1, 77, 0
4, 10368, Note_on_c, 1, 66, 110
4, 10368, Note_on_c, 1, 71, 110
4, 10368, Note_on_c, 1, 75, 110
4, 10704, Note_on_c, 1, 66, 0
4, 10704, Note_on_c, 1, 71, 0
4, 10704, Note_on_c, 1, 75, 0
4, 10848, Note_on_c, 1, 68, 110
4, 10848, Note_on_c, 1, 73, 110
4, 10848, Note_on_c, 1, 77, 110
4, 11008, Note_on_c, 1, 68, 0
4, 11008, Note_on_c, 1, 73, 0
4, 11008, Note_on_c, 1, 77, 0
4, 11136, Note_on_c, 1, 66, 110
4, 11136, Note_on_c, 1, 71, 110
4, 11136, Note_on_c, 1, 75, 110
4, 11472, Note_on_c, 1, 66, 0
4, 11472, Note_on_c, 1, 71, 0
4, 11472, Note_on_c, 1, 75, 0
4, 11616, Note_on_c, 1, 66, 110
4, 11616, Note_on_c, 1, 70, 110
4, 11616, Note_on_c, 1, 73, 110
4, 11776, Note_on_c, 1, 66, 0
4, 11776, Note_on_c, 1, 70, 0
4, 11776, Note_on_c, 1, 73, 0
4, 11904, Note_on_c, 1, 68, 110
4, 11904, Note_on_c, 1, 71, 110
4, 11904, Note_on_c, 1, 76, 110
4, 12240, Note_on_c, 1, 68, 0
4, 12240, Note_on_c, 1, 71, 0
4, 12240, Note_on_c, 1, 76, 0
4, 12384, Note_on_c, 1, 66, 110
4, 12384, Note_on_c, 1, 70, 110
4, 12384, Note_on_c, 1, 73, 110
4, 12544, Note_on_c, 1, 66, 0
4, 12544, Note_on_c, 1, 70, 0
4, 12544, Note_on_c, 1, 73, 0
4, 12672, Note_on_c, 1, 68, 110
4, 12672, Note_on_c, 1, 71, 110
4, 12672, Note_on_c, 1, 76, 110
4, 13008, Note_on_c, 1, 68, 0
4, 13008, Note_on_c, 1, 71, 0
4, 13008, Note_on_c, 1, 76, 0
4, 13152, Note_on_c, 1, 68, 110
4, 13152, Note_on_c, 1, 73, 110
4, 13152, Note_on_c, 1, 77, 110
4, 13312, Note_on_c, 1, 68, 0
4, 13312, Note_on_c, 1, 73, 0
4, 13312, Note_on_c, 1, 77, 0
4, 13440, Note_on_c, 1, 66, 110
4, 13440, Note_on_c, 1, 71, 110
4, 13440, Note_on_c, 1, 75, 110
4, 13776, Note_on_c, 1, 66, 0
4, 13776, Note_on_c, 1, 71, 0
4, 13776, Note_on_c, 1, 75, 0
4, 13920, Note_on_c, 1, 68, 110
4, 13920, Note_on_c, 1, 73, 110
4, 13920, Note_on_c, 1, 77, 110
4, 14080, Note_on_c, 1, 68, 0
4, 14080, Note_on_c, 1, 73, 0
4, 14080, Note_on_c, 1, 77, 0
4, 14208, Note_on_c, 1, 66, 110
4, 14208, Note_on_c, 1, 71, 110
4, 14208, Note_on_c, 1, 75, 110
4, 14544, Note_on_c, 1, 66, 0
4, 14544, Note_on_c, 1, 71, 0
4, 14544, Note_on_c, 1, 75, 0
4, 14688, Note_on_c, 1, 68, 110
4, 14688, Note_on_c, 1, 73, 110
4, 14688, Note_on_c, 1, 77, 110
4, 14848, Note_on_c, 1, 68, 0
4, 14848, Note_on_c, 1, 73, 0
4, 14848, Note_on_c, 1, 77, 0
4, 14976, Note_on_c, 1, 66, 110
4, 14976, Note_on_c, 1, 71, 110
4, 14976, Note_on_c, 1, 75, 110
4, 15312, Note_on_c, 1, 66, 0
4, 15312, Note_on_c, 1, 71, 0
4, 15312, Note_on_c, 1, 75, 0
4, 15456, Note_on_c, 1, 68, 110
4, 15456, Note_on_c, 1, 71, 110
4, 15456, Note_on_c, 1, 76, 110
4, 15616, Note_on_c, 1, 68, 0
4, 15616, Note_on_c, 1, 71, 0
4, 15616, Note_on_c, 1, 76, 0
4, 15744, Note_on_c, 1, 66, 110
4, 15744, Note_on_c, 1, 69, 110
4, 15744, Note_on_c, 1, 74, 110
4, 16080, Note_on_c, 1, 66, 0
4, 16080, Note_on_c, 1, 69, 0
4, 16080, Note_on_c, 1, 74, 0
4, 16224, Note_on_c, 1, 66, 110
4, 16224, Note_on_c, 1, 70, 110
4, 16224, Note_on_c, 1, 73, 110
4, 16384, Note_on_c, 1, 66, 0
4, 16384, Note_on_c, 1, 70, 0
4, 16384, Note_on_c, 1, 73, 0
4, 16512, Note_on_c, 1, 68, 110
4, 16512, Note_on_c, 1, 71, 110
4, 16512, Note_on_c, 1, 76, 110
4, 16848, Note_on_c, 1, 68, 0
4, 16848, Note_on_c, 1, 71, 0
4, 16848, Note_on_c, 1, 76, 0
4, 16992, Note_on_c, 1, 68, 110
4, 16992, Note_on_c, 1, 72, 110
4, 16992, Note_on_c, 1, 75, 110
4, 17152, Note_on_c, 1, 68, 0
4, 17152, Note_on_c, 1, 72, 0
4, 17152, Note_on_c, 1, 75, 0
4, 17280, Note_on_c, 1, 66, 110
4, 17280, Note_on_c, 1, 70, 110
4, 17280, Note_on_c, 1, 73, 110
4, 17616, Note_on_c, 1, 66, 0
4, 17616, Note_on_c, 1, 70, 0
4, 17616, Note_on_c, 1, 73, 0
4, 17760, Note_on_c, 1, 68, 110
4, 17760, Note_on_c, 1, 73, 110
4, 17760, Note_on_c, 1, 77, 110
4, 17920, Note_on_c, 1, 68, 0
4, 17920, Note_on_c, 1, 73, 0
4, 17920, Note_on_c, 1, 77, 0
4, 18048, Note_on_c, 1, 66, 110
4, 18048, Note_on_c, 1, 71, 110
4, 18048, Note_on_c, 1, 75, 110
4, 18384, Note_on_c, 1, 66, 0
4, 18384, Note_on_c, 1, 71, 0
4, 18384, Note_on_c, 1, 75, 0
4, 18528, Note_on_c, 1, 68, 110
4, 18528, Note_on_c, 1, 73, 110
4, 18528, Note_on_c, 1, 77, 110
4, 18688, Note_on_c, 1, 68, 0
4, 18688, Note_on_c, 1, 73, 0
4, 18688, Note_on_c, 1, 77, 0
4, 18816, Note_on_c, 1, 66, 110
4, 18816, Note_on_c, 1, 71, 110
4, 18816, Note_on_c, 1, 75, 110
4, 19152, Note_on_c, 1, 66, 0
4, 19152, Note_on_c, 1, 71, 0
4, 19152, Note_on_c, 1, 75, 0
4, 19296, Note_on_c, 1, 68, 110
4, 19296, Note_on_c, 1, 73, 110
4, 19296, Note_on_c, 1, 77, 110
4, 19456, Note_on_c, 1, 68, 0
4, 19456, Note_on_c, 1, 73, 0
4, 19456, Note_on_c, 1, 77, 0
4, 19584, Note_on_c, 1, 66, 110
4, 19584, Note_on_c, 1, 71, 110
4, 19584, Note_on_c, 1, 75, 110
4, 19920, Note_on_c, 1, 66, 0
4, 19920, Note_on_c, 1, 71, 0
4, 19920, Note_on_c, 1, 75, 0
4, 20064, Note_on_c, 1, 68, 110
4, 20064, Note_on_c, 1, 73, 110
4, 20064, Note_on_c, 1, 77, 110
4, 20224, Note_on_c, 1, 68, 0
4, 20224, Note_on_c, 1, 73, 0
4, 20224, Note_on_c, 1, 77, 0
4, 20352, Note_on_c, 1, 66, 110
4, 20352, Note_on_c, 1, 71, 110
4, 20352, Note_on_c, 1, 75, 110
4, 20688, Note_on_c, 1, 66, 0
4, 20688, Note_on_c, 1, 71, 0
4, 20688, Note_on_c, 1, 75, 0
4, 20832, Note_on_c, 1, 66, 110
4, 20832, Note_on_c, 1, 70, 110
4, 20832, Note_on_c, 1, 73, 110
4, 20992, Note_on_c, 1, 66, 0
4, 20992, Note_on_c, 1, 70, 0
4, 20992, Note_on_c, 1, 73, 0
4, 21120, Note_on_c, 1, 68, 110
4, 21120, Note_on_c, 1, 71, 110
4, 21120, Note_on_c, 1, 76, 110
4, 21456, Note_on_c, 1, 68, 0
4, 21456, Note_on_c, 1, 71, 0
4, 21456, Note_on_c, 1, 76, 0
4, 21600, Note_on_c, 1, 66, 110
4, 21600, Note_on_c, 1, 70, 110
4, 21600, Note_on_c, 1, 73, 110
4, 21760, Note_on_c, 1, 66, 0
4, 21760, Note_on_c, 1, 70, 0
4, 21760, Note_on_c, 1, 73, 0
4, 21888, Note_on_c, 1, 68, 110
4, 21888, Note_on_c, 1, 71, 110
4, 21888, Note_on_c, 1, 76, 110
4, 22224, Note_on_c, 1, 68, 0
4, 22224, Note_on_c, 1, 71, 0
4, 22224, Note_on_c, 1, 76, 0
4, 22368, Note_on_c, 1, 68, 110
4, 22368, Note_on_c, 1, 73, 110
4, 22368, Note_on_c, 1, 77, 110
4, 22528, Note_on_c, 1, 68, 0
4, 22528, Note_on_c, 1, 73, 0
4, 22528, Note_on_c, 1, 77, 0
4, 22656, Note_on_c, 1, 66, 110
4, 22656, Note_on_c, 1, 71, 110
4, 22656, Note_on_c, 1, 75, 110
4, 22992, Note_on_c, 1, 66, 0
4, 22992, Note_on_c, 1, 71, 0
4, 22992, Note_on_c, 1, 75, 0
4, 23136, Note_on_c, 1, 68, 110
4, 23136, Note_on_c, 1, 73, 110
4, 23136, Note_on_c, 1, 77, 110
4, 23296, Note_on_c, 1, 68, 0
4, 23296, Note_on_c, 1, 73, 0
4, 23296, Note_on_c, 1, 77, 0
4, 23424, Note_on_c, 1, 66, 110
4, 23424, Note_on_c, 1, 71, 110
4, 23424, Note_on_c, 1, 75, 110
4, 23760, Note_on_c, 1, 66, 0
4, 23760, Note_on_c, 1, 71, 0
4, 23760, Note_on_c, 1, 75, 0
4, 23904, Note_on_c, 1, 68, 110
4, 23904, Note_on_c, 1, 73, 110
4, 23904, Note_on_c, 1, 77, 110
4, 24064, Note_on_c, 1, 68, 0
4, 24064, Note_on_c, 1, 73, 0
4, 24064, Note_on_c, 1, 77, 0
4, 24192, Note_on_c, 1, 66, 110
4, 24192, Note_on_c, 1, 71, 110
4, 24192, Note_on_c, 1, 75, 110
4, 24528, Note_on_c, 1, 66, 0
4, 24528, Note_on_c, 1, 71, 0
4, 24528, Note_on_c, 1, 75, 0
4, 24672, Note_on_c, 1, 68, 110
4, 24672, Note_on_c, 1, 71, 110
4, 24672, Note_on_c, 1, 76, 110
4, 24832, Note_on_c, 1, 68, 0
4, 24832, Note_on_c, 1, 71, 0
4, 24832, Note_on_c, 1, 76, 0
4, 24960, Note_on_c, 1, 66, 110
4, 24960, Note_on_c, 1, 69, 110
4, 24960, Note_on_c, 1, 74, 110
4, 25296, Note_on_c, 1, 66, 0
4, 25296, Note_on_c, 1, 69, 0
4, 25296, Note_on_c, 1, 74, 0
4, 25440, Note_on_c, 1, 66, 110
4, 25440, Note_on_c, 1, 70, 110
4, 25440, Note_on_c, 1, 73, 110
4, 25600, Note_on_c, 1, 66, 0
4, 25600, Note_on_c, 1, 70, 0
4, 25600, Note_on_c, 1, 73, 0
4, 25728, Note_on_c, 1, 68, 110
4, 25728, Note_on_c, 1, 71, 110
4, 25728, Note_on_c, 1, 76, 110
4, 26064, Note_on_c, 1, 68, 0
4, 26064, Note_on_c, 1, 71, 0
4, 26064, Note_on_c, 1, 76, 0
4, 26208, Note_on_c, 1, 68, 110
4, 26208, Note_on_c, 1, 72, 110
4, 26208, Note_on_c, 1, 75, 110
4, 26368, Note_on_c, 1, 68, 0
4, 26368, Note_on_c, 1, 72, 0
4, 26368, Note_on_c, 1, 75, 0
4, 26496, Note_on_c, 1, 66, 110
4, 26496, Note_on_c, 1, 70, 110
4, 26496, Note_on_c, 1, 73, 110
4, 26832, Note_on_c, 1, 66, 0
4, 26832, Note_on_c, 1, 70, 0
4, 26832, Note_on_c, 1, 73, 0
4, 26976, Note_on_c, 1, 66, 110
4, 26976, Note_on_c, 1, 70, 110
4, 26976, Note_on_c, 1, 73, 110
4, 27136, Note_on_c, 1, 66, 0
4, 27136, Note_on_c, 1, 70, 0
4, 27136, Note_on_c, 1, 73, 0
4, 27264, Note_on_c, 1, 68, 110
4, 27264, Note_on_c, 1, 71, 110
4, 27264, Note_on_c, 1, 76, 110
4, 27600, Note_on_c, 1, 68, 0
4, 27600, Note_on_c, 1, 71, 0
4, 27600, Note_on_c, 1, 76, 0
4, 27744, Note_on_c, 1, 66, 110
4, 27744, Note_on_c, 1, 70, 110
4, 27744, Note_on_c, 1, 73, 110
4, 27904, Note_on_c, 1, 66, 0
4, 27904, Note_on_c, 1, 70, 0
4, 27904, Note_on_c, 1, 73, 0
4, 28032, Note_on_c, 1, 68, 110
4, 28032, Note_on_c, 1, 71, 110
4, 28032, Note_on_c, 1, 76, 110
4, 28368, Note_on_c, 1, 68, 0
4, 28368, Note_on_c, 1, 71, 0
4, 28368, Note_on_c, 1, 76, 0
4, 28512, Note_on_c, 1, 68, 110
4, 28512, Note_on_c, 1, 73, 110
4, 28512, Note_on_c, 1, 77, 110
4, 28672, Note_on_c, 1, 68, 0
4, 28672, Note_on_c, 1, 73, 0
4, 28672, Note_on_c, 1, 77, 0
4, 28800, Note_on_c, 1, 66, 110
4, 28800, Note_on_c, 1, 71, 110
4, 28800, Note_on_c, 1, 75, 110
4, 29136, Note_on_c, 1, 66, 0
4, 29136, Note_on_c, 1, 71, 0
4, 29136, Note_on_c, 1, 75, 0
4, 29280, Note_on_c, 1, 68, 110
4, 29280, Note_on_c, 1, 73, 110
4, 29280, Note_on_c, 1, 77, 110
4, 29440, Note_on_c, 1, 68, 0
4, 29440, Note_on_c, 1, 73, 0
4, 29440, Note_on_c, 1, 77, 0
4, 29568, Note_on_c, 1, 66, 110
4, 29568, Note_on_c, 1, 71, 110
4, 29568, Note_on_c, 1, 75, 110
4, 29904, Note_on_c, 1, 66, 0
4, 29904, Note_on_c, 1, 71, 0
4, 29904, Note_on_c, 1, 75, 0
4, 30048, Note_on_c, 1, 66, 110
4, 30048, Note_on_c, 1, 70, 110
4, 30048, Note_on_c, 1, 73, 110
4, 30208, Note_on_c, 1, 66, 0
4, 30208, Note_on_c, 1, 70, 0
4, 30208, Note_on_c, 1, 73, 0
4, 30336, Note_on_c, 1, 68, 110
4, 30336, Note_on_c, 1, 71, 110
4, 30336, Note_on_c, 1, 76, 110
4, 30672, Note_on_c, 1, 68, 0
4, 30672, Note_on_c, 1, 71, 0
4, 30672, Note_on_c, 1, 76, 0
4, 30816, Note_on_c, 1, 66, 110
4, 30816, Note_on_c, 1, 70, 110
4, 30816, Note_on_c, 1, 73, 110
4, 30976, Note_on_c, 1, 66, 0
4, 30976, Note_on_c, 1, 70, 0
4, 30976, Note_on_c, 1, 73, 0
4, 31104, Note_on_c, 1, 68, 110
4, 31104, Note_on_c, 1, 71, 110
4, 31104, Note_on_c, 1, 76, 110
4, 31440, Note_on_c, 1, 68, 0
4, 31440, Note_on_c, 1, 71, 0
4, 31440, Note_on_c, 1, 76, 0
4, 31584, Note_on_c, 1, 68, 110
4, 31584, Note_on_c, 1, 72, 110
4, 31584, Note_on_c, 1, 75, 110
4, 31744, Note_on_c, 1, 68, 0
4, 31744, Note_on_c, 1, 72, 0
4, 31744, Note_on_c, 1, 75, 0
4, 31872, Note_on_c, 1, 66, 110
4, 31872, Note_on_c, 1, 70, 110
4, 31872, Note_on_c, 1, 73, 110
4, 32208, Note_on_c, 1, 66, 0
4, 32208, Note_on_c, 1, 70, 0
4, 32208, Note_on_c, 1, 73, 0
4, 32352, Note_on_c, 1, 68, 110
4, 32352, Note_on_c, 1, 72, 110
4, 32352, Note_on_c, 1, 75, 110
4, 32512, Note_on_c, 1, 68, 0
4, 32512, Note_on_c, 1, 72, 0
4, 32512, Note_on_c, 1, 75, 0
4, 32640, Note_on_c, 1, 66, 110
4, 32640, Note_on_c, 1, 70, 110
4, 32640, Note_on_c, 1, 73, 110
4, 32976, Note_on_c, 1, 66, 0
4, 32976, Note_on_c, 1, 70, 0
4, 32976, Note_on_c, 1, 73, 0
4, 33120, Note_on_c, 1, 68, 110
4, 33120, Note_on_c, 1, 73, 110
4, 33120, Note_on_c, 1, 77, 110
4, 33280, Note_on_c, 1, 68, 0
4, 33280, Note_on_c, 1, 73, 0
4, 33280, Note_on_c, 1, 77, 0
4, 33408, Note_on_c, 1, 66, 110
4, 33408, Note_on_c, 1, 71, 110
4, 33408, Note_on_c, 1, 75, 110
4, 33744, Note_on_c, 1, 66, 0
4, 33744, Note_on_c, 1, 71, 0
4, 33744, Note_on_c, 1, 75, 0
4, 33888, Note_on_c, 1, 68, 110
4, 33888, Note_on_c, 1, 73, 110
4, 33888, Note_on_c, 1, 77, 110
4, 34048, Note_on_c, 1, 68, 0
4, 34048, Note_on_c, 1, 73, 0
4, 34048, Note_on_c, 1, 77, 0
4, 34176, Note_on_c, 1, 66, 110
4, 34176, Note_on_c, 1, 71, 110
4, 34176, Note_on_c, 1, 75, 110
4, 34512, Note_on_c, 1, 66, 0
4, 34512, Note_on_c, 1, 71, 0
4, 34512, Note_on_c, 1, 75, 0
4, 34656, Note_on_c, 1, 68, 110
4, 34656, Note_on_c, 1, 73, 110
4, 34656, Note_on_c, 1, 77, 110
4, 34816, Note_on_c, 1, 68, 0
4, 34816, Note_on_c, 1, 73, 0
4, 34816, Note_on_c, 1, 77, 0
4, 34944, Note_on_c, 1, 66, 110
4, 34944, Note_on_c, 1, 71, 110
4, 34944, Note_on_c, 1, 75, 110
4, 35280, Note_on_c, 1, 66, 0
4, 35280, Note_on_c, 1, 71, 0
4, 35280, Note_on_c, 1, 75, 0
4, 35424, Note_on_c, 1, 68, 110
4, 35424, Note_on_c, 1, 73, 110
4, 35424, Note_on_c, 1, 77, 110
4, 35584, Note_on_c, 1, 68, 0
4, 35584, Note_on_c, 1, 73, 0
4, 35584, Note_on_c, 1, 77, 0
4, 35712, Note_on_c, 1, 66, 110
4, 35712, Note_on_c, 1, 71, 110
4, 35712, Note_on_c, 1, 75, 110
4, 36048, Note_on_c, 1, 66, 0
4, 36048, Note_on_c, 1, 71, 0
4, 36048, Note_on_c, 1, 75, 0
4, 36192, Note_on_c, 1, 66, 110
4, 36192, Note_on_c, 1, 70, 110
4, 36192, Note_on_c, 1, 73, 110
4, 36352, Note_on_c, 1, 66, 0
4, 36352, Note_on_c, 1, 70, 0
4, 36352, Note_on_c, 1, 73, 0
4, 36480, Note_on_c, 1, 68, 110
4, 36480, Note_on_c, 1, 71, 110
4, 36480, Note_on_c, 1, 76, 110
4, 36816, Note_on_c, 1, 68, 0
4, 36816, Note_on_c, 1, 71, 0
4, 36816, Note_on_c, 1, 76, 0
4, 36960, Note_on_c, 1, 66, 110
4, 36960, Note_on_c, 1, 70, 110
4, 36960, Note_on_c, 1, 73, 110
4, 37120, Note_on_c, 1, 66, 0
4, 37120, Note_on_c, 1, 70, 0
4, 37120, Note_on_c, 1, 73, 0
4, 37248, Note_on_c, 1, 68, 110
4, 37248, Note_on_c, 1, 71, 110
4, 37248, Note_on_c, 1, 76, 110
4, 37584, Note_on_c, 1, 68, 0
4, 37584, Note_on_c, 1, 71, 0
4, 37584, Note_on_c, 1, 76, 0
4, 37728, Note_on_c, 1, 68, 110
4, 37728, Note_on_c, 1, 73, 110
4, 37728, Note_on_c, 1, 77, 110
4, 37888, Note_on_c, 1, 68, 0
4, 37888, Note_on_c, 1, 73, 0
4, 37888, Note_on_c, 1, 77, 0
4, 38016, Note_on_c, 1, 66, 110
4, 38016, Note_on_c, 1, 71, 110
4, 38016, Note_on_c, 1, 75, 110
4, 38352, Note_on_c, 1, 66, 0
4, 38352, Note_on_c, 1, 71, 0
4, 38352, Note_on_c, 1, 75, 0
4, 38496, Note_on_c, 1, 68, 110
4, 38496, Note_on_c, 1, 73, 110
4, 38496, Note_on_c, 1, 77, 110
4, 38656, Note_on_c, 1, 68, 0
4, 38656, Note_on_c, 1, 73, 0
4, 38656, Note_on_c, 1, 77, 0
4, 38784, Note_on_c, 1, 66, 110
4, 38784, Note_on_c, 1, 71, 110
4, 38784, Note_on_c, 1, 75, 110
4, 39120, Note_on_c, 1, 66, 0
4, 39120, Note_on_c, 1, 71, 0
4, 39120, Note_on_c, 1, 75, 0
4, 39264, Note_on_c, 1, 68, 110
4, 39264, Note_on_c, 1, 73, 110
4, 39264, Note_on_c, 1, 77, 110
4, 39424, Note_on_c, 1, 68, 0
4, 39424, Note_on_c, 1, 73, 0
4, 39424, Note_on_c, 1, 77, 0
4, 39552, Note_on_c, 1, 66, 110
4, 39552, Note_on_c, 1, 71, 110
4, 39552, Note_on_c, 1, 75, 110
4, 39888, Note_on_c, 1, 66, 0
4, 39888, Note_on_c, 1, 71, 0
4, 39888, Note_on_c, 1, 75, 0
4, 40032, Note_on_c, 1, 68, 110
4, 40032, Note_on_c, 1, 71, 110
4, 40032, Note_on_c, 1, 76, 110
4, 40192, Note_on_c, 1, 68, 0
4, 40192, Note_on_c, 1, 71, 0
4, 40192, Note_on_c, 1, 76, 0
4, 40320, Note_on_c, 1, 66, 110
4, 40320, Note_on_c, 1, 69, 110
4, 40320, Note_on_c, 1, 74, 110
4, 40656, Note_on_c, 1, 66, 0
4, 40656, Note_on_c, 1, 69, 0
4, 40656, Note_on_c, 1, 74, 0
4, 40800, Note_on_c, 1, 66, 110
4, 40800, Note_on_c, 1, 70, 110
4, 40800, Note_on_c, 1, 73, 110
4, 40960, Note_on_c, 1, 66, 0
4, 40960, Note_on_c, 1, 70, 0
4, 40960, Note_on_c, 1, 73, 0
4, 41088, Note_on_c, 1, 68, 110
4, 41088, Note_on_c, 1, 71, 110
4, 41088, Note_on_c, 1, 76, 110
4, 41424, Note_on_c, 1, 68, 0
4, 41424, Note_on_c, 1, 71, 0
4, 41424, Note_on_c, 1, 76, 0
4, 41568, Note_on_c, 1, 68, 110
4, 41568, Note_on_c, 1, 72, 110
4, 41568, Note_on_c, 1, 75, 110
4, 41728, Note_on_c, 1, 68, 0
4, 41728, Note_on_c, 1, 72, 0
4, 41728, Note_on_c, 1, 75, 0
4, 41856, Note_on_c, 1, 66, 110
4, 41856, Note_on_c, 1, 70, 110
4, 41856, Note_on_c, 1, 73, 110
4, 42192, Note_on_c, 1, 66, 0
4, 42192, Note_on_c, 1, 70, 0
4, 42192, Note_on_c, 1, 73, 0
4, 42336, Note_on_c, 1, 68, 110
4, 42336, Note_on_c, 1, 73, 110
4, 42336, Note_on_c, 1, 77, 110
4, 42496, Note_on_c, 1, 68, 0
4, 42496, Note_on_c, 1, 73, 0
4, 42496, Note_on_c, 1, 77, 0
4, 42624, Note_on_c, 1, 66, 110
4, 42624, Note_on_c, 1, 71, 110
4, 42624, Note_on_c, 1, 75, 110
4, 42960, Note_on_c, 1, 66, 0
4, 42960, Note_on_c, 1, 71, 0
4, 42960, Note_on_c, 1, 75, 0
4, 43104, Note_on_c, 1, 68, 110
4, 43104, Note_on_c, 1, 71, 110
4, 43104, Note_on_c, 1, 76, 110
4, 43264, Note_on_c, 1, 68, 0
4, 43264, Note_on_c, 1, 71, 0
4, 43264, Note_on_c, 1, 76, 0
4, 43392, Note_on_c, 1, 66, 110
4, 43392, Note_on_c, 1, 69, 110
4, 43392, Note_on_c, 1, 74, 110
4, 43728, Note_on_c, 1, 66, 0
4, 43728, Note_on_c, 1, 69, 0
4, 43728, Note_on_c, 1, 74, 0
4, 43872, Note_on_c, 1, 66, 110
4, 43872, Note_on_c, 1, 70, 110
4, 43872, Note_on_c, 1, 73, 110
4, 44032, Note_on_c, 1, 66, 0
4, 44032, Note_on_c, 1, 70, 0
4, 44032, Note_on_c, 1, 73, 0
4, 44160, Note_on_c, 1, 68, 110
4, 44160, Note_on_c, 1, 71, 110
4, 44160, Note_on_c, 1, 76, 110
4, 44496, Note_on_c, 1, 68, 0
4, 44496, Note_on_c, 1, 71, 0
4, 44496, Note_on_c, 1, 76, 0
4, 44640, Note_on_c, 1, 68, 110
4, 44640, Note_on_c, 1, 72, 110
4, 44640, Note_on_c, 1, 75, 110
4, 44800, Note_on_c, 1, 68, 0
4, 44800, Note_on_c, 1, 72, 0
4, 44800, Note_on_c, 1, 75, 0
4, 44928, Note_on_c, 1, 66, 110
4, 44928, Note_on_c, 1, 70, 110
4, 44928, Note_on_c, 1, 73, 110
4, 45264, Note_on_c, 1, 66, 0
4, 45264, Note_on_c, 1, 70, 0
4, 45264, Note_on_c, 1, 73, 0
4, 45408, Note_on_c, 1, 68, 110
4, 45408, Note_on_c, 1, 73, 110
4, 45408, Note_on_c, 1, 77, 110
4, 45568, Note_on_c, 1, 68, 0
4, 45568, Note_on_c, 1, 73, 0
4, 45568, Note_on_c, 1, 77, 0
4, 45696, Note_on_c, 1, 66, 110
4, 45696, Note_on_c, 1, 71, 110
4, 45696, Note_on_c, 1, 75, 110
4, 46032, Note_on_c, 1, 66, 0
4, 46032, Note_on_c, 1, 71, 0
4, 46032, Note_on_c, 1, 75, 0
4, 46176, Note_on_c, 1, 68, 110
4, 46176, Note_on_c, 1, 71, 110
4, 46176, Note_on_c, 1, 76, 110
4, 46336, Note_on_c, 1, 68, 0
4, 46336, Note_on_c, 1, 71, 0
4, 46336, Note_on_c, 1, 76, 0
4, 46464, Note_on_c, 1, 66, 110
4, 46464, Note_on_c, 1, 69, 110
4, 46464, Note_on_c, 1, 74, 110
4, 46800, Note_on_c, 1, 66, 0
4, 46800, Note_on_c, 1, 69, 0
4, 46800, Note_on_c, 1, 74, 0
4, 46944, Note_on_c, 1, 66, 110
4, 46944, Note_on_c, 1, 70, 110
4, 46944, Note_on_c, 1, 73, 110
4, 47104, Note_on_c, 1, 66, 0
4, 47104, Note_on_c, 1, 70, 0
4, 47104, Note_on_c, 1, 73, 0
4, 47232, Note_on_c, 1, 68, 110
4, 47232, Note_on_c, 1, 71, 110
4, 47232, Note_on_c, 1, 76, 110
4, 47568, Note_on_c, 1, 68, 0
4, 47568, Note_on_c, 1, 71, 0
4, 47568, Note_on_c, 1, 76, 0
4, 47712, Note_on_c, 1, 68, 110
4, 47712, Note_on_c, 1, 72, 110
4, 47712, Note_on_c, 1, 75, 110
4, 47872, Note_on_c, 1, 68, 0
4, 47872, Note_on_c, 1, 72, 0
4, 47872, Note_on_c, 1, 75, 0
4, 48000, Note_on_c, 1, 66, 110
4, 48000, Note_on_c, 1, 70, 110
4, 48000, Note_on_c, 1, 73, 110
4, 48336, Note_on_c, 1, 66, 0
4, 48336, Note_on_c, 1, 70, 0
4, 48336, Note_on_c, 1, 73, 0
4, 48480, Note_on_c, 1, 68, 110
4, 48480, Note_on_c, 1, 73, 110
4, 48480, Note_on_c, 1, 77, 110
4, 48640, Note_on_c, 1, 68, 0
4, 48640, Note_on_c, 1, 73, 0
4, 48640, Note_on_c, 1, 77, 0
4, 48768, Note_on_c, 1, 66, 110
4, 48768, Note_on_c, 1, 71, 110
4, 48768, Note_on_c, 1, 75, 110
4, 49104, Note_on_c, 1, 66, 0
4, 49104, Note_on_c, 1, 71, 0
4, 49104, Note_on_c, 1, 75, 0
4, 49248, Note_on_c, 1, 68, 110
4, 49248, Note_on_c, 1, 73, 110
4, 49248, Note_on_c, 1, 77, 110
4, 49408, Note_on_c, 1, 68, 0
4, 49408, Note_on_c, 1, 73, 0
4, 49408, Note_on_c, 1, 77, 0
4, 49536, Note_on_c, 1, 66, 110
4, 49536, Note_on_c, 1, 71, 110
4, 49536, Note_on_c, 1, 75, 110
4, 49872, Note_on_c, 1, 66, 0
4, 49872, Note_on_c, 1, 71, 0
4, 49872, Note_on_c, 1, 75, 0
4, 50016, Note_on_c, 1, 68, 110
4, 50016, Note_on_c, 1, 73, 110
4, 50016, Note_on_c, 1, 77, 110
4, 50176, Note_on_c, 1, 68, 0
4, 50176, Note_on_c, 1, 73, 0
4, 50176, Note_on_c, 1, 77, 0
4, 50304, Note_on_c, 1, 66, 110
4, 50304, Note_on_c, 1, 71, 110
4, 50304, Note_on_c, 1, 75, 110
4, 50640, Note_on_c, 1, 66, 0
4, 50640, Note_on_c, 1, 71, 0
4, 50640, Note_on_c, 1, 75, 0
4, 50784, Note_on_c, 1, 68, 110
4, 50784, Note_on_c, 1, 73, 110
4, 50784, Note_on_c, 1, 77, 110
4, 50944, Note_on_c, 1, 68, 0
4, 50944, Note_on_c, 1, 73, 0
4, 50944, Note_on_c, 1, 77, 0
4, 51072, Note_on_c, 1, 66, 110
4, 51072, Note_on_c, 1, 71, 110
4, 51072, Note_on_c, 1, 75, 110
4, 51408, Note_on_c, 1, 66, 0
4, 51408, Note_on_c, 1, 71, 0
4, 51408, Note_on_c, 1, 75, 0
4, 51552, Note_on_c, 1, 68, 110
4, 51552, Note_on_c, 1, 73, 110
4, 51552, Note_on_c, 1, 77, 110
4, 51712, Note_on_c, 1, 68, 0
4, 51712, Note_on_c, 1, 73, 0
4, 51712, Note_on_c, 1, 77, 0
4, 51840, Note_on_c, 1, 66, 110
4, 51840, Note_on_c, 1, 71, 110
4, 51840, Note_on_c, 1, 75, 110
4, 52176, Note_on_c, 1, 66, 0
4, 52176, Note_on_c, 1, 71, 0
4, 52176, Note_on_c, 1, 75, 0
4, 52320, Note_on_c, 1, 68, 110
4, 52320, Note_on_c, 1, 73, 110
4, 52320, Note_on_c, 1, 77, 110
4, 52480, Note_on_c, 1, 68, 0
4, 52480, Note_on_c, 1, 73, 0
4, 52480, Note_on_c, 1, 77, 0
4, 52608, Note_on_c, 1, 66, 110
4, 52608, Note_on_c, 1, 71, 110
4, 52608, Note_on_c, 1, 75, 110
4, 52944, Note_on_c, 1, 66, 0
4, 52944, Note_on_c, 1, 71, 0
4, 52944, Note_on_c, 1, 75, 0
4, 53088, Note_on_c, 1, 68, 110
4, 53088, Note_on_c, 1, 73, 110
4, 53088, Note_on_c, 1, 77, 110
4, 53248, Note_on_c, 1, 68, 0
4, 53248, Note_on_c, 1, 73, 0
4, 53248, Note_on_c, 1, 77, 0
4, 53376, Note_on_c, 1, 66, 110
4, 53376, Note_on_c, 1, 71, 110
4, 53376, Note_on_c, 1, 75, 110
4, 53712, Note_on_c, 1, 66, 0
4, 53712, Note_on_c, 1, 71, 0
4, 53712, Note_on_c, 1, 75, 0
4, 53856, Note_on_c, 1, 68, 110
4, 53856, Note_on_c, 1, 73, 110
4, 53856, Note_on_c, 1, 77, 110
4, 54016, Note_on_c, 1, 68, 0
4, 54016, Note_on_c, 1, 73, 0
4, 54016, Note_on_c, 1, 77, 0
4, 54144, Note_on_c, 1, 66, 110
4, 54144, Note_on_c, 1, 71, 110
4, 54144, Note_on_c, 1, 75, 110
4, 54480, Note_on_c, 1, 66, 0
4, 54480, Note_on_c, 1, 71, 0
4, 54480, Note_on_c, 1, 75, 0
4, 54624, Note_on_c, 1, 68, 110
4, 54624, Note_on_c, 1, 73, 110
4, 54624, Note_on_c, 1, 77, 110
4, 54784, Note_on_c, 1, 68, 0
4, 54784, Note_on_c, 1, 73, 0
4, 54784, Note_on_c, 1, 77, 0
4, 54912, Note_on_c, 1, 66, 110
4, 54912, Note_on_c, 1, 71, 110
4, 54912, Note_on_c, 1, 75, 110
4, 55248, Note_on_c, 1, 66, 0
4, 55248, Note_on_c, 1, 71, 0
4, 55248, Note_on_c, 1, 75, 0
4, 55392, Note_on_c, 1, 68, 110
4, 55392, Note_on_c, 1, 73, 110
4, 55392, Note_on_c, 1, 77, 110
4, 55552, Note_on_c, 1, 68, 0
4, 55552, Note_on_c, 1, 73, 0
4, 55552, Note_on_c, 1, 77, 0
4, 55680, Note_on_c, 1, 66, 110
4, 55680, Note_on_c, 1, 71, 110
4, 55680, Note_on_c, 1, 75, 110
4, 56016, Note_on_c, 1, 66, 0
4, 56016, Note_on_c, 1, 71, 0
4, 56016, Note_on_c, 1, 75, 0
4, 56160, Note_on_c, 1, 68, 110
4, 56160, Note_on_c, 1, 73, 110
4, 56160, Note_on_c, 1, 77, 110
4, 56320, Note_on_c, 1, 68, 0
4, 56320, Note_on_c, 1, 73, 0
4, 56320, Note_on_c, 1, 77, 0
4, 56448, Note_on_c, 1, 66, 110
4, 56448, Note_on_c, 1, 71, 110
4, 56448, Note_on_c, 1, 75, 110
4, 56784, Note_on_c, 1, 66, 0
4, 56784, Note_on_c, 1, 71, 0
4, 56784, Note_on_c, 1, 75, 0
4, 56928, Note_on_c, 1, 68, 110
4, 56928, Note_on_c, 1, 73, 110
4, 56928, Note_on_c, 1, 77, 110
4, 57088, Note_on_c, 1, 68, 0
4, 57088, Note_on_c, 1, 73, 0
4, 57088, Note_on_c, 1, 77, 0
4, 57216, Note_on_c, 1, 66, 110
4, 57216, Note_on_c, 1, 71, 110
4, 57216, Note_on_c, 1, 75, 110
4, 57552, Note_on_c, 1, 66, 0
4, 57552, Note_on_c, 1, 71, 0
4, 57552, Note_on_c, 1, 75, 0
4, 57696, Note_on_c, 1, 68, 110
4, 57696, Note_on_c, 1, 73, 110
4, 57696, Note_on_c, 1, 77, 110
4, 57856, Note_on_c, 1, 68, 0
4, 57856, Note_on_c, 1, 73, 0
4, 57856, Note_on_c, 1, 77, 0
4, 57984, Note_on_c, 1, 66, 110
4, 57984, Note_on_c, 1, 71, 110
4, 57984, Note_on_c, 1, 75, 110
4, 58320, Note_on_c, 1, 66, 0
4, 58320, Note_on_c, 1, 71, 0
4, 58320, Note_on_c, 1, 75, 0
4, 58464, Note_on_c, 1, 68, 110
4, 58464, Note_on_c, 1, 73, 110
4, 58464, Note_on_c, 1, 77, 110
4, 58624, Note_on_c, 1, 68, 0
4, 58624, Note_on_c, 1, 73, 0
4, 58624, Note_on_c, 1, 77, 0
4, 58752, Note_on_c, 1, 66, 110
4, 58752, Note_on_c, 1, 71, 110
4, 58752, Note_on_c, 1, 75, 110
4, 59088, Note_on_c, 1, 66, 0
4, 59088, Note_on_c, 1, 71, 0
4, 59088, Note_on_c, 1, 75, 0
4, 59232, Note_on_c, 1, 68, 110
4, 59232, Note_on_c, 1, 73, 110
4, 59232, Note_on_c, 1, 77, 110
4, 59392, Note_on_c, 1, 68, 0
4, 59392, Note_on_c, 1, 73, 0
4, 59392, Note_on_c, 1, 77, 0
4, 59520, Note_on_c, 1, 66, 110
4, 59520, Note_on_c, 1, 71, 110
4, 59520, Note_on_c, 1, 75, 110
4, 59856, Note_on_c, 1, 66, 0
4, 59856, Note_on_c, 1, 71, 0
4, 59856, Note_on_c, 1, 75, 0
4, 60000, Note_on_c, 1, 68, 110
4, 60000, Note_on_c, 1, 73, 110
4, 60000, Note_on_c, 1, 77, 110
4, 60160, Note_on_c, 1, 68, 0
4, 60160, Note_on_c, 1, 73, 0
4, 60160, Note_on_c, 1, 77, 0
4, 60288, Note_on_c, 1, 66, 110
4, 60288, Note_on_c, 1, 71, 110
4, 60288, Note_on_c, 1, 75, 110
4, 60624, Note_on_c, 1, 66, 0
4, 60624, Note_on_c, 1, 71, 0
4, 60624, Note_on_c, 1, 75, 0
4, 60768, Note_on_c, 1, 68, 110
4, 60768, Note_on_c, 1, 73, 110
4, 60768, Note_on_c, 1, 77, 110
4, 60928, Note_on_c, 1, 68, 0
4, 60928, Note_on_c, 1, 73, 0
4, 60928, Note_on_c, 1, 77, 0
4, 61056, Note_on_c, 1, 66, 110
4, 61056, Note_on_c, 1, 71, 110
4, 61056, Note_on_c, 1, 75, 110
4, 61392, Note_on_c, 1, 66, 0
4, 61392, Note_on_c, 1, 71, 0
4, 61392, Note_on_c, 1, 75, 0
4, 61536, Note_on_c, 1, 68, 110
4, 61536, Note_on_c, 1, 73, 110
4, 61536, Note_on_c, 1, 77, 110
4, 61696, Note_on_c, 1, 68, 0
4, 61696, Note_on_c, 1, 73, 0
4, 61696, Note_on_c, 1, 77, 0
4, 61824, Note_on_c, 1, 66, 110
4, 61824, Note_on_c, 1, 71, 110
4, 61824, Note_on_c, 1, 75, 110
4, 62160, Note_on_c, 1, 66, 0
4, 62160, Note_on_c, 1, 71, 0
4, 62160, Note_on_c, 1, 75, 0
4, 62304, Note_on_c, 1, 68, 110
4, 62304, Note_on_c, 1, 73, 110
4, 62304, Note_on_c, 1, 77, 110
4, 62464, Note_on_c, 1, 68, 0
4, 62464, Note_on_c, 1, 73, 0
4, 62464, Note_on_c, 1, 77, 0
4, 62592, Note_on_c, 1, 66, 110
4, 62592, Note_on_c, 1, 71, 110
4, 62592, Note_on_c, 1, 75, 110
4, 62928, Note_on_c, 1, 66, 0
4, 62928, Note_on_c, 1, 71, 0
4, 62928, Note_on_c, 1, 75, 0
4, 63072, Note_on_c, 1, 68, 110
4, 63072, Note_on_c, 1, 73, 110
4, 63072, Note_on_c, 1, 77, 110
4, 63232, Note_on_c, 1, 68, 0
4, 63232, Note_on_c, 1, 73, 0
4, 63232, Note_on_c, 1, 77, 0
4, 63360, Note_on_c, 1, 66, 110
4, 63360, Note_on_c, 1, 71, 110
4, 63360, Note_on_c, 1, 75, 110
4, 63696, Note_on_c, 1, 66, 0
4, 63696, Note_on_c, 1, 71, 0
4, 63696, Note_on_c, 1, 75, 0
4, 63744, Note_on_c, 1, 68, 110
4, 63744, Note_on_c, 1, 73, 110
4, 63744, Note_on_c, 1, 77, 110
4, 63790, Note_on_c, 1, 68, 0
4, 63790, Note_on_c, 1, 73, 0
4, 63790, Note_on_c, 1, 77, 0
4, 63790, End_track
5, 0, Start_track
5, 0, MIDI_port, 0
5, 0, Title_t, "Staff-2"
5, 0, Control_c, 2, 7, 127
5, 0, Control_c, 2, 10, 64
5, 0, Program_c, 2, 0
5, 768, Note_on_c, 2, 37, 110
5, 862, Note_on_c, 2, 37, 0
5, 864, Note_on_c, 2, 49, 110
5, 1054, Note_on_c, 2, 49, 0
5, 1056, Note_on_c, 2, 37, 110
5, 1150, Note_on_c, 2, 37, 0
5, 1152, Note_on_c, 2, 47, 110
5, 1198, Note_on_c, 2, 47, 0
5, 1200, Note_on_c, 2, 44, 110
5, 1294, Note_on_c, 2, 44, 0
5, 1296, Note_on_c, 2, 42, 110
5, 1342, Note_on_c, 2, 42, 0
5, 1392, Note_on_c, 2, 42, 110
5, 1438, Note_on_c, 2, 42, 0
5, 1440, Note_on_c, 2, 44, 110
5, 1534, Note_on_c, 2, 44, 0
5, 1536, Note_on_c, 2, 37, 110
5, 1630, Note_on_c, 2, 37, 0
5, 1632, Note_on_c, 2, 49, 110
5, 1822, Note_on_c, 2, 49, 0
5, 1824, Note_on_c, 2, 37, 110
5, 1918, Note_on_c, 2, 37, 0
5, 1920, Note_on_c, 2, 47, 110
5, 1966, Note_on_c, 2, 47, 0
5, 1968, Note_on_c, 2, 44, 110
5, 2062, Note_on_c, 2, 44, 0
5, 2064, Note_on_c, 2, 42, 110
5, 2110, Note_on_c, 2, 42, 0
5, 2160, Note_on_c, 2, 42, 110
5, 2206, Note_on_c, 2, 42, 0
5, 2208, Note_on_c, 2, 44, 110
5, 2302, Note_on_c, 2, 44, 0
5, 2304, Note_on_c, 2, 37, 110
5, 2398, Note_on_c, 2, 37, 0
5, 2400, Note_on_c, 2, 49, 110
5, 2590, Note_on_c, 2, 49, 0
5, 2592, Note_on_c, 2, 37, 110
5, 2686, Note_on_c, 2, 37, 0
5, 2688, Note_on_c, 2, 47, 110
5, 2734, Note_on_c, 2, 47, 0
5, 2736, Note_on_c, 2, 44, 110
5, 2830, Note_on_c, 2, 44, 0
5, 2832, Note_on_c, 2, 42, 110
5, 2878, Note_on_c, 2, 42, 0
5, 2928, Note_on_c, 2, 42, 110
5, 2974, Note_on_c, 2, 42, 0
5, 2976, Note_on_c, 2, 44, 110
5, 3070, Note_on_c, 2, 44, 0
5, 3072, Note_on_c, 2, 37, 110
5, 3166, Note_on_c, 2, 37, 0
5, 3168, Note_on_c, 2, 49, 110
5, 3358, Note_on_c, 2, 49, 0
5, 3360, Note_on_c, 2, 37, 110
5, 3454, Note_on_c, 2, 37, 0
5, 3456, Note_on_c, 2, 47, 110
5, 3502, Note_on_c, 2, 47, 0
5, 3504, Note_on_c, 2, 44, 110
5, 3598, Note_on_c, 2, 44, 0
5, 3600, Note_on_c, 2, 42, 110
5, 3646, Note_on_c, 2, 42, 0
5, 3696, Note_on_c, 2, 42, 110
5, 3742, Note_on_c, 2, 42, 0
5, 3744, Note_on_c, 2, 44, 110
5, 3838, Note_on_c, 2, 44, 0
5, 3840, Note_on_c, 2, 37, 110
5, 3934, Note_on_c, 2, 37, 0
5, 3936, Note_on_c, 2, 49, 110
5, 4126, Note_on_c, 2, 49, 0
5, 4128, Note_on_c, 2, 37, 110
5, 4222, Note_on_c, 2, 37, 0
5, 4224, Note_on_c, 2, 47, 110
5, 4270, Note_on_c, 2, 47, 0
5, 4272, Note_on_c, 2, 44, 110
5, 4366, Note_on_c, 2, 44, 0
5, 4368, Note_on_c, 2, 42, 110
5, 4414, Note_on_c, 2, 42, 0
5, 4464, Note_on_c, 2, 42, 110
5, 4510, Note_on_c, 2, 42, 0
5, 4512, Note_on_c, 2, 44, 110
5, 4606, Note_on_c, 2, 44, 0
5, 4608, Note_on_c, 2, 37, 110
5, 4702, Note_on_c, 2, 37, 0
5, 4704, Note_on_c, 2, 49, 110
5, 4894, Note_on_c, 2, 49, 0
5, 4896, Note_on_c, 2, 37, 110
5, 4990, Note_on_c, 2, 37, 0
5, 4992, Note_on_c, 2, 47, 110
5, 5038, Note_on_c, 2, 47, 0
5, 5040, Note_on_c, 2, 44, 110
5, 5134, Note_on_c, 2, 44, 0
5, 5136, Note_on_c, 2, 42, 110
5, 5182, Note_on_c, 2, 42, 0
5, 5232, Note_on_c, 2, 42, 110
5, 5278, Note_on_c, 2, 42, 0
5, 5280, Note_on_c, 2, 44, 110
5, 5374, Note_on_c, 2, 44, 0
5, 5376, Note_on_c, 2, 37, 110
5, 5470, Note_on_c, 2, 37, 0
5, 5472, Note_on_c, 2, 49, 110
5, 5662, Note_on_c, 2, 49, 0
5, 5664, Note_on_c, 2, 37, 110
5, 5758, Note_on_c, 2, 37, 0
5, 5760, Note_on_c, 2, 47, 110
5, 5806, Note_on_c, 2, 47, 0
5, 5808, Note_on_c, 2, 44, 110
5, 5902, Note_on_c, 2, 44, 0
5, 5904, Note_on_c, 2, 42, 110
5, 5950, Note_on_c, 2, 42, 0
5, 6000, Note_on_c, 2, 42, 110
5, 6046, Note_on_c, 2, 42, 0
5, 6048, Note_on_c, 2, 44, 110
5, 6142, Note_on_c, 2, 44, 0
5, 6144, Note_on_c, 2, 37, 110
5, 6238, Note_on_c, 2, 37, 0
5, 6240, Note_on_c, 2, 49, 110
5, 6430, Note_on_c, 2, 49, 0
5, 6432, Note_on_c, 2, 37, 110
5, 6526, Note_on_c, 2, 37, 0
5, 6528, Note_on_c, 2, 47, 110
5, 6574, Note_on_c, 2, 47, 0
5, 6576, Note_on_c, 2, 44, 110
5, 6670, Note_on_c, 2, 44, 0
5, 6672, Note_on_c, 2, 42, 110
5, 6718, Note_on_c, 2, 42, 0
5, 6768, Note_on_c, 2, 42, 110
5, 6814, Note_on_c, 2, 42, 0
5, 6816, Note_on_c, 2, 44, 110
5, 6910, Note_on_c, 2, 44, 0
5, 6912, Note_on_c, 2, 37, 110
5, 7006, Note_on_c, 2, 37, 0
5, 7008, Note_on_c, 2, 49, 110
5, 7198, Note_on_c, 2, 49, 0
5, 7200, Note_on_c, 2, 37, 110
5, 7294, Note_on_c, 2, 37, 0
5, 7296, Note_on_c, 2, 47, 110
5, 7342, Note_on_c, 2, 47, 0
5, 7344, Note_on_c, 2, 44, 110
5, 7438, Note_on_c, 2, 44, 0
5, 7440, Note_on_c, 2, 42, 110
5, 7486, Note_on_c, 2, 42, 0
5, 7536, Note_on_c, 2, 42, 110
5, 7582, Note_on_c, 2, 42, 0
5, 7584, Note_on_c, 2, 44, 110
5, 7678, Note_on_c, 2, 44, 0
5, 7680, Note_on_c, 2, 37, 110
5, 7774, Note_on_c, 2, 37, 0
5, 7776, Note_on_c, 2, 49, 110
5, 7966, Note_on_c, 2, 49, 0
5, 7968, Note_on_c, 2, 37, 110
5, 8062, Note_on_c, 2, 37, 0
5, 8064, Note_on_c, 2, 47, 110
5, 8110, Note_on_c, 2, 47, 0
5, 8112, Note_on_c, 2, 44, 110
5, 8206, Note_on_c, 2, 44, 0
5, 8208, Note_on_c, 2, 42, 110
5, 8254, Note_on_c, 2, 42, 0
5, 8304, Note_on_c, 2, 42, 110
5, 8350, Note_on_c, 2, 42, 0
5, 8352, Note_on_c, 2, 44, 110
5, 8446, Note_on_c, 2, 44, 0
5, 8448, Note_on_c, 2, 37, 110
5, 8542, Note_on_c, 2, 37, 0
5, 8544, Note_on_c, 2, 49, 110
5, 8734, Note_on_c, 2, 49, 0
5, 8736, Note_on_c, 2, 37, 110
5, 8830, Note_on_c, 2, 37, 0
5, 8832, Note_on_c, 2, 47, 110
5, 8878, Note_on_c, 2, 47, 0
5, 8880, Note_on_c, 2, 44, 110
5, 8974, Note_on_c, 2, 44, 0
5, 8976, Note_on_c, 2, 42, 110
5, 9022, Note_on_c, 2, 42, 0
5, 9072, Note_on_c, 2, 42, 110
5, 9118, Note_on_c, 2, 42, 0
5, 9120, Note_on_c, 2, 44, 110
5, 9214, Note_on_c, 2, 44, 0
5, 9216, Note_on_c, 2, 37, 110
5, 9310, Note_on_c, 2, 37, 0
5, 9312, Note_on_c, 2, 49, 110
5, 9502, Note_on_c, 2, 49, 0
5, 9504, Note_on_c, 2, 37, 110
5, 9598, Note_on_c, 2, 37, 0
5, 9600, Note_on_c, 2, 47, 110
5, 9646, Note_on_c, 2, 47, 0
5, 9648, Note_on_c, 2, 44, 110
5, 9742, Note_on_c, 2, 44, 0
5, 9744, Note_on_c, 2, 42, 110
5, 9790, Note_on_c, 2, 42, 0
5, 9840, Note_on_c, 2, 42, 110
5, 9886, Note_on_c, 2, 42, 0
5, 9888, Note_on_c, 2, 44, 110
5, 9982, Note_on_c, 2, 44, 0
5, 9984, Note_on_c, 2, 37, 110
5, 10078, Note_on_c, 2, 37, 0
5, 10080, Note_on_c, 2, 49, 110
5, 10270, Note_on_c, 2, 49, 0
5, 10272, Note_on_c, 2, 37, 110
5, 10366, Note_on_c, 2, 37, 0
5, 10368, Note_on_c, 2, 47, 110
5, 10414, Note_on_c, 2, 47, 0
5, 10416, Note_on_c, 2, 44, 110
5, 10510, Note_on_c, 2, 44, 0
5, 10512, Note_on_c, 2, 42, 110
5, 10558, Note_on_c, 2, 42, 0
5, 10608, Note_on_c, 2, 42, 110
5, 10654, Note_on_c, 2, 42, 0
5, 10656, Note_on_c, 2, 44, 110
5, 10750, Note_on_c, 2, 44, 0
5, 10752, Note_on_c, 2, 37, 110
5, 10846, Note_on_c, 2, 37, 0
5, 10848, Note_on_c, 2, 49, 110
5, 11038, Note_on_c, 2, 49, 0
5, 11040, Note_on_c, 2, 37, 110
5, 11134, Note_on_c, 2, 37, 0
5, 11136, Note_on_c, 2, 47, 110
5, 11182, Note_on_c, 2, 47, 0
5, 11184, Note_on_c, 2, 44, 110
5, 11278, Note_on_c, 2, 44, 0
5, 11280, Note_on_c, 2, 42, 110
5, 11326, Note_on_c, 2, 42, 0
5, 11376, Note_on_c, 2, 42, 110
5, 11422, Note_on_c, 2, 42, 0
5, 11424, Note_on_c, 2, 44, 110
5, 11518, Note_on_c, 2, 44, 0
5, 11520, Note_on_c, 2, 42, 110
5, 11614, Note_on_c, 2, 42, 0
5, 11616, Note_on_c, 2, 54, 110
5, 11806, Note_on_c, 2, 54, 0
5, 11808, Note_on_c, 2, 42, 110
5, 11902, Note_on_c, 2, 42, 0
5, 11904, Note_on_c, 2, 52, 110
5, 11950, Note_on_c, 2, 52, 0
5, 11952, Note_on_c, 2, 49, 110
5, 12046, Note_on_c, 2, 49, 0
5, 12048, Note_on_c, 2, 47, 110
5, 12094, Note_on_c, 2, 47, 0
5, 12144, Note_on_c, 2, 47, 110
5, 12190, Note_on_c, 2, 47, 0
5, 12192, Note_on_c, 2, 49, 110
5, 12286, Note_on_c, 2, 49, 0
5, 12288, Note_on_c, 2, 42, 110
5, 12382, Note_on_c, 2, 42, 0
5, 12384, Note_on_c, 2, 54, 110
5, 12574, Note_on_c, 2, 54, 0
5, 12576, Note_on_c, 2, 42, 110
5, 12670, Note_on_c, 2, 42, 0
5, 12672, Note_on_c, 2, 52, 110
5, 12718, Note_on_c, 2, 52, 0
5, 12720, Note_on_c, 2, 49, 110
5, 12814, Note_on_c, 2, 49, 0
5, 12816, Note_on_c, 2, 47, 110
5, 12862, Note_on_c, 2, 47, 0
5, 12912, Note_on_c, 2, 47, 110
5, 12958, Note_on_c, 2, 47, 0
5, 12960, Note_on_c, 2, 49, 110
5, 13054, Note_on_c, 2, 49, 0
5, 13056, Note_on_c, 2, 37, 110
5, 13150, Note_on_c, 2, 37, 0
5, 13152, Note_on_c, 2, 49, 110
5, 13342, Note_on_c, 2, 49, 0
5, 13344, Note_on_c, 2, 37, 110
5, 13438, Note_on_c, 2, 37, 0
5, 13440, Note_on_c, 2, 47, 110
5, 13486, Note_on_c, 2, 47, 0
5, 13488, Note_on_c, 2, 44, 110
5, 13582, Note_on_c, 2, 44, 0
5, 13584, Note_on_c, 2, 42, 110
5, 13630, Note_on_c, 2, 42, 0
5, 13680, Note_on_c, 2, 42, 110
5, 13726, Note_on_c, 2, 42, 0
5, 13728, Note_on_c, 2, 44, 110
5, 13822, Note_on_c, 2, 44, 0
5, 13824, Note_on_c, 2, 37, 110
5, 13918, Note_on_c, 2, 37, 0
5, 13920, Note_on_c, 2, 49, 110
5, 14110, Note_on_c, 2, 49, 0
5, 14112, Note_on_c, 2, 37, 110
5, 14206, Note_on_c, 2, 37, 0
5, 14208, Note_on_c, 2, 47, 110
5, 14254, Note_on_c, 2, 47, 0
5, 14256, Note_on_c, 2, 44, 110
5, 14350, Note_on_c, 2, 44, 0
5, 14352, Note_on_c, 2, 42, 110
5, 14398, Note_on_c, 2, 42, 0
5, 14448, Note_on_c, 2, 42, 110
5, 14494, Note_on_c, 2, 42, 0
5, 14496, Note_on_c, 2, 44, 110
5, 14590, Note_on_c, 2, 44, 0
5, 14592, Note_on_c, 2, 37, 110
5, 14686, Note_on_c, 2, 37, 0
5, 14688, Note_on_c, 2, 49, 110
5, 14878, Note_on_c, 2, 49, 0
5, 14880, Note_on_c, 2, 37, 110
5, 14974, Note_on_c, 2, 37, 0
5, 14976, Note_on_c, 2, 47, 110
5, 15022, Note_on_c, 2, 47, 0
5, 15024, Note_on_c, 2, 44, 110
5, 15118, Note_on_c, 2, 44, 0
5, 15120, Note_on_c, 2, 42, 110
5, 15166, Note_on_c, 2, 42, 0
5, 15216, Note_on_c, 2, 42, 110
5, 15262, Note_on_c, 2, 42, 0
5, 15264, Note_on_c, 2, 44, 110
5, 15358, Note_on_c, 2, 44, 0
5, 15360, Note_on_c, 2, 40, 110
5, 15454, Note_on_c, 2, 40, 0
5, 15456, Note_on_c, 2, 52, 110
5, 15646, Note_on_c, 2, 52, 0
5, 15648, Note_on_c, 2, 40, 110
5, 15742, Note_on_c, 2, 40, 0
5, 15744, Note_on_c, 2, 50, 110
5, 15790, Note_on_c, 2, 50, 0
5, 15792, Note_on_c, 2, 47, 110
5, 15886, Note_on_c, 2, 47, 0
5, 15888, Note_on_c, 2, 45, 110
5, 15934, Note_on_c, 2, 45, 0
5, 15984, Note_on_c, 2, 45, 110
5, 16006, Note_on_c, 2, 45, 0
5, 16008, Note_on_c, 2, 47, 110
5, 16126, Note_on_c, 2, 47, 0
5, 16128, Note_on_c, 2, 42, 110
5, 16222, Note_on_c, 2, 42, 0
5, 16224, Note_on_c, 2, 54, 110
5, 16414, Note_on_c, 2, 54, 0
5, 16416, Note_on_c, 2, 42, 110
5, 16510, Note_on_c, 2, 42, 0
5, 16512, Note_on_c, 2, 52, 110
5, 16558, Note_on_c, 2, 52, 0
5, 16560, Note_on_c, 2, 49, 110
5, 16654, Note_on_c, 2, 49, 0
5, 16656, Note_on_c, 2, 47, 110
5, 16702, Note_on_c, 2, 47, 0
5, 16752, Note_on_c, 2, 47, 110
5, 16798, Note_on_c, 2, 47, 0
5, 16800, Note_on_c, 2, 49, 110
5, 16894, Note_on_c, 2, 49, 0
5, 16896, Note_on_c, 2, 44, 110
5, 16990, Note_on_c, 2, 44, 0
5, 16992, Note_on_c, 2, 56, 110
5, 17182, Note_on_c, 2, 56, 0
5, 17184, Note_on_c, 2, 44, 110
5, 17278, Note_on_c, 2, 44, 0
5, 17280, Note_on_c, 2, 54, 110
5, 17326, Note_on_c, 2, 54, 0
5, 17328, Note_on_c, 2, 51, 110
5, 17422, Note_on_c, 2, 51, 0
5, 17424, Note_on_c, 2, 49, 110
5, 17470, Note_on_c, 2, 49, 0
5, 17520, Note_on_c, 2, 49, 110
5, 17566, Note_on_c, 2, 49, 0
5, 17568, Note_on_c, 2, 51, 110
5, 17662, Note_on_c, 2, 51, 0
5, 17664, Note_on_c, 2, 37, 110
5, 17758, Note_on_c, 2, 37, 0
5, 17760, Note_on_c, 2, 49, 110
5, 17950, Note_on_c, 2, 49, 0
5, 17952, Note_on_c, 2, 37, 110
5, 18046, Note_on_c, 2, 37, 0
5, 18048, Note_on_c, 2, 47, 110
5, 18094, Note_on_c, 2, 47, 0
5, 18096, Note_on_c, 2, 44, 110
5, 18190, Note_on_c, 2, 44, 0
5, 18192, Note_on_c, 2, 42, 110
5, 18238, Note_on_c, 2, 42, 0
5, 18288, Note_on_c, 2, 42, 110
5, 18334, Note_on_c, 2, 42, 0
5, 18336, Note_on_c, 2, 44, 110
5, 18430, Note_on_c, 2, 44, 0
5, 18432, Note_on_c, 2, 37, 110
5, 18526, Note_on_c, 2, 37, 0
5, 18528, Note_on_c, 2, 49, 110
5, 18718, Note_on_c, 2, 49, 0
5, 18720, Note_on_c, 2, 37, 110
5, 18814, Note_on_c, 2, 37, 0
5, 18816, Note_on_c, 2, 47, 110
5, 18862, Note_on_c, 2, 47, 0
5, 18864, Note_on_c, 2, 44, 110
5, 18958, Note_on_c, 2, 44, 0
5, 18960, Note_on_c, 2, 42, 110
5, 19006, Note_on_c, 2, 42, 0
5, 19056, Note_on_c, 2, 42, 110
5, 19102, Note_on_c, 2, 42, 0
5, 19104, Note_on_c, 2, 44, 110
5, 19198, Note_on_c, 2, 44, 0
5, 19200, Note_on_c, 2, 37, 110
5, 19294, Note_on_c, 2, 37, 0
5, 19296, Note_on_c, 2, 49, 110
5, 19486, Note_on_c, 2, 49, 0
5, 19488, Note_on_c, 2, 37, 110
5, 19582, Note_on_c, 2, 37, 0
5, 19584, Note_on_c, 2, 47, 110
5, 19630, Note_on_c, 2, 47, 0
5, 19632, Note_on_c, 2, 44, 110
5, 19726, Note_on_c, 2, 44, 0
5, 19728, Note_on_c, 2, 42, 110
5, 19774, Note_on_c, 2, 42, 0
5, 19824, Note_on_c, 2, 42, 110
5, 19870, Note_on_c, 2, 42, 0
5, 19872, Note_on_c, 2, 44, 110
5, 19966, Note_on_c, 2, 44, 0
5, 19968, Note_on_c, 2, 37, 110
5, 20062, Note_on_c, 2, 37, 0
5, 20064, Note_on_c, 2, 49, 110
5, 20254, Note_on_c, 2, 49, 0
5, 20256, Note_on_c, 2, 37, 110
5, 20350, Note_on_c, 2, 37, 0
5, 20352, Note_on_c, 2, 47, 110
5, 20398, Note_on_c, 2, 47, 0
5, 20400, Note_on_c, 2, 44, 110
5, 20494, Note_on_c, 2, 44, 0
5, 20496, Note_on_c, 2, 42, 110
5, 20542, Note_on_c, 2, 42, 0
5, 20592, Note_on_c, 2, 42, 110
5, 20638, Note_on_c, 2, 42, 0
5, 20640, Note_on_c, 2, 44, 110
5, 20734, Note_on_c, 2, 44, 0
5, 20736, Note_on_c, 2, 42, 110
5, 20830, Note_on_c, 2, 42, 0
5, 20832, Note_on_c, 2, 54, 110
5, 21022, Note_on_c, 2, 54, 0
5, 21024, Note_on_c, 2, 42, 110
5, 21118, Note_on_c, 2, 42, 0
5, 21120, Note_on_c, 2, 52, 110
5, 21166, Note_on_c, 2, 52, 0
5, 21168, Note_on_c, 2, 49, 110
5, 21262, Note_on_c, 2, 49, 0
5, 21264, Note_on_c, 2, 47, 110
5, 21310, Note_on_c, 2, 47, 0
5, 21360, Note_on_c, 2, 47, 110
5, 21406, Note_on_c, 2, 47, 0
5, 21408, Note_on_c, 2, 49, 110
5, 21502, Note_on_c, 2, 49, 0
5, 21504, Note_on_c, 2, 42, 110
5, 21598, Note_on_c, 2, 42, 0
5, 21600, Note_on_c, 2, 54, 110
5, 21790, Note_on_c, 2, 54, 0
5, 21792, Note_on_c, 2, 42, 110
5, 21886, Note_on_c, 2, 42, 0
5, 21888, Note_on_c, 2, 52, 110
5, 21934, Note_on_c, 2, 52, 0
5, 21936, Note_on_c, 2, 49, 110
5, 22030, Note_on_c, 2, 49, 0
5, 22032, Note_on_c, 2, 47, 110
5, 22078, Note_on_c, 2, 47, 0
5, 22128, Note_on_c, 2, 47, 110
5, 22174, Note_on_c, 2, 47, 0
5, 22176, Note_on_c, 2, 49, 110
5, 22270, Note_on_c, 2, 49, 0
5, 22272, Note_on_c, 2, 37, 110
5, 22366, Note_on_c, 2, 37, 0
5, 22368, Note_on_c, 2, 49, 110
5, 22558, Note_on_c, 2, 49, 0
5, 22560, Note_on_c, 2, 37, 110
5, 22654, Note_on_c, 2, 37, 0
5, 22656, Note_on_c, 2, 47, 110
5, 22702, Note_on_c, 2, 47, 0
5, 22704, Note_on_c, 2, 44, 110
5, 22798, Note_on_c, 2, 44, 0
5, 22800, Note_on_c, 2, 42, 110
5, 22846, Note_on_c, 2, 42, 0
5, 22896, Note_on_c, 2, 42, 110
5, 22942, Note_on_c, 2, 42, 0
5, 22944, Note_on_c, 2, 44, 110
5, 23038, Note_on_c, 2, 44, 0
5, 23040, Note_on_c, 2, 37, 110
5, 23134, Note_on_c, 2, 37, 0
5, 23136, Note_on_c, 2, 49, 110
5, 23326, Note_on_c, 2, 49, 0
5, 23328, Note_on_c, 2, 37, 110
5, 23422, Note_on_c, 2, 37, 0
5, 23424, Note_on_c, 2, 47, 110
5, 23470, Note_on_c, 2, 47, 0
5, 23472, Note_on_c, 2, 44, 110
5, 23566, Note_on_c, 2, 44, 0
5, 23568, Note_on_c, 2, 42, 110
5, 23614, Note_on_c, 2, 42, 0
5, 23664, Note_on_c, 2, 42, 110
5, 23710, Note_on_c, 2, 42, 0
5, 23712, Note_on_c, 2, 44, 110
5, 23806, Note_on_c, 2, 44, 0
5, 23808, Note_on_c, 2, 37, 110
5, 23902, Note_on_c, 2, 37, 0
5, 23904, Note_on_c, 2, 49, 110
5, 24094, Note_on_c, 2, 49, 0
5, 24096, Note_on_c, 2, 37, 110
5, 24190, Note_on_c, 2, 37, 0
5, 24192, Note_on_c, 2, 47, 110
5, 24238, Note_on_c, 2, 47, 0
5, 24240, Note_on_c, 2, 44, 110
5, 24334, Note_on_c, 2, 44, 0
5, 24336, Note_on_c, 2, 42, 110
5, 24382, Note_on_c, 2, 42, 0
5, 24432, Note_on_c, 2, 42, 110
5, 24478, Note_on_c, 2, 42, 0
5, 24480, Note_on_c, 2, 44, 110
5, 24574, Note_on_c, 2, 44, 0
5, 24576, Note_on_c, 2, 40, 110
5, 24670, Note_on_c, 2, 40, 0
5, 24672, Note_on_c, 2, 52, 110
5, 24862, Note_on_c, 2, 52, 0
5, 24864, Note_on_c, 2, 40, 110
5, 24958, Note_on_c, 2, 40, 0
5, 24960, Note_on_c, 2, 50, 110
5, 25006, Note_on_c, 2, 50, 0
5, 25008, Note_on_c, 2, 47, 110
5, 25102, Note_on_c, 2, 47, 0
5, 25104, Note_on_c, 2, 45, 110
5, 25150, Note_on_c, 2, 45, 0
5, 25200, Note_on_c, 2, 45, 110
5, 25222, Note_on_c, 2, 45, 0
5, 25224, Note_on_c, 2, 47, 110
5, 25342, Note_on_c, 2, 47, 0
5, 25344, Note_on_c, 2, 42, 110
5, 25438, Note_on_c, 2, 42, 0
5, 25440, Note_on_c, 2, 54, 110
5, 25630, Note_on_c, 2, 54, 0
5, 25632, Note_on_c, 2, 42, 110
5, 25726, Note_on_c, 2, 42, 0
5, 25728, Note_on_c, 2, 52, 110
5, 25774, Note_on_c, 2, 52, 0
5, 25776, Note_on_c, 2, 49, 110
5, 25870, Note_on_c, 2, 49, 0
5, 25872, Note_on_c, 2, 47, 110
5, 25918, Note_on_c, 2, 47, 0
5, 25968, Note_on_c, 2, 47, 110
5, 26014, Note_on_c, 2, 47, 0
5, 26016, Note_on_c, 2, 49, 110
5, 26110, Note_on_c, 2, 49, 0
5, 26112, Note_on_c, 2, 44, 110
5, 26206, Note_on_c, 2, 44, 0
5, 26208, Note_on_c, 2, 56, 110
5, 26398, Note_on_c, 2, 56, 0
5, 26400, Note_on_c, 2, 44, 110
5, 26494, Note_on_c, 2, 44, 0
5, 26496, Note_on_c, 2, 54, 110
5, 26542, Note_on_c, 2, 54, 0
5, 26544, Note_on_c, 2, 51, 110
5, 26638, Note_on_c, 2, 51, 0
5, 26640, Note_on_c, 2, 49, 110
5, 26686, Note_on_c, 2, 49, 0
5, 26736, Note_on_c, 2, 49, 110
5, 26782, Note_on_c, 2, 49, 0
5, 26784, Note_on_c, 2, 51, 110
5, 26878, Note_on_c, 2, 51, 0
5, 26880, Note_on_c, 2, 42, 110
5, 26974, Note_on_c, 2, 42, 0
5, 26976, Note_on_c, 2, 54, 110
5, 27166, Note_on_c, 2, 54, 0
5, 27168, Note_on_c, 2, 42, 110
5, 27262, Note_on_c, 2, 42, 0
5, 27264, Note_on_c, 2, 52, 110
5, 27310, Note_on_c, 2, 52, 0
5, 27312, Note_on_c, 2, 49, 110
5, 27406, Note_on_c, 2, 49, 0
5, 27408, Note_on_c, 2, 47, 110
5, 27454, Note_on_c, 2, 47, 0
5, 27504, Note_on_c, 2, 47, 110
5, 27550, Note_on_c, 2, 47, 0
5, 27552, Note_on_c, 2, 49, 110
5, 27646, Note_on_c, 2, 49, 0
5, 27648, Note_on_c, 2, 42, 110
5, 27742, Note_on_c, 2, 42, 0
5, 27744, Note_on_c, 2, 54, 110
5, 27934, Note_on_c, 2, 54, 0
5, 27936, Note_on_c, 2, 42, 110
5, 28030, Note_on_c, 2, 42, 0
5, 28032, Note_on_c, 2, 52, 110
5, 28078, Note_on_c, 2, 52, 0
5, 28080, Note_on_c, 2, 49, 110
5, 28174, Note_on_c, 2, 49, 0
5, 28176, Note_on_c, 2, 47, 110
5, 28222, Note_on_c, 2, 47, 0
5, 28272, Note_on_c, 2, 47, 110
5, 28318, Note_on_c, 2, 47, 0
5, 28320, Note_on_c, 2, 49, 110
5, 28414, Note_on_c, 2, 49, 0
5, 28416, Note_on_c, 2, 37, 110
5, 28510, Note_on_c, 2, 37, 0
5, 28512, Note_on_c, 2, 49, 110
5, 28702, Note_on_c, 2, 49, 0
5, 28704, Note_on_c, 2, 37, 110
5, 28798, Note_on_c, 2, 37, 0
5, 28800, Note_on_c, 2, 47, 110
5, 28846, Note_on_c, 2, 47, 0
5, 28848, Note_on_c, 2, 44, 110
5, 28942, Note_on_c, 2, 44, 0
5, 28944, Note_on_c, 2, 42, 110
5, 28990, Note_on_c, 2, 42, 0
5, 29040, Note_on_c, 2, 42, 110
5, 29086, Note_on_c, 2, 42, 0
5, 29088, Note_on_c, 2, 44, 110
5, 29182, Note_on_c, 2, 44, 0
5, 29184, Note_on_c, 2, 37, 110
5, 29278, Note_on_c, 2, 37, 0
5, 29280, Note_on_c, 2, 49, 110
5, 29470, Note_on_c, 2, 49, 0
5, 29472, Note_on_c, 2, 37, 110
5, 29566, Note_on_c, 2, 37, 0
5, 29568, Note_on_c, 2, 47, 110
5, 29614, Note_on_c, 2, 47, 0
5, 29616, Note_on_c, 2, 44, 110
5, 29710, Note_on_c, 2, 44, 0
5, 29712, Note_on_c, 2, 42, 110
5, 29758, Note_on_c, 2, 42, 0
5, 29808, Note_on_c, 2, 42, 110
5, 29854, Note_on_c, 2, 42, 0
5, 29856, Note_on_c, 2, 44, 110
5, 29950, Note_on_c, 2, 44, 0
5, 29952, Note_on_c, 2, 42, 110
5, 30046, Note_on_c, 2, 42, 0
5, 30048, Note_on_c, 2, 54, 110
5, 30238, Note_on_c, 2, 54, 0
5, 30240, Note_on_c, 2, 42, 110
5, 30334, Note_on_c, 2, 42, 0
5, 30336, Note_on_c, 2, 52, 110
5, 30382, Note_on_c, 2, 52, 0
5, 30384, Note_on_c, 2, 49, 110
5, 30478, Note_on_c, 2, 49, 0
5, 30480, Note_on_c, 2, 47, 110
5, 30526, Note_on_c, 2, 47, 0
5, 30576, Note_on_c, 2, 47, 110
5, 30622, Note_on_c, 2, 47, 0
5, 30624, Note_on_c, 2, 49, 110
5, 30718, Note_on_c, 2, 49, 0
5, 30720, Note_on_c, 2, 42, 110
5, 30814, Note_on_c, 2, 42, 0
5, 30816, Note_on_c, 2, 54, 110
5, 31006, Note_on_c, 2, 54, 0
5, 31008, Note_on_c, 2, 42, 110
5, 31102, Note_on_c, 2, 42, 0
5, 31104, Note_on_c, 2, 52, 110
5, 31150, Note_on_c, 2, 52, 0
5, 31152, Note_on_c, 2, 49, 110
5, 31246, Note_on_c, 2, 49, 0
5, 31248, Note_on_c, 2, 47, 110
5, 31294, Note_on_c, 2, 47, 0
5, 31344, Note_on_c, 2, 47, 110
5, 31390, Note_on_c, 2, 47, 0
5, 31392, Note_on_c, 2, 49, 110
5, 31486, Note_on_c, 2, 49, 0
5, 31488, Note_on_c, 2, 44, 110
5, 31582, Note_on_c, 2, 44, 0
5, 31584, Note_on_c, 2, 56, 110
5, 31774, Note_on_c, 2, 56, 0
5, 31776, Note_on_c, 2, 44, 110
5, 31870, Note_on_c, 2, 44, 0
5, 31872, Note_on_c, 2, 54, 110
5, 31918, Note_on_c, 2, 54, 0
5, 31920, Note_on_c, 2, 51, 110
5, 32014, Note_on_c, 2, 51, 0
5, 32016, Note_on_c, 2, 49, 110
5, 32062, Note_on_c, 2, 49, 0
5, 32112, Note_on_c, 2, 49, 110
5, 32158, Note_on_c, 2, 49, 0
5, 32160, Note_on_c, 2, 51, 110
5, 32254, Note_on_c, 2, 51, 0
5, 32256, Note_on_c, 2, 44, 110
5, 32350, Note_on_c, 2, 44, 0
5, 32352, Note_on_c, 2, 56, 110
5, 32542, Note_on_c, 2, 56, 0
5, 32544, Note_on_c, 2, 44, 110
5, 32638, Note_on_c, 2, 44, 0
5, 32640, Note_on_c, 2, 54, 110
5, 32686, Note_on_c, 2, 54, 0
5, 32688, Note_on_c, 2, 51, 110
5, 32782, Note_on_c, 2, 51, 0
5, 32784, Note_on_c, 2, 49, 110
5, 32830, Note_on_c, 2, 49, 0
5, 32880, Note_on_c, 2, 49, 110
5, 32926, Note_on_c, 2, 49, 0
5, 32928, Note_on_c, 2, 51, 110
5, 33022, Note_on_c, 2, 51, 0
5, 33024, Note_on_c, 2, 37, 110
5, 33118, Note_on_c, 2, 37, 0
5, 33120, Note_on_c, 2, 49, 110
5, 33310, Note_on_c, 2, 49, 0
5, 33312, Note_on_c, 2, 37, 110
5, 33406, Note_on_c, 2, 37, 0
5, 33408, Note_on_c, 2, 47, 110
5, 33454, Note_on_c, 2, 47, 0
5, 33456, Note_on_c, 2, 44, 110
5, 33550, Note_on_c, 2, 44, 0
5, 33552, Note_on_c, 2, 42, 110
5, 33598, Note_on_c, 2, 42, 0
5, 33648, Note_on_c, 2, 42, 110
5, 33694, Note_on_c, 2, 42, 0
5, 33696, Note_on_c, 2, 44, 110
5, 33790, Note_on_c, 2, 44, 0
5, 33792, Note_on_c, 2, 37, 110
5, 33886, Note_on_c, 2, 37, 0
5, 33888, Note_on_c, 2, 49, 110
5, 34078, Note_on_c, 2, 49, 0
5, 34080, Note_on_c, 2, 37, 110
5, 34174, Note_on_c, 2, 37, 0
5, 34176, Note_on_c, 2, 47, 110
5, 34222, Note_on_c, 2, 47, 0
5, 34224, Note_on_c, 2, 44, 110
5, 34318, Note_on_c, 2, 44, 0
5, 34320, Note_on_c, 2, 42, 110
5, 34366, Note_on_c, 2, 42, 0
5, 34416, Note_on_c, 2, 42, 110
5, 34462, Note_on_c, 2, 42, 0
5, 34464, Note_on_c, 2, 44, 110
5, 34558, Note_on_c, 2, 44, 0
5, 34560, Note_on_c, 2, 37, 110
5, 34654, Note_on_c, 2, 37, 0
5, 34656, Note_on_c, 2, 49, 110
5, 34846, Note_on_c, 2, 49, 0
5, 34848, Note_on_c, 2, 37, 110
5, 34942, Note_on_c, 2, 37, 0
5, 34944, Note_on_c, 2, 47, 110
5, 34990, Note_on_c, 2, 47, 0
5, 34992, Note_on_c, 2, 44, 110
5, 35086, Note_on_c, 2, 44, 0
5, 35088, Note_on_c, 2, 42, 110
5, 35134, Note_on_c, 2, 42, 0
5, 35184, Note_on_c, 2, 42, 110
5, 35230, Note_on_c, 2, 42, 0
5, 35232, Note_on_c, 2, 44, 110
5, 35326, Note_on_c, 2, 44, 0
5, 35328, Note_on_c, 2, 37, 110
5, 35422, Note_on_c, 2, 37, 0
5, 35424, Note_on_c, 2, 49, 110
5, 35614, Note_on_c, 2, 49, 0
5, 35616, Note_on_c, 2, 37, 110
5, 35710, Note_on_c, 2, 37, 0
5, 35712, Note_on_c, 2, 47, 110
5, 35758, Note_on_c, 2, 47, 0
5, 35760, Note_on_c, 2, 44, 110
5, 35854, Note_on_c, 2, 44, 0
5, 35856, Note_on_c, 2, 42, 110
5, 35902, Note_on_c, 2, 42, 0
5, 35952, Note_on_c, 2, 42, 110
5, 35998, Note_on_c, 2, 42, 0
5, 36000, Note_on_c, 2, 44, 110
5, 36094, Note_on_c, 2, 44, 0
5, 36096, Note_on_c, 2, 42, 110
5, 36190, Note_on_c, 2, 42, 0
5, 36192, Note_on_c, 2, 54, 110
5, 36382, Note_on_c, 2, 54, 0
5, 36384, Note_on_c, 2, 42, 110
5, 36478, Note_on_c, 2, 42, 0
5, 36480, Note_on_c, 2, 52, 110
5, 36526, Note_on_c, 2, 52, 0
5, 36528, Note_on_c, 2, 49, 110
5, 36622, Note_on_c, 2, 49, 0
5, 36624, Note_on_c, 2, 47, 110
5, 36670, Note_on_c, 2, 47, 0
5, 36720, Note_on_c, 2, 47, 110
5, 36766, Note_on_c, 2, 47, 0
5, 36768, Note_on_c, 2, 49, 110
5, 36862, Note_on_c, 2, 49, 0
5, 36864, Note_on_c, 2, 42, 110
5, 36958, Note_on_c, 2, 42, 0
5, 36960, Note_on_c, 2, 54, 110
5, 37150, Note_on_c, 2, 54, 0
5, 37152, Note_on_c, 2, 42, 110
5, 37246, Note_on_c, 2, 42, 0
5, 37248, Note_on_c, 2, 52, 110
5, 37294, Note_on_c, 2, 52, 0
5, 37296, Note_on_c, 2, 49, 110
5, 37390, Note_on_c, 2, 49, 0
5, 37392, Note_on_c, 2, 47, 110
5, 37438, Note_on_c, 2, 47, 0
5, 37488, Note_on_c, 2, 47, 110
5, 37534, Note_on_c, 2, 47, 0
5, 37536, Note_on_c, 2, 49, 110
5, 37630, Note_on_c, 2, 49, 0
5, 37632, Note_on_c, 2, 37, 110
5, 37726, Note_on_c, 2, 37, 0
5, 37728, Note_on_c, 2, 49, 110
5, 37918, Note_on_c, 2, 49, 0
5, 37920, Note_on_c, 2, 37, 110
5, 38014, Note_on_c, 2, 37, 0
5, 38016, Note_on_c, 2, 47, 110
5, 38062, Note_on_c, 2, 47, 0
5, 38064, Note_on_c, 2, 44, 110
5, 38158, Note_on_c, 2, 44, 0
5, 38160, Note_on_c, 2, 42, 110
5, 38206, Note_on_c, 2, 42, 0
5, 38256, Note_on_c, 2, 42, 110
5, 38302, Note_on_c, 2, 42, 0
5, 38304, Note_on_c, 2, 44, 110
5, 38398, Note_on_c, 2, 44, 0
5, 38400, Note_on_c, 2, 37, 110
5, 38494, Note_on_c, 2, 37, 0
5, 38496, Note_on_c, 2, 49, 110
5, 38686, Note_on_c, 2, 49, 0
5, 38688, Note_on_c, 2, 37, 110
5, 38782, Note_on_c, 2, 37, 0
5, 38784, Note_on_c, 2, 47, 110
5, 38830, Note_on_c, 2, 47, 0
5, 38832, Note_on_c, 2, 44, 110
5, 38926, Note_on_c, 2, 44, 0
5, 38928, Note_on_c, 2, 42, 110
5, 38974, Note_on_c, 2, 42, 0
5, 39024, Note_on_c, 2, 42, 110
5, 39070, Note_on_c, 2, 42, 0
5, 39072, Note_on_c, 2, 44, 110
5, 39166, Note_on_c, 2, 44, 0
5, 39168, Note_on_c, 2, 37, 110
5, 39262, Note_on_c, 2, 37, 0
5, 39264, Note_on_c, 2, 49, 110
5, 39454, Note_on_c, 2, 49, 0
5, 39456, Note_on_c, 2, 37, 110
5, 39550, Note_on_c, 2, 37, 0
5, 39552, Note_on_c, 2, 47, 110
5, 39598, Note_on_c, 2, 47, 0
5, 39600, Note_on_c, 2, 44, 110
5, 39694, Note_on_c, 2, 44, 0
5, 39696, Note_on_c, 2, 42, 110
5, 39742, Note_on_c, 2, 42, 0
5, 39792, Note_on_c, 2, 42, 110
5, 39838, Note_on_c, 2, 42, 0
5, 39840, Note_on_c, 2, 44, 110
5, 39934, Note_on_c, 2, 44, 0
5, 39936, Note_on_c, 2, 40, 110
5, 40030, Note_on_c, 2, 40, 0
5, 40032, Note_on_c, 2, 52, 110
5, 40222, Note_on_c, 2, 52, 0
5, 40224, Note_on_c, 2, 40, 110
5, 40318, Note_on_c, 2, 40, 0
5, 40320, Note_on_c, 2, 50, 110
5, 40366, Note_on_c, 2, 50, 0
5, 40368, Note_on_c, 2, 47, 110
5, 40462, Note_on_c, 2, 47, 0
5, 40464, Note_on_c, 2, 45, 110
5, 40510, Note_on_c, 2, 45, 0
5, 40560, Note_on_c, 2, 45, 110
5, 40582, Note_on_c, 2, 45, 0
5, 40584, Note_on_c, 2, 47, 110
5, 40702, Note_on_c, 2, 47, 0
5, 40704, Note_on_c, 2, 42, 110
5, 40798, Note_on_c, 2, 42, 0
5, 40800, Note_on_c, 2, 54, 110
5, 40990, Note_on_c, 2, 54, 0
5, 40992, Note_on_c, 2, 42, 110
5, 41086, Note_on_c, 2, 42, 0
5, 41088, Note_on_c, 2, 52, 110
5, 41134, Note_on_c, 2, 52, 0
5, 41136, Note_on_c, 2, 49, 110
5, 41230, Note_on_c, 2, 49, 0
5, 41232, Note_on_c, 2, 47, 110
5, 41278, Note_on_c, 2, 47, 0
5, 41328, Note_on_c, 2, 47, 110
5, 41374, Note_on_c, 2, 47, 0
5, 41376, Note_on_c, 2, 49, 110
5, 41470, Note_on_c, 2, 49, 0
5, 41472, Note_on_c, 2, 44, 110
5, 41566, Note_on_c, 2, 44, 0
5, 41568, Note_on_c, 2, 56, 110
5, 41758, Note_on_c, 2, 56, 0
5, 41760, Note_on_c, 2, 44, 110
5, 41854, Note_on_c, 2, 44, 0
5, 41856, Note_on_c, 2, 54, 110
5, 41902, Note_on_c, 2, 54, 0
5, 41904, Note_on_c, 2, 51, 110
5, 41998, Note_on_c, 2, 51, 0
5, 42000, Note_on_c, 2, 49, 110
5, 42046, Note_on_c, 2, 49, 0
5, 42096, Note_on_c, 2, 49, 110
5, 42142, Note_on_c, 2, 49, 0
5, 42144, Note_on_c, 2, 51, 110
5, 42238, Note_on_c, 2, 51, 0
5, 42240, Note_on_c, 2, 37, 110
5, 42334, Note_on_c, 2, 37, 0
5, 42336, Note_on_c, 2, 49, 110
5, 42526, Note_on_c, 2, 49, 0
5, 42528, Note_on_c, 2, 37, 110
5, 42622, Note_on_c, 2, 37, 0
5, 42624, Note_on_c, 2, 47, 110
5, 42670, Note_on_c, 2, 47, 0
5, 42672, Note_on_c, 2, 44, 110
5, 42766, Note_on_c, 2, 44, 0
5, 42768, Note_on_c, 2, 42, 110
5, 42814, Note_on_c, 2, 42, 0
5, 42864, Note_on_c, 2, 42, 110
5, 42910, Note_on_c, 2, 42, 0
5, 42912, Note_on_c, 2, 44, 110
5, 43006, Note_on_c, 2, 44, 0
5, 43008, Note_on_c, 2, 40, 110
5, 43102, Note_on_c, 2, 40, 0
5, 43104, Note_on_c, 2, 52, 110
5, 43294, Note_on_c, 2, 52, 0
5, 43296, Note_on_c, 2, 40, 110
5, 43390, Note_on_c, 2, 40, 0
5, 43392, Note_on_c, 2, 50, 110
5, 43438, Note_on_c, 2, 50, 0
5, 43440, Note_on_c, 2, 47, 110
5, 43534, Note_on_c, 2, 47, 0
5, 43536, Note_on_c, 2, 45, 110
5, 43582, Note_on_c, 2, 45, 0
5, 43632, Note_on_c, 2, 45, 110
5, 43654, Note_on_c, 2, 45, 0
5, 43656, Note_on_c, 2, 47, 110
5, 43774, Note_on_c, 2, 47, 0
5, 43776, Note_on_c, 2, 42, 110
5, 43870, Note_on_c, 2, 42, 0
5, 43872, Note_on_c, 2, 54, 110
5, 44062, Note_on_c, 2, 54, 0
5, 44064, Note_on_c, 2, 42, 110
5, 44158, Note_on_c, 2, 42, 0
5, 44160, Note_on_c, 2, 52, 110
5, 44206, Note_on_c, 2, 52, 0
5, 44208, Note_on_c, 2, 49, 110
5, 44302, Note_on_c, 2, 49, 0
5, 44304, Note_on_c, 2, 47, 110
5, 44350, Note_on_c, 2, 47, 0
5, 44400, Note_on_c, 2, 47, 110
5, 44446, Note_on_c, 2, 47, 0
5, 44448, Note_on_c, 2, 49, 110
5, 44542, Note_on_c, 2, 49, 0
5, 44544, Note_on_c, 2, 44, 110
5, 44638, Note_on_c, 2, 44, 0
5, 44640, Note_on_c, 2, 56, 110
5, 44830, Note_on_c, 2, 56, 0
5, 44832, Note_on_c, 2, 44, 110
5, 44926, Note_on_c, 2, 44, 0
5, 44928, Note_on_c, 2, 54, 110
5, 44974, Note_on_c, 2, 54, 0
5, 44976, Note_on_c, 2, 51, 110
5, 45070, Note_on_c, 2, 51, 0
5, 45072, Note_on_c, 2, 49, 110
5, 45118, Note_on_c, 2, 49, 0
5, 45168, Note_on_c, 2, 49, 110
5, 45214, Note_on_c, 2, 49, 0
5, 45216, Note_on_c, 2, 51, 110
5, 45310, Note_on_c, 2, 51, 0
5, 45312, Note_on_c, 2, 37, 110
5, 45406, Note_on_c, 2, 37, 0
5, 45408, Note_on_c, 2, 49, 110
5, 45598, Note_on_c, 2, 49, 0
5, 45600, Note_on_c, 2, 37, 110
5, 45694, Note_on_c, 2, 37, 0
5, 45696, Note_on_c, 2, 47, 110
5, 45742, Note_on_c, 2, 47, 0
5, 45744, Note_on_c, 2, 44, 110
5, 45838, Note_on_c, 2, 44, 0
5, 45840, Note_on_c, 2, 42, 110
5, 45886, Note_on_c, 2, 42, 0
5, 45936, Note_on_c, 2, 42, 110
5, 45982, Note_on_c, 2, 42, 0
5, 45984, Note_on_c, 2, 44, 110
5, 46078, Note_on_c, 2, 44, 0
5, 46080, Note_on_c, 2, 40, 110
5, 46174, Note_on_c, 2, 40, 0
5, 46176, Note_on_c, 2, 52, 110
5, 46366, Note_on_c, 2, 52, 0
5, 46368, Note_on_c, 2, 40, 110
5, 46462, Note_on_c, 2, 40, 0
5, 46464, Note_on_c, 2, 50, 110
5, 46510, Note_on_c, 2, 50, 0
5, 46512, Note_on_c, 2, 47, 110
5, 46606, Note_on_c, 2, 47, 0
5, 46608, Note_on_c, 2, 45, 110
5, 46654, Note_on_c, 2, 45, 0
5, 46704, Note_on_c, 2, 45, 110
5, 46726, Note_on_c, 2, 45, 0
5, 46728, Note_on_c, 2, 47, 110
5, 46846, Note_on_c, 2, 47, 0
5, 46848, Note_on_c, 2, 42, 110
5, 46942, Note_on_c, 2, 42, 0
5, 46944, Note_on_c, 2, 54, 110
5, 47134, Note_on_c, 2, 54, 0
5, 47136, Note_on_c, 2, 42, 110
5, 47230, Note_on_c, 2, 42, 0
5, 47232, Note_on_c, 2, 52, 110
5, 47278, Note_on_c, 2, 52, 0
5, 47280, Note_on_c, 2, 49, 110
5, 47374, Note_on_c, 2, 49, 0
5, 47376, Note_on_c, 2, 47, 110
5, 47422, Note_on_c, 2, 47, 0
5, 47472, Note_on_c, 2, 47, 110
5, 47518, Note_on_c, 2, 47, 0
5, 47520, Note_on_c, 2, 49, 110
5, 47614, Note_on_c, 2, 49, 0
5, 47616, Note_on_c, 2, 44, 110
5, 47710, Note_on_c, 2, 44, 0
5, 47712, Note_on_c, 2, 56, 110
5, 47902, Note_on_c, 2, 56, 0
5, 47904, Note_on_c, 2, 44, 110
5, 47998, Note_on_c, 2, 44, 0
5, 48000, Note_on_c, 2, 54, 110
5, 48046, Note_on_c, 2, 54, 0
5, 48048, Note_on_c, 2, 51, 110
5, 48142, Note_on_c, 2, 51, 0
5, 48144, Note_on_c, 2, 49, 110
5, 48190, Note_on_c, 2, 49, 0
5, 48240, Note_on_c, 2, 49, 110
5, 48286, Note_on_c, 2, 49, 0
5, 48288, Note_on_c, 2, 51, 110
5, 48382, Note_on_c, 2, 51, 0
5, 48384, Note_on_c, 2, 37, 110
5, 48478, Note_on_c, 2, 37, 0
5, 48480, Note_on_c, 2, 49, 110
5, 48670, Note_on_c, 2, 49, 0
5, 48672, Note_on_c, 2, 37, 110
5, 48766, Note_on_c, 2, 37, 0
5, 48768, Note_on_c, 2, 47, 110
5, 48814, Note_on_c, 2, 47, 0
5, 48816, Note_on_c, 2, 44, 110
5, 48910, Note_on_c, 2, 44, 0
5, 48912, Note_on_c, 2, 42, 110
5, 48958, Note_on_c, 2, 42, 0
5, 49008, Note_on_c, 2, 42, 110
5, 49054, Note_on_c, 2, 42, 0
5, 49056, Note_on_c, 2, 44, 110
5, 49150, Note_on_c, 2, 44, 0
5, 49152, Note_on_c, 2, 37, 110
5, 49246, Note_on_c, 2, 37, 0
5, 49248, Note_on_c, 2, 49, 110
5, 49438, Note_on_c, 2, 49, 0
5, 49440, Note_on_c, 2, 37, 110
5, 49534, Note_on_c, 2, 37, 0
5, 49536, Note_on_c, 2, 47, 110
5, 49582, Note_on_c, 2, 47, 0
5, 49584, Note_on_c, 2, 44, 110
5, 49678, Note_on_c, 2, 44, 0
5, 49680, Note_on_c, 2, 42, 110
5, 49726, Note_on_c, 2, 42, 0
5, 49776, Note_on_c, 2, 42, 110
5, 49822, Note_on_c, 2, 42, 0
5, 49824, Note_on_c, 2, 44, 110
5, 49918, Note_on_c, 2, 44, 0
5, 49920, Note_on_c, 2, 37, 110
5, 50014, Note_on_c, 2, 37, 0
5, 50016, Note_on_c, 2, 49, 110
5, 50206, Note_on_c, 2, 49, 0
5, 50208, Note_on_c, 2, 37, 110
5, 50302, Note_on_c, 2, 37, 0
5, 50304, Note_on_c, 2, 47, 110
5, 50350, Note_on_c, 2, 47, 0
5, 50352, Note_on_c, 2, 44, 110
5, 50446, Note_on_c, 2, 44, 0
5, 50448, Note_on_c, 2, 42, 110
5, 50494, Note_on_c, 2, 42, 0
5, 50544, Note_on_c, 2, 42, 110
5, 50590, Note_on_c, 2, 42, 0
5, 50592, Note_on_c, 2, 44, 110
5, 50686, Note_on_c, 2, 44, 0
5, 50688, Note_on_c, 2, 37, 110
5, 50782, Note_on_c, 2, 37, 0
5, 50784, Note_on_c, 2, 49, 110
5, 50974, Note_on_c, 2, 49, 0
5, 50976, Note_on_c, 2, 37, 110
5, 51070, Note_on_c, 2, 37, 0
5, 51072, Note_on_c, 2, 47, 110
5, 51118, Note_on_c, 2, 47, 0
5, 51120, Note_on_c, 2, 44, 110
5, 51214, Note_on_c, 2, 44, 0
5, 51216, Note_on_c, 2, 42, 110
5, 51262, Note_on_c, 2, 42, 0
5, 51312, Note_on_c, 2, 42, 110
5, 51358, Note_on_c, 2, 42, 0
5, 51360, Note_on_c, 2, 44, 110
5, 51454, Note_on_c, 2, 44, 0
5, 51456, Note_on_c, 2, 37, 110
5, 51550, Note_on_c, 2, 37, 0
5, 51552, Note_on_c, 2, 49, 110
5, 51742, Note_on_c, 2, 49, 0
5, 51744, Note_on_c, 2, 37, 110
5, 51838, Note_on_c, 2, 37, 0
5, 51840, Note_on_c, 2, 47, 110
5, 51886, Note_on_c, 2, 47, 0
5, 51888, Note_on_c, 2, 44, 110
5, 51982, Note_on_c, 2, 44, 0
5, 51984, Note_on_c, 2, 42, 110
5, 52030, Note_on_c, 2, 42, 0
5, 52080, Note_on_c, 2, 42, 110
5, 52126, Note_on_c, 2, 42, 0
5, 52128, Note_on_c, 2, 44, 110
5, 52222, Note_on_c, 2, 44, 0
5, 52224, Note_on_c, 2, 37, 110
5, 52318, Note_on_c, 2, 37, 0
5, 52320, Note_on_c, 2, 49, 110
5, 52510, Note_on_c, 2, 49, 0
5, 52512, Note_on_c, 2, 37, 110
5, 52606, Note_on_c, 2, 37, 0
5, 52608, Note_on_c, 2, 47, 110
5, 52654, Note_on_c, 2, 47, 0
5, 52656, Note_on_c, 2, 44, 110
5, 52750, Note_on_c, 2, 44, 0
5, 52752, Note_on_c, 2, 42, 110
5, 52798, Note_on_c, 2, 42, 0
5, 52848, Note_on_c, 2, 42, 110
5, 52894, Note_on_c, 2, 42, 0
5, 52896, Note_on_c, 2, 44, 110
5, 52990, Note_on_c, 2, 44, 0
5, 52992, Note_on_c, 2, 37, 110
5, 53086, Note_on_c, 2, 37, 0
5, 53088, Note_on_c, 2, 49, 110
5, 53278, Note_on_c, 2, 49, 0
5, 53280, Note_on_c, 2, 37, 110
5, 53374, Note_on_c, 2, 37, 0
5, 53376, Note_on_c, 2, 47, 110
5, 53422, Note_on_c, 2, 47, 0
5, 53424, Note_on_c, 2, 44, 110
5, 53518, Note_on_c, 2, 44, 0
5, 53520, Note_on_c, 2, 42, 110
5, 53566, Note_on_c, 2, 42, 0
5, 53616, Note_on_c, 2, 42, 110
5, 53662, Note_on_c, 2, 42, 0
5, 53664, Note_on_c, 2, 44, 110
5, 53758, Note_on_c, 2, 44, 0
5, 53760, Note_on_c, 2, 37, 110
5, 53854, Note_on_c, 2, 37, 0
5, 53856, Note_on_c, 2, 49, 110
5, 54046, Note_on_c, 2, 49, 0
5, 54048, Note_on_c, 2, 37, 110
5, 54142, Note_on_c, 2, 37, 0
5, 54144, Note_on_c, 2, 47, 110
5, 54190, Note_on_c, 2, 47, 0
5, 54192, Note_on_c, 2, 44, 110
5, 54286, Note_on_c, 2, 44, 0
5, 54288, Note_on_c, 2, 42, 110
5, 54334, Note_on_c, 2, 42, 0
5, 54384, Note_on_c, 2, 42, 110
5, 54430, Note_on_c, 2, 42, 0
5, 54432, Note_on_c, 2, 44, 110
5, 54526, Note_on_c, 2, 44, 0
5, 54528, Note_on_c, 2, 37, 110
5, 54622, Note_on_c, 2, 37, 0
5, 54624, Note_on_c, 2, 49, 110
5, 54814, Note_on_c, 2, 49, 0
5, 54816, Note_on_c, 2, 37, 110
5, 54910, Note_on_c, 2, 37, 0
5, 54912, Note_on_c, 2, 47, 110
5, 54958, Note_on_c, 2, 47, 0
5, 54960, Note_on_c, 2, 44, 110
5, 55054, Note_on_c, 2, 44, 0
5, 55056, Note_on_c, 2, 42, 110
5, 55102, Note_on_c, 2, 42, 0
5, 55152, Note_on_c, 2, 42, 110
5, 55198, Note_on_c, 2, 42, 0
5, 55200, Note_on_c, 2, 44, 110
5, 55294, Note_on_c, 2, 44, 0
5, 55296, Note_on_c, 2, 37, 110
5, 55390, Note_on_c, 2, 37, 0
5, 55392, Note_on_c, 2, 49, 110
5, 55582, Note_on_c, 2, 49, 0
5, 55584, Note_on_c, 2, 37, 110
5, 55678, Note_on_c, 2, 37, 0
5, 55680, Note_on_c, 2, 47, 110
5, 55726, Note_on_c, 2, 47, 0
5, 55728, Note_on_c, 2, 44, 110
5, 55822, Note_on_c, 2, 44, 0
5, 55824, Note_on_c, 2, 42, 110
5, 55870, Note_on_c, 2, 42, 0
5, 55920, Note_on_c, 2, 42, 110
5, 55966, Note_on_c, 2, 42, 0
5, 55968, Note_on_c, 2, 44, 110
5, 56062, Note_on_c, 2, 44, 0
5, 56064, Note_on_c, 2, 37, 110
5, 56158, Note_on_c, 2, 37, 0
5, 56160, Note_on_c, 2, 49, 110
5, 56350, Note_on_c, 2, 49, 0
5, 56352, Note_on_c, 2, 37, 110
5, 56446, Note_on_c, 2, 37, 0
5, 56448, Note_on_c, 2, 47, 110
5, 56494, Note_on_c, 2, 47, 0
5, 56496, Note_on_c, 2, 44, 110
5, 56590, Note_on_c, 2, 44, 0
5, 56592, Note_on_c, 2, 42, 110
5, 56638, Note_on_c, 2, 42, 0
5, 56688, Note_on_c, 2, 42, 110
5, 56734, Note_on_c, 2, 42, 0
5, 56736, Note_on_c, 2, 44, 110
5, 56830, Note_on_c, 2, 44, 0
5, 56832, Note_on_c, 2, 37, 110
5, 56926, Note_on_c, 2, 37, 0
5, 56928, Note_on_c, 2, 49, 110
5, 57118, Note_on_c, 2, 49, 0
5, 57120, Note_on_c, 2, 37, 110
5, 57214, Note_on_c, 2, 37, 0
5, 57216, Note_on_c, 2, 47, 110
5, 57262, Note_on_c, 2, 47, 0
5, 57264, Note_on_c, 2, 44, 110
5, 57358, Note_on_c, 2, 44, 0
5, 57360, Note_on_c, 2, 42, 110
5, 57406, Note_on_c, 2, 42, 0
5, 57456, Note_on_c, 2, 42, 110
5, 57502, Note_on_c, 2, 42, 0
5, 57504, Note_on_c, 2, 44, 110
5, 57598, Note_on_c, 2, 44, 0
5, 57600, Note_on_c, 2, 37, 110
5, 57694, Note_on_c, 2, 37, 0
5, 57696, Note_on_c, 2, 49, 110
5, 57886, Note_on_c, 2, 49, 0
5, 57888, Note_on_c, 2, 37, 110
5, 57982, Note_on_c, 2, 37, 0
5, 57984, Note_on_c, 2, 47, 110
5, 58030, Note_on_c, 2, 47, 0
5, 58032, Note_on_c, 2, 44, 110
5, 58126, Note_on_c, 2, 44, 0
5, 58128, Note_on_c, 2, 42, 110
5, 58174, Note_on_c, 2, 42, 0
5, 58224, Note_on_c, 2, 42, 110
5, 58270, Note_on_c, 2, 42, 0
5, 58272, Note_on_c, 2, 44, 110
5, 58366, Note_on_c, 2, 44, 0
5, 58368, Note_on_c, 2, 37, 110
5, 58462, Note_on_c, 2, 37, 0
5, 58464, Note_on_c, 2, 49, 110
5, 58654, Note_on_c, 2, 49, 0
5, 58656, Note_on_c, 2, 37, 110
5, 58750, Note_on_c, 2, 37, 0
5, 58752, Note_on_c, 2, 47, 110
5, 58798, Note_on_c, 2, 47, 0
5, 58800, Note_on_c, 2, 44, 110
5, 58894, Note_on_c, 2, 44, 0
5, 58896, Note_on_c, 2, 42, 110
5, 58942, Note_on_c, 2, 42, 0
5, 58992, Note_on_c, 2, 42, 110
5, 59038, Note_on_c, 2, 42, 0
5, 59040, Note_on_c, 2, 44, 110
5, 59134, Note_on_c, 2, 44, 0
5, 59136, Note_on_c, 2, 37, 110
5, 59230, Note_on_c, 2, 37, 0
5, 59232, Note_on_c, 2, 49, 110
5, 59422, Note_on_c, 2, 49, 0
5, 59424, Note_on_c, 2, 37, 110
5, 59518, Note_on_c, 2, 37, 0
5, 59520, Note_on_c, 2, 47, 110
5, 59566, Note_on_c, 2, 47, 0
5, 59568, Note_on_c, 2, 44, 110
5, 59662, Note_on_c, 2, 44, 0
5, 59664, Note_on_c, 2, 42, 110
5, 59710, Note_on_c, 2, 42, 0
5, 59760, Note_on_c, 2, 42, 110
5, 59806, Note_on_c, 2, 42, 0
5, 59808, Note_on_c, 2, 44, 110
5, 59902, Note_on_c, 2, 44, 0
5, 59904, Note_on_c, 2, 37, 110
5, 59998, Note_on_c, 2, 37, 0
5, 60000, Note_on_c, 2, 49, 110
5, 60190, Note_on_c, 2, 49, 0
5, 60192, Note_on_c, 2, 37, 110
5, 60286, Note_on_c, 2, 37, 0
5, 60288, Note_on_c, 2, 47, 110
5, 60334, Note_on_c, 2, 47, 0
5, 60336, Note_on_c, 2, 44, 110
5, 60430, Note_on_c, 2, 44, 0
5, 60432, Note_on_c, 2, 42, 110
5, 60478, Note_on_c, 2, 42, 0
5, 60528, Note_on_c, 2, 42, 110
5, 60574, Note_on_c, 2, 42, 0
5, 60576, Note_on_c, 2, 44, 110
5, 60670, Note_on_c, 2, 44, 0
5, 60672, Note_on_c, 2, 37, 110
5, 60766, Note_on_c, 2, 37, 0
5, 60768, Note_on_c, 2, 49, 110
5, 60958, Note_on_c, 2, 49, 0
5, 60960, Note_on_c, 2, 37, 110
5, 61054, Note_on_c, 2, 37, 0
5, 61056, Note_on_c, 2, 47, 110
5, 61102, Note_on_c, 2, 47, 0
5, 61104, Note_on_c, 2, 44, 110
5, 61198, Note_on_c, 2, 44, 0
5, 61200, Note_on_c, 2, 42, 110
5, 61246, Note_on_c, 2, 42, 0
5, 61296, Note_on_c, 2, 42, 110
5, 61342, Note_on_c, 2, 42, 0
5, 61344, Note_on_c, 2, 44, 110
5, 61438, Note_on_c, 2, 44, 0
5, 61440, Note_on_c, 2, 37, 110
5, 61534, Note_on_c, 2, 37, 0
5, 61536, Note_on_c, 2, 49, 110
5, 61726, Note_on_c, 2, 49, 0
5, 61728, Note_on_c, 2, 37, 110
5, 61822, Note_on_c, 2, 37, 0
5, 61824, Note_on_c, 2, 47, 110
5, 61870, Note_on_c, 2, 47, 0
5, 61872, Note_on_c, 2, 44, 110
5, 61966, Note_on_c, 2, 44, 0
5, 61968, Note_on_c, 2, 42, 110
5, 62014, Note_on_c, 2, 42, 0
5, 62064, Note_on_c, 2, 42, 110
5, 62110, Note_on_c, 2, 42, 0
5, 62112, Note_on_c, 2, 44, 110
5, 62206, Note_on_c, 2, 44, 0
5, 62208, Note_on_c, 2, 37, 110
5, 62302, Note_on_c, 2, 37, 0
5, 62304, Note_on_c, 2, 49, 110
5, 62494, Note_on_c, 2, 49, 0
5, 62496, Note_on_c, 2, 37, 110
5, 62590, Note_on_c, 2, 37, 0
5, 62592, Note_on_c, 2, 47, 110
5, 62638, Note_on_c, 2, 47, 0
5, 62640, Note_on_c, 2, 44, 110
5, 62734, Note_on_c, 2, 44, 0
5, 62736, Note_on_c, 2, 42, 110
5, 62782, Note_on_c, 2, 42, 0
5, 62832, Note_on_c, 2, 42, 110
5, 62878, Note_on_c, 2, 42, 0
5, 62880, Note_on_c, 2, 44, 110
5, 62974, Note_on_c, 2, 44, 0
5, 62976, Note_on_c, 2, 37, 110
5, 63070, Note_on_c, 2, 37, 0
5, 63072, Note_on_c, 2, 49, 110
5, 63262, Note_on_c, 2, 49, 0
5, 63264, Note_on_c, 2, 37, 110
5, 63358, Note_on_c, 2, 37, 0
5, 63360, Note_on_c, 2, 47, 110
5, 63406, Note_on_c, 2, 47, 0
5, 63408, Note_on_c, 2, 44, 110
5, 63502, Note_on_c, 2, 44, 0
5, 63504, Note_on_c, 2, 42, 110
5, 63550, Note_on_c, 2, 42, 0
5, 63600, Note_on_c, 2, 42, 110
5, 63646, Note_on_c, 2, 42, 0
5, 63648, Note_on_c, 2, 44, 110
5, 63742, Note_on_c, 2, 44, 0
5, 63744, Note_on_c, 2, 49, 110
5, 63790, Note_on_c, 2, 49, 0
5, 63790, End_track
6, 0, Start_track
6, 0, MIDI_port, 0
6, 0, Title_t, "Staff-3"
6, 0, Control_c, 3, 7, 127
6, 0, Control_c, 3, 10, 64
6, 768, Program_c, 3, 61
6, 3840, Note_on_c, 3, 73, 110
6, 4944, Note_on_c, 3, 73, 0
6, 4992, Note_on_c, 3, 71, 110
6, 5086, Note_on_c, 3, 71, 0
6, 5088, Note_on_c, 3, 70, 110
6, 5182, Note_on_c, 3, 70, 0
6, 5280, Note_on_c, 3, 68, 110
6, 6864, Note_on_c, 3, 68, 0
6, 14592, Note_on_c, 3, 73, 110
6, 14686, Note_on_c, 3, 73, 0
6, 14688, Note_on_c, 3, 71, 110
6, 14782, Note_on_c, 3, 71, 0
6, 14880, Note_on_c, 3, 68, 110
6, 15312, Note_on_c, 3, 68, 0
6, 15360, Note_on_c, 3, 73, 110
6, 15454, Note_on_c, 3, 73, 0
6, 15456, Note_on_c, 3, 71, 110
6, 15550, Note_on_c, 3, 71, 0
6, 15648, Note_on_c, 3, 68, 110
6, 16080, Note_on_c, 3, 68, 0
6, 16128, Note_on_c, 3, 73, 110
6, 16222, Note_on_c, 3, 73, 0
6, 16224, Note_on_c, 3, 71, 110
6, 16318, Note_on_c, 3, 71, 0
6, 16416, Note_on_c, 3, 68, 110
6, 16848, Note_on_c, 3, 68, 0
6, 16896, Note_on_c, 3, 73, 110
6, 16990, Note_on_c, 3, 73, 0
6, 16992, Note_on_c, 3, 71, 110
6, 17086, Note_on_c, 3, 71, 0
6, 17184, Note_on_c, 3, 68, 110
6, 17616, Note_on_c, 3, 68, 0
6, 18720, Note_on_c, 3, 73, 110
6, 18814, Note_on_c, 3, 73, 0
6, 18816, Note_on_c, 3, 76, 110
6, 18862, Note_on_c, 3, 76, 0
6, 18864, Note_on_c, 3, 78, 110
6, 18958, Note_on_c, 3, 78, 0
6, 18960, Note_on_c, 3, 73, 110
6, 19054, Note_on_c, 3, 73, 0
6, 19056, Note_on_c, 3, 71, 110
6, 19078, Note_on_c, 3, 71, 0
6, 19080, Note_on_c, 3, 73, 110
6, 19198, Note_on_c, 3, 73, 0
6, 20256, Note_on_c, 3, 73, 110
6, 20350, Note_on_c, 3, 73, 0
6, 20352, Note_on_c, 3, 76, 110
6, 20398, Note_on_c, 3, 76, 0
6, 20400, Note_on_c, 3, 78, 110
6, 20494, Note_on_c, 3, 78, 0
6, 20496, Note_on_c, 3, 73, 110
6, 20590, Note_on_c, 3, 73, 0
6, 20592, Note_on_c, 3, 71, 110
6, 20614, Note_on_c, 3, 71, 0
6, 20616, Note_on_c, 3, 73, 110
6, 20734, Note_on_c, 3, 73, 0
6, 23328, Note_on_c, 3, 73, 110
6, 23422, Note_on_c, 3, 73, 0
6, 23424, Note_on_c, 3, 76, 110
6, 23470, Note_on_c, 3, 76, 0
6, 23472, Note_on_c, 3, 78, 110
6, 23566, Note_on_c, 3, 78, 0
6, 23568, Note_on_c, 3, 73, 110
6, 23662, Note_on_c, 3, 73, 0
6, 23664, Note_on_c, 3, 71, 110
6, 23686, Note_on_c, 3, 71, 0
6, 23688, Note_on_c, 3, 73, 110
6, 23806, Note_on_c, 3, 73, 0
6, 23808, Note_on_c, 3, 73, 110
6, 23902, Note_on_c, 3, 73, 0
6, 23904, Note_on_c, 3, 71, 110
6, 23998, Note_on_c, 3, 71, 0
6, 24096, Note_on_c, 3, 68, 110
6, 24528, Note_on_c, 3, 68, 0
6, 24576, Note_on_c, 3, 73, 110
6, 24670, Note_on_c, 3, 73, 0
6, 24672, Note_on_c, 3, 71, 110
6, 24766, Note_on_c, 3, 71, 0
6, 24864, Note_on_c, 3, 68, 110
6, 25296, Note_on_c, 3, 68, 0
6, 25344, Note_on_c, 3, 73, 110
6, 25438, Note_on_c, 3, 73, 0
6, 25440, Note_on_c, 3, 71, 110
6, 25534, Note_on_c, 3, 71, 0
6, 25632, Note_on_c, 3, 68, 110
6, 26064, Note_on_c, 3, 68, 0
6, 26112, Note_on_c, 3, 73, 110
6, 26206, Note_on_c, 3, 73, 0
6, 26208, Note_on_c, 3, 71, 110
6, 26302, Note_on_c, 3, 71, 0
6, 26400, Note_on_c, 3, 68, 110
6, 26832, Note_on_c, 3, 68, 0
6, 31392, Note_on_c, 3, 68, 110
6, 31486, Note_on_c, 3, 68, 0
6, 31488, Note_on_c, 3, 68, 110
6, 32208, Note_on_c, 3, 68, 0
6, 32256, Note_on_c, 3, 80, 110
6, 33184, Note_on_c, 3, 80, 0
6, 33888, Note_on_c, 3, 73, 110
6, 33982, Note_on_c, 3, 73, 0
6, 34080, Note_on_c, 3, 73, 110
6, 34174, Note_on_c, 3, 73, 0
6, 34176, Note_on_c, 3, 76, 110
6, 34222, Note_on_c, 3, 76, 0
6, 34224, Note_on_c, 3, 78, 110
6, 34318, Note_on_c, 3, 78, 0
6, 34320, Note_on_c, 3, 73, 110
6, 34414, Note_on_c, 3, 73, 0
6, 34416, Note_on_c, 3, 71, 110
6, 34438, Note_on_c, 3, 71, 0
6, 34440, Note_on_c, 3, 73, 110
6, 34558, Note_on_c, 3, 73, 0
6, 35424, Note_on_c, 3, 73, 110
6, 35518, Note_on_c, 3, 73, 0
6, 35616, Note_on_c, 3, 73, 110
6, 35710, Note_on_c, 3, 73, 0
6, 35712, Note_on_c, 3, 76, 110
6, 35758, Note_on_c, 3, 76, 0
6, 35760, Note_on_c, 3, 78, 110
6, 35854, Note_on_c, 3, 78, 0
6, 35856, Note_on_c, 3, 73, 110
6, 35950, Note_on_c, 3, 73, 0
6, 35952, Note_on_c, 3, 71, 110
6, 35974, Note_on_c, 3, 71, 0
6, 35976, Note_on_c, 3, 73, 110
6, 36094, Note_on_c, 3, 73, 0
6, 38496, Note_on_c, 3, 73, 110
6, 38590, Note_on_c, 3, 73, 0
6, 38688, Note_on_c, 3, 73, 110
6, 38782, Note_on_c, 3, 73, 0
6, 38784, Note_on_c, 3, 76, 110
6, 38830, Note_on_c, 3, 76, 0
6, 38832, Note_on_c, 3, 78, 110
6, 38926, Note_on_c, 3, 78, 0
6, 38928, Note_on_c, 3, 73, 110
6, 39022, Note_on_c, 3, 73, 0
6, 39024, Note_on_c, 3, 71, 110
6, 39046, Note_on_c, 3, 71, 0
6, 39048, Note_on_c, 3, 73, 110
6, 39262, Note_on_c, 3, 73, 0
6, 39264, Note_on_c, 3, 71, 110
6, 39358, Note_on_c, 3, 71, 0
6, 39456, Note_on_c, 3, 68, 110
6, 39888, Note_on_c, 3, 68, 0
6, 39936, Note_on_c, 3, 73, 110
6, 40030, Note_on_c, 3, 73, 0
6, 40032, Note_on_c, 3, 71, 110
6, 40126, Note_on_c, 3, 71, 0
6, 40224, Note_on_c, 3, 68, 110
6, 40656, Note_on_c, 3, 68, 0
6, 40704, Note_on_c, 3, 73, 110
6, 40798, Note_on_c, 3, 73, 0
6, 40800, Note_on_c, 3, 71, 110
6, 40894, Note_on_c, 3, 71, 0
6, 40992, Note_on_c, 3, 68, 110
6, 41424, Note_on_c, 3, 68, 0
6, 41472, Note_on_c, 3, 73, 110
6, 41566, Note_on_c, 3, 73, 0
6, 41568, Note_on_c, 3, 71, 110
6, 41662, Note_on_c, 3, 71, 0
6, 41760, Note_on_c, 3, 68, 110
6, 42192, Note_on_c, 3, 68, 0
6, 42240, Note_on_c, 3, 73, 110
6, 42334, Note_on_c, 3, 73, 0
6, 42336, Note_on_c, 3, 71, 110
6, 42430, Note_on_c, 3, 71, 0
6, 42528, Note_on_c, 3, 68, 110
6, 42960, Note_on_c, 3, 68, 0
6, 43008, Note_on_c, 3, 73, 110
6, 43102, Note_on_c, 3, 73, 0
6, 43104, Note_on_c, 3, 71, 110
6, 43198, Note_on_c, 3, 71, 0
6, 43296, Note_on_c, 3, 68, 110
6, 43728, Note_on_c, 3, 68, 0
6, 43776, Note_on_c, 3, 73, 110
6, 43870, Note_on_c, 3, 73, 0
6, 43872, Note_on_c, 3, 71, 110
6, 43966, Note_on_c, 3, 71, 0
6, 44064, Note_on_c, 3, 68, 110
6, 44496, Note_on_c, 3, 68, 0
6, 44544, Note_on_c, 3, 73, 110
6, 44638, Note_on_c, 3, 73, 0
6, 44640, Note_on_c, 3, 71, 110
6, 44734, Note_on_c, 3, 71, 0
6, 44832, Note_on_c, 3, 68, 110
6, 45264, Note_on_c, 3, 68, 0
6, 45312, Note_on_c, 3, 73, 110
6, 45406, Note_on_c, 3, 73, 0
6, 45408, Note_on_c, 3, 71, 110
6, 45502, Note_on_c, 3, 71, 0
6, 45600, Note_on_c, 3, 68, 110
6, 46032, Note_on_c, 3, 68, 0
6, 46080, Note_on_c, 3, 73, 110
6, 46174, Note_on_c, 3, 73, 0
6, 46176, Note_on_c, 3, 71, 110
6, 46270, Note_on_c, 3, 71, 0
6, 46368, Note_on_c, 3, 68, 110
6, 46800, Note_on_c, 3, 68, 0
6, 46848, Note_on_c, 3, 73, 110
6, 46942, Note_on_c, 3, 73, 0
6, 46944, Note_on_c, 3, 71, 110
6, 47038, Note_on_c, 3, 71, 0
6, 47136, Note_on_c, 3, 68, 110
6, 47568, Note_on_c, 3, 68, 0
6, 47616, Note_on_c, 3, 73, 110
6, 47710, Note_on_c, 3, 73, 0
6, 47712, Note_on_c, 3, 71, 110
6, 47806, Note_on_c, 3, 71, 0
6, 47904, Note_on_c, 3, 68, 110
6, 48336, Note_on_c, 3, 68, 0
6, 48576, Note_on_c, 3, 73, 110
6, 48670, Note_on_c, 3, 73, 0
6, 48672, Note_on_c, 3, 71, 110
6, 48766, Note_on_c, 3, 71, 0
6, 48768, Note_on_c, 3, 73, 110
6, 48862, Note_on_c, 3, 73, 0
6, 48864, Note_on_c, 3, 75, 110
6, 48910, Note_on_c, 3, 75, 0
6, 48912, Note_on_c, 3, 73, 110
6, 48958, Note_on_c, 3, 73, 0
6, 49008, Note_on_c, 3, 73, 110
6, 49054, Note_on_c, 3, 73, 0
6, 49056, Note_on_c, 3, 71, 110
6, 49150, Note_on_c, 3, 71, 0
6, 49152, Note_on_c, 3, 73, 110
6, 49246, Note_on_c, 3, 73, 0
6, 50112, Note_on_c, 3, 73, 110
6, 50206, Note_on_c, 3, 73, 0
6, 50208, Note_on_c, 3, 71, 110
6, 50302, Note_on_c, 3, 71, 0
6, 50304, Note_on_c, 3, 73, 110
6, 50398, Note_on_c, 3, 73, 0
6, 50400, Note_on_c, 3, 75, 110
6, 50446, Note_on_c, 3, 75, 0
6, 50448, Note_on_c, 3, 73, 110
6, 50494, Note_on_c, 3, 73, 0
6, 50544, Note_on_c, 3, 73, 110
6, 50590, Note_on_c, 3, 73, 0
6, 50592, Note_on_c, 3, 71, 110
6, 50686, Note_on_c, 3, 71, 0
6, 50688, Note_on_c, 3, 73, 110
6, 50782, Note_on_c, 3, 73, 0
6, 51456, Note_on_c, 3, 73, 110
6, 52560, Note_on_c, 3, 73, 0
6, 52608, Note_on_c, 3, 71, 110
6, 52702, Note_on_c, 3, 71, 0
6, 52704, Note_on_c, 3, 70, 110
6, 52798, Note_on_c, 3, 70, 0
6, 52896, Note_on_c, 3, 68, 110
6, 54480, Note_on_c, 3, 68, 0
6, 54528, Note_on_c, 3, 73, 110
6, 55632, Note_on_c, 3, 73, 0
6, 55680, Note_on_c, 3, 71, 110
6, 55774, Note_on_c, 3, 71, 0
6, 55776, Note_on_c, 3, 70, 110
6, 55870, Note_on_c, 3, 70, 0
6, 55968, Note_on_c, 3, 68, 110
6, 57552, Note_on_c, 3, 68, 0
6, 57600, Note_on_c, 3, 73, 110
6, 58704, Note_on_c, 3, 73, 0
6, 58752, Note_on_c, 3, 71, 110
6, 58846, Note_on_c, 3, 71, 0
6, 58848, Note_on_c, 3, 70, 110
6, 58942, Note_on_c, 3, 70, 0
6, 59040, Note_on_c, 3, 68, 110
6, 60624, Note_on_c, 3, 68, 0
6, 60672, Note_on_c, 3, 73, 110
6, 61776, Note_on_c, 3, 73, 0
6, 61824, Note_on_c, 3, 71, 110
6, 61918, Note_on_c, 3, 71, 0
6, 61920, Note_on_c, 3, 70, 110
6, 62014, Note_on_c, 3, 70, 0
6, 62112, Note_on_c, 3, 68, 110
6, 63696, Note_on_c, 3, 68, 0
6, 63744, Note_on_c, 3, 73, 110
6, 63790, Note_on_c, 3, 73, 0
6, 63790, End_track
7, 0, Start_track
7, 0, MIDI_port, 0
7, 0, Title_t, "Staff-4"
7, 0, Control_c, 4, 7, 127
7, 0, Control_c, 4, 10, 64
7, 768, Program_c, 4, 61
7, 3840, Note_on_c, 4, 73, 110
7, 4944, Note_on_c, 4, 73, 0
7, 4992, Note_on_c, 4, 71, 110
7, 5086, Note_on_c, 4, 71, 0
7, 5088, Note_on_c, 4, 70, 110
7, 5182, Note_on_c, 4, 70, 0
7, 5280, Note_on_c, 4, 68, 110
7, 6864, Note_on_c, 4, 68, 0
7, 14592, Note_on_c, 4, 73, 110
7, 14686, Note_on_c, 4, 73, 0
7, 14688, Note_on_c, 4, 71, 110
7, 14782, Note_on_c, 4, 71, 0
7, 14880, Note_on_c, 4, 68, 110
7, 15312, Note_on_c, 4, 68, 0
7, 15360, Note_on_c, 4, 73, 110
7, 15454, Note_on_c, 4, 73, 0
7, 15456, Note_on_c, 4, 71, 110
7, 15550, Note_on_c, 4, 71, 0
7, 15648, Note_on_c, 4, 68, 110
7, 16080, Note_on_c, 4, 68, 0
7, 16128, Note_on_c, 4, 73, 110
7, 16222, Note_on_c, 4, 73, 0
7, 16224, Note_on_c, 4, 71, 110
7, 16318, Note_on_c, 4, 71, 0
7, 16416, Note_on_c, 4, 68, 110
7, 16848, Note_on_c, 4, 68, 0
7, 16896, Note_on_c, 4, 73, 110
7, 16990, Note_on_c, 4, 73, 0
7, 16992, Note_on_c, 4, 71, 110
7, 17086, Note_on_c, 4, 71, 0
7, 17184, Note_on_c, 4, 68, 110
7, 17616, Note_on_c, 4, 68, 0
7, 18720, Note_on_c, 4, 73, 110
7, 18814, Note_on_c, 4, 73, 0
7, 18816, Note_on_c, 4, 76, 110
7, 18862, Note_on_c, 4, 76, 0
7, 18864, Note_on_c, 4, 78, 110
7, 18958, Note_on_c, 4, 78, 0
7, 18960, Note_on_c, 4, 73, 110
7, 19054, Note_on_c, 4, 73, 0
7, 19056, Note_on_c, 4, 71, 110
7, 19078, Note_on_c, 4, 71, 0
7, 19080, Note_on_c, 4, 73, 110
7, 19198, Note_on_c, 4, 73, 0
7, 20256, Note_on_c, 4, 73, 110
7, 20350, Note_on_c, 4, 73, 0
7, 20352, Note_on_c, 4, 76, 110
7, 20398, Note_on_c, 4, 76, 0
7, 20400, Note_on_c, 4, 78, 110
7, 20494, Note_on_c, 4, 78, 0
7, 20496, Note_on_c, 4, 73, 110
7, 20590, Note_on_c, 4, 73, 0
7, 20592, Note_on_c, 4, 71, 110
7, 20614, Note_on_c, 4, 71, 0
7, 20616, Note_on_c, 4, 73, 110
7, 20734, Note_on_c, 4, 73, 0
7, 23328, Note_on_c, 4, 73, 110
7, 23422, Note_on_c, 4, 73, 0
7, 23424, Note_on_c, 4, 76, 110
7, 23470, Note_on_c, 4, 76, 0
7, 23472, Note_on_c, 4, 78, 110
7, 23566, Note_on_c, 4, 78, 0
7, 23568, Note_on_c, 4, 73, 110
7, 23662, Note_on_c, 4, 73, 0
7, 23664, Note_on_c, 4, 71, 110
7, 23686, Note_on_c, 4, 71, 0
7, 23688, Note_on_c, 4, 73, 110
7, 23806, Note_on_c, 4, 73, 0
7, 23808, Note_on_c, 4, 73, 110
7, 23902, Note_on_c, 4, 73, 0
7, 23904, Note_on_c, 4, 71, 110
7, 23998, Note_on_c, 4, 71, 0
7, 24096, Note_on_c, 4, 68, 110
7, 24528, Note_on_c, 4, 68, 0
7, 24576, Note_on_c, 4, 73, 110
7, 24670, Note_on_c, 4, 73, 0
7, 24672, Note_on_c, 4, 71, 110
7, 24766, Note_on_c, 4, 71, 0
7, 24864, Note_on_c, 4, 68, 110
7, 25296, Note_on_c, 4, 68, 0
7, 25344, Note_on_c, 4, 73, 110
7, 25438, Note_on_c, 4, 73, 0
7, 25440, Note_on_c, 4, 71, 110
7, 25534, Note_on_c, 4, 71, 0
7, 25632, Note_on_c, 4, 68, 110
7, 26064, Note_on_c, 4, 68, 0
7, 26112, Note_on_c, 4, 73, 110
7, 26206, Note_on_c, 4, 73, 0
7, 26208, Note_on_c, 4, 71, 110
7, 26302, Note_on_c, 4, 71, 0
7, 26400, Note_on_c, 4, 68, 110
7, 26832, Note_on_c, 4, 68, 0
7, 31392, Note_on_c, 4, 68, 110
7, 31486, Note_on_c, 4, 68, 0
7, 31488, Note_on_c, 4, 68, 110
7, 32208, Note_on_c, 4, 68, 0
7, 32256, Note_on_c, 4, 80, 110
7, 33184, Note_on_c, 4, 80, 0
7, 33888, Note_on_c, 4, 73, 110
7, 33982, Note_on_c, 4, 73, 0
7, 34080, Note_on_c, 4, 73, 110
7, 34174, Note_on_c, 4, 73, 0
7, 34176, Note_on_c, 4, 76, 110
7, 34222, Note_on_c, 4, 76, 0
7, 34224, Note_on_c, 4, 78, 110
7, 34318, Note_on_c, 4, 78, 0
7, 34320, Note_on_c, 4, 73, 110
7, 34414, Note_on_c, 4, 73, 0
7, 34416, Note_on_c, 4, 71, 110
7, 34438, Note_on_c, 4, 71, 0
7, 34440, Note_on_c, 4, 73, 110
7, 34558, Note_on_c, 4, 73, 0
7, 35424, Note_on_c, 4, 73, 110
7, 35518, Note_on_c, 4, 73, 0
7, 35616, Note_on_c, 4, 73, 110
7, 35710, Note_on_c, 4, 73, 0
7, 35712, Note_on_c, 4, 76, 110
7, 35758, Note_on_c, 4, 76, 0
7, 35760, Note_on_c, 4, 78, 110
7, 35854, Note_on_c, 4, 78, 0
7, 35856, Note_on_c, 4, 73, 110
7, 35950, Note_on_c, 4, 73, 0
7, 35952, Note_on_c, 4, 71, 110
7, 35974, Note_on_c, 4, 71, 0
7, 35976, Note_on_c, 4, 73, 110
7, 36094, Note_on_c, 4, 73, 0
7, 38496, Note_on_c, 4, 73, 110
7, 38590, Note_on_c, 4, 73, 0
7, 38688, Note_on_c, 4, 73, 110
7, 38782, Note_on_c, 4, 73, 0
7, 38784, Note_on_c, 4, 76, 110
7, 38830, Note_on_c, 4, 76, 0
7, 38832, Note_on_c, 4, 78, 110
7, 38926, Note_on_c, 4, 78, 0
7, 38928, Note_on_c, 4, 73, 110
7, 39022, Note_on_c, 4, 73, 0
7, 39024, Note_on_c, 4, 71, 110
7, 39046, Note_on_c, 4, 71, 0
7, 39048, Note_on_c, 4, 73, 110
7, 39262, Note_on_c, 4, 73, 0
7, 39264, Note_on_c, 4, 71, 110
7, 39358, Note_on_c, 4, 71, 0
7, 39456, Note_on_c, 4, 68, 110
7, 39888, Note_on_c, 4, 68, 0
7, 39936, Note_on_c, 4, 73, 110
7, 40030, Note_on_c, 4, 73, 0
7, 40032, Note_on_c, 4, 71, 110
7, 40126, Note_on_c, 4, 71, 0
7, 40224, Note_on_c, 4, 68, 110
7, 40656, Note_on_c, 4, 68, 0
7, 40704, Note_on_c, 4, 73, 110
7, 40798, Note_on_c, 4, 73, 0
7, 40800, Note_on_c, 4, 71, 110
7, 40894, Note_on_c, 4, 71, 0
7, 40992, Note_on_c, 4, 68, 110
7, 41424, Note_on_c, 4, 68, 0
7, 41472, Note_on_c, 4, 73, 110
7, 41566, Note_on_c, 4, 73, 0
7, 41568, Note_on_c, 4, 71, 110
7, 41662, Note_on_c, 4, 71, 0
7, 41760, Note_on_c, 4, 68, 110
7, 42192, Note_on_c, 4, 68, 0
7, 42240, Note_on_c, 4, 73, 110
7, 42334, Note_on_c, 4, 73, 0
7, 42336, Note_on_c, 4, 71, 110
7, 42430, Note_on_c, 4, 71, 0
7, 42528, Note_on_c, 4, 68, 110
7, 42960, Note_on_c, 4, 68, 0
7, 43008, Note_on_c, 4, 73, 110
7, 43102, Note_on_c, 4, 73, 0
7, 43104, Note_on_c, 4, 71, 110
7, 43198, Note_on_c, 4, 71, 0
7, 43296, Note_on_c, 4, 68, 110
7, 43728, Note_on_c, 4, 68, 0
7, 43776, Note_on_c, 4, 73, 110
7, 43870, Note_on_c, 4, 73, 0
7, 43872, Note_on_c, 4, 71, 110
7, 43966, Note_on_c, 4, 71, 0
7, 44064, Note_on_c, 4, 68, 110
7, 44496, Note_on_c, 4, 68, 0
7, 44544, Note_on_c, 4, 73, 110
7, 44638, Note_on_c, 4, 73, 0
7, 44640, Note_on_c, 4, 71, 110
7, 44734, Note_on_c, 4, 71, 0
7, 44832, Note_on_c, 4, 68, 110
7, 45264, Note_on_c, 4, 68, 0
7, 45312, Note_on_c, 4, 73, 110
7, 45406, Note_on_c, 4, 73, 0
7, 45408, Note_on_c, 4, 71, 110
7, 45502, Note_on_c, 4, 71, 0
7, 45600, Note_on_c, 4, 68, 110
7, 46032, Note_on_c, 4, 68, 0
7, 46080, Note_on_c, 4, 73, 110
7, 46174, Note_on_c, 4, 73, 0
7, 46176, Note_on_c, 4, 71, 110
7, 46270, Note_on_c, 4, 71, 0
7, 46368, Note_on_c, 4, 68, 110
7, 46800, Note_on_c, 4, 68, 0
7, 46848, Note_on_c, 4, 73, 110
7, 46942, Note_on_c, 4, 73, 0
7, 46944, Note_on_c, 4, 71, 110
7, 47038, Note_on_c, 4, 71, 0
7, 47136, Note_on_c, 4, 68, 110
7, 47568, Note_on_c, 4, 68, 0
7, 47616, Note_on_c, 4, 73, 110
7, 47710, Note_on_c, 4, 73, 0
7, 47712, Note_on_c, 4, 71, 110
7, 47806, Note_on_c, 4, 71, 0
7, 47904, Note_on_c, 4, 68, 110
7, 48336, Note_on_c, 4, 68, 0
7, 48576, Note_on_c, 4, 73, 110
7, 48670, Note_on_c, 4, 73, 0
7, 48672, Note_on_c, 4, 71, 110
7, 48766, Note_on_c, 4, 71, 0
7, 48768, Note_on_c, 4, 73, 110
7, 48862, Note_on_c, 4, 73, 0
7, 48864, Note_on_c, 4, 75, 110
7, 48910, Note_on_c, 4, 75, 0
7, 48912, Note_on_c, 4, 73, 110
7, 48958, Note_on_c, 4, 73, 0
7, 49008, Note_on_c, 4, 73, 110
7, 49054, Note_on_c, 4, 73, 0
7, 49056, Note_on_c, 4, 71, 110
7, 49150, Note_on_c, 4, 71, 0
7, 49152, Note_on_c, 4, 73, 110
7, 49246, Note_on_c, 4, 73, 0
7, 50112, Note_on_c, 4, 73, 110
7, 50206, Note_on_c, 4, 73, 0
7, 50208, Note_on_c, 4, 71, 110
7, 50302, Note_on_c, 4, 71, 0
7, 50304, Note_on_c, 4, 73, 110
7, 50398, Note_on_c, 4, 73, 0
7, 50400, Note_on_c, 4, 75, 110
7, 50446, Note_on_c, 4, 75, 0
7, 50448, Note_on_c, 4, 73, 110
7, 50494, Note_on_c, 4, 73, 0
7, 50544, Note_on_c, 4, 73, 110
7, 50590, Note_on_c, 4, 73, 0
7, 50592, Note_on_c, 4, 71, 110
7, 50686, Note_on_c, 4, 71, 0
7, 50688, Note_on_c, 4, 73, 110
7, 50782, Note_on_c, 4, 73, 0
7, 51456, Note_on_c, 4, 73, 110
7, 52560, Note_on_c, 4, 73, 0
7, 52608, Note_on_c, 4, 71, 110
7, 52702, Note_on_c, 4, 71, 0
7, 52704, Note_on_c, 4, 70, 110
7, 52798, Note_on_c, 4, 70, 0
7, 52896, Note_on_c, 4, 68, 110
7, 54480, Note_on_c, 4, 68, 0
7, 54528, Note_on_c, 4, 73, 110
7, 55632, Note_on_c, 4, 73, 0
7, 55680, Note_on_c, 4, 71, 110
7, 55774, Note_on_c, 4, 71, 0
7, 55776, Note_on_c, 4, 70, 110
7, 55870, Note_on_c, 4, 70, 0
7, 55968, Note_on_c, 4, 68, 110
7, 57552, Note_on_c, 4, 68, 0
7, 57600, Note_on_c, 4, 73, 110
7, 58704, Note_on_c, 4, 73, 0
7, 58752, Note_on_c, 4, 71, 110
7, 58846, Note_on_c, 4, 71, 0
7, 58848, Note_on_c, 4, 70, 110
7, 58942, Note_on_c, 4, 70, 0
7, 59040, Note_on_c, 4, 68, 110
7, 60624, Note_on_c, 4, 68, 0
7, 60672, Note_on_c, 4, 73, 110
7, 61776, Note_on_c, 4, 73, 0
7, 61824, Note_on_c, 4, 71, 110
7, 61918, Note_on_c, 4, 71, 0
7, 61920, Note_on_c, 4, 70, 110
7, 62014, Note_on_c, 4, 70, 0
7, 62112, Note_on_c, 4, 68, 110
7, 63696, Note_on_c, 4, 68, 0
7, 63744, Note_on_c, 4, 73, 110
7, 63790, Note_on_c, 4, 73, 0
7, 63790, End_track
0, 0, End_of_file
