0, 0, Header, 1, 6, 120
1, 0, Start_track
1, 0, Title_t, "untitled"
1, 0, Time_signature, 4, 2, 24, 8
1, 0, Key_signature, 0, "major"
1, 0, Tempo, 666667
1, 39840, Time_signature, 6, 2, 24, 8
1, 40560, Time_signature, 4, 2, 24, 8
1, 40560, End_track
2, 0, Start_track
2, 0, Title_t, "--- LOOKIN UP ----"
2, 0, Program_c, 0, 36
2, 0, Control_c, 0, 7, 100
2, 0, Control_c, 0, 10, 64
2, 1, Control_c, 0, 121, 0
2, 480, Control_c, 0, 93, 20
2, 480, Control_c, 0, 91, 20
2, 480, Control_c, 0, 7, 90
2, 480, Note_on_c, 0, 40, 127
2, 578, Note_on_c, 0, 40, 0
2, 600, Note_on_c, 0, 40, 125
2, 615, Note_on_c, 0, 40, 0
2, 630, Note_on_c, 0, 28, 116
2, 674, Note_on_c, 0, 28, 0
2, 690, Note_on_c, 0, 30, 127
2, 809, Note_on_c, 0, 30, 0
2, 840, Note_on_c, 0, 30, 127
2, 862, Note_on_c, 0, 30, 0
2, 870, Note_on_c, 0, 31, 127
2, 922, Note_on_c, 0, 31, 0
2, 930, Note_on_c, 0, 33, 127
2, 1358, Note_on_c, 0, 33, 0
2, 1440, Note_on_c, 0, 30, 127
2, 1544, Note_on_c, 0, 30, 0
2, 1560, Note_on_c, 0, 30, 127
2, 1575, Note_on_c, 0, 30, 0
2, 1590, Note_on_c, 0, 31, 125
2, 1627, Note_on_c, 0, 31, 0
2, 1650, Note_on_c, 0, 33, 127
2, 1769, Note_on_c, 0, 33, 0
2, 1800, Note_on_c, 0, 33, 125
2, 1822, Note_on_c, 0, 33, 0
2, 1830, Note_on_c, 0, 35, 127
2, 1875, Note_on_c, 0, 35, 0
2, 1890, Note_on_c, 0, 36, 127
2, 2122, Note_on_c, 0, 36, 0
2, 2160, Note_on_c, 0, 28, 127
2, 2370, Note_on_c, 0, 33, 127
2, 2384, Note_on_c, 0, 28, 0
2, 2391, Note_on_c, 0, 33, 0
2, 2430, Note_on_c, 0, 33, 127
2, 2452, Note_on_c, 0, 33, 0
2, 2460, Note_on_c, 0, 32, 127
2, 2490, Note_on_c, 0, 32, 0
2, 2490, Note_on_c, 0, 31, 108
2, 2520, Note_on_c, 0, 31, 0
2, 2550, Note_on_c, 0, 30, 127
2, 2572, Note_on_c, 0, 30, 0
2, 2580, Note_on_c, 0, 29, 110
2, 2610, Note_on_c, 0, 29, 0
2, 2610, Note_on_c, 0, 28, 113
2, 2670, Note_on_c, 0, 30, 125
2, 2677, Note_on_c, 0, 28, 0
2, 2692, Note_on_c, 0, 30, 0
2, 2700, Note_on_c, 0, 31, 110
2, 2722, Note_on_c, 0, 31, 0
2, 2730, Note_on_c, 0, 35, 127
2, 2760, Note_on_c, 0, 35, 0
2, 2760, Note_on_c, 0, 33, 108
2, 2790, Note_on_c, 0, 35, 127
2, 2797, Note_on_c, 0, 33, 0
2, 2820, Note_on_c, 0, 36, 120
2, 2827, Note_on_c, 0, 35, 0
2, 2842, Note_on_c, 0, 36, 0
2, 2850, Note_on_c, 0, 45, 127
2, 2861, Note_on_c, 0, 45, 0
2, 2910, Note_on_c, 0, 33, 127
2, 2932, Note_on_c, 0, 33, 0
2, 2940, Note_on_c, 0, 32, 127
2, 2970, Note_on_c, 0, 32, 0
2, 2970, Note_on_c, 0, 31, 108
2, 3000, Note_on_c, 0, 31, 0
2, 3030, Note_on_c, 0, 30, 127
2, 3052, Note_on_c, 0, 30, 0
2, 3060, Note_on_c, 0, 29, 110
2, 3090, Note_on_c, 0, 29, 0
2, 3090, Note_on_c, 0, 28, 113
2, 3150, Note_on_c, 0, 30, 125
2, 3157, Note_on_c, 0, 28, 0
2, 3172, Note_on_c, 0, 30, 0
2, 3180, Note_on_c, 0, 31, 110
2, 3202, Note_on_c, 0, 31, 0
2, 3210, Note_on_c, 0, 35, 127
2, 3240, Note_on_c, 0, 35, 0
2, 3240, Note_on_c, 0, 33, 108
2, 3270, Note_on_c, 0, 35, 127
2, 3277, Note_on_c, 0, 33, 0
2, 3300, Note_on_c, 0, 36, 120
2, 3307, Note_on_c, 0, 35, 0
2, 3322, Note_on_c, 0, 36, 0
2, 3330, Note_on_c, 0, 45, 127
2, 3341, Note_on_c, 0, 45, 0
2, 3390, Note_on_c, 0, 33, 127
2, 3412, Note_on_c, 0, 33, 0
2, 3420, Note_on_c, 0, 32, 127
2, 3450, Note_on_c, 0, 32, 0
2, 3450, Note_on_c, 0, 31, 108
2, 3480, Note_on_c, 0, 31, 0
2, 3510, Note_on_c, 0, 30, 127
2, 3532, Note_on_c, 0, 30, 0
2, 3540, Note_on_c, 0, 29, 110
2, 3570, Note_on_c, 0, 29, 0
2, 3570, Note_on_c, 0, 28, 113
2, 3630, Note_on_c, 0, 30, 125
2, 3637, Note_on_c, 0, 28, 0
2, 3652, Note_on_c, 0, 30, 0
2, 3660, Note_on_c, 0, 31, 110
2, 3682, Note_on_c, 0, 31, 0
2, 3690, Note_on_c, 0, 35, 127
2, 3720, Note_on_c, 0, 35, 0
2, 3720, Note_on_c, 0, 33, 108
2, 3750, Note_on_c, 0, 35, 127
2, 3757, Note_on_c, 0, 33, 0
2, 3780, Note_on_c, 0, 36, 120
2, 3787, Note_on_c, 0, 35, 0
2, 3802, Note_on_c, 0, 36, 0
2, 3810, Note_on_c, 0, 45, 127
2, 3821, Note_on_c, 0, 45, 0
2, 3870, Note_on_c, 0, 33, 125
2, 3892, Note_on_c, 0, 33, 0
2, 3900, Note_on_c, 0, 32, 96
2, 3930, Note_on_c, 0, 32, 0
2, 3930, Note_on_c, 0, 31, 96
2, 3952, Note_on_c, 0, 31, 0
2, 3990, Note_on_c, 0, 30, 120
2, 4012, Note_on_c, 0, 30, 0
2, 4020, Note_on_c, 0, 29, 120
2, 4042, Note_on_c, 0, 29, 0
2, 4050, Note_on_c, 0, 28, 116
2, 4110, Note_on_c, 0, 28, 0
2, 4110, Note_on_c, 0, 40, 127
2, 4125, Note_on_c, 0, 40, 0
2, 4140, Note_on_c, 0, 30, 125
2, 4170, Note_on_c, 0, 42, 127
2, 4177, Note_on_c, 0, 30, 0
2, 4185, Note_on_c, 0, 42, 0
2, 4200, Note_on_c, 0, 31, 115
2, 4230, Note_on_c, 0, 31, 0
2, 4230, Note_on_c, 0, 43, 127
2, 4252, Note_on_c, 0, 43, 0
2, 4260, Note_on_c, 0, 33, 122
2, 4290, Note_on_c, 0, 33, 0
2, 4290, Note_on_c, 0, 45, 127
2, 4305, Note_on_c, 0, 45, 0
2, 4350, Note_on_c, 0, 33, 127
2, 4372, Note_on_c, 0, 33, 0
2, 4380, Note_on_c, 0, 32, 127
2, 4410, Note_on_c, 0, 32, 0
2, 4410, Note_on_c, 0, 31, 108
2, 4440, Note_on_c, 0, 31, 0
2, 4470, Note_on_c, 0, 30, 127
2, 4492, Note_on_c, 0, 30, 0
2, 4500, Note_on_c, 0, 29, 110
2, 4530, Note_on_c, 0, 29, 0
2, 4530, Note_on_c, 0, 28, 113
2, 4590, Note_on_c, 0, 30, 125
2, 4597, Note_on_c, 0, 28, 0
2, 4612, Note_on_c, 0, 30, 0
2, 4620, Note_on_c, 0, 31, 110
2, 4642, Note_on_c, 0, 31, 0
2, 4650, Note_on_c, 0, 35, 127
2, 4680, Note_on_c, 0, 35, 0
2, 4680, Note_on_c, 0, 33, 108
2, 4710, Note_on_c, 0, 35, 127
2, 4717, Note_on_c, 0, 33, 0
2, 4740, Note_on_c, 0, 36, 120
2, 4747, Note_on_c, 0, 35, 0
2, 4762, Note_on_c, 0, 36, 0
2, 4770, Note_on_c, 0, 45, 127
2, 4781, Note_on_c, 0, 45, 0
2, 4830, Note_on_c, 0, 33, 125
2, 4852, Note_on_c, 0, 33, 0
2, 4860, Note_on_c, 0, 32, 96
2, 4890, Note_on_c, 0, 32, 0
2, 4890, Note_on_c, 0, 31, 96
2, 4912, Note_on_c, 0, 31, 0
2, 4950, Note_on_c, 0, 30, 120
2, 4972, Note_on_c, 0, 30, 0
2, 4980, Note_on_c, 0, 29, 120
2, 5002, Note_on_c, 0, 29, 0
2, 5010, Note_on_c, 0, 28, 116
2, 5070, Note_on_c, 0, 28, 0
2, 5070, Note_on_c, 0, 40, 127
2, 5085, Note_on_c, 0, 40, 0
2, 5100, Note_on_c, 0, 30, 125
2, 5130, Note_on_c, 0, 42, 127
2, 5137, Note_on_c, 0, 30, 0
2, 5145, Note_on_c, 0, 42, 0
2, 5160, Note_on_c, 0, 31, 115
2, 5190, Note_on_c, 0, 31, 0
2, 5190, Note_on_c, 0, 43, 127
2, 5212, Note_on_c, 0, 43, 0
2, 5220, Note_on_c, 0, 33, 122
2, 5250, Note_on_c, 0, 33, 0
2, 5250, Note_on_c, 0, 45, 127
2, 5265, Note_on_c, 0, 45, 0
2, 5310, Note_on_c, 0, 33, 127
2, 5332, Note_on_c, 0, 33, 0
2, 5340, Note_on_c, 0, 32, 127
2, 5370, Note_on_c, 0, 32, 0
2, 5370, Note_on_c, 0, 31, 108
2, 5400, Note_on_c, 0, 31, 0
2, 5430, Note_on_c, 0, 30, 127
2, 5452, Note_on_c, 0, 30, 0
2, 5460, Note_on_c, 0, 29, 110
2, 5490, Note_on_c, 0, 29, 0
2, 5490, Note_on_c, 0, 28, 113
2, 5550, Note_on_c, 0, 30, 125
2, 5557, Note_on_c, 0, 28, 0
2, 5572, Note_on_c, 0, 30, 0
2, 5580, Note_on_c, 0, 31, 110
2, 5602, Note_on_c, 0, 31, 0
2, 5610, Note_on_c, 0, 35, 127
2, 5640, Note_on_c, 0, 35, 0
2, 5640, Note_on_c, 0, 33, 108
2, 5670, Note_on_c, 0, 36, 127
2, 5677, Note_on_c, 0, 33, 0
2, 5700, Note_on_c, 0, 40, 120
2, 5707, Note_on_c, 0, 36, 0
2, 5722, Note_on_c, 0, 40, 0
2, 5730, Note_on_c, 0, 45, 127
2, 5741, Note_on_c, 0, 45, 0
2, 5790, Note_on_c, 0, 33, 127
2, 5812, Note_on_c, 0, 33, 0
2, 5820, Note_on_c, 0, 32, 127
2, 5850, Note_on_c, 0, 32, 0
2, 5850, Note_on_c, 0, 31, 108
2, 5880, Note_on_c, 0, 31, 0
2, 5910, Note_on_c, 0, 30, 127
2, 5932, Note_on_c, 0, 30, 0
2, 5940, Note_on_c, 0, 29, 110
2, 5970, Note_on_c, 0, 29, 0
2, 5970, Note_on_c, 0, 28, 113
2, 6030, Note_on_c, 0, 30, 125
2, 6037, Note_on_c, 0, 28, 0
2, 6052, Note_on_c, 0, 30, 0
2, 6060, Note_on_c, 0, 31, 110
2, 6082, Note_on_c, 0, 31, 0
2, 6090, Note_on_c, 0, 35, 127
2, 6120, Note_on_c, 0, 35, 0
2, 6120, Note_on_c, 0, 33, 108
2, 6150, Note_on_c, 0, 36, 127
2, 6157, Note_on_c, 0, 33, 0
2, 6180, Note_on_c, 0, 40, 120
2, 6187, Note_on_c, 0, 36, 0
2, 6202, Note_on_c, 0, 40, 0
2, 6210, Note_on_c, 0, 45, 127
2, 6221, Note_on_c, 0, 45, 0
2, 6270, Note_on_c, 0, 33, 127
2, 6292, Note_on_c, 0, 33, 0
2, 6300, Note_on_c, 0, 32, 127
2, 6330, Note_on_c, 0, 32, 0
2, 6330, Note_on_c, 0, 31, 108
2, 6360, Note_on_c, 0, 31, 0
2, 6390, Note_on_c, 0, 30, 127
2, 6412, Note_on_c, 0, 30, 0
2, 6420, Note_on_c, 0, 29, 110
2, 6450, Note_on_c, 0, 29, 0
2, 6450, Note_on_c, 0, 28, 113
2, 6510, Note_on_c, 0, 30, 125
2, 6517, Note_on_c, 0, 28, 0
2, 6532, Note_on_c, 0, 30, 0
2, 6540, Note_on_c, 0, 31, 110
2, 6562, Note_on_c, 0, 31, 0
2, 6570, Note_on_c, 0, 35, 127
2, 6600, Note_on_c, 0, 35, 0
2, 6600, Note_on_c, 0, 33, 108
2, 6630, Note_on_c, 0, 36, 120
2, 6637, Note_on_c, 0, 33, 0
2, 6652, Note_on_c, 0, 36, 0
2, 6660, Note_on_c, 0, 40, 120
2, 6682, Note_on_c, 0, 40, 0
2, 6690, Note_on_c, 0, 45, 127
2, 6701, Note_on_c, 0, 45, 0
2, 6750, Note_on_c, 0, 33, 125
2, 6772, Note_on_c, 0, 33, 0
2, 6780, Note_on_c, 0, 32, 96
2, 6810, Note_on_c, 0, 32, 0
2, 6810, Note_on_c, 0, 31, 96
2, 6832, Note_on_c, 0, 31, 0
2, 6870, Note_on_c, 0, 30, 120
2, 6892, Note_on_c, 0, 30, 0
2, 6900, Note_on_c, 0, 29, 120
2, 6922, Note_on_c, 0, 29, 0
2, 6930, Note_on_c, 0, 28, 116
2, 6990, Note_on_c, 0, 28, 0
2, 6990, Note_on_c, 0, 40, 127
2, 7005, Note_on_c, 0, 40, 0
2, 7020, Note_on_c, 0, 30, 125
2, 7050, Note_on_c, 0, 42, 127
2, 7057, Note_on_c, 0, 30, 0
2, 7065, Note_on_c, 0, 42, 0
2, 7080, Note_on_c, 0, 31, 115
2, 7110, Note_on_c, 0, 31, 0
2, 7110, Note_on_c, 0, 43, 127
2, 7132, Note_on_c, 0, 43, 0
2, 7140, Note_on_c, 0, 33, 122
2, 7170, Note_on_c, 0, 33, 0
2, 7170, Note_on_c, 0, 45, 127
2, 7185, Note_on_c, 0, 45, 0
2, 7230, Note_on_c, 0, 33, 127
2, 7252, Note_on_c, 0, 33, 0
2, 7260, Note_on_c, 0, 32, 127
2, 7290, Note_on_c, 0, 32, 0
2, 7290, Note_on_c, 0, 31, 108
2, 7320, Note_on_c, 0, 31, 0
2, 7350, Note_on_c, 0, 30, 127
2, 7372, Note_on_c, 0, 30, 0
2, 7380, Note_on_c, 0, 29, 110
2, 7410, Note_on_c, 0, 29, 0
2, 7410, Note_on_c, 0, 28, 113
2, 7470, Note_on_c, 0, 30, 125
2, 7477, Note_on_c, 0, 28, 0
2, 7492, Note_on_c, 0, 30, 0
2, 7500, Note_on_c, 0, 31, 110
2, 7522, Note_on_c, 0, 31, 0
2, 7530, Note_on_c, 0, 35, 127
2, 7560, Note_on_c, 0, 35, 0
2, 7560, Note_on_c, 0, 33, 108
2, 7590, Note_on_c, 0, 36, 127
2, 7597, Note_on_c, 0, 33, 0
2, 7620, Note_on_c, 0, 40, 120
2, 7627, Note_on_c, 0, 36, 0
2, 7642, Note_on_c, 0, 40, 0
2, 7650, Note_on_c, 0, 45, 127
2, 7661, Note_on_c, 0, 45, 0
2, 7710, Note_on_c, 0, 33, 127
2, 7732, Note_on_c, 0, 33, 0
2, 7740, Note_on_c, 0, 32, 127
2, 7770, Note_on_c, 0, 32, 0
2, 7770, Note_on_c, 0, 31, 108
2, 7800, Note_on_c, 0, 31, 0
2, 7830, Note_on_c, 0, 30, 127
2, 7852, Note_on_c, 0, 30, 0
2, 7860, Note_on_c, 0, 29, 110
2, 7890, Note_on_c, 0, 29, 0
2, 7890, Note_on_c, 0, 28, 113
2, 7950, Note_on_c, 0, 30, 125
2, 7957, Note_on_c, 0, 28, 0
2, 7972, Note_on_c, 0, 30, 0
2, 7980, Note_on_c, 0, 31, 110
2, 8002, Note_on_c, 0, 31, 0
2, 8010, Note_on_c, 0, 35, 127
2, 8040, Note_on_c, 0, 35, 0
2, 8040, Note_on_c, 0, 33, 108
2, 8070, Note_on_c, 0, 36, 127
2, 8077, Note_on_c, 0, 33, 0
2, 8100, Note_on_c, 0, 40, 120
2, 8107, Note_on_c, 0, 36, 0
2, 8122, Note_on_c, 0, 40, 0
2, 8130, Note_on_c, 0, 45, 127
2, 8141, Note_on_c, 0, 45, 0
2, 8190, Note_on_c, 0, 33, 127
2, 8212, Note_on_c, 0, 33, 0
2, 8220, Note_on_c, 0, 32, 127
2, 8250, Note_on_c, 0, 32, 0
2, 8250, Note_on_c, 0, 31, 108
2, 8280, Note_on_c, 0, 31, 0
2, 8310, Note_on_c, 0, 30, 127
2, 8332, Note_on_c, 0, 30, 0
2, 8340, Note_on_c, 0, 29, 110
2, 8370, Note_on_c, 0, 29, 0
2, 8370, Note_on_c, 0, 28, 113
2, 8430, Note_on_c, 0, 30, 125
2, 8437, Note_on_c, 0, 28, 0
2, 8452, Note_on_c, 0, 30, 0
2, 8460, Note_on_c, 0, 31, 110
2, 8482, Note_on_c, 0, 31, 0
2, 8490, Note_on_c, 0, 35, 127
2, 8520, Note_on_c, 0, 35, 0
2, 8520, Note_on_c, 0, 33, 108
2, 8550, Note_on_c, 0, 36, 127
2, 8557, Note_on_c, 0, 33, 0
2, 8580, Note_on_c, 0, 40, 120
2, 8587, Note_on_c, 0, 36, 0
2, 8602, Note_on_c, 0, 40, 0
2, 8610, Note_on_c, 0, 45, 127
2, 8621, Note_on_c, 0, 45, 0
2, 8670, Note_on_c, 0, 33, 127
2, 8700, Note_on_c, 0, 33, 0
2, 8700, Note_on_c, 0, 32, 115
2, 8722, Note_on_c, 0, 32, 0
2, 8730, Note_on_c, 0, 31, 107
2, 8767, Note_on_c, 0, 31, 0
2, 8790, Note_on_c, 0, 30, 127
2, 8820, Note_on_c, 0, 29, 82
2, 8827, Note_on_c, 0, 30, 0
2, 8835, Note_on_c, 0, 29, 0
2, 8850, Note_on_c, 0, 28, 127
2, 8910, Note_on_c, 0, 30, 125
2, 8916, Note_on_c, 0, 28, 0
2, 8932, Note_on_c, 0, 30, 0
2, 8940, Note_on_c, 0, 31, 103
2, 8970, Note_on_c, 0, 32, 110
2, 8971, Note_on_c, 0, 31, 0
2, 8991, Note_on_c, 0, 32, 0
2, 9000, Note_on_c, 0, 33, 108
2, 9023, Note_on_c, 0, 33, 0
2, 9030, Note_on_c, 0, 34, 120
2, 9053, Note_on_c, 0, 34, 0
2, 9060, Note_on_c, 0, 35, 104
2, 9075, Note_on_c, 0, 35, 0
2, 9090, Note_on_c, 0, 40, 127
2, 9112, Note_on_c, 0, 40, 0
2, 9150, Note_on_c, 0, 40, 127
2, 9180, Note_on_c, 0, 37, 115
2, 9195, Note_on_c, 0, 40, 0
2, 9210, Note_on_c, 0, 35, 108
2, 9216, Note_on_c, 0, 37, 0
2, 9239, Note_on_c, 0, 35, 0
2, 9270, Note_on_c, 0, 33, 127
2, 9300, Note_on_c, 0, 31, 85
2, 9307, Note_on_c, 0, 33, 0
2, 9330, Note_on_c, 0, 30, 125
2, 9337, Note_on_c, 0, 31, 0
2, 9381, Note_on_c, 0, 30, 0
2, 9390, Note_on_c, 0, 31, 92
2, 9420, Note_on_c, 0, 31, 0
2, 9420, Note_on_c, 0, 33, 115
2, 9442, Note_on_c, 0, 33, 0
2, 9450, Note_on_c, 0, 35, 107
2, 9480, Note_on_c, 0, 35, 0
2, 9480, Note_on_c, 0, 33, 80
2, 9510, Note_on_c, 0, 35, 113
2, 9517, Note_on_c, 0, 33, 0
2, 9540, Note_on_c, 0, 35, 0
2, 9540, Note_on_c, 0, 40, 127
2, 9555, Note_on_c, 0, 40, 0
2, 9570, Note_on_c, 0, 45, 127
2, 9592, Note_on_c, 0, 45, 0
2, 9630, Note_on_c, 0, 40, 127
2, 9660, Note_on_c, 0, 37, 96
2, 9667, Note_on_c, 0, 40, 0
2, 9690, Note_on_c, 0, 37, 0
2, 9690, Note_on_c, 0, 35, 107
2, 9720, Note_on_c, 0, 35, 0
2, 9750, Note_on_c, 0, 33, 125
2, 9780, Note_on_c, 0, 33, 0
2, 9780, Note_on_c, 0, 31, 116
2, 9810, Note_on_c, 0, 30, 127
2, 9817, Note_on_c, 0, 31, 0
2, 9856, Note_on_c, 0, 30, 0
2, 9870, Note_on_c, 0, 30, 127
2, 9892, Note_on_c, 0, 30, 0
2, 9900, Note_on_c, 0, 31, 80
2, 9930, Note_on_c, 0, 33, 110
2, 9936, Note_on_c, 0, 31, 0
2, 9958, Note_on_c, 0, 33, 0
2, 9960, Note_on_c, 0, 31, 94
2, 9990, Note_on_c, 0, 30, 125
2, 9991, Note_on_c, 0, 31, 0
2, 10012, Note_on_c, 0, 30, 0
2, 10020, Note_on_c, 0, 28, 77
2, 10042, Note_on_c, 0, 28, 0
2, 10050, Note_on_c, 0, 31, 127
2, 10079, Note_on_c, 0, 31, 0
2, 10110, Note_on_c, 0, 31, 127
2, 10140, Note_on_c, 0, 30, 110
2, 10147, Note_on_c, 0, 31, 0
2, 10170, Note_on_c, 0, 30, 0
2, 10170, Note_on_c, 0, 28, 110
2, 10200, Note_on_c, 0, 28, 0
2, 10230, Note_on_c, 0, 35, 122
2, 10260, Note_on_c, 0, 35, 0
2, 10260, Note_on_c, 0, 33, 108
2, 10290, Note_on_c, 0, 33, 0
2, 10290, Note_on_c, 0, 31, 103
2, 10350, Note_on_c, 0, 28, 96
2, 10358, Note_on_c, 0, 31, 0
2, 10380, Note_on_c, 0, 30, 108
2, 10387, Note_on_c, 0, 28, 0
2, 10402, Note_on_c, 0, 30, 0
2, 10410, Note_on_c, 0, 31, 80
2, 10440, Note_on_c, 0, 33, 115
2, 10446, Note_on_c, 0, 31, 0
2, 10470, Note_on_c, 0, 35, 127
2, 10485, Note_on_c, 0, 33, 0
2, 10492, Note_on_c, 0, 35, 0
2, 10500, Note_on_c, 0, 40, 116
2, 10515, Note_on_c, 0, 40, 0
2, 10530, Note_on_c, 0, 47, 127
2, 10552, Note_on_c, 0, 47, 0
2, 10590, Note_on_c, 0, 31, 127
2, 10620, Note_on_c, 0, 30, 115
2, 10627, Note_on_c, 0, 31, 0
2, 10650, Note_on_c, 0, 30, 0
2, 10650, Note_on_c, 0, 28, 115
2, 10688, Note_on_c, 0, 28, 0
2, 10710, Note_on_c, 0, 35, 127
2, 10740, Note_on_c, 0, 35, 0
2, 10740, Note_on_c, 0, 33, 113
2, 10770, Note_on_c, 0, 33, 0
2, 10770, Note_on_c, 0, 31, 113
2, 10830, Note_on_c, 0, 28, 122
2, 10838, Note_on_c, 0, 31, 0
2, 10860, Note_on_c, 0, 30, 120
2, 10866, Note_on_c, 0, 28, 0
2, 10882, Note_on_c, 0, 30, 0
2, 10890, Note_on_c, 0, 31, 94
2, 10918, Note_on_c, 0, 31, 0
2, 10920, Note_on_c, 0, 33, 116
2, 10950, Note_on_c, 0, 31, 80
2, 10951, Note_on_c, 0, 33, 0
2, 10973, Note_on_c, 0, 31, 0
2, 10980, Note_on_c, 0, 33, 122
2, 11002, Note_on_c, 0, 33, 0
2, 11010, Note_on_c, 0, 36, 127
2, 11040, Note_on_c, 0, 36, 0
2, 11070, Note_on_c, 0, 36, 127
2, 11100, Note_on_c, 0, 35, 113
2, 11107, Note_on_c, 0, 36, 0
2, 11130, Note_on_c, 0, 33, 115
2, 11137, Note_on_c, 0, 35, 0
2, 11152, Note_on_c, 0, 33, 0
2, 11190, Note_on_c, 0, 31, 127
2, 11220, Note_on_c, 0, 30, 106
2, 11227, Note_on_c, 0, 31, 0
2, 11250, Note_on_c, 0, 30, 0
2, 11250, Note_on_c, 0, 28, 113
2, 11310, Note_on_c, 0, 28, 0
2, 11310, Note_on_c, 0, 30, 125
2, 11332, Note_on_c, 0, 30, 0
2, 11340, Note_on_c, 0, 31, 108
2, 11370, Note_on_c, 0, 31, 0
2, 11370, Note_on_c, 0, 33, 120
2, 11399, Note_on_c, 0, 33, 0
2, 11400, Note_on_c, 0, 35, 100
2, 11423, Note_on_c, 0, 35, 0
2, 11430, Note_on_c, 0, 36, 125
2, 11460, Note_on_c, 0, 40, 115
2, 11461, Note_on_c, 0, 36, 0
2, 11474, Note_on_c, 0, 40, 0
2, 11490, Note_on_c, 0, 41, 116
2, 11519, Note_on_c, 0, 41, 0
2, 11550, Note_on_c, 0, 41, 127
2, 11580, Note_on_c, 0, 40, 115
2, 11587, Note_on_c, 0, 41, 0
2, 11610, Note_on_c, 0, 40, 0
2, 11610, Note_on_c, 0, 40, 104
2, 11632, Note_on_c, 0, 40, 0
2, 11670, Note_on_c, 0, 36, 125
2, 11700, Note_on_c, 0, 34, 125
2, 11707, Note_on_c, 0, 36, 0
2, 11730, Note_on_c, 0, 34, 0
2, 11730, Note_on_c, 0, 33, 115
2, 11744, Note_on_c, 0, 33, 0
2, 11790, Note_on_c, 0, 46, 127
2, 11812, Note_on_c, 0, 46, 0
2, 11820, Note_on_c, 0, 45, 125
2, 11850, Note_on_c, 0, 43, 107
2, 11851, Note_on_c, 0, 45, 0
2, 11879, Note_on_c, 0, 43, 0
2, 11910, Note_on_c, 0, 41, 120
2, 11940, Note_on_c, 0, 40, 113
2, 11947, Note_on_c, 0, 41, 0
2, 11970, Note_on_c, 0, 45, 120
2, 11971, Note_on_c, 0, 40, 0
2, 11984, Note_on_c, 0, 45, 0
2, 12030, Note_on_c, 0, 33, 125
2, 12052, Note_on_c, 0, 33, 0
2, 12060, Note_on_c, 0, 32, 96
2, 12090, Note_on_c, 0, 32, 0
2, 12090, Note_on_c, 0, 31, 96
2, 12112, Note_on_c, 0, 31, 0
2, 12150, Note_on_c, 0, 30, 120
2, 12172, Note_on_c, 0, 30, 0
2, 12180, Note_on_c, 0, 29, 120
2, 12202, Note_on_c, 0, 29, 0
2, 12210, Note_on_c, 0, 28, 116
2, 12240, Note_on_c, 0, 42, 127
2, 12255, Note_on_c, 0, 42, 0
2, 12270, Note_on_c, 0, 28, 0
2, 12270, Note_on_c, 0, 30, 127
2, 12285, Note_on_c, 0, 30, 0
2, 12300, Note_on_c, 0, 42, 125
2, 12330, Note_on_c, 0, 31, 127
2, 12337, Note_on_c, 0, 42, 0
2, 12345, Note_on_c, 0, 31, 0
2, 12360, Note_on_c, 0, 43, 115
2, 12390, Note_on_c, 0, 43, 0
2, 12390, Note_on_c, 0, 32, 127
2, 12412, Note_on_c, 0, 32, 0
2, 12420, Note_on_c, 0, 44, 122
2, 12450, Note_on_c, 0, 44, 0
2, 12510, Note_on_c, 0, 33, 127
2, 12532, Note_on_c, 0, 33, 0
2, 12540, Note_on_c, 0, 32, 127
2, 12570, Note_on_c, 0, 32, 0
2, 12570, Note_on_c, 0, 31, 108
2, 12600, Note_on_c, 0, 31, 0
2, 12630, Note_on_c, 0, 30, 127
2, 12652, Note_on_c, 0, 30, 0
2, 12660, Note_on_c, 0, 29, 110
2, 12690, Note_on_c, 0, 29, 0
2, 12690, Note_on_c, 0, 28, 113
2, 12750, Note_on_c, 0, 30, 125
2, 12757, Note_on_c, 0, 28, 0
2, 12772, Note_on_c, 0, 30, 0
2, 12780, Note_on_c, 0, 31, 110
2, 12802, Note_on_c, 0, 31, 0
2, 12810, Note_on_c, 0, 35, 127
2, 12840, Note_on_c, 0, 35, 0
2, 12840, Note_on_c, 0, 33, 108
2, 12870, Note_on_c, 0, 36, 127
2, 12877, Note_on_c, 0, 33, 0
2, 12900, Note_on_c, 0, 40, 120
2, 12907, Note_on_c, 0, 36, 0
2, 12922, Note_on_c, 0, 40, 0
2, 12930, Note_on_c, 0, 45, 127
2, 12941, Note_on_c, 0, 45, 0
2, 12990, Note_on_c, 0, 33, 127
2, 13012, Note_on_c, 0, 33, 0
2, 13020, Note_on_c, 0, 32, 127
2, 13050, Note_on_c, 0, 32, 0
2, 13050, Note_on_c, 0, 31, 108
2, 13080, Note_on_c, 0, 31, 0
2, 13110, Note_on_c, 0, 30, 127
2, 13132, Note_on_c, 0, 30, 0
2, 13140, Note_on_c, 0, 29, 110
2, 13170, Note_on_c, 0, 29, 0
2, 13170, Note_on_c, 0, 28, 113
2, 13230, Note_on_c, 0, 30, 125
2, 13237, Note_on_c, 0, 28, 0
2, 13252, Note_on_c, 0, 30, 0
2, 13260, Note_on_c, 0, 31, 110
2, 13282, Note_on_c, 0, 31, 0
2, 13290, Note_on_c, 0, 35, 127
2, 13320, Note_on_c, 0, 35, 0
2, 13320, Note_on_c, 0, 33, 108
2, 13350, Note_on_c, 0, 36, 127
2, 13357, Note_on_c, 0, 33, 0
2, 13380, Note_on_c, 0, 40, 120
2, 13387, Note_on_c, 0, 36, 0
2, 13402, Note_on_c, 0, 40, 0
2, 13410, Note_on_c, 0, 45, 127
2, 13421, Note_on_c, 0, 45, 0
2, 13470, Note_on_c, 0, 33, 127
2, 13492, Note_on_c, 0, 33, 0
2, 13500, Note_on_c, 0, 32, 127
2, 13530, Note_on_c, 0, 32, 0
2, 13530, Note_on_c, 0, 31, 108
2, 13560, Note_on_c, 0, 31, 0
2, 13590, Note_on_c, 0, 30, 127
2, 13612, Note_on_c, 0, 30, 0
2, 13620, Note_on_c, 0, 29, 110
2, 13650, Note_on_c, 0, 29, 0
2, 13650, Note_on_c, 0, 28, 113
2, 13710, Note_on_c, 0, 30, 125
2, 13717, Note_on_c, 0, 28, 0
2, 13732, Note_on_c, 0, 30, 0
2, 13740, Note_on_c, 0, 31, 110
2, 13762, Note_on_c, 0, 31, 0
2, 13770, Note_on_c, 0, 35, 127
2, 13800, Note_on_c, 0, 35, 0
2, 13800, Note_on_c, 0, 33, 108
2, 13830, Note_on_c, 0, 36, 127
2, 13837, Note_on_c, 0, 33, 0
2, 13860, Note_on_c, 0, 40, 120
2, 13867, Note_on_c, 0, 36, 0
2, 13882, Note_on_c, 0, 40, 0
2, 13890, Note_on_c, 0, 45, 127
2, 13901, Note_on_c, 0, 45, 0
2, 13950, Note_on_c, 0, 33, 127
2, 13972, Note_on_c, 0, 33, 0
2, 13980, Note_on_c, 0, 32, 127
2, 14010, Note_on_c, 0, 32, 0
2, 14010, Note_on_c, 0, 31, 108
2, 14040, Note_on_c, 0, 31, 0
2, 14070, Note_on_c, 0, 30, 127
2, 14092, Note_on_c, 0, 30, 0
2, 14100, Note_on_c, 0, 29, 110
2, 14130, Note_on_c, 0, 29, 0
2, 14130, Note_on_c, 0, 28, 113
2, 14190, Note_on_c, 0, 30, 125
2, 14197, Note_on_c, 0, 28, 0
2, 14212, Note_on_c, 0, 30, 0
2, 14220, Note_on_c, 0, 31, 110
2, 14242, Note_on_c, 0, 31, 0
2, 14250, Note_on_c, 0, 35, 127
2, 14280, Note_on_c, 0, 35, 0
2, 14280, Note_on_c, 0, 33, 108
2, 14310, Note_on_c, 0, 36, 127
2, 14317, Note_on_c, 0, 33, 0
2, 14340, Note_on_c, 0, 40, 120
2, 14347, Note_on_c, 0, 36, 0
2, 14362, Note_on_c, 0, 40, 0
2, 14370, Note_on_c, 0, 45, 127
2, 14381, Note_on_c, 0, 45, 0
2, 14430, Note_on_c, 0, 33, 127
2, 14452, Note_on_c, 0, 33, 0
2, 14460, Note_on_c, 0, 32, 127
2, 14490, Note_on_c, 0, 32, 0
2, 14490, Note_on_c, 0, 31, 108
2, 14520, Note_on_c, 0, 31, 0
2, 14550, Note_on_c, 0, 30, 127
2, 14572, Note_on_c, 0, 30, 0
2, 14580, Note_on_c, 0, 29, 110
2, 14610, Note_on_c, 0, 29, 0
2, 14610, Note_on_c, 0, 28, 113
2, 14670, Note_on_c, 0, 30, 125
2, 14677, Note_on_c, 0, 28, 0
2, 14692, Note_on_c, 0, 30, 0
2, 14700, Note_on_c, 0, 31, 110
2, 14722, Note_on_c, 0, 31, 0
2, 14730, Note_on_c, 0, 35, 127
2, 14760, Note_on_c, 0, 35, 0
2, 14760, Note_on_c, 0, 33, 108
2, 14790, Note_on_c, 0, 35, 127
2, 14797, Note_on_c, 0, 33, 0
2, 14820, Note_on_c, 0, 40, 120
2, 14827, Note_on_c, 0, 35, 0
2, 14842, Note_on_c, 0, 40, 0
2, 14850, Note_on_c, 0, 45, 127
2, 14861, Note_on_c, 0, 45, 0
2, 14910, Note_on_c, 0, 33, 127
2, 14932, Note_on_c, 0, 33, 0
2, 14940, Note_on_c, 0, 32, 127
2, 14970, Note_on_c, 0, 32, 0
2, 14970, Note_on_c, 0, 31, 108
2, 15000, Note_on_c, 0, 31, 0
2, 15030, Note_on_c, 0, 30, 127
2, 15052, Note_on_c, 0, 30, 0
2, 15060, Note_on_c, 0, 29, 110
2, 15090, Note_on_c, 0, 29, 0
2, 15090, Note_on_c, 0, 28, 113
2, 15150, Note_on_c, 0, 30, 125
2, 15157, Note_on_c, 0, 28, 0
2, 15172, Note_on_c, 0, 30, 0
2, 15180, Note_on_c, 0, 31, 110
2, 15202, Note_on_c, 0, 31, 0
2, 15210, Note_on_c, 0, 35, 127
2, 15240, Note_on_c, 0, 35, 0
2, 15240, Note_on_c, 0, 33, 108
2, 15270, Note_on_c, 0, 35, 127
2, 15277, Note_on_c, 0, 33, 0
2, 15300, Note_on_c, 0, 40, 120
2, 15307, Note_on_c, 0, 35, 0
2, 15322, Note_on_c, 0, 40, 0
2, 15330, Note_on_c, 0, 45, 127
2, 15341, Note_on_c, 0, 45, 0
2, 15390, Note_on_c, 0, 33, 127
2, 15412, Note_on_c, 0, 33, 0
2, 15420, Note_on_c, 0, 32, 127
2, 15450, Note_on_c, 0, 32, 0
2, 15450, Note_on_c, 0, 31, 108
2, 15480, Note_on_c, 0, 31, 0
2, 15510, Note_on_c, 0, 30, 127
2, 15532, Note_on_c, 0, 30, 0
2, 15540, Note_on_c, 0, 29, 110
2, 15570, Note_on_c, 0, 29, 0
2, 15570, Note_on_c, 0, 28, 113
2, 15630, Note_on_c, 0, 30, 125
2, 15637, Note_on_c, 0, 28, 0
2, 15652, Note_on_c, 0, 30, 0
2, 15660, Note_on_c, 0, 31, 110
2, 15682, Note_on_c, 0, 31, 0
2, 15690, Note_on_c, 0, 35, 127
2, 15720, Note_on_c, 0, 35, 0
2, 15720, Note_on_c, 0, 33, 108
2, 15750, Note_on_c, 0, 36, 127
2, 15757, Note_on_c, 0, 33, 0
2, 15780, Note_on_c, 0, 40, 120
2, 15787, Note_on_c, 0, 36, 0
2, 15802, Note_on_c, 0, 40, 0
2, 15810, Note_on_c, 0, 45, 127
2, 15821, Note_on_c, 0, 45, 0
2, 15870, Note_on_c, 0, 33, 127
2, 15900, Note_on_c, 0, 32, 110
2, 15907, Note_on_c, 0, 33, 0
2, 15930, Note_on_c, 0, 32, 0
2, 15930, Note_on_c, 0, 31, 127
2, 15967, Note_on_c, 0, 31, 0
2, 15990, Note_on_c, 0, 30, 127
2, 16020, Note_on_c, 0, 30, 0
2, 16020, Note_on_c, 0, 29, 104
2, 16034, Note_on_c, 0, 29, 0
2, 16050, Note_on_c, 0, 28, 127
2, 16119, Pitch_bend_c, 0, 7774
2, 16120, Pitch_bend_c, 0, 7549
2, 16122, Pitch_bend_c, 0, 7260
2, 16124, Pitch_bend_c, 0, 6874
2, 16125, Pitch_bend_c, 0, 6489
2, 16126, Pitch_bend_c, 0, 6103
2, 16129, Pitch_bend_c, 0, 5846
2, 16130, Pitch_bend_c, 0, 5525
2, 16131, Pitch_bend_c, 0, 5172
2, 16132, Pitch_bend_c, 0, 4754
2, 16134, Pitch_bend_c, 0, 4079
2, 16136, Pitch_bend_c, 0, 3469
2, 16137, Pitch_bend_c, 0, 2923
2, 16138, Note_on_c, 0, 28, 0
2, 16138, Pitch_bend_c, 0, 2023
2, 16140, Pitch_bend_c, 0, 1188
2, 16142, Pitch_bend_c, 0, 481
2, 16144, Pitch_bend_c, 0, 96
2, 16145, Pitch_bend_c, 0, 0
2, 16166, Pitch_bend_c, 0, 8192
2, 16350, Note_on_c, 0, 33, 127
2, 16372, Note_on_c, 0, 33, 0
2, 16380, Note_on_c, 0, 32, 127
2, 16410, Note_on_c, 0, 32, 0
2, 16410, Note_on_c, 0, 31, 108
2, 16440, Note_on_c, 0, 31, 0
2, 16470, Note_on_c, 0, 30, 127
2, 16492, Note_on_c, 0, 30, 0
2, 16500, Note_on_c, 0, 29, 110
2, 16530, Note_on_c, 0, 29, 0
2, 16530, Note_on_c, 0, 28, 113
2, 16590, Note_on_c, 0, 30, 125
2, 16597, Note_on_c, 0, 28, 0
2, 16612, Note_on_c, 0, 30, 0
2, 16620, Note_on_c, 0, 31, 110
2, 16642, Note_on_c, 0, 31, 0
2, 16650, Note_on_c, 0, 35, 127
2, 16680, Note_on_c, 0, 35, 0
2, 16680, Note_on_c, 0, 33, 108
2, 16710, Note_on_c, 0, 35, 127
2, 16717, Note_on_c, 0, 33, 0
2, 16740, Note_on_c, 0, 40, 120
2, 16747, Note_on_c, 0, 35, 0
2, 16762, Note_on_c, 0, 40, 0
2, 16770, Note_on_c, 0, 45, 127
2, 16781, Note_on_c, 0, 45, 0
2, 16830, Note_on_c, 0, 33, 127
2, 16852, Note_on_c, 0, 33, 0
2, 16860, Note_on_c, 0, 32, 127
2, 16890, Note_on_c, 0, 32, 0
2, 16890, Note_on_c, 0, 31, 108
2, 16920, Note_on_c, 0, 31, 0
2, 16950, Note_on_c, 0, 30, 127
2, 16972, Note_on_c, 0, 30, 0
2, 16980, Note_on_c, 0, 29, 110
2, 17010, Note_on_c, 0, 29, 0
2, 17010, Note_on_c, 0, 28, 113
2, 17070, Note_on_c, 0, 30, 125
2, 17077, Note_on_c, 0, 28, 0
2, 17092, Note_on_c, 0, 30, 0
2, 17100, Note_on_c, 0, 31, 110
2, 17122, Note_on_c, 0, 31, 0
2, 17130, Note_on_c, 0, 35, 127
2, 17160, Note_on_c, 0, 35, 0
2, 17160, Note_on_c, 0, 33, 108
2, 17190, Note_on_c, 0, 35, 127
2, 17197, Note_on_c, 0, 33, 0
2, 17220, Note_on_c, 0, 40, 120
2, 17227, Note_on_c, 0, 35, 0
2, 17242, Note_on_c, 0, 40, 0
2, 17250, Note_on_c, 0, 45, 127
2, 17261, Note_on_c, 0, 45, 0
2, 17310, Note_on_c, 0, 33, 127
2, 17332, Note_on_c, 0, 33, 0
2, 17340, Note_on_c, 0, 32, 127
2, 17370, Note_on_c, 0, 32, 0
2, 17370, Note_on_c, 0, 31, 108
2, 17400, Note_on_c, 0, 31, 0
2, 17430, Note_on_c, 0, 30, 127
2, 17452, Note_on_c, 0, 30, 0
2, 17460, Note_on_c, 0, 29, 110
2, 17490, Note_on_c, 0, 29, 0
2, 17490, Note_on_c, 0, 28, 113
2, 17550, Note_on_c, 0, 30, 125
2, 17557, Note_on_c, 0, 28, 0
2, 17572, Note_on_c, 0, 30, 0
2, 17580, Note_on_c, 0, 31, 110
2, 17602, Note_on_c, 0, 31, 0
2, 17610, Note_on_c, 0, 35, 127
2, 17640, Note_on_c, 0, 35, 0
2, 17640, Note_on_c, 0, 33, 108
2, 17670, Note_on_c, 0, 35, 127
2, 17677, Note_on_c, 0, 33, 0
2, 17700, Note_on_c, 0, 40, 120
2, 17707, Note_on_c, 0, 35, 0
2, 17722, Note_on_c, 0, 40, 0
2, 17730, Note_on_c, 0, 45, 127
2, 17741, Note_on_c, 0, 45, 0
2, 17790, Note_on_c, 0, 33, 125
2, 17812, Note_on_c, 0, 33, 0
2, 17820, Note_on_c, 0, 32, 96
2, 17850, Note_on_c, 0, 32, 0
2, 17850, Note_on_c, 0, 31, 96
2, 17872, Note_on_c, 0, 31, 0
2, 17910, Note_on_c, 0, 30, 120
2, 17932, Note_on_c, 0, 30, 0
2, 17940, Note_on_c, 0, 29, 120
2, 17962, Note_on_c, 0, 29, 0
2, 17970, Note_on_c, 0, 28, 116
2, 18030, Note_on_c, 0, 28, 0
2, 18030, Note_on_c, 0, 40, 127
2, 18045, Note_on_c, 0, 40, 0
2, 18060, Note_on_c, 0, 30, 125
2, 18090, Note_on_c, 0, 42, 127
2, 18097, Note_on_c, 0, 30, 0
2, 18105, Note_on_c, 0, 42, 0
2, 18120, Note_on_c, 0, 31, 115
2, 18150, Note_on_c, 0, 31, 0
2, 18150, Note_on_c, 0, 43, 127
2, 18172, Note_on_c, 0, 43, 0
2, 18180, Note_on_c, 0, 33, 122
2, 18210, Note_on_c, 0, 33, 0
2, 18210, Note_on_c, 0, 45, 127
2, 18225, Note_on_c, 0, 45, 0
2, 18270, Note_on_c, 0, 33, 127
2, 18299, Note_on_c, 0, 33, 0
2, 18300, Note_on_c, 0, 32, 127
2, 18322, Note_on_c, 0, 32, 0
2, 18330, Note_on_c, 0, 31, 104
2, 18366, Note_on_c, 0, 31, 0
2, 18390, Note_on_c, 0, 30, 127
2, 18420, Note_on_c, 0, 29, 71
2, 18427, Note_on_c, 0, 30, 0
2, 18442, Note_on_c, 0, 29, 0
2, 18450, Note_on_c, 0, 28, 115
2, 18501, Note_on_c, 0, 28, 0
2, 18510, Note_on_c, 0, 30, 127
2, 18540, Note_on_c, 0, 30, 0
2, 18540, Note_on_c, 0, 31, 100
2, 18562, Note_on_c, 0, 31, 0
2, 18570, Note_on_c, 0, 35, 127
2, 18600, Note_on_c, 0, 35, 0
2, 18600, Note_on_c, 0, 33, 85
2, 18630, Note_on_c, 0, 35, 127
2, 18644, Note_on_c, 0, 33, 0
2, 18645, Note_on_c, 0, 35, 0
2, 18660, Note_on_c, 0, 40, 127
2, 18681, Note_on_c, 0, 40, 0
2, 18690, Note_on_c, 0, 45, 127
2, 18712, Note_on_c, 0, 45, 0
2, 18750, Note_on_c, 0, 33, 125
2, 18772, Note_on_c, 0, 33, 0
2, 18780, Note_on_c, 0, 32, 96
2, 18810, Note_on_c, 0, 32, 0
2, 18810, Note_on_c, 0, 31, 96
2, 18832, Note_on_c, 0, 31, 0
2, 18870, Note_on_c, 0, 30, 120
2, 18892, Note_on_c, 0, 30, 0
2, 18900, Note_on_c, 0, 29, 120
2, 18922, Note_on_c, 0, 29, 0
2, 18930, Note_on_c, 0, 28, 116
2, 18990, Note_on_c, 0, 28, 0
2, 18990, Note_on_c, 0, 40, 127
2, 19005, Note_on_c, 0, 40, 0
2, 19020, Note_on_c, 0, 30, 125
2, 19050, Note_on_c, 0, 42, 127
2, 19057, Note_on_c, 0, 30, 0
2, 19065, Note_on_c, 0, 42, 0
2, 19080, Note_on_c, 0, 31, 115
2, 19110, Note_on_c, 0, 31, 0
2, 19110, Note_on_c, 0, 43, 127
2, 19132, Note_on_c, 0, 43, 0
2, 19140, Note_on_c, 0, 33, 122
2, 19170, Note_on_c, 0, 33, 0
2, 19170, Note_on_c, 0, 45, 127
2, 19185, Note_on_c, 0, 45, 0
2, 19230, Note_on_c, 0, 33, 127
2, 19259, Note_on_c, 0, 33, 0
2, 19260, Note_on_c, 0, 32, 127
2, 19282, Note_on_c, 0, 32, 0
2, 19290, Note_on_c, 0, 31, 104
2, 19326, Note_on_c, 0, 31, 0
2, 19350, Note_on_c, 0, 30, 127
2, 19380, Note_on_c, 0, 29, 71
2, 19387, Note_on_c, 0, 30, 0
2, 19402, Note_on_c, 0, 29, 0
2, 19410, Note_on_c, 0, 28, 115
2, 19461, Note_on_c, 0, 28, 0
2, 19470, Note_on_c, 0, 30, 127
2, 19500, Note_on_c, 0, 30, 0
2, 19500, Note_on_c, 0, 31, 100
2, 19522, Note_on_c, 0, 31, 0
2, 19530, Note_on_c, 0, 35, 127
2, 19560, Note_on_c, 0, 35, 0
2, 19560, Note_on_c, 0, 33, 85
2, 19590, Note_on_c, 0, 35, 127
2, 19604, Note_on_c, 0, 33, 0
2, 19605, Note_on_c, 0, 35, 0
2, 19620, Note_on_c, 0, 40, 127
2, 19641, Note_on_c, 0, 40, 0
2, 19650, Note_on_c, 0, 45, 127
2, 19672, Note_on_c, 0, 45, 0
2, 19710, Note_on_c, 0, 33, 116
2, 19739, Note_on_c, 0, 33, 0
2, 19740, Note_on_c, 0, 32, 86
2, 19762, Note_on_c, 0, 32, 0
2, 19770, Note_on_c, 0, 31, 103
2, 19806, Note_on_c, 0, 31, 0
2, 19830, Note_on_c, 0, 30, 125
2, 19860, Note_on_c, 0, 29, 115
2, 19867, Note_on_c, 0, 30, 0
2, 19882, Note_on_c, 0, 29, 0
2, 19889, Pitch_bend_c, 0, 0
2, 19890, Note_on_c, 0, 28, 127
2, 19891, Pitch_bend_c, 0, 995
2, 19891, Pitch_bend_c, 0, 2473
2, 19929, Pitch_bend_c, 0, 224
2, 19930, Pitch_bend_c, 0, 2023
2, 19932, Pitch_bend_c, 0, 3437
2, 19934, Pitch_bend_c, 0, 4818
2, 19935, Pitch_bend_c, 0, 6810
2, 19936, Pitch_bend_c, 0, 8192
2, 19950, Note_on_c, 0, 40, 115
2, 19965, Note_on_c, 0, 28, 0
2, 19971, Note_on_c, 0, 40, 0
2, 19980, Note_on_c, 0, 30, 110
2, 20010, Note_on_c, 0, 42, 102
2, 20011, Note_on_c, 0, 30, 0
2, 20024, Note_on_c, 0, 42, 0
2, 20040, Note_on_c, 0, 31, 122
2, 20070, Note_on_c, 0, 31, 0
2, 20070, Note_on_c, 0, 32, 125
2, 20091, Note_on_c, 0, 32, 0
2, 20100, Note_on_c, 0, 33, 91
2, 20114, Note_on_c, 0, 33, 0
2, 20130, Note_on_c, 0, 33, 127
2, 20160, Note_on_c, 0, 33, 0
2, 20190, Note_on_c, 0, 33, 127
2, 20212, Note_on_c, 0, 33, 0
2, 20220, Note_on_c, 0, 32, 127
2, 20250, Note_on_c, 0, 32, 0
2, 20250, Note_on_c, 0, 31, 108
2, 20280, Note_on_c, 0, 31, 0
2, 20310, Note_on_c, 0, 30, 127
2, 20332, Note_on_c, 0, 30, 0
2, 20340, Note_on_c, 0, 29, 110
2, 20370, Note_on_c, 0, 29, 0
2, 20370, Note_on_c, 0, 28, 113
2, 20430, Note_on_c, 0, 30, 125
2, 20437, Note_on_c, 0, 28, 0
2, 20452, Note_on_c, 0, 30, 0
2, 20460, Note_on_c, 0, 31, 110
2, 20482, Note_on_c, 0, 31, 0
2, 20490, Note_on_c, 0, 35, 127
2, 20520, Note_on_c, 0, 35, 0
2, 20520, Note_on_c, 0, 33, 108
2, 20550, Note_on_c, 0, 36, 127
2, 20557, Note_on_c, 0, 33, 0
2, 20580, Note_on_c, 0, 40, 120
2, 20587, Note_on_c, 0, 36, 0
2, 20602, Note_on_c, 0, 40, 0
2, 20610, Note_on_c, 0, 45, 127
2, 20621, Note_on_c, 0, 45, 0
2, 20670, Note_on_c, 0, 33, 127
2, 20692, Note_on_c, 0, 33, 0
2, 20700, Note_on_c, 0, 32, 127
2, 20730, Note_on_c, 0, 32, 0
2, 20730, Note_on_c, 0, 31, 108
2, 20760, Note_on_c, 0, 31, 0
2, 20790, Note_on_c, 0, 30, 127
2, 20812, Note_on_c, 0, 30, 0
2, 20820, Note_on_c, 0, 29, 110
2, 20850, Note_on_c, 0, 29, 0
2, 20850, Note_on_c, 0, 28, 113
2, 20910, Note_on_c, 0, 30, 125
2, 20917, Note_on_c, 0, 28, 0
2, 20932, Note_on_c, 0, 30, 0
2, 20940, Note_on_c, 0, 31, 110
2, 20962, Note_on_c, 0, 31, 0
2, 20970, Note_on_c, 0, 35, 127
2, 21000, Note_on_c, 0, 35, 0
2, 21000, Note_on_c, 0, 33, 108
2, 21030, Note_on_c, 0, 35, 127
2, 21037, Note_on_c, 0, 33, 0
2, 21060, Note_on_c, 0, 40, 120
2, 21067, Note_on_c, 0, 35, 0
2, 21082, Note_on_c, 0, 40, 0
2, 21090, Note_on_c, 0, 45, 127
2, 21101, Note_on_c, 0, 45, 0
2, 21150, Note_on_c, 0, 33, 127
2, 21172, Note_on_c, 0, 33, 0
2, 21180, Note_on_c, 0, 32, 127
2, 21210, Note_on_c, 0, 32, 0
2, 21210, Note_on_c, 0, 31, 108
2, 21240, Note_on_c, 0, 31, 0
2, 21270, Note_on_c, 0, 30, 127
2, 21292, Note_on_c, 0, 30, 0
2, 21300, Note_on_c, 0, 29, 110
2, 21330, Note_on_c, 0, 29, 0
2, 21330, Note_on_c, 0, 28, 113
2, 21390, Note_on_c, 0, 30, 125
2, 21397, Note_on_c, 0, 28, 0
2, 21412, Note_on_c, 0, 30, 0
2, 21420, Note_on_c, 0, 31, 110
2, 21442, Note_on_c, 0, 31, 0
2, 21450, Note_on_c, 0, 35, 127
2, 21480, Note_on_c, 0, 35, 0
2, 21480, Note_on_c, 0, 33, 108
2, 21510, Note_on_c, 0, 36, 127
2, 21517, Note_on_c, 0, 33, 0
2, 21540, Note_on_c, 0, 40, 120
2, 21547, Note_on_c, 0, 36, 0
2, 21562, Note_on_c, 0, 40, 0
2, 21570, Note_on_c, 0, 45, 127
2, 21581, Note_on_c, 0, 45, 0
2, 21630, Note_on_c, 0, 33, 127
2, 21652, Note_on_c, 0, 33, 0
2, 21660, Note_on_c, 0, 32, 127
2, 21690, Note_on_c, 0, 32, 0
2, 21690, Note_on_c, 0, 31, 108
2, 21720, Note_on_c, 0, 31, 0
2, 21750, Note_on_c, 0, 30, 127
2, 21772, Note_on_c, 0, 30, 0
2, 21780, Note_on_c, 0, 29, 110
2, 21810, Note_on_c, 0, 29, 0
2, 21810, Note_on_c, 0, 28, 113
2, 21870, Note_on_c, 0, 30, 125
2, 21877, Note_on_c, 0, 28, 0
2, 21892, Note_on_c, 0, 30, 0
2, 21900, Note_on_c, 0, 31, 110
2, 21922, Note_on_c, 0, 31, 0
2, 21930, Note_on_c, 0, 35, 127
2, 21960, Note_on_c, 0, 35, 0
2, 21960, Note_on_c, 0, 33, 108
2, 21990, Note_on_c, 0, 36, 127
2, 21997, Note_on_c, 0, 33, 0
2, 22020, Note_on_c, 0, 40, 120
2, 22027, Note_on_c, 0, 36, 0
2, 22042, Note_on_c, 0, 40, 0
2, 22050, Note_on_c, 0, 45, 127
2, 22061, Note_on_c, 0, 45, 0
2, 22110, Note_on_c, 0, 33, 127
2, 22132, Note_on_c, 0, 33, 0
2, 22140, Note_on_c, 0, 32, 127
2, 22170, Note_on_c, 0, 32, 0
2, 22170, Note_on_c, 0, 31, 108
2, 22200, Note_on_c, 0, 31, 0
2, 22230, Note_on_c, 0, 30, 127
2, 22252, Note_on_c, 0, 30, 0
2, 22260, Note_on_c, 0, 29, 110
2, 22290, Note_on_c, 0, 29, 0
2, 22290, Note_on_c, 0, 28, 113
2, 22350, Note_on_c, 0, 30, 125
2, 22357, Note_on_c, 0, 28, 0
2, 22372, Note_on_c, 0, 30, 0
2, 22380, Note_on_c, 0, 31, 110
2, 22402, Note_on_c, 0, 31, 0
2, 22410, Note_on_c, 0, 35, 127
2, 22440, Note_on_c, 0, 35, 0
2, 22440, Note_on_c, 0, 33, 108
2, 22470, Note_on_c, 0, 36, 127
2, 22477, Note_on_c, 0, 33, 0
2, 22500, Note_on_c, 0, 40, 120
2, 22507, Note_on_c, 0, 36, 0
2, 22522, Note_on_c, 0, 40, 0
2, 22530, Note_on_c, 0, 45, 127
2, 22541, Note_on_c, 0, 45, 0
2, 22590, Note_on_c, 0, 33, 127
2, 22612, Note_on_c, 0, 33, 0
2, 22620, Note_on_c, 0, 32, 127
2, 22650, Note_on_c, 0, 32, 0
2, 22650, Note_on_c, 0, 31, 108
2, 22680, Note_on_c, 0, 31, 0
2, 22710, Note_on_c, 0, 30, 127
2, 22732, Note_on_c, 0, 30, 0
2, 22740, Note_on_c, 0, 29, 110
2, 22770, Note_on_c, 0, 29, 0
2, 22770, Note_on_c, 0, 28, 113
2, 22830, Note_on_c, 0, 30, 125
2, 22837, Note_on_c, 0, 28, 0
2, 22852, Note_on_c, 0, 30, 0
2, 22860, Note_on_c, 0, 31, 110
2, 22882, Note_on_c, 0, 31, 0
2, 22890, Note_on_c, 0, 35, 127
2, 22920, Note_on_c, 0, 35, 0
2, 22920, Note_on_c, 0, 33, 108
2, 22950, Note_on_c, 0, 35, 127
2, 22957, Note_on_c, 0, 33, 0
2, 22980, Note_on_c, 0, 40, 120
2, 22987, Note_on_c, 0, 35, 0
2, 23002, Note_on_c, 0, 40, 0
2, 23010, Note_on_c, 0, 45, 127
2, 23021, Note_on_c, 0, 45, 0
2, 23070, Note_on_c, 0, 33, 127
2, 23092, Note_on_c, 0, 33, 0
2, 23100, Note_on_c, 0, 32, 127
2, 23130, Note_on_c, 0, 32, 0
2, 23130, Note_on_c, 0, 31, 108
2, 23160, Note_on_c, 0, 31, 0
2, 23190, Note_on_c, 0, 30, 127
2, 23212, Note_on_c, 0, 30, 0
2, 23220, Note_on_c, 0, 29, 110
2, 23250, Note_on_c, 0, 29, 0
2, 23250, Note_on_c, 0, 28, 113
2, 23310, Note_on_c, 0, 30, 125
2, 23317, Note_on_c, 0, 28, 0
2, 23332, Note_on_c, 0, 30, 0
2, 23340, Note_on_c, 0, 31, 110
2, 23362, Note_on_c, 0, 31, 0
2, 23370, Note_on_c, 0, 35, 127
2, 23400, Note_on_c, 0, 35, 0
2, 23400, Note_on_c, 0, 33, 108
2, 23430, Note_on_c, 0, 35, 127
2, 23437, Note_on_c, 0, 33, 0
2, 23460, Note_on_c, 0, 40, 120
2, 23467, Note_on_c, 0, 35, 0
2, 23482, Note_on_c, 0, 40, 0
2, 23490, Note_on_c, 0, 45, 127
2, 23501, Note_on_c, 0, 45, 0
2, 23550, Note_on_c, 0, 33, 120
2, 23580, Note_on_c, 0, 32, 97
2, 23587, Note_on_c, 0, 33, 0
2, 23602, Note_on_c, 0, 32, 0
2, 23610, Note_on_c, 0, 31, 107
2, 23646, Note_on_c, 0, 31, 0
2, 23670, Note_on_c, 0, 30, 127
2, 23700, Note_on_c, 0, 29, 38
2, 23708, Note_on_c, 0, 30, 0
2, 23714, Note_on_c, 0, 29, 0
2, 23730, Note_on_c, 0, 28, 120
2, 23790, Note_on_c, 0, 28, 0
2, 23790, Note_on_c, 0, 30, 110
2, 23819, Note_on_c, 0, 30, 0
2, 23820, Note_on_c, 0, 31, 91
2, 23850, Note_on_c, 0, 32, 102
2, 23851, Note_on_c, 0, 31, 0
2, 23871, Note_on_c, 0, 32, 0
2, 23880, Note_on_c, 0, 33, 104
2, 23910, Note_on_c, 0, 33, 0
2, 23910, Note_on_c, 0, 34, 108
2, 23925, Note_on_c, 0, 34, 0
2, 23940, Note_on_c, 0, 35, 94
2, 23963, Note_on_c, 0, 35, 0
2, 23970, Note_on_c, 0, 40, 127
2, 23992, Note_on_c, 0, 40, 0
2, 24030, Note_on_c, 0, 40, 120
2, 24060, Note_on_c, 0, 37, 108
2, 24068, Note_on_c, 0, 40, 0
2, 24090, Note_on_c, 0, 37, 0
2, 24090, Note_on_c, 0, 35, 110
2, 24120, Note_on_c, 0, 35, 0
2, 24150, Note_on_c, 0, 35, 125
2, 24171, Note_on_c, 0, 35, 0
2, 24180, Note_on_c, 0, 33, 62
2, 24210, Note_on_c, 0, 31, 104
2, 24232, Note_on_c, 0, 33, 0
2, 24270, Note_on_c, 0, 30, 92
2, 24276, Note_on_c, 0, 31, 0
2, 24291, Note_on_c, 0, 30, 0
2, 24300, Note_on_c, 0, 31, 82
2, 24330, Note_on_c, 0, 35, 82
2, 24331, Note_on_c, 0, 31, 0
2, 24359, Note_on_c, 0, 35, 0
2, 24360, Note_on_c, 0, 33, 91
2, 24390, Note_on_c, 0, 35, 85
2, 24397, Note_on_c, 0, 33, 0
2, 24420, Note_on_c, 0, 40, 103
2, 24427, Note_on_c, 0, 35, 0
2, 24434, Note_on_c, 0, 40, 0
2, 24450, Note_on_c, 0, 45, 127
2, 24468, Note_on_c, 0, 45, 0
2, 24510, Note_on_c, 0, 40, 116
2, 24540, Note_on_c, 0, 37, 91
2, 24541, Note_on_c, 0, 40, 0
2, 24570, Note_on_c, 0, 35, 86
2, 24576, Note_on_c, 0, 37, 0
2, 24592, Note_on_c, 0, 35, 0
2, 24630, Note_on_c, 0, 35, 122
2, 24660, Note_on_c, 0, 33, 100
2, 24667, Note_on_c, 0, 35, 0
2, 24683, Note_on_c, 0, 33, 0
2, 24690, Note_on_c, 0, 31, 104
2, 24736, Note_on_c, 0, 31, 0
2, 24750, Note_on_c, 0, 30, 91
2, 24780, Note_on_c, 0, 30, 0
2, 24780, Note_on_c, 0, 28, 86
2, 24802, Note_on_c, 0, 28, 0
2, 24810, Note_on_c, 0, 30, 106
2, 24831, Note_on_c, 0, 30, 0
2, 24840, Note_on_c, 0, 31, 91
2, 24870, Note_on_c, 0, 33, 110
2, 24871, Note_on_c, 0, 31, 0
2, 24899, Note_on_c, 0, 33, 0
2, 24900, Note_on_c, 0, 31, 74
2, 24922, Note_on_c, 0, 31, 0
2, 24930, Note_on_c, 0, 31, 110
2, 24951, Note_on_c, 0, 31, 0
2, 24990, Note_on_c, 0, 31, 125
2, 25020, Note_on_c, 0, 30, 108
2, 25027, Note_on_c, 0, 31, 0
2, 25049, Note_on_c, 0, 30, 0
2, 25050, Note_on_c, 0, 28, 96
2, 25088, Note_on_c, 0, 28, 0
2, 25110, Note_on_c, 0, 35, 127
2, 25140, Note_on_c, 0, 33, 98
2, 25147, Note_on_c, 0, 35, 0
2, 25170, Note_on_c, 0, 33, 0
2, 25170, Note_on_c, 0, 31, 103
2, 25230, Note_on_c, 0, 28, 116
2, 25236, Note_on_c, 0, 31, 0
2, 25260, Note_on_c, 0, 28, 0
2, 25260, Note_on_c, 0, 30, 110
2, 25282, Note_on_c, 0, 30, 0
2, 25290, Note_on_c, 0, 31, 74
2, 25312, Note_on_c, 0, 31, 0
2, 25320, Note_on_c, 0, 33, 91
2, 25350, Note_on_c, 0, 35, 110
2, 25358, Note_on_c, 0, 33, 0
2, 25371, Note_on_c, 0, 35, 0
2, 25380, Note_on_c, 0, 40, 122
2, 25402, Note_on_c, 0, 40, 0
2, 25410, Note_on_c, 0, 47, 127
2, 25440, Note_on_c, 0, 47, 0
2, 25470, Note_on_c, 0, 33, 115
2, 25500, Note_on_c, 0, 32, 108
2, 25508, Note_on_c, 0, 33, 0
2, 25529, Note_on_c, 0, 32, 0
2, 25530, Note_on_c, 0, 31, 92
2, 25568, Note_on_c, 0, 31, 0
2, 25590, Note_on_c, 0, 30, 127
2, 25620, Note_on_c, 0, 29, 80
2, 25627, Note_on_c, 0, 30, 0
2, 25641, Note_on_c, 0, 29, 0
2, 25650, Note_on_c, 0, 28, 108
2, 25710, Note_on_c, 0, 30, 102
2, 25718, Note_on_c, 0, 28, 0
2, 25740, Note_on_c, 0, 30, 0
2, 25740, Note_on_c, 0, 31, 90
2, 25762, Note_on_c, 0, 31, 0
2, 25770, Note_on_c, 0, 33, 125
2, 25799, Note_on_c, 0, 33, 0
2, 25800, Note_on_c, 0, 30, 82
2, 25830, Note_on_c, 0, 31, 97
2, 25831, Note_on_c, 0, 30, 0
2, 25860, Note_on_c, 0, 33, 97
2, 25866, Note_on_c, 0, 31, 0
2, 25890, Note_on_c, 0, 36, 127
2, 25896, Note_on_c, 0, 33, 0
2, 25919, Note_on_c, 0, 36, 0
2, 25950, Note_on_c, 0, 36, 122
2, 25980, Note_on_c, 0, 35, 98
2, 25994, Note_on_c, 0, 36, 0
2, 26010, Note_on_c, 0, 33, 127
2, 26024, Note_on_c, 0, 35, 0
2, 26033, Note_on_c, 0, 33, 0
2, 26070, Note_on_c, 0, 31, 127
2, 26100, Note_on_c, 0, 30, 71
2, 26115, Note_on_c, 0, 31, 0
2, 26129, Note_on_c, 0, 30, 0
2, 26130, Note_on_c, 0, 28, 115
2, 26190, Note_on_c, 0, 30, 120
2, 26191, Note_on_c, 0, 28, 0
2, 26212, Note_on_c, 0, 30, 0
2, 26220, Note_on_c, 0, 31, 107
2, 26250, Note_on_c, 0, 31, 0
2, 26250, Note_on_c, 0, 33, 120
2, 26279, Note_on_c, 0, 33, 0
2, 26280, Note_on_c, 0, 35, 101
2, 26302, Note_on_c, 0, 35, 0
2, 26310, Note_on_c, 0, 36, 107
2, 26332, Note_on_c, 0, 36, 0
2, 26340, Note_on_c, 0, 40, 120
2, 26361, Note_on_c, 0, 40, 0
2, 26370, Note_on_c, 0, 41, 127
2, 26392, Note_on_c, 0, 41, 0
2, 26430, Note_on_c, 0, 41, 127
2, 26460, Note_on_c, 0, 40, 104
2, 26467, Note_on_c, 0, 41, 0
2, 26490, Note_on_c, 0, 40, 86
2, 26497, Note_on_c, 0, 40, 0
2, 26520, Note_on_c, 0, 40, 0
2, 26550, Note_on_c, 0, 36, 120
2, 26580, Note_on_c, 0, 34, 110
2, 26587, Note_on_c, 0, 36, 0
2, 26610, Note_on_c, 0, 34, 0
2, 26610, Note_on_c, 0, 33, 116
2, 26631, Note_on_c, 0, 33, 0
2, 26670, Note_on_c, 0, 46, 127
2, 26692, Note_on_c, 0, 46, 0
2, 26700, Note_on_c, 0, 45, 116
2, 26730, Note_on_c, 0, 45, 0
2, 26730, Note_on_c, 0, 43, 88
2, 26767, Note_on_c, 0, 43, 0
2, 26790, Note_on_c, 0, 41, 127
2, 26819, Note_on_c, 0, 41, 0
2, 26820, Note_on_c, 0, 40, 88
2, 26835, Note_on_c, 0, 40, 0
2, 26850, Note_on_c, 0, 33, 127
2, 27262, Note_on_c, 0, 33, 0
2, 27270, Note_on_c, 0, 33, 122
2, 27293, Note_on_c, 0, 33, 0
2, 27330, Note_on_c, 0, 40, 127
2, 27457, Note_on_c, 0, 40, 0
2, 27480, Note_on_c, 0, 40, 115
2, 27501, Note_on_c, 0, 40, 0
2, 27510, Note_on_c, 0, 40, 127
2, 27533, Note_on_c, 0, 40, 0
2, 27570, Note_on_c, 0, 42, 127
2, 27696, Note_on_c, 0, 42, 0
2, 27720, Note_on_c, 0, 30, 127
2, 27727, Note_on_c, 0, 30, 0
2, 27750, Note_on_c, 0, 31, 127
2, 27772, Note_on_c, 0, 31, 0
2, 27810, Note_on_c, 0, 33, 127
2, 28035, Note_on_c, 0, 33, 0
2, 28050, Note_on_c, 0, 35, 127
2, 28064, Note_on_c, 0, 35, 0
2, 28110, Note_on_c, 0, 35, 127
2, 28140, Note_on_c, 0, 35, 0
2, 28170, Note_on_c, 0, 39, 127
2, 28192, Note_on_c, 0, 39, 0
2, 28230, Note_on_c, 0, 39, 127
2, 28266, Note_on_c, 0, 39, 0
2, 28290, Note_on_c, 0, 40, 127
2, 28424, Note_on_c, 0, 40, 0
2, 28440, Note_on_c, 0, 40, 127
2, 28454, Note_on_c, 0, 40, 0
2, 28470, Note_on_c, 0, 42, 127
2, 28500, Note_on_c, 0, 42, 0
2, 28530, Note_on_c, 0, 43, 127
2, 28671, Note_on_c, 0, 43, 0
2, 28680, Note_on_c, 0, 31, 122
2, 28695, Note_on_c, 0, 31, 0
2, 28710, Note_on_c, 0, 33, 127
2, 28740, Note_on_c, 0, 33, 0
2, 28770, Note_on_c, 0, 35, 127
2, 29002, Note_on_c, 0, 35, 0
2, 29010, Note_on_c, 0, 36, 127
2, 29032, Note_on_c, 0, 36, 0
2, 29070, Note_on_c, 0, 36, 127
2, 29092, Note_on_c, 0, 36, 0
2, 29130, Note_on_c, 0, 40, 127
2, 29152, Note_on_c, 0, 40, 0
2, 29190, Note_on_c, 0, 40, 127
2, 29213, Note_on_c, 0, 40, 0
2, 29250, Note_on_c, 0, 41, 127
2, 29414, Note_on_c, 0, 41, 0
2, 29430, Note_on_c, 0, 41, 116
2, 29452, Note_on_c, 0, 41, 0
2, 29460, Note_on_c, 0, 43, 116
2, 29475, Note_on_c, 0, 43, 0
2, 29490, Note_on_c, 0, 47, 127
2, 29655, Note_on_c, 0, 47, 0
2, 29670, Note_on_c, 0, 41, 125
2, 29691, Note_on_c, 0, 41, 0
2, 29700, Note_on_c, 0, 47, 125
2, 29722, Note_on_c, 0, 47, 0
2, 29730, Note_on_c, 0, 46, 127
2, 29887, Note_on_c, 0, 46, 0
2, 29910, Note_on_c, 0, 41, 127
2, 29932, Note_on_c, 0, 41, 0
2, 29940, Note_on_c, 0, 40, 120
2, 29962, Note_on_c, 0, 40, 0
2, 29970, Note_on_c, 0, 39, 127
2, 30134, Note_on_c, 0, 39, 0
2, 30150, Note_on_c, 0, 31, 107
2, 30180, Note_on_c, 0, 32, 127
2, 30188, Note_on_c, 0, 31, 0
2, 30194, Note_on_c, 0, 32, 0
2, 30210, Note_on_c, 0, 33, 127
2, 30389, Note_on_c, 0, 33, 0
2, 30390, Note_on_c, 0, 36, 120
2, 30405, Note_on_c, 0, 36, 0
2, 30420, Note_on_c, 0, 37, 125
2, 30435, Note_on_c, 0, 37, 0
2, 30450, Note_on_c, 0, 40, 127
2, 30621, Note_on_c, 0, 40, 0
2, 30630, Note_on_c, 0, 40, 108
2, 30645, Note_on_c, 0, 40, 0
2, 30690, Note_on_c, 0, 33, 127
2, 30712, Note_on_c, 0, 33, 0
2, 30750, Note_on_c, 0, 33, 127
2, 30780, Note_on_c, 0, 33, 0
2, 30780, Note_on_c, 0, 32, 120
2, 30795, Note_on_c, 0, 32, 0
2, 30810, Note_on_c, 0, 31, 122
2, 30832, Note_on_c, 0, 31, 0
2, 30870, Note_on_c, 0, 31, 120
2, 30900, Note_on_c, 0, 30, 125
2, 30907, Note_on_c, 0, 31, 0
2, 30930, Note_on_c, 0, 30, 0
2, 30930, Note_on_c, 0, 29, 98
2, 30952, Note_on_c, 0, 29, 0
2, 30960, Note_on_c, 0, 28, 82
2, 30990, Note_on_c, 0, 28, 0
2, 30990, Note_on_c, 0, 30, 125
2, 31012, Note_on_c, 0, 30, 0
2, 31020, Note_on_c, 0, 31, 94
2, 31042, Note_on_c, 0, 31, 0
2, 31050, Note_on_c, 0, 35, 122
2, 31065, Note_on_c, 0, 35, 0
2, 31110, Note_on_c, 0, 33, 127
2, 31132, Note_on_c, 0, 33, 0
2, 31170, Note_on_c, 0, 40, 127
2, 31298, Note_on_c, 0, 40, 0
2, 31320, Note_on_c, 0, 40, 127
2, 31342, Note_on_c, 0, 40, 0
2, 31350, Note_on_c, 0, 40, 127
2, 31381, Note_on_c, 0, 40, 0
2, 31410, Note_on_c, 0, 42, 122
2, 31544, Note_on_c, 0, 42, 0
2, 31560, Note_on_c, 0, 30, 125
2, 31575, Note_on_c, 0, 30, 0
2, 31590, Note_on_c, 0, 31, 125
2, 31612, Note_on_c, 0, 31, 0
2, 31650, Note_on_c, 0, 33, 127
2, 31890, Note_on_c, 0, 35, 127
2, 31891, Note_on_c, 0, 33, 0
2, 31920, Note_on_c, 0, 35, 0
2, 31950, Note_on_c, 0, 35, 125
2, 31979, Note_on_c, 0, 35, 0
2, 32010, Note_on_c, 0, 39, 127
2, 32033, Note_on_c, 0, 39, 0
2, 32070, Note_on_c, 0, 39, 127
2, 32093, Note_on_c, 0, 39, 0
2, 32130, Note_on_c, 0, 40, 127
2, 32265, Note_on_c, 0, 40, 0
2, 32280, Note_on_c, 0, 28, 127
2, 32301, Note_on_c, 0, 28, 0
2, 32310, Note_on_c, 0, 30, 127
2, 32346, Note_on_c, 0, 30, 0
2, 32370, Note_on_c, 0, 31, 127
2, 32496, Note_on_c, 0, 31, 0
2, 32520, Note_on_c, 0, 31, 120
2, 32542, Note_on_c, 0, 31, 0
2, 32550, Note_on_c, 0, 33, 127
2, 32587, Note_on_c, 0, 33, 0
2, 32610, Note_on_c, 0, 35, 127
2, 32835, Note_on_c, 0, 35, 0
2, 32850, Note_on_c, 0, 36, 127
2, 32871, Note_on_c, 0, 36, 0
2, 32910, Note_on_c, 0, 36, 127
2, 32946, Note_on_c, 0, 36, 0
2, 32970, Note_on_c, 0, 28, 127
2, 33006, Note_on_c, 0, 28, 0
2, 33030, Note_on_c, 0, 28, 127
2, 33068, Note_on_c, 0, 28, 0
2, 33090, Note_on_c, 0, 29, 127
2, 33247, Note_on_c, 0, 29, 0
2, 33270, Note_on_c, 0, 29, 115
2, 33300, Note_on_c, 0, 29, 0
2, 33300, Note_on_c, 0, 34, 91
2, 33307, Note_on_c, 0, 34, 0
2, 33330, Note_on_c, 0, 35, 127
2, 33495, Note_on_c, 0, 35, 0
2, 33510, Note_on_c, 0, 35, 108
2, 33554, Note_on_c, 0, 35, 0
2, 33570, Note_on_c, 0, 34, 127
2, 33742, Note_on_c, 0, 34, 0
2, 33750, Note_on_c, 0, 37, 127
2, 33764, Note_on_c, 0, 37, 0
2, 33780, Note_on_c, 0, 40, 100
2, 33795, Note_on_c, 0, 40, 0
2, 33810, Note_on_c, 0, 39, 127
2, 33981, Note_on_c, 0, 39, 0
2, 33990, Note_on_c, 0, 31, 101
2, 34013, Note_on_c, 0, 31, 0
2, 34020, Note_on_c, 0, 32, 120
2, 34043, Note_on_c, 0, 32, 0
2, 34050, Note_on_c, 0, 33, 125
2, 34229, Note_on_c, 0, 33, 0
2, 34230, Note_on_c, 0, 32, 108
2, 34245, Note_on_c, 0, 32, 0
2, 34260, Note_on_c, 0, 31, 120
2, 34275, Note_on_c, 0, 31, 0
2, 34290, Note_on_c, 0, 30, 127
2, 34463, Note_on_c, 0, 30, 0
2, 34470, Note_on_c, 0, 30, 110
2, 34492, Note_on_c, 0, 30, 0
2, 34530, Note_on_c, 0, 30, 110
2, 34538, Note_on_c, 0, 30, 0
2, 34560, Note_on_c, 0, 31, 127
2, 34627, Note_on_c, 0, 31, 0
2, 34650, Note_on_c, 0, 34, 127
2, 34672, Note_on_c, 0, 34, 0
2, 34710, Note_on_c, 0, 35, 127
2, 34731, Note_on_c, 0, 35, 0
2, 34770, Note_on_c, 0, 36, 127
2, 34829, Note_on_c, 0, 36, 0
2, 34830, Note_on_c, 0, 31, 74
2, 34837, Note_on_c, 0, 31, 0
2, 34860, Note_on_c, 0, 31, 94
2, 34867, Note_on_c, 0, 31, 0
2, 34890, Note_on_c, 0, 31, 116
2, 34905, Note_on_c, 0, 31, 0
2, 34920, Note_on_c, 0, 31, 115
2, 34927, Note_on_c, 0, 31, 0
2, 34950, Note_on_c, 0, 31, 91
2, 34973, Note_on_c, 0, 31, 0
2, 34980, Note_on_c, 0, 30, 127
2, 35025, Note_on_c, 0, 30, 0
2, 35040, Note_on_c, 0, 29, 127
2, 35100, Note_on_c, 0, 29, 0
2, 35100, Note_on_c, 0, 41, 127
2, 35151, Note_on_c, 0, 41, 0
2, 35160, Note_on_c, 0, 29, 103
2, 35190, Note_on_c, 0, 29, 0
2, 35190, Note_on_c, 0, 41, 127
2, 35220, Note_on_c, 0, 34, 100
2, 35227, Note_on_c, 0, 41, 0
2, 35235, Note_on_c, 0, 34, 0
2, 35250, Note_on_c, 0, 35, 127
2, 35302, Note_on_c, 0, 35, 0
2, 35310, Note_on_c, 0, 47, 127
2, 35370, Note_on_c, 0, 35, 116
2, 35371, Note_on_c, 0, 47, 0
2, 35392, Note_on_c, 0, 35, 0
2, 35400, Note_on_c, 0, 47, 127
2, 35445, Note_on_c, 0, 47, 0
2, 35460, Note_on_c, 0, 35, 110
2, 35474, Note_on_c, 0, 35, 0
2, 35490, Note_on_c, 0, 33, 92
2, 35497, Note_on_c, 0, 33, 0
2, 35520, Note_on_c, 0, 34, 127
2, 35580, Note_on_c, 0, 34, 0
2, 35580, Note_on_c, 0, 46, 127
2, 35631, Note_on_c, 0, 46, 0
2, 35640, Note_on_c, 0, 34, 120
2, 35670, Note_on_c, 0, 46, 100
2, 35671, Note_on_c, 0, 34, 0
2, 35699, Note_on_c, 0, 46, 0
2, 35700, Note_on_c, 0, 34, 106
2, 35708, Note_on_c, 0, 34, 0
2, 35730, Note_on_c, 0, 39, 127
2, 35790, Note_on_c, 0, 39, 0
2, 35790, Note_on_c, 0, 51, 127
2, 35842, Note_on_c, 0, 51, 0
2, 35850, Note_on_c, 0, 39, 102
2, 35880, Note_on_c, 0, 51, 127
2, 35887, Note_on_c, 0, 39, 0
2, 35940, Note_on_c, 0, 51, 0
2, 35940, Note_on_c, 0, 39, 125
2, 35947, Note_on_c, 0, 39, 0
2, 35970, Note_on_c, 0, 31, 127
2, 35975, Note_on_c, 0, 31, 0
2, 36000, Note_on_c, 0, 33, 127
2, 36060, Note_on_c, 0, 33, 0
2, 36060, Note_on_c, 0, 45, 127
2, 36113, Note_on_c, 0, 45, 0
2, 36120, Note_on_c, 0, 33, 101
2, 36150, Note_on_c, 0, 33, 0
2, 36150, Note_on_c, 0, 32, 120
2, 36165, Note_on_c, 0, 32, 0
2, 36180, Note_on_c, 0, 31, 125
2, 36196, Note_on_c, 0, 31, 0
2, 36210, Note_on_c, 0, 30, 120
2, 36270, Note_on_c, 0, 30, 0
2, 36270, Note_on_c, 0, 42, 127
2, 36321, Note_on_c, 0, 42, 0
2, 36330, Note_on_c, 0, 30, 110
2, 36351, Note_on_c, 0, 30, 0
2, 36360, Note_on_c, 0, 42, 127
2, 36420, Note_on_c, 0, 30, 106
2, 36421, Note_on_c, 0, 42, 0
2, 36471, Note_on_c, 0, 30, 0
2, 36480, Note_on_c, 0, 31, 127
2, 36532, Note_on_c, 0, 31, 0
2, 36540, Note_on_c, 0, 43, 127
2, 36592, Note_on_c, 0, 43, 0
2, 36600, Note_on_c, 0, 31, 127
2, 36630, Note_on_c, 0, 34, 120
2, 36645, Note_on_c, 0, 31, 0
2, 36660, Note_on_c, 0, 34, 0
2, 36690, Note_on_c, 0, 36, 127
2, 36750, Note_on_c, 0, 48, 127
2, 36757, Note_on_c, 0, 36, 0
2, 36810, Note_on_c, 0, 48, 0
2, 36810, Note_on_c, 0, 36, 98
2, 36840, Note_on_c, 0, 36, 0
2, 36840, Note_on_c, 0, 48, 127
2, 36870, Note_on_c, 0, 48, 0
2, 36870, Note_on_c, 0, 36, 113
2, 36885, Note_on_c, 0, 36, 0
2, 36900, Note_on_c, 0, 31, 127
2, 36930, Note_on_c, 0, 30, 58
2, 36931, Note_on_c, 0, 31, 0
2, 36944, Note_on_c, 0, 30, 0
2, 36960, Note_on_c, 0, 29, 125
2, 37020, Note_on_c, 0, 29, 0
2, 37020, Note_on_c, 0, 41, 127
2, 37080, Note_on_c, 0, 29, 115
2, 37081, Note_on_c, 0, 41, 0
2, 37109, Note_on_c, 0, 29, 0
2, 37110, Note_on_c, 0, 41, 115
2, 37140, Note_on_c, 0, 34, 125
2, 37141, Note_on_c, 0, 41, 0
2, 37154, Note_on_c, 0, 34, 0
2, 37170, Note_on_c, 0, 35, 127
2, 37221, Note_on_c, 0, 35, 0
2, 37230, Note_on_c, 0, 47, 127
2, 37252, Note_on_c, 0, 47, 0
2, 37289, Pitch_bend_c, 0, 4176
2, 37290, Note_on_c, 0, 35, 127
2, 37291, Pitch_bend_c, 0, 3662
2, 37291, Pitch_bend_c, 0, 3887
2, 37294, Pitch_bend_c, 0, 3565
2, 37296, Pitch_bend_c, 0, 3533
2, 37297, Pitch_bend_c, 0, 3565
2, 37299, Pitch_bend_c, 0, 3630
2, 37301, Pitch_bend_c, 0, 3790
2, 37302, Pitch_bend_c, 0, 4015
2, 37304, Pitch_bend_c, 0, 4144
2, 37305, Pitch_bend_c, 0, 4272
2, 37307, Pitch_bend_c, 0, 4465
2, 37308, Pitch_bend_c, 0, 4561
2, 37310, Pitch_bend_c, 0, 4754
2, 37311, Pitch_bend_c, 0, 4915
2, 37314, Pitch_bend_c, 0, 5107
2, 37315, Pitch_bend_c, 0, 5268
2, 37316, Pitch_bend_c, 0, 5557
2, 37317, Pitch_bend_c, 0, 5911
2, 37319, Pitch_bend_c, 0, 6328
2, 37321, Pitch_bend_c, 0, 6714
2, 37324, Pitch_bend_c, 0, 7677
2, 37324, Pitch_bend_c, 0, 7099
2, 37325, Pitch_bend_c, 0, 8192
2, 37350, Note_on_c, 0, 35, 0
2, 37350, Note_on_c, 0, 47, 127
2, 37356, Note_on_c, 0, 47, 0
2, 37380, Note_on_c, 0, 35, 100
2, 37402, Note_on_c, 0, 35, 0
2, 37410, Note_on_c, 0, 47, 127
2, 37437, Note_on_c, 0, 47, 0
2, 37440, Note_on_c, 0, 34, 127
2, 37500, Note_on_c, 0, 46, 127
2, 37506, Note_on_c, 0, 34, 0
2, 37560, Note_on_c, 0, 46, 0
2, 37560, Note_on_c, 0, 34, 115
2, 37583, Note_on_c, 0, 34, 0
2, 37590, Note_on_c, 0, 37, 115
2, 37605, Note_on_c, 0, 37, 0
2, 37620, Note_on_c, 0, 40, 127
2, 37635, Note_on_c, 0, 40, 0
2, 37650, Note_on_c, 0, 39, 127
2, 37710, Note_on_c, 0, 51, 127
2, 37716, Note_on_c, 0, 39, 0
2, 37762, Note_on_c, 0, 51, 0
2, 37770, Note_on_c, 0, 39, 110
2, 37800, Note_on_c, 0, 39, 0
2, 37800, Note_on_c, 0, 51, 127
2, 37860, Note_on_c, 0, 51, 0
2, 37860, Note_on_c, 0, 39, 108
2, 37867, Note_on_c, 0, 39, 0
2, 37890, Note_on_c, 0, 32, 127
2, 37913, Note_on_c, 0, 32, 0
2, 37920, Note_on_c, 0, 33, 108
2, 37950, Note_on_c, 0, 45, 127
2, 37956, Note_on_c, 0, 33, 0
2, 38002, Note_on_c, 0, 45, 0
2, 38010, Note_on_c, 0, 33, 113
2, 38032, Note_on_c, 0, 33, 0
2, 38040, Note_on_c, 0, 45, 127
2, 38100, Note_on_c, 0, 45, 0
2, 38100, Note_on_c, 0, 31, 113
2, 38115, Note_on_c, 0, 31, 0
2, 38130, Note_on_c, 0, 30, 127
2, 38190, Note_on_c, 0, 30, 0
2, 38190, Note_on_c, 0, 42, 127
2, 38234, Note_on_c, 0, 42, 0
2, 38250, Note_on_c, 0, 30, 110
2, 38280, Note_on_c, 0, 30, 0
2, 38280, Note_on_c, 0, 42, 127
2, 38340, Note_on_c, 0, 42, 0
2, 38340, Note_on_c, 0, 30, 97
2, 38362, Note_on_c, 0, 30, 0
2, 38370, Note_on_c, 0, 30, 88
2, 38384, Note_on_c, 0, 30, 0
2, 38400, Note_on_c, 0, 31, 127
2, 38460, Note_on_c, 0, 43, 127
2, 38468, Note_on_c, 0, 31, 0
2, 38490, Note_on_c, 0, 31, 127
2, 38495, Note_on_c, 0, 31, 0
2, 38505, Note_on_c, 0, 43, 0
2, 38520, Note_on_c, 0, 31, 127
2, 38550, Note_on_c, 0, 31, 0
2, 38550, Note_on_c, 0, 33, 127
2, 38595, Note_on_c, 0, 33, 0
2, 38610, Note_on_c, 0, 34, 127
2, 38655, Note_on_c, 0, 34, 0
2, 38670, Note_on_c, 0, 36, 127
2, 38730, Note_on_c, 0, 36, 0
2, 38730, Note_on_c, 0, 31, 103
2, 38760, Note_on_c, 0, 36, 127
2, 38761, Note_on_c, 0, 31, 0
2, 38790, Note_on_c, 0, 31, 84
2, 38796, Note_on_c, 0, 36, 0
2, 38812, Note_on_c, 0, 31, 0
2, 38820, Note_on_c, 0, 30, 127
2, 38866, Note_on_c, 0, 30, 0
2, 38880, Note_on_c, 0, 29, 127
2, 38939, Note_on_c, 0, 29, 0
2, 38940, Note_on_c, 0, 41, 127
2, 39000, Note_on_c, 0, 29, 113
2, 39001, Note_on_c, 0, 41, 0
2, 39022, Note_on_c, 0, 29, 0
2, 39030, Note_on_c, 0, 41, 127
2, 39060, Note_on_c, 0, 34, 127
2, 39067, Note_on_c, 0, 41, 0
2, 39076, Note_on_c, 0, 34, 0
2, 39090, Note_on_c, 0, 35, 127
2, 39150, Note_on_c, 0, 47, 127
2, 39156, Note_on_c, 0, 35, 0
2, 39202, Note_on_c, 0, 47, 0
2, 39210, Note_on_c, 0, 35, 104
2, 39240, Note_on_c, 0, 35, 0
2, 39240, Note_on_c, 0, 47, 127
2, 39292, Note_on_c, 0, 47, 0
2, 39300, Note_on_c, 0, 35, 108
2, 39308, Note_on_c, 0, 35, 0
2, 39329, Pitch_bend_c, 0, 4850
2, 39330, Note_on_c, 0, 34, 127
2, 39331, Pitch_bend_c, 0, 4465
2, 39332, Pitch_bend_c, 0, 4015
2, 39336, Pitch_bend_c, 0, 3212
2, 39337, Pitch_bend_c, 0, 3148
2, 39339, Pitch_bend_c, 0, 3116
2, 39340, Pitch_bend_c, 0, 3051
2, 39342, Pitch_bend_c, 0, 2987
2, 39345, Pitch_bend_c, 0, 3019
2, 39346, Pitch_bend_c, 0, 3116
2, 39349, Pitch_bend_c, 0, 3341
2, 39350, Pitch_bend_c, 0, 3598
2, 39351, Pitch_bend_c, 0, 3951
2, 39352, Pitch_bend_c, 0, 4240
2, 39355, Pitch_bend_c, 0, 4626
2, 39356, Pitch_bend_c, 0, 5075
2, 39357, Pitch_bend_c, 0, 5268
2, 39359, Pitch_bend_c, 0, 5300
2, 39362, Pitch_bend_c, 0, 5332
2, 39367, Pitch_bend_c, 0, 5589
2, 39369, Pitch_bend_c, 0, 5814
2, 39370, Pitch_bend_c, 0, 6200
2, 39371, Pitch_bend_c, 0, 6778
2, 39372, Pitch_bend_c, 0, 7613
2, 39374, Pitch_bend_c, 0, 8192
2, 39381, Note_on_c, 0, 34, 0
2, 39390, Note_on_c, 0, 46, 127
2, 39450, Note_on_c, 0, 34, 125
2, 39451, Note_on_c, 0, 46, 0
2, 39471, Note_on_c, 0, 34, 0
2, 39480, Note_on_c, 0, 46, 127
2, 39503, Note_on_c, 0, 46, 0
2, 39510, Note_on_c, 0, 35, 86
2, 39515, Note_on_c, 0, 35, 0
2, 39540, Note_on_c, 0, 37, 127
2, 39548, Note_on_c, 0, 37, 0
2, 39570, Note_on_c, 0, 39, 127
2, 39629, Note_on_c, 0, 39, 0
2, 39630, Note_on_c, 0, 51, 127
2, 39675, Note_on_c, 0, 51, 0
2, 39689, Pitch_bend_c, 0, 4047
2, 39690, Note_on_c, 0, 39, 127
2, 39691, Pitch_bend_c, 0, 3662
2, 39692, Pitch_bend_c, 0, 3405
2, 39693, Pitch_bend_c, 0, 3180
2, 39695, Pitch_bend_c, 0, 3084
2, 39697, Pitch_bend_c, 0, 3116
2, 39700, Pitch_bend_c, 0, 3180
2, 39701, Pitch_bend_c, 0, 3341
2, 39702, Pitch_bend_c, 0, 3469
2, 39703, Pitch_bend_c, 0, 3565
2, 39707, Pitch_bend_c, 0, 3598
2, 39709, Pitch_bend_c, 0, 3662
2, 39710, Pitch_bend_c, 0, 3822
2, 39711, Pitch_bend_c, 0, 4047
2, 39714, Pitch_bend_c, 0, 4369
2, 39715, Pitch_bend_c, 0, 4786
2, 39716, Pitch_bend_c, 0, 5364
2, 39717, Pitch_bend_c, 0, 6007
2, 39720, Pitch_bend_c, 0, 6682
2, 39721, Pitch_bend_c, 0, 7388
2, 39722, Pitch_bend_c, 0, 8192
2, 39742, Note_on_c, 0, 39, 0
2, 39750, Note_on_c, 0, 51, 127
2, 39780, Note_on_c, 0, 51, 0
2, 39780, Note_on_c, 0, 39, 127
2, 39788, Note_on_c, 0, 39, 0
2, 39810, Note_on_c, 0, 34, 65
2, 39824, Note_on_c, 0, 34, 0
2, 39840, Note_on_c, 0, 33, 127
2, 39900, Note_on_c, 0, 45, 127
2, 39915, Note_on_c, 0, 33, 0
2, 39952, Note_on_c, 0, 45, 0
2, 39960, Note_on_c, 0, 33, 108
2, 39990, Note_on_c, 0, 45, 127
2, 39998, Note_on_c, 0, 33, 0
2, 40012, Note_on_c, 0, 45, 0
2, 40020, Note_on_c, 0, 31, 127
2, 40035, Note_on_c, 0, 31, 0
2, 40050, Note_on_c, 0, 30, 127
2, 40110, Note_on_c, 0, 42, 127
2, 40131, Note_on_c, 0, 30, 0
2, 40162, Note_on_c, 0, 42, 0
2, 40170, Note_on_c, 0, 30, 108
2, 40185, Note_on_c, 0, 30, 0
2, 40200, Note_on_c, 0, 30, 127
2, 40230, Note_on_c, 0, 42, 127
2, 40260, Note_on_c, 0, 30, 0
2, 40282, Note_on_c, 0, 42, 0
2, 40290, Note_on_c, 0, 30, 120
2, 40304, Note_on_c, 0, 30, 0
2, 40320, Note_on_c, 0, 31, 127
2, 40387, Note_on_c, 0, 31, 0
2, 40410, Note_on_c, 0, 31, 127
2, 40439, Note_on_c, 0, 31, 0
2, 40470, Note_on_c, 0, 31, 127
2, 40499, Note_on_c, 0, 31, 0
2, 40530, Note_on_c, 0, 33, 127
2, 40566, Note_on_c, 0, 33, 0
2, 40590, Note_on_c, 0, 33, 127
2, 40612, Note_on_c, 0, 33, 0
2, 40620, Note_on_c, 0, 32, 127
2, 40650, Note_on_c, 0, 32, 0
2, 40650, Note_on_c, 0, 31, 108
2, 40680, Note_on_c, 0, 31, 0
2, 40710, Note_on_c, 0, 30, 127
2, 40732, Note_on_c, 0, 30, 0
2, 40740, Note_on_c, 0, 29, 110
2, 40770, Note_on_c, 0, 29, 0
2, 40770, Note_on_c, 0, 28, 113
2, 40830, Note_on_c, 0, 30, 125
2, 40837, Note_on_c, 0, 28, 0
2, 40852, Note_on_c, 0, 30, 0
2, 40860, Note_on_c, 0, 31, 110
2, 40882, Note_on_c, 0, 31, 0
2, 40890, Note_on_c, 0, 35, 127
2, 40920, Note_on_c, 0, 35, 0
2, 40920, Note_on_c, 0, 33, 108
2, 40950, Note_on_c, 0, 40, 127
2, 40957, Note_on_c, 0, 33, 0
2, 40980, Note_on_c, 0, 40, 120
2, 40987, Note_on_c, 0, 40, 0
2, 41002, Note_on_c, 0, 40, 0
2, 41010, Note_on_c, 0, 45, 127
2, 41021, Note_on_c, 0, 45, 0
2, 41070, Note_on_c, 0, 33, 127
2, 41092, Note_on_c, 0, 33, 0
2, 41100, Note_on_c, 0, 32, 127
2, 41130, Note_on_c, 0, 32, 0
2, 41130, Note_on_c, 0, 31, 108
2, 41160, Note_on_c, 0, 31, 0
2, 41190, Note_on_c, 0, 30, 127
2, 41212, Note_on_c, 0, 30, 0
2, 41220, Note_on_c, 0, 29, 110
2, 41250, Note_on_c, 0, 29, 0
2, 41250, Note_on_c, 0, 28, 113
2, 41310, Note_on_c, 0, 30, 125
2, 41317, Note_on_c, 0, 28, 0
2, 41332, Note_on_c, 0, 30, 0
2, 41340, Note_on_c, 0, 31, 110
2, 41362, Note_on_c, 0, 31, 0
2, 41370, Note_on_c, 0, 35, 127
2, 41400, Note_on_c, 0, 35, 0
2, 41400, Note_on_c, 0, 33, 108
2, 41430, Note_on_c, 0, 40, 127
2, 41437, Note_on_c, 0, 33, 0
2, 41460, Note_on_c, 0, 40, 120
2, 41467, Note_on_c, 0, 40, 0
2, 41482, Note_on_c, 0, 40, 0
2, 41490, Note_on_c, 0, 45, 127
2, 41501, Note_on_c, 0, 45, 0
2, 41550, Note_on_c, 0, 33, 125
2, 41572, Note_on_c, 0, 33, 0
2, 41580, Note_on_c, 0, 32, 96
2, 41610, Note_on_c, 0, 32, 0
2, 41610, Note_on_c, 0, 31, 96
2, 41632, Note_on_c, 0, 31, 0
2, 41670, Note_on_c, 0, 30, 120
2, 41692, Note_on_c, 0, 30, 0
2, 41700, Note_on_c, 0, 29, 120
2, 41722, Note_on_c, 0, 29, 0
2, 41730, Note_on_c, 0, 28, 116
2, 41790, Note_on_c, 0, 28, 0
2, 41790, Note_on_c, 0, 40, 127
2, 41805, Note_on_c, 0, 40, 0
2, 41820, Note_on_c, 0, 30, 125
2, 41850, Note_on_c, 0, 42, 127
2, 41857, Note_on_c, 0, 30, 0
2, 41865, Note_on_c, 0, 42, 0
2, 41880, Note_on_c, 0, 31, 115
2, 41910, Note_on_c, 0, 31, 0
2, 41910, Note_on_c, 0, 43, 127
2, 41932, Note_on_c, 0, 43, 0
2, 41940, Note_on_c, 0, 33, 122
2, 41970, Note_on_c, 0, 33, 0
2, 41970, Note_on_c, 0, 45, 127
2, 41985, Note_on_c, 0, 45, 0
2, 42030, Note_on_c, 0, 33, 127
2, 42052, Note_on_c, 0, 33, 0
2, 42060, Note_on_c, 0, 32, 127
2, 42090, Note_on_c, 0, 32, 0
2, 42090, Note_on_c, 0, 31, 108
2, 42120, Note_on_c, 0, 31, 0
2, 42150, Note_on_c, 0, 30, 127
2, 42172, Note_on_c, 0, 30, 0
2, 42180, Note_on_c, 0, 29, 110
2, 42210, Note_on_c, 0, 29, 0
2, 42210, Note_on_c, 0, 28, 113
2, 42270, Note_on_c, 0, 30, 125
2, 42277, Note_on_c, 0, 28, 0
2, 42292, Note_on_c, 0, 30, 0
2, 42300, Note_on_c, 0, 31, 110
2, 42322, Note_on_c, 0, 31, 0
2, 42330, Note_on_c, 0, 35, 127
2, 42360, Note_on_c, 0, 35, 0
2, 42360, Note_on_c, 0, 33, 108
2, 42390, Note_on_c, 0, 40, 127
2, 42397, Note_on_c, 0, 33, 0
2, 42420, Note_on_c, 0, 40, 120
2, 42427, Note_on_c, 0, 40, 0
2, 42442, Note_on_c, 0, 40, 0
2, 42450, Note_on_c, 0, 45, 127
2, 42461, Note_on_c, 0, 45, 0
2, 42510, Note_on_c, 0, 33, 127
2, 42532, Note_on_c, 0, 33, 0
2, 42540, Note_on_c, 0, 32, 127
2, 42570, Note_on_c, 0, 32, 0
2, 42570, Note_on_c, 0, 31, 108
2, 42600, Note_on_c, 0, 31, 0
2, 42630, Note_on_c, 0, 30, 127
2, 42652, Note_on_c, 0, 30, 0
2, 42660, Note_on_c, 0, 29, 110
2, 42690, Note_on_c, 0, 29, 0
2, 42690, Note_on_c, 0, 28, 113
2, 42750, Note_on_c, 0, 30, 125
2, 42757, Note_on_c, 0, 28, 0
2, 42772, Note_on_c, 0, 30, 0
2, 42780, Note_on_c, 0, 31, 110
2, 42802, Note_on_c, 0, 31, 0
2, 42810, Note_on_c, 0, 35, 127
2, 42840, Note_on_c, 0, 35, 0
2, 42840, Note_on_c, 0, 33, 108
2, 42870, Note_on_c, 0, 40, 127
2, 42877, Note_on_c, 0, 33, 0
2, 42900, Note_on_c, 0, 40, 120
2, 42907, Note_on_c, 0, 40, 0
2, 42922, Note_on_c, 0, 40, 0
2, 42930, Note_on_c, 0, 45, 127
2, 42941, Note_on_c, 0, 45, 0
2, 42990, Note_on_c, 0, 33, 125
2, 43012, Note_on_c, 0, 33, 0
2, 43020, Note_on_c, 0, 32, 96
2, 43050, Note_on_c, 0, 32, 0
2, 43050, Note_on_c, 0, 31, 96
2, 43072, Note_on_c, 0, 31, 0
2, 43110, Note_on_c, 0, 30, 120
2, 43132, Note_on_c, 0, 30, 0
2, 43140, Note_on_c, 0, 29, 120
2, 43162, Note_on_c, 0, 29, 0
2, 43170, Note_on_c, 0, 28, 116
2, 43230, Note_on_c, 0, 28, 0
2, 43230, Note_on_c, 0, 40, 127
2, 43245, Note_on_c, 0, 40, 0
2, 43260, Note_on_c, 0, 30, 125
2, 43290, Note_on_c, 0, 42, 127
2, 43297, Note_on_c, 0, 30, 0
2, 43305, Note_on_c, 0, 42, 0
2, 43320, Note_on_c, 0, 31, 115
2, 43350, Note_on_c, 0, 31, 0
2, 43350, Note_on_c, 0, 43, 127
2, 43372, Note_on_c, 0, 43, 0
2, 43380, Note_on_c, 0, 33, 122
2, 43410, Note_on_c, 0, 33, 0
2, 43410, Note_on_c, 0, 45, 127
2, 43425, Note_on_c, 0, 45, 0
2, 43470, Note_on_c, 0, 33, 127
2, 43492, Note_on_c, 0, 33, 0
2, 43500, Note_on_c, 0, 32, 127
2, 43530, Note_on_c, 0, 32, 0
2, 43530, Note_on_c, 0, 31, 108
2, 43560, Note_on_c, 0, 31, 0
2, 43590, Note_on_c, 0, 30, 127
2, 43612, Note_on_c, 0, 30, 0
2, 43620, Note_on_c, 0, 29, 110
2, 43650, Note_on_c, 0, 29, 0
2, 43650, Note_on_c, 0, 28, 113
2, 43710, Note_on_c, 0, 30, 125
2, 43717, Note_on_c, 0, 28, 0
2, 43732, Note_on_c, 0, 30, 0
2, 43740, Note_on_c, 0, 31, 110
2, 43762, Note_on_c, 0, 31, 0
2, 43770, Note_on_c, 0, 35, 127
2, 43800, Note_on_c, 0, 35, 0
2, 43800, Note_on_c, 0, 33, 108
2, 43830, Note_on_c, 0, 40, 127
2, 43837, Note_on_c, 0, 33, 0
2, 43860, Note_on_c, 0, 40, 120
2, 43867, Note_on_c, 0, 40, 0
2, 43882, Note_on_c, 0, 40, 0
2, 43890, Note_on_c, 0, 45, 127
2, 43901, Note_on_c, 0, 45, 0
2, 43950, Note_on_c, 0, 33, 127
2, 43972, Note_on_c, 0, 33, 0
2, 43980, Note_on_c, 0, 32, 127
2, 44010, Note_on_c, 0, 32, 0
2, 44010, Note_on_c, 0, 31, 108
2, 44040, Note_on_c, 0, 31, 0
2, 44070, Note_on_c, 0, 30, 127
2, 44092, Note_on_c, 0, 30, 0
2, 44100, Note_on_c, 0, 29, 110
2, 44130, Note_on_c, 0, 29, 0
2, 44130, Note_on_c, 0, 28, 113
2, 44190, Note_on_c, 0, 30, 125
2, 44197, Note_on_c, 0, 28, 0
2, 44212, Note_on_c, 0, 30, 0
2, 44220, Note_on_c, 0, 31, 110
2, 44242, Note_on_c, 0, 31, 0
2, 44250, Note_on_c, 0, 35, 127
2, 44280, Note_on_c, 0, 35, 0
2, 44280, Note_on_c, 0, 33, 108
2, 44310, Note_on_c, 0, 40, 127
2, 44317, Note_on_c, 0, 33, 0
2, 44340, Note_on_c, 0, 40, 120
2, 44347, Note_on_c, 0, 40, 0
2, 44362, Note_on_c, 0, 40, 0
2, 44370, Note_on_c, 0, 45, 127
2, 44381, Note_on_c, 0, 45, 0
2, 44430, Note_on_c, 0, 33, 125
2, 44452, Note_on_c, 0, 33, 0
2, 44460, Note_on_c, 0, 32, 96
2, 44490, Note_on_c, 0, 32, 0
2, 44490, Note_on_c, 0, 31, 96
2, 44512, Note_on_c, 0, 31, 0
2, 44550, Note_on_c, 0, 30, 120
2, 44572, Note_on_c, 0, 30, 0
2, 44580, Note_on_c, 0, 29, 120
2, 44602, Note_on_c, 0, 29, 0
2, 44610, Note_on_c, 0, 28, 116
2, 44670, Note_on_c, 0, 28, 0
2, 44670, Note_on_c, 0, 40, 127
2, 44685, Note_on_c, 0, 40, 0
2, 44700, Note_on_c, 0, 30, 125
2, 44730, Note_on_c, 0, 42, 127
2, 44737, Note_on_c, 0, 30, 0
2, 44745, Note_on_c, 0, 42, 0
2, 44760, Note_on_c, 0, 31, 115
2, 44790, Note_on_c, 0, 31, 0
2, 44790, Note_on_c, 0, 43, 127
2, 44812, Note_on_c, 0, 43, 0
2, 44820, Note_on_c, 0, 33, 122
2, 44850, Note_on_c, 0, 33, 0
2, 44850, Note_on_c, 0, 45, 127
2, 44865, Note_on_c, 0, 45, 0
2, 44910, Note_on_c, 0, 33, 127
2, 44932, Note_on_c, 0, 33, 0
2, 44940, Note_on_c, 0, 32, 127
2, 44970, Note_on_c, 0, 32, 0
2, 44970, Note_on_c, 0, 31, 108
2, 45000, Note_on_c, 0, 31, 0
2, 45030, Note_on_c, 0, 30, 127
2, 45052, Note_on_c, 0, 30, 0
2, 45060, Note_on_c, 0, 29, 110
2, 45090, Note_on_c, 0, 29, 0
2, 45090, Note_on_c, 0, 28, 113
2, 45150, Note_on_c, 0, 30, 125
2, 45157, Note_on_c, 0, 28, 0
2, 45172, Note_on_c, 0, 30, 0
2, 45180, Note_on_c, 0, 31, 110
2, 45202, Note_on_c, 0, 31, 0
2, 45210, Note_on_c, 0, 35, 127
2, 45240, Note_on_c, 0, 35, 0
2, 45240, Note_on_c, 0, 33, 108
2, 45270, Note_on_c, 0, 40, 127
2, 45277, Note_on_c, 0, 33, 0
2, 45300, Note_on_c, 0, 40, 120
2, 45307, Note_on_c, 0, 40, 0
2, 45322, Note_on_c, 0, 40, 0
2, 45330, Note_on_c, 0, 45, 127
2, 45341, Note_on_c, 0, 45, 0
2, 45390, Note_on_c, 0, 45, 125
2, 45412, Note_on_c, 0, 45, 0
2, 45420, Note_on_c, 0, 46, 110
2, 45442, Note_on_c, 0, 46, 0
2, 45450, Note_on_c, 0, 43, 127
2, 45480, Note_on_c, 0, 43, 0
2, 45510, Note_on_c, 0, 42, 127
2, 45540, Note_on_c, 0, 41, 120
2, 45547, Note_on_c, 0, 42, 0
2, 45562, Note_on_c, 0, 41, 0
2, 45570, Note_on_c, 0, 40, 127
2, 45581, Note_on_c, 0, 40, 0
2, 45630, Note_on_c, 0, 39, 97
2, 45653, Note_on_c, 0, 39, 0
2, 45660, Note_on_c, 0, 40, 100
2, 45690, Note_on_c, 0, 37, 127
2, 45697, Note_on_c, 0, 40, 0
2, 45717, Note_on_c, 0, 37, 0
2, 45750, Note_on_c, 0, 36, 127
2, 45776, Note_on_c, 0, 36, 0
2, 45780, Note_on_c, 0, 35, 113
2, 45810, Note_on_c, 0, 34, 127
2, 45811, Note_on_c, 0, 35, 0
2, 45847, Note_on_c, 0, 34, 0
2, 45870, Note_on_c, 0, 33, 127
2, 45897, Note_on_c, 0, 33, 0
2, 45900, Note_on_c, 0, 32, 127
2, 45920, Note_on_c, 0, 32, 0
2, 45930, Note_on_c, 0, 31, 122
2, 45970, Note_on_c, 0, 31, 0
2, 45990, Note_on_c, 0, 30, 127
2, 46014, Note_on_c, 0, 30, 0
2, 46020, Note_on_c, 0, 29, 127
2, 46037, Note_on_c, 0, 29, 0
2, 46050, Note_on_c, 0, 28, 127
2, 47032, Note_on_c, 0, 28, 0
2, 47032, End_track
3, 0, Start_track
3, 0, Title_t, "by Casiopea"
3, 0, Program_c, 1, 29
3, 0, Control_c, 1, 7, 75
3, 0, Control_c, 1, 10, 60
3, 1, Control_c, 1, 121, 0
3, 478, Control_c, 1, 91, 70
3, 478, Control_c, 1, 93, 40
3, 480, Note_on_c, 1, 40, 121
3, 578, Note_on_c, 1, 40, 0
3, 600, Note_on_c, 1, 40, 115
3, 615, Note_on_c, 1, 40, 0
3, 630, Note_on_c, 1, 40, 106
3, 674, Note_on_c, 1, 40, 0
3, 690, Note_on_c, 1, 42, 121
3, 809, Note_on_c, 1, 42, 0
3, 840, Note_on_c, 1, 42, 121
3, 862, Note_on_c, 1, 42, 0
3, 870, Note_on_c, 1, 43, 121
3, 922, Note_on_c, 1, 43, 0
3, 930, Note_on_c, 1, 45, 121
3, 1358, Note_on_c, 1, 45, 0
3, 1440, Note_on_c, 1, 45, 121
3, 1544, Note_on_c, 1, 45, 0
3, 1560, Note_on_c, 1, 45, 121
3, 1575, Note_on_c, 1, 45, 0
3, 1594, Note_on_c, 1, 47, 115
3, 1631, Note_on_c, 1, 47, 0
3, 1649, Note_on_c, 1, 48, 121
3, 1768, Note_on_c, 1, 48, 0
3, 1800, Note_on_c, 1, 48, 115
3, 1822, Note_on_c, 1, 48, 0
3, 1826, Note_on_c, 1, 50, 115
3, 1862, Note_on_c, 1, 50, 0
3, 1889, Note_on_c, 1, 52, 121
3, 2121, Note_on_c, 1, 52, 0
3, 2173, Note_on_c, 1, 40, 121
3, 2397, Note_on_c, 1, 40, 0
3, 3358, Control_c, 1, 0, 0
3, 3359, Control_c, 1, 32, 1
3, 3360, Program_c, 1, 28
3, 3360, Control_c, 1, 10, 90
3, 3360, Control_c, 1, 7, 80
3, 3390, Note_on_c, 1, 59, 95
3, 3397, Note_on_c, 1, 59, 0
3, 3480, Note_on_c, 1, 57, 97
3, 3487, Note_on_c, 1, 57, 0
3, 3600, Note_on_c, 1, 54, 109
3, 3615, Note_on_c, 1, 54, 0
3, 3690, Note_on_c, 1, 55, 102
3, 3730, Control_c, 1, 1, 2
3, 3731, Control_c, 1, 1, 1
3, 3732, Control_c, 1, 1, 0
3, 3741, Control_c, 1, 1, 1
3, 3742, Control_c, 1, 1, 10
3, 3742, Control_c, 1, 1, 5
3, 3744, Control_c, 1, 1, 19
3, 3744, Control_c, 1, 1, 15
3, 3745, Control_c, 1, 1, 24
3, 3746, Control_c, 1, 1, 31
3, 3746, Control_c, 1, 1, 28
3, 3747, Control_c, 1, 1, 37
3, 3747, Control_c, 1, 1, 34
3, 3749, Control_c, 1, 1, 38
3, 3750, Control_c, 1, 1, 40
3, 3750, Control_c, 1, 1, 39
3, 3754, Control_c, 1, 1, 41
3, 3756, Control_c, 1, 1, 43
3, 3756, Control_c, 1, 1, 42
3, 3757, Control_c, 1, 1, 45
3, 3757, Control_c, 1, 1, 44
3, 3758, Control_c, 1, 1, 46
3, 3760, Control_c, 1, 1, 48
3, 3760, Control_c, 1, 1, 47
3, 3761, Control_c, 1, 1, 50
3, 3762, Control_c, 1, 1, 53
3, 3762, Control_c, 1, 1, 51
3, 3764, Control_c, 1, 1, 55
3, 3764, Control_c, 1, 1, 54
3, 3765, Control_c, 1, 1, 57
3, 3766, Control_c, 1, 1, 58
3, 3767, Control_c, 1, 1, 59
3, 3769, Control_c, 1, 1, 61
3, 3769, Control_c, 1, 1, 60
3, 3770, Control_c, 1, 1, 60
3, 3771, Control_c, 1, 1, 57
3, 3771, Control_c, 1, 1, 58
3, 3772, Control_c, 1, 1, 56
3, 3774, Control_c, 1, 1, 52
3, 3774, Control_c, 1, 1, 54
3, 3775, Control_c, 1, 1, 51
3, 3776, Control_c, 1, 1, 49
3, 3776, Control_c, 1, 1, 50
3, 3777, Control_c, 1, 1, 46
3, 3777, Control_c, 1, 1, 47
3, 3779, Control_c, 1, 1, 44
3, 3780, Control_c, 1, 1, 40
3, 3780, Control_c, 1, 1, 42
3, 3782, Control_c, 1, 1, 35
3, 3782, Control_c, 1, 1, 37
3, 3784, Control_c, 1, 1, 27
3, 3784, Control_c, 1, 1, 30
3, 3784, Control_c, 1, 1, 32
3, 3785, Control_c, 1, 1, 22
3, 3785, Control_c, 1, 1, 24
3, 3786, Control_c, 1, 1, 21
3, 3787, Control_c, 1, 1, 18
3, 3787, Control_c, 1, 1, 19
3, 3788, Control_c, 1, 1, 17
3, 3790, Control_c, 1, 1, 16
3, 3791, Control_c, 1, 1, 15
3, 3794, Control_c, 1, 1, 12
3, 3794, Control_c, 1, 1, 14
3, 3795, Control_c, 1, 1, 9
3, 3795, Control_c, 1, 1, 11
3, 3796, Control_c, 1, 1, 8
3, 3799, Control_c, 1, 1, 10
3, 3800, Control_c, 1, 1, 12
3, 3801, Control_c, 1, 1, 15
3, 3801, Control_c, 1, 1, 13
3, 3802, Control_c, 1, 1, 16
3, 3805, Control_c, 1, 1, 17
3, 3807, Control_c, 1, 1, 18
3, 3814, Control_c, 1, 1, 17
3, 3815, Control_c, 1, 1, 16
3, 3816, Control_c, 1, 1, 15
3, 3818, Control_c, 1, 1, 10
3, 3818, Control_c, 1, 1, 13
3, 3819, Control_c, 1, 1, 8
3, 3820, Control_c, 1, 1, 3
3, 3820, Control_c, 1, 1, 5
3, 3821, Control_c, 1, 1, 0
3, 3847, Note_on_c, 1, 55, 0
3, 3870, Note_on_c, 1, 59, 97
3, 3873, Note_on_c, 1, 59, 0
3, 3960, Note_on_c, 1, 57, 106
3, 3968, Note_on_c, 1, 57, 0
3, 4080, Note_on_c, 1, 62, 91
3, 4087, Note_on_c, 1, 62, 0
3, 4170, Note_on_c, 1, 62, 109
3, 4222, Control_c, 1, 1, 6
3, 4224, Control_c, 1, 1, 18
3, 4225, Control_c, 1, 1, 34
3, 4225, Control_c, 1, 1, 27
3, 4226, Control_c, 1, 1, 39
3, 4228, Control_c, 1, 1, 42
3, 4228, Control_c, 1, 1, 41
3, 4229, Control_c, 1, 1, 39
3, 4230, Control_c, 1, 1, 36
3, 4231, Note_on_c, 1, 62, 0
3, 4232, Control_c, 1, 1, 31
3, 4232, Control_c, 1, 1, 33
3, 4233, Control_c, 1, 1, 27
3, 4233, Control_c, 1, 1, 29
3, 4234, Control_c, 1, 1, 26
3, 4236, Control_c, 1, 1, 25
3, 4238, Control_c, 1, 1, 22
3, 4238, Control_c, 1, 1, 24
3, 4239, Control_c, 1, 1, 15
3, 4239, Control_c, 1, 1, 19
3, 4240, Control_c, 1, 1, 11
3, 4241, Control_c, 1, 1, 1
3, 4241, Control_c, 1, 1, 6
3, 4242, Control_c, 1, 1, 0
3, 4318, Control_c, 1, 0, 0
3, 4319, Control_c, 1, 32, 1
3, 4320, Program_c, 1, 28
3, 4320, Control_c, 1, 10, 90
3, 4320, Control_c, 1, 7, 80
3, 4350, Note_on_c, 1, 59, 95
3, 4357, Note_on_c, 1, 59, 0
3, 4440, Note_on_c, 1, 57, 97
3, 4447, Note_on_c, 1, 57, 0
3, 4560, Note_on_c, 1, 54, 109
3, 4575, Note_on_c, 1, 54, 0
3, 4650, Note_on_c, 1, 55, 102
3, 4690, Control_c, 1, 1, 2
3, 4691, Control_c, 1, 1, 1
3, 4692, Control_c, 1, 1, 0
3, 4701, Control_c, 1, 1, 1
3, 4702, Control_c, 1, 1, 10
3, 4702, Control_c, 1, 1, 5
3, 4704, Control_c, 1, 1, 19
3, 4704, Control_c, 1, 1, 15
3, 4705, Control_c, 1, 1, 24
3, 4706, Control_c, 1, 1, 31
3, 4706, Control_c, 1, 1, 28
3, 4707, Control_c, 1, 1, 37
3, 4707, Control_c, 1, 1, 34
3, 4709, Control_c, 1, 1, 38
3, 4710, Control_c, 1, 1, 40
3, 4710, Control_c, 1, 1, 39
3, 4714, Control_c, 1, 1, 41
3, 4716, Control_c, 1, 1, 43
3, 4716, Control_c, 1, 1, 42
3, 4717, Control_c, 1, 1, 45
3, 4717, Control_c, 1, 1, 44
3, 4718, Control_c, 1, 1, 46
3, 4720, Control_c, 1, 1, 48
3, 4720, Control_c, 1, 1, 47
3, 4721, Control_c, 1, 1, 50
3, 4722, Control_c, 1, 1, 53
3, 4722, Control_c, 1, 1, 51
3, 4724, Control_c, 1, 1, 55
3, 4724, Control_c, 1, 1, 54
3, 4725, Control_c, 1, 1, 57
3, 4726, Control_c, 1, 1, 58
3, 4727, Control_c, 1, 1, 59
3, 4729, Control_c, 1, 1, 61
3, 4729, Control_c, 1, 1, 60
3, 4730, Control_c, 1, 1, 60
3, 4731, Control_c, 1, 1, 57
3, 4731, Control_c, 1, 1, 58
3, 4732, Control_c, 1, 1, 56
3, 4734, Control_c, 1, 1, 52
3, 4734, Control_c, 1, 1, 54
3, 4735, Control_c, 1, 1, 51
3, 4736, Control_c, 1, 1, 49
3, 4736, Control_c, 1, 1, 50
3, 4737, Control_c, 1, 1, 46
3, 4737, Control_c, 1, 1, 47
3, 4739, Control_c, 1, 1, 44
3, 4740, Control_c, 1, 1, 40
3, 4740, Control_c, 1, 1, 42
3, 4742, Control_c, 1, 1, 35
3, 4742, Control_c, 1, 1, 37
3, 4744, Control_c, 1, 1, 27
3, 4744, Control_c, 1, 1, 30
3, 4744, Control_c, 1, 1, 32
3, 4745, Control_c, 1, 1, 22
3, 4745, Control_c, 1, 1, 24
3, 4746, Control_c, 1, 1, 21
3, 4747, Control_c, 1, 1, 18
3, 4747, Control_c, 1, 1, 19
3, 4748, Control_c, 1, 1, 17
3, 4750, Control_c, 1, 1, 16
3, 4751, Control_c, 1, 1, 15
3, 4754, Control_c, 1, 1, 12
3, 4754, Control_c, 1, 1, 14
3, 4755, Control_c, 1, 1, 9
3, 4755, Control_c, 1, 1, 11
3, 4756, Control_c, 1, 1, 8
3, 4759, Control_c, 1, 1, 10
3, 4760, Control_c, 1, 1, 12
3, 4761, Control_c, 1, 1, 15
3, 4761, Control_c, 1, 1, 13
3, 4762, Control_c, 1, 1, 16
3, 4765, Control_c, 1, 1, 17
3, 4767, Control_c, 1, 1, 18
3, 4774, Control_c, 1, 1, 17
3, 4775, Control_c, 1, 1, 16
3, 4776, Control_c, 1, 1, 15
3, 4778, Control_c, 1, 1, 10
3, 4778, Control_c, 1, 1, 13
3, 4779, Control_c, 1, 1, 8
3, 4780, Control_c, 1, 1, 3
3, 4780, Control_c, 1, 1, 5
3, 4781, Control_c, 1, 1, 0
3, 4807, Note_on_c, 1, 55, 0
3, 4830, Note_on_c, 1, 59, 97
3, 4833, Note_on_c, 1, 59, 0
3, 4920, Note_on_c, 1, 57, 106
3, 4928, Note_on_c, 1, 57, 0
3, 5040, Note_on_c, 1, 62, 91
3, 5047, Note_on_c, 1, 62, 0
3, 5130, Note_on_c, 1, 62, 109
3, 5182, Control_c, 1, 1, 6
3, 5184, Control_c, 1, 1, 18
3, 5185, Control_c, 1, 1, 34
3, 5185, Control_c, 1, 1, 27
3, 5186, Control_c, 1, 1, 39
3, 5188, Control_c, 1, 1, 42
3, 5188, Control_c, 1, 1, 41
3, 5189, Control_c, 1, 1, 39
3, 5190, Control_c, 1, 1, 36
3, 5190, Note_on_c, 1, 64, 93
3, 5191, Note_on_c, 1, 62, 0
3, 5192, Control_c, 1, 1, 31
3, 5192, Control_c, 1, 1, 33
3, 5193, Control_c, 1, 1, 27
3, 5193, Control_c, 1, 1, 29
3, 5194, Control_c, 1, 1, 26
3, 5196, Control_c, 1, 1, 25
3, 5198, Control_c, 1, 1, 22
3, 5198, Control_c, 1, 1, 24
3, 5199, Control_c, 1, 1, 15
3, 5199, Control_c, 1, 1, 19
3, 5200, Control_c, 1, 1, 11
3, 5201, Control_c, 1, 1, 1
3, 5201, Control_c, 1, 1, 6
3, 5202, Control_c, 1, 1, 0
3, 5204, Note_on_c, 1, 64, 0
3, 5310, Note_on_c, 1, 59, 78
3, 5318, Note_on_c, 1, 59, 0
3, 5400, Note_on_c, 1, 57, 91
3, 5408, Note_on_c, 1, 57, 0
3, 5520, Note_on_c, 1, 54, 109
3, 5535, Note_on_c, 1, 54, 0
3, 5610, Note_on_c, 1, 55, 104
3, 5660, Control_c, 1, 1, 1
3, 5661, Control_c, 1, 1, 5
3, 5661, Control_c, 1, 1, 3
3, 5662, Control_c, 1, 1, 7
3, 5664, Control_c, 1, 1, 11
3, 5664, Control_c, 1, 1, 9
3, 5667, Control_c, 1, 1, 12
3, 5670, Control_c, 1, 1, 13
3, 5672, Control_c, 1, 1, 15
3, 5672, Control_c, 1, 1, 14
3, 5673, Control_c, 1, 1, 16
3, 5674, Control_c, 1, 1, 19
3, 5674, Control_c, 1, 1, 17
3, 5675, Control_c, 1, 1, 23
3, 5675, Control_c, 1, 1, 21
3, 5676, Control_c, 1, 1, 25
3, 5678, Control_c, 1, 1, 28
3, 5678, Control_c, 1, 1, 26
3, 5679, Control_c, 1, 1, 32
3, 5679, Control_c, 1, 1, 30
3, 5680, Control_c, 1, 1, 34
3, 5681, Control_c, 1, 1, 37
3, 5681, Control_c, 1, 1, 36
3, 5682, Control_c, 1, 1, 38
3, 5683, Control_c, 1, 1, 39
3, 5685, Control_c, 1, 1, 40
3, 5686, Control_c, 1, 1, 41
3, 5689, Control_c, 1, 1, 42
3, 5691, Control_c, 1, 1, 43
3, 5692, Control_c, 1, 1, 44
3, 5696, Control_c, 1, 1, 45
3, 5697, Control_c, 1, 1, 47
3, 5697, Control_c, 1, 1, 46
3, 5700, Control_c, 1, 1, 48
3, 5702, Control_c, 1, 1, 49
3, 5705, Control_c, 1, 1, 48
3, 5706, Control_c, 1, 1, 47
3, 5714, Control_c, 1, 1, 48
3, 5716, Control_c, 1, 1, 46
3, 5716, Control_c, 1, 1, 47
3, 5717, Control_c, 1, 1, 45
3, 5718, Control_c, 1, 1, 44
3, 5722, Control_c, 1, 1, 45
3, 5724, Control_c, 1, 1, 46
3, 5725, Control_c, 1, 1, 48
3, 5725, Control_c, 1, 1, 47
3, 5726, Control_c, 1, 1, 50
3, 5726, Control_c, 1, 1, 49
3, 5727, Control_c, 1, 1, 51
3, 5729, Control_c, 1, 1, 52
3, 5730, Control_c, 1, 1, 53
3, 5734, Control_c, 1, 1, 54
3, 5735, Control_c, 1, 1, 55
3, 5736, Control_c, 1, 1, 56
3, 5739, Control_c, 1, 1, 54
3, 5739, Control_c, 1, 1, 55
3, 5740, Control_c, 1, 1, 51
3, 5740, Control_c, 1, 1, 53
3, 5741, Control_c, 1, 1, 48
3, 5742, Control_c, 1, 1, 44
3, 5743, Control_c, 1, 1, 40
3, 5744, Control_c, 1, 1, 33
3, 5744, Control_c, 1, 1, 37
3, 5745, Control_c, 1, 1, 30
3, 5746, Control_c, 1, 1, 19
3, 5746, Control_c, 1, 1, 25
3, 5747, Control_c, 1, 1, 14
3, 5749, Control_c, 1, 1, 3
3, 5749, Control_c, 1, 1, 8
3, 5750, Control_c, 1, 1, 0
3, 5767, Note_on_c, 1, 55, 0
3, 5790, Note_on_c, 1, 59, 95
3, 5798, Note_on_c, 1, 59, 0
3, 5880, Note_on_c, 1, 57, 106
3, 5894, Note_on_c, 1, 57, 0
3, 6000, Note_on_c, 1, 62, 102
3, 6006, Note_on_c, 1, 62, 0
3, 6086, Control_c, 1, 1, 5
3, 6087, Control_c, 1, 1, 14
3, 6087, Control_c, 1, 1, 10
3, 6089, Control_c, 1, 1, 19
3, 6089, Control_c, 1, 1, 17
3, 6090, Note_on_c, 1, 62, 112
3, 6091, Control_c, 1, 1, 20
3, 6093, Control_c, 1, 1, 21
3, 6094, Control_c, 1, 1, 26
3, 6094, Control_c, 1, 1, 25
3, 6094, Control_c, 1, 1, 23
3, 6094, Control_c, 1, 1, 22
3, 6095, Control_c, 1, 1, 28
3, 6095, Control_c, 1, 1, 27
3, 6096, Control_c, 1, 1, 30
3, 6097, Control_c, 1, 1, 34
3, 6097, Control_c, 1, 1, 32
3, 6098, Control_c, 1, 1, 38
3, 6098, Control_c, 1, 1, 36
3, 6100, Control_c, 1, 1, 40
3, 6101, Control_c, 1, 1, 42
3, 6101, Control_c, 1, 1, 41
3, 6102, Control_c, 1, 1, 43
3, 6104, Control_c, 1, 1, 44
3, 6105, Control_c, 1, 1, 45
3, 6107, Control_c, 1, 1, 46
3, 6110, Control_c, 1, 1, 47
3, 6111, Control_c, 1, 1, 50
3, 6111, Control_c, 1, 1, 48
3, 6112, Control_c, 1, 1, 51
3, 6114, Control_c, 1, 1, 52
3, 6115, Control_c, 1, 1, 54
3, 6115, Control_c, 1, 1, 53
3, 6116, Control_c, 1, 1, 55
3, 6117, Control_c, 1, 1, 57
3, 6117, Control_c, 1, 1, 56
3, 6119, Control_c, 1, 1, 58
3, 6120, Control_c, 1, 1, 59
3, 6122, Control_c, 1, 1, 60
3, 6125, Control_c, 1, 1, 62
3, 6125, Control_c, 1, 1, 61
3, 6129, Control_c, 1, 1, 60
3, 6130, Control_c, 1, 1, 58
3, 6131, Control_c, 1, 1, 54
3, 6131, Control_c, 1, 1, 56
3, 6132, Control_c, 1, 1, 52
3, 6133, Control_c, 1, 1, 47
3, 6133, Control_c, 1, 1, 50
3, 6135, Control_c, 1, 1, 43
3, 6135, Control_c, 1, 1, 45
3, 6136, Control_c, 1, 1, 41
3, 6137, Control_c, 1, 1, 36
3, 6137, Control_c, 1, 1, 38
3, 6139, Control_c, 1, 1, 31
3, 6139, Control_c, 1, 1, 34
3, 6140, Control_c, 1, 1, 29
3, 6141, Control_c, 1, 1, 23
3, 6141, Control_c, 1, 1, 26
3, 6142, Note_on_c, 1, 62, 0
3, 6143, Control_c, 1, 1, 16
3, 6143, Control_c, 1, 1, 20
3, 6144, Control_c, 1, 1, 13
3, 6145, Control_c, 1, 1, 8
3, 6145, Control_c, 1, 1, 10
3, 6146, Control_c, 1, 1, 2
3, 6146, Control_c, 1, 1, 5
3, 6147, Control_c, 1, 1, 0
3, 6150, Note_on_c, 1, 64, 81
3, 6157, Note_on_c, 1, 64, 0
3, 6270, Note_on_c, 1, 59, 95
3, 6285, Note_on_c, 1, 59, 0
3, 6360, Note_on_c, 1, 57, 97
3, 6375, Note_on_c, 1, 57, 0
3, 6480, Note_on_c, 1, 54, 105
3, 6487, Note_on_c, 1, 54, 0
3, 6570, Note_on_c, 1, 55, 95
3, 6592, Control_c, 1, 1, 1
3, 6594, Control_c, 1, 1, 5
3, 6594, Control_c, 1, 1, 3
3, 6595, Control_c, 1, 1, 7
3, 6596, Control_c, 1, 1, 13
3, 6596, Control_c, 1, 1, 10
3, 6597, Control_c, 1, 1, 16
3, 6597, Control_c, 1, 1, 15
3, 6599, Control_c, 1, 1, 17
3, 6601, Control_c, 1, 1, 19
3, 6601, Control_c, 1, 1, 18
3, 6604, Control_c, 1, 1, 20
3, 6606, Control_c, 1, 1, 21
3, 6609, Control_c, 1, 1, 22
3, 6611, Control_c, 1, 1, 24
3, 6611, Control_c, 1, 1, 23
3, 6615, Control_c, 1, 1, 25
3, 6617, Control_c, 1, 1, 26
3, 6622, Control_c, 1, 1, 27
3, 6624, Control_c, 1, 1, 28
3, 6625, Control_c, 1, 1, 30
3, 6625, Control_c, 1, 1, 29
3, 6626, Control_c, 1, 1, 31
3, 6627, Control_c, 1, 1, 33
3, 6627, Control_c, 1, 1, 32
3, 6629, Control_c, 1, 1, 34
3, 6631, Control_c, 1, 1, 36
3, 6631, Control_c, 1, 1, 35
3, 6632, Control_c, 1, 1, 37
3, 6635, Control_c, 1, 1, 38
3, 6637, Control_c, 1, 1, 39
3, 6644, Control_c, 1, 1, 40
3, 6650, Control_c, 1, 1, 41
3, 6653, Control_c, 1, 1, 42
3, 6655, Control_c, 1, 1, 41
3, 6656, Control_c, 1, 1, 39
3, 6656, Control_c, 1, 1, 40
3, 6657, Control_c, 1, 1, 37
3, 6659, Control_c, 1, 1, 35
3, 6659, Control_c, 1, 1, 36
3, 6662, Control_c, 1, 1, 34
3, 6666, Control_c, 1, 1, 32
3, 6668, Control_c, 1, 1, 31
3, 6669, Control_c, 1, 1, 26
3, 6669, Control_c, 1, 1, 28
3, 6670, Control_c, 1, 1, 24
3, 6671, Control_c, 1, 1, 18
3, 6671, Control_c, 1, 1, 21
3, 6672, Control_c, 1, 1, 12
3, 6672, Control_c, 1, 1, 15
3, 6674, Control_c, 1, 1, 10
3, 6675, Control_c, 1, 1, 5
3, 6675, Control_c, 1, 1, 7
3, 6676, Control_c, 1, 1, 3
3, 6676, Control_c, 1, 1, 4
3, 6679, Control_c, 1, 1, 2
3, 6685, Control_c, 1, 1, 3
3, 6689, Control_c, 1, 1, 1
3, 6689, Control_c, 1, 1, 2
3, 6691, Control_c, 1, 1, 0
3, 6727, Note_on_c, 1, 55, 0
3, 6750, Note_on_c, 1, 59, 99
3, 6765, Note_on_c, 1, 59, 0
3, 6840, Note_on_c, 1, 57, 90
3, 6855, Note_on_c, 1, 57, 0
3, 6960, Note_on_c, 1, 62, 102
3, 6968, Note_on_c, 1, 62, 0
3, 7050, Note_on_c, 1, 62, 109
3, 7056, Control_c, 1, 1, 3
3, 7057, Control_c, 1, 1, 29
3, 7057, Control_c, 1, 1, 16
3, 7059, Control_c, 1, 1, 45
3, 7059, Control_c, 1, 1, 39
3, 7060, Control_c, 1, 1, 48
3, 7061, Control_c, 1, 1, 50
3, 7062, Control_c, 1, 1, 42
3, 7062, Control_c, 1, 1, 47
3, 7064, Control_c, 1, 1, 38
3, 7065, Control_c, 1, 1, 35
3, 7065, Control_c, 1, 1, 36
3, 7066, Control_c, 1, 1, 36
3, 7068, Control_c, 1, 1, 44
3, 7068, Control_c, 1, 1, 40
3, 7069, Control_c, 1, 1, 53
3, 7069, Control_c, 1, 1, 48
3, 7070, Control_c, 1, 1, 58
3, 7071, Control_c, 1, 1, 66
3, 7071, Control_c, 1, 1, 62
3, 7072, Control_c, 1, 1, 73
3, 7072, Control_c, 1, 1, 70
3, 7074, Control_c, 1, 1, 76
3, 7075, Control_c, 1, 1, 80
3, 7075, Control_c, 1, 1, 79
3, 7076, Control_c, 1, 1, 83
3, 7076, Control_c, 1, 1, 81
3, 7079, Control_c, 1, 1, 81
3, 7079, Control_c, 1, 1, 82
3, 7081, Control_c, 1, 1, 78
3, 7082, Control_c, 1, 1, 70
3, 7082, Control_c, 1, 1, 73
3, 7082, Control_c, 1, 1, 76
3, 7084, Control_c, 1, 1, 65
3, 7085, Control_c, 1, 1, 59
3, 7085, Control_c, 1, 1, 62
3, 7086, Control_c, 1, 1, 54
3, 7086, Control_c, 1, 1, 56
3, 7087, Control_c, 1, 1, 51
3, 7089, Control_c, 1, 1, 47
3, 7089, Control_c, 1, 1, 49
3, 7090, Control_c, 1, 1, 44
3, 7091, Control_c, 1, 1, 38
3, 7091, Control_c, 1, 1, 41
3, 7092, Control_c, 1, 1, 31
3, 7092, Control_c, 1, 1, 35
3, 7094, Control_c, 1, 1, 28
3, 7095, Control_c, 1, 1, 20
3, 7095, Control_c, 1, 1, 24
3, 7096, Control_c, 1, 1, 12
3, 7096, Control_c, 1, 1, 16
3, 7097, Control_c, 1, 1, 8
3, 7099, Control_c, 1, 1, 0
3, 7099, Control_c, 1, 1, 4
3, 7110, Note_on_c, 1, 62, 0
3, 7110, Note_on_c, 1, 64, 74
3, 7125, Note_on_c, 1, 64, 0
3, 7230, Note_on_c, 1, 59, 109
3, 7245, Note_on_c, 1, 59, 0
3, 7320, Note_on_c, 1, 57, 122
3, 7342, Note_on_c, 1, 57, 0
3, 7440, Note_on_c, 1, 54, 119
3, 7455, Note_on_c, 1, 54, 0
3, 7530, Control_c, 1, 1, 4
3, 7530, Note_on_c, 1, 55, 122
3, 7532, Control_c, 1, 1, 24
3, 7532, Control_c, 1, 1, 14
3, 7533, Control_c, 1, 1, 43
3, 7533, Control_c, 1, 1, 34
3, 7534, Control_c, 1, 1, 51
3, 7535, Control_c, 1, 1, 64
3, 7535, Control_c, 1, 1, 58
3, 7536, Control_c, 1, 1, 68
3, 7537, Control_c, 1, 1, 75
3, 7537, Control_c, 1, 1, 72
3, 7539, Control_c, 1, 1, 79
3, 7539, Control_c, 1, 1, 77
3, 7540, Control_c, 1, 1, 81
3, 7541, Control_c, 1, 1, 83
3, 7541, Control_c, 1, 1, 82
3, 7542, Control_c, 1, 1, 85
3, 7542, Control_c, 1, 1, 84
3, 7544, Control_c, 1, 1, 87
3, 7544, Control_c, 1, 1, 86
3, 7545, Control_c, 1, 1, 89
3, 7546, Control_c, 1, 1, 95
3, 7546, Control_c, 1, 1, 91
3, 7547, Control_c, 1, 1, 99
3, 7547, Control_c, 1, 1, 97
3, 7549, Control_c, 1, 1, 105
3, 7550, Control_c, 1, 1, 111
3, 7550, Control_c, 1, 1, 107
3, 7551, Control_c, 1, 1, 121
3, 7551, Control_c, 1, 1, 117
3, 7552, Control_c, 1, 1, 125
3, 7554, Control_c, 1, 1, 127
3, 7614, Control_c, 1, 1, 121
3, 7615, Control_c, 1, 1, 99
3, 7615, Control_c, 1, 1, 111
3, 7616, Control_c, 1, 1, 78
3, 7616, Control_c, 1, 1, 86
3, 7617, Control_c, 1, 1, 70
3, 7619, Control_c, 1, 1, 54
3, 7619, Control_c, 1, 1, 62
3, 7620, Control_c, 1, 1, 35
3, 7620, Control_c, 1, 1, 45
3, 7622, Control_c, 1, 1, 5
3, 7622, Control_c, 1, 1, 26
3, 7623, Control_c, 1, 1, 0
3, 7634, Note_on_c, 1, 55, 0
3, 7710, Note_on_c, 1, 59, 106
3, 7725, Note_on_c, 1, 59, 0
3, 7800, Note_on_c, 1, 57, 115
3, 7814, Note_on_c, 1, 57, 0
3, 7920, Note_on_c, 1, 62, 115
3, 7935, Note_on_c, 1, 62, 0
3, 8010, Note_on_c, 1, 62, 122
3, 8062, Note_on_c, 1, 62, 0
3, 8070, Note_on_c, 1, 64, 90
3, 8084, Note_on_c, 1, 64, 0
3, 8190, Note_on_c, 1, 59, 118
3, 8205, Note_on_c, 1, 59, 0
3, 8280, Note_on_c, 1, 57, 115
3, 8295, Note_on_c, 1, 57, 0
3, 8400, Note_on_c, 1, 54, 124
3, 8415, Note_on_c, 1, 54, 0
3, 8490, Note_on_c, 1, 55, 118
3, 8494, Control_c, 1, 1, 10
3, 8495, Control_c, 1, 1, 37
3, 8495, Control_c, 1, 1, 23
3, 8496, Control_c, 1, 1, 60
3, 8496, Control_c, 1, 1, 50
3, 8498, Control_c, 1, 1, 68
3, 8499, Control_c, 1, 1, 79
3, 8499, Control_c, 1, 1, 74
3, 8500, Control_c, 1, 1, 87
3, 8500, Control_c, 1, 1, 83
3, 8501, Control_c, 1, 1, 93
3, 8502, Control_c, 1, 1, 97
3, 8502, Control_c, 1, 1, 95
3, 8504, Control_c, 1, 1, 101
3, 8504, Control_c, 1, 1, 99
3, 8506, Control_c, 1, 1, 99
3, 8507, Control_c, 1, 1, 97
3, 8510, Control_c, 1, 1, 99
3, 8511, Control_c, 1, 1, 103
3, 8511, Control_c, 1, 1, 101
3, 8512, Control_c, 1, 1, 107
3, 8514, Control_c, 1, 1, 111
3, 8514, Control_c, 1, 1, 109
3, 8515, Control_c, 1, 1, 115
3, 8515, Control_c, 1, 1, 113
3, 8517, Control_c, 1, 1, 117
3, 8523, Control_c, 1, 1, 111
3, 8523, Control_c, 1, 1, 113
3, 8523, Control_c, 1, 1, 115
3, 8530, Control_c, 1, 1, 119
3, 8531, Control_c, 1, 1, 121
3, 8539, Control_c, 1, 1, 119
3, 8541, Control_c, 1, 1, 121
3, 8542, Control_c, 1, 1, 123
3, 8545, Control_c, 1, 1, 125
3, 8548, Control_c, 1, 1, 127
3, 8565, Control_c, 1, 1, 125
3, 8566, Control_c, 1, 1, 123
3, 8567, Control_c, 1, 1, 121
3, 8571, Control_c, 1, 1, 119
3, 8575, Control_c, 1, 1, 121
3, 8577, Control_c, 1, 1, 123
3, 8582, Control_c, 1, 1, 113
3, 8582, Control_c, 1, 1, 119
3, 8582, Control_c, 1, 1, 121
3, 8585, Control_c, 1, 1, 89
3, 8585, Control_c, 1, 1, 99
3, 8586, Control_c, 1, 1, 77
3, 8586, Control_c, 1, 1, 83
3, 8588, Control_c, 1, 1, 66
3, 8588, Control_c, 1, 1, 72
3, 8589, Control_c, 1, 1, 59
3, 8590, Control_c, 1, 1, 45
3, 8590, Control_c, 1, 1, 52
3, 8591, Control_c, 1, 1, 31
3, 8591, Control_c, 1, 1, 38
3, 8592, Control_c, 1, 1, 12
3, 8592, Control_c, 1, 1, 21
3, 8594, Control_c, 1, 1, 5
3, 8595, Control_c, 1, 1, 0
3, 8611, Note_on_c, 1, 55, 0
3, 8670, Note_on_c, 1, 59, 99
3, 8677, Note_on_c, 1, 59, 0
3, 8760, Note_on_c, 1, 57, 106
3, 8782, Note_on_c, 1, 57, 0
3, 8880, Note_on_c, 1, 62, 122
3, 8895, Note_on_c, 1, 62, 0
3, 8970, Note_on_c, 1, 62, 122
3, 9023, Note_on_c, 1, 62, 0
3, 9030, Note_on_c, 1, 64, 109
3, 9037, Note_on_c, 1, 64, 0
3, 9119, Control_c, 1, 10, 37
3, 9148, Control_c, 1, 0, 0
3, 9149, Control_c, 1, 32, 2
3, 9150, Program_c, 1, 28
3, 9150, Note_on_c, 1, 61, 82
3, 9150, Note_on_c, 1, 62, 99
3, 9150, Note_on_c, 1, 66, 89
3, 9165, Note_on_c, 1, 66, 0
3, 9165, Note_on_c, 1, 62, 0
3, 9165, Note_on_c, 1, 61, 0
3, 9181, Control_c, 1, 10, 45
3, 9240, Note_on_c, 1, 64, 106
3, 9240, Note_on_c, 1, 61, 97
3, 9240, Note_on_c, 1, 63, 91
3, 9242, Control_c, 1, 10, 37
3, 9263, Note_on_c, 1, 63, 0
3, 9263, Note_on_c, 1, 61, 0
3, 9263, Note_on_c, 1, 64, 0
3, 9360, Note_on_c, 1, 66, 114
3, 9360, Note_on_c, 1, 61, 94
3, 9360, Note_on_c, 1, 62, 99
3, 9375, Note_on_c, 1, 62, 0
3, 9375, Note_on_c, 1, 61, 0
3, 9375, Note_on_c, 1, 66, 0
3, 9450, Note_on_c, 1, 64, 115
3, 9450, Note_on_c, 1, 61, 101
3, 9495, Note_on_c, 1, 61, 0
3, 9502, Note_on_c, 1, 64, 0
3, 9510, Note_on_c, 1, 66, 91
3, 9510, Note_on_c, 1, 62, 97
3, 9525, Note_on_c, 1, 62, 0
3, 9525, Note_on_c, 1, 66, 0
3, 9630, Note_on_c, 1, 62, 93
3, 9630, Note_on_c, 1, 66, 109
3, 9637, Note_on_c, 1, 62, 0
3, 9645, Note_on_c, 1, 66, 0
3, 9720, Note_on_c, 1, 64, 91
3, 9720, Note_on_c, 1, 61, 84
3, 9727, Note_on_c, 1, 61, 0
3, 9735, Note_on_c, 1, 64, 0
3, 9840, Note_on_c, 1, 62, 95
3, 9840, Note_on_c, 1, 66, 94
3, 9846, Note_on_c, 1, 62, 0
3, 9854, Note_on_c, 1, 66, 0
3, 9930, Note_on_c, 1, 64, 115
3, 9930, Note_on_c, 1, 61, 114
3, 9931, Control_c, 1, 1, 2
3, 9933, Control_c, 1, 1, 18
3, 9934, Control_c, 1, 1, 37
3, 9934, Control_c, 1, 1, 25
3, 9940, Control_c, 1, 1, 81
3, 9941, Control_c, 1, 1, 97
3, 9944, Control_c, 1, 1, 121
3, 9944, Control_c, 1, 1, 117
3, 9945, Control_c, 1, 1, 125
3, 9945, Control_c, 1, 1, 123
3, 9946, Control_c, 1, 1, 127
3, 9947, Control_c, 1, 1, 125
3, 9949, Control_c, 1, 1, 121
3, 9950, Control_c, 1, 1, 117
3, 9950, Control_c, 1, 1, 119
3, 9951, Control_c, 1, 1, 115
3, 9954, Control_c, 1, 1, 121
3, 9954, Control_c, 1, 1, 117
3, 9955, Control_c, 1, 1, 123
3, 9956, Control_c, 1, 1, 127
3, 9956, Control_c, 1, 1, 125
3, 9965, Control_c, 1, 1, 121
3, 9966, Control_c, 1, 1, 107
3, 9966, Control_c, 1, 1, 113
3, 9968, Control_c, 1, 1, 99
3, 9969, Control_c, 1, 1, 87
3, 9969, Control_c, 1, 1, 93
3, 9970, Control_c, 1, 1, 81
3, 9970, Control_c, 1, 1, 84
3, 9971, Control_c, 1, 1, 78
3, 9972, Control_c, 1, 1, 70
3, 9972, Control_c, 1, 1, 75
3, 9973, Note_on_c, 1, 61, 0
3, 9973, Note_on_c, 1, 64, 0
3, 9974, Control_c, 1, 1, 57
3, 9974, Control_c, 1, 1, 64
3, 9975, Control_c, 1, 1, 50
3, 9976, Control_c, 1, 1, 35
3, 9976, Control_c, 1, 1, 42
3, 9977, Control_c, 1, 1, 26
3, 9979, Control_c, 1, 1, 8
3, 9979, Control_c, 1, 1, 17
3, 9980, Control_c, 1, 1, 0
3, 9980, Control_c, 1, 1, 2
3, 9990, Note_on_c, 1, 66, 82
3, 9990, Note_on_c, 1, 62, 99
3, 10004, Note_on_c, 1, 62, 0
3, 10012, Note_on_c, 1, 66, 0
3, 10110, Note_on_c, 1, 62, 102
3, 10110, Note_on_c, 1, 59, 91
3, 10117, Note_on_c, 1, 59, 0
3, 10125, Note_on_c, 1, 62, 0
3, 10200, Note_on_c, 1, 57, 93
3, 10200, Note_on_c, 1, 62, 104
3, 10215, Note_on_c, 1, 57, 0
3, 10222, Note_on_c, 1, 62, 0
3, 10320, Note_on_c, 1, 59, 90
3, 10320, Note_on_c, 1, 62, 97
3, 10335, Note_on_c, 1, 62, 0
3, 10335, Note_on_c, 1, 59, 0
3, 10407, Control_c, 1, 1, 9
3, 10409, Control_c, 1, 1, 36
3, 10409, Control_c, 1, 1, 23
3, 10410, Control_c, 1, 1, 51
3, 10410, Note_on_c, 1, 57, 106
3, 10410, Note_on_c, 1, 62, 106
3, 10412, Control_c, 1, 1, 77
3, 10413, Control_c, 1, 1, 105
3, 10413, Control_c, 1, 1, 87
3, 10414, Control_c, 1, 1, 127
3, 10414, Control_c, 1, 1, 119
3, 10452, Control_c, 1, 1, 125
3, 10454, Control_c, 1, 1, 99
3, 10454, Control_c, 1, 1, 111
3, 10455, Control_c, 1, 1, 84
3, 10456, Control_c, 1, 1, 61
3, 10456, Control_c, 1, 1, 74
3, 10457, Control_c, 1, 1, 47
3, 10458, Control_c, 1, 1, 21
3, 10458, Control_c, 1, 1, 34
3, 10460, Control_c, 1, 1, 0
3, 10460, Control_c, 1, 1, 8
3, 10461, Note_on_c, 1, 57, 0
3, 10470, Note_on_c, 1, 59, 79
3, 10476, Note_on_c, 1, 62, 0
3, 10485, Note_on_c, 1, 59, 0
3, 10590, Note_on_c, 1, 62, 93
3, 10590, Note_on_c, 1, 59, 88
3, 10597, Note_on_c, 1, 59, 0
3, 10605, Note_on_c, 1, 62, 0
3, 10680, Note_on_c, 1, 57, 91
3, 10680, Note_on_c, 1, 62, 102
3, 10688, Note_on_c, 1, 57, 0
3, 10695, Note_on_c, 1, 62, 0
3, 10800, Note_on_c, 1, 59, 95
3, 10800, Note_on_c, 1, 62, 99
3, 10814, Note_on_c, 1, 62, 0
3, 10814, Note_on_c, 1, 59, 0
3, 10885, Control_c, 1, 1, 1
3, 10886, Control_c, 1, 1, 16
3, 10886, Control_c, 1, 1, 9
3, 10887, Control_c, 1, 1, 29
3, 10887, Control_c, 1, 1, 23
3, 10889, Control_c, 1, 1, 34
3, 10890, Note_on_c, 1, 57, 102
3, 10890, Note_on_c, 1, 62, 104
3, 10892, Control_c, 1, 1, 43
3, 10892, Control_c, 1, 1, 39
3, 10894, Control_c, 1, 1, 56
3, 10894, Control_c, 1, 1, 52
3, 10894, Control_c, 1, 1, 48
3, 10896, Control_c, 1, 1, 80
3, 10900, Control_c, 1, 1, 87
3, 10900, Control_c, 1, 1, 86
3, 10904, Control_c, 1, 1, 86
3, 10905, Control_c, 1, 1, 82
3, 10905, Control_c, 1, 1, 84
3, 10906, Control_c, 1, 1, 75
3, 10906, Control_c, 1, 1, 79
3, 10907, Control_c, 1, 1, 71
3, 10909, Control_c, 1, 1, 63
3, 10909, Control_c, 1, 1, 67
3, 10910, Control_c, 1, 1, 55
3, 10910, Control_c, 1, 1, 59
3, 10911, Control_c, 1, 1, 52
3, 10912, Control_c, 1, 1, 46
3, 10912, Control_c, 1, 1, 49
3, 10914, Control_c, 1, 1, 41
3, 10914, Control_c, 1, 1, 44
3, 10915, Control_c, 1, 1, 35
3, 10915, Control_c, 1, 1, 38
3, 10916, Control_c, 1, 1, 32
3, 10917, Control_c, 1, 1, 27
3, 10917, Control_c, 1, 1, 30
3, 10919, Control_c, 1, 1, 21
3, 10919, Control_c, 1, 1, 24
3, 10920, Control_c, 1, 1, 18
3, 10922, Control_c, 1, 1, 10
3, 10922, Control_c, 1, 1, 14
3, 10923, Control_c, 1, 1, 5
3, 10924, Control_c, 1, 1, 0
3, 10924, Control_c, 1, 1, 1
3, 10934, Note_on_c, 1, 57, 0
3, 10941, Note_on_c, 1, 62, 0
3, 10950, Note_on_c, 1, 59, 91
3, 10950, Note_on_c, 1, 62, 71
3, 10965, Note_on_c, 1, 62, 0
3, 10965, Note_on_c, 1, 59, 0
3, 11040, Control_c, 1, 10, 64
3, 11070, Note_on_c, 1, 60, 102
3, 11070, Note_on_c, 1, 64, 106
3, 11085, Note_on_c, 1, 64, 0
3, 11085, Note_on_c, 1, 60, 0
3, 11160, Note_on_c, 1, 64, 99
3, 11160, Note_on_c, 1, 59, 88
3, 11175, Note_on_c, 1, 59, 0
3, 11175, Note_on_c, 1, 64, 0
3, 11280, Note_on_c, 1, 60, 91
3, 11280, Note_on_c, 1, 64, 102
3, 11294, Note_on_c, 1, 64, 0
3, 11294, Note_on_c, 1, 60, 0
3, 11370, Note_on_c, 1, 64, 78
3, 11370, Note_on_c, 1, 59, 104
3, 11422, Note_on_c, 1, 59, 0
3, 11430, Note_on_c, 1, 60, 95
3, 11437, Note_on_c, 1, 64, 0
3, 11445, Note_on_c, 1, 60, 0
3, 11550, Note_on_c, 1, 65, 104
3, 11550, Note_on_c, 1, 60, 109
3, 11565, Note_on_c, 1, 60, 0
3, 11565, Note_on_c, 1, 65, 0
3, 11640, Note_on_c, 1, 65, 95
3, 11640, Note_on_c, 1, 60, 109
3, 11655, Note_on_c, 1, 60, 0
3, 11663, Note_on_c, 1, 65, 0
3, 11790, Note_on_c, 1, 58, 119
3, 11790, Note_on_c, 1, 62, 106
3, 11805, Note_on_c, 1, 62, 0
3, 11805, Note_on_c, 1, 58, 0
3, 11880, Note_on_c, 1, 58, 124
3, 11880, Note_on_c, 1, 62, 112
3, 11896, Note_on_c, 1, 62, 0
3, 11896, Note_on_c, 1, 58, 0
3, 12001, Program_c, 1, 28
3, 12001, Control_c, 1, 10, 82
3, 12030, Note_on_c, 1, 59, 122
3, 12037, Note_on_c, 1, 59, 0
3, 12120, Note_on_c, 1, 57, 122
3, 12142, Note_on_c, 1, 57, 0
3, 12204, Control_c, 1, 10, 91
3, 12205, Control_c, 1, 10, 82
3, 12240, Note_on_c, 1, 54, 124
3, 12255, Note_on_c, 1, 54, 0
3, 12300, Note_on_c, 1, 54, 124
3, 12315, Note_on_c, 1, 54, 0
3, 12328, Control_c, 1, 1, 20
3, 12328, Control_c, 1, 1, 8
3, 12329, Control_c, 1, 1, 32
3, 12331, Control_c, 1, 1, 65
3, 12331, Control_c, 1, 1, 57
3, 12331, Control_c, 1, 1, 45
3, 12332, Control_c, 1, 1, 71
3, 12333, Control_c, 1, 1, 83
3, 12333, Control_c, 1, 1, 78
3, 12334, Control_c, 1, 1, 86
3, 12335, Control_c, 1, 1, 97
3, 12335, Control_c, 1, 1, 93
3, 12336, Control_c, 1, 1, 103
3, 12337, Control_c, 1, 1, 107
3, 12338, Control_c, 1, 1, 115
3, 12338, Control_c, 1, 1, 111
3, 12339, Control_c, 1, 1, 117
3, 12340, Control_c, 1, 1, 123
3, 12340, Control_c, 1, 1, 121
3, 12341, Control_c, 1, 1, 125
3, 12342, Control_c, 1, 1, 127
3, 12360, Note_on_c, 1, 55, 124
3, 12375, Note_on_c, 1, 55, 0
3, 12390, Control_c, 1, 1, 125
3, 12392, Control_c, 1, 1, 121
3, 12393, Control_c, 1, 1, 107
3, 12393, Control_c, 1, 1, 113
3, 12393, Control_c, 1, 1, 117
3, 12394, Control_c, 1, 1, 101
3, 12395, Control_c, 1, 1, 97
3, 12396, Control_c, 1, 1, 89
3, 12396, Control_c, 1, 1, 93
3, 12397, Control_c, 1, 1, 84
3, 12397, Control_c, 1, 1, 86
3, 12399, Control_c, 1, 1, 82
3, 12400, Control_c, 1, 1, 81
3, 12401, Control_c, 1, 1, 82
3, 12402, Control_c, 1, 1, 83
3, 12410, Control_c, 1, 1, 84
3, 12411, Control_c, 1, 1, 85
3, 12412, Control_c, 1, 1, 87
3, 12412, Control_c, 1, 1, 86
3, 12414, Control_c, 1, 1, 93
3, 12414, Control_c, 1, 1, 91
3, 12415, Control_c, 1, 1, 95
3, 12416, Control_c, 1, 1, 97
3, 12420, Note_on_c, 1, 56, 124
3, 12424, Control_c, 1, 1, 89
3, 12424, Control_c, 1, 1, 93
3, 12425, Control_c, 1, 1, 84
3, 12425, Control_c, 1, 1, 86
3, 12426, Control_c, 1, 1, 81
3, 12427, Control_c, 1, 1, 74
3, 12427, Control_c, 1, 1, 78
3, 12429, Control_c, 1, 1, 66
3, 12429, Control_c, 1, 1, 70
3, 12430, Control_c, 1, 1, 61
3, 12431, Control_c, 1, 1, 52
3, 12431, Control_c, 1, 1, 57
3, 12432, Control_c, 1, 1, 44
3, 12432, Control_c, 1, 1, 48
3, 12434, Control_c, 1, 1, 39
3, 12435, Note_on_c, 1, 56, 0
3, 12435, Control_c, 1, 1, 28
3, 12435, Control_c, 1, 1, 34
3, 12436, Control_c, 1, 1, 15
3, 12436, Control_c, 1, 1, 21
3, 12437, Control_c, 1, 1, 10
3, 12439, Control_c, 1, 1, 2
3, 12439, Control_c, 1, 1, 5
3, 12440, Control_c, 1, 1, 0
3, 12490, Control_c, 1, 10, 109
3, 12490, Control_c, 1, 10, 100
3, 12510, Note_on_c, 1, 59, 112
3, 12532, Note_on_c, 1, 59, 0
3, 12600, Note_on_c, 1, 57, 109
3, 12616, Note_on_c, 1, 57, 0
3, 12664, Control_c, 1, 10, 91
3, 12720, Note_on_c, 1, 54, 119
3, 12735, Note_on_c, 1, 54, 0
3, 12810, Note_on_c, 1, 55, 122
3, 12865, Control_c, 1, 1, 3
3, 12865, Control_c, 1, 1, 1
3, 12866, Control_c, 1, 1, 5
3, 12867, Control_c, 1, 1, 9
3, 12867, Control_c, 1, 1, 7
3, 12869, Control_c, 1, 1, 14
3, 12869, Control_c, 1, 1, 11
3, 12870, Control_c, 1, 1, 18
3, 12870, Control_c, 1, 1, 16
3, 12872, Control_c, 1, 1, 22
3, 12872, Control_c, 1, 1, 20
3, 12873, Control_c, 1, 1, 24
3, 12874, Control_c, 1, 1, 28
3, 12874, Control_c, 1, 1, 26
3, 12875, Control_c, 1, 1, 30
3, 12876, Control_c, 1, 1, 34
3, 12876, Control_c, 1, 1, 32
3, 12877, Control_c, 1, 1, 37
3, 12877, Control_c, 1, 1, 36
3, 12879, Control_c, 1, 1, 40
3, 12879, Control_c, 1, 1, 38
3, 12880, Control_c, 1, 1, 42
3, 12881, Control_c, 1, 1, 44
3, 12881, Control_c, 1, 1, 43
3, 12882, Control_c, 1, 1, 45
3, 12884, Control_c, 1, 1, 48
3, 12884, Control_c, 1, 1, 46
3, 12885, Control_c, 1, 1, 50
3, 12885, Control_c, 1, 1, 49
3, 12886, Control_c, 1, 1, 51
3, 12887, Control_c, 1, 1, 53
3, 12887, Control_c, 1, 1, 52
3, 12889, Control_c, 1, 1, 55
3, 12889, Control_c, 1, 1, 54
3, 12890, Control_c, 1, 1, 56
3, 12891, Control_c, 1, 1, 57
3, 12892, Control_c, 1, 1, 58
3, 12894, Control_c, 1, 1, 59
3, 12896, Control_c, 1, 1, 60
3, 12902, Control_c, 1, 1, 56
3, 12902, Control_c, 1, 1, 57
3, 12902, Control_c, 1, 1, 58
3, 12904, Control_c, 1, 1, 54
3, 12904, Control_c, 1, 1, 55
3, 12905, Control_c, 1, 1, 53
3, 12906, Control_c, 1, 1, 52
3, 12909, Control_c, 1, 1, 51
3, 12915, Control_c, 1, 1, 50
3, 12919, Control_c, 1, 1, 48
3, 12919, Control_c, 1, 1, 49
3, 12920, Control_c, 1, 1, 47
3, 12922, Control_c, 1, 1, 46
3, 12924, Control_c, 1, 1, 44
3, 12924, Control_c, 1, 1, 45
3, 12925, Control_c, 1, 1, 43
3, 12926, Control_c, 1, 1, 42
3, 12927, Control_c, 1, 1, 40
3, 12927, Control_c, 1, 1, 41
3, 12930, Control_c, 1, 1, 38
3, 12930, Control_c, 1, 1, 39
3, 12932, Control_c, 1, 1, 36
3, 12932, Control_c, 1, 1, 37
3, 12934, Control_c, 1, 1, 37
3, 12935, Control_c, 1, 1, 41
3, 12935, Control_c, 1, 1, 38
3, 12936, Control_c, 1, 1, 43
3, 12937, Control_c, 1, 1, 45
3, 12937, Control_c, 1, 1, 44
3, 12939, Control_c, 1, 1, 46
3, 12941, Control_c, 1, 1, 48
3, 12941, Control_c, 1, 1, 47
3, 12944, Control_c, 1, 1, 47
3, 12945, Control_c, 1, 1, 44
3, 12945, Control_c, 1, 1, 46
3, 12946, Control_c, 1, 1, 36
3, 12946, Control_c, 1, 1, 40
3, 12947, Control_c, 1, 1, 30
3, 12949, Control_c, 1, 1, 18
3, 12949, Control_c, 1, 1, 24
3, 12950, Control_c, 1, 1, 5
3, 12950, Control_c, 1, 1, 11
3, 12951, Control_c, 1, 1, 0
3, 12975, Note_on_c, 1, 55, 0
3, 12990, Note_on_c, 1, 59, 91
3, 13005, Note_on_c, 1, 59, 0
3, 13080, Note_on_c, 1, 57, 104
3, 13101, Note_on_c, 1, 57, 0
3, 13200, Note_on_c, 1, 62, 115
3, 13223, Note_on_c, 1, 62, 0
3, 13290, Note_on_c, 1, 62, 122
3, 13291, Control_c, 1, 1, 1
3, 13294, Control_c, 1, 1, 78
3, 13294, Control_c, 1, 1, 66
3, 13294, Control_c, 1, 1, 51
3, 13294, Control_c, 1, 1, 34
3, 13294, Control_c, 1, 1, 15
3, 13300, Control_c, 1, 1, 127
3, 13330, Control_c, 1, 1, 123
3, 13331, Control_c, 1, 1, 117
3, 13332, Control_c, 1, 1, 107
3, 13332, Control_c, 1, 1, 111
3, 13334, Control_c, 1, 1, 97
3, 13334, Control_c, 1, 1, 103
3, 13335, Control_c, 1, 1, 86
3, 13335, Control_c, 1, 1, 91
3, 13336, Control_c, 1, 1, 83
3, 13337, Control_c, 1, 1, 72
3, 13337, Control_c, 1, 1, 78
3, 13339, Control_c, 1, 1, 53
3, 13339, Control_c, 1, 1, 63
3, 13340, Control_c, 1, 1, 43
3, 13341, Control_c, 1, 1, 21
3, 13341, Control_c, 1, 1, 32
3, 13343, Control_c, 1, 1, 3
3, 13343, Control_c, 1, 1, 12
3, 13344, Control_c, 1, 1, 0
3, 13349, Note_on_c, 1, 62, 0
3, 13350, Note_on_c, 1, 59, 91
3, 13364, Note_on_c, 1, 59, 0
3, 13445, Control_c, 1, 10, 37
3, 13470, Note_on_c, 1, 59, 87
3, 13477, Note_on_c, 1, 59, 0
3, 13560, Note_on_c, 1, 57, 104
3, 13575, Note_on_c, 1, 57, 0
3, 13680, Note_on_c, 1, 54, 119
3, 13695, Note_on_c, 1, 54, 0
3, 13770, Note_on_c, 1, 55, 118
3, 13782, Control_c, 1, 1, 9
3, 13782, Control_c, 1, 1, 4
3, 13784, Control_c, 1, 1, 17
3, 13784, Control_c, 1, 1, 13
3, 13785, Control_c, 1, 1, 21
3, 13786, Control_c, 1, 1, 28
3, 13786, Control_c, 1, 1, 24
3, 13787, Control_c, 1, 1, 33
3, 13787, Control_c, 1, 1, 30
3, 13789, Control_c, 1, 1, 36
3, 13790, Control_c, 1, 1, 42
3, 13790, Control_c, 1, 1, 39
3, 13791, Control_c, 1, 1, 49
3, 13791, Control_c, 1, 1, 46
3, 13792, Control_c, 1, 1, 53
3, 13794, Control_c, 1, 1, 61
3, 13794, Control_c, 1, 1, 57
3, 13795, Control_c, 1, 1, 69
3, 13795, Control_c, 1, 1, 65
3, 13796, Control_c, 1, 1, 72
3, 13797, Control_c, 1, 1, 78
3, 13799, Control_c, 1, 1, 82
3, 13799, Control_c, 1, 1, 80
3, 13801, Control_c, 1, 1, 86
3, 13801, Control_c, 1, 1, 84
3, 13804, Control_c, 1, 1, 93
3, 13804, Control_c, 1, 1, 91
3, 13804, Control_c, 1, 1, 89
3, 13804, Control_c, 1, 1, 87
3, 13815, Control_c, 1, 1, 113
3, 13815, Control_c, 1, 1, 111
3, 13817, Control_c, 1, 1, 115
3, 13821, Control_c, 1, 1, 117
3, 13825, Control_c, 1, 1, 119
3, 13831, Control_c, 1, 1, 117
3, 13832, Control_c, 1, 1, 115
3, 13834, Control_c, 1, 1, 113
3, 13835, Control_c, 1, 1, 111
3, 13836, Control_c, 1, 1, 107
3, 13836, Control_c, 1, 1, 109
3, 13838, Control_c, 1, 1, 103
3, 13838, Control_c, 1, 1, 105
3, 13839, Control_c, 1, 1, 101
3, 13840, Control_c, 1, 1, 95
3, 13840, Control_c, 1, 1, 99
3, 13841, Control_c, 1, 1, 91
3, 13841, Control_c, 1, 1, 93
3, 13842, Control_c, 1, 1, 89
3, 13844, Control_c, 1, 1, 85
3, 13844, Control_c, 1, 1, 86
3, 13845, Control_c, 1, 1, 82
3, 13845, Control_c, 1, 1, 83
3, 13846, Control_c, 1, 1, 80
3, 13846, Control_c, 1, 1, 81
3, 13847, Control_c, 1, 1, 78
3, 13849, Control_c, 1, 1, 75
3, 13849, Control_c, 1, 1, 76
3, 13850, Control_c, 1, 1, 73
3, 13851, Control_c, 1, 1, 69
3, 13851, Control_c, 1, 1, 72
3, 13852, Control_c, 1, 1, 62
3, 13852, Control_c, 1, 1, 66
3, 13854, Control_c, 1, 1, 57
3, 13855, Control_c, 1, 1, 47
3, 13855, Control_c, 1, 1, 52
3, 13856, Control_c, 1, 1, 39
3, 13856, Control_c, 1, 1, 42
3, 13857, Control_c, 1, 1, 37
3, 13859, Control_c, 1, 1, 34
3, 13859, Control_c, 1, 1, 35
3, 13866, Control_c, 1, 1, 29
3, 13866, Control_c, 1, 1, 33
3, 13869, Control_c, 1, 1, 16
3, 13869, Control_c, 1, 1, 21
3, 13869, Control_c, 1, 1, 26
3, 13870, Control_c, 1, 1, 7
3, 13870, Control_c, 1, 1, 12
3, 13871, Control_c, 1, 1, 0
3, 13871, Control_c, 1, 1, 4
3, 13904, Note_on_c, 1, 55, 0
3, 13922, Control_c, 1, 10, 91
3, 13950, Note_on_c, 1, 59, 95
3, 13957, Note_on_c, 1, 59, 0
3, 14040, Note_on_c, 1, 57, 95
3, 14062, Note_on_c, 1, 57, 0
3, 14160, Note_on_c, 1, 59, 95
3, 14168, Note_on_c, 1, 59, 0
3, 14190, Note_on_c, 1, 59, 95
3, 14205, Note_on_c, 1, 59, 95
3, 14210, Note_on_c, 1, 59, 0
3, 14213, Note_on_c, 1, 59, 0
3, 14220, Note_on_c, 1, 57, 95
3, 14240, Note_on_c, 1, 57, 0
3, 14250, Note_on_c, 1, 54, 95
3, 14270, Note_on_c, 1, 54, 0
3, 14280, Note_on_c, 1, 57, 95
3, 14300, Note_on_c, 1, 57, 0
3, 14310, Note_on_c, 1, 59, 95
3, 14399, Control_c, 1, 10, 37
3, 14400, Note_on_c, 1, 59, 0
3, 14430, Note_on_c, 1, 59, 104
3, 14445, Note_on_c, 1, 59, 0
3, 14520, Note_on_c, 1, 57, 109
3, 14535, Note_on_c, 1, 57, 0
3, 14640, Note_on_c, 1, 54, 119
3, 14662, Note_on_c, 1, 54, 0
3, 14730, Note_on_c, 1, 55, 125
3, 14747, Control_c, 1, 1, 4
3, 14747, Control_c, 1, 1, 2
3, 14749, Control_c, 1, 1, 11
3, 14749, Control_c, 1, 1, 7
3, 14750, Control_c, 1, 1, 13
3, 14751, Control_c, 1, 1, 17
3, 14751, Control_c, 1, 1, 15
3, 14752, Control_c, 1, 1, 20
3, 14752, Control_c, 1, 1, 19
3, 14754, Control_c, 1, 1, 22
3, 14755, Control_c, 1, 1, 26
3, 14755, Control_c, 1, 1, 24
3, 14756, Control_c, 1, 1, 28
3, 14756, Control_c, 1, 1, 27
3, 14757, Control_c, 1, 1, 30
3, 14759, Control_c, 1, 1, 33
3, 14759, Control_c, 1, 1, 31
3, 14761, Control_c, 1, 1, 36
3, 14761, Control_c, 1, 1, 34
3, 14763, Control_c, 1, 1, 41
3, 14763, Control_c, 1, 1, 39
3, 14763, Control_c, 1, 1, 37
3, 14764, Control_c, 1, 1, 42
3, 14765, Control_c, 1, 1, 45
3, 14765, Control_c, 1, 1, 44
3, 14766, Control_c, 1, 1, 48
3, 14766, Control_c, 1, 1, 47
3, 14768, Control_c, 1, 1, 50
3, 14768, Control_c, 1, 1, 49
3, 14769, Control_c, 1, 1, 51
3, 14770, Control_c, 1, 1, 53
3, 14770, Control_c, 1, 1, 52
3, 14771, Control_c, 1, 1, 55
3, 14771, Control_c, 1, 1, 54
3, 14772, Control_c, 1, 1, 57
3, 14774, Control_c, 1, 1, 59
3, 14774, Control_c, 1, 1, 58
3, 14775, Control_c, 1, 1, 61
3, 14775, Control_c, 1, 1, 60
3, 14776, Control_c, 1, 1, 62
3, 14777, Control_c, 1, 1, 63
3, 14778, Control_c, 1, 1, 65
3, 14779, Control_c, 1, 1, 67
3, 14779, Control_c, 1, 1, 66
3, 14780, Control_c, 1, 1, 68
3, 14781, Control_c, 1, 1, 71
3, 14781, Control_c, 1, 1, 70
3, 14782, Control_c, 1, 1, 74
3, 14782, Control_c, 1, 1, 73
3, 14784, Control_c, 1, 1, 76
3, 14785, Control_c, 1, 1, 78
3, 14785, Control_c, 1, 1, 77
3, 14786, Control_c, 1, 1, 80
3, 14786, Control_c, 1, 1, 79
3, 14789, Control_c, 1, 1, 81
3, 14790, Control_c, 1, 1, 82
3, 14792, Control_c, 1, 1, 83
3, 14794, Control_c, 1, 1, 84
3, 14799, Control_c, 1, 1, 85
3, 14805, Control_c, 1, 1, 84
3, 14806, Control_c, 1, 1, 83
3, 14812, Control_c, 1, 1, 80
3, 14812, Control_c, 1, 1, 82
3, 14814, Control_c, 1, 1, 79
3, 14815, Control_c, 1, 1, 78
3, 14816, Control_c, 1, 1, 77
3, 14819, Control_c, 1, 1, 75
3, 14820, Control_c, 1, 1, 72
3, 14820, Control_c, 1, 1, 74
3, 14822, Control_c, 1, 1, 66
3, 14822, Control_c, 1, 1, 68
3, 14822, Control_c, 1, 1, 70
3, 14824, Control_c, 1, 1, 62
3, 14824, Control_c, 1, 1, 64
3, 14825, Control_c, 1, 1, 58
3, 14825, Control_c, 1, 1, 60
3, 14826, Control_c, 1, 1, 57
3, 14827, Control_c, 1, 1, 52
3, 14827, Control_c, 1, 1, 55
3, 14828, Control_c, 1, 1, 50
3, 14830, Control_c, 1, 1, 47
3, 14830, Control_c, 1, 1, 49
3, 14831, Control_c, 1, 1, 44
3, 14831, Control_c, 1, 1, 46
3, 14832, Control_c, 1, 1, 38
3, 14832, Control_c, 1, 1, 41
3, 14834, Control_c, 1, 1, 34
3, 14835, Control_c, 1, 1, 25
3, 14835, Control_c, 1, 1, 29
3, 14836, Control_c, 1, 1, 17
3, 14836, Control_c, 1, 1, 20
3, 14837, Control_c, 1, 1, 13
3, 14839, Control_c, 1, 1, 6
3, 14839, Control_c, 1, 1, 9
3, 14840, Control_c, 1, 1, 0
3, 14840, Control_c, 1, 1, 3
3, 14882, Control_c, 1, 10, 91
3, 14887, Note_on_c, 1, 55, 0
3, 14910, Note_on_c, 1, 59, 104
3, 14925, Note_on_c, 1, 59, 0
3, 15000, Note_on_c, 1, 57, 112
3, 15014, Note_on_c, 1, 57, 0
3, 15120, Note_on_c, 1, 62, 115
3, 15143, Note_on_c, 1, 62, 0
3, 15210, Note_on_c, 1, 62, 115
3, 15262, Note_on_c, 1, 62, 0
3, 15270, Note_on_c, 1, 64, 97
3, 15292, Note_on_c, 1, 64, 0
3, 15362, Control_c, 1, 10, 37
3, 15390, Note_on_c, 1, 57, 118
3, 15412, Note_on_c, 1, 57, 0
3, 15480, Note_on_c, 1, 57, 122
3, 15502, Note_on_c, 1, 57, 0
3, 15600, Note_on_c, 1, 57, 124
3, 15615, Note_on_c, 1, 57, 0
3, 15690, Note_on_c, 1, 57, 125
3, 15694, Control_c, 1, 1, 7
3, 15694, Control_c, 1, 1, 1
3, 15695, Control_c, 1, 1, 11
3, 15696, Control_c, 1, 1, 16
3, 15696, Control_c, 1, 1, 14
3, 15697, Control_c, 1, 1, 19
3, 15699, Control_c, 1, 1, 22
3, 15699, Control_c, 1, 1, 21
3, 15700, Control_c, 1, 1, 25
3, 15700, Control_c, 1, 1, 24
3, 15701, Control_c, 1, 1, 27
3, 15701, Control_c, 1, 1, 26
3, 15704, Control_c, 1, 1, 28
3, 15705, Control_c, 1, 1, 29
3, 15707, Control_c, 1, 1, 30
3, 15709, Control_c, 1, 1, 31
3, 15710, Control_c, 1, 1, 32
3, 15711, Control_c, 1, 1, 33
3, 15713, Control_c, 1, 1, 34
3, 15714, Control_c, 1, 1, 35
3, 15715, Control_c, 1, 1, 33
3, 15716, Control_c, 1, 1, 27
3, 15716, Control_c, 1, 1, 31
3, 15717, Control_c, 1, 1, 24
3, 15719, Control_c, 1, 1, 14
3, 15719, Control_c, 1, 1, 19
3, 15721, Control_c, 1, 1, 7
3, 15721, Control_c, 1, 1, 10
3, 15724, Control_c, 1, 1, 0
3, 15724, Control_c, 1, 1, 1
3, 15724, Control_c, 1, 1, 4
3, 15840, Program_c, 1, 29
3, 15840, Control_c, 1, 10, 91
3, 15855, Note_on_c, 1, 57, 0
3, 15870, Note_on_c, 1, 57, 127
3, 15892, Note_on_c, 1, 57, 0
3, 15900, Note_on_c, 1, 56, 105
3, 15930, Note_on_c, 1, 56, 0
3, 15930, Note_on_c, 1, 55, 106
3, 15967, Note_on_c, 1, 55, 0
3, 15989, Control_c, 1, 10, 64
3, 15990, Note_on_c, 1, 54, 114
3, 16011, Note_on_c, 1, 54, 0
3, 16020, Note_on_c, 1, 53, 80
3, 16042, Note_on_c, 1, 53, 0
3, 16050, Note_on_c, 1, 52, 122
3, 16080, Note_on_c, 1, 52, 0
3, 17280, Control_c, 1, 93, 50
3, 17280, Control_c, 1, 0, 0
3, 17280, Control_c, 1, 32, 1
3, 17281, Program_c, 1, 29
3, 17281, Control_c, 1, 7, 105
3, 17281, Control_c, 1, 10, 90
3, 17760, Control_c, 1, 91, 120
3, 18150, Note_on_c, 1, 66, 75
3, 18172, Note_on_c, 1, 66, 0
3, 18210, Note_on_c, 1, 66, 75
3, 18218, Note_on_c, 1, 66, 0
3, 18240, Note_on_c, 1, 69, 90
3, 18255, Pitch_bend_c, 1, 16383
3, 18328, Pitch_bend_c, 1, 8192
3, 18330, Note_on_c, 1, 69, 85
3, 18339, Note_on_c, 1, 69, 0
3, 18365, Note_on_c, 1, 69, 0
3, 20070, Note_on_c, 1, 66, 65
3, 20084, Note_on_c, 1, 66, 0
3, 20130, Note_on_c, 1, 66, 80
3, 20145, Note_on_c, 1, 66, 0
3, 20160, Note_on_c, 1, 69, 93
3, 20175, Pitch_bend_c, 1, 16383
3, 20182, Note_on_c, 1, 69, 0
3, 20190, Pitch_bend_c, 1, 8192
3, 20190, Note_on_c, 1, 66, 68
3, 20217, Note_on_c, 1, 66, 0
3, 20220, Note_on_c, 1, 69, 90
3, 20227, Note_on_c, 1, 69, 0
3, 20250, Note_on_c, 1, 69, 95
3, 20370, Note_on_c, 1, 69, 0
3, 20370, Note_on_c, 1, 71, 83
3, 20422, Pitch_bend_c, 1, 8063
3, 20424, Pitch_bend_c, 1, 7999
3, 20426, Pitch_bend_c, 1, 7870
3, 20427, Pitch_bend_c, 1, 7742
3, 20429, Pitch_bend_c, 1, 7645
3, 20431, Pitch_bend_c, 1, 7581
3, 20432, Pitch_bend_c, 1, 7324
3, 20434, Pitch_bend_c, 1, 7099
3, 20438, Pitch_bend_c, 1, 6392
3, 20438, Pitch_bend_c, 1, 6617
3, 20440, Pitch_bend_c, 1, 6071
3, 20441, Pitch_bend_c, 1, 5750
3, 20442, Pitch_bend_c, 1, 5525
3, 20444, Pitch_bend_c, 1, 5300
3, 20445, Note_on_c, 1, 71, 0
3, 20445, Pitch_bend_c, 1, 5043
3, 20447, Pitch_bend_c, 1, 4786
3, 20449, Pitch_bend_c, 1, 4497
3, 20450, Pitch_bend_c, 1, 4112
3, 20451, Pitch_bend_c, 1, 3726
3, 20454, Pitch_bend_c, 1, 3437
3, 20455, Pitch_bend_c, 1, 3116
3, 20456, Pitch_bend_c, 1, 2730
3, 20457, Pitch_bend_c, 1, 2152
3, 20459, Pitch_bend_c, 1, 1574
3, 20461, Pitch_bend_c, 1, 1060
3, 20462, Pitch_bend_c, 1, 481
3, 20463, Pitch_bend_c, 1, 96
3, 20465, Pitch_bend_c, 1, 0
3, 20537, Pitch_bend_c, 1, 8192
3, 21030, Note_on_c, 1, 69, 62
3, 21045, Note_on_c, 1, 69, 0
3, 21045, Note_on_c, 1, 71, 66
3, 21060, Note_on_c, 1, 74, 73
3, 21067, Note_on_c, 1, 71, 0
3, 21090, Note_on_c, 1, 76, 84
3, 21104, Note_on_c, 1, 74, 0
3, 21127, Pitch_bend_c, 1, 8513
3, 21129, Pitch_bend_c, 1, 8641
3, 21130, Pitch_bend_c, 1, 8802
3, 21131, Pitch_bend_c, 1, 8963
3, 21132, Pitch_bend_c, 1, 9123
3, 21135, Pitch_bend_c, 1, 9316
3, 21136, Pitch_bend_c, 1, 9573
3, 21137, Pitch_bend_c, 1, 9734
3, 21138, Pitch_bend_c, 1, 9991
3, 21140, Pitch_bend_c, 1, 10151
3, 21142, Pitch_bend_c, 1, 10408
3, 21144, Pitch_bend_c, 1, 10665
3, 21145, Pitch_bend_c, 1, 10890
3, 21146, Pitch_bend_c, 1, 11115
3, 21149, Pitch_bend_c, 1, 11340
3, 21151, Pitch_bend_c, 1, 11500
3, 21152, Pitch_bend_c, 1, 11693
3, 21154, Pitch_bend_c, 1, 11886
3, 21155, Pitch_bend_c, 1, 12143
3, 21156, Pitch_bend_c, 1, 12336
3, 21157, Pitch_bend_c, 1, 12561
3, 21159, Pitch_bend_c, 1, 12785
3, 21160, Pitch_bend_c, 1, 12978
3, 21162, Pitch_bend_c, 1, 13171
3, 21164, Pitch_bend_c, 1, 13364
3, 21165, Pitch_bend_c, 1, 13556
3, 21166, Pitch_bend_c, 1, 13781
3, 21167, Pitch_bend_c, 1, 14103
3, 21170, Pitch_bend_c, 1, 14231
3, 21171, Pitch_bend_c, 1, 14295
3, 21172, Pitch_bend_c, 1, 14424
3, 21174, Pitch_bend_c, 1, 14617
3, 21176, Pitch_bend_c, 1, 14681
3, 21177, Pitch_bend_c, 1, 14809
3, 21179, Pitch_bend_c, 1, 14938
3, 21180, Pitch_bend_c, 1, 15195
3, 21182, Pitch_bend_c, 1, 15516
3, 21184, Pitch_bend_c, 1, 15709
3, 21185, Pitch_bend_c, 1, 15966
3, 21186, Pitch_bend_c, 1, 16159
3, 21187, Pitch_bend_c, 1, 16287
3, 21190, Pitch_bend_c, 1, 16383
3, 21500, Pitch_bend_c, 1, 16351
3, 21502, Pitch_bend_c, 1, 16287
3, 21504, Pitch_bend_c, 1, 16223
3, 21507, Pitch_bend_c, 1, 16159
3, 21509, Pitch_bend_c, 1, 16094
3, 21521, Pitch_bend_c, 1, 16030
3, 21524, Pitch_bend_c, 1, 15966
3, 21525, Pitch_bend_c, 1, 15902
3, 21531, Pitch_bend_c, 1, 15773
3, 21535, Pitch_bend_c, 1, 15709
3, 21537, Pitch_bend_c, 1, 15645
3, 21546, Pitch_bend_c, 1, 15580
3, 21548, Pitch_bend_c, 1, 15516
3, 21549, Pitch_bend_c, 1, 15388
3, 21550, Pitch_bend_c, 1, 15195
3, 21551, Pitch_bend_c, 1, 15002
3, 21552, Pitch_bend_c, 1, 14809
3, 21555, Pitch_bend_c, 1, 14617
3, 21556, Pitch_bend_c, 1, 14552
3, 21557, Pitch_bend_c, 1, 14360
3, 21559, Pitch_bend_c, 1, 14167
3, 21561, Pitch_bend_c, 1, 13846
3, 21563, Pitch_bend_c, 1, 13556
3, 21564, Pitch_bend_c, 1, 13299
3, 21565, Pitch_bend_c, 1, 13010
3, 21567, Pitch_bend_c, 1, 12561
3, 21568, Pitch_bend_c, 1, 8192
3, 21570, Note_on_c, 1, 76, 0
3, 21570, Note_on_c, 1, 74, 67
3, 21776, Pitch_bend_c, 1, 8063
3, 21777, Pitch_bend_c, 1, 7934
3, 21779, Pitch_bend_c, 1, 7710
3, 21780, Pitch_bend_c, 1, 7581
3, 21782, Pitch_bend_c, 1, 7324
3, 21784, Pitch_bend_c, 1, 7067
3, 21785, Pitch_bend_c, 1, 6906
3, 21786, Pitch_bend_c, 1, 6682
3, 21789, Pitch_bend_c, 1, 6489
3, 21790, Pitch_bend_c, 1, 6168
3, 21791, Pitch_bend_c, 1, 6039
3, 21792, Pitch_bend_c, 1, 5750
3, 21795, Note_on_c, 1, 74, 0
3, 21795, Pitch_bend_c, 1, 5525
3, 21796, Pitch_bend_c, 1, 5300
3, 21797, Pitch_bend_c, 1, 5107
3, 21799, Pitch_bend_c, 1, 4818
3, 21800, Pitch_bend_c, 1, 4690
3, 21802, Pitch_bend_c, 1, 4529
3, 21804, Pitch_bend_c, 1, 4369
3, 21805, Pitch_bend_c, 1, 4208
3, 21806, Pitch_bend_c, 1, 4144
3, 21809, Pitch_bend_c, 1, 4079
3, 21811, Pitch_bend_c, 1, 4047
3, 21812, Pitch_bend_c, 1, 4015
3, 21836, Pitch_bend_c, 1, 8192
3, 22290, Note_on_c, 1, 71, 70
3, 22311, Note_on_c, 1, 71, 0
3, 22320, Note_on_c, 1, 74, 77
3, 22365, Note_on_c, 1, 74, 0
3, 22380, Note_on_c, 1, 74, 77
3, 22395, Note_on_c, 1, 74, 0
3, 22410, Note_on_c, 1, 76, 97
3, 22436, Pitch_bend_c, 1, 8898
3, 22437, Pitch_bend_c, 1, 9637
3, 22439, Pitch_bend_c, 1, 10472
3, 22441, Pitch_bend_c, 1, 11404
3, 22443, Pitch_bend_c, 1, 12239
3, 22444, Pitch_bend_c, 1, 12914
3, 22447, Pitch_bend_c, 1, 14295
3, 22447, Pitch_bend_c, 1, 13846
3, 22450, Pitch_bend_c, 1, 14681
3, 22451, Pitch_bend_c, 1, 14809
3, 22452, Pitch_bend_c, 1, 14874
3, 22454, Note_on_c, 1, 76, 0
3, 22455, Pitch_bend_c, 1, 14745
3, 22457, Pitch_bend_c, 1, 14488
3, 22459, Pitch_bend_c, 1, 13974
3, 22460, Pitch_bend_c, 1, 13267
3, 22461, Pitch_bend_c, 1, 12561
3, 22464, Pitch_bend_c, 1, 11597
3, 22465, Pitch_bend_c, 1, 10537
3, 22466, Pitch_bend_c, 1, 9380
3, 22467, Pitch_bend_c, 1, 8063
3, 22470, Note_on_c, 1, 71, 83
3, 22471, Pitch_bend_c, 1, 8192
3, 22484, Note_on_c, 1, 71, 0
3, 22530, Note_on_c, 1, 74, 95
3, 22590, Note_on_c, 1, 76, 74
3, 22597, Note_on_c, 1, 74, 0
3, 22718, Pitch_bend_c, 1, 8481
3, 22720, Pitch_bend_c, 1, 8513
3, 22721, Pitch_bend_c, 1, 8706
3, 22725, Pitch_bend_c, 1, 8802
3, 22726, Pitch_bend_c, 1, 8834
3, 22727, Pitch_bend_c, 1, 8866
3, 22729, Pitch_bend_c, 1, 8898
3, 22730, Pitch_bend_c, 1, 8930
3, 22732, Pitch_bend_c, 1, 8995
3, 22734, Pitch_bend_c, 1, 9027
3, 22735, Pitch_bend_c, 1, 9059
3, 22736, Pitch_bend_c, 1, 9123
3, 22737, Pitch_bend_c, 1, 9155
3, 22740, Pitch_bend_c, 1, 9220
3, 22742, Pitch_bend_c, 1, 9412
3, 22742, Pitch_bend_c, 1, 9284
3, 22744, Pitch_bend_c, 1, 9541
3, 22747, Pitch_bend_c, 1, 9605
3, 22749, Pitch_bend_c, 1, 9637
3, 22751, Pitch_bend_c, 1, 9669
3, 22756, Pitch_bend_c, 1, 9734
3, 22757, Pitch_bend_c, 1, 9830
3, 22760, Pitch_bend_c, 1, 9926
3, 22761, Pitch_bend_c, 1, 9991
3, 22762, Pitch_bend_c, 1, 10055
3, 22764, Pitch_bend_c, 1, 10151
3, 22766, Pitch_bend_c, 1, 10183
3, 22767, Pitch_bend_c, 1, 10280
3, 22769, Pitch_bend_c, 1, 10344
3, 22771, Pitch_bend_c, 1, 10376
3, 22776, Pitch_bend_c, 1, 10440
3, 22777, Pitch_bend_c, 1, 10472
3, 22780, Pitch_bend_c, 1, 10505
3, 22781, Pitch_bend_c, 1, 10537
3, 22782, Pitch_bend_c, 1, 10601
3, 22784, Pitch_bend_c, 1, 10665
3, 22785, Pitch_bend_c, 1, 10762
3, 22787, Pitch_bend_c, 1, 10890
3, 22789, Pitch_bend_c, 1, 10986
3, 22790, Pitch_bend_c, 1, 11083
3, 22791, Pitch_bend_c, 1, 11147
3, 22792, Pitch_bend_c, 1, 11211
3, 22795, Pitch_bend_c, 1, 11276
3, 22796, Pitch_bend_c, 1, 11340
3, 22797, Pitch_bend_c, 1, 11372
3, 22799, Pitch_bend_c, 1, 11404
3, 22801, Pitch_bend_c, 1, 11436
3, 22802, Pitch_bend_c, 1, 11468
3, 22804, Pitch_bend_c, 1, 11500
3, 22805, Pitch_bend_c, 1, 11533
3, 22808, Pitch_bend_c, 1, 11661
3, 22808, Pitch_bend_c, 1, 11597
3, 22810, Pitch_bend_c, 1, 11693
3, 22811, Pitch_bend_c, 1, 11725
3, 22812, Pitch_bend_c, 1, 11757
3, 22815, Pitch_bend_c, 1, 11790
3, 22821, Pitch_bend_c, 1, 11822
3, 22822, Pitch_bend_c, 1, 11886
3, 22824, Pitch_bend_c, 1, 11918
3, 22825, Pitch_bend_c, 1, 11982
3, 22826, Pitch_bend_c, 1, 12047
3, 22828, Pitch_bend_c, 1, 12143
3, 22831, Pitch_bend_c, 1, 12207
3, 22831, Pitch_bend_c, 1, 12175
3, 22834, Pitch_bend_c, 1, 12239
3, 22838, Pitch_bend_c, 1, 12304
3, 22839, Pitch_bend_c, 1, 12336
3, 22841, Pitch_bend_c, 1, 12368
3, 22842, Pitch_bend_c, 1, 12432
3, 22844, Pitch_bend_c, 1, 12496
3, 22846, Pitch_bend_c, 1, 12528
3, 22847, Pitch_bend_c, 1, 12625
3, 22849, Pitch_bend_c, 1, 12721
3, 22850, Pitch_bend_c, 1, 12785
3, 22851, Pitch_bend_c, 1, 12850
3, 22853, Pitch_bend_c, 1, 12882
3, 22855, Pitch_bend_c, 1, 12914
3, 22856, Pitch_bend_c, 1, 12946
3, 22857, Pitch_bend_c, 1, 12978
3, 22859, Pitch_bend_c, 1, 13010
3, 22860, Pitch_bend_c, 1, 13042
3, 22862, Pitch_bend_c, 1, 13107
3, 22864, Pitch_bend_c, 1, 13171
3, 22865, Pitch_bend_c, 1, 13267
3, 22866, Pitch_bend_c, 1, 13299
3, 22867, Pitch_bend_c, 1, 13364
3, 22870, Pitch_bend_c, 1, 13460
3, 22871, Pitch_bend_c, 1, 13492
3, 22872, Pitch_bend_c, 1, 13524
3, 22876, Pitch_bend_c, 1, 13556
3, 22877, Pitch_bend_c, 1, 13589
3, 22879, Pitch_bend_c, 1, 13653
3, 22880, Pitch_bend_c, 1, 13846
3, 22881, Pitch_bend_c, 1, 14038
3, 22884, Pitch_bend_c, 1, 14167
3, 22885, Pitch_bend_c, 1, 14231
3, 22886, Pitch_bend_c, 1, 14360
3, 22887, Pitch_bend_c, 1, 14488
3, 22889, Pitch_bend_c, 1, 14617
3, 22891, Pitch_bend_c, 1, 14681
3, 22892, Pitch_bend_c, 1, 14745
3, 22894, Pitch_bend_c, 1, 14809
3, 22895, Pitch_bend_c, 1, 14938
3, 22897, Pitch_bend_c, 1, 15002
3, 22898, Pitch_bend_c, 1, 15131
3, 22900, Pitch_bend_c, 1, 15259
3, 22901, Pitch_bend_c, 1, 15452
3, 22905, Pitch_bend_c, 1, 15645
3, 22906, Pitch_bend_c, 1, 15709
3, 22907, Pitch_bend_c, 1, 15902
3, 22908, Pitch_bend_c, 1, 16030
3, 22911, Pitch_bend_c, 1, 16159
3, 22913, Pitch_bend_c, 1, 16287
3, 22914, Pitch_bend_c, 1, 16351
3, 22915, Pitch_bend_c, 1, 16383
3, 23242, Note_on_c, 1, 76, 0
3, 23250, Note_on_c, 1, 81, 99
3, 23382, Pitch_bend_c, 1, 16287
3, 23385, Pitch_bend_c, 1, 16223
3, 23386, Pitch_bend_c, 1, 15966
3, 23387, Pitch_bend_c, 1, 15773
3, 23389, Pitch_bend_c, 1, 15580
3, 23390, Pitch_bend_c, 1, 15259
3, 23392, Pitch_bend_c, 1, 14874
3, 23393, Pitch_bend_c, 1, 14617
3, 23395, Pitch_bend_c, 1, 14360
3, 23396, Pitch_bend_c, 1, 14103
3, 23397, Pitch_bend_c, 1, 13781
3, 23401, Pitch_bend_c, 1, 13589
3, 23403, Pitch_bend_c, 1, 13460
3, 23403, Pitch_bend_c, 1, 13524
3, 23410, Pitch_bend_c, 1, 13428
3, 23412, Pitch_bend_c, 1, 13396
3, 23414, Pitch_bend_c, 1, 13332
3, 23415, Pitch_bend_c, 1, 13299
3, 23417, Pitch_bend_c, 1, 13267
3, 23445, Pitch_bend_c, 1, 13235
3, 23447, Pitch_bend_c, 1, 13171
3, 23449, Pitch_bend_c, 1, 13075
3, 23450, Pitch_bend_c, 1, 13010
3, 23451, Pitch_bend_c, 1, 12978
3, 23454, Pitch_bend_c, 1, 12914
3, 23455, Pitch_bend_c, 1, 12850
3, 23456, Pitch_bend_c, 1, 12818
3, 23457, Pitch_bend_c, 1, 12785
3, 23459, Pitch_bend_c, 1, 12721
3, 23463, Pitch_bend_c, 1, 12593
3, 23463, Pitch_bend_c, 1, 12657
3, 23465, Pitch_bend_c, 1, 12528
3, 23469, Pitch_bend_c, 1, 12079
3, 23470, Pitch_bend_c, 1, 11854
3, 23471, Pitch_bend_c, 1, 11533
3, 23472, Pitch_bend_c, 1, 11340
3, 23475, Pitch_bend_c, 1, 11083
3, 23477, Pitch_bend_c, 1, 10665
3, 23477, Pitch_bend_c, 1, 10858
3, 23479, Pitch_bend_c, 1, 10440
3, 23481, Pitch_bend_c, 1, 10248
3, 23483, Pitch_bend_c, 1, 10023
3, 23484, Pitch_bend_c, 1, 9766
3, 23485, Pitch_bend_c, 1, 9541
3, 23486, Pitch_bend_c, 1, 9187
3, 23489, Pitch_bend_c, 1, 8192
3, 23490, Note_on_c, 1, 78, 76
3, 23496, Note_on_c, 1, 81, 0
3, 23550, Note_on_c, 1, 78, 0
3, 23550, Note_on_c, 1, 76, 71
3, 23583, Note_on_c, 1, 76, 0
3, 23610, Note_on_c, 1, 69, 49
3, 23635, Note_on_c, 1, 69, 0
3, 23670, Note_on_c, 1, 69, 65
3, 23692, Note_on_c, 1, 69, 0
3, 23730, Note_on_c, 1, 71, 82
3, 23752, Note_on_c, 1, 71, 0
3, 23760, Note_on_c, 1, 76, 90
3, 23801, Pitch_bend_c, 1, 8577
3, 23802, Pitch_bend_c, 1, 8995
3, 23805, Pitch_bend_c, 1, 9477
3, 23806, Pitch_bend_c, 1, 9766
3, 23807, Pitch_bend_c, 1, 10119
3, 23809, Pitch_bend_c, 1, 10376
3, 23810, Pitch_bend_c, 1, 10601
3, 23813, Pitch_bend_c, 1, 10826
3, 23814, Pitch_bend_c, 1, 11051
3, 23815, Pitch_bend_c, 1, 11340
3, 23816, Pitch_bend_c, 1, 11661
3, 23817, Pitch_bend_c, 1, 12014
3, 23820, Pitch_bend_c, 1, 12304
3, 23822, Pitch_bend_c, 1, 12818
3, 23822, Pitch_bend_c, 1, 12561
3, 23824, Pitch_bend_c, 1, 13042
3, 23826, Pitch_bend_c, 1, 13267
3, 23827, Pitch_bend_c, 1, 13524
3, 23829, Pitch_bend_c, 1, 13910
3, 23830, Pitch_bend_c, 1, 14295
3, 23831, Pitch_bend_c, 1, 14617
3, 23834, Pitch_bend_c, 1, 14809
3, 23835, Pitch_bend_c, 1, 15131
3, 23836, Pitch_bend_c, 1, 15452
3, 23837, Pitch_bend_c, 1, 15580
3, 23840, Pitch_bend_c, 1, 15709
3, 23841, Pitch_bend_c, 1, 15902
3, 23842, Pitch_bend_c, 1, 16094
3, 23843, Pitch_bend_c, 1, 16287
3, 23846, Pitch_bend_c, 1, 16383
3, 23869, Pitch_bend_c, 1, 15966
3, 23870, Pitch_bend_c, 1, 15195
3, 23871, Pitch_bend_c, 1, 14617
3, 23874, Pitch_bend_c, 1, 14231
3, 23875, Pitch_bend_c, 1, 14167
3, 23877, Pitch_bend_c, 1, 14231
3, 23889, Pitch_bend_c, 1, 14167
3, 23891, Pitch_bend_c, 1, 13910
3, 23892, Pitch_bend_c, 1, 13589
3, 23895, Pitch_bend_c, 1, 13460
3, 23896, Pitch_bend_c, 1, 13428
3, 23901, Pitch_bend_c, 1, 13396
3, 23902, Pitch_bend_c, 1, 13332
3, 23904, Pitch_bend_c, 1, 13299
3, 23905, Pitch_bend_c, 1, 13267
3, 23906, Pitch_bend_c, 1, 13171
3, 23909, Pitch_bend_c, 1, 8192
3, 23910, Note_on_c, 1, 74, 65
3, 23925, Note_on_c, 1, 76, 0
3, 24074, Note_on_c, 1, 74, 0
3, 24270, Note_on_c, 1, 73, 114
3, 24300, Note_on_c, 1, 73, 0
3, 24300, Note_on_c, 1, 74, 87
3, 24330, Note_on_c, 1, 76, 78
3, 24338, Note_on_c, 1, 74, 0
3, 24360, Note_on_c, 1, 73, 105
3, 24367, Note_on_c, 1, 76, 0
3, 24390, Note_on_c, 1, 73, 0
3, 24390, Note_on_c, 1, 69, 87
3, 24420, Note_on_c, 1, 69, 0
3, 24420, Note_on_c, 1, 66, 87
3, 24450, Note_on_c, 1, 66, 0
3, 24450, Note_on_c, 1, 64, 73
3, 24478, Note_on_c, 1, 64, 0
3, 24480, Note_on_c, 1, 61, 109
3, 24535, Note_on_c, 1, 61, 0
3, 24540, Note_on_c, 1, 64, 83
3, 24570, Note_on_c, 1, 64, 0
3, 24570, Note_on_c, 1, 57, 91
3, 24698, Pitch_bend_c, 1, 8031
3, 24699, Pitch_bend_c, 1, 7902
3, 24701, Pitch_bend_c, 1, 7710
3, 24702, Pitch_bend_c, 1, 7549
3, 24704, Pitch_bend_c, 1, 7324
3, 24705, Pitch_bend_c, 1, 7067
3, 24707, Pitch_bend_c, 1, 6842
3, 24709, Pitch_bend_c, 1, 6521
3, 24710, Pitch_bend_c, 1, 6168
3, 24711, Pitch_bend_c, 1, 5846
3, 24712, Pitch_bend_c, 1, 5557
3, 24715, Pitch_bend_c, 1, 5204
3, 24716, Pitch_bend_c, 1, 4883
3, 24717, Pitch_bend_c, 1, 4658
3, 24719, Pitch_bend_c, 1, 4465
3, 24722, Pitch_bend_c, 1, 4079
3, 24722, Pitch_bend_c, 1, 4240
3, 24728, Pitch_bend_c, 1, 3373
3, 24729, Pitch_bend_c, 1, 3084
3, 24730, Pitch_bend_c, 1, 2794
3, 24731, Pitch_bend_c, 1, 2345
3, 24732, Pitch_bend_c, 1, 1895
3, 24735, Pitch_bend_c, 1, 1509
3, 24736, Note_on_c, 1, 57, 0
3, 24737, Pitch_bend_c, 1, 1317
3, 24738, Pitch_bend_c, 1, 1188
3, 24758, Pitch_bend_c, 1, 8192
3, 24990, Note_on_c, 1, 57, 60
3, 25020, Note_on_c, 1, 62, 74
3, 25028, Note_on_c, 1, 57, 0
3, 25042, Note_on_c, 1, 62, 0
3, 25050, Note_on_c, 1, 69, 109
3, 25069, Pitch_bend_c, 1, 8706
3, 25070, Pitch_bend_c, 1, 9091
3, 25072, Pitch_bend_c, 1, 9573
3, 25074, Pitch_bend_c, 1, 10023
3, 25075, Pitch_bend_c, 1, 10440
3, 25076, Pitch_bend_c, 1, 10794
3, 25077, Pitch_bend_c, 1, 11083
3, 25080, Pitch_bend_c, 1, 11436
3, 25082, Pitch_bend_c, 1, 11982
3, 25082, Pitch_bend_c, 1, 11725
3, 25084, Pitch_bend_c, 1, 12336
3, 25086, Pitch_bend_c, 1, 12657
3, 25088, Pitch_bend_c, 1, 12914
3, 25089, Pitch_bend_c, 1, 13107
3, 25090, Pitch_bend_c, 1, 13332
3, 25091, Pitch_bend_c, 1, 13556
3, 25094, Pitch_bend_c, 1, 13781
3, 25095, Pitch_bend_c, 1, 14167
3, 25096, Pitch_bend_c, 1, 14295
3, 25097, Pitch_bend_c, 1, 14488
3, 25100, Pitch_bend_c, 1, 14681
3, 25101, Pitch_bend_c, 1, 14874
3, 25102, Pitch_bend_c, 1, 15131
3, 25103, Pitch_bend_c, 1, 15452
3, 25105, Pitch_bend_c, 1, 15709
3, 25107, Pitch_bend_c, 1, 15902
3, 25109, Pitch_bend_c, 1, 16159
3, 25110, Pitch_bend_c, 1, 16351
3, 25112, Pitch_bend_c, 1, 16383
3, 25140, Note_on_c, 1, 67, 56
3, 25169, Pitch_bend_c, 1, 14874
3, 25170, Note_on_c, 1, 66, 59
3, 25171, Note_on_c, 1, 67, 0
3, 25171, Note_on_c, 1, 69, 0
3, 25171, Pitch_bend_c, 1, 13299
3, 25172, Pitch_bend_c, 1, 12432
3, 25173, Pitch_bend_c, 1, 11693
3, 25175, Pitch_bend_c, 1, 10472
3, 25175, Pitch_bend_c, 1, 11051
3, 25178, Pitch_bend_c, 1, 9958
3, 25179, Pitch_bend_c, 1, 9252
3, 25180, Pitch_bend_c, 1, 8673
3, 25182, Pitch_bend_c, 1, 8192
3, 25199, Note_on_c, 1, 66, 0
3, 25200, Note_on_c, 1, 69, 104
3, 25295, Pitch_bend_c, 1, 8545
3, 25296, Pitch_bend_c, 1, 8802
3, 25299, Pitch_bend_c, 1, 9059
3, 25300, Pitch_bend_c, 1, 9252
3, 25301, Pitch_bend_c, 1, 9444
3, 25302, Pitch_bend_c, 1, 9541
3, 25306, Pitch_bend_c, 1, 9637
3, 25309, Pitch_bend_c, 1, 9701
3, 25310, Pitch_bend_c, 1, 9862
3, 25311, Pitch_bend_c, 1, 9991
3, 25314, Pitch_bend_c, 1, 10151
3, 25315, Pitch_bend_c, 1, 10376
3, 25316, Pitch_bend_c, 1, 10537
3, 25317, Pitch_bend_c, 1, 10697
3, 25320, Pitch_bend_c, 1, 10890
3, 25321, Pitch_bend_c, 1, 10986
3, 25322, Pitch_bend_c, 1, 11115
3, 25324, Pitch_bend_c, 1, 11211
3, 25325, Pitch_bend_c, 1, 11340
3, 25327, Pitch_bend_c, 1, 11468
3, 25329, Pitch_bend_c, 1, 11597
3, 25330, Pitch_bend_c, 1, 11790
3, 25331, Pitch_bend_c, 1, 11886
3, 25334, Pitch_bend_c, 1, 12047
3, 25335, Pitch_bend_c, 1, 12207
3, 25336, Pitch_bend_c, 1, 12400
3, 25337, Pitch_bend_c, 1, 12528
3, 25339, Pitch_bend_c, 1, 12689
3, 25341, Pitch_bend_c, 1, 12785
3, 25342, Pitch_bend_c, 1, 12914
3, 25344, Pitch_bend_c, 1, 13107
3, 25345, Pitch_bend_c, 1, 13332
3, 25347, Pitch_bend_c, 1, 13589
3, 25349, Pitch_bend_c, 1, 14103
3, 25351, Pitch_bend_c, 1, 14552
3, 25352, Pitch_bend_c, 1, 15002
3, 25353, Pitch_bend_c, 1, 15452
3, 25355, Pitch_bend_c, 1, 15773
3, 25356, Pitch_bend_c, 1, 16094
3, 25358, Pitch_bend_c, 1, 16287
3, 25359, Pitch_bend_c, 1, 16383
3, 25387, Note_on_c, 1, 69, 0
3, 25421, Pitch_bend_c, 1, 8192
3, 25440, Note_on_c, 1, 66, 82
3, 25455, Note_on_c, 1, 66, 0
3, 25470, Note_on_c, 1, 66, 69
3, 25485, Note_on_c, 1, 66, 0
3, 25492, Pitch_bend_c, 1, 8063
3, 25494, Pitch_bend_c, 1, 7806
3, 25495, Pitch_bend_c, 1, 7677
3, 25496, Pitch_bend_c, 1, 7453
3, 25499, Pitch_bend_c, 1, 7292
3, 25500, Pitch_bend_c, 1, 7099
3, 25500, Note_on_c, 1, 66, 57
3, 25502, Pitch_bend_c, 1, 6778
3, 25502, Pitch_bend_c, 1, 7003
3, 25505, Pitch_bend_c, 1, 6714
3, 25506, Pitch_bend_c, 1, 6682
3, 25507, Note_on_c, 1, 66, 0
3, 25508, Pitch_bend_c, 1, 6649
3, 25516, Pitch_bend_c, 1, 6682
3, 25520, Pitch_bend_c, 1, 6649
3, 25524, Pitch_bend_c, 1, 6585
3, 25526, Pitch_bend_c, 1, 6521
3, 25527, Pitch_bend_c, 1, 6489
3, 25529, Pitch_bend_c, 1, 6392
3, 25530, Note_on_c, 1, 66, 73
3, 25530, Pitch_bend_c, 1, 6168
3, 25532, Pitch_bend_c, 1, 6071
3, 25534, Pitch_bend_c, 1, 5911
3, 25535, Pitch_bend_c, 1, 5750
3, 25536, Pitch_bend_c, 1, 5654
3, 25537, Pitch_bend_c, 1, 5557
3, 25540, Pitch_bend_c, 1, 5429
3, 25551, Pitch_bend_c, 1, 5397
3, 25554, Pitch_bend_c, 1, 5364
3, 25555, Pitch_bend_c, 1, 5236
3, 25556, Pitch_bend_c, 1, 5107
3, 25557, Pitch_bend_c, 1, 4979
3, 25558, Pitch_bend_c, 1, 4786
3, 25561, Pitch_bend_c, 1, 4626
3, 25562, Pitch_bend_c, 1, 4497
3, 25564, Pitch_bend_c, 1, 4304
3, 25565, Pitch_bend_c, 1, 4176
3, 25568, Pitch_bend_c, 1, 4047
3, 25569, Pitch_bend_c, 1, 3919
3, 25570, Pitch_bend_c, 1, 3726
3, 25571, Pitch_bend_c, 1, 3630
3, 25574, Pitch_bend_c, 1, 3533
3, 25575, Pitch_bend_c, 1, 3469
3, 25576, Pitch_bend_c, 1, 3373
3, 25577, Pitch_bend_c, 1, 3244
3, 25579, Pitch_bend_c, 1, 3148
3, 25581, Pitch_bend_c, 1, 3051
3, 25582, Pitch_bend_c, 1, 2923
3, 25584, Pitch_bend_c, 1, 2762
3, 25585, Pitch_bend_c, 1, 2537
3, 25586, Pitch_bend_c, 1, 2216
3, 25589, Pitch_bend_c, 1, 2023
3, 25590, Pitch_bend_c, 1, 1831
3, 25591, Pitch_bend_c, 1, 1638
3, 25592, Pitch_bend_c, 1, 1445
3, 25595, Pitch_bend_c, 1, 1124
3, 25596, Pitch_bend_c, 1, 931
3, 25597, Pitch_bend_c, 1, 738
3, 25599, Pitch_bend_c, 1, 610
3, 25601, Pitch_bend_c, 1, 481
3, 25602, Pitch_bend_c, 1, 417
3, 25604, Pitch_bend_c, 1, 224
3, 25609, Pitch_bend_c, 1, 289
3, 25610, Pitch_bend_c, 1, 353
3, 25611, Pitch_bend_c, 1, 481
3, 25612, Pitch_bend_c, 1, 738
3, 25614, Pitch_bend_c, 1, 1252
3, 25616, Pitch_bend_c, 1, 1702
3, 25617, Pitch_bend_c, 1, 2537
3, 25619, Pitch_bend_c, 1, 3180
3, 25620, Pitch_bend_c, 1, 3919
3, 25622, Pitch_bend_c, 1, 4754
3, 25623, Pitch_bend_c, 1, 5911
3, 25625, Pitch_bend_c, 1, 7485
3, 25626, Pitch_bend_c, 1, 8192
3, 25635, Note_on_c, 1, 66, 0
3, 25650, Note_on_c, 1, 62, 85
3, 25845, Note_on_c, 1, 62, 0
3, 25950, Note_on_c, 1, 71, 102
3, 25980, Note_on_c, 1, 72, 84
3, 25987, Note_on_c, 1, 71, 0
3, 25995, Note_on_c, 1, 72, 0
3, 26010, Note_on_c, 1, 74, 95
3, 26022, Pitch_bend_c, 1, 8513
3, 26024, Pitch_bend_c, 1, 8898
3, 26025, Pitch_bend_c, 1, 9444
3, 26026, Pitch_bend_c, 1, 9926
3, 26029, Pitch_bend_c, 1, 10344
3, 26030, Pitch_bend_c, 1, 10729
3, 26031, Pitch_bend_c, 1, 11083
3, 26033, Pitch_bend_c, 1, 11500
3, 26035, Pitch_bend_c, 1, 12175
3, 26036, Pitch_bend_c, 1, 12785
3, 26037, Pitch_bend_c, 1, 13139
3, 26039, Pitch_bend_c, 1, 13332
3, 26040, Pitch_bend_c, 1, 13460
3, 26042, Pitch_bend_c, 1, 13492
3, 26046, Pitch_bend_c, 1, 13460
3, 26050, Pitch_bend_c, 1, 13299
3, 26051, Pitch_bend_c, 1, 13010
3, 26052, Pitch_bend_c, 1, 12561
3, 26054, Pitch_bend_c, 1, 11854
3, 26056, Pitch_bend_c, 1, 10922
3, 26057, Pitch_bend_c, 1, 9991
3, 26058, Pitch_bend_c, 1, 8963
3, 26060, Pitch_bend_c, 1, 8192
3, 26100, Note_on_c, 1, 71, 76
3, 26101, Note_on_c, 1, 74, 0
3, 26121, Note_on_c, 1, 71, 0
3, 26130, Note_on_c, 1, 67, 78
3, 26160, Note_on_c, 1, 71, 74
3, 26167, Note_on_c, 1, 67, 0
3, 26190, Note_on_c, 1, 71, 0
3, 26190, Note_on_c, 1, 74, 72
3, 26212, Note_on_c, 1, 74, 0
3, 26220, Note_on_c, 1, 74, 76
3, 26250, Note_on_c, 1, 77, 57
3, 26256, Note_on_c, 1, 74, 0
3, 26264, Note_on_c, 1, 77, 0
3, 26280, Note_on_c, 1, 83, 125
3, 26325, Note_on_c, 1, 82, 109
3, 26333, Note_on_c, 1, 83, 0
3, 26361, Note_on_c, 1, 82, 0
3, 26370, Note_on_c, 1, 81, 106
3, 26513, Note_on_c, 1, 81, 0
3, 26550, Note_on_c, 1, 72, 106
3, 26605, Note_on_c, 1, 72, 0
3, 26610, Note_on_c, 1, 81, 115
3, 26774, Note_on_c, 1, 81, 0
3, 26790, Note_on_c, 1, 74, 83
3, 26823, Note_on_c, 1, 74, 0
3, 26850, Note_on_c, 1, 81, 115
3, 27204, Note_on_c, 1, 81, 0
3, 41040, Note_on_c, 1, 66, 105
3, 41070, Note_on_c, 1, 66, 0
3, 41100, Note_on_c, 1, 66, 97
3, 41107, Note_on_c, 1, 66, 0
3, 41130, Note_on_c, 1, 66, 91
3, 41174, Note_on_c, 1, 66, 0
3, 41190, Note_on_c, 1, 67, 90
3, 41226, Note_on_c, 1, 67, 0
3, 41250, Note_on_c, 1, 64, 115
3, 41290, Control_c, 1, 1, 5
3, 41290, Control_c, 1, 1, 2
3, 41291, Control_c, 1, 1, 7
3, 41292, Control_c, 1, 1, 12
3, 41292, Control_c, 1, 1, 10
3, 41294, Control_c, 1, 1, 13
3, 41295, Control_c, 1, 1, 16
3, 41295, Control_c, 1, 1, 15
3, 41296, Control_c, 1, 1, 17
3, 41297, Control_c, 1, 1, 18
3, 41301, Control_c, 1, 1, 20
3, 41301, Control_c, 1, 1, 19
3, 41304, Control_c, 1, 1, 23
3, 41304, Control_c, 1, 1, 21
3, 41305, Control_c, 1, 1, 25
3, 41305, Control_c, 1, 1, 24
3, 41306, Control_c, 1, 1, 26
3, 41307, Control_c, 1, 1, 29
3, 41307, Control_c, 1, 1, 27
3, 41310, Control_c, 1, 1, 31
3, 41310, Control_c, 1, 1, 30
3, 41312, Control_c, 1, 1, 32
3, 41316, Control_c, 1, 1, 33
3, 41317, Control_c, 1, 1, 34
3, 41320, Control_c, 1, 1, 33
3, 41321, Control_c, 1, 1, 29
3, 41321, Control_c, 1, 1, 32
3, 41322, Control_c, 1, 1, 25
3, 41324, Control_c, 1, 1, 18
3, 41324, Control_c, 1, 1, 22
3, 41325, Control_c, 1, 1, 14
3, 41326, Control_c, 1, 1, 6
3, 41326, Control_c, 1, 1, 10
3, 41327, Control_c, 1, 1, 0
3, 41327, Control_c, 1, 1, 2
3, 41399, Note_on_c, 1, 64, 0
3, 41430, Note_on_c, 1, 64, 118
3, 41449, Pitch_bend_c, 1, 8320
3, 41450, Pitch_bend_c, 1, 8866
3, 41452, Pitch_bend_c, 1, 9509
3, 41454, Control_c, 1, 1, 1
3, 41454, Pitch_bend_c, 1, 9926
3, 41455, Control_c, 1, 1, 6
3, 41455, Pitch_bend_c, 1, 10151
3, 41455, Control_c, 1, 1, 3
3, 41456, Control_c, 1, 1, 9
3, 41458, Control_c, 1, 1, 14
3, 41458, Control_c, 1, 1, 11
3, 41458, Pitch_bend_c, 1, 10408
3, 41459, Control_c, 1, 1, 15
3, 41459, Pitch_bend_c, 1, 10601
3, 41460, Control_c, 1, 1, 17
3, 41461, Control_c, 1, 1, 18
3, 41461, Pitch_bend_c, 1, 10729
3, 41462, Control_c, 1, 1, 21
3, 41462, Control_c, 1, 1, 20
3, 41462, Pitch_bend_c, 1, 10762
3, 41463, Pitch_bend_c, 1, 10826
3, 41465, Control_c, 1, 1, 22
3, 41465, Pitch_bend_c, 1, 10890
3, 41466, Pitch_bend_c, 1, 10954
3, 41469, Control_c, 1, 1, 24
3, 41469, Control_c, 1, 1, 23
3, 41469, Pitch_bend_c, 1, 11179
3, 41470, Pitch_bend_c, 1, 11533
3, 41471, Control_c, 1, 1, 23
3, 41471, Pitch_bend_c, 1, 12047
3, 41472, Pitch_bend_c, 1, 12561
3, 41475, Pitch_bend_c, 1, 12946
3, 41476, Pitch_bend_c, 1, 13267
3, 41478, Control_c, 1, 1, 25
3, 41478, Pitch_bend_c, 1, 13492
3, 41478, Control_c, 1, 1, 24
3, 41479, Control_c, 1, 1, 26
3, 41480, Control_c, 1, 1, 28
3, 41480, Control_c, 1, 1, 27
3, 41480, Pitch_bend_c, 1, 13589
3, 41481, Pitch_bend_c, 1, 13781
3, 41483, Pitch_bend_c, 1, 13974
3, 41484, Pitch_bend_c, 1, 14038
3, 41484, Control_c, 1, 1, 29
3, 41485, Control_c, 1, 1, 30
3, 41486, Control_c, 1, 1, 31
3, 41486, Pitch_bend_c, 1, 14103
3, 41487, Pitch_bend_c, 1, 14167
3, 41488, Control_c, 1, 1, 32
3, 41489, Control_c, 1, 1, 34
3, 41489, Pitch_bend_c, 1, 14295
3, 41489, Control_c, 1, 1, 33
3, 41491, Control_c, 1, 1, 37
3, 41491, Pitch_bend_c, 1, 14488
3, 41491, Control_c, 1, 1, 35
3, 41492, Control_c, 1, 1, 38
3, 41493, Pitch_bend_c, 1, 14745
3, 41494, Control_c, 1, 1, 39
3, 41494, Pitch_bend_c, 1, 15066
3, 41495, Pitch_bend_c, 1, 15452
3, 41496, Control_c, 1, 1, 40
3, 41498, Control_c, 1, 1, 42
3, 41498, Control_c, 1, 1, 41
3, 41498, Pitch_bend_c, 1, 15709
3, 41499, Pitch_bend_c, 1, 15966
3, 41500, Control_c, 1, 1, 43
3, 41500, Pitch_bend_c, 1, 16287
3, 41501, Pitch_bend_c, 1, 16383
3, 41506, Control_c, 1, 1, 42
3, 41516, Control_c, 1, 1, 43
3, 41524, Control_c, 1, 1, 44
3, 41529, Control_c, 1, 1, 45
3, 41534, Control_c, 1, 1, 46
3, 41539, Control_c, 1, 1, 47
3, 41540, Control_c, 1, 1, 48
3, 41542, Control_c, 1, 1, 49
3, 41546, Control_c, 1, 1, 51
3, 41546, Control_c, 1, 1, 50
3, 41561, Control_c, 1, 1, 50
3, 41562, Control_c, 1, 1, 49
3, 41564, Control_c, 1, 1, 47
3, 41564, Control_c, 1, 1, 48
3, 41566, Control_c, 1, 1, 45
3, 41566, Control_c, 1, 1, 46
3, 41567, Control_c, 1, 1, 44
3, 41569, Control_c, 1, 1, 42
3, 41569, Control_c, 1, 1, 43
3, 41570, Control_c, 1, 1, 41
3, 41573, Control_c, 1, 1, 42
3, 41574, Control_c, 1, 1, 43
3, 41575, Control_c, 1, 1, 44
3, 41576, Control_c, 1, 1, 45
3, 41577, Control_c, 1, 1, 46
3, 41579, Control_c, 1, 1, 47
3, 41580, Note_on_c, 1, 72, 84
3, 41581, Note_on_c, 1, 64, 0
3, 41581, Control_c, 1, 1, 49
3, 41581, Control_c, 1, 1, 48
3, 41582, Control_c, 1, 1, 50
3, 41584, Control_c, 1, 1, 51
3, 41586, Control_c, 1, 1, 52
3, 41587, Control_c, 1, 1, 53
3, 41592, Control_c, 1, 1, 54
3, 41595, Control_c, 1, 1, 55
3, 41599, Control_c, 1, 1, 56
3, 41601, Control_c, 1, 1, 57
3, 41606, Control_c, 1, 1, 58
3, 41609, Control_c, 1, 1, 59
3, 41617, Control_c, 1, 1, 61
3, 41617, Control_c, 1, 1, 60
3, 41621, Control_c, 1, 1, 62
3, 41626, Control_c, 1, 1, 64
3, 41626, Control_c, 1, 1, 63
3, 41636, Control_c, 1, 1, 65
3, 41639, Control_c, 1, 1, 66
3, 41657, Control_c, 1, 1, 65
3, 41659, Control_c, 1, 1, 64
3, 41667, Control_c, 1, 1, 63
3, 41669, Control_c, 1, 1, 62
3, 41670, Control_c, 1, 1, 60
3, 41670, Control_c, 1, 1, 61
3, 41672, Control_c, 1, 1, 58
3, 41672, Control_c, 1, 1, 59
3, 41675, Control_c, 1, 1, 59
3, 41680, Control_c, 1, 1, 60
3, 41681, Control_c, 1, 1, 61
3, 41686, Control_c, 1, 1, 62
3, 41699, Control_c, 1, 1, 63
3, 41704, Control_c, 1, 1, 62
3, 41709, Control_c, 1, 1, 63
3, 41725, Control_c, 1, 1, 62
3, 41731, Control_c, 1, 1, 64
3, 41731, Control_c, 1, 1, 63
3, 41735, Control_c, 1, 1, 65
3, 41737, Control_c, 1, 1, 66
3, 41740, Control_c, 1, 1, 67
3, 41744, Control_c, 1, 1, 68
3, 41747, Control_c, 1, 1, 67
3, 41749, Control_c, 1, 1, 68
3, 41751, Control_c, 1, 1, 69
3, 41759, Control_c, 1, 1, 68
3, 41760, Control_c, 1, 1, 67
3, 41762, Control_c, 1, 1, 64
3, 41762, Control_c, 1, 1, 65
3, 41767, Control_c, 1, 1, 65
3, 41769, Control_c, 1, 1, 66
3, 41771, Control_c, 1, 1, 67
3, 41779, Control_c, 1, 1, 66
3, 41789, Control_c, 1, 1, 67
3, 41795, Pitch_bend_c, 1, 16287
3, 41795, Pitch_bend_c, 1, 16351
3, 41797, Pitch_bend_c, 1, 16159
3, 41799, Pitch_bend_c, 1, 16094
3, 41800, Control_c, 1, 1, 66
3, 41800, Pitch_bend_c, 1, 15966
3, 41801, Control_c, 1, 1, 65
3, 41802, Pitch_bend_c, 1, 15773
3, 41803, Control_c, 1, 1, 64
3, 41804, Pitch_bend_c, 1, 15645
3, 41805, Pitch_bend_c, 1, 15452
3, 41805, Control_c, 1, 1, 65
3, 41806, Pitch_bend_c, 1, 15259
3, 41807, Control_c, 1, 1, 66
3, 41809, Pitch_bend_c, 1, 15131
3, 41810, Control_c, 1, 1, 67
3, 41810, Pitch_bend_c, 1, 15066
3, 41811, Pitch_bend_c, 1, 14938
3, 41812, Pitch_bend_c, 1, 14874
3, 41814, Control_c, 1, 1, 68
3, 41815, Pitch_bend_c, 1, 14809
3, 41816, Pitch_bend_c, 1, 14745
3, 41817, Pitch_bend_c, 1, 14681
3, 41820, Control_c, 1, 1, 66
3, 41820, Control_c, 1, 1, 67
3, 41822, Control_c, 1, 1, 65
3, 41822, Pitch_bend_c, 1, 14617
3, 41823, Pitch_bend_c, 1, 14488
3, 41824, Control_c, 1, 1, 66
3, 41824, Pitch_bend_c, 1, 14360
3, 41825, Control_c, 1, 1, 67
3, 41826, Pitch_bend_c, 1, 14167
3, 41827, Pitch_bend_c, 1, 13974
3, 41828, Control_c, 1, 1, 68
3, 41829, Pitch_bend_c, 1, 13717
3, 41830, Pitch_bend_c, 1, 13621
3, 41831, Control_c, 1, 1, 69
3, 41832, Pitch_bend_c, 1, 13589
3, 41834, Pitch_bend_c, 1, 13556
3, 41834, Control_c, 1, 1, 68
3, 41835, Control_c, 1, 1, 67
3, 41836, Control_c, 1, 1, 66
3, 41839, Pitch_bend_c, 1, 13524
3, 41840, Control_c, 1, 1, 67
3, 41841, Control_c, 1, 1, 68
3, 41844, Pitch_bend_c, 1, 13492
3, 41845, Pitch_bend_c, 1, 13428
3, 41846, Pitch_bend_c, 1, 13364
3, 41847, Control_c, 1, 1, 69
3, 41849, Pitch_bend_c, 1, 13299
3, 41850, Pitch_bend_c, 1, 13267
3, 41852, Control_c, 1, 1, 67
3, 41852, Pitch_bend_c, 1, 13235
3, 41852, Control_c, 1, 1, 68
3, 41854, Control_c, 1, 1, 66
3, 41854, Pitch_bend_c, 1, 13171
3, 41855, Pitch_bend_c, 1, 13139
3, 41856, Pitch_bend_c, 1, 13107
3, 41857, Pitch_bend_c, 1, 13042
3, 41859, Control_c, 1, 1, 65
3, 41860, Control_c, 1, 1, 64
3, 41860, Pitch_bend_c, 1, 13010
3, 41863, Control_c, 1, 1, 62
3, 41863, Pitch_bend_c, 1, 12978
3, 41863, Control_c, 1, 1, 63
3, 41864, Pitch_bend_c, 1, 12946
3, 41864, Control_c, 1, 1, 61
3, 41865, Control_c, 1, 1, 59
3, 41866, Pitch_bend_c, 1, 12914
3, 41867, Control_c, 1, 1, 57
3, 41867, Control_c, 1, 1, 58
3, 41868, Control_c, 1, 1, 56
3, 41868, Pitch_bend_c, 1, 12882
3, 41869, Control_c, 1, 1, 54
3, 41869, Pitch_bend_c, 1, 12850
3, 41869, Control_c, 1, 1, 55
3, 41870, Control_c, 1, 1, 53
3, 41870, Pitch_bend_c, 1, 12818
3, 41871, Control_c, 1, 1, 52
3, 41872, Pitch_bend_c, 1, 12689
3, 41874, Pitch_bend_c, 1, 12593
3, 41875, Pitch_bend_c, 1, 12528
3, 41877, Pitch_bend_c, 1, 12464
3, 41879, Control_c, 1, 1, 51
3, 41879, Pitch_bend_c, 1, 12368
3, 41880, Control_c, 1, 1, 49
3, 41881, Control_c, 1, 1, 47
3, 41881, Pitch_bend_c, 1, 12336
3, 41882, Control_c, 1, 1, 44
3, 41882, Control_c, 1, 1, 46
3, 41883, Control_c, 1, 1, 41
3, 41884, Control_c, 1, 1, 34
3, 41884, Pitch_bend_c, 1, 12271
3, 41884, Control_c, 1, 1, 36
3, 41884, Control_c, 1, 1, 39
3, 41884, Pitch_bend_c, 1, 12304
3, 41886, Control_c, 1, 1, 31
3, 41886, Pitch_bend_c, 1, 12239
3, 41886, Control_c, 1, 1, 33
3, 41887, Control_c, 1, 1, 30
3, 41888, Control_c, 1, 1, 28
3, 41888, Control_c, 1, 1, 29
3, 41888, Pitch_bend_c, 1, 12207
3, 41890, Control_c, 1, 1, 27
3, 41890, Pitch_bend_c, 1, 12143
3, 41891, Pitch_bend_c, 1, 12047
3, 41891, Control_c, 1, 1, 26
3, 41892, Pitch_bend_c, 1, 11950
3, 41895, Pitch_bend_c, 1, 11886
3, 41896, Pitch_bend_c, 1, 11790
3, 41897, Pitch_bend_c, 1, 11725
3, 41899, Control_c, 1, 1, 25
3, 41899, Pitch_bend_c, 1, 11597
3, 41900, Control_c, 1, 1, 24
3, 41901, Control_c, 1, 1, 23
3, 41901, Pitch_bend_c, 1, 11565
3, 41903, Control_c, 1, 1, 21
3, 41903, Pitch_bend_c, 1, 11533
3, 41903, Control_c, 1, 1, 22
3, 41904, Pitch_bend_c, 1, 11500
3, 41906, Control_c, 1, 1, 22
3, 41907, Pitch_bend_c, 1, 11468
3, 41908, Control_c, 1, 1, 21
3, 41909, Control_c, 1, 1, 18
3, 41909, Pitch_bend_c, 1, 11436
3, 41909, Control_c, 1, 1, 20
3, 41910, Pitch_bend_c, 1, 11372
3, 41912, Control_c, 1, 1, 17
3, 41912, Pitch_bend_c, 1, 11340
3, 41914, Control_c, 1, 1, 16
3, 41914, Pitch_bend_c, 1, 11308
3, 41916, Control_c, 1, 1, 13
3, 41916, Pitch_bend_c, 1, 11276
3, 41916, Control_c, 1, 1, 14
3, 41917, Control_c, 1, 1, 12
3, 41918, Control_c, 1, 1, 11
3, 41918, Pitch_bend_c, 1, 11243
3, 41920, Pitch_bend_c, 1, 11211
3, 41920, Control_c, 1, 1, 10
3, 41921, Pitch_bend_c, 1, 11147
3, 41924, Pitch_bend_c, 1, 11083
3, 41925, Pitch_bend_c, 1, 11019
3, 41926, Control_c, 1, 1, 12
3, 41927, Control_c, 1, 1, 15
3, 41927, Pitch_bend_c, 1, 10986
3, 41927, Control_c, 1, 1, 13
3, 41928, Control_c, 1, 1, 16
3, 41929, Control_c, 1, 1, 17
3, 41930, Control_c, 1, 1, 18
3, 41930, Pitch_bend_c, 1, 10954
3, 41931, Pitch_bend_c, 1, 10890
3, 41931, Control_c, 1, 1, 19
3, 41932, Control_c, 1, 1, 20
3, 41933, Pitch_bend_c, 1, 10794
3, 41935, Pitch_bend_c, 1, 10697
3, 41936, Pitch_bend_c, 1, 10537
3, 41937, Pitch_bend_c, 1, 10408
3, 41939, Pitch_bend_c, 1, 10280
3, 41942, Pitch_bend_c, 1, 10055
3, 41942, Control_c, 1, 1, 22
3, 41942, Control_c, 1, 1, 21
3, 41942, Pitch_bend_c, 1, 10151
3, 41945, Control_c, 1, 1, 23
3, 41945, Pitch_bend_c, 1, 9894
3, 41947, Control_c, 1, 1, 25
3, 41947, Control_c, 1, 1, 24
3, 41947, Pitch_bend_c, 1, 9637
3, 41948, Control_c, 1, 1, 26
3, 41948, Pitch_bend_c, 1, 9477
3, 41949, Control_c, 1, 1, 27
3, 41949, Pitch_bend_c, 1, 9187
3, 41950, Pitch_bend_c, 1, 9027
3, 41952, Pitch_bend_c, 1, 8866
3, 41953, Pitch_bend_c, 1, 8802
3, 41954, Control_c, 1, 1, 26
3, 41955, Pitch_bend_c, 1, 8770
3, 41955, Control_c, 1, 1, 25
3, 41958, Control_c, 1, 1, 27
3, 41958, Control_c, 1, 1, 26
3, 41958, Pitch_bend_c, 1, 8738
3, 41959, Pitch_bend_c, 1, 8706
3, 41960, Control_c, 1, 1, 28
3, 41961, Pitch_bend_c, 1, 8673
3, 41961, Control_c, 1, 1, 29
3, 41965, Control_c, 1, 1, 30
3, 41965, Pitch_bend_c, 1, 8609
3, 41966, Control_c, 1, 1, 31
3, 41966, Pitch_bend_c, 1, 8545
3, 41969, Pitch_bend_c, 1, 8513
3, 41970, Pitch_bend_c, 1, 8481
3, 41970, Note_on_c, 1, 66, 105
3, 41971, Control_c, 1, 1, 32
3, 41972, Control_c, 1, 1, 35
3, 41972, Control_c, 1, 1, 34
3, 41972, Control_c, 1, 1, 33
3, 41975, Control_c, 1, 1, 36
3, 41977, Control_c, 1, 1, 37
3, 41980, Control_c, 1, 1, 38
3, 41982, Control_c, 1, 1, 39
3, 41985, Control_c, 1, 1, 40
3, 41986, Control_c, 1, 1, 41
3, 41987, Control_c, 1, 1, 42
3, 41989, Control_c, 1, 1, 44
3, 41989, Pitch_bend_c, 1, 8449
3, 41989, Control_c, 1, 1, 43
3, 41990, Control_c, 1, 1, 46
3, 41990, Pitch_bend_c, 1, 8192
3, 41990, Control_c, 1, 1, 45
3, 41991, Control_c, 1, 1, 47
3, 41992, Note_on_c, 1, 72, 0
3, 41992, Control_c, 1, 1, 48
3, 41993, Control_c, 1, 1, 49
3, 41995, Control_c, 1, 1, 50
3, 41996, Control_c, 1, 1, 51
3, 41998, Control_c, 1, 1, 53
3, 41998, Control_c, 1, 1, 52
3, 41999, Control_c, 1, 1, 55
3, 42000, Control_c, 1, 1, 57
3, 42000, Control_c, 1, 1, 56
3, 42002, Control_c, 1, 1, 62
3, 42002, Control_c, 1, 1, 60
3, 42004, Control_c, 1, 1, 63
3, 42005, Control_c, 1, 1, 64
3, 42006, Control_c, 1, 1, 65
3, 42009, Control_c, 1, 1, 67
3, 42009, Control_c, 1, 1, 66
3, 42011, Control_c, 1, 1, 68
3, 42012, Control_c, 1, 1, 70
3, 42012, Control_c, 1, 1, 69
3, 42014, Control_c, 1, 1, 71
3, 42015, Control_c, 1, 1, 72
3, 42016, Control_c, 1, 1, 73
3, 42017, Control_c, 1, 1, 75
3, 42017, Control_c, 1, 1, 74
3, 42019, Control_c, 1, 1, 76
3, 42020, Control_c, 1, 1, 79
3, 42020, Control_c, 1, 1, 77
3, 42021, Control_c, 1, 1, 81
3, 42021, Control_c, 1, 1, 80
3, 42022, Control_c, 1, 1, 82
3, 42024, Control_c, 1, 1, 84
3, 42024, Control_c, 1, 1, 83
3, 42025, Control_c, 1, 1, 85
3, 42026, Control_c, 1, 1, 87
3, 42026, Control_c, 1, 1, 86
3, 42027, Control_c, 1, 1, 89
3, 42030, Control_c, 1, 1, 91
3, 42031, Control_c, 1, 1, 93
3, 42036, Control_c, 1, 1, 95
3, 42039, Control_c, 1, 1, 97
3, 42041, Control_c, 1, 1, 99
3, 42046, Control_c, 1, 1, 101
3, 42049, Control_c, 1, 1, 103
3, 42051, Control_c, 1, 1, 105
3, 42052, Control_c, 1, 1, 109
3, 42052, Control_c, 1, 1, 107
3, 42054, Control_c, 1, 1, 111
3, 42055, Control_c, 1, 1, 113
3, 42056, Control_c, 1, 1, 115
3, 42059, Control_c, 1, 1, 117
3, 42060, Control_c, 1, 1, 119
3, 42062, Control_c, 1, 1, 121
3, 42067, Control_c, 1, 1, 125
3, 42067, Control_c, 1, 1, 123
3, 42070, Control_c, 1, 1, 127
3, 42124, Control_c, 1, 1, 125
3, 42125, Control_c, 1, 1, 121
3, 42125, Control_c, 1, 1, 123
3, 42126, Control_c, 1, 1, 119
3, 42129, Control_c, 1, 1, 121
3, 42130, Control_c, 1, 1, 125
3, 42130, Control_c, 1, 1, 123
3, 42131, Control_c, 1, 1, 127
3, 42142, Pitch_bend_c, 1, 8031
3, 42144, Pitch_bend_c, 1, 7999
3, 42145, Pitch_bend_c, 1, 7934
3, 42147, Pitch_bend_c, 1, 7677
3, 42149, Pitch_bend_c, 1, 7613
3, 42152, Pitch_bend_c, 1, 7549
3, 42154, Pitch_bend_c, 1, 7453
3, 42155, Pitch_bend_c, 1, 7420
3, 42156, Pitch_bend_c, 1, 7324
3, 42157, Pitch_bend_c, 1, 7163
3, 42160, Pitch_bend_c, 1, 7067
3, 42161, Pitch_bend_c, 1, 6874
3, 42162, Pitch_bend_c, 1, 6649
3, 42165, Pitch_bend_c, 1, 6521
3, 42166, Pitch_bend_c, 1, 6457
3, 42167, Pitch_bend_c, 1, 6264
3, 42169, Pitch_bend_c, 1, 6200
3, 42171, Pitch_bend_c, 1, 6103
3, 42172, Pitch_bend_c, 1, 6071
3, 42174, Pitch_bend_c, 1, 5975
3, 42176, Pitch_bend_c, 1, 5846
3, 42177, Pitch_bend_c, 1, 5718
3, 42179, Pitch_bend_c, 1, 5493
3, 42180, Pitch_bend_c, 1, 5268
3, 42182, Pitch_bend_c, 1, 5075
3, 42184, Control_c, 1, 1, 125
3, 42184, Pitch_bend_c, 1, 4915
3, 42185, Control_c, 1, 1, 123
3, 42186, Control_c, 1, 1, 121
3, 42186, Pitch_bend_c, 1, 4786
3, 42187, Pitch_bend_c, 1, 4658
3, 42189, Pitch_bend_c, 1, 4626
3, 42190, Pitch_bend_c, 1, 4593
3, 42191, Pitch_bend_c, 1, 4561
3, 42191, Control_c, 1, 1, 119
3, 42194, Control_c, 1, 1, 117
3, 42195, Pitch_bend_c, 1, 4497
3, 42196, Pitch_bend_c, 1, 4369
3, 42197, Pitch_bend_c, 1, 4208
3, 42200, Pitch_bend_c, 1, 4047
3, 42201, Pitch_bend_c, 1, 3855
3, 42201, Control_c, 1, 1, 115
3, 42203, Pitch_bend_c, 1, 3598
3, 42203, Control_c, 1, 1, 113
3, 42204, Control_c, 1, 1, 111
3, 42205, Control_c, 1, 1, 107
3, 42205, Control_c, 1, 1, 109
3, 42205, Pitch_bend_c, 1, 3405
3, 42207, Control_c, 1, 1, 105
3, 42207, Pitch_bend_c, 1, 3212
3, 42208, Pitch_bend_c, 1, 3148
3, 42209, Pitch_bend_c, 1, 3084
3, 42210, Control_c, 1, 1, 107
3, 42212, Control_c, 1, 1, 113
3, 42212, Control_c, 1, 1, 111
3, 42212, Control_c, 1, 1, 109
3, 42212, Pitch_bend_c, 1, 3051
3, 42215, Control_c, 1, 1, 115
3, 42216, Control_c, 1, 1, 117
3, 42216, Pitch_bend_c, 1, 2987
3, 42217, Pitch_bend_c, 1, 2923
3, 42218, Control_c, 1, 1, 119
3, 42219, Pitch_bend_c, 1, 2762
3, 42220, Control_c, 1, 1, 121
3, 42220, Pitch_bend_c, 1, 2345
3, 42222, Pitch_bend_c, 1, 1766
3, 42224, Pitch_bend_c, 1, 1188
3, 42225, Pitch_bend_c, 1, 481
3, 42226, Pitch_bend_c, 1, 0
3, 42232, Control_c, 1, 1, 123
3, 42236, Control_c, 1, 1, 125
3, 42242, Control_c, 1, 1, 123
3, 42244, Control_c, 1, 1, 121
3, 42245, Control_c, 1, 1, 113
3, 42245, Control_c, 1, 1, 117
3, 42246, Control_c, 1, 1, 109
3, 42247, Control_c, 1, 1, 105
3, 42247, Control_c, 1, 1, 107
3, 42249, Control_c, 1, 1, 107
3, 42250, Control_c, 1, 1, 109
3, 42251, Control_c, 1, 1, 111
3, 42254, Control_c, 1, 1, 113
3, 42256, Control_c, 1, 1, 111
3, 42257, Control_c, 1, 1, 109
3, 42259, Control_c, 1, 1, 101
3, 42259, Control_c, 1, 1, 105
3, 42260, Control_c, 1, 1, 91
3, 42260, Control_c, 1, 1, 97
3, 42261, Control_c, 1, 1, 89
3, 42264, Control_c, 1, 1, 91
3, 42265, Control_c, 1, 1, 99
3, 42265, Control_c, 1, 1, 95
3, 42266, Control_c, 1, 1, 103
3, 42268, Control_c, 1, 1, 109
3, 42268, Control_c, 1, 1, 107
3, 42269, Control_c, 1, 1, 117
3, 42269, Control_c, 1, 1, 113
3, 42270, Control_c, 1, 1, 121
3, 42272, Control_c, 1, 1, 125
3, 42272, Control_c, 1, 1, 123
3, 42274, Control_c, 1, 1, 127
3, 42297, Pitch_bend_c, 1, 32
3, 42299, Pitch_bend_c, 1, 96
3, 42300, Pitch_bend_c, 1, 160
3, 42301, Pitch_bend_c, 1, 96
3, 42305, Pitch_bend_c, 1, 160
3, 42309, Pitch_bend_c, 1, 224
3, 42310, Pitch_bend_c, 1, 417
3, 42311, Pitch_bend_c, 1, 738
3, 42312, Pitch_bend_c, 1, 1509
3, 42315, Pitch_bend_c, 1, 2152
3, 42316, Pitch_bend_c, 1, 2537
3, 42317, Pitch_bend_c, 1, 2666
3, 42318, Pitch_bend_c, 1, 2794
3, 42321, Pitch_bend_c, 1, 2762
3, 42324, Pitch_bend_c, 1, 2794
3, 42330, Pitch_bend_c, 1, 2762
3, 42332, Pitch_bend_c, 1, 2794
3, 42333, Pitch_bend_c, 1, 2859
3, 42335, Pitch_bend_c, 1, 2923
3, 42337, Pitch_bend_c, 1, 2955
3, 42339, Pitch_bend_c, 1, 2987
3, 42340, Pitch_bend_c, 1, 2955
3, 42351, Pitch_bend_c, 1, 3019
3, 42353, Pitch_bend_c, 1, 3148
3, 42355, Pitch_bend_c, 1, 3437
3, 42356, Pitch_bend_c, 1, 3630
3, 42357, Pitch_bend_c, 1, 3983
3, 42359, Pitch_bend_c, 1, 4047
3, 42372, Pitch_bend_c, 1, 4112
3, 42374, Pitch_bend_c, 1, 4208
3, 42375, Pitch_bend_c, 1, 4369
3, 42377, Pitch_bend_c, 1, 4433
3, 42379, Pitch_bend_c, 1, 4529
3, 42380, Pitch_bend_c, 1, 4593
3, 42381, Pitch_bend_c, 1, 4626
3, 42384, Pitch_bend_c, 1, 4722
3, 42385, Pitch_bend_c, 1, 4786
3, 42386, Pitch_bend_c, 1, 4850
3, 42387, Pitch_bend_c, 1, 5011
3, 42390, Pitch_bend_c, 1, 5140
3, 42392, Pitch_bend_c, 1, 5525
3, 42392, Control_c, 1, 1, 121
3, 42392, Control_c, 1, 1, 123
3, 42392, Pitch_bend_c, 1, 5332
3, 42392, Control_c, 1, 1, 125
3, 42394, Pitch_bend_c, 1, 5621
3, 42396, Pitch_bend_c, 1, 5814
3, 42397, Pitch_bend_c, 1, 6071
3, 42399, Control_c, 1, 1, 119
3, 42399, Pitch_bend_c, 1, 6200
3, 42401, Pitch_bend_c, 1, 6360
3, 42402, Pitch_bend_c, 1, 6457
3, 42404, Control_c, 1, 1, 115
3, 42404, Pitch_bend_c, 1, 6489
3, 42404, Control_c, 1, 1, 117
3, 42405, Control_c, 1, 1, 113
3, 42406, Control_c, 1, 1, 107
3, 42406, Control_c, 1, 1, 109
3, 42408, Control_c, 1, 1, 103
3, 42408, Pitch_bend_c, 1, 6521
3, 42409, Control_c, 1, 1, 101
3, 42410, Control_c, 1, 1, 95
3, 42410, Pitch_bend_c, 1, 6553
3, 42410, Control_c, 1, 1, 99
3, 42411, Control_c, 1, 1, 93
3, 42413, Control_c, 1, 1, 95
3, 42413, Pitch_bend_c, 1, 6585
3, 42414, Control_c, 1, 1, 97
3, 42414, Pitch_bend_c, 1, 6617
3, 42415, Control_c, 1, 1, 99
3, 42415, Pitch_bend_c, 1, 6682
3, 42416, Control_c, 1, 1, 97
3, 42416, Pitch_bend_c, 1, 6778
3, 42417, Control_c, 1, 1, 95
3, 42419, Control_c, 1, 1, 93
3, 42419, Pitch_bend_c, 1, 6874
3, 42420, Control_c, 1, 1, 89
3, 42421, Control_c, 1, 1, 86
3, 42421, Pitch_bend_c, 1, 6906
3, 42422, Control_c, 1, 1, 81
3, 42422, Control_c, 1, 1, 83
3, 42422, Pitch_bend_c, 1, 6971
3, 42422, Control_c, 1, 1, 85
3, 42423, Control_c, 1, 1, 79
3, 42423, Pitch_bend_c, 1, 7067
3, 42425, Pitch_bend_c, 1, 7228
3, 42425, Control_c, 1, 1, 76
3, 42426, Control_c, 1, 1, 73
3, 42427, Control_c, 1, 1, 68
3, 42427, Pitch_bend_c, 1, 7453
3, 42427, Control_c, 1, 1, 70
3, 42428, Control_c, 1, 1, 63
3, 42428, Pitch_bend_c, 1, 7710
3, 42428, Control_c, 1, 1, 66
3, 42429, Control_c, 1, 1, 57
3, 42430, Control_c, 1, 1, 52
3, 42430, Pitch_bend_c, 1, 8063
3, 42431, Pitch_bend_c, 1, 8192
3, 42431, Control_c, 1, 1, 50
3, 42432, Control_c, 1, 1, 49
3, 42433, Control_c, 1, 1, 51
3, 42433, Control_c, 1, 1, 50
3, 42434, Control_c, 1, 1, 52
3, 42435, Control_c, 1, 1, 53
3, 42437, Control_c, 1, 1, 50
3, 42437, Control_c, 1, 1, 52
3, 42439, Control_c, 1, 1, 48
3, 42440, Control_c, 1, 1, 42
3, 42440, Control_c, 1, 1, 45
3, 42441, Control_c, 1, 1, 36
3, 42441, Control_c, 1, 1, 39
3, 42443, Control_c, 1, 1, 32
3, 42444, Control_c, 1, 1, 21
3, 42444, Control_c, 1, 1, 28
3, 42445, Control_c, 1, 1, 14
3, 42446, Control_c, 1, 1, 18
3, 42447, Control_c, 1, 1, 20
3, 42449, Control_c, 1, 1, 24
3, 42449, Control_c, 1, 1, 22
3, 42450, Control_c, 1, 1, 27
3, 42450, Control_c, 1, 1, 26
3, 42452, Control_c, 1, 1, 29
3, 42452, Control_c, 1, 1, 28
3, 42453, Control_c, 1, 1, 30
3, 42454, Control_c, 1, 1, 31
3, 42455, Control_c, 1, 1, 33
3, 42455, Control_c, 1, 1, 32
3, 42456, Note_on_c, 1, 66, 0
3, 42456, Control_c, 1, 1, 34
3, 42457, Control_c, 1, 1, 32
3, 42459, Control_c, 1, 1, 23
3, 42459, Control_c, 1, 1, 28
3, 42460, Control_c, 1, 1, 17
3, 42461, Control_c, 1, 1, 4
3, 42461, Control_c, 1, 1, 10
3, 42462, Control_c, 1, 1, 0
3, 42480, Note_on_c, 1, 66, 101
3, 42524, Note_on_c, 1, 66, 0
3, 42540, Note_on_c, 1, 66, 105
3, 42561, Note_on_c, 1, 66, 0
3, 42570, Note_on_c, 1, 66, 82
3, 42614, Note_on_c, 1, 66, 0
3, 42630, Note_on_c, 1, 67, 99
3, 42682, Note_on_c, 1, 67, 0
3, 42690, Note_on_c, 1, 66, 71
3, 42690, Note_on_c, 1, 64, 104
3, 42696, Note_on_c, 1, 66, 0
3, 42779, Note_on_c, 1, 64, 0
3, 42794, Pitch_bend_c, 1, 0
3, 42810, Note_on_c, 1, 71, 109
3, 42832, Pitch_bend_c, 1, 1060
3, 42834, Pitch_bend_c, 1, 2473
3, 42835, Pitch_bend_c, 1, 3373
3, 42836, Pitch_bend_c, 1, 4144
3, 42839, Pitch_bend_c, 1, 5075
3, 42840, Pitch_bend_c, 1, 6232
3, 42842, Pitch_bend_c, 1, 7613
3, 42844, Pitch_bend_c, 1, 8192
3, 42870, Note_on_c, 1, 74, 106
3, 42885, Note_on_c, 1, 71, 0
3, 42923, Note_on_c, 1, 74, 0
3, 42930, Note_on_c, 1, 76, 106
3, 42956, Pitch_bend_c, 1, 8320
3, 42957, Pitch_bend_c, 1, 8577
3, 42960, Pitch_bend_c, 1, 8866
3, 42963, Pitch_bend_c, 1, 9573
3, 42963, Pitch_bend_c, 1, 9187
3, 42964, Pitch_bend_c, 1, 9958
3, 42966, Pitch_bend_c, 1, 10376
3, 42967, Pitch_bend_c, 1, 10665
3, 42969, Pitch_bend_c, 1, 10986
3, 42971, Pitch_bend_c, 1, 11340
3, 42972, Pitch_bend_c, 1, 11565
3, 42973, Pitch_bend_c, 1, 11790
3, 42975, Pitch_bend_c, 1, 11854
3, 42977, Pitch_bend_c, 1, 11886
3, 42982, Pitch_bend_c, 1, 11950
3, 42984, Pitch_bend_c, 1, 12143
3, 42985, Pitch_bend_c, 1, 12432
3, 42986, Pitch_bend_c, 1, 12753
3, 42989, Pitch_bend_c, 1, 13075
3, 42990, Pitch_bend_c, 1, 13460
3, 42991, Pitch_bend_c, 1, 13717
3, 42994, Pitch_bend_c, 1, 14167
3, 42995, Pitch_bend_c, 1, 14360
3, 42996, Pitch_bend_c, 1, 14552
3, 42997, Pitch_bend_c, 1, 14617
3, 43000, Pitch_bend_c, 1, 14681
3, 43004, Pitch_bend_c, 1, 14809
3, 43006, Pitch_bend_c, 1, 15131
3, 43007, Pitch_bend_c, 1, 15516
3, 43009, Pitch_bend_c, 1, 15902
3, 43011, Pitch_bend_c, 1, 16223
3, 43012, Pitch_bend_c, 1, 16383
3, 43057, Control_c, 1, 1, 1
3, 43061, Control_c, 1, 1, 2
3, 43071, Control_c, 1, 1, 3
3, 43075, Control_c, 1, 1, 4
3, 43090, Control_c, 1, 1, 5
3, 43096, Control_c, 1, 1, 6
3, 43097, Control_c, 1, 1, 7
3, 43100, Control_c, 1, 1, 8
3, 43102, Control_c, 1, 1, 7
3, 43109, Control_c, 1, 1, 8
3, 43110, Control_c, 1, 1, 7
3, 43112, Control_c, 1, 1, 5
3, 43112, Control_c, 1, 1, 6
3, 43115, Control_c, 1, 1, 3
3, 43115, Control_c, 1, 1, 4
3, 43117, Control_c, 1, 1, 1
3, 43117, Control_c, 1, 1, 2
3, 43121, Control_c, 1, 1, 2
3, 43122, Control_c, 1, 1, 3
3, 43125, Control_c, 1, 1, 4
3, 43133, Control_c, 1, 1, 2
3, 43133, Control_c, 1, 1, 3
3, 43134, Control_c, 1, 1, 1
3, 43135, Control_c, 1, 1, 0
3, 43146, Control_c, 1, 1, 1
3, 43147, Control_c, 1, 1, 3
3, 43147, Control_c, 1, 1, 2
3, 43150, Control_c, 1, 1, 4
3, 43152, Control_c, 1, 1, 5
3, 43159, Control_c, 1, 1, 6
3, 43165, Control_c, 1, 1, 7
3, 43167, Control_c, 1, 1, 8
3, 43170, Note_on_c, 1, 81, 125
3, 43172, Control_c, 1, 1, 10
3, 43172, Control_c, 1, 1, 9
3, 43174, Control_c, 1, 1, 11
3, 43177, Control_c, 1, 1, 12
3, 43184, Control_c, 1, 1, 13
3, 43185, Note_on_c, 1, 76, 0
3, 43187, Control_c, 1, 1, 14
3, 43190, Control_c, 1, 1, 15
3, 43194, Control_c, 1, 1, 14
3, 43196, Control_c, 1, 1, 13
3, 43199, Control_c, 1, 1, 12
3, 43202, Control_c, 1, 1, 11
3, 43204, Control_c, 1, 1, 9
3, 43204, Control_c, 1, 1, 10
3, 43205, Control_c, 1, 1, 8
3, 43206, Control_c, 1, 1, 6
3, 43206, Control_c, 1, 1, 7
3, 43207, Control_c, 1, 1, 4
3, 43207, Control_c, 1, 1, 5
3, 43210, Control_c, 1, 1, 2
3, 43210, Control_c, 1, 1, 3
3, 43211, Control_c, 1, 1, 1
3, 43212, Control_c, 1, 1, 0
3, 43217, Control_c, 1, 1, 1
3, 43226, Control_c, 1, 1, 0
3, 43235, Control_c, 1, 1, 1
3, 43242, Control_c, 1, 1, 2
3, 43247, Control_c, 1, 1, 3
3, 43249, Control_c, 1, 1, 5
3, 43249, Control_c, 1, 1, 4
3, 43250, Control_c, 1, 1, 6
3, 43251, Control_c, 1, 1, 7
3, 43253, Control_c, 1, 1, 8
3, 43254, Control_c, 1, 1, 9
3, 43256, Control_c, 1, 1, 10
3, 43261, Control_c, 1, 1, 9
3, 43264, Control_c, 1, 1, 10
3, 43265, Control_c, 1, 1, 11
3, 43270, Control_c, 1, 1, 13
3, 43270, Control_c, 1, 1, 12
3, 43271, Control_c, 1, 1, 14
3, 43277, Control_c, 1, 1, 13
3, 43279, Control_c, 1, 1, 11
3, 43279, Control_c, 1, 1, 12
3, 43283, Control_c, 1, 1, 12
3, 43284, Control_c, 1, 1, 13
3, 43285, Control_c, 1, 1, 14
3, 43287, Control_c, 1, 1, 15
3, 43291, Control_c, 1, 1, 16
3, 43295, Pitch_bend_c, 1, 16351
3, 43296, Pitch_bend_c, 1, 16287
3, 43299, Control_c, 1, 1, 17
3, 43305, Control_c, 1, 1, 18
3, 43307, Control_c, 1, 1, 19
3, 43312, Control_c, 1, 1, 20
3, 43317, Control_c, 1, 1, 19
3, 43319, Pitch_bend_c, 1, 16223
3, 43320, Pitch_bend_c, 1, 16159
3, 43321, Pitch_bend_c, 1, 15966
3, 43324, Control_c, 1, 1, 20
3, 43324, Pitch_bend_c, 1, 15516
3, 43325, Pitch_bend_c, 1, 15002
3, 43326, Pitch_bend_c, 1, 14745
3, 43329, Pitch_bend_c, 1, 14617
3, 43330, Pitch_bend_c, 1, 14488
3, 43331, Control_c, 1, 1, 21
3, 43331, Pitch_bend_c, 1, 14424
3, 43334, Control_c, 1, 1, 22
3, 43340, Control_c, 1, 1, 23
3, 43342, Control_c, 1, 1, 22
3, 43347, Pitch_bend_c, 1, 14360
3, 43349, Control_c, 1, 1, 23
3, 43349, Pitch_bend_c, 1, 14231
3, 43352, Control_c, 1, 1, 24
3, 43352, Pitch_bend_c, 1, 13974
3, 43352, Pitch_bend_c, 1, 14167
3, 43355, Pitch_bend_c, 1, 13653
3, 43355, Pitch_bend_c, 1, 13781
3, 43357, Pitch_bend_c, 1, 13621
3, 43360, Control_c, 1, 1, 25
3, 43366, Pitch_bend_c, 1, 13556
3, 43369, Pitch_bend_c, 1, 13524
3, 43370, Pitch_bend_c, 1, 13460
3, 43371, Pitch_bend_c, 1, 13299
3, 43372, Pitch_bend_c, 1, 13203
3, 43375, Pitch_bend_c, 1, 13042
3, 43376, Pitch_bend_c, 1, 12882
3, 43377, Pitch_bend_c, 1, 12689
3, 43379, Pitch_bend_c, 1, 12496
3, 43381, Pitch_bend_c, 1, 12239
3, 43382, Pitch_bend_c, 1, 12014
3, 43384, Control_c, 1, 1, 26
3, 43384, Pitch_bend_c, 1, 11790
3, 43386, Pitch_bend_c, 1, 11500
3, 43387, Pitch_bend_c, 1, 11243
3, 43389, Pitch_bend_c, 1, 10954
3, 43390, Pitch_bend_c, 1, 10665
3, 43391, Control_c, 1, 1, 27
3, 43392, Pitch_bend_c, 1, 10408
3, 43393, Pitch_bend_c, 1, 10087
3, 43395, Control_c, 1, 1, 25
3, 43395, Pitch_bend_c, 1, 9830
3, 43395, Control_c, 1, 1, 26
3, 43396, Control_c, 1, 1, 24
3, 43398, Control_c, 1, 1, 19
3, 43398, Control_c, 1, 1, 21
3, 43398, Pitch_bend_c, 1, 9541
3, 43399, Control_c, 1, 1, 16
3, 43399, Pitch_bend_c, 1, 9252
3, 43400, Control_c, 1, 1, 12
3, 43400, Pitch_bend_c, 1, 9059
3, 43400, Control_c, 1, 1, 14
3, 43401, Control_c, 1, 1, 10
3, 43403, Control_c, 1, 1, 8
3, 43403, Control_c, 1, 1, 9
3, 43403, Pitch_bend_c, 1, 8834
3, 43404, Pitch_bend_c, 1, 8513
3, 43405, Pitch_bend_c, 1, 8192
3, 43406, Control_c, 1, 1, 7
3, 43407, Control_c, 1, 1, 6
3, 43410, Note_on_c, 1, 78, 97
3, 43410, Control_c, 1, 1, 5
3, 43412, Control_c, 1, 1, 0
3, 43412, Control_c, 1, 1, 1
3, 43412, Control_c, 1, 1, 3
3, 43417, Note_on_c, 1, 81, 0
3, 43546, Control_c, 1, 1, 1
3, 43548, Control_c, 1, 1, 3
3, 43548, Control_c, 1, 1, 2
3, 43549, Control_c, 1, 1, 4
3, 43550, Control_c, 1, 1, 5
3, 43551, Control_c, 1, 1, 6
3, 43556, Control_c, 1, 1, 7
3, 43562, Control_c, 1, 1, 8
3, 43564, Control_c, 1, 1, 9
3, 43565, Control_c, 1, 1, 10
3, 43566, Control_c, 1, 1, 11
3, 43567, Control_c, 1, 1, 12
3, 43570, Control_c, 1, 1, 13
3, 43574, Pitch_bend_c, 1, 8063
3, 43576, Control_c, 1, 1, 14
3, 43582, Control_c, 1, 1, 13
3, 43585, Pitch_bend_c, 1, 8031
3, 43586, Pitch_bend_c, 1, 7967
3, 43586, Control_c, 1, 1, 14
3, 43587, Control_c, 1, 1, 15
3, 43589, Pitch_bend_c, 1, 7742
3, 43590, Pitch_bend_c, 1, 7613
3, 43592, Control_c, 1, 1, 17
3, 43592, Pitch_bend_c, 1, 7453
3, 43592, Control_c, 1, 1, 16
3, 43595, Pitch_bend_c, 1, 7420
3, 43599, Control_c, 1, 1, 15
3, 43599, Control_c, 1, 1, 16
3, 43600, Control_c, 1, 1, 16
3, 43601, Control_c, 1, 1, 17
3, 43602, Control_c, 1, 1, 18
3, 43606, Pitch_bend_c, 1, 7292
3, 43607, Pitch_bend_c, 1, 7099
3, 43609, Pitch_bend_c, 1, 7003
3, 43609, Control_c, 1, 1, 19
3, 43611, Control_c, 1, 1, 20
3, 43611, Pitch_bend_c, 1, 6939
3, 43612, Pitch_bend_c, 1, 6874
3, 43614, Control_c, 1, 1, 19
3, 43615, Control_c, 1, 1, 18
3, 43620, Control_c, 1, 1, 19
3, 43624, Pitch_bend_c, 1, 6842
3, 43625, Pitch_bend_c, 1, 6778
3, 43625, Control_c, 1, 1, 20
3, 43626, Pitch_bend_c, 1, 6649
3, 43627, Control_c, 1, 1, 21
3, 43629, Pitch_bend_c, 1, 6585
3, 43630, Control_c, 1, 1, 20
3, 43630, Pitch_bend_c, 1, 6521
3, 43631, Pitch_bend_c, 1, 6489
3, 43631, Control_c, 1, 1, 19
3, 43632, Control_c, 1, 1, 15
3, 43632, Control_c, 1, 1, 17
3, 43636, Control_c, 1, 1, 16
3, 43637, Control_c, 1, 1, 17
3, 43639, Control_c, 1, 1, 18
3, 43640, Control_c, 1, 1, 19
3, 43643, Pitch_bend_c, 1, 6457
3, 43643, Control_c, 1, 1, 20
3, 43645, Control_c, 1, 1, 21
3, 43645, Pitch_bend_c, 1, 6232
3, 43646, Pitch_bend_c, 1, 6071
3, 43648, Control_c, 1, 1, 23
3, 43648, Pitch_bend_c, 1, 5975
3, 43648, Control_c, 1, 1, 22
3, 43649, Control_c, 1, 1, 22
3, 43649, Pitch_bend_c, 1, 5911
3, 43651, Pitch_bend_c, 1, 5878
3, 43652, Control_c, 1, 1, 23
3, 43656, Control_c, 1, 1, 24
3, 43660, Pitch_bend_c, 1, 5814
3, 43661, Pitch_bend_c, 1, 5718
3, 43664, Control_c, 1, 1, 25
3, 43664, Pitch_bend_c, 1, 5525
3, 43665, Control_c, 1, 1, 26
3, 43665, Pitch_bend_c, 1, 5493
3, 43666, Pitch_bend_c, 1, 5429
3, 43669, Pitch_bend_c, 1, 5397
3, 43670, Control_c, 1, 1, 25
3, 43670, Pitch_bend_c, 1, 5364
3, 43671, Pitch_bend_c, 1, 5300
3, 43672, Pitch_bend_c, 1, 5268
3, 43675, Pitch_bend_c, 1, 5107
3, 43676, Control_c, 1, 1, 26
3, 43676, Pitch_bend_c, 1, 5043
3, 43677, Pitch_bend_c, 1, 4947
3, 43680, Control_c, 1, 1, 27
3, 43680, Pitch_bend_c, 1, 4818
3, 43684, Control_c, 1, 1, 23
3, 43684, Pitch_bend_c, 1, 4786
3, 43684, Control_c, 1, 1, 26
3, 43685, Control_c, 1, 1, 22
3, 43686, Pitch_bend_c, 1, 4754
3, 43687, Pitch_bend_c, 1, 4626
3, 43688, Pitch_bend_c, 1, 4593
3, 43690, Pitch_bend_c, 1, 4561
3, 43692, Pitch_bend_c, 1, 4529
3, 43694, Pitch_bend_c, 1, 4497
3, 43695, Pitch_bend_c, 1, 4369
3, 43697, Pitch_bend_c, 1, 4304
3, 43699, Pitch_bend_c, 1, 4208
3, 43700, Pitch_bend_c, 1, 4176
3, 43706, Pitch_bend_c, 1, 4208
3, 43707, Control_c, 1, 1, 23
3, 43711, Pitch_bend_c, 1, 4176
3, 43712, Pitch_bend_c, 1, 4079
3, 43714, Control_c, 1, 1, 24
3, 43715, Control_c, 1, 1, 25
3, 43715, Pitch_bend_c, 1, 3887
3, 43716, Pitch_bend_c, 1, 3598
3, 43717, Pitch_bend_c, 1, 3405
3, 43718, Control_c, 1, 1, 26
3, 43719, Pitch_bend_c, 1, 3180
3, 43721, Pitch_bend_c, 1, 3116
3, 43726, Control_c, 1, 1, 27
3, 43732, Control_c, 1, 1, 28
3, 43735, Pitch_bend_c, 1, 3051
3, 43736, Pitch_bend_c, 1, 2955
3, 43739, Pitch_bend_c, 1, 2859
3, 43740, Control_c, 1, 1, 27
3, 43741, Control_c, 1, 1, 26
3, 43741, Pitch_bend_c, 1, 2827
3, 43742, Pitch_bend_c, 1, 2794
3, 43744, Control_c, 1, 1, 28
3, 43744, Control_c, 1, 1, 27
3, 43751, Control_c, 1, 1, 29
3, 43752, Pitch_bend_c, 1, 2762
3, 43755, Pitch_bend_c, 1, 2602
3, 43756, Control_c, 1, 1, 27
3, 43756, Pitch_bend_c, 1, 2537
3, 43757, Control_c, 1, 1, 25
3, 43758, Control_c, 1, 1, 23
3, 43758, Pitch_bend_c, 1, 2473
3, 43759, Control_c, 1, 1, 20
3, 43759, Control_c, 1, 1, 21
3, 43760, Control_c, 1, 1, 19
3, 43761, Control_c, 1, 1, 20
3, 43762, Control_c, 1, 1, 21
3, 43766, Control_c, 1, 1, 24
3, 43766, Control_c, 1, 1, 22
3, 43770, Control_c, 1, 1, 25
3, 43772, Pitch_bend_c, 1, 2216
3, 43774, Pitch_bend_c, 1, 2088
3, 43775, Pitch_bend_c, 1, 1895
3, 43776, Pitch_bend_c, 1, 1831
3, 43776, Control_c, 1, 1, 24
3, 43777, Control_c, 1, 1, 21
3, 43777, Control_c, 1, 1, 23
3, 43779, Control_c, 1, 1, 18
3, 43779, Control_c, 1, 1, 19
3, 43780, Pitch_bend_c, 1, 1766
3, 43784, Pitch_bend_c, 1, 1831
3, 43786, Control_c, 1, 1, 20
3, 43787, Control_c, 1, 1, 21
3, 43789, Control_c, 1, 1, 22
3, 43790, Pitch_bend_c, 1, 1895
3, 43791, Control_c, 1, 1, 23
3, 43791, Pitch_bend_c, 1, 1959
3, 43793, Pitch_bend_c, 1, 2088
3, 43794, Pitch_bend_c, 1, 2216
3, 43795, Control_c, 1, 1, 19
3, 43795, Control_c, 1, 1, 21
3, 43796, Control_c, 1, 1, 17
3, 43796, Pitch_bend_c, 1, 2537
3, 43798, Control_c, 1, 1, 12
3, 43798, Pitch_bend_c, 1, 2923
3, 43798, Control_c, 1, 1, 14
3, 43799, Control_c, 1, 1, 9
3, 43799, Pitch_bend_c, 1, 3212
3, 43799, Control_c, 1, 1, 11
3, 43800, Control_c, 1, 1, 8
3, 43802, Pitch_bend_c, 1, 3887
3, 43802, Control_c, 1, 1, 3
3, 43802, Control_c, 1, 1, 6
3, 43802, Pitch_bend_c, 1, 3630
3, 43803, Pitch_bend_c, 1, 3919
3, 43805, Control_c, 1, 1, 5
3, 43806, Control_c, 1, 1, 6
3, 43806, Pitch_bend_c, 1, 3951
3, 43811, Control_c, 1, 1, 5
3, 43813, Control_c, 1, 1, 3
3, 43813, Control_c, 1, 1, 4
3, 43813, Pitch_bend_c, 1, 3919
3, 43816, Pitch_bend_c, 1, 3951
3, 43820, Pitch_bend_c, 1, 3983
3, 43821, Pitch_bend_c, 1, 4047
3, 43821, Control_c, 1, 1, 4
3, 43822, Pitch_bend_c, 1, 4112
3, 43834, Control_c, 1, 1, 5
3, 43835, Control_c, 1, 1, 6
3, 43837, Pitch_bend_c, 1, 4144
3, 43839, Pitch_bend_c, 1, 4304
3, 43840, Pitch_bend_c, 1, 4529
3, 43842, Pitch_bend_c, 1, 4786
3, 43844, Pitch_bend_c, 1, 4979
3, 43845, Pitch_bend_c, 1, 5075
3, 43845, Control_c, 1, 1, 7
3, 43846, Control_c, 1, 1, 9
3, 43846, Control_c, 1, 1, 8
3, 43847, Pitch_bend_c, 1, 5236
3, 43849, Pitch_bend_c, 1, 5300
3, 43850, Pitch_bend_c, 1, 5332
3, 43850, Control_c, 1, 1, 10
3, 43854, Pitch_bend_c, 1, 5364
3, 43855, Control_c, 1, 1, 7
3, 43855, Pitch_bend_c, 1, 5429
3, 43855, Control_c, 1, 1, 8
3, 43856, Control_c, 1, 1, 4
3, 43857, Control_c, 1, 1, 0
3, 43857, Control_c, 1, 1, 2
3, 43857, Pitch_bend_c, 1, 5589
3, 43859, Pitch_bend_c, 1, 5782
3, 43860, Pitch_bend_c, 1, 6039
3, 43861, Pitch_bend_c, 1, 6489
3, 43864, Pitch_bend_c, 1, 7003
3, 43865, Pitch_bend_c, 1, 7613
3, 43866, Pitch_bend_c, 1, 7677
3, 43867, Pitch_bend_c, 1, 7742
3, 43870, Pitch_bend_c, 1, 7902
3, 43879, Pitch_bend_c, 1, 7934
3, 43880, Pitch_bend_c, 1, 7999
3, 43883, Pitch_bend_c, 1, 8192
3, 43905, Note_on_c, 1, 78, 0
3, 43920, Note_on_c, 1, 78, 119
3, 43949, Note_on_c, 1, 78, 0
3, 43980, Note_on_c, 1, 78, 109
3, 43995, Note_on_c, 1, 78, 0
3, 44010, Note_on_c, 1, 78, 84
3, 44047, Note_on_c, 1, 78, 0
3, 44070, Note_on_c, 1, 79, 112
3, 44107, Note_on_c, 1, 79, 0
3, 44130, Note_on_c, 1, 81, 127
3, 44147, Pitch_bend_c, 1, 8641
3, 44149, Pitch_bend_c, 1, 9252
3, 44150, Pitch_bend_c, 1, 9862
3, 44151, Pitch_bend_c, 1, 10151
3, 44154, Pitch_bend_c, 1, 10344
3, 44155, Pitch_bend_c, 1, 10408
3, 44156, Pitch_bend_c, 1, 10505
3, 44157, Pitch_bend_c, 1, 10569
3, 44160, Pitch_bend_c, 1, 10729
3, 44163, Pitch_bend_c, 1, 11211
3, 44163, Control_c, 1, 1, 1
3, 44163, Pitch_bend_c, 1, 10922
3, 44165, Pitch_bend_c, 1, 11533
3, 44166, Pitch_bend_c, 1, 11918
3, 44167, Pitch_bend_c, 1, 12271
3, 44170, Control_c, 1, 1, 0
3, 44170, Pitch_bend_c, 1, 12593
3, 44171, Pitch_bend_c, 1, 12882
3, 44172, Pitch_bend_c, 1, 13139
3, 44174, Pitch_bend_c, 1, 13460
3, 44175, Pitch_bend_c, 1, 13653
3, 44177, Pitch_bend_c, 1, 14167
3, 44179, Pitch_bend_c, 1, 14424
3, 44180, Pitch_bend_c, 1, 14809
3, 44182, Pitch_bend_c, 1, 15131
3, 44184, Pitch_bend_c, 1, 15452
3, 44185, Pitch_bend_c, 1, 15773
3, 44186, Pitch_bend_c, 1, 16094
3, 44189, Pitch_bend_c, 1, 16351
3, 44190, Pitch_bend_c, 1, 16383
3, 44221, Control_c, 1, 1, 1
3, 44224, Control_c, 1, 1, 2
3, 44225, Control_c, 1, 1, 3
3, 44226, Control_c, 1, 1, 4
3, 44227, Control_c, 1, 1, 5
3, 44230, Control_c, 1, 1, 6
3, 44237, Control_c, 1, 1, 7
3, 44244, Control_c, 1, 1, 6
3, 44245, Control_c, 1, 1, 3
3, 44245, Control_c, 1, 1, 5
3, 44246, Control_c, 1, 1, 2
3, 44247, Control_c, 1, 1, 0
3, 44247, Control_c, 1, 1, 1
3, 44319, Pitch_bend_c, 1, 15709
3, 44321, Pitch_bend_c, 1, 14745
3, 44322, Pitch_bend_c, 1, 13717
3, 44324, Pitch_bend_c, 1, 13267
3, 44326, Pitch_bend_c, 1, 12850
3, 44327, Pitch_bend_c, 1, 12593
3, 44329, Pitch_bend_c, 1, 12464
3, 44330, Pitch_bend_c, 1, 12271
3, 44332, Pitch_bend_c, 1, 12111
3, 44334, Pitch_bend_c, 1, 11918
3, 44335, Pitch_bend_c, 1, 11725
3, 44337, Pitch_bend_c, 1, 11468
3, 44339, Pitch_bend_c, 1, 11115
3, 44340, Pitch_bend_c, 1, 10826
3, 44342, Pitch_bend_c, 1, 10408
3, 44344, Pitch_bend_c, 1, 9894
3, 44345, Pitch_bend_c, 1, 9380
3, 44346, Pitch_bend_c, 1, 8898
3, 44347, Pitch_bend_c, 1, 8481
3, 44350, Pitch_bend_c, 1, 8192
3, 44370, Note_on_c, 1, 78, 76
3, 44384, Note_on_c, 1, 81, 0
3, 44385, Note_on_c, 1, 78, 0
3, 44399, Pitch_bend_c, 1, 8963
3, 44400, Pitch_bend_c, 1, 9766
3, 44400, Note_on_c, 1, 81, 106
3, 44402, Pitch_bend_c, 1, 10151
3, 44404, Pitch_bend_c, 1, 10183
3, 44405, Pitch_bend_c, 1, 10151
3, 44407, Pitch_bend_c, 1, 9862
3, 44409, Pitch_bend_c, 1, 9348
3, 44410, Pitch_bend_c, 1, 8834
3, 44412, Pitch_bend_c, 1, 8192
3, 44490, Note_on_c, 1, 78, 76
3, 44496, Note_on_c, 1, 81, 0
3, 44512, Note_on_c, 1, 78, 0
3, 44520, Note_on_c, 1, 81, 104
3, 44580, Note_on_c, 1, 78, 59
3, 44588, Note_on_c, 1, 81, 0
3, 44610, Note_on_c, 1, 81, 102
3, 44625, Note_on_c, 1, 78, 0
3, 44650, Pitch_bend_c, 1, 8513
3, 44651, Pitch_bend_c, 1, 8834
3, 44652, Pitch_bend_c, 1, 9252
3, 44654, Control_c, 1, 1, 1
3, 44655, Pitch_bend_c, 1, 9734
3, 44656, Pitch_bend_c, 1, 10280
3, 44657, Pitch_bend_c, 1, 10633
3, 44659, Pitch_bend_c, 1, 10890
3, 44660, Pitch_bend_c, 1, 11083
3, 44661, Control_c, 1, 1, 2
3, 44662, Pitch_bend_c, 1, 11211
3, 44664, Pitch_bend_c, 1, 11372
3, 44665, Pitch_bend_c, 1, 11468
3, 44665, Control_c, 1, 1, 3
3, 44666, Control_c, 1, 1, 4
3, 44667, Pitch_bend_c, 1, 11565
3, 44668, Control_c, 1, 1, 5
3, 44669, Control_c, 1, 1, 6
3, 44669, Pitch_bend_c, 1, 11757
3, 44671, Control_c, 1, 1, 7
3, 44671, Pitch_bend_c, 1, 11854
3, 44672, Control_c, 1, 1, 8
3, 44672, Pitch_bend_c, 1, 11982
3, 44673, Control_c, 1, 1, 9
3, 44673, Pitch_bend_c, 1, 12175
3, 44675, Pitch_bend_c, 1, 12336
3, 44676, Pitch_bend_c, 1, 12464
3, 44677, Control_c, 1, 1, 8
3, 44679, Control_c, 1, 1, 7
3, 44679, Pitch_bend_c, 1, 12561
3, 44680, Pitch_bend_c, 1, 12721
3, 44681, Control_c, 1, 1, 6
3, 44681, Pitch_bend_c, 1, 12882
3, 44682, Control_c, 1, 1, 5
3, 44683, Pitch_bend_c, 1, 13042
3, 44685, Pitch_bend_c, 1, 13267
3, 44686, Pitch_bend_c, 1, 13492
3, 44687, Pitch_bend_c, 1, 13621
3, 44689, Control_c, 1, 1, 4
3, 44690, Control_c, 1, 1, 2
3, 44690, Control_c, 1, 1, 3
3, 44690, Pitch_bend_c, 1, 14167
3, 44691, Pitch_bend_c, 1, 14552
3, 44692, Pitch_bend_c, 1, 14745
3, 44694, Control_c, 1, 1, 3
3, 44694, Pitch_bend_c, 1, 14874
3, 44696, Control_c, 1, 1, 1
3, 44696, Control_c, 1, 1, 2
3, 44697, Pitch_bend_c, 1, 14938
3, 44699, Control_c, 1, 1, 0
3, 44704, Pitch_bend_c, 1, 15002
3, 44705, Pitch_bend_c, 1, 15131
3, 44705, Control_c, 1, 1, 1
3, 44706, Control_c, 1, 1, 0
3, 44707, Pitch_bend_c, 1, 15388
3, 44709, Pitch_bend_c, 1, 15580
3, 44710, Pitch_bend_c, 1, 15773
3, 44711, Pitch_bend_c, 1, 15966
3, 44714, Pitch_bend_c, 1, 16223
3, 44715, Pitch_bend_c, 1, 16287
3, 44716, Pitch_bend_c, 1, 16383
3, 44742, Control_c, 1, 1, 2
3, 44742, Control_c, 1, 1, 1
3, 44744, Control_c, 1, 1, 3
3, 44745, Control_c, 1, 1, 6
3, 44745, Control_c, 1, 1, 5
3, 44746, Control_c, 1, 1, 7
3, 44747, Control_c, 1, 1, 8
3, 44750, Control_c, 1, 1, 9
3, 44756, Control_c, 1, 1, 10
3, 44760, Control_c, 1, 1, 11
3, 44770, Control_c, 1, 1, 12
3, 44771, Control_c, 1, 1, 14
3, 44772, Control_c, 1, 1, 15
3, 44774, Control_c, 1, 1, 17
3, 44775, Control_c, 1, 1, 18
3, 44776, Control_c, 1, 1, 20
3, 44776, Control_c, 1, 1, 19
3, 44777, Control_c, 1, 1, 21
3, 44779, Control_c, 1, 1, 22
3, 44781, Control_c, 1, 1, 23
3, 44783, Control_c, 1, 1, 24
3, 44787, Control_c, 1, 1, 25
3, 44799, Control_c, 1, 1, 26
3, 44802, Control_c, 1, 1, 27
3, 44805, Control_c, 1, 1, 28
3, 44807, Control_c, 1, 1, 29
3, 44812, Control_c, 1, 1, 30
3, 44816, Control_c, 1, 1, 31
3, 44817, Control_c, 1, 1, 32
3, 44819, Control_c, 1, 1, 33
3, 44820, Control_c, 1, 1, 34
3, 44822, Control_c, 1, 1, 35
3, 44825, Control_c, 1, 1, 37
3, 44825, Control_c, 1, 1, 36
3, 44826, Control_c, 1, 1, 38
3, 44827, Control_c, 1, 1, 39
3, 44831, Control_c, 1, 1, 40
3, 44832, Control_c, 1, 1, 41
3, 44834, Control_c, 1, 1, 42
3, 44835, Control_c, 1, 1, 44
3, 44835, Control_c, 1, 1, 43
3, 44836, Control_c, 1, 1, 46
3, 44837, Control_c, 1, 1, 51
3, 44837, Control_c, 1, 1, 48
3, 44838, Control_c, 1, 1, 53
3, 44840, Control_c, 1, 1, 57
3, 44840, Control_c, 1, 1, 56
3, 44841, Control_c, 1, 1, 59
3, 44843, Control_c, 1, 1, 61
3, 44843, Control_c, 1, 1, 60
3, 44844, Control_c, 1, 1, 62
3, 44845, Control_c, 1, 1, 64
3, 44845, Control_c, 1, 1, 63
3, 44846, Control_c, 1, 1, 65
3, 44849, Control_c, 1, 1, 66
3, 44850, Control_c, 1, 1, 67
3, 44852, Control_c, 1, 1, 68
3, 44856, Control_c, 1, 1, 69
3, 44859, Control_c, 1, 1, 70
3, 44864, Control_c, 1, 1, 71
3, 44865, Control_c, 1, 1, 72
3, 44869, Control_c, 1, 1, 73
3, 44874, Control_c, 1, 1, 74
3, 44876, Control_c, 1, 1, 76
3, 44876, Control_c, 1, 1, 75
3, 44879, Control_c, 1, 1, 77
3, 44882, Control_c, 1, 1, 78
3, 44884, Control_c, 1, 1, 79
3, 44889, Control_c, 1, 1, 81
3, 44889, Control_c, 1, 1, 80
3, 44898, Control_c, 1, 1, 83
3, 44898, Control_c, 1, 1, 82
3, 44904, Control_c, 1, 1, 82
3, 44905, Control_c, 1, 1, 81
3, 44906, Control_c, 1, 1, 78
3, 44906, Control_c, 1, 1, 80
3, 44907, Control_c, 1, 1, 77
3, 44909, Control_c, 1, 1, 75
3, 44909, Control_c, 1, 1, 76
3, 44910, Control_c, 1, 1, 73
3, 44911, Control_c, 1, 1, 71
3, 44911, Control_c, 1, 1, 72
3, 44912, Control_c, 1, 1, 70
3, 44914, Control_c, 1, 1, 71
3, 44919, Control_c, 1, 1, 70
3, 44929, Control_c, 1, 1, 68
3, 44929, Control_c, 1, 1, 69
3, 44930, Control_c, 1, 1, 67
3, 44931, Control_c, 1, 1, 66
3, 44934, Control_c, 1, 1, 67
3, 44940, Control_c, 1, 1, 66
3, 44942, Control_c, 1, 1, 63
3, 44942, Control_c, 1, 1, 64
3, 44943, Control_c, 1, 1, 62
3, 44944, Control_c, 1, 1, 61
3, 44950, Control_c, 1, 1, 60
3, 44955, Control_c, 1, 1, 61
3, 44956, Control_c, 1, 1, 62
3, 44960, Pitch_bend_c, 1, 16223
3, 44961, Pitch_bend_c, 1, 15966
3, 44962, Pitch_bend_c, 1, 15837
3, 44964, Pitch_bend_c, 1, 15709
3, 44964, Control_c, 1, 1, 63
3, 44965, Control_c, 1, 1, 64
3, 44966, Pitch_bend_c, 1, 15645
3, 44967, Pitch_bend_c, 1, 15516
3, 44968, Pitch_bend_c, 1, 15452
3, 44970, Control_c, 1, 1, 65
3, 44971, Pitch_bend_c, 1, 15323
3, 44972, Pitch_bend_c, 1, 15259
3, 44974, Pitch_bend_c, 1, 15195
3, 44975, Pitch_bend_c, 1, 15131
3, 44980, Control_c, 1, 1, 66
3, 44981, Pitch_bend_c, 1, 15066
3, 44985, Pitch_bend_c, 1, 15002
3, 44986, Control_c, 1, 1, 65
3, 44986, Pitch_bend_c, 1, 14938
3, 44987, Control_c, 1, 1, 64
3, 44988, Control_c, 1, 1, 63
3, 44988, Pitch_bend_c, 1, 14874
3, 44990, Pitch_bend_c, 1, 14809
3, 44991, Pitch_bend_c, 1, 14745
3, 44992, Control_c, 1, 1, 64
3, 44993, Pitch_bend_c, 1, 14681
3, 44995, Control_c, 1, 1, 65
3, 44996, Pitch_bend_c, 1, 14617
3, 44999, Control_c, 1, 1, 66
3, 45002, Pitch_bend_c, 1, 14552
3, 45004, Pitch_bend_c, 1, 14488
3, 45004, Control_c, 1, 1, 65
3, 45005, Pitch_bend_c, 1, 14424
3, 45006, Control_c, 1, 1, 66
3, 45009, Pitch_bend_c, 1, 14360
3, 45010, Pitch_bend_c, 1, 14231
3, 45011, Control_c, 1, 1, 67
3, 45012, Pitch_bend_c, 1, 14167
3, 45014, Pitch_bend_c, 1, 14038
3, 45015, Pitch_bend_c, 1, 13846
3, 45016, Pitch_bend_c, 1, 13781
3, 45016, Control_c, 1, 1, 66
3, 45019, Control_c, 1, 1, 65
3, 45019, Pitch_bend_c, 1, 13717
3, 45021, Control_c, 1, 1, 64
3, 45024, Control_c, 1, 1, 63
3, 45024, Pitch_bend_c, 1, 13653
3, 45026, Control_c, 1, 1, 64
3, 45029, Pitch_bend_c, 1, 13621
3, 45030, Pitch_bend_c, 1, 13556
3, 45031, Control_c, 1, 1, 65
3, 45032, Pitch_bend_c, 1, 13524
3, 45034, Control_c, 1, 1, 62
3, 45034, Pitch_bend_c, 1, 13460
3, 45034, Control_c, 1, 1, 64
3, 45035, Control_c, 1, 1, 61
3, 45037, Control_c, 1, 1, 59
3, 45037, Control_c, 1, 1, 60
3, 45037, Pitch_bend_c, 1, 13332
3, 45038, Control_c, 1, 1, 58
3, 45038, Pitch_bend_c, 1, 13267
3, 45039, Pitch_bend_c, 1, 13139
3, 45040, Pitch_bend_c, 1, 13010
3, 45042, Pitch_bend_c, 1, 12882
3, 45043, Control_c, 1, 1, 59
3, 45044, Control_c, 1, 1, 60
3, 45044, Pitch_bend_c, 1, 12753
3, 45045, Pitch_bend_c, 1, 12657
3, 45045, Control_c, 1, 1, 61
3, 45047, Pitch_bend_c, 1, 12593
3, 45048, Control_c, 1, 1, 62
3, 45049, Pitch_bend_c, 1, 12561
3, 45050, Pitch_bend_c, 1, 12528
3, 45051, Control_c, 1, 1, 63
3, 45052, Pitch_bend_c, 1, 12496
3, 45054, Control_c, 1, 1, 62
3, 45054, Pitch_bend_c, 1, 12400
3, 45055, Control_c, 1, 1, 59
3, 45055, Pitch_bend_c, 1, 12368
3, 45055, Control_c, 1, 1, 61
3, 45057, Control_c, 1, 1, 57
3, 45057, Control_c, 1, 1, 58
3, 45057, Pitch_bend_c, 1, 12304
3, 45058, Control_c, 1, 1, 56
3, 45059, Control_c, 1, 1, 55
3, 45059, Pitch_bend_c, 1, 12207
3, 45060, Control_c, 1, 1, 54
3, 45060, Pitch_bend_c, 1, 12175
3, 45062, Pitch_bend_c, 1, 12079
3, 45062, Pitch_bend_c, 1, 12143
3, 45065, Pitch_bend_c, 1, 12047
3, 45066, Pitch_bend_c, 1, 11982
3, 45068, Control_c, 1, 1, 52
3, 45068, Pitch_bend_c, 1, 11950
3, 45068, Control_c, 1, 1, 53
3, 45069, Control_c, 1, 1, 51
3, 45070, Control_c, 1, 1, 48
3, 45070, Control_c, 1, 1, 49
3, 45070, Pitch_bend_c, 1, 11854
3, 45071, Pitch_bend_c, 1, 11790
3, 45072, Pitch_bend_c, 1, 11629
3, 45073, Control_c, 1, 1, 47
3, 45074, Control_c, 1, 1, 45
3, 45074, Pitch_bend_c, 1, 11468
3, 45074, Control_c, 1, 1, 46
3, 45075, Control_c, 1, 1, 44
3, 45076, Control_c, 1, 1, 43
3, 45076, Pitch_bend_c, 1, 11308
3, 45077, Control_c, 1, 1, 42
3, 45077, Pitch_bend_c, 1, 11083
3, 45079, Control_c, 1, 1, 43
3, 45079, Pitch_bend_c, 1, 10890
3, 45080, Control_c, 1, 1, 44
3, 45081, Pitch_bend_c, 1, 10601
3, 45082, Control_c, 1, 1, 47
3, 45082, Control_c, 1, 1, 46
3, 45083, Control_c, 1, 1, 49
3, 45083, Pitch_bend_c, 1, 10280
3, 45084, Pitch_bend_c, 1, 9926
3, 45085, Pitch_bend_c, 1, 9509
3, 45085, Control_c, 1, 1, 50
3, 45087, Pitch_bend_c, 1, 9155
3, 45088, Control_c, 1, 1, 46
3, 45088, Control_c, 1, 1, 48
3, 45091, Control_c, 1, 1, 40
3, 45091, Pitch_bend_c, 1, 8673
3, 45091, Control_c, 1, 1, 42
3, 45091, Control_c, 1, 1, 44
3, 45091, Pitch_bend_c, 1, 8898
3, 45093, Control_c, 1, 1, 34
3, 45093, Control_c, 1, 1, 36
3, 45093, Pitch_bend_c, 1, 8384
3, 45093, Control_c, 1, 1, 38
3, 45094, Control_c, 1, 1, 32
3, 45094, Pitch_bend_c, 1, 8192
3, 45095, Control_c, 1, 1, 31
3, 45098, Control_c, 1, 1, 30
3, 45101, Control_c, 1, 1, 27
3, 45102, Control_c, 1, 1, 21
3, 45104, Control_c, 1, 1, 14
3, 45104, Control_c, 1, 1, 17
3, 45105, Control_c, 1, 1, 12
3, 45106, Control_c, 1, 1, 16
3, 45106, Control_c, 1, 1, 14
3, 45107, Control_c, 1, 1, 22
3, 45107, Control_c, 1, 1, 19
3, 45109, Control_c, 1, 1, 24
3, 45110, Control_c, 1, 1, 28
3, 45110, Control_c, 1, 1, 27
3, 45111, Control_c, 1, 1, 29
3, 45112, Control_c, 1, 1, 31
3, 45112, Control_c, 1, 1, 30
3, 45115, Control_c, 1, 1, 28
3, 45115, Control_c, 1, 1, 30
3, 45116, Control_c, 1, 1, 22
3, 45116, Control_c, 1, 1, 25
3, 45117, Control_c, 1, 1, 20
3, 45119, Control_c, 1, 1, 19
3, 45120, Control_c, 1, 1, 20
3, 45121, Control_c, 1, 1, 21
3, 45122, Control_c, 1, 1, 22
3, 45123, Control_c, 1, 1, 23
3, 45124, Control_c, 1, 1, 25
3, 45124, Control_c, 1, 1, 24
3, 45129, Control_c, 1, 1, 24
3, 45130, Control_c, 1, 1, 23
3, 45132, Control_c, 1, 1, 21
3, 45132, Control_c, 1, 1, 22
3, 45134, Control_c, 1, 1, 20
3, 45140, Control_c, 1, 1, 21
3, 45141, Control_c, 1, 1, 24
3, 45141, Control_c, 1, 1, 22
3, 45143, Control_c, 1, 1, 25
3, 45144, Control_c, 1, 1, 27
3, 45144, Control_c, 1, 1, 26
3, 45146, Control_c, 1, 1, 28
3, 45150, Control_c, 1, 1, 25
3, 45150, Control_c, 1, 1, 27
3, 45152, Control_c, 1, 1, 24
3, 45154, Control_c, 1, 1, 25
3, 45155, Control_c, 1, 1, 26
3, 45156, Control_c, 1, 1, 28
3, 45156, Control_c, 1, 1, 27
3, 45159, Control_c, 1, 1, 31
3, 45159, Control_c, 1, 1, 30
3, 45161, Control_c, 1, 1, 33
3, 45161, Control_c, 1, 1, 32
3, 45162, Control_c, 1, 1, 35
3, 45164, Control_c, 1, 1, 36
3, 45165, Control_c, 1, 1, 39
3, 45165, Control_c, 1, 1, 37
3, 45166, Control_c, 1, 1, 40
3, 45167, Control_c, 1, 1, 41
3, 45170, Control_c, 1, 1, 42
3, 45174, Control_c, 1, 1, 45
3, 45174, Control_c, 1, 1, 43
3, 45175, Control_c, 1, 1, 47
3, 45176, Control_c, 1, 1, 49
3, 45177, Control_c, 1, 1, 51
3, 45178, Control_c, 1, 1, 53
3, 45179, Control_c, 1, 1, 57
3, 45179, Control_c, 1, 1, 55
3, 45180, Control_c, 1, 1, 58
3, 45182, Control_c, 1, 1, 63
3, 45182, Control_c, 1, 1, 62
3, 45182, Control_c, 1, 1, 60
3, 45184, Control_c, 1, 1, 66
3, 45184, Control_c, 1, 1, 64
3, 45185, Control_c, 1, 1, 69
3, 45185, Control_c, 1, 1, 67
3, 45186, Control_c, 1, 1, 70
3, 45187, Control_c, 1, 1, 74
3, 45187, Control_c, 1, 1, 72
3, 45189, Control_c, 1, 1, 77
3, 45190, Control_c, 1, 1, 80
3, 45190, Control_c, 1, 1, 78
3, 45191, Control_c, 1, 1, 82
3, 45192, Control_c, 1, 1, 85
3, 45192, Control_c, 1, 1, 84
3, 45194, Control_c, 1, 1, 89
3, 45194, Control_c, 1, 1, 87
3, 45195, Control_c, 1, 1, 91
3, 45196, Control_c, 1, 1, 95
3, 45196, Control_c, 1, 1, 93
3, 45197, Control_c, 1, 1, 97
3, 45199, Control_c, 1, 1, 99
3, 45200, Control_c, 1, 1, 101
3, 45201, Control_c, 1, 1, 103
3, 45202, Control_c, 1, 1, 105
3, 45203, Control_c, 1, 1, 107
3, 45205, Control_c, 1, 1, 111
3, 45205, Control_c, 1, 1, 109
3, 45206, Control_c, 1, 1, 113
3, 45207, Control_c, 1, 1, 119
3, 45207, Control_c, 1, 1, 115
3, 45209, Control_c, 1, 1, 123
3, 45210, Control_c, 1, 1, 127
3, 45290, Control_c, 1, 1, 121
3, 45291, Control_c, 1, 1, 109
3, 45291, Control_c, 1, 1, 117
3, 45292, Control_c, 1, 1, 103
3, 45294, Control_c, 1, 1, 89
3, 45294, Control_c, 1, 1, 95
3, 45295, Control_c, 1, 1, 85
3, 45296, Control_c, 1, 1, 76
3, 45296, Control_c, 1, 1, 81
3, 45297, Control_c, 1, 1, 61
3, 45297, Control_c, 1, 1, 70
3, 45299, Control_c, 1, 1, 52
3, 45300, Control_c, 1, 1, 32
3, 45300, Control_c, 1, 1, 42
3, 45302, Control_c, 1, 1, 14
3, 45302, Control_c, 1, 1, 23
3, 45303, Control_c, 1, 1, 6
3, 45304, Control_c, 1, 1, 1
3, 45305, Control_c, 1, 1, 0
3, 45353, Note_on_c, 1, 81, 0
3, 45390, Note_on_c, 1, 57, 118
3, 45420, Note_on_c, 1, 56, 105
3, 45428, Note_on_c, 1, 57, 0
3, 45450, Note_on_c, 1, 55, 99
3, 45451, Note_on_c, 1, 56, 0
3, 45486, Note_on_c, 1, 55, 0
3, 45510, Note_on_c, 1, 54, 101
3, 45540, Note_on_c, 1, 53, 88
3, 45541, Note_on_c, 1, 54, 0
3, 45570, Note_on_c, 1, 53, 0
3, 45570, Note_on_c, 1, 52, 97
3, 45614, Note_on_c, 1, 52, 0
3, 45630, Note_on_c, 1, 51, 119
3, 45660, Note_on_c, 1, 51, 0
3, 45660, Note_on_c, 1, 50, 80
3, 45690, Note_on_c, 1, 49, 119
3, 45705, Note_on_c, 1, 50, 0
3, 45735, Note_on_c, 1, 49, 0
3, 45750, Note_on_c, 1, 48, 118
3, 45780, Note_on_c, 1, 47, 67
3, 45787, Note_on_c, 1, 48, 0
3, 45810, Note_on_c, 1, 47, 0
3, 45810, Note_on_c, 1, 46, 119
3, 45862, Note_on_c, 1, 46, 0
3, 45870, Note_on_c, 1, 45, 90
3, 45900, Note_on_c, 1, 45, 0
3, 45900, Note_on_c, 1, 44, 119
3, 45923, Note_on_c, 1, 44, 0
3, 45930, Note_on_c, 1, 43, 99
3, 45990, Note_on_c, 1, 43, 0
3, 45990, Note_on_c, 1, 42, 105
3, 46005, Note_on_c, 1, 42, 0
3, 46020, Note_on_c, 1, 41, 84
3, 46027, Note_on_c, 1, 41, 0
3, 46050, Note_on_c, 1, 28, 112
3, 46214, Control_c, 1, 1, 2
3, 46215, Control_c, 1, 1, 3
3, 46216, Control_c, 1, 1, 5
3, 46216, Control_c, 1, 1, 4
3, 46217, Control_c, 1, 1, 6
3, 46219, Control_c, 1, 1, 7
3, 46220, Control_c, 1, 1, 9
3, 46220, Control_c, 1, 1, 8
3, 46221, Control_c, 1, 1, 10
3, 46222, Control_c, 1, 1, 11
3, 46224, Control_c, 1, 1, 13
3, 46225, Control_c, 1, 1, 15
3, 46225, Control_c, 1, 1, 14
3, 46226, Control_c, 1, 1, 16
3, 46227, Control_c, 1, 1, 18
3, 46227, Control_c, 1, 1, 17
3, 46229, Control_c, 1, 1, 20
3, 46229, Control_c, 1, 1, 19
3, 46230, Control_c, 1, 1, 21
3, 46231, Control_c, 1, 1, 23
3, 46231, Control_c, 1, 1, 22
3, 46232, Control_c, 1, 1, 24
3, 46234, Control_c, 1, 1, 26
3, 46234, Control_c, 1, 1, 25
3, 46235, Control_c, 1, 1, 27
3, 46236, Control_c, 1, 1, 31
3, 46236, Control_c, 1, 1, 29
3, 46237, Control_c, 1, 1, 34
3, 46237, Control_c, 1, 1, 32
3, 46239, Control_c, 1, 1, 35
3, 46240, Control_c, 1, 1, 38
3, 46240, Control_c, 1, 1, 37
3, 46241, Control_c, 1, 1, 40
3, 46242, Control_c, 1, 1, 41
3, 46244, Control_c, 1, 1, 42
3, 46245, Control_c, 1, 1, 44
3, 46245, Control_c, 1, 1, 43
3, 46246, Control_c, 1, 1, 45
3, 46249, Control_c, 1, 1, 46
3, 46250, Control_c, 1, 1, 47
3, 46255, Control_c, 1, 1, 48
3, 46256, Control_c, 1, 1, 49
3, 46258, Control_c, 1, 1, 51
3, 46258, Control_c, 1, 1, 50
3, 46260, Control_c, 1, 1, 53
3, 46260, Control_c, 1, 1, 52
3, 46262, Control_c, 1, 1, 54
3, 46265, Control_c, 1, 1, 55
3, 46267, Control_c, 1, 1, 56
3, 46268, Control_c, 1, 1, 57
3, 46277, Control_c, 1, 1, 58
3, 46282, Control_c, 1, 1, 59
3, 46289, Control_c, 1, 1, 60
3, 46290, Control_c, 1, 1, 61
3, 46298, Control_c, 1, 1, 63
3, 46298, Control_c, 1, 1, 62
3, 46307, Control_c, 1, 1, 64
3, 46311, Control_c, 1, 1, 65
3, 46315, Control_c, 1, 1, 66
3, 46320, Control_c, 1, 7, 105
3, 46322, Control_c, 1, 1, 67
3, 46332, Control_c, 1, 7, 104
3, 46342, Control_c, 1, 1, 68
3, 46345, Control_c, 1, 7, 103
3, 46347, Control_c, 1, 1, 69
3, 46352, Control_c, 1, 1, 70
3, 46355, Control_c, 1, 1, 71
3, 46358, Control_c, 1, 7, 102
3, 46360, Control_c, 1, 1, 72
3, 46364, Control_c, 1, 1, 73
3, 46365, Control_c, 1, 1, 74
3, 46366, Control_c, 1, 1, 76
3, 46366, Control_c, 1, 1, 75
3, 46367, Control_c, 1, 1, 78
3, 46369, Control_c, 1, 1, 82
3, 46369, Control_c, 1, 1, 80
3, 46370, Control_c, 1, 1, 86
3, 46370, Control_c, 1, 1, 84
3, 46371, Control_c, 1, 1, 89
3, 46371, Control_c, 1, 7, 101
3, 46372, Control_c, 1, 1, 97
3, 46372, Control_c, 1, 1, 93
3, 46374, Control_c, 1, 1, 99
3, 46375, Control_c, 1, 1, 105
3, 46375, Control_c, 1, 1, 103
3, 46377, Control_c, 1, 1, 107
3, 46380, Control_c, 1, 1, 109
3, 46382, Control_c, 1, 1, 111
3, 46384, Control_c, 1, 1, 113
3, 46384, Control_c, 1, 7, 100
3, 46385, Control_c, 1, 1, 115
3, 46386, Control_c, 1, 1, 117
3, 46387, Control_c, 1, 1, 119
3, 46389, Control_c, 1, 1, 121
3, 46390, Control_c, 1, 1, 125
3, 46390, Control_c, 1, 1, 123
3, 46391, Control_c, 1, 1, 127
3, 46396, Control_c, 1, 7, 99
3, 46409, Control_c, 1, 7, 98
3, 46422, Control_c, 1, 7, 97
3, 46435, Control_c, 1, 7, 96
3, 46448, Control_c, 1, 7, 95
3, 46460, Control_c, 1, 7, 94
3, 46473, Control_c, 1, 7, 93
3, 46486, Control_c, 1, 7, 92
3, 46494, Control_c, 1, 1, 125
3, 46495, Control_c, 1, 1, 123
3, 46496, Control_c, 1, 1, 117
3, 46496, Control_c, 1, 1, 119
3, 46497, Control_c, 1, 1, 113
3, 46499, Control_c, 1, 1, 105
3, 46499, Control_c, 1, 1, 109
3, 46499, Control_c, 1, 7, 91
3, 46500, Control_c, 1, 1, 97
3, 46500, Control_c, 1, 1, 101
3, 46501, Control_c, 1, 1, 93
3, 46502, Control_c, 1, 1, 86
3, 46502, Control_c, 1, 1, 89
3, 46504, Control_c, 1, 1, 85
3, 46505, Control_c, 1, 1, 81
3, 46505, Control_c, 1, 1, 83
3, 46506, Control_c, 1, 1, 79
3, 46507, Control_c, 1, 1, 75
3, 46507, Control_c, 1, 1, 77
3, 46509, Control_c, 1, 1, 72
3, 46509, Control_c, 1, 1, 73
3, 46510, Control_c, 1, 1, 70
3, 46511, Control_c, 1, 1, 68
3, 46511, Control_c, 1, 1, 69
3, 46512, Control_c, 1, 1, 67
3, 46512, Control_c, 1, 7, 90
3, 46514, Control_c, 1, 1, 64
3, 46514, Control_c, 1, 1, 66
3, 46515, Control_c, 1, 1, 63
3, 46516, Control_c, 1, 1, 61
3, 46516, Control_c, 1, 1, 62
3, 46517, Control_c, 1, 1, 60
3, 46519, Control_c, 1, 1, 58
3, 46519, Control_c, 1, 1, 59
3, 46520, Control_c, 1, 1, 53
3, 46520, Control_c, 1, 1, 56
3, 46521, Control_c, 1, 1, 51
3, 46522, Control_c, 1, 1, 45
3, 46522, Control_c, 1, 1, 48
3, 46524, Control_c, 1, 1, 43
3, 46524, Control_c, 1, 7, 89
3, 46525, Control_c, 1, 1, 36
3, 46525, Control_c, 1, 1, 39
3, 46526, Control_c, 1, 1, 31
3, 46526, Control_c, 1, 1, 33
3, 46527, Control_c, 1, 1, 29
3, 46529, Control_c, 1, 1, 26
3, 46529, Control_c, 1, 1, 27
3, 46530, Control_c, 1, 1, 25
3, 46531, Control_c, 1, 1, 24
3, 46537, Control_c, 1, 7, 88
3, 46539, Control_c, 1, 1, 23
3, 46542, Control_c, 1, 1, 22
3, 46544, Control_c, 1, 1, 21
3, 46545, Control_c, 1, 1, 19
3, 46545, Control_c, 1, 1, 20
3, 46546, Control_c, 1, 1, 17
3, 46547, Control_c, 1, 1, 14
3, 46547, Control_c, 1, 1, 16
3, 46549, Control_c, 1, 1, 11
3, 46549, Control_c, 1, 1, 12
3, 46550, Control_c, 1, 1, 10
3, 46550, Control_c, 1, 7, 87
3, 46551, Control_c, 1, 1, 7
3, 46551, Control_c, 1, 1, 8
3, 46552, Control_c, 1, 1, 6
3, 46554, Control_c, 1, 1, 3
3, 46554, Control_c, 1, 1, 4
3, 46555, Control_c, 1, 1, 2
3, 46556, Control_c, 1, 1, 1
3, 46559, Control_c, 1, 1, 0
3, 46563, Control_c, 1, 7, 86
3, 46576, Control_c, 1, 7, 85
3, 46588, Control_c, 1, 7, 84
3, 46601, Control_c, 1, 7, 83
3, 46614, Control_c, 1, 7, 82
3, 46627, Control_c, 1, 7, 81
3, 46640, Control_c, 1, 7, 80
3, 46652, Control_c, 1, 7, 79
3, 46665, Control_c, 1, 7, 78
3, 46678, Control_c, 1, 7, 77
3, 46691, Control_c, 1, 7, 76
3, 46704, Control_c, 1, 7, 75
3, 46716, Control_c, 1, 7, 74
3, 46729, Control_c, 1, 7, 73
3, 46742, Control_c, 1, 7, 72
3, 46755, Control_c, 1, 7, 71
3, 46768, Control_c, 1, 7, 70
3, 46780, Control_c, 1, 7, 69
3, 46785, Note_on_c, 1, 28, 0
3, 46793, Control_c, 1, 7, 68
3, 46806, Control_c, 1, 7, 67
3, 46819, Control_c, 1, 7, 66
3, 46832, Control_c, 1, 7, 65
3, 46844, Control_c, 1, 7, 64
3, 46857, Control_c, 1, 7, 63
3, 46870, Control_c, 1, 7, 62
3, 46883, Control_c, 1, 7, 61
3, 46896, Control_c, 1, 7, 60
3, 46908, Control_c, 1, 7, 59
3, 46921, Control_c, 1, 7, 58
3, 46934, Control_c, 1, 7, 57
3, 46947, Control_c, 1, 7, 56
3, 46960, Control_c, 1, 7, 55
3, 46972, Control_c, 1, 7, 54
3, 46985, Control_c, 1, 7, 53
3, 46998, Control_c, 1, 7, 52
3, 47011, Control_c, 1, 7, 51
3, 47024, Control_c, 1, 7, 50
3, 47036, Control_c, 1, 7, 49
3, 47049, Control_c, 1, 7, 48
3, 47062, Control_c, 1, 7, 47
3, 47075, Control_c, 1, 7, 46
3, 47088, Control_c, 1, 7, 45
3, 47100, Control_c, 1, 7, 44
3, 47113, Control_c, 1, 7, 43
3, 47126, Control_c, 1, 7, 42
3, 47139, Control_c, 1, 7, 41
3, 47152, Control_c, 1, 7, 40
3, 47164, Control_c, 1, 7, 39
3, 47177, Control_c, 1, 7, 38
3, 47190, Control_c, 1, 7, 37
3, 47203, Control_c, 1, 7, 36
3, 47216, Control_c, 1, 7, 35
3, 47228, Control_c, 1, 7, 34
3, 47241, Control_c, 1, 7, 33
3, 47254, Control_c, 1, 7, 32
3, 47267, Control_c, 1, 7, 31
3, 47280, Control_c, 1, 7, 30
3, 47280, End_track
4, 0, Start_track
4, 0, Title_t, "sequenced by Devian Zikri"
4, 0, Control_c, 2, 0, 0
4, 0, Control_c, 2, 7, 90
4, 0, Control_c, 2, 10, 64
4, 1, Control_c, 2, 32, 1
4, 1, Control_c, 2, 121, 0
4, 2, Program_c, 2, 90
4, 480, Control_c, 2, 91, 100
4, 480, Control_c, 2, 93, 40
4, 480, Note_on_c, 2, 69, 113
4, 480, Note_on_c, 2, 78, 106
4, 480, Note_on_c, 2, 74, 127
4, 480, Note_on_c, 2, 73, 127
4, 577, Note_on_c, 2, 73, 0
4, 577, Note_on_c, 2, 69, 0
4, 577, Note_on_c, 2, 78, 0
4, 577, Note_on_c, 2, 74, 0
4, 600, Note_on_c, 2, 74, 99
4, 600, Note_on_c, 2, 73, 117
4, 600, Note_on_c, 2, 69, 110
4, 600, Note_on_c, 2, 78, 100
4, 614, Note_on_c, 2, 78, 0
4, 614, Note_on_c, 2, 74, 0
4, 614, Note_on_c, 2, 73, 0
4, 614, Note_on_c, 2, 69, 0
4, 630, Note_on_c, 2, 79, 124
4, 630, Note_on_c, 2, 71, 122
4, 630, Note_on_c, 2, 76, 126
4, 630, Note_on_c, 2, 74, 124
4, 659, Note_on_c, 2, 71, 0
4, 667, Note_on_c, 2, 79, 0
4, 667, Note_on_c, 2, 76, 0
4, 667, Note_on_c, 2, 74, 0
4, 690, Note_on_c, 2, 81, 115
4, 690, Note_on_c, 2, 76, 124
4, 690, Note_on_c, 2, 78, 104
4, 690, Note_on_c, 2, 73, 125
4, 1416, Note_on_c, 2, 76, 0
4, 1416, Note_on_c, 2, 81, 0
4, 1424, Note_on_c, 2, 78, 0
4, 1424, Note_on_c, 2, 73, 0
4, 1440, Note_on_c, 2, 81, 113
4, 1440, Note_on_c, 2, 76, 126
4, 1440, Note_on_c, 2, 78, 117
4, 1440, Note_on_c, 2, 73, 117
4, 1529, Note_on_c, 2, 81, 0
4, 1536, Note_on_c, 2, 73, 0
4, 1536, Note_on_c, 2, 78, 0
4, 1544, Note_on_c, 2, 76, 0
4, 1560, Note_on_c, 2, 81, 122
4, 1560, Note_on_c, 2, 73, 121
4, 1560, Note_on_c, 2, 76, 122
4, 1560, Note_on_c, 2, 78, 111
4, 1575, Note_on_c, 2, 78, 0
4, 1575, Note_on_c, 2, 81, 0
4, 1575, Note_on_c, 2, 73, 0
4, 1575, Note_on_c, 2, 76, 0
4, 1590, Note_on_c, 2, 78, 93
4, 1590, Note_on_c, 2, 74, 127
4, 1590, Note_on_c, 2, 79, 127
4, 1590, Note_on_c, 2, 83, 122
4, 1623, Note_on_c, 2, 78, 0
4, 1627, Note_on_c, 2, 74, 0
4, 1634, Note_on_c, 2, 79, 0
4, 1634, Note_on_c, 2, 83, 0
4, 1650, Note_on_c, 2, 84, 119
4, 1650, Note_on_c, 2, 76, 111
4, 1650, Note_on_c, 2, 81, 117
4, 1650, Note_on_c, 2, 79, 119
4, 2091, Note_on_c, 2, 84, 0
4, 2144, Note_on_c, 2, 76, 0
4, 2144, Note_on_c, 2, 81, 0
4, 2144, Note_on_c, 2, 79, 0
4, 2160, Note_on_c, 2, 76, 124
4, 2160, Note_on_c, 2, 79, 124
4, 2160, Note_on_c, 2, 81, 126
4, 2160, Note_on_c, 2, 85, 121
4, 2350, Note_on_c, 2, 79, 0
4, 2350, Note_on_c, 2, 76, 0
4, 2370, Note_on_c, 2, 81, 0
4, 2370, Note_on_c, 2, 85, 0
4, 2370, Note_on_c, 2, 76, 117
4, 2370, Note_on_c, 2, 86, 119
4, 2370, Note_on_c, 2, 74, 119
4, 2370, Note_on_c, 2, 83, 122
4, 2370, Note_on_c, 2, 79, 111
4, 3360, Control_c, 2, 7, 90
4, 3376, Control_c, 2, 7, 89
4, 3392, Control_c, 2, 7, 88
4, 3408, Control_c, 2, 7, 87
4, 3424, Control_c, 2, 7, 86
4, 3440, Control_c, 2, 7, 85
4, 3456, Control_c, 2, 7, 84
4, 3472, Control_c, 2, 7, 83
4, 3488, Control_c, 2, 7, 82
4, 3504, Control_c, 2, 7, 81
4, 3520, Control_c, 2, 7, 80
4, 3536, Control_c, 2, 7, 79
4, 3552, Control_c, 2, 7, 78
4, 3568, Control_c, 2, 7, 77
4, 3584, Control_c, 2, 7, 76
4, 3600, Control_c, 2, 7, 75
4, 3616, Control_c, 2, 7, 74
4, 3632, Control_c, 2, 7, 73
4, 3648, Control_c, 2, 7, 72
4, 3664, Control_c, 2, 7, 71
4, 3680, Control_c, 2, 7, 70
4, 3696, Control_c, 2, 7, 69
4, 3712, Control_c, 2, 7, 68
4, 3728, Control_c, 2, 7, 67
4, 3744, Control_c, 2, 7, 66
4, 3760, Control_c, 2, 7, 65
4, 3776, Control_c, 2, 7, 64
4, 3792, Control_c, 2, 7, 63
4, 3808, Control_c, 2, 7, 62
4, 3824, Control_c, 2, 7, 61
4, 3840, Control_c, 2, 7, 60
4, 3856, Control_c, 2, 7, 59
4, 3872, Control_c, 2, 7, 58
4, 3888, Control_c, 2, 7, 57
4, 3904, Control_c, 2, 7, 56
4, 3920, Control_c, 2, 7, 55
4, 3936, Control_c, 2, 7, 54
4, 3952, Control_c, 2, 7, 53
4, 3968, Control_c, 2, 7, 52
4, 3984, Control_c, 2, 7, 51
4, 4000, Control_c, 2, 7, 50
4, 4016, Control_c, 2, 7, 49
4, 4032, Control_c, 2, 7, 48
4, 4048, Control_c, 2, 7, 47
4, 4064, Control_c, 2, 7, 46
4, 4080, Control_c, 2, 7, 45
4, 4096, Control_c, 2, 7, 44
4, 4112, Control_c, 2, 7, 43
4, 4128, Control_c, 2, 7, 42
4, 4144, Control_c, 2, 7, 41
4, 4160, Control_c, 2, 7, 40
4, 4176, Control_c, 2, 7, 39
4, 4192, Control_c, 2, 7, 38
4, 4208, Control_c, 2, 7, 37
4, 4224, Control_c, 2, 7, 36
4, 4240, Control_c, 2, 7, 35
4, 4256, Control_c, 2, 7, 34
4, 4270, Note_on_c, 2, 79, 0
4, 4270, Note_on_c, 2, 76, 0
4, 4270, Note_on_c, 2, 83, 0
4, 4272, Control_c, 2, 7, 33
4, 4274, Note_on_c, 2, 74, 0
4, 4274, Note_on_c, 2, 86, 0
4, 4288, Control_c, 2, 7, 32
4, 4304, Control_c, 2, 7, 31
4, 4320, Control_c, 2, 7, 30
4, 5280, Control_c, 2, 121, 0
4, 5280, Control_c, 2, 7, 64
4, 5280, Control_c, 2, 10, 45
4, 5280, Control_c, 2, 91, 100
4, 5280, Control_c, 2, 93, 20
4, 5280, Control_c, 2, 0, 0
4, 5280, Control_c, 2, 32, 1
4, 5280, Program_c, 2, 1
4, 5280, Control_c, 2, 7, 110
4, 5280, Control_c, 2, 10, 45
4, 5280, Note_on_c, 2, 66, 71
4, 5280, Note_on_c, 2, 62, 85
4, 5280, Note_on_c, 2, 55, 79
4, 5280, Note_on_c, 2, 59, 76
4, 5280, Note_on_c, 2, 54, 57
4, 5318, Note_on_c, 2, 54, 0
4, 5318, Note_on_c, 2, 55, 0
4, 5318, Note_on_c, 2, 66, 0
4, 5318, Note_on_c, 2, 62, 0
4, 5318, Note_on_c, 2, 59, 0
4, 5340, Note_on_c, 2, 62, 87
4, 5340, Note_on_c, 2, 59, 80
4, 5340, Note_on_c, 2, 66, 78
4, 5340, Note_on_c, 2, 55, 80
4, 5340, Note_on_c, 2, 54, 81
4, 5355, Note_on_c, 2, 54, 0
4, 5355, Note_on_c, 2, 66, 0
4, 5355, Note_on_c, 2, 62, 0
4, 5355, Note_on_c, 2, 59, 0
4, 5355, Note_on_c, 2, 55, 0
4, 5370, Note_on_c, 2, 55, 83
4, 5370, Note_on_c, 2, 54, 79
4, 5370, Note_on_c, 2, 59, 77
4, 5370, Note_on_c, 2, 62, 91
4, 5370, Note_on_c, 2, 66, 74
4, 5407, Note_on_c, 2, 59, 0
4, 5407, Note_on_c, 2, 55, 0
4, 5407, Note_on_c, 2, 54, 0
4, 5414, Note_on_c, 2, 62, 0
4, 5414, Note_on_c, 2, 66, 0
4, 5430, Note_on_c, 2, 55, 85
4, 5430, Note_on_c, 2, 59, 79
4, 5430, Note_on_c, 2, 67, 93
4, 5430, Note_on_c, 2, 62, 95
4, 5430, Note_on_c, 2, 54, 80
4, 5460, Note_on_c, 2, 54, 0
4, 5460, Note_on_c, 2, 67, 0
4, 5460, Note_on_c, 2, 62, 0
4, 5460, Note_on_c, 2, 55, 0
4, 5466, Note_on_c, 2, 59, 0
4, 5490, Note_on_c, 2, 55, 80
4, 5490, Note_on_c, 2, 52, 83
4, 5490, Note_on_c, 2, 59, 75
4, 5490, Note_on_c, 2, 57, 85
4, 5490, Note_on_c, 2, 64, 91
4, 5490, Note_on_c, 2, 61, 88
4, 5797, Note_on_c, 2, 61, 0
4, 5797, Note_on_c, 2, 57, 0
4, 5797, Note_on_c, 2, 59, 0
4, 5797, Note_on_c, 2, 64, 0
4, 5804, Note_on_c, 2, 55, 0
4, 5804, Note_on_c, 2, 52, 0
4, 5880, Note_on_c, 2, 55, 101
4, 5880, Note_on_c, 2, 64, 101
4, 5880, Note_on_c, 2, 52, 95
4, 5880, Note_on_c, 2, 59, 95
4, 5880, Note_on_c, 2, 62, 74
4, 5909, Note_on_c, 2, 64, 0
4, 5910, Note_on_c, 2, 66, 76
4, 5924, Note_on_c, 2, 62, 0
4, 5939, Note_on_c, 2, 52, 0
4, 5946, Note_on_c, 2, 55, 0
4, 5954, Note_on_c, 2, 59, 0
4, 5955, Note_on_c, 2, 66, 0
4, 5970, Note_on_c, 2, 52, 94
4, 5970, Note_on_c, 2, 59, 104
4, 5970, Note_on_c, 2, 55, 99
4, 5970, Note_on_c, 2, 64, 107
4, 6000, Note_on_c, 2, 59, 0
4, 6014, Note_on_c, 2, 52, 0
4, 6014, Note_on_c, 2, 55, 0
4, 6015, Note_on_c, 2, 64, 0
4, 6030, Note_on_c, 2, 62, 111
4, 6030, Note_on_c, 2, 59, 111
4, 6030, Note_on_c, 2, 55, 85
4, 6059, Note_on_c, 2, 55, 0
4, 6074, Note_on_c, 2, 59, 0
4, 6075, Note_on_c, 2, 62, 0
4, 6090, Note_on_c, 2, 57, 107
4, 6090, Note_on_c, 2, 59, 110
4, 6090, Note_on_c, 2, 49, 73
4, 6090, Note_on_c, 2, 54, 91
4, 6090, Note_on_c, 2, 52, 99
4, 6125, Note_on_c, 2, 57, 0
4, 6134, Note_on_c, 2, 59, 0
4, 6134, Note_on_c, 2, 49, 0
4, 6149, Note_on_c, 2, 54, 0
4, 6150, Note_on_c, 2, 57, 110
4, 6150, Note_on_c, 2, 61, 111
4, 6186, Note_on_c, 2, 57, 0
4, 6193, Note_on_c, 2, 52, 0
4, 6201, Note_on_c, 2, 61, 0
4, 6210, Note_on_c, 2, 59, 117
4, 6210, Note_on_c, 2, 62, 127
4, 6210, Note_on_c, 2, 55, 107
4, 6210, Note_on_c, 2, 52, 99
4, 6562, Note_on_c, 2, 59, 0
4, 6569, Note_on_c, 2, 55, 0
4, 6577, Note_on_c, 2, 62, 0
4, 6577, Note_on_c, 2, 52, 0
4, 6600, Note_on_c, 2, 49, 79
4, 6600, Note_on_c, 2, 64, 115
4, 6600, Note_on_c, 2, 52, 96
4, 6600, Note_on_c, 2, 57, 107
4, 6600, Note_on_c, 2, 54, 121
4, 6651, Note_on_c, 2, 64, 0
4, 6660, Note_on_c, 2, 66, 98
4, 6666, Note_on_c, 2, 49, 0
4, 6681, Note_on_c, 2, 54, 0
4, 6683, Note_on_c, 2, 66, 0
4, 6689, Note_on_c, 2, 52, 0
4, 6689, Note_on_c, 2, 57, 0
4, 6690, Note_on_c, 2, 55, 113
4, 6690, Note_on_c, 2, 59, 108
4, 6690, Note_on_c, 2, 62, 100
4, 6951, Note_on_c, 2, 59, 0
4, 6967, Note_on_c, 2, 55, 0
4, 6974, Note_on_c, 2, 62, 0
4, 7200, Note_on_c, 2, 59, 110
4, 7200, Note_on_c, 2, 54, 104
4, 7200, Note_on_c, 2, 66, 121
4, 7200, Note_on_c, 2, 62, 115
4, 7200, Note_on_c, 2, 55, 91
4, 7237, Note_on_c, 2, 62, 0
4, 7237, Note_on_c, 2, 66, 0
4, 7237, Note_on_c, 2, 59, 0
4, 7245, Note_on_c, 2, 54, 0
4, 7245, Note_on_c, 2, 55, 0
4, 7260, Note_on_c, 2, 59, 93
4, 7260, Note_on_c, 2, 62, 110
4, 7260, Note_on_c, 2, 54, 89
4, 7260, Note_on_c, 2, 66, 114
4, 7260, Note_on_c, 2, 55, 87
4, 7274, Note_on_c, 2, 59, 0
4, 7282, Note_on_c, 2, 66, 0
4, 7282, Note_on_c, 2, 62, 0
4, 7282, Note_on_c, 2, 54, 0
4, 7282, Note_on_c, 2, 55, 0
4, 7290, Note_on_c, 2, 59, 101
4, 7290, Note_on_c, 2, 62, 110
4, 7290, Note_on_c, 2, 55, 96
4, 7290, Note_on_c, 2, 54, 88
4, 7290, Note_on_c, 2, 66, 83
4, 7327, Note_on_c, 2, 66, 0
4, 7327, Note_on_c, 2, 55, 0
4, 7327, Note_on_c, 2, 59, 0
4, 7327, Note_on_c, 2, 62, 0
4, 7327, Note_on_c, 2, 54, 0
4, 7350, Note_on_c, 2, 59, 100
4, 7350, Note_on_c, 2, 55, 94
4, 7350, Note_on_c, 2, 62, 100
4, 7350, Note_on_c, 2, 67, 92
4, 7350, Note_on_c, 2, 54, 76
4, 7380, Note_on_c, 2, 54, 0
4, 7380, Note_on_c, 2, 55, 0
4, 7380, Note_on_c, 2, 59, 0
4, 7380, Note_on_c, 2, 67, 0
4, 7386, Note_on_c, 2, 62, 0
4, 7410, Note_on_c, 2, 52, 99
4, 7410, Note_on_c, 2, 55, 108
4, 7410, Note_on_c, 2, 57, 95
4, 7410, Note_on_c, 2, 59, 91
4, 7410, Note_on_c, 2, 61, 117
4, 7410, Note_on_c, 2, 64, 97
4, 7725, Note_on_c, 2, 59, 0
4, 7725, Note_on_c, 2, 57, 0
4, 7732, Note_on_c, 2, 61, 0
4, 7732, Note_on_c, 2, 52, 0
4, 7732, Note_on_c, 2, 64, 0
4, 7732, Note_on_c, 2, 55, 0
4, 7800, Note_on_c, 2, 52, 99
4, 7800, Note_on_c, 2, 55, 105
4, 7800, Note_on_c, 2, 59, 113
4, 7800, Note_on_c, 2, 64, 122
4, 7800, Note_on_c, 2, 62, 97
4, 7821, Note_on_c, 2, 59, 0
4, 7830, Note_on_c, 2, 59, 69
4, 7830, Note_on_c, 2, 66, 121
4, 7836, Note_on_c, 2, 64, 0
4, 7851, Note_on_c, 2, 62, 0
4, 7867, Note_on_c, 2, 59, 0
4, 7874, Note_on_c, 2, 52, 0
4, 7874, Note_on_c, 2, 55, 0
4, 7882, Note_on_c, 2, 66, 0
4, 7890, Note_on_c, 2, 59, 111
4, 7890, Note_on_c, 2, 55, 103
4, 7890, Note_on_c, 2, 52, 94
4, 7890, Note_on_c, 2, 64, 122
4, 7926, Note_on_c, 2, 59, 0
4, 7941, Note_on_c, 2, 64, 0
4, 7950, Note_on_c, 2, 62, 105
4, 7950, Note_on_c, 2, 59, 108
4, 7957, Note_on_c, 2, 52, 0
4, 7980, Note_on_c, 2, 59, 0
4, 7986, Note_on_c, 2, 55, 0
4, 7995, Note_on_c, 2, 62, 0
4, 8010, Note_on_c, 2, 57, 100
4, 8010, Note_on_c, 2, 49, 61
4, 8010, Note_on_c, 2, 59, 119
4, 8010, Note_on_c, 2, 52, 95
4, 8054, Note_on_c, 2, 57, 0
4, 8062, Note_on_c, 2, 49, 0
4, 8062, Note_on_c, 2, 59, 0
4, 8062, Note_on_c, 2, 52, 0
4, 8070, Note_on_c, 2, 61, 117
4, 8070, Note_on_c, 2, 54, 88
4, 8070, Note_on_c, 2, 52, 82
4, 8070, Note_on_c, 2, 57, 101
4, 8099, Note_on_c, 2, 54, 0
4, 8114, Note_on_c, 2, 57, 0
4, 8122, Note_on_c, 2, 52, 0
4, 8122, Note_on_c, 2, 61, 0
4, 8130, Note_on_c, 2, 55, 110
4, 8130, Note_on_c, 2, 59, 117
4, 8130, Note_on_c, 2, 62, 110
4, 8130, Note_on_c, 2, 52, 93
4, 8466, Note_on_c, 2, 55, 0
4, 8474, Note_on_c, 2, 59, 0
4, 8497, Note_on_c, 2, 62, 0
4, 8497, Note_on_c, 2, 52, 0
4, 8520, Note_on_c, 2, 52, 94
4, 8520, Note_on_c, 2, 49, 76
4, 8520, Note_on_c, 2, 57, 113
4, 8520, Note_on_c, 2, 64, 127
4, 8520, Note_on_c, 2, 54, 109
4, 8579, Note_on_c, 2, 54, 0
4, 8579, Note_on_c, 2, 64, 0
4, 8580, Note_on_c, 2, 66, 109
4, 8594, Note_on_c, 2, 57, 0
4, 8594, Note_on_c, 2, 49, 0
4, 8603, Note_on_c, 2, 66, 0
4, 8610, Note_on_c, 2, 59, 124
4, 8610, Note_on_c, 2, 55, 113
4, 8610, Note_on_c, 2, 62, 124
4, 8834, Note_on_c, 2, 62, 0
4, 8842, Note_on_c, 2, 52, 0
4, 8842, Note_on_c, 2, 59, 0
4, 8850, Note_on_c, 2, 55, 0
4, 8850, Note_on_c, 2, 71, 127
4, 8850, Note_on_c, 2, 66, 127
4, 8850, Note_on_c, 2, 62, 127
4, 8850, Note_on_c, 2, 74, 127
4, 9044, Note_on_c, 2, 62, 0
4, 9044, Note_on_c, 2, 71, 0
4, 9051, Note_on_c, 2, 66, 0
4, 9081, Note_on_c, 2, 74, 0
4, 9120, Note_on_c, 2, 61, 125
4, 9120, Note_on_c, 2, 62, 115
4, 9120, Note_on_c, 2, 73, 111
4, 9120, Note_on_c, 2, 69, 111
4, 9120, Note_on_c, 2, 66, 83
4, 9157, Note_on_c, 2, 73, 0
4, 9157, Note_on_c, 2, 62, 0
4, 9165, Note_on_c, 2, 61, 0
4, 9165, Note_on_c, 2, 69, 0
4, 9165, Note_on_c, 2, 66, 0
4, 9180, Note_on_c, 2, 61, 125
4, 9180, Note_on_c, 2, 62, 100
4, 9180, Note_on_c, 2, 66, 88
4, 9180, Note_on_c, 2, 73, 89
4, 9180, Note_on_c, 2, 69, 104
4, 9186, Note_on_c, 2, 73, 0
4, 9186, Note_on_c, 2, 66, 0
4, 9194, Note_on_c, 2, 61, 0
4, 9194, Note_on_c, 2, 62, 0
4, 9194, Note_on_c, 2, 69, 0
4, 9210, Note_on_c, 2, 61, 104
4, 9210, Note_on_c, 2, 62, 98
4, 9210, Note_on_c, 2, 73, 98
4, 9210, Note_on_c, 2, 69, 122
4, 9210, Note_on_c, 2, 66, 117
4, 9247, Note_on_c, 2, 62, 0
4, 9247, Note_on_c, 2, 61, 0
4, 9254, Note_on_c, 2, 66, 0
4, 9254, Note_on_c, 2, 73, 0
4, 9262, Note_on_c, 2, 69, 0
4, 9270, Note_on_c, 2, 62, 104
4, 9270, Note_on_c, 2, 61, 109
4, 9270, Note_on_c, 2, 74, 105
4, 9270, Note_on_c, 2, 69, 113
4, 9270, Note_on_c, 2, 66, 88
4, 9307, Note_on_c, 2, 61, 0
4, 9307, Note_on_c, 2, 62, 0
4, 9310, Note_on_c, 2, 69, 0
4, 9310, Note_on_c, 2, 74, 0
4, 9310, Note_on_c, 2, 66, 0
4, 9330, Note_on_c, 2, 64, 111
4, 9330, Note_on_c, 2, 57, 94
4, 9330, Note_on_c, 2, 69, 117
4, 9330, Note_on_c, 2, 61, 93
4, 9330, Note_on_c, 2, 66, 109
4, 9786, Note_on_c, 2, 66, 0
4, 9801, Note_on_c, 2, 69, 0
4, 9809, Note_on_c, 2, 64, 0
4, 9810, Note_on_c, 2, 66, 76
4, 9824, Note_on_c, 2, 57, 0
4, 9824, Note_on_c, 2, 61, 0
4, 9840, Note_on_c, 2, 62, 115
4, 9840, Note_on_c, 2, 73, 127
4, 9840, Note_on_c, 2, 61, 125
4, 9840, Note_on_c, 2, 69, 108
4, 9869, Note_on_c, 2, 73, 0
4, 9870, Note_on_c, 2, 66, 0
4, 9877, Note_on_c, 2, 69, 0
4, 9877, Note_on_c, 2, 62, 0
4, 9884, Note_on_c, 2, 61, 0
4, 9900, Note_on_c, 2, 61, 114
4, 9900, Note_on_c, 2, 73, 106
4, 9900, Note_on_c, 2, 62, 94
4, 9900, Note_on_c, 2, 69, 105
4, 9900, Note_on_c, 2, 66, 98
4, 9907, Note_on_c, 2, 69, 0
4, 9907, Note_on_c, 2, 62, 0
4, 9907, Note_on_c, 2, 73, 0
4, 9914, Note_on_c, 2, 61, 0
4, 9914, Note_on_c, 2, 66, 0
4, 9930, Note_on_c, 2, 62, 111
4, 9930, Note_on_c, 2, 61, 121
4, 9930, Note_on_c, 2, 66, 121
4, 9930, Note_on_c, 2, 69, 124
4, 9930, Note_on_c, 2, 73, 117
4, 9966, Note_on_c, 2, 66, 0
4, 9966, Note_on_c, 2, 62, 0
4, 9981, Note_on_c, 2, 61, 0
4, 9981, Note_on_c, 2, 69, 0
4, 9981, Note_on_c, 2, 73, 0
4, 9990, Note_on_c, 2, 74, 110
4, 9990, Note_on_c, 2, 69, 111
4, 9990, Note_on_c, 2, 62, 94
4, 9990, Note_on_c, 2, 66, 89
4, 9990, Note_on_c, 2, 61, 80
4, 10019, Note_on_c, 2, 66, 0
4, 10019, Note_on_c, 2, 69, 0
4, 10027, Note_on_c, 2, 74, 0
4, 10027, Note_on_c, 2, 62, 0
4, 10027, Note_on_c, 2, 61, 0
4, 10050, Note_on_c, 2, 55, 103
4, 10050, Note_on_c, 2, 59, 107
4, 10050, Note_on_c, 2, 62, 117
4, 10050, Note_on_c, 2, 64, 126
4, 10050, Note_on_c, 2, 67, 127
4, 10506, Note_on_c, 2, 55, 0
4, 10514, Note_on_c, 2, 59, 0
4, 10522, Note_on_c, 2, 64, 0
4, 10522, Note_on_c, 2, 62, 0
4, 10522, Note_on_c, 2, 67, 0
4, 10800, Note_on_c, 2, 55, 99
4, 10800, Note_on_c, 2, 59, 115
4, 10800, Note_on_c, 2, 62, 111
4, 10800, Note_on_c, 2, 64, 124
4, 10800, Note_on_c, 2, 67, 127
4, 10829, Note_on_c, 2, 55, 0
4, 10837, Note_on_c, 2, 64, 0
4, 10837, Note_on_c, 2, 59, 0
4, 10837, Note_on_c, 2, 62, 0
4, 10844, Note_on_c, 2, 67, 0
4, 10860, Note_on_c, 2, 55, 103
4, 10860, Note_on_c, 2, 59, 111
4, 10860, Note_on_c, 2, 64, 124
4, 10860, Note_on_c, 2, 62, 110
4, 10860, Note_on_c, 2, 67, 126
4, 10882, Note_on_c, 2, 62, 0
4, 10882, Note_on_c, 2, 64, 0
4, 10882, Note_on_c, 2, 55, 0
4, 10882, Note_on_c, 2, 59, 0
4, 10890, Note_on_c, 2, 67, 0
4, 10890, Note_on_c, 2, 59, 103
4, 10890, Note_on_c, 2, 62, 104
4, 10890, Note_on_c, 2, 55, 98
4, 10890, Note_on_c, 2, 71, 126
4, 10890, Note_on_c, 2, 67, 110
4, 10890, Note_on_c, 2, 64, 98
4, 10891, Note_on_c, 2, 67, 0
4, 10925, Note_on_c, 2, 55, 0
4, 10934, Note_on_c, 2, 71, 0
4, 10934, Note_on_c, 2, 59, 0
4, 10934, Note_on_c, 2, 62, 0
4, 10941, Note_on_c, 2, 64, 0
4, 10950, Note_on_c, 2, 74, 110
4, 10950, Note_on_c, 2, 59, 110
4, 10950, Note_on_c, 2, 71, 113
4, 10950, Note_on_c, 2, 67, 115
4, 10950, Note_on_c, 2, 62, 115
4, 10950, Note_on_c, 2, 64, 99
4, 10965, Note_on_c, 2, 64, 0
4, 10965, Note_on_c, 2, 74, 0
4, 10965, Note_on_c, 2, 59, 0
4, 10972, Note_on_c, 2, 67, 0
4, 10972, Note_on_c, 2, 62, 0
4, 10972, Note_on_c, 2, 71, 0
4, 11010, Note_on_c, 2, 67, 127
4, 11010, Note_on_c, 2, 76, 127
4, 11010, Note_on_c, 2, 64, 126
4, 11010, Note_on_c, 2, 72, 127
4, 11264, Note_on_c, 2, 72, 0
4, 11264, Note_on_c, 2, 67, 0
4, 11264, Note_on_c, 2, 76, 0
4, 11264, Note_on_c, 2, 64, 0
4, 11280, Note_on_c, 2, 76, 127
4, 11280, Note_on_c, 2, 64, 117
4, 11280, Note_on_c, 2, 72, 117
4, 11280, Note_on_c, 2, 67, 115
4, 11309, Note_on_c, 2, 72, 0
4, 11309, Note_on_c, 2, 64, 0
4, 11317, Note_on_c, 2, 76, 0
4, 11317, Note_on_c, 2, 67, 0
4, 11340, Note_on_c, 2, 64, 119
4, 11340, Note_on_c, 2, 76, 127
4, 11340, Note_on_c, 2, 72, 126
4, 11340, Note_on_c, 2, 67, 122
4, 11370, Note_on_c, 2, 76, 0
4, 11370, Note_on_c, 2, 77, 103
4, 11370, Note_on_c, 2, 74, 111
4, 11406, Note_on_c, 2, 77, 0
4, 11422, Note_on_c, 2, 74, 0
4, 11430, Note_on_c, 2, 79, 122
4, 11445, Note_on_c, 2, 64, 0
4, 11445, Note_on_c, 2, 72, 0
4, 11451, Note_on_c, 2, 67, 0
4, 11460, Note_on_c, 2, 79, 0
4, 11490, Note_on_c, 2, 69, 113
4, 11490, Note_on_c, 2, 67, 104
4, 11490, Note_on_c, 2, 71, 111
4, 11490, Note_on_c, 2, 81, 127
4, 11490, Note_on_c, 2, 72, 113
4, 11490, Note_on_c, 2, 77, 127
4, 11490, Note_on_c, 2, 74, 127
4, 11496, Note_on_c, 2, 71, 0
4, 11504, Note_on_c, 2, 67, 0
4, 11654, Note_on_c, 2, 69, 0
4, 11662, Note_on_c, 2, 72, 0
4, 11662, Note_on_c, 2, 77, 0
4, 11662, Note_on_c, 2, 74, 0
4, 11670, Note_on_c, 2, 81, 0
4, 11670, Note_on_c, 2, 69, 108
4, 11670, Note_on_c, 2, 72, 103
4, 11670, Note_on_c, 2, 74, 126
4, 11699, Note_on_c, 2, 69, 0
4, 11707, Note_on_c, 2, 72, 0
4, 11714, Note_on_c, 2, 74, 0
4, 11730, Note_on_c, 2, 81, 127
4, 11730, Note_on_c, 2, 77, 127
4, 11730, Note_on_c, 2, 70, 125
4, 11730, Note_on_c, 2, 74, 113
4, 11887, Note_on_c, 2, 74, 0
4, 11887, Note_on_c, 2, 70, 0
4, 11895, Note_on_c, 2, 77, 0
4, 11895, Note_on_c, 2, 81, 0
4, 11910, Note_on_c, 2, 70, 117
4, 11910, Note_on_c, 2, 74, 127
4, 11955, Note_on_c, 2, 74, 0
4, 11955, Note_on_c, 2, 70, 0
4, 11970, Note_on_c, 2, 71, 127
4, 11970, Note_on_c, 2, 78, 127
4, 11970, Note_on_c, 2, 74, 127
4, 11970, Note_on_c, 2, 81, 127
4, 12374, Note_on_c, 2, 81, 0
4, 12381, Note_on_c, 2, 71, 0
4, 12390, Note_on_c, 2, 74, 0
4, 12390, Note_on_c, 2, 78, 0
4, 12450, Note_on_c, 2, 59, 71
4, 12480, Note_on_c, 2, 54, 114
4, 12480, Note_on_c, 2, 66, 125
4, 12480, Note_on_c, 2, 55, 98
4, 12480, Note_on_c, 2, 62, 104
4, 12511, Note_on_c, 2, 59, 0
4, 12518, Note_on_c, 2, 54, 0
4, 12518, Note_on_c, 2, 62, 0
4, 12518, Note_on_c, 2, 66, 0
4, 12525, Note_on_c, 2, 55, 0
4, 12540, Note_on_c, 2, 66, 114
4, 12540, Note_on_c, 2, 59, 103
4, 12540, Note_on_c, 2, 62, 113
4, 12540, Note_on_c, 2, 55, 94
4, 12540, Note_on_c, 2, 54, 111
4, 12555, Note_on_c, 2, 54, 0
4, 12555, Note_on_c, 2, 62, 0
4, 12555, Note_on_c, 2, 66, 0
4, 12555, Note_on_c, 2, 59, 0
4, 12555, Note_on_c, 2, 55, 0
4, 12570, Note_on_c, 2, 55, 105
4, 12570, Note_on_c, 2, 54, 114
4, 12570, Note_on_c, 2, 59, 119
4, 12570, Note_on_c, 2, 62, 119
4, 12570, Note_on_c, 2, 66, 117
4, 12607, Note_on_c, 2, 55, 0
4, 12615, Note_on_c, 2, 62, 0
4, 12615, Note_on_c, 2, 54, 0
4, 12615, Note_on_c, 2, 59, 0
4, 12615, Note_on_c, 2, 66, 0
4, 12630, Note_on_c, 2, 55, 97
4, 12630, Note_on_c, 2, 67, 108
4, 12630, Note_on_c, 2, 62, 107
4, 12630, Note_on_c, 2, 59, 108
4, 12630, Note_on_c, 2, 54, 93
4, 12667, Note_on_c, 2, 54, 0
4, 12667, Note_on_c, 2, 62, 0
4, 12667, Note_on_c, 2, 55, 0
4, 12667, Note_on_c, 2, 67, 0
4, 12667, Note_on_c, 2, 59, 0
4, 12690, Note_on_c, 2, 55, 92
4, 12690, Note_on_c, 2, 57, 91
4, 12690, Note_on_c, 2, 52, 98
4, 12690, Note_on_c, 2, 59, 91
4, 12690, Note_on_c, 2, 61, 114
4, 12690, Note_on_c, 2, 64, 96
4, 12996, Note_on_c, 2, 55, 0
4, 13005, Note_on_c, 2, 61, 0
4, 13005, Note_on_c, 2, 59, 0
4, 13005, Note_on_c, 2, 57, 0
4, 13012, Note_on_c, 2, 64, 0
4, 13012, Note_on_c, 2, 52, 0
4, 13080, Note_on_c, 2, 52, 97
4, 13080, Note_on_c, 2, 64, 119
4, 13080, Note_on_c, 2, 59, 111
4, 13080, Note_on_c, 2, 55, 108
4, 13080, Note_on_c, 2, 62, 87
4, 13080, Note_on_c, 2, 63, 80
4, 13087, Note_on_c, 2, 63, 0
4, 13094, Note_on_c, 2, 52, 0
4, 13094, Note_on_c, 2, 59, 0
4, 13094, Note_on_c, 2, 55, 0
4, 13110, Note_on_c, 2, 64, 0
4, 13110, Note_on_c, 2, 62, 0
4, 13110, Note_on_c, 2, 59, 99
4, 13110, Note_on_c, 2, 52, 97
4, 13110, Note_on_c, 2, 55, 104
4, 13110, Note_on_c, 2, 66, 114
4, 13139, Note_on_c, 2, 59, 0
4, 13147, Note_on_c, 2, 52, 0
4, 13147, Note_on_c, 2, 55, 0
4, 13161, Note_on_c, 2, 66, 0
4, 13170, Note_on_c, 2, 59, 108
4, 13170, Note_on_c, 2, 55, 104
4, 13170, Note_on_c, 2, 52, 97
4, 13170, Note_on_c, 2, 64, 122
4, 13199, Note_on_c, 2, 59, 0
4, 13222, Note_on_c, 2, 52, 0
4, 13229, Note_on_c, 2, 64, 0
4, 13230, Note_on_c, 2, 62, 113
4, 13230, Note_on_c, 2, 59, 110
4, 13267, Note_on_c, 2, 55, 0
4, 13268, Note_on_c, 2, 59, 0
4, 13290, Note_on_c, 2, 49, 76
4, 13290, Note_on_c, 2, 54, 117
4, 13290, Note_on_c, 2, 52, 95
4, 13290, Note_on_c, 2, 59, 111
4, 13290, Note_on_c, 2, 57, 105
4, 13292, Note_on_c, 2, 62, 0
4, 13333, Note_on_c, 2, 57, 0
4, 13341, Note_on_c, 2, 49, 0
4, 13341, Note_on_c, 2, 59, 0
4, 13341, Note_on_c, 2, 54, 0
4, 13350, Note_on_c, 2, 61, 111
4, 13350, Note_on_c, 2, 57, 101
4, 13394, Note_on_c, 2, 52, 0
4, 13395, Note_on_c, 2, 57, 0
4, 13395, Note_on_c, 2, 61, 0
4, 13410, Note_on_c, 2, 59, 119
4, 13410, Note_on_c, 2, 55, 103
4, 13410, Note_on_c, 2, 52, 83
4, 13410, Note_on_c, 2, 62, 113
4, 13761, Note_on_c, 2, 59, 0
4, 13770, Note_on_c, 2, 55, 0
4, 13776, Note_on_c, 2, 52, 0
4, 13792, Note_on_c, 2, 62, 0
4, 13800, Note_on_c, 2, 64, 111
4, 13800, Note_on_c, 2, 49, 76
4, 13800, Note_on_c, 2, 57, 111
4, 13800, Note_on_c, 2, 54, 125
4, 13800, Note_on_c, 2, 52, 101
4, 13800, Note_on_c, 2, 63, 87
4, 13805, Note_on_c, 2, 63, 0
4, 13860, Note_on_c, 2, 66, 114
4, 13867, Note_on_c, 2, 49, 0
4, 13867, Note_on_c, 2, 64, 0
4, 13867, Note_on_c, 2, 54, 0
4, 13872, Note_on_c, 2, 57, 0
4, 13882, Note_on_c, 2, 66, 0
4, 13889, Note_on_c, 2, 52, 0
4, 13890, Note_on_c, 2, 59, 124
4, 13890, Note_on_c, 2, 52, 100
4, 13890, Note_on_c, 2, 52, 0
4, 13890, Note_on_c, 2, 62, 127
4, 13890, Note_on_c, 2, 55, 103
4, 14242, Note_on_c, 2, 62, 0
4, 14302, Note_on_c, 2, 55, 0
4, 14324, Note_on_c, 2, 59, 0
4, 14400, Note_on_c, 2, 71, 107
4, 14400, Note_on_c, 2, 74, 117
4, 14400, Note_on_c, 2, 78, 104
4, 14400, Note_on_c, 2, 66, 109
4, 14400, Note_on_c, 2, 67, 98
4, 14437, Note_on_c, 2, 67, 0
4, 14437, Note_on_c, 2, 78, 0
4, 14437, Note_on_c, 2, 71, 0
4, 14437, Note_on_c, 2, 74, 0
4, 14437, Note_on_c, 2, 66, 0
4, 14460, Note_on_c, 2, 71, 90
4, 14460, Note_on_c, 2, 78, 102
4, 14460, Note_on_c, 2, 74, 103
4, 14460, Note_on_c, 2, 66, 93
4, 14460, Note_on_c, 2, 67, 90
4, 14475, Note_on_c, 2, 67, 0
4, 14475, Note_on_c, 2, 74, 0
4, 14475, Note_on_c, 2, 71, 0
4, 14475, Note_on_c, 2, 78, 0
4, 14475, Note_on_c, 2, 66, 0
4, 14490, Note_on_c, 2, 66, 102
4, 14490, Note_on_c, 2, 67, 94
4, 14490, Note_on_c, 2, 71, 91
4, 14490, Note_on_c, 2, 78, 104
4, 14490, Note_on_c, 2, 74, 101
4, 14527, Note_on_c, 2, 71, 0
4, 14527, Note_on_c, 2, 67, 0
4, 14535, Note_on_c, 2, 66, 0
4, 14535, Note_on_c, 2, 78, 0
4, 14535, Note_on_c, 2, 74, 0
4, 14550, Note_on_c, 2, 79, 97
4, 14550, Note_on_c, 2, 71, 89
4, 14550, Note_on_c, 2, 74, 100
4, 14550, Note_on_c, 2, 67, 92
4, 14550, Note_on_c, 2, 66, 88
4, 14580, Note_on_c, 2, 66, 0
4, 14580, Note_on_c, 2, 74, 0
4, 14580, Note_on_c, 2, 79, 0
4, 14587, Note_on_c, 2, 71, 0
4, 14587, Note_on_c, 2, 67, 0
4, 14610, Note_on_c, 2, 67, 90
4, 14610, Note_on_c, 2, 71, 85
4, 14610, Note_on_c, 2, 76, 94
4, 14610, Note_on_c, 2, 73, 109
4, 14610, Note_on_c, 2, 69, 85
4, 14610, Note_on_c, 2, 64, 87
4, 14931, Note_on_c, 2, 71, 0
4, 14940, Note_on_c, 2, 69, 0
4, 14940, Note_on_c, 2, 73, 0
4, 14940, Note_on_c, 2, 67, 0
4, 14940, Note_on_c, 2, 76, 0
4, 14947, Note_on_c, 2, 64, 0
4, 15000, Note_on_c, 2, 64, 99
4, 15000, Note_on_c, 2, 67, 101
4, 15000, Note_on_c, 2, 76, 119
4, 15000, Note_on_c, 2, 71, 99
4, 15000, Note_on_c, 2, 74, 97
4, 15022, Note_on_c, 2, 71, 0
4, 15022, Note_on_c, 2, 76, 0
4, 15022, Note_on_c, 2, 64, 0
4, 15022, Note_on_c, 2, 67, 0
4, 15030, Note_on_c, 2, 67, 99
4, 15030, Note_on_c, 2, 71, 91
4, 15030, Note_on_c, 2, 64, 89
4, 15030, Note_on_c, 2, 78, 109
4, 15051, Note_on_c, 2, 74, 0
4, 15067, Note_on_c, 2, 67, 0
4, 15067, Note_on_c, 2, 71, 0
4, 15074, Note_on_c, 2, 78, 0
4, 15090, Note_on_c, 2, 71, 103
4, 15090, Note_on_c, 2, 67, 91
4, 15090, Note_on_c, 2, 76, 117
4, 15134, Note_on_c, 2, 71, 0
4, 15142, Note_on_c, 2, 64, 0
4, 15142, Note_on_c, 2, 76, 0
4, 15150, Note_on_c, 2, 74, 107
4, 15150, Note_on_c, 2, 71, 103
4, 15179, Note_on_c, 2, 67, 0
4, 15187, Note_on_c, 2, 71, 0
4, 15203, Note_on_c, 2, 74, 0
4, 15210, Note_on_c, 2, 69, 113
4, 15210, Note_on_c, 2, 71, 119
4, 15210, Note_on_c, 2, 61, 40
4, 15210, Note_on_c, 2, 64, 83
4, 15246, Note_on_c, 2, 69, 0
4, 15262, Note_on_c, 2, 71, 0
4, 15262, Note_on_c, 2, 64, 0
4, 15270, Note_on_c, 2, 73, 117
4, 15270, Note_on_c, 2, 69, 117
4, 15270, Note_on_c, 2, 66, 93
4, 15270, Note_on_c, 2, 64, 61
4, 15284, Note_on_c, 2, 66, 0
4, 15292, Note_on_c, 2, 61, 0
4, 15314, Note_on_c, 2, 73, 0
4, 15314, Note_on_c, 2, 69, 0
4, 15330, Note_on_c, 2, 71, 113
4, 15330, Note_on_c, 2, 67, 97
4, 15330, Note_on_c, 2, 74, 113
4, 15675, Note_on_c, 2, 67, 0
4, 15690, Note_on_c, 2, 71, 0
4, 15712, Note_on_c, 2, 64, 0
4, 15713, Note_on_c, 2, 74, 0
4, 15720, Note_on_c, 2, 61, 68
4, 15720, Note_on_c, 2, 76, 127
4, 15720, Note_on_c, 2, 69, 126
4, 15720, Note_on_c, 2, 66, 127
4, 15720, Note_on_c, 2, 64, 95
4, 15720, Note_on_c, 2, 75, 121
4, 15725, Note_on_c, 2, 75, 0
4, 15771, Note_on_c, 2, 76, 0
4, 15771, Note_on_c, 2, 66, 0
4, 15778, Note_on_c, 2, 61, 0
4, 15780, Note_on_c, 2, 78, 98
4, 15786, Note_on_c, 2, 69, 0
4, 15809, Note_on_c, 2, 64, 0
4, 15810, Note_on_c, 2, 71, 115
4, 15810, Note_on_c, 2, 74, 108
4, 15810, Note_on_c, 2, 67, 108
4, 15817, Note_on_c, 2, 71, 0
4, 15818, Note_on_c, 2, 78, 0
4, 15824, Note_on_c, 2, 74, 0
4, 15831, Note_on_c, 2, 67, 0
4, 15870, Note_on_c, 2, 57, 122
4, 15870, Note_on_c, 2, 45, 119
4, 15892, Note_on_c, 2, 45, 0
4, 15900, Note_on_c, 2, 56, 88
4, 15900, Note_on_c, 2, 44, 114
4, 15907, Note_on_c, 2, 44, 0
4, 15907, Note_on_c, 2, 57, 0
4, 15921, Note_on_c, 2, 56, 0
4, 15930, Note_on_c, 2, 55, 111
4, 15930, Note_on_c, 2, 43, 126
4, 15952, Note_on_c, 2, 43, 0
4, 15952, Note_on_c, 2, 55, 0
4, 15990, Note_on_c, 2, 54, 127
4, 15990, Note_on_c, 2, 42, 117
4, 16004, Note_on_c, 2, 54, 0
4, 16020, Note_on_c, 2, 41, 113
4, 16020, Note_on_c, 2, 53, 111
4, 16026, Note_on_c, 2, 42, 0
4, 16042, Note_on_c, 2, 53, 0
4, 16042, Note_on_c, 2, 41, 0
4, 16050, Note_on_c, 2, 40, 115
4, 16050, Note_on_c, 2, 52, 124
4, 16088, Note_on_c, 2, 52, 0
4, 16088, Note_on_c, 2, 40, 0
4, 24000, Control_c, 2, 7, 90
4, 24000, Program_c, 2, 0
4, 24000, Note_on_c, 2, 61, 127
4, 24000, Note_on_c, 2, 62, 107
4, 24000, Note_on_c, 2, 73, 109
4, 24000, Note_on_c, 2, 69, 122
4, 24000, Note_on_c, 2, 66, 109
4, 24037, Note_on_c, 2, 66, 0
4, 24037, Note_on_c, 2, 73, 0
4, 24037, Note_on_c, 2, 61, 0
4, 24037, Note_on_c, 2, 62, 0
4, 24037, Note_on_c, 2, 69, 0
4, 24060, Note_on_c, 2, 73, 89
4, 24060, Note_on_c, 2, 69, 107
4, 24060, Note_on_c, 2, 66, 85
4, 24060, Note_on_c, 2, 62, 96
4, 24060, Note_on_c, 2, 61, 100
4, 24067, Note_on_c, 2, 69, 0
4, 24067, Note_on_c, 2, 73, 0
4, 24074, Note_on_c, 2, 66, 0
4, 24082, Note_on_c, 2, 62, 0
4, 24082, Note_on_c, 2, 61, 0
4, 24090, Note_on_c, 2, 62, 90
4, 24090, Note_on_c, 2, 61, 89
4, 24090, Note_on_c, 2, 69, 104
4, 24090, Note_on_c, 2, 73, 80
4, 24090, Note_on_c, 2, 66, 94
4, 24120, Note_on_c, 2, 61, 0
4, 24120, Note_on_c, 2, 62, 0
4, 24127, Note_on_c, 2, 73, 0
4, 24127, Note_on_c, 2, 69, 0
4, 24127, Note_on_c, 2, 66, 0
4, 24150, Note_on_c, 2, 62, 93
4, 24150, Note_on_c, 2, 74, 103
4, 24150, Note_on_c, 2, 69, 104
4, 24150, Note_on_c, 2, 61, 76
4, 24150, Note_on_c, 2, 66, 82
4, 24179, Note_on_c, 2, 62, 0
4, 24186, Note_on_c, 2, 66, 0
4, 24186, Note_on_c, 2, 69, 0
4, 24194, Note_on_c, 2, 74, 0
4, 24194, Note_on_c, 2, 61, 0
4, 24210, Note_on_c, 2, 64, 92
4, 24210, Note_on_c, 2, 57, 88
4, 24210, Note_on_c, 2, 69, 104
4, 24210, Note_on_c, 2, 66, 102
4, 24210, Note_on_c, 2, 61, 81
4, 24659, Note_on_c, 2, 66, 0
4, 24674, Note_on_c, 2, 69, 0
4, 24682, Note_on_c, 2, 61, 0
4, 24682, Note_on_c, 2, 64, 0
4, 24690, Note_on_c, 2, 69, 86
4, 24690, Note_on_c, 2, 66, 61
4, 24712, Note_on_c, 2, 57, 0
4, 24720, Note_on_c, 2, 61, 127
4, 24720, Note_on_c, 2, 62, 113
4, 24720, Note_on_c, 2, 73, 121
4, 24720, Note_on_c, 2, 71, 108
4, 24735, Note_on_c, 2, 71, 0
4, 24751, Note_on_c, 2, 69, 0
4, 24751, Note_on_c, 2, 66, 0
4, 24764, Note_on_c, 2, 62, 0
4, 24764, Note_on_c, 2, 73, 0
4, 24764, Note_on_c, 2, 61, 0
4, 24780, Note_on_c, 2, 62, 98
4, 24780, Note_on_c, 2, 61, 114
4, 24780, Note_on_c, 2, 73, 109
4, 24780, Note_on_c, 2, 69, 111
4, 24780, Note_on_c, 2, 66, 106
4, 24794, Note_on_c, 2, 66, 0
4, 24794, Note_on_c, 2, 73, 0
4, 24794, Note_on_c, 2, 69, 0
4, 24794, Note_on_c, 2, 62, 0
4, 24802, Note_on_c, 2, 61, 0
4, 24810, Note_on_c, 2, 62, 105
4, 24810, Note_on_c, 2, 66, 125
4, 24810, Note_on_c, 2, 61, 111
4, 24810, Note_on_c, 2, 69, 122
4, 24810, Note_on_c, 2, 73, 114
4, 24846, Note_on_c, 2, 62, 0
4, 24862, Note_on_c, 2, 69, 0
4, 24862, Note_on_c, 2, 66, 0
4, 24862, Note_on_c, 2, 61, 0
4, 24862, Note_on_c, 2, 73, 0
4, 24870, Note_on_c, 2, 62, 91
4, 24870, Note_on_c, 2, 66, 94
4, 24870, Note_on_c, 2, 69, 103
4, 24870, Note_on_c, 2, 74, 101
4, 24870, Note_on_c, 2, 61, 59
4, 24899, Note_on_c, 2, 69, 0
4, 24899, Note_on_c, 2, 62, 0
4, 24907, Note_on_c, 2, 66, 0
4, 24907, Note_on_c, 2, 74, 0
4, 24914, Note_on_c, 2, 61, 0
4, 24930, Note_on_c, 2, 55, 92
4, 24930, Note_on_c, 2, 59, 92
4, 24930, Note_on_c, 2, 62, 103
4, 24930, Note_on_c, 2, 64, 119
4, 24930, Note_on_c, 2, 67, 124
4, 25334, Note_on_c, 2, 55, 0
4, 25342, Note_on_c, 2, 59, 0
4, 25350, Note_on_c, 2, 64, 0
4, 25350, Note_on_c, 2, 62, 0
4, 25357, Note_on_c, 2, 67, 0
4, 25680, Note_on_c, 2, 55, 101
4, 25680, Note_on_c, 2, 59, 113
4, 25680, Note_on_c, 2, 64, 126
4, 25680, Note_on_c, 2, 62, 117
4, 25680, Note_on_c, 2, 67, 127
4, 25709, Note_on_c, 2, 55, 0
4, 25717, Note_on_c, 2, 62, 0
4, 25717, Note_on_c, 2, 59, 0
4, 25717, Note_on_c, 2, 64, 0
4, 25724, Note_on_c, 2, 67, 0
4, 25740, Note_on_c, 2, 55, 98
4, 25740, Note_on_c, 2, 59, 108
4, 25740, Note_on_c, 2, 64, 115
4, 25740, Note_on_c, 2, 62, 108
4, 25740, Note_on_c, 2, 67, 115
4, 25762, Note_on_c, 2, 62, 0
4, 25762, Note_on_c, 2, 64, 0
4, 25762, Note_on_c, 2, 55, 0
4, 25762, Note_on_c, 2, 59, 0
4, 25770, Note_on_c, 2, 59, 104
4, 25770, Note_on_c, 2, 62, 108
4, 25770, Note_on_c, 2, 55, 97
4, 25770, Note_on_c, 2, 71, 127
4, 25770, Note_on_c, 2, 64, 83
4, 25807, Note_on_c, 2, 55, 0
4, 25807, Note_on_c, 2, 62, 0
4, 25807, Note_on_c, 2, 59, 0
4, 25814, Note_on_c, 2, 64, 0
4, 25822, Note_on_c, 2, 71, 0
4, 25822, Note_on_c, 2, 67, 0
4, 25830, Note_on_c, 2, 55, 98
4, 25830, Note_on_c, 2, 59, 113
4, 25830, Note_on_c, 2, 74, 117
4, 25830, Note_on_c, 2, 71, 117
4, 25830, Note_on_c, 2, 62, 115
4, 25830, Note_on_c, 2, 67, 117
4, 25830, Note_on_c, 2, 64, 104
4, 25844, Note_on_c, 2, 64, 0
4, 25844, Note_on_c, 2, 55, 0
4, 25852, Note_on_c, 2, 74, 0
4, 25852, Note_on_c, 2, 71, 0
4, 25852, Note_on_c, 2, 59, 0
4, 25852, Note_on_c, 2, 67, 0
4, 25859, Note_on_c, 2, 62, 0
4, 25890, Note_on_c, 2, 64, 111
4, 25890, Note_on_c, 2, 67, 127
4, 25890, Note_on_c, 2, 76, 127
4, 25890, Note_on_c, 2, 72, 127
4, 26137, Note_on_c, 2, 72, 0
4, 26137, Note_on_c, 2, 64, 0
4, 26137, Note_on_c, 2, 67, 0
4, 26137, Note_on_c, 2, 76, 0
4, 26160, Note_on_c, 2, 67, 127
4, 26160, Note_on_c, 2, 64, 108
4, 26160, Note_on_c, 2, 72, 127
4, 26160, Note_on_c, 2, 76, 127
4, 26197, Note_on_c, 2, 72, 0
4, 26197, Note_on_c, 2, 67, 0
4, 26197, Note_on_c, 2, 64, 0
4, 26204, Note_on_c, 2, 76, 0
4, 26220, Note_on_c, 2, 72, 115
4, 26220, Note_on_c, 2, 64, 103
4, 26220, Note_on_c, 2, 67, 122
4, 26220, Note_on_c, 2, 76, 119
4, 26250, Note_on_c, 2, 76, 0
4, 26250, Note_on_c, 2, 77, 126
4, 26250, Note_on_c, 2, 74, 127
4, 26287, Note_on_c, 2, 74, 0
4, 26287, Note_on_c, 2, 77, 0
4, 26294, Note_on_c, 2, 72, 0
4, 26310, Note_on_c, 2, 79, 110
4, 26310, Note_on_c, 2, 72, 105
4, 26310, Note_on_c, 2, 71, 99
4, 26310, Note_on_c, 2, 77, 127
4, 26310, Note_on_c, 2, 74, 113
4, 26324, Note_on_c, 2, 79, 0
4, 26324, Note_on_c, 2, 64, 0
4, 26332, Note_on_c, 2, 71, 0
4, 26332, Note_on_c, 2, 72, 0
4, 26332, Note_on_c, 2, 67, 0
4, 26332, Note_on_c, 2, 77, 0
4, 26339, Note_on_c, 2, 74, 0
4, 26370, Note_on_c, 2, 81, 127
4, 26370, Note_on_c, 2, 77, 127
4, 26370, Note_on_c, 2, 72, 127
4, 26535, Note_on_c, 2, 72, 0
4, 26535, Note_on_c, 2, 81, 0
4, 26543, Note_on_c, 2, 77, 0
4, 26550, Note_on_c, 2, 72, 126
4, 26595, Note_on_c, 2, 72, 0
4, 26610, Note_on_c, 2, 81, 127
4, 26610, Note_on_c, 2, 77, 127
4, 26610, Note_on_c, 2, 74, 127
4, 26610, Note_on_c, 2, 70, 125
4, 26774, Note_on_c, 2, 70, 0
4, 26774, Note_on_c, 2, 74, 0
4, 26782, Note_on_c, 2, 77, 0
4, 26782, Note_on_c, 2, 81, 0
4, 26790, Note_on_c, 2, 77, 87
4, 26790, Note_on_c, 2, 70, 104
4, 26790, Note_on_c, 2, 74, 119
4, 26796, Note_on_c, 2, 77, 0
4, 26812, Note_on_c, 2, 74, 0
4, 26812, Note_on_c, 2, 70, 0
4, 26850, Note_on_c, 2, 77, 127
4, 26850, Note_on_c, 2, 76, 127
4, 26850, Note_on_c, 2, 69, 127
4, 26850, Note_on_c, 2, 81, 126
4, 26850, Note_on_c, 2, 73, 127
4, 26886, Note_on_c, 2, 77, 0
4, 27254, Note_on_c, 2, 81, 0
4, 27254, Note_on_c, 2, 76, 0
4, 27254, Note_on_c, 2, 73, 0
4, 27262, Note_on_c, 2, 69, 0
4, 27270, Note_on_c, 2, 57, 122
4, 27270, Control_c, 2, 10, 64
4, 27270, Control_c, 2, 7, 110
4, 27270, Program_c, 2, 0
4, 27293, Note_on_c, 2, 57, 0
4, 27300, Note_on_c, 2, 57, 122
4, 27315, Note_on_c, 2, 57, 0
4, 27330, Note_on_c, 2, 57, 110
4, 27330, Note_on_c, 2, 61, 127
4, 27330, Note_on_c, 2, 62, 105
4, 27330, Note_on_c, 2, 66, 127
4, 27457, Note_on_c, 2, 62, 0
4, 27457, Note_on_c, 2, 57, 0
4, 27457, Note_on_c, 2, 61, 0
4, 27464, Note_on_c, 2, 66, 0
4, 27480, Note_on_c, 2, 66, 125
4, 27480, Note_on_c, 2, 57, 91
4, 27480, Note_on_c, 2, 62, 98
4, 27480, Note_on_c, 2, 61, 102
4, 27486, Note_on_c, 2, 57, 0
4, 27494, Note_on_c, 2, 66, 0
4, 27494, Note_on_c, 2, 62, 0
4, 27494, Note_on_c, 2, 61, 0
4, 27510, Note_on_c, 2, 67, 113
4, 27510, Note_on_c, 2, 62, 108
4, 27510, Note_on_c, 2, 64, 101
4, 27533, Note_on_c, 2, 64, 0
4, 27533, Note_on_c, 2, 62, 0
4, 27540, Note_on_c, 2, 67, 0
4, 27570, Note_on_c, 2, 69, 127
4, 27570, Note_on_c, 2, 61, 94
4, 27570, Note_on_c, 2, 64, 110
4, 27570, Note_on_c, 2, 63, 69
4, 27570, Note_on_c, 2, 66, 102
4, 27584, Note_on_c, 2, 63, 0
4, 27936, Note_on_c, 2, 66, 0
4, 27944, Note_on_c, 2, 69, 0
4, 27944, Note_on_c, 2, 61, 0
4, 27944, Note_on_c, 2, 64, 0
4, 27960, Note_on_c, 2, 69, 127
4, 27960, Note_on_c, 2, 61, 91
4, 27960, Note_on_c, 2, 64, 113
4, 27960, Note_on_c, 2, 66, 109
4, 27990, Note_on_c, 2, 69, 0
4, 27990, Note_on_c, 2, 71, 113
4, 28005, Note_on_c, 2, 71, 0
4, 28013, Note_on_c, 2, 61, 0
4, 28013, Note_on_c, 2, 64, 0
4, 28020, Note_on_c, 2, 66, 0
4, 28050, Note_on_c, 2, 66, 117
4, 28050, Note_on_c, 2, 63, 87
4, 28050, Note_on_c, 2, 69, 100
4, 28050, Note_on_c, 2, 72, 119
4, 28072, Note_on_c, 2, 72, 0
4, 28072, Note_on_c, 2, 66, 0
4, 28072, Note_on_c, 2, 63, 0
4, 28072, Note_on_c, 2, 69, 0
4, 28110, Note_on_c, 2, 69, 98
4, 28110, Note_on_c, 2, 66, 117
4, 28110, Note_on_c, 2, 63, 91
4, 28110, Note_on_c, 2, 72, 113
4, 28132, Note_on_c, 2, 63, 0
4, 28132, Note_on_c, 2, 69, 0
4, 28132, Note_on_c, 2, 66, 0
4, 28139, Note_on_c, 2, 72, 0
4, 28170, Note_on_c, 2, 71, 115
4, 28170, Note_on_c, 2, 66, 111
4, 28170, Note_on_c, 2, 63, 91
4, 28184, Note_on_c, 2, 66, 0
4, 28192, Note_on_c, 2, 63, 0
4, 28192, Note_on_c, 2, 71, 0
4, 28230, Note_on_c, 2, 59, 44
4, 28230, Note_on_c, 2, 66, 117
4, 28230, Note_on_c, 2, 63, 98
4, 28237, Note_on_c, 2, 59, 0
4, 28244, Note_on_c, 2, 63, 0
4, 28251, Note_on_c, 2, 66, 0
4, 28290, Note_on_c, 2, 59, 107
4, 28290, Note_on_c, 2, 67, 117
4, 28290, Note_on_c, 2, 62, 115
4, 28290, Note_on_c, 2, 64, 115
4, 28417, Note_on_c, 2, 64, 0
4, 28417, Note_on_c, 2, 59, 0
4, 28417, Note_on_c, 2, 67, 0
4, 28417, Note_on_c, 2, 62, 0
4, 28440, Note_on_c, 2, 62, 95
4, 28440, Note_on_c, 2, 59, 92
4, 28440, Note_on_c, 2, 67, 117
4, 28440, Note_on_c, 2, 64, 115
4, 28447, Note_on_c, 2, 59, 0
4, 28447, Note_on_c, 2, 62, 0
4, 28470, Note_on_c, 2, 69, 110
4, 28470, Note_on_c, 2, 66, 127
4, 28484, Note_on_c, 2, 67, 0
4, 28484, Note_on_c, 2, 64, 0
4, 28515, Note_on_c, 2, 69, 0
4, 28515, Note_on_c, 2, 66, 0
4, 28530, Note_on_c, 2, 71, 122
4, 28530, Note_on_c, 2, 67, 126
4, 28530, Note_on_c, 2, 62, 98
4, 28530, Note_on_c, 2, 66, 89
4, 28897, Note_on_c, 2, 66, 0
4, 28897, Note_on_c, 2, 71, 0
4, 28897, Note_on_c, 2, 67, 0
4, 28897, Note_on_c, 2, 62, 0
4, 28920, Note_on_c, 2, 62, 96
4, 28920, Note_on_c, 2, 66, 127
4, 28920, Note_on_c, 2, 71, 127
4, 28920, Note_on_c, 2, 67, 113
4, 28950, Note_on_c, 2, 62, 0
4, 28950, Note_on_c, 2, 73, 127
4, 28965, Note_on_c, 2, 66, 0
4, 28965, Note_on_c, 2, 67, 0
4, 28965, Note_on_c, 2, 71, 0
4, 28972, Note_on_c, 2, 73, 0
4, 29010, Note_on_c, 2, 67, 98
4, 29010, Note_on_c, 2, 74, 119
4, 29010, Note_on_c, 2, 64, 108
4, 29010, Note_on_c, 2, 70, 104
4, 29032, Note_on_c, 2, 70, 0
4, 29040, Note_on_c, 2, 67, 0
4, 29040, Note_on_c, 2, 74, 0
4, 29040, Note_on_c, 2, 64, 0
4, 29070, Note_on_c, 2, 64, 91
4, 29070, Note_on_c, 2, 67, 108
4, 29070, Note_on_c, 2, 74, 122
4, 29070, Note_on_c, 2, 70, 106
4, 29092, Note_on_c, 2, 70, 0
4, 29092, Note_on_c, 2, 64, 0
4, 29099, Note_on_c, 2, 67, 0
4, 29106, Note_on_c, 2, 74, 0
4, 29130, Note_on_c, 2, 62, 91
4, 29130, Note_on_c, 2, 72, 126
4, 29130, Note_on_c, 2, 70, 87
4, 29130, Note_on_c, 2, 67, 103
4, 29152, Note_on_c, 2, 70, 0
4, 29159, Note_on_c, 2, 67, 0
4, 29159, Note_on_c, 2, 62, 0
4, 29174, Note_on_c, 2, 72, 0
4, 29190, Note_on_c, 2, 70, 127
4, 29190, Note_on_c, 2, 62, 91
4, 29190, Note_on_c, 2, 67, 104
4, 29213, Note_on_c, 2, 67, 0
4, 29213, Note_on_c, 2, 62, 0
4, 29220, Note_on_c, 2, 70, 0
4, 29250, Note_on_c, 2, 60, 122
4, 29250, Note_on_c, 2, 69, 127
4, 29250, Note_on_c, 2, 65, 119
4, 29414, Note_on_c, 2, 60, 0
4, 29429, Note_on_c, 2, 65, 0
4, 29430, Note_on_c, 2, 60, 127
4, 29460, Note_on_c, 2, 65, 119
4, 29467, Note_on_c, 2, 69, 0
4, 29468, Note_on_c, 2, 65, 0
4, 29468, Note_on_c, 2, 60, 0
4, 29490, Note_on_c, 2, 69, 127
4, 29490, Note_on_c, 2, 59, 115
4, 29490, Note_on_c, 2, 63, 111
4, 29655, Note_on_c, 2, 63, 0
4, 29655, Note_on_c, 2, 59, 0
4, 29670, Note_on_c, 2, 60, 100
4, 29700, Note_on_c, 2, 65, 107
4, 29708, Note_on_c, 2, 65, 0
4, 29708, Note_on_c, 2, 60, 0
4, 29708, Note_on_c, 2, 69, 0
4, 29730, Note_on_c, 2, 69, 127
4, 29730, Note_on_c, 2, 58, 117
4, 29730, Note_on_c, 2, 62, 115
4, 29811, Note_on_c, 2, 69, 0
4, 29820, Note_on_c, 2, 70, 114
4, 29834, Note_on_c, 2, 62, 0
4, 29842, Note_on_c, 2, 70, 0
4, 29850, Note_on_c, 2, 62, 90
4, 29850, Note_on_c, 2, 67, 119
4, 29879, Note_on_c, 2, 58, 0
4, 29880, Note_on_c, 2, 62, 0
4, 29888, Note_on_c, 2, 67, 0
4, 29910, Note_on_c, 2, 58, 98
4, 29910, Note_on_c, 2, 65, 119
4, 29910, Note_on_c, 2, 62, 115
4, 29940, Note_on_c, 2, 58, 0
4, 29948, Note_on_c, 2, 62, 0
4, 29948, Note_on_c, 2, 65, 0
4, 29970, Note_on_c, 2, 67, 127
4, 29970, Note_on_c, 2, 58, 109
4, 29970, Note_on_c, 2, 61, 127
4, 29970, Note_on_c, 2, 64, 110
4, 30126, Note_on_c, 2, 58, 0
4, 30141, Note_on_c, 2, 67, 0
4, 30150, Note_on_c, 2, 65, 113
4, 30172, Note_on_c, 2, 65, 0
4, 30180, Note_on_c, 2, 65, 100
4, 30187, Note_on_c, 2, 61, 0
4, 30194, Note_on_c, 2, 64, 0
4, 30202, Note_on_c, 2, 65, 0
4, 30210, Note_on_c, 2, 72, 127
4, 30210, Note_on_c, 2, 69, 127
4, 30210, Note_on_c, 2, 65, 115
4, 30210, Note_on_c, 2, 57, 113
4, 30210, Note_on_c, 2, 60, 124
4, 30210, Note_on_c, 2, 64, 126
4, 30434, Note_on_c, 2, 64, 0
4, 30434, Note_on_c, 2, 65, 0
4, 30442, Note_on_c, 2, 57, 0
4, 30442, Note_on_c, 2, 72, 0
4, 30442, Note_on_c, 2, 69, 0
4, 30442, Note_on_c, 2, 60, 0
4, 30450, Note_on_c, 2, 65, 127
4, 30450, Note_on_c, 2, 60, 110
4, 30450, Note_on_c, 2, 62, 122
4, 30450, Note_on_c, 2, 57, 100
4, 30569, Note_on_c, 2, 65, 0
4, 30577, Note_on_c, 2, 60, 0
4, 30577, Note_on_c, 2, 62, 0
4, 30577, Note_on_c, 2, 57, 0
4, 30600, Note_on_c, 2, 74, 127
4, 30600, Note_on_c, 2, 69, 127
4, 30600, Note_on_c, 2, 71, 127
4, 30630, Note_on_c, 2, 69, 101
4, 30630, Note_on_c, 2, 71, 104
4, 30630, Note_on_c, 2, 76, 111
4, 30637, Note_on_c, 2, 71, 0
4, 30645, Note_on_c, 2, 69, 0
4, 30652, Note_on_c, 2, 76, 0
4, 30653, Note_on_c, 2, 74, 0
4, 30653, Note_on_c, 2, 69, 0
4, 30653, Note_on_c, 2, 71, 0
4, 30690, Note_on_c, 2, 74, 127
4, 30690, Note_on_c, 2, 72, 127
4, 30690, Note_on_c, 2, 71, 127
4, 30690, Note_on_c, 2, 67, 127
4, 30690, Note_on_c, 2, 69, 127
4, 30712, Note_on_c, 2, 72, 0
4, 31094, Note_on_c, 2, 67, 0
4, 31094, Note_on_c, 2, 74, 0
4, 31094, Note_on_c, 2, 69, 0
4, 31101, Note_on_c, 2, 71, 0
4, 31110, Note_on_c, 2, 57, 127
4, 31125, Note_on_c, 2, 57, 0
4, 31140, Note_on_c, 2, 57, 101
4, 31155, Note_on_c, 2, 57, 0
4, 31170, Note_on_c, 2, 61, 125
4, 31170, Note_on_c, 2, 57, 104
4, 31170, Note_on_c, 2, 62, 103
4, 31170, Note_on_c, 2, 66, 127
4, 31297, Note_on_c, 2, 66, 0
4, 31297, Note_on_c, 2, 61, 0
4, 31297, Note_on_c, 2, 57, 0
4, 31297, Note_on_c, 2, 62, 0
4, 31320, Note_on_c, 2, 66, 125
4, 31320, Note_on_c, 2, 62, 111
4, 31320, Note_on_c, 2, 57, 93
4, 31320, Note_on_c, 2, 61, 114
4, 31334, Note_on_c, 2, 61, 0
4, 31334, Note_on_c, 2, 57, 0
4, 31334, Note_on_c, 2, 62, 0
4, 31342, Note_on_c, 2, 66, 0
4, 31350, Note_on_c, 2, 62, 115
4, 31350, Note_on_c, 2, 67, 122
4, 31350, Note_on_c, 2, 64, 115
4, 31372, Note_on_c, 2, 62, 0
4, 31380, Note_on_c, 2, 64, 0
4, 31380, Note_on_c, 2, 67, 0
4, 31410, Note_on_c, 2, 61, 94
4, 31410, Note_on_c, 2, 69, 127
4, 31410, Note_on_c, 2, 64, 122
4, 31410, Note_on_c, 2, 66, 117
4, 31777, Note_on_c, 2, 66, 0
4, 31777, Note_on_c, 2, 64, 0
4, 31777, Note_on_c, 2, 61, 0
4, 31784, Note_on_c, 2, 69, 0
4, 31800, Note_on_c, 2, 64, 115
4, 31800, Note_on_c, 2, 61, 91
4, 31800, Note_on_c, 2, 69, 127
4, 31800, Note_on_c, 2, 66, 111
4, 31830, Note_on_c, 2, 69, 0
4, 31830, Note_on_c, 2, 71, 126
4, 31845, Note_on_c, 2, 71, 0
4, 31852, Note_on_c, 2, 64, 0
4, 31852, Note_on_c, 2, 61, 0
4, 31860, Note_on_c, 2, 66, 0
4, 31890, Note_on_c, 2, 66, 125
4, 31890, Note_on_c, 2, 69, 111
4, 31890, Note_on_c, 2, 63, 114
4, 31890, Note_on_c, 2, 72, 126
4, 31912, Note_on_c, 2, 63, 0
4, 31912, Note_on_c, 2, 66, 0
4, 31912, Note_on_c, 2, 69, 0
4, 31919, Note_on_c, 2, 72, 0
4, 31950, Note_on_c, 2, 69, 98
4, 31950, Note_on_c, 2, 63, 94
4, 31950, Note_on_c, 2, 66, 117
4, 31950, Note_on_c, 2, 72, 126
4, 31964, Note_on_c, 2, 66, 0
4, 31964, Note_on_c, 2, 69, 0
4, 31964, Note_on_c, 2, 63, 0
4, 31986, Note_on_c, 2, 72, 0
4, 32010, Note_on_c, 2, 71, 117
4, 32010, Note_on_c, 2, 63, 114
4, 32010, Note_on_c, 2, 66, 104
4, 32025, Note_on_c, 2, 63, 0
4, 32025, Note_on_c, 2, 71, 0
4, 32033, Note_on_c, 2, 66, 0
4, 32070, Note_on_c, 2, 59, 84
4, 32070, Note_on_c, 2, 63, 91
4, 32070, Note_on_c, 2, 66, 127
4, 32077, Note_on_c, 2, 63, 0
4, 32085, Note_on_c, 2, 59, 0
4, 32093, Note_on_c, 2, 66, 0
4, 32130, Note_on_c, 2, 67, 124
4, 32130, Note_on_c, 2, 62, 126
4, 32130, Note_on_c, 2, 64, 117
4, 32130, Note_on_c, 2, 59, 108
4, 32241, Note_on_c, 2, 64, 0
4, 32249, Note_on_c, 2, 67, 0
4, 32264, Note_on_c, 2, 62, 0
4, 32264, Note_on_c, 2, 59, 0
4, 32280, Note_on_c, 2, 59, 74
4, 32280, Note_on_c, 2, 59, 0
4, 32280, Note_on_c, 2, 67, 124
4, 32280, Note_on_c, 2, 64, 124
4, 32310, Note_on_c, 2, 64, 0
4, 32310, Note_on_c, 2, 66, 127
4, 32310, Note_on_c, 2, 69, 124
4, 32310, Note_on_c, 2, 64, 77
4, 32310, Note_on_c, 2, 64, 0
4, 32316, Note_on_c, 2, 67, 0
4, 32354, Note_on_c, 2, 66, 0
4, 32361, Note_on_c, 2, 69, 0
4, 32370, Note_on_c, 2, 62, 105
4, 32370, Note_on_c, 2, 71, 119
4, 32370, Note_on_c, 2, 67, 126
4, 32370, Note_on_c, 2, 66, 96
4, 32736, Note_on_c, 2, 67, 0
4, 32744, Note_on_c, 2, 62, 0
4, 32744, Note_on_c, 2, 71, 0
4, 32744, Note_on_c, 2, 66, 0
4, 32760, Note_on_c, 2, 62, 91
4, 32760, Note_on_c, 2, 67, 126
4, 32760, Note_on_c, 2, 71, 122
4, 32760, Note_on_c, 2, 66, 91
4, 32789, Note_on_c, 2, 62, 0
4, 32790, Note_on_c, 2, 73, 127
4, 32796, Note_on_c, 2, 71, 0
4, 32804, Note_on_c, 2, 67, 0
4, 32811, Note_on_c, 2, 66, 0
4, 32820, Note_on_c, 2, 73, 0
4, 32850, Note_on_c, 2, 64, 104
4, 32850, Note_on_c, 2, 67, 115
4, 32850, Note_on_c, 2, 74, 124
4, 32850, Note_on_c, 2, 70, 117
4, 32880, Note_on_c, 2, 70, 0
4, 32880, Note_on_c, 2, 64, 0
4, 32880, Note_on_c, 2, 67, 0
4, 32880, Note_on_c, 2, 74, 0
4, 32910, Note_on_c, 2, 74, 127
4, 32910, Note_on_c, 2, 64, 101
4, 32910, Note_on_c, 2, 67, 105
4, 32910, Note_on_c, 2, 70, 100
4, 32931, Note_on_c, 2, 64, 0
4, 32939, Note_on_c, 2, 70, 0
4, 32939, Note_on_c, 2, 67, 0
4, 32954, Note_on_c, 2, 74, 0
4, 32970, Note_on_c, 2, 62, 100
4, 32970, Note_on_c, 2, 72, 127
4, 32970, Note_on_c, 2, 70, 100
4, 32970, Note_on_c, 2, 67, 104
4, 32991, Note_on_c, 2, 70, 0
4, 32999, Note_on_c, 2, 67, 0
4, 32999, Note_on_c, 2, 62, 0
4, 33014, Note_on_c, 2, 72, 0
4, 33030, Note_on_c, 2, 67, 100
4, 33030, Note_on_c, 2, 62, 98
4, 33030, Note_on_c, 2, 70, 127
4, 33052, Note_on_c, 2, 67, 0
4, 33060, Note_on_c, 2, 62, 0
4, 33068, Note_on_c, 2, 70, 0
4, 33090, Note_on_c, 2, 63, 94
4, 33090, Note_on_c, 2, 63, 0
4, 33090, Note_on_c, 2, 60, 119
4, 33090, Note_on_c, 2, 65, 124
4, 33090, Note_on_c, 2, 69, 126
4, 33247, Note_on_c, 2, 60, 0
4, 33261, Note_on_c, 2, 65, 0
4, 33270, Note_on_c, 2, 60, 95
4, 33300, Note_on_c, 2, 65, 107
4, 33307, Note_on_c, 2, 65, 0
4, 33308, Note_on_c, 2, 60, 0
4, 33321, Note_on_c, 2, 69, 0
4, 33330, Note_on_c, 2, 69, 127
4, 33330, Note_on_c, 2, 59, 117
4, 33330, Note_on_c, 2, 63, 117
4, 33495, Note_on_c, 2, 63, 0
4, 33495, Note_on_c, 2, 59, 0
4, 33510, Note_on_c, 2, 60, 99
4, 33540, Note_on_c, 2, 65, 105
4, 33548, Note_on_c, 2, 60, 0
4, 33548, Note_on_c, 2, 69, 0
4, 33555, Note_on_c, 2, 65, 0
4, 33570, Note_on_c, 2, 69, 127
4, 33570, Note_on_c, 2, 58, 117
4, 33570, Note_on_c, 2, 62, 115
4, 33651, Note_on_c, 2, 62, 0
4, 33659, Note_on_c, 2, 69, 0
4, 33660, Note_on_c, 2, 70, 121
4, 33674, Note_on_c, 2, 58, 0
4, 33682, Note_on_c, 2, 70, 0
4, 33690, Note_on_c, 2, 58, 109
4, 33690, Note_on_c, 2, 62, 119
4, 33690, Note_on_c, 2, 67, 124
4, 33727, Note_on_c, 2, 58, 0
4, 33735, Note_on_c, 2, 62, 0
4, 33743, Note_on_c, 2, 67, 0
4, 33750, Note_on_c, 2, 58, 109
4, 33750, Note_on_c, 2, 62, 117
4, 33750, Note_on_c, 2, 65, 111
4, 33786, Note_on_c, 2, 58, 0
4, 33794, Note_on_c, 2, 62, 0
4, 33801, Note_on_c, 2, 65, 0
4, 33810, Note_on_c, 2, 58, 96
4, 33810, Note_on_c, 2, 67, 127
4, 33810, Note_on_c, 2, 64, 115
4, 33810, Note_on_c, 2, 61, 127
4, 33944, Note_on_c, 2, 64, 0
4, 33960, Note_on_c, 2, 64, 95
4, 33989, Note_on_c, 2, 58, 0
4, 33989, Note_on_c, 2, 67, 0
4, 33990, Note_on_c, 2, 65, 113
4, 34013, Note_on_c, 2, 65, 0
4, 34020, Note_on_c, 2, 65, 110
4, 34034, Note_on_c, 2, 61, 0
4, 34035, Note_on_c, 2, 64, 0
4, 34043, Note_on_c, 2, 65, 0
4, 34050, Note_on_c, 2, 57, 100
4, 34050, Note_on_c, 2, 72, 127
4, 34050, Note_on_c, 2, 64, 126
4, 34050, Note_on_c, 2, 60, 105
4, 34050, Note_on_c, 2, 69, 126
4, 34050, Note_on_c, 2, 65, 115
4, 34206, Note_on_c, 2, 64, 0
4, 34229, Note_on_c, 2, 65, 0
4, 34230, Note_on_c, 2, 64, 97
4, 34251, Note_on_c, 2, 69, 0
4, 34260, Note_on_c, 2, 65, 97
4, 34275, Note_on_c, 2, 64, 0
4, 34290, Note_on_c, 2, 65, 0
4, 34290, Note_on_c, 2, 57, 113
4, 34290, Note_on_c, 2, 60, 113
4, 34290, Note_on_c, 2, 72, 113
4, 34290, Note_on_c, 2, 69, 113
4, 34290, Note_on_c, 2, 65, 100
4, 34290, Note_on_c, 2, 65, 0
4, 34440, Note_on_c, 2, 65, 97
4, 34462, Note_on_c, 2, 72, 0
4, 34470, Note_on_c, 2, 65, 117
4, 34470, Note_on_c, 2, 69, 127
4, 34485, Note_on_c, 2, 65, 0
4, 34530, Note_on_c, 2, 65, 113
4, 34530, Note_on_c, 2, 69, 113
4, 34537, Note_on_c, 2, 60, 0
4, 34537, Note_on_c, 2, 57, 0
4, 34545, Note_on_c, 2, 65, 0
4, 34545, Note_on_c, 2, 57, 0
4, 34545, Note_on_c, 2, 69, 0
4, 34545, Note_on_c, 2, 60, 0
4, 34545, Note_on_c, 2, 72, 0
4, 34552, Note_on_c, 2, 69, 0
4, 34560, Note_on_c, 2, 65, 0
4, 34560, Note_on_c, 2, 69, 0
4, 34560, Note_on_c, 2, 58, 79
4, 34560, Note_on_c, 2, 55, 104
4, 34560, Note_on_c, 2, 62, 111
4, 34560, Note_on_c, 2, 65, 113
4, 34560, Note_on_c, 2, 69, 117
4, 34620, Note_on_c, 2, 70, 114
4, 34627, Note_on_c, 2, 69, 0
4, 34650, Note_on_c, 2, 70, 0
4, 34650, Note_on_c, 2, 67, 127
4, 34680, Note_on_c, 2, 67, 0
4, 34686, Note_on_c, 2, 65, 0
4, 34710, Note_on_c, 2, 65, 122
4, 34739, Note_on_c, 2, 58, 0
4, 34746, Note_on_c, 2, 55, 0
4, 34754, Note_on_c, 2, 62, 0
4, 34755, Note_on_c, 2, 65, 0
4, 34770, Note_on_c, 2, 66, 114
4, 34770, Note_on_c, 2, 60, 108
4, 34770, Note_on_c, 2, 64, 127
4, 34770, Note_on_c, 2, 67, 127
4, 34770, Note_on_c, 2, 58, 89
4, 34770, Note_on_c, 2, 55, 98
4, 34784, Note_on_c, 2, 66, 0
4, 34911, Note_on_c, 2, 64, 0
4, 34920, Note_on_c, 2, 68, 127
4, 34920, Note_on_c, 2, 64, 119
4, 34934, Note_on_c, 2, 67, 0
4, 34964, Note_on_c, 2, 55, 0
4, 34965, Note_on_c, 2, 64, 0
4, 34972, Note_on_c, 2, 60, 0
4, 34972, Note_on_c, 2, 58, 0
4, 35010, Note_on_c, 2, 68, 0
4, 35040, Note_on_c, 2, 60, 110
4, 35040, Note_on_c, 2, 57, 103
4, 35040, Note_on_c, 2, 65, 119
4, 35100, Note_on_c, 2, 72, 127
4, 35121, Note_on_c, 2, 72, 0
4, 35129, Note_on_c, 2, 65, 0
4, 35160, Note_on_c, 2, 72, 127
4, 35160, Note_on_c, 2, 65, 127
4, 35190, Note_on_c, 2, 72, 0
4, 35190, Note_on_c, 2, 74, 127
4, 35227, Note_on_c, 2, 74, 0
4, 35241, Note_on_c, 2, 60, 0
4, 35250, Note_on_c, 2, 74, 127
4, 35264, Note_on_c, 2, 57, 0
4, 35265, Note_on_c, 2, 65, 0
4, 35280, Note_on_c, 2, 74, 0
4, 35280, Note_on_c, 2, 76, 127
4, 35280, Note_on_c, 2, 59, 105
4, 35280, Note_on_c, 2, 65, 107
4, 35280, Note_on_c, 2, 57, 91
4, 35280, Note_on_c, 2, 63, 89
4, 35317, Note_on_c, 2, 76, 0
4, 35340, Note_on_c, 2, 76, 127
4, 35370, Note_on_c, 2, 77, 127
4, 35384, Note_on_c, 2, 76, 0
4, 35392, Note_on_c, 2, 65, 0
4, 35400, Note_on_c, 2, 77, 0
4, 35430, Note_on_c, 2, 79, 127
4, 35430, Note_on_c, 2, 65, 127
4, 35467, Note_on_c, 2, 79, 0
4, 35474, Note_on_c, 2, 63, 0
4, 35490, Note_on_c, 2, 81, 127
4, 35497, Note_on_c, 2, 57, 0
4, 35504, Note_on_c, 2, 59, 0
4, 35505, Note_on_c, 2, 65, 0
4, 35520, Note_on_c, 2, 58, 121
4, 35520, Note_on_c, 2, 65, 124
4, 35520, Note_on_c, 2, 62, 111
4, 35521, Note_on_c, 2, 81, 0
4, 35550, Note_on_c, 2, 81, 127
4, 35581, Note_on_c, 2, 81, 0
4, 35610, Note_on_c, 2, 82, 127
4, 35640, Note_on_c, 2, 82, 0
4, 35670, Note_on_c, 2, 83, 127
4, 35691, Note_on_c, 2, 83, 0
4, 35707, Note_on_c, 2, 65, 0
4, 35714, Note_on_c, 2, 58, 0
4, 35714, Note_on_c, 2, 62, 0
4, 35730, Note_on_c, 2, 84, 127
4, 35730, Note_on_c, 2, 83, 127
4, 35730, Note_on_c, 2, 64, 115
4, 35730, Note_on_c, 2, 58, 104
4, 35730, Note_on_c, 2, 61, 104
4, 35744, Note_on_c, 2, 83, 0
4, 35790, Note_on_c, 2, 83, 122
4, 35820, Note_on_c, 2, 82, 111
4, 35826, Note_on_c, 2, 84, 0
4, 35843, Note_on_c, 2, 83, 0
4, 35850, Note_on_c, 2, 81, 108
4, 35857, Note_on_c, 2, 82, 0
4, 35872, Note_on_c, 2, 81, 0
4, 35880, Note_on_c, 2, 77, 127
4, 35902, Note_on_c, 2, 77, 0
4, 35910, Note_on_c, 2, 72, 115
4, 35940, Note_on_c, 2, 72, 0
4, 35940, Note_on_c, 2, 70, 127
4, 35954, Note_on_c, 2, 58, 0
4, 35954, Note_on_c, 2, 64, 0
4, 35954, Note_on_c, 2, 61, 0
4, 35962, Note_on_c, 2, 70, 0
4, 35970, Note_on_c, 2, 57, 124
4, 35970, Note_on_c, 2, 60, 127
4, 35970, Note_on_c, 2, 64, 122
4, 35970, Note_on_c, 2, 69, 127
4, 36112, Note_on_c, 2, 64, 0
4, 36120, Note_on_c, 2, 64, 110
4, 36141, Note_on_c, 2, 69, 0
4, 36150, Note_on_c, 2, 72, 127
4, 36172, Note_on_c, 2, 64, 0
4, 36180, Note_on_c, 2, 73, 127
4, 36187, Note_on_c, 2, 57, 0
4, 36187, Note_on_c, 2, 60, 0
4, 36195, Note_on_c, 2, 72, 0
4, 36195, Note_on_c, 2, 73, 0
4, 36210, Note_on_c, 2, 74, 127
4, 36210, Note_on_c, 2, 66, 121
4, 36210, Note_on_c, 2, 57, 103
4, 36210, Note_on_c, 2, 60, 110
4, 36210, Note_on_c, 2, 63, 96
4, 36261, Note_on_c, 2, 74, 0
4, 36270, Note_on_c, 2, 73, 127
4, 36315, Note_on_c, 2, 73, 0
4, 36330, Note_on_c, 2, 72, 127
4, 36344, Note_on_c, 2, 66, 0
4, 36360, Note_on_c, 2, 66, 127
4, 36375, Note_on_c, 2, 72, 0
4, 36390, Note_on_c, 2, 81, 127
4, 36421, Note_on_c, 2, 66, 0
4, 36426, Note_on_c, 2, 57, 0
4, 36434, Note_on_c, 2, 60, 0
4, 36434, Note_on_c, 2, 63, 0
4, 36435, Note_on_c, 2, 81, 0
4, 36450, Note_on_c, 2, 82, 127
4, 36450, Note_on_c, 2, 58, 127
4, 36450, Note_on_c, 2, 55, 111
4, 36450, Note_on_c, 2, 62, 124
4, 36450, Note_on_c, 2, 65, 124
4, 36501, Note_on_c, 2, 82, 0
4, 36510, Note_on_c, 2, 74, 127
4, 36546, Note_on_c, 2, 65, 0
4, 36570, Note_on_c, 2, 65, 124
4, 36585, Note_on_c, 2, 74, 0
4, 36600, Note_on_c, 2, 73, 127
4, 36622, Note_on_c, 2, 73, 0
4, 36630, Note_on_c, 2, 74, 124
4, 36667, Note_on_c, 2, 65, 0
4, 36674, Note_on_c, 2, 58, 0
4, 36674, Note_on_c, 2, 55, 0
4, 36681, Note_on_c, 2, 62, 0
4, 36682, Note_on_c, 2, 74, 0
4, 36690, Note_on_c, 2, 75, 127
4, 36690, Note_on_c, 2, 60, 104
4, 36690, Note_on_c, 2, 55, 97
4, 36690, Note_on_c, 2, 58, 82
4, 36690, Note_on_c, 2, 64, 122
4, 36727, Note_on_c, 2, 64, 0
4, 36727, Note_on_c, 2, 55, 0
4, 36727, Note_on_c, 2, 58, 0
4, 36727, Note_on_c, 2, 60, 0
4, 36734, Note_on_c, 2, 75, 0
4, 36750, Note_on_c, 2, 55, 96
4, 36750, Note_on_c, 2, 58, 87
4, 36750, Note_on_c, 2, 76, 117
4, 36750, Note_on_c, 2, 60, 115
4, 36750, Note_on_c, 2, 64, 111
4, 36757, Note_on_c, 2, 60, 0
4, 36757, Note_on_c, 2, 58, 0
4, 36757, Note_on_c, 2, 55, 0
4, 36764, Note_on_c, 2, 64, 0
4, 36786, Note_on_c, 2, 76, 0
4, 36810, Note_on_c, 2, 72, 127
4, 36810, Note_on_c, 2, 64, 122
4, 36810, Note_on_c, 2, 60, 108
4, 36810, Note_on_c, 2, 58, 81
4, 36810, Note_on_c, 2, 55, 96
4, 36824, Note_on_c, 2, 64, 0
4, 36832, Note_on_c, 2, 58, 0
4, 36832, Note_on_c, 2, 55, 0
4, 36832, Note_on_c, 2, 60, 0
4, 36839, Note_on_c, 2, 72, 0
4, 36870, Note_on_c, 2, 64, 124
4, 36870, Note_on_c, 2, 58, 81
4, 36870, Note_on_c, 2, 82, 127
4, 36870, Note_on_c, 2, 60, 108
4, 36870, Note_on_c, 2, 55, 96
4, 36876, Note_on_c, 2, 58, 0
4, 36885, Note_on_c, 2, 60, 0
4, 36885, Note_on_c, 2, 64, 0
4, 36885, Note_on_c, 2, 82, 0
4, 36885, Note_on_c, 2, 55, 0
4, 36900, Note_on_c, 2, 64, 55
4, 36907, Note_on_c, 2, 64, 0
4, 36930, Note_on_c, 2, 57, 103
4, 36930, Note_on_c, 2, 65, 127
4, 36930, Note_on_c, 2, 60, 113
4, 36930, Note_on_c, 2, 81, 127
4, 36930, Note_on_c, 2, 77, 127
4, 37011, Note_on_c, 2, 81, 0
4, 37026, Note_on_c, 2, 65, 0
4, 37050, Note_on_c, 2, 65, 127
4, 37071, Note_on_c, 2, 77, 0
4, 37080, Note_on_c, 2, 77, 127
4, 37080, Note_on_c, 2, 89, 127
4, 37081, Note_on_c, 2, 65, 0
4, 37140, Note_on_c, 2, 60, 0
4, 37140, Note_on_c, 2, 65, 115
4, 37154, Note_on_c, 2, 57, 0
4, 37162, Note_on_c, 2, 77, 0
4, 37162, Note_on_c, 2, 89, 0
4, 37162, Note_on_c, 2, 65, 0
4, 37170, Note_on_c, 2, 72, 127
4, 37170, Note_on_c, 2, 84, 127
4, 37230, Note_on_c, 2, 63, 101
4, 37230, Note_on_c, 2, 57, 101
4, 37230, Note_on_c, 2, 59, 101
4, 37230, Note_on_c, 2, 65, 101
4, 37260, Note_on_c, 2, 65, 0
4, 37260, Note_on_c, 2, 57, 0
4, 37260, Note_on_c, 2, 63, 0
4, 37260, Note_on_c, 2, 59, 0
4, 37320, Note_on_c, 2, 63, 94
4, 37320, Note_on_c, 2, 57, 117
4, 37320, Note_on_c, 2, 59, 104
4, 37320, Note_on_c, 2, 65, 117
4, 37320, Note_on_c, 2, 65, 115
4, 37372, Note_on_c, 2, 72, 0
4, 37372, Note_on_c, 2, 84, 0
4, 37380, Note_on_c, 2, 73, 127
4, 37380, Note_on_c, 2, 85, 127
4, 37425, Note_on_c, 2, 65, 0
4, 37432, Note_on_c, 2, 73, 0
4, 37432, Note_on_c, 2, 85, 0
4, 37440, Note_on_c, 2, 86, 127
4, 37440, Note_on_c, 2, 74, 127
4, 37440, Note_on_c, 2, 62, 113
4, 37440, Note_on_c, 2, 65, 122
4, 37440, Note_on_c, 2, 58, 87
4, 37454, Note_on_c, 2, 65, 0
4, 37470, Note_on_c, 2, 74, 127
4, 37470, Note_on_c, 2, 86, 127
4, 37484, Note_on_c, 2, 86, 0
4, 37492, Note_on_c, 2, 74, 0
4, 37500, Note_on_c, 2, 73, 127
4, 37500, Note_on_c, 2, 85, 127
4, 37515, Note_on_c, 2, 85, 0
4, 37515, Note_on_c, 2, 73, 0
4, 37522, Note_on_c, 2, 74, 0
4, 37522, Note_on_c, 2, 86, 0
4, 37530, Note_on_c, 2, 86, 115
4, 37530, Note_on_c, 2, 74, 115
4, 37536, Note_on_c, 2, 65, 0
4, 37560, Note_on_c, 2, 65, 127
4, 37566, Note_on_c, 2, 63, 0
4, 37574, Note_on_c, 2, 57, 0
4, 37574, Note_on_c, 2, 59, 0
4, 37583, Note_on_c, 2, 74, 0
4, 37583, Note_on_c, 2, 86, 0
4, 37590, Note_on_c, 2, 77, 127
4, 37590, Note_on_c, 2, 89, 127
4, 37620, Note_on_c, 2, 89, 0
4, 37620, Note_on_c, 2, 65, 0
4, 37620, Note_on_c, 2, 77, 0
4, 37620, Note_on_c, 2, 61, 38
4, 37627, Note_on_c, 2, 62, 0
4, 37627, Note_on_c, 2, 58, 0
4, 37628, Note_on_c, 2, 61, 0
4, 37650, Note_on_c, 2, 70, 127
4, 37650, Note_on_c, 2, 82, 127
4, 37650, Note_on_c, 2, 64, 122
4, 37650, Note_on_c, 2, 58, 87
4, 37650, Note_on_c, 2, 61, 98
4, 37836, Note_on_c, 2, 64, 0
4, 37851, Note_on_c, 2, 70, 0
4, 37851, Note_on_c, 2, 82, 0
4, 37860, Note_on_c, 2, 71, 124
4, 37860, Note_on_c, 2, 64, 110
4, 37860, Note_on_c, 2, 83, 124
4, 37881, Note_on_c, 2, 58, 0
4, 37896, Note_on_c, 2, 61, 0
4, 37905, Note_on_c, 2, 64, 0
4, 37913, Note_on_c, 2, 71, 0
4, 37913, Note_on_c, 2, 83, 0
4, 37920, Note_on_c, 2, 72, 127
4, 37920, Note_on_c, 2, 64, 124
4, 37920, Note_on_c, 2, 57, 97
4, 37920, Note_on_c, 2, 60, 105
4, 37920, Note_on_c, 2, 84, 127
4, 37979, Note_on_c, 2, 64, 0
4, 38010, Note_on_c, 2, 64, 122
4, 38024, Note_on_c, 2, 72, 0
4, 38024, Note_on_c, 2, 84, 0
4, 38040, Note_on_c, 2, 84, 127
4, 38040, Note_on_c, 2, 96, 127
4, 38070, Note_on_c, 2, 83, 68
4, 38070, Note_on_c, 2, 95, 68
4, 38092, Note_on_c, 2, 64, 0
4, 38100, Note_on_c, 2, 96, 0
4, 38100, Note_on_c, 2, 84, 0
4, 38100, Note_on_c, 2, 82, 117
4, 38100, Note_on_c, 2, 94, 117
4, 38107, Note_on_c, 2, 83, 0
4, 38107, Note_on_c, 2, 95, 0
4, 38114, Note_on_c, 2, 57, 0
4, 38114, Note_on_c, 2, 60, 0
4, 38122, Note_on_c, 2, 94, 0
4, 38122, Note_on_c, 2, 82, 0
4, 38130, Note_on_c, 2, 81, 124
4, 38130, Note_on_c, 2, 93, 124
4, 38130, Note_on_c, 2, 66, 121
4, 38130, Note_on_c, 2, 60, 103
4, 38130, Note_on_c, 2, 57, 87
4, 38130, Note_on_c, 2, 63, 96
4, 38190, Note_on_c, 2, 77, 127
4, 38190, Note_on_c, 2, 89, 127
4, 38196, Note_on_c, 2, 93, 0
4, 38196, Note_on_c, 2, 81, 0
4, 38242, Note_on_c, 2, 89, 0
4, 38242, Note_on_c, 2, 77, 0
4, 38250, Note_on_c, 2, 72, 127
4, 38250, Note_on_c, 2, 84, 127
4, 38256, Note_on_c, 2, 66, 0
4, 38280, Note_on_c, 2, 66, 117
4, 38302, Note_on_c, 2, 72, 0
4, 38302, Note_on_c, 2, 84, 0
4, 38310, Note_on_c, 2, 69, 127
4, 38310, Note_on_c, 2, 81, 127
4, 38347, Note_on_c, 2, 63, 0
4, 38348, Note_on_c, 2, 66, 0
4, 38354, Note_on_c, 2, 57, 0
4, 38354, Note_on_c, 2, 60, 0
4, 38355, Note_on_c, 2, 81, 0
4, 38355, Note_on_c, 2, 69, 0
4, 38370, Note_on_c, 2, 82, 127
4, 38370, Note_on_c, 2, 58, 121
4, 38370, Note_on_c, 2, 55, 108
4, 38370, Note_on_c, 2, 65, 126
4, 38370, Note_on_c, 2, 62, 111
4, 38371, Note_on_c, 2, 70, 127
4, 38421, Note_on_c, 2, 82, 0
4, 38422, Note_on_c, 2, 70, 0
4, 38457, Note_on_c, 2, 84, 127
4, 38461, Note_on_c, 2, 72, 127
4, 38467, Note_on_c, 2, 65, 0
4, 38490, Note_on_c, 2, 65, 126
4, 38519, Note_on_c, 2, 74, 127
4, 38520, Note_on_c, 2, 86, 127
4, 38520, Note_on_c, 2, 85, 127
4, 38527, Note_on_c, 2, 85, 0
4, 38564, Note_on_c, 2, 74, 0
4, 38565, Note_on_c, 2, 86, 0
4, 38580, Note_on_c, 2, 88, 127
4, 38592, Note_on_c, 2, 84, 0
4, 38595, Note_on_c, 2, 65, 0
4, 38596, Note_on_c, 2, 72, 0
4, 38624, Note_on_c, 2, 62, 0
4, 38624, Note_on_c, 2, 55, 0
4, 38624, Note_on_c, 2, 58, 0
4, 38632, Note_on_c, 2, 88, 0
4, 38640, Note_on_c, 2, 77, 127
4, 38640, Note_on_c, 2, 89, 127
4, 38640, Note_on_c, 2, 60, 113
4, 38640, Note_on_c, 2, 64, 122
4, 38640, Note_on_c, 2, 58, 94
4, 38640, Note_on_c, 2, 55, 95
4, 38744, Note_on_c, 2, 64, 0
4, 38752, Note_on_c, 2, 58, 0
4, 38752, Note_on_c, 2, 89, 0
4, 38752, Note_on_c, 2, 77, 0
4, 38752, Note_on_c, 2, 55, 0
4, 38759, Note_on_c, 2, 79, 127
4, 38760, Note_on_c, 2, 60, 0
4, 38760, Note_on_c, 2, 58, 82
4, 38760, Note_on_c, 2, 91, 127
4, 38760, Note_on_c, 2, 64, 119
4, 38760, Note_on_c, 2, 55, 97
4, 38766, Note_on_c, 2, 58, 0
4, 38857, Note_on_c, 2, 64, 0
4, 38857, Note_on_c, 2, 55, 0
4, 38863, Note_on_c, 2, 79, 0
4, 38864, Note_on_c, 2, 91, 0
4, 38880, Note_on_c, 2, 57, 99
4, 38880, Note_on_c, 2, 93, 122
4, 38880, Note_on_c, 2, 65, 127
4, 38880, Note_on_c, 2, 60, 113
4, 38880, Note_on_c, 2, 89, 127
4, 38880, Note_on_c, 2, 84, 110
4, 38881, Note_on_c, 2, 81, 122
4, 38999, Note_on_c, 2, 60, 0
4, 39014, Note_on_c, 2, 93, 0
4, 39015, Note_on_c, 2, 81, 0
4, 39021, Note_on_c, 2, 65, 0
4, 39029, Note_on_c, 2, 89, 0
4, 39029, Note_on_c, 2, 84, 0
4, 39030, Note_on_c, 2, 60, 127
4, 39036, Note_on_c, 2, 57, 0
4, 39060, Note_on_c, 2, 65, 110
4, 39075, Note_on_c, 2, 65, 0
4, 39075, Note_on_c, 2, 60, 0
4, 39090, Note_on_c, 2, 63, 106
4, 39090, Note_on_c, 2, 59, 108
4, 39090, Note_on_c, 2, 69, 127
4, 39090, Note_on_c, 2, 58, 82
4, 39096, Note_on_c, 2, 58, 0
4, 39246, Note_on_c, 2, 59, 0
4, 39254, Note_on_c, 2, 63, 0
4, 39270, Note_on_c, 2, 60, 115
4, 39300, Note_on_c, 2, 65, 117
4, 39307, Note_on_c, 2, 69, 0
4, 39308, Note_on_c, 2, 65, 0
4, 39315, Note_on_c, 2, 60, 0
4, 39330, Note_on_c, 2, 58, 117
4, 39330, Note_on_c, 2, 62, 107
4, 39330, Note_on_c, 2, 69, 127
4, 39420, Note_on_c, 2, 69, 0
4, 39420, Note_on_c, 2, 62, 0
4, 39420, Note_on_c, 2, 58, 0
4, 39420, Note_on_c, 2, 58, 85
4, 39420, Note_on_c, 2, 62, 92
4, 39420, Note_on_c, 2, 70, 117
4, 39435, Note_on_c, 2, 58, 0
4, 39442, Note_on_c, 2, 62, 0
4, 39450, Note_on_c, 2, 58, 111
4, 39450, Note_on_c, 2, 67, 127
4, 39450, Note_on_c, 2, 62, 86
4, 39451, Note_on_c, 2, 70, 0
4, 39486, Note_on_c, 2, 62, 0
4, 39494, Note_on_c, 2, 58, 0
4, 39502, Note_on_c, 2, 67, 0
4, 39510, Note_on_c, 2, 58, 114
4, 39510, Note_on_c, 2, 65, 127
4, 39510, Note_on_c, 2, 62, 119
4, 39547, Note_on_c, 2, 58, 0
4, 39554, Note_on_c, 2, 62, 0
4, 39554, Note_on_c, 2, 65, 0
4, 39570, Note_on_c, 2, 67, 127
4, 39570, Note_on_c, 2, 58, 117
4, 39570, Note_on_c, 2, 61, 127
4, 39570, Note_on_c, 2, 64, 124
4, 39704, Note_on_c, 2, 64, 0
4, 39720, Note_on_c, 2, 64, 70
4, 39749, Note_on_c, 2, 67, 0
4, 39750, Note_on_c, 2, 65, 122
4, 39772, Note_on_c, 2, 58, 0
4, 39773, Note_on_c, 2, 65, 0
4, 39780, Note_on_c, 2, 65, 98
4, 39788, Note_on_c, 2, 64, 0
4, 39794, Note_on_c, 2, 61, 0
4, 39802, Note_on_c, 2, 65, 0
4, 39810, Note_on_c, 2, 72, 127
4, 39810, Note_on_c, 2, 57, 107
4, 39810, Note_on_c, 2, 69, 127
4, 39810, Note_on_c, 2, 65, 127
4, 39810, Note_on_c, 2, 60, 119
4, 39816, Note_on_c, 2, 57, 0
4, 39997, Note_on_c, 2, 65, 0
4, 40020, Note_on_c, 2, 57, 34
4, 40034, Note_on_c, 2, 60, 0
4, 40034, Note_on_c, 2, 69, 0
4, 40035, Note_on_c, 2, 57, 0
4, 40050, Note_on_c, 2, 72, 0
4, 40050, Note_on_c, 2, 66, 127
4, 40050, Note_on_c, 2, 57, 107
4, 40050, Note_on_c, 2, 63, 125
4, 40050, Note_on_c, 2, 60, 115
4, 40214, Note_on_c, 2, 66, 0
4, 40230, Note_on_c, 2, 69, 127
4, 40260, Note_on_c, 2, 69, 0
4, 40290, Note_on_c, 2, 69, 127
4, 40304, Note_on_c, 2, 63, 0
4, 40305, Note_on_c, 2, 69, 0
4, 40312, Note_on_c, 2, 57, 0
4, 40312, Note_on_c, 2, 60, 0
4, 40320, Note_on_c, 2, 58, 69
4, 40320, Note_on_c, 2, 69, 127
4, 40320, Note_on_c, 2, 55, 105
4, 40320, Note_on_c, 2, 62, 107
4, 40379, Note_on_c, 2, 69, 0
4, 40380, Note_on_c, 2, 70, 121
4, 40387, Note_on_c, 2, 58, 0
4, 40394, Note_on_c, 2, 55, 0
4, 40395, Note_on_c, 2, 70, 0
4, 40401, Note_on_c, 2, 62, 0
4, 40410, Note_on_c, 2, 58, 114
4, 40410, Note_on_c, 2, 62, 107
4, 40410, Note_on_c, 2, 55, 110
4, 40410, Note_on_c, 2, 67, 127
4, 40432, Note_on_c, 2, 67, 0
4, 40432, Note_on_c, 2, 58, 0
4, 40432, Note_on_c, 2, 62, 0
4, 40432, Note_on_c, 2, 55, 0
4, 40470, Note_on_c, 2, 55, 113
4, 40470, Note_on_c, 2, 65, 127
4, 40470, Note_on_c, 2, 62, 127
4, 40477, Note_on_c, 2, 55, 0
4, 40484, Note_on_c, 2, 62, 0
4, 40484, Note_on_c, 2, 65, 0
4, 40530, Note_on_c, 2, 66, 127
4, 40530, Note_on_c, 2, 57, 127
4, 40530, Note_on_c, 2, 59, 127
4, 40530, Note_on_c, 2, 62, 127
4, 40530, Note_on_c, 2, 69, 127
4, 40544, Note_on_c, 2, 57, 0
4, 41002, Note_on_c, 2, 66, 0
4, 41002, Note_on_c, 2, 69, 0
4, 41002, Note_on_c, 2, 59, 0
4, 41010, Note_on_c, 2, 62, 0
4, 41040, Note_on_c, 2, 71, 80
4, 41040, Note_on_c, 2, 74, 93
4, 41040, Note_on_c, 2, 66, 78
4, 41040, Note_on_c, 2, 78, 72
4, 41040, Note_on_c, 2, 67, 79
4, 41070, Note_on_c, 2, 78, 0
4, 41070, Note_on_c, 2, 66, 0
4, 41070, Note_on_c, 2, 71, 0
4, 41070, Note_on_c, 2, 74, 0
4, 41075, Note_on_c, 2, 67, 0
4, 41100, Note_on_c, 2, 74, 96
4, 41100, Note_on_c, 2, 71, 82
4, 41100, Note_on_c, 2, 78, 79
4, 41100, Note_on_c, 2, 66, 79
4, 41100, Note_on_c, 2, 67, 82
4, 41107, Note_on_c, 2, 74, 0
4, 41114, Note_on_c, 2, 71, 0
4, 41114, Note_on_c, 2, 78, 0
4, 41122, Note_on_c, 2, 66, 0
4, 41122, Note_on_c, 2, 67, 0
4, 41130, Note_on_c, 2, 66, 89
4, 41130, Note_on_c, 2, 67, 87
4, 41130, Note_on_c, 2, 71, 92
4, 41130, Note_on_c, 2, 74, 107
4, 41130, Note_on_c, 2, 78, 93
4, 41160, Note_on_c, 2, 78, 0
4, 41160, Note_on_c, 2, 71, 0
4, 41160, Note_on_c, 2, 74, 0
4, 41160, Note_on_c, 2, 67, 0
4, 41166, Note_on_c, 2, 66, 0
4, 41190, Note_on_c, 2, 67, 91
4, 41190, Note_on_c, 2, 66, 93
4, 41190, Note_on_c, 2, 79, 99
4, 41190, Note_on_c, 2, 71, 93
4, 41190, Note_on_c, 2, 74, 113
4, 41212, Note_on_c, 2, 74, 0
4, 41212, Note_on_c, 2, 79, 0
4, 41212, Note_on_c, 2, 67, 0
4, 41212, Note_on_c, 2, 66, 0
4, 41212, Note_on_c, 2, 71, 0
4, 41250, Note_on_c, 2, 67, 94
4, 41250, Note_on_c, 2, 64, 94
4, 41250, Note_on_c, 2, 69, 93
4, 41250, Note_on_c, 2, 71, 93
4, 41250, Note_on_c, 2, 73, 117
4, 41250, Note_on_c, 2, 76, 96
4, 41520, Note_on_c, 2, 69, 0
4, 41520, Note_on_c, 2, 67, 0
4, 41520, Note_on_c, 2, 64, 0
4, 41527, Note_on_c, 2, 71, 0
4, 41527, Note_on_c, 2, 73, 0
4, 41527, Note_on_c, 2, 76, 0
4, 42450, Note_on_c, 2, 71, 78
4, 42480, Note_on_c, 2, 67, 113
4, 42480, Note_on_c, 2, 66, 114
4, 42480, Note_on_c, 2, 78, 111
4, 42480, Note_on_c, 2, 74, 83
4, 42509, Note_on_c, 2, 71, 0
4, 42517, Note_on_c, 2, 78, 0
4, 42517, Note_on_c, 2, 67, 0
4, 42517, Note_on_c, 2, 66, 0
4, 42524, Note_on_c, 2, 74, 0
4, 42540, Note_on_c, 2, 66, 117
4, 42540, Note_on_c, 2, 67, 99
4, 42540, Note_on_c, 2, 78, 117
4, 42540, Note_on_c, 2, 71, 99
4, 42540, Note_on_c, 2, 74, 113
4, 42555, Note_on_c, 2, 74, 0
4, 42555, Note_on_c, 2, 78, 0
4, 42555, Note_on_c, 2, 66, 0
4, 42555, Note_on_c, 2, 67, 0
4, 42555, Note_on_c, 2, 71, 0
4, 42570, Note_on_c, 2, 66, 114
4, 42570, Note_on_c, 2, 67, 104
4, 42570, Note_on_c, 2, 71, 111
4, 42570, Note_on_c, 2, 74, 122
4, 42570, Note_on_c, 2, 78, 109
4, 42607, Note_on_c, 2, 78, 0
4, 42607, Note_on_c, 2, 66, 0
4, 42607, Note_on_c, 2, 71, 0
4, 42607, Note_on_c, 2, 67, 0
4, 42614, Note_on_c, 2, 74, 0
4, 42630, Note_on_c, 2, 66, 111
4, 42630, Note_on_c, 2, 67, 101
4, 42630, Note_on_c, 2, 71, 101
4, 42630, Note_on_c, 2, 79, 108
4, 42630, Note_on_c, 2, 74, 117
4, 42660, Note_on_c, 2, 74, 0
4, 42660, Note_on_c, 2, 71, 0
4, 42660, Note_on_c, 2, 66, 0
4, 42660, Note_on_c, 2, 67, 0
4, 42660, Note_on_c, 2, 79, 0
4, 42690, Note_on_c, 2, 64, 111
4, 42690, Note_on_c, 2, 67, 117
4, 42690, Note_on_c, 2, 69, 105
4, 42690, Note_on_c, 2, 76, 117
4, 42690, Note_on_c, 2, 71, 105
4, 42690, Note_on_c, 2, 73, 127
4, 42711, Note_on_c, 2, 64, 0
4, 42906, Note_on_c, 2, 67, 0
4, 43034, Note_on_c, 2, 69, 0
4, 43050, Note_on_c, 2, 76, 0
4, 43050, Note_on_c, 2, 71, 0
4, 43050, Note_on_c, 2, 73, 0
4, 43920, Note_on_c, 2, 66, 127
4, 43920, Note_on_c, 2, 67, 119
4, 43920, Note_on_c, 2, 78, 121
4, 43920, Note_on_c, 2, 74, 104
4, 43920, Note_on_c, 2, 71, 41
4, 43957, Note_on_c, 2, 74, 0
4, 43957, Note_on_c, 2, 78, 0
4, 43957, Note_on_c, 2, 66, 0
4, 43957, Note_on_c, 2, 67, 0
4, 43964, Note_on_c, 2, 71, 0
4, 43980, Note_on_c, 2, 66, 127
4, 43980, Note_on_c, 2, 67, 105
4, 43980, Note_on_c, 2, 71, 100
4, 43980, Note_on_c, 2, 78, 111
4, 43980, Note_on_c, 2, 74, 117
4, 43986, Note_on_c, 2, 71, 0
4, 43995, Note_on_c, 2, 78, 0
4, 43995, Note_on_c, 2, 66, 0
4, 43995, Note_on_c, 2, 67, 0
4, 43995, Note_on_c, 2, 74, 0
4, 44010, Note_on_c, 2, 67, 103
4, 44010, Note_on_c, 2, 66, 111
4, 44010, Note_on_c, 2, 71, 108
4, 44010, Note_on_c, 2, 74, 115
4, 44010, Note_on_c, 2, 78, 106
4, 44040, Note_on_c, 2, 78, 0
4, 44040, Note_on_c, 2, 67, 0
4, 44040, Note_on_c, 2, 71, 0
4, 44040, Note_on_c, 2, 66, 0
4, 44047, Note_on_c, 2, 74, 0
4, 44070, Note_on_c, 2, 67, 104
4, 44070, Note_on_c, 2, 71, 100
4, 44070, Note_on_c, 2, 79, 104
4, 44070, Note_on_c, 2, 74, 115
4, 44070, Note_on_c, 2, 66, 91
4, 44091, Note_on_c, 2, 67, 0
4, 44100, Note_on_c, 2, 74, 0
4, 44100, Note_on_c, 2, 66, 0
4, 44100, Note_on_c, 2, 79, 0
4, 44107, Note_on_c, 2, 71, 0
4, 44130, Note_on_c, 2, 67, 117
4, 44130, Note_on_c, 2, 69, 113
4, 44130, Note_on_c, 2, 73, 127
4, 44130, Note_on_c, 2, 71, 103
4, 44130, Note_on_c, 2, 76, 110
4, 44534, Note_on_c, 2, 69, 0
4, 44541, Note_on_c, 2, 67, 0
4, 44556, Note_on_c, 2, 73, 0
4, 44564, Note_on_c, 2, 71, 0
4, 44571, Note_on_c, 2, 76, 0
4, 45330, Note_on_c, 2, 66, 71
4, 45345, Note_on_c, 2, 66, 0
4, 45390, Note_on_c, 2, 45, 127
4, 45420, Note_on_c, 2, 44, 114
4, 45428, Note_on_c, 2, 45, 0
4, 45442, Note_on_c, 2, 44, 0
4, 45450, Note_on_c, 2, 43, 126
4, 45480, Note_on_c, 2, 43, 0
4, 45510, Note_on_c, 2, 42, 127
4, 45540, Note_on_c, 2, 41, 97
4, 45541, Note_on_c, 2, 42, 0
4, 45570, Note_on_c, 2, 41, 0
4, 45570, Note_on_c, 2, 40, 126
4, 45606, Note_on_c, 2, 40, 0
4, 45630, Note_on_c, 2, 39, 127
4, 45659, Note_on_c, 2, 39, 0
4, 45660, Note_on_c, 2, 40, 88
4, 45690, Note_on_c, 2, 40, 0
4, 45690, Note_on_c, 2, 37, 127
4, 45727, Note_on_c, 2, 37, 0
4, 45750, Note_on_c, 2, 36, 127
4, 45780, Note_on_c, 2, 36, 0
4, 45780, Note_on_c, 2, 35, 104
4, 45802, Note_on_c, 2, 35, 0
4, 45810, Note_on_c, 2, 34, 127
4, 45840, Note_on_c, 2, 34, 0
4, 45870, Note_on_c, 2, 31, 111
4, 45870, Note_on_c, 2, 33, 111
4, 45885, Note_on_c, 2, 31, 0
4, 45900, Note_on_c, 2, 33, 0
4, 45900, Note_on_c, 2, 32, 127
4, 45923, Note_on_c, 2, 32, 0
4, 45930, Note_on_c, 2, 31, 111
4, 45967, Note_on_c, 2, 31, 0
4, 45990, Note_on_c, 2, 30, 127
4, 46020, Note_on_c, 2, 30, 0
4, 46020, Note_on_c, 2, 29, 101
4, 46042, Note_on_c, 2, 29, 0
4, 46050, Note_on_c, 2, 28, 127
4, 47520, Note_on_c, 2, 28, 0
4, 47520, End_track
5, 0, Start_track
5, 0, Title_t, "www.devianjazz.com"
5, 0, Program_c, 3, 90
5, 0, Control_c, 3, 7, 100
5, 0, Control_c, 3, 10, 64
5, 16320, Control_c, 3, 121, 0
5, 16320, Control_c, 3, 91, 60
5, 16320, Note_on_c, 3, 52, 86
5, 16320, Note_on_c, 3, 55, 87
5, 16320, Note_on_c, 3, 57, 87
5, 16320, Note_on_c, 3, 62, 87
5, 16342, Note_on_c, 3, 62, 0
5, 16342, Note_on_c, 3, 57, 0
5, 16342, Note_on_c, 3, 55, 0
5, 16349, Note_on_c, 3, 52, 0
5, 16410, Note_on_c, 3, 55, 87
5, 16410, Note_on_c, 3, 62, 87
5, 16410, Note_on_c, 3, 57, 87
5, 16410, Note_on_c, 3, 52, 87
5, 16432, Note_on_c, 3, 52, 0
5, 16432, Note_on_c, 3, 55, 0
5, 16432, Note_on_c, 3, 62, 0
5, 16432, Note_on_c, 3, 57, 0
5, 16530, Note_on_c, 3, 52, 87
5, 16530, Note_on_c, 3, 57, 87
5, 16530, Note_on_c, 3, 62, 87
5, 16530, Note_on_c, 3, 55, 87
5, 16574, Note_on_c, 3, 55, 0
5, 16574, Note_on_c, 3, 52, 0
5, 16574, Note_on_c, 3, 57, 0
5, 16574, Note_on_c, 3, 62, 0
5, 16590, Note_on_c, 3, 57, 87
5, 16590, Note_on_c, 3, 62, 87
5, 16590, Note_on_c, 3, 55, 87
5, 16590, Note_on_c, 3, 52, 87
5, 16620, Note_on_c, 3, 52, 0
5, 16620, Note_on_c, 3, 57, 0
5, 16620, Note_on_c, 3, 62, 0
5, 16620, Note_on_c, 3, 55, 0
5, 16680, Note_on_c, 3, 52, 87
5, 16680, Note_on_c, 3, 55, 87
5, 16680, Note_on_c, 3, 57, 87
5, 16680, Note_on_c, 3, 61, 84
5, 16702, Note_on_c, 3, 57, 0
5, 16702, Note_on_c, 3, 52, 0
5, 16702, Note_on_c, 3, 55, 0
5, 16716, Note_on_c, 3, 61, 0
5, 16740, Note_on_c, 3, 55, 87
5, 16740, Note_on_c, 3, 57, 85
5, 16740, Note_on_c, 3, 52, 87
5, 16740, Note_on_c, 3, 61, 84
5, 16770, Note_on_c, 3, 52, 0
5, 16770, Note_on_c, 3, 55, 0
5, 16770, Note_on_c, 3, 57, 0
5, 16771, Note_on_c, 3, 61, 0
5, 16800, Note_on_c, 3, 52, 86
5, 16800, Note_on_c, 3, 55, 87
5, 16800, Note_on_c, 3, 57, 87
5, 16800, Note_on_c, 3, 62, 87
5, 16822, Note_on_c, 3, 62, 0
5, 16822, Note_on_c, 3, 57, 0
5, 16822, Note_on_c, 3, 55, 0
5, 16829, Note_on_c, 3, 52, 0
5, 16890, Note_on_c, 3, 55, 87
5, 16890, Note_on_c, 3, 62, 87
5, 16890, Note_on_c, 3, 57, 87
5, 16890, Note_on_c, 3, 52, 87
5, 16912, Note_on_c, 3, 52, 0
5, 16912, Note_on_c, 3, 55, 0
5, 16912, Note_on_c, 3, 62, 0
5, 16912, Note_on_c, 3, 57, 0
5, 17010, Note_on_c, 3, 52, 87
5, 17010, Note_on_c, 3, 57, 87
5, 17010, Note_on_c, 3, 62, 87
5, 17010, Note_on_c, 3, 55, 87
5, 17054, Note_on_c, 3, 55, 0
5, 17054, Note_on_c, 3, 52, 0
5, 17054, Note_on_c, 3, 57, 0
5, 17054, Note_on_c, 3, 62, 0
5, 17070, Note_on_c, 3, 57, 87
5, 17070, Note_on_c, 3, 62, 87
5, 17070, Note_on_c, 3, 55, 87
5, 17070, Note_on_c, 3, 52, 87
5, 17100, Note_on_c, 3, 52, 0
5, 17100, Note_on_c, 3, 57, 0
5, 17100, Note_on_c, 3, 62, 0
5, 17100, Note_on_c, 3, 55, 0
5, 17160, Note_on_c, 3, 52, 87
5, 17160, Note_on_c, 3, 55, 87
5, 17160, Note_on_c, 3, 57, 87
5, 17160, Note_on_c, 3, 61, 84
5, 17182, Note_on_c, 3, 57, 0
5, 17182, Note_on_c, 3, 52, 0
5, 17182, Note_on_c, 3, 55, 0
5, 17196, Note_on_c, 3, 61, 0
5, 17220, Note_on_c, 3, 55, 87
5, 17220, Note_on_c, 3, 57, 85
5, 17220, Note_on_c, 3, 52, 87
5, 17220, Note_on_c, 3, 61, 84
5, 17250, Note_on_c, 3, 52, 0
5, 17250, Note_on_c, 3, 55, 0
5, 17250, Note_on_c, 3, 57, 0
5, 17251, Note_on_c, 3, 61, 0
5, 17280, Note_on_c, 3, 52, 86
5, 17280, Note_on_c, 3, 55, 87
5, 17280, Note_on_c, 3, 57, 87
5, 17280, Note_on_c, 3, 62, 87
5, 17302, Note_on_c, 3, 62, 0
5, 17302, Note_on_c, 3, 57, 0
5, 17302, Note_on_c, 3, 55, 0
5, 17309, Note_on_c, 3, 52, 0
5, 17370, Note_on_c, 3, 55, 87
5, 17370, Note_on_c, 3, 62, 87
5, 17370, Note_on_c, 3, 57, 87
5, 17370, Note_on_c, 3, 52, 87
5, 17392, Note_on_c, 3, 52, 0
5, 17392, Note_on_c, 3, 55, 0
5, 17392, Note_on_c, 3, 62, 0
5, 17392, Note_on_c, 3, 57, 0
5, 17490, Note_on_c, 3, 52, 87
5, 17490, Note_on_c, 3, 57, 87
5, 17490, Note_on_c, 3, 62, 87
5, 17490, Note_on_c, 3, 55, 87
5, 17534, Note_on_c, 3, 55, 0
5, 17534, Note_on_c, 3, 52, 0
5, 17534, Note_on_c, 3, 57, 0
5, 17534, Note_on_c, 3, 62, 0
5, 17550, Note_on_c, 3, 57, 87
5, 17550, Note_on_c, 3, 62, 87
5, 17550, Note_on_c, 3, 55, 87
5, 17550, Note_on_c, 3, 52, 87
5, 17580, Note_on_c, 3, 52, 0
5, 17580, Note_on_c, 3, 57, 0
5, 17580, Note_on_c, 3, 62, 0
5, 17580, Note_on_c, 3, 55, 0
5, 17640, Note_on_c, 3, 52, 87
5, 17640, Note_on_c, 3, 55, 87
5, 17640, Note_on_c, 3, 57, 87
5, 17640, Note_on_c, 3, 61, 84
5, 17662, Note_on_c, 3, 57, 0
5, 17662, Note_on_c, 3, 52, 0
5, 17662, Note_on_c, 3, 55, 0
5, 17676, Note_on_c, 3, 61, 0
5, 17700, Note_on_c, 3, 55, 87
5, 17700, Note_on_c, 3, 57, 85
5, 17700, Note_on_c, 3, 52, 87
5, 17700, Note_on_c, 3, 61, 84
5, 17730, Note_on_c, 3, 52, 0
5, 17730, Note_on_c, 3, 55, 0
5, 17730, Note_on_c, 3, 57, 0
5, 17731, Note_on_c, 3, 61, 0
5, 17760, Note_on_c, 3, 52, 86
5, 17760, Note_on_c, 3, 55, 87
5, 17760, Note_on_c, 3, 57, 87
5, 17760, Note_on_c, 3, 62, 87
5, 17782, Note_on_c, 3, 62, 0
5, 17782, Note_on_c, 3, 57, 0
5, 17782, Note_on_c, 3, 55, 0
5, 17789, Note_on_c, 3, 52, 0
5, 17850, Note_on_c, 3, 55, 87
5, 17850, Note_on_c, 3, 62, 87
5, 17850, Note_on_c, 3, 57, 87
5, 17850, Note_on_c, 3, 52, 87
5, 17872, Note_on_c, 3, 52, 0
5, 17872, Note_on_c, 3, 55, 0
5, 17872, Note_on_c, 3, 62, 0
5, 17872, Note_on_c, 3, 57, 0
5, 17970, Note_on_c, 3, 52, 87
5, 17970, Note_on_c, 3, 57, 87
5, 17970, Note_on_c, 3, 62, 87
5, 17970, Note_on_c, 3, 55, 87
5, 18014, Note_on_c, 3, 55, 0
5, 18014, Note_on_c, 3, 52, 0
5, 18014, Note_on_c, 3, 57, 0
5, 18014, Note_on_c, 3, 62, 0
5, 18030, Note_on_c, 3, 57, 87
5, 18030, Note_on_c, 3, 62, 87
5, 18030, Note_on_c, 3, 55, 87
5, 18030, Note_on_c, 3, 52, 87
5, 18060, Note_on_c, 3, 52, 0
5, 18060, Note_on_c, 3, 57, 0
5, 18060, Note_on_c, 3, 62, 0
5, 18060, Note_on_c, 3, 55, 0
5, 18120, Note_on_c, 3, 52, 87
5, 18120, Note_on_c, 3, 55, 87
5, 18120, Note_on_c, 3, 57, 87
5, 18120, Note_on_c, 3, 61, 84
5, 18142, Note_on_c, 3, 57, 0
5, 18142, Note_on_c, 3, 52, 0
5, 18142, Note_on_c, 3, 55, 0
5, 18156, Note_on_c, 3, 61, 0
5, 18180, Note_on_c, 3, 55, 87
5, 18180, Note_on_c, 3, 57, 85
5, 18180, Note_on_c, 3, 52, 87
5, 18180, Note_on_c, 3, 61, 84
5, 18210, Note_on_c, 3, 52, 0
5, 18210, Note_on_c, 3, 55, 0
5, 18210, Note_on_c, 3, 57, 0
5, 18211, Note_on_c, 3, 61, 0
5, 18240, Note_on_c, 3, 52, 86
5, 18240, Note_on_c, 3, 55, 87
5, 18240, Note_on_c, 3, 57, 87
5, 18240, Note_on_c, 3, 62, 87
5, 18262, Note_on_c, 3, 62, 0
5, 18262, Note_on_c, 3, 57, 0
5, 18262, Note_on_c, 3, 55, 0
5, 18269, Note_on_c, 3, 52, 0
5, 18330, Note_on_c, 3, 55, 87
5, 18330, Note_on_c, 3, 62, 87
5, 18330, Note_on_c, 3, 57, 87
5, 18330, Note_on_c, 3, 52, 87
5, 18352, Note_on_c, 3, 52, 0
5, 18352, Note_on_c, 3, 55, 0
5, 18352, Note_on_c, 3, 62, 0
5, 18352, Note_on_c, 3, 57, 0
5, 18450, Note_on_c, 3, 52, 87
5, 18450, Note_on_c, 3, 57, 87
5, 18450, Note_on_c, 3, 62, 87
5, 18450, Note_on_c, 3, 55, 87
5, 18494, Note_on_c, 3, 55, 0
5, 18494, Note_on_c, 3, 52, 0
5, 18494, Note_on_c, 3, 57, 0
5, 18494, Note_on_c, 3, 62, 0
5, 18510, Note_on_c, 3, 57, 87
5, 18510, Note_on_c, 3, 62, 87
5, 18510, Note_on_c, 3, 55, 87
5, 18510, Note_on_c, 3, 52, 87
5, 18540, Note_on_c, 3, 52, 0
5, 18540, Note_on_c, 3, 57, 0
5, 18540, Note_on_c, 3, 62, 0
5, 18540, Note_on_c, 3, 55, 0
5, 18600, Note_on_c, 3, 52, 87
5, 18600, Note_on_c, 3, 55, 87
5, 18600, Note_on_c, 3, 57, 87
5, 18600, Note_on_c, 3, 61, 84
5, 18622, Note_on_c, 3, 57, 0
5, 18622, Note_on_c, 3, 52, 0
5, 18622, Note_on_c, 3, 55, 0
5, 18636, Note_on_c, 3, 61, 0
5, 18660, Note_on_c, 3, 55, 87
5, 18660, Note_on_c, 3, 57, 85
5, 18660, Note_on_c, 3, 52, 87
5, 18660, Note_on_c, 3, 61, 84
5, 18690, Note_on_c, 3, 52, 0
5, 18690, Note_on_c, 3, 55, 0
5, 18690, Note_on_c, 3, 57, 0
5, 18691, Note_on_c, 3, 61, 0
5, 18720, Note_on_c, 3, 52, 86
5, 18720, Note_on_c, 3, 55, 87
5, 18720, Note_on_c, 3, 57, 87
5, 18720, Note_on_c, 3, 62, 87
5, 18742, Note_on_c, 3, 62, 0
5, 18742, Note_on_c, 3, 57, 0
5, 18742, Note_on_c, 3, 55, 0
5, 18749, Note_on_c, 3, 52, 0
5, 18810, Note_on_c, 3, 55, 87
5, 18810, Note_on_c, 3, 62, 87
5, 18810, Note_on_c, 3, 57, 87
5, 18810, Note_on_c, 3, 52, 87
5, 18832, Note_on_c, 3, 52, 0
5, 18832, Note_on_c, 3, 55, 0
5, 18832, Note_on_c, 3, 62, 0
5, 18832, Note_on_c, 3, 57, 0
5, 18930, Note_on_c, 3, 52, 87
5, 18930, Note_on_c, 3, 57, 87
5, 18930, Note_on_c, 3, 62, 87
5, 18930, Note_on_c, 3, 55, 87
5, 18974, Note_on_c, 3, 55, 0
5, 18974, Note_on_c, 3, 52, 0
5, 18974, Note_on_c, 3, 57, 0
5, 18974, Note_on_c, 3, 62, 0
5, 18990, Note_on_c, 3, 57, 87
5, 18990, Note_on_c, 3, 62, 87
5, 18990, Note_on_c, 3, 55, 87
5, 18990, Note_on_c, 3, 52, 87
5, 19020, Note_on_c, 3, 52, 0
5, 19020, Note_on_c, 3, 57, 0
5, 19020, Note_on_c, 3, 62, 0
5, 19020, Note_on_c, 3, 55, 0
5, 19080, Note_on_c, 3, 52, 87
5, 19080, Note_on_c, 3, 55, 87
5, 19080, Note_on_c, 3, 57, 87
5, 19080, Note_on_c, 3, 61, 84
5, 19102, Note_on_c, 3, 57, 0
5, 19102, Note_on_c, 3, 52, 0
5, 19102, Note_on_c, 3, 55, 0
5, 19116, Note_on_c, 3, 61, 0
5, 19140, Note_on_c, 3, 55, 87
5, 19140, Note_on_c, 3, 57, 85
5, 19140, Note_on_c, 3, 52, 87
5, 19140, Note_on_c, 3, 61, 84
5, 19170, Note_on_c, 3, 52, 0
5, 19170, Note_on_c, 3, 55, 0
5, 19170, Note_on_c, 3, 57, 0
5, 19171, Note_on_c, 3, 61, 0
5, 19200, Note_on_c, 3, 52, 86
5, 19200, Note_on_c, 3, 55, 87
5, 19200, Note_on_c, 3, 57, 87
5, 19200, Note_on_c, 3, 62, 87
5, 19222, Note_on_c, 3, 62, 0
5, 19222, Note_on_c, 3, 57, 0
5, 19222, Note_on_c, 3, 55, 0
5, 19229, Note_on_c, 3, 52, 0
5, 19290, Note_on_c, 3, 55, 87
5, 19290, Note_on_c, 3, 62, 87
5, 19290, Note_on_c, 3, 57, 87
5, 19290, Note_on_c, 3, 52, 87
5, 19312, Note_on_c, 3, 52, 0
5, 19312, Note_on_c, 3, 55, 0
5, 19312, Note_on_c, 3, 62, 0
5, 19312, Note_on_c, 3, 57, 0
5, 19410, Note_on_c, 3, 52, 87
5, 19410, Note_on_c, 3, 57, 87
5, 19410, Note_on_c, 3, 62, 87
5, 19410, Note_on_c, 3, 55, 87
5, 19454, Note_on_c, 3, 55, 0
5, 19454, Note_on_c, 3, 52, 0
5, 19454, Note_on_c, 3, 57, 0
5, 19454, Note_on_c, 3, 62, 0
5, 19470, Note_on_c, 3, 57, 87
5, 19470, Note_on_c, 3, 62, 87
5, 19470, Note_on_c, 3, 55, 87
5, 19470, Note_on_c, 3, 52, 87
5, 19500, Note_on_c, 3, 52, 0
5, 19500, Note_on_c, 3, 57, 0
5, 19500, Note_on_c, 3, 62, 0
5, 19500, Note_on_c, 3, 55, 0
5, 19560, Note_on_c, 3, 52, 87
5, 19560, Note_on_c, 3, 55, 87
5, 19560, Note_on_c, 3, 57, 87
5, 19560, Note_on_c, 3, 61, 84
5, 19582, Note_on_c, 3, 57, 0
5, 19582, Note_on_c, 3, 52, 0
5, 19582, Note_on_c, 3, 55, 0
5, 19596, Note_on_c, 3, 61, 0
5, 19620, Note_on_c, 3, 55, 87
5, 19620, Note_on_c, 3, 57, 85
5, 19620, Note_on_c, 3, 52, 87
5, 19620, Note_on_c, 3, 61, 84
5, 19650, Note_on_c, 3, 52, 0
5, 19650, Note_on_c, 3, 55, 0
5, 19650, Note_on_c, 3, 57, 0
5, 19651, Note_on_c, 3, 61, 0
5, 19680, Note_on_c, 3, 52, 86
5, 19680, Note_on_c, 3, 55, 87
5, 19680, Note_on_c, 3, 57, 87
5, 19680, Note_on_c, 3, 62, 87
5, 19702, Note_on_c, 3, 62, 0
5, 19702, Note_on_c, 3, 57, 0
5, 19702, Note_on_c, 3, 55, 0
5, 19709, Note_on_c, 3, 52, 0
5, 19770, Note_on_c, 3, 55, 87
5, 19770, Note_on_c, 3, 62, 87
5, 19770, Note_on_c, 3, 57, 87
5, 19770, Note_on_c, 3, 52, 87
5, 19792, Note_on_c, 3, 52, 0
5, 19792, Note_on_c, 3, 55, 0
5, 19792, Note_on_c, 3, 62, 0
5, 19792, Note_on_c, 3, 57, 0
5, 19890, Note_on_c, 3, 52, 87
5, 19890, Note_on_c, 3, 57, 87
5, 19890, Note_on_c, 3, 62, 87
5, 19890, Note_on_c, 3, 55, 87
5, 19934, Note_on_c, 3, 55, 0
5, 19934, Note_on_c, 3, 52, 0
5, 19934, Note_on_c, 3, 57, 0
5, 19934, Note_on_c, 3, 62, 0
5, 19950, Note_on_c, 3, 57, 87
5, 19950, Note_on_c, 3, 62, 87
5, 19950, Note_on_c, 3, 55, 87
5, 19950, Note_on_c, 3, 52, 87
5, 19980, Note_on_c, 3, 52, 0
5, 19980, Note_on_c, 3, 57, 0
5, 19980, Note_on_c, 3, 62, 0
5, 19980, Note_on_c, 3, 55, 0
5, 20040, Note_on_c, 3, 52, 87
5, 20040, Note_on_c, 3, 55, 87
5, 20040, Note_on_c, 3, 57, 87
5, 20040, Note_on_c, 3, 61, 84
5, 20062, Note_on_c, 3, 57, 0
5, 20062, Note_on_c, 3, 52, 0
5, 20062, Note_on_c, 3, 55, 0
5, 20076, Note_on_c, 3, 61, 0
5, 20100, Note_on_c, 3, 55, 87
5, 20100, Note_on_c, 3, 57, 85
5, 20100, Note_on_c, 3, 52, 87
5, 20100, Note_on_c, 3, 61, 84
5, 20130, Note_on_c, 3, 52, 0
5, 20130, Note_on_c, 3, 55, 0
5, 20130, Note_on_c, 3, 57, 0
5, 20131, Note_on_c, 3, 61, 0
5, 20160, Note_on_c, 3, 52, 86
5, 20160, Note_on_c, 3, 55, 87
5, 20160, Note_on_c, 3, 57, 87
5, 20160, Note_on_c, 3, 62, 87
5, 20182, Note_on_c, 3, 62, 0
5, 20182, Note_on_c, 3, 57, 0
5, 20182, Note_on_c, 3, 55, 0
5, 20189, Note_on_c, 3, 52, 0
5, 20250, Note_on_c, 3, 55, 87
5, 20250, Note_on_c, 3, 62, 87
5, 20250, Note_on_c, 3, 57, 87
5, 20250, Note_on_c, 3, 52, 87
5, 20272, Note_on_c, 3, 52, 0
5, 20272, Note_on_c, 3, 55, 0
5, 20272, Note_on_c, 3, 62, 0
5, 20272, Note_on_c, 3, 57, 0
5, 20370, Note_on_c, 3, 52, 87
5, 20370, Note_on_c, 3, 57, 87
5, 20370, Note_on_c, 3, 62, 87
5, 20370, Note_on_c, 3, 55, 87
5, 20414, Note_on_c, 3, 55, 0
5, 20414, Note_on_c, 3, 52, 0
5, 20414, Note_on_c, 3, 57, 0
5, 20414, Note_on_c, 3, 62, 0
5, 20430, Note_on_c, 3, 57, 87
5, 20430, Note_on_c, 3, 62, 87
5, 20430, Note_on_c, 3, 55, 87
5, 20430, Note_on_c, 3, 52, 87
5, 20460, Note_on_c, 3, 52, 0
5, 20460, Note_on_c, 3, 57, 0
5, 20460, Note_on_c, 3, 62, 0
5, 20460, Note_on_c, 3, 55, 0
5, 20520, Note_on_c, 3, 52, 87
5, 20520, Note_on_c, 3, 55, 87
5, 20520, Note_on_c, 3, 57, 87
5, 20520, Note_on_c, 3, 61, 84
5, 20542, Note_on_c, 3, 57, 0
5, 20542, Note_on_c, 3, 52, 0
5, 20542, Note_on_c, 3, 55, 0
5, 20556, Note_on_c, 3, 61, 0
5, 20580, Note_on_c, 3, 55, 87
5, 20580, Note_on_c, 3, 57, 85
5, 20580, Note_on_c, 3, 52, 87
5, 20580, Note_on_c, 3, 61, 84
5, 20610, Note_on_c, 3, 52, 0
5, 20610, Note_on_c, 3, 55, 0
5, 20610, Note_on_c, 3, 57, 0
5, 20611, Note_on_c, 3, 61, 0
5, 20640, Note_on_c, 3, 52, 86
5, 20640, Note_on_c, 3, 55, 87
5, 20640, Note_on_c, 3, 57, 87
5, 20640, Note_on_c, 3, 62, 87
5, 20662, Note_on_c, 3, 62, 0
5, 20662, Note_on_c, 3, 57, 0
5, 20662, Note_on_c, 3, 55, 0
5, 20669, Note_on_c, 3, 52, 0
5, 20730, Note_on_c, 3, 55, 87
5, 20730, Note_on_c, 3, 62, 87
5, 20730, Note_on_c, 3, 57, 87
5, 20730, Note_on_c, 3, 52, 87
5, 20752, Note_on_c, 3, 52, 0
5, 20752, Note_on_c, 3, 55, 0
5, 20752, Note_on_c, 3, 62, 0
5, 20752, Note_on_c, 3, 57, 0
5, 20850, Note_on_c, 3, 52, 87
5, 20850, Note_on_c, 3, 57, 87
5, 20850, Note_on_c, 3, 62, 87
5, 20850, Note_on_c, 3, 55, 87
5, 20894, Note_on_c, 3, 55, 0
5, 20894, Note_on_c, 3, 52, 0
5, 20894, Note_on_c, 3, 57, 0
5, 20894, Note_on_c, 3, 62, 0
5, 20910, Note_on_c, 3, 57, 87
5, 20910, Note_on_c, 3, 62, 87
5, 20910, Note_on_c, 3, 55, 87
5, 20910, Note_on_c, 3, 52, 87
5, 20940, Note_on_c, 3, 52, 0
5, 20940, Note_on_c, 3, 57, 0
5, 20940, Note_on_c, 3, 62, 0
5, 20940, Note_on_c, 3, 55, 0
5, 21000, Note_on_c, 3, 52, 87
5, 21000, Note_on_c, 3, 55, 87
5, 21000, Note_on_c, 3, 57, 87
5, 21000, Note_on_c, 3, 61, 84
5, 21022, Note_on_c, 3, 57, 0
5, 21022, Note_on_c, 3, 52, 0
5, 21022, Note_on_c, 3, 55, 0
5, 21036, Note_on_c, 3, 61, 0
5, 21060, Note_on_c, 3, 55, 87
5, 21060, Note_on_c, 3, 57, 85
5, 21060, Note_on_c, 3, 52, 87
5, 21060, Note_on_c, 3, 61, 84
5, 21090, Note_on_c, 3, 52, 0
5, 21090, Note_on_c, 3, 55, 0
5, 21090, Note_on_c, 3, 57, 0
5, 21091, Note_on_c, 3, 61, 0
5, 21120, Note_on_c, 3, 52, 86
5, 21120, Note_on_c, 3, 55, 87
5, 21120, Note_on_c, 3, 57, 87
5, 21120, Note_on_c, 3, 62, 87
5, 21142, Note_on_c, 3, 62, 0
5, 21142, Note_on_c, 3, 57, 0
5, 21142, Note_on_c, 3, 55, 0
5, 21149, Note_on_c, 3, 52, 0
5, 21210, Note_on_c, 3, 55, 87
5, 21210, Note_on_c, 3, 62, 87
5, 21210, Note_on_c, 3, 57, 87
5, 21210, Note_on_c, 3, 52, 87
5, 21232, Note_on_c, 3, 52, 0
5, 21232, Note_on_c, 3, 55, 0
5, 21232, Note_on_c, 3, 62, 0
5, 21232, Note_on_c, 3, 57, 0
5, 21330, Note_on_c, 3, 52, 87
5, 21330, Note_on_c, 3, 57, 87
5, 21330, Note_on_c, 3, 62, 87
5, 21330, Note_on_c, 3, 55, 87
5, 21374, Note_on_c, 3, 55, 0
5, 21374, Note_on_c, 3, 52, 0
5, 21374, Note_on_c, 3, 57, 0
5, 21374, Note_on_c, 3, 62, 0
5, 21390, Note_on_c, 3, 57, 87
5, 21390, Note_on_c, 3, 62, 87
5, 21390, Note_on_c, 3, 55, 87
5, 21390, Note_on_c, 3, 52, 87
5, 21420, Note_on_c, 3, 52, 0
5, 21420, Note_on_c, 3, 57, 0
5, 21420, Note_on_c, 3, 62, 0
5, 21420, Note_on_c, 3, 55, 0
5, 21480, Note_on_c, 3, 52, 87
5, 21480, Note_on_c, 3, 55, 87
5, 21480, Note_on_c, 3, 57, 87
5, 21480, Note_on_c, 3, 61, 84
5, 21502, Note_on_c, 3, 57, 0
5, 21502, Note_on_c, 3, 52, 0
5, 21502, Note_on_c, 3, 55, 0
5, 21516, Note_on_c, 3, 61, 0
5, 21540, Note_on_c, 3, 55, 87
5, 21540, Note_on_c, 3, 57, 85
5, 21540, Note_on_c, 3, 52, 87
5, 21540, Note_on_c, 3, 61, 84
5, 21570, Note_on_c, 3, 52, 0
5, 21570, Note_on_c, 3, 55, 0
5, 21570, Note_on_c, 3, 57, 0
5, 21571, Note_on_c, 3, 61, 0
5, 21600, Note_on_c, 3, 52, 86
5, 21600, Note_on_c, 3, 55, 87
5, 21600, Note_on_c, 3, 57, 87
5, 21600, Note_on_c, 3, 62, 87
5, 21622, Note_on_c, 3, 62, 0
5, 21622, Note_on_c, 3, 57, 0
5, 21622, Note_on_c, 3, 55, 0
5, 21629, Note_on_c, 3, 52, 0
5, 21690, Note_on_c, 3, 55, 87
5, 21690, Note_on_c, 3, 62, 87
5, 21690, Note_on_c, 3, 57, 87
5, 21690, Note_on_c, 3, 52, 87
5, 21712, Note_on_c, 3, 52, 0
5, 21712, Note_on_c, 3, 55, 0
5, 21712, Note_on_c, 3, 62, 0
5, 21712, Note_on_c, 3, 57, 0
5, 21810, Note_on_c, 3, 52, 87
5, 21810, Note_on_c, 3, 57, 87
5, 21810, Note_on_c, 3, 62, 87
5, 21810, Note_on_c, 3, 55, 87
5, 21854, Note_on_c, 3, 55, 0
5, 21854, Note_on_c, 3, 52, 0
5, 21854, Note_on_c, 3, 57, 0
5, 21854, Note_on_c, 3, 62, 0
5, 21870, Note_on_c, 3, 57, 87
5, 21870, Note_on_c, 3, 62, 87
5, 21870, Note_on_c, 3, 55, 87
5, 21870, Note_on_c, 3, 52, 87
5, 21900, Note_on_c, 3, 52, 0
5, 21900, Note_on_c, 3, 57, 0
5, 21900, Note_on_c, 3, 62, 0
5, 21900, Note_on_c, 3, 55, 0
5, 21960, Note_on_c, 3, 52, 87
5, 21960, Note_on_c, 3, 55, 87
5, 21960, Note_on_c, 3, 57, 87
5, 21960, Note_on_c, 3, 61, 84
5, 21982, Note_on_c, 3, 57, 0
5, 21982, Note_on_c, 3, 52, 0
5, 21982, Note_on_c, 3, 55, 0
5, 21996, Note_on_c, 3, 61, 0
5, 22020, Note_on_c, 3, 55, 87
5, 22020, Note_on_c, 3, 57, 85
5, 22020, Note_on_c, 3, 52, 87
5, 22020, Note_on_c, 3, 61, 84
5, 22050, Note_on_c, 3, 52, 0
5, 22050, Note_on_c, 3, 55, 0
5, 22050, Note_on_c, 3, 57, 0
5, 22051, Note_on_c, 3, 61, 0
5, 22080, Note_on_c, 3, 52, 86
5, 22080, Note_on_c, 3, 55, 87
5, 22080, Note_on_c, 3, 57, 87
5, 22080, Note_on_c, 3, 62, 87
5, 22102, Note_on_c, 3, 62, 0
5, 22102, Note_on_c, 3, 57, 0
5, 22102, Note_on_c, 3, 55, 0
5, 22109, Note_on_c, 3, 52, 0
5, 22170, Note_on_c, 3, 55, 87
5, 22170, Note_on_c, 3, 62, 87
5, 22170, Note_on_c, 3, 57, 87
5, 22170, Note_on_c, 3, 52, 87
5, 22192, Note_on_c, 3, 52, 0
5, 22192, Note_on_c, 3, 55, 0
5, 22192, Note_on_c, 3, 62, 0
5, 22192, Note_on_c, 3, 57, 0
5, 22290, Note_on_c, 3, 52, 87
5, 22290, Note_on_c, 3, 57, 87
5, 22290, Note_on_c, 3, 62, 87
5, 22290, Note_on_c, 3, 55, 87
5, 22334, Note_on_c, 3, 55, 0
5, 22334, Note_on_c, 3, 52, 0
5, 22334, Note_on_c, 3, 57, 0
5, 22334, Note_on_c, 3, 62, 0
5, 22350, Note_on_c, 3, 57, 87
5, 22350, Note_on_c, 3, 62, 87
5, 22350, Note_on_c, 3, 55, 87
5, 22350, Note_on_c, 3, 52, 87
5, 22380, Note_on_c, 3, 52, 0
5, 22380, Note_on_c, 3, 57, 0
5, 22380, Note_on_c, 3, 62, 0
5, 22380, Note_on_c, 3, 55, 0
5, 22440, Note_on_c, 3, 52, 87
5, 22440, Note_on_c, 3, 55, 87
5, 22440, Note_on_c, 3, 57, 87
5, 22440, Note_on_c, 3, 61, 84
5, 22462, Note_on_c, 3, 57, 0
5, 22462, Note_on_c, 3, 52, 0
5, 22462, Note_on_c, 3, 55, 0
5, 22476, Note_on_c, 3, 61, 0
5, 22500, Note_on_c, 3, 55, 87
5, 22500, Note_on_c, 3, 57, 85
5, 22500, Note_on_c, 3, 52, 87
5, 22500, Note_on_c, 3, 61, 84
5, 22530, Note_on_c, 3, 52, 0
5, 22530, Note_on_c, 3, 55, 0
5, 22530, Note_on_c, 3, 57, 0
5, 22531, Note_on_c, 3, 61, 0
5, 22560, Note_on_c, 3, 52, 86
5, 22560, Note_on_c, 3, 55, 87
5, 22560, Note_on_c, 3, 57, 87
5, 22560, Note_on_c, 3, 62, 87
5, 22582, Note_on_c, 3, 62, 0
5, 22582, Note_on_c, 3, 57, 0
5, 22582, Note_on_c, 3, 55, 0
5, 22589, Note_on_c, 3, 52, 0
5, 22650, Note_on_c, 3, 55, 87
5, 22650, Note_on_c, 3, 62, 87
5, 22650, Note_on_c, 3, 57, 87
5, 22650, Note_on_c, 3, 52, 87
5, 22672, Note_on_c, 3, 52, 0
5, 22672, Note_on_c, 3, 55, 0
5, 22672, Note_on_c, 3, 62, 0
5, 22672, Note_on_c, 3, 57, 0
5, 22770, Note_on_c, 3, 52, 87
5, 22770, Note_on_c, 3, 57, 87
5, 22770, Note_on_c, 3, 62, 87
5, 22770, Note_on_c, 3, 55, 87
5, 22814, Note_on_c, 3, 55, 0
5, 22814, Note_on_c, 3, 52, 0
5, 22814, Note_on_c, 3, 57, 0
5, 22814, Note_on_c, 3, 62, 0
5, 22830, Note_on_c, 3, 57, 87
5, 22830, Note_on_c, 3, 62, 87
5, 22830, Note_on_c, 3, 55, 87
5, 22830, Note_on_c, 3, 52, 87
5, 22860, Note_on_c, 3, 52, 0
5, 22860, Note_on_c, 3, 57, 0
5, 22860, Note_on_c, 3, 62, 0
5, 22860, Note_on_c, 3, 55, 0
5, 22920, Note_on_c, 3, 52, 87
5, 22920, Note_on_c, 3, 55, 87
5, 22920, Note_on_c, 3, 57, 87
5, 22920, Note_on_c, 3, 61, 84
5, 22942, Note_on_c, 3, 57, 0
5, 22942, Note_on_c, 3, 52, 0
5, 22942, Note_on_c, 3, 55, 0
5, 22956, Note_on_c, 3, 61, 0
5, 22980, Note_on_c, 3, 55, 87
5, 22980, Note_on_c, 3, 57, 85
5, 22980, Note_on_c, 3, 52, 87
5, 22980, Note_on_c, 3, 61, 84
5, 23010, Note_on_c, 3, 52, 0
5, 23010, Note_on_c, 3, 55, 0
5, 23010, Note_on_c, 3, 57, 0
5, 23011, Note_on_c, 3, 61, 0
5, 23040, Note_on_c, 3, 52, 86
5, 23040, Note_on_c, 3, 55, 87
5, 23040, Note_on_c, 3, 57, 87
5, 23040, Note_on_c, 3, 62, 87
5, 23062, Note_on_c, 3, 62, 0
5, 23062, Note_on_c, 3, 57, 0
5, 23062, Note_on_c, 3, 55, 0
5, 23069, Note_on_c, 3, 52, 0
5, 23130, Note_on_c, 3, 55, 87
5, 23130, Note_on_c, 3, 62, 87
5, 23130, Note_on_c, 3, 57, 87
5, 23130, Note_on_c, 3, 52, 87
5, 23152, Note_on_c, 3, 52, 0
5, 23152, Note_on_c, 3, 55, 0
5, 23152, Note_on_c, 3, 62, 0
5, 23152, Note_on_c, 3, 57, 0
5, 23250, Note_on_c, 3, 52, 87
5, 23250, Note_on_c, 3, 57, 87
5, 23250, Note_on_c, 3, 62, 87
5, 23250, Note_on_c, 3, 55, 87
5, 23294, Note_on_c, 3, 55, 0
5, 23294, Note_on_c, 3, 52, 0
5, 23294, Note_on_c, 3, 57, 0
5, 23294, Note_on_c, 3, 62, 0
5, 23310, Note_on_c, 3, 57, 87
5, 23310, Note_on_c, 3, 62, 87
5, 23310, Note_on_c, 3, 55, 87
5, 23310, Note_on_c, 3, 52, 87
5, 23340, Note_on_c, 3, 52, 0
5, 23340, Note_on_c, 3, 57, 0
5, 23340, Note_on_c, 3, 62, 0
5, 23340, Note_on_c, 3, 55, 0
5, 23400, Note_on_c, 3, 52, 87
5, 23400, Note_on_c, 3, 55, 87
5, 23400, Note_on_c, 3, 57, 87
5, 23400, Note_on_c, 3, 61, 84
5, 23422, Note_on_c, 3, 57, 0
5, 23422, Note_on_c, 3, 52, 0
5, 23422, Note_on_c, 3, 55, 0
5, 23436, Note_on_c, 3, 61, 0
5, 23460, Note_on_c, 3, 55, 87
5, 23460, Note_on_c, 3, 57, 85
5, 23460, Note_on_c, 3, 52, 87
5, 23460, Note_on_c, 3, 61, 84
5, 23490, Note_on_c, 3, 52, 0
5, 23490, Note_on_c, 3, 55, 0
5, 23490, Note_on_c, 3, 57, 0
5, 23491, Note_on_c, 3, 61, 0
5, 23520, Note_on_c, 3, 52, 86
5, 23520, Note_on_c, 3, 55, 87
5, 23520, Note_on_c, 3, 57, 87
5, 23520, Note_on_c, 3, 62, 87
5, 23542, Note_on_c, 3, 62, 0
5, 23542, Note_on_c, 3, 57, 0
5, 23542, Note_on_c, 3, 55, 0
5, 23549, Note_on_c, 3, 52, 0
5, 23610, Note_on_c, 3, 55, 87
5, 23610, Note_on_c, 3, 62, 87
5, 23610, Note_on_c, 3, 57, 87
5, 23610, Note_on_c, 3, 52, 87
5, 23632, Note_on_c, 3, 52, 0
5, 23632, Note_on_c, 3, 55, 0
5, 23632, Note_on_c, 3, 62, 0
5, 23632, Note_on_c, 3, 57, 0
5, 23730, Note_on_c, 3, 52, 87
5, 23730, Note_on_c, 3, 57, 87
5, 23730, Note_on_c, 3, 62, 87
5, 23730, Note_on_c, 3, 55, 87
5, 23774, Note_on_c, 3, 55, 0
5, 23774, Note_on_c, 3, 52, 0
5, 23774, Note_on_c, 3, 57, 0
5, 23774, Note_on_c, 3, 62, 0
5, 23790, Note_on_c, 3, 57, 87
5, 23790, Note_on_c, 3, 62, 87
5, 23790, Note_on_c, 3, 55, 87
5, 23790, Note_on_c, 3, 52, 87
5, 23820, Note_on_c, 3, 52, 0
5, 23820, Note_on_c, 3, 57, 0
5, 23820, Note_on_c, 3, 62, 0
5, 23820, Note_on_c, 3, 55, 0
5, 23880, Note_on_c, 3, 52, 87
5, 23880, Note_on_c, 3, 55, 87
5, 23880, Note_on_c, 3, 57, 87
5, 23880, Note_on_c, 3, 61, 84
5, 23902, Note_on_c, 3, 57, 0
5, 23902, Note_on_c, 3, 52, 0
5, 23902, Note_on_c, 3, 55, 0
5, 23916, Note_on_c, 3, 61, 0
5, 23940, Note_on_c, 3, 55, 87
5, 23940, Note_on_c, 3, 57, 85
5, 23940, Note_on_c, 3, 52, 87
5, 23940, Note_on_c, 3, 61, 84
5, 23970, Note_on_c, 3, 52, 0
5, 23970, Note_on_c, 3, 55, 0
5, 23970, Note_on_c, 3, 57, 0
5, 23971, Note_on_c, 3, 61, 0
5, 40560, Control_c, 3, 121, 0
5, 40560, Control_c, 3, 7, 100
5, 40560, Control_c, 3, 10, 64
5, 40560, Control_c, 3, 91, 60
5, 40560, Program_c, 3, 1
5, 40560, Note_on_c, 3, 52, 86
5, 40560, Note_on_c, 3, 55, 87
5, 40560, Note_on_c, 3, 57, 87
5, 40560, Note_on_c, 3, 62, 87
5, 40582, Note_on_c, 3, 62, 0
5, 40582, Note_on_c, 3, 57, 0
5, 40582, Note_on_c, 3, 55, 0
5, 40589, Note_on_c, 3, 52, 0
5, 40650, Note_on_c, 3, 55, 87
5, 40650, Note_on_c, 3, 62, 87
5, 40650, Note_on_c, 3, 57, 87
5, 40650, Note_on_c, 3, 52, 87
5, 40672, Note_on_c, 3, 52, 0
5, 40672, Note_on_c, 3, 55, 0
5, 40672, Note_on_c, 3, 62, 0
5, 40672, Note_on_c, 3, 57, 0
5, 40770, Note_on_c, 3, 52, 87
5, 40770, Note_on_c, 3, 57, 87
5, 40770, Note_on_c, 3, 62, 87
5, 40770, Note_on_c, 3, 55, 87
5, 40814, Note_on_c, 3, 55, 0
5, 40814, Note_on_c, 3, 52, 0
5, 40814, Note_on_c, 3, 57, 0
5, 40814, Note_on_c, 3, 62, 0
5, 40830, Note_on_c, 3, 57, 87
5, 40830, Note_on_c, 3, 62, 87
5, 40830, Note_on_c, 3, 55, 87
5, 40830, Note_on_c, 3, 52, 87
5, 40860, Note_on_c, 3, 52, 0
5, 40860, Note_on_c, 3, 57, 0
5, 40860, Note_on_c, 3, 62, 0
5, 40860, Note_on_c, 3, 55, 0
5, 40920, Note_on_c, 3, 52, 87
5, 40920, Note_on_c, 3, 55, 87
5, 40920, Note_on_c, 3, 57, 87
5, 40920, Note_on_c, 3, 61, 84
5, 40942, Note_on_c, 3, 57, 0
5, 40942, Note_on_c, 3, 52, 0
5, 40942, Note_on_c, 3, 55, 0
5, 40956, Note_on_c, 3, 61, 0
5, 40980, Note_on_c, 3, 55, 87
5, 40980, Note_on_c, 3, 57, 85
5, 40980, Note_on_c, 3, 52, 87
5, 40980, Note_on_c, 3, 61, 84
5, 41010, Note_on_c, 3, 52, 0
5, 41010, Note_on_c, 3, 55, 0
5, 41010, Note_on_c, 3, 57, 0
5, 41011, Note_on_c, 3, 61, 0
5, 41040, Note_on_c, 3, 52, 86
5, 41040, Note_on_c, 3, 55, 87
5, 41040, Note_on_c, 3, 57, 87
5, 41040, Note_on_c, 3, 62, 87
5, 41062, Note_on_c, 3, 62, 0
5, 41062, Note_on_c, 3, 57, 0
5, 41062, Note_on_c, 3, 55, 0
5, 41069, Note_on_c, 3, 52, 0
5, 41130, Note_on_c, 3, 55, 87
5, 41130, Note_on_c, 3, 62, 87
5, 41130, Note_on_c, 3, 57, 87
5, 41130, Note_on_c, 3, 52, 87
5, 41152, Note_on_c, 3, 52, 0
5, 41152, Note_on_c, 3, 55, 0
5, 41152, Note_on_c, 3, 62, 0
5, 41152, Note_on_c, 3, 57, 0
5, 41250, Note_on_c, 3, 52, 87
5, 41250, Note_on_c, 3, 57, 87
5, 41250, Note_on_c, 3, 62, 87
5, 41250, Note_on_c, 3, 55, 87
5, 41294, Note_on_c, 3, 55, 0
5, 41294, Note_on_c, 3, 52, 0
5, 41294, Note_on_c, 3, 57, 0
5, 41294, Note_on_c, 3, 62, 0
5, 41310, Note_on_c, 3, 57, 87
5, 41310, Note_on_c, 3, 62, 87
5, 41310, Note_on_c, 3, 55, 87
5, 41310, Note_on_c, 3, 52, 87
5, 41340, Note_on_c, 3, 52, 0
5, 41340, Note_on_c, 3, 57, 0
5, 41340, Note_on_c, 3, 62, 0
5, 41340, Note_on_c, 3, 55, 0
5, 41400, Note_on_c, 3, 52, 87
5, 41400, Note_on_c, 3, 55, 87
5, 41400, Note_on_c, 3, 57, 87
5, 41400, Note_on_c, 3, 61, 84
5, 41422, Note_on_c, 3, 57, 0
5, 41422, Note_on_c, 3, 52, 0
5, 41422, Note_on_c, 3, 55, 0
5, 41436, Note_on_c, 3, 61, 0
5, 41460, Note_on_c, 3, 55, 87
5, 41460, Note_on_c, 3, 57, 85
5, 41460, Note_on_c, 3, 52, 87
5, 41460, Note_on_c, 3, 61, 84
5, 41490, Note_on_c, 3, 52, 0
5, 41490, Note_on_c, 3, 55, 0
5, 41490, Note_on_c, 3, 57, 0
5, 41491, Note_on_c, 3, 61, 0
5, 41520, Note_on_c, 3, 52, 86
5, 41520, Note_on_c, 3, 55, 87
5, 41520, Note_on_c, 3, 57, 87
5, 41520, Note_on_c, 3, 62, 87
5, 41542, Note_on_c, 3, 62, 0
5, 41542, Note_on_c, 3, 57, 0
5, 41542, Note_on_c, 3, 55, 0
5, 41549, Note_on_c, 3, 52, 0
5, 41610, Note_on_c, 3, 55, 87
5, 41610, Note_on_c, 3, 62, 87
5, 41610, Note_on_c, 3, 57, 87
5, 41610, Note_on_c, 3, 52, 87
5, 41632, Note_on_c, 3, 52, 0
5, 41632, Note_on_c, 3, 55, 0
5, 41632, Note_on_c, 3, 62, 0
5, 41632, Note_on_c, 3, 57, 0
5, 41730, Note_on_c, 3, 52, 87
5, 41730, Note_on_c, 3, 57, 87
5, 41730, Note_on_c, 3, 62, 87
5, 41730, Note_on_c, 3, 55, 87
5, 41774, Note_on_c, 3, 55, 0
5, 41774, Note_on_c, 3, 52, 0
5, 41774, Note_on_c, 3, 57, 0
5, 41774, Note_on_c, 3, 62, 0
5, 41790, Note_on_c, 3, 57, 87
5, 41790, Note_on_c, 3, 62, 87
5, 41790, Note_on_c, 3, 55, 87
5, 41790, Note_on_c, 3, 52, 87
5, 41820, Note_on_c, 3, 52, 0
5, 41820, Note_on_c, 3, 57, 0
5, 41820, Note_on_c, 3, 62, 0
5, 41820, Note_on_c, 3, 55, 0
5, 41880, Note_on_c, 3, 52, 87
5, 41880, Note_on_c, 3, 55, 87
5, 41880, Note_on_c, 3, 57, 87
5, 41880, Note_on_c, 3, 61, 84
5, 41902, Note_on_c, 3, 57, 0
5, 41902, Note_on_c, 3, 52, 0
5, 41902, Note_on_c, 3, 55, 0
5, 41916, Note_on_c, 3, 61, 0
5, 41940, Note_on_c, 3, 55, 87
5, 41940, Note_on_c, 3, 57, 85
5, 41940, Note_on_c, 3, 52, 87
5, 41940, Note_on_c, 3, 61, 84
5, 41970, Note_on_c, 3, 52, 0
5, 41970, Note_on_c, 3, 55, 0
5, 41970, Note_on_c, 3, 57, 0
5, 41971, Note_on_c, 3, 61, 0
5, 42000, Note_on_c, 3, 52, 86
5, 42000, Note_on_c, 3, 55, 87
5, 42000, Note_on_c, 3, 57, 87
5, 42000, Note_on_c, 3, 62, 87
5, 42022, Note_on_c, 3, 62, 0
5, 42022, Note_on_c, 3, 57, 0
5, 42022, Note_on_c, 3, 55, 0
5, 42029, Note_on_c, 3, 52, 0
5, 42090, Note_on_c, 3, 55, 87
5, 42090, Note_on_c, 3, 62, 87
5, 42090, Note_on_c, 3, 57, 87
5, 42090, Note_on_c, 3, 52, 87
5, 42112, Note_on_c, 3, 52, 0
5, 42112, Note_on_c, 3, 55, 0
5, 42112, Note_on_c, 3, 62, 0
5, 42112, Note_on_c, 3, 57, 0
5, 42210, Note_on_c, 3, 52, 87
5, 42210, Note_on_c, 3, 57, 87
5, 42210, Note_on_c, 3, 62, 87
5, 42210, Note_on_c, 3, 55, 87
5, 42254, Note_on_c, 3, 55, 0
5, 42254, Note_on_c, 3, 52, 0
5, 42254, Note_on_c, 3, 57, 0
5, 42254, Note_on_c, 3, 62, 0
5, 42270, Note_on_c, 3, 57, 87
5, 42270, Note_on_c, 3, 62, 87
5, 42270, Note_on_c, 3, 55, 87
5, 42270, Note_on_c, 3, 52, 87
5, 42300, Note_on_c, 3, 52, 0
5, 42300, Note_on_c, 3, 57, 0
5, 42300, Note_on_c, 3, 62, 0
5, 42300, Note_on_c, 3, 55, 0
5, 42360, Note_on_c, 3, 52, 87
5, 42360, Note_on_c, 3, 55, 87
5, 42360, Note_on_c, 3, 57, 87
5, 42360, Note_on_c, 3, 61, 84
5, 42382, Note_on_c, 3, 57, 0
5, 42382, Note_on_c, 3, 52, 0
5, 42382, Note_on_c, 3, 55, 0
5, 42396, Note_on_c, 3, 61, 0
5, 42420, Note_on_c, 3, 55, 87
5, 42420, Note_on_c, 3, 57, 85
5, 42420, Note_on_c, 3, 52, 87
5, 42420, Note_on_c, 3, 61, 84
5, 42450, Note_on_c, 3, 52, 0
5, 42450, Note_on_c, 3, 55, 0
5, 42450, Note_on_c, 3, 57, 0
5, 42451, Note_on_c, 3, 61, 0
5, 42480, Note_on_c, 3, 52, 86
5, 42480, Note_on_c, 3, 55, 87
5, 42480, Note_on_c, 3, 57, 87
5, 42480, Note_on_c, 3, 62, 87
5, 42502, Note_on_c, 3, 62, 0
5, 42502, Note_on_c, 3, 57, 0
5, 42502, Note_on_c, 3, 55, 0
5, 42509, Note_on_c, 3, 52, 0
5, 42570, Note_on_c, 3, 55, 87
5, 42570, Note_on_c, 3, 62, 87
5, 42570, Note_on_c, 3, 57, 87
5, 42570, Note_on_c, 3, 52, 87
5, 42592, Note_on_c, 3, 52, 0
5, 42592, Note_on_c, 3, 55, 0
5, 42592, Note_on_c, 3, 62, 0
5, 42592, Note_on_c, 3, 57, 0
5, 42690, Note_on_c, 3, 52, 87
5, 42690, Note_on_c, 3, 57, 87
5, 42690, Note_on_c, 3, 62, 87
5, 42690, Note_on_c, 3, 55, 87
5, 42734, Note_on_c, 3, 55, 0
5, 42734, Note_on_c, 3, 52, 0
5, 42734, Note_on_c, 3, 57, 0
5, 42734, Note_on_c, 3, 62, 0
5, 42750, Note_on_c, 3, 57, 87
5, 42750, Note_on_c, 3, 62, 87
5, 42750, Note_on_c, 3, 55, 87
5, 42750, Note_on_c, 3, 52, 87
5, 42780, Note_on_c, 3, 52, 0
5, 42780, Note_on_c, 3, 57, 0
5, 42780, Note_on_c, 3, 62, 0
5, 42780, Note_on_c, 3, 55, 0
5, 42840, Note_on_c, 3, 52, 87
5, 42840, Note_on_c, 3, 55, 87
5, 42840, Note_on_c, 3, 57, 87
5, 42840, Note_on_c, 3, 61, 84
5, 42862, Note_on_c, 3, 57, 0
5, 42862, Note_on_c, 3, 52, 0
5, 42862, Note_on_c, 3, 55, 0
5, 42876, Note_on_c, 3, 61, 0
5, 42900, Note_on_c, 3, 55, 87
5, 42900, Note_on_c, 3, 57, 85
5, 42900, Note_on_c, 3, 52, 87
5, 42900, Note_on_c, 3, 61, 84
5, 42930, Note_on_c, 3, 52, 0
5, 42930, Note_on_c, 3, 55, 0
5, 42930, Note_on_c, 3, 57, 0
5, 42931, Note_on_c, 3, 61, 0
5, 42960, Note_on_c, 3, 52, 86
5, 42960, Note_on_c, 3, 55, 87
5, 42960, Note_on_c, 3, 57, 87
5, 42960, Note_on_c, 3, 62, 87
5, 42982, Note_on_c, 3, 62, 0
5, 42982, Note_on_c, 3, 57, 0
5, 42982, Note_on_c, 3, 55, 0
5, 42989, Note_on_c, 3, 52, 0
5, 43050, Note_on_c, 3, 55, 87
5, 43050, Note_on_c, 3, 62, 87
5, 43050, Note_on_c, 3, 57, 87
5, 43050, Note_on_c, 3, 52, 87
5, 43072, Note_on_c, 3, 52, 0
5, 43072, Note_on_c, 3, 55, 0
5, 43072, Note_on_c, 3, 62, 0
5, 43072, Note_on_c, 3, 57, 0
5, 43170, Note_on_c, 3, 52, 87
5, 43170, Note_on_c, 3, 57, 87
5, 43170, Note_on_c, 3, 62, 87
5, 43170, Note_on_c, 3, 55, 87
5, 43214, Note_on_c, 3, 55, 0
5, 43214, Note_on_c, 3, 52, 0
5, 43214, Note_on_c, 3, 57, 0
5, 43214, Note_on_c, 3, 62, 0
5, 43230, Note_on_c, 3, 57, 87
5, 43230, Note_on_c, 3, 62, 87
5, 43230, Note_on_c, 3, 55, 87
5, 43230, Note_on_c, 3, 52, 87
5, 43260, Note_on_c, 3, 52, 0
5, 43260, Note_on_c, 3, 57, 0
5, 43260, Note_on_c, 3, 62, 0
5, 43260, Note_on_c, 3, 55, 0
5, 43320, Note_on_c, 3, 52, 87
5, 43320, Note_on_c, 3, 55, 87
5, 43320, Note_on_c, 3, 57, 87
5, 43320, Note_on_c, 3, 61, 84
5, 43342, Note_on_c, 3, 57, 0
5, 43342, Note_on_c, 3, 52, 0
5, 43342, Note_on_c, 3, 55, 0
5, 43356, Note_on_c, 3, 61, 0
5, 43380, Note_on_c, 3, 55, 87
5, 43380, Note_on_c, 3, 57, 85
5, 43380, Note_on_c, 3, 52, 87
5, 43380, Note_on_c, 3, 61, 84
5, 43410, Note_on_c, 3, 52, 0
5, 43410, Note_on_c, 3, 55, 0
5, 43410, Note_on_c, 3, 57, 0
5, 43411, Note_on_c, 3, 61, 0
5, 43440, Note_on_c, 3, 52, 86
5, 43440, Note_on_c, 3, 55, 87
5, 43440, Note_on_c, 3, 57, 87
5, 43440, Note_on_c, 3, 62, 87
5, 43462, Note_on_c, 3, 62, 0
5, 43462, Note_on_c, 3, 57, 0
5, 43462, Note_on_c, 3, 55, 0
5, 43469, Note_on_c, 3, 52, 0
5, 43530, Note_on_c, 3, 55, 87
5, 43530, Note_on_c, 3, 62, 87
5, 43530, Note_on_c, 3, 57, 87
5, 43530, Note_on_c, 3, 52, 87
5, 43552, Note_on_c, 3, 52, 0
5, 43552, Note_on_c, 3, 55, 0
5, 43552, Note_on_c, 3, 62, 0
5, 43552, Note_on_c, 3, 57, 0
5, 43650, Note_on_c, 3, 52, 87
5, 43650, Note_on_c, 3, 57, 87
5, 43650, Note_on_c, 3, 62, 87
5, 43650, Note_on_c, 3, 55, 87
5, 43694, Note_on_c, 3, 55, 0
5, 43694, Note_on_c, 3, 52, 0
5, 43694, Note_on_c, 3, 57, 0
5, 43694, Note_on_c, 3, 62, 0
5, 43710, Note_on_c, 3, 57, 87
5, 43710, Note_on_c, 3, 62, 87
5, 43710, Note_on_c, 3, 55, 87
5, 43710, Note_on_c, 3, 52, 87
5, 43740, Note_on_c, 3, 52, 0
5, 43740, Note_on_c, 3, 57, 0
5, 43740, Note_on_c, 3, 62, 0
5, 43740, Note_on_c, 3, 55, 0
5, 43800, Note_on_c, 3, 52, 87
5, 43800, Note_on_c, 3, 55, 87
5, 43800, Note_on_c, 3, 57, 87
5, 43800, Note_on_c, 3, 61, 84
5, 43822, Note_on_c, 3, 57, 0
5, 43822, Note_on_c, 3, 52, 0
5, 43822, Note_on_c, 3, 55, 0
5, 43836, Note_on_c, 3, 61, 0
5, 43860, Note_on_c, 3, 55, 87
5, 43860, Note_on_c, 3, 57, 85
5, 43860, Note_on_c, 3, 52, 87
5, 43860, Note_on_c, 3, 61, 84
5, 43890, Note_on_c, 3, 52, 0
5, 43890, Note_on_c, 3, 55, 0
5, 43890, Note_on_c, 3, 57, 0
5, 43891, Note_on_c, 3, 61, 0
5, 43920, Note_on_c, 3, 52, 86
5, 43920, Note_on_c, 3, 55, 87
5, 43920, Note_on_c, 3, 57, 87
5, 43920, Note_on_c, 3, 62, 87
5, 43942, Note_on_c, 3, 62, 0
5, 43942, Note_on_c, 3, 57, 0
5, 43942, Note_on_c, 3, 55, 0
5, 43949, Note_on_c, 3, 52, 0
5, 44010, Note_on_c, 3, 55, 87
5, 44010, Note_on_c, 3, 62, 87
5, 44010, Note_on_c, 3, 57, 87
5, 44010, Note_on_c, 3, 52, 87
5, 44032, Note_on_c, 3, 52, 0
5, 44032, Note_on_c, 3, 55, 0
5, 44032, Note_on_c, 3, 62, 0
5, 44032, Note_on_c, 3, 57, 0
5, 44130, Note_on_c, 3, 52, 87
5, 44130, Note_on_c, 3, 57, 87
5, 44130, Note_on_c, 3, 62, 87
5, 44130, Note_on_c, 3, 55, 87
5, 44174, Note_on_c, 3, 55, 0
5, 44174, Note_on_c, 3, 52, 0
5, 44174, Note_on_c, 3, 57, 0
5, 44174, Note_on_c, 3, 62, 0
5, 44190, Note_on_c, 3, 57, 87
5, 44190, Note_on_c, 3, 62, 87
5, 44190, Note_on_c, 3, 55, 87
5, 44190, Note_on_c, 3, 52, 87
5, 44220, Note_on_c, 3, 52, 0
5, 44220, Note_on_c, 3, 57, 0
5, 44220, Note_on_c, 3, 62, 0
5, 44220, Note_on_c, 3, 55, 0
5, 44280, Note_on_c, 3, 52, 87
5, 44280, Note_on_c, 3, 55, 87
5, 44280, Note_on_c, 3, 57, 87
5, 44280, Note_on_c, 3, 61, 84
5, 44302, Note_on_c, 3, 57, 0
5, 44302, Note_on_c, 3, 52, 0
5, 44302, Note_on_c, 3, 55, 0
5, 44316, Note_on_c, 3, 61, 0
5, 44340, Note_on_c, 3, 55, 87
5, 44340, Note_on_c, 3, 57, 85
5, 44340, Note_on_c, 3, 52, 87
5, 44340, Note_on_c, 3, 61, 84
5, 44370, Note_on_c, 3, 52, 0
5, 44370, Note_on_c, 3, 55, 0
5, 44370, Note_on_c, 3, 57, 0
5, 44371, Note_on_c, 3, 61, 0
5, 44400, Note_on_c, 3, 52, 86
5, 44400, Note_on_c, 3, 55, 87
5, 44400, Note_on_c, 3, 57, 87
5, 44400, Note_on_c, 3, 62, 87
5, 44422, Note_on_c, 3, 62, 0
5, 44422, Note_on_c, 3, 57, 0
5, 44422, Note_on_c, 3, 55, 0
5, 44429, Note_on_c, 3, 52, 0
5, 44490, Note_on_c, 3, 55, 87
5, 44490, Note_on_c, 3, 62, 87
5, 44490, Note_on_c, 3, 57, 87
5, 44490, Note_on_c, 3, 52, 87
5, 44512, Note_on_c, 3, 52, 0
5, 44512, Note_on_c, 3, 55, 0
5, 44512, Note_on_c, 3, 62, 0
5, 44512, Note_on_c, 3, 57, 0
5, 44610, Note_on_c, 3, 52, 87
5, 44610, Note_on_c, 3, 57, 87
5, 44610, Note_on_c, 3, 62, 87
5, 44610, Note_on_c, 3, 55, 87
5, 44654, Note_on_c, 3, 55, 0
5, 44654, Note_on_c, 3, 52, 0
5, 44654, Note_on_c, 3, 57, 0
5, 44654, Note_on_c, 3, 62, 0
5, 44670, Note_on_c, 3, 57, 87
5, 44670, Note_on_c, 3, 62, 87
5, 44670, Note_on_c, 3, 55, 87
5, 44670, Note_on_c, 3, 52, 87
5, 44700, Note_on_c, 3, 52, 0
5, 44700, Note_on_c, 3, 57, 0
5, 44700, Note_on_c, 3, 62, 0
5, 44700, Note_on_c, 3, 55, 0
5, 44760, Note_on_c, 3, 52, 87
5, 44760, Note_on_c, 3, 55, 87
5, 44760, Note_on_c, 3, 57, 87
5, 44760, Note_on_c, 3, 61, 84
5, 44782, Note_on_c, 3, 57, 0
5, 44782, Note_on_c, 3, 52, 0
5, 44782, Note_on_c, 3, 55, 0
5, 44796, Note_on_c, 3, 61, 0
5, 44820, Note_on_c, 3, 55, 87
5, 44820, Note_on_c, 3, 57, 85
5, 44820, Note_on_c, 3, 52, 87
5, 44820, Note_on_c, 3, 61, 84
5, 44850, Note_on_c, 3, 52, 0
5, 44850, Note_on_c, 3, 55, 0
5, 44850, Note_on_c, 3, 57, 0
5, 44851, Note_on_c, 3, 61, 0
5, 44880, Note_on_c, 3, 52, 86
5, 44880, Note_on_c, 3, 55, 87
5, 44880, Note_on_c, 3, 57, 87
5, 44880, Note_on_c, 3, 62, 87
5, 44902, Note_on_c, 3, 62, 0
5, 44902, Note_on_c, 3, 57, 0
5, 44902, Note_on_c, 3, 55, 0
5, 44909, Note_on_c, 3, 52, 0
5, 44970, Note_on_c, 3, 55, 87
5, 44970, Note_on_c, 3, 62, 87
5, 44970, Note_on_c, 3, 57, 87
5, 44970, Note_on_c, 3, 52, 87
5, 44992, Note_on_c, 3, 52, 0
5, 44992, Note_on_c, 3, 55, 0
5, 44992, Note_on_c, 3, 62, 0
5, 44992, Note_on_c, 3, 57, 0
5, 45090, Note_on_c, 3, 52, 87
5, 45090, Note_on_c, 3, 57, 87
5, 45090, Note_on_c, 3, 62, 87
5, 45090, Note_on_c, 3, 55, 87
5, 45134, Note_on_c, 3, 55, 0
5, 45134, Note_on_c, 3, 52, 0
5, 45134, Note_on_c, 3, 57, 0
5, 45134, Note_on_c, 3, 62, 0
5, 45150, Note_on_c, 3, 57, 87
5, 45150, Note_on_c, 3, 62, 87
5, 45150, Note_on_c, 3, 55, 87
5, 45150, Note_on_c, 3, 52, 87
5, 45180, Note_on_c, 3, 52, 0
5, 45180, Note_on_c, 3, 57, 0
5, 45180, Note_on_c, 3, 62, 0
5, 45180, Note_on_c, 3, 55, 0
5, 45240, Note_on_c, 3, 52, 87
5, 45240, Note_on_c, 3, 55, 87
5, 45240, Note_on_c, 3, 57, 87
5, 45240, Note_on_c, 3, 61, 84
5, 45262, Note_on_c, 3, 57, 0
5, 45262, Note_on_c, 3, 52, 0
5, 45262, Note_on_c, 3, 55, 0
5, 45276, Note_on_c, 3, 61, 0
5, 45300, Note_on_c, 3, 55, 87
5, 45300, Note_on_c, 3, 57, 85
5, 45300, Note_on_c, 3, 52, 87
5, 45300, Note_on_c, 3, 61, 84
5, 45330, Note_on_c, 3, 52, 0
5, 45330, Note_on_c, 3, 55, 0
5, 45330, Note_on_c, 3, 57, 0
5, 45331, Note_on_c, 3, 61, 0
5, 45331, End_track
6, 0, Start_track
6, 0, Title_t, ""
6, 0, Note_on_c, 9, 42, 71
6, 4, Note_on_c, 9, 42, 0
6, 60, Control_c, 9, 121, 0
6, 60, Control_c, 9, 7, 100
6, 60, Control_c, 9, 10, 63
6, 60, Control_c, 9, 91, 64
6, 60, Note_on_c, 9, 42, 60
6, 65, Note_on_c, 9, 42, 0
6, 120, Note_on_c, 9, 42, 59
6, 125, Note_on_c, 9, 42, 0
6, 180, Note_on_c, 9, 42, 64
6, 185, Note_on_c, 9, 42, 0
6, 240, Note_on_c, 9, 42, 46
6, 245, Note_on_c, 9, 42, 0
6, 270, Note_on_c, 9, 40, 127
6, 270, Note_on_c, 9, 44, 124
6, 275, Note_on_c, 9, 44, 0
6, 275, Note_on_c, 9, 40, 0
6, 280, Note_on_c, 9, 40, 127
6, 285, Note_on_c, 9, 40, 0
6, 300, Note_on_c, 9, 36, 110
6, 300, Note_on_c, 9, 42, 91
6, 305, Note_on_c, 9, 42, 0
6, 305, Note_on_c, 9, 36, 0
6, 330, Note_on_c, 9, 36, 93
6, 335, Note_on_c, 9, 36, 0
6, 360, Note_on_c, 9, 40, 127
6, 360, Note_on_c, 9, 44, 62
6, 365, Note_on_c, 9, 44, 0
6, 365, Note_on_c, 9, 40, 0
6, 370, Note_on_c, 9, 40, 114
6, 375, Note_on_c, 9, 40, 0
6, 390, Note_on_c, 9, 36, 119
6, 395, Note_on_c, 9, 36, 0
6, 420, Note_on_c, 9, 40, 122
6, 420, Note_on_c, 9, 42, 83
6, 420, Note_on_c, 9, 44, 86
6, 425, Note_on_c, 9, 44, 0
6, 425, Note_on_c, 9, 42, 0
6, 425, Note_on_c, 9, 40, 0
6, 450, Note_on_c, 9, 40, 118
6, 450, Note_on_c, 9, 44, 91
6, 455, Note_on_c, 9, 44, 0
6, 455, Note_on_c, 9, 40, 0
6, 480, Note_on_c, 9, 49, 74
6, 480, Note_on_c, 9, 36, 124
6, 480, Note_on_c, 9, 42, 59
6, 488, Note_on_c, 9, 42, 0
6, 488, Note_on_c, 9, 36, 0
6, 488, Note_on_c, 9, 49, 0
6, 540, Note_on_c, 9, 42, 74
6, 545, Note_on_c, 9, 42, 0
6, 600, Note_on_c, 9, 49, 73
6, 600, Note_on_c, 9, 55, 64
6, 600, Note_on_c, 9, 36, 108
6, 600, Note_on_c, 9, 42, 69
6, 609, Note_on_c, 9, 42, 0
6, 609, Note_on_c, 9, 49, 0
6, 609, Note_on_c, 9, 55, 0
6, 609, Note_on_c, 9, 36, 0
6, 630, Note_on_c, 9, 92, 91
6, 630, Note_on_c, 9, 49, 119
6, 630, Note_on_c, 9, 36, 103
6, 638, Note_on_c, 9, 36, 0
6, 638, Note_on_c, 9, 49, 0
6, 638, Note_on_c, 9, 92, 0
6, 660, Note_on_c, 9, 42, 71
6, 665, Note_on_c, 9, 42, 0
6, 690, Note_on_c, 9, 49, 124
6, 690, Note_on_c, 9, 36, 127
6, 697, Note_on_c, 9, 36, 0
6, 697, Note_on_c, 9, 49, 0
6, 720, Note_on_c, 9, 42, 69
6, 725, Note_on_c, 9, 42, 0
6, 780, Note_on_c, 9, 42, 77
6, 785, Note_on_c, 9, 42, 0
6, 840, Note_on_c, 9, 92, 124
6, 840, Note_on_c, 9, 49, 47
6, 840, Note_on_c, 9, 36, 117
6, 840, Note_on_c, 9, 42, 61
6, 845, Note_on_c, 9, 42, 0
6, 845, Note_on_c, 9, 92, 0
6, 845, Note_on_c, 9, 49, 0
6, 845, Note_on_c, 9, 36, 0
6, 870, Note_on_c, 9, 55, 112
6, 870, Note_on_c, 9, 49, 61
6, 870, Note_on_c, 9, 36, 106
6, 875, Note_on_c, 9, 36, 0
6, 875, Note_on_c, 9, 49, 0
6, 875, Note_on_c, 9, 55, 0
6, 900, Note_on_c, 9, 42, 57
6, 905, Note_on_c, 9, 42, 0
6, 930, Note_on_c, 9, 49, 91
6, 930, Note_on_c, 9, 52, 83
6, 930, Note_on_c, 9, 36, 124
6, 935, Note_on_c, 9, 36, 0
6, 935, Note_on_c, 9, 52, 0
6, 935, Note_on_c, 9, 49, 0
6, 960, Note_on_c, 9, 42, 61
6, 965, Note_on_c, 9, 42, 0
6, 990, Note_on_c, 9, 48, 95
6, 990, Note_on_c, 9, 50, 70
6, 995, Note_on_c, 9, 50, 0
6, 995, Note_on_c, 9, 48, 0
6, 1020, Note_on_c, 9, 42, 64
6, 1025, Note_on_c, 9, 42, 0
6, 1080, Note_on_c, 9, 48, 87
6, 1080, Note_on_c, 9, 47, 87
6, 1080, Note_on_c, 9, 45, 87
6, 1080, Note_on_c, 9, 42, 68
6, 1085, Note_on_c, 9, 42, 0
6, 1085, Note_on_c, 9, 48, 0
6, 1085, Note_on_c, 9, 47, 0
6, 1085, Note_on_c, 9, 45, 0
6, 1140, Note_on_c, 9, 42, 66
6, 1145, Note_on_c, 9, 42, 0
6, 1170, Note_on_c, 9, 47, 46
6, 1170, Note_on_c, 9, 43, 63
6, 1175, Note_on_c, 9, 43, 0
6, 1175, Note_on_c, 9, 47, 0
6, 1185, Note_on_c, 9, 45, 77
6, 1190, Note_on_c, 9, 45, 0
6, 1200, Note_on_c, 9, 45, 88
6, 1200, Note_on_c, 9, 47, 106
6, 1200, Note_on_c, 9, 42, 64
6, 1205, Note_on_c, 9, 42, 0
6, 1205, Note_on_c, 9, 47, 0
6, 1205, Note_on_c, 9, 45, 0
6, 1260, Note_on_c, 9, 42, 62
6, 1265, Note_on_c, 9, 42, 0
6, 1290, Note_on_c, 9, 45, 76
6, 1290, Note_on_c, 9, 43, 67
6, 1295, Note_on_c, 9, 43, 0
6, 1295, Note_on_c, 9, 45, 0
6, 1320, Note_on_c, 9, 42, 60
6, 1325, Note_on_c, 9, 42, 0
6, 1350, Note_on_c, 9, 47, 62
6, 1350, Note_on_c, 9, 45, 60
6, 1350, Note_on_c, 9, 41, 66
6, 1355, Note_on_c, 9, 41, 0
6, 1355, Note_on_c, 9, 45, 0
6, 1355, Note_on_c, 9, 47, 0
6, 1380, Note_on_c, 9, 41, 95
6, 1380, Note_on_c, 9, 42, 67
6, 1385, Note_on_c, 9, 42, 0
6, 1385, Note_on_c, 9, 41, 0
6, 1440, Note_on_c, 9, 49, 119
6, 1440, Note_on_c, 9, 36, 121
6, 1440, Note_on_c, 9, 42, 58
6, 1448, Note_on_c, 9, 42, 0
6, 1448, Note_on_c, 9, 36, 0
6, 1448, Note_on_c, 9, 49, 0
6, 1500, Note_on_c, 9, 42, 70
6, 1505, Note_on_c, 9, 42, 0
6, 1560, Note_on_c, 9, 49, 114
6, 1560, Note_on_c, 9, 92, 105
6, 1560, Note_on_c, 9, 36, 112
6, 1560, Note_on_c, 9, 42, 55
6, 1569, Note_on_c, 9, 42, 0
6, 1569, Note_on_c, 9, 49, 0
6, 1569, Note_on_c, 9, 92, 0
6, 1569, Note_on_c, 9, 36, 0
6, 1590, Note_on_c, 9, 49, 97
6, 1590, Note_on_c, 9, 36, 114
6, 1597, Note_on_c, 9, 36, 0
6, 1597, Note_on_c, 9, 49, 0
6, 1620, Note_on_c, 9, 42, 58
6, 1625, Note_on_c, 9, 42, 0
6, 1650, Note_on_c, 9, 49, 124
6, 1650, Note_on_c, 9, 36, 121
6, 1657, Note_on_c, 9, 36, 0
6, 1657, Note_on_c, 9, 49, 0
6, 1680, Note_on_c, 9, 42, 58
6, 1685, Note_on_c, 9, 42, 0
6, 1740, Note_on_c, 9, 42, 70
6, 1745, Note_on_c, 9, 42, 0
6, 1800, Note_on_c, 9, 92, 91
6, 1800, Note_on_c, 9, 55, 115
6, 1800, Note_on_c, 9, 36, 110
6, 1800, Note_on_c, 9, 42, 52
6, 1804, Note_on_c, 9, 36, 0
6, 1805, Note_on_c, 9, 92, 0
6, 1805, Note_on_c, 9, 55, 0
6, 1805, Note_on_c, 9, 42, 0
6, 1830, Note_on_c, 9, 49, 84
6, 1830, Note_on_c, 9, 36, 119
6, 1835, Note_on_c, 9, 36, 0
6, 1835, Note_on_c, 9, 49, 0
6, 1860, Note_on_c, 9, 42, 60
6, 1865, Note_on_c, 9, 42, 0
6, 1890, Note_on_c, 9, 49, 114
6, 1890, Note_on_c, 9, 36, 110
6, 1895, Note_on_c, 9, 36, 0
6, 1895, Note_on_c, 9, 49, 0
6, 1920, Note_on_c, 9, 42, 71
6, 1925, Note_on_c, 9, 42, 0
6, 1980, Note_on_c, 9, 42, 46
6, 1985, Note_on_c, 9, 42, 0
6, 1995, Note_on_c, 9, 43, 65
6, 2000, Note_on_c, 9, 43, 0
6, 2010, Note_on_c, 9, 47, 79
6, 2010, Note_on_c, 9, 41, 55
6, 2010, Note_on_c, 9, 45, 59
6, 2015, Note_on_c, 9, 45, 0
6, 2015, Note_on_c, 9, 41, 0
6, 2015, Note_on_c, 9, 47, 0
6, 2025, Note_on_c, 9, 50, 78
6, 2025, Note_on_c, 9, 48, 68
6, 2030, Note_on_c, 9, 48, 0
6, 2030, Note_on_c, 9, 50, 0
6, 2040, Note_on_c, 9, 50, 74
6, 2040, Note_on_c, 9, 48, 77
6, 2040, Note_on_c, 9, 42, 64
6, 2045, Note_on_c, 9, 42, 0
6, 2045, Note_on_c, 9, 48, 0
6, 2045, Note_on_c, 9, 50, 0
6, 2070, Note_on_c, 9, 48, 67
6, 2070, Note_on_c, 9, 47, 78
6, 2070, Note_on_c, 9, 45, 68
6, 2075, Note_on_c, 9, 45, 0
6, 2075, Note_on_c, 9, 47, 0
6, 2075, Note_on_c, 9, 48, 0
6, 2100, Note_on_c, 9, 47, 76
6, 2100, Note_on_c, 9, 45, 64
6, 2100, Note_on_c, 9, 43, 71
6, 2100, Note_on_c, 9, 41, 75
6, 2100, Note_on_c, 9, 42, 77
6, 2105, Note_on_c, 9, 42, 0
6, 2105, Note_on_c, 9, 43, 0
6, 2105, Note_on_c, 9, 47, 0
6, 2105, Note_on_c, 9, 45, 0
6, 2105, Note_on_c, 9, 41, 0
6, 2160, Note_on_c, 9, 52, 91
6, 2160, Note_on_c, 9, 49, 101
6, 2160, Note_on_c, 9, 36, 127
6, 2160, Note_on_c, 9, 42, 51
6, 2171, Note_on_c, 9, 42, 0
6, 2171, Note_on_c, 9, 52, 0
6, 2171, Note_on_c, 9, 49, 0
6, 2171, Note_on_c, 9, 36, 0
6, 2220, Note_on_c, 9, 42, 66
6, 2225, Note_on_c, 9, 42, 0
6, 2280, Note_on_c, 9, 42, 52
6, 2285, Note_on_c, 9, 42, 0
6, 2340, Note_on_c, 9, 42, 50
6, 2345, Note_on_c, 9, 42, 0
6, 2370, Note_on_c, 9, 49, 127
6, 2370, Note_on_c, 9, 36, 127
6, 2380, Note_on_c, 9, 36, 0
6, 2380, Note_on_c, 9, 49, 0
6, 2400, Note_on_c, 9, 36, 127
6, 2400, Note_on_c, 9, 42, 80
6, 2405, Note_on_c, 9, 42, 0
6, 2405, Note_on_c, 9, 36, 0
6, 2430, Note_on_c, 9, 42, 46
6, 2435, Note_on_c, 9, 42, 0
6, 2460, Note_on_c, 9, 40, 127
6, 2460, Note_on_c, 9, 42, 71
6, 2465, Note_on_c, 9, 42, 0
6, 2465, Note_on_c, 9, 40, 0
6, 2490, Note_on_c, 9, 36, 102
6, 2490, Note_on_c, 9, 42, 43
6, 2495, Note_on_c, 9, 42, 0
6, 2495, Note_on_c, 9, 36, 0
6, 2520, Note_on_c, 9, 36, 114
6, 2520, Note_on_c, 9, 42, 64
6, 2525, Note_on_c, 9, 42, 0
6, 2525, Note_on_c, 9, 36, 0
6, 2550, Note_on_c, 9, 42, 55
6, 2555, Note_on_c, 9, 42, 0
6, 2580, Note_on_c, 9, 40, 127
6, 2580, Note_on_c, 9, 42, 69
6, 2585, Note_on_c, 9, 42, 0
6, 2585, Note_on_c, 9, 40, 0
6, 2610, Note_on_c, 9, 36, 127
6, 2610, Note_on_c, 9, 42, 51
6, 2615, Note_on_c, 9, 42, 0
6, 2615, Note_on_c, 9, 36, 0
6, 2640, Note_on_c, 9, 42, 75
6, 2645, Note_on_c, 9, 42, 0
6, 2670, Note_on_c, 9, 42, 63
6, 2670, Note_on_c, 9, 44, 70
6, 2675, Note_on_c, 9, 44, 0
6, 2675, Note_on_c, 9, 42, 0
6, 2700, Note_on_c, 9, 40, 127
6, 2700, Note_on_c, 9, 42, 61
6, 2705, Note_on_c, 9, 42, 0
6, 2705, Note_on_c, 9, 40, 0
6, 2730, Note_on_c, 9, 42, 52
6, 2735, Note_on_c, 9, 42, 0
6, 2760, Note_on_c, 9, 42, 74
6, 2765, Note_on_c, 9, 42, 0
6, 2790, Note_on_c, 9, 36, 80
6, 2790, Note_on_c, 9, 42, 93
6, 2795, Note_on_c, 9, 42, 0
6, 2795, Note_on_c, 9, 36, 0
6, 2820, Note_on_c, 9, 40, 127
6, 2820, Note_on_c, 9, 42, 101
6, 2825, Note_on_c, 9, 42, 0
6, 2825, Note_on_c, 9, 40, 0
6, 2850, Note_on_c, 9, 36, 112
6, 2850, Note_on_c, 9, 42, 59
6, 2850, Note_on_c, 9, 44, 69
6, 2855, Note_on_c, 9, 44, 0
6, 2855, Note_on_c, 9, 42, 0
6, 2855, Note_on_c, 9, 36, 0
6, 2880, Note_on_c, 9, 36, 86
6, 2880, Note_on_c, 9, 42, 74
6, 2885, Note_on_c, 9, 42, 0
6, 2885, Note_on_c, 9, 36, 0
6, 2910, Note_on_c, 9, 42, 61
6, 2915, Note_on_c, 9, 42, 0
6, 2940, Note_on_c, 9, 40, 127
6, 2940, Note_on_c, 9, 42, 78
6, 2945, Note_on_c, 9, 42, 0
6, 2945, Note_on_c, 9, 40, 0
6, 2970, Note_on_c, 9, 36, 103
6, 2970, Note_on_c, 9, 42, 70
6, 2975, Note_on_c, 9, 42, 0
6, 2975, Note_on_c, 9, 36, 0
6, 3000, Note_on_c, 9, 36, 119
6, 3000, Note_on_c, 9, 42, 66
6, 3005, Note_on_c, 9, 42, 0
6, 3005, Note_on_c, 9, 36, 0
6, 3030, Note_on_c, 9, 42, 79
6, 3035, Note_on_c, 9, 42, 0
6, 3060, Note_on_c, 9, 40, 127
6, 3060, Note_on_c, 9, 42, 65
6, 3065, Note_on_c, 9, 42, 0
6, 3065, Note_on_c, 9, 40, 0
6, 3090, Note_on_c, 9, 36, 127
6, 3090, Note_on_c, 9, 42, 63
6, 3095, Note_on_c, 9, 42, 0
6, 3095, Note_on_c, 9, 36, 0
6, 3120, Note_on_c, 9, 42, 67
6, 3125, Note_on_c, 9, 42, 0
6, 3150, Note_on_c, 9, 42, 56
6, 3155, Note_on_c, 9, 42, 0
6, 3180, Note_on_c, 9, 40, 127
6, 3180, Note_on_c, 9, 42, 124
6, 3185, Note_on_c, 9, 42, 0
6, 3185, Note_on_c, 9, 40, 0
6, 3210, Note_on_c, 9, 42, 44
6, 3210, Note_on_c, 9, 44, 64
6, 3215, Note_on_c, 9, 44, 0
6, 3215, Note_on_c, 9, 42, 0
6, 3240, Note_on_c, 9, 42, 58
6, 3245, Note_on_c, 9, 42, 0
6, 3270, Note_on_c, 9, 36, 124
6, 3270, Note_on_c, 9, 42, 62
6, 3275, Note_on_c, 9, 42, 0
6, 3275, Note_on_c, 9, 36, 0
6, 3300, Note_on_c, 9, 40, 127
6, 3300, Note_on_c, 9, 42, 77
6, 3305, Note_on_c, 9, 42, 0
6, 3305, Note_on_c, 9, 40, 0
6, 3330, Note_on_c, 9, 36, 121
6, 3330, Note_on_c, 9, 42, 52
6, 3335, Note_on_c, 9, 42, 0
6, 3335, Note_on_c, 9, 36, 0
6, 3360, Note_on_c, 9, 36, 127
6, 3360, Note_on_c, 9, 42, 80
6, 3365, Note_on_c, 9, 42, 0
6, 3365, Note_on_c, 9, 36, 0
6, 3390, Note_on_c, 9, 42, 46
6, 3395, Note_on_c, 9, 42, 0
6, 3420, Note_on_c, 9, 40, 127
6, 3420, Note_on_c, 9, 42, 71
6, 3425, Note_on_c, 9, 42, 0
6, 3425, Note_on_c, 9, 40, 0
6, 3450, Note_on_c, 9, 36, 102
6, 3450, Note_on_c, 9, 42, 43
6, 3455, Note_on_c, 9, 42, 0
6, 3455, Note_on_c, 9, 36, 0
6, 3480, Note_on_c, 9, 36, 114
6, 3480, Note_on_c, 9, 42, 64
6, 3485, Note_on_c, 9, 42, 0
6, 3485, Note_on_c, 9, 36, 0
6, 3510, Note_on_c, 9, 42, 55
6, 3515, Note_on_c, 9, 42, 0
6, 3540, Note_on_c, 9, 40, 127
6, 3540, Note_on_c, 9, 42, 69
6, 3545, Note_on_c, 9, 42, 0
6, 3545, Note_on_c, 9, 40, 0
6, 3570, Note_on_c, 9, 36, 127
6, 3570, Note_on_c, 9, 42, 51
6, 3575, Note_on_c, 9, 42, 0
6, 3575, Note_on_c, 9, 36, 0
6, 3600, Note_on_c, 9, 42, 75
6, 3605, Note_on_c, 9, 42, 0
6, 3630, Note_on_c, 9, 42, 63
6, 3630, Note_on_c, 9, 44, 70
6, 3635, Note_on_c, 9, 44, 0
6, 3635, Note_on_c, 9, 42, 0
6, 3660, Note_on_c, 9, 40, 127
6, 3660, Note_on_c, 9, 42, 61
6, 3665, Note_on_c, 9, 42, 0
6, 3665, Note_on_c, 9, 40, 0
6, 3690, Note_on_c, 9, 42, 52
6, 3695, Note_on_c, 9, 42, 0
6, 3720, Note_on_c, 9, 42, 74
6, 3725, Note_on_c, 9, 42, 0
6, 3750, Note_on_c, 9, 36, 80
6, 3750, Note_on_c, 9, 42, 93
6, 3755, Note_on_c, 9, 42, 0
6, 3755, Note_on_c, 9, 36, 0
6, 3780, Note_on_c, 9, 40, 127
6, 3780, Note_on_c, 9, 42, 101
6, 3785, Note_on_c, 9, 42, 0
6, 3785, Note_on_c, 9, 40, 0
6, 3810, Note_on_c, 9, 36, 112
6, 3810, Note_on_c, 9, 42, 59
6, 3810, Note_on_c, 9, 44, 69
6, 3815, Note_on_c, 9, 44, 0
6, 3815, Note_on_c, 9, 42, 0
6, 3815, Note_on_c, 9, 36, 0
6, 3840, Note_on_c, 9, 36, 86
6, 3840, Note_on_c, 9, 42, 74
6, 3845, Note_on_c, 9, 42, 0
6, 3845, Note_on_c, 9, 36, 0
6, 3870, Note_on_c, 9, 42, 61
6, 3875, Note_on_c, 9, 42, 0
6, 3900, Note_on_c, 9, 40, 127
6, 3900, Note_on_c, 9, 42, 78
6, 3905, Note_on_c, 9, 42, 0
6, 3905, Note_on_c, 9, 40, 0
6, 3930, Note_on_c, 9, 36, 103
6, 3930, Note_on_c, 9, 42, 70
6, 3935, Note_on_c, 9, 42, 0
6, 3935, Note_on_c, 9, 36, 0
6, 3960, Note_on_c, 9, 36, 119
6, 3960, Note_on_c, 9, 42, 66
6, 3965, Note_on_c, 9, 42, 0
6, 3965, Note_on_c, 9, 36, 0
6, 3990, Note_on_c, 9, 42, 79
6, 3995, Note_on_c, 9, 42, 0
6, 4020, Note_on_c, 9, 40, 127
6, 4020, Note_on_c, 9, 42, 65
6, 4025, Note_on_c, 9, 42, 0
6, 4025, Note_on_c, 9, 40, 0
6, 4050, Note_on_c, 9, 36, 127
6, 4050, Note_on_c, 9, 42, 63
6, 4052, Note_on_c, 9, 42, 0
6, 4052, Note_on_c, 9, 36, 0
6, 4080, Note_on_c, 9, 42, 67
6, 4085, Note_on_c, 9, 42, 0
6, 4110, Note_on_c, 9, 42, 56
6, 4115, Note_on_c, 9, 42, 0
6, 4140, Note_on_c, 9, 40, 127
6, 4140, Note_on_c, 9, 42, 124
6, 4145, Note_on_c, 9, 42, 0
6, 4145, Note_on_c, 9, 40, 0
6, 4170, Note_on_c, 9, 42, 44
6, 4170, Note_on_c, 9, 44, 64
6, 4175, Note_on_c, 9, 44, 0
6, 4175, Note_on_c, 9, 42, 0
6, 4200, Note_on_c, 9, 42, 58
6, 4205, Note_on_c, 9, 42, 0
6, 4230, Note_on_c, 9, 36, 124
6, 4230, Note_on_c, 9, 42, 62
6, 4235, Note_on_c, 9, 42, 0
6, 4235, Note_on_c, 9, 36, 0
6, 4260, Note_on_c, 9, 40, 127
6, 4260, Note_on_c, 9, 42, 77
6, 4265, Note_on_c, 9, 42, 0
6, 4265, Note_on_c, 9, 40, 0
6, 4290, Note_on_c, 9, 36, 121
6, 4290, Note_on_c, 9, 42, 52
6, 4295, Note_on_c, 9, 42, 0
6, 4295, Note_on_c, 9, 36, 0
6, 4320, Note_on_c, 9, 36, 127
6, 4320, Note_on_c, 9, 42, 80
6, 4325, Note_on_c, 9, 42, 0
6, 4325, Note_on_c, 9, 36, 0
6, 4350, Note_on_c, 9, 42, 46
6, 4355, Note_on_c, 9, 42, 0
6, 4380, Note_on_c, 9, 40, 127
6, 4380, Note_on_c, 9, 42, 71
6, 4385, Note_on_c, 9, 42, 0
6, 4385, Note_on_c, 9, 40, 0
6, 4410, Note_on_c, 9, 36, 102
6, 4410, Note_on_c, 9, 42, 43
6, 4415, Note_on_c, 9, 42, 0
6, 4415, Note_on_c, 9, 36, 0
6, 4440, Note_on_c, 9, 36, 114
6, 4440, Note_on_c, 9, 42, 64
6, 4445, Note_on_c, 9, 42, 0
6, 4445, Note_on_c, 9, 36, 0
6, 4470, Note_on_c, 9, 42, 55
6, 4475, Note_on_c, 9, 42, 0
6, 4500, Note_on_c, 9, 40, 127
6, 4500, Note_on_c, 9, 42, 69
6, 4505, Note_on_c, 9, 42, 0
6, 4505, Note_on_c, 9, 40, 0
6, 4530, Note_on_c, 9, 36, 127
6, 4530, Note_on_c, 9, 42, 51
6, 4535, Note_on_c, 9, 42, 0
6, 4535, Note_on_c, 9, 36, 0
6, 4560, Note_on_c, 9, 42, 75
6, 4565, Note_on_c, 9, 42, 0
6, 4590, Note_on_c, 9, 42, 63
6, 4590, Note_on_c, 9, 44, 70
6, 4595, Note_on_c, 9, 44, 0
6, 4595, Note_on_c, 9, 42, 0
6, 4620, Note_on_c, 9, 40, 127
6, 4620, Note_on_c, 9, 42, 61
6, 4625, Note_on_c, 9, 42, 0
6, 4625, Note_on_c, 9, 40, 0
6, 4650, Note_on_c, 9, 42, 52
6, 4655, Note_on_c, 9, 42, 0
6, 4680, Note_on_c, 9, 42, 74
6, 4685, Note_on_c, 9, 42, 0
6, 4710, Note_on_c, 9, 36, 80
6, 4710, Note_on_c, 9, 42, 93
6, 4715, Note_on_c, 9, 42, 0
6, 4715, Note_on_c, 9, 36, 0
6, 4740, Note_on_c, 9, 40, 127
6, 4740, Note_on_c, 9, 42, 101
6, 4745, Note_on_c, 9, 42, 0
6, 4745, Note_on_c, 9, 40, 0
6, 4770, Note_on_c, 9, 36, 112
6, 4770, Note_on_c, 9, 42, 59
6, 4770, Note_on_c, 9, 44, 69
6, 4775, Note_on_c, 9, 44, 0
6, 4775, Note_on_c, 9, 42, 0
6, 4775, Note_on_c, 9, 36, 0
6, 4800, Note_on_c, 9, 36, 86
6, 4800, Note_on_c, 9, 42, 74
6, 4805, Note_on_c, 9, 42, 0
6, 4805, Note_on_c, 9, 36, 0
6, 4830, Note_on_c, 9, 42, 61
6, 4835, Note_on_c, 9, 42, 0
6, 4860, Note_on_c, 9, 40, 127
6, 4860, Note_on_c, 9, 42, 78
6, 4865, Note_on_c, 9, 42, 0
6, 4865, Note_on_c, 9, 40, 0
6, 4890, Note_on_c, 9, 36, 103
6, 4890, Note_on_c, 9, 42, 70
6, 4895, Note_on_c, 9, 42, 0
6, 4895, Note_on_c, 9, 36, 0
6, 4920, Note_on_c, 9, 36, 119
6, 4920, Note_on_c, 9, 42, 66
6, 4925, Note_on_c, 9, 42, 0
6, 4925, Note_on_c, 9, 36, 0
6, 4950, Note_on_c, 9, 42, 79
6, 4955, Note_on_c, 9, 42, 0
6, 4980, Note_on_c, 9, 40, 127
6, 4980, Note_on_c, 9, 42, 65
6, 4985, Note_on_c, 9, 42, 0
6, 4985, Note_on_c, 9, 40, 0
6, 5010, Note_on_c, 9, 36, 127
6, 5010, Note_on_c, 9, 42, 63
6, 5015, Note_on_c, 9, 42, 0
6, 5015, Note_on_c, 9, 36, 0
6, 5040, Note_on_c, 9, 42, 67
6, 5045, Note_on_c, 9, 42, 0
6, 5070, Note_on_c, 9, 42, 56
6, 5075, Note_on_c, 9, 42, 0
6, 5100, Note_on_c, 9, 40, 127
6, 5100, Note_on_c, 9, 42, 124
6, 5105, Note_on_c, 9, 42, 0
6, 5105, Note_on_c, 9, 40, 0
6, 5130, Note_on_c, 9, 42, 44
6, 5130, Note_on_c, 9, 44, 64
6, 5135, Note_on_c, 9, 44, 0
6, 5135, Note_on_c, 9, 42, 0
6, 5160, Note_on_c, 9, 42, 58
6, 5165, Note_on_c, 9, 42, 0
6, 5190, Note_on_c, 9, 36, 124
6, 5190, Note_on_c, 9, 42, 62
6, 5195, Note_on_c, 9, 42, 0
6, 5195, Note_on_c, 9, 36, 0
6, 5220, Note_on_c, 9, 40, 127
6, 5220, Note_on_c, 9, 42, 77
6, 5225, Note_on_c, 9, 42, 0
6, 5225, Note_on_c, 9, 40, 0
6, 5250, Note_on_c, 9, 36, 121
6, 5250, Note_on_c, 9, 42, 52
6, 5255, Note_on_c, 9, 42, 0
6, 5255, Note_on_c, 9, 36, 0
6, 5280, Note_on_c, 9, 36, 127
6, 5280, Note_on_c, 9, 42, 80
6, 5287, Note_on_c, 9, 42, 0
6, 5287, Note_on_c, 9, 36, 0
6, 5310, Note_on_c, 9, 42, 46
6, 5315, Note_on_c, 9, 42, 0
6, 5340, Note_on_c, 9, 40, 127
6, 5340, Note_on_c, 9, 42, 71
6, 5350, Note_on_c, 9, 42, 0
6, 5350, Note_on_c, 9, 40, 0
6, 5370, Note_on_c, 9, 36, 102
6, 5370, Note_on_c, 9, 42, 43
6, 5380, Note_on_c, 9, 42, 0
6, 5380, Note_on_c, 9, 36, 0
6, 5400, Note_on_c, 9, 36, 114
6, 5400, Note_on_c, 9, 42, 64
6, 5405, Note_on_c, 9, 42, 0
6, 5405, Note_on_c, 9, 36, 0
6, 5430, Note_on_c, 9, 42, 55
6, 5438, Note_on_c, 9, 42, 0
6, 5460, Note_on_c, 9, 40, 127
6, 5460, Note_on_c, 9, 42, 69
6, 5464, Note_on_c, 9, 42, 0
6, 5464, Note_on_c, 9, 40, 0
6, 5490, Note_on_c, 9, 36, 127
6, 5490, Note_on_c, 9, 42, 51
6, 5502, Note_on_c, 9, 42, 0
6, 5502, Note_on_c, 9, 36, 0
6, 5520, Note_on_c, 9, 42, 75
6, 5525, Note_on_c, 9, 42, 0
6, 5550, Note_on_c, 9, 42, 63
6, 5550, Note_on_c, 9, 44, 70
6, 5555, Note_on_c, 9, 44, 0
6, 5555, Note_on_c, 9, 42, 0
6, 5580, Note_on_c, 9, 40, 127
6, 5580, Note_on_c, 9, 42, 61
6, 5585, Note_on_c, 9, 42, 0
6, 5585, Note_on_c, 9, 40, 0
6, 5610, Note_on_c, 9, 42, 52
6, 5615, Note_on_c, 9, 42, 0
6, 5640, Note_on_c, 9, 42, 74
6, 5645, Note_on_c, 9, 42, 0
6, 5670, Note_on_c, 9, 36, 80
6, 5670, Note_on_c, 9, 42, 93
6, 5675, Note_on_c, 9, 42, 0
6, 5675, Note_on_c, 9, 36, 0
6, 5700, Note_on_c, 9, 40, 127
6, 5700, Note_on_c, 9, 42, 101
6, 5705, Note_on_c, 9, 42, 0
6, 5705, Note_on_c, 9, 40, 0
6, 5730, Note_on_c, 9, 36, 112
6, 5730, Note_on_c, 9, 42, 59
6, 5730, Note_on_c, 9, 44, 69
6, 5735, Note_on_c, 9, 44, 0
6, 5735, Note_on_c, 9, 42, 0
6, 5735, Note_on_c, 9, 36, 0
6, 5760, Note_on_c, 9, 36, 86
6, 5760, Note_on_c, 9, 42, 74
6, 5765, Note_on_c, 9, 42, 0
6, 5765, Note_on_c, 9, 36, 0
6, 5790, Note_on_c, 9, 42, 61
6, 5795, Note_on_c, 9, 42, 0
6, 5820, Note_on_c, 9, 40, 127
6, 5820, Note_on_c, 9, 42, 78
6, 5825, Note_on_c, 9, 42, 0
6, 5825, Note_on_c, 9, 40, 0
6, 5850, Note_on_c, 9, 36, 103
6, 5850, Note_on_c, 9, 42, 70
6, 5855, Note_on_c, 9, 42, 0
6, 5855, Note_on_c, 9, 36, 0
6, 5880, Note_on_c, 9, 36, 119
6, 5880, Note_on_c, 9, 42, 66
6, 5891, Note_on_c, 9, 42, 0
6, 5891, Note_on_c, 9, 36, 0
6, 5910, Note_on_c, 9, 42, 79
6, 5915, Note_on_c, 9, 42, 0
6, 5940, Note_on_c, 9, 40, 127
6, 5940, Note_on_c, 9, 42, 65
6, 5945, Note_on_c, 9, 42, 0
6, 5945, Note_on_c, 9, 40, 0
6, 5970, Note_on_c, 9, 36, 127
6, 5970, Note_on_c, 9, 42, 63
6, 5978, Note_on_c, 9, 42, 0
6, 5978, Note_on_c, 9, 36, 0
6, 6000, Note_on_c, 9, 42, 67
6, 6005, Note_on_c, 9, 42, 0
6, 6030, Note_on_c, 9, 42, 56
6, 6036, Note_on_c, 9, 42, 0
6, 6060, Note_on_c, 9, 40, 127
6, 6060, Note_on_c, 9, 42, 124
6, 6065, Note_on_c, 9, 42, 0
6, 6065, Note_on_c, 9, 40, 0
6, 6090, Note_on_c, 9, 42, 44
6, 6090, Note_on_c, 9, 44, 64
6, 6102, Note_on_c, 9, 42, 0
6, 6103, Note_on_c, 9, 44, 0
6, 6120, Note_on_c, 9, 42, 58
6, 6125, Note_on_c, 9, 42, 0
6, 6150, Note_on_c, 9, 36, 124
6, 6150, Note_on_c, 9, 42, 62
6, 6156, Note_on_c, 9, 42, 0
6, 6156, Note_on_c, 9, 36, 0
6, 6180, Note_on_c, 9, 40, 127
6, 6180, Note_on_c, 9, 42, 77
6, 6185, Note_on_c, 9, 42, 0
6, 6185, Note_on_c, 9, 40, 0
6, 6210, Note_on_c, 9, 36, 121
6, 6210, Note_on_c, 9, 42, 52
6, 6217, Note_on_c, 9, 42, 0
6, 6217, Note_on_c, 9, 36, 0
6, 6240, Note_on_c, 9, 36, 127
6, 6240, Note_on_c, 9, 42, 80
6, 6245, Note_on_c, 9, 42, 0
6, 6245, Note_on_c, 9, 36, 0
6, 6270, Note_on_c, 9, 42, 46
6, 6275, Note_on_c, 9, 42, 0
6, 6300, Note_on_c, 9, 40, 127
6, 6300, Note_on_c, 9, 42, 71
6, 6305, Note_on_c, 9, 42, 0
6, 6305, Note_on_c, 9, 40, 0
6, 6330, Note_on_c, 9, 36, 102
6, 6330, Note_on_c, 9, 42, 43
6, 6335, Note_on_c, 9, 42, 0
6, 6335, Note_on_c, 9, 36, 0
6, 6360, Note_on_c, 9, 36, 114
6, 6360, Note_on_c, 9, 42, 64
6, 6365, Note_on_c, 9, 42, 0
6, 6365, Note_on_c, 9, 36, 0
6, 6390, Note_on_c, 9, 42, 55
6, 6395, Note_on_c, 9, 42, 0
6, 6420, Note_on_c, 9, 40, 127
6, 6420, Note_on_c, 9, 42, 69
6, 6425, Note_on_c, 9, 42, 0
6, 6425, Note_on_c, 9, 40, 0
6, 6450, Note_on_c, 9, 36, 127
6, 6450, Note_on_c, 9, 42, 51
6, 6455, Note_on_c, 9, 42, 0
6, 6455, Note_on_c, 9, 36, 0
6, 6480, Note_on_c, 9, 42, 75
6, 6485, Note_on_c, 9, 42, 0
6, 6510, Note_on_c, 9, 42, 63
6, 6510, Note_on_c, 9, 44, 70
6, 6515, Note_on_c, 9, 44, 0
6, 6515, Note_on_c, 9, 42, 0
6, 6540, Note_on_c, 9, 40, 127
6, 6540, Note_on_c, 9, 42, 61
6, 6545, Note_on_c, 9, 42, 0
6, 6545, Note_on_c, 9, 40, 0
6, 6570, Note_on_c, 9, 42, 52
6, 6575, Note_on_c, 9, 42, 0
6, 6600, Note_on_c, 9, 42, 74
6, 6612, Note_on_c, 9, 42, 0
6, 6630, Note_on_c, 9, 36, 80
6, 6630, Note_on_c, 9, 42, 93
6, 6635, Note_on_c, 9, 42, 0
6, 6635, Note_on_c, 9, 36, 0
6, 6660, Note_on_c, 9, 40, 127
6, 6660, Note_on_c, 9, 42, 101
6, 6667, Note_on_c, 9, 42, 0
6, 6667, Note_on_c, 9, 40, 0
6, 6690, Note_on_c, 9, 36, 112
6, 6690, Note_on_c, 9, 42, 59
6, 6690, Note_on_c, 9, 44, 69
6, 6699, Note_on_c, 9, 44, 0
6, 6699, Note_on_c, 9, 42, 0
6, 6699, Note_on_c, 9, 36, 0
6, 6720, Note_on_c, 9, 36, 86
6, 6720, Note_on_c, 9, 42, 74
6, 6725, Note_on_c, 9, 42, 0
6, 6725, Note_on_c, 9, 36, 0
6, 6750, Note_on_c, 9, 42, 61
6, 6755, Note_on_c, 9, 42, 0
6, 6780, Note_on_c, 9, 40, 127
6, 6780, Note_on_c, 9, 42, 78
6, 6785, Note_on_c, 9, 42, 0
6, 6785, Note_on_c, 9, 40, 0
6, 6810, Note_on_c, 9, 36, 103
6, 6810, Note_on_c, 9, 42, 70
6, 6815, Note_on_c, 9, 42, 0
6, 6815, Note_on_c, 9, 36, 0
6, 6840, Note_on_c, 9, 36, 119
6, 6840, Note_on_c, 9, 42, 66
6, 6845, Note_on_c, 9, 42, 0
6, 6845, Note_on_c, 9, 36, 0
6, 6870, Note_on_c, 9, 42, 79
6, 6875, Note_on_c, 9, 42, 0
6, 6900, Note_on_c, 9, 40, 127
6, 6900, Note_on_c, 9, 42, 65
6, 6905, Note_on_c, 9, 42, 0
6, 6905, Note_on_c, 9, 40, 0
6, 6930, Note_on_c, 9, 36, 127
6, 6930, Note_on_c, 9, 42, 63
6, 6935, Note_on_c, 9, 42, 0
6, 6935, Note_on_c, 9, 36, 0
6, 6960, Note_on_c, 9, 42, 67
6, 6965, Note_on_c, 9, 42, 0
6, 6990, Note_on_c, 9, 42, 56
6, 6995, Note_on_c, 9, 42, 0
6, 7020, Note_on_c, 9, 40, 127
6, 7020, Note_on_c, 9, 42, 124
6, 7025, Note_on_c, 9, 42, 0
6, 7025, Note_on_c, 9, 40, 0
6, 7050, Note_on_c, 9, 42, 44
6, 7050, Note_on_c, 9, 44, 64
6, 7055, Note_on_c, 9, 44, 0
6, 7055, Note_on_c, 9, 42, 0
6, 7080, Note_on_c, 9, 42, 58
6, 7085, Note_on_c, 9, 42, 0
6, 7110, Note_on_c, 9, 36, 124
6, 7110, Note_on_c, 9, 42, 62
6, 7115, Note_on_c, 9, 42, 0
6, 7115, Note_on_c, 9, 36, 0
6, 7140, Note_on_c, 9, 40, 127
6, 7140, Note_on_c, 9, 42, 77
6, 7145, Note_on_c, 9, 42, 0
6, 7145, Note_on_c, 9, 40, 0
6, 7170, Note_on_c, 9, 36, 121
6, 7170, Note_on_c, 9, 42, 52
6, 7175, Note_on_c, 9, 42, 0
6, 7175, Note_on_c, 9, 36, 0
6, 7200, Note_on_c, 9, 36, 127
6, 7200, Note_on_c, 9, 42, 80
6, 7207, Note_on_c, 9, 42, 0
6, 7207, Note_on_c, 9, 36, 0
6, 7230, Note_on_c, 9, 42, 46
6, 7235, Note_on_c, 9, 42, 0
6, 7260, Note_on_c, 9, 40, 127
6, 7260, Note_on_c, 9, 42, 71
6, 7270, Note_on_c, 9, 42, 0
6, 7270, Note_on_c, 9, 40, 0
6, 7290, Note_on_c, 9, 36, 102
6, 7290, Note_on_c, 9, 42, 43
6, 7300, Note_on_c, 9, 42, 0
6, 7300, Note_on_c, 9, 36, 0
6, 7320, Note_on_c, 9, 36, 114
6, 7320, Note_on_c, 9, 42, 64
6, 7325, Note_on_c, 9, 42, 0
6, 7325, Note_on_c, 9, 36, 0
6, 7350, Note_on_c, 9, 42, 55
6, 7358, Note_on_c, 9, 42, 0
6, 7380, Note_on_c, 9, 40, 127
6, 7380, Note_on_c, 9, 42, 69
6, 7384, Note_on_c, 9, 42, 0
6, 7384, Note_on_c, 9, 40, 0
6, 7410, Note_on_c, 9, 36, 127
6, 7410, Note_on_c, 9, 42, 51
6, 7422, Note_on_c, 9, 42, 0
6, 7422, Note_on_c, 9, 36, 0
6, 7440, Note_on_c, 9, 42, 75
6, 7445, Note_on_c, 9, 42, 0
6, 7470, Note_on_c, 9, 42, 63
6, 7470, Note_on_c, 9, 44, 70
6, 7475, Note_on_c, 9, 44, 0
6, 7475, Note_on_c, 9, 42, 0
6, 7500, Note_on_c, 9, 40, 127
6, 7500, Note_on_c, 9, 42, 61
6, 7505, Note_on_c, 9, 42, 0
6, 7505, Note_on_c, 9, 40, 0
6, 7530, Note_on_c, 9, 42, 52
6, 7535, Note_on_c, 9, 42, 0
6, 7560, Note_on_c, 9, 42, 74
6, 7565, Note_on_c, 9, 42, 0
6, 7590, Note_on_c, 9, 36, 80
6, 7590, Note_on_c, 9, 42, 93
6, 7595, Note_on_c, 9, 42, 0
6, 7595, Note_on_c, 9, 36, 0
6, 7620, Note_on_c, 9, 40, 127
6, 7620, Note_on_c, 9, 42, 101
6, 7625, Note_on_c, 9, 42, 0
6, 7625, Note_on_c, 9, 40, 0
6, 7650, Note_on_c, 9, 36, 112
6, 7650, Note_on_c, 9, 42, 59
6, 7650, Note_on_c, 9, 44, 69
6, 7655, Note_on_c, 9, 44, 0
6, 7655, Note_on_c, 9, 42, 0
6, 7655, Note_on_c, 9, 36, 0
6, 7680, Note_on_c, 9, 36, 86
6, 7680, Note_on_c, 9, 42, 74
6, 7685, Note_on_c, 9, 42, 0
6, 7685, Note_on_c, 9, 36, 0
6, 7710, Note_on_c, 9, 42, 61
6, 7715, Note_on_c, 9, 42, 0
6, 7740, Note_on_c, 9, 40, 127
6, 7740, Note_on_c, 9, 42, 78
6, 7745, Note_on_c, 9, 42, 0
6, 7745, Note_on_c, 9, 40, 0
6, 7770, Note_on_c, 9, 36, 103
6, 7770, Note_on_c, 9, 42, 70
6, 7778, Note_on_c, 9, 42, 0
6, 7778, Note_on_c, 9, 36, 0
6, 7800, Note_on_c, 9, 36, 119
6, 7800, Note_on_c, 9, 42, 66
6, 7809, Note_on_c, 9, 42, 0
6, 7809, Note_on_c, 9, 36, 0
6, 7830, Note_on_c, 9, 42, 79
6, 7835, Note_on_c, 9, 42, 0
6, 7860, Note_on_c, 9, 40, 127
6, 7860, Note_on_c, 9, 42, 65
6, 7865, Note_on_c, 9, 42, 0
6, 7865, Note_on_c, 9, 40, 0
6, 7890, Note_on_c, 9, 36, 127
6, 7890, Note_on_c, 9, 42, 63
6, 7899, Note_on_c, 9, 42, 0
6, 7899, Note_on_c, 9, 36, 0
6, 7920, Note_on_c, 9, 42, 67
6, 7925, Note_on_c, 9, 42, 0
6, 7950, Note_on_c, 9, 42, 56
6, 7955, Note_on_c, 9, 42, 0
6, 7980, Note_on_c, 9, 40, 127
6, 7980, Note_on_c, 9, 42, 124
6, 7985, Note_on_c, 9, 42, 0
6, 7985, Note_on_c, 9, 40, 0
6, 8010, Note_on_c, 9, 42, 44
6, 8010, Note_on_c, 9, 44, 64
6, 8020, Note_on_c, 9, 44, 0
6, 8020, Note_on_c, 9, 42, 0
6, 8040, Note_on_c, 9, 42, 58
6, 8045, Note_on_c, 9, 42, 0
6, 8070, Note_on_c, 9, 36, 124
6, 8070, Note_on_c, 9, 42, 62
6, 8079, Note_on_c, 9, 42, 0
6, 8079, Note_on_c, 9, 36, 0
6, 8100, Note_on_c, 9, 40, 127
6, 8100, Note_on_c, 9, 42, 77
6, 8105, Note_on_c, 9, 42, 0
6, 8105, Note_on_c, 9, 40, 0
6, 8130, Note_on_c, 9, 36, 121
6, 8130, Note_on_c, 9, 42, 52
6, 8138, Note_on_c, 9, 42, 0
6, 8138, Note_on_c, 9, 36, 0
6, 8160, Note_on_c, 9, 36, 127
6, 8160, Note_on_c, 9, 42, 80
6, 8165, Note_on_c, 9, 42, 0
6, 8165, Note_on_c, 9, 36, 0
6, 8190, Note_on_c, 9, 42, 46
6, 8195, Note_on_c, 9, 42, 0
6, 8220, Note_on_c, 9, 40, 127
6, 8220, Note_on_c, 9, 42, 71
6, 8225, Note_on_c, 9, 42, 0
6, 8225, Note_on_c, 9, 40, 0
6, 8250, Note_on_c, 9, 36, 102
6, 8250, Note_on_c, 9, 42, 43
6, 8255, Note_on_c, 9, 42, 0
6, 8255, Note_on_c, 9, 36, 0
6, 8280, Note_on_c, 9, 36, 114
6, 8280, Note_on_c, 9, 42, 64
6, 8285, Note_on_c, 9, 42, 0
6, 8285, Note_on_c, 9, 36, 0
6, 8310, Note_on_c, 9, 42, 55
6, 8315, Note_on_c, 9, 42, 0
6, 8340, Note_on_c, 9, 40, 127
6, 8340, Note_on_c, 9, 42, 69
6, 8345, Note_on_c, 9, 42, 0
6, 8345, Note_on_c, 9, 40, 0
6, 8370, Note_on_c, 9, 36, 127
6, 8370, Note_on_c, 9, 42, 51
6, 8375, Note_on_c, 9, 42, 0
6, 8375, Note_on_c, 9, 36, 0
6, 8400, Note_on_c, 9, 42, 75
6, 8405, Note_on_c, 9, 42, 0
6, 8430, Note_on_c, 9, 42, 63
6, 8430, Note_on_c, 9, 44, 70
6, 8435, Note_on_c, 9, 44, 0
6, 8435, Note_on_c, 9, 42, 0
6, 8460, Note_on_c, 9, 40, 127
6, 8460, Note_on_c, 9, 42, 61
6, 8465, Note_on_c, 9, 42, 0
6, 8465, Note_on_c, 9, 40, 0
6, 8490, Note_on_c, 9, 42, 52
6, 8495, Note_on_c, 9, 42, 0
6, 8520, Note_on_c, 9, 42, 74
6, 8530, Note_on_c, 9, 42, 0
6, 8550, Note_on_c, 9, 36, 80
6, 8550, Note_on_c, 9, 42, 93
6, 8555, Note_on_c, 9, 42, 0
6, 8555, Note_on_c, 9, 36, 0
6, 8580, Note_on_c, 9, 40, 127
6, 8580, Note_on_c, 9, 42, 101
6, 8585, Note_on_c, 9, 42, 0
6, 8585, Note_on_c, 9, 40, 0
6, 8610, Note_on_c, 9, 36, 112
6, 8610, Note_on_c, 9, 42, 59
6, 8610, Note_on_c, 9, 44, 69
6, 8618, Note_on_c, 9, 44, 0
6, 8618, Note_on_c, 9, 42, 0
6, 8618, Note_on_c, 9, 36, 0
6, 8640, Note_on_c, 9, 36, 86
6, 8640, Note_on_c, 9, 42, 74
6, 8645, Note_on_c, 9, 42, 0
6, 8645, Note_on_c, 9, 36, 0
6, 8670, Note_on_c, 9, 42, 61
6, 8675, Note_on_c, 9, 42, 0
6, 8700, Note_on_c, 9, 40, 127
6, 8700, Note_on_c, 9, 42, 78
6, 8705, Note_on_c, 9, 42, 0
6, 8705, Note_on_c, 9, 40, 0
6, 8730, Note_on_c, 9, 36, 103
6, 8730, Note_on_c, 9, 42, 70
6, 8735, Note_on_c, 9, 42, 0
6, 8735, Note_on_c, 9, 36, 0
6, 8760, Note_on_c, 9, 36, 119
6, 8760, Note_on_c, 9, 42, 66
6, 8765, Note_on_c, 9, 42, 0
6, 8765, Note_on_c, 9, 36, 0
6, 8790, Note_on_c, 9, 42, 79
6, 8795, Note_on_c, 9, 42, 0
6, 8820, Note_on_c, 9, 40, 127
6, 8820, Note_on_c, 9, 42, 65
6, 8825, Note_on_c, 9, 42, 0
6, 8825, Note_on_c, 9, 40, 0
6, 8850, Note_on_c, 9, 36, 127
6, 8850, Note_on_c, 9, 42, 63
6, 8858, Note_on_c, 9, 42, 0
6, 8858, Note_on_c, 9, 36, 0
6, 8880, Note_on_c, 9, 42, 67
6, 8885, Note_on_c, 9, 42, 0
6, 8910, Note_on_c, 9, 42, 56
6, 8915, Note_on_c, 9, 42, 0
6, 8940, Note_on_c, 9, 40, 127
6, 8940, Note_on_c, 9, 42, 124
6, 8945, Note_on_c, 9, 42, 0
6, 8945, Note_on_c, 9, 40, 0
6, 8970, Note_on_c, 9, 42, 44
6, 8970, Note_on_c, 9, 44, 64
6, 8975, Note_on_c, 9, 44, 0
6, 8975, Note_on_c, 9, 42, 0
6, 9000, Note_on_c, 9, 42, 58
6, 9005, Note_on_c, 9, 42, 0
6, 9030, Note_on_c, 9, 36, 124
6, 9030, Note_on_c, 9, 42, 62
6, 9035, Note_on_c, 9, 42, 0
6, 9035, Note_on_c, 9, 36, 0
6, 9060, Note_on_c, 9, 40, 127
6, 9060, Note_on_c, 9, 42, 77
6, 9065, Note_on_c, 9, 42, 0
6, 9065, Note_on_c, 9, 40, 0
6, 9090, Note_on_c, 9, 36, 121
6, 9090, Note_on_c, 9, 42, 52
6, 9095, Note_on_c, 9, 42, 0
6, 9095, Note_on_c, 9, 36, 0
6, 9120, Note_on_c, 9, 36, 127
6, 9120, Note_on_c, 9, 42, 93
6, 9127, Note_on_c, 9, 42, 0
6, 9127, Note_on_c, 9, 36, 0
6, 9150, Note_on_c, 9, 42, 46
6, 9150, Note_on_c, 9, 46, 38
6, 9156, Note_on_c, 9, 46, 0
6, 9156, Note_on_c, 9, 42, 0
6, 9180, Note_on_c, 9, 40, 127
6, 9180, Note_on_c, 9, 42, 84
6, 9191, Note_on_c, 9, 42, 0
6, 9191, Note_on_c, 9, 40, 0
6, 9210, Note_on_c, 9, 36, 102
6, 9210, Note_on_c, 9, 42, 43
6, 9210, Note_on_c, 9, 46, 42
6, 9221, Note_on_c, 9, 46, 0
6, 9221, Note_on_c, 9, 42, 0
6, 9221, Note_on_c, 9, 36, 0
6, 9240, Note_on_c, 9, 36, 114
6, 9240, Note_on_c, 9, 42, 60
6, 9245, Note_on_c, 9, 42, 0
6, 9245, Note_on_c, 9, 36, 0
6, 9270, Note_on_c, 9, 42, 55
6, 9270, Note_on_c, 9, 46, 39
6, 9280, Note_on_c, 9, 46, 0
6, 9280, Note_on_c, 9, 42, 0
6, 9300, Note_on_c, 9, 40, 127
6, 9300, Note_on_c, 9, 42, 62
6, 9305, Note_on_c, 9, 42, 0
6, 9305, Note_on_c, 9, 40, 0
6, 9330, Note_on_c, 9, 36, 127
6, 9330, Note_on_c, 9, 42, 51
6, 9330, Note_on_c, 9, 46, 43
6, 9341, Note_on_c, 9, 46, 0
6, 9341, Note_on_c, 9, 42, 0
6, 9341, Note_on_c, 9, 36, 0
6, 9360, Note_on_c, 9, 42, 66
6, 9365, Note_on_c, 9, 42, 0
6, 9390, Note_on_c, 9, 42, 63
6, 9390, Note_on_c, 9, 44, 70
6, 9390, Note_on_c, 9, 46, 38
6, 9395, Note_on_c, 9, 46, 0
6, 9395, Note_on_c, 9, 44, 0
6, 9395, Note_on_c, 9, 42, 0
6, 9420, Note_on_c, 9, 40, 127
6, 9420, Note_on_c, 9, 42, 91
6, 9425, Note_on_c, 9, 42, 0
6, 9425, Note_on_c, 9, 40, 0
6, 9450, Note_on_c, 9, 42, 52
6, 9450, Note_on_c, 9, 46, 45
6, 9455, Note_on_c, 9, 46, 0
6, 9455, Note_on_c, 9, 42, 0
6, 9480, Note_on_c, 9, 42, 64
6, 9485, Note_on_c, 9, 42, 0
6, 9510, Note_on_c, 9, 36, 80
6, 9510, Note_on_c, 9, 42, 93
6, 9510, Note_on_c, 9, 46, 38
6, 9516, Note_on_c, 9, 46, 0
6, 9516, Note_on_c, 9, 42, 0
6, 9516, Note_on_c, 9, 36, 0
6, 9540, Note_on_c, 9, 40, 127
6, 9540, Note_on_c, 9, 42, 70
6, 9545, Note_on_c, 9, 42, 0
6, 9545, Note_on_c, 9, 40, 0
6, 9570, Note_on_c, 9, 36, 112
6, 9570, Note_on_c, 9, 42, 59
6, 9570, Note_on_c, 9, 44, 69
6, 9570, Note_on_c, 9, 46, 38
6, 9575, Note_on_c, 9, 46, 0
6, 9575, Note_on_c, 9, 36, 0
6, 9575, Note_on_c, 9, 42, 0
6, 9575, Note_on_c, 9, 44, 0
6, 9600, Note_on_c, 9, 36, 86
6, 9600, Note_on_c, 9, 42, 84
6, 9605, Note_on_c, 9, 42, 0
6, 9605, Note_on_c, 9, 36, 0
6, 9630, Note_on_c, 9, 42, 61
6, 9630, Note_on_c, 9, 46, 41
6, 9635, Note_on_c, 9, 46, 0
6, 9635, Note_on_c, 9, 42, 0
6, 9660, Note_on_c, 9, 40, 127
6, 9660, Note_on_c, 9, 42, 67
6, 9665, Note_on_c, 9, 42, 0
6, 9665, Note_on_c, 9, 40, 0
6, 9690, Note_on_c, 9, 36, 103
6, 9690, Note_on_c, 9, 42, 70
6, 9690, Note_on_c, 9, 46, 38
6, 9695, Note_on_c, 9, 46, 0
6, 9695, Note_on_c, 9, 42, 0
6, 9695, Note_on_c, 9, 36, 0
6, 9720, Note_on_c, 9, 36, 119
6, 9720, Note_on_c, 9, 42, 83
6, 9725, Note_on_c, 9, 42, 0
6, 9725, Note_on_c, 9, 36, 0
6, 9750, Note_on_c, 9, 42, 79
6, 9750, Note_on_c, 9, 46, 43
6, 9755, Note_on_c, 9, 46, 0
6, 9755, Note_on_c, 9, 42, 0
6, 9780, Note_on_c, 9, 40, 127
6, 9780, Note_on_c, 9, 42, 88
6, 9785, Note_on_c, 9, 42, 0
6, 9785, Note_on_c, 9, 40, 0
6, 9810, Note_on_c, 9, 36, 127
6, 9810, Note_on_c, 9, 42, 63
6, 9810, Note_on_c, 9, 46, 43
6, 9815, Note_on_c, 9, 46, 0
6, 9815, Note_on_c, 9, 42, 0
6, 9815, Note_on_c, 9, 36, 0
6, 9840, Note_on_c, 9, 42, 91
6, 9849, Note_on_c, 9, 42, 0
6, 9870, Note_on_c, 9, 42, 56
6, 9870, Note_on_c, 9, 46, 47
6, 9875, Note_on_c, 9, 46, 0
6, 9875, Note_on_c, 9, 42, 0
6, 9900, Note_on_c, 9, 40, 127
6, 9900, Note_on_c, 9, 42, 71
6, 9909, Note_on_c, 9, 42, 0
6, 9909, Note_on_c, 9, 40, 0
6, 9930, Note_on_c, 9, 42, 44
6, 9930, Note_on_c, 9, 44, 64
6, 9930, Note_on_c, 9, 46, 41
6, 9944, Note_on_c, 9, 46, 0
6, 9944, Note_on_c, 9, 44, 0
6, 9944, Note_on_c, 9, 42, 0
6, 9960, Note_on_c, 9, 42, 65
6, 9965, Note_on_c, 9, 42, 0
6, 9990, Note_on_c, 9, 36, 124
6, 9990, Note_on_c, 9, 42, 62
6, 9990, Note_on_c, 9, 46, 40
6, 10003, Note_on_c, 9, 46, 0
6, 10003, Note_on_c, 9, 42, 0
6, 10003, Note_on_c, 9, 36, 0
6, 10020, Note_on_c, 9, 40, 127
6, 10020, Note_on_c, 9, 42, 71
6, 10025, Note_on_c, 9, 42, 0
6, 10025, Note_on_c, 9, 40, 0
6, 10050, Note_on_c, 9, 36, 121
6, 10050, Note_on_c, 9, 42, 52
6, 10050, Note_on_c, 9, 46, 48
6, 10060, Note_on_c, 9, 46, 0
6, 10060, Note_on_c, 9, 42, 0
6, 10060, Note_on_c, 9, 36, 0
6, 10080, Note_on_c, 9, 36, 127
6, 10080, Note_on_c, 9, 42, 93
6, 10085, Note_on_c, 9, 42, 0
6, 10085, Note_on_c, 9, 36, 0
6, 10110, Note_on_c, 9, 42, 46
6, 10110, Note_on_c, 9, 46, 38
6, 10116, Note_on_c, 9, 46, 0
6, 10116, Note_on_c, 9, 42, 0
6, 10140, Note_on_c, 9, 40, 127
6, 10140, Note_on_c, 9, 42, 84
6, 10145, Note_on_c, 9, 42, 0
6, 10145, Note_on_c, 9, 40, 0
6, 10170, Note_on_c, 9, 36, 102
6, 10170, Note_on_c, 9, 42, 43
6, 10170, Note_on_c, 9, 46, 42
6, 10175, Note_on_c, 9, 46, 0
6, 10175, Note_on_c, 9, 42, 0
6, 10175, Note_on_c, 9, 36, 0
6, 10200, Note_on_c, 9, 36, 114
6, 10200, Note_on_c, 9, 42, 60
6, 10205, Note_on_c, 9, 42, 0
6, 10205, Note_on_c, 9, 36, 0
6, 10230, Note_on_c, 9, 42, 55
6, 10230, Note_on_c, 9, 46, 39
6, 10235, Note_on_c, 9, 46, 0
6, 10235, Note_on_c, 9, 42, 0
6, 10260, Note_on_c, 9, 40, 127
6, 10260, Note_on_c, 9, 42, 62
6, 10265, Note_on_c, 9, 42, 0
6, 10265, Note_on_c, 9, 40, 0
6, 10290, Note_on_c, 9, 36, 127
6, 10290, Note_on_c, 9, 42, 51
6, 10290, Note_on_c, 9, 46, 43
6, 10295, Note_on_c, 9, 46, 0
6, 10295, Note_on_c, 9, 42, 0
6, 10295, Note_on_c, 9, 36, 0
6, 10320, Note_on_c, 9, 42, 66
6, 10325, Note_on_c, 9, 42, 0
6, 10350, Note_on_c, 9, 42, 63
6, 10350, Note_on_c, 9, 44, 70
6, 10350, Note_on_c, 9, 46, 38
6, 10355, Note_on_c, 9, 46, 0
6, 10355, Note_on_c, 9, 44, 0
6, 10355, Note_on_c, 9, 42, 0
6, 10380, Note_on_c, 9, 40, 127
6, 10380, Note_on_c, 9, 42, 91
6, 10385, Note_on_c, 9, 42, 0
6, 10385, Note_on_c, 9, 40, 0
6, 10410, Note_on_c, 9, 42, 52
6, 10410, Note_on_c, 9, 46, 45
6, 10416, Note_on_c, 9, 46, 0
6, 10416, Note_on_c, 9, 42, 0
6, 10440, Note_on_c, 9, 42, 64
6, 10445, Note_on_c, 9, 42, 0
6, 10470, Note_on_c, 9, 36, 80
6, 10470, Note_on_c, 9, 42, 93
6, 10470, Note_on_c, 9, 46, 38
6, 10475, Note_on_c, 9, 46, 0
6, 10475, Note_on_c, 9, 42, 0
6, 10475, Note_on_c, 9, 36, 0
6, 10500, Note_on_c, 9, 40, 127
6, 10500, Note_on_c, 9, 42, 70
6, 10505, Note_on_c, 9, 42, 0
6, 10505, Note_on_c, 9, 40, 0
6, 10530, Note_on_c, 9, 36, 112
6, 10530, Note_on_c, 9, 42, 59
6, 10530, Note_on_c, 9, 44, 69
6, 10530, Note_on_c, 9, 46, 38
6, 10535, Note_on_c, 9, 46, 0
6, 10535, Note_on_c, 9, 36, 0
6, 10535, Note_on_c, 9, 42, 0
6, 10535, Note_on_c, 9, 44, 0
6, 10560, Note_on_c, 9, 36, 86
6, 10560, Note_on_c, 9, 42, 84
6, 10565, Note_on_c, 9, 42, 0
6, 10565, Note_on_c, 9, 36, 0
6, 10590, Note_on_c, 9, 42, 61
6, 10590, Note_on_c, 9, 46, 41
6, 10595, Note_on_c, 9, 46, 0
6, 10595, Note_on_c, 9, 42, 0
6, 10620, Note_on_c, 9, 40, 127
6, 10620, Note_on_c, 9, 42, 67
6, 10625, Note_on_c, 9, 42, 0
6, 10625, Note_on_c, 9, 40, 0
6, 10650, Note_on_c, 9, 36, 103
6, 10650, Note_on_c, 9, 42, 70
6, 10650, Note_on_c, 9, 46, 38
6, 10655, Note_on_c, 9, 46, 0
6, 10655, Note_on_c, 9, 42, 0
6, 10655, Note_on_c, 9, 36, 0
6, 10680, Note_on_c, 9, 36, 119
6, 10680, Note_on_c, 9, 42, 83
6, 10685, Note_on_c, 9, 42, 0
6, 10685, Note_on_c, 9, 36, 0
6, 10710, Note_on_c, 9, 42, 79
6, 10710, Note_on_c, 9, 46, 43
6, 10715, Note_on_c, 9, 46, 0
6, 10715, Note_on_c, 9, 42, 0
6, 10740, Note_on_c, 9, 40, 127
6, 10740, Note_on_c, 9, 42, 88
6, 10745, Note_on_c, 9, 42, 0
6, 10745, Note_on_c, 9, 40, 0
6, 10770, Note_on_c, 9, 36, 127
6, 10770, Note_on_c, 9, 42, 63
6, 10770, Note_on_c, 9, 46, 43
6, 10775, Note_on_c, 9, 46, 0
6, 10775, Note_on_c, 9, 42, 0
6, 10775, Note_on_c, 9, 36, 0
6, 10800, Note_on_c, 9, 42, 91
6, 10808, Note_on_c, 9, 42, 0
6, 10830, Note_on_c, 9, 42, 56
6, 10830, Note_on_c, 9, 46, 47
6, 10835, Note_on_c, 9, 46, 0
6, 10835, Note_on_c, 9, 42, 0
6, 10860, Note_on_c, 9, 40, 127
6, 10860, Note_on_c, 9, 42, 71
6, 10870, Note_on_c, 9, 42, 0
6, 10870, Note_on_c, 9, 40, 0
6, 10890, Note_on_c, 9, 42, 44
6, 10890, Note_on_c, 9, 44, 64
6, 10890, Note_on_c, 9, 46, 41
6, 10905, Note_on_c, 9, 46, 0
6, 10905, Note_on_c, 9, 44, 0
6, 10905, Note_on_c, 9, 42, 0
6, 10920, Note_on_c, 9, 42, 65
6, 10925, Note_on_c, 9, 42, 0
6, 10950, Note_on_c, 9, 36, 124
6, 10950, Note_on_c, 9, 42, 62
6, 10950, Note_on_c, 9, 46, 40
6, 10965, Note_on_c, 9, 46, 0
6, 10965, Note_on_c, 9, 42, 0
6, 10965, Note_on_c, 9, 36, 0
6, 10980, Note_on_c, 9, 40, 127
6, 10980, Note_on_c, 9, 42, 71
6, 10985, Note_on_c, 9, 42, 0
6, 10985, Note_on_c, 9, 40, 0
6, 11010, Note_on_c, 9, 36, 121
6, 11010, Note_on_c, 9, 42, 52
6, 11010, Note_on_c, 9, 46, 48
6, 11018, Note_on_c, 9, 46, 0
6, 11018, Note_on_c, 9, 42, 0
6, 11018, Note_on_c, 9, 36, 0
6, 11040, Note_on_c, 9, 36, 127
6, 11040, Note_on_c, 9, 42, 77
6, 11045, Note_on_c, 9, 42, 0
6, 11045, Note_on_c, 9, 36, 0
6, 11070, Note_on_c, 9, 42, 46
6, 11070, Note_on_c, 9, 46, 38
6, 11075, Note_on_c, 9, 46, 0
6, 11075, Note_on_c, 9, 42, 0
6, 11100, Note_on_c, 9, 40, 127
6, 11100, Note_on_c, 9, 42, 74
6, 11105, Note_on_c, 9, 42, 0
6, 11105, Note_on_c, 9, 40, 0
6, 11130, Note_on_c, 9, 36, 102
6, 11130, Note_on_c, 9, 42, 43
6, 11130, Note_on_c, 9, 46, 42
6, 11135, Note_on_c, 9, 46, 0
6, 11135, Note_on_c, 9, 42, 0
6, 11135, Note_on_c, 9, 36, 0
6, 11160, Note_on_c, 9, 36, 114
6, 11160, Note_on_c, 9, 42, 76
6, 11165, Note_on_c, 9, 42, 0
6, 11165, Note_on_c, 9, 36, 0
6, 11190, Note_on_c, 9, 42, 55
6, 11190, Note_on_c, 9, 46, 39
6, 11195, Note_on_c, 9, 46, 0
6, 11195, Note_on_c, 9, 42, 0
6, 11220, Note_on_c, 9, 40, 127
6, 11220, Note_on_c, 9, 42, 71
6, 11225, Note_on_c, 9, 42, 0
6, 11225, Note_on_c, 9, 40, 0
6, 11250, Note_on_c, 9, 36, 127
6, 11250, Note_on_c, 9, 42, 51
6, 11250, Note_on_c, 9, 46, 43
6, 11255, Note_on_c, 9, 46, 0
6, 11255, Note_on_c, 9, 42, 0
6, 11255, Note_on_c, 9, 36, 0
6, 11280, Note_on_c, 9, 42, 67
6, 11288, Note_on_c, 9, 42, 0
6, 11310, Note_on_c, 9, 44, 70
6, 11310, Note_on_c, 9, 46, 38
6, 11315, Note_on_c, 9, 46, 0
6, 11315, Note_on_c, 9, 44, 0
6, 11340, Note_on_c, 9, 40, 127
6, 11340, Note_on_c, 9, 42, 71
6, 11348, Note_on_c, 9, 42, 0
6, 11348, Note_on_c, 9, 40, 0
6, 11370, Note_on_c, 9, 42, 52
6, 11370, Note_on_c, 9, 46, 45
6, 11378, Note_on_c, 9, 46, 0
6, 11378, Note_on_c, 9, 42, 0
6, 11400, Note_on_c, 9, 42, 74
6, 11405, Note_on_c, 9, 42, 0
6, 11430, Note_on_c, 9, 36, 80
6, 11430, Note_on_c, 9, 42, 93
6, 11430, Note_on_c, 9, 46, 101
6, 11437, Note_on_c, 9, 46, 0
6, 11437, Note_on_c, 9, 42, 0
6, 11437, Note_on_c, 9, 36, 0
6, 11460, Note_on_c, 9, 40, 127
6, 11460, Note_on_c, 9, 42, 83
6, 11466, Note_on_c, 9, 42, 0
6, 11466, Note_on_c, 9, 40, 0
6, 11490, Note_on_c, 9, 49, 105
6, 11490, Note_on_c, 9, 36, 112
6, 11490, Note_on_c, 9, 42, 59
6, 11503, Note_on_c, 9, 36, 0
6, 11503, Note_on_c, 9, 49, 0
6, 11504, Note_on_c, 9, 42, 0
6, 11520, Note_on_c, 9, 36, 86
6, 11520, Note_on_c, 9, 42, 76
6, 11524, Note_on_c, 9, 36, 0
6, 11525, Note_on_c, 9, 42, 0
6, 11550, Note_on_c, 9, 42, 61
6, 11555, Note_on_c, 9, 42, 0
6, 11580, Note_on_c, 9, 40, 127
6, 11580, Note_on_c, 9, 42, 78
6, 11585, Note_on_c, 9, 42, 0
6, 11585, Note_on_c, 9, 40, 0
6, 11610, Note_on_c, 9, 36, 103
6, 11610, Note_on_c, 9, 42, 70
6, 11610, Note_on_c, 9, 46, 38
6, 11615, Note_on_c, 9, 46, 0
6, 11615, Note_on_c, 9, 42, 0
6, 11615, Note_on_c, 9, 36, 0
6, 11640, Note_on_c, 9, 42, 74
6, 11645, Note_on_c, 9, 42, 0
6, 11670, Note_on_c, 9, 36, 127
6, 11670, Note_on_c, 9, 42, 79
6, 11670, Note_on_c, 9, 46, 99
6, 11676, Note_on_c, 9, 46, 0
6, 11676, Note_on_c, 9, 42, 0
6, 11676, Note_on_c, 9, 36, 0
6, 11700, Note_on_c, 9, 40, 127
6, 11700, Note_on_c, 9, 42, 74
6, 11705, Note_on_c, 9, 42, 0
6, 11705, Note_on_c, 9, 40, 0
6, 11730, Note_on_c, 9, 49, 89
6, 11730, Note_on_c, 9, 36, 127
6, 11739, Note_on_c, 9, 36, 0
6, 11739, Note_on_c, 9, 49, 0
6, 11760, Note_on_c, 9, 42, 74
6, 11765, Note_on_c, 9, 42, 0
6, 11790, Note_on_c, 9, 42, 56
6, 11790, Note_on_c, 9, 44, 80
6, 11790, Note_on_c, 9, 46, 47
6, 11796, Note_on_c, 9, 46, 0
6, 11796, Note_on_c, 9, 44, 0
6, 11796, Note_on_c, 9, 42, 0
6, 11820, Note_on_c, 9, 40, 127
6, 11820, Note_on_c, 9, 42, 74
6, 11825, Note_on_c, 9, 42, 0
6, 11825, Note_on_c, 9, 40, 0
6, 11850, Note_on_c, 9, 42, 44
6, 11850, Note_on_c, 9, 44, 64
6, 11850, Note_on_c, 9, 46, 41
6, 11855, Note_on_c, 9, 46, 0
6, 11855, Note_on_c, 9, 44, 0
6, 11855, Note_on_c, 9, 42, 0
6, 11880, Note_on_c, 9, 42, 76
6, 11885, Note_on_c, 9, 42, 0
6, 11910, Note_on_c, 9, 36, 124
6, 11910, Note_on_c, 9, 42, 62
6, 11910, Note_on_c, 9, 46, 76
6, 11917, Note_on_c, 9, 46, 0
6, 11917, Note_on_c, 9, 42, 0
6, 11917, Note_on_c, 9, 36, 0
6, 11940, Note_on_c, 9, 40, 127
6, 11940, Note_on_c, 9, 42, 77
6, 11945, Note_on_c, 9, 42, 0
6, 11945, Note_on_c, 9, 40, 0
6, 11970, Note_on_c, 9, 49, 127
6, 11970, Note_on_c, 9, 36, 121
6, 11978, Note_on_c, 9, 49, 0
6, 11979, Note_on_c, 9, 36, 0
6, 12000, Note_on_c, 9, 42, 95
6, 12005, Note_on_c, 9, 42, 0
6, 12030, Note_on_c, 9, 42, 54
6, 12035, Note_on_c, 9, 42, 0
6, 12060, Note_on_c, 9, 40, 127
6, 12060, Note_on_c, 9, 42, 60
6, 12065, Note_on_c, 9, 42, 0
6, 12065, Note_on_c, 9, 40, 0
6, 12090, Note_on_c, 9, 36, 86
6, 12090, Note_on_c, 9, 42, 53
6, 12095, Note_on_c, 9, 42, 0
6, 12095, Note_on_c, 9, 36, 0
6, 12120, Note_on_c, 9, 36, 110
6, 12120, Note_on_c, 9, 42, 66
6, 12125, Note_on_c, 9, 42, 0
6, 12125, Note_on_c, 9, 36, 0
6, 12150, Note_on_c, 9, 42, 49
6, 12155, Note_on_c, 9, 42, 0
6, 12180, Note_on_c, 9, 40, 127
6, 12180, Note_on_c, 9, 42, 71
6, 12185, Note_on_c, 9, 42, 0
6, 12185, Note_on_c, 9, 40, 0
6, 12210, Note_on_c, 9, 36, 127
6, 12210, Note_on_c, 9, 42, 47
6, 12215, Note_on_c, 9, 42, 0
6, 12215, Note_on_c, 9, 36, 0
6, 12240, Note_on_c, 9, 42, 63
6, 12245, Note_on_c, 9, 42, 0
6, 12270, Note_on_c, 9, 42, 35
6, 12275, Note_on_c, 9, 42, 0
6, 12300, Note_on_c, 9, 40, 127
6, 12300, Note_on_c, 9, 42, 63
6, 12305, Note_on_c, 9, 42, 0
6, 12305, Note_on_c, 9, 40, 0
6, 12330, Note_on_c, 9, 42, 65
6, 12334, Note_on_c, 9, 42, 0
6, 12360, Note_on_c, 9, 42, 66
6, 12365, Note_on_c, 9, 42, 0
6, 12390, Note_on_c, 9, 36, 127
6, 12390, Note_on_c, 9, 42, 78
6, 12395, Note_on_c, 9, 42, 0
6, 12395, Note_on_c, 9, 36, 0
6, 12420, Note_on_c, 9, 40, 127
6, 12420, Note_on_c, 9, 42, 69
6, 12425, Note_on_c, 9, 42, 0
6, 12425, Note_on_c, 9, 40, 0
6, 12450, Note_on_c, 9, 42, 67
6, 12455, Note_on_c, 9, 42, 0
6, 12480, Note_on_c, 9, 36, 127
6, 12480, Note_on_c, 9, 42, 80
6, 12487, Note_on_c, 9, 42, 0
6, 12487, Note_on_c, 9, 36, 0
6, 12510, Note_on_c, 9, 42, 46
6, 12515, Note_on_c, 9, 42, 0
6, 12540, Note_on_c, 9, 40, 127
6, 12540, Note_on_c, 9, 42, 71
6, 12551, Note_on_c, 9, 42, 0
6, 12551, Note_on_c, 9, 40, 0
6, 12570, Note_on_c, 9, 36, 102
6, 12570, Note_on_c, 9, 42, 43
6, 12581, Note_on_c, 9, 42, 0
6, 12581, Note_on_c, 9, 36, 0
6, 12600, Note_on_c, 9, 36, 114
6, 12600, Note_on_c, 9, 42, 64
6, 12605, Note_on_c, 9, 42, 0
6, 12605, Note_on_c, 9, 36, 0
6, 12630, Note_on_c, 9, 42, 55
6, 12638, Note_on_c, 9, 42, 0
6, 12660, Note_on_c, 9, 40, 127
6, 12660, Note_on_c, 9, 42, 69
6, 12665, Note_on_c, 9, 42, 0
6, 12665, Note_on_c, 9, 40, 0
6, 12690, Note_on_c, 9, 36, 127
6, 12690, Note_on_c, 9, 42, 51
6, 12702, Note_on_c, 9, 42, 0
6, 12702, Note_on_c, 9, 36, 0
6, 12720, Note_on_c, 9, 42, 75
6, 12725, Note_on_c, 9, 42, 0
6, 12750, Note_on_c, 9, 42, 63
6, 12750, Note_on_c, 9, 44, 70
6, 12755, Note_on_c, 9, 44, 0
6, 12755, Note_on_c, 9, 42, 0
6, 12780, Note_on_c, 9, 40, 127
6, 12780, Note_on_c, 9, 42, 61
6, 12785, Note_on_c, 9, 42, 0
6, 12785, Note_on_c, 9, 40, 0
6, 12810, Note_on_c, 9, 42, 52
6, 12815, Note_on_c, 9, 42, 0
6, 12840, Note_on_c, 9, 42, 74
6, 12845, Note_on_c, 9, 42, 0
6, 12870, Note_on_c, 9, 36, 80
6, 12870, Note_on_c, 9, 42, 93
6, 12875, Note_on_c, 9, 42, 0
6, 12875, Note_on_c, 9, 36, 0
6, 12900, Note_on_c, 9, 40, 127
6, 12900, Note_on_c, 9, 42, 101
6, 12905, Note_on_c, 9, 42, 0
6, 12905, Note_on_c, 9, 40, 0
6, 12930, Note_on_c, 9, 36, 112
6, 12930, Note_on_c, 9, 42, 59
6, 12930, Note_on_c, 9, 44, 69
6, 12935, Note_on_c, 9, 44, 0
6, 12935, Note_on_c, 9, 42, 0
6, 12935, Note_on_c, 9, 36, 0
6, 12960, Note_on_c, 9, 36, 86
6, 12960, Note_on_c, 9, 42, 74
6, 12965, Note_on_c, 9, 42, 0
6, 12965, Note_on_c, 9, 36, 0
6, 12990, Note_on_c, 9, 42, 61
6, 12995, Note_on_c, 9, 42, 0
6, 13020, Note_on_c, 9, 40, 127
6, 13020, Note_on_c, 9, 42, 78
6, 13025, Note_on_c, 9, 42, 0
6, 13025, Note_on_c, 9, 40, 0
6, 13050, Note_on_c, 9, 36, 103
6, 13050, Note_on_c, 9, 42, 70
6, 13055, Note_on_c, 9, 42, 0
6, 13055, Note_on_c, 9, 36, 0
6, 13080, Note_on_c, 9, 36, 119
6, 13080, Note_on_c, 9, 42, 66
6, 13091, Note_on_c, 9, 42, 0
6, 13091, Note_on_c, 9, 36, 0
6, 13110, Note_on_c, 9, 42, 79
6, 13118, Note_on_c, 9, 42, 0
6, 13140, Note_on_c, 9, 40, 127
6, 13140, Note_on_c, 9, 42, 65
6, 13145, Note_on_c, 9, 42, 0
6, 13145, Note_on_c, 9, 40, 0
6, 13170, Note_on_c, 9, 36, 127
6, 13170, Note_on_c, 9, 42, 63
6, 13178, Note_on_c, 9, 42, 0
6, 13178, Note_on_c, 9, 36, 0
6, 13200, Note_on_c, 9, 42, 67
6, 13205, Note_on_c, 9, 42, 0
6, 13230, Note_on_c, 9, 42, 56
6, 13235, Note_on_c, 9, 42, 0
6, 13260, Note_on_c, 9, 40, 127
6, 13260, Note_on_c, 9, 42, 124
6, 13265, Note_on_c, 9, 42, 0
6, 13265, Note_on_c, 9, 40, 0
6, 13290, Note_on_c, 9, 42, 44
6, 13290, Note_on_c, 9, 44, 64
6, 13304, Note_on_c, 9, 44, 0
6, 13304, Note_on_c, 9, 42, 0
6, 13320, Note_on_c, 9, 42, 58
6, 13325, Note_on_c, 9, 42, 0
6, 13350, Note_on_c, 9, 36, 124
6, 13350, Note_on_c, 9, 42, 62
6, 13356, Note_on_c, 9, 42, 0
6, 13356, Note_on_c, 9, 36, 0
6, 13380, Note_on_c, 9, 40, 127
6, 13380, Note_on_c, 9, 42, 77
6, 13385, Note_on_c, 9, 42, 0
6, 13385, Note_on_c, 9, 40, 0
6, 13410, Note_on_c, 9, 36, 121
6, 13410, Note_on_c, 9, 42, 52
6, 13418, Note_on_c, 9, 42, 0
6, 13418, Note_on_c, 9, 36, 0
6, 13440, Note_on_c, 9, 36, 127
6, 13440, Note_on_c, 9, 42, 80
6, 13445, Note_on_c, 9, 42, 0
6, 13445, Note_on_c, 9, 36, 0
6, 13470, Note_on_c, 9, 42, 46
6, 13475, Note_on_c, 9, 42, 0
6, 13500, Note_on_c, 9, 40, 127
6, 13500, Note_on_c, 9, 42, 71
6, 13505, Note_on_c, 9, 42, 0
6, 13505, Note_on_c, 9, 40, 0
6, 13530, Note_on_c, 9, 36, 102
6, 13530, Note_on_c, 9, 42, 43
6, 13535, Note_on_c, 9, 42, 0
6, 13535, Note_on_c, 9, 36, 0
6, 13560, Note_on_c, 9, 36, 114
6, 13560, Note_on_c, 9, 42, 64
6, 13565, Note_on_c, 9, 42, 0
6, 13565, Note_on_c, 9, 36, 0
6, 13590, Note_on_c, 9, 42, 55
6, 13595, Note_on_c, 9, 42, 0
6, 13620, Note_on_c, 9, 40, 127
6, 13620, Note_on_c, 9, 42, 69
6, 13625, Note_on_c, 9, 42, 0
6, 13625, Note_on_c, 9, 40, 0
6, 13650, Note_on_c, 9, 36, 127
6, 13650, Note_on_c, 9, 42, 51
6, 13655, Note_on_c, 9, 42, 0
6, 13655, Note_on_c, 9, 36, 0
6, 13680, Note_on_c, 9, 42, 75
6, 13685, Note_on_c, 9, 42, 0
6, 13710, Note_on_c, 9, 42, 63
6, 13710, Note_on_c, 9, 44, 70
6, 13715, Note_on_c, 9, 44, 0
6, 13715, Note_on_c, 9, 42, 0
6, 13740, Note_on_c, 9, 40, 127
6, 13740, Note_on_c, 9, 42, 61
6, 13745, Note_on_c, 9, 42, 0
6, 13745, Note_on_c, 9, 40, 0
6, 13770, Note_on_c, 9, 42, 52
6, 13775, Note_on_c, 9, 42, 0
6, 13800, Note_on_c, 9, 42, 74
6, 13813, Note_on_c, 9, 42, 0
6, 13830, Note_on_c, 9, 36, 80
6, 13830, Note_on_c, 9, 42, 93
6, 13835, Note_on_c, 9, 42, 0
6, 13835, Note_on_c, 9, 36, 0
6, 13860, Note_on_c, 9, 40, 127
6, 13860, Note_on_c, 9, 42, 101
6, 13866, Note_on_c, 9, 42, 0
6, 13866, Note_on_c, 9, 40, 0
6, 13890, Note_on_c, 9, 36, 112
6, 13890, Note_on_c, 9, 42, 59
6, 13890, Note_on_c, 9, 44, 69
6, 13899, Note_on_c, 9, 44, 0
6, 13899, Note_on_c, 9, 42, 0
6, 13899, Note_on_c, 9, 36, 0
6, 13920, Note_on_c, 9, 36, 86
6, 13920, Note_on_c, 9, 42, 74
6, 13925, Note_on_c, 9, 42, 0
6, 13925, Note_on_c, 9, 36, 0
6, 13950, Note_on_c, 9, 42, 61
6, 13955, Note_on_c, 9, 42, 0
6, 13980, Note_on_c, 9, 40, 127
6, 13980, Note_on_c, 9, 42, 78
6, 13985, Note_on_c, 9, 42, 0
6, 13985, Note_on_c, 9, 40, 0
6, 14010, Note_on_c, 9, 36, 103
6, 14010, Note_on_c, 9, 42, 70
6, 14015, Note_on_c, 9, 42, 0
6, 14015, Note_on_c, 9, 36, 0
6, 14040, Note_on_c, 9, 36, 119
6, 14040, Note_on_c, 9, 42, 66
6, 14045, Note_on_c, 9, 42, 0
6, 14045, Note_on_c, 9, 36, 0
6, 14070, Note_on_c, 9, 42, 79
6, 14075, Note_on_c, 9, 42, 0
6, 14100, Note_on_c, 9, 40, 127
6, 14100, Note_on_c, 9, 42, 65
6, 14105, Note_on_c, 9, 42, 0
6, 14105, Note_on_c, 9, 40, 0
6, 14130, Note_on_c, 9, 36, 127
6, 14130, Note_on_c, 9, 42, 63
6, 14135, Note_on_c, 9, 42, 0
6, 14135, Note_on_c, 9, 36, 0
6, 14160, Note_on_c, 9, 42, 67
6, 14165, Note_on_c, 9, 42, 0
6, 14190, Note_on_c, 9, 42, 56
6, 14195, Note_on_c, 9, 42, 0
6, 14220, Note_on_c, 9, 40, 127
6, 14220, Note_on_c, 9, 42, 124
6, 14225, Note_on_c, 9, 42, 0
6, 14225, Note_on_c, 9, 40, 0
6, 14250, Note_on_c, 9, 42, 44
6, 14250, Note_on_c, 9, 44, 64
6, 14255, Note_on_c, 9, 44, 0
6, 14255, Note_on_c, 9, 42, 0
6, 14280, Note_on_c, 9, 42, 58
6, 14285, Note_on_c, 9, 42, 0
6, 14310, Note_on_c, 9, 36, 124
6, 14310, Note_on_c, 9, 42, 62
6, 14315, Note_on_c, 9, 42, 0
6, 14315, Note_on_c, 9, 36, 0
6, 14340, Note_on_c, 9, 40, 127
6, 14340, Note_on_c, 9, 42, 77
6, 14345, Note_on_c, 9, 42, 0
6, 14345, Note_on_c, 9, 40, 0
6, 14370, Note_on_c, 9, 36, 121
6, 14370, Note_on_c, 9, 42, 52
6, 14375, Note_on_c, 9, 42, 0
6, 14375, Note_on_c, 9, 36, 0
6, 14400, Note_on_c, 9, 36, 127
6, 14400, Note_on_c, 9, 42, 80
6, 14406, Note_on_c, 9, 42, 0
6, 14406, Note_on_c, 9, 36, 0
6, 14430, Note_on_c, 9, 42, 46
6, 14435, Note_on_c, 9, 42, 0
6, 14460, Note_on_c, 9, 40, 127
6, 14460, Note_on_c, 9, 42, 71
6, 14471, Note_on_c, 9, 42, 0
6, 14471, Note_on_c, 9, 40, 0
6, 14490, Note_on_c, 9, 36, 102
6, 14490, Note_on_c, 9, 42, 43
6, 14501, Note_on_c, 9, 42, 0
6, 14501, Note_on_c, 9, 36, 0
6, 14520, Note_on_c, 9, 36, 114
6, 14520, Note_on_c, 9, 42, 64
6, 14524, Note_on_c, 9, 36, 0
6, 14525, Note_on_c, 9, 42, 0
6, 14550, Note_on_c, 9, 42, 55
6, 14558, Note_on_c, 9, 42, 0
6, 14580, Note_on_c, 9, 40, 127
6, 14580, Note_on_c, 9, 42, 69
6, 14584, Note_on_c, 9, 42, 0
6, 14584, Note_on_c, 9, 40, 0
6, 14610, Note_on_c, 9, 36, 127
6, 14610, Note_on_c, 9, 42, 51
6, 14623, Note_on_c, 9, 42, 0
6, 14623, Note_on_c, 9, 36, 0
6, 14640, Note_on_c, 9, 42, 75
6, 14645, Note_on_c, 9, 42, 0
6, 14670, Note_on_c, 9, 42, 63
6, 14670, Note_on_c, 9, 44, 70
6, 14675, Note_on_c, 9, 44, 0
6, 14675, Note_on_c, 9, 42, 0
6, 14700, Note_on_c, 9, 40, 127
6, 14700, Note_on_c, 9, 42, 61
6, 14705, Note_on_c, 9, 42, 0
6, 14705, Note_on_c, 9, 40, 0
6, 14730, Note_on_c, 9, 42, 52
6, 14735, Note_on_c, 9, 42, 0
6, 14760, Note_on_c, 9, 42, 74
6, 14765, Note_on_c, 9, 42, 0
6, 14790, Note_on_c, 9, 36, 80
6, 14790, Note_on_c, 9, 42, 93
6, 14795, Note_on_c, 9, 42, 0
6, 14795, Note_on_c, 9, 36, 0
6, 14820, Note_on_c, 9, 40, 127
6, 14820, Note_on_c, 9, 42, 101
6, 14825, Note_on_c, 9, 42, 0
6, 14825, Note_on_c, 9, 40, 0
6, 14850, Note_on_c, 9, 36, 112
6, 14850, Note_on_c, 9, 42, 59
6, 14850, Note_on_c, 9, 44, 69
6, 14855, Note_on_c, 9, 44, 0
6, 14855, Note_on_c, 9, 42, 0
6, 14855, Note_on_c, 9, 36, 0
6, 14880, Note_on_c, 9, 36, 86
6, 14880, Note_on_c, 9, 42, 74
6, 14885, Note_on_c, 9, 42, 0
6, 14885, Note_on_c, 9, 36, 0
6, 14910, Note_on_c, 9, 42, 61
6, 14915, Note_on_c, 9, 42, 0
6, 14940, Note_on_c, 9, 40, 127
6, 14940, Note_on_c, 9, 42, 78
6, 14944, Note_on_c, 9, 42, 0
6, 14944, Note_on_c, 9, 40, 0
6, 14970, Note_on_c, 9, 36, 103
6, 14970, Note_on_c, 9, 42, 70
6, 14975, Note_on_c, 9, 42, 0
6, 14975, Note_on_c, 9, 36, 0
6, 15000, Note_on_c, 9, 36, 119
6, 15000, Note_on_c, 9, 42, 66
6, 15009, Note_on_c, 9, 42, 0
6, 15009, Note_on_c, 9, 36, 0
6, 15030, Note_on_c, 9, 42, 79
6, 15037, Note_on_c, 9, 42, 0
6, 15060, Note_on_c, 9, 40, 127
6, 15060, Note_on_c, 9, 42, 65
6, 15065, Note_on_c, 9, 42, 0
6, 15065, Note_on_c, 9, 40, 0
6, 15090, Note_on_c, 9, 36, 127
6, 15090, Note_on_c, 9, 42, 63
6, 15097, Note_on_c, 9, 42, 0
6, 15097, Note_on_c, 9, 36, 0
6, 15120, Note_on_c, 9, 42, 67
6, 15125, Note_on_c, 9, 42, 0
6, 15150, Note_on_c, 9, 42, 56
6, 15155, Note_on_c, 9, 42, 0
6, 15180, Note_on_c, 9, 40, 127
6, 15180, Note_on_c, 9, 42, 124
6, 15185, Note_on_c, 9, 42, 0
6, 15185, Note_on_c, 9, 40, 0
6, 15210, Note_on_c, 9, 42, 44
6, 15210, Note_on_c, 9, 44, 64
6, 15220, Note_on_c, 9, 44, 0
6, 15220, Note_on_c, 9, 42, 0
6, 15240, Note_on_c, 9, 42, 58
6, 15245, Note_on_c, 9, 42, 0
6, 15270, Note_on_c, 9, 36, 124
6, 15270, Note_on_c, 9, 42, 62
6, 15280, Note_on_c, 9, 42, 0
6, 15280, Note_on_c, 9, 36, 0
6, 15300, Note_on_c, 9, 40, 127
6, 15300, Note_on_c, 9, 42, 77
6, 15305, Note_on_c, 9, 42, 0
6, 15305, Note_on_c, 9, 40, 0
6, 15330, Note_on_c, 9, 36, 121
6, 15330, Note_on_c, 9, 42, 52
6, 15337, Note_on_c, 9, 42, 0
6, 15337, Note_on_c, 9, 36, 0
6, 15360, Note_on_c, 9, 36, 127
6, 15360, Note_on_c, 9, 42, 80
6, 15365, Note_on_c, 9, 42, 0
6, 15365, Note_on_c, 9, 36, 0
6, 15390, Note_on_c, 9, 42, 46
6, 15395, Note_on_c, 9, 42, 0
6, 15420, Note_on_c, 9, 40, 127
6, 15420, Note_on_c, 9, 42, 71
6, 15425, Note_on_c, 9, 42, 0
6, 15425, Note_on_c, 9, 40, 0
6, 15450, Note_on_c, 9, 36, 102
6, 15450, Note_on_c, 9, 42, 43
6, 15455, Note_on_c, 9, 42, 0
6, 15455, Note_on_c, 9, 36, 0
6, 15480, Note_on_c, 9, 36, 114
6, 15480, Note_on_c, 9, 42, 64
6, 15485, Note_on_c, 9, 42, 0
6, 15485, Note_on_c, 9, 36, 0
6, 15510, Note_on_c, 9, 42, 55
6, 15515, Note_on_c, 9, 42, 0
6, 15540, Note_on_c, 9, 40, 127
6, 15540, Note_on_c, 9, 42, 69
6, 15545, Note_on_c, 9, 42, 0
6, 15545, Note_on_c, 9, 40, 0
6, 15570, Note_on_c, 9, 36, 127
6, 15570, Note_on_c, 9, 42, 51
6, 15575, Note_on_c, 9, 42, 0
6, 15575, Note_on_c, 9, 36, 0
6, 15600, Note_on_c, 9, 42, 75
6, 15605, Note_on_c, 9, 42, 0
6, 15630, Note_on_c, 9, 42, 63
6, 15630, Note_on_c, 9, 44, 70
6, 15635, Note_on_c, 9, 44, 0
6, 15635, Note_on_c, 9, 42, 0
6, 15660, Note_on_c, 9, 40, 127
6, 15660, Note_on_c, 9, 42, 61
6, 15665, Note_on_c, 9, 42, 0
6, 15665, Note_on_c, 9, 40, 0
6, 15690, Note_on_c, 9, 42, 52
6, 15695, Note_on_c, 9, 42, 0
6, 15720, Note_on_c, 9, 42, 74
6, 15733, Note_on_c, 9, 42, 0
6, 15750, Note_on_c, 9, 36, 80
6, 15750, Note_on_c, 9, 42, 93
6, 15755, Note_on_c, 9, 42, 0
6, 15755, Note_on_c, 9, 36, 0
6, 15780, Note_on_c, 9, 40, 127
6, 15780, Note_on_c, 9, 42, 101
6, 15785, Note_on_c, 9, 42, 0
6, 15785, Note_on_c, 9, 40, 0
6, 15810, Note_on_c, 9, 36, 112
6, 15810, Note_on_c, 9, 42, 59
6, 15810, Note_on_c, 9, 44, 69
6, 15819, Note_on_c, 9, 44, 0
6, 15819, Note_on_c, 9, 42, 0
6, 15819, Note_on_c, 9, 36, 0
6, 15840, Note_on_c, 9, 36, 86
6, 15840, Note_on_c, 9, 42, 74
6, 15845, Note_on_c, 9, 42, 0
6, 15845, Note_on_c, 9, 36, 0
6, 15870, Note_on_c, 9, 42, 61
6, 15876, Note_on_c, 9, 42, 0
6, 15900, Note_on_c, 9, 40, 127
6, 15900, Note_on_c, 9, 42, 78
6, 15907, Note_on_c, 9, 42, 0
6, 15907, Note_on_c, 9, 40, 0
6, 15930, Note_on_c, 9, 36, 103
6, 15930, Note_on_c, 9, 42, 70
6, 15937, Note_on_c, 9, 42, 0
6, 15937, Note_on_c, 9, 36, 0
6, 15960, Note_on_c, 9, 36, 119
6, 15960, Note_on_c, 9, 42, 66
6, 15965, Note_on_c, 9, 42, 0
6, 15965, Note_on_c, 9, 36, 0
6, 15990, Note_on_c, 9, 42, 79
6, 15996, Note_on_c, 9, 42, 0
6, 16020, Note_on_c, 9, 40, 127
6, 16020, Note_on_c, 9, 42, 65
6, 16027, Note_on_c, 9, 42, 0
6, 16027, Note_on_c, 9, 40, 0
6, 16050, Note_on_c, 9, 36, 127
6, 16050, Note_on_c, 9, 42, 63
6, 16050, Note_on_c, 9, 46, 124
6, 16059, Note_on_c, 9, 46, 0
6, 16059, Note_on_c, 9, 42, 0
6, 16059, Note_on_c, 9, 36, 0
6, 16080, Note_on_c, 9, 42, 67
6, 16085, Note_on_c, 9, 42, 0
6, 16110, Note_on_c, 9, 40, 127
6, 16115, Note_on_c, 9, 40, 0
6, 16120, Note_on_c, 9, 40, 127
6, 16125, Note_on_c, 9, 40, 0
6, 16140, Note_on_c, 9, 36, 112
6, 16145, Note_on_c, 9, 36, 0
6, 16170, Note_on_c, 9, 36, 98
6, 16175, Note_on_c, 9, 36, 0
6, 16200, Note_on_c, 9, 40, 127
6, 16205, Note_on_c, 9, 40, 0
6, 16210, Note_on_c, 9, 40, 127
6, 16215, Note_on_c, 9, 40, 0
6, 16230, Note_on_c, 9, 36, 117
6, 16235, Note_on_c, 9, 36, 0
6, 16260, Note_on_c, 9, 40, 127
6, 16260, Note_on_c, 9, 44, 89
6, 16265, Note_on_c, 9, 44, 0
6, 16265, Note_on_c, 9, 40, 0
6, 16290, Note_on_c, 9, 40, 127
6, 16290, Note_on_c, 9, 46, 127
6, 16295, Note_on_c, 9, 46, 0
6, 16295, Note_on_c, 9, 40, 0
6, 16320, Note_on_c, 9, 49, 109
6, 16320, Note_on_c, 9, 36, 127
6, 16320, Note_on_c, 9, 42, 80
6, 16327, Note_on_c, 9, 42, 0
6, 16327, Note_on_c, 9, 36, 0
6, 16327, Note_on_c, 9, 49, 0
6, 16350, Note_on_c, 9, 42, 46
6, 16355, Note_on_c, 9, 42, 0
6, 16380, Note_on_c, 9, 40, 127
6, 16380, Note_on_c, 9, 42, 71
6, 16385, Note_on_c, 9, 42, 0
6, 16385, Note_on_c, 9, 40, 0
6, 16410, Note_on_c, 9, 36, 102
6, 16410, Note_on_c, 9, 42, 43
6, 16416, Note_on_c, 9, 42, 0
6, 16416, Note_on_c, 9, 36, 0
6, 16440, Note_on_c, 9, 36, 114
6, 16440, Note_on_c, 9, 42, 64
6, 16445, Note_on_c, 9, 42, 0
6, 16445, Note_on_c, 9, 36, 0
6, 16470, Note_on_c, 9, 42, 55
6, 16475, Note_on_c, 9, 42, 0
6, 16500, Note_on_c, 9, 40, 127
6, 16500, Note_on_c, 9, 42, 69
6, 16505, Note_on_c, 9, 42, 0
6, 16505, Note_on_c, 9, 40, 0
6, 16530, Note_on_c, 9, 36, 127
6, 16530, Note_on_c, 9, 42, 51
6, 16536, Note_on_c, 9, 42, 0
6, 16536, Note_on_c, 9, 36, 0
6, 16560, Note_on_c, 9, 42, 75
6, 16565, Note_on_c, 9, 42, 0
6, 16590, Note_on_c, 9, 42, 63
6, 16590, Note_on_c, 9, 44, 70
6, 16596, Note_on_c, 9, 44, 0
6, 16596, Note_on_c, 9, 42, 0
6, 16620, Note_on_c, 9, 40, 127
6, 16620, Note_on_c, 9, 42, 61
6, 16625, Note_on_c, 9, 42, 0
6, 16625, Note_on_c, 9, 40, 0
6, 16650, Note_on_c, 9, 42, 52
6, 16656, Note_on_c, 9, 42, 0
6, 16680, Note_on_c, 9, 42, 74
6, 16686, Note_on_c, 9, 42, 0
6, 16710, Note_on_c, 9, 36, 80
6, 16710, Note_on_c, 9, 42, 93
6, 16715, Note_on_c, 9, 42, 0
6, 16715, Note_on_c, 9, 36, 0
6, 16740, Note_on_c, 9, 40, 127
6, 16740, Note_on_c, 9, 42, 101
6, 16746, Note_on_c, 9, 42, 0
6, 16746, Note_on_c, 9, 40, 0
6, 16770, Note_on_c, 9, 36, 112
6, 16770, Note_on_c, 9, 42, 59
6, 16770, Note_on_c, 9, 44, 69
6, 16775, Note_on_c, 9, 44, 0
6, 16775, Note_on_c, 9, 42, 0
6, 16775, Note_on_c, 9, 36, 0
6, 16800, Note_on_c, 9, 36, 86
6, 16800, Note_on_c, 9, 42, 74
6, 16805, Note_on_c, 9, 42, 0
6, 16805, Note_on_c, 9, 36, 0
6, 16830, Note_on_c, 9, 42, 61
6, 16835, Note_on_c, 9, 42, 0
6, 16860, Note_on_c, 9, 40, 127
6, 16860, Note_on_c, 9, 42, 78
6, 16865, Note_on_c, 9, 42, 0
6, 16865, Note_on_c, 9, 40, 0
6, 16890, Note_on_c, 9, 36, 103
6, 16890, Note_on_c, 9, 42, 70
6, 16896, Note_on_c, 9, 42, 0
6, 16896, Note_on_c, 9, 36, 0
6, 16920, Note_on_c, 9, 36, 119
6, 16920, Note_on_c, 9, 42, 66
6, 16925, Note_on_c, 9, 42, 0
6, 16925, Note_on_c, 9, 36, 0
6, 16950, Note_on_c, 9, 42, 79
6, 16955, Note_on_c, 9, 42, 0
6, 16980, Note_on_c, 9, 40, 127
6, 16980, Note_on_c, 9, 42, 65
6, 16985, Note_on_c, 9, 42, 0
6, 16985, Note_on_c, 9, 40, 0
6, 17010, Note_on_c, 9, 36, 127
6, 17010, Note_on_c, 9, 42, 63
6, 17016, Note_on_c, 9, 42, 0
6, 17016, Note_on_c, 9, 36, 0
6, 17040, Note_on_c, 9, 42, 67
6, 17045, Note_on_c, 9, 42, 0
6, 17070, Note_on_c, 9, 42, 56
6, 17076, Note_on_c, 9, 42, 0
6, 17100, Note_on_c, 9, 40, 127
6, 17100, Note_on_c, 9, 42, 124
6, 17105, Note_on_c, 9, 42, 0
6, 17105, Note_on_c, 9, 40, 0
6, 17130, Note_on_c, 9, 42, 44
6, 17130, Note_on_c, 9, 44, 64
6, 17137, Note_on_c, 9, 44, 0
6, 17137, Note_on_c, 9, 42, 0
6, 17160, Note_on_c, 9, 42, 58
6, 17166, Note_on_c, 9, 42, 0
6, 17190, Note_on_c, 9, 36, 124
6, 17190, Note_on_c, 9, 42, 62
6, 17195, Note_on_c, 9, 42, 0
6, 17195, Note_on_c, 9, 36, 0
6, 17220, Note_on_c, 9, 40, 127
6, 17220, Note_on_c, 9, 42, 77
6, 17226, Note_on_c, 9, 42, 0
6, 17226, Note_on_c, 9, 40, 0
6, 17250, Note_on_c, 9, 36, 121
6, 17250, Note_on_c, 9, 42, 52
6, 17255, Note_on_c, 9, 42, 0
6, 17255, Note_on_c, 9, 36, 0
6, 17280, Note_on_c, 9, 36, 127
6, 17280, Note_on_c, 9, 42, 80
6, 17284, Note_on_c, 9, 42, 0
6, 17284, Note_on_c, 9, 36, 0
6, 17310, Note_on_c, 9, 42, 46
6, 17315, Note_on_c, 9, 42, 0
6, 17340, Note_on_c, 9, 40, 127
6, 17340, Note_on_c, 9, 42, 71
6, 17345, Note_on_c, 9, 42, 0
6, 17345, Note_on_c, 9, 40, 0
6, 17370, Note_on_c, 9, 36, 102
6, 17370, Note_on_c, 9, 42, 43
6, 17376, Note_on_c, 9, 42, 0
6, 17376, Note_on_c, 9, 36, 0
6, 17400, Note_on_c, 9, 36, 114
6, 17400, Note_on_c, 9, 42, 64
6, 17405, Note_on_c, 9, 42, 0
6, 17405, Note_on_c, 9, 36, 0
6, 17430, Note_on_c, 9, 42, 55
6, 17435, Note_on_c, 9, 42, 0
6, 17460, Note_on_c, 9, 40, 127
6, 17460, Note_on_c, 9, 42, 69
6, 17465, Note_on_c, 9, 42, 0
6, 17465, Note_on_c, 9, 40, 0
6, 17490, Note_on_c, 9, 36, 127
6, 17490, Note_on_c, 9, 42, 51
6, 17496, Note_on_c, 9, 42, 0
6, 17496, Note_on_c, 9, 36, 0
6, 17520, Note_on_c, 9, 42, 75
6, 17525, Note_on_c, 9, 42, 0
6, 17550, Note_on_c, 9, 42, 63
6, 17550, Note_on_c, 9, 44, 70
6, 17556, Note_on_c, 9, 44, 0
6, 17556, Note_on_c, 9, 42, 0
6, 17580, Note_on_c, 9, 40, 127
6, 17580, Note_on_c, 9, 42, 61
6, 17585, Note_on_c, 9, 42, 0
6, 17585, Note_on_c, 9, 40, 0
6, 17610, Note_on_c, 9, 42, 52
6, 17616, Note_on_c, 9, 42, 0
6, 17640, Note_on_c, 9, 42, 74
6, 17646, Note_on_c, 9, 42, 0
6, 17670, Note_on_c, 9, 36, 80
6, 17670, Note_on_c, 9, 42, 93
6, 17675, Note_on_c, 9, 42, 0
6, 17675, Note_on_c, 9, 36, 0
6, 17700, Note_on_c, 9, 40, 127
6, 17700, Note_on_c, 9, 42, 101
6, 17706, Note_on_c, 9, 42, 0
6, 17706, Note_on_c, 9, 40, 0
6, 17730, Note_on_c, 9, 36, 112
6, 17730, Note_on_c, 9, 42, 59
6, 17730, Note_on_c, 9, 44, 69
6, 17735, Note_on_c, 9, 44, 0
6, 17735, Note_on_c, 9, 42, 0
6, 17735, Note_on_c, 9, 36, 0
6, 17760, Note_on_c, 9, 36, 86
6, 17760, Note_on_c, 9, 42, 74
6, 17765, Note_on_c, 9, 42, 0
6, 17765, Note_on_c, 9, 36, 0
6, 17790, Note_on_c, 9, 42, 61
6, 17795, Note_on_c, 9, 42, 0
6, 17820, Note_on_c, 9, 40, 127
6, 17820, Note_on_c, 9, 42, 78
6, 17825, Note_on_c, 9, 42, 0
6, 17825, Note_on_c, 9, 40, 0
6, 17850, Note_on_c, 9, 36, 103
6, 17850, Note_on_c, 9, 42, 70
6, 17856, Note_on_c, 9, 42, 0
6, 17856, Note_on_c, 9, 36, 0
6, 17880, Note_on_c, 9, 36, 119
6, 17880, Note_on_c, 9, 42, 66
6, 17885, Note_on_c, 9, 42, 0
6, 17885, Note_on_c, 9, 36, 0
6, 17910, Note_on_c, 9, 42, 79
6, 17915, Note_on_c, 9, 42, 0
6, 17940, Note_on_c, 9, 40, 127
6, 17940, Note_on_c, 9, 42, 65
6, 17945, Note_on_c, 9, 42, 0
6, 17945, Note_on_c, 9, 40, 0
6, 17970, Note_on_c, 9, 36, 127
6, 17970, Note_on_c, 9, 42, 63
6, 17976, Note_on_c, 9, 42, 0
6, 17976, Note_on_c, 9, 36, 0
6, 18000, Note_on_c, 9, 42, 67
6, 18005, Note_on_c, 9, 42, 0
6, 18030, Note_on_c, 9, 42, 56
6, 18036, Note_on_c, 9, 42, 0
6, 18060, Note_on_c, 9, 40, 127
6, 18060, Note_on_c, 9, 42, 124
6, 18065, Note_on_c, 9, 42, 0
6, 18065, Note_on_c, 9, 40, 0
6, 18090, Note_on_c, 9, 42, 44
6, 18090, Note_on_c, 9, 44, 64
6, 18096, Note_on_c, 9, 44, 0
6, 18096, Note_on_c, 9, 42, 0
6, 18120, Note_on_c, 9, 42, 58
6, 18126, Note_on_c, 9, 42, 0
6, 18150, Note_on_c, 9, 36, 124
6, 18150, Note_on_c, 9, 42, 62
6, 18155, Note_on_c, 9, 42, 0
6, 18155, Note_on_c, 9, 36, 0
6, 18180, Note_on_c, 9, 40, 127
6, 18180, Note_on_c, 9, 42, 77
6, 18186, Note_on_c, 9, 42, 0
6, 18186, Note_on_c, 9, 40, 0
6, 18210, Note_on_c, 9, 36, 121
6, 18210, Note_on_c, 9, 42, 52
6, 18215, Note_on_c, 9, 42, 0
6, 18215, Note_on_c, 9, 36, 0
6, 18240, Note_on_c, 9, 36, 127
6, 18240, Note_on_c, 9, 42, 80
6, 18248, Note_on_c, 9, 42, 0
6, 18248, Note_on_c, 9, 36, 0
6, 18270, Note_on_c, 9, 42, 46
6, 18275, Note_on_c, 9, 42, 0
6, 18300, Note_on_c, 9, 40, 127
6, 18300, Note_on_c, 9, 42, 71
6, 18305, Note_on_c, 9, 42, 0
6, 18305, Note_on_c, 9, 40, 0
6, 18330, Note_on_c, 9, 36, 102
6, 18330, Note_on_c, 9, 42, 43
6, 18338, Note_on_c, 9, 42, 0
6, 18338, Note_on_c, 9, 36, 0
6, 18360, Note_on_c, 9, 36, 114
6, 18360, Note_on_c, 9, 42, 64
6, 18365, Note_on_c, 9, 42, 0
6, 18365, Note_on_c, 9, 36, 0
6, 18390, Note_on_c, 9, 42, 55
6, 18395, Note_on_c, 9, 42, 0
6, 18420, Note_on_c, 9, 40, 127
6, 18420, Note_on_c, 9, 42, 69
6, 18425, Note_on_c, 9, 42, 0
6, 18425, Note_on_c, 9, 40, 0
6, 18450, Note_on_c, 9, 36, 127
6, 18450, Note_on_c, 9, 42, 51
6, 18456, Note_on_c, 9, 42, 0
6, 18456, Note_on_c, 9, 36, 0
6, 18480, Note_on_c, 9, 42, 75
6, 18485, Note_on_c, 9, 42, 0
6, 18510, Note_on_c, 9, 42, 63
6, 18510, Note_on_c, 9, 44, 70
6, 18516, Note_on_c, 9, 44, 0
6, 18516, Note_on_c, 9, 42, 0
6, 18540, Note_on_c, 9, 40, 127
6, 18540, Note_on_c, 9, 42, 61
6, 18545, Note_on_c, 9, 42, 0
6, 18545, Note_on_c, 9, 40, 0
6, 18570, Note_on_c, 9, 42, 52
6, 18576, Note_on_c, 9, 42, 0
6, 18600, Note_on_c, 9, 42, 74
6, 18606, Note_on_c, 9, 42, 0
6, 18630, Note_on_c, 9, 36, 80
6, 18630, Note_on_c, 9, 42, 93
6, 18635, Note_on_c, 9, 42, 0
6, 18635, Note_on_c, 9, 36, 0
6, 18660, Note_on_c, 9, 40, 127
6, 18660, Note_on_c, 9, 42, 101
6, 18667, Note_on_c, 9, 42, 0
6, 18667, Note_on_c, 9, 40, 0
6, 18690, Note_on_c, 9, 36, 112
6, 18690, Note_on_c, 9, 42, 59
6, 18690, Note_on_c, 9, 44, 69
6, 18695, Note_on_c, 9, 44, 0
6, 18695, Note_on_c, 9, 42, 0
6, 18695, Note_on_c, 9, 36, 0
6, 18720, Note_on_c, 9, 36, 86
6, 18720, Note_on_c, 9, 42, 74
6, 18726, Note_on_c, 9, 42, 0
6, 18726, Note_on_c, 9, 36, 0
6, 18750, Note_on_c, 9, 42, 61
6, 18755, Note_on_c, 9, 42, 0
6, 18780, Note_on_c, 9, 40, 127
6, 18780, Note_on_c, 9, 42, 78
6, 18785, Note_on_c, 9, 42, 0
6, 18785, Note_on_c, 9, 40, 0
6, 18810, Note_on_c, 9, 36, 103
6, 18810, Note_on_c, 9, 42, 70
6, 18816, Note_on_c, 9, 42, 0
6, 18816, Note_on_c, 9, 36, 0
6, 18840, Note_on_c, 9, 36, 119
6, 18840, Note_on_c, 9, 42, 66
6, 18845, Note_on_c, 9, 42, 0
6, 18845, Note_on_c, 9, 36, 0
6, 18870, Note_on_c, 9, 42, 79
6, 18875, Note_on_c, 9, 42, 0
6, 18900, Note_on_c, 9, 40, 127
6, 18900, Note_on_c, 9, 42, 65
6, 18905, Note_on_c, 9, 42, 0
6, 18905, Note_on_c, 9, 40, 0
6, 18930, Note_on_c, 9, 36, 127
6, 18930, Note_on_c, 9, 42, 63
6, 18936, Note_on_c, 9, 42, 0
6, 18936, Note_on_c, 9, 36, 0
6, 18960, Note_on_c, 9, 42, 67
6, 18965, Note_on_c, 9, 42, 0
6, 18990, Note_on_c, 9, 42, 56
6, 18996, Note_on_c, 9, 42, 0
6, 19020, Note_on_c, 9, 40, 127
6, 19020, Note_on_c, 9, 42, 124
6, 19025, Note_on_c, 9, 42, 0
6, 19025, Note_on_c, 9, 40, 0
6, 19050, Note_on_c, 9, 42, 44
6, 19050, Note_on_c, 9, 44, 64
6, 19056, Note_on_c, 9, 44, 0
6, 19056, Note_on_c, 9, 42, 0
6, 19080, Note_on_c, 9, 42, 58
6, 19086, Note_on_c, 9, 42, 0
6, 19110, Note_on_c, 9, 36, 124
6, 19110, Note_on_c, 9, 42, 62
6, 19115, Note_on_c, 9, 42, 0
6, 19115, Note_on_c, 9, 36, 0
6, 19140, Note_on_c, 9, 40, 127
6, 19140, Note_on_c, 9, 42, 77
6, 19146, Note_on_c, 9, 42, 0
6, 19146, Note_on_c, 9, 40, 0
6, 19170, Note_on_c, 9, 36, 121
6, 19170, Note_on_c, 9, 42, 52
6, 19175, Note_on_c, 9, 42, 0
6, 19175, Note_on_c, 9, 36, 0
6, 19200, Note_on_c, 9, 36, 127
6, 19200, Note_on_c, 9, 42, 80
6, 19206, Note_on_c, 9, 42, 0
6, 19206, Note_on_c, 9, 36, 0
6, 19230, Note_on_c, 9, 42, 46
6, 19235, Note_on_c, 9, 42, 0
6, 19260, Note_on_c, 9, 40, 127
6, 19260, Note_on_c, 9, 42, 71
6, 19265, Note_on_c, 9, 42, 0
6, 19265, Note_on_c, 9, 40, 0
6, 19290, Note_on_c, 9, 36, 102
6, 19290, Note_on_c, 9, 42, 43
6, 19296, Note_on_c, 9, 42, 0
6, 19296, Note_on_c, 9, 36, 0
6, 19320, Note_on_c, 9, 36, 114
6, 19320, Note_on_c, 9, 42, 64
6, 19325, Note_on_c, 9, 42, 0
6, 19325, Note_on_c, 9, 36, 0
6, 19350, Note_on_c, 9, 42, 55
6, 19355, Note_on_c, 9, 42, 0
6, 19380, Note_on_c, 9, 40, 127
6, 19380, Note_on_c, 9, 42, 69
6, 19385, Note_on_c, 9, 42, 0
6, 19385, Note_on_c, 9, 40, 0
6, 19410, Note_on_c, 9, 36, 127
6, 19410, Note_on_c, 9, 42, 51
6, 19416, Note_on_c, 9, 42, 0
6, 19416, Note_on_c, 9, 36, 0
6, 19440, Note_on_c, 9, 42, 75
6, 19445, Note_on_c, 9, 42, 0
6, 19470, Note_on_c, 9, 42, 63
6, 19470, Note_on_c, 9, 44, 70
6, 19476, Note_on_c, 9, 44, 0
6, 19476, Note_on_c, 9, 42, 0
6, 19500, Note_on_c, 9, 40, 127
6, 19500, Note_on_c, 9, 42, 61
6, 19505, Note_on_c, 9, 42, 0
6, 19505, Note_on_c, 9, 40, 0
6, 19530, Note_on_c, 9, 42, 52
6, 19535, Note_on_c, 9, 42, 0
6, 19560, Note_on_c, 9, 42, 74
6, 19566, Note_on_c, 9, 42, 0
6, 19590, Note_on_c, 9, 36, 80
6, 19590, Note_on_c, 9, 42, 93
6, 19595, Note_on_c, 9, 42, 0
6, 19595, Note_on_c, 9, 36, 0
6, 19620, Note_on_c, 9, 40, 127
6, 19620, Note_on_c, 9, 42, 101
6, 19627, Note_on_c, 9, 42, 0
6, 19627, Note_on_c, 9, 40, 0
6, 19650, Note_on_c, 9, 36, 112
6, 19650, Note_on_c, 9, 42, 59
6, 19650, Note_on_c, 9, 44, 69
6, 19655, Note_on_c, 9, 44, 0
6, 19655, Note_on_c, 9, 42, 0
6, 19655, Note_on_c, 9, 36, 0
6, 19680, Note_on_c, 9, 36, 86
6, 19680, Note_on_c, 9, 42, 74
6, 19686, Note_on_c, 9, 42, 0
6, 19686, Note_on_c, 9, 36, 0
6, 19710, Note_on_c, 9, 42, 61
6, 19715, Note_on_c, 9, 42, 0
6, 19740, Note_on_c, 9, 40, 127
6, 19740, Note_on_c, 9, 42, 78
6, 19745, Note_on_c, 9, 42, 0
6, 19745, Note_on_c, 9, 40, 0
6, 19770, Note_on_c, 9, 36, 103
6, 19770, Note_on_c, 9, 42, 70
6, 19776, Note_on_c, 9, 42, 0
6, 19776, Note_on_c, 9, 36, 0
6, 19800, Note_on_c, 9, 36, 119
6, 19800, Note_on_c, 9, 42, 66
6, 19805, Note_on_c, 9, 42, 0
6, 19805, Note_on_c, 9, 36, 0
6, 19830, Note_on_c, 9, 42, 79
6, 19835, Note_on_c, 9, 42, 0
6, 19860, Note_on_c, 9, 40, 127
6, 19860, Note_on_c, 9, 42, 65
6, 19865, Note_on_c, 9, 42, 0
6, 19865, Note_on_c, 9, 40, 0
6, 19890, Note_on_c, 9, 36, 127
6, 19890, Note_on_c, 9, 42, 63
6, 19896, Note_on_c, 9, 42, 0
6, 19896, Note_on_c, 9, 36, 0
6, 19920, Note_on_c, 9, 42, 67
6, 19925, Note_on_c, 9, 42, 0
6, 19950, Note_on_c, 9, 42, 56
6, 19957, Note_on_c, 9, 42, 0
6, 19980, Note_on_c, 9, 40, 127
6, 19980, Note_on_c, 9, 42, 124
6, 19985, Note_on_c, 9, 42, 0
6, 19985, Note_on_c, 9, 40, 0
6, 20010, Note_on_c, 9, 42, 44
6, 20010, Note_on_c, 9, 44, 64
6, 20017, Note_on_c, 9, 44, 0
6, 20017, Note_on_c, 9, 42, 0
6, 20040, Note_on_c, 9, 42, 58
6, 20045, Note_on_c, 9, 42, 0
6, 20070, Note_on_c, 9, 36, 124
6, 20070, Note_on_c, 9, 42, 62
6, 20074, Note_on_c, 9, 42, 0
6, 20074, Note_on_c, 9, 36, 0
6, 20100, Note_on_c, 9, 40, 127
6, 20100, Note_on_c, 9, 42, 77
6, 20106, Note_on_c, 9, 40, 0
6, 20107, Note_on_c, 9, 42, 0
6, 20130, Note_on_c, 9, 36, 121
6, 20130, Note_on_c, 9, 42, 52
6, 20135, Note_on_c, 9, 42, 0
6, 20135, Note_on_c, 9, 36, 0
6, 20160, Note_on_c, 9, 36, 127
6, 20160, Note_on_c, 9, 42, 80
6, 20168, Note_on_c, 9, 42, 0
6, 20168, Note_on_c, 9, 36, 0
6, 20190, Note_on_c, 9, 42, 46
6, 20196, Note_on_c, 9, 42, 0
6, 20220, Note_on_c, 9, 40, 127
6, 20220, Note_on_c, 9, 42, 71
6, 20225, Note_on_c, 9, 42, 0
6, 20225, Note_on_c, 9, 40, 0
6, 20250, Note_on_c, 9, 36, 102
6, 20250, Note_on_c, 9, 42, 43
6, 20258, Note_on_c, 9, 42, 0
6, 20258, Note_on_c, 9, 36, 0
6, 20280, Note_on_c, 9, 36, 114
6, 20280, Note_on_c, 9, 42, 64
6, 20285, Note_on_c, 9, 42, 0
6, 20285, Note_on_c, 9, 36, 0
6, 20310, Note_on_c, 9, 42, 55
6, 20315, Note_on_c, 9, 42, 0
6, 20340, Note_on_c, 9, 40, 127
6, 20340, Note_on_c, 9, 42, 69
6, 20345, Note_on_c, 9, 42, 0
6, 20345, Note_on_c, 9, 40, 0
6, 20370, Note_on_c, 9, 36, 127
6, 20370, Note_on_c, 9, 42, 51
6, 20377, Note_on_c, 9, 42, 0
6, 20377, Note_on_c, 9, 36, 0
6, 20400, Note_on_c, 9, 42, 75
6, 20405, Note_on_c, 9, 42, 0
6, 20430, Note_on_c, 9, 42, 63
6, 20430, Note_on_c, 9, 44, 70
6, 20437, Note_on_c, 9, 44, 0
6, 20437, Note_on_c, 9, 42, 0
6, 20460, Note_on_c, 9, 40, 127
6, 20460, Note_on_c, 9, 42, 61
6, 20465, Note_on_c, 9, 42, 0
6, 20465, Note_on_c, 9, 40, 0
6, 20490, Note_on_c, 9, 42, 52
6, 20495, Note_on_c, 9, 42, 0
6, 20520, Note_on_c, 9, 42, 74
6, 20526, Note_on_c, 9, 42, 0
6, 20550, Note_on_c, 9, 36, 80
6, 20550, Note_on_c, 9, 42, 93
6, 20555, Note_on_c, 9, 42, 0
6, 20555, Note_on_c, 9, 36, 0
6, 20580, Note_on_c, 9, 40, 127
6, 20580, Note_on_c, 9, 42, 101
6, 20586, Note_on_c, 9, 42, 0
6, 20586, Note_on_c, 9, 40, 0
6, 20610, Note_on_c, 9, 36, 112
6, 20610, Note_on_c, 9, 42, 59
6, 20610, Note_on_c, 9, 44, 69
6, 20615, Note_on_c, 9, 44, 0
6, 20615, Note_on_c, 9, 42, 0
6, 20615, Note_on_c, 9, 36, 0
6, 20640, Note_on_c, 9, 36, 86
6, 20640, Note_on_c, 9, 42, 74
6, 20645, Note_on_c, 9, 42, 0
6, 20645, Note_on_c, 9, 36, 0
6, 20670, Note_on_c, 9, 42, 61
6, 20675, Note_on_c, 9, 42, 0
6, 20700, Note_on_c, 9, 40, 127
6, 20700, Note_on_c, 9, 42, 78
6, 20705, Note_on_c, 9, 42, 0
6, 20705, Note_on_c, 9, 40, 0
6, 20730, Note_on_c, 9, 36, 103
6, 20730, Note_on_c, 9, 42, 70
6, 20736, Note_on_c, 9, 42, 0
6, 20736, Note_on_c, 9, 36, 0
6, 20760, Note_on_c, 9, 36, 119
6, 20760, Note_on_c, 9, 42, 66
6, 20765, Note_on_c, 9, 42, 0
6, 20765, Note_on_c, 9, 36, 0
6, 20790, Note_on_c, 9, 42, 79
6, 20795, Note_on_c, 9, 42, 0
6, 20820, Note_on_c, 9, 40, 127
6, 20820, Note_on_c, 9, 42, 65
6, 20825, Note_on_c, 9, 42, 0
6, 20825, Note_on_c, 9, 40, 0
6, 20850, Note_on_c, 9, 36, 127
6, 20850, Note_on_c, 9, 42, 63
6, 20856, Note_on_c, 9, 42, 0
6, 20856, Note_on_c, 9, 36, 0
6, 20880, Note_on_c, 9, 42, 67
6, 20885, Note_on_c, 9, 42, 0
6, 20910, Note_on_c, 9, 42, 56
6, 20915, Note_on_c, 9, 42, 0
6, 20940, Note_on_c, 9, 40, 127
6, 20940, Note_on_c, 9, 42, 124
6, 20945, Note_on_c, 9, 42, 0
6, 20945, Note_on_c, 9, 40, 0
6, 20970, Note_on_c, 9, 42, 44
6, 20970, Note_on_c, 9, 44, 64
6, 20975, Note_on_c, 9, 44, 0
6, 20975, Note_on_c, 9, 42, 0
6, 21000, Note_on_c, 9, 42, 58
6, 21006, Note_on_c, 9, 42, 0
6, 21030, Note_on_c, 9, 36, 124
6, 21030, Note_on_c, 9, 42, 62
6, 21036, Note_on_c, 9, 42, 0
6, 21036, Note_on_c, 9, 36, 0
6, 21060, Note_on_c, 9, 40, 127
6, 21060, Note_on_c, 9, 42, 77
6, 21068, Note_on_c, 9, 42, 0
6, 21068, Note_on_c, 9, 40, 0
6, 21090, Note_on_c, 9, 36, 121
6, 21090, Note_on_c, 9, 42, 52
6, 21095, Note_on_c, 9, 42, 0
6, 21095, Note_on_c, 9, 36, 0
6, 21120, Note_on_c, 9, 36, 127
6, 21120, Note_on_c, 9, 42, 80
6, 21125, Note_on_c, 9, 42, 0
6, 21125, Note_on_c, 9, 36, 0
6, 21150, Note_on_c, 9, 42, 46
6, 21155, Note_on_c, 9, 42, 0
6, 21180, Note_on_c, 9, 40, 127
6, 21180, Note_on_c, 9, 42, 71
6, 21185, Note_on_c, 9, 42, 0
6, 21185, Note_on_c, 9, 40, 0
6, 21210, Note_on_c, 9, 36, 102
6, 21210, Note_on_c, 9, 42, 43
6, 21216, Note_on_c, 9, 42, 0
6, 21216, Note_on_c, 9, 36, 0
6, 21240, Note_on_c, 9, 36, 114
6, 21240, Note_on_c, 9, 42, 64
6, 21245, Note_on_c, 9, 42, 0
6, 21245, Note_on_c, 9, 36, 0
6, 21270, Note_on_c, 9, 42, 55
6, 21275, Note_on_c, 9, 42, 0
6, 21300, Note_on_c, 9, 40, 127
6, 21300, Note_on_c, 9, 42, 69
6, 21305, Note_on_c, 9, 42, 0
6, 21305, Note_on_c, 9, 40, 0
6, 21330, Note_on_c, 9, 42, 51
6, 21330, Note_on_c, 9, 36, 127
6, 21336, Note_on_c, 9, 36, 0
6, 21336, Note_on_c, 9, 42, 0
6, 21360, Note_on_c, 9, 42, 75
6, 21365, Note_on_c, 9, 42, 0
6, 21390, Note_on_c, 9, 42, 63
6, 21390, Note_on_c, 9, 44, 70
6, 21396, Note_on_c, 9, 44, 0
6, 21396, Note_on_c, 9, 42, 0
6, 21420, Note_on_c, 9, 40, 127
6, 21420, Note_on_c, 9, 42, 61
6, 21425, Note_on_c, 9, 42, 0
6, 21425, Note_on_c, 9, 40, 0
6, 21450, Note_on_c, 9, 42, 52
6, 21455, Note_on_c, 9, 42, 0
6, 21480, Note_on_c, 9, 42, 74
6, 21486, Note_on_c, 9, 42, 0
6, 21510, Note_on_c, 9, 36, 80
6, 21510, Note_on_c, 9, 42, 93
6, 21515, Note_on_c, 9, 42, 0
6, 21515, Note_on_c, 9, 36, 0
6, 21540, Note_on_c, 9, 40, 127
6, 21540, Note_on_c, 9, 42, 101
6, 21547, Note_on_c, 9, 42, 0
6, 21547, Note_on_c, 9, 40, 0
6, 21570, Note_on_c, 9, 36, 112
6, 21570, Note_on_c, 9, 42, 59
6, 21570, Note_on_c, 9, 44, 69
6, 21575, Note_on_c, 9, 44, 0
6, 21575, Note_on_c, 9, 42, 0
6, 21575, Note_on_c, 9, 36, 0
6, 21600, Note_on_c, 9, 36, 86
6, 21600, Note_on_c, 9, 42, 74
6, 21605, Note_on_c, 9, 42, 0
6, 21605, Note_on_c, 9, 36, 0
6, 21630, Note_on_c, 9, 42, 61
6, 21635, Note_on_c, 9, 42, 0
6, 21660, Note_on_c, 9, 40, 127
6, 21660, Note_on_c, 9, 42, 78
6, 21665, Note_on_c, 9, 42, 0
6, 21665, Note_on_c, 9, 40, 0
6, 21690, Note_on_c, 9, 36, 103
6, 21690, Note_on_c, 9, 42, 70
6, 21696, Note_on_c, 9, 42, 0
6, 21696, Note_on_c, 9, 36, 0
6, 21720, Note_on_c, 9, 36, 119
6, 21720, Note_on_c, 9, 42, 66
6, 21725, Note_on_c, 9, 42, 0
6, 21725, Note_on_c, 9, 36, 0
6, 21750, Note_on_c, 9, 42, 79
6, 21755, Note_on_c, 9, 42, 0
6, 21780, Note_on_c, 9, 40, 127
6, 21780, Note_on_c, 9, 42, 65
6, 21785, Note_on_c, 9, 42, 0
6, 21785, Note_on_c, 9, 40, 0
6, 21810, Note_on_c, 9, 36, 127
6, 21810, Note_on_c, 9, 42, 63
6, 21817, Note_on_c, 9, 42, 0
6, 21817, Note_on_c, 9, 36, 0
6, 21840, Note_on_c, 9, 42, 67
6, 21845, Note_on_c, 9, 42, 0
6, 21870, Note_on_c, 9, 42, 56
6, 21876, Note_on_c, 9, 42, 0
6, 21900, Note_on_c, 9, 40, 127
6, 21900, Note_on_c, 9, 42, 124
6, 21905, Note_on_c, 9, 42, 0
6, 21905, Note_on_c, 9, 40, 0
6, 21930, Note_on_c, 9, 42, 44
6, 21930, Note_on_c, 9, 44, 64
6, 21935, Note_on_c, 9, 44, 0
6, 21935, Note_on_c, 9, 42, 0
6, 21960, Note_on_c, 9, 42, 58
6, 21966, Note_on_c, 9, 42, 0
6, 21990, Note_on_c, 9, 36, 124
6, 21990, Note_on_c, 9, 42, 62
6, 21994, Note_on_c, 9, 42, 0
6, 21994, Note_on_c, 9, 36, 0
6, 22020, Note_on_c, 9, 40, 127
6, 22020, Note_on_c, 9, 42, 77
6, 22026, Note_on_c, 9, 42, 0
6, 22026, Note_on_c, 9, 40, 0
6, 22050, Note_on_c, 9, 36, 121
6, 22050, Note_on_c, 9, 42, 52
6, 22055, Note_on_c, 9, 42, 0
6, 22055, Note_on_c, 9, 36, 0
6, 22080, Note_on_c, 9, 36, 127
6, 22080, Note_on_c, 9, 42, 80
6, 22086, Note_on_c, 9, 42, 0
6, 22086, Note_on_c, 9, 36, 0
6, 22110, Note_on_c, 9, 42, 46
6, 22115, Note_on_c, 9, 42, 0
6, 22140, Note_on_c, 9, 40, 127
6, 22140, Note_on_c, 9, 42, 71
6, 22145, Note_on_c, 9, 42, 0
6, 22145, Note_on_c, 9, 40, 0
6, 22170, Note_on_c, 9, 36, 102
6, 22170, Note_on_c, 9, 42, 43
6, 22176, Note_on_c, 9, 42, 0
6, 22176, Note_on_c, 9, 36, 0
6, 22200, Note_on_c, 9, 36, 114
6, 22200, Note_on_c, 9, 42, 64
6, 22205, Note_on_c, 9, 42, 0
6, 22205, Note_on_c, 9, 36, 0
6, 22230, Note_on_c, 9, 42, 55
6, 22235, Note_on_c, 9, 42, 0
6, 22260, Note_on_c, 9, 40, 127
6, 22260, Note_on_c, 9, 42, 69
6, 22265, Note_on_c, 9, 42, 0
6, 22265, Note_on_c, 9, 40, 0
6, 22290, Note_on_c, 9, 36, 127
6, 22290, Note_on_c, 9, 42, 51
6, 22297, Note_on_c, 9, 42, 0
6, 22297, Note_on_c, 9, 36, 0
6, 22320, Note_on_c, 9, 42, 75
6, 22325, Note_on_c, 9, 42, 0
6, 22350, Note_on_c, 9, 42, 63
6, 22350, Note_on_c, 9, 44, 70
6, 22356, Note_on_c, 9, 44, 0
6, 22356, Note_on_c, 9, 42, 0
6, 22380, Note_on_c, 9, 40, 127
6, 22380, Note_on_c, 9, 42, 61
6, 22385, Note_on_c, 9, 42, 0
6, 22385, Note_on_c, 9, 40, 0
6, 22410, Note_on_c, 9, 42, 52
6, 22415, Note_on_c, 9, 42, 0
6, 22440, Note_on_c, 9, 42, 74
6, 22447, Note_on_c, 9, 42, 0
6, 22470, Note_on_c, 9, 36, 80
6, 22470, Note_on_c, 9, 42, 93
6, 22475, Note_on_c, 9, 42, 0
6, 22475, Note_on_c, 9, 36, 0
6, 22500, Note_on_c, 9, 40, 127
6, 22500, Note_on_c, 9, 42, 101
6, 22507, Note_on_c, 9, 42, 0
6, 22507, Note_on_c, 9, 40, 0
6, 22530, Note_on_c, 9, 36, 112
6, 22530, Note_on_c, 9, 42, 59
6, 22530, Note_on_c, 9, 44, 69
6, 22535, Note_on_c, 9, 44, 0
6, 22535, Note_on_c, 9, 42, 0
6, 22535, Note_on_c, 9, 36, 0
6, 22560, Note_on_c, 9, 36, 86
6, 22560, Note_on_c, 9, 42, 74
6, 22566, Note_on_c, 9, 42, 0
6, 22566, Note_on_c, 9, 36, 0
6, 22590, Note_on_c, 9, 42, 61
6, 22594, Note_on_c, 9, 42, 0
6, 22620, Note_on_c, 9, 40, 127
6, 22620, Note_on_c, 9, 42, 78
6, 22625, Note_on_c, 9, 42, 0
6, 22625, Note_on_c, 9, 40, 0
6, 22650, Note_on_c, 9, 36, 103
6, 22650, Note_on_c, 9, 42, 70
6, 22656, Note_on_c, 9, 42, 0
6, 22656, Note_on_c, 9, 36, 0
6, 22680, Note_on_c, 9, 36, 119
6, 22680, Note_on_c, 9, 42, 66
6, 22685, Note_on_c, 9, 42, 0
6, 22685, Note_on_c, 9, 36, 0
6, 22710, Note_on_c, 9, 42, 79
6, 22715, Note_on_c, 9, 42, 0
6, 22740, Note_on_c, 9, 40, 127
6, 22740, Note_on_c, 9, 42, 65
6, 22745, Note_on_c, 9, 42, 0
6, 22745, Note_on_c, 9, 40, 0
6, 22770, Note_on_c, 9, 36, 127
6, 22770, Note_on_c, 9, 42, 63
6, 22776, Note_on_c, 9, 42, 0
6, 22776, Note_on_c, 9, 36, 0
6, 22800, Note_on_c, 9, 42, 67
6, 22805, Note_on_c, 9, 42, 0
6, 22830, Note_on_c, 9, 42, 56
6, 22836, Note_on_c, 9, 42, 0
6, 22860, Note_on_c, 9, 40, 127
6, 22860, Note_on_c, 9, 42, 124
6, 22865, Note_on_c, 9, 42, 0
6, 22865, Note_on_c, 9, 40, 0
6, 22890, Note_on_c, 9, 42, 44
6, 22890, Note_on_c, 9, 44, 64
6, 22895, Note_on_c, 9, 44, 0
6, 22895, Note_on_c, 9, 42, 0
6, 22920, Note_on_c, 9, 42, 58
6, 22926, Note_on_c, 9, 42, 0
6, 22950, Note_on_c, 9, 36, 124
6, 22950, Note_on_c, 9, 42, 62
6, 22954, Note_on_c, 9, 42, 0
6, 22954, Note_on_c, 9, 36, 0
6, 22980, Note_on_c, 9, 40, 127
6, 22980, Note_on_c, 9, 42, 77
6, 22986, Note_on_c, 9, 42, 0
6, 22986, Note_on_c, 9, 40, 0
6, 23010, Note_on_c, 9, 36, 121
6, 23010, Note_on_c, 9, 42, 52
6, 23015, Note_on_c, 9, 42, 0
6, 23015, Note_on_c, 9, 36, 0
6, 23040, Note_on_c, 9, 36, 127
6, 23040, Note_on_c, 9, 42, 80
6, 23046, Note_on_c, 9, 42, 0
6, 23046, Note_on_c, 9, 36, 0
6, 23070, Note_on_c, 9, 42, 46
6, 23075, Note_on_c, 9, 42, 0
6, 23100, Note_on_c, 9, 40, 127
6, 23100, Note_on_c, 9, 42, 71
6, 23105, Note_on_c, 9, 42, 0
6, 23105, Note_on_c, 9, 40, 0
6, 23130, Note_on_c, 9, 36, 102
6, 23130, Note_on_c, 9, 42, 43
6, 23136, Note_on_c, 9, 42, 0
6, 23136, Note_on_c, 9, 36, 0
6, 23160, Note_on_c, 9, 36, 114
6, 23160, Note_on_c, 9, 42, 64
6, 23165, Note_on_c, 9, 42, 0
6, 23165, Note_on_c, 9, 36, 0
6, 23190, Note_on_c, 9, 42, 55
6, 23195, Note_on_c, 9, 42, 0
6, 23220, Note_on_c, 9, 40, 127
6, 23220, Note_on_c, 9, 42, 69
6, 23225, Note_on_c, 9, 42, 0
6, 23225, Note_on_c, 9, 40, 0
6, 23250, Note_on_c, 9, 36, 127
6, 23250, Note_on_c, 9, 42, 51
6, 23257, Note_on_c, 9, 42, 0
6, 23257, Note_on_c, 9, 36, 0
6, 23280, Note_on_c, 9, 42, 75
6, 23285, Note_on_c, 9, 42, 0
6, 23310, Note_on_c, 9, 42, 63
6, 23310, Note_on_c, 9, 44, 70
6, 23316, Note_on_c, 9, 44, 0
6, 23316, Note_on_c, 9, 42, 0
6, 23340, Note_on_c, 9, 40, 127
6, 23340, Note_on_c, 9, 42, 61
6, 23345, Note_on_c, 9, 42, 0
6, 23345, Note_on_c, 9, 40, 0
6, 23370, Note_on_c, 9, 42, 52
6, 23375, Note_on_c, 9, 42, 0
6, 23400, Note_on_c, 9, 42, 74
6, 23406, Note_on_c, 9, 42, 0
6, 23430, Note_on_c, 9, 36, 80
6, 23430, Note_on_c, 9, 42, 93
6, 23435, Note_on_c, 9, 42, 0
6, 23435, Note_on_c, 9, 36, 0
6, 23460, Note_on_c, 9, 40, 127
6, 23460, Note_on_c, 9, 42, 101
6, 23468, Note_on_c, 9, 42, 0
6, 23468, Note_on_c, 9, 40, 0
6, 23490, Note_on_c, 9, 36, 112
6, 23490, Note_on_c, 9, 42, 59
6, 23490, Note_on_c, 9, 44, 69
6, 23495, Note_on_c, 9, 44, 0
6, 23495, Note_on_c, 9, 42, 0
6, 23495, Note_on_c, 9, 36, 0
6, 23520, Note_on_c, 9, 36, 86
6, 23520, Note_on_c, 9, 42, 74
6, 23526, Note_on_c, 9, 42, 0
6, 23526, Note_on_c, 9, 36, 0
6, 23550, Note_on_c, 9, 42, 61
6, 23555, Note_on_c, 9, 42, 0
6, 23580, Note_on_c, 9, 40, 127
6, 23580, Note_on_c, 9, 42, 78
6, 23585, Note_on_c, 9, 42, 0
6, 23585, Note_on_c, 9, 40, 0
6, 23610, Note_on_c, 9, 36, 103
6, 23610, Note_on_c, 9, 42, 70
6, 23618, Note_on_c, 9, 42, 0
6, 23618, Note_on_c, 9, 36, 0
6, 23640, Note_on_c, 9, 36, 119
6, 23640, Note_on_c, 9, 42, 66
6, 23645, Note_on_c, 9, 42, 0
6, 23645, Note_on_c, 9, 36, 0
6, 23670, Note_on_c, 9, 42, 79
6, 23675, Note_on_c, 9, 42, 0
6, 23700, Note_on_c, 9, 40, 127
6, 23700, Note_on_c, 9, 42, 65
6, 23705, Note_on_c, 9, 42, 0
6, 23705, Note_on_c, 9, 40, 0
6, 23730, Note_on_c, 9, 36, 127
6, 23730, Note_on_c, 9, 42, 63
6, 23737, Note_on_c, 9, 42, 0
6, 23737, Note_on_c, 9, 36, 0
6, 23760, Note_on_c, 9, 42, 67
6, 23765, Note_on_c, 9, 42, 0
6, 23790, Note_on_c, 9, 42, 56
6, 23796, Note_on_c, 9, 42, 0
6, 23820, Note_on_c, 9, 40, 127
6, 23820, Note_on_c, 9, 42, 124
6, 23825, Note_on_c, 9, 42, 0
6, 23825, Note_on_c, 9, 40, 0
6, 23850, Note_on_c, 9, 42, 44
6, 23850, Note_on_c, 9, 44, 64
6, 23854, Note_on_c, 9, 44, 0
6, 23854, Note_on_c, 9, 42, 0
6, 23880, Note_on_c, 9, 42, 58
6, 23886, Note_on_c, 9, 42, 0
6, 23910, Note_on_c, 9, 36, 124
6, 23910, Note_on_c, 9, 42, 62
6, 23915, Note_on_c, 9, 42, 0
6, 23915, Note_on_c, 9, 36, 0
6, 23940, Note_on_c, 9, 40, 127
6, 23940, Note_on_c, 9, 42, 77
6, 23946, Note_on_c, 9, 42, 0
6, 23946, Note_on_c, 9, 40, 0
6, 23970, Note_on_c, 9, 36, 121
6, 23970, Note_on_c, 9, 42, 52
6, 23975, Note_on_c, 9, 42, 0
6, 23975, Note_on_c, 9, 36, 0
6, 24000, Note_on_c, 9, 36, 127
6, 24000, Note_on_c, 9, 42, 93
6, 24007, Note_on_c, 9, 42, 0
6, 24007, Note_on_c, 9, 36, 0
6, 24030, Note_on_c, 9, 42, 46
6, 24030, Note_on_c, 9, 46, 38
6, 24035, Note_on_c, 9, 46, 0
6, 24035, Note_on_c, 9, 42, 0
6, 24060, Note_on_c, 9, 40, 127
6, 24060, Note_on_c, 9, 42, 84
6, 24070, Note_on_c, 9, 42, 0
6, 24070, Note_on_c, 9, 40, 0
6, 24090, Note_on_c, 9, 36, 102
6, 24090, Note_on_c, 9, 42, 43
6, 24090, Note_on_c, 9, 46, 42
6, 24101, Note_on_c, 9, 46, 0
6, 24101, Note_on_c, 9, 42, 0
6, 24101, Note_on_c, 9, 36, 0
6, 24120, Note_on_c, 9, 36, 114
6, 24120, Note_on_c, 9, 42, 60
6, 24125, Note_on_c, 9, 42, 0
6, 24125, Note_on_c, 9, 36, 0
6, 24150, Note_on_c, 9, 42, 55
6, 24150, Note_on_c, 9, 46, 39
6, 24159, Note_on_c, 9, 46, 0
6, 24159, Note_on_c, 9, 42, 0
6, 24180, Note_on_c, 9, 40, 127
6, 24180, Note_on_c, 9, 42, 62
6, 24185, Note_on_c, 9, 42, 0
6, 24185, Note_on_c, 9, 40, 0
6, 24210, Note_on_c, 9, 36, 127
6, 24210, Note_on_c, 9, 42, 51
6, 24210, Note_on_c, 9, 46, 43
6, 24221, Note_on_c, 9, 46, 0
6, 24221, Note_on_c, 9, 42, 0
6, 24221, Note_on_c, 9, 36, 0
6, 24240, Note_on_c, 9, 42, 66
6, 24245, Note_on_c, 9, 42, 0
6, 24270, Note_on_c, 9, 42, 63
6, 24270, Note_on_c, 9, 44, 70
6, 24270, Note_on_c, 9, 46, 38
6, 24275, Note_on_c, 9, 46, 0
6, 24275, Note_on_c, 9, 44, 0
6, 24275, Note_on_c, 9, 42, 0
6, 24300, Note_on_c, 9, 40, 127
6, 24300, Note_on_c, 9, 42, 91
6, 24305, Note_on_c, 9, 42, 0
6, 24305, Note_on_c, 9, 40, 0
6, 24330, Note_on_c, 9, 42, 52
6, 24330, Note_on_c, 9, 46, 45
6, 24336, Note_on_c, 9, 46, 0
6, 24336, Note_on_c, 9, 42, 0
6, 24360, Note_on_c, 9, 42, 64
6, 24365, Note_on_c, 9, 42, 0
6, 24390, Note_on_c, 9, 36, 80
6, 24390, Note_on_c, 9, 42, 93
6, 24390, Note_on_c, 9, 46, 38
6, 24395, Note_on_c, 9, 46, 0
6, 24395, Note_on_c, 9, 42, 0
6, 24395, Note_on_c, 9, 36, 0
6, 24420, Note_on_c, 9, 40, 127
6, 24420, Note_on_c, 9, 42, 70
6, 24425, Note_on_c, 9, 42, 0
6, 24425, Note_on_c, 9, 40, 0
6, 24450, Note_on_c, 9, 36, 112
6, 24450, Note_on_c, 9, 42, 59
6, 24450, Note_on_c, 9, 44, 69
6, 24450, Note_on_c, 9, 46, 38
6, 24456, Note_on_c, 9, 46, 0
6, 24456, Note_on_c, 9, 36, 0
6, 24456, Note_on_c, 9, 42, 0
6, 24456, Note_on_c, 9, 44, 0
6, 24480, Note_on_c, 9, 36, 86
6, 24480, Note_on_c, 9, 42, 84
6, 24485, Note_on_c, 9, 42, 0
6, 24485, Note_on_c, 9, 36, 0
6, 24510, Note_on_c, 9, 42, 61
6, 24510, Note_on_c, 9, 46, 41
6, 24515, Note_on_c, 9, 46, 0
6, 24515, Note_on_c, 9, 42, 0
6, 24540, Note_on_c, 9, 40, 127
6, 24540, Note_on_c, 9, 42, 67
6, 24545, Note_on_c, 9, 42, 0
6, 24545, Note_on_c, 9, 40, 0
6, 24570, Note_on_c, 9, 36, 103
6, 24570, Note_on_c, 9, 42, 70
6, 24570, Note_on_c, 9, 46, 38
6, 24575, Note_on_c, 9, 46, 0
6, 24575, Note_on_c, 9, 42, 0
6, 24575, Note_on_c, 9, 36, 0
6, 24600, Note_on_c, 9, 36, 119
6, 24600, Note_on_c, 9, 42, 83
6, 24605, Note_on_c, 9, 42, 0
6, 24605, Note_on_c, 9, 36, 0
6, 24630, Note_on_c, 9, 42, 79
6, 24630, Note_on_c, 9, 46, 43
6, 24635, Note_on_c, 9, 46, 0
6, 24635, Note_on_c, 9, 42, 0
6, 24660, Note_on_c, 9, 40, 127
6, 24660, Note_on_c, 9, 42, 88
6, 24665, Note_on_c, 9, 42, 0
6, 24665, Note_on_c, 9, 40, 0
6, 24690, Note_on_c, 9, 36, 127
6, 24690, Note_on_c, 9, 42, 63
6, 24690, Note_on_c, 9, 46, 43
6, 24696, Note_on_c, 9, 46, 0
6, 24696, Note_on_c, 9, 42, 0
6, 24696, Note_on_c, 9, 36, 0
6, 24720, Note_on_c, 9, 42, 91
6, 24727, Note_on_c, 9, 42, 0
6, 24750, Note_on_c, 9, 42, 56
6, 24750, Note_on_c, 9, 46, 47
6, 24755, Note_on_c, 9, 46, 0
6, 24755, Note_on_c, 9, 42, 0
6, 24780, Note_on_c, 9, 40, 127
6, 24780, Note_on_c, 9, 42, 71
6, 24790, Note_on_c, 9, 42, 0
6, 24790, Note_on_c, 9, 40, 0
6, 24810, Note_on_c, 9, 42, 44
6, 24810, Note_on_c, 9, 44, 64
6, 24810, Note_on_c, 9, 46, 41
6, 24821, Note_on_c, 9, 46, 0
6, 24821, Note_on_c, 9, 44, 0
6, 24821, Note_on_c, 9, 42, 0
6, 24840, Note_on_c, 9, 42, 65
6, 24845, Note_on_c, 9, 42, 0
6, 24870, Note_on_c, 9, 36, 124
6, 24870, Note_on_c, 9, 42, 62
6, 24870, Note_on_c, 9, 46, 40
6, 24880, Note_on_c, 9, 46, 0
6, 24880, Note_on_c, 9, 36, 0
6, 24881, Note_on_c, 9, 42, 0
6, 24900, Note_on_c, 9, 40, 127
6, 24900, Note_on_c, 9, 42, 71
6, 24905, Note_on_c, 9, 42, 0
6, 24905, Note_on_c, 9, 40, 0
6, 24930, Note_on_c, 9, 36, 121
6, 24930, Note_on_c, 9, 42, 52
6, 24930, Note_on_c, 9, 46, 48
6, 24940, Note_on_c, 9, 46, 0
6, 24940, Note_on_c, 9, 42, 0
6, 24940, Note_on_c, 9, 36, 0
6, 24960, Note_on_c, 9, 36, 127
6, 24960, Note_on_c, 9, 42, 93
6, 24965, Note_on_c, 9, 42, 0
6, 24965, Note_on_c, 9, 36, 0
6, 24990, Note_on_c, 9, 42, 46
6, 24990, Note_on_c, 9, 46, 38
6, 24995, Note_on_c, 9, 46, 0
6, 24995, Note_on_c, 9, 42, 0
6, 25020, Note_on_c, 9, 40, 127
6, 25020, Note_on_c, 9, 42, 84
6, 25025, Note_on_c, 9, 42, 0
6, 25025, Note_on_c, 9, 40, 0
6, 25050, Note_on_c, 9, 36, 102
6, 25050, Note_on_c, 9, 42, 43
6, 25050, Note_on_c, 9, 46, 42
6, 25056, Note_on_c, 9, 46, 0
6, 25056, Note_on_c, 9, 42, 0
6, 25056, Note_on_c, 9, 36, 0
6, 25080, Note_on_c, 9, 36, 114
6, 25080, Note_on_c, 9, 42, 60
6, 25085, Note_on_c, 9, 42, 0
6, 25085, Note_on_c, 9, 36, 0
6, 25110, Note_on_c, 9, 42, 55
6, 25110, Note_on_c, 9, 46, 39
6, 25115, Note_on_c, 9, 46, 0
6, 25115, Note_on_c, 9, 42, 0
6, 25140, Note_on_c, 9, 40, 127
6, 25140, Note_on_c, 9, 42, 62
6, 25145, Note_on_c, 9, 42, 0
6, 25145, Note_on_c, 9, 40, 0
6, 25170, Note_on_c, 9, 36, 127
6, 25170, Note_on_c, 9, 42, 51
6, 25170, Note_on_c, 9, 46, 43
6, 25176, Note_on_c, 9, 46, 0
6, 25176, Note_on_c, 9, 42, 0
6, 25176, Note_on_c, 9, 36, 0
6, 25200, Note_on_c, 9, 42, 66
6, 25205, Note_on_c, 9, 42, 0
6, 25230, Note_on_c, 9, 42, 63
6, 25230, Note_on_c, 9, 44, 70
6, 25230, Note_on_c, 9, 46, 38
6, 25235, Note_on_c, 9, 46, 0
6, 25235, Note_on_c, 9, 44, 0
6, 25235, Note_on_c, 9, 42, 0
6, 25260, Note_on_c, 9, 40, 127
6, 25260, Note_on_c, 9, 42, 91
6, 25265, Note_on_c, 9, 42, 0
6, 25265, Note_on_c, 9, 40, 0
6, 25290, Note_on_c, 9, 42, 52
6, 25290, Note_on_c, 9, 46, 45
6, 25295, Note_on_c, 9, 46, 0
6, 25295, Note_on_c, 9, 42, 0
6, 25320, Note_on_c, 9, 42, 64
6, 25325, Note_on_c, 9, 42, 0
6, 25350, Note_on_c, 9, 36, 80
6, 25350, Note_on_c, 9, 42, 93
6, 25350, Note_on_c, 9, 46, 38
6, 25355, Note_on_c, 9, 46, 0
6, 25355, Note_on_c, 9, 42, 0
6, 25355, Note_on_c, 9, 36, 0
6, 25380, Note_on_c, 9, 40, 127
6, 25380, Note_on_c, 9, 42, 70
6, 25385, Note_on_c, 9, 42, 0
6, 25385, Note_on_c, 9, 40, 0
6, 25410, Note_on_c, 9, 36, 112
6, 25410, Note_on_c, 9, 42, 59
6, 25410, Note_on_c, 9, 44, 69
6, 25410, Note_on_c, 9, 46, 38
6, 25415, Note_on_c, 9, 46, 0
6, 25415, Note_on_c, 9, 36, 0
6, 25415, Note_on_c, 9, 42, 0
6, 25415, Note_on_c, 9, 44, 0
6, 25440, Note_on_c, 9, 36, 86
6, 25440, Note_on_c, 9, 42, 84
6, 25445, Note_on_c, 9, 42, 0
6, 25445, Note_on_c, 9, 36, 0
6, 25470, Note_on_c, 9, 42, 61
6, 25470, Note_on_c, 9, 46, 41
6, 25475, Note_on_c, 9, 46, 0
6, 25475, Note_on_c, 9, 42, 0
6, 25500, Note_on_c, 9, 40, 127
6, 25500, Note_on_c, 9, 42, 67
6, 25505, Note_on_c, 9, 42, 0
6, 25505, Note_on_c, 9, 40, 0
6, 25530, Note_on_c, 9, 36, 103
6, 25530, Note_on_c, 9, 42, 70
6, 25530, Note_on_c, 9, 46, 38
6, 25536, Note_on_c, 9, 46, 0
6, 25536, Note_on_c, 9, 42, 0
6, 25536, Note_on_c, 9, 36, 0
6, 25560, Note_on_c, 9, 36, 119
6, 25560, Note_on_c, 9, 42, 83
6, 25565, Note_on_c, 9, 42, 0
6, 25565, Note_on_c, 9, 36, 0
6, 25590, Note_on_c, 9, 42, 79
6, 25590, Note_on_c, 9, 46, 43
6, 25595, Note_on_c, 9, 46, 0
6, 25595, Note_on_c, 9, 42, 0
6, 25620, Note_on_c, 9, 40, 127
6, 25620, Note_on_c, 9, 42, 88
6, 25625, Note_on_c, 9, 42, 0
6, 25625, Note_on_c, 9, 40, 0
6, 25650, Note_on_c, 9, 36, 127
6, 25650, Note_on_c, 9, 42, 63
6, 25650, Note_on_c, 9, 46, 43
6, 25656, Note_on_c, 9, 46, 0
6, 25656, Note_on_c, 9, 42, 0
6, 25656, Note_on_c, 9, 36, 0
6, 25680, Note_on_c, 9, 42, 91
6, 25687, Note_on_c, 9, 42, 0
6, 25710, Note_on_c, 9, 42, 56
6, 25710, Note_on_c, 9, 46, 47
6, 25715, Note_on_c, 9, 46, 0
6, 25715, Note_on_c, 9, 42, 0
6, 25740, Note_on_c, 9, 40, 127
6, 25740, Note_on_c, 9, 42, 71
6, 25750, Note_on_c, 9, 42, 0
6, 25750, Note_on_c, 9, 40, 0
6, 25770, Note_on_c, 9, 42, 44
6, 25770, Note_on_c, 9, 44, 64
6, 25770, Note_on_c, 9, 46, 41
6, 25781, Note_on_c, 9, 46, 0
6, 25781, Note_on_c, 9, 44, 0
6, 25781, Note_on_c, 9, 42, 0
6, 25800, Note_on_c, 9, 42, 65
6, 25805, Note_on_c, 9, 42, 0
6, 25830, Note_on_c, 9, 36, 124
6, 25830, Note_on_c, 9, 42, 62
6, 25830, Note_on_c, 9, 46, 40
6, 25844, Note_on_c, 9, 46, 0
6, 25844, Note_on_c, 9, 42, 0
6, 25844, Note_on_c, 9, 36, 0
6, 25860, Note_on_c, 9, 40, 127
6, 25860, Note_on_c, 9, 42, 71
6, 25864, Note_on_c, 9, 40, 0
6, 25865, Note_on_c, 9, 42, 0
6, 25890, Note_on_c, 9, 36, 121
6, 25890, Note_on_c, 9, 42, 52
6, 25890, Note_on_c, 9, 46, 48
6, 25898, Note_on_c, 9, 46, 0
6, 25898, Note_on_c, 9, 42, 0
6, 25898, Note_on_c, 9, 36, 0
6, 25920, Note_on_c, 9, 36, 127
6, 25920, Note_on_c, 9, 42, 77
6, 25925, Note_on_c, 9, 42, 0
6, 25925, Note_on_c, 9, 36, 0
6, 25950, Note_on_c, 9, 42, 46
6, 25950, Note_on_c, 9, 46, 38
6, 25955, Note_on_c, 9, 46, 0
6, 25955, Note_on_c, 9, 42, 0
6, 25980, Note_on_c, 9, 40, 127
6, 25980, Note_on_c, 9, 42, 74
6, 25985, Note_on_c, 9, 42, 0
6, 25985, Note_on_c, 9, 40, 0
6, 26010, Note_on_c, 9, 36, 102
6, 26010, Note_on_c, 9, 42, 43
6, 26010, Note_on_c, 9, 46, 42
6, 26015, Note_on_c, 9, 46, 0
6, 26015, Note_on_c, 9, 42, 0
6, 26015, Note_on_c, 9, 36, 0
6, 26040, Note_on_c, 9, 36, 114
6, 26040, Note_on_c, 9, 42, 76
6, 26045, Note_on_c, 9, 42, 0
6, 26045, Note_on_c, 9, 36, 0
6, 26070, Note_on_c, 9, 42, 55
6, 26070, Note_on_c, 9, 46, 39
6, 26075, Note_on_c, 9, 46, 0
6, 26075, Note_on_c, 9, 42, 0
6, 26100, Note_on_c, 9, 40, 127
6, 26100, Note_on_c, 9, 42, 71
6, 26105, Note_on_c, 9, 42, 0
6, 26105, Note_on_c, 9, 40, 0
6, 26130, Note_on_c, 9, 36, 127
6, 26130, Note_on_c, 9, 42, 51
6, 26130, Note_on_c, 9, 46, 43
6, 26135, Note_on_c, 9, 46, 0
6, 26135, Note_on_c, 9, 42, 0
6, 26135, Note_on_c, 9, 36, 0
6, 26160, Note_on_c, 9, 42, 67
6, 26168, Note_on_c, 9, 42, 0
6, 26190, Note_on_c, 9, 44, 70
6, 26190, Note_on_c, 9, 46, 38
6, 26195, Note_on_c, 9, 46, 0
6, 26195, Note_on_c, 9, 44, 0
6, 26220, Note_on_c, 9, 40, 127
6, 26220, Note_on_c, 9, 42, 71
6, 26230, Note_on_c, 9, 42, 0
6, 26230, Note_on_c, 9, 40, 0
6, 26250, Note_on_c, 9, 42, 52
6, 26250, Note_on_c, 9, 46, 45
6, 26257, Note_on_c, 9, 46, 0
6, 26258, Note_on_c, 9, 42, 0
6, 26280, Note_on_c, 9, 42, 74
6, 26285, Note_on_c, 9, 42, 0
6, 26310, Note_on_c, 9, 36, 80
6, 26310, Note_on_c, 9, 42, 93
6, 26310, Note_on_c, 9, 46, 101
6, 26321, Note_on_c, 9, 46, 0
6, 26321, Note_on_c, 9, 42, 0
6, 26321, Note_on_c, 9, 36, 0
6, 26340, Note_on_c, 9, 40, 127
6, 26340, Note_on_c, 9, 42, 83
6, 26345, Note_on_c, 9, 42, 0
6, 26345, Note_on_c, 9, 40, 0
6, 26370, Note_on_c, 9, 49, 105
6, 26370, Note_on_c, 9, 36, 112
6, 26370, Note_on_c, 9, 42, 59
6, 26378, Note_on_c, 9, 42, 0
6, 26378, Note_on_c, 9, 36, 0
6, 26378, Note_on_c, 9, 49, 0
6, 26400, Note_on_c, 9, 36, 86
6, 26400, Note_on_c, 9, 42, 76
6, 26405, Note_on_c, 9, 42, 0
6, 26405, Note_on_c, 9, 36, 0
6, 26430, Note_on_c, 9, 42, 61
6, 26435, Note_on_c, 9, 42, 0
6, 26460, Note_on_c, 9, 40, 127
6, 26460, Note_on_c, 9, 42, 78
6, 26465, Note_on_c, 9, 42, 0
6, 26465, Note_on_c, 9, 40, 0
6, 26490, Note_on_c, 9, 36, 103
6, 26490, Note_on_c, 9, 42, 70
6, 26490, Note_on_c, 9, 46, 38
6, 26495, Note_on_c, 9, 46, 0
6, 26495, Note_on_c, 9, 42, 0
6, 26495, Note_on_c, 9, 36, 0
6, 26520, Note_on_c, 9, 42, 74
6, 26525, Note_on_c, 9, 42, 0
6, 26550, Note_on_c, 9, 36, 127
6, 26550, Note_on_c, 9, 42, 79
6, 26550, Note_on_c, 9, 46, 99
6, 26556, Note_on_c, 9, 46, 0
6, 26556, Note_on_c, 9, 42, 0
6, 26556, Note_on_c, 9, 36, 0
6, 26580, Note_on_c, 9, 40, 127
6, 26580, Note_on_c, 9, 42, 74
6, 26585, Note_on_c, 9, 42, 0
6, 26585, Note_on_c, 9, 40, 0
6, 26610, Note_on_c, 9, 49, 89
6, 26610, Note_on_c, 9, 36, 127
6, 26622, Note_on_c, 9, 36, 0
6, 26622, Note_on_c, 9, 49, 0
6, 26640, Note_on_c, 9, 42, 74
6, 26645, Note_on_c, 9, 42, 0
6, 26670, Note_on_c, 9, 42, 56
6, 26670, Note_on_c, 9, 44, 80
6, 26670, Note_on_c, 9, 46, 47
6, 26675, Note_on_c, 9, 46, 0
6, 26675, Note_on_c, 9, 44, 0
6, 26675, Note_on_c, 9, 42, 0
6, 26700, Note_on_c, 9, 40, 127
6, 26700, Note_on_c, 9, 42, 74
6, 26705, Note_on_c, 9, 42, 0
6, 26705, Note_on_c, 9, 40, 0
6, 26730, Note_on_c, 9, 42, 44
6, 26730, Note_on_c, 9, 44, 64
6, 26730, Note_on_c, 9, 46, 41
6, 26735, Note_on_c, 9, 46, 0
6, 26735, Note_on_c, 9, 44, 0
6, 26735, Note_on_c, 9, 42, 0
6, 26760, Note_on_c, 9, 42, 76
6, 26765, Note_on_c, 9, 42, 0
6, 26790, Note_on_c, 9, 36, 124
6, 26790, Note_on_c, 9, 42, 62
6, 26790, Note_on_c, 9, 46, 76
6, 26798, Note_on_c, 9, 46, 0
6, 26798, Note_on_c, 9, 42, 0
6, 26798, Note_on_c, 9, 36, 0
6, 26820, Note_on_c, 9, 40, 127
6, 26820, Note_on_c, 9, 42, 77
6, 26825, Note_on_c, 9, 42, 0
6, 26825, Note_on_c, 9, 40, 0
6, 26850, Note_on_c, 9, 49, 127
6, 26850, Note_on_c, 9, 36, 121
6, 26864, Note_on_c, 9, 36, 0
6, 26864, Note_on_c, 9, 49, 0
6, 26880, Note_on_c, 9, 42, 88
6, 26885, Note_on_c, 9, 42, 0
6, 26940, Note_on_c, 9, 42, 60
6, 26945, Note_on_c, 9, 42, 0
6, 27000, Note_on_c, 9, 42, 48
6, 27005, Note_on_c, 9, 42, 0
6, 27060, Note_on_c, 9, 42, 63
6, 27065, Note_on_c, 9, 42, 0
6, 27120, Note_on_c, 9, 42, 72
6, 27125, Note_on_c, 9, 42, 0
6, 27180, Note_on_c, 9, 42, 56
6, 27185, Note_on_c, 9, 42, 0
6, 27240, Note_on_c, 9, 42, 59
6, 27245, Note_on_c, 9, 42, 0
6, 27270, Note_on_c, 9, 46, 75
6, 27275, Note_on_c, 9, 46, 0
6, 27300, Note_on_c, 9, 42, 64
6, 27305, Note_on_c, 9, 42, 0
6, 27330, Note_on_c, 9, 49, 80
6, 27330, Note_on_c, 9, 36, 99
6, 27337, Note_on_c, 9, 36, 0
6, 27337, Note_on_c, 9, 49, 0
6, 27360, Note_on_c, 9, 42, 68
6, 27365, Note_on_c, 9, 42, 0
6, 27390, Note_on_c, 9, 44, 55
6, 27395, Note_on_c, 9, 44, 0
6, 27420, Note_on_c, 9, 37, 94
6, 27420, Note_on_c, 9, 42, 68
6, 27425, Note_on_c, 9, 42, 0
6, 27425, Note_on_c, 9, 37, 0
6, 27450, Note_on_c, 9, 44, 53
6, 27455, Note_on_c, 9, 44, 0
6, 27480, Note_on_c, 9, 37, 94
6, 27480, Note_on_c, 9, 36, 82
6, 27480, Note_on_c, 9, 42, 63
6, 27485, Note_on_c, 9, 37, 0
6, 27488, Note_on_c, 9, 42, 0
6, 27488, Note_on_c, 9, 36, 0
6, 27510, Note_on_c, 9, 36, 89
6, 27510, Note_on_c, 9, 44, 51
6, 27510, Note_on_c, 9, 46, 82
6, 27519, Note_on_c, 9, 46, 0
6, 27519, Note_on_c, 9, 44, 0
6, 27519, Note_on_c, 9, 36, 0
6, 27540, Note_on_c, 9, 37, 94
6, 27540, Note_on_c, 9, 42, 72
6, 27545, Note_on_c, 9, 42, 0
6, 27545, Note_on_c, 9, 37, 0
6, 27570, Note_on_c, 9, 36, 96
6, 27570, Note_on_c, 9, 44, 49
6, 27570, Note_on_c, 9, 46, 82
6, 27580, Note_on_c, 9, 46, 0
6, 27580, Note_on_c, 9, 44, 0
6, 27580, Note_on_c, 9, 36, 0
6, 27600, Note_on_c, 9, 42, 76
6, 27605, Note_on_c, 9, 42, 0
6, 27630, Note_on_c, 9, 44, 55
6, 27635, Note_on_c, 9, 44, 0
6, 27660, Note_on_c, 9, 37, 94
6, 27660, Note_on_c, 9, 42, 63
6, 27665, Note_on_c, 9, 42, 0
6, 27665, Note_on_c, 9, 37, 0
6, 27690, Note_on_c, 9, 44, 55
6, 27695, Note_on_c, 9, 44, 0
6, 27720, Note_on_c, 9, 37, 94
6, 27720, Note_on_c, 9, 42, 62
6, 27725, Note_on_c, 9, 42, 0
6, 27750, Note_on_c, 9, 36, 95
6, 27750, Note_on_c, 9, 44, 57
6, 27750, Note_on_c, 9, 46, 84
6, 27755, Note_on_c, 9, 46, 0
6, 27755, Note_on_c, 9, 44, 0
6, 27755, Note_on_c, 9, 36, 0
6, 27780, Note_on_c, 9, 37, 0
6, 27780, Note_on_c, 9, 37, 94
6, 27780, Note_on_c, 9, 42, 66
6, 27785, Note_on_c, 9, 42, 0
6, 27810, Note_on_c, 9, 49, 69
6, 27810, Note_on_c, 9, 36, 83
6, 27810, Note_on_c, 9, 44, 54
6, 27810, Note_on_c, 9, 46, 93
6, 27815, Note_on_c, 9, 46, 0
6, 27815, Note_on_c, 9, 36, 0
6, 27815, Note_on_c, 9, 44, 0
6, 27815, Note_on_c, 9, 49, 0
6, 27840, Note_on_c, 9, 37, 0
6, 27840, Note_on_c, 9, 42, 68
6, 27845, Note_on_c, 9, 42, 0
6, 27870, Note_on_c, 9, 44, 55
6, 27875, Note_on_c, 9, 44, 0
6, 27900, Note_on_c, 9, 37, 94
6, 27900, Note_on_c, 9, 42, 68
6, 27905, Note_on_c, 9, 42, 0
6, 27905, Note_on_c, 9, 37, 0
6, 27930, Note_on_c, 9, 44, 53
6, 27935, Note_on_c, 9, 44, 0
6, 27960, Note_on_c, 9, 42, 63
6, 27967, Note_on_c, 9, 42, 0
6, 27990, Note_on_c, 9, 44, 83
6, 27995, Note_on_c, 9, 44, 0
6, 28020, Note_on_c, 9, 37, 94
6, 28020, Note_on_c, 9, 42, 72
6, 28025, Note_on_c, 9, 42, 0
6, 28025, Note_on_c, 9, 37, 0
6, 28050, Note_on_c, 9, 36, 103
6, 28050, Note_on_c, 9, 46, 76
6, 28058, Note_on_c, 9, 46, 0
6, 28058, Note_on_c, 9, 36, 0
6, 28080, Note_on_c, 9, 42, 76
6, 28085, Note_on_c, 9, 42, 0
6, 28110, Note_on_c, 9, 36, 90
6, 28110, Note_on_c, 9, 46, 75
6, 28119, Note_on_c, 9, 46, 0
6, 28119, Note_on_c, 9, 36, 0
6, 28140, Note_on_c, 9, 42, 63
6, 28145, Note_on_c, 9, 42, 0
6, 28170, Note_on_c, 9, 36, 78
6, 28170, Note_on_c, 9, 46, 77
6, 28178, Note_on_c, 9, 46, 0
6, 28178, Note_on_c, 9, 36, 0
6, 28200, Note_on_c, 9, 42, 62
6, 28205, Note_on_c, 9, 42, 0
6, 28230, Note_on_c, 9, 36, 83
6, 28230, Note_on_c, 9, 46, 88
6, 28237, Note_on_c, 9, 46, 0
6, 28238, Note_on_c, 9, 36, 0
6, 28260, Note_on_c, 9, 42, 66
6, 28265, Note_on_c, 9, 42, 0
6, 28290, Note_on_c, 9, 49, 76
6, 28290, Note_on_c, 9, 36, 80
6, 28298, Note_on_c, 9, 36, 0
6, 28298, Note_on_c, 9, 49, 0
6, 28320, Note_on_c, 9, 42, 68
6, 28325, Note_on_c, 9, 42, 0
6, 28350, Note_on_c, 9, 44, 55
6, 28355, Note_on_c, 9, 44, 0
6, 28380, Note_on_c, 9, 37, 94
6, 28380, Note_on_c, 9, 42, 68
6, 28385, Note_on_c, 9, 42, 0
6, 28385, Note_on_c, 9, 37, 0
6, 28410, Note_on_c, 9, 44, 53
6, 28415, Note_on_c, 9, 44, 0
6, 28440, Note_on_c, 9, 37, 94
6, 28440, Note_on_c, 9, 36, 82
6, 28440, Note_on_c, 9, 42, 63
6, 28445, Note_on_c, 9, 37, 0
6, 28448, Note_on_c, 9, 42, 0
6, 28448, Note_on_c, 9, 36, 0
6, 28470, Note_on_c, 9, 36, 89
6, 28470, Note_on_c, 9, 44, 51
6, 28470, Note_on_c, 9, 46, 82
6, 28477, Note_on_c, 9, 46, 0
6, 28477, Note_on_c, 9, 44, 0
6, 28477, Note_on_c, 9, 36, 0
6, 28500, Note_on_c, 9, 37, 94
6, 28500, Note_on_c, 9, 42, 72
6, 28505, Note_on_c, 9, 42, 0
6, 28505, Note_on_c, 9, 37, 0
6, 28530, Note_on_c, 9, 49, 89
6, 28530, Note_on_c, 9, 36, 96
6, 28530, Note_on_c, 9, 44, 49
6, 28530, Note_on_c, 9, 46, 82
6, 28540, Note_on_c, 9, 46, 0
6, 28540, Note_on_c, 9, 49, 0
6, 28540, Note_on_c, 9, 36, 0
6, 28540, Note_on_c, 9, 44, 0
6, 28560, Note_on_c, 9, 42, 76
6, 28565, Note_on_c, 9, 42, 0
6, 28590, Note_on_c, 9, 44, 55
6, 28595, Note_on_c, 9, 44, 0
6, 28620, Note_on_c, 9, 37, 94
6, 28620, Note_on_c, 9, 42, 63
6, 28625, Note_on_c, 9, 42, 0
6, 28625, Note_on_c, 9, 37, 0
6, 28650, Note_on_c, 9, 44, 55
6, 28655, Note_on_c, 9, 44, 0
6, 28680, Note_on_c, 9, 42, 62
6, 28685, Note_on_c, 9, 42, 0
6, 28710, Note_on_c, 9, 36, 95
6, 28710, Note_on_c, 9, 44, 57
6, 28710, Note_on_c, 9, 46, 84
6, 28715, Note_on_c, 9, 46, 0
6, 28715, Note_on_c, 9, 44, 0
6, 28715, Note_on_c, 9, 36, 0
6, 28740, Note_on_c, 9, 37, 94
6, 28740, Note_on_c, 9, 42, 66
6, 28745, Note_on_c, 9, 42, 0
6, 28745, Note_on_c, 9, 37, 0
6, 28770, Note_on_c, 9, 49, 69
6, 28770, Note_on_c, 9, 36, 83
6, 28770, Note_on_c, 9, 44, 54
6, 28770, Note_on_c, 9, 46, 93
6, 28775, Note_on_c, 9, 46, 0
6, 28775, Note_on_c, 9, 49, 0
6, 28775, Note_on_c, 9, 36, 0
6, 28775, Note_on_c, 9, 44, 0
6, 28800, Note_on_c, 9, 42, 68
6, 28805, Note_on_c, 9, 42, 0
6, 28830, Note_on_c, 9, 44, 55
6, 28835, Note_on_c, 9, 44, 0
6, 28860, Note_on_c, 9, 37, 94
6, 28860, Note_on_c, 9, 42, 68
6, 28865, Note_on_c, 9, 42, 0
6, 28865, Note_on_c, 9, 37, 0
6, 28890, Note_on_c, 9, 44, 53
6, 28895, Note_on_c, 9, 44, 0
6, 28920, Note_on_c, 9, 42, 63
6, 28927, Note_on_c, 9, 42, 0
6, 28950, Note_on_c, 9, 44, 83
6, 28955, Note_on_c, 9, 44, 0
6, 28980, Note_on_c, 9, 37, 94
6, 28980, Note_on_c, 9, 42, 72
6, 28985, Note_on_c, 9, 42, 0
6, 28985, Note_on_c, 9, 37, 0
6, 29010, Note_on_c, 9, 36, 103
6, 29010, Note_on_c, 9, 46, 76
6, 29018, Note_on_c, 9, 46, 0
6, 29018, Note_on_c, 9, 36, 0
6, 29040, Note_on_c, 9, 42, 76
6, 29045, Note_on_c, 9, 42, 0
6, 29070, Note_on_c, 9, 36, 90
6, 29070, Note_on_c, 9, 46, 75
6, 29078, Note_on_c, 9, 46, 0
6, 29078, Note_on_c, 9, 36, 0
6, 29100, Note_on_c, 9, 42, 63
6, 29105, Note_on_c, 9, 42, 0
6, 29130, Note_on_c, 9, 36, 78
6, 29130, Note_on_c, 9, 46, 77
6, 29138, Note_on_c, 9, 46, 0
6, 29138, Note_on_c, 9, 36, 0
6, 29160, Note_on_c, 9, 42, 62
6, 29165, Note_on_c, 9, 42, 0
6, 29190, Note_on_c, 9, 36, 83
6, 29190, Note_on_c, 9, 46, 88
6, 29198, Note_on_c, 9, 46, 0
6, 29198, Note_on_c, 9, 36, 0
6, 29220, Note_on_c, 9, 42, 66
6, 29225, Note_on_c, 9, 42, 0
6, 29250, Note_on_c, 9, 49, 76
6, 29250, Note_on_c, 9, 36, 80
6, 29257, Note_on_c, 9, 36, 0
6, 29257, Note_on_c, 9, 49, 0
6, 29280, Note_on_c, 9, 42, 57
6, 29285, Note_on_c, 9, 42, 0
6, 29340, Note_on_c, 9, 40, 102
6, 29340, Note_on_c, 9, 42, 60
6, 29340, Note_on_c, 9, 44, 69
6, 29345, Note_on_c, 9, 44, 0
6, 29345, Note_on_c, 9, 42, 0
6, 29345, Note_on_c, 9, 40, 0
6, 29370, Note_on_c, 9, 46, 72
6, 29375, Note_on_c, 9, 46, 0
6, 29400, Note_on_c, 9, 42, 61
6, 29405, Note_on_c, 9, 42, 0
6, 29430, Note_on_c, 9, 36, 83
6, 29430, Note_on_c, 9, 44, 67
6, 29435, Note_on_c, 9, 44, 0
6, 29435, Note_on_c, 9, 36, 0
6, 29460, Note_on_c, 9, 40, 108
6, 29460, Note_on_c, 9, 42, 67
6, 29465, Note_on_c, 9, 42, 0
6, 29465, Note_on_c, 9, 40, 0
6, 29490, Note_on_c, 9, 49, 71
6, 29490, Note_on_c, 9, 36, 93
6, 29497, Note_on_c, 9, 36, 0
6, 29497, Note_on_c, 9, 49, 0
6, 29520, Note_on_c, 9, 42, 67
6, 29525, Note_on_c, 9, 42, 0
6, 29550, Note_on_c, 9, 46, 78
6, 29555, Note_on_c, 9, 46, 0
6, 29580, Note_on_c, 9, 40, 116
6, 29580, Note_on_c, 9, 42, 62
6, 29585, Note_on_c, 9, 42, 0
6, 29585, Note_on_c, 9, 40, 0
6, 29610, Note_on_c, 9, 44, 72
6, 29610, Note_on_c, 9, 46, 95
6, 29615, Note_on_c, 9, 46, 0
6, 29615, Note_on_c, 9, 44, 0
6, 29640, Note_on_c, 9, 42, 73
6, 29645, Note_on_c, 9, 42, 0
6, 29670, Note_on_c, 9, 36, 99
6, 29670, Note_on_c, 9, 46, 82
6, 29675, Note_on_c, 9, 46, 0
6, 29675, Note_on_c, 9, 36, 0
6, 29700, Note_on_c, 9, 40, 127
6, 29700, Note_on_c, 9, 42, 62
6, 29705, Note_on_c, 9, 42, 0
6, 29705, Note_on_c, 9, 40, 0
6, 29730, Note_on_c, 9, 49, 94
6, 29737, Note_on_c, 9, 49, 0
6, 29760, Note_on_c, 9, 36, 96
6, 29760, Note_on_c, 9, 42, 57
6, 29765, Note_on_c, 9, 42, 0
6, 29765, Note_on_c, 9, 36, 0
6, 29820, Note_on_c, 9, 40, 102
6, 29820, Note_on_c, 9, 42, 60
6, 29820, Note_on_c, 9, 44, 69
6, 29825, Note_on_c, 9, 44, 0
6, 29825, Note_on_c, 9, 42, 0
6, 29825, Note_on_c, 9, 40, 0
6, 29850, Note_on_c, 9, 46, 72
6, 29855, Note_on_c, 9, 46, 0
6, 29880, Note_on_c, 9, 42, 61
6, 29885, Note_on_c, 9, 42, 0
6, 29910, Note_on_c, 9, 36, 83
6, 29910, Note_on_c, 9, 44, 67
6, 29918, Note_on_c, 9, 44, 0
6, 29918, Note_on_c, 9, 36, 0
6, 29940, Note_on_c, 9, 40, 108
6, 29940, Note_on_c, 9, 42, 67
6, 29945, Note_on_c, 9, 42, 0
6, 29945, Note_on_c, 9, 40, 0
6, 29970, Note_on_c, 9, 49, 89
6, 29970, Note_on_c, 9, 36, 93
6, 29979, Note_on_c, 9, 36, 0
6, 29979, Note_on_c, 9, 49, 0
6, 30000, Note_on_c, 9, 42, 67
6, 30005, Note_on_c, 9, 42, 0
6, 30060, Note_on_c, 9, 40, 116
6, 30060, Note_on_c, 9, 42, 62
6, 30065, Note_on_c, 9, 42, 0
6, 30065, Note_on_c, 9, 40, 0
6, 30090, Note_on_c, 9, 44, 72
6, 30095, Note_on_c, 9, 44, 0
6, 30120, Note_on_c, 9, 42, 73
6, 30125, Note_on_c, 9, 42, 0
6, 30150, Note_on_c, 9, 36, 99
6, 30150, Note_on_c, 9, 46, 82
6, 30155, Note_on_c, 9, 46, 0
6, 30155, Note_on_c, 9, 36, 0
6, 30180, Note_on_c, 9, 40, 127
6, 30180, Note_on_c, 9, 42, 62
6, 30185, Note_on_c, 9, 42, 0
6, 30185, Note_on_c, 9, 40, 0
6, 30210, Note_on_c, 9, 49, 109
6, 30221, Note_on_c, 9, 49, 0
6, 30240, Note_on_c, 9, 36, 96
6, 30240, Note_on_c, 9, 42, 57
6, 30245, Note_on_c, 9, 42, 0
6, 30245, Note_on_c, 9, 36, 0
6, 30300, Note_on_c, 9, 40, 102
6, 30300, Note_on_c, 9, 42, 60
6, 30300, Note_on_c, 9, 44, 69
6, 30305, Note_on_c, 9, 44, 0
6, 30305, Note_on_c, 9, 42, 0
6, 30305, Note_on_c, 9, 40, 0
6, 30330, Note_on_c, 9, 46, 72
6, 30335, Note_on_c, 9, 46, 0
6, 30360, Note_on_c, 9, 42, 61
6, 30365, Note_on_c, 9, 42, 0
6, 30390, Note_on_c, 9, 36, 83
6, 30390, Note_on_c, 9, 44, 67
6, 30395, Note_on_c, 9, 44, 0
6, 30395, Note_on_c, 9, 36, 0
6, 30420, Note_on_c, 9, 40, 108
6, 30420, Note_on_c, 9, 42, 67
6, 30425, Note_on_c, 9, 42, 0
6, 30425, Note_on_c, 9, 40, 0
6, 30450, Note_on_c, 9, 49, 89
6, 30450, Note_on_c, 9, 36, 93
6, 30458, Note_on_c, 9, 36, 0
6, 30458, Note_on_c, 9, 49, 0
6, 30480, Note_on_c, 9, 42, 67
6, 30485, Note_on_c, 9, 42, 0
6, 30540, Note_on_c, 9, 40, 116
6, 30540, Note_on_c, 9, 42, 62
6, 30545, Note_on_c, 9, 42, 0
6, 30545, Note_on_c, 9, 40, 0
6, 30570, Note_on_c, 9, 44, 72
6, 30575, Note_on_c, 9, 44, 0
6, 30600, Note_on_c, 9, 42, 73
6, 30605, Note_on_c, 9, 42, 0
6, 30630, Note_on_c, 9, 36, 99
6, 30630, Note_on_c, 9, 46, 82
6, 30635, Note_on_c, 9, 46, 0
6, 30635, Note_on_c, 9, 36, 0
6, 30660, Note_on_c, 9, 40, 127
6, 30660, Note_on_c, 9, 42, 62
6, 30666, Note_on_c, 9, 42, 0
6, 30666, Note_on_c, 9, 40, 0
6, 30690, Note_on_c, 9, 49, 109
6, 30700, Note_on_c, 9, 49, 0
6, 30720, Note_on_c, 9, 37, 69
6, 30720, Note_on_c, 9, 42, 88
6, 30725, Note_on_c, 9, 42, 0
6, 30725, Note_on_c, 9, 37, 0
6, 30750, Note_on_c, 9, 46, 67
6, 30755, Note_on_c, 9, 46, 0
6, 30780, Note_on_c, 9, 37, 66
6, 30780, Note_on_c, 9, 42, 60
6, 30785, Note_on_c, 9, 42, 0
6, 30785, Note_on_c, 9, 37, 0
6, 30810, Note_on_c, 9, 46, 54
6, 30815, Note_on_c, 9, 46, 0
6, 30840, Note_on_c, 9, 37, 73
6, 30840, Note_on_c, 9, 42, 48
6, 30845, Note_on_c, 9, 42, 0
6, 30845, Note_on_c, 9, 37, 0
6, 30870, Note_on_c, 9, 46, 45
6, 30875, Note_on_c, 9, 46, 0
6, 30900, Note_on_c, 9, 37, 68
6, 30900, Note_on_c, 9, 42, 63
6, 30905, Note_on_c, 9, 42, 0
6, 30905, Note_on_c, 9, 37, 0
6, 30930, Note_on_c, 9, 46, 47
6, 30935, Note_on_c, 9, 46, 0
6, 30960, Note_on_c, 9, 37, 75
6, 30960, Note_on_c, 9, 42, 72
6, 30965, Note_on_c, 9, 42, 0
6, 30965, Note_on_c, 9, 37, 0
6, 30990, Note_on_c, 9, 46, 54
6, 30995, Note_on_c, 9, 46, 0
6, 31020, Note_on_c, 9, 37, 70
6, 31020, Note_on_c, 9, 42, 56
6, 31025, Note_on_c, 9, 42, 0
6, 31025, Note_on_c, 9, 37, 0
6, 31050, Note_on_c, 9, 46, 45
6, 31055, Note_on_c, 9, 46, 0
6, 31080, Note_on_c, 9, 37, 63
6, 31080, Note_on_c, 9, 42, 59
6, 31085, Note_on_c, 9, 42, 0
6, 31085, Note_on_c, 9, 37, 0
6, 31110, Note_on_c, 9, 36, 117
6, 31110, Note_on_c, 9, 46, 83
6, 31115, Note_on_c, 9, 46, 0
6, 31115, Note_on_c, 9, 36, 0
6, 31140, Note_on_c, 9, 37, 72
6, 31140, Note_on_c, 9, 42, 64
6, 31145, Note_on_c, 9, 42, 0
6, 31145, Note_on_c, 9, 37, 0
6, 31170, Note_on_c, 9, 49, 80
6, 31170, Note_on_c, 9, 36, 99
6, 31177, Note_on_c, 9, 36, 0
6, 31177, Note_on_c, 9, 49, 0
6, 31200, Note_on_c, 9, 42, 68
6, 31205, Note_on_c, 9, 42, 0
6, 31230, Note_on_c, 9, 44, 55
6, 31235, Note_on_c, 9, 44, 0
6, 31260, Note_on_c, 9, 37, 94
6, 31260, Note_on_c, 9, 42, 68
6, 31265, Note_on_c, 9, 42, 0
6, 31265, Note_on_c, 9, 37, 0
6, 31290, Note_on_c, 9, 44, 53
6, 31295, Note_on_c, 9, 44, 0
6, 31320, Note_on_c, 9, 36, 82
6, 31320, Note_on_c, 9, 42, 63
6, 31328, Note_on_c, 9, 42, 0
6, 31328, Note_on_c, 9, 36, 0
6, 31350, Note_on_c, 9, 36, 89
6, 31350, Note_on_c, 9, 44, 51
6, 31350, Note_on_c, 9, 46, 82
6, 31359, Note_on_c, 9, 46, 0
6, 31359, Note_on_c, 9, 44, 0
6, 31359, Note_on_c, 9, 36, 0
6, 31380, Note_on_c, 9, 42, 72
6, 31385, Note_on_c, 9, 42, 0
6, 31410, Note_on_c, 9, 36, 96
6, 31410, Note_on_c, 9, 44, 49
6, 31410, Note_on_c, 9, 46, 82
6, 31418, Note_on_c, 9, 46, 0
6, 31418, Note_on_c, 9, 44, 0
6, 31418, Note_on_c, 9, 36, 0
6, 31440, Note_on_c, 9, 42, 76
6, 31445, Note_on_c, 9, 42, 0
6, 31470, Note_on_c, 9, 44, 55
6, 31475, Note_on_c, 9, 44, 0
6, 31500, Note_on_c, 9, 37, 94
6, 31500, Note_on_c, 9, 42, 63
6, 31505, Note_on_c, 9, 42, 0
6, 31505, Note_on_c, 9, 37, 0
6, 31530, Note_on_c, 9, 44, 55
6, 31535, Note_on_c, 9, 44, 0
6, 31560, Note_on_c, 9, 42, 62
6, 31565, Note_on_c, 9, 42, 0
6, 31590, Note_on_c, 9, 36, 95
6, 31590, Note_on_c, 9, 44, 57
6, 31590, Note_on_c, 9, 46, 84
6, 31595, Note_on_c, 9, 46, 0
6, 31595, Note_on_c, 9, 44, 0
6, 31595, Note_on_c, 9, 36, 0
6, 31620, Note_on_c, 9, 42, 66
6, 31625, Note_on_c, 9, 42, 0
6, 31650, Note_on_c, 9, 49, 69
6, 31650, Note_on_c, 9, 36, 83
6, 31650, Note_on_c, 9, 44, 54
6, 31650, Note_on_c, 9, 46, 93
6, 31654, Note_on_c, 9, 46, 0
6, 31655, Note_on_c, 9, 49, 0
6, 31655, Note_on_c, 9, 36, 0
6, 31655, Note_on_c, 9, 44, 0
6, 31680, Note_on_c, 9, 42, 68
6, 31685, Note_on_c, 9, 42, 0
6, 31710, Note_on_c, 9, 44, 55
6, 31715, Note_on_c, 9, 44, 0
6, 31740, Note_on_c, 9, 37, 94
6, 31740, Note_on_c, 9, 42, 68
6, 31745, Note_on_c, 9, 42, 0
6, 31745, Note_on_c, 9, 37, 0
6, 31770, Note_on_c, 9, 44, 53
6, 31775, Note_on_c, 9, 44, 0
6, 31800, Note_on_c, 9, 42, 63
6, 31807, Note_on_c, 9, 42, 0
6, 31830, Note_on_c, 9, 44, 83
6, 31835, Note_on_c, 9, 44, 0
6, 31860, Note_on_c, 9, 42, 72
6, 31865, Note_on_c, 9, 42, 0
6, 31890, Note_on_c, 9, 36, 103
6, 31890, Note_on_c, 9, 46, 76
6, 31898, Note_on_c, 9, 46, 0
6, 31899, Note_on_c, 9, 36, 0
6, 31920, Note_on_c, 9, 42, 76
6, 31925, Note_on_c, 9, 42, 0
6, 31950, Note_on_c, 9, 36, 90
6, 31950, Note_on_c, 9, 46, 75
6, 31959, Note_on_c, 9, 46, 0
6, 31959, Note_on_c, 9, 36, 0
6, 31980, Note_on_c, 9, 37, 94
6, 31980, Note_on_c, 9, 42, 63
6, 31985, Note_on_c, 9, 42, 0
6, 31985, Note_on_c, 9, 37, 0
6, 32010, Note_on_c, 9, 36, 78
6, 32010, Note_on_c, 9, 46, 77
6, 32018, Note_on_c, 9, 46, 0
6, 32018, Note_on_c, 9, 36, 0
6, 32040, Note_on_c, 9, 42, 62
6, 32045, Note_on_c, 9, 42, 0
6, 32070, Note_on_c, 9, 36, 83
6, 32070, Note_on_c, 9, 46, 88
6, 32077, Note_on_c, 9, 46, 0
6, 32077, Note_on_c, 9, 36, 0
6, 32100, Note_on_c, 9, 42, 66
6, 32105, Note_on_c, 9, 42, 0
6, 32130, Note_on_c, 9, 49, 76
6, 32130, Note_on_c, 9, 36, 80
6, 32137, Note_on_c, 9, 36, 0
6, 32137, Note_on_c, 9, 49, 0
6, 32160, Note_on_c, 9, 42, 68
6, 32165, Note_on_c, 9, 42, 0
6, 32190, Note_on_c, 9, 44, 55
6, 32195, Note_on_c, 9, 44, 0
6, 32220, Note_on_c, 9, 37, 94
6, 32220, Note_on_c, 9, 42, 68
6, 32225, Note_on_c, 9, 42, 0
6, 32225, Note_on_c, 9, 37, 0
6, 32250, Note_on_c, 9, 44, 53
6, 32255, Note_on_c, 9, 44, 0
6, 32280, Note_on_c, 9, 36, 82
6, 32280, Note_on_c, 9, 42, 63
6, 32287, Note_on_c, 9, 42, 0
6, 32287, Note_on_c, 9, 36, 0
6, 32310, Note_on_c, 9, 36, 89
6, 32310, Note_on_c, 9, 44, 51
6, 32310, Note_on_c, 9, 46, 82
6, 32318, Note_on_c, 9, 46, 0
6, 32318, Note_on_c, 9, 44, 0
6, 32319, Note_on_c, 9, 36, 0
6, 32340, Note_on_c, 9, 42, 72
6, 32345, Note_on_c, 9, 42, 0
6, 32370, Note_on_c, 9, 49, 89
6, 32370, Note_on_c, 9, 36, 96
6, 32370, Note_on_c, 9, 44, 49
6, 32370, Note_on_c, 9, 46, 82
6, 32381, Note_on_c, 9, 46, 0
6, 32381, Note_on_c, 9, 49, 0
6, 32381, Note_on_c, 9, 36, 0
6, 32381, Note_on_c, 9, 44, 0
6, 32400, Note_on_c, 9, 42, 76
6, 32405, Note_on_c, 9, 42, 0
6, 32430, Note_on_c, 9, 44, 55
6, 32435, Note_on_c, 9, 44, 0
6, 32460, Note_on_c, 9, 37, 94
6, 32460, Note_on_c, 9, 42, 63
6, 32465, Note_on_c, 9, 42, 0
6, 32465, Note_on_c, 9, 37, 0
6, 32490, Note_on_c, 9, 44, 55
6, 32495, Note_on_c, 9, 44, 0
6, 32520, Note_on_c, 9, 42, 62
6, 32525, Note_on_c, 9, 42, 0
6, 32550, Note_on_c, 9, 36, 95
6, 32550, Note_on_c, 9, 44, 57
6, 32550, Note_on_c, 9, 46, 84
6, 32555, Note_on_c, 9, 46, 0
6, 32555, Note_on_c, 9, 44, 0
6, 32555, Note_on_c, 9, 36, 0
6, 32580, Note_on_c, 9, 42, 66
6, 32585, Note_on_c, 9, 42, 0
6, 32610, Note_on_c, 9, 49, 69
6, 32610, Note_on_c, 9, 36, 83
6, 32610, Note_on_c, 9, 44, 54
6, 32610, Note_on_c, 9, 46, 93
6, 32615, Note_on_c, 9, 46, 0
6, 32615, Note_on_c, 9, 44, 0
6, 32615, Note_on_c, 9, 36, 0
6, 32616, Note_on_c, 9, 49, 0
6, 32640, Note_on_c, 9, 42, 68
6, 32645, Note_on_c, 9, 42, 0
6, 32670, Note_on_c, 9, 44, 55
6, 32675, Note_on_c, 9, 44, 0
6, 32700, Note_on_c, 9, 37, 94
6, 32700, Note_on_c, 9, 42, 68
6, 32705, Note_on_c, 9, 42, 0
6, 32705, Note_on_c, 9, 37, 0
6, 32730, Note_on_c, 9, 44, 53
6, 32735, Note_on_c, 9, 44, 0
6, 32760, Note_on_c, 9, 42, 63
6, 32767, Note_on_c, 9, 42, 0
6, 32790, Note_on_c, 9, 44, 83
6, 32795, Note_on_c, 9, 44, 0
6, 32820, Note_on_c, 9, 42, 72
6, 32825, Note_on_c, 9, 42, 0
6, 32850, Note_on_c, 9, 36, 103
6, 32850, Note_on_c, 9, 46, 76
6, 32858, Note_on_c, 9, 46, 0
6, 32858, Note_on_c, 9, 36, 0
6, 32880, Note_on_c, 9, 42, 76
6, 32884, Note_on_c, 9, 42, 0
6, 32910, Note_on_c, 9, 36, 90
6, 32910, Note_on_c, 9, 46, 75
6, 32918, Note_on_c, 9, 46, 0
6, 32918, Note_on_c, 9, 36, 0
6, 32940, Note_on_c, 9, 37, 94
6, 32940, Note_on_c, 9, 42, 63
6, 32945, Note_on_c, 9, 42, 0
6, 32945, Note_on_c, 9, 37, 0
6, 32970, Note_on_c, 9, 36, 78
6, 32970, Note_on_c, 9, 46, 77
6, 32978, Note_on_c, 9, 46, 0
6, 32978, Note_on_c, 9, 36, 0
6, 33000, Note_on_c, 9, 42, 62
6, 33005, Note_on_c, 9, 42, 0
6, 33030, Note_on_c, 9, 36, 83
6, 33030, Note_on_c, 9, 46, 88
6, 33038, Note_on_c, 9, 46, 0
6, 33038, Note_on_c, 9, 36, 0
6, 33060, Note_on_c, 9, 42, 66
6, 33065, Note_on_c, 9, 42, 0
6, 33090, Note_on_c, 9, 49, 76
6, 33090, Note_on_c, 9, 36, 80
6, 33098, Note_on_c, 9, 49, 0
6, 33099, Note_on_c, 9, 36, 0
6, 33120, Note_on_c, 9, 36, 96
6, 33120, Note_on_c, 9, 42, 57
6, 33125, Note_on_c, 9, 42, 0
6, 33125, Note_on_c, 9, 36, 0
6, 33180, Note_on_c, 9, 40, 102
6, 33180, Note_on_c, 9, 42, 60
6, 33180, Note_on_c, 9, 44, 69
6, 33185, Note_on_c, 9, 44, 0
6, 33185, Note_on_c, 9, 42, 0
6, 33185, Note_on_c, 9, 40, 0
6, 33210, Note_on_c, 9, 46, 72
6, 33215, Note_on_c, 9, 46, 0
6, 33240, Note_on_c, 9, 42, 61
6, 33245, Note_on_c, 9, 42, 0
6, 33270, Note_on_c, 9, 36, 83
6, 33270, Note_on_c, 9, 44, 67
6, 33275, Note_on_c, 9, 44, 0
6, 33275, Note_on_c, 9, 36, 0
6, 33300, Note_on_c, 9, 40, 108
6, 33300, Note_on_c, 9, 42, 67
6, 33305, Note_on_c, 9, 42, 0
6, 33305, Note_on_c, 9, 40, 0
6, 33330, Note_on_c, 9, 49, 89
6, 33330, Note_on_c, 9, 36, 93
6, 33338, Note_on_c, 9, 36, 0
6, 33338, Note_on_c, 9, 49, 0
6, 33360, Note_on_c, 9, 42, 67
6, 33365, Note_on_c, 9, 42, 0
6, 33420, Note_on_c, 9, 40, 116
6, 33420, Note_on_c, 9, 42, 62
6, 33425, Note_on_c, 9, 42, 0
6, 33425, Note_on_c, 9, 40, 0
6, 33450, Note_on_c, 9, 44, 72
6, 33455, Note_on_c, 9, 44, 0
6, 33480, Note_on_c, 9, 42, 73
6, 33485, Note_on_c, 9, 42, 0
6, 33510, Note_on_c, 9, 36, 99
6, 33510, Note_on_c, 9, 46, 82
6, 33515, Note_on_c, 9, 46, 0
6, 33515, Note_on_c, 9, 36, 0
6, 33540, Note_on_c, 9, 40, 127
6, 33540, Note_on_c, 9, 42, 62
6, 33545, Note_on_c, 9, 42, 0
6, 33545, Note_on_c, 9, 40, 0
6, 33570, Note_on_c, 9, 49, 109
6, 33577, Note_on_c, 9, 49, 0
6, 33600, Note_on_c, 9, 36, 96
6, 33600, Note_on_c, 9, 42, 57
6, 33605, Note_on_c, 9, 42, 0
6, 33605, Note_on_c, 9, 36, 0
6, 33660, Note_on_c, 9, 40, 102
6, 33660, Note_on_c, 9, 42, 60
6, 33660, Note_on_c, 9, 44, 69
6, 33665, Note_on_c, 9, 44, 0
6, 33665, Note_on_c, 9, 42, 0
6, 33665, Note_on_c, 9, 40, 0
6, 33690, Note_on_c, 9, 46, 72
6, 33696, Note_on_c, 9, 46, 0
6, 33720, Note_on_c, 9, 42, 61
6, 33725, Note_on_c, 9, 42, 0
6, 33750, Note_on_c, 9, 36, 83
6, 33750, Note_on_c, 9, 44, 67
6, 33757, Note_on_c, 9, 44, 0
6, 33757, Note_on_c, 9, 36, 0
6, 33780, Note_on_c, 9, 40, 108
6, 33780, Note_on_c, 9, 42, 67
6, 33785, Note_on_c, 9, 42, 0
6, 33785, Note_on_c, 9, 40, 0
6, 33810, Note_on_c, 9, 49, 89
6, 33810, Note_on_c, 9, 36, 93
6, 33820, Note_on_c, 9, 36, 0
6, 33820, Note_on_c, 9, 49, 0
6, 33840, Note_on_c, 9, 42, 67
6, 33845, Note_on_c, 9, 42, 0
6, 33900, Note_on_c, 9, 40, 116
6, 33900, Note_on_c, 9, 42, 62
6, 33905, Note_on_c, 9, 42, 0
6, 33905, Note_on_c, 9, 40, 0
6, 33930, Note_on_c, 9, 44, 72
6, 33935, Note_on_c, 9, 44, 0
6, 33960, Note_on_c, 9, 42, 73
6, 33965, Note_on_c, 9, 42, 0
6, 33990, Note_on_c, 9, 36, 99
6, 33990, Note_on_c, 9, 46, 82
6, 33995, Note_on_c, 9, 46, 0
6, 33995, Note_on_c, 9, 36, 0
6, 34020, Note_on_c, 9, 40, 127
6, 34020, Note_on_c, 9, 42, 62
6, 34025, Note_on_c, 9, 42, 0
6, 34025, Note_on_c, 9, 40, 0
6, 34050, Note_on_c, 9, 49, 109
6, 34062, Note_on_c, 9, 49, 0
6, 34080, Note_on_c, 9, 36, 96
6, 34080, Note_on_c, 9, 42, 57
6, 34085, Note_on_c, 9, 42, 0
6, 34085, Note_on_c, 9, 36, 0
6, 34140, Note_on_c, 9, 40, 102
6, 34140, Note_on_c, 9, 42, 60
6, 34140, Note_on_c, 9, 44, 69
6, 34145, Note_on_c, 9, 44, 0
6, 34145, Note_on_c, 9, 42, 0
6, 34145, Note_on_c, 9, 40, 0
6, 34170, Note_on_c, 9, 46, 72
6, 34175, Note_on_c, 9, 46, 0
6, 34200, Note_on_c, 9, 42, 61
6, 34205, Note_on_c, 9, 42, 0
6, 34230, Note_on_c, 9, 36, 83
6, 34230, Note_on_c, 9, 44, 67
6, 34235, Note_on_c, 9, 44, 0
6, 34235, Note_on_c, 9, 36, 0
6, 34260, Note_on_c, 9, 40, 108
6, 34260, Note_on_c, 9, 42, 67
6, 34265, Note_on_c, 9, 42, 0
6, 34265, Note_on_c, 9, 40, 0
6, 34290, Note_on_c, 9, 49, 89
6, 34290, Note_on_c, 9, 36, 93
6, 34297, Note_on_c, 9, 36, 0
6, 34297, Note_on_c, 9, 49, 0
6, 34320, Note_on_c, 9, 42, 67
6, 34325, Note_on_c, 9, 42, 0
6, 34380, Note_on_c, 9, 40, 116
6, 34380, Note_on_c, 9, 42, 62
6, 34385, Note_on_c, 9, 42, 0
6, 34385, Note_on_c, 9, 40, 0
6, 34410, Note_on_c, 9, 44, 72
6, 34415, Note_on_c, 9, 44, 0
6, 34440, Note_on_c, 9, 42, 73
6, 34445, Note_on_c, 9, 42, 0
6, 34470, Note_on_c, 9, 49, 56
6, 34470, Note_on_c, 9, 36, 99
6, 34470, Note_on_c, 9, 46, 82
6, 34477, Note_on_c, 9, 46, 0
6, 34477, Note_on_c, 9, 36, 0
6, 34477, Note_on_c, 9, 49, 0
6, 34500, Note_on_c, 9, 42, 62
6, 34505, Note_on_c, 9, 42, 0
6, 34530, Note_on_c, 9, 49, 76
6, 34530, Note_on_c, 9, 36, 127
6, 34530, Note_on_c, 9, 42, 127
6, 34535, Note_on_c, 9, 42, 0
6, 34535, Note_on_c, 9, 36, 0
6, 34535, Note_on_c, 9, 49, 0
6, 34560, Note_on_c, 9, 49, 124
6, 34560, Note_on_c, 9, 36, 127
6, 34571, Note_on_c, 9, 36, 0
6, 34571, Note_on_c, 9, 49, 0
6, 34650, Note_on_c, 9, 36, 117
6, 34650, Note_on_c, 9, 46, 86
6, 34655, Note_on_c, 9, 46, 0
6, 34655, Note_on_c, 9, 36, 0
6, 34680, Note_on_c, 9, 42, 62
6, 34685, Note_on_c, 9, 42, 0
6, 34710, Note_on_c, 9, 36, 119
6, 34710, Note_on_c, 9, 46, 78
6, 34715, Note_on_c, 9, 46, 0
6, 34715, Note_on_c, 9, 36, 0
6, 34740, Note_on_c, 9, 42, 57
6, 34745, Note_on_c, 9, 42, 0
6, 34770, Note_on_c, 9, 36, 127
6, 34770, Note_on_c, 9, 46, 89
6, 34782, Note_on_c, 9, 46, 0
6, 34782, Note_on_c, 9, 36, 0
6, 34800, Note_on_c, 9, 42, 41
6, 34805, Note_on_c, 9, 42, 0
6, 34830, Note_on_c, 9, 40, 69
6, 34830, Note_on_c, 9, 36, 73
6, 34835, Note_on_c, 9, 36, 0
6, 34835, Note_on_c, 9, 40, 0
6, 34860, Note_on_c, 9, 40, 90
6, 34860, Note_on_c, 9, 36, 70
6, 34865, Note_on_c, 9, 36, 0
6, 34865, Note_on_c, 9, 40, 0
6, 34890, Note_on_c, 9, 40, 112
6, 34890, Note_on_c, 9, 36, 92
6, 34895, Note_on_c, 9, 36, 0
6, 34895, Note_on_c, 9, 40, 0
6, 34920, Note_on_c, 9, 40, 127
6, 34920, Note_on_c, 9, 36, 127
6, 34926, Note_on_c, 9, 36, 0
6, 34926, Note_on_c, 9, 40, 0
6, 34950, Note_on_c, 9, 47, 84
6, 34950, Note_on_c, 9, 48, 69
6, 34955, Note_on_c, 9, 48, 0
6, 34955, Note_on_c, 9, 47, 0
6, 34980, Note_on_c, 9, 43, 81
6, 34985, Note_on_c, 9, 43, 0
6, 35010, Note_on_c, 9, 36, 127
6, 35015, Note_on_c, 9, 36, 0
6, 35040, Note_on_c, 9, 49, 119
6, 35040, Note_on_c, 9, 36, 127
6, 35040, Note_on_c, 9, 42, 104
6, 35050, Note_on_c, 9, 42, 0
6, 35050, Note_on_c, 9, 36, 0
6, 35050, Note_on_c, 9, 49, 0
6, 35070, Note_on_c, 9, 42, 61
6, 35075, Note_on_c, 9, 42, 0
6, 35100, Note_on_c, 9, 40, 127
6, 35100, Note_on_c, 9, 42, 61
6, 35105, Note_on_c, 9, 42, 0
6, 35105, Note_on_c, 9, 40, 0
6, 35130, Note_on_c, 9, 42, 99
6, 35135, Note_on_c, 9, 42, 0
6, 35160, Note_on_c, 9, 42, 74
6, 35165, Note_on_c, 9, 42, 0
6, 35190, Note_on_c, 9, 36, 127
6, 35190, Note_on_c, 9, 42, 66
6, 35195, Note_on_c, 9, 42, 0
6, 35195, Note_on_c, 9, 36, 0
6, 35220, Note_on_c, 9, 40, 127
6, 35220, Note_on_c, 9, 42, 97
6, 35225, Note_on_c, 9, 42, 0
6, 35225, Note_on_c, 9, 40, 0
6, 35250, Note_on_c, 9, 36, 55
6, 35250, Note_on_c, 9, 42, 60
6, 35255, Note_on_c, 9, 42, 0
6, 35255, Note_on_c, 9, 36, 0
6, 35280, Note_on_c, 9, 36, 127
6, 35280, Note_on_c, 9, 42, 66
6, 35288, Note_on_c, 9, 42, 0
6, 35288, Note_on_c, 9, 36, 0
6, 35310, Note_on_c, 9, 42, 39
6, 35315, Note_on_c, 9, 42, 0
6, 35340, Note_on_c, 9, 40, 127
6, 35340, Note_on_c, 9, 42, 74
6, 35345, Note_on_c, 9, 42, 0
6, 35345, Note_on_c, 9, 40, 0
6, 35370, Note_on_c, 9, 42, 66
6, 35375, Note_on_c, 9, 42, 0
6, 35400, Note_on_c, 9, 42, 86
6, 35405, Note_on_c, 9, 42, 0
6, 35430, Note_on_c, 9, 36, 127
6, 35430, Note_on_c, 9, 42, 101
6, 35435, Note_on_c, 9, 42, 0
6, 35435, Note_on_c, 9, 36, 0
6, 35460, Note_on_c, 9, 40, 127
6, 35460, Note_on_c, 9, 42, 66
6, 35465, Note_on_c, 9, 42, 0
6, 35465, Note_on_c, 9, 40, 0
6, 35490, Note_on_c, 9, 36, 67
6, 35490, Note_on_c, 9, 42, 55
6, 35495, Note_on_c, 9, 42, 0
6, 35495, Note_on_c, 9, 36, 0
6, 35520, Note_on_c, 9, 36, 127
6, 35520, Note_on_c, 9, 42, 104
6, 35527, Note_on_c, 9, 42, 0
6, 35527, Note_on_c, 9, 36, 0
6, 35550, Note_on_c, 9, 42, 61
6, 35555, Note_on_c, 9, 42, 0
6, 35580, Note_on_c, 9, 40, 127
6, 35580, Note_on_c, 9, 42, 61
6, 35585, Note_on_c, 9, 42, 0
6, 35585, Note_on_c, 9, 40, 0
6, 35610, Note_on_c, 9, 42, 99
6, 35615, Note_on_c, 9, 42, 0
6, 35640, Note_on_c, 9, 42, 74
6, 35645, Note_on_c, 9, 42, 0
6, 35670, Note_on_c, 9, 36, 127
6, 35670, Note_on_c, 9, 42, 66
6, 35675, Note_on_c, 9, 42, 0
6, 35675, Note_on_c, 9, 36, 0
6, 35700, Note_on_c, 9, 40, 127
6, 35700, Note_on_c, 9, 42, 97
6, 35705, Note_on_c, 9, 42, 0
6, 35705, Note_on_c, 9, 40, 0
6, 35730, Note_on_c, 9, 36, 55
6, 35730, Note_on_c, 9, 42, 60
6, 35740, Note_on_c, 9, 42, 0
6, 35740, Note_on_c, 9, 36, 0
6, 35760, Note_on_c, 9, 36, 127
6, 35760, Note_on_c, 9, 42, 66
6, 35765, Note_on_c, 9, 42, 0
6, 35765, Note_on_c, 9, 36, 0
6, 35790, Note_on_c, 9, 42, 39
6, 35795, Note_on_c, 9, 42, 0
6, 35820, Note_on_c, 9, 40, 127
6, 35820, Note_on_c, 9, 42, 74
6, 35825, Note_on_c, 9, 42, 0
6, 35825, Note_on_c, 9, 40, 0
6, 35850, Note_on_c, 9, 42, 66
6, 35855, Note_on_c, 9, 42, 0
6, 35880, Note_on_c, 9, 42, 86
6, 35885, Note_on_c, 9, 42, 0
6, 35910, Note_on_c, 9, 36, 127
6, 35910, Note_on_c, 9, 42, 101
6, 35915, Note_on_c, 9, 42, 0
6, 35915, Note_on_c, 9, 36, 0
6, 35940, Note_on_c, 9, 40, 127
6, 35940, Note_on_c, 9, 42, 66
6, 35945, Note_on_c, 9, 42, 0
6, 35945, Note_on_c, 9, 40, 0
6, 35970, Note_on_c, 9, 36, 67
6, 35970, Note_on_c, 9, 42, 55
6, 35980, Note_on_c, 9, 42, 0
6, 35980, Note_on_c, 9, 36, 0
6, 36000, Note_on_c, 9, 36, 127
6, 36000, Note_on_c, 9, 42, 104
6, 36005, Note_on_c, 9, 42, 0
6, 36005, Note_on_c, 9, 36, 0
6, 36030, Note_on_c, 9, 42, 61
6, 36035, Note_on_c, 9, 42, 0
6, 36060, Note_on_c, 9, 40, 127
6, 36060, Note_on_c, 9, 42, 61
6, 36065, Note_on_c, 9, 42, 0
6, 36065, Note_on_c, 9, 40, 0
6, 36090, Note_on_c, 9, 42, 99
6, 36095, Note_on_c, 9, 42, 0
6, 36120, Note_on_c, 9, 42, 74
6, 36125, Note_on_c, 9, 42, 0
6, 36150, Note_on_c, 9, 36, 127
6, 36150, Note_on_c, 9, 42, 66
6, 36155, Note_on_c, 9, 42, 0
6, 36155, Note_on_c, 9, 36, 0
6, 36180, Note_on_c, 9, 40, 127
6, 36180, Note_on_c, 9, 42, 97
6, 36186, Note_on_c, 9, 42, 0
6, 36186, Note_on_c, 9, 40, 0
6, 36210, Note_on_c, 9, 36, 55
6, 36210, Note_on_c, 9, 42, 60
6, 36220, Note_on_c, 9, 42, 0
6, 36220, Note_on_c, 9, 36, 0
6, 36240, Note_on_c, 9, 36, 127
6, 36240, Note_on_c, 9, 42, 66
6, 36245, Note_on_c, 9, 42, 0
6, 36245, Note_on_c, 9, 36, 0
6, 36270, Note_on_c, 9, 42, 39
6, 36275, Note_on_c, 9, 42, 0
6, 36300, Note_on_c, 9, 40, 127
6, 36300, Note_on_c, 9, 42, 74
6, 36305, Note_on_c, 9, 42, 0
6, 36305, Note_on_c, 9, 40, 0
6, 36330, Note_on_c, 9, 42, 66
6, 36335, Note_on_c, 9, 42, 0
6, 36360, Note_on_c, 9, 42, 86
6, 36365, Note_on_c, 9, 42, 0
6, 36390, Note_on_c, 9, 36, 127
6, 36390, Note_on_c, 9, 42, 101
6, 36395, Note_on_c, 9, 42, 0
6, 36395, Note_on_c, 9, 36, 0
6, 36420, Note_on_c, 9, 40, 127
6, 36420, Note_on_c, 9, 42, 66
6, 36425, Note_on_c, 9, 42, 0
6, 36425, Note_on_c, 9, 40, 0
6, 36450, Note_on_c, 9, 36, 67
6, 36450, Note_on_c, 9, 42, 55
6, 36459, Note_on_c, 9, 42, 0
6, 36459, Note_on_c, 9, 36, 0
6, 36480, Note_on_c, 9, 36, 127
6, 36480, Note_on_c, 9, 42, 104
6, 36485, Note_on_c, 9, 42, 0
6, 36485, Note_on_c, 9, 36, 0
6, 36510, Note_on_c, 9, 42, 61
6, 36515, Note_on_c, 9, 42, 0
6, 36540, Note_on_c, 9, 40, 127
6, 36540, Note_on_c, 9, 42, 61
6, 36545, Note_on_c, 9, 42, 0
6, 36545, Note_on_c, 9, 40, 0
6, 36570, Note_on_c, 9, 42, 99
6, 36575, Note_on_c, 9, 42, 0
6, 36600, Note_on_c, 9, 42, 74
6, 36605, Note_on_c, 9, 42, 0
6, 36630, Note_on_c, 9, 36, 127
6, 36630, Note_on_c, 9, 42, 66
6, 36635, Note_on_c, 9, 42, 0
6, 36635, Note_on_c, 9, 36, 0
6, 36660, Note_on_c, 9, 40, 127
6, 36660, Note_on_c, 9, 42, 97
6, 36665, Note_on_c, 9, 42, 0
6, 36665, Note_on_c, 9, 40, 0
6, 36690, Note_on_c, 9, 36, 55
6, 36690, Note_on_c, 9, 42, 60
6, 36700, Note_on_c, 9, 42, 0
6, 36700, Note_on_c, 9, 36, 0
6, 36720, Note_on_c, 9, 36, 127
6, 36720, Note_on_c, 9, 42, 66
6, 36725, Note_on_c, 9, 42, 0
6, 36725, Note_on_c, 9, 36, 0
6, 36750, Note_on_c, 9, 42, 39
6, 36758, Note_on_c, 9, 42, 0
6, 36780, Note_on_c, 9, 40, 127
6, 36780, Note_on_c, 9, 42, 74
6, 36785, Note_on_c, 9, 42, 0
6, 36785, Note_on_c, 9, 40, 0
6, 36810, Note_on_c, 9, 42, 66
6, 36820, Note_on_c, 9, 42, 0
6, 36840, Note_on_c, 9, 42, 86
6, 36845, Note_on_c, 9, 42, 0
6, 36870, Note_on_c, 9, 36, 127
6, 36870, Note_on_c, 9, 42, 101
6, 36880, Note_on_c, 9, 42, 0
6, 36880, Note_on_c, 9, 36, 0
6, 36900, Note_on_c, 9, 40, 127
6, 36900, Note_on_c, 9, 42, 66
6, 36905, Note_on_c, 9, 42, 0
6, 36905, Note_on_c, 9, 40, 0
6, 36930, Note_on_c, 9, 36, 67
6, 36930, Note_on_c, 9, 42, 55
6, 36940, Note_on_c, 9, 42, 0
6, 36940, Note_on_c, 9, 36, 0
6, 36960, Note_on_c, 9, 36, 127
6, 36960, Note_on_c, 9, 42, 104
6, 36965, Note_on_c, 9, 42, 0
6, 36965, Note_on_c, 9, 36, 0
6, 36990, Note_on_c, 9, 42, 61
6, 36995, Note_on_c, 9, 42, 0
6, 37020, Note_on_c, 9, 40, 127
6, 37020, Note_on_c, 9, 42, 61
6, 37025, Note_on_c, 9, 42, 0
6, 37025, Note_on_c, 9, 40, 0
6, 37050, Note_on_c, 9, 42, 99
6, 37055, Note_on_c, 9, 42, 0
6, 37080, Note_on_c, 9, 42, 74
6, 37085, Note_on_c, 9, 42, 0
6, 37110, Note_on_c, 9, 36, 127
6, 37110, Note_on_c, 9, 42, 66
6, 37115, Note_on_c, 9, 42, 0
6, 37115, Note_on_c, 9, 36, 0
6, 37140, Note_on_c, 9, 40, 127
6, 37140, Note_on_c, 9, 42, 97
6, 37145, Note_on_c, 9, 42, 0
6, 37145, Note_on_c, 9, 40, 0
6, 37170, Note_on_c, 9, 36, 55
6, 37170, Note_on_c, 9, 42, 60
6, 37179, Note_on_c, 9, 42, 0
6, 37179, Note_on_c, 9, 36, 0
6, 37200, Note_on_c, 9, 36, 127
6, 37200, Note_on_c, 9, 42, 66
6, 37205, Note_on_c, 9, 42, 0
6, 37205, Note_on_c, 9, 36, 0
6, 37230, Note_on_c, 9, 42, 39
6, 37235, Note_on_c, 9, 42, 0
6, 37260, Note_on_c, 9, 40, 127
6, 37260, Note_on_c, 9, 42, 74
6, 37265, Note_on_c, 9, 42, 0
6, 37265, Note_on_c, 9, 40, 0
6, 37290, Note_on_c, 9, 42, 66
6, 37295, Note_on_c, 9, 42, 0
6, 37320, Note_on_c, 9, 42, 86
6, 37325, Note_on_c, 9, 42, 0
6, 37350, Note_on_c, 9, 36, 127
6, 37350, Note_on_c, 9, 42, 101
6, 37355, Note_on_c, 9, 42, 0
6, 37355, Note_on_c, 9, 36, 0
6, 37380, Note_on_c, 9, 40, 127
6, 37380, Note_on_c, 9, 42, 66
6, 37385, Note_on_c, 9, 42, 0
6, 37385, Note_on_c, 9, 40, 0
6, 37410, Note_on_c, 9, 36, 67
6, 37410, Note_on_c, 9, 42, 55
6, 37415, Note_on_c, 9, 42, 0
6, 37415, Note_on_c, 9, 36, 0
6, 37440, Note_on_c, 9, 36, 127
6, 37440, Note_on_c, 9, 42, 104
6, 37448, Note_on_c, 9, 42, 0
6, 37448, Note_on_c, 9, 36, 0
6, 37470, Note_on_c, 9, 42, 61
6, 37475, Note_on_c, 9, 42, 0
6, 37500, Note_on_c, 9, 40, 127
6, 37500, Note_on_c, 9, 42, 61
6, 37505, Note_on_c, 9, 42, 0
6, 37505, Note_on_c, 9, 40, 0
6, 37530, Note_on_c, 9, 42, 99
6, 37535, Note_on_c, 9, 42, 0
6, 37560, Note_on_c, 9, 42, 74
6, 37565, Note_on_c, 9, 42, 0
6, 37590, Note_on_c, 9, 36, 127
6, 37590, Note_on_c, 9, 42, 66
6, 37595, Note_on_c, 9, 42, 0
6, 37595, Note_on_c, 9, 36, 0
6, 37620, Note_on_c, 9, 40, 127
6, 37620, Note_on_c, 9, 42, 97
6, 37625, Note_on_c, 9, 42, 0
6, 37625, Note_on_c, 9, 40, 0
6, 37650, Note_on_c, 9, 36, 55
6, 37650, Note_on_c, 9, 42, 60
6, 37659, Note_on_c, 9, 42, 0
6, 37659, Note_on_c, 9, 36, 0
6, 37680, Note_on_c, 9, 36, 127
6, 37680, Note_on_c, 9, 42, 66
6, 37685, Note_on_c, 9, 42, 0
6, 37685, Note_on_c, 9, 36, 0
6, 37710, Note_on_c, 9, 42, 39
6, 37715, Note_on_c, 9, 42, 0
6, 37740, Note_on_c, 9, 40, 127
6, 37740, Note_on_c, 9, 42, 74
6, 37745, Note_on_c, 9, 42, 0
6, 37745, Note_on_c, 9, 40, 0
6, 37770, Note_on_c, 9, 42, 66
6, 37775, Note_on_c, 9, 42, 0
6, 37800, Note_on_c, 9, 42, 86
6, 37805, Note_on_c, 9, 42, 0
6, 37830, Note_on_c, 9, 36, 127
6, 37830, Note_on_c, 9, 42, 101
6, 37835, Note_on_c, 9, 42, 0
6, 37835, Note_on_c, 9, 36, 0
6, 37860, Note_on_c, 9, 40, 127
6, 37860, Note_on_c, 9, 42, 66
6, 37866, Note_on_c, 9, 42, 0
6, 37866, Note_on_c, 9, 40, 0
6, 37890, Note_on_c, 9, 36, 67
6, 37890, Note_on_c, 9, 42, 55
6, 37895, Note_on_c, 9, 42, 0
6, 37895, Note_on_c, 9, 36, 0
6, 37920, Note_on_c, 9, 36, 127
6, 37920, Note_on_c, 9, 42, 104
6, 37928, Note_on_c, 9, 42, 0
6, 37928, Note_on_c, 9, 36, 0
6, 37950, Note_on_c, 9, 42, 61
6, 37955, Note_on_c, 9, 42, 0
6, 37980, Note_on_c, 9, 40, 127
6, 37980, Note_on_c, 9, 42, 61
6, 37985, Note_on_c, 9, 42, 0
6, 37985, Note_on_c, 9, 40, 0
6, 38010, Note_on_c, 9, 42, 99
6, 38015, Note_on_c, 9, 42, 0
6, 38040, Note_on_c, 9, 42, 74
6, 38045, Note_on_c, 9, 42, 0
6, 38070, Note_on_c, 9, 36, 127
6, 38070, Note_on_c, 9, 42, 66
6, 38075, Note_on_c, 9, 42, 0
6, 38075, Note_on_c, 9, 36, 0
6, 38100, Note_on_c, 9, 40, 127
6, 38100, Note_on_c, 9, 42, 97
6, 38105, Note_on_c, 9, 42, 0
6, 38105, Note_on_c, 9, 40, 0
6, 38130, Note_on_c, 9, 36, 55
6, 38130, Note_on_c, 9, 42, 60
6, 38141, Note_on_c, 9, 42, 0
6, 38141, Note_on_c, 9, 36, 0
6, 38160, Note_on_c, 9, 36, 127
6, 38160, Note_on_c, 9, 42, 66
6, 38165, Note_on_c, 9, 42, 0
6, 38165, Note_on_c, 9, 36, 0
6, 38190, Note_on_c, 9, 42, 39
6, 38195, Note_on_c, 9, 42, 0
6, 38220, Note_on_c, 9, 40, 127
6, 38220, Note_on_c, 9, 42, 74
6, 38225, Note_on_c, 9, 42, 0
6, 38225, Note_on_c, 9, 40, 0
6, 38250, Note_on_c, 9, 42, 66
6, 38255, Note_on_c, 9, 42, 0
6, 38280, Note_on_c, 9, 42, 86
6, 38285, Note_on_c, 9, 42, 0
6, 38310, Note_on_c, 9, 36, 127
6, 38310, Note_on_c, 9, 42, 101
6, 38315, Note_on_c, 9, 42, 0
6, 38315, Note_on_c, 9, 36, 0
6, 38340, Note_on_c, 9, 40, 127
6, 38340, Note_on_c, 9, 42, 66
6, 38345, Note_on_c, 9, 42, 0
6, 38345, Note_on_c, 9, 40, 0
6, 38370, Note_on_c, 9, 36, 67
6, 38370, Note_on_c, 9, 42, 55
6, 38381, Note_on_c, 9, 42, 0
6, 38381, Note_on_c, 9, 36, 0
6, 38400, Note_on_c, 9, 36, 127
6, 38400, Note_on_c, 9, 42, 120
6, 38405, Note_on_c, 9, 42, 0
6, 38405, Note_on_c, 9, 36, 0
6, 38430, Note_on_c, 9, 42, 84
6, 38435, Note_on_c, 9, 42, 0
6, 38460, Note_on_c, 9, 40, 127
6, 38460, Note_on_c, 9, 42, 61
6, 38465, Note_on_c, 9, 42, 0
6, 38465, Note_on_c, 9, 40, 0
6, 38490, Note_on_c, 9, 42, 99
6, 38495, Note_on_c, 9, 42, 0
6, 38520, Note_on_c, 9, 42, 74
6, 38525, Note_on_c, 9, 42, 0
6, 38550, Note_on_c, 9, 36, 127
6, 38550, Note_on_c, 9, 42, 66
6, 38555, Note_on_c, 9, 42, 0
6, 38555, Note_on_c, 9, 36, 0
6, 38580, Note_on_c, 9, 40, 127
6, 38580, Note_on_c, 9, 42, 97
6, 38585, Note_on_c, 9, 42, 0
6, 38585, Note_on_c, 9, 40, 0
6, 38610, Note_on_c, 9, 36, 55
6, 38610, Note_on_c, 9, 42, 60
6, 38615, Note_on_c, 9, 42, 0
6, 38615, Note_on_c, 9, 36, 0
6, 38640, Note_on_c, 9, 36, 127
6, 38640, Note_on_c, 9, 42, 66
6, 38651, Note_on_c, 9, 42, 0
6, 38651, Note_on_c, 9, 36, 0
6, 38670, Note_on_c, 9, 40, 127
6, 38670, Note_on_c, 9, 42, 116
6, 38670, Note_on_c, 9, 44, 116
6, 38675, Note_on_c, 9, 44, 0
6, 38675, Note_on_c, 9, 42, 0
6, 38675, Note_on_c, 9, 40, 0
6, 38700, Note_on_c, 9, 42, 74
6, 38705, Note_on_c, 9, 42, 0
6, 38730, Note_on_c, 9, 42, 66
6, 38735, Note_on_c, 9, 42, 0
6, 38760, Note_on_c, 9, 40, 127
6, 38760, Note_on_c, 9, 42, 86
6, 38773, Note_on_c, 9, 42, 0
6, 38773, Note_on_c, 9, 40, 0
6, 38790, Note_on_c, 9, 36, 127
6, 38790, Note_on_c, 9, 42, 101
6, 38795, Note_on_c, 9, 42, 0
6, 38795, Note_on_c, 9, 36, 0
6, 38820, Note_on_c, 9, 40, 127
6, 38820, Note_on_c, 9, 42, 66
6, 38820, Note_on_c, 9, 46, 86
6, 38825, Note_on_c, 9, 46, 0
6, 38825, Note_on_c, 9, 42, 0
6, 38825, Note_on_c, 9, 40, 0
6, 38850, Note_on_c, 9, 36, 67
6, 38855, Note_on_c, 9, 36, 0
6, 38880, Note_on_c, 9, 49, 89
6, 38880, Note_on_c, 9, 36, 127
6, 38880, Note_on_c, 9, 42, 104
6, 38893, Note_on_c, 9, 42, 0
6, 38893, Note_on_c, 9, 36, 0
6, 38893, Note_on_c, 9, 49, 0
6, 38910, Note_on_c, 9, 42, 61
6, 38915, Note_on_c, 9, 42, 0
6, 38940, Note_on_c, 9, 40, 127
6, 38940, Note_on_c, 9, 42, 61
6, 38945, Note_on_c, 9, 42, 0
6, 38945, Note_on_c, 9, 40, 0
6, 38970, Note_on_c, 9, 42, 99
6, 38970, Note_on_c, 9, 44, 83
6, 38975, Note_on_c, 9, 44, 0
6, 38975, Note_on_c, 9, 42, 0
6, 39000, Note_on_c, 9, 42, 74
6, 39005, Note_on_c, 9, 42, 0
6, 39030, Note_on_c, 9, 36, 127
6, 39030, Note_on_c, 9, 42, 66
6, 39035, Note_on_c, 9, 42, 0
6, 39035, Note_on_c, 9, 36, 0
6, 39060, Note_on_c, 9, 40, 127
6, 39060, Note_on_c, 9, 42, 97
6, 39065, Note_on_c, 9, 42, 0
6, 39065, Note_on_c, 9, 40, 0
6, 39090, Note_on_c, 9, 49, 104
6, 39090, Note_on_c, 9, 36, 55
6, 39090, Note_on_c, 9, 42, 60
6, 39099, Note_on_c, 9, 36, 0
6, 39099, Note_on_c, 9, 49, 0
6, 39100, Note_on_c, 9, 42, 0
6, 39120, Note_on_c, 9, 36, 127
6, 39120, Note_on_c, 9, 42, 66
6, 39125, Note_on_c, 9, 42, 0
6, 39125, Note_on_c, 9, 36, 0
6, 39150, Note_on_c, 9, 42, 39
6, 39155, Note_on_c, 9, 42, 0
6, 39180, Note_on_c, 9, 40, 127
6, 39180, Note_on_c, 9, 42, 74
6, 39185, Note_on_c, 9, 42, 0
6, 39185, Note_on_c, 9, 40, 0
6, 39210, Note_on_c, 9, 42, 66
6, 39210, Note_on_c, 9, 44, 83
6, 39215, Note_on_c, 9, 44, 0
6, 39215, Note_on_c, 9, 42, 0
6, 39240, Note_on_c, 9, 42, 86
6, 39245, Note_on_c, 9, 42, 0
6, 39270, Note_on_c, 9, 36, 127
6, 39270, Note_on_c, 9, 42, 101
6, 39275, Note_on_c, 9, 42, 0
6, 39275, Note_on_c, 9, 36, 0
6, 39300, Note_on_c, 9, 40, 127
6, 39300, Note_on_c, 9, 42, 66
6, 39305, Note_on_c, 9, 42, 0
6, 39305, Note_on_c, 9, 40, 0
6, 39330, Note_on_c, 9, 49, 114
6, 39330, Note_on_c, 9, 36, 119
6, 39330, Note_on_c, 9, 42, 55
6, 39337, Note_on_c, 9, 42, 0
6, 39337, Note_on_c, 9, 36, 0
6, 39338, Note_on_c, 9, 49, 0
6, 39360, Note_on_c, 9, 42, 116
6, 39368, Note_on_c, 9, 42, 0
6, 39390, Note_on_c, 9, 42, 82
6, 39395, Note_on_c, 9, 42, 0
6, 39420, Note_on_c, 9, 40, 127
6, 39420, Note_on_c, 9, 42, 75
6, 39420, Note_on_c, 9, 44, 69
6, 39426, Note_on_c, 9, 44, 0
6, 39426, Note_on_c, 9, 42, 0
6, 39426, Note_on_c, 9, 40, 0
6, 39450, Note_on_c, 9, 46, 72
6, 39458, Note_on_c, 9, 46, 0
6, 39480, Note_on_c, 9, 42, 67
6, 39485, Note_on_c, 9, 42, 0
6, 39510, Note_on_c, 9, 36, 127
6, 39510, Note_on_c, 9, 44, 67
6, 39517, Note_on_c, 9, 44, 0
6, 39517, Note_on_c, 9, 36, 0
6, 39540, Note_on_c, 9, 40, 127
6, 39540, Note_on_c, 9, 42, 83
6, 39545, Note_on_c, 9, 42, 0
6, 39545, Note_on_c, 9, 40, 0
6, 39570, Note_on_c, 9, 49, 89
6, 39570, Note_on_c, 9, 36, 127
6, 39580, Note_on_c, 9, 36, 0
6, 39580, Note_on_c, 9, 49, 0
6, 39600, Note_on_c, 9, 36, 127
6, 39600, Note_on_c, 9, 42, 79
6, 39605, Note_on_c, 9, 42, 0
6, 39605, Note_on_c, 9, 36, 0
6, 39630, Note_on_c, 9, 42, 79
6, 39635, Note_on_c, 9, 42, 0
6, 39660, Note_on_c, 9, 40, 127
6, 39660, Note_on_c, 9, 42, 77
6, 39665, Note_on_c, 9, 42, 0
6, 39665, Note_on_c, 9, 40, 0
6, 39690, Note_on_c, 9, 42, 112
6, 39690, Note_on_c, 9, 44, 72
6, 39695, Note_on_c, 9, 44, 0
6, 39695, Note_on_c, 9, 42, 0
6, 39720, Note_on_c, 9, 42, 127
6, 39725, Note_on_c, 9, 42, 0
6, 39750, Note_on_c, 9, 36, 127
6, 39750, Note_on_c, 9, 42, 82
6, 39755, Note_on_c, 9, 42, 0
6, 39755, Note_on_c, 9, 36, 0
6, 39780, Note_on_c, 9, 40, 127
6, 39780, Note_on_c, 9, 42, 89
6, 39785, Note_on_c, 9, 42, 0
6, 39785, Note_on_c, 9, 40, 0
6, 39810, Note_on_c, 9, 49, 124
6, 39810, Note_on_c, 9, 42, 77
6, 39815, Note_on_c, 9, 49, 0
6, 39819, Note_on_c, 9, 42, 0
6, 39840, Note_on_c, 9, 36, 127
6, 39840, Note_on_c, 9, 42, 84
6, 39845, Note_on_c, 9, 42, 0
6, 39845, Note_on_c, 9, 36, 0
6, 39870, Note_on_c, 9, 42, 82
6, 39875, Note_on_c, 9, 42, 0
6, 39900, Note_on_c, 9, 40, 102
6, 39900, Note_on_c, 9, 42, 72
6, 39900, Note_on_c, 9, 44, 69
6, 39905, Note_on_c, 9, 44, 0
6, 39905, Note_on_c, 9, 42, 0
6, 39905, Note_on_c, 9, 40, 0
6, 39930, Note_on_c, 9, 46, 72
6, 39935, Note_on_c, 9, 46, 0
6, 39960, Note_on_c, 9, 42, 74
6, 39965, Note_on_c, 9, 42, 0
6, 39990, Note_on_c, 9, 36, 83
6, 39990, Note_on_c, 9, 44, 67
6, 39995, Note_on_c, 9, 44, 0
6, 39995, Note_on_c, 9, 36, 0
6, 40020, Note_on_c, 9, 40, 108
6, 40020, Note_on_c, 9, 42, 83
6, 40025, Note_on_c, 9, 42, 0
6, 40025, Note_on_c, 9, 40, 0
6, 40050, Note_on_c, 9, 49, 91
6, 40050, Note_on_c, 9, 36, 127
6, 40059, Note_on_c, 9, 36, 0
6, 40059, Note_on_c, 9, 49, 0
6, 40080, Note_on_c, 9, 36, 117
6, 40080, Note_on_c, 9, 42, 78
6, 40085, Note_on_c, 9, 42, 0
6, 40085, Note_on_c, 9, 36, 0
6, 40110, Note_on_c, 9, 42, 74
6, 40115, Note_on_c, 9, 42, 0
6, 40140, Note_on_c, 9, 40, 116
6, 40140, Note_on_c, 9, 42, 86
6, 40145, Note_on_c, 9, 42, 0
6, 40145, Note_on_c, 9, 40, 0
6, 40170, Note_on_c, 9, 44, 72
6, 40175, Note_on_c, 9, 44, 0
6, 40200, Note_on_c, 9, 42, 80
6, 40205, Note_on_c, 9, 42, 0
6, 40230, Note_on_c, 9, 36, 127
6, 40230, Note_on_c, 9, 46, 104
6, 40235, Note_on_c, 9, 46, 0
6, 40235, Note_on_c, 9, 36, 0
6, 40260, Note_on_c, 9, 42, 127
6, 40265, Note_on_c, 9, 42, 0
6, 40290, Note_on_c, 9, 36, 127
6, 40290, Note_on_c, 9, 42, 99
6, 40295, Note_on_c, 9, 42, 0
6, 40295, Note_on_c, 9, 36, 0
6, 40320, Note_on_c, 9, 49, 86
6, 40320, Note_on_c, 9, 36, 127
6, 40320, Note_on_c, 9, 42, 60
6, 40328, Note_on_c, 9, 42, 0
6, 40328, Note_on_c, 9, 36, 0
6, 40328, Note_on_c, 9, 49, 0
6, 40380, Note_on_c, 9, 40, 127
6, 40380, Note_on_c, 9, 42, 60
6, 40385, Note_on_c, 9, 42, 0
6, 40385, Note_on_c, 9, 40, 0
6, 40410, Note_on_c, 9, 36, 127
6, 40410, Note_on_c, 9, 46, 101
6, 40419, Note_on_c, 9, 46, 0
6, 40419, Note_on_c, 9, 36, 0
6, 40440, Note_on_c, 9, 42, 66
6, 40445, Note_on_c, 9, 42, 0
6, 40470, Note_on_c, 9, 36, 127
6, 40470, Note_on_c, 9, 46, 104
6, 40478, Note_on_c, 9, 46, 0
6, 40478, Note_on_c, 9, 36, 0
6, 40500, Note_on_c, 9, 42, 61
6, 40505, Note_on_c, 9, 42, 0
6, 40530, Note_on_c, 9, 49, 127
6, 40530, Note_on_c, 9, 36, 127
6, 40547, Note_on_c, 9, 36, 0
6, 40547, Note_on_c, 9, 49, 0
6, 40560, Note_on_c, 9, 36, 127
6, 40560, Note_on_c, 9, 42, 104
6, 40564, Note_on_c, 9, 36, 0
6, 40565, Note_on_c, 9, 42, 0
6, 40590, Note_on_c, 9, 42, 61
6, 40595, Note_on_c, 9, 42, 0
6, 40620, Note_on_c, 9, 40, 127
6, 40620, Note_on_c, 9, 42, 61
6, 40625, Note_on_c, 9, 42, 0
6, 40625, Note_on_c, 9, 40, 0
6, 40650, Note_on_c, 9, 42, 99
6, 40657, Note_on_c, 9, 42, 0
6, 40680, Note_on_c, 9, 42, 74
6, 40685, Note_on_c, 9, 42, 0
6, 40710, Note_on_c, 9, 36, 127
6, 40710, Note_on_c, 9, 42, 66
6, 40715, Note_on_c, 9, 42, 0
6, 40715, Note_on_c, 9, 36, 0
6, 40740, Note_on_c, 9, 40, 127
6, 40740, Note_on_c, 9, 42, 97
6, 40745, Note_on_c, 9, 42, 0
6, 40745, Note_on_c, 9, 40, 0
6, 40770, Note_on_c, 9, 36, 55
6, 40770, Note_on_c, 9, 42, 60
6, 40777, Note_on_c, 9, 42, 0
6, 40777, Note_on_c, 9, 36, 0
6, 40800, Note_on_c, 9, 36, 127
6, 40800, Note_on_c, 9, 42, 66
6, 40805, Note_on_c, 9, 42, 0
6, 40805, Note_on_c, 9, 36, 0
6, 40830, Note_on_c, 9, 42, 39
6, 40836, Note_on_c, 9, 42, 0
6, 40860, Note_on_c, 9, 40, 127
6, 40860, Note_on_c, 9, 42, 74
6, 40864, Note_on_c, 9, 42, 0
6, 40864, Note_on_c, 9, 40, 0
6, 40890, Note_on_c, 9, 42, 66
6, 40895, Note_on_c, 9, 42, 0
6, 40920, Note_on_c, 9, 42, 86
6, 40925, Note_on_c, 9, 42, 0
6, 40950, Note_on_c, 9, 36, 127
6, 40950, Note_on_c, 9, 42, 101
6, 40955, Note_on_c, 9, 42, 0
6, 40955, Note_on_c, 9, 36, 0
6, 40980, Note_on_c, 9, 40, 127
6, 40980, Note_on_c, 9, 42, 66
6, 40986, Note_on_c, 9, 42, 0
6, 40986, Note_on_c, 9, 40, 0
6, 41010, Note_on_c, 9, 36, 67
6, 41010, Note_on_c, 9, 42, 55
6, 41014, Note_on_c, 9, 42, 0
6, 41014, Note_on_c, 9, 36, 0
6, 41040, Note_on_c, 9, 36, 127
6, 41040, Note_on_c, 9, 42, 104
6, 41052, Note_on_c, 9, 42, 0
6, 41052, Note_on_c, 9, 36, 0
6, 41070, Note_on_c, 9, 42, 61
6, 41075, Note_on_c, 9, 42, 0
6, 41100, Note_on_c, 9, 40, 127
6, 41100, Note_on_c, 9, 42, 61
6, 41111, Note_on_c, 9, 42, 0
6, 41111, Note_on_c, 9, 40, 0
6, 41130, Note_on_c, 9, 42, 99
6, 41140, Note_on_c, 9, 42, 0
6, 41160, Note_on_c, 9, 42, 74
6, 41164, Note_on_c, 9, 42, 0
6, 41190, Note_on_c, 9, 36, 127
6, 41190, Note_on_c, 9, 42, 66
6, 41200, Note_on_c, 9, 42, 0
6, 41200, Note_on_c, 9, 36, 0
6, 41220, Note_on_c, 9, 40, 127
6, 41220, Note_on_c, 9, 42, 97
6, 41225, Note_on_c, 9, 42, 0
6, 41225, Note_on_c, 9, 40, 0
6, 41250, Note_on_c, 9, 36, 55
6, 41250, Note_on_c, 9, 42, 60
6, 41262, Note_on_c, 9, 42, 0
6, 41262, Note_on_c, 9, 36, 0
6, 41280, Note_on_c, 9, 36, 127
6, 41280, Note_on_c, 9, 42, 66
6, 41285, Note_on_c, 9, 42, 0
6, 41285, Note_on_c, 9, 36, 0
6, 41310, Note_on_c, 9, 42, 39
6, 41315, Note_on_c, 9, 42, 0
6, 41340, Note_on_c, 9, 40, 127
6, 41340, Note_on_c, 9, 42, 74
6, 41345, Note_on_c, 9, 42, 0
6, 41345, Note_on_c, 9, 40, 0
6, 41370, Note_on_c, 9, 42, 66
6, 41375, Note_on_c, 9, 42, 0
6, 41400, Note_on_c, 9, 42, 86
6, 41405, Note_on_c, 9, 42, 0
6, 41430, Note_on_c, 9, 36, 127
6, 41430, Note_on_c, 9, 42, 101
6, 41435, Note_on_c, 9, 42, 0
6, 41435, Note_on_c, 9, 36, 0
6, 41460, Note_on_c, 9, 40, 127
6, 41460, Note_on_c, 9, 42, 66
6, 41465, Note_on_c, 9, 42, 0
6, 41465, Note_on_c, 9, 40, 0
6, 41490, Note_on_c, 9, 36, 67
6, 41490, Note_on_c, 9, 42, 55
6, 41494, Note_on_c, 9, 42, 0
6, 41494, Note_on_c, 9, 36, 0
6, 41520, Note_on_c, 9, 36, 127
6, 41520, Note_on_c, 9, 42, 104
6, 41524, Note_on_c, 9, 42, 0
6, 41524, Note_on_c, 9, 36, 0
6, 41550, Note_on_c, 9, 42, 61
6, 41555, Note_on_c, 9, 42, 0
6, 41580, Note_on_c, 9, 40, 127
6, 41580, Note_on_c, 9, 42, 61
6, 41584, Note_on_c, 9, 42, 0
6, 41584, Note_on_c, 9, 40, 0
6, 41610, Note_on_c, 9, 42, 99
6, 41615, Note_on_c, 9, 42, 0
6, 41640, Note_on_c, 9, 42, 74
6, 41645, Note_on_c, 9, 42, 0
6, 41670, Note_on_c, 9, 36, 127
6, 41670, Note_on_c, 9, 42, 66
6, 41675, Note_on_c, 9, 42, 0
6, 41675, Note_on_c, 9, 36, 0
6, 41700, Note_on_c, 9, 40, 127
6, 41700, Note_on_c, 9, 42, 97
6, 41705, Note_on_c, 9, 42, 0
6, 41705, Note_on_c, 9, 40, 0
6, 41730, Note_on_c, 9, 36, 55
6, 41730, Note_on_c, 9, 42, 60
6, 41735, Note_on_c, 9, 42, 0
6, 41735, Note_on_c, 9, 36, 0
6, 41760, Note_on_c, 9, 36, 127
6, 41760, Note_on_c, 9, 42, 66
6, 41765, Note_on_c, 9, 42, 0
6, 41765, Note_on_c, 9, 36, 0
6, 41790, Note_on_c, 9, 42, 39
6, 41795, Note_on_c, 9, 42, 0
6, 41820, Note_on_c, 9, 40, 127
6, 41820, Note_on_c, 9, 42, 74
6, 41825, Note_on_c, 9, 42, 0
6, 41825, Note_on_c, 9, 40, 0
6, 41850, Note_on_c, 9, 42, 66
6, 41855, Note_on_c, 9, 42, 0
6, 41880, Note_on_c, 9, 42, 86
6, 41885, Note_on_c, 9, 42, 0
6, 41910, Note_on_c, 9, 36, 127
6, 41910, Note_on_c, 9, 42, 101
6, 41915, Note_on_c, 9, 42, 0
6, 41915, Note_on_c, 9, 36, 0
6, 41940, Note_on_c, 9, 40, 127
6, 41940, Note_on_c, 9, 42, 66
6, 41945, Note_on_c, 9, 42, 0
6, 41945, Note_on_c, 9, 40, 0
6, 41970, Note_on_c, 9, 36, 67
6, 41970, Note_on_c, 9, 42, 55
6, 41975, Note_on_c, 9, 42, 0
6, 41975, Note_on_c, 9, 36, 0
6, 42000, Note_on_c, 9, 36, 127
6, 42000, Note_on_c, 9, 42, 104
6, 42005, Note_on_c, 9, 42, 0
6, 42005, Note_on_c, 9, 36, 0
6, 42030, Note_on_c, 9, 42, 61
6, 42035, Note_on_c, 9, 42, 0
6, 42060, Note_on_c, 9, 40, 127
6, 42060, Note_on_c, 9, 42, 61
6, 42065, Note_on_c, 9, 42, 0
6, 42065, Note_on_c, 9, 40, 0
6, 42090, Note_on_c, 9, 42, 99
6, 42095, Note_on_c, 9, 42, 0
6, 42120, Note_on_c, 9, 42, 74
6, 42125, Note_on_c, 9, 42, 0
6, 42150, Note_on_c, 9, 36, 127
6, 42150, Note_on_c, 9, 42, 66
6, 42155, Note_on_c, 9, 42, 0
6, 42155, Note_on_c, 9, 36, 0
6, 42180, Note_on_c, 9, 40, 127
6, 42180, Note_on_c, 9, 42, 97
6, 42185, Note_on_c, 9, 42, 0
6, 42185, Note_on_c, 9, 40, 0
6, 42210, Note_on_c, 9, 36, 55
6, 42210, Note_on_c, 9, 42, 60
6, 42215, Note_on_c, 9, 42, 0
6, 42215, Note_on_c, 9, 36, 0
6, 42240, Note_on_c, 9, 36, 127
6, 42240, Note_on_c, 9, 42, 66
6, 42245, Note_on_c, 9, 42, 0
6, 42245, Note_on_c, 9, 36, 0
6, 42270, Note_on_c, 9, 42, 39
6, 42275, Note_on_c, 9, 42, 0
6, 42300, Note_on_c, 9, 40, 127
6, 42300, Note_on_c, 9, 42, 74
6, 42305, Note_on_c, 9, 42, 0
6, 42305, Note_on_c, 9, 40, 0
6, 42330, Note_on_c, 9, 42, 66
6, 42335, Note_on_c, 9, 42, 0
6, 42360, Note_on_c, 9, 42, 86
6, 42365, Note_on_c, 9, 42, 0
6, 42390, Note_on_c, 9, 36, 127
6, 42390, Note_on_c, 9, 42, 101
6, 42395, Note_on_c, 9, 42, 0
6, 42395, Note_on_c, 9, 36, 0
6, 42420, Note_on_c, 9, 40, 127
6, 42420, Note_on_c, 9, 42, 66
6, 42425, Note_on_c, 9, 40, 0
6, 42426, Note_on_c, 9, 42, 0
6, 42450, Note_on_c, 9, 36, 67
6, 42450, Note_on_c, 9, 42, 55
6, 42455, Note_on_c, 9, 42, 0
6, 42455, Note_on_c, 9, 36, 0
6, 42480, Note_on_c, 9, 36, 127
6, 42480, Note_on_c, 9, 42, 104
6, 42487, Note_on_c, 9, 42, 0
6, 42487, Note_on_c, 9, 36, 0
6, 42510, Note_on_c, 9, 42, 61
6, 42515, Note_on_c, 9, 42, 0
6, 42540, Note_on_c, 9, 40, 127
6, 42540, Note_on_c, 9, 42, 61
6, 42552, Note_on_c, 9, 42, 0
6, 42552, Note_on_c, 9, 40, 0
6, 42570, Note_on_c, 9, 42, 99
6, 42581, Note_on_c, 9, 42, 0
6, 42600, Note_on_c, 9, 42, 74
6, 42605, Note_on_c, 9, 42, 0
6, 42630, Note_on_c, 9, 36, 127
6, 42630, Note_on_c, 9, 42, 66
6, 42640, Note_on_c, 9, 42, 0
6, 42640, Note_on_c, 9, 36, 0
6, 42660, Note_on_c, 9, 40, 127
6, 42660, Note_on_c, 9, 42, 97
6, 42664, Note_on_c, 9, 42, 0
6, 42664, Note_on_c, 9, 40, 0
6, 42690, Note_on_c, 9, 36, 55
6, 42690, Note_on_c, 9, 42, 60
6, 42703, Note_on_c, 9, 42, 0
6, 42703, Note_on_c, 9, 36, 0
6, 42720, Note_on_c, 9, 36, 127
6, 42720, Note_on_c, 9, 42, 66
6, 42725, Note_on_c, 9, 42, 0
6, 42725, Note_on_c, 9, 36, 0
6, 42750, Note_on_c, 9, 42, 39
6, 42755, Note_on_c, 9, 42, 0
6, 42780, Note_on_c, 9, 40, 127
6, 42780, Note_on_c, 9, 42, 74
6, 42785, Note_on_c, 9, 42, 0
6, 42785, Note_on_c, 9, 40, 0
6, 42810, Note_on_c, 9, 42, 66
6, 42815, Note_on_c, 9, 42, 0
6, 42840, Note_on_c, 9, 42, 86
6, 42845, Note_on_c, 9, 42, 0
6, 42870, Note_on_c, 9, 36, 127
6, 42870, Note_on_c, 9, 42, 101
6, 42875, Note_on_c, 9, 42, 0
6, 42875, Note_on_c, 9, 36, 0
6, 42900, Note_on_c, 9, 40, 127
6, 42900, Note_on_c, 9, 42, 66
6, 42905, Note_on_c, 9, 42, 0
6, 42905, Note_on_c, 9, 40, 0
6, 42930, Note_on_c, 9, 36, 67
6, 42930, Note_on_c, 9, 42, 55
6, 42935, Note_on_c, 9, 42, 0
6, 42935, Note_on_c, 9, 36, 0
6, 42960, Note_on_c, 9, 36, 127
6, 42960, Note_on_c, 9, 42, 104
6, 42965, Note_on_c, 9, 42, 0
6, 42965, Note_on_c, 9, 36, 0
6, 42990, Note_on_c, 9, 42, 61
6, 42995, Note_on_c, 9, 42, 0
6, 43020, Note_on_c, 9, 40, 127
6, 43020, Note_on_c, 9, 42, 61
6, 43025, Note_on_c, 9, 42, 0
6, 43025, Note_on_c, 9, 40, 0
6, 43050, Note_on_c, 9, 42, 99
6, 43054, Note_on_c, 9, 42, 0
6, 43080, Note_on_c, 9, 42, 74
6, 43085, Note_on_c, 9, 42, 0
6, 43110, Note_on_c, 9, 36, 127
6, 43110, Note_on_c, 9, 42, 66
6, 43115, Note_on_c, 9, 42, 0
6, 43115, Note_on_c, 9, 36, 0
6, 43140, Note_on_c, 9, 40, 127
6, 43140, Note_on_c, 9, 42, 97
6, 43145, Note_on_c, 9, 42, 0
6, 43145, Note_on_c, 9, 40, 0
6, 43170, Note_on_c, 9, 36, 55
6, 43170, Note_on_c, 9, 42, 60
6, 43175, Note_on_c, 9, 42, 0
6, 43175, Note_on_c, 9, 36, 0
6, 43200, Note_on_c, 9, 36, 127
6, 43200, Note_on_c, 9, 42, 66
6, 43205, Note_on_c, 9, 42, 0
6, 43205, Note_on_c, 9, 36, 0
6, 43230, Note_on_c, 9, 42, 39
6, 43235, Note_on_c, 9, 42, 0
6, 43260, Note_on_c, 9, 40, 127
6, 43260, Note_on_c, 9, 42, 74
6, 43265, Note_on_c, 9, 42, 0
6, 43265, Note_on_c, 9, 40, 0
6, 43290, Note_on_c, 9, 42, 66
6, 43295, Note_on_c, 9, 42, 0
6, 43320, Note_on_c, 9, 42, 86
6, 43325, Note_on_c, 9, 42, 0
6, 43350, Note_on_c, 9, 36, 127
6, 43350, Note_on_c, 9, 42, 101
6, 43355, Note_on_c, 9, 42, 0
6, 43355, Note_on_c, 9, 36, 0
6, 43380, Note_on_c, 9, 40, 127
6, 43380, Note_on_c, 9, 42, 66
6, 43385, Note_on_c, 9, 42, 0
6, 43385, Note_on_c, 9, 40, 0
6, 43410, Note_on_c, 9, 36, 67
6, 43410, Note_on_c, 9, 42, 55
6, 43415, Note_on_c, 9, 42, 0
6, 43415, Note_on_c, 9, 36, 0
6, 43440, Note_on_c, 9, 36, 127
6, 43440, Note_on_c, 9, 42, 104
6, 43445, Note_on_c, 9, 42, 0
6, 43445, Note_on_c, 9, 36, 0
6, 43470, Note_on_c, 9, 42, 61
6, 43475, Note_on_c, 9, 42, 0
6, 43500, Note_on_c, 9, 40, 127
6, 43500, Note_on_c, 9, 42, 61
6, 43505, Note_on_c, 9, 42, 0
6, 43505, Note_on_c, 9, 40, 0
6, 43530, Note_on_c, 9, 42, 99
6, 43535, Note_on_c, 9, 42, 0
6, 43560, Note_on_c, 9, 42, 74
6, 43565, Note_on_c, 9, 42, 0
6, 43590, Note_on_c, 9, 36, 127
6, 43590, Note_on_c, 9, 42, 66
6, 43595, Note_on_c, 9, 42, 0
6, 43595, Note_on_c, 9, 36, 0
6, 43620, Note_on_c, 9, 40, 127
6, 43620, Note_on_c, 9, 42, 97
6, 43625, Note_on_c, 9, 42, 0
6, 43625, Note_on_c, 9, 40, 0
6, 43650, Note_on_c, 9, 36, 55
6, 43650, Note_on_c, 9, 42, 60
6, 43655, Note_on_c, 9, 42, 0
6, 43655, Note_on_c, 9, 36, 0
6, 43680, Note_on_c, 9, 36, 127
6, 43680, Note_on_c, 9, 42, 66
6, 43685, Note_on_c, 9, 42, 0
6, 43685, Note_on_c, 9, 36, 0
6, 43710, Note_on_c, 9, 42, 39
6, 43715, Note_on_c, 9, 42, 0
6, 43740, Note_on_c, 9, 40, 127
6, 43740, Note_on_c, 9, 42, 74
6, 43745, Note_on_c, 9, 42, 0
6, 43745, Note_on_c, 9, 40, 0
6, 43770, Note_on_c, 9, 42, 66
6, 43775, Note_on_c, 9, 42, 0
6, 43800, Note_on_c, 9, 42, 86
6, 43805, Note_on_c, 9, 42, 0
6, 43830, Note_on_c, 9, 36, 127
6, 43830, Note_on_c, 9, 42, 101
6, 43835, Note_on_c, 9, 42, 0
6, 43835, Note_on_c, 9, 36, 0
6, 43860, Note_on_c, 9, 40, 127
6, 43860, Note_on_c, 9, 42, 66
6, 43865, Note_on_c, 9, 42, 0
6, 43865, Note_on_c, 9, 40, 0
6, 43890, Note_on_c, 9, 36, 67
6, 43890, Note_on_c, 9, 42, 55
6, 43895, Note_on_c, 9, 42, 0
6, 43895, Note_on_c, 9, 36, 0
6, 43920, Note_on_c, 9, 36, 127
6, 43920, Note_on_c, 9, 42, 104
6, 43927, Note_on_c, 9, 42, 0
6, 43927, Note_on_c, 9, 36, 0
6, 43950, Note_on_c, 9, 42, 61
6, 43955, Note_on_c, 9, 42, 0
6, 43980, Note_on_c, 9, 40, 127
6, 43980, Note_on_c, 9, 42, 61
6, 43992, Note_on_c, 9, 42, 0
6, 43992, Note_on_c, 9, 40, 0
6, 44010, Note_on_c, 9, 42, 99
6, 44021, Note_on_c, 9, 42, 0
6, 44040, Note_on_c, 9, 42, 74
6, 44044, Note_on_c, 9, 42, 0
6, 44070, Note_on_c, 9, 36, 127
6, 44070, Note_on_c, 9, 42, 66
6, 44081, Note_on_c, 9, 42, 0
6, 44081, Note_on_c, 9, 36, 0
6, 44100, Note_on_c, 9, 40, 127
6, 44100, Note_on_c, 9, 42, 97
6, 44104, Note_on_c, 9, 42, 0
6, 44104, Note_on_c, 9, 40, 0
6, 44130, Note_on_c, 9, 36, 55
6, 44130, Note_on_c, 9, 42, 60
6, 44141, Note_on_c, 9, 42, 0
6, 44141, Note_on_c, 9, 36, 0
6, 44160, Note_on_c, 9, 36, 127
6, 44160, Note_on_c, 9, 42, 66
6, 44165, Note_on_c, 9, 42, 0
6, 44165, Note_on_c, 9, 36, 0
6, 44190, Note_on_c, 9, 42, 39
6, 44195, Note_on_c, 9, 42, 0
6, 44220, Note_on_c, 9, 40, 127
6, 44220, Note_on_c, 9, 42, 74
6, 44225, Note_on_c, 9, 42, 0
6, 44225, Note_on_c, 9, 40, 0
6, 44250, Note_on_c, 9, 42, 66
6, 44255, Note_on_c, 9, 42, 0
6, 44280, Note_on_c, 9, 42, 86
6, 44285, Note_on_c, 9, 42, 0
6, 44310, Note_on_c, 9, 36, 127
6, 44310, Note_on_c, 9, 42, 101
6, 44315, Note_on_c, 9, 42, 0
6, 44315, Note_on_c, 9, 36, 0
6, 44340, Note_on_c, 9, 40, 127
6, 44340, Note_on_c, 9, 42, 66
6, 44345, Note_on_c, 9, 42, 0
6, 44345, Note_on_c, 9, 40, 0
6, 44370, Note_on_c, 9, 36, 67
6, 44370, Note_on_c, 9, 42, 55
6, 44375, Note_on_c, 9, 42, 0
6, 44375, Note_on_c, 9, 36, 0
6, 44400, Note_on_c, 9, 36, 127
6, 44400, Note_on_c, 9, 42, 104
6, 44405, Note_on_c, 9, 42, 0
6, 44405, Note_on_c, 9, 36, 0
6, 44430, Note_on_c, 9, 42, 61
6, 44435, Note_on_c, 9, 42, 0
6, 44460, Note_on_c, 9, 40, 127
6, 44460, Note_on_c, 9, 42, 61
6, 44465, Note_on_c, 9, 42, 0
6, 44465, Note_on_c, 9, 40, 0
6, 44490, Note_on_c, 9, 42, 99
6, 44495, Note_on_c, 9, 42, 0
6, 44520, Note_on_c, 9, 42, 74
6, 44525, Note_on_c, 9, 42, 0
6, 44550, Note_on_c, 9, 36, 127
6, 44550, Note_on_c, 9, 42, 66
6, 44555, Note_on_c, 9, 42, 0
6, 44555, Note_on_c, 9, 36, 0
6, 44580, Note_on_c, 9, 40, 127
6, 44580, Note_on_c, 9, 42, 97
6, 44585, Note_on_c, 9, 42, 0
6, 44585, Note_on_c, 9, 40, 0
6, 44610, Note_on_c, 9, 36, 55
6, 44610, Note_on_c, 9, 42, 60
6, 44615, Note_on_c, 9, 42, 0
6, 44615, Note_on_c, 9, 36, 0
6, 44640, Note_on_c, 9, 36, 127
6, 44640, Note_on_c, 9, 42, 66
6, 44645, Note_on_c, 9, 42, 0
6, 44645, Note_on_c, 9, 36, 0
6, 44670, Note_on_c, 9, 42, 39
6, 44675, Note_on_c, 9, 42, 0
6, 44700, Note_on_c, 9, 40, 127
6, 44700, Note_on_c, 9, 42, 74
6, 44705, Note_on_c, 9, 42, 0
6, 44705, Note_on_c, 9, 40, 0
6, 44730, Note_on_c, 9, 42, 66
6, 44735, Note_on_c, 9, 42, 0
6, 44760, Note_on_c, 9, 42, 86
6, 44765, Note_on_c, 9, 42, 0
6, 44790, Note_on_c, 9, 36, 127
6, 44790, Note_on_c, 9, 42, 101
6, 44795, Note_on_c, 9, 42, 0
6, 44795, Note_on_c, 9, 36, 0
6, 44820, Note_on_c, 9, 40, 127
6, 44820, Note_on_c, 9, 42, 66
6, 44825, Note_on_c, 9, 42, 0
6, 44825, Note_on_c, 9, 40, 0
6, 44850, Note_on_c, 9, 36, 67
6, 44850, Note_on_c, 9, 42, 55
6, 44855, Note_on_c, 9, 42, 0
6, 44855, Note_on_c, 9, 36, 0
6, 44880, Note_on_c, 9, 36, 127
6, 44880, Note_on_c, 9, 42, 104
6, 44885, Note_on_c, 9, 42, 0
6, 44885, Note_on_c, 9, 36, 0
6, 44910, Note_on_c, 9, 42, 61
6, 44915, Note_on_c, 9, 42, 0
6, 44940, Note_on_c, 9, 40, 127
6, 44940, Note_on_c, 9, 42, 61
6, 44945, Note_on_c, 9, 42, 0
6, 44945, Note_on_c, 9, 40, 0
6, 44970, Note_on_c, 9, 42, 99
6, 44975, Note_on_c, 9, 42, 0
6, 45000, Note_on_c, 9, 42, 74
6, 45005, Note_on_c, 9, 42, 0
6, 45030, Note_on_c, 9, 36, 127
6, 45030, Note_on_c, 9, 42, 66
6, 45035, Note_on_c, 9, 42, 0
6, 45035, Note_on_c, 9, 36, 0
6, 45060, Note_on_c, 9, 40, 127
6, 45060, Note_on_c, 9, 42, 97
6, 45065, Note_on_c, 9, 42, 0
6, 45065, Note_on_c, 9, 40, 0
6, 45090, Note_on_c, 9, 36, 55
6, 45090, Note_on_c, 9, 42, 60
6, 45094, Note_on_c, 9, 42, 0
6, 45094, Note_on_c, 9, 36, 0
6, 45120, Note_on_c, 9, 36, 127
6, 45120, Note_on_c, 9, 42, 66
6, 45125, Note_on_c, 9, 42, 0
6, 45125, Note_on_c, 9, 36, 0
6, 45150, Note_on_c, 9, 42, 39
6, 45155, Note_on_c, 9, 42, 0
6, 45180, Note_on_c, 9, 40, 127
6, 45180, Note_on_c, 9, 42, 74
6, 45185, Note_on_c, 9, 42, 0
6, 45185, Note_on_c, 9, 40, 0
6, 45210, Note_on_c, 9, 42, 66
6, 45215, Note_on_c, 9, 42, 0
6, 45240, Note_on_c, 9, 42, 86
6, 45245, Note_on_c, 9, 42, 0
6, 45270, Note_on_c, 9, 36, 127
6, 45270, Note_on_c, 9, 42, 101
6, 45275, Note_on_c, 9, 42, 0
6, 45275, Note_on_c, 9, 36, 0
6, 45300, Note_on_c, 9, 40, 127
6, 45300, Note_on_c, 9, 42, 66
6, 45305, Note_on_c, 9, 42, 0
6, 45305, Note_on_c, 9, 40, 0
6, 45330, Note_on_c, 9, 36, 67
6, 45330, Note_on_c, 9, 42, 55
6, 45335, Note_on_c, 9, 42, 0
6, 45335, Note_on_c, 9, 36, 0
6, 45360, Note_on_c, 9, 42, 66
6, 45365, Note_on_c, 9, 42, 0
6, 45390, Note_on_c, 9, 40, 96
6, 45390, Note_on_c, 9, 36, 103
6, 45390, Note_on_c, 9, 44, 84
6, 45396, Note_on_c, 9, 44, 0
6, 45396, Note_on_c, 9, 36, 0
6, 45396, Note_on_c, 9, 40, 0
6, 45420, Note_on_c, 9, 40, 100
6, 45420, Note_on_c, 9, 36, 110
6, 45420, Note_on_c, 9, 44, 83
6, 45427, Note_on_c, 9, 44, 0
6, 45427, Note_on_c, 9, 36, 0
6, 45427, Note_on_c, 9, 40, 0
6, 45450, Note_on_c, 9, 40, 125
6, 45450, Note_on_c, 9, 36, 112
6, 45450, Note_on_c, 9, 44, 106
6, 45456, Note_on_c, 9, 44, 0
6, 45456, Note_on_c, 9, 36, 0
6, 45456, Note_on_c, 9, 40, 0
6, 45510, Note_on_c, 9, 40, 118
6, 45510, Note_on_c, 9, 36, 99
6, 45510, Note_on_c, 9, 44, 76
6, 45517, Note_on_c, 9, 44, 0
6, 45517, Note_on_c, 9, 36, 0
6, 45517, Note_on_c, 9, 40, 0
6, 45540, Note_on_c, 9, 40, 126
6, 45540, Note_on_c, 9, 36, 106
6, 45540, Note_on_c, 9, 44, 89
6, 45547, Note_on_c, 9, 44, 0
6, 45547, Note_on_c, 9, 36, 0
6, 45547, Note_on_c, 9, 40, 0
6, 45570, Note_on_c, 9, 40, 127
6, 45570, Note_on_c, 9, 36, 94
6, 45570, Note_on_c, 9, 44, 127
6, 45577, Note_on_c, 9, 44, 0
6, 45577, Note_on_c, 9, 36, 0
6, 45577, Note_on_c, 9, 40, 0
6, 45630, Note_on_c, 9, 40, 119
6, 45630, Note_on_c, 9, 36, 96
6, 45635, Note_on_c, 9, 36, 0
6, 45635, Note_on_c, 9, 40, 0
6, 45660, Note_on_c, 9, 40, 114
6, 45660, Note_on_c, 9, 36, 94
6, 45660, Note_on_c, 9, 44, 104
6, 45667, Note_on_c, 9, 44, 0
6, 45667, Note_on_c, 9, 36, 0
6, 45667, Note_on_c, 9, 40, 0
6, 45690, Note_on_c, 9, 40, 112
6, 45690, Note_on_c, 9, 36, 94
6, 45690, Note_on_c, 9, 44, 104
6, 45698, Note_on_c, 9, 44, 0
6, 45698, Note_on_c, 9, 36, 0
6, 45698, Note_on_c, 9, 40, 0
6, 45720, Note_on_c, 9, 40, 127
6, 45725, Note_on_c, 9, 40, 0
6, 45750, Note_on_c, 9, 40, 100
6, 45750, Note_on_c, 9, 36, 92
6, 45750, Note_on_c, 9, 44, 80
6, 45757, Note_on_c, 9, 44, 0
6, 45757, Note_on_c, 9, 36, 0
6, 45757, Note_on_c, 9, 40, 0
6, 45780, Note_on_c, 9, 40, 103
6, 45780, Note_on_c, 9, 36, 87
6, 45780, Note_on_c, 9, 44, 72
6, 45787, Note_on_c, 9, 44, 0
6, 45787, Note_on_c, 9, 36, 0
6, 45787, Note_on_c, 9, 40, 0
6, 45810, Note_on_c, 9, 40, 125
6, 45810, Note_on_c, 9, 36, 79
6, 45810, Note_on_c, 9, 44, 88
6, 45817, Note_on_c, 9, 44, 0
6, 45817, Note_on_c, 9, 36, 0
6, 45817, Note_on_c, 9, 40, 0
6, 45840, Note_on_c, 9, 40, 127
6, 45845, Note_on_c, 9, 40, 0
6, 45870, Note_on_c, 9, 40, 113
6, 45870, Note_on_c, 9, 36, 95
6, 45870, Note_on_c, 9, 44, 95
6, 45876, Note_on_c, 9, 44, 0
6, 45876, Note_on_c, 9, 36, 0
6, 45876, Note_on_c, 9, 40, 0
6, 45900, Note_on_c, 9, 40, 114
6, 45900, Note_on_c, 9, 36, 88
6, 45900, Note_on_c, 9, 44, 93
6, 45907, Note_on_c, 9, 44, 0
6, 45907, Note_on_c, 9, 36, 0
6, 45907, Note_on_c, 9, 40, 0
6, 45930, Note_on_c, 9, 40, 113
6, 45930, Note_on_c, 9, 36, 89
6, 45930, Note_on_c, 9, 44, 97
6, 45936, Note_on_c, 9, 44, 0
6, 45936, Note_on_c, 9, 36, 0
6, 45936, Note_on_c, 9, 40, 0
6, 45945, Note_on_c, 9, 40, 127
6, 45950, Note_on_c, 9, 40, 0
6, 45960, Note_on_c, 9, 47, 109
6, 45960, Note_on_c, 9, 45, 70
6, 45960, Note_on_c, 9, 40, 127
6, 45965, Note_on_c, 9, 40, 0
6, 45965, Note_on_c, 9, 45, 0
6, 45965, Note_on_c, 9, 47, 0
6, 45990, Note_on_c, 9, 43, 106
6, 45990, Note_on_c, 9, 41, 65
6, 45990, Note_on_c, 9, 36, 67
6, 45996, Note_on_c, 9, 36, 0
6, 45996, Note_on_c, 9, 41, 0
6, 45996, Note_on_c, 9, 43, 0
6, 46020, Note_on_c, 9, 41, 99
6, 46020, Note_on_c, 9, 45, 99
6, 46020, Note_on_c, 9, 36, 95
6, 46028, Note_on_c, 9, 36, 0
6, 46028, Note_on_c, 9, 45, 0
6, 46028, Note_on_c, 9, 41, 0
6, 46050, Note_on_c, 9, 52, 122
6, 46050, Note_on_c, 9, 49, 127
6, 46050, Note_on_c, 9, 55, 127
6, 46050, Note_on_c, 9, 36, 105
6, 46057, Note_on_c, 9, 36, 0
6, 46057, Note_on_c, 9, 52, 0
6, 46057, Note_on_c, 9, 49, 0
6, 46057, Note_on_c, 9, 55, 0
6, 46080, Note_on_c, 9, 46, 77
6, 46085, Note_on_c, 9, 46, 0
6, 46110, Note_on_c, 9, 46, 71
6, 46115, Note_on_c, 9, 46, 0
6, 46125, Note_on_c, 9, 46, 67
6, 46130, Note_on_c, 9, 46, 0
6, 46155, Note_on_c, 9, 46, 74
6, 46155, Note_on_c, 9, 46, 67
6, 46160, Note_on_c, 9, 46, 0
6, 46160, Note_on_c, 9, 46, 0
6, 46185, Note_on_c, 9, 46, 84
6, 46190, Note_on_c, 9, 46, 0
6, 46215, Note_on_c, 9, 46, 61
6, 46220, Note_on_c, 9, 46, 0
6, 46230, Note_on_c, 9, 46, 88
6, 46230, Note_on_c, 9, 46, 106
6, 46235, Note_on_c, 9, 46, 0
6, 46235, Note_on_c, 9, 46, 0
6, 46245, Note_on_c, 9, 49, 63
6, 46250, Note_on_c, 9, 49, 0
6, 46260, Note_on_c, 9, 49, 56
6, 46260, Note_on_c, 9, 46, 116
6, 46260, Note_on_c, 9, 46, 127
6, 46265, Note_on_c, 9, 46, 0
6, 46265, Note_on_c, 9, 46, 0
6, 46265, Note_on_c, 9, 49, 0
6, 46275, Note_on_c, 9, 49, 49
6, 46275, Note_on_c, 9, 49, 101
6, 46275, Note_on_c, 9, 49, 97
6, 46275, Note_on_c, 9, 46, 89
6, 46280, Note_on_c, 9, 46, 0
6, 46280, Note_on_c, 9, 49, 0
6, 46280, Note_on_c, 9, 49, 0
6, 46280, Note_on_c, 9, 49, 0
6, 46290, Note_on_c, 9, 49, 105
6, 46290, Note_on_c, 9, 49, 127
6, 46290, Note_on_c, 9, 44, 62
6, 46290, Note_on_c, 9, 46, 127
6, 46295, Note_on_c, 9, 46, 0
6, 46295, Note_on_c, 9, 49, 0
6, 46295, Note_on_c, 9, 49, 0
6, 46295, Note_on_c, 9, 44, 0
6, 46295, End_track
0, 0, End_of_file
