0, 0, Header, 1, 9, 120
1, 0, Start_track
1, 0, Time_signature, 4, 2, 24, 8
1, 0, Key_signature, 4, "major"
1, 0, Tempo, 625000
1, 2760, Tempo, 1666667
1, 2880, Key_signature, 5, "major"
1, 2880, Tempo, 517241
1, 32160, Key_signature, 3, "major"
1, 39840, Key_signature, 5, "major"
1, 39840, End_track
2, 0, Start_track
2, 0, MIDI_port, 0
2, 0, Title_t, "Vocal"
2, 0, Program_c, 0, 85
2, 0, Control_c, 0, 7, 125
2, 9120, Control_c, 0, 7, 125
2, 9180, Note_on_c, 0, 75, 100
2, 9209, Note_on_c, 0, 75, 0
2, 9210, Note_on_c, 0, 75, 100
2, 9239, Note_on_c, 0, 75, 0
2, 9240, Note_on_c, 0, 78, 100
2, 9359, Note_on_c, 0, 78, 0
2, 9360, Note_on_c, 0, 78, 100
2, 9389, Note_on_c, 0, 78, 0
2, 9390, Note_on_c, 0, 78, 100
2, 9419, Note_on_c, 0, 78, 0
2, 9420, Note_on_c, 0, 78, 100
2, 9449, Note_on_c, 0, 78, 0
2, 9450, Note_on_c, 0, 78, 100
2, 9479, Note_on_c, 0, 78, 0
2, 9480, Note_on_c, 0, 80, 100
2, 9599, Note_on_c, 0, 80, 0
2, 10140, Note_on_c, 0, 75, 100
2, 10259, Note_on_c, 0, 75, 0
2, 10260, Note_on_c, 0, 75, 100
2, 10319, Note_on_c, 0, 75, 0
2, 10320, Note_on_c, 0, 75, 100
2, 10439, Note_on_c, 0, 75, 0
2, 10440, Note_on_c, 0, 73, 100
2, 10499, Note_on_c, 0, 73, 0
2, 10500, Note_on_c, 0, 71, 100
2, 10559, Note_on_c, 0, 71, 0
2, 10560, Note_on_c, 0, 73, 100
2, 10679, Note_on_c, 0, 73, 0
2, 10680, Note_on_c, 0, 71, 100
2, 10799, Note_on_c, 0, 71, 0
2, 11040, Control_c, 0, 7, 125
2, 11100, Note_on_c, 0, 75, 100
2, 11159, Note_on_c, 0, 75, 0
2, 11160, Note_on_c, 0, 78, 100
2, 11189, Note_on_c, 0, 78, 0
2, 11190, Note_on_c, 0, 78, 100
2, 11249, Note_on_c, 0, 78, 0
2, 11250, Note_on_c, 0, 78, 100
2, 11279, Note_on_c, 0, 78, 0
2, 11280, Note_on_c, 0, 78, 100
2, 11339, Note_on_c, 0, 78, 0
2, 11340, Note_on_c, 0, 78, 100
2, 11399, Note_on_c, 0, 78, 0
2, 11400, Note_on_c, 0, 80, 100
2, 11519, Note_on_c, 0, 80, 0
2, 12060, Note_on_c, 0, 71, 100
2, 12089, Note_on_c, 0, 71, 0
2, 12090, Note_on_c, 0, 71, 100
2, 12119, Note_on_c, 0, 71, 0
2, 12120, Note_on_c, 0, 75, 100
2, 12209, Note_on_c, 0, 75, 0
2, 12210, Note_on_c, 0, 75, 100
2, 12239, Note_on_c, 0, 75, 0
2, 12240, Note_on_c, 0, 75, 100
2, 12269, Note_on_c, 0, 75, 0
2, 12270, Note_on_c, 0, 73, 100
2, 12299, Note_on_c, 0, 73, 0
2, 12300, Note_on_c, 0, 73, 100
2, 12329, Note_on_c, 0, 73, 0
2, 12330, Note_on_c, 0, 73, 100
2, 12359, Note_on_c, 0, 73, 0
2, 12360, Note_on_c, 0, 73, 100
2, 12479, Note_on_c, 0, 73, 0
2, 12480, Note_on_c, 0, 73, 100
2, 12599, Note_on_c, 0, 73, 0
2, 12600, Note_on_c, 0, 71, 100
2, 12719, Note_on_c, 0, 71, 0
2, 12960, Note_on_c, 0, 75, 100
2, 13139, Note_on_c, 0, 75, 0
2, 13140, Note_on_c, 0, 73, 100
2, 13199, Note_on_c, 0, 73, 0
2, 13200, Note_on_c, 0, 73, 100
2, 13319, Note_on_c, 0, 73, 0
2, 13380, Note_on_c, 0, 66, 100
2, 13439, Note_on_c, 0, 66, 0
2, 13440, Note_on_c, 0, 75, 100
2, 13619, Note_on_c, 0, 75, 0
2, 13620, Note_on_c, 0, 76, 100
2, 13679, Note_on_c, 0, 76, 0
2, 13680, Note_on_c, 0, 76, 100
2, 13739, Note_on_c, 0, 76, 0
2, 13740, Note_on_c, 0, 75, 100
2, 13799, Note_on_c, 0, 75, 0
2, 13800, Note_on_c, 0, 75, 100
2, 13859, Note_on_c, 0, 75, 0
2, 13860, Note_on_c, 0, 73, 100
2, 13919, Note_on_c, 0, 73, 0
2, 13920, Note_on_c, 0, 73, 100
2, 14099, Note_on_c, 0, 73, 0
2, 14100, Note_on_c, 0, 71, 100
2, 14159, Note_on_c, 0, 71, 0
2, 14160, Note_on_c, 0, 71, 100
2, 14399, Note_on_c, 0, 71, 0
2, 14880, Note_on_c, 0, 75, 100
2, 15059, Note_on_c, 0, 75, 0
2, 15060, Note_on_c, 0, 73, 100
2, 15119, Note_on_c, 0, 73, 0
2, 15120, Note_on_c, 0, 73, 100
2, 15239, Note_on_c, 0, 73, 0
2, 15300, Note_on_c, 0, 66, 100
2, 15359, Note_on_c, 0, 66, 0
2, 15360, Note_on_c, 0, 75, 100
2, 15539, Note_on_c, 0, 75, 0
2, 15540, Note_on_c, 0, 76, 100
2, 15599, Note_on_c, 0, 76, 0
2, 15600, Note_on_c, 0, 76, 100
2, 15659, Note_on_c, 0, 76, 0
2, 15660, Note_on_c, 0, 75, 100
2, 15719, Note_on_c, 0, 75, 0
2, 15720, Note_on_c, 0, 75, 100
2, 15779, Note_on_c, 0, 75, 0
2, 15780, Note_on_c, 0, 73, 100
2, 15839, Note_on_c, 0, 73, 0
2, 15840, Note_on_c, 0, 73, 100
2, 15959, Note_on_c, 0, 73, 0
2, 15960, Note_on_c, 0, 75, 100
2, 16019, Note_on_c, 0, 75, 0
2, 16020, Note_on_c, 0, 71, 100
2, 16079, Note_on_c, 0, 71, 0
2, 16080, Note_on_c, 0, 71, 100
2, 16319, Note_on_c, 0, 71, 0
2, 16320, Note_on_c, 0, 75, 100
2, 16379, Note_on_c, 0, 75, 0
2, 16380, Note_on_c, 0, 78, 100
2, 16439, Note_on_c, 0, 78, 0
2, 16440, Note_on_c, 0, 78, 100
2, 16499, Note_on_c, 0, 78, 0
2, 16500, Note_on_c, 0, 78, 100
2, 16529, Note_on_c, 0, 78, 0
2, 16530, Note_on_c, 0, 78, 100
2, 16559, Note_on_c, 0, 78, 0
2, 16560, Note_on_c, 0, 78, 100
2, 16619, Note_on_c, 0, 78, 0
2, 16620, Note_on_c, 0, 78, 100
2, 16679, Note_on_c, 0, 78, 0
2, 16680, Note_on_c, 0, 80, 100
2, 16799, Note_on_c, 0, 80, 0
2, 16920, Note_on_c, 0, 75, 100
2, 16980, Note_on_c, 0, 75, 0
2, 16980, Note_on_c, 0, 78, 100
2, 17159, Note_on_c, 0, 78, 0
2, 17160, Note_on_c, 0, 78, 100
2, 17219, Note_on_c, 0, 78, 0
2, 17220, Note_on_c, 0, 78, 100
2, 17279, Note_on_c, 0, 78, 0
2, 17280, Note_on_c, 0, 80, 100
2, 17399, Note_on_c, 0, 80, 0
2, 17400, Note_on_c, 0, 78, 100
2, 17519, Note_on_c, 0, 78, 0
2, 17880, Note_on_c, 0, 75, 100
2, 17939, Note_on_c, 0, 75, 0
2, 17940, Note_on_c, 0, 78, 100
2, 18119, Note_on_c, 0, 78, 0
2, 18120, Note_on_c, 0, 75, 100
2, 18179, Note_on_c, 0, 75, 0
2, 18180, Note_on_c, 0, 75, 100
2, 18239, Note_on_c, 0, 75, 0
2, 18240, Note_on_c, 0, 73, 100
2, 18299, Note_on_c, 0, 73, 0
2, 18300, Note_on_c, 0, 71, 100
2, 18419, Note_on_c, 0, 71, 0
2, 18420, Note_on_c, 0, 71, 100
2, 18599, Note_on_c, 0, 71, 0
2, 18840, Note_on_c, 0, 75, 100
2, 18900, Note_on_c, 0, 75, 0
2, 18900, Note_on_c, 0, 78, 100
2, 19079, Note_on_c, 0, 78, 0
2, 19080, Note_on_c, 0, 75, 100
2, 19139, Note_on_c, 0, 75, 0
2, 19140, Note_on_c, 0, 78, 100
2, 19199, Note_on_c, 0, 78, 0
2, 19200, Note_on_c, 0, 80, 100
2, 19319, Note_on_c, 0, 80, 0
2, 19320, Note_on_c, 0, 78, 100
2, 19439, Note_on_c, 0, 78, 0
2, 19620, Note_on_c, 0, 76, 100
2, 19799, Note_on_c, 0, 76, 0
2, 19800, Note_on_c, 0, 75, 100
2, 19919, Note_on_c, 0, 75, 0
2, 19920, Note_on_c, 0, 73, 100
2, 19979, Note_on_c, 0, 73, 0
2, 19980, Note_on_c, 0, 71, 100
2, 20039, Note_on_c, 0, 71, 0
2, 20040, Note_on_c, 0, 75, 100
2, 20219, Note_on_c, 0, 75, 0
2, 20220, Note_on_c, 0, 68, 100
2, 20249, Note_on_c, 0, 68, 0
2, 20250, Note_on_c, 0, 68, 100
2, 20279, Note_on_c, 0, 68, 0
2, 20280, Note_on_c, 0, 71, 100
2, 20339, Note_on_c, 0, 71, 0
2, 20340, Note_on_c, 0, 71, 100
2, 20369, Note_on_c, 0, 71, 0
2, 20370, Note_on_c, 0, 71, 100
2, 20519, Note_on_c, 0, 71, 0
2, 20520, Note_on_c, 0, 71, 100
2, 20639, Note_on_c, 0, 71, 0
2, 20640, Control_c, 0, 7, 125
2, 20700, Note_on_c, 0, 75, 100
2, 20729, Note_on_c, 0, 75, 0
2, 20730, Note_on_c, 0, 75, 100
2, 20759, Note_on_c, 0, 75, 0
2, 20760, Note_on_c, 0, 78, 100
2, 20879, Note_on_c, 0, 78, 0
2, 20880, Note_on_c, 0, 78, 100
2, 20909, Note_on_c, 0, 78, 0
2, 20910, Note_on_c, 0, 78, 100
2, 20939, Note_on_c, 0, 78, 0
2, 20940, Note_on_c, 0, 78, 100
2, 20969, Note_on_c, 0, 78, 0
2, 20970, Note_on_c, 0, 78, 100
2, 20999, Note_on_c, 0, 78, 0
2, 21000, Note_on_c, 0, 80, 100
2, 21119, Note_on_c, 0, 80, 0
2, 21660, Note_on_c, 0, 75, 100
2, 21779, Note_on_c, 0, 75, 0
2, 21780, Note_on_c, 0, 75, 100
2, 21839, Note_on_c, 0, 75, 0
2, 21840, Note_on_c, 0, 75, 100
2, 21959, Note_on_c, 0, 75, 0
2, 21960, Note_on_c, 0, 73, 100
2, 22019, Note_on_c, 0, 73, 0
2, 22020, Note_on_c, 0, 71, 100
2, 22079, Note_on_c, 0, 71, 0
2, 22080, Note_on_c, 0, 73, 100
2, 22199, Note_on_c, 0, 73, 0
2, 22200, Note_on_c, 0, 71, 100
2, 22319, Note_on_c, 0, 71, 0
2, 22560, Control_c, 0, 7, 125
2, 22620, Note_on_c, 0, 75, 100
2, 22679, Note_on_c, 0, 75, 0
2, 22680, Note_on_c, 0, 78, 100
2, 22709, Note_on_c, 0, 78, 0
2, 22710, Note_on_c, 0, 78, 100
2, 22769, Note_on_c, 0, 78, 0
2, 22770, Note_on_c, 0, 78, 100
2, 22799, Note_on_c, 0, 78, 0
2, 22800, Note_on_c, 0, 78, 100
2, 22859, Note_on_c, 0, 78, 0
2, 22860, Note_on_c, 0, 78, 100
2, 22919, Note_on_c, 0, 78, 0
2, 22920, Note_on_c, 0, 80, 100
2, 23039, Note_on_c, 0, 80, 0
2, 23580, Note_on_c, 0, 71, 100
2, 23639, Note_on_c, 0, 71, 0
2, 23640, Note_on_c, 0, 75, 100
2, 23729, Note_on_c, 0, 75, 0
2, 23730, Note_on_c, 0, 75, 100
2, 23759, Note_on_c, 0, 75, 0
2, 23760, Note_on_c, 0, 75, 100
2, 23819, Note_on_c, 0, 75, 0
2, 23820, Note_on_c, 0, 73, 100
2, 23879, Note_on_c, 0, 73, 0
2, 23880, Note_on_c, 0, 73, 100
2, 23999, Note_on_c, 0, 73, 0
2, 24000, Note_on_c, 0, 73, 100
2, 24119, Note_on_c, 0, 73, 0
2, 24120, Note_on_c, 0, 71, 100
2, 24239, Note_on_c, 0, 71, 0
2, 24480, Note_on_c, 0, 75, 100
2, 24659, Note_on_c, 0, 75, 0
2, 24660, Note_on_c, 0, 73, 100
2, 24719, Note_on_c, 0, 73, 0
2, 24720, Note_on_c, 0, 73, 100
2, 24839, Note_on_c, 0, 73, 0
2, 24900, Note_on_c, 0, 66, 100
2, 24959, Note_on_c, 0, 66, 0
2, 24960, Note_on_c, 0, 75, 100
2, 25139, Note_on_c, 0, 75, 0
2, 25140, Note_on_c, 0, 76, 100
2, 25199, Note_on_c, 0, 76, 0
2, 25200, Note_on_c, 0, 76, 100
2, 25259, Note_on_c, 0, 76, 0
2, 25260, Note_on_c, 0, 75, 100
2, 25319, Note_on_c, 0, 75, 0
2, 25320, Note_on_c, 0, 75, 100
2, 25379, Note_on_c, 0, 75, 0
2, 25380, Note_on_c, 0, 73, 100
2, 25439, Note_on_c, 0, 73, 0
2, 25440, Note_on_c, 0, 73, 100
2, 25619, Note_on_c, 0, 73, 0
2, 25620, Note_on_c, 0, 71, 100
2, 25679, Note_on_c, 0, 71, 0
2, 25680, Note_on_c, 0, 71, 100
2, 25919, Note_on_c, 0, 71, 0
2, 26400, Note_on_c, 0, 75, 100
2, 26579, Note_on_c, 0, 75, 0
2, 26580, Note_on_c, 0, 73, 100
2, 26639, Note_on_c, 0, 73, 0
2, 26640, Note_on_c, 0, 73, 100
2, 26759, Note_on_c, 0, 73, 0
2, 26820, Note_on_c, 0, 66, 100
2, 26879, Note_on_c, 0, 66, 0
2, 26880, Note_on_c, 0, 75, 100
2, 27059, Note_on_c, 0, 75, 0
2, 27060, Note_on_c, 0, 76, 100
2, 27119, Note_on_c, 0, 76, 0
2, 27120, Note_on_c, 0, 76, 100
2, 27239, Note_on_c, 0, 76, 0
2, 27240, Note_on_c, 0, 75, 100
2, 27359, Note_on_c, 0, 75, 0
2, 27360, Note_on_c, 0, 73, 100
2, 27479, Note_on_c, 0, 73, 0
2, 27480, Note_on_c, 0, 75, 100
2, 27539, Note_on_c, 0, 75, 0
2, 27540, Note_on_c, 0, 71, 100
2, 27599, Note_on_c, 0, 71, 0
2, 27600, Note_on_c, 0, 71, 100
2, 27839, Note_on_c, 0, 71, 0
2, 27840, Note_on_c, 0, 75, 100
2, 27899, Note_on_c, 0, 75, 0
2, 27900, Note_on_c, 0, 78, 100
2, 27959, Note_on_c, 0, 78, 0
2, 27960, Note_on_c, 0, 78, 100
2, 28019, Note_on_c, 0, 78, 0
2, 28020, Note_on_c, 0, 78, 100
2, 28049, Note_on_c, 0, 78, 0
2, 28050, Note_on_c, 0, 78, 100
2, 28079, Note_on_c, 0, 78, 0
2, 28080, Note_on_c, 0, 78, 100
2, 28139, Note_on_c, 0, 78, 0
2, 28140, Note_on_c, 0, 78, 100
2, 28199, Note_on_c, 0, 78, 0
2, 28200, Note_on_c, 0, 80, 100
2, 28319, Note_on_c, 0, 80, 0
2, 28440, Note_on_c, 0, 75, 100
2, 28500, Note_on_c, 0, 75, 0
2, 28500, Note_on_c, 0, 78, 100
2, 28679, Note_on_c, 0, 78, 0
2, 28680, Note_on_c, 0, 78, 100
2, 28739, Note_on_c, 0, 78, 0
2, 28740, Note_on_c, 0, 78, 100
2, 28799, Note_on_c, 0, 78, 0
2, 28800, Note_on_c, 0, 80, 100
2, 28919, Note_on_c, 0, 80, 0
2, 28920, Note_on_c, 0, 78, 100
2, 29039, Note_on_c, 0, 78, 0
2, 29400, Note_on_c, 0, 75, 100
2, 29459, Note_on_c, 0, 75, 0
2, 29460, Note_on_c, 0, 78, 100
2, 29639, Note_on_c, 0, 78, 0
2, 29640, Note_on_c, 0, 75, 100
2, 29699, Note_on_c, 0, 75, 0
2, 29700, Note_on_c, 0, 75, 100
2, 29759, Note_on_c, 0, 75, 0
2, 29760, Note_on_c, 0, 73, 100
2, 29819, Note_on_c, 0, 73, 0
2, 29820, Note_on_c, 0, 71, 100
2, 29939, Note_on_c, 0, 71, 0
2, 29940, Note_on_c, 0, 71, 100
2, 30119, Note_on_c, 0, 71, 0
2, 30360, Note_on_c, 0, 75, 100
2, 30420, Note_on_c, 0, 75, 0
2, 30420, Note_on_c, 0, 78, 100
2, 30599, Note_on_c, 0, 78, 0
2, 30600, Note_on_c, 0, 75, 100
2, 30659, Note_on_c, 0, 75, 0
2, 30660, Note_on_c, 0, 78, 100
2, 30719, Note_on_c, 0, 78, 0
2, 30720, Note_on_c, 0, 80, 100
2, 30839, Note_on_c, 0, 80, 0
2, 30840, Note_on_c, 0, 78, 100
2, 30959, Note_on_c, 0, 78, 0
2, 31140, Note_on_c, 0, 76, 100
2, 31319, Note_on_c, 0, 76, 0
2, 31320, Note_on_c, 0, 75, 100
2, 31439, Note_on_c, 0, 75, 0
2, 31440, Note_on_c, 0, 73, 100
2, 31499, Note_on_c, 0, 73, 0
2, 31500, Note_on_c, 0, 71, 100
2, 31559, Note_on_c, 0, 71, 0
2, 31560, Note_on_c, 0, 75, 100
2, 31739, Note_on_c, 0, 75, 0
2, 31740, Note_on_c, 0, 68, 100
2, 31769, Note_on_c, 0, 68, 0
2, 31770, Note_on_c, 0, 68, 100
2, 31799, Note_on_c, 0, 68, 0
2, 31800, Note_on_c, 0, 71, 100
2, 31859, Note_on_c, 0, 71, 0
2, 31860, Note_on_c, 0, 71, 100
2, 31889, Note_on_c, 0, 71, 0
2, 31890, Note_on_c, 0, 71, 100
2, 32039, Note_on_c, 0, 71, 0
2, 32040, Note_on_c, 0, 75, 100
2, 32159, Note_on_c, 0, 75, 0
2, 39840, Note_on_c, 0, 75, 100
2, 40019, Note_on_c, 0, 75, 0
2, 40020, Note_on_c, 0, 73, 100
2, 40079, Note_on_c, 0, 73, 0
2, 40080, Note_on_c, 0, 73, 100
2, 40199, Note_on_c, 0, 73, 0
2, 40320, Note_on_c, 0, 75, 100
2, 40439, Note_on_c, 0, 75, 0
2, 40440, Note_on_c, 0, 75, 100
2, 40499, Note_on_c, 0, 75, 0
2, 40500, Note_on_c, 0, 76, 100
2, 40559, Note_on_c, 0, 76, 0
2, 40560, Note_on_c, 0, 76, 100
2, 40619, Note_on_c, 0, 76, 0
2, 40620, Note_on_c, 0, 75, 100
2, 40679, Note_on_c, 0, 75, 0
2, 40680, Note_on_c, 0, 75, 100
2, 40739, Note_on_c, 0, 75, 0
2, 40740, Note_on_c, 0, 73, 100
2, 40799, Note_on_c, 0, 73, 0
2, 40800, Note_on_c, 0, 73, 100
2, 40979, Note_on_c, 0, 73, 0
2, 40980, Note_on_c, 0, 71, 100
2, 41039, Note_on_c, 0, 71, 0
2, 41040, Note_on_c, 0, 71, 100
2, 41279, Note_on_c, 0, 71, 0
2, 41760, Note_on_c, 0, 75, 100
2, 41939, Note_on_c, 0, 75, 0
2, 41940, Note_on_c, 0, 73, 100
2, 41999, Note_on_c, 0, 73, 0
2, 42000, Note_on_c, 0, 73, 100
2, 42119, Note_on_c, 0, 73, 0
2, 42180, Note_on_c, 0, 66, 100
2, 42239, Note_on_c, 0, 66, 0
2, 42240, Note_on_c, 0, 75, 100
2, 42419, Note_on_c, 0, 75, 0
2, 42420, Note_on_c, 0, 76, 100
2, 42479, Note_on_c, 0, 76, 0
2, 42480, Note_on_c, 0, 76, 100
2, 42599, Note_on_c, 0, 76, 0
2, 42600, Note_on_c, 0, 75, 100
2, 42719, Note_on_c, 0, 75, 0
2, 42720, Note_on_c, 0, 73, 100
2, 42839, Note_on_c, 0, 73, 0
2, 42840, Note_on_c, 0, 75, 100
2, 42899, Note_on_c, 0, 75, 0
2, 42900, Note_on_c, 0, 71, 100
2, 42959, Note_on_c, 0, 71, 0
2, 42960, Note_on_c, 0, 71, 100
2, 43079, Note_on_c, 0, 71, 0
2, 43140, Note_on_c, 0, 75, 100
2, 43169, Note_on_c, 0, 75, 0
2, 43170, Note_on_c, 0, 75, 100
2, 43199, Note_on_c, 0, 75, 0
2, 43200, Note_on_c, 0, 75, 100
2, 43259, Note_on_c, 0, 75, 0
2, 43260, Note_on_c, 0, 78, 100
2, 43319, Note_on_c, 0, 78, 0
2, 43320, Note_on_c, 0, 78, 100
2, 43379, Note_on_c, 0, 78, 0
2, 43380, Note_on_c, 0, 78, 100
2, 43409, Note_on_c, 0, 78, 0
2, 43410, Note_on_c, 0, 78, 100
2, 43439, Note_on_c, 0, 78, 0
2, 43440, Note_on_c, 0, 78, 100
2, 43499, Note_on_c, 0, 78, 0
2, 43500, Note_on_c, 0, 78, 100
2, 43559, Note_on_c, 0, 78, 0
2, 43560, Note_on_c, 0, 80, 100
2, 43679, Note_on_c, 0, 80, 0
2, 43800, Note_on_c, 0, 75, 100
2, 43860, Note_on_c, 0, 75, 0
2, 43860, Note_on_c, 0, 78, 100
2, 44039, Note_on_c, 0, 78, 0
2, 44040, Note_on_c, 0, 78, 100
2, 44099, Note_on_c, 0, 78, 0
2, 44100, Note_on_c, 0, 78, 100
2, 44159, Note_on_c, 0, 78, 0
2, 44160, Note_on_c, 0, 80, 100
2, 44279, Note_on_c, 0, 80, 0
2, 44280, Note_on_c, 0, 78, 100
2, 44399, Note_on_c, 0, 78, 0
2, 44760, Note_on_c, 0, 75, 100
2, 44819, Note_on_c, 0, 75, 0
2, 44820, Note_on_c, 0, 78, 100
2, 44999, Note_on_c, 0, 78, 0
2, 45000, Note_on_c, 0, 75, 100
2, 45059, Note_on_c, 0, 75, 0
2, 45060, Note_on_c, 0, 75, 100
2, 45119, Note_on_c, 0, 75, 0
2, 45120, Note_on_c, 0, 73, 100
2, 45179, Note_on_c, 0, 73, 0
2, 45180, Note_on_c, 0, 71, 100
2, 45299, Note_on_c, 0, 71, 0
2, 45300, Note_on_c, 0, 71, 100
2, 45479, Note_on_c, 0, 71, 0
2, 45720, Note_on_c, 0, 75, 100
2, 45780, Note_on_c, 0, 75, 0
2, 45780, Note_on_c, 0, 78, 100
2, 45959, Note_on_c, 0, 78, 0
2, 45960, Note_on_c, 0, 75, 100
2, 46019, Note_on_c, 0, 75, 0
2, 46020, Note_on_c, 0, 78, 100
2, 46079, Note_on_c, 0, 78, 0
2, 46080, Note_on_c, 0, 80, 100
2, 46199, Note_on_c, 0, 80, 0
2, 46200, Note_on_c, 0, 78, 100
2, 46319, Note_on_c, 0, 78, 0
2, 46500, Note_on_c, 0, 76, 100
2, 46679, Note_on_c, 0, 76, 0
2, 46680, Note_on_c, 0, 75, 100
2, 46799, Note_on_c, 0, 75, 0
2, 46800, Note_on_c, 0, 73, 100
2, 46859, Note_on_c, 0, 73, 0
2, 46860, Note_on_c, 0, 71, 100
2, 46919, Note_on_c, 0, 71, 0
2, 46920, Note_on_c, 0, 75, 100
2, 47099, Note_on_c, 0, 75, 0
2, 47100, Note_on_c, 0, 68, 100
2, 47129, Note_on_c, 0, 68, 0
2, 47130, Note_on_c, 0, 68, 100
2, 47159, Note_on_c, 0, 68, 0
2, 47160, Note_on_c, 0, 71, 100
2, 47219, Note_on_c, 0, 71, 0
2, 47220, Note_on_c, 0, 71, 100
2, 47249, Note_on_c, 0, 71, 0
2, 47250, Note_on_c, 0, 71, 100
2, 47399, Note_on_c, 0, 71, 0
2, 47400, Note_on_c, 0, 71, 100
2, 47519, Note_on_c, 0, 71, 0
2, 48120, Note_on_c, 0, 78, 100
2, 48179, Note_on_c, 0, 78, 0
2, 48180, Note_on_c, 0, 78, 100
2, 48359, Note_on_c, 0, 78, 0
2, 48360, Note_on_c, 0, 75, 100
2, 48419, Note_on_c, 0, 75, 0
2, 48420, Note_on_c, 0, 71, 100
2, 48479, Note_on_c, 0, 71, 0
2, 48480, Note_on_c, 0, 75, 100
2, 48599, Note_on_c, 0, 75, 0
2, 48600, Note_on_c, 0, 71, 100
2, 48719, Note_on_c, 0, 71, 0
2, 48720, Note_on_c, 0, 75, 100
2, 48779, Note_on_c, 0, 75, 0
2, 48780, Note_on_c, 0, 68, 100
2, 48839, Note_on_c, 0, 68, 0
2, 48840, Note_on_c, 0, 71, 100
2, 48959, Note_on_c, 0, 71, 0
2, 48960, Note_on_c, 0, 76, 100
2, 49019, Note_on_c, 0, 76, 0
2, 49020, Note_on_c, 0, 76, 100
2, 49079, Note_on_c, 0, 76, 0
2, 49080, Note_on_c, 0, 75, 100
2, 49139, Note_on_c, 0, 75, 0
2, 49140, Note_on_c, 0, 75, 100
2, 49199, Note_on_c, 0, 75, 0
2, 49200, Note_on_c, 0, 75, 100
2, 49259, Note_on_c, 0, 75, 0
2, 49260, Note_on_c, 0, 75, 100
2, 49319, Note_on_c, 0, 75, 0
2, 49320, Note_on_c, 0, 75, 100
2, 49439, Note_on_c, 0, 75, 0
2, 50040, Note_on_c, 0, 78, 100
2, 50099, Note_on_c, 0, 78, 0
2, 50100, Note_on_c, 0, 78, 100
2, 50279, Note_on_c, 0, 78, 0
2, 50280, Note_on_c, 0, 75, 100
2, 50339, Note_on_c, 0, 75, 0
2, 50340, Note_on_c, 0, 71, 100
2, 50399, Note_on_c, 0, 71, 0
2, 50400, Note_on_c, 0, 75, 100
2, 50519, Note_on_c, 0, 75, 0
2, 50520, Note_on_c, 0, 71, 100
2, 50639, Note_on_c, 0, 71, 0
2, 50640, Note_on_c, 0, 75, 100
2, 50699, Note_on_c, 0, 75, 0
2, 50700, Note_on_c, 0, 68, 100
2, 50759, Note_on_c, 0, 68, 0
2, 50760, Note_on_c, 0, 71, 100
2, 50879, Note_on_c, 0, 71, 0
2, 50880, Note_on_c, 0, 76, 100
2, 50909, Note_on_c, 0, 76, 0
2, 50910, Note_on_c, 0, 76, 100
2, 50939, Note_on_c, 0, 76, 0
2, 50940, Note_on_c, 0, 76, 100
2, 50999, Note_on_c, 0, 76, 0
2, 51000, Note_on_c, 0, 75, 100
2, 51059, Note_on_c, 0, 75, 0
2, 51060, Note_on_c, 0, 75, 100
2, 51089, Note_on_c, 0, 75, 0
2, 51090, Note_on_c, 0, 75, 100
2, 51119, Note_on_c, 0, 75, 0
2, 51120, Note_on_c, 0, 75, 100
2, 51239, Note_on_c, 0, 75, 0
2, 51240, Note_on_c, 0, 75, 100
2, 51359, Note_on_c, 0, 75, 0
2, 51960, Note_on_c, 0, 78, 100
2, 52019, Note_on_c, 0, 78, 0
2, 52020, Note_on_c, 0, 80, 100
2, 52199, Note_on_c, 0, 80, 0
2, 52200, Note_on_c, 0, 75, 100
2, 52259, Note_on_c, 0, 75, 0
2, 52260, Note_on_c, 0, 73, 100
2, 52319, Note_on_c, 0, 73, 0
2, 52320, Note_on_c, 0, 75, 100
2, 52439, Note_on_c, 0, 75, 0
2, 52440, Note_on_c, 0, 71, 100
2, 52559, Note_on_c, 0, 71, 0
2, 52560, Note_on_c, 0, 75, 100
2, 52619, Note_on_c, 0, 75, 0
2, 52620, Note_on_c, 0, 68, 100
2, 52679, Note_on_c, 0, 68, 0
2, 52680, Note_on_c, 0, 71, 100
2, 52769, Note_on_c, 0, 71, 0
2, 52770, Note_on_c, 0, 71, 100
2, 52799, Note_on_c, 0, 71, 0
2, 52800, Note_on_c, 0, 76, 100
2, 52859, Note_on_c, 0, 76, 0
2, 52860, Note_on_c, 0, 75, 100
2, 52919, Note_on_c, 0, 75, 0
2, 52920, Note_on_c, 0, 75, 100
2, 52979, Note_on_c, 0, 75, 0
2, 52980, Note_on_c, 0, 75, 100
2, 53039, Note_on_c, 0, 75, 0
2, 53040, Note_on_c, 0, 75, 100
2, 53099, Note_on_c, 0, 75, 0
2, 53100, Note_on_c, 0, 78, 100
2, 53159, Note_on_c, 0, 78, 0
2, 53160, Note_on_c, 0, 75, 100
2, 53279, Note_on_c, 0, 75, 0
2, 53880, Note_on_c, 0, 78, 100
2, 53939, Note_on_c, 0, 78, 0
2, 53940, Note_on_c, 0, 78, 100
2, 54119, Note_on_c, 0, 78, 0
2, 54120, Note_on_c, 0, 75, 100
2, 54179, Note_on_c, 0, 75, 0
2, 54180, Note_on_c, 0, 73, 100
2, 54239, Note_on_c, 0, 73, 0
2, 54240, Note_on_c, 0, 75, 100
2, 54299, Note_on_c, 0, 75, 0
2, 54300, Note_on_c, 0, 68, 100
2, 54359, Note_on_c, 0, 68, 0
2, 54360, Note_on_c, 0, 71, 100
2, 54479, Note_on_c, 0, 71, 0
2, 54480, Note_on_c, 0, 75, 100
2, 54539, Note_on_c, 0, 75, 0
2, 54540, Note_on_c, 0, 68, 100
2, 54599, Note_on_c, 0, 68, 0
2, 54600, Note_on_c, 0, 71, 100
2, 54719, Note_on_c, 0, 71, 0
2, 54720, Note_on_c, 0, 76, 100
2, 54749, Note_on_c, 0, 76, 0
2, 54750, Note_on_c, 0, 76, 100
2, 54779, Note_on_c, 0, 76, 0
2, 54780, Note_on_c, 0, 75, 100
2, 54809, Note_on_c, 0, 75, 0
2, 54810, Note_on_c, 0, 75, 100
2, 54839, Note_on_c, 0, 75, 0
2, 54840, Note_on_c, 0, 75, 100
2, 54899, Note_on_c, 0, 75, 0
2, 54900, Note_on_c, 0, 75, 100
2, 54959, Note_on_c, 0, 75, 0
2, 54960, Note_on_c, 0, 75, 100
2, 55019, Note_on_c, 0, 75, 0
2, 55020, Note_on_c, 0, 75, 100
2, 55079, Note_on_c, 0, 75, 0
2, 55080, Note_on_c, 0, 75, 100
2, 55199, Note_on_c, 0, 75, 0
2, 55199, End_track
3, 0, Start_track
3, 0, MIDI_port, 0
3, 0, Title_t, "Piano"
3, 0, Program_c, 1, 0
3, 0, Control_c, 1, 7, 100
3, 2880, Control_c, 1, 7, 115
3, 2880, Note_on_c, 1, 44, 100
3, 2880, Note_on_c, 1, 52, 100
3, 2880, Note_on_c, 1, 59, 100
3, 2880, Note_on_c, 1, 64, 100
3, 3059, Note_on_c, 1, 64, 0
3, 3059, Note_on_c, 1, 44, 0
3, 3059, Note_on_c, 1, 52, 0
3, 3059, Note_on_c, 1, 59, 0
3, 3060, Note_on_c, 1, 54, 100
3, 3060, Note_on_c, 1, 47, 100
3, 3060, Note_on_c, 1, 66, 100
3, 3060, Note_on_c, 1, 59, 100
3, 3299, Note_on_c, 1, 59, 0
3, 3299, Note_on_c, 1, 54, 0
3, 3299, Note_on_c, 1, 47, 0
3, 3299, Note_on_c, 1, 66, 0
3, 3300, Note_on_c, 1, 40, 100
3, 3300, Note_on_c, 1, 47, 100
3, 3300, Note_on_c, 1, 54, 100
3, 3300, Note_on_c, 1, 59, 100
3, 3359, Note_on_c, 1, 59, 0
3, 3359, Note_on_c, 1, 40, 0
3, 3359, Note_on_c, 1, 47, 0
3, 3359, Note_on_c, 1, 54, 0
3, 3360, Note_on_c, 1, 40, 100
3, 3360, Note_on_c, 1, 47, 100
3, 3360, Note_on_c, 1, 54, 100
3, 3360, Note_on_c, 1, 59, 100
3, 3539, Note_on_c, 1, 59, 0
3, 3539, Note_on_c, 1, 40, 0
3, 3539, Note_on_c, 1, 47, 0
3, 3539, Note_on_c, 1, 54, 0
3, 3540, Note_on_c, 1, 54, 100
3, 3540, Note_on_c, 1, 47, 100
3, 3540, Note_on_c, 1, 66, 100
3, 3540, Note_on_c, 1, 59, 100
3, 3839, Note_on_c, 1, 59, 0
3, 3839, Note_on_c, 1, 54, 0
3, 3839, Note_on_c, 1, 47, 0
3, 3839, Note_on_c, 1, 66, 0
3, 3840, Note_on_c, 1, 44, 100
3, 3840, Note_on_c, 1, 52, 100
3, 3840, Note_on_c, 1, 59, 100
3, 3840, Note_on_c, 1, 64, 100
3, 4019, Note_on_c, 1, 64, 0
3, 4019, Note_on_c, 1, 44, 0
3, 4019, Note_on_c, 1, 52, 0
3, 4019, Note_on_c, 1, 59, 0
3, 4020, Note_on_c, 1, 35, 100
3, 4020, Note_on_c, 1, 42, 100
3, 4020, Note_on_c, 1, 54, 100
3, 4020, Note_on_c, 1, 47, 100
3, 4020, Note_on_c, 1, 66, 100
3, 4020, Note_on_c, 1, 59, 100
3, 4259, Note_on_c, 1, 59, 0
3, 4259, Note_on_c, 1, 42, 0
3, 4259, Note_on_c, 1, 54, 0
3, 4259, Note_on_c, 1, 35, 0
3, 4259, Note_on_c, 1, 66, 0
3, 4259, Note_on_c, 1, 47, 0
3, 4260, Note_on_c, 1, 49, 100
3, 4260, Note_on_c, 1, 42, 100
3, 4260, Note_on_c, 1, 56, 100
3, 4260, Note_on_c, 1, 61, 100
3, 4260, Note_on_c, 1, 54, 100
3, 4319, Note_on_c, 1, 54, 0
3, 4319, Note_on_c, 1, 56, 0
3, 4319, Note_on_c, 1, 49, 0
3, 4319, Note_on_c, 1, 42, 0
3, 4319, Note_on_c, 1, 61, 0
3, 4320, Note_on_c, 1, 49, 100
3, 4320, Note_on_c, 1, 42, 100
3, 4320, Note_on_c, 1, 56, 100
3, 4320, Note_on_c, 1, 61, 100
3, 4320, Note_on_c, 1, 54, 100
3, 4499, Note_on_c, 1, 54, 0
3, 4499, Note_on_c, 1, 56, 0
3, 4499, Note_on_c, 1, 49, 0
3, 4499, Note_on_c, 1, 42, 0
3, 4499, Note_on_c, 1, 61, 0
3, 4500, Note_on_c, 1, 40, 100
3, 4500, Note_on_c, 1, 47, 100
3, 4500, Note_on_c, 1, 52, 100
3, 4500, Note_on_c, 1, 59, 100
3, 4559, Note_on_c, 1, 59, 0
3, 4559, Note_on_c, 1, 40, 0
3, 4559, Note_on_c, 1, 47, 0
3, 4559, Note_on_c, 1, 52, 0
3, 4560, Note_on_c, 1, 47, 100
3, 4560, Note_on_c, 1, 40, 100
3, 4560, Note_on_c, 1, 59, 100
3, 4560, Note_on_c, 1, 52, 100
3, 4799, Note_on_c, 1, 52, 0
3, 4799, Note_on_c, 1, 47, 0
3, 4799, Note_on_c, 1, 40, 0
3, 4799, Note_on_c, 1, 59, 0
3, 4800, Control_c, 1, 7, 100
3, 4800, Note_on_c, 1, 71, 100
3, 4800, Note_on_c, 1, 76, 100
3, 4800, Note_on_c, 1, 83, 100
3, 4859, Note_on_c, 1, 83, 0
3, 4859, Note_on_c, 1, 76, 0
3, 4859, Note_on_c, 1, 71, 0
3, 4860, Note_on_c, 1, 71, 100
3, 4860, Note_on_c, 1, 78, 100
3, 4860, Note_on_c, 1, 83, 100
3, 4919, Note_on_c, 1, 83, 0
3, 4919, Note_on_c, 1, 78, 0
3, 4919, Note_on_c, 1, 71, 0
3, 4920, Note_on_c, 1, 71, 100
3, 4920, Note_on_c, 1, 78, 100
3, 4920, Note_on_c, 1, 83, 100
3, 5039, Note_on_c, 1, 83, 0
3, 5039, Note_on_c, 1, 78, 0
3, 5039, Note_on_c, 1, 71, 0
3, 5040, Note_on_c, 1, 71, 100
3, 5040, Note_on_c, 1, 78, 100
3, 5040, Note_on_c, 1, 83, 100
3, 5159, Note_on_c, 1, 83, 0
3, 5159, Note_on_c, 1, 78, 0
3, 5159, Note_on_c, 1, 71, 0
3, 5160, Note_on_c, 1, 71, 100
3, 5160, Note_on_c, 1, 78, 100
3, 5160, Note_on_c, 1, 83, 100
3, 5279, Note_on_c, 1, 83, 0
3, 5279, Note_on_c, 1, 78, 0
3, 5279, Note_on_c, 1, 71, 0
3, 5280, Note_on_c, 1, 80, 100
3, 5280, Note_on_c, 1, 71, 100
3, 5280, Note_on_c, 1, 83, 100
3, 5339, Note_on_c, 1, 83, 0
3, 5339, Note_on_c, 1, 71, 0
3, 5339, Note_on_c, 1, 80, 0
3, 5340, Note_on_c, 1, 71, 100
3, 5340, Note_on_c, 1, 78, 100
3, 5340, Note_on_c, 1, 83, 100
3, 5399, Note_on_c, 1, 83, 0
3, 5399, Note_on_c, 1, 78, 0
3, 5399, Note_on_c, 1, 71, 0
3, 5400, Note_on_c, 1, 71, 100
3, 5400, Note_on_c, 1, 78, 100
3, 5400, Note_on_c, 1, 83, 100
3, 5519, Note_on_c, 1, 83, 0
3, 5519, Note_on_c, 1, 78, 0
3, 5519, Note_on_c, 1, 71, 0
3, 5520, Note_on_c, 1, 71, 100
3, 5520, Note_on_c, 1, 78, 100
3, 5520, Note_on_c, 1, 83, 100
3, 5639, Note_on_c, 1, 83, 0
3, 5639, Note_on_c, 1, 78, 0
3, 5639, Note_on_c, 1, 71, 0
3, 5640, Note_on_c, 1, 71, 100
3, 5640, Note_on_c, 1, 78, 100
3, 5640, Note_on_c, 1, 83, 100
3, 5759, Note_on_c, 1, 83, 0
3, 5759, Note_on_c, 1, 78, 0
3, 5759, Note_on_c, 1, 71, 0
3, 5760, Note_on_c, 1, 71, 100
3, 5760, Note_on_c, 1, 76, 100
3, 5760, Note_on_c, 1, 83, 100
3, 5819, Note_on_c, 1, 83, 0
3, 5819, Note_on_c, 1, 76, 0
3, 5819, Note_on_c, 1, 71, 0
3, 5820, Note_on_c, 1, 71, 100
3, 5820, Note_on_c, 1, 78, 100
3, 5820, Note_on_c, 1, 83, 100
3, 5879, Note_on_c, 1, 83, 0
3, 5879, Note_on_c, 1, 78, 0
3, 5879, Note_on_c, 1, 71, 0
3, 5880, Note_on_c, 1, 71, 100
3, 5880, Note_on_c, 1, 78, 100
3, 5880, Note_on_c, 1, 83, 100
3, 5999, Note_on_c, 1, 83, 0
3, 5999, Note_on_c, 1, 78, 0
3, 5999, Note_on_c, 1, 71, 0
3, 6000, Note_on_c, 1, 71, 100
3, 6000, Note_on_c, 1, 78, 100
3, 6000, Note_on_c, 1, 83, 100
3, 6119, Note_on_c, 1, 83, 0
3, 6119, Note_on_c, 1, 78, 0
3, 6119, Note_on_c, 1, 71, 0
3, 6120, Note_on_c, 1, 71, 100
3, 6120, Note_on_c, 1, 78, 100
3, 6120, Note_on_c, 1, 83, 100
3, 6179, Note_on_c, 1, 83, 0
3, 6179, Note_on_c, 1, 78, 0
3, 6179, Note_on_c, 1, 71, 0
3, 6180, Note_on_c, 1, 73, 100
3, 6180, Note_on_c, 1, 76, 100
3, 6180, Note_on_c, 1, 81, 100
3, 6239, Note_on_c, 1, 81, 0
3, 6239, Note_on_c, 1, 76, 0
3, 6239, Note_on_c, 1, 73, 0
3, 6240, Note_on_c, 1, 73, 100
3, 6240, Note_on_c, 1, 76, 100
3, 6240, Note_on_c, 1, 81, 100
3, 6299, Note_on_c, 1, 81, 0
3, 6299, Note_on_c, 1, 76, 0
3, 6299, Note_on_c, 1, 73, 0
3, 6300, Note_on_c, 1, 80, 100
3, 6300, Note_on_c, 1, 71, 100
3, 6300, Note_on_c, 1, 76, 100
3, 6359, Note_on_c, 1, 76, 0
3, 6359, Note_on_c, 1, 71, 0
3, 6359, Note_on_c, 1, 80, 0
3, 6360, Note_on_c, 1, 80, 100
3, 6360, Note_on_c, 1, 76, 100
3, 6360, Note_on_c, 1, 71, 100
3, 6479, Note_on_c, 1, 71, 0
3, 6479, Note_on_c, 1, 76, 0
3, 6479, Note_on_c, 1, 80, 0
3, 6480, Note_on_c, 1, 80, 100
3, 6480, Note_on_c, 1, 71, 100
3, 6480, Note_on_c, 1, 76, 100
3, 6539, Note_on_c, 1, 76, 0
3, 6539, Note_on_c, 1, 71, 0
3, 6539, Note_on_c, 1, 80, 0
3, 6540, Note_on_c, 1, 78, 100
3, 6540, Note_on_c, 1, 76, 100
3, 6540, Note_on_c, 1, 71, 100
3, 6599, Note_on_c, 1, 71, 0
3, 6599, Note_on_c, 1, 76, 0
3, 6599, Note_on_c, 1, 78, 0
3, 6600, Note_on_c, 1, 71, 100
3, 6600, Note_on_c, 1, 76, 100
3, 6600, Note_on_c, 1, 78, 100
3, 6659, Note_on_c, 1, 78, 0
3, 6659, Note_on_c, 1, 76, 0
3, 6659, Note_on_c, 1, 71, 0
3, 6660, Note_on_c, 1, 71, 100
3, 6660, Note_on_c, 1, 76, 100
3, 6719, Note_on_c, 1, 76, 0
3, 6719, Note_on_c, 1, 71, 0
3, 6720, Note_on_c, 1, 71, 100
3, 6720, Note_on_c, 1, 76, 100
3, 6720, Note_on_c, 1, 83, 100
3, 6779, Note_on_c, 1, 83, 0
3, 6779, Note_on_c, 1, 76, 0
3, 6779, Note_on_c, 1, 71, 0
3, 6780, Note_on_c, 1, 71, 100
3, 6780, Note_on_c, 1, 78, 100
3, 6780, Note_on_c, 1, 83, 100
3, 6839, Note_on_c, 1, 83, 0
3, 6839, Note_on_c, 1, 78, 0
3, 6839, Note_on_c, 1, 71, 0
3, 6840, Note_on_c, 1, 71, 100
3, 6840, Note_on_c, 1, 78, 100
3, 6840, Note_on_c, 1, 83, 100
3, 6959, Note_on_c, 1, 83, 0
3, 6959, Note_on_c, 1, 78, 0
3, 6959, Note_on_c, 1, 71, 0
3, 6960, Note_on_c, 1, 71, 100
3, 6960, Note_on_c, 1, 78, 100
3, 6960, Note_on_c, 1, 83, 100
3, 7079, Note_on_c, 1, 83, 0
3, 7079, Note_on_c, 1, 78, 0
3, 7079, Note_on_c, 1, 71, 0
3, 7080, Note_on_c, 1, 71, 100
3, 7080, Note_on_c, 1, 78, 100
3, 7080, Note_on_c, 1, 83, 100
3, 7199, Note_on_c, 1, 83, 0
3, 7199, Note_on_c, 1, 78, 0
3, 7199, Note_on_c, 1, 71, 0
3, 7200, Note_on_c, 1, 80, 100
3, 7200, Note_on_c, 1, 71, 100
3, 7200, Note_on_c, 1, 83, 100
3, 7259, Note_on_c, 1, 83, 0
3, 7259, Note_on_c, 1, 71, 0
3, 7259, Note_on_c, 1, 80, 0
3, 7260, Note_on_c, 1, 71, 100
3, 7260, Note_on_c, 1, 78, 100
3, 7260, Note_on_c, 1, 83, 100
3, 7319, Note_on_c, 1, 83, 0
3, 7319, Note_on_c, 1, 78, 0
3, 7319, Note_on_c, 1, 71, 0
3, 7320, Note_on_c, 1, 71, 100
3, 7320, Note_on_c, 1, 78, 100
3, 7320, Note_on_c, 1, 83, 100
3, 7439, Note_on_c, 1, 83, 0
3, 7439, Note_on_c, 1, 78, 0
3, 7439, Note_on_c, 1, 71, 0
3, 7440, Note_on_c, 1, 71, 100
3, 7440, Note_on_c, 1, 78, 100
3, 7440, Note_on_c, 1, 83, 100
3, 7559, Note_on_c, 1, 83, 0
3, 7559, Note_on_c, 1, 78, 0
3, 7559, Note_on_c, 1, 71, 0
3, 7560, Note_on_c, 1, 71, 100
3, 7560, Note_on_c, 1, 78, 100
3, 7560, Note_on_c, 1, 83, 100
3, 7679, Note_on_c, 1, 83, 0
3, 7679, Note_on_c, 1, 78, 0
3, 7679, Note_on_c, 1, 71, 0
3, 7680, Note_on_c, 1, 71, 100
3, 7680, Note_on_c, 1, 76, 100
3, 7680, Note_on_c, 1, 83, 100
3, 7739, Note_on_c, 1, 83, 0
3, 7739, Note_on_c, 1, 76, 0
3, 7739, Note_on_c, 1, 71, 0
3, 7740, Note_on_c, 1, 71, 100
3, 7740, Note_on_c, 1, 78, 100
3, 7740, Note_on_c, 1, 83, 100
3, 7799, Note_on_c, 1, 83, 0
3, 7799, Note_on_c, 1, 78, 0
3, 7799, Note_on_c, 1, 71, 0
3, 7800, Note_on_c, 1, 71, 100
3, 7800, Note_on_c, 1, 78, 100
3, 7800, Note_on_c, 1, 83, 100
3, 7919, Note_on_c, 1, 83, 0
3, 7919, Note_on_c, 1, 78, 0
3, 7919, Note_on_c, 1, 71, 0
3, 7920, Note_on_c, 1, 71, 100
3, 7920, Note_on_c, 1, 78, 100
3, 7920, Note_on_c, 1, 83, 100
3, 8039, Note_on_c, 1, 83, 0
3, 8039, Note_on_c, 1, 78, 0
3, 8039, Note_on_c, 1, 71, 0
3, 8040, Note_on_c, 1, 71, 100
3, 8040, Note_on_c, 1, 78, 100
3, 8040, Note_on_c, 1, 83, 100
3, 8159, Note_on_c, 1, 83, 0
3, 8159, Note_on_c, 1, 78, 0
3, 8159, Note_on_c, 1, 71, 0
3, 8160, Note_on_c, 1, 83, 100
3, 8160, Note_on_c, 1, 78, 100
3, 8160, Note_on_c, 1, 76, 100
3, 8160, Note_on_c, 1, 71, 100
3, 8279, Note_on_c, 1, 71, 0
3, 8279, Note_on_c, 1, 83, 0
3, 8279, Note_on_c, 1, 78, 0
3, 8279, Note_on_c, 1, 76, 0
3, 8280, Note_on_c, 1, 83, 100
3, 8280, Note_on_c, 1, 78, 100
3, 8280, Note_on_c, 1, 76, 100
3, 8280, Note_on_c, 1, 71, 100
3, 8399, Note_on_c, 1, 71, 0
3, 8399, Note_on_c, 1, 83, 0
3, 8399, Note_on_c, 1, 78, 0
3, 8399, Note_on_c, 1, 76, 0
3, 8400, Note_on_c, 1, 83, 100
3, 8400, Note_on_c, 1, 78, 100
3, 8400, Note_on_c, 1, 76, 100
3, 8400, Note_on_c, 1, 71, 100
3, 8519, Note_on_c, 1, 71, 0
3, 8519, Note_on_c, 1, 83, 0
3, 8519, Note_on_c, 1, 78, 0
3, 8519, Note_on_c, 1, 76, 0
3, 8520, Note_on_c, 1, 83, 100
3, 8520, Note_on_c, 1, 78, 100
3, 8520, Note_on_c, 1, 76, 100
3, 8520, Note_on_c, 1, 71, 100
3, 8639, Note_on_c, 1, 71, 0
3, 8639, Note_on_c, 1, 83, 0
3, 8639, Note_on_c, 1, 78, 0
3, 8639, Note_on_c, 1, 76, 0
3, 8640, Note_on_c, 1, 83, 100
3, 8640, Note_on_c, 1, 78, 100
3, 8640, Note_on_c, 1, 75, 100
3, 8640, Note_on_c, 1, 71, 100
3, 8759, Note_on_c, 1, 71, 0
3, 8759, Note_on_c, 1, 83, 0
3, 8759, Note_on_c, 1, 78, 0
3, 8759, Note_on_c, 1, 75, 0
3, 8760, Note_on_c, 1, 83, 100
3, 8760, Note_on_c, 1, 78, 100
3, 8760, Note_on_c, 1, 75, 100
3, 8760, Note_on_c, 1, 71, 100
3, 8879, Note_on_c, 1, 71, 0
3, 8879, Note_on_c, 1, 83, 0
3, 8879, Note_on_c, 1, 78, 0
3, 8879, Note_on_c, 1, 75, 0
3, 8880, Note_on_c, 1, 83, 100
3, 8880, Note_on_c, 1, 78, 100
3, 8880, Note_on_c, 1, 73, 100
3, 8880, Note_on_c, 1, 71, 100
3, 8999, Note_on_c, 1, 71, 0
3, 8999, Note_on_c, 1, 83, 0
3, 8999, Note_on_c, 1, 78, 0
3, 8999, Note_on_c, 1, 73, 0
3, 9000, Note_on_c, 1, 83, 100
3, 9000, Note_on_c, 1, 78, 100
3, 9000, Note_on_c, 1, 73, 100
3, 9000, Note_on_c, 1, 71, 100
3, 9119, Note_on_c, 1, 71, 0
3, 9119, Note_on_c, 1, 83, 0
3, 9119, Note_on_c, 1, 78, 0
3, 9119, Note_on_c, 1, 73, 0
3, 9120, Control_c, 1, 7, 85
3, 9120, Note_on_c, 1, 66, 100
3, 9120, Note_on_c, 1, 71, 100
3, 9240, Note_on_c, 1, 71, 0
3, 9240, Note_on_c, 1, 66, 0
3, 9240, Note_on_c, 1, 66, 100
3, 9240, Note_on_c, 1, 71, 100
3, 9360, Note_on_c, 1, 71, 0
3, 9360, Note_on_c, 1, 66, 0
3, 9360, Note_on_c, 1, 66, 100
3, 9360, Note_on_c, 1, 71, 100
3, 9480, Note_on_c, 1, 71, 0
3, 9480, Note_on_c, 1, 66, 0
3, 9480, Note_on_c, 1, 66, 100
3, 9480, Note_on_c, 1, 71, 100
3, 9600, Note_on_c, 1, 71, 0
3, 9600, Note_on_c, 1, 66, 0
3, 9600, Note_on_c, 1, 66, 100
3, 9600, Note_on_c, 1, 71, 100
3, 9720, Note_on_c, 1, 71, 0
3, 9720, Note_on_c, 1, 66, 0
3, 9720, Note_on_c, 1, 66, 100
3, 9720, Note_on_c, 1, 71, 100
3, 9840, Note_on_c, 1, 71, 0
3, 9840, Note_on_c, 1, 66, 0
3, 9840, Note_on_c, 1, 66, 100
3, 9840, Note_on_c, 1, 71, 100
3, 9960, Note_on_c, 1, 71, 0
3, 9960, Note_on_c, 1, 66, 0
3, 9960, Note_on_c, 1, 66, 100
3, 9960, Note_on_c, 1, 71, 100
3, 10080, Note_on_c, 1, 71, 0
3, 10080, Note_on_c, 1, 66, 0
3, 10080, Note_on_c, 1, 66, 100
3, 10080, Note_on_c, 1, 71, 100
3, 10200, Note_on_c, 1, 71, 0
3, 10200, Note_on_c, 1, 66, 0
3, 10200, Note_on_c, 1, 66, 100
3, 10200, Note_on_c, 1, 71, 100
3, 10320, Note_on_c, 1, 71, 0
3, 10320, Note_on_c, 1, 66, 0
3, 10320, Note_on_c, 1, 66, 100
3, 10320, Note_on_c, 1, 71, 100
3, 10440, Note_on_c, 1, 71, 0
3, 10440, Note_on_c, 1, 66, 0
3, 10440, Note_on_c, 1, 66, 100
3, 10440, Note_on_c, 1, 71, 100
3, 10560, Note_on_c, 1, 71, 0
3, 10560, Note_on_c, 1, 66, 0
3, 10560, Note_on_c, 1, 73, 100
3, 10560, Note_on_c, 1, 66, 100
3, 10680, Note_on_c, 1, 66, 0
3, 10680, Note_on_c, 1, 73, 0
3, 10680, Note_on_c, 1, 66, 100
3, 10680, Note_on_c, 1, 73, 100
3, 10740, Note_on_c, 1, 73, 0
3, 10740, Note_on_c, 1, 66, 0
3, 10740, Note_on_c, 1, 71, 100
3, 10740, Note_on_c, 1, 66, 100
3, 10800, Note_on_c, 1, 66, 0
3, 10800, Note_on_c, 1, 71, 0
3, 10800, Note_on_c, 1, 66, 100
3, 10800, Note_on_c, 1, 71, 100
3, 10920, Note_on_c, 1, 71, 0
3, 10920, Note_on_c, 1, 66, 0
3, 10920, Note_on_c, 1, 66, 100
3, 10920, Note_on_c, 1, 71, 100
3, 11040, Note_on_c, 1, 71, 0
3, 11040, Note_on_c, 1, 66, 0
3, 11040, Control_c, 1, 7, 85
3, 11040, Note_on_c, 1, 66, 100
3, 11040, Note_on_c, 1, 71, 100
3, 11160, Note_on_c, 1, 71, 0
3, 11160, Note_on_c, 1, 66, 0
3, 11160, Note_on_c, 1, 66, 100
3, 11160, Note_on_c, 1, 71, 100
3, 11280, Note_on_c, 1, 71, 0
3, 11280, Note_on_c, 1, 66, 0
3, 11280, Note_on_c, 1, 66, 100
3, 11280, Note_on_c, 1, 71, 100
3, 11400, Note_on_c, 1, 71, 0
3, 11400, Note_on_c, 1, 66, 0
3, 11400, Note_on_c, 1, 66, 100
3, 11400, Note_on_c, 1, 71, 100
3, 11520, Note_on_c, 1, 71, 0
3, 11520, Note_on_c, 1, 66, 0
3, 11520, Note_on_c, 1, 66, 100
3, 11520, Note_on_c, 1, 71, 100
3, 11640, Note_on_c, 1, 71, 0
3, 11640, Note_on_c, 1, 66, 0
3, 11640, Note_on_c, 1, 66, 100
3, 11640, Note_on_c, 1, 71, 100
3, 11760, Note_on_c, 1, 71, 0
3, 11760, Note_on_c, 1, 66, 0
3, 11760, Note_on_c, 1, 66, 100
3, 11760, Note_on_c, 1, 71, 100
3, 11880, Note_on_c, 1, 71, 0
3, 11880, Note_on_c, 1, 66, 0
3, 11880, Note_on_c, 1, 66, 100
3, 11880, Note_on_c, 1, 71, 100
3, 12000, Note_on_c, 1, 71, 0
3, 12000, Note_on_c, 1, 66, 0
3, 12000, Note_on_c, 1, 66, 100
3, 12000, Note_on_c, 1, 71, 100
3, 12120, Note_on_c, 1, 71, 0
3, 12120, Note_on_c, 1, 66, 0
3, 12120, Note_on_c, 1, 66, 100
3, 12120, Note_on_c, 1, 71, 100
3, 12240, Note_on_c, 1, 71, 0
3, 12240, Note_on_c, 1, 66, 0
3, 12240, Note_on_c, 1, 66, 100
3, 12240, Note_on_c, 1, 71, 100
3, 12360, Note_on_c, 1, 71, 0
3, 12360, Note_on_c, 1, 66, 0
3, 12360, Note_on_c, 1, 66, 100
3, 12360, Note_on_c, 1, 71, 100
3, 12480, Note_on_c, 1, 71, 0
3, 12480, Note_on_c, 1, 66, 0
3, 12480, Note_on_c, 1, 73, 100
3, 12480, Note_on_c, 1, 66, 100
3, 12600, Note_on_c, 1, 66, 0
3, 12600, Note_on_c, 1, 73, 0
3, 12600, Note_on_c, 1, 66, 100
3, 12600, Note_on_c, 1, 73, 100
3, 12660, Note_on_c, 1, 73, 0
3, 12660, Note_on_c, 1, 66, 0
3, 12660, Note_on_c, 1, 71, 100
3, 12660, Note_on_c, 1, 66, 100
3, 12720, Note_on_c, 1, 66, 0
3, 12720, Note_on_c, 1, 71, 0
3, 12720, Note_on_c, 1, 66, 100
3, 12720, Note_on_c, 1, 71, 100
3, 12840, Note_on_c, 1, 71, 0
3, 12840, Note_on_c, 1, 66, 0
3, 12840, Note_on_c, 1, 66, 100
3, 12840, Note_on_c, 1, 71, 100
3, 12960, Note_on_c, 1, 71, 0
3, 12960, Note_on_c, 1, 66, 0
3, 12960, Note_on_c, 1, 66, 100
3, 12960, Note_on_c, 1, 63, 100
3, 12960, Note_on_c, 1, 59, 100
3, 13199, Note_on_c, 1, 59, 0
3, 13199, Note_on_c, 1, 63, 0
3, 13199, Note_on_c, 1, 66, 0
3, 13200, Note_on_c, 1, 61, 100
3, 13200, Note_on_c, 1, 58, 100
3, 13200, Note_on_c, 1, 66, 100
3, 13439, Note_on_c, 1, 66, 0
3, 13439, Note_on_c, 1, 58, 0
3, 13439, Note_on_c, 1, 61, 0
3, 13440, Note_on_c, 1, 59, 100
3, 13440, Note_on_c, 1, 63, 100
3, 13440, Note_on_c, 1, 66, 100
3, 13919, Note_on_c, 1, 66, 0
3, 13919, Note_on_c, 1, 63, 0
3, 13919, Note_on_c, 1, 59, 0
3, 13920, Note_on_c, 1, 59, 100
3, 13920, Note_on_c, 1, 56, 100
3, 13920, Note_on_c, 1, 64, 100
3, 14399, Note_on_c, 1, 64, 0
3, 14399, Note_on_c, 1, 56, 0
3, 14399, Note_on_c, 1, 59, 0
3, 14400, Note_on_c, 1, 56, 100
3, 14400, Note_on_c, 1, 59, 100
3, 14400, Note_on_c, 1, 63, 100
3, 14400, Note_on_c, 1, 64, 100
3, 14639, Note_on_c, 1, 64, 0
3, 14639, Note_on_c, 1, 56, 0
3, 14639, Note_on_c, 1, 59, 0
3, 14639, Note_on_c, 1, 63, 0
3, 14640, Note_on_c, 1, 61, 100
3, 14640, Note_on_c, 1, 64, 100
3, 14879, Note_on_c, 1, 64, 0
3, 14879, Note_on_c, 1, 61, 0
3, 14880, Note_on_c, 1, 66, 100
3, 14880, Note_on_c, 1, 63, 100
3, 14880, Note_on_c, 1, 59, 100
3, 15119, Note_on_c, 1, 59, 0
3, 15119, Note_on_c, 1, 63, 0
3, 15119, Note_on_c, 1, 66, 0
3, 15120, Note_on_c, 1, 61, 100
3, 15120, Note_on_c, 1, 58, 100
3, 15120, Note_on_c, 1, 66, 100
3, 15359, Note_on_c, 1, 66, 0
3, 15359, Note_on_c, 1, 58, 0
3, 15359, Note_on_c, 1, 61, 0
3, 15360, Note_on_c, 1, 59, 100
3, 15360, Note_on_c, 1, 63, 100
3, 15360, Note_on_c, 1, 66, 100
3, 15839, Note_on_c, 1, 66, 0
3, 15839, Note_on_c, 1, 63, 0
3, 15839, Note_on_c, 1, 59, 0
3, 15840, Note_on_c, 1, 59, 100
3, 15840, Note_on_c, 1, 56, 100
3, 15840, Note_on_c, 1, 64, 100
3, 16319, Note_on_c, 1, 64, 0
3, 16319, Note_on_c, 1, 56, 0
3, 16319, Note_on_c, 1, 59, 0
3, 16320, Note_on_c, 1, 61, 100
3, 16320, Note_on_c, 1, 54, 100
3, 16320, Note_on_c, 1, 59, 100
3, 16799, Note_on_c, 1, 59, 0
3, 16799, Note_on_c, 1, 54, 0
3, 16799, Note_on_c, 1, 61, 0
3, 16800, Note_on_c, 1, 56, 100
3, 16800, Note_on_c, 1, 59, 100
3, 16919, Note_on_c, 1, 59, 0
3, 16919, Note_on_c, 1, 56, 0
3, 16920, Note_on_c, 1, 56, 100
3, 16920, Note_on_c, 1, 59, 100
3, 17039, Note_on_c, 1, 59, 0
3, 17039, Note_on_c, 1, 56, 0
3, 17040, Note_on_c, 1, 56, 100
3, 17040, Note_on_c, 1, 59, 100
3, 17159, Note_on_c, 1, 59, 0
3, 17159, Note_on_c, 1, 56, 0
3, 17160, Note_on_c, 1, 56, 100
3, 17160, Note_on_c, 1, 59, 100
3, 17279, Note_on_c, 1, 59, 0
3, 17279, Note_on_c, 1, 56, 0
3, 17280, Note_on_c, 1, 56, 100
3, 17280, Note_on_c, 1, 59, 100
3, 17399, Note_on_c, 1, 59, 0
3, 17399, Note_on_c, 1, 56, 0
3, 17400, Note_on_c, 1, 56, 100
3, 17400, Note_on_c, 1, 59, 100
3, 17519, Note_on_c, 1, 59, 0
3, 17519, Note_on_c, 1, 56, 0
3, 17520, Note_on_c, 1, 56, 100
3, 17520, Note_on_c, 1, 59, 100
3, 17639, Note_on_c, 1, 59, 0
3, 17639, Note_on_c, 1, 56, 0
3, 17640, Note_on_c, 1, 56, 100
3, 17640, Note_on_c, 1, 59, 100
3, 17759, Note_on_c, 1, 59, 0
3, 17759, Note_on_c, 1, 56, 0
3, 17760, Note_on_c, 1, 56, 100
3, 17760, Note_on_c, 1, 59, 100
3, 17879, Note_on_c, 1, 59, 0
3, 17879, Note_on_c, 1, 56, 0
3, 17880, Note_on_c, 1, 56, 100
3, 17880, Note_on_c, 1, 59, 100
3, 17999, Note_on_c, 1, 59, 0
3, 17999, Note_on_c, 1, 56, 0
3, 18000, Note_on_c, 1, 56, 100
3, 18000, Note_on_c, 1, 59, 100
3, 18119, Note_on_c, 1, 59, 0
3, 18119, Note_on_c, 1, 56, 0
3, 18120, Note_on_c, 1, 56, 100
3, 18120, Note_on_c, 1, 59, 100
3, 18239, Note_on_c, 1, 59, 0
3, 18239, Note_on_c, 1, 56, 0
3, 18240, Note_on_c, 1, 56, 100
3, 18240, Note_on_c, 1, 59, 100
3, 18359, Note_on_c, 1, 59, 0
3, 18359, Note_on_c, 1, 56, 0
3, 18360, Note_on_c, 1, 56, 100
3, 18360, Note_on_c, 1, 59, 100
3, 18479, Note_on_c, 1, 59, 0
3, 18479, Note_on_c, 1, 56, 0
3, 18480, Note_on_c, 1, 56, 100
3, 18480, Note_on_c, 1, 59, 100
3, 18599, Note_on_c, 1, 59, 0
3, 18599, Note_on_c, 1, 56, 0
3, 18600, Note_on_c, 1, 56, 100
3, 18600, Note_on_c, 1, 59, 100
3, 18719, Note_on_c, 1, 59, 0
3, 18719, Note_on_c, 1, 56, 0
3, 18720, Note_on_c, 1, 56, 100
3, 18720, Note_on_c, 1, 59, 100
3, 18839, Note_on_c, 1, 59, 0
3, 18839, Note_on_c, 1, 56, 0
3, 18840, Note_on_c, 1, 56, 100
3, 18840, Note_on_c, 1, 59, 100
3, 18959, Note_on_c, 1, 59, 0
3, 18959, Note_on_c, 1, 56, 0
3, 18960, Note_on_c, 1, 56, 100
3, 18960, Note_on_c, 1, 59, 100
3, 19079, Note_on_c, 1, 59, 0
3, 19079, Note_on_c, 1, 56, 0
3, 19080, Note_on_c, 1, 56, 100
3, 19080, Note_on_c, 1, 59, 100
3, 19199, Note_on_c, 1, 59, 0
3, 19199, Note_on_c, 1, 56, 0
3, 19200, Note_on_c, 1, 56, 100
3, 19200, Note_on_c, 1, 59, 100
3, 19319, Note_on_c, 1, 59, 0
3, 19319, Note_on_c, 1, 56, 0
3, 19320, Note_on_c, 1, 56, 100
3, 19320, Note_on_c, 1, 59, 100
3, 19439, Note_on_c, 1, 59, 0
3, 19439, Note_on_c, 1, 56, 0
3, 19440, Note_on_c, 1, 56, 100
3, 19440, Note_on_c, 1, 59, 100
3, 19559, Note_on_c, 1, 59, 0
3, 19559, Note_on_c, 1, 56, 0
3, 19560, Note_on_c, 1, 56, 100
3, 19560, Note_on_c, 1, 59, 100
3, 19679, Note_on_c, 1, 59, 0
3, 19679, Note_on_c, 1, 56, 0
3, 19680, Note_on_c, 1, 54, 100
3, 19680, Note_on_c, 1, 59, 100
3, 19680, Note_on_c, 1, 61, 100
3, 20159, Note_on_c, 1, 61, 0
3, 20159, Note_on_c, 1, 59, 0
3, 20159, Note_on_c, 1, 54, 0
3, 20160, Note_on_c, 1, 52, 100
3, 20160, Note_on_c, 1, 59, 100
3, 20160, Note_on_c, 1, 54, 100
3, 20639, Note_on_c, 1, 54, 0
3, 20639, Note_on_c, 1, 59, 0
3, 20639, Note_on_c, 1, 52, 0
3, 20640, Control_c, 1, 7, 85
3, 20640, Note_on_c, 1, 66, 100
3, 20640, Note_on_c, 1, 71, 100
3, 20760, Note_on_c, 1, 71, 0
3, 20760, Note_on_c, 1, 66, 0
3, 20760, Note_on_c, 1, 66, 100
3, 20760, Note_on_c, 1, 71, 100
3, 20880, Note_on_c, 1, 71, 0
3, 20880, Note_on_c, 1, 66, 0
3, 20880, Note_on_c, 1, 66, 100
3, 20880, Note_on_c, 1, 71, 100
3, 21000, Note_on_c, 1, 71, 0
3, 21000, Note_on_c, 1, 66, 0
3, 21000, Note_on_c, 1, 66, 100
3, 21000, Note_on_c, 1, 71, 100
3, 21120, Note_on_c, 1, 71, 0
3, 21120, Note_on_c, 1, 66, 0
3, 21120, Note_on_c, 1, 66, 100
3, 21120, Note_on_c, 1, 71, 100
3, 21240, Note_on_c, 1, 71, 0
3, 21240, Note_on_c, 1, 66, 0
3, 21240, Note_on_c, 1, 66, 100
3, 21240, Note_on_c, 1, 71, 100
3, 21360, Note_on_c, 1, 71, 0
3, 21360, Note_on_c, 1, 66, 0
3, 21360, Note_on_c, 1, 66, 100
3, 21360, Note_on_c, 1, 71, 100
3, 21480, Note_on_c, 1, 71, 0
3, 21480, Note_on_c, 1, 66, 0
3, 21480, Note_on_c, 1, 66, 100
3, 21480, Note_on_c, 1, 71, 100
3, 21600, Note_on_c, 1, 71, 0
3, 21600, Note_on_c, 1, 66, 0
3, 21600, Note_on_c, 1, 66, 100
3, 21600, Note_on_c, 1, 71, 100
3, 21720, Note_on_c, 1, 71, 0
3, 21720, Note_on_c, 1, 66, 0
3, 21720, Note_on_c, 1, 66, 100
3, 21720, Note_on_c, 1, 71, 100
3, 21840, Note_on_c, 1, 71, 0
3, 21840, Note_on_c, 1, 66, 0
3, 21840, Note_on_c, 1, 66, 100
3, 21840, Note_on_c, 1, 71, 100
3, 21960, Note_on_c, 1, 71, 0
3, 21960, Note_on_c, 1, 66, 0
3, 21960, Note_on_c, 1, 66, 100
3, 21960, Note_on_c, 1, 71, 100
3, 22080, Note_on_c, 1, 71, 0
3, 22080, Note_on_c, 1, 66, 0
3, 22080, Note_on_c, 1, 73, 100
3, 22080, Note_on_c, 1, 66, 100
3, 22200, Note_on_c, 1, 66, 0
3, 22200, Note_on_c, 1, 73, 0
3, 22200, Note_on_c, 1, 66, 100
3, 22200, Note_on_c, 1, 73, 100
3, 22260, Note_on_c, 1, 73, 0
3, 22260, Note_on_c, 1, 66, 0
3, 22260, Note_on_c, 1, 71, 100
3, 22260, Note_on_c, 1, 66, 100
3, 22320, Note_on_c, 1, 66, 0
3, 22320, Note_on_c, 1, 71, 0
3, 22320, Note_on_c, 1, 66, 100
3, 22320, Note_on_c, 1, 71, 100
3, 22440, Note_on_c, 1, 71, 0
3, 22440, Note_on_c, 1, 66, 0
3, 22440, Note_on_c, 1, 66, 100
3, 22440, Note_on_c, 1, 71, 100
3, 22560, Note_on_c, 1, 71, 0
3, 22560, Note_on_c, 1, 66, 0
3, 22560, Control_c, 1, 7, 85
3, 22560, Note_on_c, 1, 66, 100
3, 22560, Note_on_c, 1, 71, 100
3, 22680, Note_on_c, 1, 71, 0
3, 22680, Note_on_c, 1, 66, 0
3, 22680, Note_on_c, 1, 66, 100
3, 22680, Note_on_c, 1, 71, 100
3, 22800, Note_on_c, 1, 71, 0
3, 22800, Note_on_c, 1, 66, 0
3, 22800, Note_on_c, 1, 66, 100
3, 22800, Note_on_c, 1, 71, 100
3, 22920, Note_on_c, 1, 71, 0
3, 22920, Note_on_c, 1, 66, 0
3, 22920, Note_on_c, 1, 66, 100
3, 22920, Note_on_c, 1, 71, 100
3, 23040, Note_on_c, 1, 71, 0
3, 23040, Note_on_c, 1, 66, 0
3, 23040, Note_on_c, 1, 66, 100
3, 23040, Note_on_c, 1, 71, 100
3, 23160, Note_on_c, 1, 71, 0
3, 23160, Note_on_c, 1, 66, 0
3, 23160, Note_on_c, 1, 66, 100
3, 23160, Note_on_c, 1, 71, 100
3, 23280, Note_on_c, 1, 71, 0
3, 23280, Note_on_c, 1, 66, 0
3, 23280, Note_on_c, 1, 66, 100
3, 23280, Note_on_c, 1, 71, 100
3, 23400, Note_on_c, 1, 71, 0
3, 23400, Note_on_c, 1, 66, 0
3, 23400, Note_on_c, 1, 66, 100
3, 23400, Note_on_c, 1, 71, 100
3, 23520, Note_on_c, 1, 71, 0
3, 23520, Note_on_c, 1, 66, 0
3, 23520, Note_on_c, 1, 66, 100
3, 23520, Note_on_c, 1, 71, 100
3, 23640, Note_on_c, 1, 71, 0
3, 23640, Note_on_c, 1, 66, 0
3, 23640, Note_on_c, 1, 66, 100
3, 23640, Note_on_c, 1, 71, 100
3, 23760, Note_on_c, 1, 71, 0
3, 23760, Note_on_c, 1, 66, 0
3, 23760, Note_on_c, 1, 66, 100
3, 23760, Note_on_c, 1, 71, 100
3, 23880, Note_on_c, 1, 71, 0
3, 23880, Note_on_c, 1, 66, 0
3, 23880, Note_on_c, 1, 66, 100
3, 23880, Note_on_c, 1, 71, 100
3, 24000, Note_on_c, 1, 71, 0
3, 24000, Note_on_c, 1, 66, 0
3, 24000, Note_on_c, 1, 73, 100
3, 24000, Note_on_c, 1, 66, 100
3, 24120, Note_on_c, 1, 66, 0
3, 24120, Note_on_c, 1, 73, 0
3, 24120, Note_on_c, 1, 66, 100
3, 24120, Note_on_c, 1, 73, 100
3, 24180, Note_on_c, 1, 73, 0
3, 24180, Note_on_c, 1, 66, 0
3, 24180, Note_on_c, 1, 71, 100
3, 24180, Note_on_c, 1, 66, 100
3, 24240, Note_on_c, 1, 66, 0
3, 24240, Note_on_c, 1, 71, 0
3, 24240, Note_on_c, 1, 66, 100
3, 24240, Note_on_c, 1, 71, 100
3, 24360, Note_on_c, 1, 71, 0
3, 24360, Note_on_c, 1, 66, 0
3, 24360, Note_on_c, 1, 66, 100
3, 24360, Note_on_c, 1, 71, 100
3, 24480, Note_on_c, 1, 71, 0
3, 24480, Note_on_c, 1, 66, 0
3, 24480, Note_on_c, 1, 66, 100
3, 24480, Note_on_c, 1, 63, 100
3, 24480, Note_on_c, 1, 59, 100
3, 24719, Note_on_c, 1, 59, 0
3, 24719, Note_on_c, 1, 63, 0
3, 24719, Note_on_c, 1, 66, 0
3, 24720, Note_on_c, 1, 61, 100
3, 24720, Note_on_c, 1, 58, 100
3, 24720, Note_on_c, 1, 66, 100
3, 24959, Note_on_c, 1, 66, 0
3, 24959, Note_on_c, 1, 58, 0
3, 24959, Note_on_c, 1, 61, 0
3, 24960, Note_on_c, 1, 59, 100
3, 24960, Note_on_c, 1, 63, 100
3, 24960, Note_on_c, 1, 66, 100
3, 25439, Note_on_c, 1, 66, 0
3, 25439, Note_on_c, 1, 63, 0
3, 25439, Note_on_c, 1, 59, 0
3, 25440, Note_on_c, 1, 59, 100
3, 25440, Note_on_c, 1, 56, 100
3, 25440, Note_on_c, 1, 64, 100
3, 25919, Note_on_c, 1, 64, 0
3, 25919, Note_on_c, 1, 56, 0
3, 25919, Note_on_c, 1, 59, 0
3, 25920, Note_on_c, 1, 56, 100
3, 25920, Note_on_c, 1, 59, 100
3, 25920, Note_on_c, 1, 63, 100
3, 25920, Note_on_c, 1, 64, 100
3, 26159, Note_on_c, 1, 64, 0
3, 26159, Note_on_c, 1, 56, 0
3, 26159, Note_on_c, 1, 59, 0
3, 26159, Note_on_c, 1, 63, 0
3, 26160, Note_on_c, 1, 61, 100
3, 26160, Note_on_c, 1, 64, 100
3, 26399, Note_on_c, 1, 64, 0
3, 26399, Note_on_c, 1, 61, 0
3, 26400, Note_on_c, 1, 66, 100
3, 26400, Note_on_c, 1, 63, 100
3, 26400, Note_on_c, 1, 59, 100
3, 26639, Note_on_c, 1, 59, 0
3, 26639, Note_on_c, 1, 63, 0
3, 26639, Note_on_c, 1, 66, 0
3, 26640, Note_on_c, 1, 61, 100
3, 26640, Note_on_c, 1, 58, 100
3, 26640, Note_on_c, 1, 66, 100
3, 26879, Note_on_c, 1, 66, 0
3, 26879, Note_on_c, 1, 58, 0
3, 26879, Note_on_c, 1, 61, 0
3, 26880, Note_on_c, 1, 59, 100
3, 26880, Note_on_c, 1, 63, 100
3, 26880, Note_on_c, 1, 66, 100
3, 27359, Note_on_c, 1, 66, 0
3, 27359, Note_on_c, 1, 63, 0
3, 27359, Note_on_c, 1, 59, 0
3, 27360, Note_on_c, 1, 59, 100
3, 27360, Note_on_c, 1, 56, 100
3, 27360, Note_on_c, 1, 64, 100
3, 27839, Note_on_c, 1, 64, 0
3, 27839, Note_on_c, 1, 56, 0
3, 27839, Note_on_c, 1, 59, 0
3, 27840, Note_on_c, 1, 61, 100
3, 27840, Note_on_c, 1, 54, 100
3, 27840, Note_on_c, 1, 59, 100
3, 28319, Note_on_c, 1, 59, 0
3, 28319, Note_on_c, 1, 54, 0
3, 28319, Note_on_c, 1, 61, 0
3, 28320, Note_on_c, 1, 56, 100
3, 28320, Note_on_c, 1, 59, 100
3, 28439, Note_on_c, 1, 59, 0
3, 28439, Note_on_c, 1, 56, 0
3, 28440, Note_on_c, 1, 56, 100
3, 28440, Note_on_c, 1, 59, 100
3, 28559, Note_on_c, 1, 59, 0
3, 28559, Note_on_c, 1, 56, 0
3, 28560, Note_on_c, 1, 56, 100
3, 28560, Note_on_c, 1, 59, 100
3, 28679, Note_on_c, 1, 59, 0
3, 28679, Note_on_c, 1, 56, 0
3, 28680, Note_on_c, 1, 56, 100
3, 28680, Note_on_c, 1, 59, 100
3, 28799, Note_on_c, 1, 59, 0
3, 28799, Note_on_c, 1, 56, 0
3, 28800, Note_on_c, 1, 56, 100
3, 28800, Note_on_c, 1, 59, 100
3, 28919, Note_on_c, 1, 59, 0
3, 28919, Note_on_c, 1, 56, 0
3, 28920, Note_on_c, 1, 56, 100
3, 28920, Note_on_c, 1, 59, 100
3, 29039, Note_on_c, 1, 59, 0
3, 29039, Note_on_c, 1, 56, 0
3, 29040, Note_on_c, 1, 56, 100
3, 29040, Note_on_c, 1, 59, 100
3, 29159, Note_on_c, 1, 59, 0
3, 29159, Note_on_c, 1, 56, 0
3, 29160, Note_on_c, 1, 56, 100
3, 29160, Note_on_c, 1, 59, 100
3, 29279, Note_on_c, 1, 59, 0
3, 29279, Note_on_c, 1, 56, 0
3, 29280, Note_on_c, 1, 56, 100
3, 29280, Note_on_c, 1, 59, 100
3, 29399, Note_on_c, 1, 59, 0
3, 29399, Note_on_c, 1, 56, 0
3, 29400, Note_on_c, 1, 56, 100
3, 29400, Note_on_c, 1, 59, 100
3, 29519, Note_on_c, 1, 59, 0
3, 29519, Note_on_c, 1, 56, 0
3, 29520, Note_on_c, 1, 56, 100
3, 29520, Note_on_c, 1, 59, 100
3, 29639, Note_on_c, 1, 59, 0
3, 29639, Note_on_c, 1, 56, 0
3, 29640, Note_on_c, 1, 56, 100
3, 29640, Note_on_c, 1, 59, 100
3, 29759, Note_on_c, 1, 59, 0
3, 29759, Note_on_c, 1, 56, 0
3, 29760, Note_on_c, 1, 56, 100
3, 29760, Note_on_c, 1, 59, 100
3, 29879, Note_on_c, 1, 59, 0
3, 29879, Note_on_c, 1, 56, 0
3, 29880, Note_on_c, 1, 56, 100
3, 29880, Note_on_c, 1, 59, 100
3, 29999, Note_on_c, 1, 59, 0
3, 29999, Note_on_c, 1, 56, 0
3, 30000, Note_on_c, 1, 56, 100
3, 30000, Note_on_c, 1, 59, 100
3, 30119, Note_on_c, 1, 59, 0
3, 30119, Note_on_c, 1, 56, 0
3, 30120, Note_on_c, 1, 56, 100
3, 30120, Note_on_c, 1, 59, 100
3, 30239, Note_on_c, 1, 59, 0
3, 30239, Note_on_c, 1, 56, 0
3, 30240, Note_on_c, 1, 56, 100
3, 30240, Note_on_c, 1, 59, 100
3, 30359, Note_on_c, 1, 59, 0
3, 30359, Note_on_c, 1, 56, 0
3, 30360, Note_on_c, 1, 56, 100
3, 30360, Note_on_c, 1, 59, 100
3, 30479, Note_on_c, 1, 59, 0
3, 30479, Note_on_c, 1, 56, 0
3, 30480, Note_on_c, 1, 56, 100
3, 30480, Note_on_c, 1, 59, 100
3, 30599, Note_on_c, 1, 59, 0
3, 30599, Note_on_c, 1, 56, 0
3, 30600, Note_on_c, 1, 56, 100
3, 30600, Note_on_c, 1, 59, 100
3, 30719, Note_on_c, 1, 59, 0
3, 30719, Note_on_c, 1, 56, 0
3, 30720, Note_on_c, 1, 56, 100
3, 30720, Note_on_c, 1, 59, 100
3, 30839, Note_on_c, 1, 59, 0
3, 30839, Note_on_c, 1, 56, 0
3, 30840, Note_on_c, 1, 56, 100
3, 30840, Note_on_c, 1, 59, 100
3, 30959, Note_on_c, 1, 59, 0
3, 30959, Note_on_c, 1, 56, 0
3, 30960, Note_on_c, 1, 56, 100
3, 30960, Note_on_c, 1, 59, 100
3, 31079, Note_on_c, 1, 59, 0
3, 31079, Note_on_c, 1, 56, 0
3, 31080, Note_on_c, 1, 56, 100
3, 31080, Note_on_c, 1, 59, 100
3, 31199, Note_on_c, 1, 59, 0
3, 31199, Note_on_c, 1, 56, 0
3, 31200, Note_on_c, 1, 54, 100
3, 31200, Note_on_c, 1, 59, 100
3, 31200, Note_on_c, 1, 61, 100
3, 31679, Note_on_c, 1, 61, 0
3, 31679, Note_on_c, 1, 59, 0
3, 31679, Note_on_c, 1, 54, 0
3, 31680, Note_on_c, 1, 52, 100
3, 31680, Note_on_c, 1, 59, 100
3, 31680, Note_on_c, 1, 54, 100
3, 32039, Note_on_c, 1, 54, 0
3, 32039, Note_on_c, 1, 59, 0
3, 32039, Note_on_c, 1, 52, 0
3, 32040, Control_c, 1, 7, 120
3, 32070, Note_on_c, 1, 78, 100
3, 32099, Note_on_c, 1, 78, 0
3, 32100, Note_on_c, 1, 81, 100
3, 32129, Note_on_c, 1, 81, 0
3, 32130, Note_on_c, 1, 83, 100
3, 32159, Note_on_c, 1, 83, 0
3, 32160, Note_on_c, 1, 81, 95
3, 32160, Note_on_c, 1, 88, 95
3, 32160, Note_on_c, 1, 76, 95
3, 32220, Note_on_c, 1, 76, 0
3, 32220, Note_on_c, 1, 88, 0
3, 32220, Note_on_c, 1, 81, 0
3, 32220, Note_on_c, 1, 88, 95
3, 32220, Note_on_c, 1, 76, 95
3, 32250, Note_on_c, 1, 76, 0
3, 32250, Note_on_c, 1, 88, 0
3, 32250, Note_on_c, 1, 88, 95
3, 32250, Note_on_c, 1, 76, 95
3, 32310, Note_on_c, 1, 76, 0
3, 32310, Note_on_c, 1, 88, 0
3, 32310, Note_on_c, 1, 88, 95
3, 32310, Note_on_c, 1, 76, 95
3, 32340, Note_on_c, 1, 76, 0
3, 32340, Note_on_c, 1, 88, 0
3, 32340, Note_on_c, 1, 88, 95
3, 32340, Note_on_c, 1, 76, 95
3, 32400, Note_on_c, 1, 76, 0
3, 32400, Note_on_c, 1, 88, 0
3, 32400, Note_on_c, 1, 88, 95
3, 32400, Note_on_c, 1, 76, 95
3, 32430, Note_on_c, 1, 76, 0
3, 32430, Note_on_c, 1, 88, 0
3, 32430, Note_on_c, 1, 88, 95
3, 32430, Note_on_c, 1, 76, 95
3, 32490, Note_on_c, 1, 76, 0
3, 32490, Note_on_c, 1, 88, 0
3, 32490, Note_on_c, 1, 88, 95
3, 32490, Note_on_c, 1, 76, 95
3, 32520, Note_on_c, 1, 76, 0
3, 32520, Note_on_c, 1, 88, 0
3, 32520, Note_on_c, 1, 88, 95
3, 32520, Note_on_c, 1, 76, 95
3, 32580, Note_on_c, 1, 76, 0
3, 32580, Note_on_c, 1, 88, 0
3, 32580, Note_on_c, 1, 90, 95
3, 32580, Note_on_c, 1, 78, 95
3, 32610, Note_on_c, 1, 78, 0
3, 32610, Note_on_c, 1, 90, 0
3, 32610, Note_on_c, 1, 90, 95
3, 32610, Note_on_c, 1, 78, 95
3, 32640, Note_on_c, 1, 78, 0
3, 32640, Note_on_c, 1, 90, 0
3, 32640, Note_on_c, 1, 86, 95
3, 32640, Note_on_c, 1, 90, 95
3, 32640, Note_on_c, 1, 78, 95
3, 32700, Note_on_c, 1, 78, 0
3, 32700, Note_on_c, 1, 90, 0
3, 32700, Note_on_c, 1, 86, 0
3, 32700, Note_on_c, 1, 88, 95
3, 32700, Note_on_c, 1, 76, 95
3, 32730, Note_on_c, 1, 76, 0
3, 32730, Note_on_c, 1, 88, 0
3, 32730, Note_on_c, 1, 88, 95
3, 32730, Note_on_c, 1, 76, 95
3, 32820, Note_on_c, 1, 76, 0
3, 32820, Note_on_c, 1, 88, 0
3, 32820, Note_on_c, 1, 81, 95
3, 32820, Note_on_c, 1, 76, 95
3, 32820, Note_on_c, 1, 88, 95
3, 32880, Note_on_c, 1, 88, 0
3, 32880, Note_on_c, 1, 76, 0
3, 32880, Note_on_c, 1, 81, 0
3, 32880, Note_on_c, 1, 85, 95
3, 32880, Note_on_c, 1, 73, 95
3, 32940, Note_on_c, 1, 73, 0
3, 32940, Note_on_c, 1, 85, 0
3, 32940, Note_on_c, 1, 83, 95
3, 32940, Note_on_c, 1, 71, 95
3, 32970, Note_on_c, 1, 71, 0
3, 32970, Note_on_c, 1, 83, 0
3, 32970, Note_on_c, 1, 69, 95
3, 32970, Note_on_c, 1, 81, 95
3, 33000, Note_on_c, 1, 81, 0
3, 33000, Note_on_c, 1, 69, 0
3, 33000, Note_on_c, 1, 69, 95
3, 33000, Note_on_c, 1, 81, 95
3, 33030, Note_on_c, 1, 81, 0
3, 33030, Note_on_c, 1, 69, 0
3, 33030, Note_on_c, 1, 76, 95
3, 33090, Note_on_c, 1, 76, 0
3, 33090, Note_on_c, 1, 76, 95
3, 33150, Note_on_c, 1, 76, 0
3, 33180, Note_on_c, 1, 69, 95
3, 33210, Note_on_c, 1, 69, 0
3, 33210, Note_on_c, 1, 74, 95
3, 33240, Note_on_c, 1, 74, 0
3, 33240, Note_on_c, 1, 76, 95
3, 33270, Note_on_c, 1, 81, 95
3, 33270, Note_on_c, 1, 69, 95
3, 33330, Note_on_c, 1, 69, 0
3, 33330, Note_on_c, 1, 81, 0
3, 33330, Note_on_c, 1, 76, 0
3, 33330, Note_on_c, 1, 76, 95
3, 33360, Note_on_c, 1, 76, 0
3, 33360, Note_on_c, 1, 64, 95
3, 33390, Note_on_c, 1, 64, 0
3, 33390, Note_on_c, 1, 69, 95
3, 33420, Note_on_c, 1, 69, 0
3, 33420, Note_on_c, 1, 71, 95
3, 33450, Note_on_c, 1, 71, 0
3, 33450, Note_on_c, 1, 76, 95
3, 33540, Note_on_c, 1, 76, 0
3, 33540, Note_on_c, 1, 71, 95
3, 33570, Note_on_c, 1, 71, 0
3, 33570, Note_on_c, 1, 69, 95
3, 33600, Note_on_c, 1, 69, 0
3, 33600, Note_on_c, 1, 74, 95
3, 33600, Note_on_c, 1, 66, 95
3, 33660, Note_on_c, 1, 66, 0
3, 33660, Note_on_c, 1, 74, 0
3, 33660, Note_on_c, 1, 74, 95
3, 33660, Note_on_c, 1, 66, 95
3, 33690, Note_on_c, 1, 66, 0
3, 33690, Note_on_c, 1, 74, 0
3, 33690, Note_on_c, 1, 73, 95
3, 33690, Note_on_c, 1, 64, 95
3, 33780, Note_on_c, 1, 73, 0
3, 33780, Note_on_c, 1, 73, 95
3, 33810, Note_on_c, 1, 64, 0
3, 33810, Note_on_c, 1, 64, 95
3, 33840, Note_on_c, 1, 64, 0
3, 33840, Note_on_c, 1, 73, 0
3, 33840, Note_on_c, 1, 71, 95
3, 33840, Note_on_c, 1, 66, 95
3, 33900, Note_on_c, 1, 66, 0
3, 33900, Note_on_c, 1, 71, 0
3, 33900, Note_on_c, 1, 71, 95
3, 33900, Note_on_c, 1, 66, 95
3, 33930, Note_on_c, 1, 66, 0
3, 33930, Note_on_c, 1, 71, 0
3, 33930, Note_on_c, 1, 69, 95
3, 33930, Note_on_c, 1, 64, 95
3, 34020, Note_on_c, 1, 64, 0
3, 34020, Note_on_c, 1, 69, 0
3, 34020, Note_on_c, 1, 69, 95
3, 34020, Note_on_c, 1, 64, 95
3, 34080, Note_on_c, 1, 64, 0
3, 34080, Note_on_c, 1, 69, 0
3, 34140, Note_on_c, 1, 69, 100
3, 34159, Note_on_c, 1, 69, 0
3, 34160, Note_on_c, 1, 69, 100
3, 34179, Note_on_c, 1, 69, 0
3, 34180, Note_on_c, 1, 69, 100
3, 34199, Note_on_c, 1, 69, 0
3, 34200, Note_on_c, 1, 69, 100
3, 34219, Note_on_c, 1, 69, 0
3, 34220, Note_on_c, 1, 69, 100
3, 34239, Note_on_c, 1, 69, 0
3, 34240, Note_on_c, 1, 69, 100
3, 34259, Note_on_c, 1, 69, 0
3, 34260, Note_on_c, 1, 81, 100
3, 34319, Note_on_c, 1, 81, 0
3, 34320, Note_on_c, 1, 69, 95
3, 34380, Note_on_c, 1, 69, 0
3, 34380, Note_on_c, 1, 78, 95
3, 34410, Note_on_c, 1, 78, 0
3, 34410, Note_on_c, 1, 76, 95
3, 34440, Note_on_c, 1, 76, 0
3, 34440, Note_on_c, 1, 74, 95
3, 34470, Note_on_c, 1, 74, 0
3, 34470, Note_on_c, 1, 73, 95
3, 34500, Note_on_c, 1, 73, 0
3, 34500, Note_on_c, 1, 71, 95
3, 34530, Note_on_c, 1, 71, 0
3, 34530, Note_on_c, 1, 69, 95
3, 34560, Note_on_c, 1, 69, 0
3, 34560, Note_on_c, 1, 74, 95
3, 34620, Note_on_c, 1, 74, 0
3, 34620, Note_on_c, 1, 73, 95
3, 34650, Note_on_c, 1, 73, 0
3, 34650, Note_on_c, 1, 71, 95
3, 34710, Note_on_c, 1, 71, 0
3, 34710, Note_on_c, 1, 69, 95
3, 34740, Note_on_c, 1, 69, 0
3, 34740, Note_on_c, 1, 69, 95
3, 34770, Note_on_c, 1, 69, 0
3, 34770, Note_on_c, 1, 71, 95
3, 34800, Note_on_c, 1, 71, 0
3, 34800, Note_on_c, 1, 73, 95
3, 34800, Note_on_c, 1, 64, 95
3, 34860, Note_on_c, 1, 64, 0
3, 34860, Note_on_c, 1, 73, 0
3, 34860, Note_on_c, 1, 69, 95
3, 34890, Note_on_c, 1, 69, 0
3, 34890, Note_on_c, 1, 64, 95
3, 34980, Note_on_c, 1, 64, 0
3, 34980, Note_on_c, 1, 64, 95
3, 35010, Note_on_c, 1, 64, 0
3, 35010, Note_on_c, 1, 64, 95
3, 35100, Note_on_c, 1, 64, 0
3, 35100, Note_on_c, 1, 78, 95
3, 35100, Note_on_c, 1, 66, 95
3, 35130, Note_on_c, 1, 66, 0
3, 35130, Note_on_c, 1, 78, 0
3, 35130, Note_on_c, 1, 78, 95
3, 35130, Note_on_c, 1, 66, 95
3, 35220, Note_on_c, 1, 66, 0
3, 35220, Note_on_c, 1, 78, 0
3, 35220, Note_on_c, 1, 81, 95
3, 35220, Note_on_c, 1, 69, 95
3, 35250, Note_on_c, 1, 69, 0
3, 35250, Note_on_c, 1, 81, 0
3, 35250, Note_on_c, 1, 81, 95
3, 35250, Note_on_c, 1, 69, 95
3, 35340, Note_on_c, 1, 69, 0
3, 35340, Note_on_c, 1, 81, 0
3, 35340, Note_on_c, 1, 83, 95
3, 35340, Note_on_c, 1, 71, 95
3, 35370, Note_on_c, 1, 71, 0
3, 35370, Note_on_c, 1, 83, 0
3, 35370, Note_on_c, 1, 83, 95
3, 35370, Note_on_c, 1, 71, 95
3, 35460, Note_on_c, 1, 71, 0
3, 35460, Note_on_c, 1, 83, 0
3, 35460, Note_on_c, 1, 85, 95
3, 35460, Note_on_c, 1, 73, 95
3, 35490, Note_on_c, 1, 73, 0
3, 35490, Note_on_c, 1, 85, 0
3, 35490, Note_on_c, 1, 85, 95
3, 35490, Note_on_c, 1, 73, 95
3, 35550, Note_on_c, 1, 73, 0
3, 35550, Note_on_c, 1, 85, 0
3, 35550, Note_on_c, 1, 73, 95
3, 35580, Note_on_c, 1, 73, 0
3, 35580, Note_on_c, 1, 69, 95
3, 35610, Note_on_c, 1, 69, 0
3, 35610, Note_on_c, 1, 71, 95
3, 35640, Note_on_c, 1, 71, 0
3, 35640, Note_on_c, 1, 73, 95
3, 35670, Note_on_c, 1, 73, 0
3, 35670, Note_on_c, 1, 74, 95
3, 35700, Note_on_c, 1, 74, 0
3, 35700, Note_on_c, 1, 78, 95
3, 35730, Note_on_c, 1, 78, 0
3, 35730, Note_on_c, 1, 74, 95
3, 35760, Note_on_c, 1, 74, 0
3, 35760, Note_on_c, 1, 76, 95
3, 35790, Note_on_c, 1, 76, 0
3, 35790, Note_on_c, 1, 78, 95
3, 35820, Note_on_c, 1, 78, 0
3, 35820, Note_on_c, 1, 79, 95
3, 35850, Note_on_c, 1, 79, 0
3, 35850, Note_on_c, 1, 81, 95
3, 35880, Note_on_c, 1, 81, 0
3, 35880, Note_on_c, 1, 83, 95
3, 35910, Note_on_c, 1, 83, 0
3, 35910, Note_on_c, 1, 86, 95
3, 35940, Note_on_c, 1, 86, 0
3, 35940, Note_on_c, 1, 88, 95
3, 35970, Note_on_c, 1, 88, 0
3, 35970, Note_on_c, 1, 90, 95
3, 36000, Note_on_c, 1, 90, 0
3, 36000, Note_on_c, 1, 93, 95
3, 36000, Note_on_c, 1, 88, 95
3, 36000, Note_on_c, 1, 81, 95
3, 36060, Note_on_c, 1, 81, 0
3, 36060, Note_on_c, 1, 88, 0
3, 36060, Note_on_c, 1, 93, 0
3, 36060, Note_on_c, 1, 93, 95
3, 36060, Note_on_c, 1, 88, 95
3, 36060, Note_on_c, 1, 81, 95
3, 36090, Note_on_c, 1, 81, 0
3, 36090, Note_on_c, 1, 88, 0
3, 36090, Note_on_c, 1, 93, 0
3, 36090, Note_on_c, 1, 93, 95
3, 36090, Note_on_c, 1, 88, 95
3, 36090, Note_on_c, 1, 81, 95
3, 36150, Note_on_c, 1, 81, 0
3, 36150, Note_on_c, 1, 88, 0
3, 36150, Note_on_c, 1, 93, 0
3, 36150, Note_on_c, 1, 93, 95
3, 36150, Note_on_c, 1, 88, 95
3, 36150, Note_on_c, 1, 81, 95
3, 36180, Note_on_c, 1, 81, 0
3, 36180, Note_on_c, 1, 88, 0
3, 36180, Note_on_c, 1, 93, 0
3, 36180, Note_on_c, 1, 93, 95
3, 36180, Note_on_c, 1, 88, 95
3, 36180, Note_on_c, 1, 81, 95
3, 36240, Note_on_c, 1, 81, 0
3, 36240, Note_on_c, 1, 88, 0
3, 36240, Note_on_c, 1, 93, 0
3, 36240, Note_on_c, 1, 93, 95
3, 36240, Note_on_c, 1, 88, 95
3, 36240, Note_on_c, 1, 81, 95
3, 36270, Note_on_c, 1, 81, 0
3, 36270, Note_on_c, 1, 88, 0
3, 36270, Note_on_c, 1, 93, 0
3, 36270, Note_on_c, 1, 93, 95
3, 36270, Note_on_c, 1, 88, 95
3, 36270, Note_on_c, 1, 81, 95
3, 36330, Note_on_c, 1, 81, 0
3, 36330, Note_on_c, 1, 88, 0
3, 36330, Note_on_c, 1, 93, 0
3, 36330, Note_on_c, 1, 93, 95
3, 36330, Note_on_c, 1, 88, 95
3, 36330, Note_on_c, 1, 81, 95
3, 36360, Note_on_c, 1, 81, 0
3, 36360, Note_on_c, 1, 88, 0
3, 36360, Note_on_c, 1, 93, 0
3, 36360, Note_on_c, 1, 93, 95
3, 36360, Note_on_c, 1, 88, 95
3, 36360, Note_on_c, 1, 81, 95
3, 36420, Note_on_c, 1, 81, 0
3, 36420, Note_on_c, 1, 88, 0
3, 36420, Note_on_c, 1, 93, 0
3, 36420, Note_on_c, 1, 95, 95
3, 36420, Note_on_c, 1, 90, 95
3, 36420, Note_on_c, 1, 83, 95
3, 36450, Note_on_c, 1, 83, 0
3, 36450, Note_on_c, 1, 90, 0
3, 36450, Note_on_c, 1, 95, 0
3, 36450, Note_on_c, 1, 95, 95
3, 36450, Note_on_c, 1, 90, 95
3, 36450, Note_on_c, 1, 83, 95
3, 36480, Note_on_c, 1, 95, 0
3, 36480, Note_on_c, 1, 95, 95
3, 36540, Note_on_c, 1, 95, 0
3, 36540, Note_on_c, 1, 83, 0
3, 36540, Note_on_c, 1, 90, 0
3, 36540, Note_on_c, 1, 93, 95
3, 36540, Note_on_c, 1, 88, 95
3, 36540, Note_on_c, 1, 81, 95
3, 36570, Note_on_c, 1, 81, 0
3, 36570, Note_on_c, 1, 88, 0
3, 36570, Note_on_c, 1, 93, 0
3, 36570, Note_on_c, 1, 93, 95
3, 36570, Note_on_c, 1, 88, 95
3, 36570, Note_on_c, 1, 81, 95
3, 36600, Note_on_c, 1, 88, 0
3, 36600, Note_on_c, 1, 93, 0
3, 36600, Note_on_c, 1, 93, 95
3, 36600, Note_on_c, 1, 88, 95
3, 36660, Note_on_c, 1, 88, 0
3, 36660, Note_on_c, 1, 93, 0
3, 36660, Note_on_c, 1, 81, 0
3, 36660, Note_on_c, 1, 90, 95
3, 36660, Note_on_c, 1, 86, 95
3, 36660, Note_on_c, 1, 78, 95
3, 36690, Note_on_c, 1, 78, 0
3, 36690, Note_on_c, 1, 86, 0
3, 36690, Note_on_c, 1, 90, 0
3, 36690, Note_on_c, 1, 90, 95
3, 36690, Note_on_c, 1, 86, 95
3, 36690, Note_on_c, 1, 78, 95
3, 36720, Note_on_c, 1, 78, 0
3, 36720, Note_on_c, 1, 86, 0
3, 36720, Note_on_c, 1, 90, 0
3, 36720, Note_on_c, 1, 90, 95
3, 36720, Note_on_c, 1, 86, 95
3, 36720, Note_on_c, 1, 78, 95
3, 36780, Note_on_c, 1, 78, 0
3, 36780, Note_on_c, 1, 86, 0
3, 36780, Note_on_c, 1, 90, 0
3, 36780, Note_on_c, 1, 88, 95
3, 36780, Note_on_c, 1, 83, 95
3, 36780, Note_on_c, 1, 76, 95
3, 36810, Note_on_c, 1, 76, 0
3, 36810, Note_on_c, 1, 83, 0
3, 36810, Note_on_c, 1, 88, 0
3, 36810, Note_on_c, 1, 88, 95
3, 36810, Note_on_c, 1, 83, 95
3, 36810, Note_on_c, 1, 76, 95
3, 36870, Note_on_c, 1, 76, 0
3, 36870, Note_on_c, 1, 83, 0
3, 36870, Note_on_c, 1, 88, 0
3, 36870, Note_on_c, 1, 85, 95
3, 36870, Note_on_c, 1, 78, 95
3, 36930, Note_on_c, 1, 78, 0
3, 36930, Note_on_c, 1, 85, 0
3, 36930, Note_on_c, 1, 85, 95
3, 36930, Note_on_c, 1, 78, 95
3, 36990, Note_on_c, 1, 78, 0
3, 36990, Note_on_c, 1, 85, 0
3, 36990, Note_on_c, 1, 83, 95
3, 36990, Note_on_c, 1, 76, 95
3, 37080, Note_on_c, 1, 76, 0
3, 37080, Note_on_c, 1, 83, 0
3, 37080, Note_on_c, 1, 83, 95
3, 37080, Note_on_c, 1, 78, 95
3, 37140, Note_on_c, 1, 78, 0
3, 37140, Note_on_c, 1, 83, 0
3, 37140, Note_on_c, 1, 81, 95
3, 37140, Note_on_c, 1, 76, 95
3, 37200, Note_on_c, 1, 76, 0
3, 37200, Note_on_c, 1, 81, 0
3, 37200, Note_on_c, 1, 85, 95
3, 37200, Note_on_c, 1, 76, 95
3, 37260, Note_on_c, 1, 76, 0
3, 37260, Note_on_c, 1, 85, 0
3, 37260, Note_on_c, 1, 85, 95
3, 37260, Note_on_c, 1, 76, 95
3, 37290, Note_on_c, 1, 76, 0
3, 37290, Note_on_c, 1, 85, 0
3, 37290, Note_on_c, 1, 86, 95
3, 37290, Note_on_c, 1, 76, 95
3, 37320, Note_on_c, 1, 76, 0
3, 37320, Note_on_c, 1, 86, 0
3, 37350, Note_on_c, 1, 86, 95
3, 37350, Note_on_c, 1, 76, 95
3, 37350, Note_on_c, 1, 81, 95
3, 37410, Note_on_c, 1, 81, 0
3, 37410, Note_on_c, 1, 76, 0
3, 37410, Note_on_c, 1, 86, 0
3, 37410, Note_on_c, 1, 85, 95
3, 37410, Note_on_c, 1, 74, 95
3, 37410, Note_on_c, 1, 79, 95
3, 37440, Note_on_c, 1, 79, 0
3, 37440, Note_on_c, 1, 74, 0
3, 37440, Note_on_c, 1, 85, 0
3, 37470, Note_on_c, 1, 85, 95
3, 37470, Note_on_c, 1, 79, 95
3, 37470, Note_on_c, 1, 74, 95
3, 37530, Note_on_c, 1, 74, 0
3, 37530, Note_on_c, 1, 79, 0
3, 37530, Note_on_c, 1, 85, 0
3, 37530, Note_on_c, 1, 83, 95
3, 37530, Note_on_c, 1, 79, 95
3, 37530, Note_on_c, 1, 74, 95
3, 37590, Note_on_c, 1, 74, 0
3, 37590, Note_on_c, 1, 79, 0
3, 37590, Note_on_c, 1, 83, 0
3, 37590, Note_on_c, 1, 85, 95
3, 37620, Note_on_c, 1, 85, 0
3, 37620, Note_on_c, 1, 83, 95
3, 37650, Note_on_c, 1, 83, 0
3, 37650, Note_on_c, 1, 81, 95
3, 37650, Note_on_c, 1, 76, 95
3, 37740, Note_on_c, 1, 76, 0
3, 37740, Note_on_c, 1, 81, 0
3, 37740, Note_on_c, 1, 78, 95
3, 37800, Note_on_c, 1, 78, 0
3, 37800, Note_on_c, 1, 81, 95
3, 37800, Note_on_c, 1, 76, 95
3, 37920, Note_on_c, 1, 76, 0
3, 37920, Note_on_c, 1, 81, 0
3, 37980, Note_on_c, 1, 83, 95
3, 38040, Note_on_c, 1, 83, 0
3, 38040, Note_on_c, 1, 85, 95
3, 38070, Note_on_c, 1, 85, 0
3, 38070, Note_on_c, 1, 81, 95
3, 38160, Note_on_c, 1, 81, 0
3, 38160, Note_on_c, 1, 81, 95
3, 38220, Note_on_c, 1, 81, 0
3, 38220, Note_on_c, 1, 83, 95
3, 38250, Note_on_c, 1, 83, 0
3, 38250, Note_on_c, 1, 76, 95
3, 38340, Note_on_c, 1, 76, 0
3, 38340, Note_on_c, 1, 78, 95
3, 38370, Note_on_c, 1, 78, 0
3, 38370, Note_on_c, 1, 79, 95
3, 38400, Note_on_c, 1, 79, 0
3, 38400, Note_on_c, 1, 78, 95
3, 38430, Note_on_c, 1, 78, 0
3, 38430, Note_on_c, 1, 76, 95
3, 38460, Note_on_c, 1, 76, 0
3, 38460, Note_on_c, 1, 78, 95
3, 38490, Note_on_c, 1, 78, 0
3, 38490, Note_on_c, 1, 76, 95
3, 38520, Note_on_c, 1, 76, 0
3, 38520, Note_on_c, 1, 74, 95
3, 38550, Note_on_c, 1, 74, 0
3, 38550, Note_on_c, 1, 76, 95
3, 38580, Note_on_c, 1, 76, 0
3, 38580, Note_on_c, 1, 78, 95
3, 38610, Note_on_c, 1, 78, 0
3, 38610, Note_on_c, 1, 69, 95
3, 38670, Note_on_c, 1, 69, 0
3, 38670, Note_on_c, 1, 64, 95
3, 38700, Note_on_c, 1, 64, 0
3, 38700, Note_on_c, 1, 69, 95
3, 38730, Note_on_c, 1, 69, 0
3, 38730, Note_on_c, 1, 71, 95
3, 38760, Note_on_c, 1, 71, 0
3, 38760, Note_on_c, 1, 73, 95
3, 38820, Note_on_c, 1, 73, 0
3, 38820, Note_on_c, 1, 69, 95
3, 38850, Note_on_c, 1, 69, 0
3, 38850, Note_on_c, 1, 64, 95
3, 38940, Note_on_c, 1, 64, 0
3, 38940, Note_on_c, 1, 71, 95
3, 38940, Note_on_c, 1, 66, 95
3, 39000, Note_on_c, 1, 66, 0
3, 39000, Note_on_c, 1, 71, 0
3, 39000, Note_on_c, 1, 71, 95
3, 39000, Note_on_c, 1, 66, 95
3, 39030, Note_on_c, 1, 66, 0
3, 39030, Note_on_c, 1, 71, 0
3, 39030, Note_on_c, 1, 71, 95
3, 39030, Note_on_c, 1, 66, 95
3, 39090, Note_on_c, 1, 66, 0
3, 39090, Note_on_c, 1, 71, 0
3, 39090, Note_on_c, 1, 71, 95
3, 39090, Note_on_c, 1, 66, 95
3, 39180, Note_on_c, 1, 66, 0
3, 39180, Note_on_c, 1, 71, 0
3, 39180, Note_on_c, 1, 71, 95
3, 39180, Note_on_c, 1, 66, 95
3, 39210, Note_on_c, 1, 66, 0
3, 39210, Note_on_c, 1, 71, 0
3, 39210, Note_on_c, 1, 69, 95
3, 39210, Note_on_c, 1, 64, 95
3, 39300, Note_on_c, 1, 64, 0
3, 39300, Note_on_c, 1, 69, 0
3, 39300, Note_on_c, 1, 74, 95
3, 39300, Note_on_c, 1, 69, 95
3, 39300, Note_on_c, 1, 66, 95
3, 39330, Note_on_c, 1, 66, 0
3, 39330, Note_on_c, 1, 69, 0
3, 39330, Note_on_c, 1, 74, 0
3, 39330, Note_on_c, 1, 74, 95
3, 39330, Note_on_c, 1, 69, 95
3, 39330, Note_on_c, 1, 66, 95
3, 39360, Note_on_c, 1, 66, 0
3, 39360, Note_on_c, 1, 69, 0
3, 39360, Note_on_c, 1, 74, 0
3, 39360, Note_on_c, 1, 74, 95
3, 39360, Note_on_c, 1, 69, 95
3, 39360, Note_on_c, 1, 66, 95
3, 39420, Note_on_c, 1, 66, 0
3, 39420, Note_on_c, 1, 69, 0
3, 39420, Note_on_c, 1, 74, 0
3, 39420, Note_on_c, 1, 73, 95
3, 39420, Note_on_c, 1, 69, 95
3, 39420, Note_on_c, 1, 64, 95
3, 39480, Note_on_c, 1, 64, 0
3, 39480, Note_on_c, 1, 69, 0
3, 39480, Note_on_c, 1, 73, 0
3, 39480, Note_on_c, 1, 73, 95
3, 39480, Note_on_c, 1, 69, 95
3, 39480, Note_on_c, 1, 64, 95
3, 39540, Note_on_c, 1, 64, 0
3, 39540, Note_on_c, 1, 69, 0
3, 39540, Note_on_c, 1, 73, 0
3, 39540, Note_on_c, 1, 71, 95
3, 39540, Note_on_c, 1, 68, 95
3, 39540, Note_on_c, 1, 64, 95
3, 39600, Note_on_c, 1, 64, 0
3, 39600, Note_on_c, 1, 68, 0
3, 39600, Note_on_c, 1, 71, 0
3, 39600, Note_on_c, 1, 71, 95
3, 39600, Note_on_c, 1, 68, 95
3, 39600, Note_on_c, 1, 64, 95
3, 39660, Note_on_c, 1, 64, 0
3, 39660, Note_on_c, 1, 68, 0
3, 39660, Note_on_c, 1, 71, 0
3, 39660, Note_on_c, 1, 66, 95
3, 39660, Note_on_c, 1, 63, 95
3, 39720, Note_on_c, 1, 63, 0
3, 39720, Note_on_c, 1, 66, 0
3, 39720, Note_on_c, 1, 66, 95
3, 39720, Note_on_c, 1, 63, 95
3, 39780, Note_on_c, 1, 63, 0
3, 39780, Note_on_c, 1, 66, 0
3, 39780, Note_on_c, 1, 64, 95
3, 39780, Note_on_c, 1, 61, 95
3, 39840, Note_on_c, 1, 61, 0
3, 39840, Note_on_c, 1, 64, 0
3, 39840, Note_on_c, 1, 66, 100
3, 39840, Note_on_c, 1, 63, 100
3, 39840, Note_on_c, 1, 59, 100
3, 40079, Note_on_c, 1, 59, 0
3, 40079, Note_on_c, 1, 63, 0
3, 40079, Note_on_c, 1, 66, 0
3, 40080, Note_on_c, 1, 61, 100
3, 40080, Note_on_c, 1, 58, 100
3, 40080, Note_on_c, 1, 66, 100
3, 40319, Note_on_c, 1, 66, 0
3, 40319, Note_on_c, 1, 58, 0
3, 40319, Note_on_c, 1, 61, 0
3, 40320, Note_on_c, 1, 59, 100
3, 40320, Note_on_c, 1, 63, 100
3, 40320, Note_on_c, 1, 66, 100
3, 40799, Note_on_c, 1, 66, 0
3, 40799, Note_on_c, 1, 63, 0
3, 40799, Note_on_c, 1, 59, 0
3, 40800, Note_on_c, 1, 59, 100
3, 40800, Note_on_c, 1, 56, 100
3, 40800, Note_on_c, 1, 64, 100
3, 41279, Note_on_c, 1, 64, 0
3, 41279, Note_on_c, 1, 56, 0
3, 41279, Note_on_c, 1, 59, 0
3, 41280, Note_on_c, 1, 56, 100
3, 41280, Note_on_c, 1, 59, 100
3, 41280, Note_on_c, 1, 63, 100
3, 41280, Note_on_c, 1, 64, 100
3, 41519, Note_on_c, 1, 64, 0
3, 41519, Note_on_c, 1, 56, 0
3, 41519, Note_on_c, 1, 59, 0
3, 41519, Note_on_c, 1, 63, 0
3, 41520, Note_on_c, 1, 61, 100
3, 41520, Note_on_c, 1, 64, 100
3, 41759, Note_on_c, 1, 64, 0
3, 41759, Note_on_c, 1, 61, 0
3, 41760, Note_on_c, 1, 66, 100
3, 41760, Note_on_c, 1, 63, 100
3, 41760, Note_on_c, 1, 59, 100
3, 41999, Note_on_c, 1, 59, 0
3, 41999, Note_on_c, 1, 63, 0
3, 41999, Note_on_c, 1, 66, 0
3, 42000, Note_on_c, 1, 61, 100
3, 42000, Note_on_c, 1, 58, 100
3, 42000, Note_on_c, 1, 66, 100
3, 42239, Note_on_c, 1, 66, 0
3, 42239, Note_on_c, 1, 58, 0
3, 42239, Note_on_c, 1, 61, 0
3, 42240, Note_on_c, 1, 59, 100
3, 42240, Note_on_c, 1, 63, 100
3, 42240, Note_on_c, 1, 66, 100
3, 42719, Note_on_c, 1, 66, 0
3, 42719, Note_on_c, 1, 63, 0
3, 42719, Note_on_c, 1, 59, 0
3, 42720, Note_on_c, 1, 59, 100
3, 42720, Note_on_c, 1, 56, 100
3, 42720, Note_on_c, 1, 64, 100
3, 43199, Note_on_c, 1, 64, 0
3, 43199, Note_on_c, 1, 56, 0
3, 43199, Note_on_c, 1, 59, 0
3, 43200, Note_on_c, 1, 61, 100
3, 43200, Note_on_c, 1, 54, 100
3, 43200, Note_on_c, 1, 59, 100
3, 43679, Note_on_c, 1, 59, 0
3, 43679, Note_on_c, 1, 54, 0
3, 43679, Note_on_c, 1, 61, 0
3, 43680, Note_on_c, 1, 56, 100
3, 43680, Note_on_c, 1, 59, 100
3, 43799, Note_on_c, 1, 59, 0
3, 43799, Note_on_c, 1, 56, 0
3, 43800, Note_on_c, 1, 56, 100
3, 43800, Note_on_c, 1, 59, 100
3, 43919, Note_on_c, 1, 59, 0
3, 43919, Note_on_c, 1, 56, 0
3, 43920, Note_on_c, 1, 56, 100
3, 43920, Note_on_c, 1, 59, 100
3, 44039, Note_on_c, 1, 59, 0
3, 44039, Note_on_c, 1, 56, 0
3, 44040, Note_on_c, 1, 56, 100
3, 44040, Note_on_c, 1, 59, 100
3, 44159, Note_on_c, 1, 59, 0
3, 44159, Note_on_c, 1, 56, 0
3, 44160, Note_on_c, 1, 56, 100
3, 44160, Note_on_c, 1, 59, 100
3, 44279, Note_on_c, 1, 59, 0
3, 44279, Note_on_c, 1, 56, 0
3, 44280, Note_on_c, 1, 56, 100
3, 44280, Note_on_c, 1, 59, 100
3, 44399, Note_on_c, 1, 59, 0
3, 44399, Note_on_c, 1, 56, 0
3, 44400, Note_on_c, 1, 56, 100
3, 44400, Note_on_c, 1, 59, 100
3, 44519, Note_on_c, 1, 59, 0
3, 44519, Note_on_c, 1, 56, 0
3, 44520, Note_on_c, 1, 56, 100
3, 44520, Note_on_c, 1, 59, 100
3, 44639, Note_on_c, 1, 59, 0
3, 44639, Note_on_c, 1, 56, 0
3, 44640, Note_on_c, 1, 56, 100
3, 44640, Note_on_c, 1, 59, 100
3, 44759, Note_on_c, 1, 59, 0
3, 44759, Note_on_c, 1, 56, 0
3, 44760, Note_on_c, 1, 56, 100
3, 44760, Note_on_c, 1, 59, 100
3, 44879, Note_on_c, 1, 59, 0
3, 44879, Note_on_c, 1, 56, 0
3, 44880, Note_on_c, 1, 56, 100
3, 44880, Note_on_c, 1, 59, 100
3, 44999, Note_on_c, 1, 59, 0
3, 44999, Note_on_c, 1, 56, 0
3, 45000, Note_on_c, 1, 56, 100
3, 45000, Note_on_c, 1, 59, 100
3, 45119, Note_on_c, 1, 59, 0
3, 45119, Note_on_c, 1, 56, 0
3, 45120, Note_on_c, 1, 56, 100
3, 45120, Note_on_c, 1, 59, 100
3, 45239, Note_on_c, 1, 59, 0
3, 45239, Note_on_c, 1, 56, 0
3, 45240, Note_on_c, 1, 56, 100
3, 45240, Note_on_c, 1, 59, 100
3, 45359, Note_on_c, 1, 59, 0
3, 45359, Note_on_c, 1, 56, 0
3, 45360, Note_on_c, 1, 56, 100
3, 45360, Note_on_c, 1, 59, 100
3, 45479, Note_on_c, 1, 59, 0
3, 45479, Note_on_c, 1, 56, 0
3, 45480, Note_on_c, 1, 56, 100
3, 45480, Note_on_c, 1, 59, 100
3, 45599, Note_on_c, 1, 59, 0
3, 45599, Note_on_c, 1, 56, 0
3, 45600, Note_on_c, 1, 56, 100
3, 45600, Note_on_c, 1, 59, 100
3, 45719, Note_on_c, 1, 59, 0
3, 45719, Note_on_c, 1, 56, 0
3, 45720, Note_on_c, 1, 56, 100
3, 45720, Note_on_c, 1, 59, 100
3, 45839, Note_on_c, 1, 59, 0
3, 45839, Note_on_c, 1, 56, 0
3, 45840, Note_on_c, 1, 56, 100
3, 45840, Note_on_c, 1, 59, 100
3, 45959, Note_on_c, 1, 59, 0
3, 45959, Note_on_c, 1, 56, 0
3, 45960, Note_on_c, 1, 56, 100
3, 45960, Note_on_c, 1, 59, 100
3, 46079, Note_on_c, 1, 59, 0
3, 46079, Note_on_c, 1, 56, 0
3, 46080, Note_on_c, 1, 56, 100
3, 46080, Note_on_c, 1, 59, 100
3, 46199, Note_on_c, 1, 59, 0
3, 46199, Note_on_c, 1, 56, 0
3, 46200, Note_on_c, 1, 56, 100
3, 46200, Note_on_c, 1, 59, 100
3, 46319, Note_on_c, 1, 59, 0
3, 46319, Note_on_c, 1, 56, 0
3, 46320, Note_on_c, 1, 56, 100
3, 46320, Note_on_c, 1, 59, 100
3, 46439, Note_on_c, 1, 59, 0
3, 46439, Note_on_c, 1, 56, 0
3, 46440, Note_on_c, 1, 56, 100
3, 46440, Note_on_c, 1, 59, 100
3, 46559, Note_on_c, 1, 59, 0
3, 46559, Note_on_c, 1, 56, 0
3, 46560, Note_on_c, 1, 54, 100
3, 46560, Note_on_c, 1, 59, 100
3, 46560, Note_on_c, 1, 61, 100
3, 47039, Note_on_c, 1, 61, 0
3, 47039, Note_on_c, 1, 59, 0
3, 47039, Note_on_c, 1, 54, 0
3, 47040, Note_on_c, 1, 52, 100
3, 47040, Note_on_c, 1, 59, 100
3, 47040, Note_on_c, 1, 54, 100
3, 47399, Note_on_c, 1, 54, 0
3, 47399, Note_on_c, 1, 59, 0
3, 47399, Note_on_c, 1, 52, 0
3, 47520, Note_on_c, 1, 56, 100
3, 47520, Note_on_c, 1, 59, 100
3, 47639, Note_on_c, 1, 59, 0
3, 47639, Note_on_c, 1, 56, 0
3, 47640, Note_on_c, 1, 56, 100
3, 47640, Note_on_c, 1, 59, 100
3, 47759, Note_on_c, 1, 59, 0
3, 47759, Note_on_c, 1, 56, 0
3, 47760, Note_on_c, 1, 56, 100
3, 47760, Note_on_c, 1, 59, 100
3, 47879, Note_on_c, 1, 59, 0
3, 47879, Note_on_c, 1, 56, 0
3, 47880, Note_on_c, 1, 56, 100
3, 47880, Note_on_c, 1, 59, 100
3, 47999, Note_on_c, 1, 59, 0
3, 47999, Note_on_c, 1, 56, 0
3, 48000, Note_on_c, 1, 56, 100
3, 48000, Note_on_c, 1, 59, 100
3, 48119, Note_on_c, 1, 59, 0
3, 48119, Note_on_c, 1, 56, 0
3, 48120, Note_on_c, 1, 56, 100
3, 48120, Note_on_c, 1, 59, 100
3, 48239, Note_on_c, 1, 59, 0
3, 48239, Note_on_c, 1, 56, 0
3, 48240, Note_on_c, 1, 56, 100
3, 48240, Note_on_c, 1, 59, 100
3, 48359, Note_on_c, 1, 59, 0
3, 48359, Note_on_c, 1, 56, 0
3, 48360, Note_on_c, 1, 56, 100
3, 48360, Note_on_c, 1, 59, 100
3, 48479, Note_on_c, 1, 59, 0
3, 48479, Note_on_c, 1, 56, 0
3, 48480, Note_on_c, 1, 56, 100
3, 48480, Note_on_c, 1, 59, 100
3, 48599, Note_on_c, 1, 59, 0
3, 48599, Note_on_c, 1, 56, 0
3, 48600, Note_on_c, 1, 56, 100
3, 48600, Note_on_c, 1, 59, 100
3, 48719, Note_on_c, 1, 59, 0
3, 48719, Note_on_c, 1, 56, 0
3, 48720, Note_on_c, 1, 56, 100
3, 48720, Note_on_c, 1, 59, 100
3, 48839, Note_on_c, 1, 59, 0
3, 48839, Note_on_c, 1, 56, 0
3, 48840, Note_on_c, 1, 56, 100
3, 48840, Note_on_c, 1, 59, 100
3, 48959, Note_on_c, 1, 59, 0
3, 48959, Note_on_c, 1, 56, 0
3, 48960, Note_on_c, 1, 56, 100
3, 48960, Note_on_c, 1, 59, 100
3, 49079, Note_on_c, 1, 59, 0
3, 49079, Note_on_c, 1, 56, 0
3, 49080, Note_on_c, 1, 56, 100
3, 49080, Note_on_c, 1, 59, 100
3, 49199, Note_on_c, 1, 59, 0
3, 49199, Note_on_c, 1, 56, 0
3, 49200, Note_on_c, 1, 56, 100
3, 49200, Note_on_c, 1, 59, 100
3, 49319, Note_on_c, 1, 59, 0
3, 49319, Note_on_c, 1, 56, 0
3, 49320, Note_on_c, 1, 56, 100
3, 49320, Note_on_c, 1, 59, 100
3, 49439, Note_on_c, 1, 59, 0
3, 49439, Note_on_c, 1, 56, 0
3, 49440, Note_on_c, 1, 56, 100
3, 49440, Note_on_c, 1, 59, 100
3, 49559, Note_on_c, 1, 59, 0
3, 49559, Note_on_c, 1, 56, 0
3, 49560, Note_on_c, 1, 56, 100
3, 49560, Note_on_c, 1, 59, 100
3, 49679, Note_on_c, 1, 59, 0
3, 49679, Note_on_c, 1, 56, 0
3, 49680, Note_on_c, 1, 56, 100
3, 49680, Note_on_c, 1, 59, 100
3, 49799, Note_on_c, 1, 59, 0
3, 49799, Note_on_c, 1, 56, 0
3, 49800, Note_on_c, 1, 56, 100
3, 49800, Note_on_c, 1, 59, 100
3, 49919, Note_on_c, 1, 59, 0
3, 49919, Note_on_c, 1, 56, 0
3, 49920, Note_on_c, 1, 56, 100
3, 49920, Note_on_c, 1, 59, 100
3, 50039, Note_on_c, 1, 59, 0
3, 50039, Note_on_c, 1, 56, 0
3, 50040, Note_on_c, 1, 56, 100
3, 50040, Note_on_c, 1, 59, 100
3, 50159, Note_on_c, 1, 59, 0
3, 50159, Note_on_c, 1, 56, 0
3, 50160, Note_on_c, 1, 56, 100
3, 50160, Note_on_c, 1, 59, 100
3, 50279, Note_on_c, 1, 59, 0
3, 50279, Note_on_c, 1, 56, 0
3, 50280, Note_on_c, 1, 56, 100
3, 50280, Note_on_c, 1, 59, 100
3, 50399, Note_on_c, 1, 59, 0
3, 50399, Note_on_c, 1, 56, 0
3, 50400, Note_on_c, 1, 56, 100
3, 50400, Note_on_c, 1, 59, 100
3, 50519, Note_on_c, 1, 59, 0
3, 50519, Note_on_c, 1, 56, 0
3, 50520, Note_on_c, 1, 56, 100
3, 50520, Note_on_c, 1, 59, 100
3, 50639, Note_on_c, 1, 59, 0
3, 50639, Note_on_c, 1, 56, 0
3, 50640, Note_on_c, 1, 56, 100
3, 50640, Note_on_c, 1, 59, 100
3, 50759, Note_on_c, 1, 59, 0
3, 50759, Note_on_c, 1, 56, 0
3, 50760, Note_on_c, 1, 56, 100
3, 50760, Note_on_c, 1, 59, 100
3, 50879, Note_on_c, 1, 59, 0
3, 50879, Note_on_c, 1, 56, 0
3, 50880, Note_on_c, 1, 56, 100
3, 50880, Note_on_c, 1, 59, 100
3, 50999, Note_on_c, 1, 59, 0
3, 50999, Note_on_c, 1, 56, 0
3, 51000, Note_on_c, 1, 56, 100
3, 51000, Note_on_c, 1, 59, 100
3, 51119, Note_on_c, 1, 59, 0
3, 51119, Note_on_c, 1, 56, 0
3, 51120, Note_on_c, 1, 56, 100
3, 51120, Note_on_c, 1, 59, 100
3, 51239, Note_on_c, 1, 59, 0
3, 51239, Note_on_c, 1, 56, 0
3, 51240, Note_on_c, 1, 56, 100
3, 51240, Note_on_c, 1, 59, 100
3, 51359, Note_on_c, 1, 59, 0
3, 51359, Note_on_c, 1, 56, 0
3, 51360, Note_on_c, 1, 56, 100
3, 51360, Note_on_c, 1, 59, 100
3, 51479, Note_on_c, 1, 59, 0
3, 51479, Note_on_c, 1, 56, 0
3, 51480, Note_on_c, 1, 56, 100
3, 51480, Note_on_c, 1, 59, 100
3, 51599, Note_on_c, 1, 59, 0
3, 51599, Note_on_c, 1, 56, 0
3, 51600, Note_on_c, 1, 56, 100
3, 51600, Note_on_c, 1, 59, 100
3, 51719, Note_on_c, 1, 59, 0
3, 51719, Note_on_c, 1, 56, 0
3, 51720, Note_on_c, 1, 56, 100
3, 51720, Note_on_c, 1, 59, 100
3, 51839, Note_on_c, 1, 59, 0
3, 51839, Note_on_c, 1, 56, 0
3, 51840, Note_on_c, 1, 56, 100
3, 51840, Note_on_c, 1, 59, 100
3, 51959, Note_on_c, 1, 59, 0
3, 51959, Note_on_c, 1, 56, 0
3, 51960, Note_on_c, 1, 56, 100
3, 51960, Note_on_c, 1, 59, 100
3, 52079, Note_on_c, 1, 59, 0
3, 52079, Note_on_c, 1, 56, 0
3, 52080, Note_on_c, 1, 56, 100
3, 52080, Note_on_c, 1, 59, 100
3, 52199, Note_on_c, 1, 59, 0
3, 52199, Note_on_c, 1, 56, 0
3, 52200, Note_on_c, 1, 56, 100
3, 52200, Note_on_c, 1, 59, 100
3, 52319, Note_on_c, 1, 59, 0
3, 52319, Note_on_c, 1, 56, 0
3, 52320, Note_on_c, 1, 56, 100
3, 52320, Note_on_c, 1, 59, 100
3, 52439, Note_on_c, 1, 59, 0
3, 52439, Note_on_c, 1, 56, 0
3, 52440, Note_on_c, 1, 56, 100
3, 52440, Note_on_c, 1, 59, 100
3, 52559, Note_on_c, 1, 59, 0
3, 52559, Note_on_c, 1, 56, 0
3, 52560, Note_on_c, 1, 56, 100
3, 52560, Note_on_c, 1, 59, 100
3, 52679, Note_on_c, 1, 59, 0
3, 52679, Note_on_c, 1, 56, 0
3, 52680, Note_on_c, 1, 56, 100
3, 52680, Note_on_c, 1, 59, 100
3, 52799, Note_on_c, 1, 59, 0
3, 52799, Note_on_c, 1, 56, 0
3, 52800, Note_on_c, 1, 56, 100
3, 52800, Note_on_c, 1, 59, 100
3, 52919, Note_on_c, 1, 59, 0
3, 52919, Note_on_c, 1, 56, 0
3, 52920, Note_on_c, 1, 56, 100
3, 52920, Note_on_c, 1, 59, 100
3, 53039, Note_on_c, 1, 59, 0
3, 53039, Note_on_c, 1, 56, 0
3, 53040, Note_on_c, 1, 56, 100
3, 53040, Note_on_c, 1, 59, 100
3, 53159, Note_on_c, 1, 59, 0
3, 53159, Note_on_c, 1, 56, 0
3, 53160, Note_on_c, 1, 56, 100
3, 53160, Note_on_c, 1, 59, 100
3, 53279, Note_on_c, 1, 59, 0
3, 53279, Note_on_c, 1, 56, 0
3, 53280, Note_on_c, 1, 56, 100
3, 53280, Note_on_c, 1, 59, 100
3, 53399, Note_on_c, 1, 59, 0
3, 53399, Note_on_c, 1, 56, 0
3, 53400, Note_on_c, 1, 56, 100
3, 53400, Note_on_c, 1, 59, 100
3, 53519, Note_on_c, 1, 59, 0
3, 53519, Note_on_c, 1, 56, 0
3, 53520, Note_on_c, 1, 56, 100
3, 53520, Note_on_c, 1, 59, 100
3, 53639, Note_on_c, 1, 59, 0
3, 53639, Note_on_c, 1, 56, 0
3, 53640, Note_on_c, 1, 56, 100
3, 53640, Note_on_c, 1, 59, 100
3, 53759, Note_on_c, 1, 59, 0
3, 53759, Note_on_c, 1, 56, 0
3, 53760, Note_on_c, 1, 56, 100
3, 53760, Note_on_c, 1, 59, 100
3, 53879, Note_on_c, 1, 59, 0
3, 53879, Note_on_c, 1, 56, 0
3, 53880, Note_on_c, 1, 56, 100
3, 53880, Note_on_c, 1, 59, 100
3, 53999, Note_on_c, 1, 59, 0
3, 53999, Note_on_c, 1, 56, 0
3, 54000, Note_on_c, 1, 56, 100
3, 54000, Note_on_c, 1, 59, 100
3, 54119, Note_on_c, 1, 59, 0
3, 54119, Note_on_c, 1, 56, 0
3, 54120, Note_on_c, 1, 56, 100
3, 54120, Note_on_c, 1, 59, 100
3, 54239, Note_on_c, 1, 59, 0
3, 54239, Note_on_c, 1, 56, 0
3, 54240, Note_on_c, 1, 56, 100
3, 54240, Note_on_c, 1, 59, 100
3, 54359, Note_on_c, 1, 59, 0
3, 54359, Note_on_c, 1, 56, 0
3, 54360, Note_on_c, 1, 56, 100
3, 54360, Note_on_c, 1, 59, 100
3, 54479, Note_on_c, 1, 59, 0
3, 54479, Note_on_c, 1, 56, 0
3, 54480, Note_on_c, 1, 56, 100
3, 54480, Note_on_c, 1, 59, 100
3, 54599, Note_on_c, 1, 59, 0
3, 54599, Note_on_c, 1, 56, 0
3, 54600, Note_on_c, 1, 56, 100
3, 54600, Note_on_c, 1, 59, 100
3, 54719, Note_on_c, 1, 59, 0
3, 54719, Note_on_c, 1, 56, 0
3, 54720, Note_on_c, 1, 56, 100
3, 54720, Note_on_c, 1, 59, 100
3, 54839, Note_on_c, 1, 59, 0
3, 54839, Note_on_c, 1, 56, 0
3, 54840, Note_on_c, 1, 56, 100
3, 54840, Note_on_c, 1, 59, 100
3, 54959, Note_on_c, 1, 59, 0
3, 54959, Note_on_c, 1, 56, 0
3, 54960, Note_on_c, 1, 56, 100
3, 54960, Note_on_c, 1, 59, 100
3, 55079, Note_on_c, 1, 59, 0
3, 55079, Note_on_c, 1, 56, 0
3, 55080, Note_on_c, 1, 56, 100
3, 55080, Note_on_c, 1, 59, 100
3, 55199, Note_on_c, 1, 59, 0
3, 55199, Note_on_c, 1, 56, 0
3, 55200, Control_c, 1, 7, 110
3, 55200, Note_on_c, 1, 63, 100
3, 55200, Note_on_c, 1, 59, 100
3, 55229, Note_on_c, 1, 63, 0
3, 55230, Note_on_c, 1, 64, 100
3, 55259, Note_on_c, 1, 64, 0
3, 55260, Note_on_c, 1, 66, 100
3, 55289, Note_on_c, 1, 66, 0
3, 55289, Note_on_c, 1, 59, 0
3, 55290, Note_on_c, 1, 59, 100
3, 55290, Note_on_c, 1, 66, 100
3, 55349, Note_on_c, 1, 66, 0
3, 55349, Note_on_c, 1, 59, 0
3, 55350, Note_on_c, 1, 66, 100
3, 55350, Note_on_c, 1, 59, 100
3, 55379, Note_on_c, 1, 59, 0
3, 55379, Note_on_c, 1, 66, 0
3, 55380, Note_on_c, 1, 66, 100
3, 55380, Note_on_c, 1, 59, 100
3, 55409, Note_on_c, 1, 59, 0
3, 55409, Note_on_c, 1, 66, 0
3, 55410, Note_on_c, 1, 66, 100
3, 55410, Note_on_c, 1, 59, 100
3, 55439, Note_on_c, 1, 59, 0
3, 55439, Note_on_c, 1, 66, 0
3, 55440, Note_on_c, 1, 66, 100
3, 55440, Note_on_c, 1, 59, 100
3, 55469, Note_on_c, 1, 59, 0
3, 55469, Note_on_c, 1, 66, 0
3, 55470, Note_on_c, 1, 66, 100
3, 55470, Note_on_c, 1, 59, 100
3, 55499, Note_on_c, 1, 59, 0
3, 55499, Note_on_c, 1, 66, 0
3, 55500, Note_on_c, 1, 66, 100
3, 55500, Note_on_c, 1, 59, 100
3, 55529, Note_on_c, 1, 59, 0
3, 55529, Note_on_c, 1, 66, 0
3, 55530, Note_on_c, 1, 66, 100
3, 55530, Note_on_c, 1, 59, 100
3, 55559, Note_on_c, 1, 59, 0
3, 55559, Note_on_c, 1, 66, 0
3, 55560, Note_on_c, 1, 66, 100
3, 55560, Note_on_c, 1, 59, 100
3, 55589, Note_on_c, 1, 59, 0
3, 55589, Note_on_c, 1, 66, 0
3, 55590, Note_on_c, 1, 66, 100
3, 55590, Note_on_c, 1, 59, 100
3, 55619, Note_on_c, 1, 59, 0
3, 55619, Note_on_c, 1, 66, 0
3, 55620, Note_on_c, 1, 66, 100
3, 55620, Note_on_c, 1, 59, 100
3, 55649, Note_on_c, 1, 59, 0
3, 55649, Note_on_c, 1, 66, 0
3, 55650, Note_on_c, 1, 66, 100
3, 55650, Note_on_c, 1, 59, 100
3, 55679, Note_on_c, 1, 59, 0
3, 55679, Note_on_c, 1, 66, 0
3, 55680, Note_on_c, 1, 64, 100
3, 55680, Note_on_c, 1, 68, 100
3, 55680, Note_on_c, 1, 59, 100
3, 55739, Note_on_c, 1, 68, 0
3, 55739, Note_on_c, 1, 64, 0
3, 55740, Note_on_c, 1, 64, 100
3, 55740, Note_on_c, 1, 66, 100
3, 55769, Note_on_c, 1, 66, 0
3, 55769, Note_on_c, 1, 64, 0
3, 55769, Note_on_c, 1, 59, 0
3, 55770, Note_on_c, 1, 64, 100
3, 55770, Note_on_c, 1, 59, 100
3, 55770, Note_on_c, 1, 66, 100
3, 55829, Note_on_c, 1, 66, 0
3, 55829, Note_on_c, 1, 59, 0
3, 55829, Note_on_c, 1, 64, 0
3, 55830, Note_on_c, 1, 66, 100
3, 55830, Note_on_c, 1, 59, 100
3, 55859, Note_on_c, 1, 59, 0
3, 55859, Note_on_c, 1, 66, 0
3, 55860, Note_on_c, 1, 66, 100
3, 55860, Note_on_c, 1, 59, 100
3, 55889, Note_on_c, 1, 59, 0
3, 55889, Note_on_c, 1, 66, 0
3, 55890, Note_on_c, 1, 66, 100
3, 55890, Note_on_c, 1, 59, 100
3, 55919, Note_on_c, 1, 59, 0
3, 55919, Note_on_c, 1, 66, 0
3, 55920, Note_on_c, 1, 66, 100
3, 55920, Note_on_c, 1, 59, 100
3, 55949, Note_on_c, 1, 59, 0
3, 55949, Note_on_c, 1, 66, 0
3, 55950, Note_on_c, 1, 66, 100
3, 55950, Note_on_c, 1, 59, 100
3, 55979, Note_on_c, 1, 59, 0
3, 55979, Note_on_c, 1, 66, 0
3, 55980, Note_on_c, 1, 66, 100
3, 55980, Note_on_c, 1, 59, 100
3, 56009, Note_on_c, 1, 59, 0
3, 56009, Note_on_c, 1, 66, 0
3, 56010, Note_on_c, 1, 66, 100
3, 56010, Note_on_c, 1, 59, 100
3, 56039, Note_on_c, 1, 59, 0
3, 56039, Note_on_c, 1, 66, 0
3, 56040, Note_on_c, 1, 66, 100
3, 56040, Note_on_c, 1, 59, 100
3, 56069, Note_on_c, 1, 59, 0
3, 56069, Note_on_c, 1, 66, 0
3, 56070, Note_on_c, 1, 66, 100
3, 56070, Note_on_c, 1, 59, 100
3, 56099, Note_on_c, 1, 59, 0
3, 56099, Note_on_c, 1, 66, 0
3, 56100, Note_on_c, 1, 66, 100
3, 56100, Note_on_c, 1, 59, 100
3, 56129, Note_on_c, 1, 59, 0
3, 56129, Note_on_c, 1, 66, 0
3, 56130, Note_on_c, 1, 66, 100
3, 56130, Note_on_c, 1, 59, 100
3, 56159, Note_on_c, 1, 59, 0
3, 56159, Note_on_c, 1, 66, 0
3, 56160, Note_on_c, 1, 63, 100
3, 56160, Note_on_c, 1, 59, 100
3, 56189, Note_on_c, 1, 63, 0
3, 56190, Note_on_c, 1, 64, 100
3, 56219, Note_on_c, 1, 64, 0
3, 56220, Note_on_c, 1, 66, 100
3, 56249, Note_on_c, 1, 66, 0
3, 56249, Note_on_c, 1, 59, 0
3, 56250, Note_on_c, 1, 59, 100
3, 56250, Note_on_c, 1, 66, 100
3, 56309, Note_on_c, 1, 66, 0
3, 56309, Note_on_c, 1, 59, 0
3, 56310, Note_on_c, 1, 66, 100
3, 56310, Note_on_c, 1, 59, 100
3, 56339, Note_on_c, 1, 59, 0
3, 56339, Note_on_c, 1, 66, 0
3, 56340, Note_on_c, 1, 66, 100
3, 56340, Note_on_c, 1, 59, 100
3, 56369, Note_on_c, 1, 59, 0
3, 56369, Note_on_c, 1, 66, 0
3, 56370, Note_on_c, 1, 66, 100
3, 56370, Note_on_c, 1, 59, 100
3, 56399, Note_on_c, 1, 59, 0
3, 56399, Note_on_c, 1, 66, 0
3, 56400, Note_on_c, 1, 66, 100
3, 56400, Note_on_c, 1, 59, 100
3, 56429, Note_on_c, 1, 59, 0
3, 56429, Note_on_c, 1, 66, 0
3, 56430, Note_on_c, 1, 66, 100
3, 56430, Note_on_c, 1, 59, 100
3, 56459, Note_on_c, 1, 59, 0
3, 56459, Note_on_c, 1, 66, 0
3, 56460, Note_on_c, 1, 66, 100
3, 56460, Note_on_c, 1, 59, 100
3, 56489, Note_on_c, 1, 59, 0
3, 56489, Note_on_c, 1, 66, 0
3, 56490, Note_on_c, 1, 66, 100
3, 56490, Note_on_c, 1, 59, 100
3, 56519, Note_on_c, 1, 59, 0
3, 56519, Note_on_c, 1, 66, 0
3, 56520, Note_on_c, 1, 66, 100
3, 56520, Note_on_c, 1, 59, 100
3, 56579, Note_on_c, 1, 59, 0
3, 56579, Note_on_c, 1, 66, 0
3, 56580, Note_on_c, 1, 69, 100
3, 56580, Note_on_c, 1, 64, 100
3, 56580, Note_on_c, 1, 61, 100
3, 56609, Note_on_c, 1, 61, 0
3, 56609, Note_on_c, 1, 64, 0
3, 56609, Note_on_c, 1, 69, 0
3, 56610, Note_on_c, 1, 69, 100
3, 56610, Note_on_c, 1, 64, 100
3, 56610, Note_on_c, 1, 61, 100
3, 56639, Note_on_c, 1, 61, 0
3, 56639, Note_on_c, 1, 64, 0
3, 56639, Note_on_c, 1, 69, 0
3, 56640, Note_on_c, 1, 61, 100
3, 56640, Note_on_c, 1, 64, 100
3, 56640, Note_on_c, 1, 69, 100
3, 56699, Note_on_c, 1, 69, 0
3, 56699, Note_on_c, 1, 64, 0
3, 56699, Note_on_c, 1, 61, 0
3, 56700, Note_on_c, 1, 59, 100
3, 56700, Note_on_c, 1, 64, 100
3, 56700, Note_on_c, 1, 68, 100
3, 56729, Note_on_c, 1, 68, 0
3, 56729, Note_on_c, 1, 64, 0
3, 56729, Note_on_c, 1, 59, 0
3, 56730, Note_on_c, 1, 59, 100
3, 56730, Note_on_c, 1, 64, 100
3, 56730, Note_on_c, 1, 68, 100
3, 56759, Note_on_c, 1, 68, 0
3, 56759, Note_on_c, 1, 64, 0
3, 56759, Note_on_c, 1, 59, 0
3, 56760, Note_on_c, 1, 59, 100
3, 56760, Note_on_c, 1, 64, 100
3, 56760, Note_on_c, 1, 68, 100
3, 56819, Note_on_c, 1, 68, 0
3, 56819, Note_on_c, 1, 64, 0
3, 56819, Note_on_c, 1, 59, 0
3, 56820, Note_on_c, 1, 64, 100
3, 56820, Note_on_c, 1, 68, 100
3, 56820, Note_on_c, 1, 59, 100
3, 56849, Note_on_c, 1, 59, 0
3, 56849, Note_on_c, 1, 68, 0
3, 56849, Note_on_c, 1, 64, 0
3, 56850, Note_on_c, 1, 64, 100
3, 56850, Note_on_c, 1, 68, 100
3, 56850, Note_on_c, 1, 59, 100
3, 56879, Note_on_c, 1, 59, 0
3, 56879, Note_on_c, 1, 68, 0
3, 56879, Note_on_c, 1, 64, 0
3, 56880, Note_on_c, 1, 68, 100
3, 56880, Note_on_c, 1, 64, 100
3, 56880, Note_on_c, 1, 59, 100
3, 56939, Note_on_c, 1, 59, 0
3, 56939, Note_on_c, 1, 64, 0
3, 56939, Note_on_c, 1, 68, 0
3, 56940, Note_on_c, 1, 64, 100
3, 56940, Note_on_c, 1, 66, 100
3, 56940, Note_on_c, 1, 59, 100
3, 56969, Note_on_c, 1, 59, 0
3, 56969, Note_on_c, 1, 66, 0
3, 56969, Note_on_c, 1, 64, 0
3, 56970, Note_on_c, 1, 64, 100
3, 56970, Note_on_c, 1, 66, 100
3, 56970, Note_on_c, 1, 59, 100
3, 56999, Note_on_c, 1, 59, 0
3, 56999, Note_on_c, 1, 66, 0
3, 56999, Note_on_c, 1, 64, 0
3, 57000, Note_on_c, 1, 64, 100
3, 57000, Note_on_c, 1, 66, 100
3, 57000, Note_on_c, 1, 59, 100
3, 57059, Note_on_c, 1, 59, 0
3, 57059, Note_on_c, 1, 66, 0
3, 57059, Note_on_c, 1, 64, 0
3, 57060, Note_on_c, 1, 64, 100
3, 57060, Note_on_c, 1, 59, 100
3, 57089, Note_on_c, 1, 59, 0
3, 57089, Note_on_c, 1, 64, 0
3, 57090, Note_on_c, 1, 64, 100
3, 57090, Note_on_c, 1, 59, 100
3, 57119, Note_on_c, 1, 59, 0
3, 57119, Note_on_c, 1, 64, 0
3, 57120, Control_c, 1, 7, 110
3, 57120, Note_on_c, 1, 63, 100
3, 57120, Note_on_c, 1, 59, 100
3, 57149, Note_on_c, 1, 63, 0
3, 57150, Note_on_c, 1, 64, 100
3, 57179, Note_on_c, 1, 64, 0
3, 57180, Note_on_c, 1, 66, 100
3, 57209, Note_on_c, 1, 66, 0
3, 57209, Note_on_c, 1, 59, 0
3, 57210, Note_on_c, 1, 59, 100
3, 57210, Note_on_c, 1, 66, 100
3, 57269, Note_on_c, 1, 66, 0
3, 57269, Note_on_c, 1, 59, 0
3, 57270, Note_on_c, 1, 66, 100
3, 57270, Note_on_c, 1, 59, 100
3, 57299, Note_on_c, 1, 59, 0
3, 57299, Note_on_c, 1, 66, 0
3, 57300, Note_on_c, 1, 66, 100
3, 57300, Note_on_c, 1, 59, 100
3, 57329, Note_on_c, 1, 59, 0
3, 57329, Note_on_c, 1, 66, 0
3, 57330, Note_on_c, 1, 66, 100
3, 57330, Note_on_c, 1, 59, 100
3, 57359, Note_on_c, 1, 59, 0
3, 57359, Note_on_c, 1, 66, 0
3, 57360, Note_on_c, 1, 66, 100
3, 57360, Note_on_c, 1, 59, 100
3, 57389, Note_on_c, 1, 59, 0
3, 57389, Note_on_c, 1, 66, 0
3, 57390, Note_on_c, 1, 66, 100
3, 57390, Note_on_c, 1, 59, 100
3, 57419, Note_on_c, 1, 59, 0
3, 57419, Note_on_c, 1, 66, 0
3, 57420, Note_on_c, 1, 66, 100
3, 57420, Note_on_c, 1, 59, 100
3, 57449, Note_on_c, 1, 59, 0
3, 57449, Note_on_c, 1, 66, 0
3, 57450, Note_on_c, 1, 66, 100
3, 57450, Note_on_c, 1, 59, 100
3, 57479, Note_on_c, 1, 59, 0
3, 57479, Note_on_c, 1, 66, 0
3, 57480, Note_on_c, 1, 66, 100
3, 57480, Note_on_c, 1, 59, 100
3, 57509, Note_on_c, 1, 59, 0
3, 57509, Note_on_c, 1, 66, 0
3, 57510, Note_on_c, 1, 66, 100
3, 57510, Note_on_c, 1, 59, 100
3, 57539, Note_on_c, 1, 59, 0
3, 57539, Note_on_c, 1, 66, 0
3, 57540, Note_on_c, 1, 66, 100
3, 57540, Note_on_c, 1, 59, 100
3, 57569, Note_on_c, 1, 59, 0
3, 57569, Note_on_c, 1, 66, 0
3, 57570, Note_on_c, 1, 66, 100
3, 57570, Note_on_c, 1, 59, 100
3, 57599, Note_on_c, 1, 59, 0
3, 57599, Note_on_c, 1, 66, 0
3, 57600, Note_on_c, 1, 64, 100
3, 57600, Note_on_c, 1, 68, 100
3, 57600, Note_on_c, 1, 59, 100
3, 57659, Note_on_c, 1, 68, 0
3, 57659, Note_on_c, 1, 64, 0
3, 57660, Note_on_c, 1, 64, 100
3, 57660, Note_on_c, 1, 66, 100
3, 57689, Note_on_c, 1, 66, 0
3, 57689, Note_on_c, 1, 64, 0
3, 57689, Note_on_c, 1, 59, 0
3, 57690, Note_on_c, 1, 64, 100
3, 57690, Note_on_c, 1, 59, 100
3, 57690, Note_on_c, 1, 66, 100
3, 57749, Note_on_c, 1, 66, 0
3, 57749, Note_on_c, 1, 59, 0
3, 57749, Note_on_c, 1, 64, 0
3, 57750, Note_on_c, 1, 66, 100
3, 57750, Note_on_c, 1, 59, 100
3, 57779, Note_on_c, 1, 59, 0
3, 57779, Note_on_c, 1, 66, 0
3, 57780, Note_on_c, 1, 66, 100
3, 57780, Note_on_c, 1, 59, 100
3, 57809, Note_on_c, 1, 59, 0
3, 57809, Note_on_c, 1, 66, 0
3, 57810, Note_on_c, 1, 66, 100
3, 57810, Note_on_c, 1, 59, 100
3, 57839, Note_on_c, 1, 59, 0
3, 57839, Note_on_c, 1, 66, 0
3, 57840, Note_on_c, 1, 66, 100
3, 57840, Note_on_c, 1, 59, 100
3, 57869, Note_on_c, 1, 59, 0
3, 57869, Note_on_c, 1, 66, 0
3, 57870, Note_on_c, 1, 66, 100
3, 57870, Note_on_c, 1, 59, 100
3, 57899, Note_on_c, 1, 59, 0
3, 57899, Note_on_c, 1, 66, 0
3, 57900, Note_on_c, 1, 66, 100
3, 57900, Note_on_c, 1, 59, 100
3, 57929, Note_on_c, 1, 59, 0
3, 57929, Note_on_c, 1, 66, 0
3, 57930, Note_on_c, 1, 66, 100
3, 57930, Note_on_c, 1, 59, 100
3, 57959, Note_on_c, 1, 59, 0
3, 57959, Note_on_c, 1, 66, 0
3, 57960, Note_on_c, 1, 66, 100
3, 57960, Note_on_c, 1, 59, 100
3, 57989, Note_on_c, 1, 59, 0
3, 57989, Note_on_c, 1, 66, 0
3, 57990, Note_on_c, 1, 66, 100
3, 57990, Note_on_c, 1, 59, 100
3, 58019, Note_on_c, 1, 59, 0
3, 58019, Note_on_c, 1, 66, 0
3, 58020, Note_on_c, 1, 66, 100
3, 58020, Note_on_c, 1, 59, 100
3, 58049, Note_on_c, 1, 59, 0
3, 58049, Note_on_c, 1, 66, 0
3, 58050, Note_on_c, 1, 66, 100
3, 58050, Note_on_c, 1, 59, 100
3, 58079, Note_on_c, 1, 59, 0
3, 58079, Note_on_c, 1, 66, 0
3, 58080, Note_on_c, 1, 63, 100
3, 58080, Note_on_c, 1, 59, 100
3, 58109, Note_on_c, 1, 63, 0
3, 58110, Note_on_c, 1, 64, 100
3, 58139, Note_on_c, 1, 64, 0
3, 58140, Note_on_c, 1, 66, 100
3, 58169, Note_on_c, 1, 66, 0
3, 58169, Note_on_c, 1, 59, 0
3, 58170, Note_on_c, 1, 59, 100
3, 58170, Note_on_c, 1, 66, 100
3, 58229, Note_on_c, 1, 66, 0
3, 58229, Note_on_c, 1, 59, 0
3, 58230, Note_on_c, 1, 66, 100
3, 58230, Note_on_c, 1, 59, 100
3, 58259, Note_on_c, 1, 59, 0
3, 58259, Note_on_c, 1, 66, 0
3, 58260, Note_on_c, 1, 66, 100
3, 58260, Note_on_c, 1, 59, 100
3, 58289, Note_on_c, 1, 59, 0
3, 58289, Note_on_c, 1, 66, 0
3, 58290, Note_on_c, 1, 66, 100
3, 58290, Note_on_c, 1, 59, 100
3, 58319, Note_on_c, 1, 59, 0
3, 58319, Note_on_c, 1, 66, 0
3, 58320, Note_on_c, 1, 66, 100
3, 58320, Note_on_c, 1, 59, 100
3, 58349, Note_on_c, 1, 59, 0
3, 58349, Note_on_c, 1, 66, 0
3, 58350, Note_on_c, 1, 66, 100
3, 58350, Note_on_c, 1, 59, 100
3, 58379, Note_on_c, 1, 59, 0
3, 58379, Note_on_c, 1, 66, 0
3, 58380, Note_on_c, 1, 66, 100
3, 58380, Note_on_c, 1, 59, 100
3, 58409, Note_on_c, 1, 59, 0
3, 58409, Note_on_c, 1, 66, 0
3, 58410, Note_on_c, 1, 66, 100
3, 58410, Note_on_c, 1, 59, 100
3, 58439, Note_on_c, 1, 59, 0
3, 58439, Note_on_c, 1, 66, 0
3, 58440, Note_on_c, 1, 66, 100
3, 58440, Note_on_c, 1, 59, 100
3, 58499, Note_on_c, 1, 59, 0
3, 58499, Note_on_c, 1, 66, 0
3, 58500, Note_on_c, 1, 69, 100
3, 58500, Note_on_c, 1, 64, 100
3, 58500, Note_on_c, 1, 61, 100
3, 58529, Note_on_c, 1, 61, 0
3, 58529, Note_on_c, 1, 64, 0
3, 58529, Note_on_c, 1, 69, 0
3, 58530, Note_on_c, 1, 69, 100
3, 58530, Note_on_c, 1, 64, 100
3, 58530, Note_on_c, 1, 61, 100
3, 58559, Note_on_c, 1, 61, 0
3, 58559, Note_on_c, 1, 64, 0
3, 58559, Note_on_c, 1, 69, 0
3, 58560, Note_on_c, 1, 61, 100
3, 58560, Note_on_c, 1, 64, 100
3, 58560, Note_on_c, 1, 69, 100
3, 58619, Note_on_c, 1, 69, 0
3, 58619, Note_on_c, 1, 64, 0
3, 58619, Note_on_c, 1, 61, 0
3, 58620, Note_on_c, 1, 59, 100
3, 58620, Note_on_c, 1, 64, 100
3, 58620, Note_on_c, 1, 68, 100
3, 58649, Note_on_c, 1, 68, 0
3, 58649, Note_on_c, 1, 64, 0
3, 58649, Note_on_c, 1, 59, 0
3, 58650, Note_on_c, 1, 59, 100
3, 58650, Note_on_c, 1, 64, 100
3, 58650, Note_on_c, 1, 68, 100
3, 58679, Note_on_c, 1, 68, 0
3, 58679, Note_on_c, 1, 64, 0
3, 58679, Note_on_c, 1, 59, 0
3, 58680, Note_on_c, 1, 59, 100
3, 58680, Note_on_c, 1, 64, 100
3, 58680, Note_on_c, 1, 68, 100
3, 58739, Note_on_c, 1, 68, 0
3, 58739, Note_on_c, 1, 64, 0
3, 58739, Note_on_c, 1, 59, 0
3, 58740, Note_on_c, 1, 64, 100
3, 58740, Note_on_c, 1, 68, 100
3, 58740, Note_on_c, 1, 59, 100
3, 58769, Note_on_c, 1, 59, 0
3, 58769, Note_on_c, 1, 68, 0
3, 58769, Note_on_c, 1, 64, 0
3, 58770, Note_on_c, 1, 64, 100
3, 58770, Note_on_c, 1, 68, 100
3, 58770, Note_on_c, 1, 59, 100
3, 58799, Note_on_c, 1, 59, 0
3, 58799, Note_on_c, 1, 68, 0
3, 58799, Note_on_c, 1, 64, 0
3, 58800, Note_on_c, 1, 68, 100
3, 58800, Note_on_c, 1, 64, 100
3, 58800, Note_on_c, 1, 59, 100
3, 58859, Note_on_c, 1, 59, 0
3, 58859, Note_on_c, 1, 64, 0
3, 58859, Note_on_c, 1, 68, 0
3, 58860, Note_on_c, 1, 64, 100
3, 58860, Note_on_c, 1, 66, 100
3, 58860, Note_on_c, 1, 59, 100
3, 58889, Note_on_c, 1, 59, 0
3, 58889, Note_on_c, 1, 66, 0
3, 58889, Note_on_c, 1, 64, 0
3, 58890, Note_on_c, 1, 64, 100
3, 58890, Note_on_c, 1, 66, 100
3, 58890, Note_on_c, 1, 59, 100
3, 58919, Note_on_c, 1, 59, 0
3, 58919, Note_on_c, 1, 66, 0
3, 58919, Note_on_c, 1, 64, 0
3, 58920, Note_on_c, 1, 64, 100
3, 58920, Note_on_c, 1, 66, 100
3, 58920, Note_on_c, 1, 59, 100
3, 58979, Note_on_c, 1, 59, 0
3, 58979, Note_on_c, 1, 66, 0
3, 58979, Note_on_c, 1, 64, 0
3, 58980, Note_on_c, 1, 64, 100
3, 58980, Note_on_c, 1, 59, 100
3, 59009, Note_on_c, 1, 59, 0
3, 59009, Note_on_c, 1, 64, 0
3, 59010, Note_on_c, 1, 64, 100
3, 59010, Note_on_c, 1, 59, 100
3, 59039, Note_on_c, 1, 59, 0
3, 59039, Note_on_c, 1, 64, 0
3, 59040, Control_c, 1, 7, 110
3, 59040, Note_on_c, 1, 63, 100
3, 59040, Note_on_c, 1, 59, 100
3, 59057, Control_c, 1, 7, 109
3, 59069, Note_on_c, 1, 63, 0
3, 59070, Note_on_c, 1, 64, 100
3, 59074, Control_c, 1, 7, 108
3, 59092, Control_c, 1, 7, 107
3, 59099, Note_on_c, 1, 64, 0
3, 59100, Note_on_c, 1, 66, 100
3, 59109, Control_c, 1, 7, 106
3, 59127, Control_c, 1, 7, 105
3, 59129, Note_on_c, 1, 66, 0
3, 59129, Note_on_c, 1, 59, 0
3, 59130, Note_on_c, 1, 59, 100
3, 59130, Note_on_c, 1, 66, 100
3, 59144, Control_c, 1, 7, 104
3, 59162, Control_c, 1, 7, 103
3, 59179, Control_c, 1, 7, 102
3, 59189, Note_on_c, 1, 66, 0
3, 59189, Note_on_c, 1, 59, 0
3, 59190, Note_on_c, 1, 66, 100
3, 59190, Note_on_c, 1, 59, 100
3, 59197, Control_c, 1, 7, 101
3, 59214, Control_c, 1, 7, 100
3, 59219, Note_on_c, 1, 59, 0
3, 59219, Note_on_c, 1, 66, 0
3, 59220, Note_on_c, 1, 66, 100
3, 59220, Note_on_c, 1, 59, 100
3, 59231, Control_c, 1, 7, 99
3, 59249, Note_on_c, 1, 59, 0
3, 59249, Note_on_c, 1, 66, 0
3, 59249, Control_c, 1, 7, 98
3, 59250, Note_on_c, 1, 66, 100
3, 59250, Note_on_c, 1, 59, 100
3, 59266, Control_c, 1, 7, 97
3, 59279, Note_on_c, 1, 59, 0
3, 59279, Note_on_c, 1, 66, 0
3, 59280, Note_on_c, 1, 66, 100
3, 59280, Note_on_c, 1, 59, 100
3, 59284, Control_c, 1, 7, 96
3, 59301, Control_c, 1, 7, 95
3, 59309, Note_on_c, 1, 59, 0
3, 59309, Note_on_c, 1, 66, 0
3, 59310, Note_on_c, 1, 66, 100
3, 59310, Note_on_c, 1, 59, 100
3, 59319, Control_c, 1, 7, 94
3, 59336, Control_c, 1, 7, 93
3, 59339, Note_on_c, 1, 59, 0
3, 59339, Note_on_c, 1, 66, 0
3, 59340, Note_on_c, 1, 66, 100
3, 59340, Note_on_c, 1, 59, 100
3, 59354, Control_c, 1, 7, 92
3, 59369, Note_on_c, 1, 59, 0
3, 59369, Note_on_c, 1, 66, 0
3, 59370, Note_on_c, 1, 66, 100
3, 59370, Note_on_c, 1, 59, 100
3, 59371, Control_c, 1, 7, 91
3, 59388, Control_c, 1, 7, 90
3, 59399, Note_on_c, 1, 59, 0
3, 59399, Note_on_c, 1, 66, 0
3, 59400, Note_on_c, 1, 66, 100
3, 59400, Note_on_c, 1, 59, 100
3, 59406, Control_c, 1, 7, 89
3, 59423, Control_c, 1, 7, 88
3, 59429, Note_on_c, 1, 59, 0
3, 59429, Note_on_c, 1, 66, 0
3, 59430, Note_on_c, 1, 66, 100
3, 59430, Note_on_c, 1, 59, 100
3, 59441, Control_c, 1, 7, 87
3, 59458, Control_c, 1, 7, 86
3, 59459, Note_on_c, 1, 59, 0
3, 59459, Note_on_c, 1, 66, 0
3, 59460, Note_on_c, 1, 66, 100
3, 59460, Note_on_c, 1, 59, 100
3, 59476, Control_c, 1, 7, 85
3, 59489, Note_on_c, 1, 59, 0
3, 59489, Note_on_c, 1, 66, 0
3, 59490, Note_on_c, 1, 66, 100
3, 59490, Note_on_c, 1, 59, 100
3, 59493, Control_c, 1, 7, 84
3, 59511, Control_c, 1, 7, 83
3, 59519, Note_on_c, 1, 59, 0
3, 59519, Note_on_c, 1, 66, 0
3, 59520, Note_on_c, 1, 64, 100
3, 59520, Note_on_c, 1, 68, 100
3, 59520, Note_on_c, 1, 59, 100
3, 59528, Control_c, 1, 7, 82
3, 59545, Control_c, 1, 7, 81
3, 59563, Control_c, 1, 7, 80
3, 59579, Note_on_c, 1, 68, 0
3, 59579, Note_on_c, 1, 64, 0
3, 59580, Control_c, 1, 7, 79
3, 59580, Note_on_c, 1, 64, 100
3, 59580, Note_on_c, 1, 66, 100
3, 59598, Control_c, 1, 7, 78
3, 59609, Note_on_c, 1, 66, 0
3, 59609, Note_on_c, 1, 64, 0
3, 59609, Note_on_c, 1, 59, 0
3, 59610, Note_on_c, 1, 64, 100
3, 59610, Note_on_c, 1, 59, 100
3, 59610, Note_on_c, 1, 66, 100
3, 59615, Control_c, 1, 7, 77
3, 59633, Control_c, 1, 7, 76
3, 59650, Control_c, 1, 7, 75
3, 59668, Control_c, 1, 7, 74
3, 59669, Note_on_c, 1, 66, 0
3, 59669, Note_on_c, 1, 59, 0
3, 59669, Note_on_c, 1, 64, 0
3, 59670, Note_on_c, 1, 66, 100
3, 59670, Note_on_c, 1, 59, 100
3, 59685, Control_c, 1, 7, 73
3, 59699, Note_on_c, 1, 59, 0
3, 59699, Note_on_c, 1, 66, 0
3, 59700, Note_on_c, 1, 66, 100
3, 59700, Note_on_c, 1, 59, 100
3, 59702, Control_c, 1, 7, 72
3, 59720, Control_c, 1, 7, 71
3, 59729, Note_on_c, 1, 59, 0
3, 59729, Note_on_c, 1, 66, 0
3, 59730, Note_on_c, 1, 66, 100
3, 59730, Note_on_c, 1, 59, 100
3, 59737, Control_c, 1, 7, 70
3, 59755, Control_c, 1, 7, 69
3, 59759, Note_on_c, 1, 59, 0
3, 59759, Note_on_c, 1, 66, 0
3, 59760, Note_on_c, 1, 66, 100
3, 59760, Note_on_c, 1, 59, 100
3, 59772, Control_c, 1, 7, 68
3, 59789, Note_on_c, 1, 59, 0
3, 59789, Note_on_c, 1, 66, 0
3, 59790, Control_c, 1, 7, 67
3, 59790, Note_on_c, 1, 66, 100
3, 59790, Note_on_c, 1, 59, 100
3, 59807, Control_c, 1, 7, 66
3, 59819, Note_on_c, 1, 59, 0
3, 59819, Note_on_c, 1, 66, 0
3, 59820, Note_on_c, 1, 66, 100
3, 59820, Note_on_c, 1, 59, 100
3, 59825, Control_c, 1, 7, 65
3, 59842, Control_c, 1, 7, 64
3, 59849, Note_on_c, 1, 59, 0
3, 59849, Note_on_c, 1, 66, 0
3, 59850, Note_on_c, 1, 66, 100
3, 59850, Note_on_c, 1, 59, 100
3, 59859, Control_c, 1, 7, 63
3, 59877, Control_c, 1, 7, 62
3, 59879, Note_on_c, 1, 59, 0
3, 59879, Note_on_c, 1, 66, 0
3, 59880, Note_on_c, 1, 66, 100
3, 59880, Note_on_c, 1, 59, 100
3, 59894, Control_c, 1, 7, 61
3, 59909, Note_on_c, 1, 59, 0
3, 59909, Note_on_c, 1, 66, 0
3, 59910, Note_on_c, 1, 66, 100
3, 59910, Note_on_c, 1, 59, 100
3, 59912, Control_c, 1, 7, 60
3, 59929, Control_c, 1, 7, 59
3, 59939, Note_on_c, 1, 59, 0
3, 59939, Note_on_c, 1, 66, 0
3, 59940, Note_on_c, 1, 66, 100
3, 59940, Note_on_c, 1, 59, 100
3, 59947, Control_c, 1, 7, 58
3, 59964, Control_c, 1, 7, 57
3, 59969, Note_on_c, 1, 59, 0
3, 59969, Note_on_c, 1, 66, 0
3, 59970, Note_on_c, 1, 66, 100
3, 59970, Note_on_c, 1, 59, 100
3, 59982, Control_c, 1, 7, 56
3, 59999, Note_on_c, 1, 59, 0
3, 59999, Note_on_c, 1, 66, 0
3, 59999, Control_c, 1, 7, 55
3, 60000, Note_on_c, 1, 63, 100
3, 60000, Note_on_c, 1, 59, 100
3, 60016, Control_c, 1, 7, 54
3, 60029, Note_on_c, 1, 63, 0
3, 60030, Note_on_c, 1, 64, 100
3, 60034, Control_c, 1, 7, 53
3, 60051, Control_c, 1, 7, 52
3, 60059, Note_on_c, 1, 64, 0
3, 60060, Note_on_c, 1, 66, 100
3, 60069, Control_c, 1, 7, 51
3, 60086, Control_c, 1, 7, 50
3, 60089, Note_on_c, 1, 66, 0
3, 60089, Note_on_c, 1, 59, 0
3, 60090, Note_on_c, 1, 59, 100
3, 60090, Note_on_c, 1, 66, 100
3, 60104, Control_c, 1, 7, 49
3, 60121, Control_c, 1, 7, 48
3, 60139, Control_c, 1, 7, 47
3, 60149, Note_on_c, 1, 66, 0
3, 60149, Note_on_c, 1, 59, 0
3, 60150, Note_on_c, 1, 66, 100
3, 60150, Note_on_c, 1, 59, 100
3, 60156, Control_c, 1, 7, 46
3, 60173, Control_c, 1, 7, 45
3, 60179, Note_on_c, 1, 59, 0
3, 60179, Note_on_c, 1, 66, 0
3, 60180, Note_on_c, 1, 66, 100
3, 60180, Note_on_c, 1, 59, 100
3, 60191, Control_c, 1, 7, 44
3, 60208, Control_c, 1, 7, 43
3, 60209, Note_on_c, 1, 59, 0
3, 60209, Note_on_c, 1, 66, 0
3, 60210, Note_on_c, 1, 66, 100
3, 60210, Note_on_c, 1, 59, 100
3, 60226, Control_c, 1, 7, 42
3, 60239, Note_on_c, 1, 59, 0
3, 60239, Note_on_c, 1, 66, 0
3, 60240, Note_on_c, 1, 66, 100
3, 60240, Note_on_c, 1, 59, 100
3, 60243, Control_c, 1, 7, 41
3, 60261, Control_c, 1, 7, 40
3, 60269, Note_on_c, 1, 59, 0
3, 60269, Note_on_c, 1, 66, 0
3, 60270, Note_on_c, 1, 66, 100
3, 60270, Note_on_c, 1, 59, 100
3, 60278, Control_c, 1, 7, 39
3, 60296, Control_c, 1, 7, 38
3, 60299, Note_on_c, 1, 59, 0
3, 60299, Note_on_c, 1, 66, 0
3, 60300, Note_on_c, 1, 66, 100
3, 60300, Note_on_c, 1, 59, 100
3, 60313, Control_c, 1, 7, 37
3, 60329, Note_on_c, 1, 59, 0
3, 60329, Note_on_c, 1, 66, 0
3, 60330, Control_c, 1, 7, 36
3, 60330, Note_on_c, 1, 66, 100
3, 60330, Note_on_c, 1, 59, 100
3, 60348, Control_c, 1, 7, 35
3, 60359, Note_on_c, 1, 59, 0
3, 60359, Note_on_c, 1, 66, 0
3, 60360, Note_on_c, 1, 66, 100
3, 60360, Note_on_c, 1, 59, 100
3, 60365, Control_c, 1, 7, 34
3, 60383, Control_c, 1, 7, 33
3, 60400, Control_c, 1, 7, 32
3, 60418, Control_c, 1, 7, 31
3, 60419, Note_on_c, 1, 59, 0
3, 60419, Note_on_c, 1, 66, 0
3, 60420, Note_on_c, 1, 69, 100
3, 60420, Note_on_c, 1, 64, 100
3, 60420, Note_on_c, 1, 61, 100
3, 60435, Control_c, 1, 7, 30
3, 60449, Note_on_c, 1, 61, 0
3, 60449, Note_on_c, 1, 64, 0
3, 60449, Note_on_c, 1, 69, 0
3, 60450, Note_on_c, 1, 69, 100
3, 60450, Note_on_c, 1, 64, 100
3, 60450, Note_on_c, 1, 61, 100
3, 60453, Control_c, 1, 7, 29
3, 60470, Control_c, 1, 7, 28
3, 60479, Note_on_c, 1, 61, 0
3, 60479, Note_on_c, 1, 64, 0
3, 60479, Note_on_c, 1, 69, 0
3, 60480, Note_on_c, 1, 61, 100
3, 60480, Note_on_c, 1, 64, 100
3, 60480, Note_on_c, 1, 69, 100
3, 60487, Control_c, 1, 7, 27
3, 60505, Control_c, 1, 7, 26
3, 60522, Control_c, 1, 7, 25
3, 60539, Note_on_c, 1, 69, 0
3, 60539, Note_on_c, 1, 64, 0
3, 60539, Note_on_c, 1, 61, 0
3, 60540, Control_c, 1, 7, 24
3, 60540, Note_on_c, 1, 59, 100
3, 60540, Note_on_c, 1, 64, 100
3, 60540, Note_on_c, 1, 68, 100
3, 60557, Control_c, 1, 7, 23
3, 60569, Note_on_c, 1, 68, 0
3, 60569, Note_on_c, 1, 64, 0
3, 60569, Note_on_c, 1, 59, 0
3, 60570, Note_on_c, 1, 59, 100
3, 60570, Note_on_c, 1, 64, 100
3, 60570, Note_on_c, 1, 68, 100
3, 60575, Control_c, 1, 7, 22
3, 60592, Control_c, 1, 7, 21
3, 60599, Note_on_c, 1, 68, 0
3, 60599, Note_on_c, 1, 64, 0
3, 60599, Note_on_c, 1, 59, 0
3, 60600, Note_on_c, 1, 59, 100
3, 60600, Note_on_c, 1, 64, 100
3, 60600, Note_on_c, 1, 68, 100
3, 60610, Control_c, 1, 7, 20
3, 60627, Control_c, 1, 7, 19
3, 60644, Control_c, 1, 7, 18
3, 60659, Note_on_c, 1, 68, 0
3, 60659, Note_on_c, 1, 64, 0
3, 60659, Note_on_c, 1, 59, 0
3, 60660, Note_on_c, 1, 64, 100
3, 60660, Note_on_c, 1, 68, 100
3, 60660, Note_on_c, 1, 59, 100
3, 60662, Control_c, 1, 7, 17
3, 60679, Control_c, 1, 7, 16
3, 60689, Note_on_c, 1, 59, 0
3, 60689, Note_on_c, 1, 68, 0
3, 60689, Note_on_c, 1, 64, 0
3, 60690, Note_on_c, 1, 64, 100
3, 60690, Note_on_c, 1, 68, 100
3, 60690, Note_on_c, 1, 59, 100
3, 60697, Control_c, 1, 7, 15
3, 60714, Control_c, 1, 7, 14
3, 60719, Note_on_c, 1, 59, 0
3, 60719, Note_on_c, 1, 68, 0
3, 60719, Note_on_c, 1, 64, 0
3, 60720, Note_on_c, 1, 68, 100
3, 60720, Note_on_c, 1, 64, 100
3, 60720, Note_on_c, 1, 59, 100
3, 60732, Control_c, 1, 7, 13
3, 60749, Control_c, 1, 7, 12
3, 60767, Control_c, 1, 7, 11
3, 60779, Note_on_c, 1, 59, 0
3, 60779, Note_on_c, 1, 64, 0
3, 60779, Note_on_c, 1, 68, 0
3, 60780, Note_on_c, 1, 64, 100
3, 60780, Note_on_c, 1, 66, 100
3, 60780, Note_on_c, 1, 59, 100
3, 60784, Control_c, 1, 7, 10
3, 60801, Control_c, 1, 7, 9
3, 60809, Note_on_c, 1, 59, 0
3, 60809, Note_on_c, 1, 66, 0
3, 60809, Note_on_c, 1, 64, 0
3, 60810, Note_on_c, 1, 64, 100
3, 60810, Note_on_c, 1, 66, 100
3, 60810, Note_on_c, 1, 59, 100
3, 60819, Control_c, 1, 7, 8
3, 60836, Control_c, 1, 7, 7
3, 60839, Note_on_c, 1, 59, 0
3, 60839, Note_on_c, 1, 66, 0
3, 60839, Note_on_c, 1, 64, 0
3, 60840, Note_on_c, 1, 64, 100
3, 60840, Note_on_c, 1, 66, 100
3, 60840, Note_on_c, 1, 59, 100
3, 60854, Control_c, 1, 7, 6
3, 60871, Control_c, 1, 7, 5
3, 60889, Control_c, 1, 7, 4
3, 60899, Note_on_c, 1, 59, 0
3, 60899, Note_on_c, 1, 66, 0
3, 60899, Note_on_c, 1, 64, 0
3, 60900, Note_on_c, 1, 64, 100
3, 60900, Note_on_c, 1, 59, 100
3, 60906, Control_c, 1, 7, 3
3, 60924, Control_c, 1, 7, 2
3, 60929, Note_on_c, 1, 59, 0
3, 60929, Note_on_c, 1, 64, 0
3, 60930, Note_on_c, 1, 64, 100
3, 60930, Note_on_c, 1, 59, 100
3, 60941, Control_c, 1, 7, 1
3, 60959, Note_on_c, 1, 59, 0
3, 60959, Note_on_c, 1, 64, 0
3, 60959, Control_c, 1, 7, 0
3, 60959, End_track
4, 0, Start_track
4, 0, MIDI_port, 0
4, 0, Title_t, "Guitar"
4, 0, Program_c, 2, 29
4, 0, Control_c, 2, 7, 100
4, 0, Control_c, 2, 7, 50
4, 52, Control_c, 2, 7, 51
4, 105, Control_c, 2, 7, 52
4, 158, Control_c, 2, 7, 53
4, 211, Control_c, 2, 7, 54
4, 240, Note_on_c, 2, 56, 100
4, 264, Control_c, 2, 7, 55
4, 299, Note_on_c, 2, 56, 0
4, 300, Note_on_c, 2, 59, 100
4, 316, Control_c, 2, 7, 56
4, 369, Control_c, 2, 7, 57
4, 419, Note_on_c, 2, 59, 0
4, 420, Note_on_c, 2, 61, 100
4, 422, Control_c, 2, 7, 58
4, 449, Note_on_c, 2, 61, 0
4, 450, Note_on_c, 2, 63, 100
4, 475, Control_c, 2, 7, 59
4, 479, Note_on_c, 2, 63, 0
4, 480, Note_on_c, 2, 61, 100
4, 528, Control_c, 2, 7, 60
4, 569, Note_on_c, 2, 61, 0
4, 570, Note_on_c, 2, 59, 100
4, 580, Control_c, 2, 7, 61
4, 599, Note_on_c, 2, 59, 0
4, 600, Note_on_c, 2, 66, 100
4, 633, Control_c, 2, 7, 62
4, 686, Control_c, 2, 7, 63
4, 739, Control_c, 2, 7, 64
4, 779, Note_on_c, 2, 66, 0
4, 780, Note_on_c, 2, 68, 100
4, 792, Control_c, 2, 7, 65
4, 809, Note_on_c, 2, 68, 0
4, 810, Note_on_c, 2, 71, 100
4, 844, Control_c, 2, 7, 66
4, 897, Control_c, 2, 7, 67
4, 899, Note_on_c, 2, 71, 0
4, 900, Note_on_c, 2, 73, 100
4, 950, Control_c, 2, 7, 68
4, 959, Note_on_c, 2, 73, 0
4, 960, Note_on_c, 2, 71, 100
4, 1003, Control_c, 2, 7, 69
4, 1019, Note_on_c, 2, 71, 0
4, 1020, Note_on_c, 2, 73, 100
4, 1056, Control_c, 2, 7, 70
4, 1108, Control_c, 2, 7, 71
4, 1139, Note_on_c, 2, 73, 0
4, 1140, Note_on_c, 2, 71, 100
4, 1161, Control_c, 2, 7, 72
4, 1214, Control_c, 2, 7, 73
4, 1259, Note_on_c, 2, 71, 0
4, 1260, Note_on_c, 2, 73, 100
4, 1267, Control_c, 2, 7, 74
4, 1319, Note_on_c, 2, 73, 0
4, 1320, Control_c, 2, 7, 75
4, 1320, Note_on_c, 2, 66, 100
4, 1372, Control_c, 2, 7, 76
4, 1425, Control_c, 2, 7, 77
4, 1478, Control_c, 2, 7, 78
4, 1531, Control_c, 2, 7, 79
4, 1584, Control_c, 2, 7, 80
4, 1636, Control_c, 2, 7, 81
4, 1689, Control_c, 2, 7, 82
4, 1742, Control_c, 2, 7, 83
4, 1795, Control_c, 2, 7, 84
4, 1799, Note_on_c, 2, 66, 0
4, 1848, Control_c, 2, 7, 85
4, 1860, Note_on_c, 2, 63, 100
4, 1889, Note_on_c, 2, 63, 0
4, 1890, Note_on_c, 2, 61, 100
4, 1900, Control_c, 2, 7, 86
4, 1953, Control_c, 2, 7, 87
4, 1979, Note_on_c, 2, 61, 0
4, 1980, Note_on_c, 2, 59, 100
4, 2006, Control_c, 2, 7, 88
4, 2009, Note_on_c, 2, 59, 0
4, 2010, Note_on_c, 2, 61, 100
4, 2039, Note_on_c, 2, 61, 0
4, 2040, Note_on_c, 2, 59, 100
4, 2059, Control_c, 2, 7, 89
4, 2112, Control_c, 2, 7, 90
4, 2129, Note_on_c, 2, 59, 0
4, 2130, Note_on_c, 2, 59, 100
4, 2159, Note_on_c, 2, 59, 0
4, 2160, Note_on_c, 2, 56, 100
4, 2164, Control_c, 2, 7, 91
4, 2217, Control_c, 2, 7, 92
4, 2270, Control_c, 2, 7, 93
4, 2279, Note_on_c, 2, 56, 0
4, 2280, Note_on_c, 2, 64, 100
4, 2323, Control_c, 2, 7, 94
4, 2369, Note_on_c, 2, 64, 0
4, 2370, Note_on_c, 2, 68, 100
4, 2376, Control_c, 2, 7, 95
4, 2399, Note_on_c, 2, 68, 0
4, 2400, Note_on_c, 2, 66, 100
4, 2428, Control_c, 2, 7, 96
4, 2459, Note_on_c, 2, 66, 0
4, 2460, Note_on_c, 2, 68, 100
4, 2481, Control_c, 2, 7, 97
4, 2520, Note_on_c, 2, 71, 100
4, 2534, Control_c, 2, 7, 98
4, 2587, Control_c, 2, 7, 99
4, 2639, Note_on_c, 2, 71, 0
4, 2639, Note_on_c, 2, 68, 0
4, 2640, Control_c, 2, 7, 100
4, 2640, Note_on_c, 2, 66, 100
4, 2640, Note_on_c, 2, 78, 100
4, 3840, Control_c, 2, 7, 100
4, 3876, Control_c, 2, 7, 99
4, 3912, Control_c, 2, 7, 98
4, 3948, Control_c, 2, 7, 97
4, 3984, Control_c, 2, 7, 96
4, 4020, Control_c, 2, 7, 95
4, 4056, Control_c, 2, 7, 94
4, 4092, Control_c, 2, 7, 93
4, 4128, Control_c, 2, 7, 92
4, 4164, Control_c, 2, 7, 91
4, 4200, Control_c, 2, 7, 90
4, 4236, Control_c, 2, 7, 89
4, 4272, Control_c, 2, 7, 88
4, 4308, Control_c, 2, 7, 87
4, 4799, Note_on_c, 2, 78, 0
4, 4799, Note_on_c, 2, 66, 0
4, 14400, Note_on_c, 2, 63, 100
4, 14459, Note_on_c, 2, 63, 0
4, 14460, Note_on_c, 2, 61, 100
4, 14579, Note_on_c, 2, 61, 0
4, 14580, Note_on_c, 2, 61, 100
4, 14639, Note_on_c, 2, 61, 0
4, 14640, Note_on_c, 2, 61, 100
4, 14699, Note_on_c, 2, 61, 0
4, 14700, Note_on_c, 2, 59, 100
4, 14879, Note_on_c, 2, 59, 0
4, 25920, Note_on_c, 2, 63, 100
4, 25979, Note_on_c, 2, 63, 0
4, 25980, Note_on_c, 2, 61, 100
4, 26099, Note_on_c, 2, 61, 0
4, 26100, Note_on_c, 2, 61, 100
4, 26159, Note_on_c, 2, 61, 0
4, 26160, Note_on_c, 2, 61, 100
4, 26219, Note_on_c, 2, 61, 0
4, 26220, Note_on_c, 2, 59, 100
4, 26399, Note_on_c, 2, 59, 0
4, 41280, Note_on_c, 2, 63, 100
4, 41339, Note_on_c, 2, 63, 0
4, 41340, Note_on_c, 2, 61, 100
4, 41459, Note_on_c, 2, 61, 0
4, 41460, Note_on_c, 2, 61, 100
4, 41519, Note_on_c, 2, 61, 0
4, 41520, Note_on_c, 2, 61, 100
4, 41579, Note_on_c, 2, 61, 0
4, 41580, Note_on_c, 2, 59, 100
4, 41759, Note_on_c, 2, 59, 0
4, 41759, End_track
5, 0, Start_track
5, 0, MIDI_port, 0
5, 0, Title_t, "Syn"
5, 0, Program_c, 3, 51
5, 0, Control_c, 3, 7, 55
5, 0, Note_on_c, 3, 35, 100
5, 0, Control_c, 3, 7, 50
5, 0, Note_on_c, 3, 42, 100
5, 0, Note_on_c, 3, 47, 100
5, 62, Control_c, 3, 7, 51
5, 124, Control_c, 3, 7, 52
5, 187, Control_c, 3, 7, 53
5, 249, Control_c, 3, 7, 54
5, 312, Control_c, 3, 7, 55
5, 374, Control_c, 3, 7, 56
5, 436, Control_c, 3, 7, 57
5, 479, Note_on_c, 3, 47, 0
5, 479, Note_on_c, 3, 42, 0
5, 479, Note_on_c, 3, 35, 0
5, 480, Note_on_c, 3, 52, 100
5, 480, Note_on_c, 3, 47, 100
5, 480, Note_on_c, 3, 40, 100
5, 499, Control_c, 3, 7, 58
5, 561, Control_c, 3, 7, 59
5, 624, Control_c, 3, 7, 60
5, 686, Control_c, 3, 7, 61
5, 748, Control_c, 3, 7, 62
5, 811, Control_c, 3, 7, 63
5, 873, Control_c, 3, 7, 64
5, 936, Control_c, 3, 7, 65
5, 959, Note_on_c, 3, 40, 0
5, 959, Note_on_c, 3, 47, 0
5, 959, Note_on_c, 3, 52, 0
5, 960, Note_on_c, 3, 57, 100
5, 960, Note_on_c, 3, 42, 100
5, 998, Control_c, 3, 7, 66
5, 1060, Control_c, 3, 7, 67
5, 1079, Note_on_c, 3, 57, 0
5, 1080, Note_on_c, 3, 56, 100
5, 1123, Control_c, 3, 7, 68
5, 1185, Control_c, 3, 7, 69
5, 1199, Note_on_c, 3, 56, 0
5, 1199, Note_on_c, 3, 42, 0
5, 1200, Note_on_c, 3, 40, 100
5, 1200, Note_on_c, 3, 54, 100
5, 1248, Control_c, 3, 7, 70
5, 1319, Note_on_c, 3, 54, 0
5, 1319, Note_on_c, 3, 40, 0
5, 1320, Note_on_c, 3, 54, 100
5, 1320, Note_on_c, 3, 47, 100
5, 1440, Note_on_c, 3, 35, 100
5, 1679, Note_on_c, 3, 54, 0
5, 1680, Note_on_c, 3, 54, 100
5, 1680, Note_on_c, 3, 59, 100
5, 1680, Note_on_c, 3, 63, 100
5, 1799, Note_on_c, 3, 63, 0
5, 1799, Note_on_c, 3, 54, 0
5, 1799, Note_on_c, 3, 59, 0
5, 1800, Note_on_c, 3, 52, 100
5, 1800, Note_on_c, 3, 59, 100
5, 1800, Note_on_c, 3, 61, 100
5, 1919, Note_on_c, 3, 61, 0
5, 1919, Note_on_c, 3, 52, 0
5, 1919, Note_on_c, 3, 47, 0
5, 1919, Note_on_c, 3, 35, 0
5, 1919, Note_on_c, 3, 59, 0
5, 1920, Note_on_c, 3, 40, 100
5, 1920, Note_on_c, 3, 47, 100
5, 1920, Note_on_c, 3, 52, 100
5, 2399, Note_on_c, 3, 52, 0
5, 2399, Note_on_c, 3, 47, 0
5, 2399, Note_on_c, 3, 40, 0
5, 2400, Note_on_c, 3, 42, 100
5, 2400, Note_on_c, 3, 52, 100
5, 2519, Note_on_c, 3, 52, 0
5, 2519, Note_on_c, 3, 42, 0
5, 2520, Note_on_c, 3, 40, 100
5, 2520, Note_on_c, 3, 52, 100
5, 2639, Note_on_c, 3, 52, 0
5, 2639, Note_on_c, 3, 40, 0
5, 2640, Note_on_c, 3, 52, 100
5, 2640, Note_on_c, 3, 56, 100
5, 2640, Note_on_c, 3, 63, 100
5, 2759, Note_on_c, 3, 63, 0
5, 2759, Note_on_c, 3, 56, 0
5, 2759, Note_on_c, 3, 52, 0
5, 2760, Note_on_c, 3, 52, 100
5, 2760, Note_on_c, 3, 56, 100
5, 2760, Note_on_c, 3, 61, 100
5, 3840, Control_c, 3, 7, 70
5, 3930, Control_c, 3, 7, 69
5, 4020, Control_c, 3, 7, 68
5, 4110, Control_c, 3, 7, 67
5, 4200, Control_c, 3, 7, 66
5, 4290, Control_c, 3, 7, 65
5, 4380, Control_c, 3, 7, 64
5, 4470, Control_c, 3, 7, 63
5, 4560, Control_c, 3, 7, 62
5, 4650, Control_c, 3, 7, 61
5, 4799, Note_on_c, 3, 61, 0
5, 4799, Note_on_c, 3, 56, 0
5, 4799, Note_on_c, 3, 52, 0
5, 4800, Note_on_c, 3, 59, 100
5, 4800, Note_on_c, 3, 68, 100
5, 4800, Note_on_c, 3, 64, 100
5, 4800, Control_c, 3, 7, 55
5, 4979, Note_on_c, 3, 64, 0
5, 4979, Note_on_c, 3, 68, 0
5, 4979, Note_on_c, 3, 59, 0
5, 4980, Note_on_c, 3, 66, 100
5, 4980, Note_on_c, 3, 63, 100
5, 4980, Note_on_c, 3, 59, 100
5, 5279, Note_on_c, 3, 59, 0
5, 5279, Note_on_c, 3, 63, 0
5, 5279, Note_on_c, 3, 66, 0
5, 5280, Note_on_c, 3, 59, 100
5, 5280, Note_on_c, 3, 68, 100
5, 5280, Note_on_c, 3, 64, 100
5, 5459, Note_on_c, 3, 64, 0
5, 5459, Note_on_c, 3, 68, 0
5, 5459, Note_on_c, 3, 59, 0
5, 5460, Note_on_c, 3, 66, 100
5, 5460, Note_on_c, 3, 63, 100
5, 5460, Note_on_c, 3, 59, 100
5, 5759, Note_on_c, 3, 59, 0
5, 5759, Note_on_c, 3, 63, 0
5, 5759, Note_on_c, 3, 66, 0
5, 5760, Note_on_c, 3, 59, 100
5, 5760, Note_on_c, 3, 68, 100
5, 5760, Note_on_c, 3, 64, 100
5, 5939, Note_on_c, 3, 64, 0
5, 5939, Note_on_c, 3, 68, 0
5, 5939, Note_on_c, 3, 59, 0
5, 5940, Note_on_c, 3, 66, 100
5, 5940, Note_on_c, 3, 63, 100
5, 5940, Note_on_c, 3, 59, 100
5, 6239, Note_on_c, 3, 59, 0
5, 6239, Note_on_c, 3, 63, 0
5, 6239, Note_on_c, 3, 66, 0
5, 6240, Note_on_c, 3, 61, 100
5, 6240, Note_on_c, 3, 57, 100
5, 6240, Note_on_c, 3, 66, 100
5, 6419, Note_on_c, 3, 66, 0
5, 6419, Note_on_c, 3, 57, 0
5, 6419, Note_on_c, 3, 61, 0
5, 6420, Note_on_c, 3, 59, 100
5, 6420, Note_on_c, 3, 56, 100
5, 6420, Note_on_c, 3, 64, 100
5, 6719, Note_on_c, 3, 64, 0
5, 6719, Note_on_c, 3, 56, 0
5, 6719, Note_on_c, 3, 59, 0
5, 6720, Note_on_c, 3, 59, 100
5, 6720, Note_on_c, 3, 68, 100
5, 6720, Note_on_c, 3, 64, 100
5, 6899, Note_on_c, 3, 64, 0
5, 6899, Note_on_c, 3, 68, 0
5, 6899, Note_on_c, 3, 59, 0
5, 6900, Note_on_c, 3, 66, 100
5, 6900, Note_on_c, 3, 63, 100
5, 6900, Note_on_c, 3, 59, 100
5, 7199, Note_on_c, 3, 59, 0
5, 7199, Note_on_c, 3, 63, 0
5, 7199, Note_on_c, 3, 66, 0
5, 7200, Note_on_c, 3, 59, 100
5, 7200, Note_on_c, 3, 68, 100
5, 7200, Note_on_c, 3, 64, 100
5, 7379, Note_on_c, 3, 64, 0
5, 7379, Note_on_c, 3, 68, 0
5, 7379, Note_on_c, 3, 59, 0
5, 7380, Note_on_c, 3, 66, 100
5, 7380, Note_on_c, 3, 63, 100
5, 7380, Note_on_c, 3, 59, 100
5, 7679, Note_on_c, 3, 59, 0
5, 7679, Note_on_c, 3, 63, 0
5, 7679, Note_on_c, 3, 66, 0
5, 7680, Note_on_c, 3, 59, 100
5, 7680, Note_on_c, 3, 68, 100
5, 7680, Note_on_c, 3, 64, 100
5, 7859, Note_on_c, 3, 64, 0
5, 7859, Note_on_c, 3, 68, 0
5, 7859, Note_on_c, 3, 59, 0
5, 7860, Note_on_c, 3, 66, 100
5, 7860, Note_on_c, 3, 63, 100
5, 7860, Note_on_c, 3, 59, 100
5, 8159, Note_on_c, 3, 59, 0
5, 8159, Note_on_c, 3, 63, 0
5, 8159, Note_on_c, 3, 66, 0
5, 8160, Note_on_c, 3, 59, 100
5, 8160, Note_on_c, 3, 66, 100
5, 8160, Note_on_c, 3, 64, 100
5, 8639, Note_on_c, 3, 64, 0
5, 8639, Note_on_c, 3, 66, 0
5, 8639, Note_on_c, 3, 59, 0
5, 8640, Note_on_c, 3, 59, 100
5, 8640, Note_on_c, 3, 64, 100
5, 8640, Note_on_c, 3, 68, 100
5, 8819, Note_on_c, 3, 68, 0
5, 8819, Note_on_c, 3, 64, 0
5, 8819, Note_on_c, 3, 59, 0
5, 8820, Note_on_c, 3, 68, 100
5, 8820, Note_on_c, 3, 64, 100
5, 8820, Note_on_c, 3, 59, 100
5, 9119, Note_on_c, 3, 59, 0
5, 9119, Note_on_c, 3, 64, 0
5, 9119, Note_on_c, 3, 68, 0
5, 9120, Note_on_c, 3, 66, 100
5, 9120, Note_on_c, 3, 63, 100
5, 9120, Note_on_c, 3, 59, 100
5, 9599, Note_on_c, 3, 59, 0
5, 9599, Note_on_c, 3, 63, 0
5, 9599, Note_on_c, 3, 66, 0
5, 9600, Note_on_c, 3, 59, 100
5, 9600, Note_on_c, 3, 66, 100
5, 9600, Note_on_c, 3, 64, 100
5, 10079, Note_on_c, 3, 64, 0
5, 10079, Note_on_c, 3, 66, 0
5, 10079, Note_on_c, 3, 59, 0
5, 10080, Note_on_c, 3, 66, 100
5, 10080, Note_on_c, 3, 64, 100
5, 10080, Note_on_c, 3, 59, 100
5, 10559, Note_on_c, 3, 59, 0
5, 10559, Note_on_c, 3, 64, 0
5, 10559, Note_on_c, 3, 66, 0
5, 10560, Note_on_c, 3, 61, 100
5, 10560, Note_on_c, 3, 57, 100
5, 10560, Note_on_c, 3, 66, 100
5, 10739, Note_on_c, 3, 66, 0
5, 10739, Note_on_c, 3, 57, 0
5, 10739, Note_on_c, 3, 61, 0
5, 10740, Note_on_c, 3, 59, 100
5, 10740, Note_on_c, 3, 64, 100
5, 10740, Note_on_c, 3, 66, 100
5, 11039, Note_on_c, 3, 66, 0
5, 11039, Note_on_c, 3, 64, 0
5, 11039, Note_on_c, 3, 59, 0
5, 11040, Note_on_c, 3, 66, 100
5, 11040, Note_on_c, 3, 63, 100
5, 11040, Note_on_c, 3, 59, 100
5, 11519, Note_on_c, 3, 59, 0
5, 11519, Note_on_c, 3, 63, 0
5, 11519, Note_on_c, 3, 66, 0
5, 11520, Note_on_c, 3, 59, 100
5, 11520, Note_on_c, 3, 66, 100
5, 11520, Note_on_c, 3, 64, 100
5, 11999, Note_on_c, 3, 64, 0
5, 11999, Note_on_c, 3, 66, 0
5, 11999, Note_on_c, 3, 59, 0
5, 12000, Note_on_c, 3, 66, 100
5, 12000, Note_on_c, 3, 64, 100
5, 12000, Note_on_c, 3, 59, 100
5, 12479, Note_on_c, 3, 59, 0
5, 12479, Note_on_c, 3, 64, 0
5, 12479, Note_on_c, 3, 66, 0
5, 12480, Note_on_c, 3, 61, 100
5, 12480, Note_on_c, 3, 57, 100
5, 12480, Note_on_c, 3, 66, 100
5, 12659, Note_on_c, 3, 66, 0
5, 12659, Note_on_c, 3, 57, 0
5, 12659, Note_on_c, 3, 61, 0
5, 12660, Note_on_c, 3, 59, 100
5, 12660, Note_on_c, 3, 64, 100
5, 12660, Note_on_c, 3, 66, 100
5, 12959, Note_on_c, 3, 66, 0
5, 12959, Note_on_c, 3, 64, 0
5, 12959, Note_on_c, 3, 59, 0
5, 12960, Note_on_c, 3, 66, 100
5, 12960, Note_on_c, 3, 63, 100
5, 12960, Note_on_c, 3, 59, 100
5, 13199, Note_on_c, 3, 59, 0
5, 13199, Note_on_c, 3, 63, 0
5, 13199, Note_on_c, 3, 66, 0
5, 13200, Note_on_c, 3, 61, 100
5, 13200, Note_on_c, 3, 58, 100
5, 13200, Note_on_c, 3, 66, 100
5, 13439, Note_on_c, 3, 66, 0
5, 13439, Note_on_c, 3, 58, 0
5, 13439, Note_on_c, 3, 61, 0
5, 13440, Note_on_c, 3, 59, 100
5, 13440, Note_on_c, 3, 63, 100
5, 13440, Note_on_c, 3, 66, 100
5, 13919, Note_on_c, 3, 66, 0
5, 13919, Note_on_c, 3, 63, 0
5, 13919, Note_on_c, 3, 59, 0
5, 13920, Note_on_c, 3, 59, 100
5, 13920, Note_on_c, 3, 56, 100
5, 13920, Note_on_c, 3, 64, 100
5, 14399, Note_on_c, 3, 64, 0
5, 14399, Note_on_c, 3, 56, 0
5, 14399, Note_on_c, 3, 59, 0
5, 14400, Note_on_c, 3, 56, 100
5, 14400, Note_on_c, 3, 59, 100
5, 14400, Note_on_c, 3, 63, 100
5, 14400, Note_on_c, 3, 64, 100
5, 14639, Note_on_c, 3, 64, 0
5, 14639, Note_on_c, 3, 56, 0
5, 14639, Note_on_c, 3, 59, 0
5, 14639, Note_on_c, 3, 63, 0
5, 14640, Note_on_c, 3, 61, 100
5, 14640, Note_on_c, 3, 64, 100
5, 14879, Note_on_c, 3, 64, 0
5, 14879, Note_on_c, 3, 61, 0
5, 14880, Note_on_c, 3, 66, 100
5, 14880, Note_on_c, 3, 63, 100
5, 14880, Note_on_c, 3, 59, 100
5, 15119, Note_on_c, 3, 59, 0
5, 15119, Note_on_c, 3, 63, 0
5, 15119, Note_on_c, 3, 66, 0
5, 15120, Note_on_c, 3, 61, 100
5, 15120, Note_on_c, 3, 58, 100
5, 15120, Note_on_c, 3, 66, 100
5, 15359, Note_on_c, 3, 66, 0
5, 15359, Note_on_c, 3, 58, 0
5, 15359, Note_on_c, 3, 61, 0
5, 15360, Note_on_c, 3, 59, 100
5, 15360, Note_on_c, 3, 63, 100
5, 15360, Note_on_c, 3, 66, 100
5, 15839, Note_on_c, 3, 66, 0
5, 15839, Note_on_c, 3, 63, 0
5, 15839, Note_on_c, 3, 59, 0
5, 15840, Note_on_c, 3, 59, 100
5, 15840, Note_on_c, 3, 56, 100
5, 15840, Note_on_c, 3, 64, 100
5, 16319, Note_on_c, 3, 64, 0
5, 16319, Note_on_c, 3, 56, 0
5, 16319, Note_on_c, 3, 59, 0
5, 16320, Note_on_c, 3, 61, 100
5, 16320, Note_on_c, 3, 59, 100
5, 16320, Note_on_c, 3, 54, 100
5, 16799, Note_on_c, 3, 54, 0
5, 16799, Note_on_c, 3, 59, 0
5, 16799, Note_on_c, 3, 61, 0
5, 16800, Note_on_c, 3, 59, 100
5, 16800, Note_on_c, 3, 68, 100
5, 16800, Note_on_c, 3, 64, 100
5, 16800, Control_c, 3, 7, 55
5, 16979, Note_on_c, 3, 64, 0
5, 16979, Note_on_c, 3, 68, 0
5, 16979, Note_on_c, 3, 59, 0
5, 16980, Note_on_c, 3, 66, 100
5, 16980, Note_on_c, 3, 63, 100
5, 16980, Note_on_c, 3, 59, 100
5, 17279, Note_on_c, 3, 59, 0
5, 17279, Note_on_c, 3, 63, 0
5, 17279, Note_on_c, 3, 66, 0
5, 17280, Note_on_c, 3, 59, 100
5, 17280, Note_on_c, 3, 68, 100
5, 17280, Note_on_c, 3, 64, 100
5, 17459, Note_on_c, 3, 64, 0
5, 17459, Note_on_c, 3, 68, 0
5, 17459, Note_on_c, 3, 59, 0
5, 17460, Note_on_c, 3, 66, 100
5, 17460, Note_on_c, 3, 63, 100
5, 17460, Note_on_c, 3, 59, 100
5, 17759, Note_on_c, 3, 59, 0
5, 17759, Note_on_c, 3, 63, 0
5, 17759, Note_on_c, 3, 66, 0
5, 17760, Note_on_c, 3, 59, 100
5, 17760, Note_on_c, 3, 68, 100
5, 17760, Note_on_c, 3, 64, 100
5, 17939, Note_on_c, 3, 64, 0
5, 17939, Note_on_c, 3, 68, 0
5, 17939, Note_on_c, 3, 59, 0
5, 17940, Note_on_c, 3, 66, 100
5, 17940, Note_on_c, 3, 63, 100
5, 17940, Note_on_c, 3, 59, 100
5, 18239, Note_on_c, 3, 59, 0
5, 18239, Note_on_c, 3, 63, 0
5, 18239, Note_on_c, 3, 66, 0
5, 18240, Note_on_c, 3, 59, 100
5, 18240, Note_on_c, 3, 68, 100
5, 18240, Note_on_c, 3, 64, 100
5, 18719, Note_on_c, 3, 64, 0
5, 18719, Note_on_c, 3, 68, 0
5, 18719, Note_on_c, 3, 59, 0
5, 18720, Note_on_c, 3, 59, 100
5, 18720, Note_on_c, 3, 68, 100
5, 18720, Note_on_c, 3, 64, 100
5, 18720, Control_c, 3, 7, 55
5, 18899, Note_on_c, 3, 64, 0
5, 18899, Note_on_c, 3, 68, 0
5, 18899, Note_on_c, 3, 59, 0
5, 18900, Note_on_c, 3, 66, 100
5, 18900, Note_on_c, 3, 63, 100
5, 18900, Note_on_c, 3, 59, 100
5, 19199, Note_on_c, 3, 59, 0
5, 19199, Note_on_c, 3, 63, 0
5, 19199, Note_on_c, 3, 66, 0
5, 19200, Note_on_c, 3, 59, 100
5, 19200, Note_on_c, 3, 68, 100
5, 19200, Note_on_c, 3, 64, 100
5, 19379, Note_on_c, 3, 64, 0
5, 19379, Note_on_c, 3, 68, 0
5, 19379, Note_on_c, 3, 59, 0
5, 19380, Note_on_c, 3, 66, 100
5, 19380, Note_on_c, 3, 63, 100
5, 19380, Note_on_c, 3, 59, 100
5, 19679, Note_on_c, 3, 59, 0
5, 19679, Note_on_c, 3, 63, 0
5, 19679, Note_on_c, 3, 66, 0
5, 19680, Note_on_c, 3, 66, 100
5, 19680, Note_on_c, 3, 59, 100
5, 19680, Note_on_c, 3, 61, 100
5, 20159, Note_on_c, 3, 61, 0
5, 20159, Note_on_c, 3, 59, 0
5, 20159, Note_on_c, 3, 66, 0
5, 20160, Note_on_c, 3, 54, 100
5, 20160, Note_on_c, 3, 59, 100
5, 20160, Note_on_c, 3, 64, 100
5, 20639, Note_on_c, 3, 64, 0
5, 20639, Note_on_c, 3, 59, 0
5, 20639, Note_on_c, 3, 54, 0
5, 20640, Note_on_c, 3, 66, 100
5, 20640, Note_on_c, 3, 63, 100
5, 20640, Note_on_c, 3, 59, 100
5, 21119, Note_on_c, 3, 59, 0
5, 21119, Note_on_c, 3, 63, 0
5, 21119, Note_on_c, 3, 66, 0
5, 21120, Note_on_c, 3, 59, 100
5, 21120, Note_on_c, 3, 66, 100
5, 21120, Note_on_c, 3, 64, 100
5, 21599, Note_on_c, 3, 64, 0
5, 21599, Note_on_c, 3, 66, 0
5, 21599, Note_on_c, 3, 59, 0
5, 21600, Note_on_c, 3, 66, 100
5, 21600, Note_on_c, 3, 64, 100
5, 21600, Note_on_c, 3, 59, 100
5, 22079, Note_on_c, 3, 59, 0
5, 22079, Note_on_c, 3, 64, 0
5, 22079, Note_on_c, 3, 66, 0
5, 22080, Note_on_c, 3, 61, 100
5, 22080, Note_on_c, 3, 57, 100
5, 22080, Note_on_c, 3, 66, 100
5, 22259, Note_on_c, 3, 66, 0
5, 22259, Note_on_c, 3, 57, 0
5, 22259, Note_on_c, 3, 61, 0
5, 22260, Note_on_c, 3, 59, 100
5, 22260, Note_on_c, 3, 64, 100
5, 22260, Note_on_c, 3, 66, 100
5, 22559, Note_on_c, 3, 66, 0
5, 22559, Note_on_c, 3, 64, 0
5, 22559, Note_on_c, 3, 59, 0
5, 22560, Note_on_c, 3, 66, 100
5, 22560, Note_on_c, 3, 63, 100
5, 22560, Note_on_c, 3, 59, 100
5, 23039, Note_on_c, 3, 59, 0
5, 23039, Note_on_c, 3, 63, 0
5, 23039, Note_on_c, 3, 66, 0
5, 23040, Note_on_c, 3, 59, 100
5, 23040, Note_on_c, 3, 66, 100
5, 23040, Note_on_c, 3, 64, 100
5, 23519, Note_on_c, 3, 64, 0
5, 23519, Note_on_c, 3, 66, 0
5, 23519, Note_on_c, 3, 59, 0
5, 23520, Note_on_c, 3, 66, 100
5, 23520, Note_on_c, 3, 64, 100
5, 23520, Note_on_c, 3, 59, 100
5, 23999, Note_on_c, 3, 59, 0
5, 23999, Note_on_c, 3, 64, 0
5, 23999, Note_on_c, 3, 66, 0
5, 24000, Note_on_c, 3, 61, 100
5, 24000, Note_on_c, 3, 57, 100
5, 24000, Note_on_c, 3, 66, 100
5, 24179, Note_on_c, 3, 66, 0
5, 24179, Note_on_c, 3, 57, 0
5, 24179, Note_on_c, 3, 61, 0
5, 24180, Note_on_c, 3, 59, 100
5, 24180, Note_on_c, 3, 64, 100
5, 24180, Note_on_c, 3, 66, 100
5, 24479, Note_on_c, 3, 66, 0
5, 24479, Note_on_c, 3, 64, 0
5, 24479, Note_on_c, 3, 59, 0
5, 24480, Note_on_c, 3, 66, 100
5, 24480, Note_on_c, 3, 63, 100
5, 24480, Note_on_c, 3, 59, 100
5, 24719, Note_on_c, 3, 59, 0
5, 24719, Note_on_c, 3, 63, 0
5, 24719, Note_on_c, 3, 66, 0
5, 24720, Note_on_c, 3, 61, 100
5, 24720, Note_on_c, 3, 58, 100
5, 24720, Note_on_c, 3, 66, 100
5, 24959, Note_on_c, 3, 66, 0
5, 24959, Note_on_c, 3, 58, 0
5, 24959, Note_on_c, 3, 61, 0
5, 24960, Note_on_c, 3, 59, 100
5, 24960, Note_on_c, 3, 63, 100
5, 24960, Note_on_c, 3, 66, 100
5, 25439, Note_on_c, 3, 66, 0
5, 25439, Note_on_c, 3, 63, 0
5, 25439, Note_on_c, 3, 59, 0
5, 25440, Note_on_c, 3, 59, 100
5, 25440, Note_on_c, 3, 56, 100
5, 25440, Note_on_c, 3, 64, 100
5, 25919, Note_on_c, 3, 64, 0
5, 25919, Note_on_c, 3, 56, 0
5, 25919, Note_on_c, 3, 59, 0
5, 25920, Note_on_c, 3, 56, 100
5, 25920, Note_on_c, 3, 59, 100
5, 25920, Note_on_c, 3, 63, 100
5, 25920, Note_on_c, 3, 64, 100
5, 26159, Note_on_c, 3, 64, 0
5, 26159, Note_on_c, 3, 56, 0
5, 26159, Note_on_c, 3, 59, 0
5, 26159, Note_on_c, 3, 63, 0
5, 26160, Note_on_c, 3, 61, 100
5, 26160, Note_on_c, 3, 64, 100
5, 26399, Note_on_c, 3, 64, 0
5, 26399, Note_on_c, 3, 61, 0
5, 26400, Note_on_c, 3, 66, 100
5, 26400, Note_on_c, 3, 63, 100
5, 26400, Note_on_c, 3, 59, 100
5, 26639, Note_on_c, 3, 59, 0
5, 26639, Note_on_c, 3, 63, 0
5, 26639, Note_on_c, 3, 66, 0
5, 26640, Note_on_c, 3, 61, 100
5, 26640, Note_on_c, 3, 58, 100
5, 26640, Note_on_c, 3, 66, 100
5, 26879, Note_on_c, 3, 66, 0
5, 26879, Note_on_c, 3, 58, 0
5, 26879, Note_on_c, 3, 61, 0
5, 26880, Note_on_c, 3, 59, 100
5, 26880, Note_on_c, 3, 63, 100
5, 26880, Note_on_c, 3, 66, 100
5, 27359, Note_on_c, 3, 66, 0
5, 27359, Note_on_c, 3, 63, 0
5, 27359, Note_on_c, 3, 59, 0
5, 27360, Note_on_c, 3, 59, 100
5, 27360, Note_on_c, 3, 56, 100
5, 27360, Note_on_c, 3, 64, 100
5, 27839, Note_on_c, 3, 64, 0
5, 27839, Note_on_c, 3, 56, 0
5, 27839, Note_on_c, 3, 59, 0
5, 27840, Note_on_c, 3, 61, 100
5, 27840, Note_on_c, 3, 59, 100
5, 27840, Note_on_c, 3, 54, 100
5, 28319, Note_on_c, 3, 54, 0
5, 28319, Note_on_c, 3, 59, 0
5, 28319, Note_on_c, 3, 61, 0
5, 28320, Note_on_c, 3, 59, 100
5, 28320, Note_on_c, 3, 68, 100
5, 28320, Note_on_c, 3, 64, 100
5, 28320, Control_c, 3, 7, 55
5, 28499, Note_on_c, 3, 64, 0
5, 28499, Note_on_c, 3, 68, 0
5, 28499, Note_on_c, 3, 59, 0
5, 28500, Note_on_c, 3, 66, 100
5, 28500, Note_on_c, 3, 63, 100
5, 28500, Note_on_c, 3, 59, 100
5, 28799, Note_on_c, 3, 59, 0
5, 28799, Note_on_c, 3, 63, 0
5, 28799, Note_on_c, 3, 66, 0
5, 28800, Note_on_c, 3, 59, 100
5, 28800, Note_on_c, 3, 68, 100
5, 28800, Note_on_c, 3, 64, 100
5, 28979, Note_on_c, 3, 64, 0
5, 28979, Note_on_c, 3, 68, 0
5, 28979, Note_on_c, 3, 59, 0
5, 28980, Note_on_c, 3, 66, 100
5, 28980, Note_on_c, 3, 63, 100
5, 28980, Note_on_c, 3, 59, 100
5, 29279, Note_on_c, 3, 59, 0
5, 29279, Note_on_c, 3, 63, 0
5, 29279, Note_on_c, 3, 66, 0
5, 29280, Note_on_c, 3, 59, 100
5, 29280, Note_on_c, 3, 68, 100
5, 29280, Note_on_c, 3, 64, 100
5, 29459, Note_on_c, 3, 64, 0
5, 29459, Note_on_c, 3, 68, 0
5, 29459, Note_on_c, 3, 59, 0
5, 29460, Note_on_c, 3, 66, 100
5, 29460, Note_on_c, 3, 63, 100
5, 29460, Note_on_c, 3, 59, 100
5, 29759, Note_on_c, 3, 59, 0
5, 29759, Note_on_c, 3, 63, 0
5, 29759, Note_on_c, 3, 66, 0
5, 29760, Note_on_c, 3, 59, 100
5, 29760, Note_on_c, 3, 68, 100
5, 29760, Note_on_c, 3, 64, 100
5, 30239, Note_on_c, 3, 64, 0
5, 30239, Note_on_c, 3, 68, 0
5, 30239, Note_on_c, 3, 59, 0
5, 30240, Note_on_c, 3, 59, 100
5, 30240, Note_on_c, 3, 68, 100
5, 30240, Note_on_c, 3, 64, 100
5, 30240, Control_c, 3, 7, 55
5, 30419, Note_on_c, 3, 64, 0
5, 30419, Note_on_c, 3, 68, 0
5, 30419, Note_on_c, 3, 59, 0
5, 30420, Note_on_c, 3, 66, 100
5, 30420, Note_on_c, 3, 63, 100
5, 30420, Note_on_c, 3, 59, 100
5, 30719, Note_on_c, 3, 59, 0
5, 30719, Note_on_c, 3, 63, 0
5, 30719, Note_on_c, 3, 66, 0
5, 30720, Note_on_c, 3, 59, 100
5, 30720, Note_on_c, 3, 68, 100
5, 30720, Note_on_c, 3, 64, 100
5, 30899, Note_on_c, 3, 64, 0
5, 30899, Note_on_c, 3, 68, 0
5, 30899, Note_on_c, 3, 59, 0
5, 30900, Note_on_c, 3, 66, 100
5, 30900, Note_on_c, 3, 63, 100
5, 30900, Note_on_c, 3, 59, 100
5, 31199, Note_on_c, 3, 59, 0
5, 31199, Note_on_c, 3, 63, 0
5, 31199, Note_on_c, 3, 66, 0
5, 31200, Note_on_c, 3, 66, 100
5, 31200, Note_on_c, 3, 59, 100
5, 31200, Note_on_c, 3, 61, 100
5, 31679, Note_on_c, 3, 61, 0
5, 31679, Note_on_c, 3, 59, 0
5, 31679, Note_on_c, 3, 66, 0
5, 31680, Note_on_c, 3, 54, 100
5, 31680, Note_on_c, 3, 59, 100
5, 31680, Note_on_c, 3, 64, 100
5, 32159, Note_on_c, 3, 64, 0
5, 32159, Note_on_c, 3, 59, 0
5, 32159, Note_on_c, 3, 54, 0
5, 32160, Note_on_c, 3, 62, 100
5, 32160, Note_on_c, 3, 59, 100
5, 32160, Note_on_c, 3, 57, 100
5, 32339, Note_on_c, 3, 57, 0
5, 32339, Note_on_c, 3, 59, 0
5, 32339, Note_on_c, 3, 62, 0
5, 32340, Note_on_c, 3, 52, 100
5, 32340, Note_on_c, 3, 61, 100
5, 32340, Note_on_c, 3, 57, 100
5, 32639, Note_on_c, 3, 57, 0
5, 32639, Note_on_c, 3, 61, 0
5, 32639, Note_on_c, 3, 52, 0
5, 32640, Note_on_c, 3, 57, 100
5, 32640, Note_on_c, 3, 54, 100
5, 32640, Note_on_c, 3, 62, 100
5, 32819, Note_on_c, 3, 62, 0
5, 32819, Note_on_c, 3, 54, 0
5, 32819, Note_on_c, 3, 57, 0
5, 32820, Note_on_c, 3, 52, 100
5, 32820, Note_on_c, 3, 57, 100
5, 32820, Note_on_c, 3, 61, 100
5, 33119, Note_on_c, 3, 61, 0
5, 33119, Note_on_c, 3, 57, 0
5, 33119, Note_on_c, 3, 52, 0
5, 33120, Note_on_c, 3, 57, 100
5, 33120, Note_on_c, 3, 54, 100
5, 33120, Note_on_c, 3, 62, 100
5, 33299, Note_on_c, 3, 62, 0
5, 33299, Note_on_c, 3, 54, 0
5, 33299, Note_on_c, 3, 57, 0
5, 33300, Note_on_c, 3, 52, 100
5, 33300, Note_on_c, 3, 57, 100
5, 33300, Note_on_c, 3, 61, 100
5, 33599, Note_on_c, 3, 61, 0
5, 33599, Note_on_c, 3, 57, 0
5, 33599, Note_on_c, 3, 52, 0
5, 33600, Note_on_c, 3, 57, 100
5, 33600, Note_on_c, 3, 54, 100
5, 33600, Note_on_c, 3, 62, 100
5, 34079, Note_on_c, 3, 62, 0
5, 34079, Note_on_c, 3, 54, 0
5, 34079, Note_on_c, 3, 57, 0
5, 34080, Note_on_c, 3, 54, 100
5, 34080, Note_on_c, 3, 62, 100
5, 34080, Note_on_c, 3, 57, 100
5, 34259, Note_on_c, 3, 57, 0
5, 34259, Note_on_c, 3, 62, 0
5, 34259, Note_on_c, 3, 54, 0
5, 34260, Note_on_c, 3, 52, 100
5, 34260, Note_on_c, 3, 61, 100
5, 34260, Note_on_c, 3, 57, 100
5, 34559, Note_on_c, 3, 57, 0
5, 34559, Note_on_c, 3, 61, 0
5, 34559, Note_on_c, 3, 52, 0
5, 34560, Note_on_c, 3, 57, 100
5, 34560, Note_on_c, 3, 54, 100
5, 34560, Note_on_c, 3, 62, 100
5, 34739, Note_on_c, 3, 62, 0
5, 34739, Note_on_c, 3, 54, 0
5, 34739, Note_on_c, 3, 57, 0
5, 34740, Note_on_c, 3, 52, 100
5, 34740, Note_on_c, 3, 57, 100
5, 34740, Note_on_c, 3, 61, 100
5, 35039, Note_on_c, 3, 61, 0
5, 35039, Note_on_c, 3, 57, 0
5, 35039, Note_on_c, 3, 52, 0
5, 35040, Note_on_c, 3, 57, 100
5, 35040, Note_on_c, 3, 54, 100
5, 35040, Note_on_c, 3, 62, 100
5, 35219, Note_on_c, 3, 62, 0
5, 35219, Note_on_c, 3, 54, 0
5, 35219, Note_on_c, 3, 57, 0
5, 35220, Note_on_c, 3, 52, 100
5, 35220, Note_on_c, 3, 57, 100
5, 35220, Note_on_c, 3, 61, 100
5, 35519, Note_on_c, 3, 61, 0
5, 35519, Note_on_c, 3, 57, 0
5, 35519, Note_on_c, 3, 52, 0
5, 35520, Note_on_c, 3, 55, 100
5, 35520, Note_on_c, 3, 57, 100
5, 35520, Note_on_c, 3, 59, 100
5, 35520, Note_on_c, 3, 62, 100
5, 35699, Note_on_c, 3, 62, 0
5, 35699, Note_on_c, 3, 55, 0
5, 35699, Note_on_c, 3, 57, 0
5, 35699, Note_on_c, 3, 59, 0
5, 35700, Note_on_c, 3, 54, 100
5, 35700, Note_on_c, 3, 57, 100
5, 35700, Note_on_c, 3, 62, 100
5, 35999, Note_on_c, 3, 62, 0
5, 35999, Note_on_c, 3, 57, 0
5, 35999, Note_on_c, 3, 54, 0
5, 36000, Note_on_c, 3, 54, 100
5, 36000, Note_on_c, 3, 57, 100
5, 36000, Note_on_c, 3, 62, 100
5, 36179, Note_on_c, 3, 62, 0
5, 36179, Note_on_c, 3, 57, 0
5, 36179, Note_on_c, 3, 54, 0
5, 36180, Note_on_c, 3, 52, 100
5, 36180, Note_on_c, 3, 61, 100
5, 36180, Note_on_c, 3, 57, 100
5, 36479, Note_on_c, 3, 57, 0
5, 36479, Note_on_c, 3, 61, 0
5, 36479, Note_on_c, 3, 52, 0
5, 36480, Note_on_c, 3, 54, 100
5, 36480, Note_on_c, 3, 57, 100
5, 36480, Note_on_c, 3, 62, 100
5, 36659, Note_on_c, 3, 62, 0
5, 36659, Note_on_c, 3, 57, 0
5, 36659, Note_on_c, 3, 54, 0
5, 36660, Note_on_c, 3, 54, 100
5, 36660, Note_on_c, 3, 57, 100
5, 36660, Note_on_c, 3, 62, 100
5, 36839, Note_on_c, 3, 62, 0
5, 36839, Note_on_c, 3, 57, 0
5, 36839, Note_on_c, 3, 54, 0
5, 36840, Note_on_c, 3, 52, 100
5, 36840, Note_on_c, 3, 57, 100
5, 36840, Note_on_c, 3, 61, 100
5, 36959, Note_on_c, 3, 61, 0
5, 36959, Note_on_c, 3, 57, 0
5, 36959, Note_on_c, 3, 52, 0
5, 36960, Note_on_c, 3, 54, 100
5, 36960, Note_on_c, 3, 57, 100
5, 36960, Note_on_c, 3, 62, 100
5, 37139, Note_on_c, 3, 62, 0
5, 37139, Note_on_c, 3, 57, 0
5, 37139, Note_on_c, 3, 54, 0
5, 37140, Note_on_c, 3, 52, 100
5, 37140, Note_on_c, 3, 57, 100
5, 37140, Note_on_c, 3, 61, 100
5, 37439, Note_on_c, 3, 61, 0
5, 37439, Note_on_c, 3, 57, 0
5, 37439, Note_on_c, 3, 52, 0
5, 37440, Note_on_c, 3, 62, 100
5, 37440, Note_on_c, 3, 59, 100
5, 37440, Note_on_c, 3, 55, 100
5, 37619, Note_on_c, 3, 55, 0
5, 37619, Note_on_c, 3, 59, 0
5, 37619, Note_on_c, 3, 62, 0
5, 37620, Note_on_c, 3, 50, 100
5, 37620, Note_on_c, 3, 57, 100
5, 37919, Note_on_c, 3, 57, 0
5, 37919, Note_on_c, 3, 50, 0
5, 37920, Note_on_c, 3, 54, 100
5, 37920, Note_on_c, 3, 57, 100
5, 37920, Note_on_c, 3, 62, 100
5, 38099, Note_on_c, 3, 62, 0
5, 38099, Note_on_c, 3, 57, 0
5, 38099, Note_on_c, 3, 54, 0
5, 38100, Note_on_c, 3, 52, 100
5, 38100, Note_on_c, 3, 57, 100
5, 38100, Note_on_c, 3, 61, 100
5, 38399, Note_on_c, 3, 61, 0
5, 38399, Note_on_c, 3, 57, 0
5, 38399, Note_on_c, 3, 52, 0
5, 38400, Note_on_c, 3, 54, 100
5, 38400, Note_on_c, 3, 57, 100
5, 38400, Note_on_c, 3, 62, 100
5, 38579, Note_on_c, 3, 62, 0
5, 38579, Note_on_c, 3, 57, 0
5, 38579, Note_on_c, 3, 54, 0
5, 38580, Note_on_c, 3, 61, 100
5, 38580, Note_on_c, 3, 57, 100
5, 38580, Note_on_c, 3, 52, 100
5, 38879, Note_on_c, 3, 52, 0
5, 38879, Note_on_c, 3, 57, 0
5, 38879, Note_on_c, 3, 61, 0
5, 38880, Note_on_c, 3, 62, 100
5, 38880, Note_on_c, 3, 57, 100
5, 38880, Note_on_c, 3, 54, 100
5, 39059, Note_on_c, 3, 54, 0
5, 39059, Note_on_c, 3, 57, 0
5, 39059, Note_on_c, 3, 62, 0
5, 39060, Note_on_c, 3, 52, 100
5, 39060, Note_on_c, 3, 57, 100
5, 39060, Note_on_c, 3, 61, 100
5, 39359, Note_on_c, 3, 61, 0
5, 39359, Note_on_c, 3, 57, 0
5, 39359, Note_on_c, 3, 52, 0
5, 39360, Note_on_c, 3, 54, 100
5, 39360, Note_on_c, 3, 57, 100
5, 39360, Note_on_c, 3, 62, 100
5, 39479, Note_on_c, 3, 62, 0
5, 39479, Note_on_c, 3, 57, 0
5, 39479, Note_on_c, 3, 54, 0
5, 39480, Note_on_c, 3, 52, 100
5, 39480, Note_on_c, 3, 57, 100
5, 39480, Note_on_c, 3, 61, 100
5, 39599, Note_on_c, 3, 61, 0
5, 39599, Note_on_c, 3, 57, 0
5, 39599, Note_on_c, 3, 52, 0
5, 39600, Note_on_c, 3, 59, 100
5, 39600, Note_on_c, 3, 56, 100
5, 39600, Note_on_c, 3, 52, 100
5, 39719, Note_on_c, 3, 52, 0
5, 39719, Note_on_c, 3, 56, 0
5, 39719, Note_on_c, 3, 59, 0
5, 39720, Note_on_c, 3, 54, 100
5, 39720, Note_on_c, 3, 51, 100
5, 39720, Note_on_c, 3, 59, 100
5, 39839, Note_on_c, 3, 59, 0
5, 39839, Note_on_c, 3, 51, 0
5, 39839, Note_on_c, 3, 54, 0
5, 39840, Note_on_c, 3, 66, 100
5, 39840, Note_on_c, 3, 63, 100
5, 39840, Note_on_c, 3, 59, 100
5, 40079, Note_on_c, 3, 59, 0
5, 40079, Note_on_c, 3, 63, 0
5, 40079, Note_on_c, 3, 66, 0
5, 40080, Note_on_c, 3, 61, 100
5, 40080, Note_on_c, 3, 58, 100
5, 40080, Note_on_c, 3, 66, 100
5, 40319, Note_on_c, 3, 66, 0
5, 40319, Note_on_c, 3, 58, 0
5, 40319, Note_on_c, 3, 61, 0
5, 40320, Note_on_c, 3, 59, 100
5, 40320, Note_on_c, 3, 63, 100
5, 40320, Note_on_c, 3, 66, 100
5, 40799, Note_on_c, 3, 66, 0
5, 40799, Note_on_c, 3, 63, 0
5, 40799, Note_on_c, 3, 59, 0
5, 40800, Note_on_c, 3, 59, 100
5, 40800, Note_on_c, 3, 56, 100
5, 40800, Note_on_c, 3, 64, 100
5, 41279, Note_on_c, 3, 64, 0
5, 41279, Note_on_c, 3, 56, 0
5, 41279, Note_on_c, 3, 59, 0
5, 41280, Note_on_c, 3, 56, 100
5, 41280, Note_on_c, 3, 59, 100
5, 41280, Note_on_c, 3, 63, 100
5, 41280, Note_on_c, 3, 64, 100
5, 41519, Note_on_c, 3, 64, 0
5, 41519, Note_on_c, 3, 56, 0
5, 41519, Note_on_c, 3, 59, 0
5, 41519, Note_on_c, 3, 63, 0
5, 41520, Note_on_c, 3, 61, 100
5, 41520, Note_on_c, 3, 64, 100
5, 41759, Note_on_c, 3, 64, 0
5, 41759, Note_on_c, 3, 61, 0
5, 41760, Note_on_c, 3, 66, 100
5, 41760, Note_on_c, 3, 63, 100
5, 41760, Note_on_c, 3, 59, 100
5, 41999, Note_on_c, 3, 59, 0
5, 41999, Note_on_c, 3, 63, 0
5, 41999, Note_on_c, 3, 66, 0
5, 42000, Note_on_c, 3, 61, 100
5, 42000, Note_on_c, 3, 58, 100
5, 42000, Note_on_c, 3, 66, 100
5, 42239, Note_on_c, 3, 66, 0
5, 42239, Note_on_c, 3, 58, 0
5, 42239, Note_on_c, 3, 61, 0
5, 42240, Note_on_c, 3, 59, 100
5, 42240, Note_on_c, 3, 63, 100
5, 42240, Note_on_c, 3, 66, 100
5, 42719, Note_on_c, 3, 66, 0
5, 42719, Note_on_c, 3, 63, 0
5, 42719, Note_on_c, 3, 59, 0
5, 42720, Note_on_c, 3, 59, 100
5, 42720, Note_on_c, 3, 56, 100
5, 42720, Note_on_c, 3, 64, 100
5, 43199, Note_on_c, 3, 64, 0
5, 43199, Note_on_c, 3, 56, 0
5, 43199, Note_on_c, 3, 59, 0
5, 43200, Note_on_c, 3, 61, 100
5, 43200, Note_on_c, 3, 59, 100
5, 43200, Note_on_c, 3, 54, 100
5, 43679, Note_on_c, 3, 54, 0
5, 43679, Note_on_c, 3, 59, 0
5, 43679, Note_on_c, 3, 61, 0
5, 43680, Note_on_c, 3, 59, 100
5, 43680, Note_on_c, 3, 68, 100
5, 43680, Note_on_c, 3, 64, 100
5, 43680, Control_c, 3, 7, 55
5, 43859, Note_on_c, 3, 64, 0
5, 43859, Note_on_c, 3, 68, 0
5, 43859, Note_on_c, 3, 59, 0
5, 43860, Note_on_c, 3, 66, 100
5, 43860, Note_on_c, 3, 63, 100
5, 43860, Note_on_c, 3, 59, 100
5, 44159, Note_on_c, 3, 59, 0
5, 44159, Note_on_c, 3, 63, 0
5, 44159, Note_on_c, 3, 66, 0
5, 44160, Note_on_c, 3, 59, 100
5, 44160, Note_on_c, 3, 68, 100
5, 44160, Note_on_c, 3, 64, 100
5, 44339, Note_on_c, 3, 64, 0
5, 44339, Note_on_c, 3, 68, 0
5, 44339, Note_on_c, 3, 59, 0
5, 44340, Note_on_c, 3, 66, 100
5, 44340, Note_on_c, 3, 63, 100
5, 44340, Note_on_c, 3, 59, 100
5, 44639, Note_on_c, 3, 59, 0
5, 44639, Note_on_c, 3, 63, 0
5, 44639, Note_on_c, 3, 66, 0
5, 44640, Note_on_c, 3, 59, 100
5, 44640, Note_on_c, 3, 68, 100
5, 44640, Note_on_c, 3, 64, 100
5, 44819, Note_on_c, 3, 64, 0
5, 44819, Note_on_c, 3, 68, 0
5, 44819, Note_on_c, 3, 59, 0
5, 44820, Note_on_c, 3, 66, 100
5, 44820, Note_on_c, 3, 63, 100
5, 44820, Note_on_c, 3, 59, 100
5, 45119, Note_on_c, 3, 59, 0
5, 45119, Note_on_c, 3, 63, 0
5, 45119, Note_on_c, 3, 66, 0
5, 45120, Note_on_c, 3, 59, 100
5, 45120, Note_on_c, 3, 68, 100
5, 45120, Note_on_c, 3, 64, 100
5, 45599, Note_on_c, 3, 64, 0
5, 45599, Note_on_c, 3, 68, 0
5, 45599, Note_on_c, 3, 59, 0
5, 45600, Note_on_c, 3, 59, 100
5, 45600, Note_on_c, 3, 68, 100
5, 45600, Note_on_c, 3, 64, 100
5, 45600, Control_c, 3, 7, 55
5, 45779, Note_on_c, 3, 64, 0
5, 45779, Note_on_c, 3, 68, 0
5, 45779, Note_on_c, 3, 59, 0
5, 45780, Note_on_c, 3, 66, 100
5, 45780, Note_on_c, 3, 63, 100
5, 45780, Note_on_c, 3, 59, 100
5, 46079, Note_on_c, 3, 59, 0
5, 46079, Note_on_c, 3, 63, 0
5, 46079, Note_on_c, 3, 66, 0
5, 46080, Note_on_c, 3, 59, 100
5, 46080, Note_on_c, 3, 68, 100
5, 46080, Note_on_c, 3, 64, 100
5, 46259, Note_on_c, 3, 64, 0
5, 46259, Note_on_c, 3, 68, 0
5, 46259, Note_on_c, 3, 59, 0
5, 46260, Note_on_c, 3, 66, 100
5, 46260, Note_on_c, 3, 63, 100
5, 46260, Note_on_c, 3, 59, 100
5, 46559, Note_on_c, 3, 59, 0
5, 46559, Note_on_c, 3, 63, 0
5, 46559, Note_on_c, 3, 66, 0
5, 46560, Note_on_c, 3, 66, 100
5, 46560, Note_on_c, 3, 59, 100
5, 46560, Note_on_c, 3, 61, 100
5, 47039, Note_on_c, 3, 61, 0
5, 47039, Note_on_c, 3, 59, 0
5, 47039, Note_on_c, 3, 66, 0
5, 47040, Note_on_c, 3, 54, 100
5, 47040, Note_on_c, 3, 59, 100
5, 47040, Note_on_c, 3, 64, 100
5, 47519, Note_on_c, 3, 64, 0
5, 47519, Note_on_c, 3, 59, 0
5, 47519, Note_on_c, 3, 54, 0
5, 47520, Note_on_c, 3, 59, 100
5, 47520, Note_on_c, 3, 68, 100
5, 47520, Note_on_c, 3, 64, 100
5, 47520, Control_c, 3, 7, 55
5, 47699, Note_on_c, 3, 64, 0
5, 47699, Note_on_c, 3, 68, 0
5, 47699, Note_on_c, 3, 59, 0
5, 47700, Note_on_c, 3, 66, 100
5, 47700, Note_on_c, 3, 63, 100
5, 47700, Note_on_c, 3, 59, 100
5, 47999, Note_on_c, 3, 59, 0
5, 47999, Note_on_c, 3, 63, 0
5, 47999, Note_on_c, 3, 66, 0
5, 48000, Note_on_c, 3, 59, 100
5, 48000, Note_on_c, 3, 68, 100
5, 48000, Note_on_c, 3, 64, 100
5, 48179, Note_on_c, 3, 64, 0
5, 48179, Note_on_c, 3, 68, 0
5, 48179, Note_on_c, 3, 59, 0
5, 48180, Note_on_c, 3, 66, 100
5, 48180, Note_on_c, 3, 63, 100
5, 48180, Note_on_c, 3, 59, 100
5, 48479, Note_on_c, 3, 59, 0
5, 48479, Note_on_c, 3, 63, 0
5, 48479, Note_on_c, 3, 66, 0
5, 48480, Note_on_c, 3, 59, 100
5, 48480, Note_on_c, 3, 68, 100
5, 48480, Note_on_c, 3, 64, 100
5, 48659, Note_on_c, 3, 64, 0
5, 48659, Note_on_c, 3, 68, 0
5, 48659, Note_on_c, 3, 59, 0
5, 48660, Note_on_c, 3, 66, 100
5, 48660, Note_on_c, 3, 63, 100
5, 48660, Note_on_c, 3, 59, 100
5, 48959, Note_on_c, 3, 59, 0
5, 48959, Note_on_c, 3, 63, 0
5, 48959, Note_on_c, 3, 66, 0
5, 48960, Note_on_c, 3, 57, 100
5, 48960, Note_on_c, 3, 64, 100
5, 48960, Note_on_c, 3, 61, 100
5, 48960, Note_on_c, 3, 66, 100
5, 49139, Note_on_c, 3, 66, 0
5, 49139, Note_on_c, 3, 57, 0
5, 49139, Note_on_c, 3, 64, 0
5, 49139, Note_on_c, 3, 61, 0
5, 49140, Note_on_c, 3, 59, 100
5, 49140, Note_on_c, 3, 64, 100
5, 49140, Note_on_c, 3, 68, 100
5, 49439, Note_on_c, 3, 68, 0
5, 49439, Note_on_c, 3, 64, 0
5, 49439, Note_on_c, 3, 59, 0
5, 49440, Note_on_c, 3, 59, 100
5, 49440, Note_on_c, 3, 68, 100
5, 49440, Note_on_c, 3, 64, 100
5, 49440, Control_c, 3, 7, 55
5, 49619, Note_on_c, 3, 64, 0
5, 49619, Note_on_c, 3, 68, 0
5, 49619, Note_on_c, 3, 59, 0
5, 49620, Note_on_c, 3, 66, 100
5, 49620, Note_on_c, 3, 63, 100
5, 49620, Note_on_c, 3, 59, 100
5, 49919, Note_on_c, 3, 59, 0
5, 49919, Note_on_c, 3, 63, 0
5, 49919, Note_on_c, 3, 66, 0
5, 49920, Note_on_c, 3, 59, 100
5, 49920, Note_on_c, 3, 68, 100
5, 49920, Note_on_c, 3, 64, 100
5, 50099, Note_on_c, 3, 64, 0
5, 50099, Note_on_c, 3, 68, 0
5, 50099, Note_on_c, 3, 59, 0
5, 50100, Note_on_c, 3, 66, 100
5, 50100, Note_on_c, 3, 63, 100
5, 50100, Note_on_c, 3, 59, 100
5, 50399, Note_on_c, 3, 59, 0
5, 50399, Note_on_c, 3, 63, 0
5, 50399, Note_on_c, 3, 66, 0
5, 50400, Note_on_c, 3, 59, 100
5, 50400, Note_on_c, 3, 68, 100
5, 50400, Note_on_c, 3, 64, 100
5, 50579, Note_on_c, 3, 64, 0
5, 50579, Note_on_c, 3, 68, 0
5, 50579, Note_on_c, 3, 59, 0
5, 50580, Note_on_c, 3, 66, 100
5, 50580, Note_on_c, 3, 63, 100
5, 50580, Note_on_c, 3, 59, 100
5, 50879, Note_on_c, 3, 59, 0
5, 50879, Note_on_c, 3, 63, 0
5, 50879, Note_on_c, 3, 66, 0
5, 50880, Note_on_c, 3, 57, 100
5, 50880, Note_on_c, 3, 64, 100
5, 50880, Note_on_c, 3, 61, 100
5, 50880, Note_on_c, 3, 66, 100
5, 51059, Note_on_c, 3, 66, 0
5, 51059, Note_on_c, 3, 57, 0
5, 51059, Note_on_c, 3, 64, 0
5, 51059, Note_on_c, 3, 61, 0
5, 51060, Note_on_c, 3, 59, 100
5, 51060, Note_on_c, 3, 64, 100
5, 51060, Note_on_c, 3, 68, 100
5, 51359, Note_on_c, 3, 68, 0
5, 51359, Note_on_c, 3, 64, 0
5, 51359, Note_on_c, 3, 59, 0
5, 51360, Note_on_c, 3, 59, 100
5, 51360, Note_on_c, 3, 68, 100
5, 51360, Note_on_c, 3, 64, 100
5, 51360, Control_c, 3, 7, 55
5, 51539, Note_on_c, 3, 64, 0
5, 51539, Note_on_c, 3, 68, 0
5, 51539, Note_on_c, 3, 59, 0
5, 51540, Note_on_c, 3, 66, 100
5, 51540, Note_on_c, 3, 63, 100
5, 51540, Note_on_c, 3, 59, 100
5, 51839, Note_on_c, 3, 59, 0
5, 51839, Note_on_c, 3, 63, 0
5, 51839, Note_on_c, 3, 66, 0
5, 51840, Note_on_c, 3, 59, 100
5, 51840, Note_on_c, 3, 68, 100
5, 51840, Note_on_c, 3, 64, 100
5, 52019, Note_on_c, 3, 64, 0
5, 52019, Note_on_c, 3, 68, 0
5, 52019, Note_on_c, 3, 59, 0
5, 52020, Note_on_c, 3, 66, 100
5, 52020, Note_on_c, 3, 63, 100
5, 52020, Note_on_c, 3, 59, 100
5, 52319, Note_on_c, 3, 59, 0
5, 52319, Note_on_c, 3, 63, 0
5, 52319, Note_on_c, 3, 66, 0
5, 52320, Note_on_c, 3, 59, 100
5, 52320, Note_on_c, 3, 68, 100
5, 52320, Note_on_c, 3, 64, 100
5, 52499, Note_on_c, 3, 64, 0
5, 52499, Note_on_c, 3, 68, 0
5, 52499, Note_on_c, 3, 59, 0
5, 52500, Note_on_c, 3, 66, 100
5, 52500, Note_on_c, 3, 63, 100
5, 52500, Note_on_c, 3, 59, 100
5, 52799, Note_on_c, 3, 59, 0
5, 52799, Note_on_c, 3, 63, 0
5, 52799, Note_on_c, 3, 66, 0
5, 52800, Note_on_c, 3, 57, 100
5, 52800, Note_on_c, 3, 64, 100
5, 52800, Note_on_c, 3, 61, 100
5, 52800, Note_on_c, 3, 66, 100
5, 52979, Note_on_c, 3, 66, 0
5, 52979, Note_on_c, 3, 57, 0
5, 52979, Note_on_c, 3, 64, 0
5, 52979, Note_on_c, 3, 61, 0
5, 52980, Note_on_c, 3, 59, 100
5, 52980, Note_on_c, 3, 64, 100
5, 52980, Note_on_c, 3, 68, 100
5, 53279, Note_on_c, 3, 68, 0
5, 53279, Note_on_c, 3, 64, 0
5, 53279, Note_on_c, 3, 59, 0
5, 53280, Note_on_c, 3, 59, 100
5, 53280, Note_on_c, 3, 68, 100
5, 53280, Note_on_c, 3, 64, 100
5, 53280, Control_c, 3, 7, 55
5, 53459, Note_on_c, 3, 64, 0
5, 53459, Note_on_c, 3, 68, 0
5, 53459, Note_on_c, 3, 59, 0
5, 53460, Note_on_c, 3, 66, 100
5, 53460, Note_on_c, 3, 63, 100
5, 53460, Note_on_c, 3, 59, 100
5, 53759, Note_on_c, 3, 59, 0
5, 53759, Note_on_c, 3, 63, 0
5, 53759, Note_on_c, 3, 66, 0
5, 53760, Note_on_c, 3, 59, 100
5, 53760, Note_on_c, 3, 68, 100
5, 53760, Note_on_c, 3, 64, 100
5, 53939, Note_on_c, 3, 64, 0
5, 53939, Note_on_c, 3, 68, 0
5, 53939, Note_on_c, 3, 59, 0
5, 53940, Note_on_c, 3, 66, 100
5, 53940, Note_on_c, 3, 63, 100
5, 53940, Note_on_c, 3, 59, 100
5, 54239, Note_on_c, 3, 59, 0
5, 54239, Note_on_c, 3, 63, 0
5, 54239, Note_on_c, 3, 66, 0
5, 54240, Note_on_c, 3, 59, 100
5, 54240, Note_on_c, 3, 68, 100
5, 54240, Note_on_c, 3, 64, 100
5, 54419, Note_on_c, 3, 64, 0
5, 54419, Note_on_c, 3, 68, 0
5, 54419, Note_on_c, 3, 59, 0
5, 54420, Note_on_c, 3, 66, 100
5, 54420, Note_on_c, 3, 63, 100
5, 54420, Note_on_c, 3, 59, 100
5, 54719, Note_on_c, 3, 59, 0
5, 54719, Note_on_c, 3, 63, 0
5, 54719, Note_on_c, 3, 66, 0
5, 54720, Note_on_c, 3, 57, 100
5, 54720, Note_on_c, 3, 64, 100
5, 54720, Note_on_c, 3, 61, 100
5, 54720, Note_on_c, 3, 66, 100
5, 54899, Note_on_c, 3, 66, 0
5, 54899, Note_on_c, 3, 57, 0
5, 54899, Note_on_c, 3, 64, 0
5, 54899, Note_on_c, 3, 61, 0
5, 54900, Note_on_c, 3, 59, 100
5, 54900, Note_on_c, 3, 64, 100
5, 54900, Note_on_c, 3, 68, 100
5, 55199, Note_on_c, 3, 68, 0
5, 55199, Note_on_c, 3, 64, 0
5, 55199, Note_on_c, 3, 59, 0
5, 55200, Note_on_c, 3, 59, 100
5, 55200, Note_on_c, 3, 68, 100
5, 55200, Note_on_c, 3, 64, 100
5, 55200, Control_c, 3, 7, 55
5, 55379, Note_on_c, 3, 64, 0
5, 55379, Note_on_c, 3, 68, 0
5, 55379, Note_on_c, 3, 59, 0
5, 55380, Note_on_c, 3, 66, 100
5, 55380, Note_on_c, 3, 63, 100
5, 55380, Note_on_c, 3, 59, 100
5, 55679, Note_on_c, 3, 59, 0
5, 55679, Note_on_c, 3, 63, 0
5, 55679, Note_on_c, 3, 66, 0
5, 55680, Note_on_c, 3, 59, 100
5, 55680, Note_on_c, 3, 68, 100
5, 55680, Note_on_c, 3, 64, 100
5, 55859, Note_on_c, 3, 64, 0
5, 55859, Note_on_c, 3, 68, 0
5, 55859, Note_on_c, 3, 59, 0
5, 55860, Note_on_c, 3, 66, 100
5, 55860, Note_on_c, 3, 63, 100
5, 55860, Note_on_c, 3, 59, 100
5, 56159, Note_on_c, 3, 59, 0
5, 56159, Note_on_c, 3, 63, 0
5, 56159, Note_on_c, 3, 66, 0
5, 56160, Note_on_c, 3, 59, 100
5, 56160, Note_on_c, 3, 68, 100
5, 56160, Note_on_c, 3, 64, 100
5, 56339, Note_on_c, 3, 64, 0
5, 56339, Note_on_c, 3, 68, 0
5, 56339, Note_on_c, 3, 59, 0
5, 56340, Note_on_c, 3, 66, 100
5, 56340, Note_on_c, 3, 63, 100
5, 56340, Note_on_c, 3, 59, 100
5, 56639, Note_on_c, 3, 59, 0
5, 56639, Note_on_c, 3, 63, 0
5, 56639, Note_on_c, 3, 66, 0
5, 56640, Note_on_c, 3, 57, 100
5, 56640, Note_on_c, 3, 64, 100
5, 56640, Note_on_c, 3, 61, 100
5, 56640, Note_on_c, 3, 66, 100
5, 56819, Note_on_c, 3, 66, 0
5, 56819, Note_on_c, 3, 57, 0
5, 56819, Note_on_c, 3, 64, 0
5, 56819, Note_on_c, 3, 61, 0
5, 56820, Note_on_c, 3, 59, 100
5, 56820, Note_on_c, 3, 64, 100
5, 56820, Note_on_c, 3, 68, 100
5, 57119, Note_on_c, 3, 68, 0
5, 57119, Note_on_c, 3, 64, 0
5, 57119, Note_on_c, 3, 59, 0
5, 57120, Note_on_c, 3, 59, 100
5, 57120, Note_on_c, 3, 68, 100
5, 57120, Note_on_c, 3, 64, 100
5, 57120, Control_c, 3, 7, 55
5, 57299, Note_on_c, 3, 64, 0
5, 57299, Note_on_c, 3, 68, 0
5, 57299, Note_on_c, 3, 59, 0
5, 57300, Note_on_c, 3, 66, 100
5, 57300, Note_on_c, 3, 63, 100
5, 57300, Note_on_c, 3, 59, 100
5, 57599, Note_on_c, 3, 59, 0
5, 57599, Note_on_c, 3, 63, 0
5, 57599, Note_on_c, 3, 66, 0
5, 57600, Note_on_c, 3, 59, 100
5, 57600, Note_on_c, 3, 68, 100
5, 57600, Note_on_c, 3, 64, 100
5, 57779, Note_on_c, 3, 64, 0
5, 57779, Note_on_c, 3, 68, 0
5, 57779, Note_on_c, 3, 59, 0
5, 57780, Note_on_c, 3, 66, 100
5, 57780, Note_on_c, 3, 63, 100
5, 57780, Note_on_c, 3, 59, 100
5, 58079, Note_on_c, 3, 59, 0
5, 58079, Note_on_c, 3, 63, 0
5, 58079, Note_on_c, 3, 66, 0
5, 58080, Note_on_c, 3, 59, 100
5, 58080, Note_on_c, 3, 68, 100
5, 58080, Note_on_c, 3, 64, 100
5, 58259, Note_on_c, 3, 64, 0
5, 58259, Note_on_c, 3, 68, 0
5, 58259, Note_on_c, 3, 59, 0
5, 58260, Note_on_c, 3, 66, 100
5, 58260, Note_on_c, 3, 63, 100
5, 58260, Note_on_c, 3, 59, 100
5, 58559, Note_on_c, 3, 59, 0
5, 58559, Note_on_c, 3, 63, 0
5, 58559, Note_on_c, 3, 66, 0
5, 58560, Note_on_c, 3, 57, 100
5, 58560, Note_on_c, 3, 64, 100
5, 58560, Note_on_c, 3, 61, 100
5, 58560, Note_on_c, 3, 66, 100
5, 58739, Note_on_c, 3, 66, 0
5, 58739, Note_on_c, 3, 57, 0
5, 58739, Note_on_c, 3, 64, 0
5, 58739, Note_on_c, 3, 61, 0
5, 58740, Note_on_c, 3, 59, 100
5, 58740, Note_on_c, 3, 64, 100
5, 58740, Note_on_c, 3, 68, 100
5, 59039, Note_on_c, 3, 68, 0
5, 59039, Note_on_c, 3, 64, 0
5, 59039, Note_on_c, 3, 59, 0
5, 59040, Control_c, 3, 7, 55
5, 59040, Note_on_c, 3, 59, 100
5, 59040, Note_on_c, 3, 68, 100
5, 59040, Note_on_c, 3, 64, 100
5, 59074, Control_c, 3, 7, 54
5, 59109, Control_c, 3, 7, 53
5, 59144, Control_c, 3, 7, 52
5, 59179, Control_c, 3, 7, 51
5, 59214, Control_c, 3, 7, 50
5, 59219, Note_on_c, 3, 64, 0
5, 59219, Note_on_c, 3, 68, 0
5, 59219, Note_on_c, 3, 59, 0
5, 59220, Note_on_c, 3, 66, 100
5, 59220, Note_on_c, 3, 63, 100
5, 59220, Note_on_c, 3, 59, 100
5, 59249, Control_c, 3, 7, 49
5, 59284, Control_c, 3, 7, 48
5, 59319, Control_c, 3, 7, 47
5, 59354, Control_c, 3, 7, 46
5, 59388, Control_c, 3, 7, 45
5, 59423, Control_c, 3, 7, 44
5, 59458, Control_c, 3, 7, 43
5, 59493, Control_c, 3, 7, 42
5, 59519, Note_on_c, 3, 59, 0
5, 59519, Note_on_c, 3, 63, 0
5, 59519, Note_on_c, 3, 66, 0
5, 59520, Note_on_c, 3, 59, 100
5, 59520, Note_on_c, 3, 68, 100
5, 59520, Note_on_c, 3, 64, 100
5, 59528, Control_c, 3, 7, 41
5, 59563, Control_c, 3, 7, 40
5, 59598, Control_c, 3, 7, 39
5, 59633, Control_c, 3, 7, 38
5, 59668, Control_c, 3, 7, 37
5, 59699, Note_on_c, 3, 64, 0
5, 59699, Note_on_c, 3, 68, 0
5, 59699, Note_on_c, 3, 59, 0
5, 59700, Note_on_c, 3, 66, 100
5, 59700, Note_on_c, 3, 63, 100
5, 59700, Note_on_c, 3, 59, 100
5, 59702, Control_c, 3, 7, 36
5, 59737, Control_c, 3, 7, 35
5, 59772, Control_c, 3, 7, 34
5, 59807, Control_c, 3, 7, 33
5, 59842, Control_c, 3, 7, 32
5, 59877, Control_c, 3, 7, 31
5, 59912, Control_c, 3, 7, 30
5, 59947, Control_c, 3, 7, 29
5, 59982, Control_c, 3, 7, 28
5, 59999, Note_on_c, 3, 59, 0
5, 59999, Note_on_c, 3, 63, 0
5, 59999, Note_on_c, 3, 66, 0
5, 60000, Note_on_c, 3, 59, 100
5, 60000, Note_on_c, 3, 68, 100
5, 60000, Note_on_c, 3, 64, 100
5, 60016, Control_c, 3, 7, 27
5, 60051, Control_c, 3, 7, 26
5, 60086, Control_c, 3, 7, 25
5, 60121, Control_c, 3, 7, 24
5, 60156, Control_c, 3, 7, 23
5, 60179, Note_on_c, 3, 64, 0
5, 60179, Note_on_c, 3, 68, 0
5, 60179, Note_on_c, 3, 59, 0
5, 60180, Note_on_c, 3, 66, 100
5, 60180, Note_on_c, 3, 63, 100
5, 60180, Note_on_c, 3, 59, 100
5, 60191, Control_c, 3, 7, 22
5, 60226, Control_c, 3, 7, 21
5, 60261, Control_c, 3, 7, 20
5, 60296, Control_c, 3, 7, 19
5, 60330, Control_c, 3, 7, 18
5, 60365, Control_c, 3, 7, 17
5, 60400, Control_c, 3, 7, 16
5, 60435, Control_c, 3, 7, 15
5, 60470, Control_c, 3, 7, 14
5, 60479, Note_on_c, 3, 59, 0
5, 60479, Note_on_c, 3, 63, 0
5, 60479, Note_on_c, 3, 66, 0
5, 60480, Note_on_c, 3, 57, 100
5, 60480, Note_on_c, 3, 64, 100
5, 60480, Note_on_c, 3, 61, 100
5, 60480, Note_on_c, 3, 66, 100
5, 60505, Control_c, 3, 7, 13
5, 60540, Control_c, 3, 7, 12
5, 60575, Control_c, 3, 7, 11
5, 60610, Control_c, 3, 7, 10
5, 60644, Control_c, 3, 7, 9
5, 60659, Note_on_c, 3, 66, 0
5, 60659, Note_on_c, 3, 57, 0
5, 60659, Note_on_c, 3, 64, 0
5, 60659, Note_on_c, 3, 61, 0
5, 60660, Note_on_c, 3, 59, 100
5, 60660, Note_on_c, 3, 64, 100
5, 60660, Note_on_c, 3, 68, 100
5, 60679, Control_c, 3, 7, 8
5, 60714, Control_c, 3, 7, 7
5, 60749, Control_c, 3, 7, 6
5, 60784, Control_c, 3, 7, 5
5, 60819, Control_c, 3, 7, 4
5, 60854, Control_c, 3, 7, 3
5, 60889, Control_c, 3, 7, 2
5, 60924, Control_c, 3, 7, 1
5, 60959, Note_on_c, 3, 68, 0
5, 60959, Note_on_c, 3, 64, 0
5, 60959, Note_on_c, 3, 59, 0
5, 60959, Control_c, 3, 7, 0
5, 60959, End_track
6, 0, Start_track
6, 0, MIDI_port, 0
6, 0, Title_t, "Bass"
6, 0, Program_c, 4, 33
6, 0, Control_c, 4, 7, 85
6, 4680, Note_on_c, 4, 52, 100
6, 4799, Note_on_c, 4, 52, 0
6, 4800, Note_on_c, 4, 44, 100
6, 4979, Note_on_c, 4, 44, 0
6, 4980, Note_on_c, 4, 47, 100
6, 5279, Note_on_c, 4, 47, 0
6, 5280, Note_on_c, 4, 40, 100
6, 5459, Note_on_c, 4, 40, 0
6, 5460, Note_on_c, 4, 47, 100
6, 5759, Note_on_c, 4, 47, 0
6, 5760, Note_on_c, 4, 44, 100
6, 5939, Note_on_c, 4, 44, 0
6, 5940, Note_on_c, 4, 47, 100
6, 6239, Note_on_c, 4, 47, 0
6, 6240, Note_on_c, 4, 42, 100
6, 6419, Note_on_c, 4, 42, 0
6, 6420, Note_on_c, 4, 40, 100
6, 6719, Note_on_c, 4, 40, 0
6, 6720, Note_on_c, 4, 44, 100
6, 6899, Note_on_c, 4, 44, 0
6, 6900, Note_on_c, 4, 47, 100
6, 7199, Note_on_c, 4, 47, 0
6, 7200, Note_on_c, 4, 40, 100
6, 7379, Note_on_c, 4, 40, 0
6, 7380, Note_on_c, 4, 47, 100
6, 7679, Note_on_c, 4, 47, 0
6, 7680, Note_on_c, 4, 44, 100
6, 7859, Note_on_c, 4, 44, 0
6, 7860, Note_on_c, 4, 47, 100
6, 8159, Note_on_c, 4, 47, 0
6, 8160, Note_on_c, 4, 40, 100
6, 8339, Note_on_c, 4, 40, 0
6, 8340, Note_on_c, 4, 40, 100
6, 8639, Note_on_c, 4, 40, 0
6, 8640, Note_on_c, 4, 52, 100
6, 8819, Note_on_c, 4, 52, 0
6, 8820, Note_on_c, 4, 52, 100
6, 9119, Note_on_c, 4, 52, 0
6, 9120, Note_on_c, 4, 47, 100
6, 9299, Note_on_c, 4, 47, 0
6, 9300, Note_on_c, 4, 47, 100
6, 9599, Note_on_c, 4, 47, 0
6, 9600, Note_on_c, 4, 40, 100
6, 9779, Note_on_c, 4, 40, 0
6, 9780, Note_on_c, 4, 40, 100
6, 10079, Note_on_c, 4, 40, 0
6, 10080, Note_on_c, 4, 40, 100
6, 10259, Note_on_c, 4, 40, 0
6, 10260, Note_on_c, 4, 40, 100
6, 10559, Note_on_c, 4, 40, 0
6, 10560, Note_on_c, 4, 42, 100
6, 10739, Note_on_c, 4, 42, 0
6, 10740, Note_on_c, 4, 40, 100
6, 11039, Note_on_c, 4, 40, 0
6, 11040, Note_on_c, 4, 47, 100
6, 11219, Note_on_c, 4, 47, 0
6, 11220, Note_on_c, 4, 47, 100
6, 11519, Note_on_c, 4, 47, 0
6, 11520, Note_on_c, 4, 40, 100
6, 11699, Note_on_c, 4, 40, 0
6, 11700, Note_on_c, 4, 40, 100
6, 11999, Note_on_c, 4, 40, 0
6, 12000, Note_on_c, 4, 40, 100
6, 12179, Note_on_c, 4, 40, 0
6, 12180, Note_on_c, 4, 40, 100
6, 12479, Note_on_c, 4, 40, 0
6, 12480, Note_on_c, 4, 42, 100
6, 12659, Note_on_c, 4, 42, 0
6, 12660, Note_on_c, 4, 40, 100
6, 12959, Note_on_c, 4, 40, 0
6, 12960, Note_on_c, 4, 42, 100
6, 13079, Note_on_c, 4, 42, 0
6, 13080, Note_on_c, 4, 54, 100
6, 13139, Note_on_c, 4, 54, 0
6, 13140, Note_on_c, 4, 42, 100
6, 13199, Note_on_c, 4, 42, 0
6, 13200, Note_on_c, 4, 42, 100
6, 13319, Note_on_c, 4, 42, 0
6, 13320, Note_on_c, 4, 54, 100
6, 13379, Note_on_c, 4, 54, 0
6, 13380, Note_on_c, 4, 42, 100
6, 13439, Note_on_c, 4, 42, 0
6, 13440, Note_on_c, 4, 42, 100
6, 13559, Note_on_c, 4, 42, 0
6, 13560, Note_on_c, 4, 54, 100
6, 13619, Note_on_c, 4, 54, 0
6, 13620, Note_on_c, 4, 42, 100
6, 13679, Note_on_c, 4, 42, 0
6, 13680, Note_on_c, 4, 42, 100
6, 13799, Note_on_c, 4, 42, 0
6, 13800, Note_on_c, 4, 54, 100
6, 13859, Note_on_c, 4, 54, 0
6, 13860, Note_on_c, 4, 42, 100
6, 13919, Note_on_c, 4, 42, 0
6, 13920, Note_on_c, 4, 40, 100
6, 14039, Note_on_c, 4, 40, 0
6, 14040, Note_on_c, 4, 52, 100
6, 14099, Note_on_c, 4, 52, 0
6, 14100, Note_on_c, 4, 40, 100
6, 14159, Note_on_c, 4, 40, 0
6, 14160, Note_on_c, 4, 40, 100
6, 14279, Note_on_c, 4, 40, 0
6, 14280, Note_on_c, 4, 52, 100
6, 14339, Note_on_c, 4, 52, 0
6, 14340, Note_on_c, 4, 40, 100
6, 14399, Note_on_c, 4, 40, 0
6, 14400, Note_on_c, 4, 40, 100
6, 14519, Note_on_c, 4, 40, 0
6, 14520, Note_on_c, 4, 52, 100
6, 14579, Note_on_c, 4, 52, 0
6, 14580, Note_on_c, 4, 40, 100
6, 14639, Note_on_c, 4, 40, 0
6, 14640, Note_on_c, 4, 40, 100
6, 14759, Note_on_c, 4, 40, 0
6, 14760, Note_on_c, 4, 52, 100
6, 14819, Note_on_c, 4, 52, 0
6, 14820, Note_on_c, 4, 40, 100
6, 14879, Note_on_c, 4, 40, 0
6, 14880, Note_on_c, 4, 42, 100
6, 14999, Note_on_c, 4, 42, 0
6, 15000, Note_on_c, 4, 54, 100
6, 15059, Note_on_c, 4, 54, 0
6, 15060, Note_on_c, 4, 42, 100
6, 15119, Note_on_c, 4, 42, 0
6, 15120, Note_on_c, 4, 42, 100
6, 15239, Note_on_c, 4, 42, 0
6, 15240, Note_on_c, 4, 54, 100
6, 15299, Note_on_c, 4, 54, 0
6, 15300, Note_on_c, 4, 42, 100
6, 15359, Note_on_c, 4, 42, 0
6, 15360, Note_on_c, 4, 42, 100
6, 15479, Note_on_c, 4, 42, 0
6, 15480, Note_on_c, 4, 54, 100
6, 15539, Note_on_c, 4, 54, 0
6, 15540, Note_on_c, 4, 42, 100
6, 15599, Note_on_c, 4, 42, 0
6, 15600, Note_on_c, 4, 42, 100
6, 15719, Note_on_c, 4, 42, 0
6, 15720, Note_on_c, 4, 54, 100
6, 15779, Note_on_c, 4, 54, 0
6, 15780, Note_on_c, 4, 42, 100
6, 15839, Note_on_c, 4, 42, 0
6, 15840, Note_on_c, 4, 40, 100
6, 15959, Note_on_c, 4, 40, 0
6, 15960, Note_on_c, 4, 52, 100
6, 16019, Note_on_c, 4, 52, 0
6, 16020, Note_on_c, 4, 40, 100
6, 16079, Note_on_c, 4, 40, 0
6, 16080, Note_on_c, 4, 40, 100
6, 16199, Note_on_c, 4, 40, 0
6, 16200, Note_on_c, 4, 52, 100
6, 16259, Note_on_c, 4, 52, 0
6, 16260, Note_on_c, 4, 40, 100
6, 16319, Note_on_c, 4, 40, 0
6, 16320, Note_on_c, 4, 42, 100
6, 16559, Note_on_c, 4, 42, 0
6, 16560, Note_on_c, 4, 42, 100
6, 16679, Note_on_c, 4, 42, 0
6, 16680, Note_on_c, 4, 42, 100
6, 16799, Note_on_c, 4, 42, 0
6, 16800, Note_on_c, 4, 44, 100
6, 16979, Note_on_c, 4, 44, 0
6, 16980, Note_on_c, 4, 47, 100
6, 17279, Note_on_c, 4, 47, 0
6, 17280, Note_on_c, 4, 40, 100
6, 17459, Note_on_c, 4, 40, 0
6, 17460, Note_on_c, 4, 47, 100
6, 17759, Note_on_c, 4, 47, 0
6, 17760, Note_on_c, 4, 44, 100
6, 17939, Note_on_c, 4, 44, 0
6, 17940, Note_on_c, 4, 47, 100
6, 18239, Note_on_c, 4, 47, 0
6, 18240, Note_on_c, 4, 40, 100
6, 18419, Note_on_c, 4, 40, 0
6, 18420, Note_on_c, 4, 40, 100
6, 18599, Note_on_c, 4, 40, 0
6, 18600, Note_on_c, 4, 52, 100
6, 18659, Note_on_c, 4, 52, 0
6, 18660, Note_on_c, 4, 40, 100
6, 18719, Note_on_c, 4, 40, 0
6, 18720, Note_on_c, 4, 44, 100
6, 18899, Note_on_c, 4, 44, 0
6, 18900, Note_on_c, 4, 47, 100
6, 19199, Note_on_c, 4, 47, 0
6, 19200, Note_on_c, 4, 40, 100
6, 19379, Note_on_c, 4, 40, 0
6, 19380, Note_on_c, 4, 47, 100
6, 19679, Note_on_c, 4, 47, 0
6, 19680, Note_on_c, 4, 42, 100
6, 20159, Note_on_c, 4, 42, 0
6, 20160, Note_on_c, 4, 40, 100
6, 20639, Note_on_c, 4, 40, 0
6, 20640, Note_on_c, 4, 47, 100
6, 20819, Note_on_c, 4, 47, 0
6, 20820, Note_on_c, 4, 47, 100
6, 21119, Note_on_c, 4, 47, 0
6, 21120, Note_on_c, 4, 40, 100
6, 21299, Note_on_c, 4, 40, 0
6, 21300, Note_on_c, 4, 40, 100
6, 21599, Note_on_c, 4, 40, 0
6, 21600, Note_on_c, 4, 40, 100
6, 21779, Note_on_c, 4, 40, 0
6, 21780, Note_on_c, 4, 40, 100
6, 22079, Note_on_c, 4, 40, 0
6, 22080, Note_on_c, 4, 42, 100
6, 22259, Note_on_c, 4, 42, 0
6, 22260, Note_on_c, 4, 40, 100
6, 22559, Note_on_c, 4, 40, 0
6, 22560, Note_on_c, 4, 47, 100
6, 22739, Note_on_c, 4, 47, 0
6, 22740, Note_on_c, 4, 47, 100
6, 23039, Note_on_c, 4, 47, 0
6, 23040, Note_on_c, 4, 40, 100
6, 23219, Note_on_c, 4, 40, 0
6, 23220, Note_on_c, 4, 40, 100
6, 23519, Note_on_c, 4, 40, 0
6, 23520, Note_on_c, 4, 40, 100
6, 23699, Note_on_c, 4, 40, 0
6, 23700, Note_on_c, 4, 40, 100
6, 23999, Note_on_c, 4, 40, 0
6, 24000, Note_on_c, 4, 42, 100
6, 24179, Note_on_c, 4, 42, 0
6, 24180, Note_on_c, 4, 40, 100
6, 24479, Note_on_c, 4, 40, 0
6, 24480, Note_on_c, 4, 42, 100
6, 24599, Note_on_c, 4, 42, 0
6, 24600, Note_on_c, 4, 54, 100
6, 24659, Note_on_c, 4, 54, 0
6, 24660, Note_on_c, 4, 42, 100
6, 24719, Note_on_c, 4, 42, 0
6, 24720, Note_on_c, 4, 42, 100
6, 24839, Note_on_c, 4, 42, 0
6, 24840, Note_on_c, 4, 54, 100
6, 24899, Note_on_c, 4, 54, 0
6, 24900, Note_on_c, 4, 42, 100
6, 24959, Note_on_c, 4, 42, 0
6, 24960, Note_on_c, 4, 42, 100
6, 25079, Note_on_c, 4, 42, 0
6, 25080, Note_on_c, 4, 54, 100
6, 25139, Note_on_c, 4, 54, 0
6, 25140, Note_on_c, 4, 42, 100
6, 25199, Note_on_c, 4, 42, 0
6, 25200, Note_on_c, 4, 42, 100
6, 25319, Note_on_c, 4, 42, 0
6, 25320, Note_on_c, 4, 54, 100
6, 25379, Note_on_c, 4, 54, 0
6, 25380, Note_on_c, 4, 42, 100
6, 25439, Note_on_c, 4, 42, 0
6, 25440, Note_on_c, 4, 40, 100
6, 25559, Note_on_c, 4, 40, 0
6, 25560, Note_on_c, 4, 52, 100
6, 25619, Note_on_c, 4, 52, 0
6, 25620, Note_on_c, 4, 40, 100
6, 25679, Note_on_c, 4, 40, 0
6, 25680, Note_on_c, 4, 40, 100
6, 25799, Note_on_c, 4, 40, 0
6, 25800, Note_on_c, 4, 52, 100
6, 25859, Note_on_c, 4, 52, 0
6, 25860, Note_on_c, 4, 40, 100
6, 25919, Note_on_c, 4, 40, 0
6, 25920, Note_on_c, 4, 40, 100
6, 26039, Note_on_c, 4, 40, 0
6, 26040, Note_on_c, 4, 52, 100
6, 26099, Note_on_c, 4, 52, 0
6, 26100, Note_on_c, 4, 40, 100
6, 26159, Note_on_c, 4, 40, 0
6, 26160, Note_on_c, 4, 40, 100
6, 26279, Note_on_c, 4, 40, 0
6, 26280, Note_on_c, 4, 52, 100
6, 26339, Note_on_c, 4, 52, 0
6, 26340, Note_on_c, 4, 40, 100
6, 26399, Note_on_c, 4, 40, 0
6, 26400, Note_on_c, 4, 42, 100
6, 26519, Note_on_c, 4, 42, 0
6, 26520, Note_on_c, 4, 54, 100
6, 26579, Note_on_c, 4, 54, 0
6, 26580, Note_on_c, 4, 42, 100
6, 26639, Note_on_c, 4, 42, 0
6, 26640, Note_on_c, 4, 42, 100
6, 26759, Note_on_c, 4, 42, 0
6, 26760, Note_on_c, 4, 54, 100
6, 26819, Note_on_c, 4, 54, 0
6, 26820, Note_on_c, 4, 42, 100
6, 26879, Note_on_c, 4, 42, 0
6, 26880, Note_on_c, 4, 42, 100
6, 26999, Note_on_c, 4, 42, 0
6, 27000, Note_on_c, 4, 54, 100
6, 27059, Note_on_c, 4, 54, 0
6, 27060, Note_on_c, 4, 42, 100
6, 27119, Note_on_c, 4, 42, 0
6, 27120, Note_on_c, 4, 42, 100
6, 27239, Note_on_c, 4, 42, 0
6, 27240, Note_on_c, 4, 54, 100
6, 27299, Note_on_c, 4, 54, 0
6, 27300, Note_on_c, 4, 42, 100
6, 27359, Note_on_c, 4, 42, 0
6, 27360, Note_on_c, 4, 40, 100
6, 27479, Note_on_c, 4, 40, 0
6, 27480, Note_on_c, 4, 52, 100
6, 27539, Note_on_c, 4, 52, 0
6, 27540, Note_on_c, 4, 40, 100
6, 27599, Note_on_c, 4, 40, 0
6, 27600, Note_on_c, 4, 40, 100
6, 27719, Note_on_c, 4, 40, 0
6, 27720, Note_on_c, 4, 52, 100
6, 27779, Note_on_c, 4, 52, 0
6, 27780, Note_on_c, 4, 40, 100
6, 27839, Note_on_c, 4, 40, 0
6, 27840, Note_on_c, 4, 42, 100
6, 28079, Note_on_c, 4, 42, 0
6, 28080, Note_on_c, 4, 42, 100
6, 28199, Note_on_c, 4, 42, 0
6, 28200, Note_on_c, 4, 42, 100
6, 28319, Note_on_c, 4, 42, 0
6, 28320, Note_on_c, 4, 44, 100
6, 28499, Note_on_c, 4, 44, 0
6, 28500, Note_on_c, 4, 47, 100
6, 28799, Note_on_c, 4, 47, 0
6, 28800, Note_on_c, 4, 40, 100
6, 28979, Note_on_c, 4, 40, 0
6, 28980, Note_on_c, 4, 47, 100
6, 29279, Note_on_c, 4, 47, 0
6, 29280, Note_on_c, 4, 44, 100
6, 29459, Note_on_c, 4, 44, 0
6, 29460, Note_on_c, 4, 47, 100
6, 29759, Note_on_c, 4, 47, 0
6, 29760, Note_on_c, 4, 40, 100
6, 29939, Note_on_c, 4, 40, 0
6, 29940, Note_on_c, 4, 40, 100
6, 30119, Note_on_c, 4, 40, 0
6, 30120, Note_on_c, 4, 52, 100
6, 30179, Note_on_c, 4, 52, 0
6, 30180, Note_on_c, 4, 40, 100
6, 30239, Note_on_c, 4, 40, 0
6, 30240, Note_on_c, 4, 44, 100
6, 30419, Note_on_c, 4, 44, 0
6, 30420, Note_on_c, 4, 47, 100
6, 30719, Note_on_c, 4, 47, 0
6, 30720, Note_on_c, 4, 40, 100
6, 30899, Note_on_c, 4, 40, 0
6, 30900, Note_on_c, 4, 47, 100
6, 31199, Note_on_c, 4, 47, 0
6, 31200, Note_on_c, 4, 42, 100
6, 31679, Note_on_c, 4, 42, 0
6, 31680, Note_on_c, 4, 40, 100
6, 32159, Note_on_c, 4, 40, 0
6, 32160, Note_on_c, 4, 54, 100
6, 32339, Note_on_c, 4, 54, 0
6, 32340, Note_on_c, 4, 45, 100
6, 32519, Note_on_c, 4, 45, 0
6, 32520, Note_on_c, 4, 45, 100
6, 32639, Note_on_c, 4, 45, 0
6, 32640, Note_on_c, 4, 50, 100
6, 32819, Note_on_c, 4, 50, 0
6, 32820, Note_on_c, 4, 45, 100
6, 32999, Note_on_c, 4, 45, 0
6, 33000, Note_on_c, 4, 45, 100
6, 33119, Note_on_c, 4, 45, 0
6, 33120, Note_on_c, 4, 54, 100
6, 33299, Note_on_c, 4, 54, 0
6, 33300, Note_on_c, 4, 45, 100
6, 33479, Note_on_c, 4, 45, 0
6, 33480, Note_on_c, 4, 45, 100
6, 33599, Note_on_c, 4, 45, 0
6, 33600, Note_on_c, 4, 50, 100
6, 33779, Note_on_c, 4, 50, 0
6, 33780, Note_on_c, 4, 50, 100
6, 33959, Note_on_c, 4, 50, 0
6, 33960, Note_on_c, 4, 45, 100
6, 34079, Note_on_c, 4, 45, 0
6, 34080, Note_on_c, 4, 54, 100
6, 34259, Note_on_c, 4, 54, 0
6, 34260, Note_on_c, 4, 45, 100
6, 34439, Note_on_c, 4, 45, 0
6, 34440, Note_on_c, 4, 45, 100
6, 34559, Note_on_c, 4, 45, 0
6, 34560, Note_on_c, 4, 50, 100
6, 34739, Note_on_c, 4, 50, 0
6, 34740, Note_on_c, 4, 45, 100
6, 34919, Note_on_c, 4, 45, 0
6, 34920, Note_on_c, 4, 45, 100
6, 35039, Note_on_c, 4, 45, 0
6, 35040, Note_on_c, 4, 54, 100
6, 35219, Note_on_c, 4, 54, 0
6, 35220, Note_on_c, 4, 45, 100
6, 35399, Note_on_c, 4, 45, 0
6, 35400, Note_on_c, 4, 45, 100
6, 35519, Note_on_c, 4, 45, 0
6, 35520, Note_on_c, 4, 52, 100
6, 35699, Note_on_c, 4, 52, 0
6, 35700, Note_on_c, 4, 38, 100
6, 35999, Note_on_c, 4, 38, 0
6, 36000, Note_on_c, 4, 54, 100
6, 36179, Note_on_c, 4, 54, 0
6, 36180, Note_on_c, 4, 45, 100
6, 36359, Note_on_c, 4, 45, 0
6, 36360, Note_on_c, 4, 45, 100
6, 36479, Note_on_c, 4, 45, 0
6, 36480, Note_on_c, 4, 50, 100
6, 36659, Note_on_c, 4, 50, 0
6, 36660, Note_on_c, 4, 45, 100
6, 36839, Note_on_c, 4, 45, 0
6, 36840, Note_on_c, 4, 45, 100
6, 36959, Note_on_c, 4, 45, 0
6, 36960, Note_on_c, 4, 54, 100
6, 37139, Note_on_c, 4, 54, 0
6, 37140, Note_on_c, 4, 45, 100
6, 37319, Note_on_c, 4, 45, 0
6, 37320, Note_on_c, 4, 45, 100
6, 37439, Note_on_c, 4, 45, 0
6, 37440, Note_on_c, 4, 52, 100
6, 37619, Note_on_c, 4, 52, 0
6, 37620, Note_on_c, 4, 50, 100
6, 37799, Note_on_c, 4, 50, 0
6, 37800, Note_on_c, 4, 50, 100
6, 37919, Note_on_c, 4, 50, 0
6, 37920, Note_on_c, 4, 54, 100
6, 38099, Note_on_c, 4, 54, 0
6, 38100, Note_on_c, 4, 45, 100
6, 38279, Note_on_c, 4, 45, 0
6, 38280, Note_on_c, 4, 45, 100
6, 38399, Note_on_c, 4, 45, 0
6, 38400, Note_on_c, 4, 50, 100
6, 38579, Note_on_c, 4, 50, 0
6, 38580, Note_on_c, 4, 45, 100
6, 38759, Note_on_c, 4, 45, 0
6, 38760, Note_on_c, 4, 45, 100
6, 38879, Note_on_c, 4, 45, 0
6, 38880, Note_on_c, 4, 54, 100
6, 39059, Note_on_c, 4, 54, 0
6, 39060, Note_on_c, 4, 45, 100
6, 39239, Note_on_c, 4, 45, 0
6, 39240, Note_on_c, 4, 45, 100
6, 39359, Note_on_c, 4, 45, 0
6, 39360, Note_on_c, 4, 38, 100
6, 39479, Note_on_c, 4, 38, 0
6, 39480, Note_on_c, 4, 38, 100
6, 39599, Note_on_c, 4, 38, 0
6, 39600, Note_on_c, 4, 40, 100
6, 39839, Note_on_c, 4, 40, 0
6, 39840, Note_on_c, 4, 42, 100
6, 39959, Note_on_c, 4, 42, 0
6, 39960, Note_on_c, 4, 54, 100
6, 40019, Note_on_c, 4, 54, 0
6, 40020, Note_on_c, 4, 42, 100
6, 40079, Note_on_c, 4, 42, 0
6, 40080, Note_on_c, 4, 42, 100
6, 40199, Note_on_c, 4, 42, 0
6, 40200, Note_on_c, 4, 54, 100
6, 40259, Note_on_c, 4, 54, 0
6, 40260, Note_on_c, 4, 42, 100
6, 40319, Note_on_c, 4, 42, 0
6, 40320, Note_on_c, 4, 42, 100
6, 40439, Note_on_c, 4, 42, 0
6, 40440, Note_on_c, 4, 54, 100
6, 40499, Note_on_c, 4, 54, 0
6, 40500, Note_on_c, 4, 42, 100
6, 40559, Note_on_c, 4, 42, 0
6, 40560, Note_on_c, 4, 42, 100
6, 40679, Note_on_c, 4, 42, 0
6, 40680, Note_on_c, 4, 54, 100
6, 40739, Note_on_c, 4, 54, 0
6, 40740, Note_on_c, 4, 42, 100
6, 40799, Note_on_c, 4, 42, 0
6, 40800, Note_on_c, 4, 40, 100
6, 40919, Note_on_c, 4, 40, 0
6, 40920, Note_on_c, 4, 52, 100
6, 40979, Note_on_c, 4, 52, 0
6, 40980, Note_on_c, 4, 40, 100
6, 41039, Note_on_c, 4, 40, 0
6, 41040, Note_on_c, 4, 40, 100
6, 41159, Note_on_c, 4, 40, 0
6, 41160, Note_on_c, 4, 52, 100
6, 41219, Note_on_c, 4, 52, 0
6, 41220, Note_on_c, 4, 40, 100
6, 41279, Note_on_c, 4, 40, 0
6, 41280, Note_on_c, 4, 40, 100
6, 41399, Note_on_c, 4, 40, 0
6, 41400, Note_on_c, 4, 52, 100
6, 41459, Note_on_c, 4, 52, 0
6, 41460, Note_on_c, 4, 40, 100
6, 41519, Note_on_c, 4, 40, 0
6, 41520, Note_on_c, 4, 40, 100
6, 41639, Note_on_c, 4, 40, 0
6, 41640, Note_on_c, 4, 52, 100
6, 41699, Note_on_c, 4, 52, 0
6, 41700, Note_on_c, 4, 40, 100
6, 41759, Note_on_c, 4, 40, 0
6, 41760, Note_on_c, 4, 42, 100
6, 41879, Note_on_c, 4, 42, 0
6, 41880, Note_on_c, 4, 54, 100
6, 41939, Note_on_c, 4, 54, 0
6, 41940, Note_on_c, 4, 42, 100
6, 41999, Note_on_c, 4, 42, 0
6, 42000, Note_on_c, 4, 42, 100
6, 42119, Note_on_c, 4, 42, 0
6, 42120, Note_on_c, 4, 54, 100
6, 42179, Note_on_c, 4, 54, 0
6, 42180, Note_on_c, 4, 42, 100
6, 42239, Note_on_c, 4, 42, 0
6, 42240, Note_on_c, 4, 42, 100
6, 42359, Note_on_c, 4, 42, 0
6, 42360, Note_on_c, 4, 54, 100
6, 42419, Note_on_c, 4, 54, 0
6, 42420, Note_on_c, 4, 42, 100
6, 42479, Note_on_c, 4, 42, 0
6, 42480, Note_on_c, 4, 42, 100
6, 42599, Note_on_c, 4, 42, 0
6, 42600, Note_on_c, 4, 54, 100
6, 42659, Note_on_c, 4, 54, 0
6, 42660, Note_on_c, 4, 42, 100
6, 42719, Note_on_c, 4, 42, 0
6, 42720, Note_on_c, 4, 40, 100
6, 42839, Note_on_c, 4, 40, 0
6, 42840, Note_on_c, 4, 52, 100
6, 42899, Note_on_c, 4, 52, 0
6, 42900, Note_on_c, 4, 40, 100
6, 42959, Note_on_c, 4, 40, 0
6, 42960, Note_on_c, 4, 40, 100
6, 43079, Note_on_c, 4, 40, 0
6, 43080, Note_on_c, 4, 52, 100
6, 43139, Note_on_c, 4, 52, 0
6, 43140, Note_on_c, 4, 40, 100
6, 43199, Note_on_c, 4, 40, 0
6, 43200, Note_on_c, 4, 42, 100
6, 43439, Note_on_c, 4, 42, 0
6, 43440, Note_on_c, 4, 42, 100
6, 43559, Note_on_c, 4, 42, 0
6, 43560, Note_on_c, 4, 42, 100
6, 43679, Note_on_c, 4, 42, 0
6, 43680, Note_on_c, 4, 44, 100
6, 43859, Note_on_c, 4, 44, 0
6, 43860, Note_on_c, 4, 47, 100
6, 44159, Note_on_c, 4, 47, 0
6, 44160, Note_on_c, 4, 40, 100
6, 44339, Note_on_c, 4, 40, 0
6, 44340, Note_on_c, 4, 47, 100
6, 44639, Note_on_c, 4, 47, 0
6, 44640, Note_on_c, 4, 44, 100
6, 44819, Note_on_c, 4, 44, 0
6, 44820, Note_on_c, 4, 47, 100
6, 45119, Note_on_c, 4, 47, 0
6, 45120, Note_on_c, 4, 40, 100
6, 45299, Note_on_c, 4, 40, 0
6, 45300, Note_on_c, 4, 40, 100
6, 45479, Note_on_c, 4, 40, 0
6, 45480, Note_on_c, 4, 52, 100
6, 45539, Note_on_c, 4, 52, 0
6, 45540, Note_on_c, 4, 40, 100
6, 45599, Note_on_c, 4, 40, 0
6, 45600, Note_on_c, 4, 44, 100
6, 45779, Note_on_c, 4, 44, 0
6, 45780, Note_on_c, 4, 47, 100
6, 46079, Note_on_c, 4, 47, 0
6, 46080, Note_on_c, 4, 40, 100
6, 46259, Note_on_c, 4, 40, 0
6, 46260, Note_on_c, 4, 47, 100
6, 46559, Note_on_c, 4, 47, 0
6, 46560, Note_on_c, 4, 42, 100
6, 47039, Note_on_c, 4, 42, 0
6, 47040, Note_on_c, 4, 40, 100
6, 47519, Note_on_c, 4, 40, 0
6, 47520, Note_on_c, 4, 44, 100
6, 47699, Note_on_c, 4, 44, 0
6, 47700, Note_on_c, 4, 35, 100
6, 47879, Note_on_c, 4, 35, 0
6, 47880, Note_on_c, 4, 47, 100
6, 47999, Note_on_c, 4, 47, 0
6, 48000, Note_on_c, 4, 40, 100
6, 48179, Note_on_c, 4, 40, 0
6, 48180, Note_on_c, 4, 35, 100
6, 48359, Note_on_c, 4, 35, 0
6, 48360, Note_on_c, 4, 47, 100
6, 48479, Note_on_c, 4, 47, 0
6, 48480, Note_on_c, 4, 44, 100
6, 48659, Note_on_c, 4, 44, 0
6, 48660, Note_on_c, 4, 35, 100
6, 48839, Note_on_c, 4, 35, 0
6, 48840, Note_on_c, 4, 47, 100
6, 48959, Note_on_c, 4, 47, 0
6, 48960, Note_on_c, 4, 42, 100
6, 49139, Note_on_c, 4, 42, 0
6, 49140, Note_on_c, 4, 40, 100
6, 49319, Note_on_c, 4, 40, 0
6, 49320, Note_on_c, 4, 52, 100
6, 49439, Note_on_c, 4, 52, 0
6, 49440, Note_on_c, 4, 44, 100
6, 49619, Note_on_c, 4, 44, 0
6, 49620, Note_on_c, 4, 35, 100
6, 49799, Note_on_c, 4, 35, 0
6, 49800, Note_on_c, 4, 47, 100
6, 49919, Note_on_c, 4, 47, 0
6, 49920, Note_on_c, 4, 40, 100
6, 50099, Note_on_c, 4, 40, 0
6, 50100, Note_on_c, 4, 35, 100
6, 50279, Note_on_c, 4, 35, 0
6, 50280, Note_on_c, 4, 47, 100
6, 50399, Note_on_c, 4, 47, 0
6, 50400, Note_on_c, 4, 44, 100
6, 50579, Note_on_c, 4, 44, 0
6, 50580, Note_on_c, 4, 35, 100
6, 50759, Note_on_c, 4, 35, 0
6, 50760, Note_on_c, 4, 47, 100
6, 50879, Note_on_c, 4, 47, 0
6, 50880, Note_on_c, 4, 42, 100
6, 51059, Note_on_c, 4, 42, 0
6, 51060, Note_on_c, 4, 40, 100
6, 51239, Note_on_c, 4, 40, 0
6, 51240, Note_on_c, 4, 52, 100
6, 51359, Note_on_c, 4, 52, 0
6, 51360, Note_on_c, 4, 44, 100
6, 51539, Note_on_c, 4, 44, 0
6, 51540, Note_on_c, 4, 35, 100
6, 51719, Note_on_c, 4, 35, 0
6, 51720, Note_on_c, 4, 47, 100
6, 51839, Note_on_c, 4, 47, 0
6, 51840, Note_on_c, 4, 40, 100
6, 52019, Note_on_c, 4, 40, 0
6, 52020, Note_on_c, 4, 35, 100
6, 52199, Note_on_c, 4, 35, 0
6, 52200, Note_on_c, 4, 47, 100
6, 52319, Note_on_c, 4, 47, 0
6, 52320, Note_on_c, 4, 44, 100
6, 52499, Note_on_c, 4, 44, 0
6, 52500, Note_on_c, 4, 35, 100
6, 52679, Note_on_c, 4, 35, 0
6, 52680, Note_on_c, 4, 47, 100
6, 52799, Note_on_c, 4, 47, 0
6, 52800, Note_on_c, 4, 42, 100
6, 52979, Note_on_c, 4, 42, 0
6, 52980, Note_on_c, 4, 40, 100
6, 53159, Note_on_c, 4, 40, 0
6, 53160, Note_on_c, 4, 52, 100
6, 53279, Note_on_c, 4, 52, 0
6, 53280, Note_on_c, 4, 44, 100
6, 53459, Note_on_c, 4, 44, 0
6, 53460, Note_on_c, 4, 35, 100
6, 53639, Note_on_c, 4, 35, 0
6, 53640, Note_on_c, 4, 47, 100
6, 53759, Note_on_c, 4, 47, 0
6, 53760, Note_on_c, 4, 40, 100
6, 53939, Note_on_c, 4, 40, 0
6, 53940, Note_on_c, 4, 35, 100
6, 54119, Note_on_c, 4, 35, 0
6, 54120, Note_on_c, 4, 47, 100
6, 54239, Note_on_c, 4, 47, 0
6, 54240, Note_on_c, 4, 44, 100
6, 54419, Note_on_c, 4, 44, 0
6, 54420, Note_on_c, 4, 35, 100
6, 54599, Note_on_c, 4, 35, 0
6, 54600, Note_on_c, 4, 47, 100
6, 54719, Note_on_c, 4, 47, 0
6, 54720, Note_on_c, 4, 42, 100
6, 54899, Note_on_c, 4, 42, 0
6, 54900, Note_on_c, 4, 40, 100
6, 55079, Note_on_c, 4, 40, 0
6, 55080, Note_on_c, 4, 52, 100
6, 55199, Note_on_c, 4, 52, 0
6, 55200, Note_on_c, 4, 44, 100
6, 55379, Note_on_c, 4, 44, 0
6, 55380, Note_on_c, 4, 35, 100
6, 55559, Note_on_c, 4, 35, 0
6, 55560, Note_on_c, 4, 47, 100
6, 55679, Note_on_c, 4, 47, 0
6, 55680, Note_on_c, 4, 40, 100
6, 55859, Note_on_c, 4, 40, 0
6, 55860, Note_on_c, 4, 35, 100
6, 56039, Note_on_c, 4, 35, 0
6, 56040, Note_on_c, 4, 47, 100
6, 56159, Note_on_c, 4, 47, 0
6, 56160, Note_on_c, 4, 44, 100
6, 56339, Note_on_c, 4, 44, 0
6, 56340, Note_on_c, 4, 35, 100
6, 56519, Note_on_c, 4, 35, 0
6, 56520, Note_on_c, 4, 47, 100
6, 56639, Note_on_c, 4, 47, 0
6, 56640, Note_on_c, 4, 42, 100
6, 56819, Note_on_c, 4, 42, 0
6, 56820, Note_on_c, 4, 40, 100
6, 56999, Note_on_c, 4, 40, 0
6, 57000, Note_on_c, 4, 52, 100
6, 57119, Note_on_c, 4, 52, 0
6, 57120, Note_on_c, 4, 44, 100
6, 57299, Note_on_c, 4, 44, 0
6, 57300, Note_on_c, 4, 35, 100
6, 57479, Note_on_c, 4, 35, 0
6, 57480, Note_on_c, 4, 47, 100
6, 57599, Note_on_c, 4, 47, 0
6, 57600, Note_on_c, 4, 40, 100
6, 57779, Note_on_c, 4, 40, 0
6, 57780, Note_on_c, 4, 35, 100
6, 57959, Note_on_c, 4, 35, 0
6, 57960, Note_on_c, 4, 47, 100
6, 58079, Note_on_c, 4, 47, 0
6, 58080, Note_on_c, 4, 44, 100
6, 58259, Note_on_c, 4, 44, 0
6, 58260, Note_on_c, 4, 35, 100
6, 58439, Note_on_c, 4, 35, 0
6, 58440, Note_on_c, 4, 47, 100
6, 58559, Note_on_c, 4, 47, 0
6, 58560, Note_on_c, 4, 42, 100
6, 58739, Note_on_c, 4, 42, 0
6, 58740, Note_on_c, 4, 40, 100
6, 58919, Note_on_c, 4, 40, 0
6, 58920, Note_on_c, 4, 52, 100
6, 59039, Note_on_c, 4, 52, 0
6, 59040, Control_c, 4, 7, 85
6, 59040, Note_on_c, 4, 44, 100
6, 59062, Control_c, 4, 7, 84
6, 59085, Control_c, 4, 7, 83
6, 59107, Control_c, 4, 7, 82
6, 59130, Control_c, 4, 7, 81
6, 59152, Control_c, 4, 7, 80
6, 59175, Control_c, 4, 7, 79
6, 59198, Control_c, 4, 7, 78
6, 59219, Note_on_c, 4, 44, 0
6, 59220, Control_c, 4, 7, 77
6, 59220, Note_on_c, 4, 35, 100
6, 59243, Control_c, 4, 7, 76
6, 59265, Control_c, 4, 7, 75
6, 59288, Control_c, 4, 7, 74
6, 59310, Control_c, 4, 7, 73
6, 59333, Control_c, 4, 7, 72
6, 59356, Control_c, 4, 7, 71
6, 59378, Control_c, 4, 7, 70
6, 59399, Note_on_c, 4, 35, 0
6, 59400, Note_on_c, 4, 47, 100
6, 59401, Control_c, 4, 7, 69
6, 59423, Control_c, 4, 7, 68
6, 59446, Control_c, 4, 7, 67
6, 59468, Control_c, 4, 7, 66
6, 59491, Control_c, 4, 7, 65
6, 59514, Control_c, 4, 7, 64
6, 59519, Note_on_c, 4, 47, 0
6, 59520, Note_on_c, 4, 40, 100
6, 59536, Control_c, 4, 7, 63
6, 59559, Control_c, 4, 7, 62
6, 59581, Control_c, 4, 7, 61
6, 59604, Control_c, 4, 7, 60
6, 59626, Control_c, 4, 7, 59
6, 59649, Control_c, 4, 7, 58
6, 59672, Control_c, 4, 7, 57
6, 59694, Control_c, 4, 7, 56
6, 59699, Note_on_c, 4, 40, 0
6, 59700, Note_on_c, 4, 35, 100
6, 59717, Control_c, 4, 7, 55
6, 59739, Control_c, 4, 7, 54
6, 59762, Control_c, 4, 7, 53
6, 59785, Control_c, 4, 7, 52
6, 59807, Control_c, 4, 7, 51
6, 59830, Control_c, 4, 7, 50
6, 59852, Control_c, 4, 7, 49
6, 59875, Control_c, 4, 7, 48
6, 59879, Note_on_c, 4, 35, 0
6, 59880, Note_on_c, 4, 47, 100
6, 59897, Control_c, 4, 7, 47
6, 59920, Control_c, 4, 7, 46
6, 59943, Control_c, 4, 7, 45
6, 59965, Control_c, 4, 7, 44
6, 59988, Control_c, 4, 7, 43
6, 59999, Note_on_c, 4, 47, 0
6, 60000, Note_on_c, 4, 44, 100
6, 60010, Control_c, 4, 7, 42
6, 60033, Control_c, 4, 7, 41
6, 60055, Control_c, 4, 7, 40
6, 60078, Control_c, 4, 7, 39
6, 60101, Control_c, 4, 7, 38
6, 60123, Control_c, 4, 7, 37
6, 60146, Control_c, 4, 7, 36
6, 60168, Control_c, 4, 7, 35
6, 60179, Note_on_c, 4, 44, 0
6, 60180, Note_on_c, 4, 35, 100
6, 60191, Control_c, 4, 7, 34
6, 60213, Control_c, 4, 7, 33
6, 60236, Control_c, 4, 7, 32
6, 60259, Control_c, 4, 7, 31
6, 60281, Control_c, 4, 7, 30
6, 60304, Control_c, 4, 7, 29
6, 60326, Control_c, 4, 7, 28
6, 60349, Control_c, 4, 7, 27
6, 60359, Note_on_c, 4, 35, 0
6, 60360, Note_on_c, 4, 47, 100
6, 60372, Control_c, 4, 7, 26
6, 60394, Control_c, 4, 7, 25
6, 60417, Control_c, 4, 7, 24
6, 60439, Control_c, 4, 7, 23
6, 60462, Control_c, 4, 7, 22
6, 60479, Note_on_c, 4, 47, 0
6, 60480, Note_on_c, 4, 42, 100
6, 60484, Control_c, 4, 7, 21
6, 60507, Control_c, 4, 7, 20
6, 60530, Control_c, 4, 7, 19
6, 60552, Control_c, 4, 7, 18
6, 60575, Control_c, 4, 7, 17
6, 60597, Control_c, 4, 7, 16
6, 60620, Control_c, 4, 7, 15
6, 60642, Control_c, 4, 7, 14
6, 60659, Note_on_c, 4, 42, 0
6, 60660, Note_on_c, 4, 40, 100
6, 60665, Control_c, 4, 7, 13
6, 60688, Control_c, 4, 7, 12
6, 60710, Control_c, 4, 7, 11
6, 60733, Control_c, 4, 7, 10
6, 60755, Control_c, 4, 7, 9
6, 60778, Control_c, 4, 7, 8
6, 60800, Control_c, 4, 7, 7
6, 60823, Control_c, 4, 7, 6
6, 60839, Note_on_c, 4, 40, 0
6, 60840, Note_on_c, 4, 52, 100
6, 60846, Control_c, 4, 7, 5
6, 60868, Control_c, 4, 7, 4
6, 60891, Control_c, 4, 7, 3
6, 60913, Control_c, 4, 7, 2
6, 60936, Control_c, 4, 7, 1
6, 60959, Note_on_c, 4, 52, 0
6, 60959, Control_c, 4, 7, 0
6, 60959, End_track
7, 0, Start_track
7, 0, MIDI_port, 0
7, 0, Title_t, "Drums"
7, 0, Control_c, 9, 7, 110
7, 4650, Note_on_c, 9, 35, 100
7, 4664, Note_on_c, 9, 35, 0
7, 4680, Note_on_c, 9, 49, 100
7, 4680, Note_on_c, 9, 39, 100
7, 4680, Note_on_c, 9, 40, 115
7, 4680, Note_on_c, 9, 35, 100
7, 4694, Note_on_c, 9, 35, 0
7, 4694, Note_on_c, 9, 49, 0
7, 4694, Note_on_c, 9, 39, 0
7, 4694, Note_on_c, 9, 40, 0
7, 4800, Note_on_c, 9, 46, 55
7, 4800, Note_on_c, 9, 35, 100
7, 4814, Note_on_c, 9, 35, 0
7, 4814, Note_on_c, 9, 46, 0
7, 4830, Note_on_c, 9, 46, 55
7, 4844, Note_on_c, 9, 46, 0
7, 4860, Note_on_c, 9, 46, 55
7, 4874, Note_on_c, 9, 46, 0
7, 4890, Note_on_c, 9, 46, 55
7, 4904, Note_on_c, 9, 46, 0
7, 4920, Note_on_c, 9, 46, 55
7, 4920, Note_on_c, 9, 39, 100
7, 4920, Note_on_c, 9, 40, 115
7, 4934, Note_on_c, 9, 40, 0
7, 4934, Note_on_c, 9, 39, 0
7, 4934, Note_on_c, 9, 46, 0
7, 4950, Note_on_c, 9, 46, 55
7, 4964, Note_on_c, 9, 46, 0
7, 4980, Note_on_c, 9, 46, 55
7, 4980, Note_on_c, 9, 35, 100
7, 4994, Note_on_c, 9, 35, 0
7, 4994, Note_on_c, 9, 46, 0
7, 5010, Note_on_c, 9, 46, 55
7, 5024, Note_on_c, 9, 46, 0
7, 5040, Note_on_c, 9, 46, 55
7, 5054, Note_on_c, 9, 46, 0
7, 5070, Note_on_c, 9, 46, 55
7, 5084, Note_on_c, 9, 46, 0
7, 5100, Note_on_c, 9, 46, 55
7, 5114, Note_on_c, 9, 46, 0
7, 5130, Note_on_c, 9, 46, 55
7, 5144, Note_on_c, 9, 46, 0
7, 5160, Note_on_c, 9, 46, 55
7, 5160, Note_on_c, 9, 39, 100
7, 5160, Note_on_c, 9, 40, 115
7, 5174, Note_on_c, 9, 40, 0
7, 5174, Note_on_c, 9, 39, 0
7, 5174, Note_on_c, 9, 46, 0
7, 5190, Note_on_c, 9, 46, 55
7, 5204, Note_on_c, 9, 46, 0
7, 5220, Note_on_c, 9, 46, 55
7, 5234, Note_on_c, 9, 46, 0
7, 5250, Note_on_c, 9, 46, 55
7, 5264, Note_on_c, 9, 46, 0
7, 5280, Note_on_c, 9, 46, 55
7, 5280, Note_on_c, 9, 35, 100
7, 5294, Note_on_c, 9, 35, 0
7, 5294, Note_on_c, 9, 46, 0
7, 5310, Note_on_c, 9, 46, 55
7, 5324, Note_on_c, 9, 46, 0
7, 5340, Note_on_c, 9, 46, 55
7, 5354, Note_on_c, 9, 46, 0
7, 5370, Note_on_c, 9, 46, 55
7, 5384, Note_on_c, 9, 46, 0
7, 5400, Note_on_c, 9, 46, 55
7, 5400, Note_on_c, 9, 39, 100
7, 5400, Note_on_c, 9, 40, 115
7, 5414, Note_on_c, 9, 40, 0
7, 5414, Note_on_c, 9, 39, 0
7, 5414, Note_on_c, 9, 46, 0
7, 5430, Note_on_c, 9, 46, 55
7, 5444, Note_on_c, 9, 46, 0
7, 5460, Note_on_c, 9, 46, 55
7, 5460, Note_on_c, 9, 35, 100
7, 5474, Note_on_c, 9, 35, 0
7, 5474, Note_on_c, 9, 46, 0
7, 5490, Note_on_c, 9, 46, 55
7, 5504, Note_on_c, 9, 46, 0
7, 5520, Note_on_c, 9, 46, 55
7, 5534, Note_on_c, 9, 46, 0
7, 5550, Note_on_c, 9, 46, 55
7, 5564, Note_on_c, 9, 46, 0
7, 5580, Note_on_c, 9, 46, 55
7, 5594, Note_on_c, 9, 46, 0
7, 5610, Note_on_c, 9, 46, 55
7, 5624, Note_on_c, 9, 46, 0
7, 5640, Note_on_c, 9, 46, 55
7, 5640, Note_on_c, 9, 39, 100
7, 5640, Note_on_c, 9, 40, 115
7, 5654, Note_on_c, 9, 40, 0
7, 5654, Note_on_c, 9, 39, 0
7, 5654, Note_on_c, 9, 46, 0
7, 5670, Note_on_c, 9, 46, 55
7, 5684, Note_on_c, 9, 46, 0
7, 5700, Note_on_c, 9, 46, 55
7, 5714, Note_on_c, 9, 46, 0
7, 5730, Note_on_c, 9, 46, 55
7, 5744, Note_on_c, 9, 46, 0
7, 5760, Note_on_c, 9, 46, 55
7, 5760, Note_on_c, 9, 35, 100
7, 5774, Note_on_c, 9, 35, 0
7, 5774, Note_on_c, 9, 46, 0
7, 5790, Note_on_c, 9, 46, 55
7, 5804, Note_on_c, 9, 46, 0
7, 5820, Note_on_c, 9, 46, 55
7, 5834, Note_on_c, 9, 46, 0
7, 5850, Note_on_c, 9, 46, 55
7, 5864, Note_on_c, 9, 46, 0
7, 5880, Note_on_c, 9, 46, 55
7, 5880, Note_on_c, 9, 39, 100
7, 5880, Note_on_c, 9, 40, 115
7, 5894, Note_on_c, 9, 40, 0
7, 5894, Note_on_c, 9, 39, 0
7, 5894, Note_on_c, 9, 46, 0
7, 5910, Note_on_c, 9, 46, 55
7, 5924, Note_on_c, 9, 46, 0
7, 5940, Note_on_c, 9, 46, 55
7, 5940, Note_on_c, 9, 35, 100
7, 5954, Note_on_c, 9, 35, 0
7, 5954, Note_on_c, 9, 46, 0
7, 5970, Note_on_c, 9, 46, 55
7, 5984, Note_on_c, 9, 46, 0
7, 6000, Note_on_c, 9, 46, 55
7, 6014, Note_on_c, 9, 46, 0
7, 6030, Note_on_c, 9, 46, 55
7, 6044, Note_on_c, 9, 46, 0
7, 6060, Note_on_c, 9, 46, 55
7, 6074, Note_on_c, 9, 46, 0
7, 6090, Note_on_c, 9, 46, 55
7, 6104, Note_on_c, 9, 46, 0
7, 6120, Note_on_c, 9, 46, 55
7, 6120, Note_on_c, 9, 39, 100
7, 6120, Note_on_c, 9, 40, 115
7, 6134, Note_on_c, 9, 40, 0
7, 6134, Note_on_c, 9, 39, 0
7, 6134, Note_on_c, 9, 46, 0
7, 6150, Note_on_c, 9, 46, 55
7, 6164, Note_on_c, 9, 46, 0
7, 6180, Note_on_c, 9, 46, 55
7, 6194, Note_on_c, 9, 46, 0
7, 6210, Note_on_c, 9, 46, 55
7, 6224, Note_on_c, 9, 46, 0
7, 6240, Note_on_c, 9, 46, 55
7, 6240, Note_on_c, 9, 35, 100
7, 6254, Note_on_c, 9, 35, 0
7, 6254, Note_on_c, 9, 46, 0
7, 6270, Note_on_c, 9, 46, 55
7, 6284, Note_on_c, 9, 46, 0
7, 6300, Note_on_c, 9, 46, 55
7, 6314, Note_on_c, 9, 46, 0
7, 6330, Note_on_c, 9, 46, 55
7, 6344, Note_on_c, 9, 46, 0
7, 6360, Note_on_c, 9, 46, 55
7, 6360, Note_on_c, 9, 39, 100
7, 6360, Note_on_c, 9, 40, 115
7, 6374, Note_on_c, 9, 40, 0
7, 6374, Note_on_c, 9, 39, 0
7, 6374, Note_on_c, 9, 46, 0
7, 6390, Note_on_c, 9, 46, 55
7, 6404, Note_on_c, 9, 46, 0
7, 6420, Note_on_c, 9, 46, 55
7, 6420, Note_on_c, 9, 35, 100
7, 6434, Note_on_c, 9, 35, 0
7, 6434, Note_on_c, 9, 46, 0
7, 6450, Note_on_c, 9, 46, 55
7, 6464, Note_on_c, 9, 46, 0
7, 6480, Note_on_c, 9, 46, 55
7, 6494, Note_on_c, 9, 46, 0
7, 6510, Note_on_c, 9, 46, 55
7, 6524, Note_on_c, 9, 46, 0
7, 6540, Note_on_c, 9, 46, 55
7, 6554, Note_on_c, 9, 46, 0
7, 6570, Note_on_c, 9, 46, 55
7, 6584, Note_on_c, 9, 46, 0
7, 6600, Note_on_c, 9, 46, 55
7, 6600, Note_on_c, 9, 39, 100
7, 6600, Note_on_c, 9, 40, 115
7, 6614, Note_on_c, 9, 40, 0
7, 6614, Note_on_c, 9, 39, 0
7, 6614, Note_on_c, 9, 46, 0
7, 6630, Note_on_c, 9, 46, 55
7, 6644, Note_on_c, 9, 46, 0
7, 6660, Note_on_c, 9, 46, 55
7, 6674, Note_on_c, 9, 46, 0
7, 6690, Note_on_c, 9, 46, 55
7, 6704, Note_on_c, 9, 46, 0
7, 6720, Note_on_c, 9, 46, 55
7, 6720, Note_on_c, 9, 35, 100
7, 6734, Note_on_c, 9, 35, 0
7, 6734, Note_on_c, 9, 46, 0
7, 6750, Note_on_c, 9, 46, 55
7, 6764, Note_on_c, 9, 46, 0
7, 6780, Note_on_c, 9, 46, 55
7, 6794, Note_on_c, 9, 46, 0
7, 6810, Note_on_c, 9, 46, 55
7, 6824, Note_on_c, 9, 46, 0
7, 6840, Note_on_c, 9, 46, 55
7, 6840, Note_on_c, 9, 39, 100
7, 6840, Note_on_c, 9, 40, 115
7, 6854, Note_on_c, 9, 40, 0
7, 6854, Note_on_c, 9, 39, 0
7, 6854, Note_on_c, 9, 46, 0
7, 6870, Note_on_c, 9, 46, 55
7, 6884, Note_on_c, 9, 46, 0
7, 6900, Note_on_c, 9, 46, 55
7, 6900, Note_on_c, 9, 35, 100
7, 6914, Note_on_c, 9, 35, 0
7, 6914, Note_on_c, 9, 46, 0
7, 6930, Note_on_c, 9, 46, 55
7, 6944, Note_on_c, 9, 46, 0
7, 6960, Note_on_c, 9, 46, 55
7, 6974, Note_on_c, 9, 46, 0
7, 6990, Note_on_c, 9, 46, 55
7, 7004, Note_on_c, 9, 46, 0
7, 7020, Note_on_c, 9, 46, 55
7, 7034, Note_on_c, 9, 46, 0
7, 7050, Note_on_c, 9, 46, 55
7, 7064, Note_on_c, 9, 46, 0
7, 7080, Note_on_c, 9, 46, 55
7, 7080, Note_on_c, 9, 39, 100
7, 7080, Note_on_c, 9, 40, 115
7, 7094, Note_on_c, 9, 40, 0
7, 7094, Note_on_c, 9, 39, 0
7, 7094, Note_on_c, 9, 46, 0
7, 7110, Note_on_c, 9, 46, 55
7, 7124, Note_on_c, 9, 46, 0
7, 7140, Note_on_c, 9, 46, 55
7, 7154, Note_on_c, 9, 46, 0
7, 7170, Note_on_c, 9, 46, 55
7, 7184, Note_on_c, 9, 46, 0
7, 7200, Note_on_c, 9, 46, 55
7, 7200, Note_on_c, 9, 35, 100
7, 7214, Note_on_c, 9, 35, 0
7, 7214, Note_on_c, 9, 46, 0
7, 7230, Note_on_c, 9, 46, 55
7, 7244, Note_on_c, 9, 46, 0
7, 7260, Note_on_c, 9, 46, 55
7, 7274, Note_on_c, 9, 46, 0
7, 7290, Note_on_c, 9, 46, 55
7, 7304, Note_on_c, 9, 46, 0
7, 7320, Note_on_c, 9, 46, 55
7, 7320, Note_on_c, 9, 39, 100
7, 7320, Note_on_c, 9, 40, 115
7, 7334, Note_on_c, 9, 40, 0
7, 7334, Note_on_c, 9, 39, 0
7, 7334, Note_on_c, 9, 46, 0
7, 7350, Note_on_c, 9, 46, 55
7, 7364, Note_on_c, 9, 46, 0
7, 7380, Note_on_c, 9, 46, 55
7, 7380, Note_on_c, 9, 35, 100
7, 7394, Note_on_c, 9, 35, 0
7, 7394, Note_on_c, 9, 46, 0
7, 7410, Note_on_c, 9, 46, 55
7, 7424, Note_on_c, 9, 46, 0
7, 7440, Note_on_c, 9, 46, 55
7, 7454, Note_on_c, 9, 46, 0
7, 7470, Note_on_c, 9, 46, 55
7, 7484, Note_on_c, 9, 46, 0
7, 7500, Note_on_c, 9, 46, 55
7, 7514, Note_on_c, 9, 46, 0
7, 7530, Note_on_c, 9, 46, 55
7, 7544, Note_on_c, 9, 46, 0
7, 7560, Note_on_c, 9, 46, 55
7, 7560, Note_on_c, 9, 39, 100
7, 7560, Note_on_c, 9, 40, 115
7, 7574, Note_on_c, 9, 40, 0
7, 7574, Note_on_c, 9, 39, 0
7, 7574, Note_on_c, 9, 46, 0
7, 7590, Note_on_c, 9, 46, 55
7, 7604, Note_on_c, 9, 46, 0
7, 7620, Note_on_c, 9, 46, 55
7, 7634, Note_on_c, 9, 46, 0
7, 7650, Note_on_c, 9, 46, 55
7, 7664, Note_on_c, 9, 46, 0
7, 7680, Note_on_c, 9, 46, 55
7, 7680, Note_on_c, 9, 35, 100
7, 7694, Note_on_c, 9, 35, 0
7, 7694, Note_on_c, 9, 46, 0
7, 7710, Note_on_c, 9, 46, 55
7, 7724, Note_on_c, 9, 46, 0
7, 7740, Note_on_c, 9, 46, 55
7, 7754, Note_on_c, 9, 46, 0
7, 7770, Note_on_c, 9, 46, 55
7, 7784, Note_on_c, 9, 46, 0
7, 7800, Note_on_c, 9, 46, 55
7, 7800, Note_on_c, 9, 39, 100
7, 7800, Note_on_c, 9, 40, 115
7, 7814, Note_on_c, 9, 40, 0
7, 7814, Note_on_c, 9, 39, 0
7, 7814, Note_on_c, 9, 46, 0
7, 7830, Note_on_c, 9, 46, 55
7, 7844, Note_on_c, 9, 46, 0
7, 7860, Note_on_c, 9, 46, 55
7, 7860, Note_on_c, 9, 35, 100
7, 7874, Note_on_c, 9, 35, 0
7, 7874, Note_on_c, 9, 46, 0
7, 7890, Note_on_c, 9, 46, 55
7, 7904, Note_on_c, 9, 46, 0
7, 7920, Note_on_c, 9, 46, 55
7, 7934, Note_on_c, 9, 46, 0
7, 7950, Note_on_c, 9, 46, 55
7, 7964, Note_on_c, 9, 46, 0
7, 7980, Note_on_c, 9, 46, 55
7, 7994, Note_on_c, 9, 46, 0
7, 8010, Note_on_c, 9, 46, 55
7, 8024, Note_on_c, 9, 46, 0
7, 8040, Note_on_c, 9, 46, 55
7, 8040, Note_on_c, 9, 39, 100
7, 8040, Note_on_c, 9, 40, 115
7, 8054, Note_on_c, 9, 40, 0
7, 8054, Note_on_c, 9, 39, 0
7, 8054, Note_on_c, 9, 46, 0
7, 8070, Note_on_c, 9, 46, 55
7, 8084, Note_on_c, 9, 46, 0
7, 8100, Note_on_c, 9, 46, 55
7, 8114, Note_on_c, 9, 46, 0
7, 8130, Note_on_c, 9, 46, 55
7, 8144, Note_on_c, 9, 46, 0
7, 8160, Note_on_c, 9, 46, 55
7, 8160, Note_on_c, 9, 35, 100
7, 8174, Note_on_c, 9, 35, 0
7, 8174, Note_on_c, 9, 46, 0
7, 8190, Note_on_c, 9, 46, 55
7, 8204, Note_on_c, 9, 46, 0
7, 8220, Note_on_c, 9, 46, 55
7, 8234, Note_on_c, 9, 46, 0
7, 8250, Note_on_c, 9, 46, 55
7, 8264, Note_on_c, 9, 46, 0
7, 8280, Note_on_c, 9, 46, 55
7, 8280, Note_on_c, 9, 39, 100
7, 8280, Note_on_c, 9, 40, 115
7, 8294, Note_on_c, 9, 40, 0
7, 8294, Note_on_c, 9, 39, 0
7, 8294, Note_on_c, 9, 46, 0
7, 8310, Note_on_c, 9, 46, 55
7, 8324, Note_on_c, 9, 46, 0
7, 8340, Note_on_c, 9, 46, 55
7, 8340, Note_on_c, 9, 35, 100
7, 8354, Note_on_c, 9, 35, 0
7, 8354, Note_on_c, 9, 46, 0
7, 8370, Note_on_c, 9, 46, 55
7, 8384, Note_on_c, 9, 46, 0
7, 8400, Note_on_c, 9, 46, 55
7, 8414, Note_on_c, 9, 46, 0
7, 8430, Note_on_c, 9, 46, 55
7, 8444, Note_on_c, 9, 46, 0
7, 8460, Note_on_c, 9, 46, 55
7, 8474, Note_on_c, 9, 46, 0
7, 8490, Note_on_c, 9, 46, 55
7, 8504, Note_on_c, 9, 46, 0
7, 8520, Note_on_c, 9, 46, 55
7, 8520, Note_on_c, 9, 39, 100
7, 8520, Note_on_c, 9, 40, 115
7, 8534, Note_on_c, 9, 40, 0
7, 8534, Note_on_c, 9, 39, 0
7, 8534, Note_on_c, 9, 46, 0
7, 8550, Note_on_c, 9, 46, 55
7, 8564, Note_on_c, 9, 46, 0
7, 8580, Note_on_c, 9, 46, 55
7, 8594, Note_on_c, 9, 46, 0
7, 8610, Note_on_c, 9, 46, 55
7, 8624, Note_on_c, 9, 46, 0
7, 8640, Note_on_c, 9, 46, 55
7, 8640, Note_on_c, 9, 35, 100
7, 8654, Note_on_c, 9, 35, 0
7, 8654, Note_on_c, 9, 46, 0
7, 8670, Note_on_c, 9, 46, 55
7, 8684, Note_on_c, 9, 46, 0
7, 8700, Note_on_c, 9, 46, 55
7, 8714, Note_on_c, 9, 46, 0
7, 8730, Note_on_c, 9, 46, 55
7, 8744, Note_on_c, 9, 46, 0
7, 8760, Note_on_c, 9, 46, 55
7, 8760, Note_on_c, 9, 39, 100
7, 8760, Note_on_c, 9, 40, 115
7, 8774, Note_on_c, 9, 40, 0
7, 8774, Note_on_c, 9, 39, 0
7, 8774, Note_on_c, 9, 46, 0
7, 8790, Note_on_c, 9, 46, 55
7, 8804, Note_on_c, 9, 46, 0
7, 8820, Note_on_c, 9, 46, 55
7, 8820, Note_on_c, 9, 35, 100
7, 8834, Note_on_c, 9, 35, 0
7, 8834, Note_on_c, 9, 46, 0
7, 8850, Note_on_c, 9, 46, 55
7, 8864, Note_on_c, 9, 46, 0
7, 8880, Note_on_c, 9, 46, 55
7, 8894, Note_on_c, 9, 46, 0
7, 8910, Note_on_c, 9, 46, 55
7, 8924, Note_on_c, 9, 46, 0
7, 8940, Note_on_c, 9, 46, 55
7, 8954, Note_on_c, 9, 46, 0
7, 8970, Note_on_c, 9, 46, 55
7, 8984, Note_on_c, 9, 46, 0
7, 9000, Note_on_c, 9, 46, 55
7, 9000, Note_on_c, 9, 39, 100
7, 9000, Note_on_c, 9, 40, 115
7, 9014, Note_on_c, 9, 40, 0
7, 9014, Note_on_c, 9, 39, 0
7, 9014, Note_on_c, 9, 46, 0
7, 9030, Note_on_c, 9, 46, 55
7, 9044, Note_on_c, 9, 46, 0
7, 9060, Note_on_c, 9, 46, 55
7, 9074, Note_on_c, 9, 46, 0
7, 9090, Note_on_c, 9, 46, 55
7, 9104, Note_on_c, 9, 46, 0
7, 9120, Note_on_c, 9, 46, 55
7, 9120, Note_on_c, 9, 35, 100
7, 9134, Note_on_c, 9, 35, 0
7, 9134, Note_on_c, 9, 46, 0
7, 9150, Note_on_c, 9, 46, 55
7, 9164, Note_on_c, 9, 46, 0
7, 9180, Note_on_c, 9, 46, 55
7, 9194, Note_on_c, 9, 46, 0
7, 9210, Note_on_c, 9, 46, 55
7, 9224, Note_on_c, 9, 46, 0
7, 9240, Note_on_c, 9, 46, 55
7, 9240, Note_on_c, 9, 39, 100
7, 9240, Note_on_c, 9, 40, 115
7, 9254, Note_on_c, 9, 40, 0
7, 9254, Note_on_c, 9, 39, 0
7, 9254, Note_on_c, 9, 46, 0
7, 9270, Note_on_c, 9, 46, 55
7, 9284, Note_on_c, 9, 46, 0
7, 9300, Note_on_c, 9, 46, 55
7, 9300, Note_on_c, 9, 35, 100
7, 9314, Note_on_c, 9, 35, 0
7, 9314, Note_on_c, 9, 46, 0
7, 9330, Note_on_c, 9, 46, 55
7, 9344, Note_on_c, 9, 46, 0
7, 9360, Note_on_c, 9, 35, 100
7, 9360, Note_on_c, 9, 46, 55
7, 9374, Note_on_c, 9, 46, 0
7, 9374, Note_on_c, 9, 35, 0
7, 9390, Note_on_c, 9, 46, 55
7, 9404, Note_on_c, 9, 46, 0
7, 9420, Note_on_c, 9, 46, 55
7, 9434, Note_on_c, 9, 46, 0
7, 9450, Note_on_c, 9, 46, 55
7, 9464, Note_on_c, 9, 46, 0
7, 9480, Note_on_c, 9, 46, 55
7, 9480, Note_on_c, 9, 39, 100
7, 9480, Note_on_c, 9, 40, 115
7, 9494, Note_on_c, 9, 40, 0
7, 9494, Note_on_c, 9, 39, 0
7, 9494, Note_on_c, 9, 46, 0
7, 9510, Note_on_c, 9, 46, 55
7, 9524, Note_on_c, 9, 46, 0
7, 9540, Note_on_c, 9, 46, 55
7, 9554, Note_on_c, 9, 46, 0
7, 9570, Note_on_c, 9, 46, 55
7, 9584, Note_on_c, 9, 46, 0
7, 9600, Note_on_c, 9, 46, 55
7, 9600, Note_on_c, 9, 35, 100
7, 9614, Note_on_c, 9, 35, 0
7, 9614, Note_on_c, 9, 46, 0
7, 9630, Note_on_c, 9, 46, 55
7, 9644, Note_on_c, 9, 46, 0
7, 9660, Note_on_c, 9, 46, 55
7, 9674, Note_on_c, 9, 46, 0
7, 9690, Note_on_c, 9, 46, 55
7, 9704, Note_on_c, 9, 46, 0
7, 9720, Note_on_c, 9, 46, 55
7, 9720, Note_on_c, 9, 39, 100
7, 9720, Note_on_c, 9, 40, 115
7, 9734, Note_on_c, 9, 40, 0
7, 9734, Note_on_c, 9, 39, 0
7, 9734, Note_on_c, 9, 46, 0
7, 9750, Note_on_c, 9, 46, 55
7, 9764, Note_on_c, 9, 46, 0
7, 9780, Note_on_c, 9, 46, 55
7, 9780, Note_on_c, 9, 35, 100
7, 9794, Note_on_c, 9, 35, 0
7, 9794, Note_on_c, 9, 46, 0
7, 9810, Note_on_c, 9, 46, 55
7, 9824, Note_on_c, 9, 46, 0
7, 9840, Note_on_c, 9, 35, 100
7, 9840, Note_on_c, 9, 46, 55
7, 9854, Note_on_c, 9, 46, 0
7, 9854, Note_on_c, 9, 35, 0
7, 9870, Note_on_c, 9, 46, 55
7, 9884, Note_on_c, 9, 46, 0
7, 9900, Note_on_c, 9, 46, 55
7, 9914, Note_on_c, 9, 46, 0
7, 9930, Note_on_c, 9, 46, 55
7, 9944, Note_on_c, 9, 46, 0
7, 9960, Note_on_c, 9, 46, 55
7, 9960, Note_on_c, 9, 39, 100
7, 9960, Note_on_c, 9, 40, 115
7, 9974, Note_on_c, 9, 40, 0
7, 9974, Note_on_c, 9, 39, 0
7, 9974, Note_on_c, 9, 46, 0
7, 9990, Note_on_c, 9, 46, 55
7, 10004, Note_on_c, 9, 46, 0
7, 10020, Note_on_c, 9, 46, 55
7, 10034, Note_on_c, 9, 46, 0
7, 10050, Note_on_c, 9, 46, 55
7, 10064, Note_on_c, 9, 46, 0
7, 10080, Note_on_c, 9, 46, 55
7, 10080, Note_on_c, 9, 35, 100
7, 10094, Note_on_c, 9, 35, 0
7, 10094, Note_on_c, 9, 46, 0
7, 10110, Note_on_c, 9, 46, 55
7, 10124, Note_on_c, 9, 46, 0
7, 10140, Note_on_c, 9, 46, 55
7, 10154, Note_on_c, 9, 46, 0
7, 10170, Note_on_c, 9, 46, 55
7, 10184, Note_on_c, 9, 46, 0
7, 10200, Note_on_c, 9, 46, 55
7, 10200, Note_on_c, 9, 39, 100
7, 10200, Note_on_c, 9, 40, 115
7, 10214, Note_on_c, 9, 40, 0
7, 10214, Note_on_c, 9, 39, 0
7, 10214, Note_on_c, 9, 46, 0
7, 10230, Note_on_c, 9, 46, 55
7, 10244, Note_on_c, 9, 46, 0
7, 10260, Note_on_c, 9, 46, 55
7, 10260, Note_on_c, 9, 35, 100
7, 10274, Note_on_c, 9, 35, 0
7, 10274, Note_on_c, 9, 46, 0
7, 10290, Note_on_c, 9, 46, 55
7, 10304, Note_on_c, 9, 46, 0
7, 10320, Note_on_c, 9, 35, 100
7, 10320, Note_on_c, 9, 46, 55
7, 10334, Note_on_c, 9, 46, 0
7, 10334, Note_on_c, 9, 35, 0
7, 10350, Note_on_c, 9, 46, 55
7, 10364, Note_on_c, 9, 46, 0
7, 10380, Note_on_c, 9, 46, 55
7, 10394, Note_on_c, 9, 46, 0
7, 10410, Note_on_c, 9, 46, 55
7, 10424, Note_on_c, 9, 46, 0
7, 10440, Note_on_c, 9, 46, 55
7, 10440, Note_on_c, 9, 39, 100
7, 10440, Note_on_c, 9, 40, 115
7, 10454, Note_on_c, 9, 40, 0
7, 10454, Note_on_c, 9, 39, 0
7, 10454, Note_on_c, 9, 46, 0
7, 10470, Note_on_c, 9, 46, 55
7, 10484, Note_on_c, 9, 46, 0
7, 10500, Note_on_c, 9, 46, 55
7, 10514, Note_on_c, 9, 46, 0
7, 10530, Note_on_c, 9, 46, 55
7, 10544, Note_on_c, 9, 46, 0
7, 10560, Note_on_c, 9, 46, 55
7, 10560, Note_on_c, 9, 35, 100
7, 10574, Note_on_c, 9, 35, 0
7, 10574, Note_on_c, 9, 46, 0
7, 10590, Note_on_c, 9, 46, 55
7, 10604, Note_on_c, 9, 46, 0
7, 10620, Note_on_c, 9, 46, 55
7, 10634, Note_on_c, 9, 46, 0
7, 10650, Note_on_c, 9, 46, 55
7, 10664, Note_on_c, 9, 46, 0
7, 10680, Note_on_c, 9, 46, 55
7, 10680, Note_on_c, 9, 39, 100
7, 10680, Note_on_c, 9, 40, 115
7, 10694, Note_on_c, 9, 40, 0
7, 10694, Note_on_c, 9, 39, 0
7, 10694, Note_on_c, 9, 46, 0
7, 10710, Note_on_c, 9, 46, 55
7, 10724, Note_on_c, 9, 46, 0
7, 10740, Note_on_c, 9, 46, 55
7, 10740, Note_on_c, 9, 35, 100
7, 10754, Note_on_c, 9, 35, 0
7, 10754, Note_on_c, 9, 46, 0
7, 10770, Note_on_c, 9, 46, 55
7, 10784, Note_on_c, 9, 46, 0
7, 10800, Note_on_c, 9, 35, 100
7, 10800, Note_on_c, 9, 46, 55
7, 10814, Note_on_c, 9, 46, 0
7, 10814, Note_on_c, 9, 35, 0
7, 10830, Note_on_c, 9, 46, 55
7, 10844, Note_on_c, 9, 46, 0
7, 10860, Note_on_c, 9, 46, 55
7, 10874, Note_on_c, 9, 46, 0
7, 10890, Note_on_c, 9, 46, 55
7, 10904, Note_on_c, 9, 46, 0
7, 10920, Note_on_c, 9, 46, 55
7, 10920, Note_on_c, 9, 39, 100
7, 10920, Note_on_c, 9, 40, 115
7, 10934, Note_on_c, 9, 40, 0
7, 10934, Note_on_c, 9, 39, 0
7, 10934, Note_on_c, 9, 46, 0
7, 10950, Note_on_c, 9, 46, 55
7, 10964, Note_on_c, 9, 46, 0
7, 10980, Note_on_c, 9, 46, 55
7, 10994, Note_on_c, 9, 46, 0
7, 11010, Note_on_c, 9, 46, 55
7, 11024, Note_on_c, 9, 46, 0
7, 11040, Note_on_c, 9, 46, 55
7, 11040, Note_on_c, 9, 35, 100
7, 11054, Note_on_c, 9, 35, 0
7, 11054, Note_on_c, 9, 46, 0
7, 11070, Note_on_c, 9, 46, 55
7, 11084, Note_on_c, 9, 46, 0
7, 11100, Note_on_c, 9, 46, 55
7, 11114, Note_on_c, 9, 46, 0
7, 11130, Note_on_c, 9, 46, 55
7, 11144, Note_on_c, 9, 46, 0
7, 11160, Note_on_c, 9, 46, 55
7, 11160, Note_on_c, 9, 39, 100
7, 11160, Note_on_c, 9, 40, 115
7, 11174, Note_on_c, 9, 40, 0
7, 11174, Note_on_c, 9, 39, 0
7, 11174, Note_on_c, 9, 46, 0
7, 11190, Note_on_c, 9, 46, 55
7, 11204, Note_on_c, 9, 46, 0
7, 11220, Note_on_c, 9, 46, 55
7, 11220, Note_on_c, 9, 35, 100
7, 11234, Note_on_c, 9, 35, 0
7, 11234, Note_on_c, 9, 46, 0
7, 11250, Note_on_c, 9, 46, 55
7, 11264, Note_on_c, 9, 46, 0
7, 11280, Note_on_c, 9, 35, 100
7, 11280, Note_on_c, 9, 46, 55
7, 11294, Note_on_c, 9, 46, 0
7, 11294, Note_on_c, 9, 35, 0
7, 11310, Note_on_c, 9, 46, 55
7, 11324, Note_on_c, 9, 46, 0
7, 11340, Note_on_c, 9, 46, 55
7, 11354, Note_on_c, 9, 46, 0
7, 11370, Note_on_c, 9, 46, 55
7, 11384, Note_on_c, 9, 46, 0
7, 11400, Note_on_c, 9, 46, 55
7, 11400, Note_on_c, 9, 39, 100
7, 11400, Note_on_c, 9, 40, 115
7, 11414, Note_on_c, 9, 40, 0
7, 11414, Note_on_c, 9, 39, 0
7, 11414, Note_on_c, 9, 46, 0
7, 11430, Note_on_c, 9, 46, 55
7, 11444, Note_on_c, 9, 46, 0
7, 11460, Note_on_c, 9, 46, 55
7, 11474, Note_on_c, 9, 46, 0
7, 11490, Note_on_c, 9, 46, 55
7, 11504, Note_on_c, 9, 46, 0
7, 11520, Note_on_c, 9, 46, 55
7, 11520, Note_on_c, 9, 35, 100
7, 11534, Note_on_c, 9, 35, 0
7, 11534, Note_on_c, 9, 46, 0
7, 11550, Note_on_c, 9, 46, 55
7, 11564, Note_on_c, 9, 46, 0
7, 11580, Note_on_c, 9, 46, 55
7, 11594, Note_on_c, 9, 46, 0
7, 11610, Note_on_c, 9, 46, 55
7, 11624, Note_on_c, 9, 46, 0
7, 11640, Note_on_c, 9, 46, 55
7, 11640, Note_on_c, 9, 39, 100
7, 11640, Note_on_c, 9, 40, 115
7, 11654, Note_on_c, 9, 40, 0
7, 11654, Note_on_c, 9, 39, 0
7, 11654, Note_on_c, 9, 46, 0
7, 11670, Note_on_c, 9, 46, 55
7, 11684, Note_on_c, 9, 46, 0
7, 11700, Note_on_c, 9, 46, 55
7, 11700, Note_on_c, 9, 35, 100
7, 11714, Note_on_c, 9, 35, 0
7, 11714, Note_on_c, 9, 46, 0
7, 11730, Note_on_c, 9, 46, 55
7, 11744, Note_on_c, 9, 46, 0
7, 11760, Note_on_c, 9, 35, 100
7, 11760, Note_on_c, 9, 46, 55
7, 11774, Note_on_c, 9, 46, 0
7, 11774, Note_on_c, 9, 35, 0
7, 11790, Note_on_c, 9, 46, 55
7, 11804, Note_on_c, 9, 46, 0
7, 11820, Note_on_c, 9, 46, 55
7, 11834, Note_on_c, 9, 46, 0
7, 11850, Note_on_c, 9, 46, 55
7, 11864, Note_on_c, 9, 46, 0
7, 11880, Note_on_c, 9, 46, 55
7, 11880, Note_on_c, 9, 39, 100
7, 11880, Note_on_c, 9, 40, 115
7, 11894, Note_on_c, 9, 40, 0
7, 11894, Note_on_c, 9, 39, 0
7, 11894, Note_on_c, 9, 46, 0
7, 11910, Note_on_c, 9, 46, 55
7, 11924, Note_on_c, 9, 46, 0
7, 11940, Note_on_c, 9, 46, 55
7, 11954, Note_on_c, 9, 46, 0
7, 11970, Note_on_c, 9, 46, 55
7, 11984, Note_on_c, 9, 46, 0
7, 12000, Note_on_c, 9, 46, 55
7, 12000, Note_on_c, 9, 35, 100
7, 12014, Note_on_c, 9, 35, 0
7, 12014, Note_on_c, 9, 46, 0
7, 12030, Note_on_c, 9, 46, 55
7, 12044, Note_on_c, 9, 46, 0
7, 12060, Note_on_c, 9, 46, 55
7, 12074, Note_on_c, 9, 46, 0
7, 12090, Note_on_c, 9, 46, 55
7, 12104, Note_on_c, 9, 46, 0
7, 12120, Note_on_c, 9, 46, 55
7, 12120, Note_on_c, 9, 39, 100
7, 12120, Note_on_c, 9, 40, 115
7, 12134, Note_on_c, 9, 40, 0
7, 12134, Note_on_c, 9, 39, 0
7, 12134, Note_on_c, 9, 46, 0
7, 12150, Note_on_c, 9, 46, 55
7, 12164, Note_on_c, 9, 46, 0
7, 12180, Note_on_c, 9, 46, 55
7, 12180, Note_on_c, 9, 35, 100
7, 12194, Note_on_c, 9, 35, 0
7, 12194, Note_on_c, 9, 46, 0
7, 12210, Note_on_c, 9, 46, 55
7, 12224, Note_on_c, 9, 46, 0
7, 12240, Note_on_c, 9, 35, 100
7, 12240, Note_on_c, 9, 46, 55
7, 12254, Note_on_c, 9, 46, 0
7, 12254, Note_on_c, 9, 35, 0
7, 12270, Note_on_c, 9, 46, 55
7, 12284, Note_on_c, 9, 46, 0
7, 12300, Note_on_c, 9, 46, 55
7, 12314, Note_on_c, 9, 46, 0
7, 12330, Note_on_c, 9, 46, 55
7, 12344, Note_on_c, 9, 46, 0
7, 12360, Note_on_c, 9, 46, 55
7, 12360, Note_on_c, 9, 39, 100
7, 12360, Note_on_c, 9, 40, 115
7, 12374, Note_on_c, 9, 40, 0
7, 12374, Note_on_c, 9, 39, 0
7, 12374, Note_on_c, 9, 46, 0
7, 12390, Note_on_c, 9, 46, 55
7, 12404, Note_on_c, 9, 46, 0
7, 12420, Note_on_c, 9, 46, 55
7, 12434, Note_on_c, 9, 46, 0
7, 12450, Note_on_c, 9, 46, 55
7, 12464, Note_on_c, 9, 46, 0
7, 12480, Note_on_c, 9, 46, 55
7, 12480, Note_on_c, 9, 35, 100
7, 12494, Note_on_c, 9, 35, 0
7, 12494, Note_on_c, 9, 46, 0
7, 12510, Note_on_c, 9, 46, 55
7, 12524, Note_on_c, 9, 46, 0
7, 12540, Note_on_c, 9, 46, 55
7, 12554, Note_on_c, 9, 46, 0
7, 12570, Note_on_c, 9, 46, 55
7, 12584, Note_on_c, 9, 46, 0
7, 12600, Note_on_c, 9, 46, 55
7, 12600, Note_on_c, 9, 39, 100
7, 12600, Note_on_c, 9, 40, 115
7, 12614, Note_on_c, 9, 40, 0
7, 12614, Note_on_c, 9, 39, 0
7, 12614, Note_on_c, 9, 46, 0
7, 12630, Note_on_c, 9, 46, 55
7, 12644, Note_on_c, 9, 46, 0
7, 12660, Note_on_c, 9, 46, 55
7, 12660, Note_on_c, 9, 35, 100
7, 12674, Note_on_c, 9, 35, 0
7, 12674, Note_on_c, 9, 46, 0
7, 12690, Note_on_c, 9, 46, 55
7, 12704, Note_on_c, 9, 46, 0
7, 12720, Note_on_c, 9, 35, 100
7, 12720, Note_on_c, 9, 46, 55
7, 12734, Note_on_c, 9, 46, 0
7, 12734, Note_on_c, 9, 35, 0
7, 12750, Note_on_c, 9, 46, 55
7, 12764, Note_on_c, 9, 46, 0
7, 12780, Note_on_c, 9, 46, 55
7, 12794, Note_on_c, 9, 46, 0
7, 12810, Note_on_c, 9, 46, 55
7, 12824, Note_on_c, 9, 46, 0
7, 12840, Note_on_c, 9, 46, 55
7, 12840, Note_on_c, 9, 39, 100
7, 12840, Note_on_c, 9, 40, 115
7, 12854, Note_on_c, 9, 40, 0
7, 12854, Note_on_c, 9, 39, 0
7, 12854, Note_on_c, 9, 46, 0
7, 12870, Note_on_c, 9, 46, 55
7, 12884, Note_on_c, 9, 46, 0
7, 12900, Note_on_c, 9, 46, 55
7, 12914, Note_on_c, 9, 46, 0
7, 12930, Note_on_c, 9, 46, 55
7, 12944, Note_on_c, 9, 46, 0
7, 12960, Note_on_c, 9, 46, 55
7, 12960, Note_on_c, 9, 35, 100
7, 12974, Note_on_c, 9, 35, 0
7, 12974, Note_on_c, 9, 46, 0
7, 12990, Note_on_c, 9, 46, 55
7, 13004, Note_on_c, 9, 46, 0
7, 13020, Note_on_c, 9, 46, 55
7, 13034, Note_on_c, 9, 46, 0
7, 13050, Note_on_c, 9, 46, 55
7, 13064, Note_on_c, 9, 46, 0
7, 13080, Note_on_c, 9, 46, 55
7, 13080, Note_on_c, 9, 39, 100
7, 13080, Note_on_c, 9, 40, 115
7, 13094, Note_on_c, 9, 40, 0
7, 13094, Note_on_c, 9, 39, 0
7, 13094, Note_on_c, 9, 46, 0
7, 13110, Note_on_c, 9, 46, 55
7, 13124, Note_on_c, 9, 46, 0
7, 13140, Note_on_c, 9, 46, 55
7, 13140, Note_on_c, 9, 35, 100
7, 13154, Note_on_c, 9, 35, 0
7, 13154, Note_on_c, 9, 46, 0
7, 13170, Note_on_c, 9, 46, 55
7, 13184, Note_on_c, 9, 46, 0
7, 13200, Note_on_c, 9, 35, 100
7, 13200, Note_on_c, 9, 46, 55
7, 13214, Note_on_c, 9, 46, 0
7, 13214, Note_on_c, 9, 35, 0
7, 13230, Note_on_c, 9, 46, 55
7, 13244, Note_on_c, 9, 46, 0
7, 13260, Note_on_c, 9, 46, 55
7, 13274, Note_on_c, 9, 46, 0
7, 13290, Note_on_c, 9, 46, 55
7, 13304, Note_on_c, 9, 46, 0
7, 13320, Note_on_c, 9, 46, 55
7, 13320, Note_on_c, 9, 39, 100
7, 13320, Note_on_c, 9, 40, 115
7, 13334, Note_on_c, 9, 40, 0
7, 13334, Note_on_c, 9, 39, 0
7, 13334, Note_on_c, 9, 46, 0
7, 13350, Note_on_c, 9, 46, 55
7, 13364, Note_on_c, 9, 46, 0
7, 13380, Note_on_c, 9, 46, 55
7, 13394, Note_on_c, 9, 46, 0
7, 13410, Note_on_c, 9, 46, 55
7, 13424, Note_on_c, 9, 46, 0
7, 13440, Note_on_c, 9, 46, 55
7, 13440, Note_on_c, 9, 35, 100
7, 13454, Note_on_c, 9, 35, 0
7, 13454, Note_on_c, 9, 46, 0
7, 13470, Note_on_c, 9, 46, 55
7, 13484, Note_on_c, 9, 46, 0
7, 13500, Note_on_c, 9, 46, 55
7, 13514, Note_on_c, 9, 46, 0
7, 13530, Note_on_c, 9, 46, 55
7, 13544, Note_on_c, 9, 46, 0
7, 13560, Note_on_c, 9, 46, 55
7, 13560, Note_on_c, 9, 39, 100
7, 13560, Note_on_c, 9, 40, 115
7, 13574, Note_on_c, 9, 40, 0
7, 13574, Note_on_c, 9, 39, 0
7, 13574, Note_on_c, 9, 46, 0
7, 13590, Note_on_c, 9, 46, 55
7, 13604, Note_on_c, 9, 46, 0
7, 13620, Note_on_c, 9, 46, 55
7, 13620, Note_on_c, 9, 35, 100
7, 13634, Note_on_c, 9, 35, 0
7, 13634, Note_on_c, 9, 46, 0
7, 13650, Note_on_c, 9, 46, 55
7, 13664, Note_on_c, 9, 46, 0
7, 13680, Note_on_c, 9, 35, 100
7, 13680, Note_on_c, 9, 46, 55
7, 13694, Note_on_c, 9, 46, 0
7, 13694, Note_on_c, 9, 35, 0
7, 13710, Note_on_c, 9, 46, 55
7, 13724, Note_on_c, 9, 46, 0
7, 13740, Note_on_c, 9, 46, 55
7, 13754, Note_on_c, 9, 46, 0
7, 13770, Note_on_c, 9, 46, 55
7, 13784, Note_on_c, 9, 46, 0
7, 13800, Note_on_c, 9, 46, 55
7, 13800, Note_on_c, 9, 39, 100
7, 13800, Note_on_c, 9, 40, 115
7, 13814, Note_on_c, 9, 40, 0
7, 13814, Note_on_c, 9, 39, 0
7, 13814, Note_on_c, 9, 46, 0
7, 13830, Note_on_c, 9, 46, 55
7, 13844, Note_on_c, 9, 46, 0
7, 13860, Note_on_c, 9, 46, 55
7, 13874, Note_on_c, 9, 46, 0
7, 13890, Note_on_c, 9, 46, 55
7, 13904, Note_on_c, 9, 46, 0
7, 13920, Note_on_c, 9, 46, 55
7, 13920, Note_on_c, 9, 35, 100
7, 13934, Note_on_c, 9, 35, 0
7, 13934, Note_on_c, 9, 46, 0
7, 13950, Note_on_c, 9, 46, 55
7, 13964, Note_on_c, 9, 46, 0
7, 13980, Note_on_c, 9, 46, 55
7, 13994, Note_on_c, 9, 46, 0
7, 14010, Note_on_c, 9, 46, 55
7, 14024, Note_on_c, 9, 46, 0
7, 14040, Note_on_c, 9, 46, 55
7, 14040, Note_on_c, 9, 39, 100
7, 14040, Note_on_c, 9, 40, 115
7, 14054, Note_on_c, 9, 40, 0
7, 14054, Note_on_c, 9, 39, 0
7, 14054, Note_on_c, 9, 46, 0
7, 14070, Note_on_c, 9, 46, 55
7, 14084, Note_on_c, 9, 46, 0
7, 14100, Note_on_c, 9, 46, 55
7, 14100, Note_on_c, 9, 35, 100
7, 14114, Note_on_c, 9, 35, 0
7, 14114, Note_on_c, 9, 46, 0
7, 14130, Note_on_c, 9, 46, 55
7, 14144, Note_on_c, 9, 46, 0
7, 14160, Note_on_c, 9, 35, 100
7, 14160, Note_on_c, 9, 46, 55
7, 14174, Note_on_c, 9, 46, 0
7, 14174, Note_on_c, 9, 35, 0
7, 14190, Note_on_c, 9, 46, 55
7, 14204, Note_on_c, 9, 46, 0
7, 14220, Note_on_c, 9, 46, 55
7, 14234, Note_on_c, 9, 46, 0
7, 14250, Note_on_c, 9, 46, 55
7, 14264, Note_on_c, 9, 46, 0
7, 14280, Note_on_c, 9, 46, 55
7, 14280, Note_on_c, 9, 39, 100
7, 14280, Note_on_c, 9, 40, 115
7, 14294, Note_on_c, 9, 40, 0
7, 14294, Note_on_c, 9, 39, 0
7, 14294, Note_on_c, 9, 46, 0
7, 14310, Note_on_c, 9, 46, 55
7, 14324, Note_on_c, 9, 46, 0
7, 14340, Note_on_c, 9, 46, 55
7, 14354, Note_on_c, 9, 46, 0
7, 14370, Note_on_c, 9, 46, 55
7, 14384, Note_on_c, 9, 46, 0
7, 14400, Note_on_c, 9, 46, 55
7, 14400, Note_on_c, 9, 35, 100
7, 14414, Note_on_c, 9, 35, 0
7, 14414, Note_on_c, 9, 46, 0
7, 14430, Note_on_c, 9, 46, 55
7, 14444, Note_on_c, 9, 46, 0
7, 14460, Note_on_c, 9, 46, 55
7, 14474, Note_on_c, 9, 46, 0
7, 14490, Note_on_c, 9, 46, 55
7, 14504, Note_on_c, 9, 46, 0
7, 14520, Note_on_c, 9, 46, 55
7, 14520, Note_on_c, 9, 39, 100
7, 14520, Note_on_c, 9, 40, 115
7, 14534, Note_on_c, 9, 40, 0
7, 14534, Note_on_c, 9, 39, 0
7, 14534, Note_on_c, 9, 46, 0
7, 14550, Note_on_c, 9, 46, 55
7, 14564, Note_on_c, 9, 46, 0
7, 14580, Note_on_c, 9, 46, 55
7, 14580, Note_on_c, 9, 35, 100
7, 14594, Note_on_c, 9, 35, 0
7, 14594, Note_on_c, 9, 46, 0
7, 14610, Note_on_c, 9, 46, 55
7, 14624, Note_on_c, 9, 46, 0
7, 14640, Note_on_c, 9, 35, 100
7, 14640, Note_on_c, 9, 46, 55
7, 14654, Note_on_c, 9, 46, 0
7, 14654, Note_on_c, 9, 35, 0
7, 14670, Note_on_c, 9, 46, 55
7, 14684, Note_on_c, 9, 46, 0
7, 14700, Note_on_c, 9, 46, 55
7, 14714, Note_on_c, 9, 46, 0
7, 14730, Note_on_c, 9, 46, 55
7, 14744, Note_on_c, 9, 46, 0
7, 14760, Note_on_c, 9, 46, 55
7, 14760, Note_on_c, 9, 39, 100
7, 14760, Note_on_c, 9, 40, 115
7, 14774, Note_on_c, 9, 40, 0
7, 14774, Note_on_c, 9, 39, 0
7, 14774, Note_on_c, 9, 46, 0
7, 14790, Note_on_c, 9, 46, 55
7, 14804, Note_on_c, 9, 46, 0
7, 14820, Note_on_c, 9, 46, 55
7, 14834, Note_on_c, 9, 46, 0
7, 14850, Note_on_c, 9, 46, 55
7, 14864, Note_on_c, 9, 46, 0
7, 14880, Note_on_c, 9, 46, 55
7, 14880, Note_on_c, 9, 35, 100
7, 14894, Note_on_c, 9, 35, 0
7, 14894, Note_on_c, 9, 46, 0
7, 14910, Note_on_c, 9, 46, 55
7, 14924, Note_on_c, 9, 46, 0
7, 14940, Note_on_c, 9, 46, 55
7, 14954, Note_on_c, 9, 46, 0
7, 14970, Note_on_c, 9, 46, 55
7, 14984, Note_on_c, 9, 46, 0
7, 15000, Note_on_c, 9, 46, 55
7, 15000, Note_on_c, 9, 39, 100
7, 15000, Note_on_c, 9, 40, 115
7, 15014, Note_on_c, 9, 40, 0
7, 15014, Note_on_c, 9, 39, 0
7, 15014, Note_on_c, 9, 46, 0
7, 15030, Note_on_c, 9, 46, 55
7, 15044, Note_on_c, 9, 46, 0
7, 15060, Note_on_c, 9, 46, 55
7, 15060, Note_on_c, 9, 35, 100
7, 15074, Note_on_c, 9, 35, 0
7, 15074, Note_on_c, 9, 46, 0
7, 15090, Note_on_c, 9, 46, 55
7, 15104, Note_on_c, 9, 46, 0
7, 15120, Note_on_c, 9, 35, 100
7, 15120, Note_on_c, 9, 46, 55
7, 15134, Note_on_c, 9, 46, 0
7, 15134, Note_on_c, 9, 35, 0
7, 15150, Note_on_c, 9, 46, 55
7, 15164, Note_on_c, 9, 46, 0
7, 15180, Note_on_c, 9, 46, 55
7, 15194, Note_on_c, 9, 46, 0
7, 15210, Note_on_c, 9, 46, 55
7, 15224, Note_on_c, 9, 46, 0
7, 15240, Note_on_c, 9, 46, 55
7, 15240, Note_on_c, 9, 39, 100
7, 15240, Note_on_c, 9, 40, 115
7, 15254, Note_on_c, 9, 40, 0
7, 15254, Note_on_c, 9, 39, 0
7, 15254, Note_on_c, 9, 46, 0
7, 15270, Note_on_c, 9, 46, 55
7, 15284, Note_on_c, 9, 46, 0
7, 15300, Note_on_c, 9, 46, 55
7, 15314, Note_on_c, 9, 46, 0
7, 15330, Note_on_c, 9, 46, 55
7, 15344, Note_on_c, 9, 46, 0
7, 15360, Note_on_c, 9, 46, 55
7, 15360, Note_on_c, 9, 35, 100
7, 15374, Note_on_c, 9, 35, 0
7, 15374, Note_on_c, 9, 46, 0
7, 15390, Note_on_c, 9, 46, 55
7, 15404, Note_on_c, 9, 46, 0
7, 15420, Note_on_c, 9, 46, 55
7, 15434, Note_on_c, 9, 46, 0
7, 15450, Note_on_c, 9, 46, 55
7, 15464, Note_on_c, 9, 46, 0
7, 15480, Note_on_c, 9, 46, 55
7, 15480, Note_on_c, 9, 39, 100
7, 15480, Note_on_c, 9, 40, 115
7, 15494, Note_on_c, 9, 40, 0
7, 15494, Note_on_c, 9, 39, 0
7, 15494, Note_on_c, 9, 46, 0
7, 15510, Note_on_c, 9, 46, 55
7, 15524, Note_on_c, 9, 46, 0
7, 15540, Note_on_c, 9, 46, 55
7, 15540, Note_on_c, 9, 35, 100
7, 15554, Note_on_c, 9, 35, 0
7, 15554, Note_on_c, 9, 46, 0
7, 15570, Note_on_c, 9, 46, 55
7, 15584, Note_on_c, 9, 46, 0
7, 15600, Note_on_c, 9, 35, 100
7, 15600, Note_on_c, 9, 46, 55
7, 15614, Note_on_c, 9, 46, 0
7, 15614, Note_on_c, 9, 35, 0
7, 15630, Note_on_c, 9, 46, 55
7, 15644, Note_on_c, 9, 46, 0
7, 15660, Note_on_c, 9, 46, 55
7, 15674, Note_on_c, 9, 46, 0
7, 15690, Note_on_c, 9, 46, 55
7, 15704, Note_on_c, 9, 46, 0
7, 15720, Note_on_c, 9, 46, 55
7, 15720, Note_on_c, 9, 39, 100
7, 15720, Note_on_c, 9, 40, 115
7, 15734, Note_on_c, 9, 40, 0
7, 15734, Note_on_c, 9, 39, 0
7, 15734, Note_on_c, 9, 46, 0
7, 15750, Note_on_c, 9, 46, 55
7, 15764, Note_on_c, 9, 46, 0
7, 15780, Note_on_c, 9, 46, 55
7, 15794, Note_on_c, 9, 46, 0
7, 15810, Note_on_c, 9, 46, 55
7, 15824, Note_on_c, 9, 46, 0
7, 15840, Note_on_c, 9, 46, 55
7, 15840, Note_on_c, 9, 35, 100
7, 15854, Note_on_c, 9, 35, 0
7, 15854, Note_on_c, 9, 46, 0
7, 15870, Note_on_c, 9, 46, 55
7, 15884, Note_on_c, 9, 46, 0
7, 15900, Note_on_c, 9, 46, 55
7, 15914, Note_on_c, 9, 46, 0
7, 15930, Note_on_c, 9, 46, 55
7, 15944, Note_on_c, 9, 46, 0
7, 15960, Note_on_c, 9, 46, 55
7, 15960, Note_on_c, 9, 39, 100
7, 15960, Note_on_c, 9, 40, 115
7, 15974, Note_on_c, 9, 40, 0
7, 15974, Note_on_c, 9, 39, 0
7, 15974, Note_on_c, 9, 46, 0
7, 15990, Note_on_c, 9, 46, 55
7, 16004, Note_on_c, 9, 46, 0
7, 16020, Note_on_c, 9, 46, 55
7, 16020, Note_on_c, 9, 35, 100
7, 16034, Note_on_c, 9, 35, 0
7, 16034, Note_on_c, 9, 46, 0
7, 16050, Note_on_c, 9, 46, 55
7, 16064, Note_on_c, 9, 46, 0
7, 16080, Note_on_c, 9, 35, 100
7, 16080, Note_on_c, 9, 46, 55
7, 16094, Note_on_c, 9, 46, 0
7, 16094, Note_on_c, 9, 35, 0
7, 16110, Note_on_c, 9, 46, 55
7, 16124, Note_on_c, 9, 46, 0
7, 16140, Note_on_c, 9, 46, 55
7, 16154, Note_on_c, 9, 46, 0
7, 16170, Note_on_c, 9, 46, 55
7, 16184, Note_on_c, 9, 46, 0
7, 16200, Note_on_c, 9, 46, 55
7, 16200, Note_on_c, 9, 39, 100
7, 16200, Note_on_c, 9, 40, 115
7, 16214, Note_on_c, 9, 40, 0
7, 16214, Note_on_c, 9, 39, 0
7, 16214, Note_on_c, 9, 46, 0
7, 16230, Note_on_c, 9, 46, 55
7, 16244, Note_on_c, 9, 46, 0
7, 16260, Note_on_c, 9, 46, 55
7, 16274, Note_on_c, 9, 46, 0
7, 16290, Note_on_c, 9, 46, 55
7, 16304, Note_on_c, 9, 46, 0
7, 16320, Note_on_c, 9, 46, 55
7, 16320, Note_on_c, 9, 35, 100
7, 16334, Note_on_c, 9, 35, 0
7, 16334, Note_on_c, 9, 46, 0
7, 16350, Note_on_c, 9, 46, 55
7, 16364, Note_on_c, 9, 46, 0
7, 16380, Note_on_c, 9, 46, 55
7, 16394, Note_on_c, 9, 46, 0
7, 16410, Note_on_c, 9, 46, 55
7, 16424, Note_on_c, 9, 46, 0
7, 16440, Note_on_c, 9, 46, 55
7, 16440, Note_on_c, 9, 39, 100
7, 16440, Note_on_c, 9, 40, 115
7, 16454, Note_on_c, 9, 40, 0
7, 16454, Note_on_c, 9, 39, 0
7, 16454, Note_on_c, 9, 46, 0
7, 16470, Note_on_c, 9, 46, 55
7, 16484, Note_on_c, 9, 46, 0
7, 16500, Note_on_c, 9, 46, 55
7, 16500, Note_on_c, 9, 35, 100
7, 16514, Note_on_c, 9, 35, 0
7, 16514, Note_on_c, 9, 46, 0
7, 16530, Note_on_c, 9, 46, 55
7, 16544, Note_on_c, 9, 46, 0
7, 16560, Note_on_c, 9, 35, 100
7, 16560, Note_on_c, 9, 46, 55
7, 16574, Note_on_c, 9, 46, 0
7, 16574, Note_on_c, 9, 35, 0
7, 16590, Note_on_c, 9, 46, 55
7, 16604, Note_on_c, 9, 46, 0
7, 16620, Note_on_c, 9, 46, 55
7, 16634, Note_on_c, 9, 46, 0
7, 16650, Note_on_c, 9, 46, 55
7, 16664, Note_on_c, 9, 46, 0
7, 16680, Note_on_c, 9, 38, 100
7, 16680, Note_on_c, 9, 46, 55
7, 16680, Note_on_c, 9, 39, 100
7, 16680, Note_on_c, 9, 40, 115
7, 16694, Note_on_c, 9, 40, 0
7, 16694, Note_on_c, 9, 38, 0
7, 16694, Note_on_c, 9, 46, 0
7, 16694, Note_on_c, 9, 39, 0
7, 16710, Note_on_c, 9, 38, 100
7, 16710, Note_on_c, 9, 39, 100
7, 16710, Note_on_c, 9, 40, 100
7, 16710, Note_on_c, 9, 46, 55
7, 16724, Note_on_c, 9, 46, 0
7, 16724, Note_on_c, 9, 38, 0
7, 16724, Note_on_c, 9, 39, 0
7, 16724, Note_on_c, 9, 40, 0
7, 16740, Note_on_c, 9, 46, 55
7, 16754, Note_on_c, 9, 46, 0
7, 16770, Note_on_c, 9, 46, 55
7, 16784, Note_on_c, 9, 46, 0
7, 16800, Note_on_c, 9, 46, 55
7, 16800, Note_on_c, 9, 35, 100
7, 16814, Note_on_c, 9, 35, 0
7, 16814, Note_on_c, 9, 46, 0
7, 16830, Note_on_c, 9, 46, 55
7, 16844, Note_on_c, 9, 46, 0
7, 16860, Note_on_c, 9, 46, 55
7, 16874, Note_on_c, 9, 46, 0
7, 16890, Note_on_c, 9, 46, 55
7, 16904, Note_on_c, 9, 46, 0
7, 16920, Note_on_c, 9, 46, 55
7, 16920, Note_on_c, 9, 39, 100
7, 16920, Note_on_c, 9, 40, 115
7, 16934, Note_on_c, 9, 40, 0
7, 16934, Note_on_c, 9, 39, 0
7, 16934, Note_on_c, 9, 46, 0
7, 16950, Note_on_c, 9, 46, 55
7, 16964, Note_on_c, 9, 46, 0
7, 16980, Note_on_c, 9, 46, 55
7, 16980, Note_on_c, 9, 35, 100
7, 16994, Note_on_c, 9, 35, 0
7, 16994, Note_on_c, 9, 46, 0
7, 17010, Note_on_c, 9, 46, 55
7, 17024, Note_on_c, 9, 46, 0
7, 17040, Note_on_c, 9, 35, 100
7, 17040, Note_on_c, 9, 46, 55
7, 17054, Note_on_c, 9, 46, 0
7, 17054, Note_on_c, 9, 35, 0
7, 17070, Note_on_c, 9, 46, 55
7, 17084, Note_on_c, 9, 46, 0
7, 17100, Note_on_c, 9, 46, 55
7, 17114, Note_on_c, 9, 46, 0
7, 17130, Note_on_c, 9, 46, 55
7, 17144, Note_on_c, 9, 46, 0
7, 17160, Note_on_c, 9, 46, 55
7, 17160, Note_on_c, 9, 39, 100
7, 17160, Note_on_c, 9, 40, 115
7, 17174, Note_on_c, 9, 40, 0
7, 17174, Note_on_c, 9, 39, 0
7, 17174, Note_on_c, 9, 46, 0
7, 17190, Note_on_c, 9, 46, 55
7, 17204, Note_on_c, 9, 46, 0
7, 17220, Note_on_c, 9, 46, 55
7, 17234, Note_on_c, 9, 46, 0
7, 17250, Note_on_c, 9, 46, 55
7, 17264, Note_on_c, 9, 46, 0
7, 17280, Note_on_c, 9, 46, 55
7, 17280, Note_on_c, 9, 35, 100
7, 17294, Note_on_c, 9, 35, 0
7, 17294, Note_on_c, 9, 46, 0
7, 17310, Note_on_c, 9, 46, 55
7, 17324, Note_on_c, 9, 46, 0
7, 17340, Note_on_c, 9, 46, 55
7, 17354, Note_on_c, 9, 46, 0
7, 17370, Note_on_c, 9, 46, 55
7, 17384, Note_on_c, 9, 46, 0
7, 17400, Note_on_c, 9, 46, 55
7, 17400, Note_on_c, 9, 39, 100
7, 17400, Note_on_c, 9, 40, 115
7, 17414, Note_on_c, 9, 40, 0
7, 17414, Note_on_c, 9, 39, 0
7, 17414, Note_on_c, 9, 46, 0
7, 17430, Note_on_c, 9, 46, 55
7, 17444, Note_on_c, 9, 46, 0
7, 17460, Note_on_c, 9, 46, 55
7, 17460, Note_on_c, 9, 35, 100
7, 17474, Note_on_c, 9, 35, 0
7, 17474, Note_on_c, 9, 46, 0
7, 17490, Note_on_c, 9, 46, 55
7, 17504, Note_on_c, 9, 46, 0
7, 17520, Note_on_c, 9, 35, 100
7, 17520, Note_on_c, 9, 46, 55
7, 17534, Note_on_c, 9, 46, 0
7, 17534, Note_on_c, 9, 35, 0
7, 17550, Note_on_c, 9, 46, 55
7, 17564, Note_on_c, 9, 46, 0
7, 17580, Note_on_c, 9, 46, 55
7, 17594, Note_on_c, 9, 46, 0
7, 17610, Note_on_c, 9, 46, 55
7, 17624, Note_on_c, 9, 46, 0
7, 17640, Note_on_c, 9, 46, 55
7, 17640, Note_on_c, 9, 39, 100
7, 17640, Note_on_c, 9, 40, 115
7, 17654, Note_on_c, 9, 40, 0
7, 17654, Note_on_c, 9, 39, 0
7, 17654, Note_on_c, 9, 46, 0
7, 17670, Note_on_c, 9, 46, 55
7, 17684, Note_on_c, 9, 46, 0
7, 17700, Note_on_c, 9, 46, 55
7, 17714, Note_on_c, 9, 46, 0
7, 17730, Note_on_c, 9, 46, 55
7, 17744, Note_on_c, 9, 46, 0
7, 17760, Note_on_c, 9, 46, 55
7, 17760, Note_on_c, 9, 35, 100
7, 17774, Note_on_c, 9, 35, 0
7, 17774, Note_on_c, 9, 46, 0
7, 17790, Note_on_c, 9, 46, 55
7, 17804, Note_on_c, 9, 46, 0
7, 17820, Note_on_c, 9, 46, 55
7, 17834, Note_on_c, 9, 46, 0
7, 17850, Note_on_c, 9, 46, 55
7, 17864, Note_on_c, 9, 46, 0
7, 17880, Note_on_c, 9, 46, 55
7, 17880, Note_on_c, 9, 39, 100
7, 17880, Note_on_c, 9, 40, 115
7, 17894, Note_on_c, 9, 40, 0
7, 17894, Note_on_c, 9, 39, 0
7, 17894, Note_on_c, 9, 46, 0
7, 17910, Note_on_c, 9, 46, 55
7, 17924, Note_on_c, 9, 46, 0
7, 17940, Note_on_c, 9, 46, 55
7, 17940, Note_on_c, 9, 35, 100
7, 17954, Note_on_c, 9, 35, 0
7, 17954, Note_on_c, 9, 46, 0
7, 17970, Note_on_c, 9, 46, 55
7, 17984, Note_on_c, 9, 46, 0
7, 18000, Note_on_c, 9, 35, 100
7, 18000, Note_on_c, 9, 46, 55
7, 18014, Note_on_c, 9, 46, 0
7, 18014, Note_on_c, 9, 35, 0
7, 18030, Note_on_c, 9, 46, 55
7, 18044, Note_on_c, 9, 46, 0
7, 18060, Note_on_c, 9, 46, 55
7, 18074, Note_on_c, 9, 46, 0
7, 18090, Note_on_c, 9, 46, 55
7, 18104, Note_on_c, 9, 46, 0
7, 18120, Note_on_c, 9, 46, 55
7, 18120, Note_on_c, 9, 39, 100
7, 18120, Note_on_c, 9, 40, 115
7, 18134, Note_on_c, 9, 40, 0
7, 18134, Note_on_c, 9, 39, 0
7, 18134, Note_on_c, 9, 46, 0
7, 18150, Note_on_c, 9, 46, 55
7, 18164, Note_on_c, 9, 46, 0
7, 18180, Note_on_c, 9, 46, 55
7, 18194, Note_on_c, 9, 46, 0
7, 18210, Note_on_c, 9, 46, 55
7, 18224, Note_on_c, 9, 46, 0
7, 18240, Note_on_c, 9, 46, 55
7, 18240, Note_on_c, 9, 35, 100
7, 18254, Note_on_c, 9, 35, 0
7, 18254, Note_on_c, 9, 46, 0
7, 18270, Note_on_c, 9, 46, 55
7, 18284, Note_on_c, 9, 46, 0
7, 18300, Note_on_c, 9, 46, 55
7, 18314, Note_on_c, 9, 46, 0
7, 18330, Note_on_c, 9, 46, 55
7, 18344, Note_on_c, 9, 46, 0
7, 18360, Note_on_c, 9, 46, 55
7, 18360, Note_on_c, 9, 39, 100
7, 18360, Note_on_c, 9, 40, 115
7, 18374, Note_on_c, 9, 40, 0
7, 18374, Note_on_c, 9, 39, 0
7, 18374, Note_on_c, 9, 46, 0
7, 18390, Note_on_c, 9, 46, 55
7, 18404, Note_on_c, 9, 46, 0
7, 18420, Note_on_c, 9, 46, 55
7, 18420, Note_on_c, 9, 35, 100
7, 18434, Note_on_c, 9, 35, 0
7, 18434, Note_on_c, 9, 46, 0
7, 18450, Note_on_c, 9, 46, 55
7, 18464, Note_on_c, 9, 46, 0
7, 18480, Note_on_c, 9, 35, 100
7, 18480, Note_on_c, 9, 46, 55
7, 18494, Note_on_c, 9, 46, 0
7, 18494, Note_on_c, 9, 35, 0
7, 18510, Note_on_c, 9, 46, 55
7, 18524, Note_on_c, 9, 46, 0
7, 18540, Note_on_c, 9, 46, 55
7, 18554, Note_on_c, 9, 46, 0
7, 18570, Note_on_c, 9, 46, 55
7, 18584, Note_on_c, 9, 46, 0
7, 18600, Note_on_c, 9, 46, 55
7, 18600, Note_on_c, 9, 39, 100
7, 18600, Note_on_c, 9, 40, 115
7, 18614, Note_on_c, 9, 40, 0
7, 18614, Note_on_c, 9, 39, 0
7, 18614, Note_on_c, 9, 46, 0
7, 18630, Note_on_c, 9, 46, 55
7, 18644, Note_on_c, 9, 46, 0
7, 18660, Note_on_c, 9, 46, 55
7, 18674, Note_on_c, 9, 46, 0
7, 18690, Note_on_c, 9, 46, 55
7, 18704, Note_on_c, 9, 46, 0
7, 18720, Note_on_c, 9, 46, 55
7, 18720, Note_on_c, 9, 35, 100
7, 18734, Note_on_c, 9, 35, 0
7, 18734, Note_on_c, 9, 46, 0
7, 18750, Note_on_c, 9, 46, 55
7, 18764, Note_on_c, 9, 46, 0
7, 18780, Note_on_c, 9, 46, 55
7, 18794, Note_on_c, 9, 46, 0
7, 18810, Note_on_c, 9, 46, 55
7, 18824, Note_on_c, 9, 46, 0
7, 18840, Note_on_c, 9, 46, 55
7, 18840, Note_on_c, 9, 39, 100
7, 18840, Note_on_c, 9, 40, 115
7, 18854, Note_on_c, 9, 40, 0
7, 18854, Note_on_c, 9, 39, 0
7, 18854, Note_on_c, 9, 46, 0
7, 18870, Note_on_c, 9, 46, 55
7, 18884, Note_on_c, 9, 46, 0
7, 18900, Note_on_c, 9, 46, 55
7, 18900, Note_on_c, 9, 35, 100
7, 18914, Note_on_c, 9, 35, 0
7, 18914, Note_on_c, 9, 46, 0
7, 18930, Note_on_c, 9, 46, 55
7, 18944, Note_on_c, 9, 46, 0
7, 18960, Note_on_c, 9, 35, 100
7, 18960, Note_on_c, 9, 46, 55
7, 18974, Note_on_c, 9, 46, 0
7, 18974, Note_on_c, 9, 35, 0
7, 18990, Note_on_c, 9, 46, 55
7, 19004, Note_on_c, 9, 46, 0
7, 19020, Note_on_c, 9, 46, 55
7, 19034, Note_on_c, 9, 46, 0
7, 19050, Note_on_c, 9, 46, 55
7, 19064, Note_on_c, 9, 46, 0
7, 19080, Note_on_c, 9, 46, 55
7, 19080, Note_on_c, 9, 39, 100
7, 19080, Note_on_c, 9, 40, 115
7, 19094, Note_on_c, 9, 40, 0
7, 19094, Note_on_c, 9, 39, 0
7, 19094, Note_on_c, 9, 46, 0
7, 19110, Note_on_c, 9, 46, 55
7, 19124, Note_on_c, 9, 46, 0
7, 19140, Note_on_c, 9, 46, 55
7, 19154, Note_on_c, 9, 46, 0
7, 19170, Note_on_c, 9, 46, 55
7, 19184, Note_on_c, 9, 46, 0
7, 19200, Note_on_c, 9, 46, 55
7, 19200, Note_on_c, 9, 35, 100
7, 19214, Note_on_c, 9, 35, 0
7, 19214, Note_on_c, 9, 46, 0
7, 19230, Note_on_c, 9, 46, 55
7, 19244, Note_on_c, 9, 46, 0
7, 19260, Note_on_c, 9, 46, 55
7, 19274, Note_on_c, 9, 46, 0
7, 19290, Note_on_c, 9, 46, 55
7, 19304, Note_on_c, 9, 46, 0
7, 19320, Note_on_c, 9, 46, 55
7, 19320, Note_on_c, 9, 39, 100
7, 19320, Note_on_c, 9, 40, 115
7, 19334, Note_on_c, 9, 40, 0
7, 19334, Note_on_c, 9, 39, 0
7, 19334, Note_on_c, 9, 46, 0
7, 19350, Note_on_c, 9, 46, 55
7, 19364, Note_on_c, 9, 46, 0
7, 19380, Note_on_c, 9, 46, 55
7, 19380, Note_on_c, 9, 35, 100
7, 19394, Note_on_c, 9, 35, 0
7, 19394, Note_on_c, 9, 46, 0
7, 19410, Note_on_c, 9, 46, 55
7, 19424, Note_on_c, 9, 46, 0
7, 19440, Note_on_c, 9, 35, 100
7, 19440, Note_on_c, 9, 46, 55
7, 19454, Note_on_c, 9, 46, 0
7, 19454, Note_on_c, 9, 35, 0
7, 19470, Note_on_c, 9, 46, 55
7, 19484, Note_on_c, 9, 46, 0
7, 19500, Note_on_c, 9, 46, 55
7, 19514, Note_on_c, 9, 46, 0
7, 19530, Note_on_c, 9, 46, 55
7, 19544, Note_on_c, 9, 46, 0
7, 19560, Note_on_c, 9, 46, 55
7, 19560, Note_on_c, 9, 39, 100
7, 19560, Note_on_c, 9, 40, 115
7, 19574, Note_on_c, 9, 40, 0
7, 19574, Note_on_c, 9, 39, 0
7, 19574, Note_on_c, 9, 46, 0
7, 19590, Note_on_c, 9, 46, 55
7, 19604, Note_on_c, 9, 46, 0
7, 19620, Note_on_c, 9, 46, 55
7, 19634, Note_on_c, 9, 46, 0
7, 19650, Note_on_c, 9, 46, 55
7, 19664, Note_on_c, 9, 46, 0
7, 19680, Note_on_c, 9, 46, 55
7, 19680, Note_on_c, 9, 35, 100
7, 19694, Note_on_c, 9, 35, 0
7, 19694, Note_on_c, 9, 46, 0
7, 19710, Note_on_c, 9, 46, 55
7, 19724, Note_on_c, 9, 46, 0
7, 19740, Note_on_c, 9, 46, 55
7, 19754, Note_on_c, 9, 46, 0
7, 19770, Note_on_c, 9, 46, 55
7, 19784, Note_on_c, 9, 46, 0
7, 19800, Note_on_c, 9, 46, 55
7, 19800, Note_on_c, 9, 39, 100
7, 19800, Note_on_c, 9, 40, 115
7, 19814, Note_on_c, 9, 40, 0
7, 19814, Note_on_c, 9, 39, 0
7, 19814, Note_on_c, 9, 46, 0
7, 19830, Note_on_c, 9, 46, 55
7, 19844, Note_on_c, 9, 46, 0
7, 19860, Note_on_c, 9, 46, 55
7, 19860, Note_on_c, 9, 35, 100
7, 19874, Note_on_c, 9, 35, 0
7, 19874, Note_on_c, 9, 46, 0
7, 19890, Note_on_c, 9, 46, 55
7, 19904, Note_on_c, 9, 46, 0
7, 19920, Note_on_c, 9, 35, 100
7, 19920, Note_on_c, 9, 46, 55
7, 19934, Note_on_c, 9, 46, 0
7, 19934, Note_on_c, 9, 35, 0
7, 19950, Note_on_c, 9, 46, 55
7, 19964, Note_on_c, 9, 46, 0
7, 19980, Note_on_c, 9, 46, 55
7, 19994, Note_on_c, 9, 46, 0
7, 20010, Note_on_c, 9, 46, 55
7, 20024, Note_on_c, 9, 46, 0
7, 20040, Note_on_c, 9, 46, 55
7, 20040, Note_on_c, 9, 39, 100
7, 20040, Note_on_c, 9, 40, 115
7, 20054, Note_on_c, 9, 40, 0
7, 20054, Note_on_c, 9, 39, 0
7, 20054, Note_on_c, 9, 46, 0
7, 20070, Note_on_c, 9, 46, 55
7, 20084, Note_on_c, 9, 46, 0
7, 20100, Note_on_c, 9, 46, 55
7, 20114, Note_on_c, 9, 46, 0
7, 20130, Note_on_c, 9, 46, 55
7, 20144, Note_on_c, 9, 46, 0
7, 20160, Note_on_c, 9, 46, 55
7, 20160, Note_on_c, 9, 35, 100
7, 20174, Note_on_c, 9, 35, 0
7, 20174, Note_on_c, 9, 46, 0
7, 20190, Note_on_c, 9, 46, 55
7, 20204, Note_on_c, 9, 46, 0
7, 20220, Note_on_c, 9, 46, 55
7, 20234, Note_on_c, 9, 46, 0
7, 20250, Note_on_c, 9, 46, 55
7, 20264, Note_on_c, 9, 46, 0
7, 20280, Note_on_c, 9, 46, 55
7, 20280, Note_on_c, 9, 39, 100
7, 20280, Note_on_c, 9, 40, 115
7, 20294, Note_on_c, 9, 40, 0
7, 20294, Note_on_c, 9, 39, 0
7, 20294, Note_on_c, 9, 46, 0
7, 20310, Note_on_c, 9, 46, 55
7, 20324, Note_on_c, 9, 46, 0
7, 20340, Note_on_c, 9, 46, 55
7, 20340, Note_on_c, 9, 35, 100
7, 20354, Note_on_c, 9, 35, 0
7, 20354, Note_on_c, 9, 46, 0
7, 20370, Note_on_c, 9, 46, 55
7, 20384, Note_on_c, 9, 46, 0
7, 20400, Note_on_c, 9, 35, 100
7, 20400, Note_on_c, 9, 46, 55
7, 20414, Note_on_c, 9, 46, 0
7, 20414, Note_on_c, 9, 35, 0
7, 20430, Note_on_c, 9, 46, 55
7, 20444, Note_on_c, 9, 46, 0
7, 20460, Note_on_c, 9, 46, 55
7, 20474, Note_on_c, 9, 46, 0
7, 20490, Note_on_c, 9, 46, 55
7, 20504, Note_on_c, 9, 46, 0
7, 20520, Note_on_c, 9, 46, 55
7, 20520, Note_on_c, 9, 39, 100
7, 20520, Note_on_c, 9, 40, 115
7, 20534, Note_on_c, 9, 40, 0
7, 20534, Note_on_c, 9, 39, 0
7, 20534, Note_on_c, 9, 46, 0
7, 20550, Note_on_c, 9, 46, 55
7, 20564, Note_on_c, 9, 46, 0
7, 20580, Note_on_c, 9, 46, 55
7, 20594, Note_on_c, 9, 46, 0
7, 20610, Note_on_c, 9, 46, 55
7, 20624, Note_on_c, 9, 46, 0
7, 20640, Note_on_c, 9, 46, 55
7, 20640, Note_on_c, 9, 35, 100
7, 20654, Note_on_c, 9, 35, 0
7, 20654, Note_on_c, 9, 46, 0
7, 20670, Note_on_c, 9, 46, 55
7, 20684, Note_on_c, 9, 46, 0
7, 20700, Note_on_c, 9, 46, 55
7, 20714, Note_on_c, 9, 46, 0
7, 20730, Note_on_c, 9, 46, 55
7, 20744, Note_on_c, 9, 46, 0
7, 20760, Note_on_c, 9, 46, 55
7, 20760, Note_on_c, 9, 39, 100
7, 20760, Note_on_c, 9, 40, 115
7, 20774, Note_on_c, 9, 40, 0
7, 20774, Note_on_c, 9, 39, 0
7, 20774, Note_on_c, 9, 46, 0
7, 20790, Note_on_c, 9, 46, 55
7, 20804, Note_on_c, 9, 46, 0
7, 20820, Note_on_c, 9, 46, 55
7, 20820, Note_on_c, 9, 35, 100
7, 20834, Note_on_c, 9, 35, 0
7, 20834, Note_on_c, 9, 46, 0
7, 20850, Note_on_c, 9, 46, 55
7, 20864, Note_on_c, 9, 46, 0
7, 20880, Note_on_c, 9, 35, 100
7, 20880, Note_on_c, 9, 46, 55
7, 20894, Note_on_c, 9, 46, 0
7, 20894, Note_on_c, 9, 35, 0
7, 20910, Note_on_c, 9, 46, 55
7, 20924, Note_on_c, 9, 46, 0
7, 20940, Note_on_c, 9, 46, 55
7, 20954, Note_on_c, 9, 46, 0
7, 20970, Note_on_c, 9, 46, 55
7, 20984, Note_on_c, 9, 46, 0
7, 21000, Note_on_c, 9, 46, 55
7, 21000, Note_on_c, 9, 39, 100
7, 21000, Note_on_c, 9, 40, 115
7, 21014, Note_on_c, 9, 40, 0
7, 21014, Note_on_c, 9, 39, 0
7, 21014, Note_on_c, 9, 46, 0
7, 21030, Note_on_c, 9, 46, 55
7, 21044, Note_on_c, 9, 46, 0
7, 21060, Note_on_c, 9, 46, 55
7, 21074, Note_on_c, 9, 46, 0
7, 21090, Note_on_c, 9, 46, 55
7, 21104, Note_on_c, 9, 46, 0
7, 21120, Note_on_c, 9, 46, 55
7, 21120, Note_on_c, 9, 35, 100
7, 21134, Note_on_c, 9, 35, 0
7, 21134, Note_on_c, 9, 46, 0
7, 21150, Note_on_c, 9, 46, 55
7, 21164, Note_on_c, 9, 46, 0
7, 21180, Note_on_c, 9, 46, 55
7, 21194, Note_on_c, 9, 46, 0
7, 21210, Note_on_c, 9, 46, 55
7, 21224, Note_on_c, 9, 46, 0
7, 21240, Note_on_c, 9, 46, 55
7, 21240, Note_on_c, 9, 39, 100
7, 21240, Note_on_c, 9, 40, 115
7, 21254, Note_on_c, 9, 40, 0
7, 21254, Note_on_c, 9, 39, 0
7, 21254, Note_on_c, 9, 46, 0
7, 21270, Note_on_c, 9, 46, 55
7, 21284, Note_on_c, 9, 46, 0
7, 21300, Note_on_c, 9, 46, 55
7, 21300, Note_on_c, 9, 35, 100
7, 21314, Note_on_c, 9, 35, 0
7, 21314, Note_on_c, 9, 46, 0
7, 21330, Note_on_c, 9, 46, 55
7, 21344, Note_on_c, 9, 46, 0
7, 21360, Note_on_c, 9, 35, 100
7, 21360, Note_on_c, 9, 46, 55
7, 21374, Note_on_c, 9, 46, 0
7, 21374, Note_on_c, 9, 35, 0
7, 21390, Note_on_c, 9, 46, 55
7, 21404, Note_on_c, 9, 46, 0
7, 21420, Note_on_c, 9, 46, 55
7, 21434, Note_on_c, 9, 46, 0
7, 21450, Note_on_c, 9, 46, 55
7, 21464, Note_on_c, 9, 46, 0
7, 21480, Note_on_c, 9, 46, 55
7, 21480, Note_on_c, 9, 39, 100
7, 21480, Note_on_c, 9, 40, 115
7, 21494, Note_on_c, 9, 40, 0
7, 21494, Note_on_c, 9, 39, 0
7, 21494, Note_on_c, 9, 46, 0
7, 21510, Note_on_c, 9, 46, 55
7, 21524, Note_on_c, 9, 46, 0
7, 21540, Note_on_c, 9, 46, 55
7, 21554, Note_on_c, 9, 46, 0
7, 21570, Note_on_c, 9, 46, 55
7, 21584, Note_on_c, 9, 46, 0
7, 21600, Note_on_c, 9, 46, 55
7, 21600, Note_on_c, 9, 35, 100
7, 21614, Note_on_c, 9, 35, 0
7, 21614, Note_on_c, 9, 46, 0
7, 21630, Note_on_c, 9, 46, 55
7, 21644, Note_on_c, 9, 46, 0
7, 21660, Note_on_c, 9, 46, 55
7, 21674, Note_on_c, 9, 46, 0
7, 21690, Note_on_c, 9, 46, 55
7, 21704, Note_on_c, 9, 46, 0
7, 21720, Note_on_c, 9, 46, 55
7, 21720, Note_on_c, 9, 39, 100
7, 21720, Note_on_c, 9, 40, 115
7, 21734, Note_on_c, 9, 40, 0
7, 21734, Note_on_c, 9, 39, 0
7, 21734, Note_on_c, 9, 46, 0
7, 21750, Note_on_c, 9, 46, 55
7, 21764, Note_on_c, 9, 46, 0
7, 21780, Note_on_c, 9, 46, 55
7, 21780, Note_on_c, 9, 35, 100
7, 21794, Note_on_c, 9, 35, 0
7, 21794, Note_on_c, 9, 46, 0
7, 21810, Note_on_c, 9, 46, 55
7, 21824, Note_on_c, 9, 46, 0
7, 21840, Note_on_c, 9, 35, 100
7, 21840, Note_on_c, 9, 46, 55
7, 21854, Note_on_c, 9, 46, 0
7, 21854, Note_on_c, 9, 35, 0
7, 21870, Note_on_c, 9, 46, 55
7, 21884, Note_on_c, 9, 46, 0
7, 21900, Note_on_c, 9, 46, 55
7, 21914, Note_on_c, 9, 46, 0
7, 21930, Note_on_c, 9, 46, 55
7, 21944, Note_on_c, 9, 46, 0
7, 21960, Note_on_c, 9, 46, 55
7, 21960, Note_on_c, 9, 39, 100
7, 21960, Note_on_c, 9, 40, 115
7, 21974, Note_on_c, 9, 40, 0
7, 21974, Note_on_c, 9, 39, 0
7, 21974, Note_on_c, 9, 46, 0
7, 21990, Note_on_c, 9, 46, 55
7, 22004, Note_on_c, 9, 46, 0
7, 22020, Note_on_c, 9, 46, 55
7, 22034, Note_on_c, 9, 46, 0
7, 22050, Note_on_c, 9, 46, 55
7, 22064, Note_on_c, 9, 46, 0
7, 22080, Note_on_c, 9, 46, 55
7, 22080, Note_on_c, 9, 35, 100
7, 22094, Note_on_c, 9, 35, 0
7, 22094, Note_on_c, 9, 46, 0
7, 22110, Note_on_c, 9, 46, 55
7, 22124, Note_on_c, 9, 46, 0
7, 22140, Note_on_c, 9, 46, 55
7, 22154, Note_on_c, 9, 46, 0
7, 22170, Note_on_c, 9, 46, 55
7, 22184, Note_on_c, 9, 46, 0
7, 22200, Note_on_c, 9, 46, 55
7, 22200, Note_on_c, 9, 39, 100
7, 22200, Note_on_c, 9, 40, 115
7, 22214, Note_on_c, 9, 40, 0
7, 22214, Note_on_c, 9, 39, 0
7, 22214, Note_on_c, 9, 46, 0
7, 22230, Note_on_c, 9, 46, 55
7, 22244, Note_on_c, 9, 46, 0
7, 22260, Note_on_c, 9, 46, 55
7, 22260, Note_on_c, 9, 35, 100
7, 22274, Note_on_c, 9, 35, 0
7, 22274, Note_on_c, 9, 46, 0
7, 22290, Note_on_c, 9, 46, 55
7, 22304, Note_on_c, 9, 46, 0
7, 22320, Note_on_c, 9, 35, 100
7, 22320, Note_on_c, 9, 46, 55
7, 22334, Note_on_c, 9, 46, 0
7, 22334, Note_on_c, 9, 35, 0
7, 22350, Note_on_c, 9, 46, 55
7, 22364, Note_on_c, 9, 46, 0
7, 22380, Note_on_c, 9, 46, 55
7, 22394, Note_on_c, 9, 46, 0
7, 22410, Note_on_c, 9, 46, 55
7, 22424, Note_on_c, 9, 46, 0
7, 22440, Note_on_c, 9, 46, 55
7, 22440, Note_on_c, 9, 39, 100
7, 22440, Note_on_c, 9, 40, 115
7, 22454, Note_on_c, 9, 40, 0
7, 22454, Note_on_c, 9, 39, 0
7, 22454, Note_on_c, 9, 46, 0
7, 22470, Note_on_c, 9, 46, 55
7, 22484, Note_on_c, 9, 46, 0
7, 22500, Note_on_c, 9, 46, 55
7, 22514, Note_on_c, 9, 46, 0
7, 22530, Note_on_c, 9, 46, 55
7, 22544, Note_on_c, 9, 46, 0
7, 22560, Note_on_c, 9, 46, 55
7, 22560, Note_on_c, 9, 35, 100
7, 22574, Note_on_c, 9, 35, 0
7, 22574, Note_on_c, 9, 46, 0
7, 22590, Note_on_c, 9, 46, 55
7, 22604, Note_on_c, 9, 46, 0
7, 22620, Note_on_c, 9, 46, 55
7, 22634, Note_on_c, 9, 46, 0
7, 22650, Note_on_c, 9, 46, 55
7, 22664, Note_on_c, 9, 46, 0
7, 22680, Note_on_c, 9, 46, 55
7, 22680, Note_on_c, 9, 39, 100
7, 22680, Note_on_c, 9, 40, 115
7, 22694, Note_on_c, 9, 40, 0
7, 22694, Note_on_c, 9, 39, 0
7, 22694, Note_on_c, 9, 46, 0
7, 22710, Note_on_c, 9, 46, 55
7, 22724, Note_on_c, 9, 46, 0
7, 22740, Note_on_c, 9, 46, 55
7, 22740, Note_on_c, 9, 35, 100
7, 22754, Note_on_c, 9, 35, 0
7, 22754, Note_on_c, 9, 46, 0
7, 22770, Note_on_c, 9, 46, 55
7, 22784, Note_on_c, 9, 46, 0
7, 22800, Note_on_c, 9, 35, 100
7, 22800, Note_on_c, 9, 46, 55
7, 22814, Note_on_c, 9, 46, 0
7, 22814, Note_on_c, 9, 35, 0
7, 22830, Note_on_c, 9, 46, 55
7, 22844, Note_on_c, 9, 46, 0
7, 22860, Note_on_c, 9, 46, 55
7, 22874, Note_on_c, 9, 46, 0
7, 22890, Note_on_c, 9, 46, 55
7, 22904, Note_on_c, 9, 46, 0
7, 22920, Note_on_c, 9, 46, 55
7, 22920, Note_on_c, 9, 39, 100
7, 22920, Note_on_c, 9, 40, 115
7, 22934, Note_on_c, 9, 40, 0
7, 22934, Note_on_c, 9, 39, 0
7, 22934, Note_on_c, 9, 46, 0
7, 22950, Note_on_c, 9, 46, 55
7, 22964, Note_on_c, 9, 46, 0
7, 22980, Note_on_c, 9, 46, 55
7, 22994, Note_on_c, 9, 46, 0
7, 23010, Note_on_c, 9, 46, 55
7, 23024, Note_on_c, 9, 46, 0
7, 23040, Note_on_c, 9, 46, 55
7, 23040, Note_on_c, 9, 35, 100
7, 23054, Note_on_c, 9, 35, 0
7, 23054, Note_on_c, 9, 46, 0
7, 23070, Note_on_c, 9, 46, 55
7, 23084, Note_on_c, 9, 46, 0
7, 23100, Note_on_c, 9, 46, 55
7, 23114, Note_on_c, 9, 46, 0
7, 23130, Note_on_c, 9, 46, 55
7, 23144, Note_on_c, 9, 46, 0
7, 23160, Note_on_c, 9, 46, 55
7, 23160, Note_on_c, 9, 39, 100
7, 23160, Note_on_c, 9, 40, 115
7, 23174, Note_on_c, 9, 40, 0
7, 23174, Note_on_c, 9, 39, 0
7, 23174, Note_on_c, 9, 46, 0
7, 23190, Note_on_c, 9, 46, 55
7, 23204, Note_on_c, 9, 46, 0
7, 23220, Note_on_c, 9, 46, 55
7, 23220, Note_on_c, 9, 35, 100
7, 23234, Note_on_c, 9, 35, 0
7, 23234, Note_on_c, 9, 46, 0
7, 23250, Note_on_c, 9, 46, 55
7, 23264, Note_on_c, 9, 46, 0
7, 23280, Note_on_c, 9, 35, 100
7, 23280, Note_on_c, 9, 46, 55
7, 23294, Note_on_c, 9, 46, 0
7, 23294, Note_on_c, 9, 35, 0
7, 23310, Note_on_c, 9, 46, 55
7, 23324, Note_on_c, 9, 46, 0
7, 23340, Note_on_c, 9, 46, 55
7, 23354, Note_on_c, 9, 46, 0
7, 23370, Note_on_c, 9, 46, 55
7, 23384, Note_on_c, 9, 46, 0
7, 23400, Note_on_c, 9, 46, 55
7, 23400, Note_on_c, 9, 39, 100
7, 23400, Note_on_c, 9, 40, 115
7, 23414, Note_on_c, 9, 40, 0
7, 23414, Note_on_c, 9, 39, 0
7, 23414, Note_on_c, 9, 46, 0
7, 23430, Note_on_c, 9, 46, 55
7, 23444, Note_on_c, 9, 46, 0
7, 23460, Note_on_c, 9, 46, 55
7, 23474, Note_on_c, 9, 46, 0
7, 23490, Note_on_c, 9, 46, 55
7, 23504, Note_on_c, 9, 46, 0
7, 23520, Note_on_c, 9, 46, 55
7, 23520, Note_on_c, 9, 35, 100
7, 23534, Note_on_c, 9, 35, 0
7, 23534, Note_on_c, 9, 46, 0
7, 23550, Note_on_c, 9, 46, 55
7, 23564, Note_on_c, 9, 46, 0
7, 23580, Note_on_c, 9, 46, 55
7, 23594, Note_on_c, 9, 46, 0
7, 23610, Note_on_c, 9, 46, 55
7, 23624, Note_on_c, 9, 46, 0
7, 23640, Note_on_c, 9, 46, 55
7, 23640, Note_on_c, 9, 39, 100
7, 23640, Note_on_c, 9, 40, 115
7, 23654, Note_on_c, 9, 40, 0
7, 23654, Note_on_c, 9, 39, 0
7, 23654, Note_on_c, 9, 46, 0
7, 23670, Note_on_c, 9, 46, 55
7, 23684, Note_on_c, 9, 46, 0
7, 23700, Note_on_c, 9, 46, 55
7, 23700, Note_on_c, 9, 35, 100
7, 23714, Note_on_c, 9, 35, 0
7, 23714, Note_on_c, 9, 46, 0
7, 23730, Note_on_c, 9, 46, 55
7, 23744, Note_on_c, 9, 46, 0
7, 23760, Note_on_c, 9, 35, 100
7, 23760, Note_on_c, 9, 46, 55
7, 23774, Note_on_c, 9, 46, 0
7, 23774, Note_on_c, 9, 35, 0
7, 23790, Note_on_c, 9, 46, 55
7, 23804, Note_on_c, 9, 46, 0
7, 23820, Note_on_c, 9, 46, 55
7, 23834, Note_on_c, 9, 46, 0
7, 23850, Note_on_c, 9, 46, 55
7, 23864, Note_on_c, 9, 46, 0
7, 23880, Note_on_c, 9, 46, 55
7, 23880, Note_on_c, 9, 39, 100
7, 23880, Note_on_c, 9, 40, 115
7, 23894, Note_on_c, 9, 40, 0
7, 23894, Note_on_c, 9, 39, 0
7, 23894, Note_on_c, 9, 46, 0
7, 23910, Note_on_c, 9, 46, 55
7, 23924, Note_on_c, 9, 46, 0
7, 23940, Note_on_c, 9, 46, 55
7, 23954, Note_on_c, 9, 46, 0
7, 23970, Note_on_c, 9, 46, 55
7, 23984, Note_on_c, 9, 46, 0
7, 24000, Note_on_c, 9, 46, 55
7, 24000, Note_on_c, 9, 35, 100
7, 24014, Note_on_c, 9, 35, 0
7, 24014, Note_on_c, 9, 46, 0
7, 24030, Note_on_c, 9, 46, 55
7, 24044, Note_on_c, 9, 46, 0
7, 24060, Note_on_c, 9, 46, 55
7, 24074, Note_on_c, 9, 46, 0
7, 24090, Note_on_c, 9, 46, 55
7, 24104, Note_on_c, 9, 46, 0
7, 24120, Note_on_c, 9, 46, 55
7, 24120, Note_on_c, 9, 39, 100
7, 24120, Note_on_c, 9, 40, 115
7, 24134, Note_on_c, 9, 40, 0
7, 24134, Note_on_c, 9, 39, 0
7, 24134, Note_on_c, 9, 46, 0
7, 24150, Note_on_c, 9, 46, 55
7, 24164, Note_on_c, 9, 46, 0
7, 24180, Note_on_c, 9, 46, 55
7, 24180, Note_on_c, 9, 35, 100
7, 24194, Note_on_c, 9, 35, 0
7, 24194, Note_on_c, 9, 46, 0
7, 24210, Note_on_c, 9, 46, 55
7, 24224, Note_on_c, 9, 46, 0
7, 24240, Note_on_c, 9, 35, 100
7, 24240, Note_on_c, 9, 46, 55
7, 24254, Note_on_c, 9, 46, 0
7, 24254, Note_on_c, 9, 35, 0
7, 24270, Note_on_c, 9, 46, 55
7, 24284, Note_on_c, 9, 46, 0
7, 24300, Note_on_c, 9, 46, 55
7, 24314, Note_on_c, 9, 46, 0
7, 24330, Note_on_c, 9, 46, 55
7, 24344, Note_on_c, 9, 46, 0
7, 24360, Note_on_c, 9, 46, 55
7, 24360, Note_on_c, 9, 39, 100
7, 24360, Note_on_c, 9, 40, 115
7, 24374, Note_on_c, 9, 40, 0
7, 24374, Note_on_c, 9, 39, 0
7, 24374, Note_on_c, 9, 46, 0
7, 24390, Note_on_c, 9, 46, 55
7, 24404, Note_on_c, 9, 46, 0
7, 24420, Note_on_c, 9, 46, 55
7, 24434, Note_on_c, 9, 46, 0
7, 24450, Note_on_c, 9, 46, 55
7, 24464, Note_on_c, 9, 46, 0
7, 24480, Note_on_c, 9, 46, 55
7, 24480, Note_on_c, 9, 35, 100
7, 24494, Note_on_c, 9, 35, 0
7, 24494, Note_on_c, 9, 46, 0
7, 24510, Note_on_c, 9, 46, 55
7, 24524, Note_on_c, 9, 46, 0
7, 24540, Note_on_c, 9, 46, 55
7, 24554, Note_on_c, 9, 46, 0
7, 24570, Note_on_c, 9, 46, 55
7, 24584, Note_on_c, 9, 46, 0
7, 24600, Note_on_c, 9, 46, 55
7, 24600, Note_on_c, 9, 39, 100
7, 24600, Note_on_c, 9, 40, 115
7, 24614, Note_on_c, 9, 40, 0
7, 24614, Note_on_c, 9, 39, 0
7, 24614, Note_on_c, 9, 46, 0
7, 24630, Note_on_c, 9, 46, 55
7, 24644, Note_on_c, 9, 46, 0
7, 24660, Note_on_c, 9, 46, 55
7, 24660, Note_on_c, 9, 35, 100
7, 24674, Note_on_c, 9, 35, 0
7, 24674, Note_on_c, 9, 46, 0
7, 24690, Note_on_c, 9, 46, 55
7, 24704, Note_on_c, 9, 46, 0
7, 24720, Note_on_c, 9, 35, 100
7, 24720, Note_on_c, 9, 46, 55
7, 24734, Note_on_c, 9, 46, 0
7, 24734, Note_on_c, 9, 35, 0
7, 24750, Note_on_c, 9, 46, 55
7, 24764, Note_on_c, 9, 46, 0
7, 24780, Note_on_c, 9, 46, 55
7, 24794, Note_on_c, 9, 46, 0
7, 24810, Note_on_c, 9, 46, 55
7, 24824, Note_on_c, 9, 46, 0
7, 24840, Note_on_c, 9, 46, 55
7, 24840, Note_on_c, 9, 39, 100
7, 24840, Note_on_c, 9, 40, 115
7, 24854, Note_on_c, 9, 40, 0
7, 24854, Note_on_c, 9, 39, 0
7, 24854, Note_on_c, 9, 46, 0
7, 24870, Note_on_c, 9, 46, 55
7, 24884, Note_on_c, 9, 46, 0
7, 24900, Note_on_c, 9, 46, 55
7, 24914, Note_on_c, 9, 46, 0
7, 24930, Note_on_c, 9, 46, 55
7, 24944, Note_on_c, 9, 46, 0
7, 24960, Note_on_c, 9, 46, 55
7, 24960, Note_on_c, 9, 35, 100
7, 24974, Note_on_c, 9, 35, 0
7, 24974, Note_on_c, 9, 46, 0
7, 24990, Note_on_c, 9, 46, 55
7, 25004, Note_on_c, 9, 46, 0
7, 25020, Note_on_c, 9, 46, 55
7, 25034, Note_on_c, 9, 46, 0
7, 25050, Note_on_c, 9, 46, 55
7, 25064, Note_on_c, 9, 46, 0
7, 25080, Note_on_c, 9, 46, 55
7, 25080, Note_on_c, 9, 39, 100
7, 25080, Note_on_c, 9, 40, 115
7, 25094, Note_on_c, 9, 40, 0
7, 25094, Note_on_c, 9, 39, 0
7, 25094, Note_on_c, 9, 46, 0
7, 25110, Note_on_c, 9, 46, 55
7, 25124, Note_on_c, 9, 46, 0
7, 25140, Note_on_c, 9, 46, 55
7, 25140, Note_on_c, 9, 35, 100
7, 25154, Note_on_c, 9, 35, 0
7, 25154, Note_on_c, 9, 46, 0
7, 25170, Note_on_c, 9, 46, 55
7, 25184, Note_on_c, 9, 46, 0
7, 25200, Note_on_c, 9, 35, 100
7, 25200, Note_on_c, 9, 46, 55
7, 25214, Note_on_c, 9, 46, 0
7, 25214, Note_on_c, 9, 35, 0
7, 25230, Note_on_c, 9, 46, 55
7, 25244, Note_on_c, 9, 46, 0
7, 25260, Note_on_c, 9, 46, 55
7, 25274, Note_on_c, 9, 46, 0
7, 25290, Note_on_c, 9, 46, 55
7, 25304, Note_on_c, 9, 46, 0
7, 25320, Note_on_c, 9, 46, 55
7, 25320, Note_on_c, 9, 39, 100
7, 25320, Note_on_c, 9, 40, 115
7, 25334, Note_on_c, 9, 40, 0
7, 25334, Note_on_c, 9, 39, 0
7, 25334, Note_on_c, 9, 46, 0
7, 25350, Note_on_c, 9, 46, 55
7, 25364, Note_on_c, 9, 46, 0
7, 25380, Note_on_c, 9, 46, 55
7, 25394, Note_on_c, 9, 46, 0
7, 25410, Note_on_c, 9, 46, 55
7, 25424, Note_on_c, 9, 46, 0
7, 25440, Note_on_c, 9, 46, 55
7, 25440, Note_on_c, 9, 35, 100
7, 25454, Note_on_c, 9, 35, 0
7, 25454, Note_on_c, 9, 46, 0
7, 25470, Note_on_c, 9, 46, 55
7, 25484, Note_on_c, 9, 46, 0
7, 25500, Note_on_c, 9, 46, 55
7, 25514, Note_on_c, 9, 46, 0
7, 25530, Note_on_c, 9, 46, 55
7, 25544, Note_on_c, 9, 46, 0
7, 25560, Note_on_c, 9, 46, 55
7, 25560, Note_on_c, 9, 39, 100
7, 25560, Note_on_c, 9, 40, 115
7, 25574, Note_on_c, 9, 40, 0
7, 25574, Note_on_c, 9, 39, 0
7, 25574, Note_on_c, 9, 46, 0
7, 25590, Note_on_c, 9, 46, 55
7, 25604, Note_on_c, 9, 46, 0
7, 25620, Note_on_c, 9, 46, 55
7, 25620, Note_on_c, 9, 35, 100
7, 25634, Note_on_c, 9, 35, 0
7, 25634, Note_on_c, 9, 46, 0
7, 25650, Note_on_c, 9, 46, 55
7, 25664, Note_on_c, 9, 46, 0
7, 25680, Note_on_c, 9, 35, 100
7, 25680, Note_on_c, 9, 46, 55
7, 25694, Note_on_c, 9, 46, 0
7, 25694, Note_on_c, 9, 35, 0
7, 25710, Note_on_c, 9, 46, 55
7, 25724, Note_on_c, 9, 46, 0
7, 25740, Note_on_c, 9, 46, 55
7, 25754, Note_on_c, 9, 46, 0
7, 25770, Note_on_c, 9, 46, 55
7, 25784, Note_on_c, 9, 46, 0
7, 25800, Note_on_c, 9, 46, 55
7, 25800, Note_on_c, 9, 39, 100
7, 25800, Note_on_c, 9, 40, 115
7, 25814, Note_on_c, 9, 40, 0
7, 25814, Note_on_c, 9, 39, 0
7, 25814, Note_on_c, 9, 46, 0
7, 25830, Note_on_c, 9, 46, 55
7, 25844, Note_on_c, 9, 46, 0
7, 25860, Note_on_c, 9, 46, 55
7, 25874, Note_on_c, 9, 46, 0
7, 25890, Note_on_c, 9, 46, 55
7, 25904, Note_on_c, 9, 46, 0
7, 25920, Note_on_c, 9, 46, 55
7, 25920, Note_on_c, 9, 35, 100
7, 25934, Note_on_c, 9, 35, 0
7, 25934, Note_on_c, 9, 46, 0
7, 25950, Note_on_c, 9, 46, 55
7, 25964, Note_on_c, 9, 46, 0
7, 25980, Note_on_c, 9, 46, 55
7, 25994, Note_on_c, 9, 46, 0
7, 26010, Note_on_c, 9, 46, 55
7, 26024, Note_on_c, 9, 46, 0
7, 26040, Note_on_c, 9, 46, 55
7, 26040, Note_on_c, 9, 39, 100
7, 26040, Note_on_c, 9, 40, 115
7, 26054, Note_on_c, 9, 40, 0
7, 26054, Note_on_c, 9, 39, 0
7, 26054, Note_on_c, 9, 46, 0
7, 26070, Note_on_c, 9, 46, 55
7, 26084, Note_on_c, 9, 46, 0
7, 26100, Note_on_c, 9, 46, 55
7, 26100, Note_on_c, 9, 35, 100
7, 26114, Note_on_c, 9, 35, 0
7, 26114, Note_on_c, 9, 46, 0
7, 26130, Note_on_c, 9, 46, 55
7, 26144, Note_on_c, 9, 46, 0
7, 26160, Note_on_c, 9, 35, 100
7, 26160, Note_on_c, 9, 46, 55
7, 26174, Note_on_c, 9, 46, 0
7, 26174, Note_on_c, 9, 35, 0
7, 26190, Note_on_c, 9, 46, 55
7, 26204, Note_on_c, 9, 46, 0
7, 26220, Note_on_c, 9, 46, 55
7, 26234, Note_on_c, 9, 46, 0
7, 26250, Note_on_c, 9, 46, 55
7, 26264, Note_on_c, 9, 46, 0
7, 26280, Note_on_c, 9, 46, 55
7, 26280, Note_on_c, 9, 39, 100
7, 26280, Note_on_c, 9, 40, 115
7, 26294, Note_on_c, 9, 40, 0
7, 26294, Note_on_c, 9, 39, 0
7, 26294, Note_on_c, 9, 46, 0
7, 26310, Note_on_c, 9, 46, 55
7, 26324, Note_on_c, 9, 46, 0
7, 26340, Note_on_c, 9, 46, 55
7, 26354, Note_on_c, 9, 46, 0
7, 26370, Note_on_c, 9, 46, 55
7, 26384, Note_on_c, 9, 46, 0
7, 26400, Note_on_c, 9, 46, 55
7, 26400, Note_on_c, 9, 35, 100
7, 26414, Note_on_c, 9, 35, 0
7, 26414, Note_on_c, 9, 46, 0
7, 26430, Note_on_c, 9, 46, 55
7, 26444, Note_on_c, 9, 46, 0
7, 26460, Note_on_c, 9, 46, 55
7, 26474, Note_on_c, 9, 46, 0
7, 26490, Note_on_c, 9, 46, 55
7, 26504, Note_on_c, 9, 46, 0
7, 26520, Note_on_c, 9, 46, 55
7, 26520, Note_on_c, 9, 39, 100
7, 26520, Note_on_c, 9, 40, 115
7, 26534, Note_on_c, 9, 40, 0
7, 26534, Note_on_c, 9, 39, 0
7, 26534, Note_on_c, 9, 46, 0
7, 26550, Note_on_c, 9, 46, 55
7, 26564, Note_on_c, 9, 46, 0
7, 26580, Note_on_c, 9, 46, 55
7, 26580, Note_on_c, 9, 35, 100
7, 26594, Note_on_c, 9, 35, 0
7, 26594, Note_on_c, 9, 46, 0
7, 26610, Note_on_c, 9, 46, 55
7, 26624, Note_on_c, 9, 46, 0
7, 26640, Note_on_c, 9, 35, 100
7, 26640, Note_on_c, 9, 46, 55
7, 26654, Note_on_c, 9, 46, 0
7, 26654, Note_on_c, 9, 35, 0
7, 26670, Note_on_c, 9, 46, 55
7, 26684, Note_on_c, 9, 46, 0
7, 26700, Note_on_c, 9, 46, 55
7, 26714, Note_on_c, 9, 46, 0
7, 26730, Note_on_c, 9, 46, 55
7, 26744, Note_on_c, 9, 46, 0
7, 26760, Note_on_c, 9, 46, 55
7, 26760, Note_on_c, 9, 39, 100
7, 26760, Note_on_c, 9, 40, 115
7, 26774, Note_on_c, 9, 40, 0
7, 26774, Note_on_c, 9, 39, 0
7, 26774, Note_on_c, 9, 46, 0
7, 26790, Note_on_c, 9, 46, 55
7, 26804, Note_on_c, 9, 46, 0
7, 26820, Note_on_c, 9, 46, 55
7, 26834, Note_on_c, 9, 46, 0
7, 26850, Note_on_c, 9, 46, 55
7, 26864, Note_on_c, 9, 46, 0
7, 26880, Note_on_c, 9, 46, 55
7, 26880, Note_on_c, 9, 35, 100
7, 26894, Note_on_c, 9, 35, 0
7, 26894, Note_on_c, 9, 46, 0
7, 26910, Note_on_c, 9, 46, 55
7, 26924, Note_on_c, 9, 46, 0
7, 26940, Note_on_c, 9, 46, 55
7, 26954, Note_on_c, 9, 46, 0
7, 26970, Note_on_c, 9, 46, 55
7, 26984, Note_on_c, 9, 46, 0
7, 27000, Note_on_c, 9, 46, 55
7, 27000, Note_on_c, 9, 39, 100
7, 27000, Note_on_c, 9, 40, 115
7, 27014, Note_on_c, 9, 40, 0
7, 27014, Note_on_c, 9, 39, 0
7, 27014, Note_on_c, 9, 46, 0
7, 27030, Note_on_c, 9, 46, 55
7, 27044, Note_on_c, 9, 46, 0
7, 27060, Note_on_c, 9, 46, 55
7, 27060, Note_on_c, 9, 35, 100
7, 27074, Note_on_c, 9, 35, 0
7, 27074, Note_on_c, 9, 46, 0
7, 27090, Note_on_c, 9, 46, 55
7, 27104, Note_on_c, 9, 46, 0
7, 27120, Note_on_c, 9, 35, 100
7, 27120, Note_on_c, 9, 46, 55
7, 27134, Note_on_c, 9, 46, 0
7, 27134, Note_on_c, 9, 35, 0
7, 27150, Note_on_c, 9, 46, 55
7, 27164, Note_on_c, 9, 46, 0
7, 27180, Note_on_c, 9, 46, 55
7, 27194, Note_on_c, 9, 46, 0
7, 27210, Note_on_c, 9, 46, 55
7, 27224, Note_on_c, 9, 46, 0
7, 27240, Note_on_c, 9, 46, 55
7, 27240, Note_on_c, 9, 39, 100
7, 27240, Note_on_c, 9, 40, 115
7, 27254, Note_on_c, 9, 40, 0
7, 27254, Note_on_c, 9, 39, 0
7, 27254, Note_on_c, 9, 46, 0
7, 27270, Note_on_c, 9, 46, 55
7, 27284, Note_on_c, 9, 46, 0
7, 27300, Note_on_c, 9, 46, 55
7, 27314, Note_on_c, 9, 46, 0
7, 27330, Note_on_c, 9, 46, 55
7, 27344, Note_on_c, 9, 46, 0
7, 27360, Note_on_c, 9, 46, 55
7, 27360, Note_on_c, 9, 35, 100
7, 27374, Note_on_c, 9, 35, 0
7, 27374, Note_on_c, 9, 46, 0
7, 27390, Note_on_c, 9, 46, 55
7, 27404, Note_on_c, 9, 46, 0
7, 27420, Note_on_c, 9, 46, 55
7, 27434, Note_on_c, 9, 46, 0
7, 27450, Note_on_c, 9, 46, 55
7, 27464, Note_on_c, 9, 46, 0
7, 27480, Note_on_c, 9, 46, 55
7, 27480, Note_on_c, 9, 39, 100
7, 27480, Note_on_c, 9, 40, 115
7, 27494, Note_on_c, 9, 40, 0
7, 27494, Note_on_c, 9, 39, 0
7, 27494, Note_on_c, 9, 46, 0
7, 27510, Note_on_c, 9, 46, 55
7, 27524, Note_on_c, 9, 46, 0
7, 27540, Note_on_c, 9, 46, 55
7, 27540, Note_on_c, 9, 35, 100
7, 27554, Note_on_c, 9, 35, 0
7, 27554, Note_on_c, 9, 46, 0
7, 27570, Note_on_c, 9, 46, 55
7, 27584, Note_on_c, 9, 46, 0
7, 27600, Note_on_c, 9, 35, 100
7, 27600, Note_on_c, 9, 46, 55
7, 27614, Note_on_c, 9, 46, 0
7, 27614, Note_on_c, 9, 35, 0
7, 27630, Note_on_c, 9, 46, 55
7, 27644, Note_on_c, 9, 46, 0
7, 27660, Note_on_c, 9, 46, 55
7, 27674, Note_on_c, 9, 46, 0
7, 27690, Note_on_c, 9, 46, 55
7, 27704, Note_on_c, 9, 46, 0
7, 27720, Note_on_c, 9, 46, 55
7, 27720, Note_on_c, 9, 39, 100
7, 27720, Note_on_c, 9, 40, 115
7, 27734, Note_on_c, 9, 40, 0
7, 27734, Note_on_c, 9, 39, 0
7, 27734, Note_on_c, 9, 46, 0
7, 27750, Note_on_c, 9, 46, 55
7, 27764, Note_on_c, 9, 46, 0
7, 27780, Note_on_c, 9, 46, 55
7, 27794, Note_on_c, 9, 46, 0
7, 27810, Note_on_c, 9, 46, 55
7, 27824, Note_on_c, 9, 46, 0
7, 27840, Note_on_c, 9, 46, 55
7, 27840, Note_on_c, 9, 35, 100
7, 27854, Note_on_c, 9, 35, 0
7, 27854, Note_on_c, 9, 46, 0
7, 27870, Note_on_c, 9, 46, 55
7, 27884, Note_on_c, 9, 46, 0
7, 27900, Note_on_c, 9, 46, 55
7, 27914, Note_on_c, 9, 46, 0
7, 27930, Note_on_c, 9, 46, 55
7, 27944, Note_on_c, 9, 46, 0
7, 27960, Note_on_c, 9, 46, 55
7, 27960, Note_on_c, 9, 39, 100
7, 27960, Note_on_c, 9, 40, 115
7, 27974, Note_on_c, 9, 40, 0
7, 27974, Note_on_c, 9, 39, 0
7, 27974, Note_on_c, 9, 46, 0
7, 27990, Note_on_c, 9, 46, 55
7, 28004, Note_on_c, 9, 46, 0
7, 28020, Note_on_c, 9, 46, 55
7, 28020, Note_on_c, 9, 35, 100
7, 28034, Note_on_c, 9, 35, 0
7, 28034, Note_on_c, 9, 46, 0
7, 28050, Note_on_c, 9, 46, 55
7, 28064, Note_on_c, 9, 46, 0
7, 28080, Note_on_c, 9, 35, 100
7, 28080, Note_on_c, 9, 46, 55
7, 28094, Note_on_c, 9, 46, 0
7, 28094, Note_on_c, 9, 35, 0
7, 28110, Note_on_c, 9, 46, 55
7, 28124, Note_on_c, 9, 46, 0
7, 28140, Note_on_c, 9, 46, 55
7, 28154, Note_on_c, 9, 46, 0
7, 28170, Note_on_c, 9, 46, 55
7, 28184, Note_on_c, 9, 46, 0
7, 28200, Note_on_c, 9, 38, 100
7, 28200, Note_on_c, 9, 46, 55
7, 28200, Note_on_c, 9, 40, 115
7, 28214, Note_on_c, 9, 40, 0
7, 28214, Note_on_c, 9, 46, 0
7, 28214, Note_on_c, 9, 38, 0
7, 28230, Note_on_c, 9, 38, 100
7, 28230, Note_on_c, 9, 40, 100
7, 28230, Note_on_c, 9, 46, 55
7, 28244, Note_on_c, 9, 46, 0
7, 28244, Note_on_c, 9, 40, 0
7, 28244, Note_on_c, 9, 38, 0
7, 28260, Note_on_c, 9, 38, 100
7, 28260, Note_on_c, 9, 40, 100
7, 28260, Note_on_c, 9, 46, 55
7, 28274, Note_on_c, 9, 46, 0
7, 28274, Note_on_c, 9, 40, 0
7, 28274, Note_on_c, 9, 38, 0
7, 28290, Note_on_c, 9, 38, 100
7, 28290, Note_on_c, 9, 40, 100
7, 28290, Note_on_c, 9, 46, 55
7, 28304, Note_on_c, 9, 46, 0
7, 28304, Note_on_c, 9, 40, 0
7, 28304, Note_on_c, 9, 38, 0
7, 28320, Note_on_c, 9, 46, 55
7, 28320, Note_on_c, 9, 35, 100
7, 28334, Note_on_c, 9, 35, 0
7, 28334, Note_on_c, 9, 46, 0
7, 28350, Note_on_c, 9, 46, 55
7, 28364, Note_on_c, 9, 46, 0
7, 28380, Note_on_c, 9, 46, 55
7, 28394, Note_on_c, 9, 46, 0
7, 28410, Note_on_c, 9, 46, 55
7, 28424, Note_on_c, 9, 46, 0
7, 28440, Note_on_c, 9, 46, 55
7, 28440, Note_on_c, 9, 39, 100
7, 28440, Note_on_c, 9, 40, 115
7, 28454, Note_on_c, 9, 40, 0
7, 28454, Note_on_c, 9, 39, 0
7, 28454, Note_on_c, 9, 46, 0
7, 28470, Note_on_c, 9, 46, 55
7, 28484, Note_on_c, 9, 46, 0
7, 28500, Note_on_c, 9, 46, 55
7, 28500, Note_on_c, 9, 35, 100
7, 28514, Note_on_c, 9, 35, 0
7, 28514, Note_on_c, 9, 46, 0
7, 28530, Note_on_c, 9, 46, 55
7, 28544, Note_on_c, 9, 46, 0
7, 28560, Note_on_c, 9, 35, 100
7, 28560, Note_on_c, 9, 46, 55
7, 28574, Note_on_c, 9, 46, 0
7, 28574, Note_on_c, 9, 35, 0
7, 28590, Note_on_c, 9, 46, 55
7, 28604, Note_on_c, 9, 46, 0
7, 28620, Note_on_c, 9, 46, 55
7, 28634, Note_on_c, 9, 46, 0
7, 28650, Note_on_c, 9, 46, 55
7, 28664, Note_on_c, 9, 46, 0
7, 28680, Note_on_c, 9, 46, 55
7, 28680, Note_on_c, 9, 39, 100
7, 28680, Note_on_c, 9, 40, 115
7, 28694, Note_on_c, 9, 40, 0
7, 28694, Note_on_c, 9, 39, 0
7, 28694, Note_on_c, 9, 46, 0
7, 28710, Note_on_c, 9, 46, 55
7, 28724, Note_on_c, 9, 46, 0
7, 28740, Note_on_c, 9, 46, 55
7, 28754, Note_on_c, 9, 46, 0
7, 28770, Note_on_c, 9, 46, 55
7, 28784, Note_on_c, 9, 46, 0
7, 28800, Note_on_c, 9, 46, 55
7, 28800, Note_on_c, 9, 35, 100
7, 28814, Note_on_c, 9, 35, 0
7, 28814, Note_on_c, 9, 46, 0
7, 28830, Note_on_c, 9, 46, 55
7, 28844, Note_on_c, 9, 46, 0
7, 28860, Note_on_c, 9, 46, 55
7, 28874, Note_on_c, 9, 46, 0
7, 28890, Note_on_c, 9, 46, 55
7, 28904, Note_on_c, 9, 46, 0
7, 28920, Note_on_c, 9, 46, 55
7, 28920, Note_on_c, 9, 39, 100
7, 28920, Note_on_c, 9, 40, 115
7, 28934, Note_on_c, 9, 40, 0
7, 28934, Note_on_c, 9, 39, 0
7, 28934, Note_on_c, 9, 46, 0
7, 28950, Note_on_c, 9, 46, 55
7, 28964, Note_on_c, 9, 46, 0
7, 28980, Note_on_c, 9, 46, 55
7, 28980, Note_on_c, 9, 35, 100
7, 28994, Note_on_c, 9, 35, 0
7, 28994, Note_on_c, 9, 46, 0
7, 29010, Note_on_c, 9, 46, 55
7, 29024, Note_on_c, 9, 46, 0
7, 29040, Note_on_c, 9, 35, 100
7, 29040, Note_on_c, 9, 46, 55
7, 29054, Note_on_c, 9, 46, 0
7, 29054, Note_on_c, 9, 35, 0
7, 29070, Note_on_c, 9, 46, 55
7, 29084, Note_on_c, 9, 46, 0
7, 29100, Note_on_c, 9, 46, 55
7, 29114, Note_on_c, 9, 46, 0
7, 29130, Note_on_c, 9, 46, 55
7, 29144, Note_on_c, 9, 46, 0
7, 29160, Note_on_c, 9, 46, 55
7, 29160, Note_on_c, 9, 39, 100
7, 29160, Note_on_c, 9, 40, 115
7, 29174, Note_on_c, 9, 40, 0
7, 29174, Note_on_c, 9, 39, 0
7, 29174, Note_on_c, 9, 46, 0
7, 29190, Note_on_c, 9, 46, 55
7, 29204, Note_on_c, 9, 46, 0
7, 29220, Note_on_c, 9, 46, 55
7, 29234, Note_on_c, 9, 46, 0
7, 29250, Note_on_c, 9, 46, 55
7, 29264, Note_on_c, 9, 46, 0
7, 29280, Note_on_c, 9, 46, 55
7, 29280, Note_on_c, 9, 35, 100
7, 29294, Note_on_c, 9, 35, 0
7, 29294, Note_on_c, 9, 46, 0
7, 29310, Note_on_c, 9, 46, 55
7, 29324, Note_on_c, 9, 46, 0
7, 29340, Note_on_c, 9, 46, 55
7, 29354, Note_on_c, 9, 46, 0
7, 29370, Note_on_c, 9, 46, 55
7, 29384, Note_on_c, 9, 46, 0
7, 29400, Note_on_c, 9, 46, 55
7, 29400, Note_on_c, 9, 39, 100
7, 29400, Note_on_c, 9, 40, 115
7, 29414, Note_on_c, 9, 40, 0
7, 29414, Note_on_c, 9, 39, 0
7, 29414, Note_on_c, 9, 46, 0
7, 29430, Note_on_c, 9, 46, 55
7, 29444, Note_on_c, 9, 46, 0
7, 29460, Note_on_c, 9, 46, 55
7, 29460, Note_on_c, 9, 35, 100
7, 29474, Note_on_c, 9, 35, 0
7, 29474, Note_on_c, 9, 46, 0
7, 29490, Note_on_c, 9, 46, 55
7, 29504, Note_on_c, 9, 46, 0
7, 29520, Note_on_c, 9, 35, 100
7, 29520, Note_on_c, 9, 46, 55
7, 29534, Note_on_c, 9, 46, 0
7, 29534, Note_on_c, 9, 35, 0
7, 29550, Note_on_c, 9, 46, 55
7, 29564, Note_on_c, 9, 46, 0
7, 29580, Note_on_c, 9, 46, 55
7, 29594, Note_on_c, 9, 46, 0
7, 29610, Note_on_c, 9, 46, 55
7, 29624, Note_on_c, 9, 46, 0
7, 29640, Note_on_c, 9, 46, 55
7, 29640, Note_on_c, 9, 39, 100
7, 29640, Note_on_c, 9, 40, 115
7, 29654, Note_on_c, 9, 40, 0
7, 29654, Note_on_c, 9, 39, 0
7, 29654, Note_on_c, 9, 46, 0
7, 29670, Note_on_c, 9, 46, 55
7, 29684, Note_on_c, 9, 46, 0
7, 29700, Note_on_c, 9, 46, 55
7, 29714, Note_on_c, 9, 46, 0
7, 29730, Note_on_c, 9, 46, 55
7, 29744, Note_on_c, 9, 46, 0
7, 29760, Note_on_c, 9, 46, 55
7, 29760, Note_on_c, 9, 35, 100
7, 29774, Note_on_c, 9, 35, 0
7, 29774, Note_on_c, 9, 46, 0
7, 29790, Note_on_c, 9, 46, 55
7, 29804, Note_on_c, 9, 46, 0
7, 29820, Note_on_c, 9, 46, 55
7, 29834, Note_on_c, 9, 46, 0
7, 29850, Note_on_c, 9, 46, 55
7, 29864, Note_on_c, 9, 46, 0
7, 29880, Note_on_c, 9, 46, 55
7, 29880, Note_on_c, 9, 39, 100
7, 29880, Note_on_c, 9, 40, 115
7, 29894, Note_on_c, 9, 40, 0
7, 29894, Note_on_c, 9, 39, 0
7, 29894, Note_on_c, 9, 46, 0
7, 29910, Note_on_c, 9, 46, 55
7, 29924, Note_on_c, 9, 46, 0
7, 29940, Note_on_c, 9, 46, 55
7, 29940, Note_on_c, 9, 35, 100
7, 29954, Note_on_c, 9, 35, 0
7, 29954, Note_on_c, 9, 46, 0
7, 29970, Note_on_c, 9, 46, 55
7, 29984, Note_on_c, 9, 46, 0
7, 30000, Note_on_c, 9, 35, 100
7, 30000, Note_on_c, 9, 46, 55
7, 30014, Note_on_c, 9, 46, 0
7, 30014, Note_on_c, 9, 35, 0
7, 30030, Note_on_c, 9, 46, 55
7, 30044, Note_on_c, 9, 46, 0
7, 30060, Note_on_c, 9, 46, 55
7, 30074, Note_on_c, 9, 46, 0
7, 30090, Note_on_c, 9, 46, 55
7, 30104, Note_on_c, 9, 46, 0
7, 30120, Note_on_c, 9, 46, 55
7, 30120, Note_on_c, 9, 39, 100
7, 30120, Note_on_c, 9, 40, 115
7, 30134, Note_on_c, 9, 40, 0
7, 30134, Note_on_c, 9, 39, 0
7, 30134, Note_on_c, 9, 46, 0
7, 30150, Note_on_c, 9, 46, 55
7, 30164, Note_on_c, 9, 46, 0
7, 30180, Note_on_c, 9, 46, 55
7, 30194, Note_on_c, 9, 46, 0
7, 30210, Note_on_c, 9, 46, 55
7, 30224, Note_on_c, 9, 46, 0
7, 30240, Note_on_c, 9, 46, 55
7, 30240, Note_on_c, 9, 35, 100
7, 30254, Note_on_c, 9, 35, 0
7, 30254, Note_on_c, 9, 46, 0
7, 30270, Note_on_c, 9, 46, 55
7, 30284, Note_on_c, 9, 46, 0
7, 30300, Note_on_c, 9, 46, 55
7, 30314, Note_on_c, 9, 46, 0
7, 30330, Note_on_c, 9, 46, 55
7, 30344, Note_on_c, 9, 46, 0
7, 30360, Note_on_c, 9, 46, 55
7, 30360, Note_on_c, 9, 39, 100
7, 30360, Note_on_c, 9, 40, 115
7, 30374, Note_on_c, 9, 40, 0
7, 30374, Note_on_c, 9, 39, 0
7, 30374, Note_on_c, 9, 46, 0
7, 30390, Note_on_c, 9, 46, 55
7, 30404, Note_on_c, 9, 46, 0
7, 30420, Note_on_c, 9, 46, 55
7, 30420, Note_on_c, 9, 35, 100
7, 30434, Note_on_c, 9, 35, 0
7, 30434, Note_on_c, 9, 46, 0
7, 30450, Note_on_c, 9, 46, 55
7, 30464, Note_on_c, 9, 46, 0
7, 30480, Note_on_c, 9, 35, 100
7, 30480, Note_on_c, 9, 46, 55
7, 30494, Note_on_c, 9, 46, 0
7, 30494, Note_on_c, 9, 35, 0
7, 30510, Note_on_c, 9, 46, 55
7, 30524, Note_on_c, 9, 46, 0
7, 30540, Note_on_c, 9, 46, 55
7, 30554, Note_on_c, 9, 46, 0
7, 30570, Note_on_c, 9, 46, 55
7, 30584, Note_on_c, 9, 46, 0
7, 30600, Note_on_c, 9, 46, 55
7, 30600, Note_on_c, 9, 39, 100
7, 30600, Note_on_c, 9, 40, 115
7, 30614, Note_on_c, 9, 40, 0
7, 30614, Note_on_c, 9, 39, 0
7, 30614, Note_on_c, 9, 46, 0
7, 30630, Note_on_c, 9, 46, 55
7, 30644, Note_on_c, 9, 46, 0
7, 30660, Note_on_c, 9, 46, 55
7, 30674, Note_on_c, 9, 46, 0
7, 30690, Note_on_c, 9, 46, 55
7, 30704, Note_on_c, 9, 46, 0
7, 30720, Note_on_c, 9, 46, 55
7, 30720, Note_on_c, 9, 35, 100
7, 30734, Note_on_c, 9, 35, 0
7, 30734, Note_on_c, 9, 46, 0
7, 30750, Note_on_c, 9, 46, 55
7, 30764, Note_on_c, 9, 46, 0
7, 30780, Note_on_c, 9, 46, 55
7, 30794, Note_on_c, 9, 46, 0
7, 30810, Note_on_c, 9, 46, 55
7, 30824, Note_on_c, 9, 46, 0
7, 30840, Note_on_c, 9, 46, 55
7, 30840, Note_on_c, 9, 39, 100
7, 30840, Note_on_c, 9, 40, 115
7, 30854, Note_on_c, 9, 40, 0
7, 30854, Note_on_c, 9, 39, 0
7, 30854, Note_on_c, 9, 46, 0
7, 30870, Note_on_c, 9, 46, 55
7, 30884, Note_on_c, 9, 46, 0
7, 30900, Note_on_c, 9, 46, 55
7, 30900, Note_on_c, 9, 35, 100
7, 30914, Note_on_c, 9, 35, 0
7, 30914, Note_on_c, 9, 46, 0
7, 30930, Note_on_c, 9, 46, 55
7, 30944, Note_on_c, 9, 46, 0
7, 30960, Note_on_c, 9, 35, 100
7, 30960, Note_on_c, 9, 46, 55
7, 30974, Note_on_c, 9, 46, 0
7, 30974, Note_on_c, 9, 35, 0
7, 30990, Note_on_c, 9, 46, 55
7, 31004, Note_on_c, 9, 46, 0
7, 31020, Note_on_c, 9, 46, 55
7, 31034, Note_on_c, 9, 46, 0
7, 31050, Note_on_c, 9, 46, 55
7, 31064, Note_on_c, 9, 46, 0
7, 31080, Note_on_c, 9, 46, 55
7, 31080, Note_on_c, 9, 39, 100
7, 31080, Note_on_c, 9, 40, 115
7, 31094, Note_on_c, 9, 40, 0
7, 31094, Note_on_c, 9, 39, 0
7, 31094, Note_on_c, 9, 46, 0
7, 31110, Note_on_c, 9, 46, 55
7, 31124, Note_on_c, 9, 46, 0
7, 31140, Note_on_c, 9, 46, 55
7, 31154, Note_on_c, 9, 46, 0
7, 31170, Note_on_c, 9, 46, 55
7, 31184, Note_on_c, 9, 46, 0
7, 31200, Note_on_c, 9, 46, 55
7, 31200, Note_on_c, 9, 35, 100
7, 31214, Note_on_c, 9, 35, 0
7, 31214, Note_on_c, 9, 46, 0
7, 31230, Note_on_c, 9, 46, 55
7, 31244, Note_on_c, 9, 46, 0
7, 31260, Note_on_c, 9, 46, 55
7, 31274, Note_on_c, 9, 46, 0
7, 31290, Note_on_c, 9, 46, 55
7, 31304, Note_on_c, 9, 46, 0
7, 31320, Note_on_c, 9, 46, 55
7, 31320, Note_on_c, 9, 39, 100
7, 31320, Note_on_c, 9, 40, 115
7, 31334, Note_on_c, 9, 40, 0
7, 31334, Note_on_c, 9, 39, 0
7, 31334, Note_on_c, 9, 46, 0
7, 31350, Note_on_c, 9, 46, 55
7, 31364, Note_on_c, 9, 46, 0
7, 31380, Note_on_c, 9, 46, 55
7, 31380, Note_on_c, 9, 35, 100
7, 31394, Note_on_c, 9, 35, 0
7, 31394, Note_on_c, 9, 46, 0
7, 31410, Note_on_c, 9, 46, 55
7, 31424, Note_on_c, 9, 46, 0
7, 31440, Note_on_c, 9, 35, 100
7, 31440, Note_on_c, 9, 46, 55
7, 31454, Note_on_c, 9, 46, 0
7, 31454, Note_on_c, 9, 35, 0
7, 31470, Note_on_c, 9, 46, 55
7, 31484, Note_on_c, 9, 46, 0
7, 31500, Note_on_c, 9, 46, 55
7, 31514, Note_on_c, 9, 46, 0
7, 31530, Note_on_c, 9, 46, 55
7, 31544, Note_on_c, 9, 46, 0
7, 31560, Note_on_c, 9, 46, 55
7, 31560, Note_on_c, 9, 39, 100
7, 31560, Note_on_c, 9, 40, 115
7, 31574, Note_on_c, 9, 40, 0
7, 31574, Note_on_c, 9, 39, 0
7, 31574, Note_on_c, 9, 46, 0
7, 31590, Note_on_c, 9, 46, 55
7, 31604, Note_on_c, 9, 46, 0
7, 31620, Note_on_c, 9, 46, 55
7, 31634, Note_on_c, 9, 46, 0
7, 31650, Note_on_c, 9, 46, 55
7, 31664, Note_on_c, 9, 46, 0
7, 31680, Note_on_c, 9, 46, 55
7, 31680, Note_on_c, 9, 35, 100
7, 31694, Note_on_c, 9, 35, 0
7, 31694, Note_on_c, 9, 46, 0
7, 31710, Note_on_c, 9, 46, 55
7, 31724, Note_on_c, 9, 46, 0
7, 31740, Note_on_c, 9, 46, 55
7, 31754, Note_on_c, 9, 46, 0
7, 31770, Note_on_c, 9, 46, 55
7, 31784, Note_on_c, 9, 46, 0
7, 31800, Note_on_c, 9, 46, 55
7, 31800, Note_on_c, 9, 39, 100
7, 31800, Note_on_c, 9, 40, 115
7, 31814, Note_on_c, 9, 40, 0
7, 31814, Note_on_c, 9, 39, 0
7, 31814, Note_on_c, 9, 46, 0
7, 31830, Note_on_c, 9, 46, 55
7, 31844, Note_on_c, 9, 46, 0
7, 31860, Note_on_c, 9, 46, 55
7, 31860, Note_on_c, 9, 35, 100
7, 31874, Note_on_c, 9, 35, 0
7, 31874, Note_on_c, 9, 46, 0
7, 31890, Note_on_c, 9, 46, 55
7, 31904, Note_on_c, 9, 46, 0
7, 31920, Note_on_c, 9, 35, 100
7, 31920, Note_on_c, 9, 46, 55
7, 31934, Note_on_c, 9, 46, 0
7, 31934, Note_on_c, 9, 35, 0
7, 31950, Note_on_c, 9, 46, 55
7, 31964, Note_on_c, 9, 46, 0
7, 31980, Note_on_c, 9, 46, 55
7, 31994, Note_on_c, 9, 46, 0
7, 32010, Note_on_c, 9, 46, 55
7, 32024, Note_on_c, 9, 46, 0
7, 32040, Note_on_c, 9, 46, 55
7, 32040, Note_on_c, 9, 39, 100
7, 32040, Note_on_c, 9, 40, 115
7, 32054, Note_on_c, 9, 40, 0
7, 32054, Note_on_c, 9, 39, 0
7, 32054, Note_on_c, 9, 46, 0
7, 32070, Note_on_c, 9, 46, 55
7, 32084, Note_on_c, 9, 46, 0
7, 32100, Note_on_c, 9, 46, 55
7, 32114, Note_on_c, 9, 46, 0
7, 32130, Note_on_c, 9, 46, 55
7, 32144, Note_on_c, 9, 46, 0
7, 32160, Note_on_c, 9, 46, 55
7, 32160, Note_on_c, 9, 35, 100
7, 32174, Note_on_c, 9, 35, 0
7, 32174, Note_on_c, 9, 46, 0
7, 32190, Note_on_c, 9, 46, 55
7, 32204, Note_on_c, 9, 46, 0
7, 32220, Note_on_c, 9, 46, 55
7, 32234, Note_on_c, 9, 46, 0
7, 32250, Note_on_c, 9, 46, 55
7, 32264, Note_on_c, 9, 46, 0
7, 32280, Note_on_c, 9, 46, 55
7, 32280, Note_on_c, 9, 39, 100
7, 32280, Note_on_c, 9, 40, 115
7, 32294, Note_on_c, 9, 40, 0
7, 32294, Note_on_c, 9, 39, 0
7, 32294, Note_on_c, 9, 46, 0
7, 32310, Note_on_c, 9, 46, 55
7, 32324, Note_on_c, 9, 46, 0
7, 32340, Note_on_c, 9, 46, 55
7, 32340, Note_on_c, 9, 35, 100
7, 32354, Note_on_c, 9, 35, 0
7, 32354, Note_on_c, 9, 46, 0
7, 32370, Note_on_c, 9, 46, 55
7, 32384, Note_on_c, 9, 46, 0
7, 32400, Note_on_c, 9, 35, 100
7, 32400, Note_on_c, 9, 46, 55
7, 32414, Note_on_c, 9, 46, 0
7, 32414, Note_on_c, 9, 35, 0
7, 32430, Note_on_c, 9, 46, 55
7, 32444, Note_on_c, 9, 46, 0
7, 32460, Note_on_c, 9, 46, 55
7, 32474, Note_on_c, 9, 46, 0
7, 32490, Note_on_c, 9, 46, 55
7, 32504, Note_on_c, 9, 46, 0
7, 32520, Note_on_c, 9, 46, 55
7, 32520, Note_on_c, 9, 39, 100
7, 32520, Note_on_c, 9, 40, 115
7, 32534, Note_on_c, 9, 40, 0
7, 32534, Note_on_c, 9, 39, 0
7, 32534, Note_on_c, 9, 46, 0
7, 32550, Note_on_c, 9, 46, 55
7, 32564, Note_on_c, 9, 46, 0
7, 32580, Note_on_c, 9, 46, 55
7, 32594, Note_on_c, 9, 46, 0
7, 32610, Note_on_c, 9, 46, 55
7, 32624, Note_on_c, 9, 46, 0
7, 32640, Note_on_c, 9, 46, 55
7, 32640, Note_on_c, 9, 35, 100
7, 32654, Note_on_c, 9, 35, 0
7, 32654, Note_on_c, 9, 46, 0
7, 32670, Note_on_c, 9, 46, 55
7, 32684, Note_on_c, 9, 46, 0
7, 32700, Note_on_c, 9, 46, 55
7, 32714, Note_on_c, 9, 46, 0
7, 32730, Note_on_c, 9, 46, 55
7, 32744, Note_on_c, 9, 46, 0
7, 32760, Note_on_c, 9, 46, 55
7, 32760, Note_on_c, 9, 39, 100
7, 32760, Note_on_c, 9, 40, 115
7, 32774, Note_on_c, 9, 40, 0
7, 32774, Note_on_c, 9, 39, 0
7, 32774, Note_on_c, 9, 46, 0
7, 32790, Note_on_c, 9, 46, 55
7, 32804, Note_on_c, 9, 46, 0
7, 32820, Note_on_c, 9, 46, 55
7, 32820, Note_on_c, 9, 35, 100
7, 32834, Note_on_c, 9, 35, 0
7, 32834, Note_on_c, 9, 46, 0
7, 32850, Note_on_c, 9, 46, 55
7, 32864, Note_on_c, 9, 46, 0
7, 32880, Note_on_c, 9, 35, 100
7, 32880, Note_on_c, 9, 46, 55
7, 32894, Note_on_c, 9, 46, 0
7, 32894, Note_on_c, 9, 35, 0
7, 32910, Note_on_c, 9, 46, 55
7, 32924, Note_on_c, 9, 46, 0
7, 32940, Note_on_c, 9, 46, 55
7, 32954, Note_on_c, 9, 46, 0
7, 32970, Note_on_c, 9, 46, 55
7, 32984, Note_on_c, 9, 46, 0
7, 33000, Note_on_c, 9, 46, 55
7, 33000, Note_on_c, 9, 39, 100
7, 33000, Note_on_c, 9, 40, 115
7, 33014, Note_on_c, 9, 40, 0
7, 33014, Note_on_c, 9, 39, 0
7, 33014, Note_on_c, 9, 46, 0
7, 33030, Note_on_c, 9, 46, 55
7, 33044, Note_on_c, 9, 46, 0
7, 33060, Note_on_c, 9, 46, 55
7, 33074, Note_on_c, 9, 46, 0
7, 33090, Note_on_c, 9, 46, 55
7, 33104, Note_on_c, 9, 46, 0
7, 33120, Note_on_c, 9, 46, 55
7, 33120, Note_on_c, 9, 35, 100
7, 33134, Note_on_c, 9, 35, 0
7, 33134, Note_on_c, 9, 46, 0
7, 33150, Note_on_c, 9, 46, 55
7, 33164, Note_on_c, 9, 46, 0
7, 33180, Note_on_c, 9, 46, 55
7, 33194, Note_on_c, 9, 46, 0
7, 33210, Note_on_c, 9, 46, 55
7, 33224, Note_on_c, 9, 46, 0
7, 33240, Note_on_c, 9, 46, 55
7, 33240, Note_on_c, 9, 39, 100
7, 33240, Note_on_c, 9, 40, 115
7, 33254, Note_on_c, 9, 40, 0
7, 33254, Note_on_c, 9, 39, 0
7, 33254, Note_on_c, 9, 46, 0
7, 33270, Note_on_c, 9, 46, 55
7, 33284, Note_on_c, 9, 46, 0
7, 33300, Note_on_c, 9, 46, 55
7, 33300, Note_on_c, 9, 35, 100
7, 33314, Note_on_c, 9, 35, 0
7, 33314, Note_on_c, 9, 46, 0
7, 33330, Note_on_c, 9, 46, 55
7, 33344, Note_on_c, 9, 46, 0
7, 33360, Note_on_c, 9, 35, 100
7, 33360, Note_on_c, 9, 46, 55
7, 33374, Note_on_c, 9, 46, 0
7, 33374, Note_on_c, 9, 35, 0
7, 33390, Note_on_c, 9, 46, 55
7, 33404, Note_on_c, 9, 46, 0
7, 33420, Note_on_c, 9, 46, 55
7, 33434, Note_on_c, 9, 46, 0
7, 33450, Note_on_c, 9, 46, 55
7, 33464, Note_on_c, 9, 46, 0
7, 33480, Note_on_c, 9, 46, 55
7, 33480, Note_on_c, 9, 39, 100
7, 33480, Note_on_c, 9, 40, 115
7, 33494, Note_on_c, 9, 40, 0
7, 33494, Note_on_c, 9, 39, 0
7, 33494, Note_on_c, 9, 46, 0
7, 33510, Note_on_c, 9, 46, 55
7, 33524, Note_on_c, 9, 46, 0
7, 33540, Note_on_c, 9, 46, 55
7, 33554, Note_on_c, 9, 46, 0
7, 33570, Note_on_c, 9, 46, 55
7, 33584, Note_on_c, 9, 46, 0
7, 33600, Note_on_c, 9, 46, 55
7, 33600, Note_on_c, 9, 35, 100
7, 33614, Note_on_c, 9, 35, 0
7, 33614, Note_on_c, 9, 46, 0
7, 33630, Note_on_c, 9, 46, 55
7, 33644, Note_on_c, 9, 46, 0
7, 33660, Note_on_c, 9, 46, 55
7, 33674, Note_on_c, 9, 46, 0
7, 33690, Note_on_c, 9, 46, 55
7, 33704, Note_on_c, 9, 46, 0
7, 33720, Note_on_c, 9, 46, 55
7, 33720, Note_on_c, 9, 39, 100
7, 33720, Note_on_c, 9, 40, 115
7, 33734, Note_on_c, 9, 40, 0
7, 33734, Note_on_c, 9, 39, 0
7, 33734, Note_on_c, 9, 46, 0
7, 33750, Note_on_c, 9, 46, 55
7, 33764, Note_on_c, 9, 46, 0
7, 33780, Note_on_c, 9, 46, 55
7, 33780, Note_on_c, 9, 35, 100
7, 33794, Note_on_c, 9, 35, 0
7, 33794, Note_on_c, 9, 46, 0
7, 33810, Note_on_c, 9, 46, 55
7, 33824, Note_on_c, 9, 46, 0
7, 33840, Note_on_c, 9, 35, 100
7, 33840, Note_on_c, 9, 46, 55
7, 33854, Note_on_c, 9, 46, 0
7, 33854, Note_on_c, 9, 35, 0
7, 33870, Note_on_c, 9, 46, 55
7, 33884, Note_on_c, 9, 46, 0
7, 33900, Note_on_c, 9, 46, 55
7, 33914, Note_on_c, 9, 46, 0
7, 33930, Note_on_c, 9, 46, 55
7, 33944, Note_on_c, 9, 46, 0
7, 33960, Note_on_c, 9, 46, 55
7, 33960, Note_on_c, 9, 39, 100
7, 33960, Note_on_c, 9, 40, 115
7, 33974, Note_on_c, 9, 40, 0
7, 33974, Note_on_c, 9, 39, 0
7, 33974, Note_on_c, 9, 46, 0
7, 33990, Note_on_c, 9, 46, 55
7, 34004, Note_on_c, 9, 46, 0
7, 34020, Note_on_c, 9, 46, 55
7, 34034, Note_on_c, 9, 46, 0
7, 34050, Note_on_c, 9, 46, 55
7, 34064, Note_on_c, 9, 46, 0
7, 34080, Note_on_c, 9, 46, 55
7, 34080, Note_on_c, 9, 35, 100
7, 34094, Note_on_c, 9, 35, 0
7, 34094, Note_on_c, 9, 46, 0
7, 34110, Note_on_c, 9, 46, 55
7, 34124, Note_on_c, 9, 46, 0
7, 34140, Note_on_c, 9, 46, 55
7, 34154, Note_on_c, 9, 46, 0
7, 34170, Note_on_c, 9, 46, 55
7, 34184, Note_on_c, 9, 46, 0
7, 34200, Note_on_c, 9, 46, 55
7, 34200, Note_on_c, 9, 39, 100
7, 34200, Note_on_c, 9, 40, 115
7, 34214, Note_on_c, 9, 40, 0
7, 34214, Note_on_c, 9, 39, 0
7, 34214, Note_on_c, 9, 46, 0
7, 34230, Note_on_c, 9, 46, 55
7, 34244, Note_on_c, 9, 46, 0
7, 34260, Note_on_c, 9, 46, 55
7, 34260, Note_on_c, 9, 35, 100
7, 34274, Note_on_c, 9, 35, 0
7, 34274, Note_on_c, 9, 46, 0
7, 34290, Note_on_c, 9, 46, 55
7, 34304, Note_on_c, 9, 46, 0
7, 34320, Note_on_c, 9, 35, 100
7, 34320, Note_on_c, 9, 46, 55
7, 34334, Note_on_c, 9, 46, 0
7, 34334, Note_on_c, 9, 35, 0
7, 34350, Note_on_c, 9, 46, 55
7, 34364, Note_on_c, 9, 46, 0
7, 34380, Note_on_c, 9, 46, 55
7, 34394, Note_on_c, 9, 46, 0
7, 34410, Note_on_c, 9, 46, 55
7, 34424, Note_on_c, 9, 46, 0
7, 34440, Note_on_c, 9, 46, 55
7, 34440, Note_on_c, 9, 39, 100
7, 34440, Note_on_c, 9, 40, 115
7, 34454, Note_on_c, 9, 40, 0
7, 34454, Note_on_c, 9, 39, 0
7, 34454, Note_on_c, 9, 46, 0
7, 34470, Note_on_c, 9, 46, 55
7, 34484, Note_on_c, 9, 46, 0
7, 34500, Note_on_c, 9, 46, 55
7, 34514, Note_on_c, 9, 46, 0
7, 34530, Note_on_c, 9, 46, 55
7, 34544, Note_on_c, 9, 46, 0
7, 34560, Note_on_c, 9, 46, 55
7, 34560, Note_on_c, 9, 35, 100
7, 34574, Note_on_c, 9, 35, 0
7, 34574, Note_on_c, 9, 46, 0
7, 34590, Note_on_c, 9, 46, 55
7, 34604, Note_on_c, 9, 46, 0
7, 34620, Note_on_c, 9, 46, 55
7, 34634, Note_on_c, 9, 46, 0
7, 34650, Note_on_c, 9, 46, 55
7, 34664, Note_on_c, 9, 46, 0
7, 34680, Note_on_c, 9, 46, 55
7, 34680, Note_on_c, 9, 39, 100
7, 34680, Note_on_c, 9, 40, 115
7, 34694, Note_on_c, 9, 40, 0
7, 34694, Note_on_c, 9, 39, 0
7, 34694, Note_on_c, 9, 46, 0
7, 34710, Note_on_c, 9, 46, 55
7, 34724, Note_on_c, 9, 46, 0
7, 34740, Note_on_c, 9, 46, 55
7, 34740, Note_on_c, 9, 35, 100
7, 34754, Note_on_c, 9, 35, 0
7, 34754, Note_on_c, 9, 46, 0
7, 34770, Note_on_c, 9, 46, 55
7, 34784, Note_on_c, 9, 46, 0
7, 34800, Note_on_c, 9, 35, 100
7, 34800, Note_on_c, 9, 46, 55
7, 34814, Note_on_c, 9, 46, 0
7, 34814, Note_on_c, 9, 35, 0
7, 34830, Note_on_c, 9, 46, 55
7, 34844, Note_on_c, 9, 46, 0
7, 34860, Note_on_c, 9, 46, 55
7, 34874, Note_on_c, 9, 46, 0
7, 34890, Note_on_c, 9, 46, 55
7, 34904, Note_on_c, 9, 46, 0
7, 34920, Note_on_c, 9, 46, 55
7, 34920, Note_on_c, 9, 39, 100
7, 34920, Note_on_c, 9, 40, 115
7, 34934, Note_on_c, 9, 40, 0
7, 34934, Note_on_c, 9, 39, 0
7, 34934, Note_on_c, 9, 46, 0
7, 34950, Note_on_c, 9, 46, 55
7, 34964, Note_on_c, 9, 46, 0
7, 34980, Note_on_c, 9, 46, 55
7, 34994, Note_on_c, 9, 46, 0
7, 35010, Note_on_c, 9, 46, 55
7, 35024, Note_on_c, 9, 46, 0
7, 35040, Note_on_c, 9, 46, 55
7, 35040, Note_on_c, 9, 35, 100
7, 35054, Note_on_c, 9, 35, 0
7, 35054, Note_on_c, 9, 46, 0
7, 35070, Note_on_c, 9, 46, 55
7, 35084, Note_on_c, 9, 46, 0
7, 35100, Note_on_c, 9, 46, 55
7, 35114, Note_on_c, 9, 46, 0
7, 35130, Note_on_c, 9, 46, 55
7, 35144, Note_on_c, 9, 46, 0
7, 35160, Note_on_c, 9, 46, 55
7, 35160, Note_on_c, 9, 39, 100
7, 35160, Note_on_c, 9, 40, 115
7, 35174, Note_on_c, 9, 40, 0
7, 35174, Note_on_c, 9, 39, 0
7, 35174, Note_on_c, 9, 46, 0
7, 35190, Note_on_c, 9, 46, 55
7, 35204, Note_on_c, 9, 46, 0
7, 35220, Note_on_c, 9, 46, 55
7, 35220, Note_on_c, 9, 35, 100
7, 35234, Note_on_c, 9, 35, 0
7, 35234, Note_on_c, 9, 46, 0
7, 35250, Note_on_c, 9, 46, 55
7, 35264, Note_on_c, 9, 46, 0
7, 35280, Note_on_c, 9, 35, 100
7, 35280, Note_on_c, 9, 46, 55
7, 35294, Note_on_c, 9, 46, 0
7, 35294, Note_on_c, 9, 35, 0
7, 35310, Note_on_c, 9, 46, 55
7, 35324, Note_on_c, 9, 46, 0
7, 35340, Note_on_c, 9, 46, 55
7, 35354, Note_on_c, 9, 46, 0
7, 35370, Note_on_c, 9, 46, 55
7, 35384, Note_on_c, 9, 46, 0
7, 35400, Note_on_c, 9, 46, 55
7, 35400, Note_on_c, 9, 39, 100
7, 35400, Note_on_c, 9, 40, 115
7, 35414, Note_on_c, 9, 40, 0
7, 35414, Note_on_c, 9, 39, 0
7, 35414, Note_on_c, 9, 46, 0
7, 35430, Note_on_c, 9, 46, 55
7, 35444, Note_on_c, 9, 46, 0
7, 35460, Note_on_c, 9, 46, 55
7, 35474, Note_on_c, 9, 46, 0
7, 35490, Note_on_c, 9, 46, 55
7, 35504, Note_on_c, 9, 46, 0
7, 35520, Note_on_c, 9, 46, 55
7, 35520, Note_on_c, 9, 35, 100
7, 35534, Note_on_c, 9, 35, 0
7, 35534, Note_on_c, 9, 46, 0
7, 35550, Note_on_c, 9, 46, 55
7, 35564, Note_on_c, 9, 46, 0
7, 35580, Note_on_c, 9, 46, 55
7, 35594, Note_on_c, 9, 46, 0
7, 35610, Note_on_c, 9, 46, 55
7, 35624, Note_on_c, 9, 46, 0
7, 35640, Note_on_c, 9, 46, 55
7, 35640, Note_on_c, 9, 39, 100
7, 35640, Note_on_c, 9, 40, 115
7, 35654, Note_on_c, 9, 40, 0
7, 35654, Note_on_c, 9, 39, 0
7, 35654, Note_on_c, 9, 46, 0
7, 35670, Note_on_c, 9, 46, 55
7, 35684, Note_on_c, 9, 46, 0
7, 35700, Note_on_c, 9, 46, 55
7, 35700, Note_on_c, 9, 35, 100
7, 35714, Note_on_c, 9, 35, 0
7, 35714, Note_on_c, 9, 46, 0
7, 35730, Note_on_c, 9, 46, 55
7, 35744, Note_on_c, 9, 46, 0
7, 35760, Note_on_c, 9, 35, 100
7, 35760, Note_on_c, 9, 46, 55
7, 35774, Note_on_c, 9, 46, 0
7, 35774, Note_on_c, 9, 35, 0
7, 35790, Note_on_c, 9, 46, 55
7, 35804, Note_on_c, 9, 46, 0
7, 35820, Note_on_c, 9, 46, 55
7, 35834, Note_on_c, 9, 46, 0
7, 35850, Note_on_c, 9, 46, 55
7, 35864, Note_on_c, 9, 46, 0
7, 35880, Note_on_c, 9, 46, 55
7, 35880, Note_on_c, 9, 39, 100
7, 35880, Note_on_c, 9, 40, 115
7, 35894, Note_on_c, 9, 40, 0
7, 35894, Note_on_c, 9, 39, 0
7, 35894, Note_on_c, 9, 46, 0
7, 35910, Note_on_c, 9, 46, 55
7, 35924, Note_on_c, 9, 46, 0
7, 35940, Note_on_c, 9, 46, 55
7, 35954, Note_on_c, 9, 46, 0
7, 35970, Note_on_c, 9, 46, 55
7, 35984, Note_on_c, 9, 46, 0
7, 36000, Note_on_c, 9, 46, 55
7, 36000, Note_on_c, 9, 35, 100
7, 36014, Note_on_c, 9, 35, 0
7, 36014, Note_on_c, 9, 46, 0
7, 36030, Note_on_c, 9, 46, 55
7, 36044, Note_on_c, 9, 46, 0
7, 36060, Note_on_c, 9, 46, 55
7, 36074, Note_on_c, 9, 46, 0
7, 36090, Note_on_c, 9, 46, 55
7, 36104, Note_on_c, 9, 46, 0
7, 36120, Note_on_c, 9, 46, 55
7, 36120, Note_on_c, 9, 39, 100
7, 36120, Note_on_c, 9, 40, 115
7, 36134, Note_on_c, 9, 40, 0
7, 36134, Note_on_c, 9, 39, 0
7, 36134, Note_on_c, 9, 46, 0
7, 36150, Note_on_c, 9, 46, 55
7, 36164, Note_on_c, 9, 46, 0
7, 36180, Note_on_c, 9, 46, 55
7, 36180, Note_on_c, 9, 35, 100
7, 36194, Note_on_c, 9, 35, 0
7, 36194, Note_on_c, 9, 46, 0
7, 36210, Note_on_c, 9, 46, 55
7, 36224, Note_on_c, 9, 46, 0
7, 36240, Note_on_c, 9, 35, 100
7, 36240, Note_on_c, 9, 46, 55
7, 36254, Note_on_c, 9, 46, 0
7, 36254, Note_on_c, 9, 35, 0
7, 36270, Note_on_c, 9, 46, 55
7, 36284, Note_on_c, 9, 46, 0
7, 36300, Note_on_c, 9, 46, 55
7, 36314, Note_on_c, 9, 46, 0
7, 36330, Note_on_c, 9, 46, 55
7, 36344, Note_on_c, 9, 46, 0
7, 36360, Note_on_c, 9, 46, 55
7, 36360, Note_on_c, 9, 39, 100
7, 36360, Note_on_c, 9, 40, 115
7, 36374, Note_on_c, 9, 40, 0
7, 36374, Note_on_c, 9, 39, 0
7, 36374, Note_on_c, 9, 46, 0
7, 36390, Note_on_c, 9, 46, 55
7, 36404, Note_on_c, 9, 46, 0
7, 36420, Note_on_c, 9, 46, 55
7, 36434, Note_on_c, 9, 46, 0
7, 36450, Note_on_c, 9, 46, 55
7, 36464, Note_on_c, 9, 46, 0
7, 36480, Note_on_c, 9, 46, 55
7, 36480, Note_on_c, 9, 35, 100
7, 36494, Note_on_c, 9, 35, 0
7, 36494, Note_on_c, 9, 46, 0
7, 36510, Note_on_c, 9, 46, 55
7, 36524, Note_on_c, 9, 46, 0
7, 36540, Note_on_c, 9, 46, 55
7, 36554, Note_on_c, 9, 46, 0
7, 36570, Note_on_c, 9, 46, 55
7, 36584, Note_on_c, 9, 46, 0
7, 36600, Note_on_c, 9, 46, 55
7, 36600, Note_on_c, 9, 39, 100
7, 36600, Note_on_c, 9, 40, 115
7, 36614, Note_on_c, 9, 40, 0
7, 36614, Note_on_c, 9, 39, 0
7, 36614, Note_on_c, 9, 46, 0
7, 36630, Note_on_c, 9, 46, 55
7, 36644, Note_on_c, 9, 46, 0
7, 36660, Note_on_c, 9, 46, 55
7, 36660, Note_on_c, 9, 35, 100
7, 36674, Note_on_c, 9, 35, 0
7, 36674, Note_on_c, 9, 46, 0
7, 36690, Note_on_c, 9, 46, 55
7, 36704, Note_on_c, 9, 46, 0
7, 36720, Note_on_c, 9, 35, 100
7, 36720, Note_on_c, 9, 46, 55
7, 36734, Note_on_c, 9, 46, 0
7, 36734, Note_on_c, 9, 35, 0
7, 36750, Note_on_c, 9, 46, 55
7, 36764, Note_on_c, 9, 46, 0
7, 36780, Note_on_c, 9, 46, 55
7, 36794, Note_on_c, 9, 46, 0
7, 36810, Note_on_c, 9, 46, 55
7, 36824, Note_on_c, 9, 46, 0
7, 36840, Note_on_c, 9, 46, 55
7, 36840, Note_on_c, 9, 39, 100
7, 36840, Note_on_c, 9, 40, 115
7, 36854, Note_on_c, 9, 40, 0
7, 36854, Note_on_c, 9, 39, 0
7, 36854, Note_on_c, 9, 46, 0
7, 36870, Note_on_c, 9, 46, 55
7, 36884, Note_on_c, 9, 46, 0
7, 36900, Note_on_c, 9, 46, 55
7, 36914, Note_on_c, 9, 46, 0
7, 36930, Note_on_c, 9, 46, 55
7, 36944, Note_on_c, 9, 46, 0
7, 36960, Note_on_c, 9, 46, 55
7, 36960, Note_on_c, 9, 35, 100
7, 36974, Note_on_c, 9, 35, 0
7, 36974, Note_on_c, 9, 46, 0
7, 36990, Note_on_c, 9, 46, 55
7, 37004, Note_on_c, 9, 46, 0
7, 37020, Note_on_c, 9, 46, 55
7, 37034, Note_on_c, 9, 46, 0
7, 37050, Note_on_c, 9, 46, 55
7, 37064, Note_on_c, 9, 46, 0
7, 37080, Note_on_c, 9, 46, 55
7, 37080, Note_on_c, 9, 39, 100
7, 37080, Note_on_c, 9, 40, 115
7, 37094, Note_on_c, 9, 40, 0
7, 37094, Note_on_c, 9, 39, 0
7, 37094, Note_on_c, 9, 46, 0
7, 37110, Note_on_c, 9, 46, 55
7, 37124, Note_on_c, 9, 46, 0
7, 37140, Note_on_c, 9, 46, 55
7, 37140, Note_on_c, 9, 35, 100
7, 37154, Note_on_c, 9, 35, 0
7, 37154, Note_on_c, 9, 46, 0
7, 37170, Note_on_c, 9, 46, 55
7, 37184, Note_on_c, 9, 46, 0
7, 37200, Note_on_c, 9, 35, 100
7, 37200, Note_on_c, 9, 46, 55
7, 37214, Note_on_c, 9, 46, 0
7, 37214, Note_on_c, 9, 35, 0
7, 37230, Note_on_c, 9, 46, 55
7, 37244, Note_on_c, 9, 46, 0
7, 37260, Note_on_c, 9, 46, 55
7, 37274, Note_on_c, 9, 46, 0
7, 37290, Note_on_c, 9, 46, 55
7, 37304, Note_on_c, 9, 46, 0
7, 37320, Note_on_c, 9, 46, 55
7, 37320, Note_on_c, 9, 39, 100
7, 37320, Note_on_c, 9, 40, 115
7, 37334, Note_on_c, 9, 40, 0
7, 37334, Note_on_c, 9, 39, 0
7, 37334, Note_on_c, 9, 46, 0
7, 37350, Note_on_c, 9, 46, 55
7, 37364, Note_on_c, 9, 46, 0
7, 37380, Note_on_c, 9, 46, 55
7, 37394, Note_on_c, 9, 46, 0
7, 37410, Note_on_c, 9, 46, 55
7, 37424, Note_on_c, 9, 46, 0
7, 37440, Note_on_c, 9, 46, 55
7, 37440, Note_on_c, 9, 35, 100
7, 37454, Note_on_c, 9, 35, 0
7, 37454, Note_on_c, 9, 46, 0
7, 37470, Note_on_c, 9, 46, 55
7, 37484, Note_on_c, 9, 46, 0
7, 37500, Note_on_c, 9, 46, 55
7, 37514, Note_on_c, 9, 46, 0
7, 37530, Note_on_c, 9, 46, 55
7, 37544, Note_on_c, 9, 46, 0
7, 37560, Note_on_c, 9, 46, 55
7, 37560, Note_on_c, 9, 39, 100
7, 37560, Note_on_c, 9, 40, 115
7, 37574, Note_on_c, 9, 40, 0
7, 37574, Note_on_c, 9, 39, 0
7, 37574, Note_on_c, 9, 46, 0
7, 37590, Note_on_c, 9, 46, 55
7, 37604, Note_on_c, 9, 46, 0
7, 37620, Note_on_c, 9, 46, 55
7, 37620, Note_on_c, 9, 35, 100
7, 37634, Note_on_c, 9, 35, 0
7, 37634, Note_on_c, 9, 46, 0
7, 37650, Note_on_c, 9, 46, 55
7, 37664, Note_on_c, 9, 46, 0
7, 37680, Note_on_c, 9, 35, 100
7, 37680, Note_on_c, 9, 46, 55
7, 37694, Note_on_c, 9, 46, 0
7, 37694, Note_on_c, 9, 35, 0
7, 37710, Note_on_c, 9, 46, 55
7, 37724, Note_on_c, 9, 46, 0
7, 37740, Note_on_c, 9, 46, 55
7, 37754, Note_on_c, 9, 46, 0
7, 37770, Note_on_c, 9, 46, 55
7, 37784, Note_on_c, 9, 46, 0
7, 37800, Note_on_c, 9, 46, 55
7, 37800, Note_on_c, 9, 39, 100
7, 37800, Note_on_c, 9, 40, 115
7, 37814, Note_on_c, 9, 40, 0
7, 37814, Note_on_c, 9, 39, 0
7, 37814, Note_on_c, 9, 46, 0
7, 37830, Note_on_c, 9, 46, 55
7, 37844, Note_on_c, 9, 46, 0
7, 37860, Note_on_c, 9, 46, 55
7, 37874, Note_on_c, 9, 46, 0
7, 37890, Note_on_c, 9, 46, 55
7, 37904, Note_on_c, 9, 46, 0
7, 37920, Note_on_c, 9, 46, 55
7, 37920, Note_on_c, 9, 35, 100
7, 37934, Note_on_c, 9, 35, 0
7, 37934, Note_on_c, 9, 46, 0
7, 37950, Note_on_c, 9, 46, 55
7, 37964, Note_on_c, 9, 46, 0
7, 37980, Note_on_c, 9, 46, 55
7, 37994, Note_on_c, 9, 46, 0
7, 38010, Note_on_c, 9, 46, 55
7, 38024, Note_on_c, 9, 46, 0
7, 38040, Note_on_c, 9, 46, 55
7, 38040, Note_on_c, 9, 39, 100
7, 38040, Note_on_c, 9, 40, 115
7, 38054, Note_on_c, 9, 40, 0
7, 38054, Note_on_c, 9, 39, 0
7, 38054, Note_on_c, 9, 46, 0
7, 38070, Note_on_c, 9, 46, 55
7, 38084, Note_on_c, 9, 46, 0
7, 38100, Note_on_c, 9, 46, 55
7, 38100, Note_on_c, 9, 35, 100
7, 38114, Note_on_c, 9, 35, 0
7, 38114, Note_on_c, 9, 46, 0
7, 38130, Note_on_c, 9, 46, 55
7, 38144, Note_on_c, 9, 46, 0
7, 38160, Note_on_c, 9, 35, 100
7, 38160, Note_on_c, 9, 46, 55
7, 38174, Note_on_c, 9, 46, 0
7, 38174, Note_on_c, 9, 35, 0
7, 38190, Note_on_c, 9, 46, 55
7, 38204, Note_on_c, 9, 46, 0
7, 38220, Note_on_c, 9, 46, 55
7, 38234, Note_on_c, 9, 46, 0
7, 38250, Note_on_c, 9, 46, 55
7, 38264, Note_on_c, 9, 46, 0
7, 38280, Note_on_c, 9, 46, 55
7, 38280, Note_on_c, 9, 39, 100
7, 38280, Note_on_c, 9, 40, 115
7, 38294, Note_on_c, 9, 40, 0
7, 38294, Note_on_c, 9, 39, 0
7, 38294, Note_on_c, 9, 46, 0
7, 38310, Note_on_c, 9, 46, 55
7, 38324, Note_on_c, 9, 46, 0
7, 38340, Note_on_c, 9, 46, 55
7, 38354, Note_on_c, 9, 46, 0
7, 38370, Note_on_c, 9, 46, 55
7, 38384, Note_on_c, 9, 46, 0
7, 38400, Note_on_c, 9, 46, 55
7, 38400, Note_on_c, 9, 35, 100
7, 38414, Note_on_c, 9, 35, 0
7, 38414, Note_on_c, 9, 46, 0
7, 38430, Note_on_c, 9, 46, 55
7, 38444, Note_on_c, 9, 46, 0
7, 38460, Note_on_c, 9, 46, 55
7, 38474, Note_on_c, 9, 46, 0
7, 38490, Note_on_c, 9, 46, 55
7, 38504, Note_on_c, 9, 46, 0
7, 38520, Note_on_c, 9, 46, 55
7, 38520, Note_on_c, 9, 39, 100
7, 38520, Note_on_c, 9, 40, 115
7, 38534, Note_on_c, 9, 40, 0
7, 38534, Note_on_c, 9, 39, 0
7, 38534, Note_on_c, 9, 46, 0
7, 38550, Note_on_c, 9, 46, 55
7, 38564, Note_on_c, 9, 46, 0
7, 38580, Note_on_c, 9, 46, 55
7, 38580, Note_on_c, 9, 35, 100
7, 38594, Note_on_c, 9, 35, 0
7, 38594, Note_on_c, 9, 46, 0
7, 38610, Note_on_c, 9, 46, 55
7, 38624, Note_on_c, 9, 46, 0
7, 38640, Note_on_c, 9, 35, 100
7, 38640, Note_on_c, 9, 46, 55
7, 38654, Note_on_c, 9, 46, 0
7, 38654, Note_on_c, 9, 35, 0
7, 38670, Note_on_c, 9, 46, 55
7, 38684, Note_on_c, 9, 46, 0
7, 38700, Note_on_c, 9, 46, 55
7, 38714, Note_on_c, 9, 46, 0
7, 38730, Note_on_c, 9, 46, 55
7, 38744, Note_on_c, 9, 46, 0
7, 38760, Note_on_c, 9, 46, 55
7, 38760, Note_on_c, 9, 39, 100
7, 38760, Note_on_c, 9, 40, 115
7, 38774, Note_on_c, 9, 40, 0
7, 38774, Note_on_c, 9, 39, 0
7, 38774, Note_on_c, 9, 46, 0
7, 38790, Note_on_c, 9, 46, 55
7, 38804, Note_on_c, 9, 46, 0
7, 38820, Note_on_c, 9, 46, 55
7, 38834, Note_on_c, 9, 46, 0
7, 38850, Note_on_c, 9, 46, 55
7, 38864, Note_on_c, 9, 46, 0
7, 38880, Note_on_c, 9, 46, 55
7, 38880, Note_on_c, 9, 35, 100
7, 38894, Note_on_c, 9, 35, 0
7, 38894, Note_on_c, 9, 46, 0
7, 38910, Note_on_c, 9, 46, 55
7, 38924, Note_on_c, 9, 46, 0
7, 38940, Note_on_c, 9, 46, 55
7, 38954, Note_on_c, 9, 46, 0
7, 38970, Note_on_c, 9, 46, 55
7, 38984, Note_on_c, 9, 46, 0
7, 39000, Note_on_c, 9, 46, 55
7, 39000, Note_on_c, 9, 39, 100
7, 39000, Note_on_c, 9, 40, 115
7, 39014, Note_on_c, 9, 40, 0
7, 39014, Note_on_c, 9, 39, 0
7, 39014, Note_on_c, 9, 46, 0
7, 39030, Note_on_c, 9, 46, 55
7, 39044, Note_on_c, 9, 46, 0
7, 39060, Note_on_c, 9, 46, 55
7, 39060, Note_on_c, 9, 35, 100
7, 39074, Note_on_c, 9, 35, 0
7, 39074, Note_on_c, 9, 46, 0
7, 39090, Note_on_c, 9, 46, 55
7, 39104, Note_on_c, 9, 46, 0
7, 39120, Note_on_c, 9, 35, 100
7, 39120, Note_on_c, 9, 46, 55
7, 39134, Note_on_c, 9, 46, 0
7, 39134, Note_on_c, 9, 35, 0
7, 39150, Note_on_c, 9, 46, 55
7, 39164, Note_on_c, 9, 46, 0
7, 39180, Note_on_c, 9, 46, 55
7, 39194, Note_on_c, 9, 46, 0
7, 39210, Note_on_c, 9, 46, 55
7, 39224, Note_on_c, 9, 46, 0
7, 39240, Note_on_c, 9, 46, 55
7, 39240, Note_on_c, 9, 39, 100
7, 39240, Note_on_c, 9, 40, 115
7, 39254, Note_on_c, 9, 40, 0
7, 39254, Note_on_c, 9, 39, 0
7, 39254, Note_on_c, 9, 46, 0
7, 39270, Note_on_c, 9, 46, 55
7, 39284, Note_on_c, 9, 46, 0
7, 39300, Note_on_c, 9, 46, 55
7, 39314, Note_on_c, 9, 46, 0
7, 39330, Note_on_c, 9, 46, 55
7, 39344, Note_on_c, 9, 46, 0
7, 39360, Note_on_c, 9, 46, 55
7, 39360, Note_on_c, 9, 35, 100
7, 39374, Note_on_c, 9, 35, 0
7, 39374, Note_on_c, 9, 46, 0
7, 39390, Note_on_c, 9, 46, 55
7, 39404, Note_on_c, 9, 46, 0
7, 39420, Note_on_c, 9, 46, 55
7, 39434, Note_on_c, 9, 46, 0
7, 39450, Note_on_c, 9, 46, 55
7, 39464, Note_on_c, 9, 46, 0
7, 39480, Note_on_c, 9, 46, 55
7, 39480, Note_on_c, 9, 39, 100
7, 39480, Note_on_c, 9, 40, 115
7, 39494, Note_on_c, 9, 40, 0
7, 39494, Note_on_c, 9, 39, 0
7, 39494, Note_on_c, 9, 46, 0
7, 39510, Note_on_c, 9, 46, 55
7, 39524, Note_on_c, 9, 46, 0
7, 39540, Note_on_c, 9, 46, 55
7, 39540, Note_on_c, 9, 35, 100
7, 39554, Note_on_c, 9, 35, 0
7, 39554, Note_on_c, 9, 46, 0
7, 39570, Note_on_c, 9, 46, 55
7, 39584, Note_on_c, 9, 46, 0
7, 39600, Note_on_c, 9, 35, 100
7, 39600, Note_on_c, 9, 46, 55
7, 39614, Note_on_c, 9, 46, 0
7, 39614, Note_on_c, 9, 35, 0
7, 39630, Note_on_c, 9, 46, 55
7, 39644, Note_on_c, 9, 46, 0
7, 39660, Note_on_c, 9, 46, 55
7, 39674, Note_on_c, 9, 46, 0
7, 39690, Note_on_c, 9, 46, 55
7, 39704, Note_on_c, 9, 46, 0
7, 39720, Note_on_c, 9, 46, 55
7, 39720, Note_on_c, 9, 39, 100
7, 39720, Note_on_c, 9, 40, 115
7, 39734, Note_on_c, 9, 40, 0
7, 39734, Note_on_c, 9, 39, 0
7, 39734, Note_on_c, 9, 46, 0
7, 39750, Note_on_c, 9, 46, 55
7, 39764, Note_on_c, 9, 46, 0
7, 39780, Note_on_c, 9, 38, 100
7, 39780, Note_on_c, 9, 39, 100
7, 39780, Note_on_c, 9, 46, 55
7, 39794, Note_on_c, 9, 46, 0
7, 39794, Note_on_c, 9, 39, 0
7, 39794, Note_on_c, 9, 38, 0
7, 39810, Note_on_c, 9, 46, 55
7, 39824, Note_on_c, 9, 46, 0
7, 39840, Note_on_c, 9, 46, 55
7, 39840, Note_on_c, 9, 35, 100
7, 39854, Note_on_c, 9, 35, 0
7, 39854, Note_on_c, 9, 46, 0
7, 39870, Note_on_c, 9, 46, 55
7, 39884, Note_on_c, 9, 46, 0
7, 39900, Note_on_c, 9, 46, 55
7, 39914, Note_on_c, 9, 46, 0
7, 39930, Note_on_c, 9, 46, 55
7, 39944, Note_on_c, 9, 46, 0
7, 39960, Note_on_c, 9, 46, 55
7, 39960, Note_on_c, 9, 39, 100
7, 39960, Note_on_c, 9, 40, 115
7, 39974, Note_on_c, 9, 40, 0
7, 39974, Note_on_c, 9, 39, 0
7, 39974, Note_on_c, 9, 46, 0
7, 39990, Note_on_c, 9, 46, 55
7, 40004, Note_on_c, 9, 46, 0
7, 40020, Note_on_c, 9, 46, 55
7, 40020, Note_on_c, 9, 35, 100
7, 40034, Note_on_c, 9, 35, 0
7, 40034, Note_on_c, 9, 46, 0
7, 40050, Note_on_c, 9, 46, 55
7, 40064, Note_on_c, 9, 46, 0
7, 40080, Note_on_c, 9, 35, 100
7, 40080, Note_on_c, 9, 46, 55
7, 40094, Note_on_c, 9, 46, 0
7, 40094, Note_on_c, 9, 35, 0
7, 40110, Note_on_c, 9, 46, 55
7, 40124, Note_on_c, 9, 46, 0
7, 40140, Note_on_c, 9, 46, 55
7, 40154, Note_on_c, 9, 46, 0
7, 40170, Note_on_c, 9, 46, 55
7, 40184, Note_on_c, 9, 46, 0
7, 40200, Note_on_c, 9, 46, 55
7, 40200, Note_on_c, 9, 39, 100
7, 40200, Note_on_c, 9, 40, 115
7, 40214, Note_on_c, 9, 40, 0
7, 40214, Note_on_c, 9, 39, 0
7, 40214, Note_on_c, 9, 46, 0
7, 40230, Note_on_c, 9, 46, 55
7, 40244, Note_on_c, 9, 46, 0
7, 40260, Note_on_c, 9, 46, 55
7, 40274, Note_on_c, 9, 46, 0
7, 40290, Note_on_c, 9, 46, 55
7, 40304, Note_on_c, 9, 46, 0
7, 40320, Note_on_c, 9, 46, 55
7, 40320, Note_on_c, 9, 35, 100
7, 40334, Note_on_c, 9, 35, 0
7, 40334, Note_on_c, 9, 46, 0
7, 40350, Note_on_c, 9, 46, 55
7, 40364, Note_on_c, 9, 46, 0
7, 40380, Note_on_c, 9, 46, 55
7, 40394, Note_on_c, 9, 46, 0
7, 40410, Note_on_c, 9, 46, 55
7, 40424, Note_on_c, 9, 46, 0
7, 40440, Note_on_c, 9, 46, 55
7, 40440, Note_on_c, 9, 39, 100
7, 40440, Note_on_c, 9, 40, 115
7, 40454, Note_on_c, 9, 40, 0
7, 40454, Note_on_c, 9, 39, 0
7, 40454, Note_on_c, 9, 46, 0
7, 40470, Note_on_c, 9, 46, 55
7, 40484, Note_on_c, 9, 46, 0
7, 40500, Note_on_c, 9, 46, 55
7, 40500, Note_on_c, 9, 35, 100
7, 40514, Note_on_c, 9, 35, 0
7, 40514, Note_on_c, 9, 46, 0
7, 40530, Note_on_c, 9, 46, 55
7, 40544, Note_on_c, 9, 46, 0
7, 40560, Note_on_c, 9, 35, 100
7, 40560, Note_on_c, 9, 46, 55
7, 40574, Note_on_c, 9, 46, 0
7, 40574, Note_on_c, 9, 35, 0
7, 40590, Note_on_c, 9, 46, 55
7, 40604, Note_on_c, 9, 46, 0
7, 40620, Note_on_c, 9, 46, 55
7, 40634, Note_on_c, 9, 46, 0
7, 40650, Note_on_c, 9, 46, 55
7, 40664, Note_on_c, 9, 46, 0
7, 40680, Note_on_c, 9, 46, 55
7, 40680, Note_on_c, 9, 39, 100
7, 40680, Note_on_c, 9, 40, 115
7, 40694, Note_on_c, 9, 40, 0
7, 40694, Note_on_c, 9, 39, 0
7, 40694, Note_on_c, 9, 46, 0
7, 40710, Note_on_c, 9, 46, 55
7, 40724, Note_on_c, 9, 46, 0
7, 40740, Note_on_c, 9, 46, 55
7, 40754, Note_on_c, 9, 46, 0
7, 40770, Note_on_c, 9, 46, 55
7, 40784, Note_on_c, 9, 46, 0
7, 40800, Note_on_c, 9, 46, 55
7, 40800, Note_on_c, 9, 35, 100
7, 40814, Note_on_c, 9, 35, 0
7, 40814, Note_on_c, 9, 46, 0
7, 40830, Note_on_c, 9, 46, 55
7, 40844, Note_on_c, 9, 46, 0
7, 40860, Note_on_c, 9, 46, 55
7, 40874, Note_on_c, 9, 46, 0
7, 40890, Note_on_c, 9, 46, 55
7, 40904, Note_on_c, 9, 46, 0
7, 40920, Note_on_c, 9, 46, 55
7, 40920, Note_on_c, 9, 39, 100
7, 40920, Note_on_c, 9, 40, 115
7, 40934, Note_on_c, 9, 40, 0
7, 40934, Note_on_c, 9, 39, 0
7, 40934, Note_on_c, 9, 46, 0
7, 40950, Note_on_c, 9, 46, 55
7, 40964, Note_on_c, 9, 46, 0
7, 40980, Note_on_c, 9, 46, 55
7, 40980, Note_on_c, 9, 35, 100
7, 40994, Note_on_c, 9, 35, 0
7, 40994, Note_on_c, 9, 46, 0
7, 41010, Note_on_c, 9, 46, 55
7, 41024, Note_on_c, 9, 46, 0
7, 41040, Note_on_c, 9, 35, 100
7, 41040, Note_on_c, 9, 46, 55
7, 41054, Note_on_c, 9, 46, 0
7, 41054, Note_on_c, 9, 35, 0
7, 41070, Note_on_c, 9, 46, 55
7, 41084, Note_on_c, 9, 46, 0
7, 41100, Note_on_c, 9, 46, 55
7, 41114, Note_on_c, 9, 46, 0
7, 41130, Note_on_c, 9, 46, 55
7, 41144, Note_on_c, 9, 46, 0
7, 41160, Note_on_c, 9, 46, 55
7, 41160, Note_on_c, 9, 39, 100
7, 41160, Note_on_c, 9, 40, 115
7, 41174, Note_on_c, 9, 40, 0
7, 41174, Note_on_c, 9, 39, 0
7, 41174, Note_on_c, 9, 46, 0
7, 41190, Note_on_c, 9, 46, 55
7, 41204, Note_on_c, 9, 46, 0
7, 41220, Note_on_c, 9, 46, 55
7, 41234, Note_on_c, 9, 46, 0
7, 41250, Note_on_c, 9, 46, 55
7, 41264, Note_on_c, 9, 46, 0
7, 41280, Note_on_c, 9, 46, 55
7, 41280, Note_on_c, 9, 35, 100
7, 41294, Note_on_c, 9, 35, 0
7, 41294, Note_on_c, 9, 46, 0
7, 41310, Note_on_c, 9, 46, 55
7, 41324, Note_on_c, 9, 46, 0
7, 41340, Note_on_c, 9, 46, 55
7, 41354, Note_on_c, 9, 46, 0
7, 41370, Note_on_c, 9, 46, 55
7, 41384, Note_on_c, 9, 46, 0
7, 41400, Note_on_c, 9, 46, 55
7, 41400, Note_on_c, 9, 39, 100
7, 41400, Note_on_c, 9, 40, 115
7, 41414, Note_on_c, 9, 40, 0
7, 41414, Note_on_c, 9, 39, 0
7, 41414, Note_on_c, 9, 46, 0
7, 41430, Note_on_c, 9, 46, 55
7, 41444, Note_on_c, 9, 46, 0
7, 41460, Note_on_c, 9, 46, 55
7, 41460, Note_on_c, 9, 35, 100
7, 41474, Note_on_c, 9, 35, 0
7, 41474, Note_on_c, 9, 46, 0
7, 41490, Note_on_c, 9, 46, 55
7, 41504, Note_on_c, 9, 46, 0
7, 41520, Note_on_c, 9, 35, 100
7, 41520, Note_on_c, 9, 46, 55
7, 41534, Note_on_c, 9, 46, 0
7, 41534, Note_on_c, 9, 35, 0
7, 41550, Note_on_c, 9, 46, 55
7, 41564, Note_on_c, 9, 46, 0
7, 41580, Note_on_c, 9, 46, 55
7, 41594, Note_on_c, 9, 46, 0
7, 41610, Note_on_c, 9, 46, 55
7, 41624, Note_on_c, 9, 46, 0
7, 41640, Note_on_c, 9, 46, 55
7, 41640, Note_on_c, 9, 39, 100
7, 41640, Note_on_c, 9, 40, 115
7, 41654, Note_on_c, 9, 40, 0
7, 41654, Note_on_c, 9, 39, 0
7, 41654, Note_on_c, 9, 46, 0
7, 41670, Note_on_c, 9, 46, 55
7, 41684, Note_on_c, 9, 46, 0
7, 41700, Note_on_c, 9, 46, 55
7, 41714, Note_on_c, 9, 46, 0
7, 41730, Note_on_c, 9, 46, 55
7, 41744, Note_on_c, 9, 46, 0
7, 41760, Note_on_c, 9, 46, 55
7, 41760, Note_on_c, 9, 35, 100
7, 41774, Note_on_c, 9, 35, 0
7, 41774, Note_on_c, 9, 46, 0
7, 41790, Note_on_c, 9, 46, 55
7, 41804, Note_on_c, 9, 46, 0
7, 41820, Note_on_c, 9, 46, 55
7, 41834, Note_on_c, 9, 46, 0
7, 41850, Note_on_c, 9, 46, 55
7, 41864, Note_on_c, 9, 46, 0
7, 41880, Note_on_c, 9, 46, 55
7, 41880, Note_on_c, 9, 39, 100
7, 41880, Note_on_c, 9, 40, 115
7, 41894, Note_on_c, 9, 40, 0
7, 41894, Note_on_c, 9, 39, 0
7, 41894, Note_on_c, 9, 46, 0
7, 41910, Note_on_c, 9, 46, 55
7, 41924, Note_on_c, 9, 46, 0
7, 41940, Note_on_c, 9, 46, 55
7, 41940, Note_on_c, 9, 35, 100
7, 41954, Note_on_c, 9, 35, 0
7, 41954, Note_on_c, 9, 46, 0
7, 41970, Note_on_c, 9, 46, 55
7, 41984, Note_on_c, 9, 46, 0
7, 42000, Note_on_c, 9, 35, 100
7, 42000, Note_on_c, 9, 46, 55
7, 42014, Note_on_c, 9, 46, 0
7, 42014, Note_on_c, 9, 35, 0
7, 42030, Note_on_c, 9, 46, 55
7, 42044, Note_on_c, 9, 46, 0
7, 42060, Note_on_c, 9, 46, 55
7, 42074, Note_on_c, 9, 46, 0
7, 42090, Note_on_c, 9, 46, 55
7, 42104, Note_on_c, 9, 46, 0
7, 42120, Note_on_c, 9, 46, 55
7, 42120, Note_on_c, 9, 39, 100
7, 42120, Note_on_c, 9, 40, 115
7, 42134, Note_on_c, 9, 40, 0
7, 42134, Note_on_c, 9, 39, 0
7, 42134, Note_on_c, 9, 46, 0
7, 42150, Note_on_c, 9, 46, 55
7, 42164, Note_on_c, 9, 46, 0
7, 42180, Note_on_c, 9, 46, 55
7, 42194, Note_on_c, 9, 46, 0
7, 42210, Note_on_c, 9, 46, 55
7, 42224, Note_on_c, 9, 46, 0
7, 42240, Note_on_c, 9, 46, 55
7, 42240, Note_on_c, 9, 35, 100
7, 42254, Note_on_c, 9, 35, 0
7, 42254, Note_on_c, 9, 46, 0
7, 42270, Note_on_c, 9, 46, 55
7, 42284, Note_on_c, 9, 46, 0
7, 42300, Note_on_c, 9, 46, 55
7, 42314, Note_on_c, 9, 46, 0
7, 42330, Note_on_c, 9, 46, 55
7, 42344, Note_on_c, 9, 46, 0
7, 42360, Note_on_c, 9, 46, 55
7, 42360, Note_on_c, 9, 39, 100
7, 42360, Note_on_c, 9, 40, 115
7, 42374, Note_on_c, 9, 40, 0
7, 42374, Note_on_c, 9, 39, 0
7, 42374, Note_on_c, 9, 46, 0
7, 42390, Note_on_c, 9, 46, 55
7, 42404, Note_on_c, 9, 46, 0
7, 42420, Note_on_c, 9, 46, 55
7, 42420, Note_on_c, 9, 35, 100
7, 42434, Note_on_c, 9, 35, 0
7, 42434, Note_on_c, 9, 46, 0
7, 42450, Note_on_c, 9, 46, 55
7, 42464, Note_on_c, 9, 46, 0
7, 42480, Note_on_c, 9, 35, 100
7, 42480, Note_on_c, 9, 46, 55
7, 42494, Note_on_c, 9, 46, 0
7, 42494, Note_on_c, 9, 35, 0
7, 42510, Note_on_c, 9, 46, 55
7, 42524, Note_on_c, 9, 46, 0
7, 42540, Note_on_c, 9, 46, 55
7, 42554, Note_on_c, 9, 46, 0
7, 42570, Note_on_c, 9, 46, 55
7, 42584, Note_on_c, 9, 46, 0
7, 42600, Note_on_c, 9, 46, 55
7, 42600, Note_on_c, 9, 39, 100
7, 42600, Note_on_c, 9, 40, 115
7, 42614, Note_on_c, 9, 40, 0
7, 42614, Note_on_c, 9, 39, 0
7, 42614, Note_on_c, 9, 46, 0
7, 42630, Note_on_c, 9, 46, 55
7, 42644, Note_on_c, 9, 46, 0
7, 42660, Note_on_c, 9, 46, 55
7, 42674, Note_on_c, 9, 46, 0
7, 42690, Note_on_c, 9, 46, 55
7, 42704, Note_on_c, 9, 46, 0
7, 42720, Note_on_c, 9, 46, 55
7, 42720, Note_on_c, 9, 35, 100
7, 42734, Note_on_c, 9, 35, 0
7, 42734, Note_on_c, 9, 46, 0
7, 42750, Note_on_c, 9, 46, 55
7, 42764, Note_on_c, 9, 46, 0
7, 42780, Note_on_c, 9, 46, 55
7, 42794, Note_on_c, 9, 46, 0
7, 42810, Note_on_c, 9, 46, 55
7, 42824, Note_on_c, 9, 46, 0
7, 42840, Note_on_c, 9, 46, 55
7, 42840, Note_on_c, 9, 39, 100
7, 42840, Note_on_c, 9, 40, 115
7, 42854, Note_on_c, 9, 40, 0
7, 42854, Note_on_c, 9, 39, 0
7, 42854, Note_on_c, 9, 46, 0
7, 42870, Note_on_c, 9, 46, 55
7, 42884, Note_on_c, 9, 46, 0
7, 42900, Note_on_c, 9, 46, 55
7, 42900, Note_on_c, 9, 35, 100
7, 42914, Note_on_c, 9, 35, 0
7, 42914, Note_on_c, 9, 46, 0
7, 42930, Note_on_c, 9, 46, 55
7, 42944, Note_on_c, 9, 46, 0
7, 42960, Note_on_c, 9, 35, 100
7, 42960, Note_on_c, 9, 46, 55
7, 42974, Note_on_c, 9, 46, 0
7, 42974, Note_on_c, 9, 35, 0
7, 42990, Note_on_c, 9, 46, 55
7, 43004, Note_on_c, 9, 46, 0
7, 43020, Note_on_c, 9, 46, 55
7, 43034, Note_on_c, 9, 46, 0
7, 43050, Note_on_c, 9, 46, 55
7, 43064, Note_on_c, 9, 46, 0
7, 43080, Note_on_c, 9, 46, 55
7, 43080, Note_on_c, 9, 39, 100
7, 43080, Note_on_c, 9, 40, 115
7, 43094, Note_on_c, 9, 40, 0
7, 43094, Note_on_c, 9, 39, 0
7, 43094, Note_on_c, 9, 46, 0
7, 43110, Note_on_c, 9, 46, 55
7, 43124, Note_on_c, 9, 46, 0
7, 43140, Note_on_c, 9, 46, 55
7, 43154, Note_on_c, 9, 46, 0
7, 43170, Note_on_c, 9, 46, 55
7, 43184, Note_on_c, 9, 46, 0
7, 43200, Note_on_c, 9, 46, 55
7, 43200, Note_on_c, 9, 35, 100
7, 43214, Note_on_c, 9, 35, 0
7, 43214, Note_on_c, 9, 46, 0
7, 43230, Note_on_c, 9, 46, 55
7, 43244, Note_on_c, 9, 46, 0
7, 43260, Note_on_c, 9, 46, 55
7, 43274, Note_on_c, 9, 46, 0
7, 43290, Note_on_c, 9, 46, 55
7, 43304, Note_on_c, 9, 46, 0
7, 43320, Note_on_c, 9, 46, 55
7, 43320, Note_on_c, 9, 39, 100
7, 43320, Note_on_c, 9, 40, 115
7, 43334, Note_on_c, 9, 40, 0
7, 43334, Note_on_c, 9, 39, 0
7, 43334, Note_on_c, 9, 46, 0
7, 43350, Note_on_c, 9, 46, 55
7, 43364, Note_on_c, 9, 46, 0
7, 43380, Note_on_c, 9, 46, 55
7, 43380, Note_on_c, 9, 35, 100
7, 43394, Note_on_c, 9, 35, 0
7, 43394, Note_on_c, 9, 46, 0
7, 43410, Note_on_c, 9, 46, 55
7, 43424, Note_on_c, 9, 46, 0
7, 43440, Note_on_c, 9, 38, 80
7, 43440, Note_on_c, 9, 40, 100
7, 43440, Note_on_c, 9, 35, 100
7, 43440, Note_on_c, 9, 46, 55
7, 43454, Note_on_c, 9, 46, 0
7, 43454, Note_on_c, 9, 38, 0
7, 43454, Note_on_c, 9, 40, 0
7, 43454, Note_on_c, 9, 35, 0
7, 43470, Note_on_c, 9, 38, 85
7, 43470, Note_on_c, 9, 40, 100
7, 43470, Note_on_c, 9, 46, 55
7, 43484, Note_on_c, 9, 46, 0
7, 43484, Note_on_c, 9, 40, 0
7, 43484, Note_on_c, 9, 38, 0
7, 43500, Note_on_c, 9, 38, 90
7, 43500, Note_on_c, 9, 40, 100
7, 43500, Note_on_c, 9, 46, 55
7, 43514, Note_on_c, 9, 46, 0
7, 43514, Note_on_c, 9, 40, 0
7, 43514, Note_on_c, 9, 38, 0
7, 43530, Note_on_c, 9, 38, 95
7, 43530, Note_on_c, 9, 40, 100
7, 43530, Note_on_c, 9, 46, 55
7, 43544, Note_on_c, 9, 46, 0
7, 43544, Note_on_c, 9, 40, 0
7, 43544, Note_on_c, 9, 38, 0
7, 43560, Note_on_c, 9, 38, 100
7, 43560, Note_on_c, 9, 46, 55
7, 43560, Note_on_c, 9, 40, 115
7, 43574, Note_on_c, 9, 40, 0
7, 43574, Note_on_c, 9, 46, 0
7, 43574, Note_on_c, 9, 38, 0
7, 43590, Note_on_c, 9, 38, 105
7, 43590, Note_on_c, 9, 40, 100
7, 43590, Note_on_c, 9, 46, 55
7, 43604, Note_on_c, 9, 46, 0
7, 43604, Note_on_c, 9, 40, 0
7, 43604, Note_on_c, 9, 38, 0
7, 43620, Note_on_c, 9, 38, 110
7, 43620, Note_on_c, 9, 40, 100
7, 43620, Note_on_c, 9, 46, 55
7, 43634, Note_on_c, 9, 46, 0
7, 43634, Note_on_c, 9, 40, 0
7, 43634, Note_on_c, 9, 38, 0
7, 43650, Note_on_c, 9, 38, 115
7, 43650, Note_on_c, 9, 40, 100
7, 43650, Note_on_c, 9, 46, 55
7, 43664, Note_on_c, 9, 46, 0
7, 43664, Note_on_c, 9, 40, 0
7, 43664, Note_on_c, 9, 38, 0
7, 43680, Note_on_c, 9, 46, 55
7, 43680, Note_on_c, 9, 35, 100
7, 43694, Note_on_c, 9, 35, 0
7, 43694, Note_on_c, 9, 46, 0
7, 43710, Note_on_c, 9, 46, 55
7, 43724, Note_on_c, 9, 46, 0
7, 43740, Note_on_c, 9, 46, 55
7, 43754, Note_on_c, 9, 46, 0
7, 43770, Note_on_c, 9, 46, 55
7, 43784, Note_on_c, 9, 46, 0
7, 43800, Note_on_c, 9, 46, 55
7, 43800, Note_on_c, 9, 39, 100
7, 43800, Note_on_c, 9, 40, 115
7, 43814, Note_on_c, 9, 40, 0
7, 43814, Note_on_c, 9, 39, 0
7, 43814, Note_on_c, 9, 46, 0
7, 43830, Note_on_c, 9, 46, 55
7, 43844, Note_on_c, 9, 46, 0
7, 43860, Note_on_c, 9, 46, 55
7, 43860, Note_on_c, 9, 35, 100
7, 43874, Note_on_c, 9, 35, 0
7, 43874, Note_on_c, 9, 46, 0
7, 43890, Note_on_c, 9, 46, 55
7, 43904, Note_on_c, 9, 46, 0
7, 43920, Note_on_c, 9, 35, 100
7, 43920, Note_on_c, 9, 46, 55
7, 43934, Note_on_c, 9, 46, 0
7, 43934, Note_on_c, 9, 35, 0
7, 43950, Note_on_c, 9, 46, 55
7, 43964, Note_on_c, 9, 46, 0
7, 43980, Note_on_c, 9, 46, 55
7, 43994, Note_on_c, 9, 46, 0
7, 44010, Note_on_c, 9, 46, 55
7, 44024, Note_on_c, 9, 46, 0
7, 44040, Note_on_c, 9, 46, 55
7, 44040, Note_on_c, 9, 39, 100
7, 44040, Note_on_c, 9, 40, 115
7, 44054, Note_on_c, 9, 40, 0
7, 44054, Note_on_c, 9, 39, 0
7, 44054, Note_on_c, 9, 46, 0
7, 44070, Note_on_c, 9, 46, 55
7, 44084, Note_on_c, 9, 46, 0
7, 44100, Note_on_c, 9, 46, 55
7, 44114, Note_on_c, 9, 46, 0
7, 44130, Note_on_c, 9, 46, 55
7, 44144, Note_on_c, 9, 46, 0
7, 44160, Note_on_c, 9, 46, 55
7, 44160, Note_on_c, 9, 35, 100
7, 44174, Note_on_c, 9, 35, 0
7, 44174, Note_on_c, 9, 46, 0
7, 44190, Note_on_c, 9, 46, 55
7, 44204, Note_on_c, 9, 46, 0
7, 44220, Note_on_c, 9, 46, 55
7, 44234, Note_on_c, 9, 46, 0
7, 44250, Note_on_c, 9, 46, 55
7, 44264, Note_on_c, 9, 46, 0
7, 44280, Note_on_c, 9, 46, 55
7, 44280, Note_on_c, 9, 39, 100
7, 44280, Note_on_c, 9, 40, 115
7, 44294, Note_on_c, 9, 40, 0
7, 44294, Note_on_c, 9, 39, 0
7, 44294, Note_on_c, 9, 46, 0
7, 44310, Note_on_c, 9, 46, 55
7, 44324, Note_on_c, 9, 46, 0
7, 44340, Note_on_c, 9, 46, 55
7, 44340, Note_on_c, 9, 35, 100
7, 44354, Note_on_c, 9, 35, 0
7, 44354, Note_on_c, 9, 46, 0
7, 44370, Note_on_c, 9, 46, 55
7, 44384, Note_on_c, 9, 46, 0
7, 44400, Note_on_c, 9, 35, 100
7, 44400, Note_on_c, 9, 46, 55
7, 44414, Note_on_c, 9, 46, 0
7, 44414, Note_on_c, 9, 35, 0
7, 44430, Note_on_c, 9, 46, 55
7, 44444, Note_on_c, 9, 46, 0
7, 44460, Note_on_c, 9, 46, 55
7, 44474, Note_on_c, 9, 46, 0
7, 44490, Note_on_c, 9, 46, 55
7, 44504, Note_on_c, 9, 46, 0
7, 44520, Note_on_c, 9, 46, 55
7, 44520, Note_on_c, 9, 39, 100
7, 44520, Note_on_c, 9, 40, 115
7, 44534, Note_on_c, 9, 40, 0
7, 44534, Note_on_c, 9, 39, 0
7, 44534, Note_on_c, 9, 46, 0
7, 44550, Note_on_c, 9, 46, 55
7, 44564, Note_on_c, 9, 46, 0
7, 44580, Note_on_c, 9, 46, 55
7, 44594, Note_on_c, 9, 46, 0
7, 44610, Note_on_c, 9, 46, 55
7, 44624, Note_on_c, 9, 46, 0
7, 44640, Note_on_c, 9, 46, 55
7, 44640, Note_on_c, 9, 35, 100
7, 44654, Note_on_c, 9, 35, 0
7, 44654, Note_on_c, 9, 46, 0
7, 44670, Note_on_c, 9, 46, 55
7, 44684, Note_on_c, 9, 46, 0
7, 44700, Note_on_c, 9, 46, 55
7, 44714, Note_on_c, 9, 46, 0
7, 44730, Note_on_c, 9, 46, 55
7, 44744, Note_on_c, 9, 46, 0
7, 44760, Note_on_c, 9, 46, 55
7, 44760, Note_on_c, 9, 39, 100
7, 44760, Note_on_c, 9, 40, 115
7, 44774, Note_on_c, 9, 40, 0
7, 44774, Note_on_c, 9, 39, 0
7, 44774, Note_on_c, 9, 46, 0
7, 44790, Note_on_c, 9, 46, 55
7, 44804, Note_on_c, 9, 46, 0
7, 44820, Note_on_c, 9, 46, 55
7, 44820, Note_on_c, 9, 35, 100
7, 44834, Note_on_c, 9, 35, 0
7, 44834, Note_on_c, 9, 46, 0
7, 44850, Note_on_c, 9, 46, 55
7, 44864, Note_on_c, 9, 46, 0
7, 44880, Note_on_c, 9, 35, 100
7, 44880, Note_on_c, 9, 46, 55
7, 44894, Note_on_c, 9, 46, 0
7, 44894, Note_on_c, 9, 35, 0
7, 44910, Note_on_c, 9, 46, 55
7, 44924, Note_on_c, 9, 46, 0
7, 44940, Note_on_c, 9, 46, 55
7, 44954, Note_on_c, 9, 46, 0
7, 44970, Note_on_c, 9, 46, 55
7, 44984, Note_on_c, 9, 46, 0
7, 45000, Note_on_c, 9, 46, 55
7, 45000, Note_on_c, 9, 39, 100
7, 45000, Note_on_c, 9, 40, 115
7, 45014, Note_on_c, 9, 40, 0
7, 45014, Note_on_c, 9, 39, 0
7, 45014, Note_on_c, 9, 46, 0
7, 45030, Note_on_c, 9, 46, 55
7, 45044, Note_on_c, 9, 46, 0
7, 45060, Note_on_c, 9, 46, 55
7, 45074, Note_on_c, 9, 46, 0
7, 45090, Note_on_c, 9, 46, 55
7, 45104, Note_on_c, 9, 46, 0
7, 45120, Note_on_c, 9, 46, 55
7, 45120, Note_on_c, 9, 35, 100
7, 45134, Note_on_c, 9, 35, 0
7, 45134, Note_on_c, 9, 46, 0
7, 45150, Note_on_c, 9, 46, 55
7, 45164, Note_on_c, 9, 46, 0
7, 45180, Note_on_c, 9, 46, 55
7, 45194, Note_on_c, 9, 46, 0
7, 45210, Note_on_c, 9, 46, 55
7, 45224, Note_on_c, 9, 46, 0
7, 45240, Note_on_c, 9, 46, 55
7, 45240, Note_on_c, 9, 39, 100
7, 45240, Note_on_c, 9, 40, 115
7, 45254, Note_on_c, 9, 40, 0
7, 45254, Note_on_c, 9, 39, 0
7, 45254, Note_on_c, 9, 46, 0
7, 45270, Note_on_c, 9, 46, 55
7, 45284, Note_on_c, 9, 46, 0
7, 45300, Note_on_c, 9, 46, 55
7, 45300, Note_on_c, 9, 35, 100
7, 45314, Note_on_c, 9, 35, 0
7, 45314, Note_on_c, 9, 46, 0
7, 45330, Note_on_c, 9, 46, 55
7, 45344, Note_on_c, 9, 46, 0
7, 45360, Note_on_c, 9, 35, 100
7, 45360, Note_on_c, 9, 46, 55
7, 45374, Note_on_c, 9, 46, 0
7, 45374, Note_on_c, 9, 35, 0
7, 45390, Note_on_c, 9, 46, 55
7, 45404, Note_on_c, 9, 46, 0
7, 45420, Note_on_c, 9, 46, 55
7, 45434, Note_on_c, 9, 46, 0
7, 45450, Note_on_c, 9, 46, 55
7, 45464, Note_on_c, 9, 46, 0
7, 45480, Note_on_c, 9, 46, 55
7, 45480, Note_on_c, 9, 39, 100
7, 45480, Note_on_c, 9, 40, 115
7, 45494, Note_on_c, 9, 40, 0
7, 45494, Note_on_c, 9, 39, 0
7, 45494, Note_on_c, 9, 46, 0
7, 45510, Note_on_c, 9, 46, 55
7, 45524, Note_on_c, 9, 46, 0
7, 45540, Note_on_c, 9, 46, 55
7, 45554, Note_on_c, 9, 46, 0
7, 45570, Note_on_c, 9, 46, 55
7, 45584, Note_on_c, 9, 46, 0
7, 45600, Note_on_c, 9, 46, 55
7, 45600, Note_on_c, 9, 35, 100
7, 45614, Note_on_c, 9, 35, 0
7, 45614, Note_on_c, 9, 46, 0
7, 45630, Note_on_c, 9, 46, 55
7, 45644, Note_on_c, 9, 46, 0
7, 45660, Note_on_c, 9, 46, 55
7, 45674, Note_on_c, 9, 46, 0
7, 45690, Note_on_c, 9, 46, 55
7, 45704, Note_on_c, 9, 46, 0
7, 45720, Note_on_c, 9, 46, 55
7, 45720, Note_on_c, 9, 39, 100
7, 45720, Note_on_c, 9, 40, 115
7, 45734, Note_on_c, 9, 40, 0
7, 45734, Note_on_c, 9, 39, 0
7, 45734, Note_on_c, 9, 46, 0
7, 45750, Note_on_c, 9, 46, 55
7, 45764, Note_on_c, 9, 46, 0
7, 45780, Note_on_c, 9, 46, 55
7, 45780, Note_on_c, 9, 35, 100
7, 45794, Note_on_c, 9, 35, 0
7, 45794, Note_on_c, 9, 46, 0
7, 45810, Note_on_c, 9, 46, 55
7, 45824, Note_on_c, 9, 46, 0
7, 45840, Note_on_c, 9, 35, 100
7, 45840, Note_on_c, 9, 46, 55
7, 45854, Note_on_c, 9, 46, 0
7, 45854, Note_on_c, 9, 35, 0
7, 45870, Note_on_c, 9, 46, 55
7, 45884, Note_on_c, 9, 46, 0
7, 45900, Note_on_c, 9, 46, 55
7, 45914, Note_on_c, 9, 46, 0
7, 45930, Note_on_c, 9, 46, 55
7, 45944, Note_on_c, 9, 46, 0
7, 45960, Note_on_c, 9, 46, 55
7, 45960, Note_on_c, 9, 39, 100
7, 45960, Note_on_c, 9, 40, 115
7, 45974, Note_on_c, 9, 40, 0
7, 45974, Note_on_c, 9, 39, 0
7, 45974, Note_on_c, 9, 46, 0
7, 45990, Note_on_c, 9, 46, 55
7, 46004, Note_on_c, 9, 46, 0
7, 46020, Note_on_c, 9, 46, 55
7, 46034, Note_on_c, 9, 46, 0
7, 46050, Note_on_c, 9, 46, 55
7, 46064, Note_on_c, 9, 46, 0
7, 46080, Note_on_c, 9, 46, 55
7, 46080, Note_on_c, 9, 35, 100
7, 46094, Note_on_c, 9, 35, 0
7, 46094, Note_on_c, 9, 46, 0
7, 46110, Note_on_c, 9, 46, 55
7, 46124, Note_on_c, 9, 46, 0
7, 46140, Note_on_c, 9, 46, 55
7, 46154, Note_on_c, 9, 46, 0
7, 46170, Note_on_c, 9, 46, 55
7, 46184, Note_on_c, 9, 46, 0
7, 46200, Note_on_c, 9, 46, 55
7, 46200, Note_on_c, 9, 39, 100
7, 46200, Note_on_c, 9, 40, 115
7, 46214, Note_on_c, 9, 40, 0
7, 46214, Note_on_c, 9, 39, 0
7, 46214, Note_on_c, 9, 46, 0
7, 46230, Note_on_c, 9, 46, 55
7, 46244, Note_on_c, 9, 46, 0
7, 46260, Note_on_c, 9, 46, 55
7, 46260, Note_on_c, 9, 35, 100
7, 46274, Note_on_c, 9, 35, 0
7, 46274, Note_on_c, 9, 46, 0
7, 46290, Note_on_c, 9, 46, 55
7, 46304, Note_on_c, 9, 46, 0
7, 46320, Note_on_c, 9, 35, 100
7, 46320, Note_on_c, 9, 46, 55
7, 46334, Note_on_c, 9, 46, 0
7, 46334, Note_on_c, 9, 35, 0
7, 46350, Note_on_c, 9, 46, 55
7, 46364, Note_on_c, 9, 46, 0
7, 46380, Note_on_c, 9, 46, 55
7, 46394, Note_on_c, 9, 46, 0
7, 46410, Note_on_c, 9, 46, 55
7, 46424, Note_on_c, 9, 46, 0
7, 46440, Note_on_c, 9, 46, 55
7, 46440, Note_on_c, 9, 39, 100
7, 46440, Note_on_c, 9, 40, 115
7, 46454, Note_on_c, 9, 40, 0
7, 46454, Note_on_c, 9, 39, 0
7, 46454, Note_on_c, 9, 46, 0
7, 46470, Note_on_c, 9, 46, 55
7, 46484, Note_on_c, 9, 46, 0
7, 46500, Note_on_c, 9, 46, 55
7, 46514, Note_on_c, 9, 46, 0
7, 46530, Note_on_c, 9, 46, 55
7, 46544, Note_on_c, 9, 46, 0
7, 46560, Note_on_c, 9, 46, 55
7, 46560, Note_on_c, 9, 35, 100
7, 46574, Note_on_c, 9, 35, 0
7, 46574, Note_on_c, 9, 46, 0
7, 46590, Note_on_c, 9, 46, 55
7, 46604, Note_on_c, 9, 46, 0
7, 46620, Note_on_c, 9, 46, 55
7, 46634, Note_on_c, 9, 46, 0
7, 46650, Note_on_c, 9, 46, 55
7, 46664, Note_on_c, 9, 46, 0
7, 46680, Note_on_c, 9, 46, 55
7, 46680, Note_on_c, 9, 39, 100
7, 46680, Note_on_c, 9, 40, 115
7, 46694, Note_on_c, 9, 40, 0
7, 46694, Note_on_c, 9, 39, 0
7, 46694, Note_on_c, 9, 46, 0
7, 46710, Note_on_c, 9, 46, 55
7, 46724, Note_on_c, 9, 46, 0
7, 46740, Note_on_c, 9, 46, 55
7, 46740, Note_on_c, 9, 35, 100
7, 46754, Note_on_c, 9, 35, 0
7, 46754, Note_on_c, 9, 46, 0
7, 46770, Note_on_c, 9, 46, 55
7, 46784, Note_on_c, 9, 46, 0
7, 46800, Note_on_c, 9, 35, 100
7, 46800, Note_on_c, 9, 46, 55
7, 46814, Note_on_c, 9, 46, 0
7, 46814, Note_on_c, 9, 35, 0
7, 46830, Note_on_c, 9, 46, 55
7, 46844, Note_on_c, 9, 46, 0
7, 46860, Note_on_c, 9, 46, 55
7, 46874, Note_on_c, 9, 46, 0
7, 46890, Note_on_c, 9, 46, 55
7, 46904, Note_on_c, 9, 46, 0
7, 46920, Note_on_c, 9, 46, 55
7, 46920, Note_on_c, 9, 39, 100
7, 46920, Note_on_c, 9, 40, 115
7, 46934, Note_on_c, 9, 40, 0
7, 46934, Note_on_c, 9, 39, 0
7, 46934, Note_on_c, 9, 46, 0
7, 46950, Note_on_c, 9, 46, 55
7, 46964, Note_on_c, 9, 46, 0
7, 46980, Note_on_c, 9, 46, 55
7, 46994, Note_on_c, 9, 46, 0
7, 47010, Note_on_c, 9, 46, 55
7, 47024, Note_on_c, 9, 46, 0
7, 47040, Note_on_c, 9, 46, 55
7, 47040, Note_on_c, 9, 35, 100
7, 47054, Note_on_c, 9, 35, 0
7, 47054, Note_on_c, 9, 46, 0
7, 47070, Note_on_c, 9, 46, 55
7, 47084, Note_on_c, 9, 46, 0
7, 47100, Note_on_c, 9, 46, 55
7, 47114, Note_on_c, 9, 46, 0
7, 47130, Note_on_c, 9, 46, 55
7, 47144, Note_on_c, 9, 46, 0
7, 47160, Note_on_c, 9, 46, 55
7, 47160, Note_on_c, 9, 39, 100
7, 47160, Note_on_c, 9, 40, 115
7, 47174, Note_on_c, 9, 40, 0
7, 47174, Note_on_c, 9, 39, 0
7, 47174, Note_on_c, 9, 46, 0
7, 47190, Note_on_c, 9, 46, 55
7, 47204, Note_on_c, 9, 46, 0
7, 47220, Note_on_c, 9, 46, 55
7, 47220, Note_on_c, 9, 35, 100
7, 47234, Note_on_c, 9, 35, 0
7, 47234, Note_on_c, 9, 46, 0
7, 47250, Note_on_c, 9, 46, 55
7, 47264, Note_on_c, 9, 46, 0
7, 47280, Note_on_c, 9, 35, 100
7, 47280, Note_on_c, 9, 46, 55
7, 47294, Note_on_c, 9, 46, 0
7, 47294, Note_on_c, 9, 35, 0
7, 47310, Note_on_c, 9, 46, 55
7, 47324, Note_on_c, 9, 46, 0
7, 47340, Note_on_c, 9, 46, 55
7, 47354, Note_on_c, 9, 46, 0
7, 47370, Note_on_c, 9, 46, 55
7, 47384, Note_on_c, 9, 46, 0
7, 47400, Note_on_c, 9, 38, 100
7, 47400, Note_on_c, 9, 46, 55
7, 47400, Note_on_c, 9, 39, 100
7, 47400, Note_on_c, 9, 40, 115
7, 47414, Note_on_c, 9, 40, 0
7, 47414, Note_on_c, 9, 38, 0
7, 47414, Note_on_c, 9, 46, 0
7, 47414, Note_on_c, 9, 39, 0
7, 47430, Note_on_c, 9, 38, 100
7, 47430, Note_on_c, 9, 39, 100
7, 47430, Note_on_c, 9, 40, 100
7, 47430, Note_on_c, 9, 46, 55
7, 47444, Note_on_c, 9, 46, 0
7, 47444, Note_on_c, 9, 38, 0
7, 47444, Note_on_c, 9, 39, 0
7, 47444, Note_on_c, 9, 40, 0
7, 47460, Note_on_c, 9, 46, 55
7, 47474, Note_on_c, 9, 46, 0
7, 47490, Note_on_c, 9, 46, 55
7, 47504, Note_on_c, 9, 46, 0
7, 47520, Note_on_c, 9, 46, 55
7, 47520, Note_on_c, 9, 35, 100
7, 47534, Note_on_c, 9, 35, 0
7, 47534, Note_on_c, 9, 46, 0
7, 47550, Note_on_c, 9, 46, 55
7, 47564, Note_on_c, 9, 46, 0
7, 47580, Note_on_c, 9, 46, 55
7, 47594, Note_on_c, 9, 46, 0
7, 47610, Note_on_c, 9, 46, 55
7, 47624, Note_on_c, 9, 46, 0
7, 47640, Note_on_c, 9, 46, 55
7, 47640, Note_on_c, 9, 39, 100
7, 47640, Note_on_c, 9, 40, 115
7, 47654, Note_on_c, 9, 40, 0
7, 47654, Note_on_c, 9, 39, 0
7, 47654, Note_on_c, 9, 46, 0
7, 47670, Note_on_c, 9, 46, 55
7, 47684, Note_on_c, 9, 46, 0
7, 47700, Note_on_c, 9, 46, 55
7, 47700, Note_on_c, 9, 35, 100
7, 47714, Note_on_c, 9, 35, 0
7, 47714, Note_on_c, 9, 46, 0
7, 47730, Note_on_c, 9, 46, 55
7, 47744, Note_on_c, 9, 46, 0
7, 47760, Note_on_c, 9, 35, 100
7, 47760, Note_on_c, 9, 46, 55
7, 47774, Note_on_c, 9, 46, 0
7, 47774, Note_on_c, 9, 35, 0
7, 47790, Note_on_c, 9, 46, 55
7, 47804, Note_on_c, 9, 46, 0
7, 47820, Note_on_c, 9, 46, 55
7, 47834, Note_on_c, 9, 46, 0
7, 47850, Note_on_c, 9, 46, 55
7, 47864, Note_on_c, 9, 46, 0
7, 47880, Note_on_c, 9, 46, 55
7, 47880, Note_on_c, 9, 39, 100
7, 47880, Note_on_c, 9, 40, 115
7, 47894, Note_on_c, 9, 40, 0
7, 47894, Note_on_c, 9, 39, 0
7, 47894, Note_on_c, 9, 46, 0
7, 47910, Note_on_c, 9, 46, 55
7, 47924, Note_on_c, 9, 46, 0
7, 47940, Note_on_c, 9, 46, 55
7, 47954, Note_on_c, 9, 46, 0
7, 47970, Note_on_c, 9, 46, 55
7, 47984, Note_on_c, 9, 46, 0
7, 48000, Note_on_c, 9, 46, 55
7, 48000, Note_on_c, 9, 35, 100
7, 48014, Note_on_c, 9, 35, 0
7, 48014, Note_on_c, 9, 46, 0
7, 48030, Note_on_c, 9, 46, 55
7, 48044, Note_on_c, 9, 46, 0
7, 48060, Note_on_c, 9, 46, 55
7, 48074, Note_on_c, 9, 46, 0
7, 48090, Note_on_c, 9, 46, 55
7, 48104, Note_on_c, 9, 46, 0
7, 48120, Note_on_c, 9, 46, 55
7, 48120, Note_on_c, 9, 39, 100
7, 48120, Note_on_c, 9, 40, 115
7, 48134, Note_on_c, 9, 40, 0
7, 48134, Note_on_c, 9, 39, 0
7, 48134, Note_on_c, 9, 46, 0
7, 48150, Note_on_c, 9, 46, 55
7, 48164, Note_on_c, 9, 46, 0
7, 48180, Note_on_c, 9, 46, 55
7, 48180, Note_on_c, 9, 35, 100
7, 48194, Note_on_c, 9, 35, 0
7, 48194, Note_on_c, 9, 46, 0
7, 48210, Note_on_c, 9, 46, 55
7, 48224, Note_on_c, 9, 46, 0
7, 48240, Note_on_c, 9, 35, 100
7, 48240, Note_on_c, 9, 46, 55
7, 48254, Note_on_c, 9, 46, 0
7, 48254, Note_on_c, 9, 35, 0
7, 48270, Note_on_c, 9, 46, 55
7, 48284, Note_on_c, 9, 46, 0
7, 48300, Note_on_c, 9, 46, 55
7, 48314, Note_on_c, 9, 46, 0
7, 48330, Note_on_c, 9, 46, 55
7, 48344, Note_on_c, 9, 46, 0
7, 48360, Note_on_c, 9, 46, 55
7, 48360, Note_on_c, 9, 39, 100
7, 48360, Note_on_c, 9, 40, 115
7, 48374, Note_on_c, 9, 40, 0
7, 48374, Note_on_c, 9, 39, 0
7, 48374, Note_on_c, 9, 46, 0
7, 48390, Note_on_c, 9, 46, 55
7, 48404, Note_on_c, 9, 46, 0
7, 48420, Note_on_c, 9, 46, 55
7, 48434, Note_on_c, 9, 46, 0
7, 48450, Note_on_c, 9, 46, 55
7, 48464, Note_on_c, 9, 46, 0
7, 48480, Note_on_c, 9, 46, 55
7, 48480, Note_on_c, 9, 35, 100
7, 48494, Note_on_c, 9, 35, 0
7, 48494, Note_on_c, 9, 46, 0
7, 48510, Note_on_c, 9, 46, 55
7, 48524, Note_on_c, 9, 46, 0
7, 48540, Note_on_c, 9, 46, 55
7, 48554, Note_on_c, 9, 46, 0
7, 48570, Note_on_c, 9, 46, 55
7, 48584, Note_on_c, 9, 46, 0
7, 48600, Note_on_c, 9, 46, 55
7, 48600, Note_on_c, 9, 39, 100
7, 48600, Note_on_c, 9, 40, 115
7, 48614, Note_on_c, 9, 40, 0
7, 48614, Note_on_c, 9, 39, 0
7, 48614, Note_on_c, 9, 46, 0
7, 48630, Note_on_c, 9, 46, 55
7, 48644, Note_on_c, 9, 46, 0
7, 48660, Note_on_c, 9, 46, 55
7, 48660, Note_on_c, 9, 35, 100
7, 48674, Note_on_c, 9, 35, 0
7, 48674, Note_on_c, 9, 46, 0
7, 48690, Note_on_c, 9, 46, 55
7, 48704, Note_on_c, 9, 46, 0
7, 48720, Note_on_c, 9, 35, 100
7, 48720, Note_on_c, 9, 46, 55
7, 48734, Note_on_c, 9, 46, 0
7, 48734, Note_on_c, 9, 35, 0
7, 48750, Note_on_c, 9, 46, 55
7, 48764, Note_on_c, 9, 46, 0
7, 48780, Note_on_c, 9, 46, 55
7, 48794, Note_on_c, 9, 46, 0
7, 48810, Note_on_c, 9, 46, 55
7, 48824, Note_on_c, 9, 46, 0
7, 48840, Note_on_c, 9, 46, 55
7, 48840, Note_on_c, 9, 39, 100
7, 48840, Note_on_c, 9, 40, 115
7, 48854, Note_on_c, 9, 40, 0
7, 48854, Note_on_c, 9, 39, 0
7, 48854, Note_on_c, 9, 46, 0
7, 48870, Note_on_c, 9, 46, 55
7, 48884, Note_on_c, 9, 46, 0
7, 48900, Note_on_c, 9, 46, 55
7, 48914, Note_on_c, 9, 46, 0
7, 48930, Note_on_c, 9, 46, 55
7, 48944, Note_on_c, 9, 46, 0
7, 48960, Note_on_c, 9, 46, 55
7, 48960, Note_on_c, 9, 35, 100
7, 48974, Note_on_c, 9, 35, 0
7, 48974, Note_on_c, 9, 46, 0
7, 48990, Note_on_c, 9, 46, 55
7, 49004, Note_on_c, 9, 46, 0
7, 49020, Note_on_c, 9, 46, 55
7, 49034, Note_on_c, 9, 46, 0
7, 49050, Note_on_c, 9, 46, 55
7, 49064, Note_on_c, 9, 46, 0
7, 49080, Note_on_c, 9, 46, 55
7, 49080, Note_on_c, 9, 39, 100
7, 49080, Note_on_c, 9, 40, 115
7, 49094, Note_on_c, 9, 40, 0
7, 49094, Note_on_c, 9, 39, 0
7, 49094, Note_on_c, 9, 46, 0
7, 49110, Note_on_c, 9, 46, 55
7, 49124, Note_on_c, 9, 46, 0
7, 49140, Note_on_c, 9, 46, 55
7, 49140, Note_on_c, 9, 35, 100
7, 49154, Note_on_c, 9, 35, 0
7, 49154, Note_on_c, 9, 46, 0
7, 49170, Note_on_c, 9, 46, 55
7, 49184, Note_on_c, 9, 46, 0
7, 49200, Note_on_c, 9, 35, 100
7, 49200, Note_on_c, 9, 46, 55
7, 49214, Note_on_c, 9, 46, 0
7, 49214, Note_on_c, 9, 35, 0
7, 49230, Note_on_c, 9, 46, 55
7, 49244, Note_on_c, 9, 46, 0
7, 49260, Note_on_c, 9, 46, 55
7, 49274, Note_on_c, 9, 46, 0
7, 49290, Note_on_c, 9, 46, 55
7, 49304, Note_on_c, 9, 46, 0
7, 49320, Note_on_c, 9, 46, 55
7, 49320, Note_on_c, 9, 39, 100
7, 49320, Note_on_c, 9, 40, 115
7, 49334, Note_on_c, 9, 40, 0
7, 49334, Note_on_c, 9, 39, 0
7, 49334, Note_on_c, 9, 46, 0
7, 49350, Note_on_c, 9, 46, 55
7, 49364, Note_on_c, 9, 46, 0
7, 49380, Note_on_c, 9, 46, 55
7, 49394, Note_on_c, 9, 46, 0
7, 49410, Note_on_c, 9, 46, 55
7, 49424, Note_on_c, 9, 46, 0
7, 49440, Note_on_c, 9, 46, 55
7, 49440, Note_on_c, 9, 35, 100
7, 49454, Note_on_c, 9, 35, 0
7, 49454, Note_on_c, 9, 46, 0
7, 49470, Note_on_c, 9, 46, 55
7, 49484, Note_on_c, 9, 46, 0
7, 49500, Note_on_c, 9, 46, 55
7, 49514, Note_on_c, 9, 46, 0
7, 49530, Note_on_c, 9, 46, 55
7, 49544, Note_on_c, 9, 46, 0
7, 49560, Note_on_c, 9, 46, 55
7, 49560, Note_on_c, 9, 39, 100
7, 49560, Note_on_c, 9, 40, 115
7, 49574, Note_on_c, 9, 40, 0
7, 49574, Note_on_c, 9, 39, 0
7, 49574, Note_on_c, 9, 46, 0
7, 49590, Note_on_c, 9, 46, 55
7, 49604, Note_on_c, 9, 46, 0
7, 49620, Note_on_c, 9, 46, 55
7, 49620, Note_on_c, 9, 35, 100
7, 49634, Note_on_c, 9, 35, 0
7, 49634, Note_on_c, 9, 46, 0
7, 49650, Note_on_c, 9, 46, 55
7, 49664, Note_on_c, 9, 46, 0
7, 49680, Note_on_c, 9, 35, 100
7, 49680, Note_on_c, 9, 46, 55
7, 49694, Note_on_c, 9, 46, 0
7, 49694, Note_on_c, 9, 35, 0
7, 49710, Note_on_c, 9, 46, 55
7, 49724, Note_on_c, 9, 46, 0
7, 49740, Note_on_c, 9, 46, 55
7, 49754, Note_on_c, 9, 46, 0
7, 49770, Note_on_c, 9, 46, 55
7, 49784, Note_on_c, 9, 46, 0
7, 49800, Note_on_c, 9, 46, 55
7, 49800, Note_on_c, 9, 39, 100
7, 49800, Note_on_c, 9, 40, 115
7, 49814, Note_on_c, 9, 40, 0
7, 49814, Note_on_c, 9, 39, 0
7, 49814, Note_on_c, 9, 46, 0
7, 49830, Note_on_c, 9, 46, 55
7, 49844, Note_on_c, 9, 46, 0
7, 49860, Note_on_c, 9, 46, 55
7, 49874, Note_on_c, 9, 46, 0
7, 49890, Note_on_c, 9, 46, 55
7, 49904, Note_on_c, 9, 46, 0
7, 49920, Note_on_c, 9, 46, 55
7, 49920, Note_on_c, 9, 35, 100
7, 49934, Note_on_c, 9, 35, 0
7, 49934, Note_on_c, 9, 46, 0
7, 49950, Note_on_c, 9, 46, 55
7, 49964, Note_on_c, 9, 46, 0
7, 49980, Note_on_c, 9, 46, 55
7, 49994, Note_on_c, 9, 46, 0
7, 50010, Note_on_c, 9, 46, 55
7, 50024, Note_on_c, 9, 46, 0
7, 50040, Note_on_c, 9, 46, 55
7, 50040, Note_on_c, 9, 39, 100
7, 50040, Note_on_c, 9, 40, 115
7, 50054, Note_on_c, 9, 40, 0
7, 50054, Note_on_c, 9, 39, 0
7, 50054, Note_on_c, 9, 46, 0
7, 50070, Note_on_c, 9, 46, 55
7, 50084, Note_on_c, 9, 46, 0
7, 50100, Note_on_c, 9, 46, 55
7, 50100, Note_on_c, 9, 35, 100
7, 50114, Note_on_c, 9, 35, 0
7, 50114, Note_on_c, 9, 46, 0
7, 50130, Note_on_c, 9, 46, 55
7, 50144, Note_on_c, 9, 46, 0
7, 50160, Note_on_c, 9, 35, 100
7, 50160, Note_on_c, 9, 46, 55
7, 50174, Note_on_c, 9, 46, 0
7, 50174, Note_on_c, 9, 35, 0
7, 50190, Note_on_c, 9, 46, 55
7, 50204, Note_on_c, 9, 46, 0
7, 50220, Note_on_c, 9, 46, 55
7, 50234, Note_on_c, 9, 46, 0
7, 50250, Note_on_c, 9, 46, 55
7, 50264, Note_on_c, 9, 46, 0
7, 50280, Note_on_c, 9, 46, 55
7, 50280, Note_on_c, 9, 39, 100
7, 50280, Note_on_c, 9, 40, 115
7, 50294, Note_on_c, 9, 40, 0
7, 50294, Note_on_c, 9, 39, 0
7, 50294, Note_on_c, 9, 46, 0
7, 50310, Note_on_c, 9, 46, 55
7, 50324, Note_on_c, 9, 46, 0
7, 50340, Note_on_c, 9, 46, 55
7, 50354, Note_on_c, 9, 46, 0
7, 50370, Note_on_c, 9, 46, 55
7, 50384, Note_on_c, 9, 46, 0
7, 50400, Note_on_c, 9, 46, 55
7, 50400, Note_on_c, 9, 35, 100
7, 50414, Note_on_c, 9, 35, 0
7, 50414, Note_on_c, 9, 46, 0
7, 50430, Note_on_c, 9, 46, 55
7, 50444, Note_on_c, 9, 46, 0
7, 50460, Note_on_c, 9, 46, 55
7, 50474, Note_on_c, 9, 46, 0
7, 50490, Note_on_c, 9, 46, 55
7, 50504, Note_on_c, 9, 46, 0
7, 50520, Note_on_c, 9, 46, 55
7, 50520, Note_on_c, 9, 39, 100
7, 50520, Note_on_c, 9, 40, 115
7, 50534, Note_on_c, 9, 40, 0
7, 50534, Note_on_c, 9, 39, 0
7, 50534, Note_on_c, 9, 46, 0
7, 50550, Note_on_c, 9, 46, 55
7, 50564, Note_on_c, 9, 46, 0
7, 50580, Note_on_c, 9, 46, 55
7, 50580, Note_on_c, 9, 35, 100
7, 50594, Note_on_c, 9, 35, 0
7, 50594, Note_on_c, 9, 46, 0
7, 50610, Note_on_c, 9, 46, 55
7, 50624, Note_on_c, 9, 46, 0
7, 50640, Note_on_c, 9, 35, 100
7, 50640, Note_on_c, 9, 46, 55
7, 50654, Note_on_c, 9, 46, 0
7, 50654, Note_on_c, 9, 35, 0
7, 50670, Note_on_c, 9, 46, 55
7, 50684, Note_on_c, 9, 46, 0
7, 50700, Note_on_c, 9, 46, 55
7, 50714, Note_on_c, 9, 46, 0
7, 50730, Note_on_c, 9, 46, 55
7, 50744, Note_on_c, 9, 46, 0
7, 50760, Note_on_c, 9, 46, 55
7, 50760, Note_on_c, 9, 39, 100
7, 50760, Note_on_c, 9, 40, 115
7, 50774, Note_on_c, 9, 40, 0
7, 50774, Note_on_c, 9, 39, 0
7, 50774, Note_on_c, 9, 46, 0
7, 50790, Note_on_c, 9, 46, 55
7, 50804, Note_on_c, 9, 46, 0
7, 50820, Note_on_c, 9, 46, 55
7, 50834, Note_on_c, 9, 46, 0
7, 50850, Note_on_c, 9, 46, 55
7, 50864, Note_on_c, 9, 46, 0
7, 50880, Note_on_c, 9, 46, 55
7, 50880, Note_on_c, 9, 35, 100
7, 50894, Note_on_c, 9, 35, 0
7, 50894, Note_on_c, 9, 46, 0
7, 50910, Note_on_c, 9, 46, 55
7, 50924, Note_on_c, 9, 46, 0
7, 50940, Note_on_c, 9, 46, 55
7, 50954, Note_on_c, 9, 46, 0
7, 50970, Note_on_c, 9, 46, 55
7, 50984, Note_on_c, 9, 46, 0
7, 51000, Note_on_c, 9, 46, 55
7, 51000, Note_on_c, 9, 39, 100
7, 51000, Note_on_c, 9, 40, 115
7, 51014, Note_on_c, 9, 40, 0
7, 51014, Note_on_c, 9, 39, 0
7, 51014, Note_on_c, 9, 46, 0
7, 51030, Note_on_c, 9, 46, 55
7, 51044, Note_on_c, 9, 46, 0
7, 51060, Note_on_c, 9, 46, 55
7, 51060, Note_on_c, 9, 35, 100
7, 51074, Note_on_c, 9, 35, 0
7, 51074, Note_on_c, 9, 46, 0
7, 51090, Note_on_c, 9, 46, 55
7, 51104, Note_on_c, 9, 46, 0
7, 51120, Note_on_c, 9, 35, 100
7, 51120, Note_on_c, 9, 46, 55
7, 51134, Note_on_c, 9, 46, 0
7, 51134, Note_on_c, 9, 35, 0
7, 51150, Note_on_c, 9, 46, 55
7, 51164, Note_on_c, 9, 46, 0
7, 51180, Note_on_c, 9, 46, 55
7, 51194, Note_on_c, 9, 46, 0
7, 51210, Note_on_c, 9, 46, 55
7, 51224, Note_on_c, 9, 46, 0
7, 51240, Note_on_c, 9, 46, 55
7, 51240, Note_on_c, 9, 39, 100
7, 51240, Note_on_c, 9, 40, 115
7, 51254, Note_on_c, 9, 40, 0
7, 51254, Note_on_c, 9, 39, 0
7, 51254, Note_on_c, 9, 46, 0
7, 51270, Note_on_c, 9, 46, 55
7, 51284, Note_on_c, 9, 46, 0
7, 51300, Note_on_c, 9, 46, 55
7, 51314, Note_on_c, 9, 46, 0
7, 51330, Note_on_c, 9, 46, 55
7, 51344, Note_on_c, 9, 46, 0
7, 51360, Note_on_c, 9, 46, 55
7, 51360, Note_on_c, 9, 35, 100
7, 51374, Note_on_c, 9, 35, 0
7, 51374, Note_on_c, 9, 46, 0
7, 51390, Note_on_c, 9, 46, 55
7, 51404, Note_on_c, 9, 46, 0
7, 51420, Note_on_c, 9, 46, 55
7, 51434, Note_on_c, 9, 46, 0
7, 51450, Note_on_c, 9, 46, 55
7, 51464, Note_on_c, 9, 46, 0
7, 51480, Note_on_c, 9, 46, 55
7, 51480, Note_on_c, 9, 39, 100
7, 51480, Note_on_c, 9, 40, 115
7, 51494, Note_on_c, 9, 40, 0
7, 51494, Note_on_c, 9, 39, 0
7, 51494, Note_on_c, 9, 46, 0
7, 51510, Note_on_c, 9, 46, 55
7, 51524, Note_on_c, 9, 46, 0
7, 51540, Note_on_c, 9, 46, 55
7, 51540, Note_on_c, 9, 35, 100
7, 51554, Note_on_c, 9, 35, 0
7, 51554, Note_on_c, 9, 46, 0
7, 51570, Note_on_c, 9, 46, 55
7, 51584, Note_on_c, 9, 46, 0
7, 51600, Note_on_c, 9, 35, 100
7, 51600, Note_on_c, 9, 46, 55
7, 51614, Note_on_c, 9, 46, 0
7, 51614, Note_on_c, 9, 35, 0
7, 51630, Note_on_c, 9, 46, 55
7, 51644, Note_on_c, 9, 46, 0
7, 51660, Note_on_c, 9, 46, 55
7, 51674, Note_on_c, 9, 46, 0
7, 51690, Note_on_c, 9, 46, 55
7, 51704, Note_on_c, 9, 46, 0
7, 51720, Note_on_c, 9, 46, 55
7, 51720, Note_on_c, 9, 39, 100
7, 51720, Note_on_c, 9, 40, 115
7, 51734, Note_on_c, 9, 40, 0
7, 51734, Note_on_c, 9, 39, 0
7, 51734, Note_on_c, 9, 46, 0
7, 51750, Note_on_c, 9, 46, 55
7, 51764, Note_on_c, 9, 46, 0
7, 51780, Note_on_c, 9, 46, 55
7, 51794, Note_on_c, 9, 46, 0
7, 51810, Note_on_c, 9, 46, 55
7, 51824, Note_on_c, 9, 46, 0
7, 51840, Note_on_c, 9, 46, 55
7, 51840, Note_on_c, 9, 35, 100
7, 51854, Note_on_c, 9, 35, 0
7, 51854, Note_on_c, 9, 46, 0
7, 51870, Note_on_c, 9, 46, 55
7, 51884, Note_on_c, 9, 46, 0
7, 51900, Note_on_c, 9, 46, 55
7, 51914, Note_on_c, 9, 46, 0
7, 51930, Note_on_c, 9, 46, 55
7, 51944, Note_on_c, 9, 46, 0
7, 51960, Note_on_c, 9, 46, 55
7, 51960, Note_on_c, 9, 39, 100
7, 51960, Note_on_c, 9, 40, 115
7, 51974, Note_on_c, 9, 40, 0
7, 51974, Note_on_c, 9, 39, 0
7, 51974, Note_on_c, 9, 46, 0
7, 51990, Note_on_c, 9, 46, 55
7, 52004, Note_on_c, 9, 46, 0
7, 52020, Note_on_c, 9, 46, 55
7, 52020, Note_on_c, 9, 35, 100
7, 52034, Note_on_c, 9, 35, 0
7, 52034, Note_on_c, 9, 46, 0
7, 52050, Note_on_c, 9, 46, 55
7, 52064, Note_on_c, 9, 46, 0
7, 52080, Note_on_c, 9, 35, 100
7, 52080, Note_on_c, 9, 46, 55
7, 52094, Note_on_c, 9, 46, 0
7, 52094, Note_on_c, 9, 35, 0
7, 52110, Note_on_c, 9, 46, 55
7, 52124, Note_on_c, 9, 46, 0
7, 52140, Note_on_c, 9, 46, 55
7, 52154, Note_on_c, 9, 46, 0
7, 52170, Note_on_c, 9, 46, 55
7, 52184, Note_on_c, 9, 46, 0
7, 52200, Note_on_c, 9, 46, 55
7, 52200, Note_on_c, 9, 39, 100
7, 52200, Note_on_c, 9, 40, 115
7, 52214, Note_on_c, 9, 40, 0
7, 52214, Note_on_c, 9, 39, 0
7, 52214, Note_on_c, 9, 46, 0
7, 52230, Note_on_c, 9, 46, 55
7, 52244, Note_on_c, 9, 46, 0
7, 52260, Note_on_c, 9, 46, 55
7, 52274, Note_on_c, 9, 46, 0
7, 52290, Note_on_c, 9, 46, 55
7, 52304, Note_on_c, 9, 46, 0
7, 52320, Note_on_c, 9, 46, 55
7, 52320, Note_on_c, 9, 35, 100
7, 52334, Note_on_c, 9, 35, 0
7, 52334, Note_on_c, 9, 46, 0
7, 52350, Note_on_c, 9, 46, 55
7, 52364, Note_on_c, 9, 46, 0
7, 52380, Note_on_c, 9, 46, 55
7, 52394, Note_on_c, 9, 46, 0
7, 52410, Note_on_c, 9, 46, 55
7, 52424, Note_on_c, 9, 46, 0
7, 52440, Note_on_c, 9, 46, 55
7, 52440, Note_on_c, 9, 39, 100
7, 52440, Note_on_c, 9, 40, 115
7, 52454, Note_on_c, 9, 40, 0
7, 52454, Note_on_c, 9, 39, 0
7, 52454, Note_on_c, 9, 46, 0
7, 52470, Note_on_c, 9, 46, 55
7, 52484, Note_on_c, 9, 46, 0
7, 52500, Note_on_c, 9, 46, 55
7, 52500, Note_on_c, 9, 35, 100
7, 52514, Note_on_c, 9, 35, 0
7, 52514, Note_on_c, 9, 46, 0
7, 52530, Note_on_c, 9, 46, 55
7, 52544, Note_on_c, 9, 46, 0
7, 52560, Note_on_c, 9, 35, 100
7, 52560, Note_on_c, 9, 46, 55
7, 52574, Note_on_c, 9, 46, 0
7, 52574, Note_on_c, 9, 35, 0
7, 52590, Note_on_c, 9, 46, 55
7, 52604, Note_on_c, 9, 46, 0
7, 52620, Note_on_c, 9, 46, 55
7, 52634, Note_on_c, 9, 46, 0
7, 52650, Note_on_c, 9, 46, 55
7, 52664, Note_on_c, 9, 46, 0
7, 52680, Note_on_c, 9, 46, 55
7, 52680, Note_on_c, 9, 39, 100
7, 52680, Note_on_c, 9, 40, 115
7, 52694, Note_on_c, 9, 40, 0
7, 52694, Note_on_c, 9, 39, 0
7, 52694, Note_on_c, 9, 46, 0
7, 52710, Note_on_c, 9, 46, 55
7, 52724, Note_on_c, 9, 46, 0
7, 52740, Note_on_c, 9, 46, 55
7, 52754, Note_on_c, 9, 46, 0
7, 52770, Note_on_c, 9, 46, 55
7, 52784, Note_on_c, 9, 46, 0
7, 52800, Note_on_c, 9, 46, 55
7, 52800, Note_on_c, 9, 35, 100
7, 52814, Note_on_c, 9, 35, 0
7, 52814, Note_on_c, 9, 46, 0
7, 52830, Note_on_c, 9, 46, 55
7, 52844, Note_on_c, 9, 46, 0
7, 52860, Note_on_c, 9, 46, 55
7, 52874, Note_on_c, 9, 46, 0
7, 52890, Note_on_c, 9, 46, 55
7, 52904, Note_on_c, 9, 46, 0
7, 52920, Note_on_c, 9, 46, 55
7, 52920, Note_on_c, 9, 39, 100
7, 52920, Note_on_c, 9, 40, 115
7, 52934, Note_on_c, 9, 40, 0
7, 52934, Note_on_c, 9, 39, 0
7, 52934, Note_on_c, 9, 46, 0
7, 52950, Note_on_c, 9, 46, 55
7, 52964, Note_on_c, 9, 46, 0
7, 52980, Note_on_c, 9, 46, 55
7, 52980, Note_on_c, 9, 35, 100
7, 52994, Note_on_c, 9, 35, 0
7, 52994, Note_on_c, 9, 46, 0
7, 53010, Note_on_c, 9, 46, 55
7, 53024, Note_on_c, 9, 46, 0
7, 53040, Note_on_c, 9, 35, 100
7, 53040, Note_on_c, 9, 46, 55
7, 53054, Note_on_c, 9, 46, 0
7, 53054, Note_on_c, 9, 35, 0
7, 53070, Note_on_c, 9, 46, 55
7, 53084, Note_on_c, 9, 46, 0
7, 53100, Note_on_c, 9, 46, 55
7, 53114, Note_on_c, 9, 46, 0
7, 53130, Note_on_c, 9, 46, 55
7, 53144, Note_on_c, 9, 46, 0
7, 53160, Note_on_c, 9, 46, 55
7, 53160, Note_on_c, 9, 39, 100
7, 53160, Note_on_c, 9, 40, 115
7, 53174, Note_on_c, 9, 40, 0
7, 53174, Note_on_c, 9, 39, 0
7, 53174, Note_on_c, 9, 46, 0
7, 53190, Note_on_c, 9, 46, 55
7, 53204, Note_on_c, 9, 46, 0
7, 53220, Note_on_c, 9, 46, 55
7, 53234, Note_on_c, 9, 46, 0
7, 53250, Note_on_c, 9, 46, 55
7, 53264, Note_on_c, 9, 46, 0
7, 53280, Note_on_c, 9, 46, 55
7, 53280, Note_on_c, 9, 35, 100
7, 53294, Note_on_c, 9, 35, 0
7, 53294, Note_on_c, 9, 46, 0
7, 53310, Note_on_c, 9, 46, 55
7, 53324, Note_on_c, 9, 46, 0
7, 53340, Note_on_c, 9, 46, 55
7, 53354, Note_on_c, 9, 46, 0
7, 53370, Note_on_c, 9, 46, 55
7, 53384, Note_on_c, 9, 46, 0
7, 53400, Note_on_c, 9, 46, 55
7, 53400, Note_on_c, 9, 39, 100
7, 53400, Note_on_c, 9, 40, 115
7, 53414, Note_on_c, 9, 40, 0
7, 53414, Note_on_c, 9, 39, 0
7, 53414, Note_on_c, 9, 46, 0
7, 53430, Note_on_c, 9, 46, 55
7, 53444, Note_on_c, 9, 46, 0
7, 53460, Note_on_c, 9, 46, 55
7, 53460, Note_on_c, 9, 35, 100
7, 53474, Note_on_c, 9, 35, 0
7, 53474, Note_on_c, 9, 46, 0
7, 53490, Note_on_c, 9, 46, 55
7, 53504, Note_on_c, 9, 46, 0
7, 53520, Note_on_c, 9, 35, 100
7, 53520, Note_on_c, 9, 46, 55
7, 53534, Note_on_c, 9, 46, 0
7, 53534, Note_on_c, 9, 35, 0
7, 53550, Note_on_c, 9, 46, 55
7, 53564, Note_on_c, 9, 46, 0
7, 53580, Note_on_c, 9, 46, 55
7, 53594, Note_on_c, 9, 46, 0
7, 53610, Note_on_c, 9, 46, 55
7, 53624, Note_on_c, 9, 46, 0
7, 53640, Note_on_c, 9, 46, 55
7, 53640, Note_on_c, 9, 39, 100
7, 53640, Note_on_c, 9, 40, 115
7, 53654, Note_on_c, 9, 40, 0
7, 53654, Note_on_c, 9, 39, 0
7, 53654, Note_on_c, 9, 46, 0
7, 53670, Note_on_c, 9, 46, 55
7, 53684, Note_on_c, 9, 46, 0
7, 53700, Note_on_c, 9, 46, 55
7, 53714, Note_on_c, 9, 46, 0
7, 53730, Note_on_c, 9, 46, 55
7, 53744, Note_on_c, 9, 46, 0
7, 53760, Note_on_c, 9, 46, 55
7, 53760, Note_on_c, 9, 35, 100
7, 53774, Note_on_c, 9, 35, 0
7, 53774, Note_on_c, 9, 46, 0
7, 53790, Note_on_c, 9, 46, 55
7, 53804, Note_on_c, 9, 46, 0
7, 53820, Note_on_c, 9, 46, 55
7, 53834, Note_on_c, 9, 46, 0
7, 53850, Note_on_c, 9, 46, 55
7, 53864, Note_on_c, 9, 46, 0
7, 53880, Note_on_c, 9, 46, 55
7, 53880, Note_on_c, 9, 39, 100
7, 53880, Note_on_c, 9, 40, 115
7, 53894, Note_on_c, 9, 40, 0
7, 53894, Note_on_c, 9, 39, 0
7, 53894, Note_on_c, 9, 46, 0
7, 53910, Note_on_c, 9, 46, 55
7, 53924, Note_on_c, 9, 46, 0
7, 53940, Note_on_c, 9, 46, 55
7, 53940, Note_on_c, 9, 35, 100
7, 53954, Note_on_c, 9, 35, 0
7, 53954, Note_on_c, 9, 46, 0
7, 53970, Note_on_c, 9, 46, 55
7, 53984, Note_on_c, 9, 46, 0
7, 54000, Note_on_c, 9, 35, 100
7, 54000, Note_on_c, 9, 46, 55
7, 54014, Note_on_c, 9, 46, 0
7, 54014, Note_on_c, 9, 35, 0
7, 54030, Note_on_c, 9, 46, 55
7, 54044, Note_on_c, 9, 46, 0
7, 54060, Note_on_c, 9, 46, 55
7, 54074, Note_on_c, 9, 46, 0
7, 54090, Note_on_c, 9, 46, 55
7, 54104, Note_on_c, 9, 46, 0
7, 54120, Note_on_c, 9, 46, 55
7, 54120, Note_on_c, 9, 39, 100
7, 54120, Note_on_c, 9, 40, 115
7, 54134, Note_on_c, 9, 40, 0
7, 54134, Note_on_c, 9, 39, 0
7, 54134, Note_on_c, 9, 46, 0
7, 54150, Note_on_c, 9, 46, 55
7, 54164, Note_on_c, 9, 46, 0
7, 54180, Note_on_c, 9, 46, 55
7, 54194, Note_on_c, 9, 46, 0
7, 54210, Note_on_c, 9, 46, 55
7, 54224, Note_on_c, 9, 46, 0
7, 54240, Note_on_c, 9, 46, 55
7, 54240, Note_on_c, 9, 35, 100
7, 54254, Note_on_c, 9, 35, 0
7, 54254, Note_on_c, 9, 46, 0
7, 54270, Note_on_c, 9, 46, 55
7, 54284, Note_on_c, 9, 46, 0
7, 54300, Note_on_c, 9, 46, 55
7, 54314, Note_on_c, 9, 46, 0
7, 54330, Note_on_c, 9, 46, 55
7, 54344, Note_on_c, 9, 46, 0
7, 54360, Note_on_c, 9, 46, 55
7, 54360, Note_on_c, 9, 39, 100
7, 54360, Note_on_c, 9, 40, 115
7, 54374, Note_on_c, 9, 40, 0
7, 54374, Note_on_c, 9, 39, 0
7, 54374, Note_on_c, 9, 46, 0
7, 54390, Note_on_c, 9, 46, 55
7, 54404, Note_on_c, 9, 46, 0
7, 54420, Note_on_c, 9, 46, 55
7, 54420, Note_on_c, 9, 35, 100
7, 54434, Note_on_c, 9, 35, 0
7, 54434, Note_on_c, 9, 46, 0
7, 54450, Note_on_c, 9, 46, 55
7, 54464, Note_on_c, 9, 46, 0
7, 54480, Note_on_c, 9, 35, 100
7, 54480, Note_on_c, 9, 46, 55
7, 54494, Note_on_c, 9, 46, 0
7, 54494, Note_on_c, 9, 35, 0
7, 54510, Note_on_c, 9, 46, 55
7, 54524, Note_on_c, 9, 46, 0
7, 54540, Note_on_c, 9, 46, 55
7, 54554, Note_on_c, 9, 46, 0
7, 54570, Note_on_c, 9, 46, 55
7, 54584, Note_on_c, 9, 46, 0
7, 54600, Note_on_c, 9, 46, 55
7, 54600, Note_on_c, 9, 39, 100
7, 54600, Note_on_c, 9, 40, 115
7, 54614, Note_on_c, 9, 40, 0
7, 54614, Note_on_c, 9, 39, 0
7, 54614, Note_on_c, 9, 46, 0
7, 54630, Note_on_c, 9, 46, 55
7, 54644, Note_on_c, 9, 46, 0
7, 54660, Note_on_c, 9, 46, 55
7, 54674, Note_on_c, 9, 46, 0
7, 54690, Note_on_c, 9, 46, 55
7, 54704, Note_on_c, 9, 46, 0
7, 54720, Note_on_c, 9, 46, 55
7, 54720, Note_on_c, 9, 35, 100
7, 54734, Note_on_c, 9, 35, 0
7, 54734, Note_on_c, 9, 46, 0
7, 54750, Note_on_c, 9, 46, 55
7, 54764, Note_on_c, 9, 46, 0
7, 54780, Note_on_c, 9, 46, 55
7, 54794, Note_on_c, 9, 46, 0
7, 54810, Note_on_c, 9, 46, 55
7, 54824, Note_on_c, 9, 46, 0
7, 54840, Note_on_c, 9, 46, 55
7, 54840, Note_on_c, 9, 39, 100
7, 54840, Note_on_c, 9, 40, 115
7, 54854, Note_on_c, 9, 40, 0
7, 54854, Note_on_c, 9, 39, 0
7, 54854, Note_on_c, 9, 46, 0
7, 54870, Note_on_c, 9, 46, 55
7, 54884, Note_on_c, 9, 46, 0
7, 54900, Note_on_c, 9, 46, 55
7, 54900, Note_on_c, 9, 35, 100
7, 54914, Note_on_c, 9, 35, 0
7, 54914, Note_on_c, 9, 46, 0
7, 54930, Note_on_c, 9, 46, 55
7, 54944, Note_on_c, 9, 46, 0
7, 54960, Note_on_c, 9, 35, 100
7, 54960, Note_on_c, 9, 46, 55
7, 54974, Note_on_c, 9, 46, 0
7, 54974, Note_on_c, 9, 35, 0
7, 54990, Note_on_c, 9, 46, 55
7, 55004, Note_on_c, 9, 46, 0
7, 55020, Note_on_c, 9, 46, 55
7, 55034, Note_on_c, 9, 46, 0
7, 55050, Note_on_c, 9, 46, 55
7, 55064, Note_on_c, 9, 46, 0
7, 55080, Note_on_c, 9, 38, 100
7, 55080, Note_on_c, 9, 46, 55
7, 55080, Note_on_c, 9, 39, 100
7, 55080, Note_on_c, 9, 40, 115
7, 55094, Note_on_c, 9, 40, 0
7, 55094, Note_on_c, 9, 38, 0
7, 55094, Note_on_c, 9, 46, 0
7, 55094, Note_on_c, 9, 39, 0
7, 55110, Note_on_c, 9, 38, 100
7, 55110, Note_on_c, 9, 39, 100
7, 55110, Note_on_c, 9, 40, 100
7, 55110, Note_on_c, 9, 46, 55
7, 55124, Note_on_c, 9, 46, 0
7, 55124, Note_on_c, 9, 38, 0
7, 55124, Note_on_c, 9, 39, 0
7, 55124, Note_on_c, 9, 40, 0
7, 55140, Note_on_c, 9, 46, 55
7, 55154, Note_on_c, 9, 46, 0
7, 55170, Note_on_c, 9, 46, 55
7, 55184, Note_on_c, 9, 46, 0
7, 55200, Note_on_c, 9, 46, 55
7, 55200, Note_on_c, 9, 35, 100
7, 55214, Note_on_c, 9, 35, 0
7, 55214, Note_on_c, 9, 46, 0
7, 55230, Note_on_c, 9, 46, 55
7, 55244, Note_on_c, 9, 46, 0
7, 55260, Note_on_c, 9, 46, 55
7, 55274, Note_on_c, 9, 46, 0
7, 55290, Note_on_c, 9, 46, 55
7, 55304, Note_on_c, 9, 46, 0
7, 55320, Note_on_c, 9, 46, 55
7, 55320, Note_on_c, 9, 39, 100
7, 55320, Note_on_c, 9, 40, 115
7, 55334, Note_on_c, 9, 40, 0
7, 55334, Note_on_c, 9, 39, 0
7, 55334, Note_on_c, 9, 46, 0
7, 55350, Note_on_c, 9, 46, 55
7, 55364, Note_on_c, 9, 46, 0
7, 55380, Note_on_c, 9, 46, 55
7, 55380, Note_on_c, 9, 35, 100
7, 55394, Note_on_c, 9, 35, 0
7, 55394, Note_on_c, 9, 46, 0
7, 55410, Note_on_c, 9, 46, 55
7, 55424, Note_on_c, 9, 46, 0
7, 55440, Note_on_c, 9, 35, 100
7, 55440, Note_on_c, 9, 46, 55
7, 55454, Note_on_c, 9, 46, 0
7, 55454, Note_on_c, 9, 35, 0
7, 55470, Note_on_c, 9, 46, 55
7, 55484, Note_on_c, 9, 46, 0
7, 55500, Note_on_c, 9, 46, 55
7, 55514, Note_on_c, 9, 46, 0
7, 55530, Note_on_c, 9, 46, 55
7, 55544, Note_on_c, 9, 46, 0
7, 55560, Note_on_c, 9, 46, 55
7, 55560, Note_on_c, 9, 39, 100
7, 55560, Note_on_c, 9, 40, 115
7, 55574, Note_on_c, 9, 40, 0
7, 55574, Note_on_c, 9, 39, 0
7, 55574, Note_on_c, 9, 46, 0
7, 55590, Note_on_c, 9, 46, 55
7, 55604, Note_on_c, 9, 46, 0
7, 55620, Note_on_c, 9, 46, 55
7, 55634, Note_on_c, 9, 46, 0
7, 55650, Note_on_c, 9, 46, 55
7, 55664, Note_on_c, 9, 46, 0
7, 55680, Note_on_c, 9, 46, 55
7, 55680, Note_on_c, 9, 35, 100
7, 55694, Note_on_c, 9, 35, 0
7, 55694, Note_on_c, 9, 46, 0
7, 55710, Note_on_c, 9, 46, 55
7, 55724, Note_on_c, 9, 46, 0
7, 55740, Note_on_c, 9, 46, 55
7, 55754, Note_on_c, 9, 46, 0
7, 55770, Note_on_c, 9, 46, 55
7, 55784, Note_on_c, 9, 46, 0
7, 55800, Note_on_c, 9, 46, 55
7, 55800, Note_on_c, 9, 39, 100
7, 55800, Note_on_c, 9, 40, 115
7, 55814, Note_on_c, 9, 40, 0
7, 55814, Note_on_c, 9, 39, 0
7, 55814, Note_on_c, 9, 46, 0
7, 55830, Note_on_c, 9, 46, 55
7, 55844, Note_on_c, 9, 46, 0
7, 55860, Note_on_c, 9, 46, 55
7, 55860, Note_on_c, 9, 35, 100
7, 55874, Note_on_c, 9, 35, 0
7, 55874, Note_on_c, 9, 46, 0
7, 55890, Note_on_c, 9, 46, 55
7, 55904, Note_on_c, 9, 46, 0
7, 55920, Note_on_c, 9, 35, 100
7, 55920, Note_on_c, 9, 46, 55
7, 55934, Note_on_c, 9, 46, 0
7, 55934, Note_on_c, 9, 35, 0
7, 55950, Note_on_c, 9, 46, 55
7, 55964, Note_on_c, 9, 46, 0
7, 55980, Note_on_c, 9, 46, 55
7, 55994, Note_on_c, 9, 46, 0
7, 56010, Note_on_c, 9, 46, 55
7, 56024, Note_on_c, 9, 46, 0
7, 56040, Note_on_c, 9, 46, 55
7, 56040, Note_on_c, 9, 39, 100
7, 56040, Note_on_c, 9, 40, 115
7, 56054, Note_on_c, 9, 40, 0
7, 56054, Note_on_c, 9, 39, 0
7, 56054, Note_on_c, 9, 46, 0
7, 56070, Note_on_c, 9, 46, 55
7, 56084, Note_on_c, 9, 46, 0
7, 56100, Note_on_c, 9, 46, 55
7, 56114, Note_on_c, 9, 46, 0
7, 56130, Note_on_c, 9, 46, 55
7, 56144, Note_on_c, 9, 46, 0
7, 56160, Note_on_c, 9, 46, 55
7, 56160, Note_on_c, 9, 35, 100
7, 56174, Note_on_c, 9, 35, 0
7, 56174, Note_on_c, 9, 46, 0
7, 56190, Note_on_c, 9, 46, 55
7, 56204, Note_on_c, 9, 46, 0
7, 56220, Note_on_c, 9, 46, 55
7, 56234, Note_on_c, 9, 46, 0
7, 56250, Note_on_c, 9, 46, 55
7, 56264, Note_on_c, 9, 46, 0
7, 56280, Note_on_c, 9, 46, 55
7, 56280, Note_on_c, 9, 39, 100
7, 56280, Note_on_c, 9, 40, 115
7, 56294, Note_on_c, 9, 40, 0
7, 56294, Note_on_c, 9, 39, 0
7, 56294, Note_on_c, 9, 46, 0
7, 56310, Note_on_c, 9, 46, 55
7, 56324, Note_on_c, 9, 46, 0
7, 56340, Note_on_c, 9, 46, 55
7, 56340, Note_on_c, 9, 35, 100
7, 56354, Note_on_c, 9, 35, 0
7, 56354, Note_on_c, 9, 46, 0
7, 56370, Note_on_c, 9, 46, 55
7, 56384, Note_on_c, 9, 46, 0
7, 56400, Note_on_c, 9, 35, 100
7, 56400, Note_on_c, 9, 46, 55
7, 56414, Note_on_c, 9, 46, 0
7, 56414, Note_on_c, 9, 35, 0
7, 56430, Note_on_c, 9, 46, 55
7, 56444, Note_on_c, 9, 46, 0
7, 56460, Note_on_c, 9, 46, 55
7, 56474, Note_on_c, 9, 46, 0
7, 56490, Note_on_c, 9, 46, 55
7, 56504, Note_on_c, 9, 46, 0
7, 56520, Note_on_c, 9, 46, 55
7, 56520, Note_on_c, 9, 39, 100
7, 56520, Note_on_c, 9, 40, 115
7, 56534, Note_on_c, 9, 40, 0
7, 56534, Note_on_c, 9, 39, 0
7, 56534, Note_on_c, 9, 46, 0
7, 56550, Note_on_c, 9, 46, 55
7, 56564, Note_on_c, 9, 46, 0
7, 56580, Note_on_c, 9, 46, 55
7, 56594, Note_on_c, 9, 46, 0
7, 56610, Note_on_c, 9, 46, 55
7, 56624, Note_on_c, 9, 46, 0
7, 56640, Note_on_c, 9, 46, 55
7, 56640, Note_on_c, 9, 35, 100
7, 56654, Note_on_c, 9, 35, 0
7, 56654, Note_on_c, 9, 46, 0
7, 56670, Note_on_c, 9, 46, 55
7, 56684, Note_on_c, 9, 46, 0
7, 56700, Note_on_c, 9, 46, 55
7, 56714, Note_on_c, 9, 46, 0
7, 56730, Note_on_c, 9, 46, 55
7, 56744, Note_on_c, 9, 46, 0
7, 56760, Note_on_c, 9, 46, 55
7, 56760, Note_on_c, 9, 39, 100
7, 56760, Note_on_c, 9, 40, 115
7, 56774, Note_on_c, 9, 40, 0
7, 56774, Note_on_c, 9, 39, 0
7, 56774, Note_on_c, 9, 46, 0
7, 56790, Note_on_c, 9, 46, 55
7, 56804, Note_on_c, 9, 46, 0
7, 56820, Note_on_c, 9, 46, 55
7, 56820, Note_on_c, 9, 35, 100
7, 56834, Note_on_c, 9, 35, 0
7, 56834, Note_on_c, 9, 46, 0
7, 56850, Note_on_c, 9, 46, 55
7, 56864, Note_on_c, 9, 46, 0
7, 56880, Note_on_c, 9, 35, 100
7, 56880, Note_on_c, 9, 46, 55
7, 56894, Note_on_c, 9, 46, 0
7, 56894, Note_on_c, 9, 35, 0
7, 56910, Note_on_c, 9, 46, 55
7, 56924, Note_on_c, 9, 46, 0
7, 56940, Note_on_c, 9, 46, 55
7, 56954, Note_on_c, 9, 46, 0
7, 56970, Note_on_c, 9, 46, 55
7, 56984, Note_on_c, 9, 46, 0
7, 57000, Note_on_c, 9, 46, 55
7, 57000, Note_on_c, 9, 39, 100
7, 57000, Note_on_c, 9, 40, 115
7, 57014, Note_on_c, 9, 40, 0
7, 57014, Note_on_c, 9, 39, 0
7, 57014, Note_on_c, 9, 46, 0
7, 57030, Note_on_c, 9, 46, 55
7, 57044, Note_on_c, 9, 46, 0
7, 57060, Note_on_c, 9, 46, 55
7, 57074, Note_on_c, 9, 46, 0
7, 57090, Note_on_c, 9, 46, 55
7, 57104, Note_on_c, 9, 46, 0
7, 57120, Note_on_c, 9, 46, 55
7, 57120, Note_on_c, 9, 35, 100
7, 57134, Note_on_c, 9, 35, 0
7, 57134, Note_on_c, 9, 46, 0
7, 57150, Note_on_c, 9, 46, 55
7, 57164, Note_on_c, 9, 46, 0
7, 57180, Note_on_c, 9, 46, 55
7, 57194, Note_on_c, 9, 46, 0
7, 57210, Note_on_c, 9, 46, 55
7, 57224, Note_on_c, 9, 46, 0
7, 57240, Note_on_c, 9, 46, 55
7, 57240, Note_on_c, 9, 39, 100
7, 57240, Note_on_c, 9, 40, 115
7, 57254, Note_on_c, 9, 40, 0
7, 57254, Note_on_c, 9, 39, 0
7, 57254, Note_on_c, 9, 46, 0
7, 57270, Note_on_c, 9, 46, 55
7, 57284, Note_on_c, 9, 46, 0
7, 57300, Note_on_c, 9, 46, 55
7, 57300, Note_on_c, 9, 35, 100
7, 57314, Note_on_c, 9, 35, 0
7, 57314, Note_on_c, 9, 46, 0
7, 57330, Note_on_c, 9, 46, 55
7, 57344, Note_on_c, 9, 46, 0
7, 57360, Note_on_c, 9, 35, 100
7, 57360, Note_on_c, 9, 46, 55
7, 57374, Note_on_c, 9, 46, 0
7, 57374, Note_on_c, 9, 35, 0
7, 57390, Note_on_c, 9, 46, 55
7, 57404, Note_on_c, 9, 46, 0
7, 57420, Note_on_c, 9, 46, 55
7, 57434, Note_on_c, 9, 46, 0
7, 57450, Note_on_c, 9, 46, 55
7, 57464, Note_on_c, 9, 46, 0
7, 57480, Note_on_c, 9, 46, 55
7, 57480, Note_on_c, 9, 39, 100
7, 57480, Note_on_c, 9, 40, 115
7, 57494, Note_on_c, 9, 40, 0
7, 57494, Note_on_c, 9, 39, 0
7, 57494, Note_on_c, 9, 46, 0
7, 57510, Note_on_c, 9, 46, 55
7, 57524, Note_on_c, 9, 46, 0
7, 57540, Note_on_c, 9, 46, 55
7, 57554, Note_on_c, 9, 46, 0
7, 57570, Note_on_c, 9, 46, 55
7, 57584, Note_on_c, 9, 46, 0
7, 57600, Note_on_c, 9, 46, 55
7, 57600, Note_on_c, 9, 35, 100
7, 57614, Note_on_c, 9, 35, 0
7, 57614, Note_on_c, 9, 46, 0
7, 57630, Note_on_c, 9, 46, 55
7, 57644, Note_on_c, 9, 46, 0
7, 57660, Note_on_c, 9, 46, 55
7, 57674, Note_on_c, 9, 46, 0
7, 57690, Note_on_c, 9, 46, 55
7, 57704, Note_on_c, 9, 46, 0
7, 57720, Note_on_c, 9, 46, 55
7, 57720, Note_on_c, 9, 39, 100
7, 57720, Note_on_c, 9, 40, 115
7, 57734, Note_on_c, 9, 40, 0
7, 57734, Note_on_c, 9, 39, 0
7, 57734, Note_on_c, 9, 46, 0
7, 57750, Note_on_c, 9, 46, 55
7, 57764, Note_on_c, 9, 46, 0
7, 57780, Note_on_c, 9, 46, 55
7, 57780, Note_on_c, 9, 35, 100
7, 57794, Note_on_c, 9, 35, 0
7, 57794, Note_on_c, 9, 46, 0
7, 57810, Note_on_c, 9, 46, 55
7, 57824, Note_on_c, 9, 46, 0
7, 57840, Note_on_c, 9, 35, 100
7, 57840, Note_on_c, 9, 46, 55
7, 57854, Note_on_c, 9, 46, 0
7, 57854, Note_on_c, 9, 35, 0
7, 57870, Note_on_c, 9, 46, 55
7, 57884, Note_on_c, 9, 46, 0
7, 57900, Note_on_c, 9, 46, 55
7, 57914, Note_on_c, 9, 46, 0
7, 57930, Note_on_c, 9, 46, 55
7, 57944, Note_on_c, 9, 46, 0
7, 57960, Note_on_c, 9, 46, 55
7, 57960, Note_on_c, 9, 39, 100
7, 57960, Note_on_c, 9, 40, 115
7, 57974, Note_on_c, 9, 40, 0
7, 57974, Note_on_c, 9, 39, 0
7, 57974, Note_on_c, 9, 46, 0
7, 57990, Note_on_c, 9, 46, 55
7, 58004, Note_on_c, 9, 46, 0
7, 58020, Note_on_c, 9, 46, 55
7, 58034, Note_on_c, 9, 46, 0
7, 58050, Note_on_c, 9, 46, 55
7, 58064, Note_on_c, 9, 46, 0
7, 58080, Note_on_c, 9, 46, 55
7, 58080, Note_on_c, 9, 35, 100
7, 58094, Note_on_c, 9, 35, 0
7, 58094, Note_on_c, 9, 46, 0
7, 58110, Note_on_c, 9, 46, 55
7, 58124, Note_on_c, 9, 46, 0
7, 58140, Note_on_c, 9, 46, 55
7, 58154, Note_on_c, 9, 46, 0
7, 58170, Note_on_c, 9, 46, 55
7, 58184, Note_on_c, 9, 46, 0
7, 58200, Note_on_c, 9, 46, 55
7, 58200, Note_on_c, 9, 39, 100
7, 58200, Note_on_c, 9, 40, 115
7, 58214, Note_on_c, 9, 40, 0
7, 58214, Note_on_c, 9, 39, 0
7, 58214, Note_on_c, 9, 46, 0
7, 58230, Note_on_c, 9, 46, 55
7, 58244, Note_on_c, 9, 46, 0
7, 58260, Note_on_c, 9, 46, 55
7, 58260, Note_on_c, 9, 35, 100
7, 58274, Note_on_c, 9, 35, 0
7, 58274, Note_on_c, 9, 46, 0
7, 58290, Note_on_c, 9, 46, 55
7, 58304, Note_on_c, 9, 46, 0
7, 58320, Note_on_c, 9, 35, 100
7, 58320, Note_on_c, 9, 46, 55
7, 58334, Note_on_c, 9, 46, 0
7, 58334, Note_on_c, 9, 35, 0
7, 58350, Note_on_c, 9, 46, 55
7, 58364, Note_on_c, 9, 46, 0
7, 58380, Note_on_c, 9, 46, 55
7, 58394, Note_on_c, 9, 46, 0
7, 58410, Note_on_c, 9, 46, 55
7, 58424, Note_on_c, 9, 46, 0
7, 58440, Note_on_c, 9, 46, 55
7, 58440, Note_on_c, 9, 39, 100
7, 58440, Note_on_c, 9, 40, 115
7, 58454, Note_on_c, 9, 40, 0
7, 58454, Note_on_c, 9, 39, 0
7, 58454, Note_on_c, 9, 46, 0
7, 58470, Note_on_c, 9, 46, 55
7, 58484, Note_on_c, 9, 46, 0
7, 58500, Note_on_c, 9, 46, 55
7, 58514, Note_on_c, 9, 46, 0
7, 58530, Note_on_c, 9, 46, 55
7, 58544, Note_on_c, 9, 46, 0
7, 58560, Note_on_c, 9, 46, 55
7, 58560, Note_on_c, 9, 35, 100
7, 58574, Note_on_c, 9, 35, 0
7, 58574, Note_on_c, 9, 46, 0
7, 58590, Note_on_c, 9, 46, 55
7, 58604, Note_on_c, 9, 46, 0
7, 58620, Note_on_c, 9, 46, 55
7, 58634, Note_on_c, 9, 46, 0
7, 58650, Note_on_c, 9, 46, 55
7, 58664, Note_on_c, 9, 46, 0
7, 58680, Note_on_c, 9, 46, 55
7, 58680, Note_on_c, 9, 39, 100
7, 58680, Note_on_c, 9, 40, 115
7, 58694, Note_on_c, 9, 40, 0
7, 58694, Note_on_c, 9, 39, 0
7, 58694, Note_on_c, 9, 46, 0
7, 58710, Note_on_c, 9, 46, 55
7, 58724, Note_on_c, 9, 46, 0
7, 58740, Note_on_c, 9, 46, 55
7, 58740, Note_on_c, 9, 35, 100
7, 58754, Note_on_c, 9, 35, 0
7, 58754, Note_on_c, 9, 46, 0
7, 58770, Note_on_c, 9, 46, 55
7, 58784, Note_on_c, 9, 46, 0
7, 58800, Note_on_c, 9, 35, 100
7, 58800, Note_on_c, 9, 46, 55
7, 58814, Note_on_c, 9, 46, 0
7, 58814, Note_on_c, 9, 35, 0
7, 58830, Note_on_c, 9, 46, 55
7, 58844, Note_on_c, 9, 46, 0
7, 58860, Note_on_c, 9, 46, 55
7, 58874, Note_on_c, 9, 46, 0
7, 58890, Note_on_c, 9, 46, 55
7, 58904, Note_on_c, 9, 46, 0
7, 58920, Note_on_c, 9, 46, 55
7, 58920, Note_on_c, 9, 39, 100
7, 58920, Note_on_c, 9, 40, 115
7, 58934, Note_on_c, 9, 40, 0
7, 58934, Note_on_c, 9, 39, 0
7, 58934, Note_on_c, 9, 46, 0
7, 58950, Note_on_c, 9, 46, 55
7, 58964, Note_on_c, 9, 46, 0
7, 58980, Note_on_c, 9, 46, 55
7, 58994, Note_on_c, 9, 46, 0
7, 59010, Note_on_c, 9, 46, 55
7, 59024, Note_on_c, 9, 46, 0
7, 59040, Control_c, 9, 7, 110
7, 59040, Note_on_c, 9, 46, 55
7, 59040, Note_on_c, 9, 35, 100
7, 59054, Note_on_c, 9, 35, 0
7, 59054, Note_on_c, 9, 46, 0
7, 59057, Control_c, 9, 7, 109
7, 59070, Note_on_c, 9, 46, 55
7, 59074, Control_c, 9, 7, 108
7, 59084, Note_on_c, 9, 46, 0
7, 59092, Control_c, 9, 7, 107
7, 59100, Note_on_c, 9, 46, 55
7, 59109, Control_c, 9, 7, 106
7, 59114, Note_on_c, 9, 46, 0
7, 59127, Control_c, 9, 7, 105
7, 59130, Note_on_c, 9, 46, 55
7, 59144, Note_on_c, 9, 46, 0
7, 59144, Control_c, 9, 7, 104
7, 59160, Note_on_c, 9, 46, 55
7, 59160, Note_on_c, 9, 39, 100
7, 59160, Note_on_c, 9, 40, 115
7, 59162, Control_c, 9, 7, 103
7, 59174, Note_on_c, 9, 40, 0
7, 59174, Note_on_c, 9, 39, 0
7, 59174, Note_on_c, 9, 46, 0
7, 59179, Control_c, 9, 7, 102
7, 59190, Note_on_c, 9, 46, 55
7, 59197, Control_c, 9, 7, 101
7, 59204, Note_on_c, 9, 46, 0
7, 59214, Control_c, 9, 7, 100
7, 59220, Note_on_c, 9, 46, 55
7, 59220, Note_on_c, 9, 35, 100
7, 59231, Control_c, 9, 7, 99
7, 59234, Note_on_c, 9, 35, 0
7, 59234, Note_on_c, 9, 46, 0
7, 59249, Control_c, 9, 7, 98
7, 59250, Note_on_c, 9, 46, 55
7, 59264, Note_on_c, 9, 46, 0
7, 59266, Control_c, 9, 7, 97
7, 59280, Note_on_c, 9, 35, 100
7, 59280, Note_on_c, 9, 46, 55
7, 59284, Control_c, 9, 7, 96
7, 59294, Note_on_c, 9, 46, 0
7, 59294, Note_on_c, 9, 35, 0
7, 59301, Control_c, 9, 7, 95
7, 59310, Note_on_c, 9, 46, 55
7, 59319, Control_c, 9, 7, 94
7, 59324, Note_on_c, 9, 46, 0
7, 59336, Control_c, 9, 7, 93
7, 59340, Note_on_c, 9, 46, 55
7, 59354, Note_on_c, 9, 46, 0
7, 59354, Control_c, 9, 7, 92
7, 59370, Note_on_c, 9, 46, 55
7, 59371, Control_c, 9, 7, 91
7, 59384, Note_on_c, 9, 46, 0
7, 59388, Control_c, 9, 7, 90
7, 59400, Note_on_c, 9, 46, 55
7, 59400, Note_on_c, 9, 39, 100
7, 59400, Note_on_c, 9, 40, 115
7, 59406, Control_c, 9, 7, 89
7, 59414, Note_on_c, 9, 40, 0
7, 59414, Note_on_c, 9, 39, 0
7, 59414, Note_on_c, 9, 46, 0
7, 59423, Control_c, 9, 7, 88
7, 59430, Note_on_c, 9, 46, 55
7, 59441, Control_c, 9, 7, 87
7, 59444, Note_on_c, 9, 46, 0
7, 59458, Control_c, 9, 7, 86
7, 59460, Note_on_c, 9, 46, 55
7, 59474, Note_on_c, 9, 46, 0
7, 59476, Control_c, 9, 7, 85
7, 59490, Note_on_c, 9, 46, 55
7, 59493, Control_c, 9, 7, 84
7, 59504, Note_on_c, 9, 46, 0
7, 59511, Control_c, 9, 7, 83
7, 59520, Note_on_c, 9, 46, 55
7, 59520, Note_on_c, 9, 35, 100
7, 59528, Control_c, 9, 7, 82
7, 59534, Note_on_c, 9, 35, 0
7, 59534, Note_on_c, 9, 46, 0
7, 59545, Control_c, 9, 7, 81
7, 59550, Note_on_c, 9, 46, 55
7, 59563, Control_c, 9, 7, 80
7, 59564, Note_on_c, 9, 46, 0
7, 59580, Control_c, 9, 7, 79
7, 59580, Note_on_c, 9, 46, 55
7, 59594, Note_on_c, 9, 46, 0
7, 59598, Control_c, 9, 7, 78
7, 59610, Note_on_c, 9, 46, 55
7, 59615, Control_c, 9, 7, 77
7, 59624, Note_on_c, 9, 46, 0
7, 59633, Control_c, 9, 7, 76
7, 59640, Note_on_c, 9, 46, 55
7, 59640, Note_on_c, 9, 39, 100
7, 59640, Note_on_c, 9, 40, 115
7, 59650, Control_c, 9, 7, 75
7, 59654, Note_on_c, 9, 40, 0
7, 59654, Note_on_c, 9, 39, 0
7, 59654, Note_on_c, 9, 46, 0
7, 59668, Control_c, 9, 7, 74
7, 59670, Note_on_c, 9, 46, 55
7, 59684, Note_on_c, 9, 46, 0
7, 59685, Control_c, 9, 7, 73
7, 59700, Note_on_c, 9, 46, 55
7, 59700, Note_on_c, 9, 35, 100
7, 59702, Control_c, 9, 7, 72
7, 59714, Note_on_c, 9, 35, 0
7, 59714, Note_on_c, 9, 46, 0
7, 59720, Control_c, 9, 7, 71
7, 59730, Note_on_c, 9, 46, 55
7, 59737, Control_c, 9, 7, 70
7, 59744, Note_on_c, 9, 46, 0
7, 59755, Control_c, 9, 7, 69
7, 59760, Note_on_c, 9, 35, 100
7, 59760, Note_on_c, 9, 46, 55
7, 59772, Control_c, 9, 7, 68
7, 59774, Note_on_c, 9, 46, 0
7, 59774, Note_on_c, 9, 35, 0
7, 59790, Control_c, 9, 7, 67
7, 59790, Note_on_c, 9, 46, 55
7, 59804, Note_on_c, 9, 46, 0
7, 59807, Control_c, 9, 7, 66
7, 59820, Note_on_c, 9, 46, 55
7, 59825, Control_c, 9, 7, 65
7, 59834, Note_on_c, 9, 46, 0
7, 59842, Control_c, 9, 7, 64
7, 59850, Note_on_c, 9, 46, 55
7, 59859, Control_c, 9, 7, 63
7, 59864, Note_on_c, 9, 46, 0
7, 59877, Control_c, 9, 7, 62
7, 59880, Note_on_c, 9, 46, 55
7, 59880, Note_on_c, 9, 39, 100
7, 59880, Note_on_c, 9, 40, 115
7, 59894, Note_on_c, 9, 40, 0
7, 59894, Note_on_c, 9, 39, 0
7, 59894, Note_on_c, 9, 46, 0
7, 59894, Control_c, 9, 7, 61
7, 59910, Note_on_c, 9, 46, 55
7, 59912, Control_c, 9, 7, 60
7, 59924, Note_on_c, 9, 46, 0
7, 59929, Control_c, 9, 7, 59
7, 59940, Note_on_c, 9, 46, 55
7, 59947, Control_c, 9, 7, 58
7, 59954, Note_on_c, 9, 46, 0
7, 59964, Control_c, 9, 7, 57
7, 59970, Note_on_c, 9, 46, 55
7, 59982, Control_c, 9, 7, 56
7, 59984, Note_on_c, 9, 46, 0
7, 59999, Control_c, 9, 7, 55
7, 60000, Note_on_c, 9, 46, 55
7, 60000, Note_on_c, 9, 35, 100
7, 60014, Note_on_c, 9, 35, 0
7, 60014, Note_on_c, 9, 46, 0
7, 60016, Control_c, 9, 7, 54
7, 60030, Note_on_c, 9, 46, 55
7, 60034, Control_c, 9, 7, 53
7, 60044, Note_on_c, 9, 46, 0
7, 60051, Control_c, 9, 7, 52
7, 60060, Note_on_c, 9, 46, 55
7, 60069, Control_c, 9, 7, 51
7, 60074, Note_on_c, 9, 46, 0
7, 60086, Control_c, 9, 7, 50
7, 60090, Note_on_c, 9, 46, 55
7, 60104, Note_on_c, 9, 46, 0
7, 60104, Control_c, 9, 7, 49
7, 60120, Note_on_c, 9, 46, 55
7, 60120, Note_on_c, 9, 39, 100
7, 60120, Note_on_c, 9, 40, 115
7, 60121, Control_c, 9, 7, 48
7, 60134, Note_on_c, 9, 40, 0
7, 60134, Note_on_c, 9, 39, 0
7, 60134, Note_on_c, 9, 46, 0
7, 60139, Control_c, 9, 7, 47
7, 60150, Note_on_c, 9, 46, 55
7, 60156, Control_c, 9, 7, 46
7, 60164, Note_on_c, 9, 46, 0
7, 60173, Control_c, 9, 7, 45
7, 60180, Note_on_c, 9, 46, 55
7, 60180, Note_on_c, 9, 35, 100
7, 60191, Control_c, 9, 7, 44
7, 60194, Note_on_c, 9, 35, 0
7, 60194, Note_on_c, 9, 46, 0
7, 60208, Control_c, 9, 7, 43
7, 60210, Note_on_c, 9, 46, 55
7, 60224, Note_on_c, 9, 46, 0
7, 60226, Control_c, 9, 7, 42
7, 60240, Note_on_c, 9, 35, 100
7, 60240, Note_on_c, 9, 46, 55
7, 60243, Control_c, 9, 7, 41
7, 60254, Note_on_c, 9, 46, 0
7, 60254, Note_on_c, 9, 35, 0
7, 60261, Control_c, 9, 7, 40
7, 60270, Note_on_c, 9, 46, 55
7, 60278, Control_c, 9, 7, 39
7, 60284, Note_on_c, 9, 46, 0
7, 60296, Control_c, 9, 7, 38
7, 60300, Note_on_c, 9, 46, 55
7, 60313, Control_c, 9, 7, 37
7, 60314, Note_on_c, 9, 46, 0
7, 60330, Control_c, 9, 7, 36
7, 60330, Note_on_c, 9, 46, 55
7, 60344, Note_on_c, 9, 46, 0
7, 60348, Control_c, 9, 7, 35
7, 60360, Note_on_c, 9, 46, 55
7, 60360, Note_on_c, 9, 39, 100
7, 60360, Note_on_c, 9, 40, 115
7, 60365, Control_c, 9, 7, 34
7, 60374, Note_on_c, 9, 40, 0
7, 60374, Note_on_c, 9, 39, 0
7, 60374, Note_on_c, 9, 46, 0
7, 60383, Control_c, 9, 7, 33
7, 60390, Note_on_c, 9, 46, 55
7, 60400, Control_c, 9, 7, 32
7, 60404, Note_on_c, 9, 46, 0
7, 60418, Control_c, 9, 7, 31
7, 60420, Note_on_c, 9, 46, 55
7, 60434, Note_on_c, 9, 46, 0
7, 60435, Control_c, 9, 7, 30
7, 60450, Note_on_c, 9, 46, 55
7, 60453, Control_c, 9, 7, 29
7, 60464, Note_on_c, 9, 46, 0
7, 60470, Control_c, 9, 7, 28
7, 60480, Note_on_c, 9, 46, 55
7, 60480, Note_on_c, 9, 35, 100
7, 60487, Control_c, 9, 7, 27
7, 60494, Note_on_c, 9, 35, 0
7, 60494, Note_on_c, 9, 46, 0
7, 60505, Control_c, 9, 7, 26
7, 60510, Note_on_c, 9, 46, 55
7, 60522, Control_c, 9, 7, 25
7, 60524, Note_on_c, 9, 46, 0
7, 60540, Control_c, 9, 7, 24
7, 60540, Note_on_c, 9, 46, 55
7, 60554, Note_on_c, 9, 46, 0
7, 60557, Control_c, 9, 7, 23
7, 60570, Note_on_c, 9, 46, 55
7, 60575, Control_c, 9, 7, 22
7, 60584, Note_on_c, 9, 46, 0
7, 60592, Control_c, 9, 7, 21
7, 60600, Note_on_c, 9, 46, 55
7, 60600, Note_on_c, 9, 39, 100
7, 60600, Note_on_c, 9, 40, 115
7, 60610, Control_c, 9, 7, 20
7, 60614, Note_on_c, 9, 40, 0
7, 60614, Note_on_c, 9, 39, 0
7, 60614, Note_on_c, 9, 46, 0
7, 60627, Control_c, 9, 7, 19
7, 60630, Note_on_c, 9, 46, 55
7, 60644, Note_on_c, 9, 46, 0
7, 60644, Control_c, 9, 7, 18
7, 60660, Note_on_c, 9, 46, 55
7, 60660, Note_on_c, 9, 35, 100
7, 60662, Control_c, 9, 7, 17
7, 60674, Note_on_c, 9, 35, 0
7, 60674, Note_on_c, 9, 46, 0
7, 60679, Control_c, 9, 7, 16
7, 60690, Note_on_c, 9, 46, 55
7, 60697, Control_c, 9, 7, 15
7, 60704, Note_on_c, 9, 46, 0
7, 60714, Control_c, 9, 7, 14
7, 60720, Note_on_c, 9, 35, 100
7, 60720, Note_on_c, 9, 46, 55
7, 60732, Control_c, 9, 7, 13
7, 60734, Note_on_c, 9, 46, 0
7, 60734, Note_on_c, 9, 35, 0
7, 60749, Control_c, 9, 7, 12
7, 60750, Note_on_c, 9, 46, 55
7, 60764, Note_on_c, 9, 46, 0
7, 60767, Control_c, 9, 7, 11
7, 60780, Note_on_c, 9, 46, 55
7, 60784, Control_c, 9, 7, 10
7, 60794, Note_on_c, 9, 46, 0
7, 60801, Control_c, 9, 7, 9
7, 60810, Note_on_c, 9, 46, 55
7, 60819, Control_c, 9, 7, 8
7, 60824, Note_on_c, 9, 46, 0
7, 60836, Control_c, 9, 7, 7
7, 60840, Note_on_c, 9, 46, 55
7, 60840, Note_on_c, 9, 39, 100
7, 60840, Note_on_c, 9, 40, 115
7, 60854, Note_on_c, 9, 40, 0
7, 60854, Note_on_c, 9, 39, 0
7, 60854, Note_on_c, 9, 46, 0
7, 60854, Control_c, 9, 7, 6
7, 60870, Note_on_c, 9, 46, 55
7, 60871, Control_c, 9, 7, 5
7, 60884, Note_on_c, 9, 46, 0
7, 60889, Control_c, 9, 7, 4
7, 60900, Note_on_c, 9, 46, 55
7, 60906, Control_c, 9, 7, 3
7, 60914, Note_on_c, 9, 46, 0
7, 60924, Control_c, 9, 7, 2
7, 60930, Note_on_c, 9, 46, 55
7, 60941, Control_c, 9, 7, 1
7, 60944, Note_on_c, 9, 46, 0
7, 60959, Control_c, 9, 7, 0
7, 60959, End_track
8, 0, Start_track
8, 0, MIDI_port, 0
8, 0, Title_t, "Guitar2"
8, 0, Program_c, 5, 27
8, 0, Control_c, 5, 7, 90
8, 0, Control_c, 5, 7, 50
8, 62, Control_c, 5, 7, 51
8, 124, Control_c, 5, 7, 52
8, 187, Control_c, 5, 7, 53
8, 240, Note_on_c, 5, 56, 100
8, 249, Control_c, 5, 7, 54
8, 299, Note_on_c, 5, 56, 0
8, 300, Note_on_c, 5, 59, 100
8, 312, Control_c, 5, 7, 55
8, 374, Control_c, 5, 7, 56
8, 419, Note_on_c, 5, 59, 0
8, 420, Note_on_c, 5, 61, 100
8, 436, Control_c, 5, 7, 57
8, 449, Note_on_c, 5, 61, 0
8, 450, Note_on_c, 5, 63, 100
8, 479, Note_on_c, 5, 63, 0
8, 480, Note_on_c, 5, 61, 100
8, 499, Control_c, 5, 7, 58
8, 561, Control_c, 5, 7, 59
8, 569, Note_on_c, 5, 61, 0
8, 570, Note_on_c, 5, 59, 100
8, 599, Note_on_c, 5, 59, 0
8, 600, Note_on_c, 5, 66, 100
8, 624, Control_c, 5, 7, 60
8, 686, Control_c, 5, 7, 61
8, 748, Control_c, 5, 7, 62
8, 779, Note_on_c, 5, 66, 0
8, 780, Note_on_c, 5, 68, 100
8, 809, Note_on_c, 5, 68, 0
8, 810, Note_on_c, 5, 71, 100
8, 811, Control_c, 5, 7, 63
8, 873, Control_c, 5, 7, 64
8, 899, Note_on_c, 5, 71, 0
8, 900, Note_on_c, 5, 73, 100
8, 950, Control_c, 5, 7, 65
8, 959, Note_on_c, 5, 73, 0
8, 960, Note_on_c, 5, 71, 100
8, 998, Control_c, 5, 7, 66
8, 1019, Note_on_c, 5, 71, 0
8, 1020, Note_on_c, 5, 73, 100
8, 1060, Control_c, 5, 7, 67
8, 1123, Control_c, 5, 7, 68
8, 1139, Note_on_c, 5, 73, 0
8, 1140, Note_on_c, 5, 71, 100
8, 1185, Control_c, 5, 7, 69
8, 1248, Control_c, 5, 7, 70
8, 1259, Note_on_c, 5, 71, 0
8, 1260, Note_on_c, 5, 73, 100
8, 1310, Control_c, 5, 7, 71
8, 1319, Note_on_c, 5, 73, 0
8, 1320, Note_on_c, 5, 66, 100
8, 1372, Control_c, 5, 7, 72
8, 1435, Control_c, 5, 7, 73
8, 1497, Control_c, 5, 7, 74
8, 1560, Control_c, 5, 7, 75
8, 1622, Control_c, 5, 7, 76
8, 1684, Control_c, 5, 7, 77
8, 1747, Control_c, 5, 7, 78
8, 1799, Note_on_c, 5, 66, 0
8, 1809, Control_c, 5, 7, 79
8, 1860, Note_on_c, 5, 63, 100
8, 1872, Control_c, 5, 7, 80
8, 1889, Note_on_c, 5, 63, 0
8, 1890, Note_on_c, 5, 61, 100
8, 1934, Control_c, 5, 7, 81
8, 1979, Note_on_c, 5, 61, 0
8, 1980, Note_on_c, 5, 59, 100
8, 1996, Control_c, 5, 7, 82
8, 2009, Note_on_c, 5, 59, 0
8, 2010, Note_on_c, 5, 61, 100
8, 2039, Note_on_c, 5, 61, 0
8, 2040, Note_on_c, 5, 59, 100
8, 2059, Control_c, 5, 7, 83
8, 2121, Control_c, 5, 7, 84
8, 2129, Note_on_c, 5, 59, 0
8, 2130, Note_on_c, 5, 59, 100
8, 2159, Note_on_c, 5, 59, 0
8, 2160, Note_on_c, 5, 56, 100
8, 2184, Control_c, 5, 7, 85
8, 2246, Control_c, 5, 7, 86
8, 2279, Note_on_c, 5, 56, 0
8, 2280, Note_on_c, 5, 64, 100
8, 2308, Control_c, 5, 7, 87
8, 2369, Note_on_c, 5, 64, 0
8, 2370, Note_on_c, 5, 68, 100
8, 2371, Control_c, 5, 7, 88
8, 2399, Note_on_c, 5, 68, 0
8, 2400, Note_on_c, 5, 66, 100
8, 2433, Control_c, 5, 7, 89
8, 2459, Note_on_c, 5, 66, 0
8, 2460, Note_on_c, 5, 68, 100
8, 2496, Control_c, 5, 7, 90
8, 2520, Note_on_c, 5, 71, 100
8, 2558, Control_c, 5, 7, 91
8, 2639, Note_on_c, 5, 71, 0
8, 2639, Note_on_c, 5, 68, 0
8, 2640, Note_on_c, 5, 66, 100
8, 2640, Note_on_c, 5, 78, 100
8, 2880, Control_c, 5, 7, 100
8, 2916, Control_c, 5, 7, 99
8, 2952, Control_c, 5, 7, 98
8, 2988, Control_c, 5, 7, 97
8, 3024, Control_c, 5, 7, 96
8, 3060, Control_c, 5, 7, 95
8, 3096, Control_c, 5, 7, 94
8, 3132, Control_c, 5, 7, 93
8, 3168, Control_c, 5, 7, 92
8, 3204, Control_c, 5, 7, 91
8, 3240, Control_c, 5, 7, 90
8, 3276, Control_c, 5, 7, 89
8, 3312, Control_c, 5, 7, 88
8, 3348, Control_c, 5, 7, 87
8, 3384, Control_c, 5, 7, 86
8, 3420, Control_c, 5, 7, 85
8, 3456, Control_c, 5, 7, 84
8, 3492, Control_c, 5, 7, 83
8, 3528, Control_c, 5, 7, 82
8, 3564, Control_c, 5, 7, 81
8, 3600, Control_c, 5, 7, 80
8, 3636, Control_c, 5, 7, 79
8, 3672, Control_c, 5, 7, 78
8, 3708, Control_c, 5, 7, 77
8, 3744, Control_c, 5, 7, 76
8, 3780, Control_c, 5, 7, 75
8, 3816, Control_c, 5, 7, 74
8, 3852, Control_c, 5, 7, 73
8, 3888, Control_c, 5, 7, 72
8, 3924, Control_c, 5, 7, 71
8, 3960, Control_c, 5, 7, 70
8, 3996, Control_c, 5, 7, 69
8, 4032, Control_c, 5, 7, 68
8, 4068, Control_c, 5, 7, 67
8, 4104, Control_c, 5, 7, 66
8, 4140, Control_c, 5, 7, 65
8, 4176, Control_c, 5, 7, 64
8, 4212, Control_c, 5, 7, 63
8, 4248, Control_c, 5, 7, 62
8, 4284, Control_c, 5, 7, 61
8, 4320, Control_c, 5, 7, 60
8, 4356, Control_c, 5, 7, 59
8, 4392, Control_c, 5, 7, 58
8, 4428, Control_c, 5, 7, 57
8, 4464, Control_c, 5, 7, 56
8, 4500, Control_c, 5, 7, 55
8, 4536, Control_c, 5, 7, 54
8, 4572, Control_c, 5, 7, 53
8, 4608, Control_c, 5, 7, 52
8, 4644, Control_c, 5, 7, 51
8, 4680, Control_c, 5, 7, 50
8, 4799, Note_on_c, 5, 78, 0
8, 4799, Note_on_c, 5, 66, 0
8, 4800, Note_on_c, 5, 71, 100
8, 4800, Note_on_c, 5, 76, 100
8, 4800, Note_on_c, 5, 83, 100
8, 4859, Note_on_c, 5, 83, 0
8, 4859, Note_on_c, 5, 76, 0
8, 4859, Note_on_c, 5, 71, 0
8, 4860, Note_on_c, 5, 71, 100
8, 4860, Note_on_c, 5, 78, 100
8, 4860, Note_on_c, 5, 83, 100
8, 4919, Note_on_c, 5, 83, 0
8, 4919, Note_on_c, 5, 78, 0
8, 4919, Note_on_c, 5, 71, 0
8, 4920, Note_on_c, 5, 71, 100
8, 4920, Note_on_c, 5, 78, 100
8, 4920, Note_on_c, 5, 83, 100
8, 5039, Note_on_c, 5, 83, 0
8, 5039, Note_on_c, 5, 78, 0
8, 5039, Note_on_c, 5, 71, 0
8, 5040, Note_on_c, 5, 71, 100
8, 5040, Note_on_c, 5, 78, 100
8, 5040, Note_on_c, 5, 83, 100
8, 5159, Note_on_c, 5, 83, 0
8, 5159, Note_on_c, 5, 78, 0
8, 5159, Note_on_c, 5, 71, 0
8, 5160, Note_on_c, 5, 71, 100
8, 5160, Note_on_c, 5, 78, 100
8, 5160, Note_on_c, 5, 83, 100
8, 5279, Note_on_c, 5, 83, 0
8, 5279, Note_on_c, 5, 78, 0
8, 5279, Note_on_c, 5, 71, 0
8, 5280, Note_on_c, 5, 80, 100
8, 5280, Note_on_c, 5, 71, 100
8, 5280, Note_on_c, 5, 83, 100
8, 5339, Note_on_c, 5, 83, 0
8, 5339, Note_on_c, 5, 71, 0
8, 5339, Note_on_c, 5, 80, 0
8, 5340, Note_on_c, 5, 71, 100
8, 5340, Note_on_c, 5, 78, 100
8, 5340, Note_on_c, 5, 83, 100
8, 5399, Note_on_c, 5, 83, 0
8, 5399, Note_on_c, 5, 78, 0
8, 5399, Note_on_c, 5, 71, 0
8, 5400, Note_on_c, 5, 71, 100
8, 5400, Note_on_c, 5, 78, 100
8, 5400, Note_on_c, 5, 83, 100
8, 5519, Note_on_c, 5, 83, 0
8, 5519, Note_on_c, 5, 78, 0
8, 5519, Note_on_c, 5, 71, 0
8, 5520, Note_on_c, 5, 71, 100
8, 5520, Note_on_c, 5, 78, 100
8, 5520, Note_on_c, 5, 83, 100
8, 5639, Note_on_c, 5, 83, 0
8, 5639, Note_on_c, 5, 78, 0
8, 5639, Note_on_c, 5, 71, 0
8, 5640, Note_on_c, 5, 71, 100
8, 5640, Note_on_c, 5, 78, 100
8, 5640, Note_on_c, 5, 83, 100
8, 5759, Note_on_c, 5, 83, 0
8, 5759, Note_on_c, 5, 78, 0
8, 5759, Note_on_c, 5, 71, 0
8, 5760, Note_on_c, 5, 71, 100
8, 5760, Note_on_c, 5, 76, 100
8, 5760, Note_on_c, 5, 83, 100
8, 5819, Note_on_c, 5, 83, 0
8, 5819, Note_on_c, 5, 76, 0
8, 5819, Note_on_c, 5, 71, 0
8, 5820, Note_on_c, 5, 71, 100
8, 5820, Note_on_c, 5, 78, 100
8, 5820, Note_on_c, 5, 83, 100
8, 5879, Note_on_c, 5, 83, 0
8, 5879, Note_on_c, 5, 78, 0
8, 5879, Note_on_c, 5, 71, 0
8, 5880, Note_on_c, 5, 71, 100
8, 5880, Note_on_c, 5, 78, 100
8, 5880, Note_on_c, 5, 83, 100
8, 5999, Note_on_c, 5, 83, 0
8, 5999, Note_on_c, 5, 78, 0
8, 5999, Note_on_c, 5, 71, 0
8, 6000, Note_on_c, 5, 71, 100
8, 6000, Note_on_c, 5, 78, 100
8, 6000, Note_on_c, 5, 83, 100
8, 6119, Note_on_c, 5, 83, 0
8, 6119, Note_on_c, 5, 78, 0
8, 6119, Note_on_c, 5, 71, 0
8, 6120, Note_on_c, 5, 71, 100
8, 6120, Note_on_c, 5, 78, 100
8, 6120, Note_on_c, 5, 83, 100
8, 6179, Note_on_c, 5, 83, 0
8, 6179, Note_on_c, 5, 78, 0
8, 6179, Note_on_c, 5, 71, 0
8, 6180, Note_on_c, 5, 73, 100
8, 6180, Note_on_c, 5, 76, 100
8, 6180, Note_on_c, 5, 81, 100
8, 6239, Note_on_c, 5, 81, 0
8, 6239, Note_on_c, 5, 76, 0
8, 6239, Note_on_c, 5, 73, 0
8, 6240, Note_on_c, 5, 73, 100
8, 6240, Note_on_c, 5, 76, 100
8, 6240, Note_on_c, 5, 81, 100
8, 6299, Note_on_c, 5, 81, 0
8, 6299, Note_on_c, 5, 76, 0
8, 6299, Note_on_c, 5, 73, 0
8, 6300, Note_on_c, 5, 80, 100
8, 6300, Note_on_c, 5, 71, 100
8, 6300, Note_on_c, 5, 76, 100
8, 6359, Note_on_c, 5, 76, 0
8, 6359, Note_on_c, 5, 71, 0
8, 6359, Note_on_c, 5, 80, 0
8, 6360, Note_on_c, 5, 80, 100
8, 6360, Note_on_c, 5, 76, 100
8, 6360, Note_on_c, 5, 71, 100
8, 6479, Note_on_c, 5, 71, 0
8, 6479, Note_on_c, 5, 76, 0
8, 6479, Note_on_c, 5, 80, 0
8, 6480, Note_on_c, 5, 80, 100
8, 6480, Note_on_c, 5, 71, 100
8, 6480, Note_on_c, 5, 76, 100
8, 6539, Note_on_c, 5, 76, 0
8, 6539, Note_on_c, 5, 71, 0
8, 6539, Note_on_c, 5, 80, 0
8, 6540, Note_on_c, 5, 78, 100
8, 6540, Note_on_c, 5, 76, 100
8, 6540, Note_on_c, 5, 71, 100
8, 6599, Note_on_c, 5, 71, 0
8, 6599, Note_on_c, 5, 76, 0
8, 6599, Note_on_c, 5, 78, 0
8, 6600, Note_on_c, 5, 71, 100
8, 6600, Note_on_c, 5, 76, 100
8, 6600, Note_on_c, 5, 78, 100
8, 6659, Note_on_c, 5, 78, 0
8, 6659, Note_on_c, 5, 76, 0
8, 6659, Note_on_c, 5, 71, 0
8, 6660, Note_on_c, 5, 71, 100
8, 6660, Note_on_c, 5, 76, 100
8, 6719, Note_on_c, 5, 76, 0
8, 6719, Note_on_c, 5, 71, 0
8, 6720, Note_on_c, 5, 71, 100
8, 6720, Note_on_c, 5, 76, 100
8, 6720, Note_on_c, 5, 83, 100
8, 6779, Note_on_c, 5, 83, 0
8, 6779, Note_on_c, 5, 76, 0
8, 6779, Note_on_c, 5, 71, 0
8, 6780, Note_on_c, 5, 71, 100
8, 6780, Note_on_c, 5, 78, 100
8, 6780, Note_on_c, 5, 83, 100
8, 6839, Note_on_c, 5, 83, 0
8, 6839, Note_on_c, 5, 78, 0
8, 6839, Note_on_c, 5, 71, 0
8, 6840, Note_on_c, 5, 71, 100
8, 6840, Note_on_c, 5, 78, 100
8, 6840, Note_on_c, 5, 83, 100
8, 6959, Note_on_c, 5, 83, 0
8, 6959, Note_on_c, 5, 78, 0
8, 6959, Note_on_c, 5, 71, 0
8, 6960, Note_on_c, 5, 71, 100
8, 6960, Note_on_c, 5, 78, 100
8, 6960, Note_on_c, 5, 83, 100
8, 7079, Note_on_c, 5, 83, 0
8, 7079, Note_on_c, 5, 78, 0
8, 7079, Note_on_c, 5, 71, 0
8, 7080, Note_on_c, 5, 71, 100
8, 7080, Note_on_c, 5, 78, 100
8, 7080, Note_on_c, 5, 83, 100
8, 7199, Note_on_c, 5, 83, 0
8, 7199, Note_on_c, 5, 78, 0
8, 7199, Note_on_c, 5, 71, 0
8, 7200, Note_on_c, 5, 80, 100
8, 7200, Note_on_c, 5, 71, 100
8, 7200, Note_on_c, 5, 83, 100
8, 7259, Note_on_c, 5, 83, 0
8, 7259, Note_on_c, 5, 71, 0
8, 7259, Note_on_c, 5, 80, 0
8, 7260, Note_on_c, 5, 71, 100
8, 7260, Note_on_c, 5, 78, 100
8, 7260, Note_on_c, 5, 83, 100
8, 7319, Note_on_c, 5, 83, 0
8, 7319, Note_on_c, 5, 78, 0
8, 7319, Note_on_c, 5, 71, 0
8, 7320, Note_on_c, 5, 71, 100
8, 7320, Note_on_c, 5, 78, 100
8, 7320, Note_on_c, 5, 83, 100
8, 7439, Note_on_c, 5, 83, 0
8, 7439, Note_on_c, 5, 78, 0
8, 7439, Note_on_c, 5, 71, 0
8, 7440, Note_on_c, 5, 71, 100
8, 7440, Note_on_c, 5, 78, 100
8, 7440, Note_on_c, 5, 83, 100
8, 7559, Note_on_c, 5, 83, 0
8, 7559, Note_on_c, 5, 78, 0
8, 7559, Note_on_c, 5, 71, 0
8, 7560, Note_on_c, 5, 71, 100
8, 7560, Note_on_c, 5, 78, 100
8, 7560, Note_on_c, 5, 83, 100
8, 7679, Note_on_c, 5, 83, 0
8, 7679, Note_on_c, 5, 78, 0
8, 7679, Note_on_c, 5, 71, 0
8, 7680, Note_on_c, 5, 71, 100
8, 7680, Note_on_c, 5, 76, 100
8, 7680, Note_on_c, 5, 83, 100
8, 7739, Note_on_c, 5, 83, 0
8, 7739, Note_on_c, 5, 76, 0
8, 7739, Note_on_c, 5, 71, 0
8, 7740, Note_on_c, 5, 71, 100
8, 7740, Note_on_c, 5, 78, 100
8, 7740, Note_on_c, 5, 83, 100
8, 7799, Note_on_c, 5, 83, 0
8, 7799, Note_on_c, 5, 78, 0
8, 7799, Note_on_c, 5, 71, 0
8, 7800, Note_on_c, 5, 71, 100
8, 7800, Note_on_c, 5, 78, 100
8, 7800, Note_on_c, 5, 83, 100
8, 7919, Note_on_c, 5, 83, 0
8, 7919, Note_on_c, 5, 78, 0
8, 7919, Note_on_c, 5, 71, 0
8, 7920, Note_on_c, 5, 71, 100
8, 7920, Note_on_c, 5, 78, 100
8, 7920, Note_on_c, 5, 83, 100
8, 8039, Note_on_c, 5, 83, 0
8, 8039, Note_on_c, 5, 78, 0
8, 8039, Note_on_c, 5, 71, 0
8, 8040, Note_on_c, 5, 71, 100
8, 8040, Note_on_c, 5, 78, 100
8, 8040, Note_on_c, 5, 83, 100
8, 8159, Note_on_c, 5, 83, 0
8, 8159, Note_on_c, 5, 78, 0
8, 8159, Note_on_c, 5, 71, 0
8, 8160, Note_on_c, 5, 83, 100
8, 8160, Note_on_c, 5, 78, 100
8, 8160, Note_on_c, 5, 76, 100
8, 8160, Note_on_c, 5, 71, 100
8, 8279, Note_on_c, 5, 71, 0
8, 8279, Note_on_c, 5, 83, 0
8, 8279, Note_on_c, 5, 78, 0
8, 8279, Note_on_c, 5, 76, 0
8, 8280, Note_on_c, 5, 83, 100
8, 8280, Note_on_c, 5, 78, 100
8, 8280, Note_on_c, 5, 76, 100
8, 8280, Note_on_c, 5, 71, 100
8, 8399, Note_on_c, 5, 71, 0
8, 8399, Note_on_c, 5, 83, 0
8, 8399, Note_on_c, 5, 78, 0
8, 8399, Note_on_c, 5, 76, 0
8, 8400, Note_on_c, 5, 83, 100
8, 8400, Note_on_c, 5, 78, 100
8, 8400, Note_on_c, 5, 76, 100
8, 8400, Note_on_c, 5, 71, 100
8, 8519, Note_on_c, 5, 71, 0
8, 8519, Note_on_c, 5, 83, 0
8, 8519, Note_on_c, 5, 78, 0
8, 8519, Note_on_c, 5, 76, 0
8, 8520, Note_on_c, 5, 83, 100
8, 8520, Note_on_c, 5, 78, 100
8, 8520, Note_on_c, 5, 76, 100
8, 8520, Note_on_c, 5, 71, 100
8, 8639, Note_on_c, 5, 71, 0
8, 8639, Note_on_c, 5, 83, 0
8, 8639, Note_on_c, 5, 78, 0
8, 8639, Note_on_c, 5, 76, 0
8, 8640, Note_on_c, 5, 83, 100
8, 8640, Note_on_c, 5, 78, 100
8, 8640, Note_on_c, 5, 75, 100
8, 8640, Note_on_c, 5, 71, 100
8, 8759, Note_on_c, 5, 71, 0
8, 8759, Note_on_c, 5, 83, 0
8, 8759, Note_on_c, 5, 78, 0
8, 8759, Note_on_c, 5, 75, 0
8, 8760, Note_on_c, 5, 83, 100
8, 8760, Note_on_c, 5, 78, 100
8, 8760, Note_on_c, 5, 75, 100
8, 8760, Note_on_c, 5, 71, 100
8, 8879, Note_on_c, 5, 71, 0
8, 8879, Note_on_c, 5, 83, 0
8, 8879, Note_on_c, 5, 78, 0
8, 8879, Note_on_c, 5, 75, 0
8, 8880, Note_on_c, 5, 83, 100
8, 8880, Note_on_c, 5, 78, 100
8, 8880, Note_on_c, 5, 73, 100
8, 8880, Note_on_c, 5, 71, 100
8, 8999, Note_on_c, 5, 71, 0
8, 8999, Note_on_c, 5, 83, 0
8, 8999, Note_on_c, 5, 78, 0
8, 8999, Note_on_c, 5, 73, 0
8, 9000, Note_on_c, 5, 83, 100
8, 9000, Note_on_c, 5, 78, 100
8, 9000, Note_on_c, 5, 73, 100
8, 9000, Note_on_c, 5, 71, 100
8, 9119, Note_on_c, 5, 71, 0
8, 9119, Note_on_c, 5, 83, 0
8, 9119, Note_on_c, 5, 78, 0
8, 9119, Note_on_c, 5, 73, 0
8, 9120, Control_c, 5, 7, 50
8, 9120, Note_on_c, 5, 66, 100
8, 9120, Note_on_c, 5, 63, 100
8, 9120, Note_on_c, 5, 59, 100
8, 9149, Note_on_c, 5, 59, 0
8, 9149, Note_on_c, 5, 63, 0
8, 9149, Note_on_c, 5, 66, 0
8, 9150, Note_on_c, 5, 66, 100
8, 9150, Note_on_c, 5, 63, 100
8, 9150, Note_on_c, 5, 59, 100
8, 9179, Note_on_c, 5, 59, 0
8, 9179, Note_on_c, 5, 63, 0
8, 9179, Note_on_c, 5, 66, 0
8, 9180, Note_on_c, 5, 66, 100
8, 9180, Note_on_c, 5, 63, 100
8, 9180, Note_on_c, 5, 59, 100
8, 9209, Note_on_c, 5, 59, 0
8, 9209, Note_on_c, 5, 63, 0
8, 9209, Note_on_c, 5, 66, 0
8, 9210, Note_on_c, 5, 66, 100
8, 9210, Note_on_c, 5, 63, 100
8, 9210, Note_on_c, 5, 59, 100
8, 9239, Note_on_c, 5, 59, 0
8, 9239, Note_on_c, 5, 63, 0
8, 9239, Note_on_c, 5, 66, 0
8, 9240, Note_on_c, 5, 66, 100
8, 9240, Note_on_c, 5, 63, 100
8, 9240, Note_on_c, 5, 59, 100
8, 9269, Note_on_c, 5, 59, 0
8, 9269, Note_on_c, 5, 63, 0
8, 9269, Note_on_c, 5, 66, 0
8, 9270, Note_on_c, 5, 66, 100
8, 9270, Note_on_c, 5, 63, 100
8, 9270, Note_on_c, 5, 59, 100
8, 9299, Note_on_c, 5, 59, 0
8, 9299, Note_on_c, 5, 63, 0
8, 9299, Note_on_c, 5, 66, 0
8, 9300, Note_on_c, 5, 66, 100
8, 9300, Note_on_c, 5, 63, 100
8, 9300, Note_on_c, 5, 59, 100
8, 9329, Note_on_c, 5, 59, 0
8, 9329, Note_on_c, 5, 63, 0
8, 9329, Note_on_c, 5, 66, 0
8, 9330, Note_on_c, 5, 66, 100
8, 9330, Note_on_c, 5, 63, 100
8, 9330, Note_on_c, 5, 59, 100
8, 9359, Note_on_c, 5, 59, 0
8, 9359, Note_on_c, 5, 63, 0
8, 9359, Note_on_c, 5, 66, 0
8, 9360, Note_on_c, 5, 66, 100
8, 9360, Note_on_c, 5, 63, 100
8, 9360, Note_on_c, 5, 59, 100
8, 9389, Note_on_c, 5, 59, 0
8, 9389, Note_on_c, 5, 63, 0
8, 9389, Note_on_c, 5, 66, 0
8, 9390, Note_on_c, 5, 66, 100
8, 9390, Note_on_c, 5, 63, 100
8, 9390, Note_on_c, 5, 59, 100
8, 9419, Note_on_c, 5, 59, 0
8, 9419, Note_on_c, 5, 63, 0
8, 9419, Note_on_c, 5, 66, 0
8, 9420, Note_on_c, 5, 66, 100
8, 9420, Note_on_c, 5, 63, 100
8, 9420, Note_on_c, 5, 59, 100
8, 9449, Note_on_c, 5, 59, 0
8, 9449, Note_on_c, 5, 63, 0
8, 9449, Note_on_c, 5, 66, 0
8, 9450, Note_on_c, 5, 66, 100
8, 9450, Note_on_c, 5, 63, 100
8, 9450, Note_on_c, 5, 59, 100
8, 9479, Note_on_c, 5, 59, 0
8, 9479, Note_on_c, 5, 63, 0
8, 9479, Note_on_c, 5, 66, 0
8, 9480, Note_on_c, 5, 66, 100
8, 9480, Note_on_c, 5, 63, 100
8, 9480, Note_on_c, 5, 59, 100
8, 9509, Note_on_c, 5, 59, 0
8, 9509, Note_on_c, 5, 63, 0
8, 9509, Note_on_c, 5, 66, 0
8, 9510, Note_on_c, 5, 66, 100
8, 9510, Note_on_c, 5, 63, 100
8, 9510, Note_on_c, 5, 59, 100
8, 9539, Note_on_c, 5, 59, 0
8, 9539, Note_on_c, 5, 63, 0
8, 9539, Note_on_c, 5, 66, 0
8, 9540, Note_on_c, 5, 66, 100
8, 9540, Note_on_c, 5, 63, 100
8, 9540, Note_on_c, 5, 59, 100
8, 9569, Note_on_c, 5, 59, 0
8, 9569, Note_on_c, 5, 63, 0
8, 9569, Note_on_c, 5, 66, 0
8, 9570, Note_on_c, 5, 66, 100
8, 9570, Note_on_c, 5, 63, 100
8, 9570, Note_on_c, 5, 59, 100
8, 9599, Note_on_c, 5, 59, 0
8, 9599, Note_on_c, 5, 63, 0
8, 9599, Note_on_c, 5, 66, 0
8, 9600, Note_on_c, 5, 59, 100
8, 9600, Note_on_c, 5, 66, 100
8, 9600, Note_on_c, 5, 64, 100
8, 9629, Note_on_c, 5, 64, 0
8, 9629, Note_on_c, 5, 66, 0
8, 9629, Note_on_c, 5, 59, 0
8, 9630, Note_on_c, 5, 59, 100
8, 9630, Note_on_c, 5, 66, 100
8, 9630, Note_on_c, 5, 64, 100
8, 9659, Note_on_c, 5, 64, 0
8, 9659, Note_on_c, 5, 66, 0
8, 9659, Note_on_c, 5, 59, 0
8, 9660, Note_on_c, 5, 59, 100
8, 9660, Note_on_c, 5, 66, 100
8, 9660, Note_on_c, 5, 64, 100
8, 9689, Note_on_c, 5, 64, 0
8, 9689, Note_on_c, 5, 66, 0
8, 9689, Note_on_c, 5, 59, 0
8, 9690, Note_on_c, 5, 59, 100
8, 9690, Note_on_c, 5, 66, 100
8, 9690, Note_on_c, 5, 64, 100
8, 9719, Note_on_c, 5, 64, 0
8, 9719, Note_on_c, 5, 66, 0
8, 9719, Note_on_c, 5, 59, 0
8, 9720, Note_on_c, 5, 59, 100
8, 9720, Note_on_c, 5, 66, 100
8, 9720, Note_on_c, 5, 64, 100
8, 9749, Note_on_c, 5, 64, 0
8, 9749, Note_on_c, 5, 66, 0
8, 9749, Note_on_c, 5, 59, 0
8, 9750, Note_on_c, 5, 59, 100
8, 9750, Note_on_c, 5, 66, 100
8, 9750, Note_on_c, 5, 64, 100
8, 9779, Note_on_c, 5, 64, 0
8, 9779, Note_on_c, 5, 66, 0
8, 9779, Note_on_c, 5, 59, 0
8, 9780, Note_on_c, 5, 59, 100
8, 9780, Note_on_c, 5, 66, 100
8, 9780, Note_on_c, 5, 64, 100
8, 9809, Note_on_c, 5, 64, 0
8, 9809, Note_on_c, 5, 66, 0
8, 9809, Note_on_c, 5, 59, 0
8, 9810, Note_on_c, 5, 59, 100
8, 9810, Note_on_c, 5, 66, 100
8, 9810, Note_on_c, 5, 64, 100
8, 9839, Note_on_c, 5, 64, 0
8, 9839, Note_on_c, 5, 66, 0
8, 9839, Note_on_c, 5, 59, 0
8, 9840, Note_on_c, 5, 59, 100
8, 9840, Note_on_c, 5, 66, 100
8, 9840, Note_on_c, 5, 64, 100
8, 9869, Note_on_c, 5, 64, 0
8, 9869, Note_on_c, 5, 66, 0
8, 9869, Note_on_c, 5, 59, 0
8, 9870, Note_on_c, 5, 59, 100
8, 9870, Note_on_c, 5, 66, 100
8, 9870, Note_on_c, 5, 64, 100
8, 9899, Note_on_c, 5, 64, 0
8, 9899, Note_on_c, 5, 66, 0
8, 9899, Note_on_c, 5, 59, 0
8, 9900, Note_on_c, 5, 59, 100
8, 9900, Note_on_c, 5, 66, 100
8, 9900, Note_on_c, 5, 64, 100
8, 9929, Note_on_c, 5, 64, 0
8, 9929, Note_on_c, 5, 66, 0
8, 9929, Note_on_c, 5, 59, 0
8, 9930, Note_on_c, 5, 59, 100
8, 9930, Note_on_c, 5, 66, 100
8, 9930, Note_on_c, 5, 64, 100
8, 9959, Note_on_c, 5, 64, 0
8, 9959, Note_on_c, 5, 66, 0
8, 9959, Note_on_c, 5, 59, 0
8, 9960, Note_on_c, 5, 59, 100
8, 9960, Note_on_c, 5, 66, 100
8, 9960, Note_on_c, 5, 64, 100
8, 9989, Note_on_c, 5, 64, 0
8, 9989, Note_on_c, 5, 66, 0
8, 9989, Note_on_c, 5, 59, 0
8, 9990, Note_on_c, 5, 59, 100
8, 9990, Note_on_c, 5, 66, 100
8, 9990, Note_on_c, 5, 64, 100
8, 10019, Note_on_c, 5, 64, 0
8, 10019, Note_on_c, 5, 66, 0
8, 10019, Note_on_c, 5, 59, 0
8, 10020, Note_on_c, 5, 59, 100
8, 10020, Note_on_c, 5, 66, 100
8, 10020, Note_on_c, 5, 64, 100
8, 10049, Note_on_c, 5, 64, 0
8, 10049, Note_on_c, 5, 66, 0
8, 10049, Note_on_c, 5, 59, 0
8, 10050, Note_on_c, 5, 59, 100
8, 10050, Note_on_c, 5, 66, 100
8, 10050, Note_on_c, 5, 64, 100
8, 10079, Note_on_c, 5, 64, 0
8, 10079, Note_on_c, 5, 66, 0
8, 10079, Note_on_c, 5, 59, 0
8, 10080, Note_on_c, 5, 59, 100
8, 10080, Note_on_c, 5, 66, 100
8, 10080, Note_on_c, 5, 64, 100
8, 10109, Note_on_c, 5, 64, 0
8, 10109, Note_on_c, 5, 66, 0
8, 10109, Note_on_c, 5, 59, 0
8, 10110, Note_on_c, 5, 59, 100
8, 10110, Note_on_c, 5, 66, 100
8, 10110, Note_on_c, 5, 64, 100
8, 10139, Note_on_c, 5, 64, 0
8, 10139, Note_on_c, 5, 66, 0
8, 10139, Note_on_c, 5, 59, 0
8, 10140, Note_on_c, 5, 59, 100
8, 10140, Note_on_c, 5, 66, 100
8, 10140, Note_on_c, 5, 64, 100
8, 10169, Note_on_c, 5, 64, 0
8, 10169, Note_on_c, 5, 66, 0
8, 10169, Note_on_c, 5, 59, 0
8, 10170, Note_on_c, 5, 59, 100
8, 10170, Note_on_c, 5, 66, 100
8, 10170, Note_on_c, 5, 64, 100
8, 10199, Note_on_c, 5, 64, 0
8, 10199, Note_on_c, 5, 66, 0
8, 10199, Note_on_c, 5, 59, 0
8, 10200, Note_on_c, 5, 59, 100
8, 10200, Note_on_c, 5, 66, 100
8, 10200, Note_on_c, 5, 64, 100
8, 10229, Note_on_c, 5, 64, 0
8, 10229, Note_on_c, 5, 66, 0
8, 10229, Note_on_c, 5, 59, 0
8, 10230, Note_on_c, 5, 59, 100
8, 10230, Note_on_c, 5, 66, 100
8, 10230, Note_on_c, 5, 64, 100
8, 10259, Note_on_c, 5, 64, 0
8, 10259, Note_on_c, 5, 66, 0
8, 10259, Note_on_c, 5, 59, 0
8, 10260, Note_on_c, 5, 59, 100
8, 10260, Note_on_c, 5, 66, 100
8, 10260, Note_on_c, 5, 64, 100
8, 10289, Note_on_c, 5, 64, 0
8, 10289, Note_on_c, 5, 66, 0
8, 10289, Note_on_c, 5, 59, 0
8, 10290, Note_on_c, 5, 59, 100
8, 10290, Note_on_c, 5, 66, 100
8, 10290, Note_on_c, 5, 64, 100
8, 10319, Note_on_c, 5, 64, 0
8, 10319, Note_on_c, 5, 66, 0
8, 10319, Note_on_c, 5, 59, 0
8, 10320, Note_on_c, 5, 59, 100
8, 10320, Note_on_c, 5, 66, 100
8, 10320, Note_on_c, 5, 64, 100
8, 10349, Note_on_c, 5, 64, 0
8, 10349, Note_on_c, 5, 66, 0
8, 10349, Note_on_c, 5, 59, 0
8, 10350, Note_on_c, 5, 59, 100
8, 10350, Note_on_c, 5, 66, 100
8, 10350, Note_on_c, 5, 64, 100
8, 10379, Note_on_c, 5, 64, 0
8, 10379, Note_on_c, 5, 66, 0
8, 10379, Note_on_c, 5, 59, 0
8, 10380, Note_on_c, 5, 59, 100
8, 10380, Note_on_c, 5, 66, 100
8, 10380, Note_on_c, 5, 64, 100
8, 10409, Note_on_c, 5, 64, 0
8, 10409, Note_on_c, 5, 66, 0
8, 10409, Note_on_c, 5, 59, 0
8, 10410, Note_on_c, 5, 59, 100
8, 10410, Note_on_c, 5, 66, 100
8, 10410, Note_on_c, 5, 64, 100
8, 10439, Note_on_c, 5, 64, 0
8, 10439, Note_on_c, 5, 66, 0
8, 10439, Note_on_c, 5, 59, 0
8, 10440, Note_on_c, 5, 59, 100
8, 10440, Note_on_c, 5, 66, 100
8, 10440, Note_on_c, 5, 64, 100
8, 10469, Note_on_c, 5, 64, 0
8, 10469, Note_on_c, 5, 66, 0
8, 10469, Note_on_c, 5, 59, 0
8, 10470, Note_on_c, 5, 59, 100
8, 10470, Note_on_c, 5, 66, 100
8, 10470, Note_on_c, 5, 64, 100
8, 10499, Note_on_c, 5, 64, 0
8, 10499, Note_on_c, 5, 66, 0
8, 10499, Note_on_c, 5, 59, 0
8, 10500, Note_on_c, 5, 59, 100
8, 10500, Note_on_c, 5, 66, 100
8, 10500, Note_on_c, 5, 64, 100
8, 10529, Note_on_c, 5, 64, 0
8, 10529, Note_on_c, 5, 66, 0
8, 10529, Note_on_c, 5, 59, 0
8, 10530, Note_on_c, 5, 59, 100
8, 10530, Note_on_c, 5, 66, 100
8, 10530, Note_on_c, 5, 64, 100
8, 10559, Note_on_c, 5, 64, 0
8, 10559, Note_on_c, 5, 66, 0
8, 10559, Note_on_c, 5, 59, 0
8, 10560, Note_on_c, 5, 61, 100
8, 10560, Note_on_c, 5, 57, 100
8, 10560, Note_on_c, 5, 66, 100
8, 10589, Note_on_c, 5, 66, 0
8, 10589, Note_on_c, 5, 57, 0
8, 10589, Note_on_c, 5, 61, 0
8, 10590, Note_on_c, 5, 61, 100
8, 10590, Note_on_c, 5, 57, 100
8, 10590, Note_on_c, 5, 66, 100
8, 10619, Note_on_c, 5, 66, 0
8, 10619, Note_on_c, 5, 57, 0
8, 10619, Note_on_c, 5, 61, 0
8, 10620, Note_on_c, 5, 61, 100
8, 10620, Note_on_c, 5, 57, 100
8, 10620, Note_on_c, 5, 66, 100
8, 10649, Note_on_c, 5, 66, 0
8, 10649, Note_on_c, 5, 57, 0
8, 10649, Note_on_c, 5, 61, 0
8, 10650, Note_on_c, 5, 61, 100
8, 10650, Note_on_c, 5, 57, 100
8, 10650, Note_on_c, 5, 66, 100
8, 10679, Note_on_c, 5, 66, 0
8, 10679, Note_on_c, 5, 57, 0
8, 10679, Note_on_c, 5, 61, 0
8, 10680, Note_on_c, 5, 61, 100
8, 10680, Note_on_c, 5, 57, 100
8, 10680, Note_on_c, 5, 66, 100
8, 10709, Note_on_c, 5, 66, 0
8, 10709, Note_on_c, 5, 57, 0
8, 10709, Note_on_c, 5, 61, 0
8, 10710, Note_on_c, 5, 61, 100
8, 10710, Note_on_c, 5, 57, 100
8, 10710, Note_on_c, 5, 66, 100
8, 10739, Note_on_c, 5, 66, 0
8, 10739, Note_on_c, 5, 57, 0
8, 10739, Note_on_c, 5, 61, 0
8, 10740, Note_on_c, 5, 59, 100
8, 10740, Note_on_c, 5, 64, 100
8, 10740, Note_on_c, 5, 66, 100
8, 10769, Note_on_c, 5, 66, 0
8, 10769, Note_on_c, 5, 64, 0
8, 10769, Note_on_c, 5, 59, 0
8, 10770, Note_on_c, 5, 59, 100
8, 10770, Note_on_c, 5, 64, 100
8, 10770, Note_on_c, 5, 66, 100
8, 10799, Note_on_c, 5, 66, 0
8, 10799, Note_on_c, 5, 64, 0
8, 10799, Note_on_c, 5, 59, 0
8, 10800, Note_on_c, 5, 59, 100
8, 10800, Note_on_c, 5, 66, 100
8, 10800, Note_on_c, 5, 64, 100
8, 10829, Note_on_c, 5, 64, 0
8, 10829, Note_on_c, 5, 66, 0
8, 10829, Note_on_c, 5, 59, 0
8, 10830, Note_on_c, 5, 59, 100
8, 10830, Note_on_c, 5, 66, 100
8, 10830, Note_on_c, 5, 64, 100
8, 10859, Note_on_c, 5, 64, 0
8, 10859, Note_on_c, 5, 66, 0
8, 10859, Note_on_c, 5, 59, 0
8, 10860, Note_on_c, 5, 59, 100
8, 10860, Note_on_c, 5, 66, 100
8, 10860, Note_on_c, 5, 64, 100
8, 10889, Note_on_c, 5, 64, 0
8, 10889, Note_on_c, 5, 66, 0
8, 10889, Note_on_c, 5, 59, 0
8, 10890, Note_on_c, 5, 59, 100
8, 10890, Note_on_c, 5, 66, 100
8, 10890, Note_on_c, 5, 64, 100
8, 10919, Note_on_c, 5, 64, 0
8, 10919, Note_on_c, 5, 66, 0
8, 10919, Note_on_c, 5, 59, 0
8, 10920, Note_on_c, 5, 59, 100
8, 10920, Note_on_c, 5, 66, 100
8, 10920, Note_on_c, 5, 64, 100
8, 10949, Note_on_c, 5, 64, 0
8, 10949, Note_on_c, 5, 66, 0
8, 10949, Note_on_c, 5, 59, 0
8, 10950, Note_on_c, 5, 59, 100
8, 10950, Note_on_c, 5, 66, 100
8, 10950, Note_on_c, 5, 64, 100
8, 10979, Note_on_c, 5, 64, 0
8, 10979, Note_on_c, 5, 66, 0
8, 10979, Note_on_c, 5, 59, 0
8, 10980, Note_on_c, 5, 59, 100
8, 10980, Note_on_c, 5, 66, 100
8, 10980, Note_on_c, 5, 64, 100
8, 11009, Note_on_c, 5, 64, 0
8, 11009, Note_on_c, 5, 66, 0
8, 11009, Note_on_c, 5, 59, 0
8, 11010, Note_on_c, 5, 59, 100
8, 11010, Note_on_c, 5, 66, 100
8, 11010, Note_on_c, 5, 64, 100
8, 11039, Note_on_c, 5, 64, 0
8, 11039, Note_on_c, 5, 66, 0
8, 11039, Note_on_c, 5, 59, 0
8, 11040, Control_c, 5, 7, 50
8, 11040, Note_on_c, 5, 66, 100
8, 11040, Note_on_c, 5, 63, 100
8, 11040, Note_on_c, 5, 59, 100
8, 11069, Note_on_c, 5, 59, 0
8, 11069, Note_on_c, 5, 63, 0
8, 11069, Note_on_c, 5, 66, 0
8, 11070, Note_on_c, 5, 66, 100
8, 11070, Note_on_c, 5, 63, 100
8, 11070, Note_on_c, 5, 59, 100
8, 11099, Note_on_c, 5, 59, 0
8, 11099, Note_on_c, 5, 63, 0
8, 11099, Note_on_c, 5, 66, 0
8, 11100, Note_on_c, 5, 66, 100
8, 11100, Note_on_c, 5, 63, 100
8, 11100, Note_on_c, 5, 59, 100
8, 11129, Note_on_c, 5, 59, 0
8, 11129, Note_on_c, 5, 63, 0
8, 11129, Note_on_c, 5, 66, 0
8, 11130, Note_on_c, 5, 66, 100
8, 11130, Note_on_c, 5, 63, 100
8, 11130, Note_on_c, 5, 59, 100
8, 11159, Note_on_c, 5, 59, 0
8, 11159, Note_on_c, 5, 63, 0
8, 11159, Note_on_c, 5, 66, 0
8, 11160, Note_on_c, 5, 66, 100
8, 11160, Note_on_c, 5, 63, 100
8, 11160, Note_on_c, 5, 59, 100
8, 11189, Note_on_c, 5, 59, 0
8, 11189, Note_on_c, 5, 63, 0
8, 11189, Note_on_c, 5, 66, 0
8, 11190, Note_on_c, 5, 66, 100
8, 11190, Note_on_c, 5, 63, 100
8, 11190, Note_on_c, 5, 59, 100
8, 11219, Note_on_c, 5, 59, 0
8, 11219, Note_on_c, 5, 63, 0
8, 11219, Note_on_c, 5, 66, 0
8, 11220, Note_on_c, 5, 66, 100
8, 11220, Note_on_c, 5, 63, 100
8, 11220, Note_on_c, 5, 59, 100
8, 11249, Note_on_c, 5, 59, 0
8, 11249, Note_on_c, 5, 63, 0
8, 11249, Note_on_c, 5, 66, 0
8, 11250, Note_on_c, 5, 66, 100
8, 11250, Note_on_c, 5, 63, 100
8, 11250, Note_on_c, 5, 59, 100
8, 11279, Note_on_c, 5, 59, 0
8, 11279, Note_on_c, 5, 63, 0
8, 11279, Note_on_c, 5, 66, 0
8, 11280, Note_on_c, 5, 66, 100
8, 11280, Note_on_c, 5, 63, 100
8, 11280, Note_on_c, 5, 59, 100
8, 11309, Note_on_c, 5, 59, 0
8, 11309, Note_on_c, 5, 63, 0
8, 11309, Note_on_c, 5, 66, 0
8, 11310, Note_on_c, 5, 66, 100
8, 11310, Note_on_c, 5, 63, 100
8, 11310, Note_on_c, 5, 59, 100
8, 11339, Note_on_c, 5, 59, 0
8, 11339, Note_on_c, 5, 63, 0
8, 11339, Note_on_c, 5, 66, 0
8, 11340, Note_on_c, 5, 66, 100
8, 11340, Note_on_c, 5, 63, 100
8, 11340, Note_on_c, 5, 59, 100
8, 11369, Note_on_c, 5, 59, 0
8, 11369, Note_on_c, 5, 63, 0
8, 11369, Note_on_c, 5, 66, 0
8, 11370, Note_on_c, 5, 66, 100
8, 11370, Note_on_c, 5, 63, 100
8, 11370, Note_on_c, 5, 59, 100
8, 11399, Note_on_c, 5, 59, 0
8, 11399, Note_on_c, 5, 63, 0
8, 11399, Note_on_c, 5, 66, 0
8, 11400, Note_on_c, 5, 66, 100
8, 11400, Note_on_c, 5, 63, 100
8, 11400, Note_on_c, 5, 59, 100
8, 11429, Note_on_c, 5, 59, 0
8, 11429, Note_on_c, 5, 63, 0
8, 11429, Note_on_c, 5, 66, 0
8, 11430, Note_on_c, 5, 66, 100
8, 11430, Note_on_c, 5, 63, 100
8, 11430, Note_on_c, 5, 59, 100
8, 11459, Note_on_c, 5, 59, 0
8, 11459, Note_on_c, 5, 63, 0
8, 11459, Note_on_c, 5, 66, 0
8, 11460, Note_on_c, 5, 66, 100
8, 11460, Note_on_c, 5, 63, 100
8, 11460, Note_on_c, 5, 59, 100
8, 11489, Note_on_c, 5, 59, 0
8, 11489, Note_on_c, 5, 63, 0
8, 11489, Note_on_c, 5, 66, 0
8, 11490, Note_on_c, 5, 66, 100
8, 11490, Note_on_c, 5, 63, 100
8, 11490, Note_on_c, 5, 59, 100
8, 11519, Note_on_c, 5, 59, 0
8, 11519, Note_on_c, 5, 63, 0
8, 11519, Note_on_c, 5, 66, 0
8, 11520, Note_on_c, 5, 59, 100
8, 11520, Note_on_c, 5, 66, 100
8, 11520, Note_on_c, 5, 64, 100
8, 11549, Note_on_c, 5, 64, 0
8, 11549, Note_on_c, 5, 66, 0
8, 11549, Note_on_c, 5, 59, 0
8, 11550, Note_on_c, 5, 59, 100
8, 11550, Note_on_c, 5, 66, 100
8, 11550, Note_on_c, 5, 64, 100
8, 11579, Note_on_c, 5, 64, 0
8, 11579, Note_on_c, 5, 66, 0
8, 11579, Note_on_c, 5, 59, 0
8, 11580, Note_on_c, 5, 59, 100
8, 11580, Note_on_c, 5, 66, 100
8, 11580, Note_on_c, 5, 64, 100
8, 11609, Note_on_c, 5, 64, 0
8, 11609, Note_on_c, 5, 66, 0
8, 11609, Note_on_c, 5, 59, 0
8, 11610, Note_on_c, 5, 59, 100
8, 11610, Note_on_c, 5, 66, 100
8, 11610, Note_on_c, 5, 64, 100
8, 11639, Note_on_c, 5, 64, 0
8, 11639, Note_on_c, 5, 66, 0
8, 11639, Note_on_c, 5, 59, 0
8, 11640, Note_on_c, 5, 59, 100
8, 11640, Note_on_c, 5, 66, 100
8, 11640, Note_on_c, 5, 64, 100
8, 11669, Note_on_c, 5, 64, 0
8, 11669, Note_on_c, 5, 66, 0
8, 11669, Note_on_c, 5, 59, 0
8, 11670, Note_on_c, 5, 59, 100
8, 11670, Note_on_c, 5, 66, 100
8, 11670, Note_on_c, 5, 64, 100
8, 11699, Note_on_c, 5, 64, 0
8, 11699, Note_on_c, 5, 66, 0
8, 11699, Note_on_c, 5, 59, 0
8, 11700, Note_on_c, 5, 59, 100
8, 11700, Note_on_c, 5, 66, 100
8, 11700, Note_on_c, 5, 64, 100
8, 11729, Note_on_c, 5, 64, 0
8, 11729, Note_on_c, 5, 66, 0
8, 11729, Note_on_c, 5, 59, 0
8, 11730, Note_on_c, 5, 59, 100
8, 11730, Note_on_c, 5, 66, 100
8, 11730, Note_on_c, 5, 64, 100
8, 11759, Note_on_c, 5, 64, 0
8, 11759, Note_on_c, 5, 66, 0
8, 11759, Note_on_c, 5, 59, 0
8, 11760, Note_on_c, 5, 59, 100
8, 11760, Note_on_c, 5, 66, 100
8, 11760, Note_on_c, 5, 64, 100
8, 11789, Note_on_c, 5, 64, 0
8, 11789, Note_on_c, 5, 66, 0
8, 11789, Note_on_c, 5, 59, 0
8, 11790, Note_on_c, 5, 59, 100
8, 11790, Note_on_c, 5, 66, 100
8, 11790, Note_on_c, 5, 64, 100
8, 11819, Note_on_c, 5, 64, 0
8, 11819, Note_on_c, 5, 66, 0
8, 11819, Note_on_c, 5, 59, 0
8, 11820, Note_on_c, 5, 59, 100
8, 11820, Note_on_c, 5, 66, 100
8, 11820, Note_on_c, 5, 64, 100
8, 11849, Note_on_c, 5, 64, 0
8, 11849, Note_on_c, 5, 66, 0
8, 11849, Note_on_c, 5, 59, 0
8, 11850, Note_on_c, 5, 59, 100
8, 11850, Note_on_c, 5, 66, 100
8, 11850, Note_on_c, 5, 64, 100
8, 11879, Note_on_c, 5, 64, 0
8, 11879, Note_on_c, 5, 66, 0
8, 11879, Note_on_c, 5, 59, 0
8, 11880, Note_on_c, 5, 59, 100
8, 11880, Note_on_c, 5, 66, 100
8, 11880, Note_on_c, 5, 64, 100
8, 11909, Note_on_c, 5, 64, 0
8, 11909, Note_on_c, 5, 66, 0
8, 11909, Note_on_c, 5, 59, 0
8, 11910, Note_on_c, 5, 59, 100
8, 11910, Note_on_c, 5, 66, 100
8, 11910, Note_on_c, 5, 64, 100
8, 11939, Note_on_c, 5, 64, 0
8, 11939, Note_on_c, 5, 66, 0
8, 11939, Note_on_c, 5, 59, 0
8, 11940, Note_on_c, 5, 59, 100
8, 11940, Note_on_c, 5, 66, 100
8, 11940, Note_on_c, 5, 64, 100
8, 11969, Note_on_c, 5, 64, 0
8, 11969, Note_on_c, 5, 66, 0
8, 11969, Note_on_c, 5, 59, 0
8, 11970, Note_on_c, 5, 59, 100
8, 11970, Note_on_c, 5, 66, 100
8, 11970, Note_on_c, 5, 64, 100
8, 11999, Note_on_c, 5, 64, 0
8, 11999, Note_on_c, 5, 66, 0
8, 11999, Note_on_c, 5, 59, 0
8, 12000, Note_on_c, 5, 59, 100
8, 12000, Note_on_c, 5, 66, 100
8, 12000, Note_on_c, 5, 64, 100
8, 12029, Note_on_c, 5, 64, 0
8, 12029, Note_on_c, 5, 66, 0
8, 12029, Note_on_c, 5, 59, 0
8, 12030, Note_on_c, 5, 59, 100
8, 12030, Note_on_c, 5, 66, 100
8, 12030, Note_on_c, 5, 64, 100
8, 12059, Note_on_c, 5, 64, 0
8, 12059, Note_on_c, 5, 66, 0
8, 12059, Note_on_c, 5, 59, 0
8, 12060, Note_on_c, 5, 59, 100
8, 12060, Note_on_c, 5, 66, 100
8, 12060, Note_on_c, 5, 64, 100
8, 12089, Note_on_c, 5, 64, 0
8, 12089, Note_on_c, 5, 66, 0
8, 12089, Note_on_c, 5, 59, 0
8, 12090, Note_on_c, 5, 59, 100
8, 12090, Note_on_c, 5, 66, 100
8, 12090, Note_on_c, 5, 64, 100
8, 12119, Note_on_c, 5, 64, 0
8, 12119, Note_on_c, 5, 66, 0
8, 12119, Note_on_c, 5, 59, 0
8, 12120, Note_on_c, 5, 59, 100
8, 12120, Note_on_c, 5, 66, 100
8, 12120, Note_on_c, 5, 64, 100
8, 12149, Note_on_c, 5, 64, 0
8, 12149, Note_on_c, 5, 66, 0
8, 12149, Note_on_c, 5, 59, 0
8, 12150, Note_on_c, 5, 59, 100
8, 12150, Note_on_c, 5, 66, 100
8, 12150, Note_on_c, 5, 64, 100
8, 12179, Note_on_c, 5, 64, 0
8, 12179, Note_on_c, 5, 66, 0
8, 12179, Note_on_c, 5, 59, 0
8, 12180, Note_on_c, 5, 59, 100
8, 12180, Note_on_c, 5, 66, 100
8, 12180, Note_on_c, 5, 64, 100
8, 12209, Note_on_c, 5, 64, 0
8, 12209, Note_on_c, 5, 66, 0
8, 12209, Note_on_c, 5, 59, 0
8, 12210, Note_on_c, 5, 59, 100
8, 12210, Note_on_c, 5, 66, 100
8, 12210, Note_on_c, 5, 64, 100
8, 12239, Note_on_c, 5, 64, 0
8, 12239, Note_on_c, 5, 66, 0
8, 12239, Note_on_c, 5, 59, 0
8, 12240, Note_on_c, 5, 59, 100
8, 12240, Note_on_c, 5, 66, 100
8, 12240, Note_on_c, 5, 64, 100
8, 12269, Note_on_c, 5, 64, 0
8, 12269, Note_on_c, 5, 66, 0
8, 12269, Note_on_c, 5, 59, 0
8, 12270, Note_on_c, 5, 59, 100
8, 12270, Note_on_c, 5, 66, 100
8, 12270, Note_on_c, 5, 64, 100
8, 12299, Note_on_c, 5, 64, 0
8, 12299, Note_on_c, 5, 66, 0
8, 12299, Note_on_c, 5, 59, 0
8, 12300, Note_on_c, 5, 59, 100
8, 12300, Note_on_c, 5, 66, 100
8, 12300, Note_on_c, 5, 64, 100
8, 12329, Note_on_c, 5, 64, 0
8, 12329, Note_on_c, 5, 66, 0
8, 12329, Note_on_c, 5, 59, 0
8, 12330, Note_on_c, 5, 59, 100
8, 12330, Note_on_c, 5, 66, 100
8, 12330, Note_on_c, 5, 64, 100
8, 12359, Note_on_c, 5, 64, 0
8, 12359, Note_on_c, 5, 66, 0
8, 12359, Note_on_c, 5, 59, 0
8, 12360, Note_on_c, 5, 59, 100
8, 12360, Note_on_c, 5, 66, 100
8, 12360, Note_on_c, 5, 64, 100
8, 12389, Note_on_c, 5, 64, 0
8, 12389, Note_on_c, 5, 66, 0
8, 12389, Note_on_c, 5, 59, 0
8, 12390, Note_on_c, 5, 59, 100
8, 12390, Note_on_c, 5, 66, 100
8, 12390, Note_on_c, 5, 64, 100
8, 12419, Note_on_c, 5, 64, 0
8, 12419, Note_on_c, 5, 66, 0
8, 12419, Note_on_c, 5, 59, 0
8, 12420, Note_on_c, 5, 59, 100
8, 12420, Note_on_c, 5, 66, 100
8, 12420, Note_on_c, 5, 64, 100
8, 12449, Note_on_c, 5, 64, 0
8, 12449, Note_on_c, 5, 66, 0
8, 12449, Note_on_c, 5, 59, 0
8, 12450, Note_on_c, 5, 59, 100
8, 12450, Note_on_c, 5, 66, 100
8, 12450, Note_on_c, 5, 64, 100
8, 12479, Note_on_c, 5, 64, 0
8, 12479, Note_on_c, 5, 66, 0
8, 12479, Note_on_c, 5, 59, 0
8, 12480, Note_on_c, 5, 61, 100
8, 12480, Note_on_c, 5, 57, 100
8, 12480, Note_on_c, 5, 66, 100
8, 12509, Note_on_c, 5, 66, 0
8, 12509, Note_on_c, 5, 57, 0
8, 12509, Note_on_c, 5, 61, 0
8, 12510, Note_on_c, 5, 61, 100
8, 12510, Note_on_c, 5, 57, 100
8, 12510, Note_on_c, 5, 66, 100
8, 12539, Note_on_c, 5, 66, 0
8, 12539, Note_on_c, 5, 57, 0
8, 12539, Note_on_c, 5, 61, 0
8, 12540, Note_on_c, 5, 61, 100
8, 12540, Note_on_c, 5, 57, 100
8, 12540, Note_on_c, 5, 66, 100
8, 12569, Note_on_c, 5, 66, 0
8, 12569, Note_on_c, 5, 57, 0
8, 12569, Note_on_c, 5, 61, 0
8, 12570, Note_on_c, 5, 61, 100
8, 12570, Note_on_c, 5, 57, 100
8, 12570, Note_on_c, 5, 66, 100
8, 12599, Note_on_c, 5, 66, 0
8, 12599, Note_on_c, 5, 57, 0
8, 12599, Note_on_c, 5, 61, 0
8, 12600, Note_on_c, 5, 61, 100
8, 12600, Note_on_c, 5, 57, 100
8, 12600, Note_on_c, 5, 66, 100
8, 12629, Note_on_c, 5, 66, 0
8, 12629, Note_on_c, 5, 57, 0
8, 12629, Note_on_c, 5, 61, 0
8, 12630, Note_on_c, 5, 61, 100
8, 12630, Note_on_c, 5, 57, 100
8, 12630, Note_on_c, 5, 66, 100
8, 12659, Note_on_c, 5, 66, 0
8, 12659, Note_on_c, 5, 57, 0
8, 12659, Note_on_c, 5, 61, 0
8, 12660, Note_on_c, 5, 59, 100
8, 12660, Note_on_c, 5, 64, 100
8, 12660, Note_on_c, 5, 66, 100
8, 12689, Note_on_c, 5, 66, 0
8, 12689, Note_on_c, 5, 64, 0
8, 12689, Note_on_c, 5, 59, 0
8, 12690, Note_on_c, 5, 59, 100
8, 12690, Note_on_c, 5, 64, 100
8, 12690, Note_on_c, 5, 66, 100
8, 12719, Note_on_c, 5, 66, 0
8, 12719, Note_on_c, 5, 64, 0
8, 12719, Note_on_c, 5, 59, 0
8, 12720, Note_on_c, 5, 59, 100
8, 12720, Note_on_c, 5, 66, 100
8, 12720, Note_on_c, 5, 64, 100
8, 12749, Note_on_c, 5, 64, 0
8, 12749, Note_on_c, 5, 66, 0
8, 12749, Note_on_c, 5, 59, 0
8, 12750, Note_on_c, 5, 59, 100
8, 12750, Note_on_c, 5, 66, 100
8, 12750, Note_on_c, 5, 64, 100
8, 12779, Note_on_c, 5, 64, 0
8, 12779, Note_on_c, 5, 66, 0
8, 12779, Note_on_c, 5, 59, 0
8, 12780, Note_on_c, 5, 59, 100
8, 12780, Note_on_c, 5, 66, 100
8, 12780, Note_on_c, 5, 64, 100
8, 12809, Note_on_c, 5, 64, 0
8, 12809, Note_on_c, 5, 66, 0
8, 12809, Note_on_c, 5, 59, 0
8, 12810, Note_on_c, 5, 59, 100
8, 12810, Note_on_c, 5, 66, 100
8, 12810, Note_on_c, 5, 64, 100
8, 12839, Note_on_c, 5, 64, 0
8, 12839, Note_on_c, 5, 66, 0
8, 12839, Note_on_c, 5, 59, 0
8, 12840, Note_on_c, 5, 59, 100
8, 12840, Note_on_c, 5, 66, 100
8, 12840, Note_on_c, 5, 64, 100
8, 12869, Note_on_c, 5, 64, 0
8, 12869, Note_on_c, 5, 66, 0
8, 12869, Note_on_c, 5, 59, 0
8, 12870, Note_on_c, 5, 59, 100
8, 12870, Note_on_c, 5, 66, 100
8, 12870, Note_on_c, 5, 64, 100
8, 12899, Note_on_c, 5, 64, 0
8, 12899, Note_on_c, 5, 66, 0
8, 12899, Note_on_c, 5, 59, 0
8, 12900, Note_on_c, 5, 59, 100
8, 12900, Note_on_c, 5, 66, 100
8, 12900, Note_on_c, 5, 64, 100
8, 12929, Note_on_c, 5, 64, 0
8, 12929, Note_on_c, 5, 66, 0
8, 12929, Note_on_c, 5, 59, 0
8, 12930, Note_on_c, 5, 59, 100
8, 12930, Note_on_c, 5, 66, 100
8, 12930, Note_on_c, 5, 64, 100
8, 12959, Note_on_c, 5, 64, 0
8, 12959, Note_on_c, 5, 66, 0
8, 12959, Note_on_c, 5, 59, 0
8, 13080, Note_on_c, 5, 63, 100
8, 13080, Note_on_c, 5, 59, 100
8, 13080, Note_on_c, 5, 66, 100
8, 13199, Note_on_c, 5, 66, 0
8, 13199, Note_on_c, 5, 59, 0
8, 13199, Note_on_c, 5, 63, 0
8, 13320, Note_on_c, 5, 61, 100
8, 13320, Note_on_c, 5, 58, 100
8, 13320, Note_on_c, 5, 66, 100
8, 13439, Note_on_c, 5, 66, 0
8, 13439, Note_on_c, 5, 58, 0
8, 13439, Note_on_c, 5, 61, 0
8, 13560, Note_on_c, 5, 59, 100
8, 13560, Note_on_c, 5, 63, 100
8, 13560, Note_on_c, 5, 66, 100
8, 13679, Note_on_c, 5, 66, 0
8, 13679, Note_on_c, 5, 63, 0
8, 13679, Note_on_c, 5, 59, 0
8, 13800, Note_on_c, 5, 63, 100
8, 13800, Note_on_c, 5, 59, 100
8, 13800, Note_on_c, 5, 66, 100
8, 13919, Note_on_c, 5, 66, 0
8, 13919, Note_on_c, 5, 59, 0
8, 13919, Note_on_c, 5, 63, 0
8, 14040, Note_on_c, 5, 59, 100
8, 14040, Note_on_c, 5, 56, 100
8, 14040, Note_on_c, 5, 64, 100
8, 14159, Note_on_c, 5, 64, 0
8, 14159, Note_on_c, 5, 56, 0
8, 14159, Note_on_c, 5, 59, 0
8, 14280, Note_on_c, 5, 56, 100
8, 14280, Note_on_c, 5, 59, 100
8, 14280, Note_on_c, 5, 64, 100
8, 14399, Note_on_c, 5, 64, 0
8, 14399, Note_on_c, 5, 59, 0
8, 14399, Note_on_c, 5, 56, 0
8, 14520, Note_on_c, 5, 56, 100
8, 14520, Note_on_c, 5, 59, 100
8, 14520, Note_on_c, 5, 63, 100
8, 14520, Note_on_c, 5, 64, 100
8, 14639, Note_on_c, 5, 64, 0
8, 14639, Note_on_c, 5, 56, 0
8, 14639, Note_on_c, 5, 59, 0
8, 14639, Note_on_c, 5, 63, 0
8, 14760, Note_on_c, 5, 61, 100
8, 14760, Note_on_c, 5, 64, 100
8, 14879, Note_on_c, 5, 64, 0
8, 14879, Note_on_c, 5, 61, 0
8, 15000, Note_on_c, 5, 63, 100
8, 15000, Note_on_c, 5, 59, 100
8, 15000, Note_on_c, 5, 66, 100
8, 15119, Note_on_c, 5, 66, 0
8, 15119, Note_on_c, 5, 59, 0
8, 15119, Note_on_c, 5, 63, 0
8, 15240, Note_on_c, 5, 61, 100
8, 15240, Note_on_c, 5, 58, 100
8, 15240, Note_on_c, 5, 66, 100
8, 15359, Note_on_c, 5, 66, 0
8, 15359, Note_on_c, 5, 58, 0
8, 15359, Note_on_c, 5, 61, 0
8, 15480, Note_on_c, 5, 59, 100
8, 15480, Note_on_c, 5, 63, 100
8, 15480, Note_on_c, 5, 66, 100
8, 15599, Note_on_c, 5, 66, 0
8, 15599, Note_on_c, 5, 63, 0
8, 15599, Note_on_c, 5, 59, 0
8, 15720, Note_on_c, 5, 63, 100
8, 15720, Note_on_c, 5, 59, 100
8, 15720, Note_on_c, 5, 66, 100
8, 15839, Note_on_c, 5, 66, 0
8, 15839, Note_on_c, 5, 59, 0
8, 15839, Note_on_c, 5, 63, 0
8, 15960, Note_on_c, 5, 59, 100
8, 15960, Note_on_c, 5, 56, 100
8, 15960, Note_on_c, 5, 64, 100
8, 16079, Note_on_c, 5, 64, 0
8, 16079, Note_on_c, 5, 56, 0
8, 16079, Note_on_c, 5, 59, 0
8, 16200, Note_on_c, 5, 56, 100
8, 16200, Note_on_c, 5, 59, 100
8, 16200, Note_on_c, 5, 64, 100
8, 16319, Note_on_c, 5, 64, 0
8, 16319, Note_on_c, 5, 59, 0
8, 16319, Note_on_c, 5, 56, 0
8, 16320, Note_on_c, 5, 61, 100
8, 16320, Note_on_c, 5, 59, 100
8, 16320, Note_on_c, 5, 54, 100
8, 16799, Note_on_c, 5, 54, 0
8, 16799, Note_on_c, 5, 59, 0
8, 16799, Note_on_c, 5, 61, 0
8, 20640, Control_c, 5, 7, 50
8, 20640, Note_on_c, 5, 66, 100
8, 20640, Note_on_c, 5, 63, 100
8, 20640, Note_on_c, 5, 59, 100
8, 20669, Note_on_c, 5, 59, 0
8, 20669, Note_on_c, 5, 63, 0
8, 20669, Note_on_c, 5, 66, 0
8, 20670, Note_on_c, 5, 66, 100
8, 20670, Note_on_c, 5, 63, 100
8, 20670, Note_on_c, 5, 59, 100
8, 20699, Note_on_c, 5, 59, 0
8, 20699, Note_on_c, 5, 63, 0
8, 20699, Note_on_c, 5, 66, 0
8, 20700, Note_on_c, 5, 66, 100
8, 20700, Note_on_c, 5, 63, 100
8, 20700, Note_on_c, 5, 59, 100
8, 20729, Note_on_c, 5, 59, 0
8, 20729, Note_on_c, 5, 63, 0
8, 20729, Note_on_c, 5, 66, 0
8, 20730, Note_on_c, 5, 66, 100
8, 20730, Note_on_c, 5, 63, 100
8, 20730, Note_on_c, 5, 59, 100
8, 20759, Note_on_c, 5, 59, 0
8, 20759, Note_on_c, 5, 63, 0
8, 20759, Note_on_c, 5, 66, 0
8, 20760, Note_on_c, 5, 66, 100
8, 20760, Note_on_c, 5, 63, 100
8, 20760, Note_on_c, 5, 59, 100
8, 20789, Note_on_c, 5, 59, 0
8, 20789, Note_on_c, 5, 63, 0
8, 20789, Note_on_c, 5, 66, 0
8, 20790, Note_on_c, 5, 66, 100
8, 20790, Note_on_c, 5, 63, 100
8, 20790, Note_on_c, 5, 59, 100
8, 20819, Note_on_c, 5, 59, 0
8, 20819, Note_on_c, 5, 63, 0
8, 20819, Note_on_c, 5, 66, 0
8, 20820, Note_on_c, 5, 66, 100
8, 20820, Note_on_c, 5, 63, 100
8, 20820, Note_on_c, 5, 59, 100
8, 20849, Note_on_c, 5, 59, 0
8, 20849, Note_on_c, 5, 63, 0
8, 20849, Note_on_c, 5, 66, 0
8, 20850, Note_on_c, 5, 66, 100
8, 20850, Note_on_c, 5, 63, 100
8, 20850, Note_on_c, 5, 59, 100
8, 20879, Note_on_c, 5, 59, 0
8, 20879, Note_on_c, 5, 63, 0
8, 20879, Note_on_c, 5, 66, 0
8, 20880, Note_on_c, 5, 66, 100
8, 20880, Note_on_c, 5, 63, 100
8, 20880, Note_on_c, 5, 59, 100
8, 20909, Note_on_c, 5, 59, 0
8, 20909, Note_on_c, 5, 63, 0
8, 20909, Note_on_c, 5, 66, 0
8, 20910, Note_on_c, 5, 66, 100
8, 20910, Note_on_c, 5, 63, 100
8, 20910, Note_on_c, 5, 59, 100
8, 20939, Note_on_c, 5, 59, 0
8, 20939, Note_on_c, 5, 63, 0
8, 20939, Note_on_c, 5, 66, 0
8, 20940, Note_on_c, 5, 66, 100
8, 20940, Note_on_c, 5, 63, 100
8, 20940, Note_on_c, 5, 59, 100
8, 20969, Note_on_c, 5, 59, 0
8, 20969, Note_on_c, 5, 63, 0
8, 20969, Note_on_c, 5, 66, 0
8, 20970, Note_on_c, 5, 66, 100
8, 20970, Note_on_c, 5, 63, 100
8, 20970, Note_on_c, 5, 59, 100
8, 20999, Note_on_c, 5, 59, 0
8, 20999, Note_on_c, 5, 63, 0
8, 20999, Note_on_c, 5, 66, 0
8, 21000, Note_on_c, 5, 66, 100
8, 21000, Note_on_c, 5, 63, 100
8, 21000, Note_on_c, 5, 59, 100
8, 21029, Note_on_c, 5, 59, 0
8, 21029, Note_on_c, 5, 63, 0
8, 21029, Note_on_c, 5, 66, 0
8, 21030, Note_on_c, 5, 66, 100
8, 21030, Note_on_c, 5, 63, 100
8, 21030, Note_on_c, 5, 59, 100
8, 21059, Note_on_c, 5, 59, 0
8, 21059, Note_on_c, 5, 63, 0
8, 21059, Note_on_c, 5, 66, 0
8, 21060, Note_on_c, 5, 66, 100
8, 21060, Note_on_c, 5, 63, 100
8, 21060, Note_on_c, 5, 59, 100
8, 21089, Note_on_c, 5, 59, 0
8, 21089, Note_on_c, 5, 63, 0
8, 21089, Note_on_c, 5, 66, 0
8, 21090, Note_on_c, 5, 66, 100
8, 21090, Note_on_c, 5, 63, 100
8, 21090, Note_on_c, 5, 59, 100
8, 21119, Note_on_c, 5, 59, 0
8, 21119, Note_on_c, 5, 63, 0
8, 21119, Note_on_c, 5, 66, 0
8, 21120, Note_on_c, 5, 59, 100
8, 21120, Note_on_c, 5, 66, 100
8, 21120, Note_on_c, 5, 64, 100
8, 21149, Note_on_c, 5, 64, 0
8, 21149, Note_on_c, 5, 66, 0
8, 21149, Note_on_c, 5, 59, 0
8, 21150, Note_on_c, 5, 59, 100
8, 21150, Note_on_c, 5, 66, 100
8, 21150, Note_on_c, 5, 64, 100
8, 21179, Note_on_c, 5, 64, 0
8, 21179, Note_on_c, 5, 66, 0
8, 21179, Note_on_c, 5, 59, 0
8, 21180, Note_on_c, 5, 59, 100
8, 21180, Note_on_c, 5, 66, 100
8, 21180, Note_on_c, 5, 64, 100
8, 21209, Note_on_c, 5, 64, 0
8, 21209, Note_on_c, 5, 66, 0
8, 21209, Note_on_c, 5, 59, 0
8, 21210, Note_on_c, 5, 59, 100
8, 21210, Note_on_c, 5, 66, 100
8, 21210, Note_on_c, 5, 64, 100
8, 21239, Note_on_c, 5, 64, 0
8, 21239, Note_on_c, 5, 66, 0
8, 21239, Note_on_c, 5, 59, 0
8, 21240, Note_on_c, 5, 59, 100
8, 21240, Note_on_c, 5, 66, 100
8, 21240, Note_on_c, 5, 64, 100
8, 21269, Note_on_c, 5, 64, 0
8, 21269, Note_on_c, 5, 66, 0
8, 21269, Note_on_c, 5, 59, 0
8, 21270, Note_on_c, 5, 59, 100
8, 21270, Note_on_c, 5, 66, 100
8, 21270, Note_on_c, 5, 64, 100
8, 21299, Note_on_c, 5, 64, 0
8, 21299, Note_on_c, 5, 66, 0
8, 21299, Note_on_c, 5, 59, 0
8, 21300, Note_on_c, 5, 59, 100
8, 21300, Note_on_c, 5, 66, 100
8, 21300, Note_on_c, 5, 64, 100
8, 21329, Note_on_c, 5, 64, 0
8, 21329, Note_on_c, 5, 66, 0
8, 21329, Note_on_c, 5, 59, 0
8, 21330, Note_on_c, 5, 59, 100
8, 21330, Note_on_c, 5, 66, 100
8, 21330, Note_on_c, 5, 64, 100
8, 21359, Note_on_c, 5, 64, 0
8, 21359, Note_on_c, 5, 66, 0
8, 21359, Note_on_c, 5, 59, 0
8, 21360, Note_on_c, 5, 59, 100
8, 21360, Note_on_c, 5, 66, 100
8, 21360, Note_on_c, 5, 64, 100
8, 21389, Note_on_c, 5, 64, 0
8, 21389, Note_on_c, 5, 66, 0
8, 21389, Note_on_c, 5, 59, 0
8, 21390, Note_on_c, 5, 59, 100
8, 21390, Note_on_c, 5, 66, 100
8, 21390, Note_on_c, 5, 64, 100
8, 21419, Note_on_c, 5, 64, 0
8, 21419, Note_on_c, 5, 66, 0
8, 21419, Note_on_c, 5, 59, 0
8, 21420, Note_on_c, 5, 59, 100
8, 21420, Note_on_c, 5, 66, 100
8, 21420, Note_on_c, 5, 64, 100
8, 21449, Note_on_c, 5, 64, 0
8, 21449, Note_on_c, 5, 66, 0
8, 21449, Note_on_c, 5, 59, 0
8, 21450, Note_on_c, 5, 59, 100
8, 21450, Note_on_c, 5, 66, 100
8, 21450, Note_on_c, 5, 64, 100
8, 21479, Note_on_c, 5, 64, 0
8, 21479, Note_on_c, 5, 66, 0
8, 21479, Note_on_c, 5, 59, 0
8, 21480, Note_on_c, 5, 59, 100
8, 21480, Note_on_c, 5, 66, 100
8, 21480, Note_on_c, 5, 64, 100
8, 21509, Note_on_c, 5, 64, 0
8, 21509, Note_on_c, 5, 66, 0
8, 21509, Note_on_c, 5, 59, 0
8, 21510, Note_on_c, 5, 59, 100
8, 21510, Note_on_c, 5, 66, 100
8, 21510, Note_on_c, 5, 64, 100
8, 21539, Note_on_c, 5, 64, 0
8, 21539, Note_on_c, 5, 66, 0
8, 21539, Note_on_c, 5, 59, 0
8, 21540, Note_on_c, 5, 59, 100
8, 21540, Note_on_c, 5, 66, 100
8, 21540, Note_on_c, 5, 64, 100
8, 21569, Note_on_c, 5, 64, 0
8, 21569, Note_on_c, 5, 66, 0
8, 21569, Note_on_c, 5, 59, 0
8, 21570, Note_on_c, 5, 59, 100
8, 21570, Note_on_c, 5, 66, 100
8, 21570, Note_on_c, 5, 64, 100
8, 21599, Note_on_c, 5, 64, 0
8, 21599, Note_on_c, 5, 66, 0
8, 21599, Note_on_c, 5, 59, 0
8, 21600, Note_on_c, 5, 59, 100
8, 21600, Note_on_c, 5, 66, 100
8, 21600, Note_on_c, 5, 64, 100
8, 21629, Note_on_c, 5, 64, 0
8, 21629, Note_on_c, 5, 66, 0
8, 21629, Note_on_c, 5, 59, 0
8, 21630, Note_on_c, 5, 59, 100
8, 21630, Note_on_c, 5, 66, 100
8, 21630, Note_on_c, 5, 64, 100
8, 21659, Note_on_c, 5, 64, 0
8, 21659, Note_on_c, 5, 66, 0
8, 21659, Note_on_c, 5, 59, 0
8, 21660, Note_on_c, 5, 59, 100
8, 21660, Note_on_c, 5, 66, 100
8, 21660, Note_on_c, 5, 64, 100
8, 21689, Note_on_c, 5, 64, 0
8, 21689, Note_on_c, 5, 66, 0
8, 21689, Note_on_c, 5, 59, 0
8, 21690, Note_on_c, 5, 59, 100
8, 21690, Note_on_c, 5, 66, 100
8, 21690, Note_on_c, 5, 64, 100
8, 21719, Note_on_c, 5, 64, 0
8, 21719, Note_on_c, 5, 66, 0
8, 21719, Note_on_c, 5, 59, 0
8, 21720, Note_on_c, 5, 59, 100
8, 21720, Note_on_c, 5, 66, 100
8, 21720, Note_on_c, 5, 64, 100
8, 21749, Note_on_c, 5, 64, 0
8, 21749, Note_on_c, 5, 66, 0
8, 21749, Note_on_c, 5, 59, 0
8, 21750, Note_on_c, 5, 59, 100
8, 21750, Note_on_c, 5, 66, 100
8, 21750, Note_on_c, 5, 64, 100
8, 21779, Note_on_c, 5, 64, 0
8, 21779, Note_on_c, 5, 66, 0
8, 21779, Note_on_c, 5, 59, 0
8, 21780, Note_on_c, 5, 59, 100
8, 21780, Note_on_c, 5, 66, 100
8, 21780, Note_on_c, 5, 64, 100
8, 21809, Note_on_c, 5, 64, 0
8, 21809, Note_on_c, 5, 66, 0
8, 21809, Note_on_c, 5, 59, 0
8, 21810, Note_on_c, 5, 59, 100
8, 21810, Note_on_c, 5, 66, 100
8, 21810, Note_on_c, 5, 64, 100
8, 21839, Note_on_c, 5, 64, 0
8, 21839, Note_on_c, 5, 66, 0
8, 21839, Note_on_c, 5, 59, 0
8, 21840, Note_on_c, 5, 59, 100
8, 21840, Note_on_c, 5, 66, 100
8, 21840, Note_on_c, 5, 64, 100
8, 21869, Note_on_c, 5, 64, 0
8, 21869, Note_on_c, 5, 66, 0
8, 21869, Note_on_c, 5, 59, 0
8, 21870, Note_on_c, 5, 59, 100
8, 21870, Note_on_c, 5, 66, 100
8, 21870, Note_on_c, 5, 64, 100
8, 21899, Note_on_c, 5, 64, 0
8, 21899, Note_on_c, 5, 66, 0
8, 21899, Note_on_c, 5, 59, 0
8, 21900, Note_on_c, 5, 59, 100
8, 21900, Note_on_c, 5, 66, 100
8, 21900, Note_on_c, 5, 64, 100
8, 21929, Note_on_c, 5, 64, 0
8, 21929, Note_on_c, 5, 66, 0
8, 21929, Note_on_c, 5, 59, 0
8, 21930, Note_on_c, 5, 59, 100
8, 21930, Note_on_c, 5, 66, 100
8, 21930, Note_on_c, 5, 64, 100
8, 21959, Note_on_c, 5, 64, 0
8, 21959, Note_on_c, 5, 66, 0
8, 21959, Note_on_c, 5, 59, 0
8, 21960, Note_on_c, 5, 59, 100
8, 21960, Note_on_c, 5, 66, 100
8, 21960, Note_on_c, 5, 64, 100
8, 21989, Note_on_c, 5, 64, 0
8, 21989, Note_on_c, 5, 66, 0
8, 21989, Note_on_c, 5, 59, 0
8, 21990, Note_on_c, 5, 59, 100
8, 21990, Note_on_c, 5, 66, 100
8, 21990, Note_on_c, 5, 64, 100
8, 22019, Note_on_c, 5, 64, 0
8, 22019, Note_on_c, 5, 66, 0
8, 22019, Note_on_c, 5, 59, 0
8, 22020, Note_on_c, 5, 59, 100
8, 22020, Note_on_c, 5, 66, 100
8, 22020, Note_on_c, 5, 64, 100
8, 22049, Note_on_c, 5, 64, 0
8, 22049, Note_on_c, 5, 66, 0
8, 22049, Note_on_c, 5, 59, 0
8, 22050, Note_on_c, 5, 59, 100
8, 22050, Note_on_c, 5, 66, 100
8, 22050, Note_on_c, 5, 64, 100
8, 22079, Note_on_c, 5, 64, 0
8, 22079, Note_on_c, 5, 66, 0
8, 22079, Note_on_c, 5, 59, 0
8, 22080, Note_on_c, 5, 61, 100
8, 22080, Note_on_c, 5, 57, 100
8, 22080, Note_on_c, 5, 66, 100
8, 22109, Note_on_c, 5, 66, 0
8, 22109, Note_on_c, 5, 57, 0
8, 22109, Note_on_c, 5, 61, 0
8, 22110, Note_on_c, 5, 61, 100
8, 22110, Note_on_c, 5, 57, 100
8, 22110, Note_on_c, 5, 66, 100
8, 22139, Note_on_c, 5, 66, 0
8, 22139, Note_on_c, 5, 57, 0
8, 22139, Note_on_c, 5, 61, 0
8, 22140, Note_on_c, 5, 61, 100
8, 22140, Note_on_c, 5, 57, 100
8, 22140, Note_on_c, 5, 66, 100
8, 22169, Note_on_c, 5, 66, 0
8, 22169, Note_on_c, 5, 57, 0
8, 22169, Note_on_c, 5, 61, 0
8, 22170, Note_on_c, 5, 61, 100
8, 22170, Note_on_c, 5, 57, 100
8, 22170, Note_on_c, 5, 66, 100
8, 22199, Note_on_c, 5, 66, 0
8, 22199, Note_on_c, 5, 57, 0
8, 22199, Note_on_c, 5, 61, 0
8, 22200, Note_on_c, 5, 61, 100
8, 22200, Note_on_c, 5, 57, 100
8, 22200, Note_on_c, 5, 66, 100
8, 22229, Note_on_c, 5, 66, 0
8, 22229, Note_on_c, 5, 57, 0
8, 22229, Note_on_c, 5, 61, 0
8, 22230, Note_on_c, 5, 61, 100
8, 22230, Note_on_c, 5, 57, 100
8, 22230, Note_on_c, 5, 66, 100
8, 22259, Note_on_c, 5, 66, 0
8, 22259, Note_on_c, 5, 57, 0
8, 22259, Note_on_c, 5, 61, 0
8, 22260, Note_on_c, 5, 59, 100
8, 22260, Note_on_c, 5, 64, 100
8, 22260, Note_on_c, 5, 66, 100
8, 22289, Note_on_c, 5, 66, 0
8, 22289, Note_on_c, 5, 64, 0
8, 22289, Note_on_c, 5, 59, 0
8, 22290, Note_on_c, 5, 59, 100
8, 22290, Note_on_c, 5, 64, 100
8, 22290, Note_on_c, 5, 66, 100
8, 22319, Note_on_c, 5, 66, 0
8, 22319, Note_on_c, 5, 64, 0
8, 22319, Note_on_c, 5, 59, 0
8, 22320, Note_on_c, 5, 59, 100
8, 22320, Note_on_c, 5, 66, 100
8, 22320, Note_on_c, 5, 64, 100
8, 22349, Note_on_c, 5, 64, 0
8, 22349, Note_on_c, 5, 66, 0
8, 22349, Note_on_c, 5, 59, 0
8, 22350, Note_on_c, 5, 59, 100
8, 22350, Note_on_c, 5, 66, 100
8, 22350, Note_on_c, 5, 64, 100
8, 22379, Note_on_c, 5, 64, 0
8, 22379, Note_on_c, 5, 66, 0
8, 22379, Note_on_c, 5, 59, 0
8, 22380, Note_on_c, 5, 59, 100
8, 22380, Note_on_c, 5, 66, 100
8, 22380, Note_on_c, 5, 64, 100
8, 22409, Note_on_c, 5, 64, 0
8, 22409, Note_on_c, 5, 66, 0
8, 22409, Note_on_c, 5, 59, 0
8, 22410, Note_on_c, 5, 59, 100
8, 22410, Note_on_c, 5, 66, 100
8, 22410, Note_on_c, 5, 64, 100
8, 22439, Note_on_c, 5, 64, 0
8, 22439, Note_on_c, 5, 66, 0
8, 22439, Note_on_c, 5, 59, 0
8, 22440, Note_on_c, 5, 59, 100
8, 22440, Note_on_c, 5, 66, 100
8, 22440, Note_on_c, 5, 64, 100
8, 22469, Note_on_c, 5, 64, 0
8, 22469, Note_on_c, 5, 66, 0
8, 22469, Note_on_c, 5, 59, 0
8, 22470, Note_on_c, 5, 59, 100
8, 22470, Note_on_c, 5, 66, 100
8, 22470, Note_on_c, 5, 64, 100
8, 22499, Note_on_c, 5, 64, 0
8, 22499, Note_on_c, 5, 66, 0
8, 22499, Note_on_c, 5, 59, 0
8, 22500, Note_on_c, 5, 59, 100
8, 22500, Note_on_c, 5, 66, 100
8, 22500, Note_on_c, 5, 64, 100
8, 22529, Note_on_c, 5, 64, 0
8, 22529, Note_on_c, 5, 66, 0
8, 22529, Note_on_c, 5, 59, 0
8, 22530, Note_on_c, 5, 59, 100
8, 22530, Note_on_c, 5, 66, 100
8, 22530, Note_on_c, 5, 64, 100
8, 22559, Note_on_c, 5, 64, 0
8, 22559, Note_on_c, 5, 66, 0
8, 22559, Note_on_c, 5, 59, 0
8, 22560, Control_c, 5, 7, 50
8, 22560, Note_on_c, 5, 66, 100
8, 22560, Note_on_c, 5, 63, 100
8, 22560, Note_on_c, 5, 59, 100
8, 22589, Note_on_c, 5, 59, 0
8, 22589, Note_on_c, 5, 63, 0
8, 22589, Note_on_c, 5, 66, 0
8, 22590, Note_on_c, 5, 66, 100
8, 22590, Note_on_c, 5, 63, 100
8, 22590, Note_on_c, 5, 59, 100
8, 22619, Note_on_c, 5, 59, 0
8, 22619, Note_on_c, 5, 63, 0
8, 22619, Note_on_c, 5, 66, 0
8, 22620, Note_on_c, 5, 66, 100
8, 22620, Note_on_c, 5, 63, 100
8, 22620, Note_on_c, 5, 59, 100
8, 22649, Note_on_c, 5, 59, 0
8, 22649, Note_on_c, 5, 63, 0
8, 22649, Note_on_c, 5, 66, 0
8, 22650, Note_on_c, 5, 66, 100
8, 22650, Note_on_c, 5, 63, 100
8, 22650, Note_on_c, 5, 59, 100
8, 22679, Note_on_c, 5, 59, 0
8, 22679, Note_on_c, 5, 63, 0
8, 22679, Note_on_c, 5, 66, 0
8, 22680, Note_on_c, 5, 66, 100
8, 22680, Note_on_c, 5, 63, 100
8, 22680, Note_on_c, 5, 59, 100
8, 22709, Note_on_c, 5, 59, 0
8, 22709, Note_on_c, 5, 63, 0
8, 22709, Note_on_c, 5, 66, 0
8, 22710, Note_on_c, 5, 66, 100
8, 22710, Note_on_c, 5, 63, 100
8, 22710, Note_on_c, 5, 59, 100
8, 22739, Note_on_c, 5, 59, 0
8, 22739, Note_on_c, 5, 63, 0
8, 22739, Note_on_c, 5, 66, 0
8, 22740, Note_on_c, 5, 66, 100
8, 22740, Note_on_c, 5, 63, 100
8, 22740, Note_on_c, 5, 59, 100
8, 22769, Note_on_c, 5, 59, 0
8, 22769, Note_on_c, 5, 63, 0
8, 22769, Note_on_c, 5, 66, 0
8, 22770, Note_on_c, 5, 66, 100
8, 22770, Note_on_c, 5, 63, 100
8, 22770, Note_on_c, 5, 59, 100
8, 22799, Note_on_c, 5, 59, 0
8, 22799, Note_on_c, 5, 63, 0
8, 22799, Note_on_c, 5, 66, 0
8, 22800, Note_on_c, 5, 66, 100
8, 22800, Note_on_c, 5, 63, 100
8, 22800, Note_on_c, 5, 59, 100
8, 22829, Note_on_c, 5, 59, 0
8, 22829, Note_on_c, 5, 63, 0
8, 22829, Note_on_c, 5, 66, 0
8, 22830, Note_on_c, 5, 66, 100
8, 22830, Note_on_c, 5, 63, 100
8, 22830, Note_on_c, 5, 59, 100
8, 22859, Note_on_c, 5, 59, 0
8, 22859, Note_on_c, 5, 63, 0
8, 22859, Note_on_c, 5, 66, 0
8, 22860, Note_on_c, 5, 66, 100
8, 22860, Note_on_c, 5, 63, 100
8, 22860, Note_on_c, 5, 59, 100
8, 22889, Note_on_c, 5, 59, 0
8, 22889, Note_on_c, 5, 63, 0
8, 22889, Note_on_c, 5, 66, 0
8, 22890, Note_on_c, 5, 66, 100
8, 22890, Note_on_c, 5, 63, 100
8, 22890, Note_on_c, 5, 59, 100
8, 22919, Note_on_c, 5, 59, 0
8, 22919, Note_on_c, 5, 63, 0
8, 22919, Note_on_c, 5, 66, 0
8, 22920, Note_on_c, 5, 66, 100
8, 22920, Note_on_c, 5, 63, 100
8, 22920, Note_on_c, 5, 59, 100
8, 22949, Note_on_c, 5, 59, 0
8, 22949, Note_on_c, 5, 63, 0
8, 22949, Note_on_c, 5, 66, 0
8, 22950, Note_on_c, 5, 66, 100
8, 22950, Note_on_c, 5, 63, 100
8, 22950, Note_on_c, 5, 59, 100
8, 22979, Note_on_c, 5, 59, 0
8, 22979, Note_on_c, 5, 63, 0
8, 22979, Note_on_c, 5, 66, 0
8, 22980, Note_on_c, 5, 66, 100
8, 22980, Note_on_c, 5, 63, 100
8, 22980, Note_on_c, 5, 59, 100
8, 23009, Note_on_c, 5, 59, 0
8, 23009, Note_on_c, 5, 63, 0
8, 23009, Note_on_c, 5, 66, 0
8, 23010, Note_on_c, 5, 66, 100
8, 23010, Note_on_c, 5, 63, 100
8, 23010, Note_on_c, 5, 59, 100
8, 23039, Note_on_c, 5, 59, 0
8, 23039, Note_on_c, 5, 63, 0
8, 23039, Note_on_c, 5, 66, 0
8, 23040, Note_on_c, 5, 59, 100
8, 23040, Note_on_c, 5, 66, 100
8, 23040, Note_on_c, 5, 64, 100
8, 23069, Note_on_c, 5, 64, 0
8, 23069, Note_on_c, 5, 66, 0
8, 23069, Note_on_c, 5, 59, 0
8, 23070, Note_on_c, 5, 59, 100
8, 23070, Note_on_c, 5, 66, 100
8, 23070, Note_on_c, 5, 64, 100
8, 23099, Note_on_c, 5, 64, 0
8, 23099, Note_on_c, 5, 66, 0
8, 23099, Note_on_c, 5, 59, 0
8, 23100, Note_on_c, 5, 59, 100
8, 23100, Note_on_c, 5, 66, 100
8, 23100, Note_on_c, 5, 64, 100
8, 23129, Note_on_c, 5, 64, 0
8, 23129, Note_on_c, 5, 66, 0
8, 23129, Note_on_c, 5, 59, 0
8, 23130, Note_on_c, 5, 59, 100
8, 23130, Note_on_c, 5, 66, 100
8, 23130, Note_on_c, 5, 64, 100
8, 23159, Note_on_c, 5, 64, 0
8, 23159, Note_on_c, 5, 66, 0
8, 23159, Note_on_c, 5, 59, 0
8, 23160, Note_on_c, 5, 59, 100
8, 23160, Note_on_c, 5, 66, 100
8, 23160, Note_on_c, 5, 64, 100
8, 23189, Note_on_c, 5, 64, 0
8, 23189, Note_on_c, 5, 66, 0
8, 23189, Note_on_c, 5, 59, 0
8, 23190, Note_on_c, 5, 59, 100
8, 23190, Note_on_c, 5, 66, 100
8, 23190, Note_on_c, 5, 64, 100
8, 23219, Note_on_c, 5, 64, 0
8, 23219, Note_on_c, 5, 66, 0
8, 23219, Note_on_c, 5, 59, 0
8, 23220, Note_on_c, 5, 59, 100
8, 23220, Note_on_c, 5, 66, 100
8, 23220, Note_on_c, 5, 64, 100
8, 23249, Note_on_c, 5, 64, 0
8, 23249, Note_on_c, 5, 66, 0
8, 23249, Note_on_c, 5, 59, 0
8, 23250, Note_on_c, 5, 59, 100
8, 23250, Note_on_c, 5, 66, 100
8, 23250, Note_on_c, 5, 64, 100
8, 23279, Note_on_c, 5, 64, 0
8, 23279, Note_on_c, 5, 66, 0
8, 23279, Note_on_c, 5, 59, 0
8, 23280, Note_on_c, 5, 59, 100
8, 23280, Note_on_c, 5, 66, 100
8, 23280, Note_on_c, 5, 64, 100
8, 23309, Note_on_c, 5, 64, 0
8, 23309, Note_on_c, 5, 66, 0
8, 23309, Note_on_c, 5, 59, 0
8, 23310, Note_on_c, 5, 59, 100
8, 23310, Note_on_c, 5, 66, 100
8, 23310, Note_on_c, 5, 64, 100
8, 23339, Note_on_c, 5, 64, 0
8, 23339, Note_on_c, 5, 66, 0
8, 23339, Note_on_c, 5, 59, 0
8, 23340, Note_on_c, 5, 59, 100
8, 23340, Note_on_c, 5, 66, 100
8, 23340, Note_on_c, 5, 64, 100
8, 23369, Note_on_c, 5, 64, 0
8, 23369, Note_on_c, 5, 66, 0
8, 23369, Note_on_c, 5, 59, 0
8, 23370, Note_on_c, 5, 59, 100
8, 23370, Note_on_c, 5, 66, 100
8, 23370, Note_on_c, 5, 64, 100
8, 23399, Note_on_c, 5, 64, 0
8, 23399, Note_on_c, 5, 66, 0
8, 23399, Note_on_c, 5, 59, 0
8, 23400, Note_on_c, 5, 59, 100
8, 23400, Note_on_c, 5, 66, 100
8, 23400, Note_on_c, 5, 64, 100
8, 23429, Note_on_c, 5, 64, 0
8, 23429, Note_on_c, 5, 66, 0
8, 23429, Note_on_c, 5, 59, 0
8, 23430, Note_on_c, 5, 59, 100
8, 23430, Note_on_c, 5, 66, 100
8, 23430, Note_on_c, 5, 64, 100
8, 23459, Note_on_c, 5, 64, 0
8, 23459, Note_on_c, 5, 66, 0
8, 23459, Note_on_c, 5, 59, 0
8, 23460, Note_on_c, 5, 59, 100
8, 23460, Note_on_c, 5, 66, 100
8, 23460, Note_on_c, 5, 64, 100
8, 23489, Note_on_c, 5, 64, 0
8, 23489, Note_on_c, 5, 66, 0
8, 23489, Note_on_c, 5, 59, 0
8, 23490, Note_on_c, 5, 59, 100
8, 23490, Note_on_c, 5, 66, 100
8, 23490, Note_on_c, 5, 64, 100
8, 23519, Note_on_c, 5, 64, 0
8, 23519, Note_on_c, 5, 66, 0
8, 23519, Note_on_c, 5, 59, 0
8, 23520, Note_on_c, 5, 59, 100
8, 23520, Note_on_c, 5, 66, 100
8, 23520, Note_on_c, 5, 64, 100
8, 23549, Note_on_c, 5, 64, 0
8, 23549, Note_on_c, 5, 66, 0
8, 23549, Note_on_c, 5, 59, 0
8, 23550, Note_on_c, 5, 59, 100
8, 23550, Note_on_c, 5, 66, 100
8, 23550, Note_on_c, 5, 64, 100
8, 23579, Note_on_c, 5, 64, 0
8, 23579, Note_on_c, 5, 66, 0
8, 23579, Note_on_c, 5, 59, 0
8, 23580, Note_on_c, 5, 59, 100
8, 23580, Note_on_c, 5, 66, 100
8, 23580, Note_on_c, 5, 64, 100
8, 23609, Note_on_c, 5, 64, 0
8, 23609, Note_on_c, 5, 66, 0
8, 23609, Note_on_c, 5, 59, 0
8, 23610, Note_on_c, 5, 59, 100
8, 23610, Note_on_c, 5, 66, 100
8, 23610, Note_on_c, 5, 64, 100
8, 23639, Note_on_c, 5, 64, 0
8, 23639, Note_on_c, 5, 66, 0
8, 23639, Note_on_c, 5, 59, 0
8, 23640, Note_on_c, 5, 59, 100
8, 23640, Note_on_c, 5, 66, 100
8, 23640, Note_on_c, 5, 64, 100
8, 23669, Note_on_c, 5, 64, 0
8, 23669, Note_on_c, 5, 66, 0
8, 23669, Note_on_c, 5, 59, 0
8, 23670, Note_on_c, 5, 59, 100
8, 23670, Note_on_c, 5, 66, 100
8, 23670, Note_on_c, 5, 64, 100
8, 23699, Note_on_c, 5, 64, 0
8, 23699, Note_on_c, 5, 66, 0
8, 23699, Note_on_c, 5, 59, 0
8, 23700, Note_on_c, 5, 59, 100
8, 23700, Note_on_c, 5, 66, 100
8, 23700, Note_on_c, 5, 64, 100
8, 23729, Note_on_c, 5, 64, 0
8, 23729, Note_on_c, 5, 66, 0
8, 23729, Note_on_c, 5, 59, 0
8, 23730, Note_on_c, 5, 59, 100
8, 23730, Note_on_c, 5, 66, 100
8, 23730, Note_on_c, 5, 64, 100
8, 23759, Note_on_c, 5, 64, 0
8, 23759, Note_on_c, 5, 66, 0
8, 23759, Note_on_c, 5, 59, 0
8, 23760, Note_on_c, 5, 59, 100
8, 23760, Note_on_c, 5, 66, 100
8, 23760, Note_on_c, 5, 64, 100
8, 23789, Note_on_c, 5, 64, 0
8, 23789, Note_on_c, 5, 66, 0
8, 23789, Note_on_c, 5, 59, 0
8, 23790, Note_on_c, 5, 59, 100
8, 23790, Note_on_c, 5, 66, 100
8, 23790, Note_on_c, 5, 64, 100
8, 23819, Note_on_c, 5, 64, 0
8, 23819, Note_on_c, 5, 66, 0
8, 23819, Note_on_c, 5, 59, 0
8, 23820, Note_on_c, 5, 59, 100
8, 23820, Note_on_c, 5, 66, 100
8, 23820, Note_on_c, 5, 64, 100
8, 23849, Note_on_c, 5, 64, 0
8, 23849, Note_on_c, 5, 66, 0
8, 23849, Note_on_c, 5, 59, 0
8, 23850, Note_on_c, 5, 59, 100
8, 23850, Note_on_c, 5, 66, 100
8, 23850, Note_on_c, 5, 64, 100
8, 23879, Note_on_c, 5, 64, 0
8, 23879, Note_on_c, 5, 66, 0
8, 23879, Note_on_c, 5, 59, 0
8, 23880, Note_on_c, 5, 59, 100
8, 23880, Note_on_c, 5, 66, 100
8, 23880, Note_on_c, 5, 64, 100
8, 23909, Note_on_c, 5, 64, 0
8, 23909, Note_on_c, 5, 66, 0
8, 23909, Note_on_c, 5, 59, 0
8, 23910, Note_on_c, 5, 59, 100
8, 23910, Note_on_c, 5, 66, 100
8, 23910, Note_on_c, 5, 64, 100
8, 23939, Note_on_c, 5, 64, 0
8, 23939, Note_on_c, 5, 66, 0
8, 23939, Note_on_c, 5, 59, 0
8, 23940, Note_on_c, 5, 59, 100
8, 23940, Note_on_c, 5, 66, 100
8, 23940, Note_on_c, 5, 64, 100
8, 23969, Note_on_c, 5, 64, 0
8, 23969, Note_on_c, 5, 66, 0
8, 23969, Note_on_c, 5, 59, 0
8, 23970, Note_on_c, 5, 59, 100
8, 23970, Note_on_c, 5, 66, 100
8, 23970, Note_on_c, 5, 64, 100
8, 23999, Note_on_c, 5, 64, 0
8, 23999, Note_on_c, 5, 66, 0
8, 23999, Note_on_c, 5, 59, 0
8, 24000, Note_on_c, 5, 61, 100
8, 24000, Note_on_c, 5, 57, 100
8, 24000, Note_on_c, 5, 66, 100
8, 24029, Note_on_c, 5, 66, 0
8, 24029, Note_on_c, 5, 57, 0
8, 24029, Note_on_c, 5, 61, 0
8, 24030, Note_on_c, 5, 61, 100
8, 24030, Note_on_c, 5, 57, 100
8, 24030, Note_on_c, 5, 66, 100
8, 24059, Note_on_c, 5, 66, 0
8, 24059, Note_on_c, 5, 57, 0
8, 24059, Note_on_c, 5, 61, 0
8, 24060, Note_on_c, 5, 61, 100
8, 24060, Note_on_c, 5, 57, 100
8, 24060, Note_on_c, 5, 66, 100
8, 24089, Note_on_c, 5, 66, 0
8, 24089, Note_on_c, 5, 57, 0
8, 24089, Note_on_c, 5, 61, 0
8, 24090, Note_on_c, 5, 61, 100
8, 24090, Note_on_c, 5, 57, 100
8, 24090, Note_on_c, 5, 66, 100
8, 24119, Note_on_c, 5, 66, 0
8, 24119, Note_on_c, 5, 57, 0
8, 24119, Note_on_c, 5, 61, 0
8, 24120, Note_on_c, 5, 61, 100
8, 24120, Note_on_c, 5, 57, 100
8, 24120, Note_on_c, 5, 66, 100
8, 24149, Note_on_c, 5, 66, 0
8, 24149, Note_on_c, 5, 57, 0
8, 24149, Note_on_c, 5, 61, 0
8, 24150, Note_on_c, 5, 61, 100
8, 24150, Note_on_c, 5, 57, 100
8, 24150, Note_on_c, 5, 66, 100
8, 24179, Note_on_c, 5, 66, 0
8, 24179, Note_on_c, 5, 57, 0
8, 24179, Note_on_c, 5, 61, 0
8, 24180, Note_on_c, 5, 59, 100
8, 24180, Note_on_c, 5, 64, 100
8, 24180, Note_on_c, 5, 66, 100
8, 24209, Note_on_c, 5, 66, 0
8, 24209, Note_on_c, 5, 64, 0
8, 24209, Note_on_c, 5, 59, 0
8, 24210, Note_on_c, 5, 59, 100
8, 24210, Note_on_c, 5, 64, 100
8, 24210, Note_on_c, 5, 66, 100
8, 24239, Note_on_c, 5, 66, 0
8, 24239, Note_on_c, 5, 64, 0
8, 24239, Note_on_c, 5, 59, 0
8, 24240, Note_on_c, 5, 59, 100
8, 24240, Note_on_c, 5, 66, 100
8, 24240, Note_on_c, 5, 64, 100
8, 24269, Note_on_c, 5, 64, 0
8, 24269, Note_on_c, 5, 66, 0
8, 24269, Note_on_c, 5, 59, 0
8, 24270, Note_on_c, 5, 59, 100
8, 24270, Note_on_c, 5, 66, 100
8, 24270, Note_on_c, 5, 64, 100
8, 24299, Note_on_c, 5, 64, 0
8, 24299, Note_on_c, 5, 66, 0
8, 24299, Note_on_c, 5, 59, 0
8, 24300, Note_on_c, 5, 59, 100
8, 24300, Note_on_c, 5, 66, 100
8, 24300, Note_on_c, 5, 64, 100
8, 24329, Note_on_c, 5, 64, 0
8, 24329, Note_on_c, 5, 66, 0
8, 24329, Note_on_c, 5, 59, 0
8, 24330, Note_on_c, 5, 59, 100
8, 24330, Note_on_c, 5, 66, 100
8, 24330, Note_on_c, 5, 64, 100
8, 24359, Note_on_c, 5, 64, 0
8, 24359, Note_on_c, 5, 66, 0
8, 24359, Note_on_c, 5, 59, 0
8, 24360, Note_on_c, 5, 59, 100
8, 24360, Note_on_c, 5, 66, 100
8, 24360, Note_on_c, 5, 64, 100
8, 24389, Note_on_c, 5, 64, 0
8, 24389, Note_on_c, 5, 66, 0
8, 24389, Note_on_c, 5, 59, 0
8, 24390, Note_on_c, 5, 59, 100
8, 24390, Note_on_c, 5, 66, 100
8, 24390, Note_on_c, 5, 64, 100
8, 24419, Note_on_c, 5, 64, 0
8, 24419, Note_on_c, 5, 66, 0
8, 24419, Note_on_c, 5, 59, 0
8, 24420, Note_on_c, 5, 59, 100
8, 24420, Note_on_c, 5, 66, 100
8, 24420, Note_on_c, 5, 64, 100
8, 24449, Note_on_c, 5, 64, 0
8, 24449, Note_on_c, 5, 66, 0
8, 24449, Note_on_c, 5, 59, 0
8, 24450, Note_on_c, 5, 59, 100
8, 24450, Note_on_c, 5, 66, 100
8, 24450, Note_on_c, 5, 64, 100
8, 24479, Note_on_c, 5, 64, 0
8, 24479, Note_on_c, 5, 66, 0
8, 24479, Note_on_c, 5, 59, 0
8, 24600, Note_on_c, 5, 63, 100
8, 24600, Note_on_c, 5, 59, 100
8, 24600, Note_on_c, 5, 66, 100
8, 24719, Note_on_c, 5, 66, 0
8, 24719, Note_on_c, 5, 59, 0
8, 24719, Note_on_c, 5, 63, 0
8, 24840, Note_on_c, 5, 61, 100
8, 24840, Note_on_c, 5, 58, 100
8, 24840, Note_on_c, 5, 66, 100
8, 24959, Note_on_c, 5, 66, 0
8, 24959, Note_on_c, 5, 58, 0
8, 24959, Note_on_c, 5, 61, 0
8, 25080, Note_on_c, 5, 59, 100
8, 25080, Note_on_c, 5, 63, 100
8, 25080, Note_on_c, 5, 66, 100
8, 25199, Note_on_c, 5, 66, 0
8, 25199, Note_on_c, 5, 63, 0
8, 25199, Note_on_c, 5, 59, 0
8, 25320, Note_on_c, 5, 63, 100
8, 25320, Note_on_c, 5, 59, 100
8, 25320, Note_on_c, 5, 66, 100
8, 25439, Note_on_c, 5, 66, 0
8, 25439, Note_on_c, 5, 59, 0
8, 25439, Note_on_c, 5, 63, 0
8, 25560, Note_on_c, 5, 59, 100
8, 25560, Note_on_c, 5, 56, 100
8, 25560, Note_on_c, 5, 64, 100
8, 25679, Note_on_c, 5, 64, 0
8, 25679, Note_on_c, 5, 56, 0
8, 25679, Note_on_c, 5, 59, 0
8, 25800, Note_on_c, 5, 56, 100
8, 25800, Note_on_c, 5, 59, 100
8, 25800, Note_on_c, 5, 64, 100
8, 25919, Note_on_c, 5, 64, 0
8, 25919, Note_on_c, 5, 59, 0
8, 25919, Note_on_c, 5, 56, 0
8, 26040, Note_on_c, 5, 56, 100
8, 26040, Note_on_c, 5, 59, 100
8, 26040, Note_on_c, 5, 63, 100
8, 26040, Note_on_c, 5, 64, 100
8, 26159, Note_on_c, 5, 64, 0
8, 26159, Note_on_c, 5, 56, 0
8, 26159, Note_on_c, 5, 59, 0
8, 26159, Note_on_c, 5, 63, 0
8, 26280, Note_on_c, 5, 61, 100
8, 26280, Note_on_c, 5, 64, 100
8, 26399, Note_on_c, 5, 64, 0
8, 26399, Note_on_c, 5, 61, 0
8, 26520, Note_on_c, 5, 63, 100
8, 26520, Note_on_c, 5, 59, 100
8, 26520, Note_on_c, 5, 66, 100
8, 26639, Note_on_c, 5, 66, 0
8, 26639, Note_on_c, 5, 59, 0
8, 26639, Note_on_c, 5, 63, 0
8, 26760, Note_on_c, 5, 61, 100
8, 26760, Note_on_c, 5, 58, 100
8, 26760, Note_on_c, 5, 66, 100
8, 26879, Note_on_c, 5, 66, 0
8, 26879, Note_on_c, 5, 58, 0
8, 26879, Note_on_c, 5, 61, 0
8, 27000, Note_on_c, 5, 59, 100
8, 27000, Note_on_c, 5, 63, 100
8, 27000, Note_on_c, 5, 66, 100
8, 27119, Note_on_c, 5, 66, 0
8, 27119, Note_on_c, 5, 63, 0
8, 27119, Note_on_c, 5, 59, 0
8, 27240, Note_on_c, 5, 63, 100
8, 27240, Note_on_c, 5, 59, 100
8, 27240, Note_on_c, 5, 66, 100
8, 27359, Note_on_c, 5, 66, 0
8, 27359, Note_on_c, 5, 59, 0
8, 27359, Note_on_c, 5, 63, 0
8, 27480, Note_on_c, 5, 59, 100
8, 27480, Note_on_c, 5, 56, 100
8, 27480, Note_on_c, 5, 64, 100
8, 27599, Note_on_c, 5, 64, 0
8, 27599, Note_on_c, 5, 56, 0
8, 27599, Note_on_c, 5, 59, 0
8, 27720, Note_on_c, 5, 56, 100
8, 27720, Note_on_c, 5, 59, 100
8, 27720, Note_on_c, 5, 64, 100
8, 27839, Note_on_c, 5, 64, 0
8, 27839, Note_on_c, 5, 59, 0
8, 27839, Note_on_c, 5, 56, 0
8, 27840, Note_on_c, 5, 61, 100
8, 27840, Note_on_c, 5, 59, 100
8, 27840, Note_on_c, 5, 54, 100
8, 28319, Note_on_c, 5, 54, 0
8, 28319, Note_on_c, 5, 59, 0
8, 28319, Note_on_c, 5, 61, 0
8, 39960, Note_on_c, 5, 63, 100
8, 39960, Note_on_c, 5, 59, 100
8, 39960, Note_on_c, 5, 66, 100
8, 40079, Note_on_c, 5, 66, 0
8, 40079, Note_on_c, 5, 59, 0
8, 40079, Note_on_c, 5, 63, 0
8, 40200, Note_on_c, 5, 61, 100
8, 40200, Note_on_c, 5, 58, 100
8, 40200, Note_on_c, 5, 66, 100
8, 40319, Note_on_c, 5, 66, 0
8, 40319, Note_on_c, 5, 58, 0
8, 40319, Note_on_c, 5, 61, 0
8, 40440, Note_on_c, 5, 59, 100
8, 40440, Note_on_c, 5, 63, 100
8, 40440, Note_on_c, 5, 66, 100
8, 40559, Note_on_c, 5, 66, 0
8, 40559, Note_on_c, 5, 63, 0
8, 40559, Note_on_c, 5, 59, 0
8, 40680, Note_on_c, 5, 63, 100
8, 40680, Note_on_c, 5, 59, 100
8, 40680, Note_on_c, 5, 66, 100
8, 40799, Note_on_c, 5, 66, 0
8, 40799, Note_on_c, 5, 59, 0
8, 40799, Note_on_c, 5, 63, 0
8, 40920, Note_on_c, 5, 59, 100
8, 40920, Note_on_c, 5, 56, 100
8, 40920, Note_on_c, 5, 64, 100
8, 41039, Note_on_c, 5, 64, 0
8, 41039, Note_on_c, 5, 56, 0
8, 41039, Note_on_c, 5, 59, 0
8, 41160, Note_on_c, 5, 56, 100
8, 41160, Note_on_c, 5, 59, 100
8, 41160, Note_on_c, 5, 64, 100
8, 41279, Note_on_c, 5, 64, 0
8, 41279, Note_on_c, 5, 59, 0
8, 41279, Note_on_c, 5, 56, 0
8, 41400, Note_on_c, 5, 56, 100
8, 41400, Note_on_c, 5, 59, 100
8, 41400, Note_on_c, 5, 63, 100
8, 41400, Note_on_c, 5, 64, 100
8, 41519, Note_on_c, 5, 64, 0
8, 41519, Note_on_c, 5, 56, 0
8, 41519, Note_on_c, 5, 59, 0
8, 41519, Note_on_c, 5, 63, 0
8, 41640, Note_on_c, 5, 61, 100
8, 41640, Note_on_c, 5, 64, 100
8, 41759, Note_on_c, 5, 64, 0
8, 41759, Note_on_c, 5, 61, 0
8, 41880, Note_on_c, 5, 63, 100
8, 41880, Note_on_c, 5, 59, 100
8, 41880, Note_on_c, 5, 66, 100
8, 41999, Note_on_c, 5, 66, 0
8, 41999, Note_on_c, 5, 59, 0
8, 41999, Note_on_c, 5, 63, 0
8, 42120, Note_on_c, 5, 61, 100
8, 42120, Note_on_c, 5, 58, 100
8, 42120, Note_on_c, 5, 66, 100
8, 42239, Note_on_c, 5, 66, 0
8, 42239, Note_on_c, 5, 58, 0
8, 42239, Note_on_c, 5, 61, 0
8, 42360, Note_on_c, 5, 59, 100
8, 42360, Note_on_c, 5, 63, 100
8, 42360, Note_on_c, 5, 66, 100
8, 42479, Note_on_c, 5, 66, 0
8, 42479, Note_on_c, 5, 63, 0
8, 42479, Note_on_c, 5, 59, 0
8, 42600, Note_on_c, 5, 63, 100
8, 42600, Note_on_c, 5, 59, 100
8, 42600, Note_on_c, 5, 66, 100
8, 42719, Note_on_c, 5, 66, 0
8, 42719, Note_on_c, 5, 59, 0
8, 42719, Note_on_c, 5, 63, 0
8, 42840, Note_on_c, 5, 59, 100
8, 42840, Note_on_c, 5, 56, 100
8, 42840, Note_on_c, 5, 64, 100
8, 42959, Note_on_c, 5, 64, 0
8, 42959, Note_on_c, 5, 56, 0
8, 42959, Note_on_c, 5, 59, 0
8, 43080, Note_on_c, 5, 56, 100
8, 43080, Note_on_c, 5, 59, 100
8, 43080, Note_on_c, 5, 64, 100
8, 43199, Note_on_c, 5, 64, 0
8, 43199, Note_on_c, 5, 59, 0
8, 43199, Note_on_c, 5, 56, 0
8, 43200, Note_on_c, 5, 61, 100
8, 43200, Note_on_c, 5, 59, 100
8, 43200, Note_on_c, 5, 54, 100
8, 43679, Note_on_c, 5, 54, 0
8, 43679, Note_on_c, 5, 59, 0
8, 43679, Note_on_c, 5, 61, 0
8, 43679, End_track
9, 0, Start_track
9, 0, MIDI_port, 0
9, 0, Title_t, "Vocal Echo"
9, 0, Program_c, 6, 54
9, 0, Control_c, 6, 7, 92
9, 47640, Note_on_c, 6, 68, 100
9, 47640, Note_on_c, 6, 71, 100
9, 47640, Note_on_c, 6, 75, 100
9, 47699, Note_on_c, 6, 75, 0
9, 47699, Note_on_c, 6, 71, 0
9, 47699, Note_on_c, 6, 68, 0
9, 47700, Note_on_c, 6, 71, 100
9, 47700, Note_on_c, 6, 75, 100
9, 47700, Note_on_c, 6, 78, 100
9, 48119, Note_on_c, 6, 78, 0
9, 48119, Note_on_c, 6, 75, 0
9, 48119, Note_on_c, 6, 71, 0
9, 49560, Note_on_c, 6, 68, 100
9, 49560, Note_on_c, 6, 71, 100
9, 49560, Note_on_c, 6, 75, 100
9, 49619, Note_on_c, 6, 75, 0
9, 49619, Note_on_c, 6, 71, 0
9, 49619, Note_on_c, 6, 68, 0
9, 49620, Note_on_c, 6, 71, 100
9, 49620, Note_on_c, 6, 75, 100
9, 49620, Note_on_c, 6, 78, 100
9, 50039, Note_on_c, 6, 78, 0
9, 50039, Note_on_c, 6, 75, 0
9, 50039, Note_on_c, 6, 71, 0
9, 51480, Note_on_c, 6, 68, 100
9, 51480, Note_on_c, 6, 71, 100
9, 51480, Note_on_c, 6, 75, 100
9, 51539, Note_on_c, 6, 75, 0
9, 51539, Note_on_c, 6, 71, 0
9, 51539, Note_on_c, 6, 68, 0
9, 51540, Note_on_c, 6, 71, 100
9, 51540, Note_on_c, 6, 75, 100
9, 51540, Note_on_c, 6, 78, 100
9, 51959, Note_on_c, 6, 78, 0
9, 51959, Note_on_c, 6, 75, 0
9, 51959, Note_on_c, 6, 71, 0
9, 53400, Note_on_c, 6, 80, 100
9, 53400, Note_on_c, 6, 71, 100
9, 53400, Note_on_c, 6, 75, 100
9, 53459, Note_on_c, 6, 75, 0
9, 53459, Note_on_c, 6, 71, 0
9, 53459, Note_on_c, 6, 80, 0
9, 53460, Note_on_c, 6, 71, 100
9, 53460, Note_on_c, 6, 75, 100
9, 53460, Note_on_c, 6, 78, 100
9, 53879, Note_on_c, 6, 78, 0
9, 53879, Note_on_c, 6, 75, 0
9, 53879, Note_on_c, 6, 71, 0
9, 53879, End_track
0, 0, End_of_file
