0, 0, Header, 1, 8, 3072
1, 0, Start_track
1, 0, Tempo, 1000000
1, 0, Time_signature, 4, 2, 24, 8
1, 835584, Tempo, 1578940
1, 846336, Tempo, 2857140
1, 847872, Tempo, 1428570
1, 1646592, End_track
2, 0, Start_track
2, 0, Title_t, "Clean"
2, 0, Control_c, 0, 100, 0
2, 0, Control_c, 0, 101, 0
2, 0, Control_c, 0, 6, 12
2, 0, Pitch_bend_c, 0, 8192
2, 0, Control_c, 0, 38, 0
2, 0, Program_c, 0, 27
2, 0, Control_c, 0, 7, 104
2, 0, Control_c, 0, 10, 48
2, 0, Control_c, 0, 93, 0
2, 0, Control_c, 0, 91, 0
2, 0, Control_c, 0, 92, 0
2, 0, Control_c, 0, 95, 0
2, 10752, Note_on_c, 0, 67, 79
2, 10784, Note_on_c, 0, 62, 79
2, 10816, Note_on_c, 0, 58, 79
2, 10848, Note_on_c, 0, 57, 79
2, 10880, Note_on_c, 0, 50, 79
2, 12288, Note_on_c, 0, 43, 79
2, 13824, Note_off_c, 0, 50, 80
2, 13824, Note_on_c, 0, 50, 79
2, 15360, Note_off_c, 0, 57, 80
2, 15360, Note_off_c, 0, 58, 80
2, 15360, Note_on_c, 0, 58, 79
2, 15360, Note_on_c, 0, 57, 79
2, 16896, Note_off_c, 0, 43, 80
2, 16896, Note_on_c, 0, 43, 79
2, 18432, Note_off_c, 0, 57, 80
2, 18432, Note_off_c, 0, 58, 80
2, 18432, Note_on_c, 0, 58, 79
2, 18432, Note_on_c, 0, 57, 79
2, 19968, Note_off_c, 0, 43, 80
2, 19968, Note_on_c, 0, 43, 79
2, 21504, Note_off_c, 0, 57, 80
2, 21504, Note_off_c, 0, 58, 80
2, 21504, Note_on_c, 0, 58, 79
2, 21504, Note_on_c, 0, 57, 79
2, 23040, Note_off_c, 0, 43, 80
2, 23040, Note_off_c, 0, 62, 80
2, 23040, Note_off_c, 0, 67, 80
2, 23040, Note_on_c, 0, 43, 79
2, 24576, Note_off_c, 0, 43, 80
2, 24576, Note_off_c, 0, 57, 80
2, 24576, Note_off_c, 0, 58, 80
2, 24576, Note_on_c, 0, 58, 79
2, 24576, Note_on_c, 0, 57, 79
2, 24576, Note_on_c, 0, 43, 79
2, 27648, Note_off_c, 0, 57, 80
2, 27648, Note_off_c, 0, 58, 80
2, 27648, Note_off_c, 0, 50, 80
2, 27648, Note_on_c, 0, 58, 79
2, 27648, Note_on_c, 0, 57, 79
2, 29184, Note_off_c, 0, 43, 80
2, 29184, Note_on_c, 0, 43, 79
2, 30720, Note_off_c, 0, 57, 80
2, 30720, Note_off_c, 0, 58, 80
2, 30720, Note_on_c, 0, 58, 79
2, 30720, Note_on_c, 0, 57, 79
2, 32256, Note_off_c, 0, 43, 80
2, 32256, Note_on_c, 0, 43, 79
2, 33792, Note_off_c, 0, 57, 80
2, 33792, Note_off_c, 0, 58, 80
2, 33792, Note_on_c, 0, 58, 79
2, 33792, Note_on_c, 0, 57, 79
2, 35328, Note_off_c, 0, 43, 80
2, 35328, Note_on_c, 0, 43, 79
2, 36864, Note_off_c, 0, 43, 80
2, 36864, Note_off_c, 0, 57, 80
2, 36864, Note_off_c, 0, 58, 80
2, 36864, Note_on_c, 0, 57, 79
2, 36864, Note_on_c, 0, 55, 79
2, 36864, Note_on_c, 0, 41, 79
2, 38400, Note_on_c, 0, 48, 79
2, 39936, Note_off_c, 0, 55, 80
2, 39936, Note_off_c, 0, 57, 80
2, 39936, Note_on_c, 0, 57, 79
2, 39936, Note_on_c, 0, 55, 79
2, 41472, Note_off_c, 0, 41, 80
2, 41472, Note_on_c, 0, 41, 79
2, 43008, Note_off_c, 0, 55, 80
2, 43008, Note_off_c, 0, 57, 80
2, 43008, Note_on_c, 0, 57, 79
2, 43008, Note_on_c, 0, 55, 79
2, 44544, Note_off_c, 0, 41, 80
2, 44544, Note_on_c, 0, 41, 79
2, 46080, Note_off_c, 0, 55, 80
2, 46080, Note_off_c, 0, 57, 80
2, 46080, Note_on_c, 0, 57, 79
2, 46080, Note_on_c, 0, 55, 79
2, 47616, Note_off_c, 0, 41, 80
2, 47616, Note_on_c, 0, 41, 79
2, 49152, Note_off_c, 0, 41, 80
2, 49152, Note_off_c, 0, 55, 80
2, 49152, Note_off_c, 0, 57, 80
2, 49152, Note_on_c, 0, 58, 79
2, 49152, Note_on_c, 0, 57, 79
2, 49152, Note_on_c, 0, 43, 79
2, 50688, Note_off_c, 0, 48, 80
2, 50688, Note_on_c, 0, 50, 79
2, 52224, Note_off_c, 0, 57, 80
2, 52224, Note_off_c, 0, 58, 80
2, 52224, Note_on_c, 0, 58, 79
2, 52224, Note_on_c, 0, 57, 79
2, 53760, Note_off_c, 0, 43, 80
2, 53760, Note_on_c, 0, 43, 79
2, 55296, Note_off_c, 0, 57, 80
2, 55296, Note_off_c, 0, 58, 80
2, 55296, Note_on_c, 0, 58, 79
2, 55296, Note_on_c, 0, 57, 79
2, 56832, Note_off_c, 0, 43, 80
2, 56832, Note_on_c, 0, 43, 79
2, 58368, Note_off_c, 0, 57, 80
2, 58368, Note_off_c, 0, 58, 80
2, 58368, Note_on_c, 0, 58, 79
2, 58368, Note_on_c, 0, 57, 79
2, 59904, Note_off_c, 0, 43, 80
2, 59904, Note_on_c, 0, 43, 79
2, 61440, Note_off_c, 0, 43, 80
2, 61440, Note_off_c, 0, 57, 80
2, 61440, Note_off_c, 0, 58, 80
2, 61440, Note_on_c, 0, 57, 79
2, 61440, Note_on_c, 0, 55, 79
2, 61440, Note_on_c, 0, 41, 79
2, 62976, Note_off_c, 0, 41, 80
2, 62976, Note_off_c, 0, 50, 80
2, 62976, Note_on_c, 0, 41, 79
2, 64512, Note_off_c, 0, 55, 80
2, 64512, Note_off_c, 0, 57, 80
2, 64512, Note_on_c, 0, 57, 79
2, 64512, Note_on_c, 0, 55, 79
2, 66048, Note_off_c, 0, 41, 80
2, 66048, Note_on_c, 0, 41, 79
2, 67584, Note_off_c, 0, 55, 80
2, 67584, Note_off_c, 0, 57, 80
2, 67584, Note_on_c, 0, 57, 79
2, 67584, Note_on_c, 0, 55, 79
2, 69120, Note_off_c, 0, 41, 80
2, 69120, Note_on_c, 0, 41, 79
2, 70656, Note_off_c, 0, 55, 80
2, 70656, Note_off_c, 0, 57, 80
2, 70656, Note_on_c, 0, 57, 79
2, 70656, Note_on_c, 0, 55, 79
2, 72192, Note_off_c, 0, 41, 80
2, 72192, Note_on_c, 0, 41, 79
2, 73728, Note_off_c, 0, 41, 80
2, 73728, Note_on_c, 0, 43, 79
2, 74496, Note_on_c, 0, 50, 79
2, 75264, Note_off_c, 0, 55, 80
2, 75264, Note_on_c, 0, 57, 79
2, 76032, Note_off_c, 0, 57, 80
2, 76032, Note_on_c, 0, 58, 79
2, 76800, Note_on_c, 0, 62, 79
2, 86016, Note_off_c, 0, 43, 80
2, 86016, Note_on_c, 0, 41, 79
2, 86784, Note_off_c, 0, 50, 80
2, 86784, Note_on_c, 0, 48, 79
2, 87552, Note_off_c, 0, 57, 80
2, 87552, Note_on_c, 0, 55, 79
2, 88320, Note_off_c, 0, 58, 80
2, 88320, Note_on_c, 0, 57, 79
2, 89088, Note_off_c, 0, 62, 80
2, 89088, Note_on_c, 0, 60, 79
2, 98304, Note_off_c, 0, 41, 80
2, 98304, Note_on_c, 0, 43, 79
2, 99072, Note_off_c, 0, 48, 80
2, 99072, Note_on_c, 0, 50, 79
2, 99840, Note_off_c, 0, 55, 80
2, 99840, Note_on_c, 0, 57, 79
2, 100608, Note_off_c, 0, 57, 80
2, 100608, Note_on_c, 0, 58, 79
2, 101376, Note_off_c, 0, 60, 80
2, 101376, Note_on_c, 0, 62, 79
2, 106752, Note_off_c, 0, 43, 80
2, 106752, Note_on_c, 0, 43, 79
2, 107520, Note_off_c, 0, 62, 80
2, 107520, Note_on_c, 0, 62, 79
2, 108288, Note_off_c, 0, 58, 80
2, 108288, Note_on_c, 0, 58, 79
2, 109056, Note_off_c, 0, 57, 80
2, 109056, Note_on_c, 0, 57, 79
2, 109824, Note_off_c, 0, 50, 80
2, 109824, Note_on_c, 0, 50, 79
2, 110592, Note_off_c, 0, 43, 80
2, 110592, Note_on_c, 0, 41, 79
2, 111360, Note_off_c, 0, 50, 80
2, 111360, Note_on_c, 0, 48, 79
2, 112128, Note_off_c, 0, 57, 80
2, 112128, Note_on_c, 0, 55, 79
2, 112896, Note_off_c, 0, 58, 80
2, 112896, Note_on_c, 0, 57, 79
2, 113664, Note_off_c, 0, 62, 80
2, 113664, Note_on_c, 0, 60, 79
2, 119040, Note_off_c, 0, 41, 80
2, 119040, Note_on_c, 0, 41, 79
2, 119808, Note_off_c, 0, 60, 80
2, 119808, Note_on_c, 0, 60, 79
2, 120576, Note_off_c, 0, 57, 80
2, 120576, Note_on_c, 0, 57, 79
2, 121344, Note_off_c, 0, 55, 80
2, 121344, Note_on_c, 0, 55, 79
2, 122112, Note_off_c, 0, 48, 80
2, 122112, Note_on_c, 0, 48, 79
2, 122880, Note_off_c, 0, 55, 80
2, 122880, Note_off_c, 0, 57, 80
2, 122880, Note_off_c, 0, 60, 80
2, 122880, Note_off_c, 0, 41, 80
2, 122880, Note_on_c, 0, 48, 79
2, 122912, Note_on_c, 0, 58, 79
2, 122944, Note_on_c, 0, 63, 79
2, 122976, Note_on_c, 0, 67, 38
2, 127488, Note_off_c, 0, 67, 80
2, 127488, Note_off_c, 0, 63, 80
2, 127488, Note_off_c, 0, 58, 80
2, 127488, Note_on_c, 0, 58, 79
2, 127520, Note_on_c, 0, 63, 79
2, 127552, Note_on_c, 0, 67, 79
2, 131328, Note_off_c, 0, 48, 80
2, 131328, Note_on_c, 0, 48, 79
2, 132096, Note_off_c, 0, 67, 80
2, 132096, Note_on_c, 0, 67, 79
2, 132864, Note_off_c, 0, 63, 80
2, 132864, Note_on_c, 0, 63, 79
2, 133632, Note_off_c, 0, 58, 80
2, 133632, Note_on_c, 0, 58, 79
2, 135168, Note_off_c, 0, 58, 80
2, 135168, Note_off_c, 0, 63, 80
2, 135168, Note_off_c, 0, 67, 80
2, 135168, Note_off_c, 0, 48, 80
2, 135168, Note_off_c, 0, 48, 80
2, 135168, Note_on_c, 0, 50, 79
2, 135200, Note_on_c, 0, 60, 79
2, 135232, Note_on_c, 0, 65, 79
2, 135264, Note_on_c, 0, 69, 38
2, 139776, Note_off_c, 0, 69, 80
2, 139776, Note_off_c, 0, 65, 80
2, 139776, Note_off_c, 0, 60, 80
2, 139776, Note_on_c, 0, 60, 79
2, 139808, Note_on_c, 0, 65, 79
2, 139840, Note_on_c, 0, 69, 79
2, 143616, Note_off_c, 0, 50, 80
2, 143616, Note_on_c, 0, 50, 79
2, 144384, Note_on_c, 0, 72, 79
2, 145152, Note_off_c, 0, 69, 80
2, 145152, Note_on_c, 0, 69, 79
2, 145920, Note_off_c, 0, 65, 80
2, 145920, Note_on_c, 0, 65, 79
2, 146688, Note_off_c, 0, 60, 80
2, 146688, Note_on_c, 0, 60, 79
2, 147456, Note_off_c, 0, 50, 80
2, 147456, Note_on_c, 0, 43, 79
2, 148224, Note_off_c, 0, 60, 80
2, 148224, Note_on_c, 0, 53, 79
2, 148992, Note_off_c, 0, 65, 80
2, 148992, Note_on_c, 0, 58, 79
2, 149760, Note_off_c, 0, 69, 80
2, 149760, Note_on_c, 0, 60, 79
2, 156672, Note_off_c, 0, 60, 80
2, 156672, Note_off_c, 0, 58, 80
2, 156672, Note_off_c, 0, 72, 80
2, 156672, Note_on_c, 0, 58, 79
2, 156704, Note_on_c, 0, 62, 79
2, 156736, Note_on_c, 0, 69, 79
2, 157440, Note_off_c, 0, 69, 80
2, 157440, Note_on_c, 0, 67, 63
2, 159744, Note_off_c, 0, 62, 80
2, 159744, Note_off_c, 0, 58, 80
2, 159744, Note_off_c, 0, 53, 80
2, 159744, Note_off_c, 0, 43, 80
2, 159744, Note_on_c, 0, 52, 79
2, 159776, Note_on_c, 0, 58, 79
2, 159808, Note_on_c, 0, 62, 79
2, 159840, Note_on_c, 0, 67, 79
2, 168192, Note_off_c, 0, 52, 80
2, 168192, Note_on_c, 0, 52, 79
2, 168960, Note_off_c, 0, 67, 80
2, 168960, Note_on_c, 0, 67, 79
2, 169728, Note_off_c, 0, 67, 80
2, 169728, Note_off_c, 0, 62, 80
2, 169728, Note_on_c, 0, 62, 79
2, 170496, Note_off_c, 0, 58, 80
2, 170496, Note_on_c, 0, 58, 79
2, 172032, Note_off_c, 0, 58, 80
2, 172032, Note_off_c, 0, 62, 80
2, 172032, Note_off_c, 0, 67, 80
2, 172032, Note_off_c, 0, 52, 80
2, 172032, Note_on_c, 0, 51, 79
2, 172064, Note_on_c, 0, 58, 79
2, 172096, Note_on_c, 0, 61, 79
2, 172128, Note_on_c, 0, 66, 79
2, 175104, Note_off_c, 0, 61, 80
2, 175104, Note_on_c, 0, 61, 79
2, 176640, Note_off_c, 0, 51, 80
2, 176640, Note_on_c, 0, 51, 79
2, 178176, Note_off_c, 0, 61, 80
2, 178176, Note_off_c, 0, 66, 80
2, 178176, Note_off_c, 0, 58, 80
2, 178176, Note_on_c, 0, 58, 79
2, 178208, Note_on_c, 0, 61, 79
2, 178240, Note_on_c, 0, 66, 79
2, 184320, Note_off_c, 0, 66, 80
2, 184320, Note_off_c, 0, 61, 80
2, 184320, Note_off_c, 0, 58, 80
2, 184320, Note_off_c, 0, 51, 80
2, 184320, Note_on_c, 0, 50, 79
2, 184352, Note_on_c, 0, 54, 79
2, 184384, Note_on_c, 0, 60, 79
2, 184416, Note_on_c, 0, 64, 79
2, 187392, Note_off_c, 0, 50, 80
2, 187392, Note_on_c, 0, 50, 79
2, 188928, Note_off_c, 0, 64, 80
2, 188928, Note_on_c, 0, 64, 79
2, 190464, Note_off_c, 0, 64, 80
2, 190464, Note_off_c, 0, 50, 80
2, 190464, Note_off_c, 0, 60, 80
2, 190464, Note_off_c, 0, 54, 80
2, 190464, Note_on_c, 0, 50, 79
2, 190496, Note_on_c, 0, 54, 79
2, 190528, Note_on_c, 0, 60, 79
2, 190560, Note_on_c, 0, 63, 79
2, 193536, Note_off_c, 0, 63, 80
2, 193536, Note_on_c, 0, 62, 79
2, 196608, Note_off_c, 0, 60, 80
2, 196608, Note_off_c, 0, 54, 80
2, 196608, Note_off_c, 0, 50, 80
2, 196608, Note_on_c, 0, 43, 79
2, 196640, Note_on_c, 0, 50, 79
2, 196672, Note_on_c, 0, 57, 79
2, 196704, Note_on_c, 0, 58, 79
2, 198144, Note_off_c, 0, 43, 80
2, 198144, Note_on_c, 0, 43, 79
2, 199680, Note_off_c, 0, 58, 80
2, 199680, Note_off_c, 0, 57, 80
2, 199680, Note_off_c, 0, 50, 80
2, 199680, Note_on_c, 0, 50, 79
2, 199712, Note_on_c, 0, 57, 79
2, 199744, Note_on_c, 0, 58, 79
2, 201216, Note_off_c, 0, 50, 80
2, 201216, Note_on_c, 0, 50, 79
2, 202752, Note_off_c, 0, 50, 80
2, 202752, Note_off_c, 0, 58, 80
2, 202752, Note_off_c, 0, 57, 80
2, 202752, Note_off_c, 0, 43, 80
2, 202752, Note_on_c, 0, 43, 79
2, 202784, Note_on_c, 0, 50, 79
2, 202816, Note_on_c, 0, 57, 79
2, 202848, Note_on_c, 0, 58, 79
2, 204288, Note_off_c, 0, 43, 80
2, 204288, Note_on_c, 0, 43, 79
2, 205824, Note_off_c, 0, 58, 80
2, 205824, Note_off_c, 0, 57, 80
2, 205824, Note_off_c, 0, 50, 80
2, 205824, Note_off_c, 0, 62, 80
2, 205824, Note_on_c, 0, 50, 79
2, 205856, Note_on_c, 0, 57, 79
2, 205888, Note_on_c, 0, 58, 79
2, 207360, Note_off_c, 0, 50, 80
2, 207360, Note_on_c, 0, 50, 79
2, 208896, Note_off_c, 0, 50, 80
2, 208896, Note_off_c, 0, 58, 80
2, 208896, Note_off_c, 0, 57, 80
2, 208896, Note_off_c, 0, 43, 80
2, 208896, Note_on_c, 0, 48, 79
2, 208928, Note_on_c, 0, 55, 79
2, 208960, Note_on_c, 0, 62, 79
2, 208992, Note_on_c, 0, 63, 79
2, 210432, Note_off_c, 0, 48, 80
2, 210432, Note_on_c, 0, 48, 79
2, 211968, Note_off_c, 0, 63, 80
2, 211968, Note_off_c, 0, 62, 80
2, 211968, Note_off_c, 0, 55, 80
2, 211968, Note_on_c, 0, 55, 79
2, 212000, Note_on_c, 0, 62, 79
2, 212032, Note_on_c, 0, 63, 79
2, 213504, Note_off_c, 0, 55, 80
2, 213504, Note_on_c, 0, 55, 79
2, 215040, Note_off_c, 0, 55, 80
2, 215040, Note_off_c, 0, 63, 80
2, 215040, Note_off_c, 0, 62, 80
2, 215040, Note_off_c, 0, 48, 80
2, 215040, Note_on_c, 0, 48, 79
2, 215072, Note_on_c, 0, 55, 79
2, 215104, Note_on_c, 0, 62, 79
2, 215136, Note_on_c, 0, 63, 79
2, 216576, Note_off_c, 0, 48, 80
2, 216576, Note_on_c, 0, 48, 79
2, 218112, Note_off_c, 0, 63, 80
2, 218112, Note_off_c, 0, 62, 80
2, 218112, Note_off_c, 0, 55, 80
2, 218112, Note_on_c, 0, 55, 79
2, 218144, Note_on_c, 0, 62, 79
2, 218176, Note_on_c, 0, 63, 79
2, 219648, Note_off_c, 0, 55, 80
2, 219648, Note_on_c, 0, 55, 79
2, 221184, Note_off_c, 0, 55, 80
2, 221184, Note_off_c, 0, 63, 80
2, 221184, Note_off_c, 0, 62, 80
2, 221184, Note_off_c, 0, 48, 80
2, 221184, Note_on_c, 0, 43, 79
2, 221216, Note_on_c, 0, 50, 79
2, 221248, Note_on_c, 0, 57, 79
2, 221280, Note_on_c, 0, 58, 79
2, 222720, Note_off_c, 0, 43, 80
2, 222720, Note_on_c, 0, 43, 79
2, 224256, Note_off_c, 0, 58, 80
2, 224256, Note_off_c, 0, 57, 80
2, 224256, Note_off_c, 0, 50, 80
2, 224256, Note_on_c, 0, 50, 79
2, 224288, Note_on_c, 0, 57, 79
2, 224320, Note_on_c, 0, 58, 79
2, 225792, Note_off_c, 0, 50, 80
2, 225792, Note_on_c, 0, 50, 79
2, 227328, Note_off_c, 0, 50, 80
2, 227328, Note_off_c, 0, 58, 80
2, 227328, Note_off_c, 0, 57, 80
2, 227328, Note_off_c, 0, 43, 80
2, 227328, Note_on_c, 0, 43, 79
2, 227360, Note_on_c, 0, 50, 79
2, 227392, Note_on_c, 0, 57, 79
2, 227424, Note_on_c, 0, 58, 79
2, 228864, Note_off_c, 0, 43, 80
2, 228864, Note_on_c, 0, 43, 79
2, 230400, Note_off_c, 0, 58, 80
2, 230400, Note_off_c, 0, 57, 80
2, 230400, Note_off_c, 0, 50, 80
2, 230400, Note_on_c, 0, 50, 79
2, 230432, Note_on_c, 0, 57, 79
2, 230464, Note_on_c, 0, 58, 79
2, 231936, Note_off_c, 0, 50, 80
2, 231936, Note_on_c, 0, 50, 79
2, 233472, Note_off_c, 0, 50, 80
2, 233472, Note_off_c, 0, 58, 80
2, 233472, Note_off_c, 0, 57, 80
2, 233472, Note_on_c, 0, 45, 79
2, 233504, Note_on_c, 0, 55, 79
2, 233536, Note_on_c, 0, 60, 79
2, 233568, Note_on_c, 0, 63, 79
2, 236544, Note_off_c, 0, 45, 80
2, 236544, Note_on_c, 0, 45, 79
2, 237312, Note_off_c, 0, 55, 80
2, 237312, Note_on_c, 0, 55, 79
2, 238080, Note_off_c, 0, 60, 80
2, 238080, Note_on_c, 0, 60, 79
2, 238848, Note_off_c, 0, 63, 80
2, 238848, Note_on_c, 0, 63, 79
2, 239616, Note_off_c, 0, 63, 80
2, 239616, Note_off_c, 0, 60, 80
2, 239616, Note_off_c, 0, 55, 80
2, 239616, Note_off_c, 0, 45, 80
2, 239616, Note_on_c, 0, 45, 79
2, 239648, Note_on_c, 0, 54, 79
2, 239680, Note_on_c, 0, 60, 79
2, 239712, Note_on_c, 0, 63, 79
2, 245760, Note_off_c, 0, 45, 80
2, 245760, Note_off_c, 0, 43, 80
2, 245760, Note_on_c, 0, 50, 79
2, 245760, Note_on_c, 0, 43, 79
2, 248064, Note_off_c, 0, 43, 80
2, 248064, Note_off_c, 0, 50, 80
2, 248064, Note_on_c, 0, 50, 79
2, 248064, Note_on_c, 0, 43, 79
2, 248832, Note_off_c, 0, 43, 80
2, 248832, Note_off_c, 0, 50, 80
2, 248832, Note_off_c, 0, 63, 80
2, 248832, Note_off_c, 0, 60, 80
2, 248832, Note_off_c, 0, 54, 80
2, 250368, Note_on_c, 0, 57, 79
2, 250368, Note_on_c, 0, 50, 79
2, 250368, Note_on_c, 0, 43, 79
2, 254976, Note_off_c, 0, 43, 80
2, 254976, Note_off_c, 0, 50, 80
2, 254976, Note_off_c, 0, 57, 80
2, 254976, Note_on_c, 0, 57, 79
2, 254976, Note_on_c, 0, 50, 79
2, 254976, Note_on_c, 0, 43, 79
2, 256512, Note_off_c, 0, 43, 80
2, 256512, Note_off_c, 0, 50, 80
2, 256512, Note_off_c, 0, 57, 80
2, 256512, Note_on_c, 0, 57, 79
2, 256512, Note_on_c, 0, 50, 79
2, 256512, Note_on_c, 0, 43, 79
2, 256640, Note_off_c, 0, 43, 80
2, 256640, Note_off_c, 0, 50, 80
2, 256640, Note_off_c, 0, 57, 80
2, 258048, Note_on_c, 0, 55, 79
2, 258048, Note_on_c, 0, 48, 79
2, 258048, Note_on_c, 0, 41, 79
2, 260352, Note_off_c, 0, 41, 80
2, 260352, Note_off_c, 0, 48, 80
2, 260352, Note_off_c, 0, 55, 80
2, 260352, Note_on_c, 0, 48, 79
2, 260352, Note_on_c, 0, 41, 79
2, 261120, Note_off_c, 0, 41, 80
2, 261120, Note_off_c, 0, 48, 80
2, 262656, Note_on_c, 0, 55, 79
2, 262656, Note_on_c, 0, 48, 79
2, 262656, Note_on_c, 0, 41, 79
2, 267264, Note_off_c, 0, 41, 80
2, 267264, Note_off_c, 0, 48, 80
2, 267264, Note_off_c, 0, 55, 80
2, 267264, Note_on_c, 0, 48, 79
2, 267264, Note_on_c, 0, 41, 79
2, 268800, Note_off_c, 0, 41, 80
2, 268800, Note_off_c, 0, 48, 80
2, 268800, Note_on_c, 0, 48, 79
2, 268800, Note_on_c, 0, 41, 79
2, 268928, Note_off_c, 0, 41, 80
2, 268928, Note_off_c, 0, 48, 80
2, 269568, Note_on_c, 0, 48, 79
2, 269568, Note_on_c, 0, 41, 79
2, 269696, Note_off_c, 0, 41, 80
2, 269696, Note_off_c, 0, 48, 80
2, 270336, Note_on_c, 0, 50, 79
2, 270336, Note_on_c, 0, 43, 79
2, 272640, Note_off_c, 0, 43, 80
2, 272640, Note_off_c, 0, 50, 80
2, 272640, Note_on_c, 0, 57, 79
2, 272640, Note_on_c, 0, 50, 79
2, 272640, Note_on_c, 0, 43, 79
2, 273408, Note_off_c, 0, 43, 80
2, 273408, Note_off_c, 0, 50, 80
2, 273408, Note_off_c, 0, 57, 80
2, 274944, Note_on_c, 0, 57, 79
2, 274944, Note_on_c, 0, 50, 79
2, 274944, Note_on_c, 0, 43, 79
2, 279552, Note_off_c, 0, 43, 80
2, 279552, Note_off_c, 0, 50, 80
2, 279552, Note_off_c, 0, 57, 80
2, 279552, Note_on_c, 0, 57, 79
2, 279552, Note_on_c, 0, 50, 79
2, 279552, Note_on_c, 0, 43, 79
2, 281856, Note_off_c, 0, 43, 80
2, 281856, Note_off_c, 0, 50, 80
2, 281856, Note_off_c, 0, 57, 80
2, 281856, Note_on_c, 0, 57, 79
2, 281856, Note_on_c, 0, 50, 79
2, 281856, Note_on_c, 0, 43, 79
2, 281984, Note_off_c, 0, 43, 80
2, 281984, Note_off_c, 0, 50, 80
2, 281984, Note_off_c, 0, 57, 80
2, 282624, Note_on_c, 0, 48, 79
2, 282624, Note_on_c, 0, 41, 79
2, 284928, Note_off_c, 0, 41, 80
2, 284928, Note_off_c, 0, 48, 80
2, 284928, Note_on_c, 0, 48, 79
2, 284928, Note_on_c, 0, 41, 79
2, 285696, Note_off_c, 0, 41, 80
2, 285696, Note_off_c, 0, 48, 80
2, 287232, Note_on_c, 0, 55, 79
2, 287232, Note_on_c, 0, 48, 79
2, 287232, Note_on_c, 0, 41, 79
2, 291840, Note_off_c, 0, 41, 80
2, 291840, Note_off_c, 0, 48, 80
2, 291840, Note_off_c, 0, 55, 80
2, 291840, Note_on_c, 0, 48, 79
2, 291840, Note_on_c, 0, 41, 79
2, 293376, Note_off_c, 0, 41, 80
2, 293376, Note_off_c, 0, 48, 80
2, 294912, Note_on_c, 0, 48, 79
2, 297984, Note_off_c, 0, 48, 80
2, 297984, Note_on_c, 0, 48, 63
2, 298752, Note_off_c, 0, 48, 80
2, 298752, Note_on_c, 0, 48, 63
2, 299520, Note_off_c, 0, 48, 80
2, 299520, Note_on_c, 0, 67, 79
2, 299520, Note_on_c, 0, 63, 79
2, 299520, Note_on_c, 0, 58, 79
2, 304128, Note_off_c, 0, 58, 80
2, 304128, Note_off_c, 0, 63, 80
2, 304128, Note_off_c, 0, 67, 80
2, 304128, Note_on_c, 0, 48, 79
2, 304896, Note_off_c, 0, 48, 80
2, 304896, Note_on_c, 0, 63, 79
2, 304896, Note_on_c, 0, 58, 79
2, 305664, Note_off_c, 0, 58, 80
2, 305664, Note_off_c, 0, 63, 80
2, 305664, Note_on_c, 0, 55, 79
2, 305664, Note_on_c, 0, 48, 79
2, 305792, Note_off_c, 0, 48, 80
2, 305792, Note_off_c, 0, 55, 80
2, 306432, Note_on_c, 0, 55, 79
2, 306432, Note_on_c, 0, 48, 79
2, 306560, Note_off_c, 0, 48, 80
2, 306560, Note_off_c, 0, 55, 80
2, 307200, Note_on_c, 0, 50, 79
2, 307968, Note_on_c, 0, 57, 79
2, 310272, Note_off_c, 0, 50, 80
2, 310272, Note_on_c, 0, 50, 63
2, 311040, Note_off_c, 0, 50, 80
2, 311040, Note_on_c, 0, 50, 63
2, 311808, Note_off_c, 0, 50, 80
2, 311808, Note_on_c, 0, 69, 79
2, 311808, Note_on_c, 0, 65, 79
2, 311808, Note_on_c, 0, 60, 79
2, 315840, Pitch_bend_c, 0, 7552
2, 315923, Pitch_bend_c, 0, 6784
2, 316006, Pitch_bend_c, 0, 6144
2, 316089, Pitch_bend_c, 0, 5504
2, 316166, Pitch_bend_c, 0, 4736
2, 316249, Pitch_bend_c, 0, 4096
2, 316332, Pitch_bend_c, 0, 3456
2, 316416, Note_off_c, 0, 60, 80
2, 316416, Note_off_c, 0, 65, 80
2, 316416, Note_off_c, 0, 69, 80
2, 316416, Note_off_c, 0, 57, 80
2, 316416, Pitch_bend_c, 0, 8192
2, 316416, Note_on_c, 0, 50, 79
2, 317184, Note_off_c, 0, 50, 80
2, 317184, Note_on_c, 0, 46, 79
2, 319488, Note_off_c, 0, 46, 80
2, 319488, Note_on_c, 0, 43, 79
2, 321792, Note_off_c, 0, 43, 80
2, 321792, Note_on_c, 0, 43, 79
2, 322560, Note_off_c, 0, 43, 80
2, 322560, Note_on_c, 0, 43, 63
2, 323328, Note_off_c, 0, 43, 80
2, 323328, Note_on_c, 0, 43, 63
2, 324096, Note_off_c, 0, 43, 80
2, 324096, Note_on_c, 0, 62, 79
2, 324096, Note_on_c, 0, 58, 79
2, 324096, Note_on_c, 0, 53, 79
2, 328704, Note_off_c, 0, 53, 80
2, 328704, Note_off_c, 0, 58, 80
2, 328704, Note_off_c, 0, 62, 80
2, 328704, Note_on_c, 0, 43, 79
2, 330240, Note_off_c, 0, 43, 80
2, 330240, Note_on_c, 0, 42, 79
2, 331008, Note_off_c, 0, 42, 80
2, 331008, Note_on_c, 0, 41, 79
2, 331776, Note_off_c, 0, 41, 80
2, 331776, Note_on_c, 0, 40, 79
2, 333312, Note_on_c, 0, 52, 79
2, 334848, Note_on_c, 0, 58, 79
2, 336384, Note_on_c, 0, 62, 79
2, 337920, Note_on_c, 0, 67, 79
2, 340992, Note_off_c, 0, 67, 80
2, 340992, Note_off_c, 0, 62, 80
2, 340992, Note_off_c, 0, 58, 80
2, 340992, Note_off_c, 0, 52, 80
2, 340992, Note_off_c, 0, 40, 80
2, 565248, Note_on_c, 0, 43, 15
2, 565280, Note_on_c, 0, 50, 15
2, 565312, Note_on_c, 0, 57, 15
2, 565344, Note_on_c, 0, 58, 15
2, 566784, Note_off_c, 0, 43, 80
2, 566784, Note_on_c, 0, 43, 15
2, 568320, Note_off_c, 0, 58, 80
2, 568320, Note_off_c, 0, 57, 80
2, 568320, Note_off_c, 0, 50, 80
2, 568320, Note_on_c, 0, 50, 31
2, 568352, Note_on_c, 0, 57, 31
2, 568384, Note_on_c, 0, 58, 31
2, 569856, Note_off_c, 0, 50, 80
2, 569856, Note_on_c, 0, 50, 31
2, 571392, Note_off_c, 0, 50, 80
2, 571392, Note_off_c, 0, 58, 80
2, 571392, Note_off_c, 0, 57, 80
2, 571392, Note_off_c, 0, 43, 80
2, 571392, Note_on_c, 0, 43, 47
2, 571424, Note_on_c, 0, 50, 47
2, 571456, Note_on_c, 0, 57, 47
2, 571488, Note_on_c, 0, 58, 47
2, 572928, Note_off_c, 0, 43, 80
2, 572928, Note_on_c, 0, 43, 47
2, 574464, Note_off_c, 0, 58, 80
2, 574464, Note_off_c, 0, 57, 80
2, 574464, Note_off_c, 0, 50, 80
2, 574464, Note_on_c, 0, 50, 63
2, 574496, Note_on_c, 0, 57, 63
2, 574528, Note_on_c, 0, 58, 63
2, 576000, Note_off_c, 0, 50, 80
2, 576000, Note_on_c, 0, 50, 63
2, 577536, Note_off_c, 0, 50, 80
2, 577536, Note_off_c, 0, 58, 80
2, 577536, Note_off_c, 0, 57, 80
2, 577536, Note_off_c, 0, 43, 80
2, 577536, Note_on_c, 0, 41, 79
2, 577568, Note_on_c, 0, 48, 79
2, 577600, Note_on_c, 0, 55, 79
2, 577632, Note_on_c, 0, 57, 79
2, 579072, Note_off_c, 0, 41, 80
2, 579072, Note_on_c, 0, 41, 79
2, 580608, Note_off_c, 0, 57, 80
2, 580608, Note_off_c, 0, 55, 80
2, 580608, Note_off_c, 0, 48, 80
2, 580608, Note_on_c, 0, 48, 79
2, 580640, Note_on_c, 0, 55, 79
2, 580672, Note_on_c, 0, 57, 79
2, 582144, Note_off_c, 0, 48, 80
2, 582144, Note_on_c, 0, 48, 79
2, 583680, Note_off_c, 0, 48, 80
2, 583680, Note_off_c, 0, 57, 80
2, 583680, Note_off_c, 0, 55, 80
2, 583680, Note_off_c, 0, 41, 80
2, 583680, Note_on_c, 0, 41, 79
2, 583712, Note_on_c, 0, 48, 79
2, 583744, Note_on_c, 0, 55, 79
2, 583776, Note_on_c, 0, 57, 79
2, 585216, Note_off_c, 0, 41, 80
2, 585216, Note_on_c, 0, 41, 79
2, 586752, Note_off_c, 0, 57, 80
2, 586752, Note_off_c, 0, 55, 80
2, 586752, Note_off_c, 0, 48, 80
2, 586752, Note_on_c, 0, 48, 79
2, 586784, Note_on_c, 0, 55, 79
2, 586816, Note_on_c, 0, 57, 79
2, 588288, Note_off_c, 0, 48, 80
2, 588288, Note_on_c, 0, 48, 79
2, 589824, Note_off_c, 0, 48, 80
2, 589824, Note_off_c, 0, 57, 80
2, 589824, Note_off_c, 0, 55, 80
2, 589824, Note_off_c, 0, 41, 80
2, 589824, Note_on_c, 0, 43, 79
2, 589856, Note_on_c, 0, 50, 79
2, 589888, Note_on_c, 0, 57, 79
2, 589920, Note_on_c, 0, 58, 79
2, 591360, Note_off_c, 0, 43, 80
2, 591360, Note_on_c, 0, 43, 79
2, 592896, Note_off_c, 0, 58, 80
2, 592896, Note_off_c, 0, 57, 80
2, 592896, Note_off_c, 0, 50, 80
2, 592896, Note_on_c, 0, 50, 79
2, 592928, Note_on_c, 0, 57, 79
2, 592960, Note_on_c, 0, 58, 79
2, 594432, Note_off_c, 0, 50, 80
2, 594432, Note_on_c, 0, 50, 79
2, 595968, Note_off_c, 0, 50, 80
2, 595968, Note_off_c, 0, 58, 80
2, 595968, Note_off_c, 0, 57, 80
2, 595968, Note_off_c, 0, 43, 80
2, 595968, Note_on_c, 0, 43, 79
2, 596000, Note_on_c, 0, 50, 79
2, 596032, Note_on_c, 0, 57, 79
2, 596064, Note_on_c, 0, 58, 79
2, 597504, Note_off_c, 0, 43, 80
2, 597504, Note_on_c, 0, 43, 79
2, 599040, Note_off_c, 0, 58, 80
2, 599040, Note_off_c, 0, 57, 80
2, 599040, Note_off_c, 0, 50, 80
2, 599040, Note_on_c, 0, 50, 79
2, 599072, Note_on_c, 0, 57, 79
2, 599104, Note_on_c, 0, 58, 79
2, 600576, Note_off_c, 0, 50, 80
2, 600576, Note_on_c, 0, 50, 79
2, 602112, Note_off_c, 0, 50, 80
2, 602112, Note_off_c, 0, 58, 80
2, 602112, Note_off_c, 0, 57, 80
2, 602112, Note_off_c, 0, 43, 80
2, 602112, Note_on_c, 0, 41, 79
2, 602144, Note_on_c, 0, 48, 79
2, 602176, Note_on_c, 0, 55, 79
2, 602208, Note_on_c, 0, 57, 79
2, 603648, Note_off_c, 0, 41, 80
2, 603648, Note_on_c, 0, 41, 79
2, 605184, Note_off_c, 0, 57, 80
2, 605184, Note_off_c, 0, 55, 80
2, 605184, Note_off_c, 0, 48, 80
2, 605184, Note_on_c, 0, 48, 79
2, 605216, Note_on_c, 0, 55, 79
2, 605248, Note_on_c, 0, 57, 79
2, 606720, Note_off_c, 0, 48, 80
2, 606720, Note_on_c, 0, 48, 79
2, 608256, Note_off_c, 0, 48, 80
2, 608256, Note_off_c, 0, 57, 80
2, 608256, Note_off_c, 0, 55, 80
2, 608256, Note_off_c, 0, 41, 80
2, 608256, Note_on_c, 0, 41, 79
2, 608288, Note_on_c, 0, 48, 79
2, 608320, Note_on_c, 0, 55, 79
2, 608352, Note_on_c, 0, 57, 79
2, 609792, Note_off_c, 0, 41, 80
2, 609792, Note_on_c, 0, 41, 79
2, 611328, Note_off_c, 0, 57, 80
2, 611328, Note_off_c, 0, 55, 80
2, 611328, Note_off_c, 0, 48, 80
2, 611328, Note_on_c, 0, 48, 79
2, 611360, Note_on_c, 0, 55, 79
2, 611392, Note_on_c, 0, 57, 79
2, 612864, Note_off_c, 0, 48, 80
2, 612864, Note_on_c, 0, 48, 79
2, 614400, Note_off_c, 0, 41, 80
2, 614400, Note_on_c, 0, 43, 79
2, 615168, Note_off_c, 0, 48, 80
2, 615168, Note_on_c, 0, 50, 79
2, 615936, Note_off_c, 0, 55, 80
2, 615936, Note_on_c, 0, 57, 79
2, 616704, Note_off_c, 0, 57, 80
2, 616704, Note_on_c, 0, 58, 79
2, 617472, Note_on_c, 0, 62, 79
2, 626688, Note_off_c, 0, 43, 80
2, 626688, Note_on_c, 0, 41, 79
2, 627456, Note_off_c, 0, 50, 80
2, 627456, Note_on_c, 0, 48, 79
2, 628224, Note_off_c, 0, 57, 80
2, 628224, Note_on_c, 0, 55, 79
2, 628992, Note_off_c, 0, 58, 80
2, 628992, Note_on_c, 0, 57, 79
2, 629760, Note_off_c, 0, 62, 80
2, 629760, Note_on_c, 0, 60, 79
2, 638976, Note_off_c, 0, 41, 80
2, 638976, Note_on_c, 0, 43, 79
2, 639744, Note_off_c, 0, 48, 80
2, 639744, Note_on_c, 0, 50, 79
2, 640512, Note_off_c, 0, 55, 80
2, 640512, Note_on_c, 0, 57, 79
2, 641280, Note_off_c, 0, 57, 80
2, 641280, Note_on_c, 0, 58, 79
2, 642048, Note_off_c, 0, 60, 80
2, 642048, Note_on_c, 0, 62, 79
2, 651264, Note_off_c, 0, 43, 80
2, 651264, Note_on_c, 0, 41, 79
2, 652032, Note_off_c, 0, 50, 80
2, 652032, Note_on_c, 0, 48, 79
2, 652800, Note_off_c, 0, 57, 80
2, 652800, Note_on_c, 0, 55, 79
2, 653568, Note_off_c, 0, 58, 80
2, 653568, Note_on_c, 0, 57, 79
2, 654336, Note_off_c, 0, 62, 80
2, 654336, Note_on_c, 0, 60, 79
2, 663552, Note_off_c, 0, 57, 80
2, 663552, Note_off_c, 0, 55, 80
2, 663552, Note_off_c, 0, 41, 80
2, 663552, Note_on_c, 0, 48, 79
2, 663584, Note_on_c, 0, 58, 79
2, 663616, Note_on_c, 0, 63, 79
2, 668160, Note_off_c, 0, 63, 80
2, 668160, Note_off_c, 0, 58, 80
2, 668160, Note_off_c, 0, 60, 80
2, 668160, Note_off_c, 0, 48, 80
2, 668160, Note_on_c, 0, 58, 79
2, 668192, Note_on_c, 0, 63, 79
2, 668224, Note_on_c, 0, 67, 79
2, 672000, Note_off_c, 0, 48, 80
2, 672000, Note_on_c, 0, 48, 79
2, 672768, Note_off_c, 0, 67, 80
2, 672768, Note_on_c, 0, 67, 79
2, 673536, Note_off_c, 0, 63, 80
2, 673536, Note_on_c, 0, 63, 79
2, 674304, Note_off_c, 0, 58, 80
2, 674304, Note_on_c, 0, 58, 79
2, 675840, Note_off_c, 0, 58, 80
2, 675840, Note_off_c, 0, 63, 80
2, 675840, Note_off_c, 0, 48, 80
2, 675840, Note_on_c, 0, 50, 79
2, 675872, Note_on_c, 0, 60, 79
2, 675904, Note_on_c, 0, 65, 79
2, 680448, Note_off_c, 0, 65, 80
2, 680448, Note_off_c, 0, 60, 80
2, 680448, Note_off_c, 0, 67, 80
2, 680448, Note_on_c, 0, 60, 79
2, 680480, Note_on_c, 0, 65, 79
2, 680512, Note_on_c, 0, 69, 79
2, 684288, Note_off_c, 0, 50, 80
2, 684288, Note_on_c, 0, 50, 79
2, 685056, Note_off_c, 0, 69, 80
2, 685056, Note_on_c, 0, 69, 79
2, 685440, Note_off_c, 0, 69, 80
2, 685440, Note_on_c, 0, 72, 63
2, 685824, Note_off_c, 0, 72, 80
2, 685824, Note_on_c, 0, 69, 63
2, 686592, Note_off_c, 0, 65, 80
2, 686592, Note_on_c, 0, 65, 79
2, 687360, Note_off_c, 0, 60, 80
2, 687360, Note_on_c, 0, 60, 79
2, 688128, Note_off_c, 0, 50, 80
2, 688128, Note_on_c, 0, 43, 79
2, 688896, Note_off_c, 0, 60, 80
2, 688896, Note_on_c, 0, 53, 79
2, 689664, Note_off_c, 0, 65, 80
2, 689664, Note_on_c, 0, 58, 79
2, 690432, Note_off_c, 0, 69, 80
2, 690432, Note_on_c, 0, 60, 79
2, 697344, Note_off_c, 0, 60, 80
2, 697344, Note_off_c, 0, 58, 80
2, 697344, Note_on_c, 0, 58, 79
2, 697376, Note_on_c, 0, 62, 79
2, 697408, Note_on_c, 0, 69, 79
2, 698368, Note_off_c, 0, 69, 80
2, 698368, Note_on_c, 0, 67, 63
2, 699392, Note_off_c, 0, 62, 80
2, 699392, Note_on_c, 0, 62, 79
2, 699904, Note_off_c, 0, 62, 80
2, 700416, Note_off_c, 0, 58, 80
2, 700416, Note_off_c, 0, 53, 80
2, 700416, Note_off_c, 0, 43, 80
2, 700416, Note_on_c, 0, 52, 79
2, 700448, Note_on_c, 0, 58, 79
2, 700480, Note_on_c, 0, 62, 79
2, 700512, Note_on_c, 0, 67, 79
2, 708864, Note_off_c, 0, 52, 80
2, 708864, Note_on_c, 0, 52, 79
2, 709632, Note_off_c, 0, 67, 80
2, 709632, Note_on_c, 0, 67, 79
2, 710400, Note_off_c, 0, 62, 80
2, 710400, Note_on_c, 0, 62, 79
2, 711168, Note_off_c, 0, 67, 80
2, 711168, Note_off_c, 0, 58, 80
2, 711168, Note_on_c, 0, 58, 79
2, 712704, Note_off_c, 0, 58, 80
2, 712704, Note_off_c, 0, 62, 80
2, 712704, Note_off_c, 0, 67, 80
2, 712704, Note_off_c, 0, 52, 80
2, 712704, Note_on_c, 0, 51, 79
2, 712736, Note_on_c, 0, 58, 79
2, 712768, Note_on_c, 0, 61, 79
2, 712800, Note_on_c, 0, 66, 79
2, 717312, Note_off_c, 0, 66, 80
2, 717312, Note_off_c, 0, 61, 80
2, 717312, Note_off_c, 0, 58, 80
2, 717312, Note_on_c, 0, 58, 79
2, 717344, Note_on_c, 0, 61, 79
2, 717376, Note_on_c, 0, 66, 79
2, 721920, Note_off_c, 0, 51, 80
2, 721920, Note_on_c, 0, 51, 79
2, 722688, Note_off_c, 0, 66, 80
2, 722688, Note_on_c, 0, 66, 79
2, 723456, Note_off_c, 0, 61, 80
2, 723456, Note_on_c, 0, 61, 79
2, 724224, Note_off_c, 0, 58, 80
2, 724224, Note_on_c, 0, 58, 79
2, 724992, Note_off_c, 0, 58, 80
2, 724992, Note_off_c, 0, 61, 80
2, 724992, Note_off_c, 0, 66, 80
2, 724992, Note_off_c, 0, 51, 80
2, 724992, Note_on_c, 0, 50, 79
2, 725024, Note_on_c, 0, 53, 79
2, 725056, Note_on_c, 0, 60, 79
2, 725088, Note_on_c, 0, 64, 79
2, 729600, Note_off_c, 0, 64, 80
2, 729600, Note_off_c, 0, 60, 80
2, 729600, Note_off_c, 0, 53, 80
2, 729600, Note_off_c, 0, 50, 80
2, 729600, Note_on_c, 0, 50, 79
2, 729632, Note_on_c, 0, 54, 79
2, 729664, Note_on_c, 0, 60, 79
2, 729696, Note_on_c, 0, 63, 79
2, 734208, Note_off_c, 0, 63, 80
2, 734208, Note_off_c, 0, 60, 80
2, 734208, Note_off_c, 0, 54, 80
2, 734208, Note_off_c, 0, 50, 80
2, 737280, End_track
3, 0, Start_track
3, 0, Title_t, "Distorted [Lead]"
3, 768, Control_c, 1, 100, 0
3, 768, Control_c, 1, 101, 0
3, 768, Control_c, 1, 6, 12
3, 768, Pitch_bend_c, 1, 8192
3, 768, Control_c, 1, 38, 0
3, 768, Program_c, 1, 29
3, 768, Control_c, 1, 0, 0
3, 768, Control_c, 1, 7, 127
3, 768, Control_c, 1, 10, 55
3, 768, Control_c, 1, 93, 0
3, 768, Control_c, 1, 91, 0
3, 768, Control_c, 1, 92, 0
3, 768, Control_c, 1, 95, 0
3, 22272, Note_on_c, 1, 54, 111
3, 22886, Pitch_bend_c, 1, 8832
3, 23040, Pitch_bend_c, 1, 8832
3, 23552, Note_off_c, 1, 54, 80
3, 23552, Pitch_bend_c, 1, 8192
3, 23552, Note_on_c, 1, 58, 111
3, 24064, Note_off_c, 1, 58, 80
3, 24064, Note_on_c, 1, 60, 111
3, 24576, Note_off_c, 1, 60, 80
3, 24576, Note_on_c, 1, 62, 111
3, 25344, Note_off_c, 1, 62, 80
3, 25344, Note_on_c, 1, 61, 111
3, 25958, Pitch_bend_c, 1, 8832
3, 26112, Pitch_bend_c, 1, 8832
3, 34816, Note_off_c, 1, 61, 80
3, 34816, Pitch_bend_c, 1, 8192
3, 34816, Note_on_c, 1, 65, 111
3, 35840, Note_off_c, 1, 65, 80
3, 35840, Note_on_c, 1, 67, 89
3, 36352, Note_off_c, 1, 67, 80
3, 36864, Note_on_c, 1, 61, 111
3, 37248, Note_off_c, 1, 61, 80
3, 37248, Note_on_c, 1, 60, 89
3, 37632, Note_off_c, 1, 60, 80
3, 37632, Note_on_c, 1, 58, 89
3, 38400, Note_off_c, 1, 58, 80
3, 38400, Note_on_c, 1, 60, 111
3, 45312, Note_off_c, 1, 60, 80
3, 45312, Note_on_c, 1, 58, 111
3, 45568, Note_off_c, 1, 58, 80
3, 45568, Note_on_c, 1, 60, 89
3, 45824, Note_off_c, 1, 60, 80
3, 45824, Note_on_c, 1, 58, 89
3, 46080, Note_off_c, 1, 58, 80
3, 46080, Note_on_c, 1, 57, 89
3, 47104, Note_off_c, 1, 57, 80
3, 47104, Note_on_c, 1, 58, 89
3, 48128, Note_off_c, 1, 58, 80
3, 48128, Note_on_c, 1, 60, 111
3, 49152, Note_off_c, 1, 60, 80
3, 49152, Note_on_c, 1, 55, 79
3, 49843, Pitch_bend_c, 1, 8832
3, 49920, Pitch_bend_c, 1, 9600
3, 50688, Note_off_c, 1, 55, 80
3, 50688, Pitch_bend_c, 1, 8192
3, 50688, Note_on_c, 1, 58, 79
3, 50944, Note_off_c, 1, 58, 80
3, 50944, Note_on_c, 1, 57, 63
3, 51200, Note_off_c, 1, 57, 80
3, 51200, Note_on_c, 1, 55, 63
3, 51456, Note_off_c, 1, 55, 80
3, 51456, Note_on_c, 1, 57, 63
3, 59520, Note_off_c, 1, 57, 80
3, 60288, Note_on_c, 1, 55, 79
3, 60288, Pitch_bend_c, 1, 6784
3, 60480, Pitch_bend_c, 1, 7552
3, 60672, Pitch_bend_c, 1, 8192
3, 61017, Pitch_bend_c, 1, 7552
3, 61056, Pitch_bend_c, 1, 6784
3, 61401, Pitch_bend_c, 1, 7424
3, 61440, Pitch_bend_c, 1, 8192
3, 62208, Note_off_c, 1, 55, 80
3, 62208, Pitch_bend_c, 1, 8192
3, 62208, Note_on_c, 1, 53, 79
3, 69888, Note_off_c, 1, 53, 80
3, 69888, Note_on_c, 1, 79, 79
3, 70144, Note_off_c, 1, 79, 80
3, 70144, Note_on_c, 1, 74, 79
3, 70400, Note_off_c, 1, 74, 80
3, 70400, Note_on_c, 1, 70, 79
3, 70656, Note_off_c, 1, 70, 80
3, 70656, Note_on_c, 1, 55, 38
3, 71424, Pitch_bend_c, 1, 7552
3, 71750, Pitch_bend_c, 1, 6784
3, 72083, Pitch_bend_c, 1, 6144
3, 72409, Pitch_bend_c, 1, 5504
3, 72742, Pitch_bend_c, 1, 4736
3, 73068, Pitch_bend_c, 1, 4096
3, 73401, Pitch_bend_c, 1, 3456
3, 73728, Note_off_c, 1, 55, 80
3, 73728, Pitch_bend_c, 1, 8192
3, 77312, Note_on_c, 1, 61, 79
3, 77721, Pitch_bend_c, 1, 8832
3, 77824, Pitch_bend_c, 1, 8832
3, 78848, Note_off_c, 1, 61, 80
3, 78848, Pitch_bend_c, 1, 8192
3, 78848, Note_on_c, 1, 67, 79
3, 79360, Note_off_c, 1, 67, 80
3, 79872, Note_on_c, 1, 67, 79
3, 80563, Pitch_bend_c, 1, 8832
3, 80640, Pitch_bend_c, 1, 9600
3, 80659, Pitch_bend_c, 1, 9600
3, 80678, Pitch_bend_c, 1, 9600
3, 80691, Pitch_bend_c, 1, 9600
3, 80710, Pitch_bend_c, 1, 9600
3, 80729, Pitch_bend_c, 1, 9600
3, 80748, Pitch_bend_c, 1, 9472
3, 80768, Pitch_bend_c, 1, 9472
3, 80780, Pitch_bend_c, 1, 9472
3, 80800, Pitch_bend_c, 1, 9472
3, 80819, Pitch_bend_c, 1, 9472
3, 80838, Pitch_bend_c, 1, 9600
3, 80857, Pitch_bend_c, 1, 9600
3, 80876, Pitch_bend_c, 1, 9600
3, 80889, Pitch_bend_c, 1, 9600
3, 80908, Pitch_bend_c, 1, 9600
3, 80928, Pitch_bend_c, 1, 9600
3, 80947, Pitch_bend_c, 1, 9600
3, 80966, Pitch_bend_c, 1, 9600
3, 80979, Pitch_bend_c, 1, 9600
3, 80998, Pitch_bend_c, 1, 9600
3, 81017, Pitch_bend_c, 1, 9600
3, 81036, Pitch_bend_c, 1, 9728
3, 81056, Pitch_bend_c, 1, 9728
3, 81075, Pitch_bend_c, 1, 9728
3, 81088, Pitch_bend_c, 1, 9728
3, 81107, Pitch_bend_c, 1, 9728
3, 81126, Pitch_bend_c, 1, 9600
3, 81145, Pitch_bend_c, 1, 9600
3, 81164, Pitch_bend_c, 1, 9600
3, 81177, Pitch_bend_c, 1, 9600
3, 81196, Pitch_bend_c, 1, 9600
3, 81216, Pitch_bend_c, 1, 9600
3, 81235, Pitch_bend_c, 1, 9600
3, 81254, Pitch_bend_c, 1, 9728
3, 81267, Pitch_bend_c, 1, 9728
3, 81286, Pitch_bend_c, 1, 9728
3, 81305, Pitch_bend_c, 1, 9728
3, 81324, Pitch_bend_c, 1, 9856
3, 81344, Pitch_bend_c, 1, 9856
3, 81356, Pitch_bend_c, 1, 9856
3, 81376, Pitch_bend_c, 1, 9856
3, 81395, Pitch_bend_c, 1, 9856
3, 81414, Pitch_bend_c, 1, 9728
3, 81433, Pitch_bend_c, 1, 9728
3, 81452, Pitch_bend_c, 1, 9728
3, 81465, Pitch_bend_c, 1, 9728
3, 81484, Pitch_bend_c, 1, 9600
3, 81504, Pitch_bend_c, 1, 9600
3, 81523, Pitch_bend_c, 1, 9600
3, 81542, Pitch_bend_c, 1, 9472
3, 81555, Pitch_bend_c, 1, 9472
3, 81574, Pitch_bend_c, 1, 9472
3, 81593, Pitch_bend_c, 1, 9472
3, 81612, Pitch_bend_c, 1, 9344
3, 81632, Pitch_bend_c, 1, 9344
3, 81651, Pitch_bend_c, 1, 9344
3, 81664, Pitch_bend_c, 1, 9344
3, 81683, Pitch_bend_c, 1, 9344
3, 81702, Pitch_bend_c, 1, 9472
3, 81721, Pitch_bend_c, 1, 9472
3, 81740, Pitch_bend_c, 1, 9472
3, 81753, Pitch_bend_c, 1, 9472
3, 81772, Pitch_bend_c, 1, 9600
3, 81792, Pitch_bend_c, 1, 9600
3, 81811, Pitch_bend_c, 1, 9600
3, 81830, Pitch_bend_c, 1, 9728
3, 81843, Pitch_bend_c, 1, 9728
3, 81862, Pitch_bend_c, 1, 9728
3, 81881, Pitch_bend_c, 1, 9856
3, 81900, Pitch_bend_c, 1, 9856
3, 81920, Pitch_bend_c, 1, 9856
3, 81932, Pitch_bend_c, 1, 9856
3, 81952, Pitch_bend_c, 1, 9856
3, 81971, Pitch_bend_c, 1, 9856
3, 81990, Pitch_bend_c, 1, 9856
3, 82009, Pitch_bend_c, 1, 9728
3, 82028, Pitch_bend_c, 1, 9728
3, 82041, Pitch_bend_c, 1, 9728
3, 82060, Pitch_bend_c, 1, 9600
3, 82080, Pitch_bend_c, 1, 9600
3, 82099, Pitch_bend_c, 1, 9600
3, 82118, Pitch_bend_c, 1, 9472
3, 82131, Pitch_bend_c, 1, 9472
3, 82150, Pitch_bend_c, 1, 9472
3, 82169, Pitch_bend_c, 1, 9344
3, 82188, Pitch_bend_c, 1, 9344
3, 82208, Pitch_bend_c, 1, 9344
3, 82227, Pitch_bend_c, 1, 9344
3, 82240, Pitch_bend_c, 1, 9344
3, 82259, Pitch_bend_c, 1, 9344
3, 82278, Pitch_bend_c, 1, 9344
3, 82297, Pitch_bend_c, 1, 9472
3, 82316, Pitch_bend_c, 1, 9472
3, 82329, Pitch_bend_c, 1, 9472
3, 82348, Pitch_bend_c, 1, 9600
3, 82368, Pitch_bend_c, 1, 9600
3, 82387, Pitch_bend_c, 1, 9600
3, 82406, Pitch_bend_c, 1, 9728
3, 82419, Pitch_bend_c, 1, 9728
3, 82438, Pitch_bend_c, 1, 9728
3, 82457, Pitch_bend_c, 1, 9728
3, 82476, Pitch_bend_c, 1, 9856
3, 82496, Pitch_bend_c, 1, 9856
3, 82508, Pitch_bend_c, 1, 9856
3, 82528, Pitch_bend_c, 1, 9856
3, 82547, Pitch_bend_c, 1, 9856
3, 82566, Pitch_bend_c, 1, 9728
3, 82585, Pitch_bend_c, 1, 9728
3, 82604, Pitch_bend_c, 1, 9728
3, 82617, Pitch_bend_c, 1, 9728
3, 82636, Pitch_bend_c, 1, 9600
3, 82656, Pitch_bend_c, 1, 9600
3, 82675, Pitch_bend_c, 1, 9600
3, 82694, Pitch_bend_c, 1, 9472
3, 82707, Pitch_bend_c, 1, 9472
3, 82726, Pitch_bend_c, 1, 9472
3, 82745, Pitch_bend_c, 1, 9472
3, 82764, Pitch_bend_c, 1, 9344
3, 82784, Pitch_bend_c, 1, 9344
3, 82803, Pitch_bend_c, 1, 9344
3, 82816, Pitch_bend_c, 1, 9344
3, 82835, Pitch_bend_c, 1, 9344
3, 82854, Pitch_bend_c, 1, 9472
3, 82873, Pitch_bend_c, 1, 9472
3, 82892, Pitch_bend_c, 1, 9472
3, 82905, Pitch_bend_c, 1, 9472
3, 82924, Pitch_bend_c, 1, 9600
3, 82944, Pitch_bend_c, 1, 9600
3, 82963, Pitch_bend_c, 1, 9600
3, 82982, Pitch_bend_c, 1, 9600
3, 82995, Pitch_bend_c, 1, 9600
3, 83014, Pitch_bend_c, 1, 9600
3, 83033, Pitch_bend_c, 1, 9600
3, 83052, Pitch_bend_c, 1, 9600
3, 83072, Pitch_bend_c, 1, 9600
3, 83084, Pitch_bend_c, 1, 9600
3, 83104, Pitch_bend_c, 1, 9600
3, 83123, Pitch_bend_c, 1, 9600
3, 83142, Pitch_bend_c, 1, 9600
3, 83161, Pitch_bend_c, 1, 9600
3, 83180, Pitch_bend_c, 1, 9600
3, 83193, Pitch_bend_c, 1, 9600
3, 83212, Pitch_bend_c, 1, 9600
3, 83232, Pitch_bend_c, 1, 9600
3, 83251, Pitch_bend_c, 1, 9600
3, 83270, Pitch_bend_c, 1, 9600
3, 83283, Pitch_bend_c, 1, 9600
3, 83302, Pitch_bend_c, 1, 9600
3, 83321, Pitch_bend_c, 1, 9600
3, 83340, Pitch_bend_c, 1, 9600
3, 83360, Pitch_bend_c, 1, 9600
3, 83379, Pitch_bend_c, 1, 9600
3, 83392, Pitch_bend_c, 1, 9600
3, 83411, Pitch_bend_c, 1, 9600
3, 83430, Pitch_bend_c, 1, 9600
3, 83449, Pitch_bend_c, 1, 9600
3, 83468, Pitch_bend_c, 1, 9600
3, 83481, Pitch_bend_c, 1, 9600
3, 83500, Pitch_bend_c, 1, 9600
3, 83520, Pitch_bend_c, 1, 9600
3, 83539, Pitch_bend_c, 1, 9728
3, 83558, Pitch_bend_c, 1, 9728
3, 83571, Pitch_bend_c, 1, 9728
3, 83590, Pitch_bend_c, 1, 9856
3, 83609, Pitch_bend_c, 1, 9856
3, 83628, Pitch_bend_c, 1, 9856
3, 83648, Pitch_bend_c, 1, 9856
3, 83660, Pitch_bend_c, 1, 9856
3, 83680, Pitch_bend_c, 1, 9856
3, 83699, Pitch_bend_c, 1, 9856
3, 83718, Pitch_bend_c, 1, 9856
3, 83737, Pitch_bend_c, 1, 9856
3, 83756, Pitch_bend_c, 1, 9728
3, 83769, Pitch_bend_c, 1, 9728
3, 83788, Pitch_bend_c, 1, 9728
3, 83808, Pitch_bend_c, 1, 9600
3, 83827, Pitch_bend_c, 1, 9472
3, 83846, Pitch_bend_c, 1, 9472
3, 83859, Pitch_bend_c, 1, 9472
3, 83878, Pitch_bend_c, 1, 9344
3, 83897, Pitch_bend_c, 1, 9344
3, 83916, Pitch_bend_c, 1, 9344
3, 83936, Pitch_bend_c, 1, 9344
3, 83955, Pitch_bend_c, 1, 9344
3, 83968, Pitch_bend_c, 1, 9344
3, 83987, Pitch_bend_c, 1, 9344
3, 84006, Pitch_bend_c, 1, 9344
3, 84025, Pitch_bend_c, 1, 9344
3, 84044, Pitch_bend_c, 1, 9472
3, 84057, Pitch_bend_c, 1, 9472
3, 84076, Pitch_bend_c, 1, 9472
3, 84096, Pitch_bend_c, 1, 9600
3, 84115, Pitch_bend_c, 1, 9600
3, 84134, Pitch_bend_c, 1, 9728
3, 84147, Pitch_bend_c, 1, 9728
3, 84166, Pitch_bend_c, 1, 9728
3, 84185, Pitch_bend_c, 1, 9728
3, 84204, Pitch_bend_c, 1, 9728
3, 84224, Pitch_bend_c, 1, 9728
3, 84236, Pitch_bend_c, 1, 9728
3, 84256, Pitch_bend_c, 1, 9728
3, 84275, Pitch_bend_c, 1, 9728
3, 84294, Pitch_bend_c, 1, 9728
3, 84313, Pitch_bend_c, 1, 9728
3, 84332, Pitch_bend_c, 1, 9728
3, 84345, Pitch_bend_c, 1, 9728
3, 84364, Pitch_bend_c, 1, 9600
3, 84384, Pitch_bend_c, 1, 9600
3, 84403, Pitch_bend_c, 1, 9600
3, 84422, Pitch_bend_c, 1, 9472
3, 84435, Pitch_bend_c, 1, 9472
3, 84454, Pitch_bend_c, 1, 9472
3, 84473, Pitch_bend_c, 1, 9472
3, 84480, Pitch_bend_c, 1, 9600
3, 85171, Pitch_bend_c, 1, 8960
3, 85248, Pitch_bend_c, 1, 8192
3, 86016, Note_off_c, 1, 67, 80
3, 86016, Pitch_bend_c, 1, 8192
3, 86016, Note_on_c, 1, 62, 79
3, 86035, Pitch_bend_c, 1, 8192
3, 86054, Pitch_bend_c, 1, 8192
3, 86067, Pitch_bend_c, 1, 8192
3, 86086, Pitch_bend_c, 1, 8192
3, 86105, Pitch_bend_c, 1, 8192
3, 86124, Pitch_bend_c, 1, 8192
3, 86144, Pitch_bend_c, 1, 8192
3, 86156, Pitch_bend_c, 1, 8192
3, 86176, Pitch_bend_c, 1, 8192
3, 86195, Pitch_bend_c, 1, 8192
3, 86214, Pitch_bend_c, 1, 8192
3, 86233, Pitch_bend_c, 1, 8192
3, 86252, Pitch_bend_c, 1, 8192
3, 86265, Pitch_bend_c, 1, 8192
3, 86284, Pitch_bend_c, 1, 8192
3, 86304, Pitch_bend_c, 1, 8192
3, 86323, Pitch_bend_c, 1, 8192
3, 86342, Pitch_bend_c, 1, 8192
3, 86355, Pitch_bend_c, 1, 8192
3, 86374, Pitch_bend_c, 1, 8192
3, 86393, Pitch_bend_c, 1, 8192
3, 86412, Pitch_bend_c, 1, 8192
3, 86432, Pitch_bend_c, 1, 8192
3, 86451, Pitch_bend_c, 1, 8192
3, 86464, Pitch_bend_c, 1, 8192
3, 86483, Pitch_bend_c, 1, 8192
3, 86502, Pitch_bend_c, 1, 8192
3, 86521, Pitch_bend_c, 1, 8192
3, 86540, Pitch_bend_c, 1, 8192
3, 86553, Pitch_bend_c, 1, 8192
3, 86572, Pitch_bend_c, 1, 8192
3, 86592, Pitch_bend_c, 1, 8192
3, 86611, Pitch_bend_c, 1, 8192
3, 86630, Pitch_bend_c, 1, 8320
3, 86643, Pitch_bend_c, 1, 8320
3, 86662, Pitch_bend_c, 1, 8320
3, 86681, Pitch_bend_c, 1, 8320
3, 86700, Pitch_bend_c, 1, 8320
3, 86720, Pitch_bend_c, 1, 8320
3, 86732, Pitch_bend_c, 1, 8320
3, 86752, Pitch_bend_c, 1, 8320
3, 86771, Pitch_bend_c, 1, 8320
3, 86790, Pitch_bend_c, 1, 8320
3, 86809, Pitch_bend_c, 1, 8320
3, 86828, Pitch_bend_c, 1, 8320
3, 86841, Pitch_bend_c, 1, 8320
3, 86860, Pitch_bend_c, 1, 8192
3, 86880, Pitch_bend_c, 1, 8192
3, 86899, Pitch_bend_c, 1, 8192
3, 86918, Pitch_bend_c, 1, 8064
3, 86931, Pitch_bend_c, 1, 8064
3, 86950, Pitch_bend_c, 1, 8064
3, 86969, Pitch_bend_c, 1, 8064
3, 86988, Pitch_bend_c, 1, 8064
3, 87008, Pitch_bend_c, 1, 8064
3, 87027, Pitch_bend_c, 1, 8064
3, 87040, Pitch_bend_c, 1, 8064
3, 87059, Pitch_bend_c, 1, 8064
3, 87078, Pitch_bend_c, 1, 8064
3, 87097, Pitch_bend_c, 1, 8064
3, 87116, Pitch_bend_c, 1, 8064
3, 87129, Pitch_bend_c, 1, 8064
3, 87148, Pitch_bend_c, 1, 8192
3, 87168, Pitch_bend_c, 1, 8192
3, 87187, Pitch_bend_c, 1, 8192
3, 87206, Pitch_bend_c, 1, 8320
3, 87219, Pitch_bend_c, 1, 8320
3, 87238, Pitch_bend_c, 1, 8320
3, 87257, Pitch_bend_c, 1, 8320
3, 87276, Pitch_bend_c, 1, 8448
3, 87296, Pitch_bend_c, 1, 8448
3, 87308, Pitch_bend_c, 1, 8448
3, 87328, Pitch_bend_c, 1, 8448
3, 87347, Pitch_bend_c, 1, 8448
3, 87366, Pitch_bend_c, 1, 8320
3, 87385, Pitch_bend_c, 1, 8320
3, 87404, Pitch_bend_c, 1, 8320
3, 87417, Pitch_bend_c, 1, 8320
3, 87436, Pitch_bend_c, 1, 8192
3, 87456, Pitch_bend_c, 1, 8192
3, 87475, Pitch_bend_c, 1, 8192
3, 87494, Pitch_bend_c, 1, 8064
3, 87507, Pitch_bend_c, 1, 8064
3, 87526, Pitch_bend_c, 1, 8064
3, 87545, Pitch_bend_c, 1, 8064
3, 87564, Pitch_bend_c, 1, 7936
3, 87584, Pitch_bend_c, 1, 7936
3, 87603, Pitch_bend_c, 1, 7936
3, 87616, Pitch_bend_c, 1, 7936
3, 87635, Pitch_bend_c, 1, 7936
3, 87654, Pitch_bend_c, 1, 8064
3, 87673, Pitch_bend_c, 1, 8064
3, 87692, Pitch_bend_c, 1, 8064
3, 87705, Pitch_bend_c, 1, 8064
3, 87724, Pitch_bend_c, 1, 8192
3, 87744, Pitch_bend_c, 1, 8192
3, 87763, Pitch_bend_c, 1, 8192
3, 87782, Pitch_bend_c, 1, 8320
3, 87795, Pitch_bend_c, 1, 8320
3, 87814, Pitch_bend_c, 1, 8320
3, 87833, Pitch_bend_c, 1, 8320
3, 87852, Pitch_bend_c, 1, 8320
3, 87872, Pitch_bend_c, 1, 8320
3, 87884, Pitch_bend_c, 1, 8320
3, 87904, Pitch_bend_c, 1, 8320
3, 87923, Pitch_bend_c, 1, 8320
3, 87942, Pitch_bend_c, 1, 8320
3, 87961, Pitch_bend_c, 1, 8320
3, 87980, Pitch_bend_c, 1, 8320
3, 87993, Pitch_bend_c, 1, 8320
3, 88012, Pitch_bend_c, 1, 8192
3, 88032, Pitch_bend_c, 1, 8192
3, 88051, Pitch_bend_c, 1, 8192
3, 88070, Pitch_bend_c, 1, 8064
3, 88083, Pitch_bend_c, 1, 8064
3, 88102, Pitch_bend_c, 1, 8064
3, 88121, Pitch_bend_c, 1, 8064
3, 88140, Pitch_bend_c, 1, 8064
3, 88160, Pitch_bend_c, 1, 8064
3, 88179, Pitch_bend_c, 1, 8064
3, 88192, Pitch_bend_c, 1, 8064
3, 88211, Pitch_bend_c, 1, 8064
3, 88230, Pitch_bend_c, 1, 8064
3, 88249, Pitch_bend_c, 1, 8064
3, 88268, Pitch_bend_c, 1, 8064
3, 88281, Pitch_bend_c, 1, 8064
3, 88300, Pitch_bend_c, 1, 8192
3, 88320, Pitch_bend_c, 1, 8192
3, 88339, Pitch_bend_c, 1, 8192
3, 88358, Pitch_bend_c, 1, 8320
3, 88371, Pitch_bend_c, 1, 8320
3, 88390, Pitch_bend_c, 1, 8320
3, 88409, Pitch_bend_c, 1, 8320
3, 88428, Pitch_bend_c, 1, 8320
3, 88448, Pitch_bend_c, 1, 8448
3, 88460, Pitch_bend_c, 1, 8448
3, 88480, Pitch_bend_c, 1, 8448
3, 88499, Pitch_bend_c, 1, 8320
3, 88518, Pitch_bend_c, 1, 8320
3, 88537, Pitch_bend_c, 1, 8320
3, 88556, Pitch_bend_c, 1, 8320
3, 88569, Pitch_bend_c, 1, 8320
3, 88588, Pitch_bend_c, 1, 8192
3, 88608, Pitch_bend_c, 1, 8192
3, 88627, Pitch_bend_c, 1, 8192
3, 88646, Pitch_bend_c, 1, 8064
3, 88659, Pitch_bend_c, 1, 8064
3, 88678, Pitch_bend_c, 1, 8064
3, 88697, Pitch_bend_c, 1, 8064
3, 88716, Pitch_bend_c, 1, 8064
3, 88736, Pitch_bend_c, 1, 7936
3, 88755, Pitch_bend_c, 1, 7936
3, 88768, Pitch_bend_c, 1, 7936
3, 88787, Pitch_bend_c, 1, 8064
3, 88806, Pitch_bend_c, 1, 8064
3, 88825, Pitch_bend_c, 1, 8064
3, 88844, Pitch_bend_c, 1, 8064
3, 88857, Pitch_bend_c, 1, 8064
3, 88876, Pitch_bend_c, 1, 8192
3, 88896, Pitch_bend_c, 1, 8192
3, 88915, Pitch_bend_c, 1, 8192
3, 88934, Pitch_bend_c, 1, 8192
3, 88947, Pitch_bend_c, 1, 8192
3, 88966, Pitch_bend_c, 1, 8192
3, 88985, Pitch_bend_c, 1, 8192
3, 89004, Pitch_bend_c, 1, 8320
3, 89024, Pitch_bend_c, 1, 8320
3, 89036, Pitch_bend_c, 1, 8320
3, 89056, Pitch_bend_c, 1, 8320
3, 89075, Pitch_bend_c, 1, 8320
3, 89088, Pitch_bend_c, 1, 8192
3, 89779, Pitch_bend_c, 1, 7552
3, 89856, Pitch_bend_c, 1, 6784
3, 89875, Pitch_bend_c, 1, 6784
3, 89894, Pitch_bend_c, 1, 6784
3, 89907, Pitch_bend_c, 1, 6784
3, 89926, Pitch_bend_c, 1, 6784
3, 89945, Pitch_bend_c, 1, 6784
3, 89964, Pitch_bend_c, 1, 6784
3, 89984, Pitch_bend_c, 1, 6784
3, 89996, Pitch_bend_c, 1, 6784
3, 90016, Pitch_bend_c, 1, 6784
3, 90035, Pitch_bend_c, 1, 6784
3, 90054, Pitch_bend_c, 1, 6784
3, 90073, Pitch_bend_c, 1, 6784
3, 90092, Pitch_bend_c, 1, 6784
3, 90105, Pitch_bend_c, 1, 6784
3, 90124, Pitch_bend_c, 1, 6784
3, 90144, Pitch_bend_c, 1, 6784
3, 90163, Pitch_bend_c, 1, 6784
3, 90182, Pitch_bend_c, 1, 6784
3, 90195, Pitch_bend_c, 1, 6784
3, 90214, Pitch_bend_c, 1, 6784
3, 90233, Pitch_bend_c, 1, 6784
3, 90252, Pitch_bend_c, 1, 6784
3, 90272, Pitch_bend_c, 1, 6784
3, 90291, Pitch_bend_c, 1, 6784
3, 90304, Pitch_bend_c, 1, 6784
3, 90323, Pitch_bend_c, 1, 6784
3, 90342, Pitch_bend_c, 1, 6784
3, 90361, Pitch_bend_c, 1, 6784
3, 90380, Pitch_bend_c, 1, 6784
3, 90393, Pitch_bend_c, 1, 6784
3, 90412, Pitch_bend_c, 1, 6784
3, 90432, Pitch_bend_c, 1, 6784
3, 90451, Pitch_bend_c, 1, 6784
3, 90470, Pitch_bend_c, 1, 6912
3, 90483, Pitch_bend_c, 1, 6912
3, 90502, Pitch_bend_c, 1, 6912
3, 90521, Pitch_bend_c, 1, 7040
3, 90540, Pitch_bend_c, 1, 7040
3, 90560, Pitch_bend_c, 1, 7040
3, 90572, Pitch_bend_c, 1, 7040
3, 90592, Pitch_bend_c, 1, 7040
3, 90611, Pitch_bend_c, 1, 7040
3, 90630, Pitch_bend_c, 1, 7040
3, 90649, Pitch_bend_c, 1, 6912
3, 90668, Pitch_bend_c, 1, 6912
3, 90681, Pitch_bend_c, 1, 6912
3, 90700, Pitch_bend_c, 1, 6784
3, 90720, Pitch_bend_c, 1, 6784
3, 90739, Pitch_bend_c, 1, 6784
3, 90758, Pitch_bend_c, 1, 6656
3, 90771, Pitch_bend_c, 1, 6656
3, 90790, Pitch_bend_c, 1, 6656
3, 90809, Pitch_bend_c, 1, 6528
3, 90828, Pitch_bend_c, 1, 6528
3, 90848, Pitch_bend_c, 1, 6528
3, 90867, Pitch_bend_c, 1, 6528
3, 90880, Pitch_bend_c, 1, 6528
3, 90899, Pitch_bend_c, 1, 6528
3, 90918, Pitch_bend_c, 1, 6528
3, 90937, Pitch_bend_c, 1, 6656
3, 90956, Pitch_bend_c, 1, 6656
3, 90969, Pitch_bend_c, 1, 6656
3, 90988, Pitch_bend_c, 1, 6784
3, 91008, Pitch_bend_c, 1, 6784
3, 91027, Pitch_bend_c, 1, 6784
3, 91046, Pitch_bend_c, 1, 6912
3, 91059, Pitch_bend_c, 1, 6912
3, 91078, Pitch_bend_c, 1, 6912
3, 91097, Pitch_bend_c, 1, 6912
3, 91116, Pitch_bend_c, 1, 6912
3, 91136, Pitch_bend_c, 1, 6912
3, 91148, Pitch_bend_c, 1, 6912
3, 91168, Pitch_bend_c, 1, 6912
3, 91187, Pitch_bend_c, 1, 6912
3, 91206, Pitch_bend_c, 1, 6912
3, 91225, Pitch_bend_c, 1, 6912
3, 91244, Pitch_bend_c, 1, 6912
3, 91257, Pitch_bend_c, 1, 6912
3, 91276, Pitch_bend_c, 1, 6784
3, 91296, Pitch_bend_c, 1, 6784
3, 91315, Pitch_bend_c, 1, 6784
3, 91334, Pitch_bend_c, 1, 6656
3, 91347, Pitch_bend_c, 1, 6656
3, 91366, Pitch_bend_c, 1, 6656
3, 91385, Pitch_bend_c, 1, 6656
3, 91404, Pitch_bend_c, 1, 6656
3, 91424, Pitch_bend_c, 1, 6656
3, 91443, Pitch_bend_c, 1, 6656
3, 91456, Pitch_bend_c, 1, 6656
3, 91475, Pitch_bend_c, 1, 6656
3, 91494, Pitch_bend_c, 1, 6656
3, 91513, Pitch_bend_c, 1, 6656
3, 91532, Pitch_bend_c, 1, 6656
3, 91545, Pitch_bend_c, 1, 6656
3, 91564, Pitch_bend_c, 1, 6784
3, 91584, Pitch_bend_c, 1, 6784
3, 91603, Pitch_bend_c, 1, 6784
3, 91622, Pitch_bend_c, 1, 6912
3, 91635, Pitch_bend_c, 1, 6912
3, 91654, Pitch_bend_c, 1, 6912
3, 91673, Pitch_bend_c, 1, 6912
3, 91692, Pitch_bend_c, 1, 6912
3, 91712, Pitch_bend_c, 1, 7040
3, 91724, Pitch_bend_c, 1, 7040
3, 91744, Pitch_bend_c, 1, 7040
3, 91763, Pitch_bend_c, 1, 6912
3, 91782, Pitch_bend_c, 1, 6912
3, 91801, Pitch_bend_c, 1, 6912
3, 91820, Pitch_bend_c, 1, 6912
3, 91833, Pitch_bend_c, 1, 6912
3, 91852, Pitch_bend_c, 1, 6784
3, 91872, Pitch_bend_c, 1, 6784
3, 91891, Pitch_bend_c, 1, 6784
3, 91910, Pitch_bend_c, 1, 6656
3, 91923, Pitch_bend_c, 1, 6656
3, 91942, Pitch_bend_c, 1, 6656
3, 91961, Pitch_bend_c, 1, 6656
3, 91980, Pitch_bend_c, 1, 6656
3, 92000, Pitch_bend_c, 1, 6528
3, 92019, Pitch_bend_c, 1, 6528
3, 92032, Pitch_bend_c, 1, 6528
3, 92051, Pitch_bend_c, 1, 6656
3, 92070, Pitch_bend_c, 1, 6656
3, 92089, Pitch_bend_c, 1, 6656
3, 92108, Pitch_bend_c, 1, 6656
3, 92121, Pitch_bend_c, 1, 6656
3, 92140, Pitch_bend_c, 1, 6784
3, 92160, Pitch_bend_c, 1, 6784
3, 92179, Pitch_bend_c, 1, 6784
3, 92198, Pitch_bend_c, 1, 6784
3, 92211, Pitch_bend_c, 1, 6784
3, 92230, Pitch_bend_c, 1, 6784
3, 92249, Pitch_bend_c, 1, 6784
3, 92268, Pitch_bend_c, 1, 6784
3, 92288, Pitch_bend_c, 1, 6784
3, 92300, Pitch_bend_c, 1, 6784
3, 92320, Pitch_bend_c, 1, 6784
3, 92339, Pitch_bend_c, 1, 6784
3, 92358, Pitch_bend_c, 1, 6784
3, 92377, Pitch_bend_c, 1, 6784
3, 92396, Pitch_bend_c, 1, 6784
3, 92409, Pitch_bend_c, 1, 6784
3, 92428, Pitch_bend_c, 1, 6784
3, 92448, Pitch_bend_c, 1, 6784
3, 92467, Pitch_bend_c, 1, 6784
3, 92486, Pitch_bend_c, 1, 6784
3, 92499, Pitch_bend_c, 1, 6784
3, 92518, Pitch_bend_c, 1, 6784
3, 92537, Pitch_bend_c, 1, 6784
3, 92556, Pitch_bend_c, 1, 6784
3, 92576, Pitch_bend_c, 1, 6784
3, 92595, Pitch_bend_c, 1, 6784
3, 92608, Pitch_bend_c, 1, 6784
3, 92627, Pitch_bend_c, 1, 6784
3, 92646, Pitch_bend_c, 1, 6784
3, 92665, Pitch_bend_c, 1, 6784
3, 92684, Pitch_bend_c, 1, 6784
3, 92697, Pitch_bend_c, 1, 6784
3, 92716, Pitch_bend_c, 1, 6784
3, 92736, Pitch_bend_c, 1, 6784
3, 92755, Pitch_bend_c, 1, 6784
3, 92774, Pitch_bend_c, 1, 6912
3, 92787, Pitch_bend_c, 1, 6912
3, 92806, Pitch_bend_c, 1, 6912
3, 92825, Pitch_bend_c, 1, 7040
3, 92844, Pitch_bend_c, 1, 7040
3, 92864, Pitch_bend_c, 1, 7040
3, 92876, Pitch_bend_c, 1, 7040
3, 92896, Pitch_bend_c, 1, 7040
3, 92915, Pitch_bend_c, 1, 7040
3, 92934, Pitch_bend_c, 1, 7040
3, 92953, Pitch_bend_c, 1, 6912
3, 92972, Pitch_bend_c, 1, 6912
3, 92985, Pitch_bend_c, 1, 6912
3, 93004, Pitch_bend_c, 1, 6784
3, 93024, Pitch_bend_c, 1, 6784
3, 93043, Pitch_bend_c, 1, 6784
3, 93062, Pitch_bend_c, 1, 6656
3, 93075, Pitch_bend_c, 1, 6656
3, 93094, Pitch_bend_c, 1, 6656
3, 93113, Pitch_bend_c, 1, 6528
3, 93132, Pitch_bend_c, 1, 6528
3, 93152, Pitch_bend_c, 1, 6528
3, 93171, Pitch_bend_c, 1, 6528
3, 93184, Pitch_bend_c, 1, 6528
3, 93203, Pitch_bend_c, 1, 6528
3, 93222, Pitch_bend_c, 1, 6528
3, 93241, Pitch_bend_c, 1, 6656
3, 93260, Pitch_bend_c, 1, 6656
3, 93273, Pitch_bend_c, 1, 6656
3, 93292, Pitch_bend_c, 1, 6784
3, 93312, Pitch_bend_c, 1, 6784
3, 93331, Pitch_bend_c, 1, 6784
3, 93350, Pitch_bend_c, 1, 6912
3, 93363, Pitch_bend_c, 1, 6912
3, 93382, Pitch_bend_c, 1, 6912
3, 93401, Pitch_bend_c, 1, 7040
3, 93420, Pitch_bend_c, 1, 7040
3, 93440, Pitch_bend_c, 1, 7040
3, 93452, Pitch_bend_c, 1, 7040
3, 93472, Pitch_bend_c, 1, 7040
3, 93491, Pitch_bend_c, 1, 7040
3, 93510, Pitch_bend_c, 1, 7040
3, 93529, Pitch_bend_c, 1, 6912
3, 93548, Pitch_bend_c, 1, 6912
3, 93561, Pitch_bend_c, 1, 6912
3, 93580, Pitch_bend_c, 1, 6784
3, 93600, Pitch_bend_c, 1, 6784
3, 93619, Pitch_bend_c, 1, 6784
3, 93638, Pitch_bend_c, 1, 6656
3, 93651, Pitch_bend_c, 1, 6656
3, 93670, Pitch_bend_c, 1, 6656
3, 93689, Pitch_bend_c, 1, 6528
3, 93708, Pitch_bend_c, 1, 6528
3, 93728, Pitch_bend_c, 1, 6528
3, 93747, Pitch_bend_c, 1, 6528
3, 93760, Pitch_bend_c, 1, 6528
3, 93779, Pitch_bend_c, 1, 6528
3, 93798, Pitch_bend_c, 1, 6528
3, 93817, Pitch_bend_c, 1, 6656
3, 93836, Pitch_bend_c, 1, 6656
3, 93849, Pitch_bend_c, 1, 6656
3, 93868, Pitch_bend_c, 1, 6784
3, 93888, Pitch_bend_c, 1, 6784
3, 93907, Pitch_bend_c, 1, 6784
3, 93926, Pitch_bend_c, 1, 6912
3, 93939, Pitch_bend_c, 1, 6912
3, 93958, Pitch_bend_c, 1, 6912
3, 93977, Pitch_bend_c, 1, 7040
3, 93996, Pitch_bend_c, 1, 7040
3, 94016, Pitch_bend_c, 1, 7040
3, 94028, Pitch_bend_c, 1, 7040
3, 94048, Pitch_bend_c, 1, 7040
3, 94067, Pitch_bend_c, 1, 7040
3, 94086, Pitch_bend_c, 1, 7040
3, 94105, Pitch_bend_c, 1, 6912
3, 94124, Pitch_bend_c, 1, 6912
3, 94137, Pitch_bend_c, 1, 6912
3, 94156, Pitch_bend_c, 1, 6784
3, 94176, Pitch_bend_c, 1, 6784
3, 94195, Pitch_bend_c, 1, 6784
3, 94214, Pitch_bend_c, 1, 6656
3, 94227, Pitch_bend_c, 1, 6656
3, 94246, Pitch_bend_c, 1, 6656
3, 94265, Pitch_bend_c, 1, 6528
3, 94284, Pitch_bend_c, 1, 6528
3, 94304, Pitch_bend_c, 1, 6528
3, 94323, Pitch_bend_c, 1, 6528
3, 94336, Pitch_bend_c, 1, 6528
3, 94355, Pitch_bend_c, 1, 6528
3, 94374, Pitch_bend_c, 1, 6528
3, 94393, Pitch_bend_c, 1, 6656
3, 94412, Pitch_bend_c, 1, 6656
3, 94425, Pitch_bend_c, 1, 6656
3, 94444, Pitch_bend_c, 1, 6784
3, 94464, Pitch_bend_c, 1, 6784
3, 94483, Pitch_bend_c, 1, 6784
3, 94502, Pitch_bend_c, 1, 6912
3, 94515, Pitch_bend_c, 1, 6912
3, 94534, Pitch_bend_c, 1, 6912
3, 94553, Pitch_bend_c, 1, 7040
3, 94572, Pitch_bend_c, 1, 7040
3, 94592, Pitch_bend_c, 1, 7040
3, 94604, Pitch_bend_c, 1, 7040
3, 94624, Pitch_bend_c, 1, 7040
3, 94643, Pitch_bend_c, 1, 7040
3, 94662, Pitch_bend_c, 1, 7040
3, 94681, Pitch_bend_c, 1, 6912
3, 94700, Pitch_bend_c, 1, 6912
3, 94713, Pitch_bend_c, 1, 6912
3, 94732, Pitch_bend_c, 1, 6784
3, 94752, Pitch_bend_c, 1, 6784
3, 94771, Pitch_bend_c, 1, 6784
3, 94790, Pitch_bend_c, 1, 6656
3, 94803, Pitch_bend_c, 1, 6656
3, 94822, Pitch_bend_c, 1, 6656
3, 94841, Pitch_bend_c, 1, 6528
3, 94860, Pitch_bend_c, 1, 6528
3, 94880, Pitch_bend_c, 1, 6528
3, 94899, Pitch_bend_c, 1, 6528
3, 94912, Pitch_bend_c, 1, 6528
3, 94931, Pitch_bend_c, 1, 6528
3, 94950, Pitch_bend_c, 1, 6528
3, 94969, Pitch_bend_c, 1, 6656
3, 94988, Pitch_bend_c, 1, 6656
3, 95001, Pitch_bend_c, 1, 6656
3, 95020, Pitch_bend_c, 1, 6784
3, 95040, Pitch_bend_c, 1, 6784
3, 95059, Pitch_bend_c, 1, 6784
3, 95078, Pitch_bend_c, 1, 6912
3, 95091, Pitch_bend_c, 1, 6912
3, 95110, Pitch_bend_c, 1, 6912
3, 95129, Pitch_bend_c, 1, 6912
3, 95148, Pitch_bend_c, 1, 6912
3, 95168, Pitch_bend_c, 1, 6912
3, 95180, Pitch_bend_c, 1, 6912
3, 95200, Pitch_bend_c, 1, 6912
3, 95219, Pitch_bend_c, 1, 6912
3, 95238, Pitch_bend_c, 1, 6912
3, 95257, Pitch_bend_c, 1, 6912
3, 95276, Pitch_bend_c, 1, 6912
3, 95289, Pitch_bend_c, 1, 6912
3, 95308, Pitch_bend_c, 1, 6784
3, 95328, Pitch_bend_c, 1, 6784
3, 95347, Pitch_bend_c, 1, 6784
3, 95366, Pitch_bend_c, 1, 6656
3, 95379, Pitch_bend_c, 1, 6656
3, 95398, Pitch_bend_c, 1, 6656
3, 95417, Pitch_bend_c, 1, 6656
3, 95436, Pitch_bend_c, 1, 6656
3, 95456, Pitch_bend_c, 1, 6656
3, 95475, Pitch_bend_c, 1, 6656
3, 95488, Pitch_bend_c, 1, 6656
3, 95507, Pitch_bend_c, 1, 6656
3, 95526, Pitch_bend_c, 1, 6656
3, 95545, Pitch_bend_c, 1, 6656
3, 95564, Pitch_bend_c, 1, 6656
3, 95577, Pitch_bend_c, 1, 6656
3, 95596, Pitch_bend_c, 1, 6784
3, 95616, Pitch_bend_c, 1, 6784
3, 95635, Pitch_bend_c, 1, 6784
3, 95654, Pitch_bend_c, 1, 6912
3, 95667, Pitch_bend_c, 1, 6912
3, 95686, Pitch_bend_c, 1, 6912
3, 95705, Pitch_bend_c, 1, 6912
3, 95724, Pitch_bend_c, 1, 6912
3, 95744, Pitch_bend_c, 1, 6912
3, 95756, Pitch_bend_c, 1, 6912
3, 95776, Pitch_bend_c, 1, 6912
3, 95795, Pitch_bend_c, 1, 6912
3, 95814, Pitch_bend_c, 1, 6912
3, 95833, Pitch_bend_c, 1, 6912
3, 95852, Pitch_bend_c, 1, 6912
3, 95865, Pitch_bend_c, 1, 6912
3, 95884, Pitch_bend_c, 1, 6784
3, 95904, Pitch_bend_c, 1, 6784
3, 95923, Pitch_bend_c, 1, 6784
3, 95942, Pitch_bend_c, 1, 6656
3, 95955, Pitch_bend_c, 1, 6656
3, 95974, Pitch_bend_c, 1, 6656
3, 95993, Pitch_bend_c, 1, 6656
3, 96012, Pitch_bend_c, 1, 6656
3, 96032, Pitch_bend_c, 1, 6656
3, 96051, Pitch_bend_c, 1, 6656
3, 96064, Pitch_bend_c, 1, 6656
3, 96083, Pitch_bend_c, 1, 6656
3, 96102, Pitch_bend_c, 1, 6656
3, 96121, Pitch_bend_c, 1, 6656
3, 96140, Pitch_bend_c, 1, 6656
3, 96153, Pitch_bend_c, 1, 6656
3, 96172, Pitch_bend_c, 1, 6784
3, 96192, Pitch_bend_c, 1, 6784
3, 96211, Pitch_bend_c, 1, 6784
3, 96230, Pitch_bend_c, 1, 6912
3, 96243, Pitch_bend_c, 1, 6912
3, 96262, Pitch_bend_c, 1, 6912
3, 96281, Pitch_bend_c, 1, 6912
3, 96300, Pitch_bend_c, 1, 6912
3, 96320, Pitch_bend_c, 1, 6912
3, 96332, Pitch_bend_c, 1, 6912
3, 96352, Pitch_bend_c, 1, 6912
3, 96371, Pitch_bend_c, 1, 6912
3, 96390, Pitch_bend_c, 1, 6912
3, 96409, Pitch_bend_c, 1, 6912
3, 96428, Pitch_bend_c, 1, 6912
3, 96441, Pitch_bend_c, 1, 6912
3, 96460, Pitch_bend_c, 1, 6784
3, 96480, Pitch_bend_c, 1, 6784
3, 96499, Pitch_bend_c, 1, 6784
3, 96518, Pitch_bend_c, 1, 6656
3, 96531, Pitch_bend_c, 1, 6656
3, 96550, Pitch_bend_c, 1, 6656
3, 96569, Pitch_bend_c, 1, 6656
3, 96588, Pitch_bend_c, 1, 6656
3, 96608, Pitch_bend_c, 1, 6656
3, 96627, Pitch_bend_c, 1, 6656
3, 96640, Pitch_bend_c, 1, 6656
3, 96659, Pitch_bend_c, 1, 6656
3, 96678, Pitch_bend_c, 1, 6656
3, 96697, Pitch_bend_c, 1, 6656
3, 96716, Pitch_bend_c, 1, 6656
3, 96729, Pitch_bend_c, 1, 6656
3, 96748, Pitch_bend_c, 1, 6784
3, 96768, Pitch_bend_c, 1, 6784
3, 97152, Pitch_bend_c, 1, 6144
3, 97318, Pitch_bend_c, 1, 5376
3, 97478, Pitch_bend_c, 1, 4736
3, 97644, Pitch_bend_c, 1, 4096
3, 97811, Pitch_bend_c, 1, 3328
3, 97977, Pitch_bend_c, 1, 2688
3, 98137, Pitch_bend_c, 1, 2048
3, 98304, Note_off_c, 1, 62, 80
3, 98304, Pitch_bend_c, 1, 8192
3, 101888, Note_on_c, 1, 61, 79
3, 102297, Pitch_bend_c, 1, 8832
3, 102400, Pitch_bend_c, 1, 8832
3, 103424, Note_off_c, 1, 61, 80
3, 103424, Pitch_bend_c, 1, 8192
3, 103424, Note_on_c, 1, 67, 79
3, 103936, Note_off_c, 1, 67, 80
3, 104448, Note_on_c, 1, 67, 79
3, 105139, Pitch_bend_c, 1, 8832
3, 105216, Pitch_bend_c, 1, 9600
3, 105235, Pitch_bend_c, 1, 9600
3, 105254, Pitch_bend_c, 1, 9600
3, 105267, Pitch_bend_c, 1, 9600
3, 105286, Pitch_bend_c, 1, 9600
3, 105305, Pitch_bend_c, 1, 9600
3, 105324, Pitch_bend_c, 1, 9600
3, 105344, Pitch_bend_c, 1, 9600
3, 105356, Pitch_bend_c, 1, 9600
3, 105376, Pitch_bend_c, 1, 9600
3, 105395, Pitch_bend_c, 1, 9600
3, 105414, Pitch_bend_c, 1, 9600
3, 105433, Pitch_bend_c, 1, 9600
3, 105452, Pitch_bend_c, 1, 9600
3, 105465, Pitch_bend_c, 1, 9600
3, 105484, Pitch_bend_c, 1, 9600
3, 105504, Pitch_bend_c, 1, 9600
3, 105523, Pitch_bend_c, 1, 9600
3, 105542, Pitch_bend_c, 1, 9600
3, 105555, Pitch_bend_c, 1, 9600
3, 105574, Pitch_bend_c, 1, 9600
3, 105593, Pitch_bend_c, 1, 9600
3, 105612, Pitch_bend_c, 1, 9600
3, 105632, Pitch_bend_c, 1, 9600
3, 105651, Pitch_bend_c, 1, 9600
3, 105664, Pitch_bend_c, 1, 9600
3, 105683, Pitch_bend_c, 1, 9600
3, 105702, Pitch_bend_c, 1, 9600
3, 105721, Pitch_bend_c, 1, 9600
3, 105740, Pitch_bend_c, 1, 9600
3, 105753, Pitch_bend_c, 1, 9600
3, 105772, Pitch_bend_c, 1, 9600
3, 105792, Pitch_bend_c, 1, 9600
3, 105811, Pitch_bend_c, 1, 9600
3, 105830, Pitch_bend_c, 1, 9728
3, 105843, Pitch_bend_c, 1, 9728
3, 105862, Pitch_bend_c, 1, 9728
3, 105881, Pitch_bend_c, 1, 9856
3, 105900, Pitch_bend_c, 1, 9856
3, 105920, Pitch_bend_c, 1, 9856
3, 105932, Pitch_bend_c, 1, 9856
3, 105952, Pitch_bend_c, 1, 9856
3, 105971, Pitch_bend_c, 1, 9856
3, 105990, Pitch_bend_c, 1, 9856
3, 106009, Pitch_bend_c, 1, 9728
3, 106028, Pitch_bend_c, 1, 9728
3, 106041, Pitch_bend_c, 1, 9728
3, 106060, Pitch_bend_c, 1, 9600
3, 106080, Pitch_bend_c, 1, 9600
3, 106099, Pitch_bend_c, 1, 9600
3, 106118, Pitch_bend_c, 1, 9472
3, 106131, Pitch_bend_c, 1, 9472
3, 106150, Pitch_bend_c, 1, 9472
3, 106169, Pitch_bend_c, 1, 9344
3, 106188, Pitch_bend_c, 1, 9344
3, 106208, Pitch_bend_c, 1, 9344
3, 106227, Pitch_bend_c, 1, 9344
3, 106240, Pitch_bend_c, 1, 9344
3, 106259, Pitch_bend_c, 1, 9344
3, 106278, Pitch_bend_c, 1, 9344
3, 106297, Pitch_bend_c, 1, 9472
3, 106316, Pitch_bend_c, 1, 9472
3, 106329, Pitch_bend_c, 1, 9472
3, 106348, Pitch_bend_c, 1, 9600
3, 106368, Pitch_bend_c, 1, 9600
3, 106387, Pitch_bend_c, 1, 9600
3, 106406, Pitch_bend_c, 1, 9728
3, 106419, Pitch_bend_c, 1, 9728
3, 106438, Pitch_bend_c, 1, 9728
3, 106457, Pitch_bend_c, 1, 9728
3, 106476, Pitch_bend_c, 1, 9856
3, 106496, Pitch_bend_c, 1, 9856
3, 106508, Pitch_bend_c, 1, 9856
3, 106528, Pitch_bend_c, 1, 9856
3, 106547, Pitch_bend_c, 1, 9856
3, 106566, Pitch_bend_c, 1, 9728
3, 106585, Pitch_bend_c, 1, 9728
3, 106604, Pitch_bend_c, 1, 9728
3, 106617, Pitch_bend_c, 1, 9728
3, 106636, Pitch_bend_c, 1, 9600
3, 106656, Pitch_bend_c, 1, 9600
3, 106675, Pitch_bend_c, 1, 9600
3, 106694, Pitch_bend_c, 1, 9472
3, 106707, Pitch_bend_c, 1, 9472
3, 106726, Pitch_bend_c, 1, 9472
3, 106745, Pitch_bend_c, 1, 9472
3, 106764, Pitch_bend_c, 1, 9344
3, 106784, Pitch_bend_c, 1, 9344
3, 106803, Pitch_bend_c, 1, 9344
3, 106816, Pitch_bend_c, 1, 9344
3, 106835, Pitch_bend_c, 1, 9344
3, 106854, Pitch_bend_c, 1, 9472
3, 106873, Pitch_bend_c, 1, 9472
3, 106892, Pitch_bend_c, 1, 9472
3, 106905, Pitch_bend_c, 1, 9472
3, 106924, Pitch_bend_c, 1, 9600
3, 106944, Pitch_bend_c, 1, 9600
3, 106963, Pitch_bend_c, 1, 9600
3, 106982, Pitch_bend_c, 1, 9728
3, 106995, Pitch_bend_c, 1, 9728
3, 107014, Pitch_bend_c, 1, 9728
3, 107033, Pitch_bend_c, 1, 9856
3, 107052, Pitch_bend_c, 1, 9856
3, 107072, Pitch_bend_c, 1, 9856
3, 107084, Pitch_bend_c, 1, 9856
3, 107104, Pitch_bend_c, 1, 9856
3, 107123, Pitch_bend_c, 1, 9856
3, 107142, Pitch_bend_c, 1, 9856
3, 107161, Pitch_bend_c, 1, 9728
3, 107180, Pitch_bend_c, 1, 9728
3, 107193, Pitch_bend_c, 1, 9728
3, 107212, Pitch_bend_c, 1, 9600
3, 107232, Pitch_bend_c, 1, 9600
3, 107251, Pitch_bend_c, 1, 9600
3, 107270, Pitch_bend_c, 1, 9472
3, 107283, Pitch_bend_c, 1, 9472
3, 107302, Pitch_bend_c, 1, 9472
3, 107321, Pitch_bend_c, 1, 9344
3, 107340, Pitch_bend_c, 1, 9344
3, 107360, Pitch_bend_c, 1, 9344
3, 107379, Pitch_bend_c, 1, 9344
3, 107392, Pitch_bend_c, 1, 9344
3, 107411, Pitch_bend_c, 1, 9344
3, 107430, Pitch_bend_c, 1, 9344
3, 107449, Pitch_bend_c, 1, 9472
3, 107468, Pitch_bend_c, 1, 9472
3, 107481, Pitch_bend_c, 1, 9472
3, 107500, Pitch_bend_c, 1, 9600
3, 107520, Pitch_bend_c, 1, 9600
3, 107539, Pitch_bend_c, 1, 9600
3, 107558, Pitch_bend_c, 1, 9600
3, 107571, Pitch_bend_c, 1, 9600
3, 107590, Pitch_bend_c, 1, 9600
3, 107609, Pitch_bend_c, 1, 9600
3, 107628, Pitch_bend_c, 1, 9472
3, 107648, Pitch_bend_c, 1, 9472
3, 107660, Pitch_bend_c, 1, 9472
3, 107680, Pitch_bend_c, 1, 9472
3, 107699, Pitch_bend_c, 1, 9472
3, 107718, Pitch_bend_c, 1, 9600
3, 107737, Pitch_bend_c, 1, 9600
3, 107756, Pitch_bend_c, 1, 9600
3, 107769, Pitch_bend_c, 1, 9600
3, 107788, Pitch_bend_c, 1, 9600
3, 107808, Pitch_bend_c, 1, 9600
3, 107827, Pitch_bend_c, 1, 9600
3, 107846, Pitch_bend_c, 1, 9600
3, 107859, Pitch_bend_c, 1, 9600
3, 107878, Pitch_bend_c, 1, 9600
3, 107897, Pitch_bend_c, 1, 9600
3, 107916, Pitch_bend_c, 1, 9728
3, 107936, Pitch_bend_c, 1, 9728
3, 107955, Pitch_bend_c, 1, 9728
3, 107968, Pitch_bend_c, 1, 9728
3, 107987, Pitch_bend_c, 1, 9728
3, 108006, Pitch_bend_c, 1, 9600
3, 108025, Pitch_bend_c, 1, 9600
3, 108044, Pitch_bend_c, 1, 9600
3, 108057, Pitch_bend_c, 1, 9600
3, 108076, Pitch_bend_c, 1, 9600
3, 108096, Pitch_bend_c, 1, 9600
3, 108115, Pitch_bend_c, 1, 9600
3, 108134, Pitch_bend_c, 1, 9728
3, 108147, Pitch_bend_c, 1, 9728
3, 108166, Pitch_bend_c, 1, 9728
3, 108185, Pitch_bend_c, 1, 9728
3, 108204, Pitch_bend_c, 1, 9856
3, 108224, Pitch_bend_c, 1, 9856
3, 108236, Pitch_bend_c, 1, 9856
3, 108256, Pitch_bend_c, 1, 9856
3, 108275, Pitch_bend_c, 1, 9856
3, 108294, Pitch_bend_c, 1, 9728
3, 108313, Pitch_bend_c, 1, 9728
3, 108332, Pitch_bend_c, 1, 9728
3, 108345, Pitch_bend_c, 1, 9728
3, 108364, Pitch_bend_c, 1, 9600
3, 108384, Pitch_bend_c, 1, 9600
3, 108403, Pitch_bend_c, 1, 9600
3, 108422, Pitch_bend_c, 1, 9472
3, 108435, Pitch_bend_c, 1, 9472
3, 108454, Pitch_bend_c, 1, 9472
3, 108473, Pitch_bend_c, 1, 9472
3, 108492, Pitch_bend_c, 1, 9344
3, 108512, Pitch_bend_c, 1, 9344
3, 108531, Pitch_bend_c, 1, 9344
3, 108544, Pitch_bend_c, 1, 9344
3, 108563, Pitch_bend_c, 1, 9344
3, 108582, Pitch_bend_c, 1, 9472
3, 108601, Pitch_bend_c, 1, 9472
3, 108620, Pitch_bend_c, 1, 9472
3, 108633, Pitch_bend_c, 1, 9472
3, 108652, Pitch_bend_c, 1, 9600
3, 108672, Pitch_bend_c, 1, 9600
3, 108691, Pitch_bend_c, 1, 9600
3, 108710, Pitch_bend_c, 1, 9728
3, 108723, Pitch_bend_c, 1, 9728
3, 108742, Pitch_bend_c, 1, 9728
3, 108761, Pitch_bend_c, 1, 9856
3, 108780, Pitch_bend_c, 1, 9856
3, 108800, Pitch_bend_c, 1, 9856
3, 108812, Pitch_bend_c, 1, 9856
3, 108832, Pitch_bend_c, 1, 9856
3, 108851, Pitch_bend_c, 1, 9856
3, 108870, Pitch_bend_c, 1, 9856
3, 108889, Pitch_bend_c, 1, 9728
3, 108908, Pitch_bend_c, 1, 9728
3, 108921, Pitch_bend_c, 1, 9728
3, 108940, Pitch_bend_c, 1, 9600
3, 108960, Pitch_bend_c, 1, 9600
3, 108979, Pitch_bend_c, 1, 9600
3, 108998, Pitch_bend_c, 1, 9472
3, 109011, Pitch_bend_c, 1, 9472
3, 109030, Pitch_bend_c, 1, 9472
3, 109049, Pitch_bend_c, 1, 9344
3, 109056, Pitch_bend_c, 1, 9600
3, 109440, Note_off_c, 1, 67, 80
3, 109440, Note_on_c, 1, 70, 63
3, 110592, Note_off_c, 1, 70, 80
3, 110592, Note_on_c, 1, 67, 79
3, 110592, Pitch_bend_c, 1, 8192
3, 110611, Pitch_bend_c, 1, 8192
3, 110630, Pitch_bend_c, 1, 8192
3, 110643, Pitch_bend_c, 1, 8192
3, 110662, Pitch_bend_c, 1, 8192
3, 110681, Pitch_bend_c, 1, 8192
3, 110700, Pitch_bend_c, 1, 8192
3, 110720, Pitch_bend_c, 1, 8192
3, 110732, Pitch_bend_c, 1, 8192
3, 110752, Pitch_bend_c, 1, 8192
3, 110771, Pitch_bend_c, 1, 8192
3, 110790, Pitch_bend_c, 1, 8192
3, 110809, Pitch_bend_c, 1, 8192
3, 110828, Pitch_bend_c, 1, 8192
3, 110841, Pitch_bend_c, 1, 8192
3, 110860, Pitch_bend_c, 1, 8192
3, 110880, Pitch_bend_c, 1, 8192
3, 110899, Pitch_bend_c, 1, 8192
3, 110918, Pitch_bend_c, 1, 8192
3, 110931, Pitch_bend_c, 1, 8192
3, 110950, Pitch_bend_c, 1, 8192
3, 110969, Pitch_bend_c, 1, 8192
3, 110988, Pitch_bend_c, 1, 8192
3, 111008, Pitch_bend_c, 1, 8192
3, 111027, Pitch_bend_c, 1, 8192
3, 111040, Pitch_bend_c, 1, 8192
3, 111059, Pitch_bend_c, 1, 8192
3, 111078, Pitch_bend_c, 1, 8192
3, 111097, Pitch_bend_c, 1, 8192
3, 111116, Pitch_bend_c, 1, 8192
3, 111129, Pitch_bend_c, 1, 8192
3, 111148, Pitch_bend_c, 1, 8192
3, 111168, Pitch_bend_c, 1, 8192
3, 111187, Pitch_bend_c, 1, 8192
3, 111206, Pitch_bend_c, 1, 8320
3, 111219, Pitch_bend_c, 1, 8320
3, 111238, Pitch_bend_c, 1, 8320
3, 111257, Pitch_bend_c, 1, 8320
3, 111276, Pitch_bend_c, 1, 8320
3, 111296, Pitch_bend_c, 1, 8320
3, 111308, Pitch_bend_c, 1, 8320
3, 111328, Pitch_bend_c, 1, 8320
3, 111347, Pitch_bend_c, 1, 8320
3, 111366, Pitch_bend_c, 1, 8320
3, 111385, Pitch_bend_c, 1, 8320
3, 111404, Pitch_bend_c, 1, 8320
3, 111417, Pitch_bend_c, 1, 8320
3, 111436, Pitch_bend_c, 1, 8192
3, 111456, Pitch_bend_c, 1, 8192
3, 111475, Pitch_bend_c, 1, 8192
3, 111494, Pitch_bend_c, 1, 8064
3, 111507, Pitch_bend_c, 1, 8064
3, 111526, Pitch_bend_c, 1, 8064
3, 111545, Pitch_bend_c, 1, 8064
3, 111564, Pitch_bend_c, 1, 8064
3, 111584, Pitch_bend_c, 1, 8064
3, 111603, Pitch_bend_c, 1, 8064
3, 111616, Pitch_bend_c, 1, 8064
3, 111635, Pitch_bend_c, 1, 8064
3, 111654, Pitch_bend_c, 1, 8064
3, 111673, Pitch_bend_c, 1, 8064
3, 111692, Pitch_bend_c, 1, 8064
3, 111705, Pitch_bend_c, 1, 8064
3, 111724, Pitch_bend_c, 1, 8192
3, 111744, Pitch_bend_c, 1, 8192
3, 111763, Pitch_bend_c, 1, 8192
3, 111782, Pitch_bend_c, 1, 8320
3, 111795, Pitch_bend_c, 1, 8320
3, 111814, Pitch_bend_c, 1, 8320
3, 111833, Pitch_bend_c, 1, 8448
3, 111852, Pitch_bend_c, 1, 8448
3, 111872, Pitch_bend_c, 1, 8448
3, 111884, Pitch_bend_c, 1, 8448
3, 111904, Pitch_bend_c, 1, 8448
3, 111923, Pitch_bend_c, 1, 8448
3, 111942, Pitch_bend_c, 1, 8448
3, 111961, Pitch_bend_c, 1, 8320
3, 111980, Pitch_bend_c, 1, 8320
3, 111993, Pitch_bend_c, 1, 8320
3, 112012, Pitch_bend_c, 1, 8192
3, 112032, Pitch_bend_c, 1, 8192
3, 112051, Pitch_bend_c, 1, 8192
3, 112070, Pitch_bend_c, 1, 8064
3, 112083, Pitch_bend_c, 1, 8064
3, 112102, Pitch_bend_c, 1, 8064
3, 112121, Pitch_bend_c, 1, 7936
3, 112128, Pitch_bend_c, 1, 8192
3, 112819, Pitch_bend_c, 1, 7552
3, 112896, Pitch_bend_c, 1, 6784
3, 113664, Note_off_c, 1, 67, 80
3, 113664, Pitch_bend_c, 1, 8192
3, 113664, Note_on_c, 1, 65, 79
3, 113683, Pitch_bend_c, 1, 8192
3, 113702, Pitch_bend_c, 1, 8192
3, 113715, Pitch_bend_c, 1, 8192
3, 113734, Pitch_bend_c, 1, 8192
3, 113753, Pitch_bend_c, 1, 8192
3, 113772, Pitch_bend_c, 1, 8192
3, 113792, Pitch_bend_c, 1, 8192
3, 113804, Pitch_bend_c, 1, 8192
3, 113824, Pitch_bend_c, 1, 8192
3, 113843, Pitch_bend_c, 1, 8192
3, 113862, Pitch_bend_c, 1, 8192
3, 113881, Pitch_bend_c, 1, 8192
3, 113900, Pitch_bend_c, 1, 8192
3, 113913, Pitch_bend_c, 1, 8192
3, 113932, Pitch_bend_c, 1, 8192
3, 113952, Pitch_bend_c, 1, 8192
3, 113971, Pitch_bend_c, 1, 8192
3, 113990, Pitch_bend_c, 1, 8192
3, 114003, Pitch_bend_c, 1, 8192
3, 114022, Pitch_bend_c, 1, 8192
3, 114041, Pitch_bend_c, 1, 8192
3, 114060, Pitch_bend_c, 1, 8192
3, 114080, Pitch_bend_c, 1, 8192
3, 114099, Pitch_bend_c, 1, 8192
3, 114112, Pitch_bend_c, 1, 8192
3, 114131, Pitch_bend_c, 1, 8192
3, 114150, Pitch_bend_c, 1, 8192
3, 114169, Pitch_bend_c, 1, 8192
3, 114188, Pitch_bend_c, 1, 8192
3, 114201, Pitch_bend_c, 1, 8192
3, 114220, Pitch_bend_c, 1, 8192
3, 114240, Pitch_bend_c, 1, 8192
3, 114259, Pitch_bend_c, 1, 8192
3, 114278, Pitch_bend_c, 1, 8320
3, 114291, Pitch_bend_c, 1, 8320
3, 114310, Pitch_bend_c, 1, 8320
3, 114329, Pitch_bend_c, 1, 8320
3, 114348, Pitch_bend_c, 1, 8448
3, 114368, Pitch_bend_c, 1, 8448
3, 114380, Pitch_bend_c, 1, 8448
3, 114400, Pitch_bend_c, 1, 8448
3, 114419, Pitch_bend_c, 1, 8448
3, 114438, Pitch_bend_c, 1, 8320
3, 114457, Pitch_bend_c, 1, 8320
3, 114476, Pitch_bend_c, 1, 8320
3, 114489, Pitch_bend_c, 1, 8320
3, 114508, Pitch_bend_c, 1, 8192
3, 114528, Pitch_bend_c, 1, 8192
3, 114547, Pitch_bend_c, 1, 8192
3, 114566, Pitch_bend_c, 1, 8064
3, 114579, Pitch_bend_c, 1, 8064
3, 114598, Pitch_bend_c, 1, 8064
3, 114617, Pitch_bend_c, 1, 8064
3, 114636, Pitch_bend_c, 1, 7936
3, 114656, Pitch_bend_c, 1, 7936
3, 114675, Pitch_bend_c, 1, 7936
3, 114688, Pitch_bend_c, 1, 7936
3, 114707, Pitch_bend_c, 1, 7936
3, 114726, Pitch_bend_c, 1, 8064
3, 114745, Pitch_bend_c, 1, 8064
3, 114764, Pitch_bend_c, 1, 8064
3, 114777, Pitch_bend_c, 1, 8064
3, 114796, Pitch_bend_c, 1, 8192
3, 114816, Pitch_bend_c, 1, 8192
3, 114835, Pitch_bend_c, 1, 8320
3, 114854, Pitch_bend_c, 1, 8320
3, 114867, Pitch_bend_c, 1, 8320
3, 114886, Pitch_bend_c, 1, 8448
3, 114905, Pitch_bend_c, 1, 8448
3, 114924, Pitch_bend_c, 1, 8448
3, 114944, Pitch_bend_c, 1, 8448
3, 114956, Pitch_bend_c, 1, 8448
3, 114976, Pitch_bend_c, 1, 8448
3, 114995, Pitch_bend_c, 1, 8448
3, 115014, Pitch_bend_c, 1, 8448
3, 115033, Pitch_bend_c, 1, 8448
3, 115052, Pitch_bend_c, 1, 8320
3, 115065, Pitch_bend_c, 1, 8320
3, 115084, Pitch_bend_c, 1, 8320
3, 115104, Pitch_bend_c, 1, 8192
3, 115123, Pitch_bend_c, 1, 8064
3, 115142, Pitch_bend_c, 1, 8064
3, 115155, Pitch_bend_c, 1, 8064
3, 115174, Pitch_bend_c, 1, 7936
3, 115193, Pitch_bend_c, 1, 7936
3, 115212, Pitch_bend_c, 1, 7936
3, 115232, Pitch_bend_c, 1, 7936
3, 115251, Pitch_bend_c, 1, 7936
3, 115264, Pitch_bend_c, 1, 7936
3, 115283, Pitch_bend_c, 1, 7936
3, 115302, Pitch_bend_c, 1, 7936
3, 115321, Pitch_bend_c, 1, 7936
3, 115340, Pitch_bend_c, 1, 8064
3, 115353, Pitch_bend_c, 1, 8064
3, 115372, Pitch_bend_c, 1, 8064
3, 115392, Pitch_bend_c, 1, 8192
3, 115411, Pitch_bend_c, 1, 8192
3, 115430, Pitch_bend_c, 1, 8320
3, 115443, Pitch_bend_c, 1, 8320
3, 115462, Pitch_bend_c, 1, 8320
3, 115481, Pitch_bend_c, 1, 8320
3, 115500, Pitch_bend_c, 1, 8320
3, 115520, Pitch_bend_c, 1, 8320
3, 115532, Pitch_bend_c, 1, 8320
3, 115552, Pitch_bend_c, 1, 8320
3, 115571, Pitch_bend_c, 1, 8320
3, 115590, Pitch_bend_c, 1, 8320
3, 115609, Pitch_bend_c, 1, 8320
3, 115628, Pitch_bend_c, 1, 8320
3, 115641, Pitch_bend_c, 1, 8320
3, 115660, Pitch_bend_c, 1, 8192
3, 115680, Pitch_bend_c, 1, 8192
3, 115699, Pitch_bend_c, 1, 8192
3, 115718, Pitch_bend_c, 1, 8064
3, 115731, Pitch_bend_c, 1, 8064
3, 115750, Pitch_bend_c, 1, 8064
3, 115769, Pitch_bend_c, 1, 8064
3, 115788, Pitch_bend_c, 1, 8064
3, 115808, Pitch_bend_c, 1, 8064
3, 115827, Pitch_bend_c, 1, 8064
3, 115840, Pitch_bend_c, 1, 8064
3, 115859, Pitch_bend_c, 1, 8064
3, 115878, Pitch_bend_c, 1, 8064
3, 115897, Pitch_bend_c, 1, 8064
3, 115916, Pitch_bend_c, 1, 8064
3, 115929, Pitch_bend_c, 1, 8064
3, 115948, Pitch_bend_c, 1, 8192
3, 115968, Pitch_bend_c, 1, 8192
3, 115987, Pitch_bend_c, 1, 8192
3, 116006, Pitch_bend_c, 1, 8320
3, 116019, Pitch_bend_c, 1, 8320
3, 116038, Pitch_bend_c, 1, 8320
3, 116057, Pitch_bend_c, 1, 8448
3, 116076, Pitch_bend_c, 1, 8448
3, 116096, Pitch_bend_c, 1, 8448
3, 116108, Pitch_bend_c, 1, 8448
3, 116128, Pitch_bend_c, 1, 8448
3, 116147, Pitch_bend_c, 1, 8448
3, 116166, Pitch_bend_c, 1, 8448
3, 116185, Pitch_bend_c, 1, 8320
3, 116204, Pitch_bend_c, 1, 8320
3, 116217, Pitch_bend_c, 1, 8320
3, 116236, Pitch_bend_c, 1, 8192
3, 116256, Pitch_bend_c, 1, 8192
3, 116275, Pitch_bend_c, 1, 8192
3, 116294, Pitch_bend_c, 1, 8064
3, 116307, Pitch_bend_c, 1, 8064
3, 116326, Pitch_bend_c, 1, 8064
3, 116345, Pitch_bend_c, 1, 7936
3, 116364, Pitch_bend_c, 1, 7936
3, 116384, Pitch_bend_c, 1, 7936
3, 116403, Pitch_bend_c, 1, 7936
3, 116416, Pitch_bend_c, 1, 7936
3, 116435, Pitch_bend_c, 1, 7936
3, 116454, Pitch_bend_c, 1, 7936
3, 116473, Pitch_bend_c, 1, 8064
3, 116492, Pitch_bend_c, 1, 8064
3, 116505, Pitch_bend_c, 1, 8064
3, 116524, Pitch_bend_c, 1, 8192
3, 116544, Pitch_bend_c, 1, 8192
3, 116563, Pitch_bend_c, 1, 8192
3, 116582, Pitch_bend_c, 1, 8192
3, 116595, Pitch_bend_c, 1, 8192
3, 116614, Pitch_bend_c, 1, 8192
3, 116633, Pitch_bend_c, 1, 8192
3, 116652, Pitch_bend_c, 1, 8320
3, 116672, Pitch_bend_c, 1, 8320
3, 116684, Pitch_bend_c, 1, 8320
3, 116704, Pitch_bend_c, 1, 8320
3, 116723, Pitch_bend_c, 1, 8320
3, 116736, Pitch_bend_c, 1, 8192
3, 116755, Pitch_bend_c, 1, 8192
3, 116774, Pitch_bend_c, 1, 8192
3, 116787, Pitch_bend_c, 1, 8192
3, 116806, Pitch_bend_c, 1, 8192
3, 116825, Pitch_bend_c, 1, 8192
3, 116844, Pitch_bend_c, 1, 8192
3, 116864, Pitch_bend_c, 1, 8192
3, 116876, Pitch_bend_c, 1, 8192
3, 116896, Pitch_bend_c, 1, 8192
3, 116915, Pitch_bend_c, 1, 8192
3, 116934, Pitch_bend_c, 1, 8192
3, 116953, Pitch_bend_c, 1, 8192
3, 116972, Pitch_bend_c, 1, 8192
3, 116985, Pitch_bend_c, 1, 8192
3, 117004, Pitch_bend_c, 1, 8192
3, 117024, Pitch_bend_c, 1, 8192
3, 117043, Pitch_bend_c, 1, 8192
3, 117062, Pitch_bend_c, 1, 8192
3, 117075, Pitch_bend_c, 1, 8192
3, 117094, Pitch_bend_c, 1, 8192
3, 117113, Pitch_bend_c, 1, 8192
3, 117132, Pitch_bend_c, 1, 8192
3, 117152, Pitch_bend_c, 1, 8192
3, 117171, Pitch_bend_c, 1, 8192
3, 117184, Pitch_bend_c, 1, 8192
3, 117203, Pitch_bend_c, 1, 8192
3, 117222, Pitch_bend_c, 1, 8192
3, 117241, Pitch_bend_c, 1, 8192
3, 117260, Pitch_bend_c, 1, 8192
3, 117273, Pitch_bend_c, 1, 8192
3, 117292, Pitch_bend_c, 1, 8192
3, 117312, Pitch_bend_c, 1, 8192
3, 117331, Pitch_bend_c, 1, 8192
3, 117350, Pitch_bend_c, 1, 8320
3, 117363, Pitch_bend_c, 1, 8320
3, 117382, Pitch_bend_c, 1, 8320
3, 117401, Pitch_bend_c, 1, 8320
3, 117420, Pitch_bend_c, 1, 8448
3, 117440, Pitch_bend_c, 1, 8448
3, 117452, Pitch_bend_c, 1, 8448
3, 117472, Pitch_bend_c, 1, 8448
3, 117491, Pitch_bend_c, 1, 8448
3, 117510, Pitch_bend_c, 1, 8320
3, 117529, Pitch_bend_c, 1, 8320
3, 117548, Pitch_bend_c, 1, 8320
3, 117561, Pitch_bend_c, 1, 8320
3, 117580, Pitch_bend_c, 1, 8192
3, 117600, Pitch_bend_c, 1, 8192
3, 117619, Pitch_bend_c, 1, 8192
3, 117638, Pitch_bend_c, 1, 8064
3, 117651, Pitch_bend_c, 1, 8064
3, 117670, Pitch_bend_c, 1, 8064
3, 117689, Pitch_bend_c, 1, 8064
3, 117708, Pitch_bend_c, 1, 7936
3, 117728, Pitch_bend_c, 1, 7936
3, 117747, Pitch_bend_c, 1, 7936
3, 117760, Pitch_bend_c, 1, 7936
3, 117779, Pitch_bend_c, 1, 7936
3, 117798, Pitch_bend_c, 1, 8064
3, 117817, Pitch_bend_c, 1, 8064
3, 117836, Pitch_bend_c, 1, 8064
3, 117849, Pitch_bend_c, 1, 8064
3, 117868, Pitch_bend_c, 1, 8192
3, 117888, Pitch_bend_c, 1, 8192
3, 117907, Pitch_bend_c, 1, 8192
3, 117926, Pitch_bend_c, 1, 8320
3, 117939, Pitch_bend_c, 1, 8320
3, 117958, Pitch_bend_c, 1, 8320
3, 117977, Pitch_bend_c, 1, 8320
3, 117996, Pitch_bend_c, 1, 8320
3, 118016, Pitch_bend_c, 1, 8320
3, 118028, Pitch_bend_c, 1, 8320
3, 118048, Pitch_bend_c, 1, 8320
3, 118067, Pitch_bend_c, 1, 8320
3, 118086, Pitch_bend_c, 1, 8320
3, 118105, Pitch_bend_c, 1, 8320
3, 118124, Pitch_bend_c, 1, 8320
3, 118137, Pitch_bend_c, 1, 8320
3, 118156, Pitch_bend_c, 1, 8192
3, 118176, Pitch_bend_c, 1, 8192
3, 118195, Pitch_bend_c, 1, 8192
3, 118214, Pitch_bend_c, 1, 8064
3, 118227, Pitch_bend_c, 1, 8064
3, 118246, Pitch_bend_c, 1, 8064
3, 118265, Pitch_bend_c, 1, 8064
3, 118284, Pitch_bend_c, 1, 8064
3, 118304, Pitch_bend_c, 1, 8064
3, 118323, Pitch_bend_c, 1, 8064
3, 118336, Pitch_bend_c, 1, 8064
3, 118355, Pitch_bend_c, 1, 8064
3, 118374, Pitch_bend_c, 1, 8064
3, 118393, Pitch_bend_c, 1, 8064
3, 118412, Pitch_bend_c, 1, 8064
3, 118425, Pitch_bend_c, 1, 8064
3, 118444, Pitch_bend_c, 1, 8192
3, 118464, Pitch_bend_c, 1, 8192
3, 118483, Pitch_bend_c, 1, 8192
3, 118502, Pitch_bend_c, 1, 8320
3, 118515, Pitch_bend_c, 1, 8320
3, 118534, Pitch_bend_c, 1, 8448
3, 118553, Pitch_bend_c, 1, 8448
3, 118572, Pitch_bend_c, 1, 8448
3, 118592, Pitch_bend_c, 1, 8448
3, 118604, Pitch_bend_c, 1, 8448
3, 118624, Pitch_bend_c, 1, 8448
3, 118643, Pitch_bend_c, 1, 8448
3, 118662, Pitch_bend_c, 1, 8448
3, 118681, Pitch_bend_c, 1, 8448
3, 118700, Pitch_bend_c, 1, 8320
3, 118713, Pitch_bend_c, 1, 8320
3, 118732, Pitch_bend_c, 1, 8192
3, 118752, Pitch_bend_c, 1, 8192
3, 118771, Pitch_bend_c, 1, 8192
3, 118790, Pitch_bend_c, 1, 8064
3, 118803, Pitch_bend_c, 1, 8064
3, 118822, Pitch_bend_c, 1, 7936
3, 118841, Pitch_bend_c, 1, 7936
3, 118860, Pitch_bend_c, 1, 7936
3, 118880, Pitch_bend_c, 1, 7936
3, 118899, Pitch_bend_c, 1, 7936
3, 118912, Pitch_bend_c, 1, 7936
3, 118931, Pitch_bend_c, 1, 7936
3, 118950, Pitch_bend_c, 1, 7936
3, 118969, Pitch_bend_c, 1, 7936
3, 118988, Pitch_bend_c, 1, 8064
3, 119001, Pitch_bend_c, 1, 8064
3, 119020, Pitch_bend_c, 1, 8192
3, 119040, Pitch_bend_c, 1, 8192
3, 119059, Pitch_bend_c, 1, 8192
3, 119078, Pitch_bend_c, 1, 8320
3, 119091, Pitch_bend_c, 1, 8320
3, 119110, Pitch_bend_c, 1, 8320
3, 119129, Pitch_bend_c, 1, 8320
3, 119148, Pitch_bend_c, 1, 8320
3, 119168, Pitch_bend_c, 1, 8448
3, 119180, Pitch_bend_c, 1, 8448
3, 119200, Pitch_bend_c, 1, 8448
3, 119219, Pitch_bend_c, 1, 8320
3, 119238, Pitch_bend_c, 1, 8320
3, 119257, Pitch_bend_c, 1, 8320
3, 119276, Pitch_bend_c, 1, 8320
3, 119289, Pitch_bend_c, 1, 8320
3, 119308, Pitch_bend_c, 1, 8192
3, 119328, Pitch_bend_c, 1, 8192
3, 119347, Pitch_bend_c, 1, 8192
3, 119366, Pitch_bend_c, 1, 8064
3, 119379, Pitch_bend_c, 1, 8064
3, 119398, Pitch_bend_c, 1, 8064
3, 119417, Pitch_bend_c, 1, 8064
3, 119436, Pitch_bend_c, 1, 8064
3, 119456, Pitch_bend_c, 1, 7936
3, 119475, Pitch_bend_c, 1, 7936
3, 119488, Pitch_bend_c, 1, 7936
3, 119507, Pitch_bend_c, 1, 8064
3, 119526, Pitch_bend_c, 1, 8064
3, 119545, Pitch_bend_c, 1, 8064
3, 119564, Pitch_bend_c, 1, 8064
3, 119577, Pitch_bend_c, 1, 8064
3, 119596, Pitch_bend_c, 1, 8192
3, 119616, Pitch_bend_c, 1, 8192
3, 119635, Pitch_bend_c, 1, 8192
3, 119654, Pitch_bend_c, 1, 8320
3, 119667, Pitch_bend_c, 1, 8320
3, 119686, Pitch_bend_c, 1, 8320
3, 119705, Pitch_bend_c, 1, 8320
3, 119724, Pitch_bend_c, 1, 8448
3, 119744, Pitch_bend_c, 1, 8448
3, 119756, Pitch_bend_c, 1, 8448
3, 119776, Pitch_bend_c, 1, 8448
3, 119795, Pitch_bend_c, 1, 8448
3, 119814, Pitch_bend_c, 1, 8320
3, 119833, Pitch_bend_c, 1, 8320
3, 119852, Pitch_bend_c, 1, 8320
3, 119865, Pitch_bend_c, 1, 8320
3, 119884, Pitch_bend_c, 1, 8192
3, 119904, Pitch_bend_c, 1, 8192
3, 119923, Pitch_bend_c, 1, 8192
3, 119942, Pitch_bend_c, 1, 8064
3, 119955, Pitch_bend_c, 1, 8064
3, 119974, Pitch_bend_c, 1, 8064
3, 119993, Pitch_bend_c, 1, 8064
3, 120012, Pitch_bend_c, 1, 7936
3, 120032, Pitch_bend_c, 1, 7936
3, 120051, Pitch_bend_c, 1, 7936
3, 120064, Pitch_bend_c, 1, 7936
3, 120083, Pitch_bend_c, 1, 7936
3, 120102, Pitch_bend_c, 1, 8064
3, 120121, Pitch_bend_c, 1, 8064
3, 120140, Pitch_bend_c, 1, 8064
3, 120153, Pitch_bend_c, 1, 8064
3, 120172, Pitch_bend_c, 1, 8192
3, 120192, Pitch_bend_c, 1, 8192
3, 120211, Pitch_bend_c, 1, 8192
3, 120230, Pitch_bend_c, 1, 8320
3, 120243, Pitch_bend_c, 1, 8320
3, 120262, Pitch_bend_c, 1, 8320
3, 120281, Pitch_bend_c, 1, 8448
3, 120300, Pitch_bend_c, 1, 8448
3, 120320, Pitch_bend_c, 1, 8448
3, 120332, Pitch_bend_c, 1, 8448
3, 120352, Pitch_bend_c, 1, 8448
3, 120371, Pitch_bend_c, 1, 8448
3, 120390, Pitch_bend_c, 1, 8448
3, 120409, Pitch_bend_c, 1, 8320
3, 120428, Pitch_bend_c, 1, 8320
3, 120441, Pitch_bend_c, 1, 8320
3, 120460, Pitch_bend_c, 1, 8192
3, 120480, Pitch_bend_c, 1, 8192
3, 120499, Pitch_bend_c, 1, 8192
3, 120518, Pitch_bend_c, 1, 8064
3, 120531, Pitch_bend_c, 1, 8064
3, 120550, Pitch_bend_c, 1, 8064
3, 120569, Pitch_bend_c, 1, 7936
3, 120588, Pitch_bend_c, 1, 7936
3, 120608, Pitch_bend_c, 1, 7936
3, 120627, Pitch_bend_c, 1, 7936
3, 120640, Pitch_bend_c, 1, 7936
3, 120659, Pitch_bend_c, 1, 7936
3, 120678, Pitch_bend_c, 1, 7936
3, 120697, Pitch_bend_c, 1, 8064
3, 120716, Pitch_bend_c, 1, 8064
3, 120729, Pitch_bend_c, 1, 8064
3, 120748, Pitch_bend_c, 1, 8192
3, 120768, Pitch_bend_c, 1, 8192
3, 120787, Pitch_bend_c, 1, 8192
3, 120806, Pitch_bend_c, 1, 8192
3, 120819, Pitch_bend_c, 1, 8320
3, 120838, Pitch_bend_c, 1, 8320
3, 120857, Pitch_bend_c, 1, 8320
3, 120876, Pitch_bend_c, 1, 8320
3, 120896, Pitch_bend_c, 1, 8320
3, 120908, Pitch_bend_c, 1, 8320
3, 120928, Pitch_bend_c, 1, 8320
3, 120947, Pitch_bend_c, 1, 8320
3, 120966, Pitch_bend_c, 1, 8320
3, 120985, Pitch_bend_c, 1, 8320
3, 121004, Pitch_bend_c, 1, 8320
3, 121017, Pitch_bend_c, 1, 8192
3, 121036, Pitch_bend_c, 1, 8192
3, 121056, Pitch_bend_c, 1, 8192
3, 121075, Pitch_bend_c, 1, 8192
3, 121094, Pitch_bend_c, 1, 8192
3, 121107, Pitch_bend_c, 1, 8064
3, 121126, Pitch_bend_c, 1, 8064
3, 121145, Pitch_bend_c, 1, 8064
3, 121164, Pitch_bend_c, 1, 8064
3, 121184, Pitch_bend_c, 1, 8064
3, 121203, Pitch_bend_c, 1, 8064
3, 121216, Pitch_bend_c, 1, 8064
3, 121235, Pitch_bend_c, 1, 8064
3, 121254, Pitch_bend_c, 1, 8064
3, 121273, Pitch_bend_c, 1, 8064
3, 121292, Pitch_bend_c, 1, 8064
3, 121305, Pitch_bend_c, 1, 8192
3, 121324, Pitch_bend_c, 1, 8192
3, 121344, Note_off_c, 1, 65, 80
3, 121344, Pitch_bend_c, 1, 8192
3, 121344, Note_on_c, 1, 63, 79
3, 121600, Note_off_c, 1, 63, 80
3, 121600, Note_on_c, 1, 65, 63
3, 121856, Note_off_c, 1, 65, 80
3, 121856, Note_on_c, 1, 63, 63
3, 122112, Note_off_c, 1, 63, 80
3, 122112, Note_on_c, 1, 62, 63
3, 122880, Note_off_c, 1, 62, 80
3, 122880, Note_on_c, 1, 63, 79
3, 125952, Note_off_c, 1, 63, 80
3, 125952, Note_on_c, 1, 70, 79
3, 125952, Pitch_bend_c, 1, 8192
3, 125971, Pitch_bend_c, 1, 8192
3, 125990, Pitch_bend_c, 1, 8192
3, 126003, Pitch_bend_c, 1, 8192
3, 126022, Pitch_bend_c, 1, 8192
3, 126041, Pitch_bend_c, 1, 8192
3, 126060, Pitch_bend_c, 1, 8192
3, 126080, Pitch_bend_c, 1, 8192
3, 126092, Pitch_bend_c, 1, 8192
3, 126112, Pitch_bend_c, 1, 8192
3, 126131, Pitch_bend_c, 1, 8192
3, 126150, Pitch_bend_c, 1, 8192
3, 126169, Pitch_bend_c, 1, 8192
3, 126188, Pitch_bend_c, 1, 8192
3, 126201, Pitch_bend_c, 1, 8192
3, 126220, Pitch_bend_c, 1, 8192
3, 126240, Pitch_bend_c, 1, 8192
3, 126259, Pitch_bend_c, 1, 8192
3, 126278, Pitch_bend_c, 1, 8192
3, 126291, Pitch_bend_c, 1, 8192
3, 126310, Pitch_bend_c, 1, 8192
3, 126329, Pitch_bend_c, 1, 8192
3, 126348, Pitch_bend_c, 1, 8192
3, 126368, Pitch_bend_c, 1, 8192
3, 126387, Pitch_bend_c, 1, 8192
3, 126400, Pitch_bend_c, 1, 8192
3, 126419, Pitch_bend_c, 1, 8192
3, 126438, Pitch_bend_c, 1, 8192
3, 126457, Pitch_bend_c, 1, 8192
3, 126476, Pitch_bend_c, 1, 8192
3, 126489, Pitch_bend_c, 1, 8192
3, 126508, Pitch_bend_c, 1, 8192
3, 126528, Pitch_bend_c, 1, 8192
3, 126547, Pitch_bend_c, 1, 8192
3, 126566, Pitch_bend_c, 1, 8320
3, 126579, Pitch_bend_c, 1, 8320
3, 126598, Pitch_bend_c, 1, 8320
3, 126617, Pitch_bend_c, 1, 8320
3, 126636, Pitch_bend_c, 1, 8448
3, 126656, Pitch_bend_c, 1, 8448
3, 126668, Pitch_bend_c, 1, 8448
3, 126688, Pitch_bend_c, 1, 8448
3, 126707, Pitch_bend_c, 1, 8448
3, 126726, Pitch_bend_c, 1, 8320
3, 126745, Pitch_bend_c, 1, 8320
3, 126764, Pitch_bend_c, 1, 8320
3, 126777, Pitch_bend_c, 1, 8320
3, 126796, Pitch_bend_c, 1, 8192
3, 126816, Pitch_bend_c, 1, 8192
3, 126835, Pitch_bend_c, 1, 8192
3, 126854, Pitch_bend_c, 1, 8064
3, 126867, Pitch_bend_c, 1, 8064
3, 126886, Pitch_bend_c, 1, 8064
3, 126905, Pitch_bend_c, 1, 8064
3, 126924, Pitch_bend_c, 1, 7936
3, 126944, Pitch_bend_c, 1, 7936
3, 126963, Pitch_bend_c, 1, 7936
3, 126976, Pitch_bend_c, 1, 7936
3, 126995, Pitch_bend_c, 1, 7936
3, 127014, Pitch_bend_c, 1, 8064
3, 127033, Pitch_bend_c, 1, 8064
3, 127052, Pitch_bend_c, 1, 8064
3, 127065, Pitch_bend_c, 1, 8064
3, 127084, Pitch_bend_c, 1, 8192
3, 127104, Pitch_bend_c, 1, 8192
3, 127123, Pitch_bend_c, 1, 8192
3, 127142, Pitch_bend_c, 1, 8320
3, 127155, Pitch_bend_c, 1, 8320
3, 127174, Pitch_bend_c, 1, 8320
3, 127193, Pitch_bend_c, 1, 8320
3, 127212, Pitch_bend_c, 1, 8320
3, 127232, Pitch_bend_c, 1, 8320
3, 127244, Pitch_bend_c, 1, 8320
3, 127264, Pitch_bend_c, 1, 8320
3, 127283, Pitch_bend_c, 1, 8320
3, 127302, Pitch_bend_c, 1, 8320
3, 127321, Pitch_bend_c, 1, 8320
3, 127340, Pitch_bend_c, 1, 8320
3, 127353, Pitch_bend_c, 1, 8320
3, 127372, Pitch_bend_c, 1, 8192
3, 127392, Pitch_bend_c, 1, 8192
3, 127411, Pitch_bend_c, 1, 8192
3, 127430, Pitch_bend_c, 1, 8064
3, 127443, Pitch_bend_c, 1, 8064
3, 127462, Pitch_bend_c, 1, 8064
3, 127481, Pitch_bend_c, 1, 8064
3, 127500, Pitch_bend_c, 1, 8064
3, 127520, Pitch_bend_c, 1, 8064
3, 127539, Pitch_bend_c, 1, 8064
3, 127552, Pitch_bend_c, 1, 8064
3, 127571, Pitch_bend_c, 1, 8064
3, 127590, Pitch_bend_c, 1, 8064
3, 127609, Pitch_bend_c, 1, 8064
3, 127628, Pitch_bend_c, 1, 8064
3, 127641, Pitch_bend_c, 1, 8064
3, 127660, Pitch_bend_c, 1, 8192
3, 127680, Pitch_bend_c, 1, 8192
3, 127699, Pitch_bend_c, 1, 8192
3, 127718, Pitch_bend_c, 1, 8320
3, 127731, Pitch_bend_c, 1, 8320
3, 127750, Pitch_bend_c, 1, 8320
3, 127769, Pitch_bend_c, 1, 8448
3, 127788, Pitch_bend_c, 1, 8448
3, 127808, Pitch_bend_c, 1, 8448
3, 127820, Pitch_bend_c, 1, 8448
3, 127840, Pitch_bend_c, 1, 8448
3, 127859, Pitch_bend_c, 1, 8448
3, 127878, Pitch_bend_c, 1, 8448
3, 127897, Pitch_bend_c, 1, 8320
3, 127916, Pitch_bend_c, 1, 8320
3, 127929, Pitch_bend_c, 1, 8320
3, 127948, Pitch_bend_c, 1, 8192
3, 127968, Pitch_bend_c, 1, 8192
3, 127987, Pitch_bend_c, 1, 8192
3, 128006, Pitch_bend_c, 1, 8064
3, 128019, Pitch_bend_c, 1, 8064
3, 128038, Pitch_bend_c, 1, 8064
3, 128057, Pitch_bend_c, 1, 7936
3, 128076, Pitch_bend_c, 1, 7936
3, 128096, Pitch_bend_c, 1, 7936
3, 128115, Pitch_bend_c, 1, 7936
3, 128128, Pitch_bend_c, 1, 7936
3, 128147, Pitch_bend_c, 1, 7936
3, 128166, Pitch_bend_c, 1, 7936
3, 128185, Pitch_bend_c, 1, 8064
3, 128204, Pitch_bend_c, 1, 8064
3, 128217, Pitch_bend_c, 1, 8064
3, 128236, Pitch_bend_c, 1, 8192
3, 128256, Pitch_bend_c, 1, 8192
3, 128275, Pitch_bend_c, 1, 8192
3, 128294, Pitch_bend_c, 1, 8320
3, 128307, Pitch_bend_c, 1, 8320
3, 128326, Pitch_bend_c, 1, 8320
3, 128345, Pitch_bend_c, 1, 8320
3, 128364, Pitch_bend_c, 1, 8320
3, 128384, Pitch_bend_c, 1, 8320
3, 128396, Pitch_bend_c, 1, 8320
3, 128416, Pitch_bend_c, 1, 8320
3, 128435, Pitch_bend_c, 1, 8320
3, 128454, Pitch_bend_c, 1, 8320
3, 128473, Pitch_bend_c, 1, 8320
3, 128492, Pitch_bend_c, 1, 8320
3, 128505, Pitch_bend_c, 1, 8320
3, 128524, Pitch_bend_c, 1, 8192
3, 128544, Pitch_bend_c, 1, 8192
3, 128563, Pitch_bend_c, 1, 8192
3, 128582, Pitch_bend_c, 1, 8064
3, 128595, Pitch_bend_c, 1, 8064
3, 128614, Pitch_bend_c, 1, 8064
3, 128633, Pitch_bend_c, 1, 8064
3, 128652, Pitch_bend_c, 1, 8064
3, 128672, Pitch_bend_c, 1, 8064
3, 128691, Pitch_bend_c, 1, 8064
3, 128704, Pitch_bend_c, 1, 8064
3, 128723, Pitch_bend_c, 1, 8064
3, 128742, Pitch_bend_c, 1, 8064
3, 128761, Pitch_bend_c, 1, 8064
3, 128780, Pitch_bend_c, 1, 8064
3, 128793, Pitch_bend_c, 1, 8064
3, 128812, Pitch_bend_c, 1, 8192
3, 128832, Pitch_bend_c, 1, 8192
3, 128851, Pitch_bend_c, 1, 8192
3, 128870, Pitch_bend_c, 1, 8192
3, 128883, Pitch_bend_c, 1, 8192
3, 128902, Pitch_bend_c, 1, 8192
3, 128921, Pitch_bend_c, 1, 8192
3, 128940, Pitch_bend_c, 1, 8192
3, 128960, Pitch_bend_c, 1, 8192
3, 128972, Pitch_bend_c, 1, 8192
3, 128992, Pitch_bend_c, 1, 8192
3, 129011, Pitch_bend_c, 1, 8192
3, 129024, Pitch_bend_c, 1, 8192
3, 129043, Pitch_bend_c, 1, 8192
3, 129062, Pitch_bend_c, 1, 8192
3, 129075, Pitch_bend_c, 1, 8192
3, 129094, Pitch_bend_c, 1, 8192
3, 129113, Pitch_bend_c, 1, 8192
3, 129132, Pitch_bend_c, 1, 8192
3, 129152, Pitch_bend_c, 1, 8192
3, 129164, Pitch_bend_c, 1, 8192
3, 129184, Pitch_bend_c, 1, 8192
3, 129203, Pitch_bend_c, 1, 8192
3, 129222, Pitch_bend_c, 1, 8192
3, 129241, Pitch_bend_c, 1, 8192
3, 129260, Pitch_bend_c, 1, 8192
3, 129273, Pitch_bend_c, 1, 8192
3, 129292, Pitch_bend_c, 1, 8192
3, 129312, Pitch_bend_c, 1, 8192
3, 129331, Pitch_bend_c, 1, 8192
3, 129350, Pitch_bend_c, 1, 8192
3, 129363, Pitch_bend_c, 1, 8192
3, 129382, Pitch_bend_c, 1, 8192
3, 129401, Pitch_bend_c, 1, 8192
3, 129420, Pitch_bend_c, 1, 8192
3, 129440, Pitch_bend_c, 1, 8192
3, 129459, Pitch_bend_c, 1, 8192
3, 129472, Pitch_bend_c, 1, 8192
3, 129491, Pitch_bend_c, 1, 8192
3, 129510, Pitch_bend_c, 1, 8192
3, 129529, Pitch_bend_c, 1, 8192
3, 129548, Pitch_bend_c, 1, 8192
3, 129561, Pitch_bend_c, 1, 8192
3, 129580, Pitch_bend_c, 1, 8192
3, 129600, Pitch_bend_c, 1, 8192
3, 129619, Pitch_bend_c, 1, 8192
3, 129638, Pitch_bend_c, 1, 8320
3, 129651, Pitch_bend_c, 1, 8320
3, 129670, Pitch_bend_c, 1, 8320
3, 129689, Pitch_bend_c, 1, 8320
3, 129708, Pitch_bend_c, 1, 8320
3, 129728, Pitch_bend_c, 1, 8320
3, 129740, Pitch_bend_c, 1, 8320
3, 129760, Pitch_bend_c, 1, 8320
3, 129779, Pitch_bend_c, 1, 8320
3, 129798, Pitch_bend_c, 1, 8320
3, 129817, Pitch_bend_c, 1, 8320
3, 129836, Pitch_bend_c, 1, 8320
3, 129849, Pitch_bend_c, 1, 8320
3, 129868, Pitch_bend_c, 1, 8192
3, 129888, Pitch_bend_c, 1, 8192
3, 129907, Pitch_bend_c, 1, 8192
3, 129926, Pitch_bend_c, 1, 8064
3, 129939, Pitch_bend_c, 1, 8064
3, 129958, Pitch_bend_c, 1, 8064
3, 129977, Pitch_bend_c, 1, 8064
3, 129996, Pitch_bend_c, 1, 8064
3, 130016, Pitch_bend_c, 1, 8064
3, 130035, Pitch_bend_c, 1, 8064
3, 130048, Pitch_bend_c, 1, 8064
3, 130067, Pitch_bend_c, 1, 8064
3, 130086, Pitch_bend_c, 1, 8064
3, 130105, Pitch_bend_c, 1, 8064
3, 130124, Pitch_bend_c, 1, 8064
3, 130137, Pitch_bend_c, 1, 8064
3, 130156, Pitch_bend_c, 1, 8192
3, 130176, Pitch_bend_c, 1, 8192
3, 130195, Pitch_bend_c, 1, 8192
3, 130214, Pitch_bend_c, 1, 8320
3, 130227, Pitch_bend_c, 1, 8320
3, 130246, Pitch_bend_c, 1, 8320
3, 130265, Pitch_bend_c, 1, 8320
3, 130284, Pitch_bend_c, 1, 8448
3, 130304, Pitch_bend_c, 1, 8448
3, 130316, Pitch_bend_c, 1, 8448
3, 130336, Pitch_bend_c, 1, 8448
3, 130355, Pitch_bend_c, 1, 8448
3, 130374, Pitch_bend_c, 1, 8320
3, 130393, Pitch_bend_c, 1, 8320
3, 130412, Pitch_bend_c, 1, 8320
3, 130425, Pitch_bend_c, 1, 8320
3, 130444, Pitch_bend_c, 1, 8192
3, 130464, Pitch_bend_c, 1, 8192
3, 130483, Pitch_bend_c, 1, 8192
3, 130502, Pitch_bend_c, 1, 8064
3, 130515, Pitch_bend_c, 1, 8064
3, 130534, Pitch_bend_c, 1, 8064
3, 130553, Pitch_bend_c, 1, 8064
3, 130572, Pitch_bend_c, 1, 7936
3, 130592, Pitch_bend_c, 1, 7936
3, 130611, Pitch_bend_c, 1, 7936
3, 130624, Pitch_bend_c, 1, 7936
3, 130643, Pitch_bend_c, 1, 7936
3, 130662, Pitch_bend_c, 1, 8064
3, 130681, Pitch_bend_c, 1, 8064
3, 130700, Pitch_bend_c, 1, 8064
3, 130713, Pitch_bend_c, 1, 8064
3, 130732, Pitch_bend_c, 1, 8192
3, 130752, Pitch_bend_c, 1, 8192
3, 130771, Pitch_bend_c, 1, 8192
3, 130790, Pitch_bend_c, 1, 8320
3, 130803, Pitch_bend_c, 1, 8320
3, 130822, Pitch_bend_c, 1, 8320
3, 130841, Pitch_bend_c, 1, 8320
3, 130860, Pitch_bend_c, 1, 8448
3, 130880, Pitch_bend_c, 1, 8448
3, 130892, Pitch_bend_c, 1, 8448
3, 130912, Pitch_bend_c, 1, 8448
3, 130931, Pitch_bend_c, 1, 8448
3, 130950, Pitch_bend_c, 1, 8320
3, 130969, Pitch_bend_c, 1, 8320
3, 130988, Pitch_bend_c, 1, 8320
3, 131001, Pitch_bend_c, 1, 8320
3, 131020, Pitch_bend_c, 1, 8192
3, 131040, Pitch_bend_c, 1, 8192
3, 131059, Pitch_bend_c, 1, 8192
3, 131078, Pitch_bend_c, 1, 8064
3, 131091, Pitch_bend_c, 1, 8064
3, 131110, Pitch_bend_c, 1, 8064
3, 131129, Pitch_bend_c, 1, 8064
3, 131148, Pitch_bend_c, 1, 7936
3, 131168, Pitch_bend_c, 1, 7936
3, 131187, Pitch_bend_c, 1, 7936
3, 131200, Pitch_bend_c, 1, 7936
3, 131219, Pitch_bend_c, 1, 7936
3, 131238, Pitch_bend_c, 1, 8064
3, 131257, Pitch_bend_c, 1, 8064
3, 131276, Pitch_bend_c, 1, 8064
3, 131289, Pitch_bend_c, 1, 8064
3, 131308, Pitch_bend_c, 1, 8192
3, 131328, Pitch_bend_c, 1, 8192
3, 131347, Pitch_bend_c, 1, 8192
3, 131366, Pitch_bend_c, 1, 8320
3, 131379, Pitch_bend_c, 1, 8320
3, 131398, Pitch_bend_c, 1, 8320
3, 131417, Pitch_bend_c, 1, 8320
3, 131436, Pitch_bend_c, 1, 8448
3, 131456, Pitch_bend_c, 1, 8448
3, 131468, Pitch_bend_c, 1, 8448
3, 131488, Pitch_bend_c, 1, 8448
3, 131507, Pitch_bend_c, 1, 8448
3, 131526, Pitch_bend_c, 1, 8320
3, 131545, Pitch_bend_c, 1, 8320
3, 131564, Pitch_bend_c, 1, 8320
3, 131577, Pitch_bend_c, 1, 8320
3, 131596, Pitch_bend_c, 1, 8192
3, 131616, Pitch_bend_c, 1, 8192
3, 131635, Pitch_bend_c, 1, 8192
3, 131654, Pitch_bend_c, 1, 8064
3, 131667, Pitch_bend_c, 1, 8064
3, 131686, Pitch_bend_c, 1, 8064
3, 131705, Pitch_bend_c, 1, 8064
3, 131724, Pitch_bend_c, 1, 7936
3, 131744, Pitch_bend_c, 1, 7936
3, 131763, Pitch_bend_c, 1, 7936
3, 131776, Pitch_bend_c, 1, 7936
3, 131795, Pitch_bend_c, 1, 7936
3, 131814, Pitch_bend_c, 1, 8064
3, 131833, Pitch_bend_c, 1, 8064
3, 131852, Pitch_bend_c, 1, 8064
3, 131865, Pitch_bend_c, 1, 8064
3, 131884, Pitch_bend_c, 1, 8192
3, 131904, Pitch_bend_c, 1, 8192
3, 131923, Pitch_bend_c, 1, 8192
3, 131942, Pitch_bend_c, 1, 8320
3, 131955, Pitch_bend_c, 1, 8320
3, 131974, Pitch_bend_c, 1, 8320
3, 131993, Pitch_bend_c, 1, 8448
3, 132012, Pitch_bend_c, 1, 8448
3, 132032, Pitch_bend_c, 1, 8448
3, 132044, Pitch_bend_c, 1, 8448
3, 132064, Pitch_bend_c, 1, 8448
3, 132083, Pitch_bend_c, 1, 8448
3, 132102, Pitch_bend_c, 1, 8448
3, 132121, Pitch_bend_c, 1, 8320
3, 132140, Pitch_bend_c, 1, 8320
3, 132153, Pitch_bend_c, 1, 8320
3, 132172, Pitch_bend_c, 1, 8192
3, 132192, Pitch_bend_c, 1, 8192
3, 132211, Pitch_bend_c, 1, 8192
3, 132230, Pitch_bend_c, 1, 8064
3, 132243, Pitch_bend_c, 1, 8064
3, 132262, Pitch_bend_c, 1, 8064
3, 132281, Pitch_bend_c, 1, 7936
3, 132300, Pitch_bend_c, 1, 7936
3, 132320, Pitch_bend_c, 1, 7936
3, 132339, Pitch_bend_c, 1, 7936
3, 132352, Pitch_bend_c, 1, 7936
3, 132371, Pitch_bend_c, 1, 7936
3, 132390, Pitch_bend_c, 1, 7936
3, 132409, Pitch_bend_c, 1, 8064
3, 132428, Pitch_bend_c, 1, 8064
3, 132441, Pitch_bend_c, 1, 8064
3, 132460, Pitch_bend_c, 1, 8192
3, 132480, Pitch_bend_c, 1, 8192
3, 132499, Pitch_bend_c, 1, 8192
3, 132518, Pitch_bend_c, 1, 8320
3, 132531, Pitch_bend_c, 1, 8320
3, 132550, Pitch_bend_c, 1, 8320
3, 132569, Pitch_bend_c, 1, 8320
3, 132588, Pitch_bend_c, 1, 8320
3, 132608, Pitch_bend_c, 1, 8448
3, 132620, Pitch_bend_c, 1, 8448
3, 132640, Pitch_bend_c, 1, 8448
3, 132659, Pitch_bend_c, 1, 8320
3, 132678, Pitch_bend_c, 1, 8320
3, 132697, Pitch_bend_c, 1, 8320
3, 132716, Pitch_bend_c, 1, 8320
3, 132729, Pitch_bend_c, 1, 8320
3, 132748, Pitch_bend_c, 1, 8192
3, 132768, Pitch_bend_c, 1, 8192
3, 132787, Pitch_bend_c, 1, 8192
3, 132806, Pitch_bend_c, 1, 8064
3, 132819, Pitch_bend_c, 1, 8064
3, 132838, Pitch_bend_c, 1, 8064
3, 132857, Pitch_bend_c, 1, 8064
3, 132876, Pitch_bend_c, 1, 8064
3, 132896, Pitch_bend_c, 1, 7936
3, 132915, Pitch_bend_c, 1, 7936
3, 132928, Pitch_bend_c, 1, 7936
3, 132947, Pitch_bend_c, 1, 8064
3, 132966, Pitch_bend_c, 1, 8064
3, 132985, Pitch_bend_c, 1, 8064
3, 133004, Pitch_bend_c, 1, 8064
3, 133017, Pitch_bend_c, 1, 8064
3, 133036, Pitch_bend_c, 1, 8192
3, 133056, Pitch_bend_c, 1, 8192
3, 133075, Pitch_bend_c, 1, 8192
3, 133094, Pitch_bend_c, 1, 8320
3, 133107, Pitch_bend_c, 1, 8320
3, 133126, Pitch_bend_c, 1, 8320
3, 133145, Pitch_bend_c, 1, 8448
3, 133164, Pitch_bend_c, 1, 8448
3, 133184, Pitch_bend_c, 1, 8448
3, 133196, Pitch_bend_c, 1, 8448
3, 133216, Pitch_bend_c, 1, 8448
3, 133235, Pitch_bend_c, 1, 8448
3, 133254, Pitch_bend_c, 1, 8448
3, 133273, Pitch_bend_c, 1, 8320
3, 133292, Pitch_bend_c, 1, 8320
3, 133305, Pitch_bend_c, 1, 8320
3, 133324, Pitch_bend_c, 1, 8192
3, 133344, Pitch_bend_c, 1, 8192
3, 133363, Pitch_bend_c, 1, 8192
3, 133382, Pitch_bend_c, 1, 8064
3, 133395, Pitch_bend_c, 1, 8064
3, 133414, Pitch_bend_c, 1, 8064
3, 133433, Pitch_bend_c, 1, 7936
3, 133452, Pitch_bend_c, 1, 7936
3, 133472, Pitch_bend_c, 1, 7936
3, 133491, Pitch_bend_c, 1, 7936
3, 133504, Pitch_bend_c, 1, 7936
3, 133523, Pitch_bend_c, 1, 7936
3, 133542, Pitch_bend_c, 1, 7936
3, 133561, Pitch_bend_c, 1, 8064
3, 133580, Pitch_bend_c, 1, 8064
3, 133593, Pitch_bend_c, 1, 8064
3, 133612, Pitch_bend_c, 1, 8192
3, 133632, Note_off_c, 1, 70, 80
3, 133632, Pitch_bend_c, 1, 8192
3, 134016, Note_on_c, 1, 63, 79
3, 135168, Note_off_c, 1, 63, 80
3, 135168, Note_on_c, 1, 65, 79
3, 137472, Note_off_c, 1, 65, 80
3, 138240, Note_on_c, 1, 72, 79
3, 138240, Pitch_bend_c, 1, 8192
3, 138259, Pitch_bend_c, 1, 8192
3, 138278, Pitch_bend_c, 1, 8192
3, 138291, Pitch_bend_c, 1, 8192
3, 138310, Pitch_bend_c, 1, 8192
3, 138329, Pitch_bend_c, 1, 8192
3, 138348, Pitch_bend_c, 1, 8064
3, 138368, Pitch_bend_c, 1, 8064
3, 138380, Pitch_bend_c, 1, 8064
3, 138400, Pitch_bend_c, 1, 8064
3, 138419, Pitch_bend_c, 1, 8064
3, 138438, Pitch_bend_c, 1, 8192
3, 138457, Pitch_bend_c, 1, 8192
3, 138476, Pitch_bend_c, 1, 8192
3, 138489, Pitch_bend_c, 1, 8192
3, 138508, Pitch_bend_c, 1, 8192
3, 138528, Pitch_bend_c, 1, 8192
3, 138547, Pitch_bend_c, 1, 8192
3, 138566, Pitch_bend_c, 1, 8192
3, 138579, Pitch_bend_c, 1, 8192
3, 138598, Pitch_bend_c, 1, 8192
3, 138617, Pitch_bend_c, 1, 8192
3, 138636, Pitch_bend_c, 1, 8320
3, 138656, Pitch_bend_c, 1, 8320
3, 138675, Pitch_bend_c, 1, 8320
3, 138688, Pitch_bend_c, 1, 8320
3, 138707, Pitch_bend_c, 1, 8320
3, 138726, Pitch_bend_c, 1, 8192
3, 138745, Pitch_bend_c, 1, 8192
3, 138764, Pitch_bend_c, 1, 8192
3, 138777, Pitch_bend_c, 1, 8192
3, 138796, Pitch_bend_c, 1, 8192
3, 138816, Pitch_bend_c, 1, 8192
3, 138835, Pitch_bend_c, 1, 8192
3, 138854, Pitch_bend_c, 1, 8320
3, 138867, Pitch_bend_c, 1, 8320
3, 138886, Pitch_bend_c, 1, 8320
3, 138905, Pitch_bend_c, 1, 8448
3, 138924, Pitch_bend_c, 1, 8448
3, 138944, Pitch_bend_c, 1, 8448
3, 138956, Pitch_bend_c, 1, 8448
3, 138976, Pitch_bend_c, 1, 8448
3, 138995, Pitch_bend_c, 1, 8448
3, 139014, Pitch_bend_c, 1, 8448
3, 139033, Pitch_bend_c, 1, 8320
3, 139052, Pitch_bend_c, 1, 8320
3, 139065, Pitch_bend_c, 1, 8320
3, 139084, Pitch_bend_c, 1, 8192
3, 139104, Pitch_bend_c, 1, 8192
3, 139123, Pitch_bend_c, 1, 8192
3, 139142, Pitch_bend_c, 1, 8064
3, 139155, Pitch_bend_c, 1, 8064
3, 139174, Pitch_bend_c, 1, 8064
3, 139193, Pitch_bend_c, 1, 7936
3, 139212, Pitch_bend_c, 1, 7936
3, 139232, Pitch_bend_c, 1, 7936
3, 139251, Pitch_bend_c, 1, 7936
3, 139264, Pitch_bend_c, 1, 7936
3, 139283, Pitch_bend_c, 1, 7936
3, 139302, Pitch_bend_c, 1, 7936
3, 139321, Pitch_bend_c, 1, 8064
3, 139340, Pitch_bend_c, 1, 8064
3, 139353, Pitch_bend_c, 1, 8064
3, 139372, Pitch_bend_c, 1, 8192
3, 139392, Pitch_bend_c, 1, 8192
3, 139411, Pitch_bend_c, 1, 8192
3, 139430, Pitch_bend_c, 1, 8320
3, 139443, Pitch_bend_c, 1, 8320
3, 139462, Pitch_bend_c, 1, 8320
3, 139481, Pitch_bend_c, 1, 8320
3, 139500, Pitch_bend_c, 1, 8320
3, 139520, Pitch_bend_c, 1, 8320
3, 139532, Pitch_bend_c, 1, 8320
3, 139552, Pitch_bend_c, 1, 8320
3, 139571, Pitch_bend_c, 1, 8320
3, 139590, Pitch_bend_c, 1, 8320
3, 139609, Pitch_bend_c, 1, 8320
3, 139628, Pitch_bend_c, 1, 8320
3, 139641, Pitch_bend_c, 1, 8320
3, 139660, Pitch_bend_c, 1, 8192
3, 139680, Pitch_bend_c, 1, 8192
3, 139699, Pitch_bend_c, 1, 8192
3, 139718, Pitch_bend_c, 1, 8064
3, 139731, Pitch_bend_c, 1, 8064
3, 139750, Pitch_bend_c, 1, 8064
3, 139769, Pitch_bend_c, 1, 8064
3, 139788, Pitch_bend_c, 1, 8064
3, 139808, Pitch_bend_c, 1, 8064
3, 139827, Pitch_bend_c, 1, 8064
3, 139840, Pitch_bend_c, 1, 8064
3, 139859, Pitch_bend_c, 1, 8064
3, 139878, Pitch_bend_c, 1, 8064
3, 139897, Pitch_bend_c, 1, 8064
3, 139916, Pitch_bend_c, 1, 8064
3, 139929, Pitch_bend_c, 1, 8064
3, 139948, Pitch_bend_c, 1, 8192
3, 139968, Pitch_bend_c, 1, 8192
3, 139987, Pitch_bend_c, 1, 8192
3, 140006, Pitch_bend_c, 1, 8320
3, 140019, Pitch_bend_c, 1, 8320
3, 140038, Pitch_bend_c, 1, 8448
3, 140057, Pitch_bend_c, 1, 8448
3, 140076, Pitch_bend_c, 1, 8448
3, 140096, Pitch_bend_c, 1, 8448
3, 140108, Pitch_bend_c, 1, 8448
3, 140128, Pitch_bend_c, 1, 8448
3, 140147, Pitch_bend_c, 1, 8448
3, 140166, Pitch_bend_c, 1, 8448
3, 140185, Pitch_bend_c, 1, 8448
3, 140204, Pitch_bend_c, 1, 8320
3, 140217, Pitch_bend_c, 1, 8320
3, 140236, Pitch_bend_c, 1, 8192
3, 140256, Pitch_bend_c, 1, 8192
3, 140275, Pitch_bend_c, 1, 8192
3, 140294, Pitch_bend_c, 1, 8064
3, 140307, Pitch_bend_c, 1, 8064
3, 140326, Pitch_bend_c, 1, 7936
3, 140345, Pitch_bend_c, 1, 7936
3, 140364, Pitch_bend_c, 1, 7936
3, 140384, Pitch_bend_c, 1, 7936
3, 140403, Pitch_bend_c, 1, 7936
3, 140416, Pitch_bend_c, 1, 7936
3, 140435, Pitch_bend_c, 1, 7936
3, 140454, Pitch_bend_c, 1, 7936
3, 140473, Pitch_bend_c, 1, 7936
3, 140492, Pitch_bend_c, 1, 8064
3, 140505, Pitch_bend_c, 1, 8064
3, 140524, Pitch_bend_c, 1, 8192
3, 140544, Pitch_bend_c, 1, 8192
3, 140563, Pitch_bend_c, 1, 8192
3, 140582, Pitch_bend_c, 1, 8320
3, 140595, Pitch_bend_c, 1, 8320
3, 140614, Pitch_bend_c, 1, 8320
3, 140633, Pitch_bend_c, 1, 8320
3, 140652, Pitch_bend_c, 1, 8320
3, 140672, Pitch_bend_c, 1, 8448
3, 140684, Pitch_bend_c, 1, 8448
3, 140704, Pitch_bend_c, 1, 8448
3, 140723, Pitch_bend_c, 1, 8320
3, 140742, Pitch_bend_c, 1, 8320
3, 140761, Pitch_bend_c, 1, 8320
3, 140780, Pitch_bend_c, 1, 8320
3, 140793, Pitch_bend_c, 1, 8320
3, 140812, Pitch_bend_c, 1, 8192
3, 140832, Pitch_bend_c, 1, 8192
3, 140851, Pitch_bend_c, 1, 8192
3, 140870, Pitch_bend_c, 1, 8064
3, 140883, Pitch_bend_c, 1, 8064
3, 140902, Pitch_bend_c, 1, 8064
3, 140921, Pitch_bend_c, 1, 8064
3, 140940, Pitch_bend_c, 1, 8064
3, 140960, Pitch_bend_c, 1, 7936
3, 140979, Pitch_bend_c, 1, 7936
3, 140992, Pitch_bend_c, 1, 7936
3, 141011, Pitch_bend_c, 1, 8064
3, 141030, Pitch_bend_c, 1, 8064
3, 141049, Pitch_bend_c, 1, 8064
3, 141068, Pitch_bend_c, 1, 8064
3, 141081, Pitch_bend_c, 1, 8064
3, 141100, Pitch_bend_c, 1, 8192
3, 141120, Pitch_bend_c, 1, 8192
3, 141139, Pitch_bend_c, 1, 8192
3, 141158, Pitch_bend_c, 1, 8192
3, 141171, Pitch_bend_c, 1, 8192
3, 141190, Pitch_bend_c, 1, 8192
3, 141209, Pitch_bend_c, 1, 8192
3, 141228, Pitch_bend_c, 1, 8192
3, 141248, Pitch_bend_c, 1, 8192
3, 141260, Pitch_bend_c, 1, 8192
3, 141280, Pitch_bend_c, 1, 8192
3, 141299, Pitch_bend_c, 1, 8192
3, 141312, Pitch_bend_c, 1, 8192
3, 141331, Pitch_bend_c, 1, 8192
3, 141350, Pitch_bend_c, 1, 8192
3, 141363, Pitch_bend_c, 1, 8192
3, 141382, Pitch_bend_c, 1, 8192
3, 141401, Pitch_bend_c, 1, 8192
3, 141420, Pitch_bend_c, 1, 8192
3, 141440, Pitch_bend_c, 1, 8192
3, 141452, Pitch_bend_c, 1, 8192
3, 141472, Pitch_bend_c, 1, 8192
3, 141491, Pitch_bend_c, 1, 8192
3, 141510, Pitch_bend_c, 1, 8192
3, 141529, Pitch_bend_c, 1, 8192
3, 141548, Pitch_bend_c, 1, 8192
3, 141561, Pitch_bend_c, 1, 8192
3, 141580, Pitch_bend_c, 1, 8192
3, 141600, Pitch_bend_c, 1, 8192
3, 141619, Pitch_bend_c, 1, 8192
3, 141638, Pitch_bend_c, 1, 8192
3, 141651, Pitch_bend_c, 1, 8192
3, 141670, Pitch_bend_c, 1, 8192
3, 141689, Pitch_bend_c, 1, 8192
3, 141708, Pitch_bend_c, 1, 8192
3, 141728, Pitch_bend_c, 1, 8192
3, 141747, Pitch_bend_c, 1, 8192
3, 141760, Pitch_bend_c, 1, 8192
3, 141779, Pitch_bend_c, 1, 8192
3, 141798, Pitch_bend_c, 1, 8192
3, 141817, Pitch_bend_c, 1, 8192
3, 141836, Pitch_bend_c, 1, 8192
3, 141849, Pitch_bend_c, 1, 8192
3, 141868, Pitch_bend_c, 1, 8192
3, 141888, Pitch_bend_c, 1, 8192
3, 141907, Pitch_bend_c, 1, 8192
3, 141926, Pitch_bend_c, 1, 8320
3, 141939, Pitch_bend_c, 1, 8320
3, 141958, Pitch_bend_c, 1, 8320
3, 141977, Pitch_bend_c, 1, 8320
3, 141996, Pitch_bend_c, 1, 8320
3, 142016, Pitch_bend_c, 1, 8320
3, 142028, Pitch_bend_c, 1, 8320
3, 142048, Pitch_bend_c, 1, 8320
3, 142067, Pitch_bend_c, 1, 8320
3, 142080, Note_off_c, 1, 72, 80
3, 142080, Pitch_bend_c, 1, 8192
3, 143616, Note_on_c, 1, 72, 79
3, 143616, Pitch_bend_c, 1, 8192
3, 143667, Pitch_bend_c, 1, 8192
3, 143712, Pitch_bend_c, 1, 8192
3, 143756, Pitch_bend_c, 1, 8192
3, 143808, Pitch_bend_c, 1, 8192
3, 143859, Pitch_bend_c, 1, 8192
3, 143904, Pitch_bend_c, 1, 8192
3, 143948, Pitch_bend_c, 1, 8192
3, 144000, Pitch_bend_c, 1, 8192
3, 144051, Pitch_bend_c, 1, 8192
3, 144096, Pitch_bend_c, 1, 8192
3, 144140, Pitch_bend_c, 1, 8192
3, 144192, Pitch_bend_c, 1, 8192
3, 144243, Pitch_bend_c, 1, 8192
3, 144288, Pitch_bend_c, 1, 8192
3, 144332, Pitch_bend_c, 1, 8192
3, 144384, Pitch_bend_c, 1, 9600
3, 147456, Pitch_bend_c, 1, 9600
3, 148787, Pitch_bend_c, 1, 9472
3, 148889, Pitch_bend_c, 1, 9344
3, 149094, Pitch_bend_c, 1, 9088
3, 149196, Pitch_bend_c, 1, 8960
3, 149299, Pitch_bend_c, 1, 8704
3, 149401, Pitch_bend_c, 1, 8576
3, 149504, Pitch_bend_c, 1, 8448
3, 149606, Pitch_bend_c, 1, 8320
3, 149913, Pitch_bend_c, 1, 8192
3, 151296, Note_off_c, 1, 72, 80
3, 151296, Pitch_bend_c, 1, 8192
3, 151296, Note_on_c, 1, 70, 79
3, 151987, Pitch_bend_c, 1, 8832
3, 152064, Pitch_bend_c, 1, 9600
3, 152832, Note_off_c, 1, 70, 80
3, 152832, Pitch_bend_c, 1, 8192
3, 152832, Note_on_c, 1, 72, 79
3, 153600, Note_off_c, 1, 72, 80
3, 153600, Note_on_c, 1, 70, 79
3, 153600, Pitch_bend_c, 1, 8192
3, 153619, Pitch_bend_c, 1, 8192
3, 153638, Pitch_bend_c, 1, 8192
3, 153651, Pitch_bend_c, 1, 8192
3, 153670, Pitch_bend_c, 1, 8192
3, 153689, Pitch_bend_c, 1, 8192
3, 153708, Pitch_bend_c, 1, 8192
3, 153728, Pitch_bend_c, 1, 8192
3, 153740, Pitch_bend_c, 1, 8192
3, 153760, Pitch_bend_c, 1, 8192
3, 153779, Pitch_bend_c, 1, 8192
3, 153798, Pitch_bend_c, 1, 8192
3, 153817, Pitch_bend_c, 1, 8192
3, 153836, Pitch_bend_c, 1, 8192
3, 153849, Pitch_bend_c, 1, 8192
3, 153868, Pitch_bend_c, 1, 8192
3, 153888, Pitch_bend_c, 1, 8192
3, 153907, Pitch_bend_c, 1, 8192
3, 153926, Pitch_bend_c, 1, 8192
3, 153939, Pitch_bend_c, 1, 8192
3, 153958, Pitch_bend_c, 1, 8192
3, 153977, Pitch_bend_c, 1, 8192
3, 153996, Pitch_bend_c, 1, 8192
3, 154016, Pitch_bend_c, 1, 8192
3, 154035, Pitch_bend_c, 1, 8192
3, 154048, Pitch_bend_c, 1, 8192
3, 154067, Pitch_bend_c, 1, 8192
3, 154086, Pitch_bend_c, 1, 8192
3, 154105, Pitch_bend_c, 1, 8192
3, 154124, Pitch_bend_c, 1, 8192
3, 154137, Pitch_bend_c, 1, 8192
3, 154156, Pitch_bend_c, 1, 8192
3, 154176, Pitch_bend_c, 1, 8192
3, 154195, Pitch_bend_c, 1, 8192
3, 154214, Pitch_bend_c, 1, 8320
3, 154227, Pitch_bend_c, 1, 8320
3, 154246, Pitch_bend_c, 1, 8448
3, 154265, Pitch_bend_c, 1, 8448
3, 154284, Pitch_bend_c, 1, 8448
3, 154304, Pitch_bend_c, 1, 8448
3, 154316, Pitch_bend_c, 1, 8448
3, 154336, Pitch_bend_c, 1, 8448
3, 154355, Pitch_bend_c, 1, 8448
3, 154374, Pitch_bend_c, 1, 8448
3, 154393, Pitch_bend_c, 1, 8448
3, 154412, Pitch_bend_c, 1, 8320
3, 154425, Pitch_bend_c, 1, 8320
3, 154444, Pitch_bend_c, 1, 8192
3, 154464, Pitch_bend_c, 1, 8192
3, 154483, Pitch_bend_c, 1, 8192
3, 154502, Pitch_bend_c, 1, 8064
3, 154515, Pitch_bend_c, 1, 8064
3, 154534, Pitch_bend_c, 1, 7936
3, 154553, Pitch_bend_c, 1, 7936
3, 154572, Pitch_bend_c, 1, 7936
3, 154592, Pitch_bend_c, 1, 7936
3, 154611, Pitch_bend_c, 1, 7936
3, 154624, Pitch_bend_c, 1, 7936
3, 154643, Pitch_bend_c, 1, 7936
3, 154662, Pitch_bend_c, 1, 7936
3, 154681, Pitch_bend_c, 1, 7936
3, 154700, Pitch_bend_c, 1, 8064
3, 154713, Pitch_bend_c, 1, 8064
3, 154732, Pitch_bend_c, 1, 8192
3, 154752, Pitch_bend_c, 1, 8192
3, 154771, Pitch_bend_c, 1, 8192
3, 154790, Pitch_bend_c, 1, 8320
3, 154803, Pitch_bend_c, 1, 8320
3, 154822, Pitch_bend_c, 1, 8320
3, 154841, Pitch_bend_c, 1, 8320
3, 154860, Pitch_bend_c, 1, 8320
3, 154880, Pitch_bend_c, 1, 8448
3, 154892, Pitch_bend_c, 1, 8448
3, 154912, Pitch_bend_c, 1, 8448
3, 154931, Pitch_bend_c, 1, 8320
3, 154950, Pitch_bend_c, 1, 8320
3, 154969, Pitch_bend_c, 1, 8320
3, 154988, Pitch_bend_c, 1, 8320
3, 155001, Pitch_bend_c, 1, 8320
3, 155020, Pitch_bend_c, 1, 8192
3, 155040, Pitch_bend_c, 1, 8192
3, 155059, Pitch_bend_c, 1, 8192
3, 155078, Pitch_bend_c, 1, 8064
3, 155091, Pitch_bend_c, 1, 8064
3, 155110, Pitch_bend_c, 1, 8064
3, 155129, Pitch_bend_c, 1, 8064
3, 155148, Pitch_bend_c, 1, 8064
3, 155168, Pitch_bend_c, 1, 7936
3, 155187, Pitch_bend_c, 1, 7936
3, 155200, Pitch_bend_c, 1, 7936
3, 155219, Pitch_bend_c, 1, 8064
3, 155238, Pitch_bend_c, 1, 8064
3, 155257, Pitch_bend_c, 1, 8064
3, 155276, Pitch_bend_c, 1, 8064
3, 155289, Pitch_bend_c, 1, 8064
3, 155308, Pitch_bend_c, 1, 8192
3, 155328, Pitch_bend_c, 1, 8192
3, 155347, Pitch_bend_c, 1, 8320
3, 155366, Pitch_bend_c, 1, 8320
3, 155379, Pitch_bend_c, 1, 8320
3, 155398, Pitch_bend_c, 1, 8448
3, 155417, Pitch_bend_c, 1, 8448
3, 155436, Pitch_bend_c, 1, 8448
3, 155456, Pitch_bend_c, 1, 8448
3, 155468, Pitch_bend_c, 1, 8448
3, 155488, Pitch_bend_c, 1, 8448
3, 155507, Pitch_bend_c, 1, 8448
3, 155526, Pitch_bend_c, 1, 8448
3, 155545, Pitch_bend_c, 1, 8448
3, 155564, Pitch_bend_c, 1, 8320
3, 155577, Pitch_bend_c, 1, 8320
3, 155596, Pitch_bend_c, 1, 8320
3, 155616, Pitch_bend_c, 1, 8192
3, 155635, Pitch_bend_c, 1, 8064
3, 155654, Pitch_bend_c, 1, 8064
3, 155667, Pitch_bend_c, 1, 8064
3, 155686, Pitch_bend_c, 1, 7936
3, 155705, Pitch_bend_c, 1, 7936
3, 155724, Pitch_bend_c, 1, 7936
3, 155744, Pitch_bend_c, 1, 7936
3, 155763, Pitch_bend_c, 1, 7936
3, 155776, Pitch_bend_c, 1, 7936
3, 155795, Pitch_bend_c, 1, 7936
3, 155814, Pitch_bend_c, 1, 7936
3, 155833, Pitch_bend_c, 1, 7936
3, 155852, Pitch_bend_c, 1, 8064
3, 155865, Pitch_bend_c, 1, 8064
3, 155884, Pitch_bend_c, 1, 8064
3, 155904, Pitch_bend_c, 1, 8192
3, 155904, Note_on_c, 1, 69, 79
3, 156096, Pitch_bend_c, 1, 7552
3, 156160, Pitch_bend_c, 1, 6784
3, 156179, Pitch_bend_c, 1, 6784
3, 156262, Pitch_bend_c, 1, 6144
3, 156345, Pitch_bend_c, 1, 5504
3, 156416, Pitch_bend_c, 1, 7552
3, 156422, Pitch_bend_c, 1, 4736
3, 156505, Pitch_bend_c, 1, 4096
3, 156588, Pitch_bend_c, 1, 3456
3, 156672, Note_off_c, 1, 70, 80
3, 156672, Pitch_bend_c, 1, 8192
3, 158208, Note_off_c, 1, 69, 80
3, 158208, Note_on_c, 1, 68, 79
3, 158976, Note_off_c, 1, 68, 80
3, 158976, Note_on_c, 1, 67, 79
3, 159744, Note_off_c, 1, 67, 80
3, 159744, Note_on_c, 1, 66, 79
3, 159744, Pitch_bend_c, 1, 8192
3, 159763, Pitch_bend_c, 1, 8192
3, 159782, Pitch_bend_c, 1, 8192
3, 159795, Pitch_bend_c, 1, 8192
3, 159814, Pitch_bend_c, 1, 8192
3, 159833, Pitch_bend_c, 1, 8192
3, 159852, Pitch_bend_c, 1, 8192
3, 159872, Pitch_bend_c, 1, 8192
3, 159884, Pitch_bend_c, 1, 8192
3, 159904, Pitch_bend_c, 1, 8192
3, 159923, Pitch_bend_c, 1, 8192
3, 159942, Pitch_bend_c, 1, 8192
3, 159961, Pitch_bend_c, 1, 8192
3, 159980, Pitch_bend_c, 1, 8192
3, 159993, Pitch_bend_c, 1, 8192
3, 160012, Pitch_bend_c, 1, 8192
3, 160032, Pitch_bend_c, 1, 8192
3, 160051, Pitch_bend_c, 1, 8192
3, 160070, Pitch_bend_c, 1, 8192
3, 160083, Pitch_bend_c, 1, 8192
3, 160102, Pitch_bend_c, 1, 8192
3, 160121, Pitch_bend_c, 1, 8192
3, 160140, Pitch_bend_c, 1, 8192
3, 160160, Pitch_bend_c, 1, 8192
3, 160179, Pitch_bend_c, 1, 8192
3, 160192, Pitch_bend_c, 1, 8192
3, 160211, Pitch_bend_c, 1, 8192
3, 160230, Pitch_bend_c, 1, 8192
3, 160249, Pitch_bend_c, 1, 8192
3, 160268, Pitch_bend_c, 1, 8192
3, 160281, Pitch_bend_c, 1, 8192
3, 160300, Pitch_bend_c, 1, 8192
3, 160320, Pitch_bend_c, 1, 8192
3, 160339, Pitch_bend_c, 1, 8192
3, 160358, Pitch_bend_c, 1, 8320
3, 160371, Pitch_bend_c, 1, 8320
3, 160390, Pitch_bend_c, 1, 8320
3, 160409, Pitch_bend_c, 1, 8320
3, 160428, Pitch_bend_c, 1, 8320
3, 160448, Pitch_bend_c, 1, 8320
3, 160460, Pitch_bend_c, 1, 8320
3, 160480, Pitch_bend_c, 1, 8320
3, 160499, Pitch_bend_c, 1, 8320
3, 160518, Pitch_bend_c, 1, 8320
3, 160537, Pitch_bend_c, 1, 8320
3, 160556, Pitch_bend_c, 1, 8320
3, 160569, Pitch_bend_c, 1, 8320
3, 160588, Pitch_bend_c, 1, 8192
3, 160608, Pitch_bend_c, 1, 8192
3, 160627, Pitch_bend_c, 1, 8192
3, 160646, Pitch_bend_c, 1, 8064
3, 160659, Pitch_bend_c, 1, 8064
3, 160678, Pitch_bend_c, 1, 8064
3, 160697, Pitch_bend_c, 1, 8064
3, 160716, Pitch_bend_c, 1, 8064
3, 160736, Pitch_bend_c, 1, 8064
3, 160755, Pitch_bend_c, 1, 8064
3, 160768, Pitch_bend_c, 1, 8064
3, 160787, Pitch_bend_c, 1, 8064
3, 160806, Pitch_bend_c, 1, 8064
3, 160825, Pitch_bend_c, 1, 8064
3, 160844, Pitch_bend_c, 1, 8064
3, 160857, Pitch_bend_c, 1, 8064
3, 160876, Pitch_bend_c, 1, 8192
3, 160896, Pitch_bend_c, 1, 8192
3, 160915, Pitch_bend_c, 1, 8192
3, 160934, Pitch_bend_c, 1, 8320
3, 160947, Pitch_bend_c, 1, 8320
3, 160966, Pitch_bend_c, 1, 8320
3, 160985, Pitch_bend_c, 1, 8320
3, 161004, Pitch_bend_c, 1, 8448
3, 161024, Pitch_bend_c, 1, 8448
3, 161036, Pitch_bend_c, 1, 8448
3, 161056, Pitch_bend_c, 1, 8448
3, 161075, Pitch_bend_c, 1, 8448
3, 161094, Pitch_bend_c, 1, 8320
3, 161113, Pitch_bend_c, 1, 8320
3, 161132, Pitch_bend_c, 1, 8320
3, 161145, Pitch_bend_c, 1, 8320
3, 161164, Pitch_bend_c, 1, 8192
3, 161184, Pitch_bend_c, 1, 8192
3, 161203, Pitch_bend_c, 1, 8192
3, 161222, Pitch_bend_c, 1, 8064
3, 161235, Pitch_bend_c, 1, 8064
3, 161254, Pitch_bend_c, 1, 8064
3, 161273, Pitch_bend_c, 1, 8064
3, 161292, Pitch_bend_c, 1, 7936
3, 161312, Pitch_bend_c, 1, 7936
3, 161331, Pitch_bend_c, 1, 7936
3, 161344, Pitch_bend_c, 1, 7936
3, 161363, Pitch_bend_c, 1, 7936
3, 161382, Pitch_bend_c, 1, 8064
3, 161401, Pitch_bend_c, 1, 8064
3, 161420, Pitch_bend_c, 1, 8064
3, 161433, Pitch_bend_c, 1, 8064
3, 161452, Pitch_bend_c, 1, 8192
3, 161472, Pitch_bend_c, 1, 8192
3, 161491, Pitch_bend_c, 1, 8192
3, 161510, Pitch_bend_c, 1, 8320
3, 161523, Pitch_bend_c, 1, 8320
3, 161542, Pitch_bend_c, 1, 8320
3, 161561, Pitch_bend_c, 1, 8320
3, 161580, Pitch_bend_c, 1, 8448
3, 161600, Pitch_bend_c, 1, 8448
3, 161612, Pitch_bend_c, 1, 8448
3, 161632, Pitch_bend_c, 1, 8448
3, 161651, Pitch_bend_c, 1, 8448
3, 161670, Pitch_bend_c, 1, 8320
3, 161689, Pitch_bend_c, 1, 8320
3, 161708, Pitch_bend_c, 1, 8320
3, 161721, Pitch_bend_c, 1, 8320
3, 161740, Pitch_bend_c, 1, 8192
3, 161760, Pitch_bend_c, 1, 8192
3, 161779, Pitch_bend_c, 1, 8192
3, 161798, Pitch_bend_c, 1, 8064
3, 161811, Pitch_bend_c, 1, 8064
3, 161830, Pitch_bend_c, 1, 8064
3, 161849, Pitch_bend_c, 1, 8064
3, 161868, Pitch_bend_c, 1, 7936
3, 161888, Pitch_bend_c, 1, 7936
3, 161907, Pitch_bend_c, 1, 7936
3, 161920, Pitch_bend_c, 1, 7936
3, 161939, Pitch_bend_c, 1, 7936
3, 161958, Pitch_bend_c, 1, 8064
3, 161977, Pitch_bend_c, 1, 8064
3, 161996, Pitch_bend_c, 1, 8064
3, 162009, Pitch_bend_c, 1, 8064
3, 162028, Pitch_bend_c, 1, 8192
3, 162048, Pitch_bend_c, 1, 8192
3, 162067, Pitch_bend_c, 1, 8192
3, 162086, Pitch_bend_c, 1, 8320
3, 162099, Pitch_bend_c, 1, 8320
3, 162118, Pitch_bend_c, 1, 8320
3, 162137, Pitch_bend_c, 1, 8320
3, 162156, Pitch_bend_c, 1, 8320
3, 162176, Pitch_bend_c, 1, 8448
3, 162188, Pitch_bend_c, 1, 8448
3, 162208, Pitch_bend_c, 1, 8448
3, 162227, Pitch_bend_c, 1, 8320
3, 162246, Pitch_bend_c, 1, 8320
3, 162265, Pitch_bend_c, 1, 8320
3, 162284, Pitch_bend_c, 1, 8320
3, 162297, Pitch_bend_c, 1, 8320
3, 162316, Pitch_bend_c, 1, 8192
3, 162336, Pitch_bend_c, 1, 8192
3, 162355, Pitch_bend_c, 1, 8192
3, 162374, Pitch_bend_c, 1, 8064
3, 162387, Pitch_bend_c, 1, 8064
3, 162406, Pitch_bend_c, 1, 8064
3, 162425, Pitch_bend_c, 1, 8064
3, 162444, Pitch_bend_c, 1, 8064
3, 162464, Pitch_bend_c, 1, 7936
3, 162483, Pitch_bend_c, 1, 7936
3, 162496, Pitch_bend_c, 1, 7936
3, 162515, Pitch_bend_c, 1, 8064
3, 162534, Pitch_bend_c, 1, 8064
3, 162553, Pitch_bend_c, 1, 8064
3, 162572, Pitch_bend_c, 1, 8064
3, 162585, Pitch_bend_c, 1, 8064
3, 162604, Pitch_bend_c, 1, 8192
3, 162624, Pitch_bend_c, 1, 8192
3, 162643, Pitch_bend_c, 1, 8320
3, 162662, Pitch_bend_c, 1, 8320
3, 162675, Pitch_bend_c, 1, 8320
3, 162694, Pitch_bend_c, 1, 8448
3, 162713, Pitch_bend_c, 1, 8448
3, 162732, Pitch_bend_c, 1, 8448
3, 162752, Pitch_bend_c, 1, 8448
3, 162764, Pitch_bend_c, 1, 8448
3, 162784, Pitch_bend_c, 1, 8448
3, 162803, Pitch_bend_c, 1, 8448
3, 162822, Pitch_bend_c, 1, 8448
3, 162841, Pitch_bend_c, 1, 8448
3, 162860, Pitch_bend_c, 1, 8320
3, 162873, Pitch_bend_c, 1, 8320
3, 162892, Pitch_bend_c, 1, 8320
3, 162912, Pitch_bend_c, 1, 8192
3, 162931, Pitch_bend_c, 1, 8064
3, 162950, Pitch_bend_c, 1, 8064
3, 162963, Pitch_bend_c, 1, 8064
3, 162982, Pitch_bend_c, 1, 7936
3, 163001, Pitch_bend_c, 1, 7936
3, 163020, Pitch_bend_c, 1, 7936
3, 163040, Pitch_bend_c, 1, 7936
3, 163059, Pitch_bend_c, 1, 7936
3, 163072, Pitch_bend_c, 1, 7936
3, 163091, Pitch_bend_c, 1, 7936
3, 163110, Pitch_bend_c, 1, 7936
3, 163129, Pitch_bend_c, 1, 7936
3, 163148, Pitch_bend_c, 1, 8064
3, 163161, Pitch_bend_c, 1, 8064
3, 163180, Pitch_bend_c, 1, 8064
3, 163200, Pitch_bend_c, 1, 8192
3, 163219, Pitch_bend_c, 1, 8192
3, 163238, Pitch_bend_c, 1, 8320
3, 163251, Pitch_bend_c, 1, 8320
3, 163270, Pitch_bend_c, 1, 8320
3, 163289, Pitch_bend_c, 1, 8320
3, 163308, Pitch_bend_c, 1, 8448
3, 163328, Pitch_bend_c, 1, 8448
3, 163340, Pitch_bend_c, 1, 8448
3, 163360, Pitch_bend_c, 1, 8448
3, 163379, Pitch_bend_c, 1, 8448
3, 163398, Pitch_bend_c, 1, 8320
3, 163417, Pitch_bend_c, 1, 8320
3, 163436, Pitch_bend_c, 1, 8320
3, 163449, Pitch_bend_c, 1, 8320
3, 163468, Pitch_bend_c, 1, 8192
3, 163488, Pitch_bend_c, 1, 8192
3, 163507, Pitch_bend_c, 1, 8192
3, 163526, Pitch_bend_c, 1, 8064
3, 163539, Pitch_bend_c, 1, 8064
3, 163558, Pitch_bend_c, 1, 8064
3, 163577, Pitch_bend_c, 1, 8064
3, 163596, Pitch_bend_c, 1, 7936
3, 163616, Pitch_bend_c, 1, 7936
3, 163635, Pitch_bend_c, 1, 7936
3, 163648, Pitch_bend_c, 1, 7936
3, 163667, Pitch_bend_c, 1, 7936
3, 163686, Pitch_bend_c, 1, 8064
3, 163705, Pitch_bend_c, 1, 8064
3, 163724, Pitch_bend_c, 1, 8064
3, 163737, Pitch_bend_c, 1, 8064
3, 163756, Pitch_bend_c, 1, 8192
3, 163776, Pitch_bend_c, 1, 8192
3, 163795, Pitch_bend_c, 1, 8192
3, 163814, Pitch_bend_c, 1, 8320
3, 163827, Pitch_bend_c, 1, 8320
3, 163846, Pitch_bend_c, 1, 8320
3, 163865, Pitch_bend_c, 1, 8320
3, 163884, Pitch_bend_c, 1, 8448
3, 163904, Pitch_bend_c, 1, 8448
3, 163916, Pitch_bend_c, 1, 8448
3, 163936, Pitch_bend_c, 1, 8448
3, 163955, Pitch_bend_c, 1, 8448
3, 163974, Pitch_bend_c, 1, 8320
3, 163993, Pitch_bend_c, 1, 8320
3, 164012, Pitch_bend_c, 1, 8320
3, 164025, Pitch_bend_c, 1, 8320
3, 164044, Pitch_bend_c, 1, 8192
3, 164064, Pitch_bend_c, 1, 8192
3, 164083, Pitch_bend_c, 1, 8192
3, 164102, Pitch_bend_c, 1, 8064
3, 164115, Pitch_bend_c, 1, 8064
3, 164134, Pitch_bend_c, 1, 8064
3, 164153, Pitch_bend_c, 1, 8064
3, 164172, Pitch_bend_c, 1, 7936
3, 164192, Pitch_bend_c, 1, 7936
3, 164211, Pitch_bend_c, 1, 7936
3, 164224, Pitch_bend_c, 1, 7936
3, 164243, Pitch_bend_c, 1, 7936
3, 164262, Pitch_bend_c, 1, 8064
3, 164281, Pitch_bend_c, 1, 8064
3, 164300, Pitch_bend_c, 1, 8064
3, 164313, Pitch_bend_c, 1, 8064
3, 164332, Pitch_bend_c, 1, 8192
3, 164352, Pitch_bend_c, 1, 8192
3, 164371, Pitch_bend_c, 1, 8192
3, 164390, Pitch_bend_c, 1, 8320
3, 164403, Pitch_bend_c, 1, 8320
3, 164422, Pitch_bend_c, 1, 8320
3, 164441, Pitch_bend_c, 1, 8320
3, 164460, Pitch_bend_c, 1, 8320
3, 164480, Pitch_bend_c, 1, 8320
3, 164492, Pitch_bend_c, 1, 8320
3, 164512, Pitch_bend_c, 1, 8320
3, 164531, Pitch_bend_c, 1, 8320
3, 164550, Pitch_bend_c, 1, 8320
3, 164569, Pitch_bend_c, 1, 8320
3, 164588, Pitch_bend_c, 1, 8320
3, 164601, Pitch_bend_c, 1, 8320
3, 164620, Pitch_bend_c, 1, 8192
3, 164640, Pitch_bend_c, 1, 8192
3, 164659, Pitch_bend_c, 1, 8192
3, 164678, Pitch_bend_c, 1, 8064
3, 164691, Pitch_bend_c, 1, 8064
3, 164710, Pitch_bend_c, 1, 8064
3, 164729, Pitch_bend_c, 1, 8064
3, 164748, Pitch_bend_c, 1, 8064
3, 164768, Pitch_bend_c, 1, 8064
3, 164787, Pitch_bend_c, 1, 8064
3, 164800, Pitch_bend_c, 1, 8064
3, 164819, Pitch_bend_c, 1, 8064
3, 164838, Pitch_bend_c, 1, 8064
3, 164857, Pitch_bend_c, 1, 8064
3, 164864, Note_off_c, 1, 66, 80
3, 164864, Pitch_bend_c, 1, 8192
3, 164864, Note_on_c, 1, 67, 79
3, 165376, Note_off_c, 1, 67, 80
3, 165376, Note_on_c, 1, 69, 63
3, 165888, Note_off_c, 1, 69, 80
3, 165888, Note_on_c, 1, 62, 79
3, 165888, Pitch_bend_c, 1, 8192
3, 165907, Pitch_bend_c, 1, 8192
3, 165926, Pitch_bend_c, 1, 8192
3, 165939, Pitch_bend_c, 1, 8192
3, 165958, Pitch_bend_c, 1, 8192
3, 165977, Pitch_bend_c, 1, 8192
3, 165996, Pitch_bend_c, 1, 8192
3, 166016, Pitch_bend_c, 1, 8192
3, 166028, Pitch_bend_c, 1, 8192
3, 166048, Pitch_bend_c, 1, 8192
3, 166067, Pitch_bend_c, 1, 8192
3, 166086, Pitch_bend_c, 1, 8192
3, 166105, Pitch_bend_c, 1, 8192
3, 166124, Pitch_bend_c, 1, 8192
3, 166137, Pitch_bend_c, 1, 8192
3, 166156, Pitch_bend_c, 1, 8192
3, 166176, Pitch_bend_c, 1, 8192
3, 166195, Pitch_bend_c, 1, 8192
3, 166214, Pitch_bend_c, 1, 8192
3, 166227, Pitch_bend_c, 1, 8192
3, 166246, Pitch_bend_c, 1, 8192
3, 166265, Pitch_bend_c, 1, 8192
3, 166284, Pitch_bend_c, 1, 8192
3, 166304, Pitch_bend_c, 1, 8192
3, 166323, Pitch_bend_c, 1, 8192
3, 166336, Pitch_bend_c, 1, 8192
3, 166355, Pitch_bend_c, 1, 8192
3, 166374, Pitch_bend_c, 1, 8192
3, 166393, Pitch_bend_c, 1, 8192
3, 166412, Pitch_bend_c, 1, 8192
3, 166425, Pitch_bend_c, 1, 8192
3, 166444, Pitch_bend_c, 1, 8192
3, 166464, Pitch_bend_c, 1, 8192
3, 166483, Pitch_bend_c, 1, 8320
3, 166502, Pitch_bend_c, 1, 8320
3, 166515, Pitch_bend_c, 1, 8320
3, 166534, Pitch_bend_c, 1, 8448
3, 166553, Pitch_bend_c, 1, 8448
3, 166572, Pitch_bend_c, 1, 8448
3, 166592, Pitch_bend_c, 1, 8448
3, 166604, Pitch_bend_c, 1, 8448
3, 166624, Pitch_bend_c, 1, 8448
3, 166643, Pitch_bend_c, 1, 8448
3, 166662, Pitch_bend_c, 1, 8448
3, 166681, Pitch_bend_c, 1, 8448
3, 166700, Pitch_bend_c, 1, 8320
3, 166713, Pitch_bend_c, 1, 8320
3, 166732, Pitch_bend_c, 1, 8320
3, 166752, Pitch_bend_c, 1, 8192
3, 166771, Pitch_bend_c, 1, 8064
3, 166790, Pitch_bend_c, 1, 8064
3, 166803, Pitch_bend_c, 1, 8064
3, 166822, Pitch_bend_c, 1, 7936
3, 166841, Pitch_bend_c, 1, 7936
3, 166860, Pitch_bend_c, 1, 7936
3, 166880, Pitch_bend_c, 1, 7936
3, 166899, Pitch_bend_c, 1, 7936
3, 166912, Pitch_bend_c, 1, 7936
3, 166931, Pitch_bend_c, 1, 7936
3, 166950, Pitch_bend_c, 1, 7936
3, 166969, Pitch_bend_c, 1, 7936
3, 166988, Pitch_bend_c, 1, 8064
3, 167001, Pitch_bend_c, 1, 8064
3, 167020, Pitch_bend_c, 1, 8064
3, 167040, Pitch_bend_c, 1, 8192
3, 167059, Pitch_bend_c, 1, 8192
3, 167078, Pitch_bend_c, 1, 8320
3, 167091, Pitch_bend_c, 1, 8320
3, 167110, Pitch_bend_c, 1, 8320
3, 167129, Pitch_bend_c, 1, 8448
3, 167148, Pitch_bend_c, 1, 8448
3, 167168, Pitch_bend_c, 1, 8448
3, 167180, Pitch_bend_c, 1, 8448
3, 167200, Pitch_bend_c, 1, 8448
3, 167219, Pitch_bend_c, 1, 8448
3, 167238, Pitch_bend_c, 1, 8448
3, 167257, Pitch_bend_c, 1, 8320
3, 167276, Pitch_bend_c, 1, 8320
3, 167289, Pitch_bend_c, 1, 8320
3, 167308, Pitch_bend_c, 1, 8192
3, 167328, Pitch_bend_c, 1, 8192
3, 167347, Pitch_bend_c, 1, 8192
3, 167366, Pitch_bend_c, 1, 8064
3, 167379, Pitch_bend_c, 1, 8064
3, 167398, Pitch_bend_c, 1, 8064
3, 167417, Pitch_bend_c, 1, 7936
3, 167436, Pitch_bend_c, 1, 7936
3, 167456, Pitch_bend_c, 1, 7936
3, 167475, Pitch_bend_c, 1, 7936
3, 167488, Pitch_bend_c, 1, 7936
3, 167507, Pitch_bend_c, 1, 7936
3, 167526, Pitch_bend_c, 1, 7936
3, 167545, Pitch_bend_c, 1, 8064
3, 167564, Pitch_bend_c, 1, 8064
3, 167577, Pitch_bend_c, 1, 8064
3, 167596, Pitch_bend_c, 1, 8192
3, 167616, Pitch_bend_c, 1, 8192
3, 167635, Pitch_bend_c, 1, 8192
3, 167654, Pitch_bend_c, 1, 8320
3, 167667, Pitch_bend_c, 1, 8320
3, 167686, Pitch_bend_c, 1, 8320
3, 167705, Pitch_bend_c, 1, 8448
3, 167724, Pitch_bend_c, 1, 8448
3, 167744, Pitch_bend_c, 1, 8448
3, 167756, Pitch_bend_c, 1, 8448
3, 167776, Pitch_bend_c, 1, 8448
3, 167795, Pitch_bend_c, 1, 8448
3, 167814, Pitch_bend_c, 1, 8448
3, 167833, Pitch_bend_c, 1, 8320
3, 167852, Pitch_bend_c, 1, 8320
3, 167865, Pitch_bend_c, 1, 8320
3, 167884, Pitch_bend_c, 1, 8192
3, 167904, Pitch_bend_c, 1, 8192
3, 167923, Pitch_bend_c, 1, 8192
3, 167942, Pitch_bend_c, 1, 8064
3, 167955, Pitch_bend_c, 1, 8064
3, 167974, Pitch_bend_c, 1, 8064
3, 167993, Pitch_bend_c, 1, 7936
3, 168012, Pitch_bend_c, 1, 7936
3, 168032, Pitch_bend_c, 1, 7936
3, 168051, Pitch_bend_c, 1, 7936
3, 168064, Pitch_bend_c, 1, 7936
3, 168083, Pitch_bend_c, 1, 7936
3, 168102, Pitch_bend_c, 1, 7936
3, 168121, Pitch_bend_c, 1, 8064
3, 168140, Pitch_bend_c, 1, 8064
3, 168153, Pitch_bend_c, 1, 8064
3, 168172, Pitch_bend_c, 1, 8192
3, 168192, Pitch_bend_c, 1, 8192
3, 168211, Pitch_bend_c, 1, 8192
3, 168230, Pitch_bend_c, 1, 8320
3, 168243, Pitch_bend_c, 1, 8320
3, 168262, Pitch_bend_c, 1, 8320
3, 168281, Pitch_bend_c, 1, 8320
3, 168300, Pitch_bend_c, 1, 8448
3, 168320, Pitch_bend_c, 1, 8448
3, 168332, Pitch_bend_c, 1, 8448
3, 168352, Pitch_bend_c, 1, 8448
3, 168371, Pitch_bend_c, 1, 8448
3, 168390, Pitch_bend_c, 1, 8320
3, 168409, Pitch_bend_c, 1, 8320
3, 168428, Pitch_bend_c, 1, 8320
3, 168441, Pitch_bend_c, 1, 8320
3, 168460, Pitch_bend_c, 1, 8192
3, 168480, Pitch_bend_c, 1, 8192
3, 168499, Pitch_bend_c, 1, 8192
3, 168518, Pitch_bend_c, 1, 8064
3, 168531, Pitch_bend_c, 1, 8064
3, 168550, Pitch_bend_c, 1, 8064
3, 168569, Pitch_bend_c, 1, 8064
3, 168588, Pitch_bend_c, 1, 7936
3, 168608, Pitch_bend_c, 1, 7936
3, 168627, Pitch_bend_c, 1, 7936
3, 168640, Pitch_bend_c, 1, 7936
3, 168659, Pitch_bend_c, 1, 7936
3, 168678, Pitch_bend_c, 1, 8064
3, 168697, Pitch_bend_c, 1, 8064
3, 168716, Pitch_bend_c, 1, 8064
3, 168729, Pitch_bend_c, 1, 8064
3, 168748, Pitch_bend_c, 1, 8192
3, 168768, Pitch_bend_c, 1, 8192
3, 168787, Pitch_bend_c, 1, 8192
3, 168806, Pitch_bend_c, 1, 8192
3, 168819, Pitch_bend_c, 1, 8320
3, 168838, Pitch_bend_c, 1, 8320
3, 168857, Pitch_bend_c, 1, 8320
3, 168876, Pitch_bend_c, 1, 8320
3, 168896, Pitch_bend_c, 1, 8320
3, 168908, Pitch_bend_c, 1, 8320
3, 168928, Pitch_bend_c, 1, 8320
3, 168947, Pitch_bend_c, 1, 8320
3, 168960, Pitch_bend_c, 1, 8192
3, 169344, Pitch_bend_c, 1, 7552
3, 169510, Pitch_bend_c, 1, 6784
3, 169670, Pitch_bend_c, 1, 6144
3, 169836, Pitch_bend_c, 1, 5504
3, 170003, Pitch_bend_c, 1, 4736
3, 170169, Pitch_bend_c, 1, 4096
3, 170329, Pitch_bend_c, 1, 3456
3, 170496, Note_off_c, 1, 62, 80
3, 170496, Pitch_bend_c, 1, 8192
3, 172032, Note_on_c, 1, 61, 79
3, 172032, Pitch_bend_c, 1, 8192
3, 172051, Pitch_bend_c, 1, 8192
3, 172070, Pitch_bend_c, 1, 8192
3, 172083, Pitch_bend_c, 1, 8192
3, 172102, Pitch_bend_c, 1, 8192
3, 172121, Pitch_bend_c, 1, 8192
3, 172140, Pitch_bend_c, 1, 8192
3, 172160, Pitch_bend_c, 1, 8192
3, 172172, Pitch_bend_c, 1, 8192
3, 172192, Pitch_bend_c, 1, 8192
3, 172211, Pitch_bend_c, 1, 8192
3, 172230, Pitch_bend_c, 1, 8192
3, 172249, Pitch_bend_c, 1, 8192
3, 172268, Pitch_bend_c, 1, 8192
3, 172281, Pitch_bend_c, 1, 8192
3, 172300, Pitch_bend_c, 1, 8192
3, 172320, Pitch_bend_c, 1, 8192
3, 172339, Pitch_bend_c, 1, 8192
3, 172358, Pitch_bend_c, 1, 8192
3, 172371, Pitch_bend_c, 1, 8192
3, 172390, Pitch_bend_c, 1, 8192
3, 172409, Pitch_bend_c, 1, 8192
3, 172428, Pitch_bend_c, 1, 8192
3, 172448, Pitch_bend_c, 1, 8192
3, 172467, Pitch_bend_c, 1, 8192
3, 172480, Pitch_bend_c, 1, 8192
3, 172499, Pitch_bend_c, 1, 8192
3, 172518, Pitch_bend_c, 1, 8192
3, 172537, Pitch_bend_c, 1, 8192
3, 172556, Pitch_bend_c, 1, 8192
3, 172569, Pitch_bend_c, 1, 8192
3, 172588, Pitch_bend_c, 1, 8192
3, 172608, Pitch_bend_c, 1, 8192
3, 172627, Pitch_bend_c, 1, 8192
3, 172646, Pitch_bend_c, 1, 8320
3, 172659, Pitch_bend_c, 1, 8320
3, 172678, Pitch_bend_c, 1, 8320
3, 172697, Pitch_bend_c, 1, 8320
3, 172716, Pitch_bend_c, 1, 8448
3, 172736, Pitch_bend_c, 1, 8448
3, 172748, Pitch_bend_c, 1, 8448
3, 172768, Pitch_bend_c, 1, 8448
3, 172787, Pitch_bend_c, 1, 8448
3, 172806, Pitch_bend_c, 1, 8320
3, 172825, Pitch_bend_c, 1, 8320
3, 172844, Pitch_bend_c, 1, 8320
3, 172857, Pitch_bend_c, 1, 8320
3, 172876, Pitch_bend_c, 1, 8192
3, 172896, Pitch_bend_c, 1, 8192
3, 172915, Pitch_bend_c, 1, 8192
3, 172934, Pitch_bend_c, 1, 8064
3, 172947, Pitch_bend_c, 1, 8064
3, 172966, Pitch_bend_c, 1, 8064
3, 172985, Pitch_bend_c, 1, 8064
3, 173004, Pitch_bend_c, 1, 7936
3, 173024, Pitch_bend_c, 1, 7936
3, 173043, Pitch_bend_c, 1, 7936
3, 173056, Pitch_bend_c, 1, 7936
3, 173075, Pitch_bend_c, 1, 7936
3, 173094, Pitch_bend_c, 1, 8064
3, 173113, Pitch_bend_c, 1, 8064
3, 173132, Pitch_bend_c, 1, 8064
3, 173145, Pitch_bend_c, 1, 8064
3, 173164, Pitch_bend_c, 1, 8192
3, 173184, Pitch_bend_c, 1, 8192
3, 173203, Pitch_bend_c, 1, 8192
3, 173222, Pitch_bend_c, 1, 8320
3, 173235, Pitch_bend_c, 1, 8320
3, 173254, Pitch_bend_c, 1, 8320
3, 173273, Pitch_bend_c, 1, 8320
3, 173292, Pitch_bend_c, 1, 8320
3, 173312, Pitch_bend_c, 1, 8448
3, 173324, Pitch_bend_c, 1, 8448
3, 173344, Pitch_bend_c, 1, 8448
3, 173363, Pitch_bend_c, 1, 8320
3, 173382, Pitch_bend_c, 1, 8320
3, 173401, Pitch_bend_c, 1, 8320
3, 173420, Pitch_bend_c, 1, 8320
3, 173433, Pitch_bend_c, 1, 8320
3, 173452, Pitch_bend_c, 1, 8192
3, 173472, Pitch_bend_c, 1, 8192
3, 173491, Pitch_bend_c, 1, 8192
3, 173510, Pitch_bend_c, 1, 8064
3, 173523, Pitch_bend_c, 1, 8064
3, 173542, Pitch_bend_c, 1, 8064
3, 173561, Pitch_bend_c, 1, 8064
3, 173580, Pitch_bend_c, 1, 8064
3, 173600, Pitch_bend_c, 1, 7936
3, 173619, Pitch_bend_c, 1, 7936
3, 173632, Pitch_bend_c, 1, 7936
3, 173651, Pitch_bend_c, 1, 8064
3, 173670, Pitch_bend_c, 1, 8064
3, 173689, Pitch_bend_c, 1, 8064
3, 173708, Pitch_bend_c, 1, 8064
3, 173721, Pitch_bend_c, 1, 8064
3, 173740, Pitch_bend_c, 1, 8192
3, 173760, Pitch_bend_c, 1, 8192
3, 173779, Pitch_bend_c, 1, 8192
3, 173798, Pitch_bend_c, 1, 8320
3, 173811, Pitch_bend_c, 1, 8320
3, 173830, Pitch_bend_c, 1, 8320
3, 173849, Pitch_bend_c, 1, 8320
3, 173868, Pitch_bend_c, 1, 8448
3, 173888, Pitch_bend_c, 1, 8448
3, 173900, Pitch_bend_c, 1, 8448
3, 173920, Pitch_bend_c, 1, 8448
3, 173939, Pitch_bend_c, 1, 8448
3, 173958, Pitch_bend_c, 1, 8320
3, 173977, Pitch_bend_c, 1, 8320
3, 173996, Pitch_bend_c, 1, 8320
3, 174009, Pitch_bend_c, 1, 8320
3, 174028, Pitch_bend_c, 1, 8192
3, 174048, Pitch_bend_c, 1, 8192
3, 174067, Pitch_bend_c, 1, 8192
3, 174086, Pitch_bend_c, 1, 8064
3, 174099, Pitch_bend_c, 1, 8064
3, 174118, Pitch_bend_c, 1, 8064
3, 174137, Pitch_bend_c, 1, 8064
3, 174156, Pitch_bend_c, 1, 7936
3, 174176, Pitch_bend_c, 1, 7936
3, 174195, Pitch_bend_c, 1, 7936
3, 174208, Pitch_bend_c, 1, 7936
3, 174227, Pitch_bend_c, 1, 7936
3, 174246, Pitch_bend_c, 1, 8064
3, 174265, Pitch_bend_c, 1, 8064
3, 174284, Pitch_bend_c, 1, 8064
3, 174297, Pitch_bend_c, 1, 8064
3, 174316, Pitch_bend_c, 1, 8192
3, 174336, Pitch_bend_c, 1, 8192
3, 174355, Pitch_bend_c, 1, 8192
3, 174374, Pitch_bend_c, 1, 8320
3, 174387, Pitch_bend_c, 1, 8320
3, 174406, Pitch_bend_c, 1, 8320
3, 174425, Pitch_bend_c, 1, 8320
3, 174444, Pitch_bend_c, 1, 8448
3, 174464, Pitch_bend_c, 1, 8448
3, 174476, Pitch_bend_c, 1, 8448
3, 174496, Pitch_bend_c, 1, 8448
3, 174515, Pitch_bend_c, 1, 8448
3, 174534, Pitch_bend_c, 1, 8320
3, 174553, Pitch_bend_c, 1, 8320
3, 174572, Pitch_bend_c, 1, 8320
3, 174585, Pitch_bend_c, 1, 8320
3, 174604, Pitch_bend_c, 1, 8192
3, 174624, Pitch_bend_c, 1, 8192
3, 174643, Pitch_bend_c, 1, 8192
3, 174662, Pitch_bend_c, 1, 8064
3, 174675, Pitch_bend_c, 1, 8064
3, 174694, Pitch_bend_c, 1, 8064
3, 174713, Pitch_bend_c, 1, 8064
3, 174732, Pitch_bend_c, 1, 7936
3, 174752, Pitch_bend_c, 1, 7936
3, 174771, Pitch_bend_c, 1, 7936
3, 174784, Pitch_bend_c, 1, 7936
3, 174803, Pitch_bend_c, 1, 7936
3, 174822, Pitch_bend_c, 1, 8064
3, 174841, Pitch_bend_c, 1, 8064
3, 174860, Pitch_bend_c, 1, 8064
3, 174873, Pitch_bend_c, 1, 8064
3, 174892, Pitch_bend_c, 1, 8192
3, 174912, Pitch_bend_c, 1, 8192
3, 174931, Pitch_bend_c, 1, 8192
3, 174950, Pitch_bend_c, 1, 8192
3, 174963, Pitch_bend_c, 1, 8320
3, 174982, Pitch_bend_c, 1, 8320
3, 175001, Pitch_bend_c, 1, 8320
3, 175020, Pitch_bend_c, 1, 8320
3, 175040, Pitch_bend_c, 1, 8320
3, 175052, Pitch_bend_c, 1, 8320
3, 175072, Pitch_bend_c, 1, 8320
3, 175091, Pitch_bend_c, 1, 8320
3, 175104, Note_off_c, 1, 61, 80
3, 175104, Pitch_bend_c, 1, 8192
3, 175104, Note_on_c, 1, 66, 79
3, 180096, Pitch_bend_c, 1, 7552
3, 180262, Pitch_bend_c, 1, 6784
3, 180422, Pitch_bend_c, 1, 6144
3, 180588, Pitch_bend_c, 1, 5504
3, 180755, Pitch_bend_c, 1, 4736
3, 180921, Pitch_bend_c, 1, 4096
3, 181081, Pitch_bend_c, 1, 3456
3, 181248, Note_off_c, 1, 66, 80
3, 181248, Pitch_bend_c, 1, 8192
3, 182016, Note_on_c, 1, 60, 79
3, 182016, Pitch_bend_c, 1, 8192
3, 182118, Pitch_bend_c, 1, 8704
3, 182220, Pitch_bend_c, 1, 8832
3, 182784, Pitch_bend_c, 1, 8832
3, 182988, Pitch_bend_c, 1, 8704
3, 183091, Pitch_bend_c, 1, 8192
3, 183296, Pitch_bend_c, 1, 8192
3, 183398, Pitch_bend_c, 1, 8832
3, 183808, Pitch_bend_c, 1, 8832
3, 184627, Pitch_bend_c, 1, 8704
3, 184729, Pitch_bend_c, 1, 8576
3, 184832, Pitch_bend_c, 1, 8448
3, 184934, Pitch_bend_c, 1, 8320
3, 185036, Pitch_bend_c, 1, 8192
3, 185856, Note_off_c, 1, 60, 80
3, 185856, Pitch_bend_c, 1, 8192
3, 187392, Note_on_c, 1, 64, 79
3, 188083, Pitch_bend_c, 1, 8832
3, 188160, Pitch_bend_c, 1, 9600
3, 188179, Pitch_bend_c, 1, 9600
3, 188198, Pitch_bend_c, 1, 9600
3, 188211, Pitch_bend_c, 1, 9600
3, 188230, Pitch_bend_c, 1, 9600
3, 188249, Pitch_bend_c, 1, 9600
3, 188268, Pitch_bend_c, 1, 9600
3, 188288, Pitch_bend_c, 1, 9600
3, 188300, Pitch_bend_c, 1, 9600
3, 188320, Pitch_bend_c, 1, 9600
3, 188339, Pitch_bend_c, 1, 9600
3, 188358, Pitch_bend_c, 1, 9600
3, 188377, Pitch_bend_c, 1, 9600
3, 188396, Pitch_bend_c, 1, 9600
3, 188409, Pitch_bend_c, 1, 9600
3, 188428, Pitch_bend_c, 1, 9600
3, 188448, Pitch_bend_c, 1, 9600
3, 188467, Pitch_bend_c, 1, 9600
3, 188486, Pitch_bend_c, 1, 9600
3, 188499, Pitch_bend_c, 1, 9600
3, 188518, Pitch_bend_c, 1, 9600
3, 188537, Pitch_bend_c, 1, 9600
3, 188556, Pitch_bend_c, 1, 9600
3, 188576, Pitch_bend_c, 1, 9600
3, 188595, Pitch_bend_c, 1, 9600
3, 188608, Pitch_bend_c, 1, 9600
3, 188627, Pitch_bend_c, 1, 9600
3, 188646, Pitch_bend_c, 1, 9600
3, 188665, Pitch_bend_c, 1, 9600
3, 188684, Pitch_bend_c, 1, 9600
3, 188697, Pitch_bend_c, 1, 9600
3, 188716, Pitch_bend_c, 1, 9600
3, 188736, Pitch_bend_c, 1, 9600
3, 188755, Pitch_bend_c, 1, 9600
3, 188774, Pitch_bend_c, 1, 9728
3, 188787, Pitch_bend_c, 1, 9728
3, 188806, Pitch_bend_c, 1, 9728
3, 188825, Pitch_bend_c, 1, 9856
3, 188844, Pitch_bend_c, 1, 9856
3, 188864, Pitch_bend_c, 1, 9856
3, 188876, Pitch_bend_c, 1, 9856
3, 188896, Pitch_bend_c, 1, 9856
3, 188915, Pitch_bend_c, 1, 9856
3, 188934, Pitch_bend_c, 1, 9856
3, 188953, Pitch_bend_c, 1, 9728
3, 188972, Pitch_bend_c, 1, 9728
3, 188985, Pitch_bend_c, 1, 9728
3, 189004, Pitch_bend_c, 1, 9600
3, 189024, Pitch_bend_c, 1, 9600
3, 189043, Pitch_bend_c, 1, 9600
3, 189062, Pitch_bend_c, 1, 9472
3, 189075, Pitch_bend_c, 1, 9472
3, 189094, Pitch_bend_c, 1, 9472
3, 189113, Pitch_bend_c, 1, 9344
3, 189132, Pitch_bend_c, 1, 9344
3, 189152, Pitch_bend_c, 1, 9344
3, 189171, Pitch_bend_c, 1, 9344
3, 189184, Pitch_bend_c, 1, 9344
3, 189203, Pitch_bend_c, 1, 9344
3, 189222, Pitch_bend_c, 1, 9344
3, 189241, Pitch_bend_c, 1, 9472
3, 189260, Pitch_bend_c, 1, 9472
3, 189273, Pitch_bend_c, 1, 9472
3, 189292, Pitch_bend_c, 1, 9600
3, 189312, Pitch_bend_c, 1, 9600
3, 189331, Pitch_bend_c, 1, 9728
3, 189350, Pitch_bend_c, 1, 9728
3, 189363, Pitch_bend_c, 1, 9728
3, 189382, Pitch_bend_c, 1, 9856
3, 189401, Pitch_bend_c, 1, 9856
3, 189420, Pitch_bend_c, 1, 9856
3, 189440, Pitch_bend_c, 1, 9856
3, 189452, Pitch_bend_c, 1, 9856
3, 189472, Pitch_bend_c, 1, 9856
3, 189491, Pitch_bend_c, 1, 9856
3, 189510, Pitch_bend_c, 1, 9856
3, 189529, Pitch_bend_c, 1, 9856
3, 189548, Pitch_bend_c, 1, 9728
3, 189561, Pitch_bend_c, 1, 9728
3, 189580, Pitch_bend_c, 1, 9728
3, 189600, Pitch_bend_c, 1, 9600
3, 189619, Pitch_bend_c, 1, 9472
3, 189638, Pitch_bend_c, 1, 9472
3, 189651, Pitch_bend_c, 1, 9472
3, 189670, Pitch_bend_c, 1, 9344
3, 189689, Pitch_bend_c, 1, 9344
3, 189708, Pitch_bend_c, 1, 9344
3, 189728, Pitch_bend_c, 1, 9344
3, 189747, Pitch_bend_c, 1, 9344
3, 189760, Pitch_bend_c, 1, 9344
3, 189779, Pitch_bend_c, 1, 9344
3, 189798, Pitch_bend_c, 1, 9344
3, 189817, Pitch_bend_c, 1, 9344
3, 189836, Pitch_bend_c, 1, 9472
3, 189849, Pitch_bend_c, 1, 9472
3, 189868, Pitch_bend_c, 1, 9472
3, 189888, Pitch_bend_c, 1, 9600
3, 189907, Pitch_bend_c, 1, 9600
3, 189926, Pitch_bend_c, 1, 9728
3, 189939, Pitch_bend_c, 1, 9728
3, 189958, Pitch_bend_c, 1, 9728
3, 189977, Pitch_bend_c, 1, 9728
3, 189996, Pitch_bend_c, 1, 9728
3, 190016, Pitch_bend_c, 1, 9856
3, 190028, Pitch_bend_c, 1, 9856
3, 190048, Pitch_bend_c, 1, 9856
3, 190067, Pitch_bend_c, 1, 9728
3, 190086, Pitch_bend_c, 1, 9728
3, 190105, Pitch_bend_c, 1, 9728
3, 190124, Pitch_bend_c, 1, 9728
3, 190137, Pitch_bend_c, 1, 9728
3, 190156, Pitch_bend_c, 1, 9600
3, 190176, Pitch_bend_c, 1, 9600
3, 190195, Pitch_bend_c, 1, 9600
3, 190214, Pitch_bend_c, 1, 9472
3, 190227, Pitch_bend_c, 1, 9472
3, 190246, Pitch_bend_c, 1, 9472
3, 190265, Pitch_bend_c, 1, 9472
3, 190284, Pitch_bend_c, 1, 9472
3, 190304, Pitch_bend_c, 1, 9344
3, 190323, Pitch_bend_c, 1, 9344
3, 190336, Pitch_bend_c, 1, 9344
3, 190355, Pitch_bend_c, 1, 9472
3, 190374, Pitch_bend_c, 1, 9472
3, 190393, Pitch_bend_c, 1, 9472
3, 190412, Pitch_bend_c, 1, 9472
3, 190425, Pitch_bend_c, 1, 9472
3, 190444, Pitch_bend_c, 1, 9600
3, 190464, Pitch_bend_c, 1, 9600
3, 190483, Pitch_bend_c, 1, 9600
3, 190502, Pitch_bend_c, 1, 9728
3, 190515, Pitch_bend_c, 1, 9728
3, 190534, Pitch_bend_c, 1, 9728
3, 190553, Pitch_bend_c, 1, 9856
3, 190572, Pitch_bend_c, 1, 9856
3, 190592, Pitch_bend_c, 1, 9856
3, 190604, Pitch_bend_c, 1, 9856
3, 190624, Pitch_bend_c, 1, 9856
3, 190643, Pitch_bend_c, 1, 9856
3, 190662, Pitch_bend_c, 1, 9856
3, 190681, Pitch_bend_c, 1, 9728
3, 190700, Pitch_bend_c, 1, 9728
3, 190713, Pitch_bend_c, 1, 9728
3, 190732, Pitch_bend_c, 1, 9600
3, 190752, Pitch_bend_c, 1, 9600
3, 190771, Pitch_bend_c, 1, 9600
3, 190790, Pitch_bend_c, 1, 9472
3, 190803, Pitch_bend_c, 1, 9472
3, 190822, Pitch_bend_c, 1, 9472
3, 190841, Pitch_bend_c, 1, 9344
3, 190860, Pitch_bend_c, 1, 9344
3, 190880, Pitch_bend_c, 1, 9344
3, 190899, Pitch_bend_c, 1, 9344
3, 190912, Pitch_bend_c, 1, 9344
3, 190931, Pitch_bend_c, 1, 9344
3, 190950, Pitch_bend_c, 1, 9344
3, 190969, Pitch_bend_c, 1, 9472
3, 190988, Pitch_bend_c, 1, 9472
3, 191001, Pitch_bend_c, 1, 9472
3, 191020, Pitch_bend_c, 1, 9600
3, 191040, Pitch_bend_c, 1, 9600
3, 191059, Pitch_bend_c, 1, 9600
3, 191078, Pitch_bend_c, 1, 9728
3, 191091, Pitch_bend_c, 1, 9728
3, 191110, Pitch_bend_c, 1, 9728
3, 191129, Pitch_bend_c, 1, 9856
3, 191148, Pitch_bend_c, 1, 9856
3, 191168, Pitch_bend_c, 1, 9856
3, 191180, Pitch_bend_c, 1, 9856
3, 191200, Pitch_bend_c, 1, 9856
3, 191219, Pitch_bend_c, 1, 9856
3, 191238, Pitch_bend_c, 1, 9856
3, 191257, Pitch_bend_c, 1, 9728
3, 191276, Pitch_bend_c, 1, 9728
3, 191289, Pitch_bend_c, 1, 9728
3, 191308, Pitch_bend_c, 1, 9600
3, 191328, Pitch_bend_c, 1, 9600
3, 191347, Pitch_bend_c, 1, 9600
3, 191366, Pitch_bend_c, 1, 9472
3, 191379, Pitch_bend_c, 1, 9472
3, 191398, Pitch_bend_c, 1, 9472
3, 191417, Pitch_bend_c, 1, 9344
3, 191436, Pitch_bend_c, 1, 9344
3, 191456, Pitch_bend_c, 1, 9344
3, 191475, Pitch_bend_c, 1, 9344
3, 191488, Pitch_bend_c, 1, 9344
3, 191507, Pitch_bend_c, 1, 9344
3, 191526, Pitch_bend_c, 1, 9344
3, 191545, Pitch_bend_c, 1, 9472
3, 191564, Pitch_bend_c, 1, 9472
3, 191577, Pitch_bend_c, 1, 9472
3, 191596, Pitch_bend_c, 1, 9600
3, 191616, Pitch_bend_c, 1, 9600
3, 191635, Pitch_bend_c, 1, 9600
3, 191654, Pitch_bend_c, 1, 9728
3, 191667, Pitch_bend_c, 1, 9728
3, 191686, Pitch_bend_c, 1, 9728
3, 191705, Pitch_bend_c, 1, 9728
3, 191724, Pitch_bend_c, 1, 9728
3, 191744, Pitch_bend_c, 1, 9728
3, 191756, Pitch_bend_c, 1, 9728
3, 191776, Pitch_bend_c, 1, 9728
3, 191795, Pitch_bend_c, 1, 9728
3, 191814, Pitch_bend_c, 1, 9728
3, 191833, Pitch_bend_c, 1, 9728
3, 191852, Pitch_bend_c, 1, 9728
3, 191865, Pitch_bend_c, 1, 9728
3, 191884, Pitch_bend_c, 1, 9600
3, 191904, Pitch_bend_c, 1, 9600
3, 191923, Pitch_bend_c, 1, 9600
3, 191942, Pitch_bend_c, 1, 9472
3, 191955, Pitch_bend_c, 1, 9472
3, 191974, Pitch_bend_c, 1, 9472
3, 191993, Pitch_bend_c, 1, 9472
3, 192000, Note_off_c, 1, 64, 80
3, 192000, Pitch_bend_c, 1, 8192
3, 193536, Note_on_c, 1, 60, 79
3, 194048, Note_off_c, 1, 60, 80
3, 194560, Note_on_c, 1, 60, 79
3, 195072, Note_off_c, 1, 60, 80
3, 195584, Note_on_c, 1, 58, 79
3, 196096, Note_off_c, 1, 58, 80
3, 196608, Note_on_c, 1, 60, 79
3, 196992, Note_off_c, 1, 60, 80
3, 196992, Note_on_c, 1, 57, 79
3, 196992, Pitch_bend_c, 1, 6784
3, 197184, Pitch_bend_c, 1, 7552
3, 197376, Pitch_bend_c, 1, 8192
3, 198912, Note_off_c, 1, 57, 80
3, 198912, Note_on_c, 1, 58, 63
3, 199168, Note_off_c, 1, 58, 80
3, 199168, Note_on_c, 1, 57, 63
3, 199424, Note_off_c, 1, 57, 80
3, 199424, Note_on_c, 1, 55, 63
3, 199680, Note_off_c, 1, 55, 80
3, 199680, Note_on_c, 1, 57, 63
3, 204672, Pitch_bend_c, 1, 7552
3, 204838, Pitch_bend_c, 1, 6784
3, 204998, Pitch_bend_c, 1, 6144
3, 205164, Pitch_bend_c, 1, 5504
3, 205331, Pitch_bend_c, 1, 4736
3, 205497, Pitch_bend_c, 1, 4096
3, 205657, Pitch_bend_c, 1, 3456
3, 205824, Note_off_c, 1, 57, 80
3, 205824, Pitch_bend_c, 1, 8192
3, 207360, Note_on_c, 1, 55, 79
3, 208128, Note_off_c, 1, 55, 80
3, 208128, Note_on_c, 1, 60, 79
3, 208896, Note_off_c, 1, 60, 80
3, 208896, Note_on_c, 1, 62, 79
3, 209408, Note_off_c, 1, 62, 80
3, 209920, Note_on_c, 1, 63, 79
3, 210432, Note_off_c, 1, 63, 80
3, 210432, Note_on_c, 1, 62, 63
3, 210944, Note_off_c, 1, 62, 80
3, 210944, Note_on_c, 1, 63, 79
3, 210944, Pitch_bend_c, 1, 8192
3, 210963, Pitch_bend_c, 1, 8192
3, 210982, Pitch_bend_c, 1, 8192
3, 210995, Pitch_bend_c, 1, 8192
3, 211014, Pitch_bend_c, 1, 8192
3, 211033, Pitch_bend_c, 1, 8192
3, 211052, Pitch_bend_c, 1, 8192
3, 211072, Pitch_bend_c, 1, 8192
3, 211084, Pitch_bend_c, 1, 8192
3, 211104, Pitch_bend_c, 1, 8192
3, 211123, Pitch_bend_c, 1, 8192
3, 211142, Pitch_bend_c, 1, 8192
3, 211161, Pitch_bend_c, 1, 8192
3, 211180, Pitch_bend_c, 1, 8192
3, 211193, Pitch_bend_c, 1, 8192
3, 211212, Pitch_bend_c, 1, 8192
3, 211232, Pitch_bend_c, 1, 8192
3, 211251, Pitch_bend_c, 1, 8192
3, 211270, Pitch_bend_c, 1, 8192
3, 211283, Pitch_bend_c, 1, 8192
3, 211302, Pitch_bend_c, 1, 8192
3, 211321, Pitch_bend_c, 1, 8192
3, 211340, Pitch_bend_c, 1, 8192
3, 211360, Pitch_bend_c, 1, 8192
3, 211379, Pitch_bend_c, 1, 8192
3, 211392, Pitch_bend_c, 1, 8192
3, 211411, Pitch_bend_c, 1, 8192
3, 211430, Pitch_bend_c, 1, 8192
3, 211449, Pitch_bend_c, 1, 8192
3, 211468, Pitch_bend_c, 1, 8192
3, 211481, Pitch_bend_c, 1, 8192
3, 211500, Pitch_bend_c, 1, 8192
3, 211520, Pitch_bend_c, 1, 8192
3, 211539, Pitch_bend_c, 1, 8192
3, 211558, Pitch_bend_c, 1, 8320
3, 211571, Pitch_bend_c, 1, 8320
3, 211590, Pitch_bend_c, 1, 8320
3, 211609, Pitch_bend_c, 1, 8320
3, 211628, Pitch_bend_c, 1, 8448
3, 211648, Pitch_bend_c, 1, 8448
3, 211660, Pitch_bend_c, 1, 8448
3, 211680, Pitch_bend_c, 1, 8448
3, 211699, Pitch_bend_c, 1, 8448
3, 211718, Pitch_bend_c, 1, 8320
3, 211737, Pitch_bend_c, 1, 8320
3, 211756, Pitch_bend_c, 1, 8320
3, 211769, Pitch_bend_c, 1, 8320
3, 211788, Pitch_bend_c, 1, 8192
3, 211808, Pitch_bend_c, 1, 8192
3, 211827, Pitch_bend_c, 1, 8192
3, 211846, Pitch_bend_c, 1, 8064
3, 211859, Pitch_bend_c, 1, 8064
3, 211878, Pitch_bend_c, 1, 8064
3, 211897, Pitch_bend_c, 1, 8064
3, 211916, Pitch_bend_c, 1, 7936
3, 211936, Pitch_bend_c, 1, 7936
3, 211955, Pitch_bend_c, 1, 7936
3, 211968, Note_off_c, 1, 63, 80
3, 211968, Pitch_bend_c, 1, 8192
3, 212736, Note_on_c, 1, 70, 79
3, 212736, Note_on_c, 1, 65, 38
3, 213504, Note_off_c, 1, 65, 80
3, 213504, Note_off_c, 1, 70, 80
3, 213504, Note_on_c, 1, 70, 79
3, 213504, Pitch_bend_c, 1, 8192
3, 213523, Pitch_bend_c, 1, 8192
3, 213542, Pitch_bend_c, 1, 8192
3, 213555, Pitch_bend_c, 1, 8192
3, 213574, Pitch_bend_c, 1, 8192
3, 213593, Pitch_bend_c, 1, 8192
3, 213612, Pitch_bend_c, 1, 8192
3, 213632, Pitch_bend_c, 1, 8192
3, 213644, Pitch_bend_c, 1, 8192
3, 213664, Pitch_bend_c, 1, 8192
3, 213683, Pitch_bend_c, 1, 8192
3, 213702, Pitch_bend_c, 1, 8192
3, 213721, Pitch_bend_c, 1, 8192
3, 213740, Pitch_bend_c, 1, 8192
3, 213753, Pitch_bend_c, 1, 8192
3, 213772, Pitch_bend_c, 1, 8192
3, 213792, Pitch_bend_c, 1, 8192
3, 213811, Pitch_bend_c, 1, 8192
3, 213830, Pitch_bend_c, 1, 8192
3, 213843, Pitch_bend_c, 1, 8192
3, 213862, Pitch_bend_c, 1, 8192
3, 213881, Pitch_bend_c, 1, 8192
3, 213900, Pitch_bend_c, 1, 8192
3, 213920, Pitch_bend_c, 1, 8192
3, 213939, Pitch_bend_c, 1, 8192
3, 213952, Pitch_bend_c, 1, 8192
3, 213971, Pitch_bend_c, 1, 8192
3, 213990, Pitch_bend_c, 1, 8192
3, 214009, Pitch_bend_c, 1, 8192
3, 214028, Pitch_bend_c, 1, 8192
3, 214041, Pitch_bend_c, 1, 8192
3, 214060, Pitch_bend_c, 1, 8192
3, 214080, Pitch_bend_c, 1, 8192
3, 214099, Pitch_bend_c, 1, 8192
3, 214118, Pitch_bend_c, 1, 8320
3, 214131, Pitch_bend_c, 1, 8320
3, 214150, Pitch_bend_c, 1, 8320
3, 214169, Pitch_bend_c, 1, 8320
3, 214188, Pitch_bend_c, 1, 8320
3, 214208, Pitch_bend_c, 1, 8448
3, 214220, Pitch_bend_c, 1, 8448
3, 214240, Pitch_bend_c, 1, 8448
3, 214259, Pitch_bend_c, 1, 8320
3, 214278, Pitch_bend_c, 1, 8320
3, 214297, Pitch_bend_c, 1, 8320
3, 214316, Pitch_bend_c, 1, 8320
3, 214329, Pitch_bend_c, 1, 8320
3, 214348, Pitch_bend_c, 1, 8192
3, 214368, Pitch_bend_c, 1, 8192
3, 214387, Pitch_bend_c, 1, 8192
3, 214406, Pitch_bend_c, 1, 8064
3, 214419, Pitch_bend_c, 1, 8064
3, 214438, Pitch_bend_c, 1, 8064
3, 214457, Pitch_bend_c, 1, 8064
3, 214476, Pitch_bend_c, 1, 8064
3, 214496, Pitch_bend_c, 1, 7936
3, 214515, Pitch_bend_c, 1, 7936
3, 214528, Pitch_bend_c, 1, 7936
3, 214547, Pitch_bend_c, 1, 8064
3, 214566, Pitch_bend_c, 1, 8064
3, 214585, Pitch_bend_c, 1, 8064
3, 214604, Pitch_bend_c, 1, 8064
3, 214617, Pitch_bend_c, 1, 8064
3, 214636, Pitch_bend_c, 1, 8192
3, 214656, Pitch_bend_c, 1, 8192
3, 214675, Pitch_bend_c, 1, 8192
3, 214694, Pitch_bend_c, 1, 8320
3, 214707, Pitch_bend_c, 1, 8320
3, 214726, Pitch_bend_c, 1, 8320
3, 214745, Pitch_bend_c, 1, 8320
3, 214764, Pitch_bend_c, 1, 8448
3, 214784, Pitch_bend_c, 1, 8448
3, 214796, Pitch_bend_c, 1, 8448
3, 214816, Pitch_bend_c, 1, 8448
3, 214835, Pitch_bend_c, 1, 8448
3, 214854, Pitch_bend_c, 1, 8320
3, 214873, Pitch_bend_c, 1, 8320
3, 214892, Pitch_bend_c, 1, 8320
3, 214905, Pitch_bend_c, 1, 8320
3, 214924, Pitch_bend_c, 1, 8192
3, 214944, Pitch_bend_c, 1, 8192
3, 214963, Pitch_bend_c, 1, 8192
3, 214982, Pitch_bend_c, 1, 8064
3, 214995, Pitch_bend_c, 1, 8064
3, 215014, Pitch_bend_c, 1, 8064
3, 215033, Pitch_bend_c, 1, 8064
3, 215040, Pitch_bend_c, 1, 8192
3, 215059, Pitch_bend_c, 1, 8192
3, 215078, Pitch_bend_c, 1, 8192
3, 215091, Pitch_bend_c, 1, 8192
3, 215110, Pitch_bend_c, 1, 8192
3, 215129, Pitch_bend_c, 1, 8192
3, 215148, Pitch_bend_c, 1, 8192
3, 215168, Pitch_bend_c, 1, 8192
3, 215180, Pitch_bend_c, 1, 8192
3, 215200, Pitch_bend_c, 1, 8192
3, 215219, Pitch_bend_c, 1, 8192
3, 215238, Pitch_bend_c, 1, 8192
3, 215257, Pitch_bend_c, 1, 8192
3, 215276, Pitch_bend_c, 1, 8192
3, 215289, Pitch_bend_c, 1, 8192
3, 215308, Pitch_bend_c, 1, 8192
3, 215328, Pitch_bend_c, 1, 8192
3, 215347, Pitch_bend_c, 1, 8192
3, 215366, Pitch_bend_c, 1, 8192
3, 215379, Pitch_bend_c, 1, 8192
3, 215398, Pitch_bend_c, 1, 8192
3, 215417, Pitch_bend_c, 1, 8192
3, 215436, Pitch_bend_c, 1, 8192
3, 215456, Pitch_bend_c, 1, 8192
3, 215475, Pitch_bend_c, 1, 8192
3, 215488, Pitch_bend_c, 1, 8192
3, 215507, Pitch_bend_c, 1, 8192
3, 215526, Pitch_bend_c, 1, 8192
3, 215545, Pitch_bend_c, 1, 8192
3, 215564, Pitch_bend_c, 1, 8192
3, 215577, Pitch_bend_c, 1, 8192
3, 215596, Pitch_bend_c, 1, 8192
3, 215616, Pitch_bend_c, 1, 8192
3, 215635, Pitch_bend_c, 1, 8192
3, 215654, Pitch_bend_c, 1, 8320
3, 215667, Pitch_bend_c, 1, 8320
3, 215686, Pitch_bend_c, 1, 8320
3, 215705, Pitch_bend_c, 1, 8448
3, 215724, Pitch_bend_c, 1, 8448
3, 215744, Pitch_bend_c, 1, 8448
3, 215756, Pitch_bend_c, 1, 8448
3, 215776, Pitch_bend_c, 1, 8448
3, 215795, Pitch_bend_c, 1, 8448
3, 215814, Pitch_bend_c, 1, 8448
3, 215833, Pitch_bend_c, 1, 8320
3, 215852, Pitch_bend_c, 1, 8320
3, 215865, Pitch_bend_c, 1, 8320
3, 215884, Pitch_bend_c, 1, 8192
3, 215904, Pitch_bend_c, 1, 8192
3, 215923, Pitch_bend_c, 1, 8192
3, 215942, Pitch_bend_c, 1, 8064
3, 215955, Pitch_bend_c, 1, 8064
3, 215974, Pitch_bend_c, 1, 8064
3, 215993, Pitch_bend_c, 1, 7936
3, 216012, Pitch_bend_c, 1, 7936
3, 216032, Pitch_bend_c, 1, 7936
3, 216051, Pitch_bend_c, 1, 7936
3, 216064, Pitch_bend_c, 1, 7936
3, 216083, Pitch_bend_c, 1, 7936
3, 216102, Pitch_bend_c, 1, 7936
3, 216121, Pitch_bend_c, 1, 8064
3, 216140, Pitch_bend_c, 1, 8064
3, 216153, Pitch_bend_c, 1, 8064
3, 216172, Pitch_bend_c, 1, 8192
3, 216192, Pitch_bend_c, 1, 8192
3, 216211, Pitch_bend_c, 1, 8192
3, 216230, Pitch_bend_c, 1, 8320
3, 216243, Pitch_bend_c, 1, 8320
3, 216262, Pitch_bend_c, 1, 8320
3, 216281, Pitch_bend_c, 1, 8320
3, 216300, Pitch_bend_c, 1, 8320
3, 216320, Pitch_bend_c, 1, 8448
3, 216332, Pitch_bend_c, 1, 8448
3, 216352, Pitch_bend_c, 1, 8448
3, 216371, Pitch_bend_c, 1, 8320
3, 216390, Pitch_bend_c, 1, 8320
3, 216409, Pitch_bend_c, 1, 8320
3, 216428, Pitch_bend_c, 1, 8320
3, 216441, Pitch_bend_c, 1, 8320
3, 216460, Pitch_bend_c, 1, 8192
3, 216480, Pitch_bend_c, 1, 8192
3, 216499, Pitch_bend_c, 1, 8192
3, 216518, Pitch_bend_c, 1, 8064
3, 216531, Pitch_bend_c, 1, 8064
3, 216550, Pitch_bend_c, 1, 8064
3, 216569, Pitch_bend_c, 1, 8064
3, 216588, Pitch_bend_c, 1, 8064
3, 216608, Pitch_bend_c, 1, 7936
3, 216627, Pitch_bend_c, 1, 7936
3, 216640, Pitch_bend_c, 1, 7936
3, 216659, Pitch_bend_c, 1, 8064
3, 216678, Pitch_bend_c, 1, 8064
3, 216697, Pitch_bend_c, 1, 8064
3, 216716, Pitch_bend_c, 1, 8064
3, 216729, Pitch_bend_c, 1, 8064
3, 216748, Pitch_bend_c, 1, 8192
3, 216768, Pitch_bend_c, 1, 8192
3, 216787, Pitch_bend_c, 1, 8192
3, 216806, Pitch_bend_c, 1, 8320
3, 216819, Pitch_bend_c, 1, 8320
3, 216838, Pitch_bend_c, 1, 8320
3, 216857, Pitch_bend_c, 1, 8448
3, 216876, Pitch_bend_c, 1, 8448
3, 216896, Pitch_bend_c, 1, 8448
3, 216908, Pitch_bend_c, 1, 8448
3, 216928, Pitch_bend_c, 1, 8448
3, 216947, Pitch_bend_c, 1, 8448
3, 216966, Pitch_bend_c, 1, 8448
3, 216985, Pitch_bend_c, 1, 8320
3, 217004, Pitch_bend_c, 1, 8320
3, 217017, Pitch_bend_c, 1, 8320
3, 217036, Pitch_bend_c, 1, 8192
3, 217056, Pitch_bend_c, 1, 8192
3, 217075, Pitch_bend_c, 1, 8192
3, 217094, Pitch_bend_c, 1, 8064
3, 217107, Pitch_bend_c, 1, 8064
3, 217126, Pitch_bend_c, 1, 8064
3, 217145, Pitch_bend_c, 1, 7936
3, 217164, Pitch_bend_c, 1, 7936
3, 217184, Pitch_bend_c, 1, 7936
3, 217203, Pitch_bend_c, 1, 7936
3, 217216, Pitch_bend_c, 1, 7936
3, 217235, Pitch_bend_c, 1, 7936
3, 217254, Pitch_bend_c, 1, 7936
3, 217273, Pitch_bend_c, 1, 8064
3, 217292, Pitch_bend_c, 1, 8064
3, 217305, Pitch_bend_c, 1, 8064
3, 217324, Pitch_bend_c, 1, 8192
3, 217344, Pitch_bend_c, 1, 8192
3, 217344, Note_on_c, 1, 62, 79
3, 217363, Pitch_bend_c, 1, 8192
3, 217382, Pitch_bend_c, 1, 8320
3, 217395, Pitch_bend_c, 1, 8320
3, 217414, Pitch_bend_c, 1, 8320
3, 217433, Pitch_bend_c, 1, 8320
3, 217452, Pitch_bend_c, 1, 8448
3, 217472, Pitch_bend_c, 1, 8448
3, 217484, Pitch_bend_c, 1, 8448
3, 217504, Pitch_bend_c, 1, 8448
3, 217523, Pitch_bend_c, 1, 8448
3, 217542, Pitch_bend_c, 1, 8320
3, 217561, Pitch_bend_c, 1, 8320
3, 217580, Pitch_bend_c, 1, 8320
3, 217593, Pitch_bend_c, 1, 8320
3, 217612, Pitch_bend_c, 1, 8192
3, 217632, Pitch_bend_c, 1, 8192
3, 217651, Pitch_bend_c, 1, 8192
3, 217670, Pitch_bend_c, 1, 8064
3, 217683, Pitch_bend_c, 1, 8064
3, 217702, Pitch_bend_c, 1, 8064
3, 217721, Pitch_bend_c, 1, 8064
3, 217740, Pitch_bend_c, 1, 7936
3, 217760, Pitch_bend_c, 1, 7936
3, 217779, Pitch_bend_c, 1, 7936
3, 217792, Pitch_bend_c, 1, 7936
3, 217811, Pitch_bend_c, 1, 7936
3, 217830, Pitch_bend_c, 1, 8064
3, 217849, Pitch_bend_c, 1, 8064
3, 217868, Pitch_bend_c, 1, 8064
3, 217881, Pitch_bend_c, 1, 8064
3, 217900, Pitch_bend_c, 1, 8192
3, 217920, Pitch_bend_c, 1, 8192
3, 217939, Pitch_bend_c, 1, 8192
3, 217958, Pitch_bend_c, 1, 8192
3, 217971, Pitch_bend_c, 1, 8192
3, 217990, Pitch_bend_c, 1, 8192
3, 218009, Pitch_bend_c, 1, 8192
3, 218028, Pitch_bend_c, 1, 8320
3, 218048, Pitch_bend_c, 1, 8320
3, 218060, Pitch_bend_c, 1, 8320
3, 218080, Pitch_bend_c, 1, 8320
3, 218099, Pitch_bend_c, 1, 8320
3, 218105, Note_off_c, 1, 62, 80
3, 218112, Note_off_c, 1, 70, 80
3, 218112, Pitch_bend_c, 1, 8192
3, 218112, Note_on_c, 1, 63, 63
3, 220160, Note_off_c, 1, 63, 80
3, 220160, Note_on_c, 1, 62, 63
3, 220672, Note_off_c, 1, 62, 80
3, 220672, Note_on_c, 1, 60, 63
3, 221184, Note_off_c, 1, 60, 80
3, 221184, Note_on_c, 1, 62, 79
3, 223488, Note_off_c, 1, 62, 80
3, 223488, Note_on_c, 1, 69, 79
3, 223488, Note_on_c, 1, 67, 79
3, 223488, Note_off_c, 1, 69, 80
3, 224249, Note_off_c, 1, 67, 80
3, 224256, Note_on_c, 1, 69, 63
3, 225024, Note_off_c, 1, 69, 80
3, 225024, Note_on_c, 1, 70, 63
3, 225408, Note_off_c, 1, 70, 80
3, 225408, Note_on_c, 1, 69, 63
3, 225792, Note_off_c, 1, 69, 80
3, 225792, Note_on_c, 1, 67, 63
3, 226560, Note_off_c, 1, 67, 80
3, 226560, Note_on_c, 1, 69, 79
3, 227328, Note_off_c, 1, 69, 80
3, 227328, Note_on_c, 1, 69, 79
3, 227328, Pitch_bend_c, 1, 8192
3, 227347, Pitch_bend_c, 1, 8192
3, 227366, Pitch_bend_c, 1, 8192
3, 227379, Pitch_bend_c, 1, 8192
3, 227398, Pitch_bend_c, 1, 8192
3, 227417, Pitch_bend_c, 1, 8192
3, 227436, Pitch_bend_c, 1, 8192
3, 227456, Pitch_bend_c, 1, 8192
3, 227468, Pitch_bend_c, 1, 8192
3, 227488, Pitch_bend_c, 1, 8192
3, 227507, Pitch_bend_c, 1, 8192
3, 227526, Pitch_bend_c, 1, 8192
3, 227545, Pitch_bend_c, 1, 8192
3, 227564, Pitch_bend_c, 1, 8192
3, 227577, Pitch_bend_c, 1, 8192
3, 227596, Pitch_bend_c, 1, 8192
3, 227616, Pitch_bend_c, 1, 8192
3, 227635, Pitch_bend_c, 1, 8192
3, 227654, Pitch_bend_c, 1, 8192
3, 227667, Pitch_bend_c, 1, 8192
3, 227686, Pitch_bend_c, 1, 8192
3, 227705, Pitch_bend_c, 1, 8192
3, 227724, Pitch_bend_c, 1, 8192
3, 227744, Pitch_bend_c, 1, 8192
3, 227763, Pitch_bend_c, 1, 8192
3, 227776, Pitch_bend_c, 1, 8192
3, 227795, Pitch_bend_c, 1, 8192
3, 227814, Pitch_bend_c, 1, 8192
3, 227833, Pitch_bend_c, 1, 8192
3, 227852, Pitch_bend_c, 1, 8192
3, 227865, Pitch_bend_c, 1, 8192
3, 227884, Pitch_bend_c, 1, 8192
3, 227904, Pitch_bend_c, 1, 8192
3, 227923, Pitch_bend_c, 1, 8192
3, 227942, Pitch_bend_c, 1, 8320
3, 227955, Pitch_bend_c, 1, 8320
3, 227974, Pitch_bend_c, 1, 8320
3, 227993, Pitch_bend_c, 1, 8320
3, 228012, Pitch_bend_c, 1, 8320
3, 228032, Pitch_bend_c, 1, 8320
3, 228044, Pitch_bend_c, 1, 8320
3, 228064, Pitch_bend_c, 1, 8320
3, 228083, Pitch_bend_c, 1, 8320
3, 228102, Pitch_bend_c, 1, 8320
3, 228121, Pitch_bend_c, 1, 8320
3, 228140, Pitch_bend_c, 1, 8320
3, 228153, Pitch_bend_c, 1, 8320
3, 228172, Pitch_bend_c, 1, 8192
3, 228192, Pitch_bend_c, 1, 8192
3, 228211, Pitch_bend_c, 1, 8192
3, 228230, Pitch_bend_c, 1, 8064
3, 228243, Pitch_bend_c, 1, 8064
3, 228262, Pitch_bend_c, 1, 8064
3, 228281, Pitch_bend_c, 1, 8064
3, 228300, Pitch_bend_c, 1, 8064
3, 228320, Pitch_bend_c, 1, 8064
3, 228339, Pitch_bend_c, 1, 8064
3, 228352, Pitch_bend_c, 1, 8064
3, 228371, Pitch_bend_c, 1, 8064
3, 228390, Pitch_bend_c, 1, 8064
3, 228409, Pitch_bend_c, 1, 8064
3, 228428, Pitch_bend_c, 1, 8064
3, 228441, Pitch_bend_c, 1, 8064
3, 228460, Pitch_bend_c, 1, 8192
3, 228480, Pitch_bend_c, 1, 8192
3, 228499, Pitch_bend_c, 1, 8192
3, 228518, Pitch_bend_c, 1, 8320
3, 228531, Pitch_bend_c, 1, 8320
3, 228550, Pitch_bend_c, 1, 8448
3, 228569, Pitch_bend_c, 1, 8448
3, 228588, Pitch_bend_c, 1, 8448
3, 228608, Pitch_bend_c, 1, 8448
3, 228620, Pitch_bend_c, 1, 8448
3, 228640, Pitch_bend_c, 1, 8448
3, 228659, Pitch_bend_c, 1, 8448
3, 228678, Pitch_bend_c, 1, 8448
3, 228697, Pitch_bend_c, 1, 8448
3, 228716, Pitch_bend_c, 1, 8320
3, 228729, Pitch_bend_c, 1, 8320
3, 228748, Pitch_bend_c, 1, 8192
3, 228768, Pitch_bend_c, 1, 8192
3, 228787, Pitch_bend_c, 1, 8192
3, 228806, Pitch_bend_c, 1, 8064
3, 228819, Pitch_bend_c, 1, 8064
3, 228838, Pitch_bend_c, 1, 7936
3, 228857, Pitch_bend_c, 1, 7936
3, 228876, Pitch_bend_c, 1, 7936
3, 228896, Pitch_bend_c, 1, 7936
3, 228915, Pitch_bend_c, 1, 7936
3, 228928, Pitch_bend_c, 1, 7936
3, 228947, Pitch_bend_c, 1, 7936
3, 228966, Pitch_bend_c, 1, 7936
3, 228985, Pitch_bend_c, 1, 7936
3, 229004, Pitch_bend_c, 1, 8064
3, 229017, Pitch_bend_c, 1, 8064
3, 229036, Pitch_bend_c, 1, 8192
3, 229056, Pitch_bend_c, 1, 8192
3, 229075, Pitch_bend_c, 1, 8192
3, 229094, Pitch_bend_c, 1, 8320
3, 229107, Pitch_bend_c, 1, 8320
3, 229126, Pitch_bend_c, 1, 8320
3, 229145, Pitch_bend_c, 1, 8448
3, 229164, Pitch_bend_c, 1, 8448
3, 229184, Pitch_bend_c, 1, 8448
3, 229196, Pitch_bend_c, 1, 8448
3, 229216, Pitch_bend_c, 1, 8448
3, 229235, Pitch_bend_c, 1, 8448
3, 229254, Pitch_bend_c, 1, 8448
3, 229273, Pitch_bend_c, 1, 8320
3, 229292, Pitch_bend_c, 1, 8320
3, 229305, Pitch_bend_c, 1, 8320
3, 229324, Pitch_bend_c, 1, 8192
3, 229344, Pitch_bend_c, 1, 8192
3, 229363, Pitch_bend_c, 1, 8192
3, 229382, Pitch_bend_c, 1, 8064
3, 229395, Pitch_bend_c, 1, 8064
3, 229414, Pitch_bend_c, 1, 8064
3, 229433, Pitch_bend_c, 1, 7936
3, 229452, Pitch_bend_c, 1, 7936
3, 229472, Pitch_bend_c, 1, 7936
3, 229491, Pitch_bend_c, 1, 7936
3, 229504, Pitch_bend_c, 1, 7936
3, 229523, Pitch_bend_c, 1, 7936
3, 229542, Pitch_bend_c, 1, 7936
3, 229561, Pitch_bend_c, 1, 8064
3, 229580, Pitch_bend_c, 1, 8064
3, 229593, Pitch_bend_c, 1, 8064
3, 229612, Pitch_bend_c, 1, 8192
3, 229632, Pitch_bend_c, 1, 8192
3, 229651, Pitch_bend_c, 1, 8320
3, 229670, Pitch_bend_c, 1, 8320
3, 229683, Pitch_bend_c, 1, 8320
3, 229702, Pitch_bend_c, 1, 8448
3, 229721, Pitch_bend_c, 1, 8448
3, 229740, Pitch_bend_c, 1, 8448
3, 229760, Pitch_bend_c, 1, 8448
3, 229772, Pitch_bend_c, 1, 8448
3, 229792, Pitch_bend_c, 1, 8448
3, 229811, Pitch_bend_c, 1, 8448
3, 229830, Pitch_bend_c, 1, 8448
3, 229849, Pitch_bend_c, 1, 8448
3, 229868, Pitch_bend_c, 1, 8320
3, 229881, Pitch_bend_c, 1, 8320
3, 229900, Pitch_bend_c, 1, 8320
3, 229920, Pitch_bend_c, 1, 8192
3, 229939, Pitch_bend_c, 1, 8064
3, 229958, Pitch_bend_c, 1, 8064
3, 229971, Pitch_bend_c, 1, 8064
3, 229990, Pitch_bend_c, 1, 7936
3, 230009, Pitch_bend_c, 1, 7936
3, 230028, Pitch_bend_c, 1, 7936
3, 230048, Pitch_bend_c, 1, 7936
3, 230067, Pitch_bend_c, 1, 7936
3, 230080, Pitch_bend_c, 1, 7936
3, 230099, Pitch_bend_c, 1, 7936
3, 230118, Pitch_bend_c, 1, 7936
3, 230137, Pitch_bend_c, 1, 7936
3, 230156, Pitch_bend_c, 1, 8064
3, 230169, Pitch_bend_c, 1, 8064
3, 230188, Pitch_bend_c, 1, 8064
3, 230208, Pitch_bend_c, 1, 8192
3, 230227, Pitch_bend_c, 1, 8192
3, 230246, Pitch_bend_c, 1, 8320
3, 230259, Pitch_bend_c, 1, 8320
3, 230278, Pitch_bend_c, 1, 8320
3, 230297, Pitch_bend_c, 1, 8448
3, 230316, Pitch_bend_c, 1, 8448
3, 230336, Pitch_bend_c, 1, 8448
3, 230348, Pitch_bend_c, 1, 8448
3, 230368, Pitch_bend_c, 1, 8448
3, 230387, Pitch_bend_c, 1, 8448
3, 230406, Pitch_bend_c, 1, 8448
3, 230425, Pitch_bend_c, 1, 8320
3, 230444, Pitch_bend_c, 1, 8320
3, 230457, Pitch_bend_c, 1, 8320
3, 230476, Pitch_bend_c, 1, 8192
3, 230496, Pitch_bend_c, 1, 8192
3, 230515, Pitch_bend_c, 1, 8192
3, 230534, Pitch_bend_c, 1, 8064
3, 230547, Pitch_bend_c, 1, 8064
3, 230566, Pitch_bend_c, 1, 8064
3, 230585, Pitch_bend_c, 1, 7936
3, 230604, Pitch_bend_c, 1, 7936
3, 230624, Pitch_bend_c, 1, 7936
3, 230643, Pitch_bend_c, 1, 7936
3, 230656, Pitch_bend_c, 1, 7936
3, 230675, Pitch_bend_c, 1, 7936
3, 230694, Pitch_bend_c, 1, 7936
3, 230713, Pitch_bend_c, 1, 8064
3, 230732, Pitch_bend_c, 1, 8064
3, 230745, Pitch_bend_c, 1, 8064
3, 230764, Pitch_bend_c, 1, 8192
3, 230784, Pitch_bend_c, 1, 8192
3, 230803, Pitch_bend_c, 1, 8192
3, 230822, Pitch_bend_c, 1, 8320
3, 230835, Pitch_bend_c, 1, 8320
3, 230854, Pitch_bend_c, 1, 8320
3, 230873, Pitch_bend_c, 1, 8320
3, 230892, Pitch_bend_c, 1, 8320
3, 230912, Pitch_bend_c, 1, 8320
3, 230924, Pitch_bend_c, 1, 8320
3, 230944, Pitch_bend_c, 1, 8320
3, 230963, Pitch_bend_c, 1, 8320
3, 230982, Pitch_bend_c, 1, 8320
3, 231001, Pitch_bend_c, 1, 8320
3, 231020, Pitch_bend_c, 1, 8320
3, 231033, Pitch_bend_c, 1, 8320
3, 231052, Pitch_bend_c, 1, 8192
3, 231072, Pitch_bend_c, 1, 8192
3, 231091, Pitch_bend_c, 1, 8192
3, 231110, Pitch_bend_c, 1, 8064
3, 231123, Pitch_bend_c, 1, 8064
3, 231142, Pitch_bend_c, 1, 8064
3, 231161, Pitch_bend_c, 1, 8064
3, 231180, Pitch_bend_c, 1, 8064
3, 231200, Pitch_bend_c, 1, 8064
3, 231219, Pitch_bend_c, 1, 8064
3, 231232, Pitch_bend_c, 1, 8064
3, 231251, Pitch_bend_c, 1, 8064
3, 231270, Pitch_bend_c, 1, 8064
3, 231289, Pitch_bend_c, 1, 8064
3, 231308, Pitch_bend_c, 1, 8064
3, 231321, Pitch_bend_c, 1, 8064
3, 231340, Pitch_bend_c, 1, 8192
3, 231360, Pitch_bend_c, 1, 8192
3, 231379, Pitch_bend_c, 1, 8192
3, 231398, Pitch_bend_c, 1, 8192
3, 231411, Pitch_bend_c, 1, 8320
3, 231430, Pitch_bend_c, 1, 8320
3, 231449, Pitch_bend_c, 1, 8320
3, 231468, Pitch_bend_c, 1, 8320
3, 231488, Pitch_bend_c, 1, 8320
3, 231500, Pitch_bend_c, 1, 8320
3, 231520, Pitch_bend_c, 1, 8320
3, 231539, Pitch_bend_c, 1, 8320
3, 231558, Pitch_bend_c, 1, 8320
3, 231577, Pitch_bend_c, 1, 8320
3, 231596, Pitch_bend_c, 1, 8320
3, 231609, Pitch_bend_c, 1, 8192
3, 231628, Pitch_bend_c, 1, 8192
3, 231648, Pitch_bend_c, 1, 8192
3, 231667, Pitch_bend_c, 1, 8192
3, 231686, Pitch_bend_c, 1, 8192
3, 231699, Pitch_bend_c, 1, 8064
3, 231718, Pitch_bend_c, 1, 8064
3, 231737, Pitch_bend_c, 1, 8064
3, 231756, Pitch_bend_c, 1, 8064
3, 231776, Pitch_bend_c, 1, 8064
3, 231795, Pitch_bend_c, 1, 8064
3, 231808, Pitch_bend_c, 1, 8064
3, 231827, Pitch_bend_c, 1, 8064
3, 231846, Pitch_bend_c, 1, 8064
3, 231865, Pitch_bend_c, 1, 8064
3, 231884, Pitch_bend_c, 1, 8064
3, 231897, Pitch_bend_c, 1, 8192
3, 231916, Pitch_bend_c, 1, 8192
3, 231936, Pitch_bend_c, 1, 8192
3, 232320, Pitch_bend_c, 1, 7552
3, 232486, Pitch_bend_c, 1, 6784
3, 232646, Pitch_bend_c, 1, 6144
3, 232812, Pitch_bend_c, 1, 5504
3, 232979, Pitch_bend_c, 1, 4736
3, 233145, Pitch_bend_c, 1, 4096
3, 233305, Pitch_bend_c, 1, 3456
3, 233472, Note_off_c, 1, 69, 80
3, 233472, Pitch_bend_c, 1, 8192
3, 233472, Note_on_c, 1, 42, 79
3, 233856, Note_off_c, 1, 42, 80
3, 233856, Note_on_c, 1, 45, 79
3, 234240, Note_off_c, 1, 45, 80
3, 234240, Note_on_c, 1, 43, 79
3, 234624, Note_off_c, 1, 43, 80
3, 234624, Note_on_c, 1, 48, 79
3, 235008, Note_off_c, 1, 48, 80
3, 235008, Note_on_c, 1, 51, 79
3, 235392, Note_off_c, 1, 51, 80
3, 235392, Note_on_c, 1, 50, 79
3, 235776, Note_off_c, 1, 50, 80
3, 235776, Note_on_c, 1, 54, 79
3, 236160, Note_off_c, 1, 54, 80
3, 236160, Note_on_c, 1, 57, 79
3, 236544, Note_off_c, 1, 57, 80
3, 236544, Note_on_c, 1, 55, 79
3, 236928, Note_off_c, 1, 55, 80
3, 236928, Note_on_c, 1, 60, 79
3, 237312, Note_off_c, 1, 60, 80
3, 237312, Note_on_c, 1, 63, 79
3, 237696, Note_off_c, 1, 63, 80
3, 237696, Note_on_c, 1, 62, 79
3, 238080, Note_off_c, 1, 62, 80
3, 238080, Note_on_c, 1, 66, 79
3, 238464, Note_off_c, 1, 66, 80
3, 238464, Note_on_c, 1, 69, 79
3, 238848, Note_off_c, 1, 69, 80
3, 238848, Note_on_c, 1, 67, 79
3, 239232, Note_off_c, 1, 67, 80
3, 239232, Note_on_c, 1, 72, 79
3, 239616, Note_off_c, 1, 72, 80
3, 239616, Note_on_c, 1, 75, 79
3, 240000, Note_off_c, 1, 75, 80
3, 240000, Note_on_c, 1, 72, 79
3, 240384, Note_off_c, 1, 72, 80
3, 240384, Note_on_c, 1, 74, 79
3, 240384, Pitch_bend_c, 1, 8192
3, 240486, Pitch_bend_c, 1, 8704
3, 240588, Pitch_bend_c, 1, 8832
3, 240793, Pitch_bend_c, 1, 8448
3, 240896, Pitch_bend_c, 1, 8192
3, 241536, Pitch_bend_c, 1, 7552
3, 241702, Pitch_bend_c, 1, 6784
3, 241862, Pitch_bend_c, 1, 6144
3, 242028, Pitch_bend_c, 1, 5504
3, 242195, Pitch_bend_c, 1, 4736
3, 242361, Pitch_bend_c, 1, 4096
3, 242521, Pitch_bend_c, 1, 3456
3, 242688, Note_off_c, 1, 74, 80
3, 242688, Pitch_bend_c, 1, 8192
3, 242944, Note_on_c, 1, 67, 79
3, 243200, Note_off_c, 1, 67, 80
3, 243200, Note_on_c, 1, 65, 63
3, 243456, Note_off_c, 1, 65, 80
3, 243456, Note_on_c, 1, 63, 79
3, 243712, Note_off_c, 1, 63, 80
3, 243712, Note_on_c, 1, 62, 63
3, 243968, Note_off_c, 1, 62, 80
3, 243968, Note_on_c, 1, 63, 63
3, 244224, Note_off_c, 1, 63, 80
3, 244224, Note_on_c, 1, 62, 63
3, 244428, Pitch_bend_c, 1, 8832
3, 244448, Pitch_bend_c, 1, 9600
3, 244460, Pitch_bend_c, 1, 10240
3, 244480, Pitch_bend_c, 1, 10880
3, 244499, Pitch_bend_c, 1, 10880
3, 244736, Note_off_c, 1, 62, 80
3, 244736, Pitch_bend_c, 1, 8192
3, 244736, Note_on_c, 1, 67, 79
3, 244992, Note_off_c, 1, 67, 80
3, 244992, Note_on_c, 1, 69, 79
3, 244992, Note_on_c, 1, 72, 79
3, 244992, Pitch_bend_c, 1, 8192
3, 245043, Pitch_bend_c, 1, 8192
3, 245088, Pitch_bend_c, 1, 8192
3, 245132, Pitch_bend_c, 1, 8192
3, 245184, Note_off_c, 1, 69, 80
3, 245184, Note_on_c, 1, 70, 63
3, 245184, Pitch_bend_c, 1, 8192
3, 245235, Pitch_bend_c, 1, 8192
3, 245280, Pitch_bend_c, 1, 8192
3, 245324, Pitch_bend_c, 1, 8192
3, 245376, Note_off_c, 1, 70, 80
3, 245376, Note_on_c, 1, 72, 63
3, 245376, Pitch_bend_c, 1, 8192
3, 245427, Pitch_bend_c, 1, 8192
3, 245472, Pitch_bend_c, 1, 8192
3, 245516, Pitch_bend_c, 1, 8192
3, 245568, Note_on_c, 1, 74, 79
3, 245568, Pitch_bend_c, 1, 8192
3, 245619, Pitch_bend_c, 1, 8192
3, 245664, Pitch_bend_c, 1, 8192
3, 245708, Pitch_bend_c, 1, 8192
3, 245760, Note_off_c, 1, 74, 80
3, 245760, Pitch_bend_c, 1, 9600
3, 248064, Note_off_c, 1, 72, 80
3, 248064, Pitch_bend_c, 1, 8192
3, 248064, Note_on_c, 1, 77, 63
3, 248832, Note_off_c, 1, 77, 80
3, 248832, Note_on_c, 1, 72, 79
3, 248832, Pitch_bend_c, 1, 8192
3, 248851, Pitch_bend_c, 1, 8192
3, 248870, Pitch_bend_c, 1, 8192
3, 248883, Pitch_bend_c, 1, 8192
3, 248902, Pitch_bend_c, 1, 8192
3, 248921, Pitch_bend_c, 1, 8192
3, 248940, Pitch_bend_c, 1, 8192
3, 248960, Pitch_bend_c, 1, 8192
3, 248972, Pitch_bend_c, 1, 8192
3, 248992, Pitch_bend_c, 1, 8192
3, 249011, Pitch_bend_c, 1, 8192
3, 249030, Pitch_bend_c, 1, 8192
3, 249049, Pitch_bend_c, 1, 8192
3, 249068, Pitch_bend_c, 1, 8192
3, 249081, Pitch_bend_c, 1, 8192
3, 249100, Pitch_bend_c, 1, 8192
3, 249120, Pitch_bend_c, 1, 8192
3, 249139, Pitch_bend_c, 1, 8192
3, 249158, Pitch_bend_c, 1, 8192
3, 249171, Pitch_bend_c, 1, 8192
3, 249190, Pitch_bend_c, 1, 8192
3, 249209, Pitch_bend_c, 1, 8192
3, 249228, Pitch_bend_c, 1, 8192
3, 249248, Pitch_bend_c, 1, 8192
3, 249267, Pitch_bend_c, 1, 8192
3, 249280, Pitch_bend_c, 1, 8192
3, 249299, Pitch_bend_c, 1, 8192
3, 249318, Pitch_bend_c, 1, 8192
3, 249337, Pitch_bend_c, 1, 8192
3, 249356, Pitch_bend_c, 1, 8192
3, 249369, Pitch_bend_c, 1, 8192
3, 249388, Pitch_bend_c, 1, 8192
3, 249408, Pitch_bend_c, 1, 8192
3, 249427, Pitch_bend_c, 1, 8192
3, 249446, Pitch_bend_c, 1, 8320
3, 249459, Pitch_bend_c, 1, 8320
3, 249478, Pitch_bend_c, 1, 8320
3, 249497, Pitch_bend_c, 1, 8448
3, 249516, Pitch_bend_c, 1, 8448
3, 249536, Pitch_bend_c, 1, 8448
3, 249548, Pitch_bend_c, 1, 8448
3, 249568, Pitch_bend_c, 1, 8448
3, 249587, Pitch_bend_c, 1, 8448
3, 249606, Pitch_bend_c, 1, 8448
3, 249625, Pitch_bend_c, 1, 8320
3, 249644, Pitch_bend_c, 1, 8320
3, 249657, Pitch_bend_c, 1, 8320
3, 249676, Pitch_bend_c, 1, 8192
3, 249696, Pitch_bend_c, 1, 8192
3, 249715, Pitch_bend_c, 1, 8192
3, 249734, Pitch_bend_c, 1, 8064
3, 249747, Pitch_bend_c, 1, 8064
3, 249766, Pitch_bend_c, 1, 8064
3, 249785, Pitch_bend_c, 1, 7936
3, 249804, Pitch_bend_c, 1, 7936
3, 249824, Pitch_bend_c, 1, 7936
3, 249843, Pitch_bend_c, 1, 7936
3, 249856, Pitch_bend_c, 1, 7936
3, 249875, Pitch_bend_c, 1, 7936
3, 249894, Pitch_bend_c, 1, 7936
3, 249913, Pitch_bend_c, 1, 8064
3, 249932, Pitch_bend_c, 1, 8064
3, 249945, Pitch_bend_c, 1, 8064
3, 249964, Pitch_bend_c, 1, 8192
3, 249984, Pitch_bend_c, 1, 8192
3, 250003, Pitch_bend_c, 1, 8192
3, 250022, Pitch_bend_c, 1, 8320
3, 250035, Pitch_bend_c, 1, 8320
3, 250054, Pitch_bend_c, 1, 8448
3, 250073, Pitch_bend_c, 1, 8448
3, 250092, Pitch_bend_c, 1, 8448
3, 250112, Pitch_bend_c, 1, 8448
3, 250124, Pitch_bend_c, 1, 8448
3, 250144, Pitch_bend_c, 1, 8448
3, 250163, Pitch_bend_c, 1, 8448
3, 250182, Pitch_bend_c, 1, 8448
3, 250201, Pitch_bend_c, 1, 8448
3, 250220, Pitch_bend_c, 1, 8320
3, 250233, Pitch_bend_c, 1, 8320
3, 250252, Pitch_bend_c, 1, 8192
3, 250272, Pitch_bend_c, 1, 8192
3, 250291, Pitch_bend_c, 1, 8192
3, 250310, Pitch_bend_c, 1, 8064
3, 250323, Pitch_bend_c, 1, 8064
3, 250342, Pitch_bend_c, 1, 7936
3, 250361, Pitch_bend_c, 1, 7936
3, 250380, Pitch_bend_c, 1, 7936
3, 250400, Pitch_bend_c, 1, 7936
3, 250419, Pitch_bend_c, 1, 7936
3, 250432, Pitch_bend_c, 1, 7936
3, 250451, Pitch_bend_c, 1, 7936
3, 250470, Pitch_bend_c, 1, 7936
3, 250489, Pitch_bend_c, 1, 7936
3, 250508, Pitch_bend_c, 1, 8064
3, 250521, Pitch_bend_c, 1, 8064
3, 250540, Pitch_bend_c, 1, 8192
3, 250560, Pitch_bend_c, 1, 8192
3, 250579, Pitch_bend_c, 1, 8192
3, 250598, Pitch_bend_c, 1, 8320
3, 250611, Pitch_bend_c, 1, 8320
3, 250630, Pitch_bend_c, 1, 8320
3, 250649, Pitch_bend_c, 1, 8320
3, 250668, Pitch_bend_c, 1, 8320
3, 250688, Pitch_bend_c, 1, 8448
3, 250700, Pitch_bend_c, 1, 8448
3, 250720, Pitch_bend_c, 1, 8448
3, 250739, Pitch_bend_c, 1, 8320
3, 250758, Pitch_bend_c, 1, 8320
3, 250777, Pitch_bend_c, 1, 8320
3, 250796, Pitch_bend_c, 1, 8320
3, 250809, Pitch_bend_c, 1, 8320
3, 250828, Pitch_bend_c, 1, 8192
3, 250848, Pitch_bend_c, 1, 8192
3, 250867, Pitch_bend_c, 1, 8192
3, 250886, Pitch_bend_c, 1, 8064
3, 250899, Pitch_bend_c, 1, 8064
3, 250918, Pitch_bend_c, 1, 8064
3, 250937, Pitch_bend_c, 1, 8064
3, 250956, Pitch_bend_c, 1, 8064
3, 250976, Pitch_bend_c, 1, 7936
3, 250995, Pitch_bend_c, 1, 7936
3, 251008, Pitch_bend_c, 1, 7936
3, 251027, Pitch_bend_c, 1, 8064
3, 251046, Pitch_bend_c, 1, 8064
3, 251065, Pitch_bend_c, 1, 8064
3, 251084, Pitch_bend_c, 1, 8064
3, 251097, Pitch_bend_c, 1, 8064
3, 251116, Pitch_bend_c, 1, 8192
3, 251136, Pitch_bend_c, 1, 8192
3, 251155, Pitch_bend_c, 1, 8192
3, 251174, Pitch_bend_c, 1, 8320
3, 251187, Pitch_bend_c, 1, 8320
3, 251206, Pitch_bend_c, 1, 8320
3, 251225, Pitch_bend_c, 1, 8320
3, 251244, Pitch_bend_c, 1, 8320
3, 251264, Pitch_bend_c, 1, 8448
3, 251276, Pitch_bend_c, 1, 8448
3, 251296, Pitch_bend_c, 1, 8448
3, 251315, Pitch_bend_c, 1, 8320
3, 251334, Pitch_bend_c, 1, 8320
3, 251353, Pitch_bend_c, 1, 8320
3, 251372, Pitch_bend_c, 1, 8320
3, 251385, Pitch_bend_c, 1, 8320
3, 251404, Pitch_bend_c, 1, 8192
3, 251424, Pitch_bend_c, 1, 8192
3, 251443, Pitch_bend_c, 1, 8192
3, 251462, Pitch_bend_c, 1, 8064
3, 251475, Pitch_bend_c, 1, 8064
3, 251494, Pitch_bend_c, 1, 8064
3, 251513, Pitch_bend_c, 1, 8064
3, 251532, Pitch_bend_c, 1, 8064
3, 251552, Pitch_bend_c, 1, 7936
3, 251571, Pitch_bend_c, 1, 7936
3, 251584, Pitch_bend_c, 1, 7936
3, 251603, Pitch_bend_c, 1, 8064
3, 251622, Pitch_bend_c, 1, 8064
3, 251641, Pitch_bend_c, 1, 8064
3, 251660, Pitch_bend_c, 1, 8064
3, 251673, Pitch_bend_c, 1, 8064
3, 251692, Pitch_bend_c, 1, 8192
3, 251712, Pitch_bend_c, 1, 8192
3, 251731, Pitch_bend_c, 1, 8192
3, 251750, Pitch_bend_c, 1, 8192
3, 251763, Pitch_bend_c, 1, 8320
3, 251782, Pitch_bend_c, 1, 8320
3, 251801, Pitch_bend_c, 1, 8320
3, 251820, Pitch_bend_c, 1, 8320
3, 251840, Pitch_bend_c, 1, 8320
3, 251852, Pitch_bend_c, 1, 8320
3, 251872, Pitch_bend_c, 1, 8320
3, 251891, Pitch_bend_c, 1, 8320
3, 251904, Pitch_bend_c, 1, 8192
3, 251923, Pitch_bend_c, 1, 8192
3, 251942, Pitch_bend_c, 1, 8192
3, 251955, Pitch_bend_c, 1, 8192
3, 251974, Pitch_bend_c, 1, 8192
3, 251993, Pitch_bend_c, 1, 8192
3, 252012, Pitch_bend_c, 1, 8192
3, 252032, Pitch_bend_c, 1, 8192
3, 252044, Pitch_bend_c, 1, 8192
3, 252064, Pitch_bend_c, 1, 8192
3, 252083, Pitch_bend_c, 1, 8192
3, 252102, Pitch_bend_c, 1, 8192
3, 252121, Pitch_bend_c, 1, 8192
3, 252140, Pitch_bend_c, 1, 8192
3, 252153, Pitch_bend_c, 1, 8192
3, 252172, Pitch_bend_c, 1, 8192
3, 252192, Pitch_bend_c, 1, 8192
3, 252211, Pitch_bend_c, 1, 8192
3, 252230, Pitch_bend_c, 1, 8192
3, 252243, Pitch_bend_c, 1, 8192
3, 252262, Pitch_bend_c, 1, 8192
3, 252281, Pitch_bend_c, 1, 8192
3, 252300, Pitch_bend_c, 1, 8192
3, 252320, Pitch_bend_c, 1, 8192
3, 252339, Pitch_bend_c, 1, 8192
3, 252352, Pitch_bend_c, 1, 8192
3, 252371, Pitch_bend_c, 1, 8192
3, 252390, Pitch_bend_c, 1, 8192
3, 252409, Pitch_bend_c, 1, 8192
3, 252428, Pitch_bend_c, 1, 8192
3, 252441, Pitch_bend_c, 1, 8192
3, 252460, Pitch_bend_c, 1, 8192
3, 252480, Pitch_bend_c, 1, 8192
3, 252499, Pitch_bend_c, 1, 8192
3, 252518, Pitch_bend_c, 1, 8320
3, 252531, Pitch_bend_c, 1, 8320
3, 252550, Pitch_bend_c, 1, 8320
3, 252569, Pitch_bend_c, 1, 8320
3, 252588, Pitch_bend_c, 1, 8320
3, 252608, Pitch_bend_c, 1, 8320
3, 252620, Pitch_bend_c, 1, 8320
3, 252640, Pitch_bend_c, 1, 8320
3, 252659, Pitch_bend_c, 1, 8320
3, 252678, Pitch_bend_c, 1, 8320
3, 252697, Pitch_bend_c, 1, 8320
3, 252716, Pitch_bend_c, 1, 8320
3, 252729, Pitch_bend_c, 1, 8320
3, 252748, Pitch_bend_c, 1, 8192
3, 252768, Pitch_bend_c, 1, 8192
3, 252787, Pitch_bend_c, 1, 8192
3, 252806, Pitch_bend_c, 1, 8064
3, 252819, Pitch_bend_c, 1, 8064
3, 252838, Pitch_bend_c, 1, 8064
3, 252857, Pitch_bend_c, 1, 8064
3, 252876, Pitch_bend_c, 1, 8064
3, 252896, Pitch_bend_c, 1, 8064
3, 252915, Pitch_bend_c, 1, 8064
3, 252928, Pitch_bend_c, 1, 8064
3, 252947, Pitch_bend_c, 1, 8064
3, 252966, Pitch_bend_c, 1, 8064
3, 252985, Pitch_bend_c, 1, 8064
3, 253004, Pitch_bend_c, 1, 8064
3, 253017, Pitch_bend_c, 1, 8064
3, 253036, Pitch_bend_c, 1, 8192
3, 253056, Pitch_bend_c, 1, 8192
3, 253075, Pitch_bend_c, 1, 8192
3, 253094, Pitch_bend_c, 1, 8320
3, 253107, Pitch_bend_c, 1, 8320
3, 253126, Pitch_bend_c, 1, 8320
3, 253145, Pitch_bend_c, 1, 8320
3, 253164, Pitch_bend_c, 1, 8448
3, 253184, Pitch_bend_c, 1, 8448
3, 253196, Pitch_bend_c, 1, 8448
3, 253216, Pitch_bend_c, 1, 8448
3, 253235, Pitch_bend_c, 1, 8448
3, 253254, Pitch_bend_c, 1, 8320
3, 253273, Pitch_bend_c, 1, 8320
3, 253292, Pitch_bend_c, 1, 8320
3, 253305, Pitch_bend_c, 1, 8320
3, 253324, Pitch_bend_c, 1, 8192
3, 253344, Pitch_bend_c, 1, 8192
3, 253363, Pitch_bend_c, 1, 8192
3, 253382, Pitch_bend_c, 1, 8064
3, 253395, Pitch_bend_c, 1, 8064
3, 253414, Pitch_bend_c, 1, 8064
3, 253433, Pitch_bend_c, 1, 8064
3, 253452, Pitch_bend_c, 1, 7936
3, 253472, Pitch_bend_c, 1, 7936
3, 253491, Pitch_bend_c, 1, 7936
3, 253504, Pitch_bend_c, 1, 7936
3, 253523, Pitch_bend_c, 1, 7936
3, 253542, Pitch_bend_c, 1, 8064
3, 253561, Pitch_bend_c, 1, 8064
3, 253580, Pitch_bend_c, 1, 8064
3, 253593, Pitch_bend_c, 1, 8064
3, 253612, Pitch_bend_c, 1, 8192
3, 253632, Pitch_bend_c, 1, 8192
3, 253651, Pitch_bend_c, 1, 8192
3, 253670, Pitch_bend_c, 1, 8320
3, 253683, Pitch_bend_c, 1, 8320
3, 253702, Pitch_bend_c, 1, 8320
3, 253721, Pitch_bend_c, 1, 8448
3, 253740, Pitch_bend_c, 1, 8448
3, 253760, Pitch_bend_c, 1, 8448
3, 253772, Pitch_bend_c, 1, 8448
3, 253792, Pitch_bend_c, 1, 8448
3, 253811, Pitch_bend_c, 1, 8448
3, 253830, Pitch_bend_c, 1, 8448
3, 253849, Pitch_bend_c, 1, 8320
3, 253868, Pitch_bend_c, 1, 8320
3, 253881, Pitch_bend_c, 1, 8320
3, 253900, Pitch_bend_c, 1, 8192
3, 253920, Pitch_bend_c, 1, 8192
3, 253939, Pitch_bend_c, 1, 8192
3, 253958, Pitch_bend_c, 1, 8064
3, 253971, Pitch_bend_c, 1, 8064
3, 253990, Pitch_bend_c, 1, 8064
3, 254009, Pitch_bend_c, 1, 7936
3, 254028, Pitch_bend_c, 1, 7936
3, 254048, Pitch_bend_c, 1, 7936
3, 254067, Pitch_bend_c, 1, 7936
3, 254080, Pitch_bend_c, 1, 7936
3, 254099, Pitch_bend_c, 1, 7936
3, 254118, Pitch_bend_c, 1, 7936
3, 254137, Pitch_bend_c, 1, 8064
3, 254156, Pitch_bend_c, 1, 8064
3, 254169, Pitch_bend_c, 1, 8064
3, 254188, Pitch_bend_c, 1, 8192
3, 254208, Note_off_c, 1, 72, 80
3, 254208, Pitch_bend_c, 1, 8192
3, 254976, Note_on_c, 1, 72, 79
3, 254976, Pitch_bend_c, 1, 8192
3, 255027, Pitch_bend_c, 1, 8192
3, 255072, Pitch_bend_c, 1, 8192
3, 255116, Pitch_bend_c, 1, 8192
3, 255168, Pitch_bend_c, 1, 8192
3, 255219, Pitch_bend_c, 1, 8192
3, 255264, Pitch_bend_c, 1, 8192
3, 255308, Pitch_bend_c, 1, 8192
3, 255360, Pitch_bend_c, 1, 8192
3, 255411, Pitch_bend_c, 1, 8192
3, 255456, Pitch_bend_c, 1, 8192
3, 255500, Pitch_bend_c, 1, 8192
3, 255552, Pitch_bend_c, 1, 8192
3, 255603, Pitch_bend_c, 1, 8192
3, 255648, Pitch_bend_c, 1, 8192
3, 255692, Pitch_bend_c, 1, 8192
3, 255744, Pitch_bend_c, 1, 9600
3, 256512, Pitch_bend_c, 1, 9600
3, 256819, Pitch_bend_c, 1, 9344
3, 256921, Pitch_bend_c, 1, 8448
3, 257024, Pitch_bend_c, 1, 8192
3, 257664, Note_off_c, 1, 72, 80
3, 257664, Note_on_c, 1, 70, 63
3, 258048, Note_off_c, 1, 70, 80
3, 258048, Note_on_c, 1, 72, 79
3, 258048, Pitch_bend_c, 1, 8192
3, 258067, Pitch_bend_c, 1, 8192
3, 258086, Pitch_bend_c, 1, 8192
3, 258099, Pitch_bend_c, 1, 8192
3, 258118, Pitch_bend_c, 1, 8192
3, 258137, Pitch_bend_c, 1, 8192
3, 258156, Pitch_bend_c, 1, 8192
3, 258176, Pitch_bend_c, 1, 8192
3, 258188, Pitch_bend_c, 1, 8192
3, 258208, Pitch_bend_c, 1, 8192
3, 258227, Pitch_bend_c, 1, 8192
3, 258246, Pitch_bend_c, 1, 8192
3, 258265, Pitch_bend_c, 1, 8192
3, 258284, Pitch_bend_c, 1, 8192
3, 258297, Pitch_bend_c, 1, 8192
3, 258316, Pitch_bend_c, 1, 8192
3, 258336, Pitch_bend_c, 1, 8192
3, 258355, Pitch_bend_c, 1, 8192
3, 258374, Pitch_bend_c, 1, 8192
3, 258387, Pitch_bend_c, 1, 8192
3, 258406, Pitch_bend_c, 1, 8192
3, 258425, Pitch_bend_c, 1, 8192
3, 258444, Pitch_bend_c, 1, 8192
3, 258464, Pitch_bend_c, 1, 8192
3, 258483, Pitch_bend_c, 1, 8192
3, 258496, Pitch_bend_c, 1, 8192
3, 258515, Pitch_bend_c, 1, 8192
3, 258534, Pitch_bend_c, 1, 8192
3, 258553, Pitch_bend_c, 1, 8192
3, 258572, Pitch_bend_c, 1, 8192
3, 258585, Pitch_bend_c, 1, 8192
3, 258604, Pitch_bend_c, 1, 8192
3, 258624, Pitch_bend_c, 1, 8192
3, 258643, Pitch_bend_c, 1, 8192
3, 258662, Pitch_bend_c, 1, 8320
3, 258675, Pitch_bend_c, 1, 8320
3, 258694, Pitch_bend_c, 1, 8320
3, 258713, Pitch_bend_c, 1, 8320
3, 258732, Pitch_bend_c, 1, 8320
3, 258752, Pitch_bend_c, 1, 8320
3, 258764, Pitch_bend_c, 1, 8320
3, 258784, Pitch_bend_c, 1, 8320
3, 258803, Pitch_bend_c, 1, 8320
3, 258822, Pitch_bend_c, 1, 8320
3, 258841, Pitch_bend_c, 1, 8320
3, 258860, Pitch_bend_c, 1, 8320
3, 258873, Pitch_bend_c, 1, 8320
3, 258892, Pitch_bend_c, 1, 8192
3, 258912, Pitch_bend_c, 1, 8192
3, 258931, Pitch_bend_c, 1, 8192
3, 258950, Pitch_bend_c, 1, 8064
3, 258963, Pitch_bend_c, 1, 8064
3, 258982, Pitch_bend_c, 1, 8064
3, 259001, Pitch_bend_c, 1, 8064
3, 259020, Pitch_bend_c, 1, 8064
3, 259040, Pitch_bend_c, 1, 8064
3, 259059, Pitch_bend_c, 1, 8064
3, 259072, Pitch_bend_c, 1, 8064
3, 259091, Pitch_bend_c, 1, 8064
3, 259110, Pitch_bend_c, 1, 8064
3, 259129, Pitch_bend_c, 1, 8064
3, 259148, Pitch_bend_c, 1, 8064
3, 259161, Pitch_bend_c, 1, 8064
3, 259180, Pitch_bend_c, 1, 8192
3, 259200, Pitch_bend_c, 1, 8192
3, 259219, Pitch_bend_c, 1, 8192
3, 259238, Pitch_bend_c, 1, 8320
3, 259251, Pitch_bend_c, 1, 8320
3, 259270, Pitch_bend_c, 1, 8320
3, 259289, Pitch_bend_c, 1, 8320
3, 259308, Pitch_bend_c, 1, 8448
3, 259328, Pitch_bend_c, 1, 8448
3, 259340, Pitch_bend_c, 1, 8448
3, 259360, Pitch_bend_c, 1, 8448
3, 259379, Pitch_bend_c, 1, 8448
3, 259398, Pitch_bend_c, 1, 8320
3, 259417, Pitch_bend_c, 1, 8320
3, 259436, Pitch_bend_c, 1, 8320
3, 259449, Pitch_bend_c, 1, 8320
3, 259468, Pitch_bend_c, 1, 8192
3, 259488, Pitch_bend_c, 1, 8192
3, 259507, Pitch_bend_c, 1, 8192
3, 259526, Pitch_bend_c, 1, 8064
3, 259539, Pitch_bend_c, 1, 8064
3, 259558, Pitch_bend_c, 1, 8064
3, 259577, Pitch_bend_c, 1, 8064
3, 259596, Pitch_bend_c, 1, 7936
3, 259616, Pitch_bend_c, 1, 7936
3, 259635, Pitch_bend_c, 1, 7936
3, 259648, Pitch_bend_c, 1, 7936
3, 259667, Pitch_bend_c, 1, 7936
3, 259686, Pitch_bend_c, 1, 8064
3, 259705, Pitch_bend_c, 1, 8064
3, 259724, Pitch_bend_c, 1, 8064
3, 259737, Pitch_bend_c, 1, 8064
3, 259756, Pitch_bend_c, 1, 8192
3, 259776, Pitch_bend_c, 1, 8192
3, 259795, Pitch_bend_c, 1, 8192
3, 259814, Pitch_bend_c, 1, 8320
3, 259827, Pitch_bend_c, 1, 8320
3, 259846, Pitch_bend_c, 1, 8320
3, 259865, Pitch_bend_c, 1, 8448
3, 259884, Pitch_bend_c, 1, 8448
3, 259904, Pitch_bend_c, 1, 8448
3, 259916, Pitch_bend_c, 1, 8448
3, 259936, Pitch_bend_c, 1, 8448
3, 259955, Pitch_bend_c, 1, 8448
3, 259974, Pitch_bend_c, 1, 8448
3, 259993, Pitch_bend_c, 1, 8320
3, 260012, Pitch_bend_c, 1, 8320
3, 260025, Pitch_bend_c, 1, 8320
3, 260044, Pitch_bend_c, 1, 8192
3, 260064, Pitch_bend_c, 1, 8192
3, 260083, Pitch_bend_c, 1, 8192
3, 260102, Pitch_bend_c, 1, 8064
3, 260115, Pitch_bend_c, 1, 8064
3, 260134, Pitch_bend_c, 1, 8064
3, 260153, Pitch_bend_c, 1, 7936
3, 260172, Pitch_bend_c, 1, 7936
3, 260192, Pitch_bend_c, 1, 7936
3, 260211, Pitch_bend_c, 1, 7936
3, 260224, Pitch_bend_c, 1, 7936
3, 260243, Pitch_bend_c, 1, 7936
3, 260262, Pitch_bend_c, 1, 7936
3, 260281, Pitch_bend_c, 1, 8064
3, 260300, Pitch_bend_c, 1, 8064
3, 260313, Pitch_bend_c, 1, 8064
3, 260332, Pitch_bend_c, 1, 8192
3, 260352, Pitch_bend_c, 1, 8192
3, 260371, Pitch_bend_c, 1, 8192
3, 260390, Pitch_bend_c, 1, 8320
3, 260403, Pitch_bend_c, 1, 8320
3, 260422, Pitch_bend_c, 1, 8320
3, 260441, Pitch_bend_c, 1, 8320
3, 260460, Pitch_bend_c, 1, 8320
3, 260480, Pitch_bend_c, 1, 8320
3, 260492, Pitch_bend_c, 1, 8320
3, 260512, Pitch_bend_c, 1, 8320
3, 260531, Pitch_bend_c, 1, 8320
3, 260550, Pitch_bend_c, 1, 8320
3, 260569, Pitch_bend_c, 1, 8320
3, 260588, Pitch_bend_c, 1, 8320
3, 260601, Pitch_bend_c, 1, 8320
3, 260620, Pitch_bend_c, 1, 8192
3, 260640, Pitch_bend_c, 1, 8192
3, 260659, Pitch_bend_c, 1, 8192
3, 260678, Pitch_bend_c, 1, 8064
3, 260691, Pitch_bend_c, 1, 8064
3, 260710, Pitch_bend_c, 1, 8064
3, 260729, Pitch_bend_c, 1, 8064
3, 260748, Pitch_bend_c, 1, 8064
3, 260768, Pitch_bend_c, 1, 8064
3, 260787, Pitch_bend_c, 1, 8064
3, 260800, Pitch_bend_c, 1, 8064
3, 260819, Pitch_bend_c, 1, 8064
3, 260838, Pitch_bend_c, 1, 8064
3, 260857, Pitch_bend_c, 1, 8064
3, 260876, Pitch_bend_c, 1, 8064
3, 260889, Pitch_bend_c, 1, 8064
3, 260908, Pitch_bend_c, 1, 8192
3, 260928, Pitch_bend_c, 1, 8192
3, 260947, Pitch_bend_c, 1, 8192
3, 260966, Pitch_bend_c, 1, 8320
3, 260979, Pitch_bend_c, 1, 8320
3, 260998, Pitch_bend_c, 1, 8320
3, 261017, Pitch_bend_c, 1, 8320
3, 261036, Pitch_bend_c, 1, 8320
3, 261056, Pitch_bend_c, 1, 8320
3, 261068, Pitch_bend_c, 1, 8320
3, 261088, Pitch_bend_c, 1, 8320
3, 261107, Pitch_bend_c, 1, 8320
3, 261126, Pitch_bend_c, 1, 8320
3, 261145, Pitch_bend_c, 1, 8320
3, 261164, Pitch_bend_c, 1, 8320
3, 261177, Pitch_bend_c, 1, 8320
3, 261196, Pitch_bend_c, 1, 8192
3, 261216, Pitch_bend_c, 1, 8192
3, 261235, Pitch_bend_c, 1, 8192
3, 261254, Pitch_bend_c, 1, 8064
3, 261267, Pitch_bend_c, 1, 8064
3, 261286, Pitch_bend_c, 1, 8064
3, 261305, Pitch_bend_c, 1, 8064
3, 261324, Pitch_bend_c, 1, 8064
3, 261344, Pitch_bend_c, 1, 8064
3, 261363, Pitch_bend_c, 1, 8064
3, 261376, Pitch_bend_c, 1, 8064
3, 261395, Pitch_bend_c, 1, 8064
3, 261414, Pitch_bend_c, 1, 8064
3, 261433, Pitch_bend_c, 1, 8064
3, 261452, Pitch_bend_c, 1, 8064
3, 261465, Pitch_bend_c, 1, 8064
3, 261484, Pitch_bend_c, 1, 8192
3, 261504, Pitch_bend_c, 1, 8192
3, 261523, Pitch_bend_c, 1, 8192
3, 261542, Pitch_bend_c, 1, 8320
3, 261555, Pitch_bend_c, 1, 8320
3, 261574, Pitch_bend_c, 1, 8320
3, 261593, Pitch_bend_c, 1, 8448
3, 261612, Pitch_bend_c, 1, 8448
3, 261632, Pitch_bend_c, 1, 8448
3, 261644, Pitch_bend_c, 1, 8448
3, 261664, Pitch_bend_c, 1, 8448
3, 261683, Pitch_bend_c, 1, 8448
3, 261702, Pitch_bend_c, 1, 8448
3, 261721, Pitch_bend_c, 1, 8320
3, 261740, Pitch_bend_c, 1, 8320
3, 261753, Pitch_bend_c, 1, 8320
3, 261772, Pitch_bend_c, 1, 8192
3, 261792, Pitch_bend_c, 1, 8192
3, 261811, Pitch_bend_c, 1, 8192
3, 261830, Pitch_bend_c, 1, 8064
3, 261843, Pitch_bend_c, 1, 8064
3, 261862, Pitch_bend_c, 1, 8064
3, 261881, Pitch_bend_c, 1, 7936
3, 261900, Pitch_bend_c, 1, 7936
3, 261920, Pitch_bend_c, 1, 7936
3, 261939, Pitch_bend_c, 1, 7936
3, 261952, Pitch_bend_c, 1, 7936
3, 261971, Pitch_bend_c, 1, 7936
3, 261990, Pitch_bend_c, 1, 7936
3, 262009, Pitch_bend_c, 1, 8064
3, 262028, Pitch_bend_c, 1, 8064
3, 262041, Pitch_bend_c, 1, 8064
3, 262060, Pitch_bend_c, 1, 8192
3, 262080, Pitch_bend_c, 1, 8192
3, 262099, Pitch_bend_c, 1, 8192
3, 262118, Pitch_bend_c, 1, 8320
3, 262131, Pitch_bend_c, 1, 8320
3, 262150, Pitch_bend_c, 1, 8320
3, 262169, Pitch_bend_c, 1, 8320
3, 262188, Pitch_bend_c, 1, 8320
3, 262208, Pitch_bend_c, 1, 8320
3, 262220, Pitch_bend_c, 1, 8320
3, 262240, Pitch_bend_c, 1, 8320
3, 262259, Pitch_bend_c, 1, 8320
3, 262278, Pitch_bend_c, 1, 8320
3, 262297, Pitch_bend_c, 1, 8320
3, 262316, Pitch_bend_c, 1, 8320
3, 262329, Pitch_bend_c, 1, 8320
3, 262348, Pitch_bend_c, 1, 8192
3, 262368, Pitch_bend_c, 1, 8192
3, 262387, Pitch_bend_c, 1, 8192
3, 262406, Pitch_bend_c, 1, 8064
3, 262419, Pitch_bend_c, 1, 8064
3, 262438, Pitch_bend_c, 1, 8064
3, 262457, Pitch_bend_c, 1, 8064
3, 262476, Pitch_bend_c, 1, 8064
3, 262496, Pitch_bend_c, 1, 8064
3, 262515, Pitch_bend_c, 1, 8064
3, 262528, Pitch_bend_c, 1, 8064
3, 262547, Pitch_bend_c, 1, 8064
3, 262566, Pitch_bend_c, 1, 8064
3, 262585, Pitch_bend_c, 1, 8064
3, 262604, Pitch_bend_c, 1, 8064
3, 262617, Pitch_bend_c, 1, 8064
3, 262636, Pitch_bend_c, 1, 8192
3, 262656, Pitch_bend_c, 1, 8192
3, 262675, Pitch_bend_c, 1, 8192
3, 262694, Pitch_bend_c, 1, 8320
3, 262707, Pitch_bend_c, 1, 8320
3, 262726, Pitch_bend_c, 1, 8320
3, 262745, Pitch_bend_c, 1, 8448
3, 262764, Pitch_bend_c, 1, 8448
3, 262784, Pitch_bend_c, 1, 8448
3, 262796, Pitch_bend_c, 1, 8448
3, 262816, Pitch_bend_c, 1, 8448
3, 262835, Pitch_bend_c, 1, 8448
3, 262854, Pitch_bend_c, 1, 8448
3, 262873, Pitch_bend_c, 1, 8320
3, 262892, Pitch_bend_c, 1, 8320
3, 262905, Pitch_bend_c, 1, 8320
3, 262924, Pitch_bend_c, 1, 8192
3, 262944, Pitch_bend_c, 1, 8192
3, 262963, Pitch_bend_c, 1, 8192
3, 262982, Pitch_bend_c, 1, 8064
3, 262995, Pitch_bend_c, 1, 8064
3, 263014, Pitch_bend_c, 1, 8064
3, 263033, Pitch_bend_c, 1, 7936
3, 263052, Pitch_bend_c, 1, 7936
3, 263072, Pitch_bend_c, 1, 7936
3, 263091, Pitch_bend_c, 1, 7936
3, 263104, Pitch_bend_c, 1, 7936
3, 263123, Pitch_bend_c, 1, 7936
3, 263142, Pitch_bend_c, 1, 7936
3, 263161, Pitch_bend_c, 1, 8064
3, 263180, Pitch_bend_c, 1, 8064
3, 263193, Pitch_bend_c, 1, 8064
3, 263212, Pitch_bend_c, 1, 8192
3, 263232, Pitch_bend_c, 1, 8192
3, 263251, Pitch_bend_c, 1, 8192
3, 263270, Pitch_bend_c, 1, 8320
3, 263283, Pitch_bend_c, 1, 8320
3, 263302, Pitch_bend_c, 1, 8320
3, 263321, Pitch_bend_c, 1, 8320
3, 263340, Pitch_bend_c, 1, 8320
3, 263360, Pitch_bend_c, 1, 8448
3, 263372, Pitch_bend_c, 1, 8448
3, 263392, Pitch_bend_c, 1, 8448
3, 263411, Pitch_bend_c, 1, 8320
3, 263430, Pitch_bend_c, 1, 8320
3, 263449, Pitch_bend_c, 1, 8320
3, 263468, Pitch_bend_c, 1, 8320
3, 263481, Pitch_bend_c, 1, 8320
3, 263500, Pitch_bend_c, 1, 8192
3, 263520, Pitch_bend_c, 1, 8192
3, 263539, Pitch_bend_c, 1, 8192
3, 263558, Pitch_bend_c, 1, 8064
3, 263571, Pitch_bend_c, 1, 8064
3, 263590, Pitch_bend_c, 1, 8064
3, 263609, Pitch_bend_c, 1, 8064
3, 263628, Pitch_bend_c, 1, 8064
3, 263648, Pitch_bend_c, 1, 7936
3, 263667, Pitch_bend_c, 1, 7936
3, 263680, Pitch_bend_c, 1, 7936
3, 263699, Pitch_bend_c, 1, 8064
3, 263718, Pitch_bend_c, 1, 8064
3, 263737, Pitch_bend_c, 1, 8064
3, 263756, Pitch_bend_c, 1, 8064
3, 263769, Pitch_bend_c, 1, 8064
3, 263788, Pitch_bend_c, 1, 8192
3, 263808, Pitch_bend_c, 1, 8192
3, 263827, Pitch_bend_c, 1, 8192
3, 263846, Pitch_bend_c, 1, 8192
3, 263859, Pitch_bend_c, 1, 8192
3, 263878, Pitch_bend_c, 1, 8192
3, 263897, Pitch_bend_c, 1, 8192
3, 263916, Pitch_bend_c, 1, 8320
3, 263936, Pitch_bend_c, 1, 8320
3, 263948, Pitch_bend_c, 1, 8320
3, 263968, Pitch_bend_c, 1, 8320
3, 263987, Pitch_bend_c, 1, 8320
3, 264006, Pitch_bend_c, 1, 8192
3, 264025, Pitch_bend_c, 1, 8192
3, 264044, Pitch_bend_c, 1, 8192
3, 264057, Pitch_bend_c, 1, 8192
3, 264076, Pitch_bend_c, 1, 8192
3, 264096, Pitch_bend_c, 1, 8192
3, 264115, Pitch_bend_c, 1, 8192
3, 264134, Pitch_bend_c, 1, 8192
3, 264147, Pitch_bend_c, 1, 8192
3, 264166, Pitch_bend_c, 1, 8192
3, 264185, Pitch_bend_c, 1, 8192
3, 264192, Pitch_bend_c, 1, 8192
3, 264211, Pitch_bend_c, 1, 8192
3, 264230, Pitch_bend_c, 1, 8192
3, 264243, Pitch_bend_c, 1, 8192
3, 264262, Pitch_bend_c, 1, 8192
3, 264281, Pitch_bend_c, 1, 8192
3, 264300, Pitch_bend_c, 1, 8192
3, 264320, Pitch_bend_c, 1, 8192
3, 264332, Pitch_bend_c, 1, 8192
3, 264352, Pitch_bend_c, 1, 8192
3, 264371, Pitch_bend_c, 1, 8192
3, 264390, Pitch_bend_c, 1, 8192
3, 264409, Pitch_bend_c, 1, 8192
3, 264428, Pitch_bend_c, 1, 8192
3, 264441, Pitch_bend_c, 1, 8192
3, 264460, Pitch_bend_c, 1, 8192
3, 264480, Pitch_bend_c, 1, 8192
3, 264499, Pitch_bend_c, 1, 8192
3, 264518, Pitch_bend_c, 1, 8192
3, 264531, Pitch_bend_c, 1, 8192
3, 264550, Pitch_bend_c, 1, 8192
3, 264569, Pitch_bend_c, 1, 8192
3, 264588, Pitch_bend_c, 1, 8192
3, 264608, Pitch_bend_c, 1, 8192
3, 264627, Pitch_bend_c, 1, 8192
3, 264640, Pitch_bend_c, 1, 8192
3, 264659, Pitch_bend_c, 1, 8192
3, 264678, Pitch_bend_c, 1, 8192
3, 264697, Pitch_bend_c, 1, 8192
3, 264716, Pitch_bend_c, 1, 8192
3, 264729, Pitch_bend_c, 1, 8192
3, 264748, Pitch_bend_c, 1, 8192
3, 264768, Pitch_bend_c, 1, 8192
3, 264787, Pitch_bend_c, 1, 8320
3, 264806, Pitch_bend_c, 1, 8320
3, 264819, Pitch_bend_c, 1, 8320
3, 264838, Pitch_bend_c, 1, 8448
3, 264857, Pitch_bend_c, 1, 8448
3, 264876, Pitch_bend_c, 1, 8448
3, 264896, Pitch_bend_c, 1, 8448
3, 264908, Pitch_bend_c, 1, 8448
3, 264928, Pitch_bend_c, 1, 8448
3, 264947, Pitch_bend_c, 1, 8448
3, 264966, Pitch_bend_c, 1, 8448
3, 264985, Pitch_bend_c, 1, 8448
3, 265004, Pitch_bend_c, 1, 8320
3, 265017, Pitch_bend_c, 1, 8320
3, 265036, Pitch_bend_c, 1, 8320
3, 265056, Pitch_bend_c, 1, 8192
3, 265075, Pitch_bend_c, 1, 8064
3, 265094, Pitch_bend_c, 1, 8064
3, 265107, Pitch_bend_c, 1, 8064
3, 265126, Pitch_bend_c, 1, 7936
3, 265145, Pitch_bend_c, 1, 7936
3, 265164, Pitch_bend_c, 1, 7936
3, 265184, Pitch_bend_c, 1, 7936
3, 265203, Pitch_bend_c, 1, 7936
3, 265216, Pitch_bend_c, 1, 7936
3, 265235, Pitch_bend_c, 1, 7936
3, 265254, Pitch_bend_c, 1, 7936
3, 265273, Pitch_bend_c, 1, 7936
3, 265292, Pitch_bend_c, 1, 8064
3, 265305, Pitch_bend_c, 1, 8064
3, 265324, Pitch_bend_c, 1, 8064
3, 265344, Pitch_bend_c, 1, 8192
3, 265363, Pitch_bend_c, 1, 8192
3, 265382, Pitch_bend_c, 1, 8320
3, 265395, Pitch_bend_c, 1, 8320
3, 265414, Pitch_bend_c, 1, 8320
3, 265433, Pitch_bend_c, 1, 8320
3, 265452, Pitch_bend_c, 1, 8320
3, 265472, Pitch_bend_c, 1, 8448
3, 265484, Pitch_bend_c, 1, 8448
3, 265504, Pitch_bend_c, 1, 8448
3, 265523, Pitch_bend_c, 1, 8320
3, 265542, Pitch_bend_c, 1, 8320
3, 265561, Pitch_bend_c, 1, 8320
3, 265580, Pitch_bend_c, 1, 8320
3, 265593, Pitch_bend_c, 1, 8320
3, 265612, Pitch_bend_c, 1, 8192
3, 265632, Pitch_bend_c, 1, 8192
3, 265651, Pitch_bend_c, 1, 8192
3, 265670, Pitch_bend_c, 1, 8064
3, 265683, Pitch_bend_c, 1, 8064
3, 265702, Pitch_bend_c, 1, 8064
3, 265721, Pitch_bend_c, 1, 8064
3, 265740, Pitch_bend_c, 1, 8064
3, 265760, Pitch_bend_c, 1, 7936
3, 265779, Pitch_bend_c, 1, 7936
3, 265792, Pitch_bend_c, 1, 7936
3, 265811, Pitch_bend_c, 1, 8064
3, 265830, Pitch_bend_c, 1, 8064
3, 265849, Pitch_bend_c, 1, 8064
3, 265868, Pitch_bend_c, 1, 8064
3, 265881, Pitch_bend_c, 1, 8064
3, 265900, Pitch_bend_c, 1, 8192
3, 265920, Pitch_bend_c, 1, 8192
3, 265939, Pitch_bend_c, 1, 8192
3, 265958, Pitch_bend_c, 1, 8320
3, 265971, Pitch_bend_c, 1, 8320
3, 265990, Pitch_bend_c, 1, 8448
3, 266009, Pitch_bend_c, 1, 8448
3, 266028, Pitch_bend_c, 1, 8448
3, 266048, Pitch_bend_c, 1, 8448
3, 266060, Pitch_bend_c, 1, 8448
3, 266080, Pitch_bend_c, 1, 8448
3, 266099, Pitch_bend_c, 1, 8448
3, 266118, Pitch_bend_c, 1, 8448
3, 266137, Pitch_bend_c, 1, 8448
3, 266156, Pitch_bend_c, 1, 8320
3, 266169, Pitch_bend_c, 1, 8320
3, 266188, Pitch_bend_c, 1, 8192
3, 266208, Pitch_bend_c, 1, 8192
3, 266227, Pitch_bend_c, 1, 8192
3, 266246, Pitch_bend_c, 1, 8064
3, 266259, Pitch_bend_c, 1, 8064
3, 266278, Pitch_bend_c, 1, 7936
3, 266297, Pitch_bend_c, 1, 7936
3, 266316, Pitch_bend_c, 1, 7936
3, 266336, Pitch_bend_c, 1, 7936
3, 266355, Pitch_bend_c, 1, 7936
3, 266368, Pitch_bend_c, 1, 7936
3, 266387, Pitch_bend_c, 1, 7936
3, 266406, Pitch_bend_c, 1, 7936
3, 266425, Pitch_bend_c, 1, 7936
3, 266444, Pitch_bend_c, 1, 8064
3, 266457, Pitch_bend_c, 1, 8064
3, 266476, Pitch_bend_c, 1, 8192
3, 266496, Note_off_c, 1, 72, 80
3, 266496, Pitch_bend_c, 1, 8192
3, 266496, Note_on_c, 1, 72, 79
3, 266496, Note_on_c, 1, 70, 79
3, 266547, Pitch_bend_c, 1, 8192
3, 266592, Pitch_bend_c, 1, 8192
3, 266624, Note_off_c, 1, 72, 80
3, 266636, Pitch_bend_c, 1, 8192
3, 266688, Pitch_bend_c, 1, 8192
3, 266739, Pitch_bend_c, 1, 8192
3, 266784, Pitch_bend_c, 1, 8192
3, 266828, Pitch_bend_c, 1, 8192
3, 266880, Pitch_bend_c, 1, 8192
3, 266931, Pitch_bend_c, 1, 8192
3, 266976, Pitch_bend_c, 1, 8192
3, 267020, Pitch_bend_c, 1, 8192
3, 267072, Pitch_bend_c, 1, 8192
3, 267123, Pitch_bend_c, 1, 8192
3, 267168, Pitch_bend_c, 1, 8192
3, 267212, Pitch_bend_c, 1, 8192
3, 267264, Pitch_bend_c, 1, 9600
3, 268032, Pitch_bend_c, 1, 9600
3, 268646, Pitch_bend_c, 1, 9344
3, 268748, Pitch_bend_c, 1, 8832
3, 268851, Pitch_bend_c, 1, 8448
3, 268953, Pitch_bend_c, 1, 8320
3, 269056, Pitch_bend_c, 1, 8192
3, 269568, Note_off_c, 1, 70, 80
3, 269568, Pitch_bend_c, 1, 8192
3, 269568, Note_on_c, 1, 69, 79
3, 270336, Note_off_c, 1, 69, 80
3, 270336, Note_on_c, 1, 70, 79
3, 270720, Note_off_c, 1, 70, 80
3, 271104, Note_on_c, 1, 69, 79
3, 271104, Pitch_bend_c, 1, 8192
3, 271206, Pitch_bend_c, 1, 8704
3, 271308, Pitch_bend_c, 1, 8832
3, 271872, Pitch_bend_c, 1, 8832
3, 271891, Pitch_bend_c, 1, 8832
3, 271910, Pitch_bend_c, 1, 8832
3, 271923, Pitch_bend_c, 1, 8832
3, 271942, Pitch_bend_c, 1, 8832
3, 271961, Pitch_bend_c, 1, 8832
3, 271980, Pitch_bend_c, 1, 8832
3, 272000, Pitch_bend_c, 1, 8832
3, 272012, Pitch_bend_c, 1, 8832
3, 272032, Pitch_bend_c, 1, 8832
3, 272051, Pitch_bend_c, 1, 8832
3, 272070, Pitch_bend_c, 1, 8832
3, 272089, Pitch_bend_c, 1, 8832
3, 272108, Pitch_bend_c, 1, 8832
3, 272121, Pitch_bend_c, 1, 8832
3, 272140, Pitch_bend_c, 1, 8832
3, 272160, Pitch_bend_c, 1, 8832
3, 272179, Pitch_bend_c, 1, 8832
3, 272198, Pitch_bend_c, 1, 8832
3, 272211, Pitch_bend_c, 1, 8832
3, 272230, Pitch_bend_c, 1, 8832
3, 272249, Pitch_bend_c, 1, 8832
3, 272268, Pitch_bend_c, 1, 8832
3, 272288, Pitch_bend_c, 1, 8832
3, 272307, Pitch_bend_c, 1, 8832
3, 272320, Pitch_bend_c, 1, 8832
3, 272339, Pitch_bend_c, 1, 8832
3, 272358, Pitch_bend_c, 1, 8832
3, 272377, Pitch_bend_c, 1, 8832
3, 272396, Pitch_bend_c, 1, 8832
3, 272409, Pitch_bend_c, 1, 8832
3, 272428, Pitch_bend_c, 1, 8832
3, 272448, Pitch_bend_c, 1, 8832
3, 272467, Pitch_bend_c, 1, 8832
3, 272486, Pitch_bend_c, 1, 8960
3, 272499, Pitch_bend_c, 1, 8960
3, 272518, Pitch_bend_c, 1, 8960
3, 272537, Pitch_bend_c, 1, 9088
3, 272556, Pitch_bend_c, 1, 9088
3, 272576, Pitch_bend_c, 1, 9088
3, 272588, Pitch_bend_c, 1, 9088
3, 272608, Pitch_bend_c, 1, 9088
3, 272627, Pitch_bend_c, 1, 9088
3, 272646, Pitch_bend_c, 1, 9088
3, 272665, Pitch_bend_c, 1, 8960
3, 272684, Pitch_bend_c, 1, 8960
3, 272697, Pitch_bend_c, 1, 8960
3, 272716, Pitch_bend_c, 1, 8832
3, 272736, Pitch_bend_c, 1, 8832
3, 272755, Pitch_bend_c, 1, 8832
3, 272774, Pitch_bend_c, 1, 8704
3, 272787, Pitch_bend_c, 1, 8704
3, 272806, Pitch_bend_c, 1, 8704
3, 272825, Pitch_bend_c, 1, 8576
3, 272844, Pitch_bend_c, 1, 8576
3, 272864, Pitch_bend_c, 1, 8576
3, 272883, Pitch_bend_c, 1, 8576
3, 272896, Pitch_bend_c, 1, 8576
3, 272915, Pitch_bend_c, 1, 8576
3, 272934, Pitch_bend_c, 1, 8576
3, 272953, Pitch_bend_c, 1, 8704
3, 272972, Pitch_bend_c, 1, 8704
3, 272985, Pitch_bend_c, 1, 8704
3, 273004, Pitch_bend_c, 1, 8832
3, 273024, Pitch_bend_c, 1, 8832
3, 273043, Pitch_bend_c, 1, 8832
3, 273062, Pitch_bend_c, 1, 8960
3, 273075, Pitch_bend_c, 1, 8960
3, 273094, Pitch_bend_c, 1, 8960
3, 273113, Pitch_bend_c, 1, 9088
3, 273132, Pitch_bend_c, 1, 9088
3, 273152, Pitch_bend_c, 1, 9088
3, 273164, Pitch_bend_c, 1, 9088
3, 273184, Pitch_bend_c, 1, 9088
3, 273203, Pitch_bend_c, 1, 9088
3, 273222, Pitch_bend_c, 1, 9088
3, 273241, Pitch_bend_c, 1, 8960
3, 273260, Pitch_bend_c, 1, 8960
3, 273273, Pitch_bend_c, 1, 8960
3, 273292, Pitch_bend_c, 1, 8832
3, 273312, Pitch_bend_c, 1, 8832
3, 273331, Pitch_bend_c, 1, 8832
3, 273350, Pitch_bend_c, 1, 8704
3, 273363, Pitch_bend_c, 1, 8704
3, 273382, Pitch_bend_c, 1, 8704
3, 273401, Pitch_bend_c, 1, 8576
3, 273408, Pitch_bend_c, 1, 8832
3, 273427, Pitch_bend_c, 1, 8832
3, 273446, Pitch_bend_c, 1, 8832
3, 273459, Pitch_bend_c, 1, 8832
3, 273478, Pitch_bend_c, 1, 8832
3, 273497, Pitch_bend_c, 1, 8832
3, 273516, Pitch_bend_c, 1, 8832
3, 273536, Pitch_bend_c, 1, 8832
3, 273548, Pitch_bend_c, 1, 8832
3, 273568, Pitch_bend_c, 1, 8832
3, 273587, Pitch_bend_c, 1, 8832
3, 273606, Pitch_bend_c, 1, 8832
3, 273625, Pitch_bend_c, 1, 8832
3, 273644, Pitch_bend_c, 1, 8832
3, 273657, Pitch_bend_c, 1, 8832
3, 273676, Pitch_bend_c, 1, 8832
3, 273696, Pitch_bend_c, 1, 8832
3, 273715, Pitch_bend_c, 1, 8832
3, 273734, Pitch_bend_c, 1, 8832
3, 273747, Pitch_bend_c, 1, 8832
3, 273766, Pitch_bend_c, 1, 8832
3, 273785, Pitch_bend_c, 1, 8832
3, 273804, Pitch_bend_c, 1, 8832
3, 273824, Pitch_bend_c, 1, 8832
3, 273843, Pitch_bend_c, 1, 8832
3, 273856, Pitch_bend_c, 1, 8832
3, 273875, Pitch_bend_c, 1, 8832
3, 273894, Pitch_bend_c, 1, 8832
3, 273913, Pitch_bend_c, 1, 8832
3, 273932, Pitch_bend_c, 1, 8832
3, 273945, Pitch_bend_c, 1, 8832
3, 273964, Pitch_bend_c, 1, 8832
3, 273984, Pitch_bend_c, 1, 8832
3, 274003, Pitch_bend_c, 1, 8832
3, 274022, Pitch_bend_c, 1, 8960
3, 274035, Pitch_bend_c, 1, 8960
3, 274054, Pitch_bend_c, 1, 8960
3, 274073, Pitch_bend_c, 1, 8960
3, 274092, Pitch_bend_c, 1, 8960
3, 274112, Pitch_bend_c, 1, 9088
3, 274124, Pitch_bend_c, 1, 9088
3, 274144, Pitch_bend_c, 1, 9088
3, 274163, Pitch_bend_c, 1, 8960
3, 274176, Pitch_bend_c, 1, 8832
3, 274790, Pitch_bend_c, 1, 8704
3, 274892, Pitch_bend_c, 1, 8576
3, 274995, Pitch_bend_c, 1, 8320
3, 275097, Pitch_bend_c, 1, 8192
3, 275712, Note_off_c, 1, 69, 80
3, 275712, Pitch_bend_c, 1, 8192
3, 275712, Note_on_c, 1, 69, 79
3, 276096, Note_off_c, 1, 69, 80
3, 276096, Note_on_c, 1, 70, 63
3, 276480, Note_off_c, 1, 70, 80
3, 276480, Note_on_c, 1, 74, 79
3, 276864, Note_off_c, 1, 74, 80
3, 276864, Note_on_c, 1, 77, 79
3, 277248, Note_off_c, 1, 77, 80
3, 277248, Note_on_c, 1, 74, 63
3, 277632, Note_off_c, 1, 74, 80
3, 277632, Note_on_c, 1, 70, 79
3, 278016, Note_off_c, 1, 70, 80
3, 278016, Note_on_c, 1, 69, 63
3, 278400, Note_off_c, 1, 69, 80
3, 278400, Note_on_c, 1, 67, 79
3, 278745, Pitch_bend_c, 1, 7552
3, 278784, Pitch_bend_c, 1, 6784
3, 279168, Note_off_c, 1, 67, 80
3, 279168, Pitch_bend_c, 1, 8192
3, 279168, Note_on_c, 1, 62, 79
3, 279552, Note_off_c, 1, 62, 80
3, 279552, Note_on_c, 1, 58, 79
3, 279936, Note_off_c, 1, 58, 80
3, 279936, Note_on_c, 1, 57, 79
3, 280320, Note_off_c, 1, 57, 80
3, 280320, Note_on_c, 1, 58, 63
3, 280704, Note_off_c, 1, 58, 80
3, 280704, Note_on_c, 1, 62, 79
3, 281088, Note_off_c, 1, 62, 80
3, 281088, Note_on_c, 1, 65, 79
3, 281395, Pitch_bend_c, 1, 8832
3, 281420, Pitch_bend_c, 1, 9600
3, 281446, Pitch_bend_c, 1, 10240
3, 281472, Pitch_bend_c, 1, 10880
3, 281856, Note_off_c, 1, 65, 80
3, 281856, Pitch_bend_c, 1, 8192
3, 281856, Note_on_c, 1, 65, 79
3, 282240, Note_off_c, 1, 65, 80
3, 282240, Note_on_c, 1, 62, 79
3, 282624, Note_off_c, 1, 62, 80
3, 282624, Note_on_c, 1, 60, 79
3, 284812, Pitch_bend_c, 1, 7552
3, 284870, Pitch_bend_c, 1, 6784
3, 284928, Pitch_bend_c, 1, 6144
3, 285696, Note_off_c, 1, 60, 80
3, 285696, Pitch_bend_c, 1, 8192
3, 285696, Note_on_c, 1, 57, 79
3, 285715, Pitch_bend_c, 1, 8192
3, 285734, Pitch_bend_c, 1, 8192
3, 285747, Pitch_bend_c, 1, 8192
3, 285766, Pitch_bend_c, 1, 8192
3, 285785, Pitch_bend_c, 1, 8192
3, 285804, Pitch_bend_c, 1, 8192
3, 285824, Pitch_bend_c, 1, 8192
3, 285836, Pitch_bend_c, 1, 8192
3, 285856, Pitch_bend_c, 1, 8192
3, 285875, Pitch_bend_c, 1, 8192
3, 285894, Pitch_bend_c, 1, 8192
3, 285913, Pitch_bend_c, 1, 8192
3, 285932, Pitch_bend_c, 1, 8192
3, 285945, Pitch_bend_c, 1, 8192
3, 285964, Pitch_bend_c, 1, 8192
3, 285984, Pitch_bend_c, 1, 8192
3, 286003, Pitch_bend_c, 1, 8192
3, 286022, Pitch_bend_c, 1, 8192
3, 286035, Pitch_bend_c, 1, 8192
3, 286054, Pitch_bend_c, 1, 8192
3, 286073, Pitch_bend_c, 1, 8192
3, 286092, Pitch_bend_c, 1, 8192
3, 286112, Pitch_bend_c, 1, 8192
3, 286131, Pitch_bend_c, 1, 8192
3, 286144, Pitch_bend_c, 1, 8192
3, 286163, Pitch_bend_c, 1, 8192
3, 286182, Pitch_bend_c, 1, 8192
3, 286201, Pitch_bend_c, 1, 8192
3, 286220, Pitch_bend_c, 1, 8192
3, 286233, Pitch_bend_c, 1, 8192
3, 286252, Pitch_bend_c, 1, 8192
3, 286272, Pitch_bend_c, 1, 8192
3, 286291, Pitch_bend_c, 1, 8192
3, 286310, Pitch_bend_c, 1, 8320
3, 286323, Pitch_bend_c, 1, 8320
3, 286342, Pitch_bend_c, 1, 8320
3, 286361, Pitch_bend_c, 1, 8320
3, 286380, Pitch_bend_c, 1, 8320
3, 286400, Pitch_bend_c, 1, 8448
3, 286412, Pitch_bend_c, 1, 8448
3, 286432, Pitch_bend_c, 1, 8448
3, 286451, Pitch_bend_c, 1, 8320
3, 286470, Pitch_bend_c, 1, 8320
3, 286489, Pitch_bend_c, 1, 8320
3, 286508, Pitch_bend_c, 1, 8320
3, 286521, Pitch_bend_c, 1, 8320
3, 286540, Pitch_bend_c, 1, 8192
3, 286560, Pitch_bend_c, 1, 8192
3, 286579, Pitch_bend_c, 1, 8192
3, 286598, Pitch_bend_c, 1, 8064
3, 286611, Pitch_bend_c, 1, 8064
3, 286630, Pitch_bend_c, 1, 8064
3, 286649, Pitch_bend_c, 1, 8064
3, 286668, Pitch_bend_c, 1, 8064
3, 286688, Pitch_bend_c, 1, 7936
3, 286707, Pitch_bend_c, 1, 7936
3, 286720, Pitch_bend_c, 1, 7936
3, 286739, Pitch_bend_c, 1, 8064
3, 286758, Pitch_bend_c, 1, 8064
3, 286777, Pitch_bend_c, 1, 8064
3, 286796, Pitch_bend_c, 1, 8064
3, 286809, Pitch_bend_c, 1, 8064
3, 286828, Pitch_bend_c, 1, 8192
3, 286848, Pitch_bend_c, 1, 8192
3, 286867, Pitch_bend_c, 1, 8192
3, 286886, Pitch_bend_c, 1, 8320
3, 286899, Pitch_bend_c, 1, 8320
3, 286918, Pitch_bend_c, 1, 8320
3, 286937, Pitch_bend_c, 1, 8320
3, 286956, Pitch_bend_c, 1, 8320
3, 286976, Pitch_bend_c, 1, 8320
3, 286988, Pitch_bend_c, 1, 8320
3, 287008, Pitch_bend_c, 1, 8320
3, 287027, Pitch_bend_c, 1, 8320
3, 287046, Pitch_bend_c, 1, 8320
3, 287065, Pitch_bend_c, 1, 8320
3, 287084, Pitch_bend_c, 1, 8320
3, 287097, Pitch_bend_c, 1, 8320
3, 287116, Pitch_bend_c, 1, 8192
3, 287136, Pitch_bend_c, 1, 8192
3, 287155, Pitch_bend_c, 1, 8192
3, 287174, Pitch_bend_c, 1, 8064
3, 287187, Pitch_bend_c, 1, 8064
3, 287206, Pitch_bend_c, 1, 8064
3, 287225, Pitch_bend_c, 1, 8064
3, 287244, Pitch_bend_c, 1, 8064
3, 287264, Pitch_bend_c, 1, 8064
3, 287283, Pitch_bend_c, 1, 8064
3, 287296, Pitch_bend_c, 1, 8064
3, 287315, Pitch_bend_c, 1, 8064
3, 287334, Pitch_bend_c, 1, 8064
3, 287353, Pitch_bend_c, 1, 8064
3, 287372, Pitch_bend_c, 1, 8064
3, 287385, Pitch_bend_c, 1, 8064
3, 287404, Pitch_bend_c, 1, 8192
3, 287424, Pitch_bend_c, 1, 8192
3, 287443, Pitch_bend_c, 1, 8192
3, 287462, Pitch_bend_c, 1, 8320
3, 287475, Pitch_bend_c, 1, 8320
3, 287494, Pitch_bend_c, 1, 8320
3, 287513, Pitch_bend_c, 1, 8320
3, 287532, Pitch_bend_c, 1, 8320
3, 287552, Pitch_bend_c, 1, 8448
3, 287564, Pitch_bend_c, 1, 8448
3, 287584, Pitch_bend_c, 1, 8448
3, 287603, Pitch_bend_c, 1, 8320
3, 287622, Pitch_bend_c, 1, 8320
3, 287641, Pitch_bend_c, 1, 8320
3, 287660, Pitch_bend_c, 1, 8320
3, 287673, Pitch_bend_c, 1, 8320
3, 287692, Pitch_bend_c, 1, 8192
3, 287712, Pitch_bend_c, 1, 8192
3, 287731, Pitch_bend_c, 1, 8192
3, 287750, Pitch_bend_c, 1, 8064
3, 287763, Pitch_bend_c, 1, 8064
3, 287782, Pitch_bend_c, 1, 8064
3, 287801, Pitch_bend_c, 1, 8064
3, 287820, Pitch_bend_c, 1, 8064
3, 287840, Pitch_bend_c, 1, 7936
3, 287859, Pitch_bend_c, 1, 7936
3, 287872, Pitch_bend_c, 1, 7936
3, 287891, Pitch_bend_c, 1, 8064
3, 287910, Pitch_bend_c, 1, 8064
3, 287929, Pitch_bend_c, 1, 8064
3, 287948, Pitch_bend_c, 1, 8064
3, 287961, Pitch_bend_c, 1, 8064
3, 287980, Pitch_bend_c, 1, 8192
3, 288000, Pitch_bend_c, 1, 8192
3, 288019, Pitch_bend_c, 1, 8192
3, 288038, Pitch_bend_c, 1, 8320
3, 288051, Pitch_bend_c, 1, 8320
3, 288070, Pitch_bend_c, 1, 8320
3, 288089, Pitch_bend_c, 1, 8320
3, 288108, Pitch_bend_c, 1, 8320
3, 288128, Pitch_bend_c, 1, 8320
3, 288140, Pitch_bend_c, 1, 8320
3, 288160, Pitch_bend_c, 1, 8320
3, 288179, Pitch_bend_c, 1, 8320
3, 288198, Pitch_bend_c, 1, 8320
3, 288217, Pitch_bend_c, 1, 8320
3, 288236, Pitch_bend_c, 1, 8320
3, 288249, Pitch_bend_c, 1, 8320
3, 288268, Pitch_bend_c, 1, 8192
3, 288288, Pitch_bend_c, 1, 8192
3, 288307, Pitch_bend_c, 1, 8192
3, 288326, Pitch_bend_c, 1, 8064
3, 288339, Pitch_bend_c, 1, 8064
3, 288358, Pitch_bend_c, 1, 8064
3, 288377, Pitch_bend_c, 1, 8064
3, 288396, Pitch_bend_c, 1, 8064
3, 288416, Pitch_bend_c, 1, 8064
3, 288435, Pitch_bend_c, 1, 8064
3, 288448, Pitch_bend_c, 1, 8064
3, 288467, Pitch_bend_c, 1, 8064
3, 288486, Pitch_bend_c, 1, 8064
3, 288505, Pitch_bend_c, 1, 8064
3, 288524, Pitch_bend_c, 1, 8064
3, 288537, Pitch_bend_c, 1, 8064
3, 288556, Pitch_bend_c, 1, 8192
3, 288576, Pitch_bend_c, 1, 8192
3, 288595, Pitch_bend_c, 1, 8192
3, 288614, Pitch_bend_c, 1, 8320
3, 288627, Pitch_bend_c, 1, 8320
3, 288646, Pitch_bend_c, 1, 8320
3, 288665, Pitch_bend_c, 1, 8320
3, 288684, Pitch_bend_c, 1, 8320
3, 288704, Pitch_bend_c, 1, 8320
3, 288716, Pitch_bend_c, 1, 8320
3, 288736, Pitch_bend_c, 1, 8320
3, 288755, Pitch_bend_c, 1, 8320
3, 288768, Pitch_bend_c, 1, 8192
3, 289152, Pitch_bend_c, 1, 7552
3, 289318, Pitch_bend_c, 1, 6784
3, 289478, Pitch_bend_c, 1, 6144
3, 289644, Pitch_bend_c, 1, 5504
3, 289798, Note_on_c, 1, 52, 79
3, 289798, Pitch_bend_c, 1, 6144
3, 289811, Pitch_bend_c, 1, 4736
3, 289964, Pitch_bend_c, 1, 6784
3, 289977, Pitch_bend_c, 1, 4096
3, 290137, Pitch_bend_c, 1, 3456
3, 290304, Note_off_c, 1, 57, 80
3, 290304, Pitch_bend_c, 1, 8192
3, 290815, Note_off_c, 1, 52, 80
3, 290816, Note_on_c, 1, 57, 79
3, 291328, Note_off_c, 1, 57, 80
3, 291328, Note_on_c, 1, 58, 79
3, 291840, Note_off_c, 1, 58, 80
3, 291840, Note_on_c, 1, 62, 79
3, 292352, Note_off_c, 1, 62, 80
3, 292352, Note_on_c, 1, 63, 79
3, 292864, Note_off_c, 1, 63, 80
3, 292864, Note_on_c, 1, 65, 79
3, 293376, Note_off_c, 1, 65, 80
3, 293376, Note_on_c, 1, 69, 79
3, 293888, Note_off_c, 1, 69, 80
3, 293888, Note_on_c, 1, 70, 79
3, 294400, Note_off_c, 1, 70, 80
3, 294400, Note_on_c, 1, 74, 79
3, 294912, Note_off_c, 1, 74, 80
3, 294912, Note_on_c, 1, 75, 79
3, 294912, Pitch_bend_c, 1, 8192
3, 294931, Pitch_bend_c, 1, 8192
3, 294950, Pitch_bend_c, 1, 8192
3, 294963, Pitch_bend_c, 1, 8192
3, 294982, Pitch_bend_c, 1, 8192
3, 295001, Pitch_bend_c, 1, 8192
3, 295020, Pitch_bend_c, 1, 8192
3, 295040, Pitch_bend_c, 1, 8192
3, 295052, Pitch_bend_c, 1, 8192
3, 295072, Pitch_bend_c, 1, 8192
3, 295091, Pitch_bend_c, 1, 8192
3, 295110, Pitch_bend_c, 1, 8192
3, 295129, Pitch_bend_c, 1, 8192
3, 295148, Pitch_bend_c, 1, 8192
3, 295161, Pitch_bend_c, 1, 8192
3, 295180, Pitch_bend_c, 1, 8192
3, 295200, Pitch_bend_c, 1, 8192
3, 295219, Pitch_bend_c, 1, 8192
3, 295238, Pitch_bend_c, 1, 8192
3, 295251, Pitch_bend_c, 1, 8192
3, 295270, Pitch_bend_c, 1, 8192
3, 295289, Pitch_bend_c, 1, 8192
3, 295308, Pitch_bend_c, 1, 8192
3, 295328, Pitch_bend_c, 1, 8192
3, 295347, Pitch_bend_c, 1, 8192
3, 295360, Pitch_bend_c, 1, 8192
3, 295379, Pitch_bend_c, 1, 8192
3, 295398, Pitch_bend_c, 1, 8192
3, 295417, Pitch_bend_c, 1, 8192
3, 295436, Pitch_bend_c, 1, 8192
3, 295449, Pitch_bend_c, 1, 8192
3, 295468, Pitch_bend_c, 1, 8192
3, 295488, Pitch_bend_c, 1, 8192
3, 295507, Pitch_bend_c, 1, 8192
3, 295526, Pitch_bend_c, 1, 8320
3, 295539, Pitch_bend_c, 1, 8320
3, 295558, Pitch_bend_c, 1, 8320
3, 295577, Pitch_bend_c, 1, 8320
3, 295596, Pitch_bend_c, 1, 8320
3, 295616, Pitch_bend_c, 1, 8448
3, 295628, Pitch_bend_c, 1, 8448
3, 295648, Pitch_bend_c, 1, 8448
3, 295667, Pitch_bend_c, 1, 8320
3, 295686, Pitch_bend_c, 1, 8320
3, 295705, Pitch_bend_c, 1, 8320
3, 295724, Pitch_bend_c, 1, 8320
3, 295737, Pitch_bend_c, 1, 8320
3, 295756, Pitch_bend_c, 1, 8192
3, 295776, Pitch_bend_c, 1, 8192
3, 295795, Pitch_bend_c, 1, 8192
3, 295814, Pitch_bend_c, 1, 8064
3, 295827, Pitch_bend_c, 1, 8064
3, 295846, Pitch_bend_c, 1, 8064
3, 295865, Pitch_bend_c, 1, 8064
3, 295884, Pitch_bend_c, 1, 8064
3, 295904, Pitch_bend_c, 1, 7936
3, 295923, Pitch_bend_c, 1, 7936
3, 295936, Pitch_bend_c, 1, 7936
3, 295955, Pitch_bend_c, 1, 8064
3, 295974, Pitch_bend_c, 1, 8064
3, 295993, Pitch_bend_c, 1, 8064
3, 296012, Pitch_bend_c, 1, 8064
3, 296025, Pitch_bend_c, 1, 8064
3, 296044, Pitch_bend_c, 1, 8192
3, 296064, Pitch_bend_c, 1, 8192
3, 296083, Pitch_bend_c, 1, 8192
3, 296102, Pitch_bend_c, 1, 8320
3, 296115, Pitch_bend_c, 1, 8320
3, 296134, Pitch_bend_c, 1, 8320
3, 296153, Pitch_bend_c, 1, 8448
3, 296172, Pitch_bend_c, 1, 8448
3, 296192, Pitch_bend_c, 1, 8448
3, 296204, Pitch_bend_c, 1, 8448
3, 296224, Pitch_bend_c, 1, 8448
3, 296243, Pitch_bend_c, 1, 8448
3, 296262, Pitch_bend_c, 1, 8448
3, 296281, Pitch_bend_c, 1, 8320
3, 296300, Pitch_bend_c, 1, 8320
3, 296313, Pitch_bend_c, 1, 8320
3, 296332, Pitch_bend_c, 1, 8192
3, 296352, Pitch_bend_c, 1, 8192
3, 296371, Pitch_bend_c, 1, 8192
3, 296390, Pitch_bend_c, 1, 8064
3, 296403, Pitch_bend_c, 1, 8064
3, 296422, Pitch_bend_c, 1, 8064
3, 296441, Pitch_bend_c, 1, 7936
3, 296460, Pitch_bend_c, 1, 7936
3, 296480, Pitch_bend_c, 1, 7936
3, 296499, Pitch_bend_c, 1, 7936
3, 296512, Pitch_bend_c, 1, 7936
3, 296531, Pitch_bend_c, 1, 7936
3, 296550, Pitch_bend_c, 1, 7936
3, 296569, Pitch_bend_c, 1, 8064
3, 296588, Pitch_bend_c, 1, 8064
3, 296601, Pitch_bend_c, 1, 8064
3, 296620, Pitch_bend_c, 1, 8192
3, 296640, Pitch_bend_c, 1, 8192
3, 296659, Pitch_bend_c, 1, 8192
3, 296678, Pitch_bend_c, 1, 8320
3, 296691, Pitch_bend_c, 1, 8320
3, 296710, Pitch_bend_c, 1, 8448
3, 296729, Pitch_bend_c, 1, 8448
3, 296748, Pitch_bend_c, 1, 8448
3, 296768, Pitch_bend_c, 1, 8448
3, 296780, Pitch_bend_c, 1, 8448
3, 296800, Pitch_bend_c, 1, 8448
3, 296819, Pitch_bend_c, 1, 8448
3, 296838, Pitch_bend_c, 1, 8448
3, 296857, Pitch_bend_c, 1, 8448
3, 296876, Pitch_bend_c, 1, 8320
3, 296889, Pitch_bend_c, 1, 8320
3, 296908, Pitch_bend_c, 1, 8192
3, 296928, Pitch_bend_c, 1, 8192
3, 296947, Pitch_bend_c, 1, 8192
3, 296966, Pitch_bend_c, 1, 8064
3, 296979, Pitch_bend_c, 1, 8064
3, 296998, Pitch_bend_c, 1, 7936
3, 297017, Pitch_bend_c, 1, 7936
3, 297036, Pitch_bend_c, 1, 7936
3, 297056, Pitch_bend_c, 1, 7936
3, 297075, Pitch_bend_c, 1, 7936
3, 297088, Pitch_bend_c, 1, 7936
3, 297107, Pitch_bend_c, 1, 7936
3, 297126, Pitch_bend_c, 1, 7936
3, 297145, Pitch_bend_c, 1, 7936
3, 297164, Pitch_bend_c, 1, 8064
3, 297177, Pitch_bend_c, 1, 8064
3, 297196, Pitch_bend_c, 1, 8192
3, 297216, Note_off_c, 1, 75, 80
3, 297216, Pitch_bend_c, 1, 8192
3, 297216, Note_on_c, 1, 84, 79
3, 297600, Note_off_c, 1, 84, 80
3, 297600, Note_on_c, 1, 79, 63
3, 297984, Note_off_c, 1, 79, 80
3, 297984, Note_on_c, 1, 75, 79
3, 298368, Note_off_c, 1, 75, 80
3, 298368, Note_on_c, 1, 74, 79
3, 298752, Note_off_c, 1, 74, 80
3, 298752, Note_on_c, 1, 82, 79
3, 299136, Note_off_c, 1, 82, 80
3, 299136, Note_on_c, 1, 79, 63
3, 299520, Note_off_c, 1, 79, 80
3, 299520, Note_on_c, 1, 81, 79
3, 299904, Note_off_c, 1, 81, 80
3, 299904, Note_on_c, 1, 79, 63
3, 300288, Note_off_c, 1, 79, 80
3, 300288, Note_on_c, 1, 77, 79
3, 300672, Note_off_c, 1, 77, 80
3, 300672, Note_on_c, 1, 76, 79
3, 301056, Note_off_c, 1, 76, 80
3, 301056, Note_on_c, 1, 75, 79
3, 301440, Note_off_c, 1, 75, 80
3, 301440, Note_on_c, 1, 74, 79
3, 301824, Note_off_c, 1, 74, 80
3, 301824, Note_on_c, 1, 72, 79
3, 302208, Note_off_c, 1, 72, 80
3, 302208, Note_on_c, 1, 70, 79
3, 302592, Note_off_c, 1, 70, 80
3, 302592, Note_on_c, 1, 69, 79
3, 302809, Note_off_c, 1, 69, 80
3, 302809, Note_on_c, 1, 70, 63
3, 303033, Note_off_c, 1, 70, 80
3, 303033, Note_on_c, 1, 72, 63
3, 303251, Note_off_c, 1, 72, 80
3, 303251, Note_on_c, 1, 74, 79
3, 303468, Note_off_c, 1, 74, 80
3, 303468, Note_on_c, 1, 75, 63
3, 303685, Note_off_c, 1, 75, 80
3, 303686, Note_on_c, 1, 77, 63
3, 303910, Note_off_c, 1, 77, 80
3, 303910, Note_on_c, 1, 79, 79
3, 304127, Note_off_c, 1, 79, 80
3, 304128, Note_on_c, 1, 81, 79
3, 304281, Note_off_c, 1, 81, 80
3, 304281, Note_on_c, 1, 82, 63
3, 304434, Note_off_c, 1, 82, 80
3, 304435, Note_on_c, 1, 81, 63
3, 304588, Note_off_c, 1, 81, 80
3, 304588, Note_on_c, 1, 79, 63
3, 304741, Note_off_c, 1, 79, 80
3, 304742, Note_on_c, 1, 81, 63
3, 304895, Note_off_c, 1, 81, 80
3, 304896, Note_on_c, 1, 82, 79
3, 305049, Note_off_c, 1, 82, 80
3, 305049, Note_on_c, 1, 84, 63
3, 305202, Note_off_c, 1, 84, 80
3, 305203, Note_on_c, 1, 82, 63
3, 305356, Note_off_c, 1, 82, 80
3, 305356, Note_on_c, 1, 81, 63
3, 305509, Note_off_c, 1, 81, 80
3, 305510, Note_on_c, 1, 82, 63
3, 305663, Note_off_c, 1, 82, 80
3, 305664, Note_on_c, 1, 84, 79
3, 305817, Note_off_c, 1, 84, 80
3, 305817, Note_on_c, 1, 86, 63
3, 305970, Note_off_c, 1, 86, 80
3, 305971, Note_on_c, 1, 84, 63
3, 306124, Note_off_c, 1, 84, 80
3, 306124, Note_on_c, 1, 82, 63
3, 306277, Note_off_c, 1, 82, 80
3, 306278, Note_on_c, 1, 81, 63
3, 306431, Note_off_c, 1, 81, 80
3, 306432, Note_on_c, 1, 82, 79
3, 306624, Note_off_c, 1, 82, 80
3, 306624, Note_on_c, 1, 84, 63
3, 306816, Note_off_c, 1, 84, 80
3, 306816, Note_on_c, 1, 82, 63
3, 307008, Note_off_c, 1, 82, 80
3, 307008, Note_on_c, 1, 81, 63
3, 307200, Note_off_c, 1, 81, 80
3, 307200, Note_on_c, 1, 86, 79
3, 308736, Note_off_c, 1, 86, 80
3, 308736, Note_on_c, 1, 81, 79
3, 309120, Note_off_c, 1, 81, 80
3, 309120, Note_on_c, 1, 86, 79
3, 309504, Note_off_c, 1, 86, 80
3, 309504, Note_on_c, 1, 81, 79
3, 309888, Note_off_c, 1, 81, 80
3, 309888, Note_on_c, 1, 77, 79
3, 310272, Note_off_c, 1, 77, 80
3, 310272, Note_on_c, 1, 74, 79
3, 310656, Note_off_c, 1, 74, 80
3, 310656, Note_on_c, 1, 72, 79
3, 310905, Pitch_bend_c, 1, 7552
3, 310924, Pitch_bend_c, 1, 6784
3, 310950, Pitch_bend_c, 1, 6144
3, 310976, Pitch_bend_c, 1, 5504
3, 310995, Pitch_bend_c, 1, 4736
3, 311014, Pitch_bend_c, 1, 4096
3, 311040, Pitch_bend_c, 1, 3712
3, 311552, Note_on_c, 1, 72, 79
3, 311552, Pitch_bend_c, 1, 6144
3, 311641, Pitch_bend_c, 1, 6784
3, 311724, Pitch_bend_c, 1, 7552
3, 311808, Note_off_c, 1, 72, 80
3, 311808, Note_off_c, 1, 72, 80
3, 311808, Pitch_bend_c, 1, 8192
3, 311820, Pitch_bend_c, 1, 8192
3, 311827, Pitch_bend_c, 1, 8192
3, 311840, Pitch_bend_c, 1, 8192
3, 311846, Pitch_bend_c, 1, 8192
3, 311859, Pitch_bend_c, 1, 8192
3, 311865, Pitch_bend_c, 1, 8192
3, 311878, Pitch_bend_c, 1, 8192
3, 311884, Pitch_bend_c, 1, 8192
3, 311897, Pitch_bend_c, 1, 8192
3, 311910, Pitch_bend_c, 1, 8192
3, 311916, Pitch_bend_c, 1, 8192
3, 311929, Pitch_bend_c, 1, 8192
3, 311936, Pitch_bend_c, 1, 8192
3, 311948, Pitch_bend_c, 1, 8192
3, 311955, Pitch_bend_c, 1, 8192
3, 311968, Pitch_bend_c, 1, 8192
3, 311980, Pitch_bend_c, 1, 8192
3, 311987, Pitch_bend_c, 1, 8192
3, 312000, Pitch_bend_c, 1, 8192
3, 312006, Pitch_bend_c, 1, 8192
3, 312019, Pitch_bend_c, 1, 8192
3, 312025, Pitch_bend_c, 1, 8192
3, 312038, Pitch_bend_c, 1, 8192
3, 312051, Pitch_bend_c, 1, 8192
3, 312057, Pitch_bend_c, 1, 8192
3, 312070, Pitch_bend_c, 1, 8192
3, 312076, Pitch_bend_c, 1, 8192
3, 312089, Pitch_bend_c, 1, 8192
3, 312096, Pitch_bend_c, 1, 8192
3, 312108, Pitch_bend_c, 1, 8192
3, 312115, Pitch_bend_c, 1, 8192
3, 312128, Pitch_bend_c, 1, 8192
3, 312140, Pitch_bend_c, 1, 8320
3, 312147, Pitch_bend_c, 1, 8448
3, 312160, Pitch_bend_c, 1, 8576
3, 312166, Pitch_bend_c, 1, 8576
3, 312179, Pitch_bend_c, 1, 8704
3, 312185, Pitch_bend_c, 1, 8704
3, 312198, Pitch_bend_c, 1, 8704
3, 312204, Pitch_bend_c, 1, 8704
3, 312217, Pitch_bend_c, 1, 8704
3, 312230, Pitch_bend_c, 1, 8704
3, 312236, Pitch_bend_c, 1, 8704
3, 312249, Pitch_bend_c, 1, 8576
3, 312256, Pitch_bend_c, 1, 8576
3, 312268, Pitch_bend_c, 1, 8448
3, 312275, Pitch_bend_c, 1, 8320
3, 312288, Pitch_bend_c, 1, 8192
3, 312300, Pitch_bend_c, 1, 8064
3, 312307, Pitch_bend_c, 1, 7936
3, 312320, Pitch_bend_c, 1, 7808
3, 312326, Pitch_bend_c, 1, 7808
3, 312339, Pitch_bend_c, 1, 7680
3, 312345, Pitch_bend_c, 1, 7680
3, 312358, Pitch_bend_c, 1, 7680
3, 312371, Pitch_bend_c, 1, 7680
3, 312377, Pitch_bend_c, 1, 7680
3, 312390, Pitch_bend_c, 1, 7680
3, 312396, Pitch_bend_c, 1, 7680
3, 312409, Pitch_bend_c, 1, 7808
3, 312416, Pitch_bend_c, 1, 7808
3, 312428, Pitch_bend_c, 1, 7936
3, 312435, Pitch_bend_c, 1, 8064
3, 312448, Pitch_bend_c, 1, 8192
3, 312460, Pitch_bend_c, 1, 8320
3, 312467, Pitch_bend_c, 1, 8320
3, 312480, Pitch_bend_c, 1, 8448
3, 312486, Pitch_bend_c, 1, 8576
3, 312499, Pitch_bend_c, 1, 8576
3, 312505, Pitch_bend_c, 1, 8576
3, 312518, Pitch_bend_c, 1, 8704
3, 312524, Pitch_bend_c, 1, 8704
3, 312537, Pitch_bend_c, 1, 8704
3, 312550, Pitch_bend_c, 1, 8576
3, 312556, Pitch_bend_c, 1, 8576
3, 312569, Pitch_bend_c, 1, 8576
3, 312576, Pitch_bend_c, 1, 8448
3, 312588, Pitch_bend_c, 1, 8320
3, 312595, Pitch_bend_c, 1, 8320
3, 312608, Pitch_bend_c, 1, 8192
3, 312620, Pitch_bend_c, 1, 8064
3, 312627, Pitch_bend_c, 1, 8064
3, 312640, Pitch_bend_c, 1, 7936
3, 312646, Pitch_bend_c, 1, 7808
3, 312659, Pitch_bend_c, 1, 7808
3, 312665, Pitch_bend_c, 1, 7808
3, 312678, Pitch_bend_c, 1, 7680
3, 312691, Pitch_bend_c, 1, 7680
3, 312697, Pitch_bend_c, 1, 7680
3, 312710, Pitch_bend_c, 1, 7808
3, 312716, Pitch_bend_c, 1, 7808
3, 312729, Pitch_bend_c, 1, 7808
3, 312736, Pitch_bend_c, 1, 7936
3, 312748, Pitch_bend_c, 1, 8064
3, 312755, Pitch_bend_c, 1, 8064
3, 312768, Pitch_bend_c, 1, 8192
3, 312780, Pitch_bend_c, 1, 8320
3, 312787, Pitch_bend_c, 1, 8320
3, 312800, Pitch_bend_c, 1, 8448
3, 312806, Pitch_bend_c, 1, 8576
3, 312819, Pitch_bend_c, 1, 8576
3, 312825, Pitch_bend_c, 1, 8704
3, 312838, Pitch_bend_c, 1, 8704
3, 312844, Pitch_bend_c, 1, 8704
3, 312857, Pitch_bend_c, 1, 8704
3, 312870, Pitch_bend_c, 1, 8704
3, 312876, Pitch_bend_c, 1, 8576
3, 312889, Pitch_bend_c, 1, 8576
3, 312896, Pitch_bend_c, 1, 8448
3, 312908, Pitch_bend_c, 1, 8320
3, 312915, Pitch_bend_c, 1, 8320
3, 312928, Pitch_bend_c, 1, 8192
3, 312940, Pitch_bend_c, 1, 8064
3, 312947, Pitch_bend_c, 1, 8064
3, 312960, Pitch_bend_c, 1, 7936
3, 312966, Pitch_bend_c, 1, 7808
3, 312979, Pitch_bend_c, 1, 7808
3, 312985, Pitch_bend_c, 1, 7680
3, 312998, Pitch_bend_c, 1, 7680
3, 313011, Pitch_bend_c, 1, 7680
3, 313017, Pitch_bend_c, 1, 7680
3, 313030, Pitch_bend_c, 1, 7680
3, 313036, Pitch_bend_c, 1, 7808
3, 313049, Pitch_bend_c, 1, 7808
3, 313056, Pitch_bend_c, 1, 7936
3, 313068, Pitch_bend_c, 1, 8064
3, 313075, Pitch_bend_c, 1, 8064
3, 313088, Pitch_bend_c, 1, 8192
3, 313100, Pitch_bend_c, 1, 8320
3, 313107, Pitch_bend_c, 1, 8448
3, 313120, Pitch_bend_c, 1, 8576
3, 313126, Pitch_bend_c, 1, 8576
3, 313139, Pitch_bend_c, 1, 8704
3, 313145, Pitch_bend_c, 1, 8704
3, 313158, Pitch_bend_c, 1, 8704
3, 313164, Pitch_bend_c, 1, 8704
3, 313177, Pitch_bend_c, 1, 8704
3, 313190, Pitch_bend_c, 1, 8704
3, 313196, Pitch_bend_c, 1, 8704
3, 313209, Pitch_bend_c, 1, 8576
3, 313216, Pitch_bend_c, 1, 8576
3, 313228, Pitch_bend_c, 1, 8448
3, 313235, Pitch_bend_c, 1, 8320
3, 313248, Pitch_bend_c, 1, 8192
3, 313260, Pitch_bend_c, 1, 8064
3, 313267, Pitch_bend_c, 1, 7936
3, 313280, Pitch_bend_c, 1, 7808
3, 313286, Pitch_bend_c, 1, 7808
3, 313299, Pitch_bend_c, 1, 7680
3, 313305, Pitch_bend_c, 1, 7680
3, 313318, Pitch_bend_c, 1, 7680
3, 313331, Pitch_bend_c, 1, 7680
3, 313337, Pitch_bend_c, 1, 7680
3, 313344, Pitch_bend_c, 1, 8192
3, 313344, Note_on_c, 1, 65, 79
3, 313728, Note_off_c, 1, 65, 80
3, 313728, Note_on_c, 1, 69, 79
3, 314112, Note_off_c, 1, 69, 80
3, 314112, Note_on_c, 1, 65, 63
3, 314496, Note_off_c, 1, 65, 80
3, 314496, Note_on_c, 1, 62, 79
3, 314880, Note_off_c, 1, 62, 80
3, 314880, Note_on_c, 1, 60, 79
3, 315264, Note_off_c, 1, 60, 80
3, 315264, Note_on_c, 1, 57, 79
3, 315648, Note_off_c, 1, 57, 80
3, 315648, Note_on_c, 1, 55, 79
3, 316032, Note_off_c, 1, 55, 80
3, 316032, Note_on_c, 1, 53, 79
3, 316416, Note_off_c, 1, 53, 80
3, 316416, Note_on_c, 1, 50, 79
3, 317184, Note_off_c, 1, 50, 80
3, 317184, Note_on_c, 1, 65, 79
3, 317952, Note_off_c, 1, 65, 80
3, 317952, Note_on_c, 1, 72, 79
3, 318335, Note_off_c, 1, 72, 80
3, 318336, Note_on_c, 1, 70, 63
3, 318720, Note_off_c, 1, 70, 80
3, 318720, Note_on_c, 1, 67, 79
3, 318720, Note_on_c, 1, 62, 79
3, 319104, Note_off_c, 1, 62, 80
3, 319104, Note_off_c, 1, 67, 80
3, 319104, Note_on_c, 1, 65, 79
3, 319488, Note_off_c, 1, 65, 80
3, 319488, Pitch_bend_c, 1, 8192
3, 319488, Note_on_c, 1, 67, 79
3, 319500, Pitch_bend_c, 1, 8192
3, 319507, Pitch_bend_c, 1, 8192
3, 319520, Pitch_bend_c, 1, 8192
3, 319526, Pitch_bend_c, 1, 8192
3, 319539, Pitch_bend_c, 1, 8192
3, 319545, Pitch_bend_c, 1, 8192
3, 319558, Pitch_bend_c, 1, 8192
3, 319564, Pitch_bend_c, 1, 8192
3, 319577, Pitch_bend_c, 1, 8192
3, 319590, Pitch_bend_c, 1, 8192
3, 319596, Pitch_bend_c, 1, 8192
3, 319609, Pitch_bend_c, 1, 8192
3, 319616, Pitch_bend_c, 1, 8192
3, 319628, Pitch_bend_c, 1, 8192
3, 319635, Pitch_bend_c, 1, 8192
3, 319648, Pitch_bend_c, 1, 8192
3, 319660, Pitch_bend_c, 1, 8192
3, 319667, Pitch_bend_c, 1, 8192
3, 319680, Pitch_bend_c, 1, 8192
3, 319686, Pitch_bend_c, 1, 8192
3, 319699, Pitch_bend_c, 1, 8192
3, 319705, Pitch_bend_c, 1, 8192
3, 319718, Pitch_bend_c, 1, 8192
3, 319731, Pitch_bend_c, 1, 8192
3, 319737, Pitch_bend_c, 1, 8192
3, 319750, Pitch_bend_c, 1, 8192
3, 319756, Pitch_bend_c, 1, 8192
3, 319769, Pitch_bend_c, 1, 8192
3, 319776, Pitch_bend_c, 1, 8192
3, 319788, Pitch_bend_c, 1, 8192
3, 319795, Pitch_bend_c, 1, 8192
3, 319808, Pitch_bend_c, 1, 8192
3, 319820, Pitch_bend_c, 1, 8320
3, 319827, Pitch_bend_c, 1, 8320
3, 319840, Pitch_bend_c, 1, 8448
3, 319846, Pitch_bend_c, 1, 8576
3, 319859, Pitch_bend_c, 1, 8576
3, 319865, Pitch_bend_c, 1, 8704
3, 319878, Pitch_bend_c, 1, 8704
3, 319884, Pitch_bend_c, 1, 8704
3, 319897, Pitch_bend_c, 1, 8704
3, 319910, Pitch_bend_c, 1, 8704
3, 319916, Pitch_bend_c, 1, 8576
3, 319929, Pitch_bend_c, 1, 8576
3, 319936, Pitch_bend_c, 1, 8448
3, 319948, Pitch_bend_c, 1, 8320
3, 319955, Pitch_bend_c, 1, 8320
3, 319968, Pitch_bend_c, 1, 8192
3, 319980, Pitch_bend_c, 1, 8064
3, 319987, Pitch_bend_c, 1, 8064
3, 320000, Pitch_bend_c, 1, 7936
3, 320006, Pitch_bend_c, 1, 7808
3, 320019, Pitch_bend_c, 1, 7808
3, 320025, Pitch_bend_c, 1, 7680
3, 320038, Pitch_bend_c, 1, 7680
3, 320051, Pitch_bend_c, 1, 7680
3, 320057, Pitch_bend_c, 1, 7680
3, 320070, Pitch_bend_c, 1, 7680
3, 320076, Pitch_bend_c, 1, 7808
3, 320089, Pitch_bend_c, 1, 7808
3, 320096, Pitch_bend_c, 1, 7936
3, 320108, Pitch_bend_c, 1, 8064
3, 320115, Pitch_bend_c, 1, 8064
3, 320128, Pitch_bend_c, 1, 8192
3, 320140, Pitch_bend_c, 1, 8320
3, 320147, Pitch_bend_c, 1, 8320
3, 320160, Pitch_bend_c, 1, 8448
3, 320166, Pitch_bend_c, 1, 8576
3, 320179, Pitch_bend_c, 1, 8576
3, 320185, Pitch_bend_c, 1, 8704
3, 320198, Pitch_bend_c, 1, 8704
3, 320204, Pitch_bend_c, 1, 8704
3, 320217, Pitch_bend_c, 1, 8704
3, 320230, Pitch_bend_c, 1, 8704
3, 320236, Pitch_bend_c, 1, 8576
3, 320249, Pitch_bend_c, 1, 8576
3, 320256, Pitch_bend_c, 1, 8448
3, 320268, Pitch_bend_c, 1, 8320
3, 320275, Pitch_bend_c, 1, 8320
3, 320288, Pitch_bend_c, 1, 8192
3, 320300, Pitch_bend_c, 1, 8064
3, 320307, Pitch_bend_c, 1, 8064
3, 320320, Pitch_bend_c, 1, 7936
3, 320326, Pitch_bend_c, 1, 7808
3, 320339, Pitch_bend_c, 1, 7808
3, 320345, Pitch_bend_c, 1, 7680
3, 320358, Pitch_bend_c, 1, 7680
3, 320371, Pitch_bend_c, 1, 7680
3, 320377, Pitch_bend_c, 1, 7680
3, 320390, Pitch_bend_c, 1, 7680
3, 320396, Pitch_bend_c, 1, 7808
3, 320409, Pitch_bend_c, 1, 7808
3, 320416, Pitch_bend_c, 1, 7936
3, 320428, Pitch_bend_c, 1, 8064
3, 320435, Pitch_bend_c, 1, 8064
3, 320448, Pitch_bend_c, 1, 8192
3, 320460, Pitch_bend_c, 1, 8320
3, 320467, Pitch_bend_c, 1, 8448
3, 320480, Pitch_bend_c, 1, 8576
3, 320486, Pitch_bend_c, 1, 8576
3, 320499, Pitch_bend_c, 1, 8704
3, 320505, Pitch_bend_c, 1, 8704
3, 320518, Pitch_bend_c, 1, 8704
3, 320524, Pitch_bend_c, 1, 8704
3, 320537, Pitch_bend_c, 1, 8704
3, 320550, Pitch_bend_c, 1, 8704
3, 320556, Pitch_bend_c, 1, 8704
3, 320569, Pitch_bend_c, 1, 8576
3, 320576, Pitch_bend_c, 1, 8576
3, 320588, Pitch_bend_c, 1, 8448
3, 320595, Pitch_bend_c, 1, 8320
3, 320608, Pitch_bend_c, 1, 8192
3, 320620, Pitch_bend_c, 1, 8064
3, 320627, Pitch_bend_c, 1, 7936
3, 320640, Pitch_bend_c, 1, 7808
3, 320646, Pitch_bend_c, 1, 7808
3, 320659, Pitch_bend_c, 1, 7680
3, 320665, Pitch_bend_c, 1, 7680
3, 320678, Pitch_bend_c, 1, 7680
3, 320691, Pitch_bend_c, 1, 7680
3, 320697, Pitch_bend_c, 1, 7680
3, 320710, Pitch_bend_c, 1, 7680
3, 320716, Pitch_bend_c, 1, 7680
3, 320729, Pitch_bend_c, 1, 7808
3, 320736, Pitch_bend_c, 1, 7808
3, 320748, Pitch_bend_c, 1, 7936
3, 320755, Pitch_bend_c, 1, 8064
3, 320768, Pitch_bend_c, 1, 8192
3, 320780, Pitch_bend_c, 1, 8320
3, 320787, Pitch_bend_c, 1, 8448
3, 320800, Pitch_bend_c, 1, 8576
3, 320806, Pitch_bend_c, 1, 8576
3, 320819, Pitch_bend_c, 1, 8704
3, 320825, Pitch_bend_c, 1, 8704
3, 320838, Pitch_bend_c, 1, 8704
3, 320844, Pitch_bend_c, 1, 8832
3, 320857, Pitch_bend_c, 1, 8704
3, 320870, Pitch_bend_c, 1, 8704
3, 320876, Pitch_bend_c, 1, 8704
3, 320889, Pitch_bend_c, 1, 8576
3, 320896, Pitch_bend_c, 1, 8576
3, 320908, Pitch_bend_c, 1, 8448
3, 320915, Pitch_bend_c, 1, 8320
3, 320928, Pitch_bend_c, 1, 8192
3, 320940, Pitch_bend_c, 1, 8064
3, 320947, Pitch_bend_c, 1, 7936
3, 320960, Pitch_bend_c, 1, 7808
3, 320966, Pitch_bend_c, 1, 7808
3, 320979, Pitch_bend_c, 1, 7680
3, 320985, Pitch_bend_c, 1, 7680
3, 320998, Pitch_bend_c, 1, 7680
3, 321011, Pitch_bend_c, 1, 7552
3, 321017, Pitch_bend_c, 1, 7680
3, 321024, Pitch_bend_c, 1, 8192
3, 321216, Pitch_bend_c, 1, 7552
3, 321299, Pitch_bend_c, 1, 6784
3, 321382, Pitch_bend_c, 1, 6144
3, 321465, Pitch_bend_c, 1, 5504
3, 321542, Pitch_bend_c, 1, 4736
3, 321625, Pitch_bend_c, 1, 4096
3, 321708, Pitch_bend_c, 1, 3456
3, 321792, Note_off_c, 1, 67, 80
3, 321792, Pitch_bend_c, 1, 8192
3, 321792, Note_on_c, 1, 55, 79
3, 321984, Pitch_bend_c, 1, 8832
3, 322067, Pitch_bend_c, 1, 9600
3, 322150, Pitch_bend_c, 1, 10240
3, 322233, Pitch_bend_c, 1, 10880
3, 322310, Pitch_bend_c, 1, 11648
3, 322393, Pitch_bend_c, 1, 12288
3, 322476, Pitch_bend_c, 1, 12928
3, 322560, Note_off_c, 1, 55, 80
3, 322560, Pitch_bend_c, 1, 8192
3, 322560, Note_on_c, 1, 65, 79
3, 323072, Note_off_c, 1, 65, 80
3, 323072, Note_on_c, 1, 66, 79
3, 323584, Note_off_c, 1, 66, 80
3, 323584, Note_on_c, 1, 67, 79
3, 324096, Note_off_c, 1, 67, 80
3, 324096, Note_on_c, 1, 70, 79
3, 324096, Pitch_bend_c, 1, 8192
3, 324198, Pitch_bend_c, 1, 8320
3, 324300, Pitch_bend_c, 1, 8448
3, 324403, Pitch_bend_c, 1, 8576
3, 325632, Note_off_c, 1, 70, 80
3, 325632, Pitch_bend_c, 1, 8192
3, 325632, Note_on_c, 1, 67, 79
3, 326016, Note_off_c, 1, 67, 80
3, 326016, Note_on_c, 1, 65, 63
3, 326400, Note_off_c, 1, 65, 80
3, 326400, Note_on_c, 1, 62, 79
3, 326784, Note_off_c, 1, 62, 80
3, 326784, Note_on_c, 1, 60, 63
3, 327168, Note_off_c, 1, 60, 80
3, 327168, Note_on_c, 1, 67, 79
3, 327936, Note_off_c, 1, 67, 80
3, 327936, Note_on_c, 1, 60, 79
3, 328320, Note_off_c, 1, 60, 80
3, 328320, Note_on_c, 1, 58, 63
3, 328704, Note_off_c, 1, 58, 80
3, 328704, Note_on_c, 1, 55, 79
3, 329088, Note_off_c, 1, 55, 80
3, 329088, Note_on_c, 1, 53, 79
3, 329472, Note_off_c, 1, 53, 80
3, 329472, Note_on_c, 1, 55, 79
3, 329856, Note_off_c, 1, 55, 80
3, 329856, Note_on_c, 1, 55, 79
3, 330240, Note_off_c, 1, 55, 80
3, 330240, Note_on_c, 1, 60, 79
3, 330585, Pitch_bend_c, 1, 8832
3, 330624, Pitch_bend_c, 1, 9600
3, 331008, Note_off_c, 1, 60, 80
3, 331008, Pitch_bend_c, 1, 8192
3, 331008, Note_on_c, 1, 65, 79
3, 331392, Note_off_c, 1, 65, 80
3, 331392, Note_on_c, 1, 62, 79
3, 331776, Note_off_c, 1, 62, 80
3, 331776, Pitch_bend_c, 1, 8192
3, 331776, Note_on_c, 1, 58, 79
3, 331788, Pitch_bend_c, 1, 8192
3, 331795, Pitch_bend_c, 1, 8192
3, 331808, Pitch_bend_c, 1, 8192
3, 331814, Pitch_bend_c, 1, 8192
3, 331827, Pitch_bend_c, 1, 8192
3, 331833, Pitch_bend_c, 1, 8192
3, 331846, Pitch_bend_c, 1, 8192
3, 331852, Pitch_bend_c, 1, 8192
3, 331865, Pitch_bend_c, 1, 8192
3, 331878, Pitch_bend_c, 1, 8192
3, 331884, Pitch_bend_c, 1, 8192
3, 331897, Pitch_bend_c, 1, 8192
3, 331904, Pitch_bend_c, 1, 8192
3, 331916, Pitch_bend_c, 1, 8192
3, 331923, Pitch_bend_c, 1, 8192
3, 331936, Pitch_bend_c, 1, 8192
3, 331948, Pitch_bend_c, 1, 8192
3, 331955, Pitch_bend_c, 1, 8192
3, 331968, Pitch_bend_c, 1, 8192
3, 331974, Pitch_bend_c, 1, 8192
3, 331987, Pitch_bend_c, 1, 8192
3, 331993, Pitch_bend_c, 1, 8192
3, 332006, Pitch_bend_c, 1, 8192
3, 332019, Pitch_bend_c, 1, 8192
3, 332025, Pitch_bend_c, 1, 8192
3, 332038, Pitch_bend_c, 1, 8192
3, 332044, Pitch_bend_c, 1, 8192
3, 332057, Pitch_bend_c, 1, 8192
3, 332064, Pitch_bend_c, 1, 8192
3, 332076, Pitch_bend_c, 1, 8192
3, 332083, Pitch_bend_c, 1, 8192
3, 332096, Pitch_bend_c, 1, 8192
3, 332108, Pitch_bend_c, 1, 8320
3, 332115, Pitch_bend_c, 1, 8448
3, 332128, Pitch_bend_c, 1, 8576
3, 332134, Pitch_bend_c, 1, 8576
3, 332147, Pitch_bend_c, 1, 8704
3, 332153, Pitch_bend_c, 1, 8704
3, 332166, Pitch_bend_c, 1, 8704
3, 332172, Pitch_bend_c, 1, 8704
3, 332185, Pitch_bend_c, 1, 8704
3, 332198, Pitch_bend_c, 1, 8704
3, 332204, Pitch_bend_c, 1, 8704
3, 332217, Pitch_bend_c, 1, 8576
3, 332224, Pitch_bend_c, 1, 8576
3, 332236, Pitch_bend_c, 1, 8448
3, 332243, Pitch_bend_c, 1, 8320
3, 332256, Pitch_bend_c, 1, 8192
3, 332268, Pitch_bend_c, 1, 8064
3, 332275, Pitch_bend_c, 1, 7936
3, 332288, Pitch_bend_c, 1, 7808
3, 332294, Pitch_bend_c, 1, 7808
3, 332307, Pitch_bend_c, 1, 7680
3, 332313, Pitch_bend_c, 1, 7680
3, 332326, Pitch_bend_c, 1, 7680
3, 332339, Pitch_bend_c, 1, 7680
3, 332345, Pitch_bend_c, 1, 7680
3, 332358, Pitch_bend_c, 1, 7680
3, 332364, Pitch_bend_c, 1, 7680
3, 332377, Pitch_bend_c, 1, 7808
3, 332384, Pitch_bend_c, 1, 7808
3, 332396, Pitch_bend_c, 1, 7936
3, 332403, Pitch_bend_c, 1, 8064
3, 332416, Pitch_bend_c, 1, 8192
3, 332428, Pitch_bend_c, 1, 8320
3, 332435, Pitch_bend_c, 1, 8320
3, 332448, Pitch_bend_c, 1, 8448
3, 332454, Pitch_bend_c, 1, 8576
3, 332467, Pitch_bend_c, 1, 8704
3, 332473, Pitch_bend_c, 1, 8704
3, 332486, Pitch_bend_c, 1, 8704
3, 332492, Pitch_bend_c, 1, 8704
3, 332505, Pitch_bend_c, 1, 8704
3, 332518, Pitch_bend_c, 1, 8704
3, 332524, Pitch_bend_c, 1, 8704
3, 332537, Pitch_bend_c, 1, 8576
3, 332544, Pitch_bend_c, 1, 8448
3, 332556, Pitch_bend_c, 1, 8320
3, 332563, Pitch_bend_c, 1, 8320
3, 332576, Pitch_bend_c, 1, 8192
3, 332588, Pitch_bend_c, 1, 8064
3, 332595, Pitch_bend_c, 1, 8064
3, 332608, Pitch_bend_c, 1, 7936
3, 332614, Pitch_bend_c, 1, 7808
3, 332627, Pitch_bend_c, 1, 7680
3, 332633, Pitch_bend_c, 1, 7680
3, 332646, Pitch_bend_c, 1, 7680
3, 332659, Pitch_bend_c, 1, 7680
3, 332665, Pitch_bend_c, 1, 7680
3, 332678, Pitch_bend_c, 1, 7680
3, 332684, Pitch_bend_c, 1, 7680
3, 332697, Pitch_bend_c, 1, 7808
3, 332704, Pitch_bend_c, 1, 7936
3, 332716, Pitch_bend_c, 1, 8064
3, 332723, Pitch_bend_c, 1, 8064
3, 332736, Pitch_bend_c, 1, 8192
3, 332748, Pitch_bend_c, 1, 8320
3, 332755, Pitch_bend_c, 1, 8320
3, 332768, Pitch_bend_c, 1, 8448
3, 332774, Pitch_bend_c, 1, 8576
3, 332787, Pitch_bend_c, 1, 8576
3, 332793, Pitch_bend_c, 1, 8704
3, 332806, Pitch_bend_c, 1, 8704
3, 332812, Pitch_bend_c, 1, 8704
3, 332825, Pitch_bend_c, 1, 8704
3, 332838, Pitch_bend_c, 1, 8704
3, 332844, Pitch_bend_c, 1, 8576
3, 332857, Pitch_bend_c, 1, 8576
3, 332864, Pitch_bend_c, 1, 8448
3, 332876, Pitch_bend_c, 1, 8320
3, 332883, Pitch_bend_c, 1, 8320
3, 332896, Pitch_bend_c, 1, 8192
3, 332908, Pitch_bend_c, 1, 8064
3, 332915, Pitch_bend_c, 1, 8064
3, 332928, Pitch_bend_c, 1, 7936
3, 332934, Pitch_bend_c, 1, 7808
3, 332947, Pitch_bend_c, 1, 7808
3, 332953, Pitch_bend_c, 1, 7680
3, 332966, Pitch_bend_c, 1, 7680
3, 332979, Pitch_bend_c, 1, 7680
3, 332985, Pitch_bend_c, 1, 7680
3, 332998, Pitch_bend_c, 1, 7680
3, 333004, Pitch_bend_c, 1, 7808
3, 333017, Pitch_bend_c, 1, 7808
3, 333024, Pitch_bend_c, 1, 7936
3, 333036, Pitch_bend_c, 1, 8064
3, 333043, Pitch_bend_c, 1, 8064
3, 333056, Pitch_bend_c, 1, 8192
3, 333068, Pitch_bend_c, 1, 8320
3, 333075, Pitch_bend_c, 1, 8320
3, 333088, Pitch_bend_c, 1, 8448
3, 333094, Pitch_bend_c, 1, 8576
3, 333107, Pitch_bend_c, 1, 8576
3, 333113, Pitch_bend_c, 1, 8704
3, 333126, Pitch_bend_c, 1, 8704
3, 333132, Pitch_bend_c, 1, 8704
3, 333145, Pitch_bend_c, 1, 8704
3, 333158, Pitch_bend_c, 1, 8704
3, 333164, Pitch_bend_c, 1, 8576
3, 333177, Pitch_bend_c, 1, 8576
3, 333184, Pitch_bend_c, 1, 8448
3, 333196, Pitch_bend_c, 1, 8320
3, 333203, Pitch_bend_c, 1, 8320
3, 333216, Pitch_bend_c, 1, 8192
3, 333228, Pitch_bend_c, 1, 8064
3, 333235, Pitch_bend_c, 1, 8064
3, 333248, Pitch_bend_c, 1, 7936
3, 333254, Pitch_bend_c, 1, 7808
3, 333267, Pitch_bend_c, 1, 7808
3, 333273, Pitch_bend_c, 1, 7680
3, 333286, Pitch_bend_c, 1, 7680
3, 333299, Pitch_bend_c, 1, 7680
3, 333305, Pitch_bend_c, 1, 7680
3, 333312, Pitch_bend_c, 1, 8192
3, 333696, Pitch_bend_c, 1, 7552
3, 333862, Pitch_bend_c, 1, 6784
3, 334022, Pitch_bend_c, 1, 6144
3, 334188, Pitch_bend_c, 1, 5504
3, 334355, Pitch_bend_c, 1, 4736
3, 334521, Pitch_bend_c, 1, 4096
3, 334681, Pitch_bend_c, 1, 3456
3, 334848, Note_off_c, 1, 58, 80
3, 334848, Pitch_bend_c, 1, 8192
3, 334848, Note_on_c, 1, 50, 79
3, 335360, Note_off_c, 1, 50, 80
3, 335360, Note_on_c, 1, 58, 79
3, 335872, Note_off_c, 1, 58, 80
3, 335872, Note_on_c, 1, 62, 79
3, 336384, Note_off_c, 1, 62, 80
3, 336384, Note_on_c, 1, 67, 79
3, 336896, Note_off_c, 1, 67, 80
3, 336896, Note_on_c, 1, 69, 79
3, 337408, Note_off_c, 1, 69, 80
3, 337408, Note_on_c, 1, 70, 79
3, 337920, Note_off_c, 1, 70, 80
3, 337920, Note_on_c, 1, 66, 79
3, 337920, Pitch_bend_c, 1, 8192
3, 337939, Pitch_bend_c, 1, 8192
3, 337958, Pitch_bend_c, 1, 8192
3, 337971, Pitch_bend_c, 1, 8192
3, 337990, Pitch_bend_c, 1, 8192
3, 338009, Pitch_bend_c, 1, 8192
3, 338028, Pitch_bend_c, 1, 8192
3, 338048, Pitch_bend_c, 1, 8192
3, 338060, Pitch_bend_c, 1, 8192
3, 338080, Pitch_bend_c, 1, 8192
3, 338099, Pitch_bend_c, 1, 8192
3, 338118, Pitch_bend_c, 1, 8192
3, 338137, Pitch_bend_c, 1, 8192
3, 338156, Pitch_bend_c, 1, 8192
3, 338169, Pitch_bend_c, 1, 8192
3, 338188, Pitch_bend_c, 1, 8192
3, 338208, Pitch_bend_c, 1, 8192
3, 338227, Pitch_bend_c, 1, 8192
3, 338246, Pitch_bend_c, 1, 8192
3, 338259, Pitch_bend_c, 1, 8192
3, 338278, Pitch_bend_c, 1, 8192
3, 338297, Pitch_bend_c, 1, 8192
3, 338316, Pitch_bend_c, 1, 8192
3, 338336, Pitch_bend_c, 1, 8192
3, 338355, Pitch_bend_c, 1, 8192
3, 338368, Pitch_bend_c, 1, 8192
3, 338387, Pitch_bend_c, 1, 8192
3, 338406, Pitch_bend_c, 1, 8192
3, 338425, Pitch_bend_c, 1, 8192
3, 338444, Pitch_bend_c, 1, 8192
3, 338457, Pitch_bend_c, 1, 8192
3, 338476, Pitch_bend_c, 1, 8192
3, 338496, Pitch_bend_c, 1, 8192
3, 338515, Pitch_bend_c, 1, 8192
3, 338534, Pitch_bend_c, 1, 8320
3, 338547, Pitch_bend_c, 1, 8320
3, 338566, Pitch_bend_c, 1, 8320
3, 338585, Pitch_bend_c, 1, 8320
3, 338604, Pitch_bend_c, 1, 8448
3, 338624, Pitch_bend_c, 1, 8448
3, 338636, Pitch_bend_c, 1, 8448
3, 338656, Pitch_bend_c, 1, 8448
3, 338675, Pitch_bend_c, 1, 8448
3, 338694, Pitch_bend_c, 1, 8320
3, 338713, Pitch_bend_c, 1, 8320
3, 338732, Pitch_bend_c, 1, 8320
3, 338745, Pitch_bend_c, 1, 8320
3, 338764, Pitch_bend_c, 1, 8192
3, 338784, Pitch_bend_c, 1, 8192
3, 338803, Pitch_bend_c, 1, 8192
3, 338822, Pitch_bend_c, 1, 8064
3, 338835, Pitch_bend_c, 1, 8064
3, 338854, Pitch_bend_c, 1, 8064
3, 338873, Pitch_bend_c, 1, 8064
3, 338892, Pitch_bend_c, 1, 7936
3, 338912, Pitch_bend_c, 1, 7936
3, 338931, Pitch_bend_c, 1, 7936
3, 338944, Pitch_bend_c, 1, 7936
3, 338963, Pitch_bend_c, 1, 7936
3, 338982, Pitch_bend_c, 1, 8064
3, 339001, Pitch_bend_c, 1, 8064
3, 339020, Pitch_bend_c, 1, 8064
3, 339033, Pitch_bend_c, 1, 8064
3, 339052, Pitch_bend_c, 1, 8192
3, 339072, Pitch_bend_c, 1, 8192
3, 339091, Pitch_bend_c, 1, 8192
3, 339110, Pitch_bend_c, 1, 8320
3, 339123, Pitch_bend_c, 1, 8320
3, 339142, Pitch_bend_c, 1, 8320
3, 339161, Pitch_bend_c, 1, 8448
3, 339180, Pitch_bend_c, 1, 8448
3, 339200, Pitch_bend_c, 1, 8448
3, 339212, Pitch_bend_c, 1, 8448
3, 339232, Pitch_bend_c, 1, 8448
3, 339251, Pitch_bend_c, 1, 8448
3, 339270, Pitch_bend_c, 1, 8448
3, 339289, Pitch_bend_c, 1, 8320
3, 339308, Pitch_bend_c, 1, 8320
3, 339321, Pitch_bend_c, 1, 8320
3, 339340, Pitch_bend_c, 1, 8192
3, 339360, Pitch_bend_c, 1, 8192
3, 339379, Pitch_bend_c, 1, 8192
3, 339398, Pitch_bend_c, 1, 8064
3, 339411, Pitch_bend_c, 1, 8064
3, 339430, Pitch_bend_c, 1, 8064
3, 339449, Pitch_bend_c, 1, 7936
3, 339468, Pitch_bend_c, 1, 7936
3, 339488, Pitch_bend_c, 1, 7936
3, 339507, Pitch_bend_c, 1, 7936
3, 339520, Pitch_bend_c, 1, 7936
3, 339539, Pitch_bend_c, 1, 7936
3, 339558, Pitch_bend_c, 1, 7936
3, 339577, Pitch_bend_c, 1, 8064
3, 339596, Pitch_bend_c, 1, 8064
3, 339609, Pitch_bend_c, 1, 8064
3, 339628, Pitch_bend_c, 1, 8192
3, 339648, Pitch_bend_c, 1, 8192
3, 339667, Pitch_bend_c, 1, 8192
3, 339686, Pitch_bend_c, 1, 8320
3, 339699, Pitch_bend_c, 1, 8320
3, 339718, Pitch_bend_c, 1, 8320
3, 339737, Pitch_bend_c, 1, 8320
3, 339756, Pitch_bend_c, 1, 8320
3, 339776, Pitch_bend_c, 1, 8448
3, 339788, Pitch_bend_c, 1, 8448
3, 339808, Pitch_bend_c, 1, 8448
3, 339827, Pitch_bend_c, 1, 8320
3, 339846, Pitch_bend_c, 1, 8320
3, 339865, Pitch_bend_c, 1, 8320
3, 339884, Pitch_bend_c, 1, 8320
3, 339897, Pitch_bend_c, 1, 8320
3, 339916, Pitch_bend_c, 1, 8192
3, 339936, Pitch_bend_c, 1, 8192
3, 339955, Pitch_bend_c, 1, 8192
3, 339974, Pitch_bend_c, 1, 8064
3, 339987, Pitch_bend_c, 1, 8064
3, 340006, Pitch_bend_c, 1, 8064
3, 340025, Pitch_bend_c, 1, 8064
3, 340044, Pitch_bend_c, 1, 8064
3, 340064, Pitch_bend_c, 1, 7936
3, 340083, Pitch_bend_c, 1, 7936
3, 340096, Pitch_bend_c, 1, 7936
3, 340115, Pitch_bend_c, 1, 8064
3, 340134, Pitch_bend_c, 1, 8064
3, 340153, Pitch_bend_c, 1, 8064
3, 340172, Pitch_bend_c, 1, 8064
3, 340185, Pitch_bend_c, 1, 8064
3, 340204, Pitch_bend_c, 1, 8192
3, 340224, Pitch_bend_c, 1, 8192
3, 340243, Pitch_bend_c, 1, 8192
3, 340262, Pitch_bend_c, 1, 8320
3, 340275, Pitch_bend_c, 1, 8320
3, 340294, Pitch_bend_c, 1, 8320
3, 340313, Pitch_bend_c, 1, 8320
3, 340332, Pitch_bend_c, 1, 8320
3, 340352, Pitch_bend_c, 1, 8320
3, 340364, Pitch_bend_c, 1, 8320
3, 340384, Pitch_bend_c, 1, 8320
3, 340403, Pitch_bend_c, 1, 8320
3, 340422, Pitch_bend_c, 1, 8320
3, 340441, Pitch_bend_c, 1, 8320
3, 340460, Pitch_bend_c, 1, 8320
3, 340473, Pitch_bend_c, 1, 8320
3, 340492, Pitch_bend_c, 1, 8192
3, 340512, Pitch_bend_c, 1, 8192
3, 340531, Pitch_bend_c, 1, 8192
3, 340550, Pitch_bend_c, 1, 8064
3, 340563, Pitch_bend_c, 1, 8064
3, 340582, Pitch_bend_c, 1, 8064
3, 340601, Pitch_bend_c, 1, 8064
3, 340620, Pitch_bend_c, 1, 8064
3, 340640, Pitch_bend_c, 1, 8064
3, 340659, Pitch_bend_c, 1, 8064
3, 340672, Pitch_bend_c, 1, 8064
3, 340691, Pitch_bend_c, 1, 8064
3, 340710, Pitch_bend_c, 1, 8064
3, 340729, Pitch_bend_c, 1, 8064
3, 340748, Pitch_bend_c, 1, 8064
3, 340761, Pitch_bend_c, 1, 8064
3, 340780, Pitch_bend_c, 1, 8192
3, 340800, Pitch_bend_c, 1, 8192
3, 340819, Pitch_bend_c, 1, 8192
3, 340838, Pitch_bend_c, 1, 8320
3, 340851, Pitch_bend_c, 1, 8320
3, 340870, Pitch_bend_c, 1, 8320
3, 340889, Pitch_bend_c, 1, 8448
3, 340908, Pitch_bend_c, 1, 8448
3, 340928, Pitch_bend_c, 1, 8448
3, 340940, Pitch_bend_c, 1, 8448
3, 340960, Pitch_bend_c, 1, 8448
3, 340979, Pitch_bend_c, 1, 8448
3, 340998, Pitch_bend_c, 1, 8448
3, 341017, Pitch_bend_c, 1, 8320
3, 341036, Pitch_bend_c, 1, 8320
3, 341049, Pitch_bend_c, 1, 8320
3, 341068, Pitch_bend_c, 1, 8192
3, 341088, Pitch_bend_c, 1, 8192
3, 341107, Pitch_bend_c, 1, 8192
3, 341126, Pitch_bend_c, 1, 8064
3, 341139, Pitch_bend_c, 1, 8064
3, 341158, Pitch_bend_c, 1, 8064
3, 341177, Pitch_bend_c, 1, 7936
3, 341196, Pitch_bend_c, 1, 7936
3, 341216, Pitch_bend_c, 1, 7936
3, 341235, Pitch_bend_c, 1, 7936
3, 341248, Pitch_bend_c, 1, 7936
3, 341267, Pitch_bend_c, 1, 7936
3, 341286, Pitch_bend_c, 1, 7936
3, 341305, Pitch_bend_c, 1, 8064
3, 341324, Pitch_bend_c, 1, 8064
3, 341337, Pitch_bend_c, 1, 8064
3, 341356, Pitch_bend_c, 1, 8192
3, 341376, Pitch_bend_c, 1, 8192
3, 341395, Pitch_bend_c, 1, 8192
3, 341414, Pitch_bend_c, 1, 8320
3, 341427, Pitch_bend_c, 1, 8320
3, 341446, Pitch_bend_c, 1, 8320
3, 341465, Pitch_bend_c, 1, 8320
3, 341484, Pitch_bend_c, 1, 8448
3, 341504, Pitch_bend_c, 1, 8448
3, 341516, Pitch_bend_c, 1, 8448
3, 341536, Pitch_bend_c, 1, 8448
3, 341555, Pitch_bend_c, 1, 8448
3, 341574, Pitch_bend_c, 1, 8320
3, 341593, Pitch_bend_c, 1, 8320
3, 341612, Pitch_bend_c, 1, 8320
3, 341625, Pitch_bend_c, 1, 8320
3, 341644, Pitch_bend_c, 1, 8192
3, 341664, Pitch_bend_c, 1, 8192
3, 341683, Pitch_bend_c, 1, 8192
3, 341702, Pitch_bend_c, 1, 8064
3, 341715, Pitch_bend_c, 1, 8064
3, 341734, Pitch_bend_c, 1, 8064
3, 341753, Pitch_bend_c, 1, 8064
3, 341772, Pitch_bend_c, 1, 7936
3, 341792, Pitch_bend_c, 1, 7936
3, 341811, Pitch_bend_c, 1, 7936
3, 341824, Pitch_bend_c, 1, 7936
3, 341843, Pitch_bend_c, 1, 7936
3, 341862, Pitch_bend_c, 1, 8064
3, 341881, Pitch_bend_c, 1, 8064
3, 341900, Pitch_bend_c, 1, 8064
3, 341913, Pitch_bend_c, 1, 8064
3, 341932, Pitch_bend_c, 1, 8192
3, 341952, Pitch_bend_c, 1, 8192
3, 341971, Pitch_bend_c, 1, 8192
3, 341990, Pitch_bend_c, 1, 8320
3, 342003, Pitch_bend_c, 1, 8320
3, 342022, Pitch_bend_c, 1, 8320
3, 342041, Pitch_bend_c, 1, 8320
3, 342060, Pitch_bend_c, 1, 8448
3, 342080, Pitch_bend_c, 1, 8448
3, 342092, Pitch_bend_c, 1, 8448
3, 342112, Pitch_bend_c, 1, 8448
3, 342131, Pitch_bend_c, 1, 8448
3, 342150, Pitch_bend_c, 1, 8320
3, 342169, Pitch_bend_c, 1, 8320
3, 342188, Pitch_bend_c, 1, 8320
3, 342201, Pitch_bend_c, 1, 8320
3, 342220, Pitch_bend_c, 1, 8192
3, 342240, Pitch_bend_c, 1, 8192
3, 342259, Pitch_bend_c, 1, 8192
3, 342278, Pitch_bend_c, 1, 8064
3, 342291, Pitch_bend_c, 1, 8064
3, 342310, Pitch_bend_c, 1, 8064
3, 342329, Pitch_bend_c, 1, 8064
3, 342348, Pitch_bend_c, 1, 7936
3, 342368, Pitch_bend_c, 1, 7936
3, 342387, Pitch_bend_c, 1, 7936
3, 342400, Pitch_bend_c, 1, 7936
3, 342419, Pitch_bend_c, 1, 7936
3, 342438, Pitch_bend_c, 1, 8064
3, 342457, Pitch_bend_c, 1, 8064
3, 342476, Pitch_bend_c, 1, 8064
3, 342489, Pitch_bend_c, 1, 8064
3, 342508, Pitch_bend_c, 1, 8192
3, 342528, Pitch_bend_c, 1, 8192
3, 342720, Pitch_bend_c, 1, 7552
3, 342803, Pitch_bend_c, 1, 6784
3, 342886, Pitch_bend_c, 1, 6144
3, 342969, Pitch_bend_c, 1, 5504
3, 343046, Pitch_bend_c, 1, 4736
3, 343129, Pitch_bend_c, 1, 4096
3, 343212, Pitch_bend_c, 1, 3456
3, 343296, Note_off_c, 1, 66, 80
3, 343296, Pitch_bend_c, 1, 8192
3, 343296, Note_on_c, 1, 59, 79
3, 343296, Note_on_c, 1, 55, 79
3, 343296, Note_on_c, 1, 50, 79
3, 343296, Note_on_c, 1, 73, 79
3, 343347, Pitch_bend_c, 1, 8192
3, 343392, Pitch_bend_c, 1, 8192
3, 343424, Note_off_c, 1, 50, 80
3, 343424, Note_off_c, 1, 55, 80
3, 343424, Note_off_c, 1, 59, 80
3, 343436, Pitch_bend_c, 1, 8192
3, 343488, Pitch_bend_c, 1, 8192
3, 343539, Pitch_bend_c, 1, 8192
3, 343584, Pitch_bend_c, 1, 8192
3, 343628, Pitch_bend_c, 1, 8192
3, 343680, Pitch_bend_c, 1, 8192
3, 343731, Pitch_bend_c, 1, 8192
3, 343776, Pitch_bend_c, 1, 8192
3, 343820, Pitch_bend_c, 1, 8192
3, 343872, Pitch_bend_c, 1, 8192
3, 343923, Pitch_bend_c, 1, 8192
3, 343968, Pitch_bend_c, 1, 8192
3, 344012, Pitch_bend_c, 1, 8192
3, 344064, Pitch_bend_c, 1, 8192
3, 344076, Pitch_bend_c, 1, 8192
3, 344083, Pitch_bend_c, 1, 8192
3, 344096, Pitch_bend_c, 1, 8192
3, 344102, Pitch_bend_c, 1, 8192
3, 344115, Pitch_bend_c, 1, 8192
3, 344121, Pitch_bend_c, 1, 8192
3, 344134, Pitch_bend_c, 1, 8192
3, 344140, Pitch_bend_c, 1, 8192
3, 344153, Pitch_bend_c, 1, 8192
3, 344166, Pitch_bend_c, 1, 8192
3, 344172, Pitch_bend_c, 1, 8192
3, 344185, Pitch_bend_c, 1, 8192
3, 344192, Pitch_bend_c, 1, 8192
3, 344204, Pitch_bend_c, 1, 8192
3, 344211, Pitch_bend_c, 1, 8192
3, 344224, Pitch_bend_c, 1, 8192
3, 344236, Pitch_bend_c, 1, 8192
3, 344243, Pitch_bend_c, 1, 8192
3, 344256, Pitch_bend_c, 1, 8192
3, 344262, Pitch_bend_c, 1, 8192
3, 344275, Pitch_bend_c, 1, 8192
3, 344281, Pitch_bend_c, 1, 8192
3, 344294, Pitch_bend_c, 1, 8192
3, 344307, Pitch_bend_c, 1, 8192
3, 344313, Pitch_bend_c, 1, 8192
3, 344326, Pitch_bend_c, 1, 8192
3, 344332, Pitch_bend_c, 1, 8192
3, 344345, Pitch_bend_c, 1, 8192
3, 344352, Pitch_bend_c, 1, 8192
3, 344364, Pitch_bend_c, 1, 8192
3, 344371, Pitch_bend_c, 1, 8192
3, 344384, Pitch_bend_c, 1, 8192
3, 344396, Pitch_bend_c, 1, 8320
3, 344403, Pitch_bend_c, 1, 8448
3, 344416, Pitch_bend_c, 1, 8576
3, 344422, Pitch_bend_c, 1, 8576
3, 344435, Pitch_bend_c, 1, 8704
3, 344441, Pitch_bend_c, 1, 8704
3, 344454, Pitch_bend_c, 1, 8704
3, 344460, Pitch_bend_c, 1, 8704
3, 344473, Pitch_bend_c, 1, 8704
3, 344486, Pitch_bend_c, 1, 8704
3, 344492, Pitch_bend_c, 1, 8704
3, 344505, Pitch_bend_c, 1, 8576
3, 344512, Pitch_bend_c, 1, 8576
3, 344524, Pitch_bend_c, 1, 8448
3, 344531, Pitch_bend_c, 1, 8320
3, 344544, Pitch_bend_c, 1, 8192
3, 344556, Pitch_bend_c, 1, 8064
3, 344563, Pitch_bend_c, 1, 7936
3, 344576, Pitch_bend_c, 1, 7808
3, 344582, Pitch_bend_c, 1, 7808
3, 344595, Pitch_bend_c, 1, 7680
3, 344601, Pitch_bend_c, 1, 7680
3, 344614, Pitch_bend_c, 1, 7680
3, 344627, Pitch_bend_c, 1, 7680
3, 344633, Pitch_bend_c, 1, 7680
3, 344646, Pitch_bend_c, 1, 7680
3, 344652, Pitch_bend_c, 1, 7680
3, 344665, Pitch_bend_c, 1, 7808
3, 344672, Pitch_bend_c, 1, 7808
3, 344684, Pitch_bend_c, 1, 7936
3, 344691, Pitch_bend_c, 1, 8064
3, 344704, Pitch_bend_c, 1, 8192
3, 344716, Pitch_bend_c, 1, 8320
3, 344723, Pitch_bend_c, 1, 8448
3, 344736, Pitch_bend_c, 1, 8576
3, 344742, Pitch_bend_c, 1, 8576
3, 344755, Pitch_bend_c, 1, 8704
3, 344761, Pitch_bend_c, 1, 8704
3, 344774, Pitch_bend_c, 1, 8704
3, 344780, Pitch_bend_c, 1, 8832
3, 344793, Pitch_bend_c, 1, 8704
3, 344806, Pitch_bend_c, 1, 8704
3, 344812, Pitch_bend_c, 1, 8704
3, 344825, Pitch_bend_c, 1, 8576
3, 344832, Pitch_bend_c, 1, 8576
3, 344844, Pitch_bend_c, 1, 8448
3, 344851, Pitch_bend_c, 1, 8320
3, 344864, Pitch_bend_c, 1, 8192
3, 344876, Pitch_bend_c, 1, 8064
3, 344883, Pitch_bend_c, 1, 7936
3, 344896, Pitch_bend_c, 1, 7808
3, 344902, Pitch_bend_c, 1, 7808
3, 344915, Pitch_bend_c, 1, 7680
3, 344921, Pitch_bend_c, 1, 7680
3, 344934, Pitch_bend_c, 1, 7680
3, 344947, Pitch_bend_c, 1, 7552
3, 344953, Pitch_bend_c, 1, 7680
3, 344966, Pitch_bend_c, 1, 7680
3, 344972, Pitch_bend_c, 1, 7680
3, 344985, Pitch_bend_c, 1, 7808
3, 344992, Pitch_bend_c, 1, 7808
3, 345004, Pitch_bend_c, 1, 7936
3, 345011, Pitch_bend_c, 1, 8064
3, 345024, Pitch_bend_c, 1, 8192
3, 345036, Pitch_bend_c, 1, 8320
3, 345043, Pitch_bend_c, 1, 8448
3, 345056, Pitch_bend_c, 1, 8576
3, 345062, Pitch_bend_c, 1, 8576
3, 345075, Pitch_bend_c, 1, 8704
3, 345081, Pitch_bend_c, 1, 8704
3, 345094, Pitch_bend_c, 1, 8832
3, 345100, Pitch_bend_c, 1, 8832
3, 345113, Pitch_bend_c, 1, 8832
3, 345126, Pitch_bend_c, 1, 8704
3, 345132, Pitch_bend_c, 1, 8704
3, 345145, Pitch_bend_c, 1, 8576
3, 345152, Pitch_bend_c, 1, 8576
3, 345164, Pitch_bend_c, 1, 8448
3, 345171, Pitch_bend_c, 1, 8320
3, 345184, Pitch_bend_c, 1, 8192
3, 345196, Pitch_bend_c, 1, 8064
3, 345203, Pitch_bend_c, 1, 7936
3, 345216, Note_off_c, 1, 73, 80
3, 345216, Pitch_bend_c, 1, 8192
3, 345600, Note_on_c, 1, 75, 79
3, 346112, Note_off_c, 1, 75, 80
3, 346112, Note_on_c, 1, 76, 79
3, 346624, Note_off_c, 1, 76, 80
3, 346624, Note_on_c, 1, 77, 79
3, 347136, Note_off_c, 1, 77, 80
3, 347136, Pitch_bend_c, 1, 8192
3, 347136, Note_on_c, 1, 78, 79
3, 347148, Pitch_bend_c, 1, 8192
3, 347155, Pitch_bend_c, 1, 8192
3, 347168, Pitch_bend_c, 1, 8192
3, 347174, Pitch_bend_c, 1, 8192
3, 347187, Pitch_bend_c, 1, 8192
3, 347193, Pitch_bend_c, 1, 8064
3, 347206, Pitch_bend_c, 1, 8064
3, 347212, Pitch_bend_c, 1, 8064
3, 347225, Pitch_bend_c, 1, 8064
3, 347238, Pitch_bend_c, 1, 8064
3, 347244, Pitch_bend_c, 1, 8192
3, 347257, Pitch_bend_c, 1, 8192
3, 347264, Pitch_bend_c, 1, 8192
3, 347276, Pitch_bend_c, 1, 8192
3, 347283, Pitch_bend_c, 1, 8192
3, 347296, Pitch_bend_c, 1, 8192
3, 347308, Pitch_bend_c, 1, 8192
3, 347315, Pitch_bend_c, 1, 8192
3, 347328, Pitch_bend_c, 1, 8192
3, 347334, Pitch_bend_c, 1, 8192
3, 347347, Pitch_bend_c, 1, 8192
3, 347353, Pitch_bend_c, 1, 8320
3, 347366, Pitch_bend_c, 1, 8320
3, 347379, Pitch_bend_c, 1, 8320
3, 347385, Pitch_bend_c, 1, 8320
3, 347398, Pitch_bend_c, 1, 8320
3, 347404, Pitch_bend_c, 1, 8192
3, 347417, Pitch_bend_c, 1, 8192
3, 347424, Pitch_bend_c, 1, 8192
3, 347436, Pitch_bend_c, 1, 8192
3, 347443, Pitch_bend_c, 1, 8192
3, 347456, Pitch_bend_c, 1, 8192
3, 347468, Pitch_bend_c, 1, 8320
3, 347475, Pitch_bend_c, 1, 8320
3, 347488, Pitch_bend_c, 1, 8448
3, 347494, Pitch_bend_c, 1, 8576
3, 347507, Pitch_bend_c, 1, 8576
3, 347513, Pitch_bend_c, 1, 8704
3, 347526, Pitch_bend_c, 1, 8704
3, 347532, Pitch_bend_c, 1, 8704
3, 347545, Pitch_bend_c, 1, 8704
3, 347558, Pitch_bend_c, 1, 8704
3, 347564, Pitch_bend_c, 1, 8576
3, 347577, Pitch_bend_c, 1, 8576
3, 347584, Pitch_bend_c, 1, 8448
3, 347596, Pitch_bend_c, 1, 8320
3, 347603, Pitch_bend_c, 1, 8320
3, 347616, Pitch_bend_c, 1, 8192
3, 347628, Pitch_bend_c, 1, 8064
3, 347635, Pitch_bend_c, 1, 8064
3, 347648, Pitch_bend_c, 1, 7936
3, 347654, Pitch_bend_c, 1, 7808
3, 347667, Pitch_bend_c, 1, 7808
3, 347673, Pitch_bend_c, 1, 7680
3, 347686, Pitch_bend_c, 1, 7680
3, 347699, Pitch_bend_c, 1, 7680
3, 347705, Pitch_bend_c, 1, 7680
3, 347718, Pitch_bend_c, 1, 7680
3, 347724, Pitch_bend_c, 1, 7808
3, 347737, Pitch_bend_c, 1, 7808
3, 347744, Pitch_bend_c, 1, 7936
3, 347756, Pitch_bend_c, 1, 8064
3, 347763, Pitch_bend_c, 1, 8064
3, 347776, Pitch_bend_c, 1, 8192
3, 347788, Pitch_bend_c, 1, 8320
3, 347795, Pitch_bend_c, 1, 8448
3, 347808, Pitch_bend_c, 1, 8576
3, 347814, Pitch_bend_c, 1, 8576
3, 347827, Pitch_bend_c, 1, 8704
3, 347833, Pitch_bend_c, 1, 8704
3, 347846, Pitch_bend_c, 1, 8704
3, 347852, Pitch_bend_c, 1, 8832
3, 347865, Pitch_bend_c, 1, 8704
3, 347878, Pitch_bend_c, 1, 8704
3, 347884, Pitch_bend_c, 1, 8704
3, 347897, Pitch_bend_c, 1, 8576
3, 347904, Pitch_bend_c, 1, 8576
3, 347916, Pitch_bend_c, 1, 8448
3, 347923, Pitch_bend_c, 1, 8320
3, 347936, Pitch_bend_c, 1, 8192
3, 347948, Pitch_bend_c, 1, 8064
3, 347955, Pitch_bend_c, 1, 7936
3, 347968, Pitch_bend_c, 1, 7808
3, 347974, Pitch_bend_c, 1, 7808
3, 347987, Pitch_bend_c, 1, 7680
3, 347993, Pitch_bend_c, 1, 7680
3, 348006, Pitch_bend_c, 1, 7680
3, 348019, Pitch_bend_c, 1, 7552
3, 348025, Pitch_bend_c, 1, 7680
3, 348038, Pitch_bend_c, 1, 7680
3, 348044, Pitch_bend_c, 1, 7680
3, 348057, Pitch_bend_c, 1, 7808
3, 348064, Pitch_bend_c, 1, 7808
3, 348076, Pitch_bend_c, 1, 7936
3, 348083, Pitch_bend_c, 1, 8064
3, 348096, Pitch_bend_c, 1, 8192
3, 348108, Pitch_bend_c, 1, 8320
3, 348115, Pitch_bend_c, 1, 8320
3, 348128, Pitch_bend_c, 1, 8448
3, 348134, Pitch_bend_c, 1, 8576
3, 348147, Pitch_bend_c, 1, 8576
3, 348153, Pitch_bend_c, 1, 8704
3, 348166, Pitch_bend_c, 1, 8704
3, 348172, Pitch_bend_c, 1, 8704
3, 348185, Pitch_bend_c, 1, 8704
3, 348198, Pitch_bend_c, 1, 8704
3, 348204, Pitch_bend_c, 1, 8576
3, 348217, Pitch_bend_c, 1, 8576
3, 348224, Pitch_bend_c, 1, 8448
3, 348236, Pitch_bend_c, 1, 8320
3, 348243, Pitch_bend_c, 1, 8320
3, 348256, Pitch_bend_c, 1, 8192
3, 348268, Pitch_bend_c, 1, 8064
3, 348275, Pitch_bend_c, 1, 8064
3, 348288, Pitch_bend_c, 1, 7936
3, 348294, Pitch_bend_c, 1, 7808
3, 348307, Pitch_bend_c, 1, 7808
3, 348313, Pitch_bend_c, 1, 7680
3, 348326, Pitch_bend_c, 1, 7680
3, 348339, Pitch_bend_c, 1, 7680
3, 348345, Pitch_bend_c, 1, 7680
3, 348358, Pitch_bend_c, 1, 7680
3, 348364, Pitch_bend_c, 1, 7808
3, 348377, Pitch_bend_c, 1, 7808
3, 348384, Pitch_bend_c, 1, 7936
3, 348396, Pitch_bend_c, 1, 8064
3, 348403, Pitch_bend_c, 1, 8064
3, 348416, Pitch_bend_c, 1, 8192
3, 348428, Pitch_bend_c, 1, 8320
3, 348435, Pitch_bend_c, 1, 8448
3, 348448, Pitch_bend_c, 1, 8576
3, 348454, Pitch_bend_c, 1, 8576
3, 348467, Pitch_bend_c, 1, 8704
3, 348473, Pitch_bend_c, 1, 8704
3, 348486, Pitch_bend_c, 1, 8704
3, 348492, Pitch_bend_c, 1, 8704
3, 348505, Pitch_bend_c, 1, 8704
3, 348518, Pitch_bend_c, 1, 8704
3, 348524, Pitch_bend_c, 1, 8704
3, 348537, Pitch_bend_c, 1, 8576
3, 348544, Pitch_bend_c, 1, 8576
3, 348556, Pitch_bend_c, 1, 8448
3, 348563, Pitch_bend_c, 1, 8320
3, 348576, Pitch_bend_c, 1, 8192
3, 348588, Pitch_bend_c, 1, 8064
3, 348595, Pitch_bend_c, 1, 7936
3, 348608, Pitch_bend_c, 1, 7808
3, 348614, Pitch_bend_c, 1, 7808
3, 348627, Pitch_bend_c, 1, 7680
3, 348633, Pitch_bend_c, 1, 7680
3, 348646, Pitch_bend_c, 1, 7680
3, 348659, Pitch_bend_c, 1, 7680
3, 348665, Pitch_bend_c, 1, 7680
3, 348672, Note_off_c, 1, 78, 80
3, 348672, Pitch_bend_c, 1, 8192
3, 348672, Note_on_c, 1, 75, 79
3, 349184, Note_off_c, 1, 75, 80
3, 349184, Note_on_c, 1, 78, 79
3, 349696, Note_off_c, 1, 78, 80
3, 349696, Note_on_c, 1, 75, 79
3, 350208, Note_off_c, 1, 75, 80
3, 350208, Note_on_c, 1, 79, 79
3, 350720, Note_off_c, 1, 79, 80
3, 350720, Note_on_c, 1, 75, 79
3, 351232, Note_off_c, 1, 75, 80
3, 351232, Note_on_c, 1, 78, 79
3, 351232, Pitch_bend_c, 1, 8192
3, 351251, Pitch_bend_c, 1, 8192
3, 351270, Pitch_bend_c, 1, 8192
3, 351283, Pitch_bend_c, 1, 8192
3, 351302, Pitch_bend_c, 1, 8192
3, 351321, Pitch_bend_c, 1, 8192
3, 351340, Pitch_bend_c, 1, 8192
3, 351360, Pitch_bend_c, 1, 8192
3, 351372, Pitch_bend_c, 1, 8192
3, 351392, Pitch_bend_c, 1, 8192
3, 351411, Pitch_bend_c, 1, 8192
3, 351430, Pitch_bend_c, 1, 8192
3, 351449, Pitch_bend_c, 1, 8192
3, 351468, Pitch_bend_c, 1, 8192
3, 351481, Pitch_bend_c, 1, 8192
3, 351500, Pitch_bend_c, 1, 8192
3, 351520, Pitch_bend_c, 1, 8192
3, 351539, Pitch_bend_c, 1, 8192
3, 351558, Pitch_bend_c, 1, 8192
3, 351571, Pitch_bend_c, 1, 8192
3, 351590, Pitch_bend_c, 1, 8192
3, 351609, Pitch_bend_c, 1, 8192
3, 351628, Pitch_bend_c, 1, 8192
3, 351648, Pitch_bend_c, 1, 8192
3, 351667, Pitch_bend_c, 1, 8192
3, 351680, Pitch_bend_c, 1, 8192
3, 351699, Pitch_bend_c, 1, 8192
3, 351718, Pitch_bend_c, 1, 8192
3, 351737, Pitch_bend_c, 1, 8192
3, 351756, Pitch_bend_c, 1, 8192
3, 351769, Pitch_bend_c, 1, 8192
3, 351788, Pitch_bend_c, 1, 8192
3, 351808, Pitch_bend_c, 1, 8192
3, 351827, Pitch_bend_c, 1, 8192
3, 351846, Pitch_bend_c, 1, 8320
3, 351859, Pitch_bend_c, 1, 8320
3, 351878, Pitch_bend_c, 1, 8320
3, 351897, Pitch_bend_c, 1, 8448
3, 351916, Pitch_bend_c, 1, 8448
3, 351936, Pitch_bend_c, 1, 8448
3, 351948, Pitch_bend_c, 1, 8448
3, 351968, Pitch_bend_c, 1, 8448
3, 351987, Pitch_bend_c, 1, 8448
3, 352006, Pitch_bend_c, 1, 8448
3, 352025, Pitch_bend_c, 1, 8320
3, 352044, Pitch_bend_c, 1, 8320
3, 352057, Pitch_bend_c, 1, 8320
3, 352076, Pitch_bend_c, 1, 8192
3, 352096, Pitch_bend_c, 1, 8192
3, 352115, Pitch_bend_c, 1, 8192
3, 352134, Pitch_bend_c, 1, 8064
3, 352147, Pitch_bend_c, 1, 8064
3, 352166, Pitch_bend_c, 1, 8064
3, 352185, Pitch_bend_c, 1, 7936
3, 352204, Pitch_bend_c, 1, 7936
3, 352224, Pitch_bend_c, 1, 7936
3, 352243, Pitch_bend_c, 1, 7936
3, 352256, Note_off_c, 1, 78, 80
3, 352256, Pitch_bend_c, 1, 8192
3, 352256, Note_on_c, 1, 75, 79
3, 352384, Note_on_c, 1, 73, 79
3, 352384, Pitch_bend_c, 1, 8192
3, 352409, Pitch_bend_c, 1, 8192
3, 352435, Pitch_bend_c, 1, 8192
3, 352454, Pitch_bend_c, 1, 8192
3, 352480, Pitch_bend_c, 1, 8192
3, 352505, Pitch_bend_c, 1, 8192
3, 352524, Pitch_bend_c, 1, 8192
3, 352550, Pitch_bend_c, 1, 8192
3, 352576, Pitch_bend_c, 1, 8192
3, 352601, Pitch_bend_c, 1, 8192
3, 352627, Pitch_bend_c, 1, 8192
3, 352646, Pitch_bend_c, 1, 8192
3, 352672, Pitch_bend_c, 1, 8192
3, 352697, Pitch_bend_c, 1, 8192
3, 352716, Pitch_bend_c, 1, 8192
3, 352742, Pitch_bend_c, 1, 8192
3, 352768, Note_off_c, 1, 75, 80
3, 352768, Pitch_bend_c, 1, 8192
3, 353280, Note_off_c, 1, 73, 80
3, 353280, Note_on_c, 1, 75, 79
3, 353792, Note_on_c, 1, 73, 79
3, 354048, Note_on_c, 1, 84, 79
3, 354048, Pitch_bend_c, 1, 8192
3, 354099, Pitch_bend_c, 1, 8192
3, 354144, Pitch_bend_c, 1, 8192
3, 354188, Pitch_bend_c, 1, 8192
3, 354240, Pitch_bend_c, 1, 8192
3, 354291, Pitch_bend_c, 1, 8192
3, 354304, Note_off_c, 1, 73, 80
3, 354304, Note_on_c, 1, 70, 79
3, 354336, Pitch_bend_c, 1, 8192
3, 354380, Pitch_bend_c, 1, 8192
3, 354432, Pitch_bend_c, 1, 8192
3, 354483, Pitch_bend_c, 1, 8192
3, 354528, Pitch_bend_c, 1, 8192
3, 354572, Pitch_bend_c, 1, 8192
3, 354624, Pitch_bend_c, 1, 8192
3, 354675, Pitch_bend_c, 1, 8192
3, 354720, Pitch_bend_c, 1, 8192
3, 354764, Pitch_bend_c, 1, 8192
3, 354816, Note_off_c, 1, 70, 80
3, 354816, Pitch_bend_c, 1, 8832
3, 356352, Pitch_bend_c, 1, 8832
3, 357273, Pitch_bend_c, 1, 8704
3, 357376, Pitch_bend_c, 1, 8576
3, 357478, Pitch_bend_c, 1, 8448
3, 357580, Pitch_bend_c, 1, 8320
3, 357785, Pitch_bend_c, 1, 8192
3, 358656, Note_off_c, 1, 84, 80
3, 358656, Pitch_bend_c, 1, 8192
3, 358656, Note_on_c, 1, 74, 79
3, 359424, Note_off_c, 1, 74, 80
3, 359424, Note_on_c, 1, 74, 79
3, 359424, Pitch_bend_c, 1, 8192
3, 359443, Pitch_bend_c, 1, 8192
3, 359462, Pitch_bend_c, 1, 8192
3, 359475, Pitch_bend_c, 1, 8192
3, 359494, Pitch_bend_c, 1, 8192
3, 359513, Pitch_bend_c, 1, 8192
3, 359532, Pitch_bend_c, 1, 8192
3, 359552, Pitch_bend_c, 1, 8192
3, 359564, Pitch_bend_c, 1, 8192
3, 359584, Pitch_bend_c, 1, 8192
3, 359603, Pitch_bend_c, 1, 8192
3, 359622, Pitch_bend_c, 1, 8192
3, 359641, Pitch_bend_c, 1, 8192
3, 359660, Pitch_bend_c, 1, 8192
3, 359673, Pitch_bend_c, 1, 8192
3, 359692, Pitch_bend_c, 1, 8192
3, 359712, Pitch_bend_c, 1, 8192
3, 359731, Pitch_bend_c, 1, 8192
3, 359750, Pitch_bend_c, 1, 8192
3, 359763, Pitch_bend_c, 1, 8192
3, 359782, Pitch_bend_c, 1, 8192
3, 359801, Pitch_bend_c, 1, 8192
3, 359820, Pitch_bend_c, 1, 8192
3, 359840, Pitch_bend_c, 1, 8192
3, 359859, Pitch_bend_c, 1, 8192
3, 359872, Pitch_bend_c, 1, 8192
3, 359891, Pitch_bend_c, 1, 8192
3, 359910, Pitch_bend_c, 1, 8192
3, 359929, Pitch_bend_c, 1, 8192
3, 359948, Pitch_bend_c, 1, 8192
3, 359961, Pitch_bend_c, 1, 8192
3, 359980, Pitch_bend_c, 1, 8192
3, 360000, Pitch_bend_c, 1, 8192
3, 360019, Pitch_bend_c, 1, 8192
3, 360038, Pitch_bend_c, 1, 8320
3, 360051, Pitch_bend_c, 1, 8320
3, 360070, Pitch_bend_c, 1, 8448
3, 360089, Pitch_bend_c, 1, 8448
3, 360108, Pitch_bend_c, 1, 8448
3, 360128, Pitch_bend_c, 1, 8448
3, 360140, Pitch_bend_c, 1, 8448
3, 360160, Pitch_bend_c, 1, 8448
3, 360179, Pitch_bend_c, 1, 8448
3, 360198, Pitch_bend_c, 1, 8448
3, 360217, Pitch_bend_c, 1, 8448
3, 360236, Pitch_bend_c, 1, 8320
3, 360249, Pitch_bend_c, 1, 8320
3, 360268, Pitch_bend_c, 1, 8192
3, 360288, Pitch_bend_c, 1, 8192
3, 360307, Pitch_bend_c, 1, 8192
3, 360326, Pitch_bend_c, 1, 8064
3, 360339, Pitch_bend_c, 1, 8064
3, 360358, Pitch_bend_c, 1, 7936
3, 360377, Pitch_bend_c, 1, 7936
3, 360396, Pitch_bend_c, 1, 7936
3, 360416, Pitch_bend_c, 1, 7936
3, 360435, Pitch_bend_c, 1, 7936
3, 360448, Pitch_bend_c, 1, 7936
3, 360467, Pitch_bend_c, 1, 7936
3, 360486, Pitch_bend_c, 1, 7936
3, 360505, Pitch_bend_c, 1, 7936
3, 360524, Pitch_bend_c, 1, 8064
3, 360537, Pitch_bend_c, 1, 8064
3, 360556, Pitch_bend_c, 1, 8192
3, 360576, Pitch_bend_c, 1, 8192
3, 360595, Pitch_bend_c, 1, 8192
3, 360614, Pitch_bend_c, 1, 8320
3, 360627, Pitch_bend_c, 1, 8320
3, 360646, Pitch_bend_c, 1, 8320
3, 360665, Pitch_bend_c, 1, 8448
3, 360684, Pitch_bend_c, 1, 8448
3, 360704, Pitch_bend_c, 1, 8448
3, 360716, Pitch_bend_c, 1, 8448
3, 360736, Pitch_bend_c, 1, 8448
3, 360755, Pitch_bend_c, 1, 8448
3, 360774, Pitch_bend_c, 1, 8448
3, 360793, Pitch_bend_c, 1, 8320
3, 360812, Pitch_bend_c, 1, 8320
3, 360825, Pitch_bend_c, 1, 8320
3, 360844, Pitch_bend_c, 1, 8192
3, 360864, Pitch_bend_c, 1, 8192
3, 360883, Pitch_bend_c, 1, 8192
3, 360902, Pitch_bend_c, 1, 8064
3, 360915, Pitch_bend_c, 1, 8064
3, 360934, Pitch_bend_c, 1, 8064
3, 360953, Pitch_bend_c, 1, 7936
3, 360972, Pitch_bend_c, 1, 7936
3, 360992, Pitch_bend_c, 1, 7936
3, 361011, Pitch_bend_c, 1, 7936
3, 361024, Pitch_bend_c, 1, 7936
3, 361043, Pitch_bend_c, 1, 7936
3, 361062, Pitch_bend_c, 1, 7936
3, 361081, Pitch_bend_c, 1, 8064
3, 361100, Pitch_bend_c, 1, 8064
3, 361113, Pitch_bend_c, 1, 8064
3, 361132, Pitch_bend_c, 1, 8192
3, 361152, Pitch_bend_c, 1, 8192
3, 361171, Pitch_bend_c, 1, 8192
3, 361190, Pitch_bend_c, 1, 8320
3, 361203, Pitch_bend_c, 1, 8320
3, 361222, Pitch_bend_c, 1, 8320
3, 361241, Pitch_bend_c, 1, 8320
3, 361260, Pitch_bend_c, 1, 8320
3, 361280, Pitch_bend_c, 1, 8448
3, 361292, Pitch_bend_c, 1, 8448
3, 361312, Pitch_bend_c, 1, 8448
3, 361331, Pitch_bend_c, 1, 8320
3, 361350, Pitch_bend_c, 1, 8320
3, 361369, Pitch_bend_c, 1, 8320
3, 361388, Pitch_bend_c, 1, 8320
3, 361401, Pitch_bend_c, 1, 8320
3, 361420, Pitch_bend_c, 1, 8192
3, 361440, Pitch_bend_c, 1, 8192
3, 361459, Pitch_bend_c, 1, 8192
3, 361478, Pitch_bend_c, 1, 8064
3, 361491, Pitch_bend_c, 1, 8064
3, 361510, Pitch_bend_c, 1, 8064
3, 361529, Pitch_bend_c, 1, 8064
3, 361548, Pitch_bend_c, 1, 8064
3, 361568, Pitch_bend_c, 1, 7936
3, 361587, Pitch_bend_c, 1, 7936
3, 361600, Pitch_bend_c, 1, 7936
3, 361619, Pitch_bend_c, 1, 8064
3, 361638, Pitch_bend_c, 1, 8064
3, 361657, Pitch_bend_c, 1, 8064
3, 361676, Pitch_bend_c, 1, 8064
3, 361689, Pitch_bend_c, 1, 8064
3, 361708, Pitch_bend_c, 1, 8192
3, 361728, Pitch_bend_c, 1, 8192
3, 361747, Pitch_bend_c, 1, 8192
3, 361766, Pitch_bend_c, 1, 8320
3, 361779, Pitch_bend_c, 1, 8320
3, 361798, Pitch_bend_c, 1, 8320
3, 361817, Pitch_bend_c, 1, 8448
3, 361836, Pitch_bend_c, 1, 8448
3, 361856, Pitch_bend_c, 1, 8448
3, 361868, Pitch_bend_c, 1, 8448
3, 361888, Pitch_bend_c, 1, 8448
3, 361907, Pitch_bend_c, 1, 8448
3, 361926, Pitch_bend_c, 1, 8448
3, 361945, Pitch_bend_c, 1, 8320
3, 361964, Pitch_bend_c, 1, 8320
3, 361977, Pitch_bend_c, 1, 8320
3, 361996, Pitch_bend_c, 1, 8192
3, 362016, Pitch_bend_c, 1, 8192
3, 362035, Pitch_bend_c, 1, 8192
3, 362054, Pitch_bend_c, 1, 8064
3, 362067, Pitch_bend_c, 1, 8064
3, 362086, Pitch_bend_c, 1, 8064
3, 362105, Pitch_bend_c, 1, 7936
3, 362124, Pitch_bend_c, 1, 7936
3, 362144, Pitch_bend_c, 1, 7936
3, 362163, Pitch_bend_c, 1, 7936
3, 362176, Pitch_bend_c, 1, 7936
3, 362195, Pitch_bend_c, 1, 7936
3, 362214, Pitch_bend_c, 1, 7936
3, 362233, Pitch_bend_c, 1, 8064
3, 362252, Pitch_bend_c, 1, 8064
3, 362265, Pitch_bend_c, 1, 8064
3, 362284, Pitch_bend_c, 1, 8192
3, 362304, Pitch_bend_c, 1, 8192
3, 362323, Pitch_bend_c, 1, 8192
3, 362342, Pitch_bend_c, 1, 8192
3, 362355, Pitch_bend_c, 1, 8192
3, 362374, Pitch_bend_c, 1, 8320
3, 362393, Pitch_bend_c, 1, 8320
3, 362412, Pitch_bend_c, 1, 8320
3, 362432, Pitch_bend_c, 1, 8320
3, 362444, Pitch_bend_c, 1, 8320
3, 362464, Pitch_bend_c, 1, 8320
3, 362483, Pitch_bend_c, 1, 8320
3, 362496, Pitch_bend_c, 1, 8192
3, 362515, Pitch_bend_c, 1, 8192
3, 362534, Pitch_bend_c, 1, 8192
3, 362547, Pitch_bend_c, 1, 8192
3, 362566, Pitch_bend_c, 1, 8192
3, 362585, Pitch_bend_c, 1, 8192
3, 362604, Pitch_bend_c, 1, 8192
3, 362624, Pitch_bend_c, 1, 8192
3, 362636, Pitch_bend_c, 1, 8192
3, 362656, Pitch_bend_c, 1, 8192
3, 362675, Pitch_bend_c, 1, 8192
3, 362694, Pitch_bend_c, 1, 8192
3, 362713, Pitch_bend_c, 1, 8192
3, 362732, Pitch_bend_c, 1, 8192
3, 362745, Pitch_bend_c, 1, 8192
3, 362764, Pitch_bend_c, 1, 8192
3, 362784, Pitch_bend_c, 1, 8192
3, 362803, Pitch_bend_c, 1, 8192
3, 362822, Pitch_bend_c, 1, 8192
3, 362835, Pitch_bend_c, 1, 8192
3, 362854, Pitch_bend_c, 1, 8192
3, 362873, Pitch_bend_c, 1, 8192
3, 362892, Pitch_bend_c, 1, 8192
3, 362912, Pitch_bend_c, 1, 8192
3, 362931, Pitch_bend_c, 1, 8192
3, 362944, Pitch_bend_c, 1, 8192
3, 362963, Pitch_bend_c, 1, 8192
3, 362982, Pitch_bend_c, 1, 8192
3, 363001, Pitch_bend_c, 1, 8192
3, 363020, Pitch_bend_c, 1, 8192
3, 363033, Pitch_bend_c, 1, 8192
3, 363052, Pitch_bend_c, 1, 8192
3, 363072, Pitch_bend_c, 1, 8192
3, 363091, Pitch_bend_c, 1, 8192
3, 363110, Pitch_bend_c, 1, 8320
3, 363123, Pitch_bend_c, 1, 8320
3, 363142, Pitch_bend_c, 1, 8320
3, 363161, Pitch_bend_c, 1, 8320
3, 363180, Pitch_bend_c, 1, 8320
3, 363200, Pitch_bend_c, 1, 8320
3, 363212, Pitch_bend_c, 1, 8320
3, 363232, Pitch_bend_c, 1, 8320
3, 363251, Pitch_bend_c, 1, 8320
3, 363270, Pitch_bend_c, 1, 8320
3, 363289, Pitch_bend_c, 1, 8320
3, 363308, Pitch_bend_c, 1, 8320
3, 363321, Pitch_bend_c, 1, 8320
3, 363340, Pitch_bend_c, 1, 8192
3, 363360, Pitch_bend_c, 1, 8192
3, 363379, Pitch_bend_c, 1, 8192
3, 363398, Pitch_bend_c, 1, 8064
3, 363411, Pitch_bend_c, 1, 8064
3, 363430, Pitch_bend_c, 1, 8064
3, 363449, Pitch_bend_c, 1, 8064
3, 363468, Pitch_bend_c, 1, 8064
3, 363488, Pitch_bend_c, 1, 8064
3, 363507, Pitch_bend_c, 1, 8064
3, 363520, Pitch_bend_c, 1, 8064
3, 363539, Pitch_bend_c, 1, 8064
3, 363558, Pitch_bend_c, 1, 8064
3, 363577, Pitch_bend_c, 1, 8064
3, 363596, Pitch_bend_c, 1, 8064
3, 363609, Pitch_bend_c, 1, 8064
3, 363628, Pitch_bend_c, 1, 8192
3, 363648, Pitch_bend_c, 1, 8192
3, 363667, Pitch_bend_c, 1, 8192
3, 363686, Pitch_bend_c, 1, 8320
3, 363699, Pitch_bend_c, 1, 8320
3, 363718, Pitch_bend_c, 1, 8320
3, 363737, Pitch_bend_c, 1, 8448
3, 363756, Pitch_bend_c, 1, 8448
3, 363776, Pitch_bend_c, 1, 8448
3, 363788, Pitch_bend_c, 1, 8448
3, 363808, Pitch_bend_c, 1, 8448
3, 363827, Pitch_bend_c, 1, 8448
3, 363846, Pitch_bend_c, 1, 8448
3, 363865, Pitch_bend_c, 1, 8320
3, 363884, Pitch_bend_c, 1, 8320
3, 363897, Pitch_bend_c, 1, 8320
3, 363916, Pitch_bend_c, 1, 8192
3, 363936, Pitch_bend_c, 1, 8192
3, 363955, Pitch_bend_c, 1, 8192
3, 363974, Pitch_bend_c, 1, 8064
3, 363987, Pitch_bend_c, 1, 8064
3, 364006, Pitch_bend_c, 1, 8064
3, 364025, Pitch_bend_c, 1, 7936
3, 364044, Pitch_bend_c, 1, 7936
3, 364064, Pitch_bend_c, 1, 7936
3, 364083, Pitch_bend_c, 1, 7936
3, 364096, Pitch_bend_c, 1, 7936
3, 364115, Pitch_bend_c, 1, 7936
3, 364134, Pitch_bend_c, 1, 7936
3, 364153, Pitch_bend_c, 1, 8064
3, 364172, Pitch_bend_c, 1, 8064
3, 364185, Pitch_bend_c, 1, 8064
3, 364204, Pitch_bend_c, 1, 8192
3, 364224, Pitch_bend_c, 1, 8192
3, 364243, Pitch_bend_c, 1, 8192
3, 364262, Pitch_bend_c, 1, 8320
3, 364275, Pitch_bend_c, 1, 8320
3, 364294, Pitch_bend_c, 1, 8320
3, 364313, Pitch_bend_c, 1, 8448
3, 364332, Pitch_bend_c, 1, 8448
3, 364352, Pitch_bend_c, 1, 8448
3, 364364, Pitch_bend_c, 1, 8448
3, 364384, Pitch_bend_c, 1, 8448
3, 364403, Pitch_bend_c, 1, 8448
3, 364422, Pitch_bend_c, 1, 8448
3, 364441, Pitch_bend_c, 1, 8320
3, 364460, Pitch_bend_c, 1, 8320
3, 364473, Pitch_bend_c, 1, 8320
3, 364492, Pitch_bend_c, 1, 8192
3, 364512, Pitch_bend_c, 1, 8192
3, 364531, Pitch_bend_c, 1, 8192
3, 364550, Pitch_bend_c, 1, 8064
3, 364563, Pitch_bend_c, 1, 8064
3, 364582, Pitch_bend_c, 1, 8064
3, 364601, Pitch_bend_c, 1, 7936
3, 364620, Pitch_bend_c, 1, 7936
3, 364640, Pitch_bend_c, 1, 7936
3, 364659, Pitch_bend_c, 1, 7936
3, 364672, Pitch_bend_c, 1, 7936
3, 364691, Pitch_bend_c, 1, 7936
3, 364710, Pitch_bend_c, 1, 7936
3, 364729, Pitch_bend_c, 1, 8064
3, 364748, Pitch_bend_c, 1, 8064
3, 364761, Pitch_bend_c, 1, 8064
3, 364780, Pitch_bend_c, 1, 8192
3, 364800, Note_off_c, 1, 74, 80
3, 364800, Pitch_bend_c, 1, 8192
3, 364800, Note_on_c, 1, 76, 79
3, 365184, Note_off_c, 1, 76, 80
3, 365184, Note_on_c, 1, 74, 79
3, 365184, Note_on_c, 1, 76, 79
3, 365184, Pitch_bend_c, 1, 8192
3, 365184, Note_off_c, 1, 74, 80
3, 365209, Pitch_bend_c, 1, 8192
3, 365235, Pitch_bend_c, 1, 8192
3, 365254, Pitch_bend_c, 1, 8192
3, 365280, Pitch_bend_c, 1, 8192
3, 365305, Pitch_bend_c, 1, 8192
3, 365324, Pitch_bend_c, 1, 8192
3, 365350, Pitch_bend_c, 1, 8192
3, 365376, Pitch_bend_c, 1, 8192
3, 365401, Pitch_bend_c, 1, 8192
3, 365427, Pitch_bend_c, 1, 8192
3, 365446, Pitch_bend_c, 1, 8192
3, 365472, Pitch_bend_c, 1, 8192
3, 365497, Pitch_bend_c, 1, 8192
3, 365516, Pitch_bend_c, 1, 8192
3, 365542, Pitch_bend_c, 1, 8192
3, 365568, Pitch_bend_c, 1, 8192
3, 366592, Note_off_c, 1, 76, 80
3, 366592, Note_on_c, 1, 76, 79
3, 367104, Note_off_c, 1, 76, 80
3, 367616, Note_on_c, 1, 74, 79
3, 367872, Note_on_c, 1, 77, 79
3, 367872, Pitch_bend_c, 1, 8192
3, 367923, Pitch_bend_c, 1, 8192
3, 367968, Pitch_bend_c, 1, 8192
3, 368012, Pitch_bend_c, 1, 8192
3, 368064, Pitch_bend_c, 1, 8192
3, 368115, Pitch_bend_c, 1, 8192
3, 368160, Pitch_bend_c, 1, 8192
3, 368204, Pitch_bend_c, 1, 8192
3, 368256, Pitch_bend_c, 1, 8192
3, 368307, Pitch_bend_c, 1, 8192
3, 368352, Pitch_bend_c, 1, 8192
3, 368396, Pitch_bend_c, 1, 8192
3, 368448, Pitch_bend_c, 1, 8192
3, 368499, Pitch_bend_c, 1, 8192
3, 368544, Pitch_bend_c, 1, 8192
3, 368588, Pitch_bend_c, 1, 8192
3, 368640, Pitch_bend_c, 1, 8192
3, 369408, Note_off_c, 1, 77, 80
3, 369408, Note_on_c, 1, 77, 79
3, 369408, Pitch_bend_c, 1, 8192
3, 369427, Pitch_bend_c, 1, 8192
3, 369446, Pitch_bend_c, 1, 8192
3, 369459, Pitch_bend_c, 1, 8192
3, 369478, Pitch_bend_c, 1, 8192
3, 369497, Pitch_bend_c, 1, 8192
3, 369516, Pitch_bend_c, 1, 8192
3, 369536, Pitch_bend_c, 1, 8192
3, 369548, Pitch_bend_c, 1, 8192
3, 369568, Pitch_bend_c, 1, 8192
3, 369587, Pitch_bend_c, 1, 8192
3, 369606, Pitch_bend_c, 1, 8192
3, 369625, Pitch_bend_c, 1, 8192
3, 369644, Pitch_bend_c, 1, 8192
3, 369657, Pitch_bend_c, 1, 8192
3, 369676, Pitch_bend_c, 1, 8192
3, 369696, Pitch_bend_c, 1, 8192
3, 369715, Pitch_bend_c, 1, 8192
3, 369734, Pitch_bend_c, 1, 8192
3, 369747, Pitch_bend_c, 1, 8192
3, 369766, Pitch_bend_c, 1, 8192
3, 369785, Pitch_bend_c, 1, 8192
3, 369804, Pitch_bend_c, 1, 8192
3, 369824, Pitch_bend_c, 1, 8192
3, 369843, Pitch_bend_c, 1, 8192
3, 369856, Pitch_bend_c, 1, 8192
3, 369875, Pitch_bend_c, 1, 8192
3, 369894, Pitch_bend_c, 1, 8192
3, 369913, Pitch_bend_c, 1, 8192
3, 369932, Pitch_bend_c, 1, 8192
3, 369945, Pitch_bend_c, 1, 8192
3, 369964, Pitch_bend_c, 1, 8192
3, 369984, Pitch_bend_c, 1, 8192
3, 370003, Pitch_bend_c, 1, 8192
3, 370022, Pitch_bend_c, 1, 8320
3, 370035, Pitch_bend_c, 1, 8320
3, 370054, Pitch_bend_c, 1, 8320
3, 370073, Pitch_bend_c, 1, 8448
3, 370092, Pitch_bend_c, 1, 8448
3, 370112, Pitch_bend_c, 1, 8448
3, 370124, Pitch_bend_c, 1, 8448
3, 370144, Pitch_bend_c, 1, 8448
3, 370163, Pitch_bend_c, 1, 8448
3, 370182, Pitch_bend_c, 1, 8448
3, 370201, Pitch_bend_c, 1, 8320
3, 370220, Pitch_bend_c, 1, 8320
3, 370233, Pitch_bend_c, 1, 8320
3, 370252, Pitch_bend_c, 1, 8192
3, 370272, Pitch_bend_c, 1, 8192
3, 370291, Pitch_bend_c, 1, 8192
3, 370310, Pitch_bend_c, 1, 8064
3, 370323, Pitch_bend_c, 1, 8064
3, 370342, Pitch_bend_c, 1, 8064
3, 370361, Pitch_bend_c, 1, 7936
3, 370380, Pitch_bend_c, 1, 7936
3, 370400, Pitch_bend_c, 1, 7936
3, 370419, Pitch_bend_c, 1, 7936
3, 370432, Pitch_bend_c, 1, 7936
3, 370451, Pitch_bend_c, 1, 7936
3, 370470, Pitch_bend_c, 1, 7936
3, 370489, Pitch_bend_c, 1, 8064
3, 370508, Pitch_bend_c, 1, 8064
3, 370521, Pitch_bend_c, 1, 8064
3, 370540, Pitch_bend_c, 1, 8192
3, 370560, Pitch_bend_c, 1, 8192
3, 370579, Pitch_bend_c, 1, 8192
3, 370598, Pitch_bend_c, 1, 8320
3, 370611, Pitch_bend_c, 1, 8320
3, 370630, Pitch_bend_c, 1, 8320
3, 370649, Pitch_bend_c, 1, 8448
3, 370668, Pitch_bend_c, 1, 8448
3, 370688, Pitch_bend_c, 1, 8448
3, 370700, Pitch_bend_c, 1, 8448
3, 370720, Pitch_bend_c, 1, 8448
3, 370739, Pitch_bend_c, 1, 8448
3, 370758, Pitch_bend_c, 1, 8448
3, 370777, Pitch_bend_c, 1, 8320
3, 370796, Pitch_bend_c, 1, 8320
3, 370809, Pitch_bend_c, 1, 8320
3, 370828, Pitch_bend_c, 1, 8192
3, 370848, Pitch_bend_c, 1, 8192
3, 370867, Pitch_bend_c, 1, 8192
3, 370886, Pitch_bend_c, 1, 8064
3, 370899, Pitch_bend_c, 1, 8064
3, 370918, Pitch_bend_c, 1, 8064
3, 370937, Pitch_bend_c, 1, 7936
3, 370956, Pitch_bend_c, 1, 7936
3, 370976, Pitch_bend_c, 1, 7936
3, 370995, Pitch_bend_c, 1, 7936
3, 371008, Pitch_bend_c, 1, 7936
3, 371027, Pitch_bend_c, 1, 7936
3, 371046, Pitch_bend_c, 1, 7936
3, 371065, Pitch_bend_c, 1, 8064
3, 371084, Pitch_bend_c, 1, 8064
3, 371097, Pitch_bend_c, 1, 8064
3, 371116, Pitch_bend_c, 1, 8192
3, 371136, Pitch_bend_c, 1, 8192
3, 371155, Pitch_bend_c, 1, 8192
3, 371174, Pitch_bend_c, 1, 8320
3, 371187, Pitch_bend_c, 1, 8320
3, 371206, Pitch_bend_c, 1, 8320
3, 371225, Pitch_bend_c, 1, 8448
3, 371244, Pitch_bend_c, 1, 8448
3, 371264, Pitch_bend_c, 1, 8448
3, 371276, Pitch_bend_c, 1, 8448
3, 371296, Pitch_bend_c, 1, 8448
3, 371315, Pitch_bend_c, 1, 8448
3, 371334, Pitch_bend_c, 1, 8448
3, 371353, Pitch_bend_c, 1, 8320
3, 371372, Pitch_bend_c, 1, 8320
3, 371385, Pitch_bend_c, 1, 8320
3, 371404, Pitch_bend_c, 1, 8192
3, 371424, Pitch_bend_c, 1, 8192
3, 371443, Pitch_bend_c, 1, 8192
3, 371462, Pitch_bend_c, 1, 8064
3, 371475, Pitch_bend_c, 1, 8064
3, 371494, Pitch_bend_c, 1, 8064
3, 371513, Pitch_bend_c, 1, 7936
3, 371532, Pitch_bend_c, 1, 7936
3, 371552, Pitch_bend_c, 1, 7936
3, 371571, Pitch_bend_c, 1, 7936
3, 371584, Pitch_bend_c, 1, 7936
3, 371603, Pitch_bend_c, 1, 7936
3, 371622, Pitch_bend_c, 1, 7936
3, 371641, Pitch_bend_c, 1, 8064
3, 371660, Pitch_bend_c, 1, 8064
3, 371673, Pitch_bend_c, 1, 8064
3, 371692, Pitch_bend_c, 1, 8192
3, 371712, Pitch_bend_c, 1, 8192
3, 371731, Pitch_bend_c, 1, 8192
3, 371750, Pitch_bend_c, 1, 8192
3, 371763, Pitch_bend_c, 1, 8192
3, 371782, Pitch_bend_c, 1, 8192
3, 371801, Pitch_bend_c, 1, 8192
3, 371820, Pitch_bend_c, 1, 8192
3, 371840, Pitch_bend_c, 1, 8192
3, 371852, Pitch_bend_c, 1, 8192
3, 371872, Pitch_bend_c, 1, 8192
3, 371891, Pitch_bend_c, 1, 8192
3, 371910, Pitch_bend_c, 1, 8192
3, 371929, Pitch_bend_c, 1, 8192
3, 371948, Pitch_bend_c, 1, 8192
3, 371961, Pitch_bend_c, 1, 8192
3, 371980, Pitch_bend_c, 1, 8192
3, 372000, Pitch_bend_c, 1, 8192
3, 372019, Pitch_bend_c, 1, 8192
3, 372038, Pitch_bend_c, 1, 8192
3, 372051, Pitch_bend_c, 1, 8192
3, 372070, Pitch_bend_c, 1, 8192
3, 372089, Pitch_bend_c, 1, 8192
3, 372108, Pitch_bend_c, 1, 8192
3, 372128, Pitch_bend_c, 1, 8192
3, 372147, Pitch_bend_c, 1, 8192
3, 372160, Pitch_bend_c, 1, 8192
3, 372179, Pitch_bend_c, 1, 8192
3, 372198, Pitch_bend_c, 1, 8192
3, 372217, Pitch_bend_c, 1, 8192
3, 372236, Pitch_bend_c, 1, 8192
3, 372249, Pitch_bend_c, 1, 8192
3, 372268, Pitch_bend_c, 1, 8192
3, 372288, Pitch_bend_c, 1, 8192
3, 372307, Pitch_bend_c, 1, 8192
3, 372326, Pitch_bend_c, 1, 8320
3, 372339, Pitch_bend_c, 1, 8320
3, 372358, Pitch_bend_c, 1, 8320
3, 372377, Pitch_bend_c, 1, 8320
3, 372396, Pitch_bend_c, 1, 8448
3, 372416, Pitch_bend_c, 1, 8448
3, 372428, Pitch_bend_c, 1, 8448
3, 372448, Pitch_bend_c, 1, 8448
3, 372467, Pitch_bend_c, 1, 8448
3, 372480, Note_off_c, 1, 77, 80
3, 372480, Note_off_c, 1, 74, 80
3, 372480, Pitch_bend_c, 1, 8192
3, 372480, Note_on_c, 1, 79, 79
3, 372480, Note_on_c, 1, 77, 79
3, 372531, Pitch_bend_c, 1, 8192
3, 372576, Pitch_bend_c, 1, 8192
3, 372620, Pitch_bend_c, 1, 8192
3, 372672, Pitch_bend_c, 1, 8192
3, 372723, Pitch_bend_c, 1, 8192
3, 372736, Note_off_c, 1, 79, 80
3, 372736, Note_on_c, 1, 77, 79
3, 372768, Pitch_bend_c, 1, 8192
3, 372812, Pitch_bend_c, 1, 8192
3, 372864, Pitch_bend_c, 1, 8192
3, 372915, Pitch_bend_c, 1, 8192
3, 372960, Pitch_bend_c, 1, 8192
3, 372992, Note_off_c, 1, 77, 80
3, 372992, Note_on_c, 1, 74, 79
3, 373004, Pitch_bend_c, 1, 8192
3, 373056, Pitch_bend_c, 1, 8192
3, 373107, Pitch_bend_c, 1, 8192
3, 373152, Pitch_bend_c, 1, 8192
3, 373196, Pitch_bend_c, 1, 8192
3, 373248, Pitch_bend_c, 1, 8192
3, 374016, Note_off_c, 1, 77, 80
3, 374016, Note_on_c, 1, 77, 79
3, 374016, Pitch_bend_c, 1, 8192
3, 374035, Pitch_bend_c, 1, 8192
3, 374054, Pitch_bend_c, 1, 8192
3, 374067, Pitch_bend_c, 1, 8192
3, 374086, Pitch_bend_c, 1, 8192
3, 374105, Pitch_bend_c, 1, 8192
3, 374124, Pitch_bend_c, 1, 8192
3, 374144, Pitch_bend_c, 1, 8192
3, 374156, Pitch_bend_c, 1, 8192
3, 374176, Pitch_bend_c, 1, 8192
3, 374195, Pitch_bend_c, 1, 8192
3, 374214, Pitch_bend_c, 1, 8192
3, 374233, Pitch_bend_c, 1, 8192
3, 374252, Pitch_bend_c, 1, 8192
3, 374265, Pitch_bend_c, 1, 8192
3, 374284, Pitch_bend_c, 1, 8192
3, 374304, Pitch_bend_c, 1, 8192
3, 374323, Pitch_bend_c, 1, 8192
3, 374342, Pitch_bend_c, 1, 8192
3, 374355, Pitch_bend_c, 1, 8192
3, 374374, Pitch_bend_c, 1, 8192
3, 374393, Pitch_bend_c, 1, 8192
3, 374412, Pitch_bend_c, 1, 8192
3, 374432, Pitch_bend_c, 1, 8192
3, 374451, Pitch_bend_c, 1, 8192
3, 374464, Pitch_bend_c, 1, 8192
3, 374483, Pitch_bend_c, 1, 8192
3, 374502, Pitch_bend_c, 1, 8192
3, 374521, Pitch_bend_c, 1, 8192
3, 374540, Pitch_bend_c, 1, 8192
3, 374553, Pitch_bend_c, 1, 8192
3, 374572, Pitch_bend_c, 1, 8192
3, 374592, Pitch_bend_c, 1, 8192
3, 374611, Pitch_bend_c, 1, 8320
3, 374630, Pitch_bend_c, 1, 8320
3, 374643, Pitch_bend_c, 1, 8320
3, 374662, Pitch_bend_c, 1, 8448
3, 374681, Pitch_bend_c, 1, 8448
3, 374700, Pitch_bend_c, 1, 8448
3, 374720, Pitch_bend_c, 1, 8448
3, 374732, Pitch_bend_c, 1, 8448
3, 374752, Pitch_bend_c, 1, 8448
3, 374771, Pitch_bend_c, 1, 8448
3, 374784, Pitch_bend_c, 1, 8192
3, 374803, Pitch_bend_c, 1, 8192
3, 374822, Pitch_bend_c, 1, 8192
3, 374835, Pitch_bend_c, 1, 8192
3, 374854, Pitch_bend_c, 1, 8192
3, 374873, Pitch_bend_c, 1, 8192
3, 374892, Pitch_bend_c, 1, 8192
3, 374912, Pitch_bend_c, 1, 8192
3, 374924, Pitch_bend_c, 1, 8192
3, 374944, Pitch_bend_c, 1, 8192
3, 374963, Pitch_bend_c, 1, 8192
3, 374982, Pitch_bend_c, 1, 8192
3, 375001, Pitch_bend_c, 1, 8192
3, 375020, Pitch_bend_c, 1, 8192
3, 375033, Pitch_bend_c, 1, 8192
3, 375052, Pitch_bend_c, 1, 8192
3, 375072, Pitch_bend_c, 1, 8192
3, 375091, Pitch_bend_c, 1, 8192
3, 375110, Pitch_bend_c, 1, 8192
3, 375123, Pitch_bend_c, 1, 8192
3, 375142, Pitch_bend_c, 1, 8192
3, 375161, Pitch_bend_c, 1, 8192
3, 375168, Note_off_c, 1, 77, 80
3, 375168, Pitch_bend_c, 1, 8192
3, 375168, Note_on_c, 1, 79, 79
3, 375552, Note_off_c, 1, 79, 80
3, 375552, Note_on_c, 1, 77, 79
3, 375808, Note_off_c, 1, 77, 80
3, 375808, Note_on_c, 1, 74, 79
3, 376064, Note_off_c, 1, 74, 80
3, 376064, Note_on_c, 1, 82, 79
3, 376064, Pitch_bend_c, 1, 8192
3, 376166, Pitch_bend_c, 1, 8832
3, 376268, Pitch_bend_c, 1, 9600
3, 377088, Note_off_c, 1, 82, 80
3, 377088, Pitch_bend_c, 1, 8192
3, 377088, Note_on_c, 1, 82, 79
3, 377190, Pitch_bend_c, 1, 9344
3, 377292, Pitch_bend_c, 1, 9600
3, 377856, Note_off_c, 1, 82, 80
3, 377856, Pitch_bend_c, 1, 8192
3, 377856, Note_on_c, 1, 79, 79
3, 378240, Note_off_c, 1, 79, 80
3, 378240, Note_on_c, 1, 77, 79
3, 378624, Note_off_c, 1, 77, 80
3, 378624, Note_on_c, 1, 74, 79
3, 379008, Note_off_c, 1, 74, 80
3, 379008, Note_on_c, 1, 72, 79
3, 379008, Pitch_bend_c, 1, 8192
3, 379110, Pitch_bend_c, 1, 8704
3, 379212, Pitch_bend_c, 1, 8832
3, 379417, Pitch_bend_c, 1, 8448
3, 379520, Pitch_bend_c, 1, 8192
3, 379776, Note_off_c, 1, 72, 80
3, 379776, Pitch_bend_c, 1, 8192
3, 379776, Note_on_c, 1, 70, 79
3, 380160, Note_off_c, 1, 70, 80
3, 380160, Note_on_c, 1, 67, 79
3, 380544, Note_off_c, 1, 67, 80
3, 380544, Note_on_c, 1, 65, 79
3, 380928, Note_off_c, 1, 65, 80
3, 380928, Note_on_c, 1, 67, 79
3, 381312, Note_off_c, 1, 67, 80
3, 381312, Note_on_c, 1, 65, 63
3, 381696, Note_off_c, 1, 65, 80
3, 381696, Note_on_c, 1, 62, 79
3, 382080, Note_off_c, 1, 62, 80
3, 382080, Note_on_c, 1, 60, 79
3, 382464, Note_off_c, 1, 60, 80
3, 382464, Note_on_c, 1, 72, 79
3, 382848, Note_off_c, 1, 72, 80
3, 383232, Note_on_c, 1, 70, 79
3, 383232, Pitch_bend_c, 1, 8192
3, 383334, Pitch_bend_c, 1, 9600
3, 383488, Pitch_bend_c, 1, 9600
3, 383692, Pitch_bend_c, 1, 9344
3, 383795, Pitch_bend_c, 1, 8320
3, 383897, Pitch_bend_c, 1, 8192
3, 384000, Note_off_c, 1, 70, 80
3, 384000, Pitch_bend_c, 1, 8192
3, 384000, Note_on_c, 1, 67, 79
3, 384384, Note_off_c, 1, 67, 80
3, 384384, Note_on_c, 1, 65, 79
3, 384768, Note_off_c, 1, 65, 80
3, 384768, Note_on_c, 1, 62, 79
3, 385152, Note_off_c, 1, 62, 80
3, 385152, Note_on_c, 1, 61, 79
3, 385536, Note_off_c, 1, 61, 80
3, 385536, Note_on_c, 1, 60, 79
3, 385728, Note_off_c, 1, 60, 80
3, 385728, Note_on_c, 1, 61, 63
3, 385920, Note_off_c, 1, 61, 80
3, 385920, Note_on_c, 1, 60, 63
3, 386304, Note_off_c, 1, 60, 80
3, 386304, Note_on_c, 1, 58, 79
3, 386688, Note_off_c, 1, 58, 80
3, 386688, Note_on_c, 1, 55, 79
3, 387072, Note_off_c, 1, 55, 80
3, 387072, Note_on_c, 1, 67, 79
3, 387072, Pitch_bend_c, 1, 8192
3, 387091, Pitch_bend_c, 1, 8192
3, 387110, Pitch_bend_c, 1, 8192
3, 387123, Pitch_bend_c, 1, 8192
3, 387142, Pitch_bend_c, 1, 8192
3, 387161, Pitch_bend_c, 1, 8192
3, 387180, Pitch_bend_c, 1, 8192
3, 387200, Pitch_bend_c, 1, 8192
3, 387212, Pitch_bend_c, 1, 8192
3, 387232, Pitch_bend_c, 1, 8192
3, 387251, Pitch_bend_c, 1, 8192
3, 387270, Pitch_bend_c, 1, 8192
3, 387289, Pitch_bend_c, 1, 8192
3, 387308, Pitch_bend_c, 1, 8192
3, 387321, Pitch_bend_c, 1, 8192
3, 387340, Pitch_bend_c, 1, 8192
3, 387360, Pitch_bend_c, 1, 8192
3, 387379, Pitch_bend_c, 1, 8192
3, 387398, Pitch_bend_c, 1, 8192
3, 387411, Pitch_bend_c, 1, 8192
3, 387430, Pitch_bend_c, 1, 8192
3, 387449, Pitch_bend_c, 1, 8192
3, 387468, Pitch_bend_c, 1, 8192
3, 387488, Pitch_bend_c, 1, 8192
3, 387507, Pitch_bend_c, 1, 8192
3, 387520, Pitch_bend_c, 1, 8192
3, 387539, Pitch_bend_c, 1, 8192
3, 387558, Pitch_bend_c, 1, 8192
3, 387577, Pitch_bend_c, 1, 8192
3, 387596, Pitch_bend_c, 1, 8192
3, 387609, Pitch_bend_c, 1, 8192
3, 387628, Pitch_bend_c, 1, 8192
3, 387648, Pitch_bend_c, 1, 8192
3, 387667, Pitch_bend_c, 1, 8192
3, 387686, Pitch_bend_c, 1, 8320
3, 387699, Pitch_bend_c, 1, 8320
3, 387718, Pitch_bend_c, 1, 8320
3, 387737, Pitch_bend_c, 1, 8448
3, 387756, Pitch_bend_c, 1, 8448
3, 387776, Pitch_bend_c, 1, 8448
3, 387788, Pitch_bend_c, 1, 8448
3, 387808, Pitch_bend_c, 1, 8448
3, 387827, Pitch_bend_c, 1, 8448
3, 387846, Pitch_bend_c, 1, 8448
3, 387865, Pitch_bend_c, 1, 8320
3, 387884, Pitch_bend_c, 1, 8320
3, 387897, Pitch_bend_c, 1, 8320
3, 387916, Pitch_bend_c, 1, 8192
3, 387936, Pitch_bend_c, 1, 8192
3, 387955, Pitch_bend_c, 1, 8192
3, 387974, Pitch_bend_c, 1, 8064
3, 387987, Pitch_bend_c, 1, 8064
3, 388006, Pitch_bend_c, 1, 8064
3, 388025, Pitch_bend_c, 1, 7936
3, 388044, Pitch_bend_c, 1, 7936
3, 388064, Pitch_bend_c, 1, 7936
3, 388083, Pitch_bend_c, 1, 7936
3, 388096, Pitch_bend_c, 1, 7936
3, 388115, Pitch_bend_c, 1, 7936
3, 388134, Pitch_bend_c, 1, 7936
3, 388153, Pitch_bend_c, 1, 8064
3, 388172, Pitch_bend_c, 1, 8064
3, 388185, Pitch_bend_c, 1, 8064
3, 388204, Pitch_bend_c, 1, 8192
3, 388224, Pitch_bend_c, 1, 8192
3, 388243, Pitch_bend_c, 1, 8192
3, 388262, Pitch_bend_c, 1, 8320
3, 388275, Pitch_bend_c, 1, 8320
3, 388294, Pitch_bend_c, 1, 8320
3, 388313, Pitch_bend_c, 1, 8448
3, 388332, Pitch_bend_c, 1, 8448
3, 388352, Pitch_bend_c, 1, 8448
3, 388364, Pitch_bend_c, 1, 8448
3, 388384, Pitch_bend_c, 1, 8448
3, 388403, Pitch_bend_c, 1, 8448
3, 388422, Pitch_bend_c, 1, 8448
3, 388441, Pitch_bend_c, 1, 8320
3, 388460, Pitch_bend_c, 1, 8320
3, 388473, Pitch_bend_c, 1, 8320
3, 388492, Pitch_bend_c, 1, 8192
3, 388512, Pitch_bend_c, 1, 8192
3, 388531, Pitch_bend_c, 1, 8192
3, 388550, Pitch_bend_c, 1, 8064
3, 388563, Pitch_bend_c, 1, 8064
3, 388582, Pitch_bend_c, 1, 8064
3, 388601, Pitch_bend_c, 1, 7936
3, 388620, Pitch_bend_c, 1, 7936
3, 388640, Pitch_bend_c, 1, 7936
3, 388659, Pitch_bend_c, 1, 7936
3, 388672, Pitch_bend_c, 1, 7936
3, 388691, Pitch_bend_c, 1, 7936
3, 388710, Pitch_bend_c, 1, 7936
3, 388729, Pitch_bend_c, 1, 8064
3, 388748, Pitch_bend_c, 1, 8064
3, 388761, Pitch_bend_c, 1, 8064
3, 388780, Pitch_bend_c, 1, 8192
3, 388800, Pitch_bend_c, 1, 8192
3, 388819, Pitch_bend_c, 1, 8192
3, 388838, Pitch_bend_c, 1, 8320
3, 388851, Pitch_bend_c, 1, 8320
3, 388870, Pitch_bend_c, 1, 8448
3, 388889, Pitch_bend_c, 1, 8448
3, 388908, Pitch_bend_c, 1, 8448
3, 388928, Pitch_bend_c, 1, 8448
3, 388940, Pitch_bend_c, 1, 8448
3, 388960, Pitch_bend_c, 1, 8448
3, 388979, Pitch_bend_c, 1, 8448
3, 388998, Pitch_bend_c, 1, 8448
3, 389017, Pitch_bend_c, 1, 8448
3, 389036, Pitch_bend_c, 1, 8320
3, 389049, Pitch_bend_c, 1, 8320
3, 389068, Pitch_bend_c, 1, 8192
3, 389088, Pitch_bend_c, 1, 8192
3, 389107, Pitch_bend_c, 1, 8192
3, 389126, Pitch_bend_c, 1, 8064
3, 389139, Pitch_bend_c, 1, 8064
3, 389158, Pitch_bend_c, 1, 7936
3, 389177, Pitch_bend_c, 1, 7936
3, 389196, Pitch_bend_c, 1, 7936
3, 389216, Pitch_bend_c, 1, 7936
3, 389235, Pitch_bend_c, 1, 7936
3, 389248, Pitch_bend_c, 1, 7936
3, 389267, Pitch_bend_c, 1, 7936
3, 389286, Pitch_bend_c, 1, 7936
3, 389305, Pitch_bend_c, 1, 7936
3, 389324, Pitch_bend_c, 1, 8064
3, 389337, Pitch_bend_c, 1, 8064
3, 389356, Pitch_bend_c, 1, 8192
3, 389376, Note_off_c, 1, 67, 80
3, 389376, Pitch_bend_c, 1, 8192
3, 389376, Note_on_c, 1, 60, 79
3, 389760, Note_off_c, 1, 60, 80
3, 389760, Note_on_c, 1, 62, 63
3, 390144, Note_off_c, 1, 62, 80
3, 390144, Note_on_c, 1, 65, 79
3, 390528, Note_off_c, 1, 65, 80
3, 390528, Note_on_c, 1, 67, 79
3, 390912, Note_off_c, 1, 67, 80
3, 390912, Note_on_c, 1, 70, 79
3, 391296, Note_off_c, 1, 70, 80
3, 391296, Note_on_c, 1, 71, 63
3, 391488, Note_off_c, 1, 71, 80
3, 391488, Note_on_c, 1, 70, 63
3, 391680, Note_off_c, 1, 70, 80
3, 391680, Note_on_c, 1, 67, 79
3, 391680, Pitch_bend_c, 1, 8192
3, 391699, Pitch_bend_c, 1, 8192
3, 391718, Pitch_bend_c, 1, 8192
3, 391731, Pitch_bend_c, 1, 8192
3, 391750, Pitch_bend_c, 1, 8192
3, 391769, Pitch_bend_c, 1, 8192
3, 391788, Pitch_bend_c, 1, 8192
3, 391808, Pitch_bend_c, 1, 8192
3, 391820, Pitch_bend_c, 1, 8192
3, 391840, Pitch_bend_c, 1, 8192
3, 391859, Pitch_bend_c, 1, 8192
3, 391878, Pitch_bend_c, 1, 8192
3, 391897, Pitch_bend_c, 1, 8192
3, 391916, Pitch_bend_c, 1, 8192
3, 391929, Pitch_bend_c, 1, 8192
3, 391948, Pitch_bend_c, 1, 8192
3, 391968, Pitch_bend_c, 1, 8192
3, 391987, Pitch_bend_c, 1, 8192
3, 392006, Pitch_bend_c, 1, 8192
3, 392019, Pitch_bend_c, 1, 8192
3, 392038, Pitch_bend_c, 1, 8192
3, 392057, Pitch_bend_c, 1, 8192
3, 392076, Pitch_bend_c, 1, 8192
3, 392096, Pitch_bend_c, 1, 8192
3, 392115, Pitch_bend_c, 1, 8192
3, 392128, Pitch_bend_c, 1, 8192
3, 392147, Pitch_bend_c, 1, 8192
3, 392166, Pitch_bend_c, 1, 8192
3, 392185, Pitch_bend_c, 1, 8192
3, 392204, Pitch_bend_c, 1, 8192
3, 392217, Pitch_bend_c, 1, 8192
3, 392236, Pitch_bend_c, 1, 8192
3, 392256, Pitch_bend_c, 1, 8192
3, 392275, Pitch_bend_c, 1, 8192
3, 392294, Pitch_bend_c, 1, 8320
3, 392307, Pitch_bend_c, 1, 8320
3, 392326, Pitch_bend_c, 1, 8320
3, 392345, Pitch_bend_c, 1, 8448
3, 392364, Pitch_bend_c, 1, 8448
3, 392384, Pitch_bend_c, 1, 8448
3, 392396, Pitch_bend_c, 1, 8448
3, 392416, Pitch_bend_c, 1, 8448
3, 392435, Pitch_bend_c, 1, 8448
3, 392454, Pitch_bend_c, 1, 8448
3, 392473, Pitch_bend_c, 1, 8320
3, 392492, Pitch_bend_c, 1, 8320
3, 392505, Pitch_bend_c, 1, 8320
3, 392524, Pitch_bend_c, 1, 8192
3, 392544, Pitch_bend_c, 1, 8192
3, 392563, Pitch_bend_c, 1, 8192
3, 392582, Pitch_bend_c, 1, 8064
3, 392595, Pitch_bend_c, 1, 8064
3, 392614, Pitch_bend_c, 1, 8064
3, 392633, Pitch_bend_c, 1, 7936
3, 392652, Pitch_bend_c, 1, 7936
3, 392672, Pitch_bend_c, 1, 7936
3, 392691, Pitch_bend_c, 1, 7936
3, 392704, Pitch_bend_c, 1, 7936
3, 392723, Pitch_bend_c, 1, 7936
3, 392742, Pitch_bend_c, 1, 7936
3, 392761, Pitch_bend_c, 1, 8064
3, 392780, Pitch_bend_c, 1, 8064
3, 392793, Pitch_bend_c, 1, 8064
3, 392812, Pitch_bend_c, 1, 8192
3, 392832, Note_off_c, 1, 67, 80
3, 392832, Pitch_bend_c, 1, 8192
3, 392832, Note_on_c, 1, 65, 79
3, 393216, Note_off_c, 1, 65, 80
3, 393216, Note_on_c, 1, 72, 79
3, 393216, Pitch_bend_c, 1, 8192
3, 393216, Note_on_c, 1, 67, 79
3, 393318, Pitch_bend_c, 1, 8704
3, 393420, Pitch_bend_c, 1, 8832
3, 393625, Pitch_bend_c, 1, 8448
3, 393728, Pitch_bend_c, 1, 8192
3, 393830, Pitch_bend_c, 1, 8448
3, 393932, Pitch_bend_c, 1, 8192
3, 394368, Note_off_c, 1, 67, 80
3, 394368, Note_off_c, 1, 72, 80
3, 394368, Pitch_bend_c, 1, 8192
3, 394368, Note_on_c, 1, 70, 63
3, 394752, Note_off_c, 1, 70, 80
3, 394752, Note_on_c, 1, 67, 79
3, 395136, Note_off_c, 1, 67, 80
3, 395136, Note_on_c, 1, 65, 63
3, 395520, Note_off_c, 1, 65, 80
3, 395520, Note_on_c, 1, 72, 79
3, 395520, Pitch_bend_c, 1, 8192
3, 395520, Note_on_c, 1, 67, 79
3, 395622, Pitch_bend_c, 1, 8704
3, 395724, Pitch_bend_c, 1, 8832
3, 395929, Pitch_bend_c, 1, 8448
3, 396032, Pitch_bend_c, 1, 8192
3, 396134, Pitch_bend_c, 1, 8448
3, 396236, Pitch_bend_c, 1, 8192
3, 396672, Note_off_c, 1, 67, 80
3, 396672, Note_off_c, 1, 72, 80
3, 396672, Pitch_bend_c, 1, 8192
3, 396672, Note_on_c, 1, 70, 63
3, 396672, Note_off_c, 1, 70, 80
3, 397056, Note_on_c, 1, 67, 79
3, 397440, Note_off_c, 1, 67, 80
3, 397440, Note_on_c, 1, 65, 63
3, 397440, Note_on_c, 1, 72, 79
3, 397440, Pitch_bend_c, 1, 8192
3, 397465, Pitch_bend_c, 1, 8192
3, 397491, Pitch_bend_c, 1, 8192
3, 397510, Pitch_bend_c, 1, 8192
3, 397536, Pitch_bend_c, 1, 8192
3, 397561, Pitch_bend_c, 1, 8192
3, 397580, Pitch_bend_c, 1, 8192
3, 397606, Pitch_bend_c, 1, 8192
3, 397632, Pitch_bend_c, 1, 8192
3, 397657, Pitch_bend_c, 1, 8192
3, 397683, Pitch_bend_c, 1, 8192
3, 397702, Pitch_bend_c, 1, 8192
3, 397728, Pitch_bend_c, 1, 8192
3, 397747, Note_off_c, 1, 72, 80
3, 397753, Pitch_bend_c, 1, 8192
3, 397772, Pitch_bend_c, 1, 8192
3, 397798, Pitch_bend_c, 1, 8192
3, 397824, Note_off_c, 1, 65, 80
3, 397824, Pitch_bend_c, 1, 8192
3, 398131, Note_on_c, 1, 79, 79
3, 398438, Note_off_c, 1, 79, 80
3, 398438, Note_on_c, 1, 77, 79
3, 398668, Note_on_c, 1, 72, 79
3, 398668, Pitch_bend_c, 1, 8192
3, 398694, Pitch_bend_c, 1, 8192
3, 398720, Pitch_bend_c, 1, 8192
3, 398739, Pitch_bend_c, 1, 8192
3, 398745, Note_off_c, 1, 77, 80
3, 398745, Note_on_c, 1, 74, 63
3, 398764, Pitch_bend_c, 1, 8192
3, 398790, Pitch_bend_c, 1, 8192
3, 398809, Pitch_bend_c, 1, 8192
3, 398835, Pitch_bend_c, 1, 8192
3, 398860, Pitch_bend_c, 1, 8192
3, 398886, Pitch_bend_c, 1, 8192
3, 398912, Pitch_bend_c, 1, 8192
3, 398931, Pitch_bend_c, 1, 8192
3, 398956, Pitch_bend_c, 1, 8192
3, 398982, Pitch_bend_c, 1, 8192
3, 399001, Pitch_bend_c, 1, 8192
3, 399027, Pitch_bend_c, 1, 8192
3, 399052, Note_off_c, 1, 74, 80
3, 399052, Pitch_bend_c, 1, 8192
3, 399360, Note_on_c, 1, 79, 79
3, 399513, Note_on_c, 1, 72, 79
3, 399513, Pitch_bend_c, 1, 8192
3, 399564, Pitch_bend_c, 1, 8192
3, 399609, Pitch_bend_c, 1, 8192
3, 399654, Pitch_bend_c, 1, 8192
3, 399667, Note_off_c, 1, 79, 80
3, 399667, Note_on_c, 1, 77, 79
3, 399705, Pitch_bend_c, 1, 8192
3, 399756, Pitch_bend_c, 1, 8192
3, 399801, Pitch_bend_c, 1, 8192
3, 399846, Pitch_bend_c, 1, 8192
3, 399897, Pitch_bend_c, 1, 8192
3, 399948, Pitch_bend_c, 1, 8192
3, 399974, Note_off_c, 1, 77, 80
3, 399974, Note_on_c, 1, 74, 63
3, 399993, Pitch_bend_c, 1, 8192
3, 400038, Pitch_bend_c, 1, 8192
3, 400089, Pitch_bend_c, 1, 8192
3, 400140, Pitch_bend_c, 1, 8192
3, 400185, Pitch_bend_c, 1, 8192
3, 400230, Pitch_bend_c, 1, 8192
3, 400281, Note_off_c, 1, 74, 80
3, 400281, Pitch_bend_c, 1, 8192
3, 400396, Note_off_c, 1, 72, 80
3, 400588, Note_on_c, 1, 79, 79
3, 400895, Note_off_c, 1, 79, 80
3, 400896, Note_on_c, 1, 77, 79
3, 401113, Note_off_c, 1, 77, 80
3, 401113, Note_on_c, 1, 74, 63
3, 401145, Note_on_c, 1, 72, 79
3, 401145, Pitch_bend_c, 1, 8192
3, 401152, Pitch_bend_c, 1, 8192
3, 401164, Pitch_bend_c, 1, 8192
3, 401177, Pitch_bend_c, 1, 8192
3, 401190, Pitch_bend_c, 1, 8192
3, 401203, Pitch_bend_c, 1, 8192
3, 401216, Pitch_bend_c, 1, 8192
3, 401228, Pitch_bend_c, 1, 8192
3, 401241, Pitch_bend_c, 1, 8192
3, 401248, Pitch_bend_c, 1, 8192
3, 401260, Pitch_bend_c, 1, 8192
3, 401273, Pitch_bend_c, 1, 8192
3, 401286, Pitch_bend_c, 1, 8192
3, 401299, Pitch_bend_c, 1, 8192
3, 401312, Pitch_bend_c, 1, 8192
3, 401324, Pitch_bend_c, 1, 8192
3, 401337, Note_off_c, 1, 74, 80
3, 401337, Pitch_bend_c, 1, 8192
3, 401362, Note_off_c, 1, 72, 80
3, 401555, Note_on_c, 1, 79, 79
3, 401663, Note_off_c, 1, 72, 80
3, 401772, Note_off_c, 1, 79, 80
3, 401772, Note_on_c, 1, 77, 79
3, 401989, Note_off_c, 1, 77, 80
3, 401990, Note_on_c, 1, 74, 63
3, 402022, Note_on_c, 1, 72, 79
3, 402022, Pitch_bend_c, 1, 8192
3, 402035, Pitch_bend_c, 1, 8192
3, 402041, Pitch_bend_c, 1, 8192
3, 402054, Pitch_bend_c, 1, 8192
3, 402067, Pitch_bend_c, 1, 8192
3, 402080, Pitch_bend_c, 1, 8192
3, 402092, Pitch_bend_c, 1, 8192
3, 402105, Pitch_bend_c, 1, 8192
3, 402118, Pitch_bend_c, 1, 8192
3, 402131, Pitch_bend_c, 1, 8192
3, 402137, Pitch_bend_c, 1, 8192
3, 402150, Pitch_bend_c, 1, 8192
3, 402163, Pitch_bend_c, 1, 8192
3, 402176, Pitch_bend_c, 1, 8192
3, 402188, Pitch_bend_c, 1, 8192
3, 402201, Pitch_bend_c, 1, 8192
3, 402213, Note_off_c, 1, 74, 80
3, 402214, Pitch_bend_c, 1, 8192
3, 402432, Note_on_c, 1, 79, 79
3, 402432, Note_on_c, 1, 72, 79
3, 402432, Pitch_bend_c, 1, 8192
3, 402483, Pitch_bend_c, 1, 8192
3, 402528, Pitch_bend_c, 1, 8192
3, 402572, Pitch_bend_c, 1, 8192
3, 402624, Pitch_bend_c, 1, 8192
3, 402675, Pitch_bend_c, 1, 8192
3, 402688, Note_off_c, 1, 79, 80
3, 402688, Note_on_c, 1, 77, 79
3, 402720, Pitch_bend_c, 1, 8192
3, 402764, Pitch_bend_c, 1, 8192
3, 402816, Pitch_bend_c, 1, 8192
3, 402867, Pitch_bend_c, 1, 8192
3, 402912, Pitch_bend_c, 1, 8192
3, 402944, Note_off_c, 1, 77, 80
3, 402944, Note_on_c, 1, 74, 63
3, 402956, Pitch_bend_c, 1, 8192
3, 403008, Pitch_bend_c, 1, 8192
3, 403059, Pitch_bend_c, 1, 8192
3, 403104, Pitch_bend_c, 1, 8192
3, 403148, Pitch_bend_c, 1, 8192
3, 403199, Note_off_c, 1, 74, 80
3, 403200, Pitch_bend_c, 1, 8192
3, 403455, Note_off_c, 1, 72, 80
3, 403456, Note_on_c, 1, 79, 79
3, 403712, Note_on_c, 1, 77, 79
3, 403840, Note_off_c, 1, 74, 80
3, 403968, Note_off_c, 1, 77, 80
3, 403968, Note_on_c, 1, 74, 63
3, 404224, Note_on_c, 1, 73, 79
3, 404352, Note_on_c, 1, 82, 79
3, 404352, Pitch_bend_c, 1, 8192
3, 404377, Pitch_bend_c, 1, 8192
3, 404403, Pitch_bend_c, 1, 8192
3, 404422, Pitch_bend_c, 1, 8192
3, 404448, Pitch_bend_c, 1, 8192
3, 404473, Pitch_bend_c, 1, 8192
3, 404480, Note_off_c, 1, 73, 80
3, 404480, Note_on_c, 1, 70, 63
3, 404492, Pitch_bend_c, 1, 8192
3, 404518, Pitch_bend_c, 1, 8192
3, 404544, Pitch_bend_c, 1, 8192
3, 404569, Pitch_bend_c, 1, 8192
3, 404595, Pitch_bend_c, 1, 8192
3, 404614, Pitch_bend_c, 1, 8192
3, 404640, Pitch_bend_c, 1, 8192
3, 404665, Pitch_bend_c, 1, 8192
3, 404684, Pitch_bend_c, 1, 8192
3, 404710, Pitch_bend_c, 1, 8192
3, 404736, Note_off_c, 1, 70, 80
3, 404736, Pitch_bend_c, 1, 9600
3, 405504, Pitch_bend_c, 1, 9600
3, 407040, Pitch_bend_c, 1, 8192
3, 407142, Pitch_bend_c, 1, 10368
3, 407244, Pitch_bend_c, 1, 10880
3, 407808, Note_off_c, 1, 82, 80
3, 407808, Pitch_bend_c, 1, 8192
3, 407808, Note_on_c, 1, 72, 79
3, 407820, Pitch_bend_c, 1, 8192
3, 407827, Pitch_bend_c, 1, 8192
3, 407840, Pitch_bend_c, 1, 8192
3, 407846, Pitch_bend_c, 1, 8192
3, 407859, Pitch_bend_c, 1, 8192
3, 407865, Pitch_bend_c, 1, 8192
3, 407878, Pitch_bend_c, 1, 8192
3, 407884, Pitch_bend_c, 1, 8192
3, 407897, Pitch_bend_c, 1, 8192
3, 407910, Pitch_bend_c, 1, 8192
3, 407916, Pitch_bend_c, 1, 8192
3, 407929, Pitch_bend_c, 1, 8192
3, 407936, Pitch_bend_c, 1, 8192
3, 407948, Pitch_bend_c, 1, 8192
3, 407955, Pitch_bend_c, 1, 8192
3, 407968, Pitch_bend_c, 1, 8192
3, 407980, Pitch_bend_c, 1, 8192
3, 407987, Pitch_bend_c, 1, 8192
3, 408000, Pitch_bend_c, 1, 8192
3, 408006, Pitch_bend_c, 1, 8192
3, 408019, Pitch_bend_c, 1, 8192
3, 408025, Pitch_bend_c, 1, 8192
3, 408038, Pitch_bend_c, 1, 8192
3, 408051, Pitch_bend_c, 1, 8192
3, 408057, Pitch_bend_c, 1, 8192
3, 408070, Pitch_bend_c, 1, 8192
3, 408076, Pitch_bend_c, 1, 8192
3, 408089, Pitch_bend_c, 1, 8192
3, 408096, Pitch_bend_c, 1, 8192
3, 408108, Pitch_bend_c, 1, 8192
3, 408115, Pitch_bend_c, 1, 8192
3, 408128, Pitch_bend_c, 1, 8192
3, 408140, Pitch_bend_c, 1, 8320
3, 408147, Pitch_bend_c, 1, 8448
3, 408160, Pitch_bend_c, 1, 8576
3, 408166, Pitch_bend_c, 1, 8576
3, 408179, Pitch_bend_c, 1, 8704
3, 408185, Pitch_bend_c, 1, 8704
3, 408198, Pitch_bend_c, 1, 8704
3, 408204, Pitch_bend_c, 1, 8704
3, 408217, Pitch_bend_c, 1, 8704
3, 408230, Pitch_bend_c, 1, 8704
3, 408236, Pitch_bend_c, 1, 8704
3, 408249, Pitch_bend_c, 1, 8576
3, 408256, Pitch_bend_c, 1, 8576
3, 408268, Pitch_bend_c, 1, 8448
3, 408275, Pitch_bend_c, 1, 8320
3, 408288, Pitch_bend_c, 1, 8192
3, 408300, Pitch_bend_c, 1, 8064
3, 408307, Pitch_bend_c, 1, 7936
3, 408320, Pitch_bend_c, 1, 7808
3, 408326, Pitch_bend_c, 1, 7808
3, 408339, Pitch_bend_c, 1, 7680
3, 408345, Pitch_bend_c, 1, 7680
3, 408358, Pitch_bend_c, 1, 7680
3, 408371, Pitch_bend_c, 1, 7680
3, 408377, Pitch_bend_c, 1, 7680
3, 408390, Pitch_bend_c, 1, 7680
3, 408396, Pitch_bend_c, 1, 7680
3, 408409, Pitch_bend_c, 1, 7808
3, 408416, Pitch_bend_c, 1, 7808
3, 408428, Pitch_bend_c, 1, 7936
3, 408435, Pitch_bend_c, 1, 8064
3, 408448, Pitch_bend_c, 1, 8192
3, 408460, Pitch_bend_c, 1, 8320
3, 408467, Pitch_bend_c, 1, 8448
3, 408480, Pitch_bend_c, 1, 8576
3, 408486, Pitch_bend_c, 1, 8576
3, 408499, Pitch_bend_c, 1, 8704
3, 408505, Pitch_bend_c, 1, 8704
3, 408518, Pitch_bend_c, 1, 8704
3, 408524, Pitch_bend_c, 1, 8832
3, 408537, Pitch_bend_c, 1, 8704
3, 408550, Pitch_bend_c, 1, 8704
3, 408556, Pitch_bend_c, 1, 8704
3, 408569, Pitch_bend_c, 1, 8576
3, 408576, Pitch_bend_c, 1, 8192
3, 408588, Pitch_bend_c, 1, 8192
3, 408595, Pitch_bend_c, 1, 8192
3, 408608, Pitch_bend_c, 1, 8192
3, 408614, Pitch_bend_c, 1, 8192
3, 408627, Pitch_bend_c, 1, 8192
3, 408633, Pitch_bend_c, 1, 8192
3, 408646, Pitch_bend_c, 1, 8192
3, 408652, Pitch_bend_c, 1, 8192
3, 408665, Pitch_bend_c, 1, 8192
3, 408678, Pitch_bend_c, 1, 8192
3, 408684, Pitch_bend_c, 1, 8192
3, 408697, Pitch_bend_c, 1, 8192
3, 408704, Pitch_bend_c, 1, 8192
3, 408716, Pitch_bend_c, 1, 8192
3, 408723, Pitch_bend_c, 1, 8192
3, 408736, Pitch_bend_c, 1, 8192
3, 408748, Pitch_bend_c, 1, 8192
3, 408755, Pitch_bend_c, 1, 8192
3, 408768, Pitch_bend_c, 1, 8192
3, 408774, Pitch_bend_c, 1, 8192
3, 408787, Pitch_bend_c, 1, 8192
3, 408793, Pitch_bend_c, 1, 8192
3, 408806, Pitch_bend_c, 1, 8192
3, 408819, Pitch_bend_c, 1, 8192
3, 408825, Pitch_bend_c, 1, 8192
3, 408838, Pitch_bend_c, 1, 8192
3, 408844, Pitch_bend_c, 1, 8192
3, 408857, Pitch_bend_c, 1, 8192
3, 408864, Pitch_bend_c, 1, 8192
3, 408876, Pitch_bend_c, 1, 8192
3, 408883, Pitch_bend_c, 1, 8192
3, 408896, Pitch_bend_c, 1, 8192
3, 408908, Pitch_bend_c, 1, 8320
3, 408915, Pitch_bend_c, 1, 8320
3, 408928, Pitch_bend_c, 1, 8448
3, 408934, Pitch_bend_c, 1, 8576
3, 408947, Pitch_bend_c, 1, 8576
3, 408953, Pitch_bend_c, 1, 8704
3, 408960, Note_off_c, 1, 72, 80
3, 408960, Pitch_bend_c, 1, 8192
3, 409344, Note_on_c, 1, 79, 79
3, 409344, Note_on_c, 1, 77, 79
3, 409344, Pitch_bend_c, 1, 8192
3, 409369, Pitch_bend_c, 1, 8192
3, 409395, Pitch_bend_c, 1, 8192
3, 409414, Pitch_bend_c, 1, 8192
3, 409440, Pitch_bend_c, 1, 8192
3, 409465, Pitch_bend_c, 1, 8192
3, 409484, Pitch_bend_c, 1, 8192
3, 409510, Pitch_bend_c, 1, 8192
3, 409536, Pitch_bend_c, 1, 8192
3, 409561, Pitch_bend_c, 1, 8192
3, 409587, Pitch_bend_c, 1, 8192
3, 409606, Pitch_bend_c, 1, 8192
3, 409632, Pitch_bend_c, 1, 8192
3, 409657, Pitch_bend_c, 1, 8192
3, 409676, Pitch_bend_c, 1, 8192
3, 409702, Pitch_bend_c, 1, 8192
3, 409728, Note_off_c, 1, 79, 80
3, 409728, Pitch_bend_c, 1, 8192
3, 410112, Note_off_c, 1, 77, 80
3, 410112, Note_on_c, 1, 79, 79
3, 410496, Note_off_c, 1, 79, 80
3, 410496, Note_on_c, 1, 74, 79
3, 410880, Note_off_c, 1, 74, 80
3, 410880, Note_on_c, 1, 77, 63
3, 410880, Note_on_c, 1, 72, 79
3, 410880, Pitch_bend_c, 1, 8192
3, 410880, Note_off_c, 1, 77, 80
3, 410905, Pitch_bend_c, 1, 8192
3, 410931, Pitch_bend_c, 1, 8192
3, 410950, Pitch_bend_c, 1, 8192
3, 410976, Pitch_bend_c, 1, 8192
3, 411001, Pitch_bend_c, 1, 8192
3, 411020, Pitch_bend_c, 1, 8192
3, 411046, Pitch_bend_c, 1, 8192
3, 411072, Pitch_bend_c, 1, 8192
3, 411097, Pitch_bend_c, 1, 8192
3, 411123, Pitch_bend_c, 1, 8192
3, 411142, Pitch_bend_c, 1, 8192
3, 411168, Pitch_bend_c, 1, 8192
3, 411193, Pitch_bend_c, 1, 8192
3, 411212, Pitch_bend_c, 1, 8192
3, 411238, Pitch_bend_c, 1, 8192
3, 411264, Pitch_bend_c, 1, 8192
3, 411648, Note_off_c, 1, 72, 80
3, 411648, Note_on_c, 1, 79, 79
3, 412032, Note_off_c, 1, 79, 80
3, 412032, Note_on_c, 1, 70, 79
3, 412416, Note_off_c, 1, 70, 80
3, 412416, Note_on_c, 1, 72, 63
3, 412800, Note_off_c, 1, 72, 80
3, 412800, Note_on_c, 1, 67, 79
3, 413184, Note_off_c, 1, 67, 80
3, 413184, Pitch_bend_c, 1, 8192
3, 413184, Note_on_c, 1, 70, 79
3, 413196, Pitch_bend_c, 1, 8192
3, 413203, Pitch_bend_c, 1, 8192
3, 413216, Pitch_bend_c, 1, 8192
3, 413222, Pitch_bend_c, 1, 8192
3, 413235, Pitch_bend_c, 1, 8192
3, 413241, Pitch_bend_c, 1, 8192
3, 413254, Pitch_bend_c, 1, 8192
3, 413260, Pitch_bend_c, 1, 8192
3, 413273, Pitch_bend_c, 1, 8192
3, 413286, Pitch_bend_c, 1, 8192
3, 413292, Pitch_bend_c, 1, 8192
3, 413305, Pitch_bend_c, 1, 8192
3, 413312, Pitch_bend_c, 1, 8192
3, 413324, Pitch_bend_c, 1, 8192
3, 413331, Pitch_bend_c, 1, 8192
3, 413344, Pitch_bend_c, 1, 8192
3, 413356, Pitch_bend_c, 1, 8192
3, 413363, Pitch_bend_c, 1, 8192
3, 413376, Pitch_bend_c, 1, 8192
3, 413382, Pitch_bend_c, 1, 8192
3, 413395, Pitch_bend_c, 1, 8192
3, 413401, Pitch_bend_c, 1, 8192
3, 413414, Pitch_bend_c, 1, 8192
3, 413427, Pitch_bend_c, 1, 8192
3, 413433, Pitch_bend_c, 1, 8192
3, 413446, Pitch_bend_c, 1, 8192
3, 413452, Pitch_bend_c, 1, 8192
3, 413465, Pitch_bend_c, 1, 8192
3, 413472, Pitch_bend_c, 1, 8192
3, 413484, Pitch_bend_c, 1, 8192
3, 413491, Pitch_bend_c, 1, 8192
3, 413504, Pitch_bend_c, 1, 8192
3, 413516, Pitch_bend_c, 1, 8320
3, 413523, Pitch_bend_c, 1, 8448
3, 413536, Pitch_bend_c, 1, 8576
3, 413542, Pitch_bend_c, 1, 8576
3, 413555, Pitch_bend_c, 1, 8704
3, 413561, Pitch_bend_c, 1, 8704
3, 413574, Pitch_bend_c, 1, 8704
3, 413580, Pitch_bend_c, 1, 8704
3, 413593, Pitch_bend_c, 1, 8704
3, 413606, Pitch_bend_c, 1, 8704
3, 413612, Pitch_bend_c, 1, 8704
3, 413625, Pitch_bend_c, 1, 8576
3, 413632, Pitch_bend_c, 1, 8576
3, 413644, Pitch_bend_c, 1, 8448
3, 413651, Pitch_bend_c, 1, 8320
3, 413664, Pitch_bend_c, 1, 8192
3, 413676, Pitch_bend_c, 1, 8064
3, 413683, Pitch_bend_c, 1, 7936
3, 413696, Pitch_bend_c, 1, 7808
3, 413702, Pitch_bend_c, 1, 7808
3, 413715, Pitch_bend_c, 1, 7680
3, 413721, Pitch_bend_c, 1, 7680
3, 413734, Pitch_bend_c, 1, 7680
3, 413747, Pitch_bend_c, 1, 7680
3, 413753, Pitch_bend_c, 1, 7680
3, 413766, Pitch_bend_c, 1, 7680
3, 413772, Pitch_bend_c, 1, 7680
3, 413785, Pitch_bend_c, 1, 7808
3, 413792, Pitch_bend_c, 1, 7808
3, 413804, Pitch_bend_c, 1, 7936
3, 413811, Pitch_bend_c, 1, 8064
3, 413824, Pitch_bend_c, 1, 8192
3, 413836, Pitch_bend_c, 1, 8320
3, 413843, Pitch_bend_c, 1, 8448
3, 413856, Pitch_bend_c, 1, 8576
3, 413862, Pitch_bend_c, 1, 8576
3, 413875, Pitch_bend_c, 1, 8704
3, 413881, Pitch_bend_c, 1, 8704
3, 413894, Pitch_bend_c, 1, 8704
3, 413900, Pitch_bend_c, 1, 8704
3, 413913, Pitch_bend_c, 1, 8704
3, 413926, Pitch_bend_c, 1, 8704
3, 413932, Pitch_bend_c, 1, 8704
3, 413945, Pitch_bend_c, 1, 8576
3, 413952, Pitch_bend_c, 1, 8576
3, 413964, Pitch_bend_c, 1, 8448
3, 413971, Pitch_bend_c, 1, 8320
3, 413984, Pitch_bend_c, 1, 8192
3, 413996, Pitch_bend_c, 1, 8064
3, 414003, Pitch_bend_c, 1, 7936
3, 414016, Pitch_bend_c, 1, 7808
3, 414022, Pitch_bend_c, 1, 7808
3, 414035, Pitch_bend_c, 1, 7680
3, 414041, Pitch_bend_c, 1, 7680
3, 414054, Pitch_bend_c, 1, 7680
3, 414067, Pitch_bend_c, 1, 7680
3, 414073, Pitch_bend_c, 1, 7680
3, 414086, Pitch_bend_c, 1, 7680
3, 414092, Pitch_bend_c, 1, 7680
3, 414105, Pitch_bend_c, 1, 7808
3, 414112, Pitch_bend_c, 1, 7808
3, 414124, Pitch_bend_c, 1, 7936
3, 414131, Pitch_bend_c, 1, 8064
3, 414144, Pitch_bend_c, 1, 8192
3, 414156, Pitch_bend_c, 1, 8320
3, 414163, Pitch_bend_c, 1, 8448
3, 414176, Pitch_bend_c, 1, 8576
3, 414182, Pitch_bend_c, 1, 8576
3, 414195, Pitch_bend_c, 1, 8704
3, 414201, Pitch_bend_c, 1, 8704
3, 414214, Pitch_bend_c, 1, 8704
3, 414220, Pitch_bend_c, 1, 8704
3, 414233, Pitch_bend_c, 1, 8704
3, 414246, Pitch_bend_c, 1, 8704
3, 414252, Pitch_bend_c, 1, 8704
3, 414265, Pitch_bend_c, 1, 8576
3, 414272, Pitch_bend_c, 1, 8576
3, 414284, Pitch_bend_c, 1, 8448
3, 414291, Pitch_bend_c, 1, 8320
3, 414304, Pitch_bend_c, 1, 8192
3, 414316, Pitch_bend_c, 1, 8064
3, 414323, Pitch_bend_c, 1, 7936
3, 414336, Pitch_bend_c, 1, 7808
3, 414342, Pitch_bend_c, 1, 7808
3, 414355, Pitch_bend_c, 1, 7680
3, 414361, Pitch_bend_c, 1, 7680
3, 414374, Pitch_bend_c, 1, 7680
3, 414387, Pitch_bend_c, 1, 7680
3, 414393, Pitch_bend_c, 1, 7680
3, 414406, Pitch_bend_c, 1, 7680
3, 414412, Pitch_bend_c, 1, 7680
3, 414425, Pitch_bend_c, 1, 7808
3, 414432, Pitch_bend_c, 1, 7808
3, 414444, Pitch_bend_c, 1, 7936
3, 414451, Pitch_bend_c, 1, 8064
3, 414464, Pitch_bend_c, 1, 8192
3, 414476, Pitch_bend_c, 1, 8320
3, 414483, Pitch_bend_c, 1, 8320
3, 414496, Pitch_bend_c, 1, 8448
3, 414502, Pitch_bend_c, 1, 8576
3, 414515, Pitch_bend_c, 1, 8576
3, 414521, Pitch_bend_c, 1, 8704
3, 414534, Pitch_bend_c, 1, 8704
3, 414540, Pitch_bend_c, 1, 8704
3, 414553, Pitch_bend_c, 1, 8704
3, 414566, Pitch_bend_c, 1, 8704
3, 414572, Pitch_bend_c, 1, 8576
3, 414585, Pitch_bend_c, 1, 8576
3, 414592, Pitch_bend_c, 1, 8448
3, 414604, Pitch_bend_c, 1, 8320
3, 414611, Pitch_bend_c, 1, 8320
3, 414624, Pitch_bend_c, 1, 8192
3, 414636, Pitch_bend_c, 1, 8064
3, 414643, Pitch_bend_c, 1, 8064
3, 414656, Pitch_bend_c, 1, 7936
3, 414662, Pitch_bend_c, 1, 7808
3, 414675, Pitch_bend_c, 1, 7808
3, 414681, Pitch_bend_c, 1, 7680
3, 414694, Pitch_bend_c, 1, 7680
3, 414707, Pitch_bend_c, 1, 7680
3, 414713, Pitch_bend_c, 1, 7680
3, 414720, Pitch_bend_c, 1, 8192
3, 414732, Pitch_bend_c, 1, 8192
3, 414739, Pitch_bend_c, 1, 8192
3, 414752, Pitch_bend_c, 1, 8192
3, 414758, Pitch_bend_c, 1, 8192
3, 414771, Pitch_bend_c, 1, 8192
3, 414777, Pitch_bend_c, 1, 8192
3, 414790, Pitch_bend_c, 1, 8192
3, 414796, Pitch_bend_c, 1, 8192
3, 414809, Pitch_bend_c, 1, 8192
3, 414822, Pitch_bend_c, 1, 8192
3, 414828, Pitch_bend_c, 1, 8192
3, 414841, Pitch_bend_c, 1, 8192
3, 414848, Pitch_bend_c, 1, 8192
3, 414860, Pitch_bend_c, 1, 8192
3, 414867, Pitch_bend_c, 1, 8192
3, 414880, Pitch_bend_c, 1, 8192
3, 414892, Pitch_bend_c, 1, 8192
3, 414899, Pitch_bend_c, 1, 8192
3, 414912, Pitch_bend_c, 1, 8192
3, 414918, Pitch_bend_c, 1, 8192
3, 414931, Pitch_bend_c, 1, 8192
3, 414937, Pitch_bend_c, 1, 8192
3, 414950, Pitch_bend_c, 1, 8192
3, 414963, Pitch_bend_c, 1, 8192
3, 414969, Pitch_bend_c, 1, 8192
3, 414982, Pitch_bend_c, 1, 8192
3, 414988, Pitch_bend_c, 1, 8192
3, 415001, Pitch_bend_c, 1, 8192
3, 415008, Pitch_bend_c, 1, 8192
3, 415020, Pitch_bend_c, 1, 8192
3, 415027, Pitch_bend_c, 1, 8192
3, 415040, Pitch_bend_c, 1, 8192
3, 415052, Pitch_bend_c, 1, 8320
3, 415059, Pitch_bend_c, 1, 8320
3, 415072, Pitch_bend_c, 1, 8448
3, 415078, Pitch_bend_c, 1, 8576
3, 415091, Pitch_bend_c, 1, 8576
3, 415097, Pitch_bend_c, 1, 8704
3, 415110, Pitch_bend_c, 1, 8704
3, 415116, Pitch_bend_c, 1, 8704
3, 415129, Pitch_bend_c, 1, 8704
3, 415142, Pitch_bend_c, 1, 8704
3, 415148, Pitch_bend_c, 1, 8576
3, 415161, Pitch_bend_c, 1, 8576
3, 415168, Pitch_bend_c, 1, 8448
3, 415180, Pitch_bend_c, 1, 8320
3, 415187, Pitch_bend_c, 1, 8320
3, 415200, Pitch_bend_c, 1, 8192
3, 415212, Pitch_bend_c, 1, 8064
3, 415219, Pitch_bend_c, 1, 8064
3, 415232, Pitch_bend_c, 1, 7936
3, 415238, Pitch_bend_c, 1, 7808
3, 415251, Pitch_bend_c, 1, 7808
3, 415257, Pitch_bend_c, 1, 7680
3, 415270, Pitch_bend_c, 1, 7680
3, 415283, Pitch_bend_c, 1, 7680
3, 415289, Pitch_bend_c, 1, 7680
3, 415302, Pitch_bend_c, 1, 7680
3, 415308, Pitch_bend_c, 1, 7808
3, 415321, Pitch_bend_c, 1, 7808
3, 415328, Pitch_bend_c, 1, 7936
3, 415340, Pitch_bend_c, 1, 8064
3, 415347, Pitch_bend_c, 1, 8064
3, 415360, Pitch_bend_c, 1, 8192
3, 415372, Pitch_bend_c, 1, 8320
3, 415379, Pitch_bend_c, 1, 8448
3, 415392, Pitch_bend_c, 1, 8576
3, 415398, Pitch_bend_c, 1, 8576
3, 415411, Pitch_bend_c, 1, 8704
3, 415417, Pitch_bend_c, 1, 8704
3, 415430, Pitch_bend_c, 1, 8832
3, 415436, Pitch_bend_c, 1, 8832
3, 415449, Pitch_bend_c, 1, 8832
3, 415462, Pitch_bend_c, 1, 8704
3, 415468, Pitch_bend_c, 1, 8704
3, 415481, Pitch_bend_c, 1, 8576
3, 415488, Pitch_bend_c, 1, 8576
3, 415500, Pitch_bend_c, 1, 8448
3, 415507, Pitch_bend_c, 1, 8320
3, 415520, Pitch_bend_c, 1, 8192
3, 415532, Pitch_bend_c, 1, 8064
3, 415539, Pitch_bend_c, 1, 7936
3, 415552, Pitch_bend_c, 1, 7808
3, 415558, Pitch_bend_c, 1, 7808
3, 415571, Pitch_bend_c, 1, 7680
3, 415577, Pitch_bend_c, 1, 7680
3, 415590, Pitch_bend_c, 1, 7552
3, 415603, Pitch_bend_c, 1, 7552
3, 415609, Pitch_bend_c, 1, 7552
3, 415622, Pitch_bend_c, 1, 7680
3, 415628, Pitch_bend_c, 1, 7680
3, 415641, Pitch_bend_c, 1, 7808
3, 415648, Pitch_bend_c, 1, 7808
3, 415660, Pitch_bend_c, 1, 7936
3, 415667, Pitch_bend_c, 1, 8064
3, 415680, Pitch_bend_c, 1, 8192
3, 415692, Pitch_bend_c, 1, 8320
3, 415699, Pitch_bend_c, 1, 8448
3, 415712, Pitch_bend_c, 1, 8576
3, 415718, Pitch_bend_c, 1, 8576
3, 415731, Pitch_bend_c, 1, 8704
3, 415737, Pitch_bend_c, 1, 8704
3, 415750, Pitch_bend_c, 1, 8704
3, 415756, Pitch_bend_c, 1, 8704
3, 415769, Pitch_bend_c, 1, 8704
3, 415782, Pitch_bend_c, 1, 8704
3, 415788, Pitch_bend_c, 1, 8704
3, 415801, Pitch_bend_c, 1, 8576
3, 415808, Pitch_bend_c, 1, 8576
3, 415820, Pitch_bend_c, 1, 8448
3, 415827, Pitch_bend_c, 1, 8320
3, 415840, Pitch_bend_c, 1, 8192
3, 415852, Pitch_bend_c, 1, 8064
3, 415859, Pitch_bend_c, 1, 7936
3, 415872, Pitch_bend_c, 1, 8192
3, 415872, Note_on_c, 1, 77, 79
3, 415897, Pitch_bend_c, 1, 8192
3, 415923, Pitch_bend_c, 1, 8192
3, 415942, Pitch_bend_c, 1, 8192
3, 415968, Pitch_bend_c, 1, 7552
3, 415993, Pitch_bend_c, 1, 8192
3, 416006, Pitch_bend_c, 1, 6784
3, 416012, Pitch_bend_c, 1, 8192
3, 416038, Pitch_bend_c, 1, 8192
3, 416051, Pitch_bend_c, 1, 6144
3, 416064, Pitch_bend_c, 1, 8192
3, 416089, Pitch_bend_c, 1, 8192
3, 416115, Pitch_bend_c, 1, 8192
3, 416134, Pitch_bend_c, 1, 4736
3, 416160, Pitch_bend_c, 1, 8192
3, 416172, Pitch_bend_c, 1, 4096
3, 416185, Pitch_bend_c, 1, 8192
3, 416204, Pitch_bend_c, 1, 8192
3, 416217, Pitch_bend_c, 1, 3456
3, 416230, Pitch_bend_c, 1, 8192
3, 416256, Note_off_c, 1, 70, 80
3, 416256, Pitch_bend_c, 1, 8192
3, 416870, Pitch_bend_c, 1, 9344
3, 416972, Pitch_bend_c, 1, 8832
3, 417075, Pitch_bend_c, 1, 8448
3, 417177, Pitch_bend_c, 1, 8320
3, 417280, Pitch_bend_c, 1, 8192
3, 417792, Note_off_c, 1, 77, 80
3, 417792, Pitch_bend_c, 1, 8192
3, 417792, Note_on_c, 1, 75, 79
3, 417811, Pitch_bend_c, 1, 8192
3, 417830, Pitch_bend_c, 1, 8192
3, 417843, Pitch_bend_c, 1, 8192
3, 417862, Pitch_bend_c, 1, 8192
3, 417881, Pitch_bend_c, 1, 8192
3, 417900, Pitch_bend_c, 1, 8192
3, 417920, Pitch_bend_c, 1, 8192
3, 417932, Pitch_bend_c, 1, 8192
3, 417952, Pitch_bend_c, 1, 8192
3, 417971, Pitch_bend_c, 1, 8192
3, 417990, Pitch_bend_c, 1, 8192
3, 418009, Pitch_bend_c, 1, 8192
3, 418028, Pitch_bend_c, 1, 8192
3, 418041, Pitch_bend_c, 1, 8192
3, 418060, Pitch_bend_c, 1, 8192
3, 418080, Pitch_bend_c, 1, 8192
3, 418099, Pitch_bend_c, 1, 8192
3, 418118, Pitch_bend_c, 1, 8192
3, 418131, Pitch_bend_c, 1, 8192
3, 418150, Pitch_bend_c, 1, 8192
3, 418169, Pitch_bend_c, 1, 8192
3, 418188, Pitch_bend_c, 1, 8192
3, 418208, Pitch_bend_c, 1, 8192
3, 418227, Pitch_bend_c, 1, 8192
3, 418240, Pitch_bend_c, 1, 8192
3, 418259, Pitch_bend_c, 1, 8192
3, 418278, Pitch_bend_c, 1, 8192
3, 418297, Pitch_bend_c, 1, 8192
3, 418316, Pitch_bend_c, 1, 8192
3, 418329, Pitch_bend_c, 1, 8192
3, 418348, Pitch_bend_c, 1, 8192
3, 418368, Pitch_bend_c, 1, 8192
3, 418387, Pitch_bend_c, 1, 8192
3, 418406, Pitch_bend_c, 1, 8192
3, 418419, Pitch_bend_c, 1, 8192
3, 418438, Pitch_bend_c, 1, 8192
3, 418457, Pitch_bend_c, 1, 8192
3, 418476, Pitch_bend_c, 1, 8192
3, 418496, Pitch_bend_c, 1, 8192
3, 418508, Pitch_bend_c, 1, 8192
3, 418528, Pitch_bend_c, 1, 8192
3, 418547, Pitch_bend_c, 1, 8192
3, 418566, Pitch_bend_c, 1, 8192
3, 418585, Pitch_bend_c, 1, 8192
3, 418604, Pitch_bend_c, 1, 8192
3, 418617, Pitch_bend_c, 1, 8192
3, 418636, Pitch_bend_c, 1, 8192
3, 418656, Pitch_bend_c, 1, 8192
3, 418675, Pitch_bend_c, 1, 8192
3, 418694, Pitch_bend_c, 1, 8192
3, 418707, Pitch_bend_c, 1, 8192
3, 418726, Pitch_bend_c, 1, 8192
3, 418745, Pitch_bend_c, 1, 8192
3, 418764, Pitch_bend_c, 1, 8192
3, 418784, Pitch_bend_c, 1, 8192
3, 418803, Pitch_bend_c, 1, 8192
3, 418816, Pitch_bend_c, 1, 8192
3, 418835, Pitch_bend_c, 1, 8192
3, 418854, Pitch_bend_c, 1, 8192
3, 418873, Pitch_bend_c, 1, 8192
3, 418892, Pitch_bend_c, 1, 8192
3, 418905, Pitch_bend_c, 1, 8192
3, 418924, Pitch_bend_c, 1, 8192
3, 418944, Pitch_bend_c, 1, 8192
3, 418963, Pitch_bend_c, 1, 8192
3, 418982, Pitch_bend_c, 1, 8192
3, 418995, Pitch_bend_c, 1, 8320
3, 419014, Pitch_bend_c, 1, 8320
3, 419033, Pitch_bend_c, 1, 8320
3, 419052, Pitch_bend_c, 1, 8320
3, 419072, Pitch_bend_c, 1, 8320
3, 419084, Pitch_bend_c, 1, 8320
3, 419104, Pitch_bend_c, 1, 8320
3, 419123, Pitch_bend_c, 1, 8320
3, 419142, Pitch_bend_c, 1, 8320
3, 419161, Pitch_bend_c, 1, 8320
3, 419180, Pitch_bend_c, 1, 8320
3, 419193, Pitch_bend_c, 1, 8192
3, 419212, Pitch_bend_c, 1, 8192
3, 419232, Pitch_bend_c, 1, 8192
3, 419251, Pitch_bend_c, 1, 8192
3, 419270, Pitch_bend_c, 1, 8192
3, 419283, Pitch_bend_c, 1, 8064
3, 419302, Pitch_bend_c, 1, 8064
3, 419321, Pitch_bend_c, 1, 8064
3, 419340, Pitch_bend_c, 1, 8064
3, 419360, Pitch_bend_c, 1, 8064
3, 419379, Pitch_bend_c, 1, 8064
3, 419392, Pitch_bend_c, 1, 8064
3, 419411, Pitch_bend_c, 1, 8064
3, 419430, Pitch_bend_c, 1, 8064
3, 419449, Pitch_bend_c, 1, 8064
3, 419468, Pitch_bend_c, 1, 8064
3, 419481, Pitch_bend_c, 1, 8192
3, 419500, Pitch_bend_c, 1, 8192
3, 419520, Pitch_bend_c, 1, 8192
3, 419539, Pitch_bend_c, 1, 8192
3, 419558, Pitch_bend_c, 1, 8192
3, 419571, Pitch_bend_c, 1, 8192
3, 419590, Pitch_bend_c, 1, 8320
3, 419609, Pitch_bend_c, 1, 8320
3, 419628, Pitch_bend_c, 1, 8320
3, 419648, Pitch_bend_c, 1, 8320
3, 419660, Pitch_bend_c, 1, 8320
3, 419680, Pitch_bend_c, 1, 8320
3, 419699, Pitch_bend_c, 1, 8320
3, 419718, Pitch_bend_c, 1, 8320
3, 419737, Pitch_bend_c, 1, 8320
3, 419756, Pitch_bend_c, 1, 8192
3, 419769, Pitch_bend_c, 1, 8192
3, 419788, Pitch_bend_c, 1, 8192
3, 419808, Pitch_bend_c, 1, 8192
3, 419827, Pitch_bend_c, 1, 8192
3, 419846, Pitch_bend_c, 1, 8192
3, 419859, Pitch_bend_c, 1, 8192
3, 419878, Pitch_bend_c, 1, 8064
3, 419897, Pitch_bend_c, 1, 8064
3, 419916, Pitch_bend_c, 1, 8064
3, 419936, Pitch_bend_c, 1, 8064
3, 419955, Pitch_bend_c, 1, 8064
3, 419968, Pitch_bend_c, 1, 8064
3, 419987, Pitch_bend_c, 1, 8064
3, 420006, Pitch_bend_c, 1, 8064
3, 420025, Pitch_bend_c, 1, 8064
3, 420044, Pitch_bend_c, 1, 8192
3, 420057, Pitch_bend_c, 1, 8192
3, 420076, Pitch_bend_c, 1, 8192
3, 420096, Pitch_bend_c, 1, 8192
3, 420115, Pitch_bend_c, 1, 8192
3, 420134, Pitch_bend_c, 1, 8320
3, 420147, Pitch_bend_c, 1, 8320
3, 420166, Pitch_bend_c, 1, 8320
3, 420185, Pitch_bend_c, 1, 8320
3, 420204, Pitch_bend_c, 1, 8448
3, 420224, Pitch_bend_c, 1, 8448
3, 420236, Pitch_bend_c, 1, 8448
3, 420256, Pitch_bend_c, 1, 8448
3, 420275, Pitch_bend_c, 1, 8448
3, 420294, Pitch_bend_c, 1, 8320
3, 420313, Pitch_bend_c, 1, 8320
3, 420332, Pitch_bend_c, 1, 8320
3, 420345, Pitch_bend_c, 1, 8320
3, 420364, Pitch_bend_c, 1, 8192
3, 420384, Pitch_bend_c, 1, 8192
3, 420403, Pitch_bend_c, 1, 8192
3, 420422, Pitch_bend_c, 1, 8064
3, 420435, Pitch_bend_c, 1, 8064
3, 420454, Pitch_bend_c, 1, 8064
3, 420473, Pitch_bend_c, 1, 8064
3, 420492, Pitch_bend_c, 1, 7936
3, 420512, Pitch_bend_c, 1, 7936
3, 420531, Pitch_bend_c, 1, 7936
3, 420544, Pitch_bend_c, 1, 7936
3, 420563, Pitch_bend_c, 1, 7936
3, 420582, Pitch_bend_c, 1, 8064
3, 420601, Pitch_bend_c, 1, 8064
3, 420620, Pitch_bend_c, 1, 8064
3, 420633, Pitch_bend_c, 1, 8064
3, 420652, Pitch_bend_c, 1, 8192
3, 420672, Pitch_bend_c, 1, 8192
3, 420691, Pitch_bend_c, 1, 8192
3, 420710, Pitch_bend_c, 1, 8320
3, 420723, Pitch_bend_c, 1, 8320
3, 420742, Pitch_bend_c, 1, 8320
3, 420761, Pitch_bend_c, 1, 8320
3, 420780, Pitch_bend_c, 1, 8448
3, 420800, Pitch_bend_c, 1, 8448
3, 420812, Pitch_bend_c, 1, 8448
3, 420832, Pitch_bend_c, 1, 8448
3, 420851, Pitch_bend_c, 1, 8448
3, 420870, Pitch_bend_c, 1, 8320
3, 420889, Pitch_bend_c, 1, 8320
3, 420908, Pitch_bend_c, 1, 8320
3, 420921, Pitch_bend_c, 1, 8320
3, 420940, Pitch_bend_c, 1, 8192
3, 420960, Pitch_bend_c, 1, 8192
3, 420979, Pitch_bend_c, 1, 8192
3, 420998, Pitch_bend_c, 1, 8064
3, 421011, Pitch_bend_c, 1, 8064
3, 421030, Pitch_bend_c, 1, 8064
3, 421049, Pitch_bend_c, 1, 8064
3, 421068, Pitch_bend_c, 1, 7936
3, 421088, Pitch_bend_c, 1, 7936
3, 421107, Pitch_bend_c, 1, 7936
3, 421120, Pitch_bend_c, 1, 7936
3, 421139, Pitch_bend_c, 1, 7936
3, 421158, Pitch_bend_c, 1, 8064
3, 421177, Pitch_bend_c, 1, 8064
3, 421196, Pitch_bend_c, 1, 8064
3, 421209, Pitch_bend_c, 1, 8064
3, 421228, Pitch_bend_c, 1, 8192
3, 421248, Pitch_bend_c, 1, 8192
3, 421267, Pitch_bend_c, 1, 8192
3, 421286, Pitch_bend_c, 1, 8320
3, 421299, Pitch_bend_c, 1, 8320
3, 421318, Pitch_bend_c, 1, 8320
3, 421337, Pitch_bend_c, 1, 8320
3, 421356, Pitch_bend_c, 1, 8320
3, 421376, Pitch_bend_c, 1, 8320
3, 421388, Pitch_bend_c, 1, 8320
3, 421408, Pitch_bend_c, 1, 8320
3, 421427, Pitch_bend_c, 1, 8320
3, 421446, Pitch_bend_c, 1, 8320
3, 421465, Pitch_bend_c, 1, 8320
3, 421484, Pitch_bend_c, 1, 8320
3, 421497, Pitch_bend_c, 1, 8320
3, 421516, Pitch_bend_c, 1, 8192
3, 421536, Pitch_bend_c, 1, 8192
3, 421555, Pitch_bend_c, 1, 8192
3, 421574, Pitch_bend_c, 1, 8064
3, 421587, Pitch_bend_c, 1, 8064
3, 421606, Pitch_bend_c, 1, 8064
3, 421625, Pitch_bend_c, 1, 8064
3, 421644, Pitch_bend_c, 1, 8064
3, 421664, Pitch_bend_c, 1, 8064
3, 421683, Pitch_bend_c, 1, 8064
3, 421696, Pitch_bend_c, 1, 8064
3, 421715, Pitch_bend_c, 1, 8064
3, 421734, Pitch_bend_c, 1, 8064
3, 421753, Pitch_bend_c, 1, 8064
3, 421772, Pitch_bend_c, 1, 8064
3, 421785, Pitch_bend_c, 1, 8064
3, 421804, Pitch_bend_c, 1, 8192
3, 421824, Pitch_bend_c, 1, 8192
3, 421843, Pitch_bend_c, 1, 8320
3, 421862, Pitch_bend_c, 1, 8320
3, 421875, Pitch_bend_c, 1, 8320
3, 421894, Pitch_bend_c, 1, 8448
3, 421913, Pitch_bend_c, 1, 8448
3, 421932, Pitch_bend_c, 1, 8448
3, 421952, Pitch_bend_c, 1, 8448
3, 421964, Pitch_bend_c, 1, 8448
3, 421984, Pitch_bend_c, 1, 8448
3, 422003, Pitch_bend_c, 1, 8448
3, 422022, Pitch_bend_c, 1, 8448
3, 422041, Pitch_bend_c, 1, 8448
3, 422060, Pitch_bend_c, 1, 8320
3, 422073, Pitch_bend_c, 1, 8320
3, 422092, Pitch_bend_c, 1, 8320
3, 422112, Pitch_bend_c, 1, 8192
3, 422131, Pitch_bend_c, 1, 8064
3, 422150, Pitch_bend_c, 1, 8064
3, 422163, Pitch_bend_c, 1, 8064
3, 422182, Pitch_bend_c, 1, 7936
3, 422201, Pitch_bend_c, 1, 7936
3, 422220, Pitch_bend_c, 1, 7936
3, 422240, Pitch_bend_c, 1, 7936
3, 422259, Pitch_bend_c, 1, 7936
3, 422272, Pitch_bend_c, 1, 7936
3, 422291, Pitch_bend_c, 1, 7936
3, 422310, Pitch_bend_c, 1, 7936
3, 422329, Pitch_bend_c, 1, 7936
3, 422348, Pitch_bend_c, 1, 8064
3, 422361, Pitch_bend_c, 1, 8064
3, 422380, Pitch_bend_c, 1, 8064
3, 422400, Pitch_bend_c, 1, 8192
3, 422419, Pitch_bend_c, 1, 8192
3, 422438, Pitch_bend_c, 1, 8320
3, 422451, Pitch_bend_c, 1, 8320
3, 422470, Pitch_bend_c, 1, 8320
3, 422489, Pitch_bend_c, 1, 8448
3, 422508, Pitch_bend_c, 1, 8448
3, 422528, Pitch_bend_c, 1, 8448
3, 422540, Pitch_bend_c, 1, 8448
3, 422560, Pitch_bend_c, 1, 8448
3, 422579, Pitch_bend_c, 1, 8448
3, 422598, Pitch_bend_c, 1, 8448
3, 422617, Pitch_bend_c, 1, 8320
3, 422636, Pitch_bend_c, 1, 8320
3, 422649, Pitch_bend_c, 1, 8320
3, 422668, Pitch_bend_c, 1, 8192
3, 422688, Pitch_bend_c, 1, 8192
3, 422707, Pitch_bend_c, 1, 8192
3, 422726, Pitch_bend_c, 1, 8064
3, 422739, Pitch_bend_c, 1, 8064
3, 422758, Pitch_bend_c, 1, 8064
3, 422777, Pitch_bend_c, 1, 7936
3, 422796, Pitch_bend_c, 1, 7936
3, 422816, Pitch_bend_c, 1, 7936
3, 422835, Pitch_bend_c, 1, 7936
3, 422848, Pitch_bend_c, 1, 7936
3, 422867, Pitch_bend_c, 1, 7936
3, 422886, Pitch_bend_c, 1, 7936
3, 422905, Pitch_bend_c, 1, 8064
3, 422924, Pitch_bend_c, 1, 8064
3, 422937, Pitch_bend_c, 1, 8064
3, 422956, Pitch_bend_c, 1, 8192
3, 422976, Pitch_bend_c, 1, 8192
3, 422995, Pitch_bend_c, 1, 8192
3, 423014, Pitch_bend_c, 1, 8320
3, 423027, Pitch_bend_c, 1, 8320
3, 423046, Pitch_bend_c, 1, 8320
3, 423065, Pitch_bend_c, 1, 8320
3, 423084, Pitch_bend_c, 1, 8320
3, 423104, Pitch_bend_c, 1, 8320
3, 423116, Pitch_bend_c, 1, 8320
3, 423136, Pitch_bend_c, 1, 8320
3, 423155, Pitch_bend_c, 1, 8320
3, 423174, Pitch_bend_c, 1, 8320
3, 423193, Pitch_bend_c, 1, 8320
3, 423212, Pitch_bend_c, 1, 8320
3, 423225, Pitch_bend_c, 1, 8320
3, 423244, Pitch_bend_c, 1, 8192
3, 423264, Pitch_bend_c, 1, 8192
3, 423283, Pitch_bend_c, 1, 8192
3, 423302, Pitch_bend_c, 1, 8064
3, 423315, Pitch_bend_c, 1, 8064
3, 423334, Pitch_bend_c, 1, 8064
3, 423353, Pitch_bend_c, 1, 8064
3, 423372, Pitch_bend_c, 1, 8064
3, 423392, Pitch_bend_c, 1, 8064
3, 423411, Pitch_bend_c, 1, 8064
3, 423424, Pitch_bend_c, 1, 8064
3, 423443, Pitch_bend_c, 1, 8064
3, 423462, Pitch_bend_c, 1, 8064
3, 423481, Pitch_bend_c, 1, 8064
3, 423500, Pitch_bend_c, 1, 8064
3, 423513, Pitch_bend_c, 1, 8064
3, 423532, Pitch_bend_c, 1, 8192
3, 423552, Pitch_bend_c, 1, 8192
3, 423571, Pitch_bend_c, 1, 8192
3, 423590, Pitch_bend_c, 1, 8320
3, 423603, Pitch_bend_c, 1, 8320
3, 423622, Pitch_bend_c, 1, 8448
3, 423641, Pitch_bend_c, 1, 8448
3, 423660, Pitch_bend_c, 1, 8448
3, 423680, Pitch_bend_c, 1, 8448
3, 423692, Pitch_bend_c, 1, 8448
3, 423712, Pitch_bend_c, 1, 8448
3, 423731, Pitch_bend_c, 1, 8448
3, 423750, Pitch_bend_c, 1, 8448
3, 423769, Pitch_bend_c, 1, 8448
3, 423788, Pitch_bend_c, 1, 8320
3, 423801, Pitch_bend_c, 1, 8320
3, 423820, Pitch_bend_c, 1, 8192
3, 423840, Pitch_bend_c, 1, 8192
3, 423859, Pitch_bend_c, 1, 8192
3, 423878, Pitch_bend_c, 1, 8064
3, 423891, Pitch_bend_c, 1, 8064
3, 423910, Pitch_bend_c, 1, 7936
3, 423929, Pitch_bend_c, 1, 7936
3, 423948, Pitch_bend_c, 1, 7936
3, 423968, Pitch_bend_c, 1, 7936
3, 423987, Pitch_bend_c, 1, 7936
3, 424000, Pitch_bend_c, 1, 7936
3, 424019, Pitch_bend_c, 1, 7936
3, 424038, Pitch_bend_c, 1, 7936
3, 424057, Pitch_bend_c, 1, 7936
3, 424076, Pitch_bend_c, 1, 8064
3, 424089, Pitch_bend_c, 1, 8064
3, 424108, Pitch_bend_c, 1, 8192
3, 424128, Pitch_bend_c, 1, 8192
3, 424147, Pitch_bend_c, 1, 8192
3, 424166, Pitch_bend_c, 1, 8320
3, 424179, Pitch_bend_c, 1, 8320
3, 424198, Pitch_bend_c, 1, 8320
3, 424217, Pitch_bend_c, 1, 8320
3, 424236, Pitch_bend_c, 1, 8320
3, 424256, Pitch_bend_c, 1, 8320
3, 424268, Pitch_bend_c, 1, 8320
3, 424288, Pitch_bend_c, 1, 8320
3, 424307, Pitch_bend_c, 1, 8320
3, 424326, Pitch_bend_c, 1, 8320
3, 424345, Pitch_bend_c, 1, 8320
3, 424364, Pitch_bend_c, 1, 8320
3, 424377, Pitch_bend_c, 1, 8320
3, 424396, Pitch_bend_c, 1, 8192
3, 424416, Pitch_bend_c, 1, 8192
3, 424435, Pitch_bend_c, 1, 8192
3, 424454, Pitch_bend_c, 1, 8064
3, 424467, Pitch_bend_c, 1, 8064
3, 424486, Pitch_bend_c, 1, 8064
3, 424505, Pitch_bend_c, 1, 8064
3, 424524, Pitch_bend_c, 1, 8064
3, 424544, Pitch_bend_c, 1, 8064
3, 424563, Pitch_bend_c, 1, 8064
3, 424576, Pitch_bend_c, 1, 8064
3, 424595, Pitch_bend_c, 1, 8064
3, 424614, Pitch_bend_c, 1, 8064
3, 424633, Pitch_bend_c, 1, 8064
3, 424652, Pitch_bend_c, 1, 8064
3, 424665, Pitch_bend_c, 1, 8064
3, 424684, Pitch_bend_c, 1, 8192
3, 424704, Pitch_bend_c, 1, 8192
3, 424723, Pitch_bend_c, 1, 8192
3, 424742, Pitch_bend_c, 1, 8320
3, 424755, Pitch_bend_c, 1, 8320
3, 424774, Pitch_bend_c, 1, 8320
3, 424793, Pitch_bend_c, 1, 8320
3, 424812, Pitch_bend_c, 1, 8320
3, 424832, Pitch_bend_c, 1, 8320
3, 424844, Pitch_bend_c, 1, 8320
3, 424864, Pitch_bend_c, 1, 8320
3, 424883, Pitch_bend_c, 1, 8320
3, 424902, Pitch_bend_c, 1, 8320
3, 424921, Pitch_bend_c, 1, 8320
3, 424940, Pitch_bend_c, 1, 8320
3, 424953, Pitch_bend_c, 1, 8320
3, 424972, Pitch_bend_c, 1, 8192
3, 424992, Pitch_bend_c, 1, 8192
3, 425011, Pitch_bend_c, 1, 8192
3, 425030, Pitch_bend_c, 1, 8064
3, 425043, Pitch_bend_c, 1, 8064
3, 425062, Pitch_bend_c, 1, 8064
3, 425081, Pitch_bend_c, 1, 8064
3, 425100, Pitch_bend_c, 1, 8064
3, 425120, Pitch_bend_c, 1, 8064
3, 425139, Pitch_bend_c, 1, 8064
3, 425152, Pitch_bend_c, 1, 8064
3, 425171, Pitch_bend_c, 1, 8064
3, 425190, Pitch_bend_c, 1, 8064
3, 425209, Pitch_bend_c, 1, 8064
3, 425228, Pitch_bend_c, 1, 8064
3, 425241, Pitch_bend_c, 1, 8064
3, 425260, Pitch_bend_c, 1, 8192
3, 425280, Pitch_bend_c, 1, 8192
3, 425299, Pitch_bend_c, 1, 8192
3, 425318, Pitch_bend_c, 1, 8320
3, 425331, Pitch_bend_c, 1, 8320
3, 425350, Pitch_bend_c, 1, 8320
3, 425369, Pitch_bend_c, 1, 8320
3, 425388, Pitch_bend_c, 1, 8448
3, 425408, Pitch_bend_c, 1, 8448
3, 425420, Pitch_bend_c, 1, 8448
3, 425440, Pitch_bend_c, 1, 8448
3, 425459, Pitch_bend_c, 1, 8448
3, 425478, Pitch_bend_c, 1, 8320
3, 425497, Pitch_bend_c, 1, 8320
3, 425516, Pitch_bend_c, 1, 8320
3, 425529, Pitch_bend_c, 1, 8320
3, 425548, Pitch_bend_c, 1, 8192
3, 425568, Pitch_bend_c, 1, 8192
3, 425587, Pitch_bend_c, 1, 8192
3, 425606, Pitch_bend_c, 1, 8064
3, 425619, Pitch_bend_c, 1, 8064
3, 425638, Pitch_bend_c, 1, 8064
3, 425657, Pitch_bend_c, 1, 8064
3, 425676, Pitch_bend_c, 1, 7936
3, 425696, Pitch_bend_c, 1, 7936
3, 425715, Pitch_bend_c, 1, 7936
3, 425728, Pitch_bend_c, 1, 7936
3, 425747, Pitch_bend_c, 1, 7936
3, 425766, Pitch_bend_c, 1, 8064
3, 425785, Pitch_bend_c, 1, 8064
3, 425804, Pitch_bend_c, 1, 8064
3, 425817, Pitch_bend_c, 1, 8064
3, 425836, Pitch_bend_c, 1, 8192
3, 425856, Pitch_bend_c, 1, 8192
3, 425875, Pitch_bend_c, 1, 8192
3, 425894, Pitch_bend_c, 1, 8320
3, 425907, Pitch_bend_c, 1, 8320
3, 425926, Pitch_bend_c, 1, 8448
3, 425945, Pitch_bend_c, 1, 8448
3, 425964, Pitch_bend_c, 1, 8448
3, 425984, Pitch_bend_c, 1, 8448
3, 425996, Pitch_bend_c, 1, 8448
3, 426016, Pitch_bend_c, 1, 8448
3, 426035, Pitch_bend_c, 1, 8448
3, 426054, Pitch_bend_c, 1, 8448
3, 426073, Pitch_bend_c, 1, 8448
3, 426092, Pitch_bend_c, 1, 8320
3, 426105, Pitch_bend_c, 1, 8320
3, 426124, Pitch_bend_c, 1, 8192
3, 426144, Pitch_bend_c, 1, 8192
3, 426163, Pitch_bend_c, 1, 8192
3, 426182, Pitch_bend_c, 1, 8064
3, 426195, Pitch_bend_c, 1, 8064
3, 426214, Pitch_bend_c, 1, 7936
3, 426233, Pitch_bend_c, 1, 7936
3, 426252, Pitch_bend_c, 1, 7936
3, 426272, Pitch_bend_c, 1, 7936
3, 426291, Pitch_bend_c, 1, 7936
3, 426304, Pitch_bend_c, 1, 7936
3, 426323, Pitch_bend_c, 1, 7936
3, 426342, Pitch_bend_c, 1, 7936
3, 426361, Pitch_bend_c, 1, 7936
3, 426380, Pitch_bend_c, 1, 8064
3, 426393, Pitch_bend_c, 1, 8064
3, 426412, Pitch_bend_c, 1, 8192
3, 426432, Pitch_bend_c, 1, 8192
3, 426451, Pitch_bend_c, 1, 8192
3, 426470, Pitch_bend_c, 1, 8320
3, 426483, Pitch_bend_c, 1, 8320
3, 426502, Pitch_bend_c, 1, 8320
3, 426521, Pitch_bend_c, 1, 8320
3, 426540, Pitch_bend_c, 1, 8320
3, 426560, Pitch_bend_c, 1, 8448
3, 426572, Pitch_bend_c, 1, 8448
3, 426592, Pitch_bend_c, 1, 8448
3, 426611, Pitch_bend_c, 1, 8320
3, 426630, Pitch_bend_c, 1, 8320
3, 426649, Pitch_bend_c, 1, 8320
3, 426668, Pitch_bend_c, 1, 8320
3, 426681, Pitch_bend_c, 1, 8320
3, 426700, Pitch_bend_c, 1, 8192
3, 426720, Pitch_bend_c, 1, 8192
3, 426739, Pitch_bend_c, 1, 8192
3, 426758, Pitch_bend_c, 1, 8064
3, 426771, Pitch_bend_c, 1, 8064
3, 426790, Pitch_bend_c, 1, 8064
3, 426809, Pitch_bend_c, 1, 8064
3, 426828, Pitch_bend_c, 1, 8064
3, 426848, Pitch_bend_c, 1, 7936
3, 426867, Pitch_bend_c, 1, 7936
3, 426880, Pitch_bend_c, 1, 7936
3, 426899, Pitch_bend_c, 1, 8064
3, 426918, Pitch_bend_c, 1, 8064
3, 426937, Pitch_bend_c, 1, 8064
3, 426956, Pitch_bend_c, 1, 8064
3, 426969, Pitch_bend_c, 1, 8064
3, 426988, Pitch_bend_c, 1, 8192
3, 427008, Pitch_bend_c, 1, 8192
3, 427027, Pitch_bend_c, 1, 8192
3, 427046, Pitch_bend_c, 1, 8320
3, 427059, Pitch_bend_c, 1, 8320
3, 427078, Pitch_bend_c, 1, 8320
3, 427097, Pitch_bend_c, 1, 8320
3, 427116, Pitch_bend_c, 1, 8320
3, 427136, Pitch_bend_c, 1, 8320
3, 427148, Pitch_bend_c, 1, 8320
3, 427168, Pitch_bend_c, 1, 8320
3, 427187, Pitch_bend_c, 1, 8320
3, 427206, Pitch_bend_c, 1, 8320
3, 427225, Pitch_bend_c, 1, 8320
3, 427244, Pitch_bend_c, 1, 8320
3, 427257, Pitch_bend_c, 1, 8320
3, 427276, Pitch_bend_c, 1, 8192
3, 427296, Pitch_bend_c, 1, 8192
3, 427315, Pitch_bend_c, 1, 8192
3, 427334, Pitch_bend_c, 1, 8064
3, 427347, Pitch_bend_c, 1, 8064
3, 427366, Pitch_bend_c, 1, 8064
3, 427385, Pitch_bend_c, 1, 8064
3, 427404, Pitch_bend_c, 1, 8064
3, 427424, Pitch_bend_c, 1, 8064
3, 427443, Pitch_bend_c, 1, 8064
3, 427456, Pitch_bend_c, 1, 8064
3, 427475, Pitch_bend_c, 1, 8064
3, 427494, Pitch_bend_c, 1, 8064
3, 427513, Pitch_bend_c, 1, 8064
3, 427532, Pitch_bend_c, 1, 8064
3, 427545, Pitch_bend_c, 1, 8064
3, 427564, Pitch_bend_c, 1, 8192
3, 427584, Pitch_bend_c, 1, 8192
3, 427603, Pitch_bend_c, 1, 8192
3, 427622, Pitch_bend_c, 1, 8320
3, 427635, Pitch_bend_c, 1, 8320
3, 427654, Pitch_bend_c, 1, 8320
3, 427673, Pitch_bend_c, 1, 8448
3, 427692, Pitch_bend_c, 1, 8448
3, 427712, Pitch_bend_c, 1, 8448
3, 427724, Pitch_bend_c, 1, 8448
3, 427744, Pitch_bend_c, 1, 8448
3, 427763, Pitch_bend_c, 1, 8448
3, 427782, Pitch_bend_c, 1, 8448
3, 427801, Pitch_bend_c, 1, 8320
3, 427820, Pitch_bend_c, 1, 8320
3, 427833, Pitch_bend_c, 1, 8320
3, 427852, Pitch_bend_c, 1, 8192
3, 427872, Pitch_bend_c, 1, 8192
3, 427891, Pitch_bend_c, 1, 8192
3, 427910, Pitch_bend_c, 1, 8064
3, 427923, Pitch_bend_c, 1, 8064
3, 427942, Pitch_bend_c, 1, 8064
3, 427961, Pitch_bend_c, 1, 7936
3, 427980, Pitch_bend_c, 1, 7936
3, 428000, Pitch_bend_c, 1, 7936
3, 428019, Pitch_bend_c, 1, 7936
3, 428032, Pitch_bend_c, 1, 7936
3, 428051, Pitch_bend_c, 1, 7936
3, 428070, Pitch_bend_c, 1, 7936
3, 428089, Pitch_bend_c, 1, 8064
3, 428108, Pitch_bend_c, 1, 8064
3, 428121, Pitch_bend_c, 1, 8064
3, 428140, Pitch_bend_c, 1, 8192
3, 428160, Pitch_bend_c, 1, 8192
3, 428179, Pitch_bend_c, 1, 8192
3, 428198, Pitch_bend_c, 1, 8320
3, 428211, Pitch_bend_c, 1, 8320
3, 428230, Pitch_bend_c, 1, 8320
3, 428249, Pitch_bend_c, 1, 8448
3, 428268, Pitch_bend_c, 1, 8448
3, 428288, Pitch_bend_c, 1, 8448
3, 428300, Pitch_bend_c, 1, 8448
3, 428320, Pitch_bend_c, 1, 8448
3, 428339, Pitch_bend_c, 1, 8448
3, 428358, Pitch_bend_c, 1, 8448
3, 428377, Pitch_bend_c, 1, 8320
3, 428396, Pitch_bend_c, 1, 8320
3, 428409, Pitch_bend_c, 1, 8320
3, 428428, Pitch_bend_c, 1, 8192
3, 428448, Pitch_bend_c, 1, 8192
3, 428467, Pitch_bend_c, 1, 8192
3, 428486, Pitch_bend_c, 1, 8064
3, 428499, Pitch_bend_c, 1, 8064
3, 428518, Pitch_bend_c, 1, 8064
3, 428537, Pitch_bend_c, 1, 7936
3, 428556, Pitch_bend_c, 1, 7936
3, 428576, Pitch_bend_c, 1, 7936
3, 428595, Pitch_bend_c, 1, 7936
3, 428608, Pitch_bend_c, 1, 7936
3, 428627, Pitch_bend_c, 1, 7936
3, 428646, Pitch_bend_c, 1, 7936
3, 428665, Pitch_bend_c, 1, 8064
3, 428684, Pitch_bend_c, 1, 8064
3, 428697, Pitch_bend_c, 1, 8064
3, 428716, Pitch_bend_c, 1, 8192
3, 428736, Pitch_bend_c, 1, 8192
3, 428755, Pitch_bend_c, 1, 8192
3, 428774, Pitch_bend_c, 1, 8320
3, 428787, Pitch_bend_c, 1, 8320
3, 428806, Pitch_bend_c, 1, 8320
3, 428825, Pitch_bend_c, 1, 8448
3, 428844, Pitch_bend_c, 1, 8448
3, 428864, Pitch_bend_c, 1, 8448
3, 428876, Pitch_bend_c, 1, 8448
3, 428896, Pitch_bend_c, 1, 8448
3, 428915, Pitch_bend_c, 1, 8448
3, 428934, Pitch_bend_c, 1, 8448
3, 428953, Pitch_bend_c, 1, 8320
3, 428972, Pitch_bend_c, 1, 8320
3, 428985, Pitch_bend_c, 1, 8320
3, 429004, Pitch_bend_c, 1, 8192
3, 429024, Pitch_bend_c, 1, 8192
3, 429043, Pitch_bend_c, 1, 8192
3, 429062, Pitch_bend_c, 1, 8064
3, 429075, Pitch_bend_c, 1, 8064
3, 429094, Pitch_bend_c, 1, 8064
3, 429113, Pitch_bend_c, 1, 7936
3, 429132, Pitch_bend_c, 1, 7936
3, 429152, Pitch_bend_c, 1, 7936
3, 429171, Pitch_bend_c, 1, 7936
3, 429184, Pitch_bend_c, 1, 7936
3, 429203, Pitch_bend_c, 1, 7936
3, 429222, Pitch_bend_c, 1, 7936
3, 429241, Pitch_bend_c, 1, 8064
3, 429260, Pitch_bend_c, 1, 8064
3, 429273, Pitch_bend_c, 1, 8064
3, 429292, Pitch_bend_c, 1, 8192
3, 429312, Pitch_bend_c, 1, 8192
3, 429331, Pitch_bend_c, 1, 8192
3, 429350, Pitch_bend_c, 1, 8320
3, 429363, Pitch_bend_c, 1, 8320
3, 429382, Pitch_bend_c, 1, 8320
3, 429401, Pitch_bend_c, 1, 8320
3, 429420, Pitch_bend_c, 1, 8448
3, 429440, Pitch_bend_c, 1, 8448
3, 429452, Pitch_bend_c, 1, 8448
3, 429472, Pitch_bend_c, 1, 8448
3, 429491, Pitch_bend_c, 1, 8448
3, 429510, Pitch_bend_c, 1, 8320
3, 429529, Pitch_bend_c, 1, 8320
3, 429548, Pitch_bend_c, 1, 8320
3, 429561, Pitch_bend_c, 1, 8320
3, 429580, Pitch_bend_c, 1, 8192
3, 429600, Pitch_bend_c, 1, 8192
3, 429619, Pitch_bend_c, 1, 8192
3, 429638, Pitch_bend_c, 1, 8064
3, 429651, Pitch_bend_c, 1, 8064
3, 429670, Pitch_bend_c, 1, 8064
3, 429689, Pitch_bend_c, 1, 8064
3, 429708, Pitch_bend_c, 1, 7936
3, 429728, Pitch_bend_c, 1, 7936
3, 429747, Pitch_bend_c, 1, 7936
3, 429760, Pitch_bend_c, 1, 7936
3, 429779, Pitch_bend_c, 1, 7936
3, 429798, Pitch_bend_c, 1, 8064
3, 429817, Pitch_bend_c, 1, 8064
3, 429836, Pitch_bend_c, 1, 8064
3, 429849, Pitch_bend_c, 1, 8064
3, 429868, Pitch_bend_c, 1, 8192
3, 429888, Pitch_bend_c, 1, 8192
3, 429907, Pitch_bend_c, 1, 8192
3, 429926, Pitch_bend_c, 1, 8320
3, 429939, Pitch_bend_c, 1, 8320
3, 429958, Pitch_bend_c, 1, 8320
3, 429977, Pitch_bend_c, 1, 8448
3, 429996, Pitch_bend_c, 1, 8448
3, 430016, Pitch_bend_c, 1, 8448
3, 430028, Pitch_bend_c, 1, 8448
3, 430048, Pitch_bend_c, 1, 8448
3, 430067, Pitch_bend_c, 1, 8448
3, 430086, Pitch_bend_c, 1, 8448
3, 430105, Pitch_bend_c, 1, 8320
3, 430124, Pitch_bend_c, 1, 8320
3, 430137, Pitch_bend_c, 1, 8320
3, 430156, Pitch_bend_c, 1, 8192
3, 430176, Pitch_bend_c, 1, 8192
3, 430195, Pitch_bend_c, 1, 8192
3, 430214, Pitch_bend_c, 1, 8064
3, 430227, Pitch_bend_c, 1, 8064
3, 430246, Pitch_bend_c, 1, 8064
3, 430265, Pitch_bend_c, 1, 7936
3, 430284, Pitch_bend_c, 1, 7936
3, 430304, Pitch_bend_c, 1, 7936
3, 430323, Pitch_bend_c, 1, 7936
3, 430336, Pitch_bend_c, 1, 7936
3, 430355, Pitch_bend_c, 1, 7936
3, 430374, Pitch_bend_c, 1, 7936
3, 430393, Pitch_bend_c, 1, 8064
3, 430412, Pitch_bend_c, 1, 8064
3, 430425, Pitch_bend_c, 1, 8064
3, 430444, Pitch_bend_c, 1, 8192
3, 430464, Pitch_bend_c, 1, 8192
3, 430483, Pitch_bend_c, 1, 8192
3, 430502, Pitch_bend_c, 1, 8320
3, 430515, Pitch_bend_c, 1, 8320
3, 430534, Pitch_bend_c, 1, 8320
3, 430553, Pitch_bend_c, 1, 8320
3, 430572, Pitch_bend_c, 1, 8320
3, 430592, Pitch_bend_c, 1, 8320
3, 430604, Pitch_bend_c, 1, 8320
3, 430624, Pitch_bend_c, 1, 8320
3, 430643, Pitch_bend_c, 1, 8320
3, 430662, Pitch_bend_c, 1, 8320
3, 430681, Pitch_bend_c, 1, 8320
3, 430700, Pitch_bend_c, 1, 8320
3, 430713, Pitch_bend_c, 1, 8320
3, 430732, Pitch_bend_c, 1, 8192
3, 430752, Pitch_bend_c, 1, 8192
3, 430771, Pitch_bend_c, 1, 8192
3, 430790, Pitch_bend_c, 1, 8064
3, 430803, Pitch_bend_c, 1, 8064
3, 430822, Pitch_bend_c, 1, 8064
3, 430841, Pitch_bend_c, 1, 8064
3, 430860, Pitch_bend_c, 1, 8064
3, 430880, Pitch_bend_c, 1, 8064
3, 430899, Pitch_bend_c, 1, 8064
3, 430912, Pitch_bend_c, 1, 8064
3, 430931, Pitch_bend_c, 1, 8064
3, 430950, Pitch_bend_c, 1, 8064
3, 430969, Pitch_bend_c, 1, 8064
3, 430988, Pitch_bend_c, 1, 8064
3, 431001, Pitch_bend_c, 1, 8064
3, 431020, Pitch_bend_c, 1, 8192
3, 431040, Pitch_bend_c, 1, 8192
3, 431059, Pitch_bend_c, 1, 8192
3, 431078, Pitch_bend_c, 1, 8320
3, 431091, Pitch_bend_c, 1, 8320
3, 431110, Pitch_bend_c, 1, 8320
3, 431129, Pitch_bend_c, 1, 8320
3, 431148, Pitch_bend_c, 1, 8320
3, 431168, Pitch_bend_c, 1, 8320
3, 431180, Pitch_bend_c, 1, 8320
3, 431200, Pitch_bend_c, 1, 8320
3, 431219, Pitch_bend_c, 1, 8320
3, 431238, Pitch_bend_c, 1, 8320
3, 431257, Pitch_bend_c, 1, 8320
3, 431276, Pitch_bend_c, 1, 8320
3, 431289, Pitch_bend_c, 1, 8320
3, 431308, Pitch_bend_c, 1, 8192
3, 431328, Pitch_bend_c, 1, 8192
3, 431347, Pitch_bend_c, 1, 8192
3, 431366, Pitch_bend_c, 1, 8064
3, 431379, Pitch_bend_c, 1, 8064
3, 431398, Pitch_bend_c, 1, 8064
3, 431417, Pitch_bend_c, 1, 8064
3, 431436, Pitch_bend_c, 1, 8064
3, 431456, Pitch_bend_c, 1, 8064
3, 431475, Pitch_bend_c, 1, 8064
3, 431488, Pitch_bend_c, 1, 8064
3, 431507, Pitch_bend_c, 1, 8064
3, 431526, Pitch_bend_c, 1, 8064
3, 431545, Pitch_bend_c, 1, 8064
3, 431564, Pitch_bend_c, 1, 8064
3, 431577, Pitch_bend_c, 1, 8064
3, 431596, Pitch_bend_c, 1, 8192
3, 431616, Pitch_bend_c, 1, 8192
3, 431635, Pitch_bend_c, 1, 8192
3, 431654, Pitch_bend_c, 1, 8320
3, 431667, Pitch_bend_c, 1, 8320
3, 431686, Pitch_bend_c, 1, 8320
3, 431705, Pitch_bend_c, 1, 8320
3, 431724, Pitch_bend_c, 1, 8448
3, 431744, Pitch_bend_c, 1, 8448
3, 431756, Pitch_bend_c, 1, 8448
3, 431776, Pitch_bend_c, 1, 8448
3, 431795, Pitch_bend_c, 1, 8448
3, 431814, Pitch_bend_c, 1, 8320
3, 431833, Pitch_bend_c, 1, 8320
3, 431852, Pitch_bend_c, 1, 8320
3, 431865, Pitch_bend_c, 1, 8320
3, 431884, Pitch_bend_c, 1, 8192
3, 431904, Pitch_bend_c, 1, 8192
3, 431923, Pitch_bend_c, 1, 8192
3, 431942, Pitch_bend_c, 1, 8064
3, 431955, Pitch_bend_c, 1, 8064
3, 431974, Pitch_bend_c, 1, 8064
3, 431993, Pitch_bend_c, 1, 8064
3, 432012, Pitch_bend_c, 1, 7936
3, 432032, Pitch_bend_c, 1, 7936
3, 432051, Pitch_bend_c, 1, 7936
3, 432064, Pitch_bend_c, 1, 7936
3, 432083, Pitch_bend_c, 1, 7936
3, 432102, Pitch_bend_c, 1, 8064
3, 432121, Pitch_bend_c, 1, 8064
3, 432140, Pitch_bend_c, 1, 8064
3, 432153, Pitch_bend_c, 1, 8064
3, 432172, Pitch_bend_c, 1, 8192
3, 432192, Pitch_bend_c, 1, 8192
3, 432211, Pitch_bend_c, 1, 8192
3, 432230, Pitch_bend_c, 1, 8320
3, 432243, Pitch_bend_c, 1, 8320
3, 432262, Pitch_bend_c, 1, 8320
3, 432281, Pitch_bend_c, 1, 8448
3, 432300, Pitch_bend_c, 1, 8448
3, 432320, Pitch_bend_c, 1, 8448
3, 432332, Pitch_bend_c, 1, 8448
3, 432352, Pitch_bend_c, 1, 8448
3, 432371, Pitch_bend_c, 1, 8448
3, 432390, Pitch_bend_c, 1, 8448
3, 432409, Pitch_bend_c, 1, 8320
3, 432428, Pitch_bend_c, 1, 8320
3, 432441, Pitch_bend_c, 1, 8320
3, 432460, Pitch_bend_c, 1, 8192
3, 432480, Pitch_bend_c, 1, 8192
3, 432499, Pitch_bend_c, 1, 8192
3, 432518, Pitch_bend_c, 1, 8064
3, 432531, Pitch_bend_c, 1, 8064
3, 432550, Pitch_bend_c, 1, 8064
3, 432569, Pitch_bend_c, 1, 7936
3, 432588, Pitch_bend_c, 1, 7936
3, 432608, Pitch_bend_c, 1, 7936
3, 432627, Pitch_bend_c, 1, 7936
3, 432640, Pitch_bend_c, 1, 7936
3, 432659, Pitch_bend_c, 1, 7936
3, 432678, Pitch_bend_c, 1, 7936
3, 432697, Pitch_bend_c, 1, 8064
3, 432716, Pitch_bend_c, 1, 8064
3, 432729, Pitch_bend_c, 1, 8064
3, 432748, Pitch_bend_c, 1, 8192
3, 432768, Pitch_bend_c, 1, 8192
3, 432787, Pitch_bend_c, 1, 8192
3, 432806, Pitch_bend_c, 1, 8320
3, 432819, Pitch_bend_c, 1, 8320
3, 432838, Pitch_bend_c, 1, 8320
3, 432857, Pitch_bend_c, 1, 8448
3, 432876, Pitch_bend_c, 1, 8448
3, 432896, Pitch_bend_c, 1, 8448
3, 432908, Pitch_bend_c, 1, 8448
3, 432928, Pitch_bend_c, 1, 8448
3, 432947, Pitch_bend_c, 1, 8448
3, 432966, Pitch_bend_c, 1, 8448
3, 432985, Pitch_bend_c, 1, 8320
3, 433004, Pitch_bend_c, 1, 8320
3, 433017, Pitch_bend_c, 1, 8320
3, 433036, Pitch_bend_c, 1, 8192
3, 433056, Pitch_bend_c, 1, 8192
3, 433075, Pitch_bend_c, 1, 8192
3, 433094, Pitch_bend_c, 1, 8064
3, 433107, Pitch_bend_c, 1, 8064
3, 433126, Pitch_bend_c, 1, 8064
3, 433145, Pitch_bend_c, 1, 7936
3, 433164, Pitch_bend_c, 1, 7936
3, 433184, Pitch_bend_c, 1, 7936
3, 433203, Pitch_bend_c, 1, 7936
3, 433216, Pitch_bend_c, 1, 7936
3, 433235, Pitch_bend_c, 1, 7936
3, 433254, Pitch_bend_c, 1, 7936
3, 433273, Pitch_bend_c, 1, 8064
3, 433292, Pitch_bend_c, 1, 8064
3, 433305, Pitch_bend_c, 1, 8064
3, 433324, Pitch_bend_c, 1, 8192
3, 433344, Pitch_bend_c, 1, 8192
3, 433363, Pitch_bend_c, 1, 8320
3, 433382, Pitch_bend_c, 1, 8320
3, 433395, Pitch_bend_c, 1, 8320
3, 433414, Pitch_bend_c, 1, 8448
3, 433433, Pitch_bend_c, 1, 8448
3, 433452, Pitch_bend_c, 1, 8448
3, 433472, Pitch_bend_c, 1, 8448
3, 433484, Pitch_bend_c, 1, 8448
3, 433504, Pitch_bend_c, 1, 8448
3, 433523, Pitch_bend_c, 1, 8448
3, 433542, Pitch_bend_c, 1, 8448
3, 433561, Pitch_bend_c, 1, 8448
3, 433580, Pitch_bend_c, 1, 8320
3, 433593, Pitch_bend_c, 1, 8320
3, 433612, Pitch_bend_c, 1, 8320
3, 433632, Pitch_bend_c, 1, 8192
3, 433651, Pitch_bend_c, 1, 8064
3, 433670, Pitch_bend_c, 1, 8064
3, 433683, Pitch_bend_c, 1, 8064
3, 433702, Pitch_bend_c, 1, 7936
3, 433721, Pitch_bend_c, 1, 7936
3, 433740, Pitch_bend_c, 1, 7936
3, 433760, Pitch_bend_c, 1, 7936
3, 433779, Pitch_bend_c, 1, 7936
3, 433792, Pitch_bend_c, 1, 7936
3, 433811, Pitch_bend_c, 1, 7936
3, 433830, Pitch_bend_c, 1, 7936
3, 433849, Pitch_bend_c, 1, 7936
3, 433868, Pitch_bend_c, 1, 8064
3, 433881, Pitch_bend_c, 1, 8064
3, 433900, Pitch_bend_c, 1, 8064
3, 433920, Pitch_bend_c, 1, 8192
3, 433939, Pitch_bend_c, 1, 8192
3, 433958, Pitch_bend_c, 1, 8320
3, 433971, Pitch_bend_c, 1, 8320
3, 433990, Pitch_bend_c, 1, 8320
3, 434009, Pitch_bend_c, 1, 8320
3, 434028, Pitch_bend_c, 1, 8320
3, 434048, Pitch_bend_c, 1, 8320
3, 434060, Pitch_bend_c, 1, 8320
3, 434080, Pitch_bend_c, 1, 8320
3, 434099, Pitch_bend_c, 1, 8320
3, 434118, Pitch_bend_c, 1, 8320
3, 434137, Pitch_bend_c, 1, 8320
3, 434156, Pitch_bend_c, 1, 8320
3, 434169, Pitch_bend_c, 1, 8320
3, 434188, Pitch_bend_c, 1, 8192
3, 434208, Pitch_bend_c, 1, 8192
3, 434227, Pitch_bend_c, 1, 8192
3, 434246, Pitch_bend_c, 1, 8064
3, 434259, Pitch_bend_c, 1, 8064
3, 434278, Pitch_bend_c, 1, 8064
3, 434297, Pitch_bend_c, 1, 8064
3, 434316, Pitch_bend_c, 1, 8064
3, 434336, Pitch_bend_c, 1, 8064
3, 434355, Pitch_bend_c, 1, 8064
3, 434368, Pitch_bend_c, 1, 8064
3, 434387, Pitch_bend_c, 1, 8064
3, 434406, Pitch_bend_c, 1, 8064
3, 434425, Pitch_bend_c, 1, 8064
3, 434444, Pitch_bend_c, 1, 8064
3, 434457, Pitch_bend_c, 1, 8064
3, 434476, Pitch_bend_c, 1, 8192
3, 434496, Pitch_bend_c, 1, 8192
3, 434515, Pitch_bend_c, 1, 8192
3, 434534, Pitch_bend_c, 1, 8192
3, 434547, Pitch_bend_c, 1, 8192
3, 434566, Pitch_bend_c, 1, 8320
3, 434585, Pitch_bend_c, 1, 8320
3, 434604, Pitch_bend_c, 1, 8320
3, 434624, Pitch_bend_c, 1, 8320
3, 434636, Pitch_bend_c, 1, 8320
3, 434656, Pitch_bend_c, 1, 8320
3, 434675, Pitch_bend_c, 1, 8320
3, 434694, Pitch_bend_c, 1, 8320
3, 434713, Pitch_bend_c, 1, 8320
3, 434732, Pitch_bend_c, 1, 8192
3, 434745, Pitch_bend_c, 1, 8192
3, 434764, Pitch_bend_c, 1, 8192
3, 434784, Pitch_bend_c, 1, 8192
3, 434803, Pitch_bend_c, 1, 8192
3, 434822, Pitch_bend_c, 1, 8192
3, 434835, Pitch_bend_c, 1, 8192
3, 434854, Pitch_bend_c, 1, 8064
3, 434873, Pitch_bend_c, 1, 8064
3, 434892, Pitch_bend_c, 1, 8064
3, 434912, Pitch_bend_c, 1, 8064
3, 434931, Pitch_bend_c, 1, 8064
3, 434944, Pitch_bend_c, 1, 8064
3, 434963, Pitch_bend_c, 1, 8064
3, 434982, Pitch_bend_c, 1, 8064
3, 435001, Pitch_bend_c, 1, 8064
3, 435020, Pitch_bend_c, 1, 8192
3, 435033, Pitch_bend_c, 1, 8192
3, 435052, Pitch_bend_c, 1, 8192
3, 435072, Pitch_bend_c, 1, 8192
3, 435091, Pitch_bend_c, 1, 8192
3, 435110, Pitch_bend_c, 1, 8192
3, 435123, Pitch_bend_c, 1, 8192
3, 435142, Pitch_bend_c, 1, 8192
3, 435161, Pitch_bend_c, 1, 8192
3, 435180, Pitch_bend_c, 1, 8192
3, 435200, Pitch_bend_c, 1, 8192
3, 435212, Pitch_bend_c, 1, 8192
3, 435232, Pitch_bend_c, 1, 8192
3, 435251, Pitch_bend_c, 1, 8192
3, 435270, Pitch_bend_c, 1, 8192
3, 435289, Pitch_bend_c, 1, 8192
3, 435308, Pitch_bend_c, 1, 8192
3, 435321, Pitch_bend_c, 1, 8192
3, 435340, Pitch_bend_c, 1, 8192
3, 435360, Pitch_bend_c, 1, 8192
3, 435379, Pitch_bend_c, 1, 8192
3, 435398, Pitch_bend_c, 1, 8192
3, 435411, Pitch_bend_c, 1, 8192
3, 435430, Pitch_bend_c, 1, 8192
3, 435449, Pitch_bend_c, 1, 8192
3, 435468, Pitch_bend_c, 1, 8192
3, 435488, Pitch_bend_c, 1, 8192
3, 435507, Pitch_bend_c, 1, 8192
3, 435520, Pitch_bend_c, 1, 8192
3, 435539, Pitch_bend_c, 1, 8192
3, 435558, Pitch_bend_c, 1, 8192
3, 435577, Pitch_bend_c, 1, 8192
3, 435596, Pitch_bend_c, 1, 8192
3, 435609, Pitch_bend_c, 1, 8192
3, 435628, Pitch_bend_c, 1, 8192
3, 435648, Pitch_bend_c, 1, 8192
3, 435667, Pitch_bend_c, 1, 8192
3, 435686, Pitch_bend_c, 1, 8192
3, 435699, Pitch_bend_c, 1, 8192
3, 435718, Pitch_bend_c, 1, 8320
3, 435737, Pitch_bend_c, 1, 8320
3, 435756, Pitch_bend_c, 1, 8320
3, 435776, Pitch_bend_c, 1, 8320
3, 435788, Pitch_bend_c, 1, 8320
3, 435808, Pitch_bend_c, 1, 8320
3, 435827, Pitch_bend_c, 1, 8320
3, 435846, Pitch_bend_c, 1, 8320
3, 435865, Pitch_bend_c, 1, 8320
3, 435884, Pitch_bend_c, 1, 8192
3, 435897, Pitch_bend_c, 1, 8192
3, 435916, Pitch_bend_c, 1, 8192
3, 435936, Pitch_bend_c, 1, 8192
3, 435955, Pitch_bend_c, 1, 8192
3, 435974, Pitch_bend_c, 1, 8192
3, 435987, Pitch_bend_c, 1, 8192
3, 436006, Pitch_bend_c, 1, 8064
3, 436025, Pitch_bend_c, 1, 8064
3, 436044, Pitch_bend_c, 1, 8064
3, 436064, Pitch_bend_c, 1, 8064
3, 436083, Pitch_bend_c, 1, 8064
3, 436096, Pitch_bend_c, 1, 8064
3, 436115, Pitch_bend_c, 1, 8064
3, 436134, Pitch_bend_c, 1, 8064
3, 436153, Pitch_bend_c, 1, 8064
3, 436172, Pitch_bend_c, 1, 8192
3, 436185, Pitch_bend_c, 1, 8192
3, 436204, Pitch_bend_c, 1, 8192
3, 436224, Note_off_c, 1, 75, 80
3, 436224, Pitch_bend_c, 1, 8192
3, 464640, Note_on_c, 1, 58, 79
3, 465216, Pitch_bend_c, 1, 7552
3, 465465, Pitch_bend_c, 1, 6784
3, 465708, Pitch_bend_c, 1, 6144
3, 465958, Pitch_bend_c, 1, 5504
3, 466201, Pitch_bend_c, 1, 4736
3, 466451, Pitch_bend_c, 1, 4096
3, 466694, Pitch_bend_c, 1, 3456
3, 466944, Note_off_c, 1, 58, 80
3, 466944, Pitch_bend_c, 1, 2688
3, 466944, Note_on_c, 1, 51, 79
3, 466963, Pitch_bend_c, 1, 8192
3, 466982, Pitch_bend_c, 1, 8192
3, 466995, Pitch_bend_c, 1, 8192
3, 467014, Pitch_bend_c, 1, 8192
3, 467033, Pitch_bend_c, 1, 8192
3, 467052, Pitch_bend_c, 1, 8192
3, 467072, Pitch_bend_c, 1, 8192
3, 467084, Pitch_bend_c, 1, 8192
3, 467104, Pitch_bend_c, 1, 8192
3, 467123, Pitch_bend_c, 1, 8192
3, 467142, Pitch_bend_c, 1, 8192
3, 467161, Pitch_bend_c, 1, 8192
3, 467180, Pitch_bend_c, 1, 8192
3, 467193, Pitch_bend_c, 1, 8192
3, 467212, Pitch_bend_c, 1, 8192
3, 467232, Pitch_bend_c, 1, 8192
3, 467251, Pitch_bend_c, 1, 8192
3, 467270, Pitch_bend_c, 1, 8192
3, 467283, Pitch_bend_c, 1, 8192
3, 467302, Pitch_bend_c, 1, 8192
3, 467321, Pitch_bend_c, 1, 8192
3, 467340, Pitch_bend_c, 1, 8192
3, 467360, Pitch_bend_c, 1, 8192
3, 467379, Pitch_bend_c, 1, 8192
3, 467392, Pitch_bend_c, 1, 8192
3, 467411, Pitch_bend_c, 1, 8192
3, 467430, Pitch_bend_c, 1, 8192
3, 467449, Pitch_bend_c, 1, 8192
3, 467468, Pitch_bend_c, 1, 8192
3, 467481, Pitch_bend_c, 1, 8192
3, 467500, Pitch_bend_c, 1, 8192
3, 467520, Pitch_bend_c, 1, 8192
3, 467539, Pitch_bend_c, 1, 8192
3, 467558, Pitch_bend_c, 1, 8320
3, 467571, Pitch_bend_c, 1, 8320
3, 467590, Pitch_bend_c, 1, 8320
3, 467609, Pitch_bend_c, 1, 8448
3, 467628, Pitch_bend_c, 1, 8448
3, 467648, Pitch_bend_c, 1, 8448
3, 467660, Pitch_bend_c, 1, 8448
3, 467680, Pitch_bend_c, 1, 8448
3, 467699, Pitch_bend_c, 1, 8448
3, 467718, Pitch_bend_c, 1, 8448
3, 467737, Pitch_bend_c, 1, 8320
3, 467756, Pitch_bend_c, 1, 8320
3, 467769, Pitch_bend_c, 1, 8320
3, 467788, Pitch_bend_c, 1, 8192
3, 467808, Pitch_bend_c, 1, 8192
3, 467827, Pitch_bend_c, 1, 8192
3, 467846, Pitch_bend_c, 1, 8064
3, 467859, Pitch_bend_c, 1, 8064
3, 467878, Pitch_bend_c, 1, 8064
3, 467897, Pitch_bend_c, 1, 7936
3, 467916, Pitch_bend_c, 1, 7936
3, 467936, Pitch_bend_c, 1, 7936
3, 467955, Pitch_bend_c, 1, 7936
3, 467968, Pitch_bend_c, 1, 7936
3, 467987, Pitch_bend_c, 1, 7936
3, 468006, Pitch_bend_c, 1, 7936
3, 468025, Pitch_bend_c, 1, 8064
3, 468044, Pitch_bend_c, 1, 8064
3, 468057, Pitch_bend_c, 1, 8064
3, 468076, Pitch_bend_c, 1, 8192
3, 468096, Pitch_bend_c, 1, 8192
3, 468115, Pitch_bend_c, 1, 8192
3, 468134, Pitch_bend_c, 1, 8320
3, 468147, Pitch_bend_c, 1, 8320
3, 468166, Pitch_bend_c, 1, 8320
3, 468185, Pitch_bend_c, 1, 8448
3, 468204, Pitch_bend_c, 1, 8448
3, 468224, Pitch_bend_c, 1, 8448
3, 468236, Pitch_bend_c, 1, 8448
3, 468256, Pitch_bend_c, 1, 8448
3, 468275, Pitch_bend_c, 1, 8448
3, 468294, Pitch_bend_c, 1, 8448
3, 468313, Pitch_bend_c, 1, 8320
3, 468332, Pitch_bend_c, 1, 8320
3, 468345, Pitch_bend_c, 1, 8320
3, 468364, Pitch_bend_c, 1, 8192
3, 468384, Pitch_bend_c, 1, 8192
3, 468403, Pitch_bend_c, 1, 8192
3, 468422, Pitch_bend_c, 1, 8064
3, 468435, Pitch_bend_c, 1, 8064
3, 468454, Pitch_bend_c, 1, 8064
3, 468473, Pitch_bend_c, 1, 7936
3, 468492, Pitch_bend_c, 1, 7936
3, 468512, Pitch_bend_c, 1, 7936
3, 468531, Pitch_bend_c, 1, 7936
3, 468544, Pitch_bend_c, 1, 7936
3, 468563, Pitch_bend_c, 1, 7936
3, 468582, Pitch_bend_c, 1, 7936
3, 468601, Pitch_bend_c, 1, 8064
3, 468620, Pitch_bend_c, 1, 8064
3, 468633, Pitch_bend_c, 1, 8064
3, 468652, Pitch_bend_c, 1, 8192
3, 468672, Pitch_bend_c, 1, 8192
3, 468691, Pitch_bend_c, 1, 8192
3, 468710, Pitch_bend_c, 1, 8320
3, 468723, Pitch_bend_c, 1, 8320
3, 468742, Pitch_bend_c, 1, 8320
3, 468761, Pitch_bend_c, 1, 8320
3, 468780, Pitch_bend_c, 1, 8448
3, 468800, Pitch_bend_c, 1, 8448
3, 468812, Pitch_bend_c, 1, 8448
3, 468832, Pitch_bend_c, 1, 8448
3, 468851, Pitch_bend_c, 1, 8448
3, 468870, Pitch_bend_c, 1, 8320
3, 468889, Pitch_bend_c, 1, 8320
3, 468908, Pitch_bend_c, 1, 8320
3, 468921, Pitch_bend_c, 1, 8320
3, 468940, Pitch_bend_c, 1, 8192
3, 468960, Pitch_bend_c, 1, 8192
3, 468979, Pitch_bend_c, 1, 8192
3, 468998, Pitch_bend_c, 1, 8064
3, 469011, Pitch_bend_c, 1, 8064
3, 469030, Pitch_bend_c, 1, 8064
3, 469049, Pitch_bend_c, 1, 8064
3, 469068, Pitch_bend_c, 1, 7936
3, 469088, Pitch_bend_c, 1, 7936
3, 469107, Pitch_bend_c, 1, 7936
3, 469120, Pitch_bend_c, 1, 7936
3, 469139, Pitch_bend_c, 1, 7936
3, 469158, Pitch_bend_c, 1, 8064
3, 469177, Pitch_bend_c, 1, 8064
3, 469196, Pitch_bend_c, 1, 8064
3, 469209, Pitch_bend_c, 1, 8064
3, 469228, Pitch_bend_c, 1, 8192
3, 469248, Pitch_bend_c, 1, 8192
3, 469267, Pitch_bend_c, 1, 8320
3, 469286, Pitch_bend_c, 1, 8320
3, 469299, Pitch_bend_c, 1, 8320
3, 469318, Pitch_bend_c, 1, 8448
3, 469337, Pitch_bend_c, 1, 8448
3, 469356, Pitch_bend_c, 1, 8448
3, 469376, Pitch_bend_c, 1, 8448
3, 469388, Pitch_bend_c, 1, 8448
3, 469408, Pitch_bend_c, 1, 8448
3, 469427, Pitch_bend_c, 1, 8448
3, 469446, Pitch_bend_c, 1, 8448
3, 469465, Pitch_bend_c, 1, 8448
3, 469484, Pitch_bend_c, 1, 8320
3, 469497, Pitch_bend_c, 1, 8320
3, 469516, Pitch_bend_c, 1, 8320
3, 469536, Pitch_bend_c, 1, 8192
3, 469555, Pitch_bend_c, 1, 8064
3, 469574, Pitch_bend_c, 1, 8064
3, 469587, Pitch_bend_c, 1, 8064
3, 469606, Pitch_bend_c, 1, 7936
3, 469625, Pitch_bend_c, 1, 7936
3, 469644, Pitch_bend_c, 1, 7936
3, 469664, Pitch_bend_c, 1, 7936
3, 469683, Pitch_bend_c, 1, 7936
3, 469696, Pitch_bend_c, 1, 7936
3, 469715, Pitch_bend_c, 1, 7936
3, 469734, Pitch_bend_c, 1, 7936
3, 469753, Pitch_bend_c, 1, 7936
3, 469772, Pitch_bend_c, 1, 8064
3, 469785, Pitch_bend_c, 1, 8064
3, 469804, Pitch_bend_c, 1, 8064
3, 469824, Pitch_bend_c, 1, 8192
3, 469843, Pitch_bend_c, 1, 8192
3, 469862, Pitch_bend_c, 1, 8192
3, 469875, Pitch_bend_c, 1, 8192
3, 469894, Pitch_bend_c, 1, 8192
3, 469913, Pitch_bend_c, 1, 8320
3, 469932, Pitch_bend_c, 1, 8320
3, 469952, Pitch_bend_c, 1, 8320
3, 469964, Pitch_bend_c, 1, 8320
3, 469984, Pitch_bend_c, 1, 8320
3, 470003, Pitch_bend_c, 1, 8320
3, 470016, Pitch_bend_c, 1, 8192
3, 470035, Pitch_bend_c, 1, 8192
3, 470054, Pitch_bend_c, 1, 8192
3, 470067, Pitch_bend_c, 1, 8192
3, 470086, Pitch_bend_c, 1, 8192
3, 470105, Pitch_bend_c, 1, 8192
3, 470124, Pitch_bend_c, 1, 8192
3, 470144, Pitch_bend_c, 1, 8192
3, 470156, Pitch_bend_c, 1, 8192
3, 470176, Pitch_bend_c, 1, 8192
3, 470195, Pitch_bend_c, 1, 8192
3, 470214, Pitch_bend_c, 1, 8192
3, 470233, Pitch_bend_c, 1, 8192
3, 470252, Pitch_bend_c, 1, 8192
3, 470265, Pitch_bend_c, 1, 8192
3, 470284, Pitch_bend_c, 1, 8192
3, 470304, Pitch_bend_c, 1, 8192
3, 470323, Pitch_bend_c, 1, 8192
3, 470342, Pitch_bend_c, 1, 8192
3, 470355, Pitch_bend_c, 1, 8192
3, 470374, Pitch_bend_c, 1, 8192
3, 470393, Pitch_bend_c, 1, 8192
3, 470412, Pitch_bend_c, 1, 8192
3, 470432, Pitch_bend_c, 1, 8192
3, 470451, Pitch_bend_c, 1, 8192
3, 470464, Pitch_bend_c, 1, 8192
3, 470483, Pitch_bend_c, 1, 8192
3, 470502, Pitch_bend_c, 1, 8192
3, 470521, Pitch_bend_c, 1, 8192
3, 470540, Pitch_bend_c, 1, 8192
3, 470553, Pitch_bend_c, 1, 8192
3, 470572, Pitch_bend_c, 1, 8192
3, 470592, Pitch_bend_c, 1, 8192
3, 470611, Pitch_bend_c, 1, 8192
3, 470630, Pitch_bend_c, 1, 8320
3, 470643, Pitch_bend_c, 1, 8320
3, 470662, Pitch_bend_c, 1, 8320
3, 470681, Pitch_bend_c, 1, 8320
3, 470700, Pitch_bend_c, 1, 8448
3, 470720, Pitch_bend_c, 1, 8448
3, 470732, Pitch_bend_c, 1, 8448
3, 470752, Pitch_bend_c, 1, 8448
3, 470771, Pitch_bend_c, 1, 8448
3, 470784, Note_off_c, 1, 51, 80
3, 470784, Pitch_bend_c, 1, 8192
3, 470784, Note_on_c, 1, 58, 79
3, 471552, Note_off_c, 1, 58, 80
3, 471552, Note_on_c, 1, 51, 79
3, 472320, Note_off_c, 1, 51, 80
3, 472320, Note_on_c, 1, 58, 79
3, 473088, Note_off_c, 1, 58, 80
3, 473088, Note_on_c, 1, 63, 79
3, 473088, Pitch_bend_c, 1, 8192
3, 473107, Pitch_bend_c, 1, 8192
3, 473126, Pitch_bend_c, 1, 8192
3, 473139, Pitch_bend_c, 1, 8192
3, 473158, Pitch_bend_c, 1, 8192
3, 473177, Pitch_bend_c, 1, 8192
3, 473196, Pitch_bend_c, 1, 8192
3, 473216, Pitch_bend_c, 1, 8192
3, 473228, Pitch_bend_c, 1, 8192
3, 473248, Pitch_bend_c, 1, 8192
3, 473267, Pitch_bend_c, 1, 8192
3, 473286, Pitch_bend_c, 1, 8192
3, 473305, Pitch_bend_c, 1, 8192
3, 473324, Pitch_bend_c, 1, 8192
3, 473337, Pitch_bend_c, 1, 8192
3, 473356, Pitch_bend_c, 1, 8192
3, 473376, Pitch_bend_c, 1, 8192
3, 473395, Pitch_bend_c, 1, 8192
3, 473414, Pitch_bend_c, 1, 8192
3, 473427, Pitch_bend_c, 1, 8192
3, 473446, Pitch_bend_c, 1, 8192
3, 473465, Pitch_bend_c, 1, 8192
3, 473484, Pitch_bend_c, 1, 8192
3, 473504, Pitch_bend_c, 1, 8192
3, 473523, Pitch_bend_c, 1, 8192
3, 473536, Pitch_bend_c, 1, 8192
3, 473555, Pitch_bend_c, 1, 8192
3, 473574, Pitch_bend_c, 1, 8192
3, 473593, Pitch_bend_c, 1, 8192
3, 473612, Pitch_bend_c, 1, 8192
3, 473625, Pitch_bend_c, 1, 8192
3, 473644, Pitch_bend_c, 1, 8192
3, 473664, Pitch_bend_c, 1, 8192
3, 473683, Pitch_bend_c, 1, 8192
3, 473702, Pitch_bend_c, 1, 8320
3, 473715, Pitch_bend_c, 1, 8320
3, 473734, Pitch_bend_c, 1, 8320
3, 473753, Pitch_bend_c, 1, 8448
3, 473772, Pitch_bend_c, 1, 8448
3, 473792, Pitch_bend_c, 1, 8448
3, 473804, Pitch_bend_c, 1, 8448
3, 473824, Pitch_bend_c, 1, 8448
3, 473843, Pitch_bend_c, 1, 8448
3, 473862, Pitch_bend_c, 1, 8448
3, 473881, Pitch_bend_c, 1, 8320
3, 473900, Pitch_bend_c, 1, 8320
3, 473913, Pitch_bend_c, 1, 8320
3, 473932, Pitch_bend_c, 1, 8192
3, 473952, Pitch_bend_c, 1, 8192
3, 473971, Pitch_bend_c, 1, 8192
3, 473990, Pitch_bend_c, 1, 8064
3, 474003, Pitch_bend_c, 1, 8064
3, 474022, Pitch_bend_c, 1, 8064
3, 474041, Pitch_bend_c, 1, 7936
3, 474060, Pitch_bend_c, 1, 7936
3, 474080, Pitch_bend_c, 1, 7936
3, 474099, Pitch_bend_c, 1, 7936
3, 474112, Pitch_bend_c, 1, 7936
3, 474131, Pitch_bend_c, 1, 7936
3, 474150, Pitch_bend_c, 1, 7936
3, 474169, Pitch_bend_c, 1, 8064
3, 474188, Pitch_bend_c, 1, 8064
3, 474201, Pitch_bend_c, 1, 8064
3, 474220, Pitch_bend_c, 1, 8192
3, 474240, Pitch_bend_c, 1, 8192
3, 474259, Pitch_bend_c, 1, 8192
3, 474278, Pitch_bend_c, 1, 8320
3, 474291, Pitch_bend_c, 1, 8320
3, 474310, Pitch_bend_c, 1, 8320
3, 474329, Pitch_bend_c, 1, 8448
3, 474348, Pitch_bend_c, 1, 8448
3, 474368, Pitch_bend_c, 1, 8448
3, 474380, Pitch_bend_c, 1, 8448
3, 474400, Pitch_bend_c, 1, 8448
3, 474419, Pitch_bend_c, 1, 8448
3, 474438, Pitch_bend_c, 1, 8448
3, 474457, Pitch_bend_c, 1, 8320
3, 474476, Pitch_bend_c, 1, 8320
3, 474489, Pitch_bend_c, 1, 8320
3, 474508, Pitch_bend_c, 1, 8192
3, 474528, Pitch_bend_c, 1, 8192
3, 474547, Pitch_bend_c, 1, 8192
3, 474566, Pitch_bend_c, 1, 8064
3, 474579, Pitch_bend_c, 1, 8064
3, 474598, Pitch_bend_c, 1, 8064
3, 474617, Pitch_bend_c, 1, 7936
3, 474636, Pitch_bend_c, 1, 7936
3, 474656, Pitch_bend_c, 1, 7936
3, 474675, Pitch_bend_c, 1, 7936
3, 474688, Pitch_bend_c, 1, 7936
3, 474707, Pitch_bend_c, 1, 7936
3, 474726, Pitch_bend_c, 1, 7936
3, 474745, Pitch_bend_c, 1, 8064
3, 474764, Pitch_bend_c, 1, 8064
3, 474777, Pitch_bend_c, 1, 8064
3, 474796, Pitch_bend_c, 1, 8192
3, 474816, Pitch_bend_c, 1, 8192
3, 474835, Pitch_bend_c, 1, 8192
3, 474854, Pitch_bend_c, 1, 8320
3, 474867, Pitch_bend_c, 1, 8320
3, 474886, Pitch_bend_c, 1, 8448
3, 474905, Pitch_bend_c, 1, 8448
3, 474924, Pitch_bend_c, 1, 8448
3, 474944, Pitch_bend_c, 1, 8448
3, 474956, Pitch_bend_c, 1, 8448
3, 474976, Pitch_bend_c, 1, 8448
3, 474995, Pitch_bend_c, 1, 8448
3, 475014, Pitch_bend_c, 1, 8448
3, 475033, Pitch_bend_c, 1, 8448
3, 475052, Pitch_bend_c, 1, 8320
3, 475065, Pitch_bend_c, 1, 8320
3, 475084, Pitch_bend_c, 1, 8192
3, 475104, Pitch_bend_c, 1, 8192
3, 475123, Pitch_bend_c, 1, 8192
3, 475142, Pitch_bend_c, 1, 8064
3, 475155, Pitch_bend_c, 1, 8064
3, 475174, Pitch_bend_c, 1, 7936
3, 475193, Pitch_bend_c, 1, 7936
3, 475212, Pitch_bend_c, 1, 7936
3, 475232, Pitch_bend_c, 1, 7936
3, 475251, Pitch_bend_c, 1, 7936
3, 475264, Pitch_bend_c, 1, 7936
3, 475283, Pitch_bend_c, 1, 7936
3, 475302, Pitch_bend_c, 1, 7936
3, 475321, Pitch_bend_c, 1, 7936
3, 475340, Pitch_bend_c, 1, 8064
3, 475353, Pitch_bend_c, 1, 8064
3, 475372, Pitch_bend_c, 1, 8192
3, 475392, Note_off_c, 1, 63, 80
3, 475392, Pitch_bend_c, 1, 8192
3, 475392, Note_on_c, 1, 65, 79
3, 476851, Pitch_bend_c, 1, 8832
3, 476928, Pitch_bend_c, 1, 9600
3, 477696, Note_off_c, 1, 65, 80
3, 477696, Pitch_bend_c, 1, 8192
3, 477696, Note_on_c, 1, 68, 79
3, 478464, Note_off_c, 1, 68, 80
3, 478464, Note_on_c, 1, 65, 79
3, 478464, Pitch_bend_c, 1, 8192
3, 478483, Pitch_bend_c, 1, 8192
3, 478502, Pitch_bend_c, 1, 8192
3, 478515, Pitch_bend_c, 1, 8192
3, 478534, Pitch_bend_c, 1, 8192
3, 478553, Pitch_bend_c, 1, 8192
3, 478572, Pitch_bend_c, 1, 8064
3, 478592, Pitch_bend_c, 1, 8064
3, 478604, Pitch_bend_c, 1, 8064
3, 478624, Pitch_bend_c, 1, 8064
3, 478643, Pitch_bend_c, 1, 8064
3, 478662, Pitch_bend_c, 1, 8192
3, 478681, Pitch_bend_c, 1, 8192
3, 478700, Pitch_bend_c, 1, 8192
3, 478713, Pitch_bend_c, 1, 8192
3, 478732, Pitch_bend_c, 1, 8192
3, 478752, Pitch_bend_c, 1, 8192
3, 478771, Pitch_bend_c, 1, 8192
3, 478790, Pitch_bend_c, 1, 8192
3, 478803, Pitch_bend_c, 1, 8192
3, 478822, Pitch_bend_c, 1, 8192
3, 478841, Pitch_bend_c, 1, 8192
3, 478860, Pitch_bend_c, 1, 8320
3, 478880, Pitch_bend_c, 1, 8320
3, 478899, Pitch_bend_c, 1, 8320
3, 478912, Pitch_bend_c, 1, 8320
3, 478931, Pitch_bend_c, 1, 8320
3, 478950, Pitch_bend_c, 1, 8192
3, 478969, Pitch_bend_c, 1, 8192
3, 478988, Pitch_bend_c, 1, 8192
3, 479001, Pitch_bend_c, 1, 8192
3, 479020, Pitch_bend_c, 1, 8192
3, 479040, Pitch_bend_c, 1, 8192
3, 479059, Pitch_bend_c, 1, 8192
3, 479078, Pitch_bend_c, 1, 8320
3, 479091, Pitch_bend_c, 1, 8320
3, 479110, Pitch_bend_c, 1, 8320
3, 479129, Pitch_bend_c, 1, 8448
3, 479148, Pitch_bend_c, 1, 8448
3, 479168, Pitch_bend_c, 1, 8448
3, 479180, Pitch_bend_c, 1, 8448
3, 479200, Pitch_bend_c, 1, 8448
3, 479219, Pitch_bend_c, 1, 8448
3, 479232, Pitch_bend_c, 1, 8192
3, 479251, Pitch_bend_c, 1, 8192
3, 479270, Pitch_bend_c, 1, 8192
3, 479283, Pitch_bend_c, 1, 8192
3, 479302, Pitch_bend_c, 1, 8192
3, 479321, Pitch_bend_c, 1, 8192
3, 479340, Pitch_bend_c, 1, 8192
3, 479360, Pitch_bend_c, 1, 8192
3, 479372, Pitch_bend_c, 1, 8192
3, 479392, Pitch_bend_c, 1, 8192
3, 479411, Pitch_bend_c, 1, 8192
3, 479430, Pitch_bend_c, 1, 8192
3, 479449, Pitch_bend_c, 1, 8192
3, 479468, Pitch_bend_c, 1, 8192
3, 479481, Pitch_bend_c, 1, 8192
3, 479500, Pitch_bend_c, 1, 8192
3, 479520, Pitch_bend_c, 1, 8192
3, 479539, Pitch_bend_c, 1, 8192
3, 479558, Pitch_bend_c, 1, 8192
3, 479571, Pitch_bend_c, 1, 8192
3, 479590, Pitch_bend_c, 1, 8192
3, 479609, Pitch_bend_c, 1, 8192
3, 479628, Pitch_bend_c, 1, 8192
3, 479648, Pitch_bend_c, 1, 8192
3, 479667, Pitch_bend_c, 1, 8192
3, 479680, Pitch_bend_c, 1, 8192
3, 479699, Pitch_bend_c, 1, 8192
3, 479718, Pitch_bend_c, 1, 8192
3, 479737, Pitch_bend_c, 1, 8192
3, 479756, Pitch_bend_c, 1, 8192
3, 479769, Pitch_bend_c, 1, 8192
3, 479788, Pitch_bend_c, 1, 8192
3, 479808, Pitch_bend_c, 1, 8192
3, 479827, Pitch_bend_c, 1, 8192
3, 479846, Pitch_bend_c, 1, 8320
3, 479859, Pitch_bend_c, 1, 8320
3, 479878, Pitch_bend_c, 1, 8320
3, 479897, Pitch_bend_c, 1, 8448
3, 479916, Pitch_bend_c, 1, 8448
3, 479936, Pitch_bend_c, 1, 8448
3, 479948, Pitch_bend_c, 1, 8448
3, 479968, Pitch_bend_c, 1, 8448
3, 479987, Pitch_bend_c, 1, 8448
3, 480006, Pitch_bend_c, 1, 8448
3, 480025, Pitch_bend_c, 1, 8320
3, 480044, Pitch_bend_c, 1, 8320
3, 480057, Pitch_bend_c, 1, 8320
3, 480076, Pitch_bend_c, 1, 8192
3, 480096, Pitch_bend_c, 1, 8192
3, 480115, Pitch_bend_c, 1, 8192
3, 480134, Pitch_bend_c, 1, 8064
3, 480147, Pitch_bend_c, 1, 8064
3, 480166, Pitch_bend_c, 1, 8064
3, 480185, Pitch_bend_c, 1, 7936
3, 480204, Pitch_bend_c, 1, 7936
3, 480224, Pitch_bend_c, 1, 7936
3, 480243, Pitch_bend_c, 1, 7936
3, 480256, Pitch_bend_c, 1, 7936
3, 480275, Pitch_bend_c, 1, 7936
3, 480294, Pitch_bend_c, 1, 7936
3, 480313, Pitch_bend_c, 1, 8064
3, 480332, Pitch_bend_c, 1, 8064
3, 480345, Pitch_bend_c, 1, 8064
3, 480364, Pitch_bend_c, 1, 8192
3, 480384, Pitch_bend_c, 1, 8192
3, 480403, Pitch_bend_c, 1, 8192
3, 480422, Pitch_bend_c, 1, 8320
3, 480435, Pitch_bend_c, 1, 8320
3, 480454, Pitch_bend_c, 1, 8320
3, 480473, Pitch_bend_c, 1, 8448
3, 480492, Pitch_bend_c, 1, 8448
3, 480512, Pitch_bend_c, 1, 8448
3, 480524, Pitch_bend_c, 1, 8448
3, 480544, Pitch_bend_c, 1, 8448
3, 480563, Pitch_bend_c, 1, 8448
3, 480582, Pitch_bend_c, 1, 8448
3, 480601, Pitch_bend_c, 1, 8320
3, 480620, Pitch_bend_c, 1, 8320
3, 480633, Pitch_bend_c, 1, 8320
3, 480652, Pitch_bend_c, 1, 8192
3, 480672, Pitch_bend_c, 1, 8192
3, 480691, Pitch_bend_c, 1, 8192
3, 480710, Pitch_bend_c, 1, 8064
3, 480723, Pitch_bend_c, 1, 8064
3, 480742, Pitch_bend_c, 1, 8064
3, 480761, Pitch_bend_c, 1, 7936
3, 480780, Pitch_bend_c, 1, 7936
3, 480800, Pitch_bend_c, 1, 7936
3, 480819, Pitch_bend_c, 1, 7936
3, 480832, Pitch_bend_c, 1, 7936
3, 480851, Pitch_bend_c, 1, 7936
3, 480870, Pitch_bend_c, 1, 7936
3, 480889, Pitch_bend_c, 1, 8064
3, 480908, Pitch_bend_c, 1, 8064
3, 480921, Pitch_bend_c, 1, 8064
3, 480940, Pitch_bend_c, 1, 8192
3, 480960, Pitch_bend_c, 1, 8192
3, 480979, Pitch_bend_c, 1, 8192
3, 480998, Pitch_bend_c, 1, 8320
3, 481011, Pitch_bend_c, 1, 8320
3, 481030, Pitch_bend_c, 1, 8320
3, 481049, Pitch_bend_c, 1, 8320
3, 481068, Pitch_bend_c, 1, 8320
3, 481088, Pitch_bend_c, 1, 8448
3, 481100, Pitch_bend_c, 1, 8448
3, 481120, Pitch_bend_c, 1, 8448
3, 481139, Pitch_bend_c, 1, 8320
3, 481158, Pitch_bend_c, 1, 8320
3, 481177, Pitch_bend_c, 1, 8320
3, 481196, Pitch_bend_c, 1, 8320
3, 481209, Pitch_bend_c, 1, 8320
3, 481228, Pitch_bend_c, 1, 8192
3, 481248, Pitch_bend_c, 1, 8192
3, 481267, Pitch_bend_c, 1, 8192
3, 481286, Pitch_bend_c, 1, 8064
3, 481299, Pitch_bend_c, 1, 8064
3, 481318, Pitch_bend_c, 1, 8064
3, 481337, Pitch_bend_c, 1, 8064
3, 481356, Pitch_bend_c, 1, 8064
3, 481376, Pitch_bend_c, 1, 7936
3, 481395, Pitch_bend_c, 1, 7936
3, 481408, Pitch_bend_c, 1, 7936
3, 481427, Pitch_bend_c, 1, 8064
3, 481446, Pitch_bend_c, 1, 8064
3, 481465, Pitch_bend_c, 1, 8064
3, 481484, Pitch_bend_c, 1, 8064
3, 481497, Pitch_bend_c, 1, 8064
3, 481516, Pitch_bend_c, 1, 8192
3, 481536, Pitch_bend_c, 1, 8192
3, 481555, Pitch_bend_c, 1, 8192
3, 481574, Pitch_bend_c, 1, 8320
3, 481587, Pitch_bend_c, 1, 8320
3, 481606, Pitch_bend_c, 1, 8320
3, 481625, Pitch_bend_c, 1, 8320
3, 481644, Pitch_bend_c, 1, 8448
3, 481664, Pitch_bend_c, 1, 8448
3, 481676, Pitch_bend_c, 1, 8448
3, 481696, Pitch_bend_c, 1, 8448
3, 481715, Pitch_bend_c, 1, 8448
3, 481734, Pitch_bend_c, 1, 8320
3, 481753, Pitch_bend_c, 1, 8320
3, 481772, Pitch_bend_c, 1, 8320
3, 481785, Pitch_bend_c, 1, 8320
3, 481804, Pitch_bend_c, 1, 8192
3, 481824, Pitch_bend_c, 1, 8192
3, 481843, Pitch_bend_c, 1, 8192
3, 481862, Pitch_bend_c, 1, 8064
3, 481875, Pitch_bend_c, 1, 8064
3, 481894, Pitch_bend_c, 1, 8064
3, 481913, Pitch_bend_c, 1, 8064
3, 481932, Pitch_bend_c, 1, 7936
3, 481952, Pitch_bend_c, 1, 7936
3, 481971, Pitch_bend_c, 1, 7936
3, 481984, Pitch_bend_c, 1, 7936
3, 482003, Pitch_bend_c, 1, 7936
3, 482022, Pitch_bend_c, 1, 8064
3, 482041, Pitch_bend_c, 1, 8064
3, 482060, Pitch_bend_c, 1, 8064
3, 482073, Pitch_bend_c, 1, 8064
3, 482092, Pitch_bend_c, 1, 8192
3, 482112, Pitch_bend_c, 1, 8192
3, 482131, Pitch_bend_c, 1, 8192
3, 482150, Pitch_bend_c, 1, 8192
3, 482163, Pitch_bend_c, 1, 8320
3, 482182, Pitch_bend_c, 1, 8320
3, 482201, Pitch_bend_c, 1, 8320
3, 482220, Pitch_bend_c, 1, 8320
3, 482240, Pitch_bend_c, 1, 8320
3, 482252, Pitch_bend_c, 1, 8320
3, 482272, Pitch_bend_c, 1, 8320
3, 482291, Pitch_bend_c, 1, 8320
3, 482304, Pitch_bend_c, 1, 8192
3, 482323, Pitch_bend_c, 1, 8192
3, 482342, Pitch_bend_c, 1, 8192
3, 482355, Pitch_bend_c, 1, 8192
3, 482374, Pitch_bend_c, 1, 8192
3, 482393, Pitch_bend_c, 1, 8192
3, 482412, Pitch_bend_c, 1, 8192
3, 482432, Pitch_bend_c, 1, 8192
3, 482444, Pitch_bend_c, 1, 8192
3, 482464, Pitch_bend_c, 1, 8192
3, 482483, Pitch_bend_c, 1, 8192
3, 482502, Pitch_bend_c, 1, 8192
3, 482521, Pitch_bend_c, 1, 8192
3, 482540, Pitch_bend_c, 1, 8192
3, 482553, Pitch_bend_c, 1, 8192
3, 482572, Pitch_bend_c, 1, 8192
3, 482592, Pitch_bend_c, 1, 8192
3, 482611, Pitch_bend_c, 1, 8192
3, 482630, Pitch_bend_c, 1, 8192
3, 482643, Pitch_bend_c, 1, 8192
3, 482662, Pitch_bend_c, 1, 8192
3, 482681, Pitch_bend_c, 1, 8192
3, 482700, Pitch_bend_c, 1, 8192
3, 482720, Pitch_bend_c, 1, 8192
3, 482739, Pitch_bend_c, 1, 8192
3, 482752, Pitch_bend_c, 1, 8192
3, 482771, Pitch_bend_c, 1, 8192
3, 482790, Pitch_bend_c, 1, 8192
3, 482809, Pitch_bend_c, 1, 8192
3, 482828, Pitch_bend_c, 1, 8192
3, 482841, Pitch_bend_c, 1, 8192
3, 482860, Pitch_bend_c, 1, 8192
3, 482880, Pitch_bend_c, 1, 8192
3, 482899, Pitch_bend_c, 1, 8192
3, 482918, Pitch_bend_c, 1, 8320
3, 482931, Pitch_bend_c, 1, 8320
3, 482950, Pitch_bend_c, 1, 8320
3, 482969, Pitch_bend_c, 1, 8320
3, 482988, Pitch_bend_c, 1, 8448
3, 483008, Pitch_bend_c, 1, 8448
3, 483020, Pitch_bend_c, 1, 8448
3, 483040, Pitch_bend_c, 1, 8448
3, 483059, Pitch_bend_c, 1, 8448
3, 483072, Note_off_c, 1, 65, 80
3, 483072, Pitch_bend_c, 1, 8192
3, 483072, Note_on_c, 1, 74, 79
3, 483174, Pitch_bend_c, 1, 8320
3, 483276, Pitch_bend_c, 1, 8704
3, 483379, Pitch_bend_c, 1, 8832
3, 483788, Pitch_bend_c, 1, 8704
3, 483891, Pitch_bend_c, 1, 8448
3, 483993, Pitch_bend_c, 1, 8320
3, 484096, Pitch_bend_c, 1, 8192
3, 484608, Note_off_c, 1, 74, 80
3, 484608, Pitch_bend_c, 1, 8192
3, 484608, Note_on_c, 1, 70, 79
3, 485376, Note_off_c, 1, 70, 80
3, 485376, Note_on_c, 1, 70, 79
3, 486912, Note_off_c, 1, 70, 80
3, 486912, Note_on_c, 1, 70, 79
3, 486912, Pitch_bend_c, 1, 8192
3, 486963, Pitch_bend_c, 1, 8192
3, 487008, Pitch_bend_c, 1, 8192
3, 487052, Pitch_bend_c, 1, 8192
3, 487104, Pitch_bend_c, 1, 8192
3, 487155, Pitch_bend_c, 1, 8192
3, 487200, Pitch_bend_c, 1, 8192
3, 487244, Pitch_bend_c, 1, 8192
3, 487296, Pitch_bend_c, 1, 8192
3, 487347, Pitch_bend_c, 1, 8192
3, 487392, Pitch_bend_c, 1, 8192
3, 487436, Pitch_bend_c, 1, 8192
3, 487488, Pitch_bend_c, 1, 8192
3, 487539, Pitch_bend_c, 1, 8192
3, 487584, Pitch_bend_c, 1, 8192
3, 487628, Pitch_bend_c, 1, 8192
3, 487680, Pitch_bend_c, 1, 9600
3, 488448, Pitch_bend_c, 1, 9600
3, 489062, Pitch_bend_c, 1, 9344
3, 489164, Pitch_bend_c, 1, 8832
3, 489267, Pitch_bend_c, 1, 8448
3, 489369, Pitch_bend_c, 1, 8320
3, 489472, Pitch_bend_c, 1, 8192
3, 489984, Note_off_c, 1, 70, 80
3, 489984, Pitch_bend_c, 1, 8192
3, 489984, Note_on_c, 1, 68, 79
3, 490752, Note_off_c, 1, 68, 80
3, 490752, Note_on_c, 1, 67, 79
3, 491520, Pitch_bend_c, 1, 8192
3, 491539, Pitch_bend_c, 1, 8192
3, 491558, Pitch_bend_c, 1, 8192
3, 491571, Pitch_bend_c, 1, 8192
3, 491590, Pitch_bend_c, 1, 8192
3, 491609, Pitch_bend_c, 1, 8192
3, 491628, Pitch_bend_c, 1, 8192
3, 491648, Pitch_bend_c, 1, 8192
3, 491660, Pitch_bend_c, 1, 8192
3, 491680, Pitch_bend_c, 1, 8192
3, 491699, Pitch_bend_c, 1, 8192
3, 491718, Pitch_bend_c, 1, 8192
3, 491737, Pitch_bend_c, 1, 8192
3, 491756, Pitch_bend_c, 1, 8192
3, 491769, Pitch_bend_c, 1, 8192
3, 491788, Pitch_bend_c, 1, 8192
3, 491808, Pitch_bend_c, 1, 8192
3, 491827, Pitch_bend_c, 1, 8192
3, 491846, Pitch_bend_c, 1, 8192
3, 491859, Pitch_bend_c, 1, 8192
3, 491878, Pitch_bend_c, 1, 8192
3, 491897, Pitch_bend_c, 1, 8192
3, 491916, Pitch_bend_c, 1, 8192
3, 491936, Pitch_bend_c, 1, 8192
3, 491955, Pitch_bend_c, 1, 8192
3, 491968, Pitch_bend_c, 1, 8192
3, 491987, Pitch_bend_c, 1, 8192
3, 492006, Pitch_bend_c, 1, 8192
3, 492025, Pitch_bend_c, 1, 8192
3, 492044, Pitch_bend_c, 1, 8192
3, 492057, Pitch_bend_c, 1, 8192
3, 492076, Pitch_bend_c, 1, 8192
3, 492096, Pitch_bend_c, 1, 8192
3, 492115, Pitch_bend_c, 1, 8192
3, 492134, Pitch_bend_c, 1, 8320
3, 492147, Pitch_bend_c, 1, 8320
3, 492166, Pitch_bend_c, 1, 8448
3, 492185, Pitch_bend_c, 1, 8448
3, 492204, Pitch_bend_c, 1, 8448
3, 492224, Pitch_bend_c, 1, 8448
3, 492236, Pitch_bend_c, 1, 8448
3, 492256, Pitch_bend_c, 1, 8448
3, 492275, Pitch_bend_c, 1, 8448
3, 492294, Pitch_bend_c, 1, 8448
3, 492313, Pitch_bend_c, 1, 8448
3, 492332, Pitch_bend_c, 1, 8320
3, 492345, Pitch_bend_c, 1, 8320
3, 492364, Pitch_bend_c, 1, 8192
3, 492384, Pitch_bend_c, 1, 8192
3, 492403, Pitch_bend_c, 1, 8192
3, 492422, Pitch_bend_c, 1, 8064
3, 492435, Pitch_bend_c, 1, 8064
3, 492454, Pitch_bend_c, 1, 7936
3, 492473, Pitch_bend_c, 1, 7936
3, 492492, Pitch_bend_c, 1, 7936
3, 492512, Pitch_bend_c, 1, 7936
3, 492531, Pitch_bend_c, 1, 7936
3, 492544, Pitch_bend_c, 1, 7936
3, 492563, Pitch_bend_c, 1, 7936
3, 492582, Pitch_bend_c, 1, 7936
3, 492601, Pitch_bend_c, 1, 7936
3, 492620, Pitch_bend_c, 1, 8064
3, 492633, Pitch_bend_c, 1, 8064
3, 492652, Pitch_bend_c, 1, 8192
3, 492672, Pitch_bend_c, 1, 8192
3, 492691, Pitch_bend_c, 1, 8192
3, 492710, Pitch_bend_c, 1, 8320
3, 492723, Pitch_bend_c, 1, 8320
3, 492742, Pitch_bend_c, 1, 8320
3, 492761, Pitch_bend_c, 1, 8448
3, 492780, Pitch_bend_c, 1, 8448
3, 492800, Pitch_bend_c, 1, 8448
3, 492812, Pitch_bend_c, 1, 8448
3, 492832, Pitch_bend_c, 1, 8448
3, 492851, Pitch_bend_c, 1, 8448
3, 492870, Pitch_bend_c, 1, 8448
3, 492889, Pitch_bend_c, 1, 8320
3, 492908, Pitch_bend_c, 1, 8320
3, 492921, Pitch_bend_c, 1, 8320
3, 492940, Pitch_bend_c, 1, 8192
3, 492960, Pitch_bend_c, 1, 8192
3, 492979, Pitch_bend_c, 1, 8192
3, 492998, Pitch_bend_c, 1, 8064
3, 493011, Pitch_bend_c, 1, 8064
3, 493030, Pitch_bend_c, 1, 8064
3, 493049, Pitch_bend_c, 1, 7936
3, 493068, Pitch_bend_c, 1, 7936
3, 493088, Pitch_bend_c, 1, 7936
3, 493107, Pitch_bend_c, 1, 7936
3, 493120, Pitch_bend_c, 1, 7936
3, 493139, Pitch_bend_c, 1, 7936
3, 493158, Pitch_bend_c, 1, 7936
3, 493177, Pitch_bend_c, 1, 8064
3, 493196, Pitch_bend_c, 1, 8064
3, 493209, Pitch_bend_c, 1, 8064
3, 493228, Pitch_bend_c, 1, 8192
3, 493248, Pitch_bend_c, 1, 8192
3, 493267, Pitch_bend_c, 1, 8192
3, 493286, Pitch_bend_c, 1, 8320
3, 493299, Pitch_bend_c, 1, 8320
3, 493318, Pitch_bend_c, 1, 8320
3, 493337, Pitch_bend_c, 1, 8448
3, 493356, Pitch_bend_c, 1, 8448
3, 493376, Pitch_bend_c, 1, 8448
3, 493388, Pitch_bend_c, 1, 8448
3, 493408, Pitch_bend_c, 1, 8448
3, 493427, Pitch_bend_c, 1, 8448
3, 493446, Pitch_bend_c, 1, 8448
3, 493465, Pitch_bend_c, 1, 8320
3, 493484, Pitch_bend_c, 1, 8320
3, 493497, Pitch_bend_c, 1, 8320
3, 493516, Pitch_bend_c, 1, 8192
3, 493536, Pitch_bend_c, 1, 8192
3, 493555, Pitch_bend_c, 1, 8192
3, 493574, Pitch_bend_c, 1, 8064
3, 493587, Pitch_bend_c, 1, 8064
3, 493606, Pitch_bend_c, 1, 8064
3, 493625, Pitch_bend_c, 1, 7936
3, 493644, Pitch_bend_c, 1, 7936
3, 493664, Pitch_bend_c, 1, 7936
3, 493683, Pitch_bend_c, 1, 7936
3, 493696, Pitch_bend_c, 1, 7936
3, 493715, Pitch_bend_c, 1, 7936
3, 493734, Pitch_bend_c, 1, 7936
3, 493753, Pitch_bend_c, 1, 8064
3, 493772, Pitch_bend_c, 1, 8064
3, 493785, Pitch_bend_c, 1, 8064
3, 493804, Pitch_bend_c, 1, 8192
3, 493824, Pitch_bend_c, 1, 8192
3, 493843, Pitch_bend_c, 1, 8192
3, 493862, Pitch_bend_c, 1, 8320
3, 493875, Pitch_bend_c, 1, 8320
3, 493894, Pitch_bend_c, 1, 8448
3, 493913, Pitch_bend_c, 1, 8448
3, 493932, Pitch_bend_c, 1, 8448
3, 493952, Pitch_bend_c, 1, 8448
3, 493964, Pitch_bend_c, 1, 8448
3, 493984, Pitch_bend_c, 1, 8448
3, 494003, Pitch_bend_c, 1, 8448
3, 494022, Pitch_bend_c, 1, 8448
3, 494041, Pitch_bend_c, 1, 8448
3, 494060, Pitch_bend_c, 1, 8320
3, 494073, Pitch_bend_c, 1, 8320
3, 494092, Pitch_bend_c, 1, 8192
3, 494112, Pitch_bend_c, 1, 8192
3, 494131, Pitch_bend_c, 1, 8192
3, 494150, Pitch_bend_c, 1, 8064
3, 494163, Pitch_bend_c, 1, 8064
3, 494182, Pitch_bend_c, 1, 7936
3, 494201, Pitch_bend_c, 1, 7936
3, 494220, Pitch_bend_c, 1, 7936
3, 494240, Pitch_bend_c, 1, 7936
3, 494259, Pitch_bend_c, 1, 7936
3, 494272, Pitch_bend_c, 1, 7936
3, 494291, Pitch_bend_c, 1, 7936
3, 494310, Pitch_bend_c, 1, 7936
3, 494329, Pitch_bend_c, 1, 7936
3, 494348, Pitch_bend_c, 1, 8064
3, 494361, Pitch_bend_c, 1, 8064
3, 494380, Pitch_bend_c, 1, 8192
3, 494400, Pitch_bend_c, 1, 8192
3, 494419, Pitch_bend_c, 1, 8192
3, 494438, Pitch_bend_c, 1, 8192
3, 494451, Pitch_bend_c, 1, 8192
3, 494470, Pitch_bend_c, 1, 8192
3, 494489, Pitch_bend_c, 1, 8192
3, 494508, Pitch_bend_c, 1, 8192
3, 494528, Pitch_bend_c, 1, 8192
3, 494540, Pitch_bend_c, 1, 8192
3, 494560, Pitch_bend_c, 1, 8192
3, 494579, Pitch_bend_c, 1, 8192
3, 494592, Note_off_c, 1, 67, 80
3, 494592, Pitch_bend_c, 1, 8192
3, 494592, Note_on_c, 1, 65, 79
3, 495104, Note_off_c, 1, 65, 80
3, 495104, Note_on_c, 1, 67, 79
3, 495616, Note_off_c, 1, 67, 80
3, 495616, Note_on_c, 1, 68, 79
3, 496128, Note_off_c, 1, 68, 80
3, 496128, Note_on_c, 1, 70, 79
3, 496640, Note_off_c, 1, 70, 80
3, 496640, Note_on_c, 1, 72, 79
3, 497152, Note_off_c, 1, 72, 80
3, 497152, Note_on_c, 1, 74, 79
3, 497664, Note_off_c, 1, 74, 80
3, 497664, Note_on_c, 1, 75, 79
3, 499968, Note_off_c, 1, 75, 80
3, 499968, Note_on_c, 1, 77, 79
3, 500736, Note_off_c, 1, 77, 80
3, 500736, Note_on_c, 1, 79, 79
3, 501504, Note_off_c, 1, 79, 80
3, 501504, Note_on_c, 1, 80, 79
3, 502272, Note_off_c, 1, 80, 80
3, 502272, Note_on_c, 1, 77, 79
3, 502272, Pitch_bend_c, 1, 8192
3, 502291, Pitch_bend_c, 1, 8192
3, 502310, Pitch_bend_c, 1, 8192
3, 502323, Pitch_bend_c, 1, 8192
3, 502342, Pitch_bend_c, 1, 8192
3, 502361, Pitch_bend_c, 1, 8192
3, 502380, Pitch_bend_c, 1, 8192
3, 502400, Pitch_bend_c, 1, 8192
3, 502412, Pitch_bend_c, 1, 8192
3, 502432, Pitch_bend_c, 1, 8192
3, 502451, Pitch_bend_c, 1, 8192
3, 502470, Pitch_bend_c, 1, 8192
3, 502489, Pitch_bend_c, 1, 8192
3, 502508, Pitch_bend_c, 1, 8192
3, 502521, Pitch_bend_c, 1, 8192
3, 502540, Pitch_bend_c, 1, 8192
3, 502560, Pitch_bend_c, 1, 8192
3, 502579, Pitch_bend_c, 1, 8192
3, 502598, Pitch_bend_c, 1, 8192
3, 502611, Pitch_bend_c, 1, 8192
3, 502630, Pitch_bend_c, 1, 8192
3, 502649, Pitch_bend_c, 1, 8192
3, 502668, Pitch_bend_c, 1, 8192
3, 502688, Pitch_bend_c, 1, 8192
3, 502707, Pitch_bend_c, 1, 8192
3, 502720, Pitch_bend_c, 1, 8192
3, 502739, Pitch_bend_c, 1, 8192
3, 502758, Pitch_bend_c, 1, 8192
3, 502777, Pitch_bend_c, 1, 8192
3, 502796, Pitch_bend_c, 1, 8192
3, 502809, Pitch_bend_c, 1, 8192
3, 502828, Pitch_bend_c, 1, 8192
3, 502848, Pitch_bend_c, 1, 8192
3, 502867, Pitch_bend_c, 1, 8320
3, 502886, Pitch_bend_c, 1, 8320
3, 502899, Pitch_bend_c, 1, 8320
3, 502918, Pitch_bend_c, 1, 8448
3, 502937, Pitch_bend_c, 1, 8448
3, 502956, Pitch_bend_c, 1, 8448
3, 502976, Pitch_bend_c, 1, 8448
3, 502988, Pitch_bend_c, 1, 8448
3, 503008, Pitch_bend_c, 1, 8448
3, 503027, Pitch_bend_c, 1, 8448
3, 503046, Pitch_bend_c, 1, 8448
3, 503065, Pitch_bend_c, 1, 8448
3, 503084, Pitch_bend_c, 1, 8320
3, 503097, Pitch_bend_c, 1, 8320
3, 503116, Pitch_bend_c, 1, 8320
3, 503136, Pitch_bend_c, 1, 8192
3, 503155, Pitch_bend_c, 1, 8064
3, 503174, Pitch_bend_c, 1, 8064
3, 503187, Pitch_bend_c, 1, 8064
3, 503206, Pitch_bend_c, 1, 7936
3, 503225, Pitch_bend_c, 1, 7936
3, 503244, Pitch_bend_c, 1, 7936
3, 503264, Pitch_bend_c, 1, 7936
3, 503283, Pitch_bend_c, 1, 7936
3, 503296, Pitch_bend_c, 1, 7936
3, 503315, Pitch_bend_c, 1, 7936
3, 503334, Pitch_bend_c, 1, 7936
3, 503353, Pitch_bend_c, 1, 7936
3, 503372, Pitch_bend_c, 1, 8064
3, 503385, Pitch_bend_c, 1, 8064
3, 503404, Pitch_bend_c, 1, 8064
3, 503424, Pitch_bend_c, 1, 8192
3, 503443, Pitch_bend_c, 1, 8192
3, 503462, Pitch_bend_c, 1, 8320
3, 503475, Pitch_bend_c, 1, 8320
3, 503494, Pitch_bend_c, 1, 8320
3, 503513, Pitch_bend_c, 1, 8320
3, 503532, Pitch_bend_c, 1, 8320
3, 503552, Pitch_bend_c, 1, 8448
3, 503564, Pitch_bend_c, 1, 8448
3, 503584, Pitch_bend_c, 1, 8448
3, 503603, Pitch_bend_c, 1, 8320
3, 503622, Pitch_bend_c, 1, 8320
3, 503641, Pitch_bend_c, 1, 8320
3, 503660, Pitch_bend_c, 1, 8320
3, 503673, Pitch_bend_c, 1, 8320
3, 503692, Pitch_bend_c, 1, 8192
3, 503712, Pitch_bend_c, 1, 8192
3, 503731, Pitch_bend_c, 1, 8192
3, 503750, Pitch_bend_c, 1, 8064
3, 503763, Pitch_bend_c, 1, 8064
3, 503782, Pitch_bend_c, 1, 8064
3, 503801, Pitch_bend_c, 1, 8064
3, 503808, Pitch_bend_c, 1, 8192
3, 503827, Pitch_bend_c, 1, 8192
3, 503846, Pitch_bend_c, 1, 8192
3, 503859, Pitch_bend_c, 1, 8192
3, 503878, Pitch_bend_c, 1, 8192
3, 503897, Pitch_bend_c, 1, 8192
3, 503916, Pitch_bend_c, 1, 8192
3, 503936, Pitch_bend_c, 1, 8192
3, 503948, Pitch_bend_c, 1, 8192
3, 503968, Pitch_bend_c, 1, 8192
3, 503987, Pitch_bend_c, 1, 8192
3, 504006, Pitch_bend_c, 1, 8192
3, 504025, Pitch_bend_c, 1, 8192
3, 504044, Pitch_bend_c, 1, 8192
3, 504057, Pitch_bend_c, 1, 8192
3, 504076, Pitch_bend_c, 1, 8192
3, 504096, Pitch_bend_c, 1, 8192
3, 504115, Pitch_bend_c, 1, 8192
3, 504134, Pitch_bend_c, 1, 8192
3, 504147, Pitch_bend_c, 1, 8192
3, 504166, Pitch_bend_c, 1, 8192
3, 504185, Pitch_bend_c, 1, 8192
3, 504204, Pitch_bend_c, 1, 8192
3, 504224, Pitch_bend_c, 1, 8192
3, 504243, Pitch_bend_c, 1, 8192
3, 504256, Pitch_bend_c, 1, 8192
3, 504275, Pitch_bend_c, 1, 8192
3, 504294, Pitch_bend_c, 1, 8192
3, 504313, Pitch_bend_c, 1, 8192
3, 504332, Pitch_bend_c, 1, 8192
3, 504345, Pitch_bend_c, 1, 8192
3, 504364, Pitch_bend_c, 1, 8192
3, 504384, Pitch_bend_c, 1, 8192
3, 504403, Pitch_bend_c, 1, 8192
3, 504422, Pitch_bend_c, 1, 8320
3, 504435, Pitch_bend_c, 1, 8320
3, 504454, Pitch_bend_c, 1, 8320
3, 504473, Pitch_bend_c, 1, 8320
3, 504492, Pitch_bend_c, 1, 8320
3, 504512, Pitch_bend_c, 1, 8448
3, 504524, Pitch_bend_c, 1, 8448
3, 504544, Pitch_bend_c, 1, 8448
3, 504563, Pitch_bend_c, 1, 8320
3, 504582, Pitch_bend_c, 1, 8320
3, 504601, Pitch_bend_c, 1, 8320
3, 504620, Pitch_bend_c, 1, 8320
3, 504633, Pitch_bend_c, 1, 8320
3, 504652, Pitch_bend_c, 1, 8192
3, 504672, Pitch_bend_c, 1, 8192
3, 504691, Pitch_bend_c, 1, 8192
3, 504710, Pitch_bend_c, 1, 8064
3, 504723, Pitch_bend_c, 1, 8064
3, 504742, Pitch_bend_c, 1, 8064
3, 504761, Pitch_bend_c, 1, 8064
3, 504780, Pitch_bend_c, 1, 8064
3, 504800, Pitch_bend_c, 1, 7936
3, 504819, Pitch_bend_c, 1, 7936
3, 504832, Pitch_bend_c, 1, 7936
3, 504851, Pitch_bend_c, 1, 8064
3, 504870, Pitch_bend_c, 1, 8064
3, 504889, Pitch_bend_c, 1, 8064
3, 504908, Pitch_bend_c, 1, 8064
3, 504921, Pitch_bend_c, 1, 8064
3, 504940, Pitch_bend_c, 1, 8192
3, 504960, Pitch_bend_c, 1, 8192
3, 504979, Pitch_bend_c, 1, 8192
3, 504998, Pitch_bend_c, 1, 8320
3, 505011, Pitch_bend_c, 1, 8320
3, 505030, Pitch_bend_c, 1, 8320
3, 505049, Pitch_bend_c, 1, 8320
3, 505068, Pitch_bend_c, 1, 8320
3, 505088, Pitch_bend_c, 1, 8320
3, 505100, Pitch_bend_c, 1, 8320
3, 505120, Pitch_bend_c, 1, 8320
3, 505139, Pitch_bend_c, 1, 8320
3, 505158, Pitch_bend_c, 1, 8320
3, 505177, Pitch_bend_c, 1, 8320
3, 505196, Pitch_bend_c, 1, 8320
3, 505209, Pitch_bend_c, 1, 8320
3, 505228, Pitch_bend_c, 1, 8192
3, 505248, Pitch_bend_c, 1, 8192
3, 505267, Pitch_bend_c, 1, 8192
3, 505286, Pitch_bend_c, 1, 8064
3, 505299, Pitch_bend_c, 1, 8064
3, 505318, Pitch_bend_c, 1, 8064
3, 505337, Pitch_bend_c, 1, 8064
3, 505356, Pitch_bend_c, 1, 8064
3, 505376, Pitch_bend_c, 1, 8064
3, 505395, Pitch_bend_c, 1, 8064
3, 505408, Pitch_bend_c, 1, 8064
3, 505427, Pitch_bend_c, 1, 8064
3, 505446, Pitch_bend_c, 1, 8064
3, 505465, Pitch_bend_c, 1, 8064
3, 505484, Pitch_bend_c, 1, 8064
3, 505497, Pitch_bend_c, 1, 8064
3, 505516, Pitch_bend_c, 1, 8192
3, 505536, Pitch_bend_c, 1, 8192
3, 505555, Pitch_bend_c, 1, 8192
3, 505574, Pitch_bend_c, 1, 8320
3, 505587, Pitch_bend_c, 1, 8320
3, 505606, Pitch_bend_c, 1, 8320
3, 505625, Pitch_bend_c, 1, 8320
3, 505644, Pitch_bend_c, 1, 8448
3, 505664, Pitch_bend_c, 1, 8448
3, 505676, Pitch_bend_c, 1, 8448
3, 505696, Pitch_bend_c, 1, 8448
3, 505715, Pitch_bend_c, 1, 8448
3, 505734, Pitch_bend_c, 1, 8320
3, 505753, Pitch_bend_c, 1, 8320
3, 505772, Pitch_bend_c, 1, 8320
3, 505785, Pitch_bend_c, 1, 8320
3, 505804, Pitch_bend_c, 1, 8192
3, 505824, Pitch_bend_c, 1, 8192
3, 505843, Pitch_bend_c, 1, 8192
3, 505862, Pitch_bend_c, 1, 8064
3, 505875, Pitch_bend_c, 1, 8064
3, 505894, Pitch_bend_c, 1, 8064
3, 505913, Pitch_bend_c, 1, 8064
3, 505932, Pitch_bend_c, 1, 7936
3, 505952, Pitch_bend_c, 1, 7936
3, 505971, Pitch_bend_c, 1, 7936
3, 505984, Pitch_bend_c, 1, 7936
3, 506003, Pitch_bend_c, 1, 7936
3, 506022, Pitch_bend_c, 1, 8064
3, 506041, Pitch_bend_c, 1, 8064
3, 506060, Pitch_bend_c, 1, 8064
3, 506073, Pitch_bend_c, 1, 8064
3, 506092, Pitch_bend_c, 1, 8192
3, 506112, Pitch_bend_c, 1, 8192
3, 506131, Pitch_bend_c, 1, 8192
3, 506150, Pitch_bend_c, 1, 8320
3, 506163, Pitch_bend_c, 1, 8320
3, 506182, Pitch_bend_c, 1, 8320
3, 506201, Pitch_bend_c, 1, 8448
3, 506220, Pitch_bend_c, 1, 8448
3, 506240, Pitch_bend_c, 1, 8448
3, 506252, Pitch_bend_c, 1, 8448
3, 506272, Pitch_bend_c, 1, 8448
3, 506291, Pitch_bend_c, 1, 8448
3, 506310, Pitch_bend_c, 1, 8448
3, 506329, Pitch_bend_c, 1, 8320
3, 506348, Pitch_bend_c, 1, 8320
3, 506361, Pitch_bend_c, 1, 8320
3, 506380, Pitch_bend_c, 1, 8192
3, 506400, Pitch_bend_c, 1, 8192
3, 506419, Pitch_bend_c, 1, 8192
3, 506438, Pitch_bend_c, 1, 8064
3, 506451, Pitch_bend_c, 1, 8064
3, 506470, Pitch_bend_c, 1, 8064
3, 506489, Pitch_bend_c, 1, 7936
3, 506508, Pitch_bend_c, 1, 7936
3, 506528, Pitch_bend_c, 1, 7936
3, 506547, Pitch_bend_c, 1, 7936
3, 506560, Pitch_bend_c, 1, 7936
3, 506579, Pitch_bend_c, 1, 7936
3, 506598, Pitch_bend_c, 1, 7936
3, 506617, Pitch_bend_c, 1, 8064
3, 506636, Pitch_bend_c, 1, 8064
3, 506649, Pitch_bend_c, 1, 8064
3, 506668, Pitch_bend_c, 1, 8192
3, 506688, Pitch_bend_c, 1, 8192
3, 506707, Pitch_bend_c, 1, 8192
3, 506726, Pitch_bend_c, 1, 8192
3, 506739, Pitch_bend_c, 1, 8192
3, 506758, Pitch_bend_c, 1, 8192
3, 506777, Pitch_bend_c, 1, 8320
3, 506796, Pitch_bend_c, 1, 8320
3, 506816, Pitch_bend_c, 1, 8320
3, 506828, Pitch_bend_c, 1, 8320
3, 506848, Pitch_bend_c, 1, 8320
3, 506867, Pitch_bend_c, 1, 8320
3, 506880, Pitch_bend_c, 1, 8192
3, 506899, Pitch_bend_c, 1, 8192
3, 506918, Pitch_bend_c, 1, 8192
3, 506931, Pitch_bend_c, 1, 8192
3, 506950, Pitch_bend_c, 1, 8192
3, 506969, Pitch_bend_c, 1, 8192
3, 506988, Pitch_bend_c, 1, 8192
3, 507008, Pitch_bend_c, 1, 8192
3, 507020, Pitch_bend_c, 1, 8192
3, 507040, Pitch_bend_c, 1, 8192
3, 507059, Pitch_bend_c, 1, 8192
3, 507078, Pitch_bend_c, 1, 8192
3, 507097, Pitch_bend_c, 1, 8192
3, 507116, Pitch_bend_c, 1, 8192
3, 507129, Pitch_bend_c, 1, 8192
3, 507148, Pitch_bend_c, 1, 8192
3, 507168, Pitch_bend_c, 1, 8192
3, 507187, Pitch_bend_c, 1, 8192
3, 507206, Pitch_bend_c, 1, 8192
3, 507219, Pitch_bend_c, 1, 8192
3, 507238, Pitch_bend_c, 1, 8192
3, 507257, Pitch_bend_c, 1, 8192
3, 507276, Pitch_bend_c, 1, 8192
3, 507296, Pitch_bend_c, 1, 8192
3, 507315, Pitch_bend_c, 1, 8192
3, 507328, Pitch_bend_c, 1, 8192
3, 507347, Pitch_bend_c, 1, 8192
3, 507366, Pitch_bend_c, 1, 8192
3, 507385, Pitch_bend_c, 1, 8192
3, 507404, Pitch_bend_c, 1, 8192
3, 507417, Pitch_bend_c, 1, 8192
3, 507436, Pitch_bend_c, 1, 8192
3, 507456, Pitch_bend_c, 1, 8192
3, 507475, Pitch_bend_c, 1, 8192
3, 507494, Pitch_bend_c, 1, 8320
3, 507507, Pitch_bend_c, 1, 8320
3, 507526, Pitch_bend_c, 1, 8320
3, 507545, Pitch_bend_c, 1, 8320
3, 507564, Pitch_bend_c, 1, 8448
3, 507584, Pitch_bend_c, 1, 8448
3, 507596, Pitch_bend_c, 1, 8448
3, 507616, Pitch_bend_c, 1, 8448
3, 507635, Pitch_bend_c, 1, 8448
3, 507648, Note_off_c, 1, 77, 80
3, 507648, Pitch_bend_c, 1, 8192
3, 507648, Note_on_c, 1, 75, 79
3, 508416, Note_off_c, 1, 75, 80
3, 508416, Note_on_c, 1, 74, 79
3, 509184, Note_off_c, 1, 74, 80
3, 509184, Note_on_c, 1, 82, 79
3, 509184, Pitch_bend_c, 1, 8192
3, 509203, Pitch_bend_c, 1, 8192
3, 509222, Pitch_bend_c, 1, 8192
3, 509235, Pitch_bend_c, 1, 8192
3, 509254, Pitch_bend_c, 1, 8192
3, 509273, Pitch_bend_c, 1, 8192
3, 509292, Pitch_bend_c, 1, 8192
3, 509312, Pitch_bend_c, 1, 8192
3, 509324, Pitch_bend_c, 1, 8192
3, 509344, Pitch_bend_c, 1, 8192
3, 509363, Pitch_bend_c, 1, 8192
3, 509382, Pitch_bend_c, 1, 8192
3, 509401, Pitch_bend_c, 1, 8192
3, 509420, Pitch_bend_c, 1, 8192
3, 509433, Pitch_bend_c, 1, 8192
3, 509452, Pitch_bend_c, 1, 8192
3, 509472, Pitch_bend_c, 1, 8192
3, 509491, Pitch_bend_c, 1, 8192
3, 509510, Pitch_bend_c, 1, 8192
3, 509523, Pitch_bend_c, 1, 8192
3, 509542, Pitch_bend_c, 1, 8192
3, 509561, Pitch_bend_c, 1, 8192
3, 509580, Pitch_bend_c, 1, 8192
3, 509600, Pitch_bend_c, 1, 8192
3, 509619, Pitch_bend_c, 1, 8192
3, 509632, Pitch_bend_c, 1, 8192
3, 509651, Pitch_bend_c, 1, 8192
3, 509670, Pitch_bend_c, 1, 8192
3, 509689, Pitch_bend_c, 1, 8192
3, 509708, Pitch_bend_c, 1, 8192
3, 509721, Pitch_bend_c, 1, 8192
3, 509740, Pitch_bend_c, 1, 8192
3, 509760, Pitch_bend_c, 1, 8192
3, 509779, Pitch_bend_c, 1, 8192
3, 509798, Pitch_bend_c, 1, 8320
3, 509811, Pitch_bend_c, 1, 8320
3, 509830, Pitch_bend_c, 1, 8320
3, 509849, Pitch_bend_c, 1, 8320
3, 509868, Pitch_bend_c, 1, 8320
3, 509888, Pitch_bend_c, 1, 8320
3, 509900, Pitch_bend_c, 1, 8320
3, 509920, Pitch_bend_c, 1, 8320
3, 509939, Pitch_bend_c, 1, 8320
3, 509952, Pitch_bend_c, 1, 8192
3, 509971, Pitch_bend_c, 1, 8192
3, 509990, Pitch_bend_c, 1, 8192
3, 510003, Pitch_bend_c, 1, 8192
3, 510022, Pitch_bend_c, 1, 8192
3, 510041, Pitch_bend_c, 1, 8192
3, 510060, Pitch_bend_c, 1, 8192
3, 510080, Pitch_bend_c, 1, 8192
3, 510092, Pitch_bend_c, 1, 8192
3, 510112, Pitch_bend_c, 1, 8192
3, 510131, Pitch_bend_c, 1, 8192
3, 510150, Pitch_bend_c, 1, 8192
3, 510169, Pitch_bend_c, 1, 8192
3, 510188, Pitch_bend_c, 1, 8192
3, 510201, Pitch_bend_c, 1, 8192
3, 510220, Pitch_bend_c, 1, 8192
3, 510240, Pitch_bend_c, 1, 8192
3, 510259, Pitch_bend_c, 1, 8192
3, 510278, Pitch_bend_c, 1, 8192
3, 510291, Pitch_bend_c, 1, 8192
3, 510310, Pitch_bend_c, 1, 8192
3, 510329, Pitch_bend_c, 1, 8192
3, 510348, Pitch_bend_c, 1, 8192
3, 510368, Pitch_bend_c, 1, 8192
3, 510387, Pitch_bend_c, 1, 8192
3, 510400, Pitch_bend_c, 1, 8192
3, 510419, Pitch_bend_c, 1, 8192
3, 510438, Pitch_bend_c, 1, 8192
3, 510457, Pitch_bend_c, 1, 8192
3, 510476, Pitch_bend_c, 1, 8192
3, 510489, Pitch_bend_c, 1, 8192
3, 510508, Pitch_bend_c, 1, 8192
3, 510528, Pitch_bend_c, 1, 8192
3, 510547, Pitch_bend_c, 1, 8192
3, 510566, Pitch_bend_c, 1, 8320
3, 510579, Pitch_bend_c, 1, 8320
3, 510598, Pitch_bend_c, 1, 8320
3, 510617, Pitch_bend_c, 1, 8320
3, 510636, Pitch_bend_c, 1, 8320
3, 510656, Pitch_bend_c, 1, 8320
3, 510668, Pitch_bend_c, 1, 8320
3, 510688, Pitch_bend_c, 1, 8320
3, 510707, Pitch_bend_c, 1, 8320
3, 510726, Pitch_bend_c, 1, 8320
3, 510745, Pitch_bend_c, 1, 8320
3, 510764, Pitch_bend_c, 1, 8320
3, 510777, Pitch_bend_c, 1, 8320
3, 510796, Pitch_bend_c, 1, 8192
3, 510816, Pitch_bend_c, 1, 8192
3, 510835, Pitch_bend_c, 1, 8192
3, 510854, Pitch_bend_c, 1, 8064
3, 510867, Pitch_bend_c, 1, 8064
3, 510886, Pitch_bend_c, 1, 8064
3, 510905, Pitch_bend_c, 1, 8064
3, 510924, Pitch_bend_c, 1, 8064
3, 510944, Pitch_bend_c, 1, 8064
3, 510963, Pitch_bend_c, 1, 8064
3, 510976, Pitch_bend_c, 1, 8064
3, 510995, Pitch_bend_c, 1, 8064
3, 511014, Pitch_bend_c, 1, 8064
3, 511033, Pitch_bend_c, 1, 8064
3, 511052, Pitch_bend_c, 1, 8064
3, 511065, Pitch_bend_c, 1, 8064
3, 511084, Pitch_bend_c, 1, 8192
3, 511104, Pitch_bend_c, 1, 8192
3, 511123, Pitch_bend_c, 1, 8192
3, 511142, Pitch_bend_c, 1, 8320
3, 511155, Pitch_bend_c, 1, 8320
3, 511174, Pitch_bend_c, 1, 8320
3, 511193, Pitch_bend_c, 1, 8448
3, 511212, Pitch_bend_c, 1, 8448
3, 511232, Pitch_bend_c, 1, 8448
3, 511244, Pitch_bend_c, 1, 8448
3, 511264, Pitch_bend_c, 1, 8448
3, 511283, Pitch_bend_c, 1, 8448
3, 511302, Pitch_bend_c, 1, 8448
3, 511321, Pitch_bend_c, 1, 8320
3, 511340, Pitch_bend_c, 1, 8320
3, 511353, Pitch_bend_c, 1, 8320
3, 511372, Pitch_bend_c, 1, 8192
3, 511392, Pitch_bend_c, 1, 8192
3, 511411, Pitch_bend_c, 1, 8192
3, 511430, Pitch_bend_c, 1, 8064
3, 511443, Pitch_bend_c, 1, 8064
3, 511462, Pitch_bend_c, 1, 8064
3, 511481, Pitch_bend_c, 1, 7936
3, 511488, Note_off_c, 1, 82, 80
3, 511488, Pitch_bend_c, 1, 8192
3, 511488, Note_on_c, 1, 82, 79
3, 511539, Pitch_bend_c, 1, 8192
3, 511584, Pitch_bend_c, 1, 8192
3, 511628, Pitch_bend_c, 1, 8192
3, 511680, Pitch_bend_c, 1, 8192
3, 511731, Pitch_bend_c, 1, 8192
3, 511776, Pitch_bend_c, 1, 8192
3, 511820, Pitch_bend_c, 1, 8192
3, 511872, Pitch_bend_c, 1, 8192
3, 511923, Pitch_bend_c, 1, 8192
3, 511968, Pitch_bend_c, 1, 8192
3, 512012, Pitch_bend_c, 1, 8192
3, 512064, Pitch_bend_c, 1, 8192
3, 512115, Pitch_bend_c, 1, 8192
3, 512160, Pitch_bend_c, 1, 8192
3, 512204, Pitch_bend_c, 1, 8192
3, 512256, Pitch_bend_c, 1, 9600
3, 513024, Pitch_bend_c, 1, 9600
3, 513638, Pitch_bend_c, 1, 9344
3, 513740, Pitch_bend_c, 1, 8832
3, 513843, Pitch_bend_c, 1, 8448
3, 513945, Pitch_bend_c, 1, 8320
3, 514048, Pitch_bend_c, 1, 8192
3, 514560, Note_off_c, 1, 82, 80
3, 514560, Pitch_bend_c, 1, 8192
3, 514560, Note_on_c, 1, 80, 79
3, 515328, Note_off_c, 1, 80, 80
3, 515328, Note_on_c, 1, 79, 79
3, 515328, Pitch_bend_c, 1, 8192
3, 515347, Pitch_bend_c, 1, 8192
3, 515366, Pitch_bend_c, 1, 8192
3, 515379, Pitch_bend_c, 1, 8192
3, 515398, Pitch_bend_c, 1, 8192
3, 515417, Pitch_bend_c, 1, 8192
3, 515436, Pitch_bend_c, 1, 8192
3, 515456, Pitch_bend_c, 1, 8192
3, 515468, Pitch_bend_c, 1, 8192
3, 515488, Pitch_bend_c, 1, 8192
3, 515507, Pitch_bend_c, 1, 8192
3, 515526, Pitch_bend_c, 1, 8192
3, 515545, Pitch_bend_c, 1, 8192
3, 515564, Pitch_bend_c, 1, 8192
3, 515577, Pitch_bend_c, 1, 8192
3, 515596, Pitch_bend_c, 1, 8192
3, 515616, Pitch_bend_c, 1, 8192
3, 515635, Pitch_bend_c, 1, 8192
3, 515654, Pitch_bend_c, 1, 8192
3, 515667, Pitch_bend_c, 1, 8192
3, 515686, Pitch_bend_c, 1, 8192
3, 515705, Pitch_bend_c, 1, 8192
3, 515724, Pitch_bend_c, 1, 8192
3, 515744, Pitch_bend_c, 1, 8192
3, 515763, Pitch_bend_c, 1, 8192
3, 515776, Pitch_bend_c, 1, 8192
3, 515795, Pitch_bend_c, 1, 8192
3, 515814, Pitch_bend_c, 1, 8192
3, 515833, Pitch_bend_c, 1, 8192
3, 515852, Pitch_bend_c, 1, 8192
3, 515865, Pitch_bend_c, 1, 8192
3, 515884, Pitch_bend_c, 1, 8192
3, 515904, Pitch_bend_c, 1, 8192
3, 515923, Pitch_bend_c, 1, 8192
3, 515942, Pitch_bend_c, 1, 8320
3, 515955, Pitch_bend_c, 1, 8320
3, 515974, Pitch_bend_c, 1, 8320
3, 515993, Pitch_bend_c, 1, 8320
3, 516012, Pitch_bend_c, 1, 8448
3, 516032, Pitch_bend_c, 1, 8448
3, 516044, Pitch_bend_c, 1, 8448
3, 516064, Pitch_bend_c, 1, 8448
3, 516083, Pitch_bend_c, 1, 8448
3, 516096, Pitch_bend_c, 1, 8192
3, 516115, Pitch_bend_c, 1, 8192
3, 516134, Pitch_bend_c, 1, 8192
3, 516147, Pitch_bend_c, 1, 8192
3, 516166, Pitch_bend_c, 1, 8192
3, 516185, Pitch_bend_c, 1, 8192
3, 516204, Pitch_bend_c, 1, 8192
3, 516224, Pitch_bend_c, 1, 8192
3, 516236, Pitch_bend_c, 1, 8192
3, 516256, Pitch_bend_c, 1, 8192
3, 516275, Pitch_bend_c, 1, 8192
3, 516294, Pitch_bend_c, 1, 8192
3, 516313, Pitch_bend_c, 1, 8192
3, 516332, Pitch_bend_c, 1, 8192
3, 516345, Pitch_bend_c, 1, 8192
3, 516364, Pitch_bend_c, 1, 8192
3, 516384, Pitch_bend_c, 1, 8192
3, 516403, Pitch_bend_c, 1, 8192
3, 516422, Pitch_bend_c, 1, 8192
3, 516435, Pitch_bend_c, 1, 8192
3, 516454, Pitch_bend_c, 1, 8192
3, 516473, Pitch_bend_c, 1, 8192
3, 516492, Pitch_bend_c, 1, 8192
3, 516512, Pitch_bend_c, 1, 8192
3, 516531, Pitch_bend_c, 1, 8192
3, 516544, Pitch_bend_c, 1, 8192
3, 516563, Pitch_bend_c, 1, 8192
3, 516582, Pitch_bend_c, 1, 8192
3, 516601, Pitch_bend_c, 1, 8192
3, 516620, Pitch_bend_c, 1, 8192
3, 516633, Pitch_bend_c, 1, 8192
3, 516652, Pitch_bend_c, 1, 8192
3, 516672, Pitch_bend_c, 1, 8192
3, 516691, Pitch_bend_c, 1, 8192
3, 516710, Pitch_bend_c, 1, 8320
3, 516723, Pitch_bend_c, 1, 8320
3, 516742, Pitch_bend_c, 1, 8320
3, 516761, Pitch_bend_c, 1, 8448
3, 516780, Pitch_bend_c, 1, 8448
3, 516800, Pitch_bend_c, 1, 8448
3, 516812, Pitch_bend_c, 1, 8448
3, 516832, Pitch_bend_c, 1, 8448
3, 516851, Pitch_bend_c, 1, 8448
3, 516870, Pitch_bend_c, 1, 8448
3, 516889, Pitch_bend_c, 1, 8320
3, 516908, Pitch_bend_c, 1, 8320
3, 516921, Pitch_bend_c, 1, 8320
3, 516940, Pitch_bend_c, 1, 8192
3, 516960, Pitch_bend_c, 1, 8192
3, 516979, Pitch_bend_c, 1, 8192
3, 516998, Pitch_bend_c, 1, 8064
3, 517011, Pitch_bend_c, 1, 8064
3, 517030, Pitch_bend_c, 1, 8064
3, 517049, Pitch_bend_c, 1, 7936
3, 517068, Pitch_bend_c, 1, 7936
3, 517088, Pitch_bend_c, 1, 7936
3, 517107, Pitch_bend_c, 1, 7936
3, 517120, Pitch_bend_c, 1, 7936
3, 517139, Pitch_bend_c, 1, 7936
3, 517158, Pitch_bend_c, 1, 7936
3, 517177, Pitch_bend_c, 1, 8064
3, 517196, Pitch_bend_c, 1, 8064
3, 517209, Pitch_bend_c, 1, 8064
3, 517228, Pitch_bend_c, 1, 8192
3, 517248, Pitch_bend_c, 1, 8192
3, 517267, Pitch_bend_c, 1, 8192
3, 517286, Pitch_bend_c, 1, 8320
3, 517299, Pitch_bend_c, 1, 8320
3, 517318, Pitch_bend_c, 1, 8320
3, 517337, Pitch_bend_c, 1, 8320
3, 517356, Pitch_bend_c, 1, 8448
3, 517376, Pitch_bend_c, 1, 8448
3, 517388, Pitch_bend_c, 1, 8448
3, 517408, Pitch_bend_c, 1, 8448
3, 517427, Pitch_bend_c, 1, 8448
3, 517446, Pitch_bend_c, 1, 8320
3, 517465, Pitch_bend_c, 1, 8320
3, 517484, Pitch_bend_c, 1, 8320
3, 517497, Pitch_bend_c, 1, 8320
3, 517516, Pitch_bend_c, 1, 8192
3, 517536, Pitch_bend_c, 1, 8192
3, 517555, Pitch_bend_c, 1, 8192
3, 517574, Pitch_bend_c, 1, 8064
3, 517587, Pitch_bend_c, 1, 8064
3, 517606, Pitch_bend_c, 1, 8064
3, 517625, Pitch_bend_c, 1, 8064
3, 517644, Pitch_bend_c, 1, 7936
3, 517664, Pitch_bend_c, 1, 7936
3, 517683, Pitch_bend_c, 1, 7936
3, 517696, Pitch_bend_c, 1, 7936
3, 517715, Pitch_bend_c, 1, 7936
3, 517734, Pitch_bend_c, 1, 8064
3, 517753, Pitch_bend_c, 1, 8064
3, 517772, Pitch_bend_c, 1, 8064
3, 517785, Pitch_bend_c, 1, 8064
3, 517804, Pitch_bend_c, 1, 8192
3, 517824, Pitch_bend_c, 1, 8192
3, 517843, Pitch_bend_c, 1, 8192
3, 517862, Pitch_bend_c, 1, 8320
3, 517875, Pitch_bend_c, 1, 8320
3, 517894, Pitch_bend_c, 1, 8320
3, 517913, Pitch_bend_c, 1, 8448
3, 517932, Pitch_bend_c, 1, 8448
3, 517952, Pitch_bend_c, 1, 8448
3, 517964, Pitch_bend_c, 1, 8448
3, 517984, Pitch_bend_c, 1, 8448
3, 518003, Pitch_bend_c, 1, 8448
3, 518022, Pitch_bend_c, 1, 8448
3, 518041, Pitch_bend_c, 1, 8320
3, 518060, Pitch_bend_c, 1, 8320
3, 518073, Pitch_bend_c, 1, 8320
3, 518092, Pitch_bend_c, 1, 8192
3, 518112, Pitch_bend_c, 1, 8192
3, 518131, Pitch_bend_c, 1, 8192
3, 518150, Pitch_bend_c, 1, 8064
3, 518163, Pitch_bend_c, 1, 8064
3, 518182, Pitch_bend_c, 1, 8064
3, 518201, Pitch_bend_c, 1, 7936
3, 518220, Pitch_bend_c, 1, 7936
3, 518240, Pitch_bend_c, 1, 7936
3, 518259, Pitch_bend_c, 1, 7936
3, 518272, Pitch_bend_c, 1, 7936
3, 518291, Pitch_bend_c, 1, 7936
3, 518310, Pitch_bend_c, 1, 7936
3, 518329, Pitch_bend_c, 1, 8064
3, 518348, Pitch_bend_c, 1, 8064
3, 518361, Pitch_bend_c, 1, 8064
3, 518380, Pitch_bend_c, 1, 8192
3, 518400, Pitch_bend_c, 1, 8192
3, 518419, Pitch_bend_c, 1, 8192
3, 518438, Pitch_bend_c, 1, 8320
3, 518451, Pitch_bend_c, 1, 8320
3, 518470, Pitch_bend_c, 1, 8320
3, 518489, Pitch_bend_c, 1, 8320
3, 518508, Pitch_bend_c, 1, 8320
3, 518528, Pitch_bend_c, 1, 8448
3, 518540, Pitch_bend_c, 1, 8448
3, 518560, Pitch_bend_c, 1, 8448
3, 518579, Pitch_bend_c, 1, 8320
3, 518598, Pitch_bend_c, 1, 8320
3, 518617, Pitch_bend_c, 1, 8320
3, 518636, Pitch_bend_c, 1, 8320
3, 518649, Pitch_bend_c, 1, 8320
3, 518668, Pitch_bend_c, 1, 8192
3, 518688, Pitch_bend_c, 1, 8192
3, 518707, Pitch_bend_c, 1, 8192
3, 518726, Pitch_bend_c, 1, 8064
3, 518739, Pitch_bend_c, 1, 8064
3, 518758, Pitch_bend_c, 1, 8064
3, 518777, Pitch_bend_c, 1, 8064
3, 518796, Pitch_bend_c, 1, 8064
3, 518816, Pitch_bend_c, 1, 7936
3, 518835, Pitch_bend_c, 1, 7936
3, 518848, Pitch_bend_c, 1, 7936
3, 518867, Pitch_bend_c, 1, 8064
3, 518886, Pitch_bend_c, 1, 8064
3, 518905, Pitch_bend_c, 1, 8064
3, 518924, Pitch_bend_c, 1, 8064
3, 518937, Pitch_bend_c, 1, 8064
3, 518956, Pitch_bend_c, 1, 8192
3, 518976, Pitch_bend_c, 1, 8192
3, 518995, Pitch_bend_c, 1, 8192
3, 519014, Pitch_bend_c, 1, 8192
3, 519027, Pitch_bend_c, 1, 8320
3, 519046, Pitch_bend_c, 1, 8320
3, 519065, Pitch_bend_c, 1, 8320
3, 519084, Pitch_bend_c, 1, 8320
3, 519104, Pitch_bend_c, 1, 8320
3, 519116, Pitch_bend_c, 1, 8320
3, 519136, Pitch_bend_c, 1, 8320
3, 519155, Pitch_bend_c, 1, 8320
3, 519168, Note_off_c, 1, 79, 80
3, 519168, Pitch_bend_c, 1, 8192
3, 519936, Note_on_c, 1, 75, 79
3, 520704, Note_off_c, 1, 75, 80
3, 520704, Note_on_c, 1, 79, 79
3, 520704, Pitch_bend_c, 1, 8192
3, 520755, Pitch_bend_c, 1, 8192
3, 520800, Pitch_bend_c, 1, 8192
3, 520844, Pitch_bend_c, 1, 8192
3, 520896, Pitch_bend_c, 1, 8192
3, 520947, Pitch_bend_c, 1, 8192
3, 520992, Pitch_bend_c, 1, 8192
3, 521036, Pitch_bend_c, 1, 8192
3, 521088, Pitch_bend_c, 1, 8192
3, 521139, Pitch_bend_c, 1, 8192
3, 521184, Pitch_bend_c, 1, 8192
3, 521228, Pitch_bend_c, 1, 8192
3, 521280, Pitch_bend_c, 1, 8192
3, 521331, Pitch_bend_c, 1, 8192
3, 521376, Pitch_bend_c, 1, 8192
3, 521420, Pitch_bend_c, 1, 8192
3, 521472, Pitch_bend_c, 1, 8832
3, 522240, Pitch_bend_c, 1, 8832
3, 523008, Pitch_bend_c, 1, 8832
3, 523622, Pitch_bend_c, 1, 8704
3, 523724, Pitch_bend_c, 1, 8576
3, 523827, Pitch_bend_c, 1, 8320
3, 523929, Pitch_bend_c, 1, 8192
3, 524544, Note_off_c, 1, 79, 80
3, 524544, Pitch_bend_c, 1, 8192
3, 524544, Note_on_c, 1, 79, 79
3, 524563, Pitch_bend_c, 1, 8192
3, 524582, Pitch_bend_c, 1, 8192
3, 524595, Pitch_bend_c, 1, 8192
3, 524614, Pitch_bend_c, 1, 8192
3, 524633, Pitch_bend_c, 1, 8192
3, 524652, Pitch_bend_c, 1, 8064
3, 524672, Pitch_bend_c, 1, 8064
3, 524684, Pitch_bend_c, 1, 8064
3, 524704, Pitch_bend_c, 1, 8064
3, 524723, Pitch_bend_c, 1, 8064
3, 524742, Pitch_bend_c, 1, 8192
3, 524761, Pitch_bend_c, 1, 8192
3, 524780, Pitch_bend_c, 1, 8192
3, 524793, Pitch_bend_c, 1, 8192
3, 524812, Pitch_bend_c, 1, 8192
3, 524832, Pitch_bend_c, 1, 8192
3, 524851, Pitch_bend_c, 1, 8192
3, 524870, Pitch_bend_c, 1, 8192
3, 524883, Pitch_bend_c, 1, 8192
3, 524902, Pitch_bend_c, 1, 8192
3, 524921, Pitch_bend_c, 1, 8192
3, 524940, Pitch_bend_c, 1, 8320
3, 524960, Pitch_bend_c, 1, 8320
3, 524979, Pitch_bend_c, 1, 8320
3, 524992, Pitch_bend_c, 1, 8320
3, 525011, Pitch_bend_c, 1, 8320
3, 525030, Pitch_bend_c, 1, 8192
3, 525049, Pitch_bend_c, 1, 8192
3, 525068, Pitch_bend_c, 1, 8192
3, 525081, Pitch_bend_c, 1, 8192
3, 525100, Pitch_bend_c, 1, 8192
3, 525120, Pitch_bend_c, 1, 8192
3, 525139, Pitch_bend_c, 1, 8192
3, 525158, Pitch_bend_c, 1, 8320
3, 525171, Pitch_bend_c, 1, 8320
3, 525190, Pitch_bend_c, 1, 8448
3, 525209, Pitch_bend_c, 1, 8448
3, 525228, Pitch_bend_c, 1, 8448
3, 525248, Pitch_bend_c, 1, 8448
3, 525260, Pitch_bend_c, 1, 8448
3, 525280, Pitch_bend_c, 1, 8448
3, 525299, Pitch_bend_c, 1, 8448
3, 525312, Pitch_bend_c, 1, 8192
3, 525331, Pitch_bend_c, 1, 8192
3, 525350, Pitch_bend_c, 1, 8192
3, 525363, Pitch_bend_c, 1, 8192
3, 525382, Pitch_bend_c, 1, 8192
3, 525401, Pitch_bend_c, 1, 8192
3, 525420, Pitch_bend_c, 1, 8192
3, 525440, Pitch_bend_c, 1, 8192
3, 525452, Pitch_bend_c, 1, 8192
3, 525472, Pitch_bend_c, 1, 8192
3, 525491, Pitch_bend_c, 1, 8192
3, 525510, Pitch_bend_c, 1, 8192
3, 525529, Pitch_bend_c, 1, 8192
3, 525548, Pitch_bend_c, 1, 8192
3, 525561, Pitch_bend_c, 1, 8192
3, 525580, Pitch_bend_c, 1, 8192
3, 525600, Pitch_bend_c, 1, 8192
3, 525619, Pitch_bend_c, 1, 8192
3, 525638, Pitch_bend_c, 1, 8192
3, 525651, Pitch_bend_c, 1, 8192
3, 525670, Pitch_bend_c, 1, 8192
3, 525689, Pitch_bend_c, 1, 8192
3, 525708, Pitch_bend_c, 1, 8192
3, 525728, Pitch_bend_c, 1, 8192
3, 525747, Pitch_bend_c, 1, 8192
3, 525760, Pitch_bend_c, 1, 8192
3, 525779, Pitch_bend_c, 1, 8192
3, 525798, Pitch_bend_c, 1, 8192
3, 525817, Pitch_bend_c, 1, 8192
3, 525836, Pitch_bend_c, 1, 8192
3, 525849, Pitch_bend_c, 1, 8192
3, 525868, Pitch_bend_c, 1, 8192
3, 525888, Pitch_bend_c, 1, 8192
3, 525907, Pitch_bend_c, 1, 8192
3, 525926, Pitch_bend_c, 1, 8320
3, 525939, Pitch_bend_c, 1, 8320
3, 525958, Pitch_bend_c, 1, 8448
3, 525977, Pitch_bend_c, 1, 8448
3, 525996, Pitch_bend_c, 1, 8448
3, 526016, Pitch_bend_c, 1, 8448
3, 526028, Pitch_bend_c, 1, 8448
3, 526048, Pitch_bend_c, 1, 8448
3, 526067, Pitch_bend_c, 1, 8448
3, 526080, Note_off_c, 1, 79, 80
3, 526080, Pitch_bend_c, 1, 8192
3, 526848, Note_on_c, 1, 75, 79
3, 527616, Note_off_c, 1, 75, 80
3, 527616, Note_on_c, 1, 77, 79
3, 527616, Pitch_bend_c, 1, 8192
3, 527635, Pitch_bend_c, 1, 8192
3, 527654, Pitch_bend_c, 1, 8192
3, 527667, Pitch_bend_c, 1, 8192
3, 527686, Pitch_bend_c, 1, 8192
3, 527705, Pitch_bend_c, 1, 8192
3, 527724, Pitch_bend_c, 1, 8192
3, 527744, Pitch_bend_c, 1, 8192
3, 527756, Pitch_bend_c, 1, 8192
3, 527776, Pitch_bend_c, 1, 8192
3, 527795, Pitch_bend_c, 1, 8192
3, 527814, Pitch_bend_c, 1, 8192
3, 527833, Pitch_bend_c, 1, 8192
3, 527852, Pitch_bend_c, 1, 8192
3, 527865, Pitch_bend_c, 1, 8192
3, 527884, Pitch_bend_c, 1, 8192
3, 527904, Pitch_bend_c, 1, 8192
3, 527923, Pitch_bend_c, 1, 8192
3, 527942, Pitch_bend_c, 1, 8192
3, 527955, Pitch_bend_c, 1, 8192
3, 527974, Pitch_bend_c, 1, 8192
3, 527993, Pitch_bend_c, 1, 8192
3, 528012, Pitch_bend_c, 1, 8192
3, 528032, Pitch_bend_c, 1, 8192
3, 528051, Pitch_bend_c, 1, 8192
3, 528064, Pitch_bend_c, 1, 8192
3, 528083, Pitch_bend_c, 1, 8192
3, 528102, Pitch_bend_c, 1, 8192
3, 528121, Pitch_bend_c, 1, 8192
3, 528140, Pitch_bend_c, 1, 8192
3, 528153, Pitch_bend_c, 1, 8192
3, 528172, Pitch_bend_c, 1, 8192
3, 528192, Pitch_bend_c, 1, 8192
3, 528211, Pitch_bend_c, 1, 8192
3, 528230, Pitch_bend_c, 1, 8320
3, 528243, Pitch_bend_c, 1, 8320
3, 528262, Pitch_bend_c, 1, 8320
3, 528281, Pitch_bend_c, 1, 8320
3, 528300, Pitch_bend_c, 1, 8320
3, 528320, Pitch_bend_c, 1, 8448
3, 528332, Pitch_bend_c, 1, 8448
3, 528352, Pitch_bend_c, 1, 8448
3, 528371, Pitch_bend_c, 1, 8320
3, 528384, Pitch_bend_c, 1, 8192
3, 528403, Pitch_bend_c, 1, 8192
3, 528422, Pitch_bend_c, 1, 8192
3, 528435, Pitch_bend_c, 1, 8192
3, 528454, Pitch_bend_c, 1, 8192
3, 528473, Pitch_bend_c, 1, 8192
3, 528492, Pitch_bend_c, 1, 8192
3, 528512, Pitch_bend_c, 1, 8192
3, 528524, Pitch_bend_c, 1, 8192
3, 528544, Pitch_bend_c, 1, 8192
3, 528563, Pitch_bend_c, 1, 8192
3, 528582, Pitch_bend_c, 1, 8192
3, 528601, Pitch_bend_c, 1, 8192
3, 528620, Pitch_bend_c, 1, 8192
3, 528633, Pitch_bend_c, 1, 8192
3, 528652, Pitch_bend_c, 1, 8192
3, 528672, Pitch_bend_c, 1, 8192
3, 528691, Pitch_bend_c, 1, 8192
3, 528710, Pitch_bend_c, 1, 8192
3, 528723, Pitch_bend_c, 1, 8192
3, 528742, Pitch_bend_c, 1, 8192
3, 528761, Pitch_bend_c, 1, 8192
3, 528780, Pitch_bend_c, 1, 8192
3, 528800, Pitch_bend_c, 1, 8192
3, 528819, Pitch_bend_c, 1, 8192
3, 528832, Pitch_bend_c, 1, 8192
3, 528851, Pitch_bend_c, 1, 8192
3, 528870, Pitch_bend_c, 1, 8192
3, 528889, Pitch_bend_c, 1, 8192
3, 528908, Pitch_bend_c, 1, 8192
3, 528921, Pitch_bend_c, 1, 8192
3, 528940, Pitch_bend_c, 1, 8192
3, 528960, Pitch_bend_c, 1, 8192
3, 528979, Pitch_bend_c, 1, 8320
3, 528998, Pitch_bend_c, 1, 8320
3, 529011, Pitch_bend_c, 1, 8320
3, 529030, Pitch_bend_c, 1, 8448
3, 529049, Pitch_bend_c, 1, 8448
3, 529068, Pitch_bend_c, 1, 8448
3, 529088, Pitch_bend_c, 1, 8448
3, 529100, Pitch_bend_c, 1, 8448
3, 529120, Pitch_bend_c, 1, 8448
3, 529139, Pitch_bend_c, 1, 8448
3, 529158, Pitch_bend_c, 1, 8448
3, 529177, Pitch_bend_c, 1, 8448
3, 529196, Pitch_bend_c, 1, 8320
3, 529209, Pitch_bend_c, 1, 8320
3, 529228, Pitch_bend_c, 1, 8320
3, 529248, Pitch_bend_c, 1, 8192
3, 529267, Pitch_bend_c, 1, 8064
3, 529286, Pitch_bend_c, 1, 8064
3, 529299, Pitch_bend_c, 1, 8064
3, 529318, Pitch_bend_c, 1, 7936
3, 529337, Pitch_bend_c, 1, 7936
3, 529356, Pitch_bend_c, 1, 7936
3, 529376, Pitch_bend_c, 1, 7936
3, 529395, Pitch_bend_c, 1, 7936
3, 529408, Pitch_bend_c, 1, 7936
3, 529427, Pitch_bend_c, 1, 7936
3, 529446, Pitch_bend_c, 1, 7936
3, 529465, Pitch_bend_c, 1, 7936
3, 529484, Pitch_bend_c, 1, 8064
3, 529497, Pitch_bend_c, 1, 8064
3, 529516, Pitch_bend_c, 1, 8064
3, 529536, Pitch_bend_c, 1, 8192
3, 529555, Pitch_bend_c, 1, 8192
3, 529574, Pitch_bend_c, 1, 8320
3, 529587, Pitch_bend_c, 1, 8320
3, 529606, Pitch_bend_c, 1, 8320
3, 529625, Pitch_bend_c, 1, 8320
3, 529644, Pitch_bend_c, 1, 8320
3, 529664, Pitch_bend_c, 1, 8320
3, 529676, Pitch_bend_c, 1, 8320
3, 529696, Pitch_bend_c, 1, 8320
3, 529715, Pitch_bend_c, 1, 8320
3, 529734, Pitch_bend_c, 1, 8320
3, 529753, Pitch_bend_c, 1, 8320
3, 529772, Pitch_bend_c, 1, 8320
3, 529785, Pitch_bend_c, 1, 8320
3, 529804, Pitch_bend_c, 1, 8192
3, 529824, Pitch_bend_c, 1, 8192
3, 529843, Pitch_bend_c, 1, 8192
3, 529862, Pitch_bend_c, 1, 8064
3, 529875, Pitch_bend_c, 1, 8064
3, 529894, Pitch_bend_c, 1, 8064
3, 529913, Pitch_bend_c, 1, 8064
3, 529932, Pitch_bend_c, 1, 8064
3, 529952, Pitch_bend_c, 1, 8064
3, 529971, Pitch_bend_c, 1, 8064
3, 529984, Pitch_bend_c, 1, 8064
3, 530003, Pitch_bend_c, 1, 8064
3, 530022, Pitch_bend_c, 1, 8064
3, 530041, Pitch_bend_c, 1, 8064
3, 530060, Pitch_bend_c, 1, 8064
3, 530073, Pitch_bend_c, 1, 8064
3, 530092, Pitch_bend_c, 1, 8192
3, 530112, Pitch_bend_c, 1, 8192
3, 530131, Pitch_bend_c, 1, 8192
3, 530150, Pitch_bend_c, 1, 8320
3, 530163, Pitch_bend_c, 1, 8320
3, 530182, Pitch_bend_c, 1, 8320
3, 530201, Pitch_bend_c, 1, 8448
3, 530220, Pitch_bend_c, 1, 8448
3, 530240, Pitch_bend_c, 1, 8448
3, 530252, Pitch_bend_c, 1, 8448
3, 530272, Pitch_bend_c, 1, 8448
3, 530291, Pitch_bend_c, 1, 8448
3, 530310, Pitch_bend_c, 1, 8448
3, 530329, Pitch_bend_c, 1, 8320
3, 530348, Pitch_bend_c, 1, 8320
3, 530361, Pitch_bend_c, 1, 8320
3, 530380, Pitch_bend_c, 1, 8192
3, 530400, Pitch_bend_c, 1, 8192
3, 530419, Pitch_bend_c, 1, 8192
3, 530438, Pitch_bend_c, 1, 8064
3, 530451, Pitch_bend_c, 1, 8064
3, 530470, Pitch_bend_c, 1, 8064
3, 530489, Pitch_bend_c, 1, 7936
3, 530508, Pitch_bend_c, 1, 7936
3, 530528, Pitch_bend_c, 1, 7936
3, 530547, Pitch_bend_c, 1, 7936
3, 530560, Pitch_bend_c, 1, 7936
3, 530579, Pitch_bend_c, 1, 7936
3, 530598, Pitch_bend_c, 1, 7936
3, 530617, Pitch_bend_c, 1, 8064
3, 530636, Pitch_bend_c, 1, 8064
3, 530649, Pitch_bend_c, 1, 8064
3, 530668, Pitch_bend_c, 1, 8192
3, 530688, Pitch_bend_c, 1, 8192
3, 530707, Pitch_bend_c, 1, 8192
3, 530726, Pitch_bend_c, 1, 8320
3, 530739, Pitch_bend_c, 1, 8320
3, 530758, Pitch_bend_c, 1, 8320
3, 530777, Pitch_bend_c, 1, 8320
3, 530796, Pitch_bend_c, 1, 8448
3, 530816, Pitch_bend_c, 1, 8448
3, 530828, Pitch_bend_c, 1, 8448
3, 530848, Pitch_bend_c, 1, 8448
3, 530867, Pitch_bend_c, 1, 8448
3, 530886, Pitch_bend_c, 1, 8320
3, 530905, Pitch_bend_c, 1, 8320
3, 530924, Pitch_bend_c, 1, 8320
3, 530937, Pitch_bend_c, 1, 8320
3, 530956, Pitch_bend_c, 1, 8192
3, 530976, Pitch_bend_c, 1, 8192
3, 530995, Pitch_bend_c, 1, 8192
3, 531014, Pitch_bend_c, 1, 8064
3, 531027, Pitch_bend_c, 1, 8064
3, 531046, Pitch_bend_c, 1, 8064
3, 531065, Pitch_bend_c, 1, 8064
3, 531084, Pitch_bend_c, 1, 7936
3, 531104, Pitch_bend_c, 1, 7936
3, 531123, Pitch_bend_c, 1, 7936
3, 531136, Pitch_bend_c, 1, 7936
3, 531155, Pitch_bend_c, 1, 7936
3, 531174, Pitch_bend_c, 1, 8064
3, 531193, Pitch_bend_c, 1, 8064
3, 531212, Pitch_bend_c, 1, 8064
3, 531225, Pitch_bend_c, 1, 8064
3, 531244, Pitch_bend_c, 1, 8192
3, 531264, Pitch_bend_c, 1, 8192
3, 531283, Pitch_bend_c, 1, 8192
3, 531302, Pitch_bend_c, 1, 8320
3, 531315, Pitch_bend_c, 1, 8320
3, 531334, Pitch_bend_c, 1, 8320
3, 531353, Pitch_bend_c, 1, 8320
3, 531372, Pitch_bend_c, 1, 8320
3, 531392, Pitch_bend_c, 1, 8320
3, 531404, Pitch_bend_c, 1, 8320
3, 531424, Pitch_bend_c, 1, 8320
3, 531443, Pitch_bend_c, 1, 8320
3, 531456, Pitch_bend_c, 1, 8192
3, 531475, Pitch_bend_c, 1, 8192
3, 531494, Pitch_bend_c, 1, 8192
3, 531507, Pitch_bend_c, 1, 8192
3, 531526, Pitch_bend_c, 1, 8192
3, 531545, Pitch_bend_c, 1, 8192
3, 531564, Pitch_bend_c, 1, 8192
3, 531584, Pitch_bend_c, 1, 8192
3, 531596, Pitch_bend_c, 1, 8192
3, 531616, Pitch_bend_c, 1, 8192
3, 531635, Pitch_bend_c, 1, 8192
3, 531654, Pitch_bend_c, 1, 8192
3, 531673, Pitch_bend_c, 1, 8192
3, 531692, Pitch_bend_c, 1, 8192
3, 531705, Pitch_bend_c, 1, 8192
3, 531724, Pitch_bend_c, 1, 8192
3, 531744, Pitch_bend_c, 1, 8192
3, 531763, Pitch_bend_c, 1, 8192
3, 531782, Pitch_bend_c, 1, 8192
3, 531795, Pitch_bend_c, 1, 8192
3, 531814, Pitch_bend_c, 1, 8192
3, 531833, Pitch_bend_c, 1, 8192
3, 531852, Pitch_bend_c, 1, 8192
3, 531872, Pitch_bend_c, 1, 8192
3, 531891, Pitch_bend_c, 1, 8192
3, 531904, Pitch_bend_c, 1, 8192
3, 531923, Pitch_bend_c, 1, 8192
3, 531942, Pitch_bend_c, 1, 8192
3, 531961, Pitch_bend_c, 1, 8192
3, 531980, Pitch_bend_c, 1, 8192
3, 531993, Pitch_bend_c, 1, 8192
3, 532012, Pitch_bend_c, 1, 8192
3, 532032, Pitch_bend_c, 1, 8192
3, 532051, Pitch_bend_c, 1, 8192
3, 532070, Pitch_bend_c, 1, 8320
3, 532083, Pitch_bend_c, 1, 8320
3, 532102, Pitch_bend_c, 1, 8320
3, 532121, Pitch_bend_c, 1, 8320
3, 532140, Pitch_bend_c, 1, 8320
3, 532160, Pitch_bend_c, 1, 8320
3, 532172, Pitch_bend_c, 1, 8320
3, 532192, Pitch_bend_c, 1, 8320
3, 532211, Pitch_bend_c, 1, 8320
3, 532224, Note_off_c, 1, 77, 80
3, 532224, Note_off_c, 1, 74, 80
3, 532224, Pitch_bend_c, 1, 8192
3, 532224, Note_on_c, 1, 74, 79
3, 532992, Note_on_c, 1, 77, 79
3, 532992, Pitch_bend_c, 1, 8192
3, 533043, Pitch_bend_c, 1, 8192
3, 533088, Pitch_bend_c, 1, 8192
3, 533132, Pitch_bend_c, 1, 8192
3, 533184, Pitch_bend_c, 1, 8192
3, 533235, Pitch_bend_c, 1, 8192
3, 533280, Pitch_bend_c, 1, 8192
3, 533324, Pitch_bend_c, 1, 8192
3, 533376, Pitch_bend_c, 1, 8192
3, 533427, Pitch_bend_c, 1, 8192
3, 533472, Pitch_bend_c, 1, 8192
3, 533516, Pitch_bend_c, 1, 8192
3, 533568, Pitch_bend_c, 1, 8192
3, 533619, Pitch_bend_c, 1, 8192
3, 533664, Pitch_bend_c, 1, 8192
3, 533708, Pitch_bend_c, 1, 8192
3, 533760, Pitch_bend_c, 1, 9600
3, 534528, Pitch_bend_c, 1, 9600
3, 535296, Pitch_bend_c, 1, 9600
3, 535910, Pitch_bend_c, 1, 9344
3, 536012, Pitch_bend_c, 1, 8832
3, 536115, Pitch_bend_c, 1, 8448
3, 536217, Pitch_bend_c, 1, 8320
3, 536320, Pitch_bend_c, 1, 8192
3, 536832, Note_off_c, 1, 77, 80
3, 536832, Pitch_bend_c, 1, 8192
3, 536832, Note_on_c, 1, 77, 79
3, 536851, Pitch_bend_c, 1, 8192
3, 536870, Pitch_bend_c, 1, 8192
3, 536883, Pitch_bend_c, 1, 8192
3, 536902, Pitch_bend_c, 1, 8192
3, 536921, Pitch_bend_c, 1, 8192
3, 536940, Pitch_bend_c, 1, 8192
3, 536960, Pitch_bend_c, 1, 8192
3, 536972, Pitch_bend_c, 1, 8192
3, 536992, Pitch_bend_c, 1, 8192
3, 537011, Pitch_bend_c, 1, 8192
3, 537030, Pitch_bend_c, 1, 8192
3, 537049, Pitch_bend_c, 1, 8192
3, 537068, Pitch_bend_c, 1, 8192
3, 537081, Pitch_bend_c, 1, 8192
3, 537100, Pitch_bend_c, 1, 8192
3, 537120, Pitch_bend_c, 1, 8192
3, 537139, Pitch_bend_c, 1, 8192
3, 537158, Pitch_bend_c, 1, 8192
3, 537171, Pitch_bend_c, 1, 8192
3, 537190, Pitch_bend_c, 1, 8192
3, 537209, Pitch_bend_c, 1, 8192
3, 537228, Pitch_bend_c, 1, 8192
3, 537248, Pitch_bend_c, 1, 8192
3, 537267, Pitch_bend_c, 1, 8192
3, 537280, Pitch_bend_c, 1, 8192
3, 537299, Pitch_bend_c, 1, 8192
3, 537318, Pitch_bend_c, 1, 8192
3, 537337, Pitch_bend_c, 1, 8192
3, 537356, Pitch_bend_c, 1, 8192
3, 537369, Pitch_bend_c, 1, 8192
3, 537388, Pitch_bend_c, 1, 8192
3, 537408, Pitch_bend_c, 1, 8192
3, 537427, Pitch_bend_c, 1, 8192
3, 537446, Pitch_bend_c, 1, 8320
3, 537459, Pitch_bend_c, 1, 8320
3, 537478, Pitch_bend_c, 1, 8320
3, 537497, Pitch_bend_c, 1, 8448
3, 537516, Pitch_bend_c, 1, 8448
3, 537536, Pitch_bend_c, 1, 8448
3, 537548, Pitch_bend_c, 1, 8448
3, 537568, Pitch_bend_c, 1, 8448
3, 537587, Pitch_bend_c, 1, 8448
3, 537600, Pitch_bend_c, 1, 8192
3, 537619, Pitch_bend_c, 1, 8192
3, 537638, Pitch_bend_c, 1, 8192
3, 537651, Pitch_bend_c, 1, 8192
3, 537670, Pitch_bend_c, 1, 8192
3, 537689, Pitch_bend_c, 1, 8192
3, 537708, Pitch_bend_c, 1, 8192
3, 537728, Pitch_bend_c, 1, 8192
3, 537740, Pitch_bend_c, 1, 8192
3, 537760, Pitch_bend_c, 1, 8192
3, 537779, Pitch_bend_c, 1, 8192
3, 537798, Pitch_bend_c, 1, 8192
3, 537817, Pitch_bend_c, 1, 8192
3, 537836, Pitch_bend_c, 1, 8192
3, 537849, Pitch_bend_c, 1, 8192
3, 537868, Pitch_bend_c, 1, 8192
3, 537888, Pitch_bend_c, 1, 8192
3, 537907, Pitch_bend_c, 1, 8192
3, 537926, Pitch_bend_c, 1, 8192
3, 537939, Pitch_bend_c, 1, 8192
3, 537958, Pitch_bend_c, 1, 8192
3, 537977, Pitch_bend_c, 1, 8192
3, 537996, Pitch_bend_c, 1, 8192
3, 538016, Pitch_bend_c, 1, 8192
3, 538035, Pitch_bend_c, 1, 8192
3, 538048, Pitch_bend_c, 1, 8192
3, 538067, Pitch_bend_c, 1, 8192
3, 538086, Pitch_bend_c, 1, 8192
3, 538105, Pitch_bend_c, 1, 8192
3, 538124, Pitch_bend_c, 1, 8192
3, 538137, Pitch_bend_c, 1, 8192
3, 538156, Pitch_bend_c, 1, 8192
3, 538176, Pitch_bend_c, 1, 8192
3, 538195, Pitch_bend_c, 1, 8192
3, 538214, Pitch_bend_c, 1, 8320
3, 538227, Pitch_bend_c, 1, 8320
3, 538246, Pitch_bend_c, 1, 8320
3, 538265, Pitch_bend_c, 1, 8448
3, 538284, Pitch_bend_c, 1, 8448
3, 538304, Pitch_bend_c, 1, 8448
3, 538316, Pitch_bend_c, 1, 8448
3, 538336, Pitch_bend_c, 1, 8448
3, 538355, Pitch_bend_c, 1, 8448
3, 538374, Pitch_bend_c, 1, 8448
3, 538393, Pitch_bend_c, 1, 8320
3, 538412, Pitch_bend_c, 1, 8320
3, 538425, Pitch_bend_c, 1, 8320
3, 538444, Pitch_bend_c, 1, 8192
3, 538464, Pitch_bend_c, 1, 8192
3, 538483, Pitch_bend_c, 1, 8192
3, 538502, Pitch_bend_c, 1, 8064
3, 538515, Pitch_bend_c, 1, 8064
3, 538534, Pitch_bend_c, 1, 8064
3, 538553, Pitch_bend_c, 1, 7936
3, 538572, Pitch_bend_c, 1, 7936
3, 538592, Pitch_bend_c, 1, 7936
3, 538611, Pitch_bend_c, 1, 7936
3, 538624, Pitch_bend_c, 1, 7936
3, 538643, Pitch_bend_c, 1, 7936
3, 538662, Pitch_bend_c, 1, 7936
3, 538681, Pitch_bend_c, 1, 8064
3, 538700, Pitch_bend_c, 1, 8064
3, 538713, Pitch_bend_c, 1, 8064
3, 538732, Pitch_bend_c, 1, 8192
3, 538752, Pitch_bend_c, 1, 8192
3, 538771, Pitch_bend_c, 1, 8192
3, 538790, Pitch_bend_c, 1, 8320
3, 538803, Pitch_bend_c, 1, 8320
3, 538822, Pitch_bend_c, 1, 8320
3, 538841, Pitch_bend_c, 1, 8448
3, 538860, Pitch_bend_c, 1, 8448
3, 538880, Pitch_bend_c, 1, 8448
3, 538892, Pitch_bend_c, 1, 8448
3, 538912, Pitch_bend_c, 1, 8448
3, 538931, Pitch_bend_c, 1, 8448
3, 538950, Pitch_bend_c, 1, 8448
3, 538969, Pitch_bend_c, 1, 8320
3, 538988, Pitch_bend_c, 1, 8320
3, 539001, Pitch_bend_c, 1, 8320
3, 539020, Pitch_bend_c, 1, 8192
3, 539040, Pitch_bend_c, 1, 8192
3, 539059, Pitch_bend_c, 1, 8192
3, 539078, Pitch_bend_c, 1, 8064
3, 539091, Pitch_bend_c, 1, 8064
3, 539110, Pitch_bend_c, 1, 8064
3, 539129, Pitch_bend_c, 1, 7936
3, 539136, Note_off_c, 1, 77, 80
3, 539136, Pitch_bend_c, 1, 8192
3, 539136, Note_on_c, 1, 74, 79
3, 539904, Note_off_c, 1, 74, 80
3, 539904, Note_on_c, 1, 75, 79
3, 539904, Pitch_bend_c, 1, 8192
3, 539923, Pitch_bend_c, 1, 8192
3, 539942, Pitch_bend_c, 1, 8192
3, 539955, Pitch_bend_c, 1, 8192
3, 539974, Pitch_bend_c, 1, 8192
3, 539993, Pitch_bend_c, 1, 8192
3, 540012, Pitch_bend_c, 1, 8192
3, 540032, Pitch_bend_c, 1, 8192
3, 540044, Pitch_bend_c, 1, 8192
3, 540064, Pitch_bend_c, 1, 8192
3, 540083, Pitch_bend_c, 1, 8192
3, 540102, Pitch_bend_c, 1, 8192
3, 540121, Pitch_bend_c, 1, 8192
3, 540140, Pitch_bend_c, 1, 8192
3, 540153, Pitch_bend_c, 1, 8192
3, 540172, Pitch_bend_c, 1, 8192
3, 540192, Pitch_bend_c, 1, 8192
3, 540211, Pitch_bend_c, 1, 8192
3, 540230, Pitch_bend_c, 1, 8192
3, 540243, Pitch_bend_c, 1, 8192
3, 540262, Pitch_bend_c, 1, 8192
3, 540281, Pitch_bend_c, 1, 8192
3, 540300, Pitch_bend_c, 1, 8192
3, 540320, Pitch_bend_c, 1, 8192
3, 540339, Pitch_bend_c, 1, 8192
3, 540352, Pitch_bend_c, 1, 8192
3, 540371, Pitch_bend_c, 1, 8192
3, 540390, Pitch_bend_c, 1, 8192
3, 540409, Pitch_bend_c, 1, 8192
3, 540428, Pitch_bend_c, 1, 8192
3, 540441, Pitch_bend_c, 1, 8192
3, 540460, Pitch_bend_c, 1, 8192
3, 540480, Pitch_bend_c, 1, 8192
3, 540499, Pitch_bend_c, 1, 8192
3, 540518, Pitch_bend_c, 1, 8320
3, 540531, Pitch_bend_c, 1, 8320
3, 540550, Pitch_bend_c, 1, 8320
3, 540569, Pitch_bend_c, 1, 8448
3, 540588, Pitch_bend_c, 1, 8448
3, 540608, Pitch_bend_c, 1, 8448
3, 540620, Pitch_bend_c, 1, 8448
3, 540640, Pitch_bend_c, 1, 8448
3, 540659, Pitch_bend_c, 1, 8448
3, 540672, Pitch_bend_c, 1, 8192
3, 540691, Pitch_bend_c, 1, 8192
3, 540710, Pitch_bend_c, 1, 8192
3, 540723, Pitch_bend_c, 1, 8192
3, 540742, Pitch_bend_c, 1, 8192
3, 540761, Pitch_bend_c, 1, 8192
3, 540780, Pitch_bend_c, 1, 8192
3, 540800, Pitch_bend_c, 1, 8192
3, 540812, Pitch_bend_c, 1, 8192
3, 540832, Pitch_bend_c, 1, 8192
3, 540851, Pitch_bend_c, 1, 8192
3, 540870, Pitch_bend_c, 1, 8192
3, 540889, Pitch_bend_c, 1, 8192
3, 540908, Pitch_bend_c, 1, 8192
3, 540921, Pitch_bend_c, 1, 8192
3, 540940, Pitch_bend_c, 1, 8192
3, 540960, Pitch_bend_c, 1, 8192
3, 540979, Pitch_bend_c, 1, 8192
3, 540998, Pitch_bend_c, 1, 8192
3, 541011, Pitch_bend_c, 1, 8192
3, 541030, Pitch_bend_c, 1, 8192
3, 541049, Pitch_bend_c, 1, 8192
3, 541068, Pitch_bend_c, 1, 8192
3, 541088, Pitch_bend_c, 1, 8192
3, 541107, Pitch_bend_c, 1, 8192
3, 541120, Pitch_bend_c, 1, 8192
3, 541139, Pitch_bend_c, 1, 8192
3, 541158, Pitch_bend_c, 1, 8192
3, 541177, Pitch_bend_c, 1, 8192
3, 541196, Pitch_bend_c, 1, 8192
3, 541209, Pitch_bend_c, 1, 8192
3, 541228, Pitch_bend_c, 1, 8192
3, 541248, Pitch_bend_c, 1, 8192
3, 541267, Pitch_bend_c, 1, 8192
3, 541286, Pitch_bend_c, 1, 8320
3, 541299, Pitch_bend_c, 1, 8320
3, 541318, Pitch_bend_c, 1, 8448
3, 541337, Pitch_bend_c, 1, 8448
3, 541356, Pitch_bend_c, 1, 8448
3, 541376, Pitch_bend_c, 1, 8448
3, 541388, Pitch_bend_c, 1, 8448
3, 541408, Pitch_bend_c, 1, 8448
3, 541427, Pitch_bend_c, 1, 8448
3, 541446, Pitch_bend_c, 1, 8448
3, 541465, Pitch_bend_c, 1, 8448
3, 541484, Pitch_bend_c, 1, 8320
3, 541497, Pitch_bend_c, 1, 8320
3, 541516, Pitch_bend_c, 1, 8192
3, 541536, Pitch_bend_c, 1, 8192
3, 541555, Pitch_bend_c, 1, 8192
3, 541574, Pitch_bend_c, 1, 8064
3, 541587, Pitch_bend_c, 1, 8064
3, 541606, Pitch_bend_c, 1, 7936
3, 541625, Pitch_bend_c, 1, 7936
3, 541644, Pitch_bend_c, 1, 7936
3, 541664, Pitch_bend_c, 1, 7936
3, 541683, Pitch_bend_c, 1, 7936
3, 541696, Pitch_bend_c, 1, 7936
3, 541715, Pitch_bend_c, 1, 7936
3, 541734, Pitch_bend_c, 1, 7936
3, 541753, Pitch_bend_c, 1, 7936
3, 541772, Pitch_bend_c, 1, 8064
3, 541785, Pitch_bend_c, 1, 8064
3, 541804, Pitch_bend_c, 1, 8192
3, 541824, Pitch_bend_c, 1, 8192
3, 541843, Pitch_bend_c, 1, 8192
3, 541862, Pitch_bend_c, 1, 8320
3, 541875, Pitch_bend_c, 1, 8320
3, 541894, Pitch_bend_c, 1, 8320
3, 541913, Pitch_bend_c, 1, 8320
3, 541932, Pitch_bend_c, 1, 8448
3, 541952, Pitch_bend_c, 1, 8448
3, 541964, Pitch_bend_c, 1, 8448
3, 541984, Pitch_bend_c, 1, 8448
3, 542003, Pitch_bend_c, 1, 8448
3, 542022, Pitch_bend_c, 1, 8320
3, 542041, Pitch_bend_c, 1, 8320
3, 542060, Pitch_bend_c, 1, 8320
3, 542073, Pitch_bend_c, 1, 8320
3, 542092, Pitch_bend_c, 1, 8192
3, 542112, Pitch_bend_c, 1, 8192
3, 542131, Pitch_bend_c, 1, 8192
3, 542150, Pitch_bend_c, 1, 8064
3, 542163, Pitch_bend_c, 1, 8064
3, 542182, Pitch_bend_c, 1, 8064
3, 542201, Pitch_bend_c, 1, 8064
3, 542220, Pitch_bend_c, 1, 7936
3, 542240, Pitch_bend_c, 1, 7936
3, 542259, Pitch_bend_c, 1, 7936
3, 542272, Pitch_bend_c, 1, 7936
3, 542291, Pitch_bend_c, 1, 7936
3, 542310, Pitch_bend_c, 1, 8064
3, 542329, Pitch_bend_c, 1, 8064
3, 542348, Pitch_bend_c, 1, 8064
3, 542361, Pitch_bend_c, 1, 8064
3, 542380, Pitch_bend_c, 1, 8192
3, 542400, Pitch_bend_c, 1, 8192
3, 542419, Pitch_bend_c, 1, 8192
3, 542438, Pitch_bend_c, 1, 8320
3, 542451, Pitch_bend_c, 1, 8320
3, 542470, Pitch_bend_c, 1, 8320
3, 542489, Pitch_bend_c, 1, 8320
3, 542508, Pitch_bend_c, 1, 8448
3, 542528, Pitch_bend_c, 1, 8448
3, 542540, Pitch_bend_c, 1, 8448
3, 542560, Pitch_bend_c, 1, 8448
3, 542579, Pitch_bend_c, 1, 8448
3, 542598, Pitch_bend_c, 1, 8320
3, 542617, Pitch_bend_c, 1, 8320
3, 542636, Pitch_bend_c, 1, 8320
3, 542649, Pitch_bend_c, 1, 8320
3, 542668, Pitch_bend_c, 1, 8192
3, 542688, Pitch_bend_c, 1, 8192
3, 542707, Pitch_bend_c, 1, 8192
3, 542726, Pitch_bend_c, 1, 8064
3, 542739, Pitch_bend_c, 1, 8064
3, 542758, Pitch_bend_c, 1, 8064
3, 542777, Pitch_bend_c, 1, 8064
3, 542796, Pitch_bend_c, 1, 7936
3, 542816, Pitch_bend_c, 1, 7936
3, 542835, Pitch_bend_c, 1, 7936
3, 542848, Pitch_bend_c, 1, 7936
3, 542867, Pitch_bend_c, 1, 7936
3, 542886, Pitch_bend_c, 1, 8064
3, 542905, Pitch_bend_c, 1, 8064
3, 542924, Pitch_bend_c, 1, 8064
3, 542937, Pitch_bend_c, 1, 8064
3, 542956, Pitch_bend_c, 1, 8192
3, 542976, Pitch_bend_c, 1, 8192
3, 542995, Pitch_bend_c, 1, 8192
3, 543014, Pitch_bend_c, 1, 8320
3, 543027, Pitch_bend_c, 1, 8320
3, 543046, Pitch_bend_c, 1, 8320
3, 543065, Pitch_bend_c, 1, 8448
3, 543084, Pitch_bend_c, 1, 8448
3, 543104, Pitch_bend_c, 1, 8448
3, 543116, Pitch_bend_c, 1, 8448
3, 543136, Pitch_bend_c, 1, 8448
3, 543155, Pitch_bend_c, 1, 8448
3, 543174, Pitch_bend_c, 1, 8448
3, 543193, Pitch_bend_c, 1, 8320
3, 543212, Pitch_bend_c, 1, 8320
3, 543225, Pitch_bend_c, 1, 8320
3, 543244, Pitch_bend_c, 1, 8192
3, 543264, Pitch_bend_c, 1, 8192
3, 543283, Pitch_bend_c, 1, 8192
3, 543302, Pitch_bend_c, 1, 8064
3, 543315, Pitch_bend_c, 1, 8064
3, 543334, Pitch_bend_c, 1, 8064
3, 543353, Pitch_bend_c, 1, 7936
3, 543372, Pitch_bend_c, 1, 7936
3, 543392, Pitch_bend_c, 1, 7936
3, 543411, Pitch_bend_c, 1, 7936
3, 543424, Pitch_bend_c, 1, 7936
3, 543443, Pitch_bend_c, 1, 7936
3, 543462, Pitch_bend_c, 1, 7936
3, 543481, Pitch_bend_c, 1, 8064
3, 543500, Pitch_bend_c, 1, 8064
3, 543513, Pitch_bend_c, 1, 8064
3, 543532, Pitch_bend_c, 1, 8192
3, 543552, Pitch_bend_c, 1, 8192
3, 543571, Pitch_bend_c, 1, 8192
3, 543590, Pitch_bend_c, 1, 8192
3, 543603, Pitch_bend_c, 1, 8192
3, 543622, Pitch_bend_c, 1, 8192
3, 543641, Pitch_bend_c, 1, 8192
3, 543660, Pitch_bend_c, 1, 8320
3, 543680, Pitch_bend_c, 1, 8320
3, 543692, Pitch_bend_c, 1, 8320
3, 543712, Pitch_bend_c, 1, 8320
3, 543731, Pitch_bend_c, 1, 8320
3, 543744, Pitch_bend_c, 1, 8192
3, 543763, Pitch_bend_c, 1, 8192
3, 543782, Pitch_bend_c, 1, 8192
3, 543795, Pitch_bend_c, 1, 8192
3, 543814, Pitch_bend_c, 1, 8192
3, 543833, Pitch_bend_c, 1, 8192
3, 543852, Pitch_bend_c, 1, 8192
3, 543872, Pitch_bend_c, 1, 8192
3, 543884, Pitch_bend_c, 1, 8192
3, 543904, Pitch_bend_c, 1, 8192
3, 543923, Pitch_bend_c, 1, 8192
3, 543942, Pitch_bend_c, 1, 8192
3, 543961, Pitch_bend_c, 1, 8192
3, 543980, Pitch_bend_c, 1, 8192
3, 543993, Pitch_bend_c, 1, 8192
3, 544012, Pitch_bend_c, 1, 8192
3, 544032, Pitch_bend_c, 1, 8192
3, 544051, Pitch_bend_c, 1, 8192
3, 544070, Pitch_bend_c, 1, 8192
3, 544083, Pitch_bend_c, 1, 8192
3, 544102, Pitch_bend_c, 1, 8192
3, 544121, Pitch_bend_c, 1, 8192
3, 544140, Pitch_bend_c, 1, 8192
3, 544160, Pitch_bend_c, 1, 8192
3, 544179, Pitch_bend_c, 1, 8192
3, 544192, Pitch_bend_c, 1, 8192
3, 544211, Pitch_bend_c, 1, 8192
3, 544230, Pitch_bend_c, 1, 8192
3, 544249, Pitch_bend_c, 1, 8192
3, 544268, Pitch_bend_c, 1, 8192
3, 544281, Pitch_bend_c, 1, 8192
3, 544300, Pitch_bend_c, 1, 8192
3, 544320, Pitch_bend_c, 1, 8192
3, 544339, Pitch_bend_c, 1, 8192
3, 544358, Pitch_bend_c, 1, 8320
3, 544371, Pitch_bend_c, 1, 8320
3, 544390, Pitch_bend_c, 1, 8320
3, 544409, Pitch_bend_c, 1, 8448
3, 544428, Pitch_bend_c, 1, 8448
3, 544448, Pitch_bend_c, 1, 8448
3, 544460, Pitch_bend_c, 1, 8448
3, 544480, Pitch_bend_c, 1, 8448
3, 544499, Pitch_bend_c, 1, 8448
3, 544512, Note_off_c, 1, 75, 80
3, 544512, Pitch_bend_c, 1, 8192
3, 544512, Note_on_c, 1, 74, 79
3, 545280, Note_off_c, 1, 74, 80
3, 545280, Note_on_c, 1, 75, 79
3, 546048, Note_off_c, 1, 75, 80
3, 546048, Note_on_c, 1, 77, 79
3, 546048, Pitch_bend_c, 1, 8192
3, 546067, Pitch_bend_c, 1, 8192
3, 546086, Pitch_bend_c, 1, 8192
3, 546099, Pitch_bend_c, 1, 8192
3, 546118, Pitch_bend_c, 1, 8192
3, 546137, Pitch_bend_c, 1, 8192
3, 546156, Pitch_bend_c, 1, 8192
3, 546176, Pitch_bend_c, 1, 8192
3, 546188, Pitch_bend_c, 1, 8192
3, 546208, Pitch_bend_c, 1, 8192
3, 546227, Pitch_bend_c, 1, 8192
3, 546246, Pitch_bend_c, 1, 8192
3, 546265, Pitch_bend_c, 1, 8192
3, 546284, Pitch_bend_c, 1, 8192
3, 546297, Pitch_bend_c, 1, 8192
3, 546316, Pitch_bend_c, 1, 8192
3, 546336, Pitch_bend_c, 1, 8192
3, 546355, Pitch_bend_c, 1, 8192
3, 546374, Pitch_bend_c, 1, 8192
3, 546387, Pitch_bend_c, 1, 8192
3, 546406, Pitch_bend_c, 1, 8192
3, 546425, Pitch_bend_c, 1, 8192
3, 546444, Pitch_bend_c, 1, 8192
3, 546464, Pitch_bend_c, 1, 8192
3, 546483, Pitch_bend_c, 1, 8192
3, 546496, Pitch_bend_c, 1, 8192
3, 546515, Pitch_bend_c, 1, 8192
3, 546534, Pitch_bend_c, 1, 8192
3, 546553, Pitch_bend_c, 1, 8192
3, 546572, Pitch_bend_c, 1, 8192
3, 546585, Pitch_bend_c, 1, 8192
3, 546604, Pitch_bend_c, 1, 8192
3, 546624, Pitch_bend_c, 1, 8192
3, 546643, Pitch_bend_c, 1, 8192
3, 546662, Pitch_bend_c, 1, 8320
3, 546675, Pitch_bend_c, 1, 8320
3, 546694, Pitch_bend_c, 1, 8320
3, 546713, Pitch_bend_c, 1, 8448
3, 546732, Pitch_bend_c, 1, 8448
3, 546752, Pitch_bend_c, 1, 8448
3, 546764, Pitch_bend_c, 1, 8448
3, 546784, Pitch_bend_c, 1, 8448
3, 546803, Pitch_bend_c, 1, 8448
3, 546816, Pitch_bend_c, 1, 8192
3, 546835, Pitch_bend_c, 1, 8192
3, 546854, Pitch_bend_c, 1, 8192
3, 546867, Pitch_bend_c, 1, 8192
3, 546886, Pitch_bend_c, 1, 8192
3, 546905, Pitch_bend_c, 1, 8192
3, 546924, Pitch_bend_c, 1, 8064
3, 546944, Pitch_bend_c, 1, 8064
3, 546956, Pitch_bend_c, 1, 8064
3, 546976, Pitch_bend_c, 1, 8064
3, 546995, Pitch_bend_c, 1, 8064
3, 547014, Pitch_bend_c, 1, 8192
3, 547033, Pitch_bend_c, 1, 8192
3, 547052, Pitch_bend_c, 1, 8192
3, 547065, Pitch_bend_c, 1, 8192
3, 547084, Pitch_bend_c, 1, 8192
3, 547104, Pitch_bend_c, 1, 8192
3, 547123, Pitch_bend_c, 1, 8192
3, 547142, Pitch_bend_c, 1, 8192
3, 547155, Pitch_bend_c, 1, 8192
3, 547174, Pitch_bend_c, 1, 8192
3, 547193, Pitch_bend_c, 1, 8192
3, 547212, Pitch_bend_c, 1, 8320
3, 547232, Pitch_bend_c, 1, 8320
3, 547251, Pitch_bend_c, 1, 8320
3, 547264, Pitch_bend_c, 1, 8320
3, 547283, Pitch_bend_c, 1, 8320
3, 547302, Pitch_bend_c, 1, 8192
3, 547321, Pitch_bend_c, 1, 8192
3, 547340, Pitch_bend_c, 1, 8192
3, 547353, Pitch_bend_c, 1, 8192
3, 547372, Pitch_bend_c, 1, 8192
3, 547392, Pitch_bend_c, 1, 8192
3, 547411, Pitch_bend_c, 1, 8192
3, 547430, Pitch_bend_c, 1, 8320
3, 547443, Pitch_bend_c, 1, 8320
3, 547462, Pitch_bend_c, 1, 8320
3, 547481, Pitch_bend_c, 1, 8320
3, 547500, Pitch_bend_c, 1, 8448
3, 547520, Pitch_bend_c, 1, 8448
3, 547532, Pitch_bend_c, 1, 8448
3, 547552, Pitch_bend_c, 1, 8448
3, 547571, Pitch_bend_c, 1, 8448
3, 547590, Pitch_bend_c, 1, 8320
3, 547609, Pitch_bend_c, 1, 8320
3, 547628, Pitch_bend_c, 1, 8320
3, 547641, Pitch_bend_c, 1, 8320
3, 547660, Pitch_bend_c, 1, 8192
3, 547680, Pitch_bend_c, 1, 8192
3, 547699, Pitch_bend_c, 1, 8192
3, 547718, Pitch_bend_c, 1, 8064
3, 547731, Pitch_bend_c, 1, 8064
3, 547750, Pitch_bend_c, 1, 8064
3, 547769, Pitch_bend_c, 1, 8064
3, 547788, Pitch_bend_c, 1, 7936
3, 547808, Pitch_bend_c, 1, 7936
3, 547827, Pitch_bend_c, 1, 7936
3, 547840, Pitch_bend_c, 1, 7936
3, 547859, Pitch_bend_c, 1, 7936
3, 547878, Pitch_bend_c, 1, 8064
3, 547897, Pitch_bend_c, 1, 8064
3, 547916, Pitch_bend_c, 1, 8064
3, 547929, Pitch_bend_c, 1, 8064
3, 547948, Pitch_bend_c, 1, 8192
3, 547968, Pitch_bend_c, 1, 8192
3, 547987, Pitch_bend_c, 1, 8192
3, 548006, Pitch_bend_c, 1, 8320
3, 548019, Pitch_bend_c, 1, 8320
3, 548038, Pitch_bend_c, 1, 8320
3, 548057, Pitch_bend_c, 1, 8320
3, 548076, Pitch_bend_c, 1, 8320
3, 548096, Pitch_bend_c, 1, 8448
3, 548108, Pitch_bend_c, 1, 8448
3, 548128, Pitch_bend_c, 1, 8448
3, 548147, Pitch_bend_c, 1, 8320
3, 548166, Pitch_bend_c, 1, 8320
3, 548185, Pitch_bend_c, 1, 8320
3, 548204, Pitch_bend_c, 1, 8320
3, 548217, Pitch_bend_c, 1, 8320
3, 548236, Pitch_bend_c, 1, 8192
3, 548256, Pitch_bend_c, 1, 8192
3, 548275, Pitch_bend_c, 1, 8192
3, 548294, Pitch_bend_c, 1, 8064
3, 548307, Pitch_bend_c, 1, 8064
3, 548326, Pitch_bend_c, 1, 8064
3, 548345, Pitch_bend_c, 1, 8064
3, 548352, Note_off_c, 1, 77, 80
3, 548352, Pitch_bend_c, 1, 8192
3, 548352, Note_on_c, 1, 77, 79
3, 548403, Pitch_bend_c, 1, 8192
3, 548448, Pitch_bend_c, 1, 8192
3, 548492, Pitch_bend_c, 1, 8192
3, 548544, Pitch_bend_c, 1, 8192
3, 548595, Pitch_bend_c, 1, 8192
3, 548640, Pitch_bend_c, 1, 8192
3, 548684, Pitch_bend_c, 1, 8192
3, 548736, Pitch_bend_c, 1, 8192
3, 548787, Pitch_bend_c, 1, 8192
3, 548832, Pitch_bend_c, 1, 8192
3, 548876, Pitch_bend_c, 1, 8192
3, 548928, Pitch_bend_c, 1, 8192
3, 548979, Pitch_bend_c, 1, 8192
3, 549024, Pitch_bend_c, 1, 8192
3, 549068, Pitch_bend_c, 1, 8192
3, 549120, Pitch_bend_c, 1, 9600
3, 549888, Pitch_bend_c, 1, 9600
3, 550502, Pitch_bend_c, 1, 9344
3, 550604, Pitch_bend_c, 1, 8832
3, 550707, Pitch_bend_c, 1, 8448
3, 550809, Pitch_bend_c, 1, 8320
3, 550912, Pitch_bend_c, 1, 8192
3, 551424, Note_off_c, 1, 77, 80
3, 551424, Pitch_bend_c, 1, 8192
3, 551424, Note_on_c, 1, 75, 79
3, 552192, Note_off_c, 1, 75, 80
3, 552192, Note_on_c, 1, 74, 79
3, 552192, Pitch_bend_c, 1, 8192
3, 552211, Pitch_bend_c, 1, 8192
3, 552230, Pitch_bend_c, 1, 8192
3, 552243, Pitch_bend_c, 1, 8192
3, 552262, Pitch_bend_c, 1, 8192
3, 552281, Pitch_bend_c, 1, 8192
3, 552300, Pitch_bend_c, 1, 8192
3, 552320, Pitch_bend_c, 1, 8192
3, 552332, Pitch_bend_c, 1, 8192
3, 552352, Pitch_bend_c, 1, 8192
3, 552371, Pitch_bend_c, 1, 8192
3, 552390, Pitch_bend_c, 1, 8192
3, 552409, Pitch_bend_c, 1, 8192
3, 552428, Pitch_bend_c, 1, 8192
3, 552441, Pitch_bend_c, 1, 8192
3, 552460, Pitch_bend_c, 1, 8192
3, 552480, Pitch_bend_c, 1, 8192
3, 552499, Pitch_bend_c, 1, 8192
3, 552518, Pitch_bend_c, 1, 8192
3, 552531, Pitch_bend_c, 1, 8192
3, 552550, Pitch_bend_c, 1, 8192
3, 552569, Pitch_bend_c, 1, 8192
3, 552588, Pitch_bend_c, 1, 8192
3, 552608, Pitch_bend_c, 1, 8192
3, 552627, Pitch_bend_c, 1, 8192
3, 552640, Pitch_bend_c, 1, 8192
3, 552659, Pitch_bend_c, 1, 8192
3, 552678, Pitch_bend_c, 1, 8192
3, 552697, Pitch_bend_c, 1, 8192
3, 552716, Pitch_bend_c, 1, 8192
3, 552729, Pitch_bend_c, 1, 8192
3, 552748, Pitch_bend_c, 1, 8192
3, 552768, Pitch_bend_c, 1, 8192
3, 552787, Pitch_bend_c, 1, 8192
3, 552806, Pitch_bend_c, 1, 8320
3, 552819, Pitch_bend_c, 1, 8320
3, 552838, Pitch_bend_c, 1, 8320
3, 552857, Pitch_bend_c, 1, 8448
3, 552876, Pitch_bend_c, 1, 8448
3, 552896, Pitch_bend_c, 1, 8448
3, 552908, Pitch_bend_c, 1, 8448
3, 552928, Pitch_bend_c, 1, 8448
3, 552947, Pitch_bend_c, 1, 8448
3, 552960, Pitch_bend_c, 1, 8192
3, 552979, Pitch_bend_c, 1, 8192
3, 552998, Pitch_bend_c, 1, 8192
3, 553011, Pitch_bend_c, 1, 8192
3, 553030, Pitch_bend_c, 1, 8192
3, 553049, Pitch_bend_c, 1, 8192
3, 553068, Pitch_bend_c, 1, 8192
3, 553088, Pitch_bend_c, 1, 8192
3, 553100, Pitch_bend_c, 1, 8192
3, 553120, Pitch_bend_c, 1, 8192
3, 553139, Pitch_bend_c, 1, 8192
3, 553158, Pitch_bend_c, 1, 8192
3, 553177, Pitch_bend_c, 1, 8192
3, 553196, Pitch_bend_c, 1, 8192
3, 553209, Pitch_bend_c, 1, 8192
3, 553228, Pitch_bend_c, 1, 8192
3, 553248, Pitch_bend_c, 1, 8192
3, 553267, Pitch_bend_c, 1, 8192
3, 553286, Pitch_bend_c, 1, 8192
3, 553299, Pitch_bend_c, 1, 8192
3, 553318, Pitch_bend_c, 1, 8192
3, 553337, Pitch_bend_c, 1, 8192
3, 553356, Pitch_bend_c, 1, 8192
3, 553376, Pitch_bend_c, 1, 8192
3, 553395, Pitch_bend_c, 1, 8192
3, 553408, Pitch_bend_c, 1, 8192
3, 553427, Pitch_bend_c, 1, 8192
3, 553446, Pitch_bend_c, 1, 8192
3, 553465, Pitch_bend_c, 1, 8192
3, 553484, Pitch_bend_c, 1, 8192
3, 553497, Pitch_bend_c, 1, 8192
3, 553516, Pitch_bend_c, 1, 8192
3, 553536, Pitch_bend_c, 1, 8192
3, 553555, Pitch_bend_c, 1, 8192
3, 553574, Pitch_bend_c, 1, 8320
3, 553587, Pitch_bend_c, 1, 8320
3, 553606, Pitch_bend_c, 1, 8320
3, 553625, Pitch_bend_c, 1, 8448
3, 553644, Pitch_bend_c, 1, 8448
3, 553664, Pitch_bend_c, 1, 8448
3, 553676, Pitch_bend_c, 1, 8448
3, 553696, Pitch_bend_c, 1, 8448
3, 553715, Pitch_bend_c, 1, 8448
3, 553734, Pitch_bend_c, 1, 8448
3, 553753, Pitch_bend_c, 1, 8320
3, 553772, Pitch_bend_c, 1, 8320
3, 553785, Pitch_bend_c, 1, 8320
3, 553804, Pitch_bend_c, 1, 8192
3, 553824, Pitch_bend_c, 1, 8192
3, 553843, Pitch_bend_c, 1, 8192
3, 553862, Pitch_bend_c, 1, 8064
3, 553875, Pitch_bend_c, 1, 8064
3, 553894, Pitch_bend_c, 1, 8064
3, 553913, Pitch_bend_c, 1, 7936
3, 553932, Pitch_bend_c, 1, 7936
3, 553952, Pitch_bend_c, 1, 7936
3, 553971, Pitch_bend_c, 1, 7936
3, 553984, Pitch_bend_c, 1, 7936
3, 554003, Pitch_bend_c, 1, 7936
3, 554022, Pitch_bend_c, 1, 7936
3, 554041, Pitch_bend_c, 1, 8064
3, 554060, Pitch_bend_c, 1, 8064
3, 554073, Pitch_bend_c, 1, 8064
3, 554092, Pitch_bend_c, 1, 8192
3, 554112, Pitch_bend_c, 1, 8192
3, 554131, Pitch_bend_c, 1, 8192
3, 554150, Pitch_bend_c, 1, 8320
3, 554163, Pitch_bend_c, 1, 8320
3, 554182, Pitch_bend_c, 1, 8320
3, 554201, Pitch_bend_c, 1, 8320
3, 554220, Pitch_bend_c, 1, 8448
3, 554240, Pitch_bend_c, 1, 8448
3, 554252, Pitch_bend_c, 1, 8448
3, 554272, Pitch_bend_c, 1, 8448
3, 554291, Pitch_bend_c, 1, 8448
3, 554310, Pitch_bend_c, 1, 8320
3, 554329, Pitch_bend_c, 1, 8320
3, 554348, Pitch_bend_c, 1, 8320
3, 554361, Pitch_bend_c, 1, 8320
3, 554380, Pitch_bend_c, 1, 8192
3, 554400, Pitch_bend_c, 1, 8192
3, 554419, Pitch_bend_c, 1, 8192
3, 554438, Pitch_bend_c, 1, 8064
3, 554451, Pitch_bend_c, 1, 8064
3, 554470, Pitch_bend_c, 1, 8064
3, 554489, Pitch_bend_c, 1, 8064
3, 554508, Pitch_bend_c, 1, 7936
3, 554528, Pitch_bend_c, 1, 7936
3, 554547, Pitch_bend_c, 1, 7936
3, 554560, Pitch_bend_c, 1, 7936
3, 554579, Pitch_bend_c, 1, 7936
3, 554598, Pitch_bend_c, 1, 8064
3, 554617, Pitch_bend_c, 1, 8064
3, 554636, Pitch_bend_c, 1, 8064
3, 554649, Pitch_bend_c, 1, 8064
3, 554668, Pitch_bend_c, 1, 8192
3, 554688, Pitch_bend_c, 1, 8192
3, 554707, Pitch_bend_c, 1, 8192
3, 554726, Pitch_bend_c, 1, 8320
3, 554739, Pitch_bend_c, 1, 8320
3, 554758, Pitch_bend_c, 1, 8320
3, 554777, Pitch_bend_c, 1, 8448
3, 554796, Pitch_bend_c, 1, 8448
3, 554816, Pitch_bend_c, 1, 8448
3, 554828, Pitch_bend_c, 1, 8448
3, 554848, Pitch_bend_c, 1, 8448
3, 554867, Pitch_bend_c, 1, 8448
3, 554886, Pitch_bend_c, 1, 8448
3, 554905, Pitch_bend_c, 1, 8320
3, 554924, Pitch_bend_c, 1, 8320
3, 554937, Pitch_bend_c, 1, 8320
3, 554956, Pitch_bend_c, 1, 8192
3, 554976, Pitch_bend_c, 1, 8192
3, 554995, Pitch_bend_c, 1, 8192
3, 555014, Pitch_bend_c, 1, 8064
3, 555027, Pitch_bend_c, 1, 8064
3, 555046, Pitch_bend_c, 1, 8064
3, 555065, Pitch_bend_c, 1, 7936
3, 555084, Pitch_bend_c, 1, 7936
3, 555104, Pitch_bend_c, 1, 7936
3, 555123, Pitch_bend_c, 1, 7936
3, 555136, Pitch_bend_c, 1, 7936
3, 555155, Pitch_bend_c, 1, 7936
3, 555174, Pitch_bend_c, 1, 7936
3, 555193, Pitch_bend_c, 1, 8064
3, 555212, Pitch_bend_c, 1, 8064
3, 555225, Pitch_bend_c, 1, 8064
3, 555244, Pitch_bend_c, 1, 8192
3, 555264, Pitch_bend_c, 1, 8192
3, 555283, Pitch_bend_c, 1, 8192
3, 555302, Pitch_bend_c, 1, 8320
3, 555315, Pitch_bend_c, 1, 8320
3, 555334, Pitch_bend_c, 1, 8320
3, 555353, Pitch_bend_c, 1, 8448
3, 555372, Pitch_bend_c, 1, 8448
3, 555392, Pitch_bend_c, 1, 8448
3, 555404, Pitch_bend_c, 1, 8448
3, 555424, Pitch_bend_c, 1, 8448
3, 555443, Pitch_bend_c, 1, 8448
3, 555462, Pitch_bend_c, 1, 8448
3, 555481, Pitch_bend_c, 1, 8320
3, 555500, Pitch_bend_c, 1, 8320
3, 555513, Pitch_bend_c, 1, 8320
3, 555532, Pitch_bend_c, 1, 8192
3, 555552, Pitch_bend_c, 1, 8192
3, 555571, Pitch_bend_c, 1, 8192
3, 555590, Pitch_bend_c, 1, 8064
3, 555603, Pitch_bend_c, 1, 8064
3, 555622, Pitch_bend_c, 1, 8064
3, 555641, Pitch_bend_c, 1, 7936
3, 555660, Pitch_bend_c, 1, 7936
3, 555680, Pitch_bend_c, 1, 7936
3, 555699, Pitch_bend_c, 1, 7936
3, 555712, Pitch_bend_c, 1, 7936
3, 555731, Pitch_bend_c, 1, 7936
3, 555750, Pitch_bend_c, 1, 7936
3, 555769, Pitch_bend_c, 1, 8064
3, 555788, Pitch_bend_c, 1, 8064
3, 555801, Pitch_bend_c, 1, 8064
3, 555820, Pitch_bend_c, 1, 8192
3, 555840, Pitch_bend_c, 1, 8192
3, 555859, Pitch_bend_c, 1, 8192
3, 555878, Pitch_bend_c, 1, 8192
3, 555891, Pitch_bend_c, 1, 8192
3, 555910, Pitch_bend_c, 1, 8192
3, 555929, Pitch_bend_c, 1, 8192
3, 555948, Pitch_bend_c, 1, 8192
3, 555968, Pitch_bend_c, 1, 8192
3, 555980, Pitch_bend_c, 1, 8192
3, 556000, Pitch_bend_c, 1, 8192
3, 556019, Pitch_bend_c, 1, 8192
3, 556032, Note_off_c, 1, 74, 80
3, 556032, Pitch_bend_c, 1, 8192
3, 556032, Note_on_c, 1, 84, 79
3, 556032, Note_on_c, 1, 81, 79
3, 556083, Pitch_bend_c, 1, 8192
3, 556128, Pitch_bend_c, 1, 8192
3, 556172, Pitch_bend_c, 1, 8192
3, 556224, Pitch_bend_c, 1, 8192
3, 556275, Pitch_bend_c, 1, 8192
3, 556320, Pitch_bend_c, 1, 8192
3, 556364, Pitch_bend_c, 1, 8192
3, 556416, Pitch_bend_c, 1, 8192
3, 556467, Pitch_bend_c, 1, 8192
3, 556512, Pitch_bend_c, 1, 8192
3, 556556, Pitch_bend_c, 1, 8192
3, 556608, Pitch_bend_c, 1, 8192
3, 556659, Pitch_bend_c, 1, 8192
3, 556704, Pitch_bend_c, 1, 8192
3, 556748, Pitch_bend_c, 1, 8192
3, 556800, Pitch_bend_c, 1, 9600
3, 557414, Pitch_bend_c, 1, 9344
3, 557516, Pitch_bend_c, 1, 8832
3, 557619, Pitch_bend_c, 1, 8448
3, 557721, Pitch_bend_c, 1, 8320
3, 557824, Pitch_bend_c, 1, 8192
3, 558336, Note_off_c, 1, 81, 80
3, 558336, Note_off_c, 1, 84, 80
3, 558336, Pitch_bend_c, 1, 8192
3, 558336, Note_on_c, 1, 82, 79
3, 558336, Note_on_c, 1, 79, 79
3, 559104, Note_off_c, 1, 82, 80
3, 559104, Note_off_c, 1, 79, 80
3, 559104, Note_on_c, 1, 81, 79
3, 559104, Pitch_bend_c, 1, 8192
3, 559104, Note_on_c, 1, 78, 79
3, 559123, Pitch_bend_c, 1, 8192
3, 559142, Pitch_bend_c, 1, 8192
3, 559155, Pitch_bend_c, 1, 8192
3, 559174, Pitch_bend_c, 1, 8192
3, 559193, Pitch_bend_c, 1, 8192
3, 559212, Pitch_bend_c, 1, 8192
3, 559232, Pitch_bend_c, 1, 8192
3, 559244, Pitch_bend_c, 1, 8192
3, 559264, Pitch_bend_c, 1, 8192
3, 559283, Pitch_bend_c, 1, 8192
3, 559302, Pitch_bend_c, 1, 8192
3, 559321, Pitch_bend_c, 1, 8192
3, 559340, Pitch_bend_c, 1, 8192
3, 559353, Pitch_bend_c, 1, 8192
3, 559372, Pitch_bend_c, 1, 8192
3, 559392, Pitch_bend_c, 1, 8192
3, 559411, Pitch_bend_c, 1, 8192
3, 559430, Pitch_bend_c, 1, 8192
3, 559443, Pitch_bend_c, 1, 8192
3, 559462, Pitch_bend_c, 1, 8192
3, 559481, Pitch_bend_c, 1, 8192
3, 559500, Pitch_bend_c, 1, 8192
3, 559520, Pitch_bend_c, 1, 8192
3, 559539, Pitch_bend_c, 1, 8192
3, 559552, Pitch_bend_c, 1, 8192
3, 559571, Pitch_bend_c, 1, 8192
3, 559590, Pitch_bend_c, 1, 8192
3, 559609, Pitch_bend_c, 1, 8192
3, 559628, Pitch_bend_c, 1, 8192
3, 559641, Pitch_bend_c, 1, 8192
3, 559660, Pitch_bend_c, 1, 8192
3, 559680, Pitch_bend_c, 1, 8192
3, 559699, Pitch_bend_c, 1, 8192
3, 559718, Pitch_bend_c, 1, 8320
3, 559731, Pitch_bend_c, 1, 8320
3, 559750, Pitch_bend_c, 1, 8320
3, 559769, Pitch_bend_c, 1, 8448
3, 559788, Pitch_bend_c, 1, 8448
3, 559808, Pitch_bend_c, 1, 8448
3, 559820, Pitch_bend_c, 1, 8448
3, 559840, Pitch_bend_c, 1, 8448
3, 559859, Pitch_bend_c, 1, 8448
3, 559878, Pitch_bend_c, 1, 8448
3, 559897, Pitch_bend_c, 1, 8320
3, 559916, Pitch_bend_c, 1, 8320
3, 559929, Pitch_bend_c, 1, 8320
3, 559948, Pitch_bend_c, 1, 8192
3, 559968, Pitch_bend_c, 1, 8192
3, 559987, Pitch_bend_c, 1, 8192
3, 560006, Pitch_bend_c, 1, 8064
3, 560019, Pitch_bend_c, 1, 8064
3, 560038, Pitch_bend_c, 1, 8064
3, 560057, Pitch_bend_c, 1, 7936
3, 560076, Pitch_bend_c, 1, 7936
3, 560096, Pitch_bend_c, 1, 7936
3, 560115, Pitch_bend_c, 1, 7936
3, 560128, Pitch_bend_c, 1, 7936
3, 560147, Pitch_bend_c, 1, 7936
3, 560166, Pitch_bend_c, 1, 7936
3, 560185, Pitch_bend_c, 1, 8064
3, 560204, Pitch_bend_c, 1, 8064
3, 560217, Pitch_bend_c, 1, 8064
3, 560236, Pitch_bend_c, 1, 8192
3, 560256, Pitch_bend_c, 1, 8192
3, 560275, Pitch_bend_c, 1, 8192
3, 560294, Pitch_bend_c, 1, 8320
3, 560307, Pitch_bend_c, 1, 8320
3, 560326, Pitch_bend_c, 1, 8320
3, 560345, Pitch_bend_c, 1, 8448
3, 560364, Pitch_bend_c, 1, 8448
3, 560384, Pitch_bend_c, 1, 8448
3, 560396, Pitch_bend_c, 1, 8448
3, 560416, Pitch_bend_c, 1, 8448
3, 560435, Pitch_bend_c, 1, 8448
3, 560454, Pitch_bend_c, 1, 8448
3, 560473, Pitch_bend_c, 1, 8320
3, 560492, Pitch_bend_c, 1, 8320
3, 560505, Pitch_bend_c, 1, 8320
3, 560524, Pitch_bend_c, 1, 8192
3, 560544, Pitch_bend_c, 1, 8192
3, 560563, Pitch_bend_c, 1, 8192
3, 560582, Pitch_bend_c, 1, 8064
3, 560595, Pitch_bend_c, 1, 8064
3, 560614, Pitch_bend_c, 1, 8064
3, 560633, Pitch_bend_c, 1, 7936
3, 560652, Pitch_bend_c, 1, 7936
3, 560672, Pitch_bend_c, 1, 7936
3, 560691, Pitch_bend_c, 1, 7936
3, 560704, Pitch_bend_c, 1, 7936
3, 560723, Pitch_bend_c, 1, 7936
3, 560742, Pitch_bend_c, 1, 7936
3, 560761, Pitch_bend_c, 1, 8064
3, 560780, Pitch_bend_c, 1, 8064
3, 560793, Pitch_bend_c, 1, 8064
3, 560812, Pitch_bend_c, 1, 8192
3, 560832, Pitch_bend_c, 1, 8192
3, 560851, Pitch_bend_c, 1, 8192
3, 560870, Pitch_bend_c, 1, 8320
3, 560883, Pitch_bend_c, 1, 8320
3, 560902, Pitch_bend_c, 1, 8448
3, 560921, Pitch_bend_c, 1, 8448
3, 560940, Pitch_bend_c, 1, 8448
3, 560960, Pitch_bend_c, 1, 8448
3, 560972, Pitch_bend_c, 1, 8448
3, 560992, Pitch_bend_c, 1, 8448
3, 561011, Pitch_bend_c, 1, 8448
3, 561030, Pitch_bend_c, 1, 8448
3, 561049, Pitch_bend_c, 1, 8448
3, 561068, Pitch_bend_c, 1, 8320
3, 561081, Pitch_bend_c, 1, 8320
3, 561100, Pitch_bend_c, 1, 8192
3, 561120, Pitch_bend_c, 1, 8192
3, 561139, Pitch_bend_c, 1, 8192
3, 561158, Pitch_bend_c, 1, 8064
3, 561171, Pitch_bend_c, 1, 8064
3, 561190, Pitch_bend_c, 1, 7936
3, 561209, Pitch_bend_c, 1, 7936
3, 561228, Pitch_bend_c, 1, 7936
3, 561248, Pitch_bend_c, 1, 7936
3, 561267, Pitch_bend_c, 1, 7936
3, 561280, Pitch_bend_c, 1, 7936
3, 561299, Pitch_bend_c, 1, 7936
3, 561318, Pitch_bend_c, 1, 7936
3, 561337, Pitch_bend_c, 1, 7936
3, 561356, Pitch_bend_c, 1, 8064
3, 561369, Pitch_bend_c, 1, 8064
3, 561388, Pitch_bend_c, 1, 8192
3, 561408, Pitch_bend_c, 1, 8192
3, 561427, Pitch_bend_c, 1, 8192
3, 561446, Pitch_bend_c, 1, 8320
3, 561459, Pitch_bend_c, 1, 8320
3, 561478, Pitch_bend_c, 1, 8320
3, 561497, Pitch_bend_c, 1, 8448
3, 561516, Pitch_bend_c, 1, 8448
3, 561536, Pitch_bend_c, 1, 8448
3, 561548, Pitch_bend_c, 1, 8448
3, 561568, Pitch_bend_c, 1, 8448
3, 561587, Pitch_bend_c, 1, 8448
3, 561606, Pitch_bend_c, 1, 8448
3, 561625, Pitch_bend_c, 1, 8320
3, 561644, Pitch_bend_c, 1, 8320
3, 561657, Pitch_bend_c, 1, 8320
3, 561676, Pitch_bend_c, 1, 8192
3, 561696, Pitch_bend_c, 1, 8192
3, 561715, Pitch_bend_c, 1, 8192
3, 561734, Pitch_bend_c, 1, 8064
3, 561747, Pitch_bend_c, 1, 8064
3, 561766, Pitch_bend_c, 1, 8064
3, 561785, Pitch_bend_c, 1, 7936
3, 561804, Pitch_bend_c, 1, 7936
3, 561824, Pitch_bend_c, 1, 7936
3, 561843, Pitch_bend_c, 1, 7936
3, 561856, Pitch_bend_c, 1, 7936
3, 561875, Pitch_bend_c, 1, 7936
3, 561894, Pitch_bend_c, 1, 7936
3, 561913, Pitch_bend_c, 1, 8064
3, 561932, Pitch_bend_c, 1, 8064
3, 561945, Pitch_bend_c, 1, 8064
3, 561964, Pitch_bend_c, 1, 8192
3, 561984, Pitch_bend_c, 1, 8192
3, 562003, Pitch_bend_c, 1, 8192
3, 562022, Pitch_bend_c, 1, 8192
3, 562035, Pitch_bend_c, 1, 8320
3, 562054, Pitch_bend_c, 1, 8320
3, 562073, Pitch_bend_c, 1, 8320
3, 562092, Pitch_bend_c, 1, 8320
3, 562112, Pitch_bend_c, 1, 8320
3, 562124, Pitch_bend_c, 1, 8320
3, 562144, Pitch_bend_c, 1, 8320
3, 562163, Pitch_bend_c, 1, 8320
3, 562176, Note_off_c, 1, 78, 80
3, 562176, Note_off_c, 1, 81, 80
3, 562176, Pitch_bend_c, 1, 8192
3, 562176, Note_on_c, 1, 78, 79
3, 562176, Note_on_c, 1, 74, 79
3, 562195, Pitch_bend_c, 1, 8192
3, 562214, Pitch_bend_c, 1, 8192
3, 562227, Pitch_bend_c, 1, 8192
3, 562246, Pitch_bend_c, 1, 8192
3, 562265, Pitch_bend_c, 1, 8192
3, 562284, Pitch_bend_c, 1, 8064
3, 562304, Pitch_bend_c, 1, 8064
3, 562316, Pitch_bend_c, 1, 8064
3, 562336, Pitch_bend_c, 1, 8064
3, 562355, Pitch_bend_c, 1, 8064
3, 562374, Pitch_bend_c, 1, 8192
3, 562393, Pitch_bend_c, 1, 8192
3, 562412, Pitch_bend_c, 1, 8192
3, 562425, Pitch_bend_c, 1, 8192
3, 562444, Pitch_bend_c, 1, 8192
3, 562464, Pitch_bend_c, 1, 8192
3, 562483, Pitch_bend_c, 1, 8192
3, 562502, Pitch_bend_c, 1, 8192
3, 562515, Pitch_bend_c, 1, 8192
3, 562534, Pitch_bend_c, 1, 8192
3, 562553, Pitch_bend_c, 1, 8192
3, 562572, Pitch_bend_c, 1, 8320
3, 562592, Pitch_bend_c, 1, 8320
3, 562611, Pitch_bend_c, 1, 8320
3, 562624, Pitch_bend_c, 1, 8320
3, 562643, Pitch_bend_c, 1, 8320
3, 562662, Pitch_bend_c, 1, 8192
3, 562681, Pitch_bend_c, 1, 8192
3, 562700, Pitch_bend_c, 1, 8192
3, 562713, Pitch_bend_c, 1, 8192
3, 562732, Pitch_bend_c, 1, 8192
3, 562752, Pitch_bend_c, 1, 8192
3, 562771, Pitch_bend_c, 1, 8192
3, 562790, Pitch_bend_c, 1, 8320
3, 562803, Pitch_bend_c, 1, 8320
3, 562822, Pitch_bend_c, 1, 8320
3, 562841, Pitch_bend_c, 1, 8448
3, 562860, Pitch_bend_c, 1, 8448
3, 562880, Pitch_bend_c, 1, 8448
3, 562892, Pitch_bend_c, 1, 8448
3, 562912, Pitch_bend_c, 1, 8448
3, 562931, Pitch_bend_c, 1, 8448
3, 562950, Pitch_bend_c, 1, 8448
3, 562969, Pitch_bend_c, 1, 8320
3, 562988, Pitch_bend_c, 1, 8320
3, 563001, Pitch_bend_c, 1, 8320
3, 563020, Pitch_bend_c, 1, 8192
3, 563040, Pitch_bend_c, 1, 8192
3, 563059, Pitch_bend_c, 1, 8192
3, 563078, Pitch_bend_c, 1, 8064
3, 563091, Pitch_bend_c, 1, 8064
3, 563110, Pitch_bend_c, 1, 8064
3, 563129, Pitch_bend_c, 1, 7936
3, 563148, Pitch_bend_c, 1, 7936
3, 563168, Pitch_bend_c, 1, 7936
3, 563187, Pitch_bend_c, 1, 7936
3, 563200, Pitch_bend_c, 1, 7936
3, 563219, Pitch_bend_c, 1, 7936
3, 563238, Pitch_bend_c, 1, 7936
3, 563257, Pitch_bend_c, 1, 8064
3, 563276, Pitch_bend_c, 1, 8064
3, 563289, Pitch_bend_c, 1, 8064
3, 563308, Pitch_bend_c, 1, 8192
3, 563328, Pitch_bend_c, 1, 8192
3, 563347, Pitch_bend_c, 1, 8192
3, 563366, Pitch_bend_c, 1, 8320
3, 563379, Pitch_bend_c, 1, 8320
3, 563398, Pitch_bend_c, 1, 8320
3, 563417, Pitch_bend_c, 1, 8448
3, 563436, Pitch_bend_c, 1, 8448
3, 563456, Pitch_bend_c, 1, 8448
3, 563468, Pitch_bend_c, 1, 8448
3, 563488, Pitch_bend_c, 1, 8448
3, 563507, Pitch_bend_c, 1, 8448
3, 563526, Pitch_bend_c, 1, 8448
3, 563545, Pitch_bend_c, 1, 8320
3, 563564, Pitch_bend_c, 1, 8320
3, 563577, Pitch_bend_c, 1, 8320
3, 563596, Pitch_bend_c, 1, 8192
3, 563616, Pitch_bend_c, 1, 8192
3, 563635, Pitch_bend_c, 1, 8192
3, 563654, Pitch_bend_c, 1, 8064
3, 563667, Pitch_bend_c, 1, 8064
3, 563686, Pitch_bend_c, 1, 8064
3, 563705, Pitch_bend_c, 1, 7936
3, 563724, Pitch_bend_c, 1, 7936
3, 563744, Pitch_bend_c, 1, 7936
3, 563763, Pitch_bend_c, 1, 7936
3, 563776, Pitch_bend_c, 1, 7936
3, 563795, Pitch_bend_c, 1, 7936
3, 563814, Pitch_bend_c, 1, 7936
3, 563833, Pitch_bend_c, 1, 8064
3, 563852, Pitch_bend_c, 1, 8064
3, 563865, Pitch_bend_c, 1, 8064
3, 563884, Pitch_bend_c, 1, 8192
3, 563904, Pitch_bend_c, 1, 8192
3, 563923, Pitch_bend_c, 1, 8192
3, 563942, Pitch_bend_c, 1, 8320
3, 563955, Pitch_bend_c, 1, 8320
3, 563974, Pitch_bend_c, 1, 8320
3, 563993, Pitch_bend_c, 1, 8320
3, 564012, Pitch_bend_c, 1, 8448
3, 564032, Pitch_bend_c, 1, 8448
3, 564044, Pitch_bend_c, 1, 8448
3, 564064, Pitch_bend_c, 1, 8448
3, 564083, Pitch_bend_c, 1, 8448
3, 564102, Pitch_bend_c, 1, 8320
3, 564121, Pitch_bend_c, 1, 8320
3, 564140, Pitch_bend_c, 1, 8320
3, 564153, Pitch_bend_c, 1, 8320
3, 564172, Pitch_bend_c, 1, 8192
3, 564192, Pitch_bend_c, 1, 8192
3, 564211, Pitch_bend_c, 1, 8192
3, 564230, Pitch_bend_c, 1, 8064
3, 564243, Pitch_bend_c, 1, 8064
3, 564262, Pitch_bend_c, 1, 8064
3, 564281, Pitch_bend_c, 1, 8064
3, 564300, Pitch_bend_c, 1, 7936
3, 564320, Pitch_bend_c, 1, 7936
3, 564339, Pitch_bend_c, 1, 7936
3, 564352, Pitch_bend_c, 1, 7936
3, 564371, Pitch_bend_c, 1, 7936
3, 564390, Pitch_bend_c, 1, 8064
3, 564409, Pitch_bend_c, 1, 8064
3, 564428, Pitch_bend_c, 1, 8064
3, 564441, Pitch_bend_c, 1, 8064
3, 564460, Pitch_bend_c, 1, 8192
3, 564480, Pitch_bend_c, 1, 8192
3, 564499, Pitch_bend_c, 1, 8192
3, 564518, Pitch_bend_c, 1, 8320
3, 564531, Pitch_bend_c, 1, 8320
3, 564550, Pitch_bend_c, 1, 8320
3, 564569, Pitch_bend_c, 1, 8320
3, 564588, Pitch_bend_c, 1, 8448
3, 564608, Pitch_bend_c, 1, 8448
3, 564620, Pitch_bend_c, 1, 8448
3, 564640, Pitch_bend_c, 1, 8448
3, 564659, Pitch_bend_c, 1, 8448
3, 564672, Pitch_bend_c, 1, 7552
3, 564678, Pitch_bend_c, 1, 8320
3, 564697, Pitch_bend_c, 1, 8320
3, 564716, Pitch_bend_c, 1, 8320
3, 564729, Pitch_bend_c, 1, 8320
3, 564748, Pitch_bend_c, 1, 8192
3, 564755, Pitch_bend_c, 1, 6784
3, 564768, Pitch_bend_c, 1, 8192
3, 564787, Pitch_bend_c, 1, 8192
3, 564806, Pitch_bend_c, 1, 8064
3, 564819, Pitch_bend_c, 1, 8064
3, 564838, Pitch_bend_c, 1, 8064
3, 564857, Pitch_bend_c, 1, 8064
3, 564876, Pitch_bend_c, 1, 7936
3, 564896, Pitch_bend_c, 1, 7936
3, 564915, Pitch_bend_c, 1, 7936
3, 564921, Pitch_bend_c, 1, 5504
3, 564928, Pitch_bend_c, 1, 7936
3, 564947, Pitch_bend_c, 1, 7936
3, 564966, Pitch_bend_c, 1, 8064
3, 564985, Pitch_bend_c, 1, 8064
3, 564998, Pitch_bend_c, 1, 4736
3, 565004, Pitch_bend_c, 1, 8064
3, 565017, Pitch_bend_c, 1, 8064
3, 565036, Pitch_bend_c, 1, 8192
3, 565056, Pitch_bend_c, 1, 8192
3, 565075, Pitch_bend_c, 1, 8192
3, 565081, Pitch_bend_c, 1, 4096
3, 565094, Pitch_bend_c, 1, 8320
3, 565107, Pitch_bend_c, 1, 8320
3, 565126, Pitch_bend_c, 1, 8320
3, 565145, Pitch_bend_c, 1, 8320
3, 565164, Pitch_bend_c, 1, 8320
3, 565184, Pitch_bend_c, 1, 8320
3, 565196, Pitch_bend_c, 1, 8320
3, 565216, Pitch_bend_c, 1, 8320
3, 565235, Pitch_bend_c, 1, 8320
3, 565248, Note_off_c, 1, 78, 80
3, 565248, Note_off_c, 1, 74, 80
3, 565248, Pitch_bend_c, 1, 8192
3, 565248, Note_on_c, 1, 79, 79
3, 565248, Note_on_c, 1, 67, 79
3, 565267, Pitch_bend_c, 1, 8192
3, 565286, Pitch_bend_c, 1, 8192
3, 565299, Pitch_bend_c, 1, 8192
3, 565318, Pitch_bend_c, 1, 8192
3, 565337, Pitch_bend_c, 1, 8192
3, 565356, Pitch_bend_c, 1, 8192
3, 565376, Pitch_bend_c, 1, 8192
3, 565388, Pitch_bend_c, 1, 8192
3, 565408, Pitch_bend_c, 1, 8192
3, 565427, Pitch_bend_c, 1, 8192
3, 565446, Pitch_bend_c, 1, 8192
3, 565465, Pitch_bend_c, 1, 8192
3, 565484, Pitch_bend_c, 1, 8192
3, 565497, Pitch_bend_c, 1, 8192
3, 565516, Pitch_bend_c, 1, 8192
3, 565536, Pitch_bend_c, 1, 8192
3, 565555, Pitch_bend_c, 1, 8192
3, 565574, Pitch_bend_c, 1, 8192
3, 565587, Pitch_bend_c, 1, 8192
3, 565606, Pitch_bend_c, 1, 8192
3, 565625, Pitch_bend_c, 1, 8192
3, 565644, Pitch_bend_c, 1, 8192
3, 565664, Pitch_bend_c, 1, 8192
3, 565683, Pitch_bend_c, 1, 8192
3, 565696, Pitch_bend_c, 1, 8192
3, 565715, Pitch_bend_c, 1, 8192
3, 565734, Pitch_bend_c, 1, 8192
3, 565753, Pitch_bend_c, 1, 8192
3, 565772, Pitch_bend_c, 1, 8192
3, 565785, Pitch_bend_c, 1, 8192
3, 565804, Pitch_bend_c, 1, 8192
3, 565824, Pitch_bend_c, 1, 8192
3, 565843, Pitch_bend_c, 1, 8192
3, 565862, Pitch_bend_c, 1, 8320
3, 565875, Pitch_bend_c, 1, 8320
3, 565894, Pitch_bend_c, 1, 8320
3, 565913, Pitch_bend_c, 1, 8320
3, 565932, Pitch_bend_c, 1, 8320
3, 565952, Pitch_bend_c, 1, 8320
3, 565964, Pitch_bend_c, 1, 8320
3, 565984, Pitch_bend_c, 1, 8320
3, 566003, Pitch_bend_c, 1, 8320
3, 566022, Pitch_bend_c, 1, 8320
3, 566041, Pitch_bend_c, 1, 8320
3, 566060, Pitch_bend_c, 1, 8320
3, 566073, Pitch_bend_c, 1, 8320
3, 566092, Pitch_bend_c, 1, 8192
3, 566112, Pitch_bend_c, 1, 8192
3, 566131, Pitch_bend_c, 1, 8192
3, 566150, Pitch_bend_c, 1, 8064
3, 566163, Pitch_bend_c, 1, 8064
3, 566182, Pitch_bend_c, 1, 8064
3, 566201, Pitch_bend_c, 1, 8064
3, 566220, Pitch_bend_c, 1, 8064
3, 566240, Pitch_bend_c, 1, 8064
3, 566259, Pitch_bend_c, 1, 8064
3, 566272, Pitch_bend_c, 1, 8064
3, 566291, Pitch_bend_c, 1, 8064
3, 566310, Pitch_bend_c, 1, 8064
3, 566329, Pitch_bend_c, 1, 8064
3, 566348, Pitch_bend_c, 1, 8064
3, 566361, Pitch_bend_c, 1, 8064
3, 566380, Pitch_bend_c, 1, 8192
3, 566400, Pitch_bend_c, 1, 8192
3, 566419, Pitch_bend_c, 1, 8192
3, 566438, Pitch_bend_c, 1, 8320
3, 566451, Pitch_bend_c, 1, 8320
3, 566470, Pitch_bend_c, 1, 8320
3, 566489, Pitch_bend_c, 1, 8320
3, 566508, Pitch_bend_c, 1, 8320
3, 566528, Pitch_bend_c, 1, 8320
3, 566540, Pitch_bend_c, 1, 8320
3, 566560, Pitch_bend_c, 1, 8320
3, 566579, Pitch_bend_c, 1, 8320
3, 566598, Pitch_bend_c, 1, 8320
3, 566617, Pitch_bend_c, 1, 8320
3, 566636, Pitch_bend_c, 1, 8320
3, 566649, Pitch_bend_c, 1, 8320
3, 566668, Pitch_bend_c, 1, 8192
3, 566688, Pitch_bend_c, 1, 8192
3, 566707, Pitch_bend_c, 1, 8192
3, 566726, Pitch_bend_c, 1, 8064
3, 566739, Pitch_bend_c, 1, 8064
3, 566758, Pitch_bend_c, 1, 8064
3, 566777, Pitch_bend_c, 1, 8064
3, 566796, Pitch_bend_c, 1, 8064
3, 566816, Pitch_bend_c, 1, 8064
3, 566835, Pitch_bend_c, 1, 8064
3, 566848, Pitch_bend_c, 1, 8064
3, 566867, Pitch_bend_c, 1, 8064
3, 566886, Pitch_bend_c, 1, 8064
3, 566905, Pitch_bend_c, 1, 8064
3, 566924, Pitch_bend_c, 1, 8064
3, 566937, Pitch_bend_c, 1, 8064
3, 566956, Pitch_bend_c, 1, 8192
3, 566976, Pitch_bend_c, 1, 8192
3, 566995, Pitch_bend_c, 1, 8192
3, 567014, Pitch_bend_c, 1, 8320
3, 567027, Pitch_bend_c, 1, 8320
3, 567046, Pitch_bend_c, 1, 8320
3, 567065, Pitch_bend_c, 1, 8320
3, 567084, Pitch_bend_c, 1, 8448
3, 567104, Pitch_bend_c, 1, 8448
3, 567116, Pitch_bend_c, 1, 8448
3, 567136, Pitch_bend_c, 1, 8448
3, 567155, Pitch_bend_c, 1, 8448
3, 567174, Pitch_bend_c, 1, 8320
3, 567193, Pitch_bend_c, 1, 8320
3, 567212, Pitch_bend_c, 1, 8320
3, 567225, Pitch_bend_c, 1, 8320
3, 567244, Pitch_bend_c, 1, 8192
3, 567264, Pitch_bend_c, 1, 8192
3, 567283, Pitch_bend_c, 1, 8192
3, 567302, Pitch_bend_c, 1, 8064
3, 567315, Pitch_bend_c, 1, 8064
3, 567334, Pitch_bend_c, 1, 8064
3, 567353, Pitch_bend_c, 1, 8064
3, 567372, Pitch_bend_c, 1, 7936
3, 567392, Pitch_bend_c, 1, 7936
3, 567411, Pitch_bend_c, 1, 7936
3, 567424, Pitch_bend_c, 1, 7936
3, 567443, Pitch_bend_c, 1, 7936
3, 567462, Pitch_bend_c, 1, 8064
3, 567481, Pitch_bend_c, 1, 8064
3, 567500, Pitch_bend_c, 1, 8064
3, 567513, Pitch_bend_c, 1, 8064
3, 567532, Pitch_bend_c, 1, 8192
3, 567552, Pitch_bend_c, 1, 8192
3, 567571, Pitch_bend_c, 1, 8192
3, 567590, Pitch_bend_c, 1, 8320
3, 567603, Pitch_bend_c, 1, 8320
3, 567622, Pitch_bend_c, 1, 8320
3, 567641, Pitch_bend_c, 1, 8320
3, 567660, Pitch_bend_c, 1, 8448
3, 567680, Pitch_bend_c, 1, 8448
3, 567692, Pitch_bend_c, 1, 8448
3, 567712, Pitch_bend_c, 1, 8448
3, 567731, Pitch_bend_c, 1, 8448
3, 567750, Pitch_bend_c, 1, 8320
3, 567769, Pitch_bend_c, 1, 8320
3, 567788, Pitch_bend_c, 1, 8320
3, 567801, Pitch_bend_c, 1, 8320
3, 567820, Pitch_bend_c, 1, 8192
3, 567840, Pitch_bend_c, 1, 8192
3, 567859, Pitch_bend_c, 1, 8192
3, 567878, Pitch_bend_c, 1, 8064
3, 567891, Pitch_bend_c, 1, 8064
3, 567910, Pitch_bend_c, 1, 8064
3, 567929, Pitch_bend_c, 1, 8064
3, 567948, Pitch_bend_c, 1, 7936
3, 567968, Pitch_bend_c, 1, 7936
3, 567987, Pitch_bend_c, 1, 7936
3, 568000, Pitch_bend_c, 1, 7936
3, 568019, Pitch_bend_c, 1, 7936
3, 568038, Pitch_bend_c, 1, 8064
3, 568057, Pitch_bend_c, 1, 8064
3, 568076, Pitch_bend_c, 1, 8064
3, 568089, Pitch_bend_c, 1, 8064
3, 568108, Pitch_bend_c, 1, 8192
3, 568128, Pitch_bend_c, 1, 8192
3, 568147, Pitch_bend_c, 1, 8192
3, 568166, Pitch_bend_c, 1, 8320
3, 568179, Pitch_bend_c, 1, 8320
3, 568198, Pitch_bend_c, 1, 8320
3, 568217, Pitch_bend_c, 1, 8448
3, 568236, Pitch_bend_c, 1, 8448
3, 568256, Pitch_bend_c, 1, 8448
3, 568268, Pitch_bend_c, 1, 8448
3, 568288, Pitch_bend_c, 1, 8448
3, 568307, Pitch_bend_c, 1, 8448
3, 568326, Pitch_bend_c, 1, 8448
3, 568345, Pitch_bend_c, 1, 8320
3, 568364, Pitch_bend_c, 1, 8320
3, 568377, Pitch_bend_c, 1, 8320
3, 568396, Pitch_bend_c, 1, 8192
3, 568416, Pitch_bend_c, 1, 8192
3, 568435, Pitch_bend_c, 1, 8192
3, 568454, Pitch_bend_c, 1, 8064
3, 568467, Pitch_bend_c, 1, 8064
3, 568486, Pitch_bend_c, 1, 8064
3, 568505, Pitch_bend_c, 1, 7936
3, 568524, Pitch_bend_c, 1, 7936
3, 568544, Pitch_bend_c, 1, 7936
3, 568563, Pitch_bend_c, 1, 7936
3, 568576, Pitch_bend_c, 1, 7936
3, 568595, Pitch_bend_c, 1, 7936
3, 568614, Pitch_bend_c, 1, 7936
3, 568633, Pitch_bend_c, 1, 8064
3, 568652, Pitch_bend_c, 1, 8064
3, 568665, Pitch_bend_c, 1, 8064
3, 568684, Pitch_bend_c, 1, 8192
3, 568704, Pitch_bend_c, 1, 8192
3, 568723, Pitch_bend_c, 1, 8320
3, 568742, Pitch_bend_c, 1, 8320
3, 568755, Pitch_bend_c, 1, 8320
3, 568774, Pitch_bend_c, 1, 8448
3, 568793, Pitch_bend_c, 1, 8448
3, 568812, Pitch_bend_c, 1, 8448
3, 568832, Pitch_bend_c, 1, 8448
3, 568844, Pitch_bend_c, 1, 8448
3, 568864, Pitch_bend_c, 1, 8448
3, 568883, Pitch_bend_c, 1, 8448
3, 568902, Pitch_bend_c, 1, 8448
3, 568921, Pitch_bend_c, 1, 8448
3, 568940, Pitch_bend_c, 1, 8320
3, 568953, Pitch_bend_c, 1, 8320
3, 568972, Pitch_bend_c, 1, 8320
3, 568992, Pitch_bend_c, 1, 8192
3, 569011, Pitch_bend_c, 1, 8064
3, 569030, Pitch_bend_c, 1, 8064
3, 569043, Pitch_bend_c, 1, 8064
3, 569062, Pitch_bend_c, 1, 7936
3, 569081, Pitch_bend_c, 1, 7936
3, 569100, Pitch_bend_c, 1, 7936
3, 569120, Pitch_bend_c, 1, 7936
3, 569139, Pitch_bend_c, 1, 7936
3, 569152, Pitch_bend_c, 1, 7936
3, 569171, Pitch_bend_c, 1, 7936
3, 569190, Pitch_bend_c, 1, 7936
3, 569209, Pitch_bend_c, 1, 7936
3, 569228, Pitch_bend_c, 1, 8064
3, 569241, Pitch_bend_c, 1, 8064
3, 569260, Pitch_bend_c, 1, 8064
3, 569280, Pitch_bend_c, 1, 8192
3, 569299, Pitch_bend_c, 1, 8192
3, 569318, Pitch_bend_c, 1, 8320
3, 569331, Pitch_bend_c, 1, 8320
3, 569350, Pitch_bend_c, 1, 8320
3, 569369, Pitch_bend_c, 1, 8320
3, 569388, Pitch_bend_c, 1, 8448
3, 569408, Pitch_bend_c, 1, 8448
3, 569420, Pitch_bend_c, 1, 8448
3, 569440, Pitch_bend_c, 1, 8448
3, 569459, Pitch_bend_c, 1, 8448
3, 569478, Pitch_bend_c, 1, 8320
3, 569497, Pitch_bend_c, 1, 8320
3, 569516, Pitch_bend_c, 1, 8320
3, 569529, Pitch_bend_c, 1, 8320
3, 569548, Pitch_bend_c, 1, 8192
3, 569568, Pitch_bend_c, 1, 8192
3, 569587, Pitch_bend_c, 1, 8192
3, 569606, Pitch_bend_c, 1, 8064
3, 569619, Pitch_bend_c, 1, 8064
3, 569638, Pitch_bend_c, 1, 8064
3, 569657, Pitch_bend_c, 1, 8064
3, 569676, Pitch_bend_c, 1, 7936
3, 569696, Pitch_bend_c, 1, 7936
3, 569715, Pitch_bend_c, 1, 7936
3, 569728, Pitch_bend_c, 1, 7936
3, 569747, Pitch_bend_c, 1, 7936
3, 569766, Pitch_bend_c, 1, 8064
3, 569785, Pitch_bend_c, 1, 8064
3, 569804, Pitch_bend_c, 1, 8064
3, 569817, Pitch_bend_c, 1, 8064
3, 569836, Pitch_bend_c, 1, 8192
3, 569856, Pitch_bend_c, 1, 8192
3, 569875, Pitch_bend_c, 1, 8192
3, 569894, Pitch_bend_c, 1, 8320
3, 569907, Pitch_bend_c, 1, 8320
3, 569926, Pitch_bend_c, 1, 8320
3, 569945, Pitch_bend_c, 1, 8320
3, 569964, Pitch_bend_c, 1, 8320
3, 569984, Pitch_bend_c, 1, 8448
3, 569996, Pitch_bend_c, 1, 8448
3, 570016, Pitch_bend_c, 1, 8448
3, 570035, Pitch_bend_c, 1, 8320
3, 570054, Pitch_bend_c, 1, 8320
3, 570073, Pitch_bend_c, 1, 8320
3, 570092, Pitch_bend_c, 1, 8320
3, 570105, Pitch_bend_c, 1, 8320
3, 570124, Pitch_bend_c, 1, 8192
3, 570144, Pitch_bend_c, 1, 8192
3, 570163, Pitch_bend_c, 1, 8192
3, 570182, Pitch_bend_c, 1, 8064
3, 570195, Pitch_bend_c, 1, 8064
3, 570214, Pitch_bend_c, 1, 8064
3, 570233, Pitch_bend_c, 1, 8064
3, 570252, Pitch_bend_c, 1, 8064
3, 570272, Pitch_bend_c, 1, 7936
3, 570291, Pitch_bend_c, 1, 7936
3, 570304, Pitch_bend_c, 1, 7936
3, 570323, Pitch_bend_c, 1, 8064
3, 570342, Pitch_bend_c, 1, 8064
3, 570361, Pitch_bend_c, 1, 8064
3, 570380, Pitch_bend_c, 1, 8064
3, 570393, Pitch_bend_c, 1, 8064
3, 570412, Pitch_bend_c, 1, 8192
3, 570432, Pitch_bend_c, 1, 8192
3, 570451, Pitch_bend_c, 1, 8192
3, 570470, Pitch_bend_c, 1, 8320
3, 570483, Pitch_bend_c, 1, 8320
3, 570502, Pitch_bend_c, 1, 8320
3, 570521, Pitch_bend_c, 1, 8448
3, 570540, Pitch_bend_c, 1, 8448
3, 570560, Pitch_bend_c, 1, 8448
3, 570572, Pitch_bend_c, 1, 8448
3, 570592, Pitch_bend_c, 1, 8448
3, 570611, Pitch_bend_c, 1, 8448
3, 570630, Pitch_bend_c, 1, 8448
3, 570649, Pitch_bend_c, 1, 8320
3, 570668, Pitch_bend_c, 1, 8320
3, 570681, Pitch_bend_c, 1, 8320
3, 570700, Pitch_bend_c, 1, 8192
3, 570720, Pitch_bend_c, 1, 8192
3, 570739, Pitch_bend_c, 1, 8192
3, 570758, Pitch_bend_c, 1, 8064
3, 570771, Pitch_bend_c, 1, 8064
3, 570790, Pitch_bend_c, 1, 8064
3, 570809, Pitch_bend_c, 1, 7936
3, 570828, Pitch_bend_c, 1, 7936
3, 570848, Pitch_bend_c, 1, 7936
3, 570867, Pitch_bend_c, 1, 7936
3, 570880, Pitch_bend_c, 1, 7936
3, 570899, Pitch_bend_c, 1, 7936
3, 570918, Pitch_bend_c, 1, 7936
3, 570937, Pitch_bend_c, 1, 8064
3, 570956, Pitch_bend_c, 1, 8064
3, 570969, Pitch_bend_c, 1, 8064
3, 570988, Pitch_bend_c, 1, 8192
3, 571008, Pitch_bend_c, 1, 8192
3, 571027, Pitch_bend_c, 1, 8192
3, 571046, Pitch_bend_c, 1, 8192
3, 571059, Pitch_bend_c, 1, 8192
3, 571078, Pitch_bend_c, 1, 8192
3, 571097, Pitch_bend_c, 1, 8192
3, 571116, Pitch_bend_c, 1, 8192
3, 571136, Pitch_bend_c, 1, 8192
3, 571148, Pitch_bend_c, 1, 8192
3, 571168, Pitch_bend_c, 1, 8192
3, 571187, Pitch_bend_c, 1, 8192
3, 571206, Pitch_bend_c, 1, 8192
3, 571225, Pitch_bend_c, 1, 8192
3, 571244, Pitch_bend_c, 1, 8192
3, 571257, Pitch_bend_c, 1, 8192
3, 571276, Pitch_bend_c, 1, 8192
3, 571296, Pitch_bend_c, 1, 8192
3, 571315, Pitch_bend_c, 1, 8192
3, 571334, Pitch_bend_c, 1, 8192
3, 571347, Pitch_bend_c, 1, 8192
3, 571366, Pitch_bend_c, 1, 8192
3, 571385, Pitch_bend_c, 1, 8192
3, 571392, Pitch_bend_c, 1, 8192
3, 571411, Pitch_bend_c, 1, 8192
3, 571430, Pitch_bend_c, 1, 8192
3, 571443, Pitch_bend_c, 1, 8192
3, 571462, Pitch_bend_c, 1, 8192
3, 571481, Pitch_bend_c, 1, 8192
3, 571500, Pitch_bend_c, 1, 8192
3, 571520, Pitch_bend_c, 1, 8192
3, 571532, Pitch_bend_c, 1, 8192
3, 571552, Pitch_bend_c, 1, 8192
3, 571571, Pitch_bend_c, 1, 8192
3, 571590, Pitch_bend_c, 1, 8192
3, 571609, Pitch_bend_c, 1, 8192
3, 571628, Pitch_bend_c, 1, 8192
3, 571641, Pitch_bend_c, 1, 8192
3, 571660, Pitch_bend_c, 1, 8192
3, 571680, Pitch_bend_c, 1, 8192
3, 571699, Pitch_bend_c, 1, 8192
3, 571718, Pitch_bend_c, 1, 8192
3, 571731, Pitch_bend_c, 1, 8192
3, 571750, Pitch_bend_c, 1, 8192
3, 571769, Pitch_bend_c, 1, 8192
3, 571788, Pitch_bend_c, 1, 8192
3, 571808, Pitch_bend_c, 1, 8192
3, 571827, Pitch_bend_c, 1, 8192
3, 571840, Pitch_bend_c, 1, 8192
3, 571859, Pitch_bend_c, 1, 8192
3, 571878, Pitch_bend_c, 1, 8192
3, 571897, Pitch_bend_c, 1, 8192
3, 571916, Pitch_bend_c, 1, 8192
3, 571929, Pitch_bend_c, 1, 8192
3, 571948, Pitch_bend_c, 1, 8192
3, 571968, Pitch_bend_c, 1, 8192
3, 571987, Pitch_bend_c, 1, 8192
3, 572006, Pitch_bend_c, 1, 8320
3, 572019, Pitch_bend_c, 1, 8320
3, 572038, Pitch_bend_c, 1, 8320
3, 572057, Pitch_bend_c, 1, 8448
3, 572076, Pitch_bend_c, 1, 8448
3, 572096, Pitch_bend_c, 1, 8448
3, 572108, Pitch_bend_c, 1, 8448
3, 572128, Pitch_bend_c, 1, 8448
3, 572147, Pitch_bend_c, 1, 8448
3, 572166, Pitch_bend_c, 1, 8448
3, 572185, Pitch_bend_c, 1, 8320
3, 572204, Pitch_bend_c, 1, 8320
3, 572217, Pitch_bend_c, 1, 8320
3, 572236, Pitch_bend_c, 1, 8192
3, 572256, Pitch_bend_c, 1, 8192
3, 572275, Pitch_bend_c, 1, 8192
3, 572294, Pitch_bend_c, 1, 8064
3, 572307, Pitch_bend_c, 1, 8064
3, 572326, Pitch_bend_c, 1, 8064
3, 572345, Pitch_bend_c, 1, 7936
3, 572364, Pitch_bend_c, 1, 7936
3, 572384, Pitch_bend_c, 1, 7936
3, 572403, Pitch_bend_c, 1, 7936
3, 572416, Pitch_bend_c, 1, 7936
3, 572435, Pitch_bend_c, 1, 7936
3, 572454, Pitch_bend_c, 1, 7936
3, 572473, Pitch_bend_c, 1, 8064
3, 572492, Pitch_bend_c, 1, 8064
3, 572505, Pitch_bend_c, 1, 8064
3, 572524, Pitch_bend_c, 1, 8192
3, 572544, Pitch_bend_c, 1, 8192
3, 572563, Pitch_bend_c, 1, 8192
3, 572582, Pitch_bend_c, 1, 8320
3, 572595, Pitch_bend_c, 1, 8320
3, 572614, Pitch_bend_c, 1, 8320
3, 572633, Pitch_bend_c, 1, 8320
3, 572652, Pitch_bend_c, 1, 8320
3, 572672, Pitch_bend_c, 1, 8320
3, 572684, Pitch_bend_c, 1, 8320
3, 572704, Pitch_bend_c, 1, 8320
3, 572723, Pitch_bend_c, 1, 8320
3, 572742, Pitch_bend_c, 1, 8320
3, 572761, Pitch_bend_c, 1, 8320
3, 572780, Pitch_bend_c, 1, 8320
3, 572793, Pitch_bend_c, 1, 8320
3, 572812, Pitch_bend_c, 1, 8192
3, 572832, Pitch_bend_c, 1, 8192
3, 572851, Pitch_bend_c, 1, 8192
3, 572870, Pitch_bend_c, 1, 8064
3, 572883, Pitch_bend_c, 1, 8064
3, 572902, Pitch_bend_c, 1, 8064
3, 572921, Pitch_bend_c, 1, 8064
3, 572940, Pitch_bend_c, 1, 8064
3, 572960, Pitch_bend_c, 1, 8064
3, 572979, Pitch_bend_c, 1, 8064
3, 572992, Pitch_bend_c, 1, 8064
3, 573011, Pitch_bend_c, 1, 8064
3, 573030, Pitch_bend_c, 1, 8064
3, 573049, Pitch_bend_c, 1, 8064
3, 573068, Pitch_bend_c, 1, 8064
3, 573081, Pitch_bend_c, 1, 8064
3, 573100, Pitch_bend_c, 1, 8192
3, 573120, Pitch_bend_c, 1, 8192
3, 573139, Pitch_bend_c, 1, 8192
3, 573158, Pitch_bend_c, 1, 8320
3, 573171, Pitch_bend_c, 1, 8320
3, 573190, Pitch_bend_c, 1, 8320
3, 573209, Pitch_bend_c, 1, 8320
3, 573228, Pitch_bend_c, 1, 8448
3, 573248, Pitch_bend_c, 1, 8448
3, 573260, Pitch_bend_c, 1, 8448
3, 573280, Pitch_bend_c, 1, 8448
3, 573299, Pitch_bend_c, 1, 8448
3, 573318, Pitch_bend_c, 1, 8320
3, 573337, Pitch_bend_c, 1, 8320
3, 573356, Pitch_bend_c, 1, 8320
3, 573369, Pitch_bend_c, 1, 8320
3, 573388, Pitch_bend_c, 1, 8192
3, 573408, Pitch_bend_c, 1, 8192
3, 573427, Pitch_bend_c, 1, 8192
3, 573446, Pitch_bend_c, 1, 8064
3, 573459, Pitch_bend_c, 1, 8064
3, 573478, Pitch_bend_c, 1, 8064
3, 573497, Pitch_bend_c, 1, 8064
3, 573516, Pitch_bend_c, 1, 7936
3, 573536, Pitch_bend_c, 1, 7936
3, 573555, Pitch_bend_c, 1, 7936
3, 573568, Pitch_bend_c, 1, 7936
3, 573587, Pitch_bend_c, 1, 7936
3, 573606, Pitch_bend_c, 1, 8064
3, 573625, Pitch_bend_c, 1, 8064
3, 573644, Pitch_bend_c, 1, 8064
3, 573657, Pitch_bend_c, 1, 8064
3, 573676, Pitch_bend_c, 1, 8192
3, 573696, Pitch_bend_c, 1, 8192
3, 573715, Pitch_bend_c, 1, 8192
3, 573734, Pitch_bend_c, 1, 8320
3, 573747, Pitch_bend_c, 1, 8320
3, 573766, Pitch_bend_c, 1, 8320
3, 573785, Pitch_bend_c, 1, 8448
3, 573804, Pitch_bend_c, 1, 8448
3, 573824, Pitch_bend_c, 1, 8448
3, 573836, Pitch_bend_c, 1, 8448
3, 573856, Pitch_bend_c, 1, 8448
3, 573875, Pitch_bend_c, 1, 8448
3, 573894, Pitch_bend_c, 1, 8448
3, 573913, Pitch_bend_c, 1, 8320
3, 573932, Pitch_bend_c, 1, 8320
3, 573945, Pitch_bend_c, 1, 8320
3, 573964, Pitch_bend_c, 1, 8192
3, 573984, Pitch_bend_c, 1, 8192
3, 574003, Pitch_bend_c, 1, 8192
3, 574022, Pitch_bend_c, 1, 8064
3, 574035, Pitch_bend_c, 1, 8064
3, 574054, Pitch_bend_c, 1, 8064
3, 574073, Pitch_bend_c, 1, 7936
3, 574092, Pitch_bend_c, 1, 7936
3, 574112, Pitch_bend_c, 1, 7936
3, 574131, Pitch_bend_c, 1, 7936
3, 574144, Pitch_bend_c, 1, 7936
3, 574163, Pitch_bend_c, 1, 7936
3, 574182, Pitch_bend_c, 1, 7936
3, 574201, Pitch_bend_c, 1, 8064
3, 574220, Pitch_bend_c, 1, 8064
3, 574233, Pitch_bend_c, 1, 8064
3, 574252, Pitch_bend_c, 1, 8192
3, 574272, Pitch_bend_c, 1, 8192
3, 574291, Pitch_bend_c, 1, 8192
3, 574310, Pitch_bend_c, 1, 8320
3, 574323, Pitch_bend_c, 1, 8320
3, 574342, Pitch_bend_c, 1, 8320
3, 574361, Pitch_bend_c, 1, 8448
3, 574380, Pitch_bend_c, 1, 8448
3, 574400, Pitch_bend_c, 1, 8448
3, 574412, Pitch_bend_c, 1, 8448
3, 574432, Pitch_bend_c, 1, 8448
3, 574451, Pitch_bend_c, 1, 8448
3, 574470, Pitch_bend_c, 1, 8448
3, 574489, Pitch_bend_c, 1, 8320
3, 574508, Pitch_bend_c, 1, 8320
3, 574521, Pitch_bend_c, 1, 8320
3, 574540, Pitch_bend_c, 1, 8192
3, 574560, Pitch_bend_c, 1, 8192
3, 574579, Pitch_bend_c, 1, 8192
3, 574598, Pitch_bend_c, 1, 8064
3, 574611, Pitch_bend_c, 1, 8064
3, 574630, Pitch_bend_c, 1, 8064
3, 574649, Pitch_bend_c, 1, 7936
3, 574668, Pitch_bend_c, 1, 7936
3, 574688, Pitch_bend_c, 1, 7936
3, 574707, Pitch_bend_c, 1, 7936
3, 574720, Pitch_bend_c, 1, 7936
3, 574739, Pitch_bend_c, 1, 7936
3, 574758, Pitch_bend_c, 1, 7936
3, 574777, Pitch_bend_c, 1, 8064
3, 574796, Pitch_bend_c, 1, 8064
3, 574809, Pitch_bend_c, 1, 8064
3, 574828, Pitch_bend_c, 1, 8192
3, 574848, Pitch_bend_c, 1, 8192
3, 574867, Pitch_bend_c, 1, 8192
3, 574886, Pitch_bend_c, 1, 8320
3, 574899, Pitch_bend_c, 1, 8320
3, 574918, Pitch_bend_c, 1, 8320
3, 574937, Pitch_bend_c, 1, 8320
3, 574956, Pitch_bend_c, 1, 8448
3, 574976, Pitch_bend_c, 1, 8448
3, 574988, Pitch_bend_c, 1, 8448
3, 575008, Pitch_bend_c, 1, 8448
3, 575027, Pitch_bend_c, 1, 8448
3, 575046, Pitch_bend_c, 1, 8320
3, 575065, Pitch_bend_c, 1, 8320
3, 575084, Pitch_bend_c, 1, 8320
3, 575097, Pitch_bend_c, 1, 8320
3, 575116, Pitch_bend_c, 1, 8192
3, 575136, Pitch_bend_c, 1, 8192
3, 575155, Pitch_bend_c, 1, 8192
3, 575174, Pitch_bend_c, 1, 8064
3, 575187, Pitch_bend_c, 1, 8064
3, 575206, Pitch_bend_c, 1, 8064
3, 575225, Pitch_bend_c, 1, 8064
3, 575244, Pitch_bend_c, 1, 7936
3, 575264, Pitch_bend_c, 1, 7936
3, 575283, Pitch_bend_c, 1, 7936
3, 575296, Pitch_bend_c, 1, 7936
3, 575315, Pitch_bend_c, 1, 7936
3, 575334, Pitch_bend_c, 1, 8064
3, 575353, Pitch_bend_c, 1, 8064
3, 575372, Pitch_bend_c, 1, 8064
3, 575385, Pitch_bend_c, 1, 8064
3, 575404, Pitch_bend_c, 1, 8192
3, 575424, Pitch_bend_c, 1, 8192
3, 575443, Pitch_bend_c, 1, 8192
3, 575462, Pitch_bend_c, 1, 8192
3, 575475, Pitch_bend_c, 1, 8320
3, 575494, Pitch_bend_c, 1, 8320
3, 575513, Pitch_bend_c, 1, 8320
3, 575532, Pitch_bend_c, 1, 8320
3, 575552, Pitch_bend_c, 1, 8320
3, 575564, Pitch_bend_c, 1, 8320
3, 575584, Pitch_bend_c, 1, 8320
3, 575603, Pitch_bend_c, 1, 8320
3, 575622, Pitch_bend_c, 1, 8320
3, 575641, Pitch_bend_c, 1, 8320
3, 575660, Pitch_bend_c, 1, 8320
3, 575673, Pitch_bend_c, 1, 8192
3, 575692, Pitch_bend_c, 1, 8192
3, 575712, Pitch_bend_c, 1, 8192
3, 575731, Pitch_bend_c, 1, 8192
3, 575750, Pitch_bend_c, 1, 8192
3, 575763, Pitch_bend_c, 1, 8064
3, 575782, Pitch_bend_c, 1, 8064
3, 575801, Pitch_bend_c, 1, 8064
3, 575820, Pitch_bend_c, 1, 8064
3, 575840, Pitch_bend_c, 1, 8064
3, 575859, Pitch_bend_c, 1, 8064
3, 575872, Pitch_bend_c, 1, 8064
3, 575891, Pitch_bend_c, 1, 8064
3, 575910, Pitch_bend_c, 1, 8064
3, 575929, Pitch_bend_c, 1, 8064
3, 575948, Pitch_bend_c, 1, 8064
3, 575961, Pitch_bend_c, 1, 8192
3, 575980, Pitch_bend_c, 1, 8192
3, 576000, Pitch_bend_c, 1, 8192
3, 576384, Pitch_bend_c, 1, 7552
3, 576550, Pitch_bend_c, 1, 6784
3, 576710, Pitch_bend_c, 1, 6144
3, 576876, Pitch_bend_c, 1, 5504
3, 577043, Pitch_bend_c, 1, 4736
3, 577209, Pitch_bend_c, 1, 4096
3, 577369, Pitch_bend_c, 1, 3456
3, 577536, Note_off_c, 1, 67, 80
3, 577536, Note_off_c, 1, 79, 80
3, 577536, Pitch_bend_c, 1, 8192
3, 736512, Note_on_c, 1, 65, 63
3, 736512, Pitch_bend_c, 1, 8192
3, 736563, Pitch_bend_c, 1, 8192
3, 736608, Pitch_bend_c, 1, 8192
3, 736652, Pitch_bend_c, 1, 8192
3, 736704, Pitch_bend_c, 1, 8192
3, 736755, Pitch_bend_c, 1, 8192
3, 736800, Pitch_bend_c, 1, 8192
3, 736844, Pitch_bend_c, 1, 8192
3, 736896, Pitch_bend_c, 1, 8192
3, 736947, Pitch_bend_c, 1, 8192
3, 736992, Pitch_bend_c, 1, 8192
3, 737036, Pitch_bend_c, 1, 8192
3, 737088, Pitch_bend_c, 1, 8192
3, 737139, Pitch_bend_c, 1, 8192
3, 737184, Pitch_bend_c, 1, 8192
3, 737228, Pitch_bend_c, 1, 8192
3, 737280, Pitch_bend_c, 1, 8192
3, 737292, Pitch_bend_c, 1, 8192
3, 737299, Pitch_bend_c, 1, 8192
3, 737312, Pitch_bend_c, 1, 8192
3, 737318, Pitch_bend_c, 1, 8192
3, 737331, Pitch_bend_c, 1, 8192
3, 737337, Pitch_bend_c, 1, 8192
3, 737350, Pitch_bend_c, 1, 8192
3, 737356, Pitch_bend_c, 1, 8192
3, 737369, Pitch_bend_c, 1, 8192
3, 737382, Pitch_bend_c, 1, 8192
3, 737388, Pitch_bend_c, 1, 8192
3, 737401, Pitch_bend_c, 1, 8192
3, 737408, Pitch_bend_c, 1, 8192
3, 737420, Pitch_bend_c, 1, 8192
3, 737427, Pitch_bend_c, 1, 8192
3, 737440, Pitch_bend_c, 1, 8192
3, 737452, Pitch_bend_c, 1, 8192
3, 737459, Pitch_bend_c, 1, 8192
3, 737472, Pitch_bend_c, 1, 8192
3, 737478, Pitch_bend_c, 1, 8192
3, 737491, Pitch_bend_c, 1, 8192
3, 737497, Pitch_bend_c, 1, 8192
3, 737510, Pitch_bend_c, 1, 8192
3, 737523, Pitch_bend_c, 1, 8192
3, 737529, Pitch_bend_c, 1, 8192
3, 737542, Pitch_bend_c, 1, 8192
3, 737548, Pitch_bend_c, 1, 8192
3, 737561, Pitch_bend_c, 1, 8192
3, 737568, Pitch_bend_c, 1, 8192
3, 737580, Pitch_bend_c, 1, 8192
3, 737587, Pitch_bend_c, 1, 8192
3, 737600, Pitch_bend_c, 1, 8192
3, 737612, Pitch_bend_c, 1, 8320
3, 737619, Pitch_bend_c, 1, 8320
3, 737632, Pitch_bend_c, 1, 8320
3, 737638, Pitch_bend_c, 1, 8448
3, 737651, Pitch_bend_c, 1, 8448
3, 737657, Pitch_bend_c, 1, 8448
3, 737670, Pitch_bend_c, 1, 8448
3, 737676, Pitch_bend_c, 1, 8448
3, 737689, Pitch_bend_c, 1, 8448
3, 737702, Pitch_bend_c, 1, 8448
3, 737708, Pitch_bend_c, 1, 8448
3, 737721, Pitch_bend_c, 1, 8448
3, 737728, Pitch_bend_c, 1, 8320
3, 737740, Pitch_bend_c, 1, 8320
3, 737747, Pitch_bend_c, 1, 8320
3, 737760, Pitch_bend_c, 1, 8192
3, 737772, Pitch_bend_c, 1, 8064
3, 737779, Pitch_bend_c, 1, 8064
3, 737792, Pitch_bend_c, 1, 8064
3, 737798, Pitch_bend_c, 1, 7936
3, 737811, Pitch_bend_c, 1, 7936
3, 737817, Pitch_bend_c, 1, 7936
3, 737830, Pitch_bend_c, 1, 7936
3, 737843, Pitch_bend_c, 1, 7936
3, 737849, Pitch_bend_c, 1, 7936
3, 737862, Pitch_bend_c, 1, 7936
3, 737868, Pitch_bend_c, 1, 7936
3, 737881, Pitch_bend_c, 1, 7936
3, 737888, Pitch_bend_c, 1, 8064
3, 737900, Pitch_bend_c, 1, 8064
3, 737907, Pitch_bend_c, 1, 8064
3, 737920, Pitch_bend_c, 1, 8192
3, 737932, Pitch_bend_c, 1, 8320
3, 737939, Pitch_bend_c, 1, 8320
3, 737952, Pitch_bend_c, 1, 8448
3, 737958, Pitch_bend_c, 1, 8576
3, 737971, Pitch_bend_c, 1, 8576
3, 737977, Pitch_bend_c, 1, 8704
3, 737990, Pitch_bend_c, 1, 8704
3, 737996, Pitch_bend_c, 1, 8704
3, 738009, Pitch_bend_c, 1, 8704
3, 738022, Pitch_bend_c, 1, 8704
3, 738028, Pitch_bend_c, 1, 8576
3, 738041, Pitch_bend_c, 1, 8576
3, 738048, Pitch_bend_c, 1, 8448
3, 738060, Pitch_bend_c, 1, 8320
3, 738067, Pitch_bend_c, 1, 8320
3, 738080, Pitch_bend_c, 1, 8192
3, 738092, Pitch_bend_c, 1, 8064
3, 738099, Pitch_bend_c, 1, 8064
3, 738112, Pitch_bend_c, 1, 7936
3, 738118, Pitch_bend_c, 1, 7808
3, 738131, Pitch_bend_c, 1, 7808
3, 738137, Pitch_bend_c, 1, 7680
3, 738150, Pitch_bend_c, 1, 7680
3, 738163, Pitch_bend_c, 1, 7680
3, 738169, Pitch_bend_c, 1, 7680
3, 738182, Pitch_bend_c, 1, 7680
3, 738188, Pitch_bend_c, 1, 7808
3, 738201, Pitch_bend_c, 1, 7808
3, 738208, Pitch_bend_c, 1, 7936
3, 738220, Pitch_bend_c, 1, 8064
3, 738227, Pitch_bend_c, 1, 8064
3, 738240, Pitch_bend_c, 1, 8192
3, 738252, Pitch_bend_c, 1, 8320
3, 738259, Pitch_bend_c, 1, 8448
3, 738272, Pitch_bend_c, 1, 8576
3, 738278, Pitch_bend_c, 1, 8576
3, 738291, Pitch_bend_c, 1, 8704
3, 738297, Pitch_bend_c, 1, 8704
3, 738310, Pitch_bend_c, 1, 8704
3, 738316, Pitch_bend_c, 1, 8704
3, 738329, Pitch_bend_c, 1, 8704
3, 738342, Pitch_bend_c, 1, 8704
3, 738348, Pitch_bend_c, 1, 8704
3, 738361, Pitch_bend_c, 1, 8576
3, 738368, Pitch_bend_c, 1, 8576
3, 738380, Pitch_bend_c, 1, 8448
3, 738387, Pitch_bend_c, 1, 8320
3, 738400, Pitch_bend_c, 1, 8192
3, 738412, Pitch_bend_c, 1, 8064
3, 738419, Pitch_bend_c, 1, 7936
3, 738432, Pitch_bend_c, 1, 7808
3, 738438, Pitch_bend_c, 1, 7808
3, 738451, Pitch_bend_c, 1, 7680
3, 738457, Pitch_bend_c, 1, 7680
3, 738470, Pitch_bend_c, 1, 7680
3, 738483, Pitch_bend_c, 1, 7680
3, 738489, Pitch_bend_c, 1, 7680
3, 738502, Pitch_bend_c, 1, 7680
3, 738508, Pitch_bend_c, 1, 7680
3, 738521, Pitch_bend_c, 1, 7808
3, 738528, Pitch_bend_c, 1, 7808
3, 738540, Pitch_bend_c, 1, 7936
3, 738547, Pitch_bend_c, 1, 8064
3, 738560, Pitch_bend_c, 1, 8192
3, 738572, Pitch_bend_c, 1, 8320
3, 738579, Pitch_bend_c, 1, 8448
3, 738592, Pitch_bend_c, 1, 8576
3, 738598, Pitch_bend_c, 1, 8576
3, 738611, Pitch_bend_c, 1, 8704
3, 738617, Pitch_bend_c, 1, 8704
3, 738630, Pitch_bend_c, 1, 8832
3, 738636, Pitch_bend_c, 1, 8832
3, 738649, Pitch_bend_c, 1, 8832
3, 738662, Pitch_bend_c, 1, 8704
3, 738668, Pitch_bend_c, 1, 8704
3, 738681, Pitch_bend_c, 1, 8576
3, 738688, Pitch_bend_c, 1, 8576
3, 738700, Pitch_bend_c, 1, 8448
3, 738707, Pitch_bend_c, 1, 8320
3, 738720, Pitch_bend_c, 1, 8192
3, 738732, Pitch_bend_c, 1, 8064
3, 738739, Pitch_bend_c, 1, 7936
3, 738752, Pitch_bend_c, 1, 7808
3, 738758, Pitch_bend_c, 1, 7808
3, 738771, Pitch_bend_c, 1, 7680
3, 738777, Pitch_bend_c, 1, 7680
3, 738790, Pitch_bend_c, 1, 7552
3, 738803, Pitch_bend_c, 1, 7552
3, 738809, Pitch_bend_c, 1, 7552
3, 738822, Pitch_bend_c, 1, 7680
3, 738828, Pitch_bend_c, 1, 7680
3, 738841, Pitch_bend_c, 1, 7808
3, 738848, Pitch_bend_c, 1, 7808
3, 738860, Pitch_bend_c, 1, 7936
3, 738867, Pitch_bend_c, 1, 8064
3, 738880, Pitch_bend_c, 1, 8192
3, 738892, Pitch_bend_c, 1, 8320
3, 738899, Pitch_bend_c, 1, 8448
3, 738912, Pitch_bend_c, 1, 8576
3, 738918, Pitch_bend_c, 1, 8576
3, 738931, Pitch_bend_c, 1, 8704
3, 738937, Pitch_bend_c, 1, 8704
3, 738950, Pitch_bend_c, 1, 8832
3, 738956, Pitch_bend_c, 1, 8832
3, 738969, Pitch_bend_c, 1, 8832
3, 738982, Pitch_bend_c, 1, 8704
3, 738988, Pitch_bend_c, 1, 8704
3, 739001, Pitch_bend_c, 1, 8576
3, 739008, Pitch_bend_c, 1, 8576
3, 739020, Pitch_bend_c, 1, 8448
3, 739027, Pitch_bend_c, 1, 8320
3, 739040, Pitch_bend_c, 1, 8192
3, 739052, Pitch_bend_c, 1, 8064
3, 739059, Pitch_bend_c, 1, 7936
3, 739072, Pitch_bend_c, 1, 7808
3, 739078, Pitch_bend_c, 1, 7808
3, 739091, Pitch_bend_c, 1, 7680
3, 739097, Pitch_bend_c, 1, 7680
3, 739110, Pitch_bend_c, 1, 7552
3, 739123, Pitch_bend_c, 1, 7552
3, 739129, Pitch_bend_c, 1, 7552
3, 739142, Pitch_bend_c, 1, 7680
3, 739148, Pitch_bend_c, 1, 7680
3, 739161, Pitch_bend_c, 1, 7808
3, 739168, Pitch_bend_c, 1, 7808
3, 739180, Pitch_bend_c, 1, 7936
3, 739187, Pitch_bend_c, 1, 8064
3, 739200, Pitch_bend_c, 1, 8192
3, 739212, Pitch_bend_c, 1, 8320
3, 739219, Pitch_bend_c, 1, 8448
3, 739232, Pitch_bend_c, 1, 8576
3, 739238, Pitch_bend_c, 1, 8576
3, 739251, Pitch_bend_c, 1, 8704
3, 739257, Pitch_bend_c, 1, 8704
3, 739270, Pitch_bend_c, 1, 8704
3, 739276, Pitch_bend_c, 1, 8704
3, 739289, Pitch_bend_c, 1, 8704
3, 739302, Pitch_bend_c, 1, 8704
3, 739308, Pitch_bend_c, 1, 8704
3, 739321, Pitch_bend_c, 1, 8576
3, 739328, Pitch_bend_c, 1, 8576
3, 739340, Pitch_bend_c, 1, 8448
3, 739347, Pitch_bend_c, 1, 8320
3, 739360, Pitch_bend_c, 1, 8192
3, 739372, Pitch_bend_c, 1, 8064
3, 739379, Pitch_bend_c, 1, 7936
3, 739392, Pitch_bend_c, 1, 7808
3, 739398, Pitch_bend_c, 1, 7808
3, 739411, Pitch_bend_c, 1, 7680
3, 739417, Pitch_bend_c, 1, 7680
3, 739430, Pitch_bend_c, 1, 7680
3, 739443, Pitch_bend_c, 1, 7680
3, 739449, Pitch_bend_c, 1, 7680
3, 739462, Pitch_bend_c, 1, 7680
3, 739468, Pitch_bend_c, 1, 7680
3, 739481, Pitch_bend_c, 1, 7808
3, 739488, Pitch_bend_c, 1, 7808
3, 739500, Pitch_bend_c, 1, 7936
3, 739507, Pitch_bend_c, 1, 8064
3, 739520, Pitch_bend_c, 1, 8192
3, 739532, Pitch_bend_c, 1, 8320
3, 739539, Pitch_bend_c, 1, 8448
3, 739552, Pitch_bend_c, 1, 8576
3, 739558, Pitch_bend_c, 1, 8576
3, 739571, Pitch_bend_c, 1, 8704
3, 739577, Pitch_bend_c, 1, 8704
3, 739590, Pitch_bend_c, 1, 8704
3, 739596, Pitch_bend_c, 1, 8704
3, 739609, Pitch_bend_c, 1, 8704
3, 739622, Pitch_bend_c, 1, 8704
3, 739628, Pitch_bend_c, 1, 8704
3, 739641, Pitch_bend_c, 1, 8576
3, 739648, Pitch_bend_c, 1, 8576
3, 739660, Pitch_bend_c, 1, 8448
3, 739667, Pitch_bend_c, 1, 8320
3, 739680, Pitch_bend_c, 1, 8192
3, 739692, Pitch_bend_c, 1, 8064
3, 739699, Pitch_bend_c, 1, 7936
3, 739712, Pitch_bend_c, 1, 7808
3, 739718, Pitch_bend_c, 1, 7808
3, 739731, Pitch_bend_c, 1, 7680
3, 739737, Pitch_bend_c, 1, 7680
3, 739750, Pitch_bend_c, 1, 7680
3, 739763, Pitch_bend_c, 1, 7680
3, 739769, Pitch_bend_c, 1, 7680
3, 739782, Pitch_bend_c, 1, 7680
3, 739788, Pitch_bend_c, 1, 7680
3, 739801, Pitch_bend_c, 1, 7808
3, 739808, Pitch_bend_c, 1, 7808
3, 739820, Pitch_bend_c, 1, 7936
3, 739827, Pitch_bend_c, 1, 8064
3, 739840, Pitch_bend_c, 1, 8192
3, 739852, Pitch_bend_c, 1, 8320
3, 739859, Pitch_bend_c, 1, 8320
3, 739872, Pitch_bend_c, 1, 8448
3, 739878, Pitch_bend_c, 1, 8576
3, 739891, Pitch_bend_c, 1, 8704
3, 739897, Pitch_bend_c, 1, 8704
3, 739910, Pitch_bend_c, 1, 8704
3, 739916, Pitch_bend_c, 1, 8704
3, 739929, Pitch_bend_c, 1, 8704
3, 739942, Pitch_bend_c, 1, 8704
3, 739948, Pitch_bend_c, 1, 8704
3, 739961, Pitch_bend_c, 1, 8576
3, 739968, Pitch_bend_c, 1, 8448
3, 739980, Pitch_bend_c, 1, 8320
3, 739987, Pitch_bend_c, 1, 8320
3, 740000, Pitch_bend_c, 1, 8192
3, 740012, Pitch_bend_c, 1, 8064
3, 740019, Pitch_bend_c, 1, 8064
3, 740032, Pitch_bend_c, 1, 7936
3, 740038, Pitch_bend_c, 1, 7808
3, 740051, Pitch_bend_c, 1, 7680
3, 740057, Pitch_bend_c, 1, 7680
3, 740070, Pitch_bend_c, 1, 7680
3, 740083, Pitch_bend_c, 1, 7680
3, 740089, Pitch_bend_c, 1, 7680
3, 740102, Pitch_bend_c, 1, 7680
3, 740108, Pitch_bend_c, 1, 7680
3, 740121, Pitch_bend_c, 1, 7808
3, 740128, Pitch_bend_c, 1, 7936
3, 740140, Pitch_bend_c, 1, 8064
3, 740147, Pitch_bend_c, 1, 8064
3, 740160, Pitch_bend_c, 1, 8192
3, 740172, Pitch_bend_c, 1, 8320
3, 740179, Pitch_bend_c, 1, 8320
3, 740192, Pitch_bend_c, 1, 8448
3, 740198, Pitch_bend_c, 1, 8576
3, 740211, Pitch_bend_c, 1, 8704
3, 740217, Pitch_bend_c, 1, 8704
3, 740230, Pitch_bend_c, 1, 8704
3, 740236, Pitch_bend_c, 1, 8704
3, 740249, Pitch_bend_c, 1, 8704
3, 740262, Pitch_bend_c, 1, 8704
3, 740268, Pitch_bend_c, 1, 8704
3, 740281, Pitch_bend_c, 1, 8576
3, 740288, Pitch_bend_c, 1, 8448
3, 740300, Pitch_bend_c, 1, 8320
3, 740307, Pitch_bend_c, 1, 8320
3, 740320, Pitch_bend_c, 1, 8192
3, 740332, Pitch_bend_c, 1, 8064
3, 740339, Pitch_bend_c, 1, 8064
3, 740352, Pitch_bend_c, 1, 7936
3, 740358, Pitch_bend_c, 1, 7808
3, 740371, Pitch_bend_c, 1, 7680
3, 740377, Pitch_bend_c, 1, 7680
3, 740390, Pitch_bend_c, 1, 7680
3, 740403, Pitch_bend_c, 1, 7680
3, 740409, Pitch_bend_c, 1, 7680
3, 740422, Pitch_bend_c, 1, 7680
3, 740428, Pitch_bend_c, 1, 7680
3, 740441, Pitch_bend_c, 1, 7808
3, 740448, Pitch_bend_c, 1, 7936
3, 740460, Pitch_bend_c, 1, 8064
3, 740467, Pitch_bend_c, 1, 8064
3, 740480, Pitch_bend_c, 1, 8192
3, 740492, Pitch_bend_c, 1, 8320
3, 740499, Pitch_bend_c, 1, 8448
3, 740512, Pitch_bend_c, 1, 8576
3, 740518, Pitch_bend_c, 1, 8576
3, 740531, Pitch_bend_c, 1, 8704
3, 740537, Pitch_bend_c, 1, 8704
3, 740550, Pitch_bend_c, 1, 8832
3, 740556, Pitch_bend_c, 1, 8832
3, 740569, Pitch_bend_c, 1, 8832
3, 740582, Pitch_bend_c, 1, 8704
3, 740588, Pitch_bend_c, 1, 8704
3, 740601, Pitch_bend_c, 1, 8576
3, 740608, Pitch_bend_c, 1, 8576
3, 740620, Pitch_bend_c, 1, 8448
3, 740627, Pitch_bend_c, 1, 8320
3, 740640, Pitch_bend_c, 1, 8192
3, 740652, Pitch_bend_c, 1, 8064
3, 740659, Pitch_bend_c, 1, 7936
3, 740672, Pitch_bend_c, 1, 7808
3, 740678, Pitch_bend_c, 1, 7808
3, 740691, Pitch_bend_c, 1, 7680
3, 740697, Pitch_bend_c, 1, 7680
3, 740710, Pitch_bend_c, 1, 7552
3, 740723, Pitch_bend_c, 1, 7552
3, 740729, Pitch_bend_c, 1, 7552
3, 740742, Pitch_bend_c, 1, 7680
3, 740748, Pitch_bend_c, 1, 7680
3, 740761, Pitch_bend_c, 1, 7808
3, 740768, Pitch_bend_c, 1, 7808
3, 740780, Pitch_bend_c, 1, 7936
3, 740787, Pitch_bend_c, 1, 8064
3, 740800, Pitch_bend_c, 1, 8192
3, 740812, Pitch_bend_c, 1, 8320
3, 740819, Pitch_bend_c, 1, 8448
3, 740832, Pitch_bend_c, 1, 8576
3, 740838, Pitch_bend_c, 1, 8576
3, 740851, Pitch_bend_c, 1, 8704
3, 740857, Pitch_bend_c, 1, 8704
3, 740870, Pitch_bend_c, 1, 8832
3, 740876, Pitch_bend_c, 1, 8832
3, 740889, Pitch_bend_c, 1, 8832
3, 740902, Pitch_bend_c, 1, 8704
3, 740908, Pitch_bend_c, 1, 8704
3, 740921, Pitch_bend_c, 1, 8576
3, 740928, Pitch_bend_c, 1, 8576
3, 740940, Pitch_bend_c, 1, 8448
3, 740947, Pitch_bend_c, 1, 8320
3, 740960, Pitch_bend_c, 1, 8192
3, 740972, Pitch_bend_c, 1, 8064
3, 740979, Pitch_bend_c, 1, 7936
3, 740992, Pitch_bend_c, 1, 7808
3, 740998, Pitch_bend_c, 1, 7808
3, 741011, Pitch_bend_c, 1, 7680
3, 741017, Pitch_bend_c, 1, 7680
3, 741030, Pitch_bend_c, 1, 7552
3, 741043, Pitch_bend_c, 1, 7552
3, 741049, Pitch_bend_c, 1, 7552
3, 741062, Pitch_bend_c, 1, 7680
3, 741068, Pitch_bend_c, 1, 7680
3, 741081, Pitch_bend_c, 1, 7808
3, 741088, Pitch_bend_c, 1, 7808
3, 741100, Pitch_bend_c, 1, 7936
3, 741107, Pitch_bend_c, 1, 8064
3, 741120, Pitch_bend_c, 1, 8192
3, 741132, Pitch_bend_c, 1, 8320
3, 741139, Pitch_bend_c, 1, 8448
3, 741152, Pitch_bend_c, 1, 8576
3, 741158, Pitch_bend_c, 1, 8576
3, 741171, Pitch_bend_c, 1, 8704
3, 741177, Pitch_bend_c, 1, 8704
3, 741190, Pitch_bend_c, 1, 8704
3, 741196, Pitch_bend_c, 1, 8704
3, 741209, Pitch_bend_c, 1, 8704
3, 741222, Pitch_bend_c, 1, 8704
3, 741228, Pitch_bend_c, 1, 8704
3, 741241, Pitch_bend_c, 1, 8576
3, 741248, Pitch_bend_c, 1, 8576
3, 741260, Pitch_bend_c, 1, 8448
3, 741267, Pitch_bend_c, 1, 8320
3, 741280, Pitch_bend_c, 1, 8192
3, 741292, Pitch_bend_c, 1, 8064
3, 741299, Pitch_bend_c, 1, 7936
3, 741312, Pitch_bend_c, 1, 7808
3, 741318, Pitch_bend_c, 1, 7808
3, 741331, Pitch_bend_c, 1, 7680
3, 741337, Pitch_bend_c, 1, 7680
3, 741350, Pitch_bend_c, 1, 7680
3, 741363, Pitch_bend_c, 1, 7680
3, 741369, Pitch_bend_c, 1, 7680
3, 741382, Pitch_bend_c, 1, 7680
3, 741388, Pitch_bend_c, 1, 7680
3, 741401, Pitch_bend_c, 1, 7808
3, 741408, Pitch_bend_c, 1, 7808
3, 741420, Pitch_bend_c, 1, 7936
3, 741427, Pitch_bend_c, 1, 8064
3, 741440, Pitch_bend_c, 1, 8192
3, 741452, Pitch_bend_c, 1, 8320
3, 741459, Pitch_bend_c, 1, 8320
3, 741472, Pitch_bend_c, 1, 8320
3, 741478, Pitch_bend_c, 1, 8448
3, 741491, Pitch_bend_c, 1, 8448
3, 741497, Pitch_bend_c, 1, 8448
3, 741510, Pitch_bend_c, 1, 8448
3, 741516, Pitch_bend_c, 1, 8448
3, 741529, Pitch_bend_c, 1, 8448
3, 741542, Pitch_bend_c, 1, 8448
3, 741548, Pitch_bend_c, 1, 8448
3, 741561, Pitch_bend_c, 1, 8448
3, 741568, Pitch_bend_c, 1, 8320
3, 741580, Pitch_bend_c, 1, 8320
3, 741587, Pitch_bend_c, 1, 8320
3, 741600, Pitch_bend_c, 1, 8192
3, 741612, Pitch_bend_c, 1, 8064
3, 741619, Pitch_bend_c, 1, 8064
3, 741632, Pitch_bend_c, 1, 8064
3, 741638, Pitch_bend_c, 1, 7936
3, 741651, Pitch_bend_c, 1, 7936
3, 741657, Pitch_bend_c, 1, 7936
3, 741670, Pitch_bend_c, 1, 7936
3, 741683, Pitch_bend_c, 1, 7936
3, 741689, Pitch_bend_c, 1, 7936
3, 741702, Pitch_bend_c, 1, 7936
3, 741708, Pitch_bend_c, 1, 7936
3, 741721, Pitch_bend_c, 1, 7936
3, 741728, Pitch_bend_c, 1, 8064
3, 741740, Pitch_bend_c, 1, 8064
3, 741747, Pitch_bend_c, 1, 8064
3, 741760, Pitch_bend_c, 1, 8192
3, 741772, Pitch_bend_c, 1, 8192
3, 741779, Pitch_bend_c, 1, 8192
3, 741792, Pitch_bend_c, 1, 8320
3, 741798, Pitch_bend_c, 1, 8320
3, 741811, Pitch_bend_c, 1, 8320
3, 741817, Pitch_bend_c, 1, 8320
3, 741830, Pitch_bend_c, 1, 8320
3, 741836, Pitch_bend_c, 1, 8320
3, 741849, Pitch_bend_c, 1, 8320
3, 741862, Pitch_bend_c, 1, 8320
3, 741868, Pitch_bend_c, 1, 8320
3, 741881, Pitch_bend_c, 1, 8320
3, 741888, Note_off_c, 1, 65, 80
3, 741888, Pitch_bend_c, 1, 8192
3, 741888, Note_on_c, 1, 67, 63
3, 742400, Note_off_c, 1, 67, 80
3, 742400, Note_on_c, 1, 65, 63
3, 742656, Note_on_c, 1, 60, 63
3, 742656, Pitch_bend_c, 1, 8192
3, 742707, Pitch_bend_c, 1, 8192
3, 742752, Pitch_bend_c, 1, 8192
3, 742796, Pitch_bend_c, 1, 8192
3, 742848, Pitch_bend_c, 1, 8192
3, 742899, Pitch_bend_c, 1, 8192
3, 742912, Note_off_c, 1, 65, 80
3, 742912, Note_on_c, 1, 62, 63
3, 742944, Pitch_bend_c, 1, 8192
3, 742988, Pitch_bend_c, 1, 8192
3, 743040, Pitch_bend_c, 1, 8192
3, 743091, Pitch_bend_c, 1, 8192
3, 743136, Pitch_bend_c, 1, 8192
3, 743168, Note_off_c, 1, 60, 80
3, 743180, Pitch_bend_c, 1, 8192
3, 743232, Pitch_bend_c, 1, 8192
3, 743283, Pitch_bend_c, 1, 8192
3, 743328, Pitch_bend_c, 1, 8192
3, 743372, Pitch_bend_c, 1, 8192
3, 743424, Note_off_c, 1, 62, 80
3, 743424, Pitch_bend_c, 1, 8192
3, 743936, Note_on_c, 1, 62, 63
3, 744192, Note_on_c, 1, 65, 63
3, 744192, Pitch_bend_c, 1, 8192
3, 744243, Pitch_bend_c, 1, 8192
3, 744288, Pitch_bend_c, 1, 8192
3, 744332, Pitch_bend_c, 1, 8192
3, 744384, Pitch_bend_c, 1, 8192
3, 744435, Pitch_bend_c, 1, 8192
3, 744448, Note_on_c, 1, 67, 63
3, 744480, Pitch_bend_c, 1, 8192
3, 744524, Pitch_bend_c, 1, 8192
3, 744576, Pitch_bend_c, 1, 8192
3, 744627, Pitch_bend_c, 1, 8192
3, 744672, Pitch_bend_c, 1, 8192
3, 744716, Pitch_bend_c, 1, 8192
3, 744768, Pitch_bend_c, 1, 8192
3, 744819, Pitch_bend_c, 1, 8192
3, 744864, Pitch_bend_c, 1, 8192
3, 744908, Pitch_bend_c, 1, 8192
3, 744960, Note_off_c, 1, 67, 80
3, 744960, Pitch_bend_c, 1, 8192
3, 744972, Pitch_bend_c, 1, 8192
3, 744979, Pitch_bend_c, 1, 8192
3, 744992, Pitch_bend_c, 1, 8192
3, 744998, Pitch_bend_c, 1, 8192
3, 745011, Pitch_bend_c, 1, 8192
3, 745017, Pitch_bend_c, 1, 8192
3, 745030, Pitch_bend_c, 1, 8192
3, 745036, Pitch_bend_c, 1, 8192
3, 745049, Pitch_bend_c, 1, 8192
3, 745062, Pitch_bend_c, 1, 8192
3, 745068, Pitch_bend_c, 1, 8192
3, 745081, Pitch_bend_c, 1, 8192
3, 745088, Pitch_bend_c, 1, 8192
3, 745100, Pitch_bend_c, 1, 8192
3, 745107, Pitch_bend_c, 1, 8192
3, 745120, Pitch_bend_c, 1, 8192
3, 745132, Pitch_bend_c, 1, 8192
3, 745139, Pitch_bend_c, 1, 8192
3, 745152, Pitch_bend_c, 1, 8192
3, 745158, Pitch_bend_c, 1, 8192
3, 745171, Pitch_bend_c, 1, 8192
3, 745177, Pitch_bend_c, 1, 8192
3, 745190, Pitch_bend_c, 1, 8192
3, 745203, Pitch_bend_c, 1, 8192
3, 745209, Pitch_bend_c, 1, 8192
3, 745222, Pitch_bend_c, 1, 8192
3, 745228, Pitch_bend_c, 1, 8192
3, 745241, Pitch_bend_c, 1, 8192
3, 745248, Pitch_bend_c, 1, 8192
3, 745260, Pitch_bend_c, 1, 8192
3, 745267, Pitch_bend_c, 1, 8192
3, 745280, Pitch_bend_c, 1, 8192
3, 745292, Pitch_bend_c, 1, 8320
3, 745299, Pitch_bend_c, 1, 8448
3, 745312, Pitch_bend_c, 1, 8576
3, 745318, Pitch_bend_c, 1, 8576
3, 745331, Pitch_bend_c, 1, 8704
3, 745337, Pitch_bend_c, 1, 8704
3, 745350, Pitch_bend_c, 1, 8832
3, 745356, Pitch_bend_c, 1, 8832
3, 745369, Pitch_bend_c, 1, 8832
3, 745382, Pitch_bend_c, 1, 8704
3, 745388, Pitch_bend_c, 1, 8704
3, 745401, Pitch_bend_c, 1, 8576
3, 745408, Pitch_bend_c, 1, 8576
3, 745420, Pitch_bend_c, 1, 8448
3, 745427, Pitch_bend_c, 1, 8320
3, 745440, Pitch_bend_c, 1, 8192
3, 745452, Pitch_bend_c, 1, 8064
3, 745459, Pitch_bend_c, 1, 7936
3, 745472, Pitch_bend_c, 1, 7808
3, 745478, Pitch_bend_c, 1, 7808
3, 745491, Pitch_bend_c, 1, 7680
3, 745497, Pitch_bend_c, 1, 7680
3, 745510, Pitch_bend_c, 1, 7552
3, 745523, Pitch_bend_c, 1, 7552
3, 745529, Pitch_bend_c, 1, 7552
3, 745542, Pitch_bend_c, 1, 7680
3, 745548, Pitch_bend_c, 1, 7680
3, 745561, Pitch_bend_c, 1, 7808
3, 745568, Pitch_bend_c, 1, 7808
3, 745580, Pitch_bend_c, 1, 7936
3, 745587, Pitch_bend_c, 1, 8064
3, 745600, Pitch_bend_c, 1, 8192
3, 745612, Pitch_bend_c, 1, 8320
3, 745619, Pitch_bend_c, 1, 8320
3, 745632, Pitch_bend_c, 1, 8448
3, 745638, Pitch_bend_c, 1, 8576
3, 745651, Pitch_bend_c, 1, 8576
3, 745657, Pitch_bend_c, 1, 8576
3, 745670, Pitch_bend_c, 1, 8704
3, 745676, Pitch_bend_c, 1, 8704
3, 745689, Pitch_bend_c, 1, 8704
3, 745702, Pitch_bend_c, 1, 8576
3, 745708, Pitch_bend_c, 1, 8576
3, 745721, Pitch_bend_c, 1, 8576
3, 745728, Pitch_bend_c, 1, 8448
3, 745740, Pitch_bend_c, 1, 8320
3, 745747, Pitch_bend_c, 1, 8320
3, 745760, Pitch_bend_c, 1, 8192
3, 745772, Pitch_bend_c, 1, 8064
3, 745779, Pitch_bend_c, 1, 8064
3, 745792, Pitch_bend_c, 1, 7936
3, 745798, Pitch_bend_c, 1, 7808
3, 745811, Pitch_bend_c, 1, 7808
3, 745817, Pitch_bend_c, 1, 7808
3, 745830, Pitch_bend_c, 1, 7680
3, 745843, Pitch_bend_c, 1, 7680
3, 745849, Pitch_bend_c, 1, 7680
3, 745862, Pitch_bend_c, 1, 7808
3, 745868, Pitch_bend_c, 1, 7808
3, 745881, Pitch_bend_c, 1, 7808
3, 745888, Pitch_bend_c, 1, 7936
3, 745900, Pitch_bend_c, 1, 8064
3, 745907, Pitch_bend_c, 1, 8064
3, 745920, Pitch_bend_c, 1, 8192
3, 745932, Pitch_bend_c, 1, 8320
3, 745939, Pitch_bend_c, 1, 8320
3, 745952, Pitch_bend_c, 1, 8448
3, 745958, Pitch_bend_c, 1, 8576
3, 745971, Pitch_bend_c, 1, 8576
3, 745977, Pitch_bend_c, 1, 8704
3, 745990, Pitch_bend_c, 1, 8704
3, 745996, Pitch_bend_c, 1, 8704
3, 746009, Pitch_bend_c, 1, 8704
3, 746022, Pitch_bend_c, 1, 8704
3, 746028, Pitch_bend_c, 1, 8576
3, 746041, Pitch_bend_c, 1, 8576
3, 746048, Pitch_bend_c, 1, 8448
3, 746060, Pitch_bend_c, 1, 8320
3, 746067, Pitch_bend_c, 1, 8320
3, 746080, Pitch_bend_c, 1, 8192
3, 746092, Pitch_bend_c, 1, 8064
3, 746099, Pitch_bend_c, 1, 8064
3, 746112, Pitch_bend_c, 1, 7936
3, 746118, Pitch_bend_c, 1, 7808
3, 746131, Pitch_bend_c, 1, 7808
3, 746137, Pitch_bend_c, 1, 7680
3, 746150, Pitch_bend_c, 1, 7680
3, 746163, Pitch_bend_c, 1, 7680
3, 746169, Pitch_bend_c, 1, 7680
3, 746182, Pitch_bend_c, 1, 7680
3, 746188, Pitch_bend_c, 1, 7808
3, 746201, Pitch_bend_c, 1, 7808
3, 746208, Pitch_bend_c, 1, 7936
3, 746220, Pitch_bend_c, 1, 8064
3, 746227, Pitch_bend_c, 1, 8064
3, 746240, Pitch_bend_c, 1, 8192
3, 746252, Pitch_bend_c, 1, 8320
3, 746259, Pitch_bend_c, 1, 8448
3, 746272, Pitch_bend_c, 1, 8576
3, 746278, Pitch_bend_c, 1, 8576
3, 746291, Pitch_bend_c, 1, 8704
3, 746297, Pitch_bend_c, 1, 8704
3, 746310, Pitch_bend_c, 1, 8704
3, 746316, Pitch_bend_c, 1, 8704
3, 746329, Pitch_bend_c, 1, 8704
3, 746342, Pitch_bend_c, 1, 8704
3, 746348, Pitch_bend_c, 1, 8704
3, 746361, Pitch_bend_c, 1, 8576
3, 746368, Pitch_bend_c, 1, 8576
3, 746380, Pitch_bend_c, 1, 8448
3, 746387, Pitch_bend_c, 1, 8320
3, 746400, Pitch_bend_c, 1, 8192
3, 746412, Pitch_bend_c, 1, 8064
3, 746419, Pitch_bend_c, 1, 7936
3, 746432, Pitch_bend_c, 1, 7808
3, 746438, Pitch_bend_c, 1, 7808
3, 746451, Pitch_bend_c, 1, 7680
3, 746457, Pitch_bend_c, 1, 7680
3, 746470, Pitch_bend_c, 1, 7680
3, 746483, Pitch_bend_c, 1, 7680
3, 746489, Pitch_bend_c, 1, 7680
3, 746496, Pitch_bend_c, 1, 8192
3, 746508, Pitch_bend_c, 1, 9600
3, 746515, Pitch_bend_c, 1, 9600
3, 746528, Pitch_bend_c, 1, 9600
3, 746534, Pitch_bend_c, 1, 9600
3, 746547, Pitch_bend_c, 1, 9600
3, 746553, Pitch_bend_c, 1, 9600
3, 746566, Pitch_bend_c, 1, 9600
3, 746572, Pitch_bend_c, 1, 9600
3, 746585, Pitch_bend_c, 1, 9600
3, 746598, Pitch_bend_c, 1, 9600
3, 746604, Pitch_bend_c, 1, 9600
3, 746617, Pitch_bend_c, 1, 9600
3, 746624, Pitch_bend_c, 1, 9600
3, 746636, Pitch_bend_c, 1, 9600
3, 746643, Pitch_bend_c, 1, 9600
3, 746656, Pitch_bend_c, 1, 9600
3, 746668, Pitch_bend_c, 1, 9600
3, 746675, Pitch_bend_c, 1, 9600
3, 746688, Pitch_bend_c, 1, 9600
3, 746694, Pitch_bend_c, 1, 9600
3, 746707, Pitch_bend_c, 1, 9600
3, 746713, Pitch_bend_c, 1, 9600
3, 746726, Pitch_bend_c, 1, 9600
3, 746739, Pitch_bend_c, 1, 9600
3, 746745, Pitch_bend_c, 1, 9600
3, 746758, Pitch_bend_c, 1, 9600
3, 746764, Pitch_bend_c, 1, 9600
3, 746777, Pitch_bend_c, 1, 9600
3, 746784, Pitch_bend_c, 1, 9600
3, 746796, Pitch_bend_c, 1, 9600
3, 746803, Pitch_bend_c, 1, 9600
3, 746816, Pitch_bend_c, 1, 9600
3, 746828, Pitch_bend_c, 1, 9728
3, 746835, Pitch_bend_c, 1, 9728
3, 746848, Pitch_bend_c, 1, 9856
3, 746854, Pitch_bend_c, 1, 9984
3, 746867, Pitch_bend_c, 1, 9984
3, 746873, Pitch_bend_c, 1, 9984
3, 746886, Pitch_bend_c, 1, 10112
3, 746892, Pitch_bend_c, 1, 10112
3, 746905, Pitch_bend_c, 1, 10112
3, 746918, Pitch_bend_c, 1, 9984
3, 746924, Pitch_bend_c, 1, 9984
3, 746937, Pitch_bend_c, 1, 9984
3, 746944, Pitch_bend_c, 1, 9856
3, 746956, Pitch_bend_c, 1, 9728
3, 746963, Pitch_bend_c, 1, 9728
3, 746976, Pitch_bend_c, 1, 9600
3, 746988, Pitch_bend_c, 1, 9472
3, 746995, Pitch_bend_c, 1, 9472
3, 747008, Pitch_bend_c, 1, 9344
3, 747014, Pitch_bend_c, 1, 9216
3, 747027, Pitch_bend_c, 1, 9216
3, 747033, Pitch_bend_c, 1, 9216
3, 747046, Pitch_bend_c, 1, 9088
3, 747059, Pitch_bend_c, 1, 9088
3, 747065, Pitch_bend_c, 1, 9088
3, 747078, Pitch_bend_c, 1, 9216
3, 747084, Pitch_bend_c, 1, 9216
3, 747097, Pitch_bend_c, 1, 9216
3, 747104, Pitch_bend_c, 1, 9344
3, 747116, Pitch_bend_c, 1, 9472
3, 747123, Pitch_bend_c, 1, 9472
3, 747136, Pitch_bend_c, 1, 9600
3, 747148, Pitch_bend_c, 1, 9728
3, 747155, Pitch_bend_c, 1, 9728
3, 747168, Pitch_bend_c, 1, 9856
3, 747174, Pitch_bend_c, 1, 9984
3, 747187, Pitch_bend_c, 1, 9984
3, 747193, Pitch_bend_c, 1, 10112
3, 747206, Pitch_bend_c, 1, 10112
3, 747212, Pitch_bend_c, 1, 10112
3, 747225, Pitch_bend_c, 1, 10112
3, 747238, Pitch_bend_c, 1, 10112
3, 747244, Pitch_bend_c, 1, 9984
3, 747257, Pitch_bend_c, 1, 9984
3, 747264, Pitch_bend_c, 1, 9856
3, 747276, Pitch_bend_c, 1, 9728
3, 747283, Pitch_bend_c, 1, 9728
3, 747296, Pitch_bend_c, 1, 9600
3, 747308, Pitch_bend_c, 1, 9472
3, 747315, Pitch_bend_c, 1, 9472
3, 747328, Pitch_bend_c, 1, 9344
3, 747334, Pitch_bend_c, 1, 9216
3, 747347, Pitch_bend_c, 1, 9216
3, 747353, Pitch_bend_c, 1, 9088
3, 747366, Pitch_bend_c, 1, 9088
3, 747379, Pitch_bend_c, 1, 9088
3, 747385, Pitch_bend_c, 1, 9088
3, 747398, Pitch_bend_c, 1, 9088
3, 747404, Pitch_bend_c, 1, 9216
3, 747417, Pitch_bend_c, 1, 9216
3, 747424, Pitch_bend_c, 1, 9344
3, 747436, Pitch_bend_c, 1, 9472
3, 747443, Pitch_bend_c, 1, 9472
3, 747456, Pitch_bend_c, 1, 9600
3, 747468, Pitch_bend_c, 1, 9728
3, 747475, Pitch_bend_c, 1, 9728
3, 747488, Pitch_bend_c, 1, 9856
3, 747494, Pitch_bend_c, 1, 9984
3, 747507, Pitch_bend_c, 1, 9984
3, 747513, Pitch_bend_c, 1, 10112
3, 747526, Pitch_bend_c, 1, 10112
3, 747532, Pitch_bend_c, 1, 10112
3, 747545, Pitch_bend_c, 1, 10112
3, 747558, Pitch_bend_c, 1, 10112
3, 747564, Pitch_bend_c, 1, 9984
3, 747577, Pitch_bend_c, 1, 9984
3, 747584, Pitch_bend_c, 1, 9856
3, 747596, Pitch_bend_c, 1, 9728
3, 747603, Pitch_bend_c, 1, 9728
3, 747616, Pitch_bend_c, 1, 9600
3, 747628, Pitch_bend_c, 1, 9472
3, 747635, Pitch_bend_c, 1, 9472
3, 747648, Pitch_bend_c, 1, 9344
3, 747654, Pitch_bend_c, 1, 9216
3, 747667, Pitch_bend_c, 1, 9216
3, 747673, Pitch_bend_c, 1, 9088
3, 747686, Pitch_bend_c, 1, 9088
3, 747699, Pitch_bend_c, 1, 9088
3, 747705, Pitch_bend_c, 1, 9088
3, 747718, Pitch_bend_c, 1, 9088
3, 747724, Pitch_bend_c, 1, 9216
3, 747737, Pitch_bend_c, 1, 9216
3, 747744, Pitch_bend_c, 1, 9344
3, 747756, Pitch_bend_c, 1, 9472
3, 747763, Pitch_bend_c, 1, 9472
3, 747776, Pitch_bend_c, 1, 9600
3, 747788, Pitch_bend_c, 1, 9728
3, 747795, Pitch_bend_c, 1, 9728
3, 747808, Pitch_bend_c, 1, 9856
3, 747814, Pitch_bend_c, 1, 9984
3, 747827, Pitch_bend_c, 1, 9984
3, 747833, Pitch_bend_c, 1, 9984
3, 747846, Pitch_bend_c, 1, 10112
3, 747852, Pitch_bend_c, 1, 10112
3, 747865, Pitch_bend_c, 1, 10112
3, 747878, Pitch_bend_c, 1, 9984
3, 747884, Pitch_bend_c, 1, 9984
3, 747897, Pitch_bend_c, 1, 9984
3, 747904, Pitch_bend_c, 1, 9856
3, 747916, Pitch_bend_c, 1, 9728
3, 747923, Pitch_bend_c, 1, 9728
3, 747936, Pitch_bend_c, 1, 9600
3, 747948, Pitch_bend_c, 1, 9472
3, 747955, Pitch_bend_c, 1, 9472
3, 747968, Pitch_bend_c, 1, 9344
3, 747974, Pitch_bend_c, 1, 9216
3, 747987, Pitch_bend_c, 1, 9216
3, 747993, Pitch_bend_c, 1, 9216
3, 748006, Pitch_bend_c, 1, 9088
3, 748019, Pitch_bend_c, 1, 9088
3, 748025, Pitch_bend_c, 1, 9088
3, 748032, Note_off_c, 1, 65, 80
3, 748032, Pitch_bend_c, 1, 8192
3, 748032, Note_on_c, 1, 67, 63
3, 748544, Note_off_c, 1, 67, 80
3, 748544, Note_on_c, 1, 65, 63
3, 748800, Note_on_c, 1, 60, 63
3, 748800, Pitch_bend_c, 1, 8192
3, 748851, Pitch_bend_c, 1, 8192
3, 748896, Pitch_bend_c, 1, 8192
3, 748940, Pitch_bend_c, 1, 8192
3, 748992, Pitch_bend_c, 1, 8192
3, 749043, Pitch_bend_c, 1, 8192
3, 749056, Note_off_c, 1, 65, 80
3, 749056, Note_on_c, 1, 62, 63
3, 749088, Pitch_bend_c, 1, 8192
3, 749132, Pitch_bend_c, 1, 8192
3, 749184, Pitch_bend_c, 1, 8192
3, 749235, Pitch_bend_c, 1, 8192
3, 749280, Pitch_bend_c, 1, 8192
3, 749312, Note_off_c, 1, 60, 80
3, 749324, Pitch_bend_c, 1, 8192
3, 749376, Pitch_bend_c, 1, 8192
3, 749427, Pitch_bend_c, 1, 8192
3, 749472, Pitch_bend_c, 1, 8192
3, 749516, Pitch_bend_c, 1, 8192
3, 749568, Note_off_c, 1, 62, 80
3, 749568, Pitch_bend_c, 1, 8192
3, 750080, Note_on_c, 1, 62, 63
3, 750592, Note_off_c, 1, 62, 80
3, 750592, Note_on_c, 1, 67, 63
3, 751104, Note_off_c, 1, 67, 80
3, 751104, Note_on_c, 1, 70, 63
3, 751104, Pitch_bend_c, 1, 8192
3, 751206, Pitch_bend_c, 1, 8448
3, 751308, Pitch_bend_c, 1, 9344
3, 751411, Pitch_bend_c, 1, 9600
3, 752640, Note_off_c, 1, 70, 80
3, 752640, Pitch_bend_c, 1, 8192
3, 752640, Note_on_c, 1, 67, 63
3, 753152, Note_off_c, 1, 67, 80
3, 753152, Note_on_c, 1, 65, 63
3, 753408, Note_on_c, 1, 60, 63
3, 753408, Pitch_bend_c, 1, 8192
3, 753459, Pitch_bend_c, 1, 8192
3, 753504, Pitch_bend_c, 1, 8192
3, 753548, Pitch_bend_c, 1, 8192
3, 753600, Pitch_bend_c, 1, 8192
3, 753651, Pitch_bend_c, 1, 8192
3, 753664, Note_off_c, 1, 65, 80
3, 753664, Note_on_c, 1, 62, 63
3, 753696, Pitch_bend_c, 1, 8192
3, 753740, Pitch_bend_c, 1, 8192
3, 753792, Pitch_bend_c, 1, 8192
3, 753843, Pitch_bend_c, 1, 8192
3, 753888, Pitch_bend_c, 1, 8192
3, 753932, Pitch_bend_c, 1, 8192
3, 753984, Pitch_bend_c, 1, 8192
3, 754035, Pitch_bend_c, 1, 8192
3, 754080, Pitch_bend_c, 1, 8192
3, 754124, Pitch_bend_c, 1, 8192
3, 754176, Note_off_c, 1, 62, 80
3, 754176, Pitch_bend_c, 1, 8192
3, 754688, Note_off_c, 1, 60, 80
3, 754688, Note_on_c, 1, 62, 63
3, 755200, Note_off_c, 1, 62, 80
3, 755200, Note_on_c, 1, 62, 63
3, 755712, Note_off_c, 1, 62, 80
3, 755712, Note_on_c, 1, 61, 63
3, 756096, Note_off_c, 1, 61, 80
3, 756096, Note_on_c, 1, 60, 50
3, 756480, Note_off_c, 1, 60, 80
3, 756480, Note_on_c, 1, 58, 63
3, 756864, Note_off_c, 1, 58, 80
3, 756864, Note_on_c, 1, 55, 63
3, 757248, Note_off_c, 1, 55, 80
3, 757248, Pitch_bend_c, 1, 8192
3, 757248, Note_on_c, 1, 58, 63
3, 757260, Pitch_bend_c, 1, 8192
3, 757267, Pitch_bend_c, 1, 8192
3, 757280, Pitch_bend_c, 1, 8192
3, 757286, Pitch_bend_c, 1, 8192
3, 757299, Pitch_bend_c, 1, 8192
3, 757305, Pitch_bend_c, 1, 8192
3, 757318, Pitch_bend_c, 1, 8192
3, 757324, Pitch_bend_c, 1, 8192
3, 757337, Pitch_bend_c, 1, 8192
3, 757350, Pitch_bend_c, 1, 8192
3, 757356, Pitch_bend_c, 1, 8192
3, 757369, Pitch_bend_c, 1, 8192
3, 757376, Pitch_bend_c, 1, 8192
3, 757388, Pitch_bend_c, 1, 8192
3, 757395, Pitch_bend_c, 1, 8192
3, 757408, Pitch_bend_c, 1, 8192
3, 757420, Pitch_bend_c, 1, 8192
3, 757427, Pitch_bend_c, 1, 8192
3, 757440, Pitch_bend_c, 1, 8192
3, 757446, Pitch_bend_c, 1, 8192
3, 757459, Pitch_bend_c, 1, 8192
3, 757465, Pitch_bend_c, 1, 8192
3, 757478, Pitch_bend_c, 1, 8192
3, 757491, Pitch_bend_c, 1, 8192
3, 757497, Pitch_bend_c, 1, 8192
3, 757510, Pitch_bend_c, 1, 8192
3, 757516, Pitch_bend_c, 1, 8192
3, 757529, Pitch_bend_c, 1, 8192
3, 757536, Pitch_bend_c, 1, 8192
3, 757548, Pitch_bend_c, 1, 8192
3, 757555, Pitch_bend_c, 1, 8192
3, 757568, Pitch_bend_c, 1, 8192
3, 757580, Pitch_bend_c, 1, 8320
3, 757587, Pitch_bend_c, 1, 8448
3, 757600, Pitch_bend_c, 1, 8576
3, 757606, Pitch_bend_c, 1, 8576
3, 757619, Pitch_bend_c, 1, 8704
3, 757625, Pitch_bend_c, 1, 8704
3, 757638, Pitch_bend_c, 1, 8704
3, 757644, Pitch_bend_c, 1, 8704
3, 757657, Pitch_bend_c, 1, 8704
3, 757670, Pitch_bend_c, 1, 8704
3, 757676, Pitch_bend_c, 1, 8704
3, 757689, Pitch_bend_c, 1, 8576
3, 757696, Pitch_bend_c, 1, 8576
3, 757708, Pitch_bend_c, 1, 8448
3, 757715, Pitch_bend_c, 1, 8320
3, 757728, Pitch_bend_c, 1, 8192
3, 757740, Pitch_bend_c, 1, 8064
3, 757747, Pitch_bend_c, 1, 7936
3, 757760, Pitch_bend_c, 1, 7808
3, 757766, Pitch_bend_c, 1, 7808
3, 757779, Pitch_bend_c, 1, 7680
3, 757785, Pitch_bend_c, 1, 7680
3, 757798, Pitch_bend_c, 1, 7680
3, 757811, Pitch_bend_c, 1, 7680
3, 757817, Pitch_bend_c, 1, 7680
3, 757830, Pitch_bend_c, 1, 7680
3, 757836, Pitch_bend_c, 1, 7680
3, 757849, Pitch_bend_c, 1, 7808
3, 757856, Pitch_bend_c, 1, 7808
3, 757868, Pitch_bend_c, 1, 7936
3, 757875, Pitch_bend_c, 1, 8064
3, 757888, Pitch_bend_c, 1, 8192
3, 757900, Pitch_bend_c, 1, 8320
3, 757907, Pitch_bend_c, 1, 8320
3, 757920, Pitch_bend_c, 1, 8448
3, 757926, Pitch_bend_c, 1, 8576
3, 757939, Pitch_bend_c, 1, 8576
3, 757945, Pitch_bend_c, 1, 8704
3, 757958, Pitch_bend_c, 1, 8704
3, 757964, Pitch_bend_c, 1, 8704
3, 757977, Pitch_bend_c, 1, 8704
3, 757990, Pitch_bend_c, 1, 8704
3, 757996, Pitch_bend_c, 1, 8576
3, 758009, Pitch_bend_c, 1, 8576
3, 758016, Pitch_bend_c, 1, 8448
3, 758028, Pitch_bend_c, 1, 8320
3, 758035, Pitch_bend_c, 1, 8320
3, 758048, Pitch_bend_c, 1, 8192
3, 758060, Pitch_bend_c, 1, 8064
3, 758067, Pitch_bend_c, 1, 8064
3, 758080, Pitch_bend_c, 1, 7936
3, 758086, Pitch_bend_c, 1, 7808
3, 758099, Pitch_bend_c, 1, 7808
3, 758105, Pitch_bend_c, 1, 7680
3, 758118, Pitch_bend_c, 1, 7680
3, 758131, Pitch_bend_c, 1, 7680
3, 758137, Pitch_bend_c, 1, 7680
3, 758150, Pitch_bend_c, 1, 7680
3, 758156, Pitch_bend_c, 1, 7808
3, 758169, Pitch_bend_c, 1, 7808
3, 758176, Pitch_bend_c, 1, 7936
3, 758188, Pitch_bend_c, 1, 8064
3, 758195, Pitch_bend_c, 1, 8064
3, 758208, Pitch_bend_c, 1, 8192
3, 758220, Pitch_bend_c, 1, 8320
3, 758227, Pitch_bend_c, 1, 8320
3, 758240, Pitch_bend_c, 1, 8448
3, 758246, Pitch_bend_c, 1, 8576
3, 758259, Pitch_bend_c, 1, 8576
3, 758265, Pitch_bend_c, 1, 8704
3, 758278, Pitch_bend_c, 1, 8704
3, 758284, Pitch_bend_c, 1, 8704
3, 758297, Pitch_bend_c, 1, 8704
3, 758310, Pitch_bend_c, 1, 8704
3, 758316, Pitch_bend_c, 1, 8576
3, 758329, Pitch_bend_c, 1, 8576
3, 758336, Pitch_bend_c, 1, 8448
3, 758348, Pitch_bend_c, 1, 8320
3, 758355, Pitch_bend_c, 1, 8320
3, 758368, Pitch_bend_c, 1, 8192
3, 758380, Pitch_bend_c, 1, 8064
3, 758387, Pitch_bend_c, 1, 8064
3, 758400, Pitch_bend_c, 1, 7936
3, 758406, Pitch_bend_c, 1, 7808
3, 758419, Pitch_bend_c, 1, 7808
3, 758425, Pitch_bend_c, 1, 7680
3, 758438, Pitch_bend_c, 1, 7680
3, 758451, Pitch_bend_c, 1, 7680
3, 758457, Pitch_bend_c, 1, 7680
3, 758470, Pitch_bend_c, 1, 7680
3, 758476, Pitch_bend_c, 1, 7808
3, 758489, Pitch_bend_c, 1, 7808
3, 758496, Pitch_bend_c, 1, 7936
3, 758508, Pitch_bend_c, 1, 8064
3, 758515, Pitch_bend_c, 1, 8064
3, 758528, Pitch_bend_c, 1, 8192
3, 758540, Pitch_bend_c, 1, 8320
3, 758547, Pitch_bend_c, 1, 8320
3, 758560, Pitch_bend_c, 1, 8448
3, 758566, Pitch_bend_c, 1, 8576
3, 758579, Pitch_bend_c, 1, 8576
3, 758585, Pitch_bend_c, 1, 8576
3, 758598, Pitch_bend_c, 1, 8704
3, 758604, Pitch_bend_c, 1, 8704
3, 758617, Pitch_bend_c, 1, 8704
3, 758630, Pitch_bend_c, 1, 8576
3, 758636, Pitch_bend_c, 1, 8576
3, 758649, Pitch_bend_c, 1, 8576
3, 758656, Pitch_bend_c, 1, 8448
3, 758668, Pitch_bend_c, 1, 8320
3, 758675, Pitch_bend_c, 1, 8320
3, 758688, Pitch_bend_c, 1, 8192
3, 758700, Pitch_bend_c, 1, 8064
3, 758707, Pitch_bend_c, 1, 8064
3, 758720, Pitch_bend_c, 1, 7936
3, 758726, Pitch_bend_c, 1, 7808
3, 758739, Pitch_bend_c, 1, 7808
3, 758745, Pitch_bend_c, 1, 7808
3, 758758, Pitch_bend_c, 1, 7680
3, 758771, Pitch_bend_c, 1, 7680
3, 758777, Pitch_bend_c, 1, 7680
3, 758784, Note_off_c, 1, 58, 80
3, 758784, Pitch_bend_c, 1, 8192
3, 758784, Note_on_c, 1, 55, 63
3, 759296, Note_off_c, 1, 55, 80
3, 759296, Note_on_c, 1, 53, 63
3, 759808, Note_off_c, 1, 53, 80
3, 759808, Note_on_c, 1, 50, 63
3, 760320, Note_off_c, 1, 50, 80
3, 760320, Note_on_c, 1, 49, 63
3, 760832, Note_off_c, 1, 49, 80
3, 760832, Note_on_c, 1, 48, 63
3, 761344, Note_on_c, 1, 46, 63
3, 761856, Note_off_c, 1, 46, 80
3, 761856, Pitch_bend_c, 1, 8192
3, 761856, Note_on_c, 1, 43, 63
3, 761868, Pitch_bend_c, 1, 8192
3, 761875, Pitch_bend_c, 1, 8192
3, 761888, Pitch_bend_c, 1, 8192
3, 761894, Pitch_bend_c, 1, 8192
3, 761907, Pitch_bend_c, 1, 8192
3, 761913, Pitch_bend_c, 1, 8192
3, 761926, Pitch_bend_c, 1, 8192
3, 761932, Pitch_bend_c, 1, 8192
3, 761945, Pitch_bend_c, 1, 8192
3, 761958, Pitch_bend_c, 1, 8192
3, 761964, Pitch_bend_c, 1, 8192
3, 761977, Pitch_bend_c, 1, 8192
3, 761984, Pitch_bend_c, 1, 8192
3, 761996, Pitch_bend_c, 1, 8192
3, 762003, Pitch_bend_c, 1, 8192
3, 762016, Pitch_bend_c, 1, 8192
3, 762028, Pitch_bend_c, 1, 8192
3, 762035, Pitch_bend_c, 1, 8192
3, 762048, Pitch_bend_c, 1, 8192
3, 762054, Pitch_bend_c, 1, 8192
3, 762067, Pitch_bend_c, 1, 8192
3, 762073, Pitch_bend_c, 1, 8192
3, 762086, Pitch_bend_c, 1, 8192
3, 762099, Pitch_bend_c, 1, 8192
3, 762105, Pitch_bend_c, 1, 8192
3, 762118, Pitch_bend_c, 1, 8192
3, 762124, Pitch_bend_c, 1, 8192
3, 762137, Pitch_bend_c, 1, 8192
3, 762144, Pitch_bend_c, 1, 8192
3, 762156, Pitch_bend_c, 1, 8192
3, 762163, Pitch_bend_c, 1, 8192
3, 762176, Pitch_bend_c, 1, 8192
3, 762188, Pitch_bend_c, 1, 8320
3, 762195, Pitch_bend_c, 1, 8320
3, 762208, Pitch_bend_c, 1, 8320
3, 762214, Pitch_bend_c, 1, 8320
3, 762227, Pitch_bend_c, 1, 8448
3, 762233, Pitch_bend_c, 1, 8448
3, 762246, Pitch_bend_c, 1, 8448
3, 762252, Pitch_bend_c, 1, 8448
3, 762265, Pitch_bend_c, 1, 8448
3, 762278, Pitch_bend_c, 1, 8448
3, 762284, Pitch_bend_c, 1, 8448
3, 762297, Pitch_bend_c, 1, 8320
3, 762304, Pitch_bend_c, 1, 8320
3, 762316, Pitch_bend_c, 1, 8320
3, 762323, Pitch_bend_c, 1, 8320
3, 762336, Pitch_bend_c, 1, 8192
3, 762348, Pitch_bend_c, 1, 8064
3, 762355, Pitch_bend_c, 1, 8064
3, 762368, Pitch_bend_c, 1, 8064
3, 762374, Pitch_bend_c, 1, 8064
3, 762387, Pitch_bend_c, 1, 7936
3, 762393, Pitch_bend_c, 1, 7936
3, 762406, Pitch_bend_c, 1, 7936
3, 762419, Pitch_bend_c, 1, 7936
3, 762425, Pitch_bend_c, 1, 7936
3, 762438, Pitch_bend_c, 1, 7936
3, 762444, Pitch_bend_c, 1, 7936
3, 762457, Pitch_bend_c, 1, 8064
3, 762464, Pitch_bend_c, 1, 8064
3, 762476, Pitch_bend_c, 1, 8064
3, 762483, Pitch_bend_c, 1, 8064
3, 762496, Pitch_bend_c, 1, 8192
3, 762508, Pitch_bend_c, 1, 8320
3, 762515, Pitch_bend_c, 1, 8320
3, 762528, Pitch_bend_c, 1, 8448
3, 762534, Pitch_bend_c, 1, 8448
3, 762547, Pitch_bend_c, 1, 8576
3, 762553, Pitch_bend_c, 1, 8576
3, 762566, Pitch_bend_c, 1, 8704
3, 762572, Pitch_bend_c, 1, 8704
3, 762585, Pitch_bend_c, 1, 8704
3, 762598, Pitch_bend_c, 1, 8576
3, 762604, Pitch_bend_c, 1, 8576
3, 762617, Pitch_bend_c, 1, 8448
3, 762624, Pitch_bend_c, 1, 8448
3, 762636, Pitch_bend_c, 1, 8320
3, 762643, Pitch_bend_c, 1, 8320
3, 762656, Pitch_bend_c, 1, 8192
3, 762668, Pitch_bend_c, 1, 8064
3, 762675, Pitch_bend_c, 1, 8064
3, 762688, Pitch_bend_c, 1, 7936
3, 762694, Pitch_bend_c, 1, 7936
3, 762707, Pitch_bend_c, 1, 7808
3, 762713, Pitch_bend_c, 1, 7808
3, 762726, Pitch_bend_c, 1, 7680
3, 762739, Pitch_bend_c, 1, 7680
3, 762745, Pitch_bend_c, 1, 7680
3, 762758, Pitch_bend_c, 1, 7808
3, 762764, Pitch_bend_c, 1, 7808
3, 762777, Pitch_bend_c, 1, 7936
3, 762784, Pitch_bend_c, 1, 7936
3, 762796, Pitch_bend_c, 1, 8064
3, 762803, Pitch_bend_c, 1, 8064
3, 762816, Pitch_bend_c, 1, 8192
3, 762828, Pitch_bend_c, 1, 8320
3, 762835, Pitch_bend_c, 1, 8320
3, 762848, Pitch_bend_c, 1, 8448
3, 762854, Pitch_bend_c, 1, 8576
3, 762867, Pitch_bend_c, 1, 8704
3, 762873, Pitch_bend_c, 1, 8704
3, 762886, Pitch_bend_c, 1, 8704
3, 762892, Pitch_bend_c, 1, 8704
3, 762905, Pitch_bend_c, 1, 8704
3, 762918, Pitch_bend_c, 1, 8704
3, 762924, Pitch_bend_c, 1, 8704
3, 762937, Pitch_bend_c, 1, 8576
3, 762944, Pitch_bend_c, 1, 8448
3, 762956, Pitch_bend_c, 1, 8320
3, 762963, Pitch_bend_c, 1, 8320
3, 762976, Pitch_bend_c, 1, 8192
3, 762988, Pitch_bend_c, 1, 8064
3, 762995, Pitch_bend_c, 1, 8064
3, 763008, Pitch_bend_c, 1, 7936
3, 763014, Pitch_bend_c, 1, 7808
3, 763027, Pitch_bend_c, 1, 7680
3, 763033, Pitch_bend_c, 1, 7680
3, 763046, Pitch_bend_c, 1, 7680
3, 763059, Pitch_bend_c, 1, 7680
3, 763065, Pitch_bend_c, 1, 7680
3, 763078, Pitch_bend_c, 1, 7680
3, 763084, Pitch_bend_c, 1, 7680
3, 763097, Pitch_bend_c, 1, 7808
3, 763104, Pitch_bend_c, 1, 7936
3, 763116, Pitch_bend_c, 1, 8064
3, 763123, Pitch_bend_c, 1, 8064
3, 763136, Pitch_bend_c, 1, 8192
3, 763148, Pitch_bend_c, 1, 8320
3, 763155, Pitch_bend_c, 1, 8320
3, 763168, Pitch_bend_c, 1, 8448
3, 763174, Pitch_bend_c, 1, 8576
3, 763187, Pitch_bend_c, 1, 8704
3, 763193, Pitch_bend_c, 1, 8704
3, 763206, Pitch_bend_c, 1, 8704
3, 763212, Pitch_bend_c, 1, 8704
3, 763225, Pitch_bend_c, 1, 8704
3, 763238, Pitch_bend_c, 1, 8704
3, 763244, Pitch_bend_c, 1, 8704
3, 763257, Pitch_bend_c, 1, 8576
3, 763264, Pitch_bend_c, 1, 8448
3, 763276, Pitch_bend_c, 1, 8320
3, 763283, Pitch_bend_c, 1, 8320
3, 763296, Pitch_bend_c, 1, 8192
3, 763308, Pitch_bend_c, 1, 8064
3, 763315, Pitch_bend_c, 1, 8064
3, 763328, Pitch_bend_c, 1, 7936
3, 763334, Pitch_bend_c, 1, 7808
3, 763347, Pitch_bend_c, 1, 7680
3, 763353, Pitch_bend_c, 1, 7680
3, 763366, Pitch_bend_c, 1, 7680
3, 763379, Pitch_bend_c, 1, 7680
3, 763385, Pitch_bend_c, 1, 7680
3, 763398, Pitch_bend_c, 1, 7680
3, 763404, Pitch_bend_c, 1, 7680
3, 763417, Pitch_bend_c, 1, 7808
3, 763424, Pitch_bend_c, 1, 7936
3, 763436, Pitch_bend_c, 1, 8064
3, 763443, Pitch_bend_c, 1, 8064
3, 763456, Pitch_bend_c, 1, 8192
3, 763468, Pitch_bend_c, 1, 8320
3, 763475, Pitch_bend_c, 1, 8448
3, 763488, Pitch_bend_c, 1, 8576
3, 763494, Pitch_bend_c, 1, 8576
3, 763507, Pitch_bend_c, 1, 8704
3, 763513, Pitch_bend_c, 1, 8704
3, 763526, Pitch_bend_c, 1, 8704
3, 763532, Pitch_bend_c, 1, 8704
3, 763545, Pitch_bend_c, 1, 8704
3, 763558, Pitch_bend_c, 1, 8704
3, 763564, Pitch_bend_c, 1, 8704
3, 763577, Pitch_bend_c, 1, 8576
3, 763584, Pitch_bend_c, 1, 8576
3, 763596, Pitch_bend_c, 1, 8448
3, 763603, Pitch_bend_c, 1, 8320
3, 763616, Pitch_bend_c, 1, 8192
3, 763628, Pitch_bend_c, 1, 8064
3, 763635, Pitch_bend_c, 1, 7936
3, 763648, Pitch_bend_c, 1, 7808
3, 763654, Pitch_bend_c, 1, 7808
3, 763667, Pitch_bend_c, 1, 7680
3, 763673, Pitch_bend_c, 1, 7680
3, 763686, Pitch_bend_c, 1, 7680
3, 763699, Pitch_bend_c, 1, 7680
3, 763705, Pitch_bend_c, 1, 7680
3, 763718, Pitch_bend_c, 1, 7680
3, 763724, Pitch_bend_c, 1, 7680
3, 763737, Pitch_bend_c, 1, 7808
3, 763744, Pitch_bend_c, 1, 7808
3, 763756, Pitch_bend_c, 1, 7936
3, 763763, Pitch_bend_c, 1, 8064
3, 763776, Pitch_bend_c, 1, 8192
3, 763788, Pitch_bend_c, 1, 8320
3, 763795, Pitch_bend_c, 1, 8320
3, 763808, Pitch_bend_c, 1, 8448
3, 763814, Pitch_bend_c, 1, 8576
3, 763827, Pitch_bend_c, 1, 8576
3, 763833, Pitch_bend_c, 1, 8704
3, 763846, Pitch_bend_c, 1, 8704
3, 763852, Pitch_bend_c, 1, 8704
3, 763865, Pitch_bend_c, 1, 8704
3, 763878, Pitch_bend_c, 1, 8704
3, 763884, Pitch_bend_c, 1, 8576
3, 763897, Pitch_bend_c, 1, 8576
3, 763904, Pitch_bend_c, 1, 8448
3, 763916, Pitch_bend_c, 1, 8320
3, 763923, Pitch_bend_c, 1, 8320
3, 763936, Pitch_bend_c, 1, 8192
3, 763948, Pitch_bend_c, 1, 8064
3, 763955, Pitch_bend_c, 1, 8064
3, 763968, Pitch_bend_c, 1, 7936
3, 763974, Pitch_bend_c, 1, 7808
3, 763987, Pitch_bend_c, 1, 7808
3, 763993, Pitch_bend_c, 1, 7680
3, 764006, Pitch_bend_c, 1, 7680
3, 764019, Pitch_bend_c, 1, 7680
3, 764025, Pitch_bend_c, 1, 7680
3, 764038, Pitch_bend_c, 1, 7680
3, 764044, Pitch_bend_c, 1, 7808
3, 764057, Pitch_bend_c, 1, 7808
3, 764064, Pitch_bend_c, 1, 7936
3, 764076, Pitch_bend_c, 1, 8064
3, 764083, Pitch_bend_c, 1, 8064
3, 764096, Pitch_bend_c, 1, 8192
3, 764108, Pitch_bend_c, 1, 8320
3, 764115, Pitch_bend_c, 1, 8448
3, 764128, Pitch_bend_c, 1, 8576
3, 764134, Pitch_bend_c, 1, 8576
3, 764147, Pitch_bend_c, 1, 8704
3, 764153, Pitch_bend_c, 1, 8704
3, 764166, Pitch_bend_c, 1, 8704
3, 764172, Pitch_bend_c, 1, 8704
3, 764185, Pitch_bend_c, 1, 8704
3, 764198, Pitch_bend_c, 1, 8704
3, 764204, Pitch_bend_c, 1, 8704
3, 764217, Pitch_bend_c, 1, 8576
3, 764224, Pitch_bend_c, 1, 8576
3, 764236, Pitch_bend_c, 1, 8448
3, 764243, Pitch_bend_c, 1, 8320
3, 764256, Pitch_bend_c, 1, 8192
3, 764268, Pitch_bend_c, 1, 8064
3, 764275, Pitch_bend_c, 1, 7936
3, 764288, Pitch_bend_c, 1, 7808
3, 764294, Pitch_bend_c, 1, 7808
3, 764307, Pitch_bend_c, 1, 7680
3, 764313, Pitch_bend_c, 1, 7680
3, 764326, Pitch_bend_c, 1, 7680
3, 764339, Pitch_bend_c, 1, 7680
3, 764345, Pitch_bend_c, 1, 7680
3, 764358, Pitch_bend_c, 1, 7680
3, 764364, Pitch_bend_c, 1, 7680
3, 764377, Pitch_bend_c, 1, 7808
3, 764384, Pitch_bend_c, 1, 7808
3, 764396, Pitch_bend_c, 1, 7936
3, 764403, Pitch_bend_c, 1, 8064
3, 764416, Pitch_bend_c, 1, 8192
3, 764428, Pitch_bend_c, 1, 8320
3, 764435, Pitch_bend_c, 1, 8320
3, 764448, Pitch_bend_c, 1, 8448
3, 764454, Pitch_bend_c, 1, 8576
3, 764467, Pitch_bend_c, 1, 8576
3, 764473, Pitch_bend_c, 1, 8704
3, 764486, Pitch_bend_c, 1, 8704
3, 764492, Pitch_bend_c, 1, 8704
3, 764505, Pitch_bend_c, 1, 8704
3, 764518, Pitch_bend_c, 1, 8704
3, 764524, Pitch_bend_c, 1, 8576
3, 764537, Pitch_bend_c, 1, 8576
3, 764544, Pitch_bend_c, 1, 8448
3, 764556, Pitch_bend_c, 1, 8320
3, 764563, Pitch_bend_c, 1, 8320
3, 764576, Pitch_bend_c, 1, 8192
3, 764588, Pitch_bend_c, 1, 8064
3, 764595, Pitch_bend_c, 1, 8064
3, 764608, Pitch_bend_c, 1, 7936
3, 764614, Pitch_bend_c, 1, 7808
3, 764627, Pitch_bend_c, 1, 7808
3, 764633, Pitch_bend_c, 1, 7680
3, 764646, Pitch_bend_c, 1, 7680
3, 764659, Pitch_bend_c, 1, 7680
3, 764665, Pitch_bend_c, 1, 7680
3, 764678, Pitch_bend_c, 1, 7680
3, 764684, Pitch_bend_c, 1, 7808
3, 764697, Pitch_bend_c, 1, 7808
3, 764704, Pitch_bend_c, 1, 7936
3, 764716, Pitch_bend_c, 1, 8064
3, 764723, Pitch_bend_c, 1, 8064
3, 764736, Pitch_bend_c, 1, 8192
3, 764748, Pitch_bend_c, 1, 8320
3, 764755, Pitch_bend_c, 1, 8320
3, 764768, Pitch_bend_c, 1, 8448
3, 764774, Pitch_bend_c, 1, 8576
3, 764787, Pitch_bend_c, 1, 8576
3, 764793, Pitch_bend_c, 1, 8704
3, 764806, Pitch_bend_c, 1, 8704
3, 764812, Pitch_bend_c, 1, 8704
3, 764825, Pitch_bend_c, 1, 8704
3, 764838, Pitch_bend_c, 1, 8704
3, 764844, Pitch_bend_c, 1, 8576
3, 764857, Pitch_bend_c, 1, 8576
3, 764864, Pitch_bend_c, 1, 8448
3, 764876, Pitch_bend_c, 1, 8320
3, 764883, Pitch_bend_c, 1, 8320
3, 764896, Pitch_bend_c, 1, 8192
3, 764908, Pitch_bend_c, 1, 8064
3, 764915, Pitch_bend_c, 1, 8064
3, 764928, Pitch_bend_c, 1, 7936
3, 764934, Pitch_bend_c, 1, 7808
3, 764947, Pitch_bend_c, 1, 7808
3, 764953, Pitch_bend_c, 1, 7680
3, 764966, Pitch_bend_c, 1, 7680
3, 764979, Pitch_bend_c, 1, 7680
3, 764985, Pitch_bend_c, 1, 7680
3, 764998, Pitch_bend_c, 1, 7680
3, 765004, Pitch_bend_c, 1, 7808
3, 765017, Pitch_bend_c, 1, 7808
3, 765024, Pitch_bend_c, 1, 7936
3, 765036, Pitch_bend_c, 1, 8064
3, 765043, Pitch_bend_c, 1, 8064
3, 765056, Pitch_bend_c, 1, 8192
3, 765068, Pitch_bend_c, 1, 8320
3, 765075, Pitch_bend_c, 1, 8320
3, 765088, Pitch_bend_c, 1, 8448
3, 765094, Pitch_bend_c, 1, 8576
3, 765107, Pitch_bend_c, 1, 8576
3, 765113, Pitch_bend_c, 1, 8704
3, 765126, Pitch_bend_c, 1, 8704
3, 765132, Pitch_bend_c, 1, 8704
3, 765145, Pitch_bend_c, 1, 8704
3, 765158, Pitch_bend_c, 1, 8704
3, 765164, Pitch_bend_c, 1, 8576
3, 765177, Pitch_bend_c, 1, 8576
3, 765184, Pitch_bend_c, 1, 8448
3, 765196, Pitch_bend_c, 1, 8320
3, 765203, Pitch_bend_c, 1, 8320
3, 765216, Pitch_bend_c, 1, 8192
3, 765228, Pitch_bend_c, 1, 8064
3, 765235, Pitch_bend_c, 1, 8064
3, 765248, Pitch_bend_c, 1, 7936
3, 765254, Pitch_bend_c, 1, 7808
3, 765267, Pitch_bend_c, 1, 7808
3, 765273, Pitch_bend_c, 1, 7680
3, 765286, Pitch_bend_c, 1, 7680
3, 765299, Pitch_bend_c, 1, 7680
3, 765305, Pitch_bend_c, 1, 7680
3, 765318, Pitch_bend_c, 1, 7680
3, 765324, Pitch_bend_c, 1, 7808
3, 765337, Pitch_bend_c, 1, 7808
3, 765344, Pitch_bend_c, 1, 7936
3, 765356, Pitch_bend_c, 1, 8064
3, 765363, Pitch_bend_c, 1, 8064
3, 765376, Pitch_bend_c, 1, 8192
3, 765388, Pitch_bend_c, 1, 8320
3, 765395, Pitch_bend_c, 1, 8320
3, 765408, Pitch_bend_c, 1, 8448
3, 765414, Pitch_bend_c, 1, 8576
3, 765427, Pitch_bend_c, 1, 8704
3, 765433, Pitch_bend_c, 1, 8704
3, 765446, Pitch_bend_c, 1, 8704
3, 765452, Pitch_bend_c, 1, 8704
3, 765465, Pitch_bend_c, 1, 8704
3, 765478, Pitch_bend_c, 1, 8704
3, 765484, Pitch_bend_c, 1, 8704
3, 765497, Pitch_bend_c, 1, 8576
3, 765504, Pitch_bend_c, 1, 8448
3, 765516, Pitch_bend_c, 1, 8320
3, 765523, Pitch_bend_c, 1, 8320
3, 765536, Pitch_bend_c, 1, 8192
3, 765548, Pitch_bend_c, 1, 8064
3, 765555, Pitch_bend_c, 1, 8064
3, 765568, Pitch_bend_c, 1, 7936
3, 765574, Pitch_bend_c, 1, 7808
3, 765587, Pitch_bend_c, 1, 7680
3, 765593, Pitch_bend_c, 1, 7680
3, 765606, Pitch_bend_c, 1, 7680
3, 765619, Pitch_bend_c, 1, 7680
3, 765625, Pitch_bend_c, 1, 7680
3, 765638, Pitch_bend_c, 1, 7680
3, 765644, Pitch_bend_c, 1, 7680
3, 765657, Pitch_bend_c, 1, 7808
3, 765664, Pitch_bend_c, 1, 7936
3, 765676, Pitch_bend_c, 1, 8064
3, 765683, Pitch_bend_c, 1, 8064
3, 765696, Pitch_bend_c, 1, 8192
3, 765708, Pitch_bend_c, 1, 8320
3, 765715, Pitch_bend_c, 1, 8448
3, 765728, Pitch_bend_c, 1, 8576
3, 765734, Pitch_bend_c, 1, 8576
3, 765747, Pitch_bend_c, 1, 8704
3, 765753, Pitch_bend_c, 1, 8704
3, 765766, Pitch_bend_c, 1, 8704
3, 765772, Pitch_bend_c, 1, 8704
3, 765785, Pitch_bend_c, 1, 8704
3, 765798, Pitch_bend_c, 1, 8704
3, 765804, Pitch_bend_c, 1, 8704
3, 765817, Pitch_bend_c, 1, 8576
3, 765824, Pitch_bend_c, 1, 8576
3, 765836, Pitch_bend_c, 1, 8448
3, 765843, Pitch_bend_c, 1, 8320
3, 765856, Pitch_bend_c, 1, 8192
3, 765868, Pitch_bend_c, 1, 8064
3, 765875, Pitch_bend_c, 1, 7936
3, 765888, Pitch_bend_c, 1, 7808
3, 765894, Pitch_bend_c, 1, 7808
3, 765907, Pitch_bend_c, 1, 7680
3, 765913, Pitch_bend_c, 1, 7680
3, 765926, Pitch_bend_c, 1, 7680
3, 765939, Pitch_bend_c, 1, 7680
3, 765945, Pitch_bend_c, 1, 7680
3, 765958, Pitch_bend_c, 1, 7680
3, 765964, Pitch_bend_c, 1, 7680
3, 765977, Pitch_bend_c, 1, 7808
3, 765984, Pitch_bend_c, 1, 7808
3, 765996, Pitch_bend_c, 1, 7936
3, 766003, Pitch_bend_c, 1, 8064
3, 766016, Pitch_bend_c, 1, 8192
3, 766028, Pitch_bend_c, 1, 8320
3, 766035, Pitch_bend_c, 1, 8320
3, 766048, Pitch_bend_c, 1, 8448
3, 766054, Pitch_bend_c, 1, 8448
3, 766067, Pitch_bend_c, 1, 8448
3, 766073, Pitch_bend_c, 1, 8576
3, 766086, Pitch_bend_c, 1, 8576
3, 766092, Pitch_bend_c, 1, 8576
3, 766105, Pitch_bend_c, 1, 8576
3, 766118, Pitch_bend_c, 1, 8576
3, 766124, Pitch_bend_c, 1, 8448
3, 766137, Pitch_bend_c, 1, 8448
3, 766144, Pitch_bend_c, 1, 8448
3, 766156, Pitch_bend_c, 1, 8320
3, 766163, Pitch_bend_c, 1, 8320
3, 766176, Pitch_bend_c, 1, 8192
3, 766188, Pitch_bend_c, 1, 8064
3, 766195, Pitch_bend_c, 1, 8064
3, 766208, Pitch_bend_c, 1, 7936
3, 766214, Pitch_bend_c, 1, 7936
3, 766227, Pitch_bend_c, 1, 7936
3, 766233, Pitch_bend_c, 1, 7808
3, 766246, Pitch_bend_c, 1, 7808
3, 766259, Pitch_bend_c, 1, 7808
3, 766265, Pitch_bend_c, 1, 7808
3, 766278, Pitch_bend_c, 1, 7808
3, 766284, Pitch_bend_c, 1, 7936
3, 766297, Pitch_bend_c, 1, 7936
3, 766304, Pitch_bend_c, 1, 7936
3, 766316, Pitch_bend_c, 1, 8064
3, 766323, Pitch_bend_c, 1, 8064
3, 766336, Pitch_bend_c, 1, 8192
3, 766348, Pitch_bend_c, 1, 8192
3, 766355, Pitch_bend_c, 1, 8192
3, 766368, Pitch_bend_c, 1, 8192
3, 766374, Pitch_bend_c, 1, 8192
3, 766387, Pitch_bend_c, 1, 8320
3, 766393, Pitch_bend_c, 1, 8320
3, 766406, Pitch_bend_c, 1, 8320
3, 766412, Pitch_bend_c, 1, 8320
3, 766425, Pitch_bend_c, 1, 8320
3, 766438, Pitch_bend_c, 1, 8320
3, 766444, Pitch_bend_c, 1, 8320
3, 766457, Pitch_bend_c, 1, 8192
3, 766464, Note_off_c, 1, 43, 80
3, 766464, Pitch_bend_c, 1, 8192
3, 766464, Note_on_c, 1, 41, 63
3, 767232, Note_off_c, 1, 41, 80
3, 767232, Note_on_c, 1, 43, 63
3, 767232, Note_on_c, 1, 50, 63
3, 767232, Pitch_bend_c, 1, 8192
3, 767283, Pitch_bend_c, 1, 8192
3, 767328, Pitch_bend_c, 1, 8192
3, 767372, Pitch_bend_c, 1, 8192
3, 767424, Pitch_bend_c, 1, 8192
3, 767475, Pitch_bend_c, 1, 8192
3, 767520, Pitch_bend_c, 1, 8192
3, 767564, Pitch_bend_c, 1, 8192
3, 767616, Pitch_bend_c, 1, 8192
3, 767667, Pitch_bend_c, 1, 8192
3, 767712, Pitch_bend_c, 1, 8192
3, 767756, Pitch_bend_c, 1, 8192
3, 767808, Pitch_bend_c, 1, 8192
3, 767859, Pitch_bend_c, 1, 8192
3, 767904, Pitch_bend_c, 1, 8192
3, 767948, Pitch_bend_c, 1, 8192
3, 768000, Note_off_c, 1, 50, 80
3, 768000, Note_off_c, 1, 43, 80
3, 768000, Pitch_bend_c, 1, 8192
3, 768000, Note_on_c, 1, 50, 63
3, 768051, Pitch_bend_c, 1, 8192
3, 768096, Pitch_bend_c, 1, 8192
3, 768140, Pitch_bend_c, 1, 8192
3, 768192, Pitch_bend_c, 1, 8192
3, 768243, Pitch_bend_c, 1, 8192
3, 768288, Pitch_bend_c, 1, 8192
3, 768332, Pitch_bend_c, 1, 8192
3, 768384, Pitch_bend_c, 1, 8192
3, 768435, Pitch_bend_c, 1, 8192
3, 768480, Pitch_bend_c, 1, 8192
3, 768524, Pitch_bend_c, 1, 8192
3, 768576, Pitch_bend_c, 1, 8192
3, 768627, Pitch_bend_c, 1, 8192
3, 768672, Pitch_bend_c, 1, 8192
3, 768716, Pitch_bend_c, 1, 8192
3, 768768, Pitch_bend_c, 1, 8192
3, 768780, Pitch_bend_c, 1, 8192
3, 768787, Pitch_bend_c, 1, 8192
3, 768800, Pitch_bend_c, 1, 8192
3, 768806, Pitch_bend_c, 1, 8192
3, 768819, Pitch_bend_c, 1, 8192
3, 768825, Pitch_bend_c, 1, 8064
3, 768838, Pitch_bend_c, 1, 8064
3, 768844, Pitch_bend_c, 1, 8064
3, 768857, Pitch_bend_c, 1, 8064
3, 768870, Pitch_bend_c, 1, 8064
3, 768876, Pitch_bend_c, 1, 8192
3, 768889, Pitch_bend_c, 1, 8192
3, 768896, Pitch_bend_c, 1, 8192
3, 768908, Pitch_bend_c, 1, 8192
3, 768915, Pitch_bend_c, 1, 8192
3, 768928, Pitch_bend_c, 1, 8192
3, 768940, Pitch_bend_c, 1, 8192
3, 768947, Pitch_bend_c, 1, 8192
3, 768960, Pitch_bend_c, 1, 8192
3, 768966, Pitch_bend_c, 1, 8192
3, 768979, Pitch_bend_c, 1, 8192
3, 768985, Pitch_bend_c, 1, 8320
3, 768998, Pitch_bend_c, 1, 8320
3, 769011, Pitch_bend_c, 1, 8320
3, 769017, Pitch_bend_c, 1, 8320
3, 769030, Pitch_bend_c, 1, 8320
3, 769036, Pitch_bend_c, 1, 8192
3, 769049, Pitch_bend_c, 1, 8192
3, 769056, Pitch_bend_c, 1, 8192
3, 769068, Pitch_bend_c, 1, 8192
3, 769075, Pitch_bend_c, 1, 8192
3, 769088, Pitch_bend_c, 1, 8192
3, 769100, Pitch_bend_c, 1, 8320
3, 769107, Pitch_bend_c, 1, 8320
3, 769120, Pitch_bend_c, 1, 8448
3, 769126, Pitch_bend_c, 1, 8576
3, 769139, Pitch_bend_c, 1, 8576
3, 769145, Pitch_bend_c, 1, 8576
3, 769158, Pitch_bend_c, 1, 8704
3, 769164, Pitch_bend_c, 1, 8704
3, 769177, Pitch_bend_c, 1, 8704
3, 769190, Pitch_bend_c, 1, 8576
3, 769196, Pitch_bend_c, 1, 8576
3, 769209, Pitch_bend_c, 1, 8576
3, 769216, Pitch_bend_c, 1, 8448
3, 769228, Pitch_bend_c, 1, 8320
3, 769235, Pitch_bend_c, 1, 8320
3, 769248, Pitch_bend_c, 1, 8192
3, 769260, Pitch_bend_c, 1, 8064
3, 769267, Pitch_bend_c, 1, 8064
3, 769280, Pitch_bend_c, 1, 7936
3, 769286, Pitch_bend_c, 1, 7808
3, 769299, Pitch_bend_c, 1, 7808
3, 769305, Pitch_bend_c, 1, 7808
3, 769318, Pitch_bend_c, 1, 7680
3, 769331, Pitch_bend_c, 1, 7680
3, 769337, Pitch_bend_c, 1, 7680
3, 769350, Pitch_bend_c, 1, 7808
3, 769356, Pitch_bend_c, 1, 7808
3, 769369, Pitch_bend_c, 1, 7808
3, 769376, Pitch_bend_c, 1, 7936
3, 769388, Pitch_bend_c, 1, 8064
3, 769395, Pitch_bend_c, 1, 8064
3, 769408, Pitch_bend_c, 1, 8192
3, 769420, Pitch_bend_c, 1, 8320
3, 769427, Pitch_bend_c, 1, 8448
3, 769440, Pitch_bend_c, 1, 8576
3, 769446, Pitch_bend_c, 1, 8576
3, 769459, Pitch_bend_c, 1, 8704
3, 769465, Pitch_bend_c, 1, 8704
3, 769478, Pitch_bend_c, 1, 8704
3, 769484, Pitch_bend_c, 1, 8704
3, 769497, Pitch_bend_c, 1, 8704
3, 769510, Pitch_bend_c, 1, 8704
3, 769516, Pitch_bend_c, 1, 8704
3, 769529, Pitch_bend_c, 1, 8576
3, 769536, Pitch_bend_c, 1, 8576
3, 769548, Pitch_bend_c, 1, 8448
3, 769555, Pitch_bend_c, 1, 8320
3, 769568, Pitch_bend_c, 1, 8192
3, 769580, Pitch_bend_c, 1, 8064
3, 769587, Pitch_bend_c, 1, 7936
3, 769600, Pitch_bend_c, 1, 7808
3, 769606, Pitch_bend_c, 1, 7808
3, 769619, Pitch_bend_c, 1, 7680
3, 769625, Pitch_bend_c, 1, 7680
3, 769638, Pitch_bend_c, 1, 7680
3, 769651, Pitch_bend_c, 1, 7680
3, 769657, Pitch_bend_c, 1, 7680
3, 769670, Pitch_bend_c, 1, 7680
3, 769676, Pitch_bend_c, 1, 7680
3, 769689, Pitch_bend_c, 1, 7808
3, 769696, Pitch_bend_c, 1, 7808
3, 769708, Pitch_bend_c, 1, 7936
3, 769715, Pitch_bend_c, 1, 8064
3, 769728, Pitch_bend_c, 1, 8192
3, 769740, Pitch_bend_c, 1, 8320
3, 769747, Pitch_bend_c, 1, 8448
3, 769760, Pitch_bend_c, 1, 8576
3, 769766, Pitch_bend_c, 1, 8576
3, 769779, Pitch_bend_c, 1, 8704
3, 769785, Pitch_bend_c, 1, 8704
3, 769798, Pitch_bend_c, 1, 8832
3, 769804, Pitch_bend_c, 1, 8832
3, 769817, Pitch_bend_c, 1, 8832
3, 769830, Pitch_bend_c, 1, 8704
3, 769836, Pitch_bend_c, 1, 8704
3, 769849, Pitch_bend_c, 1, 8576
3, 769856, Pitch_bend_c, 1, 8576
3, 769868, Pitch_bend_c, 1, 8448
3, 769875, Pitch_bend_c, 1, 8320
3, 769888, Pitch_bend_c, 1, 8192
3, 769900, Pitch_bend_c, 1, 8064
3, 769907, Pitch_bend_c, 1, 7936
3, 769920, Pitch_bend_c, 1, 7808
3, 769926, Pitch_bend_c, 1, 7808
3, 769939, Pitch_bend_c, 1, 7680
3, 769945, Pitch_bend_c, 1, 7680
3, 769958, Pitch_bend_c, 1, 7552
3, 769971, Pitch_bend_c, 1, 7552
3, 769977, Pitch_bend_c, 1, 7552
3, 769990, Pitch_bend_c, 1, 7680
3, 769996, Pitch_bend_c, 1, 7680
3, 770009, Pitch_bend_c, 1, 7808
3, 770016, Pitch_bend_c, 1, 7808
3, 770028, Pitch_bend_c, 1, 7936
3, 770035, Pitch_bend_c, 1, 8064
3, 770048, Pitch_bend_c, 1, 8192
3, 770060, Pitch_bend_c, 1, 8320
3, 770067, Pitch_bend_c, 1, 8448
3, 770080, Pitch_bend_c, 1, 8576
3, 770086, Pitch_bend_c, 1, 8576
3, 770099, Pitch_bend_c, 1, 8704
3, 770105, Pitch_bend_c, 1, 8704
3, 770118, Pitch_bend_c, 1, 8704
3, 770124, Pitch_bend_c, 1, 8704
3, 770137, Pitch_bend_c, 1, 8704
3, 770150, Pitch_bend_c, 1, 8704
3, 770156, Pitch_bend_c, 1, 8704
3, 770169, Pitch_bend_c, 1, 8576
3, 770176, Pitch_bend_c, 1, 8576
3, 770188, Pitch_bend_c, 1, 8448
3, 770195, Pitch_bend_c, 1, 8320
3, 770208, Pitch_bend_c, 1, 8192
3, 770220, Pitch_bend_c, 1, 8064
3, 770227, Pitch_bend_c, 1, 7936
3, 770240, Pitch_bend_c, 1, 7808
3, 770246, Pitch_bend_c, 1, 7808
3, 770259, Pitch_bend_c, 1, 7680
3, 770265, Pitch_bend_c, 1, 7680
3, 770278, Pitch_bend_c, 1, 7680
3, 770291, Pitch_bend_c, 1, 7680
3, 770297, Pitch_bend_c, 1, 7680
3, 770310, Pitch_bend_c, 1, 7680
3, 770316, Pitch_bend_c, 1, 7680
3, 770329, Pitch_bend_c, 1, 7808
3, 770336, Pitch_bend_c, 1, 7808
3, 770348, Pitch_bend_c, 1, 7936
3, 770355, Pitch_bend_c, 1, 8064
3, 770368, Pitch_bend_c, 1, 8192
3, 770380, Pitch_bend_c, 1, 8320
3, 770387, Pitch_bend_c, 1, 8448
3, 770400, Pitch_bend_c, 1, 8576
3, 770406, Pitch_bend_c, 1, 8576
3, 770419, Pitch_bend_c, 1, 8704
3, 770425, Pitch_bend_c, 1, 8704
3, 770438, Pitch_bend_c, 1, 8832
3, 770444, Pitch_bend_c, 1, 8832
3, 770457, Pitch_bend_c, 1, 8832
3, 770470, Pitch_bend_c, 1, 8704
3, 770476, Pitch_bend_c, 1, 8704
3, 770489, Pitch_bend_c, 1, 8576
3, 770496, Pitch_bend_c, 1, 8576
3, 770508, Pitch_bend_c, 1, 8448
3, 770515, Pitch_bend_c, 1, 8320
3, 770528, Pitch_bend_c, 1, 8192
3, 770540, Pitch_bend_c, 1, 8064
3, 770547, Pitch_bend_c, 1, 7936
3, 770560, Pitch_bend_c, 1, 7808
3, 770566, Pitch_bend_c, 1, 7808
3, 770579, Pitch_bend_c, 1, 7680
3, 770585, Pitch_bend_c, 1, 7680
3, 770598, Pitch_bend_c, 1, 7552
3, 770611, Pitch_bend_c, 1, 7552
3, 770617, Pitch_bend_c, 1, 7552
3, 770630, Pitch_bend_c, 1, 7680
3, 770636, Pitch_bend_c, 1, 7680
3, 770649, Pitch_bend_c, 1, 7808
3, 770656, Pitch_bend_c, 1, 7808
3, 770668, Pitch_bend_c, 1, 7936
3, 770675, Pitch_bend_c, 1, 8064
3, 770688, Pitch_bend_c, 1, 8192
3, 770700, Pitch_bend_c, 1, 8320
3, 770707, Pitch_bend_c, 1, 8448
3, 770720, Pitch_bend_c, 1, 8576
3, 770726, Pitch_bend_c, 1, 8576
3, 770739, Pitch_bend_c, 1, 8704
3, 770745, Pitch_bend_c, 1, 8704
3, 770758, Pitch_bend_c, 1, 8704
3, 770764, Pitch_bend_c, 1, 8704
3, 770777, Pitch_bend_c, 1, 8704
3, 770790, Pitch_bend_c, 1, 8704
3, 770796, Pitch_bend_c, 1, 8704
3, 770809, Pitch_bend_c, 1, 8576
3, 770816, Pitch_bend_c, 1, 8576
3, 770828, Pitch_bend_c, 1, 8448
3, 770835, Pitch_bend_c, 1, 8320
3, 770848, Pitch_bend_c, 1, 8192
3, 770860, Pitch_bend_c, 1, 8064
3, 770867, Pitch_bend_c, 1, 7936
3, 770880, Pitch_bend_c, 1, 7808
3, 770886, Pitch_bend_c, 1, 7808
3, 770899, Pitch_bend_c, 1, 7680
3, 770905, Pitch_bend_c, 1, 7680
3, 770918, Pitch_bend_c, 1, 7680
3, 770931, Pitch_bend_c, 1, 7680
3, 770937, Pitch_bend_c, 1, 7680
3, 770950, Pitch_bend_c, 1, 7680
3, 770956, Pitch_bend_c, 1, 7680
3, 770969, Pitch_bend_c, 1, 7808
3, 770976, Pitch_bend_c, 1, 7808
3, 770988, Pitch_bend_c, 1, 7936
3, 770995, Pitch_bend_c, 1, 8064
3, 771008, Pitch_bend_c, 1, 8192
3, 771020, Pitch_bend_c, 1, 8192
3, 771027, Pitch_bend_c, 1, 8192
3, 771040, Pitch_bend_c, 1, 8192
3, 771046, Pitch_bend_c, 1, 8192
3, 771059, Pitch_bend_c, 1, 8192
3, 771065, Pitch_bend_c, 1, 8192
3, 771072, Pitch_bend_c, 1, 8192
3, 771084, Pitch_bend_c, 1, 10240
3, 771091, Pitch_bend_c, 1, 10240
3, 771104, Pitch_bend_c, 1, 10240
3, 771110, Pitch_bend_c, 1, 10240
3, 771123, Pitch_bend_c, 1, 10240
3, 771129, Pitch_bend_c, 1, 10240
3, 771142, Pitch_bend_c, 1, 10240
3, 771148, Pitch_bend_c, 1, 10240
3, 771161, Pitch_bend_c, 1, 10240
3, 771174, Pitch_bend_c, 1, 10240
3, 771180, Pitch_bend_c, 1, 10240
3, 771193, Pitch_bend_c, 1, 10240
3, 771200, Pitch_bend_c, 1, 10240
3, 771212, Pitch_bend_c, 1, 10240
3, 771219, Pitch_bend_c, 1, 10240
3, 771232, Pitch_bend_c, 1, 10240
3, 771244, Pitch_bend_c, 1, 10240
3, 771251, Pitch_bend_c, 1, 10240
3, 771264, Pitch_bend_c, 1, 10240
3, 771270, Pitch_bend_c, 1, 10240
3, 771283, Pitch_bend_c, 1, 10240
3, 771289, Pitch_bend_c, 1, 10240
3, 771302, Pitch_bend_c, 1, 10240
3, 771315, Pitch_bend_c, 1, 10240
3, 771321, Pitch_bend_c, 1, 10240
3, 771334, Pitch_bend_c, 1, 10240
3, 771340, Pitch_bend_c, 1, 10240
3, 771353, Pitch_bend_c, 1, 10240
3, 771360, Pitch_bend_c, 1, 10240
3, 771372, Pitch_bend_c, 1, 10240
3, 771379, Pitch_bend_c, 1, 10240
3, 771392, Pitch_bend_c, 1, 10240
3, 771404, Pitch_bend_c, 1, 10368
3, 771411, Pitch_bend_c, 1, 10496
3, 771424, Pitch_bend_c, 1, 10624
3, 771430, Pitch_bend_c, 1, 10624
3, 771443, Pitch_bend_c, 1, 10752
3, 771449, Pitch_bend_c, 1, 10752
3, 771462, Pitch_bend_c, 1, 10752
3, 771468, Pitch_bend_c, 1, 10752
3, 771481, Pitch_bend_c, 1, 10752
3, 771494, Pitch_bend_c, 1, 10752
3, 771500, Pitch_bend_c, 1, 10752
3, 771513, Pitch_bend_c, 1, 10624
3, 771520, Pitch_bend_c, 1, 10624
3, 771532, Pitch_bend_c, 1, 10496
3, 771539, Pitch_bend_c, 1, 10368
3, 771552, Pitch_bend_c, 1, 10240
3, 771564, Pitch_bend_c, 1, 10112
3, 771571, Pitch_bend_c, 1, 9984
3, 771584, Pitch_bend_c, 1, 9856
3, 771590, Pitch_bend_c, 1, 9856
3, 771603, Pitch_bend_c, 1, 9728
3, 771609, Pitch_bend_c, 1, 9728
3, 771622, Pitch_bend_c, 1, 9728
3, 771635, Pitch_bend_c, 1, 9728
3, 771641, Pitch_bend_c, 1, 9728
3, 771654, Pitch_bend_c, 1, 9728
3, 771660, Pitch_bend_c, 1, 9728
3, 771673, Pitch_bend_c, 1, 9856
3, 771680, Pitch_bend_c, 1, 9856
3, 771692, Pitch_bend_c, 1, 9984
3, 771699, Pitch_bend_c, 1, 10112
3, 771712, Pitch_bend_c, 1, 10240
3, 771724, Pitch_bend_c, 1, 10368
3, 771731, Pitch_bend_c, 1, 10496
3, 771744, Pitch_bend_c, 1, 10624
3, 771750, Pitch_bend_c, 1, 10624
3, 771763, Pitch_bend_c, 1, 10752
3, 771769, Pitch_bend_c, 1, 10752
3, 771782, Pitch_bend_c, 1, 10752
3, 771788, Pitch_bend_c, 1, 10752
3, 771801, Pitch_bend_c, 1, 10752
3, 771814, Pitch_bend_c, 1, 10752
3, 771820, Pitch_bend_c, 1, 10752
3, 771833, Pitch_bend_c, 1, 10624
3, 771840, Pitch_bend_c, 1, 10624
3, 771852, Pitch_bend_c, 1, 10496
3, 771859, Pitch_bend_c, 1, 10368
3, 771872, Pitch_bend_c, 1, 10240
3, 771884, Pitch_bend_c, 1, 10112
3, 771891, Pitch_bend_c, 1, 9984
3, 771904, Pitch_bend_c, 1, 9856
3, 771910, Pitch_bend_c, 1, 9856
3, 771923, Pitch_bend_c, 1, 9728
3, 771929, Pitch_bend_c, 1, 9728
3, 771942, Pitch_bend_c, 1, 9728
3, 771955, Pitch_bend_c, 1, 9728
3, 771961, Pitch_bend_c, 1, 9728
3, 771974, Pitch_bend_c, 1, 9728
3, 771980, Pitch_bend_c, 1, 9728
3, 771993, Pitch_bend_c, 1, 9856
3, 772000, Pitch_bend_c, 1, 9856
3, 772012, Pitch_bend_c, 1, 9984
3, 772019, Pitch_bend_c, 1, 10112
3, 772032, Pitch_bend_c, 1, 10240
3, 772044, Pitch_bend_c, 1, 10368
3, 772051, Pitch_bend_c, 1, 10368
3, 772064, Pitch_bend_c, 1, 10496
3, 772070, Pitch_bend_c, 1, 10624
3, 772083, Pitch_bend_c, 1, 10624
3, 772089, Pitch_bend_c, 1, 10624
3, 772102, Pitch_bend_c, 1, 10752
3, 772108, Pitch_bend_c, 1, 10752
3, 772121, Pitch_bend_c, 1, 10752
3, 772134, Pitch_bend_c, 1, 10624
3, 772140, Pitch_bend_c, 1, 10624
3, 772153, Pitch_bend_c, 1, 10624
3, 772160, Pitch_bend_c, 1, 10496
3, 772172, Pitch_bend_c, 1, 10368
3, 772179, Pitch_bend_c, 1, 10368
3, 772192, Pitch_bend_c, 1, 10240
3, 772204, Pitch_bend_c, 1, 10112
3, 772211, Pitch_bend_c, 1, 10112
3, 772224, Pitch_bend_c, 1, 9984
3, 772230, Pitch_bend_c, 1, 9856
3, 772243, Pitch_bend_c, 1, 9856
3, 772249, Pitch_bend_c, 1, 9856
3, 772262, Pitch_bend_c, 1, 9728
3, 772275, Pitch_bend_c, 1, 9728
3, 772281, Pitch_bend_c, 1, 9728
3, 772294, Pitch_bend_c, 1, 9856
3, 772300, Pitch_bend_c, 1, 9856
3, 772313, Pitch_bend_c, 1, 9856
3, 772320, Pitch_bend_c, 1, 9984
3, 772332, Pitch_bend_c, 1, 10112
3, 772339, Pitch_bend_c, 1, 10112
3, 772352, Pitch_bend_c, 1, 10240
3, 772364, Pitch_bend_c, 1, 10368
3, 772371, Pitch_bend_c, 1, 10368
3, 772384, Pitch_bend_c, 1, 10496
3, 772390, Pitch_bend_c, 1, 10624
3, 772403, Pitch_bend_c, 1, 10624
3, 772409, Pitch_bend_c, 1, 10752
3, 772422, Pitch_bend_c, 1, 10752
3, 772428, Pitch_bend_c, 1, 10752
3, 772441, Pitch_bend_c, 1, 10752
3, 772454, Pitch_bend_c, 1, 10752
3, 772460, Pitch_bend_c, 1, 10624
3, 772473, Pitch_bend_c, 1, 10624
3, 772480, Pitch_bend_c, 1, 10496
3, 772492, Pitch_bend_c, 1, 10368
3, 772499, Pitch_bend_c, 1, 10368
3, 772512, Pitch_bend_c, 1, 10240
3, 772524, Pitch_bend_c, 1, 10112
3, 772531, Pitch_bend_c, 1, 10112
3, 772544, Pitch_bend_c, 1, 9984
3, 772550, Pitch_bend_c, 1, 9856
3, 772563, Pitch_bend_c, 1, 9856
3, 772569, Pitch_bend_c, 1, 9728
3, 772582, Pitch_bend_c, 1, 9728
3, 772595, Pitch_bend_c, 1, 9728
3, 772601, Pitch_bend_c, 1, 9728
3, 772608, Pitch_bend_c, 1, 10240
3, 772620, Pitch_bend_c, 1, 10240
3, 772627, Pitch_bend_c, 1, 10240
3, 772640, Pitch_bend_c, 1, 10240
3, 772646, Pitch_bend_c, 1, 10240
3, 772659, Pitch_bend_c, 1, 10240
3, 772665, Pitch_bend_c, 1, 10240
3, 772678, Pitch_bend_c, 1, 10240
3, 772684, Pitch_bend_c, 1, 10240
3, 772697, Pitch_bend_c, 1, 10240
3, 772710, Pitch_bend_c, 1, 10240
3, 772716, Pitch_bend_c, 1, 10240
3, 772729, Pitch_bend_c, 1, 10240
3, 772736, Pitch_bend_c, 1, 10240
3, 772748, Pitch_bend_c, 1, 10240
3, 772755, Pitch_bend_c, 1, 10240
3, 772768, Pitch_bend_c, 1, 10240
3, 772780, Pitch_bend_c, 1, 10240
3, 772787, Pitch_bend_c, 1, 10240
3, 772800, Pitch_bend_c, 1, 10240
3, 772806, Pitch_bend_c, 1, 10240
3, 772819, Pitch_bend_c, 1, 10240
3, 772825, Pitch_bend_c, 1, 10240
3, 772838, Pitch_bend_c, 1, 10240
3, 772851, Pitch_bend_c, 1, 10240
3, 772857, Pitch_bend_c, 1, 10240
3, 772870, Pitch_bend_c, 1, 10240
3, 772876, Pitch_bend_c, 1, 10240
3, 772889, Pitch_bend_c, 1, 10240
3, 772896, Pitch_bend_c, 1, 10240
3, 772908, Pitch_bend_c, 1, 10240
3, 772915, Pitch_bend_c, 1, 10240
3, 772928, Pitch_bend_c, 1, 10240
3, 772940, Pitch_bend_c, 1, 10368
3, 772947, Pitch_bend_c, 1, 10368
3, 772960, Pitch_bend_c, 1, 10496
3, 772966, Pitch_bend_c, 1, 10624
3, 772979, Pitch_bend_c, 1, 10752
3, 772985, Pitch_bend_c, 1, 10752
3, 772992, Note_off_c, 1, 50, 80
3, 772992, Pitch_bend_c, 1, 8192
3, 772992, Note_on_c, 1, 50, 63
3, 773376, Note_off_c, 1, 50, 80
3, 773376, Note_on_c, 1, 55, 25
3, 773376, Note_on_c, 1, 50, 25
3, 774144, Note_off_c, 1, 50, 80
3, 774144, Note_off_c, 1, 55, 80
3, 774144, Note_on_c, 1, 48, 63
3, 774144, Pitch_bend_c, 1, 8192
3, 774163, Pitch_bend_c, 1, 8192
3, 774182, Pitch_bend_c, 1, 8192
3, 774195, Pitch_bend_c, 1, 8192
3, 774214, Pitch_bend_c, 1, 8192
3, 774233, Pitch_bend_c, 1, 8192
3, 774252, Pitch_bend_c, 1, 8192
3, 774272, Pitch_bend_c, 1, 8192
3, 774284, Pitch_bend_c, 1, 8192
3, 774304, Pitch_bend_c, 1, 8192
3, 774323, Pitch_bend_c, 1, 8192
3, 774342, Pitch_bend_c, 1, 8192
3, 774361, Pitch_bend_c, 1, 8192
3, 774380, Pitch_bend_c, 1, 8192
3, 774393, Pitch_bend_c, 1, 8192
3, 774412, Pitch_bend_c, 1, 8192
3, 774432, Pitch_bend_c, 1, 8192
3, 774451, Pitch_bend_c, 1, 8192
3, 774470, Pitch_bend_c, 1, 8192
3, 774483, Pitch_bend_c, 1, 8192
3, 774502, Pitch_bend_c, 1, 8192
3, 774521, Pitch_bend_c, 1, 8192
3, 774540, Pitch_bend_c, 1, 8192
3, 774560, Pitch_bend_c, 1, 8192
3, 774579, Pitch_bend_c, 1, 8192
3, 774592, Pitch_bend_c, 1, 8192
3, 774611, Pitch_bend_c, 1, 8192
3, 774630, Pitch_bend_c, 1, 8192
3, 774649, Pitch_bend_c, 1, 8192
3, 774668, Pitch_bend_c, 1, 8192
3, 774681, Pitch_bend_c, 1, 8192
3, 774700, Pitch_bend_c, 1, 8192
3, 774720, Pitch_bend_c, 1, 8192
3, 774739, Pitch_bend_c, 1, 8192
3, 774758, Pitch_bend_c, 1, 8320
3, 774771, Pitch_bend_c, 1, 8320
3, 774790, Pitch_bend_c, 1, 8320
3, 774809, Pitch_bend_c, 1, 8320
3, 774828, Pitch_bend_c, 1, 8448
3, 774848, Pitch_bend_c, 1, 8448
3, 774860, Pitch_bend_c, 1, 8448
3, 774880, Pitch_bend_c, 1, 8448
3, 774899, Pitch_bend_c, 1, 8448
3, 774918, Pitch_bend_c, 1, 8320
3, 774937, Pitch_bend_c, 1, 8320
3, 774956, Pitch_bend_c, 1, 8320
3, 774969, Pitch_bend_c, 1, 8320
3, 774988, Pitch_bend_c, 1, 8192
3, 775008, Pitch_bend_c, 1, 8192
3, 775027, Pitch_bend_c, 1, 8192
3, 775046, Pitch_bend_c, 1, 8064
3, 775059, Pitch_bend_c, 1, 8064
3, 775078, Pitch_bend_c, 1, 8064
3, 775097, Pitch_bend_c, 1, 8064
3, 775116, Pitch_bend_c, 1, 7936
3, 775136, Pitch_bend_c, 1, 7936
3, 775155, Pitch_bend_c, 1, 7936
3, 775168, Pitch_bend_c, 1, 7936
3, 775187, Pitch_bend_c, 1, 7936
3, 775206, Pitch_bend_c, 1, 8064
3, 775225, Pitch_bend_c, 1, 8064
3, 775244, Pitch_bend_c, 1, 8064
3, 775257, Pitch_bend_c, 1, 8064
3, 775276, Pitch_bend_c, 1, 8192
3, 775296, Pitch_bend_c, 1, 8192
3, 775315, Pitch_bend_c, 1, 8192
3, 775334, Pitch_bend_c, 1, 8320
3, 775347, Pitch_bend_c, 1, 8320
3, 775366, Pitch_bend_c, 1, 8448
3, 775385, Pitch_bend_c, 1, 8448
3, 775404, Pitch_bend_c, 1, 8448
3, 775424, Pitch_bend_c, 1, 8448
3, 775436, Pitch_bend_c, 1, 8448
3, 775456, Pitch_bend_c, 1, 8448
3, 775475, Pitch_bend_c, 1, 8448
3, 775494, Pitch_bend_c, 1, 8448
3, 775513, Pitch_bend_c, 1, 8448
3, 775532, Pitch_bend_c, 1, 8320
3, 775545, Pitch_bend_c, 1, 8320
3, 775564, Pitch_bend_c, 1, 8192
3, 775584, Pitch_bend_c, 1, 8192
3, 775603, Pitch_bend_c, 1, 8192
3, 775622, Pitch_bend_c, 1, 8064
3, 775635, Pitch_bend_c, 1, 8064
3, 775654, Pitch_bend_c, 1, 7936
3, 775673, Pitch_bend_c, 1, 7936
3, 775692, Pitch_bend_c, 1, 7936
3, 775712, Pitch_bend_c, 1, 7936
3, 775731, Pitch_bend_c, 1, 7936
3, 775744, Pitch_bend_c, 1, 7936
3, 775763, Pitch_bend_c, 1, 7936
3, 775782, Pitch_bend_c, 1, 7936
3, 775801, Pitch_bend_c, 1, 7936
3, 775820, Pitch_bend_c, 1, 8064
3, 775833, Pitch_bend_c, 1, 8064
3, 775852, Pitch_bend_c, 1, 8192
3, 775872, Pitch_bend_c, 1, 8192
3, 775891, Pitch_bend_c, 1, 8192
3, 775910, Pitch_bend_c, 1, 8320
3, 775923, Pitch_bend_c, 1, 8320
3, 775942, Pitch_bend_c, 1, 8448
3, 775961, Pitch_bend_c, 1, 8448
3, 775980, Pitch_bend_c, 1, 8448
3, 776000, Pitch_bend_c, 1, 8448
3, 776012, Pitch_bend_c, 1, 8448
3, 776032, Pitch_bend_c, 1, 8448
3, 776051, Pitch_bend_c, 1, 8448
3, 776070, Pitch_bend_c, 1, 8448
3, 776089, Pitch_bend_c, 1, 8448
3, 776108, Pitch_bend_c, 1, 8320
3, 776121, Pitch_bend_c, 1, 8320
3, 776140, Pitch_bend_c, 1, 8192
3, 776160, Pitch_bend_c, 1, 8192
3, 776179, Pitch_bend_c, 1, 8192
3, 776198, Pitch_bend_c, 1, 8064
3, 776211, Pitch_bend_c, 1, 8064
3, 776230, Pitch_bend_c, 1, 7936
3, 776249, Pitch_bend_c, 1, 7936
3, 776268, Pitch_bend_c, 1, 7936
3, 776288, Pitch_bend_c, 1, 7936
3, 776307, Pitch_bend_c, 1, 7936
3, 776320, Pitch_bend_c, 1, 7936
3, 776339, Pitch_bend_c, 1, 7936
3, 776358, Pitch_bend_c, 1, 7936
3, 776377, Pitch_bend_c, 1, 7936
3, 776396, Pitch_bend_c, 1, 8064
3, 776409, Pitch_bend_c, 1, 8064
3, 776428, Pitch_bend_c, 1, 8192
3, 776448, Pitch_bend_c, 1, 8192
3, 776467, Pitch_bend_c, 1, 8320
3, 776486, Pitch_bend_c, 1, 8320
3, 776499, Pitch_bend_c, 1, 8320
3, 776518, Pitch_bend_c, 1, 8448
3, 776537, Pitch_bend_c, 1, 8448
3, 776556, Pitch_bend_c, 1, 8448
3, 776576, Pitch_bend_c, 1, 8448
3, 776588, Pitch_bend_c, 1, 8448
3, 776608, Pitch_bend_c, 1, 8448
3, 776627, Pitch_bend_c, 1, 8448
3, 776646, Pitch_bend_c, 1, 8448
3, 776665, Pitch_bend_c, 1, 8448
3, 776684, Pitch_bend_c, 1, 8320
3, 776697, Pitch_bend_c, 1, 8320
3, 776716, Pitch_bend_c, 1, 8320
3, 776736, Pitch_bend_c, 1, 8192
3, 776755, Pitch_bend_c, 1, 8064
3, 776774, Pitch_bend_c, 1, 8064
3, 776787, Pitch_bend_c, 1, 8064
3, 776806, Pitch_bend_c, 1, 7936
3, 776825, Pitch_bend_c, 1, 7936
3, 776844, Pitch_bend_c, 1, 7936
3, 776864, Pitch_bend_c, 1, 7936
3, 776883, Pitch_bend_c, 1, 7936
3, 776896, Pitch_bend_c, 1, 7936
3, 776915, Pitch_bend_c, 1, 7936
3, 776934, Pitch_bend_c, 1, 7936
3, 776953, Pitch_bend_c, 1, 7936
3, 776972, Pitch_bend_c, 1, 8064
3, 776985, Pitch_bend_c, 1, 8064
3, 777004, Pitch_bend_c, 1, 8064
3, 777024, Pitch_bend_c, 1, 8192
3, 777043, Pitch_bend_c, 1, 8192
3, 777062, Pitch_bend_c, 1, 8320
3, 777075, Pitch_bend_c, 1, 8320
3, 777094, Pitch_bend_c, 1, 8320
3, 777113, Pitch_bend_c, 1, 8320
3, 777132, Pitch_bend_c, 1, 8320
3, 777152, Pitch_bend_c, 1, 8320
3, 777164, Pitch_bend_c, 1, 8320
3, 777184, Pitch_bend_c, 1, 8320
3, 777203, Pitch_bend_c, 1, 8320
3, 777216, Pitch_bend_c, 1, 8192
3, 777600, Pitch_bend_c, 1, 7552
3, 777766, Pitch_bend_c, 1, 6784
3, 777926, Pitch_bend_c, 1, 6144
3, 778092, Pitch_bend_c, 1, 5504
3, 778259, Pitch_bend_c, 1, 4736
3, 778425, Pitch_bend_c, 1, 4096
3, 778585, Pitch_bend_c, 1, 3456
3, 778752, Note_off_c, 1, 48, 80
3, 778752, Pitch_bend_c, 1, 8192
3, 778752, Note_on_c, 1, 60, 63
3, 778771, Pitch_bend_c, 1, 8192
3, 778790, Pitch_bend_c, 1, 8192
3, 778803, Pitch_bend_c, 1, 8192
3, 778822, Pitch_bend_c, 1, 8192
3, 778841, Pitch_bend_c, 1, 8192
3, 778860, Pitch_bend_c, 1, 8192
3, 778880, Pitch_bend_c, 1, 8192
3, 778892, Pitch_bend_c, 1, 8192
3, 778912, Pitch_bend_c, 1, 8192
3, 778931, Pitch_bend_c, 1, 8192
3, 778950, Pitch_bend_c, 1, 8192
3, 778969, Pitch_bend_c, 1, 8192
3, 778988, Pitch_bend_c, 1, 8192
3, 779001, Pitch_bend_c, 1, 8192
3, 779020, Pitch_bend_c, 1, 8192
3, 779040, Pitch_bend_c, 1, 8192
3, 779059, Pitch_bend_c, 1, 8192
3, 779078, Pitch_bend_c, 1, 8192
3, 779091, Pitch_bend_c, 1, 8192
3, 779110, Pitch_bend_c, 1, 8192
3, 779129, Pitch_bend_c, 1, 8192
3, 779148, Pitch_bend_c, 1, 8192
3, 779168, Pitch_bend_c, 1, 8192
3, 779187, Pitch_bend_c, 1, 8192
3, 779200, Pitch_bend_c, 1, 8192
3, 779219, Pitch_bend_c, 1, 8192
3, 779238, Pitch_bend_c, 1, 8192
3, 779257, Pitch_bend_c, 1, 8192
3, 779264, Note_off_c, 1, 60, 80
3, 779264, Pitch_bend_c, 1, 8192
3, 779264, Note_on_c, 1, 62, 63
3, 779776, Note_off_c, 1, 62, 80
3, 779776, Note_on_c, 1, 65, 63
3, 780288, Note_off_c, 1, 65, 80
3, 780288, Note_on_c, 1, 67, 63
3, 780800, Note_off_c, 1, 67, 80
3, 780800, Note_on_c, 1, 71, 63
3, 781312, Note_on_c, 1, 67, 63
3, 781312, Pitch_bend_c, 1, 8192
3, 781331, Pitch_bend_c, 1, 8192
3, 781350, Pitch_bend_c, 1, 8192
3, 781363, Pitch_bend_c, 1, 8192
3, 781382, Pitch_bend_c, 1, 8192
3, 781401, Pitch_bend_c, 1, 8192
3, 781420, Pitch_bend_c, 1, 8192
3, 781440, Pitch_bend_c, 1, 8192
3, 781452, Pitch_bend_c, 1, 8192
3, 781472, Pitch_bend_c, 1, 8192
3, 781491, Pitch_bend_c, 1, 8192
3, 781510, Pitch_bend_c, 1, 8192
3, 781529, Pitch_bend_c, 1, 8192
3, 781548, Pitch_bend_c, 1, 8192
3, 781561, Pitch_bend_c, 1, 8192
3, 781580, Pitch_bend_c, 1, 8192
3, 781600, Pitch_bend_c, 1, 8192
3, 781619, Pitch_bend_c, 1, 8192
3, 781638, Pitch_bend_c, 1, 8192
3, 781651, Pitch_bend_c, 1, 8192
3, 781670, Pitch_bend_c, 1, 8192
3, 781689, Pitch_bend_c, 1, 8192
3, 781708, Pitch_bend_c, 1, 8192
3, 781728, Pitch_bend_c, 1, 8192
3, 781747, Pitch_bend_c, 1, 8192
3, 781760, Pitch_bend_c, 1, 8192
3, 781779, Pitch_bend_c, 1, 8192
3, 781798, Pitch_bend_c, 1, 8192
3, 781817, Pitch_bend_c, 1, 8192
3, 781836, Pitch_bend_c, 1, 8192
3, 781849, Pitch_bend_c, 1, 8192
3, 781868, Pitch_bend_c, 1, 8192
3, 781888, Pitch_bend_c, 1, 8192
3, 781907, Pitch_bend_c, 1, 8192
3, 781926, Pitch_bend_c, 1, 8320
3, 781939, Pitch_bend_c, 1, 8320
3, 781958, Pitch_bend_c, 1, 8320
3, 781977, Pitch_bend_c, 1, 8320
3, 781996, Pitch_bend_c, 1, 8320
3, 782016, Pitch_bend_c, 1, 8320
3, 782028, Pitch_bend_c, 1, 8320
3, 782048, Pitch_bend_c, 1, 8320
3, 782067, Pitch_bend_c, 1, 8320
3, 782086, Pitch_bend_c, 1, 8320
3, 782105, Pitch_bend_c, 1, 8320
3, 782124, Pitch_bend_c, 1, 8320
3, 782137, Pitch_bend_c, 1, 8320
3, 782156, Pitch_bend_c, 1, 8192
3, 782176, Pitch_bend_c, 1, 8192
3, 782195, Pitch_bend_c, 1, 8192
3, 782214, Pitch_bend_c, 1, 8064
3, 782227, Pitch_bend_c, 1, 8064
3, 782246, Pitch_bend_c, 1, 8064
3, 782265, Pitch_bend_c, 1, 8064
3, 782284, Pitch_bend_c, 1, 8064
3, 782304, Pitch_bend_c, 1, 8064
3, 782323, Pitch_bend_c, 1, 8064
3, 782336, Pitch_bend_c, 1, 8064
3, 782355, Pitch_bend_c, 1, 8064
3, 782374, Pitch_bend_c, 1, 8064
3, 782393, Pitch_bend_c, 1, 8064
3, 782412, Pitch_bend_c, 1, 8064
3, 782425, Pitch_bend_c, 1, 8064
3, 782444, Pitch_bend_c, 1, 8192
3, 782464, Pitch_bend_c, 1, 8192
3, 782483, Pitch_bend_c, 1, 8320
3, 782502, Pitch_bend_c, 1, 8320
3, 782515, Pitch_bend_c, 1, 8320
3, 782534, Pitch_bend_c, 1, 8448
3, 782553, Pitch_bend_c, 1, 8448
3, 782572, Pitch_bend_c, 1, 8448
3, 782592, Pitch_bend_c, 1, 8448
3, 782604, Pitch_bend_c, 1, 8448
3, 782624, Pitch_bend_c, 1, 8448
3, 782643, Pitch_bend_c, 1, 8448
3, 782662, Pitch_bend_c, 1, 8448
3, 782681, Pitch_bend_c, 1, 8448
3, 782700, Pitch_bend_c, 1, 8320
3, 782713, Pitch_bend_c, 1, 8320
3, 782732, Pitch_bend_c, 1, 8320
3, 782752, Pitch_bend_c, 1, 8192
3, 782771, Pitch_bend_c, 1, 8064
3, 782790, Pitch_bend_c, 1, 8064
3, 782803, Pitch_bend_c, 1, 8064
3, 782822, Pitch_bend_c, 1, 7936
3, 782841, Pitch_bend_c, 1, 7936
3, 782860, Pitch_bend_c, 1, 7936
3, 782880, Pitch_bend_c, 1, 7936
3, 782899, Pitch_bend_c, 1, 7936
3, 782912, Pitch_bend_c, 1, 7936
3, 782931, Pitch_bend_c, 1, 7936
3, 782950, Pitch_bend_c, 1, 7936
3, 782969, Pitch_bend_c, 1, 7936
3, 782988, Pitch_bend_c, 1, 8064
3, 783001, Pitch_bend_c, 1, 8064
3, 783020, Pitch_bend_c, 1, 8064
3, 783040, Pitch_bend_c, 1, 8192
3, 783059, Pitch_bend_c, 1, 8192
3, 783078, Pitch_bend_c, 1, 8320
3, 783091, Pitch_bend_c, 1, 8320
3, 783110, Pitch_bend_c, 1, 8320
3, 783129, Pitch_bend_c, 1, 8448
3, 783148, Pitch_bend_c, 1, 8448
3, 783168, Pitch_bend_c, 1, 8448
3, 783180, Pitch_bend_c, 1, 8448
3, 783200, Pitch_bend_c, 1, 8448
3, 783219, Pitch_bend_c, 1, 8448
3, 783238, Pitch_bend_c, 1, 8448
3, 783257, Pitch_bend_c, 1, 8320
3, 783276, Pitch_bend_c, 1, 8320
3, 783289, Pitch_bend_c, 1, 8320
3, 783308, Pitch_bend_c, 1, 8192
3, 783328, Pitch_bend_c, 1, 8192
3, 783347, Pitch_bend_c, 1, 8192
3, 783360, Note_off_c, 1, 67, 80
3, 783360, Pitch_bend_c, 1, 8192
3, 783360, Note_on_c, 1, 72, 63
3, 783411, Pitch_bend_c, 1, 8192
3, 783456, Pitch_bend_c, 1, 8192
3, 783500, Pitch_bend_c, 1, 8192
3, 783552, Pitch_bend_c, 1, 8192
3, 783603, Pitch_bend_c, 1, 8192
3, 783648, Pitch_bend_c, 1, 8192
3, 783692, Pitch_bend_c, 1, 8192
3, 783744, Pitch_bend_c, 1, 8192
3, 783795, Pitch_bend_c, 1, 8192
3, 783840, Pitch_bend_c, 1, 8192
3, 783884, Pitch_bend_c, 1, 8192
3, 783936, Pitch_bend_c, 1, 8192
3, 783987, Pitch_bend_c, 1, 8192
3, 784032, Pitch_bend_c, 1, 8192
3, 784076, Pitch_bend_c, 1, 8192
3, 784128, Pitch_bend_c, 1, 9600
3, 785664, Note_off_c, 1, 72, 80
3, 785664, Pitch_bend_c, 1, 8192
3, 785664, Note_on_c, 1, 77, 63
3, 786432, Note_on_c, 1, 72, 63
3, 786432, Pitch_bend_c, 1, 9600
3, 786944, Note_off_c, 1, 77, 80
3, 786944, Note_off_c, 1, 72, 80
3, 786944, Pitch_bend_c, 1, 8192
3, 786944, Note_on_c, 1, 77, 63
3, 787456, Note_on_c, 1, 72, 63
3, 787456, Pitch_bend_c, 1, 9600
3, 787968, Note_off_c, 1, 77, 80
3, 787968, Note_off_c, 1, 72, 80
3, 787968, Pitch_bend_c, 1, 8192
3, 787968, Note_on_c, 1, 77, 63
3, 788352, Note_on_c, 1, 72, 63
3, 788352, Pitch_bend_c, 1, 9600
3, 788736, Note_off_c, 1, 77, 80
3, 788736, Note_off_c, 1, 72, 80
3, 788736, Pitch_bend_c, 1, 8192
3, 788736, Note_on_c, 1, 77, 63
3, 789120, Note_on_c, 1, 72, 63
3, 789120, Pitch_bend_c, 1, 9600
3, 789504, Note_off_c, 1, 77, 80
3, 789504, Note_off_c, 1, 72, 80
3, 789504, Pitch_bend_c, 1, 8192
3, 789504, Note_on_c, 1, 77, 63
3, 789888, Note_on_c, 1, 72, 63
3, 789888, Pitch_bend_c, 1, 9600
3, 790272, Note_off_c, 1, 77, 80
3, 790272, Note_off_c, 1, 72, 80
3, 790272, Pitch_bend_c, 1, 8192
3, 790272, Note_on_c, 1, 77, 63
3, 790656, Note_on_c, 1, 72, 63
3, 791040, Note_off_c, 1, 77, 80
3, 791040, Note_on_c, 1, 77, 63
3, 791424, Note_off_c, 1, 72, 80
3, 791424, Note_on_c, 1, 72, 63
3, 791424, Pitch_bend_c, 1, 9216
3, 791808, Note_off_c, 1, 77, 80
3, 791808, Note_off_c, 1, 72, 80
3, 791808, Pitch_bend_c, 1, 8192
3, 791808, Note_on_c, 1, 77, 63
3, 792192, Note_on_c, 1, 72, 63
3, 792192, Pitch_bend_c, 1, 9216
3, 792576, Note_off_c, 1, 77, 80
3, 792576, Note_off_c, 1, 72, 80
3, 792576, Pitch_bend_c, 1, 8192
3, 792576, Note_on_c, 1, 77, 63
3, 792960, Note_on_c, 1, 72, 63
3, 792960, Pitch_bend_c, 1, 9216
3, 793344, Note_off_c, 1, 77, 80
3, 793344, Note_off_c, 1, 72, 80
3, 793344, Pitch_bend_c, 1, 8192
3, 793344, Note_on_c, 1, 77, 63
3, 793728, Note_off_c, 1, 77, 80
3, 793728, Note_on_c, 1, 72, 63
3, 794112, Note_off_c, 1, 72, 80
3, 794112, Note_on_c, 1, 72, 63
3, 794112, Pitch_bend_c, 1, 8832
3, 794726, Pitch_bend_c, 1, 8704
3, 794828, Pitch_bend_c, 1, 8576
3, 794931, Pitch_bend_c, 1, 8320
3, 795033, Pitch_bend_c, 1, 8192
3, 795648, Note_off_c, 1, 72, 80
3, 795648, Pitch_bend_c, 1, 8192
3, 795648, Note_on_c, 1, 82, 63
3, 795660, Pitch_bend_c, 1, 8192
3, 795667, Pitch_bend_c, 1, 8192
3, 795680, Pitch_bend_c, 1, 8192
3, 795686, Pitch_bend_c, 1, 8192
3, 795699, Pitch_bend_c, 1, 8192
3, 795705, Pitch_bend_c, 1, 8192
3, 795718, Pitch_bend_c, 1, 8192
3, 795724, Pitch_bend_c, 1, 8192
3, 795737, Pitch_bend_c, 1, 8192
3, 795750, Pitch_bend_c, 1, 8192
3, 795756, Pitch_bend_c, 1, 8192
3, 795769, Pitch_bend_c, 1, 8192
3, 795776, Pitch_bend_c, 1, 8192
3, 795788, Pitch_bend_c, 1, 8192
3, 795795, Pitch_bend_c, 1, 8192
3, 795808, Pitch_bend_c, 1, 8192
3, 795820, Pitch_bend_c, 1, 8192
3, 795827, Pitch_bend_c, 1, 8192
3, 795840, Pitch_bend_c, 1, 8192
3, 795846, Pitch_bend_c, 1, 8192
3, 795859, Pitch_bend_c, 1, 8192
3, 795865, Pitch_bend_c, 1, 8192
3, 795878, Pitch_bend_c, 1, 8192
3, 795891, Pitch_bend_c, 1, 8192
3, 795897, Pitch_bend_c, 1, 8192
3, 795910, Pitch_bend_c, 1, 8192
3, 795916, Pitch_bend_c, 1, 8192
3, 795929, Pitch_bend_c, 1, 8192
3, 795936, Pitch_bend_c, 1, 8192
3, 795948, Pitch_bend_c, 1, 8192
3, 795955, Pitch_bend_c, 1, 8192
3, 795968, Pitch_bend_c, 1, 8192
3, 795980, Pitch_bend_c, 1, 8320
3, 795987, Pitch_bend_c, 1, 8320
3, 796000, Pitch_bend_c, 1, 8448
3, 796006, Pitch_bend_c, 1, 8576
3, 796019, Pitch_bend_c, 1, 8576
3, 796025, Pitch_bend_c, 1, 8704
3, 796038, Pitch_bend_c, 1, 8704
3, 796044, Pitch_bend_c, 1, 8704
3, 796057, Pitch_bend_c, 1, 8704
3, 796070, Pitch_bend_c, 1, 8704
3, 796076, Pitch_bend_c, 1, 8576
3, 796089, Pitch_bend_c, 1, 8576
3, 796096, Pitch_bend_c, 1, 8448
3, 796108, Pitch_bend_c, 1, 8320
3, 796115, Pitch_bend_c, 1, 8320
3, 796128, Pitch_bend_c, 1, 8192
3, 796140, Pitch_bend_c, 1, 8064
3, 796147, Pitch_bend_c, 1, 8064
3, 796160, Pitch_bend_c, 1, 7936
3, 796166, Pitch_bend_c, 1, 7808
3, 796179, Pitch_bend_c, 1, 7808
3, 796185, Pitch_bend_c, 1, 7680
3, 796198, Pitch_bend_c, 1, 7680
3, 796211, Pitch_bend_c, 1, 7680
3, 796217, Pitch_bend_c, 1, 7680
3, 796230, Pitch_bend_c, 1, 7680
3, 796236, Pitch_bend_c, 1, 7808
3, 796249, Pitch_bend_c, 1, 7808
3, 796256, Pitch_bend_c, 1, 7936
3, 796268, Pitch_bend_c, 1, 8064
3, 796275, Pitch_bend_c, 1, 8064
3, 796288, Pitch_bend_c, 1, 8192
3, 796300, Pitch_bend_c, 1, 8320
3, 796307, Pitch_bend_c, 1, 8320
3, 796320, Pitch_bend_c, 1, 8448
3, 796326, Pitch_bend_c, 1, 8576
3, 796339, Pitch_bend_c, 1, 8576
3, 796345, Pitch_bend_c, 1, 8704
3, 796358, Pitch_bend_c, 1, 8704
3, 796364, Pitch_bend_c, 1, 8704
3, 796377, Pitch_bend_c, 1, 8704
3, 796390, Pitch_bend_c, 1, 8704
3, 796396, Pitch_bend_c, 1, 8576
3, 796409, Pitch_bend_c, 1, 8576
3, 796416, Pitch_bend_c, 1, 8448
3, 796428, Pitch_bend_c, 1, 8320
3, 796435, Pitch_bend_c, 1, 8320
3, 796448, Pitch_bend_c, 1, 8192
3, 796460, Pitch_bend_c, 1, 8064
3, 796467, Pitch_bend_c, 1, 8064
3, 796480, Pitch_bend_c, 1, 7936
3, 796486, Pitch_bend_c, 1, 7808
3, 796499, Pitch_bend_c, 1, 7808
3, 796505, Pitch_bend_c, 1, 7680
3, 796518, Pitch_bend_c, 1, 7680
3, 796531, Pitch_bend_c, 1, 7680
3, 796537, Pitch_bend_c, 1, 7680
3, 796550, Pitch_bend_c, 1, 7680
3, 796556, Pitch_bend_c, 1, 7808
3, 796569, Pitch_bend_c, 1, 7808
3, 796576, Pitch_bend_c, 1, 7936
3, 796588, Pitch_bend_c, 1, 8064
3, 796595, Pitch_bend_c, 1, 8064
3, 796608, Pitch_bend_c, 1, 8192
3, 796620, Pitch_bend_c, 1, 8320
3, 796627, Pitch_bend_c, 1, 8448
3, 796640, Pitch_bend_c, 1, 8576
3, 796646, Pitch_bend_c, 1, 8576
3, 796659, Pitch_bend_c, 1, 8704
3, 796665, Pitch_bend_c, 1, 8704
3, 796678, Pitch_bend_c, 1, 8704
3, 796684, Pitch_bend_c, 1, 8704
3, 796697, Pitch_bend_c, 1, 8704
3, 796710, Pitch_bend_c, 1, 8704
3, 796716, Pitch_bend_c, 1, 8704
3, 796729, Pitch_bend_c, 1, 8576
3, 796736, Pitch_bend_c, 1, 8576
3, 796748, Pitch_bend_c, 1, 8448
3, 796755, Pitch_bend_c, 1, 8320
3, 796768, Pitch_bend_c, 1, 8192
3, 796780, Pitch_bend_c, 1, 8064
3, 796787, Pitch_bend_c, 1, 7936
3, 796800, Pitch_bend_c, 1, 7808
3, 796806, Pitch_bend_c, 1, 7808
3, 796819, Pitch_bend_c, 1, 7680
3, 796825, Pitch_bend_c, 1, 7680
3, 796838, Pitch_bend_c, 1, 7680
3, 796851, Pitch_bend_c, 1, 7680
3, 796857, Pitch_bend_c, 1, 7680
3, 796870, Pitch_bend_c, 1, 7680
3, 796876, Pitch_bend_c, 1, 7680
3, 796889, Pitch_bend_c, 1, 7808
3, 796896, Pitch_bend_c, 1, 7808
3, 796908, Pitch_bend_c, 1, 7936
3, 796915, Pitch_bend_c, 1, 8064
3, 796928, Pitch_bend_c, 1, 8192
3, 796940, Pitch_bend_c, 1, 8320
3, 796947, Pitch_bend_c, 1, 8448
3, 796960, Pitch_bend_c, 1, 8576
3, 796966, Pitch_bend_c, 1, 8576
3, 796979, Pitch_bend_c, 1, 8704
3, 796985, Pitch_bend_c, 1, 8704
3, 796998, Pitch_bend_c, 1, 8704
3, 797004, Pitch_bend_c, 1, 8704
3, 797017, Pitch_bend_c, 1, 8704
3, 797030, Pitch_bend_c, 1, 8704
3, 797036, Pitch_bend_c, 1, 8704
3, 797049, Pitch_bend_c, 1, 8576
3, 797056, Pitch_bend_c, 1, 8576
3, 797068, Pitch_bend_c, 1, 8448
3, 797075, Pitch_bend_c, 1, 8320
3, 797088, Pitch_bend_c, 1, 8192
3, 797100, Pitch_bend_c, 1, 8064
3, 797107, Pitch_bend_c, 1, 7936
3, 797120, Pitch_bend_c, 1, 7808
3, 797126, Pitch_bend_c, 1, 7808
3, 797139, Pitch_bend_c, 1, 7680
3, 797145, Pitch_bend_c, 1, 7680
3, 797158, Pitch_bend_c, 1, 7680
3, 797171, Pitch_bend_c, 1, 7680
3, 797177, Pitch_bend_c, 1, 7680
3, 797190, Pitch_bend_c, 1, 7680
3, 797196, Pitch_bend_c, 1, 7680
3, 797209, Pitch_bend_c, 1, 7808
3, 797216, Pitch_bend_c, 1, 7808
3, 797228, Pitch_bend_c, 1, 7936
3, 797235, Pitch_bend_c, 1, 8064
3, 797248, Pitch_bend_c, 1, 8192
3, 797260, Pitch_bend_c, 1, 8320
3, 797267, Pitch_bend_c, 1, 8448
3, 797280, Pitch_bend_c, 1, 8576
3, 797286, Pitch_bend_c, 1, 8576
3, 797299, Pitch_bend_c, 1, 8704
3, 797305, Pitch_bend_c, 1, 8704
3, 797318, Pitch_bend_c, 1, 8704
3, 797324, Pitch_bend_c, 1, 8832
3, 797337, Pitch_bend_c, 1, 8704
3, 797350, Pitch_bend_c, 1, 8704
3, 797356, Pitch_bend_c, 1, 8704
3, 797369, Pitch_bend_c, 1, 8576
3, 797376, Pitch_bend_c, 1, 8576
3, 797388, Pitch_bend_c, 1, 8448
3, 797395, Pitch_bend_c, 1, 8320
3, 797408, Pitch_bend_c, 1, 8192
3, 797420, Pitch_bend_c, 1, 8064
3, 797427, Pitch_bend_c, 1, 7936
3, 797440, Pitch_bend_c, 1, 7808
3, 797446, Pitch_bend_c, 1, 7808
3, 797459, Pitch_bend_c, 1, 7680
3, 797465, Pitch_bend_c, 1, 7680
3, 797478, Pitch_bend_c, 1, 7680
3, 797491, Pitch_bend_c, 1, 7552
3, 797497, Pitch_bend_c, 1, 7680
3, 797510, Pitch_bend_c, 1, 7680
3, 797516, Pitch_bend_c, 1, 7680
3, 797529, Pitch_bend_c, 1, 7808
3, 797536, Pitch_bend_c, 1, 7808
3, 797548, Pitch_bend_c, 1, 7936
3, 797555, Pitch_bend_c, 1, 8064
3, 797568, Pitch_bend_c, 1, 8192
3, 797580, Pitch_bend_c, 1, 8320
3, 797587, Pitch_bend_c, 1, 8448
3, 797600, Pitch_bend_c, 1, 8576
3, 797606, Pitch_bend_c, 1, 8576
3, 797619, Pitch_bend_c, 1, 8704
3, 797625, Pitch_bend_c, 1, 8704
3, 797638, Pitch_bend_c, 1, 8704
3, 797644, Pitch_bend_c, 1, 8704
3, 797657, Pitch_bend_c, 1, 8704
3, 797670, Pitch_bend_c, 1, 8704
3, 797676, Pitch_bend_c, 1, 8704
3, 797689, Pitch_bend_c, 1, 8576
3, 797696, Pitch_bend_c, 1, 8576
3, 797708, Pitch_bend_c, 1, 8448
3, 797715, Pitch_bend_c, 1, 8320
3, 797728, Pitch_bend_c, 1, 8192
3, 797740, Pitch_bend_c, 1, 8064
3, 797747, Pitch_bend_c, 1, 7936
3, 797760, Pitch_bend_c, 1, 7808
3, 797766, Pitch_bend_c, 1, 7808
3, 797779, Pitch_bend_c, 1, 7680
3, 797785, Pitch_bend_c, 1, 7680
3, 797798, Pitch_bend_c, 1, 7680
3, 797811, Pitch_bend_c, 1, 7680
3, 797817, Pitch_bend_c, 1, 7680
3, 797830, Pitch_bend_c, 1, 7680
3, 797836, Pitch_bend_c, 1, 7680
3, 797849, Pitch_bend_c, 1, 7808
3, 797856, Pitch_bend_c, 1, 7808
3, 797868, Pitch_bend_c, 1, 7936
3, 797875, Pitch_bend_c, 1, 8064
3, 797888, Pitch_bend_c, 1, 8192
3, 797900, Pitch_bend_c, 1, 8192
3, 797907, Pitch_bend_c, 1, 8192
3, 797920, Pitch_bend_c, 1, 8192
3, 797926, Pitch_bend_c, 1, 8192
3, 797939, Pitch_bend_c, 1, 8192
3, 797945, Pitch_bend_c, 1, 8192
3, 797952, Note_off_c, 1, 82, 80
3, 797952, Pitch_bend_c, 1, 8192
3, 797952, Note_on_c, 1, 67, 63
3, 797952, Note_off_c, 1, 67, 80
3, 798336, Note_on_c, 1, 65, 63
3, 798720, Note_off_c, 1, 65, 80
3, 798720, Note_on_c, 1, 77, 63
3, 798720, Pitch_bend_c, 1, 8192
3, 798739, Pitch_bend_c, 1, 8192
3, 798758, Pitch_bend_c, 1, 8192
3, 798771, Pitch_bend_c, 1, 8192
3, 798790, Pitch_bend_c, 1, 8192
3, 798809, Pitch_bend_c, 1, 8192
3, 798828, Pitch_bend_c, 1, 8192
3, 798848, Pitch_bend_c, 1, 8192
3, 798860, Pitch_bend_c, 1, 8192
3, 798880, Pitch_bend_c, 1, 8192
3, 798899, Pitch_bend_c, 1, 8192
3, 798918, Pitch_bend_c, 1, 8192
3, 798937, Pitch_bend_c, 1, 8192
3, 798956, Pitch_bend_c, 1, 8192
3, 798969, Pitch_bend_c, 1, 8192
3, 798988, Pitch_bend_c, 1, 8192
3, 799008, Pitch_bend_c, 1, 8192
3, 799027, Pitch_bend_c, 1, 8192
3, 799046, Pitch_bend_c, 1, 8192
3, 799059, Pitch_bend_c, 1, 8192
3, 799078, Pitch_bend_c, 1, 8192
3, 799097, Pitch_bend_c, 1, 8192
3, 799116, Pitch_bend_c, 1, 8192
3, 799136, Pitch_bend_c, 1, 8192
3, 799155, Pitch_bend_c, 1, 8192
3, 799168, Pitch_bend_c, 1, 8192
3, 799187, Pitch_bend_c, 1, 8192
3, 799206, Pitch_bend_c, 1, 8192
3, 799225, Pitch_bend_c, 1, 8192
3, 799244, Pitch_bend_c, 1, 8192
3, 799257, Pitch_bend_c, 1, 8192
3, 799276, Pitch_bend_c, 1, 8192
3, 799296, Pitch_bend_c, 1, 8192
3, 799315, Pitch_bend_c, 1, 8192
3, 799334, Pitch_bend_c, 1, 8320
3, 799347, Pitch_bend_c, 1, 8320
3, 799366, Pitch_bend_c, 1, 8320
3, 799385, Pitch_bend_c, 1, 8448
3, 799404, Pitch_bend_c, 1, 8448
3, 799424, Pitch_bend_c, 1, 8448
3, 799436, Pitch_bend_c, 1, 8448
3, 799456, Pitch_bend_c, 1, 8448
3, 799475, Pitch_bend_c, 1, 8448
3, 799494, Pitch_bend_c, 1, 8448
3, 799513, Pitch_bend_c, 1, 8320
3, 799532, Pitch_bend_c, 1, 8320
3, 799545, Pitch_bend_c, 1, 8320
3, 799564, Pitch_bend_c, 1, 8192
3, 799584, Pitch_bend_c, 1, 8192
3, 799603, Pitch_bend_c, 1, 8192
3, 799622, Pitch_bend_c, 1, 8064
3, 799635, Pitch_bend_c, 1, 8064
3, 799654, Pitch_bend_c, 1, 8064
3, 799673, Pitch_bend_c, 1, 7936
3, 799692, Pitch_bend_c, 1, 7936
3, 799712, Pitch_bend_c, 1, 7936
3, 799731, Pitch_bend_c, 1, 7936
3, 799744, Pitch_bend_c, 1, 7936
3, 799763, Pitch_bend_c, 1, 7936
3, 799782, Pitch_bend_c, 1, 7936
3, 799801, Pitch_bend_c, 1, 8064
3, 799820, Pitch_bend_c, 1, 8064
3, 799833, Pitch_bend_c, 1, 8064
3, 799852, Pitch_bend_c, 1, 8192
3, 799872, Note_off_c, 1, 77, 80
3, 799872, Pitch_bend_c, 1, 8192
3, 799872, Note_on_c, 1, 72, 63
3, 799974, Pitch_bend_c, 1, 8448
3, 800076, Pitch_bend_c, 1, 8832
3, 800486, Pitch_bend_c, 1, 8448
3, 800588, Pitch_bend_c, 1, 8192
3, 800640, Note_on_c, 1, 70, 63
3, 800640, Pitch_bend_c, 1, 8192
3, 800665, Pitch_bend_c, 1, 8192
3, 800691, Pitch_bend_c, 1, 8192
3, 800710, Pitch_bend_c, 1, 8192
3, 800736, Pitch_bend_c, 1, 8192
3, 800761, Pitch_bend_c, 1, 8192
3, 800780, Pitch_bend_c, 1, 8192
3, 800806, Pitch_bend_c, 1, 8192
3, 800832, Pitch_bend_c, 1, 8192
3, 800857, Pitch_bend_c, 1, 8192
3, 800883, Pitch_bend_c, 1, 8192
3, 800902, Pitch_bend_c, 1, 8192
3, 800928, Pitch_bend_c, 1, 8192
3, 800953, Pitch_bend_c, 1, 8192
3, 800972, Pitch_bend_c, 1, 8192
3, 800998, Pitch_bend_c, 1, 8192
3, 801024, Note_off_c, 1, 72, 80
3, 801024, Pitch_bend_c, 1, 8192
3, 801792, Note_off_c, 1, 70, 80
3, 801792, Note_on_c, 1, 67, 63
3, 801792, Pitch_bend_c, 1, 8192
3, 801811, Pitch_bend_c, 1, 8192
3, 801830, Pitch_bend_c, 1, 8192
3, 801843, Pitch_bend_c, 1, 8192
3, 801862, Pitch_bend_c, 1, 8192
3, 801881, Pitch_bend_c, 1, 8192
3, 801900, Pitch_bend_c, 1, 8192
3, 801920, Pitch_bend_c, 1, 8192
3, 801932, Pitch_bend_c, 1, 8192
3, 801952, Pitch_bend_c, 1, 8192
3, 801971, Pitch_bend_c, 1, 8192
3, 801990, Pitch_bend_c, 1, 8192
3, 802009, Pitch_bend_c, 1, 8192
3, 802028, Pitch_bend_c, 1, 8192
3, 802041, Pitch_bend_c, 1, 8192
3, 802060, Pitch_bend_c, 1, 8192
3, 802080, Pitch_bend_c, 1, 8192
3, 802099, Pitch_bend_c, 1, 8192
3, 802118, Pitch_bend_c, 1, 8192
3, 802131, Pitch_bend_c, 1, 8192
3, 802150, Pitch_bend_c, 1, 8192
3, 802169, Pitch_bend_c, 1, 8192
3, 802188, Pitch_bend_c, 1, 8192
3, 802208, Pitch_bend_c, 1, 8192
3, 802227, Pitch_bend_c, 1, 8192
3, 802240, Pitch_bend_c, 1, 8192
3, 802259, Pitch_bend_c, 1, 8192
3, 802278, Pitch_bend_c, 1, 8192
3, 802297, Pitch_bend_c, 1, 8192
3, 802316, Pitch_bend_c, 1, 8192
3, 802329, Pitch_bend_c, 1, 8192
3, 802348, Pitch_bend_c, 1, 8192
3, 802368, Pitch_bend_c, 1, 8192
3, 802387, Pitch_bend_c, 1, 8192
3, 802406, Pitch_bend_c, 1, 8320
3, 802419, Pitch_bend_c, 1, 8320
3, 802438, Pitch_bend_c, 1, 8320
3, 802457, Pitch_bend_c, 1, 8448
3, 802476, Pitch_bend_c, 1, 8448
3, 802496, Pitch_bend_c, 1, 8448
3, 802508, Pitch_bend_c, 1, 8448
3, 802528, Pitch_bend_c, 1, 8448
3, 802547, Pitch_bend_c, 1, 8448
3, 802566, Pitch_bend_c, 1, 8448
3, 802585, Pitch_bend_c, 1, 8320
3, 802604, Pitch_bend_c, 1, 8320
3, 802617, Pitch_bend_c, 1, 8320
3, 802636, Pitch_bend_c, 1, 8192
3, 802656, Pitch_bend_c, 1, 8192
3, 802675, Pitch_bend_c, 1, 8192
3, 802694, Pitch_bend_c, 1, 8064
3, 802707, Pitch_bend_c, 1, 8064
3, 802726, Pitch_bend_c, 1, 8064
3, 802745, Pitch_bend_c, 1, 7936
3, 802764, Pitch_bend_c, 1, 7936
3, 802784, Pitch_bend_c, 1, 7936
3, 802803, Pitch_bend_c, 1, 7936
3, 802816, Pitch_bend_c, 1, 7936
3, 802835, Pitch_bend_c, 1, 7936
3, 802854, Pitch_bend_c, 1, 7936
3, 802873, Pitch_bend_c, 1, 8064
3, 802892, Pitch_bend_c, 1, 8064
3, 802905, Pitch_bend_c, 1, 8064
3, 802924, Pitch_bend_c, 1, 8192
3, 802944, Pitch_bend_c, 1, 8192
3, 802963, Pitch_bend_c, 1, 8192
3, 802982, Pitch_bend_c, 1, 8320
3, 802995, Pitch_bend_c, 1, 8320
3, 803014, Pitch_bend_c, 1, 8448
3, 803033, Pitch_bend_c, 1, 8448
3, 803052, Pitch_bend_c, 1, 8448
3, 803072, Pitch_bend_c, 1, 8448
3, 803084, Pitch_bend_c, 1, 8448
3, 803104, Pitch_bend_c, 1, 8448
3, 803123, Pitch_bend_c, 1, 8448
3, 803142, Pitch_bend_c, 1, 8448
3, 803161, Pitch_bend_c, 1, 8448
3, 803180, Pitch_bend_c, 1, 8320
3, 803193, Pitch_bend_c, 1, 8320
3, 803212, Pitch_bend_c, 1, 8192
3, 803232, Pitch_bend_c, 1, 8192
3, 803251, Pitch_bend_c, 1, 8192
3, 803270, Pitch_bend_c, 1, 8064
3, 803283, Pitch_bend_c, 1, 8064
3, 803302, Pitch_bend_c, 1, 7936
3, 803321, Pitch_bend_c, 1, 7936
3, 803328, Note_off_c, 1, 67, 80
3, 803328, Pitch_bend_c, 1, 8192
3, 803328, Note_on_c, 1, 77, 63
3, 803712, Note_off_c, 1, 77, 80
3, 803712, Note_on_c, 1, 73, 63
3, 804096, Note_off_c, 1, 73, 80
3, 804096, Note_on_c, 1, 72, 50
3, 804480, Note_off_c, 1, 72, 80
3, 804480, Note_on_c, 1, 70, 63
3, 804864, Note_off_c, 1, 70, 80
3, 804864, Note_on_c, 1, 67, 63
3, 805376, Note_off_c, 1, 67, 80
3, 805376, Note_on_c, 1, 70, 63
3, 805888, Note_off_c, 1, 70, 80
3, 805888, Note_on_c, 1, 72, 63
3, 806348, Pitch_bend_c, 1, 8832
3, 806400, Pitch_bend_c, 1, 9600
3, 806912, Note_off_c, 1, 72, 80
3, 806912, Pitch_bend_c, 1, 8192
3, 806912, Note_on_c, 1, 77, 63
3, 807424, Note_on_c, 1, 79, 63
3, 807936, Note_off_c, 1, 79, 80
3, 807936, Note_on_c, 1, 82, 63
3, 807936, Note_on_c, 1, 79, 63
3, 807936, Pitch_bend_c, 1, 8192
3, 807936, Note_off_c, 1, 82, 80
3, 807987, Pitch_bend_c, 1, 8192
3, 808032, Pitch_bend_c, 1, 8192
3, 808076, Pitch_bend_c, 1, 8192
3, 808128, Pitch_bend_c, 1, 8192
3, 808179, Pitch_bend_c, 1, 8192
3, 808224, Pitch_bend_c, 1, 8192
3, 808268, Pitch_bend_c, 1, 8192
3, 808320, Pitch_bend_c, 1, 8192
3, 808371, Pitch_bend_c, 1, 8192
3, 808416, Pitch_bend_c, 1, 8192
3, 808460, Pitch_bend_c, 1, 8192
3, 808512, Pitch_bend_c, 1, 8192
3, 808563, Pitch_bend_c, 1, 8192
3, 808608, Pitch_bend_c, 1, 8192
3, 808652, Pitch_bend_c, 1, 8192
3, 808704, Pitch_bend_c, 1, 8192
3, 808716, Pitch_bend_c, 1, 8192
3, 808723, Pitch_bend_c, 1, 8192
3, 808736, Pitch_bend_c, 1, 8192
3, 808742, Pitch_bend_c, 1, 8192
3, 808755, Pitch_bend_c, 1, 8192
3, 808761, Pitch_bend_c, 1, 8192
3, 808774, Pitch_bend_c, 1, 8192
3, 808780, Pitch_bend_c, 1, 8192
3, 808793, Pitch_bend_c, 1, 8192
3, 808806, Pitch_bend_c, 1, 8192
3, 808812, Pitch_bend_c, 1, 8192
3, 808825, Pitch_bend_c, 1, 8192
3, 808832, Pitch_bend_c, 1, 8192
3, 808844, Pitch_bend_c, 1, 8192
3, 808851, Pitch_bend_c, 1, 8192
3, 808864, Pitch_bend_c, 1, 8192
3, 808876, Pitch_bend_c, 1, 8192
3, 808883, Pitch_bend_c, 1, 8192
3, 808896, Pitch_bend_c, 1, 8192
3, 808902, Pitch_bend_c, 1, 8192
3, 808915, Pitch_bend_c, 1, 8192
3, 808921, Pitch_bend_c, 1, 8192
3, 808934, Pitch_bend_c, 1, 8192
3, 808947, Pitch_bend_c, 1, 8192
3, 808953, Pitch_bend_c, 1, 8192
3, 808966, Pitch_bend_c, 1, 8192
3, 808972, Pitch_bend_c, 1, 8192
3, 808985, Pitch_bend_c, 1, 8192
3, 808992, Pitch_bend_c, 1, 8192
3, 809004, Pitch_bend_c, 1, 8192
3, 809011, Pitch_bend_c, 1, 8192
3, 809024, Pitch_bend_c, 1, 8192
3, 809036, Pitch_bend_c, 1, 8320
3, 809043, Pitch_bend_c, 1, 8320
3, 809056, Pitch_bend_c, 1, 8448
3, 809062, Pitch_bend_c, 1, 8448
3, 809075, Pitch_bend_c, 1, 8576
3, 809081, Pitch_bend_c, 1, 8576
3, 809094, Pitch_bend_c, 1, 8576
3, 809100, Pitch_bend_c, 1, 8704
3, 809113, Pitch_bend_c, 1, 8576
3, 809126, Pitch_bend_c, 1, 8576
3, 809132, Pitch_bend_c, 1, 8576
3, 809145, Pitch_bend_c, 1, 8448
3, 809152, Pitch_bend_c, 1, 8448
3, 809164, Pitch_bend_c, 1, 8320
3, 809171, Pitch_bend_c, 1, 8320
3, 809184, Pitch_bend_c, 1, 8192
3, 809196, Pitch_bend_c, 1, 8064
3, 809203, Pitch_bend_c, 1, 8064
3, 809216, Pitch_bend_c, 1, 7936
3, 809222, Pitch_bend_c, 1, 7936
3, 809235, Pitch_bend_c, 1, 7808
3, 809241, Pitch_bend_c, 1, 7808
3, 809254, Pitch_bend_c, 1, 7808
3, 809267, Pitch_bend_c, 1, 7680
3, 809273, Pitch_bend_c, 1, 7808
3, 809286, Pitch_bend_c, 1, 7808
3, 809292, Pitch_bend_c, 1, 7808
3, 809305, Pitch_bend_c, 1, 7936
3, 809312, Pitch_bend_c, 1, 7936
3, 809324, Pitch_bend_c, 1, 8064
3, 809331, Pitch_bend_c, 1, 8064
3, 809344, Pitch_bend_c, 1, 8192
3, 809356, Pitch_bend_c, 1, 8320
3, 809363, Pitch_bend_c, 1, 8320
3, 809376, Pitch_bend_c, 1, 8448
3, 809382, Pitch_bend_c, 1, 8576
3, 809395, Pitch_bend_c, 1, 8576
3, 809401, Pitch_bend_c, 1, 8704
3, 809414, Pitch_bend_c, 1, 8704
3, 809420, Pitch_bend_c, 1, 8704
3, 809433, Pitch_bend_c, 1, 8704
3, 809446, Pitch_bend_c, 1, 8704
3, 809452, Pitch_bend_c, 1, 8576
3, 809465, Pitch_bend_c, 1, 8576
3, 809472, Pitch_bend_c, 1, 8448
3, 809484, Pitch_bend_c, 1, 8320
3, 809491, Pitch_bend_c, 1, 8320
3, 809504, Pitch_bend_c, 1, 8192
3, 809516, Pitch_bend_c, 1, 8064
3, 809523, Pitch_bend_c, 1, 8064
3, 809536, Pitch_bend_c, 1, 7936
3, 809542, Pitch_bend_c, 1, 7808
3, 809555, Pitch_bend_c, 1, 7808
3, 809561, Pitch_bend_c, 1, 7680
3, 809574, Pitch_bend_c, 1, 7680
3, 809587, Pitch_bend_c, 1, 7680
3, 809593, Pitch_bend_c, 1, 7680
3, 809606, Pitch_bend_c, 1, 7680
3, 809612, Pitch_bend_c, 1, 7808
3, 809625, Pitch_bend_c, 1, 7808
3, 809632, Pitch_bend_c, 1, 7936
3, 809644, Pitch_bend_c, 1, 8064
3, 809651, Pitch_bend_c, 1, 8064
3, 809664, Pitch_bend_c, 1, 8192
3, 809676, Pitch_bend_c, 1, 8320
3, 809683, Pitch_bend_c, 1, 8448
3, 809696, Pitch_bend_c, 1, 8576
3, 809702, Pitch_bend_c, 1, 8576
3, 809715, Pitch_bend_c, 1, 8704
3, 809721, Pitch_bend_c, 1, 8704
3, 809734, Pitch_bend_c, 1, 8704
3, 809740, Pitch_bend_c, 1, 8832
3, 809753, Pitch_bend_c, 1, 8704
3, 809766, Pitch_bend_c, 1, 8704
3, 809772, Pitch_bend_c, 1, 8704
3, 809785, Pitch_bend_c, 1, 8576
3, 809792, Pitch_bend_c, 1, 8576
3, 809804, Pitch_bend_c, 1, 8448
3, 809811, Pitch_bend_c, 1, 8320
3, 809824, Pitch_bend_c, 1, 8192
3, 809836, Pitch_bend_c, 1, 8064
3, 809843, Pitch_bend_c, 1, 7936
3, 809856, Pitch_bend_c, 1, 7808
3, 809862, Pitch_bend_c, 1, 7808
3, 809875, Pitch_bend_c, 1, 7680
3, 809881, Pitch_bend_c, 1, 7680
3, 809894, Pitch_bend_c, 1, 7680
3, 809907, Pitch_bend_c, 1, 7552
3, 809913, Pitch_bend_c, 1, 7680
3, 809926, Pitch_bend_c, 1, 7680
3, 809932, Pitch_bend_c, 1, 7680
3, 809945, Pitch_bend_c, 1, 7808
3, 809952, Pitch_bend_c, 1, 7808
3, 809964, Pitch_bend_c, 1, 7936
3, 809971, Pitch_bend_c, 1, 8064
3, 809984, Pitch_bend_c, 1, 8192
3, 809996, Pitch_bend_c, 1, 8320
3, 810003, Pitch_bend_c, 1, 8448
3, 810016, Pitch_bend_c, 1, 8576
3, 810022, Pitch_bend_c, 1, 8576
3, 810035, Pitch_bend_c, 1, 8704
3, 810041, Pitch_bend_c, 1, 8704
3, 810054, Pitch_bend_c, 1, 8704
3, 810060, Pitch_bend_c, 1, 8704
3, 810073, Pitch_bend_c, 1, 8704
3, 810086, Pitch_bend_c, 1, 8704
3, 810092, Pitch_bend_c, 1, 8704
3, 810105, Pitch_bend_c, 1, 8576
3, 810112, Pitch_bend_c, 1, 8576
3, 810124, Pitch_bend_c, 1, 8448
3, 810131, Pitch_bend_c, 1, 8320
3, 810144, Pitch_bend_c, 1, 8192
3, 810156, Pitch_bend_c, 1, 8064
3, 810163, Pitch_bend_c, 1, 7936
3, 810176, Pitch_bend_c, 1, 7808
3, 810182, Pitch_bend_c, 1, 7808
3, 810195, Pitch_bend_c, 1, 7680
3, 810201, Pitch_bend_c, 1, 7680
3, 810214, Pitch_bend_c, 1, 7680
3, 810227, Pitch_bend_c, 1, 7680
3, 810233, Pitch_bend_c, 1, 7680
3, 810240, Note_on_c, 1, 77, 63
3, 810240, Pitch_bend_c, 1, 8192
3, 810246, Pitch_bend_c, 1, 7680
3, 810252, Pitch_bend_c, 1, 7680
3, 810265, Pitch_bend_c, 1, 7808
3, 810272, Pitch_bend_c, 1, 7808
3, 810284, Pitch_bend_c, 1, 7936
3, 810291, Pitch_bend_c, 1, 8192
3, 810304, Pitch_bend_c, 1, 8192
3, 810316, Pitch_bend_c, 1, 8320
3, 810323, Pitch_bend_c, 1, 8448
3, 810336, Pitch_bend_c, 1, 8576
3, 810342, Pitch_bend_c, 1, 8576
3, 810355, Pitch_bend_c, 1, 8704
3, 810361, Pitch_bend_c, 1, 8704
3, 810374, Pitch_bend_c, 1, 8832
3, 810380, Pitch_bend_c, 1, 8832
3, 810393, Pitch_bend_c, 1, 8832
3, 810406, Pitch_bend_c, 1, 8704
3, 810412, Pitch_bend_c, 1, 8704
3, 810425, Pitch_bend_c, 1, 8576
3, 810432, Pitch_bend_c, 1, 8576
3, 810444, Pitch_bend_c, 1, 8448
3, 810451, Pitch_bend_c, 1, 8320
3, 810464, Pitch_bend_c, 1, 8192
3, 810476, Pitch_bend_c, 1, 8064
3, 810483, Pitch_bend_c, 1, 8192
3, 810496, Pitch_bend_c, 1, 7808
3, 810502, Pitch_bend_c, 1, 7808
3, 810515, Pitch_bend_c, 1, 7680
3, 810521, Pitch_bend_c, 1, 7680
3, 810528, Pitch_bend_c, 1, 8192
3, 810534, Pitch_bend_c, 1, 7552
3, 810547, Pitch_bend_c, 1, 7552
3, 810553, Pitch_bend_c, 1, 7552
3, 810566, Pitch_bend_c, 1, 7680
3, 810572, Pitch_bend_c, 1, 7680
3, 810585, Pitch_bend_c, 1, 7808
3, 810592, Pitch_bend_c, 1, 7808
3, 810604, Pitch_bend_c, 1, 7936
3, 810611, Pitch_bend_c, 1, 8064
3, 810624, Pitch_bend_c, 1, 8192
3, 810636, Pitch_bend_c, 1, 8320
3, 810643, Pitch_bend_c, 1, 8448
3, 810656, Pitch_bend_c, 1, 8576
3, 810662, Pitch_bend_c, 1, 8576
3, 810675, Pitch_bend_c, 1, 8192
3, 810681, Pitch_bend_c, 1, 8704
3, 810694, Pitch_bend_c, 1, 8704
3, 810700, Pitch_bend_c, 1, 8704
3, 810713, Pitch_bend_c, 1, 8704
3, 810720, Pitch_bend_c, 1, 8192
3, 810726, Pitch_bend_c, 1, 8704
3, 810732, Pitch_bend_c, 1, 8704
3, 810745, Pitch_bend_c, 1, 8576
3, 810752, Pitch_bend_c, 1, 8576
3, 810764, Pitch_bend_c, 1, 8448
3, 810771, Pitch_bend_c, 1, 8320
3, 810784, Pitch_bend_c, 1, 8192
3, 810796, Pitch_bend_c, 1, 8064
3, 810803, Pitch_bend_c, 1, 7936
3, 810816, Pitch_bend_c, 1, 7808
3, 810822, Pitch_bend_c, 1, 7808
3, 810835, Pitch_bend_c, 1, 7680
3, 810841, Pitch_bend_c, 1, 7680
3, 810854, Pitch_bend_c, 1, 7680
3, 810867, Pitch_bend_c, 1, 8192
3, 810873, Pitch_bend_c, 1, 7680
3, 810886, Pitch_bend_c, 1, 7680
3, 810892, Pitch_bend_c, 1, 7680
3, 810905, Pitch_bend_c, 1, 7808
3, 810912, Pitch_bend_c, 1, 7808
3, 810924, Pitch_bend_c, 1, 7936
3, 810931, Pitch_bend_c, 1, 8064
3, 810944, Pitch_bend_c, 1, 8192
3, 810956, Pitch_bend_c, 1, 8192
3, 810963, Pitch_bend_c, 1, 8192
3, 810976, Pitch_bend_c, 1, 8192
3, 810982, Pitch_bend_c, 1, 8192
3, 810995, Pitch_bend_c, 1, 8320
3, 811001, Pitch_bend_c, 1, 8320
3, 811008, Note_off_c, 1, 79, 80
3, 811008, Pitch_bend_c, 1, 8192
3, 811020, Pitch_bend_c, 1, 8192
3, 811027, Pitch_bend_c, 1, 8192
3, 811040, Pitch_bend_c, 1, 8192
3, 811046, Pitch_bend_c, 1, 8192
3, 811059, Pitch_bend_c, 1, 8192
3, 811065, Pitch_bend_c, 1, 8192
3, 811078, Pitch_bend_c, 1, 8192
3, 811084, Pitch_bend_c, 1, 8192
3, 811097, Pitch_bend_c, 1, 8192
3, 811110, Pitch_bend_c, 1, 8192
3, 811116, Pitch_bend_c, 1, 8192
3, 811129, Pitch_bend_c, 1, 8192
3, 811136, Pitch_bend_c, 1, 8192
3, 811148, Pitch_bend_c, 1, 8192
3, 811155, Pitch_bend_c, 1, 8192
3, 811168, Pitch_bend_c, 1, 8192
3, 811180, Pitch_bend_c, 1, 8192
3, 811187, Pitch_bend_c, 1, 8192
3, 811200, Pitch_bend_c, 1, 8192
3, 811206, Pitch_bend_c, 1, 8192
3, 811219, Pitch_bend_c, 1, 8192
3, 811225, Pitch_bend_c, 1, 8192
3, 811238, Pitch_bend_c, 1, 8192
3, 811251, Pitch_bend_c, 1, 8192
3, 811257, Pitch_bend_c, 1, 8192
3, 811270, Pitch_bend_c, 1, 8192
3, 811276, Pitch_bend_c, 1, 8192
3, 811289, Pitch_bend_c, 1, 8192
3, 811296, Pitch_bend_c, 1, 8192
3, 811308, Pitch_bend_c, 1, 8192
3, 811315, Pitch_bend_c, 1, 8192
3, 811328, Pitch_bend_c, 1, 8192
3, 811340, Pitch_bend_c, 1, 8320
3, 811347, Pitch_bend_c, 1, 8448
3, 811360, Pitch_bend_c, 1, 8576
3, 811366, Pitch_bend_c, 1, 8576
3, 811379, Pitch_bend_c, 1, 8704
3, 811385, Pitch_bend_c, 1, 8704
3, 811398, Pitch_bend_c, 1, 8832
3, 811404, Pitch_bend_c, 1, 8832
3, 811417, Pitch_bend_c, 1, 8832
3, 811430, Pitch_bend_c, 1, 8704
3, 811436, Pitch_bend_c, 1, 8704
3, 811449, Pitch_bend_c, 1, 8576
3, 811456, Pitch_bend_c, 1, 8576
3, 811468, Pitch_bend_c, 1, 8448
3, 811475, Pitch_bend_c, 1, 8320
3, 811488, Pitch_bend_c, 1, 8192
3, 811500, Pitch_bend_c, 1, 8064
3, 811507, Pitch_bend_c, 1, 7936
3, 811520, Pitch_bend_c, 1, 7808
3, 811526, Pitch_bend_c, 1, 7808
3, 811539, Pitch_bend_c, 1, 7680
3, 811545, Pitch_bend_c, 1, 7680
3, 811558, Pitch_bend_c, 1, 7552
3, 811571, Pitch_bend_c, 1, 7552
3, 811577, Pitch_bend_c, 1, 7552
3, 811590, Pitch_bend_c, 1, 7680
3, 811596, Pitch_bend_c, 1, 7680
3, 811609, Pitch_bend_c, 1, 7808
3, 811616, Pitch_bend_c, 1, 7808
3, 811628, Pitch_bend_c, 1, 7936
3, 811635, Pitch_bend_c, 1, 8064
3, 811648, Pitch_bend_c, 1, 8192
3, 811660, Pitch_bend_c, 1, 8320
3, 811667, Pitch_bend_c, 1, 8448
3, 811680, Pitch_bend_c, 1, 8576
3, 811686, Pitch_bend_c, 1, 8576
3, 811699, Pitch_bend_c, 1, 8704
3, 811705, Pitch_bend_c, 1, 8704
3, 811718, Pitch_bend_c, 1, 8704
3, 811724, Pitch_bend_c, 1, 8704
3, 811737, Pitch_bend_c, 1, 8704
3, 811750, Pitch_bend_c, 1, 8704
3, 811756, Pitch_bend_c, 1, 8704
3, 811769, Pitch_bend_c, 1, 8576
3, 811776, Note_off_c, 1, 77, 80
3, 811776, Pitch_bend_c, 1, 8192
3, 812160, Note_on_c, 1, 79, 63
3, 812160, Note_on_c, 1, 77, 63
3, 812160, Pitch_bend_c, 1, 8192
3, 812185, Pitch_bend_c, 1, 8192
3, 812211, Pitch_bend_c, 1, 8192
3, 812230, Pitch_bend_c, 1, 8192
3, 812256, Pitch_bend_c, 1, 8192
3, 812281, Pitch_bend_c, 1, 8192
3, 812300, Pitch_bend_c, 1, 8192
3, 812326, Pitch_bend_c, 1, 8192
3, 812352, Pitch_bend_c, 1, 8192
3, 812377, Pitch_bend_c, 1, 8192
3, 812403, Pitch_bend_c, 1, 8192
3, 812422, Pitch_bend_c, 1, 8192
3, 812448, Pitch_bend_c, 1, 8192
3, 812473, Pitch_bend_c, 1, 8192
3, 812492, Pitch_bend_c, 1, 8192
3, 812518, Pitch_bend_c, 1, 8192
3, 812544, Note_off_c, 1, 77, 80
3, 812544, Note_off_c, 1, 79, 80
3, 812544, Pitch_bend_c, 1, 8192
3, 812928, Note_on_c, 1, 79, 63
3, 812928, Note_on_c, 1, 77, 63
3, 812928, Pitch_bend_c, 1, 8192
3, 812953, Pitch_bend_c, 1, 8192
3, 812979, Pitch_bend_c, 1, 8192
3, 812998, Pitch_bend_c, 1, 8192
3, 813024, Pitch_bend_c, 1, 8192
3, 813049, Pitch_bend_c, 1, 8192
3, 813068, Pitch_bend_c, 1, 8192
3, 813094, Pitch_bend_c, 1, 8192
3, 813120, Pitch_bend_c, 1, 8192
3, 813145, Pitch_bend_c, 1, 8192
3, 813171, Pitch_bend_c, 1, 8192
3, 813190, Pitch_bend_c, 1, 8192
3, 813216, Pitch_bend_c, 1, 8192
3, 813241, Pitch_bend_c, 1, 8192
3, 813260, Pitch_bend_c, 1, 8192
3, 813286, Pitch_bend_c, 1, 8192
3, 813312, Note_off_c, 1, 79, 80
3, 813312, Pitch_bend_c, 1, 8192
3, 813696, Note_off_c, 1, 77, 80
3, 813696, Note_on_c, 1, 79, 63
3, 814080, Note_off_c, 1, 79, 80
3, 814080, Note_on_c, 1, 77, 63
3, 814387, Note_off_c, 1, 77, 80
3, 814387, Note_on_c, 1, 74, 63
3, 814617, Note_off_c, 1, 79, 80
3, 814694, Note_off_c, 1, 74, 80
3, 814694, Note_on_c, 1, 79, 63
3, 815001, Note_on_c, 1, 77, 63
3, 815232, Note_on_c, 1, 82, 63
3, 815232, Pitch_bend_c, 1, 8192
3, 815257, Pitch_bend_c, 1, 8192
3, 815283, Pitch_bend_c, 1, 8192
3, 815302, Pitch_bend_c, 1, 8192
3, 815308, Note_off_c, 1, 77, 80
3, 815308, Note_on_c, 1, 74, 63
3, 815328, Pitch_bend_c, 1, 8192
3, 815353, Pitch_bend_c, 1, 8192
3, 815372, Pitch_bend_c, 1, 8192
3, 815398, Pitch_bend_c, 1, 8192
3, 815424, Pitch_bend_c, 1, 8192
3, 815449, Pitch_bend_c, 1, 8192
3, 815475, Pitch_bend_c, 1, 8192
3, 815494, Pitch_bend_c, 1, 8192
3, 815520, Pitch_bend_c, 1, 8192
3, 815545, Pitch_bend_c, 1, 8192
3, 815564, Pitch_bend_c, 1, 8192
3, 815590, Pitch_bend_c, 1, 8192
3, 815615, Note_off_c, 1, 74, 80
3, 815616, Pitch_bend_c, 1, 8192
3, 815923, Note_off_c, 1, 82, 80
3, 815923, Note_on_c, 1, 79, 63
3, 816230, Note_off_c, 1, 79, 80
3, 816230, Note_on_c, 1, 77, 63
3, 816460, Note_off_c, 1, 74, 80
3, 816460, Note_on_c, 1, 77, 63
3, 816460, Pitch_bend_c, 1, 8192
3, 816486, Pitch_bend_c, 1, 8192
3, 816512, Pitch_bend_c, 1, 8192
3, 816531, Pitch_bend_c, 1, 8192
3, 816537, Note_off_c, 1, 77, 80
3, 816537, Note_on_c, 1, 74, 63
3, 816556, Pitch_bend_c, 1, 8192
3, 816582, Pitch_bend_c, 1, 8192
3, 816601, Pitch_bend_c, 1, 8192
3, 816627, Pitch_bend_c, 1, 8192
3, 816652, Pitch_bend_c, 1, 8192
3, 816678, Pitch_bend_c, 1, 8192
3, 816704, Pitch_bend_c, 1, 8192
3, 816723, Pitch_bend_c, 1, 8192
3, 816748, Pitch_bend_c, 1, 8192
3, 816774, Pitch_bend_c, 1, 8192
3, 816793, Pitch_bend_c, 1, 8192
3, 816819, Pitch_bend_c, 1, 8192
3, 816844, Pitch_bend_c, 1, 8192
3, 817151, Note_off_c, 1, 77, 80
3, 817152, Note_on_c, 1, 79, 63
3, 817407, Note_off_c, 1, 79, 80
3, 817408, Note_on_c, 1, 77, 63
3, 817663, Note_off_c, 1, 77, 80
3, 817664, Note_on_c, 1, 74, 63
3, 817919, Note_off_c, 1, 74, 80
3, 817920, Note_on_c, 1, 82, 63
3, 818176, Note_off_c, 1, 82, 80
3, 818176, Note_on_c, 1, 79, 63
3, 818432, Note_off_c, 1, 79, 80
3, 818432, Note_on_c, 1, 77, 63
3, 818688, Note_off_c, 1, 77, 80
3, 818688, Note_on_c, 1, 79, 63
3, 818860, Note_off_c, 1, 79, 80
3, 818860, Note_on_c, 1, 81, 63
3, 819026, Note_off_c, 1, 81, 80
3, 819027, Note_on_c, 1, 82, 63
3, 819199, Note_off_c, 1, 82, 80
3, 819200, Note_on_c, 1, 81, 63
3, 819372, Note_off_c, 1, 81, 80
3, 819372, Note_on_c, 1, 79, 63
3, 819539, Note_off_c, 1, 79, 80
3, 819539, Note_on_c, 1, 81, 63
3, 819711, Note_off_c, 1, 81, 80
3, 819712, Note_on_c, 1, 82, 63
3, 819884, Note_off_c, 1, 82, 80
3, 819884, Note_on_c, 1, 81, 63
3, 820050, Note_off_c, 1, 81, 80
3, 820051, Note_on_c, 1, 79, 50
3, 820223, Note_off_c, 1, 79, 80
3, 820224, Note_on_c, 1, 74, 63
3, 820416, Note_off_c, 1, 74, 80
3, 820416, Note_on_c, 1, 76, 63
3, 820608, Note_off_c, 1, 76, 80
3, 820608, Note_on_c, 1, 74, 63
3, 820800, Note_off_c, 1, 74, 80
3, 820800, Note_on_c, 1, 74, 63
3, 820992, Note_off_c, 1, 74, 80
3, 820992, Note_on_c, 1, 76, 63
3, 821184, Note_off_c, 1, 76, 80
3, 821184, Note_on_c, 1, 74, 63
3, 821376, Note_off_c, 1, 74, 80
3, 821376, Note_on_c, 1, 76, 63
3, 821568, Note_off_c, 1, 76, 80
3, 821568, Note_off_c, 1, 74, 80
3, 821568, Note_on_c, 1, 74, 63
3, 821760, Note_off_c, 1, 74, 80
3, 821760, Note_on_c, 1, 76, 63
3, 821952, Note_off_c, 1, 76, 80
3, 821952, Note_on_c, 1, 76, 63
3, 822144, Note_off_c, 1, 76, 80
3, 822144, Note_on_c, 1, 74, 63
3, 822336, Note_on_c, 1, 73, 63
3, 822528, Note_off_c, 1, 73, 80
3, 822528, Note_on_c, 1, 72, 63
3, 822528, Note_on_c, 1, 74, 63
3, 822528, Pitch_bend_c, 1, 8192
3, 822579, Pitch_bend_c, 1, 8192
3, 822624, Pitch_bend_c, 1, 8192
3, 822668, Pitch_bend_c, 1, 8192
3, 822720, Note_off_c, 1, 72, 80
3, 822720, Note_on_c, 1, 70, 63
3, 822720, Pitch_bend_c, 1, 8192
3, 822771, Pitch_bend_c, 1, 8192
3, 822816, Pitch_bend_c, 1, 8192
3, 822860, Pitch_bend_c, 1, 8192
3, 822912, Note_off_c, 1, 70, 80
3, 822912, Note_on_c, 1, 70, 63
3, 822912, Pitch_bend_c, 1, 8192
3, 822963, Pitch_bend_c, 1, 8192
3, 823008, Pitch_bend_c, 1, 8192
3, 823052, Pitch_bend_c, 1, 8192
3, 823104, Note_off_c, 1, 70, 80
3, 823104, Note_on_c, 1, 72, 63
3, 823104, Pitch_bend_c, 1, 8192
3, 823155, Pitch_bend_c, 1, 8192
3, 823200, Pitch_bend_c, 1, 8192
3, 823244, Pitch_bend_c, 1, 8192
3, 823296, Note_off_c, 1, 72, 80
3, 823296, Pitch_bend_c, 1, 8832
3, 826368, Pitch_bend_c, 1, 8832
3, 828672, Note_off_c, 1, 74, 80
3, 828672, Pitch_bend_c, 1, 8192
3, 828672, Note_on_c, 1, 74, 63
3, 829440, Note_off_c, 1, 74, 80
3, 829440, Pitch_bend_c, 1, 8192
3, 829440, Note_on_c, 1, 74, 63
3, 832512, Pitch_bend_c, 1, 8832
3, 833740, Pitch_bend_c, 1, 8704
3, 833843, Pitch_bend_c, 1, 8576
3, 834048, Pitch_bend_c, 1, 8448
3, 834150, Pitch_bend_c, 1, 8320
3, 834355, Pitch_bend_c, 1, 8192
3, 835584, Note_off_c, 1, 74, 80
3, 835584, Pitch_bend_c, 1, 8192
3, 835584, Note_on_c, 1, 74, 63
3, 835603, Pitch_bend_c, 1, 8192
3, 835622, Pitch_bend_c, 1, 8192
3, 835635, Pitch_bend_c, 1, 8192
3, 835654, Pitch_bend_c, 1, 8192
3, 835673, Pitch_bend_c, 1, 8192
3, 835692, Pitch_bend_c, 1, 8192
3, 835712, Pitch_bend_c, 1, 8192
3, 835724, Pitch_bend_c, 1, 8192
3, 835744, Pitch_bend_c, 1, 8192
3, 835763, Pitch_bend_c, 1, 8192
3, 835782, Pitch_bend_c, 1, 8192
3, 835801, Pitch_bend_c, 1, 8192
3, 835820, Pitch_bend_c, 1, 8192
3, 835833, Pitch_bend_c, 1, 8192
3, 835852, Pitch_bend_c, 1, 8192
3, 835872, Pitch_bend_c, 1, 8192
3, 835891, Pitch_bend_c, 1, 8192
3, 835910, Pitch_bend_c, 1, 8192
3, 835923, Pitch_bend_c, 1, 8192
3, 835942, Pitch_bend_c, 1, 8192
3, 835961, Pitch_bend_c, 1, 8192
3, 835980, Pitch_bend_c, 1, 8192
3, 836000, Pitch_bend_c, 1, 8192
3, 836019, Pitch_bend_c, 1, 8192
3, 836032, Pitch_bend_c, 1, 8192
3, 836051, Pitch_bend_c, 1, 8192
3, 836070, Pitch_bend_c, 1, 8192
3, 836089, Pitch_bend_c, 1, 8192
3, 836108, Pitch_bend_c, 1, 8192
3, 836121, Pitch_bend_c, 1, 8192
3, 836140, Pitch_bend_c, 1, 8192
3, 836160, Pitch_bend_c, 1, 8192
3, 836179, Pitch_bend_c, 1, 8192
3, 836198, Pitch_bend_c, 1, 8192
3, 836211, Pitch_bend_c, 1, 8192
3, 836230, Pitch_bend_c, 1, 8320
3, 836249, Pitch_bend_c, 1, 8320
3, 836268, Pitch_bend_c, 1, 8320
3, 836288, Pitch_bend_c, 1, 8320
3, 836300, Pitch_bend_c, 1, 8320
3, 836320, Pitch_bend_c, 1, 8320
3, 836339, Pitch_bend_c, 1, 8320
3, 836358, Pitch_bend_c, 1, 8320
3, 836377, Pitch_bend_c, 1, 8320
3, 836396, Pitch_bend_c, 1, 8192
3, 836409, Pitch_bend_c, 1, 8192
3, 836428, Pitch_bend_c, 1, 8192
3, 836448, Pitch_bend_c, 1, 8192
3, 836467, Pitch_bend_c, 1, 8192
3, 836486, Pitch_bend_c, 1, 8192
3, 836499, Pitch_bend_c, 1, 8192
3, 836518, Pitch_bend_c, 1, 8064
3, 836537, Pitch_bend_c, 1, 8064
3, 836556, Pitch_bend_c, 1, 8064
3, 836576, Pitch_bend_c, 1, 8064
3, 836595, Pitch_bend_c, 1, 8064
3, 836608, Pitch_bend_c, 1, 8064
3, 836627, Pitch_bend_c, 1, 8064
3, 836646, Pitch_bend_c, 1, 8064
3, 836665, Pitch_bend_c, 1, 8064
3, 836684, Pitch_bend_c, 1, 8192
3, 836697, Pitch_bend_c, 1, 8192
3, 836716, Pitch_bend_c, 1, 8192
3, 836736, Pitch_bend_c, 1, 8192
3, 836755, Pitch_bend_c, 1, 8192
3, 836774, Pitch_bend_c, 1, 8320
3, 836787, Pitch_bend_c, 1, 8320
3, 836806, Pitch_bend_c, 1, 8320
3, 836825, Pitch_bend_c, 1, 8448
3, 836844, Pitch_bend_c, 1, 8448
3, 836864, Pitch_bend_c, 1, 8448
3, 836876, Pitch_bend_c, 1, 8448
3, 836896, Pitch_bend_c, 1, 8448
3, 836915, Pitch_bend_c, 1, 8448
3, 836934, Pitch_bend_c, 1, 8448
3, 836953, Pitch_bend_c, 1, 8320
3, 836972, Pitch_bend_c, 1, 8320
3, 836985, Pitch_bend_c, 1, 8320
3, 837004, Pitch_bend_c, 1, 8192
3, 837024, Pitch_bend_c, 1, 8192
3, 837043, Pitch_bend_c, 1, 8192
3, 837062, Pitch_bend_c, 1, 8064
3, 837075, Pitch_bend_c, 1, 8064
3, 837094, Pitch_bend_c, 1, 8064
3, 837113, Pitch_bend_c, 1, 7936
3, 837132, Pitch_bend_c, 1, 7936
3, 837152, Pitch_bend_c, 1, 7936
3, 837171, Pitch_bend_c, 1, 7936
3, 837184, Pitch_bend_c, 1, 7936
3, 837203, Pitch_bend_c, 1, 7936
3, 837222, Pitch_bend_c, 1, 7936
3, 837241, Pitch_bend_c, 1, 8064
3, 837260, Pitch_bend_c, 1, 8064
3, 837273, Pitch_bend_c, 1, 8064
3, 837292, Pitch_bend_c, 1, 8192
3, 837312, Pitch_bend_c, 1, 8192
3, 837331, Pitch_bend_c, 1, 8192
3, 837350, Pitch_bend_c, 1, 8320
3, 837363, Pitch_bend_c, 1, 8320
3, 837382, Pitch_bend_c, 1, 8320
3, 837401, Pitch_bend_c, 1, 8320
3, 837420, Pitch_bend_c, 1, 8320
3, 837440, Pitch_bend_c, 1, 8320
3, 837452, Pitch_bend_c, 1, 8320
3, 837472, Pitch_bend_c, 1, 8320
3, 837491, Pitch_bend_c, 1, 8320
3, 837510, Pitch_bend_c, 1, 8320
3, 837529, Pitch_bend_c, 1, 8320
3, 837548, Pitch_bend_c, 1, 8320
3, 837561, Pitch_bend_c, 1, 8320
3, 837580, Pitch_bend_c, 1, 8192
3, 837600, Pitch_bend_c, 1, 8192
3, 837619, Pitch_bend_c, 1, 8192
3, 837638, Pitch_bend_c, 1, 8064
3, 837651, Pitch_bend_c, 1, 8064
3, 837670, Pitch_bend_c, 1, 8064
3, 837689, Pitch_bend_c, 1, 8064
3, 837708, Pitch_bend_c, 1, 8064
3, 837728, Pitch_bend_c, 1, 8064
3, 837747, Pitch_bend_c, 1, 8064
3, 837760, Pitch_bend_c, 1, 8064
3, 837779, Pitch_bend_c, 1, 8064
3, 837798, Pitch_bend_c, 1, 8064
3, 837817, Pitch_bend_c, 1, 8064
3, 837836, Pitch_bend_c, 1, 8064
3, 837849, Pitch_bend_c, 1, 8064
3, 837868, Pitch_bend_c, 1, 8192
3, 837888, Pitch_bend_c, 1, 8192
3, 837907, Pitch_bend_c, 1, 8192
3, 837926, Pitch_bend_c, 1, 8320
3, 837939, Pitch_bend_c, 1, 8320
3, 837958, Pitch_bend_c, 1, 8320
3, 837977, Pitch_bend_c, 1, 8320
3, 837996, Pitch_bend_c, 1, 8320
3, 838016, Pitch_bend_c, 1, 8320
3, 838028, Pitch_bend_c, 1, 8320
3, 838048, Pitch_bend_c, 1, 8320
3, 838067, Pitch_bend_c, 1, 8320
3, 838086, Pitch_bend_c, 1, 8320
3, 838105, Pitch_bend_c, 1, 8320
3, 838124, Pitch_bend_c, 1, 8320
3, 838137, Pitch_bend_c, 1, 8320
3, 838156, Pitch_bend_c, 1, 8192
3, 838176, Pitch_bend_c, 1, 8192
3, 838195, Pitch_bend_c, 1, 8192
3, 838214, Pitch_bend_c, 1, 8064
3, 838227, Pitch_bend_c, 1, 8064
3, 838246, Pitch_bend_c, 1, 8064
3, 838265, Pitch_bend_c, 1, 8064
3, 838284, Pitch_bend_c, 1, 8064
3, 838304, Pitch_bend_c, 1, 8064
3, 838323, Pitch_bend_c, 1, 8064
3, 838336, Pitch_bend_c, 1, 8064
3, 838355, Pitch_bend_c, 1, 8064
3, 838374, Pitch_bend_c, 1, 8064
3, 838393, Pitch_bend_c, 1, 8064
3, 838412, Pitch_bend_c, 1, 8064
3, 838425, Pitch_bend_c, 1, 8064
3, 838444, Pitch_bend_c, 1, 8192
3, 838464, Pitch_bend_c, 1, 8192
3, 838483, Pitch_bend_c, 1, 8192
3, 838502, Pitch_bend_c, 1, 8320
3, 838515, Pitch_bend_c, 1, 8320
3, 838534, Pitch_bend_c, 1, 8320
3, 838553, Pitch_bend_c, 1, 8448
3, 838572, Pitch_bend_c, 1, 8448
3, 838592, Pitch_bend_c, 1, 8448
3, 838604, Pitch_bend_c, 1, 8448
3, 838624, Pitch_bend_c, 1, 8448
3, 838643, Pitch_bend_c, 1, 8448
3, 838662, Pitch_bend_c, 1, 8448
3, 838681, Pitch_bend_c, 1, 8320
3, 838700, Pitch_bend_c, 1, 8320
3, 838713, Pitch_bend_c, 1, 8320
3, 838732, Pitch_bend_c, 1, 8192
3, 838752, Pitch_bend_c, 1, 8192
3, 838771, Pitch_bend_c, 1, 8192
3, 838790, Pitch_bend_c, 1, 8064
3, 838803, Pitch_bend_c, 1, 8064
3, 838822, Pitch_bend_c, 1, 8064
3, 838841, Pitch_bend_c, 1, 7936
3, 838860, Pitch_bend_c, 1, 7936
3, 838880, Pitch_bend_c, 1, 7936
3, 838899, Pitch_bend_c, 1, 7936
3, 838912, Pitch_bend_c, 1, 7936
3, 838931, Pitch_bend_c, 1, 7936
3, 838950, Pitch_bend_c, 1, 7936
3, 838969, Pitch_bend_c, 1, 8064
3, 838988, Pitch_bend_c, 1, 8064
3, 839001, Pitch_bend_c, 1, 8064
3, 839020, Pitch_bend_c, 1, 8192
3, 839040, Pitch_bend_c, 1, 8192
3, 839059, Pitch_bend_c, 1, 8192
3, 839078, Pitch_bend_c, 1, 8320
3, 839091, Pitch_bend_c, 1, 8320
3, 839110, Pitch_bend_c, 1, 8320
3, 839129, Pitch_bend_c, 1, 8320
3, 839148, Pitch_bend_c, 1, 8320
3, 839168, Pitch_bend_c, 1, 8448
3, 839180, Pitch_bend_c, 1, 8448
3, 839200, Pitch_bend_c, 1, 8448
3, 839219, Pitch_bend_c, 1, 8320
3, 839238, Pitch_bend_c, 1, 8320
3, 839257, Pitch_bend_c, 1, 8320
3, 839276, Pitch_bend_c, 1, 8320
3, 839289, Pitch_bend_c, 1, 8320
3, 839308, Pitch_bend_c, 1, 8192
3, 839328, Pitch_bend_c, 1, 8192
3, 839347, Pitch_bend_c, 1, 8192
3, 839366, Pitch_bend_c, 1, 8064
3, 839379, Pitch_bend_c, 1, 8064
3, 839398, Pitch_bend_c, 1, 8064
3, 839417, Pitch_bend_c, 1, 8064
3, 839436, Pitch_bend_c, 1, 8064
3, 839456, Pitch_bend_c, 1, 7936
3, 839475, Pitch_bend_c, 1, 7936
3, 839488, Pitch_bend_c, 1, 7936
3, 839507, Pitch_bend_c, 1, 8064
3, 839526, Pitch_bend_c, 1, 8064
3, 839545, Pitch_bend_c, 1, 8064
3, 839564, Pitch_bend_c, 1, 8064
3, 839577, Pitch_bend_c, 1, 8064
3, 839596, Pitch_bend_c, 1, 8192
3, 839616, Pitch_bend_c, 1, 8192
3, 839635, Pitch_bend_c, 1, 8192
3, 839654, Pitch_bend_c, 1, 8320
3, 839667, Pitch_bend_c, 1, 8320
3, 839686, Pitch_bend_c, 1, 8448
3, 839705, Pitch_bend_c, 1, 8448
3, 839724, Pitch_bend_c, 1, 8448
3, 839744, Pitch_bend_c, 1, 8448
3, 839756, Pitch_bend_c, 1, 8448
3, 839776, Pitch_bend_c, 1, 8448
3, 839795, Pitch_bend_c, 1, 8448
3, 839814, Pitch_bend_c, 1, 8448
3, 839833, Pitch_bend_c, 1, 8448
3, 839852, Pitch_bend_c, 1, 8320
3, 839865, Pitch_bend_c, 1, 8320
3, 839884, Pitch_bend_c, 1, 8192
3, 839904, Pitch_bend_c, 1, 8192
3, 839923, Pitch_bend_c, 1, 8192
3, 839942, Pitch_bend_c, 1, 8064
3, 839955, Pitch_bend_c, 1, 8064
3, 839974, Pitch_bend_c, 1, 7936
3, 839993, Pitch_bend_c, 1, 7936
3, 840012, Pitch_bend_c, 1, 7936
3, 840032, Pitch_bend_c, 1, 7936
3, 840051, Pitch_bend_c, 1, 7936
3, 840064, Pitch_bend_c, 1, 7936
3, 840083, Pitch_bend_c, 1, 7936
3, 840102, Pitch_bend_c, 1, 7936
3, 840121, Pitch_bend_c, 1, 7936
3, 840140, Pitch_bend_c, 1, 8064
3, 840153, Pitch_bend_c, 1, 8064
3, 840172, Pitch_bend_c, 1, 8192
3, 840192, Pitch_bend_c, 1, 8192
3, 840211, Pitch_bend_c, 1, 8192
3, 840230, Pitch_bend_c, 1, 8320
3, 840243, Pitch_bend_c, 1, 8320
3, 840262, Pitch_bend_c, 1, 8320
3, 840281, Pitch_bend_c, 1, 8448
3, 840300, Pitch_bend_c, 1, 8448
3, 840320, Pitch_bend_c, 1, 8448
3, 840332, Pitch_bend_c, 1, 8448
3, 840352, Pitch_bend_c, 1, 8448
3, 840371, Pitch_bend_c, 1, 8448
3, 840390, Pitch_bend_c, 1, 8448
3, 840409, Pitch_bend_c, 1, 8320
3, 840428, Pitch_bend_c, 1, 8320
3, 840441, Pitch_bend_c, 1, 8320
3, 840460, Pitch_bend_c, 1, 8192
3, 840480, Pitch_bend_c, 1, 8192
3, 840499, Pitch_bend_c, 1, 8192
3, 840518, Pitch_bend_c, 1, 8064
3, 840531, Pitch_bend_c, 1, 8064
3, 840550, Pitch_bend_c, 1, 8064
3, 840569, Pitch_bend_c, 1, 7936
3, 840588, Pitch_bend_c, 1, 7936
3, 840608, Pitch_bend_c, 1, 7936
3, 840627, Pitch_bend_c, 1, 7936
3, 840640, Pitch_bend_c, 1, 7936
3, 840659, Pitch_bend_c, 1, 7936
3, 840678, Pitch_bend_c, 1, 7936
3, 840697, Pitch_bend_c, 1, 8064
3, 840716, Pitch_bend_c, 1, 8064
3, 840729, Pitch_bend_c, 1, 8064
3, 840748, Pitch_bend_c, 1, 8192
3, 840768, Pitch_bend_c, 1, 8192
3, 840787, Pitch_bend_c, 1, 8192
3, 840806, Pitch_bend_c, 1, 8320
3, 840819, Pitch_bend_c, 1, 8320
3, 840838, Pitch_bend_c, 1, 8320
3, 840857, Pitch_bend_c, 1, 8320
3, 840876, Pitch_bend_c, 1, 8448
3, 840896, Pitch_bend_c, 1, 8448
3, 840908, Pitch_bend_c, 1, 8448
3, 840928, Pitch_bend_c, 1, 8448
3, 840947, Pitch_bend_c, 1, 8448
3, 840960, Note_off_c, 1, 74, 80
3, 840960, Note_on_c, 1, 70, 63
3, 840960, Pitch_bend_c, 1, 10240
3, 840966, Pitch_bend_c, 1, 8320
3, 840985, Pitch_bend_c, 1, 8320
3, 841004, Pitch_bend_c, 1, 8320
3, 841017, Pitch_bend_c, 1, 8320
3, 841036, Pitch_bend_c, 1, 8192
3, 841056, Pitch_bend_c, 1, 8192
3, 841075, Pitch_bend_c, 1, 8192
3, 841094, Pitch_bend_c, 1, 8064
3, 841107, Pitch_bend_c, 1, 8064
3, 841126, Pitch_bend_c, 1, 8064
3, 841145, Pitch_bend_c, 1, 8064
3, 841164, Pitch_bend_c, 1, 7936
3, 841184, Pitch_bend_c, 1, 7936
3, 841203, Pitch_bend_c, 1, 7936
3, 841216, Pitch_bend_c, 1, 7936
3, 841235, Pitch_bend_c, 1, 7936
3, 841254, Pitch_bend_c, 1, 8064
3, 841273, Pitch_bend_c, 1, 8064
3, 841292, Pitch_bend_c, 1, 8064
3, 841305, Pitch_bend_c, 1, 8064
3, 841324, Pitch_bend_c, 1, 8192
3, 841344, Pitch_bend_c, 1, 8192
3, 841363, Pitch_bend_c, 1, 8192
3, 841382, Pitch_bend_c, 1, 8192
3, 841395, Pitch_bend_c, 1, 8320
3, 841414, Pitch_bend_c, 1, 8320
3, 841433, Pitch_bend_c, 1, 8320
3, 841452, Pitch_bend_c, 1, 8320
3, 841472, Pitch_bend_c, 1, 8320
3, 841484, Pitch_bend_c, 1, 8320
3, 841504, Pitch_bend_c, 1, 8320
3, 841523, Pitch_bend_c, 1, 8320
3, 841542, Pitch_bend_c, 1, 8320
3, 841561, Pitch_bend_c, 1, 8320
3, 841580, Pitch_bend_c, 1, 8320
3, 841593, Pitch_bend_c, 1, 8192
3, 841612, Pitch_bend_c, 1, 8192
3, 841632, Pitch_bend_c, 1, 8192
3, 841651, Pitch_bend_c, 1, 8192
3, 841670, Pitch_bend_c, 1, 8192
3, 841683, Pitch_bend_c, 1, 8064
3, 841702, Pitch_bend_c, 1, 8064
3, 841721, Pitch_bend_c, 1, 8064
3, 841728, Pitch_bend_c, 1, 8192
3, 843264, Note_off_c, 1, 70, 80
3, 843264, Note_on_c, 1, 69, 63
3, 843264, Pitch_bend_c, 1, 8192
3, 843283, Pitch_bend_c, 1, 8192
3, 843302, Pitch_bend_c, 1, 8192
3, 843315, Pitch_bend_c, 1, 8192
3, 843334, Pitch_bend_c, 1, 8192
3, 843353, Pitch_bend_c, 1, 8192
3, 843372, Pitch_bend_c, 1, 8192
3, 843392, Pitch_bend_c, 1, 8192
3, 843404, Pitch_bend_c, 1, 8192
3, 843424, Pitch_bend_c, 1, 8192
3, 843443, Pitch_bend_c, 1, 8192
3, 843462, Pitch_bend_c, 1, 8192
3, 843481, Pitch_bend_c, 1, 8192
3, 843500, Pitch_bend_c, 1, 8192
3, 843513, Pitch_bend_c, 1, 8192
3, 843532, Pitch_bend_c, 1, 8192
3, 843552, Pitch_bend_c, 1, 8192
3, 843571, Pitch_bend_c, 1, 8192
3, 843590, Pitch_bend_c, 1, 8192
3, 843603, Pitch_bend_c, 1, 8192
3, 843622, Pitch_bend_c, 1, 8192
3, 843641, Pitch_bend_c, 1, 8192
3, 843660, Pitch_bend_c, 1, 8192
3, 843680, Pitch_bend_c, 1, 8192
3, 843699, Pitch_bend_c, 1, 8192
3, 843712, Pitch_bend_c, 1, 8192
3, 843731, Pitch_bend_c, 1, 8192
3, 843750, Pitch_bend_c, 1, 8192
3, 843769, Pitch_bend_c, 1, 8192
3, 843788, Pitch_bend_c, 1, 8192
3, 843801, Pitch_bend_c, 1, 8192
3, 843820, Pitch_bend_c, 1, 8192
3, 843840, Pitch_bend_c, 1, 8192
3, 843859, Pitch_bend_c, 1, 8192
3, 843878, Pitch_bend_c, 1, 8320
3, 843891, Pitch_bend_c, 1, 8320
3, 843910, Pitch_bend_c, 1, 8320
3, 843929, Pitch_bend_c, 1, 8320
3, 843948, Pitch_bend_c, 1, 8320
3, 843968, Pitch_bend_c, 1, 8320
3, 843980, Pitch_bend_c, 1, 8320
3, 844000, Pitch_bend_c, 1, 8320
3, 844019, Pitch_bend_c, 1, 8320
3, 844038, Pitch_bend_c, 1, 8320
3, 844057, Pitch_bend_c, 1, 8320
3, 844076, Pitch_bend_c, 1, 8320
3, 844089, Pitch_bend_c, 1, 8320
3, 844108, Pitch_bend_c, 1, 8192
3, 844128, Pitch_bend_c, 1, 8192
3, 844147, Pitch_bend_c, 1, 8192
3, 844166, Pitch_bend_c, 1, 8064
3, 844179, Pitch_bend_c, 1, 8064
3, 844198, Pitch_bend_c, 1, 8064
3, 844217, Pitch_bend_c, 1, 8064
3, 844236, Pitch_bend_c, 1, 8064
3, 844256, Pitch_bend_c, 1, 8064
3, 844275, Pitch_bend_c, 1, 8064
3, 844288, Pitch_bend_c, 1, 8064
3, 844307, Pitch_bend_c, 1, 8064
3, 844326, Pitch_bend_c, 1, 8064
3, 844345, Pitch_bend_c, 1, 8064
3, 844364, Pitch_bend_c, 1, 8064
3, 844377, Pitch_bend_c, 1, 8064
3, 844396, Pitch_bend_c, 1, 8192
3, 844416, Pitch_bend_c, 1, 8192
3, 844435, Pitch_bend_c, 1, 8320
3, 844454, Pitch_bend_c, 1, 8320
3, 844467, Pitch_bend_c, 1, 8320
3, 844486, Pitch_bend_c, 1, 8448
3, 844505, Pitch_bend_c, 1, 8448
3, 844524, Pitch_bend_c, 1, 8448
3, 844544, Pitch_bend_c, 1, 8448
3, 844556, Pitch_bend_c, 1, 8448
3, 844576, Pitch_bend_c, 1, 8448
3, 844595, Pitch_bend_c, 1, 8448
3, 844614, Pitch_bend_c, 1, 8448
3, 844633, Pitch_bend_c, 1, 8448
3, 844652, Pitch_bend_c, 1, 8320
3, 844665, Pitch_bend_c, 1, 8320
3, 844684, Pitch_bend_c, 1, 8320
3, 844704, Pitch_bend_c, 1, 8192
3, 844723, Pitch_bend_c, 1, 8064
3, 844742, Pitch_bend_c, 1, 8064
3, 844755, Pitch_bend_c, 1, 8064
3, 844774, Pitch_bend_c, 1, 7936
3, 844793, Pitch_bend_c, 1, 7936
3, 844800, Note_off_c, 1, 69, 80
3, 844800, Pitch_bend_c, 1, 8192
3, 844800, Note_on_c, 1, 67, 63
3, 846336, Note_off_c, 1, 67, 80
3, 846336, Note_on_c, 1, 66, 63
3, 846336, Pitch_bend_c, 1, 8192
3, 846355, Pitch_bend_c, 1, 8192
3, 846374, Pitch_bend_c, 1, 8192
3, 846387, Pitch_bend_c, 1, 8192
3, 846406, Pitch_bend_c, 1, 8192
3, 846425, Pitch_bend_c, 1, 8192
3, 846444, Pitch_bend_c, 1, 8192
3, 846464, Pitch_bend_c, 1, 8192
3, 846476, Pitch_bend_c, 1, 8192
3, 846496, Pitch_bend_c, 1, 8192
3, 846515, Pitch_bend_c, 1, 8192
3, 846534, Pitch_bend_c, 1, 8192
3, 846553, Pitch_bend_c, 1, 8192
3, 846572, Pitch_bend_c, 1, 8192
3, 846585, Pitch_bend_c, 1, 8192
3, 846604, Pitch_bend_c, 1, 8192
3, 846624, Pitch_bend_c, 1, 8192
3, 846643, Pitch_bend_c, 1, 8192
3, 846662, Pitch_bend_c, 1, 8192
3, 846675, Pitch_bend_c, 1, 8192
3, 846694, Pitch_bend_c, 1, 8192
3, 846713, Pitch_bend_c, 1, 8192
3, 846732, Pitch_bend_c, 1, 8192
3, 846752, Pitch_bend_c, 1, 8192
3, 846771, Pitch_bend_c, 1, 8192
3, 846784, Pitch_bend_c, 1, 8192
3, 846803, Pitch_bend_c, 1, 8192
3, 846822, Pitch_bend_c, 1, 8192
3, 846841, Pitch_bend_c, 1, 8192
3, 846860, Pitch_bend_c, 1, 8192
3, 846873, Pitch_bend_c, 1, 8192
3, 846892, Pitch_bend_c, 1, 8192
3, 846912, Pitch_bend_c, 1, 8192
3, 846931, Pitch_bend_c, 1, 8192
3, 846950, Pitch_bend_c, 1, 8320
3, 846963, Pitch_bend_c, 1, 8320
3, 846982, Pitch_bend_c, 1, 8320
3, 847001, Pitch_bend_c, 1, 8448
3, 847020, Pitch_bend_c, 1, 8448
3, 847040, Pitch_bend_c, 1, 8448
3, 847052, Pitch_bend_c, 1, 8448
3, 847072, Pitch_bend_c, 1, 8448
3, 847091, Pitch_bend_c, 1, 8448
3, 847110, Pitch_bend_c, 1, 8448
3, 847129, Pitch_bend_c, 1, 8320
3, 847148, Pitch_bend_c, 1, 8320
3, 847161, Pitch_bend_c, 1, 8320
3, 847180, Pitch_bend_c, 1, 8192
3, 847200, Pitch_bend_c, 1, 8192
3, 847219, Pitch_bend_c, 1, 8192
3, 847238, Pitch_bend_c, 1, 8064
3, 847251, Pitch_bend_c, 1, 8064
3, 847270, Pitch_bend_c, 1, 8064
3, 847289, Pitch_bend_c, 1, 7936
3, 847308, Pitch_bend_c, 1, 7936
3, 847328, Pitch_bend_c, 1, 7936
3, 847347, Pitch_bend_c, 1, 7936
3, 847360, Pitch_bend_c, 1, 7936
3, 847379, Pitch_bend_c, 1, 7936
3, 847398, Pitch_bend_c, 1, 7936
3, 847417, Pitch_bend_c, 1, 8064
3, 847436, Pitch_bend_c, 1, 8064
3, 847449, Pitch_bend_c, 1, 8064
3, 847468, Pitch_bend_c, 1, 8192
3, 847488, Pitch_bend_c, 1, 8192
3, 847507, Pitch_bend_c, 1, 8192
3, 847526, Pitch_bend_c, 1, 8320
3, 847539, Pitch_bend_c, 1, 8320
3, 847558, Pitch_bend_c, 1, 8320
3, 847577, Pitch_bend_c, 1, 8448
3, 847596, Pitch_bend_c, 1, 8448
3, 847616, Pitch_bend_c, 1, 8448
3, 847628, Pitch_bend_c, 1, 8448
3, 847648, Pitch_bend_c, 1, 8448
3, 847667, Pitch_bend_c, 1, 8448
3, 847686, Pitch_bend_c, 1, 8448
3, 847705, Pitch_bend_c, 1, 8320
3, 847724, Pitch_bend_c, 1, 8320
3, 847737, Pitch_bend_c, 1, 8320
3, 847756, Pitch_bend_c, 1, 8192
3, 847776, Pitch_bend_c, 1, 8192
3, 847795, Pitch_bend_c, 1, 8192
3, 847814, Pitch_bend_c, 1, 8064
3, 847827, Pitch_bend_c, 1, 8064
3, 847846, Pitch_bend_c, 1, 8064
3, 847865, Pitch_bend_c, 1, 7936
3, 847872, Note_off_c, 1, 66, 80
3, 847872, Pitch_bend_c, 1, 8192
3, 847872, Note_on_c, 1, 67, 63
3, 847891, Pitch_bend_c, 1, 8192
3, 847910, Pitch_bend_c, 1, 8192
3, 847923, Pitch_bend_c, 1, 8192
3, 847942, Pitch_bend_c, 1, 8192
3, 847961, Pitch_bend_c, 1, 8192
3, 847980, Pitch_bend_c, 1, 8192
3, 848000, Pitch_bend_c, 1, 8192
3, 848012, Pitch_bend_c, 1, 8192
3, 848032, Pitch_bend_c, 1, 8192
3, 848051, Pitch_bend_c, 1, 8192
3, 848070, Pitch_bend_c, 1, 8192
3, 848089, Pitch_bend_c, 1, 8192
3, 848108, Pitch_bend_c, 1, 8192
3, 848121, Pitch_bend_c, 1, 8192
3, 848140, Pitch_bend_c, 1, 8192
3, 848160, Pitch_bend_c, 1, 8192
3, 848179, Pitch_bend_c, 1, 8192
3, 848198, Pitch_bend_c, 1, 8192
3, 848211, Pitch_bend_c, 1, 8192
3, 848230, Pitch_bend_c, 1, 8192
3, 848249, Pitch_bend_c, 1, 8192
3, 848268, Pitch_bend_c, 1, 8192
3, 848288, Pitch_bend_c, 1, 8192
3, 848307, Pitch_bend_c, 1, 8192
3, 848320, Pitch_bend_c, 1, 8192
3, 848339, Pitch_bend_c, 1, 8192
3, 848358, Pitch_bend_c, 1, 8192
3, 848377, Pitch_bend_c, 1, 8192
3, 848396, Pitch_bend_c, 1, 8192
3, 848409, Pitch_bend_c, 1, 8192
3, 848428, Pitch_bend_c, 1, 8192
3, 848448, Pitch_bend_c, 1, 8192
3, 848467, Pitch_bend_c, 1, 8192
3, 848486, Pitch_bend_c, 1, 8320
3, 848499, Pitch_bend_c, 1, 8320
3, 848518, Pitch_bend_c, 1, 8320
3, 848537, Pitch_bend_c, 1, 8448
3, 848556, Pitch_bend_c, 1, 8448
3, 848576, Pitch_bend_c, 1, 8448
3, 848588, Pitch_bend_c, 1, 8448
3, 848608, Pitch_bend_c, 1, 8448
3, 848627, Pitch_bend_c, 1, 8448
3, 848646, Pitch_bend_c, 1, 8448
3, 848665, Pitch_bend_c, 1, 8320
3, 848684, Pitch_bend_c, 1, 8320
3, 848697, Pitch_bend_c, 1, 8320
3, 848716, Pitch_bend_c, 1, 8192
3, 848736, Pitch_bend_c, 1, 8192
3, 848755, Pitch_bend_c, 1, 8192
3, 848774, Pitch_bend_c, 1, 8064
3, 848787, Pitch_bend_c, 1, 8064
3, 848806, Pitch_bend_c, 1, 8064
3, 848825, Pitch_bend_c, 1, 7936
3, 848844, Pitch_bend_c, 1, 7936
3, 848864, Pitch_bend_c, 1, 7936
3, 848883, Pitch_bend_c, 1, 7936
3, 848896, Pitch_bend_c, 1, 7936
3, 848915, Pitch_bend_c, 1, 7936
3, 848934, Pitch_bend_c, 1, 7936
3, 848953, Pitch_bend_c, 1, 8064
3, 848972, Pitch_bend_c, 1, 8064
3, 848985, Pitch_bend_c, 1, 8064
3, 849004, Pitch_bend_c, 1, 8192
3, 849024, Pitch_bend_c, 1, 8192
3, 849043, Pitch_bend_c, 1, 8192
3, 849062, Pitch_bend_c, 1, 8320
3, 849075, Pitch_bend_c, 1, 8320
3, 849094, Pitch_bend_c, 1, 8320
3, 849113, Pitch_bend_c, 1, 8320
3, 849132, Pitch_bend_c, 1, 8448
3, 849152, Pitch_bend_c, 1, 8448
3, 849164, Pitch_bend_c, 1, 8448
3, 849184, Pitch_bend_c, 1, 8448
3, 849203, Pitch_bend_c, 1, 8448
3, 849222, Pitch_bend_c, 1, 8320
3, 849241, Pitch_bend_c, 1, 8320
3, 849260, Pitch_bend_c, 1, 8320
3, 849273, Pitch_bend_c, 1, 8320
3, 849292, Pitch_bend_c, 1, 8192
3, 849312, Pitch_bend_c, 1, 8192
3, 849331, Pitch_bend_c, 1, 8192
3, 849350, Pitch_bend_c, 1, 8064
3, 849363, Pitch_bend_c, 1, 8064
3, 849382, Pitch_bend_c, 1, 8064
3, 849401, Pitch_bend_c, 1, 8064
3, 849420, Pitch_bend_c, 1, 7936
3, 849440, Pitch_bend_c, 1, 7936
3, 849459, Pitch_bend_c, 1, 7936
3, 849472, Pitch_bend_c, 1, 7936
3, 849491, Pitch_bend_c, 1, 7936
3, 849510, Pitch_bend_c, 1, 8064
3, 849529, Pitch_bend_c, 1, 8064
3, 849548, Pitch_bend_c, 1, 8064
3, 849561, Pitch_bend_c, 1, 8064
3, 849580, Pitch_bend_c, 1, 8192
3, 849600, Pitch_bend_c, 1, 8192
3, 849619, Pitch_bend_c, 1, 8192
3, 849638, Pitch_bend_c, 1, 8320
3, 849651, Pitch_bend_c, 1, 8320
3, 849670, Pitch_bend_c, 1, 8320
3, 849689, Pitch_bend_c, 1, 8320
3, 849708, Pitch_bend_c, 1, 8320
3, 849728, Pitch_bend_c, 1, 8448
3, 849740, Pitch_bend_c, 1, 8448
3, 849760, Pitch_bend_c, 1, 8448
3, 849779, Pitch_bend_c, 1, 8320
3, 849798, Pitch_bend_c, 1, 8320
3, 849817, Pitch_bend_c, 1, 8320
3, 849836, Pitch_bend_c, 1, 8320
3, 849849, Pitch_bend_c, 1, 8320
3, 849868, Pitch_bend_c, 1, 8192
3, 849888, Pitch_bend_c, 1, 8192
3, 849907, Pitch_bend_c, 1, 8192
3, 849926, Pitch_bend_c, 1, 8064
3, 849939, Pitch_bend_c, 1, 8064
3, 849958, Pitch_bend_c, 1, 8064
3, 849977, Pitch_bend_c, 1, 8064
3, 849996, Pitch_bend_c, 1, 8064
3, 850016, Pitch_bend_c, 1, 7936
3, 850035, Pitch_bend_c, 1, 7936
3, 850048, Pitch_bend_c, 1, 7936
3, 850067, Pitch_bend_c, 1, 8064
3, 850086, Pitch_bend_c, 1, 8064
3, 850105, Pitch_bend_c, 1, 8064
3, 850124, Pitch_bend_c, 1, 8064
3, 850137, Pitch_bend_c, 1, 8064
3, 850156, Pitch_bend_c, 1, 8192
3, 850176, Pitch_bend_c, 1, 8192
3, 850195, Pitch_bend_c, 1, 8192
3, 850214, Pitch_bend_c, 1, 8320
3, 850227, Pitch_bend_c, 1, 8320
3, 850246, Pitch_bend_c, 1, 8320
3, 850265, Pitch_bend_c, 1, 8448
3, 850284, Pitch_bend_c, 1, 8448
3, 850304, Pitch_bend_c, 1, 8448
3, 850316, Pitch_bend_c, 1, 8448
3, 850336, Pitch_bend_c, 1, 8448
3, 850355, Pitch_bend_c, 1, 8448
3, 850374, Pitch_bend_c, 1, 8448
3, 850393, Pitch_bend_c, 1, 8320
3, 850412, Pitch_bend_c, 1, 8320
3, 850425, Pitch_bend_c, 1, 8320
3, 850444, Pitch_bend_c, 1, 8192
3, 850464, Pitch_bend_c, 1, 8192
3, 850483, Pitch_bend_c, 1, 8192
3, 850502, Pitch_bend_c, 1, 8064
3, 850515, Pitch_bend_c, 1, 8064
3, 850534, Pitch_bend_c, 1, 8064
3, 850553, Pitch_bend_c, 1, 7936
3, 850572, Pitch_bend_c, 1, 7936
3, 850592, Pitch_bend_c, 1, 7936
3, 850611, Pitch_bend_c, 1, 7936
3, 850624, Pitch_bend_c, 1, 7936
3, 850643, Pitch_bend_c, 1, 7936
3, 850662, Pitch_bend_c, 1, 7936
3, 850681, Pitch_bend_c, 1, 8064
3, 850700, Pitch_bend_c, 1, 8064
3, 850713, Pitch_bend_c, 1, 8064
3, 850732, Pitch_bend_c, 1, 8192
3, 850752, Pitch_bend_c, 1, 8192
3, 850771, Pitch_bend_c, 1, 8192
3, 850790, Pitch_bend_c, 1, 8320
3, 850803, Pitch_bend_c, 1, 8320
3, 850822, Pitch_bend_c, 1, 8320
3, 850841, Pitch_bend_c, 1, 8320
3, 850860, Pitch_bend_c, 1, 8320
3, 850880, Pitch_bend_c, 1, 8320
3, 850892, Pitch_bend_c, 1, 8320
3, 850912, Pitch_bend_c, 1, 8320
3, 850931, Pitch_bend_c, 1, 8320
3, 850944, Note_off_c, 1, 67, 80
3, 850944, Pitch_bend_c, 1, 8192
3, 850944, Note_on_c, 1, 62, 63
3, 850963, Pitch_bend_c, 1, 8192
3, 850982, Pitch_bend_c, 1, 8192
3, 850995, Pitch_bend_c, 1, 8192
3, 851014, Pitch_bend_c, 1, 8192
3, 851033, Pitch_bend_c, 1, 8192
3, 851052, Pitch_bend_c, 1, 8192
3, 851072, Pitch_bend_c, 1, 8192
3, 851084, Pitch_bend_c, 1, 8192
3, 851104, Pitch_bend_c, 1, 8192
3, 851123, Pitch_bend_c, 1, 8192
3, 851142, Pitch_bend_c, 1, 8192
3, 851161, Pitch_bend_c, 1, 8192
3, 851180, Pitch_bend_c, 1, 8192
3, 851193, Pitch_bend_c, 1, 8192
3, 851212, Pitch_bend_c, 1, 8192
3, 851232, Pitch_bend_c, 1, 8192
3, 851251, Pitch_bend_c, 1, 8192
3, 851270, Pitch_bend_c, 1, 8192
3, 851283, Pitch_bend_c, 1, 8192
3, 851302, Pitch_bend_c, 1, 8192
3, 851321, Pitch_bend_c, 1, 8192
3, 851340, Pitch_bend_c, 1, 8192
3, 851360, Pitch_bend_c, 1, 8192
3, 851379, Pitch_bend_c, 1, 8192
3, 851392, Pitch_bend_c, 1, 8192
3, 851411, Pitch_bend_c, 1, 8192
3, 851430, Pitch_bend_c, 1, 8192
3, 851449, Pitch_bend_c, 1, 8192
3, 851468, Pitch_bend_c, 1, 8192
3, 851481, Pitch_bend_c, 1, 8192
3, 851500, Pitch_bend_c, 1, 8192
3, 851520, Pitch_bend_c, 1, 8192
3, 851539, Pitch_bend_c, 1, 8192
3, 851558, Pitch_bend_c, 1, 8320
3, 851571, Pitch_bend_c, 1, 8320
3, 851590, Pitch_bend_c, 1, 8448
3, 851609, Pitch_bend_c, 1, 8448
3, 851628, Pitch_bend_c, 1, 8448
3, 851648, Pitch_bend_c, 1, 8448
3, 851660, Pitch_bend_c, 1, 8448
3, 851680, Pitch_bend_c, 1, 8448
3, 851699, Pitch_bend_c, 1, 8448
3, 851718, Pitch_bend_c, 1, 8448
3, 851737, Pitch_bend_c, 1, 8448
3, 851756, Pitch_bend_c, 1, 8320
3, 851769, Pitch_bend_c, 1, 8320
3, 851788, Pitch_bend_c, 1, 8192
3, 851808, Pitch_bend_c, 1, 8192
3, 851827, Pitch_bend_c, 1, 8192
3, 851846, Pitch_bend_c, 1, 8064
3, 851859, Pitch_bend_c, 1, 8064
3, 851878, Pitch_bend_c, 1, 7936
3, 851897, Pitch_bend_c, 1, 7936
3, 851916, Pitch_bend_c, 1, 7936
3, 851936, Pitch_bend_c, 1, 7936
3, 851955, Pitch_bend_c, 1, 7936
3, 851968, Pitch_bend_c, 1, 7936
3, 851987, Pitch_bend_c, 1, 7936
3, 852006, Pitch_bend_c, 1, 7936
3, 852025, Pitch_bend_c, 1, 7936
3, 852044, Pitch_bend_c, 1, 8064
3, 852057, Pitch_bend_c, 1, 8064
3, 852076, Pitch_bend_c, 1, 8192
3, 852096, Pitch_bend_c, 1, 8192
3, 852115, Pitch_bend_c, 1, 8192
3, 852134, Pitch_bend_c, 1, 8320
3, 852147, Pitch_bend_c, 1, 8320
3, 852166, Pitch_bend_c, 1, 8320
3, 852185, Pitch_bend_c, 1, 8448
3, 852204, Pitch_bend_c, 1, 8448
3, 852224, Pitch_bend_c, 1, 8448
3, 852236, Pitch_bend_c, 1, 8448
3, 852256, Pitch_bend_c, 1, 8448
3, 852275, Pitch_bend_c, 1, 8448
3, 852294, Pitch_bend_c, 1, 8448
3, 852313, Pitch_bend_c, 1, 8320
3, 852332, Pitch_bend_c, 1, 8320
3, 852345, Pitch_bend_c, 1, 8320
3, 852364, Pitch_bend_c, 1, 8192
3, 852384, Pitch_bend_c, 1, 8192
3, 852403, Pitch_bend_c, 1, 8192
3, 852422, Pitch_bend_c, 1, 8064
3, 852435, Pitch_bend_c, 1, 8064
3, 852454, Pitch_bend_c, 1, 8064
3, 852473, Pitch_bend_c, 1, 7936
3, 852492, Pitch_bend_c, 1, 7936
3, 852512, Pitch_bend_c, 1, 7936
3, 852531, Pitch_bend_c, 1, 7936
3, 852544, Pitch_bend_c, 1, 7936
3, 852563, Pitch_bend_c, 1, 7936
3, 852582, Pitch_bend_c, 1, 7936
3, 852601, Pitch_bend_c, 1, 8064
3, 852620, Pitch_bend_c, 1, 8064
3, 852633, Pitch_bend_c, 1, 8064
3, 852652, Pitch_bend_c, 1, 8192
3, 852672, Pitch_bend_c, 1, 8192
3, 852691, Pitch_bend_c, 1, 8192
3, 852710, Pitch_bend_c, 1, 8320
3, 852723, Pitch_bend_c, 1, 8320
3, 852742, Pitch_bend_c, 1, 8320
3, 852761, Pitch_bend_c, 1, 8320
3, 852780, Pitch_bend_c, 1, 8448
3, 852800, Pitch_bend_c, 1, 8448
3, 852812, Pitch_bend_c, 1, 8448
3, 852832, Pitch_bend_c, 1, 8448
3, 852851, Pitch_bend_c, 1, 8448
3, 852870, Pitch_bend_c, 1, 8320
3, 852889, Pitch_bend_c, 1, 8320
3, 852908, Pitch_bend_c, 1, 8320
3, 852921, Pitch_bend_c, 1, 8320
3, 852940, Pitch_bend_c, 1, 8192
3, 852960, Pitch_bend_c, 1, 8192
3, 852979, Pitch_bend_c, 1, 8192
3, 852998, Pitch_bend_c, 1, 8064
3, 853011, Pitch_bend_c, 1, 8064
3, 853030, Pitch_bend_c, 1, 8064
3, 853049, Pitch_bend_c, 1, 8064
3, 853068, Pitch_bend_c, 1, 7936
3, 853088, Pitch_bend_c, 1, 7936
3, 853107, Pitch_bend_c, 1, 7936
3, 853120, Pitch_bend_c, 1, 7936
3, 853139, Pitch_bend_c, 1, 7936
3, 853158, Pitch_bend_c, 1, 8064
3, 853177, Pitch_bend_c, 1, 8064
3, 853196, Pitch_bend_c, 1, 8064
3, 853209, Pitch_bend_c, 1, 8064
3, 853228, Pitch_bend_c, 1, 8192
3, 853248, Note_off_c, 1, 62, 80
3, 853248, Pitch_bend_c, 1, 8192
3, 853248, Note_on_c, 1, 62, 63
3, 853574, Pitch_bend_c, 1, 8832
3, 853606, Pitch_bend_c, 1, 9600
3, 853632, Pitch_bend_c, 1, 10240
3, 853939, Pitch_bend_c, 1, 9600
3, 854016, Pitch_bend_c, 1, 9600
3, 854035, Pitch_bend_c, 1, 9600
3, 854054, Pitch_bend_c, 1, 9600
3, 854067, Pitch_bend_c, 1, 9600
3, 854086, Pitch_bend_c, 1, 9600
3, 854105, Pitch_bend_c, 1, 9600
3, 854124, Pitch_bend_c, 1, 9472
3, 854144, Pitch_bend_c, 1, 9472
3, 854156, Pitch_bend_c, 1, 9472
3, 854176, Pitch_bend_c, 1, 9472
3, 854195, Pitch_bend_c, 1, 9472
3, 854214, Pitch_bend_c, 1, 9600
3, 854233, Pitch_bend_c, 1, 9600
3, 854252, Pitch_bend_c, 1, 9600
3, 854265, Pitch_bend_c, 1, 9600
3, 854284, Pitch_bend_c, 1, 9600
3, 854304, Pitch_bend_c, 1, 9600
3, 854323, Pitch_bend_c, 1, 9600
3, 854342, Pitch_bend_c, 1, 9600
3, 854355, Pitch_bend_c, 1, 9600
3, 854374, Pitch_bend_c, 1, 9600
3, 854393, Pitch_bend_c, 1, 9600
3, 854412, Pitch_bend_c, 1, 9728
3, 854432, Pitch_bend_c, 1, 9728
3, 854451, Pitch_bend_c, 1, 9728
3, 854464, Pitch_bend_c, 1, 9728
3, 854483, Pitch_bend_c, 1, 9728
3, 854502, Pitch_bend_c, 1, 9600
3, 854521, Pitch_bend_c, 1, 9600
3, 854540, Pitch_bend_c, 1, 9600
3, 854553, Pitch_bend_c, 1, 9600
3, 854572, Pitch_bend_c, 1, 9600
3, 854592, Pitch_bend_c, 1, 9600
3, 854611, Pitch_bend_c, 1, 9600
3, 854630, Pitch_bend_c, 1, 9728
3, 854643, Pitch_bend_c, 1, 9728
3, 854662, Pitch_bend_c, 1, 9728
3, 854681, Pitch_bend_c, 1, 9728
3, 854700, Pitch_bend_c, 1, 9728
3, 854720, Pitch_bend_c, 1, 9856
3, 854732, Pitch_bend_c, 1, 9856
3, 854752, Pitch_bend_c, 1, 9856
3, 854771, Pitch_bend_c, 1, 9728
3, 854790, Pitch_bend_c, 1, 9728
3, 854809, Pitch_bend_c, 1, 9728
3, 854828, Pitch_bend_c, 1, 9728
3, 854841, Pitch_bend_c, 1, 9728
3, 854860, Pitch_bend_c, 1, 9600
3, 854880, Pitch_bend_c, 1, 9600
3, 854899, Pitch_bend_c, 1, 9600
3, 854918, Pitch_bend_c, 1, 9472
3, 854931, Pitch_bend_c, 1, 9472
3, 854950, Pitch_bend_c, 1, 9472
3, 854969, Pitch_bend_c, 1, 9472
3, 854988, Pitch_bend_c, 1, 9472
3, 855008, Pitch_bend_c, 1, 9344
3, 855027, Pitch_bend_c, 1, 9344
3, 855040, Pitch_bend_c, 1, 9344
3, 855059, Pitch_bend_c, 1, 9472
3, 855078, Pitch_bend_c, 1, 9472
3, 855097, Pitch_bend_c, 1, 9472
3, 855116, Pitch_bend_c, 1, 9472
3, 855129, Pitch_bend_c, 1, 9472
3, 855148, Pitch_bend_c, 1, 9600
3, 855168, Pitch_bend_c, 1, 9600
3, 855187, Pitch_bend_c, 1, 9600
3, 855206, Pitch_bend_c, 1, 9728
3, 855219, Pitch_bend_c, 1, 9728
3, 855238, Pitch_bend_c, 1, 9728
3, 855257, Pitch_bend_c, 1, 9856
3, 855276, Pitch_bend_c, 1, 9856
3, 855296, Pitch_bend_c, 1, 9856
3, 855308, Pitch_bend_c, 1, 9856
3, 855328, Pitch_bend_c, 1, 9856
3, 855347, Pitch_bend_c, 1, 9856
3, 855366, Pitch_bend_c, 1, 9856
3, 855385, Pitch_bend_c, 1, 9728
3, 855404, Pitch_bend_c, 1, 9728
3, 855417, Pitch_bend_c, 1, 9728
3, 855436, Pitch_bend_c, 1, 9600
3, 855456, Pitch_bend_c, 1, 9600
3, 855475, Pitch_bend_c, 1, 9600
3, 855494, Pitch_bend_c, 1, 9472
3, 855507, Pitch_bend_c, 1, 9472
3, 855526, Pitch_bend_c, 1, 9472
3, 855545, Pitch_bend_c, 1, 9344
3, 855552, Note_off_c, 1, 62, 80
3, 855552, Pitch_bend_c, 1, 8192
3, 855552, Note_on_c, 1, 60, 63
3, 855936, Note_off_c, 1, 60, 80
3, 856320, Note_on_c, 1, 60, 63
3, 856627, Pitch_bend_c, 1, 8832
3, 856652, Pitch_bend_c, 1, 9600
3, 856678, Pitch_bend_c, 1, 10240
3, 856704, Pitch_bend_c, 1, 10880
3, 857049, Pitch_bend_c, 1, 10240
3, 857088, Pitch_bend_c, 1, 9472
3, 857107, Pitch_bend_c, 1, 9472
3, 857126, Pitch_bend_c, 1, 9472
3, 857139, Pitch_bend_c, 1, 9472
3, 857158, Pitch_bend_c, 1, 9472
3, 857177, Pitch_bend_c, 1, 9472
3, 857196, Pitch_bend_c, 1, 9472
3, 857216, Pitch_bend_c, 1, 9472
3, 857228, Pitch_bend_c, 1, 9472
3, 857248, Pitch_bend_c, 1, 9472
3, 857267, Pitch_bend_c, 1, 9472
3, 857286, Pitch_bend_c, 1, 9472
3, 857305, Pitch_bend_c, 1, 9472
3, 857324, Pitch_bend_c, 1, 9472
3, 857337, Pitch_bend_c, 1, 9472
3, 857356, Pitch_bend_c, 1, 9472
3, 857376, Pitch_bend_c, 1, 9472
3, 857395, Pitch_bend_c, 1, 9472
3, 857414, Pitch_bend_c, 1, 9472
3, 857427, Pitch_bend_c, 1, 9472
3, 857446, Pitch_bend_c, 1, 9472
3, 857465, Pitch_bend_c, 1, 9472
3, 857484, Pitch_bend_c, 1, 9472
3, 857504, Pitch_bend_c, 1, 9472
3, 857523, Pitch_bend_c, 1, 9472
3, 857536, Pitch_bend_c, 1, 9472
3, 857555, Pitch_bend_c, 1, 9472
3, 857574, Pitch_bend_c, 1, 9472
3, 857593, Pitch_bend_c, 1, 9472
3, 857612, Pitch_bend_c, 1, 9472
3, 857625, Pitch_bend_c, 1, 9472
3, 857644, Pitch_bend_c, 1, 9472
3, 857664, Pitch_bend_c, 1, 9472
3, 857683, Pitch_bend_c, 1, 9472
3, 857702, Pitch_bend_c, 1, 9600
3, 857715, Pitch_bend_c, 1, 9600
3, 857734, Pitch_bend_c, 1, 9600
3, 857753, Pitch_bend_c, 1, 9600
3, 857772, Pitch_bend_c, 1, 9728
3, 857792, Pitch_bend_c, 1, 9728
3, 857804, Pitch_bend_c, 1, 9728
3, 857824, Pitch_bend_c, 1, 9728
3, 857843, Pitch_bend_c, 1, 9728
3, 857862, Pitch_bend_c, 1, 9600
3, 857881, Pitch_bend_c, 1, 9600
3, 857900, Pitch_bend_c, 1, 9600
3, 857913, Pitch_bend_c, 1, 9600
3, 857932, Pitch_bend_c, 1, 9472
3, 857952, Pitch_bend_c, 1, 9472
3, 857971, Pitch_bend_c, 1, 9472
3, 857990, Pitch_bend_c, 1, 9344
3, 858003, Pitch_bend_c, 1, 9344
3, 858022, Pitch_bend_c, 1, 9344
3, 858041, Pitch_bend_c, 1, 9344
3, 858060, Pitch_bend_c, 1, 9216
3, 858080, Pitch_bend_c, 1, 9216
3, 858099, Pitch_bend_c, 1, 9216
3, 858112, Pitch_bend_c, 1, 9216
3, 858131, Pitch_bend_c, 1, 9216
3, 858150, Pitch_bend_c, 1, 9344
3, 858169, Pitch_bend_c, 1, 9344
3, 858188, Pitch_bend_c, 1, 9344
3, 858201, Pitch_bend_c, 1, 9344
3, 858220, Pitch_bend_c, 1, 9472
3, 858240, Pitch_bend_c, 1, 9472
3, 858259, Pitch_bend_c, 1, 9472
3, 858278, Pitch_bend_c, 1, 9600
3, 858291, Pitch_bend_c, 1, 9600
3, 858310, Pitch_bend_c, 1, 9600
3, 858329, Pitch_bend_c, 1, 9728
3, 858348, Pitch_bend_c, 1, 9728
3, 858368, Pitch_bend_c, 1, 9728
3, 858380, Pitch_bend_c, 1, 9728
3, 858400, Pitch_bend_c, 1, 9728
3, 858419, Pitch_bend_c, 1, 9728
3, 858438, Pitch_bend_c, 1, 9728
3, 858457, Pitch_bend_c, 1, 9600
3, 858476, Pitch_bend_c, 1, 9600
3, 858489, Pitch_bend_c, 1, 9600
3, 858508, Pitch_bend_c, 1, 9472
3, 858528, Pitch_bend_c, 1, 9472
3, 858547, Pitch_bend_c, 1, 9472
3, 858566, Pitch_bend_c, 1, 9344
3, 858579, Pitch_bend_c, 1, 9344
3, 858598, Pitch_bend_c, 1, 9344
3, 858617, Pitch_bend_c, 1, 9216
3, 858624, Note_off_c, 1, 60, 80
3, 858624, Pitch_bend_c, 1, 8192
3, 858624, Note_on_c, 1, 58, 63
3, 859008, Note_off_c, 1, 58, 80
3, 859392, Note_on_c, 1, 58, 63
3, 860160, Note_off_c, 1, 58, 80
3, 860160, Note_on_c, 1, 60, 63
3, 860160, Pitch_bend_c, 1, 8192
3, 860179, Pitch_bend_c, 1, 8192
3, 860198, Pitch_bend_c, 1, 8192
3, 860211, Pitch_bend_c, 1, 8192
3, 860230, Pitch_bend_c, 1, 8192
3, 860249, Pitch_bend_c, 1, 8192
3, 860268, Pitch_bend_c, 1, 8192
3, 860288, Pitch_bend_c, 1, 8192
3, 860300, Pitch_bend_c, 1, 8192
3, 860320, Pitch_bend_c, 1, 8192
3, 860339, Pitch_bend_c, 1, 8192
3, 860358, Pitch_bend_c, 1, 8192
3, 860377, Pitch_bend_c, 1, 8192
3, 860396, Pitch_bend_c, 1, 8192
3, 860409, Pitch_bend_c, 1, 8192
3, 860428, Pitch_bend_c, 1, 8192
3, 860448, Pitch_bend_c, 1, 8192
3, 860467, Pitch_bend_c, 1, 8192
3, 860486, Pitch_bend_c, 1, 8192
3, 860499, Pitch_bend_c, 1, 8192
3, 860518, Pitch_bend_c, 1, 8192
3, 860537, Pitch_bend_c, 1, 8192
3, 860556, Pitch_bend_c, 1, 8192
3, 860576, Pitch_bend_c, 1, 8192
3, 860595, Pitch_bend_c, 1, 8192
3, 860608, Pitch_bend_c, 1, 8192
3, 860627, Pitch_bend_c, 1, 8192
3, 860646, Pitch_bend_c, 1, 8192
3, 860665, Pitch_bend_c, 1, 8192
3, 860684, Pitch_bend_c, 1, 8192
3, 860697, Pitch_bend_c, 1, 8192
3, 860716, Pitch_bend_c, 1, 8192
3, 860736, Pitch_bend_c, 1, 8192
3, 860755, Pitch_bend_c, 1, 8320
3, 860774, Pitch_bend_c, 1, 8320
3, 860787, Pitch_bend_c, 1, 8320
3, 860806, Pitch_bend_c, 1, 8448
3, 860825, Pitch_bend_c, 1, 8448
3, 860844, Pitch_bend_c, 1, 8448
3, 860864, Pitch_bend_c, 1, 8448
3, 860876, Pitch_bend_c, 1, 8448
3, 860896, Pitch_bend_c, 1, 8448
3, 860915, Pitch_bend_c, 1, 8448
3, 860934, Pitch_bend_c, 1, 8448
3, 860953, Pitch_bend_c, 1, 8448
3, 860972, Pitch_bend_c, 1, 8320
3, 860985, Pitch_bend_c, 1, 8320
3, 861004, Pitch_bend_c, 1, 8320
3, 861024, Pitch_bend_c, 1, 8192
3, 861043, Pitch_bend_c, 1, 8064
3, 861062, Pitch_bend_c, 1, 8064
3, 861075, Pitch_bend_c, 1, 8064
3, 861094, Pitch_bend_c, 1, 7936
3, 861113, Pitch_bend_c, 1, 7936
3, 861132, Pitch_bend_c, 1, 7936
3, 861152, Pitch_bend_c, 1, 7936
3, 861171, Pitch_bend_c, 1, 7936
3, 861184, Pitch_bend_c, 1, 7936
3, 861203, Pitch_bend_c, 1, 7936
3, 861222, Pitch_bend_c, 1, 7936
3, 861241, Pitch_bend_c, 1, 7936
3, 861260, Pitch_bend_c, 1, 8064
3, 861273, Pitch_bend_c, 1, 8064
3, 861292, Pitch_bend_c, 1, 8064
3, 861312, Pitch_bend_c, 1, 8192
3, 861331, Pitch_bend_c, 1, 8192
3, 861350, Pitch_bend_c, 1, 8320
3, 861363, Pitch_bend_c, 1, 8320
3, 861382, Pitch_bend_c, 1, 8320
3, 861401, Pitch_bend_c, 1, 8448
3, 861420, Pitch_bend_c, 1, 8448
3, 861440, Pitch_bend_c, 1, 8448
3, 861452, Pitch_bend_c, 1, 8448
3, 861472, Pitch_bend_c, 1, 8448
3, 861491, Pitch_bend_c, 1, 8448
3, 861510, Pitch_bend_c, 1, 8448
3, 861529, Pitch_bend_c, 1, 8320
3, 861548, Pitch_bend_c, 1, 8320
3, 861561, Pitch_bend_c, 1, 8320
3, 861580, Pitch_bend_c, 1, 8192
3, 861600, Pitch_bend_c, 1, 8192
3, 861619, Pitch_bend_c, 1, 8192
3, 861638, Pitch_bend_c, 1, 8064
3, 861651, Pitch_bend_c, 1, 8064
3, 861670, Pitch_bend_c, 1, 8064
3, 861689, Pitch_bend_c, 1, 7936
3, 861696, Note_off_c, 1, 60, 80
3, 861696, Pitch_bend_c, 1, 8192
3, 861696, Note_on_c, 1, 57, 63
3, 862080, Note_off_c, 1, 57, 80
3, 862464, Note_on_c, 1, 57, 63
3, 863078, Pitch_bend_c, 1, 8832
3, 863232, Pitch_bend_c, 1, 8832
3, 863251, Pitch_bend_c, 1, 8832
3, 863270, Pitch_bend_c, 1, 8832
3, 863283, Pitch_bend_c, 1, 8832
3, 863302, Pitch_bend_c, 1, 8832
3, 863321, Pitch_bend_c, 1, 8832
3, 863340, Pitch_bend_c, 1, 8832
3, 863360, Pitch_bend_c, 1, 8832
3, 863372, Pitch_bend_c, 1, 8832
3, 863392, Pitch_bend_c, 1, 8832
3, 863411, Pitch_bend_c, 1, 8832
3, 863430, Pitch_bend_c, 1, 8832
3, 863449, Pitch_bend_c, 1, 8832
3, 863468, Pitch_bend_c, 1, 8832
3, 863481, Pitch_bend_c, 1, 8832
3, 863500, Pitch_bend_c, 1, 8832
3, 863520, Pitch_bend_c, 1, 8832
3, 863539, Pitch_bend_c, 1, 8832
3, 863558, Pitch_bend_c, 1, 8832
3, 863571, Pitch_bend_c, 1, 8832
3, 863590, Pitch_bend_c, 1, 8832
3, 863609, Pitch_bend_c, 1, 8832
3, 863628, Pitch_bend_c, 1, 8832
3, 863648, Pitch_bend_c, 1, 8832
3, 863667, Pitch_bend_c, 1, 8832
3, 863680, Pitch_bend_c, 1, 8832
3, 863699, Pitch_bend_c, 1, 8832
3, 863718, Pitch_bend_c, 1, 8832
3, 863737, Pitch_bend_c, 1, 8832
3, 863756, Pitch_bend_c, 1, 8832
3, 863769, Pitch_bend_c, 1, 8832
3, 863788, Pitch_bend_c, 1, 8832
3, 863808, Pitch_bend_c, 1, 8832
3, 863827, Pitch_bend_c, 1, 8832
3, 863846, Pitch_bend_c, 1, 8960
3, 863859, Pitch_bend_c, 1, 8960
3, 863878, Pitch_bend_c, 1, 8960
3, 863897, Pitch_bend_c, 1, 9088
3, 863916, Pitch_bend_c, 1, 9088
3, 863936, Pitch_bend_c, 1, 9088
3, 863948, Pitch_bend_c, 1, 9088
3, 863968, Pitch_bend_c, 1, 9088
3, 863987, Pitch_bend_c, 1, 9088
3, 864006, Pitch_bend_c, 1, 9088
3, 864025, Pitch_bend_c, 1, 8960
3, 864044, Pitch_bend_c, 1, 8960
3, 864057, Pitch_bend_c, 1, 8960
3, 864076, Pitch_bend_c, 1, 8832
3, 864096, Pitch_bend_c, 1, 8832
3, 864115, Pitch_bend_c, 1, 8832
3, 864134, Pitch_bend_c, 1, 8704
3, 864147, Pitch_bend_c, 1, 8704
3, 864166, Pitch_bend_c, 1, 8704
3, 864185, Pitch_bend_c, 1, 8576
3, 864204, Pitch_bend_c, 1, 8576
3, 864224, Pitch_bend_c, 1, 8576
3, 864243, Pitch_bend_c, 1, 8576
3, 864256, Pitch_bend_c, 1, 8576
3, 864275, Pitch_bend_c, 1, 8576
3, 864294, Pitch_bend_c, 1, 8576
3, 864313, Pitch_bend_c, 1, 8704
3, 864332, Pitch_bend_c, 1, 8704
3, 864345, Pitch_bend_c, 1, 8704
3, 864364, Pitch_bend_c, 1, 8832
3, 864384, Pitch_bend_c, 1, 8832
3, 864403, Pitch_bend_c, 1, 8832
3, 864422, Pitch_bend_c, 1, 8960
3, 864435, Pitch_bend_c, 1, 8960
3, 864454, Pitch_bend_c, 1, 8960
3, 864473, Pitch_bend_c, 1, 9088
3, 864492, Pitch_bend_c, 1, 9088
3, 864512, Pitch_bend_c, 1, 9088
3, 864524, Pitch_bend_c, 1, 9088
3, 864544, Pitch_bend_c, 1, 9088
3, 864563, Pitch_bend_c, 1, 9088
3, 864582, Pitch_bend_c, 1, 9088
3, 864601, Pitch_bend_c, 1, 8960
3, 864620, Pitch_bend_c, 1, 8960
3, 864633, Pitch_bend_c, 1, 8960
3, 864652, Pitch_bend_c, 1, 8832
3, 864672, Pitch_bend_c, 1, 8832
3, 864691, Pitch_bend_c, 1, 8832
3, 864710, Pitch_bend_c, 1, 8704
3, 864723, Pitch_bend_c, 1, 8704
3, 864742, Pitch_bend_c, 1, 8704
3, 864761, Pitch_bend_c, 1, 8576
3, 864768, Note_off_c, 1, 57, 80
3, 864768, Pitch_bend_c, 1, 8192
3, 864768, Note_on_c, 1, 55, 63
3, 865152, Note_off_c, 1, 55, 80
3, 865536, Note_on_c, 1, 55, 63
3, 866227, Pitch_bend_c, 1, 8832
3, 866304, Pitch_bend_c, 1, 9600
3, 866323, Pitch_bend_c, 1, 9600
3, 866342, Pitch_bend_c, 1, 9600
3, 866355, Pitch_bend_c, 1, 9600
3, 866374, Pitch_bend_c, 1, 9600
3, 866393, Pitch_bend_c, 1, 9600
3, 866412, Pitch_bend_c, 1, 9600
3, 866432, Pitch_bend_c, 1, 9600
3, 866444, Pitch_bend_c, 1, 9600
3, 866464, Pitch_bend_c, 1, 9600
3, 866483, Pitch_bend_c, 1, 9600
3, 866502, Pitch_bend_c, 1, 9600
3, 866521, Pitch_bend_c, 1, 9600
3, 866540, Pitch_bend_c, 1, 9600
3, 866553, Pitch_bend_c, 1, 9600
3, 866572, Pitch_bend_c, 1, 9600
3, 866592, Pitch_bend_c, 1, 9600
3, 866611, Pitch_bend_c, 1, 9600
3, 866630, Pitch_bend_c, 1, 9600
3, 866643, Pitch_bend_c, 1, 9600
3, 866662, Pitch_bend_c, 1, 9600
3, 866681, Pitch_bend_c, 1, 9600
3, 866700, Pitch_bend_c, 1, 9600
3, 866720, Pitch_bend_c, 1, 9600
3, 866739, Pitch_bend_c, 1, 9600
3, 866752, Pitch_bend_c, 1, 9600
3, 866771, Pitch_bend_c, 1, 9600
3, 866790, Pitch_bend_c, 1, 9600
3, 866809, Pitch_bend_c, 1, 9600
3, 866828, Pitch_bend_c, 1, 9600
3, 866841, Pitch_bend_c, 1, 9600
3, 866860, Pitch_bend_c, 1, 9600
3, 866880, Pitch_bend_c, 1, 9600
3, 866899, Pitch_bend_c, 1, 9600
3, 866918, Pitch_bend_c, 1, 9728
3, 866931, Pitch_bend_c, 1, 9728
3, 866950, Pitch_bend_c, 1, 9728
3, 866969, Pitch_bend_c, 1, 9728
3, 866988, Pitch_bend_c, 1, 9728
3, 867008, Pitch_bend_c, 1, 9728
3, 867020, Pitch_bend_c, 1, 9728
3, 867040, Pitch_bend_c, 1, 9728
3, 867059, Pitch_bend_c, 1, 9728
3, 867078, Pitch_bend_c, 1, 9728
3, 867097, Pitch_bend_c, 1, 9728
3, 867116, Pitch_bend_c, 1, 9728
3, 867129, Pitch_bend_c, 1, 9728
3, 867148, Pitch_bend_c, 1, 9600
3, 867168, Pitch_bend_c, 1, 9600
3, 867187, Pitch_bend_c, 1, 9600
3, 867206, Pitch_bend_c, 1, 9472
3, 867219, Pitch_bend_c, 1, 9472
3, 867238, Pitch_bend_c, 1, 9472
3, 867257, Pitch_bend_c, 1, 9472
3, 867276, Pitch_bend_c, 1, 9472
3, 867296, Pitch_bend_c, 1, 9472
3, 867315, Pitch_bend_c, 1, 9472
3, 867328, Pitch_bend_c, 1, 9472
3, 867347, Pitch_bend_c, 1, 9472
3, 867366, Pitch_bend_c, 1, 9472
3, 867385, Pitch_bend_c, 1, 9472
3, 867404, Pitch_bend_c, 1, 9472
3, 867417, Pitch_bend_c, 1, 9472
3, 867436, Pitch_bend_c, 1, 9600
3, 867456, Pitch_bend_c, 1, 9600
3, 867475, Pitch_bend_c, 1, 9600
3, 867494, Pitch_bend_c, 1, 9728
3, 867507, Pitch_bend_c, 1, 9728
3, 867526, Pitch_bend_c, 1, 9728
3, 867545, Pitch_bend_c, 1, 9856
3, 867564, Pitch_bend_c, 1, 9856
3, 867584, Pitch_bend_c, 1, 9856
3, 867596, Pitch_bend_c, 1, 9856
3, 867616, Pitch_bend_c, 1, 9856
3, 867635, Pitch_bend_c, 1, 9856
3, 867654, Pitch_bend_c, 1, 9856
3, 867673, Pitch_bend_c, 1, 9728
3, 867692, Pitch_bend_c, 1, 9728
3, 867705, Pitch_bend_c, 1, 9728
3, 867724, Pitch_bend_c, 1, 9600
3, 867744, Pitch_bend_c, 1, 9600
3, 867763, Pitch_bend_c, 1, 9600
3, 867782, Pitch_bend_c, 1, 9472
3, 867795, Pitch_bend_c, 1, 9472
3, 867814, Pitch_bend_c, 1, 9472
3, 867833, Pitch_bend_c, 1, 9344
3, 867852, Pitch_bend_c, 1, 9344
3, 867872, Pitch_bend_c, 1, 9344
3, 867891, Pitch_bend_c, 1, 9344
3, 867904, Pitch_bend_c, 1, 9344
3, 867923, Pitch_bend_c, 1, 9344
3, 867942, Pitch_bend_c, 1, 9344
3, 867961, Pitch_bend_c, 1, 9472
3, 867980, Pitch_bend_c, 1, 9472
3, 867993, Pitch_bend_c, 1, 9472
3, 868012, Pitch_bend_c, 1, 9600
3, 868032, Pitch_bend_c, 1, 9600
3, 868051, Pitch_bend_c, 1, 9600
3, 868070, Pitch_bend_c, 1, 9728
3, 868083, Pitch_bend_c, 1, 9728
3, 868102, Pitch_bend_c, 1, 9728
3, 868121, Pitch_bend_c, 1, 9728
3, 868140, Pitch_bend_c, 1, 9856
3, 868160, Pitch_bend_c, 1, 9856
3, 868172, Pitch_bend_c, 1, 9856
3, 868192, Pitch_bend_c, 1, 9856
3, 868211, Pitch_bend_c, 1, 9856
3, 868230, Pitch_bend_c, 1, 9728
3, 868249, Pitch_bend_c, 1, 9728
3, 868268, Pitch_bend_c, 1, 9728
3, 868281, Pitch_bend_c, 1, 9728
3, 868300, Pitch_bend_c, 1, 9600
3, 868320, Pitch_bend_c, 1, 9600
3, 868339, Pitch_bend_c, 1, 9600
3, 868352, Note_off_c, 1, 55, 80
3, 868352, Pitch_bend_c, 1, 8192
3, 868352, Note_on_c, 1, 53, 63
3, 868371, Pitch_bend_c, 1, 8192
3, 868390, Pitch_bend_c, 1, 8192
3, 868403, Pitch_bend_c, 1, 8192
3, 868422, Pitch_bend_c, 1, 8192
3, 868441, Pitch_bend_c, 1, 8192
3, 868460, Pitch_bend_c, 1, 8192
3, 868480, Pitch_bend_c, 1, 8192
3, 868492, Pitch_bend_c, 1, 8192
3, 868512, Pitch_bend_c, 1, 8192
3, 868531, Pitch_bend_c, 1, 8192
3, 868550, Pitch_bend_c, 1, 8192
3, 868569, Pitch_bend_c, 1, 8192
3, 868588, Pitch_bend_c, 1, 8192
3, 868601, Pitch_bend_c, 1, 8192
3, 868620, Pitch_bend_c, 1, 8192
3, 868640, Pitch_bend_c, 1, 8192
3, 868659, Pitch_bend_c, 1, 8192
3, 868678, Pitch_bend_c, 1, 8192
3, 868691, Pitch_bend_c, 1, 8192
3, 868710, Pitch_bend_c, 1, 8192
3, 868729, Pitch_bend_c, 1, 8192
3, 868748, Pitch_bend_c, 1, 8192
3, 868768, Pitch_bend_c, 1, 8192
3, 868787, Pitch_bend_c, 1, 8192
3, 868800, Pitch_bend_c, 1, 8192
3, 868819, Pitch_bend_c, 1, 8192
3, 868838, Pitch_bend_c, 1, 8192
3, 868857, Pitch_bend_c, 1, 8192
3, 868876, Pitch_bend_c, 1, 8192
3, 868889, Pitch_bend_c, 1, 8192
3, 868908, Pitch_bend_c, 1, 8192
3, 868928, Pitch_bend_c, 1, 8192
3, 868947, Pitch_bend_c, 1, 8192
3, 868966, Pitch_bend_c, 1, 8320
3, 868979, Pitch_bend_c, 1, 8320
3, 868998, Pitch_bend_c, 1, 8320
3, 869017, Pitch_bend_c, 1, 8448
3, 869036, Pitch_bend_c, 1, 8448
3, 869056, Pitch_bend_c, 1, 8448
3, 869068, Pitch_bend_c, 1, 8448
3, 869088, Pitch_bend_c, 1, 8448
3, 869107, Pitch_bend_c, 1, 8448
3, 869126, Pitch_bend_c, 1, 8448
3, 869145, Pitch_bend_c, 1, 8320
3, 869164, Pitch_bend_c, 1, 8320
3, 869177, Pitch_bend_c, 1, 8320
3, 869196, Pitch_bend_c, 1, 8192
3, 869216, Pitch_bend_c, 1, 8192
3, 869235, Pitch_bend_c, 1, 8192
3, 869254, Pitch_bend_c, 1, 8064
3, 869267, Pitch_bend_c, 1, 8064
3, 869286, Pitch_bend_c, 1, 8064
3, 869305, Pitch_bend_c, 1, 7936
3, 869324, Pitch_bend_c, 1, 7936
3, 869344, Pitch_bend_c, 1, 7936
3, 869363, Pitch_bend_c, 1, 7936
3, 869376, Pitch_bend_c, 1, 7936
3, 869395, Pitch_bend_c, 1, 7936
3, 869414, Pitch_bend_c, 1, 7936
3, 869433, Pitch_bend_c, 1, 8064
3, 869452, Pitch_bend_c, 1, 8064
3, 869465, Pitch_bend_c, 1, 8064
3, 869484, Pitch_bend_c, 1, 8192
3, 869504, Pitch_bend_c, 1, 8192
3, 869523, Pitch_bend_c, 1, 8320
3, 869542, Pitch_bend_c, 1, 8320
3, 869555, Pitch_bend_c, 1, 8320
3, 869574, Pitch_bend_c, 1, 8448
3, 869593, Pitch_bend_c, 1, 8448
3, 869612, Pitch_bend_c, 1, 8448
3, 869632, Pitch_bend_c, 1, 8448
3, 869644, Pitch_bend_c, 1, 8448
3, 869664, Pitch_bend_c, 1, 8448
3, 869683, Pitch_bend_c, 1, 8448
3, 869702, Pitch_bend_c, 1, 8448
3, 869721, Pitch_bend_c, 1, 8448
3, 869740, Pitch_bend_c, 1, 8320
3, 869753, Pitch_bend_c, 1, 8320
3, 869772, Pitch_bend_c, 1, 8320
3, 869792, Pitch_bend_c, 1, 8192
3, 869811, Pitch_bend_c, 1, 8064
3, 869830, Pitch_bend_c, 1, 8064
3, 869843, Pitch_bend_c, 1, 8064
3, 869862, Pitch_bend_c, 1, 7936
3, 869881, Pitch_bend_c, 1, 7936
3, 869900, Pitch_bend_c, 1, 7936
3, 869920, Pitch_bend_c, 1, 7936
3, 869939, Pitch_bend_c, 1, 7936
3, 869952, Pitch_bend_c, 1, 7936
3, 869971, Pitch_bend_c, 1, 7936
3, 869990, Pitch_bend_c, 1, 7936
3, 870009, Pitch_bend_c, 1, 7936
3, 870028, Pitch_bend_c, 1, 8064
3, 870041, Pitch_bend_c, 1, 8064
3, 870060, Pitch_bend_c, 1, 8064
3, 870080, Pitch_bend_c, 1, 8192
3, 870099, Pitch_bend_c, 1, 8192
3, 870118, Pitch_bend_c, 1, 8320
3, 870131, Pitch_bend_c, 1, 8320
3, 870150, Pitch_bend_c, 1, 8320
3, 870169, Pitch_bend_c, 1, 8320
3, 870188, Pitch_bend_c, 1, 8320
3, 870208, Pitch_bend_c, 1, 8320
3, 870220, Pitch_bend_c, 1, 8320
3, 870240, Pitch_bend_c, 1, 8320
3, 870259, Pitch_bend_c, 1, 8320
3, 870278, Pitch_bend_c, 1, 8320
3, 870297, Pitch_bend_c, 1, 8320
3, 870316, Pitch_bend_c, 1, 8320
3, 870329, Pitch_bend_c, 1, 8320
3, 870348, Pitch_bend_c, 1, 8192
3, 870368, Pitch_bend_c, 1, 8192
3, 870387, Pitch_bend_c, 1, 8192
3, 870400, Note_off_c, 1, 53, 80
3, 870400, Pitch_bend_c, 1, 8192
3, 870400, Note_on_c, 1, 50, 63
3, 870656, Note_off_c, 1, 50, 80
3, 870656, Note_on_c, 1, 50, 63
3, 871417, Note_off_c, 1, 50, 80
3, 871424, Note_on_c, 1, 50, 63
3, 872448, Note_off_c, 1, 50, 80
3, 872448, Note_on_c, 1, 55, 50
3, 872448, Pitch_bend_c, 1, 8192
3, 872467, Pitch_bend_c, 1, 8192
3, 872486, Pitch_bend_c, 1, 8192
3, 872499, Pitch_bend_c, 1, 8192
3, 872518, Pitch_bend_c, 1, 8192
3, 872537, Pitch_bend_c, 1, 8192
3, 872556, Pitch_bend_c, 1, 8192
3, 872576, Pitch_bend_c, 1, 8192
3, 872588, Pitch_bend_c, 1, 8192
3, 872608, Pitch_bend_c, 1, 8192
3, 872627, Pitch_bend_c, 1, 8192
3, 872646, Pitch_bend_c, 1, 8192
3, 872665, Pitch_bend_c, 1, 8192
3, 872684, Pitch_bend_c, 1, 8192
3, 872697, Pitch_bend_c, 1, 8192
3, 872716, Pitch_bend_c, 1, 8192
3, 872736, Pitch_bend_c, 1, 8192
3, 872755, Pitch_bend_c, 1, 8192
3, 872774, Pitch_bend_c, 1, 8192
3, 872787, Pitch_bend_c, 1, 8192
3, 872806, Pitch_bend_c, 1, 8192
3, 872825, Pitch_bend_c, 1, 8192
3, 872844, Pitch_bend_c, 1, 8192
3, 872864, Pitch_bend_c, 1, 8192
3, 872883, Pitch_bend_c, 1, 8192
3, 872896, Pitch_bend_c, 1, 8192
3, 872915, Pitch_bend_c, 1, 8192
3, 872934, Pitch_bend_c, 1, 8192
3, 872953, Pitch_bend_c, 1, 8192
3, 872972, Pitch_bend_c, 1, 8192
3, 872985, Pitch_bend_c, 1, 8192
3, 873004, Pitch_bend_c, 1, 8192
3, 873024, Pitch_bend_c, 1, 8192
3, 873043, Pitch_bend_c, 1, 8192
3, 873062, Pitch_bend_c, 1, 8192
3, 873075, Pitch_bend_c, 1, 8192
3, 873094, Pitch_bend_c, 1, 8192
3, 873113, Pitch_bend_c, 1, 8320
3, 873132, Pitch_bend_c, 1, 8320
3, 873152, Pitch_bend_c, 1, 8320
3, 873164, Pitch_bend_c, 1, 8320
3, 873184, Pitch_bend_c, 1, 8320
3, 873203, Pitch_bend_c, 1, 8320
3, 873222, Pitch_bend_c, 1, 8320
3, 873241, Pitch_bend_c, 1, 8192
3, 873260, Pitch_bend_c, 1, 8192
3, 873273, Pitch_bend_c, 1, 8192
3, 873292, Pitch_bend_c, 1, 8192
3, 873312, Pitch_bend_c, 1, 8192
3, 873331, Pitch_bend_c, 1, 8192
3, 873350, Pitch_bend_c, 1, 8192
3, 873363, Pitch_bend_c, 1, 8192
3, 873382, Pitch_bend_c, 1, 8192
3, 873401, Pitch_bend_c, 1, 8064
3, 873420, Pitch_bend_c, 1, 8064
3, 873440, Pitch_bend_c, 1, 8064
3, 873459, Pitch_bend_c, 1, 8064
3, 873472, Pitch_bend_c, 1, 8064
3, 873491, Pitch_bend_c, 1, 8064
3, 873510, Pitch_bend_c, 1, 8064
3, 873529, Pitch_bend_c, 1, 8192
3, 873548, Pitch_bend_c, 1, 8192
3, 873561, Pitch_bend_c, 1, 8192
3, 873580, Pitch_bend_c, 1, 8192
3, 873600, Pitch_bend_c, 1, 8192
3, 873619, Pitch_bend_c, 1, 8192
3, 873638, Pitch_bend_c, 1, 8192
3, 873651, Pitch_bend_c, 1, 8192
3, 873670, Pitch_bend_c, 1, 8320
3, 873689, Pitch_bend_c, 1, 8320
3, 873708, Pitch_bend_c, 1, 8320
3, 873728, Pitch_bend_c, 1, 8320
3, 873740, Pitch_bend_c, 1, 8320
3, 873760, Pitch_bend_c, 1, 8320
3, 873779, Pitch_bend_c, 1, 8320
3, 873798, Pitch_bend_c, 1, 8320
3, 873817, Pitch_bend_c, 1, 8320
3, 873836, Pitch_bend_c, 1, 8192
3, 873849, Pitch_bend_c, 1, 8192
3, 873868, Pitch_bend_c, 1, 8192
3, 873888, Pitch_bend_c, 1, 8192
3, 873907, Pitch_bend_c, 1, 8192
3, 873926, Pitch_bend_c, 1, 8192
3, 873939, Pitch_bend_c, 1, 8192
3, 873958, Pitch_bend_c, 1, 8064
3, 873977, Pitch_bend_c, 1, 8064
3, 873996, Pitch_bend_c, 1, 8064
3, 874016, Pitch_bend_c, 1, 8064
3, 874035, Pitch_bend_c, 1, 8064
3, 874048, Pitch_bend_c, 1, 8064
3, 874067, Pitch_bend_c, 1, 8064
3, 874086, Pitch_bend_c, 1, 8064
3, 874105, Pitch_bend_c, 1, 8064
3, 874124, Pitch_bend_c, 1, 8192
3, 874137, Pitch_bend_c, 1, 8192
3, 874156, Pitch_bend_c, 1, 8192
3, 874176, Pitch_bend_c, 1, 8192
3, 874195, Pitch_bend_c, 1, 8192
3, 874214, Pitch_bend_c, 1, 8320
3, 874227, Pitch_bend_c, 1, 8320
3, 874246, Pitch_bend_c, 1, 8448
3, 874265, Pitch_bend_c, 1, 8448
3, 874284, Pitch_bend_c, 1, 8448
3, 874304, Pitch_bend_c, 1, 8448
3, 874316, Pitch_bend_c, 1, 8448
3, 874336, Pitch_bend_c, 1, 8448
3, 874355, Pitch_bend_c, 1, 8448
3, 874374, Pitch_bend_c, 1, 8448
3, 874393, Pitch_bend_c, 1, 8448
3, 874412, Pitch_bend_c, 1, 8320
3, 874425, Pitch_bend_c, 1, 8320
3, 874444, Pitch_bend_c, 1, 8192
3, 874464, Pitch_bend_c, 1, 8192
3, 874483, Pitch_bend_c, 1, 8192
3, 874502, Pitch_bend_c, 1, 8064
3, 874515, Pitch_bend_c, 1, 8064
3, 874534, Pitch_bend_c, 1, 7936
3, 874553, Pitch_bend_c, 1, 7936
3, 874572, Pitch_bend_c, 1, 7936
3, 874592, Pitch_bend_c, 1, 7936
3, 874611, Pitch_bend_c, 1, 7936
3, 874624, Pitch_bend_c, 1, 7936
3, 874643, Pitch_bend_c, 1, 7936
3, 874662, Pitch_bend_c, 1, 7936
3, 874681, Pitch_bend_c, 1, 7936
3, 874700, Pitch_bend_c, 1, 8064
3, 874713, Pitch_bend_c, 1, 8064
3, 874732, Pitch_bend_c, 1, 8192
3, 874752, Pitch_bend_c, 1, 8192
3, 874771, Pitch_bend_c, 1, 8192
3, 874790, Pitch_bend_c, 1, 8320
3, 874803, Pitch_bend_c, 1, 8320
3, 874822, Pitch_bend_c, 1, 8320
3, 874841, Pitch_bend_c, 1, 8448
3, 874860, Pitch_bend_c, 1, 8448
3, 874880, Pitch_bend_c, 1, 8448
3, 874892, Pitch_bend_c, 1, 8448
3, 874912, Pitch_bend_c, 1, 8448
3, 874931, Pitch_bend_c, 1, 8448
3, 874950, Pitch_bend_c, 1, 8448
3, 874969, Pitch_bend_c, 1, 8320
3, 874988, Pitch_bend_c, 1, 8320
3, 875001, Pitch_bend_c, 1, 8320
3, 875020, Pitch_bend_c, 1, 8192
3, 875040, Pitch_bend_c, 1, 8192
3, 875059, Pitch_bend_c, 1, 8192
3, 875078, Pitch_bend_c, 1, 8064
3, 875091, Pitch_bend_c, 1, 8064
3, 875110, Pitch_bend_c, 1, 8064
3, 875129, Pitch_bend_c, 1, 7936
3, 875148, Pitch_bend_c, 1, 7936
3, 875168, Pitch_bend_c, 1, 7936
3, 875187, Pitch_bend_c, 1, 7936
3, 875200, Pitch_bend_c, 1, 7936
3, 875219, Pitch_bend_c, 1, 7936
3, 875238, Pitch_bend_c, 1, 7936
3, 875257, Pitch_bend_c, 1, 8064
3, 875276, Pitch_bend_c, 1, 8064
3, 875289, Pitch_bend_c, 1, 8064
3, 875308, Pitch_bend_c, 1, 8192
3, 875328, Pitch_bend_c, 1, 8192
3, 875347, Pitch_bend_c, 1, 8192
3, 875366, Pitch_bend_c, 1, 8320
3, 875379, Pitch_bend_c, 1, 8320
3, 875398, Pitch_bend_c, 1, 8320
3, 875417, Pitch_bend_c, 1, 8320
3, 875436, Pitch_bend_c, 1, 8320
3, 875456, Pitch_bend_c, 1, 8320
3, 875468, Pitch_bend_c, 1, 8320
3, 875488, Pitch_bend_c, 1, 8320
3, 875507, Pitch_bend_c, 1, 8320
3, 875526, Pitch_bend_c, 1, 8320
3, 875545, Pitch_bend_c, 1, 8320
3, 875564, Pitch_bend_c, 1, 8320
3, 875577, Pitch_bend_c, 1, 8320
3, 875596, Pitch_bend_c, 1, 8192
3, 875616, Pitch_bend_c, 1, 8192
3, 875635, Pitch_bend_c, 1, 8192
3, 875654, Pitch_bend_c, 1, 8064
3, 875667, Pitch_bend_c, 1, 8064
3, 875686, Pitch_bend_c, 1, 8064
3, 875705, Pitch_bend_c, 1, 8064
3, 875724, Pitch_bend_c, 1, 8064
3, 875744, Pitch_bend_c, 1, 8064
3, 875763, Pitch_bend_c, 1, 8064
3, 875776, Pitch_bend_c, 1, 8064
3, 875795, Pitch_bend_c, 1, 8064
3, 875814, Pitch_bend_c, 1, 8064
3, 875833, Pitch_bend_c, 1, 8064
3, 875852, Pitch_bend_c, 1, 8064
3, 875865, Pitch_bend_c, 1, 8064
3, 875884, Pitch_bend_c, 1, 8192
3, 875904, Pitch_bend_c, 1, 8192
3, 875923, Pitch_bend_c, 1, 8192
3, 875942, Pitch_bend_c, 1, 8320
3, 875955, Pitch_bend_c, 1, 8320
3, 875974, Pitch_bend_c, 1, 8320
3, 875993, Pitch_bend_c, 1, 8448
3, 876012, Pitch_bend_c, 1, 8448
3, 876032, Pitch_bend_c, 1, 8448
3, 876044, Pitch_bend_c, 1, 8448
3, 876064, Pitch_bend_c, 1, 8448
3, 876083, Pitch_bend_c, 1, 8448
3, 876102, Pitch_bend_c, 1, 8448
3, 876121, Pitch_bend_c, 1, 8320
3, 876140, Pitch_bend_c, 1, 8320
3, 876153, Pitch_bend_c, 1, 8320
3, 876172, Pitch_bend_c, 1, 8192
3, 876192, Pitch_bend_c, 1, 8192
3, 876211, Pitch_bend_c, 1, 8192
3, 876230, Pitch_bend_c, 1, 8064
3, 876243, Pitch_bend_c, 1, 8064
3, 876262, Pitch_bend_c, 1, 8064
3, 876281, Pitch_bend_c, 1, 7936
3, 876300, Pitch_bend_c, 1, 7936
3, 876320, Pitch_bend_c, 1, 7936
3, 876339, Pitch_bend_c, 1, 7936
3, 876352, Pitch_bend_c, 1, 7936
3, 876371, Pitch_bend_c, 1, 7936
3, 876390, Pitch_bend_c, 1, 7936
3, 876409, Pitch_bend_c, 1, 8064
3, 876428, Pitch_bend_c, 1, 8064
3, 876441, Pitch_bend_c, 1, 8064
3, 876460, Pitch_bend_c, 1, 8192
3, 876480, Pitch_bend_c, 1, 8192
3, 876499, Pitch_bend_c, 1, 8320
3, 876518, Pitch_bend_c, 1, 8320
3, 876531, Pitch_bend_c, 1, 8320
3, 876550, Pitch_bend_c, 1, 8448
3, 876569, Pitch_bend_c, 1, 8448
3, 876588, Pitch_bend_c, 1, 8448
3, 876608, Pitch_bend_c, 1, 8448
3, 876620, Pitch_bend_c, 1, 8448
3, 876640, Pitch_bend_c, 1, 8448
3, 876659, Pitch_bend_c, 1, 8448
3, 876678, Pitch_bend_c, 1, 8448
3, 876697, Pitch_bend_c, 1, 8448
3, 876716, Pitch_bend_c, 1, 8320
3, 876729, Pitch_bend_c, 1, 8320
3, 876748, Pitch_bend_c, 1, 8320
3, 876768, Pitch_bend_c, 1, 8192
3, 876787, Pitch_bend_c, 1, 8064
3, 876806, Pitch_bend_c, 1, 8064
3, 876819, Pitch_bend_c, 1, 8064
3, 876838, Pitch_bend_c, 1, 7936
3, 876857, Pitch_bend_c, 1, 7936
3, 876876, Pitch_bend_c, 1, 7936
3, 876896, Pitch_bend_c, 1, 7936
3, 876915, Pitch_bend_c, 1, 7936
3, 876928, Pitch_bend_c, 1, 7936
3, 876947, Pitch_bend_c, 1, 7936
3, 876966, Pitch_bend_c, 1, 7936
3, 876985, Pitch_bend_c, 1, 7936
3, 877004, Pitch_bend_c, 1, 8064
3, 877017, Pitch_bend_c, 1, 8064
3, 877036, Pitch_bend_c, 1, 8064
3, 877056, Pitch_bend_c, 1, 8192
3, 877075, Pitch_bend_c, 1, 8192
3, 877094, Pitch_bend_c, 1, 8320
3, 877107, Pitch_bend_c, 1, 8320
3, 877126, Pitch_bend_c, 1, 8320
3, 877145, Pitch_bend_c, 1, 8448
3, 877164, Pitch_bend_c, 1, 8448
3, 877184, Pitch_bend_c, 1, 8448
3, 877196, Pitch_bend_c, 1, 8448
3, 877216, Pitch_bend_c, 1, 8448
3, 877235, Pitch_bend_c, 1, 8448
3, 877254, Pitch_bend_c, 1, 8448
3, 877273, Pitch_bend_c, 1, 8320
3, 877292, Pitch_bend_c, 1, 8320
3, 877305, Pitch_bend_c, 1, 8320
3, 877324, Pitch_bend_c, 1, 8192
3, 877344, Pitch_bend_c, 1, 8192
3, 877363, Pitch_bend_c, 1, 8192
3, 877382, Pitch_bend_c, 1, 8064
3, 877395, Pitch_bend_c, 1, 8064
3, 877414, Pitch_bend_c, 1, 8064
3, 877433, Pitch_bend_c, 1, 7936
3, 877452, Pitch_bend_c, 1, 7936
3, 877472, Pitch_bend_c, 1, 7936
3, 877491, Pitch_bend_c, 1, 7936
3, 877504, Pitch_bend_c, 1, 7936
3, 877523, Pitch_bend_c, 1, 7936
3, 877542, Pitch_bend_c, 1, 7936
3, 877561, Pitch_bend_c, 1, 8064
3, 877580, Pitch_bend_c, 1, 8064
3, 877593, Pitch_bend_c, 1, 8064
3, 877612, Pitch_bend_c, 1, 8192
3, 877632, Pitch_bend_c, 1, 8192
3, 877651, Pitch_bend_c, 1, 8192
3, 877670, Pitch_bend_c, 1, 8320
3, 877683, Pitch_bend_c, 1, 8320
3, 877702, Pitch_bend_c, 1, 8320
3, 877721, Pitch_bend_c, 1, 8448
3, 877740, Pitch_bend_c, 1, 8448
3, 877760, Pitch_bend_c, 1, 8448
3, 877772, Pitch_bend_c, 1, 8448
3, 877792, Pitch_bend_c, 1, 8448
3, 877811, Pitch_bend_c, 1, 8448
3, 877830, Pitch_bend_c, 1, 8448
3, 877849, Pitch_bend_c, 1, 8320
3, 877868, Pitch_bend_c, 1, 8320
3, 877881, Pitch_bend_c, 1, 8320
3, 877900, Pitch_bend_c, 1, 8192
3, 877920, Pitch_bend_c, 1, 8192
3, 877939, Pitch_bend_c, 1, 8192
3, 877958, Pitch_bend_c, 1, 8064
3, 877971, Pitch_bend_c, 1, 8064
3, 877990, Pitch_bend_c, 1, 8064
3, 878009, Pitch_bend_c, 1, 7936
3, 878028, Pitch_bend_c, 1, 7936
3, 878048, Pitch_bend_c, 1, 7936
3, 878067, Pitch_bend_c, 1, 7936
3, 878080, Pitch_bend_c, 1, 7936
3, 878099, Pitch_bend_c, 1, 7936
3, 878118, Pitch_bend_c, 1, 7936
3, 878137, Pitch_bend_c, 1, 8064
3, 878156, Pitch_bend_c, 1, 8064
3, 878169, Pitch_bend_c, 1, 8064
3, 878188, Pitch_bend_c, 1, 8192
3, 878208, Pitch_bend_c, 1, 8192
3, 878227, Pitch_bend_c, 1, 8320
3, 878246, Pitch_bend_c, 1, 8320
3, 878259, Pitch_bend_c, 1, 8320
3, 878278, Pitch_bend_c, 1, 8448
3, 878297, Pitch_bend_c, 1, 8448
3, 878316, Pitch_bend_c, 1, 8448
3, 878336, Pitch_bend_c, 1, 8448
3, 878348, Pitch_bend_c, 1, 8448
3, 878368, Pitch_bend_c, 1, 8448
3, 878387, Pitch_bend_c, 1, 8448
3, 878406, Pitch_bend_c, 1, 8448
3, 878425, Pitch_bend_c, 1, 8448
3, 878444, Pitch_bend_c, 1, 8320
3, 878457, Pitch_bend_c, 1, 8320
3, 878476, Pitch_bend_c, 1, 8320
3, 878496, Pitch_bend_c, 1, 8192
3, 878515, Pitch_bend_c, 1, 8064
3, 878534, Pitch_bend_c, 1, 8064
3, 878547, Pitch_bend_c, 1, 8064
3, 878566, Pitch_bend_c, 1, 7936
3, 878585, Pitch_bend_c, 1, 7936
3, 878604, Pitch_bend_c, 1, 7936
3, 878624, Pitch_bend_c, 1, 7936
3, 878643, Pitch_bend_c, 1, 7936
3, 878656, Pitch_bend_c, 1, 7936
3, 878675, Pitch_bend_c, 1, 7936
3, 878694, Pitch_bend_c, 1, 7936
3, 878713, Pitch_bend_c, 1, 7936
3, 878732, Pitch_bend_c, 1, 8064
3, 878745, Pitch_bend_c, 1, 8064
3, 878764, Pitch_bend_c, 1, 8064
3, 878784, Pitch_bend_c, 1, 8192
3, 878803, Pitch_bend_c, 1, 8192
3, 878822, Pitch_bend_c, 1, 8320
3, 878835, Pitch_bend_c, 1, 8320
3, 878854, Pitch_bend_c, 1, 8320
3, 878873, Pitch_bend_c, 1, 8320
3, 878892, Pitch_bend_c, 1, 8448
3, 878912, Pitch_bend_c, 1, 8448
3, 878924, Pitch_bend_c, 1, 8448
3, 878944, Pitch_bend_c, 1, 8448
3, 878963, Pitch_bend_c, 1, 8448
3, 878982, Pitch_bend_c, 1, 8320
3, 879001, Pitch_bend_c, 1, 8320
3, 879020, Pitch_bend_c, 1, 8320
3, 879033, Pitch_bend_c, 1, 8320
3, 879052, Pitch_bend_c, 1, 8192
3, 879072, Pitch_bend_c, 1, 8192
3, 879091, Pitch_bend_c, 1, 8192
3, 879110, Pitch_bend_c, 1, 8064
3, 879123, Pitch_bend_c, 1, 8064
3, 879142, Pitch_bend_c, 1, 8064
3, 879161, Pitch_bend_c, 1, 8064
3, 879180, Pitch_bend_c, 1, 7936
3, 879200, Pitch_bend_c, 1, 7936
3, 879219, Pitch_bend_c, 1, 7936
3, 879232, Pitch_bend_c, 1, 7936
3, 879251, Pitch_bend_c, 1, 7936
3, 879270, Pitch_bend_c, 1, 8064
3, 879289, Pitch_bend_c, 1, 8064
3, 879308, Pitch_bend_c, 1, 8064
3, 879321, Pitch_bend_c, 1, 8064
3, 879340, Pitch_bend_c, 1, 8192
3, 879360, Pitch_bend_c, 1, 8192
3, 879379, Pitch_bend_c, 1, 8192
3, 879398, Pitch_bend_c, 1, 8320
3, 879411, Pitch_bend_c, 1, 8320
3, 879430, Pitch_bend_c, 1, 8320
3, 879449, Pitch_bend_c, 1, 8320
3, 879468, Pitch_bend_c, 1, 8448
3, 879488, Pitch_bend_c, 1, 8448
3, 879500, Pitch_bend_c, 1, 8448
3, 879520, Pitch_bend_c, 1, 8448
3, 879539, Pitch_bend_c, 1, 8448
3, 879558, Pitch_bend_c, 1, 8320
3, 879577, Pitch_bend_c, 1, 8320
3, 879596, Pitch_bend_c, 1, 8320
3, 879609, Pitch_bend_c, 1, 8320
3, 879628, Pitch_bend_c, 1, 8192
3, 879648, Pitch_bend_c, 1, 8192
3, 879667, Pitch_bend_c, 1, 8192
3, 879686, Pitch_bend_c, 1, 8064
3, 879699, Pitch_bend_c, 1, 8064
3, 879718, Pitch_bend_c, 1, 8064
3, 879737, Pitch_bend_c, 1, 8064
3, 879756, Pitch_bend_c, 1, 7936
3, 879776, Pitch_bend_c, 1, 7936
3, 879795, Pitch_bend_c, 1, 7936
3, 879808, Pitch_bend_c, 1, 7936
3, 879827, Pitch_bend_c, 1, 7936
3, 879846, Pitch_bend_c, 1, 8064
3, 879865, Pitch_bend_c, 1, 8064
3, 879884, Pitch_bend_c, 1, 8064
3, 879897, Pitch_bend_c, 1, 8064
3, 879916, Pitch_bend_c, 1, 8192
3, 879936, Pitch_bend_c, 1, 8192
3, 879955, Pitch_bend_c, 1, 8192
3, 879974, Pitch_bend_c, 1, 8320
3, 879987, Pitch_bend_c, 1, 8320
3, 880006, Pitch_bend_c, 1, 8320
3, 880025, Pitch_bend_c, 1, 8320
3, 880044, Pitch_bend_c, 1, 8448
3, 880064, Pitch_bend_c, 1, 8448
3, 880076, Pitch_bend_c, 1, 8448
3, 880096, Pitch_bend_c, 1, 8448
3, 880115, Pitch_bend_c, 1, 8448
3, 880134, Pitch_bend_c, 1, 8320
3, 880153, Pitch_bend_c, 1, 8320
3, 880172, Pitch_bend_c, 1, 8320
3, 880185, Pitch_bend_c, 1, 8320
3, 880204, Pitch_bend_c, 1, 8192
3, 880224, Pitch_bend_c, 1, 8192
3, 880243, Pitch_bend_c, 1, 8192
3, 880262, Pitch_bend_c, 1, 8064
3, 880275, Pitch_bend_c, 1, 8064
3, 880294, Pitch_bend_c, 1, 8064
3, 880313, Pitch_bend_c, 1, 8064
3, 880332, Pitch_bend_c, 1, 7936
3, 880352, Pitch_bend_c, 1, 7936
3, 880371, Pitch_bend_c, 1, 7936
3, 880384, Pitch_bend_c, 1, 7936
3, 880403, Pitch_bend_c, 1, 7936
3, 880422, Pitch_bend_c, 1, 8064
3, 880441, Pitch_bend_c, 1, 8064
3, 880460, Pitch_bend_c, 1, 8064
3, 880473, Pitch_bend_c, 1, 8064
3, 880492, Pitch_bend_c, 1, 8192
3, 880512, Pitch_bend_c, 1, 8192
3, 880531, Pitch_bend_c, 1, 8320
3, 880550, Pitch_bend_c, 1, 8320
3, 880563, Pitch_bend_c, 1, 8320
3, 880582, Pitch_bend_c, 1, 8448
3, 880601, Pitch_bend_c, 1, 8448
3, 880620, Pitch_bend_c, 1, 8448
3, 880640, Pitch_bend_c, 1, 8448
3, 880652, Pitch_bend_c, 1, 8448
3, 880672, Pitch_bend_c, 1, 8448
3, 880691, Pitch_bend_c, 1, 8448
3, 880710, Pitch_bend_c, 1, 8448
3, 880729, Pitch_bend_c, 1, 8448
3, 880748, Pitch_bend_c, 1, 8320
3, 880761, Pitch_bend_c, 1, 8320
3, 880780, Pitch_bend_c, 1, 8320
3, 880800, Pitch_bend_c, 1, 8192
3, 880819, Pitch_bend_c, 1, 8064
3, 880838, Pitch_bend_c, 1, 8064
3, 880851, Pitch_bend_c, 1, 8064
3, 880870, Pitch_bend_c, 1, 7936
3, 880889, Pitch_bend_c, 1, 7936
3, 880908, Pitch_bend_c, 1, 7936
3, 880928, Pitch_bend_c, 1, 7936
3, 880947, Pitch_bend_c, 1, 7936
3, 880960, Pitch_bend_c, 1, 7936
3, 880979, Pitch_bend_c, 1, 7936
3, 880998, Pitch_bend_c, 1, 7936
3, 881017, Pitch_bend_c, 1, 7936
3, 881036, Pitch_bend_c, 1, 8064
3, 881049, Pitch_bend_c, 1, 8064
3, 881068, Pitch_bend_c, 1, 8064
3, 881088, Pitch_bend_c, 1, 8192
3, 881107, Pitch_bend_c, 1, 8192
3, 881126, Pitch_bend_c, 1, 8320
3, 881139, Pitch_bend_c, 1, 8320
3, 881158, Pitch_bend_c, 1, 8320
3, 881177, Pitch_bend_c, 1, 8320
3, 881196, Pitch_bend_c, 1, 8448
3, 881216, Pitch_bend_c, 1, 8448
3, 881228, Pitch_bend_c, 1, 8448
3, 881248, Pitch_bend_c, 1, 8448
3, 881267, Pitch_bend_c, 1, 8448
3, 881286, Pitch_bend_c, 1, 8320
3, 881305, Pitch_bend_c, 1, 8320
3, 881324, Pitch_bend_c, 1, 8320
3, 881337, Pitch_bend_c, 1, 8320
3, 881356, Pitch_bend_c, 1, 8192
3, 881376, Pitch_bend_c, 1, 8192
3, 881395, Pitch_bend_c, 1, 8192
3, 881414, Pitch_bend_c, 1, 8064
3, 881427, Pitch_bend_c, 1, 8064
3, 881446, Pitch_bend_c, 1, 8064
3, 881465, Pitch_bend_c, 1, 8064
3, 881484, Pitch_bend_c, 1, 7936
3, 881504, Pitch_bend_c, 1, 7936
3, 881523, Pitch_bend_c, 1, 7936
3, 881536, Pitch_bend_c, 1, 7936
3, 881555, Pitch_bend_c, 1, 7936
3, 881574, Pitch_bend_c, 1, 8064
3, 881593, Pitch_bend_c, 1, 8064
3, 881612, Pitch_bend_c, 1, 8064
3, 881625, Pitch_bend_c, 1, 8064
3, 881644, Pitch_bend_c, 1, 8192
3, 881664, Pitch_bend_c, 1, 8192
3, 881683, Pitch_bend_c, 1, 8192
3, 881702, Pitch_bend_c, 1, 8320
3, 881715, Pitch_bend_c, 1, 8320
3, 881734, Pitch_bend_c, 1, 8320
3, 881753, Pitch_bend_c, 1, 8320
3, 881772, Pitch_bend_c, 1, 8448
3, 881792, Pitch_bend_c, 1, 8448
3, 881804, Pitch_bend_c, 1, 8448
3, 881824, Pitch_bend_c, 1, 8448
3, 881843, Pitch_bend_c, 1, 8448
3, 881862, Pitch_bend_c, 1, 8320
3, 881881, Pitch_bend_c, 1, 8320
3, 881900, Pitch_bend_c, 1, 8320
3, 881913, Pitch_bend_c, 1, 8320
3, 881932, Pitch_bend_c, 1, 8192
3, 881952, Pitch_bend_c, 1, 8192
3, 881971, Pitch_bend_c, 1, 8192
3, 881990, Pitch_bend_c, 1, 8064
3, 882003, Pitch_bend_c, 1, 8064
3, 882022, Pitch_bend_c, 1, 8064
3, 882041, Pitch_bend_c, 1, 8064
3, 882060, Pitch_bend_c, 1, 7936
3, 882080, Pitch_bend_c, 1, 7936
3, 882099, Pitch_bend_c, 1, 7936
3, 882112, Pitch_bend_c, 1, 7936
3, 882131, Pitch_bend_c, 1, 7936
3, 882150, Pitch_bend_c, 1, 8064
3, 882169, Pitch_bend_c, 1, 8064
3, 882188, Pitch_bend_c, 1, 8064
3, 882201, Pitch_bend_c, 1, 8064
3, 882220, Pitch_bend_c, 1, 8192
3, 882240, Pitch_bend_c, 1, 8192
3, 882259, Pitch_bend_c, 1, 8192
3, 882278, Pitch_bend_c, 1, 8320
3, 882291, Pitch_bend_c, 1, 8320
3, 882310, Pitch_bend_c, 1, 8320
3, 882329, Pitch_bend_c, 1, 8448
3, 882348, Pitch_bend_c, 1, 8448
3, 882368, Pitch_bend_c, 1, 8448
3, 882380, Pitch_bend_c, 1, 8448
3, 882400, Pitch_bend_c, 1, 8448
3, 882419, Pitch_bend_c, 1, 8448
3, 882438, Pitch_bend_c, 1, 8448
3, 882457, Pitch_bend_c, 1, 8320
3, 882476, Pitch_bend_c, 1, 8320
3, 882489, Pitch_bend_c, 1, 8320
3, 882508, Pitch_bend_c, 1, 8192
3, 882528, Pitch_bend_c, 1, 8192
3, 882547, Pitch_bend_c, 1, 8192
3, 882566, Pitch_bend_c, 1, 8064
3, 882579, Pitch_bend_c, 1, 8064
3, 882598, Pitch_bend_c, 1, 8064
3, 882617, Pitch_bend_c, 1, 7936
3, 882636, Pitch_bend_c, 1, 7936
3, 882656, Pitch_bend_c, 1, 7936
3, 882675, Pitch_bend_c, 1, 7936
3, 882688, Pitch_bend_c, 1, 7936
3, 882707, Pitch_bend_c, 1, 7936
3, 882726, Pitch_bend_c, 1, 7936
3, 882745, Pitch_bend_c, 1, 8064
3, 882764, Pitch_bend_c, 1, 8064
3, 882777, Pitch_bend_c, 1, 8064
3, 882796, Pitch_bend_c, 1, 8192
3, 882816, Pitch_bend_c, 1, 8192
3, 882835, Pitch_bend_c, 1, 8192
3, 882854, Pitch_bend_c, 1, 8320
3, 882867, Pitch_bend_c, 1, 8320
3, 882886, Pitch_bend_c, 1, 8320
3, 882905, Pitch_bend_c, 1, 8320
3, 882924, Pitch_bend_c, 1, 8320
3, 882944, Pitch_bend_c, 1, 8320
3, 882956, Pitch_bend_c, 1, 8320
3, 882976, Pitch_bend_c, 1, 8320
3, 882995, Pitch_bend_c, 1, 8320
3, 883014, Pitch_bend_c, 1, 8320
3, 883033, Pitch_bend_c, 1, 8320
3, 883052, Pitch_bend_c, 1, 8320
3, 883065, Pitch_bend_c, 1, 8320
3, 883084, Pitch_bend_c, 1, 8192
3, 883104, Pitch_bend_c, 1, 8192
3, 883123, Pitch_bend_c, 1, 8192
3, 883142, Pitch_bend_c, 1, 8064
3, 883155, Pitch_bend_c, 1, 8064
3, 883174, Pitch_bend_c, 1, 8064
3, 883193, Pitch_bend_c, 1, 8064
3, 883212, Pitch_bend_c, 1, 8064
3, 883232, Pitch_bend_c, 1, 8064
3, 883251, Pitch_bend_c, 1, 8064
3, 883264, Pitch_bend_c, 1, 8064
3, 883283, Pitch_bend_c, 1, 8064
3, 883302, Pitch_bend_c, 1, 8064
3, 883321, Pitch_bend_c, 1, 8064
3, 883340, Pitch_bend_c, 1, 8064
3, 883353, Pitch_bend_c, 1, 8064
3, 883372, Pitch_bend_c, 1, 8192
3, 883392, Pitch_bend_c, 1, 8192
3, 883411, Pitch_bend_c, 1, 8192
3, 883430, Pitch_bend_c, 1, 8320
3, 883443, Pitch_bend_c, 1, 8320
3, 883462, Pitch_bend_c, 1, 8320
3, 883481, Pitch_bend_c, 1, 8320
3, 883500, Pitch_bend_c, 1, 8320
3, 883520, Pitch_bend_c, 1, 8320
3, 883532, Pitch_bend_c, 1, 8320
3, 883552, Pitch_bend_c, 1, 8320
3, 883571, Pitch_bend_c, 1, 8320
3, 883590, Pitch_bend_c, 1, 8320
3, 883609, Pitch_bend_c, 1, 8320
3, 883628, Pitch_bend_c, 1, 8320
3, 883641, Pitch_bend_c, 1, 8320
3, 883660, Pitch_bend_c, 1, 8192
3, 883680, Pitch_bend_c, 1, 8192
3, 883699, Pitch_bend_c, 1, 8192
3, 883718, Pitch_bend_c, 1, 8064
3, 883731, Pitch_bend_c, 1, 8064
3, 883750, Pitch_bend_c, 1, 8064
3, 883769, Pitch_bend_c, 1, 8064
3, 883788, Pitch_bend_c, 1, 8064
3, 883808, Pitch_bend_c, 1, 8064
3, 883827, Pitch_bend_c, 1, 8064
3, 883840, Pitch_bend_c, 1, 8064
3, 883859, Pitch_bend_c, 1, 8064
3, 883878, Pitch_bend_c, 1, 8064
3, 883897, Pitch_bend_c, 1, 8064
3, 883916, Pitch_bend_c, 1, 8064
3, 883929, Pitch_bend_c, 1, 8064
3, 883948, Pitch_bend_c, 1, 8192
3, 883968, Pitch_bend_c, 1, 8192
3, 883987, Pitch_bend_c, 1, 8192
3, 884006, Pitch_bend_c, 1, 8192
3, 884019, Pitch_bend_c, 1, 8192
3, 884038, Pitch_bend_c, 1, 8320
3, 884057, Pitch_bend_c, 1, 8320
3, 884076, Pitch_bend_c, 1, 8320
3, 884096, Pitch_bend_c, 1, 8320
3, 884108, Pitch_bend_c, 1, 8320
3, 884128, Pitch_bend_c, 1, 8320
3, 884147, Pitch_bend_c, 1, 8320
3, 884166, Pitch_bend_c, 1, 8320
3, 884185, Pitch_bend_c, 1, 8320
3, 884204, Pitch_bend_c, 1, 8192
3, 884217, Pitch_bend_c, 1, 8192
3, 884236, Pitch_bend_c, 1, 8192
3, 884256, Pitch_bend_c, 1, 8192
3, 884275, Pitch_bend_c, 1, 8192
3, 884294, Pitch_bend_c, 1, 8192
3, 884307, Pitch_bend_c, 1, 8192
3, 884326, Pitch_bend_c, 1, 8064
3, 884345, Pitch_bend_c, 1, 8064
3, 884364, Pitch_bend_c, 1, 8064
3, 884384, Pitch_bend_c, 1, 8064
3, 884403, Pitch_bend_c, 1, 8064
3, 884416, Pitch_bend_c, 1, 8064
3, 884435, Pitch_bend_c, 1, 8064
3, 884454, Pitch_bend_c, 1, 8064
3, 884473, Pitch_bend_c, 1, 8064
3, 884492, Pitch_bend_c, 1, 8192
3, 884505, Pitch_bend_c, 1, 8192
3, 884524, Pitch_bend_c, 1, 8192
3, 884544, Pitch_bend_c, 1, 8192
3, 884563, Pitch_bend_c, 1, 8192
3, 884582, Pitch_bend_c, 1, 8192
3, 884595, Pitch_bend_c, 1, 8192
3, 884614, Pitch_bend_c, 1, 8192
3, 884633, Pitch_bend_c, 1, 8192
3, 884652, Pitch_bend_c, 1, 8192
3, 884672, Pitch_bend_c, 1, 8192
3, 884684, Pitch_bend_c, 1, 8192
3, 884704, Pitch_bend_c, 1, 8192
3, 884723, Pitch_bend_c, 1, 8192
3, 884736, Note_off_c, 1, 55, 80
3, 1102848, Note_off_c, 1, 75, 0
3, 1521664, Note_off_c, 1, 48, 0
3, 1558528, Note_off_c, 1, 62, 0
3, 1561600, Note_off_c, 1, 71, 0
3, 1611776, Note_off_c, 1, 72, 0
3, 1636864, Note_off_c, 1, 77, 0
3, 1640102, Note_off_c, 1, 79, 0
3, 1644288, Note_off_c, 1, 74, 0
3, 1646208, Note_off_c, 1, 72, 0
3, 1646592, End_track
4, 0, Start_track
4, 0, Title_t, "Distorted [Left]"
4, 1536, Control_c, 2, 100, 0
4, 1536, Control_c, 2, 101, 0
4, 1536, Control_c, 2, 6, 12
4, 1536, Pitch_bend_c, 2, 8192
4, 1536, Control_c, 2, 38, 0
4, 1536, Program_c, 2, 29
4, 1536, Control_c, 2, 0, 0
4, 1536, Control_c, 2, 7, 104
4, 1536, Control_c, 2, 10, 24
4, 1536, Control_c, 2, 93, 0
4, 1536, Control_c, 2, 91, 0
4, 1536, Control_c, 2, 92, 0
4, 1536, Control_c, 2, 95, 0
4, 340224, Note_on_c, 2, 55, 79
4, 340224, Pitch_bend_c, 2, 6144
4, 340480, Pitch_bend_c, 2, 6784
4, 340736, Pitch_bend_c, 2, 7552
4, 340992, Pitch_bend_c, 2, 8192
4, 341568, Pitch_bend_c, 2, 7552
4, 341817, Pitch_bend_c, 2, 6784
4, 342060, Pitch_bend_c, 2, 6144
4, 342310, Pitch_bend_c, 2, 5504
4, 342553, Pitch_bend_c, 2, 4736
4, 342803, Pitch_bend_c, 2, 4096
4, 343046, Pitch_bend_c, 2, 3456
4, 343296, Note_off_c, 2, 55, 80
4, 343296, Pitch_bend_c, 2, 8192
4, 343296, Note_on_c, 2, 40, 79
4, 343424, Note_off_c, 2, 40, 80
4, 344064, Note_on_c, 2, 66, 79
4, 344064, Note_on_c, 2, 61, 79
4, 344064, Note_on_c, 2, 55, 79
4, 344064, Note_on_c, 2, 51, 79
4, 347136, Note_off_c, 2, 51, 80
4, 347136, Note_off_c, 2, 55, 80
4, 347136, Note_off_c, 2, 61, 80
4, 347136, Note_off_c, 2, 66, 80
4, 347136, Note_on_c, 2, 66, 79
4, 347136, Note_on_c, 2, 61, 79
4, 347136, Note_on_c, 2, 55, 79
4, 347136, Note_on_c, 2, 51, 79
4, 347264, Note_off_c, 2, 51, 80
4, 347264, Note_off_c, 2, 55, 80
4, 347264, Note_off_c, 2, 61, 80
4, 347264, Note_off_c, 2, 66, 80
4, 347904, Note_on_c, 2, 66, 79
4, 347904, Note_on_c, 2, 61, 79
4, 347904, Note_on_c, 2, 55, 79
4, 347904, Note_on_c, 2, 51, 79
4, 348032, Note_off_c, 2, 51, 80
4, 348032, Note_off_c, 2, 55, 80
4, 348032, Note_off_c, 2, 61, 80
4, 348032, Note_off_c, 2, 66, 80
4, 348672, Note_on_c, 2, 66, 79
4, 348672, Note_on_c, 2, 61, 79
4, 348672, Note_on_c, 2, 55, 79
4, 348672, Note_on_c, 2, 51, 79
4, 352512, Note_on_c, 2, 60, 79
4, 352512, Pitch_bend_c, 2, 6144
4, 352768, Pitch_bend_c, 2, 6784
4, 353024, Pitch_bend_c, 2, 7552
4, 353280, Note_off_c, 2, 51, 80
4, 353280, Note_off_c, 2, 55, 80
4, 353280, Note_off_c, 2, 61, 80
4, 353280, Note_off_c, 2, 66, 80
4, 353280, Pitch_bend_c, 2, 8192
4, 354048, Pitch_bend_c, 2, 7552
4, 354374, Pitch_bend_c, 2, 6784
4, 354707, Pitch_bend_c, 2, 6144
4, 355033, Pitch_bend_c, 2, 5504
4, 355366, Pitch_bend_c, 2, 4736
4, 355692, Pitch_bend_c, 2, 4096
4, 356025, Pitch_bend_c, 2, 3456
4, 356352, Note_off_c, 2, 60, 80
4, 356352, Pitch_bend_c, 2, 8192
4, 356352, Note_on_c, 2, 64, 79
4, 356352, Note_on_c, 2, 60, 79
4, 356352, Note_on_c, 2, 54, 79
4, 356352, Note_on_c, 2, 50, 79
4, 359424, Note_off_c, 2, 50, 80
4, 359424, Note_off_c, 2, 54, 80
4, 359424, Note_off_c, 2, 60, 80
4, 359424, Note_off_c, 2, 64, 80
4, 359424, Note_on_c, 2, 64, 79
4, 359424, Note_on_c, 2, 60, 79
4, 359424, Note_on_c, 2, 54, 79
4, 359424, Note_on_c, 2, 50, 79
4, 359552, Note_off_c, 2, 50, 80
4, 359552, Note_off_c, 2, 54, 80
4, 359552, Note_off_c, 2, 60, 80
4, 359552, Note_off_c, 2, 64, 80
4, 360192, Note_on_c, 2, 64, 79
4, 360192, Note_on_c, 2, 60, 79
4, 360192, Note_on_c, 2, 54, 79
4, 360192, Note_on_c, 2, 50, 79
4, 360320, Note_off_c, 2, 50, 80
4, 360320, Note_off_c, 2, 54, 80
4, 360320, Note_off_c, 2, 60, 80
4, 360320, Note_off_c, 2, 64, 80
4, 360960, Note_on_c, 2, 64, 79
4, 360960, Note_on_c, 2, 60, 79
4, 360960, Note_on_c, 2, 54, 79
4, 360960, Note_on_c, 2, 50, 79
4, 365568, Note_off_c, 2, 50, 80
4, 365568, Note_off_c, 2, 54, 80
4, 365568, Note_off_c, 2, 60, 80
4, 365568, Note_off_c, 2, 64, 80
4, 365568, Note_on_c, 2, 48, 79
4, 366336, Note_off_c, 2, 48, 80
4, 366336, Note_on_c, 2, 46, 79
4, 366336, Pitch_bend_c, 2, 8192
4, 366355, Pitch_bend_c, 2, 8192
4, 366374, Pitch_bend_c, 2, 8192
4, 366387, Pitch_bend_c, 2, 8192
4, 366406, Pitch_bend_c, 2, 8192
4, 366425, Pitch_bend_c, 2, 8192
4, 366444, Pitch_bend_c, 2, 8192
4, 366464, Pitch_bend_c, 2, 8192
4, 366476, Pitch_bend_c, 2, 8192
4, 366496, Pitch_bend_c, 2, 8192
4, 366515, Pitch_bend_c, 2, 8192
4, 366534, Pitch_bend_c, 2, 8192
4, 366553, Pitch_bend_c, 2, 8192
4, 366572, Pitch_bend_c, 2, 8192
4, 366585, Pitch_bend_c, 2, 8192
4, 366604, Pitch_bend_c, 2, 8192
4, 366624, Pitch_bend_c, 2, 8192
4, 366643, Pitch_bend_c, 2, 8192
4, 366662, Pitch_bend_c, 2, 8192
4, 366675, Pitch_bend_c, 2, 8192
4, 366694, Pitch_bend_c, 2, 8192
4, 366713, Pitch_bend_c, 2, 8192
4, 366732, Pitch_bend_c, 2, 8192
4, 366752, Pitch_bend_c, 2, 8192
4, 366771, Pitch_bend_c, 2, 8192
4, 366784, Pitch_bend_c, 2, 8192
4, 366803, Pitch_bend_c, 2, 8192
4, 366822, Pitch_bend_c, 2, 8192
4, 366841, Pitch_bend_c, 2, 8192
4, 366860, Pitch_bend_c, 2, 8192
4, 366873, Pitch_bend_c, 2, 8192
4, 366892, Pitch_bend_c, 2, 8192
4, 366912, Pitch_bend_c, 2, 8192
4, 366931, Pitch_bend_c, 2, 8192
4, 366950, Pitch_bend_c, 2, 8320
4, 366963, Pitch_bend_c, 2, 8320
4, 366982, Pitch_bend_c, 2, 8320
4, 367001, Pitch_bend_c, 2, 8320
4, 367020, Pitch_bend_c, 2, 8448
4, 367040, Pitch_bend_c, 2, 8448
4, 367052, Pitch_bend_c, 2, 8448
4, 367072, Pitch_bend_c, 2, 8448
4, 367091, Pitch_bend_c, 2, 8448
4, 367110, Pitch_bend_c, 2, 8320
4, 367129, Pitch_bend_c, 2, 8320
4, 367148, Pitch_bend_c, 2, 8320
4, 367161, Pitch_bend_c, 2, 8320
4, 367180, Pitch_bend_c, 2, 8192
4, 367200, Pitch_bend_c, 2, 8192
4, 367219, Pitch_bend_c, 2, 8192
4, 367238, Pitch_bend_c, 2, 8064
4, 367251, Pitch_bend_c, 2, 8064
4, 367270, Pitch_bend_c, 2, 8064
4, 367289, Pitch_bend_c, 2, 8064
4, 367308, Pitch_bend_c, 2, 7936
4, 367328, Pitch_bend_c, 2, 7936
4, 367347, Pitch_bend_c, 2, 7936
4, 367360, Pitch_bend_c, 2, 7936
4, 367379, Pitch_bend_c, 2, 7936
4, 367398, Pitch_bend_c, 2, 8064
4, 367417, Pitch_bend_c, 2, 8064
4, 367436, Pitch_bend_c, 2, 8064
4, 367449, Pitch_bend_c, 2, 8064
4, 367468, Pitch_bend_c, 2, 8192
4, 367488, Pitch_bend_c, 2, 8192
4, 367507, Pitch_bend_c, 2, 8320
4, 367526, Pitch_bend_c, 2, 8320
4, 367539, Pitch_bend_c, 2, 8320
4, 367558, Pitch_bend_c, 2, 8448
4, 367577, Pitch_bend_c, 2, 8448
4, 367596, Pitch_bend_c, 2, 8448
4, 367616, Pitch_bend_c, 2, 8448
4, 367628, Pitch_bend_c, 2, 8448
4, 367648, Pitch_bend_c, 2, 8448
4, 367667, Pitch_bend_c, 2, 8448
4, 367686, Pitch_bend_c, 2, 8448
4, 367705, Pitch_bend_c, 2, 8448
4, 367724, Pitch_bend_c, 2, 8320
4, 367737, Pitch_bend_c, 2, 8320
4, 367756, Pitch_bend_c, 2, 8320
4, 367776, Pitch_bend_c, 2, 8192
4, 367795, Pitch_bend_c, 2, 8064
4, 367814, Pitch_bend_c, 2, 8064
4, 367827, Pitch_bend_c, 2, 8064
4, 367846, Pitch_bend_c, 2, 7936
4, 367865, Pitch_bend_c, 2, 7936
4, 367884, Pitch_bend_c, 2, 7936
4, 367904, Pitch_bend_c, 2, 7936
4, 367923, Pitch_bend_c, 2, 7936
4, 367936, Pitch_bend_c, 2, 7936
4, 367955, Pitch_bend_c, 2, 7936
4, 367974, Pitch_bend_c, 2, 7936
4, 367993, Pitch_bend_c, 2, 7936
4, 368012, Pitch_bend_c, 2, 8064
4, 368025, Pitch_bend_c, 2, 8064
4, 368044, Pitch_bend_c, 2, 8064
4, 368064, Pitch_bend_c, 2, 8192
4, 368083, Pitch_bend_c, 2, 8192
4, 368102, Pitch_bend_c, 2, 8320
4, 368115, Pitch_bend_c, 2, 8320
4, 368134, Pitch_bend_c, 2, 8320
4, 368153, Pitch_bend_c, 2, 8320
4, 368172, Pitch_bend_c, 2, 8320
4, 368192, Pitch_bend_c, 2, 8320
4, 368204, Pitch_bend_c, 2, 8320
4, 368224, Pitch_bend_c, 2, 8320
4, 368243, Pitch_bend_c, 2, 8320
4, 368262, Pitch_bend_c, 2, 8320
4, 368281, Pitch_bend_c, 2, 8320
4, 368300, Pitch_bend_c, 2, 8320
4, 368313, Pitch_bend_c, 2, 8320
4, 368332, Pitch_bend_c, 2, 8192
4, 368352, Pitch_bend_c, 2, 8192
4, 368371, Pitch_bend_c, 2, 8192
4, 368390, Pitch_bend_c, 2, 8064
4, 368403, Pitch_bend_c, 2, 8064
4, 368422, Pitch_bend_c, 2, 8064
4, 368441, Pitch_bend_c, 2, 8064
4, 368460, Pitch_bend_c, 2, 8064
4, 368480, Pitch_bend_c, 2, 8064
4, 368499, Pitch_bend_c, 2, 8064
4, 368512, Pitch_bend_c, 2, 8064
4, 368531, Pitch_bend_c, 2, 8064
4, 368550, Pitch_bend_c, 2, 8064
4, 368569, Pitch_bend_c, 2, 8064
4, 368588, Pitch_bend_c, 2, 8064
4, 368601, Pitch_bend_c, 2, 8064
4, 368620, Pitch_bend_c, 2, 8192
4, 368640, Note_off_c, 2, 46, 80
4, 368640, Pitch_bend_c, 2, 8192
4, 368640, Note_on_c, 2, 67, 79
4, 368640, Note_on_c, 2, 62, 79
4, 368640, Note_on_c, 2, 55, 79
4, 368640, Note_on_c, 2, 50, 79
4, 368640, Note_on_c, 2, 43, 79
4, 373248, Note_off_c, 2, 43, 80
4, 373248, Note_off_c, 2, 50, 80
4, 373248, Note_off_c, 2, 55, 80
4, 373248, Note_off_c, 2, 62, 80
4, 373248, Note_off_c, 2, 67, 80
4, 373248, Note_on_c, 2, 67, 79
4, 373248, Note_on_c, 2, 62, 79
4, 373248, Note_on_c, 2, 55, 79
4, 373248, Note_on_c, 2, 50, 79
4, 373248, Note_on_c, 2, 43, 79
4, 380928, Note_off_c, 2, 43, 80
4, 380928, Note_off_c, 2, 50, 80
4, 380928, Note_off_c, 2, 55, 80
4, 380928, Note_off_c, 2, 62, 80
4, 380928, Note_off_c, 2, 67, 80
4, 380928, Note_on_c, 2, 60, 79
4, 380928, Note_on_c, 2, 55, 79
4, 380928, Note_on_c, 2, 48, 79
4, 384000, Note_off_c, 2, 48, 80
4, 384000, Note_off_c, 2, 55, 80
4, 384000, Note_off_c, 2, 60, 80
4, 384000, Note_on_c, 2, 48, 63
4, 384768, Note_off_c, 2, 48, 80
4, 384768, Note_on_c, 2, 48, 63
4, 385536, Note_off_c, 2, 48, 80
4, 385536, Note_on_c, 2, 60, 79
4, 385536, Note_on_c, 2, 55, 79
4, 385536, Note_on_c, 2, 48, 79
4, 390144, Note_off_c, 2, 48, 80
4, 390144, Note_off_c, 2, 55, 80
4, 390144, Note_off_c, 2, 60, 80
4, 390144, Note_on_c, 2, 48, 79
4, 390912, Note_off_c, 2, 48, 80
4, 390912, Note_on_c, 2, 46, 79
4, 390912, Pitch_bend_c, 2, 8192
4, 390931, Pitch_bend_c, 2, 8192
4, 390950, Pitch_bend_c, 2, 8192
4, 390963, Pitch_bend_c, 2, 8192
4, 390982, Pitch_bend_c, 2, 8192
4, 391001, Pitch_bend_c, 2, 8192
4, 391020, Pitch_bend_c, 2, 8192
4, 391040, Pitch_bend_c, 2, 8192
4, 391052, Pitch_bend_c, 2, 8192
4, 391072, Pitch_bend_c, 2, 8192
4, 391091, Pitch_bend_c, 2, 8192
4, 391110, Pitch_bend_c, 2, 8192
4, 391129, Pitch_bend_c, 2, 8192
4, 391148, Pitch_bend_c, 2, 8192
4, 391161, Pitch_bend_c, 2, 8192
4, 391180, Pitch_bend_c, 2, 8192
4, 391200, Pitch_bend_c, 2, 8192
4, 391219, Pitch_bend_c, 2, 8192
4, 391238, Pitch_bend_c, 2, 8192
4, 391251, Pitch_bend_c, 2, 8192
4, 391270, Pitch_bend_c, 2, 8192
4, 391289, Pitch_bend_c, 2, 8192
4, 391308, Pitch_bend_c, 2, 8192
4, 391328, Pitch_bend_c, 2, 8192
4, 391347, Pitch_bend_c, 2, 8192
4, 391360, Pitch_bend_c, 2, 8192
4, 391379, Pitch_bend_c, 2, 8192
4, 391398, Pitch_bend_c, 2, 8192
4, 391417, Pitch_bend_c, 2, 8192
4, 391436, Pitch_bend_c, 2, 8192
4, 391449, Pitch_bend_c, 2, 8192
4, 391468, Pitch_bend_c, 2, 8192
4, 391488, Pitch_bend_c, 2, 8192
4, 391507, Pitch_bend_c, 2, 8192
4, 391526, Pitch_bend_c, 2, 8320
4, 391539, Pitch_bend_c, 2, 8320
4, 391558, Pitch_bend_c, 2, 8320
4, 391577, Pitch_bend_c, 2, 8448
4, 391596, Pitch_bend_c, 2, 8448
4, 391616, Pitch_bend_c, 2, 8448
4, 391628, Pitch_bend_c, 2, 8448
4, 391648, Pitch_bend_c, 2, 8448
4, 391667, Pitch_bend_c, 2, 8448
4, 391686, Pitch_bend_c, 2, 8448
4, 391705, Pitch_bend_c, 2, 8320
4, 391724, Pitch_bend_c, 2, 8320
4, 391737, Pitch_bend_c, 2, 8320
4, 391756, Pitch_bend_c, 2, 8192
4, 391776, Pitch_bend_c, 2, 8192
4, 391795, Pitch_bend_c, 2, 8192
4, 391814, Pitch_bend_c, 2, 8064
4, 391827, Pitch_bend_c, 2, 8064
4, 391846, Pitch_bend_c, 2, 8064
4, 391865, Pitch_bend_c, 2, 7936
4, 391884, Pitch_bend_c, 2, 7936
4, 391904, Pitch_bend_c, 2, 7936
4, 391923, Pitch_bend_c, 2, 7936
4, 391936, Pitch_bend_c, 2, 7936
4, 391955, Pitch_bend_c, 2, 7936
4, 391974, Pitch_bend_c, 2, 7936
4, 391993, Pitch_bend_c, 2, 8064
4, 392012, Pitch_bend_c, 2, 8064
4, 392025, Pitch_bend_c, 2, 8064
4, 392044, Pitch_bend_c, 2, 8192
4, 392064, Pitch_bend_c, 2, 8192
4, 392083, Pitch_bend_c, 2, 8320
4, 392102, Pitch_bend_c, 2, 8320
4, 392115, Pitch_bend_c, 2, 8320
4, 392134, Pitch_bend_c, 2, 8448
4, 392153, Pitch_bend_c, 2, 8448
4, 392172, Pitch_bend_c, 2, 8448
4, 392192, Pitch_bend_c, 2, 8448
4, 392204, Pitch_bend_c, 2, 8448
4, 392224, Pitch_bend_c, 2, 8448
4, 392243, Pitch_bend_c, 2, 8448
4, 392262, Pitch_bend_c, 2, 8448
4, 392281, Pitch_bend_c, 2, 8448
4, 392300, Pitch_bend_c, 2, 8320
4, 392313, Pitch_bend_c, 2, 8320
4, 392332, Pitch_bend_c, 2, 8320
4, 392352, Pitch_bend_c, 2, 8192
4, 392371, Pitch_bend_c, 2, 8064
4, 392390, Pitch_bend_c, 2, 8064
4, 392403, Pitch_bend_c, 2, 8064
4, 392422, Pitch_bend_c, 2, 7936
4, 392441, Pitch_bend_c, 2, 7936
4, 392460, Pitch_bend_c, 2, 7936
4, 392480, Pitch_bend_c, 2, 7936
4, 392499, Pitch_bend_c, 2, 7936
4, 392512, Pitch_bend_c, 2, 7936
4, 392531, Pitch_bend_c, 2, 7936
4, 392550, Pitch_bend_c, 2, 7936
4, 392569, Pitch_bend_c, 2, 7936
4, 392588, Pitch_bend_c, 2, 8064
4, 392601, Pitch_bend_c, 2, 8064
4, 392620, Pitch_bend_c, 2, 8064
4, 392640, Pitch_bend_c, 2, 8192
4, 392659, Pitch_bend_c, 2, 8192
4, 392678, Pitch_bend_c, 2, 8320
4, 392691, Pitch_bend_c, 2, 8320
4, 392710, Pitch_bend_c, 2, 8320
4, 392729, Pitch_bend_c, 2, 8448
4, 392748, Pitch_bend_c, 2, 8448
4, 392768, Pitch_bend_c, 2, 8448
4, 392780, Pitch_bend_c, 2, 8448
4, 392800, Pitch_bend_c, 2, 8448
4, 392819, Pitch_bend_c, 2, 8448
4, 392838, Pitch_bend_c, 2, 8448
4, 392857, Pitch_bend_c, 2, 8320
4, 392876, Pitch_bend_c, 2, 8320
4, 392889, Pitch_bend_c, 2, 8320
4, 392908, Pitch_bend_c, 2, 8192
4, 392928, Pitch_bend_c, 2, 8192
4, 392947, Pitch_bend_c, 2, 8192
4, 392966, Pitch_bend_c, 2, 8064
4, 392979, Pitch_bend_c, 2, 8064
4, 392998, Pitch_bend_c, 2, 8064
4, 393017, Pitch_bend_c, 2, 7936
4, 393036, Pitch_bend_c, 2, 7936
4, 393056, Pitch_bend_c, 2, 7936
4, 393075, Pitch_bend_c, 2, 7936
4, 393088, Pitch_bend_c, 2, 7936
4, 393107, Pitch_bend_c, 2, 7936
4, 393126, Pitch_bend_c, 2, 7936
4, 393145, Pitch_bend_c, 2, 8064
4, 393164, Pitch_bend_c, 2, 8064
4, 393177, Pitch_bend_c, 2, 8064
4, 393196, Pitch_bend_c, 2, 8192
4, 393216, Note_off_c, 2, 46, 80
4, 393216, Pitch_bend_c, 2, 8192
4, 393216, Note_on_c, 2, 67, 79
4, 393216, Note_on_c, 2, 62, 79
4, 393216, Note_on_c, 2, 55, 79
4, 393216, Note_on_c, 2, 50, 79
4, 393216, Note_on_c, 2, 43, 79
4, 397056, Note_off_c, 2, 43, 80
4, 397056, Note_off_c, 2, 50, 80
4, 397056, Note_off_c, 2, 55, 80
4, 397056, Note_off_c, 2, 62, 80
4, 397056, Note_off_c, 2, 67, 80
4, 397056, Note_on_c, 2, 41, 79
4, 397056, Pitch_bend_c, 2, 8192
4, 397158, Pitch_bend_c, 2, 8448
4, 397260, Pitch_bend_c, 2, 8576
4, 397824, Note_off_c, 2, 41, 80
4, 397824, Pitch_bend_c, 2, 8192
4, 397824, Note_on_c, 2, 55, 79
4, 397824, Note_on_c, 2, 50, 79
4, 397824, Note_on_c, 2, 43, 79
4, 403200, Note_off_c, 2, 43, 80
4, 403200, Note_off_c, 2, 50, 80
4, 403200, Note_off_c, 2, 55, 80
4, 403200, Note_on_c, 2, 58, 79
4, 403200, Note_on_c, 2, 53, 79
4, 403200, Note_on_c, 2, 46, 79
4, 405504, Note_off_c, 2, 46, 80
4, 405504, Note_off_c, 2, 53, 80
4, 405504, Note_off_c, 2, 58, 80
4, 405504, Note_on_c, 2, 60, 79
4, 405504, Note_on_c, 2, 55, 79
4, 405504, Note_on_c, 2, 48, 79
4, 410880, Note_off_c, 2, 48, 80
4, 410880, Note_off_c, 2, 55, 80
4, 410880, Note_off_c, 2, 60, 80
4, 410880, Note_on_c, 2, 48, 63
4, 411648, Note_off_c, 2, 48, 80
4, 411648, Note_on_c, 2, 60, 79
4, 411648, Note_on_c, 2, 55, 79
4, 411648, Note_on_c, 2, 48, 79
4, 413184, Note_off_c, 2, 48, 80
4, 413184, Note_off_c, 2, 55, 80
4, 413184, Note_off_c, 2, 60, 80
4, 413184, Note_on_c, 2, 60, 79
4, 413184, Note_on_c, 2, 55, 79
4, 413184, Note_on_c, 2, 48, 79
4, 414720, Note_off_c, 2, 48, 80
4, 414720, Note_off_c, 2, 55, 80
4, 414720, Note_off_c, 2, 60, 80
4, 414720, Note_on_c, 2, 60, 79
4, 414720, Note_on_c, 2, 55, 79
4, 414720, Note_on_c, 2, 48, 79
4, 415488, Note_off_c, 2, 48, 80
4, 415488, Note_off_c, 2, 55, 80
4, 415488, Note_off_c, 2, 60, 80
4, 415488, Note_on_c, 2, 58, 79
4, 415488, Note_on_c, 2, 53, 79
4, 415488, Note_on_c, 2, 46, 79
4, 417792, Note_off_c, 2, 46, 80
4, 417792, Note_off_c, 2, 53, 80
4, 417792, Note_off_c, 2, 58, 80
4, 417792, Note_on_c, 2, 63, 63
4, 417792, Note_on_c, 2, 58, 63
4, 417792, Note_on_c, 2, 51, 63
4, 430080, Note_off_c, 2, 51, 80
4, 430080, Note_off_c, 2, 58, 80
4, 430080, Note_off_c, 2, 63, 80
4, 430080, Note_on_c, 2, 77, 63
4, 430080, Note_on_c, 2, 70, 63
4, 436224, Note_off_c, 2, 70, 80
4, 436224, Note_off_c, 2, 77, 80
4, 436224, Note_on_c, 2, 74, 63
4, 436224, Note_on_c, 2, 70, 63
4, 438528, Note_off_c, 2, 74, 80
4, 438528, Note_on_c, 2, 75, 63
4, 440064, Note_off_c, 2, 75, 80
4, 440064, Note_on_c, 2, 77, 63
4, 442368, Note_off_c, 2, 77, 80
4, 442368, Note_off_c, 2, 70, 80
4, 442368, Note_on_c, 2, 79, 79
4, 442368, Note_on_c, 2, 75, 79
4, 448512, Note_off_c, 2, 79, 80
4, 448512, Note_on_c, 2, 80, 79
4, 451584, Note_off_c, 2, 80, 80
4, 451584, Note_on_c, 2, 79, 79
4, 453888, Note_on_c, 2, 70, 79
4, 453888, Pitch_bend_c, 2, 10240
4, 454144, Pitch_bend_c, 2, 9600
4, 454400, Pitch_bend_c, 2, 8832
4, 454656, Note_off_c, 2, 79, 80
4, 454656, Note_off_c, 2, 75, 80
4, 454656, Note_on_c, 2, 77, 79
4, 454656, Pitch_bend_c, 2, 8192
4, 460800, Note_off_c, 2, 77, 80
4, 460800, Note_on_c, 2, 74, 79
4, 463104, Note_off_c, 2, 74, 80
4, 463104, Note_on_c, 2, 75, 79
4, 464640, Note_off_c, 2, 75, 80
4, 464640, Note_on_c, 2, 77, 79
4, 466944, Note_off_c, 2, 77, 80
4, 466944, Note_off_c, 2, 70, 80
4, 466944, Note_on_c, 2, 79, 79
4, 466944, Note_on_c, 2, 75, 79
4, 473088, Note_off_c, 2, 79, 80
4, 473088, Note_on_c, 2, 80, 79
4, 476160, Note_off_c, 2, 80, 80
4, 476160, Note_on_c, 2, 79, 79
4, 478464, Note_on_c, 2, 70, 79
4, 478464, Pitch_bend_c, 2, 10240
4, 478720, Pitch_bend_c, 2, 9600
4, 478976, Pitch_bend_c, 2, 8832
4, 479232, Note_off_c, 2, 79, 80
4, 479232, Note_off_c, 2, 75, 80
4, 479232, Note_on_c, 2, 77, 79
4, 479232, Pitch_bend_c, 2, 8192
4, 485376, Note_off_c, 2, 77, 80
4, 485376, Note_on_c, 2, 74, 79
4, 487680, Note_off_c, 2, 74, 80
4, 487680, Note_on_c, 2, 75, 79
4, 489216, Note_off_c, 2, 75, 80
4, 489216, Note_on_c, 2, 77, 79
4, 491520, Note_off_c, 2, 77, 80
4, 491520, Note_off_c, 2, 70, 80
4, 491520, Note_on_c, 2, 79, 79
4, 491520, Note_on_c, 2, 75, 79
4, 497664, Note_off_c, 2, 79, 80
4, 497664, Note_on_c, 2, 80, 79
4, 500736, Note_off_c, 2, 80, 80
4, 500736, Note_on_c, 2, 79, 79
4, 503040, Note_on_c, 2, 70, 79
4, 503040, Pitch_bend_c, 2, 10240
4, 503296, Pitch_bend_c, 2, 9600
4, 503552, Pitch_bend_c, 2, 8832
4, 503808, Note_off_c, 2, 79, 80
4, 503808, Note_off_c, 2, 75, 80
4, 503808, Note_on_c, 2, 77, 79
4, 503808, Pitch_bend_c, 2, 8192
4, 509952, Note_off_c, 2, 77, 80
4, 509952, Note_on_c, 2, 74, 79
4, 512256, Note_off_c, 2, 74, 80
4, 512256, Note_on_c, 2, 75, 79
4, 513792, Note_off_c, 2, 75, 80
4, 513792, Note_on_c, 2, 77, 79
4, 516096, Note_off_c, 2, 77, 80
4, 516096, Note_off_c, 2, 70, 80
4, 516096, Note_on_c, 2, 79, 79
4, 516096, Note_on_c, 2, 75, 79
4, 522240, Note_off_c, 2, 79, 80
4, 522240, Note_on_c, 2, 80, 79
4, 527616, Note_on_c, 2, 82, 79
4, 527616, Pitch_bend_c, 2, 6144
4, 527616, Note_on_c, 2, 77, 79
4, 527872, Pitch_bend_c, 2, 6784
4, 528128, Pitch_bend_c, 2, 7552
4, 528384, Note_off_c, 2, 80, 80
4, 528384, Note_off_c, 2, 75, 80
4, 528384, Pitch_bend_c, 2, 8192
4, 534528, Note_off_c, 2, 77, 80
4, 534528, Note_off_c, 2, 82, 80
4, 534528, Note_on_c, 2, 79, 79
4, 534528, Note_on_c, 2, 75, 79
4, 537600, Note_off_c, 2, 75, 80
4, 537600, Note_off_c, 2, 79, 80
4, 537600, Note_on_c, 2, 77, 79
4, 537600, Note_on_c, 2, 74, 79
4, 539904, Note_on_c, 2, 75, 79
4, 539904, Pitch_bend_c, 2, 10240
4, 539904, Note_on_c, 2, 72, 79
4, 540160, Pitch_bend_c, 2, 9600
4, 540416, Pitch_bend_c, 2, 8832
4, 540672, Note_off_c, 2, 74, 80
4, 540672, Note_off_c, 2, 77, 80
4, 540672, Pitch_bend_c, 2, 8192
4, 546048, Note_off_c, 2, 72, 80
4, 546048, Note_off_c, 2, 75, 80
4, 546048, Note_on_c, 2, 72, 79
4, 546048, Pitch_bend_c, 2, 10240
4, 546048, Note_on_c, 2, 69, 79
4, 546304, Pitch_bend_c, 2, 9600
4, 546560, Pitch_bend_c, 2, 8832
4, 546816, Pitch_bend_c, 2, 8192
4, 552960, Note_off_c, 2, 69, 80
4, 552960, Note_off_c, 2, 72, 80
4, 552960, Note_on_c, 2, 70, 79
4, 552960, Note_on_c, 2, 62, 79
4, 558336, Note_off_c, 2, 62, 80
4, 558336, Note_off_c, 2, 70, 80
4, 558336, Note_on_c, 2, 74, 79
4, 558336, Pitch_bend_c, 2, 6144
4, 558336, Note_on_c, 2, 66, 79
4, 558592, Pitch_bend_c, 2, 6784
4, 558848, Pitch_bend_c, 2, 7552
4, 559104, Pitch_bend_c, 2, 8192
4, 565248, Note_off_c, 2, 66, 80
4, 565248, Note_off_c, 2, 74, 80
4, 565248, Note_on_c, 2, 79, 79
4, 565248, Pitch_bend_c, 2, 8192
4, 565248, Note_on_c, 2, 70, 79
4, 565267, Pitch_bend_c, 2, 8192
4, 565286, Pitch_bend_c, 2, 8192
4, 565299, Pitch_bend_c, 2, 8192
4, 565318, Pitch_bend_c, 2, 8192
4, 565337, Pitch_bend_c, 2, 8192
4, 565356, Pitch_bend_c, 2, 8192
4, 565376, Pitch_bend_c, 2, 8192
4, 565388, Pitch_bend_c, 2, 8192
4, 565408, Pitch_bend_c, 2, 8192
4, 565427, Pitch_bend_c, 2, 8192
4, 565446, Pitch_bend_c, 2, 8192
4, 565465, Pitch_bend_c, 2, 8192
4, 565484, Pitch_bend_c, 2, 8192
4, 565497, Pitch_bend_c, 2, 8192
4, 565516, Pitch_bend_c, 2, 8192
4, 565536, Pitch_bend_c, 2, 8192
4, 565555, Pitch_bend_c, 2, 8192
4, 565574, Pitch_bend_c, 2, 8192
4, 565587, Pitch_bend_c, 2, 8192
4, 565606, Pitch_bend_c, 2, 8192
4, 565625, Pitch_bend_c, 2, 8192
4, 565644, Pitch_bend_c, 2, 8192
4, 565664, Pitch_bend_c, 2, 8192
4, 565683, Pitch_bend_c, 2, 8192
4, 565696, Pitch_bend_c, 2, 8192
4, 565715, Pitch_bend_c, 2, 8192
4, 565734, Pitch_bend_c, 2, 8192
4, 565753, Pitch_bend_c, 2, 8192
4, 565772, Pitch_bend_c, 2, 8192
4, 565785, Pitch_bend_c, 2, 8192
4, 565804, Pitch_bend_c, 2, 8192
4, 565824, Pitch_bend_c, 2, 8192
4, 565843, Pitch_bend_c, 2, 8192
4, 565862, Pitch_bend_c, 2, 8192
4, 565875, Pitch_bend_c, 2, 8192
4, 565894, Pitch_bend_c, 2, 8192
4, 565913, Pitch_bend_c, 2, 8320
4, 565932, Pitch_bend_c, 2, 8320
4, 565952, Pitch_bend_c, 2, 8320
4, 565964, Pitch_bend_c, 2, 8320
4, 565984, Pitch_bend_c, 2, 8320
4, 566003, Pitch_bend_c, 2, 8320
4, 566022, Pitch_bend_c, 2, 8320
4, 566041, Pitch_bend_c, 2, 8192
4, 566060, Pitch_bend_c, 2, 8192
4, 566073, Pitch_bend_c, 2, 8192
4, 566092, Pitch_bend_c, 2, 8192
4, 566112, Pitch_bend_c, 2, 8192
4, 566131, Pitch_bend_c, 2, 8192
4, 566150, Pitch_bend_c, 2, 8192
4, 566163, Pitch_bend_c, 2, 8192
4, 566182, Pitch_bend_c, 2, 8192
4, 566201, Pitch_bend_c, 2, 8064
4, 566220, Pitch_bend_c, 2, 8064
4, 566240, Pitch_bend_c, 2, 8064
4, 566259, Pitch_bend_c, 2, 8064
4, 566272, Pitch_bend_c, 2, 8064
4, 566291, Pitch_bend_c, 2, 8064
4, 566310, Pitch_bend_c, 2, 8064
4, 566329, Pitch_bend_c, 2, 8192
4, 566348, Pitch_bend_c, 2, 8192
4, 566361, Pitch_bend_c, 2, 8192
4, 566380, Pitch_bend_c, 2, 8192
4, 566400, Pitch_bend_c, 2, 8192
4, 566419, Pitch_bend_c, 2, 8192
4, 566438, Pitch_bend_c, 2, 8192
4, 566451, Pitch_bend_c, 2, 8192
4, 566470, Pitch_bend_c, 2, 8320
4, 566489, Pitch_bend_c, 2, 8320
4, 566508, Pitch_bend_c, 2, 8320
4, 566528, Pitch_bend_c, 2, 8320
4, 566540, Pitch_bend_c, 2, 8320
4, 566560, Pitch_bend_c, 2, 8320
4, 566579, Pitch_bend_c, 2, 8320
4, 566598, Pitch_bend_c, 2, 8320
4, 566617, Pitch_bend_c, 2, 8320
4, 566636, Pitch_bend_c, 2, 8192
4, 566649, Pitch_bend_c, 2, 8192
4, 566668, Pitch_bend_c, 2, 8192
4, 566688, Pitch_bend_c, 2, 8192
4, 566707, Pitch_bend_c, 2, 8192
4, 566726, Pitch_bend_c, 2, 8192
4, 566739, Pitch_bend_c, 2, 8192
4, 566758, Pitch_bend_c, 2, 8064
4, 566777, Pitch_bend_c, 2, 8064
4, 566796, Pitch_bend_c, 2, 8064
4, 566816, Pitch_bend_c, 2, 8064
4, 566835, Pitch_bend_c, 2, 8064
4, 566848, Pitch_bend_c, 2, 8064
4, 566867, Pitch_bend_c, 2, 8064
4, 566886, Pitch_bend_c, 2, 8064
4, 566905, Pitch_bend_c, 2, 8064
4, 566924, Pitch_bend_c, 2, 8192
4, 566937, Pitch_bend_c, 2, 8192
4, 566956, Pitch_bend_c, 2, 8192
4, 566976, Pitch_bend_c, 2, 8192
4, 566995, Pitch_bend_c, 2, 8192
4, 567014, Pitch_bend_c, 2, 8320
4, 567027, Pitch_bend_c, 2, 8320
4, 567046, Pitch_bend_c, 2, 8448
4, 567065, Pitch_bend_c, 2, 8448
4, 567084, Pitch_bend_c, 2, 8448
4, 567104, Pitch_bend_c, 2, 8448
4, 567116, Pitch_bend_c, 2, 8448
4, 567136, Pitch_bend_c, 2, 8448
4, 567155, Pitch_bend_c, 2, 8448
4, 567174, Pitch_bend_c, 2, 8448
4, 567193, Pitch_bend_c, 2, 8448
4, 567212, Pitch_bend_c, 2, 8320
4, 567225, Pitch_bend_c, 2, 8320
4, 567244, Pitch_bend_c, 2, 8192
4, 567264, Pitch_bend_c, 2, 8192
4, 567283, Pitch_bend_c, 2, 8192
4, 567302, Pitch_bend_c, 2, 8064
4, 567315, Pitch_bend_c, 2, 8064
4, 567334, Pitch_bend_c, 2, 7936
4, 567353, Pitch_bend_c, 2, 7936
4, 567372, Pitch_bend_c, 2, 7936
4, 567392, Pitch_bend_c, 2, 7936
4, 567411, Pitch_bend_c, 2, 7936
4, 567424, Pitch_bend_c, 2, 7936
4, 567443, Pitch_bend_c, 2, 7936
4, 567462, Pitch_bend_c, 2, 7936
4, 567481, Pitch_bend_c, 2, 7936
4, 567500, Pitch_bend_c, 2, 8064
4, 567513, Pitch_bend_c, 2, 8064
4, 567532, Pitch_bend_c, 2, 8192
4, 567552, Pitch_bend_c, 2, 8192
4, 567571, Pitch_bend_c, 2, 8192
4, 567590, Pitch_bend_c, 2, 8320
4, 567603, Pitch_bend_c, 2, 8320
4, 567622, Pitch_bend_c, 2, 8320
4, 567641, Pitch_bend_c, 2, 8448
4, 567660, Pitch_bend_c, 2, 8448
4, 567680, Pitch_bend_c, 2, 8448
4, 567692, Pitch_bend_c, 2, 8448
4, 567712, Pitch_bend_c, 2, 8448
4, 567731, Pitch_bend_c, 2, 8448
4, 567750, Pitch_bend_c, 2, 8448
4, 567769, Pitch_bend_c, 2, 8320
4, 567788, Pitch_bend_c, 2, 8320
4, 567801, Pitch_bend_c, 2, 8320
4, 567820, Pitch_bend_c, 2, 8192
4, 567840, Pitch_bend_c, 2, 8192
4, 567859, Pitch_bend_c, 2, 8192
4, 567878, Pitch_bend_c, 2, 8064
4, 567891, Pitch_bend_c, 2, 8064
4, 567910, Pitch_bend_c, 2, 8064
4, 567929, Pitch_bend_c, 2, 7936
4, 567948, Pitch_bend_c, 2, 7936
4, 567968, Pitch_bend_c, 2, 7936
4, 567987, Pitch_bend_c, 2, 7936
4, 568000, Pitch_bend_c, 2, 7936
4, 568019, Pitch_bend_c, 2, 7936
4, 568038, Pitch_bend_c, 2, 7936
4, 568057, Pitch_bend_c, 2, 8064
4, 568076, Pitch_bend_c, 2, 8064
4, 568089, Pitch_bend_c, 2, 8064
4, 568108, Pitch_bend_c, 2, 8192
4, 568128, Pitch_bend_c, 2, 8192
4, 568147, Pitch_bend_c, 2, 8192
4, 568166, Pitch_bend_c, 2, 8320
4, 568179, Pitch_bend_c, 2, 8320
4, 568198, Pitch_bend_c, 2, 8320
4, 568217, Pitch_bend_c, 2, 8320
4, 568236, Pitch_bend_c, 2, 8320
4, 568256, Pitch_bend_c, 2, 8448
4, 568268, Pitch_bend_c, 2, 8448
4, 568288, Pitch_bend_c, 2, 8448
4, 568307, Pitch_bend_c, 2, 8320
4, 568326, Pitch_bend_c, 2, 8320
4, 568345, Pitch_bend_c, 2, 8320
4, 568364, Pitch_bend_c, 2, 8320
4, 568377, Pitch_bend_c, 2, 8320
4, 568396, Pitch_bend_c, 2, 8192
4, 568416, Pitch_bend_c, 2, 8192
4, 568435, Pitch_bend_c, 2, 8192
4, 568454, Pitch_bend_c, 2, 8064
4, 568467, Pitch_bend_c, 2, 8064
4, 568486, Pitch_bend_c, 2, 8064
4, 568505, Pitch_bend_c, 2, 8064
4, 568524, Pitch_bend_c, 2, 8064
4, 568544, Pitch_bend_c, 2, 7936
4, 568563, Pitch_bend_c, 2, 7936
4, 568576, Pitch_bend_c, 2, 7936
4, 568595, Pitch_bend_c, 2, 8064
4, 568614, Pitch_bend_c, 2, 8064
4, 568633, Pitch_bend_c, 2, 8064
4, 568652, Pitch_bend_c, 2, 8064
4, 568665, Pitch_bend_c, 2, 8064
4, 568684, Pitch_bend_c, 2, 8192
4, 568704, Pitch_bend_c, 2, 8192
4, 568723, Pitch_bend_c, 2, 8192
4, 568742, Pitch_bend_c, 2, 8320
4, 568755, Pitch_bend_c, 2, 8320
4, 568774, Pitch_bend_c, 2, 8320
4, 568793, Pitch_bend_c, 2, 8320
4, 568812, Pitch_bend_c, 2, 8320
4, 568832, Pitch_bend_c, 2, 8320
4, 568844, Pitch_bend_c, 2, 8320
4, 568864, Pitch_bend_c, 2, 8320
4, 568883, Pitch_bend_c, 2, 8320
4, 568902, Pitch_bend_c, 2, 8320
4, 568921, Pitch_bend_c, 2, 8320
4, 568940, Pitch_bend_c, 2, 8320
4, 568953, Pitch_bend_c, 2, 8320
4, 568972, Pitch_bend_c, 2, 8192
4, 568992, Pitch_bend_c, 2, 8192
4, 569011, Pitch_bend_c, 2, 8192
4, 569030, Pitch_bend_c, 2, 8064
4, 569043, Pitch_bend_c, 2, 8064
4, 569062, Pitch_bend_c, 2, 8064
4, 569081, Pitch_bend_c, 2, 8064
4, 569100, Pitch_bend_c, 2, 8064
4, 569120, Pitch_bend_c, 2, 8064
4, 569139, Pitch_bend_c, 2, 8064
4, 569152, Pitch_bend_c, 2, 8064
4, 569171, Pitch_bend_c, 2, 8064
4, 569190, Pitch_bend_c, 2, 8064
4, 569209, Pitch_bend_c, 2, 8064
4, 569228, Pitch_bend_c, 2, 8064
4, 569241, Pitch_bend_c, 2, 8064
4, 569260, Pitch_bend_c, 2, 8192
4, 569280, Pitch_bend_c, 2, 8192
4, 569299, Pitch_bend_c, 2, 8192
4, 569318, Pitch_bend_c, 2, 8320
4, 569331, Pitch_bend_c, 2, 8320
4, 569350, Pitch_bend_c, 2, 8320
4, 569369, Pitch_bend_c, 2, 8320
4, 569388, Pitch_bend_c, 2, 8320
4, 569408, Pitch_bend_c, 2, 8320
4, 569420, Pitch_bend_c, 2, 8320
4, 569440, Pitch_bend_c, 2, 8320
4, 569459, Pitch_bend_c, 2, 8320
4, 569478, Pitch_bend_c, 2, 8320
4, 569497, Pitch_bend_c, 2, 8320
4, 569516, Pitch_bend_c, 2, 8320
4, 569529, Pitch_bend_c, 2, 8320
4, 569548, Pitch_bend_c, 2, 8192
4, 569568, Pitch_bend_c, 2, 8192
4, 569587, Pitch_bend_c, 2, 8192
4, 569606, Pitch_bend_c, 2, 8064
4, 569619, Pitch_bend_c, 2, 8064
4, 569638, Pitch_bend_c, 2, 8064
4, 569657, Pitch_bend_c, 2, 8064
4, 569676, Pitch_bend_c, 2, 8064
4, 569696, Pitch_bend_c, 2, 8064
4, 569715, Pitch_bend_c, 2, 8064
4, 569728, Pitch_bend_c, 2, 8064
4, 569747, Pitch_bend_c, 2, 8064
4, 569766, Pitch_bend_c, 2, 8064
4, 569785, Pitch_bend_c, 2, 8064
4, 569804, Pitch_bend_c, 2, 8064
4, 569817, Pitch_bend_c, 2, 8064
4, 569836, Pitch_bend_c, 2, 8192
4, 569856, Pitch_bend_c, 2, 8192
4, 569875, Pitch_bend_c, 2, 8192
4, 569894, Pitch_bend_c, 2, 8320
4, 569907, Pitch_bend_c, 2, 8320
4, 569926, Pitch_bend_c, 2, 8320
4, 569945, Pitch_bend_c, 2, 8320
4, 569964, Pitch_bend_c, 2, 8320
4, 569984, Pitch_bend_c, 2, 8448
4, 569996, Pitch_bend_c, 2, 8448
4, 570016, Pitch_bend_c, 2, 8448
4, 570035, Pitch_bend_c, 2, 8320
4, 570054, Pitch_bend_c, 2, 8320
4, 570073, Pitch_bend_c, 2, 8320
4, 570092, Pitch_bend_c, 2, 8320
4, 570105, Pitch_bend_c, 2, 8320
4, 570124, Pitch_bend_c, 2, 8192
4, 570144, Pitch_bend_c, 2, 8192
4, 570163, Pitch_bend_c, 2, 8192
4, 570182, Pitch_bend_c, 2, 8064
4, 570195, Pitch_bend_c, 2, 8064
4, 570214, Pitch_bend_c, 2, 8064
4, 570233, Pitch_bend_c, 2, 8064
4, 570252, Pitch_bend_c, 2, 8064
4, 570272, Pitch_bend_c, 2, 7936
4, 570291, Pitch_bend_c, 2, 7936
4, 570304, Pitch_bend_c, 2, 7936
4, 570323, Pitch_bend_c, 2, 8064
4, 570342, Pitch_bend_c, 2, 8064
4, 570361, Pitch_bend_c, 2, 8064
4, 570380, Pitch_bend_c, 2, 8064
4, 570393, Pitch_bend_c, 2, 8064
4, 570412, Pitch_bend_c, 2, 8192
4, 570432, Pitch_bend_c, 2, 8192
4, 570451, Pitch_bend_c, 2, 8192
4, 570470, Pitch_bend_c, 2, 8320
4, 570483, Pitch_bend_c, 2, 8320
4, 570502, Pitch_bend_c, 2, 8320
4, 570521, Pitch_bend_c, 2, 8320
4, 570540, Pitch_bend_c, 2, 8320
4, 570560, Pitch_bend_c, 2, 8448
4, 570572, Pitch_bend_c, 2, 8448
4, 570592, Pitch_bend_c, 2, 8448
4, 570611, Pitch_bend_c, 2, 8320
4, 570630, Pitch_bend_c, 2, 8320
4, 570649, Pitch_bend_c, 2, 8320
4, 570668, Pitch_bend_c, 2, 8320
4, 570681, Pitch_bend_c, 2, 8320
4, 570700, Pitch_bend_c, 2, 8192
4, 570720, Pitch_bend_c, 2, 8192
4, 570739, Pitch_bend_c, 2, 8192
4, 570758, Pitch_bend_c, 2, 8064
4, 570771, Pitch_bend_c, 2, 8064
4, 570790, Pitch_bend_c, 2, 8064
4, 570809, Pitch_bend_c, 2, 8064
4, 570828, Pitch_bend_c, 2, 8064
4, 570848, Pitch_bend_c, 2, 7936
4, 570867, Pitch_bend_c, 2, 7936
4, 570880, Pitch_bend_c, 2, 7936
4, 570899, Pitch_bend_c, 2, 8064
4, 570918, Pitch_bend_c, 2, 8064
4, 570937, Pitch_bend_c, 2, 8064
4, 570956, Pitch_bend_c, 2, 8064
4, 570969, Pitch_bend_c, 2, 8064
4, 570988, Pitch_bend_c, 2, 8192
4, 571008, Pitch_bend_c, 2, 8192
4, 571027, Pitch_bend_c, 2, 8192
4, 571046, Pitch_bend_c, 2, 8320
4, 571059, Pitch_bend_c, 2, 8320
4, 571078, Pitch_bend_c, 2, 8448
4, 571097, Pitch_bend_c, 2, 8448
4, 571116, Pitch_bend_c, 2, 8448
4, 571136, Pitch_bend_c, 2, 8448
4, 571148, Pitch_bend_c, 2, 8448
4, 571168, Pitch_bend_c, 2, 8448
4, 571187, Pitch_bend_c, 2, 8448
4, 571206, Pitch_bend_c, 2, 8448
4, 571225, Pitch_bend_c, 2, 8448
4, 571244, Pitch_bend_c, 2, 8320
4, 571257, Pitch_bend_c, 2, 8320
4, 571276, Pitch_bend_c, 2, 8192
4, 571296, Pitch_bend_c, 2, 8192
4, 571315, Pitch_bend_c, 2, 8192
4, 571334, Pitch_bend_c, 2, 8064
4, 571347, Pitch_bend_c, 2, 8064
4, 571366, Pitch_bend_c, 2, 7936
4, 571385, Pitch_bend_c, 2, 7936
4, 571404, Pitch_bend_c, 2, 7936
4, 571424, Pitch_bend_c, 2, 7936
4, 571443, Pitch_bend_c, 2, 7936
4, 571456, Pitch_bend_c, 2, 7936
4, 571475, Pitch_bend_c, 2, 7936
4, 571494, Pitch_bend_c, 2, 7936
4, 571513, Pitch_bend_c, 2, 7936
4, 571532, Pitch_bend_c, 2, 8064
4, 571545, Pitch_bend_c, 2, 8064
4, 571564, Pitch_bend_c, 2, 8192
4, 571584, Pitch_bend_c, 2, 8192
4, 571603, Pitch_bend_c, 2, 8192
4, 571622, Pitch_bend_c, 2, 8320
4, 571635, Pitch_bend_c, 2, 8320
4, 571654, Pitch_bend_c, 2, 8320
4, 571673, Pitch_bend_c, 2, 8448
4, 571692, Pitch_bend_c, 2, 8448
4, 571712, Pitch_bend_c, 2, 8448
4, 571724, Pitch_bend_c, 2, 8448
4, 571744, Pitch_bend_c, 2, 8448
4, 571763, Pitch_bend_c, 2, 8448
4, 571782, Pitch_bend_c, 2, 8448
4, 571801, Pitch_bend_c, 2, 8320
4, 571820, Pitch_bend_c, 2, 8320
4, 571833, Pitch_bend_c, 2, 8320
4, 571852, Pitch_bend_c, 2, 8192
4, 571872, Pitch_bend_c, 2, 8192
4, 571891, Pitch_bend_c, 2, 8192
4, 571910, Pitch_bend_c, 2, 8064
4, 571923, Pitch_bend_c, 2, 8064
4, 571942, Pitch_bend_c, 2, 8064
4, 571961, Pitch_bend_c, 2, 7936
4, 571980, Pitch_bend_c, 2, 7936
4, 572000, Pitch_bend_c, 2, 7936
4, 572019, Pitch_bend_c, 2, 7936
4, 572032, Pitch_bend_c, 2, 7936
4, 572051, Pitch_bend_c, 2, 7936
4, 572070, Pitch_bend_c, 2, 7936
4, 572089, Pitch_bend_c, 2, 8064
4, 572108, Pitch_bend_c, 2, 8064
4, 572121, Pitch_bend_c, 2, 8064
4, 572140, Pitch_bend_c, 2, 8192
4, 572160, Pitch_bend_c, 2, 8192
4, 572179, Pitch_bend_c, 2, 8320
4, 572198, Pitch_bend_c, 2, 8320
4, 572211, Pitch_bend_c, 2, 8320
4, 572230, Pitch_bend_c, 2, 8448
4, 572249, Pitch_bend_c, 2, 8448
4, 572268, Pitch_bend_c, 2, 8448
4, 572288, Pitch_bend_c, 2, 8448
4, 572300, Pitch_bend_c, 2, 8448
4, 572320, Pitch_bend_c, 2, 8448
4, 572339, Pitch_bend_c, 2, 8448
4, 572358, Pitch_bend_c, 2, 8448
4, 572377, Pitch_bend_c, 2, 8448
4, 572396, Pitch_bend_c, 2, 8320
4, 572409, Pitch_bend_c, 2, 8320
4, 572428, Pitch_bend_c, 2, 8320
4, 572448, Pitch_bend_c, 2, 8192
4, 572467, Pitch_bend_c, 2, 8064
4, 572486, Pitch_bend_c, 2, 8064
4, 572499, Pitch_bend_c, 2, 8064
4, 572518, Pitch_bend_c, 2, 7936
4, 572537, Pitch_bend_c, 2, 7936
4, 572556, Pitch_bend_c, 2, 7936
4, 572576, Pitch_bend_c, 2, 7936
4, 572595, Pitch_bend_c, 2, 7936
4, 572608, Pitch_bend_c, 2, 7936
4, 572627, Pitch_bend_c, 2, 7936
4, 572646, Pitch_bend_c, 2, 7936
4, 572665, Pitch_bend_c, 2, 7936
4, 572684, Pitch_bend_c, 2, 8064
4, 572697, Pitch_bend_c, 2, 8064
4, 572716, Pitch_bend_c, 2, 8064
4, 572736, Pitch_bend_c, 2, 8192
4, 572755, Pitch_bend_c, 2, 8192
4, 572774, Pitch_bend_c, 2, 8320
4, 572787, Pitch_bend_c, 2, 8320
4, 572806, Pitch_bend_c, 2, 8320
4, 572825, Pitch_bend_c, 2, 8448
4, 572844, Pitch_bend_c, 2, 8448
4, 572864, Pitch_bend_c, 2, 8448
4, 572876, Pitch_bend_c, 2, 8448
4, 572896, Pitch_bend_c, 2, 8448
4, 572915, Pitch_bend_c, 2, 8448
4, 572934, Pitch_bend_c, 2, 8448
4, 572953, Pitch_bend_c, 2, 8320
4, 572972, Pitch_bend_c, 2, 8320
4, 572985, Pitch_bend_c, 2, 8320
4, 573004, Pitch_bend_c, 2, 8192
4, 573024, Pitch_bend_c, 2, 8192
4, 573043, Pitch_bend_c, 2, 8192
4, 573062, Pitch_bend_c, 2, 8064
4, 573075, Pitch_bend_c, 2, 8064
4, 573094, Pitch_bend_c, 2, 8064
4, 573113, Pitch_bend_c, 2, 7936
4, 573132, Pitch_bend_c, 2, 7936
4, 573152, Pitch_bend_c, 2, 7936
4, 573171, Pitch_bend_c, 2, 7936
4, 573184, Pitch_bend_c, 2, 7936
4, 573203, Pitch_bend_c, 2, 7936
4, 573222, Pitch_bend_c, 2, 7936
4, 573241, Pitch_bend_c, 2, 8064
4, 573260, Pitch_bend_c, 2, 8064
4, 573273, Pitch_bend_c, 2, 8064
4, 573292, Pitch_bend_c, 2, 8192
4, 573312, Pitch_bend_c, 2, 8192
4, 573331, Pitch_bend_c, 2, 8192
4, 573350, Pitch_bend_c, 2, 8320
4, 573363, Pitch_bend_c, 2, 8320
4, 573382, Pitch_bend_c, 2, 8320
4, 573401, Pitch_bend_c, 2, 8320
4, 573420, Pitch_bend_c, 2, 8448
4, 573440, Pitch_bend_c, 2, 8448
4, 573452, Pitch_bend_c, 2, 8448
4, 573472, Pitch_bend_c, 2, 8448
4, 573491, Pitch_bend_c, 2, 8448
4, 573510, Pitch_bend_c, 2, 8320
4, 573529, Pitch_bend_c, 2, 8320
4, 573548, Pitch_bend_c, 2, 8320
4, 573561, Pitch_bend_c, 2, 8320
4, 573580, Pitch_bend_c, 2, 8192
4, 573600, Pitch_bend_c, 2, 8192
4, 573619, Pitch_bend_c, 2, 8192
4, 573638, Pitch_bend_c, 2, 8064
4, 573651, Pitch_bend_c, 2, 8064
4, 573670, Pitch_bend_c, 2, 8064
4, 573689, Pitch_bend_c, 2, 8064
4, 573708, Pitch_bend_c, 2, 7936
4, 573728, Pitch_bend_c, 2, 7936
4, 573747, Pitch_bend_c, 2, 7936
4, 573760, Pitch_bend_c, 2, 7936
4, 573779, Pitch_bend_c, 2, 7936
4, 573798, Pitch_bend_c, 2, 8064
4, 573817, Pitch_bend_c, 2, 8064
4, 573836, Pitch_bend_c, 2, 8064
4, 573849, Pitch_bend_c, 2, 8064
4, 573868, Pitch_bend_c, 2, 8192
4, 573888, Pitch_bend_c, 2, 8192
4, 573907, Pitch_bend_c, 2, 8192
4, 573926, Pitch_bend_c, 2, 8320
4, 573939, Pitch_bend_c, 2, 8320
4, 573958, Pitch_bend_c, 2, 8320
4, 573977, Pitch_bend_c, 2, 8320
4, 573996, Pitch_bend_c, 2, 8320
4, 574016, Pitch_bend_c, 2, 8448
4, 574028, Pitch_bend_c, 2, 8448
4, 574048, Pitch_bend_c, 2, 8448
4, 574067, Pitch_bend_c, 2, 8320
4, 574086, Pitch_bend_c, 2, 8320
4, 574105, Pitch_bend_c, 2, 8320
4, 574124, Pitch_bend_c, 2, 8320
4, 574137, Pitch_bend_c, 2, 8320
4, 574156, Pitch_bend_c, 2, 8192
4, 574176, Pitch_bend_c, 2, 8192
4, 574195, Pitch_bend_c, 2, 8192
4, 574214, Pitch_bend_c, 2, 8064
4, 574227, Pitch_bend_c, 2, 8064
4, 574246, Pitch_bend_c, 2, 8064
4, 574265, Pitch_bend_c, 2, 8064
4, 574284, Pitch_bend_c, 2, 8064
4, 574304, Pitch_bend_c, 2, 7936
4, 574323, Pitch_bend_c, 2, 7936
4, 574336, Pitch_bend_c, 2, 7936
4, 574355, Pitch_bend_c, 2, 8064
4, 574374, Pitch_bend_c, 2, 8064
4, 574393, Pitch_bend_c, 2, 8064
4, 574412, Pitch_bend_c, 2, 8064
4, 574425, Pitch_bend_c, 2, 8064
4, 574444, Pitch_bend_c, 2, 8192
4, 574464, Pitch_bend_c, 2, 8192
4, 574483, Pitch_bend_c, 2, 8192
4, 574502, Pitch_bend_c, 2, 8320
4, 574515, Pitch_bend_c, 2, 8320
4, 574534, Pitch_bend_c, 2, 8320
4, 574553, Pitch_bend_c, 2, 8320
4, 574572, Pitch_bend_c, 2, 8320
4, 574592, Pitch_bend_c, 2, 8448
4, 574604, Pitch_bend_c, 2, 8448
4, 574624, Pitch_bend_c, 2, 8448
4, 574643, Pitch_bend_c, 2, 8320
4, 574662, Pitch_bend_c, 2, 8320
4, 574681, Pitch_bend_c, 2, 8320
4, 574700, Pitch_bend_c, 2, 8320
4, 574713, Pitch_bend_c, 2, 8320
4, 574732, Pitch_bend_c, 2, 8192
4, 574752, Pitch_bend_c, 2, 8192
4, 574771, Pitch_bend_c, 2, 8192
4, 574790, Pitch_bend_c, 2, 8064
4, 574803, Pitch_bend_c, 2, 8064
4, 574822, Pitch_bend_c, 2, 8064
4, 574841, Pitch_bend_c, 2, 8064
4, 574860, Pitch_bend_c, 2, 8064
4, 574880, Pitch_bend_c, 2, 7936
4, 574899, Pitch_bend_c, 2, 7936
4, 574912, Pitch_bend_c, 2, 7936
4, 574931, Pitch_bend_c, 2, 8064
4, 574950, Pitch_bend_c, 2, 8064
4, 574969, Pitch_bend_c, 2, 8064
4, 574988, Pitch_bend_c, 2, 8064
4, 575001, Pitch_bend_c, 2, 8064
4, 575020, Pitch_bend_c, 2, 8192
4, 575040, Pitch_bend_c, 2, 8192
4, 575059, Pitch_bend_c, 2, 8192
4, 575078, Pitch_bend_c, 2, 8320
4, 575091, Pitch_bend_c, 2, 8320
4, 575110, Pitch_bend_c, 2, 8320
4, 575129, Pitch_bend_c, 2, 8320
4, 575148, Pitch_bend_c, 2, 8320
4, 575168, Pitch_bend_c, 2, 8448
4, 575180, Pitch_bend_c, 2, 8448
4, 575200, Pitch_bend_c, 2, 8448
4, 575219, Pitch_bend_c, 2, 8320
4, 575238, Pitch_bend_c, 2, 8320
4, 575257, Pitch_bend_c, 2, 8320
4, 575276, Pitch_bend_c, 2, 8320
4, 575289, Pitch_bend_c, 2, 8320
4, 575308, Pitch_bend_c, 2, 8192
4, 575328, Pitch_bend_c, 2, 8192
4, 575347, Pitch_bend_c, 2, 8192
4, 575366, Pitch_bend_c, 2, 8064
4, 575379, Pitch_bend_c, 2, 8064
4, 575398, Pitch_bend_c, 2, 8064
4, 575417, Pitch_bend_c, 2, 8064
4, 575436, Pitch_bend_c, 2, 8064
4, 575456, Pitch_bend_c, 2, 7936
4, 575475, Pitch_bend_c, 2, 7936
4, 575488, Pitch_bend_c, 2, 7936
4, 575507, Pitch_bend_c, 2, 8064
4, 575526, Pitch_bend_c, 2, 8064
4, 575545, Pitch_bend_c, 2, 8064
4, 575564, Pitch_bend_c, 2, 8064
4, 575577, Pitch_bend_c, 2, 8064
4, 575596, Pitch_bend_c, 2, 8192
4, 575616, Pitch_bend_c, 2, 8192
4, 575635, Pitch_bend_c, 2, 8192
4, 575654, Pitch_bend_c, 2, 8320
4, 575667, Pitch_bend_c, 2, 8320
4, 575686, Pitch_bend_c, 2, 8320
4, 575705, Pitch_bend_c, 2, 8320
4, 575724, Pitch_bend_c, 2, 8320
4, 575744, Pitch_bend_c, 2, 8448
4, 575756, Pitch_bend_c, 2, 8448
4, 575776, Pitch_bend_c, 2, 8448
4, 575795, Pitch_bend_c, 2, 8320
4, 575814, Pitch_bend_c, 2, 8320
4, 575833, Pitch_bend_c, 2, 8320
4, 575852, Pitch_bend_c, 2, 8320
4, 575865, Pitch_bend_c, 2, 8320
4, 575884, Pitch_bend_c, 2, 8192
4, 575904, Pitch_bend_c, 2, 8192
4, 575923, Pitch_bend_c, 2, 8192
4, 575942, Pitch_bend_c, 2, 8064
4, 575955, Pitch_bend_c, 2, 8064
4, 575974, Pitch_bend_c, 2, 8064
4, 575993, Pitch_bend_c, 2, 8064
4, 576012, Pitch_bend_c, 2, 8064
4, 576032, Pitch_bend_c, 2, 7936
4, 576051, Pitch_bend_c, 2, 7936
4, 576064, Pitch_bend_c, 2, 7936
4, 576083, Pitch_bend_c, 2, 8064
4, 576102, Pitch_bend_c, 2, 8064
4, 576121, Pitch_bend_c, 2, 8064
4, 576140, Pitch_bend_c, 2, 8064
4, 576153, Pitch_bend_c, 2, 8064
4, 576172, Pitch_bend_c, 2, 8192
4, 576192, Pitch_bend_c, 2, 8192
4, 576211, Pitch_bend_c, 2, 8192
4, 576230, Pitch_bend_c, 2, 8320
4, 576243, Pitch_bend_c, 2, 8320
4, 576262, Pitch_bend_c, 2, 8320
4, 576281, Pitch_bend_c, 2, 8320
4, 576300, Pitch_bend_c, 2, 8320
4, 576320, Pitch_bend_c, 2, 8448
4, 576332, Pitch_bend_c, 2, 8448
4, 576352, Pitch_bend_c, 2, 8448
4, 576371, Pitch_bend_c, 2, 8320
4, 576390, Pitch_bend_c, 2, 8320
4, 576409, Pitch_bend_c, 2, 8320
4, 576428, Pitch_bend_c, 2, 8320
4, 576441, Pitch_bend_c, 2, 8320
4, 576460, Pitch_bend_c, 2, 8192
4, 576480, Pitch_bend_c, 2, 8192
4, 576499, Pitch_bend_c, 2, 8192
4, 576518, Pitch_bend_c, 2, 8064
4, 576531, Pitch_bend_c, 2, 8064
4, 576550, Pitch_bend_c, 2, 8064
4, 576569, Pitch_bend_c, 2, 8064
4, 576588, Pitch_bend_c, 2, 8064
4, 576608, Pitch_bend_c, 2, 7936
4, 576627, Pitch_bend_c, 2, 7936
4, 576640, Pitch_bend_c, 2, 7936
4, 576659, Pitch_bend_c, 2, 8064
4, 576678, Pitch_bend_c, 2, 8064
4, 576697, Pitch_bend_c, 2, 8064
4, 576716, Pitch_bend_c, 2, 8064
4, 576729, Pitch_bend_c, 2, 8064
4, 576748, Pitch_bend_c, 2, 8192
4, 576768, Pitch_bend_c, 2, 8192
4, 576787, Pitch_bend_c, 2, 8192
4, 576806, Pitch_bend_c, 2, 8192
4, 576819, Pitch_bend_c, 2, 8192
4, 576838, Pitch_bend_c, 2, 8192
4, 576857, Pitch_bend_c, 2, 8320
4, 576876, Pitch_bend_c, 2, 8320
4, 576896, Pitch_bend_c, 2, 8320
4, 576908, Pitch_bend_c, 2, 8320
4, 576928, Pitch_bend_c, 2, 8320
4, 576947, Pitch_bend_c, 2, 8320
4, 576966, Pitch_bend_c, 2, 8320
4, 576985, Pitch_bend_c, 2, 8192
4, 577004, Pitch_bend_c, 2, 8192
4, 577017, Pitch_bend_c, 2, 8192
4, 577036, Pitch_bend_c, 2, 8192
4, 577056, Pitch_bend_c, 2, 8192
4, 577075, Pitch_bend_c, 2, 8192
4, 577094, Pitch_bend_c, 2, 8192
4, 577107, Pitch_bend_c, 2, 8192
4, 577126, Pitch_bend_c, 2, 8192
4, 577145, Pitch_bend_c, 2, 8064
4, 577164, Pitch_bend_c, 2, 8064
4, 577184, Pitch_bend_c, 2, 8064
4, 577203, Pitch_bend_c, 2, 8064
4, 577216, Pitch_bend_c, 2, 8064
4, 577235, Pitch_bend_c, 2, 8064
4, 577254, Pitch_bend_c, 2, 8064
4, 577273, Pitch_bend_c, 2, 8192
4, 577292, Pitch_bend_c, 2, 8192
4, 577305, Pitch_bend_c, 2, 8192
4, 577324, Pitch_bend_c, 2, 8192
4, 577344, Pitch_bend_c, 2, 8192
4, 577363, Pitch_bend_c, 2, 8192
4, 577382, Pitch_bend_c, 2, 8192
4, 577395, Pitch_bend_c, 2, 8192
4, 577414, Pitch_bend_c, 2, 8192
4, 577433, Pitch_bend_c, 2, 8192
4, 577452, Pitch_bend_c, 2, 8192
4, 577472, Pitch_bend_c, 2, 8192
4, 577484, Pitch_bend_c, 2, 8192
4, 577504, Pitch_bend_c, 2, 8192
4, 577523, Pitch_bend_c, 2, 8192
4, 577536, Pitch_bend_c, 2, 8192
4, 577555, Pitch_bend_c, 2, 8192
4, 577574, Pitch_bend_c, 2, 8192
4, 577587, Pitch_bend_c, 2, 8192
4, 577606, Pitch_bend_c, 2, 8192
4, 577625, Pitch_bend_c, 2, 8192
4, 577644, Pitch_bend_c, 2, 8192
4, 577664, Pitch_bend_c, 2, 8192
4, 577676, Pitch_bend_c, 2, 8192
4, 577696, Pitch_bend_c, 2, 8192
4, 577715, Pitch_bend_c, 2, 8192
4, 577734, Pitch_bend_c, 2, 8192
4, 577753, Pitch_bend_c, 2, 8192
4, 577772, Pitch_bend_c, 2, 8192
4, 577785, Pitch_bend_c, 2, 8192
4, 577804, Pitch_bend_c, 2, 8192
4, 577824, Pitch_bend_c, 2, 8192
4, 577843, Pitch_bend_c, 2, 8192
4, 577862, Pitch_bend_c, 2, 8192
4, 577875, Pitch_bend_c, 2, 8192
4, 577894, Pitch_bend_c, 2, 8192
4, 577913, Pitch_bend_c, 2, 8192
4, 577932, Pitch_bend_c, 2, 8192
4, 577952, Pitch_bend_c, 2, 8192
4, 577971, Pitch_bend_c, 2, 8192
4, 577984, Pitch_bend_c, 2, 8192
4, 578003, Pitch_bend_c, 2, 8192
4, 578022, Pitch_bend_c, 2, 8192
4, 578041, Pitch_bend_c, 2, 8192
4, 578060, Pitch_bend_c, 2, 8192
4, 578073, Pitch_bend_c, 2, 8192
4, 578092, Pitch_bend_c, 2, 8192
4, 578112, Pitch_bend_c, 2, 8192
4, 578131, Pitch_bend_c, 2, 8192
4, 578150, Pitch_bend_c, 2, 8192
4, 578163, Pitch_bend_c, 2, 8192
4, 578182, Pitch_bend_c, 2, 8192
4, 578201, Pitch_bend_c, 2, 8192
4, 578220, Pitch_bend_c, 2, 8320
4, 578240, Pitch_bend_c, 2, 8320
4, 578252, Pitch_bend_c, 2, 8320
4, 578272, Pitch_bend_c, 2, 8320
4, 578291, Pitch_bend_c, 2, 8320
4, 578310, Pitch_bend_c, 2, 8192
4, 578329, Pitch_bend_c, 2, 8192
4, 578348, Pitch_bend_c, 2, 8192
4, 578361, Pitch_bend_c, 2, 8192
4, 578380, Pitch_bend_c, 2, 8192
4, 578400, Pitch_bend_c, 2, 8192
4, 578419, Pitch_bend_c, 2, 8192
4, 578438, Pitch_bend_c, 2, 8192
4, 578451, Pitch_bend_c, 2, 8192
4, 578470, Pitch_bend_c, 2, 8192
4, 578489, Pitch_bend_c, 2, 8192
4, 578508, Pitch_bend_c, 2, 8064
4, 578528, Pitch_bend_c, 2, 8064
4, 578547, Pitch_bend_c, 2, 8064
4, 578560, Pitch_bend_c, 2, 8064
4, 578579, Pitch_bend_c, 2, 8064
4, 578598, Pitch_bend_c, 2, 8192
4, 578617, Pitch_bend_c, 2, 8192
4, 578636, Pitch_bend_c, 2, 8192
4, 578649, Pitch_bend_c, 2, 8192
4, 578668, Pitch_bend_c, 2, 8192
4, 578688, Pitch_bend_c, 2, 8192
4, 578707, Pitch_bend_c, 2, 8192
4, 578726, Pitch_bend_c, 2, 8192
4, 578739, Pitch_bend_c, 2, 8320
4, 578758, Pitch_bend_c, 2, 8320
4, 578777, Pitch_bend_c, 2, 8320
4, 578796, Pitch_bend_c, 2, 8320
4, 578816, Pitch_bend_c, 2, 8320
4, 578828, Pitch_bend_c, 2, 8320
4, 578848, Pitch_bend_c, 2, 8320
4, 578867, Pitch_bend_c, 2, 8320
4, 578886, Pitch_bend_c, 2, 8320
4, 578905, Pitch_bend_c, 2, 8320
4, 578924, Pitch_bend_c, 2, 8320
4, 578937, Pitch_bend_c, 2, 8192
4, 578956, Pitch_bend_c, 2, 8192
4, 578976, Pitch_bend_c, 2, 8192
4, 578995, Pitch_bend_c, 2, 8192
4, 579014, Pitch_bend_c, 2, 8192
4, 579027, Pitch_bend_c, 2, 8064
4, 579046, Pitch_bend_c, 2, 8064
4, 579065, Pitch_bend_c, 2, 8064
4, 579084, Pitch_bend_c, 2, 8064
4, 579104, Pitch_bend_c, 2, 8064
4, 579123, Pitch_bend_c, 2, 8064
4, 579136, Pitch_bend_c, 2, 8064
4, 579155, Pitch_bend_c, 2, 8064
4, 579174, Pitch_bend_c, 2, 8064
4, 579193, Pitch_bend_c, 2, 8064
4, 579212, Pitch_bend_c, 2, 8064
4, 579225, Pitch_bend_c, 2, 8192
4, 579244, Pitch_bend_c, 2, 8192
4, 579264, Pitch_bend_c, 2, 8192
4, 579283, Pitch_bend_c, 2, 8192
4, 579302, Pitch_bend_c, 2, 8320
4, 579315, Pitch_bend_c, 2, 8320
4, 579334, Pitch_bend_c, 2, 8320
4, 579353, Pitch_bend_c, 2, 8448
4, 579372, Pitch_bend_c, 2, 8448
4, 579392, Pitch_bend_c, 2, 8448
4, 579404, Pitch_bend_c, 2, 8448
4, 579424, Pitch_bend_c, 2, 8448
4, 579443, Pitch_bend_c, 2, 8448
4, 579462, Pitch_bend_c, 2, 8448
4, 579481, Pitch_bend_c, 2, 8320
4, 579500, Pitch_bend_c, 2, 8320
4, 579513, Pitch_bend_c, 2, 8320
4, 579532, Pitch_bend_c, 2, 8192
4, 579552, Pitch_bend_c, 2, 8192
4, 579571, Pitch_bend_c, 2, 8192
4, 579590, Pitch_bend_c, 2, 8064
4, 579603, Pitch_bend_c, 2, 8064
4, 579622, Pitch_bend_c, 2, 8064
4, 579641, Pitch_bend_c, 2, 7936
4, 579660, Pitch_bend_c, 2, 7936
4, 579680, Pitch_bend_c, 2, 7936
4, 579699, Pitch_bend_c, 2, 7936
4, 579712, Pitch_bend_c, 2, 7936
4, 579731, Pitch_bend_c, 2, 7936
4, 579750, Pitch_bend_c, 2, 7936
4, 579769, Pitch_bend_c, 2, 8064
4, 579788, Pitch_bend_c, 2, 8064
4, 579801, Pitch_bend_c, 2, 8064
4, 579820, Pitch_bend_c, 2, 8192
4, 579840, Pitch_bend_c, 2, 8192
4, 579859, Pitch_bend_c, 2, 8192
4, 579878, Pitch_bend_c, 2, 8320
4, 579891, Pitch_bend_c, 2, 8320
4, 579910, Pitch_bend_c, 2, 8320
4, 579929, Pitch_bend_c, 2, 8320
4, 579948, Pitch_bend_c, 2, 8448
4, 579968, Pitch_bend_c, 2, 8448
4, 579980, Pitch_bend_c, 2, 8448
4, 580000, Pitch_bend_c, 2, 8448
4, 580019, Pitch_bend_c, 2, 8448
4, 580038, Pitch_bend_c, 2, 8320
4, 580057, Pitch_bend_c, 2, 8320
4, 580076, Pitch_bend_c, 2, 8320
4, 580089, Pitch_bend_c, 2, 8320
4, 580108, Pitch_bend_c, 2, 8192
4, 580128, Pitch_bend_c, 2, 8192
4, 580147, Pitch_bend_c, 2, 8192
4, 580166, Pitch_bend_c, 2, 8064
4, 580179, Pitch_bend_c, 2, 8064
4, 580198, Pitch_bend_c, 2, 8064
4, 580217, Pitch_bend_c, 2, 8064
4, 580236, Pitch_bend_c, 2, 7936
4, 580256, Pitch_bend_c, 2, 7936
4, 580275, Pitch_bend_c, 2, 7936
4, 580288, Pitch_bend_c, 2, 7936
4, 580307, Pitch_bend_c, 2, 7936
4, 580326, Pitch_bend_c, 2, 8064
4, 580345, Pitch_bend_c, 2, 8064
4, 580364, Pitch_bend_c, 2, 8064
4, 580377, Pitch_bend_c, 2, 8064
4, 580396, Pitch_bend_c, 2, 8192
4, 580416, Pitch_bend_c, 2, 8192
4, 580435, Pitch_bend_c, 2, 8192
4, 580454, Pitch_bend_c, 2, 8320
4, 580467, Pitch_bend_c, 2, 8320
4, 580486, Pitch_bend_c, 2, 8448
4, 580505, Pitch_bend_c, 2, 8448
4, 580524, Pitch_bend_c, 2, 8448
4, 580544, Pitch_bend_c, 2, 8448
4, 580556, Pitch_bend_c, 2, 8448
4, 580576, Pitch_bend_c, 2, 8448
4, 580595, Pitch_bend_c, 2, 8448
4, 580614, Pitch_bend_c, 2, 8448
4, 580633, Pitch_bend_c, 2, 8448
4, 580652, Pitch_bend_c, 2, 8320
4, 580665, Pitch_bend_c, 2, 8320
4, 580684, Pitch_bend_c, 2, 8192
4, 580704, Pitch_bend_c, 2, 8192
4, 580723, Pitch_bend_c, 2, 8192
4, 580742, Pitch_bend_c, 2, 8064
4, 580755, Pitch_bend_c, 2, 8064
4, 580774, Pitch_bend_c, 2, 7936
4, 580793, Pitch_bend_c, 2, 7936
4, 580812, Pitch_bend_c, 2, 7936
4, 580832, Pitch_bend_c, 2, 7936
4, 580851, Pitch_bend_c, 2, 7936
4, 580864, Pitch_bend_c, 2, 7936
4, 580883, Pitch_bend_c, 2, 7936
4, 580902, Pitch_bend_c, 2, 7936
4, 580921, Pitch_bend_c, 2, 7936
4, 580940, Pitch_bend_c, 2, 8064
4, 580953, Pitch_bend_c, 2, 8064
4, 580972, Pitch_bend_c, 2, 8192
4, 580992, Pitch_bend_c, 2, 8192
4, 581011, Pitch_bend_c, 2, 8192
4, 581030, Pitch_bend_c, 2, 8320
4, 581043, Pitch_bend_c, 2, 8320
4, 581062, Pitch_bend_c, 2, 8320
4, 581081, Pitch_bend_c, 2, 8320
4, 581100, Pitch_bend_c, 2, 8320
4, 581120, Pitch_bend_c, 2, 8320
4, 581132, Pitch_bend_c, 2, 8320
4, 581152, Pitch_bend_c, 2, 8320
4, 581171, Pitch_bend_c, 2, 8320
4, 581190, Pitch_bend_c, 2, 8320
4, 581209, Pitch_bend_c, 2, 8320
4, 581228, Pitch_bend_c, 2, 8320
4, 581241, Pitch_bend_c, 2, 8320
4, 581260, Pitch_bend_c, 2, 8192
4, 581280, Pitch_bend_c, 2, 8192
4, 581299, Pitch_bend_c, 2, 8192
4, 581318, Pitch_bend_c, 2, 8064
4, 581331, Pitch_bend_c, 2, 8064
4, 581350, Pitch_bend_c, 2, 8064
4, 581369, Pitch_bend_c, 2, 8064
4, 581388, Pitch_bend_c, 2, 8064
4, 581408, Pitch_bend_c, 2, 8064
4, 581427, Pitch_bend_c, 2, 8064
4, 581440, Pitch_bend_c, 2, 8064
4, 581459, Pitch_bend_c, 2, 8064
4, 581478, Pitch_bend_c, 2, 8064
4, 581497, Pitch_bend_c, 2, 8064
4, 581516, Pitch_bend_c, 2, 8064
4, 581529, Pitch_bend_c, 2, 8064
4, 581548, Pitch_bend_c, 2, 8192
4, 581568, Pitch_bend_c, 2, 8192
4, 581587, Pitch_bend_c, 2, 8192
4, 581606, Pitch_bend_c, 2, 8320
4, 581619, Pitch_bend_c, 2, 8320
4, 581638, Pitch_bend_c, 2, 8320
4, 581657, Pitch_bend_c, 2, 8448
4, 581676, Pitch_bend_c, 2, 8448
4, 581696, Pitch_bend_c, 2, 8448
4, 581708, Pitch_bend_c, 2, 8448
4, 581728, Pitch_bend_c, 2, 8448
4, 581747, Pitch_bend_c, 2, 8448
4, 581766, Pitch_bend_c, 2, 8448
4, 581785, Pitch_bend_c, 2, 8320
4, 581804, Pitch_bend_c, 2, 8320
4, 581817, Pitch_bend_c, 2, 8320
4, 581836, Pitch_bend_c, 2, 8192
4, 581856, Pitch_bend_c, 2, 8192
4, 581875, Pitch_bend_c, 2, 8192
4, 581894, Pitch_bend_c, 2, 8064
4, 581907, Pitch_bend_c, 2, 8064
4, 581926, Pitch_bend_c, 2, 8064
4, 581945, Pitch_bend_c, 2, 7936
4, 581964, Pitch_bend_c, 2, 7936
4, 581984, Pitch_bend_c, 2, 7936
4, 582003, Pitch_bend_c, 2, 7936
4, 582016, Pitch_bend_c, 2, 7936
4, 582035, Pitch_bend_c, 2, 7936
4, 582054, Pitch_bend_c, 2, 7936
4, 582073, Pitch_bend_c, 2, 8064
4, 582092, Pitch_bend_c, 2, 8064
4, 582105, Pitch_bend_c, 2, 8064
4, 582124, Pitch_bend_c, 2, 8192
4, 582144, Pitch_bend_c, 2, 8192
4, 582163, Pitch_bend_c, 2, 8192
4, 582182, Pitch_bend_c, 2, 8320
4, 582195, Pitch_bend_c, 2, 8320
4, 582214, Pitch_bend_c, 2, 8320
4, 582233, Pitch_bend_c, 2, 8320
4, 582252, Pitch_bend_c, 2, 8448
4, 582272, Pitch_bend_c, 2, 8448
4, 582284, Pitch_bend_c, 2, 8448
4, 582304, Pitch_bend_c, 2, 8448
4, 582323, Pitch_bend_c, 2, 8448
4, 582342, Pitch_bend_c, 2, 8320
4, 582361, Pitch_bend_c, 2, 8320
4, 582380, Pitch_bend_c, 2, 8320
4, 582393, Pitch_bend_c, 2, 8320
4, 582412, Pitch_bend_c, 2, 8192
4, 582432, Pitch_bend_c, 2, 8192
4, 582451, Pitch_bend_c, 2, 8192
4, 582470, Pitch_bend_c, 2, 8064
4, 582483, Pitch_bend_c, 2, 8064
4, 582502, Pitch_bend_c, 2, 8064
4, 582521, Pitch_bend_c, 2, 8064
4, 582540, Pitch_bend_c, 2, 7936
4, 582560, Pitch_bend_c, 2, 7936
4, 582579, Pitch_bend_c, 2, 7936
4, 582592, Pitch_bend_c, 2, 7936
4, 582611, Pitch_bend_c, 2, 7936
4, 582630, Pitch_bend_c, 2, 8064
4, 582649, Pitch_bend_c, 2, 8064
4, 582668, Pitch_bend_c, 2, 8064
4, 582681, Pitch_bend_c, 2, 8064
4, 582700, Pitch_bend_c, 2, 8192
4, 582720, Pitch_bend_c, 2, 8192
4, 582739, Pitch_bend_c, 2, 8192
4, 582758, Pitch_bend_c, 2, 8320
4, 582771, Pitch_bend_c, 2, 8320
4, 582790, Pitch_bend_c, 2, 8320
4, 582809, Pitch_bend_c, 2, 8320
4, 582828, Pitch_bend_c, 2, 8320
4, 582848, Pitch_bend_c, 2, 8448
4, 582860, Pitch_bend_c, 2, 8448
4, 582880, Pitch_bend_c, 2, 8448
4, 582899, Pitch_bend_c, 2, 8320
4, 582918, Pitch_bend_c, 2, 8320
4, 582937, Pitch_bend_c, 2, 8320
4, 582956, Pitch_bend_c, 2, 8320
4, 582969, Pitch_bend_c, 2, 8320
4, 582988, Pitch_bend_c, 2, 8192
4, 583008, Pitch_bend_c, 2, 8192
4, 583027, Pitch_bend_c, 2, 8192
4, 583046, Pitch_bend_c, 2, 8064
4, 583059, Pitch_bend_c, 2, 8064
4, 583078, Pitch_bend_c, 2, 8064
4, 583097, Pitch_bend_c, 2, 8064
4, 583116, Pitch_bend_c, 2, 8064
4, 583136, Pitch_bend_c, 2, 7936
4, 583155, Pitch_bend_c, 2, 7936
4, 583168, Pitch_bend_c, 2, 7936
4, 583187, Pitch_bend_c, 2, 8064
4, 583206, Pitch_bend_c, 2, 8064
4, 583225, Pitch_bend_c, 2, 8064
4, 583244, Pitch_bend_c, 2, 8064
4, 583257, Pitch_bend_c, 2, 8064
4, 583276, Pitch_bend_c, 2, 8192
4, 583296, Pitch_bend_c, 2, 8192
4, 583315, Pitch_bend_c, 2, 8192
4, 583334, Pitch_bend_c, 2, 8320
4, 583347, Pitch_bend_c, 2, 8320
4, 583366, Pitch_bend_c, 2, 8320
4, 583385, Pitch_bend_c, 2, 8320
4, 583404, Pitch_bend_c, 2, 8320
4, 583424, Pitch_bend_c, 2, 8320
4, 583436, Pitch_bend_c, 2, 8320
4, 583456, Pitch_bend_c, 2, 8320
4, 583475, Pitch_bend_c, 2, 8320
4, 583494, Pitch_bend_c, 2, 8320
4, 583513, Pitch_bend_c, 2, 8320
4, 583532, Pitch_bend_c, 2, 8320
4, 583545, Pitch_bend_c, 2, 8320
4, 583564, Pitch_bend_c, 2, 8192
4, 583584, Pitch_bend_c, 2, 8192
4, 583603, Pitch_bend_c, 2, 8192
4, 583622, Pitch_bend_c, 2, 8064
4, 583635, Pitch_bend_c, 2, 8064
4, 583654, Pitch_bend_c, 2, 8064
4, 583673, Pitch_bend_c, 2, 8064
4, 583692, Pitch_bend_c, 2, 8064
4, 583712, Pitch_bend_c, 2, 8064
4, 583731, Pitch_bend_c, 2, 8064
4, 583744, Pitch_bend_c, 2, 8064
4, 583763, Pitch_bend_c, 2, 8064
4, 583782, Pitch_bend_c, 2, 8064
4, 583801, Pitch_bend_c, 2, 8064
4, 583820, Pitch_bend_c, 2, 8064
4, 583833, Pitch_bend_c, 2, 8064
4, 583852, Pitch_bend_c, 2, 8192
4, 583872, Pitch_bend_c, 2, 8192
4, 583891, Pitch_bend_c, 2, 8192
4, 583910, Pitch_bend_c, 2, 8320
4, 583923, Pitch_bend_c, 2, 8320
4, 583942, Pitch_bend_c, 2, 8448
4, 583961, Pitch_bend_c, 2, 8448
4, 583980, Pitch_bend_c, 2, 8448
4, 584000, Pitch_bend_c, 2, 8448
4, 584012, Pitch_bend_c, 2, 8448
4, 584032, Pitch_bend_c, 2, 8448
4, 584051, Pitch_bend_c, 2, 8448
4, 584070, Pitch_bend_c, 2, 8448
4, 584089, Pitch_bend_c, 2, 8448
4, 584108, Pitch_bend_c, 2, 8320
4, 584121, Pitch_bend_c, 2, 8320
4, 584140, Pitch_bend_c, 2, 8192
4, 584160, Pitch_bend_c, 2, 8192
4, 584179, Pitch_bend_c, 2, 8192
4, 584198, Pitch_bend_c, 2, 8064
4, 584211, Pitch_bend_c, 2, 8064
4, 584230, Pitch_bend_c, 2, 7936
4, 584249, Pitch_bend_c, 2, 7936
4, 584268, Pitch_bend_c, 2, 7936
4, 584288, Pitch_bend_c, 2, 7936
4, 584307, Pitch_bend_c, 2, 7936
4, 584320, Pitch_bend_c, 2, 7936
4, 584339, Pitch_bend_c, 2, 7936
4, 584358, Pitch_bend_c, 2, 7936
4, 584377, Pitch_bend_c, 2, 7936
4, 584396, Pitch_bend_c, 2, 8064
4, 584409, Pitch_bend_c, 2, 8064
4, 584428, Pitch_bend_c, 2, 8192
4, 584448, Pitch_bend_c, 2, 8192
4, 584467, Pitch_bend_c, 2, 8192
4, 584486, Pitch_bend_c, 2, 8320
4, 584499, Pitch_bend_c, 2, 8320
4, 584518, Pitch_bend_c, 2, 8320
4, 584537, Pitch_bend_c, 2, 8448
4, 584556, Pitch_bend_c, 2, 8448
4, 584576, Pitch_bend_c, 2, 8448
4, 584588, Pitch_bend_c, 2, 8448
4, 584608, Pitch_bend_c, 2, 8448
4, 584627, Pitch_bend_c, 2, 8448
4, 584646, Pitch_bend_c, 2, 8448
4, 584665, Pitch_bend_c, 2, 8320
4, 584684, Pitch_bend_c, 2, 8320
4, 584697, Pitch_bend_c, 2, 8320
4, 584716, Pitch_bend_c, 2, 8192
4, 584736, Pitch_bend_c, 2, 8192
4, 584755, Pitch_bend_c, 2, 8192
4, 584774, Pitch_bend_c, 2, 8064
4, 584787, Pitch_bend_c, 2, 8064
4, 584806, Pitch_bend_c, 2, 8064
4, 584825, Pitch_bend_c, 2, 7936
4, 584844, Pitch_bend_c, 2, 7936
4, 584864, Pitch_bend_c, 2, 7936
4, 584883, Pitch_bend_c, 2, 7936
4, 584896, Pitch_bend_c, 2, 7936
4, 584915, Pitch_bend_c, 2, 7936
4, 584934, Pitch_bend_c, 2, 7936
4, 584953, Pitch_bend_c, 2, 8064
4, 584972, Pitch_bend_c, 2, 8064
4, 584985, Pitch_bend_c, 2, 8064
4, 585004, Pitch_bend_c, 2, 8192
4, 585024, Pitch_bend_c, 2, 8192
4, 585043, Pitch_bend_c, 2, 8192
4, 585062, Pitch_bend_c, 2, 8320
4, 585075, Pitch_bend_c, 2, 8320
4, 585094, Pitch_bend_c, 2, 8320
4, 585113, Pitch_bend_c, 2, 8320
4, 585132, Pitch_bend_c, 2, 8320
4, 585152, Pitch_bend_c, 2, 8320
4, 585164, Pitch_bend_c, 2, 8320
4, 585184, Pitch_bend_c, 2, 8320
4, 585203, Pitch_bend_c, 2, 8320
4, 585222, Pitch_bend_c, 2, 8320
4, 585241, Pitch_bend_c, 2, 8320
4, 585260, Pitch_bend_c, 2, 8320
4, 585273, Pitch_bend_c, 2, 8320
4, 585292, Pitch_bend_c, 2, 8192
4, 585312, Pitch_bend_c, 2, 8192
4, 585331, Pitch_bend_c, 2, 8192
4, 585350, Pitch_bend_c, 2, 8064
4, 585363, Pitch_bend_c, 2, 8064
4, 585382, Pitch_bend_c, 2, 8064
4, 585401, Pitch_bend_c, 2, 8064
4, 585420, Pitch_bend_c, 2, 8064
4, 585440, Pitch_bend_c, 2, 8064
4, 585459, Pitch_bend_c, 2, 8064
4, 585472, Pitch_bend_c, 2, 8064
4, 585491, Pitch_bend_c, 2, 8064
4, 585510, Pitch_bend_c, 2, 8064
4, 585529, Pitch_bend_c, 2, 8064
4, 585548, Pitch_bend_c, 2, 8064
4, 585561, Pitch_bend_c, 2, 8064
4, 585580, Pitch_bend_c, 2, 8192
4, 585600, Pitch_bend_c, 2, 8192
4, 585619, Pitch_bend_c, 2, 8192
4, 585638, Pitch_bend_c, 2, 8320
4, 585651, Pitch_bend_c, 2, 8320
4, 585670, Pitch_bend_c, 2, 8320
4, 585689, Pitch_bend_c, 2, 8448
4, 585708, Pitch_bend_c, 2, 8448
4, 585728, Pitch_bend_c, 2, 8448
4, 585740, Pitch_bend_c, 2, 8448
4, 585760, Pitch_bend_c, 2, 8448
4, 585779, Pitch_bend_c, 2, 8448
4, 585798, Pitch_bend_c, 2, 8448
4, 585817, Pitch_bend_c, 2, 8320
4, 585836, Pitch_bend_c, 2, 8320
4, 585849, Pitch_bend_c, 2, 8320
4, 585868, Pitch_bend_c, 2, 8192
4, 585888, Pitch_bend_c, 2, 8192
4, 585907, Pitch_bend_c, 2, 8192
4, 585926, Pitch_bend_c, 2, 8064
4, 585939, Pitch_bend_c, 2, 8064
4, 585958, Pitch_bend_c, 2, 8064
4, 585977, Pitch_bend_c, 2, 7936
4, 585996, Pitch_bend_c, 2, 7936
4, 586016, Pitch_bend_c, 2, 7936
4, 586035, Pitch_bend_c, 2, 7936
4, 586048, Pitch_bend_c, 2, 7936
4, 586067, Pitch_bend_c, 2, 7936
4, 586086, Pitch_bend_c, 2, 7936
4, 586105, Pitch_bend_c, 2, 8064
4, 586124, Pitch_bend_c, 2, 8064
4, 586137, Pitch_bend_c, 2, 8064
4, 586156, Pitch_bend_c, 2, 8192
4, 586176, Pitch_bend_c, 2, 8192
4, 586195, Pitch_bend_c, 2, 8192
4, 586214, Pitch_bend_c, 2, 8320
4, 586227, Pitch_bend_c, 2, 8320
4, 586246, Pitch_bend_c, 2, 8320
4, 586265, Pitch_bend_c, 2, 8320
4, 586284, Pitch_bend_c, 2, 8320
4, 586304, Pitch_bend_c, 2, 8320
4, 586316, Pitch_bend_c, 2, 8320
4, 586336, Pitch_bend_c, 2, 8320
4, 586355, Pitch_bend_c, 2, 8320
4, 586374, Pitch_bend_c, 2, 8320
4, 586393, Pitch_bend_c, 2, 8320
4, 586412, Pitch_bend_c, 2, 8320
4, 586425, Pitch_bend_c, 2, 8320
4, 586444, Pitch_bend_c, 2, 8192
4, 586464, Pitch_bend_c, 2, 8192
4, 586483, Pitch_bend_c, 2, 8192
4, 586502, Pitch_bend_c, 2, 8064
4, 586515, Pitch_bend_c, 2, 8064
4, 586534, Pitch_bend_c, 2, 8064
4, 586553, Pitch_bend_c, 2, 8064
4, 586572, Pitch_bend_c, 2, 8064
4, 586592, Pitch_bend_c, 2, 8064
4, 586611, Pitch_bend_c, 2, 8064
4, 586624, Pitch_bend_c, 2, 8064
4, 586643, Pitch_bend_c, 2, 8064
4, 586662, Pitch_bend_c, 2, 8064
4, 586681, Pitch_bend_c, 2, 8064
4, 586700, Pitch_bend_c, 2, 8064
4, 586713, Pitch_bend_c, 2, 8064
4, 586732, Pitch_bend_c, 2, 8192
4, 586752, Pitch_bend_c, 2, 8192
4, 586771, Pitch_bend_c, 2, 8192
4, 586790, Pitch_bend_c, 2, 8320
4, 586803, Pitch_bend_c, 2, 8320
4, 586822, Pitch_bend_c, 2, 8320
4, 586841, Pitch_bend_c, 2, 8448
4, 586860, Pitch_bend_c, 2, 8448
4, 586880, Pitch_bend_c, 2, 8448
4, 586892, Pitch_bend_c, 2, 8448
4, 586912, Pitch_bend_c, 2, 8448
4, 586931, Pitch_bend_c, 2, 8448
4, 586950, Pitch_bend_c, 2, 8448
4, 586969, Pitch_bend_c, 2, 8320
4, 586988, Pitch_bend_c, 2, 8320
4, 587001, Pitch_bend_c, 2, 8320
4, 587020, Pitch_bend_c, 2, 8192
4, 587040, Pitch_bend_c, 2, 8192
4, 587059, Pitch_bend_c, 2, 8192
4, 587078, Pitch_bend_c, 2, 8064
4, 587091, Pitch_bend_c, 2, 8064
4, 587110, Pitch_bend_c, 2, 8064
4, 587129, Pitch_bend_c, 2, 7936
4, 587148, Pitch_bend_c, 2, 7936
4, 587168, Pitch_bend_c, 2, 7936
4, 587187, Pitch_bend_c, 2, 7936
4, 587200, Pitch_bend_c, 2, 7936
4, 587219, Pitch_bend_c, 2, 7936
4, 587238, Pitch_bend_c, 2, 7936
4, 587257, Pitch_bend_c, 2, 8064
4, 587276, Pitch_bend_c, 2, 8064
4, 587289, Pitch_bend_c, 2, 8064
4, 587308, Pitch_bend_c, 2, 8192
4, 587328, Pitch_bend_c, 2, 8192
4, 587347, Pitch_bend_c, 2, 8192
4, 587366, Pitch_bend_c, 2, 8320
4, 587379, Pitch_bend_c, 2, 8320
4, 587398, Pitch_bend_c, 2, 8448
4, 587417, Pitch_bend_c, 2, 8448
4, 587436, Pitch_bend_c, 2, 8448
4, 587456, Pitch_bend_c, 2, 8448
4, 587468, Pitch_bend_c, 2, 8448
4, 587488, Pitch_bend_c, 2, 8448
4, 587507, Pitch_bend_c, 2, 8448
4, 587526, Pitch_bend_c, 2, 8448
4, 587545, Pitch_bend_c, 2, 8448
4, 587564, Pitch_bend_c, 2, 8320
4, 587577, Pitch_bend_c, 2, 8320
4, 587596, Pitch_bend_c, 2, 8192
4, 587616, Pitch_bend_c, 2, 8192
4, 587635, Pitch_bend_c, 2, 8192
4, 587654, Pitch_bend_c, 2, 8064
4, 587667, Pitch_bend_c, 2, 8064
4, 587686, Pitch_bend_c, 2, 7936
4, 587705, Pitch_bend_c, 2, 7936
4, 587724, Pitch_bend_c, 2, 7936
4, 587744, Pitch_bend_c, 2, 7936
4, 587763, Pitch_bend_c, 2, 7936
4, 587776, Pitch_bend_c, 2, 7936
4, 587795, Pitch_bend_c, 2, 7936
4, 587814, Pitch_bend_c, 2, 7936
4, 587833, Pitch_bend_c, 2, 7936
4, 587852, Pitch_bend_c, 2, 8064
4, 587865, Pitch_bend_c, 2, 8064
4, 587884, Pitch_bend_c, 2, 8192
4, 587904, Pitch_bend_c, 2, 8192
4, 587923, Pitch_bend_c, 2, 8192
4, 587942, Pitch_bend_c, 2, 8320
4, 587955, Pitch_bend_c, 2, 8320
4, 587974, Pitch_bend_c, 2, 8320
4, 587993, Pitch_bend_c, 2, 8320
4, 588012, Pitch_bend_c, 2, 8448
4, 588032, Pitch_bend_c, 2, 8448
4, 588044, Pitch_bend_c, 2, 8448
4, 588064, Pitch_bend_c, 2, 8448
4, 588083, Pitch_bend_c, 2, 8448
4, 588102, Pitch_bend_c, 2, 8320
4, 588121, Pitch_bend_c, 2, 8320
4, 588140, Pitch_bend_c, 2, 8320
4, 588153, Pitch_bend_c, 2, 8320
4, 588172, Pitch_bend_c, 2, 8192
4, 588192, Pitch_bend_c, 2, 8192
4, 588211, Pitch_bend_c, 2, 8192
4, 588230, Pitch_bend_c, 2, 8064
4, 588243, Pitch_bend_c, 2, 8064
4, 588262, Pitch_bend_c, 2, 8064
4, 588281, Pitch_bend_c, 2, 8064
4, 588300, Pitch_bend_c, 2, 7936
4, 588320, Pitch_bend_c, 2, 7936
4, 588339, Pitch_bend_c, 2, 7936
4, 588352, Pitch_bend_c, 2, 7936
4, 588371, Pitch_bend_c, 2, 7936
4, 588390, Pitch_bend_c, 2, 8064
4, 588409, Pitch_bend_c, 2, 8064
4, 588428, Pitch_bend_c, 2, 8064
4, 588441, Pitch_bend_c, 2, 8064
4, 588460, Pitch_bend_c, 2, 8192
4, 588480, Pitch_bend_c, 2, 8192
4, 588499, Pitch_bend_c, 2, 8192
4, 588518, Pitch_bend_c, 2, 8320
4, 588531, Pitch_bend_c, 2, 8320
4, 588550, Pitch_bend_c, 2, 8320
4, 588569, Pitch_bend_c, 2, 8320
4, 588588, Pitch_bend_c, 2, 8448
4, 588608, Pitch_bend_c, 2, 8448
4, 588620, Pitch_bend_c, 2, 8448
4, 588640, Pitch_bend_c, 2, 8448
4, 588659, Pitch_bend_c, 2, 8448
4, 588678, Pitch_bend_c, 2, 8320
4, 588697, Pitch_bend_c, 2, 8320
4, 588716, Pitch_bend_c, 2, 8320
4, 588729, Pitch_bend_c, 2, 8320
4, 588748, Pitch_bend_c, 2, 8192
4, 588768, Pitch_bend_c, 2, 8192
4, 588787, Pitch_bend_c, 2, 8192
4, 588806, Pitch_bend_c, 2, 8064
4, 588819, Pitch_bend_c, 2, 8064
4, 588838, Pitch_bend_c, 2, 8064
4, 588857, Pitch_bend_c, 2, 8064
4, 588876, Pitch_bend_c, 2, 7936
4, 588896, Pitch_bend_c, 2, 7936
4, 588915, Pitch_bend_c, 2, 7936
4, 588928, Pitch_bend_c, 2, 7936
4, 588947, Pitch_bend_c, 2, 7936
4, 588966, Pitch_bend_c, 2, 8064
4, 588985, Pitch_bend_c, 2, 8064
4, 589004, Pitch_bend_c, 2, 8064
4, 589017, Pitch_bend_c, 2, 8064
4, 589036, Pitch_bend_c, 2, 8192
4, 589056, Pitch_bend_c, 2, 8192
4, 589075, Pitch_bend_c, 2, 8192
4, 589094, Pitch_bend_c, 2, 8192
4, 589107, Pitch_bend_c, 2, 8192
4, 589126, Pitch_bend_c, 2, 8320
4, 589145, Pitch_bend_c, 2, 8320
4, 589164, Pitch_bend_c, 2, 8320
4, 589184, Pitch_bend_c, 2, 8320
4, 589196, Pitch_bend_c, 2, 8320
4, 589216, Pitch_bend_c, 2, 8320
4, 589235, Pitch_bend_c, 2, 8320
4, 589254, Pitch_bend_c, 2, 8320
4, 589273, Pitch_bend_c, 2, 8320
4, 589292, Pitch_bend_c, 2, 8192
4, 589305, Pitch_bend_c, 2, 8192
4, 589324, Pitch_bend_c, 2, 8192
4, 589344, Pitch_bend_c, 2, 8192
4, 589363, Pitch_bend_c, 2, 8192
4, 589382, Pitch_bend_c, 2, 8192
4, 589395, Pitch_bend_c, 2, 8192
4, 589414, Pitch_bend_c, 2, 8064
4, 589433, Pitch_bend_c, 2, 8064
4, 589452, Pitch_bend_c, 2, 8064
4, 589472, Pitch_bend_c, 2, 8064
4, 589491, Pitch_bend_c, 2, 8064
4, 589504, Pitch_bend_c, 2, 8064
4, 589523, Pitch_bend_c, 2, 8064
4, 589542, Pitch_bend_c, 2, 8064
4, 589561, Pitch_bend_c, 2, 8064
4, 589580, Pitch_bend_c, 2, 8192
4, 589593, Pitch_bend_c, 2, 8192
4, 589612, Pitch_bend_c, 2, 8192
4, 589632, Pitch_bend_c, 2, 8192
4, 589651, Pitch_bend_c, 2, 8192
4, 589670, Pitch_bend_c, 2, 8192
4, 589683, Pitch_bend_c, 2, 8192
4, 589702, Pitch_bend_c, 2, 8192
4, 589721, Pitch_bend_c, 2, 8192
4, 589740, Pitch_bend_c, 2, 8192
4, 589760, Pitch_bend_c, 2, 8192
4, 589772, Pitch_bend_c, 2, 8192
4, 589792, Pitch_bend_c, 2, 8192
4, 589811, Pitch_bend_c, 2, 8192
4, 589824, Note_off_c, 2, 70, 80
4, 589824, Note_off_c, 2, 79, 80
4, 589824, Pitch_bend_c, 2, 8192
4, 734208, Note_on_c, 2, 62, 63
4, 734208, Note_on_c, 2, 57, 63
4, 734336, Note_off_c, 2, 57, 80
4, 734336, Note_off_c, 2, 62, 80
4, 734976, Pitch_bend_c, 2, 7552
4, 735302, Pitch_bend_c, 2, 6784
4, 735635, Pitch_bend_c, 2, 6144
4, 735961, Pitch_bend_c, 2, 5504
4, 736294, Pitch_bend_c, 2, 4736
4, 736620, Pitch_bend_c, 2, 4096
4, 736953, Pitch_bend_c, 2, 3456
4, 737280, Pitch_bend_c, 2, 8192
4, 737280, Note_on_c, 2, 67, 63
4, 737280, Note_on_c, 2, 62, 63
4, 737280, Note_on_c, 2, 55, 63
4, 737280, Note_on_c, 2, 50, 63
4, 737280, Note_on_c, 2, 43, 63
4, 749568, Note_off_c, 2, 43, 80
4, 749568, Note_off_c, 2, 50, 80
4, 749568, Note_off_c, 2, 55, 80
4, 749568, Note_off_c, 2, 62, 80
4, 749568, Note_off_c, 2, 67, 80
4, 749568, Note_on_c, 2, 60, 63
4, 749568, Note_on_c, 2, 55, 63
4, 749568, Note_on_c, 2, 48, 63
4, 749568, Note_on_c, 2, 43, 63
4, 758784, Note_off_c, 2, 43, 80
4, 758784, Note_off_c, 2, 48, 80
4, 758784, Note_off_c, 2, 55, 80
4, 758784, Note_off_c, 2, 60, 80
4, 758784, Note_on_c, 2, 60, 63
4, 758784, Note_on_c, 2, 55, 63
4, 758784, Note_on_c, 2, 48, 63
4, 759552, Note_off_c, 2, 48, 80
4, 759552, Note_off_c, 2, 55, 80
4, 759552, Note_off_c, 2, 60, 80
4, 759552, Note_on_c, 2, 58, 63
4, 759552, Note_on_c, 2, 53, 63
4, 759552, Note_on_c, 2, 46, 63
4, 761856, Note_off_c, 2, 46, 80
4, 761856, Note_off_c, 2, 53, 80
4, 761856, Note_off_c, 2, 58, 80
4, 761856, Note_on_c, 2, 67, 63
4, 761856, Note_on_c, 2, 62, 63
4, 761856, Note_on_c, 2, 55, 63
4, 761856, Note_on_c, 2, 50, 63
4, 761856, Note_on_c, 2, 43, 63
4, 774144, Note_off_c, 2, 43, 80
4, 774144, Note_off_c, 2, 50, 80
4, 774144, Note_off_c, 2, 55, 80
4, 774144, Note_off_c, 2, 62, 80
4, 774144, Note_off_c, 2, 67, 80
4, 774144, Note_on_c, 2, 60, 63
4, 774144, Note_on_c, 2, 55, 63
4, 774144, Note_on_c, 2, 48, 63
4, 774144, Note_on_c, 2, 43, 63
4, 783360, Note_off_c, 2, 43, 80
4, 783360, Note_off_c, 2, 48, 80
4, 783360, Note_off_c, 2, 55, 80
4, 783360, Note_off_c, 2, 60, 80
4, 783360, Note_on_c, 2, 60, 63
4, 783360, Note_on_c, 2, 55, 63
4, 783360, Note_on_c, 2, 48, 63
4, 784128, Note_off_c, 2, 48, 80
4, 784128, Note_off_c, 2, 55, 80
4, 784128, Note_off_c, 2, 60, 80
4, 784128, Note_on_c, 2, 58, 63
4, 784128, Note_on_c, 2, 53, 63
4, 784128, Note_on_c, 2, 46, 63
4, 786432, Note_off_c, 2, 46, 80
4, 786432, Note_off_c, 2, 53, 80
4, 786432, Note_off_c, 2, 58, 80
4, 786432, Note_on_c, 2, 67, 63
4, 786432, Note_on_c, 2, 62, 63
4, 786432, Note_on_c, 2, 55, 63
4, 786432, Note_on_c, 2, 50, 63
4, 786432, Note_on_c, 2, 43, 63
4, 798720, Note_off_c, 2, 43, 80
4, 798720, Note_off_c, 2, 50, 80
4, 798720, Note_off_c, 2, 55, 80
4, 798720, Note_off_c, 2, 62, 80
4, 798720, Note_off_c, 2, 67, 80
4, 798720, Note_on_c, 2, 60, 63
4, 798720, Note_on_c, 2, 55, 63
4, 798720, Note_on_c, 2, 48, 63
4, 798720, Note_on_c, 2, 43, 63
4, 807936, Note_off_c, 2, 43, 80
4, 807936, Note_off_c, 2, 48, 80
4, 807936, Note_off_c, 2, 55, 80
4, 807936, Note_off_c, 2, 60, 80
4, 807936, Note_on_c, 2, 60, 63
4, 807936, Note_on_c, 2, 55, 63
4, 807936, Note_on_c, 2, 48, 63
4, 808704, Note_off_c, 2, 48, 80
4, 808704, Note_off_c, 2, 55, 80
4, 808704, Note_off_c, 2, 60, 80
4, 808704, Note_on_c, 2, 58, 63
4, 808704, Note_on_c, 2, 53, 63
4, 808704, Note_on_c, 2, 46, 63
4, 811008, Note_off_c, 2, 46, 80
4, 811008, Note_off_c, 2, 53, 80
4, 811008, Note_off_c, 2, 58, 80
4, 811008, Note_on_c, 2, 67, 63
4, 811008, Note_on_c, 2, 62, 63
4, 811008, Note_on_c, 2, 55, 63
4, 811008, Note_on_c, 2, 50, 63
4, 811008, Note_on_c, 2, 43, 63
4, 823296, Note_off_c, 2, 43, 80
4, 823296, Note_off_c, 2, 50, 80
4, 823296, Note_off_c, 2, 55, 80
4, 823296, Note_off_c, 2, 62, 80
4, 823296, Note_off_c, 2, 67, 80
4, 823296, Note_on_c, 2, 63, 63
4, 823296, Note_on_c, 2, 60, 63
4, 823296, Note_on_c, 2, 55, 63
4, 823296, Note_on_c, 2, 45, 63
4, 831744, Note_on_c, 2, 54, 63
4, 831744, Pitch_bend_c, 2, 6144
4, 832000, Pitch_bend_c, 2, 6784
4, 832256, Pitch_bend_c, 2, 7552
4, 832512, Note_off_c, 2, 45, 80
4, 832512, Note_off_c, 2, 55, 80
4, 832512, Note_off_c, 2, 60, 80
4, 832512, Note_off_c, 2, 63, 80
4, 832512, Pitch_bend_c, 2, 8192
4, 833280, Pitch_bend_c, 2, 7552
4, 833606, Pitch_bend_c, 2, 6784
4, 833939, Pitch_bend_c, 2, 6144
4, 834265, Pitch_bend_c, 2, 5504
4, 834598, Pitch_bend_c, 2, 4736
4, 834924, Pitch_bend_c, 2, 4096
4, 835257, Pitch_bend_c, 2, 3456
4, 835584, Note_off_c, 2, 54, 80
4, 835584, Pitch_bend_c, 2, 8192
4, 835584, Note_on_c, 2, 62, 63
4, 835584, Note_on_c, 2, 57, 63
4, 835584, Note_on_c, 2, 50, 63
4, 835584, Note_on_c, 2, 45, 63
4, 847872, Note_off_c, 2, 45, 80
4, 847872, Note_off_c, 2, 50, 80
4, 847872, Note_off_c, 2, 57, 80
4, 847872, Note_off_c, 2, 62, 80
4, 847872, Note_on_c, 2, 67, 63
4, 847904, Note_on_c, 2, 62, 63
4, 847936, Note_on_c, 2, 58, 63
4, 847968, Note_on_c, 2, 55, 63
4, 848000, Note_on_c, 2, 50, 63
4, 848032, Note_on_c, 2, 43, 63
4, 860160, Note_off_c, 2, 43, 80
4, 860160, Note_off_c, 2, 50, 80
4, 860160, Note_off_c, 2, 55, 80
4, 860160, Note_off_c, 2, 58, 80
4, 860160, Note_off_c, 2, 62, 80
4, 860160, Note_off_c, 2, 67, 80
4, 860160, End_track
5, 0, Start_track
5, 0, Title_t, "Distorted [Right]"
5, 2304, Control_c, 3, 100, 0
5, 2304, Control_c, 3, 101, 0
5, 2304, Control_c, 3, 6, 12
5, 2304, Pitch_bend_c, 3, 8192
5, 2304, Control_c, 3, 38, 0
5, 2304, Program_c, 3, 29
5, 2304, Control_c, 3, 0, 0
5, 2304, Control_c, 3, 7, 104
5, 2304, Control_c, 3, 10, 96
5, 2304, Control_c, 3, 93, 0
5, 2304, Control_c, 3, 91, 0
5, 2304, Control_c, 3, 92, 0
5, 2304, Control_c, 3, 95, 0
5, 340224, Note_on_c, 3, 55, 79
5, 340224, Pitch_bend_c, 3, 6144
5, 340480, Pitch_bend_c, 3, 6784
5, 340736, Pitch_bend_c, 3, 7552
5, 340992, Pitch_bend_c, 3, 8192
5, 341568, Pitch_bend_c, 3, 7552
5, 341817, Pitch_bend_c, 3, 6784
5, 342060, Pitch_bend_c, 3, 6144
5, 342310, Pitch_bend_c, 3, 5504
5, 342553, Pitch_bend_c, 3, 4736
5, 342803, Pitch_bend_c, 3, 4096
5, 343046, Pitch_bend_c, 3, 3456
5, 343296, Note_off_c, 3, 55, 80
5, 343296, Pitch_bend_c, 3, 8192
5, 343296, Note_on_c, 3, 40, 79
5, 343424, Note_off_c, 3, 40, 80
5, 344064, Note_on_c, 3, 66, 79
5, 344064, Note_on_c, 3, 61, 79
5, 344064, Note_on_c, 3, 55, 79
5, 344064, Note_on_c, 3, 51, 79
5, 347136, Note_off_c, 3, 51, 80
5, 347136, Note_off_c, 3, 55, 80
5, 347136, Note_off_c, 3, 61, 80
5, 347136, Note_off_c, 3, 66, 80
5, 347136, Note_on_c, 3, 66, 79
5, 347136, Note_on_c, 3, 61, 79
5, 347136, Note_on_c, 3, 55, 79
5, 347136, Note_on_c, 3, 51, 79
5, 347264, Note_off_c, 3, 51, 80
5, 347264, Note_off_c, 3, 55, 80
5, 347264, Note_off_c, 3, 61, 80
5, 347264, Note_off_c, 3, 66, 80
5, 347904, Note_on_c, 3, 66, 79
5, 347904, Note_on_c, 3, 61, 79
5, 347904, Note_on_c, 3, 55, 79
5, 347904, Note_on_c, 3, 51, 79
5, 348032, Note_off_c, 3, 51, 80
5, 348032, Note_off_c, 3, 55, 80
5, 348032, Note_off_c, 3, 61, 80
5, 348032, Note_off_c, 3, 66, 80
5, 348672, Note_on_c, 3, 66, 79
5, 348672, Note_on_c, 3, 61, 79
5, 348672, Note_on_c, 3, 55, 79
5, 348672, Note_on_c, 3, 51, 79
5, 352512, Note_on_c, 3, 60, 79
5, 352512, Pitch_bend_c, 3, 6144
5, 352768, Pitch_bend_c, 3, 6784
5, 353024, Pitch_bend_c, 3, 7552
5, 353280, Note_off_c, 3, 51, 80
5, 353280, Note_off_c, 3, 55, 80
5, 353280, Note_off_c, 3, 61, 80
5, 353280, Note_off_c, 3, 66, 80
5, 353280, Pitch_bend_c, 3, 8192
5, 354048, Pitch_bend_c, 3, 7552
5, 354374, Pitch_bend_c, 3, 6784
5, 354707, Pitch_bend_c, 3, 6144
5, 355033, Pitch_bend_c, 3, 5504
5, 355366, Pitch_bend_c, 3, 4736
5, 355692, Pitch_bend_c, 3, 4096
5, 356025, Pitch_bend_c, 3, 3456
5, 356352, Note_off_c, 3, 60, 80
5, 356352, Pitch_bend_c, 3, 8192
5, 356352, Note_on_c, 3, 64, 79
5, 356352, Note_on_c, 3, 60, 79
5, 356352, Note_on_c, 3, 54, 79
5, 356352, Note_on_c, 3, 50, 79
5, 359424, Note_off_c, 3, 50, 80
5, 359424, Note_off_c, 3, 54, 80
5, 359424, Note_off_c, 3, 60, 80
5, 359424, Note_off_c, 3, 64, 80
5, 359424, Note_on_c, 3, 64, 79
5, 359424, Note_on_c, 3, 60, 79
5, 359424, Note_on_c, 3, 54, 79
5, 359424, Note_on_c, 3, 50, 79
5, 359552, Note_off_c, 3, 50, 80
5, 359552, Note_off_c, 3, 54, 80
5, 359552, Note_off_c, 3, 60, 80
5, 359552, Note_off_c, 3, 64, 80
5, 360192, Note_on_c, 3, 64, 79
5, 360192, Note_on_c, 3, 60, 79
5, 360192, Note_on_c, 3, 54, 79
5, 360192, Note_on_c, 3, 50, 79
5, 360320, Note_off_c, 3, 50, 80
5, 360320, Note_off_c, 3, 54, 80
5, 360320, Note_off_c, 3, 60, 80
5, 360320, Note_off_c, 3, 64, 80
5, 360960, Note_on_c, 3, 64, 79
5, 360960, Note_on_c, 3, 60, 79
5, 360960, Note_on_c, 3, 54, 79
5, 360960, Note_on_c, 3, 50, 79
5, 365568, Note_off_c, 3, 50, 80
5, 365568, Note_off_c, 3, 54, 80
5, 365568, Note_off_c, 3, 60, 80
5, 365568, Note_off_c, 3, 64, 80
5, 365568, Note_on_c, 3, 48, 79
5, 366336, Note_off_c, 3, 48, 80
5, 366336, Note_on_c, 3, 46, 79
5, 366336, Pitch_bend_c, 3, 8192
5, 366355, Pitch_bend_c, 3, 8192
5, 366374, Pitch_bend_c, 3, 8192
5, 366387, Pitch_bend_c, 3, 8192
5, 366406, Pitch_bend_c, 3, 8192
5, 366425, Pitch_bend_c, 3, 8192
5, 366444, Pitch_bend_c, 3, 8192
5, 366464, Pitch_bend_c, 3, 8192
5, 366476, Pitch_bend_c, 3, 8192
5, 366496, Pitch_bend_c, 3, 8192
5, 366515, Pitch_bend_c, 3, 8192
5, 366534, Pitch_bend_c, 3, 8192
5, 366553, Pitch_bend_c, 3, 8192
5, 366572, Pitch_bend_c, 3, 8192
5, 366585, Pitch_bend_c, 3, 8192
5, 366604, Pitch_bend_c, 3, 8192
5, 366624, Pitch_bend_c, 3, 8192
5, 366643, Pitch_bend_c, 3, 8192
5, 366662, Pitch_bend_c, 3, 8192
5, 366675, Pitch_bend_c, 3, 8192
5, 366694, Pitch_bend_c, 3, 8192
5, 366713, Pitch_bend_c, 3, 8192
5, 366732, Pitch_bend_c, 3, 8192
5, 366752, Pitch_bend_c, 3, 8192
5, 366771, Pitch_bend_c, 3, 8192
5, 366784, Pitch_bend_c, 3, 8192
5, 366803, Pitch_bend_c, 3, 8192
5, 366822, Pitch_bend_c, 3, 8192
5, 366841, Pitch_bend_c, 3, 8192
5, 366860, Pitch_bend_c, 3, 8192
5, 366873, Pitch_bend_c, 3, 8192
5, 366892, Pitch_bend_c, 3, 8192
5, 366912, Pitch_bend_c, 3, 8192
5, 366931, Pitch_bend_c, 3, 8192
5, 366950, Pitch_bend_c, 3, 8320
5, 366963, Pitch_bend_c, 3, 8320
5, 366982, Pitch_bend_c, 3, 8320
5, 367001, Pitch_bend_c, 3, 8320
5, 367020, Pitch_bend_c, 3, 8320
5, 367040, Pitch_bend_c, 3, 8320
5, 367052, Pitch_bend_c, 3, 8320
5, 367072, Pitch_bend_c, 3, 8320
5, 367091, Pitch_bend_c, 3, 8320
5, 367110, Pitch_bend_c, 3, 8320
5, 367129, Pitch_bend_c, 3, 8320
5, 367148, Pitch_bend_c, 3, 8320
5, 367161, Pitch_bend_c, 3, 8320
5, 367180, Pitch_bend_c, 3, 8192
5, 367200, Pitch_bend_c, 3, 8192
5, 367219, Pitch_bend_c, 3, 8192
5, 367238, Pitch_bend_c, 3, 8064
5, 367251, Pitch_bend_c, 3, 8064
5, 367270, Pitch_bend_c, 3, 8064
5, 367289, Pitch_bend_c, 3, 8064
5, 367308, Pitch_bend_c, 3, 8064
5, 367328, Pitch_bend_c, 3, 8064
5, 367347, Pitch_bend_c, 3, 8064
5, 367360, Pitch_bend_c, 3, 8064
5, 367379, Pitch_bend_c, 3, 8064
5, 367398, Pitch_bend_c, 3, 8064
5, 367417, Pitch_bend_c, 3, 8064
5, 367436, Pitch_bend_c, 3, 8064
5, 367449, Pitch_bend_c, 3, 8064
5, 367468, Pitch_bend_c, 3, 8192
5, 367488, Pitch_bend_c, 3, 8192
5, 367507, Pitch_bend_c, 3, 8192
5, 367526, Pitch_bend_c, 3, 8320
5, 367539, Pitch_bend_c, 3, 8320
5, 367558, Pitch_bend_c, 3, 8320
5, 367577, Pitch_bend_c, 3, 8320
5, 367596, Pitch_bend_c, 3, 8320
5, 367616, Pitch_bend_c, 3, 8320
5, 367628, Pitch_bend_c, 3, 8320
5, 367648, Pitch_bend_c, 3, 8320
5, 367667, Pitch_bend_c, 3, 8320
5, 367686, Pitch_bend_c, 3, 8320
5, 367705, Pitch_bend_c, 3, 8320
5, 367724, Pitch_bend_c, 3, 8320
5, 367737, Pitch_bend_c, 3, 8320
5, 367756, Pitch_bend_c, 3, 8192
5, 367776, Pitch_bend_c, 3, 8192
5, 367795, Pitch_bend_c, 3, 8192
5, 367814, Pitch_bend_c, 3, 8064
5, 367827, Pitch_bend_c, 3, 8064
5, 367846, Pitch_bend_c, 3, 8064
5, 367865, Pitch_bend_c, 3, 8064
5, 367884, Pitch_bend_c, 3, 8064
5, 367904, Pitch_bend_c, 3, 8064
5, 367923, Pitch_bend_c, 3, 8064
5, 367936, Pitch_bend_c, 3, 8064
5, 367955, Pitch_bend_c, 3, 8064
5, 367974, Pitch_bend_c, 3, 8064
5, 367993, Pitch_bend_c, 3, 8064
5, 368012, Pitch_bend_c, 3, 8064
5, 368025, Pitch_bend_c, 3, 8064
5, 368044, Pitch_bend_c, 3, 8192
5, 368064, Pitch_bend_c, 3, 8192
5, 368083, Pitch_bend_c, 3, 8192
5, 368102, Pitch_bend_c, 3, 8320
5, 368115, Pitch_bend_c, 3, 8320
5, 368134, Pitch_bend_c, 3, 8320
5, 368153, Pitch_bend_c, 3, 8320
5, 368172, Pitch_bend_c, 3, 8320
5, 368192, Pitch_bend_c, 3, 8320
5, 368204, Pitch_bend_c, 3, 8320
5, 368224, Pitch_bend_c, 3, 8320
5, 368243, Pitch_bend_c, 3, 8320
5, 368262, Pitch_bend_c, 3, 8320
5, 368281, Pitch_bend_c, 3, 8320
5, 368300, Pitch_bend_c, 3, 8320
5, 368313, Pitch_bend_c, 3, 8320
5, 368332, Pitch_bend_c, 3, 8192
5, 368352, Pitch_bend_c, 3, 8192
5, 368371, Pitch_bend_c, 3, 8192
5, 368390, Pitch_bend_c, 3, 8064
5, 368403, Pitch_bend_c, 3, 8064
5, 368422, Pitch_bend_c, 3, 8064
5, 368441, Pitch_bend_c, 3, 8064
5, 368460, Pitch_bend_c, 3, 8064
5, 368480, Pitch_bend_c, 3, 8064
5, 368499, Pitch_bend_c, 3, 8064
5, 368512, Pitch_bend_c, 3, 8064
5, 368531, Pitch_bend_c, 3, 8064
5, 368550, Pitch_bend_c, 3, 8064
5, 368569, Pitch_bend_c, 3, 8064
5, 368588, Pitch_bend_c, 3, 8064
5, 368601, Pitch_bend_c, 3, 8064
5, 368620, Pitch_bend_c, 3, 8192
5, 368640, Note_off_c, 3, 46, 80
5, 368640, Pitch_bend_c, 3, 8192
5, 368640, Note_on_c, 3, 67, 79
5, 368640, Note_on_c, 3, 62, 79
5, 368640, Note_on_c, 3, 55, 79
5, 368640, Note_on_c, 3, 50, 79
5, 368640, Note_on_c, 3, 43, 79
5, 373248, Note_off_c, 3, 43, 80
5, 373248, Note_off_c, 3, 50, 80
5, 373248, Note_off_c, 3, 55, 80
5, 373248, Note_off_c, 3, 62, 80
5, 373248, Note_off_c, 3, 67, 80
5, 373248, Note_on_c, 3, 67, 79
5, 373248, Note_on_c, 3, 62, 79
5, 373248, Note_on_c, 3, 55, 79
5, 373248, Note_on_c, 3, 50, 79
5, 373248, Note_on_c, 3, 43, 79
5, 380928, Note_off_c, 3, 43, 80
5, 380928, Note_off_c, 3, 50, 80
5, 380928, Note_off_c, 3, 55, 80
5, 380928, Note_off_c, 3, 62, 80
5, 380928, Note_off_c, 3, 67, 80
5, 380928, Note_on_c, 3, 60, 79
5, 380928, Note_on_c, 3, 55, 79
5, 380928, Note_on_c, 3, 48, 79
5, 384000, Note_off_c, 3, 48, 80
5, 384000, Note_off_c, 3, 55, 80
5, 384000, Note_off_c, 3, 60, 80
5, 384000, Note_on_c, 3, 48, 63
5, 384768, Note_off_c, 3, 48, 80
5, 384768, Note_on_c, 3, 48, 63
5, 385536, Note_off_c, 3, 48, 80
5, 385536, Note_on_c, 3, 60, 79
5, 385536, Note_on_c, 3, 55, 79
5, 385536, Note_on_c, 3, 48, 79
5, 390144, Note_off_c, 3, 48, 80
5, 390144, Note_off_c, 3, 55, 80
5, 390144, Note_off_c, 3, 60, 80
5, 390144, Note_on_c, 3, 48, 79
5, 390912, Note_off_c, 3, 48, 80
5, 390912, Note_on_c, 3, 46, 79
5, 390912, Pitch_bend_c, 3, 8192
5, 390931, Pitch_bend_c, 3, 8192
5, 390950, Pitch_bend_c, 3, 8192
5, 390963, Pitch_bend_c, 3, 8192
5, 390982, Pitch_bend_c, 3, 8192
5, 391001, Pitch_bend_c, 3, 8192
5, 391020, Pitch_bend_c, 3, 8192
5, 391040, Pitch_bend_c, 3, 8192
5, 391052, Pitch_bend_c, 3, 8192
5, 391072, Pitch_bend_c, 3, 8192
5, 391091, Pitch_bend_c, 3, 8192
5, 391110, Pitch_bend_c, 3, 8192
5, 391129, Pitch_bend_c, 3, 8192
5, 391148, Pitch_bend_c, 3, 8192
5, 391161, Pitch_bend_c, 3, 8192
5, 391180, Pitch_bend_c, 3, 8192
5, 391200, Pitch_bend_c, 3, 8192
5, 391219, Pitch_bend_c, 3, 8192
5, 391238, Pitch_bend_c, 3, 8192
5, 391251, Pitch_bend_c, 3, 8192
5, 391270, Pitch_bend_c, 3, 8192
5, 391289, Pitch_bend_c, 3, 8192
5, 391308, Pitch_bend_c, 3, 8192
5, 391328, Pitch_bend_c, 3, 8192
5, 391347, Pitch_bend_c, 3, 8192
5, 391360, Pitch_bend_c, 3, 8192
5, 391379, Pitch_bend_c, 3, 8192
5, 391398, Pitch_bend_c, 3, 8192
5, 391417, Pitch_bend_c, 3, 8192
5, 391436, Pitch_bend_c, 3, 8192
5, 391449, Pitch_bend_c, 3, 8192
5, 391468, Pitch_bend_c, 3, 8192
5, 391488, Pitch_bend_c, 3, 8192
5, 391507, Pitch_bend_c, 3, 8192
5, 391526, Pitch_bend_c, 3, 8320
5, 391539, Pitch_bend_c, 3, 8320
5, 391558, Pitch_bend_c, 3, 8320
5, 391577, Pitch_bend_c, 3, 8448
5, 391596, Pitch_bend_c, 3, 8448
5, 391616, Pitch_bend_c, 3, 8448
5, 391628, Pitch_bend_c, 3, 8448
5, 391648, Pitch_bend_c, 3, 8448
5, 391667, Pitch_bend_c, 3, 8448
5, 391686, Pitch_bend_c, 3, 8448
5, 391705, Pitch_bend_c, 3, 8320
5, 391724, Pitch_bend_c, 3, 8320
5, 391737, Pitch_bend_c, 3, 8320
5, 391756, Pitch_bend_c, 3, 8192
5, 391776, Pitch_bend_c, 3, 8192
5, 391795, Pitch_bend_c, 3, 8192
5, 391814, Pitch_bend_c, 3, 8064
5, 391827, Pitch_bend_c, 3, 8064
5, 391846, Pitch_bend_c, 3, 8064
5, 391865, Pitch_bend_c, 3, 7936
5, 391884, Pitch_bend_c, 3, 7936
5, 391904, Pitch_bend_c, 3, 7936
5, 391923, Pitch_bend_c, 3, 7936
5, 391936, Pitch_bend_c, 3, 7936
5, 391955, Pitch_bend_c, 3, 7936
5, 391974, Pitch_bend_c, 3, 7936
5, 391993, Pitch_bend_c, 3, 8064
5, 392012, Pitch_bend_c, 3, 8064
5, 392025, Pitch_bend_c, 3, 8064
5, 392044, Pitch_bend_c, 3, 8192
5, 392064, Pitch_bend_c, 3, 8192
5, 392083, Pitch_bend_c, 3, 8192
5, 392102, Pitch_bend_c, 3, 8320
5, 392115, Pitch_bend_c, 3, 8320
5, 392134, Pitch_bend_c, 3, 8320
5, 392153, Pitch_bend_c, 3, 8320
5, 392172, Pitch_bend_c, 3, 8448
5, 392192, Pitch_bend_c, 3, 8448
5, 392204, Pitch_bend_c, 3, 8448
5, 392224, Pitch_bend_c, 3, 8448
5, 392243, Pitch_bend_c, 3, 8448
5, 392262, Pitch_bend_c, 3, 8320
5, 392281, Pitch_bend_c, 3, 8320
5, 392300, Pitch_bend_c, 3, 8320
5, 392313, Pitch_bend_c, 3, 8320
5, 392332, Pitch_bend_c, 3, 8192
5, 392352, Pitch_bend_c, 3, 8192
5, 392371, Pitch_bend_c, 3, 8192
5, 392390, Pitch_bend_c, 3, 8064
5, 392403, Pitch_bend_c, 3, 8064
5, 392422, Pitch_bend_c, 3, 8064
5, 392441, Pitch_bend_c, 3, 8064
5, 392460, Pitch_bend_c, 3, 7936
5, 392480, Pitch_bend_c, 3, 7936
5, 392499, Pitch_bend_c, 3, 7936
5, 392512, Pitch_bend_c, 3, 7936
5, 392531, Pitch_bend_c, 3, 7936
5, 392550, Pitch_bend_c, 3, 8064
5, 392569, Pitch_bend_c, 3, 8064
5, 392588, Pitch_bend_c, 3, 8064
5, 392601, Pitch_bend_c, 3, 8064
5, 392620, Pitch_bend_c, 3, 8192
5, 392640, Pitch_bend_c, 3, 8192
5, 392659, Pitch_bend_c, 3, 8192
5, 392678, Pitch_bend_c, 3, 8320
5, 392691, Pitch_bend_c, 3, 8320
5, 392710, Pitch_bend_c, 3, 8320
5, 392729, Pitch_bend_c, 3, 8320
5, 392748, Pitch_bend_c, 3, 8320
5, 392768, Pitch_bend_c, 3, 8320
5, 392780, Pitch_bend_c, 3, 8320
5, 392800, Pitch_bend_c, 3, 8320
5, 392819, Pitch_bend_c, 3, 8320
5, 392838, Pitch_bend_c, 3, 8320
5, 392857, Pitch_bend_c, 3, 8320
5, 392876, Pitch_bend_c, 3, 8320
5, 392889, Pitch_bend_c, 3, 8320
5, 392908, Pitch_bend_c, 3, 8192
5, 392928, Pitch_bend_c, 3, 8192
5, 392947, Pitch_bend_c, 3, 8192
5, 392966, Pitch_bend_c, 3, 8064
5, 392979, Pitch_bend_c, 3, 8064
5, 392998, Pitch_bend_c, 3, 8064
5, 393017, Pitch_bend_c, 3, 8064
5, 393036, Pitch_bend_c, 3, 8064
5, 393056, Pitch_bend_c, 3, 8064
5, 393075, Pitch_bend_c, 3, 8064
5, 393088, Pitch_bend_c, 3, 8064
5, 393107, Pitch_bend_c, 3, 8064
5, 393126, Pitch_bend_c, 3, 8064
5, 393145, Pitch_bend_c, 3, 8064
5, 393164, Pitch_bend_c, 3, 8064
5, 393177, Pitch_bend_c, 3, 8064
5, 393196, Pitch_bend_c, 3, 8192
5, 393216, Note_off_c, 3, 46, 80
5, 393216, Pitch_bend_c, 3, 8192
5, 393216, Note_on_c, 3, 67, 79
5, 393216, Note_on_c, 3, 62, 79
5, 393216, Note_on_c, 3, 55, 79
5, 393216, Note_on_c, 3, 50, 79
5, 393216, Note_on_c, 3, 43, 79
5, 397056, Note_off_c, 3, 43, 80
5, 397056, Note_off_c, 3, 50, 80
5, 397056, Note_off_c, 3, 55, 80
5, 397056, Note_off_c, 3, 62, 80
5, 397056, Note_off_c, 3, 67, 80
5, 397056, Note_on_c, 3, 41, 79
5, 397056, Pitch_bend_c, 3, 8192
5, 397158, Pitch_bend_c, 3, 8448
5, 397260, Pitch_bend_c, 3, 8576
5, 397824, Note_off_c, 3, 41, 80
5, 397824, Pitch_bend_c, 3, 8192
5, 397824, Note_on_c, 3, 55, 79
5, 397824, Note_on_c, 3, 50, 79
5, 397824, Note_on_c, 3, 43, 79
5, 403200, Note_off_c, 3, 43, 80
5, 403200, Note_off_c, 3, 50, 80
5, 403200, Note_off_c, 3, 55, 80
5, 403200, Note_on_c, 3, 58, 79
5, 403200, Note_on_c, 3, 53, 79
5, 403200, Note_on_c, 3, 46, 79
5, 405504, Note_off_c, 3, 46, 80
5, 405504, Note_off_c, 3, 53, 80
5, 405504, Note_off_c, 3, 58, 80
5, 405504, Note_on_c, 3, 60, 79
5, 405504, Note_on_c, 3, 55, 79
5, 405504, Note_on_c, 3, 48, 79
5, 410880, Note_off_c, 3, 48, 80
5, 410880, Note_off_c, 3, 55, 80
5, 410880, Note_off_c, 3, 60, 80
5, 410880, Note_on_c, 3, 48, 63
5, 411648, Note_off_c, 3, 48, 80
5, 411648, Note_on_c, 3, 60, 79
5, 411648, Note_on_c, 3, 55, 79
5, 411648, Note_on_c, 3, 48, 79
5, 413184, Note_off_c, 3, 48, 80
5, 413184, Note_off_c, 3, 55, 80
5, 413184, Note_off_c, 3, 60, 80
5, 413184, Note_on_c, 3, 60, 79
5, 413184, Note_on_c, 3, 55, 79
5, 413184, Note_on_c, 3, 48, 79
5, 414720, Note_off_c, 3, 48, 80
5, 414720, Note_off_c, 3, 55, 80
5, 414720, Note_off_c, 3, 60, 80
5, 414720, Note_on_c, 3, 60, 79
5, 414720, Note_on_c, 3, 55, 79
5, 414720, Note_on_c, 3, 48, 79
5, 415488, Note_off_c, 3, 48, 80
5, 415488, Note_off_c, 3, 55, 80
5, 415488, Note_off_c, 3, 60, 80
5, 415488, Note_on_c, 3, 58, 79
5, 415488, Note_on_c, 3, 53, 79
5, 415488, Note_on_c, 3, 46, 79
5, 417792, Note_off_c, 3, 46, 80
5, 417792, Note_off_c, 3, 53, 80
5, 417792, Note_off_c, 3, 58, 80
5, 417792, Note_on_c, 3, 63, 63
5, 417792, Note_on_c, 3, 58, 63
5, 417792, Note_on_c, 3, 51, 63
5, 430080, Note_off_c, 3, 51, 80
5, 430080, Note_off_c, 3, 58, 80
5, 430080, Note_off_c, 3, 63, 80
5, 430080, Note_on_c, 3, 77, 63
5, 430080, Note_on_c, 3, 70, 63
5, 436224, Note_off_c, 3, 70, 80
5, 436224, Note_off_c, 3, 77, 80
5, 436224, Note_on_c, 3, 74, 63
5, 436224, Note_on_c, 3, 70, 63
5, 438528, Note_off_c, 3, 74, 80
5, 438528, Note_on_c, 3, 75, 63
5, 440064, Note_off_c, 3, 75, 80
5, 440064, Note_on_c, 3, 77, 63
5, 442368, Note_off_c, 3, 77, 80
5, 442368, Note_off_c, 3, 70, 80
5, 442368, Note_on_c, 3, 79, 79
5, 442368, Note_on_c, 3, 75, 79
5, 448512, Note_off_c, 3, 79, 80
5, 448512, Note_on_c, 3, 80, 79
5, 451584, Note_off_c, 3, 80, 80
5, 451584, Note_on_c, 3, 79, 79
5, 453888, Note_on_c, 3, 70, 79
5, 453888, Pitch_bend_c, 3, 10240
5, 454144, Pitch_bend_c, 3, 9600
5, 454400, Pitch_bend_c, 3, 8832
5, 454656, Note_off_c, 3, 79, 80
5, 454656, Note_off_c, 3, 75, 80
5, 454656, Note_on_c, 3, 77, 79
5, 454656, Pitch_bend_c, 3, 8192
5, 460800, Note_off_c, 3, 77, 80
5, 460800, Note_on_c, 3, 74, 79
5, 463104, Note_off_c, 3, 74, 80
5, 463104, Note_on_c, 3, 75, 79
5, 464640, Note_off_c, 3, 75, 80
5, 464640, Note_on_c, 3, 77, 79
5, 466944, Note_off_c, 3, 77, 80
5, 466944, Note_off_c, 3, 70, 80
5, 466944, Note_on_c, 3, 79, 79
5, 466944, Note_on_c, 3, 75, 79
5, 473088, Note_off_c, 3, 79, 80
5, 473088, Note_on_c, 3, 80, 79
5, 476160, Note_off_c, 3, 80, 80
5, 476160, Note_on_c, 3, 79, 79
5, 478464, Note_on_c, 3, 70, 79
5, 478464, Pitch_bend_c, 3, 10240
5, 478720, Pitch_bend_c, 3, 9600
5, 478976, Pitch_bend_c, 3, 8832
5, 479232, Note_off_c, 3, 79, 80
5, 479232, Note_off_c, 3, 75, 80
5, 479232, Note_on_c, 3, 77, 79
5, 479232, Pitch_bend_c, 3, 8192
5, 485376, Note_off_c, 3, 77, 80
5, 485376, Note_on_c, 3, 74, 79
5, 487680, Note_off_c, 3, 74, 80
5, 487680, Note_on_c, 3, 75, 79
5, 489216, Note_off_c, 3, 75, 80
5, 489216, Note_on_c, 3, 77, 79
5, 491520, Note_off_c, 3, 77, 80
5, 491520, Note_off_c, 3, 70, 80
5, 491520, Note_on_c, 3, 79, 79
5, 491520, Note_on_c, 3, 75, 79
5, 497664, Note_off_c, 3, 79, 80
5, 497664, Note_on_c, 3, 80, 79
5, 500736, Note_off_c, 3, 80, 80
5, 500736, Note_on_c, 3, 79, 79
5, 503040, Note_on_c, 3, 70, 79
5, 503040, Pitch_bend_c, 3, 10240
5, 503296, Pitch_bend_c, 3, 9600
5, 503552, Pitch_bend_c, 3, 8832
5, 503808, Note_off_c, 3, 79, 80
5, 503808, Note_off_c, 3, 75, 80
5, 503808, Note_on_c, 3, 77, 79
5, 503808, Pitch_bend_c, 3, 8192
5, 509952, Note_off_c, 3, 77, 80
5, 509952, Note_on_c, 3, 74, 79
5, 512256, Note_off_c, 3, 74, 80
5, 512256, Note_on_c, 3, 75, 79
5, 513792, Note_off_c, 3, 75, 80
5, 513792, Note_on_c, 3, 77, 79
5, 516096, Note_off_c, 3, 77, 80
5, 516096, Note_off_c, 3, 70, 80
5, 516096, Note_on_c, 3, 79, 79
5, 516096, Note_on_c, 3, 75, 79
5, 522240, Note_off_c, 3, 79, 80
5, 522240, Note_on_c, 3, 80, 79
5, 527616, Note_on_c, 3, 82, 79
5, 527616, Pitch_bend_c, 3, 6144
5, 527616, Note_on_c, 3, 77, 79
5, 527872, Pitch_bend_c, 3, 6784
5, 528128, Pitch_bend_c, 3, 7552
5, 528384, Note_off_c, 3, 80, 80
5, 528384, Note_off_c, 3, 75, 80
5, 528384, Pitch_bend_c, 3, 8192
5, 534528, Note_off_c, 3, 77, 80
5, 534528, Note_off_c, 3, 82, 80
5, 534528, Note_on_c, 3, 79, 79
5, 534528, Note_on_c, 3, 75, 79
5, 537600, Note_off_c, 3, 75, 80
5, 537600, Note_off_c, 3, 79, 80
5, 537600, Note_on_c, 3, 77, 79
5, 537600, Note_on_c, 3, 74, 79
5, 539904, Note_on_c, 3, 75, 79
5, 539904, Pitch_bend_c, 3, 10240
5, 539904, Note_on_c, 3, 72, 79
5, 540160, Pitch_bend_c, 3, 9600
5, 540416, Pitch_bend_c, 3, 8832
5, 540672, Note_off_c, 3, 74, 80
5, 540672, Note_off_c, 3, 77, 80
5, 540672, Pitch_bend_c, 3, 8192
5, 546048, Note_off_c, 3, 72, 80
5, 546048, Note_off_c, 3, 75, 80
5, 546048, Note_on_c, 3, 72, 79
5, 546048, Pitch_bend_c, 3, 10240
5, 546048, Note_on_c, 3, 69, 79
5, 546304, Pitch_bend_c, 3, 9600
5, 546560, Pitch_bend_c, 3, 8832
5, 546816, Pitch_bend_c, 3, 8192
5, 552960, Note_off_c, 3, 69, 80
5, 552960, Note_off_c, 3, 72, 80
5, 552960, Note_on_c, 3, 70, 79
5, 552960, Note_on_c, 3, 62, 79
5, 558336, Note_off_c, 3, 62, 80
5, 558336, Note_off_c, 3, 70, 80
5, 558336, Note_on_c, 3, 74, 79
5, 558336, Pitch_bend_c, 3, 6144
5, 558336, Note_on_c, 3, 66, 79
5, 558592, Pitch_bend_c, 3, 6784
5, 558848, Pitch_bend_c, 3, 7552
5, 559104, Pitch_bend_c, 3, 8192
5, 565248, Note_off_c, 3, 66, 80
5, 565248, Note_off_c, 3, 74, 80
5, 565248, Note_on_c, 3, 79, 79
5, 565248, Pitch_bend_c, 3, 8192
5, 565248, Note_on_c, 3, 70, 79
5, 565267, Pitch_bend_c, 3, 8192
5, 565286, Pitch_bend_c, 3, 8192
5, 565299, Pitch_bend_c, 3, 8192
5, 565318, Pitch_bend_c, 3, 8192
5, 565337, Pitch_bend_c, 3, 8192
5, 565356, Pitch_bend_c, 3, 8192
5, 565376, Pitch_bend_c, 3, 8192
5, 565388, Pitch_bend_c, 3, 8192
5, 565408, Pitch_bend_c, 3, 8192
5, 565427, Pitch_bend_c, 3, 8192
5, 565446, Pitch_bend_c, 3, 8192
5, 565465, Pitch_bend_c, 3, 8192
5, 565484, Pitch_bend_c, 3, 8192
5, 565497, Pitch_bend_c, 3, 8192
5, 565516, Pitch_bend_c, 3, 8192
5, 565536, Pitch_bend_c, 3, 8192
5, 565555, Pitch_bend_c, 3, 8192
5, 565574, Pitch_bend_c, 3, 8192
5, 565587, Pitch_bend_c, 3, 8192
5, 565606, Pitch_bend_c, 3, 8192
5, 565625, Pitch_bend_c, 3, 8192
5, 565644, Pitch_bend_c, 3, 8192
5, 565664, Pitch_bend_c, 3, 8192
5, 565683, Pitch_bend_c, 3, 8192
5, 565696, Pitch_bend_c, 3, 8192
5, 565715, Pitch_bend_c, 3, 8192
5, 565734, Pitch_bend_c, 3, 8192
5, 565753, Pitch_bend_c, 3, 8192
5, 565772, Pitch_bend_c, 3, 8192
5, 565785, Pitch_bend_c, 3, 8192
5, 565804, Pitch_bend_c, 3, 8192
5, 565824, Pitch_bend_c, 3, 8192
5, 565843, Pitch_bend_c, 3, 8192
5, 565862, Pitch_bend_c, 3, 8192
5, 565875, Pitch_bend_c, 3, 8192
5, 565894, Pitch_bend_c, 3, 8192
5, 565913, Pitch_bend_c, 3, 8192
5, 565932, Pitch_bend_c, 3, 8320
5, 565952, Pitch_bend_c, 3, 8320
5, 565964, Pitch_bend_c, 3, 8320
5, 565984, Pitch_bend_c, 3, 8320
5, 566003, Pitch_bend_c, 3, 8320
5, 566022, Pitch_bend_c, 3, 8192
5, 566041, Pitch_bend_c, 3, 8192
5, 566060, Pitch_bend_c, 3, 8192
5, 566073, Pitch_bend_c, 3, 8192
5, 566092, Pitch_bend_c, 3, 8192
5, 566112, Pitch_bend_c, 3, 8192
5, 566131, Pitch_bend_c, 3, 8192
5, 566150, Pitch_bend_c, 3, 8192
5, 566163, Pitch_bend_c, 3, 8192
5, 566182, Pitch_bend_c, 3, 8192
5, 566201, Pitch_bend_c, 3, 8192
5, 566220, Pitch_bend_c, 3, 8064
5, 566240, Pitch_bend_c, 3, 8064
5, 566259, Pitch_bend_c, 3, 8064
5, 566272, Pitch_bend_c, 3, 8064
5, 566291, Pitch_bend_c, 3, 8064
5, 566310, Pitch_bend_c, 3, 8192
5, 566329, Pitch_bend_c, 3, 8192
5, 566348, Pitch_bend_c, 3, 8192
5, 566361, Pitch_bend_c, 3, 8192
5, 566380, Pitch_bend_c, 3, 8192
5, 566400, Pitch_bend_c, 3, 8192
5, 566419, Pitch_bend_c, 3, 8192
5, 566438, Pitch_bend_c, 3, 8320
5, 566451, Pitch_bend_c, 3, 8320
5, 566470, Pitch_bend_c, 3, 8320
5, 566489, Pitch_bend_c, 3, 8320
5, 566508, Pitch_bend_c, 3, 8320
5, 566528, Pitch_bend_c, 3, 8320
5, 566540, Pitch_bend_c, 3, 8320
5, 566560, Pitch_bend_c, 3, 8320
5, 566579, Pitch_bend_c, 3, 8320
5, 566598, Pitch_bend_c, 3, 8320
5, 566617, Pitch_bend_c, 3, 8320
5, 566636, Pitch_bend_c, 3, 8320
5, 566649, Pitch_bend_c, 3, 8320
5, 566668, Pitch_bend_c, 3, 8192
5, 566688, Pitch_bend_c, 3, 8192
5, 566707, Pitch_bend_c, 3, 8192
5, 566726, Pitch_bend_c, 3, 8064
5, 566739, Pitch_bend_c, 3, 8064
5, 566758, Pitch_bend_c, 3, 8064
5, 566777, Pitch_bend_c, 3, 8064
5, 566796, Pitch_bend_c, 3, 8064
5, 566816, Pitch_bend_c, 3, 8064
5, 566835, Pitch_bend_c, 3, 8064
5, 566848, Pitch_bend_c, 3, 8064
5, 566867, Pitch_bend_c, 3, 8064
5, 566886, Pitch_bend_c, 3, 8064
5, 566905, Pitch_bend_c, 3, 8064
5, 566924, Pitch_bend_c, 3, 8064
5, 566937, Pitch_bend_c, 3, 8064
5, 566956, Pitch_bend_c, 3, 8192
5, 566976, Pitch_bend_c, 3, 8192
5, 566995, Pitch_bend_c, 3, 8192
5, 567014, Pitch_bend_c, 3, 8320
5, 567027, Pitch_bend_c, 3, 8320
5, 567046, Pitch_bend_c, 3, 8320
5, 567065, Pitch_bend_c, 3, 8320
5, 567084, Pitch_bend_c, 3, 8320
5, 567104, Pitch_bend_c, 3, 8320
5, 567116, Pitch_bend_c, 3, 8320
5, 567136, Pitch_bend_c, 3, 8320
5, 567155, Pitch_bend_c, 3, 8320
5, 567174, Pitch_bend_c, 3, 8320
5, 567193, Pitch_bend_c, 3, 8320
5, 567212, Pitch_bend_c, 3, 8320
5, 567225, Pitch_bend_c, 3, 8320
5, 567244, Pitch_bend_c, 3, 8192
5, 567264, Pitch_bend_c, 3, 8192
5, 567283, Pitch_bend_c, 3, 8192
5, 567302, Pitch_bend_c, 3, 8064
5, 567315, Pitch_bend_c, 3, 8064
5, 567334, Pitch_bend_c, 3, 8064
5, 567353, Pitch_bend_c, 3, 8064
5, 567372, Pitch_bend_c, 3, 8064
5, 567392, Pitch_bend_c, 3, 8064
5, 567411, Pitch_bend_c, 3, 8064
5, 567424, Pitch_bend_c, 3, 8064
5, 567443, Pitch_bend_c, 3, 8064
5, 567462, Pitch_bend_c, 3, 8064
5, 567481, Pitch_bend_c, 3, 8064
5, 567500, Pitch_bend_c, 3, 8064
5, 567513, Pitch_bend_c, 3, 8064
5, 567532, Pitch_bend_c, 3, 8192
5, 567552, Pitch_bend_c, 3, 8192
5, 567571, Pitch_bend_c, 3, 8192
5, 567590, Pitch_bend_c, 3, 8320
5, 567603, Pitch_bend_c, 3, 8320
5, 567622, Pitch_bend_c, 3, 8320
5, 567641, Pitch_bend_c, 3, 8320
5, 567660, Pitch_bend_c, 3, 8320
5, 567680, Pitch_bend_c, 3, 8320
5, 567692, Pitch_bend_c, 3, 8320
5, 567712, Pitch_bend_c, 3, 8320
5, 567731, Pitch_bend_c, 3, 8320
5, 567750, Pitch_bend_c, 3, 8320
5, 567769, Pitch_bend_c, 3, 8320
5, 567788, Pitch_bend_c, 3, 8320
5, 567801, Pitch_bend_c, 3, 8320
5, 567820, Pitch_bend_c, 3, 8192
5, 567840, Pitch_bend_c, 3, 8192
5, 567859, Pitch_bend_c, 3, 8192
5, 567878, Pitch_bend_c, 3, 8064
5, 567891, Pitch_bend_c, 3, 8064
5, 567910, Pitch_bend_c, 3, 8064
5, 567929, Pitch_bend_c, 3, 8064
5, 567948, Pitch_bend_c, 3, 8064
5, 567968, Pitch_bend_c, 3, 8064
5, 567987, Pitch_bend_c, 3, 8064
5, 568000, Pitch_bend_c, 3, 8064
5, 568019, Pitch_bend_c, 3, 8064
5, 568038, Pitch_bend_c, 3, 8064
5, 568057, Pitch_bend_c, 3, 8064
5, 568076, Pitch_bend_c, 3, 8064
5, 568089, Pitch_bend_c, 3, 8064
5, 568108, Pitch_bend_c, 3, 8192
5, 568128, Pitch_bend_c, 3, 8192
5, 568147, Pitch_bend_c, 3, 8192
5, 568166, Pitch_bend_c, 3, 8320
5, 568179, Pitch_bend_c, 3, 8320
5, 568198, Pitch_bend_c, 3, 8320
5, 568217, Pitch_bend_c, 3, 8448
5, 568236, Pitch_bend_c, 3, 8448
5, 568256, Pitch_bend_c, 3, 8448
5, 568268, Pitch_bend_c, 3, 8448
5, 568288, Pitch_bend_c, 3, 8448
5, 568307, Pitch_bend_c, 3, 8448
5, 568326, Pitch_bend_c, 3, 8448
5, 568345, Pitch_bend_c, 3, 8320
5, 568364, Pitch_bend_c, 3, 8320
5, 568377, Pitch_bend_c, 3, 8320
5, 568396, Pitch_bend_c, 3, 8192
5, 568416, Pitch_bend_c, 3, 8192
5, 568435, Pitch_bend_c, 3, 8192
5, 568454, Pitch_bend_c, 3, 8064
5, 568467, Pitch_bend_c, 3, 8064
5, 568486, Pitch_bend_c, 3, 8064
5, 568505, Pitch_bend_c, 3, 7936
5, 568524, Pitch_bend_c, 3, 7936
5, 568544, Pitch_bend_c, 3, 7936
5, 568563, Pitch_bend_c, 3, 7936
5, 568576, Pitch_bend_c, 3, 7936
5, 568595, Pitch_bend_c, 3, 7936
5, 568614, Pitch_bend_c, 3, 7936
5, 568633, Pitch_bend_c, 3, 8064
5, 568652, Pitch_bend_c, 3, 8064
5, 568665, Pitch_bend_c, 3, 8064
5, 568684, Pitch_bend_c, 3, 8192
5, 568704, Pitch_bend_c, 3, 8192
5, 568723, Pitch_bend_c, 3, 8320
5, 568742, Pitch_bend_c, 3, 8320
5, 568755, Pitch_bend_c, 3, 8320
5, 568774, Pitch_bend_c, 3, 8448
5, 568793, Pitch_bend_c, 3, 8448
5, 568812, Pitch_bend_c, 3, 8448
5, 568832, Pitch_bend_c, 3, 8448
5, 568844, Pitch_bend_c, 3, 8448
5, 568864, Pitch_bend_c, 3, 8448
5, 568883, Pitch_bend_c, 3, 8448
5, 568902, Pitch_bend_c, 3, 8448
5, 568921, Pitch_bend_c, 3, 8448
5, 568940, Pitch_bend_c, 3, 8320
5, 568953, Pitch_bend_c, 3, 8320
5, 568972, Pitch_bend_c, 3, 8320
5, 568992, Pitch_bend_c, 3, 8192
5, 569011, Pitch_bend_c, 3, 8064
5, 569030, Pitch_bend_c, 3, 8064
5, 569043, Pitch_bend_c, 3, 8064
5, 569062, Pitch_bend_c, 3, 7936
5, 569081, Pitch_bend_c, 3, 7936
5, 569100, Pitch_bend_c, 3, 7936
5, 569120, Pitch_bend_c, 3, 7936
5, 569139, Pitch_bend_c, 3, 7936
5, 569152, Pitch_bend_c, 3, 7936
5, 569171, Pitch_bend_c, 3, 7936
5, 569190, Pitch_bend_c, 3, 7936
5, 569209, Pitch_bend_c, 3, 7936
5, 569228, Pitch_bend_c, 3, 8064
5, 569241, Pitch_bend_c, 3, 8064
5, 569260, Pitch_bend_c, 3, 8064
5, 569280, Pitch_bend_c, 3, 8192
5, 569299, Pitch_bend_c, 3, 8320
5, 569318, Pitch_bend_c, 3, 8320
5, 569331, Pitch_bend_c, 3, 8320
5, 569350, Pitch_bend_c, 3, 8448
5, 569369, Pitch_bend_c, 3, 8448
5, 569388, Pitch_bend_c, 3, 8448
5, 569408, Pitch_bend_c, 3, 8448
5, 569420, Pitch_bend_c, 3, 8448
5, 569440, Pitch_bend_c, 3, 8448
5, 569459, Pitch_bend_c, 3, 8448
5, 569478, Pitch_bend_c, 3, 8448
5, 569497, Pitch_bend_c, 3, 8448
5, 569516, Pitch_bend_c, 3, 8320
5, 569529, Pitch_bend_c, 3, 8320
5, 569548, Pitch_bend_c, 3, 8320
5, 569568, Pitch_bend_c, 3, 8192
5, 569587, Pitch_bend_c, 3, 8064
5, 569606, Pitch_bend_c, 3, 8064
5, 569619, Pitch_bend_c, 3, 8064
5, 569638, Pitch_bend_c, 3, 7936
5, 569657, Pitch_bend_c, 3, 7936
5, 569676, Pitch_bend_c, 3, 7936
5, 569696, Pitch_bend_c, 3, 7936
5, 569715, Pitch_bend_c, 3, 7936
5, 569728, Pitch_bend_c, 3, 7936
5, 569747, Pitch_bend_c, 3, 7936
5, 569766, Pitch_bend_c, 3, 7936
5, 569785, Pitch_bend_c, 3, 7936
5, 569804, Pitch_bend_c, 3, 8064
5, 569817, Pitch_bend_c, 3, 8064
5, 569836, Pitch_bend_c, 3, 8064
5, 569856, Pitch_bend_c, 3, 8192
5, 569875, Pitch_bend_c, 3, 8192
5, 569894, Pitch_bend_c, 3, 8320
5, 569907, Pitch_bend_c, 3, 8320
5, 569926, Pitch_bend_c, 3, 8320
5, 569945, Pitch_bend_c, 3, 8320
5, 569964, Pitch_bend_c, 3, 8320
5, 569984, Pitch_bend_c, 3, 8320
5, 569996, Pitch_bend_c, 3, 8320
5, 570016, Pitch_bend_c, 3, 8320
5, 570035, Pitch_bend_c, 3, 8320
5, 570054, Pitch_bend_c, 3, 8320
5, 570073, Pitch_bend_c, 3, 8320
5, 570092, Pitch_bend_c, 3, 8320
5, 570105, Pitch_bend_c, 3, 8320
5, 570124, Pitch_bend_c, 3, 8192
5, 570144, Pitch_bend_c, 3, 8192
5, 570163, Pitch_bend_c, 3, 8192
5, 570182, Pitch_bend_c, 3, 8064
5, 570195, Pitch_bend_c, 3, 8064
5, 570214, Pitch_bend_c, 3, 8064
5, 570233, Pitch_bend_c, 3, 8064
5, 570252, Pitch_bend_c, 3, 8064
5, 570272, Pitch_bend_c, 3, 8064
5, 570291, Pitch_bend_c, 3, 8064
5, 570304, Pitch_bend_c, 3, 8064
5, 570323, Pitch_bend_c, 3, 8064
5, 570342, Pitch_bend_c, 3, 8064
5, 570361, Pitch_bend_c, 3, 8064
5, 570380, Pitch_bend_c, 3, 8064
5, 570393, Pitch_bend_c, 3, 8064
5, 570412, Pitch_bend_c, 3, 8192
5, 570432, Pitch_bend_c, 3, 8192
5, 570451, Pitch_bend_c, 3, 8320
5, 570470, Pitch_bend_c, 3, 8320
5, 570483, Pitch_bend_c, 3, 8320
5, 570502, Pitch_bend_c, 3, 8448
5, 570521, Pitch_bend_c, 3, 8448
5, 570540, Pitch_bend_c, 3, 8448
5, 570560, Pitch_bend_c, 3, 8448
5, 570572, Pitch_bend_c, 3, 8448
5, 570592, Pitch_bend_c, 3, 8448
5, 570611, Pitch_bend_c, 3, 8448
5, 570630, Pitch_bend_c, 3, 8448
5, 570649, Pitch_bend_c, 3, 8448
5, 570668, Pitch_bend_c, 3, 8320
5, 570681, Pitch_bend_c, 3, 8320
5, 570700, Pitch_bend_c, 3, 8320
5, 570720, Pitch_bend_c, 3, 8192
5, 570739, Pitch_bend_c, 3, 8064
5, 570758, Pitch_bend_c, 3, 8064
5, 570771, Pitch_bend_c, 3, 8064
5, 570790, Pitch_bend_c, 3, 7936
5, 570809, Pitch_bend_c, 3, 7936
5, 570828, Pitch_bend_c, 3, 7936
5, 570848, Pitch_bend_c, 3, 7936
5, 570867, Pitch_bend_c, 3, 7936
5, 570880, Pitch_bend_c, 3, 7936
5, 570899, Pitch_bend_c, 3, 7936
5, 570918, Pitch_bend_c, 3, 7936
5, 570937, Pitch_bend_c, 3, 7936
5, 570956, Pitch_bend_c, 3, 8064
5, 570969, Pitch_bend_c, 3, 8064
5, 570988, Pitch_bend_c, 3, 8064
5, 571008, Pitch_bend_c, 3, 8192
5, 571027, Pitch_bend_c, 3, 8192
5, 571046, Pitch_bend_c, 3, 8320
5, 571059, Pitch_bend_c, 3, 8320
5, 571078, Pitch_bend_c, 3, 8320
5, 571097, Pitch_bend_c, 3, 8320
5, 571116, Pitch_bend_c, 3, 8448
5, 571136, Pitch_bend_c, 3, 8448
5, 571148, Pitch_bend_c, 3, 8448
5, 571168, Pitch_bend_c, 3, 8448
5, 571187, Pitch_bend_c, 3, 8448
5, 571206, Pitch_bend_c, 3, 8320
5, 571225, Pitch_bend_c, 3, 8320
5, 571244, Pitch_bend_c, 3, 8320
5, 571257, Pitch_bend_c, 3, 8320
5, 571276, Pitch_bend_c, 3, 8192
5, 571296, Pitch_bend_c, 3, 8192
5, 571315, Pitch_bend_c, 3, 8192
5, 571334, Pitch_bend_c, 3, 8064
5, 571347, Pitch_bend_c, 3, 8064
5, 571366, Pitch_bend_c, 3, 8064
5, 571385, Pitch_bend_c, 3, 8064
5, 571404, Pitch_bend_c, 3, 7936
5, 571424, Pitch_bend_c, 3, 7936
5, 571443, Pitch_bend_c, 3, 7936
5, 571456, Pitch_bend_c, 3, 7936
5, 571475, Pitch_bend_c, 3, 7936
5, 571494, Pitch_bend_c, 3, 8064
5, 571513, Pitch_bend_c, 3, 8064
5, 571532, Pitch_bend_c, 3, 8064
5, 571545, Pitch_bend_c, 3, 8064
5, 571564, Pitch_bend_c, 3, 8192
5, 571584, Pitch_bend_c, 3, 8192
5, 571603, Pitch_bend_c, 3, 8192
5, 571622, Pitch_bend_c, 3, 8320
5, 571635, Pitch_bend_c, 3, 8320
5, 571654, Pitch_bend_c, 3, 8320
5, 571673, Pitch_bend_c, 3, 8320
5, 571692, Pitch_bend_c, 3, 8320
5, 571712, Pitch_bend_c, 3, 8320
5, 571724, Pitch_bend_c, 3, 8320
5, 571744, Pitch_bend_c, 3, 8320
5, 571763, Pitch_bend_c, 3, 8320
5, 571782, Pitch_bend_c, 3, 8320
5, 571801, Pitch_bend_c, 3, 8320
5, 571820, Pitch_bend_c, 3, 8320
5, 571833, Pitch_bend_c, 3, 8320
5, 571852, Pitch_bend_c, 3, 8192
5, 571872, Pitch_bend_c, 3, 8192
5, 571891, Pitch_bend_c, 3, 8192
5, 571910, Pitch_bend_c, 3, 8064
5, 571923, Pitch_bend_c, 3, 8064
5, 571942, Pitch_bend_c, 3, 8064
5, 571961, Pitch_bend_c, 3, 8064
5, 571980, Pitch_bend_c, 3, 8064
5, 572000, Pitch_bend_c, 3, 8064
5, 572019, Pitch_bend_c, 3, 8064
5, 572032, Pitch_bend_c, 3, 8064
5, 572051, Pitch_bend_c, 3, 8064
5, 572070, Pitch_bend_c, 3, 8064
5, 572089, Pitch_bend_c, 3, 8064
5, 572108, Pitch_bend_c, 3, 8064
5, 572121, Pitch_bend_c, 3, 8064
5, 572140, Pitch_bend_c, 3, 8192
5, 572160, Pitch_bend_c, 3, 8192
5, 572179, Pitch_bend_c, 3, 8192
5, 572198, Pitch_bend_c, 3, 8320
5, 572211, Pitch_bend_c, 3, 8320
5, 572230, Pitch_bend_c, 3, 8320
5, 572249, Pitch_bend_c, 3, 8320
5, 572268, Pitch_bend_c, 3, 8320
5, 572288, Pitch_bend_c, 3, 8320
5, 572300, Pitch_bend_c, 3, 8320
5, 572320, Pitch_bend_c, 3, 8320
5, 572339, Pitch_bend_c, 3, 8320
5, 572358, Pitch_bend_c, 3, 8320
5, 572377, Pitch_bend_c, 3, 8320
5, 572396, Pitch_bend_c, 3, 8320
5, 572409, Pitch_bend_c, 3, 8320
5, 572428, Pitch_bend_c, 3, 8192
5, 572448, Pitch_bend_c, 3, 8192
5, 572467, Pitch_bend_c, 3, 8192
5, 572486, Pitch_bend_c, 3, 8064
5, 572499, Pitch_bend_c, 3, 8064
5, 572518, Pitch_bend_c, 3, 8064
5, 572537, Pitch_bend_c, 3, 8064
5, 572556, Pitch_bend_c, 3, 8064
5, 572576, Pitch_bend_c, 3, 8064
5, 572595, Pitch_bend_c, 3, 8064
5, 572608, Pitch_bend_c, 3, 8064
5, 572627, Pitch_bend_c, 3, 8064
5, 572646, Pitch_bend_c, 3, 8064
5, 572665, Pitch_bend_c, 3, 8064
5, 572684, Pitch_bend_c, 3, 8064
5, 572697, Pitch_bend_c, 3, 8064
5, 572716, Pitch_bend_c, 3, 8192
5, 572736, Pitch_bend_c, 3, 8192
5, 572755, Pitch_bend_c, 3, 8192
5, 572774, Pitch_bend_c, 3, 8320
5, 572787, Pitch_bend_c, 3, 8320
5, 572806, Pitch_bend_c, 3, 8320
5, 572825, Pitch_bend_c, 3, 8320
5, 572844, Pitch_bend_c, 3, 8448
5, 572864, Pitch_bend_c, 3, 8448
5, 572876, Pitch_bend_c, 3, 8448
5, 572896, Pitch_bend_c, 3, 8448
5, 572915, Pitch_bend_c, 3, 8448
5, 572934, Pitch_bend_c, 3, 8320
5, 572953, Pitch_bend_c, 3, 8320
5, 572972, Pitch_bend_c, 3, 8320
5, 572985, Pitch_bend_c, 3, 8320
5, 573004, Pitch_bend_c, 3, 8192
5, 573024, Pitch_bend_c, 3, 8192
5, 573043, Pitch_bend_c, 3, 8192
5, 573062, Pitch_bend_c, 3, 8064
5, 573075, Pitch_bend_c, 3, 8064
5, 573094, Pitch_bend_c, 3, 8064
5, 573113, Pitch_bend_c, 3, 8064
5, 573132, Pitch_bend_c, 3, 7936
5, 573152, Pitch_bend_c, 3, 7936
5, 573171, Pitch_bend_c, 3, 7936
5, 573184, Pitch_bend_c, 3, 7936
5, 573203, Pitch_bend_c, 3, 7936
5, 573222, Pitch_bend_c, 3, 8064
5, 573241, Pitch_bend_c, 3, 8064
5, 573260, Pitch_bend_c, 3, 8064
5, 573273, Pitch_bend_c, 3, 8064
5, 573292, Pitch_bend_c, 3, 8192
5, 573312, Pitch_bend_c, 3, 8192
5, 573331, Pitch_bend_c, 3, 8192
5, 573350, Pitch_bend_c, 3, 8320
5, 573363, Pitch_bend_c, 3, 8320
5, 573382, Pitch_bend_c, 3, 8320
5, 573401, Pitch_bend_c, 3, 8320
5, 573420, Pitch_bend_c, 3, 8448
5, 573440, Pitch_bend_c, 3, 8448
5, 573452, Pitch_bend_c, 3, 8448
5, 573472, Pitch_bend_c, 3, 8448
5, 573491, Pitch_bend_c, 3, 8448
5, 573510, Pitch_bend_c, 3, 8320
5, 573529, Pitch_bend_c, 3, 8320
5, 573548, Pitch_bend_c, 3, 8320
5, 573561, Pitch_bend_c, 3, 8320
5, 573580, Pitch_bend_c, 3, 8192
5, 573600, Pitch_bend_c, 3, 8192
5, 573619, Pitch_bend_c, 3, 8192
5, 573638, Pitch_bend_c, 3, 8064
5, 573651, Pitch_bend_c, 3, 8064
5, 573670, Pitch_bend_c, 3, 8064
5, 573689, Pitch_bend_c, 3, 8064
5, 573708, Pitch_bend_c, 3, 7936
5, 573728, Pitch_bend_c, 3, 7936
5, 573747, Pitch_bend_c, 3, 7936
5, 573760, Pitch_bend_c, 3, 7936
5, 573779, Pitch_bend_c, 3, 7936
5, 573798, Pitch_bend_c, 3, 8064
5, 573817, Pitch_bend_c, 3, 8064
5, 573836, Pitch_bend_c, 3, 8064
5, 573849, Pitch_bend_c, 3, 8064
5, 573868, Pitch_bend_c, 3, 8192
5, 573888, Pitch_bend_c, 3, 8192
5, 573907, Pitch_bend_c, 3, 8192
5, 573926, Pitch_bend_c, 3, 8320
5, 573939, Pitch_bend_c, 3, 8320
5, 573958, Pitch_bend_c, 3, 8320
5, 573977, Pitch_bend_c, 3, 8320
5, 573996, Pitch_bend_c, 3, 8448
5, 574016, Pitch_bend_c, 3, 8448
5, 574028, Pitch_bend_c, 3, 8448
5, 574048, Pitch_bend_c, 3, 8448
5, 574067, Pitch_bend_c, 3, 8448
5, 574086, Pitch_bend_c, 3, 8320
5, 574105, Pitch_bend_c, 3, 8320
5, 574124, Pitch_bend_c, 3, 8320
5, 574137, Pitch_bend_c, 3, 8320
5, 574156, Pitch_bend_c, 3, 8192
5, 574176, Pitch_bend_c, 3, 8192
5, 574195, Pitch_bend_c, 3, 8192
5, 574214, Pitch_bend_c, 3, 8064
5, 574227, Pitch_bend_c, 3, 8064
5, 574246, Pitch_bend_c, 3, 8064
5, 574265, Pitch_bend_c, 3, 8064
5, 574284, Pitch_bend_c, 3, 7936
5, 574304, Pitch_bend_c, 3, 7936
5, 574323, Pitch_bend_c, 3, 7936
5, 574336, Pitch_bend_c, 3, 7936
5, 574355, Pitch_bend_c, 3, 7936
5, 574374, Pitch_bend_c, 3, 8064
5, 574393, Pitch_bend_c, 3, 8064
5, 574412, Pitch_bend_c, 3, 8064
5, 574425, Pitch_bend_c, 3, 8064
5, 574444, Pitch_bend_c, 3, 8192
5, 574464, Pitch_bend_c, 3, 8192
5, 574483, Pitch_bend_c, 3, 8192
5, 574502, Pitch_bend_c, 3, 8320
5, 574515, Pitch_bend_c, 3, 8320
5, 574534, Pitch_bend_c, 3, 8320
5, 574553, Pitch_bend_c, 3, 8448
5, 574572, Pitch_bend_c, 3, 8448
5, 574592, Pitch_bend_c, 3, 8448
5, 574604, Pitch_bend_c, 3, 8448
5, 574624, Pitch_bend_c, 3, 8448
5, 574643, Pitch_bend_c, 3, 8448
5, 574662, Pitch_bend_c, 3, 8448
5, 574681, Pitch_bend_c, 3, 8320
5, 574700, Pitch_bend_c, 3, 8320
5, 574713, Pitch_bend_c, 3, 8320
5, 574732, Pitch_bend_c, 3, 8192
5, 574752, Pitch_bend_c, 3, 8192
5, 574771, Pitch_bend_c, 3, 8192
5, 574790, Pitch_bend_c, 3, 8064
5, 574803, Pitch_bend_c, 3, 8064
5, 574822, Pitch_bend_c, 3, 8064
5, 574841, Pitch_bend_c, 3, 7936
5, 574860, Pitch_bend_c, 3, 7936
5, 574880, Pitch_bend_c, 3, 7936
5, 574899, Pitch_bend_c, 3, 7936
5, 574912, Pitch_bend_c, 3, 7936
5, 574931, Pitch_bend_c, 3, 7936
5, 574950, Pitch_bend_c, 3, 7936
5, 574969, Pitch_bend_c, 3, 8064
5, 574988, Pitch_bend_c, 3, 8064
5, 575001, Pitch_bend_c, 3, 8064
5, 575020, Pitch_bend_c, 3, 8192
5, 575040, Pitch_bend_c, 3, 8192
5, 575059, Pitch_bend_c, 3, 8192
5, 575078, Pitch_bend_c, 3, 8320
5, 575091, Pitch_bend_c, 3, 8320
5, 575110, Pitch_bend_c, 3, 8320
5, 575129, Pitch_bend_c, 3, 8448
5, 575148, Pitch_bend_c, 3, 8448
5, 575168, Pitch_bend_c, 3, 8448
5, 575180, Pitch_bend_c, 3, 8448
5, 575200, Pitch_bend_c, 3, 8448
5, 575219, Pitch_bend_c, 3, 8448
5, 575238, Pitch_bend_c, 3, 8448
5, 575257, Pitch_bend_c, 3, 8320
5, 575276, Pitch_bend_c, 3, 8320
5, 575289, Pitch_bend_c, 3, 8320
5, 575308, Pitch_bend_c, 3, 8192
5, 575328, Pitch_bend_c, 3, 8192
5, 575347, Pitch_bend_c, 3, 8192
5, 575366, Pitch_bend_c, 3, 8064
5, 575379, Pitch_bend_c, 3, 8064
5, 575398, Pitch_bend_c, 3, 8064
5, 575417, Pitch_bend_c, 3, 7936
5, 575436, Pitch_bend_c, 3, 7936
5, 575456, Pitch_bend_c, 3, 7936
5, 575475, Pitch_bend_c, 3, 7936
5, 575488, Pitch_bend_c, 3, 7936
5, 575507, Pitch_bend_c, 3, 7936
5, 575526, Pitch_bend_c, 3, 7936
5, 575545, Pitch_bend_c, 3, 8064
5, 575564, Pitch_bend_c, 3, 8064
5, 575577, Pitch_bend_c, 3, 8064
5, 575596, Pitch_bend_c, 3, 8192
5, 575616, Pitch_bend_c, 3, 8192
5, 575635, Pitch_bend_c, 3, 8192
5, 575654, Pitch_bend_c, 3, 8320
5, 575667, Pitch_bend_c, 3, 8320
5, 575686, Pitch_bend_c, 3, 8320
5, 575705, Pitch_bend_c, 3, 8448
5, 575724, Pitch_bend_c, 3, 8448
5, 575744, Pitch_bend_c, 3, 8448
5, 575756, Pitch_bend_c, 3, 8448
5, 575776, Pitch_bend_c, 3, 8448
5, 575795, Pitch_bend_c, 3, 8448
5, 575814, Pitch_bend_c, 3, 8448
5, 575833, Pitch_bend_c, 3, 8320
5, 575852, Pitch_bend_c, 3, 8320
5, 575865, Pitch_bend_c, 3, 8320
5, 575884, Pitch_bend_c, 3, 8192
5, 575904, Pitch_bend_c, 3, 8192
5, 575923, Pitch_bend_c, 3, 8192
5, 575942, Pitch_bend_c, 3, 8064
5, 575955, Pitch_bend_c, 3, 8064
5, 575974, Pitch_bend_c, 3, 8064
5, 575993, Pitch_bend_c, 3, 7936
5, 576012, Pitch_bend_c, 3, 7936
5, 576032, Pitch_bend_c, 3, 7936
5, 576051, Pitch_bend_c, 3, 7936
5, 576064, Pitch_bend_c, 3, 7936
5, 576083, Pitch_bend_c, 3, 7936
5, 576102, Pitch_bend_c, 3, 7936
5, 576121, Pitch_bend_c, 3, 8064
5, 576140, Pitch_bend_c, 3, 8064
5, 576153, Pitch_bend_c, 3, 8064
5, 576172, Pitch_bend_c, 3, 8192
5, 576192, Pitch_bend_c, 3, 8192
5, 576211, Pitch_bend_c, 3, 8192
5, 576230, Pitch_bend_c, 3, 8192
5, 576243, Pitch_bend_c, 3, 8320
5, 576262, Pitch_bend_c, 3, 8320
5, 576281, Pitch_bend_c, 3, 8320
5, 576300, Pitch_bend_c, 3, 8320
5, 576320, Pitch_bend_c, 3, 8320
5, 576332, Pitch_bend_c, 3, 8320
5, 576352, Pitch_bend_c, 3, 8320
5, 576371, Pitch_bend_c, 3, 8320
5, 576390, Pitch_bend_c, 3, 8320
5, 576409, Pitch_bend_c, 3, 8320
5, 576428, Pitch_bend_c, 3, 8320
5, 576441, Pitch_bend_c, 3, 8192
5, 576460, Pitch_bend_c, 3, 8192
5, 576480, Pitch_bend_c, 3, 8192
5, 576499, Pitch_bend_c, 3, 8192
5, 576518, Pitch_bend_c, 3, 8192
5, 576531, Pitch_bend_c, 3, 8064
5, 576550, Pitch_bend_c, 3, 8064
5, 576569, Pitch_bend_c, 3, 8064
5, 576588, Pitch_bend_c, 3, 8064
5, 576608, Pitch_bend_c, 3, 8064
5, 576627, Pitch_bend_c, 3, 8064
5, 576640, Pitch_bend_c, 3, 8064
5, 576659, Pitch_bend_c, 3, 8064
5, 576678, Pitch_bend_c, 3, 8064
5, 576697, Pitch_bend_c, 3, 8064
5, 576716, Pitch_bend_c, 3, 8064
5, 576729, Pitch_bend_c, 3, 8192
5, 576748, Pitch_bend_c, 3, 8192
5, 576768, Pitch_bend_c, 3, 8192
5, 576787, Pitch_bend_c, 3, 8192
5, 576806, Pitch_bend_c, 3, 8192
5, 576819, Pitch_bend_c, 3, 8320
5, 576838, Pitch_bend_c, 3, 8320
5, 576857, Pitch_bend_c, 3, 8320
5, 576876, Pitch_bend_c, 3, 8320
5, 576896, Pitch_bend_c, 3, 8320
5, 576908, Pitch_bend_c, 3, 8320
5, 576928, Pitch_bend_c, 3, 8320
5, 576947, Pitch_bend_c, 3, 8320
5, 576966, Pitch_bend_c, 3, 8320
5, 576985, Pitch_bend_c, 3, 8320
5, 577004, Pitch_bend_c, 3, 8320
5, 577017, Pitch_bend_c, 3, 8192
5, 577036, Pitch_bend_c, 3, 8192
5, 577056, Pitch_bend_c, 3, 8192
5, 577075, Pitch_bend_c, 3, 8192
5, 577094, Pitch_bend_c, 3, 8192
5, 577107, Pitch_bend_c, 3, 8064
5, 577126, Pitch_bend_c, 3, 8064
5, 577145, Pitch_bend_c, 3, 8064
5, 577164, Pitch_bend_c, 3, 8064
5, 577184, Pitch_bend_c, 3, 8064
5, 577203, Pitch_bend_c, 3, 8064
5, 577216, Pitch_bend_c, 3, 8064
5, 577235, Pitch_bend_c, 3, 8064
5, 577254, Pitch_bend_c, 3, 8064
5, 577273, Pitch_bend_c, 3, 8064
5, 577292, Pitch_bend_c, 3, 8064
5, 577305, Pitch_bend_c, 3, 8192
5, 577324, Pitch_bend_c, 3, 8192
5, 577344, Pitch_bend_c, 3, 8192
5, 577363, Pitch_bend_c, 3, 8192
5, 577382, Pitch_bend_c, 3, 8192
5, 577395, Pitch_bend_c, 3, 8192
5, 577414, Pitch_bend_c, 3, 8192
5, 577433, Pitch_bend_c, 3, 8192
5, 577452, Pitch_bend_c, 3, 8192
5, 577472, Pitch_bend_c, 3, 8192
5, 577484, Pitch_bend_c, 3, 8192
5, 577504, Pitch_bend_c, 3, 8192
5, 577523, Pitch_bend_c, 3, 8192
5, 577536, Pitch_bend_c, 3, 8192
5, 577555, Pitch_bend_c, 3, 8192
5, 577574, Pitch_bend_c, 3, 8192
5, 577587, Pitch_bend_c, 3, 8192
5, 577606, Pitch_bend_c, 3, 8192
5, 577625, Pitch_bend_c, 3, 8192
5, 577644, Pitch_bend_c, 3, 8192
5, 577664, Pitch_bend_c, 3, 8192
5, 577676, Pitch_bend_c, 3, 8192
5, 577696, Pitch_bend_c, 3, 8192
5, 577715, Pitch_bend_c, 3, 8192
5, 577734, Pitch_bend_c, 3, 8192
5, 577753, Pitch_bend_c, 3, 8192
5, 577772, Pitch_bend_c, 3, 8192
5, 577785, Pitch_bend_c, 3, 8192
5, 577804, Pitch_bend_c, 3, 8192
5, 577824, Pitch_bend_c, 3, 8192
5, 577843, Pitch_bend_c, 3, 8192
5, 577862, Pitch_bend_c, 3, 8192
5, 577875, Pitch_bend_c, 3, 8192
5, 577894, Pitch_bend_c, 3, 8192
5, 577913, Pitch_bend_c, 3, 8192
5, 577932, Pitch_bend_c, 3, 8192
5, 577952, Pitch_bend_c, 3, 8192
5, 577971, Pitch_bend_c, 3, 8192
5, 577984, Pitch_bend_c, 3, 8192
5, 578003, Pitch_bend_c, 3, 8192
5, 578022, Pitch_bend_c, 3, 8192
5, 578041, Pitch_bend_c, 3, 8192
5, 578060, Pitch_bend_c, 3, 8192
5, 578073, Pitch_bend_c, 3, 8192
5, 578092, Pitch_bend_c, 3, 8192
5, 578112, Pitch_bend_c, 3, 8192
5, 578131, Pitch_bend_c, 3, 8192
5, 578150, Pitch_bend_c, 3, 8192
5, 578163, Pitch_bend_c, 3, 8192
5, 578182, Pitch_bend_c, 3, 8192
5, 578201, Pitch_bend_c, 3, 8192
5, 578220, Pitch_bend_c, 3, 8192
5, 578240, Pitch_bend_c, 3, 8192
5, 578252, Pitch_bend_c, 3, 8192
5, 578272, Pitch_bend_c, 3, 8192
5, 578291, Pitch_bend_c, 3, 8192
5, 578310, Pitch_bend_c, 3, 8192
5, 578329, Pitch_bend_c, 3, 8192
5, 578348, Pitch_bend_c, 3, 8192
5, 578361, Pitch_bend_c, 3, 8192
5, 578380, Pitch_bend_c, 3, 8192
5, 578400, Pitch_bend_c, 3, 8192
5, 578419, Pitch_bend_c, 3, 8192
5, 578438, Pitch_bend_c, 3, 8192
5, 578451, Pitch_bend_c, 3, 8192
5, 578470, Pitch_bend_c, 3, 8192
5, 578489, Pitch_bend_c, 3, 8192
5, 578508, Pitch_bend_c, 3, 8192
5, 578528, Pitch_bend_c, 3, 8192
5, 578547, Pitch_bend_c, 3, 8192
5, 578560, Pitch_bend_c, 3, 8192
5, 578579, Pitch_bend_c, 3, 8192
5, 578598, Pitch_bend_c, 3, 8192
5, 578617, Pitch_bend_c, 3, 8192
5, 578636, Pitch_bend_c, 3, 8192
5, 578649, Pitch_bend_c, 3, 8192
5, 578668, Pitch_bend_c, 3, 8192
5, 578688, Pitch_bend_c, 3, 8192
5, 578707, Pitch_bend_c, 3, 8192
5, 578726, Pitch_bend_c, 3, 8192
5, 578739, Pitch_bend_c, 3, 8192
5, 578758, Pitch_bend_c, 3, 8320
5, 578777, Pitch_bend_c, 3, 8320
5, 578796, Pitch_bend_c, 3, 8320
5, 578816, Pitch_bend_c, 3, 8320
5, 578828, Pitch_bend_c, 3, 8320
5, 578848, Pitch_bend_c, 3, 8320
5, 578867, Pitch_bend_c, 3, 8320
5, 578886, Pitch_bend_c, 3, 8320
5, 578905, Pitch_bend_c, 3, 8320
5, 578924, Pitch_bend_c, 3, 8192
5, 578937, Pitch_bend_c, 3, 8192
5, 578956, Pitch_bend_c, 3, 8192
5, 578976, Pitch_bend_c, 3, 8192
5, 578995, Pitch_bend_c, 3, 8192
5, 579014, Pitch_bend_c, 3, 8192
5, 579027, Pitch_bend_c, 3, 8192
5, 579046, Pitch_bend_c, 3, 8064
5, 579065, Pitch_bend_c, 3, 8064
5, 579084, Pitch_bend_c, 3, 8064
5, 579104, Pitch_bend_c, 3, 8064
5, 579123, Pitch_bend_c, 3, 8064
5, 579136, Pitch_bend_c, 3, 8064
5, 579155, Pitch_bend_c, 3, 8064
5, 579174, Pitch_bend_c, 3, 8064
5, 579193, Pitch_bend_c, 3, 8064
5, 579212, Pitch_bend_c, 3, 8192
5, 579225, Pitch_bend_c, 3, 8192
5, 579244, Pitch_bend_c, 3, 8192
5, 579264, Pitch_bend_c, 3, 8192
5, 579283, Pitch_bend_c, 3, 8192
5, 579302, Pitch_bend_c, 3, 8320
5, 579315, Pitch_bend_c, 3, 8320
5, 579334, Pitch_bend_c, 3, 8320
5, 579353, Pitch_bend_c, 3, 8448
5, 579372, Pitch_bend_c, 3, 8448
5, 579392, Pitch_bend_c, 3, 8448
5, 579404, Pitch_bend_c, 3, 8448
5, 579424, Pitch_bend_c, 3, 8448
5, 579443, Pitch_bend_c, 3, 8448
5, 579462, Pitch_bend_c, 3, 8448
5, 579481, Pitch_bend_c, 3, 8320
5, 579500, Pitch_bend_c, 3, 8320
5, 579513, Pitch_bend_c, 3, 8320
5, 579532, Pitch_bend_c, 3, 8192
5, 579552, Pitch_bend_c, 3, 8192
5, 579571, Pitch_bend_c, 3, 8192
5, 579590, Pitch_bend_c, 3, 8064
5, 579603, Pitch_bend_c, 3, 8064
5, 579622, Pitch_bend_c, 3, 8064
5, 579641, Pitch_bend_c, 3, 7936
5, 579660, Pitch_bend_c, 3, 7936
5, 579680, Pitch_bend_c, 3, 7936
5, 579699, Pitch_bend_c, 3, 7936
5, 579712, Pitch_bend_c, 3, 7936
5, 579731, Pitch_bend_c, 3, 7936
5, 579750, Pitch_bend_c, 3, 7936
5, 579769, Pitch_bend_c, 3, 8064
5, 579788, Pitch_bend_c, 3, 8064
5, 579801, Pitch_bend_c, 3, 8064
5, 579820, Pitch_bend_c, 3, 8192
5, 579840, Pitch_bend_c, 3, 8192
5, 579859, Pitch_bend_c, 3, 8192
5, 579878, Pitch_bend_c, 3, 8320
5, 579891, Pitch_bend_c, 3, 8320
5, 579910, Pitch_bend_c, 3, 8320
5, 579929, Pitch_bend_c, 3, 8320
5, 579948, Pitch_bend_c, 3, 8320
5, 579968, Pitch_bend_c, 3, 8320
5, 579980, Pitch_bend_c, 3, 8320
5, 580000, Pitch_bend_c, 3, 8320
5, 580019, Pitch_bend_c, 3, 8320
5, 580038, Pitch_bend_c, 3, 8320
5, 580057, Pitch_bend_c, 3, 8320
5, 580076, Pitch_bend_c, 3, 8320
5, 580089, Pitch_bend_c, 3, 8320
5, 580108, Pitch_bend_c, 3, 8192
5, 580128, Pitch_bend_c, 3, 8192
5, 580147, Pitch_bend_c, 3, 8192
5, 580166, Pitch_bend_c, 3, 8064
5, 580179, Pitch_bend_c, 3, 8064
5, 580198, Pitch_bend_c, 3, 8064
5, 580217, Pitch_bend_c, 3, 8064
5, 580236, Pitch_bend_c, 3, 8064
5, 580256, Pitch_bend_c, 3, 8064
5, 580275, Pitch_bend_c, 3, 8064
5, 580288, Pitch_bend_c, 3, 8064
5, 580307, Pitch_bend_c, 3, 8064
5, 580326, Pitch_bend_c, 3, 8064
5, 580345, Pitch_bend_c, 3, 8064
5, 580364, Pitch_bend_c, 3, 8064
5, 580377, Pitch_bend_c, 3, 8064
5, 580396, Pitch_bend_c, 3, 8192
5, 580416, Pitch_bend_c, 3, 8192
5, 580435, Pitch_bend_c, 3, 8192
5, 580454, Pitch_bend_c, 3, 8320
5, 580467, Pitch_bend_c, 3, 8320
5, 580486, Pitch_bend_c, 3, 8320
5, 580505, Pitch_bend_c, 3, 8320
5, 580524, Pitch_bend_c, 3, 8320
5, 580544, Pitch_bend_c, 3, 8320
5, 580556, Pitch_bend_c, 3, 8320
5, 580576, Pitch_bend_c, 3, 8320
5, 580595, Pitch_bend_c, 3, 8320
5, 580614, Pitch_bend_c, 3, 8320
5, 580633, Pitch_bend_c, 3, 8320
5, 580652, Pitch_bend_c, 3, 8320
5, 580665, Pitch_bend_c, 3, 8320
5, 580684, Pitch_bend_c, 3, 8192
5, 580704, Pitch_bend_c, 3, 8192
5, 580723, Pitch_bend_c, 3, 8192
5, 580742, Pitch_bend_c, 3, 8064
5, 580755, Pitch_bend_c, 3, 8064
5, 580774, Pitch_bend_c, 3, 8064
5, 580793, Pitch_bend_c, 3, 8064
5, 580812, Pitch_bend_c, 3, 8064
5, 580832, Pitch_bend_c, 3, 8064
5, 580851, Pitch_bend_c, 3, 8064
5, 580864, Pitch_bend_c, 3, 8064
5, 580883, Pitch_bend_c, 3, 8064
5, 580902, Pitch_bend_c, 3, 8064
5, 580921, Pitch_bend_c, 3, 8064
5, 580940, Pitch_bend_c, 3, 8064
5, 580953, Pitch_bend_c, 3, 8064
5, 580972, Pitch_bend_c, 3, 8192
5, 580992, Pitch_bend_c, 3, 8192
5, 581011, Pitch_bend_c, 3, 8192
5, 581030, Pitch_bend_c, 3, 8320
5, 581043, Pitch_bend_c, 3, 8320
5, 581062, Pitch_bend_c, 3, 8320
5, 581081, Pitch_bend_c, 3, 8448
5, 581100, Pitch_bend_c, 3, 8448
5, 581120, Pitch_bend_c, 3, 8448
5, 581132, Pitch_bend_c, 3, 8448
5, 581152, Pitch_bend_c, 3, 8448
5, 581171, Pitch_bend_c, 3, 8448
5, 581190, Pitch_bend_c, 3, 8448
5, 581209, Pitch_bend_c, 3, 8320
5, 581228, Pitch_bend_c, 3, 8320
5, 581241, Pitch_bend_c, 3, 8320
5, 581260, Pitch_bend_c, 3, 8192
5, 581280, Pitch_bend_c, 3, 8192
5, 581299, Pitch_bend_c, 3, 8192
5, 581318, Pitch_bend_c, 3, 8064
5, 581331, Pitch_bend_c, 3, 8064
5, 581350, Pitch_bend_c, 3, 8064
5, 581369, Pitch_bend_c, 3, 7936
5, 581388, Pitch_bend_c, 3, 7936
5, 581408, Pitch_bend_c, 3, 7936
5, 581427, Pitch_bend_c, 3, 7936
5, 581440, Pitch_bend_c, 3, 7936
5, 581459, Pitch_bend_c, 3, 7936
5, 581478, Pitch_bend_c, 3, 7936
5, 581497, Pitch_bend_c, 3, 8064
5, 581516, Pitch_bend_c, 3, 8064
5, 581529, Pitch_bend_c, 3, 8064
5, 581548, Pitch_bend_c, 3, 8192
5, 581568, Pitch_bend_c, 3, 8192
5, 581587, Pitch_bend_c, 3, 8192
5, 581606, Pitch_bend_c, 3, 8320
5, 581619, Pitch_bend_c, 3, 8320
5, 581638, Pitch_bend_c, 3, 8320
5, 581657, Pitch_bend_c, 3, 8320
5, 581676, Pitch_bend_c, 3, 8320
5, 581696, Pitch_bend_c, 3, 8320
5, 581708, Pitch_bend_c, 3, 8320
5, 581728, Pitch_bend_c, 3, 8320
5, 581747, Pitch_bend_c, 3, 8320
5, 581766, Pitch_bend_c, 3, 8320
5, 581785, Pitch_bend_c, 3, 8320
5, 581804, Pitch_bend_c, 3, 8320
5, 581817, Pitch_bend_c, 3, 8320
5, 581836, Pitch_bend_c, 3, 8192
5, 581856, Pitch_bend_c, 3, 8192
5, 581875, Pitch_bend_c, 3, 8192
5, 581894, Pitch_bend_c, 3, 8064
5, 581907, Pitch_bend_c, 3, 8064
5, 581926, Pitch_bend_c, 3, 8064
5, 581945, Pitch_bend_c, 3, 8064
5, 581964, Pitch_bend_c, 3, 8064
5, 581984, Pitch_bend_c, 3, 8064
5, 582003, Pitch_bend_c, 3, 8064
5, 582016, Pitch_bend_c, 3, 8064
5, 582035, Pitch_bend_c, 3, 8064
5, 582054, Pitch_bend_c, 3, 8064
5, 582073, Pitch_bend_c, 3, 8064
5, 582092, Pitch_bend_c, 3, 8064
5, 582105, Pitch_bend_c, 3, 8064
5, 582124, Pitch_bend_c, 3, 8192
5, 582144, Pitch_bend_c, 3, 8192
5, 582163, Pitch_bend_c, 3, 8192
5, 582182, Pitch_bend_c, 3, 8320
5, 582195, Pitch_bend_c, 3, 8320
5, 582214, Pitch_bend_c, 3, 8320
5, 582233, Pitch_bend_c, 3, 8448
5, 582252, Pitch_bend_c, 3, 8448
5, 582272, Pitch_bend_c, 3, 8448
5, 582284, Pitch_bend_c, 3, 8448
5, 582304, Pitch_bend_c, 3, 8448
5, 582323, Pitch_bend_c, 3, 8448
5, 582342, Pitch_bend_c, 3, 8448
5, 582361, Pitch_bend_c, 3, 8320
5, 582380, Pitch_bend_c, 3, 8320
5, 582393, Pitch_bend_c, 3, 8320
5, 582412, Pitch_bend_c, 3, 8192
5, 582432, Pitch_bend_c, 3, 8192
5, 582451, Pitch_bend_c, 3, 8192
5, 582470, Pitch_bend_c, 3, 8064
5, 582483, Pitch_bend_c, 3, 8064
5, 582502, Pitch_bend_c, 3, 8064
5, 582521, Pitch_bend_c, 3, 7936
5, 582540, Pitch_bend_c, 3, 7936
5, 582560, Pitch_bend_c, 3, 7936
5, 582579, Pitch_bend_c, 3, 7936
5, 582592, Pitch_bend_c, 3, 7936
5, 582611, Pitch_bend_c, 3, 7936
5, 582630, Pitch_bend_c, 3, 7936
5, 582649, Pitch_bend_c, 3, 8064
5, 582668, Pitch_bend_c, 3, 8064
5, 582681, Pitch_bend_c, 3, 8064
5, 582700, Pitch_bend_c, 3, 8192
5, 582720, Pitch_bend_c, 3, 8192
5, 582739, Pitch_bend_c, 3, 8192
5, 582758, Pitch_bend_c, 3, 8320
5, 582771, Pitch_bend_c, 3, 8320
5, 582790, Pitch_bend_c, 3, 8448
5, 582809, Pitch_bend_c, 3, 8448
5, 582828, Pitch_bend_c, 3, 8448
5, 582848, Pitch_bend_c, 3, 8448
5, 582860, Pitch_bend_c, 3, 8448
5, 582880, Pitch_bend_c, 3, 8448
5, 582899, Pitch_bend_c, 3, 8448
5, 582918, Pitch_bend_c, 3, 8448
5, 582937, Pitch_bend_c, 3, 8448
5, 582956, Pitch_bend_c, 3, 8320
5, 582969, Pitch_bend_c, 3, 8320
5, 582988, Pitch_bend_c, 3, 8192
5, 583008, Pitch_bend_c, 3, 8192
5, 583027, Pitch_bend_c, 3, 8192
5, 583046, Pitch_bend_c, 3, 8064
5, 583059, Pitch_bend_c, 3, 8064
5, 583078, Pitch_bend_c, 3, 7936
5, 583097, Pitch_bend_c, 3, 7936
5, 583116, Pitch_bend_c, 3, 7936
5, 583136, Pitch_bend_c, 3, 7936
5, 583155, Pitch_bend_c, 3, 7936
5, 583168, Pitch_bend_c, 3, 7936
5, 583187, Pitch_bend_c, 3, 7936
5, 583206, Pitch_bend_c, 3, 7936
5, 583225, Pitch_bend_c, 3, 7936
5, 583244, Pitch_bend_c, 3, 8064
5, 583257, Pitch_bend_c, 3, 8064
5, 583276, Pitch_bend_c, 3, 8192
5, 583296, Pitch_bend_c, 3, 8192
5, 583315, Pitch_bend_c, 3, 8192
5, 583334, Pitch_bend_c, 3, 8320
5, 583347, Pitch_bend_c, 3, 8320
5, 583366, Pitch_bend_c, 3, 8320
5, 583385, Pitch_bend_c, 3, 8320
5, 583404, Pitch_bend_c, 3, 8320
5, 583424, Pitch_bend_c, 3, 8448
5, 583436, Pitch_bend_c, 3, 8448
5, 583456, Pitch_bend_c, 3, 8448
5, 583475, Pitch_bend_c, 3, 8320
5, 583494, Pitch_bend_c, 3, 8320
5, 583513, Pitch_bend_c, 3, 8320
5, 583532, Pitch_bend_c, 3, 8320
5, 583545, Pitch_bend_c, 3, 8320
5, 583564, Pitch_bend_c, 3, 8192
5, 583584, Pitch_bend_c, 3, 8192
5, 583603, Pitch_bend_c, 3, 8192
5, 583622, Pitch_bend_c, 3, 8064
5, 583635, Pitch_bend_c, 3, 8064
5, 583654, Pitch_bend_c, 3, 8064
5, 583673, Pitch_bend_c, 3, 8064
5, 583692, Pitch_bend_c, 3, 8064
5, 583712, Pitch_bend_c, 3, 7936
5, 583731, Pitch_bend_c, 3, 7936
5, 583744, Pitch_bend_c, 3, 7936
5, 583763, Pitch_bend_c, 3, 8064
5, 583782, Pitch_bend_c, 3, 8064
5, 583801, Pitch_bend_c, 3, 8064
5, 583820, Pitch_bend_c, 3, 8064
5, 583833, Pitch_bend_c, 3, 8064
5, 583852, Pitch_bend_c, 3, 8192
5, 583872, Pitch_bend_c, 3, 8192
5, 583891, Pitch_bend_c, 3, 8192
5, 583910, Pitch_bend_c, 3, 8320
5, 583923, Pitch_bend_c, 3, 8320
5, 583942, Pitch_bend_c, 3, 8320
5, 583961, Pitch_bend_c, 3, 8448
5, 583980, Pitch_bend_c, 3, 8448
5, 584000, Pitch_bend_c, 3, 8448
5, 584012, Pitch_bend_c, 3, 8448
5, 584032, Pitch_bend_c, 3, 8448
5, 584051, Pitch_bend_c, 3, 8448
5, 584070, Pitch_bend_c, 3, 8448
5, 584089, Pitch_bend_c, 3, 8320
5, 584108, Pitch_bend_c, 3, 8320
5, 584121, Pitch_bend_c, 3, 8320
5, 584140, Pitch_bend_c, 3, 8192
5, 584160, Pitch_bend_c, 3, 8192
5, 584179, Pitch_bend_c, 3, 8192
5, 584198, Pitch_bend_c, 3, 8064
5, 584211, Pitch_bend_c, 3, 8064
5, 584230, Pitch_bend_c, 3, 8064
5, 584249, Pitch_bend_c, 3, 7936
5, 584268, Pitch_bend_c, 3, 7936
5, 584288, Pitch_bend_c, 3, 7936
5, 584307, Pitch_bend_c, 3, 7936
5, 584320, Pitch_bend_c, 3, 7936
5, 584339, Pitch_bend_c, 3, 7936
5, 584358, Pitch_bend_c, 3, 7936
5, 584377, Pitch_bend_c, 3, 8064
5, 584396, Pitch_bend_c, 3, 8064
5, 584409, Pitch_bend_c, 3, 8064
5, 584428, Pitch_bend_c, 3, 8192
5, 584448, Pitch_bend_c, 3, 8192
5, 584467, Pitch_bend_c, 3, 8192
5, 584486, Pitch_bend_c, 3, 8320
5, 584499, Pitch_bend_c, 3, 8320
5, 584518, Pitch_bend_c, 3, 8448
5, 584537, Pitch_bend_c, 3, 8448
5, 584556, Pitch_bend_c, 3, 8448
5, 584576, Pitch_bend_c, 3, 8448
5, 584588, Pitch_bend_c, 3, 8448
5, 584608, Pitch_bend_c, 3, 8448
5, 584627, Pitch_bend_c, 3, 8448
5, 584646, Pitch_bend_c, 3, 8448
5, 584665, Pitch_bend_c, 3, 8448
5, 584684, Pitch_bend_c, 3, 8320
5, 584697, Pitch_bend_c, 3, 8320
5, 584716, Pitch_bend_c, 3, 8192
5, 584736, Pitch_bend_c, 3, 8192
5, 584755, Pitch_bend_c, 3, 8192
5, 584774, Pitch_bend_c, 3, 8064
5, 584787, Pitch_bend_c, 3, 8064
5, 584806, Pitch_bend_c, 3, 7936
5, 584825, Pitch_bend_c, 3, 7936
5, 584844, Pitch_bend_c, 3, 7936
5, 584864, Pitch_bend_c, 3, 7936
5, 584883, Pitch_bend_c, 3, 7936
5, 584896, Pitch_bend_c, 3, 7936
5, 584915, Pitch_bend_c, 3, 7936
5, 584934, Pitch_bend_c, 3, 7936
5, 584953, Pitch_bend_c, 3, 7936
5, 584972, Pitch_bend_c, 3, 8064
5, 584985, Pitch_bend_c, 3, 8064
5, 585004, Pitch_bend_c, 3, 8192
5, 585024, Pitch_bend_c, 3, 8192
5, 585043, Pitch_bend_c, 3, 8192
5, 585062, Pitch_bend_c, 3, 8320
5, 585075, Pitch_bend_c, 3, 8320
5, 585094, Pitch_bend_c, 3, 8320
5, 585113, Pitch_bend_c, 3, 8320
5, 585132, Pitch_bend_c, 3, 8448
5, 585152, Pitch_bend_c, 3, 8448
5, 585164, Pitch_bend_c, 3, 8448
5, 585184, Pitch_bend_c, 3, 8448
5, 585203, Pitch_bend_c, 3, 8448
5, 585222, Pitch_bend_c, 3, 8320
5, 585241, Pitch_bend_c, 3, 8320
5, 585260, Pitch_bend_c, 3, 8320
5, 585273, Pitch_bend_c, 3, 8320
5, 585292, Pitch_bend_c, 3, 8192
5, 585312, Pitch_bend_c, 3, 8192
5, 585331, Pitch_bend_c, 3, 8192
5, 585350, Pitch_bend_c, 3, 8064
5, 585363, Pitch_bend_c, 3, 8064
5, 585382, Pitch_bend_c, 3, 8064
5, 585401, Pitch_bend_c, 3, 8064
5, 585420, Pitch_bend_c, 3, 7936
5, 585440, Pitch_bend_c, 3, 7936
5, 585459, Pitch_bend_c, 3, 7936
5, 585472, Pitch_bend_c, 3, 7936
5, 585491, Pitch_bend_c, 3, 7936
5, 585510, Pitch_bend_c, 3, 8064
5, 585529, Pitch_bend_c, 3, 8064
5, 585548, Pitch_bend_c, 3, 8064
5, 585561, Pitch_bend_c, 3, 8064
5, 585580, Pitch_bend_c, 3, 8192
5, 585600, Pitch_bend_c, 3, 8192
5, 585619, Pitch_bend_c, 3, 8192
5, 585638, Pitch_bend_c, 3, 8320
5, 585651, Pitch_bend_c, 3, 8320
5, 585670, Pitch_bend_c, 3, 8320
5, 585689, Pitch_bend_c, 3, 8448
5, 585708, Pitch_bend_c, 3, 8448
5, 585728, Pitch_bend_c, 3, 8448
5, 585740, Pitch_bend_c, 3, 8448
5, 585760, Pitch_bend_c, 3, 8448
5, 585779, Pitch_bend_c, 3, 8448
5, 585798, Pitch_bend_c, 3, 8448
5, 585817, Pitch_bend_c, 3, 8320
5, 585836, Pitch_bend_c, 3, 8320
5, 585849, Pitch_bend_c, 3, 8320
5, 585868, Pitch_bend_c, 3, 8192
5, 585888, Pitch_bend_c, 3, 8192
5, 585907, Pitch_bend_c, 3, 8192
5, 585926, Pitch_bend_c, 3, 8064
5, 585939, Pitch_bend_c, 3, 8064
5, 585958, Pitch_bend_c, 3, 8064
5, 585977, Pitch_bend_c, 3, 7936
5, 585996, Pitch_bend_c, 3, 7936
5, 586016, Pitch_bend_c, 3, 7936
5, 586035, Pitch_bend_c, 3, 7936
5, 586048, Pitch_bend_c, 3, 7936
5, 586067, Pitch_bend_c, 3, 7936
5, 586086, Pitch_bend_c, 3, 7936
5, 586105, Pitch_bend_c, 3, 8064
5, 586124, Pitch_bend_c, 3, 8064
5, 586137, Pitch_bend_c, 3, 8064
5, 586156, Pitch_bend_c, 3, 8192
5, 586176, Pitch_bend_c, 3, 8192
5, 586195, Pitch_bend_c, 3, 8192
5, 586214, Pitch_bend_c, 3, 8320
5, 586227, Pitch_bend_c, 3, 8320
5, 586246, Pitch_bend_c, 3, 8320
5, 586265, Pitch_bend_c, 3, 8320
5, 586284, Pitch_bend_c, 3, 8320
5, 586304, Pitch_bend_c, 3, 8320
5, 586316, Pitch_bend_c, 3, 8320
5, 586336, Pitch_bend_c, 3, 8320
5, 586355, Pitch_bend_c, 3, 8320
5, 586374, Pitch_bend_c, 3, 8320
5, 586393, Pitch_bend_c, 3, 8320
5, 586412, Pitch_bend_c, 3, 8320
5, 586425, Pitch_bend_c, 3, 8320
5, 586444, Pitch_bend_c, 3, 8192
5, 586464, Pitch_bend_c, 3, 8192
5, 586483, Pitch_bend_c, 3, 8192
5, 586502, Pitch_bend_c, 3, 8064
5, 586515, Pitch_bend_c, 3, 8064
5, 586534, Pitch_bend_c, 3, 8064
5, 586553, Pitch_bend_c, 3, 8064
5, 586572, Pitch_bend_c, 3, 8064
5, 586592, Pitch_bend_c, 3, 8064
5, 586611, Pitch_bend_c, 3, 8064
5, 586624, Pitch_bend_c, 3, 8064
5, 586643, Pitch_bend_c, 3, 8064
5, 586662, Pitch_bend_c, 3, 8064
5, 586681, Pitch_bend_c, 3, 8064
5, 586700, Pitch_bend_c, 3, 8064
5, 586713, Pitch_bend_c, 3, 8064
5, 586732, Pitch_bend_c, 3, 8192
5, 586752, Pitch_bend_c, 3, 8192
5, 586771, Pitch_bend_c, 3, 8192
5, 586790, Pitch_bend_c, 3, 8320
5, 586803, Pitch_bend_c, 3, 8320
5, 586822, Pitch_bend_c, 3, 8448
5, 586841, Pitch_bend_c, 3, 8448
5, 586860, Pitch_bend_c, 3, 8448
5, 586880, Pitch_bend_c, 3, 8448
5, 586892, Pitch_bend_c, 3, 8448
5, 586912, Pitch_bend_c, 3, 8448
5, 586931, Pitch_bend_c, 3, 8448
5, 586950, Pitch_bend_c, 3, 8448
5, 586969, Pitch_bend_c, 3, 8448
5, 586988, Pitch_bend_c, 3, 8320
5, 587001, Pitch_bend_c, 3, 8320
5, 587020, Pitch_bend_c, 3, 8192
5, 587040, Pitch_bend_c, 3, 8192
5, 587059, Pitch_bend_c, 3, 8192
5, 587078, Pitch_bend_c, 3, 8064
5, 587091, Pitch_bend_c, 3, 8064
5, 587110, Pitch_bend_c, 3, 7936
5, 587129, Pitch_bend_c, 3, 7936
5, 587148, Pitch_bend_c, 3, 7936
5, 587168, Pitch_bend_c, 3, 7936
5, 587187, Pitch_bend_c, 3, 7936
5, 587200, Pitch_bend_c, 3, 7936
5, 587219, Pitch_bend_c, 3, 7936
5, 587238, Pitch_bend_c, 3, 7936
5, 587257, Pitch_bend_c, 3, 7936
5, 587276, Pitch_bend_c, 3, 8064
5, 587289, Pitch_bend_c, 3, 8064
5, 587308, Pitch_bend_c, 3, 8192
5, 587328, Pitch_bend_c, 3, 8192
5, 587347, Pitch_bend_c, 3, 8192
5, 587366, Pitch_bend_c, 3, 8320
5, 587379, Pitch_bend_c, 3, 8320
5, 587398, Pitch_bend_c, 3, 8320
5, 587417, Pitch_bend_c, 3, 8448
5, 587436, Pitch_bend_c, 3, 8448
5, 587456, Pitch_bend_c, 3, 8448
5, 587468, Pitch_bend_c, 3, 8448
5, 587488, Pitch_bend_c, 3, 8448
5, 587507, Pitch_bend_c, 3, 8448
5, 587526, Pitch_bend_c, 3, 8448
5, 587545, Pitch_bend_c, 3, 8320
5, 587564, Pitch_bend_c, 3, 8320
5, 587577, Pitch_bend_c, 3, 8320
5, 587596, Pitch_bend_c, 3, 8192
5, 587616, Pitch_bend_c, 3, 8192
5, 587635, Pitch_bend_c, 3, 8192
5, 587654, Pitch_bend_c, 3, 8064
5, 587667, Pitch_bend_c, 3, 8064
5, 587686, Pitch_bend_c, 3, 8064
5, 587705, Pitch_bend_c, 3, 7936
5, 587724, Pitch_bend_c, 3, 7936
5, 587744, Pitch_bend_c, 3, 7936
5, 587763, Pitch_bend_c, 3, 7936
5, 587776, Pitch_bend_c, 3, 7936
5, 587795, Pitch_bend_c, 3, 7936
5, 587814, Pitch_bend_c, 3, 7936
5, 587833, Pitch_bend_c, 3, 8064
5, 587852, Pitch_bend_c, 3, 8064
5, 587865, Pitch_bend_c, 3, 8064
5, 587884, Pitch_bend_c, 3, 8192
5, 587904, Pitch_bend_c, 3, 8192
5, 587923, Pitch_bend_c, 3, 8192
5, 587942, Pitch_bend_c, 3, 8320
5, 587955, Pitch_bend_c, 3, 8320
5, 587974, Pitch_bend_c, 3, 8320
5, 587993, Pitch_bend_c, 3, 8320
5, 588012, Pitch_bend_c, 3, 8320
5, 588032, Pitch_bend_c, 3, 8320
5, 588044, Pitch_bend_c, 3, 8320
5, 588064, Pitch_bend_c, 3, 8320
5, 588083, Pitch_bend_c, 3, 8320
5, 588102, Pitch_bend_c, 3, 8320
5, 588121, Pitch_bend_c, 3, 8320
5, 588140, Pitch_bend_c, 3, 8320
5, 588153, Pitch_bend_c, 3, 8320
5, 588172, Pitch_bend_c, 3, 8192
5, 588192, Pitch_bend_c, 3, 8192
5, 588211, Pitch_bend_c, 3, 8192
5, 588230, Pitch_bend_c, 3, 8064
5, 588243, Pitch_bend_c, 3, 8064
5, 588262, Pitch_bend_c, 3, 8064
5, 588281, Pitch_bend_c, 3, 8064
5, 588300, Pitch_bend_c, 3, 8064
5, 588320, Pitch_bend_c, 3, 8064
5, 588339, Pitch_bend_c, 3, 8064
5, 588352, Pitch_bend_c, 3, 8064
5, 588371, Pitch_bend_c, 3, 8064
5, 588390, Pitch_bend_c, 3, 8064
5, 588409, Pitch_bend_c, 3, 8064
5, 588428, Pitch_bend_c, 3, 8064
5, 588441, Pitch_bend_c, 3, 8064
5, 588460, Pitch_bend_c, 3, 8192
5, 588480, Pitch_bend_c, 3, 8192
5, 588499, Pitch_bend_c, 3, 8192
5, 588518, Pitch_bend_c, 3, 8320
5, 588531, Pitch_bend_c, 3, 8320
5, 588550, Pitch_bend_c, 3, 8320
5, 588569, Pitch_bend_c, 3, 8320
5, 588588, Pitch_bend_c, 3, 8320
5, 588608, Pitch_bend_c, 3, 8320
5, 588620, Pitch_bend_c, 3, 8320
5, 588640, Pitch_bend_c, 3, 8320
5, 588659, Pitch_bend_c, 3, 8320
5, 588678, Pitch_bend_c, 3, 8320
5, 588697, Pitch_bend_c, 3, 8320
5, 588716, Pitch_bend_c, 3, 8320
5, 588729, Pitch_bend_c, 3, 8320
5, 588748, Pitch_bend_c, 3, 8192
5, 588768, Pitch_bend_c, 3, 8192
5, 588787, Pitch_bend_c, 3, 8192
5, 588806, Pitch_bend_c, 3, 8064
5, 588819, Pitch_bend_c, 3, 8064
5, 588838, Pitch_bend_c, 3, 8064
5, 588857, Pitch_bend_c, 3, 8064
5, 588876, Pitch_bend_c, 3, 8064
5, 588896, Pitch_bend_c, 3, 8064
5, 588915, Pitch_bend_c, 3, 8064
5, 588928, Pitch_bend_c, 3, 8064
5, 588947, Pitch_bend_c, 3, 8064
5, 588966, Pitch_bend_c, 3, 8064
5, 588985, Pitch_bend_c, 3, 8064
5, 589004, Pitch_bend_c, 3, 8064
5, 589017, Pitch_bend_c, 3, 8064
5, 589036, Pitch_bend_c, 3, 8192
5, 589056, Pitch_bend_c, 3, 8192
5, 589075, Pitch_bend_c, 3, 8192
5, 589094, Pitch_bend_c, 3, 8192
5, 589107, Pitch_bend_c, 3, 8320
5, 589126, Pitch_bend_c, 3, 8320
5, 589145, Pitch_bend_c, 3, 8320
5, 589164, Pitch_bend_c, 3, 8320
5, 589184, Pitch_bend_c, 3, 8320
5, 589196, Pitch_bend_c, 3, 8320
5, 589216, Pitch_bend_c, 3, 8320
5, 589235, Pitch_bend_c, 3, 8320
5, 589254, Pitch_bend_c, 3, 8320
5, 589273, Pitch_bend_c, 3, 8320
5, 589292, Pitch_bend_c, 3, 8320
5, 589305, Pitch_bend_c, 3, 8192
5, 589324, Pitch_bend_c, 3, 8192
5, 589344, Pitch_bend_c, 3, 8192
5, 589363, Pitch_bend_c, 3, 8192
5, 589382, Pitch_bend_c, 3, 8192
5, 589395, Pitch_bend_c, 3, 8064
5, 589414, Pitch_bend_c, 3, 8064
5, 589433, Pitch_bend_c, 3, 8064
5, 589452, Pitch_bend_c, 3, 8064
5, 589472, Pitch_bend_c, 3, 8064
5, 589491, Pitch_bend_c, 3, 8064
5, 589504, Pitch_bend_c, 3, 8064
5, 589523, Pitch_bend_c, 3, 8064
5, 589542, Pitch_bend_c, 3, 8064
5, 589561, Pitch_bend_c, 3, 8064
5, 589580, Pitch_bend_c, 3, 8064
5, 589593, Pitch_bend_c, 3, 8192
5, 589612, Pitch_bend_c, 3, 8192
5, 589632, Pitch_bend_c, 3, 8192
5, 589651, Pitch_bend_c, 3, 8192
5, 589670, Pitch_bend_c, 3, 8192
5, 589683, Pitch_bend_c, 3, 8192
5, 589702, Pitch_bend_c, 3, 8192
5, 589721, Pitch_bend_c, 3, 8192
5, 589740, Pitch_bend_c, 3, 8192
5, 589760, Pitch_bend_c, 3, 8192
5, 589772, Pitch_bend_c, 3, 8192
5, 589792, Pitch_bend_c, 3, 8192
5, 589811, Pitch_bend_c, 3, 8192
5, 589824, Note_off_c, 3, 70, 80
5, 589824, Note_off_c, 3, 79, 80
5, 589824, Pitch_bend_c, 3, 8192
5, 734208, Note_on_c, 3, 62, 63
5, 734208, Note_on_c, 3, 57, 63
5, 734336, Note_off_c, 3, 57, 80
5, 734336, Note_off_c, 3, 62, 80
5, 734976, Pitch_bend_c, 3, 7552
5, 735302, Pitch_bend_c, 3, 6784
5, 735635, Pitch_bend_c, 3, 6144
5, 735961, Pitch_bend_c, 3, 5504
5, 736294, Pitch_bend_c, 3, 4736
5, 736620, Pitch_bend_c, 3, 4096
5, 736953, Pitch_bend_c, 3, 3456
5, 737280, Pitch_bend_c, 3, 8192
5, 737280, Note_on_c, 3, 67, 63
5, 737280, Note_on_c, 3, 62, 63
5, 737280, Note_on_c, 3, 55, 63
5, 737280, Note_on_c, 3, 50, 63
5, 737280, Note_on_c, 3, 43, 63
5, 749568, Note_off_c, 3, 43, 80
5, 749568, Note_off_c, 3, 50, 80
5, 749568, Note_off_c, 3, 55, 80
5, 749568, Note_off_c, 3, 62, 80
5, 749568, Note_off_c, 3, 67, 80
5, 749568, Note_on_c, 3, 60, 63
5, 749568, Note_on_c, 3, 55, 63
5, 749568, Note_on_c, 3, 48, 63
5, 749568, Note_on_c, 3, 43, 63
5, 758784, Note_off_c, 3, 43, 80
5, 758784, Note_off_c, 3, 48, 80
5, 758784, Note_off_c, 3, 55, 80
5, 758784, Note_off_c, 3, 60, 80
5, 758784, Note_on_c, 3, 60, 63
5, 758784, Note_on_c, 3, 55, 63
5, 758784, Note_on_c, 3, 48, 63
5, 759552, Note_off_c, 3, 48, 80
5, 759552, Note_off_c, 3, 55, 80
5, 759552, Note_off_c, 3, 60, 80
5, 759552, Note_on_c, 3, 58, 63
5, 759552, Note_on_c, 3, 53, 63
5, 759552, Note_on_c, 3, 46, 63
5, 761856, Note_off_c, 3, 46, 80
5, 761856, Note_off_c, 3, 53, 80
5, 761856, Note_off_c, 3, 58, 80
5, 761856, Note_on_c, 3, 67, 63
5, 761856, Note_on_c, 3, 62, 63
5, 761856, Note_on_c, 3, 55, 63
5, 761856, Note_on_c, 3, 50, 63
5, 761856, Note_on_c, 3, 43, 63
5, 774144, Note_off_c, 3, 43, 80
5, 774144, Note_off_c, 3, 50, 80
5, 774144, Note_off_c, 3, 55, 80
5, 774144, Note_off_c, 3, 62, 80
5, 774144, Note_off_c, 3, 67, 80
5, 774144, Note_on_c, 3, 60, 63
5, 774144, Note_on_c, 3, 55, 63
5, 774144, Note_on_c, 3, 48, 63
5, 774144, Note_on_c, 3, 43, 63
5, 783360, Note_off_c, 3, 43, 80
5, 783360, Note_off_c, 3, 48, 80
5, 783360, Note_off_c, 3, 55, 80
5, 783360, Note_off_c, 3, 60, 80
5, 783360, Note_on_c, 3, 60, 63
5, 783360, Note_on_c, 3, 55, 63
5, 783360, Note_on_c, 3, 48, 63
5, 784128, Note_off_c, 3, 48, 80
5, 784128, Note_off_c, 3, 55, 80
5, 784128, Note_off_c, 3, 60, 80
5, 784128, Note_on_c, 3, 58, 63
5, 784128, Note_on_c, 3, 53, 63
5, 784128, Note_on_c, 3, 46, 63
5, 786432, Note_off_c, 3, 46, 80
5, 786432, Note_off_c, 3, 53, 80
5, 786432, Note_off_c, 3, 58, 80
5, 786432, Note_on_c, 3, 67, 63
5, 786432, Note_on_c, 3, 62, 63
5, 786432, Note_on_c, 3, 55, 63
5, 786432, Note_on_c, 3, 50, 63
5, 786432, Note_on_c, 3, 43, 63
5, 798720, Note_off_c, 3, 43, 80
5, 798720, Note_off_c, 3, 50, 80
5, 798720, Note_off_c, 3, 55, 80
5, 798720, Note_off_c, 3, 62, 80
5, 798720, Note_off_c, 3, 67, 80
5, 798720, Note_on_c, 3, 60, 63
5, 798720, Note_on_c, 3, 55, 63
5, 798720, Note_on_c, 3, 48, 63
5, 798720, Note_on_c, 3, 43, 63
5, 807936, Note_off_c, 3, 43, 80
5, 807936, Note_off_c, 3, 48, 80
5, 807936, Note_off_c, 3, 55, 80
5, 807936, Note_off_c, 3, 60, 80
5, 807936, Note_on_c, 3, 60, 63
5, 807936, Note_on_c, 3, 55, 63
5, 807936, Note_on_c, 3, 48, 63
5, 808704, Note_off_c, 3, 48, 80
5, 808704, Note_off_c, 3, 55, 80
5, 808704, Note_off_c, 3, 60, 80
5, 808704, Note_on_c, 3, 58, 63
5, 808704, Note_on_c, 3, 53, 63
5, 808704, Note_on_c, 3, 46, 63
5, 811008, Note_off_c, 3, 46, 80
5, 811008, Note_off_c, 3, 53, 80
5, 811008, Note_off_c, 3, 58, 80
5, 811008, Note_on_c, 3, 67, 63
5, 811008, Note_on_c, 3, 62, 63
5, 811008, Note_on_c, 3, 55, 63
5, 811008, Note_on_c, 3, 50, 63
5, 811008, Note_on_c, 3, 43, 63
5, 823296, Note_off_c, 3, 43, 80
5, 823296, Note_off_c, 3, 50, 80
5, 823296, Note_off_c, 3, 55, 80
5, 823296, Note_off_c, 3, 62, 80
5, 823296, Note_off_c, 3, 67, 80
5, 823296, Note_on_c, 3, 63, 63
5, 823296, Note_on_c, 3, 60, 63
5, 823296, Note_on_c, 3, 55, 63
5, 823296, Note_on_c, 3, 45, 63
5, 831744, Note_on_c, 3, 54, 63
5, 831744, Pitch_bend_c, 3, 6144
5, 832000, Pitch_bend_c, 3, 6784
5, 832256, Pitch_bend_c, 3, 7552
5, 832512, Note_off_c, 3, 45, 80
5, 832512, Note_off_c, 3, 55, 80
5, 832512, Note_off_c, 3, 60, 80
5, 832512, Note_off_c, 3, 63, 80
5, 832512, Pitch_bend_c, 3, 8192
5, 833280, Pitch_bend_c, 3, 7552
5, 833606, Pitch_bend_c, 3, 6784
5, 833939, Pitch_bend_c, 3, 6144
5, 834265, Pitch_bend_c, 3, 5504
5, 834598, Pitch_bend_c, 3, 4736
5, 834924, Pitch_bend_c, 3, 4096
5, 835257, Pitch_bend_c, 3, 3456
5, 835584, Note_off_c, 3, 54, 80
5, 835584, Pitch_bend_c, 3, 8192
5, 835584, Note_on_c, 3, 62, 63
5, 835584, Note_on_c, 3, 57, 63
5, 835584, Note_on_c, 3, 50, 63
5, 835584, Note_on_c, 3, 45, 63
5, 847872, Note_off_c, 3, 45, 80
5, 847872, Note_off_c, 3, 50, 80
5, 847872, Note_off_c, 3, 57, 80
5, 847872, Note_off_c, 3, 62, 80
5, 847872, Note_on_c, 3, 67, 63
5, 847904, Note_on_c, 3, 62, 63
5, 847936, Note_on_c, 3, 58, 63
5, 847968, Note_on_c, 3, 55, 63
5, 848000, Note_on_c, 3, 50, 63
5, 848032, Note_on_c, 3, 43, 63
5, 860160, Note_off_c, 3, 43, 80
5, 860160, Note_off_c, 3, 50, 80
5, 860160, Note_off_c, 3, 55, 80
5, 860160, Note_off_c, 3, 58, 80
5, 860160, Note_off_c, 3, 62, 80
5, 860160, Note_off_c, 3, 67, 80
5, 860160, End_track
6, 0, Start_track
6, 0, Title_t, "Distorted [Centre]"
6, 3072, Control_c, 4, 100, 0
6, 3072, Control_c, 4, 101, 0
6, 3072, Control_c, 4, 6, 12
6, 3072, Pitch_bend_c, 4, 8192
6, 3072, Control_c, 4, 38, 0
6, 3072, Program_c, 4, 29
6, 3072, Control_c, 4, 0, 0
6, 3072, Control_c, 4, 7, 104
6, 3072, Control_c, 4, 10, 64
6, 3072, Control_c, 4, 93, 0
6, 3072, Control_c, 4, 91, 0
6, 3072, Control_c, 4, 92, 0
6, 3072, Control_c, 4, 95, 0
6, 417792, Note_on_c, 4, 51, 79
6, 419328, Note_on_c, 4, 58, 79
6, 420096, Note_on_c, 4, 67, 79
6, 421632, Note_off_c, 4, 58, 80
6, 421632, Note_on_c, 4, 58, 79
6, 422400, Note_off_c, 4, 51, 80
6, 422400, Note_on_c, 4, 51, 79
6, 423168, Note_off_c, 4, 51, 80
6, 423168, Note_off_c, 4, 67, 80
6, 423168, Note_on_c, 4, 68, 79
6, 424704, Note_off_c, 4, 58, 80
6, 424704, Note_on_c, 4, 58, 79
6, 425472, Note_on_c, 4, 51, 79
6, 426240, Note_off_c, 4, 51, 80
6, 426240, Note_off_c, 4, 68, 80
6, 426240, Note_on_c, 4, 67, 79
6, 427776, Note_off_c, 4, 58, 80
6, 427776, Note_on_c, 4, 58, 79
6, 428544, Note_on_c, 4, 51, 79
6, 429312, Note_off_c, 4, 51, 80
6, 429312, Note_off_c, 4, 67, 80
6, 429312, Note_on_c, 4, 65, 79
6, 430848, Note_off_c, 4, 58, 80
6, 430848, Note_on_c, 4, 58, 79
6, 431616, Note_on_c, 4, 46, 79
6, 432384, Note_off_c, 4, 46, 80
6, 432384, Note_off_c, 4, 65, 80
6, 432384, Note_on_c, 4, 65, 79
6, 433920, Note_off_c, 4, 58, 80
6, 433920, Note_on_c, 4, 58, 79
6, 434688, Note_on_c, 4, 46, 79
6, 435456, Note_off_c, 4, 46, 80
6, 435456, Note_on_c, 4, 62, 79
6, 436992, Note_off_c, 4, 58, 80
6, 436992, Note_on_c, 4, 58, 79
6, 437760, Note_on_c, 4, 46, 79
6, 438528, Note_off_c, 4, 46, 80
6, 438528, Note_off_c, 4, 62, 80
6, 438528, Note_on_c, 4, 63, 79
6, 440064, Note_off_c, 4, 65, 80
6, 440064, Note_on_c, 4, 65, 79
6, 442368, Note_on_c, 4, 51, 79
6, 443904, Note_off_c, 4, 58, 80
6, 443904, Note_on_c, 4, 58, 79
6, 444672, Note_off_c, 4, 65, 80
6, 444672, Note_on_c, 4, 67, 79
6, 446208, Note_off_c, 4, 58, 80
6, 446208, Note_on_c, 4, 58, 79
6, 446976, Note_off_c, 4, 51, 80
6, 446976, Note_on_c, 4, 51, 79
6, 447744, Note_off_c, 4, 51, 80
6, 447744, Note_off_c, 4, 67, 80
6, 447744, Note_on_c, 4, 68, 79
6, 449280, Note_off_c, 4, 58, 80
6, 449280, Note_on_c, 4, 58, 79
6, 450048, Note_on_c, 4, 51, 79
6, 450816, Note_off_c, 4, 51, 80
6, 450816, Note_off_c, 4, 68, 80
6, 450816, Note_off_c, 4, 63, 80
6, 450816, Note_on_c, 4, 67, 79
6, 452352, Note_off_c, 4, 58, 80
6, 452352, Note_on_c, 4, 58, 79
6, 453120, Note_on_c, 4, 51, 79
6, 453888, Note_off_c, 4, 51, 80
6, 453888, Note_off_c, 4, 67, 80
6, 453888, Note_on_c, 4, 65, 79
6, 455424, Note_off_c, 4, 58, 80
6, 455424, Note_on_c, 4, 58, 79
6, 456192, Note_on_c, 4, 46, 79
6, 456960, Note_off_c, 4, 46, 80
6, 456960, Note_off_c, 4, 65, 80
6, 456960, Note_on_c, 4, 65, 79
6, 458496, Note_off_c, 4, 58, 80
6, 458496, Note_on_c, 4, 58, 79
6, 459264, Note_on_c, 4, 46, 79
6, 460032, Note_off_c, 4, 46, 80
6, 460032, Note_on_c, 4, 62, 79
6, 461568, Note_off_c, 4, 58, 80
6, 461568, Note_on_c, 4, 58, 79
6, 462336, Note_on_c, 4, 46, 79
6, 463104, Note_off_c, 4, 46, 80
6, 463104, Note_off_c, 4, 62, 80
6, 463104, Note_on_c, 4, 63, 79
6, 464640, Note_off_c, 4, 65, 80
6, 464640, Note_on_c, 4, 65, 79
6, 466944, Note_on_c, 4, 51, 79
6, 468480, Note_off_c, 4, 58, 80
6, 468480, Note_on_c, 4, 58, 79
6, 469248, Note_off_c, 4, 65, 80
6, 469248, Note_on_c, 4, 67, 79
6, 470784, Note_off_c, 4, 58, 80
6, 470784, Note_on_c, 4, 58, 79
6, 471552, Note_off_c, 4, 51, 80
6, 471552, Note_on_c, 4, 51, 79
6, 472320, Note_off_c, 4, 51, 80
6, 472320, Note_off_c, 4, 67, 80
6, 472320, Note_on_c, 4, 68, 79
6, 473856, Note_off_c, 4, 58, 80
6, 473856, Note_on_c, 4, 58, 79
6, 474624, Note_on_c, 4, 51, 79
6, 475392, Note_off_c, 4, 51, 80
6, 475392, Note_off_c, 4, 68, 80
6, 475392, Note_off_c, 4, 63, 80
6, 475392, Note_on_c, 4, 67, 79
6, 476928, Note_off_c, 4, 58, 80
6, 476928, Note_on_c, 4, 58, 79
6, 477696, Note_on_c, 4, 51, 79
6, 478464, Note_off_c, 4, 51, 80
6, 478464, Note_off_c, 4, 67, 80
6, 478464, Note_on_c, 4, 65, 79
6, 480000, Note_off_c, 4, 58, 80
6, 480000, Note_on_c, 4, 58, 79
6, 480768, Note_on_c, 4, 46, 79
6, 481536, Note_off_c, 4, 46, 80
6, 481536, Note_off_c, 4, 65, 80
6, 481536, Note_on_c, 4, 65, 79
6, 483072, Note_off_c, 4, 58, 80
6, 483072, Note_on_c, 4, 58, 79
6, 483840, Note_on_c, 4, 46, 79
6, 484608, Note_off_c, 4, 46, 80
6, 484608, Note_on_c, 4, 62, 79
6, 486144, Note_off_c, 4, 58, 80
6, 486144, Note_on_c, 4, 58, 79
6, 486912, Note_on_c, 4, 46, 79
6, 487680, Note_off_c, 4, 46, 80
6, 487680, Note_off_c, 4, 62, 80
6, 487680, Note_on_c, 4, 63, 79
6, 489216, Note_off_c, 4, 65, 80
6, 489216, Note_on_c, 4, 65, 79
6, 491520, Note_on_c, 4, 51, 79
6, 493056, Note_off_c, 4, 58, 80
6, 493056, Note_on_c, 4, 58, 79
6, 493824, Note_off_c, 4, 65, 80
6, 493824, Note_on_c, 4, 67, 79
6, 495360, Note_off_c, 4, 58, 80
6, 495360, Note_on_c, 4, 58, 79
6, 496128, Note_off_c, 4, 51, 80
6, 496128, Note_on_c, 4, 51, 79
6, 496896, Note_off_c, 4, 51, 80
6, 496896, Note_off_c, 4, 67, 80
6, 496896, Note_on_c, 4, 68, 79
6, 498432, Note_off_c, 4, 58, 80
6, 498432, Note_on_c, 4, 58, 79
6, 499200, Note_on_c, 4, 51, 79
6, 499968, Note_off_c, 4, 51, 80
6, 499968, Note_off_c, 4, 68, 80
6, 499968, Note_off_c, 4, 63, 80
6, 499968, Note_on_c, 4, 67, 79
6, 501504, Note_off_c, 4, 58, 80
6, 501504, Note_on_c, 4, 58, 79
6, 502272, Note_on_c, 4, 51, 79
6, 503040, Note_off_c, 4, 51, 80
6, 503040, Note_off_c, 4, 67, 80
6, 503040, Note_on_c, 4, 65, 79
6, 504576, Note_off_c, 4, 58, 80
6, 504576, Note_on_c, 4, 58, 79
6, 505344, Note_on_c, 4, 46, 79
6, 506112, Note_off_c, 4, 46, 80
6, 506112, Note_off_c, 4, 65, 80
6, 506112, Note_on_c, 4, 65, 79
6, 507648, Note_off_c, 4, 58, 80
6, 507648, Note_on_c, 4, 58, 79
6, 508416, Note_on_c, 4, 46, 79
6, 509184, Note_off_c, 4, 46, 80
6, 509184, Note_on_c, 4, 62, 79
6, 510720, Note_off_c, 4, 58, 80
6, 510720, Note_on_c, 4, 58, 79
6, 511488, Note_on_c, 4, 46, 79
6, 512256, Note_off_c, 4, 46, 80
6, 512256, Note_off_c, 4, 62, 80
6, 512256, Note_on_c, 4, 63, 79
6, 513792, Note_off_c, 4, 65, 80
6, 513792, Note_on_c, 4, 65, 79
6, 516096, Note_on_c, 4, 43, 79
6, 517632, Note_off_c, 4, 58, 80
6, 517632, Note_on_c, 4, 58, 79
6, 518400, Note_off_c, 4, 63, 80
6, 518400, Note_on_c, 4, 63, 79
6, 519936, Note_off_c, 4, 58, 80
6, 519936, Note_on_c, 4, 58, 79
6, 520704, Note_on_c, 4, 51, 79
6, 522240, Note_off_c, 4, 51, 80
6, 522240, Note_off_c, 4, 43, 80
6, 522240, Note_on_c, 4, 44, 79
6, 523776, Note_off_c, 4, 58, 80
6, 523776, Note_on_c, 4, 58, 79
6, 524544, Note_off_c, 4, 63, 80
6, 524544, Note_on_c, 4, 63, 79
6, 526080, Note_off_c, 4, 58, 80
6, 526080, Note_off_c, 4, 65, 80
6, 526080, Note_on_c, 4, 58, 79
6, 526848, Note_on_c, 4, 51, 79
6, 528384, Note_off_c, 4, 51, 80
6, 528384, Note_on_c, 4, 50, 79
6, 529920, Note_off_c, 4, 58, 80
6, 529920, Note_on_c, 4, 58, 79
6, 530688, Note_off_c, 4, 63, 80
6, 530688, Note_on_c, 4, 65, 79
6, 532224, Note_off_c, 4, 58, 80
6, 532224, Note_on_c, 4, 58, 79
6, 534528, Note_off_c, 4, 58, 80
6, 534528, Note_off_c, 4, 50, 80
6, 534528, Note_off_c, 4, 44, 80
6, 534528, Note_on_c, 4, 51, 79
6, 535296, Note_on_c, 4, 58, 79
6, 536064, Note_off_c, 4, 51, 80
6, 536064, Note_on_c, 4, 51, 79
6, 537600, Note_off_c, 4, 51, 80
6, 537600, Note_on_c, 4, 50, 79
6, 540672, Note_off_c, 4, 50, 80
6, 540672, Note_off_c, 4, 58, 80
6, 540672, Note_on_c, 4, 60, 79
6, 540672, Note_on_c, 4, 55, 79
6, 540672, Note_on_c, 4, 48, 79
6, 545280, Note_off_c, 4, 48, 80
6, 545280, Note_off_c, 4, 55, 80
6, 545280, Note_off_c, 4, 60, 80
6, 545280, Note_off_c, 4, 65, 80
6, 545280, Note_on_c, 4, 48, 79
6, 546048, Note_off_c, 4, 48, 80
6, 546048, Note_on_c, 4, 46, 79
6, 546816, Note_off_c, 4, 46, 80
6, 546816, Note_on_c, 4, 45, 79
6, 547584, Note_on_c, 4, 53, 79
6, 548352, Note_on_c, 4, 60, 79
6, 549120, Note_on_c, 4, 65, 79
6, 550656, Note_off_c, 4, 60, 80
6, 550656, Note_on_c, 4, 60, 79
6, 551424, Note_off_c, 4, 53, 80
6, 551424, Note_on_c, 4, 53, 79
6, 552960, Note_off_c, 4, 53, 80
6, 552960, Note_off_c, 4, 60, 80
6, 552960, Note_off_c, 4, 45, 80
6, 552960, Note_on_c, 4, 58, 79
6, 552960, Note_on_c, 4, 53, 79
6, 552960, Note_on_c, 4, 46, 79
6, 559104, Note_off_c, 4, 46, 80
6, 559104, Note_off_c, 4, 53, 80
6, 559104, Note_off_c, 4, 58, 80
6, 559104, Note_on_c, 4, 50, 79
6, 559104, Pitch_bend_c, 4, 8192
6, 559123, Pitch_bend_c, 4, 8192
6, 559142, Pitch_bend_c, 4, 8192
6, 559155, Pitch_bend_c, 4, 8192
6, 559174, Pitch_bend_c, 4, 8192
6, 559193, Pitch_bend_c, 4, 8192
6, 559212, Pitch_bend_c, 4, 8192
6, 559232, Pitch_bend_c, 4, 8192
6, 559244, Pitch_bend_c, 4, 8192
6, 559264, Pitch_bend_c, 4, 8192
6, 559283, Pitch_bend_c, 4, 8192
6, 559302, Pitch_bend_c, 4, 8192
6, 559321, Pitch_bend_c, 4, 8192
6, 559340, Pitch_bend_c, 4, 8192
6, 559353, Pitch_bend_c, 4, 8192
6, 559372, Pitch_bend_c, 4, 8192
6, 559392, Pitch_bend_c, 4, 8192
6, 559411, Pitch_bend_c, 4, 8192
6, 559430, Pitch_bend_c, 4, 8192
6, 559443, Pitch_bend_c, 4, 8192
6, 559462, Pitch_bend_c, 4, 8192
6, 559481, Pitch_bend_c, 4, 8192
6, 559500, Pitch_bend_c, 4, 8192
6, 559520, Pitch_bend_c, 4, 8192
6, 559539, Pitch_bend_c, 4, 8192
6, 559552, Pitch_bend_c, 4, 8192
6, 559571, Pitch_bend_c, 4, 8192
6, 559590, Pitch_bend_c, 4, 8192
6, 559609, Pitch_bend_c, 4, 8192
6, 559628, Pitch_bend_c, 4, 8192
6, 559641, Pitch_bend_c, 4, 8192
6, 559660, Pitch_bend_c, 4, 8192
6, 559680, Pitch_bend_c, 4, 8192
6, 559699, Pitch_bend_c, 4, 8192
6, 559718, Pitch_bend_c, 4, 8192
6, 559731, Pitch_bend_c, 4, 8320
6, 559750, Pitch_bend_c, 4, 8320
6, 559769, Pitch_bend_c, 4, 8320
6, 559788, Pitch_bend_c, 4, 8320
6, 559808, Pitch_bend_c, 4, 8320
6, 559820, Pitch_bend_c, 4, 8320
6, 559840, Pitch_bend_c, 4, 8320
6, 559859, Pitch_bend_c, 4, 8320
6, 559878, Pitch_bend_c, 4, 8320
6, 559897, Pitch_bend_c, 4, 8320
6, 559916, Pitch_bend_c, 4, 8320
6, 559929, Pitch_bend_c, 4, 8192
6, 559948, Pitch_bend_c, 4, 8192
6, 559968, Pitch_bend_c, 4, 8192
6, 559987, Pitch_bend_c, 4, 8192
6, 560006, Pitch_bend_c, 4, 8192
6, 560019, Pitch_bend_c, 4, 8064
6, 560038, Pitch_bend_c, 4, 8064
6, 560057, Pitch_bend_c, 4, 8064
6, 560076, Pitch_bend_c, 4, 8064
6, 560096, Pitch_bend_c, 4, 8064
6, 560115, Pitch_bend_c, 4, 8064
6, 560128, Pitch_bend_c, 4, 8064
6, 560147, Pitch_bend_c, 4, 8064
6, 560166, Pitch_bend_c, 4, 8064
6, 560185, Pitch_bend_c, 4, 8064
6, 560204, Pitch_bend_c, 4, 8064
6, 560217, Pitch_bend_c, 4, 8192
6, 560236, Pitch_bend_c, 4, 8192
6, 560256, Pitch_bend_c, 4, 8192
6, 560275, Pitch_bend_c, 4, 8192
6, 560294, Pitch_bend_c, 4, 8320
6, 560307, Pitch_bend_c, 4, 8320
6, 560326, Pitch_bend_c, 4, 8448
6, 560345, Pitch_bend_c, 4, 8448
6, 560364, Pitch_bend_c, 4, 8448
6, 560384, Pitch_bend_c, 4, 8448
6, 560396, Pitch_bend_c, 4, 8448
6, 560416, Pitch_bend_c, 4, 8448
6, 560435, Pitch_bend_c, 4, 8448
6, 560454, Pitch_bend_c, 4, 8448
6, 560473, Pitch_bend_c, 4, 8448
6, 560492, Pitch_bend_c, 4, 8320
6, 560505, Pitch_bend_c, 4, 8320
6, 560524, Pitch_bend_c, 4, 8192
6, 560544, Pitch_bend_c, 4, 8192
6, 560563, Pitch_bend_c, 4, 8192
6, 560582, Pitch_bend_c, 4, 8064
6, 560595, Pitch_bend_c, 4, 8064
6, 560614, Pitch_bend_c, 4, 7936
6, 560633, Pitch_bend_c, 4, 7936
6, 560652, Pitch_bend_c, 4, 7936
6, 560672, Pitch_bend_c, 4, 7936
6, 560691, Pitch_bend_c, 4, 7936
6, 560704, Pitch_bend_c, 4, 7936
6, 560723, Pitch_bend_c, 4, 7936
6, 560742, Pitch_bend_c, 4, 7936
6, 560761, Pitch_bend_c, 4, 7936
6, 560780, Pitch_bend_c, 4, 8064
6, 560793, Pitch_bend_c, 4, 8064
6, 560812, Pitch_bend_c, 4, 8192
6, 560832, Pitch_bend_c, 4, 8192
6, 560851, Pitch_bend_c, 4, 8192
6, 560870, Pitch_bend_c, 4, 8320
6, 560883, Pitch_bend_c, 4, 8320
6, 560902, Pitch_bend_c, 4, 8320
6, 560921, Pitch_bend_c, 4, 8320
6, 560940, Pitch_bend_c, 4, 8320
6, 560960, Pitch_bend_c, 4, 8320
6, 560972, Pitch_bend_c, 4, 8320
6, 560992, Pitch_bend_c, 4, 8320
6, 561011, Pitch_bend_c, 4, 8320
6, 561030, Pitch_bend_c, 4, 8320
6, 561049, Pitch_bend_c, 4, 8320
6, 561068, Pitch_bend_c, 4, 8320
6, 561081, Pitch_bend_c, 4, 8320
6, 561100, Pitch_bend_c, 4, 8192
6, 561120, Pitch_bend_c, 4, 8192
6, 561139, Pitch_bend_c, 4, 8192
6, 561158, Pitch_bend_c, 4, 8064
6, 561171, Pitch_bend_c, 4, 8064
6, 561190, Pitch_bend_c, 4, 8064
6, 561209, Pitch_bend_c, 4, 8064
6, 561228, Pitch_bend_c, 4, 8064
6, 561248, Pitch_bend_c, 4, 8064
6, 561267, Pitch_bend_c, 4, 8064
6, 561280, Pitch_bend_c, 4, 8064
6, 561299, Pitch_bend_c, 4, 8064
6, 561318, Pitch_bend_c, 4, 8064
6, 561337, Pitch_bend_c, 4, 8064
6, 561356, Pitch_bend_c, 4, 8064
6, 561369, Pitch_bend_c, 4, 8064
6, 561388, Pitch_bend_c, 4, 8192
6, 561408, Pitch_bend_c, 4, 8192
6, 561427, Pitch_bend_c, 4, 8320
6, 561446, Pitch_bend_c, 4, 8320
6, 561459, Pitch_bend_c, 4, 8320
6, 561478, Pitch_bend_c, 4, 8448
6, 561497, Pitch_bend_c, 4, 8448
6, 561516, Pitch_bend_c, 4, 8448
6, 561536, Pitch_bend_c, 4, 8448
6, 561548, Pitch_bend_c, 4, 8448
6, 561568, Pitch_bend_c, 4, 8448
6, 561587, Pitch_bend_c, 4, 8448
6, 561606, Pitch_bend_c, 4, 8448
6, 561625, Pitch_bend_c, 4, 8448
6, 561644, Pitch_bend_c, 4, 8320
6, 561657, Pitch_bend_c, 4, 8320
6, 561676, Pitch_bend_c, 4, 8320
6, 561696, Pitch_bend_c, 4, 8192
6, 561715, Pitch_bend_c, 4, 8064
6, 561734, Pitch_bend_c, 4, 8064
6, 561747, Pitch_bend_c, 4, 8064
6, 561766, Pitch_bend_c, 4, 7936
6, 561785, Pitch_bend_c, 4, 7936
6, 561804, Pitch_bend_c, 4, 7936
6, 561824, Pitch_bend_c, 4, 7936
6, 561843, Pitch_bend_c, 4, 7936
6, 561856, Pitch_bend_c, 4, 7936
6, 561875, Pitch_bend_c, 4, 7936
6, 561894, Pitch_bend_c, 4, 7936
6, 561913, Pitch_bend_c, 4, 7936
6, 561932, Pitch_bend_c, 4, 8064
6, 561945, Pitch_bend_c, 4, 8064
6, 561964, Pitch_bend_c, 4, 8064
6, 561984, Pitch_bend_c, 4, 8192
6, 562003, Pitch_bend_c, 4, 8192
6, 562022, Pitch_bend_c, 4, 8320
6, 562035, Pitch_bend_c, 4, 8320
6, 562054, Pitch_bend_c, 4, 8320
6, 562073, Pitch_bend_c, 4, 8320
6, 562092, Pitch_bend_c, 4, 8320
6, 562112, Pitch_bend_c, 4, 8320
6, 562124, Pitch_bend_c, 4, 8320
6, 562144, Pitch_bend_c, 4, 8320
6, 562163, Pitch_bend_c, 4, 8320
6, 562182, Pitch_bend_c, 4, 8320
6, 562201, Pitch_bend_c, 4, 8320
6, 562220, Pitch_bend_c, 4, 8320
6, 562233, Pitch_bend_c, 4, 8320
6, 562252, Pitch_bend_c, 4, 8192
6, 562272, Pitch_bend_c, 4, 8192
6, 562291, Pitch_bend_c, 4, 8192
6, 562310, Pitch_bend_c, 4, 8064
6, 562323, Pitch_bend_c, 4, 8064
6, 562342, Pitch_bend_c, 4, 8064
6, 562361, Pitch_bend_c, 4, 8064
6, 562380, Pitch_bend_c, 4, 8064
6, 562400, Pitch_bend_c, 4, 8064
6, 562419, Pitch_bend_c, 4, 8064
6, 562432, Pitch_bend_c, 4, 8064
6, 562451, Pitch_bend_c, 4, 8064
6, 562470, Pitch_bend_c, 4, 8064
6, 562489, Pitch_bend_c, 4, 8064
6, 562508, Pitch_bend_c, 4, 8064
6, 562521, Pitch_bend_c, 4, 8064
6, 562540, Pitch_bend_c, 4, 8192
6, 562560, Pitch_bend_c, 4, 8192
6, 562579, Pitch_bend_c, 4, 8192
6, 562598, Pitch_bend_c, 4, 8320
6, 562611, Pitch_bend_c, 4, 8320
6, 562630, Pitch_bend_c, 4, 8320
6, 562649, Pitch_bend_c, 4, 8320
6, 562668, Pitch_bend_c, 4, 8448
6, 562688, Pitch_bend_c, 4, 8448
6, 562700, Pitch_bend_c, 4, 8448
6, 562720, Pitch_bend_c, 4, 8448
6, 562739, Pitch_bend_c, 4, 8448
6, 562758, Pitch_bend_c, 4, 8320
6, 562777, Pitch_bend_c, 4, 8320
6, 562796, Pitch_bend_c, 4, 8320
6, 562809, Pitch_bend_c, 4, 8320
6, 562828, Pitch_bend_c, 4, 8192
6, 562848, Pitch_bend_c, 4, 8192
6, 562867, Pitch_bend_c, 4, 8192
6, 562886, Pitch_bend_c, 4, 8064
6, 562899, Pitch_bend_c, 4, 8064
6, 562918, Pitch_bend_c, 4, 8064
6, 562937, Pitch_bend_c, 4, 8064
6, 562956, Pitch_bend_c, 4, 7936
6, 562976, Pitch_bend_c, 4, 7936
6, 562995, Pitch_bend_c, 4, 7936
6, 563008, Pitch_bend_c, 4, 7936
6, 563027, Pitch_bend_c, 4, 7936
6, 563046, Pitch_bend_c, 4, 8064
6, 563065, Pitch_bend_c, 4, 8064
6, 563084, Pitch_bend_c, 4, 8064
6, 563097, Pitch_bend_c, 4, 8064
6, 563116, Pitch_bend_c, 4, 8192
6, 563136, Pitch_bend_c, 4, 8192
6, 563155, Pitch_bend_c, 4, 8192
6, 563174, Pitch_bend_c, 4, 8320
6, 563187, Pitch_bend_c, 4, 8320
6, 563206, Pitch_bend_c, 4, 8320
6, 563225, Pitch_bend_c, 4, 8320
6, 563244, Pitch_bend_c, 4, 8448
6, 563264, Pitch_bend_c, 4, 8448
6, 563276, Pitch_bend_c, 4, 8448
6, 563296, Pitch_bend_c, 4, 8448
6, 563315, Pitch_bend_c, 4, 8448
6, 563334, Pitch_bend_c, 4, 8320
6, 563353, Pitch_bend_c, 4, 8320
6, 563372, Pitch_bend_c, 4, 8320
6, 563385, Pitch_bend_c, 4, 8320
6, 563404, Pitch_bend_c, 4, 8192
6, 563424, Pitch_bend_c, 4, 8192
6, 563443, Pitch_bend_c, 4, 8192
6, 563462, Pitch_bend_c, 4, 8064
6, 563475, Pitch_bend_c, 4, 8064
6, 563494, Pitch_bend_c, 4, 8064
6, 563513, Pitch_bend_c, 4, 8064
6, 563532, Pitch_bend_c, 4, 7936
6, 563552, Pitch_bend_c, 4, 7936
6, 563571, Pitch_bend_c, 4, 7936
6, 563584, Pitch_bend_c, 4, 7936
6, 563603, Pitch_bend_c, 4, 7936
6, 563622, Pitch_bend_c, 4, 8064
6, 563641, Pitch_bend_c, 4, 8064
6, 563660, Pitch_bend_c, 4, 8064
6, 563673, Pitch_bend_c, 4, 8064
6, 563692, Pitch_bend_c, 4, 8192
6, 563712, Pitch_bend_c, 4, 8192
6, 563731, Pitch_bend_c, 4, 8192
6, 563750, Pitch_bend_c, 4, 8320
6, 563763, Pitch_bend_c, 4, 8320
6, 563782, Pitch_bend_c, 4, 8448
6, 563801, Pitch_bend_c, 4, 8448
6, 563820, Pitch_bend_c, 4, 8448
6, 563840, Pitch_bend_c, 4, 8448
6, 563852, Pitch_bend_c, 4, 8448
6, 563872, Pitch_bend_c, 4, 8448
6, 563891, Pitch_bend_c, 4, 8448
6, 563910, Pitch_bend_c, 4, 8448
6, 563929, Pitch_bend_c, 4, 8448
6, 563948, Pitch_bend_c, 4, 8320
6, 563961, Pitch_bend_c, 4, 8320
6, 563980, Pitch_bend_c, 4, 8192
6, 564000, Pitch_bend_c, 4, 8192
6, 564019, Pitch_bend_c, 4, 8192
6, 564038, Pitch_bend_c, 4, 8064
6, 564051, Pitch_bend_c, 4, 8064
6, 564070, Pitch_bend_c, 4, 7936
6, 564089, Pitch_bend_c, 4, 7936
6, 564108, Pitch_bend_c, 4, 7936
6, 564128, Pitch_bend_c, 4, 7936
6, 564147, Pitch_bend_c, 4, 7936
6, 564160, Pitch_bend_c, 4, 7936
6, 564179, Pitch_bend_c, 4, 7936
6, 564198, Pitch_bend_c, 4, 7936
6, 564217, Pitch_bend_c, 4, 7936
6, 564236, Pitch_bend_c, 4, 8064
6, 564249, Pitch_bend_c, 4, 8064
6, 564268, Pitch_bend_c, 4, 8192
6, 564288, Pitch_bend_c, 4, 8192
6, 564307, Pitch_bend_c, 4, 8192
6, 564326, Pitch_bend_c, 4, 8320
6, 564339, Pitch_bend_c, 4, 8320
6, 564358, Pitch_bend_c, 4, 8320
6, 564377, Pitch_bend_c, 4, 8320
6, 564396, Pitch_bend_c, 4, 8320
6, 564416, Pitch_bend_c, 4, 8448
6, 564428, Pitch_bend_c, 4, 8448
6, 564448, Pitch_bend_c, 4, 8448
6, 564467, Pitch_bend_c, 4, 8320
6, 564486, Pitch_bend_c, 4, 8320
6, 564505, Pitch_bend_c, 4, 8320
6, 564524, Pitch_bend_c, 4, 8320
6, 564537, Pitch_bend_c, 4, 8320
6, 564556, Pitch_bend_c, 4, 8192
6, 564576, Pitch_bend_c, 4, 8192
6, 564595, Pitch_bend_c, 4, 8192
6, 564614, Pitch_bend_c, 4, 8064
6, 564627, Pitch_bend_c, 4, 8064
6, 564646, Pitch_bend_c, 4, 8064
6, 564665, Pitch_bend_c, 4, 8064
6, 564684, Pitch_bend_c, 4, 8064
6, 564704, Pitch_bend_c, 4, 7936
6, 564723, Pitch_bend_c, 4, 7936
6, 564736, Pitch_bend_c, 4, 7936
6, 564755, Pitch_bend_c, 4, 8064
6, 564774, Pitch_bend_c, 4, 8064
6, 564793, Pitch_bend_c, 4, 8064
6, 564812, Pitch_bend_c, 4, 8064
6, 564825, Pitch_bend_c, 4, 8064
6, 564844, Pitch_bend_c, 4, 8192
6, 564864, Pitch_bend_c, 4, 8192
6, 564883, Pitch_bend_c, 4, 8192
6, 564902, Pitch_bend_c, 4, 8192
6, 564915, Pitch_bend_c, 4, 8192
6, 564934, Pitch_bend_c, 4, 8320
6, 564953, Pitch_bend_c, 4, 8320
6, 564972, Pitch_bend_c, 4, 8320
6, 564992, Pitch_bend_c, 4, 8320
6, 565004, Pitch_bend_c, 4, 8320
6, 565024, Pitch_bend_c, 4, 8320
6, 565043, Pitch_bend_c, 4, 8320
6, 565062, Pitch_bend_c, 4, 8320
6, 565081, Pitch_bend_c, 4, 8320
6, 565100, Pitch_bend_c, 4, 8192
6, 565113, Pitch_bend_c, 4, 8192
6, 565132, Pitch_bend_c, 4, 8192
6, 565152, Pitch_bend_c, 4, 8192
6, 565171, Pitch_bend_c, 4, 8192
6, 565190, Pitch_bend_c, 4, 8192
6, 565203, Pitch_bend_c, 4, 8192
6, 565222, Pitch_bend_c, 4, 8064
6, 565241, Pitch_bend_c, 4, 8064
6, 565248, Note_off_c, 4, 50, 80
6, 565248, Note_off_c, 4, 65, 80
6, 565248, Pitch_bend_c, 4, 8192
6, 565248, Note_on_c, 4, 67, 95
6, 565248, Note_on_c, 4, 62, 95
6, 565248, Note_on_c, 4, 55, 95
6, 565248, Note_on_c, 4, 50, 95
6, 565248, Note_on_c, 4, 43, 95
6, 577536, Note_off_c, 4, 43, 80
6, 577536, Note_off_c, 4, 50, 80
6, 577536, Note_off_c, 4, 55, 80
6, 577536, Note_off_c, 4, 62, 80
6, 577536, Note_off_c, 4, 67, 80
6, 577536, End_track
7, 0, Start_track
7, 0, Title_t, "5-String Bass 1"
7, 3840, Control_c, 5, 100, 0
7, 3840, Control_c, 5, 101, 0
7, 3840, Control_c, 5, 6, 12
7, 3840, Pitch_bend_c, 5, 8192
7, 3840, Control_c, 5, 38, 0
7, 3840, Program_c, 5, 33
7, 3840, Control_c, 5, 0, 0
7, 3840, Control_c, 5, 7, 127
7, 3840, Control_c, 5, 10, 64
7, 3840, Control_c, 5, 93, 0
7, 3840, Control_c, 5, 91, 0
7, 3840, Control_c, 5, 92, 0
7, 3840, Control_c, 5, 95, 0
7, 24576, Note_on_c, 5, 31, 95
7, 35328, Note_off_c, 5, 31, 80
7, 35328, Note_on_c, 5, 31, 95
7, 36864, Note_off_c, 5, 31, 80
7, 36864, Note_on_c, 5, 29, 95
7, 42240, Note_off_c, 5, 29, 80
7, 42240, Note_on_c, 5, 36, 95
7, 43008, Note_off_c, 5, 36, 80
7, 43008, Note_on_c, 5, 29, 95
7, 43776, Note_off_c, 5, 29, 80
7, 44544, Note_on_c, 5, 29, 95
7, 46848, Note_off_c, 5, 29, 80
7, 46848, Note_on_c, 5, 26, 95
7, 49152, Note_off_c, 5, 26, 80
7, 49152, Note_on_c, 5, 31, 95
7, 54528, Note_off_c, 5, 31, 80
7, 54528, Note_on_c, 5, 26, 95
7, 55296, Note_off_c, 5, 26, 80
7, 55296, Note_on_c, 5, 31, 95
7, 56064, Note_off_c, 5, 31, 80
7, 56064, Note_on_c, 5, 26, 95
7, 56832, Note_off_c, 5, 26, 80
7, 56832, Note_on_c, 5, 31, 95
7, 61440, Note_off_c, 5, 31, 80
7, 61440, Note_on_c, 5, 29, 95
7, 66816, Note_off_c, 5, 29, 80
7, 66816, Note_on_c, 5, 36, 95
7, 67584, Note_off_c, 5, 36, 80
7, 67584, Note_on_c, 5, 41, 95
7, 69120, Note_off_c, 5, 41, 80
7, 69120, Note_on_c, 5, 29, 95
7, 71424, Note_off_c, 5, 29, 80
7, 71424, Note_on_c, 5, 26, 95
7, 72192, Note_off_c, 5, 26, 80
7, 72192, Note_on_c, 5, 29, 95
7, 72960, Note_off_c, 5, 29, 80
7, 72960, Note_on_c, 5, 26, 95
7, 73728, Note_off_c, 5, 26, 80
7, 73728, Note_on_c, 5, 31, 95
7, 79104, Note_off_c, 5, 31, 80
7, 79104, Note_on_c, 5, 26, 95
7, 79872, Note_off_c, 5, 26, 80
7, 79872, Note_on_c, 5, 31, 95
7, 80640, Note_off_c, 5, 31, 80
7, 81408, Note_on_c, 5, 31, 95
7, 86016, Note_off_c, 5, 31, 80
7, 86016, Note_on_c, 5, 29, 95
7, 91392, Note_off_c, 5, 29, 80
7, 91392, Note_on_c, 5, 24, 95
7, 92160, Note_off_c, 5, 24, 80
7, 92160, Note_on_c, 5, 29, 95
7, 92928, Note_off_c, 5, 29, 80
7, 93696, Note_on_c, 5, 29, 95
7, 95232, Note_off_c, 5, 29, 80
7, 95232, Note_on_c, 5, 36, 95
7, 96000, Note_off_c, 5, 36, 80
7, 96000, Note_on_c, 5, 29, 95
7, 98304, Note_off_c, 5, 29, 80
7, 98304, Note_on_c, 5, 31, 95
7, 103680, Note_off_c, 5, 31, 80
7, 103680, Note_on_c, 5, 26, 95
7, 104448, Note_off_c, 5, 26, 80
7, 104448, Note_on_c, 5, 31, 95
7, 105216, Note_off_c, 5, 31, 80
7, 105984, Note_on_c, 5, 31, 95
7, 110592, Note_off_c, 5, 31, 80
7, 110592, Note_on_c, 5, 29, 95
7, 115968, Note_off_c, 5, 29, 80
7, 115968, Note_on_c, 5, 36, 95
7, 116736, Note_off_c, 5, 36, 80
7, 116736, Note_on_c, 5, 43, 95
7, 117504, Note_off_c, 5, 43, 80
7, 117504, Note_on_c, 5, 36, 95
7, 118272, Note_off_c, 5, 36, 80
7, 118272, Note_on_c, 5, 41, 95
7, 121728, Pitch_bend_c, 5, 7552
7, 121894, Pitch_bend_c, 5, 6784
7, 122054, Pitch_bend_c, 5, 6144
7, 122220, Pitch_bend_c, 5, 5504
7, 122387, Pitch_bend_c, 5, 4736
7, 122553, Pitch_bend_c, 5, 4096
7, 122713, Pitch_bend_c, 5, 3456
7, 122880, Note_off_c, 5, 41, 80
7, 122880, Pitch_bend_c, 5, 8192
7, 122880, Note_on_c, 5, 36, 95
7, 128256, Note_off_c, 5, 36, 80
7, 128256, Note_on_c, 5, 31, 95
7, 129024, Note_off_c, 5, 31, 80
7, 129024, Note_on_c, 5, 36, 95
7, 129792, Note_off_c, 5, 36, 80
7, 130560, Note_on_c, 5, 36, 95
7, 133632, Note_off_c, 5, 36, 80
7, 134400, Note_on_c, 5, 36, 95
7, 134528, Note_off_c, 5, 36, 80
7, 135168, Note_on_c, 5, 38, 95
7, 140544, Note_off_c, 5, 38, 80
7, 140544, Note_on_c, 5, 33, 95
7, 141312, Note_off_c, 5, 33, 80
7, 141312, Note_on_c, 5, 38, 95
7, 142080, Note_off_c, 5, 38, 80
7, 142080, Note_on_c, 5, 33, 95
7, 142848, Note_off_c, 5, 33, 80
7, 142848, Note_on_c, 5, 38, 95
7, 143616, Note_off_c, 5, 38, 80
7, 144384, Note_on_c, 5, 38, 95
7, 145152, Note_off_c, 5, 38, 80
7, 145152, Note_on_c, 5, 34, 95
7, 147456, Note_off_c, 5, 34, 80
7, 147456, Note_on_c, 5, 31, 95
7, 152832, Note_off_c, 5, 31, 80
7, 152832, Note_on_c, 5, 26, 95
7, 153600, Note_off_c, 5, 26, 80
7, 153600, Note_on_c, 5, 31, 95
7, 154368, Note_off_c, 5, 31, 80
7, 155136, Note_on_c, 5, 31, 95
7, 158592, Pitch_bend_c, 5, 7552
7, 158758, Pitch_bend_c, 5, 6784
7, 158918, Pitch_bend_c, 5, 6144
7, 159084, Pitch_bend_c, 5, 5504
7, 159251, Pitch_bend_c, 5, 4736
7, 159417, Pitch_bend_c, 5, 4096
7, 159577, Pitch_bend_c, 5, 3456
7, 159744, Note_off_c, 5, 31, 80
7, 159744, Pitch_bend_c, 5, 8192
7, 159744, Note_on_c, 5, 28, 95
7, 165120, Note_off_c, 5, 28, 80
7, 165120, Note_on_c, 5, 40, 95
7, 165888, Note_off_c, 5, 40, 80
7, 165888, Note_on_c, 5, 28, 95
7, 166656, Note_off_c, 5, 28, 80
7, 167424, Note_on_c, 5, 28, 95
7, 171264, Note_off_c, 5, 28, 80
7, 171264, Note_on_c, 5, 28, 95
7, 172032, Note_off_c, 5, 28, 80
7, 172032, Note_on_c, 5, 27, 95
7, 176640, Note_off_c, 5, 27, 80
7, 176640, Note_on_c, 5, 27, 95
7, 178176, Note_off_c, 5, 27, 80
7, 178176, Note_on_c, 5, 39, 95
7, 181248, Note_off_c, 5, 39, 80
7, 181248, Note_on_c, 5, 27, 95
7, 182016, Note_off_c, 5, 27, 80
7, 182016, Note_on_c, 5, 27, 95
7, 184320, Note_off_c, 5, 27, 80
7, 184320, Note_on_c, 5, 26, 95
7, 188160, Note_off_c, 5, 26, 80
7, 188160, Note_on_c, 5, 26, 95
7, 188288, Note_off_c, 5, 26, 80
7, 188928, Note_on_c, 5, 26, 95
7, 190464, Note_off_c, 5, 26, 80
7, 190464, Note_on_c, 5, 38, 95
7, 193536, Note_off_c, 5, 38, 80
7, 193536, Note_on_c, 5, 26, 95
7, 194304, Note_off_c, 5, 26, 80
7, 194304, Note_on_c, 5, 34, 95
7, 196608, Note_off_c, 5, 34, 80
7, 196608, Note_on_c, 5, 31, 95
7, 200448, Note_off_c, 5, 31, 80
7, 200448, Note_on_c, 5, 67, 95
7, 201216, Note_off_c, 5, 67, 80
7, 201216, Note_on_c, 5, 62, 95
7, 201984, Note_off_c, 5, 62, 80
7, 201984, Note_on_c, 5, 26, 95
7, 202752, Note_off_c, 5, 26, 80
7, 202752, Note_on_c, 5, 31, 95
7, 203520, Note_off_c, 5, 31, 80
7, 204288, Note_on_c, 5, 31, 95
7, 206592, Note_off_c, 5, 31, 80
7, 206592, Note_on_c, 5, 34, 95
7, 208128, Note_off_c, 5, 34, 80
7, 208128, Note_on_c, 5, 31, 95
7, 208896, Note_off_c, 5, 31, 80
7, 208896, Note_on_c, 5, 36, 95
7, 214272, Note_off_c, 5, 36, 80
7, 214272, Note_on_c, 5, 31, 95
7, 215040, Note_off_c, 5, 31, 80
7, 215040, Note_on_c, 5, 36, 95
7, 215808, Note_off_c, 5, 36, 80
7, 215808, Note_on_c, 5, 31, 95
7, 216576, Note_off_c, 5, 31, 80
7, 216576, Note_on_c, 5, 36, 95
7, 217344, Note_off_c, 5, 36, 80
7, 218112, Note_on_c, 5, 36, 95
7, 218880, Note_off_c, 5, 36, 80
7, 218880, Note_on_c, 5, 34, 95
7, 221184, Note_off_c, 5, 34, 80
7, 221184, Note_on_c, 5, 31, 95
7, 226560, Note_off_c, 5, 31, 80
7, 226560, Note_on_c, 5, 26, 95
7, 227328, Note_off_c, 5, 26, 80
7, 227328, Note_on_c, 5, 31, 95
7, 228096, Note_off_c, 5, 31, 80
7, 228864, Note_on_c, 5, 31, 95
7, 233472, Note_off_c, 5, 31, 80
7, 233472, Note_on_c, 5, 33, 95
7, 235008, Note_off_c, 5, 33, 80
7, 235008, Note_on_c, 5, 38, 95
7, 235136, Note_off_c, 5, 38, 80
7, 235776, Note_on_c, 5, 38, 95
7, 236544, Note_off_c, 5, 38, 80
7, 236544, Note_on_c, 5, 45, 95
7, 238080, Note_off_c, 5, 45, 80
7, 238080, Note_on_c, 5, 51, 95
7, 238848, Note_off_c, 5, 51, 80
7, 238848, Note_on_c, 5, 48, 95
7, 239616, Note_off_c, 5, 48, 80
7, 239616, Note_on_c, 5, 38, 95
7, 240384, Note_off_c, 5, 38, 80
7, 240384, Note_on_c, 5, 33, 95
7, 241152, Note_off_c, 5, 33, 80
7, 241152, Note_on_c, 5, 26, 95
7, 242688, Note_off_c, 5, 26, 80
7, 242688, Note_on_c, 5, 38, 95
7, 243456, Note_off_c, 5, 38, 80
7, 243456, Note_on_c, 5, 26, 95
7, 244224, Note_off_c, 5, 26, 80
7, 244224, Note_on_c, 5, 26, 95
7, 244992, Note_off_c, 5, 26, 80
7, 244992, Note_on_c, 5, 26, 95
7, 245760, Note_off_c, 5, 26, 80
7, 245760, Note_on_c, 5, 31, 95
7, 251136, Note_off_c, 5, 31, 80
7, 251136, Note_on_c, 5, 26, 95
7, 251904, Note_off_c, 5, 26, 80
7, 251904, Note_on_c, 5, 31, 95
7, 252672, Note_off_c, 5, 31, 80
7, 253440, Note_on_c, 5, 31, 95
7, 256512, Note_off_c, 5, 31, 80
7, 256512, Note_on_c, 5, 26, 95
7, 258048, Note_off_c, 5, 26, 80
7, 258048, Note_on_c, 5, 29, 95
7, 263424, Note_off_c, 5, 29, 80
7, 263424, Note_on_c, 5, 36, 95
7, 264192, Note_off_c, 5, 36, 80
7, 264192, Note_on_c, 5, 41, 95
7, 264960, Note_off_c, 5, 41, 80
7, 264960, Note_on_c, 5, 36, 95
7, 265728, Note_off_c, 5, 36, 80
7, 265728, Note_on_c, 5, 29, 95
7, 267264, Note_off_c, 5, 29, 80
7, 267264, Note_on_c, 5, 36, 95
7, 268032, Note_off_c, 5, 36, 80
7, 268032, Note_on_c, 5, 29, 95
7, 270336, Note_off_c, 5, 29, 80
7, 270336, Note_on_c, 5, 31, 95
7, 275712, Note_off_c, 5, 31, 80
7, 275712, Note_on_c, 5, 26, 95
7, 276480, Note_off_c, 5, 26, 80
7, 276480, Note_on_c, 5, 31, 95
7, 277248, Note_off_c, 5, 31, 80
7, 278016, Note_on_c, 5, 31, 95
7, 279552, Note_off_c, 5, 31, 80
7, 279552, Note_on_c, 5, 31, 95
7, 282624, Note_off_c, 5, 31, 80
7, 282624, Note_on_c, 5, 29, 95
7, 288000, Note_off_c, 5, 29, 80
7, 288000, Note_on_c, 5, 36, 95
7, 288768, Note_off_c, 5, 36, 80
7, 288768, Note_on_c, 5, 43, 95
7, 290304, Note_off_c, 5, 43, 80
7, 290304, Note_on_c, 5, 41, 95
7, 291840, Note_off_c, 5, 41, 80
7, 291840, Note_on_c, 5, 36, 95
7, 292608, Note_off_c, 5, 36, 80
7, 292608, Note_on_c, 5, 29, 95
7, 294912, Note_off_c, 5, 29, 80
7, 294912, Note_on_c, 5, 36, 95
7, 300288, Note_off_c, 5, 36, 80
7, 300288, Note_on_c, 5, 31, 95
7, 301056, Note_off_c, 5, 31, 80
7, 301056, Note_on_c, 5, 36, 95
7, 301824, Note_off_c, 5, 36, 80
7, 302592, Note_on_c, 5, 36, 95
7, 304128, Note_off_c, 5, 36, 80
7, 304128, Note_on_c, 5, 43, 95
7, 304896, Note_off_c, 5, 43, 80
7, 304896, Note_on_c, 5, 36, 95
7, 307200, Note_off_c, 5, 36, 80
7, 307200, Note_on_c, 5, 38, 95
7, 312576, Note_off_c, 5, 38, 80
7, 312576, Note_on_c, 5, 33, 95
7, 313344, Note_off_c, 5, 33, 80
7, 313344, Note_on_c, 5, 38, 95
7, 314112, Note_off_c, 5, 38, 80
7, 314112, Note_on_c, 5, 33, 95
7, 314880, Note_off_c, 5, 33, 80
7, 314880, Note_on_c, 5, 38, 95
7, 315648, Note_off_c, 5, 38, 80
7, 316416, Note_on_c, 5, 38, 95
7, 317184, Note_off_c, 5, 38, 80
7, 317184, Note_on_c, 5, 34, 95
7, 319488, Note_off_c, 5, 34, 80
7, 319488, Note_on_c, 5, 31, 95
7, 324864, Note_off_c, 5, 31, 80
7, 324864, Note_on_c, 5, 26, 95
7, 325632, Note_off_c, 5, 26, 80
7, 325632, Note_on_c, 5, 31, 95
7, 326400, Note_off_c, 5, 31, 80
7, 327168, Note_on_c, 5, 31, 95
7, 328704, Note_off_c, 5, 31, 80
7, 328704, Note_on_c, 5, 31, 95
7, 330240, Note_off_c, 5, 31, 80
7, 330240, Note_on_c, 5, 30, 95
7, 331008, Note_off_c, 5, 30, 80
7, 331008, Note_on_c, 5, 29, 95
7, 331776, Note_off_c, 5, 29, 80
7, 331776, Note_on_c, 5, 28, 95
7, 334080, Note_off_c, 5, 28, 80
7, 334080, Note_on_c, 5, 28, 95
7, 334592, Note_on_c, 5, 40, 95
7, 334592, Pitch_bend_c, 5, 6144
7, 334681, Pitch_bend_c, 5, 6784
7, 334764, Pitch_bend_c, 5, 7552
7, 334848, Note_off_c, 5, 28, 80
7, 334848, Pitch_bend_c, 5, 8192
7, 337152, Note_off_c, 5, 40, 80
7, 337152, Note_on_c, 5, 28, 95
7, 337920, Note_off_c, 5, 28, 80
7, 337920, Note_on_c, 5, 40, 95
7, 340224, Note_on_c, 5, 43, 95
7, 340224, Pitch_bend_c, 5, 6144
7, 340480, Pitch_bend_c, 5, 6784
7, 340736, Pitch_bend_c, 5, 7552
7, 340992, Note_off_c, 5, 40, 80
7, 340992, Pitch_bend_c, 5, 8192
7, 341568, Pitch_bend_c, 5, 7552
7, 341817, Pitch_bend_c, 5, 6784
7, 342060, Pitch_bend_c, 5, 6144
7, 342310, Pitch_bend_c, 5, 5504
7, 342553, Pitch_bend_c, 5, 4736
7, 342803, Pitch_bend_c, 5, 4096
7, 343046, Pitch_bend_c, 5, 3456
7, 343294, Pitch_bend_c, 5, 8192
7, 343296, Note_off_c, 5, 43, 80
7, 343296, Note_on_c, 5, 28, 95
7, 344064, Note_off_c, 5, 28, 80
7, 344064, Note_on_c, 5, 27, 95
7, 347136, Note_off_c, 5, 27, 80
7, 347136, Note_on_c, 5, 27, 95
7, 347904, Note_off_c, 5, 27, 80
7, 347904, Note_on_c, 5, 27, 95
7, 348672, Note_off_c, 5, 27, 80
7, 348672, Note_on_c, 5, 39, 95
7, 351744, Note_off_c, 5, 39, 80
7, 351744, Note_on_c, 5, 27, 95
7, 352512, Note_off_c, 5, 27, 80
7, 352512, Note_on_c, 5, 27, 95
7, 353280, Note_off_c, 5, 27, 80
7, 353280, Note_on_c, 5, 34, 95
7, 354048, Note_off_c, 5, 34, 80
7, 354048, Note_on_c, 5, 37, 95
7, 354816, Note_off_c, 5, 37, 80
7, 354816, Note_on_c, 5, 34, 95
7, 355584, Note_off_c, 5, 34, 80
7, 355584, Note_on_c, 5, 33, 95
7, 356352, Note_off_c, 5, 33, 80
7, 356352, Note_on_c, 5, 26, 95
7, 359424, Note_off_c, 5, 26, 80
7, 359424, Note_on_c, 5, 26, 95
7, 360192, Note_off_c, 5, 26, 80
7, 360192, Note_on_c, 5, 26, 95
7, 360960, Note_off_c, 5, 26, 80
7, 360960, Note_on_c, 5, 38, 95
7, 364032, Note_off_c, 5, 38, 80
7, 364032, Note_on_c, 5, 33, 95
7, 364800, Note_off_c, 5, 33, 80
7, 364800, Note_on_c, 5, 33, 95
7, 365568, Note_off_c, 5, 33, 80
7, 365568, Note_on_c, 5, 31, 95
7, 366336, Note_off_c, 5, 31, 80
7, 366336, Note_on_c, 5, 29, 95
7, 368640, Note_off_c, 5, 29, 80
7, 368640, Note_on_c, 5, 31, 95
7, 370176, Note_off_c, 5, 31, 80
7, 370176, Note_on_c, 5, 31, 95
7, 371712, Note_off_c, 5, 31, 80
7, 371712, Note_on_c, 5, 31, 95
7, 374016, Note_off_c, 5, 31, 80
7, 374016, Note_on_c, 5, 26, 95
7, 374784, Note_off_c, 5, 26, 80
7, 374784, Note_on_c, 5, 31, 95
7, 375552, Note_off_c, 5, 31, 80
7, 376320, Note_on_c, 5, 31, 95
7, 377856, Note_off_c, 5, 31, 80
7, 377856, Note_on_c, 5, 34, 95
7, 379392, Note_off_c, 5, 34, 80
7, 379392, Note_on_c, 5, 31, 95
7, 380160, Note_off_c, 5, 31, 80
7, 380160, Note_on_c, 5, 34, 95
7, 380928, Note_off_c, 5, 34, 80
7, 380928, Note_on_c, 5, 36, 95
7, 384000, Note_off_c, 5, 36, 80
7, 384000, Note_on_c, 5, 36, 95
7, 386304, Note_off_c, 5, 36, 80
7, 386304, Note_on_c, 5, 31, 95
7, 387072, Note_off_c, 5, 31, 80
7, 387072, Note_on_c, 5, 36, 95
7, 387840, Note_off_c, 5, 36, 80
7, 388608, Note_on_c, 5, 36, 95
7, 390144, Note_off_c, 5, 36, 80
7, 390144, Note_on_c, 5, 36, 95
7, 390912, Note_off_c, 5, 36, 80
7, 390912, Note_on_c, 5, 34, 95
7, 393216, Note_off_c, 5, 34, 80
7, 393216, Note_on_c, 5, 31, 95
7, 396288, Note_off_c, 5, 31, 80
7, 396288, Note_on_c, 5, 31, 95
7, 398592, Note_off_c, 5, 31, 80
7, 398592, Note_on_c, 5, 26, 95
7, 399360, Note_off_c, 5, 26, 80
7, 399360, Note_on_c, 5, 31, 95
7, 400128, Note_off_c, 5, 31, 80
7, 400896, Note_on_c, 5, 31, 95
7, 403200, Note_off_c, 5, 31, 80
7, 403200, Note_on_c, 5, 34, 95
7, 405504, Note_off_c, 5, 34, 80
7, 405504, Note_on_c, 5, 36, 95
7, 410880, Note_off_c, 5, 36, 80
7, 410880, Note_on_c, 5, 31, 95
7, 411648, Note_off_c, 5, 31, 80
7, 411648, Note_on_c, 5, 36, 95
7, 412416, Note_off_c, 5, 36, 80
7, 412416, Note_on_c, 5, 31, 95
7, 413184, Note_off_c, 5, 31, 80
7, 413184, Note_on_c, 5, 36, 95
7, 414720, Note_off_c, 5, 36, 80
7, 414720, Note_on_c, 5, 36, 95
7, 415488, Note_off_c, 5, 36, 80
7, 415488, Note_on_c, 5, 34, 95
7, 417792, Note_off_c, 5, 34, 80
7, 417792, Note_on_c, 5, 27, 95
7, 420864, Note_off_c, 5, 27, 80
7, 420864, Note_on_c, 5, 39, 95
7, 423168, Note_off_c, 5, 39, 80
7, 423168, Note_on_c, 5, 27, 95
7, 423936, Note_off_c, 5, 27, 80
7, 423936, Note_on_c, 5, 27, 95
7, 424704, Note_off_c, 5, 27, 80
7, 425472, Note_on_c, 5, 27, 95
7, 427008, Note_off_c, 5, 27, 80
7, 427008, Note_on_c, 5, 39, 95
7, 430080, Note_off_c, 5, 39, 80
7, 430080, Note_on_c, 5, 27, 95
7, 431616, Note_off_c, 5, 27, 80
7, 431616, Note_on_c, 5, 27, 95
7, 432384, Note_off_c, 5, 27, 80
7, 432384, Note_on_c, 5, 27, 95
7, 433152, Note_off_c, 5, 27, 80
7, 433152, Note_on_c, 5, 39, 95
7, 435456, Note_off_c, 5, 39, 80
7, 435456, Note_on_c, 5, 27, 95
7, 435456, Note_on_c, 5, 31, 95
7, 435456, Pitch_bend_c, 5, 6784
7, 435456, Note_off_c, 5, 27, 80
7, 435840, Pitch_bend_c, 5, 7552
7, 436224, Pitch_bend_c, 5, 8192
7, 436992, Note_off_c, 5, 31, 80
7, 436992, Note_on_c, 5, 34, 95
7, 437760, Note_off_c, 5, 34, 80
7, 437760, Note_on_c, 5, 36, 95
7, 438528, Note_off_c, 5, 36, 80
7, 438528, Note_on_c, 5, 39, 95
7, 439296, Note_off_c, 5, 39, 80
7, 439296, Note_on_c, 5, 36, 95
7, 440064, Note_off_c, 5, 36, 80
7, 440064, Note_on_c, 5, 34, 95
7, 440832, Note_off_c, 5, 34, 80
7, 440832, Note_on_c, 5, 31, 95
7, 441216, Pitch_bend_c, 5, 7552
7, 441382, Pitch_bend_c, 5, 6784
7, 441542, Pitch_bend_c, 5, 6144
7, 441708, Pitch_bend_c, 5, 5504
7, 441875, Pitch_bend_c, 5, 4736
7, 442041, Pitch_bend_c, 5, 4096
7, 442201, Pitch_bend_c, 5, 3456
7, 442368, Note_off_c, 5, 31, 80
7, 442368, Pitch_bend_c, 5, 8192
7, 442368, Note_on_c, 5, 27, 95
7, 444672, Note_off_c, 5, 27, 80
7, 444672, Note_on_c, 5, 27, 95
7, 445440, Note_off_c, 5, 27, 80
7, 445440, Note_on_c, 5, 39, 95
7, 447744, Note_off_c, 5, 39, 80
7, 447744, Note_on_c, 5, 27, 95
7, 448512, Note_off_c, 5, 27, 80
7, 448512, Note_on_c, 5, 27, 95
7, 449280, Note_off_c, 5, 27, 80
7, 450048, Note_on_c, 5, 27, 95
7, 451584, Note_off_c, 5, 27, 80
7, 451584, Note_on_c, 5, 39, 95
7, 452352, Note_off_c, 5, 39, 80
7, 452352, Note_on_c, 5, 27, 95
7, 453888, Note_off_c, 5, 27, 80
7, 453888, Note_on_c, 5, 46, 95
7, 454656, Note_off_c, 5, 46, 80
7, 454656, Note_on_c, 5, 34, 95
7, 456960, Note_off_c, 5, 34, 80
7, 456960, Note_on_c, 5, 41, 95
7, 457728, Note_off_c, 5, 41, 80
7, 457728, Note_on_c, 5, 51, 95
7, 458342, Pitch_bend_c, 5, 7552
7, 458496, Pitch_bend_c, 5, 7552
7, 459264, Note_off_c, 5, 51, 80
7, 459264, Pitch_bend_c, 5, 8192
7, 459264, Note_on_c, 5, 46, 95
7, 460032, Note_off_c, 5, 46, 80
7, 460032, Note_on_c, 5, 41, 95
7, 460800, Note_off_c, 5, 41, 80
7, 460800, Note_on_c, 5, 34, 95
7, 461568, Note_off_c, 5, 34, 80
7, 462336, Note_on_c, 5, 34, 95
7, 463872, Note_off_c, 5, 34, 80
7, 463872, Note_on_c, 5, 34, 95
7, 464640, Note_off_c, 5, 34, 80
7, 464640, Note_on_c, 5, 34, 95
7, 465408, Note_off_c, 5, 34, 80
7, 465408, Note_on_c, 5, 34, 95
7, 465792, Pitch_bend_c, 5, 7552
7, 465958, Pitch_bend_c, 5, 6784
7, 466118, Pitch_bend_c, 5, 6144
7, 466284, Pitch_bend_c, 5, 5504
7, 466451, Pitch_bend_c, 5, 4736
7, 466617, Pitch_bend_c, 5, 4096
7, 466777, Pitch_bend_c, 5, 3456
7, 466944, Note_off_c, 5, 34, 80
7, 466944, Pitch_bend_c, 5, 8192
7, 466944, Note_on_c, 5, 27, 95
7, 468480, Note_off_c, 5, 27, 80
7, 468480, Note_on_c, 5, 27, 95
7, 469248, Note_off_c, 5, 27, 80
7, 469248, Note_on_c, 5, 27, 95
7, 470016, Note_off_c, 5, 27, 80
7, 470016, Note_on_c, 5, 39, 95
7, 471552, Note_off_c, 5, 39, 80
7, 471552, Note_on_c, 5, 27, 95
7, 472320, Note_off_c, 5, 27, 80
7, 472320, Note_on_c, 5, 27, 95
7, 473088, Note_off_c, 5, 27, 80
7, 473088, Note_on_c, 5, 32, 95
7, 475392, Note_off_c, 5, 32, 80
7, 475392, Note_on_c, 5, 32, 95
7, 476160, Note_off_c, 5, 32, 80
7, 476160, Note_on_c, 5, 27, 95
7, 477696, Note_off_c, 5, 27, 80
7, 477696, Note_on_c, 5, 32, 95
7, 478464, Note_off_c, 5, 32, 80
7, 478464, Note_on_c, 5, 27, 95
7, 479232, Note_off_c, 5, 27, 80
7, 479232, Note_on_c, 5, 34, 95
7, 484608, Note_off_c, 5, 34, 80
7, 484608, Note_on_c, 5, 29, 95
7, 485376, Note_off_c, 5, 29, 80
7, 485376, Note_on_c, 5, 34, 95
7, 486144, Note_off_c, 5, 34, 80
7, 486144, Note_on_c, 5, 29, 95
7, 486912, Note_off_c, 5, 29, 80
7, 486912, Note_on_c, 5, 34, 95
7, 487680, Note_off_c, 5, 34, 80
7, 488448, Note_on_c, 5, 34, 95
7, 489984, Note_off_c, 5, 34, 80
7, 489984, Note_on_c, 5, 29, 95
7, 490368, Pitch_bend_c, 5, 7552
7, 490534, Pitch_bend_c, 5, 6784
7, 490694, Pitch_bend_c, 5, 6144
7, 490860, Pitch_bend_c, 5, 5504
7, 491027, Pitch_bend_c, 5, 4736
7, 491193, Pitch_bend_c, 5, 4096
7, 491353, Pitch_bend_c, 5, 3456
7, 491520, Note_off_c, 5, 29, 80
7, 491520, Pitch_bend_c, 5, 8192
7, 491520, Note_on_c, 5, 27, 95
7, 493056, Note_off_c, 5, 27, 80
7, 493056, Note_on_c, 5, 27, 95
7, 493824, Note_off_c, 5, 27, 80
7, 493824, Note_on_c, 5, 27, 95
7, 494592, Note_off_c, 5, 27, 80
7, 494592, Note_on_c, 5, 39, 95
7, 496896, Note_off_c, 5, 39, 80
7, 496896, Note_on_c, 5, 27, 95
7, 497664, Note_off_c, 5, 27, 80
7, 497664, Note_on_c, 5, 32, 95
7, 498432, Note_off_c, 5, 32, 80
7, 499200, Note_on_c, 5, 32, 95
7, 500736, Note_off_c, 5, 32, 80
7, 500736, Note_on_c, 5, 44, 95
7, 503040, Note_off_c, 5, 44, 80
7, 503040, Note_on_c, 5, 32, 95
7, 503808, Note_off_c, 5, 32, 80
7, 503808, Note_on_c, 5, 34, 95
7, 509184, Note_off_c, 5, 34, 80
7, 509184, Note_on_c, 5, 29, 95
7, 509952, Note_off_c, 5, 29, 80
7, 509952, Note_on_c, 5, 34, 95
7, 510720, Note_off_c, 5, 34, 80
7, 510720, Note_on_c, 5, 29, 95
7, 511488, Note_off_c, 5, 29, 80
7, 511488, Note_on_c, 5, 34, 95
7, 514560, Note_off_c, 5, 34, 80
7, 514560, Note_on_c, 5, 34, 95
7, 515328, Note_off_c, 5, 34, 80
7, 515328, Note_on_c, 5, 32, 95
7, 516096, Note_off_c, 5, 32, 80
7, 516096, Note_on_c, 5, 31, 95
7, 518400, Note_off_c, 5, 31, 80
7, 518400, Note_on_c, 5, 31, 95
7, 519168, Note_off_c, 5, 31, 80
7, 519168, Note_on_c, 5, 39, 95
7, 520704, Note_off_c, 5, 39, 80
7, 520704, Note_on_c, 5, 31, 95
7, 521472, Note_off_c, 5, 31, 80
7, 521472, Note_on_c, 5, 31, 95
7, 522240, Note_off_c, 5, 31, 80
7, 522240, Note_on_c, 5, 32, 95
7, 523776, Note_off_c, 5, 32, 80
7, 523776, Note_on_c, 5, 32, 95
7, 524544, Note_off_c, 5, 32, 80
7, 524544, Note_on_c, 5, 32, 95
7, 525312, Note_off_c, 5, 32, 80
7, 525312, Note_on_c, 5, 39, 95
7, 526848, Note_off_c, 5, 39, 80
7, 526848, Note_on_c, 5, 32, 95
7, 527616, Note_off_c, 5, 32, 80
7, 527616, Note_on_c, 5, 32, 95
7, 528128, Note_on_c, 5, 38, 95
7, 528128, Pitch_bend_c, 5, 6144
7, 528217, Pitch_bend_c, 5, 6784
7, 528300, Pitch_bend_c, 5, 7552
7, 528384, Note_off_c, 5, 32, 80
7, 528384, Pitch_bend_c, 5, 8192
7, 530688, Note_off_c, 5, 38, 80
7, 530688, Note_on_c, 5, 38, 95
7, 531456, Note_off_c, 5, 38, 80
7, 531456, Note_on_c, 5, 46, 95
7, 532992, Note_off_c, 5, 46, 80
7, 532992, Note_on_c, 5, 38, 95
7, 534528, Note_off_c, 5, 38, 80
7, 534528, Note_on_c, 5, 39, 95
7, 535296, Note_off_c, 5, 39, 80
7, 535296, Note_on_c, 5, 46, 95
7, 536064, Note_off_c, 5, 46, 80
7, 536064, Note_on_c, 5, 39, 95
7, 537600, Note_off_c, 5, 39, 80
7, 537600, Note_on_c, 5, 38, 95
7, 538368, Note_off_c, 5, 38, 80
7, 538368, Note_on_c, 5, 46, 95
7, 539136, Note_off_c, 5, 46, 80
7, 539136, Note_on_c, 5, 38, 95
7, 540672, Note_off_c, 5, 38, 80
7, 540672, Note_on_c, 5, 36, 95
7, 542976, Note_off_c, 5, 36, 80
7, 542976, Note_on_c, 5, 36, 95
7, 543744, Note_off_c, 5, 36, 80
7, 543744, Note_on_c, 5, 36, 95
7, 545280, Note_off_c, 5, 36, 80
7, 545280, Note_on_c, 5, 36, 95
7, 546048, Note_off_c, 5, 36, 80
7, 546048, Note_on_c, 5, 34, 95
7, 546816, Note_off_c, 5, 34, 80
7, 546816, Note_on_c, 5, 33, 95
7, 548352, Note_off_c, 5, 33, 80
7, 548352, Note_on_c, 5, 33, 95
7, 549120, Note_off_c, 5, 33, 80
7, 549120, Note_on_c, 5, 33, 95
7, 549888, Note_off_c, 5, 33, 80
7, 549888, Note_on_c, 5, 45, 95
7, 550656, Note_off_c, 5, 45, 80
7, 550656, Note_on_c, 5, 33, 95
7, 551424, Note_off_c, 5, 33, 80
7, 551424, Note_on_c, 5, 33, 95
7, 552192, Note_off_c, 5, 33, 80
7, 552192, Note_on_c, 5, 33, 95
7, 552960, Note_off_c, 5, 33, 80
7, 552960, Note_on_c, 5, 34, 95
7, 559104, Note_off_c, 5, 34, 80
7, 559104, Note_on_c, 5, 26, 95
7, 565248, Note_off_c, 5, 26, 80
7, 565248, Note_on_c, 5, 31, 95
7, 577536, Note_off_c, 5, 31, 80
7, 577536, Note_on_c, 5, 29, 95
7, 586752, Note_off_c, 5, 29, 80
7, 586752, Note_on_c, 5, 26, 95
7, 588288, Note_off_c, 5, 26, 80
7, 588288, Note_on_c, 5, 29, 95
7, 589824, Note_off_c, 5, 29, 80
7, 589824, Note_on_c, 5, 31, 95
7, 598272, Note_off_c, 5, 31, 80
7, 598272, Note_on_c, 5, 26, 95
7, 599040, Note_off_c, 5, 26, 80
7, 599040, Note_on_c, 5, 26, 95
7, 600576, Note_off_c, 5, 26, 80
7, 600576, Note_on_c, 5, 31, 95
7, 602112, Note_off_c, 5, 31, 80
7, 602112, Note_on_c, 5, 29, 95
7, 607488, Note_off_c, 5, 29, 80
7, 607488, Note_on_c, 5, 24, 95
7, 608256, Note_off_c, 5, 24, 80
7, 608256, Note_on_c, 5, 24, 95
7, 609024, Note_off_c, 5, 24, 80
7, 609792, Note_on_c, 5, 29, 95
7, 612864, Note_off_c, 5, 29, 80
7, 737280, Note_on_c, 5, 31, 111
7, 742656, Note_off_c, 5, 31, 80
7, 742656, Note_on_c, 5, 26, 111
7, 743424, Note_off_c, 5, 26, 80
7, 743424, Note_on_c, 5, 31, 111
7, 744192, Note_off_c, 5, 31, 80
7, 744960, Note_on_c, 5, 31, 111
7, 748032, Note_off_c, 5, 31, 80
7, 748032, Note_on_c, 5, 34, 111
7, 749568, Note_off_c, 5, 34, 80
7, 749568, Note_on_c, 5, 36, 111
7, 754944, Note_off_c, 5, 36, 80
7, 754944, Note_on_c, 5, 31, 111
7, 755712, Note_off_c, 5, 31, 80
7, 755712, Note_on_c, 5, 36, 111
7, 756480, Note_off_c, 5, 36, 80
7, 756480, Note_on_c, 5, 31, 111
7, 757248, Note_off_c, 5, 31, 80
7, 757248, Note_on_c, 5, 36, 111
7, 758016, Note_off_c, 5, 36, 80
7, 758784, Note_on_c, 5, 36, 111
7, 759552, Note_off_c, 5, 36, 80
7, 759552, Note_on_c, 5, 34, 111
7, 761856, Note_off_c, 5, 34, 80
7, 761856, Note_on_c, 5, 31, 111
7, 767232, Note_off_c, 5, 31, 80
7, 767232, Note_on_c, 5, 26, 111
7, 768000, Note_off_c, 5, 26, 80
7, 768000, Note_on_c, 5, 31, 111
7, 768768, Note_off_c, 5, 31, 80
7, 769536, Note_on_c, 5, 31, 111
7, 772608, Note_off_c, 5, 31, 80
7, 772608, Note_on_c, 5, 34, 111
7, 774144, Note_off_c, 5, 34, 80
7, 774144, Note_on_c, 5, 36, 111
7, 776448, Note_off_c, 5, 36, 80
7, 776448, Note_on_c, 5, 36, 111
7, 776576, Note_off_c, 5, 36, 80
7, 777216, Note_on_c, 5, 34, 111
7, 777984, Note_off_c, 5, 34, 80
7, 777984, Note_on_c, 5, 36, 89
7, 779520, Note_off_c, 5, 36, 80
7, 779520, Note_on_c, 5, 31, 111
7, 780288, Note_off_c, 5, 31, 80
7, 780288, Note_on_c, 5, 36, 111
7, 781056, Note_off_c, 5, 36, 80
7, 781824, Note_on_c, 5, 36, 111
7, 783360, Note_off_c, 5, 36, 80
7, 783360, Note_on_c, 5, 36, 111
7, 784128, Note_off_c, 5, 36, 80
7, 784128, Note_on_c, 5, 34, 111
7, 786432, Note_off_c, 5, 34, 80
7, 786432, Note_on_c, 5, 31, 111
7, 791808, Note_off_c, 5, 31, 80
7, 791808, Note_on_c, 5, 26, 111
7, 792576, Note_off_c, 5, 26, 80
7, 792576, Note_on_c, 5, 31, 111
7, 793344, Note_off_c, 5, 31, 80
7, 794112, Note_on_c, 5, 31, 111
7, 797184, Note_off_c, 5, 31, 80
7, 797184, Note_on_c, 5, 34, 111
7, 798720, Note_off_c, 5, 34, 80
7, 798720, Note_on_c, 5, 36, 111
7, 799488, Note_off_c, 5, 36, 80
7, 799488, Note_on_c, 5, 36, 111
7, 800256, Note_off_c, 5, 36, 80
7, 800256, Note_on_c, 5, 36, 111
7, 801024, Note_off_c, 5, 36, 80
7, 801024, Note_on_c, 5, 36, 111
7, 801792, Note_off_c, 5, 36, 80
7, 801792, Note_on_c, 5, 34, 111
7, 802560, Note_off_c, 5, 34, 80
7, 802560, Note_on_c, 5, 36, 89
7, 803328, Note_off_c, 5, 36, 80
7, 803328, Note_on_c, 5, 36, 111
7, 804096, Note_off_c, 5, 36, 80
7, 804096, Note_on_c, 5, 31, 111
7, 804864, Note_off_c, 5, 31, 80
7, 804864, Note_on_c, 5, 36, 111
7, 805632, Note_off_c, 5, 36, 80
7, 806400, Note_on_c, 5, 36, 111
7, 807936, Note_off_c, 5, 36, 80
7, 807936, Note_on_c, 5, 36, 111
7, 808704, Note_off_c, 5, 36, 80
7, 808704, Note_on_c, 5, 34, 111
7, 811008, Note_off_c, 5, 34, 80
7, 811008, Note_on_c, 5, 31, 111
7, 816384, Note_off_c, 5, 31, 80
7, 816384, Note_on_c, 5, 26, 111
7, 817152, Note_off_c, 5, 26, 80
7, 817152, Note_on_c, 5, 31, 111
7, 817920, Note_off_c, 5, 31, 80
7, 818688, Note_on_c, 5, 31, 111
7, 823296, Note_off_c, 5, 31, 80
7, 823296, Note_on_c, 5, 33, 111
7, 835584, Note_off_c, 5, 33, 80
7, 835584, Note_on_c, 5, 26, 111
7, 847872, Note_off_c, 5, 26, 80
7, 847872, Note_on_c, 5, 31, 111
7, 848896, Note_on_c, 5, 43, 111
7, 849408, Note_off_c, 5, 31, 80
7, 849408, Note_on_c, 5, 38, 111
7, 849920, Note_on_c, 5, 31, 111
7, 850176, Note_off_c, 5, 38, 80
7, 850176, Note_off_c, 5, 43, 80
7, 850944, Note_off_c, 5, 31, 80
7, 850944, Note_on_c, 5, 38, 111
7, 851328, Note_on_c, 5, 43, 111
7, 851712, Note_off_c, 5, 38, 80
7, 851712, Note_on_c, 5, 38, 111
7, 852096, Note_off_c, 5, 43, 80
7, 852096, Note_on_c, 5, 43, 111
7, 852480, Note_off_c, 5, 38, 80
7, 852480, Note_on_c, 5, 38, 111
7, 852864, Note_off_c, 5, 43, 80
7, 852864, Note_on_c, 5, 43, 111
7, 853248, Note_off_c, 5, 38, 80
7, 853248, Note_on_c, 5, 38, 111
7, 853632, Note_off_c, 5, 43, 80
7, 853632, Note_on_c, 5, 43, 111
7, 854016, Note_off_c, 5, 38, 80
7, 854016, Note_on_c, 5, 38, 111
7, 854528, Note_off_c, 5, 43, 80
7, 854528, Note_on_c, 5, 43, 111
7, 855040, Note_off_c, 5, 38, 80
7, 855040, Note_on_c, 5, 38, 111
7, 855552, Note_off_c, 5, 43, 80
7, 855552, Note_on_c, 5, 31, 111
7, 855808, Note_off_c, 5, 38, 80
7, 857088, Note_off_c, 5, 31, 80
7, 857088, Note_on_c, 5, 43, 111
7, 860160, Note_off_c, 5, 43, 80
7, 860160, Note_on_c, 5, 31, 111
7, 884736, Note_off_c, 5, 31, 80
7, 884736, End_track
8, 0, Start_track
8, 0, Title_t, "5-String Bass 2"
8, 4608, Control_c, 6, 100, 0
8, 4608, Control_c, 6, 101, 0
8, 4608, Control_c, 6, 6, 12
8, 4608, Pitch_bend_c, 6, 8192
8, 4608, Control_c, 6, 38, 0
8, 4608, Program_c, 6, 33
8, 4608, Control_c, 6, 0, 0
8, 4608, Control_c, 6, 7, 127
8, 4608, Control_c, 6, 10, 72
8, 4608, Control_c, 6, 93, 0
8, 4608, Control_c, 6, 91, 0
8, 4608, Control_c, 6, 92, 0
8, 4608, Control_c, 6, 95, 0
8, 613632, Note_on_c, 6, 43, 111
8, 614400, Note_off_c, 6, 43, 80
8, 614400, Note_on_c, 6, 43, 111
8, 615936, Note_off_c, 6, 43, 80
8, 615936, Note_on_c, 6, 50, 111
8, 616704, Note_off_c, 6, 50, 80
8, 616704, Note_on_c, 6, 50, 111
8, 619776, Note_off_c, 6, 50, 80
8, 619776, Note_on_c, 6, 50, 111
8, 620544, Note_off_c, 6, 50, 80
8, 620544, Note_on_c, 6, 50, 111
8, 622080, Note_off_c, 6, 50, 80
8, 622080, Note_on_c, 6, 57, 111
8, 622848, Note_off_c, 6, 57, 80
8, 622848, Note_on_c, 6, 57, 111
8, 625920, Note_off_c, 6, 57, 80
8, 625920, Note_on_c, 6, 58, 111
8, 626688, Note_off_c, 6, 58, 80
8, 626688, Note_on_c, 6, 57, 111
8, 627712, Note_off_c, 6, 57, 80
8, 627712, Note_on_c, 6, 53, 111
8, 628736, Note_off_c, 6, 53, 80
8, 628736, Note_on_c, 6, 53, 111
8, 631680, Pitch_bend_c, 6, 7552
8, 631846, Pitch_bend_c, 6, 6784
8, 632006, Pitch_bend_c, 6, 6144
8, 632172, Pitch_bend_c, 6, 5504
8, 632339, Pitch_bend_c, 6, 4736
8, 632505, Pitch_bend_c, 6, 4096
8, 632665, Pitch_bend_c, 6, 3456
8, 632832, Note_off_c, 6, 53, 80
8, 632832, Pitch_bend_c, 6, 8192
8, 632832, Note_on_c, 6, 60, 111
8, 633600, Note_off_c, 6, 60, 80
8, 633600, Note_on_c, 6, 58, 111
8, 634368, Note_off_c, 6, 58, 80
8, 634368, Note_on_c, 6, 57, 89
8, 635136, Note_off_c, 6, 57, 80
8, 635136, Note_on_c, 6, 53, 111
8, 635904, Note_off_c, 6, 53, 80
8, 635904, Note_on_c, 6, 48, 111
8, 636672, Note_off_c, 6, 48, 80
8, 636672, Note_on_c, 6, 46, 111
8, 637440, Note_off_c, 6, 46, 80
8, 637440, Note_on_c, 6, 45, 111
8, 638208, Note_off_c, 6, 45, 80
8, 638208, Note_on_c, 6, 46, 111
8, 638976, Note_off_c, 6, 46, 80
8, 638976, Note_on_c, 6, 43, 111
8, 640512, Note_off_c, 6, 43, 80
8, 640512, Note_on_c, 6, 50, 111
8, 641280, Note_off_c, 6, 50, 80
8, 641280, Note_on_c, 6, 50, 111
8, 644352, Note_off_c, 6, 50, 80
8, 644352, Note_on_c, 6, 50, 111
8, 644736, Note_off_c, 6, 50, 80
8, 644736, Note_on_c, 6, 50, 111
8, 645120, Note_off_c, 6, 50, 80
8, 645120, Note_on_c, 6, 50, 111
8, 646656, Note_off_c, 6, 50, 80
8, 646656, Note_on_c, 6, 57, 111
8, 647424, Note_off_c, 6, 57, 80
8, 647424, Note_on_c, 6, 57, 111
8, 649728, Note_off_c, 6, 57, 80
8, 649728, Note_on_c, 6, 58, 111
8, 650496, Note_off_c, 6, 58, 80
8, 650496, Note_on_c, 6, 57, 111
8, 651264, Note_off_c, 6, 57, 80
8, 651264, Note_on_c, 6, 58, 111
8, 652288, Note_off_c, 6, 58, 80
8, 652288, Note_on_c, 6, 62, 111
8, 653312, Note_off_c, 6, 62, 80
8, 653312, Note_on_c, 6, 60, 111
8, 654336, Note_off_c, 6, 60, 80
8, 654336, Note_on_c, 6, 57, 111
8, 655360, Note_off_c, 6, 57, 80
8, 655360, Note_on_c, 6, 53, 111
8, 656384, Note_off_c, 6, 53, 80
8, 656384, Note_on_c, 6, 53, 111
8, 660480, Note_off_c, 6, 53, 80
8, 660480, Note_on_c, 6, 53, 111
8, 661248, Note_off_c, 6, 53, 80
8, 661248, Note_on_c, 6, 55, 111
8, 662016, Note_off_c, 6, 55, 80
8, 662016, Note_on_c, 6, 53, 111
8, 662784, Note_off_c, 6, 53, 80
8, 662784, Note_on_c, 6, 50, 111
8, 663552, Note_off_c, 6, 50, 80
8, 663552, Note_on_c, 6, 51, 111
8, 665856, Note_off_c, 6, 51, 80
8, 665856, Note_on_c, 6, 58, 111
8, 672000, Note_off_c, 6, 58, 80
8, 672000, Note_on_c, 6, 58, 111
8, 672128, Note_off_c, 6, 58, 80
8, 672768, Note_on_c, 6, 58, 111
8, 673536, Note_off_c, 6, 58, 80
8, 673536, Note_on_c, 6, 57, 111
8, 674304, Note_off_c, 6, 57, 80
8, 674304, Note_on_c, 6, 58, 111
8, 675072, Note_off_c, 6, 58, 80
8, 675072, Note_on_c, 6, 62, 111
8, 675840, Note_off_c, 6, 62, 80
8, 675840, Note_on_c, 6, 60, 111
8, 676864, Note_off_c, 6, 60, 80
8, 676864, Note_on_c, 6, 60, 111
8, 677888, Note_off_c, 6, 60, 80
8, 677888, Note_on_c, 6, 57, 111
8, 678912, Note_off_c, 6, 57, 80
8, 678912, Note_on_c, 6, 53, 111
8, 683014, Note_on_c, 6, 62, 111
8, 683014, Pitch_bend_c, 6, 6144
8, 683180, Pitch_bend_c, 6, 6784
8, 683353, Pitch_bend_c, 6, 7552
8, 683520, Note_off_c, 6, 53, 80
8, 683520, Pitch_bend_c, 6, 8192
8, 685823, Note_off_c, 6, 62, 80
8, 685824, Note_on_c, 6, 60, 111
8, 686592, Note_off_c, 6, 60, 80
8, 686592, Note_on_c, 6, 58, 111
8, 686976, Note_off_c, 6, 58, 80
8, 686976, Note_on_c, 6, 55, 111
8, 687360, Note_off_c, 6, 55, 80
8, 687360, Note_on_c, 6, 53, 111
8, 687744, Note_off_c, 6, 53, 80
8, 687744, Note_on_c, 6, 58, 111
8, 688128, Note_off_c, 6, 58, 80
8, 688128, Note_on_c, 6, 55, 111
8, 688128, Pitch_bend_c, 6, 8192
8, 688147, Pitch_bend_c, 6, 8192
8, 688166, Pitch_bend_c, 6, 8192
8, 688179, Pitch_bend_c, 6, 8192
8, 688198, Pitch_bend_c, 6, 8192
8, 688217, Pitch_bend_c, 6, 8192
8, 688236, Pitch_bend_c, 6, 8064
8, 688256, Pitch_bend_c, 6, 8064
8, 688268, Pitch_bend_c, 6, 8064
8, 688288, Pitch_bend_c, 6, 8064
8, 688307, Pitch_bend_c, 6, 8064
8, 688326, Pitch_bend_c, 6, 8192
8, 688345, Pitch_bend_c, 6, 8192
8, 688364, Pitch_bend_c, 6, 8192
8, 688377, Pitch_bend_c, 6, 8192
8, 688396, Pitch_bend_c, 6, 8192
8, 688416, Pitch_bend_c, 6, 8192
8, 688435, Pitch_bend_c, 6, 8192
8, 688454, Pitch_bend_c, 6, 8192
8, 688467, Pitch_bend_c, 6, 8192
8, 688486, Pitch_bend_c, 6, 8192
8, 688505, Pitch_bend_c, 6, 8192
8, 688524, Pitch_bend_c, 6, 8320
8, 688544, Pitch_bend_c, 6, 8320
8, 688563, Pitch_bend_c, 6, 8320
8, 688576, Pitch_bend_c, 6, 8320
8, 688595, Pitch_bend_c, 6, 8320
8, 688614, Pitch_bend_c, 6, 8192
8, 688633, Pitch_bend_c, 6, 8192
8, 688652, Pitch_bend_c, 6, 8192
8, 688665, Pitch_bend_c, 6, 8192
8, 688684, Pitch_bend_c, 6, 8192
8, 688704, Pitch_bend_c, 6, 8192
8, 688723, Pitch_bend_c, 6, 8192
8, 688742, Pitch_bend_c, 6, 8320
8, 688755, Pitch_bend_c, 6, 8320
8, 688774, Pitch_bend_c, 6, 8448
8, 688793, Pitch_bend_c, 6, 8448
8, 688812, Pitch_bend_c, 6, 8448
8, 688832, Pitch_bend_c, 6, 8448
8, 688844, Pitch_bend_c, 6, 8448
8, 688864, Pitch_bend_c, 6, 8448
8, 688883, Pitch_bend_c, 6, 8448
8, 688902, Pitch_bend_c, 6, 8448
8, 688921, Pitch_bend_c, 6, 8448
8, 688940, Pitch_bend_c, 6, 8320
8, 688953, Pitch_bend_c, 6, 8320
8, 688972, Pitch_bend_c, 6, 8192
8, 688992, Pitch_bend_c, 6, 8192
8, 689011, Pitch_bend_c, 6, 8192
8, 689030, Pitch_bend_c, 6, 8064
8, 689043, Pitch_bend_c, 6, 8064
8, 689062, Pitch_bend_c, 6, 7936
8, 689081, Pitch_bend_c, 6, 7936
8, 689100, Pitch_bend_c, 6, 7936
8, 689120, Pitch_bend_c, 6, 7936
8, 689139, Pitch_bend_c, 6, 7936
8, 689152, Pitch_bend_c, 6, 7936
8, 689171, Pitch_bend_c, 6, 7936
8, 689190, Pitch_bend_c, 6, 7936
8, 689209, Pitch_bend_c, 6, 7936
8, 689228, Pitch_bend_c, 6, 8064
8, 689241, Pitch_bend_c, 6, 8064
8, 689260, Pitch_bend_c, 6, 8192
8, 689280, Pitch_bend_c, 6, 8192
8, 689299, Pitch_bend_c, 6, 8320
8, 689318, Pitch_bend_c, 6, 8320
8, 689331, Pitch_bend_c, 6, 8320
8, 689350, Pitch_bend_c, 6, 8448
8, 689369, Pitch_bend_c, 6, 8448
8, 689388, Pitch_bend_c, 6, 8448
8, 689408, Pitch_bend_c, 6, 8448
8, 689420, Pitch_bend_c, 6, 8448
8, 689440, Pitch_bend_c, 6, 8448
8, 689459, Pitch_bend_c, 6, 8448
8, 689478, Pitch_bend_c, 6, 8448
8, 689497, Pitch_bend_c, 6, 8448
8, 689516, Pitch_bend_c, 6, 8320
8, 689529, Pitch_bend_c, 6, 8320
8, 689548, Pitch_bend_c, 6, 8320
8, 689568, Pitch_bend_c, 6, 8192
8, 689587, Pitch_bend_c, 6, 8064
8, 689606, Pitch_bend_c, 6, 8064
8, 689619, Pitch_bend_c, 6, 8064
8, 689638, Pitch_bend_c, 6, 7936
8, 689657, Pitch_bend_c, 6, 7936
8, 689676, Pitch_bend_c, 6, 7936
8, 689696, Pitch_bend_c, 6, 7936
8, 689715, Pitch_bend_c, 6, 7936
8, 689728, Pitch_bend_c, 6, 7936
8, 689747, Pitch_bend_c, 6, 7936
8, 689766, Pitch_bend_c, 6, 7936
8, 689785, Pitch_bend_c, 6, 7936
8, 689804, Pitch_bend_c, 6, 8064
8, 689817, Pitch_bend_c, 6, 8064
8, 689836, Pitch_bend_c, 6, 8064
8, 689856, Pitch_bend_c, 6, 8192
8, 689875, Pitch_bend_c, 6, 8192
8, 689894, Pitch_bend_c, 6, 8320
8, 689907, Pitch_bend_c, 6, 8320
8, 689926, Pitch_bend_c, 6, 8320
8, 689945, Pitch_bend_c, 6, 8320
8, 689964, Pitch_bend_c, 6, 8448
8, 689984, Pitch_bend_c, 6, 8448
8, 689996, Pitch_bend_c, 6, 8448
8, 690016, Pitch_bend_c, 6, 8448
8, 690035, Pitch_bend_c, 6, 8448
8, 690054, Pitch_bend_c, 6, 8320
8, 690073, Pitch_bend_c, 6, 8320
8, 690092, Pitch_bend_c, 6, 8320
8, 690105, Pitch_bend_c, 6, 8320
8, 690124, Pitch_bend_c, 6, 8192
8, 690144, Pitch_bend_c, 6, 8192
8, 690163, Pitch_bend_c, 6, 8192
8, 690182, Pitch_bend_c, 6, 8064
8, 690195, Pitch_bend_c, 6, 8064
8, 690214, Pitch_bend_c, 6, 8064
8, 690233, Pitch_bend_c, 6, 8064
8, 690252, Pitch_bend_c, 6, 7936
8, 690272, Pitch_bend_c, 6, 7936
8, 690291, Pitch_bend_c, 6, 7936
8, 690304, Pitch_bend_c, 6, 7936
8, 690323, Pitch_bend_c, 6, 7936
8, 690342, Pitch_bend_c, 6, 8064
8, 690361, Pitch_bend_c, 6, 8064
8, 690380, Pitch_bend_c, 6, 8064
8, 690393, Pitch_bend_c, 6, 8064
8, 690412, Pitch_bend_c, 6, 8192
8, 690432, Note_off_c, 6, 55, 80
8, 690432, Pitch_bend_c, 6, 8192
8, 690432, Note_on_c, 6, 58, 111
8, 691584, Pitch_bend_c, 6, 7552
8, 691750, Pitch_bend_c, 6, 6784
8, 691910, Pitch_bend_c, 6, 6144
8, 692076, Pitch_bend_c, 6, 5504
8, 692243, Pitch_bend_c, 6, 4736
8, 692409, Pitch_bend_c, 6, 4096
8, 692569, Pitch_bend_c, 6, 3456
8, 692736, Note_off_c, 6, 58, 80
8, 692736, Pitch_bend_c, 6, 8192
8, 693504, Note_on_c, 6, 60, 111
8, 693888, Note_off_c, 6, 60, 80
8, 694272, Note_on_c, 6, 62, 111
8, 694656, Note_off_c, 6, 62, 80
8, 694656, Note_on_c, 6, 58, 111
8, 695040, Note_off_c, 6, 58, 80
8, 695040, Note_on_c, 6, 57, 111
8, 695424, Note_off_c, 6, 57, 80
8, 695424, Note_on_c, 6, 55, 111
8, 695808, Note_off_c, 6, 55, 80
8, 695808, Note_on_c, 6, 53, 111
8, 696192, Note_off_c, 6, 53, 80
8, 696192, Note_on_c, 6, 58, 111
8, 696576, Note_off_c, 6, 58, 80
8, 696576, Note_on_c, 6, 57, 111
8, 696960, Note_off_c, 6, 57, 80
8, 696960, Note_on_c, 6, 55, 111
8, 697344, Note_off_c, 6, 55, 80
8, 697344, Note_on_c, 6, 53, 111
8, 697728, Note_off_c, 6, 53, 80
8, 697728, Note_on_c, 6, 52, 111
8, 698112, Note_off_c, 6, 52, 80
8, 698112, Note_on_c, 6, 57, 111
8, 698496, Note_off_c, 6, 57, 80
8, 698496, Note_on_c, 6, 55, 111
8, 698880, Note_off_c, 6, 55, 80
8, 698880, Note_on_c, 6, 53, 111
8, 699264, Note_off_c, 6, 53, 80
8, 699264, Note_on_c, 6, 52, 111
8, 699648, Note_off_c, 6, 52, 80
8, 699648, Note_on_c, 6, 50, 111
8, 700032, Note_off_c, 6, 50, 80
8, 700032, Note_on_c, 6, 53, 111
8, 700416, Note_off_c, 6, 53, 80
8, 700416, Note_on_c, 6, 52, 111
8, 701952, Note_off_c, 6, 52, 80
8, 701952, Note_on_c, 6, 46, 111
8, 702336, Note_off_c, 6, 46, 80
8, 702336, Note_on_c, 6, 45, 111
8, 702720, Note_off_c, 6, 45, 80
8, 702720, Note_on_c, 6, 43, 111
8, 702720, Pitch_bend_c, 6, 8192
8, 702739, Pitch_bend_c, 6, 8192
8, 702758, Pitch_bend_c, 6, 8192
8, 702771, Pitch_bend_c, 6, 8192
8, 702790, Pitch_bend_c, 6, 8192
8, 702809, Pitch_bend_c, 6, 8192
8, 702828, Pitch_bend_c, 6, 8192
8, 702848, Pitch_bend_c, 6, 8192
8, 702860, Pitch_bend_c, 6, 8192
8, 702880, Pitch_bend_c, 6, 8192
8, 702899, Pitch_bend_c, 6, 8192
8, 702918, Pitch_bend_c, 6, 8192
8, 702937, Pitch_bend_c, 6, 8192
8, 702956, Pitch_bend_c, 6, 8192
8, 702969, Pitch_bend_c, 6, 8192
8, 702988, Pitch_bend_c, 6, 8192
8, 703008, Pitch_bend_c, 6, 8192
8, 703027, Pitch_bend_c, 6, 8192
8, 703046, Pitch_bend_c, 6, 8192
8, 703059, Pitch_bend_c, 6, 8192
8, 703078, Pitch_bend_c, 6, 8192
8, 703097, Pitch_bend_c, 6, 8192
8, 703116, Pitch_bend_c, 6, 8192
8, 703136, Pitch_bend_c, 6, 8192
8, 703155, Pitch_bend_c, 6, 8192
8, 703168, Pitch_bend_c, 6, 8192
8, 703187, Pitch_bend_c, 6, 8192
8, 703206, Pitch_bend_c, 6, 8192
8, 703225, Pitch_bend_c, 6, 8192
8, 703244, Pitch_bend_c, 6, 8192
8, 703257, Pitch_bend_c, 6, 8192
8, 703276, Pitch_bend_c, 6, 8192
8, 703296, Pitch_bend_c, 6, 8192
8, 703315, Pitch_bend_c, 6, 8320
8, 703334, Pitch_bend_c, 6, 8320
8, 703347, Pitch_bend_c, 6, 8320
8, 703366, Pitch_bend_c, 6, 8448
8, 703385, Pitch_bend_c, 6, 8448
8, 703404, Pitch_bend_c, 6, 8448
8, 703424, Pitch_bend_c, 6, 8448
8, 703436, Pitch_bend_c, 6, 8448
8, 703456, Pitch_bend_c, 6, 8448
8, 703475, Pitch_bend_c, 6, 8448
8, 703488, Pitch_bend_c, 6, 8192
8, 703507, Pitch_bend_c, 6, 8192
8, 703526, Pitch_bend_c, 6, 8192
8, 703539, Pitch_bend_c, 6, 8192
8, 703558, Pitch_bend_c, 6, 8192
8, 703577, Pitch_bend_c, 6, 8192
8, 703596, Pitch_bend_c, 6, 8192
8, 703616, Pitch_bend_c, 6, 8192
8, 703628, Pitch_bend_c, 6, 8192
8, 703648, Pitch_bend_c, 6, 8192
8, 703667, Pitch_bend_c, 6, 8192
8, 703686, Pitch_bend_c, 6, 8192
8, 703705, Pitch_bend_c, 6, 8192
8, 703724, Pitch_bend_c, 6, 8192
8, 703737, Pitch_bend_c, 6, 8192
8, 703756, Pitch_bend_c, 6, 8192
8, 703776, Pitch_bend_c, 6, 8192
8, 703795, Pitch_bend_c, 6, 8192
8, 703814, Pitch_bend_c, 6, 8192
8, 703827, Pitch_bend_c, 6, 8192
8, 703846, Pitch_bend_c, 6, 8192
8, 703865, Pitch_bend_c, 6, 8192
8, 703884, Pitch_bend_c, 6, 8192
8, 703904, Pitch_bend_c, 6, 8192
8, 703923, Pitch_bend_c, 6, 8192
8, 703936, Pitch_bend_c, 6, 8192
8, 703955, Pitch_bend_c, 6, 8192
8, 703974, Pitch_bend_c, 6, 8192
8, 703993, Pitch_bend_c, 6, 8192
8, 704012, Pitch_bend_c, 6, 8192
8, 704025, Pitch_bend_c, 6, 8192
8, 704044, Pitch_bend_c, 6, 8192
8, 704064, Pitch_bend_c, 6, 8192
8, 704083, Pitch_bend_c, 6, 8192
8, 704102, Pitch_bend_c, 6, 8320
8, 704115, Pitch_bend_c, 6, 8320
8, 704134, Pitch_bend_c, 6, 8320
8, 704153, Pitch_bend_c, 6, 8320
8, 704172, Pitch_bend_c, 6, 8448
8, 704192, Pitch_bend_c, 6, 8448
8, 704204, Pitch_bend_c, 6, 8448
8, 704224, Pitch_bend_c, 6, 8448
8, 704243, Pitch_bend_c, 6, 8448
8, 704262, Pitch_bend_c, 6, 8320
8, 704281, Pitch_bend_c, 6, 8320
8, 704300, Pitch_bend_c, 6, 8320
8, 704313, Pitch_bend_c, 6, 8320
8, 704332, Pitch_bend_c, 6, 8192
8, 704352, Pitch_bend_c, 6, 8192
8, 704371, Pitch_bend_c, 6, 8192
8, 704390, Pitch_bend_c, 6, 8064
8, 704403, Pitch_bend_c, 6, 8064
8, 704422, Pitch_bend_c, 6, 8064
8, 704441, Pitch_bend_c, 6, 8064
8, 704460, Pitch_bend_c, 6, 7936
8, 704480, Pitch_bend_c, 6, 7936
8, 704499, Pitch_bend_c, 6, 7936
8, 704512, Pitch_bend_c, 6, 7936
8, 704531, Pitch_bend_c, 6, 7936
8, 704550, Pitch_bend_c, 6, 8064
8, 704569, Pitch_bend_c, 6, 8064
8, 704588, Pitch_bend_c, 6, 8064
8, 704601, Pitch_bend_c, 6, 8064
8, 704620, Pitch_bend_c, 6, 8192
8, 704640, Pitch_bend_c, 6, 8192
8, 704659, Pitch_bend_c, 6, 8192
8, 704678, Pitch_bend_c, 6, 8320
8, 704691, Pitch_bend_c, 6, 8320
8, 704710, Pitch_bend_c, 6, 8320
8, 704729, Pitch_bend_c, 6, 8448
8, 704748, Pitch_bend_c, 6, 8448
8, 704768, Pitch_bend_c, 6, 8448
8, 704780, Pitch_bend_c, 6, 8448
8, 704800, Pitch_bend_c, 6, 8448
8, 704819, Pitch_bend_c, 6, 8448
8, 704838, Pitch_bend_c, 6, 8448
8, 704857, Pitch_bend_c, 6, 8320
8, 704876, Pitch_bend_c, 6, 8320
8, 704889, Pitch_bend_c, 6, 8320
8, 704908, Pitch_bend_c, 6, 8192
8, 704928, Pitch_bend_c, 6, 8192
8, 704947, Pitch_bend_c, 6, 8192
8, 704966, Pitch_bend_c, 6, 8064
8, 704979, Pitch_bend_c, 6, 8064
8, 704998, Pitch_bend_c, 6, 8064
8, 705017, Pitch_bend_c, 6, 7936
8, 705036, Pitch_bend_c, 6, 7936
8, 705056, Pitch_bend_c, 6, 7936
8, 705075, Pitch_bend_c, 6, 7936
8, 705088, Pitch_bend_c, 6, 7936
8, 705107, Pitch_bend_c, 6, 7936
8, 705126, Pitch_bend_c, 6, 7936
8, 705145, Pitch_bend_c, 6, 8064
8, 705164, Pitch_bend_c, 6, 8064
8, 705177, Pitch_bend_c, 6, 8064
8, 705196, Pitch_bend_c, 6, 8192
8, 705216, Pitch_bend_c, 6, 8192
8, 705235, Pitch_bend_c, 6, 8192
8, 705254, Pitch_bend_c, 6, 8320
8, 705267, Pitch_bend_c, 6, 8320
8, 705286, Pitch_bend_c, 6, 8448
8, 705305, Pitch_bend_c, 6, 8448
8, 705324, Pitch_bend_c, 6, 8448
8, 705344, Pitch_bend_c, 6, 8448
8, 705356, Pitch_bend_c, 6, 8448
8, 705376, Pitch_bend_c, 6, 8448
8, 705395, Pitch_bend_c, 6, 8448
8, 705414, Pitch_bend_c, 6, 8448
8, 705433, Pitch_bend_c, 6, 8448
8, 705452, Pitch_bend_c, 6, 8320
8, 705465, Pitch_bend_c, 6, 8320
8, 705484, Pitch_bend_c, 6, 8192
8, 705504, Pitch_bend_c, 6, 8192
8, 705523, Pitch_bend_c, 6, 8192
8, 705542, Pitch_bend_c, 6, 8064
8, 705555, Pitch_bend_c, 6, 8064
8, 705574, Pitch_bend_c, 6, 7936
8, 705593, Pitch_bend_c, 6, 7936
8, 705612, Pitch_bend_c, 6, 7936
8, 705632, Pitch_bend_c, 6, 7936
8, 705651, Pitch_bend_c, 6, 7936
8, 705664, Pitch_bend_c, 6, 7936
8, 705683, Pitch_bend_c, 6, 7936
8, 705702, Pitch_bend_c, 6, 7936
8, 705721, Pitch_bend_c, 6, 7936
8, 705740, Pitch_bend_c, 6, 8064
8, 705753, Pitch_bend_c, 6, 8064
8, 705772, Pitch_bend_c, 6, 8192
8, 705792, Pitch_bend_c, 6, 8192
8, 705811, Pitch_bend_c, 6, 8192
8, 705830, Pitch_bend_c, 6, 8320
8, 705843, Pitch_bend_c, 6, 8320
8, 705862, Pitch_bend_c, 6, 8320
8, 705881, Pitch_bend_c, 6, 8320
8, 705900, Pitch_bend_c, 6, 8320
8, 705920, Pitch_bend_c, 6, 8448
8, 705932, Pitch_bend_c, 6, 8448
8, 705952, Pitch_bend_c, 6, 8448
8, 705971, Pitch_bend_c, 6, 8320
8, 705990, Pitch_bend_c, 6, 8320
8, 706009, Pitch_bend_c, 6, 8320
8, 706028, Pitch_bend_c, 6, 8320
8, 706041, Pitch_bend_c, 6, 8320
8, 706060, Pitch_bend_c, 6, 8192
8, 706080, Pitch_bend_c, 6, 8192
8, 706099, Pitch_bend_c, 6, 8192
8, 706118, Pitch_bend_c, 6, 8064
8, 706131, Pitch_bend_c, 6, 8064
8, 706150, Pitch_bend_c, 6, 8064
8, 706169, Pitch_bend_c, 6, 8064
8, 706188, Pitch_bend_c, 6, 8064
8, 706208, Pitch_bend_c, 6, 7936
8, 706227, Pitch_bend_c, 6, 7936
8, 706240, Pitch_bend_c, 6, 7936
8, 706259, Pitch_bend_c, 6, 8064
8, 706278, Pitch_bend_c, 6, 8064
8, 706297, Pitch_bend_c, 6, 8064
8, 706316, Pitch_bend_c, 6, 8064
8, 706329, Pitch_bend_c, 6, 8064
8, 706348, Pitch_bend_c, 6, 8192
8, 706368, Pitch_bend_c, 6, 8192
8, 706387, Pitch_bend_c, 6, 8192
8, 706406, Pitch_bend_c, 6, 8192
8, 706419, Pitch_bend_c, 6, 8192
8, 706438, Pitch_bend_c, 6, 8192
8, 706457, Pitch_bend_c, 6, 8192
8, 706476, Pitch_bend_c, 6, 8320
8, 706496, Pitch_bend_c, 6, 8320
8, 706508, Pitch_bend_c, 6, 8320
8, 706528, Pitch_bend_c, 6, 8320
8, 706547, Pitch_bend_c, 6, 8320
8, 706560, Note_off_c, 6, 43, 80
8, 706560, Pitch_bend_c, 6, 8192
8, 706560, Note_on_c, 6, 40, 111
8, 706944, Note_off_c, 6, 40, 80
8, 706944, Note_on_c, 6, 41, 111
8, 707328, Note_off_c, 6, 41, 80
8, 707328, Note_on_c, 6, 43, 111
8, 707712, Note_off_c, 6, 43, 80
8, 707712, Note_on_c, 6, 45, 111
8, 708096, Note_off_c, 6, 45, 80
8, 708096, Note_on_c, 6, 46, 111
8, 708480, Note_off_c, 6, 46, 80
8, 708480, Note_on_c, 6, 43, 111
8, 708864, Note_off_c, 6, 43, 80
8, 708864, Note_on_c, 6, 45, 111
8, 709248, Note_off_c, 6, 45, 80
8, 709248, Note_on_c, 6, 46, 111
8, 709632, Note_off_c, 6, 46, 80
8, 709632, Note_on_c, 6, 48, 111
8, 710016, Note_off_c, 6, 48, 80
8, 710016, Note_on_c, 6, 50, 111
8, 710400, Note_off_c, 6, 50, 80
8, 710400, Note_on_c, 6, 52, 111
8, 710784, Note_off_c, 6, 52, 80
8, 710784, Note_on_c, 6, 48, 111
8, 711168, Note_off_c, 6, 48, 80
8, 711168, Note_on_c, 6, 50, 111
8, 711552, Note_off_c, 6, 50, 80
8, 711552, Note_on_c, 6, 52, 111
8, 711936, Note_off_c, 6, 52, 80
8, 711936, Note_on_c, 6, 55, 111
8, 712320, Note_off_c, 6, 55, 80
8, 712320, Note_on_c, 6, 52, 111
8, 712704, Note_off_c, 6, 52, 80
8, 712704, Note_on_c, 6, 54, 111
8, 714240, Note_off_c, 6, 54, 80
8, 714240, Note_on_c, 6, 51, 111
8, 714624, Note_off_c, 6, 51, 80
8, 714624, Note_on_c, 6, 49, 111
8, 715008, Note_off_c, 6, 49, 80
8, 715008, Note_on_c, 6, 51, 111
8, 718080, Note_off_c, 6, 51, 80
8, 718080, Note_on_c, 6, 57, 111
8, 718208, Note_off_c, 6, 57, 80
8, 718464, Note_on_c, 6, 57, 111
8, 718592, Note_off_c, 6, 57, 80
8, 718848, Note_on_c, 6, 57, 111
8, 719232, Note_off_c, 6, 57, 80
8, 719232, Note_on_c, 6, 58, 89
8, 719616, Note_off_c, 6, 58, 80
8, 719616, Note_on_c, 6, 58, 111
8, 720000, Note_off_c, 6, 58, 80
8, 720000, Note_on_c, 6, 58, 111
8, 720384, Note_off_c, 6, 58, 80
8, 720384, Note_on_c, 6, 58, 111
8, 720768, Note_off_c, 6, 58, 80
8, 720768, Note_on_c, 6, 58, 111
8, 721152, Note_off_c, 6, 58, 80
8, 721152, Note_on_c, 6, 57, 111
8, 721536, Note_off_c, 6, 57, 80
8, 721536, Note_on_c, 6, 58, 89
8, 721920, Note_off_c, 6, 58, 80
8, 721920, Note_on_c, 6, 58, 111
8, 722304, Note_off_c, 6, 58, 80
8, 722304, Note_on_c, 6, 58, 111
8, 722688, Note_off_c, 6, 58, 80
8, 722688, Note_on_c, 6, 58, 111
8, 723072, Note_off_c, 6, 58, 80
8, 723072, Note_on_c, 6, 58, 111
8, 723456, Note_off_c, 6, 58, 80
8, 723456, Note_on_c, 6, 57, 111
8, 723840, Note_off_c, 6, 57, 80
8, 723840, Note_on_c, 6, 56, 111
8, 724224, Note_off_c, 6, 56, 80
8, 724224, Note_on_c, 6, 55, 111
8, 724608, Note_off_c, 6, 55, 80
8, 724608, Note_on_c, 6, 54, 111
8, 724992, Note_off_c, 6, 54, 80
8, 724992, Note_on_c, 6, 53, 111
8, 726528, Note_off_c, 6, 53, 80
8, 726528, Note_on_c, 6, 50, 111
8, 726912, Note_off_c, 6, 50, 80
8, 726912, Note_on_c, 6, 48, 111
8, 727296, Note_off_c, 6, 48, 80
8, 727296, Note_on_c, 6, 50, 111
8, 731136, Note_off_c, 6, 50, 80
8, 731136, Note_on_c, 6, 54, 111
8, 731520, Note_off_c, 6, 54, 80
8, 731520, Note_on_c, 6, 48, 111
8, 731904, Note_off_c, 6, 48, 80
8, 731904, Note_on_c, 6, 51, 111
8, 732288, Note_off_c, 6, 51, 80
8, 732288, Note_on_c, 6, 54, 111
8, 732672, Note_off_c, 6, 54, 80
8, 732672, Note_on_c, 6, 57, 111
8, 733056, Note_off_c, 6, 57, 80
8, 733056, Note_on_c, 6, 51, 111
8, 733440, Note_off_c, 6, 51, 80
8, 733440, Note_on_c, 6, 54, 111
8, 733824, Note_off_c, 6, 54, 80
8, 733824, Note_on_c, 6, 57, 111
8, 734208, Note_off_c, 6, 57, 80
8, 734208, Note_on_c, 6, 60, 111
8, 734592, Note_off_c, 6, 60, 80
8, 734592, Note_on_c, 6, 54, 111
8, 734976, Note_off_c, 6, 54, 80
8, 734976, Note_on_c, 6, 57, 111
8, 735360, Note_off_c, 6, 57, 80
8, 735360, Note_on_c, 6, 60, 111
8, 735744, Note_off_c, 6, 60, 80
8, 735744, Note_on_c, 6, 57, 111
8, 736128, Note_off_c, 6, 57, 80
8, 736128, Note_on_c, 6, 51, 111
8, 736512, Note_off_c, 6, 51, 80
8, 736512, Note_on_c, 6, 54, 111
8, 736896, Note_off_c, 6, 54, 80
8, 736896, Note_on_c, 6, 57, 111
8, 737280, Note_off_c, 6, 57, 80
8, 737280, Note_on_c, 6, 55, 111
8, 738048, Pitch_bend_c, 6, 7552
8, 738374, Pitch_bend_c, 6, 6784
8, 738707, Pitch_bend_c, 6, 6144
8, 739033, Pitch_bend_c, 6, 5504
8, 739366, Pitch_bend_c, 6, 4736
8, 739692, Pitch_bend_c, 6, 4096
8, 740025, Pitch_bend_c, 6, 3456
8, 740352, Note_off_c, 6, 55, 80
8, 740352, Pitch_bend_c, 6, 8192
8, 749568, End_track
0, 0, End_of_file
