0, 0, Header, 1, 17, 480
1, 0, Start_track
1, 0, Title_t, "From the Film - ""Love Story""."
1, 0, Tempo, 750000
1, 0, Time_signature, 4, 2, 24, 8
1, 0, Key_signature, 0, "major"
1, 11520, Time_signature, 2, 2, 24, 8
1, 12480, Time_signature, 4, 2, 24, 8
1, 112320, Tempo, 769231
1, 112800, Tempo, 779221
1, 113040, Tempo, 800000
1, 113280, Tempo, 833333
1, 113760, Tempo, 895522
1, 114240, Tempo, 967742
1, 114720, Tempo, 1276596
1, 115200, Tempo, 750000
1, 115200, End_track
2, 0, Start_track
2, 0, Title_t, "Soft karaoke"
2, 0, Text_t, "@KMIDI KARAOKE FILE"
2, 0, End_track
3, 0, Start_track
3, 0, Title_t, "Words"
3, 0, Text_t, "@LENGL"
3, 0, Text_t, "@TLove Story - Andy Williams."
3, 0, Text_t, "@TKar - Bunty Pritchard Jones. Apr.2000."
3, 16320, Text_t, "\\Where"
3, 16560, Text_t, " do"
3, 16800, Text_t, " I"
3, 17040, Text_t, " be"
3, 17280, Text_t, "gin,"
3, 18480, Text_t, "/To"
3, 18720, Text_t, " tell"
3, 18960, Text_t, " the"
3, 19200, Text_t, " sto"
3, 19440, Text_t, "ry"
3, 19680, Text_t, " of"
3, 19920, Text_t, " how"
3, 20160, Text_t, " great"
3, 20400, Text_t, " a"
3, 20640, Text_t, " love"
3, 20880, Text_t, " can"
3, 21120, Text_t, " be?"
3, 22320, Text_t, "\\The"
3, 22560, Text_t, " sweet"
3, 22800, Text_t, " love"
3, 23040, Text_t, " sto"
3, 23280, Text_t, "ry,"
3, 23520, Text_t, " that"
3, 23760, Text_t, " is"
3, 24000, Text_t, " old"
3, 24240, Text_t, "er"
3, 24480, Text_t, " than"
3, 24720, Text_t, " the"
3, 24960, Text_t, " sea,"
3, 26160, Text_t, "/The"
3, 26400, Text_t, " sim"
3, 26640, Text_t, "ple"
3, 26880, Text_t, " truth"
3, 27120, Text_t, " a"
3, 27360, Text_t, "bout"
3, 27600, Text_t, " the"
3, 27840, Text_t, " love"
3, 28080, Text_t, " she"
3, 28320, Text_t, " brings"
3, 28560, Text_t, " to"
3, 28800, Text_t, " me."
3, 30480, Text_t, "/Where"
3, 30720, Text_t, " do"
3, 31200, Text_t, " I"
3, 31680, Text_t, " start?"
3, 35520, Text_t, "\\With"
3, 35760, Text_t, " her"
3, 36000, Text_t, " first"
3, 36240, Text_t, " hel"
3, 36480, Text_t, "lo,"
3, 37680, Text_t, "/She"
3, 37920, Text_t, " gave"
3, 38160, Text_t, " new"
3, 38400, Text_t, " mean"
3, 38640, Text_t, "ing"
3, 38880, Text_t, " to"
3, 39120, Text_t, " this"
3, 39360, Text_t, " emp"
3, 39600, Text_t, "ty"
3, 39840, Text_t, " world"
3, 40080, Text_t, " of"
3, 40320, Text_t, " mine."
3, 41520, Text_t, "\\There\222d"
3, 41760, Text_t, " nev"
3, 42000, Text_t, "er"
3, 42240, Text_t, " be"
3, 42480, Text_t, " an"
3, 42720, Text_t, "oth"
3, 42960, Text_t, "er"
3, 43200, Text_t, " love,"
3, 43440, Text_t, " an"
3, 43680, Text_t, "oth"
3, 43920, Text_t, "er"
3, 44160, Text_t, " time,"
3, 45360, Text_t, "/She"
3, 45600, Text_t, " came"
3, 45840, Text_t, " in"
3, 46080, Text_t, "to"
3, 46320, Text_t, " my"
3, 46560, Text_t, " life"
3, 46800, Text_t, " and"
3, 47040, Text_t, " made"
3, 47280, Text_t, " the"
3, 47520, Text_t, " liv"
3, 47760, Text_t, "ing"
3, 48000, Text_t, " fine,"
3, 49680, Text_t, "/She"
3, 49920, Text_t, " fills"
3, 50400, Text_t, " my"
3, 50880, Text_t, " heart."
3, 53280, Text_t, "\\She"
3, 53760, Text_t, " fills"
3, 54480, Text_t, " my"
3, 54720, Text_t, " heart,"
3, 55920, Text_t, " with"
3, 56160, Text_t, " ve"
3, 56400, Text_t, "ry"
3, 56640, Text_t, " spe"
3, 56880, Text_t, "cial"
3, 57120, Text_t, " things,"
3, 57840, Text_t, "/With"
3, 58080, Text_t, " an"
3, 58320, Text_t, "gels\222"
3, 58560, Text_t, " songs,"
3, 59760, Text_t, " with"
3, 60000, Text_t, " wild"
3, 60240, Text_t, " im"
3, 60480, Text_t, "ag"
3, 60720, Text_t, "in"
3, 60960, Text_t, "ings."
3, 61680, Text_t, "\\She"
3, 61920, Text_t, " fills"
3, 62160, Text_t, " my"
3, 62400, Text_t, " soul,"
3, 63600, Text_t, " with"
3, 63840, Text_t, " so"
3, 64080, Text_t, " much"
3, 64320, Text_t, " love,"
3, 65040, Text_t, "/That"
3, 65280, Text_t, " a"
3, 65520, Text_t, "ny"
3, 65760, Text_t, "where"
3, 66000, Text_t, " I"
3, 66240, Text_t, " go,"
3, 67440, Text_t, " I\222m"
3, 67680, Text_t, " nev"
3, 67920, Text_t, "er"
3, 68160, Text_t, " lone"
3, 68640, Text_t, "ly."
3, 69360, Text_t, "\\With"
3, 69600, Text_t, " her"
3, 69840, Text_t, " a"
3, 70080, Text_t, "round,"
3, 71280, Text_t, " who"
3, 71520, Text_t, " could"
3, 71760, Text_t, " be"
3, 72000, Text_t, " lone"
3, 72480, Text_t, "ly?"
3, 73200, Text_t, "/I"
3, 73440, Text_t, " reach"
3, 73680, Text_t, " for"
3, 73920, Text_t, " her"
3, 74160, Text_t, " hand"
3, 75120, Text_t, " it\222s"
3, 75360, Text_t, " al"
3, 75600, Text_t, "ways"
3, 75840, Text_t, " there."
3, 79680, Text_t, "\\How"
3, 79920, Text_t, " long"
3, 80160, Text_t, " does"
3, 80400, Text_t, " it"
3, 80640, Text_t, " last,"
3, 81840, Text_t, "/Can"
3, 82080, Text_t, " love"
3, 82320, Text_t, " be"
3, 82560, Text_t, " mea"
3, 82800, Text_t, "sured"
3, 83040, Text_t, " by"
3, 83280, Text_t, " the"
3, 83520, Text_t, " hou"
3, 83760, Text_t, "rs"
3, 84000, Text_t, " in"
3, 84240, Text_t, " a"
3, 84480, Text_t, " day?"
3, 85680, Text_t, "\\I"
3, 85920, Text_t, " have"
3, 86160, Text_t, " no"
3, 86400, Text_t, " an"
3, 86640, Text_t, "swers"
3, 86880, Text_t, " now,"
3, 87120, Text_t, " but"
3, 87360, Text_t, " this"
3, 87600, Text_t, " much"
3, 87840, Text_t, " I"
3, 88080, Text_t, " can"
3, 88320, Text_t, " say,"
3, 89520, Text_t, "/I"
3, 89760, Text_t, " know"
3, 90000, Text_t, " I\222ll"
3, 90240, Text_t, " need"
3, 90480, Text_t, " her,"
3, 90720, Text_t, " till"
3, 90960, Text_t, " the"
3, 91200, Text_t, " stars"
3, 91440, Text_t, " all"
3, 91680, Text_t, " burn"
3, 91920, Text_t, " a"
3, 92160, Text_t, "way,"
3, 93840, Text_t, "/And"
3, 94080, Text_t, " she\222ll"
3, 94560, Text_t, " be"
3, 95040, Text_t, " there."
3, 99600, Text_t, "\\How"
3, 99840, Text_t, " long"
3, 100320, Text_t, " does"
3, 100560, Text_t, " it last,"
3, 101040, Text_t, "/Can"
3, 101280, Text_t, " love"
3, 101520, Text_t, " be"
3, 101760, Text_t, " mea"
3, 102000, Text_t, "sured"
3, 102240, Text_t, " by"
3, 102480, Text_t, " the"
3, 102720, Text_t, " hou"
3, 102960, Text_t, "rs"
3, 103200, Text_t, " in"
3, 103320, Text_t, " a"
3, 103440, Text_t, " day?"
3, 104880, Text_t, "\\I"
3, 105120, Text_t, " have"
3, 105360, Text_t, " no"
3, 105600, Text_t, " an"
3, 105840, Text_t, "swers"
3, 106080, Text_t, " now,"
3, 106320, Text_t, " but"
3, 106560, Text_t, " this"
3, 106800, Text_t, " much"
3, 107040, Text_t, " I"
3, 107280, Text_t, " can"
3, 107520, Text_t, " say,"
3, 108720, Text_t, "/I"
3, 108960, Text_t, " know"
3, 109200, Text_t, " I\222ll"
3, 109440, Text_t, " need"
3, 109680, Text_t, " her,"
3, 109920, Text_t, " till"
3, 110160, Text_t, " the"
3, 110400, Text_t, " stars"
3, 110640, Text_t, " all"
3, 111120, Text_t, " burn"
3, 111240, Text_t, " a"
3, 111360, Text_t, "way,"
3, 112800, Text_t, "/And"
3, 113280, Text_t, " she\222ll"
3, 113760, Text_t, " be"
3, 114240, Text_t, " there."
3, 114240, End_track
4, 0, Start_track
4, 0, Title_t, "Nelody"
4, 0, MIDI_port, 0
4, 0, Channel_prefix, 0
4, 0, Control_c, 0, 7, 90
4, 0, Control_c, 0, 10, 64
4, 0, Program_c, 0, 71
4, 500, Control_c, 0, 101, 0
4, 508, Control_c, 0, 100, 0
4, 520, Control_c, 0, 6, 12
4, 528, Control_c, 0, 91, 110
4, 540, Control_c, 0, 93, 10
4, 568, Control_c, 0, 11, 127
4, 16320, Note_on_c, 0, 73, 88
4, 16528, Note_off_c, 0, 73, 64
4, 16560, Note_on_c, 0, 65, 88
4, 16768, Note_off_c, 0, 65, 64
4, 16800, Note_on_c, 0, 65, 88
4, 17008, Note_off_c, 0, 65, 64
4, 17040, Note_on_c, 0, 73, 88
4, 17248, Note_off_c, 0, 73, 64
4, 17280, Note_on_c, 0, 73, 88
4, 18180, Note_off_c, 0, 73, 64
4, 18480, Note_on_c, 0, 65, 88
4, 18688, Note_off_c, 0, 65, 64
4, 18720, Note_on_c, 0, 65, 88
4, 18928, Note_off_c, 0, 65, 64
4, 18960, Note_on_c, 0, 73, 88
4, 19168, Note_off_c, 0, 73, 64
4, 19200, Note_on_c, 0, 73, 88
4, 19408, Note_off_c, 0, 73, 64
4, 19440, Note_on_c, 0, 65, 88
4, 19648, Note_off_c, 0, 65, 64
4, 19680, Note_on_c, 0, 66, 88
4, 19888, Note_off_c, 0, 66, 64
4, 19920, Note_on_c, 0, 65, 88
4, 20128, Note_off_c, 0, 65, 64
4, 20160, Note_on_c, 0, 63, 88
4, 20368, Note_off_c, 0, 63, 64
4, 20400, Note_on_c, 0, 63, 88
4, 20608, Note_off_c, 0, 63, 64
4, 20640, Note_on_c, 0, 63, 88
4, 20848, Note_off_c, 0, 63, 64
4, 20880, Note_on_c, 0, 72, 88
4, 21088, Note_off_c, 0, 72, 64
4, 21120, Note_on_c, 0, 72, 88
4, 22020, Note_off_c, 0, 72, 64
4, 22320, Note_on_c, 0, 63, 88
4, 22528, Note_off_c, 0, 63, 64
4, 22560, Note_on_c, 0, 63, 88
4, 22768, Note_off_c, 0, 63, 64
4, 22800, Note_on_c, 0, 72, 88
4, 23008, Note_off_c, 0, 72, 64
4, 23040, Note_on_c, 0, 72, 88
4, 23248, Note_off_c, 0, 72, 64
4, 23280, Note_on_c, 0, 63, 88
4, 23488, Note_off_c, 0, 63, 64
4, 23520, Note_on_c, 0, 65, 88
4, 23728, Note_off_c, 0, 65, 64
4, 23760, Note_on_c, 0, 63, 88
4, 23968, Note_off_c, 0, 63, 64
4, 24000, Note_on_c, 0, 61, 88
4, 24208, Note_off_c, 0, 61, 64
4, 24240, Note_on_c, 0, 61, 88
4, 24448, Note_off_c, 0, 61, 64
4, 24480, Note_on_c, 0, 61, 88
4, 24688, Note_off_c, 0, 61, 64
4, 24720, Note_on_c, 0, 70, 88
4, 24928, Note_off_c, 0, 70, 64
4, 24960, Note_on_c, 0, 70, 88
4, 25860, Note_off_c, 0, 70, 64
4, 26160, Note_on_c, 0, 61, 88
4, 26368, Note_off_c, 0, 61, 64
4, 26400, Note_on_c, 0, 61, 88
4, 26608, Note_off_c, 0, 61, 64
4, 26640, Note_on_c, 0, 70, 88
4, 26848, Note_off_c, 0, 70, 64
4, 26880, Note_on_c, 0, 70, 88
4, 27088, Note_off_c, 0, 70, 64
4, 27120, Note_on_c, 0, 61, 88
4, 27328, Note_off_c, 0, 61, 64
4, 27360, Note_on_c, 0, 63, 88
4, 27568, Note_off_c, 0, 63, 64
4, 27600, Note_on_c, 0, 61, 88
4, 27808, Note_off_c, 0, 61, 64
4, 27840, Note_on_c, 0, 60, 88
4, 28048, Note_off_c, 0, 60, 64
4, 28080, Note_on_c, 0, 60, 88
4, 28288, Note_off_c, 0, 60, 64
4, 28320, Note_on_c, 0, 60, 88
4, 28528, Note_off_c, 0, 60, 64
4, 28560, Note_on_c, 0, 69, 88
4, 28768, Note_off_c, 0, 69, 64
4, 28800, Note_on_c, 0, 69, 88
4, 29700, Note_off_c, 0, 69, 64
4, 30480, Note_on_c, 0, 70, 88
4, 30688, Note_off_c, 0, 70, 64
4, 30720, Note_on_c, 0, 72, 88
4, 31140, Note_off_c, 0, 72, 64
4, 31200, Note_on_c, 0, 66, 88
4, 31620, Note_off_c, 0, 66, 64
4, 31680, Note_on_c, 0, 65, 88
4, 34388, Note_off_c, 0, 65, 64
4, 35520, Note_on_c, 0, 73, 88
4, 35728, Note_off_c, 0, 73, 64
4, 35760, Note_on_c, 0, 65, 88
4, 35968, Note_off_c, 0, 65, 64
4, 36000, Note_on_c, 0, 65, 88
4, 36208, Note_off_c, 0, 65, 64
4, 36240, Note_on_c, 0, 73, 88
4, 36448, Note_off_c, 0, 73, 64
4, 36480, Note_on_c, 0, 73, 88
4, 37380, Note_off_c, 0, 73, 64
4, 37680, Note_on_c, 0, 65, 88
4, 37888, Note_off_c, 0, 65, 64
4, 37920, Note_on_c, 0, 65, 88
4, 38128, Note_off_c, 0, 65, 64
4, 38160, Note_on_c, 0, 73, 88
4, 38368, Note_off_c, 0, 73, 64
4, 38400, Note_on_c, 0, 73, 88
4, 38608, Note_off_c, 0, 73, 64
4, 38640, Note_on_c, 0, 65, 88
4, 38848, Note_off_c, 0, 65, 64
4, 38880, Note_on_c, 0, 66, 88
4, 39088, Note_off_c, 0, 66, 64
4, 39120, Note_on_c, 0, 65, 88
4, 39328, Note_off_c, 0, 65, 64
4, 39360, Note_on_c, 0, 63, 88
4, 39568, Note_off_c, 0, 63, 64
4, 39600, Note_on_c, 0, 63, 88
4, 39808, Note_off_c, 0, 63, 64
4, 39840, Note_on_c, 0, 63, 88
4, 40048, Note_off_c, 0, 63, 64
4, 40080, Note_on_c, 0, 72, 88
4, 40288, Note_off_c, 0, 72, 64
4, 40320, Note_on_c, 0, 72, 88
4, 41220, Note_off_c, 0, 72, 64
4, 41520, Note_on_c, 0, 63, 88
4, 41728, Note_off_c, 0, 63, 64
4, 41760, Note_on_c, 0, 63, 88
4, 41968, Note_off_c, 0, 63, 64
4, 42000, Note_on_c, 0, 72, 88
4, 42208, Note_off_c, 0, 72, 64
4, 42240, Note_on_c, 0, 72, 88
4, 42448, Note_off_c, 0, 72, 64
4, 42480, Note_on_c, 0, 63, 88
4, 42688, Note_off_c, 0, 63, 64
4, 42720, Note_on_c, 0, 65, 88
4, 42928, Note_off_c, 0, 65, 64
4, 42960, Note_on_c, 0, 63, 88
4, 43168, Note_off_c, 0, 63, 64
4, 43200, Note_on_c, 0, 61, 88
4, 43408, Note_off_c, 0, 61, 64
4, 43440, Note_on_c, 0, 61, 88
4, 43648, Note_off_c, 0, 61, 64
4, 43680, Note_on_c, 0, 61, 88
4, 43888, Note_off_c, 0, 61, 64
4, 43920, Note_on_c, 0, 70, 88
4, 44128, Note_off_c, 0, 70, 64
4, 44160, Note_on_c, 0, 70, 88
4, 45060, Note_off_c, 0, 70, 64
4, 45360, Note_on_c, 0, 61, 88
4, 45568, Note_off_c, 0, 61, 64
4, 45600, Note_on_c, 0, 61, 88
4, 45808, Note_off_c, 0, 61, 64
4, 45840, Note_on_c, 0, 70, 88
4, 46048, Note_off_c, 0, 70, 64
4, 46080, Note_on_c, 0, 70, 88
4, 46288, Note_off_c, 0, 70, 64
4, 46320, Note_on_c, 0, 61, 88
4, 46528, Note_off_c, 0, 61, 64
4, 46560, Note_on_c, 0, 63, 88
4, 46768, Note_off_c, 0, 63, 64
4, 46800, Note_on_c, 0, 61, 88
4, 47008, Note_off_c, 0, 61, 64
4, 47040, Note_on_c, 0, 60, 88
4, 47248, Note_off_c, 0, 60, 64
4, 47280, Note_on_c, 0, 60, 88
4, 47488, Note_off_c, 0, 60, 64
4, 47520, Note_on_c, 0, 60, 88
4, 47728, Note_off_c, 0, 60, 64
4, 47760, Note_on_c, 0, 69, 88
4, 47968, Note_off_c, 0, 69, 64
4, 48000, Note_on_c, 0, 69, 88
4, 48900, Note_off_c, 0, 69, 64
4, 49680, Note_on_c, 0, 70, 88
4, 49888, Note_off_c, 0, 70, 64
4, 49920, Note_on_c, 0, 72, 88
4, 50340, Note_off_c, 0, 72, 64
4, 50400, Note_on_c, 0, 69, 88
4, 50820, Note_off_c, 0, 69, 64
4, 50880, Note_on_c, 0, 74, 88
4, 53060, Note_off_c, 0, 74, 64
4, 53280, Note_on_c, 0, 75, 88
4, 53700, Note_off_c, 0, 75, 64
4, 53760, Note_on_c, 0, 77, 88
4, 54400, Note_off_c, 0, 77, 64
4, 54480, Note_on_c, 0, 70, 88
4, 54688, Note_off_c, 0, 70, 64
4, 54720, Note_on_c, 0, 78, 88
4, 55828, Note_off_c, 0, 78, 64
4, 55920, Note_on_c, 0, 70, 88
4, 56128, Note_off_c, 0, 70, 64
4, 56160, Note_on_c, 0, 75, 88
4, 56368, Note_off_c, 0, 75, 64
4, 56400, Note_on_c, 0, 70, 88
4, 56608, Note_off_c, 0, 70, 64
4, 56640, Note_on_c, 0, 70, 88
4, 56848, Note_off_c, 0, 70, 64
4, 56880, Note_on_c, 0, 72, 88
4, 57088, Note_off_c, 0, 72, 64
4, 57120, Note_on_c, 0, 72, 88
4, 57760, Note_off_c, 0, 72, 64
4, 57840, Note_on_c, 0, 75, 88
4, 58048, Note_off_c, 0, 75, 64
4, 58080, Note_on_c, 0, 78, 88
4, 58288, Note_off_c, 0, 78, 64
4, 58320, Note_on_c, 0, 75, 88
4, 58528, Note_off_c, 0, 75, 64
4, 58560, Note_on_c, 0, 77, 88
4, 59668, Note_off_c, 0, 77, 64
4, 59760, Note_on_c, 0, 68, 88
4, 59968, Note_off_c, 0, 68, 64
4, 60000, Note_on_c, 0, 77, 88
4, 60208, Note_off_c, 0, 77, 64
4, 60240, Note_on_c, 0, 68, 88
4, 60448, Note_off_c, 0, 68, 64
4, 60480, Note_on_c, 0, 68, 88
4, 60688, Note_off_c, 0, 68, 64
4, 60720, Note_on_c, 0, 70, 88
4, 60928, Note_off_c, 0, 70, 64
4, 60960, Note_on_c, 0, 70, 88
4, 61600, Note_off_c, 0, 70, 64
4, 61680, Note_on_c, 0, 73, 88
4, 61888, Note_off_c, 0, 73, 64
4, 61920, Note_on_c, 0, 77, 88
4, 62128, Note_off_c, 0, 77, 64
4, 62160, Note_on_c, 0, 73, 88
4, 62368, Note_off_c, 0, 73, 64
4, 62400, Note_on_c, 0, 75, 88
4, 63508, Note_off_c, 0, 75, 64
4, 63600, Note_on_c, 0, 72, 88
4, 63808, Note_off_c, 0, 72, 64
4, 63840, Note_on_c, 0, 75, 88
4, 64048, Note_off_c, 0, 75, 64
4, 64080, Note_on_c, 0, 72, 88
4, 64288, Note_off_c, 0, 72, 64
4, 64320, Note_on_c, 0, 73, 88
4, 64960, Note_off_c, 0, 73, 64
4, 65040, Note_on_c, 0, 75, 88
4, 65248, Note_off_c, 0, 75, 64
4, 65280, Note_on_c, 0, 77, 88
4, 65488, Note_off_c, 0, 77, 64
4, 65520, Note_on_c, 0, 70, 88
4, 65728, Note_off_c, 0, 70, 64
4, 65760, Note_on_c, 0, 74, 88
4, 65968, Note_off_c, 0, 74, 64
4, 66000, Note_on_c, 0, 77, 88
4, 66208, Note_off_c, 0, 77, 64
4, 66240, Note_on_c, 0, 78, 88
4, 67348, Note_off_c, 0, 78, 64
4, 67440, Note_on_c, 0, 68, 88
4, 67648, Note_off_c, 0, 68, 64
4, 67680, Note_on_c, 0, 68, 88
4, 67888, Note_off_c, 0, 68, 64
4, 67920, Note_on_c, 0, 73, 88
4, 68128, Note_off_c, 0, 73, 64
4, 68160, Note_on_c, 0, 73, 88
4, 68368, Note_off_c, 0, 73, 64
4, 68400, Note_on_c, 0, 72, 88
4, 68608, Note_off_c, 0, 72, 64
4, 68640, Note_on_c, 0, 72, 88
4, 69280, Note_off_c, 0, 72, 64
4, 69360, Note_on_c, 0, 73, 88
4, 69568, Note_off_c, 0, 73, 64
4, 69600, Note_on_c, 0, 75, 88
4, 69808, Note_off_c, 0, 75, 64
4, 69840, Note_on_c, 0, 68, 88
4, 70048, Note_off_c, 0, 68, 64
4, 70080, Note_on_c, 0, 65, 88
4, 71188, Note_off_c, 0, 65, 64
4, 71280, Note_on_c, 0, 63, 88
4, 71488, Note_off_c, 0, 63, 64
4, 71520, Note_on_c, 0, 66, 88
4, 71728, Note_off_c, 0, 66, 64
4, 71760, Note_on_c, 0, 68, 88
4, 71968, Note_off_c, 0, 68, 64
4, 72000, Note_on_c, 0, 72, 88
4, 72420, Note_off_c, 0, 72, 64
4, 72480, Note_on_c, 0, 70, 88
4, 73120, Note_off_c, 0, 70, 64
4, 73200, Note_on_c, 0, 70, 88
4, 73408, Note_off_c, 0, 70, 64
4, 73440, Note_on_c, 0, 68, 88
4, 73648, Note_off_c, 0, 68, 64
4, 73680, Note_on_c, 0, 66, 88
4, 73888, Note_off_c, 0, 66, 64
4, 73920, Note_on_c, 0, 65, 88
4, 74128, Note_off_c, 0, 65, 64
4, 74160, Note_on_c, 0, 64, 88
4, 75020, Note_off_c, 0, 64, 64
4, 75120, Note_on_c, 0, 67, 88
4, 75328, Note_off_c, 0, 67, 64
4, 75360, Note_on_c, 0, 70, 88
4, 75568, Note_off_c, 0, 70, 64
4, 75600, Note_on_c, 0, 67, 88
4, 75808, Note_off_c, 0, 67, 64
4, 75840, Note_on_c, 0, 69, 88
4, 79220, Note_off_c, 0, 69, 64
4, 79680, Note_on_c, 0, 73, 88
4, 79888, Note_off_c, 0, 73, 64
4, 79920, Note_on_c, 0, 65, 88
4, 80128, Note_off_c, 0, 65, 64
4, 80160, Note_on_c, 0, 65, 88
4, 80368, Note_off_c, 0, 65, 64
4, 80400, Note_on_c, 0, 73, 88
4, 80608, Note_off_c, 0, 73, 64
4, 80640, Note_on_c, 0, 73, 88
4, 81540, Note_off_c, 0, 73, 64
4, 81840, Note_on_c, 0, 65, 88
4, 82048, Note_off_c, 0, 65, 64
4, 82080, Note_on_c, 0, 65, 88
4, 82288, Note_off_c, 0, 65, 64
4, 82320, Note_on_c, 0, 73, 88
4, 82528, Note_off_c, 0, 73, 64
4, 82560, Note_on_c, 0, 73, 88
4, 82768, Note_off_c, 0, 73, 64
4, 82800, Note_on_c, 0, 65, 88
4, 83008, Note_off_c, 0, 65, 64
4, 83040, Note_on_c, 0, 66, 88
4, 83248, Note_off_c, 0, 66, 64
4, 83280, Note_on_c, 0, 65, 88
4, 83488, Note_off_c, 0, 65, 64
4, 83520, Note_on_c, 0, 63, 88
4, 83728, Note_off_c, 0, 63, 64
4, 83760, Note_on_c, 0, 63, 88
4, 83968, Note_off_c, 0, 63, 64
4, 84000, Note_on_c, 0, 63, 88
4, 84208, Note_off_c, 0, 63, 64
4, 84240, Note_on_c, 0, 72, 88
4, 84448, Note_off_c, 0, 72, 64
4, 84480, Note_on_c, 0, 72, 88
4, 85380, Note_off_c, 0, 72, 64
4, 85680, Note_on_c, 0, 63, 88
4, 85888, Note_off_c, 0, 63, 64
4, 85920, Note_on_c, 0, 63, 88
4, 86128, Note_off_c, 0, 63, 64
4, 86160, Note_on_c, 0, 72, 88
4, 86368, Note_off_c, 0, 72, 64
4, 86400, Note_on_c, 0, 72, 88
4, 86608, Note_off_c, 0, 72, 64
4, 86640, Note_on_c, 0, 63, 88
4, 86848, Note_off_c, 0, 63, 64
4, 86880, Note_on_c, 0, 65, 88
4, 87088, Note_off_c, 0, 65, 64
4, 87120, Note_on_c, 0, 63, 88
4, 87328, Note_off_c, 0, 63, 64
4, 87360, Note_on_c, 0, 61, 88
4, 87568, Note_off_c, 0, 61, 64
4, 87600, Note_on_c, 0, 61, 88
4, 87808, Note_off_c, 0, 61, 64
4, 87840, Note_on_c, 0, 61, 88
4, 88048, Note_off_c, 0, 61, 64
4, 88080, Note_on_c, 0, 70, 88
4, 88288, Note_off_c, 0, 70, 64
4, 88320, Note_on_c, 0, 70, 88
4, 89220, Note_off_c, 0, 70, 64
4, 89520, Note_on_c, 0, 61, 88
4, 89728, Note_off_c, 0, 61, 64
4, 89760, Note_on_c, 0, 61, 88
4, 89968, Note_off_c, 0, 61, 64
4, 90000, Note_on_c, 0, 70, 88
4, 90208, Note_off_c, 0, 70, 64
4, 90240, Note_on_c, 0, 70, 88
4, 90448, Note_off_c, 0, 70, 64
4, 90480, Note_on_c, 0, 61, 88
4, 90688, Note_off_c, 0, 61, 64
4, 90720, Note_on_c, 0, 63, 88
4, 90928, Note_off_c, 0, 63, 64
4, 90960, Note_on_c, 0, 61, 88
4, 91168, Note_off_c, 0, 61, 64
4, 91200, Note_on_c, 0, 60, 88
4, 91408, Note_off_c, 0, 60, 64
4, 91440, Note_on_c, 0, 60, 88
4, 91648, Note_off_c, 0, 60, 64
4, 91680, Note_on_c, 0, 60, 88
4, 91888, Note_off_c, 0, 60, 64
4, 91920, Note_on_c, 0, 69, 88
4, 92128, Note_off_c, 0, 69, 64
4, 92160, Note_on_c, 0, 69, 88
4, 93060, Note_off_c, 0, 69, 64
4, 93840, Note_on_c, 0, 70, 88
4, 94048, Note_off_c, 0, 70, 64
4, 94080, Note_on_c, 0, 72, 88
4, 94500, Note_off_c, 0, 72, 64
4, 94560, Note_on_c, 0, 66, 88
4, 94980, Note_off_c, 0, 66, 64
4, 95040, Note_on_c, 0, 65, 88
4, 96848, Note_off_c, 0, 65, 64
4, 99600, Note_on_c, 0, 78, 88
4, 99808, Note_off_c, 0, 78, 64
4, 99840, Note_on_c, 0, 79, 88
4, 100260, Note_off_c, 0, 79, 64
4, 100320, Note_on_c, 0, 78, 88
4, 100528, Note_off_c, 0, 78, 64
4, 100560, Note_on_c, 0, 78, 88
4, 100768, Note_off_c, 0, 78, 64
4, 101040, Note_on_c, 0, 78, 88
4, 101248, Note_off_c, 0, 78, 64
4, 101280, Note_on_c, 0, 79, 88
4, 101488, Note_off_c, 0, 79, 64
4, 101520, Note_on_c, 0, 78, 88
4, 101728, Note_off_c, 0, 78, 64
4, 101760, Note_on_c, 0, 79, 88
4, 101968, Note_off_c, 0, 79, 64
4, 102000, Note_on_c, 0, 78, 88
4, 102208, Note_off_c, 0, 78, 64
4, 102240, Note_on_c, 0, 79, 88
4, 102448, Note_off_c, 0, 79, 64
4, 102480, Note_on_c, 0, 78, 88
4, 102688, Note_off_c, 0, 78, 64
4, 102720, Note_on_c, 0, 76, 88
4, 102928, Note_off_c, 0, 76, 64
4, 102960, Note_on_c, 0, 76, 88
4, 103168, Note_off_c, 0, 76, 64
4, 103200, Note_on_c, 0, 76, 88
4, 103288, Note_off_c, 0, 76, 64
4, 103320, Note_on_c, 0, 78, 88
4, 103408, Note_off_c, 0, 78, 64
4, 103440, Note_on_c, 0, 76, 88
4, 104300, Note_off_c, 0, 76, 64
4, 104880, Note_on_c, 0, 76, 88
4, 105088, Note_off_c, 0, 76, 64
4, 105120, Note_on_c, 0, 76, 88
4, 105328, Note_off_c, 0, 76, 64
4, 105360, Note_on_c, 0, 78, 88
4, 105568, Note_off_c, 0, 78, 64
4, 105600, Note_on_c, 0, 79, 88
4, 105808, Note_off_c, 0, 79, 64
4, 105840, Note_on_c, 0, 78, 88
4, 106048, Note_off_c, 0, 78, 64
4, 106080, Note_on_c, 0, 76, 88
4, 106288, Note_off_c, 0, 76, 64
4, 106320, Note_on_c, 0, 73, 88
4, 106528, Note_off_c, 0, 73, 64
4, 106560, Note_on_c, 0, 74, 88
4, 106768, Note_off_c, 0, 74, 64
4, 106800, Note_on_c, 0, 74, 88
4, 107008, Note_off_c, 0, 74, 64
4, 107040, Note_on_c, 0, 74, 88
4, 107248, Note_off_c, 0, 74, 64
4, 107280, Note_on_c, 0, 76, 88
4, 107488, Note_off_c, 0, 76, 64
4, 107520, Note_on_c, 0, 74, 88
4, 108380, Note_off_c, 0, 74, 64
4, 108720, Note_on_c, 0, 74, 88
4, 108928, Note_off_c, 0, 74, 64
4, 108960, Note_on_c, 0, 74, 88
4, 109168, Note_off_c, 0, 74, 64
4, 109200, Note_on_c, 0, 76, 88
4, 109408, Note_off_c, 0, 76, 64
4, 109440, Note_on_c, 0, 78, 88
4, 109648, Note_off_c, 0, 78, 64
4, 109680, Note_on_c, 0, 76, 88
4, 109888, Note_off_c, 0, 76, 64
4, 109920, Note_on_c, 0, 74, 88
4, 110128, Note_off_c, 0, 74, 64
4, 110160, Note_on_c, 0, 71, 88
4, 110368, Note_off_c, 0, 71, 64
4, 110400, Note_on_c, 0, 73, 88
4, 110608, Note_off_c, 0, 73, 64
4, 110640, Note_on_c, 0, 73, 88
4, 111060, Note_off_c, 0, 73, 64
4, 111120, Note_on_c, 0, 73, 88
4, 111208, Note_off_c, 0, 73, 64
4, 111240, Note_on_c, 0, 74, 88
4, 111328, Note_off_c, 0, 74, 64
4, 111360, Note_on_c, 0, 73, 88
4, 112220, Note_off_c, 0, 73, 64
4, 112800, Note_on_c, 0, 73, 88
4, 113220, Note_off_c, 0, 73, 64
4, 113280, Note_on_c, 0, 76, 88
4, 113700, Note_off_c, 0, 76, 64
4, 113760, Note_on_c, 0, 79, 88
4, 114180, Note_off_c, 0, 79, 64
4, 114240, Note_on_c, 0, 78, 88
4, 114920, Note_off_c, 0, 78, 64
4, 114920, End_track
5, 0, Start_track
5, 0, Title_t, "Bass"
5, 0, MIDI_port, 0
5, 0, Channel_prefix, 1
5, 0, Control_c, 1, 7, 107
5, 0, Control_c, 1, 10, 64
5, 0, Program_c, 1, 33
5, 168, Control_c, 1, 11, 127
5, 180, Control_c, 1, 91, 0
5, 188, Control_c, 1, 93, 0
5, 3600, Note_on_c, 1, 29, 64
5, 3680, Note_off_c, 1, 29, 64
5, 3840, Note_on_c, 1, 34, 74
5, 5400, Note_off_c, 1, 34, 64
5, 5520, Note_on_c, 1, 29, 64
5, 5600, Note_off_c, 1, 29, 64
5, 5760, Note_on_c, 1, 34, 74
5, 7320, Note_off_c, 1, 34, 64
5, 7440, Note_on_c, 1, 29, 64
5, 7520, Note_off_c, 1, 29, 64
5, 7680, Note_on_c, 1, 30, 74
5, 10388, Note_off_c, 1, 30, 64
5, 12240, Note_on_c, 1, 29, 64
5, 12388, Note_off_c, 1, 29, 64
5, 12480, Note_on_c, 1, 34, 74
5, 13040, Note_off_c, 1, 34, 64
5, 13200, Note_on_c, 1, 34, 64
5, 13308, Note_off_c, 1, 34, 64
5, 13440, Note_on_c, 1, 34, 69
5, 14000, Note_off_c, 1, 34, 64
5, 14160, Note_on_c, 1, 29, 64
5, 14268, Note_off_c, 1, 29, 64
5, 14400, Note_on_c, 1, 34, 74
5, 14760, Note_off_c, 1, 34, 64
5, 14880, Note_on_c, 1, 34, 69
5, 15968, Note_off_c, 1, 34, 64
5, 16080, Note_on_c, 1, 29, 64
5, 16288, Note_off_c, 1, 29, 64
5, 16320, Note_on_c, 1, 34, 74
5, 16808, Note_off_c, 1, 34, 64
5, 17040, Note_on_c, 1, 34, 64
5, 17148, Note_off_c, 1, 34, 64
5, 17280, Note_on_c, 1, 34, 69
5, 17768, Note_off_c, 1, 34, 64
5, 18000, Note_on_c, 1, 29, 64
5, 18108, Note_off_c, 1, 29, 64
5, 18240, Note_on_c, 1, 34, 74
5, 18728, Note_off_c, 1, 34, 64
5, 18960, Note_on_c, 1, 34, 64
5, 19068, Note_off_c, 1, 34, 64
5, 19200, Note_on_c, 1, 34, 69
5, 19688, Note_off_c, 1, 34, 64
5, 19920, Note_on_c, 1, 34, 69
5, 20128, Note_off_c, 1, 34, 64
5, 20160, Note_on_c, 1, 33, 74
5, 20648, Note_off_c, 1, 33, 64
5, 20880, Note_on_c, 1, 33, 64
5, 20988, Note_off_c, 1, 33, 64
5, 21120, Note_on_c, 1, 33, 69
5, 21608, Note_off_c, 1, 33, 64
5, 21840, Note_on_c, 1, 33, 64
5, 21948, Note_off_c, 1, 33, 64
5, 22080, Note_on_c, 1, 33, 74
5, 22568, Note_off_c, 1, 33, 64
5, 22800, Note_on_c, 1, 33, 64
5, 22908, Note_off_c, 1, 33, 64
5, 23040, Note_on_c, 1, 33, 69
5, 23528, Note_off_c, 1, 33, 64
5, 23760, Note_on_c, 1, 33, 69
5, 23968, Note_off_c, 1, 33, 64
5, 24000, Note_on_c, 1, 34, 74
5, 24488, Note_off_c, 1, 34, 64
5, 24720, Note_on_c, 1, 34, 69
5, 24928, Note_off_c, 1, 34, 64
5, 24960, Note_on_c, 1, 34, 74
5, 25380, Note_off_c, 1, 34, 64
5, 25440, Note_on_c, 1, 32, 69
5, 25860, Note_off_c, 1, 32, 64
5, 25920, Note_on_c, 1, 30, 74
5, 26408, Note_off_c, 1, 30, 64
5, 26640, Note_on_c, 1, 30, 64
5, 26748, Note_off_c, 1, 30, 64
5, 26880, Note_on_c, 1, 30, 69
5, 27368, Note_off_c, 1, 30, 64
5, 27600, Note_on_c, 1, 30, 64
5, 27708, Note_off_c, 1, 30, 64
5, 27840, Note_on_c, 1, 29, 74
5, 28328, Note_off_c, 1, 29, 64
5, 28560, Note_on_c, 1, 29, 64
5, 28768, Note_off_c, 1, 29, 64
5, 28800, Note_on_c, 1, 29, 69
5, 29288, Note_off_c, 1, 29, 64
5, 29520, Note_on_c, 1, 29, 64
5, 29628, Note_off_c, 1, 29, 64
5, 29760, Note_on_c, 1, 29, 74
5, 30248, Note_off_c, 1, 29, 64
5, 30480, Note_on_c, 1, 29, 64
5, 30588, Note_off_c, 1, 29, 64
5, 30720, Note_on_c, 1, 29, 69
5, 31208, Note_off_c, 1, 29, 64
5, 31440, Note_on_c, 1, 29, 64
5, 31648, Note_off_c, 1, 29, 64
5, 31680, Note_on_c, 1, 34, 74
5, 32168, Note_off_c, 1, 34, 64
5, 32400, Note_on_c, 1, 34, 64
5, 32508, Note_off_c, 1, 34, 64
5, 32640, Note_on_c, 1, 34, 69
5, 33128, Note_off_c, 1, 34, 64
5, 33360, Note_on_c, 1, 29, 64
5, 33468, Note_off_c, 1, 29, 64
5, 33600, Note_on_c, 1, 34, 74
5, 34088, Note_off_c, 1, 34, 64
5, 34320, Note_on_c, 1, 34, 64
5, 34428, Note_off_c, 1, 34, 64
5, 34560, Note_on_c, 1, 34, 69
5, 35048, Note_off_c, 1, 34, 64
5, 35280, Note_on_c, 1, 29, 64
5, 35388, Note_off_c, 1, 29, 64
5, 35520, Note_on_c, 1, 34, 74
5, 36008, Note_off_c, 1, 34, 64
5, 36240, Note_on_c, 1, 34, 64
5, 36348, Note_off_c, 1, 34, 64
5, 36480, Note_on_c, 1, 34, 69
5, 36968, Note_off_c, 1, 34, 64
5, 37200, Note_on_c, 1, 29, 64
5, 37308, Note_off_c, 1, 29, 64
5, 37440, Note_on_c, 1, 34, 74
5, 37928, Note_off_c, 1, 34, 64
5, 38160, Note_on_c, 1, 34, 64
5, 38268, Note_off_c, 1, 34, 64
5, 38400, Note_on_c, 1, 34, 69
5, 38888, Note_off_c, 1, 34, 64
5, 39120, Note_on_c, 1, 34, 69
5, 39328, Note_off_c, 1, 34, 64
5, 39360, Note_on_c, 1, 33, 74
5, 39848, Note_off_c, 1, 33, 64
5, 40080, Note_on_c, 1, 33, 64
5, 40188, Note_off_c, 1, 33, 64
5, 40320, Note_on_c, 1, 33, 69
5, 40808, Note_off_c, 1, 33, 64
5, 41040, Note_on_c, 1, 33, 64
5, 41148, Note_off_c, 1, 33, 64
5, 41280, Note_on_c, 1, 33, 74
5, 41768, Note_off_c, 1, 33, 64
5, 42000, Note_on_c, 1, 33, 64
5, 42108, Note_off_c, 1, 33, 64
5, 42240, Note_on_c, 1, 33, 69
5, 42728, Note_off_c, 1, 33, 64
5, 42960, Note_on_c, 1, 33, 69
5, 43168, Note_off_c, 1, 33, 64
5, 43200, Note_on_c, 1, 34, 74
5, 43688, Note_off_c, 1, 34, 64
5, 43920, Note_on_c, 1, 34, 69
5, 44128, Note_off_c, 1, 34, 64
5, 44160, Note_on_c, 1, 34, 74
5, 44580, Note_off_c, 1, 34, 64
5, 44640, Note_on_c, 1, 32, 69
5, 45060, Note_off_c, 1, 32, 64
5, 45120, Note_on_c, 1, 30, 74
5, 45608, Note_off_c, 1, 30, 64
5, 45840, Note_on_c, 1, 30, 64
5, 45948, Note_off_c, 1, 30, 64
5, 46080, Note_on_c, 1, 30, 69
5, 46568, Note_off_c, 1, 30, 64
5, 46800, Note_on_c, 1, 30, 64
5, 46908, Note_off_c, 1, 30, 64
5, 47040, Note_on_c, 1, 29, 74
5, 47528, Note_off_c, 1, 29, 64
5, 47760, Note_on_c, 1, 29, 64
5, 47968, Note_off_c, 1, 29, 64
5, 48000, Note_on_c, 1, 29, 69
5, 48488, Note_off_c, 1, 29, 64
5, 48720, Note_on_c, 1, 29, 64
5, 48828, Note_off_c, 1, 29, 64
5, 48960, Note_on_c, 1, 29, 74
5, 49448, Note_off_c, 1, 29, 64
5, 49680, Note_on_c, 1, 29, 64
5, 49788, Note_off_c, 1, 29, 64
5, 49920, Note_on_c, 1, 29, 69
5, 50408, Note_off_c, 1, 29, 64
5, 50640, Note_on_c, 1, 29, 64
5, 50848, Note_off_c, 1, 29, 64
5, 50880, Note_on_c, 1, 34, 74
5, 51328, Note_off_c, 1, 34, 64
5, 51600, Note_on_c, 1, 34, 64
5, 51708, Note_off_c, 1, 34, 64
5, 51840, Note_on_c, 1, 34, 74
5, 52048, Note_off_c, 1, 34, 64
5, 52080, Note_on_c, 1, 34, 69
5, 52308, Note_off_c, 1, 34, 64
5, 52560, Note_on_c, 1, 34, 64
5, 52668, Note_off_c, 1, 34, 64
5, 52800, Note_on_c, 1, 34, 74
5, 53248, Note_off_c, 1, 34, 64
5, 53520, Note_on_c, 1, 34, 64
5, 53628, Note_off_c, 1, 34, 64
5, 53760, Note_on_c, 1, 34, 69
5, 54248, Note_off_c, 1, 34, 64
5, 54480, Note_on_c, 1, 34, 64
5, 54688, Note_off_c, 1, 34, 64
5, 54720, Note_on_c, 1, 39, 74
5, 55168, Note_off_c, 1, 39, 64
5, 55440, Note_on_c, 1, 39, 64
5, 55548, Note_off_c, 1, 39, 64
5, 55680, Note_on_c, 1, 39, 69
5, 56168, Note_off_c, 1, 39, 64
5, 56400, Note_on_c, 1, 39, 64
5, 56608, Note_off_c, 1, 39, 64
5, 56640, Note_on_c, 1, 32, 74
5, 57088, Note_off_c, 1, 32, 64
5, 57360, Note_on_c, 1, 32, 64
5, 57468, Note_off_c, 1, 32, 64
5, 57600, Note_on_c, 1, 32, 69
5, 58088, Note_off_c, 1, 32, 64
5, 58320, Note_on_c, 1, 32, 64
5, 58528, Note_off_c, 1, 32, 64
5, 58560, Note_on_c, 1, 37, 74
5, 59008, Note_off_c, 1, 37, 64
5, 59280, Note_on_c, 1, 37, 64
5, 59388, Note_off_c, 1, 37, 64
5, 59520, Note_on_c, 1, 37, 69
5, 60008, Note_off_c, 1, 37, 64
5, 60240, Note_on_c, 1, 37, 64
5, 60448, Note_off_c, 1, 37, 64
5, 60480, Note_on_c, 1, 30, 74
5, 60928, Note_off_c, 1, 30, 64
5, 61200, Note_on_c, 1, 30, 64
5, 61308, Note_off_c, 1, 30, 64
5, 61440, Note_on_c, 1, 30, 69
5, 61928, Note_off_c, 1, 30, 64
5, 62160, Note_on_c, 1, 30, 64
5, 62368, Note_off_c, 1, 30, 64
5, 62400, Note_on_c, 1, 39, 74
5, 62848, Note_off_c, 1, 39, 64
5, 63120, Note_on_c, 1, 39, 64
5, 63228, Note_off_c, 1, 39, 64
5, 63360, Note_on_c, 1, 39, 69
5, 63848, Note_off_c, 1, 39, 64
5, 64080, Note_on_c, 1, 39, 64
5, 64288, Note_off_c, 1, 39, 64
5, 64320, Note_on_c, 1, 34, 74
5, 64768, Note_off_c, 1, 34, 64
5, 65040, Note_on_c, 1, 34, 64
5, 65148, Note_off_c, 1, 34, 64
5, 65280, Note_on_c, 1, 34, 69
5, 65768, Note_off_c, 1, 34, 64
5, 66000, Note_on_c, 1, 34, 64
5, 66208, Note_off_c, 1, 34, 64
5, 66240, Note_on_c, 1, 39, 74
5, 66688, Note_off_c, 1, 39, 64
5, 66960, Note_on_c, 1, 39, 64
5, 67068, Note_off_c, 1, 39, 64
5, 67200, Note_on_c, 1, 39, 69
5, 67688, Note_off_c, 1, 39, 64
5, 67920, Note_on_c, 1, 39, 64
5, 68128, Note_off_c, 1, 39, 64
5, 68160, Note_on_c, 1, 32, 74
5, 68608, Note_off_c, 1, 32, 64
5, 68880, Note_on_c, 1, 32, 64
5, 68988, Note_off_c, 1, 32, 64
5, 69120, Note_on_c, 1, 32, 69
5, 69608, Note_off_c, 1, 32, 64
5, 69840, Note_on_c, 1, 32, 64
5, 70048, Note_off_c, 1, 32, 64
5, 70080, Note_on_c, 1, 37, 74
5, 70528, Note_off_c, 1, 37, 64
5, 70800, Note_on_c, 1, 37, 64
5, 70908, Note_off_c, 1, 37, 64
5, 71040, Note_on_c, 1, 37, 69
5, 71528, Note_off_c, 1, 37, 64
5, 71760, Note_on_c, 1, 37, 64
5, 71968, Note_off_c, 1, 37, 64
5, 72000, Note_on_c, 1, 30, 74
5, 72448, Note_off_c, 1, 30, 64
5, 72720, Note_on_c, 1, 30, 64
5, 72828, Note_off_c, 1, 30, 64
5, 72960, Note_on_c, 1, 30, 69
5, 73448, Note_off_c, 1, 30, 64
5, 73680, Note_on_c, 1, 30, 64
5, 73888, Note_off_c, 1, 30, 64
5, 73920, Note_on_c, 1, 36, 74
5, 74368, Note_off_c, 1, 36, 64
5, 74640, Note_on_c, 1, 36, 64
5, 74748, Note_off_c, 1, 36, 64
5, 74880, Note_on_c, 1, 36, 69
5, 75368, Note_off_c, 1, 36, 64
5, 75600, Note_on_c, 1, 36, 64
5, 75808, Note_off_c, 1, 36, 64
5, 75840, Note_on_c, 1, 29, 74
5, 76288, Note_off_c, 1, 29, 64
5, 76560, Note_on_c, 1, 29, 64
5, 76668, Note_off_c, 1, 29, 64
5, 76800, Note_on_c, 1, 29, 69
5, 77288, Note_off_c, 1, 29, 64
5, 77520, Note_on_c, 1, 29, 64
5, 77688, Note_off_c, 1, 29, 64
5, 77760, Note_on_c, 1, 29, 74
5, 78208, Note_off_c, 1, 29, 64
5, 78480, Note_on_c, 1, 29, 64
5, 78588, Note_off_c, 1, 29, 64
5, 78720, Note_on_c, 1, 29, 69
5, 79208, Note_off_c, 1, 29, 64
5, 79440, Note_on_c, 1, 29, 64
5, 79608, Note_off_c, 1, 29, 64
5, 79680, Note_on_c, 1, 34, 74
5, 80168, Note_off_c, 1, 34, 64
5, 80400, Note_on_c, 1, 34, 64
5, 80508, Note_off_c, 1, 34, 64
5, 80640, Note_on_c, 1, 34, 69
5, 81128, Note_off_c, 1, 34, 64
5, 81360, Note_on_c, 1, 29, 64
5, 81468, Note_off_c, 1, 29, 64
5, 81600, Note_on_c, 1, 34, 74
5, 82088, Note_off_c, 1, 34, 64
5, 82320, Note_on_c, 1, 34, 64
5, 82428, Note_off_c, 1, 34, 64
5, 82560, Note_on_c, 1, 34, 69
5, 83048, Note_off_c, 1, 34, 64
5, 83280, Note_on_c, 1, 34, 69
5, 83488, Note_off_c, 1, 34, 64
5, 83520, Note_on_c, 1, 33, 74
5, 84008, Note_off_c, 1, 33, 64
5, 84240, Note_on_c, 1, 33, 64
5, 84348, Note_off_c, 1, 33, 64
5, 84480, Note_on_c, 1, 33, 69
5, 84968, Note_off_c, 1, 33, 64
5, 85200, Note_on_c, 1, 33, 64
5, 85308, Note_off_c, 1, 33, 64
5, 85440, Note_on_c, 1, 33, 74
5, 85928, Note_off_c, 1, 33, 64
5, 86160, Note_on_c, 1, 33, 64
5, 86268, Note_off_c, 1, 33, 64
5, 86400, Note_on_c, 1, 33, 69
5, 86888, Note_off_c, 1, 33, 64
5, 87120, Note_on_c, 1, 33, 69
5, 87328, Note_off_c, 1, 33, 64
5, 87360, Note_on_c, 1, 34, 74
5, 87848, Note_off_c, 1, 34, 64
5, 88080, Note_on_c, 1, 34, 69
5, 88288, Note_off_c, 1, 34, 64
5, 88320, Note_on_c, 1, 34, 74
5, 88740, Note_off_c, 1, 34, 64
5, 88800, Note_on_c, 1, 32, 69
5, 89220, Note_off_c, 1, 32, 64
5, 89280, Note_on_c, 1, 30, 74
5, 89768, Note_off_c, 1, 30, 64
5, 90000, Note_on_c, 1, 30, 64
5, 90108, Note_off_c, 1, 30, 64
5, 90240, Note_on_c, 1, 30, 69
5, 90728, Note_off_c, 1, 30, 64
5, 90960, Note_on_c, 1, 30, 64
5, 91068, Note_off_c, 1, 30, 64
5, 91200, Note_on_c, 1, 29, 74
5, 91688, Note_off_c, 1, 29, 64
5, 91920, Note_on_c, 1, 29, 64
5, 92128, Note_off_c, 1, 29, 64
5, 92160, Note_on_c, 1, 29, 69
5, 92648, Note_off_c, 1, 29, 64
5, 92880, Note_on_c, 1, 29, 64
5, 92988, Note_off_c, 1, 29, 64
5, 93120, Note_on_c, 1, 29, 74
5, 93608, Note_off_c, 1, 29, 64
5, 93840, Note_on_c, 1, 29, 64
5, 93948, Note_off_c, 1, 29, 64
5, 94080, Note_on_c, 1, 29, 69
5, 94568, Note_off_c, 1, 29, 64
5, 94800, Note_on_c, 1, 29, 64
5, 95008, Note_off_c, 1, 29, 64
5, 95040, Note_on_c, 1, 34, 74
5, 95528, Note_off_c, 1, 34, 64
5, 95760, Note_on_c, 1, 34, 64
5, 95868, Note_off_c, 1, 34, 64
5, 96000, Note_on_c, 1, 34, 69
5, 96488, Note_off_c, 1, 34, 64
5, 96720, Note_on_c, 1, 34, 64
5, 96828, Note_off_c, 1, 34, 64
5, 96960, Note_on_c, 1, 34, 74
5, 97448, Note_off_c, 1, 34, 64
5, 97680, Note_on_c, 1, 34, 64
5, 97868, Note_off_c, 1, 34, 64
5, 97920, Pitch_bend_c, 1, 8192
5, 97920, Note_on_c, 1, 34, 69
5, 98340, Note_off_c, 1, 34, 64
5, 98400, Note_on_c, 1, 34, 64
5, 98820, Note_off_c, 1, 34, 64
5, 98880, Note_on_c, 1, 35, 74
5, 99368, Note_off_c, 1, 35, 64
5, 99600, Note_on_c, 1, 35, 64
5, 99708, Note_off_c, 1, 35, 64
5, 99840, Note_on_c, 1, 35, 69
5, 100328, Note_off_c, 1, 35, 64
5, 100560, Note_on_c, 1, 30, 64
5, 100668, Note_off_c, 1, 30, 64
5, 100800, Note_on_c, 1, 35, 74
5, 101288, Note_off_c, 1, 35, 64
5, 101520, Note_on_c, 1, 35, 64
5, 101628, Note_off_c, 1, 35, 64
5, 101760, Note_on_c, 1, 35, 69
5, 102248, Note_off_c, 1, 35, 64
5, 102480, Note_on_c, 1, 35, 69
5, 102688, Note_off_c, 1, 35, 64
5, 102720, Note_on_c, 1, 34, 74
5, 103208, Note_off_c, 1, 34, 64
5, 103440, Note_on_c, 1, 34, 64
5, 103548, Note_off_c, 1, 34, 64
5, 103680, Note_on_c, 1, 34, 69
5, 104168, Note_off_c, 1, 34, 64
5, 104400, Note_on_c, 1, 34, 64
5, 104508, Note_off_c, 1, 34, 64
5, 104640, Note_on_c, 1, 34, 74
5, 105128, Note_off_c, 1, 34, 64
5, 105360, Note_on_c, 1, 34, 64
5, 105468, Note_off_c, 1, 34, 64
5, 105600, Note_on_c, 1, 34, 69
5, 106088, Note_off_c, 1, 34, 64
5, 106320, Note_on_c, 1, 34, 69
5, 106528, Note_off_c, 1, 34, 64
5, 106560, Note_on_c, 1, 35, 74
5, 107048, Note_off_c, 1, 35, 64
5, 107280, Note_on_c, 1, 35, 69
5, 107488, Note_off_c, 1, 35, 64
5, 107520, Note_on_c, 1, 35, 74
5, 107940, Note_off_c, 1, 35, 64
5, 108000, Note_on_c, 1, 33, 69
5, 108420, Note_off_c, 1, 33, 64
5, 108480, Note_on_c, 1, 31, 74
5, 108968, Note_off_c, 1, 31, 64
5, 109200, Note_on_c, 1, 31, 64
5, 109308, Note_off_c, 1, 31, 64
5, 109440, Note_on_c, 1, 31, 69
5, 109928, Note_off_c, 1, 31, 64
5, 110160, Note_on_c, 1, 31, 64
5, 110268, Note_off_c, 1, 31, 64
5, 110400, Note_on_c, 1, 30, 74
5, 110888, Note_off_c, 1, 30, 64
5, 111120, Note_on_c, 1, 30, 64
5, 111228, Note_off_c, 1, 30, 64
5, 111360, Note_on_c, 1, 30, 69
5, 111848, Note_off_c, 1, 30, 64
5, 112080, Note_on_c, 1, 30, 64
5, 112188, Note_off_c, 1, 30, 64
5, 112320, Note_on_c, 1, 30, 64
5, 113220, Note_off_c, 1, 30, 64
5, 113220, End_track
6, 0, Start_track
6, 0, Title_t, "Choir"
6, 0, MIDI_port, 0
6, 0, Channel_prefix, 2
6, 0, Control_c, 2, 7, 90
6, 0, Control_c, 2, 10, 64
6, 0, Program_c, 2, 52
6, 300, Control_c, 2, 11, 100
6, 308, Control_c, 2, 91, 60
6, 320, Control_c, 2, 93, 10
6, 64800, Note_on_c, 2, 58, 82
6, 64800, Note_on_c, 2, 70, 72
6, 65240, Note_off_c, 2, 70, 64
6, 65240, Note_off_c, 2, 58, 64
6, 65280, Note_on_c, 2, 61, 82
6, 65280, Note_on_c, 2, 73, 72
6, 65720, Note_off_c, 2, 73, 64
6, 65720, Note_off_c, 2, 61, 64
6, 65760, Note_on_c, 2, 70, 82
6, 65760, Note_on_c, 2, 82, 72
6, 66200, Note_off_c, 2, 82, 64
6, 66200, Note_off_c, 2, 70, 64
6, 66240, Note_on_c, 2, 66, 82
6, 66240, Note_on_c, 2, 78, 72
6, 68028, Note_off_c, 2, 78, 64
6, 68028, Note_off_c, 2, 66, 64
6, 68160, Note_on_c, 2, 70, 82
6, 68160, Note_on_c, 2, 82, 72
6, 68608, Note_off_c, 2, 82, 64
6, 68608, Note_off_c, 2, 70, 64
6, 68640, Note_on_c, 2, 68, 82
6, 68640, Note_on_c, 2, 80, 72
6, 69500, Note_off_c, 2, 68, 64
6, 69520, Note_off_c, 2, 80, 64
6, 69600, Note_on_c, 2, 66, 82
6, 69600, Note_on_c, 2, 78, 72
6, 70048, Note_off_c, 2, 78, 64
6, 70048, Note_off_c, 2, 66, 64
6, 70080, Note_on_c, 2, 68, 82
6, 70080, Note_on_c, 2, 80, 72
6, 71880, Note_off_c, 2, 80, 64
6, 71880, Note_off_c, 2, 68, 64
6, 83520, Note_on_c, 2, 63, 72
6, 83520, Note_on_c, 2, 75, 62
6, 85080, Note_off_c, 2, 75, 64
6, 85080, Note_off_c, 2, 63, 64
6, 85200, Note_on_c, 2, 60, 82
6, 85200, Note_on_c, 2, 72, 72
6, 85408, Note_off_c, 2, 72, 64
6, 85408, Note_off_c, 2, 60, 64
6, 85440, Note_on_c, 2, 60, 82
6, 85440, Note_on_c, 2, 72, 72
6, 86340, Note_off_c, 2, 72, 64
6, 86340, Note_off_c, 2, 60, 64
6, 86400, Note_on_c, 2, 65, 82
6, 86400, Note_on_c, 2, 77, 72
6, 87300, Note_off_c, 2, 77, 64
6, 87300, Note_off_c, 2, 65, 64
6, 87360, Note_on_c, 2, 63, 82
6, 87360, Note_on_c, 2, 75, 72
6, 87808, Note_off_c, 2, 75, 64
6, 87808, Note_off_c, 2, 63, 64
6, 87840, Note_on_c, 2, 61, 82
6, 87840, Note_on_c, 2, 73, 72
6, 88268, Note_off_c, 2, 73, 64
6, 88268, Note_off_c, 2, 61, 64
6, 88320, Note_on_c, 2, 60, 82
6, 88320, Note_on_c, 2, 72, 72
6, 88548, Note_off_c, 2, 72, 64
6, 88548, Note_off_c, 2, 60, 64
6, 88560, Note_on_c, 2, 58, 82
6, 88560, Note_on_c, 2, 70, 72
6, 88788, Note_off_c, 2, 70, 64
6, 88788, Note_off_c, 2, 58, 64
6, 88800, Note_on_c, 2, 60, 82
6, 88800, Note_on_c, 2, 72, 72
6, 89028, Note_off_c, 2, 72, 64
6, 89028, Note_off_c, 2, 60, 64
6, 89040, Note_on_c, 2, 58, 82
6, 89040, Note_on_c, 2, 70, 72
6, 89268, Note_off_c, 2, 70, 64
6, 89268, Note_off_c, 2, 58, 64
6, 89280, Note_on_c, 2, 56, 82
6, 89280, Note_on_c, 2, 68, 72
6, 89720, Note_off_c, 2, 68, 64
6, 89720, Note_off_c, 2, 56, 64
6, 89760, Note_on_c, 2, 54, 82
6, 89760, Note_on_c, 2, 66, 72
6, 90660, Note_off_c, 2, 66, 64
6, 90660, Note_off_c, 2, 54, 64
6, 90720, Note_on_c, 2, 61, 82
6, 90720, Note_on_c, 2, 73, 72
6, 91168, Note_off_c, 2, 73, 64
6, 91168, Note_off_c, 2, 61, 64
6, 91200, Note_on_c, 2, 63, 72
6, 91200, Note_on_c, 2, 75, 62
6, 91880, Note_off_c, 2, 75, 64
6, 91880, Note_off_c, 2, 63, 64
6, 98880, Note_on_c, 2, 71, 72
6, 102468, Note_off_c, 2, 71, 64
6, 102720, Note_on_c, 2, 70, 72
6, 106308, Note_off_c, 2, 70, 64
6, 106560, Note_on_c, 2, 66, 72
6, 108348, Note_off_c, 2, 66, 64
6, 108480, Note_on_c, 2, 67, 72
6, 110268, Note_off_c, 2, 67, 64
6, 110400, Note_on_c, 2, 66, 72
6, 112428, Note_off_c, 2, 66, 64
6, 112428, End_track
7, 0, Start_track
7, 0, Title_t, "String"
7, 0, MIDI_port, 0
7, 0, Channel_prefix, 3
7, 0, Control_c, 3, 7, 100
7, 0, Control_c, 3, 10, 54
7, 0, Program_c, 3, 48
7, 408, Control_c, 3, 11, 100
7, 420, Control_c, 3, 91, 127
7, 428, Control_c, 3, 93, 0
7, 1920, Note_on_c, 3, 44, 63
7, 2000, Note_off_c, 3, 44, 64
7, 2000, Note_on_c, 3, 46, 74
7, 2080, Note_off_c, 3, 46, 64
7, 2080, Note_on_c, 3, 48, 77
7, 2160, Note_off_c, 3, 48, 64
7, 2160, Note_on_c, 3, 49, 58
7, 2240, Note_off_c, 3, 49, 64
7, 2240, Note_on_c, 3, 51, 65
7, 2320, Note_off_c, 3, 51, 64
7, 2320, Note_on_c, 3, 53, 70
7, 2400, Note_off_c, 3, 53, 64
7, 2400, Note_on_c, 3, 54, 56
7, 2480, Note_off_c, 3, 54, 64
7, 2480, Note_on_c, 3, 56, 63
7, 2560, Note_off_c, 3, 56, 64
7, 2560, Note_on_c, 3, 58, 63
7, 2640, Note_off_c, 3, 58, 64
7, 2640, Note_on_c, 3, 60, 68
7, 2720, Note_off_c, 3, 60, 64
7, 2720, Note_on_c, 3, 61, 63
7, 2800, Note_off_c, 3, 61, 64
7, 2800, Note_on_c, 3, 63, 66
7, 2880, Note_off_c, 3, 63, 64
7, 2880, Note_on_c, 3, 65, 78
7, 2960, Note_off_c, 3, 65, 64
7, 2960, Note_on_c, 3, 66, 55
7, 3040, Note_off_c, 3, 66, 64
7, 3040, Note_on_c, 3, 68, 60
7, 3120, Note_off_c, 3, 68, 64
7, 3120, Note_on_c, 3, 70, 63
7, 3200, Note_off_c, 3, 70, 64
7, 3200, Note_on_c, 3, 72, 68
7, 3280, Note_off_c, 3, 72, 64
7, 3280, Note_on_c, 3, 73, 80
7, 3360, Note_off_c, 3, 73, 64
7, 3360, Note_on_c, 3, 75, 77
7, 3440, Note_off_c, 3, 75, 64
7, 3440, Note_on_c, 3, 77, 73
7, 3520, Note_off_c, 3, 77, 64
7, 3520, Note_on_c, 3, 78, 67
7, 3600, Note_off_c, 3, 78, 64
7, 3600, Note_on_c, 3, 80, 69
7, 3680, Note_off_c, 3, 80, 64
7, 3680, Note_on_c, 3, 82, 69
7, 3760, Note_off_c, 3, 82, 64
7, 3760, Note_on_c, 3, 84, 68
7, 3840, Note_off_c, 3, 84, 64
7, 3840, Note_on_c, 3, 85, 77
7, 3840, Note_on_c, 3, 73, 77
7, 4500, Note_off_c, 3, 73, 64
7, 4500, Note_off_c, 3, 85, 64
7, 4560, Note_on_c, 3, 84, 62
7, 4560, Note_on_c, 3, 72, 62
7, 5008, Note_off_c, 3, 72, 64
7, 5008, Note_off_c, 3, 84, 64
7, 5040, Note_on_c, 3, 82, 74
7, 5040, Note_on_c, 3, 70, 74
7, 5268, Note_off_c, 3, 70, 64
7, 5268, Note_off_c, 3, 82, 64
7, 5280, Note_on_c, 3, 82, 74
7, 5280, Note_on_c, 3, 70, 74
7, 5840, Note_off_c, 3, 70, 64
7, 5840, Note_off_c, 3, 82, 64
7, 6000, Note_on_c, 3, 85, 80
7, 6000, Note_on_c, 3, 73, 80
7, 6208, Note_off_c, 3, 73, 64
7, 6208, Note_off_c, 3, 85, 64
7, 6240, Note_on_c, 3, 85, 80
7, 6240, Note_on_c, 3, 73, 80
7, 6448, Note_off_c, 3, 73, 64
7, 6448, Note_off_c, 3, 85, 64
7, 6480, Note_on_c, 3, 84, 80
7, 6480, Note_on_c, 3, 72, 80
7, 6688, Note_off_c, 3, 72, 64
7, 6688, Note_off_c, 3, 84, 64
7, 6720, Note_on_c, 3, 84, 80
7, 6720, Note_on_c, 3, 72, 80
7, 6928, Note_off_c, 3, 72, 64
7, 6928, Note_off_c, 3, 84, 64
7, 6960, Note_on_c, 3, 82, 80
7, 6960, Note_on_c, 3, 70, 80
7, 7168, Note_off_c, 3, 70, 64
7, 7168, Note_off_c, 3, 82, 64
7, 7200, Note_on_c, 3, 82, 80
7, 7200, Note_on_c, 3, 70, 80
7, 7408, Note_off_c, 3, 70, 64
7, 7408, Note_off_c, 3, 82, 64
7, 7440, Note_on_c, 3, 80, 80
7, 7440, Note_on_c, 3, 68, 80
7, 7648, Note_off_c, 3, 68, 64
7, 7648, Note_off_c, 3, 80, 64
7, 7680, Note_on_c, 3, 80, 77
7, 7680, Note_on_c, 3, 68, 77
7, 7888, Note_off_c, 3, 68, 64
7, 7888, Note_off_c, 3, 80, 64
7, 7920, Note_on_c, 3, 78, 73
7, 7920, Note_on_c, 3, 66, 73
7, 8128, Note_off_c, 3, 66, 64
7, 8128, Note_off_c, 3, 78, 64
7, 8160, Note_on_c, 3, 85, 67
7, 8160, Note_on_c, 3, 73, 67
7, 10420, Note_off_c, 3, 73, 64
7, 10420, Note_off_c, 3, 85, 64
7, 31680, Note_on_c, 3, 65, 78
7, 31788, Note_off_c, 3, 65, 64
7, 31800, Note_on_c, 3, 63, 92
7, 31908, Note_off_c, 3, 63, 64
7, 31920, Note_on_c, 3, 65, 75
7, 35300, Note_off_c, 3, 65, 64
7, 37200, Note_on_c, 3, 85, 72
7, 37308, Note_off_c, 3, 85, 64
7, 37320, Note_on_c, 3, 84, 67
7, 37428, Note_off_c, 3, 84, 64
7, 37440, Note_on_c, 3, 85, 57
7, 39240, Note_off_c, 3, 85, 64
7, 44160, Note_on_c, 3, 72, 83
7, 44388, Note_off_c, 3, 72, 64
7, 44400, Note_on_c, 3, 73, 77
7, 44628, Note_off_c, 3, 73, 64
7, 44640, Note_on_c, 3, 72, 86
7, 44868, Note_off_c, 3, 72, 64
7, 44880, Note_on_c, 3, 70, 77
7, 45108, Note_off_c, 3, 70, 64
7, 45120, Note_on_c, 3, 68, 70
7, 45568, Note_off_c, 3, 68, 64
7, 45600, Note_on_c, 3, 66, 66
7, 46948, Note_off_c, 3, 66, 64
7, 51120, Note_on_c, 3, 77, 66
7, 51120, Note_on_c, 3, 65, 66
7, 51328, Note_off_c, 3, 65, 64
7, 51328, Note_off_c, 3, 77, 64
7, 51360, Note_on_c, 3, 81, 66
7, 51360, Note_on_c, 3, 69, 66
7, 51568, Note_off_c, 3, 69, 64
7, 51568, Note_off_c, 3, 81, 64
7, 51600, Note_on_c, 3, 82, 66
7, 51600, Note_on_c, 3, 70, 66
7, 51808, Note_off_c, 3, 70, 64
7, 51808, Note_off_c, 3, 82, 64
7, 51840, Note_on_c, 3, 82, 66
7, 51840, Note_on_c, 3, 70, 66
7, 52048, Note_off_c, 3, 70, 64
7, 52048, Note_off_c, 3, 82, 64
7, 52080, Note_on_c, 3, 84, 66
7, 52080, Note_on_c, 3, 72, 66
7, 52288, Note_off_c, 3, 72, 64
7, 52288, Note_off_c, 3, 84, 64
7, 52320, Note_on_c, 3, 84, 66
7, 52320, Note_on_c, 3, 72, 66
7, 52528, Note_off_c, 3, 72, 64
7, 52528, Note_off_c, 3, 84, 64
7, 52560, Note_on_c, 3, 86, 66
7, 52560, Note_on_c, 3, 74, 66
7, 52768, Note_off_c, 3, 74, 64
7, 52768, Note_off_c, 3, 86, 64
7, 52800, Note_on_c, 3, 86, 62
7, 52800, Note_on_c, 3, 74, 62
7, 53220, Note_off_c, 3, 74, 64
7, 53220, Note_off_c, 3, 86, 64
7, 53280, Note_on_c, 3, 87, 75
7, 53280, Note_on_c, 3, 75, 75
7, 53728, Note_off_c, 3, 75, 64
7, 53728, Note_off_c, 3, 87, 64
7, 53760, Note_on_c, 3, 89, 71
7, 53760, Note_on_c, 3, 77, 71
7, 54208, Note_off_c, 3, 77, 64
7, 54208, Note_off_c, 3, 89, 64
7, 54240, Note_on_c, 3, 92, 65
7, 54240, Note_on_c, 3, 80, 65
7, 54688, Note_off_c, 3, 80, 64
7, 54688, Note_off_c, 3, 92, 64
7, 54720, Note_on_c, 3, 78, 71
7, 56520, Note_off_c, 3, 78, 64
7, 56640, Note_on_c, 3, 73, 50
7, 56640, Note_on_c, 3, 70, 54
7, 57088, Note_off_c, 3, 70, 64
7, 57088, Note_off_c, 3, 73, 64
7, 57120, Note_on_c, 3, 72, 49
7, 57120, Note_on_c, 3, 68, 55
7, 58020, Note_off_c, 3, 68, 64
7, 58020, Note_off_c, 3, 72, 64
7, 58080, Note_on_c, 3, 70, 49
7, 58080, Note_on_c, 3, 66, 55
7, 58528, Note_off_c, 3, 66, 64
7, 58528, Note_off_c, 3, 70, 64
7, 58560, Note_on_c, 3, 68, 58
7, 60360, Note_off_c, 3, 68, 64
7, 60480, Note_on_c, 3, 68, 68
7, 60928, Note_off_c, 3, 68, 64
7, 60960, Note_on_c, 3, 66, 65
7, 61860, Note_off_c, 3, 66, 64
7, 61920, Note_on_c, 3, 68, 68
7, 62368, Note_off_c, 3, 68, 64
7, 62400, Note_on_c, 3, 66, 61
7, 64208, Note_off_c, 3, 66, 64
7, 77040, Note_on_c, 3, 69, 74
7, 77268, Note_off_c, 3, 69, 64
7, 77280, Note_on_c, 3, 72, 77
7, 77508, Note_off_c, 3, 72, 64
7, 77520, Note_on_c, 3, 73, 77
7, 77748, Note_off_c, 3, 73, 64
7, 77760, Note_on_c, 3, 75, 74
7, 78208, Note_off_c, 3, 75, 64
7, 78240, Note_on_c, 3, 77, 66
7, 78900, Note_off_c, 3, 77, 64
7, 78960, Note_on_c, 3, 80, 75
7, 79188, Note_off_c, 3, 80, 64
7, 79200, Note_on_c, 3, 78, 75
7, 79428, Note_off_c, 3, 78, 64
7, 79440, Note_on_c, 3, 75, 70
7, 79668, Note_off_c, 3, 75, 64
7, 79680, Note_on_c, 3, 77, 60
7, 80788, Note_off_c, 3, 77, 64
7, 80880, Note_on_c, 3, 61, 78
7, 81108, Note_off_c, 3, 61, 64
7, 81120, Note_on_c, 3, 61, 68
7, 81348, Note_off_c, 3, 61, 64
7, 81360, Note_on_c, 3, 60, 64
7, 81588, Note_off_c, 3, 60, 64
7, 81600, Note_on_c, 3, 60, 68
7, 82280, Note_off_c, 3, 60, 64
7, 82320, Note_on_c, 3, 58, 71
7, 82548, Note_off_c, 3, 58, 64
7, 82560, Note_on_c, 3, 61, 83
7, 83008, Note_off_c, 3, 61, 64
7, 83040, Note_on_c, 3, 58, 78
7, 83488, Note_off_c, 3, 58, 64
7, 83520, Note_on_c, 3, 60, 69
7, 85320, Note_off_c, 3, 60, 64
7, 96960, Note_on_c, 3, 46, 84
7, 97040, Note_off_c, 3, 46, 64
7, 97040, Note_on_c, 3, 48, 83
7, 97120, Note_off_c, 3, 48, 64
7, 97120, Note_on_c, 3, 49, 80
7, 97200, Note_off_c, 3, 49, 64
7, 97200, Note_on_c, 3, 51, 78
7, 97280, Note_off_c, 3, 51, 64
7, 97280, Note_on_c, 3, 53, 77
7, 97360, Note_off_c, 3, 53, 64
7, 97360, Note_on_c, 3, 54, 75
7, 97440, Note_off_c, 3, 54, 64
7, 97440, Note_on_c, 3, 56, 73
7, 97520, Note_off_c, 3, 56, 64
7, 97520, Note_on_c, 3, 58, 72
7, 97600, Note_off_c, 3, 58, 64
7, 97600, Note_on_c, 3, 60, 73
7, 97680, Note_off_c, 3, 60, 64
7, 97680, Note_on_c, 3, 61, 74
7, 97760, Note_off_c, 3, 61, 64
7, 97760, Note_on_c, 3, 63, 77
7, 97840, Note_off_c, 3, 63, 64
7, 97840, Note_on_c, 3, 65, 71
7, 97920, Note_off_c, 3, 65, 64
7, 97920, Note_on_c, 3, 66, 79
7, 98000, Note_off_c, 3, 66, 64
7, 98000, Note_on_c, 3, 67, 75
7, 98080, Note_off_c, 3, 67, 64
7, 98080, Note_on_c, 3, 69, 77
7, 98160, Note_off_c, 3, 69, 64
7, 98160, Note_on_c, 3, 71, 78
7, 98240, Note_off_c, 3, 71, 64
7, 98240, Note_on_c, 3, 73, 80
7, 98320, Note_off_c, 3, 73, 64
7, 98320, Note_on_c, 3, 74, 81
7, 98400, Note_off_c, 3, 74, 64
7, 98400, Note_on_c, 3, 76, 84
7, 98480, Note_off_c, 3, 76, 64
7, 98480, Note_on_c, 3, 78, 85
7, 98560, Note_off_c, 3, 78, 64
7, 98560, Note_on_c, 3, 79, 87
7, 98640, Note_off_c, 3, 79, 64
7, 98640, Note_on_c, 3, 81, 88
7, 98720, Note_off_c, 3, 81, 64
7, 98720, Note_on_c, 3, 83, 88
7, 98800, Note_off_c, 3, 83, 64
7, 98800, Note_on_c, 3, 85, 89
7, 98880, Note_off_c, 3, 85, 64
7, 98880, Note_on_c, 3, 86, 65
7, 102468, Note_off_c, 3, 86, 64
7, 102720, Note_on_c, 3, 85, 65
7, 106308, Note_off_c, 3, 85, 64
7, 106560, Note_on_c, 3, 83, 65
7, 110148, Note_off_c, 3, 83, 64
7, 110400, Note_on_c, 3, 82, 65
7, 112428, Note_off_c, 3, 82, 64
7, 112428, End_track
8, 0, Start_track
8, 0, Title_t, "Tim"
8, 0, MIDI_port, 0
8, 0, Channel_prefix, 4
8, 0, Control_c, 4, 7, 90
8, 0, Control_c, 4, 10, 64
8, 0, Program_c, 4, 47
8, 1140, Control_c, 4, 91, 100
8, 1148, Control_c, 4, 93, 0
8, 1160, Control_c, 4, 11, 100
8, 7680, Control_c, 4, 64, 127
8, 7680, Note_on_c, 4, 44, 5
8, 7728, Note_off_c, 4, 44, 64
8, 7740, Note_on_c, 4, 44, 7
8, 7788, Note_off_c, 4, 44, 64
8, 7800, Note_on_c, 4, 44, 9
8, 7848, Note_off_c, 4, 44, 64
8, 7860, Note_on_c, 4, 44, 11
8, 7908, Note_off_c, 4, 44, 64
8, 7920, Note_on_c, 4, 44, 13
8, 7968, Note_off_c, 4, 44, 64
8, 7980, Note_on_c, 4, 44, 15
8, 8028, Note_off_c, 4, 44, 64
8, 8040, Note_on_c, 4, 44, 17
8, 8088, Note_off_c, 4, 44, 64
8, 8100, Note_on_c, 4, 44, 19
8, 8148, Note_off_c, 4, 44, 64
8, 8160, Note_on_c, 4, 44, 21
8, 8208, Note_off_c, 4, 44, 64
8, 8220, Note_on_c, 4, 44, 23
8, 8268, Note_off_c, 4, 44, 64
8, 8280, Note_on_c, 4, 44, 25
8, 8328, Note_off_c, 4, 44, 64
8, 8340, Note_on_c, 4, 44, 27
8, 8388, Note_off_c, 4, 44, 64
8, 8400, Note_on_c, 4, 44, 29
8, 8448, Note_off_c, 4, 44, 64
8, 8460, Note_on_c, 4, 44, 31
8, 8508, Note_off_c, 4, 44, 64
8, 8520, Note_on_c, 4, 44, 33
8, 8568, Note_off_c, 4, 44, 64
8, 8580, Note_on_c, 4, 44, 35
8, 8628, Note_off_c, 4, 44, 64
8, 8640, Note_on_c, 4, 44, 37
8, 8688, Note_off_c, 4, 44, 64
8, 8700, Note_on_c, 4, 44, 39
8, 8748, Note_off_c, 4, 44, 64
8, 8760, Note_on_c, 4, 44, 41
8, 8808, Note_off_c, 4, 44, 64
8, 8820, Note_on_c, 4, 44, 43
8, 8868, Note_off_c, 4, 44, 64
8, 8880, Note_on_c, 4, 44, 45
8, 8928, Note_off_c, 4, 44, 64
8, 8940, Note_on_c, 4, 44, 47
8, 8988, Note_off_c, 4, 44, 64
8, 9000, Note_on_c, 4, 44, 49
8, 9048, Note_off_c, 4, 44, 64
8, 9060, Note_on_c, 4, 44, 51
8, 9108, Note_off_c, 4, 44, 64
8, 9120, Note_on_c, 4, 44, 53
8, 9168, Note_off_c, 4, 44, 64
8, 9180, Note_on_c, 4, 44, 55
8, 9228, Note_off_c, 4, 44, 64
8, 9240, Note_on_c, 4, 44, 57
8, 9288, Note_off_c, 4, 44, 64
8, 9300, Note_on_c, 4, 44, 59
8, 9348, Note_off_c, 4, 44, 64
8, 9360, Note_on_c, 4, 44, 61
8, 9408, Note_off_c, 4, 44, 64
8, 9420, Note_on_c, 4, 44, 63
8, 9468, Note_off_c, 4, 44, 64
8, 9480, Note_on_c, 4, 44, 65
8, 9528, Note_off_c, 4, 44, 64
8, 9540, Note_on_c, 4, 44, 67
8, 9588, Note_off_c, 4, 44, 64
8, 9600, Note_on_c, 4, 44, 69
8, 9648, Note_off_c, 4, 44, 64
8, 9660, Note_on_c, 4, 44, 71
8, 9708, Note_off_c, 4, 44, 64
8, 9720, Note_on_c, 4, 44, 73
8, 9768, Note_off_c, 4, 44, 64
8, 9780, Note_on_c, 4, 44, 75
8, 9828, Note_off_c, 4, 44, 64
8, 9840, Note_on_c, 4, 44, 77
8, 9888, Note_off_c, 4, 44, 64
8, 9900, Note_on_c, 4, 44, 79
8, 9948, Note_off_c, 4, 44, 64
8, 9960, Note_on_c, 4, 44, 81
8, 10008, Note_off_c, 4, 44, 64
8, 10020, Note_on_c, 4, 44, 83
8, 10068, Note_off_c, 4, 44, 64
8, 10080, Note_on_c, 4, 44, 85
8, 10128, Note_off_c, 4, 44, 64
8, 10140, Note_on_c, 4, 44, 87
8, 10188, Note_off_c, 4, 44, 64
8, 10200, Note_on_c, 4, 44, 89
8, 10248, Note_off_c, 4, 44, 64
8, 10260, Note_on_c, 4, 44, 91
8, 10308, Note_off_c, 4, 44, 64
8, 10320, Note_on_c, 4, 44, 93
8, 10368, Note_off_c, 4, 44, 64
8, 10380, Note_on_c, 4, 44, 95
8, 10428, Note_off_c, 4, 44, 64
8, 10440, Note_on_c, 4, 44, 97
8, 10488, Note_off_c, 4, 44, 64
8, 10500, Note_on_c, 4, 44, 99
8, 10548, Note_off_c, 4, 44, 64
8, 10560, Note_on_c, 4, 44, 102
8, 10648, Note_off_c, 4, 44, 64
8, 11520, Control_c, 4, 64, 0
8, 11520, End_track
9, 0, Start_track
9, 0, Title_t, "Bell"
9, 0, MIDI_port, 0
9, 0, Channel_prefix, 5
9, 0, Control_c, 5, 7, 100
9, 0, Control_c, 5, 10, 64
9, 0, Program_c, 5, 100
9, 500, Control_c, 5, 101, 0
9, 508, Control_c, 5, 100, 0
9, 520, Control_c, 5, 6, 12
9, 528, Control_c, 5, 91, 60
9, 540, Control_c, 5, 93, 10
9, 568, Control_c, 5, 11, 100
9, 98880, Note_on_c, 5, 74, 65
9, 99020, Note_off_c, 5, 74, 64
9, 99120, Note_on_c, 5, 66, 65
9, 99260, Note_off_c, 5, 66, 64
9, 99360, Note_on_c, 5, 66, 65
9, 99500, Note_off_c, 5, 66, 64
9, 99600, Note_on_c, 5, 74, 65
9, 99740, Note_off_c, 5, 74, 64
9, 99840, Note_on_c, 5, 74, 55
9, 100468, Note_off_c, 5, 74, 64
9, 101040, Note_on_c, 5, 66, 65
9, 101180, Note_off_c, 5, 66, 64
9, 101280, Note_on_c, 5, 66, 65
9, 101420, Note_off_c, 5, 66, 64
9, 101520, Note_on_c, 5, 74, 65
9, 101660, Note_off_c, 5, 74, 64
9, 101760, Note_on_c, 5, 74, 65
9, 101900, Note_off_c, 5, 74, 64
9, 102000, Note_on_c, 5, 66, 65
9, 102140, Note_off_c, 5, 66, 64
9, 102240, Note_on_c, 5, 67, 65
9, 102380, Note_off_c, 5, 67, 64
9, 102480, Note_on_c, 5, 66, 65
9, 102620, Note_off_c, 5, 66, 64
9, 102720, Note_on_c, 5, 64, 65
9, 102860, Note_off_c, 5, 64, 64
9, 102960, Note_on_c, 5, 64, 65
9, 103100, Note_off_c, 5, 64, 64
9, 103200, Note_on_c, 5, 64, 65
9, 103340, Note_off_c, 5, 64, 64
9, 103440, Note_on_c, 5, 73, 65
9, 103580, Note_off_c, 5, 73, 64
9, 103680, Note_on_c, 5, 73, 55
9, 104308, Note_off_c, 5, 73, 64
9, 104880, Note_on_c, 5, 64, 65
9, 105020, Note_off_c, 5, 64, 64
9, 105120, Note_on_c, 5, 64, 65
9, 105260, Note_off_c, 5, 64, 64
9, 105360, Note_on_c, 5, 73, 65
9, 105500, Note_off_c, 5, 73, 64
9, 105600, Note_on_c, 5, 73, 65
9, 105740, Note_off_c, 5, 73, 64
9, 105840, Note_on_c, 5, 64, 65
9, 105980, Note_off_c, 5, 64, 64
9, 106080, Note_on_c, 5, 66, 65
9, 106220, Note_off_c, 5, 66, 64
9, 106320, Note_on_c, 5, 64, 65
9, 106460, Note_off_c, 5, 64, 64
9, 106560, Note_on_c, 5, 62, 65
9, 106700, Note_off_c, 5, 62, 64
9, 106800, Note_on_c, 5, 62, 65
9, 106940, Note_off_c, 5, 62, 64
9, 107040, Note_on_c, 5, 62, 65
9, 107180, Note_off_c, 5, 62, 64
9, 107280, Note_on_c, 5, 71, 65
9, 107420, Note_off_c, 5, 71, 64
9, 107520, Note_on_c, 5, 71, 55
9, 108148, Note_off_c, 5, 71, 64
9, 108720, Note_on_c, 5, 62, 65
9, 108860, Note_off_c, 5, 62, 64
9, 108960, Note_on_c, 5, 62, 65
9, 109100, Note_off_c, 5, 62, 64
9, 109200, Note_on_c, 5, 71, 65
9, 109340, Note_off_c, 5, 71, 64
9, 109440, Note_on_c, 5, 71, 65
9, 109580, Note_off_c, 5, 71, 64
9, 109680, Note_on_c, 5, 62, 65
9, 109820, Note_off_c, 5, 62, 64
9, 109920, Note_on_c, 5, 64, 65
9, 110060, Note_off_c, 5, 64, 64
9, 110160, Note_on_c, 5, 62, 65
9, 110300, Note_off_c, 5, 62, 64
9, 110400, Note_on_c, 5, 61, 65
9, 110540, Note_off_c, 5, 61, 64
9, 110640, Note_on_c, 5, 61, 65
9, 110780, Note_off_c, 5, 61, 64
9, 110880, Note_on_c, 5, 61, 65
9, 111020, Note_off_c, 5, 61, 64
9, 111120, Note_on_c, 5, 70, 65
9, 111268, Note_off_c, 5, 70, 64
9, 111360, Note_on_c, 5, 70, 65
9, 111988, Note_off_c, 5, 70, 64
9, 112800, Note_on_c, 5, 73, 55
9, 113100, Note_off_c, 5, 73, 64
9, 113280, Note_on_c, 5, 76, 55
9, 113580, Note_off_c, 5, 76, 64
9, 113760, Note_on_c, 5, 79, 55
9, 114060, Note_off_c, 5, 79, 64
9, 114240, Note_on_c, 5, 78, 55
9, 115568, Note_off_c, 5, 78, 64
9, 115568, End_track
10, 0, Start_track
10, 0, Title_t, "CLgt"
10, 0, MIDI_port, 0
10, 0, Channel_prefix, 6
10, 0, Control_c, 6, 7, 100
10, 0, Control_c, 6, 10, 64
10, 0, Program_c, 6, 26
10, 900, Control_c, 6, 11, 100
10, 908, Control_c, 6, 91, 100
10, 920, Control_c, 6, 93, 10
10, 12960, Note_on_c, 6, 65, 51
10, 12960, Note_on_c, 6, 70, 56
10, 12960, Note_on_c, 6, 73, 61
10, 13048, Note_off_c, 6, 73, 64
10, 13048, Note_off_c, 6, 70, 64
10, 13048, Note_off_c, 6, 65, 64
10, 13920, Note_on_c, 6, 65, 51
10, 13920, Note_on_c, 6, 70, 56
10, 13920, Note_on_c, 6, 73, 61
10, 14008, Note_off_c, 6, 73, 64
10, 14008, Note_off_c, 6, 70, 64
10, 14008, Note_off_c, 6, 65, 64
10, 14880, Note_on_c, 6, 65, 51
10, 14880, Note_on_c, 6, 70, 56
10, 14880, Note_on_c, 6, 73, 61
10, 14968, Note_off_c, 6, 73, 64
10, 14968, Note_off_c, 6, 70, 64
10, 14968, Note_off_c, 6, 65, 64
10, 15840, Note_on_c, 6, 65, 51
10, 15840, Note_on_c, 6, 70, 56
10, 15840, Note_on_c, 6, 73, 61
10, 15928, Note_off_c, 6, 73, 64
10, 15928, Note_off_c, 6, 70, 64
10, 15928, Note_off_c, 6, 65, 64
10, 16800, Note_on_c, 6, 65, 51
10, 16800, Note_on_c, 6, 70, 56
10, 16800, Note_on_c, 6, 73, 61
10, 16888, Note_off_c, 6, 73, 64
10, 16888, Note_off_c, 6, 70, 64
10, 16888, Note_off_c, 6, 65, 64
10, 17760, Note_on_c, 6, 65, 51
10, 17760, Note_on_c, 6, 70, 56
10, 17760, Note_on_c, 6, 73, 61
10, 17848, Note_off_c, 6, 73, 64
10, 17848, Note_off_c, 6, 70, 64
10, 17848, Note_off_c, 6, 65, 64
10, 18720, Note_on_c, 6, 65, 51
10, 18720, Note_on_c, 6, 70, 56
10, 18720, Note_on_c, 6, 73, 61
10, 18808, Note_off_c, 6, 73, 64
10, 18808, Note_off_c, 6, 70, 64
10, 18808, Note_off_c, 6, 65, 64
10, 19680, Note_on_c, 6, 65, 51
10, 19680, Note_on_c, 6, 70, 56
10, 19680, Note_on_c, 6, 73, 61
10, 19768, Note_off_c, 6, 73, 64
10, 19768, Note_off_c, 6, 70, 64
10, 19768, Note_off_c, 6, 65, 64
10, 20640, Note_on_c, 6, 65, 51
10, 20640, Note_on_c, 6, 69, 56
10, 20640, Note_on_c, 6, 72, 61
10, 20728, Note_off_c, 6, 72, 64
10, 20728, Note_off_c, 6, 69, 64
10, 20728, Note_off_c, 6, 65, 64
10, 21600, Note_on_c, 6, 65, 51
10, 21600, Note_on_c, 6, 69, 56
10, 21600, Note_on_c, 6, 72, 61
10, 21688, Note_off_c, 6, 72, 64
10, 21688, Note_off_c, 6, 69, 64
10, 21688, Note_off_c, 6, 65, 64
10, 22560, Note_on_c, 6, 65, 51
10, 22560, Note_on_c, 6, 69, 56
10, 22560, Note_on_c, 6, 72, 61
10, 22648, Note_off_c, 6, 72, 64
10, 22648, Note_off_c, 6, 69, 64
10, 22648, Note_off_c, 6, 65, 64
10, 23520, Note_on_c, 6, 65, 51
10, 23520, Note_on_c, 6, 69, 56
10, 23520, Note_on_c, 6, 72, 61
10, 23608, Note_off_c, 6, 72, 64
10, 23608, Note_off_c, 6, 69, 64
10, 23608, Note_off_c, 6, 65, 64
10, 24480, Note_on_c, 6, 65, 51
10, 24480, Note_on_c, 6, 70, 56
10, 24480, Note_on_c, 6, 73, 61
10, 24568, Note_off_c, 6, 73, 64
10, 24568, Note_off_c, 6, 70, 64
10, 24568, Note_off_c, 6, 65, 64
10, 25440, Note_on_c, 6, 65, 51
10, 25440, Note_on_c, 6, 68, 56
10, 25440, Note_on_c, 6, 73, 61
10, 25528, Note_off_c, 6, 73, 64
10, 25528, Note_off_c, 6, 68, 64
10, 25528, Note_off_c, 6, 65, 64
10, 26400, Note_on_c, 6, 66, 51
10, 26400, Note_on_c, 6, 70, 56
10, 26400, Note_on_c, 6, 73, 61
10, 26488, Note_off_c, 6, 73, 64
10, 26488, Note_off_c, 6, 70, 64
10, 26488, Note_off_c, 6, 66, 64
10, 27360, Note_on_c, 6, 66, 51
10, 27360, Note_on_c, 6, 70, 56
10, 27360, Note_on_c, 6, 73, 61
10, 27448, Note_off_c, 6, 73, 64
10, 27448, Note_off_c, 6, 70, 64
10, 27448, Note_off_c, 6, 66, 64
10, 28320, Note_on_c, 6, 65, 51
10, 28320, Note_on_c, 6, 69, 56
10, 28320, Note_on_c, 6, 72, 61
10, 28408, Note_off_c, 6, 72, 64
10, 28408, Note_off_c, 6, 69, 64
10, 28408, Note_off_c, 6, 65, 64
10, 29280, Note_on_c, 6, 65, 51
10, 29280, Note_on_c, 6, 69, 56
10, 29280, Note_on_c, 6, 72, 61
10, 29368, Note_off_c, 6, 72, 64
10, 29368, Note_off_c, 6, 69, 64
10, 29368, Note_off_c, 6, 65, 64
10, 30240, Note_on_c, 6, 65, 51
10, 30240, Note_on_c, 6, 69, 56
10, 30240, Note_on_c, 6, 72, 61
10, 30328, Note_off_c, 6, 72, 64
10, 30328, Note_off_c, 6, 69, 64
10, 30328, Note_off_c, 6, 65, 64
10, 31200, Note_on_c, 6, 65, 51
10, 31200, Note_on_c, 6, 69, 56
10, 31200, Note_on_c, 6, 72, 61
10, 31288, Note_off_c, 6, 72, 64
10, 31288, Note_off_c, 6, 69, 64
10, 31288, Note_off_c, 6, 65, 64
10, 32160, Note_on_c, 6, 65, 51
10, 32160, Note_on_c, 6, 70, 56
10, 32160, Note_on_c, 6, 73, 61
10, 32248, Note_off_c, 6, 73, 64
10, 32248, Note_off_c, 6, 70, 64
10, 32248, Note_off_c, 6, 65, 64
10, 33120, Note_on_c, 6, 65, 51
10, 33120, Note_on_c, 6, 70, 56
10, 33120, Note_on_c, 6, 73, 61
10, 33208, Note_off_c, 6, 73, 64
10, 33208, Note_off_c, 6, 70, 64
10, 33208, Note_off_c, 6, 65, 64
10, 34080, Note_on_c, 6, 65, 51
10, 34080, Note_on_c, 6, 70, 56
10, 34080, Note_on_c, 6, 73, 61
10, 34168, Note_off_c, 6, 73, 64
10, 34168, Note_off_c, 6, 70, 64
10, 34168, Note_off_c, 6, 65, 64
10, 35040, Note_on_c, 6, 65, 51
10, 35040, Note_on_c, 6, 70, 56
10, 35040, Note_on_c, 6, 73, 61
10, 35128, Note_off_c, 6, 73, 64
10, 35128, Note_off_c, 6, 70, 64
10, 35128, Note_off_c, 6, 65, 64
10, 36000, Note_on_c, 6, 65, 51
10, 36000, Note_on_c, 6, 70, 56
10, 36000, Note_on_c, 6, 73, 61
10, 36088, Note_off_c, 6, 73, 64
10, 36088, Note_off_c, 6, 70, 64
10, 36088, Note_off_c, 6, 65, 64
10, 36960, Note_on_c, 6, 65, 51
10, 36960, Note_on_c, 6, 70, 56
10, 36960, Note_on_c, 6, 73, 61
10, 37048, Note_off_c, 6, 73, 64
10, 37048, Note_off_c, 6, 70, 64
10, 37048, Note_off_c, 6, 65, 64
10, 37920, Note_on_c, 6, 65, 51
10, 37920, Note_on_c, 6, 70, 56
10, 37920, Note_on_c, 6, 73, 61
10, 38008, Note_off_c, 6, 73, 64
10, 38008, Note_off_c, 6, 70, 64
10, 38008, Note_off_c, 6, 65, 64
10, 38880, Note_on_c, 6, 65, 51
10, 38880, Note_on_c, 6, 70, 56
10, 38880, Note_on_c, 6, 73, 61
10, 38968, Note_off_c, 6, 73, 64
10, 38968, Note_off_c, 6, 70, 64
10, 38968, Note_off_c, 6, 65, 64
10, 39840, Note_on_c, 6, 65, 51
10, 39840, Note_on_c, 6, 69, 56
10, 39840, Note_on_c, 6, 72, 61
10, 39928, Note_off_c, 6, 72, 64
10, 39928, Note_off_c, 6, 69, 64
10, 39928, Note_off_c, 6, 65, 64
10, 40800, Note_on_c, 6, 65, 51
10, 40800, Note_on_c, 6, 69, 56
10, 40800, Note_on_c, 6, 72, 61
10, 40888, Note_off_c, 6, 72, 64
10, 40888, Note_off_c, 6, 69, 64
10, 40888, Note_off_c, 6, 65, 64
10, 41760, Note_on_c, 6, 65, 51
10, 41760, Note_on_c, 6, 69, 56
10, 41760, Note_on_c, 6, 72, 61
10, 41848, Note_off_c, 6, 72, 64
10, 41848, Note_off_c, 6, 69, 64
10, 41848, Note_off_c, 6, 65, 64
10, 42720, Note_on_c, 6, 65, 51
10, 42720, Note_on_c, 6, 69, 56
10, 42720, Note_on_c, 6, 72, 61
10, 42808, Note_off_c, 6, 72, 64
10, 42808, Note_off_c, 6, 69, 64
10, 42808, Note_off_c, 6, 65, 64
10, 43680, Note_on_c, 6, 65, 51
10, 43680, Note_on_c, 6, 70, 56
10, 43680, Note_on_c, 6, 73, 61
10, 43768, Note_off_c, 6, 73, 64
10, 43768, Note_off_c, 6, 70, 64
10, 43768, Note_off_c, 6, 65, 64
10, 44640, Note_on_c, 6, 65, 51
10, 44640, Note_on_c, 6, 68, 56
10, 44640, Note_on_c, 6, 73, 61
10, 44728, Note_off_c, 6, 73, 64
10, 44728, Note_off_c, 6, 68, 64
10, 44728, Note_off_c, 6, 65, 64
10, 45600, Note_on_c, 6, 66, 51
10, 45600, Note_on_c, 6, 70, 56
10, 45600, Note_on_c, 6, 73, 61
10, 45688, Note_off_c, 6, 73, 64
10, 45688, Note_off_c, 6, 70, 64
10, 45688, Note_off_c, 6, 66, 64
10, 46560, Note_on_c, 6, 66, 51
10, 46560, Note_on_c, 6, 70, 56
10, 46560, Note_on_c, 6, 73, 61
10, 46648, Note_off_c, 6, 73, 64
10, 46648, Note_off_c, 6, 70, 64
10, 46648, Note_off_c, 6, 66, 64
10, 47520, Note_on_c, 6, 65, 51
10, 47520, Note_on_c, 6, 69, 56
10, 47520, Note_on_c, 6, 72, 61
10, 47608, Note_off_c, 6, 72, 64
10, 47608, Note_off_c, 6, 69, 64
10, 47608, Note_off_c, 6, 65, 64
10, 48480, Note_on_c, 6, 65, 51
10, 48480, Note_on_c, 6, 69, 56
10, 48480, Note_on_c, 6, 72, 61
10, 48568, Note_off_c, 6, 72, 64
10, 48568, Note_off_c, 6, 69, 64
10, 48568, Note_off_c, 6, 65, 64
10, 49440, Note_on_c, 6, 65, 51
10, 49440, Note_on_c, 6, 69, 56
10, 49440, Note_on_c, 6, 72, 61
10, 49528, Note_off_c, 6, 72, 64
10, 49528, Note_off_c, 6, 69, 64
10, 49528, Note_off_c, 6, 65, 64
10, 50400, Note_on_c, 6, 65, 51
10, 50400, Note_on_c, 6, 69, 56
10, 50400, Note_on_c, 6, 72, 61
10, 50488, Note_off_c, 6, 72, 64
10, 50488, Note_off_c, 6, 69, 64
10, 50488, Note_off_c, 6, 65, 64
10, 51360, Note_on_c, 6, 65, 51
10, 51360, Note_on_c, 6, 70, 56
10, 51360, Note_on_c, 6, 74, 61
10, 51448, Note_off_c, 6, 74, 64
10, 51448, Note_off_c, 6, 70, 64
10, 51448, Note_off_c, 6, 65, 64
10, 52320, Note_on_c, 6, 65, 51
10, 52320, Note_on_c, 6, 70, 56
10, 52320, Note_on_c, 6, 74, 61
10, 52408, Note_off_c, 6, 74, 64
10, 52408, Note_off_c, 6, 70, 64
10, 52408, Note_off_c, 6, 65, 64
10, 53280, Note_on_c, 6, 65, 51
10, 53280, Note_on_c, 6, 70, 56
10, 53280, Note_on_c, 6, 74, 61
10, 53368, Note_off_c, 6, 74, 64
10, 53368, Note_off_c, 6, 70, 64
10, 53368, Note_off_c, 6, 65, 64
10, 54240, Note_on_c, 6, 65, 51
10, 54240, Note_on_c, 6, 70, 56
10, 54240, Note_on_c, 6, 74, 61
10, 54328, Note_off_c, 6, 74, 64
10, 54328, Note_off_c, 6, 70, 64
10, 54328, Note_off_c, 6, 65, 64
10, 55200, Note_on_c, 6, 63, 51
10, 55200, Note_on_c, 6, 66, 56
10, 55200, Note_on_c, 6, 70, 61
10, 55288, Note_off_c, 6, 70, 64
10, 55288, Note_off_c, 6, 66, 64
10, 55288, Note_off_c, 6, 63, 64
10, 56160, Note_on_c, 6, 63, 51
10, 56160, Note_on_c, 6, 66, 56
10, 56160, Note_on_c, 6, 70, 61
10, 56248, Note_off_c, 6, 70, 64
10, 56248, Note_off_c, 6, 66, 64
10, 56248, Note_off_c, 6, 63, 64
10, 57120, Note_on_c, 6, 63, 51
10, 57120, Note_on_c, 6, 68, 56
10, 57120, Note_on_c, 6, 72, 61
10, 57208, Note_off_c, 6, 72, 64
10, 57208, Note_off_c, 6, 68, 64
10, 57208, Note_off_c, 6, 63, 64
10, 58080, Note_on_c, 6, 63, 51
10, 58080, Note_on_c, 6, 68, 56
10, 58080, Note_on_c, 6, 72, 61
10, 58168, Note_off_c, 6, 72, 64
10, 58168, Note_off_c, 6, 68, 64
10, 58168, Note_off_c, 6, 63, 64
10, 59040, Note_on_c, 6, 65, 51
10, 59040, Note_on_c, 6, 68, 56
10, 59040, Note_on_c, 6, 73, 61
10, 59128, Note_off_c, 6, 73, 64
10, 59128, Note_off_c, 6, 68, 64
10, 59128, Note_off_c, 6, 65, 64
10, 60000, Note_on_c, 6, 65, 51
10, 60000, Note_on_c, 6, 68, 56
10, 60000, Note_on_c, 6, 73, 61
10, 60088, Note_off_c, 6, 73, 64
10, 60088, Note_off_c, 6, 68, 64
10, 60088, Note_off_c, 6, 65, 64
10, 60960, Note_on_c, 6, 61, 51
10, 60960, Note_on_c, 6, 66, 56
10, 60960, Note_on_c, 6, 70, 61
10, 61048, Note_off_c, 6, 70, 64
10, 61048, Note_off_c, 6, 66, 64
10, 61048, Note_off_c, 6, 61, 64
10, 61920, Note_on_c, 6, 61, 51
10, 61920, Note_on_c, 6, 66, 56
10, 61920, Note_on_c, 6, 70, 61
10, 62008, Note_off_c, 6, 70, 64
10, 62008, Note_off_c, 6, 66, 64
10, 62008, Note_off_c, 6, 61, 64
10, 62880, Note_on_c, 6, 66, 51
10, 62880, Note_on_c, 6, 70, 56
10, 62880, Note_on_c, 6, 72, 61
10, 62968, Note_off_c, 6, 72, 64
10, 62968, Note_off_c, 6, 70, 64
10, 62968, Note_off_c, 6, 66, 64
10, 63840, Note_on_c, 6, 66, 51
10, 63840, Note_on_c, 6, 70, 56
10, 63840, Note_on_c, 6, 72, 61
10, 63928, Note_off_c, 6, 72, 64
10, 63928, Note_off_c, 6, 70, 64
10, 63928, Note_off_c, 6, 66, 64
10, 64800, Note_on_c, 6, 65, 51
10, 64800, Note_on_c, 6, 70, 56
10, 64800, Note_on_c, 6, 73, 61
10, 64888, Note_off_c, 6, 73, 64
10, 64888, Note_off_c, 6, 70, 64
10, 64888, Note_off_c, 6, 65, 64
10, 65760, Note_on_c, 6, 65, 51
10, 65760, Note_on_c, 6, 70, 56
10, 65760, Note_on_c, 6, 73, 61
10, 65848, Note_off_c, 6, 73, 64
10, 65848, Note_off_c, 6, 70, 64
10, 65848, Note_off_c, 6, 65, 64
10, 66720, Note_on_c, 6, 63, 51
10, 66720, Note_on_c, 6, 66, 56
10, 66720, Note_on_c, 6, 70, 61
10, 66808, Note_off_c, 6, 70, 64
10, 66808, Note_off_c, 6, 66, 64
10, 66808, Note_off_c, 6, 63, 64
10, 67680, Note_on_c, 6, 63, 51
10, 67680, Note_on_c, 6, 66, 56
10, 67680, Note_on_c, 6, 70, 61
10, 67768, Note_off_c, 6, 70, 64
10, 67768, Note_off_c, 6, 66, 64
10, 67768, Note_off_c, 6, 63, 64
10, 68640, Note_on_c, 6, 63, 51
10, 68640, Note_on_c, 6, 68, 56
10, 68640, Note_on_c, 6, 72, 61
10, 68728, Note_off_c, 6, 72, 64
10, 68728, Note_off_c, 6, 68, 64
10, 68728, Note_off_c, 6, 63, 64
10, 69600, Note_on_c, 6, 63, 51
10, 69600, Note_on_c, 6, 68, 56
10, 69600, Note_on_c, 6, 72, 61
10, 69688, Note_off_c, 6, 72, 64
10, 69688, Note_off_c, 6, 68, 64
10, 69688, Note_off_c, 6, 63, 64
10, 70560, Note_on_c, 6, 65, 51
10, 70560, Note_on_c, 6, 68, 56
10, 70560, Note_on_c, 6, 73, 61
10, 70648, Note_off_c, 6, 73, 64
10, 70648, Note_off_c, 6, 68, 64
10, 70648, Note_off_c, 6, 65, 64
10, 71520, Note_on_c, 6, 65, 51
10, 71520, Note_on_c, 6, 68, 56
10, 71520, Note_on_c, 6, 73, 61
10, 71608, Note_off_c, 6, 73, 64
10, 71608, Note_off_c, 6, 68, 64
10, 71608, Note_off_c, 6, 65, 64
10, 72480, Note_on_c, 6, 61, 51
10, 72480, Note_on_c, 6, 66, 56
10, 72480, Note_on_c, 6, 70, 61
10, 72568, Note_off_c, 6, 70, 64
10, 72568, Note_off_c, 6, 66, 64
10, 72568, Note_off_c, 6, 61, 64
10, 73440, Note_on_c, 6, 61, 51
10, 73440, Note_on_c, 6, 66, 56
10, 73440, Note_on_c, 6, 70, 61
10, 73528, Note_off_c, 6, 70, 64
10, 73528, Note_off_c, 6, 66, 64
10, 73528, Note_off_c, 6, 61, 64
10, 74400, Note_on_c, 6, 64, 51
10, 74400, Note_on_c, 6, 67, 56
10, 74400, Note_on_c, 6, 72, 61
10, 74488, Note_off_c, 6, 72, 64
10, 74488, Note_off_c, 6, 67, 64
10, 74488, Note_off_c, 6, 64, 64
10, 75360, Note_on_c, 6, 64, 51
10, 75360, Note_on_c, 6, 67, 56
10, 75360, Note_on_c, 6, 72, 61
10, 75448, Note_off_c, 6, 72, 64
10, 75448, Note_off_c, 6, 67, 64
10, 75448, Note_off_c, 6, 64, 64
10, 76320, Note_on_c, 6, 65, 51
10, 76320, Note_on_c, 6, 69, 56
10, 76320, Note_on_c, 6, 72, 61
10, 76408, Note_off_c, 6, 72, 64
10, 76408, Note_off_c, 6, 69, 64
10, 76408, Note_off_c, 6, 65, 64
10, 77280, Note_on_c, 6, 65, 51
10, 77280, Note_on_c, 6, 69, 56
10, 77280, Note_on_c, 6, 72, 61
10, 77368, Note_off_c, 6, 72, 64
10, 77368, Note_off_c, 6, 69, 64
10, 77368, Note_off_c, 6, 65, 64
10, 78240, Note_on_c, 6, 65, 51
10, 78240, Note_on_c, 6, 69, 56
10, 78240, Note_on_c, 6, 72, 61
10, 78328, Note_off_c, 6, 72, 64
10, 78328, Note_off_c, 6, 69, 64
10, 78328, Note_off_c, 6, 65, 64
10, 79200, Note_on_c, 6, 65, 51
10, 79200, Note_on_c, 6, 69, 56
10, 79200, Note_on_c, 6, 72, 61
10, 79288, Note_off_c, 6, 72, 64
10, 79288, Note_off_c, 6, 69, 64
10, 79288, Note_off_c, 6, 65, 64
10, 80160, Note_on_c, 6, 65, 51
10, 80160, Note_on_c, 6, 70, 56
10, 80160, Note_on_c, 6, 73, 61
10, 80248, Note_off_c, 6, 73, 64
10, 80248, Note_off_c, 6, 70, 64
10, 80248, Note_off_c, 6, 65, 64
10, 81120, Note_on_c, 6, 65, 51
10, 81120, Note_on_c, 6, 70, 56
10, 81120, Note_on_c, 6, 73, 61
10, 81208, Note_off_c, 6, 73, 64
10, 81208, Note_off_c, 6, 70, 64
10, 81208, Note_off_c, 6, 65, 64
10, 82080, Note_on_c, 6, 65, 51
10, 82080, Note_on_c, 6, 70, 56
10, 82080, Note_on_c, 6, 73, 61
10, 82168, Note_off_c, 6, 73, 64
10, 82168, Note_off_c, 6, 70, 64
10, 82168, Note_off_c, 6, 65, 64
10, 83040, Note_on_c, 6, 65, 51
10, 83040, Note_on_c, 6, 70, 56
10, 83040, Note_on_c, 6, 73, 61
10, 83128, Note_off_c, 6, 73, 64
10, 83128, Note_off_c, 6, 70, 64
10, 83128, Note_off_c, 6, 65, 64
10, 84000, Note_on_c, 6, 65, 51
10, 84000, Note_on_c, 6, 69, 56
10, 84000, Note_on_c, 6, 72, 61
10, 84088, Note_off_c, 6, 72, 64
10, 84088, Note_off_c, 6, 69, 64
10, 84088, Note_off_c, 6, 65, 64
10, 84960, Note_on_c, 6, 65, 51
10, 84960, Note_on_c, 6, 69, 56
10, 84960, Note_on_c, 6, 72, 61
10, 85048, Note_off_c, 6, 72, 64
10, 85048, Note_off_c, 6, 69, 64
10, 85048, Note_off_c, 6, 65, 64
10, 85920, Note_on_c, 6, 65, 51
10, 85920, Note_on_c, 6, 69, 56
10, 85920, Note_on_c, 6, 72, 61
10, 86008, Note_off_c, 6, 72, 64
10, 86008, Note_off_c, 6, 69, 64
10, 86008, Note_off_c, 6, 65, 64
10, 86880, Note_on_c, 6, 65, 51
10, 86880, Note_on_c, 6, 69, 56
10, 86880, Note_on_c, 6, 72, 61
10, 86968, Note_off_c, 6, 72, 64
10, 86968, Note_off_c, 6, 69, 64
10, 86968, Note_off_c, 6, 65, 64
10, 87840, Note_on_c, 6, 65, 51
10, 87840, Note_on_c, 6, 70, 56
10, 87840, Note_on_c, 6, 73, 61
10, 87928, Note_off_c, 6, 73, 64
10, 87928, Note_off_c, 6, 70, 64
10, 87928, Note_off_c, 6, 65, 64
10, 88800, Note_on_c, 6, 65, 51
10, 88800, Note_on_c, 6, 68, 56
10, 88800, Note_on_c, 6, 73, 61
10, 88888, Note_off_c, 6, 73, 64
10, 88888, Note_off_c, 6, 68, 64
10, 88888, Note_off_c, 6, 65, 64
10, 89760, Note_on_c, 6, 66, 51
10, 89760, Note_on_c, 6, 70, 56
10, 89760, Note_on_c, 6, 73, 61
10, 89848, Note_off_c, 6, 73, 64
10, 89848, Note_off_c, 6, 70, 64
10, 89848, Note_off_c, 6, 66, 64
10, 90720, Note_on_c, 6, 66, 51
10, 90720, Note_on_c, 6, 70, 56
10, 90720, Note_on_c, 6, 73, 61
10, 90808, Note_off_c, 6, 73, 64
10, 90808, Note_off_c, 6, 70, 64
10, 90808, Note_off_c, 6, 66, 64
10, 91680, Note_on_c, 6, 65, 51
10, 91680, Note_on_c, 6, 69, 56
10, 91680, Note_on_c, 6, 72, 61
10, 91768, Note_off_c, 6, 72, 64
10, 91768, Note_off_c, 6, 69, 64
10, 91768, Note_off_c, 6, 65, 64
10, 92640, Note_on_c, 6, 65, 51
10, 92640, Note_on_c, 6, 69, 56
10, 92640, Note_on_c, 6, 72, 61
10, 92728, Note_off_c, 6, 72, 64
10, 92728, Note_off_c, 6, 69, 64
10, 92728, Note_off_c, 6, 65, 64
10, 93600, Note_on_c, 6, 65, 51
10, 93600, Note_on_c, 6, 69, 56
10, 93600, Note_on_c, 6, 72, 61
10, 93688, Note_off_c, 6, 72, 64
10, 93688, Note_off_c, 6, 69, 64
10, 93688, Note_off_c, 6, 65, 64
10, 94560, Note_on_c, 6, 65, 51
10, 94560, Note_on_c, 6, 69, 56
10, 94560, Note_on_c, 6, 72, 61
10, 94648, Note_off_c, 6, 72, 64
10, 94648, Note_off_c, 6, 69, 64
10, 94648, Note_off_c, 6, 65, 64
10, 95520, Note_on_c, 6, 65, 51
10, 95520, Note_on_c, 6, 70, 56
10, 95520, Note_on_c, 6, 73, 61
10, 95608, Note_off_c, 6, 73, 64
10, 95608, Note_off_c, 6, 70, 64
10, 95608, Note_off_c, 6, 65, 64
10, 96480, Note_on_c, 6, 65, 51
10, 96480, Note_on_c, 6, 70, 56
10, 96480, Note_on_c, 6, 73, 61
10, 96568, Note_off_c, 6, 73, 64
10, 96568, Note_off_c, 6, 70, 64
10, 96568, Note_off_c, 6, 65, 64
10, 97440, Note_on_c, 6, 65, 51
10, 97440, Note_on_c, 6, 70, 56
10, 97440, Note_on_c, 6, 73, 61
10, 97528, Note_off_c, 6, 73, 64
10, 97528, Note_off_c, 6, 70, 64
10, 97528, Note_off_c, 6, 65, 64
10, 98400, Note_on_c, 6, 65, 51
10, 98400, Note_on_c, 6, 70, 56
10, 98400, Note_on_c, 6, 73, 61
10, 98488, Note_off_c, 6, 73, 64
10, 98488, Note_off_c, 6, 70, 64
10, 98488, Note_off_c, 6, 65, 64
10, 99340, Pitch_bend_c, 6, 8192
10, 99360, Note_on_c, 6, 66, 51
10, 99360, Note_on_c, 6, 71, 56
10, 99360, Note_on_c, 6, 74, 61
10, 99448, Note_off_c, 6, 74, 64
10, 99448, Note_off_c, 6, 71, 64
10, 99448, Note_off_c, 6, 66, 64
10, 100320, Note_on_c, 6, 66, 51
10, 100320, Note_on_c, 6, 71, 56
10, 100320, Note_on_c, 6, 74, 61
10, 100408, Note_off_c, 6, 74, 64
10, 100408, Note_off_c, 6, 71, 64
10, 100408, Note_off_c, 6, 66, 64
10, 101280, Note_on_c, 6, 66, 51
10, 101280, Note_on_c, 6, 71, 56
10, 101280, Note_on_c, 6, 74, 61
10, 101368, Note_off_c, 6, 74, 64
10, 101368, Note_off_c, 6, 71, 64
10, 101368, Note_off_c, 6, 66, 64
10, 102240, Note_on_c, 6, 66, 51
10, 102240, Note_on_c, 6, 71, 56
10, 102240, Note_on_c, 6, 74, 61
10, 102328, Note_off_c, 6, 74, 64
10, 102328, Note_off_c, 6, 71, 64
10, 102328, Note_off_c, 6, 66, 64
10, 103200, Note_on_c, 6, 66, 51
10, 103200, Note_on_c, 6, 70, 56
10, 103200, Note_on_c, 6, 73, 61
10, 103288, Note_off_c, 6, 73, 64
10, 103288, Note_off_c, 6, 70, 64
10, 103288, Note_off_c, 6, 66, 64
10, 104160, Note_on_c, 6, 66, 51
10, 104160, Note_on_c, 6, 70, 56
10, 104160, Note_on_c, 6, 73, 61
10, 104248, Note_off_c, 6, 73, 64
10, 104248, Note_off_c, 6, 70, 64
10, 104248, Note_off_c, 6, 66, 64
10, 105120, Note_on_c, 6, 66, 51
10, 105120, Note_on_c, 6, 70, 56
10, 105120, Note_on_c, 6, 73, 61
10, 105208, Note_off_c, 6, 73, 64
10, 105208, Note_off_c, 6, 70, 64
10, 105208, Note_off_c, 6, 66, 64
10, 106080, Note_on_c, 6, 66, 51
10, 106080, Note_on_c, 6, 70, 56
10, 106080, Note_on_c, 6, 73, 61
10, 106168, Note_off_c, 6, 73, 64
10, 106168, Note_off_c, 6, 70, 64
10, 106168, Note_off_c, 6, 66, 64
10, 107040, Note_on_c, 6, 66, 51
10, 107040, Note_on_c, 6, 71, 56
10, 107040, Note_on_c, 6, 74, 61
10, 107128, Note_off_c, 6, 74, 64
10, 107128, Note_off_c, 6, 71, 64
10, 107128, Note_off_c, 6, 66, 64
10, 108000, Note_on_c, 6, 66, 51
10, 108000, Note_on_c, 6, 69, 56
10, 108000, Note_on_c, 6, 74, 61
10, 108088, Note_off_c, 6, 74, 64
10, 108088, Note_off_c, 6, 69, 64
10, 108088, Note_off_c, 6, 66, 64
10, 108960, Note_on_c, 6, 67, 51
10, 108960, Note_on_c, 6, 71, 56
10, 108960, Note_on_c, 6, 74, 61
10, 109048, Note_off_c, 6, 74, 64
10, 109048, Note_off_c, 6, 71, 64
10, 109048, Note_off_c, 6, 67, 64
10, 109920, Note_on_c, 6, 67, 51
10, 109920, Note_on_c, 6, 71, 56
10, 109920, Note_on_c, 6, 74, 61
10, 110008, Note_off_c, 6, 74, 64
10, 110008, Note_off_c, 6, 71, 64
10, 110008, Note_off_c, 6, 67, 64
10, 110880, Note_on_c, 6, 66, 51
10, 110880, Note_on_c, 6, 70, 56
10, 110880, Note_on_c, 6, 73, 61
10, 110968, Note_off_c, 6, 73, 64
10, 110968, Note_off_c, 6, 70, 64
10, 110968, Note_off_c, 6, 66, 64
10, 111840, Note_on_c, 6, 66, 51
10, 111840, Note_on_c, 6, 70, 56
10, 111840, Note_on_c, 6, 73, 61
10, 111928, Note_off_c, 6, 73, 64
10, 111928, Note_off_c, 6, 70, 64
10, 111928, Note_off_c, 6, 66, 64
10, 111928, End_track
11, 0, Start_track
11, 0, Title_t, "Piano"
11, 0, MIDI_port, 0
11, 0, Channel_prefix, 7
11, 0, Control_c, 7, 7, 100
11, 0, Control_c, 7, 10, 55
11, 0, Program_c, 7, 0
11, 1020, Control_c, 7, 11, 100
11, 1028, Control_c, 7, 91, 80
11, 1040, Control_c, 7, 93, 0
11, 35520, Note_on_c, 7, 58, 85
11, 35540, Control_c, 7, 64, 127
11, 35728, Note_off_c, 7, 58, 64
11, 35760, Note_on_c, 7, 65, 92
11, 35968, Note_off_c, 7, 65, 64
11, 36000, Note_on_c, 7, 70, 96
11, 36208, Note_off_c, 7, 70, 64
11, 36240, Note_on_c, 7, 65, 89
11, 36448, Note_off_c, 7, 65, 64
11, 36460, Control_c, 7, 64, 0
11, 36480, Note_on_c, 7, 58, 85
11, 36500, Control_c, 7, 64, 127
11, 36688, Note_off_c, 7, 58, 64
11, 36720, Note_on_c, 7, 65, 92
11, 36928, Note_off_c, 7, 65, 64
11, 36960, Note_on_c, 7, 70, 96
11, 37168, Note_off_c, 7, 70, 64
11, 37200, Note_on_c, 7, 65, 89
11, 37408, Note_off_c, 7, 65, 64
11, 37420, Control_c, 7, 64, 0
11, 37440, Note_on_c, 7, 58, 85
11, 37460, Control_c, 7, 64, 127
11, 37648, Note_off_c, 7, 58, 64
11, 37680, Note_on_c, 7, 65, 92
11, 37888, Note_off_c, 7, 65, 64
11, 37920, Note_on_c, 7, 70, 96
11, 38128, Note_off_c, 7, 70, 64
11, 38160, Note_on_c, 7, 65, 89
11, 38368, Note_off_c, 7, 65, 64
11, 38380, Control_c, 7, 64, 0
11, 38400, Note_on_c, 7, 58, 85
11, 38420, Control_c, 7, 64, 127
11, 38608, Note_off_c, 7, 58, 64
11, 38640, Note_on_c, 7, 65, 92
11, 38848, Note_off_c, 7, 65, 64
11, 38880, Note_on_c, 7, 70, 96
11, 39088, Note_off_c, 7, 70, 64
11, 39120, Note_on_c, 7, 65, 89
11, 39328, Note_off_c, 7, 65, 64
11, 39340, Control_c, 7, 64, 0
11, 39360, Note_on_c, 7, 57, 85
11, 39380, Control_c, 7, 64, 127
11, 39568, Note_off_c, 7, 57, 64
11, 39600, Note_on_c, 7, 60, 89
11, 39808, Note_off_c, 7, 60, 64
11, 39840, Note_on_c, 7, 65, 96
11, 40048, Note_off_c, 7, 65, 64
11, 40080, Note_on_c, 7, 60, 89
11, 40288, Note_off_c, 7, 60, 64
11, 40300, Control_c, 7, 64, 0
11, 40320, Note_on_c, 7, 57, 85
11, 40340, Control_c, 7, 64, 127
11, 40528, Note_off_c, 7, 57, 64
11, 40560, Note_on_c, 7, 60, 89
11, 40768, Note_off_c, 7, 60, 64
11, 40800, Note_on_c, 7, 65, 96
11, 41008, Note_off_c, 7, 65, 64
11, 41040, Note_on_c, 7, 60, 89
11, 41248, Note_off_c, 7, 60, 64
11, 41260, Control_c, 7, 64, 0
11, 41280, Note_on_c, 7, 57, 85
11, 41300, Control_c, 7, 64, 127
11, 41488, Note_off_c, 7, 57, 64
11, 41520, Note_on_c, 7, 60, 89
11, 41728, Note_off_c, 7, 60, 64
11, 41760, Note_on_c, 7, 65, 96
11, 41968, Note_off_c, 7, 65, 64
11, 42000, Note_on_c, 7, 60, 89
11, 42208, Note_off_c, 7, 60, 64
11, 42220, Control_c, 7, 64, 0
11, 42240, Note_on_c, 7, 57, 85
11, 42260, Control_c, 7, 64, 127
11, 42448, Note_off_c, 7, 57, 64
11, 42480, Note_on_c, 7, 60, 89
11, 42688, Note_off_c, 7, 60, 64
11, 42720, Note_on_c, 7, 65, 96
11, 42928, Note_off_c, 7, 65, 64
11, 42960, Note_on_c, 7, 60, 89
11, 43168, Note_off_c, 7, 60, 64
11, 43180, Control_c, 7, 64, 0
11, 43200, Note_on_c, 7, 58, 85
11, 43220, Control_c, 7, 64, 127
11, 43408, Note_off_c, 7, 58, 64
11, 43440, Note_on_c, 7, 65, 92
11, 43648, Note_off_c, 7, 65, 64
11, 43680, Note_on_c, 7, 70, 96
11, 43888, Note_off_c, 7, 70, 64
11, 43920, Note_on_c, 7, 65, 89
11, 44128, Note_off_c, 7, 65, 64
11, 44140, Control_c, 7, 64, 0
11, 44160, Note_on_c, 7, 58, 85
11, 44180, Control_c, 7, 64, 127
11, 44368, Note_off_c, 7, 58, 64
11, 44400, Note_on_c, 7, 65, 92
11, 44608, Note_off_c, 7, 65, 64
11, 44640, Note_on_c, 7, 70, 96
11, 44848, Note_off_c, 7, 70, 64
11, 44880, Note_on_c, 7, 65, 89
11, 45088, Note_off_c, 7, 65, 64
11, 45100, Control_c, 7, 64, 0
11, 45120, Note_on_c, 7, 54, 85
11, 45140, Control_c, 7, 64, 127
11, 45328, Note_off_c, 7, 54, 64
11, 45360, Note_on_c, 7, 61, 92
11, 45568, Note_off_c, 7, 61, 64
11, 45600, Note_on_c, 7, 66, 96
11, 45808, Note_off_c, 7, 66, 64
11, 45840, Note_on_c, 7, 61, 89
11, 46048, Note_off_c, 7, 61, 64
11, 46060, Control_c, 7, 64, 0
11, 46080, Note_on_c, 7, 54, 85
11, 46100, Control_c, 7, 64, 127
11, 46288, Note_off_c, 7, 54, 64
11, 46320, Note_on_c, 7, 61, 92
11, 46528, Note_off_c, 7, 61, 64
11, 46560, Note_on_c, 7, 66, 96
11, 46768, Note_off_c, 7, 66, 64
11, 46800, Note_on_c, 7, 61, 89
11, 47008, Note_off_c, 7, 61, 64
11, 47020, Control_c, 7, 64, 0
11, 47040, Note_on_c, 7, 53, 85
11, 47060, Control_c, 7, 64, 127
11, 47248, Note_off_c, 7, 53, 64
11, 47280, Note_on_c, 7, 60, 89
11, 47488, Note_off_c, 7, 60, 64
11, 47520, Note_on_c, 7, 65, 96
11, 47728, Note_off_c, 7, 65, 64
11, 47760, Note_on_c, 7, 60, 89
11, 47968, Note_off_c, 7, 60, 64
11, 47980, Control_c, 7, 64, 0
11, 48000, Note_on_c, 7, 53, 85
11, 48020, Control_c, 7, 64, 127
11, 48208, Note_off_c, 7, 53, 64
11, 48240, Note_on_c, 7, 60, 89
11, 48448, Note_off_c, 7, 60, 64
11, 48480, Note_on_c, 7, 65, 96
11, 48688, Note_off_c, 7, 65, 64
11, 48720, Note_on_c, 7, 60, 89
11, 48928, Note_off_c, 7, 60, 64
11, 48940, Control_c, 7, 64, 0
11, 48960, Note_on_c, 7, 53, 85
11, 48980, Control_c, 7, 64, 127
11, 49168, Note_off_c, 7, 53, 64
11, 49200, Note_on_c, 7, 60, 89
11, 49408, Note_off_c, 7, 60, 64
11, 49440, Note_on_c, 7, 65, 96
11, 49648, Note_off_c, 7, 65, 64
11, 49680, Note_on_c, 7, 60, 89
11, 49888, Note_off_c, 7, 60, 64
11, 49900, Control_c, 7, 64, 0
11, 49920, Note_on_c, 7, 53, 85
11, 49940, Control_c, 7, 64, 127
11, 50128, Note_off_c, 7, 53, 64
11, 50160, Note_on_c, 7, 60, 89
11, 50368, Note_off_c, 7, 60, 64
11, 50400, Note_on_c, 7, 65, 96
11, 50608, Note_off_c, 7, 65, 64
11, 50640, Note_on_c, 7, 60, 89
11, 50848, Note_off_c, 7, 60, 64
11, 50860, Control_c, 7, 64, 0
11, 50880, Note_on_c, 7, 58, 85
11, 50900, Control_c, 7, 64, 127
11, 51088, Note_off_c, 7, 58, 64
11, 51120, Note_on_c, 7, 65, 92
11, 51328, Note_off_c, 7, 65, 64
11, 51360, Note_on_c, 7, 70, 96
11, 51568, Note_off_c, 7, 70, 64
11, 51600, Note_on_c, 7, 65, 89
11, 51808, Note_off_c, 7, 65, 64
11, 51820, Control_c, 7, 64, 0
11, 51840, Note_on_c, 7, 58, 85
11, 51860, Control_c, 7, 64, 127
11, 52048, Note_off_c, 7, 58, 64
11, 52080, Note_on_c, 7, 65, 92
11, 52288, Note_off_c, 7, 65, 64
11, 52320, Note_on_c, 7, 70, 96
11, 52528, Note_off_c, 7, 70, 64
11, 52560, Note_on_c, 7, 65, 89
11, 52768, Note_off_c, 7, 65, 64
11, 52780, Control_c, 7, 64, 0
11, 52800, Note_on_c, 7, 58, 85
11, 52820, Control_c, 7, 64, 127
11, 53008, Note_off_c, 7, 58, 64
11, 53040, Note_on_c, 7, 65, 92
11, 53248, Note_off_c, 7, 65, 64
11, 53280, Note_on_c, 7, 70, 96
11, 53488, Note_off_c, 7, 70, 64
11, 53520, Note_on_c, 7, 65, 89
11, 53728, Note_off_c, 7, 65, 64
11, 53740, Control_c, 7, 64, 0
11, 53760, Note_on_c, 7, 58, 85
11, 53780, Control_c, 7, 64, 127
11, 53968, Note_off_c, 7, 58, 64
11, 54000, Note_on_c, 7, 65, 92
11, 54208, Note_off_c, 7, 65, 64
11, 54240, Note_on_c, 7, 70, 96
11, 54448, Note_off_c, 7, 70, 64
11, 54480, Note_on_c, 7, 65, 89
11, 54688, Note_off_c, 7, 65, 64
11, 54700, Control_c, 7, 64, 0
11, 114240, Note_on_c, 7, 47, 102
11, 114240, Note_on_c, 7, 59, 102
11, 117620, Note_off_c, 7, 59, 64
11, 117620, Note_off_c, 7, 47, 64
11, 118080, Note_on_c, 7, 47, 91
11, 118080, Note_on_c, 7, 59, 85
11, 118080, Note_on_c, 7, 74, 88
11, 118080, Note_on_c, 7, 83, 88
11, 118080, Note_on_c, 7, 66, 75
11, 119868, Note_off_c, 7, 66, 64
11, 119868, Note_off_c, 7, 83, 64
11, 119868, Note_off_c, 7, 74, 64
11, 119868, Note_off_c, 7, 59, 64
11, 119868, Note_off_c, 7, 47, 64
11, 119868, End_track
12, 0, Start_track
12, 0, Title_t, "Piano"
12, 0, MIDI_port, 0
12, 0, Channel_prefix, 8
12, 0, Control_c, 8, 7, 100
12, 0, Control_c, 8, 10, 75
12, 0, Program_c, 8, 0
12, 1020, Control_c, 8, 11, 100
12, 1028, Control_c, 8, 91, 100
12, 1040, Control_c, 8, 93, 0
12, 4080, Note_on_c, 8, 73, 85
12, 4080, Note_on_c, 8, 85, 83
12, 4300, Note_off_c, 8, 85, 64
12, 4300, Note_off_c, 8, 73, 64
12, 4320, Note_on_c, 8, 73, 83
12, 4320, Note_on_c, 8, 85, 85
12, 4540, Note_off_c, 8, 85, 64
12, 4540, Note_off_c, 8, 73, 64
12, 4560, Note_on_c, 8, 72, 88
12, 4560, Note_on_c, 8, 84, 91
12, 4780, Note_off_c, 8, 84, 64
12, 4780, Note_off_c, 8, 72, 64
12, 4800, Note_on_c, 8, 84, 93
12, 4800, Note_on_c, 8, 72, 88
12, 5020, Note_off_c, 8, 72, 64
12, 5020, Note_off_c, 8, 84, 64
12, 5040, Note_on_c, 8, 70, 86
12, 5040, Note_on_c, 8, 82, 84
12, 5260, Note_off_c, 8, 82, 64
12, 5260, Note_off_c, 8, 70, 64
12, 5280, Note_on_c, 8, 70, 86
12, 5280, Note_on_c, 8, 82, 88
12, 5728, Note_off_c, 8, 82, 64
12, 5728, Note_off_c, 8, 70, 64
12, 6000, Note_on_c, 8, 77, 79
12, 6000, Note_on_c, 8, 85, 90
12, 6220, Note_off_c, 8, 85, 64
12, 6220, Note_off_c, 8, 77, 64
12, 6240, Note_on_c, 8, 77, 79
12, 6240, Note_on_c, 8, 85, 78
12, 6460, Note_off_c, 8, 85, 64
12, 6460, Note_off_c, 8, 77, 64
12, 6480, Note_on_c, 8, 75, 86
12, 6480, Note_on_c, 8, 84, 77
12, 6700, Note_off_c, 8, 84, 64
12, 6700, Note_off_c, 8, 75, 64
12, 6720, Note_on_c, 8, 75, 80
12, 6720, Note_on_c, 8, 84, 88
12, 6940, Note_off_c, 8, 84, 64
12, 6940, Note_off_c, 8, 75, 64
12, 6960, Note_on_c, 8, 82, 81
12, 6960, Note_on_c, 8, 73, 83
12, 7180, Note_off_c, 8, 73, 64
12, 7180, Note_off_c, 8, 82, 64
12, 7200, Note_on_c, 8, 82, 78
12, 7200, Note_on_c, 8, 73, 83
12, 7420, Note_off_c, 8, 73, 64
12, 7420, Note_off_c, 8, 82, 64
12, 7440, Note_on_c, 8, 72, 82
12, 7440, Note_on_c, 8, 80, 80
12, 7660, Note_off_c, 8, 80, 64
12, 7660, Note_off_c, 8, 72, 64
12, 7680, Note_on_c, 8, 72, 77
12, 7680, Note_on_c, 8, 80, 90
12, 7900, Note_off_c, 8, 80, 64
12, 7900, Note_off_c, 8, 72, 64
12, 7920, Note_on_c, 8, 70, 83
12, 7920, Note_on_c, 8, 78, 83
12, 8140, Note_off_c, 8, 78, 64
12, 8140, Note_off_c, 8, 70, 64
12, 8180, Note_on_c, 8, 78, 94
12, 8180, Note_on_c, 8, 85, 112
12, 9528, Note_off_c, 8, 85, 64
12, 9528, Note_off_c, 8, 78, 64
12, 11020, Note_on_c, 8, 77, 34
12, 11080, Note_on_c, 8, 81, 44
12, 11120, Note_on_c, 8, 84, 54
12, 11140, Control_c, 8, 64, 127
12, 12460, Control_c, 8, 64, 0
12, 12480, Control_c, 8, 64, 127
12, 12480, Note_on_c, 8, 61, 56
12, 12480, Note_on_c, 8, 58, 39
12, 12480, Note_on_c, 8, 65, 67
12, 12480, Note_on_c, 8, 46, 58
12, 12500, Note_on_c, 8, 70, 83
12, 12560, Note_off_c, 8, 65, 64
12, 12560, Note_off_c, 8, 61, 64
12, 12628, Note_off_c, 8, 70, 64
12, 12808, Note_off_c, 8, 84, 64
12, 12820, Note_off_c, 8, 77, 64
12, 12848, Note_off_c, 8, 81, 64
12, 12848, Note_off_c, 8, 58, 64
12, 13000, Note_on_c, 8, 58, 36
12, 13680, Note_on_c, 8, 82, 76
12, 13680, Note_on_c, 8, 73, 76
12, 13688, Note_on_c, 8, 77, 43
12, 13708, Note_off_c, 8, 58, 64
12, 14028, Note_off_c, 8, 82, 64
12, 14048, Note_off_c, 8, 77, 64
12, 14068, Note_off_c, 8, 46, 64
12, 14068, Note_off_c, 8, 73, 64
12, 14408, Note_on_c, 8, 61, 65
12, 14420, Note_on_c, 8, 65, 70
12, 14428, Note_on_c, 8, 46, 50
12, 14480, Control_c, 8, 64, 0
12, 14628, Control_c, 8, 64, 127
12, 14908, Note_on_c, 8, 58, 36
12, 14948, Note_off_c, 8, 61, 64
12, 15108, Note_on_c, 8, 61, 45
12, 15116, Note_off_c, 8, 58, 64
12, 15120, Note_on_c, 8, 70, 50
12, 15400, Note_on_c, 8, 58, 14
12, 15840, Note_off_c, 8, 70, 64
12, 15848, Note_off_c, 8, 46, 64
12, 16020, Note_off_c, 8, 58, 64
12, 16048, Note_off_c, 8, 61, 64
12, 16068, Note_off_c, 8, 65, 64
12, 16240, Control_c, 8, 64, 0
12, 16280, Note_on_c, 8, 61, 63
12, 16308, Note_on_c, 8, 58, 52
12, 16320, Note_on_c, 8, 46, 58
12, 16320, Note_on_c, 8, 70, 48
12, 16320, Note_on_c, 8, 65, 83
12, 16400, Control_c, 8, 64, 127
12, 17120, Note_off_c, 8, 46, 64
12, 17268, Note_off_c, 8, 61, 64
12, 17268, Note_off_c, 8, 70, 64
12, 17308, Note_off_c, 8, 65, 64
12, 17348, Note_on_c, 8, 46, 24
12, 17548, Note_on_c, 8, 61, 55
12, 17668, Note_off_c, 8, 61, 64
12, 17668, Note_on_c, 8, 65, 80
12, 17768, Note_off_c, 8, 65, 64
12, 17800, Note_on_c, 8, 70, 50
12, 17828, Note_off_c, 8, 70, 64
12, 17920, Note_on_c, 8, 73, 73
12, 18008, Note_off_c, 8, 73, 64
12, 18040, Note_on_c, 8, 77, 65
12, 18080, Note_off_c, 8, 77, 64
12, 18248, Note_on_c, 8, 82, 80
12, 18288, Note_off_c, 8, 82, 64
12, 18348, Note_off_c, 8, 46, 64
12, 18740, Note_on_c, 8, 46, 9
12, 18948, Note_on_c, 8, 61, 59
12, 19208, Note_on_c, 8, 65, 48
12, 19436, Note_off_c, 8, 58, 64
12, 19448, Note_off_c, 8, 65, 64
12, 19460, Note_on_c, 8, 70, 19
12, 19616, Note_off_c, 8, 61, 64
12, 19660, Note_off_c, 8, 46, 64
12, 19700, Note_off_c, 8, 70, 64
12, 20108, Note_on_c, 8, 60, 45
12, 20108, Control_c, 8, 64, 127
12, 20140, Note_on_c, 8, 65, 50
12, 20148, Note_on_c, 8, 57, 41
12, 20160, Note_on_c, 8, 45, 80
12, 20180, Note_on_c, 8, 69, 76
12, 20240, Note_off_c, 8, 65, 64
12, 20256, Note_off_c, 8, 60, 64
12, 20268, Note_off_c, 8, 69, 64
12, 20468, Note_off_c, 8, 57, 64
12, 20920, Note_on_c, 8, 57, 49
12, 21160, Note_on_c, 8, 65, 52
12, 21248, Note_off_c, 8, 65, 64
12, 21268, Note_on_c, 8, 69, 73
12, 21348, Note_off_c, 8, 69, 64
12, 21380, Note_on_c, 8, 72, 63
12, 21420, Note_off_c, 8, 72, 64
12, 21588, Note_on_c, 8, 77, 83
12, 21600, Note_off_c, 8, 57, 64
12, 21668, Note_off_c, 8, 77, 64
12, 21840, Note_on_c, 8, 57, 42
12, 22068, Note_on_c, 8, 69, 76
12, 22080, Note_on_c, 8, 65, 61
12, 22088, Note_off_c, 8, 57, 64
12, 22360, Note_on_c, 8, 57, 2
12, 22448, Note_off_c, 8, 65, 64
12, 22476, Note_off_c, 8, 69, 64
12, 22540, Note_on_c, 8, 72, 70
12, 22548, Note_on_c, 8, 69, 73
12, 22548, Note_on_c, 8, 65, 73
12, 22568, Note_off_c, 8, 57, 64
12, 22588, Note_off_c, 8, 69, 64
12, 22828, Note_on_c, 8, 57, 2
12, 22868, Note_off_c, 8, 72, 64
12, 22936, Note_off_c, 8, 65, 64
12, 23040, Note_on_c, 8, 69, 53
12, 23216, Note_off_c, 8, 57, 64
12, 23280, Note_on_c, 8, 65, 76
12, 23368, Note_off_c, 8, 45, 64
12, 23520, Note_on_c, 8, 57, 73
12, 23568, Note_off_c, 8, 57, 64
12, 23580, Note_off_c, 8, 69, 64
12, 23640, Note_off_c, 8, 65, 64
12, 23908, Control_c, 8, 64, 127
12, 23960, Note_on_c, 8, 70, 44
12, 24008, Note_on_c, 8, 58, 37
12, 24008, Note_on_c, 8, 73, 67
12, 24008, Note_on_c, 8, 46, 52
12, 24048, Note_on_c, 8, 77, 65
12, 24080, Note_off_c, 8, 70, 64
12, 24088, Note_off_c, 8, 73, 64
12, 24128, Note_off_c, 8, 77, 64
12, 24928, Note_on_c, 8, 70, 49
12, 24960, Note_on_c, 8, 73, 76
12, 25000, Note_on_c, 8, 77, 52
12, 25016, Note_off_c, 8, 70, 64
12, 25028, Note_off_c, 8, 73, 64
12, 25068, Note_off_c, 8, 77, 64
12, 25256, Note_off_c, 8, 46, 64
12, 25296, Note_off_c, 8, 58, 64
12, 25440, Note_on_c, 8, 68, 46
12, 25448, Control_c, 8, 64, 0
12, 25460, Note_on_c, 8, 72, 67
12, 25468, Note_on_c, 8, 58, 41
12, 25468, Note_on_c, 8, 75, 89
12, 25480, Note_on_c, 8, 46, 53
12, 25568, Control_c, 8, 64, 127
12, 25648, Note_off_c, 8, 72, 64
12, 25668, Note_off_c, 8, 58, 64
12, 25688, Note_off_c, 8, 75, 64
12, 25700, Note_off_c, 8, 68, 64
12, 25720, Note_off_c, 8, 46, 64
12, 25928, Note_on_c, 8, 70, 89
12, 25928, Note_on_c, 8, 66, 76
12, 25928, Note_on_c, 8, 73, 99
12, 25948, Control_c, 8, 64, 0
12, 25948, Note_on_c, 8, 54, 63
12, 25960, Note_on_c, 8, 42, 73
12, 26168, Control_c, 8, 64, 127
12, 26548, Note_off_c, 8, 42, 64
12, 26696, Note_off_c, 8, 70, 64
12, 26788, Note_off_c, 8, 73, 64
12, 26808, Note_off_c, 8, 66, 64
12, 26880, Note_on_c, 8, 42, 59
12, 27140, Note_on_c, 8, 66, 33
12, 27228, Note_off_c, 8, 66, 64
12, 27368, Note_on_c, 8, 73, 105
12, 27368, Note_on_c, 8, 66, 94
12, 27476, Note_off_c, 8, 54, 64
12, 27580, Note_off_c, 8, 42, 64
12, 27608, Note_off_c, 8, 73, 64
12, 27616, Note_off_c, 8, 66, 64
12, 27720, Note_on_c, 8, 53, 17
12, 27840, Note_on_c, 8, 69, 80
12, 27840, Note_on_c, 8, 65, 73
12, 27848, Note_on_c, 8, 41, 59
12, 27848, Control_c, 8, 64, 0
12, 28000, Control_c, 8, 64, 127
12, 28340, Note_off_c, 8, 53, 64
12, 28500, Note_off_c, 8, 65, 64
12, 28560, Note_on_c, 8, 53, 55
12, 28580, Note_off_c, 8, 69, 64
12, 28708, Note_on_c, 8, 65, 59
12, 28808, Note_off_c, 8, 65, 64
12, 28808, Note_on_c, 8, 69, 59
12, 28896, Note_off_c, 8, 69, 64
12, 28928, Note_on_c, 8, 72, 56
12, 28956, Note_off_c, 8, 72, 64
12, 29060, Note_on_c, 8, 72, 65
12, 29140, Note_off_c, 8, 72, 64
12, 29168, Note_on_c, 8, 77, 73
12, 29216, Note_off_c, 8, 77, 64
12, 29288, Note_on_c, 8, 81, 112
12, 29316, Note_off_c, 8, 81, 64
12, 29528, Note_on_c, 8, 84, 94
12, 29576, Note_off_c, 8, 84, 64
12, 29768, Note_on_c, 8, 77, 99
12, 29828, Note_off_c, 8, 77, 64
12, 30436, Note_off_c, 8, 41, 64
12, 30680, Note_on_c, 8, 65, 41
12, 30708, Note_on_c, 8, 41, 56
12, 30728, Note_on_c, 8, 69, 31
12, 30740, Control_c, 8, 64, 0
12, 30768, Note_on_c, 8, 72, 70
12, 30928, Control_c, 8, 64, 127
12, 31220, Note_off_c, 8, 53, 64
12, 31256, Note_off_c, 8, 41, 64
12, 31256, Note_off_c, 8, 69, 64
12, 31328, Note_off_c, 8, 72, 64
12, 31368, Note_off_c, 8, 65, 64
12, 31660, Control_c, 8, 64, 0
12, 31668, Note_on_c, 8, 61, 45
12, 31680, Note_on_c, 8, 65, 61
12, 31688, Note_on_c, 8, 70, 55
12, 31700, Note_on_c, 8, 58, 29
12, 31720, Note_on_c, 8, 46, 31
12, 31780, Control_c, 8, 64, 127
12, 31868, Note_off_c, 8, 61, 64
12, 31900, Note_off_c, 8, 65, 64
12, 31988, Note_off_c, 8, 70, 64
12, 32400, Note_on_c, 8, 65, 62
12, 32440, Note_off_c, 8, 46, 64
12, 32628, Note_off_c, 8, 65, 64
12, 32640, Note_on_c, 8, 65, 73
12, 32668, Note_on_c, 8, 46, 41
12, 32848, Note_off_c, 8, 65, 64
12, 32880, Note_on_c, 8, 70, 74
12, 33108, Note_off_c, 8, 70, 64
12, 33120, Note_off_c, 8, 58, 64
12, 33120, Note_on_c, 8, 70, 74
12, 33128, Note_on_c, 8, 73, 65
12, 33148, Note_off_c, 8, 73, 64
12, 33156, Note_off_c, 8, 46, 64
12, 33328, Note_off_c, 8, 70, 64
12, 33360, Note_on_c, 8, 72, 81
12, 33480, Control_c, 8, 64, 0
12, 33588, Note_off_c, 8, 72, 64
12, 33600, Note_on_c, 8, 72, 87
12, 34260, Note_off_c, 8, 72, 64
12, 34320, Note_on_c, 8, 73, 78
12, 34548, Note_off_c, 8, 73, 64
12, 34560, Note_on_c, 8, 73, 78
12, 34768, Note_off_c, 8, 73, 64
12, 34800, Note_on_c, 8, 75, 83
12, 35028, Note_off_c, 8, 75, 64
12, 35040, Note_on_c, 8, 75, 78
12, 35248, Note_off_c, 8, 75, 64
12, 35280, Note_on_c, 8, 77, 78
12, 35508, Note_off_c, 8, 77, 64
12, 36480, Note_on_c, 8, 58, 59
12, 36500, Control_c, 8, 64, 127
12, 36688, Note_off_c, 8, 58, 64
12, 36720, Note_on_c, 8, 77, 69
12, 36928, Note_off_c, 8, 77, 64
12, 36960, Note_on_c, 8, 85, 74
12, 36960, Note_on_c, 8, 89, 74
12, 37168, Note_off_c, 8, 89, 64
12, 37168, Note_off_c, 8, 85, 64
12, 37200, Note_on_c, 8, 77, 69
12, 37408, Note_off_c, 8, 77, 64
12, 37420, Control_c, 8, 64, 0
12, 37440, Note_on_c, 8, 85, 74
12, 37440, Note_on_c, 8, 89, 74
12, 38340, Note_off_c, 8, 89, 64
12, 38340, Note_off_c, 8, 85, 64
12, 38880, Note_on_c, 8, 82, 69
12, 39300, Note_off_c, 8, 82, 64
12, 39360, Note_on_c, 8, 89, 74
12, 39360, Note_on_c, 8, 84, 74
12, 40260, Note_off_c, 8, 84, 64
12, 40260, Note_off_c, 8, 89, 64
12, 41040, Note_on_c, 8, 81, 74
12, 41040, Note_on_c, 8, 84, 74
12, 41248, Note_off_c, 8, 84, 64
12, 41248, Note_off_c, 8, 81, 64
12, 41280, Note_on_c, 8, 81, 74
12, 41280, Note_on_c, 8, 84, 74
12, 41960, Note_off_c, 8, 84, 64
12, 41960, Note_off_c, 8, 81, 64
12, 42240, Note_on_c, 8, 89, 74
12, 43088, Note_off_c, 8, 89, 64
12, 43200, Note_on_c, 8, 89, 75
12, 43280, Note_on_c, 8, 89, 57
12, 43300, Note_off_c, 8, 89, 64
12, 43360, Note_off_c, 8, 89, 64
12, 43380, Note_on_c, 8, 87, 60
12, 43420, Note_off_c, 8, 87, 64
12, 43468, Note_on_c, 8, 87, 33
12, 43508, Note_off_c, 8, 87, 64
12, 43640, Note_on_c, 8, 84, 55
12, 43648, Note_on_c, 8, 85, 58
12, 43680, Note_off_c, 8, 84, 64
12, 43680, Note_on_c, 8, 82, 58
12, 43688, Note_off_c, 8, 85, 64
12, 44068, Note_off_c, 8, 82, 64
12, 44160, Note_on_c, 8, 84, 60
12, 44388, Note_off_c, 8, 84, 64
12, 44400, Note_on_c, 8, 82, 74
12, 44628, Note_off_c, 8, 82, 64
12, 44640, Note_on_c, 8, 84, 62
12, 44640, Note_on_c, 8, 77, 54
12, 44880, Note_on_c, 8, 82, 74
12, 44940, Note_off_c, 8, 77, 64
12, 44940, Note_off_c, 8, 84, 64
12, 45108, Note_off_c, 8, 82, 64
12, 45120, Note_on_c, 8, 75, 66
12, 45120, Note_on_c, 8, 80, 63
12, 45568, Note_off_c, 8, 80, 64
12, 45568, Note_off_c, 8, 75, 64
12, 45600, Note_on_c, 8, 73, 60
12, 45600, Note_on_c, 8, 78, 60
12, 46460, Note_off_c, 8, 78, 64
12, 46460, Note_off_c, 8, 73, 64
12, 46528, Note_on_c, 8, 82, 58
12, 46580, Note_on_c, 8, 85, 49
12, 46588, Note_off_c, 8, 82, 64
12, 46640, Note_on_c, 8, 90, 40
12, 46980, Note_off_c, 8, 90, 64
12, 47000, Note_off_c, 8, 85, 64
12, 47020, Control_c, 8, 120, 0
12, 47020, Note_on_c, 8, 82, 49
12, 47060, Note_on_c, 8, 85, 51
12, 47108, Note_on_c, 8, 90, 47
12, 47508, Note_off_c, 8, 85, 64
12, 47600, Note_off_c, 8, 82, 64
12, 47656, Note_off_c, 8, 90, 64
12, 51120, Note_on_c, 8, 77, 75
12, 51340, Note_off_c, 8, 77, 64
12, 51360, Note_on_c, 8, 81, 75
12, 51580, Note_off_c, 8, 81, 64
12, 51600, Note_on_c, 8, 82, 88
12, 51820, Note_off_c, 8, 82, 64
12, 51840, Note_on_c, 8, 82, 93
12, 52060, Note_off_c, 8, 82, 64
12, 52080, Note_on_c, 8, 84, 91
12, 52300, Note_off_c, 8, 84, 64
12, 52320, Note_on_c, 8, 86, 81
12, 52540, Note_off_c, 8, 86, 64
12, 52560, Note_on_c, 8, 86, 87
12, 52780, Note_off_c, 8, 86, 64
12, 52800, Note_on_c, 8, 86, 87
12, 53248, Note_off_c, 8, 86, 64
12, 53280, Note_on_c, 8, 82, 78
12, 54608, Note_off_c, 8, 82, 64
12, 54720, Note_on_c, 8, 63, 63
12, 54720, Note_on_c, 8, 39, 83
12, 54720, Note_on_c, 8, 51, 58
12, 54720, Note_on_c, 8, 66, 94
12, 54720, Note_on_c, 8, 70, 83
12, 54720, Control_c, 8, 64, 127
12, 54988, Note_off_c, 8, 66, 64
12, 55048, Note_off_c, 8, 70, 64
12, 55068, Note_off_c, 8, 63, 64
12, 55220, Note_off_c, 8, 39, 64
12, 55260, Note_off_c, 8, 51, 64
12, 55560, Note_on_c, 8, 70, 105
12, 55560, Note_on_c, 8, 63, 99
12, 55560, Note_on_c, 8, 66, 99
12, 55588, Note_off_c, 8, 66, 64
12, 55588, Note_off_c, 8, 63, 64
12, 55588, Note_off_c, 8, 70, 64
12, 55680, Note_on_c, 8, 70, 89
12, 55680, Note_on_c, 8, 63, 89
12, 55680, Note_on_c, 8, 66, 89
12, 55920, Note_off_c, 8, 66, 64
12, 55920, Note_on_c, 8, 39, 89
12, 56048, Note_off_c, 8, 63, 64
12, 56048, Note_off_c, 8, 70, 64
12, 56160, Note_on_c, 8, 63, 105
12, 56160, Note_on_c, 8, 70, 112
12, 56288, Note_off_c, 8, 39, 64
12, 56340, Note_off_c, 8, 70, 64
12, 56388, Note_off_c, 8, 63, 64
12, 56640, Note_on_c, 8, 60, 89
12, 56640, Note_on_c, 8, 68, 99
12, 56640, Note_on_c, 8, 63, 89
12, 56640, Note_on_c, 8, 44, 105
12, 56640, Note_on_c, 8, 56, 59
12, 56660, Control_c, 8, 64, 0
12, 56780, Control_c, 8, 64, 127
12, 57140, Note_off_c, 8, 44, 64
12, 57140, Note_off_c, 8, 68, 64
12, 57168, Note_off_c, 8, 60, 64
12, 57260, Note_off_c, 8, 63, 64
12, 57348, Note_off_c, 8, 56, 64
12, 57360, Note_on_c, 8, 44, 73
12, 57480, Note_on_c, 8, 56, 76
12, 57600, Note_on_c, 8, 63, 67
12, 57648, Note_off_c, 8, 63, 64
12, 57720, Note_on_c, 8, 68, 80
12, 57720, Note_on_c, 8, 63, 34
12, 57740, Note_off_c, 8, 63, 64
12, 57768, Note_off_c, 8, 68, 64
12, 57840, Note_on_c, 8, 72, 112
12, 58028, Note_off_c, 8, 56, 64
12, 58060, Note_off_c, 8, 72, 64
12, 58080, Note_off_c, 8, 44, 64
12, 58080, Note_on_c, 8, 68, 80
12, 58288, Note_off_c, 8, 68, 64
12, 58560, Note_on_c, 8, 61, 94
12, 58560, Note_on_c, 8, 68, 80
12, 58560, Note_on_c, 8, 49, 53
12, 58560, Note_on_c, 8, 65, 94
12, 58560, Note_on_c, 8, 37, 109
12, 58600, Control_c, 8, 64, 0
12, 58748, Control_c, 8, 64, 127
12, 58820, Note_off_c, 8, 65, 64
12, 58820, Note_off_c, 8, 61, 64
12, 58880, Note_off_c, 8, 68, 64
12, 59040, Note_on_c, 8, 65, 99
12, 59040, Note_on_c, 8, 68, 94
12, 59040, Note_on_c, 8, 72, 99
12, 59128, Note_off_c, 8, 49, 64
12, 59140, Note_off_c, 8, 68, 64
12, 59220, Note_off_c, 8, 72, 64
12, 59248, Note_off_c, 8, 65, 64
12, 59280, Note_on_c, 8, 49, 45
12, 59520, Note_on_c, 8, 68, 105
12, 59520, Note_on_c, 8, 61, 109
12, 59528, Note_off_c, 8, 49, 64
12, 59760, Note_on_c, 8, 49, 55
12, 59808, Note_off_c, 8, 37, 64
12, 59948, Note_off_c, 8, 68, 64
12, 59968, Note_off_c, 8, 49, 64
12, 59988, Note_off_c, 8, 61, 64
12, 60000, Note_on_c, 8, 65, 94
12, 60048, Note_off_c, 8, 65, 64
12, 60240, Note_on_c, 8, 61, 55
12, 60280, Note_off_c, 8, 61, 64
12, 60480, Control_c, 8, 64, 0
12, 60480, Note_on_c, 8, 54, 51
12, 60480, Note_on_c, 8, 42, 89
12, 60480, Note_on_c, 8, 61, 112
12, 60480, Note_on_c, 8, 70, 112
12, 60480, Note_on_c, 8, 66, 105
12, 60480, Note_on_c, 8, 68, 94
12, 60488, Note_off_c, 8, 68, 64
12, 60500, Note_off_c, 8, 66, 64
12, 60648, Control_c, 8, 64, 127
12, 60868, Note_off_c, 8, 70, 64
12, 60880, Note_off_c, 8, 61, 64
12, 61160, Note_off_c, 8, 42, 64
12, 61188, Note_off_c, 8, 54, 64
12, 61200, Note_on_c, 8, 70, 94
12, 61200, Note_on_c, 8, 61, 99
12, 61320, Note_on_c, 8, 42, 65
12, 61320, Note_on_c, 8, 54, 70
12, 61348, Note_off_c, 8, 61, 64
12, 61420, Note_off_c, 8, 70, 64
12, 61440, Note_on_c, 8, 61, 80
12, 61680, Note_on_c, 8, 66, 99
12, 61768, Note_off_c, 8, 61, 64
12, 61788, Note_off_c, 8, 66, 64
12, 61920, Note_on_c, 8, 61, 99
12, 61920, Note_on_c, 8, 70, 109
12, 61968, Note_off_c, 8, 54, 64
12, 62040, Note_off_c, 8, 42, 64
12, 62100, Note_off_c, 8, 70, 64
12, 62108, Note_off_c, 8, 61, 64
12, 62400, Note_on_c, 8, 63, 99
12, 62400, Note_on_c, 8, 72, 89
12, 62400, Note_on_c, 8, 51, 61
12, 62400, Note_on_c, 8, 39, 94
12, 62400, Note_on_c, 8, 66, 99
12, 62408, Control_c, 8, 64, 0
12, 62580, Control_c, 8, 64, 127
12, 62880, Note_off_c, 8, 72, 64
12, 62900, Note_off_c, 8, 63, 64
12, 62900, Note_off_c, 8, 66, 64
12, 63088, Note_off_c, 8, 39, 64
12, 63120, Note_on_c, 8, 63, 109
12, 63120, Note_on_c, 8, 72, 105
12, 63240, Note_on_c, 8, 39, 80
12, 63360, Note_off_c, 8, 63, 64
12, 63360, Note_on_c, 8, 66, 55
12, 63500, Note_off_c, 8, 66, 64
12, 63600, Note_on_c, 8, 63, 76
12, 63708, Note_off_c, 8, 39, 64
12, 63768, Note_off_c, 8, 51, 64
12, 63840, Note_off_c, 8, 63, 64
12, 63840, Note_on_c, 8, 66, 63
12, 64048, Note_off_c, 8, 66, 64
12, 64068, Note_off_c, 8, 72, 64
12, 64080, Note_on_c, 8, 63, 70
12, 64108, Note_off_c, 8, 63, 64
12, 64320, Control_c, 8, 64, 0
12, 64320, Note_on_c, 8, 72, 99
12, 64320, Note_on_c, 8, 61, 105
12, 64320, Note_on_c, 8, 46, 89
12, 64320, Note_on_c, 8, 58, 73
12, 64320, Note_on_c, 8, 65, 109
12, 64320, Note_on_c, 8, 70, 67
12, 64328, Note_off_c, 8, 70, 64
12, 64480, Control_c, 8, 64, 127
12, 64840, Note_off_c, 8, 72, 64
12, 64868, Note_off_c, 8, 61, 64
12, 64868, Note_off_c, 8, 65, 64
12, 65040, Note_on_c, 8, 72, 105
12, 65040, Note_on_c, 8, 61, 105
12, 65060, Note_off_c, 8, 46, 64
12, 65280, Note_on_c, 8, 46, 65
12, 65480, Note_off_c, 8, 46, 64
12, 65488, Note_off_c, 8, 61, 64
12, 65500, Note_off_c, 8, 58, 64
12, 65500, Note_off_c, 8, 72, 64
12, 65640, Note_on_c, 8, 65, 2
12, 65720, Note_off_c, 8, 65, 64
12, 65760, Note_on_c, 8, 46, 89
12, 65760, Note_on_c, 8, 70, 94
12, 65760, Note_on_c, 8, 62, 112
12, 65760, Note_on_c, 8, 58, 89
12, 65760, Note_on_c, 8, 65, 94
12, 65780, Note_off_c, 8, 65, 64
12, 65780, Control_c, 8, 64, 0
12, 65928, Note_off_c, 8, 58, 64
12, 65928, Control_c, 8, 64, 127
12, 66000, Note_off_c, 8, 62, 64
12, 66000, Note_off_c, 8, 46, 64
12, 66000, Note_on_c, 8, 65, 56
12, 66008, Note_off_c, 8, 65, 64
12, 66048, Note_off_c, 8, 70, 64
12, 66228, Control_c, 8, 64, 0
12, 66240, Note_on_c, 8, 51, 65
12, 66240, Note_on_c, 8, 39, 94
12, 66240, Note_on_c, 8, 63, 109
12, 66240, Note_on_c, 8, 66, 112
12, 66240, Note_on_c, 8, 70, 112
12, 66340, Control_c, 8, 64, 127
12, 66408, Note_off_c, 8, 66, 64
12, 66420, Note_off_c, 8, 63, 64
12, 66520, Note_off_c, 8, 70, 64
12, 66808, Note_off_c, 8, 51, 64
12, 66820, Note_off_c, 8, 39, 64
12, 66960, Note_on_c, 8, 51, 3
12, 67080, Note_on_c, 8, 39, 2
12, 67080, Note_on_c, 8, 75, 94
12, 67080, Note_on_c, 8, 82, 83
12, 67080, Note_on_c, 8, 78, 109
12, 67120, Note_off_c, 8, 78, 64
12, 67128, Note_off_c, 8, 82, 64
12, 67128, Note_off_c, 8, 75, 64
12, 67200, Note_off_c, 8, 51, 64
12, 67200, Note_on_c, 8, 82, 80
12, 67200, Note_on_c, 8, 75, 99
12, 67200, Note_on_c, 8, 78, 105
12, 67240, Note_off_c, 8, 78, 64
12, 67248, Note_off_c, 8, 75, 64
12, 67248, Note_off_c, 8, 82, 64
12, 67440, Note_on_c, 8, 51, 49
12, 67680, Note_on_c, 8, 70, 105
12, 67680, Note_on_c, 8, 63, 109
12, 67680, Note_on_c, 8, 66, 109
12, 67760, Note_off_c, 8, 39, 64
12, 67808, Note_off_c, 8, 51, 64
12, 67840, Note_off_c, 8, 70, 64
12, 67840, Note_off_c, 8, 66, 64
12, 67848, Note_off_c, 8, 63, 64
12, 68140, Control_c, 8, 64, 0
12, 68160, Note_on_c, 8, 60, 105
12, 68160, Note_on_c, 8, 63, 112
12, 68160, Note_on_c, 8, 68, 112
12, 68160, Note_on_c, 8, 44, 94
12, 68160, Note_on_c, 8, 56, 70
12, 68288, Control_c, 8, 64, 127
12, 68700, Note_off_c, 8, 68, 64
12, 68720, Note_off_c, 8, 44, 64
12, 68880, Note_off_c, 8, 60, 64
12, 68888, Note_off_c, 8, 63, 64
12, 69000, Note_on_c, 8, 44, 70
12, 69000, Note_on_c, 8, 60, 112
12, 69020, Note_off_c, 8, 56, 64
12, 69240, Note_on_c, 8, 56, 83
12, 69360, Note_on_c, 8, 63, 94
12, 69480, Note_on_c, 8, 68, 89
12, 69500, Note_off_c, 8, 63, 64
12, 69540, Note_off_c, 8, 60, 64
12, 69600, Note_on_c, 8, 63, 76
12, 69720, Note_off_c, 8, 56, 64
12, 69800, Note_off_c, 8, 44, 64
12, 69820, Note_off_c, 8, 63, 64
12, 69840, Note_on_c, 8, 60, 70
12, 69868, Note_off_c, 8, 60, 64
12, 69880, Note_off_c, 8, 68, 64
12, 69960, Note_on_c, 8, 49, 39
12, 70000, Note_off_c, 8, 49, 64
12, 70080, Note_on_c, 8, 49, 56
12, 70080, Note_on_c, 8, 61, 105
12, 70080, Note_on_c, 8, 65, 105
12, 70080, Note_on_c, 8, 68, 105
12, 70080, Note_on_c, 8, 37, 94
12, 70120, Control_c, 8, 64, 0
12, 70280, Control_c, 8, 64, 127
12, 70308, Note_off_c, 8, 68, 64
12, 70308, Note_off_c, 8, 65, 64
12, 70328, Note_off_c, 8, 61, 64
12, 70800, Note_on_c, 8, 65, 94
12, 70800, Note_on_c, 8, 72, 94
12, 70800, Note_on_c, 8, 68, 109
12, 70860, Note_off_c, 8, 68, 64
12, 70868, Note_off_c, 8, 65, 64
12, 70880, Note_off_c, 8, 72, 64
12, 70920, Note_on_c, 8, 72, 52
12, 70920, Note_on_c, 8, 65, 70
12, 70920, Note_on_c, 8, 68, 83
12, 70928, Note_off_c, 8, 49, 64
12, 71008, Note_off_c, 8, 68, 64
12, 71040, Note_on_c, 8, 49, 65
12, 71048, Note_off_c, 8, 72, 64
12, 71060, Note_off_c, 8, 65, 64
12, 71280, Note_on_c, 8, 61, 94
12, 71280, Note_on_c, 8, 68, 76
12, 71520, Note_on_c, 8, 65, 109
12, 71528, Note_off_c, 8, 37, 64
12, 71548, Note_off_c, 8, 61, 64
12, 71628, Note_off_c, 8, 49, 64
12, 71748, Note_off_c, 8, 65, 64
12, 71760, Note_off_c, 8, 68, 64
12, 71760, Note_on_c, 8, 61, 76
12, 71808, Note_off_c, 8, 61, 64
12, 72000, Control_c, 8, 64, 0
12, 72000, Note_on_c, 8, 70, 94
12, 72000, Note_on_c, 8, 42, 83
12, 72000, Note_on_c, 8, 61, 109
12, 72000, Note_on_c, 8, 54, 65
12, 72000, Note_on_c, 8, 66, 112
12, 72160, Control_c, 8, 64, 127
12, 72480, Note_off_c, 8, 66, 64
12, 72508, Note_off_c, 8, 70, 64
12, 72548, Note_off_c, 8, 61, 64
12, 72720, Note_on_c, 8, 61, 109
12, 72720, Note_on_c, 8, 70, 105
12, 72720, Note_on_c, 8, 65, 112
12, 72720, Note_on_c, 8, 66, 105
12, 72760, Note_off_c, 8, 65, 64
12, 72760, Note_off_c, 8, 54, 64
12, 72960, Note_on_c, 8, 54, 40
12, 73180, Note_off_c, 8, 42, 64
12, 73180, Note_off_c, 8, 61, 64
12, 73200, Note_off_c, 8, 66, 64
12, 73200, Note_on_c, 8, 65, 80
12, 73320, Note_off_c, 8, 54, 64
12, 73328, Note_off_c, 8, 70, 64
12, 73388, Note_off_c, 8, 65, 64
12, 73440, Note_on_c, 8, 61, 83
12, 73488, Note_off_c, 8, 61, 64
12, 73920, Note_on_c, 8, 46, 83
12, 73920, Note_on_c, 8, 48, 89
12, 73920, Note_on_c, 8, 72, 109
12, 73920, Note_on_c, 8, 64, 112
12, 73920, Note_on_c, 8, 67, 99
12, 73960, Control_c, 8, 64, 0
12, 74008, Note_off_c, 8, 46, 64
12, 74168, Control_c, 8, 64, 127
12, 74288, Note_off_c, 8, 67, 64
12, 74468, Note_off_c, 8, 64, 64
12, 74488, Note_off_c, 8, 72, 64
12, 74640, Note_on_c, 8, 70, 89
12, 74640, Note_on_c, 8, 64, 94
12, 74640, Note_on_c, 8, 67, 94
12, 74648, Note_off_c, 8, 48, 64
12, 74808, Note_off_c, 8, 70, 64
12, 74808, Note_off_c, 8, 64, 64
12, 74880, Note_on_c, 8, 48, 63
12, 74900, Note_off_c, 8, 67, 64
12, 75120, Note_on_c, 8, 64, 58
12, 75120, Note_on_c, 8, 67, 35
12, 75120, Note_on_c, 8, 73, 89
12, 75228, Note_off_c, 8, 67, 64
12, 75488, Note_off_c, 8, 48, 64
12, 75488, Note_off_c, 8, 73, 64
12, 75508, Note_off_c, 8, 64, 64
12, 75768, Control_c, 8, 64, 0
12, 75848, Note_on_c, 8, 41, 109
12, 75848, Note_on_c, 8, 65, 80
12, 75848, Note_on_c, 8, 72, 73
12, 75848, Note_on_c, 8, 53, 47
12, 75848, Note_on_c, 8, 69, 109
12, 75876, Note_off_c, 8, 53, 64
12, 75888, Control_c, 8, 64, 127
12, 76528, Note_off_c, 8, 41, 64
12, 76688, Note_on_c, 8, 41, 105
12, 76696, Note_off_c, 8, 69, 64
12, 76708, Note_off_c, 8, 65, 64
12, 76800, Note_on_c, 8, 53, 83
12, 76916, Note_off_c, 8, 72, 64
12, 76928, Note_on_c, 8, 65, 76
12, 77048, Note_on_c, 8, 69, 112
12, 77068, Note_off_c, 8, 65, 64
12, 77248, Note_off_c, 8, 41, 64
12, 77528, Note_off_c, 8, 69, 64
12, 77548, Note_off_c, 8, 53, 64
12, 77620, Note_on_c, 8, 41, 65
12, 77700, Note_on_c, 8, 53, 50
12, 77708, Note_on_c, 8, 63, 65
12, 77768, Note_on_c, 8, 66, 67
12, 77788, Note_off_c, 8, 63, 64
12, 77828, Note_on_c, 8, 69, 89
12, 77848, Note_off_c, 8, 66, 64
12, 77880, Note_on_c, 8, 72, 89
12, 77888, Note_off_c, 8, 69, 64
12, 77928, Note_off_c, 8, 72, 64
12, 77988, Note_on_c, 8, 75, 67
12, 78028, Note_on_c, 8, 78, 83
12, 78056, Note_off_c, 8, 75, 64
12, 78096, Note_off_c, 8, 78, 64
12, 78100, Note_on_c, 8, 81, 109
12, 78140, Note_off_c, 8, 81, 64
12, 78148, Note_on_c, 8, 84, 65
12, 78176, Note_off_c, 8, 84, 64
12, 78240, Note_on_c, 8, 87, 56
12, 78268, Note_on_c, 8, 90, 70
12, 78320, Note_off_c, 8, 87, 64
12, 78340, Note_on_c, 8, 93, 94
12, 78348, Note_off_c, 8, 90, 64
12, 78360, Note_off_c, 8, 93, 64
12, 78400, Note_on_c, 8, 94, 70
12, 78400, Note_on_c, 8, 96, 76
12, 78448, Note_off_c, 8, 96, 64
12, 78448, Note_off_c, 8, 94, 64
12, 78468, Note_on_c, 8, 93, 99
12, 78508, Note_off_c, 8, 93, 64
12, 78508, Note_on_c, 8, 90, 43
12, 78528, Note_off_c, 8, 90, 64
12, 78548, Note_on_c, 8, 87, 80
12, 78576, Note_off_c, 8, 87, 64
12, 78648, Note_on_c, 8, 84, 59
12, 78716, Note_off_c, 8, 84, 64
12, 78728, Note_on_c, 8, 81, 89
12, 78788, Note_off_c, 8, 81, 64
12, 78788, Note_on_c, 8, 78, 63
12, 78828, Note_off_c, 8, 78, 64
12, 78940, Note_on_c, 8, 72, 67
12, 79040, Note_on_c, 8, 69, 33
12, 79120, Note_on_c, 8, 66, 41
12, 79188, Note_on_c, 8, 63, 89
12, 79280, Note_off_c, 8, 41, 64
12, 79360, Note_off_c, 8, 69, 64
12, 79380, Note_off_c, 8, 53, 64
12, 79420, Note_off_c, 8, 72, 64
12, 79448, Note_off_c, 8, 66, 64
12, 79496, Note_off_c, 8, 63, 64
12, 79720, Control_c, 8, 64, 0
12, 81600, Note_on_c, 8, 89, 73
12, 83168, Note_off_c, 8, 89, 64
12, 83280, Note_on_c, 8, 84, 73
12, 83500, Note_off_c, 8, 84, 64
12, 83520, Note_on_c, 8, 89, 75
12, 85100, Note_off_c, 8, 89, 64
12, 85200, Note_on_c, 8, 84, 84
12, 85420, Note_off_c, 8, 84, 64
12, 85440, Note_on_c, 8, 84, 84
12, 86328, Note_off_c, 8, 84, 64
12, 86400, Note_on_c, 8, 89, 94
12, 87288, Note_off_c, 8, 89, 64
12, 87360, Note_on_c, 8, 87, 88
12, 87468, Note_off_c, 8, 87, 64
12, 87480, Note_on_c, 8, 89, 52
12, 87588, Note_off_c, 8, 89, 64
12, 87600, Note_on_c, 8, 87, 53
12, 87708, Note_off_c, 8, 87, 64
12, 87720, Note_on_c, 8, 85, 43
12, 87828, Note_off_c, 8, 85, 64
12, 87840, Note_on_c, 8, 84, 71
12, 88288, Note_off_c, 8, 84, 64
12, 88320, Note_on_c, 8, 84, 84
12, 88548, Note_off_c, 8, 84, 64
12, 88560, Note_on_c, 8, 82, 74
12, 88788, Note_off_c, 8, 82, 64
12, 88800, Note_on_c, 8, 84, 73
12, 89028, Note_off_c, 8, 84, 64
12, 89040, Note_on_c, 8, 82, 70
12, 89268, Note_off_c, 8, 82, 64
12, 89280, Note_on_c, 8, 80, 88
12, 89720, Note_off_c, 8, 80, 64
12, 89760, Note_on_c, 8, 78, 83
12, 90620, Note_off_c, 8, 78, 64
12, 90720, Note_on_c, 8, 82, 53
12, 90748, Note_on_c, 8, 85, 32
12, 90780, Note_off_c, 8, 82, 64
12, 90808, Note_on_c, 8, 90, 36
12, 91108, Note_off_c, 8, 90, 64
12, 91128, Note_off_c, 8, 85, 64
12, 91160, Control_c, 8, 120, 0
12, 91160, Note_on_c, 8, 82, 66
12, 91208, Note_on_c, 8, 85, 47
12, 91248, Note_on_c, 8, 90, 49
12, 92028, Note_off_c, 8, 82, 64
12, 92068, Note_off_c, 8, 85, 64
12, 92148, Note_off_c, 8, 90, 64
12, 95040, Note_on_c, 8, 61, 34
12, 95040, Control_c, 8, 64, 127
12, 95040, Note_on_c, 8, 46, 47
12, 95040, Note_on_c, 8, 65, 70
12, 95040, Note_on_c, 8, 70, 80
12, 95060, Note_off_c, 8, 61, 64
12, 95080, Note_off_c, 8, 65, 64
12, 95100, Note_off_c, 8, 70, 64
12, 95920, Note_on_c, 8, 58, 89
12, 96040, Note_on_c, 8, 61, 73
12, 96108, Note_off_c, 8, 61, 64
12, 96148, Note_on_c, 8, 65, 70
12, 96208, Note_off_c, 8, 65, 64
12, 96260, Note_on_c, 8, 70, 63
12, 96300, Note_off_c, 8, 70, 64
12, 96500, Note_on_c, 8, 73, 94
12, 96720, Note_off_c, 8, 46, 64
12, 96720, Note_on_c, 8, 82, 73
12, 96728, Note_on_c, 8, 77, 94
12, 96740, Note_off_c, 8, 73, 64
12, 96768, Note_off_c, 8, 77, 64
12, 96780, Note_off_c, 8, 58, 64
12, 96780, Note_off_c, 8, 82, 64
12, 97640, Control_c, 8, 64, 0
12, 98880, Note_on_c, 8, 62, 89
12, 98880, Note_on_c, 8, 71, 99
12, 98880, Note_on_c, 8, 66, 73
12, 98880, Note_on_c, 8, 59, 73
12, 98880, Note_on_c, 8, 47, 83
12, 98900, Note_off_c, 8, 66, 64
12, 98920, Control_c, 8, 64, 127
12, 99148, Note_off_c, 8, 71, 64
12, 99168, Note_off_c, 8, 62, 64
12, 99608, Note_on_c, 8, 71, 99
12, 99620, Note_on_c, 8, 62, 105
12, 99620, Note_on_c, 8, 66, 89
12, 99640, Note_off_c, 8, 66, 64
12, 99660, Note_off_c, 8, 62, 64
12, 99668, Note_off_c, 8, 71, 64
12, 99860, Note_on_c, 8, 71, 94
12, 99860, Note_on_c, 8, 62, 80
12, 99860, Note_on_c, 8, 66, 94
12, 100100, Note_off_c, 8, 66, 64
12, 100520, Note_off_c, 8, 62, 64
12, 100548, Note_off_c, 8, 71, 64
12, 100600, Note_off_c, 8, 47, 64
12, 100800, Note_on_c, 8, 71, 67
12, 100800, Note_on_c, 8, 62, 67
12, 100820, Note_on_c, 8, 66, 2
12, 100968, Note_off_c, 8, 66, 64
12, 101040, Note_on_c, 8, 47, 33
12, 101048, Note_off_c, 8, 71, 64
12, 101080, Note_off_c, 8, 62, 64
12, 101208, Note_off_c, 8, 59, 64
12, 101280, Note_on_c, 8, 71, 94
12, 101280, Note_on_c, 8, 62, 94
12, 101560, Note_on_c, 8, 59, 41
12, 101728, Note_off_c, 8, 62, 64
12, 101968, Note_off_c, 8, 71, 64
12, 102008, Note_on_c, 8, 62, 80
12, 102260, Note_on_c, 8, 71, 59
12, 102276, Note_off_c, 8, 62, 64
12, 102300, Note_off_c, 8, 47, 64
12, 102308, Note_off_c, 8, 59, 64
12, 102480, Note_off_c, 8, 71, 64
12, 102708, Control_c, 8, 64, 0
12, 102720, Note_on_c, 8, 70, 109
12, 102720, Note_on_c, 8, 61, 83
12, 102720, Note_on_c, 8, 66, 89
12, 102728, Note_on_c, 8, 58, 51
12, 102728, Note_on_c, 8, 46, 89
12, 102908, Control_c, 8, 64, 127
12, 102928, Note_off_c, 8, 66, 64
12, 103408, Note_off_c, 8, 61, 64
12, 103700, Note_on_c, 8, 61, 47
12, 103800, Note_off_c, 8, 70, 64
12, 103968, Note_off_c, 8, 61, 64
12, 104160, Note_on_c, 8, 70, 94
12, 104168, Note_on_c, 8, 61, 44
12, 104316, Note_off_c, 8, 58, 64
12, 104336, Note_off_c, 8, 46, 64
12, 104376, Note_off_c, 8, 61, 64
12, 104420, Note_on_c, 8, 66, 50
12, 104540, Note_off_c, 8, 66, 64
12, 104640, Note_on_c, 8, 66, 70
12, 104640, Note_on_c, 8, 61, 99
12, 104748, Note_off_c, 8, 66, 64
12, 105188, Note_on_c, 8, 66, 2
12, 105340, Note_off_c, 8, 61, 64
12, 105380, Note_on_c, 8, 46, 80
12, 105380, Note_on_c, 8, 58, 99
12, 105476, Note_off_c, 8, 66, 64
12, 105488, Note_off_c, 8, 70, 64
12, 105608, Note_on_c, 8, 61, 49
12, 105840, Note_on_c, 8, 70, 112
12, 106028, Note_off_c, 8, 46, 64
12, 106040, Note_off_c, 8, 58, 64
12, 106088, Note_off_c, 8, 61, 64
12, 106288, Note_off_c, 8, 70, 64
12, 106340, Note_on_c, 8, 61, 49
12, 106428, Note_off_c, 8, 61, 64
12, 106560, Note_on_c, 8, 47, 41
12, 106568, Note_on_c, 8, 59, 42
12, 106568, Note_on_c, 8, 71, 67
12, 106568, Note_on_c, 8, 66, 43
12, 106580, Note_on_c, 8, 62, 83
12, 106600, Control_c, 8, 64, 0
12, 106828, Control_c, 8, 64, 127
12, 106836, Note_off_c, 8, 71, 64
12, 107028, Note_off_c, 8, 66, 64
12, 107068, Note_on_c, 8, 71, 42
12, 107268, Note_off_c, 8, 62, 64
12, 107296, Note_off_c, 8, 71, 64
12, 107300, Note_on_c, 8, 66, 56
12, 107400, Note_off_c, 8, 66, 64
12, 107528, Note_on_c, 8, 71, 61
12, 107528, Note_on_c, 8, 62, 67
12, 107528, Note_on_c, 8, 66, 53
12, 107576, Note_off_c, 8, 66, 64
12, 107748, Note_off_c, 8, 47, 64
12, 107756, Note_off_c, 8, 59, 64
12, 107756, Note_off_c, 8, 62, 64
12, 107876, Note_off_c, 8, 71, 64
12, 107980, Note_on_c, 8, 57, 49
12, 107980, Control_c, 8, 64, 0
12, 108000, Note_on_c, 8, 69, 94
12, 108008, Note_on_c, 8, 64, 99
12, 108008, Note_on_c, 8, 61, 99
12, 108028, Note_on_c, 8, 45, 73
12, 108120, Control_c, 8, 64, 127
12, 108248, Note_off_c, 8, 64, 64
12, 108256, Note_off_c, 8, 61, 64
12, 108268, Note_off_c, 8, 57, 64
12, 108348, Note_off_c, 8, 69, 64
12, 108396, Note_off_c, 8, 45, 64
12, 108468, Note_on_c, 8, 55, 41
12, 108480, Control_c, 8, 64, 0
12, 108480, Note_on_c, 8, 62, 73
12, 108488, Note_on_c, 8, 71, 94
12, 108500, Note_on_c, 8, 43, 94
12, 108660, Control_c, 8, 64, 127
12, 108960, Note_off_c, 8, 62, 64
12, 109156, Note_off_c, 8, 71, 64
12, 109208, Note_on_c, 8, 62, 89
12, 109496, Note_off_c, 8, 62, 64
12, 109700, Note_on_c, 8, 71, 99
12, 109708, Note_on_c, 8, 62, 83
12, 109916, Note_off_c, 8, 62, 64
12, 109968, Note_on_c, 8, 67, 16
12, 110148, Note_off_c, 8, 67, 64
12, 110176, Note_off_c, 8, 55, 64
12, 110180, Note_off_c, 8, 43, 64
12, 110200, Note_on_c, 8, 62, 28
12, 110280, Note_off_c, 8, 62, 64
12, 110300, Note_off_c, 8, 71, 64
12, 110380, Note_on_c, 8, 54, 55
12, 110400, Note_on_c, 8, 61, 83
12, 110400, Note_on_c, 8, 66, 76
12, 110400, Control_c, 8, 64, 0
12, 110408, Note_on_c, 8, 70, 99
12, 110440, Note_on_c, 8, 42, 73
12, 110608, Control_c, 8, 64, 127
12, 110988, Note_off_c, 8, 66, 64
12, 111040, Note_off_c, 8, 61, 64
12, 111060, Note_off_c, 8, 54, 64
12, 111128, Note_on_c, 8, 49, 12
12, 111136, Note_off_c, 8, 70, 64
12, 111180, Note_on_c, 8, 61, 48
12, 111220, Note_on_c, 8, 54, 33
12, 111220, Note_on_c, 8, 66, 80
12, 111260, Note_off_c, 8, 61, 64
12, 111280, Note_on_c, 8, 70, 109
12, 111300, Note_off_c, 8, 66, 64
12, 111340, Note_off_c, 8, 70, 64
12, 111628, Note_on_c, 8, 78, 89
12, 111708, Note_off_c, 8, 78, 64
12, 111740, Note_on_c, 8, 82, 76
12, 111800, Note_off_c, 8, 82, 64
12, 111860, Note_on_c, 8, 85, 83
12, 111888, Note_off_c, 8, 85, 64
12, 112108, Note_off_c, 8, 42, 64
12, 112248, Note_off_c, 8, 49, 64
12, 112288, Note_on_c, 8, 66, 39
12, 112308, Note_on_c, 8, 42, 80
12, 112320, Note_on_c, 8, 70, 112
12, 112320, Note_on_c, 8, 73, 94
12, 112940, Note_off_c, 8, 54, 64
12, 112976, Note_off_c, 8, 42, 64
12, 112980, Note_off_c, 8, 70, 64
12, 113000, Note_off_c, 8, 73, 64
12, 113016, Note_off_c, 8, 66, 64
12, 114160, Control_c, 8, 64, 0
12, 114228, Note_on_c, 8, 90, 84
12, 114240, Control_c, 8, 64, 127
12, 114308, Note_off_c, 8, 90, 64
12, 114308, Note_on_c, 8, 86, 64
12, 114388, Note_off_c, 8, 86, 64
12, 114388, Note_on_c, 8, 88, 67
12, 114468, Note_off_c, 8, 88, 64
12, 114468, Note_on_c, 8, 85, 63
12, 114548, Note_off_c, 8, 85, 64
12, 114548, Note_on_c, 8, 86, 58
12, 114628, Note_off_c, 8, 86, 64
12, 114628, Note_on_c, 8, 83, 66
12, 114708, Note_off_c, 8, 83, 64
12, 114708, Note_on_c, 8, 85, 68
12, 114788, Note_off_c, 8, 85, 64
12, 114788, Note_on_c, 8, 81, 76
12, 114868, Note_off_c, 8, 81, 64
12, 114868, Note_on_c, 8, 83, 69
12, 114948, Note_off_c, 8, 83, 64
12, 114948, Note_on_c, 8, 79, 70
12, 115028, Note_off_c, 8, 79, 64
12, 115028, Note_on_c, 8, 81, 72
12, 115108, Note_off_c, 8, 81, 64
12, 115108, Note_on_c, 8, 78, 68
12, 115188, Note_off_c, 8, 78, 64
12, 115188, Note_on_c, 8, 79, 62
12, 115268, Note_off_c, 8, 79, 64
12, 115268, Note_on_c, 8, 76, 67
12, 115348, Note_off_c, 8, 76, 64
12, 115348, Note_on_c, 8, 78, 68
12, 115428, Note_off_c, 8, 78, 64
12, 115428, Note_on_c, 8, 74, 72
12, 115508, Note_off_c, 8, 74, 64
12, 115508, Note_on_c, 8, 76, 55
12, 115588, Note_off_c, 8, 76, 64
12, 115588, Note_on_c, 8, 74, 69
12, 115668, Note_off_c, 8, 74, 64
12, 115668, Note_on_c, 8, 73, 63
12, 115776, Note_off_c, 8, 73, 64
12, 115788, Note_on_c, 8, 74, 63
12, 116108, Note_off_c, 8, 74, 64
12, 116148, Note_on_c, 8, 76, 56
12, 116208, Note_off_c, 8, 76, 64
12, 116208, Note_on_c, 8, 74, 56
12, 116268, Note_off_c, 8, 74, 64
12, 116268, Note_on_c, 8, 76, 56
12, 116328, Note_off_c, 8, 76, 64
12, 116328, Note_on_c, 8, 74, 56
12, 116388, Note_off_c, 8, 74, 64
12, 116388, Note_on_c, 8, 76, 56
12, 116448, Note_off_c, 8, 76, 64
12, 116448, Note_on_c, 8, 74, 56
12, 116508, Note_off_c, 8, 74, 64
12, 116508, Note_on_c, 8, 76, 53
12, 116568, Note_off_c, 8, 76, 64
12, 116568, Note_on_c, 8, 74, 53
12, 116616, Note_off_c, 8, 74, 64
12, 116620, Note_on_c, 8, 76, 53
12, 116680, Note_off_c, 8, 76, 64
12, 116680, Note_on_c, 8, 74, 53
12, 116728, Note_off_c, 8, 74, 64
12, 116728, Note_on_c, 8, 76, 48
12, 116776, Note_off_c, 8, 76, 64
12, 116780, Note_on_c, 8, 74, 48
12, 116828, Note_off_c, 8, 74, 64
12, 116828, Note_on_c, 8, 76, 48
12, 116876, Note_off_c, 8, 76, 64
12, 116880, Note_on_c, 8, 74, 48
12, 116928, Note_off_c, 8, 74, 64
12, 116928, Note_on_c, 8, 76, 45
12, 116976, Note_off_c, 8, 76, 64
12, 116980, Note_on_c, 8, 74, 45
12, 117020, Note_off_c, 8, 74, 64
12, 117020, Note_on_c, 8, 76, 45
12, 117068, Note_off_c, 8, 76, 64
12, 117068, Note_on_c, 8, 74, 45
12, 117108, Note_off_c, 8, 74, 64
12, 117108, Note_on_c, 8, 73, 69
12, 118008, Note_off_c, 8, 73, 64
12, 118188, Note_on_c, 8, 54, 50
12, 118296, Note_off_c, 8, 54, 64
12, 118308, Note_on_c, 8, 59, 58
12, 118416, Note_off_c, 8, 59, 64
12, 118428, Note_on_c, 8, 62, 48
12, 118536, Note_off_c, 8, 62, 64
12, 118548, Note_on_c, 8, 66, 44
12, 118656, Note_off_c, 8, 66, 64
12, 118668, Note_on_c, 8, 71, 60
12, 118776, Note_off_c, 8, 71, 64
12, 118788, Note_on_c, 8, 74, 67
12, 118896, Note_off_c, 8, 74, 64
12, 118908, Note_on_c, 8, 78, 49
12, 119016, Note_off_c, 8, 78, 64
12, 119028, Note_on_c, 8, 83, 58
12, 119136, Note_off_c, 8, 83, 64
12, 119148, Note_on_c, 8, 86, 44
12, 119828, Note_off_c, 8, 86, 64
12, 120008, Note_on_c, 8, 85, 48
12, 120028, Note_on_c, 8, 54, 8
12, 120040, Note_on_c, 8, 51, 4
12, 120060, Note_on_c, 8, 87, 37
12, 120068, Note_on_c, 8, 90, 40
12, 120080, Note_on_c, 8, 95, 60
12, 120628, Note_off_c, 8, 54, 64
12, 120640, Note_off_c, 8, 51, 64
12, 120656, Note_off_c, 8, 85, 64
12, 120680, Note_off_c, 8, 95, 64
12, 120696, Note_off_c, 8, 90, 64
12, 120700, Note_off_c, 8, 87, 64
12, 120700, End_track
13, 0, Start_track
13, 0, Title_t, "BD"
13, 0, MIDI_port, 0
13, 0, Channel_prefix, 9
13, 0, Control_c, 9, 7, 110
13, 0, Control_c, 9, 10, 64
13, 0, Program_c, 9, 0
13, 480, Control_c, 9, 11, 127
13, 700, Control_c, 9, 91, 55
13, 920, Control_c, 9, 93, 0
13, 1580, Control_c, 9, 6, 0
13, 3600, Note_on_c, 9, 35, 88
13, 3608, Note_off_c, 9, 35, 64
13, 3840, Note_on_c, 9, 35, 98
13, 3848, Note_off_c, 9, 35, 64
13, 5520, Note_on_c, 9, 35, 88
13, 5528, Note_off_c, 9, 35, 64
13, 5760, Note_on_c, 9, 35, 98
13, 5768, Note_off_c, 9, 35, 64
13, 7440, Note_on_c, 9, 35, 88
13, 7448, Note_off_c, 9, 35, 64
13, 7680, Note_on_c, 9, 35, 98
13, 7688, Note_off_c, 9, 35, 64
13, 12240, Note_on_c, 9, 35, 88
13, 12260, Note_off_c, 9, 35, 64
13, 12480, Note_on_c, 9, 35, 98
13, 12488, Note_off_c, 9, 35, 64
13, 13200, Note_on_c, 9, 35, 88
13, 13208, Note_off_c, 9, 35, 64
13, 13440, Note_on_c, 9, 35, 98
13, 13448, Note_off_c, 9, 35, 64
13, 14160, Note_on_c, 9, 35, 88
13, 14168, Note_off_c, 9, 35, 64
13, 14400, Note_on_c, 9, 35, 98
13, 14408, Note_off_c, 9, 35, 64
13, 15120, Note_on_c, 9, 35, 88
13, 15128, Note_off_c, 9, 35, 64
13, 15360, Note_on_c, 9, 35, 98
13, 15368, Note_off_c, 9, 35, 64
13, 16080, Note_on_c, 9, 35, 88
13, 16088, Note_off_c, 9, 35, 64
13, 16320, Note_on_c, 9, 35, 98
13, 16328, Note_off_c, 9, 35, 64
13, 17040, Note_on_c, 9, 35, 88
13, 17048, Note_off_c, 9, 35, 64
13, 17280, Note_on_c, 9, 35, 98
13, 17288, Note_off_c, 9, 35, 64
13, 18000, Note_on_c, 9, 35, 88
13, 18008, Note_off_c, 9, 35, 64
13, 18240, Note_on_c, 9, 35, 98
13, 18248, Note_off_c, 9, 35, 64
13, 18960, Note_on_c, 9, 35, 88
13, 18968, Note_off_c, 9, 35, 64
13, 19200, Note_on_c, 9, 35, 98
13, 19208, Note_off_c, 9, 35, 64
13, 19920, Note_on_c, 9, 35, 88
13, 19928, Note_off_c, 9, 35, 64
13, 20160, Note_on_c, 9, 35, 98
13, 20168, Note_off_c, 9, 35, 64
13, 20880, Note_on_c, 9, 35, 88
13, 20888, Note_off_c, 9, 35, 64
13, 21120, Note_on_c, 9, 35, 98
13, 21128, Note_off_c, 9, 35, 64
13, 21840, Note_on_c, 9, 35, 88
13, 21848, Note_off_c, 9, 35, 64
13, 22080, Note_on_c, 9, 35, 98
13, 22088, Note_off_c, 9, 35, 64
13, 22800, Note_on_c, 9, 35, 88
13, 22808, Note_off_c, 9, 35, 64
13, 23040, Note_on_c, 9, 35, 98
13, 23048, Note_off_c, 9, 35, 64
13, 23760, Note_on_c, 9, 35, 88
13, 23768, Note_off_c, 9, 35, 64
13, 24000, Note_on_c, 9, 35, 98
13, 24008, Note_off_c, 9, 35, 64
13, 24720, Note_on_c, 9, 35, 88
13, 24728, Note_off_c, 9, 35, 64
13, 24960, Note_on_c, 9, 35, 98
13, 24968, Note_off_c, 9, 35, 64
13, 25920, Note_on_c, 9, 35, 98
13, 25928, Note_off_c, 9, 35, 64
13, 26640, Note_on_c, 9, 35, 88
13, 26648, Note_off_c, 9, 35, 64
13, 26880, Note_on_c, 9, 35, 98
13, 26888, Note_off_c, 9, 35, 64
13, 27600, Note_on_c, 9, 35, 88
13, 27608, Note_off_c, 9, 35, 64
13, 27840, Note_on_c, 9, 35, 98
13, 27848, Note_off_c, 9, 35, 64
13, 28560, Note_on_c, 9, 35, 88
13, 28568, Note_off_c, 9, 35, 64
13, 28800, Note_on_c, 9, 35, 98
13, 28808, Note_off_c, 9, 35, 64
13, 29520, Note_on_c, 9, 35, 88
13, 29528, Note_off_c, 9, 35, 64
13, 29760, Note_on_c, 9, 35, 98
13, 29768, Note_off_c, 9, 35, 64
13, 30480, Note_on_c, 9, 35, 88
13, 30488, Note_off_c, 9, 35, 64
13, 30720, Note_on_c, 9, 35, 98
13, 30728, Note_off_c, 9, 35, 64
13, 31440, Note_on_c, 9, 35, 88
13, 31448, Note_off_c, 9, 35, 64
13, 31680, Note_on_c, 9, 35, 98
13, 31688, Note_off_c, 9, 35, 64
13, 32400, Note_on_c, 9, 35, 88
13, 32408, Note_off_c, 9, 35, 64
13, 32640, Note_on_c, 9, 35, 98
13, 32648, Note_off_c, 9, 35, 64
13, 33360, Note_on_c, 9, 35, 88
13, 33368, Note_off_c, 9, 35, 64
13, 33600, Note_on_c, 9, 35, 98
13, 33608, Note_off_c, 9, 35, 64
13, 34320, Note_on_c, 9, 35, 88
13, 34328, Note_off_c, 9, 35, 64
13, 34560, Note_on_c, 9, 35, 98
13, 34568, Note_off_c, 9, 35, 64
13, 35280, Note_on_c, 9, 35, 88
13, 35288, Note_off_c, 9, 35, 64
13, 35520, Note_on_c, 9, 35, 98
13, 35528, Note_off_c, 9, 35, 64
13, 36240, Note_on_c, 9, 35, 88
13, 36248, Note_off_c, 9, 35, 64
13, 36480, Note_on_c, 9, 35, 98
13, 36488, Note_off_c, 9, 35, 64
13, 37200, Note_on_c, 9, 35, 88
13, 37208, Note_off_c, 9, 35, 64
13, 37440, Note_on_c, 9, 35, 98
13, 37448, Note_off_c, 9, 35, 64
13, 38160, Note_on_c, 9, 35, 88
13, 38168, Note_off_c, 9, 35, 64
13, 38400, Note_on_c, 9, 35, 98
13, 38408, Note_off_c, 9, 35, 64
13, 39120, Note_on_c, 9, 35, 88
13, 39128, Note_off_c, 9, 35, 64
13, 39360, Note_on_c, 9, 35, 98
13, 39368, Note_off_c, 9, 35, 64
13, 40080, Note_on_c, 9, 35, 88
13, 40088, Note_off_c, 9, 35, 64
13, 40320, Note_on_c, 9, 35, 98
13, 40328, Note_off_c, 9, 35, 64
13, 41040, Note_on_c, 9, 35, 88
13, 41048, Note_off_c, 9, 35, 64
13, 41280, Note_on_c, 9, 35, 98
13, 41288, Note_off_c, 9, 35, 64
13, 42000, Note_on_c, 9, 35, 88
13, 42008, Note_off_c, 9, 35, 64
13, 42240, Note_on_c, 9, 35, 98
13, 42248, Note_off_c, 9, 35, 64
13, 42960, Note_on_c, 9, 35, 88
13, 42968, Note_off_c, 9, 35, 64
13, 43200, Note_on_c, 9, 35, 98
13, 43208, Note_off_c, 9, 35, 64
13, 43920, Note_on_c, 9, 35, 88
13, 43928, Note_off_c, 9, 35, 64
13, 44160, Note_on_c, 9, 35, 98
13, 44168, Note_off_c, 9, 35, 64
13, 45120, Note_on_c, 9, 35, 98
13, 45128, Note_off_c, 9, 35, 64
13, 45840, Note_on_c, 9, 35, 88
13, 45848, Note_off_c, 9, 35, 64
13, 46080, Note_on_c, 9, 35, 98
13, 46088, Note_off_c, 9, 35, 64
13, 46800, Note_on_c, 9, 35, 88
13, 46808, Note_off_c, 9, 35, 64
13, 47040, Note_on_c, 9, 35, 98
13, 47048, Note_off_c, 9, 35, 64
13, 47760, Note_on_c, 9, 35, 88
13, 47768, Note_off_c, 9, 35, 64
13, 48000, Note_on_c, 9, 35, 98
13, 48008, Note_off_c, 9, 35, 64
13, 48720, Note_on_c, 9, 35, 88
13, 48728, Note_off_c, 9, 35, 64
13, 48960, Note_on_c, 9, 35, 98
13, 48968, Note_off_c, 9, 35, 64
13, 49680, Note_on_c, 9, 35, 88
13, 49688, Note_off_c, 9, 35, 64
13, 49920, Note_on_c, 9, 35, 98
13, 49928, Note_off_c, 9, 35, 64
13, 50640, Note_on_c, 9, 35, 88
13, 50648, Note_off_c, 9, 35, 64
13, 50880, Note_on_c, 9, 35, 98
13, 50888, Note_off_c, 9, 35, 64
13, 51600, Note_on_c, 9, 35, 88
13, 51608, Note_off_c, 9, 35, 64
13, 51840, Note_on_c, 9, 35, 98
13, 51848, Note_off_c, 9, 35, 64
13, 52560, Note_on_c, 9, 35, 88
13, 52568, Note_off_c, 9, 35, 64
13, 52800, Note_on_c, 9, 35, 98
13, 52808, Note_off_c, 9, 35, 64
13, 53520, Note_on_c, 9, 35, 88
13, 53528, Note_off_c, 9, 35, 64
13, 53760, Note_on_c, 9, 35, 98
13, 53768, Note_off_c, 9, 35, 64
13, 54480, Note_on_c, 9, 35, 88
13, 54488, Note_off_c, 9, 35, 64
13, 54720, Note_on_c, 9, 35, 98
13, 54728, Note_off_c, 9, 35, 64
13, 55440, Note_on_c, 9, 35, 88
13, 55448, Note_off_c, 9, 35, 64
13, 55680, Note_on_c, 9, 35, 98
13, 55688, Note_off_c, 9, 35, 64
13, 56400, Note_on_c, 9, 35, 88
13, 56408, Note_off_c, 9, 35, 64
13, 56640, Note_on_c, 9, 35, 98
13, 56648, Note_off_c, 9, 35, 64
13, 57360, Note_on_c, 9, 35, 88
13, 57368, Note_off_c, 9, 35, 64
13, 57600, Note_on_c, 9, 35, 98
13, 57608, Note_off_c, 9, 35, 64
13, 58320, Note_on_c, 9, 35, 88
13, 58328, Note_off_c, 9, 35, 64
13, 58560, Note_on_c, 9, 35, 98
13, 58568, Note_off_c, 9, 35, 64
13, 59280, Note_on_c, 9, 35, 88
13, 59288, Note_off_c, 9, 35, 64
13, 59520, Note_on_c, 9, 35, 98
13, 59528, Note_off_c, 9, 35, 64
13, 60240, Note_on_c, 9, 35, 88
13, 60248, Note_off_c, 9, 35, 64
13, 60480, Note_on_c, 9, 35, 98
13, 60488, Note_off_c, 9, 35, 64
13, 61200, Note_on_c, 9, 35, 88
13, 61208, Note_off_c, 9, 35, 64
13, 61440, Note_on_c, 9, 35, 98
13, 61448, Note_off_c, 9, 35, 64
13, 62160, Note_on_c, 9, 35, 88
13, 62168, Note_off_c, 9, 35, 64
13, 62400, Note_on_c, 9, 35, 98
13, 62408, Note_off_c, 9, 35, 64
13, 63120, Note_on_c, 9, 35, 88
13, 63128, Note_off_c, 9, 35, 64
13, 63360, Note_on_c, 9, 35, 98
13, 63368, Note_off_c, 9, 35, 64
13, 64080, Note_on_c, 9, 35, 88
13, 64088, Note_off_c, 9, 35, 64
13, 64320, Note_on_c, 9, 35, 98
13, 64328, Note_off_c, 9, 35, 64
13, 65040, Note_on_c, 9, 35, 88
13, 65048, Note_off_c, 9, 35, 64
13, 65280, Note_on_c, 9, 35, 98
13, 65288, Note_off_c, 9, 35, 64
13, 66000, Note_on_c, 9, 35, 88
13, 66008, Note_off_c, 9, 35, 64
13, 66240, Note_on_c, 9, 35, 98
13, 66248, Note_off_c, 9, 35, 64
13, 66960, Note_on_c, 9, 35, 88
13, 66968, Note_off_c, 9, 35, 64
13, 67200, Note_on_c, 9, 35, 98
13, 67208, Note_off_c, 9, 35, 64
13, 67920, Note_on_c, 9, 35, 88
13, 67928, Note_off_c, 9, 35, 64
13, 68160, Note_on_c, 9, 35, 98
13, 68168, Note_off_c, 9, 35, 64
13, 68880, Note_on_c, 9, 35, 88
13, 68888, Note_off_c, 9, 35, 64
13, 69120, Note_on_c, 9, 35, 98
13, 69128, Note_off_c, 9, 35, 64
13, 69840, Note_on_c, 9, 35, 88
13, 69848, Note_off_c, 9, 35, 64
13, 70080, Note_on_c, 9, 35, 98
13, 70088, Note_off_c, 9, 35, 64
13, 70800, Note_on_c, 9, 35, 88
13, 70808, Note_off_c, 9, 35, 64
13, 71040, Note_on_c, 9, 35, 98
13, 71048, Note_off_c, 9, 35, 64
13, 71760, Note_on_c, 9, 35, 88
13, 71768, Note_off_c, 9, 35, 64
13, 72000, Note_on_c, 9, 35, 98
13, 72008, Note_off_c, 9, 35, 64
13, 72720, Note_on_c, 9, 35, 88
13, 72728, Note_off_c, 9, 35, 64
13, 72960, Note_on_c, 9, 35, 98
13, 72968, Note_off_c, 9, 35, 64
13, 73680, Note_on_c, 9, 35, 88
13, 73688, Note_off_c, 9, 35, 64
13, 73920, Note_on_c, 9, 35, 98
13, 73928, Note_off_c, 9, 35, 64
13, 74640, Note_on_c, 9, 35, 88
13, 74648, Note_off_c, 9, 35, 64
13, 74880, Note_on_c, 9, 35, 98
13, 74888, Note_off_c, 9, 35, 64
13, 75600, Note_on_c, 9, 35, 88
13, 75608, Note_off_c, 9, 35, 64
13, 75840, Note_on_c, 9, 35, 98
13, 75848, Note_off_c, 9, 35, 64
13, 76560, Note_on_c, 9, 35, 88
13, 76568, Note_off_c, 9, 35, 64
13, 76800, Note_on_c, 9, 35, 98
13, 76808, Note_off_c, 9, 35, 64
13, 77520, Note_on_c, 9, 35, 88
13, 77528, Note_off_c, 9, 35, 64
13, 77760, Note_on_c, 9, 35, 98
13, 77768, Note_off_c, 9, 35, 64
13, 78480, Note_on_c, 9, 35, 88
13, 78488, Note_off_c, 9, 35, 64
13, 78720, Note_on_c, 9, 35, 98
13, 78728, Note_off_c, 9, 35, 64
13, 79440, Note_on_c, 9, 35, 88
13, 79448, Note_off_c, 9, 35, 64
13, 79680, Note_on_c, 9, 35, 98
13, 79688, Note_off_c, 9, 35, 64
13, 80400, Note_on_c, 9, 35, 88
13, 80408, Note_off_c, 9, 35, 64
13, 80640, Note_on_c, 9, 35, 98
13, 80648, Note_off_c, 9, 35, 64
13, 81360, Note_on_c, 9, 35, 88
13, 81368, Note_off_c, 9, 35, 64
13, 81600, Note_on_c, 9, 35, 98
13, 81608, Note_off_c, 9, 35, 64
13, 82320, Note_on_c, 9, 35, 88
13, 82328, Note_off_c, 9, 35, 64
13, 82560, Note_on_c, 9, 35, 98
13, 82568, Note_off_c, 9, 35, 64
13, 83280, Note_on_c, 9, 35, 88
13, 83288, Note_off_c, 9, 35, 64
13, 83520, Note_on_c, 9, 35, 98
13, 83528, Note_off_c, 9, 35, 64
13, 84240, Note_on_c, 9, 35, 88
13, 84248, Note_off_c, 9, 35, 64
13, 84480, Note_on_c, 9, 35, 98
13, 84488, Note_off_c, 9, 35, 64
13, 85200, Note_on_c, 9, 35, 88
13, 85208, Note_off_c, 9, 35, 64
13, 85440, Note_on_c, 9, 35, 98
13, 85448, Note_off_c, 9, 35, 64
13, 86160, Note_on_c, 9, 35, 88
13, 86168, Note_off_c, 9, 35, 64
13, 86400, Note_on_c, 9, 35, 98
13, 86408, Note_off_c, 9, 35, 64
13, 87120, Note_on_c, 9, 35, 88
13, 87128, Note_off_c, 9, 35, 64
13, 87360, Note_on_c, 9, 35, 98
13, 87368, Note_off_c, 9, 35, 64
13, 88080, Note_on_c, 9, 35, 88
13, 88088, Note_off_c, 9, 35, 64
13, 88320, Note_on_c, 9, 35, 98
13, 88328, Note_off_c, 9, 35, 64
13, 89280, Note_on_c, 9, 35, 98
13, 89288, Note_off_c, 9, 35, 64
13, 90000, Note_on_c, 9, 35, 88
13, 90008, Note_off_c, 9, 35, 64
13, 90240, Note_on_c, 9, 35, 98
13, 90248, Note_off_c, 9, 35, 64
13, 90960, Note_on_c, 9, 35, 88
13, 90968, Note_off_c, 9, 35, 64
13, 91200, Note_on_c, 9, 35, 98
13, 91208, Note_off_c, 9, 35, 64
13, 91920, Note_on_c, 9, 35, 88
13, 91928, Note_off_c, 9, 35, 64
13, 92160, Note_on_c, 9, 35, 98
13, 92168, Note_off_c, 9, 35, 64
13, 92880, Note_on_c, 9, 35, 88
13, 92888, Note_off_c, 9, 35, 64
13, 93120, Note_on_c, 9, 35, 98
13, 93128, Note_off_c, 9, 35, 64
13, 93840, Note_on_c, 9, 35, 88
13, 93848, Note_off_c, 9, 35, 64
13, 94080, Note_on_c, 9, 35, 98
13, 94088, Note_off_c, 9, 35, 64
13, 94800, Note_on_c, 9, 35, 88
13, 94808, Note_off_c, 9, 35, 64
13, 95040, Note_on_c, 9, 35, 98
13, 95048, Note_off_c, 9, 35, 64
13, 95760, Note_on_c, 9, 35, 88
13, 95768, Note_off_c, 9, 35, 64
13, 96000, Note_on_c, 9, 35, 98
13, 96008, Note_off_c, 9, 35, 64
13, 96720, Note_on_c, 9, 35, 88
13, 96728, Note_off_c, 9, 35, 64
13, 96960, Note_on_c, 9, 35, 98
13, 96968, Note_off_c, 9, 35, 64
13, 97680, Note_on_c, 9, 35, 88
13, 97688, Note_off_c, 9, 35, 64
13, 97920, Note_on_c, 9, 35, 98
13, 97928, Note_off_c, 9, 35, 64
13, 98640, Note_on_c, 9, 35, 88
13, 98648, Note_off_c, 9, 35, 64
13, 98880, Note_on_c, 9, 35, 98
13, 98888, Note_off_c, 9, 35, 64
13, 99600, Note_on_c, 9, 35, 88
13, 99608, Note_off_c, 9, 35, 64
13, 99840, Note_on_c, 9, 35, 98
13, 99848, Note_off_c, 9, 35, 64
13, 100560, Note_on_c, 9, 35, 88
13, 100568, Note_off_c, 9, 35, 64
13, 100800, Note_on_c, 9, 35, 98
13, 100808, Note_off_c, 9, 35, 64
13, 101520, Note_on_c, 9, 35, 88
13, 101528, Note_off_c, 9, 35, 64
13, 101760, Note_on_c, 9, 35, 98
13, 101768, Note_off_c, 9, 35, 64
13, 102480, Note_on_c, 9, 35, 88
13, 102488, Note_off_c, 9, 35, 64
13, 102720, Note_on_c, 9, 35, 98
13, 102728, Note_off_c, 9, 35, 64
13, 103440, Note_on_c, 9, 35, 88
13, 103448, Note_off_c, 9, 35, 64
13, 103680, Note_on_c, 9, 35, 98
13, 103688, Note_off_c, 9, 35, 64
13, 104400, Note_on_c, 9, 35, 88
13, 104408, Note_off_c, 9, 35, 64
13, 104640, Note_on_c, 9, 35, 98
13, 104648, Note_off_c, 9, 35, 64
13, 105360, Note_on_c, 9, 35, 88
13, 105368, Note_off_c, 9, 35, 64
13, 105600, Note_on_c, 9, 35, 98
13, 105608, Note_off_c, 9, 35, 64
13, 106320, Note_on_c, 9, 35, 88
13, 106328, Note_off_c, 9, 35, 64
13, 106560, Note_on_c, 9, 35, 98
13, 106568, Note_off_c, 9, 35, 64
13, 107280, Note_on_c, 9, 35, 88
13, 107288, Note_off_c, 9, 35, 64
13, 107520, Note_on_c, 9, 35, 98
13, 107528, Note_off_c, 9, 35, 64
13, 108240, Note_on_c, 9, 35, 88
13, 108248, Note_off_c, 9, 35, 64
13, 108480, Note_on_c, 9, 35, 98
13, 108488, Note_off_c, 9, 35, 64
13, 109200, Note_on_c, 9, 35, 88
13, 109208, Note_off_c, 9, 35, 64
13, 109440, Note_on_c, 9, 35, 98
13, 109448, Note_off_c, 9, 35, 64
13, 110160, Note_on_c, 9, 35, 88
13, 110168, Note_off_c, 9, 35, 64
13, 110400, Note_on_c, 9, 35, 98
13, 110408, Note_off_c, 9, 35, 64
13, 111120, Note_on_c, 9, 35, 88
13, 111128, Note_off_c, 9, 35, 64
13, 111360, Note_on_c, 9, 35, 98
13, 111368, Note_off_c, 9, 35, 64
13, 112080, Note_on_c, 9, 35, 88
13, 112088, Note_off_c, 9, 35, 64
13, 112320, Note_on_c, 9, 35, 98
13, 112328, Note_off_c, 9, 35, 64
13, 112328, End_track
14, 0, Start_track
14, 0, Title_t, "sd"
14, 0, MIDI_port, 0
14, 0, Channel_prefix, 9
14, 0, Control_c, 9, 7, 110
14, 0, Control_c, 9, 10, 64
14, 0, Program_c, 9, 0
14, 7920, Note_on_c, 9, 49, 8
14, 7928, Note_off_c, 9, 49, 64
14, 12960, Note_on_c, 9, 37, 73
14, 12968, Note_off_c, 9, 37, 64
14, 13920, Note_on_c, 9, 37, 73
14, 13928, Note_off_c, 9, 37, 64
14, 14880, Note_on_c, 9, 37, 73
14, 14888, Note_off_c, 9, 37, 64
14, 15840, Note_on_c, 9, 37, 73
14, 15848, Note_off_c, 9, 37, 64
14, 16800, Note_on_c, 9, 37, 73
14, 16808, Note_off_c, 9, 37, 64
14, 17760, Note_on_c, 9, 37, 73
14, 17768, Note_off_c, 9, 37, 64
14, 18720, Note_on_c, 9, 37, 73
14, 18728, Note_off_c, 9, 37, 64
14, 19680, Note_on_c, 9, 37, 73
14, 19688, Note_off_c, 9, 37, 64
14, 20640, Note_on_c, 9, 37, 73
14, 20648, Note_off_c, 9, 37, 64
14, 21600, Note_on_c, 9, 37, 73
14, 21608, Note_off_c, 9, 37, 64
14, 22560, Note_on_c, 9, 37, 73
14, 22568, Note_off_c, 9, 37, 64
14, 23520, Note_on_c, 9, 37, 73
14, 23528, Note_off_c, 9, 37, 64
14, 24480, Note_on_c, 9, 37, 73
14, 24488, Note_off_c, 9, 37, 64
14, 25440, Note_on_c, 9, 37, 73
14, 25448, Note_off_c, 9, 37, 64
14, 26400, Note_on_c, 9, 37, 73
14, 26408, Note_off_c, 9, 37, 64
14, 27360, Note_on_c, 9, 37, 73
14, 27368, Note_off_c, 9, 37, 64
14, 28320, Note_on_c, 9, 37, 73
14, 28328, Note_off_c, 9, 37, 64
14, 29280, Note_on_c, 9, 37, 73
14, 29288, Note_off_c, 9, 37, 64
14, 30240, Note_on_c, 9, 37, 73
14, 30248, Note_off_c, 9, 37, 64
14, 31200, Note_on_c, 9, 37, 73
14, 31208, Note_off_c, 9, 37, 64
14, 32160, Note_on_c, 9, 37, 73
14, 32168, Note_off_c, 9, 37, 64
14, 33120, Note_on_c, 9, 37, 73
14, 33128, Note_off_c, 9, 37, 64
14, 34080, Note_on_c, 9, 37, 73
14, 34088, Note_off_c, 9, 37, 64
14, 35040, Note_on_c, 9, 37, 73
14, 35048, Note_off_c, 9, 37, 64
14, 36000, Note_on_c, 9, 37, 73
14, 36008, Note_off_c, 9, 37, 64
14, 36960, Note_on_c, 9, 37, 73
14, 36968, Note_off_c, 9, 37, 64
14, 37920, Note_on_c, 9, 37, 73
14, 37928, Note_off_c, 9, 37, 64
14, 38880, Note_on_c, 9, 37, 73
14, 38888, Note_off_c, 9, 37, 64
14, 39840, Note_on_c, 9, 37, 73
14, 39848, Note_off_c, 9, 37, 64
14, 40800, Note_on_c, 9, 37, 73
14, 40808, Note_off_c, 9, 37, 64
14, 41760, Note_on_c, 9, 37, 73
14, 41768, Note_off_c, 9, 37, 64
14, 42720, Note_on_c, 9, 37, 73
14, 42728, Note_off_c, 9, 37, 64
14, 43680, Note_on_c, 9, 37, 73
14, 43688, Note_off_c, 9, 37, 64
14, 44640, Note_on_c, 9, 37, 73
14, 44648, Note_off_c, 9, 37, 64
14, 45600, Note_on_c, 9, 37, 73
14, 45608, Note_off_c, 9, 37, 64
14, 46560, Note_on_c, 9, 37, 73
14, 46568, Note_off_c, 9, 37, 64
14, 47520, Note_on_c, 9, 37, 73
14, 47528, Note_off_c, 9, 37, 64
14, 48480, Note_on_c, 9, 37, 73
14, 48488, Note_off_c, 9, 37, 64
14, 49440, Note_on_c, 9, 37, 73
14, 49448, Note_off_c, 9, 37, 64
14, 50400, Note_on_c, 9, 37, 73
14, 50408, Note_off_c, 9, 37, 64
14, 51360, Note_on_c, 9, 37, 73
14, 51368, Note_off_c, 9, 37, 64
14, 52320, Note_on_c, 9, 37, 73
14, 52328, Note_off_c, 9, 37, 64
14, 53280, Note_on_c, 9, 37, 73
14, 53288, Note_off_c, 9, 37, 64
14, 54000, Note_on_c, 9, 48, 48
14, 54008, Note_off_c, 9, 48, 64
14, 54240, Note_on_c, 9, 47, 47
14, 54248, Note_off_c, 9, 47, 64
14, 54360, Note_on_c, 9, 47, 47
14, 54368, Note_off_c, 9, 47, 64
14, 54480, Note_on_c, 9, 45, 45
14, 54488, Note_off_c, 9, 45, 64
14, 54600, Note_on_c, 9, 43, 44
14, 54608, Note_off_c, 9, 43, 64
14, 55200, Note_on_c, 9, 40, 63
14, 55208, Note_off_c, 9, 40, 64
14, 56160, Note_on_c, 9, 40, 63
14, 56168, Note_off_c, 9, 40, 64
14, 57120, Note_on_c, 9, 40, 63
14, 57128, Note_off_c, 9, 40, 64
14, 58080, Note_on_c, 9, 40, 63
14, 58088, Note_off_c, 9, 40, 64
14, 59040, Note_on_c, 9, 40, 63
14, 59048, Note_off_c, 9, 40, 64
14, 60000, Note_on_c, 9, 40, 63
14, 60008, Note_off_c, 9, 40, 64
14, 60960, Note_on_c, 9, 40, 63
14, 60968, Note_off_c, 9, 40, 64
14, 61920, Note_on_c, 9, 40, 63
14, 61928, Note_off_c, 9, 40, 64
14, 62880, Note_on_c, 9, 40, 63
14, 62888, Note_off_c, 9, 40, 64
14, 63840, Note_on_c, 9, 40, 63
14, 63848, Note_off_c, 9, 40, 64
14, 64800, Note_on_c, 9, 40, 63
14, 64808, Note_off_c, 9, 40, 64
14, 65760, Note_on_c, 9, 40, 63
14, 65768, Note_off_c, 9, 40, 64
14, 66720, Note_on_c, 9, 40, 63
14, 66728, Note_off_c, 9, 40, 64
14, 67680, Note_on_c, 9, 40, 63
14, 67688, Note_off_c, 9, 40, 64
14, 68640, Note_on_c, 9, 40, 63
14, 68648, Note_off_c, 9, 40, 64
14, 69600, Note_on_c, 9, 40, 63
14, 69608, Note_off_c, 9, 40, 64
14, 70560, Note_on_c, 9, 40, 63
14, 70568, Note_off_c, 9, 40, 64
14, 71520, Note_on_c, 9, 40, 63
14, 71528, Note_off_c, 9, 40, 64
14, 72480, Note_on_c, 9, 40, 63
14, 72488, Note_off_c, 9, 40, 64
14, 73440, Note_on_c, 9, 40, 63
14, 73448, Note_off_c, 9, 40, 64
14, 74400, Note_on_c, 9, 40, 63
14, 74408, Note_off_c, 9, 40, 64
14, 75360, Note_on_c, 9, 40, 63
14, 75368, Note_off_c, 9, 40, 64
14, 76320, Note_on_c, 9, 40, 63
14, 76328, Note_off_c, 9, 40, 64
14, 77280, Note_on_c, 9, 40, 63
14, 77288, Note_off_c, 9, 40, 64
14, 78240, Note_on_c, 9, 40, 63
14, 78248, Note_off_c, 9, 40, 64
14, 79200, Note_on_c, 9, 40, 63
14, 79208, Note_off_c, 9, 40, 64
14, 79440, Note_on_c, 9, 40, 61
14, 79448, Note_off_c, 9, 40, 64
14, 79560, Note_on_c, 9, 40, 61
14, 79568, Note_off_c, 9, 40, 64
14, 80160, Note_on_c, 9, 37, 73
14, 80168, Note_off_c, 9, 37, 64
14, 81120, Note_on_c, 9, 37, 73
14, 81128, Note_off_c, 9, 37, 64
14, 82080, Note_on_c, 9, 37, 73
14, 82088, Note_off_c, 9, 37, 64
14, 83040, Note_on_c, 9, 37, 73
14, 83048, Note_off_c, 9, 37, 64
14, 84000, Note_on_c, 9, 37, 73
14, 84008, Note_off_c, 9, 37, 64
14, 84960, Note_on_c, 9, 37, 73
14, 84968, Note_off_c, 9, 37, 64
14, 85920, Note_on_c, 9, 37, 73
14, 85928, Note_off_c, 9, 37, 64
14, 86880, Note_on_c, 9, 37, 73
14, 86888, Note_off_c, 9, 37, 64
14, 87840, Note_on_c, 9, 37, 73
14, 87848, Note_off_c, 9, 37, 64
14, 88800, Note_on_c, 9, 37, 73
14, 88808, Note_off_c, 9, 37, 64
14, 89760, Note_on_c, 9, 37, 73
14, 89768, Note_off_c, 9, 37, 64
14, 90720, Note_on_c, 9, 37, 73
14, 90728, Note_off_c, 9, 37, 64
14, 91680, Note_on_c, 9, 37, 73
14, 91688, Note_off_c, 9, 37, 64
14, 92640, Note_on_c, 9, 37, 73
14, 92648, Note_off_c, 9, 37, 64
14, 93600, Note_on_c, 9, 37, 73
14, 93608, Note_off_c, 9, 37, 64
14, 94560, Note_on_c, 9, 37, 73
14, 94568, Note_off_c, 9, 37, 64
14, 95520, Note_on_c, 9, 37, 73
14, 95528, Note_off_c, 9, 37, 64
14, 96480, Note_on_c, 9, 37, 73
14, 96488, Note_off_c, 9, 37, 64
14, 97440, Note_on_c, 9, 37, 73
14, 97448, Note_off_c, 9, 37, 64
14, 98400, Note_on_c, 9, 40, 63
14, 98408, Note_off_c, 9, 40, 64
14, 98520, Note_on_c, 9, 50, 50
14, 98528, Note_off_c, 9, 50, 64
14, 98640, Note_on_c, 9, 47, 47
14, 98648, Note_off_c, 9, 47, 64
14, 98760, Note_on_c, 9, 43, 46
14, 98768, Note_off_c, 9, 43, 64
14, 99360, Note_on_c, 9, 40, 63
14, 99368, Note_off_c, 9, 40, 64
14, 100320, Note_on_c, 9, 40, 63
14, 100328, Note_off_c, 9, 40, 64
14, 101280, Note_on_c, 9, 40, 63
14, 101288, Note_off_c, 9, 40, 64
14, 102240, Note_on_c, 9, 40, 63
14, 102248, Note_off_c, 9, 40, 64
14, 103200, Note_on_c, 9, 40, 63
14, 103208, Note_off_c, 9, 40, 64
14, 104160, Note_on_c, 9, 40, 63
14, 104168, Note_off_c, 9, 40, 64
14, 105120, Note_on_c, 9, 40, 63
14, 105128, Note_off_c, 9, 40, 64
14, 106080, Note_on_c, 9, 40, 63
14, 106088, Note_off_c, 9, 40, 64
14, 107040, Note_on_c, 9, 40, 63
14, 107048, Note_off_c, 9, 40, 64
14, 108000, Note_on_c, 9, 40, 63
14, 108008, Note_off_c, 9, 40, 64
14, 108960, Note_on_c, 9, 40, 63
14, 108968, Note_off_c, 9, 40, 64
14, 109920, Note_on_c, 9, 40, 63
14, 109928, Note_off_c, 9, 40, 64
14, 110880, Note_on_c, 9, 40, 63
14, 110888, Note_off_c, 9, 40, 64
14, 111840, Note_on_c, 9, 40, 63
14, 111848, Note_off_c, 9, 40, 64
14, 111848, End_track
15, 0, Start_track
15, 0, Title_t, "HH"
15, 0, MIDI_port, 0
15, 0, Channel_prefix, 9
15, 0, Control_c, 9, 7, 110
15, 0, Control_c, 9, 10, 64
15, 0, Program_c, 9, 0
15, 3840, Note_on_c, 9, 49, 78
15, 3848, Note_off_c, 9, 49, 64
15, 5760, Note_on_c, 9, 49, 78
15, 5768, Note_off_c, 9, 49, 64
15, 7680, Note_on_c, 9, 57, 78
15, 7688, Note_off_c, 9, 57, 64
15, 12480, Note_on_c, 9, 51, 100
15, 12488, Note_off_c, 9, 51, 64
15, 12720, Note_on_c, 9, 42, 82
15, 12728, Note_off_c, 9, 42, 64
15, 12960, Note_on_c, 9, 42, 87
15, 12968, Note_off_c, 9, 42, 64
15, 13200, Note_on_c, 9, 42, 82
15, 13208, Note_off_c, 9, 42, 64
15, 13440, Note_on_c, 9, 42, 84
15, 13448, Note_off_c, 9, 42, 64
15, 13680, Note_on_c, 9, 42, 82
15, 13688, Note_off_c, 9, 42, 64
15, 13920, Note_on_c, 9, 42, 87
15, 13928, Note_off_c, 9, 42, 64
15, 14160, Note_on_c, 9, 42, 82
15, 14168, Note_off_c, 9, 42, 64
15, 14400, Note_on_c, 9, 42, 84
15, 14408, Note_off_c, 9, 42, 64
15, 14640, Note_on_c, 9, 42, 82
15, 14648, Note_off_c, 9, 42, 64
15, 14880, Note_on_c, 9, 42, 87
15, 14888, Note_off_c, 9, 42, 64
15, 15120, Note_on_c, 9, 42, 82
15, 15128, Note_off_c, 9, 42, 64
15, 15360, Note_on_c, 9, 42, 84
15, 15368, Note_off_c, 9, 42, 64
15, 15600, Note_on_c, 9, 42, 82
15, 15608, Note_off_c, 9, 42, 64
15, 15840, Note_on_c, 9, 42, 87
15, 15848, Note_off_c, 9, 42, 64
15, 16080, Note_on_c, 9, 42, 82
15, 16088, Note_off_c, 9, 42, 64
15, 16320, Note_on_c, 9, 51, 100
15, 16328, Note_off_c, 9, 51, 64
15, 16560, Note_on_c, 9, 42, 82
15, 16568, Note_off_c, 9, 42, 64
15, 16800, Note_on_c, 9, 42, 87
15, 16808, Note_off_c, 9, 42, 64
15, 17040, Note_on_c, 9, 42, 82
15, 17048, Note_off_c, 9, 42, 64
15, 17280, Note_on_c, 9, 42, 84
15, 17288, Note_off_c, 9, 42, 64
15, 17520, Note_on_c, 9, 42, 82
15, 17528, Note_off_c, 9, 42, 64
15, 17760, Note_on_c, 9, 42, 87
15, 17768, Note_off_c, 9, 42, 64
15, 18000, Note_on_c, 9, 42, 82
15, 18008, Note_off_c, 9, 42, 64
15, 18240, Note_on_c, 9, 42, 84
15, 18248, Note_off_c, 9, 42, 64
15, 18480, Note_on_c, 9, 42, 82
15, 18488, Note_off_c, 9, 42, 64
15, 18720, Note_on_c, 9, 42, 87
15, 18728, Note_off_c, 9, 42, 64
15, 18960, Note_on_c, 9, 42, 82
15, 18968, Note_off_c, 9, 42, 64
15, 19200, Note_on_c, 9, 42, 84
15, 19208, Note_off_c, 9, 42, 64
15, 19440, Note_on_c, 9, 42, 82
15, 19448, Note_off_c, 9, 42, 64
15, 19680, Note_on_c, 9, 42, 87
15, 19688, Note_off_c, 9, 42, 64
15, 19920, Note_on_c, 9, 42, 82
15, 19928, Note_off_c, 9, 42, 64
15, 20160, Note_on_c, 9, 42, 84
15, 20168, Note_off_c, 9, 42, 64
15, 20400, Note_on_c, 9, 42, 82
15, 20408, Note_off_c, 9, 42, 64
15, 20640, Note_on_c, 9, 42, 87
15, 20648, Note_off_c, 9, 42, 64
15, 20880, Note_on_c, 9, 42, 82
15, 20888, Note_off_c, 9, 42, 64
15, 21120, Note_on_c, 9, 42, 84
15, 21128, Note_off_c, 9, 42, 64
15, 21360, Note_on_c, 9, 42, 82
15, 21368, Note_off_c, 9, 42, 64
15, 21600, Note_on_c, 9, 42, 87
15, 21608, Note_off_c, 9, 42, 64
15, 21840, Note_on_c, 9, 42, 82
15, 21848, Note_off_c, 9, 42, 64
15, 22080, Note_on_c, 9, 42, 84
15, 22088, Note_off_c, 9, 42, 64
15, 22320, Note_on_c, 9, 42, 82
15, 22328, Note_off_c, 9, 42, 64
15, 22560, Note_on_c, 9, 42, 87
15, 22568, Note_off_c, 9, 42, 64
15, 22800, Note_on_c, 9, 42, 82
15, 22808, Note_off_c, 9, 42, 64
15, 23040, Note_on_c, 9, 42, 84
15, 23048, Note_off_c, 9, 42, 64
15, 23280, Note_on_c, 9, 42, 82
15, 23288, Note_off_c, 9, 42, 64
15, 23520, Note_on_c, 9, 42, 87
15, 23528, Note_off_c, 9, 42, 64
15, 23760, Note_on_c, 9, 42, 82
15, 23768, Note_off_c, 9, 42, 64
15, 24000, Note_on_c, 9, 42, 84
15, 24008, Note_off_c, 9, 42, 64
15, 24240, Note_on_c, 9, 42, 82
15, 24248, Note_off_c, 9, 42, 64
15, 24480, Note_on_c, 9, 42, 87
15, 24488, Note_off_c, 9, 42, 64
15, 24720, Note_on_c, 9, 42, 82
15, 24728, Note_off_c, 9, 42, 64
15, 24960, Note_on_c, 9, 42, 84
15, 24968, Note_off_c, 9, 42, 64
15, 25200, Note_on_c, 9, 42, 82
15, 25208, Note_off_c, 9, 42, 64
15, 25440, Note_on_c, 9, 42, 87
15, 25448, Note_off_c, 9, 42, 64
15, 25680, Note_on_c, 9, 42, 82
15, 25688, Note_off_c, 9, 42, 64
15, 25920, Note_on_c, 9, 42, 84
15, 25928, Note_off_c, 9, 42, 64
15, 26160, Note_on_c, 9, 42, 82
15, 26168, Note_off_c, 9, 42, 64
15, 26400, Note_on_c, 9, 42, 87
15, 26408, Note_off_c, 9, 42, 64
15, 26640, Note_on_c, 9, 42, 82
15, 26648, Note_off_c, 9, 42, 64
15, 26880, Note_on_c, 9, 42, 84
15, 26888, Note_off_c, 9, 42, 64
15, 27120, Note_on_c, 9, 42, 82
15, 27128, Note_off_c, 9, 42, 64
15, 27360, Note_on_c, 9, 42, 87
15, 27368, Note_off_c, 9, 42, 64
15, 27600, Note_on_c, 9, 42, 82
15, 27608, Note_off_c, 9, 42, 64
15, 27840, Note_on_c, 9, 42, 84
15, 27848, Note_off_c, 9, 42, 64
15, 28080, Note_on_c, 9, 42, 82
15, 28088, Note_off_c, 9, 42, 64
15, 28320, Note_on_c, 9, 42, 87
15, 28328, Note_off_c, 9, 42, 64
15, 28560, Note_on_c, 9, 42, 82
15, 28568, Note_off_c, 9, 42, 64
15, 28800, Note_on_c, 9, 42, 84
15, 28808, Note_off_c, 9, 42, 64
15, 29040, Note_on_c, 9, 42, 82
15, 29048, Note_off_c, 9, 42, 64
15, 29280, Note_on_c, 9, 42, 87
15, 29288, Note_off_c, 9, 42, 64
15, 29520, Note_on_c, 9, 42, 82
15, 29528, Note_off_c, 9, 42, 64
15, 29760, Note_on_c, 9, 42, 84
15, 29768, Note_off_c, 9, 42, 64
15, 30000, Note_on_c, 9, 42, 82
15, 30008, Note_off_c, 9, 42, 64
15, 30240, Note_on_c, 9, 42, 87
15, 30248, Note_off_c, 9, 42, 64
15, 30480, Note_on_c, 9, 42, 82
15, 30488, Note_off_c, 9, 42, 64
15, 30720, Note_on_c, 9, 42, 84
15, 30728, Note_off_c, 9, 42, 64
15, 30960, Note_on_c, 9, 42, 82
15, 30968, Note_off_c, 9, 42, 64
15, 31200, Note_on_c, 9, 42, 87
15, 31208, Note_off_c, 9, 42, 64
15, 31440, Note_on_c, 9, 42, 82
15, 31448, Note_off_c, 9, 42, 64
15, 31680, Note_on_c, 9, 42, 84
15, 31688, Note_off_c, 9, 42, 64
15, 31920, Note_on_c, 9, 42, 82
15, 31928, Note_off_c, 9, 42, 64
15, 32160, Note_on_c, 9, 42, 87
15, 32168, Note_off_c, 9, 42, 64
15, 32400, Note_on_c, 9, 42, 82
15, 32408, Note_off_c, 9, 42, 64
15, 32640, Note_on_c, 9, 42, 84
15, 32648, Note_off_c, 9, 42, 64
15, 32880, Note_on_c, 9, 42, 82
15, 32888, Note_off_c, 9, 42, 64
15, 33120, Note_on_c, 9, 42, 87
15, 33128, Note_off_c, 9, 42, 64
15, 33360, Note_on_c, 9, 42, 82
15, 33368, Note_off_c, 9, 42, 64
15, 33600, Note_on_c, 9, 42, 84
15, 33608, Note_off_c, 9, 42, 64
15, 33840, Note_on_c, 9, 42, 82
15, 33848, Note_off_c, 9, 42, 64
15, 34080, Note_on_c, 9, 42, 87
15, 34088, Note_off_c, 9, 42, 64
15, 34320, Note_on_c, 9, 42, 82
15, 34328, Note_off_c, 9, 42, 64
15, 34560, Note_on_c, 9, 42, 84
15, 34568, Note_off_c, 9, 42, 64
15, 34800, Note_on_c, 9, 42, 82
15, 34808, Note_off_c, 9, 42, 64
15, 35040, Note_on_c, 9, 42, 87
15, 35048, Note_off_c, 9, 42, 64
15, 35280, Note_on_c, 9, 46, 82
15, 35288, Note_off_c, 9, 46, 64
15, 35520, Note_on_c, 9, 51, 100
15, 35528, Note_off_c, 9, 51, 64
15, 35760, Note_on_c, 9, 42, 82
15, 35768, Note_off_c, 9, 42, 64
15, 36000, Note_on_c, 9, 42, 87
15, 36008, Note_off_c, 9, 42, 64
15, 36240, Note_on_c, 9, 42, 82
15, 36248, Note_off_c, 9, 42, 64
15, 36480, Note_on_c, 9, 42, 84
15, 36488, Note_off_c, 9, 42, 64
15, 36720, Note_on_c, 9, 42, 82
15, 36728, Note_off_c, 9, 42, 64
15, 36960, Note_on_c, 9, 42, 87
15, 36968, Note_off_c, 9, 42, 64
15, 37200, Note_on_c, 9, 42, 82
15, 37208, Note_off_c, 9, 42, 64
15, 37440, Note_on_c, 9, 42, 84
15, 37448, Note_off_c, 9, 42, 64
15, 37680, Note_on_c, 9, 42, 82
15, 37688, Note_off_c, 9, 42, 64
15, 37920, Note_on_c, 9, 42, 87
15, 37928, Note_off_c, 9, 42, 64
15, 38160, Note_on_c, 9, 42, 82
15, 38168, Note_off_c, 9, 42, 64
15, 38400, Note_on_c, 9, 42, 84
15, 38408, Note_off_c, 9, 42, 64
15, 38640, Note_on_c, 9, 42, 82
15, 38648, Note_off_c, 9, 42, 64
15, 38880, Note_on_c, 9, 42, 87
15, 38888, Note_off_c, 9, 42, 64
15, 39120, Note_on_c, 9, 42, 82
15, 39128, Note_off_c, 9, 42, 64
15, 39360, Note_on_c, 9, 42, 84
15, 39368, Note_off_c, 9, 42, 64
15, 39600, Note_on_c, 9, 42, 82
15, 39608, Note_off_c, 9, 42, 64
15, 39840, Note_on_c, 9, 42, 87
15, 39848, Note_off_c, 9, 42, 64
15, 40080, Note_on_c, 9, 42, 82
15, 40088, Note_off_c, 9, 42, 64
15, 40320, Note_on_c, 9, 42, 84
15, 40328, Note_off_c, 9, 42, 64
15, 40560, Note_on_c, 9, 42, 82
15, 40568, Note_off_c, 9, 42, 64
15, 40800, Note_on_c, 9, 42, 87
15, 40808, Note_off_c, 9, 42, 64
15, 41040, Note_on_c, 9, 42, 82
15, 41048, Note_off_c, 9, 42, 64
15, 41280, Note_on_c, 9, 42, 84
15, 41288, Note_off_c, 9, 42, 64
15, 41520, Note_on_c, 9, 42, 82
15, 41528, Note_off_c, 9, 42, 64
15, 41760, Note_on_c, 9, 42, 87
15, 41768, Note_off_c, 9, 42, 64
15, 42000, Note_on_c, 9, 42, 82
15, 42008, Note_off_c, 9, 42, 64
15, 42240, Note_on_c, 9, 42, 84
15, 42248, Note_off_c, 9, 42, 64
15, 42480, Note_on_c, 9, 42, 82
15, 42488, Note_off_c, 9, 42, 64
15, 42720, Note_on_c, 9, 42, 87
15, 42728, Note_off_c, 9, 42, 64
15, 42960, Note_on_c, 9, 42, 82
15, 42968, Note_off_c, 9, 42, 64
15, 43200, Note_on_c, 9, 42, 84
15, 43208, Note_off_c, 9, 42, 64
15, 43440, Note_on_c, 9, 42, 82
15, 43448, Note_off_c, 9, 42, 64
15, 43680, Note_on_c, 9, 42, 87
15, 43688, Note_off_c, 9, 42, 64
15, 43920, Note_on_c, 9, 42, 82
15, 43928, Note_off_c, 9, 42, 64
15, 44160, Note_on_c, 9, 42, 84
15, 44168, Note_off_c, 9, 42, 64
15, 44400, Note_on_c, 9, 42, 82
15, 44408, Note_off_c, 9, 42, 64
15, 44640, Note_on_c, 9, 42, 87
15, 44648, Note_off_c, 9, 42, 64
15, 44880, Note_on_c, 9, 42, 82
15, 44888, Note_off_c, 9, 42, 64
15, 45120, Note_on_c, 9, 42, 84
15, 45128, Note_off_c, 9, 42, 64
15, 45360, Note_on_c, 9, 42, 82
15, 45368, Note_off_c, 9, 42, 64
15, 45600, Note_on_c, 9, 42, 87
15, 45608, Note_off_c, 9, 42, 64
15, 45840, Note_on_c, 9, 42, 82
15, 45848, Note_off_c, 9, 42, 64
15, 46080, Note_on_c, 9, 42, 84
15, 46088, Note_off_c, 9, 42, 64
15, 46320, Note_on_c, 9, 42, 82
15, 46328, Note_off_c, 9, 42, 64
15, 46560, Note_on_c, 9, 42, 87
15, 46568, Note_off_c, 9, 42, 64
15, 46800, Note_on_c, 9, 42, 82
15, 46808, Note_off_c, 9, 42, 64
15, 47040, Note_on_c, 9, 42, 84
15, 47048, Note_off_c, 9, 42, 64
15, 47280, Note_on_c, 9, 42, 82
15, 47288, Note_off_c, 9, 42, 64
15, 47520, Note_on_c, 9, 42, 87
15, 47528, Note_off_c, 9, 42, 64
15, 47760, Note_on_c, 9, 42, 82
15, 47768, Note_off_c, 9, 42, 64
15, 48000, Note_on_c, 9, 42, 84
15, 48008, Note_off_c, 9, 42, 64
15, 48240, Note_on_c, 9, 42, 82
15, 48248, Note_off_c, 9, 42, 64
15, 48480, Note_on_c, 9, 42, 87
15, 48488, Note_off_c, 9, 42, 64
15, 48720, Note_on_c, 9, 42, 82
15, 48728, Note_off_c, 9, 42, 64
15, 48960, Note_on_c, 9, 42, 84
15, 48968, Note_off_c, 9, 42, 64
15, 49200, Note_on_c, 9, 42, 82
15, 49208, Note_off_c, 9, 42, 64
15, 49440, Note_on_c, 9, 42, 87
15, 49448, Note_off_c, 9, 42, 64
15, 49680, Note_on_c, 9, 42, 82
15, 49688, Note_off_c, 9, 42, 64
15, 49920, Note_on_c, 9, 42, 84
15, 49928, Note_off_c, 9, 42, 64
15, 50160, Note_on_c, 9, 42, 82
15, 50168, Note_off_c, 9, 42, 64
15, 50400, Note_on_c, 9, 42, 87
15, 50408, Note_off_c, 9, 42, 64
15, 50640, Note_on_c, 9, 42, 82
15, 50648, Note_off_c, 9, 42, 64
15, 50880, Note_on_c, 9, 42, 84
15, 50888, Note_off_c, 9, 42, 64
15, 51120, Note_on_c, 9, 42, 82
15, 51128, Note_off_c, 9, 42, 64
15, 51360, Note_on_c, 9, 42, 87
15, 51368, Note_off_c, 9, 42, 64
15, 51600, Note_on_c, 9, 42, 82
15, 51608, Note_off_c, 9, 42, 64
15, 51840, Note_on_c, 9, 42, 84
15, 51848, Note_off_c, 9, 42, 64
15, 52080, Note_on_c, 9, 42, 82
15, 52088, Note_off_c, 9, 42, 64
15, 52320, Note_on_c, 9, 42, 87
15, 52328, Note_off_c, 9, 42, 64
15, 52560, Note_on_c, 9, 42, 82
15, 52568, Note_off_c, 9, 42, 64
15, 52800, Note_on_c, 9, 42, 84
15, 52808, Note_off_c, 9, 42, 64
15, 53040, Note_on_c, 9, 42, 82
15, 53048, Note_off_c, 9, 42, 64
15, 53280, Note_on_c, 9, 42, 87
15, 53288, Note_off_c, 9, 42, 64
15, 53520, Note_on_c, 9, 42, 82
15, 53528, Note_off_c, 9, 42, 64
15, 53760, Note_on_c, 9, 46, 84
15, 53768, Note_off_c, 9, 46, 64
15, 54720, Note_on_c, 9, 49, 78
15, 54728, Note_off_c, 9, 49, 64
15, 54960, Note_on_c, 9, 42, 82
15, 54968, Note_off_c, 9, 42, 64
15, 55200, Note_on_c, 9, 42, 87
15, 55208, Note_off_c, 9, 42, 64
15, 55440, Note_on_c, 9, 42, 82
15, 55448, Note_off_c, 9, 42, 64
15, 55680, Note_on_c, 9, 42, 84
15, 55688, Note_off_c, 9, 42, 64
15, 55920, Note_on_c, 9, 42, 82
15, 55928, Note_off_c, 9, 42, 64
15, 56160, Note_on_c, 9, 42, 87
15, 56168, Note_off_c, 9, 42, 64
15, 56400, Note_on_c, 9, 42, 82
15, 56408, Note_off_c, 9, 42, 64
15, 56640, Note_on_c, 9, 42, 84
15, 56648, Note_off_c, 9, 42, 64
15, 56880, Note_on_c, 9, 42, 82
15, 56888, Note_off_c, 9, 42, 64
15, 57120, Note_on_c, 9, 42, 87
15, 57128, Note_off_c, 9, 42, 64
15, 57360, Note_on_c, 9, 42, 82
15, 57368, Note_off_c, 9, 42, 64
15, 57600, Note_on_c, 9, 42, 84
15, 57608, Note_off_c, 9, 42, 64
15, 57840, Note_on_c, 9, 42, 82
15, 57848, Note_off_c, 9, 42, 64
15, 58080, Note_on_c, 9, 42, 87
15, 58088, Note_off_c, 9, 42, 64
15, 58320, Note_on_c, 9, 42, 82
15, 58328, Note_off_c, 9, 42, 64
15, 58560, Note_on_c, 9, 42, 84
15, 58568, Note_off_c, 9, 42, 64
15, 58800, Note_on_c, 9, 42, 82
15, 58808, Note_off_c, 9, 42, 64
15, 59040, Note_on_c, 9, 42, 87
15, 59048, Note_off_c, 9, 42, 64
15, 59280, Note_on_c, 9, 42, 82
15, 59288, Note_off_c, 9, 42, 64
15, 59520, Note_on_c, 9, 42, 84
15, 59528, Note_off_c, 9, 42, 64
15, 59760, Note_on_c, 9, 42, 82
15, 59768, Note_off_c, 9, 42, 64
15, 60000, Note_on_c, 9, 42, 87
15, 60008, Note_off_c, 9, 42, 64
15, 60240, Note_on_c, 9, 42, 82
15, 60248, Note_off_c, 9, 42, 64
15, 60480, Note_on_c, 9, 42, 84
15, 60488, Note_off_c, 9, 42, 64
15, 60720, Note_on_c, 9, 42, 82
15, 60728, Note_off_c, 9, 42, 64
15, 60960, Note_on_c, 9, 42, 87
15, 60968, Note_off_c, 9, 42, 64
15, 61200, Note_on_c, 9, 42, 82
15, 61208, Note_off_c, 9, 42, 64
15, 61440, Note_on_c, 9, 42, 84
15, 61448, Note_off_c, 9, 42, 64
15, 61680, Note_on_c, 9, 42, 82
15, 61688, Note_off_c, 9, 42, 64
15, 61920, Note_on_c, 9, 42, 87
15, 61928, Note_off_c, 9, 42, 64
15, 62160, Note_on_c, 9, 42, 82
15, 62168, Note_off_c, 9, 42, 64
15, 62400, Note_on_c, 9, 42, 84
15, 62408, Note_off_c, 9, 42, 64
15, 62640, Note_on_c, 9, 42, 82
15, 62648, Note_off_c, 9, 42, 64
15, 62880, Note_on_c, 9, 42, 87
15, 62888, Note_off_c, 9, 42, 64
15, 63120, Note_on_c, 9, 42, 82
15, 63128, Note_off_c, 9, 42, 64
15, 63360, Note_on_c, 9, 42, 84
15, 63368, Note_off_c, 9, 42, 64
15, 63600, Note_on_c, 9, 42, 82
15, 63608, Note_off_c, 9, 42, 64
15, 63840, Note_on_c, 9, 42, 87
15, 63848, Note_off_c, 9, 42, 64
15, 64080, Note_on_c, 9, 42, 82
15, 64088, Note_off_c, 9, 42, 64
15, 64320, Note_on_c, 9, 42, 84
15, 64328, Note_off_c, 9, 42, 64
15, 64560, Note_on_c, 9, 42, 82
15, 64568, Note_off_c, 9, 42, 64
15, 64800, Note_on_c, 9, 42, 87
15, 64808, Note_off_c, 9, 42, 64
15, 65040, Note_on_c, 9, 42, 82
15, 65048, Note_off_c, 9, 42, 64
15, 65280, Note_on_c, 9, 42, 84
15, 65288, Note_off_c, 9, 42, 64
15, 65520, Note_on_c, 9, 42, 82
15, 65528, Note_off_c, 9, 42, 64
15, 65760, Note_on_c, 9, 42, 87
15, 65768, Note_off_c, 9, 42, 64
15, 66000, Note_on_c, 9, 42, 82
15, 66008, Note_off_c, 9, 42, 64
15, 66240, Note_on_c, 9, 42, 84
15, 66248, Note_off_c, 9, 42, 64
15, 66480, Note_on_c, 9, 42, 82
15, 66488, Note_off_c, 9, 42, 64
15, 66720, Note_on_c, 9, 42, 87
15, 66728, Note_off_c, 9, 42, 64
15, 66960, Note_on_c, 9, 42, 82
15, 66968, Note_off_c, 9, 42, 64
15, 67200, Note_on_c, 9, 42, 84
15, 67208, Note_off_c, 9, 42, 64
15, 67440, Note_on_c, 9, 42, 82
15, 67448, Note_off_c, 9, 42, 64
15, 67680, Note_on_c, 9, 42, 87
15, 67688, Note_off_c, 9, 42, 64
15, 67920, Note_on_c, 9, 42, 82
15, 67928, Note_off_c, 9, 42, 64
15, 68160, Note_on_c, 9, 42, 84
15, 68168, Note_off_c, 9, 42, 64
15, 68400, Note_on_c, 9, 42, 82
15, 68408, Note_off_c, 9, 42, 64
15, 68640, Note_on_c, 9, 42, 87
15, 68648, Note_off_c, 9, 42, 64
15, 68880, Note_on_c, 9, 42, 82
15, 68888, Note_off_c, 9, 42, 64
15, 69120, Note_on_c, 9, 42, 84
15, 69128, Note_off_c, 9, 42, 64
15, 69360, Note_on_c, 9, 42, 82
15, 69368, Note_off_c, 9, 42, 64
15, 69600, Note_on_c, 9, 42, 87
15, 69608, Note_off_c, 9, 42, 64
15, 69840, Note_on_c, 9, 42, 82
15, 69848, Note_off_c, 9, 42, 64
15, 70080, Note_on_c, 9, 42, 84
15, 70088, Note_off_c, 9, 42, 64
15, 70320, Note_on_c, 9, 42, 82
15, 70328, Note_off_c, 9, 42, 64
15, 70560, Note_on_c, 9, 42, 87
15, 70568, Note_off_c, 9, 42, 64
15, 70800, Note_on_c, 9, 42, 82
15, 70808, Note_off_c, 9, 42, 64
15, 71040, Note_on_c, 9, 42, 84
15, 71048, Note_off_c, 9, 42, 64
15, 71280, Note_on_c, 9, 42, 82
15, 71288, Note_off_c, 9, 42, 64
15, 71520, Note_on_c, 9, 42, 87
15, 71528, Note_off_c, 9, 42, 64
15, 71760, Note_on_c, 9, 42, 82
15, 71768, Note_off_c, 9, 42, 64
15, 72000, Note_on_c, 9, 42, 84
15, 72008, Note_off_c, 9, 42, 64
15, 72240, Note_on_c, 9, 42, 82
15, 72248, Note_off_c, 9, 42, 64
15, 72480, Note_on_c, 9, 42, 87
15, 72488, Note_off_c, 9, 42, 64
15, 72720, Note_on_c, 9, 42, 82
15, 72728, Note_off_c, 9, 42, 64
15, 72960, Note_on_c, 9, 42, 84
15, 72968, Note_off_c, 9, 42, 64
15, 73200, Note_on_c, 9, 42, 82
15, 73208, Note_off_c, 9, 42, 64
15, 73440, Note_on_c, 9, 42, 87
15, 73448, Note_off_c, 9, 42, 64
15, 73680, Note_on_c, 9, 42, 82
15, 73688, Note_off_c, 9, 42, 64
15, 73920, Note_on_c, 9, 42, 84
15, 73928, Note_off_c, 9, 42, 64
15, 74160, Note_on_c, 9, 42, 82
15, 74168, Note_off_c, 9, 42, 64
15, 74400, Note_on_c, 9, 42, 87
15, 74408, Note_off_c, 9, 42, 64
15, 74640, Note_on_c, 9, 42, 82
15, 74648, Note_off_c, 9, 42, 64
15, 74880, Note_on_c, 9, 42, 84
15, 74888, Note_off_c, 9, 42, 64
15, 75120, Note_on_c, 9, 42, 82
15, 75128, Note_off_c, 9, 42, 64
15, 75360, Note_on_c, 9, 42, 87
15, 75368, Note_off_c, 9, 42, 64
15, 75600, Note_on_c, 9, 42, 82
15, 75608, Note_off_c, 9, 42, 64
15, 75840, Note_on_c, 9, 42, 84
15, 75848, Note_off_c, 9, 42, 64
15, 76080, Note_on_c, 9, 42, 82
15, 76088, Note_off_c, 9, 42, 64
15, 76320, Note_on_c, 9, 42, 87
15, 76328, Note_off_c, 9, 42, 64
15, 76560, Note_on_c, 9, 42, 82
15, 76568, Note_off_c, 9, 42, 64
15, 76800, Note_on_c, 9, 42, 84
15, 76808, Note_off_c, 9, 42, 64
15, 77040, Note_on_c, 9, 42, 82
15, 77048, Note_off_c, 9, 42, 64
15, 77280, Note_on_c, 9, 42, 87
15, 77288, Note_off_c, 9, 42, 64
15, 77520, Note_on_c, 9, 42, 82
15, 77528, Note_off_c, 9, 42, 64
15, 77760, Note_on_c, 9, 42, 84
15, 77768, Note_off_c, 9, 42, 64
15, 78000, Note_on_c, 9, 42, 82
15, 78008, Note_off_c, 9, 42, 64
15, 78240, Note_on_c, 9, 42, 87
15, 78248, Note_off_c, 9, 42, 64
15, 78480, Note_on_c, 9, 42, 82
15, 78488, Note_off_c, 9, 42, 64
15, 78720, Note_on_c, 9, 42, 84
15, 78728, Note_off_c, 9, 42, 64
15, 78960, Note_on_c, 9, 46, 82
15, 78968, Note_off_c, 9, 46, 64
15, 79680, Note_on_c, 9, 49, 75
15, 79688, Note_off_c, 9, 49, 64
15, 79920, Note_on_c, 9, 42, 82
15, 79928, Note_off_c, 9, 42, 64
15, 80160, Note_on_c, 9, 42, 87
15, 80168, Note_off_c, 9, 42, 64
15, 80400, Note_on_c, 9, 42, 82
15, 80408, Note_off_c, 9, 42, 64
15, 80640, Note_on_c, 9, 42, 84
15, 80648, Note_off_c, 9, 42, 64
15, 80880, Note_on_c, 9, 42, 82
15, 80888, Note_off_c, 9, 42, 64
15, 81120, Note_on_c, 9, 42, 87
15, 81128, Note_off_c, 9, 42, 64
15, 81360, Note_on_c, 9, 42, 82
15, 81368, Note_off_c, 9, 42, 64
15, 81600, Note_on_c, 9, 42, 84
15, 81608, Note_off_c, 9, 42, 64
15, 81840, Note_on_c, 9, 42, 82
15, 81848, Note_off_c, 9, 42, 64
15, 82080, Note_on_c, 9, 42, 87
15, 82088, Note_off_c, 9, 42, 64
15, 82320, Note_on_c, 9, 42, 82
15, 82328, Note_off_c, 9, 42, 64
15, 82560, Note_on_c, 9, 42, 84
15, 82568, Note_off_c, 9, 42, 64
15, 82800, Note_on_c, 9, 42, 82
15, 82808, Note_off_c, 9, 42, 64
15, 83040, Note_on_c, 9, 42, 87
15, 83048, Note_off_c, 9, 42, 64
15, 83280, Note_on_c, 9, 42, 82
15, 83288, Note_off_c, 9, 42, 64
15, 83520, Note_on_c, 9, 42, 84
15, 83528, Note_off_c, 9, 42, 64
15, 83760, Note_on_c, 9, 42, 82
15, 83768, Note_off_c, 9, 42, 64
15, 84000, Note_on_c, 9, 42, 87
15, 84008, Note_off_c, 9, 42, 64
15, 84240, Note_on_c, 9, 42, 82
15, 84248, Note_off_c, 9, 42, 64
15, 84480, Note_on_c, 9, 42, 84
15, 84488, Note_off_c, 9, 42, 64
15, 84720, Note_on_c, 9, 42, 82
15, 84728, Note_off_c, 9, 42, 64
15, 84960, Note_on_c, 9, 42, 87
15, 84968, Note_off_c, 9, 42, 64
15, 85200, Note_on_c, 9, 42, 82
15, 85208, Note_off_c, 9, 42, 64
15, 85440, Note_on_c, 9, 42, 84
15, 85448, Note_off_c, 9, 42, 64
15, 85680, Note_on_c, 9, 42, 82
15, 85688, Note_off_c, 9, 42, 64
15, 85920, Note_on_c, 9, 42, 87
15, 85928, Note_off_c, 9, 42, 64
15, 86160, Note_on_c, 9, 42, 82
15, 86168, Note_off_c, 9, 42, 64
15, 86400, Note_on_c, 9, 42, 84
15, 86408, Note_off_c, 9, 42, 64
15, 86640, Note_on_c, 9, 42, 82
15, 86648, Note_off_c, 9, 42, 64
15, 86880, Note_on_c, 9, 42, 87
15, 86888, Note_off_c, 9, 42, 64
15, 87120, Note_on_c, 9, 42, 82
15, 87128, Note_off_c, 9, 42, 64
15, 87360, Note_on_c, 9, 42, 84
15, 87368, Note_off_c, 9, 42, 64
15, 87600, Note_on_c, 9, 42, 82
15, 87608, Note_off_c, 9, 42, 64
15, 87840, Note_on_c, 9, 42, 87
15, 87848, Note_off_c, 9, 42, 64
15, 88080, Note_on_c, 9, 42, 82
15, 88088, Note_off_c, 9, 42, 64
15, 88320, Note_on_c, 9, 42, 84
15, 88328, Note_off_c, 9, 42, 64
15, 88560, Note_on_c, 9, 42, 82
15, 88568, Note_off_c, 9, 42, 64
15, 88800, Note_on_c, 9, 42, 87
15, 88808, Note_off_c, 9, 42, 64
15, 89040, Note_on_c, 9, 42, 82
15, 89048, Note_off_c, 9, 42, 64
15, 89280, Note_on_c, 9, 42, 84
15, 89288, Note_off_c, 9, 42, 64
15, 89520, Note_on_c, 9, 42, 82
15, 89528, Note_off_c, 9, 42, 64
15, 89760, Note_on_c, 9, 42, 87
15, 89768, Note_off_c, 9, 42, 64
15, 90000, Note_on_c, 9, 42, 82
15, 90008, Note_off_c, 9, 42, 64
15, 90240, Note_on_c, 9, 42, 84
15, 90248, Note_off_c, 9, 42, 64
15, 90480, Note_on_c, 9, 42, 82
15, 90488, Note_off_c, 9, 42, 64
15, 90720, Note_on_c, 9, 42, 87
15, 90728, Note_off_c, 9, 42, 64
15, 90960, Note_on_c, 9, 42, 82
15, 90968, Note_off_c, 9, 42, 64
15, 91200, Note_on_c, 9, 42, 84
15, 91208, Note_off_c, 9, 42, 64
15, 91440, Note_on_c, 9, 42, 82
15, 91448, Note_off_c, 9, 42, 64
15, 91680, Note_on_c, 9, 42, 87
15, 91688, Note_off_c, 9, 42, 64
15, 91920, Note_on_c, 9, 42, 82
15, 91928, Note_off_c, 9, 42, 64
15, 92160, Note_on_c, 9, 42, 84
15, 92168, Note_off_c, 9, 42, 64
15, 92400, Note_on_c, 9, 42, 82
15, 92408, Note_off_c, 9, 42, 64
15, 92640, Note_on_c, 9, 42, 87
15, 92648, Note_off_c, 9, 42, 64
15, 92880, Note_on_c, 9, 42, 82
15, 92888, Note_off_c, 9, 42, 64
15, 93120, Note_on_c, 9, 42, 84
15, 93128, Note_off_c, 9, 42, 64
15, 93360, Note_on_c, 9, 42, 82
15, 93368, Note_off_c, 9, 42, 64
15, 93600, Note_on_c, 9, 42, 87
15, 93608, Note_off_c, 9, 42, 64
15, 93840, Note_on_c, 9, 42, 82
15, 93848, Note_off_c, 9, 42, 64
15, 94080, Note_on_c, 9, 42, 84
15, 94088, Note_off_c, 9, 42, 64
15, 94320, Note_on_c, 9, 42, 82
15, 94328, Note_off_c, 9, 42, 64
15, 94560, Note_on_c, 9, 42, 87
15, 94568, Note_off_c, 9, 42, 64
15, 94800, Note_on_c, 9, 42, 82
15, 94808, Note_off_c, 9, 42, 64
15, 95040, Note_on_c, 9, 42, 84
15, 95048, Note_off_c, 9, 42, 64
15, 95280, Note_on_c, 9, 42, 82
15, 95288, Note_off_c, 9, 42, 64
15, 95520, Note_on_c, 9, 42, 87
15, 95528, Note_off_c, 9, 42, 64
15, 95760, Note_on_c, 9, 42, 82
15, 95768, Note_off_c, 9, 42, 64
15, 96000, Note_on_c, 9, 42, 84
15, 96008, Note_off_c, 9, 42, 64
15, 96240, Note_on_c, 9, 42, 82
15, 96248, Note_off_c, 9, 42, 64
15, 96480, Note_on_c, 9, 42, 87
15, 96488, Note_off_c, 9, 42, 64
15, 96720, Note_on_c, 9, 42, 82
15, 96728, Note_off_c, 9, 42, 64
15, 96960, Note_on_c, 9, 42, 84
15, 96968, Note_off_c, 9, 42, 64
15, 97200, Note_on_c, 9, 42, 82
15, 97208, Note_off_c, 9, 42, 64
15, 97440, Note_on_c, 9, 42, 87
15, 97448, Note_off_c, 9, 42, 64
15, 97680, Note_on_c, 9, 42, 82
15, 97688, Note_off_c, 9, 42, 64
15, 97920, Note_on_c, 9, 42, 84
15, 97928, Note_off_c, 9, 42, 64
15, 98160, Note_on_c, 9, 46, 82
15, 98168, Note_off_c, 9, 46, 64
15, 98880, Note_on_c, 9, 57, 77
15, 98888, Note_off_c, 9, 57, 64
15, 99120, Note_on_c, 9, 42, 82
15, 99128, Note_off_c, 9, 42, 64
15, 99360, Note_on_c, 9, 42, 87
15, 99368, Note_off_c, 9, 42, 64
15, 99600, Note_on_c, 9, 42, 82
15, 99608, Note_off_c, 9, 42, 64
15, 99840, Note_on_c, 9, 42, 84
15, 99848, Note_off_c, 9, 42, 64
15, 100080, Note_on_c, 9, 42, 82
15, 100088, Note_off_c, 9, 42, 64
15, 100320, Note_on_c, 9, 42, 87
15, 100328, Note_off_c, 9, 42, 64
15, 100560, Note_on_c, 9, 42, 82
15, 100568, Note_off_c, 9, 42, 64
15, 100800, Note_on_c, 9, 42, 84
15, 100808, Note_off_c, 9, 42, 64
15, 101040, Note_on_c, 9, 42, 82
15, 101048, Note_off_c, 9, 42, 64
15, 101280, Note_on_c, 9, 42, 87
15, 101288, Note_off_c, 9, 42, 64
15, 101520, Note_on_c, 9, 42, 82
15, 101528, Note_off_c, 9, 42, 64
15, 101760, Note_on_c, 9, 42, 84
15, 101768, Note_off_c, 9, 42, 64
15, 102000, Note_on_c, 9, 42, 82
15, 102008, Note_off_c, 9, 42, 64
15, 102240, Note_on_c, 9, 42, 87
15, 102248, Note_off_c, 9, 42, 64
15, 102480, Note_on_c, 9, 42, 82
15, 102488, Note_off_c, 9, 42, 64
15, 102720, Note_on_c, 9, 42, 84
15, 102728, Note_off_c, 9, 42, 64
15, 102960, Note_on_c, 9, 42, 82
15, 102968, Note_off_c, 9, 42, 64
15, 103200, Note_on_c, 9, 42, 87
15, 103208, Note_off_c, 9, 42, 64
15, 103440, Note_on_c, 9, 42, 82
15, 103448, Note_off_c, 9, 42, 64
15, 103680, Note_on_c, 9, 42, 84
15, 103688, Note_off_c, 9, 42, 64
15, 103920, Note_on_c, 9, 42, 82
15, 103928, Note_off_c, 9, 42, 64
15, 104160, Note_on_c, 9, 42, 87
15, 104168, Note_off_c, 9, 42, 64
15, 104400, Note_on_c, 9, 42, 82
15, 104408, Note_off_c, 9, 42, 64
15, 104640, Note_on_c, 9, 42, 84
15, 104648, Note_off_c, 9, 42, 64
15, 104880, Note_on_c, 9, 42, 82
15, 104888, Note_off_c, 9, 42, 64
15, 105120, Note_on_c, 9, 42, 87
15, 105128, Note_off_c, 9, 42, 64
15, 105360, Note_on_c, 9, 42, 82
15, 105368, Note_off_c, 9, 42, 64
15, 105600, Note_on_c, 9, 42, 84
15, 105608, Note_off_c, 9, 42, 64
15, 105840, Note_on_c, 9, 42, 82
15, 105848, Note_off_c, 9, 42, 64
15, 106080, Note_on_c, 9, 42, 87
15, 106088, Note_off_c, 9, 42, 64
15, 106320, Note_on_c, 9, 42, 82
15, 106328, Note_off_c, 9, 42, 64
15, 106560, Note_on_c, 9, 42, 84
15, 106568, Note_off_c, 9, 42, 64
15, 106800, Note_on_c, 9, 42, 82
15, 106808, Note_off_c, 9, 42, 64
15, 107040, Note_on_c, 9, 42, 87
15, 107048, Note_off_c, 9, 42, 64
15, 107280, Note_on_c, 9, 42, 82
15, 107288, Note_off_c, 9, 42, 64
15, 107520, Note_on_c, 9, 42, 84
15, 107528, Note_off_c, 9, 42, 64
15, 107760, Note_on_c, 9, 42, 82
15, 107768, Note_off_c, 9, 42, 64
15, 108000, Note_on_c, 9, 42, 87
15, 108008, Note_off_c, 9, 42, 64
15, 108240, Note_on_c, 9, 42, 82
15, 108248, Note_off_c, 9, 42, 64
15, 108480, Note_on_c, 9, 42, 84
15, 108488, Note_off_c, 9, 42, 64
15, 108720, Note_on_c, 9, 42, 82
15, 108728, Note_off_c, 9, 42, 64
15, 108960, Note_on_c, 9, 42, 87
15, 108968, Note_off_c, 9, 42, 64
15, 109200, Note_on_c, 9, 42, 82
15, 109208, Note_off_c, 9, 42, 64
15, 109440, Note_on_c, 9, 42, 84
15, 109448, Note_off_c, 9, 42, 64
15, 109680, Note_on_c, 9, 42, 82
15, 109688, Note_off_c, 9, 42, 64
15, 109920, Note_on_c, 9, 42, 87
15, 109928, Note_off_c, 9, 42, 64
15, 110160, Note_on_c, 9, 42, 82
15, 110168, Note_off_c, 9, 42, 64
15, 110400, Note_on_c, 9, 42, 84
15, 110408, Note_off_c, 9, 42, 64
15, 110640, Note_on_c, 9, 42, 82
15, 110648, Note_off_c, 9, 42, 64
15, 110880, Note_on_c, 9, 42, 87
15, 110888, Note_off_c, 9, 42, 64
15, 111120, Note_on_c, 9, 42, 82
15, 111128, Note_off_c, 9, 42, 64
15, 111360, Note_on_c, 9, 42, 84
15, 111368, Note_off_c, 9, 42, 64
15, 111600, Note_on_c, 9, 42, 82
15, 111608, Note_off_c, 9, 42, 64
15, 111840, Note_on_c, 9, 42, 87
15, 111848, Note_off_c, 9, 42, 64
15, 112080, Note_on_c, 9, 42, 82
15, 112088, Note_off_c, 9, 42, 64
15, 112320, Note_on_c, 9, 49, 75
15, 112328, Note_off_c, 9, 49, 64
15, 112328, End_track
16, 0, Start_track
16, 0, Title_t, "PC"
16, 0, MIDI_port, 0
16, 0, Channel_prefix, 9
16, 0, Control_c, 9, 7, 110
16, 0, Control_c, 9, 10, 64
16, 0, Program_c, 9, 0
16, 12960, Note_on_c, 9, 84, 60
16, 12968, Note_off_c, 9, 84, 64
16, 12968, End_track
17, 0, Start_track
17, 0, Title_t, "String"
17, 0, MIDI_port, 0
17, 0, Channel_prefix, 11
17, 0, Control_c, 11, 7, 90
17, 0, Control_c, 11, 10, 64
17, 0, Program_c, 11, 50
17, 528, Control_c, 11, 11, 110
17, 540, Control_c, 11, 91, 60
17, 548, Control_c, 11, 93, 0
17, 3840, Note_on_c, 11, 58, 62
17, 3840, Note_on_c, 11, 61, 62
17, 3840, Note_on_c, 11, 65, 62
17, 7440, Note_off_c, 11, 65, 64
17, 7680, Note_on_c, 11, 66, 62
17, 9248, Note_off_c, 11, 61, 64
17, 9248, Note_off_c, 11, 58, 64
17, 9480, Note_off_c, 11, 66, 64
17, 9600, Note_on_c, 11, 58, 62
17, 9600, Note_on_c, 11, 61, 62
17, 9600, Note_on_c, 11, 66, 62
17, 10488, Note_off_c, 11, 66, 64
17, 10488, Note_off_c, 11, 61, 64
17, 10488, Note_off_c, 11, 58, 64
17, 10560, Note_on_c, 11, 57, 62
17, 10560, Note_on_c, 11, 60, 62
17, 10560, Note_on_c, 11, 65, 62
17, 11460, Note_off_c, 11, 65, 64
17, 11460, Note_off_c, 11, 60, 64
17, 11460, Note_off_c, 11, 57, 64
17, 12480, Note_on_c, 11, 58, 60
17, 12480, Note_on_c, 11, 61, 60
17, 12480, Note_on_c, 11, 65, 60
17, 19688, Note_off_c, 11, 65, 64
17, 19688, Note_off_c, 11, 58, 64
17, 19720, Note_off_c, 11, 61, 64
17, 20160, Note_on_c, 11, 57, 60
17, 20160, Note_on_c, 11, 60, 60
17, 20160, Note_on_c, 11, 65, 60
17, 23760, Note_off_c, 11, 65, 64
17, 23760, Note_off_c, 11, 60, 64
17, 23788, Note_off_c, 11, 57, 64
17, 24000, Note_on_c, 11, 58, 60
17, 24000, Note_on_c, 11, 61, 60
17, 24000, Note_on_c, 11, 65, 60
17, 24888, Note_off_c, 11, 65, 64
17, 24888, Note_off_c, 11, 58, 64
17, 24960, Note_on_c, 11, 56, 60
17, 24960, Note_on_c, 11, 68, 60
17, 25848, Note_off_c, 11, 68, 64
17, 25848, Note_off_c, 11, 56, 64
17, 25920, Note_on_c, 11, 58, 60
17, 25920, Note_on_c, 11, 66, 60
17, 27628, Note_off_c, 11, 61, 64
17, 27740, Note_off_c, 11, 58, 64
17, 27740, Note_off_c, 11, 66, 64
17, 27840, Note_on_c, 11, 57, 60
17, 27840, Note_on_c, 11, 60, 60
17, 27840, Note_on_c, 11, 65, 60
17, 31468, Note_off_c, 11, 60, 64
17, 31468, Note_off_c, 11, 57, 64
17, 31680, Note_on_c, 11, 58, 60
17, 31680, Note_on_c, 11, 61, 60
17, 38660, Note_off_c, 11, 65, 64
17, 38888, Note_off_c, 11, 58, 64
17, 38920, Note_off_c, 11, 61, 64
17, 39360, Note_on_c, 11, 57, 60
17, 39360, Note_on_c, 11, 60, 60
17, 39360, Note_on_c, 11, 65, 60
17, 42960, Note_off_c, 11, 65, 64
17, 42960, Note_off_c, 11, 60, 64
17, 42988, Note_off_c, 11, 57, 64
17, 43200, Note_on_c, 11, 58, 60
17, 43200, Note_on_c, 11, 61, 60
17, 43200, Note_on_c, 11, 65, 60
17, 44088, Note_off_c, 11, 65, 64
17, 44088, Note_off_c, 11, 58, 64
17, 44160, Note_on_c, 11, 56, 60
17, 44160, Note_on_c, 11, 68, 60
17, 45048, Note_off_c, 11, 68, 64
17, 45048, Note_off_c, 11, 56, 64
17, 45120, Note_on_c, 11, 58, 60
17, 45120, Note_on_c, 11, 66, 60
17, 46828, Note_off_c, 11, 61, 64
17, 46940, Note_off_c, 11, 58, 64
17, 46940, Note_off_c, 11, 66, 64
17, 47040, Note_on_c, 11, 57, 60
17, 47040, Note_on_c, 11, 60, 60
17, 47040, Note_on_c, 11, 65, 60
17, 48860, Note_off_c, 11, 57, 64
17, 48960, Note_on_c, 11, 69, 60
17, 50668, Note_off_c, 11, 60, 64
17, 50780, Note_off_c, 11, 69, 64
17, 50880, Note_on_c, 11, 58, 60
17, 50880, Note_on_c, 11, 62, 60
17, 54280, Note_off_c, 11, 65, 64
17, 54508, Note_off_c, 11, 62, 64
17, 54720, Note_on_c, 11, 63, 60
17, 54720, Note_on_c, 11, 66, 60
17, 56308, Note_off_c, 11, 58, 64
17, 56508, Note_off_c, 11, 63, 64
17, 56528, Note_off_c, 11, 66, 64
17, 56640, Note_on_c, 11, 56, 60
17, 56640, Note_on_c, 11, 60, 60
17, 56640, Note_on_c, 11, 63, 60
17, 58340, Note_off_c, 11, 63, 64
17, 58448, Note_off_c, 11, 60, 64
17, 58560, Note_on_c, 11, 61, 60
17, 58560, Note_on_c, 11, 65, 60
17, 60260, Note_off_c, 11, 56, 64
17, 60268, Note_off_c, 11, 61, 64
17, 60368, Note_off_c, 11, 65, 64
17, 60480, Note_on_c, 11, 58, 60
17, 60480, Note_on_c, 11, 61, 60
17, 60480, Note_on_c, 11, 66, 60
17, 62288, Note_off_c, 11, 66, 64
17, 62288, Note_off_c, 11, 61, 64
17, 62400, Note_on_c, 11, 54, 60
17, 62400, Note_on_c, 11, 63, 60
17, 64080, Note_off_c, 11, 63, 64
17, 64208, Note_off_c, 11, 54, 64
17, 64320, Note_on_c, 11, 61, 60
17, 64320, Note_on_c, 11, 65, 60
17, 65420, Note_off_c, 11, 58, 64
17, 65648, Note_off_c, 11, 61, 64
17, 65648, Note_off_c, 11, 65, 64
17, 65760, Note_on_c, 11, 58, 60
17, 65760, Note_on_c, 11, 62, 60
17, 65760, Note_on_c, 11, 65, 60
17, 66180, Note_off_c, 11, 65, 64
17, 66180, Note_off_c, 11, 62, 64
17, 66180, Note_off_c, 11, 58, 64
17, 66240, Note_on_c, 11, 58, 60
17, 66240, Note_on_c, 11, 63, 60
17, 66240, Note_on_c, 11, 66, 60
17, 68028, Note_off_c, 11, 63, 64
17, 68048, Note_off_c, 11, 66, 64
17, 68060, Note_off_c, 11, 58, 64
17, 68160, Note_on_c, 11, 56, 60
17, 68160, Note_on_c, 11, 60, 60
17, 68160, Note_on_c, 11, 63, 60
17, 69860, Note_off_c, 11, 63, 64
17, 69968, Note_off_c, 11, 60, 64
17, 70080, Note_on_c, 11, 61, 60
17, 70080, Note_on_c, 11, 65, 60
17, 71780, Note_off_c, 11, 56, 64
17, 71788, Note_off_c, 11, 61, 64
17, 71888, Note_off_c, 11, 65, 64
17, 72000, Note_on_c, 11, 58, 60
17, 72000, Note_on_c, 11, 61, 60
17, 72000, Note_on_c, 11, 66, 60
17, 73808, Note_off_c, 11, 66, 64
17, 73808, Note_off_c, 11, 61, 64
17, 73808, Note_off_c, 11, 58, 64
17, 73920, Note_on_c, 11, 55, 60
17, 73920, Note_on_c, 11, 60, 60
17, 73920, Note_on_c, 11, 64, 60
17, 75620, Note_off_c, 11, 60, 64
17, 75660, Note_off_c, 11, 55, 64
17, 75728, Note_off_c, 11, 64, 64
17, 75840, Note_on_c, 11, 57, 60
17, 75840, Note_on_c, 11, 60, 60
17, 75840, Note_on_c, 11, 65, 60
17, 79468, Note_off_c, 11, 60, 64
17, 79468, Note_off_c, 11, 57, 64
17, 79680, Note_on_c, 11, 58, 60
17, 79680, Note_on_c, 11, 61, 60
17, 83048, Note_off_c, 11, 65, 64
17, 83280, Note_off_c, 11, 58, 64
17, 83308, Note_off_c, 11, 61, 64
17, 83520, Note_on_c, 11, 57, 60
17, 83520, Note_on_c, 11, 60, 60
17, 83520, Note_on_c, 11, 65, 60
17, 87120, Note_off_c, 11, 65, 64
17, 87120, Note_off_c, 11, 60, 64
17, 87148, Note_off_c, 11, 57, 64
17, 87360, Note_on_c, 11, 58, 60
17, 87360, Note_on_c, 11, 61, 60
17, 87360, Note_on_c, 11, 65, 60
17, 88248, Note_off_c, 11, 65, 64
17, 88248, Note_off_c, 11, 58, 64
17, 88320, Note_on_c, 11, 56, 60
17, 88320, Note_on_c, 11, 68, 60
17, 89208, Note_off_c, 11, 68, 64
17, 89208, Note_off_c, 11, 56, 64
17, 89280, Note_on_c, 11, 58, 60
17, 89280, Note_on_c, 11, 66, 60
17, 90988, Note_off_c, 11, 61, 64
17, 91100, Note_off_c, 11, 58, 64
17, 91100, Note_off_c, 11, 66, 64
17, 91200, Note_on_c, 11, 57, 60
17, 91200, Note_on_c, 11, 60, 60
17, 91200, Note_on_c, 11, 65, 60
17, 94828, Note_off_c, 11, 60, 64
17, 94828, Note_off_c, 11, 57, 64
17, 95040, Note_on_c, 11, 58, 60
17, 95040, Note_on_c, 11, 61, 60
17, 96828, Note_off_c, 11, 61, 64
17, 96960, Note_on_c, 11, 61, 60
17, 98400, Note_off_c, 11, 65, 64
17, 98628, Note_off_c, 11, 58, 64
17, 98748, Note_off_c, 11, 61, 64
17, 98860, Pitch_bend_c, 11, 8192
17, 98880, Note_on_c, 11, 59, 64
17, 98880, Note_on_c, 11, 62, 64
17, 98880, Note_on_c, 11, 66, 64
17, 102480, Note_off_c, 11, 66, 64
17, 102480, Note_off_c, 11, 59, 64
17, 102508, Note_off_c, 11, 62, 64
17, 102720, Note_on_c, 11, 58, 60
17, 102720, Note_on_c, 11, 61, 60
17, 102720, Note_on_c, 11, 66, 60
17, 106320, Note_off_c, 11, 66, 64
17, 106320, Note_off_c, 11, 61, 64
17, 106348, Note_off_c, 11, 58, 64
17, 106560, Note_on_c, 11, 59, 60
17, 106560, Note_on_c, 11, 62, 60
17, 106560, Note_on_c, 11, 66, 60
17, 107448, Note_off_c, 11, 66, 64
17, 107448, Note_off_c, 11, 59, 64
17, 107520, Note_on_c, 11, 57, 60
17, 107520, Note_on_c, 11, 69, 60
17, 108408, Note_off_c, 11, 69, 64
17, 108408, Note_off_c, 11, 57, 64
17, 108480, Note_on_c, 11, 59, 60
17, 108480, Note_on_c, 11, 67, 60
17, 110188, Note_off_c, 11, 62, 64
17, 110300, Note_off_c, 11, 59, 64
17, 110300, Note_off_c, 11, 67, 64
17, 110400, Note_on_c, 11, 58, 60
17, 110400, Note_on_c, 11, 61, 60
17, 110400, Note_on_c, 11, 66, 60
17, 112220, Note_off_c, 11, 66, 64
17, 112220, Note_off_c, 11, 61, 64
17, 112220, Note_off_c, 11, 58, 64
17, 112220, End_track
0, 0, End_of_file
