0, 0, Header, 1, 18, 120
1, 0, Start_track
1, 0, Title_t, "Love Is All We Need  (Sequenced by F.DiGiovannangelo)"
1, 0, SMPTE_offset, 96, 0, 3, 0, 0
1, 0, Time_signature, 4, 2, 24, 8
1, 0, Key_signature, 0, "major"
1, 0, Tempo, 750000
1, 0, End_track
2, 0, Start_track
2, 0, MIDI_port, 0
2, 0, Title_t, "Bass   "
2, 0, Program_c, 1, 32
2, 0, Control_c, 1, 7, 65
2, 0, Control_c, 1, 10, 60
2, 0, Note_on_c, 1, 36, 127
2, 220, Note_on_c, 1, 36, 0
2, 240, Note_on_c, 1, 33, 127
2, 460, Note_on_c, 1, 33, 0
2, 480, Note_on_c, 1, 38, 127
2, 600, Note_on_c, 1, 38, 0
2, 720, Note_on_c, 1, 38, 110
2, 895, Note_on_c, 1, 38, 0
2, 900, Note_on_c, 1, 38, 110
2, 960, Note_on_c, 1, 38, 0
2, 960, Note_on_c, 1, 36, 127
2, 1080, Note_on_c, 1, 36, 0
2, 1200, Note_on_c, 1, 36, 127
2, 1320, Note_on_c, 1, 36, 0
2, 1440, Note_on_c, 1, 36, 120
2, 1680, Note_on_c, 1, 36, 0
2, 1680, Note_on_c, 1, 33, 120
2, 1920, Note_on_c, 1, 33, 0
2, 1920, Note_on_c, 1, 38, 120
2, 2081, Note_on_c, 1, 38, 0
2, 2100, Note_on_c, 1, 38, 120
2, 2157, Note_on_c, 1, 38, 0
2, 2160, Note_on_c, 1, 31, 120
2, 2321, Note_on_c, 1, 31, 0
2, 2340, Note_on_c, 1, 31, 120
2, 2397, Note_on_c, 1, 31, 0
2, 2400, Note_on_c, 1, 36, 120
2, 2561, Note_on_c, 1, 36, 0
2, 2580, Note_on_c, 1, 36, 120
2, 2637, Note_on_c, 1, 36, 0
2, 2640, Note_on_c, 1, 28, 120
2, 2801, Note_on_c, 1, 28, 0
2, 2820, Note_on_c, 1, 28, 120
2, 2877, Note_on_c, 1, 28, 0
2, 2880, Note_on_c, 1, 38, 120
2, 3120, Note_on_c, 1, 38, 0
2, 3120, Note_on_c, 1, 31, 120
2, 3281, Note_on_c, 1, 31, 0
2, 3300, Note_on_c, 1, 31, 120
2, 3357, Note_on_c, 1, 31, 0
2, 3360, Note_on_c, 1, 36, 120
2, 3521, Note_on_c, 1, 36, 0
2, 3540, Note_on_c, 1, 36, 120
2, 3597, Note_on_c, 1, 36, 0
2, 3600, Note_on_c, 1, 33, 120
2, 3840, Note_on_c, 1, 33, 0
2, 3840, Note_on_c, 1, 38, 120
2, 4001, Note_on_c, 1, 38, 0
2, 4020, Note_on_c, 1, 38, 120
2, 4077, Note_on_c, 1, 38, 0
2, 4080, Note_on_c, 1, 31, 120
2, 4320, Note_on_c, 1, 31, 0
2, 4320, Note_on_c, 1, 36, 120
2, 4560, Note_on_c, 1, 36, 0
2, 4560, Note_on_c, 1, 28, 120
2, 4800, Note_on_c, 1, 28, 0
2, 4800, Note_on_c, 1, 38, 120
2, 4961, Note_on_c, 1, 38, 0
2, 4980, Note_on_c, 1, 38, 120
2, 5037, Note_on_c, 1, 38, 0
2, 5040, Note_on_c, 1, 31, 120
2, 5280, Note_on_c, 1, 31, 0
2, 5280, Note_on_c, 1, 31, 120
2, 5441, Note_on_c, 1, 31, 0
2, 5460, Note_on_c, 1, 31, 120
2, 5517, Note_on_c, 1, 31, 0
2, 5520, Note_on_c, 1, 36, 120
2, 5760, Note_on_c, 1, 36, 0
2, 5761, Note_on_c, 1, 41, 120
2, 5978, Note_on_c, 1, 41, 0
2, 6003, Note_on_c, 1, 36, 120
2, 6209, Note_on_c, 1, 36, 0
2, 6240, Note_on_c, 1, 31, 120
2, 6401, Note_on_c, 1, 31, 0
2, 6420, Note_on_c, 1, 31, 120
2, 6477, Note_on_c, 1, 31, 0
2, 6480, Note_on_c, 1, 36, 120
2, 6720, Note_on_c, 1, 36, 0
2, 6721, Note_on_c, 1, 41, 120
2, 6931, Note_on_c, 1, 41, 0
2, 6965, Note_on_c, 1, 36, 120
2, 7165, Note_on_c, 1, 36, 0
2, 7200, Note_on_c, 1, 33, 120
2, 7440, Note_on_c, 1, 33, 0
2, 7440, Note_on_c, 1, 38, 120
2, 7680, Note_on_c, 1, 38, 0
2, 7681, Note_on_c, 1, 43, 120
2, 7898, Note_on_c, 1, 43, 0
2, 7923, Note_on_c, 1, 38, 120
2, 8129, Note_on_c, 1, 38, 0
2, 8160, Note_on_c, 1, 33, 120
2, 8321, Note_on_c, 1, 33, 0
2, 8340, Note_on_c, 1, 33, 120
2, 8397, Note_on_c, 1, 33, 0
2, 8400, Note_on_c, 1, 38, 120
2, 8561, Note_on_c, 1, 38, 0
2, 8580, Note_on_c, 1, 38, 120
2, 8637, Note_on_c, 1, 38, 0
2, 8640, Note_on_c, 1, 38, 120
2, 8880, Note_on_c, 1, 38, 0
2, 8880, Note_on_c, 1, 31, 120
2, 9120, Note_on_c, 1, 31, 0
2, 9120, Note_on_c, 1, 36, 120
2, 9360, Note_on_c, 1, 36, 0
2, 9360, Note_on_c, 1, 33, 120
2, 9600, Note_on_c, 1, 33, 0
2, 9600, Note_on_c, 1, 38, 120
2, 9761, Note_on_c, 1, 38, 0
2, 9780, Note_on_c, 1, 38, 120
2, 9837, Note_on_c, 1, 38, 0
2, 9840, Note_on_c, 1, 31, 120
2, 10001, Note_on_c, 1, 31, 0
2, 10020, Note_on_c, 1, 31, 120
2, 10077, Note_on_c, 1, 31, 0
2, 10080, Note_on_c, 1, 36, 120
2, 10320, Note_on_c, 1, 36, 0
2, 10320, Note_on_c, 1, 28, 120
2, 10481, Note_on_c, 1, 28, 0
2, 10500, Note_on_c, 1, 28, 120
2, 10557, Note_on_c, 1, 28, 0
2, 10560, Note_on_c, 1, 38, 120
2, 10800, Note_on_c, 1, 38, 0
2, 10800, Note_on_c, 1, 31, 120
2, 11040, Note_on_c, 1, 31, 0
2, 11040, Note_on_c, 1, 36, 120
2, 11211, Note_on_c, 1, 36, 0
2, 11220, Note_on_c, 1, 36, 120
2, 11280, Note_on_c, 1, 36, 0
2, 11280, Note_on_c, 1, 33, 120
2, 11451, Note_on_c, 1, 33, 0
2, 11460, Note_on_c, 1, 33, 120
2, 11520, Note_on_c, 1, 33, 0
2, 11520, Note_on_c, 1, 38, 120
2, 11695, Note_on_c, 1, 38, 0
2, 11700, Note_on_c, 1, 38, 120
2, 11760, Note_on_c, 1, 38, 0
2, 11760, Note_on_c, 1, 31, 120
2, 11935, Note_on_c, 1, 31, 0
2, 11940, Note_on_c, 1, 31, 120
2, 12000, Note_on_c, 1, 31, 0
2, 12000, Note_on_c, 1, 36, 120
2, 12171, Note_on_c, 1, 36, 0
2, 12180, Note_on_c, 1, 36, 120
2, 12240, Note_on_c, 1, 36, 0
2, 12240, Note_on_c, 1, 28, 120
2, 12411, Note_on_c, 1, 28, 0
2, 12420, Note_on_c, 1, 28, 120
2, 12480, Note_on_c, 1, 28, 0
2, 12480, Note_on_c, 1, 38, 120
2, 12655, Note_on_c, 1, 38, 0
2, 12660, Note_on_c, 1, 38, 120
2, 12720, Note_on_c, 1, 38, 0
2, 12720, Note_on_c, 1, 31, 120
2, 12895, Note_on_c, 1, 31, 0
2, 12900, Note_on_c, 1, 31, 120
2, 12960, Note_on_c, 1, 31, 0
2, 12960, Note_on_c, 1, 36, 120
2, 13135, Note_on_c, 1, 36, 0
2, 13140, Note_on_c, 1, 36, 120
2, 13200, Note_on_c, 1, 36, 0
2, 13200, Note_on_c, 1, 33, 120
2, 13371, Note_on_c, 1, 33, 0
2, 13380, Note_on_c, 1, 33, 120
2, 13440, Note_on_c, 1, 33, 0
2, 13440, Note_on_c, 1, 38, 120
2, 13615, Note_on_c, 1, 38, 0
2, 13620, Note_on_c, 1, 38, 120
2, 13680, Note_on_c, 1, 38, 0
2, 13680, Note_on_c, 1, 31, 120
2, 13855, Note_on_c, 1, 31, 0
2, 13860, Note_on_c, 1, 31, 120
2, 13920, Note_on_c, 1, 31, 0
2, 13920, Note_on_c, 1, 36, 120
2, 14091, Note_on_c, 1, 36, 0
2, 14100, Note_on_c, 1, 36, 120
2, 14160, Note_on_c, 1, 36, 0
2, 14160, Note_on_c, 1, 28, 120
2, 14331, Note_on_c, 1, 28, 0
2, 14340, Note_on_c, 1, 28, 120
2, 14400, Note_on_c, 1, 28, 0
2, 14400, Note_on_c, 1, 38, 120
2, 14575, Note_on_c, 1, 38, 0
2, 14580, Note_on_c, 1, 38, 120
2, 14640, Note_on_c, 1, 38, 0
2, 14640, Note_on_c, 1, 31, 120
2, 14815, Note_on_c, 1, 31, 0
2, 14820, Note_on_c, 1, 31, 120
2, 14880, Note_on_c, 1, 31, 0
2, 14880, Note_on_c, 1, 31, 120
2, 15055, Note_on_c, 1, 31, 0
2, 15060, Note_on_c, 1, 31, 120
2, 15120, Note_on_c, 1, 31, 0
2, 15120, Note_on_c, 1, 36, 120
2, 15295, Note_on_c, 1, 36, 0
2, 15300, Note_on_c, 1, 36, 120
2, 15360, Note_on_c, 1, 36, 0
2, 15360, Note_on_c, 1, 29, 120
2, 15525, Note_on_c, 1, 29, 0
2, 15540, Note_on_c, 1, 29, 120
2, 15588, Note_on_c, 1, 29, 0
2, 15600, Note_on_c, 1, 29, 120
2, 15771, Note_on_c, 1, 29, 0
2, 15780, Note_on_c, 1, 29, 120
2, 15830, Note_on_c, 1, 29, 0
2, 15840, Note_on_c, 1, 31, 120
2, 16015, Note_on_c, 1, 31, 0
2, 16020, Note_on_c, 1, 31, 120
2, 16080, Note_on_c, 1, 31, 0
2, 16080, Note_on_c, 1, 36, 120
2, 16255, Note_on_c, 1, 36, 0
2, 16260, Note_on_c, 1, 36, 120
2, 16320, Note_on_c, 1, 36, 0
2, 16320, Note_on_c, 1, 29, 120
2, 16485, Note_on_c, 1, 29, 0
2, 16500, Note_on_c, 1, 29, 120
2, 16548, Note_on_c, 1, 29, 0
2, 16560, Note_on_c, 1, 29, 120
2, 16731, Note_on_c, 1, 29, 0
2, 16740, Note_on_c, 1, 29, 120
2, 16790, Note_on_c, 1, 29, 0
2, 16800, Note_on_c, 1, 33, 120
2, 16975, Note_on_c, 1, 33, 0
2, 16980, Note_on_c, 1, 33, 120
2, 17040, Note_on_c, 1, 33, 0
2, 17040, Note_on_c, 1, 38, 120
2, 17215, Note_on_c, 1, 38, 0
2, 17220, Note_on_c, 1, 38, 120
2, 17280, Note_on_c, 1, 38, 0
2, 17280, Note_on_c, 1, 31, 120
2, 17445, Note_on_c, 1, 31, 0
2, 17460, Note_on_c, 1, 31, 120
2, 17508, Note_on_c, 1, 31, 0
2, 17520, Note_on_c, 1, 31, 120
2, 17691, Note_on_c, 1, 31, 0
2, 17700, Note_on_c, 1, 31, 120
2, 17750, Note_on_c, 1, 31, 0
2, 17760, Note_on_c, 1, 33, 120
2, 17931, Note_on_c, 1, 33, 0
2, 17940, Note_on_c, 1, 33, 120
2, 18000, Note_on_c, 1, 33, 0
2, 18000, Note_on_c, 1, 38, 120
2, 18175, Note_on_c, 1, 38, 0
2, 18180, Note_on_c, 1, 38, 120
2, 18240, Note_on_c, 1, 38, 0
2, 18240, Note_on_c, 1, 38, 120
2, 18411, Note_on_c, 1, 38, 0
2, 18420, Note_on_c, 1, 38, 120
2, 18480, Note_on_c, 1, 38, 0
2, 18480, Note_on_c, 1, 31, 120
2, 18655, Note_on_c, 1, 31, 0
2, 18660, Note_on_c, 1, 31, 120
2, 18720, Note_on_c, 1, 31, 0
2, 18720, Note_on_c, 1, 36, 120
2, 18891, Note_on_c, 1, 36, 0
2, 18900, Note_on_c, 1, 36, 120
2, 18960, Note_on_c, 1, 36, 0
2, 18960, Note_on_c, 1, 33, 120
2, 19135, Note_on_c, 1, 33, 0
2, 19140, Note_on_c, 1, 33, 120
2, 19200, Note_on_c, 1, 33, 0
2, 19200, Note_on_c, 1, 38, 120
2, 19371, Note_on_c, 1, 38, 0
2, 19380, Note_on_c, 1, 38, 120
2, 19440, Note_on_c, 1, 38, 0
2, 19440, Note_on_c, 1, 31, 120
2, 19615, Note_on_c, 1, 31, 0
2, 19620, Note_on_c, 1, 31, 120
2, 19680, Note_on_c, 1, 31, 0
2, 19680, Note_on_c, 1, 36, 120
2, 19851, Note_on_c, 1, 36, 0
2, 19860, Note_on_c, 1, 36, 120
2, 19920, Note_on_c, 1, 36, 0
2, 19920, Note_on_c, 1, 28, 120
2, 20095, Note_on_c, 1, 28, 0
2, 20100, Note_on_c, 1, 28, 120
2, 20160, Note_on_c, 1, 28, 0
2, 20160, Note_on_c, 1, 38, 120
2, 20331, Note_on_c, 1, 38, 0
2, 20340, Note_on_c, 1, 38, 120
2, 20400, Note_on_c, 1, 38, 0
2, 20400, Note_on_c, 1, 31, 120
2, 20571, Note_on_c, 1, 31, 0
2, 20580, Note_on_c, 1, 31, 120
2, 20640, Note_on_c, 1, 31, 0
2, 20640, Note_on_c, 1, 36, 120
2, 20815, Note_on_c, 1, 36, 0
2, 20820, Note_on_c, 1, 36, 120
2, 20880, Note_on_c, 1, 36, 0
2, 20880, Note_on_c, 1, 33, 120
2, 21051, Note_on_c, 1, 33, 0
2, 21060, Note_on_c, 1, 33, 120
2, 21120, Note_on_c, 1, 33, 0
2, 21120, Note_on_c, 1, 38, 120
2, 21291, Note_on_c, 1, 38, 0
2, 21300, Note_on_c, 1, 38, 120
2, 21360, Note_on_c, 1, 38, 0
2, 21360, Note_on_c, 1, 31, 120
2, 21531, Note_on_c, 1, 31, 0
2, 21540, Note_on_c, 1, 31, 120
2, 21600, Note_on_c, 1, 31, 0
2, 21600, Note_on_c, 1, 36, 120
2, 21771, Note_on_c, 1, 36, 0
2, 21780, Note_on_c, 1, 36, 120
2, 21840, Note_on_c, 1, 36, 0
2, 21840, Note_on_c, 1, 28, 120
2, 22015, Note_on_c, 1, 28, 0
2, 22020, Note_on_c, 1, 28, 120
2, 22080, Note_on_c, 1, 28, 0
2, 22080, Note_on_c, 1, 38, 120
2, 22251, Note_on_c, 1, 38, 0
2, 22260, Note_on_c, 1, 38, 120
2, 22320, Note_on_c, 1, 38, 0
2, 22320, Note_on_c, 1, 31, 120
2, 22495, Note_on_c, 1, 31, 0
2, 22500, Note_on_c, 1, 31, 120
2, 22560, Note_on_c, 1, 31, 0
2, 22560, Note_on_c, 1, 36, 120
2, 22735, Note_on_c, 1, 36, 0
2, 22740, Note_on_c, 1, 36, 120
2, 22800, Note_on_c, 1, 36, 0
2, 22800, Note_on_c, 1, 33, 120
2, 22975, Note_on_c, 1, 33, 0
2, 22980, Note_on_c, 1, 33, 120
2, 23040, Note_on_c, 1, 33, 0
2, 23040, Note_on_c, 1, 38, 120
2, 23215, Note_on_c, 1, 38, 0
2, 23220, Note_on_c, 1, 38, 120
2, 23280, Note_on_c, 1, 38, 0
2, 23280, Note_on_c, 1, 31, 120
2, 23455, Note_on_c, 1, 31, 0
2, 23460, Note_on_c, 1, 31, 120
2, 23520, Note_on_c, 1, 31, 0
2, 23520, Note_on_c, 1, 36, 120
2, 23691, Note_on_c, 1, 36, 0
2, 23700, Note_on_c, 1, 36, 120
2, 23760, Note_on_c, 1, 36, 0
2, 23760, Note_on_c, 1, 28, 120
2, 23935, Note_on_c, 1, 28, 0
2, 23940, Note_on_c, 1, 28, 120
2, 24000, Note_on_c, 1, 28, 0
2, 24000, Note_on_c, 1, 38, 120
2, 24175, Note_on_c, 1, 38, 0
2, 24180, Note_on_c, 1, 38, 120
2, 24240, Note_on_c, 1, 38, 0
2, 24240, Note_on_c, 1, 31, 120
2, 24415, Note_on_c, 1, 31, 0
2, 24420, Note_on_c, 1, 31, 120
2, 24480, Note_on_c, 1, 31, 0
2, 24480, Note_on_c, 1, 31, 120
2, 24655, Note_on_c, 1, 31, 0
2, 24660, Note_on_c, 1, 31, 120
2, 24720, Note_on_c, 1, 31, 0
2, 24720, Note_on_c, 1, 36, 120
2, 24891, Note_on_c, 1, 36, 0
2, 24900, Note_on_c, 1, 36, 120
2, 24960, Note_on_c, 1, 36, 0
2, 24960, Note_on_c, 1, 29, 120
2, 25125, Note_on_c, 1, 29, 0
2, 25140, Note_on_c, 1, 29, 120
2, 25188, Note_on_c, 1, 29, 0
2, 25200, Note_on_c, 1, 29, 120
2, 25371, Note_on_c, 1, 29, 0
2, 25380, Note_on_c, 1, 29, 120
2, 25430, Note_on_c, 1, 29, 0
2, 25440, Note_on_c, 1, 31, 120
2, 25615, Note_on_c, 1, 31, 0
2, 25620, Note_on_c, 1, 31, 120
2, 25680, Note_on_c, 1, 31, 0
2, 25680, Note_on_c, 1, 36, 120
2, 25855, Note_on_c, 1, 36, 0
2, 25860, Note_on_c, 1, 36, 120
2, 25920, Note_on_c, 1, 36, 0
2, 25920, Note_on_c, 1, 29, 120
2, 26085, Note_on_c, 1, 29, 0
2, 26100, Note_on_c, 1, 29, 120
2, 26148, Note_on_c, 1, 29, 0
2, 26160, Note_on_c, 1, 29, 120
2, 26331, Note_on_c, 1, 29, 0
2, 26340, Note_on_c, 1, 29, 120
2, 26390, Note_on_c, 1, 29, 0
2, 26400, Note_on_c, 1, 33, 120
2, 26575, Note_on_c, 1, 33, 0
2, 26580, Note_on_c, 1, 33, 120
2, 26640, Note_on_c, 1, 33, 0
2, 26640, Note_on_c, 1, 38, 120
2, 26811, Note_on_c, 1, 38, 0
2, 26820, Note_on_c, 1, 38, 120
2, 26880, Note_on_c, 1, 38, 0
2, 26880, Note_on_c, 1, 31, 120
2, 27045, Note_on_c, 1, 31, 0
2, 27060, Note_on_c, 1, 31, 120
2, 27108, Note_on_c, 1, 31, 0
2, 27120, Note_on_c, 1, 31, 120
2, 27291, Note_on_c, 1, 31, 0
2, 27300, Note_on_c, 1, 31, 120
2, 27350, Note_on_c, 1, 31, 0
2, 27360, Note_on_c, 1, 33, 120
2, 27531, Note_on_c, 1, 33, 0
2, 27540, Note_on_c, 1, 33, 120
2, 27600, Note_on_c, 1, 33, 0
2, 27600, Note_on_c, 1, 38, 120
2, 27775, Note_on_c, 1, 38, 0
2, 27780, Note_on_c, 1, 38, 120
2, 27840, Note_on_c, 1, 38, 0
2, 27840, Note_on_c, 1, 38, 120
2, 28015, Note_on_c, 1, 38, 0
2, 28020, Note_on_c, 1, 38, 120
2, 28080, Note_on_c, 1, 38, 0
2, 28080, Note_on_c, 1, 31, 120
2, 28251, Note_on_c, 1, 31, 0
2, 28260, Note_on_c, 1, 31, 120
2, 28320, Note_on_c, 1, 31, 0
2, 28320, Note_on_c, 1, 36, 120
2, 28495, Note_on_c, 1, 36, 0
2, 28500, Note_on_c, 1, 36, 120
2, 28560, Note_on_c, 1, 36, 0
2, 28560, Note_on_c, 1, 33, 120
2, 28731, Note_on_c, 1, 33, 0
2, 28740, Note_on_c, 1, 33, 120
2, 28800, Note_on_c, 1, 33, 0
2, 28800, Note_on_c, 1, 38, 120
2, 28971, Note_on_c, 1, 38, 0
2, 28980, Note_on_c, 1, 38, 120
2, 29040, Note_on_c, 1, 38, 0
2, 29040, Note_on_c, 1, 31, 120
2, 29211, Note_on_c, 1, 31, 0
2, 29220, Note_on_c, 1, 31, 120
2, 29280, Note_on_c, 1, 31, 0
2, 29280, Note_on_c, 1, 36, 120
2, 29451, Note_on_c, 1, 36, 0
2, 29460, Note_on_c, 1, 36, 120
2, 29520, Note_on_c, 1, 36, 0
2, 29520, Note_on_c, 1, 28, 120
2, 29695, Note_on_c, 1, 28, 0
2, 29700, Note_on_c, 1, 28, 120
2, 29760, Note_on_c, 1, 28, 0
2, 29760, Note_on_c, 1, 38, 120
2, 29931, Note_on_c, 1, 38, 0
2, 29940, Note_on_c, 1, 38, 120
2, 30000, Note_on_c, 1, 38, 0
2, 30000, Note_on_c, 1, 31, 120
2, 30171, Note_on_c, 1, 31, 0
2, 30180, Note_on_c, 1, 31, 120
2, 30240, Note_on_c, 1, 31, 0
2, 30240, Note_on_c, 1, 36, 120
2, 30415, Note_on_c, 1, 36, 0
2, 30420, Note_on_c, 1, 36, 120
2, 30480, Note_on_c, 1, 36, 0
2, 30480, Note_on_c, 1, 33, 120
2, 30651, Note_on_c, 1, 33, 0
2, 30660, Note_on_c, 1, 33, 120
2, 30720, Note_on_c, 1, 33, 0
2, 30720, Note_on_c, 1, 38, 120
2, 30895, Note_on_c, 1, 38, 0
2, 30900, Note_on_c, 1, 38, 120
2, 30960, Note_on_c, 1, 38, 0
2, 30960, Note_on_c, 1, 31, 120
2, 31135, Note_on_c, 1, 31, 0
2, 31140, Note_on_c, 1, 31, 120
2, 31200, Note_on_c, 1, 31, 0
2, 31200, Note_on_c, 1, 36, 120
2, 31375, Note_on_c, 1, 36, 0
2, 31380, Note_on_c, 1, 36, 120
2, 31440, Note_on_c, 1, 36, 0
2, 31440, Note_on_c, 1, 28, 120
2, 31611, Note_on_c, 1, 28, 0
2, 31620, Note_on_c, 1, 28, 120
2, 31680, Note_on_c, 1, 28, 0
2, 31680, Note_on_c, 1, 38, 120
2, 31851, Note_on_c, 1, 38, 0
2, 31860, Note_on_c, 1, 38, 120
2, 31920, Note_on_c, 1, 38, 0
2, 31920, Note_on_c, 1, 31, 120
2, 32091, Note_on_c, 1, 31, 0
2, 32100, Note_on_c, 1, 31, 120
2, 32160, Note_on_c, 1, 31, 0
2, 32160, Note_on_c, 1, 36, 120
2, 32331, Note_on_c, 1, 36, 0
2, 32340, Note_on_c, 1, 36, 120
2, 32400, Note_on_c, 1, 36, 0
2, 32400, Note_on_c, 1, 33, 120
2, 32575, Note_on_c, 1, 33, 0
2, 32580, Note_on_c, 1, 33, 120
2, 32640, Note_on_c, 1, 33, 0
2, 32640, Note_on_c, 1, 38, 120
2, 32815, Note_on_c, 1, 38, 0
2, 32820, Note_on_c, 1, 38, 120
2, 32880, Note_on_c, 1, 38, 0
2, 32880, Note_on_c, 1, 31, 120
2, 33055, Note_on_c, 1, 31, 0
2, 33060, Note_on_c, 1, 31, 120
2, 33120, Note_on_c, 1, 31, 0
2, 33120, Note_on_c, 1, 36, 120
2, 33291, Note_on_c, 1, 36, 0
2, 33300, Note_on_c, 1, 36, 120
2, 33360, Note_on_c, 1, 36, 0
2, 33360, Note_on_c, 1, 28, 120
2, 33531, Note_on_c, 1, 28, 0
2, 33540, Note_on_c, 1, 28, 120
2, 33600, Note_on_c, 1, 28, 0
2, 33600, Note_on_c, 1, 38, 120
2, 33775, Note_on_c, 1, 38, 0
2, 33780, Note_on_c, 1, 38, 120
2, 33840, Note_on_c, 1, 38, 0
2, 33840, Note_on_c, 1, 31, 120
2, 34015, Note_on_c, 1, 31, 0
2, 34020, Note_on_c, 1, 31, 120
2, 34080, Note_on_c, 1, 31, 0
2, 34080, Note_on_c, 1, 31, 120
2, 34255, Note_on_c, 1, 31, 0
2, 34260, Note_on_c, 1, 31, 120
2, 34320, Note_on_c, 1, 31, 0
2, 34320, Note_on_c, 1, 36, 120
2, 34495, Note_on_c, 1, 36, 0
2, 34500, Note_on_c, 1, 36, 120
2, 34560, Note_on_c, 1, 36, 0
2, 34560, Note_on_c, 1, 29, 120
2, 34725, Note_on_c, 1, 29, 0
2, 34740, Note_on_c, 1, 29, 120
2, 34788, Note_on_c, 1, 29, 0
2, 34800, Note_on_c, 1, 29, 120
2, 34971, Note_on_c, 1, 29, 0
2, 34980, Note_on_c, 1, 29, 120
2, 35030, Note_on_c, 1, 29, 0
2, 35040, Note_on_c, 1, 31, 120
2, 35215, Note_on_c, 1, 31, 0
2, 35220, Note_on_c, 1, 31, 120
2, 35280, Note_on_c, 1, 31, 0
2, 35280, Note_on_c, 1, 36, 120
2, 35451, Note_on_c, 1, 36, 0
2, 35460, Note_on_c, 1, 36, 120
2, 35520, Note_on_c, 1, 36, 0
2, 35520, Note_on_c, 1, 29, 120
2, 35685, Note_on_c, 1, 29, 0
2, 35700, Note_on_c, 1, 29, 120
2, 35748, Note_on_c, 1, 29, 0
2, 35760, Note_on_c, 1, 29, 120
2, 35931, Note_on_c, 1, 29, 0
2, 35940, Note_on_c, 1, 29, 120
2, 35990, Note_on_c, 1, 29, 0
2, 36000, Note_on_c, 1, 33, 120
2, 36171, Note_on_c, 1, 33, 0
2, 36180, Note_on_c, 1, 33, 120
2, 36240, Note_on_c, 1, 33, 0
2, 36240, Note_on_c, 1, 38, 120
2, 36411, Note_on_c, 1, 38, 0
2, 36420, Note_on_c, 1, 38, 120
2, 36480, Note_on_c, 1, 38, 0
2, 36480, Note_on_c, 1, 31, 120
2, 36645, Note_on_c, 1, 31, 0
2, 36660, Note_on_c, 1, 31, 120
2, 36708, Note_on_c, 1, 31, 0
2, 36720, Note_on_c, 1, 31, 120
2, 36891, Note_on_c, 1, 31, 0
2, 36900, Note_on_c, 1, 31, 120
2, 36950, Note_on_c, 1, 31, 0
2, 36960, Note_on_c, 1, 33, 120
2, 37131, Note_on_c, 1, 33, 0
2, 37140, Note_on_c, 1, 33, 120
2, 37200, Note_on_c, 1, 33, 0
2, 37200, Note_on_c, 1, 38, 120
2, 37375, Note_on_c, 1, 38, 0
2, 37380, Note_on_c, 1, 38, 120
2, 37440, Note_on_c, 1, 38, 0
2, 37440, Note_on_c, 1, 38, 120
2, 37611, Note_on_c, 1, 38, 0
2, 37620, Note_on_c, 1, 38, 120
2, 37680, Note_on_c, 1, 38, 0
2, 37680, Note_on_c, 1, 31, 120
2, 37855, Note_on_c, 1, 31, 0
2, 37860, Note_on_c, 1, 31, 120
2, 37920, Note_on_c, 1, 31, 0
2, 37920, Note_on_c, 1, 36, 120
2, 38095, Note_on_c, 1, 36, 0
2, 38100, Note_on_c, 1, 36, 120
2, 38160, Note_on_c, 1, 36, 0
2, 38160, Note_on_c, 1, 33, 120
2, 38335, Note_on_c, 1, 33, 0
2, 38340, Note_on_c, 1, 33, 120
2, 38400, Note_on_c, 1, 33, 0
2, 38400, Note_on_c, 1, 38, 120
2, 38575, Note_on_c, 1, 38, 0
2, 38580, Note_on_c, 1, 38, 120
2, 38640, Note_on_c, 1, 38, 0
2, 38640, Note_on_c, 1, 31, 120
2, 38811, Note_on_c, 1, 31, 0
2, 38820, Note_on_c, 1, 31, 120
2, 38880, Note_on_c, 1, 31, 0
2, 38880, Note_on_c, 1, 36, 120
2, 39055, Note_on_c, 1, 36, 0
2, 39060, Note_on_c, 1, 36, 120
2, 39120, Note_on_c, 1, 36, 0
2, 39120, Note_on_c, 1, 28, 120
2, 39291, Note_on_c, 1, 28, 0
2, 39300, Note_on_c, 1, 28, 120
2, 39360, Note_on_c, 1, 28, 0
2, 39360, Note_on_c, 1, 38, 120
2, 39535, Note_on_c, 1, 38, 0
2, 39540, Note_on_c, 1, 38, 120
2, 39600, Note_on_c, 1, 38, 0
2, 39600, Note_on_c, 1, 31, 120
2, 39775, Note_on_c, 1, 31, 0
2, 39780, Note_on_c, 1, 31, 120
2, 39840, Note_on_c, 1, 31, 0
2, 39840, Note_on_c, 1, 36, 120
2, 40080, Note_on_c, 1, 36, 0
2, 40080, Note_on_c, 1, 33, 120
2, 40241, Note_on_c, 1, 33, 0
2, 40260, Note_on_c, 1, 33, 120
2, 40317, Note_on_c, 1, 33, 0
2, 40320, Note_on_c, 1, 38, 120
2, 40481, Note_on_c, 1, 38, 0
2, 40500, Note_on_c, 1, 38, 120
2, 40557, Note_on_c, 1, 38, 0
2, 40560, Note_on_c, 1, 31, 120
2, 40800, Note_on_c, 1, 31, 0
2, 40800, Note_on_c, 1, 36, 120
2, 40961, Note_on_c, 1, 36, 0
2, 40980, Note_on_c, 1, 36, 120
2, 41037, Note_on_c, 1, 36, 0
2, 41040, Note_on_c, 1, 28, 120
2, 41201, Note_on_c, 1, 28, 0
2, 41220, Note_on_c, 1, 28, 120
2, 41277, Note_on_c, 1, 28, 0
2, 41280, Note_on_c, 1, 38, 120
2, 41441, Note_on_c, 1, 38, 0
2, 41460, Note_on_c, 1, 38, 120
2, 41517, Note_on_c, 1, 38, 0
2, 41520, Note_on_c, 1, 31, 120
2, 41760, Note_on_c, 1, 31, 0
2, 41760, Note_on_c, 1, 36, 120
2, 41921, Note_on_c, 1, 36, 0
2, 41940, Note_on_c, 1, 36, 120
2, 41997, Note_on_c, 1, 36, 0
2, 42000, Note_on_c, 1, 33, 120
2, 42240, Note_on_c, 1, 33, 0
2, 42240, Note_on_c, 1, 38, 120
2, 42401, Note_on_c, 1, 38, 0
2, 42420, Note_on_c, 1, 38, 120
2, 42477, Note_on_c, 1, 38, 0
2, 42480, Note_on_c, 1, 31, 120
2, 42641, Note_on_c, 1, 31, 0
2, 42660, Note_on_c, 1, 31, 120
2, 42717, Note_on_c, 1, 31, 0
2, 42720, Note_on_c, 1, 36, 120
2, 42881, Note_on_c, 1, 36, 0
2, 42900, Note_on_c, 1, 36, 120
2, 42957, Note_on_c, 1, 36, 0
2, 42960, Note_on_c, 1, 28, 120
2, 43200, Note_on_c, 1, 28, 0
2, 43200, Note_on_c, 1, 38, 120
2, 43440, Note_on_c, 1, 38, 0
2, 43440, Note_on_c, 1, 31, 120
2, 43601, Note_on_c, 1, 31, 0
2, 43620, Note_on_c, 1, 31, 120
2, 43677, Note_on_c, 1, 31, 0
2, 43680, Note_on_c, 1, 31, 120
2, 43920, Note_on_c, 1, 31, 0
2, 43920, Note_on_c, 1, 36, 120
2, 44081, Note_on_c, 1, 36, 0
2, 44100, Note_on_c, 1, 36, 120
2, 44157, Note_on_c, 1, 36, 0
2, 44161, Note_on_c, 1, 41, 120
2, 44371, Note_on_c, 1, 41, 0
2, 44405, Note_on_c, 1, 36, 120
2, 44605, Note_on_c, 1, 36, 0
2, 44640, Note_on_c, 1, 31, 120
2, 44801, Note_on_c, 1, 31, 0
2, 44820, Note_on_c, 1, 31, 120
2, 44877, Note_on_c, 1, 31, 0
2, 44880, Note_on_c, 1, 36, 120
2, 45120, Note_on_c, 1, 36, 0
2, 45121, Note_on_c, 1, 41, 120
2, 45331, Note_on_c, 1, 41, 0
2, 45365, Note_on_c, 1, 36, 120
2, 45565, Note_on_c, 1, 36, 0
2, 45600, Note_on_c, 1, 33, 120
2, 45840, Note_on_c, 1, 33, 0
2, 45840, Note_on_c, 1, 38, 120
2, 46080, Note_on_c, 1, 38, 0
2, 46081, Note_on_c, 1, 43, 120
2, 46298, Note_on_c, 1, 43, 0
2, 46323, Note_on_c, 1, 38, 120
2, 46529, Note_on_c, 1, 38, 0
2, 46560, Note_on_c, 1, 33, 120
2, 46800, Note_on_c, 1, 33, 0
2, 46800, Note_on_c, 1, 38, 120
2, 47040, Note_on_c, 1, 38, 0
2, 47040, Note_on_c, 1, 38, 120
2, 47201, Note_on_c, 1, 38, 0
2, 47220, Note_on_c, 1, 38, 120
2, 47277, Note_on_c, 1, 38, 0
2, 47280, Note_on_c, 1, 31, 120
2, 47441, Note_on_c, 1, 31, 0
2, 47460, Note_on_c, 1, 31, 120
2, 47517, Note_on_c, 1, 31, 0
2, 47520, Note_on_c, 1, 36, 120
2, 47760, Note_on_c, 1, 36, 0
2, 47760, Note_on_c, 1, 33, 120
2, 48000, Note_on_c, 1, 33, 0
2, 48000, Note_on_c, 1, 38, 120
2, 48161, Note_on_c, 1, 38, 0
2, 48180, Note_on_c, 1, 38, 120
2, 48237, Note_on_c, 1, 38, 0
2, 48240, Note_on_c, 1, 31, 120
2, 48401, Note_on_c, 1, 31, 0
2, 48420, Note_on_c, 1, 31, 120
2, 48477, Note_on_c, 1, 31, 0
2, 48480, Note_on_c, 1, 36, 120
2, 48641, Note_on_c, 1, 36, 0
2, 48660, Note_on_c, 1, 36, 120
2, 48717, Note_on_c, 1, 36, 0
2, 48720, Note_on_c, 1, 28, 120
2, 48881, Note_on_c, 1, 28, 0
2, 48900, Note_on_c, 1, 28, 120
2, 48957, Note_on_c, 1, 28, 0
2, 48960, Note_on_c, 1, 38, 120
2, 49200, Note_on_c, 1, 38, 0
2, 49200, Note_on_c, 1, 31, 120
2, 49440, Note_on_c, 1, 31, 0
2, 49440, Note_on_c, 1, 36, 120
2, 49560, Note_on_c, 1, 36, 0
2, 49680, Note_on_c, 1, 33, 120
2, 49800, Note_on_c, 1, 33, 0
2, 49920, Note_on_c, 1, 38, 120
2, 50040, Note_on_c, 1, 38, 0
2, 50160, Note_on_c, 1, 38, 120
2, 50321, Note_on_c, 1, 38, 0
2, 50340, Note_on_c, 1, 38, 120
2, 50397, Note_on_c, 1, 38, 0
2, 50400, Note_on_c, 1, 36, 120
2, 50543, Note_on_c, 1, 36, 0
2, 50584, Note_on_c, 1, 36, 120
2, 50600, Note_on_c, 1, 36, 0
2, 50641, Note_on_c, 1, 36, 120
2, 50785, Note_on_c, 1, 36, 0
2, 50827, Note_on_c, 1, 36, 120
2, 50844, Note_on_c, 1, 36, 0
2, 50878, Note_on_c, 1, 36, 120
2, 51305, Note_on_c, 1, 36, 0
2, 51305, End_track
3, 0, Start_track
3, 0, MIDI_port, 0
3, 0, Title_t, "Drums   "
3, 0, Program_c, 9, 8
3, 0, Control_c, 9, 7, 75
3, 0, Control_c, 9, 10, 58
3, 0, Note_on_c, 9, 35, 100
3, 0, Note_on_c, 9, 49, 90
3, 25, Note_on_c, 9, 49, 0
3, 25, Note_on_c, 9, 35, 0
3, 240, Note_on_c, 9, 35, 100
3, 240, Note_on_c, 9, 42, 80
3, 265, Note_on_c, 9, 42, 0
3, 265, Note_on_c, 9, 35, 0
3, 480, Note_on_c, 9, 35, 100
3, 480, Note_on_c, 9, 42, 80
3, 505, Note_on_c, 9, 42, 0
3, 505, Note_on_c, 9, 35, 0
3, 720, Note_on_c, 9, 35, 100
3, 720, Note_on_c, 9, 42, 75
3, 745, Note_on_c, 9, 42, 0
3, 745, Note_on_c, 9, 35, 0
3, 780, Note_on_c, 9, 42, 43
3, 805, Note_on_c, 9, 42, 0
3, 840, Note_on_c, 9, 38, 100
3, 840, Note_on_c, 9, 42, 75
3, 865, Note_on_c, 9, 42, 0
3, 865, Note_on_c, 9, 38, 0
3, 900, Note_on_c, 9, 35, 80
3, 900, Note_on_c, 9, 42, 40
3, 925, Note_on_c, 9, 42, 0
3, 925, Note_on_c, 9, 35, 0
3, 960, Note_on_c, 9, 35, 100
3, 960, Note_on_c, 9, 42, 80
3, 985, Note_on_c, 9, 42, 0
3, 985, Note_on_c, 9, 35, 0
3, 1440, Note_on_c, 9, 35, 120
3, 1440, Note_on_c, 9, 49, 120
3, 1465, Note_on_c, 9, 49, 0
3, 1465, Note_on_c, 9, 35, 0
3, 1500, Note_on_c, 9, 42, 120
3, 1525, Note_on_c, 9, 42, 0
3, 1560, Note_on_c, 9, 42, 120
3, 1560, Note_on_c, 9, 37, 120
3, 1585, Note_on_c, 9, 37, 0
3, 1585, Note_on_c, 9, 42, 0
3, 1620, Note_on_c, 9, 42, 120
3, 1645, Note_on_c, 9, 42, 0
3, 1680, Note_on_c, 9, 35, 120
3, 1680, Note_on_c, 9, 42, 120
3, 1705, Note_on_c, 9, 42, 0
3, 1705, Note_on_c, 9, 35, 0
3, 1740, Note_on_c, 9, 42, 120
3, 1765, Note_on_c, 9, 42, 0
3, 1800, Note_on_c, 9, 42, 120
3, 1800, Note_on_c, 9, 37, 120
3, 1825, Note_on_c, 9, 37, 0
3, 1825, Note_on_c, 9, 42, 0
3, 1860, Note_on_c, 9, 35, 120
3, 1860, Note_on_c, 9, 42, 120
3, 1885, Note_on_c, 9, 42, 0
3, 1885, Note_on_c, 9, 35, 0
3, 1920, Note_on_c, 9, 35, 120
3, 1920, Note_on_c, 9, 42, 120
3, 1945, Note_on_c, 9, 42, 0
3, 1945, Note_on_c, 9, 35, 0
3, 1980, Note_on_c, 9, 42, 120
3, 2005, Note_on_c, 9, 42, 0
3, 2040, Note_on_c, 9, 42, 120
3, 2040, Note_on_c, 9, 37, 120
3, 2065, Note_on_c, 9, 37, 0
3, 2065, Note_on_c, 9, 42, 0
3, 2100, Note_on_c, 9, 42, 120
3, 2125, Note_on_c, 9, 42, 0
3, 2160, Note_on_c, 9, 35, 120
3, 2160, Note_on_c, 9, 42, 120
3, 2185, Note_on_c, 9, 42, 0
3, 2185, Note_on_c, 9, 35, 0
3, 2220, Note_on_c, 9, 42, 120
3, 2245, Note_on_c, 9, 42, 0
3, 2280, Note_on_c, 9, 42, 120
3, 2280, Note_on_c, 9, 37, 120
3, 2305, Note_on_c, 9, 37, 0
3, 2305, Note_on_c, 9, 42, 0
3, 2340, Note_on_c, 9, 35, 120
3, 2340, Note_on_c, 9, 42, 120
3, 2365, Note_on_c, 9, 42, 0
3, 2365, Note_on_c, 9, 35, 0
3, 2400, Note_on_c, 9, 35, 120
3, 2400, Note_on_c, 9, 42, 120
3, 2425, Note_on_c, 9, 42, 0
3, 2425, Note_on_c, 9, 35, 0
3, 2460, Note_on_c, 9, 42, 120
3, 2485, Note_on_c, 9, 42, 0
3, 2520, Note_on_c, 9, 42, 120
3, 2520, Note_on_c, 9, 37, 120
3, 2545, Note_on_c, 9, 37, 0
3, 2545, Note_on_c, 9, 42, 0
3, 2580, Note_on_c, 9, 42, 120
3, 2605, Note_on_c, 9, 42, 0
3, 2640, Note_on_c, 9, 35, 120
3, 2640, Note_on_c, 9, 42, 120
3, 2665, Note_on_c, 9, 42, 0
3, 2665, Note_on_c, 9, 35, 0
3, 2700, Note_on_c, 9, 42, 120
3, 2725, Note_on_c, 9, 42, 0
3, 2760, Note_on_c, 9, 42, 120
3, 2760, Note_on_c, 9, 37, 120
3, 2785, Note_on_c, 9, 37, 0
3, 2785, Note_on_c, 9, 42, 0
3, 2820, Note_on_c, 9, 42, 120
3, 2845, Note_on_c, 9, 42, 0
3, 2880, Note_on_c, 9, 35, 120
3, 2880, Note_on_c, 9, 42, 120
3, 2905, Note_on_c, 9, 42, 0
3, 2905, Note_on_c, 9, 35, 0
3, 2940, Note_on_c, 9, 42, 120
3, 2965, Note_on_c, 9, 42, 0
3, 2970, Note_on_c, 9, 42, 120
3, 2995, Note_on_c, 9, 42, 0
3, 3000, Note_on_c, 9, 38, 120
3, 3000, Note_on_c, 9, 46, 120
3, 3025, Note_on_c, 9, 46, 0
3, 3025, Note_on_c, 9, 38, 0
3, 3060, Note_on_c, 9, 35, 120
3, 3060, Note_on_c, 9, 46, 120
3, 3085, Note_on_c, 9, 46, 0
3, 3085, Note_on_c, 9, 35, 0
3, 3180, Note_on_c, 9, 35, 120
3, 3205, Note_on_c, 9, 35, 0
3, 3240, Note_on_c, 9, 45, 120
3, 3265, Note_on_c, 9, 45, 0
3, 3300, Note_on_c, 9, 45, 120
3, 3325, Note_on_c, 9, 45, 0
3, 3330, Note_on_c, 9, 41, 120
3, 3355, Note_on_c, 9, 41, 0
3, 3360, Note_on_c, 9, 35, 120
3, 3360, Note_on_c, 9, 49, 120
3, 3385, Note_on_c, 9, 49, 0
3, 3385, Note_on_c, 9, 35, 0
3, 3420, Note_on_c, 9, 42, 120
3, 3445, Note_on_c, 9, 42, 0
3, 3480, Note_on_c, 9, 42, 120
3, 3480, Note_on_c, 9, 37, 120
3, 3505, Note_on_c, 9, 37, 0
3, 3505, Note_on_c, 9, 42, 0
3, 3540, Note_on_c, 9, 42, 120
3, 3565, Note_on_c, 9, 42, 0
3, 3600, Note_on_c, 9, 35, 120
3, 3600, Note_on_c, 9, 42, 120
3, 3625, Note_on_c, 9, 42, 0
3, 3625, Note_on_c, 9, 35, 0
3, 3660, Note_on_c, 9, 42, 120
3, 3685, Note_on_c, 9, 42, 0
3, 3720, Note_on_c, 9, 42, 120
3, 3720, Note_on_c, 9, 37, 120
3, 3745, Note_on_c, 9, 37, 0
3, 3745, Note_on_c, 9, 42, 0
3, 3780, Note_on_c, 9, 35, 120
3, 3780, Note_on_c, 9, 42, 120
3, 3805, Note_on_c, 9, 42, 0
3, 3805, Note_on_c, 9, 35, 0
3, 3840, Note_on_c, 9, 35, 120
3, 3840, Note_on_c, 9, 42, 120
3, 3865, Note_on_c, 9, 42, 0
3, 3865, Note_on_c, 9, 35, 0
3, 3900, Note_on_c, 9, 42, 120
3, 3925, Note_on_c, 9, 42, 0
3, 3960, Note_on_c, 9, 42, 120
3, 3960, Note_on_c, 9, 37, 120
3, 3985, Note_on_c, 9, 37, 0
3, 3985, Note_on_c, 9, 42, 0
3, 4020, Note_on_c, 9, 42, 120
3, 4045, Note_on_c, 9, 42, 0
3, 4080, Note_on_c, 9, 35, 120
3, 4080, Note_on_c, 9, 42, 120
3, 4105, Note_on_c, 9, 42, 0
3, 4105, Note_on_c, 9, 35, 0
3, 4140, Note_on_c, 9, 42, 120
3, 4165, Note_on_c, 9, 42, 0
3, 4200, Note_on_c, 9, 42, 120
3, 4200, Note_on_c, 9, 37, 120
3, 4225, Note_on_c, 9, 37, 0
3, 4225, Note_on_c, 9, 42, 0
3, 4260, Note_on_c, 9, 35, 120
3, 4260, Note_on_c, 9, 42, 120
3, 4285, Note_on_c, 9, 42, 0
3, 4285, Note_on_c, 9, 35, 0
3, 4320, Note_on_c, 9, 35, 120
3, 4320, Note_on_c, 9, 42, 120
3, 4345, Note_on_c, 9, 42, 0
3, 4345, Note_on_c, 9, 35, 0
3, 4380, Note_on_c, 9, 42, 120
3, 4405, Note_on_c, 9, 42, 0
3, 4440, Note_on_c, 9, 42, 120
3, 4440, Note_on_c, 9, 37, 120
3, 4465, Note_on_c, 9, 37, 0
3, 4465, Note_on_c, 9, 42, 0
3, 4500, Note_on_c, 9, 42, 120
3, 4525, Note_on_c, 9, 42, 0
3, 4560, Note_on_c, 9, 35, 120
3, 4560, Note_on_c, 9, 42, 120
3, 4585, Note_on_c, 9, 42, 0
3, 4585, Note_on_c, 9, 35, 0
3, 4620, Note_on_c, 9, 42, 120
3, 4645, Note_on_c, 9, 42, 0
3, 4680, Note_on_c, 9, 42, 120
3, 4680, Note_on_c, 9, 37, 120
3, 4705, Note_on_c, 9, 37, 0
3, 4705, Note_on_c, 9, 42, 0
3, 4740, Note_on_c, 9, 42, 120
3, 4765, Note_on_c, 9, 42, 0
3, 4800, Note_on_c, 9, 35, 120
3, 4800, Note_on_c, 9, 42, 120
3, 4825, Note_on_c, 9, 42, 0
3, 4825, Note_on_c, 9, 35, 0
3, 4860, Note_on_c, 9, 42, 120
3, 4885, Note_on_c, 9, 42, 0
3, 4920, Note_on_c, 9, 42, 120
3, 4920, Note_on_c, 9, 37, 120
3, 4945, Note_on_c, 9, 37, 0
3, 4945, Note_on_c, 9, 42, 0
3, 4980, Note_on_c, 9, 42, 120
3, 5005, Note_on_c, 9, 42, 0
3, 5040, Note_on_c, 9, 35, 120
3, 5040, Note_on_c, 9, 42, 120
3, 5065, Note_on_c, 9, 42, 0
3, 5065, Note_on_c, 9, 35, 0
3, 5100, Note_on_c, 9, 42, 120
3, 5125, Note_on_c, 9, 42, 0
3, 5160, Note_on_c, 9, 42, 120
3, 5160, Note_on_c, 9, 37, 120
3, 5185, Note_on_c, 9, 37, 0
3, 5185, Note_on_c, 9, 42, 0
3, 5220, Note_on_c, 9, 35, 120
3, 5220, Note_on_c, 9, 42, 120
3, 5245, Note_on_c, 9, 42, 0
3, 5245, Note_on_c, 9, 35, 0
3, 5280, Note_on_c, 9, 35, 120
3, 5280, Note_on_c, 9, 42, 120
3, 5305, Note_on_c, 9, 42, 0
3, 5305, Note_on_c, 9, 35, 0
3, 5340, Note_on_c, 9, 42, 120
3, 5365, Note_on_c, 9, 42, 0
3, 5400, Note_on_c, 9, 42, 120
3, 5400, Note_on_c, 9, 37, 120
3, 5425, Note_on_c, 9, 37, 0
3, 5425, Note_on_c, 9, 42, 0
3, 5460, Note_on_c, 9, 46, 120
3, 5485, Note_on_c, 9, 46, 0
3, 5520, Note_on_c, 9, 35, 120
3, 5520, Note_on_c, 9, 42, 120
3, 5545, Note_on_c, 9, 42, 0
3, 5545, Note_on_c, 9, 35, 0
3, 5580, Note_on_c, 9, 42, 120
3, 5605, Note_on_c, 9, 42, 0
3, 5640, Note_on_c, 9, 42, 120
3, 5640, Note_on_c, 9, 37, 120
3, 5665, Note_on_c, 9, 37, 0
3, 5665, Note_on_c, 9, 42, 0
3, 5700, Note_on_c, 9, 42, 120
3, 5725, Note_on_c, 9, 42, 0
3, 5760, Note_on_c, 9, 35, 120
3, 5760, Note_on_c, 9, 42, 120
3, 5785, Note_on_c, 9, 42, 0
3, 5785, Note_on_c, 9, 35, 0
3, 5820, Note_on_c, 9, 42, 120
3, 5845, Note_on_c, 9, 42, 0
3, 5880, Note_on_c, 9, 42, 120
3, 5880, Note_on_c, 9, 37, 120
3, 5905, Note_on_c, 9, 37, 0
3, 5905, Note_on_c, 9, 42, 0
3, 5940, Note_on_c, 9, 42, 120
3, 5965, Note_on_c, 9, 42, 0
3, 6000, Note_on_c, 9, 35, 120
3, 6000, Note_on_c, 9, 42, 120
3, 6025, Note_on_c, 9, 42, 0
3, 6025, Note_on_c, 9, 35, 0
3, 6060, Note_on_c, 9, 42, 120
3, 6085, Note_on_c, 9, 42, 0
3, 6120, Note_on_c, 9, 42, 120
3, 6120, Note_on_c, 9, 37, 120
3, 6145, Note_on_c, 9, 37, 0
3, 6145, Note_on_c, 9, 42, 0
3, 6180, Note_on_c, 9, 35, 120
3, 6180, Note_on_c, 9, 42, 120
3, 6205, Note_on_c, 9, 42, 0
3, 6205, Note_on_c, 9, 35, 0
3, 6240, Note_on_c, 9, 35, 120
3, 6240, Note_on_c, 9, 42, 120
3, 6265, Note_on_c, 9, 42, 0
3, 6265, Note_on_c, 9, 35, 0
3, 6300, Note_on_c, 9, 42, 120
3, 6325, Note_on_c, 9, 42, 0
3, 6360, Note_on_c, 9, 42, 120
3, 6360, Note_on_c, 9, 37, 120
3, 6385, Note_on_c, 9, 37, 0
3, 6385, Note_on_c, 9, 42, 0
3, 6420, Note_on_c, 9, 42, 120
3, 6445, Note_on_c, 9, 42, 0
3, 6480, Note_on_c, 9, 35, 120
3, 6480, Note_on_c, 9, 42, 120
3, 6505, Note_on_c, 9, 42, 0
3, 6505, Note_on_c, 9, 35, 0
3, 6540, Note_on_c, 9, 42, 120
3, 6565, Note_on_c, 9, 42, 0
3, 6600, Note_on_c, 9, 42, 120
3, 6600, Note_on_c, 9, 37, 120
3, 6625, Note_on_c, 9, 37, 0
3, 6625, Note_on_c, 9, 42, 0
3, 6660, Note_on_c, 9, 42, 120
3, 6685, Note_on_c, 9, 42, 0
3, 6720, Note_on_c, 9, 35, 120
3, 6720, Note_on_c, 9, 42, 120
3, 6745, Note_on_c, 9, 42, 0
3, 6745, Note_on_c, 9, 35, 0
3, 6780, Note_on_c, 9, 42, 120
3, 6805, Note_on_c, 9, 42, 0
3, 6840, Note_on_c, 9, 42, 120
3, 6840, Note_on_c, 9, 37, 120
3, 6865, Note_on_c, 9, 37, 0
3, 6865, Note_on_c, 9, 42, 0
3, 6900, Note_on_c, 9, 42, 120
3, 6925, Note_on_c, 9, 42, 0
3, 6960, Note_on_c, 9, 35, 120
3, 6960, Note_on_c, 9, 42, 120
3, 6985, Note_on_c, 9, 42, 0
3, 6985, Note_on_c, 9, 35, 0
3, 7020, Note_on_c, 9, 42, 120
3, 7045, Note_on_c, 9, 42, 0
3, 7080, Note_on_c, 9, 42, 120
3, 7080, Note_on_c, 9, 37, 120
3, 7105, Note_on_c, 9, 37, 0
3, 7105, Note_on_c, 9, 42, 0
3, 7140, Note_on_c, 9, 35, 120
3, 7140, Note_on_c, 9, 42, 120
3, 7165, Note_on_c, 9, 42, 0
3, 7165, Note_on_c, 9, 35, 0
3, 7200, Note_on_c, 9, 35, 120
3, 7200, Note_on_c, 9, 42, 120
3, 7225, Note_on_c, 9, 42, 0
3, 7225, Note_on_c, 9, 35, 0
3, 7260, Note_on_c, 9, 42, 120
3, 7285, Note_on_c, 9, 42, 0
3, 7320, Note_on_c, 9, 42, 120
3, 7320, Note_on_c, 9, 37, 120
3, 7345, Note_on_c, 9, 37, 0
3, 7345, Note_on_c, 9, 42, 0
3, 7380, Note_on_c, 9, 42, 120
3, 7405, Note_on_c, 9, 42, 0
3, 7440, Note_on_c, 9, 35, 120
3, 7440, Note_on_c, 9, 42, 120
3, 7465, Note_on_c, 9, 42, 0
3, 7465, Note_on_c, 9, 35, 0
3, 7500, Note_on_c, 9, 42, 120
3, 7525, Note_on_c, 9, 42, 0
3, 7560, Note_on_c, 9, 42, 120
3, 7560, Note_on_c, 9, 37, 120
3, 7585, Note_on_c, 9, 37, 0
3, 7585, Note_on_c, 9, 42, 0
3, 7620, Note_on_c, 9, 42, 120
3, 7645, Note_on_c, 9, 42, 0
3, 7680, Note_on_c, 9, 35, 120
3, 7680, Note_on_c, 9, 42, 120
3, 7705, Note_on_c, 9, 42, 0
3, 7705, Note_on_c, 9, 35, 0
3, 7740, Note_on_c, 9, 42, 120
3, 7765, Note_on_c, 9, 42, 0
3, 7800, Note_on_c, 9, 42, 120
3, 7800, Note_on_c, 9, 37, 120
3, 7825, Note_on_c, 9, 37, 0
3, 7825, Note_on_c, 9, 42, 0
3, 7860, Note_on_c, 9, 42, 120
3, 7885, Note_on_c, 9, 42, 0
3, 7920, Note_on_c, 9, 35, 120
3, 7920, Note_on_c, 9, 42, 120
3, 7945, Note_on_c, 9, 42, 0
3, 7945, Note_on_c, 9, 35, 0
3, 7980, Note_on_c, 9, 42, 120
3, 8005, Note_on_c, 9, 42, 0
3, 8040, Note_on_c, 9, 42, 120
3, 8040, Note_on_c, 9, 37, 120
3, 8065, Note_on_c, 9, 37, 0
3, 8065, Note_on_c, 9, 42, 0
3, 8100, Note_on_c, 9, 35, 120
3, 8100, Note_on_c, 9, 42, 120
3, 8125, Note_on_c, 9, 42, 0
3, 8125, Note_on_c, 9, 35, 0
3, 8160, Note_on_c, 9, 35, 120
3, 8160, Note_on_c, 9, 42, 120
3, 8185, Note_on_c, 9, 42, 0
3, 8185, Note_on_c, 9, 35, 0
3, 8220, Note_on_c, 9, 42, 120
3, 8245, Note_on_c, 9, 42, 0
3, 8280, Note_on_c, 9, 42, 120
3, 8280, Note_on_c, 9, 37, 120
3, 8305, Note_on_c, 9, 37, 0
3, 8305, Note_on_c, 9, 42, 0
3, 8340, Note_on_c, 9, 42, 120
3, 8365, Note_on_c, 9, 42, 0
3, 8400, Note_on_c, 9, 35, 120
3, 8400, Note_on_c, 9, 42, 120
3, 8425, Note_on_c, 9, 42, 0
3, 8425, Note_on_c, 9, 35, 0
3, 8460, Note_on_c, 9, 42, 120
3, 8485, Note_on_c, 9, 42, 0
3, 8520, Note_on_c, 9, 42, 120
3, 8520, Note_on_c, 9, 37, 120
3, 8545, Note_on_c, 9, 37, 0
3, 8545, Note_on_c, 9, 42, 0
3, 8580, Note_on_c, 9, 42, 120
3, 8605, Note_on_c, 9, 42, 0
3, 8640, Note_on_c, 9, 35, 120
3, 8640, Note_on_c, 9, 42, 120
3, 8665, Note_on_c, 9, 42, 0
3, 8665, Note_on_c, 9, 35, 0
3, 8700, Note_on_c, 9, 42, 120
3, 8725, Note_on_c, 9, 42, 0
3, 8760, Note_on_c, 9, 42, 120
3, 8760, Note_on_c, 9, 37, 120
3, 8785, Note_on_c, 9, 37, 0
3, 8785, Note_on_c, 9, 42, 0
3, 8820, Note_on_c, 9, 42, 120
3, 8845, Note_on_c, 9, 42, 0
3, 8880, Note_on_c, 9, 35, 120
3, 8880, Note_on_c, 9, 42, 120
3, 8905, Note_on_c, 9, 42, 0
3, 8905, Note_on_c, 9, 35, 0
3, 8940, Note_on_c, 9, 42, 120
3, 8965, Note_on_c, 9, 42, 0
3, 9000, Note_on_c, 9, 42, 120
3, 9000, Note_on_c, 9, 37, 120
3, 9025, Note_on_c, 9, 37, 0
3, 9025, Note_on_c, 9, 42, 0
3, 9060, Note_on_c, 9, 35, 120
3, 9060, Note_on_c, 9, 42, 120
3, 9085, Note_on_c, 9, 42, 0
3, 9085, Note_on_c, 9, 35, 0
3, 9120, Note_on_c, 9, 35, 120
3, 9120, Note_on_c, 9, 42, 120
3, 9145, Note_on_c, 9, 42, 0
3, 9145, Note_on_c, 9, 35, 0
3, 9180, Note_on_c, 9, 42, 120
3, 9205, Note_on_c, 9, 42, 0
3, 9240, Note_on_c, 9, 42, 120
3, 9240, Note_on_c, 9, 37, 120
3, 9265, Note_on_c, 9, 37, 0
3, 9265, Note_on_c, 9, 42, 0
3, 9300, Note_on_c, 9, 42, 120
3, 9325, Note_on_c, 9, 42, 0
3, 9360, Note_on_c, 9, 35, 120
3, 9360, Note_on_c, 9, 42, 120
3, 9385, Note_on_c, 9, 42, 0
3, 9385, Note_on_c, 9, 35, 0
3, 9420, Note_on_c, 9, 42, 120
3, 9445, Note_on_c, 9, 42, 0
3, 9480, Note_on_c, 9, 42, 120
3, 9480, Note_on_c, 9, 37, 120
3, 9505, Note_on_c, 9, 37, 0
3, 9505, Note_on_c, 9, 42, 0
3, 9540, Note_on_c, 9, 42, 120
3, 9565, Note_on_c, 9, 42, 0
3, 9600, Note_on_c, 9, 35, 120
3, 9600, Note_on_c, 9, 42, 120
3, 9625, Note_on_c, 9, 42, 0
3, 9625, Note_on_c, 9, 35, 0
3, 9660, Note_on_c, 9, 42, 120
3, 9685, Note_on_c, 9, 42, 0
3, 9720, Note_on_c, 9, 42, 120
3, 9720, Note_on_c, 9, 37, 120
3, 9745, Note_on_c, 9, 37, 0
3, 9745, Note_on_c, 9, 42, 0
3, 9780, Note_on_c, 9, 42, 120
3, 9805, Note_on_c, 9, 42, 0
3, 9840, Note_on_c, 9, 35, 120
3, 9840, Note_on_c, 9, 42, 120
3, 9865, Note_on_c, 9, 42, 0
3, 9865, Note_on_c, 9, 35, 0
3, 9900, Note_on_c, 9, 42, 120
3, 9925, Note_on_c, 9, 42, 0
3, 9960, Note_on_c, 9, 42, 120
3, 9960, Note_on_c, 9, 37, 120
3, 9985, Note_on_c, 9, 37, 0
3, 9985, Note_on_c, 9, 42, 0
3, 10020, Note_on_c, 9, 35, 120
3, 10020, Note_on_c, 9, 42, 120
3, 10045, Note_on_c, 9, 42, 0
3, 10045, Note_on_c, 9, 35, 0
3, 10080, Note_on_c, 9, 35, 120
3, 10080, Note_on_c, 9, 42, 120
3, 10105, Note_on_c, 9, 42, 0
3, 10105, Note_on_c, 9, 35, 0
3, 10140, Note_on_c, 9, 42, 120
3, 10165, Note_on_c, 9, 42, 0
3, 10200, Note_on_c, 9, 42, 120
3, 10200, Note_on_c, 9, 37, 120
3, 10225, Note_on_c, 9, 37, 0
3, 10225, Note_on_c, 9, 42, 0
3, 10260, Note_on_c, 9, 42, 120
3, 10285, Note_on_c, 9, 42, 0
3, 10320, Note_on_c, 9, 35, 120
3, 10320, Note_on_c, 9, 42, 120
3, 10345, Note_on_c, 9, 42, 0
3, 10345, Note_on_c, 9, 35, 0
3, 10380, Note_on_c, 9, 42, 120
3, 10405, Note_on_c, 9, 42, 0
3, 10440, Note_on_c, 9, 42, 120
3, 10440, Note_on_c, 9, 37, 120
3, 10465, Note_on_c, 9, 37, 0
3, 10465, Note_on_c, 9, 42, 0
3, 10500, Note_on_c, 9, 42, 120
3, 10525, Note_on_c, 9, 42, 0
3, 10560, Note_on_c, 9, 35, 120
3, 10560, Note_on_c, 9, 42, 120
3, 10585, Note_on_c, 9, 42, 0
3, 10585, Note_on_c, 9, 35, 0
3, 10680, Note_on_c, 9, 48, 120
3, 10705, Note_on_c, 9, 48, 0
3, 10740, Note_on_c, 9, 35, 120
3, 10765, Note_on_c, 9, 35, 0
3, 10800, Note_on_c, 9, 35, 120
3, 10800, Note_on_c, 9, 45, 120
3, 10825, Note_on_c, 9, 45, 0
3, 10825, Note_on_c, 9, 35, 0
3, 10860, Note_on_c, 9, 41, 120
3, 10885, Note_on_c, 9, 41, 0
3, 10920, Note_on_c, 9, 41, 120
3, 10945, Note_on_c, 9, 41, 0
3, 10980, Note_on_c, 9, 35, 120
3, 10980, Note_on_c, 9, 49, 120
3, 11005, Note_on_c, 9, 49, 0
3, 11005, Note_on_c, 9, 35, 0
3, 11040, Note_on_c, 9, 35, 120
3, 11040, Note_on_c, 9, 49, 120
3, 11065, Note_on_c, 9, 49, 0
3, 11065, Note_on_c, 9, 35, 0
3, 11100, Note_on_c, 9, 42, 120
3, 11125, Note_on_c, 9, 42, 0
3, 11160, Note_on_c, 9, 38, 120
3, 11160, Note_on_c, 9, 42, 120
3, 11185, Note_on_c, 9, 42, 0
3, 11185, Note_on_c, 9, 38, 0
3, 11220, Note_on_c, 9, 35, 120
3, 11220, Note_on_c, 9, 42, 120
3, 11245, Note_on_c, 9, 42, 0
3, 11245, Note_on_c, 9, 35, 0
3, 11280, Note_on_c, 9, 35, 120
3, 11280, Note_on_c, 9, 42, 120
3, 11305, Note_on_c, 9, 42, 0
3, 11305, Note_on_c, 9, 35, 0
3, 11340, Note_on_c, 9, 42, 120
3, 11365, Note_on_c, 9, 42, 0
3, 11400, Note_on_c, 9, 38, 120
3, 11400, Note_on_c, 9, 42, 120
3, 11425, Note_on_c, 9, 42, 0
3, 11425, Note_on_c, 9, 38, 0
3, 11460, Note_on_c, 9, 42, 120
3, 11485, Note_on_c, 9, 42, 0
3, 11520, Note_on_c, 9, 35, 120
3, 11520, Note_on_c, 9, 42, 120
3, 11545, Note_on_c, 9, 42, 0
3, 11545, Note_on_c, 9, 35, 0
3, 11580, Note_on_c, 9, 42, 120
3, 11605, Note_on_c, 9, 42, 0
3, 11640, Note_on_c, 9, 38, 120
3, 11640, Note_on_c, 9, 42, 120
3, 11665, Note_on_c, 9, 42, 0
3, 11665, Note_on_c, 9, 38, 0
3, 11700, Note_on_c, 9, 35, 120
3, 11700, Note_on_c, 9, 42, 120
3, 11725, Note_on_c, 9, 42, 0
3, 11725, Note_on_c, 9, 35, 0
3, 11760, Note_on_c, 9, 35, 120
3, 11760, Note_on_c, 9, 42, 120
3, 11785, Note_on_c, 9, 42, 0
3, 11785, Note_on_c, 9, 35, 0
3, 11820, Note_on_c, 9, 42, 120
3, 11845, Note_on_c, 9, 42, 0
3, 11880, Note_on_c, 9, 38, 120
3, 11880, Note_on_c, 9, 42, 120
3, 11905, Note_on_c, 9, 42, 0
3, 11905, Note_on_c, 9, 38, 0
3, 11940, Note_on_c, 9, 35, 120
3, 11940, Note_on_c, 9, 42, 120
3, 11965, Note_on_c, 9, 42, 0
3, 11965, Note_on_c, 9, 35, 0
3, 12000, Note_on_c, 9, 35, 120
3, 12000, Note_on_c, 9, 42, 120
3, 12025, Note_on_c, 9, 42, 0
3, 12025, Note_on_c, 9, 35, 0
3, 12060, Note_on_c, 9, 42, 120
3, 12085, Note_on_c, 9, 42, 0
3, 12120, Note_on_c, 9, 38, 120
3, 12120, Note_on_c, 9, 42, 120
3, 12145, Note_on_c, 9, 42, 0
3, 12145, Note_on_c, 9, 38, 0
3, 12180, Note_on_c, 9, 35, 120
3, 12180, Note_on_c, 9, 42, 120
3, 12205, Note_on_c, 9, 42, 0
3, 12205, Note_on_c, 9, 35, 0
3, 12240, Note_on_c, 9, 35, 120
3, 12240, Note_on_c, 9, 42, 120
3, 12265, Note_on_c, 9, 42, 0
3, 12265, Note_on_c, 9, 35, 0
3, 12300, Note_on_c, 9, 46, 120
3, 12325, Note_on_c, 9, 46, 0
3, 12360, Note_on_c, 9, 38, 120
3, 12360, Note_on_c, 9, 42, 120
3, 12385, Note_on_c, 9, 42, 0
3, 12385, Note_on_c, 9, 38, 0
3, 12420, Note_on_c, 9, 35, 120
3, 12420, Note_on_c, 9, 42, 120
3, 12445, Note_on_c, 9, 42, 0
3, 12445, Note_on_c, 9, 35, 0
3, 12480, Note_on_c, 9, 35, 120
3, 12480, Note_on_c, 9, 42, 120
3, 12505, Note_on_c, 9, 42, 0
3, 12505, Note_on_c, 9, 35, 0
3, 12540, Note_on_c, 9, 42, 120
3, 12565, Note_on_c, 9, 42, 0
3, 12600, Note_on_c, 9, 38, 120
3, 12625, Note_on_c, 9, 38, 0
3, 12660, Note_on_c, 9, 42, 120
3, 12685, Note_on_c, 9, 42, 0
3, 12720, Note_on_c, 9, 42, 120
3, 12745, Note_on_c, 9, 42, 0
3, 12780, Note_on_c, 9, 38, 120
3, 12805, Note_on_c, 9, 38, 0
3, 12840, Note_on_c, 9, 38, 120
3, 12865, Note_on_c, 9, 38, 0
3, 12900, Note_on_c, 9, 35, 120
3, 12900, Note_on_c, 9, 46, 120
3, 12925, Note_on_c, 9, 46, 0
3, 12925, Note_on_c, 9, 35, 0
3, 12960, Note_on_c, 9, 35, 120
3, 12960, Note_on_c, 9, 49, 120
3, 12985, Note_on_c, 9, 49, 0
3, 12985, Note_on_c, 9, 35, 0
3, 13020, Note_on_c, 9, 42, 120
3, 13045, Note_on_c, 9, 42, 0
3, 13080, Note_on_c, 9, 38, 120
3, 13080, Note_on_c, 9, 42, 120
3, 13105, Note_on_c, 9, 42, 0
3, 13105, Note_on_c, 9, 38, 0
3, 13140, Note_on_c, 9, 35, 120
3, 13140, Note_on_c, 9, 42, 120
3, 13165, Note_on_c, 9, 42, 0
3, 13165, Note_on_c, 9, 35, 0
3, 13200, Note_on_c, 9, 35, 120
3, 13200, Note_on_c, 9, 42, 120
3, 13225, Note_on_c, 9, 42, 0
3, 13225, Note_on_c, 9, 35, 0
3, 13260, Note_on_c, 9, 42, 120
3, 13285, Note_on_c, 9, 42, 0
3, 13320, Note_on_c, 9, 38, 120
3, 13320, Note_on_c, 9, 42, 120
3, 13345, Note_on_c, 9, 42, 0
3, 13345, Note_on_c, 9, 38, 0
3, 13380, Note_on_c, 9, 42, 120
3, 13405, Note_on_c, 9, 42, 0
3, 13440, Note_on_c, 9, 35, 120
3, 13440, Note_on_c, 9, 42, 120
3, 13465, Note_on_c, 9, 42, 0
3, 13465, Note_on_c, 9, 35, 0
3, 13500, Note_on_c, 9, 42, 120
3, 13525, Note_on_c, 9, 42, 0
3, 13560, Note_on_c, 9, 38, 120
3, 13560, Note_on_c, 9, 42, 120
3, 13585, Note_on_c, 9, 42, 0
3, 13585, Note_on_c, 9, 38, 0
3, 13620, Note_on_c, 9, 35, 120
3, 13620, Note_on_c, 9, 42, 120
3, 13645, Note_on_c, 9, 42, 0
3, 13645, Note_on_c, 9, 35, 0
3, 13680, Note_on_c, 9, 35, 120
3, 13680, Note_on_c, 9, 42, 120
3, 13705, Note_on_c, 9, 42, 0
3, 13705, Note_on_c, 9, 35, 0
3, 13740, Note_on_c, 9, 42, 120
3, 13765, Note_on_c, 9, 42, 0
3, 13800, Note_on_c, 9, 38, 120
3, 13800, Note_on_c, 9, 42, 120
3, 13825, Note_on_c, 9, 42, 0
3, 13825, Note_on_c, 9, 38, 0
3, 13860, Note_on_c, 9, 35, 120
3, 13860, Note_on_c, 9, 42, 120
3, 13885, Note_on_c, 9, 42, 0
3, 13885, Note_on_c, 9, 35, 0
3, 13890, Note_on_c, 9, 42, 120
3, 13915, Note_on_c, 9, 42, 0
3, 13920, Note_on_c, 9, 35, 120
3, 13920, Note_on_c, 9, 42, 120
3, 13945, Note_on_c, 9, 42, 0
3, 13945, Note_on_c, 9, 35, 0
3, 13980, Note_on_c, 9, 42, 120
3, 14005, Note_on_c, 9, 42, 0
3, 14040, Note_on_c, 9, 38, 120
3, 14040, Note_on_c, 9, 42, 120
3, 14065, Note_on_c, 9, 42, 0
3, 14065, Note_on_c, 9, 38, 0
3, 14100, Note_on_c, 9, 35, 120
3, 14100, Note_on_c, 9, 42, 120
3, 14125, Note_on_c, 9, 42, 0
3, 14125, Note_on_c, 9, 35, 0
3, 14160, Note_on_c, 9, 35, 120
3, 14160, Note_on_c, 9, 42, 120
3, 14185, Note_on_c, 9, 42, 0
3, 14185, Note_on_c, 9, 35, 0
3, 14220, Note_on_c, 9, 42, 120
3, 14245, Note_on_c, 9, 42, 0
3, 14280, Note_on_c, 9, 38, 120
3, 14280, Note_on_c, 9, 42, 120
3, 14305, Note_on_c, 9, 42, 0
3, 14305, Note_on_c, 9, 38, 0
3, 14340, Note_on_c, 9, 35, 120
3, 14340, Note_on_c, 9, 42, 120
3, 14365, Note_on_c, 9, 42, 0
3, 14365, Note_on_c, 9, 35, 0
3, 14400, Note_on_c, 9, 35, 120
3, 14400, Note_on_c, 9, 42, 120
3, 14425, Note_on_c, 9, 42, 0
3, 14425, Note_on_c, 9, 35, 0
3, 14460, Note_on_c, 9, 42, 120
3, 14485, Note_on_c, 9, 42, 0
3, 14520, Note_on_c, 9, 38, 120
3, 14520, Note_on_c, 9, 42, 120
3, 14545, Note_on_c, 9, 42, 0
3, 14545, Note_on_c, 9, 38, 0
3, 14580, Note_on_c, 9, 35, 120
3, 14580, Note_on_c, 9, 42, 120
3, 14605, Note_on_c, 9, 42, 0
3, 14605, Note_on_c, 9, 35, 0
3, 14640, Note_on_c, 9, 35, 120
3, 14640, Note_on_c, 9, 42, 120
3, 14665, Note_on_c, 9, 42, 0
3, 14665, Note_on_c, 9, 35, 0
3, 14700, Note_on_c, 9, 42, 120
3, 14725, Note_on_c, 9, 42, 0
3, 14760, Note_on_c, 9, 38, 120
3, 14760, Note_on_c, 9, 42, 120
3, 14785, Note_on_c, 9, 42, 0
3, 14785, Note_on_c, 9, 38, 0
3, 14820, Note_on_c, 9, 35, 120
3, 14820, Note_on_c, 9, 42, 120
3, 14845, Note_on_c, 9, 42, 0
3, 14845, Note_on_c, 9, 35, 0
3, 14850, Note_on_c, 9, 42, 120
3, 14875, Note_on_c, 9, 42, 0
3, 14880, Note_on_c, 9, 35, 120
3, 14880, Note_on_c, 9, 42, 120
3, 14905, Note_on_c, 9, 42, 0
3, 14905, Note_on_c, 9, 35, 0
3, 14940, Note_on_c, 9, 42, 120
3, 14965, Note_on_c, 9, 42, 0
3, 15000, Note_on_c, 9, 38, 120
3, 15000, Note_on_c, 9, 42, 120
3, 15025, Note_on_c, 9, 42, 0
3, 15025, Note_on_c, 9, 38, 0
3, 15060, Note_on_c, 9, 35, 120
3, 15060, Note_on_c, 9, 42, 120
3, 15085, Note_on_c, 9, 42, 0
3, 15085, Note_on_c, 9, 35, 0
3, 15120, Note_on_c, 9, 35, 120
3, 15120, Note_on_c, 9, 42, 120
3, 15145, Note_on_c, 9, 42, 0
3, 15145, Note_on_c, 9, 35, 0
3, 15180, Note_on_c, 9, 42, 120
3, 15205, Note_on_c, 9, 42, 0
3, 15240, Note_on_c, 9, 38, 120
3, 15240, Note_on_c, 9, 42, 120
3, 15265, Note_on_c, 9, 42, 0
3, 15265, Note_on_c, 9, 38, 0
3, 15300, Note_on_c, 9, 35, 120
3, 15300, Note_on_c, 9, 42, 120
3, 15325, Note_on_c, 9, 42, 0
3, 15325, Note_on_c, 9, 35, 0
3, 15360, Note_on_c, 9, 35, 120
3, 15360, Note_on_c, 9, 42, 120
3, 15385, Note_on_c, 9, 42, 0
3, 15385, Note_on_c, 9, 35, 0
3, 15420, Note_on_c, 9, 42, 120
3, 15445, Note_on_c, 9, 42, 0
3, 15480, Note_on_c, 9, 38, 120
3, 15480, Note_on_c, 9, 42, 120
3, 15505, Note_on_c, 9, 42, 0
3, 15505, Note_on_c, 9, 38, 0
3, 15540, Note_on_c, 9, 35, 120
3, 15540, Note_on_c, 9, 42, 120
3, 15565, Note_on_c, 9, 42, 0
3, 15565, Note_on_c, 9, 35, 0
3, 15600, Note_on_c, 9, 35, 120
3, 15600, Note_on_c, 9, 42, 120
3, 15625, Note_on_c, 9, 42, 0
3, 15625, Note_on_c, 9, 35, 0
3, 15660, Note_on_c, 9, 42, 120
3, 15685, Note_on_c, 9, 42, 0
3, 15720, Note_on_c, 9, 38, 120
3, 15720, Note_on_c, 9, 42, 120
3, 15745, Note_on_c, 9, 42, 0
3, 15745, Note_on_c, 9, 38, 0
3, 15780, Note_on_c, 9, 35, 120
3, 15780, Note_on_c, 9, 42, 120
3, 15805, Note_on_c, 9, 42, 0
3, 15805, Note_on_c, 9, 35, 0
3, 15810, Note_on_c, 9, 42, 120
3, 15835, Note_on_c, 9, 42, 0
3, 15840, Note_on_c, 9, 35, 120
3, 15840, Note_on_c, 9, 42, 120
3, 15865, Note_on_c, 9, 42, 0
3, 15865, Note_on_c, 9, 35, 0
3, 15900, Note_on_c, 9, 42, 120
3, 15925, Note_on_c, 9, 42, 0
3, 15960, Note_on_c, 9, 38, 120
3, 15960, Note_on_c, 9, 42, 120
3, 15985, Note_on_c, 9, 42, 0
3, 15985, Note_on_c, 9, 38, 0
3, 16020, Note_on_c, 9, 35, 120
3, 16020, Note_on_c, 9, 42, 120
3, 16045, Note_on_c, 9, 42, 0
3, 16045, Note_on_c, 9, 35, 0
3, 16080, Note_on_c, 9, 35, 120
3, 16080, Note_on_c, 9, 42, 120
3, 16105, Note_on_c, 9, 42, 0
3, 16105, Note_on_c, 9, 35, 0
3, 16140, Note_on_c, 9, 42, 120
3, 16165, Note_on_c, 9, 42, 0
3, 16200, Note_on_c, 9, 38, 120
3, 16200, Note_on_c, 9, 42, 120
3, 16225, Note_on_c, 9, 42, 0
3, 16225, Note_on_c, 9, 38, 0
3, 16260, Note_on_c, 9, 35, 120
3, 16260, Note_on_c, 9, 42, 120
3, 16285, Note_on_c, 9, 42, 0
3, 16285, Note_on_c, 9, 35, 0
3, 16290, Note_on_c, 9, 42, 120
3, 16315, Note_on_c, 9, 42, 0
3, 16320, Note_on_c, 9, 35, 120
3, 16320, Note_on_c, 9, 42, 120
3, 16345, Note_on_c, 9, 42, 0
3, 16345, Note_on_c, 9, 35, 0
3, 16380, Note_on_c, 9, 42, 120
3, 16405, Note_on_c, 9, 42, 0
3, 16440, Note_on_c, 9, 38, 120
3, 16440, Note_on_c, 9, 42, 120
3, 16465, Note_on_c, 9, 42, 0
3, 16465, Note_on_c, 9, 38, 0
3, 16500, Note_on_c, 9, 35, 120
3, 16500, Note_on_c, 9, 42, 120
3, 16525, Note_on_c, 9, 42, 0
3, 16525, Note_on_c, 9, 35, 0
3, 16560, Note_on_c, 9, 35, 120
3, 16560, Note_on_c, 9, 42, 120
3, 16585, Note_on_c, 9, 42, 0
3, 16585, Note_on_c, 9, 35, 0
3, 16620, Note_on_c, 9, 42, 120
3, 16645, Note_on_c, 9, 42, 0
3, 16680, Note_on_c, 9, 38, 120
3, 16680, Note_on_c, 9, 42, 120
3, 16705, Note_on_c, 9, 42, 0
3, 16705, Note_on_c, 9, 38, 0
3, 16740, Note_on_c, 9, 35, 120
3, 16740, Note_on_c, 9, 42, 120
3, 16765, Note_on_c, 9, 42, 0
3, 16765, Note_on_c, 9, 35, 0
3, 16770, Note_on_c, 9, 42, 120
3, 16795, Note_on_c, 9, 42, 0
3, 16800, Note_on_c, 9, 35, 120
3, 16800, Note_on_c, 9, 42, 120
3, 16825, Note_on_c, 9, 42, 0
3, 16825, Note_on_c, 9, 35, 0
3, 16860, Note_on_c, 9, 42, 120
3, 16885, Note_on_c, 9, 42, 0
3, 16920, Note_on_c, 9, 38, 120
3, 16920, Note_on_c, 9, 42, 120
3, 16945, Note_on_c, 9, 42, 0
3, 16945, Note_on_c, 9, 38, 0
3, 16980, Note_on_c, 9, 35, 120
3, 16980, Note_on_c, 9, 42, 120
3, 17005, Note_on_c, 9, 42, 0
3, 17005, Note_on_c, 9, 35, 0
3, 17040, Note_on_c, 9, 35, 120
3, 17040, Note_on_c, 9, 42, 120
3, 17065, Note_on_c, 9, 42, 0
3, 17065, Note_on_c, 9, 35, 0
3, 17100, Note_on_c, 9, 42, 120
3, 17125, Note_on_c, 9, 42, 0
3, 17160, Note_on_c, 9, 38, 120
3, 17160, Note_on_c, 9, 42, 120
3, 17185, Note_on_c, 9, 42, 0
3, 17185, Note_on_c, 9, 38, 0
3, 17220, Note_on_c, 9, 35, 120
3, 17220, Note_on_c, 9, 42, 120
3, 17245, Note_on_c, 9, 42, 0
3, 17245, Note_on_c, 9, 35, 0
3, 17280, Note_on_c, 9, 35, 120
3, 17280, Note_on_c, 9, 42, 120
3, 17305, Note_on_c, 9, 42, 0
3, 17305, Note_on_c, 9, 35, 0
3, 17340, Note_on_c, 9, 42, 120
3, 17365, Note_on_c, 9, 42, 0
3, 17400, Note_on_c, 9, 38, 120
3, 17400, Note_on_c, 9, 42, 120
3, 17425, Note_on_c, 9, 42, 0
3, 17425, Note_on_c, 9, 38, 0
3, 17460, Note_on_c, 9, 35, 120
3, 17460, Note_on_c, 9, 42, 120
3, 17485, Note_on_c, 9, 42, 0
3, 17485, Note_on_c, 9, 35, 0
3, 17520, Note_on_c, 9, 35, 120
3, 17520, Note_on_c, 9, 42, 120
3, 17545, Note_on_c, 9, 42, 0
3, 17545, Note_on_c, 9, 35, 0
3, 17580, Note_on_c, 9, 42, 120
3, 17605, Note_on_c, 9, 42, 0
3, 17640, Note_on_c, 9, 38, 120
3, 17640, Note_on_c, 9, 42, 120
3, 17665, Note_on_c, 9, 42, 0
3, 17665, Note_on_c, 9, 38, 0
3, 17700, Note_on_c, 9, 35, 120
3, 17700, Note_on_c, 9, 42, 120
3, 17725, Note_on_c, 9, 42, 0
3, 17725, Note_on_c, 9, 35, 0
3, 17760, Note_on_c, 9, 35, 120
3, 17760, Note_on_c, 9, 42, 120
3, 17785, Note_on_c, 9, 42, 0
3, 17785, Note_on_c, 9, 35, 0
3, 17820, Note_on_c, 9, 42, 120
3, 17845, Note_on_c, 9, 42, 0
3, 17880, Note_on_c, 9, 38, 120
3, 17880, Note_on_c, 9, 42, 120
3, 17905, Note_on_c, 9, 42, 0
3, 17905, Note_on_c, 9, 38, 0
3, 17940, Note_on_c, 9, 35, 120
3, 17940, Note_on_c, 9, 42, 120
3, 17965, Note_on_c, 9, 42, 0
3, 17965, Note_on_c, 9, 35, 0
3, 18000, Note_on_c, 9, 35, 120
3, 18000, Note_on_c, 9, 42, 120
3, 18025, Note_on_c, 9, 42, 0
3, 18025, Note_on_c, 9, 35, 0
3, 18060, Note_on_c, 9, 42, 120
3, 18085, Note_on_c, 9, 42, 0
3, 18120, Note_on_c, 9, 38, 120
3, 18120, Note_on_c, 9, 42, 120
3, 18145, Note_on_c, 9, 42, 0
3, 18145, Note_on_c, 9, 38, 0
3, 18180, Note_on_c, 9, 35, 120
3, 18180, Note_on_c, 9, 42, 120
3, 18205, Note_on_c, 9, 42, 0
3, 18205, Note_on_c, 9, 35, 0
3, 18210, Note_on_c, 9, 42, 120
3, 18235, Note_on_c, 9, 42, 0
3, 18240, Note_on_c, 9, 35, 120
3, 18240, Note_on_c, 9, 42, 120
3, 18265, Note_on_c, 9, 42, 0
3, 18265, Note_on_c, 9, 35, 0
3, 18300, Note_on_c, 9, 46, 120
3, 18325, Note_on_c, 9, 46, 0
3, 18360, Note_on_c, 9, 38, 120
3, 18360, Note_on_c, 9, 42, 120
3, 18385, Note_on_c, 9, 42, 0
3, 18385, Note_on_c, 9, 38, 0
3, 18420, Note_on_c, 9, 35, 120
3, 18420, Note_on_c, 9, 42, 120
3, 18445, Note_on_c, 9, 42, 0
3, 18445, Note_on_c, 9, 35, 0
3, 18480, Note_on_c, 9, 35, 120
3, 18480, Note_on_c, 9, 42, 120
3, 18505, Note_on_c, 9, 42, 0
3, 18505, Note_on_c, 9, 35, 0
3, 18540, Note_on_c, 9, 42, 120
3, 18565, Note_on_c, 9, 42, 0
3, 18600, Note_on_c, 9, 38, 120
3, 18600, Note_on_c, 9, 42, 120
3, 18625, Note_on_c, 9, 42, 0
3, 18625, Note_on_c, 9, 38, 0
3, 18660, Note_on_c, 9, 35, 120
3, 18660, Note_on_c, 9, 42, 120
3, 18685, Note_on_c, 9, 42, 0
3, 18685, Note_on_c, 9, 35, 0
3, 18720, Note_on_c, 9, 35, 120
3, 18720, Note_on_c, 9, 42, 120
3, 18745, Note_on_c, 9, 42, 0
3, 18745, Note_on_c, 9, 35, 0
3, 18780, Note_on_c, 9, 42, 120
3, 18805, Note_on_c, 9, 42, 0
3, 18840, Note_on_c, 9, 38, 120
3, 18840, Note_on_c, 9, 42, 120
3, 18865, Note_on_c, 9, 42, 0
3, 18865, Note_on_c, 9, 38, 0
3, 18900, Note_on_c, 9, 35, 120
3, 18900, Note_on_c, 9, 42, 120
3, 18925, Note_on_c, 9, 42, 0
3, 18925, Note_on_c, 9, 35, 0
3, 18960, Note_on_c, 9, 35, 120
3, 18960, Note_on_c, 9, 42, 120
3, 18985, Note_on_c, 9, 42, 0
3, 18985, Note_on_c, 9, 35, 0
3, 19020, Note_on_c, 9, 42, 120
3, 19045, Note_on_c, 9, 42, 0
3, 19080, Note_on_c, 9, 38, 120
3, 19080, Note_on_c, 9, 42, 120
3, 19105, Note_on_c, 9, 42, 0
3, 19105, Note_on_c, 9, 38, 0
3, 19140, Note_on_c, 9, 35, 120
3, 19140, Note_on_c, 9, 42, 120
3, 19165, Note_on_c, 9, 42, 0
3, 19165, Note_on_c, 9, 35, 0
3, 19200, Note_on_c, 9, 35, 120
3, 19200, Note_on_c, 9, 42, 120
3, 19225, Note_on_c, 9, 42, 0
3, 19225, Note_on_c, 9, 35, 0
3, 19260, Note_on_c, 9, 42, 120
3, 19285, Note_on_c, 9, 42, 0
3, 19320, Note_on_c, 9, 38, 120
3, 19320, Note_on_c, 9, 42, 120
3, 19345, Note_on_c, 9, 42, 0
3, 19345, Note_on_c, 9, 38, 0
3, 19380, Note_on_c, 9, 35, 120
3, 19380, Note_on_c, 9, 42, 120
3, 19405, Note_on_c, 9, 42, 0
3, 19405, Note_on_c, 9, 35, 0
3, 19440, Note_on_c, 9, 35, 120
3, 19440, Note_on_c, 9, 42, 120
3, 19465, Note_on_c, 9, 42, 0
3, 19465, Note_on_c, 9, 35, 0
3, 19500, Note_on_c, 9, 42, 120
3, 19525, Note_on_c, 9, 42, 0
3, 19560, Note_on_c, 9, 38, 120
3, 19560, Note_on_c, 9, 42, 120
3, 19585, Note_on_c, 9, 42, 0
3, 19585, Note_on_c, 9, 38, 0
3, 19620, Note_on_c, 9, 35, 120
3, 19620, Note_on_c, 9, 42, 120
3, 19645, Note_on_c, 9, 42, 0
3, 19645, Note_on_c, 9, 35, 0
3, 19650, Note_on_c, 9, 42, 120
3, 19675, Note_on_c, 9, 42, 0
3, 19680, Note_on_c, 9, 35, 120
3, 19680, Note_on_c, 9, 42, 120
3, 19705, Note_on_c, 9, 42, 0
3, 19705, Note_on_c, 9, 35, 0
3, 19740, Note_on_c, 9, 42, 120
3, 19765, Note_on_c, 9, 42, 0
3, 19800, Note_on_c, 9, 38, 120
3, 19800, Note_on_c, 9, 42, 120
3, 19825, Note_on_c, 9, 42, 0
3, 19825, Note_on_c, 9, 38, 0
3, 19860, Note_on_c, 9, 35, 120
3, 19860, Note_on_c, 9, 42, 120
3, 19885, Note_on_c, 9, 42, 0
3, 19885, Note_on_c, 9, 35, 0
3, 19920, Note_on_c, 9, 35, 120
3, 19920, Note_on_c, 9, 42, 120
3, 19945, Note_on_c, 9, 42, 0
3, 19945, Note_on_c, 9, 35, 0
3, 19980, Note_on_c, 9, 42, 120
3, 20005, Note_on_c, 9, 42, 0
3, 20040, Note_on_c, 9, 38, 120
3, 20040, Note_on_c, 9, 42, 120
3, 20065, Note_on_c, 9, 42, 0
3, 20065, Note_on_c, 9, 38, 0
3, 20100, Note_on_c, 9, 35, 120
3, 20100, Note_on_c, 9, 42, 120
3, 20125, Note_on_c, 9, 42, 0
3, 20125, Note_on_c, 9, 35, 0
3, 20130, Note_on_c, 9, 42, 120
3, 20155, Note_on_c, 9, 42, 0
3, 20160, Note_on_c, 9, 35, 120
3, 20160, Note_on_c, 9, 42, 120
3, 20185, Note_on_c, 9, 42, 0
3, 20185, Note_on_c, 9, 35, 0
3, 20220, Note_on_c, 9, 42, 120
3, 20245, Note_on_c, 9, 42, 0
3, 20280, Note_on_c, 9, 38, 120
3, 20305, Note_on_c, 9, 38, 0
3, 20340, Note_on_c, 9, 42, 120
3, 20365, Note_on_c, 9, 42, 0
3, 20400, Note_on_c, 9, 42, 120
3, 20425, Note_on_c, 9, 42, 0
3, 20460, Note_on_c, 9, 38, 120
3, 20485, Note_on_c, 9, 38, 0
3, 20520, Note_on_c, 9, 38, 120
3, 20545, Note_on_c, 9, 38, 0
3, 20580, Note_on_c, 9, 35, 120
3, 20580, Note_on_c, 9, 46, 120
3, 20605, Note_on_c, 9, 46, 0
3, 20605, Note_on_c, 9, 35, 0
3, 20640, Note_on_c, 9, 35, 120
3, 20640, Note_on_c, 9, 49, 120
3, 20665, Note_on_c, 9, 49, 0
3, 20665, Note_on_c, 9, 35, 0
3, 20700, Note_on_c, 9, 42, 120
3, 20725, Note_on_c, 9, 42, 0
3, 20760, Note_on_c, 9, 38, 120
3, 20760, Note_on_c, 9, 42, 120
3, 20785, Note_on_c, 9, 42, 0
3, 20785, Note_on_c, 9, 38, 0
3, 20820, Note_on_c, 9, 35, 120
3, 20820, Note_on_c, 9, 42, 120
3, 20845, Note_on_c, 9, 42, 0
3, 20845, Note_on_c, 9, 35, 0
3, 20880, Note_on_c, 9, 35, 120
3, 20880, Note_on_c, 9, 42, 120
3, 20905, Note_on_c, 9, 42, 0
3, 20905, Note_on_c, 9, 35, 0
3, 20940, Note_on_c, 9, 42, 120
3, 20965, Note_on_c, 9, 42, 0
3, 21000, Note_on_c, 9, 38, 120
3, 21000, Note_on_c, 9, 42, 120
3, 21025, Note_on_c, 9, 42, 0
3, 21025, Note_on_c, 9, 38, 0
3, 21060, Note_on_c, 9, 42, 120
3, 21085, Note_on_c, 9, 42, 0
3, 21120, Note_on_c, 9, 35, 120
3, 21120, Note_on_c, 9, 42, 120
3, 21145, Note_on_c, 9, 42, 0
3, 21145, Note_on_c, 9, 35, 0
3, 21180, Note_on_c, 9, 46, 120
3, 21205, Note_on_c, 9, 46, 0
3, 21240, Note_on_c, 9, 38, 120
3, 21240, Note_on_c, 9, 42, 120
3, 21265, Note_on_c, 9, 42, 0
3, 21265, Note_on_c, 9, 38, 0
3, 21300, Note_on_c, 9, 35, 120
3, 21300, Note_on_c, 9, 42, 120
3, 21325, Note_on_c, 9, 42, 0
3, 21325, Note_on_c, 9, 35, 0
3, 21360, Note_on_c, 9, 35, 120
3, 21360, Note_on_c, 9, 42, 120
3, 21385, Note_on_c, 9, 42, 0
3, 21385, Note_on_c, 9, 35, 0
3, 21420, Note_on_c, 9, 42, 120
3, 21445, Note_on_c, 9, 42, 0
3, 21480, Note_on_c, 9, 38, 120
3, 21480, Note_on_c, 9, 42, 120
3, 21505, Note_on_c, 9, 42, 0
3, 21505, Note_on_c, 9, 38, 0
3, 21540, Note_on_c, 9, 35, 120
3, 21540, Note_on_c, 9, 42, 120
3, 21565, Note_on_c, 9, 42, 0
3, 21565, Note_on_c, 9, 35, 0
3, 21600, Note_on_c, 9, 35, 120
3, 21600, Note_on_c, 9, 42, 120
3, 21625, Note_on_c, 9, 42, 0
3, 21625, Note_on_c, 9, 35, 0
3, 21660, Note_on_c, 9, 42, 120
3, 21685, Note_on_c, 9, 42, 0
3, 21720, Note_on_c, 9, 38, 120
3, 21720, Note_on_c, 9, 42, 120
3, 21745, Note_on_c, 9, 42, 0
3, 21745, Note_on_c, 9, 38, 0
3, 21780, Note_on_c, 9, 35, 120
3, 21780, Note_on_c, 9, 42, 120
3, 21805, Note_on_c, 9, 42, 0
3, 21805, Note_on_c, 9, 35, 0
3, 21840, Note_on_c, 9, 35, 120
3, 21840, Note_on_c, 9, 42, 120
3, 21865, Note_on_c, 9, 42, 0
3, 21865, Note_on_c, 9, 35, 0
3, 21900, Note_on_c, 9, 42, 120
3, 21925, Note_on_c, 9, 42, 0
3, 21960, Note_on_c, 9, 38, 120
3, 21960, Note_on_c, 9, 42, 120
3, 21985, Note_on_c, 9, 42, 0
3, 21985, Note_on_c, 9, 38, 0
3, 22020, Note_on_c, 9, 35, 120
3, 22020, Note_on_c, 9, 42, 120
3, 22045, Note_on_c, 9, 42, 0
3, 22045, Note_on_c, 9, 35, 0
3, 22050, Note_on_c, 9, 42, 120
3, 22075, Note_on_c, 9, 42, 0
3, 22080, Note_on_c, 9, 35, 120
3, 22080, Note_on_c, 9, 42, 120
3, 22105, Note_on_c, 9, 42, 0
3, 22105, Note_on_c, 9, 35, 0
3, 22140, Note_on_c, 9, 42, 120
3, 22165, Note_on_c, 9, 42, 0
3, 22200, Note_on_c, 9, 38, 120
3, 22225, Note_on_c, 9, 38, 0
3, 22260, Note_on_c, 9, 42, 120
3, 22285, Note_on_c, 9, 42, 0
3, 22320, Note_on_c, 9, 42, 120
3, 22345, Note_on_c, 9, 42, 0
3, 22380, Note_on_c, 9, 38, 120
3, 22405, Note_on_c, 9, 38, 0
3, 22440, Note_on_c, 9, 38, 120
3, 22465, Note_on_c, 9, 38, 0
3, 22500, Note_on_c, 9, 35, 120
3, 22500, Note_on_c, 9, 46, 120
3, 22525, Note_on_c, 9, 46, 0
3, 22525, Note_on_c, 9, 35, 0
3, 22560, Note_on_c, 9, 35, 120
3, 22560, Note_on_c, 9, 49, 120
3, 22585, Note_on_c, 9, 49, 0
3, 22585, Note_on_c, 9, 35, 0
3, 22620, Note_on_c, 9, 42, 120
3, 22645, Note_on_c, 9, 42, 0
3, 22680, Note_on_c, 9, 38, 120
3, 22680, Note_on_c, 9, 42, 120
3, 22705, Note_on_c, 9, 42, 0
3, 22705, Note_on_c, 9, 38, 0
3, 22740, Note_on_c, 9, 35, 120
3, 22740, Note_on_c, 9, 42, 120
3, 22765, Note_on_c, 9, 42, 0
3, 22765, Note_on_c, 9, 35, 0
3, 22800, Note_on_c, 9, 35, 120
3, 22800, Note_on_c, 9, 42, 120
3, 22825, Note_on_c, 9, 42, 0
3, 22825, Note_on_c, 9, 35, 0
3, 22860, Note_on_c, 9, 42, 120
3, 22885, Note_on_c, 9, 42, 0
3, 22920, Note_on_c, 9, 38, 120
3, 22920, Note_on_c, 9, 42, 120
3, 22945, Note_on_c, 9, 42, 0
3, 22945, Note_on_c, 9, 38, 0
3, 22980, Note_on_c, 9, 42, 120
3, 23005, Note_on_c, 9, 42, 0
3, 23040, Note_on_c, 9, 35, 120
3, 23040, Note_on_c, 9, 42, 120
3, 23065, Note_on_c, 9, 42, 0
3, 23065, Note_on_c, 9, 35, 0
3, 23100, Note_on_c, 9, 42, 120
3, 23125, Note_on_c, 9, 42, 0
3, 23160, Note_on_c, 9, 38, 120
3, 23160, Note_on_c, 9, 42, 120
3, 23185, Note_on_c, 9, 42, 0
3, 23185, Note_on_c, 9, 38, 0
3, 23220, Note_on_c, 9, 35, 120
3, 23220, Note_on_c, 9, 42, 120
3, 23245, Note_on_c, 9, 42, 0
3, 23245, Note_on_c, 9, 35, 0
3, 23280, Note_on_c, 9, 35, 120
3, 23280, Note_on_c, 9, 42, 120
3, 23305, Note_on_c, 9, 42, 0
3, 23305, Note_on_c, 9, 35, 0
3, 23340, Note_on_c, 9, 42, 120
3, 23365, Note_on_c, 9, 42, 0
3, 23400, Note_on_c, 9, 38, 120
3, 23400, Note_on_c, 9, 42, 120
3, 23425, Note_on_c, 9, 42, 0
3, 23425, Note_on_c, 9, 38, 0
3, 23460, Note_on_c, 9, 35, 120
3, 23460, Note_on_c, 9, 42, 120
3, 23485, Note_on_c, 9, 42, 0
3, 23485, Note_on_c, 9, 35, 0
3, 23490, Note_on_c, 9, 42, 120
3, 23515, Note_on_c, 9, 42, 0
3, 23520, Note_on_c, 9, 35, 120
3, 23520, Note_on_c, 9, 42, 120
3, 23545, Note_on_c, 9, 42, 0
3, 23545, Note_on_c, 9, 35, 0
3, 23580, Note_on_c, 9, 42, 120
3, 23605, Note_on_c, 9, 42, 0
3, 23640, Note_on_c, 9, 38, 120
3, 23640, Note_on_c, 9, 42, 120
3, 23665, Note_on_c, 9, 42, 0
3, 23665, Note_on_c, 9, 38, 0
3, 23700, Note_on_c, 9, 35, 120
3, 23700, Note_on_c, 9, 42, 120
3, 23725, Note_on_c, 9, 42, 0
3, 23725, Note_on_c, 9, 35, 0
3, 23760, Note_on_c, 9, 35, 120
3, 23760, Note_on_c, 9, 42, 120
3, 23785, Note_on_c, 9, 42, 0
3, 23785, Note_on_c, 9, 35, 0
3, 23820, Note_on_c, 9, 42, 120
3, 23845, Note_on_c, 9, 42, 0
3, 23880, Note_on_c, 9, 38, 120
3, 23880, Note_on_c, 9, 42, 120
3, 23905, Note_on_c, 9, 42, 0
3, 23905, Note_on_c, 9, 38, 0
3, 23940, Note_on_c, 9, 35, 120
3, 23940, Note_on_c, 9, 42, 120
3, 23965, Note_on_c, 9, 42, 0
3, 23965, Note_on_c, 9, 35, 0
3, 23970, Note_on_c, 9, 42, 120
3, 23995, Note_on_c, 9, 42, 0
3, 24000, Note_on_c, 9, 35, 120
3, 24000, Note_on_c, 9, 42, 120
3, 24025, Note_on_c, 9, 42, 0
3, 24025, Note_on_c, 9, 35, 0
3, 24060, Note_on_c, 9, 42, 120
3, 24085, Note_on_c, 9, 42, 0
3, 24120, Note_on_c, 9, 38, 120
3, 24120, Note_on_c, 9, 42, 120
3, 24145, Note_on_c, 9, 42, 0
3, 24145, Note_on_c, 9, 38, 0
3, 24180, Note_on_c, 9, 35, 120
3, 24180, Note_on_c, 9, 42, 120
3, 24205, Note_on_c, 9, 42, 0
3, 24205, Note_on_c, 9, 35, 0
3, 24240, Note_on_c, 9, 35, 120
3, 24240, Note_on_c, 9, 42, 120
3, 24265, Note_on_c, 9, 42, 0
3, 24265, Note_on_c, 9, 35, 0
3, 24300, Note_on_c, 9, 42, 120
3, 24325, Note_on_c, 9, 42, 0
3, 24360, Note_on_c, 9, 38, 120
3, 24360, Note_on_c, 9, 42, 120
3, 24385, Note_on_c, 9, 42, 0
3, 24385, Note_on_c, 9, 38, 0
3, 24420, Note_on_c, 9, 35, 120
3, 24420, Note_on_c, 9, 42, 120
3, 24445, Note_on_c, 9, 42, 0
3, 24445, Note_on_c, 9, 35, 0
3, 24480, Note_on_c, 9, 35, 120
3, 24480, Note_on_c, 9, 42, 120
3, 24505, Note_on_c, 9, 42, 0
3, 24505, Note_on_c, 9, 35, 0
3, 24540, Note_on_c, 9, 42, 120
3, 24565, Note_on_c, 9, 42, 0
3, 24600, Note_on_c, 9, 38, 120
3, 24600, Note_on_c, 9, 42, 120
3, 24625, Note_on_c, 9, 42, 0
3, 24625, Note_on_c, 9, 38, 0
3, 24660, Note_on_c, 9, 35, 120
3, 24660, Note_on_c, 9, 42, 120
3, 24685, Note_on_c, 9, 42, 0
3, 24685, Note_on_c, 9, 35, 0
3, 24720, Note_on_c, 9, 35, 120
3, 24720, Note_on_c, 9, 42, 120
3, 24745, Note_on_c, 9, 42, 0
3, 24745, Note_on_c, 9, 35, 0
3, 24780, Note_on_c, 9, 42, 120
3, 24805, Note_on_c, 9, 42, 0
3, 24840, Note_on_c, 9, 38, 120
3, 24840, Note_on_c, 9, 42, 120
3, 24865, Note_on_c, 9, 42, 0
3, 24865, Note_on_c, 9, 38, 0
3, 24900, Note_on_c, 9, 35, 120
3, 24900, Note_on_c, 9, 42, 120
3, 24925, Note_on_c, 9, 42, 0
3, 24925, Note_on_c, 9, 35, 0
3, 24930, Note_on_c, 9, 42, 120
3, 24955, Note_on_c, 9, 42, 0
3, 24960, Note_on_c, 9, 35, 120
3, 24960, Note_on_c, 9, 42, 120
3, 24985, Note_on_c, 9, 42, 0
3, 24985, Note_on_c, 9, 35, 0
3, 25020, Note_on_c, 9, 42, 120
3, 25045, Note_on_c, 9, 42, 0
3, 25080, Note_on_c, 9, 38, 120
3, 25080, Note_on_c, 9, 42, 120
3, 25105, Note_on_c, 9, 42, 0
3, 25105, Note_on_c, 9, 38, 0
3, 25140, Note_on_c, 9, 35, 120
3, 25140, Note_on_c, 9, 42, 120
3, 25165, Note_on_c, 9, 42, 0
3, 25165, Note_on_c, 9, 35, 0
3, 25200, Note_on_c, 9, 35, 120
3, 25200, Note_on_c, 9, 42, 120
3, 25225, Note_on_c, 9, 42, 0
3, 25225, Note_on_c, 9, 35, 0
3, 25260, Note_on_c, 9, 42, 120
3, 25285, Note_on_c, 9, 42, 0
3, 25320, Note_on_c, 9, 38, 120
3, 25320, Note_on_c, 9, 42, 120
3, 25345, Note_on_c, 9, 42, 0
3, 25345, Note_on_c, 9, 38, 0
3, 25380, Note_on_c, 9, 35, 120
3, 25380, Note_on_c, 9, 42, 120
3, 25405, Note_on_c, 9, 42, 0
3, 25405, Note_on_c, 9, 35, 0
3, 25410, Note_on_c, 9, 42, 120
3, 25435, Note_on_c, 9, 42, 0
3, 25440, Note_on_c, 9, 35, 120
3, 25440, Note_on_c, 9, 42, 120
3, 25465, Note_on_c, 9, 42, 0
3, 25465, Note_on_c, 9, 35, 0
3, 25500, Note_on_c, 9, 42, 120
3, 25525, Note_on_c, 9, 42, 0
3, 25560, Note_on_c, 9, 38, 120
3, 25560, Note_on_c, 9, 42, 120
3, 25585, Note_on_c, 9, 42, 0
3, 25585, Note_on_c, 9, 38, 0
3, 25620, Note_on_c, 9, 35, 120
3, 25620, Note_on_c, 9, 42, 120
3, 25645, Note_on_c, 9, 42, 0
3, 25645, Note_on_c, 9, 35, 0
3, 25680, Note_on_c, 9, 35, 120
3, 25680, Note_on_c, 9, 42, 120
3, 25705, Note_on_c, 9, 42, 0
3, 25705, Note_on_c, 9, 35, 0
3, 25740, Note_on_c, 9, 46, 120
3, 25765, Note_on_c, 9, 46, 0
3, 25800, Note_on_c, 9, 38, 120
3, 25800, Note_on_c, 9, 42, 120
3, 25825, Note_on_c, 9, 42, 0
3, 25825, Note_on_c, 9, 38, 0
3, 25860, Note_on_c, 9, 35, 120
3, 25860, Note_on_c, 9, 42, 120
3, 25885, Note_on_c, 9, 42, 0
3, 25885, Note_on_c, 9, 35, 0
3, 25920, Note_on_c, 9, 35, 120
3, 25920, Note_on_c, 9, 42, 120
3, 25945, Note_on_c, 9, 42, 0
3, 25945, Note_on_c, 9, 35, 0
3, 25980, Note_on_c, 9, 42, 120
3, 26005, Note_on_c, 9, 42, 0
3, 26040, Note_on_c, 9, 38, 120
3, 26040, Note_on_c, 9, 42, 120
3, 26065, Note_on_c, 9, 42, 0
3, 26065, Note_on_c, 9, 38, 0
3, 26100, Note_on_c, 9, 35, 120
3, 26100, Note_on_c, 9, 42, 120
3, 26125, Note_on_c, 9, 42, 0
3, 26125, Note_on_c, 9, 35, 0
3, 26160, Note_on_c, 9, 35, 120
3, 26160, Note_on_c, 9, 42, 120
3, 26185, Note_on_c, 9, 42, 0
3, 26185, Note_on_c, 9, 35, 0
3, 26220, Note_on_c, 9, 42, 120
3, 26245, Note_on_c, 9, 42, 0
3, 26280, Note_on_c, 9, 38, 120
3, 26280, Note_on_c, 9, 42, 120
3, 26305, Note_on_c, 9, 42, 0
3, 26305, Note_on_c, 9, 38, 0
3, 26340, Note_on_c, 9, 35, 120
3, 26340, Note_on_c, 9, 42, 120
3, 26365, Note_on_c, 9, 42, 0
3, 26365, Note_on_c, 9, 35, 0
3, 26400, Note_on_c, 9, 35, 120
3, 26400, Note_on_c, 9, 42, 120
3, 26425, Note_on_c, 9, 42, 0
3, 26425, Note_on_c, 9, 35, 0
3, 26460, Note_on_c, 9, 42, 120
3, 26485, Note_on_c, 9, 42, 0
3, 26520, Note_on_c, 9, 38, 120
3, 26520, Note_on_c, 9, 42, 120
3, 26545, Note_on_c, 9, 42, 0
3, 26545, Note_on_c, 9, 38, 0
3, 26580, Note_on_c, 9, 35, 120
3, 26580, Note_on_c, 9, 42, 120
3, 26605, Note_on_c, 9, 42, 0
3, 26605, Note_on_c, 9, 35, 0
3, 26640, Note_on_c, 9, 35, 120
3, 26640, Note_on_c, 9, 42, 120
3, 26665, Note_on_c, 9, 42, 0
3, 26665, Note_on_c, 9, 35, 0
3, 26700, Note_on_c, 9, 42, 120
3, 26725, Note_on_c, 9, 42, 0
3, 26760, Note_on_c, 9, 38, 120
3, 26760, Note_on_c, 9, 42, 120
3, 26785, Note_on_c, 9, 42, 0
3, 26785, Note_on_c, 9, 38, 0
3, 26820, Note_on_c, 9, 35, 120
3, 26820, Note_on_c, 9, 42, 120
3, 26845, Note_on_c, 9, 42, 0
3, 26845, Note_on_c, 9, 35, 0
3, 26880, Note_on_c, 9, 35, 120
3, 26880, Note_on_c, 9, 42, 120
3, 26905, Note_on_c, 9, 42, 0
3, 26905, Note_on_c, 9, 35, 0
3, 26940, Note_on_c, 9, 42, 120
3, 26965, Note_on_c, 9, 42, 0
3, 27000, Note_on_c, 9, 38, 120
3, 27000, Note_on_c, 9, 42, 120
3, 27025, Note_on_c, 9, 42, 0
3, 27025, Note_on_c, 9, 38, 0
3, 27060, Note_on_c, 9, 35, 120
3, 27060, Note_on_c, 9, 42, 120
3, 27085, Note_on_c, 9, 42, 0
3, 27085, Note_on_c, 9, 35, 0
3, 27120, Note_on_c, 9, 35, 120
3, 27120, Note_on_c, 9, 42, 120
3, 27145, Note_on_c, 9, 42, 0
3, 27145, Note_on_c, 9, 35, 0
3, 27180, Note_on_c, 9, 42, 120
3, 27205, Note_on_c, 9, 42, 0
3, 27240, Note_on_c, 9, 38, 120
3, 27240, Note_on_c, 9, 42, 120
3, 27265, Note_on_c, 9, 42, 0
3, 27265, Note_on_c, 9, 38, 0
3, 27300, Note_on_c, 9, 35, 120
3, 27300, Note_on_c, 9, 42, 120
3, 27325, Note_on_c, 9, 42, 0
3, 27325, Note_on_c, 9, 35, 0
3, 27360, Note_on_c, 9, 35, 120
3, 27360, Note_on_c, 9, 42, 120
3, 27385, Note_on_c, 9, 42, 0
3, 27385, Note_on_c, 9, 35, 0
3, 27420, Note_on_c, 9, 42, 120
3, 27445, Note_on_c, 9, 42, 0
3, 27480, Note_on_c, 9, 38, 120
3, 27480, Note_on_c, 9, 42, 120
3, 27505, Note_on_c, 9, 42, 0
3, 27505, Note_on_c, 9, 38, 0
3, 27540, Note_on_c, 9, 35, 120
3, 27540, Note_on_c, 9, 42, 120
3, 27565, Note_on_c, 9, 42, 0
3, 27565, Note_on_c, 9, 35, 0
3, 27600, Note_on_c, 9, 35, 120
3, 27600, Note_on_c, 9, 42, 120
3, 27625, Note_on_c, 9, 42, 0
3, 27625, Note_on_c, 9, 35, 0
3, 27660, Note_on_c, 9, 46, 120
3, 27685, Note_on_c, 9, 46, 0
3, 27720, Note_on_c, 9, 38, 120
3, 27720, Note_on_c, 9, 42, 120
3, 27745, Note_on_c, 9, 42, 0
3, 27745, Note_on_c, 9, 38, 0
3, 27780, Note_on_c, 9, 35, 120
3, 27780, Note_on_c, 9, 42, 120
3, 27805, Note_on_c, 9, 42, 0
3, 27805, Note_on_c, 9, 35, 0
3, 27840, Note_on_c, 9, 35, 120
3, 27840, Note_on_c, 9, 42, 120
3, 27865, Note_on_c, 9, 42, 0
3, 27865, Note_on_c, 9, 35, 0
3, 27900, Note_on_c, 9, 46, 120
3, 27925, Note_on_c, 9, 46, 0
3, 27960, Note_on_c, 9, 38, 120
3, 27960, Note_on_c, 9, 42, 120
3, 27985, Note_on_c, 9, 42, 0
3, 27985, Note_on_c, 9, 38, 0
3, 28020, Note_on_c, 9, 35, 120
3, 28020, Note_on_c, 9, 42, 120
3, 28045, Note_on_c, 9, 42, 0
3, 28045, Note_on_c, 9, 35, 0
3, 28080, Note_on_c, 9, 35, 120
3, 28080, Note_on_c, 9, 42, 120
3, 28105, Note_on_c, 9, 42, 0
3, 28105, Note_on_c, 9, 35, 0
3, 28140, Note_on_c, 9, 42, 120
3, 28165, Note_on_c, 9, 42, 0
3, 28200, Note_on_c, 9, 38, 120
3, 28200, Note_on_c, 9, 42, 120
3, 28225, Note_on_c, 9, 42, 0
3, 28225, Note_on_c, 9, 38, 0
3, 28260, Note_on_c, 9, 35, 120
3, 28260, Note_on_c, 9, 42, 120
3, 28285, Note_on_c, 9, 42, 0
3, 28285, Note_on_c, 9, 35, 0
3, 28320, Note_on_c, 9, 35, 120
3, 28320, Note_on_c, 9, 42, 120
3, 28345, Note_on_c, 9, 42, 0
3, 28345, Note_on_c, 9, 35, 0
3, 28380, Note_on_c, 9, 42, 120
3, 28405, Note_on_c, 9, 42, 0
3, 28440, Note_on_c, 9, 38, 120
3, 28440, Note_on_c, 9, 42, 120
3, 28465, Note_on_c, 9, 42, 0
3, 28465, Note_on_c, 9, 38, 0
3, 28500, Note_on_c, 9, 35, 120
3, 28500, Note_on_c, 9, 42, 120
3, 28525, Note_on_c, 9, 42, 0
3, 28525, Note_on_c, 9, 35, 0
3, 28560, Note_on_c, 9, 35, 120
3, 28560, Note_on_c, 9, 42, 120
3, 28585, Note_on_c, 9, 42, 0
3, 28585, Note_on_c, 9, 35, 0
3, 28620, Note_on_c, 9, 42, 120
3, 28645, Note_on_c, 9, 42, 0
3, 28680, Note_on_c, 9, 38, 120
3, 28680, Note_on_c, 9, 42, 120
3, 28705, Note_on_c, 9, 42, 0
3, 28705, Note_on_c, 9, 38, 0
3, 28740, Note_on_c, 9, 35, 120
3, 28740, Note_on_c, 9, 42, 120
3, 28765, Note_on_c, 9, 42, 0
3, 28765, Note_on_c, 9, 35, 0
3, 28770, Note_on_c, 9, 42, 120
3, 28795, Note_on_c, 9, 42, 0
3, 28800, Note_on_c, 9, 35, 120
3, 28800, Note_on_c, 9, 42, 120
3, 28825, Note_on_c, 9, 42, 0
3, 28825, Note_on_c, 9, 35, 0
3, 28860, Note_on_c, 9, 42, 120
3, 28885, Note_on_c, 9, 42, 0
3, 28920, Note_on_c, 9, 38, 120
3, 28920, Note_on_c, 9, 42, 120
3, 28945, Note_on_c, 9, 42, 0
3, 28945, Note_on_c, 9, 38, 0
3, 28980, Note_on_c, 9, 35, 120
3, 28980, Note_on_c, 9, 42, 120
3, 29005, Note_on_c, 9, 42, 0
3, 29005, Note_on_c, 9, 35, 0
3, 29040, Note_on_c, 9, 35, 120
3, 29040, Note_on_c, 9, 42, 120
3, 29065, Note_on_c, 9, 42, 0
3, 29065, Note_on_c, 9, 35, 0
3, 29100, Note_on_c, 9, 42, 120
3, 29125, Note_on_c, 9, 42, 0
3, 29160, Note_on_c, 9, 38, 120
3, 29160, Note_on_c, 9, 42, 120
3, 29185, Note_on_c, 9, 42, 0
3, 29185, Note_on_c, 9, 38, 0
3, 29220, Note_on_c, 9, 35, 120
3, 29220, Note_on_c, 9, 42, 120
3, 29245, Note_on_c, 9, 42, 0
3, 29245, Note_on_c, 9, 35, 0
3, 29250, Note_on_c, 9, 42, 120
3, 29275, Note_on_c, 9, 42, 0
3, 29280, Note_on_c, 9, 35, 120
3, 29280, Note_on_c, 9, 42, 120
3, 29305, Note_on_c, 9, 42, 0
3, 29305, Note_on_c, 9, 35, 0
3, 29340, Note_on_c, 9, 42, 120
3, 29365, Note_on_c, 9, 42, 0
3, 29400, Note_on_c, 9, 38, 120
3, 29400, Note_on_c, 9, 42, 120
3, 29425, Note_on_c, 9, 42, 0
3, 29425, Note_on_c, 9, 38, 0
3, 29460, Note_on_c, 9, 35, 120
3, 29460, Note_on_c, 9, 42, 120
3, 29485, Note_on_c, 9, 42, 0
3, 29485, Note_on_c, 9, 35, 0
3, 29520, Note_on_c, 9, 35, 120
3, 29520, Note_on_c, 9, 42, 120
3, 29545, Note_on_c, 9, 42, 0
3, 29545, Note_on_c, 9, 35, 0
3, 29580, Note_on_c, 9, 42, 120
3, 29605, Note_on_c, 9, 42, 0
3, 29640, Note_on_c, 9, 38, 120
3, 29640, Note_on_c, 9, 42, 120
3, 29665, Note_on_c, 9, 42, 0
3, 29665, Note_on_c, 9, 38, 0
3, 29700, Note_on_c, 9, 35, 120
3, 29700, Note_on_c, 9, 42, 120
3, 29725, Note_on_c, 9, 42, 0
3, 29725, Note_on_c, 9, 35, 0
3, 29760, Note_on_c, 9, 35, 120
3, 29760, Note_on_c, 9, 42, 120
3, 29785, Note_on_c, 9, 42, 0
3, 29785, Note_on_c, 9, 35, 0
3, 29820, Note_on_c, 9, 42, 120
3, 29845, Note_on_c, 9, 42, 0
3, 29880, Note_on_c, 9, 38, 120
3, 29905, Note_on_c, 9, 38, 0
3, 29940, Note_on_c, 9, 42, 120
3, 29965, Note_on_c, 9, 42, 0
3, 30000, Note_on_c, 9, 42, 120
3, 30025, Note_on_c, 9, 42, 0
3, 30060, Note_on_c, 9, 38, 120
3, 30085, Note_on_c, 9, 38, 0
3, 30120, Note_on_c, 9, 38, 120
3, 30145, Note_on_c, 9, 38, 0
3, 30180, Note_on_c, 9, 35, 120
3, 30180, Note_on_c, 9, 46, 120
3, 30205, Note_on_c, 9, 46, 0
3, 30205, Note_on_c, 9, 35, 0
3, 30240, Note_on_c, 9, 35, 120
3, 30240, Note_on_c, 9, 49, 120
3, 30265, Note_on_c, 9, 49, 0
3, 30265, Note_on_c, 9, 35, 0
3, 30300, Note_on_c, 9, 42, 120
3, 30325, Note_on_c, 9, 42, 0
3, 30360, Note_on_c, 9, 38, 120
3, 30360, Note_on_c, 9, 42, 120
3, 30385, Note_on_c, 9, 42, 0
3, 30385, Note_on_c, 9, 38, 0
3, 30420, Note_on_c, 9, 35, 120
3, 30420, Note_on_c, 9, 42, 120
3, 30445, Note_on_c, 9, 42, 0
3, 30445, Note_on_c, 9, 35, 0
3, 30480, Note_on_c, 9, 35, 120
3, 30480, Note_on_c, 9, 42, 120
3, 30505, Note_on_c, 9, 42, 0
3, 30505, Note_on_c, 9, 35, 0
3, 30540, Note_on_c, 9, 42, 120
3, 30565, Note_on_c, 9, 42, 0
3, 30600, Note_on_c, 9, 38, 120
3, 30600, Note_on_c, 9, 42, 120
3, 30625, Note_on_c, 9, 42, 0
3, 30625, Note_on_c, 9, 38, 0
3, 30660, Note_on_c, 9, 42, 120
3, 30685, Note_on_c, 9, 42, 0
3, 30720, Note_on_c, 9, 35, 120
3, 30720, Note_on_c, 9, 42, 120
3, 30745, Note_on_c, 9, 42, 0
3, 30745, Note_on_c, 9, 35, 0
3, 30780, Note_on_c, 9, 42, 120
3, 30805, Note_on_c, 9, 42, 0
3, 30840, Note_on_c, 9, 38, 120
3, 30840, Note_on_c, 9, 42, 120
3, 30865, Note_on_c, 9, 42, 0
3, 30865, Note_on_c, 9, 38, 0
3, 30900, Note_on_c, 9, 35, 120
3, 30900, Note_on_c, 9, 42, 120
3, 30925, Note_on_c, 9, 42, 0
3, 30925, Note_on_c, 9, 35, 0
3, 30960, Note_on_c, 9, 35, 120
3, 30960, Note_on_c, 9, 42, 120
3, 30985, Note_on_c, 9, 42, 0
3, 30985, Note_on_c, 9, 35, 0
3, 31020, Note_on_c, 9, 42, 120
3, 31045, Note_on_c, 9, 42, 0
3, 31080, Note_on_c, 9, 38, 120
3, 31080, Note_on_c, 9, 42, 120
3, 31105, Note_on_c, 9, 42, 0
3, 31105, Note_on_c, 9, 38, 0
3, 31140, Note_on_c, 9, 35, 120
3, 31140, Note_on_c, 9, 42, 120
3, 31165, Note_on_c, 9, 42, 0
3, 31165, Note_on_c, 9, 35, 0
3, 31200, Note_on_c, 9, 35, 120
3, 31200, Note_on_c, 9, 42, 120
3, 31225, Note_on_c, 9, 42, 0
3, 31225, Note_on_c, 9, 35, 0
3, 31260, Note_on_c, 9, 42, 120
3, 31285, Note_on_c, 9, 42, 0
3, 31320, Note_on_c, 9, 38, 120
3, 31320, Note_on_c, 9, 42, 120
3, 31345, Note_on_c, 9, 42, 0
3, 31345, Note_on_c, 9, 38, 0
3, 31380, Note_on_c, 9, 35, 120
3, 31380, Note_on_c, 9, 42, 120
3, 31405, Note_on_c, 9, 42, 0
3, 31405, Note_on_c, 9, 35, 0
3, 31440, Note_on_c, 9, 35, 120
3, 31440, Note_on_c, 9, 42, 120
3, 31465, Note_on_c, 9, 42, 0
3, 31465, Note_on_c, 9, 35, 0
3, 31500, Note_on_c, 9, 42, 120
3, 31525, Note_on_c, 9, 42, 0
3, 31560, Note_on_c, 9, 38, 120
3, 31560, Note_on_c, 9, 42, 120
3, 31585, Note_on_c, 9, 42, 0
3, 31585, Note_on_c, 9, 38, 0
3, 31620, Note_on_c, 9, 35, 120
3, 31620, Note_on_c, 9, 42, 120
3, 31645, Note_on_c, 9, 42, 0
3, 31645, Note_on_c, 9, 35, 0
3, 31650, Note_on_c, 9, 42, 120
3, 31675, Note_on_c, 9, 42, 0
3, 31680, Note_on_c, 9, 35, 120
3, 31680, Note_on_c, 9, 42, 120
3, 31705, Note_on_c, 9, 42, 0
3, 31705, Note_on_c, 9, 35, 0
3, 31740, Note_on_c, 9, 42, 120
3, 31765, Note_on_c, 9, 42, 0
3, 31770, Note_on_c, 9, 42, 120
3, 31795, Note_on_c, 9, 42, 0
3, 31800, Note_on_c, 9, 38, 120
3, 31800, Note_on_c, 9, 46, 120
3, 31825, Note_on_c, 9, 46, 0
3, 31825, Note_on_c, 9, 38, 0
3, 31860, Note_on_c, 9, 35, 120
3, 31860, Note_on_c, 9, 46, 120
3, 31885, Note_on_c, 9, 46, 0
3, 31885, Note_on_c, 9, 35, 0
3, 31980, Note_on_c, 9, 35, 120
3, 32005, Note_on_c, 9, 35, 0
3, 32040, Note_on_c, 9, 45, 120
3, 32065, Note_on_c, 9, 45, 0
3, 32100, Note_on_c, 9, 45, 120
3, 32125, Note_on_c, 9, 45, 0
3, 32130, Note_on_c, 9, 41, 120
3, 32155, Note_on_c, 9, 41, 0
3, 32160, Note_on_c, 9, 35, 120
3, 32160, Note_on_c, 9, 49, 120
3, 32185, Note_on_c, 9, 49, 0
3, 32185, Note_on_c, 9, 35, 0
3, 32220, Note_on_c, 9, 42, 120
3, 32245, Note_on_c, 9, 42, 0
3, 32280, Note_on_c, 9, 38, 120
3, 32280, Note_on_c, 9, 42, 120
3, 32305, Note_on_c, 9, 42, 0
3, 32305, Note_on_c, 9, 38, 0
3, 32340, Note_on_c, 9, 35, 120
3, 32340, Note_on_c, 9, 42, 120
3, 32365, Note_on_c, 9, 42, 0
3, 32365, Note_on_c, 9, 35, 0
3, 32400, Note_on_c, 9, 35, 120
3, 32400, Note_on_c, 9, 42, 120
3, 32425, Note_on_c, 9, 42, 0
3, 32425, Note_on_c, 9, 35, 0
3, 32460, Note_on_c, 9, 42, 120
3, 32485, Note_on_c, 9, 42, 0
3, 32520, Note_on_c, 9, 38, 120
3, 32520, Note_on_c, 9, 42, 120
3, 32545, Note_on_c, 9, 42, 0
3, 32545, Note_on_c, 9, 38, 0
3, 32580, Note_on_c, 9, 42, 120
3, 32605, Note_on_c, 9, 42, 0
3, 32640, Note_on_c, 9, 35, 120
3, 32640, Note_on_c, 9, 42, 120
3, 32665, Note_on_c, 9, 42, 0
3, 32665, Note_on_c, 9, 35, 0
3, 32700, Note_on_c, 9, 42, 120
3, 32725, Note_on_c, 9, 42, 0
3, 32760, Note_on_c, 9, 38, 120
3, 32760, Note_on_c, 9, 42, 120
3, 32785, Note_on_c, 9, 42, 0
3, 32785, Note_on_c, 9, 38, 0
3, 32820, Note_on_c, 9, 35, 120
3, 32820, Note_on_c, 9, 42, 120
3, 32845, Note_on_c, 9, 42, 0
3, 32845, Note_on_c, 9, 35, 0
3, 32880, Note_on_c, 9, 35, 120
3, 32880, Note_on_c, 9, 42, 120
3, 32905, Note_on_c, 9, 42, 0
3, 32905, Note_on_c, 9, 35, 0
3, 32940, Note_on_c, 9, 42, 120
3, 32965, Note_on_c, 9, 42, 0
3, 33000, Note_on_c, 9, 38, 120
3, 33000, Note_on_c, 9, 42, 120
3, 33025, Note_on_c, 9, 42, 0
3, 33025, Note_on_c, 9, 38, 0
3, 33060, Note_on_c, 9, 35, 120
3, 33060, Note_on_c, 9, 42, 120
3, 33085, Note_on_c, 9, 42, 0
3, 33085, Note_on_c, 9, 35, 0
3, 33120, Note_on_c, 9, 35, 120
3, 33120, Note_on_c, 9, 42, 120
3, 33145, Note_on_c, 9, 42, 0
3, 33145, Note_on_c, 9, 35, 0
3, 33180, Note_on_c, 9, 42, 120
3, 33205, Note_on_c, 9, 42, 0
3, 33240, Note_on_c, 9, 38, 120
3, 33240, Note_on_c, 9, 42, 120
3, 33265, Note_on_c, 9, 42, 0
3, 33265, Note_on_c, 9, 38, 0
3, 33300, Note_on_c, 9, 35, 120
3, 33300, Note_on_c, 9, 42, 120
3, 33325, Note_on_c, 9, 42, 0
3, 33325, Note_on_c, 9, 35, 0
3, 33360, Note_on_c, 9, 35, 120
3, 33360, Note_on_c, 9, 42, 120
3, 33385, Note_on_c, 9, 42, 0
3, 33385, Note_on_c, 9, 35, 0
3, 33420, Note_on_c, 9, 42, 120
3, 33445, Note_on_c, 9, 42, 0
3, 33480, Note_on_c, 9, 38, 120
3, 33480, Note_on_c, 9, 42, 120
3, 33505, Note_on_c, 9, 42, 0
3, 33505, Note_on_c, 9, 38, 0
3, 33540, Note_on_c, 9, 35, 120
3, 33540, Note_on_c, 9, 42, 120
3, 33565, Note_on_c, 9, 42, 0
3, 33565, Note_on_c, 9, 35, 0
3, 33570, Note_on_c, 9, 42, 120
3, 33595, Note_on_c, 9, 42, 0
3, 33600, Note_on_c, 9, 35, 120
3, 33600, Note_on_c, 9, 42, 120
3, 33625, Note_on_c, 9, 42, 0
3, 33625, Note_on_c, 9, 35, 0
3, 33660, Note_on_c, 9, 42, 120
3, 33685, Note_on_c, 9, 42, 0
3, 33720, Note_on_c, 9, 38, 120
3, 33720, Note_on_c, 9, 42, 120
3, 33745, Note_on_c, 9, 42, 0
3, 33745, Note_on_c, 9, 38, 0
3, 33780, Note_on_c, 9, 35, 120
3, 33780, Note_on_c, 9, 42, 120
3, 33805, Note_on_c, 9, 42, 0
3, 33805, Note_on_c, 9, 35, 0
3, 33840, Note_on_c, 9, 35, 120
3, 33840, Note_on_c, 9, 42, 120
3, 33865, Note_on_c, 9, 42, 0
3, 33865, Note_on_c, 9, 35, 0
3, 33900, Note_on_c, 9, 42, 120
3, 33925, Note_on_c, 9, 42, 0
3, 33960, Note_on_c, 9, 38, 120
3, 33960, Note_on_c, 9, 42, 120
3, 33985, Note_on_c, 9, 42, 0
3, 33985, Note_on_c, 9, 38, 0
3, 34020, Note_on_c, 9, 35, 120
3, 34020, Note_on_c, 9, 42, 120
3, 34045, Note_on_c, 9, 42, 0
3, 34045, Note_on_c, 9, 35, 0
3, 34050, Note_on_c, 9, 42, 120
3, 34075, Note_on_c, 9, 42, 0
3, 34080, Note_on_c, 9, 35, 120
3, 34080, Note_on_c, 9, 42, 120
3, 34105, Note_on_c, 9, 42, 0
3, 34105, Note_on_c, 9, 35, 0
3, 34140, Note_on_c, 9, 42, 120
3, 34165, Note_on_c, 9, 42, 0
3, 34200, Note_on_c, 9, 38, 120
3, 34200, Note_on_c, 9, 42, 120
3, 34225, Note_on_c, 9, 42, 0
3, 34225, Note_on_c, 9, 38, 0
3, 34260, Note_on_c, 9, 35, 120
3, 34260, Note_on_c, 9, 42, 120
3, 34285, Note_on_c, 9, 42, 0
3, 34285, Note_on_c, 9, 35, 0
3, 34320, Note_on_c, 9, 35, 120
3, 34320, Note_on_c, 9, 42, 120
3, 34345, Note_on_c, 9, 42, 0
3, 34345, Note_on_c, 9, 35, 0
3, 34380, Note_on_c, 9, 42, 120
3, 34405, Note_on_c, 9, 42, 0
3, 34440, Note_on_c, 9, 38, 120
3, 34440, Note_on_c, 9, 42, 120
3, 34465, Note_on_c, 9, 42, 0
3, 34465, Note_on_c, 9, 38, 0
3, 34500, Note_on_c, 9, 35, 120
3, 34500, Note_on_c, 9, 42, 120
3, 34525, Note_on_c, 9, 42, 0
3, 34525, Note_on_c, 9, 35, 0
3, 34530, Note_on_c, 9, 42, 120
3, 34555, Note_on_c, 9, 42, 0
3, 34560, Note_on_c, 9, 35, 120
3, 34560, Note_on_c, 9, 42, 120
3, 34585, Note_on_c, 9, 42, 0
3, 34585, Note_on_c, 9, 35, 0
3, 34620, Note_on_c, 9, 46, 120
3, 34645, Note_on_c, 9, 46, 0
3, 34680, Note_on_c, 9, 38, 120
3, 34680, Note_on_c, 9, 42, 120
3, 34705, Note_on_c, 9, 42, 0
3, 34705, Note_on_c, 9, 38, 0
3, 34740, Note_on_c, 9, 35, 120
3, 34740, Note_on_c, 9, 42, 120
3, 34765, Note_on_c, 9, 42, 0
3, 34765, Note_on_c, 9, 35, 0
3, 34800, Note_on_c, 9, 35, 120
3, 34800, Note_on_c, 9, 42, 120
3, 34825, Note_on_c, 9, 42, 0
3, 34825, Note_on_c, 9, 35, 0
3, 34860, Note_on_c, 9, 42, 120
3, 34885, Note_on_c, 9, 42, 0
3, 34920, Note_on_c, 9, 38, 120
3, 34920, Note_on_c, 9, 42, 120
3, 34945, Note_on_c, 9, 42, 0
3, 34945, Note_on_c, 9, 38, 0
3, 34980, Note_on_c, 9, 35, 120
3, 34980, Note_on_c, 9, 42, 120
3, 35005, Note_on_c, 9, 42, 0
3, 35005, Note_on_c, 9, 35, 0
3, 35040, Note_on_c, 9, 35, 120
3, 35040, Note_on_c, 9, 42, 120
3, 35065, Note_on_c, 9, 42, 0
3, 35065, Note_on_c, 9, 35, 0
3, 35100, Note_on_c, 9, 42, 120
3, 35125, Note_on_c, 9, 42, 0
3, 35160, Note_on_c, 9, 38, 120
3, 35160, Note_on_c, 9, 42, 120
3, 35185, Note_on_c, 9, 42, 0
3, 35185, Note_on_c, 9, 38, 0
3, 35220, Note_on_c, 9, 35, 120
3, 35220, Note_on_c, 9, 42, 120
3, 35245, Note_on_c, 9, 42, 0
3, 35245, Note_on_c, 9, 35, 0
3, 35280, Note_on_c, 9, 35, 120
3, 35280, Note_on_c, 9, 42, 120
3, 35305, Note_on_c, 9, 42, 0
3, 35305, Note_on_c, 9, 35, 0
3, 35340, Note_on_c, 9, 46, 120
3, 35365, Note_on_c, 9, 46, 0
3, 35400, Note_on_c, 9, 38, 120
3, 35400, Note_on_c, 9, 42, 120
3, 35425, Note_on_c, 9, 42, 0
3, 35425, Note_on_c, 9, 38, 0
3, 35460, Note_on_c, 9, 35, 120
3, 35460, Note_on_c, 9, 42, 120
3, 35485, Note_on_c, 9, 42, 0
3, 35485, Note_on_c, 9, 35, 0
3, 35520, Note_on_c, 9, 35, 120
3, 35520, Note_on_c, 9, 42, 120
3, 35545, Note_on_c, 9, 42, 0
3, 35545, Note_on_c, 9, 35, 0
3, 35580, Note_on_c, 9, 42, 120
3, 35605, Note_on_c, 9, 42, 0
3, 35640, Note_on_c, 9, 38, 120
3, 35640, Note_on_c, 9, 42, 120
3, 35665, Note_on_c, 9, 42, 0
3, 35665, Note_on_c, 9, 38, 0
3, 35700, Note_on_c, 9, 35, 120
3, 35700, Note_on_c, 9, 42, 120
3, 35725, Note_on_c, 9, 42, 0
3, 35725, Note_on_c, 9, 35, 0
3, 35760, Note_on_c, 9, 35, 120
3, 35760, Note_on_c, 9, 42, 120
3, 35785, Note_on_c, 9, 42, 0
3, 35785, Note_on_c, 9, 35, 0
3, 35820, Note_on_c, 9, 42, 120
3, 35845, Note_on_c, 9, 42, 0
3, 35880, Note_on_c, 9, 38, 120
3, 35880, Note_on_c, 9, 42, 120
3, 35905, Note_on_c, 9, 42, 0
3, 35905, Note_on_c, 9, 38, 0
3, 35940, Note_on_c, 9, 35, 120
3, 35940, Note_on_c, 9, 42, 120
3, 35965, Note_on_c, 9, 42, 0
3, 35965, Note_on_c, 9, 35, 0
3, 35970, Note_on_c, 9, 42, 120
3, 35995, Note_on_c, 9, 42, 0
3, 36000, Note_on_c, 9, 35, 120
3, 36000, Note_on_c, 9, 42, 120
3, 36025, Note_on_c, 9, 42, 0
3, 36025, Note_on_c, 9, 35, 0
3, 36060, Note_on_c, 9, 42, 120
3, 36085, Note_on_c, 9, 42, 0
3, 36120, Note_on_c, 9, 38, 120
3, 36120, Note_on_c, 9, 42, 120
3, 36145, Note_on_c, 9, 42, 0
3, 36145, Note_on_c, 9, 38, 0
3, 36180, Note_on_c, 9, 35, 120
3, 36180, Note_on_c, 9, 42, 120
3, 36205, Note_on_c, 9, 42, 0
3, 36205, Note_on_c, 9, 35, 0
3, 36240, Note_on_c, 9, 35, 120
3, 36240, Note_on_c, 9, 42, 120
3, 36265, Note_on_c, 9, 42, 0
3, 36265, Note_on_c, 9, 35, 0
3, 36300, Note_on_c, 9, 42, 120
3, 36325, Note_on_c, 9, 42, 0
3, 36360, Note_on_c, 9, 38, 120
3, 36360, Note_on_c, 9, 42, 120
3, 36385, Note_on_c, 9, 42, 0
3, 36385, Note_on_c, 9, 38, 0
3, 36420, Note_on_c, 9, 35, 120
3, 36420, Note_on_c, 9, 42, 120
3, 36445, Note_on_c, 9, 42, 0
3, 36445, Note_on_c, 9, 35, 0
3, 36480, Note_on_c, 9, 35, 120
3, 36480, Note_on_c, 9, 42, 120
3, 36505, Note_on_c, 9, 42, 0
3, 36505, Note_on_c, 9, 35, 0
3, 36540, Note_on_c, 9, 42, 120
3, 36565, Note_on_c, 9, 42, 0
3, 36600, Note_on_c, 9, 38, 120
3, 36600, Note_on_c, 9, 42, 120
3, 36625, Note_on_c, 9, 42, 0
3, 36625, Note_on_c, 9, 38, 0
3, 36660, Note_on_c, 9, 35, 120
3, 36660, Note_on_c, 9, 42, 120
3, 36685, Note_on_c, 9, 42, 0
3, 36685, Note_on_c, 9, 35, 0
3, 36720, Note_on_c, 9, 35, 120
3, 36720, Note_on_c, 9, 42, 120
3, 36745, Note_on_c, 9, 42, 0
3, 36745, Note_on_c, 9, 35, 0
3, 36780, Note_on_c, 9, 42, 120
3, 36805, Note_on_c, 9, 42, 0
3, 36840, Note_on_c, 9, 38, 120
3, 36840, Note_on_c, 9, 42, 120
3, 36865, Note_on_c, 9, 42, 0
3, 36865, Note_on_c, 9, 38, 0
3, 36900, Note_on_c, 9, 35, 120
3, 36900, Note_on_c, 9, 42, 120
3, 36925, Note_on_c, 9, 42, 0
3, 36925, Note_on_c, 9, 35, 0
3, 36930, Note_on_c, 9, 42, 120
3, 36955, Note_on_c, 9, 42, 0
3, 36960, Note_on_c, 9, 35, 120
3, 36960, Note_on_c, 9, 42, 120
3, 36985, Note_on_c, 9, 42, 0
3, 36985, Note_on_c, 9, 35, 0
3, 37020, Note_on_c, 9, 42, 120
3, 37045, Note_on_c, 9, 42, 0
3, 37080, Note_on_c, 9, 38, 120
3, 37080, Note_on_c, 9, 42, 120
3, 37105, Note_on_c, 9, 42, 0
3, 37105, Note_on_c, 9, 38, 0
3, 37140, Note_on_c, 9, 35, 120
3, 37140, Note_on_c, 9, 42, 120
3, 37165, Note_on_c, 9, 42, 0
3, 37165, Note_on_c, 9, 35, 0
3, 37200, Note_on_c, 9, 35, 120
3, 37200, Note_on_c, 9, 42, 120
3, 37225, Note_on_c, 9, 42, 0
3, 37225, Note_on_c, 9, 35, 0
3, 37260, Note_on_c, 9, 42, 120
3, 37285, Note_on_c, 9, 42, 0
3, 37320, Note_on_c, 9, 38, 120
3, 37320, Note_on_c, 9, 42, 120
3, 37345, Note_on_c, 9, 42, 0
3, 37345, Note_on_c, 9, 38, 0
3, 37380, Note_on_c, 9, 35, 120
3, 37380, Note_on_c, 9, 42, 120
3, 37405, Note_on_c, 9, 42, 0
3, 37405, Note_on_c, 9, 35, 0
3, 37440, Note_on_c, 9, 35, 120
3, 37440, Note_on_c, 9, 42, 120
3, 37465, Note_on_c, 9, 42, 0
3, 37465, Note_on_c, 9, 35, 0
3, 37500, Note_on_c, 9, 42, 120
3, 37525, Note_on_c, 9, 42, 0
3, 37560, Note_on_c, 9, 38, 120
3, 37560, Note_on_c, 9, 42, 120
3, 37585, Note_on_c, 9, 42, 0
3, 37585, Note_on_c, 9, 38, 0
3, 37620, Note_on_c, 9, 35, 120
3, 37620, Note_on_c, 9, 42, 120
3, 37645, Note_on_c, 9, 42, 0
3, 37645, Note_on_c, 9, 35, 0
3, 37680, Note_on_c, 9, 35, 120
3, 37680, Note_on_c, 9, 42, 120
3, 37705, Note_on_c, 9, 42, 0
3, 37705, Note_on_c, 9, 35, 0
3, 37740, Note_on_c, 9, 42, 120
3, 37765, Note_on_c, 9, 42, 0
3, 37800, Note_on_c, 9, 38, 120
3, 37800, Note_on_c, 9, 42, 120
3, 37825, Note_on_c, 9, 42, 0
3, 37825, Note_on_c, 9, 38, 0
3, 37860, Note_on_c, 9, 35, 120
3, 37860, Note_on_c, 9, 42, 120
3, 37885, Note_on_c, 9, 42, 0
3, 37885, Note_on_c, 9, 35, 0
3, 37920, Note_on_c, 9, 35, 120
3, 37920, Note_on_c, 9, 42, 120
3, 37945, Note_on_c, 9, 42, 0
3, 37945, Note_on_c, 9, 35, 0
3, 37980, Note_on_c, 9, 42, 120
3, 38005, Note_on_c, 9, 42, 0
3, 38040, Note_on_c, 9, 38, 120
3, 38040, Note_on_c, 9, 42, 120
3, 38065, Note_on_c, 9, 42, 0
3, 38065, Note_on_c, 9, 38, 0
3, 38100, Note_on_c, 9, 35, 120
3, 38100, Note_on_c, 9, 42, 120
3, 38125, Note_on_c, 9, 42, 0
3, 38125, Note_on_c, 9, 35, 0
3, 38160, Note_on_c, 9, 35, 120
3, 38160, Note_on_c, 9, 42, 120
3, 38185, Note_on_c, 9, 42, 0
3, 38185, Note_on_c, 9, 35, 0
3, 38220, Note_on_c, 9, 42, 120
3, 38245, Note_on_c, 9, 42, 0
3, 38280, Note_on_c, 9, 38, 120
3, 38280, Note_on_c, 9, 42, 120
3, 38305, Note_on_c, 9, 42, 0
3, 38305, Note_on_c, 9, 38, 0
3, 38340, Note_on_c, 9, 35, 120
3, 38340, Note_on_c, 9, 42, 120
3, 38365, Note_on_c, 9, 42, 0
3, 38365, Note_on_c, 9, 35, 0
3, 38400, Note_on_c, 9, 35, 120
3, 38400, Note_on_c, 9, 42, 120
3, 38425, Note_on_c, 9, 42, 0
3, 38425, Note_on_c, 9, 35, 0
3, 38460, Note_on_c, 9, 42, 120
3, 38485, Note_on_c, 9, 42, 0
3, 38520, Note_on_c, 9, 38, 120
3, 38520, Note_on_c, 9, 42, 120
3, 38545, Note_on_c, 9, 42, 0
3, 38545, Note_on_c, 9, 38, 0
3, 38580, Note_on_c, 9, 35, 120
3, 38580, Note_on_c, 9, 42, 120
3, 38605, Note_on_c, 9, 42, 0
3, 38605, Note_on_c, 9, 35, 0
3, 38640, Note_on_c, 9, 35, 120
3, 38640, Note_on_c, 9, 42, 120
3, 38665, Note_on_c, 9, 42, 0
3, 38665, Note_on_c, 9, 35, 0
3, 38700, Note_on_c, 9, 42, 120
3, 38725, Note_on_c, 9, 42, 0
3, 38760, Note_on_c, 9, 38, 120
3, 38760, Note_on_c, 9, 42, 120
3, 38785, Note_on_c, 9, 42, 0
3, 38785, Note_on_c, 9, 38, 0
3, 38820, Note_on_c, 9, 35, 120
3, 38820, Note_on_c, 9, 42, 120
3, 38845, Note_on_c, 9, 42, 0
3, 38845, Note_on_c, 9, 35, 0
3, 38880, Note_on_c, 9, 35, 120
3, 38880, Note_on_c, 9, 42, 120
3, 38905, Note_on_c, 9, 42, 0
3, 38905, Note_on_c, 9, 35, 0
3, 38940, Note_on_c, 9, 42, 120
3, 38965, Note_on_c, 9, 42, 0
3, 39000, Note_on_c, 9, 38, 120
3, 39000, Note_on_c, 9, 42, 120
3, 39025, Note_on_c, 9, 42, 0
3, 39025, Note_on_c, 9, 38, 0
3, 39060, Note_on_c, 9, 35, 120
3, 39060, Note_on_c, 9, 42, 120
3, 39085, Note_on_c, 9, 42, 0
3, 39085, Note_on_c, 9, 35, 0
3, 39120, Note_on_c, 9, 35, 120
3, 39120, Note_on_c, 9, 42, 120
3, 39145, Note_on_c, 9, 42, 0
3, 39145, Note_on_c, 9, 35, 0
3, 39180, Note_on_c, 9, 42, 120
3, 39205, Note_on_c, 9, 42, 0
3, 39240, Note_on_c, 9, 38, 120
3, 39240, Note_on_c, 9, 42, 120
3, 39265, Note_on_c, 9, 42, 0
3, 39265, Note_on_c, 9, 38, 0
3, 39300, Note_on_c, 9, 35, 120
3, 39300, Note_on_c, 9, 42, 120
3, 39325, Note_on_c, 9, 42, 0
3, 39325, Note_on_c, 9, 35, 0
3, 39330, Note_on_c, 9, 42, 120
3, 39355, Note_on_c, 9, 42, 0
3, 39360, Note_on_c, 9, 35, 120
3, 39360, Note_on_c, 9, 42, 120
3, 39385, Note_on_c, 9, 42, 0
3, 39385, Note_on_c, 9, 35, 0
3, 39480, Note_on_c, 9, 48, 120
3, 39505, Note_on_c, 9, 48, 0
3, 39540, Note_on_c, 9, 35, 120
3, 39565, Note_on_c, 9, 35, 0
3, 39600, Note_on_c, 9, 35, 120
3, 39600, Note_on_c, 9, 45, 120
3, 39625, Note_on_c, 9, 45, 0
3, 39625, Note_on_c, 9, 35, 0
3, 39660, Note_on_c, 9, 41, 120
3, 39685, Note_on_c, 9, 41, 0
3, 39720, Note_on_c, 9, 41, 120
3, 39745, Note_on_c, 9, 41, 0
3, 39780, Note_on_c, 9, 35, 120
3, 39780, Note_on_c, 9, 49, 120
3, 39805, Note_on_c, 9, 49, 0
3, 39805, Note_on_c, 9, 35, 0
3, 39840, Note_on_c, 9, 35, 120
3, 39840, Note_on_c, 9, 49, 120
3, 39865, Note_on_c, 9, 49, 0
3, 39865, Note_on_c, 9, 35, 0
3, 39900, Note_on_c, 9, 42, 120
3, 39925, Note_on_c, 9, 42, 0
3, 39960, Note_on_c, 9, 42, 120
3, 39960, Note_on_c, 9, 37, 120
3, 39985, Note_on_c, 9, 37, 0
3, 39985, Note_on_c, 9, 42, 0
3, 40020, Note_on_c, 9, 42, 120
3, 40045, Note_on_c, 9, 42, 0
3, 40080, Note_on_c, 9, 35, 120
3, 40080, Note_on_c, 9, 42, 120
3, 40105, Note_on_c, 9, 42, 0
3, 40105, Note_on_c, 9, 35, 0
3, 40140, Note_on_c, 9, 42, 120
3, 40165, Note_on_c, 9, 42, 0
3, 40200, Note_on_c, 9, 42, 120
3, 40200, Note_on_c, 9, 37, 120
3, 40225, Note_on_c, 9, 37, 0
3, 40225, Note_on_c, 9, 42, 0
3, 40260, Note_on_c, 9, 35, 120
3, 40260, Note_on_c, 9, 42, 120
3, 40285, Note_on_c, 9, 42, 0
3, 40285, Note_on_c, 9, 35, 0
3, 40320, Note_on_c, 9, 35, 120
3, 40320, Note_on_c, 9, 42, 120
3, 40345, Note_on_c, 9, 42, 0
3, 40345, Note_on_c, 9, 35, 0
3, 40380, Note_on_c, 9, 42, 120
3, 40405, Note_on_c, 9, 42, 0
3, 40440, Note_on_c, 9, 42, 120
3, 40440, Note_on_c, 9, 37, 120
3, 40465, Note_on_c, 9, 37, 0
3, 40465, Note_on_c, 9, 42, 0
3, 40500, Note_on_c, 9, 42, 120
3, 40525, Note_on_c, 9, 42, 0
3, 40560, Note_on_c, 9, 35, 120
3, 40560, Note_on_c, 9, 42, 120
3, 40585, Note_on_c, 9, 42, 0
3, 40585, Note_on_c, 9, 35, 0
3, 40620, Note_on_c, 9, 42, 120
3, 40645, Note_on_c, 9, 42, 0
3, 40680, Note_on_c, 9, 42, 120
3, 40680, Note_on_c, 9, 37, 120
3, 40705, Note_on_c, 9, 37, 0
3, 40705, Note_on_c, 9, 42, 0
3, 40740, Note_on_c, 9, 35, 120
3, 40740, Note_on_c, 9, 42, 120
3, 40765, Note_on_c, 9, 42, 0
3, 40765, Note_on_c, 9, 35, 0
3, 40800, Note_on_c, 9, 35, 120
3, 40800, Note_on_c, 9, 42, 120
3, 40825, Note_on_c, 9, 42, 0
3, 40825, Note_on_c, 9, 35, 0
3, 40860, Note_on_c, 9, 42, 120
3, 40885, Note_on_c, 9, 42, 0
3, 40920, Note_on_c, 9, 42, 120
3, 40920, Note_on_c, 9, 37, 120
3, 40945, Note_on_c, 9, 37, 0
3, 40945, Note_on_c, 9, 42, 0
3, 40980, Note_on_c, 9, 42, 120
3, 41005, Note_on_c, 9, 42, 0
3, 41040, Note_on_c, 9, 35, 120
3, 41040, Note_on_c, 9, 42, 120
3, 41065, Note_on_c, 9, 42, 0
3, 41065, Note_on_c, 9, 35, 0
3, 41100, Note_on_c, 9, 42, 120
3, 41125, Note_on_c, 9, 42, 0
3, 41160, Note_on_c, 9, 42, 120
3, 41160, Note_on_c, 9, 37, 120
3, 41185, Note_on_c, 9, 37, 0
3, 41185, Note_on_c, 9, 42, 0
3, 41220, Note_on_c, 9, 42, 120
3, 41245, Note_on_c, 9, 42, 0
3, 41280, Note_on_c, 9, 35, 120
3, 41280, Note_on_c, 9, 42, 120
3, 41305, Note_on_c, 9, 42, 0
3, 41305, Note_on_c, 9, 35, 0
3, 41340, Note_on_c, 9, 42, 120
3, 41365, Note_on_c, 9, 42, 0
3, 41370, Note_on_c, 9, 42, 120
3, 41395, Note_on_c, 9, 42, 0
3, 41400, Note_on_c, 9, 38, 120
3, 41400, Note_on_c, 9, 46, 120
3, 41425, Note_on_c, 9, 46, 0
3, 41425, Note_on_c, 9, 38, 0
3, 41460, Note_on_c, 9, 35, 120
3, 41460, Note_on_c, 9, 46, 120
3, 41485, Note_on_c, 9, 46, 0
3, 41485, Note_on_c, 9, 35, 0
3, 41580, Note_on_c, 9, 35, 120
3, 41605, Note_on_c, 9, 35, 0
3, 41640, Note_on_c, 9, 45, 120
3, 41665, Note_on_c, 9, 45, 0
3, 41700, Note_on_c, 9, 45, 120
3, 41725, Note_on_c, 9, 45, 0
3, 41730, Note_on_c, 9, 41, 120
3, 41755, Note_on_c, 9, 41, 0
3, 41760, Note_on_c, 9, 35, 120
3, 41760, Note_on_c, 9, 49, 120
3, 41785, Note_on_c, 9, 49, 0
3, 41785, Note_on_c, 9, 35, 0
3, 41820, Note_on_c, 9, 42, 120
3, 41845, Note_on_c, 9, 42, 0
3, 41880, Note_on_c, 9, 42, 120
3, 41880, Note_on_c, 9, 37, 120
3, 41905, Note_on_c, 9, 37, 0
3, 41905, Note_on_c, 9, 42, 0
3, 41940, Note_on_c, 9, 42, 120
3, 41965, Note_on_c, 9, 42, 0
3, 42000, Note_on_c, 9, 35, 120
3, 42000, Note_on_c, 9, 42, 120
3, 42025, Note_on_c, 9, 42, 0
3, 42025, Note_on_c, 9, 35, 0
3, 42060, Note_on_c, 9, 42, 120
3, 42085, Note_on_c, 9, 42, 0
3, 42120, Note_on_c, 9, 42, 120
3, 42120, Note_on_c, 9, 37, 120
3, 42145, Note_on_c, 9, 37, 0
3, 42145, Note_on_c, 9, 42, 0
3, 42180, Note_on_c, 9, 35, 120
3, 42180, Note_on_c, 9, 42, 120
3, 42205, Note_on_c, 9, 42, 0
3, 42205, Note_on_c, 9, 35, 0
3, 42240, Note_on_c, 9, 35, 120
3, 42240, Note_on_c, 9, 42, 120
3, 42265, Note_on_c, 9, 42, 0
3, 42265, Note_on_c, 9, 35, 0
3, 42300, Note_on_c, 9, 42, 120
3, 42325, Note_on_c, 9, 42, 0
3, 42360, Note_on_c, 9, 42, 120
3, 42360, Note_on_c, 9, 37, 120
3, 42385, Note_on_c, 9, 37, 0
3, 42385, Note_on_c, 9, 42, 0
3, 42420, Note_on_c, 9, 42, 120
3, 42445, Note_on_c, 9, 42, 0
3, 42480, Note_on_c, 9, 35, 120
3, 42480, Note_on_c, 9, 42, 120
3, 42505, Note_on_c, 9, 42, 0
3, 42505, Note_on_c, 9, 35, 0
3, 42540, Note_on_c, 9, 42, 120
3, 42565, Note_on_c, 9, 42, 0
3, 42600, Note_on_c, 9, 42, 120
3, 42600, Note_on_c, 9, 37, 120
3, 42625, Note_on_c, 9, 37, 0
3, 42625, Note_on_c, 9, 42, 0
3, 42660, Note_on_c, 9, 35, 120
3, 42660, Note_on_c, 9, 46, 120
3, 42685, Note_on_c, 9, 46, 0
3, 42685, Note_on_c, 9, 35, 0
3, 42720, Note_on_c, 9, 35, 120
3, 42720, Note_on_c, 9, 42, 120
3, 42745, Note_on_c, 9, 42, 0
3, 42745, Note_on_c, 9, 35, 0
3, 42780, Note_on_c, 9, 42, 120
3, 42805, Note_on_c, 9, 42, 0
3, 42840, Note_on_c, 9, 42, 120
3, 42840, Note_on_c, 9, 37, 120
3, 42865, Note_on_c, 9, 37, 0
3, 42865, Note_on_c, 9, 42, 0
3, 42900, Note_on_c, 9, 46, 120
3, 42925, Note_on_c, 9, 46, 0
3, 42960, Note_on_c, 9, 35, 120
3, 42960, Note_on_c, 9, 42, 120
3, 42985, Note_on_c, 9, 42, 0
3, 42985, Note_on_c, 9, 35, 0
3, 43020, Note_on_c, 9, 42, 120
3, 43045, Note_on_c, 9, 42, 0
3, 43080, Note_on_c, 9, 42, 120
3, 43080, Note_on_c, 9, 37, 120
3, 43105, Note_on_c, 9, 37, 0
3, 43105, Note_on_c, 9, 42, 0
3, 43140, Note_on_c, 9, 42, 120
3, 43165, Note_on_c, 9, 42, 0
3, 43200, Note_on_c, 9, 35, 120
3, 43200, Note_on_c, 9, 42, 120
3, 43225, Note_on_c, 9, 42, 0
3, 43225, Note_on_c, 9, 35, 0
3, 43260, Note_on_c, 9, 42, 120
3, 43285, Note_on_c, 9, 42, 0
3, 43320, Note_on_c, 9, 42, 120
3, 43320, Note_on_c, 9, 37, 120
3, 43345, Note_on_c, 9, 37, 0
3, 43345, Note_on_c, 9, 42, 0
3, 43380, Note_on_c, 9, 42, 120
3, 43405, Note_on_c, 9, 42, 0
3, 43440, Note_on_c, 9, 35, 120
3, 43440, Note_on_c, 9, 42, 120
3, 43465, Note_on_c, 9, 42, 0
3, 43465, Note_on_c, 9, 35, 0
3, 43500, Note_on_c, 9, 42, 120
3, 43525, Note_on_c, 9, 42, 0
3, 43560, Note_on_c, 9, 42, 120
3, 43560, Note_on_c, 9, 37, 120
3, 43585, Note_on_c, 9, 37, 0
3, 43585, Note_on_c, 9, 42, 0
3, 43620, Note_on_c, 9, 35, 120
3, 43620, Note_on_c, 9, 46, 120
3, 43645, Note_on_c, 9, 46, 0
3, 43645, Note_on_c, 9, 35, 0
3, 43680, Note_on_c, 9, 35, 120
3, 43680, Note_on_c, 9, 42, 120
3, 43705, Note_on_c, 9, 42, 0
3, 43705, Note_on_c, 9, 35, 0
3, 43740, Note_on_c, 9, 42, 120
3, 43765, Note_on_c, 9, 42, 0
3, 43800, Note_on_c, 9, 42, 120
3, 43800, Note_on_c, 9, 37, 120
3, 43825, Note_on_c, 9, 37, 0
3, 43825, Note_on_c, 9, 42, 0
3, 43860, Note_on_c, 9, 42, 120
3, 43885, Note_on_c, 9, 42, 0
3, 43920, Note_on_c, 9, 35, 120
3, 43920, Note_on_c, 9, 42, 120
3, 43945, Note_on_c, 9, 42, 0
3, 43945, Note_on_c, 9, 35, 0
3, 43980, Note_on_c, 9, 42, 120
3, 44005, Note_on_c, 9, 42, 0
3, 44040, Note_on_c, 9, 42, 120
3, 44040, Note_on_c, 9, 37, 120
3, 44065, Note_on_c, 9, 37, 0
3, 44065, Note_on_c, 9, 42, 0
3, 44100, Note_on_c, 9, 42, 120
3, 44125, Note_on_c, 9, 42, 0
3, 44160, Note_on_c, 9, 35, 120
3, 44160, Note_on_c, 9, 42, 120
3, 44185, Note_on_c, 9, 42, 0
3, 44185, Note_on_c, 9, 35, 0
3, 44220, Note_on_c, 9, 42, 120
3, 44245, Note_on_c, 9, 42, 0
3, 44280, Note_on_c, 9, 42, 120
3, 44280, Note_on_c, 9, 37, 120
3, 44305, Note_on_c, 9, 37, 0
3, 44305, Note_on_c, 9, 42, 0
3, 44340, Note_on_c, 9, 42, 120
3, 44365, Note_on_c, 9, 42, 0
3, 44400, Note_on_c, 9, 35, 120
3, 44400, Note_on_c, 9, 42, 120
3, 44425, Note_on_c, 9, 42, 0
3, 44425, Note_on_c, 9, 35, 0
3, 44460, Note_on_c, 9, 42, 120
3, 44485, Note_on_c, 9, 42, 0
3, 44520, Note_on_c, 9, 42, 120
3, 44520, Note_on_c, 9, 37, 120
3, 44545, Note_on_c, 9, 37, 0
3, 44545, Note_on_c, 9, 42, 0
3, 44580, Note_on_c, 9, 35, 120
3, 44580, Note_on_c, 9, 42, 120
3, 44605, Note_on_c, 9, 42, 0
3, 44605, Note_on_c, 9, 35, 0
3, 44640, Note_on_c, 9, 35, 120
3, 44640, Note_on_c, 9, 42, 120
3, 44665, Note_on_c, 9, 42, 0
3, 44665, Note_on_c, 9, 35, 0
3, 44700, Note_on_c, 9, 42, 120
3, 44725, Note_on_c, 9, 42, 0
3, 44760, Note_on_c, 9, 42, 120
3, 44760, Note_on_c, 9, 37, 120
3, 44785, Note_on_c, 9, 37, 0
3, 44785, Note_on_c, 9, 42, 0
3, 44820, Note_on_c, 9, 42, 120
3, 44845, Note_on_c, 9, 42, 0
3, 44880, Note_on_c, 9, 35, 120
3, 44880, Note_on_c, 9, 42, 120
3, 44905, Note_on_c, 9, 42, 0
3, 44905, Note_on_c, 9, 35, 0
3, 44940, Note_on_c, 9, 42, 120
3, 44965, Note_on_c, 9, 42, 0
3, 45000, Note_on_c, 9, 42, 120
3, 45000, Note_on_c, 9, 37, 120
3, 45025, Note_on_c, 9, 37, 0
3, 45025, Note_on_c, 9, 42, 0
3, 45060, Note_on_c, 9, 42, 120
3, 45085, Note_on_c, 9, 42, 0
3, 45120, Note_on_c, 9, 35, 120
3, 45120, Note_on_c, 9, 42, 120
3, 45145, Note_on_c, 9, 42, 0
3, 45145, Note_on_c, 9, 35, 0
3, 45180, Note_on_c, 9, 42, 120
3, 45205, Note_on_c, 9, 42, 0
3, 45240, Note_on_c, 9, 42, 120
3, 45240, Note_on_c, 9, 37, 120
3, 45265, Note_on_c, 9, 37, 0
3, 45265, Note_on_c, 9, 42, 0
3, 45300, Note_on_c, 9, 42, 120
3, 45325, Note_on_c, 9, 42, 0
3, 45360, Note_on_c, 9, 35, 120
3, 45360, Note_on_c, 9, 42, 120
3, 45385, Note_on_c, 9, 42, 0
3, 45385, Note_on_c, 9, 35, 0
3, 45420, Note_on_c, 9, 42, 120
3, 45445, Note_on_c, 9, 42, 0
3, 45480, Note_on_c, 9, 42, 120
3, 45480, Note_on_c, 9, 37, 120
3, 45505, Note_on_c, 9, 37, 0
3, 45505, Note_on_c, 9, 42, 0
3, 45540, Note_on_c, 9, 35, 120
3, 45540, Note_on_c, 9, 42, 120
3, 45565, Note_on_c, 9, 42, 0
3, 45565, Note_on_c, 9, 35, 0
3, 45600, Note_on_c, 9, 35, 120
3, 45600, Note_on_c, 9, 42, 120
3, 45625, Note_on_c, 9, 42, 0
3, 45625, Note_on_c, 9, 35, 0
3, 45660, Note_on_c, 9, 42, 120
3, 45685, Note_on_c, 9, 42, 0
3, 45720, Note_on_c, 9, 42, 120
3, 45720, Note_on_c, 9, 37, 120
3, 45745, Note_on_c, 9, 37, 0
3, 45745, Note_on_c, 9, 42, 0
3, 45780, Note_on_c, 9, 46, 120
3, 45805, Note_on_c, 9, 46, 0
3, 45840, Note_on_c, 9, 35, 120
3, 45840, Note_on_c, 9, 42, 120
3, 45865, Note_on_c, 9, 42, 0
3, 45865, Note_on_c, 9, 35, 0
3, 45900, Note_on_c, 9, 42, 120
3, 45925, Note_on_c, 9, 42, 0
3, 45960, Note_on_c, 9, 42, 120
3, 45960, Note_on_c, 9, 37, 120
3, 45985, Note_on_c, 9, 37, 0
3, 45985, Note_on_c, 9, 42, 0
3, 46020, Note_on_c, 9, 42, 120
3, 46045, Note_on_c, 9, 42, 0
3, 46080, Note_on_c, 9, 35, 120
3, 46080, Note_on_c, 9, 42, 120
3, 46105, Note_on_c, 9, 42, 0
3, 46105, Note_on_c, 9, 35, 0
3, 46140, Note_on_c, 9, 42, 120
3, 46165, Note_on_c, 9, 42, 0
3, 46200, Note_on_c, 9, 42, 120
3, 46200, Note_on_c, 9, 37, 120
3, 46225, Note_on_c, 9, 37, 0
3, 46225, Note_on_c, 9, 42, 0
3, 46260, Note_on_c, 9, 42, 120
3, 46285, Note_on_c, 9, 42, 0
3, 46320, Note_on_c, 9, 35, 120
3, 46320, Note_on_c, 9, 42, 120
3, 46345, Note_on_c, 9, 42, 0
3, 46345, Note_on_c, 9, 35, 0
3, 46380, Note_on_c, 9, 42, 120
3, 46405, Note_on_c, 9, 42, 0
3, 46440, Note_on_c, 9, 42, 120
3, 46440, Note_on_c, 9, 37, 120
3, 46465, Note_on_c, 9, 37, 0
3, 46465, Note_on_c, 9, 42, 0
3, 46500, Note_on_c, 9, 35, 120
3, 46500, Note_on_c, 9, 46, 120
3, 46525, Note_on_c, 9, 46, 0
3, 46525, Note_on_c, 9, 35, 0
3, 46560, Note_on_c, 9, 35, 120
3, 46560, Note_on_c, 9, 42, 120
3, 46585, Note_on_c, 9, 42, 0
3, 46585, Note_on_c, 9, 35, 0
3, 46620, Note_on_c, 9, 42, 120
3, 46645, Note_on_c, 9, 42, 0
3, 46680, Note_on_c, 9, 42, 120
3, 46680, Note_on_c, 9, 37, 120
3, 46705, Note_on_c, 9, 37, 0
3, 46705, Note_on_c, 9, 42, 0
3, 46740, Note_on_c, 9, 46, 120
3, 46765, Note_on_c, 9, 46, 0
3, 46800, Note_on_c, 9, 35, 120
3, 46800, Note_on_c, 9, 42, 120
3, 46825, Note_on_c, 9, 42, 0
3, 46825, Note_on_c, 9, 35, 0
3, 46860, Note_on_c, 9, 42, 120
3, 46885, Note_on_c, 9, 42, 0
3, 46920, Note_on_c, 9, 42, 120
3, 46920, Note_on_c, 9, 37, 120
3, 46945, Note_on_c, 9, 37, 0
3, 46945, Note_on_c, 9, 42, 0
3, 46980, Note_on_c, 9, 42, 120
3, 47005, Note_on_c, 9, 42, 0
3, 47040, Note_on_c, 9, 35, 120
3, 47040, Note_on_c, 9, 42, 120
3, 47065, Note_on_c, 9, 42, 0
3, 47065, Note_on_c, 9, 35, 0
3, 47100, Note_on_c, 9, 42, 120
3, 47125, Note_on_c, 9, 42, 0
3, 47160, Note_on_c, 9, 42, 120
3, 47160, Note_on_c, 9, 37, 120
3, 47185, Note_on_c, 9, 37, 0
3, 47185, Note_on_c, 9, 42, 0
3, 47220, Note_on_c, 9, 42, 120
3, 47245, Note_on_c, 9, 42, 0
3, 47280, Note_on_c, 9, 35, 120
3, 47280, Note_on_c, 9, 42, 120
3, 47305, Note_on_c, 9, 42, 0
3, 47305, Note_on_c, 9, 35, 0
3, 47340, Note_on_c, 9, 42, 120
3, 47365, Note_on_c, 9, 42, 0
3, 47400, Note_on_c, 9, 42, 120
3, 47400, Note_on_c, 9, 37, 120
3, 47425, Note_on_c, 9, 37, 0
3, 47425, Note_on_c, 9, 42, 0
3, 47460, Note_on_c, 9, 35, 120
3, 47460, Note_on_c, 9, 42, 120
3, 47485, Note_on_c, 9, 42, 0
3, 47485, Note_on_c, 9, 35, 0
3, 47520, Note_on_c, 9, 35, 120
3, 47520, Note_on_c, 9, 42, 120
3, 47545, Note_on_c, 9, 42, 0
3, 47545, Note_on_c, 9, 35, 0
3, 47580, Note_on_c, 9, 42, 120
3, 47605, Note_on_c, 9, 42, 0
3, 47640, Note_on_c, 9, 42, 120
3, 47640, Note_on_c, 9, 37, 120
3, 47665, Note_on_c, 9, 37, 0
3, 47665, Note_on_c, 9, 42, 0
3, 47700, Note_on_c, 9, 46, 120
3, 47725, Note_on_c, 9, 46, 0
3, 47760, Note_on_c, 9, 35, 120
3, 47760, Note_on_c, 9, 42, 120
3, 47785, Note_on_c, 9, 42, 0
3, 47785, Note_on_c, 9, 35, 0
3, 47820, Note_on_c, 9, 42, 120
3, 47845, Note_on_c, 9, 42, 0
3, 47880, Note_on_c, 9, 42, 120
3, 47880, Note_on_c, 9, 37, 120
3, 47905, Note_on_c, 9, 37, 0
3, 47905, Note_on_c, 9, 42, 0
3, 47940, Note_on_c, 9, 42, 120
3, 47965, Note_on_c, 9, 42, 0
3, 48000, Note_on_c, 9, 35, 120
3, 48000, Note_on_c, 9, 42, 120
3, 48025, Note_on_c, 9, 42, 0
3, 48025, Note_on_c, 9, 35, 0
3, 48060, Note_on_c, 9, 42, 120
3, 48085, Note_on_c, 9, 42, 0
3, 48120, Note_on_c, 9, 42, 120
3, 48120, Note_on_c, 9, 37, 120
3, 48145, Note_on_c, 9, 37, 0
3, 48145, Note_on_c, 9, 42, 0
3, 48180, Note_on_c, 9, 42, 120
3, 48205, Note_on_c, 9, 42, 0
3, 48240, Note_on_c, 9, 35, 120
3, 48240, Note_on_c, 9, 42, 120
3, 48265, Note_on_c, 9, 42, 0
3, 48265, Note_on_c, 9, 35, 0
3, 48300, Note_on_c, 9, 42, 120
3, 48325, Note_on_c, 9, 42, 0
3, 48360, Note_on_c, 9, 42, 120
3, 48360, Note_on_c, 9, 37, 120
3, 48385, Note_on_c, 9, 37, 0
3, 48385, Note_on_c, 9, 42, 0
3, 48420, Note_on_c, 9, 35, 120
3, 48420, Note_on_c, 9, 42, 120
3, 48445, Note_on_c, 9, 42, 0
3, 48445, Note_on_c, 9, 35, 0
3, 48480, Note_on_c, 9, 35, 120
3, 48480, Note_on_c, 9, 42, 120
3, 48505, Note_on_c, 9, 42, 0
3, 48505, Note_on_c, 9, 35, 0
3, 48540, Note_on_c, 9, 42, 120
3, 48565, Note_on_c, 9, 42, 0
3, 48600, Note_on_c, 9, 42, 120
3, 48600, Note_on_c, 9, 37, 120
3, 48625, Note_on_c, 9, 37, 0
3, 48625, Note_on_c, 9, 42, 0
3, 48660, Note_on_c, 9, 42, 120
3, 48685, Note_on_c, 9, 42, 0
3, 48720, Note_on_c, 9, 35, 120
3, 48720, Note_on_c, 9, 42, 120
3, 48745, Note_on_c, 9, 42, 0
3, 48745, Note_on_c, 9, 35, 0
3, 48780, Note_on_c, 9, 42, 120
3, 48805, Note_on_c, 9, 42, 0
3, 48840, Note_on_c, 9, 42, 120
3, 48840, Note_on_c, 9, 37, 120
3, 48865, Note_on_c, 9, 37, 0
3, 48865, Note_on_c, 9, 42, 0
3, 48900, Note_on_c, 9, 42, 120
3, 48925, Note_on_c, 9, 42, 0
3, 48960, Note_on_c, 9, 35, 120
3, 48960, Note_on_c, 9, 42, 120
3, 48985, Note_on_c, 9, 42, 0
3, 48985, Note_on_c, 9, 35, 0
3, 49080, Note_on_c, 9, 48, 120
3, 49105, Note_on_c, 9, 48, 0
3, 49140, Note_on_c, 9, 35, 120
3, 49165, Note_on_c, 9, 35, 0
3, 49200, Note_on_c, 9, 35, 120
3, 49200, Note_on_c, 9, 45, 120
3, 49225, Note_on_c, 9, 45, 0
3, 49225, Note_on_c, 9, 35, 0
3, 49260, Note_on_c, 9, 41, 120
3, 49285, Note_on_c, 9, 41, 0
3, 49320, Note_on_c, 9, 41, 120
3, 49345, Note_on_c, 9, 41, 0
3, 49380, Note_on_c, 9, 35, 120
3, 49380, Note_on_c, 9, 49, 120
3, 49405, Note_on_c, 9, 49, 0
3, 49405, Note_on_c, 9, 35, 0
3, 49440, Note_on_c, 9, 35, 120
3, 49440, Note_on_c, 9, 49, 120
3, 49465, Note_on_c, 9, 49, 0
3, 49465, Note_on_c, 9, 35, 0
3, 49680, Note_on_c, 9, 35, 120
3, 49680, Note_on_c, 9, 42, 120
3, 49705, Note_on_c, 9, 42, 0
3, 49705, Note_on_c, 9, 35, 0
3, 49920, Note_on_c, 9, 35, 120
3, 49920, Note_on_c, 9, 42, 120
3, 49945, Note_on_c, 9, 42, 0
3, 49945, Note_on_c, 9, 35, 0
3, 50160, Note_on_c, 9, 35, 120
3, 50160, Note_on_c, 9, 45, 120
3, 50185, Note_on_c, 9, 45, 0
3, 50185, Note_on_c, 9, 35, 0
3, 50220, Note_on_c, 9, 41, 120
3, 50245, Note_on_c, 9, 41, 0
3, 50280, Note_on_c, 9, 41, 120
3, 50305, Note_on_c, 9, 41, 0
3, 50340, Note_on_c, 9, 35, 120
3, 50340, Note_on_c, 9, 49, 120
3, 50365, Note_on_c, 9, 49, 0
3, 50365, Note_on_c, 9, 35, 0
3, 50400, Note_on_c, 9, 35, 120
3, 50400, Note_on_c, 9, 42, 120
3, 50400, Note_on_c, 9, 49, 120
3, 50425, Note_on_c, 9, 49, 0
3, 50425, Note_on_c, 9, 42, 0
3, 50425, Note_on_c, 9, 35, 0
3, 50460, Note_on_c, 9, 42, 120
3, 50485, Note_on_c, 9, 42, 0
3, 50520, Note_on_c, 9, 38, 120
3, 50520, Note_on_c, 9, 42, 120
3, 50545, Note_on_c, 9, 42, 0
3, 50545, Note_on_c, 9, 38, 0
3, 50580, Note_on_c, 9, 35, 120
3, 50580, Note_on_c, 9, 42, 120
3, 50605, Note_on_c, 9, 42, 0
3, 50605, Note_on_c, 9, 35, 0
3, 50640, Note_on_c, 9, 35, 120
3, 50640, Note_on_c, 9, 42, 120
3, 50665, Note_on_c, 9, 42, 0
3, 50665, Note_on_c, 9, 35, 0
3, 50700, Note_on_c, 9, 42, 120
3, 50700, Note_on_c, 9, 41, 120
3, 50725, Note_on_c, 9, 41, 0
3, 50725, Note_on_c, 9, 42, 0
3, 50760, Note_on_c, 9, 38, 120
3, 50760, Note_on_c, 9, 42, 120
3, 50785, Note_on_c, 9, 42, 0
3, 50785, Note_on_c, 9, 38, 0
3, 50820, Note_on_c, 9, 35, 120
3, 50820, Note_on_c, 9, 42, 120
3, 50820, Note_on_c, 9, 49, 120
3, 50845, Note_on_c, 9, 49, 0
3, 50845, Note_on_c, 9, 42, 0
3, 50845, Note_on_c, 9, 35, 0
3, 50880, Note_on_c, 9, 35, 120
3, 50880, Note_on_c, 9, 49, 120
3, 50905, Note_on_c, 9, 49, 0
3, 50905, Note_on_c, 9, 35, 0
3, 50905, End_track
4, 0, Start_track
4, 0, MIDI_port, 0
4, 0, Title_t, """Love Is All We Need"" Tommy Edwards 1958"
4, 0, End_track
5, 0, Start_track
5, 0, MIDI_port, 0
5, 0, Title_t, "Sequenced by F.DiGiovannangelo"
5, 0, End_track
6, 0, Start_track
6, 0, MIDI_port, 0
6, 0, Title_t, "awemusic@angelfire.com"
6, 0, End_track
7, 0, Start_track
7, 0, MIDI_port, 0
7, 0, Title_t, "http://www.angelfire.com/pa/AWEmusic"
7, 0, End_track
8, 0, Start_track
8, 0, MIDI_port, 0
8, 0, Title_t, "Fx 4"
8, 0, Program_c, 5, 99
8, 0, Control_c, 5, 7, 47
8, 0, Control_c, 5, 10, 59
8, 6, Note_on_c, 5, 60, 52
8, 11, Note_on_c, 5, 67, 52
8, 226, Note_on_c, 5, 60, 0
8, 231, Note_on_c, 5, 67, 0
8, 246, Note_on_c, 5, 57, 52
8, 251, Note_on_c, 5, 64, 52
8, 466, Note_on_c, 5, 57, 0
8, 471, Note_on_c, 5, 64, 0
8, 486, Note_on_c, 5, 62, 53
8, 491, Note_on_c, 5, 69, 53
8, 600, Note_on_c, 5, 69, 0
8, 600, Note_on_c, 5, 62, 0
8, 722, Note_on_c, 5, 62, 53
8, 726, Note_on_c, 5, 68, 53
8, 894, Note_on_c, 5, 68, 0
8, 898, Note_on_c, 5, 68, 53
8, 960, Note_on_c, 5, 68, 0
8, 960, Note_on_c, 5, 62, 0
8, 966, Note_on_c, 5, 60, 54
8, 971, Note_on_c, 5, 67, 54
8, 1080, Note_on_c, 5, 67, 0
8, 1080, Note_on_c, 5, 60, 0
8, 1206, Note_on_c, 5, 62, 54
8, 1211, Note_on_c, 5, 67, 54
8, 1320, Note_on_c, 5, 67, 0
8, 1320, Note_on_c, 5, 62, 0
8, 1440, Note_on_c, 5, 52, 120
8, 1440, Note_on_c, 5, 55, 120
8, 1614, Note_on_c, 5, 60, 120
8, 1680, Note_on_c, 5, 60, 0
8, 1680, Note_on_c, 5, 55, 0
8, 1680, Note_on_c, 5, 52, 0
8, 1680, Note_on_c, 5, 48, 120
8, 1680, Note_on_c, 5, 52, 120
8, 1854, Note_on_c, 5, 57, 120
8, 1920, Note_on_c, 5, 57, 0
8, 1920, Note_on_c, 5, 52, 0
8, 1920, Note_on_c, 5, 48, 0
8, 1920, Note_on_c, 5, 53, 120
8, 1920, Note_on_c, 5, 57, 120
8, 2094, Note_on_c, 5, 62, 120
8, 2160, Note_on_c, 5, 62, 0
8, 2160, Note_on_c, 5, 57, 0
8, 2160, Note_on_c, 5, 53, 0
8, 2160, Note_on_c, 5, 47, 120
8, 2160, Note_on_c, 5, 50, 120
8, 2334, Note_on_c, 5, 55, 120
8, 2400, Note_on_c, 5, 55, 0
8, 2400, Note_on_c, 5, 50, 0
8, 2400, Note_on_c, 5, 47, 0
8, 2400, Note_on_c, 5, 52, 120
8, 2400, Note_on_c, 5, 55, 120
8, 2574, Note_on_c, 5, 60, 120
8, 2640, Note_on_c, 5, 60, 0
8, 2640, Note_on_c, 5, 55, 0
8, 2640, Note_on_c, 5, 52, 0
8, 2640, Note_on_c, 5, 55, 120
8, 2640, Note_on_c, 5, 59, 120
8, 2814, Note_on_c, 5, 64, 120
8, 2880, Note_on_c, 5, 64, 0
8, 2880, Note_on_c, 5, 59, 0
8, 2880, Note_on_c, 5, 55, 0
8, 2880, Note_on_c, 5, 53, 120
8, 2880, Note_on_c, 5, 57, 120
8, 3054, Note_on_c, 5, 62, 120
8, 3120, Note_on_c, 5, 62, 0
8, 3120, Note_on_c, 5, 57, 0
8, 3120, Note_on_c, 5, 53, 0
8, 3120, Note_on_c, 5, 47, 120
8, 3120, Note_on_c, 5, 50, 120
8, 3294, Note_on_c, 5, 55, 120
8, 3360, Note_on_c, 5, 55, 0
8, 3360, Note_on_c, 5, 50, 0
8, 3360, Note_on_c, 5, 47, 0
8, 3360, Note_on_c, 5, 52, 120
8, 3360, Note_on_c, 5, 55, 120
8, 3534, Note_on_c, 5, 60, 120
8, 3600, Note_on_c, 5, 60, 0
8, 3600, Note_on_c, 5, 55, 0
8, 3600, Note_on_c, 5, 52, 0
8, 3600, Note_on_c, 5, 48, 120
8, 3600, Note_on_c, 5, 52, 120
8, 3774, Note_on_c, 5, 57, 120
8, 3840, Note_on_c, 5, 57, 0
8, 3840, Note_on_c, 5, 52, 0
8, 3840, Note_on_c, 5, 48, 0
8, 3840, Note_on_c, 5, 53, 120
8, 3840, Note_on_c, 5, 57, 120
8, 4014, Note_on_c, 5, 62, 120
8, 4080, Note_on_c, 5, 62, 0
8, 4080, Note_on_c, 5, 57, 0
8, 4080, Note_on_c, 5, 53, 0
8, 4080, Note_on_c, 5, 47, 120
8, 4080, Note_on_c, 5, 50, 120
8, 4254, Note_on_c, 5, 55, 120
8, 4320, Note_on_c, 5, 55, 0
8, 4320, Note_on_c, 5, 50, 0
8, 4320, Note_on_c, 5, 47, 0
8, 4320, Note_on_c, 5, 52, 120
8, 4320, Note_on_c, 5, 55, 120
8, 4494, Note_on_c, 5, 60, 120
8, 4560, Note_on_c, 5, 60, 0
8, 4560, Note_on_c, 5, 55, 0
8, 4560, Note_on_c, 5, 52, 0
8, 4560, Note_on_c, 5, 55, 120
8, 4560, Note_on_c, 5, 59, 120
8, 4734, Note_on_c, 5, 64, 120
8, 4800, Note_on_c, 5, 64, 0
8, 4800, Note_on_c, 5, 59, 0
8, 4800, Note_on_c, 5, 55, 0
8, 4800, Note_on_c, 5, 53, 120
8, 4800, Note_on_c, 5, 57, 120
8, 4974, Note_on_c, 5, 62, 120
8, 5040, Note_on_c, 5, 62, 0
8, 5040, Note_on_c, 5, 57, 0
8, 5040, Note_on_c, 5, 53, 0
8, 5040, Note_on_c, 5, 47, 120
8, 5040, Note_on_c, 5, 50, 120
8, 5214, Note_on_c, 5, 55, 120
8, 5280, Note_on_c, 5, 55, 0
8, 5280, Note_on_c, 5, 50, 0
8, 5280, Note_on_c, 5, 47, 0
8, 5280, Note_on_c, 5, 46, 120
8, 5280, Note_on_c, 5, 50, 120
8, 5454, Note_on_c, 5, 55, 120
8, 5520, Note_on_c, 5, 55, 0
8, 5520, Note_on_c, 5, 50, 0
8, 5520, Note_on_c, 5, 46, 0
8, 5520, Note_on_c, 5, 52, 120
8, 5520, Note_on_c, 5, 55, 120
8, 5694, Note_on_c, 5, 60, 120
8, 5760, Note_on_c, 5, 60, 0
8, 5760, Note_on_c, 5, 55, 0
8, 5760, Note_on_c, 5, 52, 0
8, 5762, Note_on_c, 5, 57, 120
8, 5765, Note_on_c, 5, 60, 120
8, 5943, Note_on_c, 5, 60, 0
8, 5943, Note_on_c, 5, 65, 120
8, 5947, Note_on_c, 5, 60, 120
8, 6049, Note_on_c, 5, 60, 0
8, 6058, Note_on_c, 5, 60, 120
8, 6111, Note_on_c, 5, 57, 0
8, 6115, Note_on_c, 5, 57, 120
8, 6117, Note_on_c, 5, 60, 0
8, 6122, Note_on_c, 5, 60, 120
8, 6240, Note_on_c, 5, 60, 0
8, 6240, Note_on_c, 5, 57, 0
8, 6240, Note_on_c, 5, 65, 0
8, 6240, Note_on_c, 5, 46, 120
8, 6240, Note_on_c, 5, 50, 120
8, 6414, Note_on_c, 5, 55, 120
8, 6480, Note_on_c, 5, 55, 0
8, 6480, Note_on_c, 5, 50, 0
8, 6480, Note_on_c, 5, 46, 0
8, 6480, Note_on_c, 5, 52, 120
8, 6480, Note_on_c, 5, 55, 120
8, 6654, Note_on_c, 5, 60, 120
8, 6720, Note_on_c, 5, 60, 0
8, 6720, Note_on_c, 5, 55, 0
8, 6720, Note_on_c, 5, 52, 0
8, 6722, Note_on_c, 5, 57, 120
8, 6725, Note_on_c, 5, 60, 120
8, 6903, Note_on_c, 5, 60, 0
8, 6903, Note_on_c, 5, 65, 120
8, 6907, Note_on_c, 5, 60, 120
8, 7009, Note_on_c, 5, 60, 0
8, 7018, Note_on_c, 5, 60, 120
8, 7071, Note_on_c, 5, 57, 0
8, 7075, Note_on_c, 5, 57, 120
8, 7077, Note_on_c, 5, 60, 0
8, 7082, Note_on_c, 5, 60, 120
8, 7200, Note_on_c, 5, 60, 0
8, 7200, Note_on_c, 5, 57, 0
8, 7200, Note_on_c, 5, 65, 0
8, 7200, Note_on_c, 5, 48, 120
8, 7200, Note_on_c, 5, 52, 120
8, 7374, Note_on_c, 5, 57, 120
8, 7440, Note_on_c, 5, 57, 0
8, 7440, Note_on_c, 5, 52, 0
8, 7440, Note_on_c, 5, 48, 0
8, 7440, Note_on_c, 5, 54, 120
8, 7440, Note_on_c, 5, 57, 120
8, 7614, Note_on_c, 5, 62, 120
8, 7680, Note_on_c, 5, 62, 0
8, 7680, Note_on_c, 5, 57, 0
8, 7680, Note_on_c, 5, 54, 0
8, 7682, Note_on_c, 5, 47, 120
8, 7685, Note_on_c, 5, 50, 120
8, 7863, Note_on_c, 5, 50, 0
8, 7863, Note_on_c, 5, 55, 120
8, 7867, Note_on_c, 5, 50, 120
8, 7969, Note_on_c, 5, 50, 0
8, 7978, Note_on_c, 5, 50, 120
8, 8031, Note_on_c, 5, 47, 0
8, 8035, Note_on_c, 5, 47, 120
8, 8037, Note_on_c, 5, 50, 0
8, 8042, Note_on_c, 5, 50, 120
8, 8160, Note_on_c, 5, 50, 0
8, 8160, Note_on_c, 5, 47, 0
8, 8160, Note_on_c, 5, 55, 0
8, 8160, Note_on_c, 5, 48, 120
8, 8160, Note_on_c, 5, 52, 120
8, 8334, Note_on_c, 5, 57, 120
8, 8400, Note_on_c, 5, 57, 0
8, 8400, Note_on_c, 5, 52, 0
8, 8400, Note_on_c, 5, 48, 0
8, 8400, Note_on_c, 5, 54, 120
8, 8400, Note_on_c, 5, 57, 120
8, 8574, Note_on_c, 5, 62, 120
8, 8640, Note_on_c, 5, 62, 0
8, 8640, Note_on_c, 5, 57, 0
8, 8640, Note_on_c, 5, 54, 0
8, 8640, Note_on_c, 5, 53, 120
8, 8640, Note_on_c, 5, 57, 120
8, 8814, Note_on_c, 5, 62, 120
8, 8880, Note_on_c, 5, 62, 0
8, 8880, Note_on_c, 5, 57, 0
8, 8880, Note_on_c, 5, 53, 0
8, 8880, Note_on_c, 5, 47, 120
8, 8880, Note_on_c, 5, 50, 120
8, 9054, Note_on_c, 5, 55, 120
8, 9120, Note_on_c, 5, 55, 0
8, 9120, Note_on_c, 5, 50, 0
8, 9120, Note_on_c, 5, 47, 0
8, 9120, Note_on_c, 5, 52, 120
8, 9120, Note_on_c, 5, 55, 120
8, 9294, Note_on_c, 5, 60, 120
8, 9360, Note_on_c, 5, 60, 0
8, 9360, Note_on_c, 5, 55, 0
8, 9360, Note_on_c, 5, 52, 0
8, 9360, Note_on_c, 5, 48, 120
8, 9360, Note_on_c, 5, 52, 120
8, 9534, Note_on_c, 5, 57, 120
8, 9600, Note_on_c, 5, 57, 0
8, 9600, Note_on_c, 5, 52, 0
8, 9600, Note_on_c, 5, 48, 0
8, 9600, Note_on_c, 5, 53, 120
8, 9600, Note_on_c, 5, 57, 120
8, 9774, Note_on_c, 5, 62, 120
8, 9840, Note_on_c, 5, 62, 0
8, 9840, Note_on_c, 5, 57, 0
8, 9840, Note_on_c, 5, 53, 0
8, 9840, Note_on_c, 5, 47, 120
8, 9840, Note_on_c, 5, 50, 120
8, 10014, Note_on_c, 5, 55, 120
8, 10080, Note_on_c, 5, 55, 0
8, 10080, Note_on_c, 5, 50, 0
8, 10080, Note_on_c, 5, 47, 0
8, 10080, Note_on_c, 5, 52, 120
8, 10080, Note_on_c, 5, 55, 120
8, 10254, Note_on_c, 5, 60, 120
8, 10320, Note_on_c, 5, 60, 0
8, 10320, Note_on_c, 5, 55, 0
8, 10320, Note_on_c, 5, 52, 0
8, 10320, Note_on_c, 5, 55, 120
8, 10320, Note_on_c, 5, 59, 120
8, 10494, Note_on_c, 5, 64, 120
8, 10560, Note_on_c, 5, 64, 0
8, 10560, Note_on_c, 5, 59, 0
8, 10560, Note_on_c, 5, 55, 0
8, 10560, Note_on_c, 5, 53, 120
8, 10560, Note_on_c, 5, 57, 120
8, 10734, Note_on_c, 5, 62, 120
8, 10800, Note_on_c, 5, 62, 0
8, 10800, Note_on_c, 5, 57, 0
8, 10800, Note_on_c, 5, 53, 0
8, 10800, Note_on_c, 5, 47, 120
8, 10800, Note_on_c, 5, 50, 120
8, 10974, Note_on_c, 5, 55, 120
8, 11040, Note_on_c, 5, 55, 0
8, 11040, Note_on_c, 5, 50, 0
8, 11040, Note_on_c, 5, 47, 0
8, 11042, Note_on_c, 5, 60, 120
8, 11046, Note_on_c, 5, 67, 120
8, 11214, Note_on_c, 5, 67, 0
8, 11218, Note_on_c, 5, 67, 120
8, 11280, Note_on_c, 5, 67, 0
8, 11280, Note_on_c, 5, 60, 0
8, 11282, Note_on_c, 5, 57, 120
8, 11286, Note_on_c, 5, 64, 120
8, 11454, Note_on_c, 5, 64, 0
8, 11458, Note_on_c, 5, 64, 120
8, 11520, Note_on_c, 5, 64, 0
8, 11520, Note_on_c, 5, 57, 0
8, 11522, Note_on_c, 5, 62, 120
8, 11526, Note_on_c, 5, 69, 120
8, 11694, Note_on_c, 5, 69, 0
8, 11698, Note_on_c, 5, 69, 120
8, 11760, Note_on_c, 5, 69, 0
8, 11760, Note_on_c, 5, 62, 0
8, 11762, Note_on_c, 5, 55, 120
8, 11766, Note_on_c, 5, 62, 120
8, 11934, Note_on_c, 5, 62, 0
8, 11938, Note_on_c, 5, 62, 120
8, 12000, Note_on_c, 5, 62, 0
8, 12000, Note_on_c, 5, 55, 0
8, 12002, Note_on_c, 5, 60, 120
8, 12006, Note_on_c, 5, 67, 120
8, 12174, Note_on_c, 5, 67, 0
8, 12178, Note_on_c, 5, 67, 120
8, 12240, Note_on_c, 5, 67, 0
8, 12240, Note_on_c, 5, 60, 0
8, 12242, Note_on_c, 5, 64, 120
8, 12246, Note_on_c, 5, 71, 120
8, 12414, Note_on_c, 5, 71, 0
8, 12418, Note_on_c, 5, 71, 120
8, 12480, Note_on_c, 5, 71, 0
8, 12480, Note_on_c, 5, 64, 0
8, 12482, Note_on_c, 5, 62, 120
8, 12486, Note_on_c, 5, 69, 120
8, 12654, Note_on_c, 5, 69, 0
8, 12658, Note_on_c, 5, 69, 120
8, 12720, Note_on_c, 5, 69, 0
8, 12720, Note_on_c, 5, 62, 0
8, 12722, Note_on_c, 5, 55, 120
8, 12726, Note_on_c, 5, 62, 120
8, 12894, Note_on_c, 5, 62, 0
8, 12898, Note_on_c, 5, 62, 120
8, 12960, Note_on_c, 5, 62, 0
8, 12960, Note_on_c, 5, 55, 0
8, 12962, Note_on_c, 5, 60, 120
8, 12966, Note_on_c, 5, 67, 120
8, 13134, Note_on_c, 5, 67, 0
8, 13138, Note_on_c, 5, 67, 120
8, 13200, Note_on_c, 5, 67, 0
8, 13200, Note_on_c, 5, 60, 0
8, 13202, Note_on_c, 5, 57, 120
8, 13206, Note_on_c, 5, 64, 120
8, 13374, Note_on_c, 5, 64, 0
8, 13378, Note_on_c, 5, 64, 120
8, 13440, Note_on_c, 5, 64, 0
8, 13440, Note_on_c, 5, 57, 0
8, 13442, Note_on_c, 5, 62, 120
8, 13446, Note_on_c, 5, 69, 120
8, 13614, Note_on_c, 5, 69, 0
8, 13618, Note_on_c, 5, 69, 120
8, 13680, Note_on_c, 5, 69, 0
8, 13680, Note_on_c, 5, 62, 0
8, 13682, Note_on_c, 5, 55, 120
8, 13686, Note_on_c, 5, 62, 120
8, 13854, Note_on_c, 5, 62, 0
8, 13858, Note_on_c, 5, 62, 120
8, 13920, Note_on_c, 5, 62, 0
8, 13920, Note_on_c, 5, 55, 0
8, 13922, Note_on_c, 5, 60, 120
8, 13926, Note_on_c, 5, 67, 120
8, 14094, Note_on_c, 5, 67, 0
8, 14098, Note_on_c, 5, 67, 120
8, 14160, Note_on_c, 5, 67, 0
8, 14160, Note_on_c, 5, 60, 0
8, 14162, Note_on_c, 5, 64, 120
8, 14166, Note_on_c, 5, 71, 120
8, 14334, Note_on_c, 5, 71, 0
8, 14338, Note_on_c, 5, 71, 120
8, 14400, Note_on_c, 5, 71, 0
8, 14400, Note_on_c, 5, 64, 0
8, 14402, Note_on_c, 5, 62, 120
8, 14406, Note_on_c, 5, 69, 120
8, 14574, Note_on_c, 5, 69, 0
8, 14578, Note_on_c, 5, 69, 120
8, 14640, Note_on_c, 5, 69, 0
8, 14640, Note_on_c, 5, 62, 0
8, 14642, Note_on_c, 5, 55, 120
8, 14646, Note_on_c, 5, 62, 120
8, 14814, Note_on_c, 5, 62, 0
8, 14818, Note_on_c, 5, 62, 120
8, 14880, Note_on_c, 5, 62, 0
8, 14880, Note_on_c, 5, 55, 0
8, 14882, Note_on_c, 5, 55, 120
8, 14886, Note_on_c, 5, 62, 120
8, 15054, Note_on_c, 5, 62, 0
8, 15058, Note_on_c, 5, 62, 120
8, 15120, Note_on_c, 5, 62, 0
8, 15120, Note_on_c, 5, 55, 0
8, 15122, Note_on_c, 5, 60, 120
8, 15126, Note_on_c, 5, 67, 120
8, 15294, Note_on_c, 5, 67, 0
8, 15298, Note_on_c, 5, 67, 120
8, 15360, Note_on_c, 5, 67, 0
8, 15360, Note_on_c, 5, 60, 0
8, 15366, Note_on_c, 5, 72, 120
8, 15369, Note_on_c, 5, 72, 0
8, 15369, Note_on_c, 5, 65, 120
8, 15373, Note_on_c, 5, 72, 120
8, 15534, Note_on_c, 5, 72, 0
8, 15538, Note_on_c, 5, 72, 120
8, 15720, Note_on_c, 5, 65, 0
8, 15724, Note_on_c, 5, 65, 120
8, 15840, Note_on_c, 5, 65, 0
8, 15840, Note_on_c, 5, 72, 0
8, 15842, Note_on_c, 5, 55, 120
8, 15846, Note_on_c, 5, 62, 120
8, 16014, Note_on_c, 5, 62, 0
8, 16018, Note_on_c, 5, 62, 120
8, 16080, Note_on_c, 5, 62, 0
8, 16080, Note_on_c, 5, 55, 0
8, 16082, Note_on_c, 5, 60, 120
8, 16086, Note_on_c, 5, 67, 120
8, 16254, Note_on_c, 5, 67, 0
8, 16258, Note_on_c, 5, 67, 120
8, 16320, Note_on_c, 5, 67, 0
8, 16320, Note_on_c, 5, 60, 0
8, 16326, Note_on_c, 5, 72, 120
8, 16329, Note_on_c, 5, 72, 0
8, 16329, Note_on_c, 5, 65, 120
8, 16333, Note_on_c, 5, 72, 120
8, 16494, Note_on_c, 5, 72, 0
8, 16498, Note_on_c, 5, 72, 120
8, 16680, Note_on_c, 5, 65, 0
8, 16684, Note_on_c, 5, 65, 120
8, 16800, Note_on_c, 5, 65, 0
8, 16800, Note_on_c, 5, 72, 0
8, 16802, Note_on_c, 5, 57, 120
8, 16806, Note_on_c, 5, 64, 120
8, 16974, Note_on_c, 5, 64, 0
8, 16978, Note_on_c, 5, 64, 120
8, 17040, Note_on_c, 5, 64, 0
8, 17040, Note_on_c, 5, 57, 0
8, 17042, Note_on_c, 5, 62, 120
8, 17046, Note_on_c, 5, 69, 120
8, 17214, Note_on_c, 5, 69, 0
8, 17218, Note_on_c, 5, 69, 120
8, 17280, Note_on_c, 5, 69, 0
8, 17280, Note_on_c, 5, 62, 0
8, 17286, Note_on_c, 5, 62, 120
8, 17289, Note_on_c, 5, 62, 0
8, 17289, Note_on_c, 5, 55, 120
8, 17293, Note_on_c, 5, 62, 120
8, 17454, Note_on_c, 5, 62, 0
8, 17458, Note_on_c, 5, 62, 120
8, 17640, Note_on_c, 5, 55, 0
8, 17644, Note_on_c, 5, 55, 120
8, 17760, Note_on_c, 5, 55, 0
8, 17760, Note_on_c, 5, 62, 0
8, 17762, Note_on_c, 5, 57, 120
8, 17766, Note_on_c, 5, 64, 120
8, 17934, Note_on_c, 5, 64, 0
8, 17938, Note_on_c, 5, 64, 120
8, 18000, Note_on_c, 5, 64, 0
8, 18000, Note_on_c, 5, 57, 0
8, 18002, Note_on_c, 5, 62, 120
8, 18006, Note_on_c, 5, 69, 120
8, 18174, Note_on_c, 5, 69, 0
8, 18178, Note_on_c, 5, 69, 120
8, 18240, Note_on_c, 5, 69, 0
8, 18240, Note_on_c, 5, 62, 0
8, 18242, Note_on_c, 5, 62, 120
8, 18246, Note_on_c, 5, 69, 120
8, 18414, Note_on_c, 5, 69, 0
8, 18418, Note_on_c, 5, 69, 120
8, 18480, Note_on_c, 5, 69, 0
8, 18480, Note_on_c, 5, 62, 0
8, 18482, Note_on_c, 5, 55, 120
8, 18486, Note_on_c, 5, 62, 120
8, 18654, Note_on_c, 5, 62, 0
8, 18658, Note_on_c, 5, 62, 120
8, 18720, Note_on_c, 5, 62, 0
8, 18720, Note_on_c, 5, 55, 0
8, 28258, Note_on_c, 5, 62, 120
8, 28320, Note_on_c, 5, 62, 0
8, 28322, Note_on_c, 5, 60, 120
8, 28326, Note_on_c, 5, 67, 120
8, 28494, Note_on_c, 5, 67, 0
8, 28498, Note_on_c, 5, 67, 120
8, 28560, Note_on_c, 5, 67, 0
8, 28560, Note_on_c, 5, 60, 0
8, 28562, Note_on_c, 5, 57, 120
8, 28566, Note_on_c, 5, 64, 120
8, 28734, Note_on_c, 5, 64, 0
8, 28738, Note_on_c, 5, 64, 120
8, 28800, Note_on_c, 5, 64, 0
8, 28800, Note_on_c, 5, 57, 0
8, 28802, Note_on_c, 5, 62, 120
8, 28806, Note_on_c, 5, 69, 120
8, 28974, Note_on_c, 5, 69, 0
8, 28978, Note_on_c, 5, 69, 120
8, 29040, Note_on_c, 5, 69, 0
8, 29040, Note_on_c, 5, 62, 0
8, 29042, Note_on_c, 5, 55, 120
8, 29046, Note_on_c, 5, 62, 120
8, 29214, Note_on_c, 5, 62, 0
8, 29218, Note_on_c, 5, 62, 120
8, 29280, Note_on_c, 5, 62, 0
8, 29280, Note_on_c, 5, 55, 0
8, 29282, Note_on_c, 5, 60, 120
8, 29286, Note_on_c, 5, 67, 120
8, 29454, Note_on_c, 5, 67, 0
8, 29458, Note_on_c, 5, 67, 120
8, 29520, Note_on_c, 5, 67, 0
8, 29520, Note_on_c, 5, 60, 0
8, 29522, Note_on_c, 5, 64, 120
8, 29526, Note_on_c, 5, 71, 120
8, 29694, Note_on_c, 5, 71, 0
8, 29698, Note_on_c, 5, 71, 120
8, 29760, Note_on_c, 5, 71, 0
8, 29760, Note_on_c, 5, 64, 0
8, 29762, Note_on_c, 5, 62, 120
8, 29766, Note_on_c, 5, 69, 120
8, 29934, Note_on_c, 5, 69, 0
8, 29938, Note_on_c, 5, 69, 120
8, 30000, Note_on_c, 5, 69, 0
8, 30000, Note_on_c, 5, 62, 0
8, 30002, Note_on_c, 5, 55, 120
8, 30006, Note_on_c, 5, 62, 120
8, 30174, Note_on_c, 5, 62, 0
8, 30178, Note_on_c, 5, 62, 120
8, 30240, Note_on_c, 5, 62, 0
8, 30240, Note_on_c, 5, 55, 0
8, 30242, Note_on_c, 5, 60, 120
8, 30246, Note_on_c, 5, 67, 120
8, 30414, Note_on_c, 5, 67, 0
8, 30418, Note_on_c, 5, 67, 120
8, 30480, Note_on_c, 5, 67, 0
8, 30480, Note_on_c, 5, 60, 0
8, 30482, Note_on_c, 5, 57, 120
8, 30486, Note_on_c, 5, 64, 120
8, 30654, Note_on_c, 5, 64, 0
8, 30658, Note_on_c, 5, 64, 120
8, 30720, Note_on_c, 5, 64, 0
8, 30720, Note_on_c, 5, 57, 0
8, 30722, Note_on_c, 5, 62, 120
8, 30726, Note_on_c, 5, 69, 120
8, 30894, Note_on_c, 5, 69, 0
8, 30898, Note_on_c, 5, 69, 120
8, 30960, Note_on_c, 5, 69, 0
8, 30960, Note_on_c, 5, 62, 0
8, 30962, Note_on_c, 5, 55, 120
8, 30966, Note_on_c, 5, 62, 120
8, 31134, Note_on_c, 5, 62, 0
8, 31138, Note_on_c, 5, 62, 120
8, 31200, Note_on_c, 5, 62, 0
8, 31200, Note_on_c, 5, 55, 0
8, 31202, Note_on_c, 5, 60, 120
8, 31206, Note_on_c, 5, 67, 120
8, 31374, Note_on_c, 5, 67, 0
8, 31378, Note_on_c, 5, 67, 120
8, 31440, Note_on_c, 5, 67, 0
8, 31440, Note_on_c, 5, 60, 0
8, 31442, Note_on_c, 5, 64, 120
8, 31446, Note_on_c, 5, 71, 120
8, 31614, Note_on_c, 5, 71, 0
8, 31618, Note_on_c, 5, 71, 120
8, 31680, Note_on_c, 5, 71, 0
8, 31680, Note_on_c, 5, 64, 0
8, 31682, Note_on_c, 5, 62, 120
8, 31686, Note_on_c, 5, 69, 120
8, 31854, Note_on_c, 5, 69, 0
8, 31858, Note_on_c, 5, 69, 120
8, 31920, Note_on_c, 5, 69, 0
8, 31920, Note_on_c, 5, 62, 0
8, 31922, Note_on_c, 5, 55, 120
8, 31926, Note_on_c, 5, 62, 120
8, 32094, Note_on_c, 5, 62, 0
8, 32098, Note_on_c, 5, 62, 120
8, 32160, Note_on_c, 5, 62, 0
8, 32160, Note_on_c, 5, 55, 0
8, 32162, Note_on_c, 5, 60, 120
8, 32166, Note_on_c, 5, 67, 120
8, 32334, Note_on_c, 5, 67, 0
8, 32338, Note_on_c, 5, 67, 120
8, 32400, Note_on_c, 5, 67, 0
8, 32400, Note_on_c, 5, 60, 0
8, 32402, Note_on_c, 5, 57, 120
8, 32406, Note_on_c, 5, 64, 120
8, 32574, Note_on_c, 5, 64, 0
8, 32578, Note_on_c, 5, 64, 120
8, 32640, Note_on_c, 5, 64, 0
8, 32640, Note_on_c, 5, 57, 0
8, 32642, Note_on_c, 5, 62, 120
8, 32646, Note_on_c, 5, 69, 120
8, 32814, Note_on_c, 5, 69, 0
8, 32818, Note_on_c, 5, 69, 120
8, 32880, Note_on_c, 5, 69, 0
8, 32880, Note_on_c, 5, 62, 0
8, 32882, Note_on_c, 5, 55, 120
8, 32886, Note_on_c, 5, 62, 120
8, 33054, Note_on_c, 5, 62, 0
8, 33058, Note_on_c, 5, 62, 120
8, 33120, Note_on_c, 5, 62, 0
8, 33120, Note_on_c, 5, 55, 0
8, 33122, Note_on_c, 5, 60, 120
8, 33126, Note_on_c, 5, 67, 120
8, 33294, Note_on_c, 5, 67, 0
8, 33298, Note_on_c, 5, 67, 120
8, 33360, Note_on_c, 5, 67, 0
8, 33360, Note_on_c, 5, 60, 0
8, 33362, Note_on_c, 5, 64, 120
8, 33366, Note_on_c, 5, 71, 120
8, 33534, Note_on_c, 5, 71, 0
8, 33538, Note_on_c, 5, 71, 120
8, 33600, Note_on_c, 5, 71, 0
8, 33600, Note_on_c, 5, 64, 0
8, 33602, Note_on_c, 5, 62, 120
8, 33606, Note_on_c, 5, 69, 120
8, 33774, Note_on_c, 5, 69, 0
8, 33778, Note_on_c, 5, 69, 120
8, 33840, Note_on_c, 5, 69, 0
8, 33840, Note_on_c, 5, 62, 0
8, 33842, Note_on_c, 5, 55, 120
8, 33846, Note_on_c, 5, 62, 120
8, 34014, Note_on_c, 5, 62, 0
8, 34018, Note_on_c, 5, 62, 120
8, 34080, Note_on_c, 5, 62, 0
8, 34080, Note_on_c, 5, 55, 0
8, 34082, Note_on_c, 5, 55, 120
8, 34086, Note_on_c, 5, 62, 120
8, 34254, Note_on_c, 5, 62, 0
8, 34258, Note_on_c, 5, 62, 120
8, 34320, Note_on_c, 5, 62, 0
8, 34320, Note_on_c, 5, 55, 0
8, 34322, Note_on_c, 5, 60, 120
8, 34326, Note_on_c, 5, 67, 120
8, 34494, Note_on_c, 5, 67, 0
8, 34498, Note_on_c, 5, 67, 120
8, 34560, Note_on_c, 5, 67, 0
8, 34560, Note_on_c, 5, 60, 0
8, 34566, Note_on_c, 5, 72, 120
8, 34569, Note_on_c, 5, 72, 0
8, 34569, Note_on_c, 5, 65, 120
8, 34573, Note_on_c, 5, 72, 120
8, 34734, Note_on_c, 5, 72, 0
8, 34738, Note_on_c, 5, 72, 120
8, 34920, Note_on_c, 5, 65, 0
8, 34924, Note_on_c, 5, 65, 120
8, 35040, Note_on_c, 5, 65, 0
8, 35040, Note_on_c, 5, 72, 0
8, 35042, Note_on_c, 5, 55, 120
8, 35046, Note_on_c, 5, 62, 120
8, 35214, Note_on_c, 5, 62, 0
8, 35218, Note_on_c, 5, 62, 120
8, 35280, Note_on_c, 5, 62, 0
8, 35280, Note_on_c, 5, 55, 0
8, 35282, Note_on_c, 5, 60, 120
8, 35286, Note_on_c, 5, 67, 120
8, 35454, Note_on_c, 5, 67, 0
8, 35458, Note_on_c, 5, 67, 120
8, 35520, Note_on_c, 5, 67, 0
8, 35520, Note_on_c, 5, 60, 0
8, 35526, Note_on_c, 5, 72, 120
8, 35529, Note_on_c, 5, 72, 0
8, 35529, Note_on_c, 5, 65, 120
8, 35533, Note_on_c, 5, 72, 120
8, 35694, Note_on_c, 5, 72, 0
8, 35698, Note_on_c, 5, 72, 120
8, 35880, Note_on_c, 5, 65, 0
8, 35884, Note_on_c, 5, 65, 120
8, 36000, Note_on_c, 5, 65, 0
8, 36000, Note_on_c, 5, 72, 0
8, 36002, Note_on_c, 5, 57, 120
8, 36006, Note_on_c, 5, 64, 120
8, 36174, Note_on_c, 5, 64, 0
8, 36178, Note_on_c, 5, 64, 120
8, 36240, Note_on_c, 5, 64, 0
8, 36240, Note_on_c, 5, 57, 0
8, 36242, Note_on_c, 5, 62, 120
8, 36246, Note_on_c, 5, 69, 120
8, 36414, Note_on_c, 5, 69, 0
8, 36418, Note_on_c, 5, 69, 120
8, 36480, Note_on_c, 5, 69, 0
8, 36480, Note_on_c, 5, 62, 0
8, 36486, Note_on_c, 5, 62, 120
8, 36489, Note_on_c, 5, 62, 0
8, 36489, Note_on_c, 5, 55, 120
8, 36493, Note_on_c, 5, 62, 120
8, 36654, Note_on_c, 5, 62, 0
8, 36658, Note_on_c, 5, 62, 120
8, 36840, Note_on_c, 5, 55, 0
8, 36844, Note_on_c, 5, 55, 120
8, 36960, Note_on_c, 5, 55, 0
8, 36960, Note_on_c, 5, 62, 0
8, 36962, Note_on_c, 5, 57, 120
8, 36966, Note_on_c, 5, 64, 120
8, 37134, Note_on_c, 5, 64, 0
8, 37138, Note_on_c, 5, 64, 120
8, 37200, Note_on_c, 5, 64, 0
8, 37200, Note_on_c, 5, 57, 0
8, 37202, Note_on_c, 5, 62, 120
8, 37206, Note_on_c, 5, 69, 120
8, 37374, Note_on_c, 5, 69, 0
8, 37378, Note_on_c, 5, 69, 120
8, 37440, Note_on_c, 5, 69, 0
8, 37440, Note_on_c, 5, 62, 0
8, 37442, Note_on_c, 5, 62, 120
8, 37446, Note_on_c, 5, 69, 120
8, 37614, Note_on_c, 5, 69, 0
8, 37618, Note_on_c, 5, 69, 120
8, 37680, Note_on_c, 5, 69, 0
8, 37680, Note_on_c, 5, 62, 0
8, 37682, Note_on_c, 5, 55, 120
8, 37686, Note_on_c, 5, 62, 120
8, 37854, Note_on_c, 5, 62, 0
8, 37858, Note_on_c, 5, 62, 120
8, 37920, Note_on_c, 5, 62, 0
8, 37920, Note_on_c, 5, 55, 0
8, 37922, Note_on_c, 5, 60, 120
8, 37926, Note_on_c, 5, 67, 120
8, 38094, Note_on_c, 5, 67, 0
8, 38098, Note_on_c, 5, 67, 120
8, 38160, Note_on_c, 5, 67, 0
8, 38160, Note_on_c, 5, 60, 0
8, 38162, Note_on_c, 5, 57, 120
8, 38166, Note_on_c, 5, 64, 120
8, 38334, Note_on_c, 5, 64, 0
8, 38338, Note_on_c, 5, 64, 120
8, 38400, Note_on_c, 5, 64, 0
8, 38400, Note_on_c, 5, 57, 0
8, 38402, Note_on_c, 5, 62, 120
8, 38406, Note_on_c, 5, 69, 120
8, 38574, Note_on_c, 5, 69, 0
8, 38578, Note_on_c, 5, 69, 120
8, 38640, Note_on_c, 5, 69, 0
8, 38640, Note_on_c, 5, 62, 0
8, 38642, Note_on_c, 5, 55, 120
8, 38646, Note_on_c, 5, 62, 120
8, 38814, Note_on_c, 5, 62, 0
8, 38818, Note_on_c, 5, 62, 120
8, 38880, Note_on_c, 5, 62, 0
8, 38880, Note_on_c, 5, 55, 0
8, 38882, Note_on_c, 5, 60, 120
8, 38886, Note_on_c, 5, 67, 120
8, 39054, Note_on_c, 5, 67, 0
8, 39058, Note_on_c, 5, 67, 120
8, 39120, Note_on_c, 5, 67, 0
8, 39120, Note_on_c, 5, 60, 0
8, 39122, Note_on_c, 5, 64, 120
8, 39126, Note_on_c, 5, 71, 120
8, 39294, Note_on_c, 5, 71, 0
8, 39298, Note_on_c, 5, 71, 120
8, 39360, Note_on_c, 5, 71, 0
8, 39360, Note_on_c, 5, 64, 0
8, 39362, Note_on_c, 5, 62, 120
8, 39366, Note_on_c, 5, 69, 120
8, 39534, Note_on_c, 5, 69, 0
8, 39538, Note_on_c, 5, 69, 120
8, 39600, Note_on_c, 5, 69, 0
8, 39600, Note_on_c, 5, 62, 0
8, 39602, Note_on_c, 5, 55, 120
8, 39606, Note_on_c, 5, 62, 120
8, 39774, Note_on_c, 5, 62, 0
8, 39778, Note_on_c, 5, 62, 120
8, 39840, Note_on_c, 5, 62, 0
8, 39840, Note_on_c, 5, 55, 0
8, 39840, End_track
9, 0, Start_track
9, 0, MIDI_port, 0
9, 0, Title_t, "Piano"
9, 0, Program_c, 3, 0
9, 0, Control_c, 3, 7, 127
9, 0, Control_c, 3, 10, 60
9, 0, Note_on_c, 3, 55, 52
9, 0, Note_on_c, 3, 60, 52
9, 48, Note_on_c, 3, 60, 0
9, 48, Note_on_c, 3, 55, 0
9, 60, Note_on_c, 3, 64, 52
9, 108, Note_on_c, 3, 64, 0
9, 120, Note_on_c, 3, 67, 52
9, 168, Note_on_c, 3, 67, 0
9, 180, Note_on_c, 3, 72, 52
9, 228, Note_on_c, 3, 72, 0
9, 240, Note_on_c, 3, 57, 52
9, 240, Note_on_c, 3, 67, 52
9, 288, Note_on_c, 3, 67, 0
9, 288, Note_on_c, 3, 57, 0
9, 300, Note_on_c, 3, 64, 52
9, 348, Note_on_c, 3, 64, 0
9, 360, Note_on_c, 3, 60, 52
9, 456, Note_on_c, 3, 60, 0
9, 480, Note_on_c, 3, 60, 53
9, 480, Note_on_c, 3, 67, 53
9, 528, Note_on_c, 3, 67, 0
9, 528, Note_on_c, 3, 60, 0
9, 540, Note_on_c, 3, 72, 53
9, 588, Note_on_c, 3, 72, 0
9, 600, Note_on_c, 3, 76, 53
9, 672, Note_on_c, 3, 76, 0
9, 690, Note_on_c, 3, 77, 53
9, 714, Note_on_c, 3, 77, 0
9, 720, Note_on_c, 3, 71, 53
9, 720, Note_on_c, 3, 76, 53
9, 768, Note_on_c, 3, 76, 0
9, 768, Note_on_c, 3, 71, 0
9, 780, Note_on_c, 3, 72, 53
9, 828, Note_on_c, 3, 72, 0
9, 840, Note_on_c, 3, 67, 53
9, 936, Note_on_c, 3, 67, 0
9, 960, Note_on_c, 3, 55, 54
9, 960, Note_on_c, 3, 72, 54
9, 1008, Note_on_c, 3, 72, 0
9, 1008, Note_on_c, 3, 55, 0
9, 1020, Note_on_c, 3, 67, 54
9, 1068, Note_on_c, 3, 67, 0
9, 1080, Note_on_c, 3, 64, 54
9, 1128, Note_on_c, 3, 64, 0
9, 1140, Note_on_c, 3, 64, 54
9, 1188, Note_on_c, 3, 64, 0
9, 1200, Note_on_c, 3, 52, 54
9, 1200, Note_on_c, 3, 67, 54
9, 1248, Note_on_c, 3, 67, 0
9, 1248, Note_on_c, 3, 52, 0
9, 1260, Note_on_c, 3, 64, 54
9, 1308, Note_on_c, 3, 64, 0
9, 1320, Note_on_c, 3, 60, 54
9, 1344, Note_on_c, 3, 60, 0
9, 1350, Note_on_c, 3, 52, 54
9, 1374, Note_on_c, 3, 52, 0
9, 1380, Note_on_c, 3, 62, 54
9, 1404, Note_on_c, 3, 62, 0
9, 1440, Note_on_c, 3, 76, 120
9, 1464, Note_on_c, 3, 76, 0
9, 1530, Note_on_c, 3, 76, 120
9, 1554, Note_on_c, 3, 76, 0
9, 1560, Note_on_c, 3, 76, 120
9, 1608, Note_on_c, 3, 76, 0
9, 1620, Note_on_c, 3, 74, 120
9, 1668, Note_on_c, 3, 74, 0
9, 1680, Note_on_c, 3, 72, 120
9, 1728, Note_on_c, 3, 72, 0
9, 1740, Note_on_c, 3, 72, 120
9, 1812, Note_on_c, 3, 72, 0
9, 1830, Note_on_c, 3, 72, 120
9, 1878, Note_on_c, 3, 72, 0
9, 1890, Note_on_c, 3, 71, 120
9, 1914, Note_on_c, 3, 71, 0
9, 1920, Note_on_c, 3, 69, 120
9, 1968, Note_on_c, 3, 69, 0
9, 2010, Note_on_c, 3, 69, 120
9, 2034, Note_on_c, 3, 69, 0
9, 2040, Note_on_c, 3, 69, 120
9, 2088, Note_on_c, 3, 69, 0
9, 2100, Note_on_c, 3, 69, 120
9, 2148, Note_on_c, 3, 69, 0
9, 2160, Note_on_c, 3, 65, 120
9, 2256, Note_on_c, 3, 65, 0
9, 2280, Note_on_c, 3, 67, 120
9, 2328, Note_on_c, 3, 67, 0
9, 2340, Note_on_c, 3, 64, 120
9, 2580, Note_on_c, 3, 64, 0
9, 2640, Note_on_c, 3, 67, 120
9, 2832, Note_on_c, 3, 67, 0
9, 2880, Note_on_c, 3, 72, 120
9, 3072, Note_on_c, 3, 72, 0
9, 3120, Note_on_c, 3, 74, 120
9, 3312, Note_on_c, 3, 74, 0
9, 3360, Note_on_c, 3, 76, 120
9, 3432, Note_on_c, 3, 76, 0
9, 3450, Note_on_c, 3, 76, 120
9, 3474, Note_on_c, 3, 76, 0
9, 3510, Note_on_c, 3, 76, 120
9, 3558, Note_on_c, 3, 76, 0
9, 3570, Note_on_c, 3, 74, 120
9, 3594, Note_on_c, 3, 74, 0
9, 3600, Note_on_c, 3, 72, 120
9, 3648, Note_on_c, 3, 72, 0
9, 3660, Note_on_c, 3, 72, 120
9, 3708, Note_on_c, 3, 72, 0
9, 3750, Note_on_c, 3, 72, 120
9, 3774, Note_on_c, 3, 72, 0
9, 3810, Note_on_c, 3, 71, 120
9, 3834, Note_on_c, 3, 71, 0
9, 3840, Note_on_c, 3, 69, 120
9, 3888, Note_on_c, 3, 69, 0
9, 3930, Note_on_c, 3, 69, 120
9, 3954, Note_on_c, 3, 69, 0
9, 3960, Note_on_c, 3, 69, 120
9, 4008, Note_on_c, 3, 69, 0
9, 4020, Note_on_c, 3, 69, 120
9, 4068, Note_on_c, 3, 69, 0
9, 4080, Note_on_c, 3, 65, 120
9, 4176, Note_on_c, 3, 65, 0
9, 4200, Note_on_c, 3, 67, 120
9, 4248, Note_on_c, 3, 67, 0
9, 4290, Note_on_c, 3, 65, 120
9, 4314, Note_on_c, 3, 65, 0
9, 4320, Note_on_c, 3, 64, 120
9, 4512, Note_on_c, 3, 64, 0
9, 4560, Note_on_c, 3, 67, 120
9, 4740, Note_on_c, 3, 69, 120
9, 4752, Note_on_c, 3, 67, 0
9, 4800, Note_on_c, 3, 72, 120
9, 4992, Note_on_c, 3, 72, 0
9, 5040, Note_on_c, 3, 74, 120
9, 5172, Note_on_c, 3, 69, 0
9, 5232, Note_on_c, 3, 74, 0
9, 5280, Note_on_c, 3, 72, 120
9, 5328, Note_on_c, 3, 72, 0
9, 5400, Note_on_c, 3, 72, 120
9, 5448, Note_on_c, 3, 72, 0
9, 5460, Note_on_c, 3, 72, 120
9, 5508, Note_on_c, 3, 72, 0
9, 5520, Note_on_c, 3, 72, 120
9, 5568, Note_on_c, 3, 72, 0
9, 5580, Note_on_c, 3, 74, 120
9, 5604, Note_on_c, 3, 74, 0
9, 5610, Note_on_c, 3, 72, 120
9, 5634, Note_on_c, 3, 72, 0
9, 5640, Note_on_c, 3, 72, 120
9, 5688, Note_on_c, 3, 72, 0
9, 5730, Note_on_c, 3, 72, 120
9, 5754, Note_on_c, 3, 72, 0
9, 5760, Note_on_c, 3, 72, 120
9, 5808, Note_on_c, 3, 72, 0
9, 5820, Note_on_c, 3, 69, 120
9, 6060, Note_on_c, 3, 69, 0
9, 6240, Note_on_c, 3, 72, 120
9, 6336, Note_on_c, 3, 72, 0
9, 6360, Note_on_c, 3, 72, 120
9, 6408, Note_on_c, 3, 72, 0
9, 6450, Note_on_c, 3, 72, 120
9, 6474, Note_on_c, 3, 72, 0
9, 6480, Note_on_c, 3, 72, 120
9, 6528, Note_on_c, 3, 72, 0
9, 6540, Note_on_c, 3, 72, 120
9, 6588, Note_on_c, 3, 72, 0
9, 6600, Note_on_c, 3, 72, 120
9, 6624, Note_on_c, 3, 72, 0
9, 6630, Note_on_c, 3, 72, 120
9, 6654, Note_on_c, 3, 72, 0
9, 6660, Note_on_c, 3, 74, 120
9, 6684, Note_on_c, 3, 74, 0
9, 6690, Note_on_c, 3, 72, 120
9, 6714, Note_on_c, 3, 72, 0
9, 6720, Note_on_c, 3, 69, 120
9, 7104, Note_on_c, 3, 69, 0
9, 7200, Note_on_c, 3, 74, 120
9, 7248, Note_on_c, 3, 74, 0
9, 7320, Note_on_c, 3, 74, 120
9, 7368, Note_on_c, 3, 74, 0
9, 7380, Note_on_c, 3, 74, 120
9, 7428, Note_on_c, 3, 74, 0
9, 7440, Note_on_c, 3, 74, 120
9, 7488, Note_on_c, 3, 74, 0
9, 7500, Note_on_c, 3, 74, 120
9, 7548, Note_on_c, 3, 74, 0
9, 7560, Note_on_c, 3, 74, 120
9, 7608, Note_on_c, 3, 74, 0
9, 7620, Note_on_c, 3, 74, 120
9, 7668, Note_on_c, 3, 74, 0
9, 7680, Note_on_c, 3, 74, 120
9, 7728, Note_on_c, 3, 74, 0
9, 7740, Note_on_c, 3, 71, 120
9, 8028, Note_on_c, 3, 71, 0
9, 8100, Note_on_c, 3, 71, 120
9, 8148, Note_on_c, 3, 71, 0
9, 8160, Note_on_c, 3, 74, 120
9, 8304, Note_on_c, 3, 74, 0
9, 8340, Note_on_c, 3, 74, 120
9, 8388, Note_on_c, 3, 74, 0
9, 8400, Note_on_c, 3, 74, 120
9, 8472, Note_on_c, 3, 74, 0
9, 8490, Note_on_c, 3, 69, 120
9, 8514, Note_on_c, 3, 69, 0
9, 8520, Note_on_c, 3, 71, 120
9, 8568, Note_on_c, 3, 71, 0
9, 8580, Note_on_c, 3, 72, 120
9, 8628, Note_on_c, 3, 72, 0
9, 8640, Note_on_c, 3, 74, 120
9, 9024, Note_on_c, 3, 74, 0
9, 9120, Note_on_c, 3, 76, 120
9, 9168, Note_on_c, 3, 76, 0
9, 9210, Note_on_c, 3, 76, 120
9, 9234, Note_on_c, 3, 76, 0
9, 9240, Note_on_c, 3, 76, 120
9, 9288, Note_on_c, 3, 76, 0
9, 9330, Note_on_c, 3, 74, 120
9, 9354, Note_on_c, 3, 74, 0
9, 9360, Note_on_c, 3, 72, 120
9, 9408, Note_on_c, 3, 72, 0
9, 9450, Note_on_c, 3, 72, 120
9, 9474, Note_on_c, 3, 72, 0
9, 9480, Note_on_c, 3, 72, 120
9, 9528, Note_on_c, 3, 72, 0
9, 9570, Note_on_c, 3, 71, 120
9, 9594, Note_on_c, 3, 71, 0
9, 9600, Note_on_c, 3, 69, 120
9, 9648, Note_on_c, 3, 69, 0
9, 9660, Note_on_c, 3, 69, 120
9, 9708, Note_on_c, 3, 69, 0
9, 9750, Note_on_c, 3, 69, 120
9, 9774, Note_on_c, 3, 69, 0
9, 9780, Note_on_c, 3, 67, 120
9, 9828, Note_on_c, 3, 67, 0
9, 9840, Note_on_c, 3, 65, 120
9, 9936, Note_on_c, 3, 65, 0
9, 9960, Note_on_c, 3, 67, 120
9, 10008, Note_on_c, 3, 67, 0
9, 10020, Note_on_c, 3, 65, 120
9, 10068, Note_on_c, 3, 65, 0
9, 10080, Note_on_c, 3, 64, 120
9, 10272, Note_on_c, 3, 64, 0
9, 10320, Note_on_c, 3, 67, 120
9, 10512, Note_on_c, 3, 67, 0
9, 10560, Note_on_c, 3, 72, 120
9, 10656, Note_on_c, 3, 72, 0
9, 10800, Note_on_c, 3, 74, 120
9, 10992, Note_on_c, 3, 74, 0
9, 11040, Note_on_c, 3, 76, 120
9, 11064, Note_on_c, 3, 76, 0
9, 11130, Note_on_c, 3, 76, 120
9, 11154, Note_on_c, 3, 76, 0
9, 11160, Note_on_c, 3, 76, 120
9, 11208, Note_on_c, 3, 76, 0
9, 11220, Note_on_c, 3, 74, 120
9, 11268, Note_on_c, 3, 74, 0
9, 11280, Note_on_c, 3, 72, 120
9, 11328, Note_on_c, 3, 72, 0
9, 11340, Note_on_c, 3, 72, 120
9, 11412, Note_on_c, 3, 72, 0
9, 11430, Note_on_c, 3, 72, 120
9, 11478, Note_on_c, 3, 72, 0
9, 11490, Note_on_c, 3, 71, 120
9, 11514, Note_on_c, 3, 71, 0
9, 11520, Note_on_c, 3, 69, 120
9, 11568, Note_on_c, 3, 69, 0
9, 11610, Note_on_c, 3, 69, 120
9, 11634, Note_on_c, 3, 69, 0
9, 11640, Note_on_c, 3, 69, 120
9, 11688, Note_on_c, 3, 69, 0
9, 11700, Note_on_c, 3, 69, 120
9, 11748, Note_on_c, 3, 69, 0
9, 11760, Note_on_c, 3, 65, 120
9, 11856, Note_on_c, 3, 65, 0
9, 11880, Note_on_c, 3, 67, 120
9, 11928, Note_on_c, 3, 67, 0
9, 11940, Note_on_c, 3, 64, 120
9, 12180, Note_on_c, 3, 64, 0
9, 12240, Note_on_c, 3, 67, 120
9, 12432, Note_on_c, 3, 67, 0
9, 12480, Note_on_c, 3, 72, 120
9, 12672, Note_on_c, 3, 72, 0
9, 12720, Note_on_c, 3, 74, 120
9, 12912, Note_on_c, 3, 74, 0
9, 12960, Note_on_c, 3, 76, 120
9, 13032, Note_on_c, 3, 76, 0
9, 13050, Note_on_c, 3, 76, 120
9, 13074, Note_on_c, 3, 76, 0
9, 13110, Note_on_c, 3, 76, 120
9, 13158, Note_on_c, 3, 76, 0
9, 13170, Note_on_c, 3, 74, 120
9, 13194, Note_on_c, 3, 74, 0
9, 13200, Note_on_c, 3, 72, 120
9, 13248, Note_on_c, 3, 72, 0
9, 13260, Note_on_c, 3, 72, 120
9, 13308, Note_on_c, 3, 72, 0
9, 13350, Note_on_c, 3, 72, 120
9, 13374, Note_on_c, 3, 72, 0
9, 13410, Note_on_c, 3, 71, 120
9, 13434, Note_on_c, 3, 71, 0
9, 13440, Note_on_c, 3, 69, 120
9, 13488, Note_on_c, 3, 69, 0
9, 13530, Note_on_c, 3, 69, 120
9, 13554, Note_on_c, 3, 69, 0
9, 13560, Note_on_c, 3, 69, 120
9, 13608, Note_on_c, 3, 69, 0
9, 13620, Note_on_c, 3, 69, 120
9, 13668, Note_on_c, 3, 69, 0
9, 13680, Note_on_c, 3, 65, 120
9, 13776, Note_on_c, 3, 65, 0
9, 13800, Note_on_c, 3, 67, 120
9, 13848, Note_on_c, 3, 67, 0
9, 13890, Note_on_c, 3, 65, 120
9, 13914, Note_on_c, 3, 65, 0
9, 13920, Note_on_c, 3, 64, 120
9, 14112, Note_on_c, 3, 64, 0
9, 14160, Note_on_c, 3, 67, 120
9, 14340, Note_on_c, 3, 69, 120
9, 14352, Note_on_c, 3, 67, 0
9, 14400, Note_on_c, 3, 72, 120
9, 14592, Note_on_c, 3, 72, 0
9, 14640, Note_on_c, 3, 74, 120
9, 14772, Note_on_c, 3, 69, 0
9, 14832, Note_on_c, 3, 74, 0
9, 14880, Note_on_c, 3, 72, 120
9, 14928, Note_on_c, 3, 72, 0
9, 15000, Note_on_c, 3, 72, 120
9, 15048, Note_on_c, 3, 72, 0
9, 15060, Note_on_c, 3, 72, 120
9, 15108, Note_on_c, 3, 72, 0
9, 15120, Note_on_c, 3, 72, 120
9, 15168, Note_on_c, 3, 72, 0
9, 15180, Note_on_c, 3, 74, 120
9, 15204, Note_on_c, 3, 74, 0
9, 15210, Note_on_c, 3, 72, 120
9, 15234, Note_on_c, 3, 72, 0
9, 15240, Note_on_c, 3, 72, 120
9, 15288, Note_on_c, 3, 72, 0
9, 15330, Note_on_c, 3, 72, 120
9, 15354, Note_on_c, 3, 72, 0
9, 15360, Note_on_c, 3, 72, 120
9, 15408, Note_on_c, 3, 72, 0
9, 15420, Note_on_c, 3, 69, 120
9, 15660, Note_on_c, 3, 69, 0
9, 15840, Note_on_c, 3, 72, 120
9, 15936, Note_on_c, 3, 72, 0
9, 15960, Note_on_c, 3, 72, 120
9, 16008, Note_on_c, 3, 72, 0
9, 16050, Note_on_c, 3, 72, 120
9, 16074, Note_on_c, 3, 72, 0
9, 16080, Note_on_c, 3, 72, 120
9, 16128, Note_on_c, 3, 72, 0
9, 16140, Note_on_c, 3, 72, 120
9, 16188, Note_on_c, 3, 72, 0
9, 16200, Note_on_c, 3, 72, 120
9, 16224, Note_on_c, 3, 72, 0
9, 16230, Note_on_c, 3, 72, 120
9, 16254, Note_on_c, 3, 72, 0
9, 16260, Note_on_c, 3, 72, 120
9, 16260, Note_on_c, 3, 74, 120
9, 16284, Note_on_c, 3, 74, 0
9, 16284, Note_on_c, 3, 72, 0
9, 16290, Note_on_c, 3, 72, 120
9, 16314, Note_on_c, 3, 72, 0
9, 16320, Note_on_c, 3, 69, 120
9, 16704, Note_on_c, 3, 69, 0
9, 16800, Note_on_c, 3, 74, 120
9, 16848, Note_on_c, 3, 74, 0
9, 16920, Note_on_c, 3, 74, 120
9, 16968, Note_on_c, 3, 74, 0
9, 16980, Note_on_c, 3, 74, 120
9, 17028, Note_on_c, 3, 74, 0
9, 17040, Note_on_c, 3, 74, 120
9, 17088, Note_on_c, 3, 74, 0
9, 17100, Note_on_c, 3, 74, 120
9, 17148, Note_on_c, 3, 74, 0
9, 17160, Note_on_c, 3, 74, 120
9, 17208, Note_on_c, 3, 74, 0
9, 17220, Note_on_c, 3, 74, 120
9, 17268, Note_on_c, 3, 74, 0
9, 17280, Note_on_c, 3, 74, 120
9, 17328, Note_on_c, 3, 74, 0
9, 17340, Note_on_c, 3, 71, 120
9, 17628, Note_on_c, 3, 71, 0
9, 17700, Note_on_c, 3, 71, 120
9, 17748, Note_on_c, 3, 71, 0
9, 17760, Note_on_c, 3, 74, 120
9, 17904, Note_on_c, 3, 74, 0
9, 17940, Note_on_c, 3, 74, 120
9, 17988, Note_on_c, 3, 74, 0
9, 18000, Note_on_c, 3, 74, 120
9, 18072, Note_on_c, 3, 74, 0
9, 18090, Note_on_c, 3, 69, 120
9, 18114, Note_on_c, 3, 69, 0
9, 18120, Note_on_c, 3, 71, 120
9, 18168, Note_on_c, 3, 71, 0
9, 18180, Note_on_c, 3, 72, 120
9, 18228, Note_on_c, 3, 72, 0
9, 18240, Note_on_c, 3, 74, 120
9, 18624, Note_on_c, 3, 74, 0
9, 28320, Note_on_c, 3, 76, 120
9, 28368, Note_on_c, 3, 76, 0
9, 28410, Note_on_c, 3, 76, 120
9, 28434, Note_on_c, 3, 76, 0
9, 28440, Note_on_c, 3, 76, 120
9, 28488, Note_on_c, 3, 76, 0
9, 28530, Note_on_c, 3, 74, 120
9, 28554, Note_on_c, 3, 74, 0
9, 28560, Note_on_c, 3, 72, 120
9, 28608, Note_on_c, 3, 72, 0
9, 28650, Note_on_c, 3, 72, 120
9, 28674, Note_on_c, 3, 72, 0
9, 28680, Note_on_c, 3, 72, 120
9, 28728, Note_on_c, 3, 72, 0
9, 28770, Note_on_c, 3, 71, 120
9, 28794, Note_on_c, 3, 71, 0
9, 28800, Note_on_c, 3, 69, 120
9, 28848, Note_on_c, 3, 69, 0
9, 28860, Note_on_c, 3, 69, 120
9, 28908, Note_on_c, 3, 69, 0
9, 28950, Note_on_c, 3, 69, 120
9, 28974, Note_on_c, 3, 69, 0
9, 28980, Note_on_c, 3, 67, 120
9, 29028, Note_on_c, 3, 67, 0
9, 29040, Note_on_c, 3, 65, 120
9, 29136, Note_on_c, 3, 65, 0
9, 29160, Note_on_c, 3, 67, 120
9, 29208, Note_on_c, 3, 67, 0
9, 29220, Note_on_c, 3, 65, 120
9, 29268, Note_on_c, 3, 65, 0
9, 29280, Note_on_c, 3, 64, 120
9, 29472, Note_on_c, 3, 64, 0
9, 29520, Note_on_c, 3, 67, 120
9, 29712, Note_on_c, 3, 67, 0
9, 29760, Note_on_c, 3, 72, 120
9, 29856, Note_on_c, 3, 72, 0
9, 30000, Note_on_c, 3, 74, 120
9, 30192, Note_on_c, 3, 74, 0
9, 30240, Note_on_c, 3, 76, 120
9, 30264, Note_on_c, 3, 76, 0
9, 30330, Note_on_c, 3, 76, 120
9, 30354, Note_on_c, 3, 76, 0
9, 30360, Note_on_c, 3, 76, 120
9, 30408, Note_on_c, 3, 76, 0
9, 30420, Note_on_c, 3, 74, 120
9, 30468, Note_on_c, 3, 74, 0
9, 30480, Note_on_c, 3, 72, 120
9, 30528, Note_on_c, 3, 72, 0
9, 30540, Note_on_c, 3, 72, 120
9, 30612, Note_on_c, 3, 72, 0
9, 30630, Note_on_c, 3, 72, 120
9, 30678, Note_on_c, 3, 72, 0
9, 30690, Note_on_c, 3, 71, 120
9, 30714, Note_on_c, 3, 71, 0
9, 30720, Note_on_c, 3, 69, 120
9, 30768, Note_on_c, 3, 69, 0
9, 30810, Note_on_c, 3, 69, 120
9, 30834, Note_on_c, 3, 69, 0
9, 30840, Note_on_c, 3, 69, 120
9, 30888, Note_on_c, 3, 69, 0
9, 30900, Note_on_c, 3, 69, 120
9, 30948, Note_on_c, 3, 69, 0
9, 30960, Note_on_c, 3, 65, 120
9, 31056, Note_on_c, 3, 65, 0
9, 31080, Note_on_c, 3, 67, 120
9, 31128, Note_on_c, 3, 67, 0
9, 31140, Note_on_c, 3, 64, 120
9, 31380, Note_on_c, 3, 64, 0
9, 31440, Note_on_c, 3, 67, 120
9, 31632, Note_on_c, 3, 67, 0
9, 31680, Note_on_c, 3, 72, 120
9, 31872, Note_on_c, 3, 72, 0
9, 31920, Note_on_c, 3, 74, 120
9, 32112, Note_on_c, 3, 74, 0
9, 32160, Note_on_c, 3, 76, 120
9, 32232, Note_on_c, 3, 76, 0
9, 32250, Note_on_c, 3, 76, 120
9, 32274, Note_on_c, 3, 76, 0
9, 32310, Note_on_c, 3, 76, 120
9, 32358, Note_on_c, 3, 76, 0
9, 32370, Note_on_c, 3, 74, 120
9, 32394, Note_on_c, 3, 74, 0
9, 32400, Note_on_c, 3, 72, 120
9, 32448, Note_on_c, 3, 72, 0
9, 32460, Note_on_c, 3, 72, 120
9, 32508, Note_on_c, 3, 72, 0
9, 32550, Note_on_c, 3, 72, 120
9, 32574, Note_on_c, 3, 72, 0
9, 32610, Note_on_c, 3, 71, 120
9, 32634, Note_on_c, 3, 71, 0
9, 32640, Note_on_c, 3, 69, 120
9, 32688, Note_on_c, 3, 69, 0
9, 32730, Note_on_c, 3, 69, 120
9, 32754, Note_on_c, 3, 69, 0
9, 32760, Note_on_c, 3, 69, 120
9, 32808, Note_on_c, 3, 69, 0
9, 32820, Note_on_c, 3, 69, 120
9, 32868, Note_on_c, 3, 69, 0
9, 32880, Note_on_c, 3, 65, 120
9, 32976, Note_on_c, 3, 65, 0
9, 33000, Note_on_c, 3, 67, 120
9, 33048, Note_on_c, 3, 67, 0
9, 33090, Note_on_c, 3, 65, 120
9, 33114, Note_on_c, 3, 65, 0
9, 33120, Note_on_c, 3, 64, 120
9, 33312, Note_on_c, 3, 64, 0
9, 33360, Note_on_c, 3, 67, 120
9, 33540, Note_on_c, 3, 69, 120
9, 33552, Note_on_c, 3, 67, 0
9, 33600, Note_on_c, 3, 72, 120
9, 33792, Note_on_c, 3, 72, 0
9, 33840, Note_on_c, 3, 74, 120
9, 33972, Note_on_c, 3, 69, 0
9, 34032, Note_on_c, 3, 74, 0
9, 34080, Note_on_c, 3, 72, 120
9, 34128, Note_on_c, 3, 72, 0
9, 34200, Note_on_c, 3, 72, 120
9, 34248, Note_on_c, 3, 72, 0
9, 34260, Note_on_c, 3, 72, 120
9, 34308, Note_on_c, 3, 72, 0
9, 34320, Note_on_c, 3, 72, 120
9, 34368, Note_on_c, 3, 72, 0
9, 34380, Note_on_c, 3, 74, 120
9, 34404, Note_on_c, 3, 74, 0
9, 34410, Note_on_c, 3, 72, 120
9, 34434, Note_on_c, 3, 72, 0
9, 34440, Note_on_c, 3, 72, 120
9, 34488, Note_on_c, 3, 72, 0
9, 34530, Note_on_c, 3, 72, 120
9, 34554, Note_on_c, 3, 72, 0
9, 34560, Note_on_c, 3, 72, 120
9, 34608, Note_on_c, 3, 72, 0
9, 34620, Note_on_c, 3, 69, 120
9, 34860, Note_on_c, 3, 69, 0
9, 35040, Note_on_c, 3, 72, 120
9, 35136, Note_on_c, 3, 72, 0
9, 35160, Note_on_c, 3, 72, 120
9, 35208, Note_on_c, 3, 72, 0
9, 35250, Note_on_c, 3, 72, 120
9, 35274, Note_on_c, 3, 72, 0
9, 35280, Note_on_c, 3, 72, 120
9, 35328, Note_on_c, 3, 72, 0
9, 35340, Note_on_c, 3, 72, 120
9, 35388, Note_on_c, 3, 72, 0
9, 35400, Note_on_c, 3, 72, 120
9, 35424, Note_on_c, 3, 72, 0
9, 35430, Note_on_c, 3, 72, 120
9, 35454, Note_on_c, 3, 72, 0
9, 35460, Note_on_c, 3, 72, 120
9, 35460, Note_on_c, 3, 74, 120
9, 35484, Note_on_c, 3, 74, 0
9, 35484, Note_on_c, 3, 72, 0
9, 35490, Note_on_c, 3, 72, 120
9, 35514, Note_on_c, 3, 72, 0
9, 35520, Note_on_c, 3, 69, 120
9, 35904, Note_on_c, 3, 69, 0
9, 36000, Note_on_c, 3, 74, 120
9, 36048, Note_on_c, 3, 74, 0
9, 36120, Note_on_c, 3, 74, 120
9, 36168, Note_on_c, 3, 74, 0
9, 36180, Note_on_c, 3, 74, 120
9, 36228, Note_on_c, 3, 74, 0
9, 36240, Note_on_c, 3, 74, 120
9, 36288, Note_on_c, 3, 74, 0
9, 36300, Note_on_c, 3, 74, 120
9, 36348, Note_on_c, 3, 74, 0
9, 36360, Note_on_c, 3, 74, 120
9, 36408, Note_on_c, 3, 74, 0
9, 36420, Note_on_c, 3, 74, 120
9, 36468, Note_on_c, 3, 74, 0
9, 36480, Note_on_c, 3, 74, 120
9, 36528, Note_on_c, 3, 74, 0
9, 36540, Note_on_c, 3, 71, 120
9, 36828, Note_on_c, 3, 71, 0
9, 36900, Note_on_c, 3, 71, 120
9, 36948, Note_on_c, 3, 71, 0
9, 36960, Note_on_c, 3, 74, 120
9, 37104, Note_on_c, 3, 74, 0
9, 37140, Note_on_c, 3, 74, 120
9, 37188, Note_on_c, 3, 74, 0
9, 37200, Note_on_c, 3, 74, 120
9, 37272, Note_on_c, 3, 74, 0
9, 37290, Note_on_c, 3, 69, 120
9, 37314, Note_on_c, 3, 69, 0
9, 37320, Note_on_c, 3, 71, 120
9, 37368, Note_on_c, 3, 71, 0
9, 37380, Note_on_c, 3, 72, 120
9, 37428, Note_on_c, 3, 72, 0
9, 37440, Note_on_c, 3, 74, 120
9, 37824, Note_on_c, 3, 74, 0
9, 37920, Note_on_c, 3, 76, 120
9, 37968, Note_on_c, 3, 76, 0
9, 38010, Note_on_c, 3, 76, 120
9, 38034, Note_on_c, 3, 76, 0
9, 38040, Note_on_c, 3, 76, 120
9, 38088, Note_on_c, 3, 76, 0
9, 38130, Note_on_c, 3, 74, 120
9, 38154, Note_on_c, 3, 74, 0
9, 38160, Note_on_c, 3, 72, 120
9, 38208, Note_on_c, 3, 72, 0
9, 38250, Note_on_c, 3, 72, 120
9, 38274, Note_on_c, 3, 72, 0
9, 38280, Note_on_c, 3, 72, 120
9, 38328, Note_on_c, 3, 72, 0
9, 38370, Note_on_c, 3, 71, 120
9, 38394, Note_on_c, 3, 71, 0
9, 38400, Note_on_c, 3, 69, 120
9, 38448, Note_on_c, 3, 69, 0
9, 38460, Note_on_c, 3, 69, 120
9, 38508, Note_on_c, 3, 69, 0
9, 38550, Note_on_c, 3, 69, 120
9, 38574, Note_on_c, 3, 69, 0
9, 38580, Note_on_c, 3, 67, 120
9, 38628, Note_on_c, 3, 67, 0
9, 38640, Note_on_c, 3, 65, 120
9, 38736, Note_on_c, 3, 65, 0
9, 38760, Note_on_c, 3, 67, 120
9, 38808, Note_on_c, 3, 67, 0
9, 38820, Note_on_c, 3, 65, 120
9, 38868, Note_on_c, 3, 65, 0
9, 38880, Note_on_c, 3, 64, 120
9, 39072, Note_on_c, 3, 64, 0
9, 39120, Note_on_c, 3, 67, 120
9, 39312, Note_on_c, 3, 67, 0
9, 39360, Note_on_c, 3, 72, 120
9, 39456, Note_on_c, 3, 72, 0
9, 39600, Note_on_c, 3, 74, 120
9, 39792, Note_on_c, 3, 74, 0
9, 39840, Note_on_c, 3, 76, 120
9, 39864, Note_on_c, 3, 76, 0
9, 39930, Note_on_c, 3, 76, 120
9, 39954, Note_on_c, 3, 76, 0
9, 39960, Note_on_c, 3, 76, 120
9, 40008, Note_on_c, 3, 76, 0
9, 40020, Note_on_c, 3, 74, 120
9, 40068, Note_on_c, 3, 74, 0
9, 40080, Note_on_c, 3, 72, 120
9, 40128, Note_on_c, 3, 72, 0
9, 40140, Note_on_c, 3, 72, 120
9, 40212, Note_on_c, 3, 72, 0
9, 40230, Note_on_c, 3, 72, 120
9, 40278, Note_on_c, 3, 72, 0
9, 40290, Note_on_c, 3, 71, 120
9, 40314, Note_on_c, 3, 71, 0
9, 40320, Note_on_c, 3, 69, 120
9, 40368, Note_on_c, 3, 69, 0
9, 40410, Note_on_c, 3, 69, 120
9, 40434, Note_on_c, 3, 69, 0
9, 40440, Note_on_c, 3, 69, 120
9, 40488, Note_on_c, 3, 69, 0
9, 40500, Note_on_c, 3, 69, 120
9, 40548, Note_on_c, 3, 69, 0
9, 40560, Note_on_c, 3, 65, 120
9, 40656, Note_on_c, 3, 65, 0
9, 40680, Note_on_c, 3, 67, 120
9, 40728, Note_on_c, 3, 67, 0
9, 40740, Note_on_c, 3, 64, 120
9, 40980, Note_on_c, 3, 64, 0
9, 41040, Note_on_c, 3, 67, 120
9, 41232, Note_on_c, 3, 67, 0
9, 41280, Note_on_c, 3, 72, 120
9, 41472, Note_on_c, 3, 72, 0
9, 41520, Note_on_c, 3, 74, 120
9, 41712, Note_on_c, 3, 74, 0
9, 41760, Note_on_c, 3, 76, 120
9, 41832, Note_on_c, 3, 76, 0
9, 41850, Note_on_c, 3, 76, 120
9, 41874, Note_on_c, 3, 76, 0
9, 41910, Note_on_c, 3, 76, 120
9, 41958, Note_on_c, 3, 76, 0
9, 41970, Note_on_c, 3, 74, 120
9, 41994, Note_on_c, 3, 74, 0
9, 42000, Note_on_c, 3, 72, 120
9, 42048, Note_on_c, 3, 72, 0
9, 42060, Note_on_c, 3, 72, 120
9, 42108, Note_on_c, 3, 72, 0
9, 42150, Note_on_c, 3, 72, 120
9, 42174, Note_on_c, 3, 72, 0
9, 42210, Note_on_c, 3, 71, 120
9, 42234, Note_on_c, 3, 71, 0
9, 42240, Note_on_c, 3, 69, 120
9, 42288, Note_on_c, 3, 69, 0
9, 42330, Note_on_c, 3, 69, 120
9, 42354, Note_on_c, 3, 69, 0
9, 42360, Note_on_c, 3, 69, 120
9, 42408, Note_on_c, 3, 69, 0
9, 42420, Note_on_c, 3, 69, 120
9, 42468, Note_on_c, 3, 69, 0
9, 42480, Note_on_c, 3, 65, 120
9, 42576, Note_on_c, 3, 65, 0
9, 42600, Note_on_c, 3, 67, 120
9, 42648, Note_on_c, 3, 67, 0
9, 42690, Note_on_c, 3, 65, 120
9, 42714, Note_on_c, 3, 65, 0
9, 42720, Note_on_c, 3, 64, 120
9, 42912, Note_on_c, 3, 64, 0
9, 42960, Note_on_c, 3, 67, 120
9, 43140, Note_on_c, 3, 69, 120
9, 43152, Note_on_c, 3, 67, 0
9, 43200, Note_on_c, 3, 72, 120
9, 43392, Note_on_c, 3, 72, 0
9, 43440, Note_on_c, 3, 74, 120
9, 43572, Note_on_c, 3, 69, 0
9, 43632, Note_on_c, 3, 74, 0
9, 43680, Note_on_c, 3, 72, 120
9, 43728, Note_on_c, 3, 72, 0
9, 43800, Note_on_c, 3, 72, 120
9, 43848, Note_on_c, 3, 72, 0
9, 43860, Note_on_c, 3, 72, 120
9, 43908, Note_on_c, 3, 72, 0
9, 43920, Note_on_c, 3, 72, 120
9, 43968, Note_on_c, 3, 72, 0
9, 43980, Note_on_c, 3, 74, 120
9, 44004, Note_on_c, 3, 74, 0
9, 44010, Note_on_c, 3, 72, 120
9, 44034, Note_on_c, 3, 72, 0
9, 44040, Note_on_c, 3, 72, 120
9, 44088, Note_on_c, 3, 72, 0
9, 44130, Note_on_c, 3, 72, 120
9, 44154, Note_on_c, 3, 72, 0
9, 44160, Note_on_c, 3, 72, 120
9, 44208, Note_on_c, 3, 72, 0
9, 44220, Note_on_c, 3, 69, 120
9, 44460, Note_on_c, 3, 69, 0
9, 44640, Note_on_c, 3, 72, 120
9, 44736, Note_on_c, 3, 72, 0
9, 44760, Note_on_c, 3, 72, 120
9, 44808, Note_on_c, 3, 72, 0
9, 44850, Note_on_c, 3, 72, 120
9, 44874, Note_on_c, 3, 72, 0
9, 44880, Note_on_c, 3, 72, 120
9, 44928, Note_on_c, 3, 72, 0
9, 44940, Note_on_c, 3, 72, 120
9, 44988, Note_on_c, 3, 72, 0
9, 45000, Note_on_c, 3, 72, 120
9, 45024, Note_on_c, 3, 72, 0
9, 45030, Note_on_c, 3, 72, 120
9, 45054, Note_on_c, 3, 72, 0
9, 45060, Note_on_c, 3, 74, 120
9, 45084, Note_on_c, 3, 74, 0
9, 45090, Note_on_c, 3, 72, 120
9, 45114, Note_on_c, 3, 72, 0
9, 45120, Note_on_c, 3, 69, 120
9, 45504, Note_on_c, 3, 69, 0
9, 45600, Note_on_c, 3, 74, 120
9, 45648, Note_on_c, 3, 74, 0
9, 45720, Note_on_c, 3, 74, 120
9, 45768, Note_on_c, 3, 74, 0
9, 45780, Note_on_c, 3, 74, 120
9, 45828, Note_on_c, 3, 74, 0
9, 45840, Note_on_c, 3, 74, 120
9, 45888, Note_on_c, 3, 74, 0
9, 45900, Note_on_c, 3, 74, 120
9, 45948, Note_on_c, 3, 74, 0
9, 45960, Note_on_c, 3, 74, 120
9, 46008, Note_on_c, 3, 74, 0
9, 46020, Note_on_c, 3, 74, 120
9, 46068, Note_on_c, 3, 74, 0
9, 46080, Note_on_c, 3, 74, 120
9, 46128, Note_on_c, 3, 74, 0
9, 46140, Note_on_c, 3, 71, 120
9, 46428, Note_on_c, 3, 71, 0
9, 46500, Note_on_c, 3, 71, 120
9, 46548, Note_on_c, 3, 71, 0
9, 46560, Note_on_c, 3, 74, 120
9, 46704, Note_on_c, 3, 74, 0
9, 46740, Note_on_c, 3, 74, 120
9, 46788, Note_on_c, 3, 74, 0
9, 46800, Note_on_c, 3, 74, 120
9, 46872, Note_on_c, 3, 74, 0
9, 46890, Note_on_c, 3, 69, 120
9, 46914, Note_on_c, 3, 69, 0
9, 46920, Note_on_c, 3, 71, 120
9, 46968, Note_on_c, 3, 71, 0
9, 46980, Note_on_c, 3, 72, 120
9, 47028, Note_on_c, 3, 72, 0
9, 47040, Note_on_c, 3, 74, 120
9, 47424, Note_on_c, 3, 74, 0
9, 47520, Note_on_c, 3, 76, 120
9, 47568, Note_on_c, 3, 76, 0
9, 47610, Note_on_c, 3, 76, 120
9, 47634, Note_on_c, 3, 76, 0
9, 47640, Note_on_c, 3, 76, 120
9, 47688, Note_on_c, 3, 76, 0
9, 47730, Note_on_c, 3, 74, 120
9, 47754, Note_on_c, 3, 74, 0
9, 47760, Note_on_c, 3, 72, 120
9, 47808, Note_on_c, 3, 72, 0
9, 47850, Note_on_c, 3, 72, 120
9, 47874, Note_on_c, 3, 72, 0
9, 47880, Note_on_c, 3, 72, 120
9, 47928, Note_on_c, 3, 72, 0
9, 47970, Note_on_c, 3, 71, 120
9, 47994, Note_on_c, 3, 71, 0
9, 48000, Note_on_c, 3, 69, 120
9, 48048, Note_on_c, 3, 69, 0
9, 48060, Note_on_c, 3, 69, 120
9, 48108, Note_on_c, 3, 69, 0
9, 48150, Note_on_c, 3, 69, 120
9, 48174, Note_on_c, 3, 69, 0
9, 48180, Note_on_c, 3, 67, 120
9, 48228, Note_on_c, 3, 67, 0
9, 48240, Note_on_c, 3, 65, 120
9, 48336, Note_on_c, 3, 65, 0
9, 48360, Note_on_c, 3, 67, 120
9, 48408, Note_on_c, 3, 67, 0
9, 48420, Note_on_c, 3, 65, 120
9, 48468, Note_on_c, 3, 65, 0
9, 48480, Note_on_c, 3, 64, 120
9, 48672, Note_on_c, 3, 64, 0
9, 48720, Note_on_c, 3, 67, 120
9, 48912, Note_on_c, 3, 67, 0
9, 48960, Note_on_c, 3, 72, 120
9, 49056, Note_on_c, 3, 72, 0
9, 49200, Note_on_c, 3, 74, 120
9, 49392, Note_on_c, 3, 74, 0
9, 49440, Note_on_c, 3, 76, 120
9, 49440, Note_on_c, 3, 76, 120
9, 49440, Note_on_c, 3, 76, 120
9, 49536, Note_on_c, 3, 76, 0
9, 49536, Note_on_c, 3, 76, 0
9, 49536, Note_on_c, 3, 76, 0
9, 49560, Note_on_c, 3, 79, 120
9, 49560, Note_on_c, 3, 74, 120
9, 49560, Note_on_c, 3, 74, 120
9, 49656, Note_on_c, 3, 74, 0
9, 49656, Note_on_c, 3, 74, 0
9, 49656, Note_on_c, 3, 79, 0
9, 49680, Note_on_c, 3, 76, 120
9, 49680, Note_on_c, 3, 72, 120
9, 49776, Note_on_c, 3, 72, 0
9, 49776, Note_on_c, 3, 76, 0
9, 49800, Note_on_c, 3, 74, 120
9, 49800, Note_on_c, 3, 81, 120
9, 49872, Note_on_c, 3, 81, 0
9, 49872, Note_on_c, 3, 74, 0
9, 49890, Note_on_c, 3, 74, 120
9, 49914, Note_on_c, 3, 74, 0
9, 49920, Note_on_c, 3, 76, 120
9, 50016, Note_on_c, 3, 76, 0
9, 50070, Note_on_c, 3, 79, 120
9, 50094, Note_on_c, 3, 79, 0
9, 50100, Note_on_c, 3, 81, 120
9, 50100, Note_on_c, 3, 74, 120
9, 50148, Note_on_c, 3, 74, 0
9, 50148, Note_on_c, 3, 81, 0
9, 50160, Note_on_c, 3, 84, 120
9, 50160, Note_on_c, 3, 81, 120
9, 50160, Note_on_c, 3, 72, 120
9, 50256, Note_on_c, 3, 72, 0
9, 50256, Note_on_c, 3, 81, 0
9, 50256, Note_on_c, 3, 84, 0
9, 50280, Note_on_c, 3, 86, 120
9, 50280, Note_on_c, 3, 79, 120
9, 50280, Note_on_c, 3, 74, 120
9, 50376, Note_on_c, 3, 74, 0
9, 50376, Note_on_c, 3, 79, 0
9, 50376, Note_on_c, 3, 86, 0
9, 50400, Note_on_c, 3, 88, 120
9, 50400, Note_on_c, 3, 79, 120
9, 50400, Note_on_c, 3, 72, 120
9, 51168, Note_on_c, 3, 72, 0
9, 51168, Note_on_c, 3, 79, 0
9, 51168, Note_on_c, 3, 88, 0
9, 51168, End_track
10, 0, Start_track
10, 0, MIDI_port, 0
10, 0, Title_t, "Piano"
10, 0, Program_c, 3, 0
10, 0, Control_c, 3, 7, 127
10, 0, Control_c, 3, 10, 60
10, 0, Note_on_c, 3, 55, 52
10, 0, Note_on_c, 3, 60, 52
10, 48, Note_on_c, 3, 60, 0
10, 48, Note_on_c, 3, 55, 0
10, 60, Note_on_c, 3, 64, 52
10, 108, Note_on_c, 3, 64, 0
10, 120, Note_on_c, 3, 67, 52
10, 168, Note_on_c, 3, 67, 0
10, 180, Note_on_c, 3, 72, 52
10, 228, Note_on_c, 3, 72, 0
10, 240, Note_on_c, 3, 57, 52
10, 240, Note_on_c, 3, 67, 52
10, 288, Note_on_c, 3, 67, 0
10, 288, Note_on_c, 3, 57, 0
10, 300, Note_on_c, 3, 64, 52
10, 348, Note_on_c, 3, 64, 0
10, 360, Note_on_c, 3, 60, 52
10, 456, Note_on_c, 3, 60, 0
10, 480, Note_on_c, 3, 60, 53
10, 480, Note_on_c, 3, 67, 53
10, 528, Note_on_c, 3, 67, 0
10, 528, Note_on_c, 3, 60, 0
10, 540, Note_on_c, 3, 72, 53
10, 588, Note_on_c, 3, 72, 0
10, 600, Note_on_c, 3, 76, 53
10, 672, Note_on_c, 3, 76, 0
10, 690, Note_on_c, 3, 77, 53
10, 714, Note_on_c, 3, 77, 0
10, 720, Note_on_c, 3, 71, 53
10, 720, Note_on_c, 3, 76, 53
10, 768, Note_on_c, 3, 76, 0
10, 768, Note_on_c, 3, 71, 0
10, 780, Note_on_c, 3, 72, 53
10, 828, Note_on_c, 3, 72, 0
10, 840, Note_on_c, 3, 67, 53
10, 936, Note_on_c, 3, 67, 0
10, 960, Note_on_c, 3, 55, 54
10, 960, Note_on_c, 3, 72, 54
10, 1008, Note_on_c, 3, 72, 0
10, 1008, Note_on_c, 3, 55, 0
10, 1020, Note_on_c, 3, 67, 54
10, 1068, Note_on_c, 3, 67, 0
10, 1080, Note_on_c, 3, 64, 54
10, 1128, Note_on_c, 3, 64, 0
10, 1140, Note_on_c, 3, 64, 54
10, 1188, Note_on_c, 3, 64, 0
10, 1200, Note_on_c, 3, 52, 54
10, 1200, Note_on_c, 3, 67, 54
10, 1248, Note_on_c, 3, 67, 0
10, 1248, Note_on_c, 3, 52, 0
10, 1260, Note_on_c, 3, 64, 54
10, 1308, Note_on_c, 3, 64, 0
10, 1320, Note_on_c, 3, 60, 54
10, 1344, Note_on_c, 3, 60, 0
10, 1350, Note_on_c, 3, 52, 54
10, 1374, Note_on_c, 3, 52, 0
10, 1380, Note_on_c, 3, 62, 54
10, 1404, Note_on_c, 3, 62, 0
10, 1440, Note_on_c, 3, 76, 120
10, 1464, Note_on_c, 3, 76, 0
10, 1530, Note_on_c, 3, 76, 120
10, 1554, Note_on_c, 3, 76, 0
10, 1560, Note_on_c, 3, 76, 120
10, 1608, Note_on_c, 3, 76, 0
10, 1620, Note_on_c, 3, 74, 120
10, 1668, Note_on_c, 3, 74, 0
10, 1680, Note_on_c, 3, 72, 120
10, 1728, Note_on_c, 3, 72, 0
10, 1740, Note_on_c, 3, 72, 120
10, 1812, Note_on_c, 3, 72, 0
10, 1830, Note_on_c, 3, 72, 120
10, 1878, Note_on_c, 3, 72, 0
10, 1890, Note_on_c, 3, 71, 120
10, 1914, Note_on_c, 3, 71, 0
10, 1920, Note_on_c, 3, 69, 120
10, 1968, Note_on_c, 3, 69, 0
10, 2010, Note_on_c, 3, 69, 120
10, 2034, Note_on_c, 3, 69, 0
10, 2040, Note_on_c, 3, 69, 120
10, 2088, Note_on_c, 3, 69, 0
10, 2100, Note_on_c, 3, 69, 120
10, 2148, Note_on_c, 3, 69, 0
10, 2160, Note_on_c, 3, 65, 120
10, 2256, Note_on_c, 3, 65, 0
10, 2280, Note_on_c, 3, 67, 120
10, 2328, Note_on_c, 3, 67, 0
10, 2340, Note_on_c, 3, 64, 120
10, 2580, Note_on_c, 3, 64, 0
10, 2640, Note_on_c, 3, 67, 120
10, 2832, Note_on_c, 3, 67, 0
10, 2880, Note_on_c, 3, 72, 120
10, 3072, Note_on_c, 3, 72, 0
10, 3120, Note_on_c, 3, 74, 120
10, 3312, Note_on_c, 3, 74, 0
10, 3360, Note_on_c, 3, 76, 120
10, 3432, Note_on_c, 3, 76, 0
10, 3450, Note_on_c, 3, 76, 120
10, 3474, Note_on_c, 3, 76, 0
10, 3510, Note_on_c, 3, 76, 120
10, 3558, Note_on_c, 3, 76, 0
10, 3570, Note_on_c, 3, 74, 120
10, 3594, Note_on_c, 3, 74, 0
10, 3600, Note_on_c, 3, 72, 120
10, 3648, Note_on_c, 3, 72, 0
10, 3660, Note_on_c, 3, 72, 120
10, 3708, Note_on_c, 3, 72, 0
10, 3750, Note_on_c, 3, 72, 120
10, 3774, Note_on_c, 3, 72, 0
10, 3810, Note_on_c, 3, 71, 120
10, 3834, Note_on_c, 3, 71, 0
10, 3840, Note_on_c, 3, 69, 120
10, 3888, Note_on_c, 3, 69, 0
10, 3930, Note_on_c, 3, 69, 120
10, 3954, Note_on_c, 3, 69, 0
10, 3960, Note_on_c, 3, 69, 120
10, 4008, Note_on_c, 3, 69, 0
10, 4020, Note_on_c, 3, 69, 120
10, 4068, Note_on_c, 3, 69, 0
10, 4080, Note_on_c, 3, 65, 120
10, 4176, Note_on_c, 3, 65, 0
10, 4200, Note_on_c, 3, 67, 120
10, 4248, Note_on_c, 3, 67, 0
10, 4290, Note_on_c, 3, 65, 120
10, 4314, Note_on_c, 3, 65, 0
10, 4320, Note_on_c, 3, 64, 120
10, 4512, Note_on_c, 3, 64, 0
10, 4560, Note_on_c, 3, 67, 120
10, 4740, Note_on_c, 3, 69, 120
10, 4752, Note_on_c, 3, 67, 0
10, 4800, Note_on_c, 3, 72, 120
10, 4992, Note_on_c, 3, 72, 0
10, 5040, Note_on_c, 3, 74, 120
10, 5172, Note_on_c, 3, 69, 0
10, 5232, Note_on_c, 3, 74, 0
10, 5280, Note_on_c, 3, 72, 120
10, 5328, Note_on_c, 3, 72, 0
10, 5400, Note_on_c, 3, 72, 120
10, 5448, Note_on_c, 3, 72, 0
10, 5460, Note_on_c, 3, 72, 120
10, 5508, Note_on_c, 3, 72, 0
10, 5520, Note_on_c, 3, 72, 120
10, 5568, Note_on_c, 3, 72, 0
10, 5580, Note_on_c, 3, 74, 120
10, 5604, Note_on_c, 3, 74, 0
10, 5610, Note_on_c, 3, 72, 120
10, 5634, Note_on_c, 3, 72, 0
10, 5640, Note_on_c, 3, 72, 120
10, 5688, Note_on_c, 3, 72, 0
10, 5730, Note_on_c, 3, 72, 120
10, 5754, Note_on_c, 3, 72, 0
10, 5760, Note_on_c, 3, 72, 120
10, 5808, Note_on_c, 3, 72, 0
10, 5820, Note_on_c, 3, 69, 120
10, 6060, Note_on_c, 3, 69, 0
10, 6240, Note_on_c, 3, 72, 120
10, 6336, Note_on_c, 3, 72, 0
10, 6360, Note_on_c, 3, 72, 120
10, 6408, Note_on_c, 3, 72, 0
10, 6450, Note_on_c, 3, 72, 120
10, 6474, Note_on_c, 3, 72, 0
10, 6480, Note_on_c, 3, 72, 120
10, 6528, Note_on_c, 3, 72, 0
10, 6540, Note_on_c, 3, 72, 120
10, 6588, Note_on_c, 3, 72, 0
10, 6600, Note_on_c, 3, 72, 120
10, 6624, Note_on_c, 3, 72, 0
10, 6630, Note_on_c, 3, 72, 120
10, 6654, Note_on_c, 3, 72, 0
10, 6660, Note_on_c, 3, 74, 120
10, 6684, Note_on_c, 3, 74, 0
10, 6690, Note_on_c, 3, 72, 120
10, 6714, Note_on_c, 3, 72, 0
10, 6720, Note_on_c, 3, 69, 120
10, 7104, Note_on_c, 3, 69, 0
10, 7200, Note_on_c, 3, 74, 120
10, 7248, Note_on_c, 3, 74, 0
10, 7320, Note_on_c, 3, 74, 120
10, 7368, Note_on_c, 3, 74, 0
10, 7380, Note_on_c, 3, 74, 120
10, 7428, Note_on_c, 3, 74, 0
10, 7440, Note_on_c, 3, 74, 120
10, 7488, Note_on_c, 3, 74, 0
10, 7500, Note_on_c, 3, 74, 120
10, 7548, Note_on_c, 3, 74, 0
10, 7560, Note_on_c, 3, 74, 120
10, 7608, Note_on_c, 3, 74, 0
10, 7620, Note_on_c, 3, 74, 120
10, 7668, Note_on_c, 3, 74, 0
10, 7680, Note_on_c, 3, 74, 120
10, 7728, Note_on_c, 3, 74, 0
10, 7740, Note_on_c, 3, 71, 120
10, 8028, Note_on_c, 3, 71, 0
10, 8100, Note_on_c, 3, 71, 120
10, 8148, Note_on_c, 3, 71, 0
10, 8160, Note_on_c, 3, 74, 120
10, 8304, Note_on_c, 3, 74, 0
10, 8340, Note_on_c, 3, 74, 120
10, 8388, Note_on_c, 3, 74, 0
10, 8400, Note_on_c, 3, 74, 120
10, 8472, Note_on_c, 3, 74, 0
10, 8490, Note_on_c, 3, 69, 120
10, 8514, Note_on_c, 3, 69, 0
10, 8520, Note_on_c, 3, 71, 120
10, 8568, Note_on_c, 3, 71, 0
10, 8580, Note_on_c, 3, 72, 120
10, 8628, Note_on_c, 3, 72, 0
10, 8640, Note_on_c, 3, 74, 120
10, 9024, Note_on_c, 3, 74, 0
10, 9120, Note_on_c, 3, 76, 120
10, 9168, Note_on_c, 3, 76, 0
10, 9210, Note_on_c, 3, 76, 120
10, 9234, Note_on_c, 3, 76, 0
10, 9240, Note_on_c, 3, 76, 120
10, 9288, Note_on_c, 3, 76, 0
10, 9330, Note_on_c, 3, 74, 120
10, 9354, Note_on_c, 3, 74, 0
10, 9360, Note_on_c, 3, 72, 120
10, 9408, Note_on_c, 3, 72, 0
10, 9450, Note_on_c, 3, 72, 120
10, 9474, Note_on_c, 3, 72, 0
10, 9480, Note_on_c, 3, 72, 120
10, 9528, Note_on_c, 3, 72, 0
10, 9570, Note_on_c, 3, 71, 120
10, 9594, Note_on_c, 3, 71, 0
10, 9600, Note_on_c, 3, 69, 120
10, 9648, Note_on_c, 3, 69, 0
10, 9660, Note_on_c, 3, 69, 120
10, 9708, Note_on_c, 3, 69, 0
10, 9750, Note_on_c, 3, 69, 120
10, 9774, Note_on_c, 3, 69, 0
10, 9780, Note_on_c, 3, 67, 120
10, 9828, Note_on_c, 3, 67, 0
10, 9840, Note_on_c, 3, 65, 120
10, 9936, Note_on_c, 3, 65, 0
10, 9960, Note_on_c, 3, 67, 120
10, 10008, Note_on_c, 3, 67, 0
10, 10020, Note_on_c, 3, 65, 120
10, 10068, Note_on_c, 3, 65, 0
10, 10080, Note_on_c, 3, 64, 120
10, 10272, Note_on_c, 3, 64, 0
10, 10320, Note_on_c, 3, 67, 120
10, 10512, Note_on_c, 3, 67, 0
10, 10560, Note_on_c, 3, 72, 120
10, 10656, Note_on_c, 3, 72, 0
10, 10800, Note_on_c, 3, 74, 120
10, 10992, Note_on_c, 3, 74, 0
10, 11040, Note_on_c, 3, 76, 120
10, 11064, Note_on_c, 3, 76, 0
10, 11130, Note_on_c, 3, 76, 120
10, 11154, Note_on_c, 3, 76, 0
10, 11160, Note_on_c, 3, 76, 120
10, 11208, Note_on_c, 3, 76, 0
10, 11220, Note_on_c, 3, 74, 120
10, 11268, Note_on_c, 3, 74, 0
10, 11280, Note_on_c, 3, 72, 120
10, 11328, Note_on_c, 3, 72, 0
10, 11340, Note_on_c, 3, 72, 120
10, 11412, Note_on_c, 3, 72, 0
10, 11430, Note_on_c, 3, 72, 120
10, 11478, Note_on_c, 3, 72, 0
10, 11490, Note_on_c, 3, 71, 120
10, 11514, Note_on_c, 3, 71, 0
10, 11520, Note_on_c, 3, 69, 120
10, 11568, Note_on_c, 3, 69, 0
10, 11610, Note_on_c, 3, 69, 120
10, 11634, Note_on_c, 3, 69, 0
10, 11640, Note_on_c, 3, 69, 120
10, 11688, Note_on_c, 3, 69, 0
10, 11700, Note_on_c, 3, 69, 120
10, 11748, Note_on_c, 3, 69, 0
10, 11760, Note_on_c, 3, 65, 120
10, 11856, Note_on_c, 3, 65, 0
10, 11880, Note_on_c, 3, 67, 120
10, 11928, Note_on_c, 3, 67, 0
10, 11940, Note_on_c, 3, 64, 120
10, 12180, Note_on_c, 3, 64, 0
10, 12240, Note_on_c, 3, 67, 120
10, 12432, Note_on_c, 3, 67, 0
10, 12480, Note_on_c, 3, 72, 120
10, 12672, Note_on_c, 3, 72, 0
10, 12720, Note_on_c, 3, 74, 120
10, 12912, Note_on_c, 3, 74, 0
10, 12960, Note_on_c, 3, 76, 120
10, 13032, Note_on_c, 3, 76, 0
10, 13050, Note_on_c, 3, 76, 120
10, 13074, Note_on_c, 3, 76, 0
10, 13110, Note_on_c, 3, 76, 120
10, 13158, Note_on_c, 3, 76, 0
10, 13170, Note_on_c, 3, 74, 120
10, 13194, Note_on_c, 3, 74, 0
10, 13200, Note_on_c, 3, 72, 120
10, 13248, Note_on_c, 3, 72, 0
10, 13260, Note_on_c, 3, 72, 120
10, 13308, Note_on_c, 3, 72, 0
10, 13350, Note_on_c, 3, 72, 120
10, 13374, Note_on_c, 3, 72, 0
10, 13410, Note_on_c, 3, 71, 120
10, 13434, Note_on_c, 3, 71, 0
10, 13440, Note_on_c, 3, 69, 120
10, 13488, Note_on_c, 3, 69, 0
10, 13530, Note_on_c, 3, 69, 120
10, 13554, Note_on_c, 3, 69, 0
10, 13560, Note_on_c, 3, 69, 120
10, 13608, Note_on_c, 3, 69, 0
10, 13620, Note_on_c, 3, 69, 120
10, 13668, Note_on_c, 3, 69, 0
10, 13680, Note_on_c, 3, 65, 120
10, 13776, Note_on_c, 3, 65, 0
10, 13800, Note_on_c, 3, 67, 120
10, 13848, Note_on_c, 3, 67, 0
10, 13890, Note_on_c, 3, 65, 120
10, 13914, Note_on_c, 3, 65, 0
10, 13920, Note_on_c, 3, 64, 120
10, 14112, Note_on_c, 3, 64, 0
10, 14160, Note_on_c, 3, 67, 120
10, 14340, Note_on_c, 3, 69, 120
10, 14352, Note_on_c, 3, 67, 0
10, 14400, Note_on_c, 3, 72, 120
10, 14592, Note_on_c, 3, 72, 0
10, 14640, Note_on_c, 3, 74, 120
10, 14772, Note_on_c, 3, 69, 0
10, 14832, Note_on_c, 3, 74, 0
10, 14880, Note_on_c, 3, 72, 120
10, 14928, Note_on_c, 3, 72, 0
10, 15000, Note_on_c, 3, 72, 120
10, 15048, Note_on_c, 3, 72, 0
10, 15060, Note_on_c, 3, 72, 120
10, 15108, Note_on_c, 3, 72, 0
10, 15120, Note_on_c, 3, 72, 120
10, 15168, Note_on_c, 3, 72, 0
10, 15180, Note_on_c, 3, 74, 120
10, 15204, Note_on_c, 3, 74, 0
10, 15210, Note_on_c, 3, 72, 120
10, 15234, Note_on_c, 3, 72, 0
10, 15240, Note_on_c, 3, 72, 120
10, 15288, Note_on_c, 3, 72, 0
10, 15330, Note_on_c, 3, 72, 120
10, 15354, Note_on_c, 3, 72, 0
10, 15360, Note_on_c, 3, 72, 120
10, 15408, Note_on_c, 3, 72, 0
10, 15420, Note_on_c, 3, 69, 120
10, 15660, Note_on_c, 3, 69, 0
10, 15840, Note_on_c, 3, 72, 120
10, 15936, Note_on_c, 3, 72, 0
10, 15960, Note_on_c, 3, 72, 120
10, 16008, Note_on_c, 3, 72, 0
10, 16050, Note_on_c, 3, 72, 120
10, 16074, Note_on_c, 3, 72, 0
10, 16080, Note_on_c, 3, 72, 120
10, 16128, Note_on_c, 3, 72, 0
10, 16140, Note_on_c, 3, 72, 120
10, 16188, Note_on_c, 3, 72, 0
10, 16200, Note_on_c, 3, 72, 120
10, 16224, Note_on_c, 3, 72, 0
10, 16230, Note_on_c, 3, 72, 120
10, 16254, Note_on_c, 3, 72, 0
10, 16260, Note_on_c, 3, 72, 120
10, 16260, Note_on_c, 3, 74, 120
10, 16284, Note_on_c, 3, 74, 0
10, 16284, Note_on_c, 3, 72, 0
10, 16290, Note_on_c, 3, 72, 120
10, 16314, Note_on_c, 3, 72, 0
10, 16320, Note_on_c, 3, 69, 120
10, 16704, Note_on_c, 3, 69, 0
10, 16800, Note_on_c, 3, 74, 120
10, 16848, Note_on_c, 3, 74, 0
10, 16920, Note_on_c, 3, 74, 120
10, 16968, Note_on_c, 3, 74, 0
10, 16980, Note_on_c, 3, 74, 120
10, 17028, Note_on_c, 3, 74, 0
10, 17040, Note_on_c, 3, 74, 120
10, 17088, Note_on_c, 3, 74, 0
10, 17100, Note_on_c, 3, 74, 120
10, 17148, Note_on_c, 3, 74, 0
10, 17160, Note_on_c, 3, 74, 120
10, 17208, Note_on_c, 3, 74, 0
10, 17220, Note_on_c, 3, 74, 120
10, 17268, Note_on_c, 3, 74, 0
10, 17280, Note_on_c, 3, 74, 120
10, 17328, Note_on_c, 3, 74, 0
10, 17340, Note_on_c, 3, 71, 120
10, 17628, Note_on_c, 3, 71, 0
10, 17700, Note_on_c, 3, 71, 120
10, 17748, Note_on_c, 3, 71, 0
10, 17760, Note_on_c, 3, 74, 120
10, 17904, Note_on_c, 3, 74, 0
10, 17940, Note_on_c, 3, 74, 120
10, 17988, Note_on_c, 3, 74, 0
10, 18000, Note_on_c, 3, 74, 120
10, 18072, Note_on_c, 3, 74, 0
10, 18090, Note_on_c, 3, 69, 120
10, 18114, Note_on_c, 3, 69, 0
10, 18120, Note_on_c, 3, 71, 120
10, 18168, Note_on_c, 3, 71, 0
10, 18180, Note_on_c, 3, 72, 120
10, 18228, Note_on_c, 3, 72, 0
10, 18240, Note_on_c, 3, 74, 120
10, 18624, Note_on_c, 3, 74, 0
10, 28320, Note_on_c, 3, 76, 120
10, 28368, Note_on_c, 3, 76, 0
10, 28410, Note_on_c, 3, 76, 120
10, 28434, Note_on_c, 3, 76, 0
10, 28440, Note_on_c, 3, 76, 120
10, 28488, Note_on_c, 3, 76, 0
10, 28530, Note_on_c, 3, 74, 120
10, 28554, Note_on_c, 3, 74, 0
10, 28560, Note_on_c, 3, 72, 120
10, 28608, Note_on_c, 3, 72, 0
10, 28650, Note_on_c, 3, 72, 120
10, 28674, Note_on_c, 3, 72, 0
10, 28680, Note_on_c, 3, 72, 120
10, 28728, Note_on_c, 3, 72, 0
10, 28770, Note_on_c, 3, 71, 120
10, 28794, Note_on_c, 3, 71, 0
10, 28800, Note_on_c, 3, 69, 120
10, 28848, Note_on_c, 3, 69, 0
10, 28860, Note_on_c, 3, 69, 120
10, 28908, Note_on_c, 3, 69, 0
10, 28950, Note_on_c, 3, 69, 120
10, 28974, Note_on_c, 3, 69, 0
10, 28980, Note_on_c, 3, 67, 120
10, 29028, Note_on_c, 3, 67, 0
10, 29040, Note_on_c, 3, 65, 120
10, 29136, Note_on_c, 3, 65, 0
10, 29160, Note_on_c, 3, 67, 120
10, 29208, Note_on_c, 3, 67, 0
10, 29220, Note_on_c, 3, 65, 120
10, 29268, Note_on_c, 3, 65, 0
10, 29280, Note_on_c, 3, 64, 120
10, 29472, Note_on_c, 3, 64, 0
10, 29520, Note_on_c, 3, 67, 120
10, 29712, Note_on_c, 3, 67, 0
10, 29760, Note_on_c, 3, 72, 120
10, 29856, Note_on_c, 3, 72, 0
10, 30000, Note_on_c, 3, 74, 120
10, 30192, Note_on_c, 3, 74, 0
10, 30240, Note_on_c, 3, 76, 120
10, 30264, Note_on_c, 3, 76, 0
10, 30330, Note_on_c, 3, 76, 120
10, 30354, Note_on_c, 3, 76, 0
10, 30360, Note_on_c, 3, 76, 120
10, 30408, Note_on_c, 3, 76, 0
10, 30420, Note_on_c, 3, 74, 120
10, 30468, Note_on_c, 3, 74, 0
10, 30480, Note_on_c, 3, 72, 120
10, 30528, Note_on_c, 3, 72, 0
10, 30540, Note_on_c, 3, 72, 120
10, 30612, Note_on_c, 3, 72, 0
10, 30630, Note_on_c, 3, 72, 120
10, 30678, Note_on_c, 3, 72, 0
10, 30690, Note_on_c, 3, 71, 120
10, 30714, Note_on_c, 3, 71, 0
10, 30720, Note_on_c, 3, 69, 120
10, 30768, Note_on_c, 3, 69, 0
10, 30810, Note_on_c, 3, 69, 120
10, 30834, Note_on_c, 3, 69, 0
10, 30840, Note_on_c, 3, 69, 120
10, 30888, Note_on_c, 3, 69, 0
10, 30900, Note_on_c, 3, 69, 120
10, 30948, Note_on_c, 3, 69, 0
10, 30960, Note_on_c, 3, 65, 120
10, 31056, Note_on_c, 3, 65, 0
10, 31080, Note_on_c, 3, 67, 120
10, 31128, Note_on_c, 3, 67, 0
10, 31140, Note_on_c, 3, 64, 120
10, 31380, Note_on_c, 3, 64, 0
10, 31440, Note_on_c, 3, 67, 120
10, 31632, Note_on_c, 3, 67, 0
10, 31680, Note_on_c, 3, 72, 120
10, 31872, Note_on_c, 3, 72, 0
10, 31920, Note_on_c, 3, 74, 120
10, 32112, Note_on_c, 3, 74, 0
10, 32160, Note_on_c, 3, 76, 120
10, 32232, Note_on_c, 3, 76, 0
10, 32250, Note_on_c, 3, 76, 120
10, 32274, Note_on_c, 3, 76, 0
10, 32310, Note_on_c, 3, 76, 120
10, 32358, Note_on_c, 3, 76, 0
10, 32370, Note_on_c, 3, 74, 120
10, 32394, Note_on_c, 3, 74, 0
10, 32400, Note_on_c, 3, 72, 120
10, 32448, Note_on_c, 3, 72, 0
10, 32460, Note_on_c, 3, 72, 120
10, 32508, Note_on_c, 3, 72, 0
10, 32550, Note_on_c, 3, 72, 120
10, 32574, Note_on_c, 3, 72, 0
10, 32610, Note_on_c, 3, 71, 120
10, 32634, Note_on_c, 3, 71, 0
10, 32640, Note_on_c, 3, 69, 120
10, 32688, Note_on_c, 3, 69, 0
10, 32730, Note_on_c, 3, 69, 120
10, 32754, Note_on_c, 3, 69, 0
10, 32760, Note_on_c, 3, 69, 120
10, 32808, Note_on_c, 3, 69, 0
10, 32820, Note_on_c, 3, 69, 120
10, 32868, Note_on_c, 3, 69, 0
10, 32880, Note_on_c, 3, 65, 120
10, 32976, Note_on_c, 3, 65, 0
10, 33000, Note_on_c, 3, 67, 120
10, 33048, Note_on_c, 3, 67, 0
10, 33090, Note_on_c, 3, 65, 120
10, 33114, Note_on_c, 3, 65, 0
10, 33120, Note_on_c, 3, 64, 120
10, 33312, Note_on_c, 3, 64, 0
10, 33360, Note_on_c, 3, 67, 120
10, 33540, Note_on_c, 3, 69, 120
10, 33552, Note_on_c, 3, 67, 0
10, 33600, Note_on_c, 3, 72, 120
10, 33792, Note_on_c, 3, 72, 0
10, 33840, Note_on_c, 3, 74, 120
10, 33972, Note_on_c, 3, 69, 0
10, 34032, Note_on_c, 3, 74, 0
10, 34080, Note_on_c, 3, 72, 120
10, 34128, Note_on_c, 3, 72, 0
10, 34200, Note_on_c, 3, 72, 120
10, 34248, Note_on_c, 3, 72, 0
10, 34260, Note_on_c, 3, 72, 120
10, 34308, Note_on_c, 3, 72, 0
10, 34320, Note_on_c, 3, 72, 120
10, 34368, Note_on_c, 3, 72, 0
10, 34380, Note_on_c, 3, 74, 120
10, 34404, Note_on_c, 3, 74, 0
10, 34410, Note_on_c, 3, 72, 120
10, 34434, Note_on_c, 3, 72, 0
10, 34440, Note_on_c, 3, 72, 120
10, 34488, Note_on_c, 3, 72, 0
10, 34530, Note_on_c, 3, 72, 120
10, 34554, Note_on_c, 3, 72, 0
10, 34560, Note_on_c, 3, 72, 120
10, 34608, Note_on_c, 3, 72, 0
10, 34620, Note_on_c, 3, 69, 120
10, 34860, Note_on_c, 3, 69, 0
10, 35040, Note_on_c, 3, 72, 120
10, 35136, Note_on_c, 3, 72, 0
10, 35160, Note_on_c, 3, 72, 120
10, 35208, Note_on_c, 3, 72, 0
10, 35250, Note_on_c, 3, 72, 120
10, 35274, Note_on_c, 3, 72, 0
10, 35280, Note_on_c, 3, 72, 120
10, 35328, Note_on_c, 3, 72, 0
10, 35340, Note_on_c, 3, 72, 120
10, 35388, Note_on_c, 3, 72, 0
10, 35400, Note_on_c, 3, 72, 120
10, 35424, Note_on_c, 3, 72, 0
10, 35430, Note_on_c, 3, 72, 120
10, 35454, Note_on_c, 3, 72, 0
10, 35460, Note_on_c, 3, 72, 120
10, 35460, Note_on_c, 3, 74, 120
10, 35484, Note_on_c, 3, 74, 0
10, 35484, Note_on_c, 3, 72, 0
10, 35490, Note_on_c, 3, 72, 120
10, 35514, Note_on_c, 3, 72, 0
10, 35520, Note_on_c, 3, 69, 120
10, 35904, Note_on_c, 3, 69, 0
10, 36000, Note_on_c, 3, 74, 120
10, 36048, Note_on_c, 3, 74, 0
10, 36120, Note_on_c, 3, 74, 120
10, 36168, Note_on_c, 3, 74, 0
10, 36180, Note_on_c, 3, 74, 120
10, 36228, Note_on_c, 3, 74, 0
10, 36240, Note_on_c, 3, 74, 120
10, 36288, Note_on_c, 3, 74, 0
10, 36300, Note_on_c, 3, 74, 120
10, 36348, Note_on_c, 3, 74, 0
10, 36360, Note_on_c, 3, 74, 120
10, 36408, Note_on_c, 3, 74, 0
10, 36420, Note_on_c, 3, 74, 120
10, 36468, Note_on_c, 3, 74, 0
10, 36480, Note_on_c, 3, 74, 120
10, 36528, Note_on_c, 3, 74, 0
10, 36540, Note_on_c, 3, 71, 120
10, 36828, Note_on_c, 3, 71, 0
10, 36900, Note_on_c, 3, 71, 120
10, 36948, Note_on_c, 3, 71, 0
10, 36960, Note_on_c, 3, 74, 120
10, 37104, Note_on_c, 3, 74, 0
10, 37140, Note_on_c, 3, 74, 120
10, 37188, Note_on_c, 3, 74, 0
10, 37200, Note_on_c, 3, 74, 120
10, 37272, Note_on_c, 3, 74, 0
10, 37290, Note_on_c, 3, 69, 120
10, 37314, Note_on_c, 3, 69, 0
10, 37320, Note_on_c, 3, 71, 120
10, 37368, Note_on_c, 3, 71, 0
10, 37380, Note_on_c, 3, 72, 120
10, 37428, Note_on_c, 3, 72, 0
10, 37440, Note_on_c, 3, 74, 120
10, 37824, Note_on_c, 3, 74, 0
10, 37920, Note_on_c, 3, 76, 120
10, 37968, Note_on_c, 3, 76, 0
10, 38010, Note_on_c, 3, 76, 120
10, 38034, Note_on_c, 3, 76, 0
10, 38040, Note_on_c, 3, 76, 120
10, 38088, Note_on_c, 3, 76, 0
10, 38130, Note_on_c, 3, 74, 120
10, 38154, Note_on_c, 3, 74, 0
10, 38160, Note_on_c, 3, 72, 120
10, 38208, Note_on_c, 3, 72, 0
10, 38250, Note_on_c, 3, 72, 120
10, 38274, Note_on_c, 3, 72, 0
10, 38280, Note_on_c, 3, 72, 120
10, 38328, Note_on_c, 3, 72, 0
10, 38370, Note_on_c, 3, 71, 120
10, 38394, Note_on_c, 3, 71, 0
10, 38400, Note_on_c, 3, 69, 120
10, 38448, Note_on_c, 3, 69, 0
10, 38460, Note_on_c, 3, 69, 120
10, 38508, Note_on_c, 3, 69, 0
10, 38550, Note_on_c, 3, 69, 120
10, 38574, Note_on_c, 3, 69, 0
10, 38580, Note_on_c, 3, 67, 120
10, 38628, Note_on_c, 3, 67, 0
10, 38640, Note_on_c, 3, 65, 120
10, 38736, Note_on_c, 3, 65, 0
10, 38760, Note_on_c, 3, 67, 120
10, 38808, Note_on_c, 3, 67, 0
10, 38820, Note_on_c, 3, 65, 120
10, 38868, Note_on_c, 3, 65, 0
10, 38880, Note_on_c, 3, 64, 120
10, 39072, Note_on_c, 3, 64, 0
10, 39120, Note_on_c, 3, 67, 120
10, 39312, Note_on_c, 3, 67, 0
10, 39360, Note_on_c, 3, 72, 120
10, 39456, Note_on_c, 3, 72, 0
10, 39600, Note_on_c, 3, 74, 120
10, 39792, Note_on_c, 3, 74, 0
10, 39840, Note_on_c, 3, 76, 120
10, 39864, Note_on_c, 3, 76, 0
10, 39930, Note_on_c, 3, 76, 120
10, 39954, Note_on_c, 3, 76, 0
10, 39960, Note_on_c, 3, 76, 120
10, 40008, Note_on_c, 3, 76, 0
10, 40020, Note_on_c, 3, 74, 120
10, 40068, Note_on_c, 3, 74, 0
10, 40080, Note_on_c, 3, 72, 120
10, 40128, Note_on_c, 3, 72, 0
10, 40140, Note_on_c, 3, 72, 120
10, 40212, Note_on_c, 3, 72, 0
10, 40230, Note_on_c, 3, 72, 120
10, 40278, Note_on_c, 3, 72, 0
10, 40290, Note_on_c, 3, 71, 120
10, 40314, Note_on_c, 3, 71, 0
10, 40320, Note_on_c, 3, 69, 120
10, 40368, Note_on_c, 3, 69, 0
10, 40410, Note_on_c, 3, 69, 120
10, 40434, Note_on_c, 3, 69, 0
10, 40440, Note_on_c, 3, 69, 120
10, 40488, Note_on_c, 3, 69, 0
10, 40500, Note_on_c, 3, 69, 120
10, 40548, Note_on_c, 3, 69, 0
10, 40560, Note_on_c, 3, 65, 120
10, 40656, Note_on_c, 3, 65, 0
10, 40680, Note_on_c, 3, 67, 120
10, 40728, Note_on_c, 3, 67, 0
10, 40740, Note_on_c, 3, 64, 120
10, 40980, Note_on_c, 3, 64, 0
10, 41040, Note_on_c, 3, 67, 120
10, 41232, Note_on_c, 3, 67, 0
10, 41280, Note_on_c, 3, 72, 120
10, 41472, Note_on_c, 3, 72, 0
10, 41520, Note_on_c, 3, 74, 120
10, 41712, Note_on_c, 3, 74, 0
10, 41760, Note_on_c, 3, 76, 120
10, 41832, Note_on_c, 3, 76, 0
10, 41850, Note_on_c, 3, 76, 120
10, 41874, Note_on_c, 3, 76, 0
10, 41910, Note_on_c, 3, 76, 120
10, 41958, Note_on_c, 3, 76, 0
10, 41970, Note_on_c, 3, 74, 120
10, 41994, Note_on_c, 3, 74, 0
10, 42000, Note_on_c, 3, 72, 120
10, 42048, Note_on_c, 3, 72, 0
10, 42060, Note_on_c, 3, 72, 120
10, 42108, Note_on_c, 3, 72, 0
10, 42150, Note_on_c, 3, 72, 120
10, 42174, Note_on_c, 3, 72, 0
10, 42210, Note_on_c, 3, 71, 120
10, 42234, Note_on_c, 3, 71, 0
10, 42240, Note_on_c, 3, 69, 120
10, 42288, Note_on_c, 3, 69, 0
10, 42330, Note_on_c, 3, 69, 120
10, 42354, Note_on_c, 3, 69, 0
10, 42360, Note_on_c, 3, 69, 120
10, 42408, Note_on_c, 3, 69, 0
10, 42420, Note_on_c, 3, 69, 120
10, 42468, Note_on_c, 3, 69, 0
10, 42480, Note_on_c, 3, 65, 120
10, 42576, Note_on_c, 3, 65, 0
10, 42600, Note_on_c, 3, 67, 120
10, 42648, Note_on_c, 3, 67, 0
10, 42690, Note_on_c, 3, 65, 120
10, 42714, Note_on_c, 3, 65, 0
10, 42720, Note_on_c, 3, 64, 120
10, 42912, Note_on_c, 3, 64, 0
10, 42960, Note_on_c, 3, 67, 120
10, 43140, Note_on_c, 3, 69, 120
10, 43152, Note_on_c, 3, 67, 0
10, 43200, Note_on_c, 3, 72, 120
10, 43392, Note_on_c, 3, 72, 0
10, 43440, Note_on_c, 3, 74, 120
10, 43572, Note_on_c, 3, 69, 0
10, 43632, Note_on_c, 3, 74, 0
10, 43680, Note_on_c, 3, 72, 120
10, 43728, Note_on_c, 3, 72, 0
10, 43800, Note_on_c, 3, 72, 120
10, 43848, Note_on_c, 3, 72, 0
10, 43860, Note_on_c, 3, 72, 120
10, 43908, Note_on_c, 3, 72, 0
10, 43920, Note_on_c, 3, 72, 120
10, 43968, Note_on_c, 3, 72, 0
10, 43980, Note_on_c, 3, 74, 120
10, 44004, Note_on_c, 3, 74, 0
10, 44010, Note_on_c, 3, 72, 120
10, 44034, Note_on_c, 3, 72, 0
10, 44040, Note_on_c, 3, 72, 120
10, 44088, Note_on_c, 3, 72, 0
10, 44130, Note_on_c, 3, 72, 120
10, 44154, Note_on_c, 3, 72, 0
10, 44160, Note_on_c, 3, 72, 120
10, 44208, Note_on_c, 3, 72, 0
10, 44220, Note_on_c, 3, 69, 120
10, 44460, Note_on_c, 3, 69, 0
10, 44640, Note_on_c, 3, 72, 120
10, 44736, Note_on_c, 3, 72, 0
10, 44760, Note_on_c, 3, 72, 120
10, 44808, Note_on_c, 3, 72, 0
10, 44850, Note_on_c, 3, 72, 120
10, 44874, Note_on_c, 3, 72, 0
10, 44880, Note_on_c, 3, 72, 120
10, 44928, Note_on_c, 3, 72, 0
10, 44940, Note_on_c, 3, 72, 120
10, 44988, Note_on_c, 3, 72, 0
10, 45000, Note_on_c, 3, 72, 120
10, 45024, Note_on_c, 3, 72, 0
10, 45030, Note_on_c, 3, 72, 120
10, 45054, Note_on_c, 3, 72, 0
10, 45060, Note_on_c, 3, 74, 120
10, 45084, Note_on_c, 3, 74, 0
10, 45090, Note_on_c, 3, 72, 120
10, 45114, Note_on_c, 3, 72, 0
10, 45120, Note_on_c, 3, 69, 120
10, 45504, Note_on_c, 3, 69, 0
10, 45600, Note_on_c, 3, 74, 120
10, 45648, Note_on_c, 3, 74, 0
10, 45720, Note_on_c, 3, 74, 120
10, 45768, Note_on_c, 3, 74, 0
10, 45780, Note_on_c, 3, 74, 120
10, 45828, Note_on_c, 3, 74, 0
10, 45840, Note_on_c, 3, 74, 120
10, 45888, Note_on_c, 3, 74, 0
10, 45900, Note_on_c, 3, 74, 120
10, 45948, Note_on_c, 3, 74, 0
10, 45960, Note_on_c, 3, 74, 120
10, 46008, Note_on_c, 3, 74, 0
10, 46020, Note_on_c, 3, 74, 120
10, 46068, Note_on_c, 3, 74, 0
10, 46080, Note_on_c, 3, 74, 120
10, 46128, Note_on_c, 3, 74, 0
10, 46140, Note_on_c, 3, 71, 120
10, 46428, Note_on_c, 3, 71, 0
10, 46500, Note_on_c, 3, 71, 120
10, 46548, Note_on_c, 3, 71, 0
10, 46560, Note_on_c, 3, 74, 120
10, 46704, Note_on_c, 3, 74, 0
10, 46740, Note_on_c, 3, 74, 120
10, 46788, Note_on_c, 3, 74, 0
10, 46800, Note_on_c, 3, 74, 120
10, 46872, Note_on_c, 3, 74, 0
10, 46890, Note_on_c, 3, 69, 120
10, 46914, Note_on_c, 3, 69, 0
10, 46920, Note_on_c, 3, 71, 120
10, 46968, Note_on_c, 3, 71, 0
10, 46980, Note_on_c, 3, 72, 120
10, 47028, Note_on_c, 3, 72, 0
10, 47040, Note_on_c, 3, 74, 120
10, 47424, Note_on_c, 3, 74, 0
10, 47520, Note_on_c, 3, 76, 120
10, 47568, Note_on_c, 3, 76, 0
10, 47610, Note_on_c, 3, 76, 120
10, 47634, Note_on_c, 3, 76, 0
10, 47640, Note_on_c, 3, 76, 120
10, 47688, Note_on_c, 3, 76, 0
10, 47730, Note_on_c, 3, 74, 120
10, 47754, Note_on_c, 3, 74, 0
10, 47760, Note_on_c, 3, 72, 120
10, 47808, Note_on_c, 3, 72, 0
10, 47850, Note_on_c, 3, 72, 120
10, 47874, Note_on_c, 3, 72, 0
10, 47880, Note_on_c, 3, 72, 120
10, 47928, Note_on_c, 3, 72, 0
10, 47970, Note_on_c, 3, 71, 120
10, 47994, Note_on_c, 3, 71, 0
10, 48000, Note_on_c, 3, 69, 120
10, 48048, Note_on_c, 3, 69, 0
10, 48060, Note_on_c, 3, 69, 120
10, 48108, Note_on_c, 3, 69, 0
10, 48150, Note_on_c, 3, 69, 120
10, 48174, Note_on_c, 3, 69, 0
10, 48180, Note_on_c, 3, 67, 120
10, 48228, Note_on_c, 3, 67, 0
10, 48240, Note_on_c, 3, 65, 120
10, 48336, Note_on_c, 3, 65, 0
10, 48360, Note_on_c, 3, 67, 120
10, 48408, Note_on_c, 3, 67, 0
10, 48420, Note_on_c, 3, 65, 120
10, 48468, Note_on_c, 3, 65, 0
10, 48480, Note_on_c, 3, 64, 120
10, 48672, Note_on_c, 3, 64, 0
10, 48720, Note_on_c, 3, 67, 120
10, 48912, Note_on_c, 3, 67, 0
10, 48960, Note_on_c, 3, 72, 120
10, 49056, Note_on_c, 3, 72, 0
10, 49200, Note_on_c, 3, 74, 120
10, 49392, Note_on_c, 3, 74, 0
10, 49440, Note_on_c, 3, 76, 120
10, 49440, Note_on_c, 3, 76, 120
10, 49440, Note_on_c, 3, 76, 120
10, 49536, Note_on_c, 3, 76, 0
10, 49536, Note_on_c, 3, 76, 0
10, 49536, Note_on_c, 3, 76, 0
10, 49560, Note_on_c, 3, 79, 120
10, 49560, Note_on_c, 3, 74, 120
10, 49560, Note_on_c, 3, 74, 120
10, 49656, Note_on_c, 3, 74, 0
10, 49656, Note_on_c, 3, 74, 0
10, 49656, Note_on_c, 3, 79, 0
10, 49680, Note_on_c, 3, 76, 120
10, 49680, Note_on_c, 3, 72, 120
10, 49776, Note_on_c, 3, 72, 0
10, 49776, Note_on_c, 3, 76, 0
10, 49800, Note_on_c, 3, 74, 120
10, 49800, Note_on_c, 3, 81, 120
10, 49872, Note_on_c, 3, 81, 0
10, 49872, Note_on_c, 3, 74, 0
10, 49890, Note_on_c, 3, 74, 120
10, 49914, Note_on_c, 3, 74, 0
10, 49920, Note_on_c, 3, 76, 120
10, 50016, Note_on_c, 3, 76, 0
10, 50070, Note_on_c, 3, 79, 120
10, 50094, Note_on_c, 3, 79, 0
10, 50100, Note_on_c, 3, 81, 120
10, 50100, Note_on_c, 3, 74, 120
10, 50148, Note_on_c, 3, 74, 0
10, 50148, Note_on_c, 3, 81, 0
10, 50160, Note_on_c, 3, 84, 120
10, 50160, Note_on_c, 3, 81, 120
10, 50160, Note_on_c, 3, 72, 120
10, 50256, Note_on_c, 3, 72, 0
10, 50256, Note_on_c, 3, 81, 0
10, 50256, Note_on_c, 3, 84, 0
10, 50280, Note_on_c, 3, 86, 120
10, 50280, Note_on_c, 3, 79, 120
10, 50280, Note_on_c, 3, 74, 120
10, 50376, Note_on_c, 3, 74, 0
10, 50376, Note_on_c, 3, 79, 0
10, 50376, Note_on_c, 3, 86, 0
10, 50400, Note_on_c, 3, 88, 120
10, 50400, Note_on_c, 3, 79, 120
10, 50400, Note_on_c, 3, 72, 120
10, 51168, Note_on_c, 3, 72, 0
10, 51168, Note_on_c, 3, 79, 0
10, 51168, Note_on_c, 3, 88, 0
10, 51168, End_track
11, 0, Start_track
11, 0, MIDI_port, 0
11, 0, Title_t, "Piano"
11, 0, Program_c, 3, 0
11, 0, Control_c, 3, 7, 127
11, 0, Control_c, 3, 10, 60
11, 0, Note_on_c, 3, 43, 52
11, 0, Note_on_c, 3, 48, 52
11, 48, Note_on_c, 3, 48, 0
11, 48, Note_on_c, 3, 43, 0
11, 60, Note_on_c, 3, 52, 52
11, 108, Note_on_c, 3, 52, 0
11, 120, Note_on_c, 3, 55, 52
11, 168, Note_on_c, 3, 55, 0
11, 180, Note_on_c, 3, 60, 52
11, 228, Note_on_c, 3, 60, 0
11, 240, Note_on_c, 3, 45, 52
11, 240, Note_on_c, 3, 55, 52
11, 288, Note_on_c, 3, 55, 0
11, 288, Note_on_c, 3, 45, 0
11, 300, Note_on_c, 3, 52, 52
11, 348, Note_on_c, 3, 52, 0
11, 360, Note_on_c, 3, 48, 52
11, 456, Note_on_c, 3, 48, 0
11, 480, Note_on_c, 3, 48, 53
11, 480, Note_on_c, 3, 55, 53
11, 528, Note_on_c, 3, 55, 0
11, 528, Note_on_c, 3, 48, 0
11, 540, Note_on_c, 3, 60, 53
11, 588, Note_on_c, 3, 60, 0
11, 600, Note_on_c, 3, 64, 53
11, 672, Note_on_c, 3, 64, 0
11, 690, Note_on_c, 3, 65, 53
11, 714, Note_on_c, 3, 65, 0
11, 720, Note_on_c, 3, 59, 53
11, 720, Note_on_c, 3, 64, 53
11, 768, Note_on_c, 3, 64, 0
11, 768, Note_on_c, 3, 59, 0
11, 780, Note_on_c, 3, 60, 53
11, 828, Note_on_c, 3, 60, 0
11, 840, Note_on_c, 3, 55, 53
11, 936, Note_on_c, 3, 55, 0
11, 960, Note_on_c, 3, 43, 54
11, 960, Note_on_c, 3, 60, 54
11, 1008, Note_on_c, 3, 60, 0
11, 1008, Note_on_c, 3, 43, 0
11, 1020, Note_on_c, 3, 55, 54
11, 1068, Note_on_c, 3, 55, 0
11, 1080, Note_on_c, 3, 52, 54
11, 1128, Note_on_c, 3, 52, 0
11, 1140, Note_on_c, 3, 52, 54
11, 1188, Note_on_c, 3, 52, 0
11, 1200, Note_on_c, 3, 40, 54
11, 1200, Note_on_c, 3, 55, 54
11, 1248, Note_on_c, 3, 55, 0
11, 1248, Note_on_c, 3, 40, 0
11, 1260, Note_on_c, 3, 52, 54
11, 1308, Note_on_c, 3, 52, 0
11, 1320, Note_on_c, 3, 48, 54
11, 1344, Note_on_c, 3, 48, 0
11, 1350, Note_on_c, 3, 40, 54
11, 1374, Note_on_c, 3, 40, 0
11, 1380, Note_on_c, 3, 50, 54
11, 1404, Note_on_c, 3, 50, 0
11, 1440, Note_on_c, 3, 64, 120
11, 1464, Note_on_c, 3, 64, 0
11, 1530, Note_on_c, 3, 64, 120
11, 1554, Note_on_c, 3, 64, 0
11, 1560, Note_on_c, 3, 64, 120
11, 1608, Note_on_c, 3, 64, 0
11, 1620, Note_on_c, 3, 62, 120
11, 1668, Note_on_c, 3, 62, 0
11, 1680, Note_on_c, 3, 60, 120
11, 1728, Note_on_c, 3, 60, 0
11, 1740, Note_on_c, 3, 60, 120
11, 1812, Note_on_c, 3, 60, 0
11, 1830, Note_on_c, 3, 60, 120
11, 1878, Note_on_c, 3, 60, 0
11, 1890, Note_on_c, 3, 59, 120
11, 1914, Note_on_c, 3, 59, 0
11, 1920, Note_on_c, 3, 57, 120
11, 1968, Note_on_c, 3, 57, 0
11, 2010, Note_on_c, 3, 57, 120
11, 2034, Note_on_c, 3, 57, 0
11, 2040, Note_on_c, 3, 57, 120
11, 2088, Note_on_c, 3, 57, 0
11, 2100, Note_on_c, 3, 57, 120
11, 2148, Note_on_c, 3, 57, 0
11, 2160, Note_on_c, 3, 53, 120
11, 2256, Note_on_c, 3, 53, 0
11, 2280, Note_on_c, 3, 55, 120
11, 2328, Note_on_c, 3, 55, 0
11, 2340, Note_on_c, 3, 52, 120
11, 2580, Note_on_c, 3, 52, 0
11, 2640, Note_on_c, 3, 55, 120
11, 2832, Note_on_c, 3, 55, 0
11, 2880, Note_on_c, 3, 60, 120
11, 3072, Note_on_c, 3, 60, 0
11, 3120, Note_on_c, 3, 62, 120
11, 3312, Note_on_c, 3, 62, 0
11, 3360, Note_on_c, 3, 64, 120
11, 3432, Note_on_c, 3, 64, 0
11, 3450, Note_on_c, 3, 64, 120
11, 3474, Note_on_c, 3, 64, 0
11, 3510, Note_on_c, 3, 64, 120
11, 3558, Note_on_c, 3, 64, 0
11, 3570, Note_on_c, 3, 62, 120
11, 3594, Note_on_c, 3, 62, 0
11, 3600, Note_on_c, 3, 60, 120
11, 3648, Note_on_c, 3, 60, 0
11, 3660, Note_on_c, 3, 60, 120
11, 3708, Note_on_c, 3, 60, 0
11, 3750, Note_on_c, 3, 60, 120
11, 3774, Note_on_c, 3, 60, 0
11, 3810, Note_on_c, 3, 59, 120
11, 3834, Note_on_c, 3, 59, 0
11, 3840, Note_on_c, 3, 57, 120
11, 3888, Note_on_c, 3, 57, 0
11, 3930, Note_on_c, 3, 57, 120
11, 3954, Note_on_c, 3, 57, 0
11, 3960, Note_on_c, 3, 57, 120
11, 4008, Note_on_c, 3, 57, 0
11, 4020, Note_on_c, 3, 57, 120
11, 4068, Note_on_c, 3, 57, 0
11, 4080, Note_on_c, 3, 53, 120
11, 4176, Note_on_c, 3, 53, 0
11, 4200, Note_on_c, 3, 55, 120
11, 4248, Note_on_c, 3, 55, 0
11, 4290, Note_on_c, 3, 53, 120
11, 4314, Note_on_c, 3, 53, 0
11, 4320, Note_on_c, 3, 52, 120
11, 4512, Note_on_c, 3, 52, 0
11, 4560, Note_on_c, 3, 55, 120
11, 4740, Note_on_c, 3, 57, 120
11, 4752, Note_on_c, 3, 55, 0
11, 4800, Note_on_c, 3, 60, 120
11, 4992, Note_on_c, 3, 60, 0
11, 5040, Note_on_c, 3, 62, 120
11, 5172, Note_on_c, 3, 57, 0
11, 5232, Note_on_c, 3, 62, 0
11, 5280, Note_on_c, 3, 60, 120
11, 5328, Note_on_c, 3, 60, 0
11, 5400, Note_on_c, 3, 60, 120
11, 5448, Note_on_c, 3, 60, 0
11, 5460, Note_on_c, 3, 60, 120
11, 5508, Note_on_c, 3, 60, 0
11, 5520, Note_on_c, 3, 60, 120
11, 5568, Note_on_c, 3, 60, 0
11, 5580, Note_on_c, 3, 62, 120
11, 5604, Note_on_c, 3, 62, 0
11, 5610, Note_on_c, 3, 60, 120
11, 5634, Note_on_c, 3, 60, 0
11, 5640, Note_on_c, 3, 60, 120
11, 5688, Note_on_c, 3, 60, 0
11, 5730, Note_on_c, 3, 60, 120
11, 5754, Note_on_c, 3, 60, 0
11, 5760, Note_on_c, 3, 60, 120
11, 5808, Note_on_c, 3, 60, 0
11, 5820, Note_on_c, 3, 57, 120
11, 6060, Note_on_c, 3, 57, 0
11, 6240, Note_on_c, 3, 60, 120
11, 6336, Note_on_c, 3, 60, 0
11, 6360, Note_on_c, 3, 60, 120
11, 6408, Note_on_c, 3, 60, 0
11, 6450, Note_on_c, 3, 60, 120
11, 6474, Note_on_c, 3, 60, 0
11, 6480, Note_on_c, 3, 60, 120
11, 6528, Note_on_c, 3, 60, 0
11, 6540, Note_on_c, 3, 60, 120
11, 6588, Note_on_c, 3, 60, 0
11, 6600, Note_on_c, 3, 60, 120
11, 6624, Note_on_c, 3, 60, 0
11, 6630, Note_on_c, 3, 60, 120
11, 6654, Note_on_c, 3, 60, 0
11, 6660, Note_on_c, 3, 62, 120
11, 6684, Note_on_c, 3, 62, 0
11, 6690, Note_on_c, 3, 60, 120
11, 6714, Note_on_c, 3, 60, 0
11, 6720, Note_on_c, 3, 57, 120
11, 7104, Note_on_c, 3, 57, 0
11, 7200, Note_on_c, 3, 62, 120
11, 7248, Note_on_c, 3, 62, 0
11, 7320, Note_on_c, 3, 62, 120
11, 7368, Note_on_c, 3, 62, 0
11, 7380, Note_on_c, 3, 62, 120
11, 7428, Note_on_c, 3, 62, 0
11, 7440, Note_on_c, 3, 62, 120
11, 7488, Note_on_c, 3, 62, 0
11, 7500, Note_on_c, 3, 62, 120
11, 7548, Note_on_c, 3, 62, 0
11, 7560, Note_on_c, 3, 62, 120
11, 7608, Note_on_c, 3, 62, 0
11, 7620, Note_on_c, 3, 62, 120
11, 7668, Note_on_c, 3, 62, 0
11, 7680, Note_on_c, 3, 62, 120
11, 7728, Note_on_c, 3, 62, 0
11, 7740, Note_on_c, 3, 59, 120
11, 8028, Note_on_c, 3, 59, 0
11, 8100, Note_on_c, 3, 59, 120
11, 8148, Note_on_c, 3, 59, 0
11, 8160, Note_on_c, 3, 62, 120
11, 8304, Note_on_c, 3, 62, 0
11, 8340, Note_on_c, 3, 62, 120
11, 8388, Note_on_c, 3, 62, 0
11, 8400, Note_on_c, 3, 62, 120
11, 8472, Note_on_c, 3, 62, 0
11, 8490, Note_on_c, 3, 57, 120
11, 8514, Note_on_c, 3, 57, 0
11, 8520, Note_on_c, 3, 59, 120
11, 8568, Note_on_c, 3, 59, 0
11, 8580, Note_on_c, 3, 60, 120
11, 8628, Note_on_c, 3, 60, 0
11, 8640, Note_on_c, 3, 62, 120
11, 9024, Note_on_c, 3, 62, 0
11, 9120, Note_on_c, 3, 64, 120
11, 9168, Note_on_c, 3, 64, 0
11, 9210, Note_on_c, 3, 64, 120
11, 9234, Note_on_c, 3, 64, 0
11, 9240, Note_on_c, 3, 64, 120
11, 9288, Note_on_c, 3, 64, 0
11, 9330, Note_on_c, 3, 62, 120
11, 9354, Note_on_c, 3, 62, 0
11, 9360, Note_on_c, 3, 60, 120
11, 9408, Note_on_c, 3, 60, 0
11, 9450, Note_on_c, 3, 60, 120
11, 9474, Note_on_c, 3, 60, 0
11, 9480, Note_on_c, 3, 60, 120
11, 9528, Note_on_c, 3, 60, 0
11, 9570, Note_on_c, 3, 59, 120
11, 9594, Note_on_c, 3, 59, 0
11, 9600, Note_on_c, 3, 57, 120
11, 9648, Note_on_c, 3, 57, 0
11, 9660, Note_on_c, 3, 57, 120
11, 9708, Note_on_c, 3, 57, 0
11, 9750, Note_on_c, 3, 57, 120
11, 9774, Note_on_c, 3, 57, 0
11, 9780, Note_on_c, 3, 55, 120
11, 9828, Note_on_c, 3, 55, 0
11, 9840, Note_on_c, 3, 53, 120
11, 9936, Note_on_c, 3, 53, 0
11, 9960, Note_on_c, 3, 55, 120
11, 10008, Note_on_c, 3, 55, 0
11, 10020, Note_on_c, 3, 53, 120
11, 10068, Note_on_c, 3, 53, 0
11, 10080, Note_on_c, 3, 52, 120
11, 10272, Note_on_c, 3, 52, 0
11, 10320, Note_on_c, 3, 55, 120
11, 10512, Note_on_c, 3, 55, 0
11, 10560, Note_on_c, 3, 60, 120
11, 10656, Note_on_c, 3, 60, 0
11, 10800, Note_on_c, 3, 62, 120
11, 10992, Note_on_c, 3, 62, 0
11, 11040, Note_on_c, 3, 64, 120
11, 11064, Note_on_c, 3, 64, 0
11, 11130, Note_on_c, 3, 64, 120
11, 11154, Note_on_c, 3, 64, 0
11, 11160, Note_on_c, 3, 64, 120
11, 11208, Note_on_c, 3, 64, 0
11, 11220, Note_on_c, 3, 62, 120
11, 11268, Note_on_c, 3, 62, 0
11, 11280, Note_on_c, 3, 60, 120
11, 11328, Note_on_c, 3, 60, 0
11, 11340, Note_on_c, 3, 60, 120
11, 11412, Note_on_c, 3, 60, 0
11, 11430, Note_on_c, 3, 60, 120
11, 11478, Note_on_c, 3, 60, 0
11, 11490, Note_on_c, 3, 59, 120
11, 11514, Note_on_c, 3, 59, 0
11, 11520, Note_on_c, 3, 57, 120
11, 11568, Note_on_c, 3, 57, 0
11, 11610, Note_on_c, 3, 57, 120
11, 11634, Note_on_c, 3, 57, 0
11, 11640, Note_on_c, 3, 57, 120
11, 11688, Note_on_c, 3, 57, 0
11, 11700, Note_on_c, 3, 57, 120
11, 11748, Note_on_c, 3, 57, 0
11, 11760, Note_on_c, 3, 53, 120
11, 11856, Note_on_c, 3, 53, 0
11, 11880, Note_on_c, 3, 55, 120
11, 11928, Note_on_c, 3, 55, 0
11, 11940, Note_on_c, 3, 52, 120
11, 12180, Note_on_c, 3, 52, 0
11, 12240, Note_on_c, 3, 55, 120
11, 12432, Note_on_c, 3, 55, 0
11, 12480, Note_on_c, 3, 60, 120
11, 12672, Note_on_c, 3, 60, 0
11, 12720, Note_on_c, 3, 62, 120
11, 12912, Note_on_c, 3, 62, 0
11, 12960, Note_on_c, 3, 64, 120
11, 13032, Note_on_c, 3, 64, 0
11, 13050, Note_on_c, 3, 64, 120
11, 13074, Note_on_c, 3, 64, 0
11, 13110, Note_on_c, 3, 64, 120
11, 13158, Note_on_c, 3, 64, 0
11, 13170, Note_on_c, 3, 62, 120
11, 13194, Note_on_c, 3, 62, 0
11, 13200, Note_on_c, 3, 60, 120
11, 13248, Note_on_c, 3, 60, 0
11, 13260, Note_on_c, 3, 60, 120
11, 13308, Note_on_c, 3, 60, 0
11, 13350, Note_on_c, 3, 60, 120
11, 13374, Note_on_c, 3, 60, 0
11, 13410, Note_on_c, 3, 59, 120
11, 13434, Note_on_c, 3, 59, 0
11, 13440, Note_on_c, 3, 57, 120
11, 13488, Note_on_c, 3, 57, 0
11, 13530, Note_on_c, 3, 57, 120
11, 13554, Note_on_c, 3, 57, 0
11, 13560, Note_on_c, 3, 57, 120
11, 13608, Note_on_c, 3, 57, 0
11, 13620, Note_on_c, 3, 57, 120
11, 13668, Note_on_c, 3, 57, 0
11, 13680, Note_on_c, 3, 53, 120
11, 13776, Note_on_c, 3, 53, 0
11, 13800, Note_on_c, 3, 55, 120
11, 13848, Note_on_c, 3, 55, 0
11, 13890, Note_on_c, 3, 53, 120
11, 13914, Note_on_c, 3, 53, 0
11, 13920, Note_on_c, 3, 52, 120
11, 14112, Note_on_c, 3, 52, 0
11, 14160, Note_on_c, 3, 55, 120
11, 14340, Note_on_c, 3, 57, 120
11, 14352, Note_on_c, 3, 55, 0
11, 14400, Note_on_c, 3, 60, 120
11, 14592, Note_on_c, 3, 60, 0
11, 14640, Note_on_c, 3, 62, 120
11, 14772, Note_on_c, 3, 57, 0
11, 14832, Note_on_c, 3, 62, 0
11, 14880, Note_on_c, 3, 60, 120
11, 14928, Note_on_c, 3, 60, 0
11, 15000, Note_on_c, 3, 60, 120
11, 15048, Note_on_c, 3, 60, 0
11, 15060, Note_on_c, 3, 60, 120
11, 15108, Note_on_c, 3, 60, 0
11, 15120, Note_on_c, 3, 60, 120
11, 15168, Note_on_c, 3, 60, 0
11, 15180, Note_on_c, 3, 62, 120
11, 15204, Note_on_c, 3, 62, 0
11, 15210, Note_on_c, 3, 60, 120
11, 15234, Note_on_c, 3, 60, 0
11, 15240, Note_on_c, 3, 60, 120
11, 15288, Note_on_c, 3, 60, 0
11, 15330, Note_on_c, 3, 60, 120
11, 15354, Note_on_c, 3, 60, 0
11, 15360, Note_on_c, 3, 60, 120
11, 15408, Note_on_c, 3, 60, 0
11, 15420, Note_on_c, 3, 57, 120
11, 15660, Note_on_c, 3, 57, 0
11, 15840, Note_on_c, 3, 60, 120
11, 15936, Note_on_c, 3, 60, 0
11, 15960, Note_on_c, 3, 60, 120
11, 16008, Note_on_c, 3, 60, 0
11, 16050, Note_on_c, 3, 60, 120
11, 16074, Note_on_c, 3, 60, 0
11, 16080, Note_on_c, 3, 60, 120
11, 16128, Note_on_c, 3, 60, 0
11, 16140, Note_on_c, 3, 60, 120
11, 16188, Note_on_c, 3, 60, 0
11, 16200, Note_on_c, 3, 60, 120
11, 16224, Note_on_c, 3, 60, 0
11, 16230, Note_on_c, 3, 60, 120
11, 16254, Note_on_c, 3, 60, 0
11, 16260, Note_on_c, 3, 60, 120
11, 16260, Note_on_c, 3, 62, 120
11, 16284, Note_on_c, 3, 62, 0
11, 16284, Note_on_c, 3, 60, 0
11, 16290, Note_on_c, 3, 60, 120
11, 16314, Note_on_c, 3, 60, 0
11, 16320, Note_on_c, 3, 57, 120
11, 16704, Note_on_c, 3, 57, 0
11, 16800, Note_on_c, 3, 62, 120
11, 16848, Note_on_c, 3, 62, 0
11, 16920, Note_on_c, 3, 62, 120
11, 16968, Note_on_c, 3, 62, 0
11, 16980, Note_on_c, 3, 62, 120
11, 17028, Note_on_c, 3, 62, 0
11, 17040, Note_on_c, 3, 62, 120
11, 17088, Note_on_c, 3, 62, 0
11, 17100, Note_on_c, 3, 62, 120
11, 17148, Note_on_c, 3, 62, 0
11, 17160, Note_on_c, 3, 62, 120
11, 17208, Note_on_c, 3, 62, 0
11, 17220, Note_on_c, 3, 62, 120
11, 17268, Note_on_c, 3, 62, 0
11, 17280, Note_on_c, 3, 62, 120
11, 17328, Note_on_c, 3, 62, 0
11, 17340, Note_on_c, 3, 59, 120
11, 17628, Note_on_c, 3, 59, 0
11, 17700, Note_on_c, 3, 59, 120
11, 17748, Note_on_c, 3, 59, 0
11, 17760, Note_on_c, 3, 62, 120
11, 17904, Note_on_c, 3, 62, 0
11, 17940, Note_on_c, 3, 62, 120
11, 17988, Note_on_c, 3, 62, 0
11, 18000, Note_on_c, 3, 62, 120
11, 18072, Note_on_c, 3, 62, 0
11, 18090, Note_on_c, 3, 57, 120
11, 18114, Note_on_c, 3, 57, 0
11, 18120, Note_on_c, 3, 59, 120
11, 18168, Note_on_c, 3, 59, 0
11, 18180, Note_on_c, 3, 60, 120
11, 18228, Note_on_c, 3, 60, 0
11, 18240, Note_on_c, 3, 62, 120
11, 18624, Note_on_c, 3, 62, 0
11, 28320, Note_on_c, 3, 64, 120
11, 28368, Note_on_c, 3, 64, 0
11, 28410, Note_on_c, 3, 64, 120
11, 28434, Note_on_c, 3, 64, 0
11, 28440, Note_on_c, 3, 64, 120
11, 28488, Note_on_c, 3, 64, 0
11, 28530, Note_on_c, 3, 62, 120
11, 28554, Note_on_c, 3, 62, 0
11, 28560, Note_on_c, 3, 60, 120
11, 28608, Note_on_c, 3, 60, 0
11, 28650, Note_on_c, 3, 60, 120
11, 28674, Note_on_c, 3, 60, 0
11, 28680, Note_on_c, 3, 60, 120
11, 28728, Note_on_c, 3, 60, 0
11, 28770, Note_on_c, 3, 59, 120
11, 28794, Note_on_c, 3, 59, 0
11, 28800, Note_on_c, 3, 57, 120
11, 28848, Note_on_c, 3, 57, 0
11, 28860, Note_on_c, 3, 57, 120
11, 28908, Note_on_c, 3, 57, 0
11, 28950, Note_on_c, 3, 57, 120
11, 28974, Note_on_c, 3, 57, 0
11, 28980, Note_on_c, 3, 55, 120
11, 29028, Note_on_c, 3, 55, 0
11, 29040, Note_on_c, 3, 53, 120
11, 29136, Note_on_c, 3, 53, 0
11, 29160, Note_on_c, 3, 55, 120
11, 29208, Note_on_c, 3, 55, 0
11, 29220, Note_on_c, 3, 53, 120
11, 29268, Note_on_c, 3, 53, 0
11, 29280, Note_on_c, 3, 52, 120
11, 29472, Note_on_c, 3, 52, 0
11, 29520, Note_on_c, 3, 55, 120
11, 29712, Note_on_c, 3, 55, 0
11, 29760, Note_on_c, 3, 60, 120
11, 29856, Note_on_c, 3, 60, 0
11, 30000, Note_on_c, 3, 62, 120
11, 30192, Note_on_c, 3, 62, 0
11, 30240, Note_on_c, 3, 64, 120
11, 30264, Note_on_c, 3, 64, 0
11, 30330, Note_on_c, 3, 64, 120
11, 30354, Note_on_c, 3, 64, 0
11, 30360, Note_on_c, 3, 64, 120
11, 30408, Note_on_c, 3, 64, 0
11, 30420, Note_on_c, 3, 62, 120
11, 30468, Note_on_c, 3, 62, 0
11, 30480, Note_on_c, 3, 60, 120
11, 30528, Note_on_c, 3, 60, 0
11, 30540, Note_on_c, 3, 60, 120
11, 30612, Note_on_c, 3, 60, 0
11, 30630, Note_on_c, 3, 60, 120
11, 30678, Note_on_c, 3, 60, 0
11, 30690, Note_on_c, 3, 59, 120
11, 30714, Note_on_c, 3, 59, 0
11, 30720, Note_on_c, 3, 57, 120
11, 30768, Note_on_c, 3, 57, 0
11, 30810, Note_on_c, 3, 57, 120
11, 30834, Note_on_c, 3, 57, 0
11, 30840, Note_on_c, 3, 57, 120
11, 30888, Note_on_c, 3, 57, 0
11, 30900, Note_on_c, 3, 57, 120
11, 30948, Note_on_c, 3, 57, 0
11, 30960, Note_on_c, 3, 53, 120
11, 31056, Note_on_c, 3, 53, 0
11, 31080, Note_on_c, 3, 55, 120
11, 31128, Note_on_c, 3, 55, 0
11, 31140, Note_on_c, 3, 52, 120
11, 31380, Note_on_c, 3, 52, 0
11, 31440, Note_on_c, 3, 55, 120
11, 31632, Note_on_c, 3, 55, 0
11, 31680, Note_on_c, 3, 60, 120
11, 31872, Note_on_c, 3, 60, 0
11, 31920, Note_on_c, 3, 62, 120
11, 32112, Note_on_c, 3, 62, 0
11, 32160, Note_on_c, 3, 64, 120
11, 32232, Note_on_c, 3, 64, 0
11, 32250, Note_on_c, 3, 64, 120
11, 32274, Note_on_c, 3, 64, 0
11, 32310, Note_on_c, 3, 64, 120
11, 32358, Note_on_c, 3, 64, 0
11, 32370, Note_on_c, 3, 62, 120
11, 32394, Note_on_c, 3, 62, 0
11, 32400, Note_on_c, 3, 60, 120
11, 32448, Note_on_c, 3, 60, 0
11, 32460, Note_on_c, 3, 60, 120
11, 32508, Note_on_c, 3, 60, 0
11, 32550, Note_on_c, 3, 60, 120
11, 32574, Note_on_c, 3, 60, 0
11, 32610, Note_on_c, 3, 59, 120
11, 32634, Note_on_c, 3, 59, 0
11, 32640, Note_on_c, 3, 57, 120
11, 32688, Note_on_c, 3, 57, 0
11, 32730, Note_on_c, 3, 57, 120
11, 32754, Note_on_c, 3, 57, 0
11, 32760, Note_on_c, 3, 57, 120
11, 32808, Note_on_c, 3, 57, 0
11, 32820, Note_on_c, 3, 57, 120
11, 32868, Note_on_c, 3, 57, 0
11, 32880, Note_on_c, 3, 53, 120
11, 32976, Note_on_c, 3, 53, 0
11, 33000, Note_on_c, 3, 55, 120
11, 33048, Note_on_c, 3, 55, 0
11, 33090, Note_on_c, 3, 53, 120
11, 33114, Note_on_c, 3, 53, 0
11, 33120, Note_on_c, 3, 52, 120
11, 33312, Note_on_c, 3, 52, 0
11, 33360, Note_on_c, 3, 55, 120
11, 33540, Note_on_c, 3, 57, 120
11, 33552, Note_on_c, 3, 55, 0
11, 33600, Note_on_c, 3, 60, 120
11, 33792, Note_on_c, 3, 60, 0
11, 33840, Note_on_c, 3, 62, 120
11, 33972, Note_on_c, 3, 57, 0
11, 34032, Note_on_c, 3, 62, 0
11, 34080, Note_on_c, 3, 60, 120
11, 34128, Note_on_c, 3, 60, 0
11, 34200, Note_on_c, 3, 60, 120
11, 34248, Note_on_c, 3, 60, 0
11, 34260, Note_on_c, 3, 60, 120
11, 34308, Note_on_c, 3, 60, 0
11, 34320, Note_on_c, 3, 60, 120
11, 34368, Note_on_c, 3, 60, 0
11, 34380, Note_on_c, 3, 62, 120
11, 34404, Note_on_c, 3, 62, 0
11, 34410, Note_on_c, 3, 60, 120
11, 34434, Note_on_c, 3, 60, 0
11, 34440, Note_on_c, 3, 60, 120
11, 34488, Note_on_c, 3, 60, 0
11, 34530, Note_on_c, 3, 60, 120
11, 34554, Note_on_c, 3, 60, 0
11, 34560, Note_on_c, 3, 60, 120
11, 34608, Note_on_c, 3, 60, 0
11, 34620, Note_on_c, 3, 57, 120
11, 34860, Note_on_c, 3, 57, 0
11, 35040, Note_on_c, 3, 60, 120
11, 35136, Note_on_c, 3, 60, 0
11, 35160, Note_on_c, 3, 60, 120
11, 35208, Note_on_c, 3, 60, 0
11, 35250, Note_on_c, 3, 60, 120
11, 35274, Note_on_c, 3, 60, 0
11, 35280, Note_on_c, 3, 60, 120
11, 35328, Note_on_c, 3, 60, 0
11, 35340, Note_on_c, 3, 60, 120
11, 35388, Note_on_c, 3, 60, 0
11, 35400, Note_on_c, 3, 60, 120
11, 35424, Note_on_c, 3, 60, 0
11, 35430, Note_on_c, 3, 60, 120
11, 35454, Note_on_c, 3, 60, 0
11, 35460, Note_on_c, 3, 60, 120
11, 35460, Note_on_c, 3, 62, 120
11, 35484, Note_on_c, 3, 62, 0
11, 35484, Note_on_c, 3, 60, 0
11, 35490, Note_on_c, 3, 60, 120
11, 35514, Note_on_c, 3, 60, 0
11, 35520, Note_on_c, 3, 57, 120
11, 35904, Note_on_c, 3, 57, 0
11, 36000, Note_on_c, 3, 62, 120
11, 36048, Note_on_c, 3, 62, 0
11, 36120, Note_on_c, 3, 62, 120
11, 36168, Note_on_c, 3, 62, 0
11, 36180, Note_on_c, 3, 62, 120
11, 36228, Note_on_c, 3, 62, 0
11, 36240, Note_on_c, 3, 62, 120
11, 36288, Note_on_c, 3, 62, 0
11, 36300, Note_on_c, 3, 62, 120
11, 36348, Note_on_c, 3, 62, 0
11, 36360, Note_on_c, 3, 62, 120
11, 36408, Note_on_c, 3, 62, 0
11, 36420, Note_on_c, 3, 62, 120
11, 36468, Note_on_c, 3, 62, 0
11, 36480, Note_on_c, 3, 62, 120
11, 36528, Note_on_c, 3, 62, 0
11, 36540, Note_on_c, 3, 59, 120
11, 36828, Note_on_c, 3, 59, 0
11, 36900, Note_on_c, 3, 59, 120
11, 36948, Note_on_c, 3, 59, 0
11, 36960, Note_on_c, 3, 62, 120
11, 37104, Note_on_c, 3, 62, 0
11, 37140, Note_on_c, 3, 62, 120
11, 37188, Note_on_c, 3, 62, 0
11, 37200, Note_on_c, 3, 62, 120
11, 37272, Note_on_c, 3, 62, 0
11, 37290, Note_on_c, 3, 57, 120
11, 37314, Note_on_c, 3, 57, 0
11, 37320, Note_on_c, 3, 59, 120
11, 37368, Note_on_c, 3, 59, 0
11, 37380, Note_on_c, 3, 60, 120
11, 37428, Note_on_c, 3, 60, 0
11, 37440, Note_on_c, 3, 62, 120
11, 37824, Note_on_c, 3, 62, 0
11, 37920, Note_on_c, 3, 64, 120
11, 37968, Note_on_c, 3, 64, 0
11, 38010, Note_on_c, 3, 64, 120
11, 38034, Note_on_c, 3, 64, 0
11, 38040, Note_on_c, 3, 64, 120
11, 38088, Note_on_c, 3, 64, 0
11, 38130, Note_on_c, 3, 62, 120
11, 38154, Note_on_c, 3, 62, 0
11, 38160, Note_on_c, 3, 60, 120
11, 38208, Note_on_c, 3, 60, 0
11, 38250, Note_on_c, 3, 60, 120
11, 38274, Note_on_c, 3, 60, 0
11, 38280, Note_on_c, 3, 60, 120
11, 38328, Note_on_c, 3, 60, 0
11, 38370, Note_on_c, 3, 59, 120
11, 38394, Note_on_c, 3, 59, 0
11, 38400, Note_on_c, 3, 57, 120
11, 38448, Note_on_c, 3, 57, 0
11, 38460, Note_on_c, 3, 57, 120
11, 38508, Note_on_c, 3, 57, 0
11, 38550, Note_on_c, 3, 57, 120
11, 38574, Note_on_c, 3, 57, 0
11, 38580, Note_on_c, 3, 55, 120
11, 38628, Note_on_c, 3, 55, 0
11, 38640, Note_on_c, 3, 53, 120
11, 38736, Note_on_c, 3, 53, 0
11, 38760, Note_on_c, 3, 55, 120
11, 38808, Note_on_c, 3, 55, 0
11, 38820, Note_on_c, 3, 53, 120
11, 38868, Note_on_c, 3, 53, 0
11, 38880, Note_on_c, 3, 52, 120
11, 39072, Note_on_c, 3, 52, 0
11, 39120, Note_on_c, 3, 55, 120
11, 39312, Note_on_c, 3, 55, 0
11, 39360, Note_on_c, 3, 60, 120
11, 39456, Note_on_c, 3, 60, 0
11, 39600, Note_on_c, 3, 62, 120
11, 39792, Note_on_c, 3, 62, 0
11, 39840, Note_on_c, 3, 64, 120
11, 39864, Note_on_c, 3, 64, 0
11, 39930, Note_on_c, 3, 64, 120
11, 39954, Note_on_c, 3, 64, 0
11, 39960, Note_on_c, 3, 64, 120
11, 40008, Note_on_c, 3, 64, 0
11, 40020, Note_on_c, 3, 62, 120
11, 40068, Note_on_c, 3, 62, 0
11, 40080, Note_on_c, 3, 60, 120
11, 40128, Note_on_c, 3, 60, 0
11, 40140, Note_on_c, 3, 60, 120
11, 40212, Note_on_c, 3, 60, 0
11, 40230, Note_on_c, 3, 60, 120
11, 40278, Note_on_c, 3, 60, 0
11, 40290, Note_on_c, 3, 59, 120
11, 40314, Note_on_c, 3, 59, 0
11, 40320, Note_on_c, 3, 57, 120
11, 40368, Note_on_c, 3, 57, 0
11, 40410, Note_on_c, 3, 57, 120
11, 40434, Note_on_c, 3, 57, 0
11, 40440, Note_on_c, 3, 57, 120
11, 40488, Note_on_c, 3, 57, 0
11, 40500, Note_on_c, 3, 57, 120
11, 40548, Note_on_c, 3, 57, 0
11, 40560, Note_on_c, 3, 53, 120
11, 40656, Note_on_c, 3, 53, 0
11, 40680, Note_on_c, 3, 55, 120
11, 40728, Note_on_c, 3, 55, 0
11, 40740, Note_on_c, 3, 52, 120
11, 40980, Note_on_c, 3, 52, 0
11, 41040, Note_on_c, 3, 55, 120
11, 41232, Note_on_c, 3, 55, 0
11, 41280, Note_on_c, 3, 60, 120
11, 41472, Note_on_c, 3, 60, 0
11, 41520, Note_on_c, 3, 62, 120
11, 41712, Note_on_c, 3, 62, 0
11, 41760, Note_on_c, 3, 64, 120
11, 41832, Note_on_c, 3, 64, 0
11, 41850, Note_on_c, 3, 64, 120
11, 41874, Note_on_c, 3, 64, 0
11, 41910, Note_on_c, 3, 64, 120
11, 41958, Note_on_c, 3, 64, 0
11, 41970, Note_on_c, 3, 62, 120
11, 41994, Note_on_c, 3, 62, 0
11, 42000, Note_on_c, 3, 60, 120
11, 42048, Note_on_c, 3, 60, 0
11, 42060, Note_on_c, 3, 60, 120
11, 42108, Note_on_c, 3, 60, 0
11, 42150, Note_on_c, 3, 60, 120
11, 42174, Note_on_c, 3, 60, 0
11, 42210, Note_on_c, 3, 59, 120
11, 42234, Note_on_c, 3, 59, 0
11, 42240, Note_on_c, 3, 57, 120
11, 42288, Note_on_c, 3, 57, 0
11, 42330, Note_on_c, 3, 57, 120
11, 42354, Note_on_c, 3, 57, 0
11, 42360, Note_on_c, 3, 57, 120
11, 42408, Note_on_c, 3, 57, 0
11, 42420, Note_on_c, 3, 57, 120
11, 42468, Note_on_c, 3, 57, 0
11, 42480, Note_on_c, 3, 53, 120
11, 42576, Note_on_c, 3, 53, 0
11, 42600, Note_on_c, 3, 55, 120
11, 42648, Note_on_c, 3, 55, 0
11, 42690, Note_on_c, 3, 53, 120
11, 42714, Note_on_c, 3, 53, 0
11, 42720, Note_on_c, 3, 52, 120
11, 42912, Note_on_c, 3, 52, 0
11, 42960, Note_on_c, 3, 55, 120
11, 43140, Note_on_c, 3, 57, 120
11, 43152, Note_on_c, 3, 55, 0
11, 43200, Note_on_c, 3, 60, 120
11, 43392, Note_on_c, 3, 60, 0
11, 43440, Note_on_c, 3, 62, 120
11, 43572, Note_on_c, 3, 57, 0
11, 43632, Note_on_c, 3, 62, 0
11, 43680, Note_on_c, 3, 60, 120
11, 43728, Note_on_c, 3, 60, 0
11, 43800, Note_on_c, 3, 60, 120
11, 43848, Note_on_c, 3, 60, 0
11, 43860, Note_on_c, 3, 60, 120
11, 43908, Note_on_c, 3, 60, 0
11, 43920, Note_on_c, 3, 60, 120
11, 43968, Note_on_c, 3, 60, 0
11, 43980, Note_on_c, 3, 62, 120
11, 44004, Note_on_c, 3, 62, 0
11, 44010, Note_on_c, 3, 60, 120
11, 44034, Note_on_c, 3, 60, 0
11, 44040, Note_on_c, 3, 60, 120
11, 44088, Note_on_c, 3, 60, 0
11, 44130, Note_on_c, 3, 60, 120
11, 44154, Note_on_c, 3, 60, 0
11, 44160, Note_on_c, 3, 60, 120
11, 44208, Note_on_c, 3, 60, 0
11, 44220, Note_on_c, 3, 57, 120
11, 44460, Note_on_c, 3, 57, 0
11, 44640, Note_on_c, 3, 60, 120
11, 44736, Note_on_c, 3, 60, 0
11, 44760, Note_on_c, 3, 60, 120
11, 44808, Note_on_c, 3, 60, 0
11, 44850, Note_on_c, 3, 60, 120
11, 44874, Note_on_c, 3, 60, 0
11, 44880, Note_on_c, 3, 60, 120
11, 44928, Note_on_c, 3, 60, 0
11, 44940, Note_on_c, 3, 60, 120
11, 44988, Note_on_c, 3, 60, 0
11, 45000, Note_on_c, 3, 60, 120
11, 45024, Note_on_c, 3, 60, 0
11, 45030, Note_on_c, 3, 60, 120
11, 45054, Note_on_c, 3, 60, 0
11, 45060, Note_on_c, 3, 62, 120
11, 45084, Note_on_c, 3, 62, 0
11, 45090, Note_on_c, 3, 60, 120
11, 45114, Note_on_c, 3, 60, 0
11, 45120, Note_on_c, 3, 57, 120
11, 45504, Note_on_c, 3, 57, 0
11, 45600, Note_on_c, 3, 62, 120
11, 45648, Note_on_c, 3, 62, 0
11, 45720, Note_on_c, 3, 62, 120
11, 45768, Note_on_c, 3, 62, 0
11, 45780, Note_on_c, 3, 62, 120
11, 45828, Note_on_c, 3, 62, 0
11, 45840, Note_on_c, 3, 62, 120
11, 45888, Note_on_c, 3, 62, 0
11, 45900, Note_on_c, 3, 62, 120
11, 45948, Note_on_c, 3, 62, 0
11, 45960, Note_on_c, 3, 62, 120
11, 46008, Note_on_c, 3, 62, 0
11, 46020, Note_on_c, 3, 62, 120
11, 46068, Note_on_c, 3, 62, 0
11, 46080, Note_on_c, 3, 62, 120
11, 46128, Note_on_c, 3, 62, 0
11, 46140, Note_on_c, 3, 59, 120
11, 46428, Note_on_c, 3, 59, 0
11, 46500, Note_on_c, 3, 59, 120
11, 46548, Note_on_c, 3, 59, 0
11, 46560, Note_on_c, 3, 62, 120
11, 46704, Note_on_c, 3, 62, 0
11, 46740, Note_on_c, 3, 62, 120
11, 46788, Note_on_c, 3, 62, 0
11, 46800, Note_on_c, 3, 62, 120
11, 46872, Note_on_c, 3, 62, 0
11, 46890, Note_on_c, 3, 57, 120
11, 46914, Note_on_c, 3, 57, 0
11, 46920, Note_on_c, 3, 59, 120
11, 46968, Note_on_c, 3, 59, 0
11, 46980, Note_on_c, 3, 60, 120
11, 47028, Note_on_c, 3, 60, 0
11, 47040, Note_on_c, 3, 62, 120
11, 47424, Note_on_c, 3, 62, 0
11, 47520, Note_on_c, 3, 64, 120
11, 47568, Note_on_c, 3, 64, 0
11, 47610, Note_on_c, 3, 64, 120
11, 47634, Note_on_c, 3, 64, 0
11, 47640, Note_on_c, 3, 64, 120
11, 47688, Note_on_c, 3, 64, 0
11, 47730, Note_on_c, 3, 62, 120
11, 47754, Note_on_c, 3, 62, 0
11, 47760, Note_on_c, 3, 60, 120
11, 47808, Note_on_c, 3, 60, 0
11, 47850, Note_on_c, 3, 60, 120
11, 47874, Note_on_c, 3, 60, 0
11, 47880, Note_on_c, 3, 60, 120
11, 47928, Note_on_c, 3, 60, 0
11, 47970, Note_on_c, 3, 59, 120
11, 47994, Note_on_c, 3, 59, 0
11, 48000, Note_on_c, 3, 57, 120
11, 48048, Note_on_c, 3, 57, 0
11, 48060, Note_on_c, 3, 57, 120
11, 48108, Note_on_c, 3, 57, 0
11, 48150, Note_on_c, 3, 57, 120
11, 48174, Note_on_c, 3, 57, 0
11, 48180, Note_on_c, 3, 55, 120
11, 48228, Note_on_c, 3, 55, 0
11, 48240, Note_on_c, 3, 53, 120
11, 48336, Note_on_c, 3, 53, 0
11, 48360, Note_on_c, 3, 55, 120
11, 48408, Note_on_c, 3, 55, 0
11, 48420, Note_on_c, 3, 53, 120
11, 48468, Note_on_c, 3, 53, 0
11, 48480, Note_on_c, 3, 52, 120
11, 48672, Note_on_c, 3, 52, 0
11, 48720, Note_on_c, 3, 55, 120
11, 48912, Note_on_c, 3, 55, 0
11, 48960, Note_on_c, 3, 60, 120
11, 49056, Note_on_c, 3, 60, 0
11, 49200, Note_on_c, 3, 62, 120
11, 49392, Note_on_c, 3, 62, 0
11, 49440, Note_on_c, 3, 64, 120
11, 49440, Note_on_c, 3, 64, 120
11, 49440, Note_on_c, 3, 64, 120
11, 49536, Note_on_c, 3, 64, 0
11, 49536, Note_on_c, 3, 64, 0
11, 49536, Note_on_c, 3, 64, 0
11, 49560, Note_on_c, 3, 67, 120
11, 49560, Note_on_c, 3, 62, 120
11, 49560, Note_on_c, 3, 62, 120
11, 49656, Note_on_c, 3, 62, 0
11, 49656, Note_on_c, 3, 62, 0
11, 49656, Note_on_c, 3, 67, 0
11, 49680, Note_on_c, 3, 64, 120
11, 49680, Note_on_c, 3, 60, 120
11, 49776, Note_on_c, 3, 60, 0
11, 49776, Note_on_c, 3, 64, 0
11, 49800, Note_on_c, 3, 62, 120
11, 49800, Note_on_c, 3, 69, 120
11, 49872, Note_on_c, 3, 69, 0
11, 49872, Note_on_c, 3, 62, 0
11, 49890, Note_on_c, 3, 62, 120
11, 49914, Note_on_c, 3, 62, 0
11, 49920, Note_on_c, 3, 64, 120
11, 50016, Note_on_c, 3, 64, 0
11, 50070, Note_on_c, 3, 67, 120
11, 50094, Note_on_c, 3, 67, 0
11, 50100, Note_on_c, 3, 69, 120
11, 50100, Note_on_c, 3, 62, 120
11, 50148, Note_on_c, 3, 62, 0
11, 50148, Note_on_c, 3, 69, 0
11, 50160, Note_on_c, 3, 72, 120
11, 50160, Note_on_c, 3, 69, 120
11, 50160, Note_on_c, 3, 60, 120
11, 50256, Note_on_c, 3, 60, 0
11, 50256, Note_on_c, 3, 69, 0
11, 50256, Note_on_c, 3, 72, 0
11, 50280, Note_on_c, 3, 74, 120
11, 50280, Note_on_c, 3, 67, 120
11, 50280, Note_on_c, 3, 62, 120
11, 50376, Note_on_c, 3, 62, 0
11, 50376, Note_on_c, 3, 67, 0
11, 50376, Note_on_c, 3, 74, 0
11, 50400, Note_on_c, 3, 76, 120
11, 50400, Note_on_c, 3, 67, 120
11, 50400, Note_on_c, 3, 60, 120
11, 51168, Note_on_c, 3, 60, 0
11, 51168, Note_on_c, 3, 67, 0
11, 51168, Note_on_c, 3, 76, 0
11, 51168, End_track
12, 0, Start_track
12, 0, MIDI_port, 0
12, 0, Title_t, "Piano  "
12, 0, Program_c, 2, 0
12, 0, Control_c, 2, 7, 67
12, 0, Control_c, 2, 10, 60
12, 0, Note_on_c, 2, 36, 52
12, 0, Note_on_c, 2, 72, 52
12, 220, Note_on_c, 2, 72, 0
12, 220, Note_on_c, 2, 36, 0
12, 240, Note_on_c, 2, 45, 52
12, 240, Note_on_c, 2, 69, 52
12, 460, Note_on_c, 2, 69, 0
12, 460, Note_on_c, 2, 45, 0
12, 480, Note_on_c, 2, 38, 53
12, 480, Note_on_c, 2, 74, 53
12, 600, Note_on_c, 2, 74, 0
12, 600, Note_on_c, 2, 38, 0
12, 720, Note_on_c, 2, 38, 53
12, 720, Note_on_c, 2, 74, 53
12, 856, Note_on_c, 2, 38, 0
12, 900, Note_on_c, 2, 38, 53
12, 923, Note_on_c, 2, 74, 0
12, 943, Note_on_c, 2, 38, 0
12, 960, Note_on_c, 2, 36, 54
12, 960, Note_on_c, 2, 72, 54
12, 1080, Note_on_c, 2, 72, 0
12, 1080, Note_on_c, 2, 36, 0
12, 1200, Note_on_c, 2, 36, 54
12, 1200, Note_on_c, 2, 72, 54
12, 1320, Note_on_c, 2, 72, 0
12, 1320, Note_on_c, 2, 36, 0
12, 1500, Note_on_c, 2, 64, 120
12, 1500, Note_on_c, 2, 60, 120
12, 1500, Note_on_c, 2, 55, 120
12, 1600, Note_on_c, 2, 55, 0
12, 1600, Note_on_c, 2, 60, 0
12, 1600, Note_on_c, 2, 64, 0
12, 1620, Note_on_c, 2, 64, 120
12, 1620, Note_on_c, 2, 60, 120
12, 1620, Note_on_c, 2, 55, 120
12, 1656, Note_on_c, 2, 55, 0
12, 1656, Note_on_c, 2, 60, 0
12, 1656, Note_on_c, 2, 64, 0
12, 1680, Note_on_c, 2, 45, 120
12, 1680, Note_on_c, 2, 64, 120
12, 1680, Note_on_c, 2, 60, 120
12, 1680, Note_on_c, 2, 57, 120
12, 1816, Note_on_c, 2, 45, 0
12, 1860, Note_on_c, 2, 45, 120
12, 1883, Note_on_c, 2, 64, 0
12, 1883, Note_on_c, 2, 57, 0
12, 1883, Note_on_c, 2, 60, 0
12, 1903, Note_on_c, 2, 45, 0
12, 1920, Note_on_c, 2, 50, 120
12, 1920, Note_on_c, 2, 65, 120
12, 1920, Note_on_c, 2, 62, 120
12, 1920, Note_on_c, 2, 60, 120
12, 1920, Note_on_c, 2, 69, 120
12, 2056, Note_on_c, 2, 50, 0
12, 2100, Note_on_c, 2, 50, 120
12, 2123, Note_on_c, 2, 60, 0
12, 2123, Note_on_c, 2, 69, 0
12, 2123, Note_on_c, 2, 65, 0
12, 2123, Note_on_c, 2, 62, 0
12, 2143, Note_on_c, 2, 50, 0
12, 2160, Note_on_c, 2, 43, 120
12, 2160, Note_on_c, 2, 65, 120
12, 2160, Note_on_c, 2, 62, 120
12, 2160, Note_on_c, 2, 59, 120
12, 2160, Note_on_c, 2, 67, 120
12, 2296, Note_on_c, 2, 43, 0
12, 2340, Note_on_c, 2, 43, 120
12, 2363, Note_on_c, 2, 59, 0
12, 2363, Note_on_c, 2, 67, 0
12, 2363, Note_on_c, 2, 65, 0
12, 2363, Note_on_c, 2, 62, 0
12, 2383, Note_on_c, 2, 43, 0
12, 2400, Note_on_c, 2, 64, 120
12, 2400, Note_on_c, 2, 60, 120
12, 2400, Note_on_c, 2, 55, 120
12, 2640, Note_on_c, 2, 55, 0
12, 2640, Note_on_c, 2, 60, 0
12, 2640, Note_on_c, 2, 64, 0
12, 2640, Note_on_c, 2, 52, 120
12, 2640, Note_on_c, 2, 64, 120
12, 2640, Note_on_c, 2, 59, 120
12, 2640, Note_on_c, 2, 55, 120
12, 2776, Note_on_c, 2, 52, 0
12, 2820, Note_on_c, 2, 52, 120
12, 2843, Note_on_c, 2, 64, 0
12, 2843, Note_on_c, 2, 55, 0
12, 2843, Note_on_c, 2, 59, 0
12, 2863, Note_on_c, 2, 52, 0
12, 2880, Note_on_c, 2, 50, 120
12, 2880, Note_on_c, 2, 65, 120
12, 2880, Note_on_c, 2, 62, 120
12, 2880, Note_on_c, 2, 60, 120
12, 2880, Note_on_c, 2, 69, 120
12, 3016, Note_on_c, 2, 50, 0
12, 3060, Note_on_c, 2, 50, 120
12, 3083, Note_on_c, 2, 60, 0
12, 3083, Note_on_c, 2, 69, 0
12, 3083, Note_on_c, 2, 65, 0
12, 3083, Note_on_c, 2, 62, 0
12, 3103, Note_on_c, 2, 50, 0
12, 3120, Note_on_c, 2, 43, 120
12, 3120, Note_on_c, 2, 65, 120
12, 3120, Note_on_c, 2, 62, 120
12, 3120, Note_on_c, 2, 59, 120
12, 3120, Note_on_c, 2, 67, 120
12, 3256, Note_on_c, 2, 43, 0
12, 3300, Note_on_c, 2, 43, 120
12, 3323, Note_on_c, 2, 59, 0
12, 3323, Note_on_c, 2, 67, 0
12, 3323, Note_on_c, 2, 65, 0
12, 3323, Note_on_c, 2, 62, 0
12, 3343, Note_on_c, 2, 43, 0
12, 3360, Note_on_c, 2, 48, 120
12, 3360, Note_on_c, 2, 64, 120
12, 3360, Note_on_c, 2, 60, 120
12, 3360, Note_on_c, 2, 55, 120
12, 3496, Note_on_c, 2, 48, 0
12, 3540, Note_on_c, 2, 48, 120
12, 3563, Note_on_c, 2, 64, 0
12, 3563, Note_on_c, 2, 55, 0
12, 3563, Note_on_c, 2, 60, 0
12, 3583, Note_on_c, 2, 48, 0
12, 3600, Note_on_c, 2, 45, 120
12, 3600, Note_on_c, 2, 64, 120
12, 3600, Note_on_c, 2, 60, 120
12, 3600, Note_on_c, 2, 57, 120
12, 3736, Note_on_c, 2, 45, 0
12, 3780, Note_on_c, 2, 45, 120
12, 3803, Note_on_c, 2, 64, 0
12, 3803, Note_on_c, 2, 57, 0
12, 3803, Note_on_c, 2, 60, 0
12, 3823, Note_on_c, 2, 45, 0
12, 3840, Note_on_c, 2, 50, 120
12, 3840, Note_on_c, 2, 65, 120
12, 3840, Note_on_c, 2, 62, 120
12, 3840, Note_on_c, 2, 60, 120
12, 3840, Note_on_c, 2, 69, 120
12, 3976, Note_on_c, 2, 50, 0
12, 4020, Note_on_c, 2, 50, 120
12, 4043, Note_on_c, 2, 60, 0
12, 4043, Note_on_c, 2, 69, 0
12, 4043, Note_on_c, 2, 65, 0
12, 4043, Note_on_c, 2, 62, 0
12, 4063, Note_on_c, 2, 50, 0
12, 4080, Note_on_c, 2, 43, 120
12, 4080, Note_on_c, 2, 65, 120
12, 4080, Note_on_c, 2, 62, 120
12, 4080, Note_on_c, 2, 59, 120
12, 4080, Note_on_c, 2, 67, 120
12, 4216, Note_on_c, 2, 43, 0
12, 4260, Note_on_c, 2, 43, 120
12, 4283, Note_on_c, 2, 59, 0
12, 4283, Note_on_c, 2, 67, 0
12, 4283, Note_on_c, 2, 65, 0
12, 4283, Note_on_c, 2, 62, 0
12, 4303, Note_on_c, 2, 43, 0
12, 4320, Note_on_c, 2, 48, 120
12, 4320, Note_on_c, 2, 64, 120
12, 4320, Note_on_c, 2, 60, 120
12, 4320, Note_on_c, 2, 55, 120
12, 4456, Note_on_c, 2, 48, 0
12, 4500, Note_on_c, 2, 48, 120
12, 4523, Note_on_c, 2, 64, 0
12, 4523, Note_on_c, 2, 55, 0
12, 4523, Note_on_c, 2, 60, 0
12, 4543, Note_on_c, 2, 48, 0
12, 4560, Note_on_c, 2, 52, 120
12, 4560, Note_on_c, 2, 64, 120
12, 4560, Note_on_c, 2, 59, 120
12, 4560, Note_on_c, 2, 55, 120
12, 4696, Note_on_c, 2, 52, 0
12, 4740, Note_on_c, 2, 52, 120
12, 4763, Note_on_c, 2, 64, 0
12, 4763, Note_on_c, 2, 55, 0
12, 4763, Note_on_c, 2, 59, 0
12, 4783, Note_on_c, 2, 52, 0
12, 4800, Note_on_c, 2, 50, 120
12, 4800, Note_on_c, 2, 65, 120
12, 4800, Note_on_c, 2, 62, 120
12, 4800, Note_on_c, 2, 60, 120
12, 4800, Note_on_c, 2, 69, 120
12, 4936, Note_on_c, 2, 50, 0
12, 4980, Note_on_c, 2, 50, 120
12, 5003, Note_on_c, 2, 60, 0
12, 5003, Note_on_c, 2, 69, 0
12, 5003, Note_on_c, 2, 65, 0
12, 5003, Note_on_c, 2, 62, 0
12, 5023, Note_on_c, 2, 50, 0
12, 5040, Note_on_c, 2, 65, 120
12, 5040, Note_on_c, 2, 62, 120
12, 5040, Note_on_c, 2, 59, 120
12, 5040, Note_on_c, 2, 67, 120
12, 5280, Note_on_c, 2, 67, 0
12, 5280, Note_on_c, 2, 65, 0
12, 5280, Note_on_c, 2, 62, 0
12, 5280, Note_on_c, 2, 59, 0
12, 5280, Note_on_c, 2, 65, 120
12, 5280, Note_on_c, 2, 62, 120
12, 5280, Note_on_c, 2, 58, 120
12, 5280, Note_on_c, 2, 67, 120
12, 5520, Note_on_c, 2, 67, 0
12, 5520, Note_on_c, 2, 65, 0
12, 5520, Note_on_c, 2, 62, 0
12, 5520, Note_on_c, 2, 58, 0
12, 5580, Note_on_c, 2, 64, 120
12, 5580, Note_on_c, 2, 60, 120
12, 5580, Note_on_c, 2, 58, 120
12, 5580, Note_on_c, 2, 67, 120
12, 5680, Note_on_c, 2, 67, 0
12, 5680, Note_on_c, 2, 64, 0
12, 5680, Note_on_c, 2, 60, 0
12, 5680, Note_on_c, 2, 58, 0
12, 5700, Note_on_c, 2, 64, 120
12, 5700, Note_on_c, 2, 60, 120
12, 5700, Note_on_c, 2, 58, 120
12, 5700, Note_on_c, 2, 67, 120
12, 5736, Note_on_c, 2, 67, 0
12, 5736, Note_on_c, 2, 64, 0
12, 5736, Note_on_c, 2, 60, 0
12, 5736, Note_on_c, 2, 58, 0
12, 5760, Note_on_c, 2, 65, 120
12, 5760, Note_on_c, 2, 41, 120
12, 5760, Note_on_c, 2, 57, 120
12, 5760, Note_on_c, 2, 60, 120
12, 5924, Note_on_c, 2, 57, 0
12, 5927, Note_on_c, 2, 60, 0
12, 5928, Note_on_c, 2, 65, 0
12, 5940, Note_on_c, 2, 60, 120
12, 5940, Note_on_c, 2, 65, 120
12, 5940, Note_on_c, 2, 55, 120
12, 6210, Note_on_c, 2, 60, 0
12, 6213, Note_on_c, 2, 55, 0
12, 6215, Note_on_c, 2, 65, 0
12, 6228, Note_on_c, 2, 41, 0
12, 6240, Note_on_c, 2, 43, 120
12, 6240, Note_on_c, 2, 65, 120
12, 6240, Note_on_c, 2, 62, 120
12, 6240, Note_on_c, 2, 58, 120
12, 6240, Note_on_c, 2, 67, 120
12, 6376, Note_on_c, 2, 43, 0
12, 6420, Note_on_c, 2, 43, 120
12, 6443, Note_on_c, 2, 58, 0
12, 6443, Note_on_c, 2, 67, 0
12, 6443, Note_on_c, 2, 65, 0
12, 6443, Note_on_c, 2, 62, 0
12, 6463, Note_on_c, 2, 43, 0
12, 6480, Note_on_c, 2, 64, 120
12, 6480, Note_on_c, 2, 60, 120
12, 6480, Note_on_c, 2, 58, 120
12, 6480, Note_on_c, 2, 67, 120
12, 6637, Note_on_c, 2, 67, 0
12, 6637, Note_on_c, 2, 64, 0
12, 6637, Note_on_c, 2, 60, 0
12, 6637, Note_on_c, 2, 58, 0
12, 6660, Note_on_c, 2, 64, 120
12, 6660, Note_on_c, 2, 60, 120
12, 6660, Note_on_c, 2, 58, 120
12, 6660, Note_on_c, 2, 67, 120
12, 6700, Note_on_c, 2, 67, 0
12, 6700, Note_on_c, 2, 64, 0
12, 6700, Note_on_c, 2, 60, 0
12, 6700, Note_on_c, 2, 58, 0
12, 6720, Note_on_c, 2, 65, 120
12, 6720, Note_on_c, 2, 41, 120
12, 6720, Note_on_c, 2, 57, 120
12, 6720, Note_on_c, 2, 60, 120
12, 6884, Note_on_c, 2, 57, 0
12, 6887, Note_on_c, 2, 60, 0
12, 6888, Note_on_c, 2, 65, 0
12, 6900, Note_on_c, 2, 60, 120
12, 6900, Note_on_c, 2, 65, 120
12, 6900, Note_on_c, 2, 55, 120
12, 7170, Note_on_c, 2, 60, 0
12, 7173, Note_on_c, 2, 55, 0
12, 7175, Note_on_c, 2, 65, 0
12, 7188, Note_on_c, 2, 41, 0
12, 7200, Note_on_c, 2, 45, 120
12, 7200, Note_on_c, 2, 64, 120
12, 7200, Note_on_c, 2, 60, 120
12, 7200, Note_on_c, 2, 57, 120
12, 7336, Note_on_c, 2, 45, 0
12, 7380, Note_on_c, 2, 45, 120
12, 7403, Note_on_c, 2, 64, 0
12, 7403, Note_on_c, 2, 57, 0
12, 7403, Note_on_c, 2, 60, 0
12, 7423, Note_on_c, 2, 45, 0
12, 7500, Note_on_c, 2, 66, 120
12, 7500, Note_on_c, 2, 62, 120
12, 7500, Note_on_c, 2, 60, 120
12, 7500, Note_on_c, 2, 69, 120
12, 7600, Note_on_c, 2, 69, 0
12, 7600, Note_on_c, 2, 66, 0
12, 7600, Note_on_c, 2, 62, 0
12, 7600, Note_on_c, 2, 60, 0
12, 7620, Note_on_c, 2, 66, 120
12, 7620, Note_on_c, 2, 62, 120
12, 7620, Note_on_c, 2, 60, 120
12, 7620, Note_on_c, 2, 69, 120
12, 7656, Note_on_c, 2, 69, 0
12, 7656, Note_on_c, 2, 66, 0
12, 7656, Note_on_c, 2, 62, 0
12, 7656, Note_on_c, 2, 60, 0
12, 7680, Note_on_c, 2, 67, 120
12, 7680, Note_on_c, 2, 43, 120
12, 7680, Note_on_c, 2, 59, 120
12, 7680, Note_on_c, 2, 62, 120
12, 7844, Note_on_c, 2, 59, 0
12, 7847, Note_on_c, 2, 62, 0
12, 7848, Note_on_c, 2, 67, 0
12, 7860, Note_on_c, 2, 62, 120
12, 7860, Note_on_c, 2, 67, 120
12, 7860, Note_on_c, 2, 57, 120
12, 8130, Note_on_c, 2, 62, 0
12, 8133, Note_on_c, 2, 57, 0
12, 8135, Note_on_c, 2, 67, 0
12, 8148, Note_on_c, 2, 43, 0
12, 8160, Note_on_c, 2, 45, 120
12, 8160, Note_on_c, 2, 67, 120
12, 8160, Note_on_c, 2, 64, 120
12, 8160, Note_on_c, 2, 60, 120
12, 8160, Note_on_c, 2, 69, 120
12, 8296, Note_on_c, 2, 45, 0
12, 8340, Note_on_c, 2, 45, 120
12, 8363, Note_on_c, 2, 60, 0
12, 8363, Note_on_c, 2, 69, 0
12, 8363, Note_on_c, 2, 67, 0
12, 8363, Note_on_c, 2, 64, 0
12, 8383, Note_on_c, 2, 45, 0
12, 8400, Note_on_c, 2, 50, 120
12, 8400, Note_on_c, 2, 66, 120
12, 8400, Note_on_c, 2, 62, 120
12, 8400, Note_on_c, 2, 60, 120
12, 8400, Note_on_c, 2, 69, 120
12, 8536, Note_on_c, 2, 50, 0
12, 8580, Note_on_c, 2, 50, 120
12, 8603, Note_on_c, 2, 60, 0
12, 8603, Note_on_c, 2, 69, 0
12, 8603, Note_on_c, 2, 66, 0
12, 8603, Note_on_c, 2, 62, 0
12, 8623, Note_on_c, 2, 50, 0
12, 8640, Note_on_c, 2, 50, 120
12, 8640, Note_on_c, 2, 65, 120
12, 8640, Note_on_c, 2, 62, 120
12, 8640, Note_on_c, 2, 60, 120
12, 8640, Note_on_c, 2, 69, 120
12, 8776, Note_on_c, 2, 50, 0
12, 8820, Note_on_c, 2, 50, 120
12, 8843, Note_on_c, 2, 60, 0
12, 8843, Note_on_c, 2, 69, 0
12, 8843, Note_on_c, 2, 65, 0
12, 8843, Note_on_c, 2, 62, 0
12, 8863, Note_on_c, 2, 50, 0
12, 8880, Note_on_c, 2, 43, 120
12, 8880, Note_on_c, 2, 65, 120
12, 8880, Note_on_c, 2, 62, 120
12, 8880, Note_on_c, 2, 59, 120
12, 8880, Note_on_c, 2, 67, 120
12, 9016, Note_on_c, 2, 43, 0
12, 9060, Note_on_c, 2, 43, 120
12, 9083, Note_on_c, 2, 59, 0
12, 9083, Note_on_c, 2, 67, 0
12, 9083, Note_on_c, 2, 65, 0
12, 9083, Note_on_c, 2, 62, 0
12, 9103, Note_on_c, 2, 43, 0
12, 9180, Note_on_c, 2, 64, 120
12, 9180, Note_on_c, 2, 60, 120
12, 9180, Note_on_c, 2, 55, 120
12, 9280, Note_on_c, 2, 55, 0
12, 9280, Note_on_c, 2, 60, 0
12, 9280, Note_on_c, 2, 64, 0
12, 9300, Note_on_c, 2, 64, 120
12, 9300, Note_on_c, 2, 60, 120
12, 9300, Note_on_c, 2, 55, 120
12, 9336, Note_on_c, 2, 55, 0
12, 9336, Note_on_c, 2, 60, 0
12, 9336, Note_on_c, 2, 64, 0
12, 9360, Note_on_c, 2, 64, 120
12, 9360, Note_on_c, 2, 60, 120
12, 9360, Note_on_c, 2, 57, 120
12, 9517, Note_on_c, 2, 57, 0
12, 9517, Note_on_c, 2, 60, 0
12, 9517, Note_on_c, 2, 64, 0
12, 9540, Note_on_c, 2, 64, 120
12, 9540, Note_on_c, 2, 60, 120
12, 9540, Note_on_c, 2, 57, 120
12, 9580, Note_on_c, 2, 57, 0
12, 9580, Note_on_c, 2, 60, 0
12, 9580, Note_on_c, 2, 64, 0
12, 9600, Note_on_c, 2, 50, 120
12, 9600, Note_on_c, 2, 65, 120
12, 9600, Note_on_c, 2, 62, 120
12, 9600, Note_on_c, 2, 60, 120
12, 9600, Note_on_c, 2, 69, 120
12, 9736, Note_on_c, 2, 50, 0
12, 9780, Note_on_c, 2, 50, 120
12, 9803, Note_on_c, 2, 60, 0
12, 9803, Note_on_c, 2, 69, 0
12, 9803, Note_on_c, 2, 65, 0
12, 9803, Note_on_c, 2, 62, 0
12, 9823, Note_on_c, 2, 50, 0
12, 9840, Note_on_c, 2, 43, 120
12, 9840, Note_on_c, 2, 65, 120
12, 9840, Note_on_c, 2, 62, 120
12, 9840, Note_on_c, 2, 59, 120
12, 9840, Note_on_c, 2, 67, 120
12, 9976, Note_on_c, 2, 43, 0
12, 10020, Note_on_c, 2, 43, 120
12, 10043, Note_on_c, 2, 59, 0
12, 10043, Note_on_c, 2, 67, 0
12, 10043, Note_on_c, 2, 65, 0
12, 10043, Note_on_c, 2, 62, 0
12, 10063, Note_on_c, 2, 43, 0
12, 10080, Note_on_c, 2, 48, 120
12, 10080, Note_on_c, 2, 64, 120
12, 10080, Note_on_c, 2, 60, 120
12, 10080, Note_on_c, 2, 55, 120
12, 10216, Note_on_c, 2, 48, 0
12, 10260, Note_on_c, 2, 48, 120
12, 10283, Note_on_c, 2, 64, 0
12, 10283, Note_on_c, 2, 55, 0
12, 10283, Note_on_c, 2, 60, 0
12, 10303, Note_on_c, 2, 48, 0
12, 10380, Note_on_c, 2, 64, 120
12, 10380, Note_on_c, 2, 59, 120
12, 10380, Note_on_c, 2, 55, 120
12, 10480, Note_on_c, 2, 55, 0
12, 10480, Note_on_c, 2, 59, 0
12, 10480, Note_on_c, 2, 64, 0
12, 10500, Note_on_c, 2, 64, 120
12, 10500, Note_on_c, 2, 59, 120
12, 10500, Note_on_c, 2, 55, 120
12, 10536, Note_on_c, 2, 55, 0
12, 10536, Note_on_c, 2, 59, 0
12, 10536, Note_on_c, 2, 64, 0
12, 10560, Note_on_c, 2, 50, 120
12, 10560, Note_on_c, 2, 65, 120
12, 10560, Note_on_c, 2, 62, 120
12, 10560, Note_on_c, 2, 60, 120
12, 10560, Note_on_c, 2, 69, 120
12, 10696, Note_on_c, 2, 50, 0
12, 10740, Note_on_c, 2, 50, 120
12, 10763, Note_on_c, 2, 60, 0
12, 10763, Note_on_c, 2, 69, 0
12, 10763, Note_on_c, 2, 65, 0
12, 10763, Note_on_c, 2, 62, 0
12, 10783, Note_on_c, 2, 50, 0
12, 10800, Note_on_c, 2, 65, 120
12, 10800, Note_on_c, 2, 62, 120
12, 10800, Note_on_c, 2, 59, 120
12, 10800, Note_on_c, 2, 67, 120
12, 10957, Note_on_c, 2, 67, 0
12, 10957, Note_on_c, 2, 65, 0
12, 10957, Note_on_c, 2, 62, 0
12, 10957, Note_on_c, 2, 59, 0
12, 10980, Note_on_c, 2, 65, 120
12, 10980, Note_on_c, 2, 62, 120
12, 10980, Note_on_c, 2, 59, 120
12, 10980, Note_on_c, 2, 67, 120
12, 11020, Note_on_c, 2, 67, 0
12, 11020, Note_on_c, 2, 65, 0
12, 11020, Note_on_c, 2, 62, 0
12, 11020, Note_on_c, 2, 59, 0
12, 11040, Note_on_c, 2, 36, 120
12, 11040, Note_on_c, 2, 72, 120
12, 11176, Note_on_c, 2, 36, 0
12, 11220, Note_on_c, 2, 36, 120
12, 11243, Note_on_c, 2, 72, 0
12, 11263, Note_on_c, 2, 36, 0
12, 11280, Note_on_c, 2, 45, 120
12, 11280, Note_on_c, 2, 69, 120
12, 11416, Note_on_c, 2, 45, 0
12, 11460, Note_on_c, 2, 45, 120
12, 11483, Note_on_c, 2, 69, 0
12, 11503, Note_on_c, 2, 45, 0
12, 11520, Note_on_c, 2, 38, 120
12, 11520, Note_on_c, 2, 74, 120
12, 11656, Note_on_c, 2, 38, 0
12, 11700, Note_on_c, 2, 38, 120
12, 11723, Note_on_c, 2, 74, 0
12, 11743, Note_on_c, 2, 38, 0
12, 11760, Note_on_c, 2, 43, 120
12, 11760, Note_on_c, 2, 67, 120
12, 11896, Note_on_c, 2, 43, 0
12, 11940, Note_on_c, 2, 43, 120
12, 11963, Note_on_c, 2, 67, 0
12, 11983, Note_on_c, 2, 43, 0
12, 12000, Note_on_c, 2, 36, 120
12, 12000, Note_on_c, 2, 72, 120
12, 12136, Note_on_c, 2, 36, 0
12, 12180, Note_on_c, 2, 36, 120
12, 12203, Note_on_c, 2, 72, 0
12, 12223, Note_on_c, 2, 36, 0
12, 12240, Note_on_c, 2, 40, 120
12, 12240, Note_on_c, 2, 76, 120
12, 12376, Note_on_c, 2, 40, 0
12, 12420, Note_on_c, 2, 40, 120
12, 12443, Note_on_c, 2, 76, 0
12, 12463, Note_on_c, 2, 40, 0
12, 12480, Note_on_c, 2, 38, 120
12, 12480, Note_on_c, 2, 74, 120
12, 12616, Note_on_c, 2, 38, 0
12, 12660, Note_on_c, 2, 38, 120
12, 12683, Note_on_c, 2, 74, 0
12, 12703, Note_on_c, 2, 38, 0
12, 12720, Note_on_c, 2, 43, 120
12, 12720, Note_on_c, 2, 67, 120
12, 12856, Note_on_c, 2, 43, 0
12, 12900, Note_on_c, 2, 43, 120
12, 12923, Note_on_c, 2, 67, 0
12, 12943, Note_on_c, 2, 43, 0
12, 12960, Note_on_c, 2, 36, 120
12, 12960, Note_on_c, 2, 72, 120
12, 13096, Note_on_c, 2, 36, 0
12, 13140, Note_on_c, 2, 36, 120
12, 13163, Note_on_c, 2, 72, 0
12, 13183, Note_on_c, 2, 36, 0
12, 13200, Note_on_c, 2, 45, 120
12, 13200, Note_on_c, 2, 69, 120
12, 13336, Note_on_c, 2, 45, 0
12, 13380, Note_on_c, 2, 45, 120
12, 13403, Note_on_c, 2, 69, 0
12, 13423, Note_on_c, 2, 45, 0
12, 13440, Note_on_c, 2, 38, 120
12, 13440, Note_on_c, 2, 74, 120
12, 13576, Note_on_c, 2, 38, 0
12, 13620, Note_on_c, 2, 38, 120
12, 13643, Note_on_c, 2, 74, 0
12, 13663, Note_on_c, 2, 38, 0
12, 13680, Note_on_c, 2, 43, 120
12, 13680, Note_on_c, 2, 67, 120
12, 13816, Note_on_c, 2, 43, 0
12, 13860, Note_on_c, 2, 43, 120
12, 13883, Note_on_c, 2, 67, 0
12, 13903, Note_on_c, 2, 43, 0
12, 13920, Note_on_c, 2, 36, 120
12, 13920, Note_on_c, 2, 72, 120
12, 14056, Note_on_c, 2, 36, 0
12, 14100, Note_on_c, 2, 36, 120
12, 14123, Note_on_c, 2, 72, 0
12, 14143, Note_on_c, 2, 36, 0
12, 14160, Note_on_c, 2, 40, 120
12, 14160, Note_on_c, 2, 76, 120
12, 14296, Note_on_c, 2, 40, 0
12, 14340, Note_on_c, 2, 40, 120
12, 14363, Note_on_c, 2, 76, 0
12, 14383, Note_on_c, 2, 40, 0
12, 14400, Note_on_c, 2, 38, 120
12, 14400, Note_on_c, 2, 74, 120
12, 14536, Note_on_c, 2, 38, 0
12, 14580, Note_on_c, 2, 38, 120
12, 14603, Note_on_c, 2, 74, 0
12, 14623, Note_on_c, 2, 38, 0
12, 14640, Note_on_c, 2, 43, 120
12, 14640, Note_on_c, 2, 67, 120
12, 14776, Note_on_c, 2, 43, 0
12, 14820, Note_on_c, 2, 43, 120
12, 14843, Note_on_c, 2, 67, 0
12, 14863, Note_on_c, 2, 43, 0
12, 14880, Note_on_c, 2, 43, 120
12, 14880, Note_on_c, 2, 67, 120
12, 15016, Note_on_c, 2, 43, 0
12, 15060, Note_on_c, 2, 43, 120
12, 15083, Note_on_c, 2, 67, 0
12, 15103, Note_on_c, 2, 43, 0
12, 15120, Note_on_c, 2, 36, 120
12, 15120, Note_on_c, 2, 72, 120
12, 15256, Note_on_c, 2, 36, 0
12, 15300, Note_on_c, 2, 36, 120
12, 15323, Note_on_c, 2, 72, 0
12, 15343, Note_on_c, 2, 36, 0
12, 15360, Note_on_c, 2, 53, 120
12, 15360, Note_on_c, 2, 72, 120
12, 15360, Note_on_c, 2, 69, 120
12, 15360, Note_on_c, 2, 65, 120
12, 15539, Note_on_c, 2, 69, 0
12, 15540, Note_on_c, 2, 67, 120
12, 15805, Note_on_c, 2, 67, 0
12, 15805, Note_on_c, 2, 65, 0
12, 15810, Note_on_c, 2, 72, 0
12, 15816, Note_on_c, 2, 53, 0
12, 15840, Note_on_c, 2, 43, 120
12, 15840, Note_on_c, 2, 67, 120
12, 15976, Note_on_c, 2, 43, 0
12, 16020, Note_on_c, 2, 43, 120
12, 16043, Note_on_c, 2, 67, 0
12, 16063, Note_on_c, 2, 43, 0
12, 16080, Note_on_c, 2, 36, 120
12, 16080, Note_on_c, 2, 72, 120
12, 16216, Note_on_c, 2, 36, 0
12, 16260, Note_on_c, 2, 36, 120
12, 16283, Note_on_c, 2, 72, 0
12, 16303, Note_on_c, 2, 36, 0
12, 16320, Note_on_c, 2, 65, 120
12, 16320, Note_on_c, 2, 41, 120
12, 16320, Note_on_c, 2, 57, 120
12, 16320, Note_on_c, 2, 60, 120
12, 16484, Note_on_c, 2, 57, 0
12, 16487, Note_on_c, 2, 60, 0
12, 16488, Note_on_c, 2, 65, 0
12, 16500, Note_on_c, 2, 60, 120
12, 16500, Note_on_c, 2, 65, 120
12, 16500, Note_on_c, 2, 55, 120
12, 16770, Note_on_c, 2, 60, 0
12, 16773, Note_on_c, 2, 55, 0
12, 16775, Note_on_c, 2, 65, 0
12, 16788, Note_on_c, 2, 41, 0
12, 16800, Note_on_c, 2, 45, 120
12, 16800, Note_on_c, 2, 69, 120
12, 16936, Note_on_c, 2, 45, 0
12, 16980, Note_on_c, 2, 45, 120
12, 17003, Note_on_c, 2, 69, 0
12, 17023, Note_on_c, 2, 45, 0
12, 17040, Note_on_c, 2, 38, 120
12, 17040, Note_on_c, 2, 74, 120
12, 17176, Note_on_c, 2, 38, 0
12, 17220, Note_on_c, 2, 38, 120
12, 17243, Note_on_c, 2, 74, 0
12, 17263, Note_on_c, 2, 38, 0
12, 17280, Note_on_c, 2, 62, 120
12, 17280, Note_on_c, 2, 57, 120
12, 17280, Note_on_c, 2, 55, 120
12, 17280, Note_on_c, 2, 43, 120
12, 17443, Note_on_c, 2, 57, 0
12, 17460, Note_on_c, 2, 59, 120
12, 17737, Note_on_c, 2, 59, 0
12, 17741, Note_on_c, 2, 55, 0
12, 17745, Note_on_c, 2, 62, 0
12, 17750, Note_on_c, 2, 43, 0
12, 17760, Note_on_c, 2, 45, 120
12, 17760, Note_on_c, 2, 69, 120
12, 17896, Note_on_c, 2, 45, 0
12, 17940, Note_on_c, 2, 45, 120
12, 17963, Note_on_c, 2, 69, 0
12, 17983, Note_on_c, 2, 45, 0
12, 18000, Note_on_c, 2, 38, 120
12, 18000, Note_on_c, 2, 74, 120
12, 18136, Note_on_c, 2, 38, 0
12, 18180, Note_on_c, 2, 38, 120
12, 18203, Note_on_c, 2, 74, 0
12, 18223, Note_on_c, 2, 38, 0
12, 18240, Note_on_c, 2, 38, 120
12, 18240, Note_on_c, 2, 74, 120
12, 18376, Note_on_c, 2, 38, 0
12, 18420, Note_on_c, 2, 38, 120
12, 18443, Note_on_c, 2, 74, 0
12, 18463, Note_on_c, 2, 38, 0
12, 18480, Note_on_c, 2, 43, 120
12, 18480, Note_on_c, 2, 67, 120
12, 18616, Note_on_c, 2, 43, 0
12, 18660, Note_on_c, 2, 43, 120
12, 18683, Note_on_c, 2, 67, 0
12, 18703, Note_on_c, 2, 43, 0
12, 18720, Note_on_c, 2, 36, 120
12, 18720, Note_on_c, 2, 72, 120
12, 18856, Note_on_c, 2, 36, 0
12, 18900, Note_on_c, 2, 36, 120
12, 18923, Note_on_c, 2, 72, 0
12, 18943, Note_on_c, 2, 36, 0
12, 18960, Note_on_c, 2, 45, 120
12, 18960, Note_on_c, 2, 69, 120
12, 19096, Note_on_c, 2, 45, 0
12, 19140, Note_on_c, 2, 45, 120
12, 19163, Note_on_c, 2, 69, 0
12, 19183, Note_on_c, 2, 45, 0
12, 19200, Note_on_c, 2, 38, 120
12, 19200, Note_on_c, 2, 74, 120
12, 19336, Note_on_c, 2, 38, 0
12, 19380, Note_on_c, 2, 38, 120
12, 19403, Note_on_c, 2, 74, 0
12, 19423, Note_on_c, 2, 38, 0
12, 19440, Note_on_c, 2, 43, 120
12, 19440, Note_on_c, 2, 67, 120
12, 19576, Note_on_c, 2, 43, 0
12, 19620, Note_on_c, 2, 43, 120
12, 19643, Note_on_c, 2, 67, 0
12, 19663, Note_on_c, 2, 43, 0
12, 19680, Note_on_c, 2, 36, 120
12, 19680, Note_on_c, 2, 72, 120
12, 19816, Note_on_c, 2, 36, 0
12, 19860, Note_on_c, 2, 36, 120
12, 19883, Note_on_c, 2, 72, 0
12, 19903, Note_on_c, 2, 36, 0
12, 19920, Note_on_c, 2, 40, 120
12, 19920, Note_on_c, 2, 76, 120
12, 20056, Note_on_c, 2, 40, 0
12, 20100, Note_on_c, 2, 40, 120
12, 20123, Note_on_c, 2, 76, 0
12, 20143, Note_on_c, 2, 40, 0
12, 20160, Note_on_c, 2, 38, 120
12, 20160, Note_on_c, 2, 74, 120
12, 20296, Note_on_c, 2, 38, 0
12, 20340, Note_on_c, 2, 38, 120
12, 20363, Note_on_c, 2, 74, 0
12, 20383, Note_on_c, 2, 38, 0
12, 20400, Note_on_c, 2, 43, 120
12, 20400, Note_on_c, 2, 67, 120
12, 20536, Note_on_c, 2, 43, 0
12, 20580, Note_on_c, 2, 43, 120
12, 20603, Note_on_c, 2, 67, 0
12, 20623, Note_on_c, 2, 43, 0
12, 20640, Note_on_c, 2, 36, 120
12, 20640, Note_on_c, 2, 72, 120
12, 20776, Note_on_c, 2, 36, 0
12, 20820, Note_on_c, 2, 36, 120
12, 20843, Note_on_c, 2, 72, 0
12, 20863, Note_on_c, 2, 36, 0
12, 20880, Note_on_c, 2, 45, 120
12, 20880, Note_on_c, 2, 69, 120
12, 21016, Note_on_c, 2, 45, 0
12, 21060, Note_on_c, 2, 45, 120
12, 21083, Note_on_c, 2, 69, 0
12, 21103, Note_on_c, 2, 45, 0
12, 21120, Note_on_c, 2, 38, 120
12, 21120, Note_on_c, 2, 74, 120
12, 21256, Note_on_c, 2, 38, 0
12, 21300, Note_on_c, 2, 38, 120
12, 21323, Note_on_c, 2, 74, 0
12, 21343, Note_on_c, 2, 38, 0
12, 21360, Note_on_c, 2, 43, 120
12, 21360, Note_on_c, 2, 67, 120
12, 21496, Note_on_c, 2, 43, 0
12, 21540, Note_on_c, 2, 43, 120
12, 21563, Note_on_c, 2, 67, 0
12, 21583, Note_on_c, 2, 43, 0
12, 21600, Note_on_c, 2, 36, 120
12, 21600, Note_on_c, 2, 72, 120
12, 21736, Note_on_c, 2, 36, 0
12, 21780, Note_on_c, 2, 36, 120
12, 21803, Note_on_c, 2, 72, 0
12, 21823, Note_on_c, 2, 36, 0
12, 21840, Note_on_c, 2, 40, 120
12, 21840, Note_on_c, 2, 76, 120
12, 21976, Note_on_c, 2, 40, 0
12, 22020, Note_on_c, 2, 40, 120
12, 22043, Note_on_c, 2, 76, 0
12, 22063, Note_on_c, 2, 40, 0
12, 22080, Note_on_c, 2, 38, 120
12, 22080, Note_on_c, 2, 74, 120
12, 22216, Note_on_c, 2, 38, 0
12, 22260, Note_on_c, 2, 38, 120
12, 22283, Note_on_c, 2, 74, 0
12, 22303, Note_on_c, 2, 38, 0
12, 22320, Note_on_c, 2, 43, 120
12, 22320, Note_on_c, 2, 67, 120
12, 22456, Note_on_c, 2, 43, 0
12, 22500, Note_on_c, 2, 43, 120
12, 22523, Note_on_c, 2, 67, 0
12, 22543, Note_on_c, 2, 43, 0
12, 22560, Note_on_c, 2, 36, 120
12, 22560, Note_on_c, 2, 72, 120
12, 22696, Note_on_c, 2, 36, 0
12, 22740, Note_on_c, 2, 36, 120
12, 22763, Note_on_c, 2, 72, 0
12, 22783, Note_on_c, 2, 36, 0
12, 22800, Note_on_c, 2, 45, 120
12, 22800, Note_on_c, 2, 69, 120
12, 22936, Note_on_c, 2, 45, 0
12, 22980, Note_on_c, 2, 45, 120
12, 23003, Note_on_c, 2, 69, 0
12, 23023, Note_on_c, 2, 45, 0
12, 23040, Note_on_c, 2, 38, 120
12, 23040, Note_on_c, 2, 74, 120
12, 23176, Note_on_c, 2, 38, 0
12, 23220, Note_on_c, 2, 38, 120
12, 23243, Note_on_c, 2, 74, 0
12, 23263, Note_on_c, 2, 38, 0
12, 23280, Note_on_c, 2, 43, 120
12, 23280, Note_on_c, 2, 67, 120
12, 23416, Note_on_c, 2, 43, 0
12, 23460, Note_on_c, 2, 43, 120
12, 23483, Note_on_c, 2, 67, 0
12, 23503, Note_on_c, 2, 43, 0
12, 23520, Note_on_c, 2, 36, 120
12, 23520, Note_on_c, 2, 72, 120
12, 23656, Note_on_c, 2, 36, 0
12, 23700, Note_on_c, 2, 36, 120
12, 23723, Note_on_c, 2, 72, 0
12, 23743, Note_on_c, 2, 36, 0
12, 23760, Note_on_c, 2, 40, 120
12, 23760, Note_on_c, 2, 76, 120
12, 23896, Note_on_c, 2, 40, 0
12, 23940, Note_on_c, 2, 40, 120
12, 23963, Note_on_c, 2, 76, 0
12, 23983, Note_on_c, 2, 40, 0
12, 24000, Note_on_c, 2, 38, 120
12, 24000, Note_on_c, 2, 74, 120
12, 24136, Note_on_c, 2, 38, 0
12, 24180, Note_on_c, 2, 38, 120
12, 24203, Note_on_c, 2, 74, 0
12, 24223, Note_on_c, 2, 38, 0
12, 24240, Note_on_c, 2, 43, 120
12, 24240, Note_on_c, 2, 67, 120
12, 24376, Note_on_c, 2, 43, 0
12, 24420, Note_on_c, 2, 43, 120
12, 24443, Note_on_c, 2, 67, 0
12, 24463, Note_on_c, 2, 43, 0
12, 24480, Note_on_c, 2, 43, 120
12, 24480, Note_on_c, 2, 67, 120
12, 24616, Note_on_c, 2, 43, 0
12, 24660, Note_on_c, 2, 43, 120
12, 24683, Note_on_c, 2, 67, 0
12, 24703, Note_on_c, 2, 43, 0
12, 24720, Note_on_c, 2, 36, 120
12, 24720, Note_on_c, 2, 72, 120
12, 24856, Note_on_c, 2, 36, 0
12, 24900, Note_on_c, 2, 36, 120
12, 24923, Note_on_c, 2, 72, 0
12, 24943, Note_on_c, 2, 36, 0
12, 24960, Note_on_c, 2, 72, 120
12, 24960, Note_on_c, 2, 67, 120
12, 24960, Note_on_c, 2, 65, 120
12, 24960, Note_on_c, 2, 53, 120
12, 25123, Note_on_c, 2, 67, 0
12, 25140, Note_on_c, 2, 69, 120
12, 25417, Note_on_c, 2, 69, 0
12, 25421, Note_on_c, 2, 65, 0
12, 25425, Note_on_c, 2, 72, 0
12, 25430, Note_on_c, 2, 53, 0
12, 25440, Note_on_c, 2, 43, 120
12, 25440, Note_on_c, 2, 67, 120
12, 25576, Note_on_c, 2, 43, 0
12, 25620, Note_on_c, 2, 43, 120
12, 25643, Note_on_c, 2, 67, 0
12, 25663, Note_on_c, 2, 43, 0
12, 25680, Note_on_c, 2, 36, 120
12, 25680, Note_on_c, 2, 72, 120
12, 25816, Note_on_c, 2, 36, 0
12, 25860, Note_on_c, 2, 36, 120
12, 25883, Note_on_c, 2, 72, 0
12, 25903, Note_on_c, 2, 36, 0
12, 25920, Note_on_c, 2, 72, 120
12, 25920, Note_on_c, 2, 67, 120
12, 25920, Note_on_c, 2, 65, 120
12, 25920, Note_on_c, 2, 53, 120
12, 26083, Note_on_c, 2, 67, 0
12, 26100, Note_on_c, 2, 69, 120
12, 26377, Note_on_c, 2, 69, 0
12, 26381, Note_on_c, 2, 65, 0
12, 26385, Note_on_c, 2, 72, 0
12, 26390, Note_on_c, 2, 53, 0
12, 26400, Note_on_c, 2, 45, 120
12, 26400, Note_on_c, 2, 69, 120
12, 26536, Note_on_c, 2, 45, 0
12, 26580, Note_on_c, 2, 45, 120
12, 26603, Note_on_c, 2, 69, 0
12, 26623, Note_on_c, 2, 45, 0
12, 26640, Note_on_c, 2, 38, 120
12, 26640, Note_on_c, 2, 74, 120
12, 26776, Note_on_c, 2, 38, 0
12, 26820, Note_on_c, 2, 38, 120
12, 26843, Note_on_c, 2, 74, 0
12, 26863, Note_on_c, 2, 38, 0
12, 26880, Note_on_c, 2, 62, 120
12, 26880, Note_on_c, 2, 57, 120
12, 26880, Note_on_c, 2, 55, 120
12, 26880, Note_on_c, 2, 43, 120
12, 27043, Note_on_c, 2, 57, 0
12, 27060, Note_on_c, 2, 59, 120
12, 27337, Note_on_c, 2, 59, 0
12, 27341, Note_on_c, 2, 55, 0
12, 27345, Note_on_c, 2, 62, 0
12, 27350, Note_on_c, 2, 43, 0
12, 27360, Note_on_c, 2, 45, 120
12, 27360, Note_on_c, 2, 69, 120
12, 27496, Note_on_c, 2, 45, 0
12, 27540, Note_on_c, 2, 45, 120
12, 27563, Note_on_c, 2, 69, 0
12, 27583, Note_on_c, 2, 45, 0
12, 27600, Note_on_c, 2, 38, 120
12, 27600, Note_on_c, 2, 74, 120
12, 27736, Note_on_c, 2, 38, 0
12, 27780, Note_on_c, 2, 38, 120
12, 27803, Note_on_c, 2, 74, 0
12, 27823, Note_on_c, 2, 38, 0
12, 27840, Note_on_c, 2, 38, 120
12, 27840, Note_on_c, 2, 74, 120
12, 27976, Note_on_c, 2, 38, 0
12, 28020, Note_on_c, 2, 38, 120
12, 28043, Note_on_c, 2, 74, 0
12, 28063, Note_on_c, 2, 38, 0
12, 28080, Note_on_c, 2, 43, 120
12, 28080, Note_on_c, 2, 67, 120
12, 28216, Note_on_c, 2, 43, 0
12, 28260, Note_on_c, 2, 43, 120
12, 28283, Note_on_c, 2, 67, 0
12, 28303, Note_on_c, 2, 43, 0
12, 28320, Note_on_c, 2, 36, 120
12, 28320, Note_on_c, 2, 72, 120
12, 28456, Note_on_c, 2, 36, 0
12, 28500, Note_on_c, 2, 36, 120
12, 28523, Note_on_c, 2, 72, 0
12, 28543, Note_on_c, 2, 36, 0
12, 28560, Note_on_c, 2, 45, 120
12, 28560, Note_on_c, 2, 69, 120
12, 28696, Note_on_c, 2, 45, 0
12, 28740, Note_on_c, 2, 45, 120
12, 28763, Note_on_c, 2, 69, 0
12, 28783, Note_on_c, 2, 45, 0
12, 28800, Note_on_c, 2, 38, 120
12, 28800, Note_on_c, 2, 74, 120
12, 28936, Note_on_c, 2, 38, 0
12, 28980, Note_on_c, 2, 38, 120
12, 29003, Note_on_c, 2, 74, 0
12, 29023, Note_on_c, 2, 38, 0
12, 29040, Note_on_c, 2, 43, 120
12, 29040, Note_on_c, 2, 67, 120
12, 29176, Note_on_c, 2, 43, 0
12, 29220, Note_on_c, 2, 43, 120
12, 29243, Note_on_c, 2, 67, 0
12, 29263, Note_on_c, 2, 43, 0
12, 29280, Note_on_c, 2, 36, 120
12, 29280, Note_on_c, 2, 72, 120
12, 29416, Note_on_c, 2, 36, 0
12, 29460, Note_on_c, 2, 36, 120
12, 29483, Note_on_c, 2, 72, 0
12, 29503, Note_on_c, 2, 36, 0
12, 29520, Note_on_c, 2, 40, 120
12, 29520, Note_on_c, 2, 76, 120
12, 29656, Note_on_c, 2, 40, 0
12, 29700, Note_on_c, 2, 40, 120
12, 29723, Note_on_c, 2, 76, 0
12, 29743, Note_on_c, 2, 40, 0
12, 29760, Note_on_c, 2, 38, 120
12, 29760, Note_on_c, 2, 74, 120
12, 29896, Note_on_c, 2, 38, 0
12, 29940, Note_on_c, 2, 38, 120
12, 29963, Note_on_c, 2, 74, 0
12, 29983, Note_on_c, 2, 38, 0
12, 30000, Note_on_c, 2, 43, 120
12, 30000, Note_on_c, 2, 67, 120
12, 30136, Note_on_c, 2, 43, 0
12, 30180, Note_on_c, 2, 43, 120
12, 30203, Note_on_c, 2, 67, 0
12, 30223, Note_on_c, 2, 43, 0
12, 30240, Note_on_c, 2, 36, 120
12, 30240, Note_on_c, 2, 72, 120
12, 30376, Note_on_c, 2, 36, 0
12, 30420, Note_on_c, 2, 36, 120
12, 30443, Note_on_c, 2, 72, 0
12, 30463, Note_on_c, 2, 36, 0
12, 30480, Note_on_c, 2, 45, 120
12, 30480, Note_on_c, 2, 69, 120
12, 30616, Note_on_c, 2, 45, 0
12, 30660, Note_on_c, 2, 45, 120
12, 30683, Note_on_c, 2, 69, 0
12, 30703, Note_on_c, 2, 45, 0
12, 30720, Note_on_c, 2, 38, 120
12, 30720, Note_on_c, 2, 74, 120
12, 30856, Note_on_c, 2, 38, 0
12, 30900, Note_on_c, 2, 38, 120
12, 30923, Note_on_c, 2, 74, 0
12, 30943, Note_on_c, 2, 38, 0
12, 30960, Note_on_c, 2, 43, 120
12, 30960, Note_on_c, 2, 67, 120
12, 31096, Note_on_c, 2, 43, 0
12, 31140, Note_on_c, 2, 43, 120
12, 31163, Note_on_c, 2, 67, 0
12, 31183, Note_on_c, 2, 43, 0
12, 31200, Note_on_c, 2, 36, 120
12, 31200, Note_on_c, 2, 72, 120
12, 31336, Note_on_c, 2, 36, 0
12, 31380, Note_on_c, 2, 36, 120
12, 31403, Note_on_c, 2, 72, 0
12, 31423, Note_on_c, 2, 36, 0
12, 31440, Note_on_c, 2, 40, 120
12, 31440, Note_on_c, 2, 76, 120
12, 31576, Note_on_c, 2, 40, 0
12, 31620, Note_on_c, 2, 40, 120
12, 31643, Note_on_c, 2, 76, 0
12, 31663, Note_on_c, 2, 40, 0
12, 31680, Note_on_c, 2, 38, 120
12, 31680, Note_on_c, 2, 74, 120
12, 31816, Note_on_c, 2, 38, 0
12, 31860, Note_on_c, 2, 38, 120
12, 31883, Note_on_c, 2, 74, 0
12, 31903, Note_on_c, 2, 38, 0
12, 31920, Note_on_c, 2, 43, 120
12, 31920, Note_on_c, 2, 67, 120
12, 32056, Note_on_c, 2, 43, 0
12, 32100, Note_on_c, 2, 43, 120
12, 32123, Note_on_c, 2, 67, 0
12, 32143, Note_on_c, 2, 43, 0
12, 32160, Note_on_c, 2, 36, 120
12, 32160, Note_on_c, 2, 72, 120
12, 32296, Note_on_c, 2, 36, 0
12, 32340, Note_on_c, 2, 36, 120
12, 32363, Note_on_c, 2, 72, 0
12, 32383, Note_on_c, 2, 36, 0
12, 32400, Note_on_c, 2, 45, 120
12, 32400, Note_on_c, 2, 69, 120
12, 32536, Note_on_c, 2, 45, 0
12, 32580, Note_on_c, 2, 45, 120
12, 32603, Note_on_c, 2, 69, 0
12, 32623, Note_on_c, 2, 45, 0
12, 32640, Note_on_c, 2, 38, 120
12, 32640, Note_on_c, 2, 74, 120
12, 32776, Note_on_c, 2, 38, 0
12, 32820, Note_on_c, 2, 38, 120
12, 32843, Note_on_c, 2, 74, 0
12, 32863, Note_on_c, 2, 38, 0
12, 32880, Note_on_c, 2, 43, 120
12, 32880, Note_on_c, 2, 67, 120
12, 33016, Note_on_c, 2, 43, 0
12, 33060, Note_on_c, 2, 43, 120
12, 33083, Note_on_c, 2, 67, 0
12, 33103, Note_on_c, 2, 43, 0
12, 33120, Note_on_c, 2, 36, 120
12, 33120, Note_on_c, 2, 72, 120
12, 33256, Note_on_c, 2, 36, 0
12, 33300, Note_on_c, 2, 36, 120
12, 33323, Note_on_c, 2, 72, 0
12, 33343, Note_on_c, 2, 36, 0
12, 33360, Note_on_c, 2, 40, 120
12, 33360, Note_on_c, 2, 76, 120
12, 33496, Note_on_c, 2, 40, 0
12, 33540, Note_on_c, 2, 40, 120
12, 33563, Note_on_c, 2, 76, 0
12, 33583, Note_on_c, 2, 40, 0
12, 33600, Note_on_c, 2, 38, 120
12, 33600, Note_on_c, 2, 74, 120
12, 33736, Note_on_c, 2, 38, 0
12, 33780, Note_on_c, 2, 38, 120
12, 33803, Note_on_c, 2, 74, 0
12, 33823, Note_on_c, 2, 38, 0
12, 33840, Note_on_c, 2, 43, 120
12, 33840, Note_on_c, 2, 67, 120
12, 33976, Note_on_c, 2, 43, 0
12, 34020, Note_on_c, 2, 43, 120
12, 34043, Note_on_c, 2, 67, 0
12, 34063, Note_on_c, 2, 43, 0
12, 34080, Note_on_c, 2, 43, 120
12, 34080, Note_on_c, 2, 67, 120
12, 34216, Note_on_c, 2, 43, 0
12, 34260, Note_on_c, 2, 43, 120
12, 34283, Note_on_c, 2, 67, 0
12, 34303, Note_on_c, 2, 43, 0
12, 34320, Note_on_c, 2, 36, 120
12, 34320, Note_on_c, 2, 72, 120
12, 34456, Note_on_c, 2, 36, 0
12, 34500, Note_on_c, 2, 36, 120
12, 34523, Note_on_c, 2, 72, 0
12, 34543, Note_on_c, 2, 36, 0
12, 34560, Note_on_c, 2, 72, 120
12, 34560, Note_on_c, 2, 67, 120
12, 34560, Note_on_c, 2, 65, 120
12, 34560, Note_on_c, 2, 53, 120
12, 34723, Note_on_c, 2, 67, 0
12, 34740, Note_on_c, 2, 69, 120
12, 35017, Note_on_c, 2, 69, 0
12, 35021, Note_on_c, 2, 65, 0
12, 35025, Note_on_c, 2, 72, 0
12, 35030, Note_on_c, 2, 53, 0
12, 35040, Note_on_c, 2, 43, 120
12, 35040, Note_on_c, 2, 67, 120
12, 35176, Note_on_c, 2, 43, 0
12, 35220, Note_on_c, 2, 43, 120
12, 35243, Note_on_c, 2, 67, 0
12, 35263, Note_on_c, 2, 43, 0
12, 35280, Note_on_c, 2, 36, 120
12, 35280, Note_on_c, 2, 72, 120
12, 35416, Note_on_c, 2, 36, 0
12, 35460, Note_on_c, 2, 36, 120
12, 35483, Note_on_c, 2, 72, 0
12, 35503, Note_on_c, 2, 36, 0
12, 35520, Note_on_c, 2, 72, 120
12, 35520, Note_on_c, 2, 67, 120
12, 35520, Note_on_c, 2, 65, 120
12, 35520, Note_on_c, 2, 53, 120
12, 35683, Note_on_c, 2, 67, 0
12, 35700, Note_on_c, 2, 69, 120
12, 35977, Note_on_c, 2, 69, 0
12, 35981, Note_on_c, 2, 65, 0
12, 35985, Note_on_c, 2, 72, 0
12, 35990, Note_on_c, 2, 53, 0
12, 36000, Note_on_c, 2, 45, 120
12, 36000, Note_on_c, 2, 69, 120
12, 36136, Note_on_c, 2, 45, 0
12, 36180, Note_on_c, 2, 45, 120
12, 36203, Note_on_c, 2, 69, 0
12, 36223, Note_on_c, 2, 45, 0
12, 36240, Note_on_c, 2, 38, 120
12, 36240, Note_on_c, 2, 74, 120
12, 36376, Note_on_c, 2, 38, 0
12, 36420, Note_on_c, 2, 38, 120
12, 36443, Note_on_c, 2, 74, 0
12, 36463, Note_on_c, 2, 38, 0
12, 36480, Note_on_c, 2, 43, 120
12, 36660, Note_on_c, 2, 50, 120
12, 36720, Note_on_c, 2, 62, 120
12, 36720, Note_on_c, 2, 55, 120
12, 36720, Note_on_c, 2, 57, 120
12, 36876, Note_on_c, 2, 50, 0
12, 36900, Note_on_c, 2, 50, 120
12, 36960, Note_on_c, 2, 50, 0
12, 36960, Note_on_c, 2, 57, 0
12, 36960, Note_on_c, 2, 43, 0
12, 36960, Note_on_c, 2, 62, 0
12, 36960, Note_on_c, 2, 55, 0
12, 36960, Note_on_c, 2, 45, 120
12, 36960, Note_on_c, 2, 69, 120
12, 37096, Note_on_c, 2, 45, 0
12, 37140, Note_on_c, 2, 45, 120
12, 37163, Note_on_c, 2, 69, 0
12, 37183, Note_on_c, 2, 45, 0
12, 37200, Note_on_c, 2, 38, 120
12, 37200, Note_on_c, 2, 74, 120
12, 37336, Note_on_c, 2, 38, 0
12, 37380, Note_on_c, 2, 38, 120
12, 37403, Note_on_c, 2, 74, 0
12, 37423, Note_on_c, 2, 38, 0
12, 37440, Note_on_c, 2, 38, 120
12, 37440, Note_on_c, 2, 74, 120
12, 37576, Note_on_c, 2, 38, 0
12, 37620, Note_on_c, 2, 38, 120
12, 37643, Note_on_c, 2, 74, 0
12, 37663, Note_on_c, 2, 38, 0
12, 37680, Note_on_c, 2, 43, 120
12, 37680, Note_on_c, 2, 67, 120
12, 37816, Note_on_c, 2, 43, 0
12, 37860, Note_on_c, 2, 43, 120
12, 37883, Note_on_c, 2, 67, 0
12, 37903, Note_on_c, 2, 43, 0
12, 37920, Note_on_c, 2, 36, 120
12, 37920, Note_on_c, 2, 72, 120
12, 38056, Note_on_c, 2, 36, 0
12, 38100, Note_on_c, 2, 36, 120
12, 38123, Note_on_c, 2, 72, 0
12, 38143, Note_on_c, 2, 36, 0
12, 38160, Note_on_c, 2, 45, 120
12, 38160, Note_on_c, 2, 69, 120
12, 38296, Note_on_c, 2, 45, 0
12, 38340, Note_on_c, 2, 45, 120
12, 38363, Note_on_c, 2, 69, 0
12, 38383, Note_on_c, 2, 45, 0
12, 38400, Note_on_c, 2, 38, 120
12, 38400, Note_on_c, 2, 74, 120
12, 38536, Note_on_c, 2, 38, 0
12, 38580, Note_on_c, 2, 38, 120
12, 38603, Note_on_c, 2, 74, 0
12, 38623, Note_on_c, 2, 38, 0
12, 38640, Note_on_c, 2, 43, 120
12, 38640, Note_on_c, 2, 67, 120
12, 38776, Note_on_c, 2, 43, 0
12, 38820, Note_on_c, 2, 43, 120
12, 38843, Note_on_c, 2, 67, 0
12, 38863, Note_on_c, 2, 43, 0
12, 38880, Note_on_c, 2, 36, 120
12, 38880, Note_on_c, 2, 72, 120
12, 39016, Note_on_c, 2, 36, 0
12, 39060, Note_on_c, 2, 36, 120
12, 39083, Note_on_c, 2, 72, 0
12, 39103, Note_on_c, 2, 36, 0
12, 39120, Note_on_c, 2, 40, 120
12, 39120, Note_on_c, 2, 76, 120
12, 39256, Note_on_c, 2, 40, 0
12, 39300, Note_on_c, 2, 40, 120
12, 39323, Note_on_c, 2, 76, 0
12, 39343, Note_on_c, 2, 40, 0
12, 39360, Note_on_c, 2, 38, 120
12, 39360, Note_on_c, 2, 74, 120
12, 39496, Note_on_c, 2, 38, 0
12, 39540, Note_on_c, 2, 38, 120
12, 39563, Note_on_c, 2, 74, 0
12, 39583, Note_on_c, 2, 38, 0
12, 39600, Note_on_c, 2, 43, 120
12, 39600, Note_on_c, 2, 67, 120
12, 39736, Note_on_c, 2, 43, 0
12, 39780, Note_on_c, 2, 43, 120
12, 39803, Note_on_c, 2, 67, 0
12, 39823, Note_on_c, 2, 43, 0
12, 39928, Note_on_c, 2, 64, 120
12, 39928, Note_on_c, 2, 60, 120
12, 39928, Note_on_c, 2, 55, 120
12, 40028, Note_on_c, 2, 55, 0
12, 40028, Note_on_c, 2, 60, 0
12, 40028, Note_on_c, 2, 64, 0
12, 40048, Note_on_c, 2, 64, 120
12, 40048, Note_on_c, 2, 60, 120
12, 40048, Note_on_c, 2, 55, 120
12, 40084, Note_on_c, 2, 55, 0
12, 40084, Note_on_c, 2, 60, 0
12, 40084, Note_on_c, 2, 64, 0
12, 40108, Note_on_c, 2, 45, 120
12, 40108, Note_on_c, 2, 64, 120
12, 40108, Note_on_c, 2, 60, 120
12, 40108, Note_on_c, 2, 57, 120
12, 40244, Note_on_c, 2, 45, 0
12, 40288, Note_on_c, 2, 45, 120
12, 40311, Note_on_c, 2, 64, 0
12, 40311, Note_on_c, 2, 57, 0
12, 40311, Note_on_c, 2, 60, 0
12, 40331, Note_on_c, 2, 45, 0
12, 40348, Note_on_c, 2, 50, 120
12, 40348, Note_on_c, 2, 65, 120
12, 40348, Note_on_c, 2, 62, 120
12, 40348, Note_on_c, 2, 60, 120
12, 40348, Note_on_c, 2, 69, 120
12, 40484, Note_on_c, 2, 50, 0
12, 40528, Note_on_c, 2, 50, 120
12, 40551, Note_on_c, 2, 60, 0
12, 40551, Note_on_c, 2, 69, 0
12, 40551, Note_on_c, 2, 65, 0
12, 40551, Note_on_c, 2, 62, 0
12, 40571, Note_on_c, 2, 50, 0
12, 40588, Note_on_c, 2, 43, 120
12, 40588, Note_on_c, 2, 65, 120
12, 40588, Note_on_c, 2, 62, 120
12, 40588, Note_on_c, 2, 59, 120
12, 40588, Note_on_c, 2, 67, 120
12, 40724, Note_on_c, 2, 43, 0
12, 40768, Note_on_c, 2, 43, 120
12, 40791, Note_on_c, 2, 59, 0
12, 40791, Note_on_c, 2, 67, 0
12, 40791, Note_on_c, 2, 65, 0
12, 40791, Note_on_c, 2, 62, 0
12, 40811, Note_on_c, 2, 43, 0
12, 40828, Note_on_c, 2, 64, 120
12, 40828, Note_on_c, 2, 60, 120
12, 40828, Note_on_c, 2, 55, 120
12, 41068, Note_on_c, 2, 55, 0
12, 41068, Note_on_c, 2, 60, 0
12, 41068, Note_on_c, 2, 64, 0
12, 41068, Note_on_c, 2, 52, 120
12, 41068, Note_on_c, 2, 64, 120
12, 41068, Note_on_c, 2, 59, 120
12, 41068, Note_on_c, 2, 55, 120
12, 41204, Note_on_c, 2, 52, 0
12, 41248, Note_on_c, 2, 52, 120
12, 41271, Note_on_c, 2, 64, 0
12, 41271, Note_on_c, 2, 55, 0
12, 41271, Note_on_c, 2, 59, 0
12, 41291, Note_on_c, 2, 52, 0
12, 41308, Note_on_c, 2, 50, 120
12, 41308, Note_on_c, 2, 65, 120
12, 41308, Note_on_c, 2, 62, 120
12, 41308, Note_on_c, 2, 60, 120
12, 41308, Note_on_c, 2, 69, 120
12, 41444, Note_on_c, 2, 50, 0
12, 41488, Note_on_c, 2, 50, 120
12, 41511, Note_on_c, 2, 60, 0
12, 41511, Note_on_c, 2, 69, 0
12, 41511, Note_on_c, 2, 65, 0
12, 41511, Note_on_c, 2, 62, 0
12, 41531, Note_on_c, 2, 50, 0
12, 41548, Note_on_c, 2, 43, 120
12, 41548, Note_on_c, 2, 65, 120
12, 41548, Note_on_c, 2, 62, 120
12, 41548, Note_on_c, 2, 59, 120
12, 41548, Note_on_c, 2, 67, 120
12, 41684, Note_on_c, 2, 43, 0
12, 41728, Note_on_c, 2, 43, 120
12, 41751, Note_on_c, 2, 59, 0
12, 41751, Note_on_c, 2, 67, 0
12, 41751, Note_on_c, 2, 65, 0
12, 41751, Note_on_c, 2, 62, 0
12, 41771, Note_on_c, 2, 43, 0
12, 41788, Note_on_c, 2, 48, 120
12, 41788, Note_on_c, 2, 64, 120
12, 41788, Note_on_c, 2, 60, 120
12, 41788, Note_on_c, 2, 55, 120
12, 41924, Note_on_c, 2, 48, 0
12, 41968, Note_on_c, 2, 48, 120
12, 41991, Note_on_c, 2, 64, 0
12, 41991, Note_on_c, 2, 55, 0
12, 41991, Note_on_c, 2, 60, 0
12, 42011, Note_on_c, 2, 48, 0
12, 42028, Note_on_c, 2, 45, 120
12, 42028, Note_on_c, 2, 64, 120
12, 42028, Note_on_c, 2, 60, 120
12, 42028, Note_on_c, 2, 57, 120
12, 42164, Note_on_c, 2, 45, 0
12, 42208, Note_on_c, 2, 45, 120
12, 42231, Note_on_c, 2, 64, 0
12, 42231, Note_on_c, 2, 57, 0
12, 42231, Note_on_c, 2, 60, 0
12, 42251, Note_on_c, 2, 45, 0
12, 42268, Note_on_c, 2, 50, 120
12, 42268, Note_on_c, 2, 65, 120
12, 42268, Note_on_c, 2, 62, 120
12, 42268, Note_on_c, 2, 60, 120
12, 42268, Note_on_c, 2, 69, 120
12, 42404, Note_on_c, 2, 50, 0
12, 42448, Note_on_c, 2, 50, 120
12, 42471, Note_on_c, 2, 60, 0
12, 42471, Note_on_c, 2, 69, 0
12, 42471, Note_on_c, 2, 65, 0
12, 42471, Note_on_c, 2, 62, 0
12, 42491, Note_on_c, 2, 50, 0
12, 42508, Note_on_c, 2, 43, 120
12, 42508, Note_on_c, 2, 65, 120
12, 42508, Note_on_c, 2, 62, 120
12, 42508, Note_on_c, 2, 59, 120
12, 42508, Note_on_c, 2, 67, 120
12, 42644, Note_on_c, 2, 43, 0
12, 42688, Note_on_c, 2, 43, 120
12, 42711, Note_on_c, 2, 59, 0
12, 42711, Note_on_c, 2, 67, 0
12, 42711, Note_on_c, 2, 65, 0
12, 42711, Note_on_c, 2, 62, 0
12, 42731, Note_on_c, 2, 43, 0
12, 42748, Note_on_c, 2, 48, 120
12, 42748, Note_on_c, 2, 64, 120
12, 42748, Note_on_c, 2, 60, 120
12, 42748, Note_on_c, 2, 55, 120
12, 42884, Note_on_c, 2, 48, 0
12, 42928, Note_on_c, 2, 48, 120
12, 42951, Note_on_c, 2, 64, 0
12, 42951, Note_on_c, 2, 55, 0
12, 42951, Note_on_c, 2, 60, 0
12, 42971, Note_on_c, 2, 48, 0
12, 42988, Note_on_c, 2, 52, 120
12, 42988, Note_on_c, 2, 64, 120
12, 42988, Note_on_c, 2, 59, 120
12, 42988, Note_on_c, 2, 55, 120
12, 43124, Note_on_c, 2, 52, 0
12, 43168, Note_on_c, 2, 52, 120
12, 43191, Note_on_c, 2, 64, 0
12, 43191, Note_on_c, 2, 55, 0
12, 43191, Note_on_c, 2, 59, 0
12, 43211, Note_on_c, 2, 52, 0
12, 43228, Note_on_c, 2, 50, 120
12, 43228, Note_on_c, 2, 65, 120
12, 43228, Note_on_c, 2, 62, 120
12, 43228, Note_on_c, 2, 60, 120
12, 43228, Note_on_c, 2, 69, 120
12, 43364, Note_on_c, 2, 50, 0
12, 43408, Note_on_c, 2, 50, 120
12, 43431, Note_on_c, 2, 60, 0
12, 43431, Note_on_c, 2, 69, 0
12, 43431, Note_on_c, 2, 65, 0
12, 43431, Note_on_c, 2, 62, 0
12, 43451, Note_on_c, 2, 50, 0
12, 43468, Note_on_c, 2, 65, 120
12, 43468, Note_on_c, 2, 62, 120
12, 43468, Note_on_c, 2, 59, 120
12, 43468, Note_on_c, 2, 67, 120
12, 43708, Note_on_c, 2, 67, 0
12, 43708, Note_on_c, 2, 65, 0
12, 43708, Note_on_c, 2, 62, 0
12, 43708, Note_on_c, 2, 59, 0
12, 43708, Note_on_c, 2, 65, 120
12, 43708, Note_on_c, 2, 62, 120
12, 43708, Note_on_c, 2, 58, 120
12, 43708, Note_on_c, 2, 67, 120
12, 43948, Note_on_c, 2, 67, 0
12, 43948, Note_on_c, 2, 65, 0
12, 43948, Note_on_c, 2, 62, 0
12, 43948, Note_on_c, 2, 58, 0
12, 44008, Note_on_c, 2, 64, 120
12, 44008, Note_on_c, 2, 60, 120
12, 44008, Note_on_c, 2, 58, 120
12, 44008, Note_on_c, 2, 67, 120
12, 44108, Note_on_c, 2, 67, 0
12, 44108, Note_on_c, 2, 64, 0
12, 44108, Note_on_c, 2, 60, 0
12, 44108, Note_on_c, 2, 58, 0
12, 44128, Note_on_c, 2, 64, 120
12, 44128, Note_on_c, 2, 60, 120
12, 44128, Note_on_c, 2, 58, 120
12, 44128, Note_on_c, 2, 67, 120
12, 44164, Note_on_c, 2, 67, 0
12, 44164, Note_on_c, 2, 64, 0
12, 44164, Note_on_c, 2, 60, 0
12, 44164, Note_on_c, 2, 58, 0
12, 44188, Note_on_c, 2, 65, 120
12, 44188, Note_on_c, 2, 41, 120
12, 44188, Note_on_c, 2, 57, 120
12, 44188, Note_on_c, 2, 60, 120
12, 44352, Note_on_c, 2, 57, 0
12, 44355, Note_on_c, 2, 60, 0
12, 44356, Note_on_c, 2, 65, 0
12, 44368, Note_on_c, 2, 60, 120
12, 44368, Note_on_c, 2, 65, 120
12, 44368, Note_on_c, 2, 55, 120
12, 44638, Note_on_c, 2, 60, 0
12, 44641, Note_on_c, 2, 55, 0
12, 44643, Note_on_c, 2, 65, 0
12, 44656, Note_on_c, 2, 41, 0
12, 44668, Note_on_c, 2, 43, 120
12, 44668, Note_on_c, 2, 65, 120
12, 44668, Note_on_c, 2, 62, 120
12, 44668, Note_on_c, 2, 58, 120
12, 44668, Note_on_c, 2, 67, 120
12, 44804, Note_on_c, 2, 43, 0
12, 44848, Note_on_c, 2, 43, 120
12, 44871, Note_on_c, 2, 58, 0
12, 44871, Note_on_c, 2, 67, 0
12, 44871, Note_on_c, 2, 65, 0
12, 44871, Note_on_c, 2, 62, 0
12, 44891, Note_on_c, 2, 43, 0
12, 44908, Note_on_c, 2, 64, 120
12, 44908, Note_on_c, 2, 60, 120
12, 44908, Note_on_c, 2, 58, 120
12, 44908, Note_on_c, 2, 67, 120
12, 45065, Note_on_c, 2, 67, 0
12, 45065, Note_on_c, 2, 64, 0
12, 45065, Note_on_c, 2, 60, 0
12, 45065, Note_on_c, 2, 58, 0
12, 45088, Note_on_c, 2, 64, 120
12, 45088, Note_on_c, 2, 60, 120
12, 45088, Note_on_c, 2, 58, 120
12, 45088, Note_on_c, 2, 67, 120
12, 45128, Note_on_c, 2, 67, 0
12, 45128, Note_on_c, 2, 64, 0
12, 45128, Note_on_c, 2, 60, 0
12, 45128, Note_on_c, 2, 58, 0
12, 45148, Note_on_c, 2, 65, 120
12, 45148, Note_on_c, 2, 41, 120
12, 45148, Note_on_c, 2, 57, 120
12, 45148, Note_on_c, 2, 60, 120
12, 45312, Note_on_c, 2, 57, 0
12, 45315, Note_on_c, 2, 60, 0
12, 45316, Note_on_c, 2, 65, 0
12, 45328, Note_on_c, 2, 60, 120
12, 45328, Note_on_c, 2, 65, 120
12, 45328, Note_on_c, 2, 55, 120
12, 45598, Note_on_c, 2, 60, 0
12, 45601, Note_on_c, 2, 55, 0
12, 45603, Note_on_c, 2, 65, 0
12, 45616, Note_on_c, 2, 41, 0
12, 45628, Note_on_c, 2, 45, 120
12, 45628, Note_on_c, 2, 64, 120
12, 45628, Note_on_c, 2, 60, 120
12, 45628, Note_on_c, 2, 57, 120
12, 45764, Note_on_c, 2, 45, 0
12, 45808, Note_on_c, 2, 45, 120
12, 45831, Note_on_c, 2, 64, 0
12, 45831, Note_on_c, 2, 57, 0
12, 45831, Note_on_c, 2, 60, 0
12, 45851, Note_on_c, 2, 45, 0
12, 45928, Note_on_c, 2, 66, 120
12, 45928, Note_on_c, 2, 62, 120
12, 45928, Note_on_c, 2, 60, 120
12, 45928, Note_on_c, 2, 69, 120
12, 46028, Note_on_c, 2, 69, 0
12, 46028, Note_on_c, 2, 66, 0
12, 46028, Note_on_c, 2, 62, 0
12, 46028, Note_on_c, 2, 60, 0
12, 46048, Note_on_c, 2, 66, 120
12, 46048, Note_on_c, 2, 62, 120
12, 46048, Note_on_c, 2, 60, 120
12, 46048, Note_on_c, 2, 69, 120
12, 46084, Note_on_c, 2, 69, 0
12, 46084, Note_on_c, 2, 66, 0
12, 46084, Note_on_c, 2, 62, 0
12, 46084, Note_on_c, 2, 60, 0
12, 46108, Note_on_c, 2, 67, 120
12, 46108, Note_on_c, 2, 43, 120
12, 46108, Note_on_c, 2, 59, 120
12, 46108, Note_on_c, 2, 62, 120
12, 46272, Note_on_c, 2, 59, 0
12, 46275, Note_on_c, 2, 62, 0
12, 46276, Note_on_c, 2, 67, 0
12, 46288, Note_on_c, 2, 62, 120
12, 46288, Note_on_c, 2, 67, 120
12, 46288, Note_on_c, 2, 57, 120
12, 46558, Note_on_c, 2, 62, 0
12, 46561, Note_on_c, 2, 57, 0
12, 46563, Note_on_c, 2, 67, 0
12, 46576, Note_on_c, 2, 43, 0
12, 46588, Note_on_c, 2, 45, 120
12, 46588, Note_on_c, 2, 67, 120
12, 46588, Note_on_c, 2, 64, 120
12, 46588, Note_on_c, 2, 60, 120
12, 46588, Note_on_c, 2, 69, 120
12, 46724, Note_on_c, 2, 45, 0
12, 46768, Note_on_c, 2, 45, 120
12, 46791, Note_on_c, 2, 60, 0
12, 46791, Note_on_c, 2, 69, 0
12, 46791, Note_on_c, 2, 67, 0
12, 46791, Note_on_c, 2, 64, 0
12, 46811, Note_on_c, 2, 45, 0
12, 46828, Note_on_c, 2, 50, 120
12, 46828, Note_on_c, 2, 66, 120
12, 46828, Note_on_c, 2, 62, 120
12, 46828, Note_on_c, 2, 60, 120
12, 46828, Note_on_c, 2, 69, 120
12, 46964, Note_on_c, 2, 50, 0
12, 47008, Note_on_c, 2, 50, 120
12, 47031, Note_on_c, 2, 60, 0
12, 47031, Note_on_c, 2, 69, 0
12, 47031, Note_on_c, 2, 66, 0
12, 47031, Note_on_c, 2, 62, 0
12, 47051, Note_on_c, 2, 50, 0
12, 47068, Note_on_c, 2, 50, 120
12, 47068, Note_on_c, 2, 65, 120
12, 47068, Note_on_c, 2, 62, 120
12, 47068, Note_on_c, 2, 60, 120
12, 47068, Note_on_c, 2, 69, 120
12, 47204, Note_on_c, 2, 50, 0
12, 47248, Note_on_c, 2, 50, 120
12, 47271, Note_on_c, 2, 60, 0
12, 47271, Note_on_c, 2, 69, 0
12, 47271, Note_on_c, 2, 65, 0
12, 47271, Note_on_c, 2, 62, 0
12, 47291, Note_on_c, 2, 50, 0
12, 47308, Note_on_c, 2, 43, 120
12, 47308, Note_on_c, 2, 65, 120
12, 47308, Note_on_c, 2, 62, 120
12, 47308, Note_on_c, 2, 59, 120
12, 47308, Note_on_c, 2, 67, 120
12, 47444, Note_on_c, 2, 43, 0
12, 47488, Note_on_c, 2, 43, 120
12, 47511, Note_on_c, 2, 59, 0
12, 47511, Note_on_c, 2, 67, 0
12, 47511, Note_on_c, 2, 65, 0
12, 47511, Note_on_c, 2, 62, 0
12, 47531, Note_on_c, 2, 43, 0
12, 47608, Note_on_c, 2, 64, 120
12, 47608, Note_on_c, 2, 60, 120
12, 47608, Note_on_c, 2, 55, 120
12, 47708, Note_on_c, 2, 55, 0
12, 47708, Note_on_c, 2, 60, 0
12, 47708, Note_on_c, 2, 64, 0
12, 47728, Note_on_c, 2, 64, 120
12, 47728, Note_on_c, 2, 60, 120
12, 47728, Note_on_c, 2, 55, 120
12, 47764, Note_on_c, 2, 55, 0
12, 47764, Note_on_c, 2, 60, 0
12, 47764, Note_on_c, 2, 64, 0
12, 47788, Note_on_c, 2, 64, 120
12, 47788, Note_on_c, 2, 60, 120
12, 47788, Note_on_c, 2, 57, 120
12, 47945, Note_on_c, 2, 57, 0
12, 47945, Note_on_c, 2, 60, 0
12, 47945, Note_on_c, 2, 64, 0
12, 47968, Note_on_c, 2, 64, 120
12, 47968, Note_on_c, 2, 60, 120
12, 47968, Note_on_c, 2, 57, 120
12, 48008, Note_on_c, 2, 57, 0
12, 48008, Note_on_c, 2, 60, 0
12, 48008, Note_on_c, 2, 64, 0
12, 48028, Note_on_c, 2, 50, 120
12, 48028, Note_on_c, 2, 65, 120
12, 48028, Note_on_c, 2, 62, 120
12, 48028, Note_on_c, 2, 60, 120
12, 48028, Note_on_c, 2, 69, 120
12, 48164, Note_on_c, 2, 50, 0
12, 48208, Note_on_c, 2, 50, 120
12, 48231, Note_on_c, 2, 60, 0
12, 48231, Note_on_c, 2, 69, 0
12, 48231, Note_on_c, 2, 65, 0
12, 48231, Note_on_c, 2, 62, 0
12, 48251, Note_on_c, 2, 50, 0
12, 48268, Note_on_c, 2, 43, 120
12, 48268, Note_on_c, 2, 65, 120
12, 48268, Note_on_c, 2, 62, 120
12, 48268, Note_on_c, 2, 59, 120
12, 48268, Note_on_c, 2, 67, 120
12, 48404, Note_on_c, 2, 43, 0
12, 48448, Note_on_c, 2, 43, 120
12, 48471, Note_on_c, 2, 59, 0
12, 48471, Note_on_c, 2, 67, 0
12, 48471, Note_on_c, 2, 65, 0
12, 48471, Note_on_c, 2, 62, 0
12, 48491, Note_on_c, 2, 43, 0
12, 48508, Note_on_c, 2, 48, 120
12, 48508, Note_on_c, 2, 64, 120
12, 48508, Note_on_c, 2, 60, 120
12, 48508, Note_on_c, 2, 55, 120
12, 48644, Note_on_c, 2, 48, 0
12, 48688, Note_on_c, 2, 48, 120
12, 48711, Note_on_c, 2, 64, 0
12, 48711, Note_on_c, 2, 55, 0
12, 48711, Note_on_c, 2, 60, 0
12, 48731, Note_on_c, 2, 48, 0
12, 48808, Note_on_c, 2, 64, 120
12, 48808, Note_on_c, 2, 59, 120
12, 48808, Note_on_c, 2, 55, 120
12, 48908, Note_on_c, 2, 55, 0
12, 48908, Note_on_c, 2, 59, 0
12, 48908, Note_on_c, 2, 64, 0
12, 48928, Note_on_c, 2, 64, 120
12, 48928, Note_on_c, 2, 59, 120
12, 48928, Note_on_c, 2, 55, 120
12, 48964, Note_on_c, 2, 55, 0
12, 48964, Note_on_c, 2, 59, 0
12, 48964, Note_on_c, 2, 64, 0
12, 48988, Note_on_c, 2, 50, 120
12, 48988, Note_on_c, 2, 65, 120
12, 48988, Note_on_c, 2, 62, 120
12, 48988, Note_on_c, 2, 60, 120
12, 48988, Note_on_c, 2, 69, 120
12, 49124, Note_on_c, 2, 50, 0
12, 49168, Note_on_c, 2, 50, 120
12, 49191, Note_on_c, 2, 60, 0
12, 49191, Note_on_c, 2, 69, 0
12, 49191, Note_on_c, 2, 65, 0
12, 49191, Note_on_c, 2, 62, 0
12, 49211, Note_on_c, 2, 50, 0
12, 49228, Note_on_c, 2, 65, 120
12, 49228, Note_on_c, 2, 62, 120
12, 49228, Note_on_c, 2, 59, 120
12, 49228, Note_on_c, 2, 67, 120
12, 49385, Note_on_c, 2, 67, 0
12, 49385, Note_on_c, 2, 65, 0
12, 49385, Note_on_c, 2, 62, 0
12, 49385, Note_on_c, 2, 59, 0
12, 49408, Note_on_c, 2, 65, 120
12, 49408, Note_on_c, 2, 62, 120
12, 49408, Note_on_c, 2, 59, 120
12, 49408, Note_on_c, 2, 67, 120
12, 49448, Note_on_c, 2, 67, 0
12, 49448, Note_on_c, 2, 65, 0
12, 49448, Note_on_c, 2, 62, 0
12, 49448, Note_on_c, 2, 59, 0
12, 49468, Note_on_c, 2, 36, 120
12, 49468, Note_on_c, 2, 72, 120
12, 49604, Note_on_c, 2, 36, 0
12, 49648, Note_on_c, 2, 36, 120
12, 49671, Note_on_c, 2, 72, 0
12, 49691, Note_on_c, 2, 36, 0
12, 49708, Note_on_c, 2, 45, 120
12, 49708, Note_on_c, 2, 69, 120
12, 49844, Note_on_c, 2, 45, 0
12, 49888, Note_on_c, 2, 45, 120
12, 49911, Note_on_c, 2, 69, 0
12, 49931, Note_on_c, 2, 45, 0
12, 49948, Note_on_c, 2, 38, 120
12, 49948, Note_on_c, 2, 74, 120
12, 50084, Note_on_c, 2, 38, 0
12, 50128, Note_on_c, 2, 38, 120
12, 50151, Note_on_c, 2, 74, 0
12, 50171, Note_on_c, 2, 38, 0
12, 50188, Note_on_c, 2, 43, 120
12, 50188, Note_on_c, 2, 67, 120
12, 50324, Note_on_c, 2, 43, 0
12, 50368, Note_on_c, 2, 43, 120
12, 50391, Note_on_c, 2, 67, 0
12, 50411, Note_on_c, 2, 43, 0
12, 50428, Note_on_c, 2, 36, 120
12, 50428, Note_on_c, 2, 72, 120
12, 50564, Note_on_c, 2, 36, 0
12, 50608, Note_on_c, 2, 36, 120
12, 50631, Note_on_c, 2, 72, 0
12, 50651, Note_on_c, 2, 36, 0
12, 50651, End_track
13, 0, Start_track
13, 0, MIDI_port, 0
13, 0, Title_t, "Strings"
13, 0, Program_c, 6, 48
13, 0, Control_c, 6, 7, 52
13, 0, Control_c, 6, 10, 69
13, 0, Note_on_c, 6, 48, 52
13, 0, Note_on_c, 6, 52, 52
13, 0, Note_on_c, 6, 55, 52
13, 0, Note_on_c, 6, 60, 52
13, 0, Note_on_c, 6, 48, 52
13, 0, Note_on_c, 6, 52, 52
13, 4, Note_on_c, 6, 55, 52
13, 220, Note_on_c, 6, 52, 0
13, 220, Note_on_c, 6, 60, 0
13, 220, Note_on_c, 6, 52, 0
13, 220, Note_on_c, 6, 55, 0
13, 220, Note_on_c, 6, 48, 0
13, 220, Note_on_c, 6, 48, 0
13, 224, Note_on_c, 6, 55, 0
13, 240, Note_on_c, 6, 45, 52
13, 240, Note_on_c, 6, 48, 52
13, 240, Note_on_c, 6, 52, 52
13, 240, Note_on_c, 6, 57, 52
13, 240, Note_on_c, 6, 45, 52
13, 240, Note_on_c, 6, 48, 52
13, 244, Note_on_c, 6, 52, 52
13, 460, Note_on_c, 6, 48, 0
13, 460, Note_on_c, 6, 57, 0
13, 460, Note_on_c, 6, 48, 0
13, 460, Note_on_c, 6, 52, 0
13, 460, Note_on_c, 6, 45, 0
13, 460, Note_on_c, 6, 45, 0
13, 464, Note_on_c, 6, 52, 0
13, 480, Note_on_c, 6, 50, 53
13, 480, Note_on_c, 6, 50, 0
13, 480, Note_on_c, 6, 53, 53
13, 480, Note_on_c, 6, 53, 0
13, 480, Note_on_c, 6, 57, 53
13, 480, Note_on_c, 6, 57, 0
13, 480, Note_on_c, 6, 62, 53
13, 480, Note_on_c, 6, 62, 0
13, 480, Note_on_c, 6, 50, 53
13, 480, Note_on_c, 6, 53, 53
13, 484, Note_on_c, 6, 57, 53
13, 600, Note_on_c, 6, 57, 0
13, 600, Note_on_c, 6, 53, 0
13, 600, Note_on_c, 6, 50, 0
13, 724, Note_on_c, 6, 53, 53
13, 728, Note_on_c, 6, 56, 53
13, 731, Note_on_c, 6, 62, 53
13, 893, Note_on_c, 6, 62, 0
13, 898, Note_on_c, 6, 62, 53
13, 960, Note_on_c, 6, 62, 0
13, 960, Note_on_c, 6, 56, 0
13, 960, Note_on_c, 6, 53, 0
13, 960, Note_on_c, 6, 48, 54
13, 960, Note_on_c, 6, 48, 0
13, 960, Note_on_c, 6, 52, 54
13, 960, Note_on_c, 6, 52, 0
13, 960, Note_on_c, 6, 55, 54
13, 960, Note_on_c, 6, 55, 0
13, 960, Note_on_c, 6, 60, 54
13, 960, Note_on_c, 6, 60, 0
13, 960, Note_on_c, 6, 48, 54
13, 960, Note_on_c, 6, 52, 54
13, 964, Note_on_c, 6, 55, 54
13, 1080, Note_on_c, 6, 55, 0
13, 1080, Note_on_c, 6, 52, 0
13, 1080, Note_on_c, 6, 48, 0
13, 1200, Note_on_c, 6, 48, 54
13, 1200, Note_on_c, 6, 48, 0
13, 1200, Note_on_c, 6, 52, 54
13, 1200, Note_on_c, 6, 52, 0
13, 1200, Note_on_c, 6, 55, 54
13, 1200, Note_on_c, 6, 55, 0
13, 1200, Note_on_c, 6, 62, 54
13, 1200, Note_on_c, 6, 62, 0
13, 1200, Note_on_c, 6, 48, 54
13, 1200, Note_on_c, 6, 52, 54
13, 1204, Note_on_c, 6, 55, 54
13, 1320, Note_on_c, 6, 55, 0
13, 1320, Note_on_c, 6, 52, 0
13, 1320, Note_on_c, 6, 48, 0
13, 1440, Note_on_c, 6, 48, 120
13, 1440, Note_on_c, 6, 62, 120
13, 1500, Note_on_c, 6, 55, 120
13, 1620, Note_on_c, 6, 60, 120
13, 1662, Note_on_c, 6, 60, 0
13, 1680, Note_on_c, 6, 48, 0
13, 1680, Note_on_c, 6, 62, 0
13, 1680, Note_on_c, 6, 55, 0
13, 1680, Note_on_c, 6, 45, 120
13, 1680, Note_on_c, 6, 60, 120
13, 1740, Note_on_c, 6, 52, 120
13, 1800, Note_on_c, 6, 57, 120
13, 1845, Note_on_c, 6, 60, 0
13, 1860, Note_on_c, 6, 60, 120
13, 1910, Note_on_c, 6, 60, 0
13, 1915, Note_on_c, 6, 52, 0
13, 1916, Note_on_c, 6, 45, 0
13, 1916, Note_on_c, 6, 57, 0
13, 1920, Note_on_c, 6, 50, 120
13, 1920, Note_on_c, 6, 65, 120
13, 1980, Note_on_c, 6, 57, 120
13, 2100, Note_on_c, 6, 62, 120
13, 2135, Note_on_c, 6, 62, 0
13, 2144, Note_on_c, 6, 57, 0
13, 2159, Note_on_c, 6, 65, 0
13, 2160, Note_on_c, 6, 50, 0
13, 2160, Note_on_c, 6, 43, 120
13, 2160, Note_on_c, 6, 59, 120
13, 2220, Note_on_c, 6, 50, 120
13, 2280, Note_on_c, 6, 55, 120
13, 2325, Note_on_c, 6, 59, 0
13, 2340, Note_on_c, 6, 59, 120
13, 2390, Note_on_c, 6, 59, 0
13, 2395, Note_on_c, 6, 50, 0
13, 2396, Note_on_c, 6, 43, 0
13, 2396, Note_on_c, 6, 55, 0
13, 2400, Note_on_c, 6, 48, 120
13, 2400, Note_on_c, 6, 64, 120
13, 2460, Note_on_c, 6, 55, 120
13, 2520, Note_on_c, 6, 60, 120
13, 2565, Note_on_c, 6, 64, 0
13, 2580, Note_on_c, 6, 64, 120
13, 2630, Note_on_c, 6, 64, 0
13, 2635, Note_on_c, 6, 55, 0
13, 2636, Note_on_c, 6, 48, 0
13, 2636, Note_on_c, 6, 60, 0
13, 2640, Note_on_c, 6, 52, 120
13, 2640, Note_on_c, 6, 67, 120
13, 2700, Note_on_c, 6, 59, 120
13, 2820, Note_on_c, 6, 64, 120
13, 2855, Note_on_c, 6, 64, 0
13, 2864, Note_on_c, 6, 59, 0
13, 2879, Note_on_c, 6, 67, 0
13, 2880, Note_on_c, 6, 52, 0
13, 2880, Note_on_c, 6, 50, 120
13, 2880, Note_on_c, 6, 65, 120
13, 2940, Note_on_c, 6, 57, 120
13, 3060, Note_on_c, 6, 62, 120
13, 3095, Note_on_c, 6, 62, 0
13, 3104, Note_on_c, 6, 57, 0
13, 3119, Note_on_c, 6, 65, 0
13, 3120, Note_on_c, 6, 50, 0
13, 3120, Note_on_c, 6, 43, 120
13, 3120, Note_on_c, 6, 59, 120
13, 3180, Note_on_c, 6, 50, 120
13, 3240, Note_on_c, 6, 55, 120
13, 3285, Note_on_c, 6, 59, 0
13, 3300, Note_on_c, 6, 59, 120
13, 3350, Note_on_c, 6, 59, 0
13, 3355, Note_on_c, 6, 50, 0
13, 3356, Note_on_c, 6, 43, 0
13, 3356, Note_on_c, 6, 55, 0
13, 3360, Note_on_c, 6, 48, 120
13, 3360, Note_on_c, 6, 62, 120
13, 3420, Note_on_c, 6, 55, 120
13, 3540, Note_on_c, 6, 60, 120
13, 3582, Note_on_c, 6, 60, 0
13, 3600, Note_on_c, 6, 48, 0
13, 3600, Note_on_c, 6, 62, 0
13, 3600, Note_on_c, 6, 55, 0
13, 3600, Note_on_c, 6, 45, 120
13, 3600, Note_on_c, 6, 60, 120
13, 3660, Note_on_c, 6, 52, 120
13, 3780, Note_on_c, 6, 57, 120
13, 3815, Note_on_c, 6, 57, 0
13, 3824, Note_on_c, 6, 52, 0
13, 3839, Note_on_c, 6, 60, 0
13, 3840, Note_on_c, 6, 45, 0
13, 3840, Note_on_c, 6, 50, 120
13, 3840, Note_on_c, 6, 65, 120
13, 3900, Note_on_c, 6, 57, 120
13, 3960, Note_on_c, 6, 62, 120
13, 4005, Note_on_c, 6, 65, 0
13, 4020, Note_on_c, 6, 65, 120
13, 4070, Note_on_c, 6, 65, 0
13, 4075, Note_on_c, 6, 57, 0
13, 4076, Note_on_c, 6, 50, 0
13, 4076, Note_on_c, 6, 62, 0
13, 4080, Note_on_c, 6, 43, 120
13, 4080, Note_on_c, 6, 59, 120
13, 4140, Note_on_c, 6, 50, 120
13, 4200, Note_on_c, 6, 55, 120
13, 4245, Note_on_c, 6, 59, 0
13, 4260, Note_on_c, 6, 59, 120
13, 4310, Note_on_c, 6, 59, 0
13, 4315, Note_on_c, 6, 50, 0
13, 4316, Note_on_c, 6, 43, 0
13, 4316, Note_on_c, 6, 55, 0
13, 4320, Note_on_c, 6, 48, 120
13, 4320, Note_on_c, 6, 64, 120
13, 4380, Note_on_c, 6, 55, 120
13, 4440, Note_on_c, 6, 60, 120
13, 4485, Note_on_c, 6, 64, 0
13, 4500, Note_on_c, 6, 64, 120
13, 4550, Note_on_c, 6, 64, 0
13, 4555, Note_on_c, 6, 55, 0
13, 4556, Note_on_c, 6, 48, 0
13, 4556, Note_on_c, 6, 60, 0
13, 4560, Note_on_c, 6, 52, 120
13, 4560, Note_on_c, 6, 67, 120
13, 4620, Note_on_c, 6, 59, 120
13, 4680, Note_on_c, 6, 64, 120
13, 4725, Note_on_c, 6, 67, 0
13, 4740, Note_on_c, 6, 67, 120
13, 4790, Note_on_c, 6, 67, 0
13, 4795, Note_on_c, 6, 59, 0
13, 4796, Note_on_c, 6, 52, 0
13, 4796, Note_on_c, 6, 64, 0
13, 4800, Note_on_c, 6, 50, 120
13, 4800, Note_on_c, 6, 65, 120
13, 4860, Note_on_c, 6, 57, 120
13, 4980, Note_on_c, 6, 62, 120
13, 5015, Note_on_c, 6, 62, 0
13, 5024, Note_on_c, 6, 57, 0
13, 5039, Note_on_c, 6, 65, 0
13, 5040, Note_on_c, 6, 50, 0
13, 5040, Note_on_c, 6, 43, 120
13, 5040, Note_on_c, 6, 59, 120
13, 5100, Note_on_c, 6, 50, 120
13, 5220, Note_on_c, 6, 55, 120
13, 5255, Note_on_c, 6, 55, 0
13, 5264, Note_on_c, 6, 50, 0
13, 5279, Note_on_c, 6, 59, 0
13, 5280, Note_on_c, 6, 43, 0
13, 5280, Note_on_c, 6, 43, 120
13, 5280, Note_on_c, 6, 58, 120
13, 5340, Note_on_c, 6, 50, 120
13, 5460, Note_on_c, 6, 55, 120
13, 5495, Note_on_c, 6, 55, 0
13, 5504, Note_on_c, 6, 50, 0
13, 5519, Note_on_c, 6, 58, 0
13, 5520, Note_on_c, 6, 43, 0
13, 5520, Note_on_c, 6, 48, 120
13, 5520, Note_on_c, 6, 64, 120
13, 5580, Note_on_c, 6, 55, 120
13, 5640, Note_on_c, 6, 60, 120
13, 5685, Note_on_c, 6, 64, 0
13, 5700, Note_on_c, 6, 64, 120
13, 5750, Note_on_c, 6, 64, 0
13, 5755, Note_on_c, 6, 55, 0
13, 5756, Note_on_c, 6, 48, 0
13, 5756, Note_on_c, 6, 60, 0
13, 5760, Note_on_c, 6, 69, 120
13, 5760, Note_on_c, 6, 53, 120
13, 5820, Note_on_c, 6, 60, 120
13, 5880, Note_on_c, 6, 65, 120
13, 5898, Note_on_c, 6, 69, 0
13, 5940, Note_on_c, 6, 69, 120
13, 6010, Note_on_c, 6, 60, 0
13, 6060, Note_on_c, 6, 60, 120
13, 6079, Note_on_c, 6, 65, 0
13, 6120, Note_on_c, 6, 65, 120
13, 6174, Note_on_c, 6, 65, 0
13, 6191, Note_on_c, 6, 60, 0
13, 6192, Note_on_c, 6, 53, 0
13, 6200, Note_on_c, 6, 69, 0
13, 6240, Note_on_c, 6, 43, 120
13, 6240, Note_on_c, 6, 58, 120
13, 6300, Note_on_c, 6, 50, 120
13, 6360, Note_on_c, 6, 55, 120
13, 6405, Note_on_c, 6, 58, 0
13, 6420, Note_on_c, 6, 58, 120
13, 6470, Note_on_c, 6, 58, 0
13, 6475, Note_on_c, 6, 50, 0
13, 6476, Note_on_c, 6, 43, 0
13, 6476, Note_on_c, 6, 55, 0
13, 6480, Note_on_c, 6, 48, 120
13, 6480, Note_on_c, 6, 64, 120
13, 6540, Note_on_c, 6, 55, 120
13, 6600, Note_on_c, 6, 60, 120
13, 6645, Note_on_c, 6, 64, 0
13, 6660, Note_on_c, 6, 64, 120
13, 6710, Note_on_c, 6, 64, 0
13, 6715, Note_on_c, 6, 55, 0
13, 6716, Note_on_c, 6, 48, 0
13, 6716, Note_on_c, 6, 60, 0
13, 6783, Note_on_c, 6, 53, 120
13, 6811, Note_on_c, 6, 60, 120
13, 6844, Note_on_c, 6, 65, 120
13, 6902, Note_on_c, 6, 67, 120
13, 6950, Note_on_c, 6, 67, 0
13, 6956, Note_on_c, 6, 69, 120
13, 7015, Note_on_c, 6, 67, 120
13, 7028, Note_on_c, 6, 69, 0
13, 7050, Note_on_c, 6, 65, 0
13, 7081, Note_on_c, 6, 65, 120
13, 7087, Note_on_c, 6, 67, 0
13, 7106, Note_on_c, 6, 60, 0
13, 7147, Note_on_c, 6, 60, 120
13, 7182, Note_on_c, 6, 65, 0
13, 7200, Note_on_c, 6, 60, 0
13, 7200, Note_on_c, 6, 53, 0
13, 7200, Note_on_c, 6, 45, 120
13, 7200, Note_on_c, 6, 60, 120
13, 7260, Note_on_c, 6, 52, 120
13, 7320, Note_on_c, 6, 57, 120
13, 7365, Note_on_c, 6, 60, 0
13, 7380, Note_on_c, 6, 60, 120
13, 7430, Note_on_c, 6, 60, 0
13, 7435, Note_on_c, 6, 52, 0
13, 7436, Note_on_c, 6, 45, 0
13, 7436, Note_on_c, 6, 57, 0
13, 7440, Note_on_c, 6, 50, 120
13, 7440, Note_on_c, 6, 66, 120
13, 7500, Note_on_c, 6, 57, 120
13, 7620, Note_on_c, 6, 62, 120
13, 7655, Note_on_c, 6, 62, 0
13, 7664, Note_on_c, 6, 57, 0
13, 7679, Note_on_c, 6, 66, 0
13, 7680, Note_on_c, 6, 50, 0
13, 7680, Note_on_c, 6, 59, 120
13, 7680, Note_on_c, 6, 43, 120
13, 7740, Note_on_c, 6, 50, 120
13, 7794, Note_on_c, 6, 59, 0
13, 7800, Note_on_c, 6, 55, 120
13, 7860, Note_on_c, 6, 57, 120
13, 7944, Note_on_c, 6, 57, 0
13, 7980, Note_on_c, 6, 59, 120
13, 8125, Note_on_c, 6, 59, 0
13, 8126, Note_on_c, 6, 55, 0
13, 8126, Note_on_c, 6, 50, 0
13, 8138, Note_on_c, 6, 43, 0
13, 8160, Note_on_c, 6, 45, 120
13, 8160, Note_on_c, 6, 60, 120
13, 8220, Note_on_c, 6, 52, 120
13, 8280, Note_on_c, 6, 57, 120
13, 8325, Note_on_c, 6, 60, 0
13, 8340, Note_on_c, 6, 60, 120
13, 8390, Note_on_c, 6, 60, 0
13, 8395, Note_on_c, 6, 52, 0
13, 8396, Note_on_c, 6, 45, 0
13, 8396, Note_on_c, 6, 57, 0
13, 8400, Note_on_c, 6, 50, 120
13, 8400, Note_on_c, 6, 66, 120
13, 8460, Note_on_c, 6, 57, 120
13, 8580, Note_on_c, 6, 62, 120
13, 8615, Note_on_c, 6, 62, 0
13, 8624, Note_on_c, 6, 57, 0
13, 8639, Note_on_c, 6, 66, 0
13, 8640, Note_on_c, 6, 50, 0
13, 8640, Note_on_c, 6, 50, 120
13, 8640, Note_on_c, 6, 65, 120
13, 8700, Note_on_c, 6, 57, 120
13, 8760, Note_on_c, 6, 62, 120
13, 8805, Note_on_c, 6, 65, 0
13, 8820, Note_on_c, 6, 65, 120
13, 8870, Note_on_c, 6, 65, 0
13, 8875, Note_on_c, 6, 57, 0
13, 8876, Note_on_c, 6, 50, 0
13, 8876, Note_on_c, 6, 62, 0
13, 8880, Note_on_c, 6, 43, 120
13, 8880, Note_on_c, 6, 59, 120
13, 8940, Note_on_c, 6, 50, 120
13, 9060, Note_on_c, 6, 55, 120
13, 9095, Note_on_c, 6, 55, 0
13, 9104, Note_on_c, 6, 50, 0
13, 9119, Note_on_c, 6, 59, 0
13, 9120, Note_on_c, 6, 43, 0
13, 9120, Note_on_c, 6, 48, 120
13, 9120, Note_on_c, 6, 64, 120
13, 9180, Note_on_c, 6, 55, 120
13, 9300, Note_on_c, 6, 60, 120
13, 9335, Note_on_c, 6, 60, 0
13, 9344, Note_on_c, 6, 55, 0
13, 9359, Note_on_c, 6, 64, 0
13, 9360, Note_on_c, 6, 48, 0
13, 9360, Note_on_c, 6, 45, 120
13, 9360, Note_on_c, 6, 60, 120
13, 9420, Note_on_c, 6, 52, 120
13, 9480, Note_on_c, 6, 57, 120
13, 9525, Note_on_c, 6, 60, 0
13, 9540, Note_on_c, 6, 60, 120
13, 9590, Note_on_c, 6, 60, 0
13, 9595, Note_on_c, 6, 52, 0
13, 9596, Note_on_c, 6, 45, 0
13, 9596, Note_on_c, 6, 57, 0
13, 9600, Note_on_c, 6, 50, 120
13, 9600, Note_on_c, 6, 65, 120
13, 9660, Note_on_c, 6, 57, 120
13, 9720, Note_on_c, 6, 62, 120
13, 9765, Note_on_c, 6, 65, 0
13, 9780, Note_on_c, 6, 65, 120
13, 9830, Note_on_c, 6, 65, 0
13, 9835, Note_on_c, 6, 57, 0
13, 9836, Note_on_c, 6, 50, 0
13, 9836, Note_on_c, 6, 62, 0
13, 9840, Note_on_c, 6, 43, 120
13, 9840, Note_on_c, 6, 59, 120
13, 9900, Note_on_c, 6, 50, 120
13, 9960, Note_on_c, 6, 55, 120
13, 10005, Note_on_c, 6, 59, 0
13, 10020, Note_on_c, 6, 59, 120
13, 10070, Note_on_c, 6, 59, 0
13, 10075, Note_on_c, 6, 50, 0
13, 10076, Note_on_c, 6, 43, 0
13, 10076, Note_on_c, 6, 55, 0
13, 10080, Note_on_c, 6, 48, 120
13, 10080, Note_on_c, 6, 62, 120
13, 10140, Note_on_c, 6, 55, 120
13, 10260, Note_on_c, 6, 60, 120
13, 10302, Note_on_c, 6, 60, 0
13, 10320, Note_on_c, 6, 48, 0
13, 10320, Note_on_c, 6, 62, 0
13, 10320, Note_on_c, 6, 55, 0
13, 10320, Note_on_c, 6, 52, 120
13, 10320, Note_on_c, 6, 67, 120
13, 10380, Note_on_c, 6, 59, 120
13, 10440, Note_on_c, 6, 64, 120
13, 10485, Note_on_c, 6, 67, 0
13, 10500, Note_on_c, 6, 67, 120
13, 10550, Note_on_c, 6, 67, 0
13, 10555, Note_on_c, 6, 59, 0
13, 10556, Note_on_c, 6, 52, 0
13, 10556, Note_on_c, 6, 64, 0
13, 10560, Note_on_c, 6, 50, 120
13, 10560, Note_on_c, 6, 65, 120
13, 10620, Note_on_c, 6, 57, 120
13, 10740, Note_on_c, 6, 62, 120
13, 10775, Note_on_c, 6, 62, 0
13, 10784, Note_on_c, 6, 57, 0
13, 10799, Note_on_c, 6, 65, 0
13, 10800, Note_on_c, 6, 50, 0
13, 10800, Note_on_c, 6, 43, 120
13, 10800, Note_on_c, 6, 59, 120
13, 10860, Note_on_c, 6, 50, 120
13, 10980, Note_on_c, 6, 55, 120
13, 11015, Note_on_c, 6, 55, 0
13, 11024, Note_on_c, 6, 50, 0
13, 11039, Note_on_c, 6, 59, 0
13, 11040, Note_on_c, 6, 43, 0
13, 11044, Note_on_c, 6, 52, 120
13, 11048, Note_on_c, 6, 55, 120
13, 11051, Note_on_c, 6, 60, 120
13, 11213, Note_on_c, 6, 60, 0
13, 11218, Note_on_c, 6, 60, 120
13, 11280, Note_on_c, 6, 60, 0
13, 11280, Note_on_c, 6, 55, 0
13, 11280, Note_on_c, 6, 52, 0
13, 11284, Note_on_c, 6, 48, 120
13, 11288, Note_on_c, 6, 52, 120
13, 11291, Note_on_c, 6, 57, 120
13, 11453, Note_on_c, 6, 57, 0
13, 11458, Note_on_c, 6, 57, 120
13, 11520, Note_on_c, 6, 57, 0
13, 11520, Note_on_c, 6, 52, 0
13, 11520, Note_on_c, 6, 48, 0
13, 11524, Note_on_c, 6, 53, 120
13, 11529, Note_on_c, 6, 57, 120
13, 11703, Note_on_c, 6, 62, 120
13, 11705, Note_on_c, 6, 57, 0
13, 11709, Note_on_c, 6, 57, 120
13, 11760, Note_on_c, 6, 57, 0
13, 11760, Note_on_c, 6, 62, 0
13, 11760, Note_on_c, 6, 53, 0
13, 11764, Note_on_c, 6, 47, 120
13, 11768, Note_on_c, 6, 50, 120
13, 11771, Note_on_c, 6, 55, 120
13, 11933, Note_on_c, 6, 55, 0
13, 11938, Note_on_c, 6, 55, 120
13, 12000, Note_on_c, 6, 55, 0
13, 12000, Note_on_c, 6, 50, 0
13, 12000, Note_on_c, 6, 47, 0
13, 12004, Note_on_c, 6, 52, 120
13, 12008, Note_on_c, 6, 55, 120
13, 12011, Note_on_c, 6, 60, 120
13, 12173, Note_on_c, 6, 60, 0
13, 12178, Note_on_c, 6, 60, 120
13, 12240, Note_on_c, 6, 60, 0
13, 12240, Note_on_c, 6, 55, 0
13, 12240, Note_on_c, 6, 52, 0
13, 12244, Note_on_c, 6, 55, 120
13, 12248, Note_on_c, 6, 59, 120
13, 12251, Note_on_c, 6, 64, 120
13, 12413, Note_on_c, 6, 64, 0
13, 12418, Note_on_c, 6, 64, 120
13, 12480, Note_on_c, 6, 64, 0
13, 12480, Note_on_c, 6, 59, 0
13, 12480, Note_on_c, 6, 55, 0
13, 12484, Note_on_c, 6, 53, 120
13, 12488, Note_on_c, 6, 57, 120
13, 12491, Note_on_c, 6, 62, 120
13, 12653, Note_on_c, 6, 62, 0
13, 12658, Note_on_c, 6, 62, 120
13, 12720, Note_on_c, 6, 62, 0
13, 12720, Note_on_c, 6, 57, 0
13, 12720, Note_on_c, 6, 53, 0
13, 12724, Note_on_c, 6, 47, 120
13, 12729, Note_on_c, 6, 50, 120
13, 12903, Note_on_c, 6, 55, 120
13, 12905, Note_on_c, 6, 50, 0
13, 12909, Note_on_c, 6, 50, 120
13, 12960, Note_on_c, 6, 50, 0
13, 12960, Note_on_c, 6, 55, 0
13, 12960, Note_on_c, 6, 47, 0
13, 12964, Note_on_c, 6, 52, 120
13, 12968, Note_on_c, 6, 55, 120
13, 12971, Note_on_c, 6, 60, 120
13, 13133, Note_on_c, 6, 60, 0
13, 13138, Note_on_c, 6, 60, 120
13, 13200, Note_on_c, 6, 60, 0
13, 13200, Note_on_c, 6, 55, 0
13, 13200, Note_on_c, 6, 52, 0
13, 13204, Note_on_c, 6, 48, 120
13, 13208, Note_on_c, 6, 52, 120
13, 13211, Note_on_c, 6, 57, 120
13, 13373, Note_on_c, 6, 57, 0
13, 13378, Note_on_c, 6, 57, 120
13, 13440, Note_on_c, 6, 57, 0
13, 13440, Note_on_c, 6, 52, 0
13, 13440, Note_on_c, 6, 48, 0
13, 13444, Note_on_c, 6, 53, 120
13, 13448, Note_on_c, 6, 57, 120
13, 13451, Note_on_c, 6, 62, 120
13, 13613, Note_on_c, 6, 62, 0
13, 13618, Note_on_c, 6, 62, 120
13, 13680, Note_on_c, 6, 62, 0
13, 13680, Note_on_c, 6, 57, 0
13, 13680, Note_on_c, 6, 53, 0
13, 13684, Note_on_c, 6, 47, 120
13, 13688, Note_on_c, 6, 50, 120
13, 13691, Note_on_c, 6, 55, 120
13, 13853, Note_on_c, 6, 55, 0
13, 13858, Note_on_c, 6, 55, 120
13, 13920, Note_on_c, 6, 55, 0
13, 13920, Note_on_c, 6, 50, 0
13, 13920, Note_on_c, 6, 47, 0
13, 13924, Note_on_c, 6, 52, 120
13, 13929, Note_on_c, 6, 55, 120
13, 14103, Note_on_c, 6, 60, 120
13, 14105, Note_on_c, 6, 55, 0
13, 14109, Note_on_c, 6, 55, 120
13, 14160, Note_on_c, 6, 55, 0
13, 14160, Note_on_c, 6, 60, 0
13, 14160, Note_on_c, 6, 52, 0
13, 14164, Note_on_c, 6, 55, 120
13, 14169, Note_on_c, 6, 59, 120
13, 14343, Note_on_c, 6, 64, 120
13, 14345, Note_on_c, 6, 59, 0
13, 14349, Note_on_c, 6, 59, 120
13, 14400, Note_on_c, 6, 59, 0
13, 14400, Note_on_c, 6, 64, 0
13, 14400, Note_on_c, 6, 55, 0
13, 14404, Note_on_c, 6, 53, 120
13, 14409, Note_on_c, 6, 57, 120
13, 14583, Note_on_c, 6, 62, 120
13, 14585, Note_on_c, 6, 57, 0
13, 14589, Note_on_c, 6, 57, 120
13, 14640, Note_on_c, 6, 57, 0
13, 14640, Note_on_c, 6, 62, 0
13, 14640, Note_on_c, 6, 53, 0
13, 14644, Note_on_c, 6, 47, 120
13, 14649, Note_on_c, 6, 50, 120
13, 14823, Note_on_c, 6, 55, 120
13, 14825, Note_on_c, 6, 50, 0
13, 14829, Note_on_c, 6, 50, 120
13, 14880, Note_on_c, 6, 50, 0
13, 14880, Note_on_c, 6, 55, 0
13, 14880, Note_on_c, 6, 47, 0
13, 14884, Note_on_c, 6, 46, 120
13, 14889, Note_on_c, 6, 50, 120
13, 15063, Note_on_c, 6, 55, 120
13, 15065, Note_on_c, 6, 50, 0
13, 15069, Note_on_c, 6, 50, 120
13, 15120, Note_on_c, 6, 50, 0
13, 15120, Note_on_c, 6, 55, 0
13, 15120, Note_on_c, 6, 46, 0
13, 15124, Note_on_c, 6, 52, 120
13, 15128, Note_on_c, 6, 55, 120
13, 15131, Note_on_c, 6, 60, 120
13, 15293, Note_on_c, 6, 60, 0
13, 15298, Note_on_c, 6, 60, 120
13, 15360, Note_on_c, 6, 60, 0
13, 15360, Note_on_c, 6, 55, 0
13, 15360, Note_on_c, 6, 52, 0
13, 15362, Note_on_c, 6, 57, 120
13, 15364, Note_on_c, 6, 60, 120
13, 15542, Note_on_c, 6, 65, 120
13, 15656, Note_on_c, 6, 60, 0
13, 15657, Note_on_c, 6, 60, 120
13, 15714, Note_on_c, 6, 57, 0
13, 15719, Note_on_c, 6, 57, 120
13, 15721, Note_on_c, 6, 60, 0
13, 15724, Note_on_c, 6, 60, 120
13, 15777, Note_on_c, 6, 65, 0
13, 15781, Note_on_c, 6, 65, 120
13, 15840, Note_on_c, 6, 65, 0
13, 15840, Note_on_c, 6, 60, 0
13, 15840, Note_on_c, 6, 57, 0
13, 15844, Note_on_c, 6, 46, 120
13, 15849, Note_on_c, 6, 50, 120
13, 16023, Note_on_c, 6, 55, 120
13, 16025, Note_on_c, 6, 50, 0
13, 16029, Note_on_c, 6, 50, 120
13, 16080, Note_on_c, 6, 50, 0
13, 16080, Note_on_c, 6, 55, 0
13, 16080, Note_on_c, 6, 46, 0
13, 16084, Note_on_c, 6, 52, 120
13, 16089, Note_on_c, 6, 55, 120
13, 16263, Note_on_c, 6, 60, 120
13, 16265, Note_on_c, 6, 55, 0
13, 16269, Note_on_c, 6, 55, 120
13, 16320, Note_on_c, 6, 55, 0
13, 16320, Note_on_c, 6, 60, 0
13, 16320, Note_on_c, 6, 52, 0
13, 16330, Note_on_c, 6, 57, 120
13, 16332, Note_on_c, 6, 60, 120
13, 16504, Note_on_c, 6, 60, 0
13, 16504, Note_on_c, 6, 65, 120
13, 16508, Note_on_c, 6, 60, 120
13, 16612, Note_on_c, 6, 60, 0
13, 16620, Note_on_c, 6, 60, 120
13, 16678, Note_on_c, 6, 60, 0
13, 16683, Note_on_c, 6, 60, 120
13, 16742, Note_on_c, 6, 65, 0
13, 16746, Note_on_c, 6, 65, 120
13, 16800, Note_on_c, 6, 65, 0
13, 16800, Note_on_c, 6, 60, 0
13, 16800, Note_on_c, 6, 57, 0
13, 16804, Note_on_c, 6, 48, 120
13, 16808, Note_on_c, 6, 52, 120
13, 16811, Note_on_c, 6, 57, 120
13, 16973, Note_on_c, 6, 57, 0
13, 16978, Note_on_c, 6, 57, 120
13, 17040, Note_on_c, 6, 57, 0
13, 17040, Note_on_c, 6, 52, 0
13, 17040, Note_on_c, 6, 48, 0
13, 17044, Note_on_c, 6, 54, 120
13, 17048, Note_on_c, 6, 57, 120
13, 17051, Note_on_c, 6, 62, 120
13, 17213, Note_on_c, 6, 62, 0
13, 17218, Note_on_c, 6, 62, 120
13, 17280, Note_on_c, 6, 62, 0
13, 17280, Note_on_c, 6, 57, 0
13, 17280, Note_on_c, 6, 54, 0
13, 17290, Note_on_c, 6, 47, 120
13, 17292, Note_on_c, 6, 50, 120
13, 17464, Note_on_c, 6, 50, 0
13, 17464, Note_on_c, 6, 55, 120
13, 17468, Note_on_c, 6, 50, 120
13, 17572, Note_on_c, 6, 50, 0
13, 17580, Note_on_c, 6, 50, 120
13, 17638, Note_on_c, 6, 50, 0
13, 17643, Note_on_c, 6, 50, 120
13, 17702, Note_on_c, 6, 55, 0
13, 17706, Note_on_c, 6, 55, 120
13, 17760, Note_on_c, 6, 55, 0
13, 17760, Note_on_c, 6, 50, 0
13, 17760, Note_on_c, 6, 47, 0
13, 17764, Note_on_c, 6, 48, 120
13, 17768, Note_on_c, 6, 52, 120
13, 17771, Note_on_c, 6, 57, 120
13, 17933, Note_on_c, 6, 57, 0
13, 17938, Note_on_c, 6, 57, 120
13, 18000, Note_on_c, 6, 57, 0
13, 18000, Note_on_c, 6, 52, 0
13, 18000, Note_on_c, 6, 48, 0
13, 18004, Note_on_c, 6, 54, 120
13, 18008, Note_on_c, 6, 57, 120
13, 18011, Note_on_c, 6, 62, 120
13, 18173, Note_on_c, 6, 62, 0
13, 18178, Note_on_c, 6, 62, 120
13, 18240, Note_on_c, 6, 62, 0
13, 18240, Note_on_c, 6, 57, 0
13, 18240, Note_on_c, 6, 54, 0
13, 18244, Note_on_c, 6, 53, 120
13, 18249, Note_on_c, 6, 57, 120
13, 18423, Note_on_c, 6, 62, 120
13, 18425, Note_on_c, 6, 57, 0
13, 18429, Note_on_c, 6, 57, 120
13, 18480, Note_on_c, 6, 57, 0
13, 18480, Note_on_c, 6, 62, 0
13, 18480, Note_on_c, 6, 53, 0
13, 18484, Note_on_c, 6, 47, 120
13, 18489, Note_on_c, 6, 50, 120
13, 18663, Note_on_c, 6, 55, 120
13, 18665, Note_on_c, 6, 50, 0
13, 18669, Note_on_c, 6, 50, 120
13, 18720, Note_on_c, 6, 50, 0
13, 18720, Note_on_c, 6, 55, 0
13, 18720, Note_on_c, 6, 47, 0
13, 18724, Note_on_c, 6, 52, 120
13, 18728, Note_on_c, 6, 55, 120
13, 18731, Note_on_c, 6, 60, 120
13, 18893, Note_on_c, 6, 60, 0
13, 18898, Note_on_c, 6, 60, 120
13, 18960, Note_on_c, 6, 60, 0
13, 18960, Note_on_c, 6, 55, 0
13, 18960, Note_on_c, 6, 52, 0
13, 18964, Note_on_c, 6, 48, 120
13, 18969, Note_on_c, 6, 52, 120
13, 19143, Note_on_c, 6, 57, 120
13, 19145, Note_on_c, 6, 52, 0
13, 19149, Note_on_c, 6, 52, 120
13, 19200, Note_on_c, 6, 52, 0
13, 19200, Note_on_c, 6, 57, 0
13, 19200, Note_on_c, 6, 48, 0
13, 19204, Note_on_c, 6, 53, 120
13, 19208, Note_on_c, 6, 57, 120
13, 19211, Note_on_c, 6, 62, 120
13, 19373, Note_on_c, 6, 62, 0
13, 19378, Note_on_c, 6, 62, 120
13, 19440, Note_on_c, 6, 62, 0
13, 19440, Note_on_c, 6, 57, 0
13, 19440, Note_on_c, 6, 53, 0
13, 19444, Note_on_c, 6, 47, 120
13, 19448, Note_on_c, 6, 50, 120
13, 19451, Note_on_c, 6, 55, 120
13, 19613, Note_on_c, 6, 55, 0
13, 19618, Note_on_c, 6, 55, 120
13, 19680, Note_on_c, 6, 55, 0
13, 19680, Note_on_c, 6, 50, 0
13, 19680, Note_on_c, 6, 47, 0
13, 19684, Note_on_c, 6, 52, 120
13, 19689, Note_on_c, 6, 55, 120
13, 19863, Note_on_c, 6, 60, 120
13, 19865, Note_on_c, 6, 55, 0
13, 19869, Note_on_c, 6, 55, 120
13, 19920, Note_on_c, 6, 55, 0
13, 19920, Note_on_c, 6, 60, 0
13, 19920, Note_on_c, 6, 52, 0
13, 19924, Note_on_c, 6, 55, 120
13, 19929, Note_on_c, 6, 59, 120
13, 20103, Note_on_c, 6, 64, 120
13, 20105, Note_on_c, 6, 59, 0
13, 20109, Note_on_c, 6, 59, 120
13, 20160, Note_on_c, 6, 59, 0
13, 20160, Note_on_c, 6, 64, 0
13, 20160, Note_on_c, 6, 55, 0
13, 20164, Note_on_c, 6, 53, 120
13, 20169, Note_on_c, 6, 57, 120
13, 20343, Note_on_c, 6, 62, 120
13, 20345, Note_on_c, 6, 57, 0
13, 20349, Note_on_c, 6, 57, 120
13, 20400, Note_on_c, 6, 57, 0
13, 20400, Note_on_c, 6, 62, 0
13, 20400, Note_on_c, 6, 53, 0
13, 20404, Note_on_c, 6, 47, 120
13, 20408, Note_on_c, 6, 50, 120
13, 20411, Note_on_c, 6, 55, 120
13, 20573, Note_on_c, 6, 55, 0
13, 20578, Note_on_c, 6, 55, 120
13, 20640, Note_on_c, 6, 55, 0
13, 20640, Note_on_c, 6, 50, 0
13, 20640, Note_on_c, 6, 47, 0
13, 20644, Note_on_c, 6, 52, 120
13, 20648, Note_on_c, 6, 55, 120
13, 20651, Note_on_c, 6, 60, 120
13, 20813, Note_on_c, 6, 60, 0
13, 20818, Note_on_c, 6, 60, 120
13, 20880, Note_on_c, 6, 60, 0
13, 20880, Note_on_c, 6, 55, 0
13, 20880, Note_on_c, 6, 52, 0
13, 20884, Note_on_c, 6, 48, 120
13, 20889, Note_on_c, 6, 52, 120
13, 21063, Note_on_c, 6, 57, 120
13, 21065, Note_on_c, 6, 52, 0
13, 21069, Note_on_c, 6, 52, 120
13, 21120, Note_on_c, 6, 52, 0
13, 21120, Note_on_c, 6, 57, 0
13, 21120, Note_on_c, 6, 48, 0
13, 21124, Note_on_c, 6, 53, 120
13, 21128, Note_on_c, 6, 57, 120
13, 21131, Note_on_c, 6, 62, 120
13, 21293, Note_on_c, 6, 62, 0
13, 21298, Note_on_c, 6, 62, 120
13, 21360, Note_on_c, 6, 62, 0
13, 21360, Note_on_c, 6, 57, 0
13, 21360, Note_on_c, 6, 53, 0
13, 21364, Note_on_c, 6, 47, 120
13, 21369, Note_on_c, 6, 50, 120
13, 21543, Note_on_c, 6, 55, 120
13, 21545, Note_on_c, 6, 50, 0
13, 21549, Note_on_c, 6, 50, 120
13, 21600, Note_on_c, 6, 50, 0
13, 21600, Note_on_c, 6, 55, 0
13, 21600, Note_on_c, 6, 47, 0
13, 21604, Note_on_c, 6, 52, 120
13, 21609, Note_on_c, 6, 55, 120
13, 21783, Note_on_c, 6, 60, 120
13, 21785, Note_on_c, 6, 55, 0
13, 21789, Note_on_c, 6, 55, 120
13, 21840, Note_on_c, 6, 55, 0
13, 21840, Note_on_c, 6, 60, 0
13, 21840, Note_on_c, 6, 52, 0
13, 21844, Note_on_c, 6, 55, 120
13, 21849, Note_on_c, 6, 59, 120
13, 22023, Note_on_c, 6, 64, 120
13, 22025, Note_on_c, 6, 59, 0
13, 22029, Note_on_c, 6, 59, 120
13, 22080, Note_on_c, 6, 59, 0
13, 22080, Note_on_c, 6, 64, 0
13, 22080, Note_on_c, 6, 55, 0
13, 22084, Note_on_c, 6, 53, 120
13, 22089, Note_on_c, 6, 57, 120
13, 22263, Note_on_c, 6, 62, 120
13, 22265, Note_on_c, 6, 57, 0
13, 22269, Note_on_c, 6, 57, 120
13, 22320, Note_on_c, 6, 57, 0
13, 22320, Note_on_c, 6, 62, 0
13, 22320, Note_on_c, 6, 53, 0
13, 22324, Note_on_c, 6, 47, 120
13, 22329, Note_on_c, 6, 50, 120
13, 22503, Note_on_c, 6, 55, 120
13, 22505, Note_on_c, 6, 50, 0
13, 22509, Note_on_c, 6, 50, 120
13, 22560, Note_on_c, 6, 50, 0
13, 22560, Note_on_c, 6, 55, 0
13, 22560, Note_on_c, 6, 47, 0
13, 22564, Note_on_c, 6, 52, 120
13, 22569, Note_on_c, 6, 55, 120
13, 22743, Note_on_c, 6, 60, 120
13, 22745, Note_on_c, 6, 55, 0
13, 22749, Note_on_c, 6, 55, 120
13, 22800, Note_on_c, 6, 55, 0
13, 22800, Note_on_c, 6, 60, 0
13, 22800, Note_on_c, 6, 52, 0
13, 22804, Note_on_c, 6, 48, 120
13, 22808, Note_on_c, 6, 52, 120
13, 22811, Note_on_c, 6, 57, 120
13, 22973, Note_on_c, 6, 57, 0
13, 22978, Note_on_c, 6, 57, 120
13, 23040, Note_on_c, 6, 57, 0
13, 23040, Note_on_c, 6, 52, 0
13, 23040, Note_on_c, 6, 48, 0
13, 23044, Note_on_c, 6, 53, 120
13, 23049, Note_on_c, 6, 57, 120
13, 23223, Note_on_c, 6, 62, 120
13, 23225, Note_on_c, 6, 57, 0
13, 23229, Note_on_c, 6, 57, 120
13, 23280, Note_on_c, 6, 57, 0
13, 23280, Note_on_c, 6, 62, 0
13, 23280, Note_on_c, 6, 53, 0
13, 23284, Note_on_c, 6, 47, 120
13, 23288, Note_on_c, 6, 50, 120
13, 23291, Note_on_c, 6, 55, 120
13, 23453, Note_on_c, 6, 55, 0
13, 23458, Note_on_c, 6, 55, 120
13, 23520, Note_on_c, 6, 55, 0
13, 23520, Note_on_c, 6, 50, 0
13, 23520, Note_on_c, 6, 47, 0
13, 23524, Note_on_c, 6, 52, 120
13, 23529, Note_on_c, 6, 55, 120
13, 23703, Note_on_c, 6, 60, 120
13, 23705, Note_on_c, 6, 55, 0
13, 23709, Note_on_c, 6, 55, 120
13, 23760, Note_on_c, 6, 55, 0
13, 23760, Note_on_c, 6, 60, 0
13, 23760, Note_on_c, 6, 52, 0
13, 23764, Note_on_c, 6, 55, 120
13, 23768, Note_on_c, 6, 59, 120
13, 23771, Note_on_c, 6, 64, 120
13, 23933, Note_on_c, 6, 64, 0
13, 23938, Note_on_c, 6, 64, 120
13, 24000, Note_on_c, 6, 64, 0
13, 24000, Note_on_c, 6, 59, 0
13, 24000, Note_on_c, 6, 55, 0
13, 24004, Note_on_c, 6, 53, 120
13, 24008, Note_on_c, 6, 57, 120
13, 24011, Note_on_c, 6, 62, 120
13, 24173, Note_on_c, 6, 62, 0
13, 24178, Note_on_c, 6, 62, 120
13, 24240, Note_on_c, 6, 62, 0
13, 24240, Note_on_c, 6, 57, 0
13, 24240, Note_on_c, 6, 53, 0
13, 24244, Note_on_c, 6, 47, 120
13, 24249, Note_on_c, 6, 50, 120
13, 24423, Note_on_c, 6, 55, 120
13, 24425, Note_on_c, 6, 50, 0
13, 24429, Note_on_c, 6, 50, 120
13, 24480, Note_on_c, 6, 50, 0
13, 24480, Note_on_c, 6, 55, 0
13, 24480, Note_on_c, 6, 47, 0
13, 24484, Note_on_c, 6, 46, 120
13, 24489, Note_on_c, 6, 50, 120
13, 24663, Note_on_c, 6, 55, 120
13, 24665, Note_on_c, 6, 50, 0
13, 24669, Note_on_c, 6, 50, 120
13, 24720, Note_on_c, 6, 50, 0
13, 24720, Note_on_c, 6, 55, 0
13, 24720, Note_on_c, 6, 46, 0
13, 24724, Note_on_c, 6, 52, 120
13, 24729, Note_on_c, 6, 55, 120
13, 24903, Note_on_c, 6, 60, 120
13, 24905, Note_on_c, 6, 55, 0
13, 24909, Note_on_c, 6, 55, 120
13, 24960, Note_on_c, 6, 55, 0
13, 24960, Note_on_c, 6, 60, 0
13, 24960, Note_on_c, 6, 52, 0
13, 24963, Note_on_c, 6, 57, 120
13, 24966, Note_on_c, 6, 60, 120
13, 25132, Note_on_c, 6, 65, 120
13, 25137, Note_on_c, 6, 60, 0
13, 25140, Note_on_c, 6, 60, 120
13, 25252, Note_on_c, 6, 60, 0
13, 25260, Note_on_c, 6, 60, 120
13, 25317, Note_on_c, 6, 57, 0
13, 25320, Note_on_c, 6, 57, 120
13, 25377, Note_on_c, 6, 65, 0
13, 25382, Note_on_c, 6, 60, 0
13, 25383, Note_on_c, 6, 65, 120
13, 25386, Note_on_c, 6, 60, 120
13, 25440, Note_on_c, 6, 60, 0
13, 25440, Note_on_c, 6, 65, 0
13, 25440, Note_on_c, 6, 57, 0
13, 25444, Note_on_c, 6, 46, 120
13, 25448, Note_on_c, 6, 50, 120
13, 25451, Note_on_c, 6, 55, 120
13, 25613, Note_on_c, 6, 55, 0
13, 25618, Note_on_c, 6, 55, 120
13, 25680, Note_on_c, 6, 55, 0
13, 25680, Note_on_c, 6, 50, 0
13, 25680, Note_on_c, 6, 46, 0
13, 25684, Note_on_c, 6, 52, 120
13, 25688, Note_on_c, 6, 55, 120
13, 25691, Note_on_c, 6, 60, 120
13, 25853, Note_on_c, 6, 60, 0
13, 25858, Note_on_c, 6, 60, 120
13, 25920, Note_on_c, 6, 60, 0
13, 25920, Note_on_c, 6, 55, 0
13, 25920, Note_on_c, 6, 52, 0
13, 25930, Note_on_c, 6, 57, 120
13, 25932, Note_on_c, 6, 60, 120
13, 26104, Note_on_c, 6, 60, 0
13, 26104, Note_on_c, 6, 65, 120
13, 26108, Note_on_c, 6, 60, 120
13, 26212, Note_on_c, 6, 60, 0
13, 26220, Note_on_c, 6, 60, 120
13, 26278, Note_on_c, 6, 60, 0
13, 26283, Note_on_c, 6, 60, 120
13, 26342, Note_on_c, 6, 65, 0
13, 26346, Note_on_c, 6, 65, 120
13, 26400, Note_on_c, 6, 65, 0
13, 26400, Note_on_c, 6, 60, 0
13, 26400, Note_on_c, 6, 57, 0
13, 26404, Note_on_c, 6, 48, 120
13, 26409, Note_on_c, 6, 52, 120
13, 26583, Note_on_c, 6, 57, 120
13, 26585, Note_on_c, 6, 52, 0
13, 26589, Note_on_c, 6, 52, 120
13, 26640, Note_on_c, 6, 52, 0
13, 26640, Note_on_c, 6, 57, 0
13, 26640, Note_on_c, 6, 48, 0
13, 26644, Note_on_c, 6, 54, 120
13, 26649, Note_on_c, 6, 57, 120
13, 26823, Note_on_c, 6, 62, 120
13, 26825, Note_on_c, 6, 57, 0
13, 26829, Note_on_c, 6, 57, 120
13, 26880, Note_on_c, 6, 57, 0
13, 26880, Note_on_c, 6, 62, 0
13, 26880, Note_on_c, 6, 54, 0
13, 26882, Note_on_c, 6, 47, 120
13, 26884, Note_on_c, 6, 50, 120
13, 27062, Note_on_c, 6, 55, 120
13, 27176, Note_on_c, 6, 50, 0
13, 27177, Note_on_c, 6, 50, 120
13, 27234, Note_on_c, 6, 47, 0
13, 27239, Note_on_c, 6, 47, 120
13, 27241, Note_on_c, 6, 50, 0
13, 27244, Note_on_c, 6, 50, 120
13, 27297, Note_on_c, 6, 55, 0
13, 27301, Note_on_c, 6, 55, 120
13, 27360, Note_on_c, 6, 55, 0
13, 27360, Note_on_c, 6, 50, 0
13, 27360, Note_on_c, 6, 47, 0
13, 27364, Note_on_c, 6, 48, 120
13, 27368, Note_on_c, 6, 52, 120
13, 27371, Note_on_c, 6, 57, 120
13, 27533, Note_on_c, 6, 57, 0
13, 27538, Note_on_c, 6, 57, 120
13, 27600, Note_on_c, 6, 57, 0
13, 27600, Note_on_c, 6, 52, 0
13, 27600, Note_on_c, 6, 48, 0
13, 27604, Note_on_c, 6, 54, 120
13, 27609, Note_on_c, 6, 57, 120
13, 27783, Note_on_c, 6, 62, 120
13, 27785, Note_on_c, 6, 57, 0
13, 27789, Note_on_c, 6, 57, 120
13, 27840, Note_on_c, 6, 57, 0
13, 27840, Note_on_c, 6, 62, 0
13, 27840, Note_on_c, 6, 54, 0
13, 27844, Note_on_c, 6, 53, 120
13, 27848, Note_on_c, 6, 57, 120
13, 27851, Note_on_c, 6, 62, 120
13, 28013, Note_on_c, 6, 62, 0
13, 28018, Note_on_c, 6, 62, 120
13, 28080, Note_on_c, 6, 62, 0
13, 28080, Note_on_c, 6, 57, 0
13, 28080, Note_on_c, 6, 53, 0
13, 28084, Note_on_c, 6, 47, 120
13, 28089, Note_on_c, 6, 50, 120
13, 28263, Note_on_c, 6, 55, 120
13, 28265, Note_on_c, 6, 50, 0
13, 28269, Note_on_c, 6, 50, 120
13, 28320, Note_on_c, 6, 50, 0
13, 28320, Note_on_c, 6, 55, 0
13, 28320, Note_on_c, 6, 47, 0
13, 28324, Note_on_c, 6, 52, 120
13, 28328, Note_on_c, 6, 55, 120
13, 28331, Note_on_c, 6, 60, 120
13, 28493, Note_on_c, 6, 60, 0
13, 28498, Note_on_c, 6, 60, 120
13, 28560, Note_on_c, 6, 60, 0
13, 28560, Note_on_c, 6, 55, 0
13, 28560, Note_on_c, 6, 52, 0
13, 28564, Note_on_c, 6, 48, 120
13, 28568, Note_on_c, 6, 52, 120
13, 28571, Note_on_c, 6, 57, 120
13, 28733, Note_on_c, 6, 57, 0
13, 28738, Note_on_c, 6, 57, 120
13, 28800, Note_on_c, 6, 57, 0
13, 28800, Note_on_c, 6, 52, 0
13, 28800, Note_on_c, 6, 48, 0
13, 28804, Note_on_c, 6, 53, 120
13, 28808, Note_on_c, 6, 57, 120
13, 28811, Note_on_c, 6, 62, 120
13, 28973, Note_on_c, 6, 62, 0
13, 28978, Note_on_c, 6, 62, 120
13, 29040, Note_on_c, 6, 62, 0
13, 29040, Note_on_c, 6, 57, 0
13, 29040, Note_on_c, 6, 53, 0
13, 29044, Note_on_c, 6, 47, 120
13, 29048, Note_on_c, 6, 50, 120
13, 29051, Note_on_c, 6, 55, 120
13, 29213, Note_on_c, 6, 55, 0
13, 29218, Note_on_c, 6, 55, 120
13, 29280, Note_on_c, 6, 55, 0
13, 29280, Note_on_c, 6, 50, 0
13, 29280, Note_on_c, 6, 47, 0
13, 29284, Note_on_c, 6, 52, 120
13, 29288, Note_on_c, 6, 55, 120
13, 29291, Note_on_c, 6, 60, 120
13, 29453, Note_on_c, 6, 60, 0
13, 29458, Note_on_c, 6, 60, 120
13, 29520, Note_on_c, 6, 60, 0
13, 29520, Note_on_c, 6, 55, 0
13, 29520, Note_on_c, 6, 52, 0
13, 29524, Note_on_c, 6, 55, 120
13, 29528, Note_on_c, 6, 59, 120
13, 29531, Note_on_c, 6, 64, 120
13, 29693, Note_on_c, 6, 64, 0
13, 29698, Note_on_c, 6, 64, 120
13, 29760, Note_on_c, 6, 64, 0
13, 29760, Note_on_c, 6, 59, 0
13, 29760, Note_on_c, 6, 55, 0
13, 29764, Note_on_c, 6, 53, 120
13, 29769, Note_on_c, 6, 57, 120
13, 29943, Note_on_c, 6, 62, 120
13, 29945, Note_on_c, 6, 57, 0
13, 29949, Note_on_c, 6, 57, 120
13, 30000, Note_on_c, 6, 57, 0
13, 30000, Note_on_c, 6, 62, 0
13, 30000, Note_on_c, 6, 53, 0
13, 30004, Note_on_c, 6, 47, 120
13, 30009, Note_on_c, 6, 50, 120
13, 30183, Note_on_c, 6, 55, 120
13, 30185, Note_on_c, 6, 50, 0
13, 30189, Note_on_c, 6, 50, 120
13, 30240, Note_on_c, 6, 50, 0
13, 30240, Note_on_c, 6, 55, 0
13, 30240, Note_on_c, 6, 47, 0
13, 30244, Note_on_c, 6, 52, 120
13, 30249, Note_on_c, 6, 55, 120
13, 30423, Note_on_c, 6, 60, 120
13, 30425, Note_on_c, 6, 55, 0
13, 30429, Note_on_c, 6, 55, 120
13, 30480, Note_on_c, 6, 55, 0
13, 30480, Note_on_c, 6, 60, 0
13, 30480, Note_on_c, 6, 52, 0
13, 30484, Note_on_c, 6, 48, 120
13, 30489, Note_on_c, 6, 52, 120
13, 30663, Note_on_c, 6, 57, 120
13, 30665, Note_on_c, 6, 52, 0
13, 30669, Note_on_c, 6, 52, 120
13, 30720, Note_on_c, 6, 52, 0
13, 30720, Note_on_c, 6, 57, 0
13, 30720, Note_on_c, 6, 48, 0
13, 30724, Note_on_c, 6, 53, 120
13, 30728, Note_on_c, 6, 57, 120
13, 30731, Note_on_c, 6, 62, 120
13, 30893, Note_on_c, 6, 62, 0
13, 30898, Note_on_c, 6, 62, 120
13, 30960, Note_on_c, 6, 62, 0
13, 30960, Note_on_c, 6, 57, 0
13, 30960, Note_on_c, 6, 53, 0
13, 30964, Note_on_c, 6, 47, 120
13, 30968, Note_on_c, 6, 50, 120
13, 30971, Note_on_c, 6, 55, 120
13, 31133, Note_on_c, 6, 55, 0
13, 31138, Note_on_c, 6, 55, 120
13, 31200, Note_on_c, 6, 55, 0
13, 31200, Note_on_c, 6, 50, 0
13, 31200, Note_on_c, 6, 47, 0
13, 31204, Note_on_c, 6, 52, 120
13, 31209, Note_on_c, 6, 55, 120
13, 31383, Note_on_c, 6, 60, 120
13, 31385, Note_on_c, 6, 55, 0
13, 31389, Note_on_c, 6, 55, 120
13, 31440, Note_on_c, 6, 55, 0
13, 31440, Note_on_c, 6, 60, 0
13, 31440, Note_on_c, 6, 52, 0
13, 31444, Note_on_c, 6, 55, 120
13, 31448, Note_on_c, 6, 59, 120
13, 31451, Note_on_c, 6, 64, 120
13, 31613, Note_on_c, 6, 64, 0
13, 31618, Note_on_c, 6, 64, 120
13, 31680, Note_on_c, 6, 64, 0
13, 31680, Note_on_c, 6, 59, 0
13, 31680, Note_on_c, 6, 55, 0
13, 31684, Note_on_c, 6, 53, 120
13, 31688, Note_on_c, 6, 57, 120
13, 31691, Note_on_c, 6, 62, 120
13, 31853, Note_on_c, 6, 62, 0
13, 31858, Note_on_c, 6, 62, 120
13, 31920, Note_on_c, 6, 62, 0
13, 31920, Note_on_c, 6, 57, 0
13, 31920, Note_on_c, 6, 53, 0
13, 31924, Note_on_c, 6, 47, 120
13, 31928, Note_on_c, 6, 50, 120
13, 31931, Note_on_c, 6, 55, 120
13, 32093, Note_on_c, 6, 55, 0
13, 32098, Note_on_c, 6, 55, 120
13, 32160, Note_on_c, 6, 55, 0
13, 32160, Note_on_c, 6, 50, 0
13, 32160, Note_on_c, 6, 47, 0
13, 32164, Note_on_c, 6, 52, 120
13, 32169, Note_on_c, 6, 55, 120
13, 32343, Note_on_c, 6, 60, 120
13, 32345, Note_on_c, 6, 55, 0
13, 32349, Note_on_c, 6, 55, 120
13, 32400, Note_on_c, 6, 55, 0
13, 32400, Note_on_c, 6, 60, 0
13, 32400, Note_on_c, 6, 52, 0
13, 32404, Note_on_c, 6, 48, 120
13, 32409, Note_on_c, 6, 52, 120
13, 32583, Note_on_c, 6, 57, 120
13, 32585, Note_on_c, 6, 52, 0
13, 32589, Note_on_c, 6, 52, 120
13, 32640, Note_on_c, 6, 52, 0
13, 32640, Note_on_c, 6, 57, 0
13, 32640, Note_on_c, 6, 48, 0
13, 32644, Note_on_c, 6, 53, 120
13, 32649, Note_on_c, 6, 57, 120
13, 32823, Note_on_c, 6, 62, 120
13, 32825, Note_on_c, 6, 57, 0
13, 32829, Note_on_c, 6, 57, 120
13, 32880, Note_on_c, 6, 57, 0
13, 32880, Note_on_c, 6, 62, 0
13, 32880, Note_on_c, 6, 53, 0
13, 32884, Note_on_c, 6, 47, 120
13, 32888, Note_on_c, 6, 50, 120
13, 32891, Note_on_c, 6, 55, 120
13, 33053, Note_on_c, 6, 55, 0
13, 33058, Note_on_c, 6, 55, 120
13, 33120, Note_on_c, 6, 55, 0
13, 33120, Note_on_c, 6, 50, 0
13, 33120, Note_on_c, 6, 47, 0
13, 33124, Note_on_c, 6, 52, 120
13, 33129, Note_on_c, 6, 55, 120
13, 33303, Note_on_c, 6, 60, 120
13, 33305, Note_on_c, 6, 55, 0
13, 33309, Note_on_c, 6, 55, 120
13, 33360, Note_on_c, 6, 55, 0
13, 33360, Note_on_c, 6, 60, 0
13, 33360, Note_on_c, 6, 52, 0
13, 33364, Note_on_c, 6, 55, 120
13, 33368, Note_on_c, 6, 59, 120
13, 33371, Note_on_c, 6, 64, 120
13, 33533, Note_on_c, 6, 64, 0
13, 33538, Note_on_c, 6, 64, 120
13, 33600, Note_on_c, 6, 64, 0
13, 33600, Note_on_c, 6, 59, 0
13, 33600, Note_on_c, 6, 55, 0
13, 33604, Note_on_c, 6, 53, 120
13, 33608, Note_on_c, 6, 57, 120
13, 33611, Note_on_c, 6, 62, 120
13, 33773, Note_on_c, 6, 62, 0
13, 33778, Note_on_c, 6, 62, 120
13, 33840, Note_on_c, 6, 62, 0
13, 33840, Note_on_c, 6, 57, 0
13, 33840, Note_on_c, 6, 53, 0
13, 33844, Note_on_c, 6, 47, 120
13, 33849, Note_on_c, 6, 50, 120
13, 34023, Note_on_c, 6, 55, 120
13, 34025, Note_on_c, 6, 50, 0
13, 34029, Note_on_c, 6, 50, 120
13, 34080, Note_on_c, 6, 50, 0
13, 34080, Note_on_c, 6, 55, 0
13, 34080, Note_on_c, 6, 47, 0
13, 34084, Note_on_c, 6, 46, 120
13, 34088, Note_on_c, 6, 50, 120
13, 34091, Note_on_c, 6, 55, 120
13, 34253, Note_on_c, 6, 55, 0
13, 34258, Note_on_c, 6, 55, 120
13, 34320, Note_on_c, 6, 55, 0
13, 34320, Note_on_c, 6, 50, 0
13, 34320, Note_on_c, 6, 46, 0
13, 34324, Note_on_c, 6, 52, 120
13, 34328, Note_on_c, 6, 55, 120
13, 34331, Note_on_c, 6, 60, 120
13, 34493, Note_on_c, 6, 60, 0
13, 34498, Note_on_c, 6, 60, 120
13, 34560, Note_on_c, 6, 60, 0
13, 34560, Note_on_c, 6, 55, 0
13, 34560, Note_on_c, 6, 52, 0
13, 34563, Note_on_c, 6, 57, 120
13, 34566, Note_on_c, 6, 60, 120
13, 34732, Note_on_c, 6, 65, 120
13, 34737, Note_on_c, 6, 60, 0
13, 34740, Note_on_c, 6, 60, 120
13, 34852, Note_on_c, 6, 60, 0
13, 34860, Note_on_c, 6, 60, 120
13, 34917, Note_on_c, 6, 57, 0
13, 34920, Note_on_c, 6, 57, 120
13, 34977, Note_on_c, 6, 65, 0
13, 34982, Note_on_c, 6, 60, 0
13, 34983, Note_on_c, 6, 65, 120
13, 34986, Note_on_c, 6, 60, 120
13, 35040, Note_on_c, 6, 60, 0
13, 35040, Note_on_c, 6, 65, 0
13, 35040, Note_on_c, 6, 57, 0
13, 35044, Note_on_c, 6, 46, 120
13, 35049, Note_on_c, 6, 50, 120
13, 35223, Note_on_c, 6, 55, 120
13, 35225, Note_on_c, 6, 50, 0
13, 35229, Note_on_c, 6, 50, 120
13, 35280, Note_on_c, 6, 50, 0
13, 35280, Note_on_c, 6, 55, 0
13, 35280, Note_on_c, 6, 46, 0
13, 35284, Note_on_c, 6, 52, 120
13, 35289, Note_on_c, 6, 55, 120
13, 35463, Note_on_c, 6, 60, 120
13, 35465, Note_on_c, 6, 55, 0
13, 35469, Note_on_c, 6, 55, 120
13, 35520, Note_on_c, 6, 55, 0
13, 35520, Note_on_c, 6, 60, 0
13, 35520, Note_on_c, 6, 52, 0
13, 35522, Note_on_c, 6, 57, 120
13, 35524, Note_on_c, 6, 60, 120
13, 35702, Note_on_c, 6, 65, 120
13, 35816, Note_on_c, 6, 60, 0
13, 35817, Note_on_c, 6, 60, 120
13, 35874, Note_on_c, 6, 57, 0
13, 35879, Note_on_c, 6, 57, 120
13, 35881, Note_on_c, 6, 60, 0
13, 35884, Note_on_c, 6, 60, 120
13, 35937, Note_on_c, 6, 65, 0
13, 35941, Note_on_c, 6, 65, 120
13, 36000, Note_on_c, 6, 65, 0
13, 36000, Note_on_c, 6, 60, 0
13, 36000, Note_on_c, 6, 57, 0
13, 36004, Note_on_c, 6, 48, 120
13, 36009, Note_on_c, 6, 52, 120
13, 36183, Note_on_c, 6, 57, 120
13, 36185, Note_on_c, 6, 52, 0
13, 36189, Note_on_c, 6, 52, 120
13, 36240, Note_on_c, 6, 52, 0
13, 36240, Note_on_c, 6, 57, 0
13, 36240, Note_on_c, 6, 48, 0
13, 36244, Note_on_c, 6, 54, 120
13, 36248, Note_on_c, 6, 57, 120
13, 36251, Note_on_c, 6, 62, 120
13, 36413, Note_on_c, 6, 62, 0
13, 36418, Note_on_c, 6, 62, 120
13, 36480, Note_on_c, 6, 62, 0
13, 36480, Note_on_c, 6, 57, 0
13, 36480, Note_on_c, 6, 54, 0
13, 36490, Note_on_c, 6, 47, 120
13, 36492, Note_on_c, 6, 50, 120
13, 36664, Note_on_c, 6, 50, 0
13, 36664, Note_on_c, 6, 55, 120
13, 36668, Note_on_c, 6, 50, 120
13, 36772, Note_on_c, 6, 50, 0
13, 36780, Note_on_c, 6, 50, 120
13, 36838, Note_on_c, 6, 50, 0
13, 36843, Note_on_c, 6, 50, 120
13, 36902, Note_on_c, 6, 55, 0
13, 36906, Note_on_c, 6, 55, 120
13, 36960, Note_on_c, 6, 55, 0
13, 36960, Note_on_c, 6, 50, 0
13, 36960, Note_on_c, 6, 47, 0
13, 36964, Note_on_c, 6, 48, 120
13, 36968, Note_on_c, 6, 52, 120
13, 36971, Note_on_c, 6, 57, 120
13, 37133, Note_on_c, 6, 57, 0
13, 37138, Note_on_c, 6, 57, 120
13, 37200, Note_on_c, 6, 57, 0
13, 37200, Note_on_c, 6, 52, 0
13, 37200, Note_on_c, 6, 48, 0
13, 37204, Note_on_c, 6, 54, 120
13, 37208, Note_on_c, 6, 57, 120
13, 37211, Note_on_c, 6, 62, 120
13, 37373, Note_on_c, 6, 62, 0
13, 37378, Note_on_c, 6, 62, 120
13, 37440, Note_on_c, 6, 62, 0
13, 37440, Note_on_c, 6, 57, 0
13, 37440, Note_on_c, 6, 54, 0
13, 37444, Note_on_c, 6, 53, 120
13, 37449, Note_on_c, 6, 57, 120
13, 37623, Note_on_c, 6, 62, 120
13, 37625, Note_on_c, 6, 57, 0
13, 37629, Note_on_c, 6, 57, 120
13, 37680, Note_on_c, 6, 57, 0
13, 37680, Note_on_c, 6, 62, 0
13, 37680, Note_on_c, 6, 53, 0
13, 37684, Note_on_c, 6, 47, 120
13, 37688, Note_on_c, 6, 50, 120
13, 37691, Note_on_c, 6, 55, 120
13, 37853, Note_on_c, 6, 55, 0
13, 37858, Note_on_c, 6, 55, 120
13, 37920, Note_on_c, 6, 55, 0
13, 37920, Note_on_c, 6, 50, 0
13, 37920, Note_on_c, 6, 47, 0
13, 37924, Note_on_c, 6, 52, 120
13, 37929, Note_on_c, 6, 55, 120
13, 38103, Note_on_c, 6, 60, 120
13, 38105, Note_on_c, 6, 55, 0
13, 38109, Note_on_c, 6, 55, 120
13, 38160, Note_on_c, 6, 55, 0
13, 38160, Note_on_c, 6, 60, 0
13, 38160, Note_on_c, 6, 52, 0
13, 38164, Note_on_c, 6, 48, 120
13, 38168, Note_on_c, 6, 52, 120
13, 38171, Note_on_c, 6, 57, 120
13, 38333, Note_on_c, 6, 57, 0
13, 38338, Note_on_c, 6, 57, 120
13, 38400, Note_on_c, 6, 57, 0
13, 38400, Note_on_c, 6, 52, 0
13, 38400, Note_on_c, 6, 48, 0
13, 38404, Note_on_c, 6, 53, 120
13, 38408, Note_on_c, 6, 57, 120
13, 38411, Note_on_c, 6, 62, 120
13, 38573, Note_on_c, 6, 62, 0
13, 38578, Note_on_c, 6, 62, 120
13, 38640, Note_on_c, 6, 62, 0
13, 38640, Note_on_c, 6, 57, 0
13, 38640, Note_on_c, 6, 53, 0
13, 38644, Note_on_c, 6, 47, 120
13, 38649, Note_on_c, 6, 50, 120
13, 38823, Note_on_c, 6, 55, 120
13, 38825, Note_on_c, 6, 50, 0
13, 38829, Note_on_c, 6, 50, 120
13, 38880, Note_on_c, 6, 50, 0
13, 38880, Note_on_c, 6, 55, 0
13, 38880, Note_on_c, 6, 47, 0
13, 38884, Note_on_c, 6, 52, 120
13, 38889, Note_on_c, 6, 55, 120
13, 39063, Note_on_c, 6, 60, 120
13, 39065, Note_on_c, 6, 55, 0
13, 39069, Note_on_c, 6, 55, 120
13, 39120, Note_on_c, 6, 55, 0
13, 39120, Note_on_c, 6, 60, 0
13, 39120, Note_on_c, 6, 52, 0
13, 39124, Note_on_c, 6, 55, 120
13, 39128, Note_on_c, 6, 59, 120
13, 39131, Note_on_c, 6, 64, 120
13, 39293, Note_on_c, 6, 64, 0
13, 39298, Note_on_c, 6, 64, 120
13, 39360, Note_on_c, 6, 64, 0
13, 39360, Note_on_c, 6, 59, 0
13, 39360, Note_on_c, 6, 55, 0
13, 39364, Note_on_c, 6, 53, 120
13, 39369, Note_on_c, 6, 57, 120
13, 39543, Note_on_c, 6, 62, 120
13, 39545, Note_on_c, 6, 57, 0
13, 39549, Note_on_c, 6, 57, 120
13, 39600, Note_on_c, 6, 57, 0
13, 39600, Note_on_c, 6, 62, 0
13, 39600, Note_on_c, 6, 53, 0
13, 39604, Note_on_c, 6, 47, 120
13, 39609, Note_on_c, 6, 50, 120
13, 39783, Note_on_c, 6, 55, 120
13, 39785, Note_on_c, 6, 50, 0
13, 39789, Note_on_c, 6, 50, 120
13, 39840, Note_on_c, 6, 50, 0
13, 39840, Note_on_c, 6, 55, 0
13, 39840, Note_on_c, 6, 47, 0
13, 39868, Note_on_c, 6, 48, 120
13, 39868, Note_on_c, 6, 62, 120
13, 39928, Note_on_c, 6, 55, 120
13, 40048, Note_on_c, 6, 60, 120
13, 40090, Note_on_c, 6, 60, 0
13, 40108, Note_on_c, 6, 48, 0
13, 40108, Note_on_c, 6, 62, 0
13, 40108, Note_on_c, 6, 55, 0
13, 40108, Note_on_c, 6, 45, 120
13, 40108, Note_on_c, 6, 60, 120
13, 40168, Note_on_c, 6, 52, 120
13, 40228, Note_on_c, 6, 57, 120
13, 40273, Note_on_c, 6, 60, 0
13, 40288, Note_on_c, 6, 60, 120
13, 40338, Note_on_c, 6, 60, 0
13, 40343, Note_on_c, 6, 52, 0
13, 40344, Note_on_c, 6, 45, 0
13, 40344, Note_on_c, 6, 57, 0
13, 40348, Note_on_c, 6, 50, 120
13, 40348, Note_on_c, 6, 65, 120
13, 40408, Note_on_c, 6, 57, 120
13, 40528, Note_on_c, 6, 62, 120
13, 40563, Note_on_c, 6, 62, 0
13, 40572, Note_on_c, 6, 57, 0
13, 40587, Note_on_c, 6, 65, 0
13, 40588, Note_on_c, 6, 50, 0
13, 40588, Note_on_c, 6, 43, 120
13, 40588, Note_on_c, 6, 59, 120
13, 40648, Note_on_c, 6, 50, 120
13, 40708, Note_on_c, 6, 55, 120
13, 40753, Note_on_c, 6, 59, 0
13, 40768, Note_on_c, 6, 59, 120
13, 40818, Note_on_c, 6, 59, 0
13, 40823, Note_on_c, 6, 50, 0
13, 40824, Note_on_c, 6, 43, 0
13, 40824, Note_on_c, 6, 55, 0
13, 40828, Note_on_c, 6, 48, 120
13, 40828, Note_on_c, 6, 64, 120
13, 40888, Note_on_c, 6, 55, 120
13, 40948, Note_on_c, 6, 60, 120
13, 40993, Note_on_c, 6, 64, 0
13, 41008, Note_on_c, 6, 64, 120
13, 41058, Note_on_c, 6, 64, 0
13, 41063, Note_on_c, 6, 55, 0
13, 41064, Note_on_c, 6, 48, 0
13, 41064, Note_on_c, 6, 60, 0
13, 41068, Note_on_c, 6, 52, 120
13, 41068, Note_on_c, 6, 67, 120
13, 41128, Note_on_c, 6, 59, 120
13, 41248, Note_on_c, 6, 64, 120
13, 41283, Note_on_c, 6, 64, 0
13, 41292, Note_on_c, 6, 59, 0
13, 41307, Note_on_c, 6, 67, 0
13, 41308, Note_on_c, 6, 52, 0
13, 41308, Note_on_c, 6, 50, 120
13, 41308, Note_on_c, 6, 65, 120
13, 41368, Note_on_c, 6, 57, 120
13, 41488, Note_on_c, 6, 62, 120
13, 41523, Note_on_c, 6, 62, 0
13, 41532, Note_on_c, 6, 57, 0
13, 41547, Note_on_c, 6, 65, 0
13, 41548, Note_on_c, 6, 50, 0
13, 41548, Note_on_c, 6, 43, 120
13, 41548, Note_on_c, 6, 59, 120
13, 41608, Note_on_c, 6, 50, 120
13, 41668, Note_on_c, 6, 55, 120
13, 41713, Note_on_c, 6, 59, 0
13, 41728, Note_on_c, 6, 59, 120
13, 41778, Note_on_c, 6, 59, 0
13, 41783, Note_on_c, 6, 50, 0
13, 41784, Note_on_c, 6, 43, 0
13, 41784, Note_on_c, 6, 55, 0
13, 41788, Note_on_c, 6, 48, 120
13, 41788, Note_on_c, 6, 62, 120
13, 41848, Note_on_c, 6, 55, 120
13, 41968, Note_on_c, 6, 60, 120
13, 42010, Note_on_c, 6, 60, 0
13, 42028, Note_on_c, 6, 48, 0
13, 42028, Note_on_c, 6, 62, 0
13, 42028, Note_on_c, 6, 55, 0
13, 42028, Note_on_c, 6, 45, 120
13, 42028, Note_on_c, 6, 60, 120
13, 42088, Note_on_c, 6, 52, 120
13, 42208, Note_on_c, 6, 57, 120
13, 42243, Note_on_c, 6, 57, 0
13, 42252, Note_on_c, 6, 52, 0
13, 42267, Note_on_c, 6, 60, 0
13, 42268, Note_on_c, 6, 45, 0
13, 42268, Note_on_c, 6, 50, 120
13, 42268, Note_on_c, 6, 65, 120
13, 42328, Note_on_c, 6, 57, 120
13, 42388, Note_on_c, 6, 62, 120
13, 42433, Note_on_c, 6, 65, 0
13, 42448, Note_on_c, 6, 65, 120
13, 42498, Note_on_c, 6, 65, 0
13, 42503, Note_on_c, 6, 57, 0
13, 42504, Note_on_c, 6, 50, 0
13, 42504, Note_on_c, 6, 62, 0
13, 42508, Note_on_c, 6, 43, 120
13, 42508, Note_on_c, 6, 59, 120
13, 42568, Note_on_c, 6, 50, 120
13, 42628, Note_on_c, 6, 55, 120
13, 42673, Note_on_c, 6, 59, 0
13, 42688, Note_on_c, 6, 59, 120
13, 42738, Note_on_c, 6, 59, 0
13, 42743, Note_on_c, 6, 50, 0
13, 42744, Note_on_c, 6, 43, 0
13, 42744, Note_on_c, 6, 55, 0
13, 42748, Note_on_c, 6, 48, 120
13, 42748, Note_on_c, 6, 64, 120
13, 42808, Note_on_c, 6, 55, 120
13, 42868, Note_on_c, 6, 60, 120
13, 42913, Note_on_c, 6, 64, 0
13, 42928, Note_on_c, 6, 64, 120
13, 42978, Note_on_c, 6, 64, 0
13, 42983, Note_on_c, 6, 55, 0
13, 42984, Note_on_c, 6, 48, 0
13, 42984, Note_on_c, 6, 60, 0
13, 42988, Note_on_c, 6, 52, 120
13, 42988, Note_on_c, 6, 67, 120
13, 43048, Note_on_c, 6, 59, 120
13, 43108, Note_on_c, 6, 64, 120
13, 43153, Note_on_c, 6, 67, 0
13, 43168, Note_on_c, 6, 67, 120
13, 43218, Note_on_c, 6, 67, 0
13, 43223, Note_on_c, 6, 59, 0
13, 43224, Note_on_c, 6, 52, 0
13, 43224, Note_on_c, 6, 64, 0
13, 43228, Note_on_c, 6, 50, 120
13, 43228, Note_on_c, 6, 65, 120
13, 43288, Note_on_c, 6, 57, 120
13, 43408, Note_on_c, 6, 62, 120
13, 43443, Note_on_c, 6, 62, 0
13, 43452, Note_on_c, 6, 57, 0
13, 43467, Note_on_c, 6, 65, 0
13, 43468, Note_on_c, 6, 50, 0
13, 43468, Note_on_c, 6, 43, 120
13, 43468, Note_on_c, 6, 59, 120
13, 43528, Note_on_c, 6, 50, 120
13, 43648, Note_on_c, 6, 55, 120
13, 43683, Note_on_c, 6, 55, 0
13, 43692, Note_on_c, 6, 50, 0
13, 43707, Note_on_c, 6, 59, 0
13, 43708, Note_on_c, 6, 43, 0
13, 43708, Note_on_c, 6, 43, 120
13, 43708, Note_on_c, 6, 58, 120
13, 43768, Note_on_c, 6, 50, 120
13, 43888, Note_on_c, 6, 55, 120
13, 43923, Note_on_c, 6, 55, 0
13, 43932, Note_on_c, 6, 50, 0
13, 43947, Note_on_c, 6, 58, 0
13, 43948, Note_on_c, 6, 43, 0
13, 43948, Note_on_c, 6, 48, 120
13, 43948, Note_on_c, 6, 64, 120
13, 44008, Note_on_c, 6, 55, 120
13, 44068, Note_on_c, 6, 60, 120
13, 44113, Note_on_c, 6, 64, 0
13, 44128, Note_on_c, 6, 64, 120
13, 44178, Note_on_c, 6, 64, 0
13, 44183, Note_on_c, 6, 55, 0
13, 44184, Note_on_c, 6, 48, 0
13, 44184, Note_on_c, 6, 60, 0
13, 44188, Note_on_c, 6, 69, 120
13, 44188, Note_on_c, 6, 53, 120
13, 44248, Note_on_c, 6, 60, 120
13, 44308, Note_on_c, 6, 65, 120
13, 44326, Note_on_c, 6, 69, 0
13, 44368, Note_on_c, 6, 69, 120
13, 44438, Note_on_c, 6, 60, 0
13, 44488, Note_on_c, 6, 60, 120
13, 44507, Note_on_c, 6, 65, 0
13, 44548, Note_on_c, 6, 65, 120
13, 44602, Note_on_c, 6, 65, 0
13, 44619, Note_on_c, 6, 60, 0
13, 44620, Note_on_c, 6, 53, 0
13, 44628, Note_on_c, 6, 69, 0
13, 44668, Note_on_c, 6, 43, 120
13, 44668, Note_on_c, 6, 58, 120
13, 44728, Note_on_c, 6, 50, 120
13, 44788, Note_on_c, 6, 55, 120
13, 44833, Note_on_c, 6, 58, 0
13, 44848, Note_on_c, 6, 58, 120
13, 44898, Note_on_c, 6, 58, 0
13, 44903, Note_on_c, 6, 50, 0
13, 44904, Note_on_c, 6, 43, 0
13, 44904, Note_on_c, 6, 55, 0
13, 44908, Note_on_c, 6, 48, 120
13, 44908, Note_on_c, 6, 64, 120
13, 44968, Note_on_c, 6, 55, 120
13, 45028, Note_on_c, 6, 60, 120
13, 45073, Note_on_c, 6, 64, 0
13, 45088, Note_on_c, 6, 64, 120
13, 45138, Note_on_c, 6, 64, 0
13, 45143, Note_on_c, 6, 55, 0
13, 45144, Note_on_c, 6, 48, 0
13, 45144, Note_on_c, 6, 60, 0
13, 45211, Note_on_c, 6, 53, 120
13, 45239, Note_on_c, 6, 60, 120
13, 45272, Note_on_c, 6, 65, 120
13, 45330, Note_on_c, 6, 67, 120
13, 45378, Note_on_c, 6, 67, 0
13, 45384, Note_on_c, 6, 69, 120
13, 45443, Note_on_c, 6, 67, 120
13, 45456, Note_on_c, 6, 69, 0
13, 45478, Note_on_c, 6, 65, 0
13, 45509, Note_on_c, 6, 65, 120
13, 45515, Note_on_c, 6, 67, 0
13, 45534, Note_on_c, 6, 60, 0
13, 45575, Note_on_c, 6, 60, 120
13, 45610, Note_on_c, 6, 65, 0
13, 45628, Note_on_c, 6, 60, 0
13, 45628, Note_on_c, 6, 53, 0
13, 45628, Note_on_c, 6, 45, 120
13, 45628, Note_on_c, 6, 60, 120
13, 45688, Note_on_c, 6, 52, 120
13, 45748, Note_on_c, 6, 57, 120
13, 45793, Note_on_c, 6, 60, 0
13, 45808, Note_on_c, 6, 60, 120
13, 45858, Note_on_c, 6, 60, 0
13, 45863, Note_on_c, 6, 52, 0
13, 45864, Note_on_c, 6, 45, 0
13, 45864, Note_on_c, 6, 57, 0
13, 45868, Note_on_c, 6, 50, 120
13, 45868, Note_on_c, 6, 66, 120
13, 45928, Note_on_c, 6, 57, 120
13, 46048, Note_on_c, 6, 62, 120
13, 46083, Note_on_c, 6, 62, 0
13, 46092, Note_on_c, 6, 57, 0
13, 46107, Note_on_c, 6, 66, 0
13, 46108, Note_on_c, 6, 50, 0
13, 46108, Note_on_c, 6, 59, 120
13, 46108, Note_on_c, 6, 43, 120
13, 46168, Note_on_c, 6, 50, 120
13, 46222, Note_on_c, 6, 59, 0
13, 46228, Note_on_c, 6, 55, 120
13, 46288, Note_on_c, 6, 57, 120
13, 46372, Note_on_c, 6, 57, 0
13, 46408, Note_on_c, 6, 59, 120
13, 46553, Note_on_c, 6, 59, 0
13, 46554, Note_on_c, 6, 55, 0
13, 46554, Note_on_c, 6, 50, 0
13, 46566, Note_on_c, 6, 43, 0
13, 46588, Note_on_c, 6, 45, 120
13, 46588, Note_on_c, 6, 60, 120
13, 46648, Note_on_c, 6, 52, 120
13, 46708, Note_on_c, 6, 57, 120
13, 46753, Note_on_c, 6, 60, 0
13, 46768, Note_on_c, 6, 60, 120
13, 46818, Note_on_c, 6, 60, 0
13, 46823, Note_on_c, 6, 52, 0
13, 46824, Note_on_c, 6, 45, 0
13, 46824, Note_on_c, 6, 57, 0
13, 46828, Note_on_c, 6, 50, 120
13, 46828, Note_on_c, 6, 66, 120
13, 46888, Note_on_c, 6, 57, 120
13, 47008, Note_on_c, 6, 62, 120
13, 47043, Note_on_c, 6, 62, 0
13, 47052, Note_on_c, 6, 57, 0
13, 47067, Note_on_c, 6, 66, 0
13, 47068, Note_on_c, 6, 50, 0
13, 47068, Note_on_c, 6, 50, 120
13, 47068, Note_on_c, 6, 65, 120
13, 47128, Note_on_c, 6, 57, 120
13, 47188, Note_on_c, 6, 62, 120
13, 47233, Note_on_c, 6, 65, 0
13, 47248, Note_on_c, 6, 65, 120
13, 47298, Note_on_c, 6, 65, 0
13, 47303, Note_on_c, 6, 57, 0
13, 47304, Note_on_c, 6, 50, 0
13, 47304, Note_on_c, 6, 62, 0
13, 47308, Note_on_c, 6, 43, 120
13, 47308, Note_on_c, 6, 59, 120
13, 47368, Note_on_c, 6, 50, 120
13, 47488, Note_on_c, 6, 55, 120
13, 47523, Note_on_c, 6, 55, 0
13, 47532, Note_on_c, 6, 50, 0
13, 47547, Note_on_c, 6, 59, 0
13, 47548, Note_on_c, 6, 43, 0
13, 47548, Note_on_c, 6, 48, 120
13, 47548, Note_on_c, 6, 64, 120
13, 47608, Note_on_c, 6, 55, 120
13, 47728, Note_on_c, 6, 60, 120
13, 47763, Note_on_c, 6, 60, 0
13, 47772, Note_on_c, 6, 55, 0
13, 47787, Note_on_c, 6, 64, 0
13, 47788, Note_on_c, 6, 48, 0
13, 47788, Note_on_c, 6, 45, 120
13, 47788, Note_on_c, 6, 60, 120
13, 47848, Note_on_c, 6, 52, 120
13, 47908, Note_on_c, 6, 57, 120
13, 47953, Note_on_c, 6, 60, 0
13, 47968, Note_on_c, 6, 60, 120
13, 48018, Note_on_c, 6, 60, 0
13, 48023, Note_on_c, 6, 52, 0
13, 48024, Note_on_c, 6, 45, 0
13, 48024, Note_on_c, 6, 57, 0
13, 48028, Note_on_c, 6, 50, 120
13, 48028, Note_on_c, 6, 65, 120
13, 48088, Note_on_c, 6, 57, 120
13, 48148, Note_on_c, 6, 62, 120
13, 48193, Note_on_c, 6, 65, 0
13, 48208, Note_on_c, 6, 65, 120
13, 48258, Note_on_c, 6, 65, 0
13, 48263, Note_on_c, 6, 57, 0
13, 48264, Note_on_c, 6, 50, 0
13, 48264, Note_on_c, 6, 62, 0
13, 48268, Note_on_c, 6, 43, 120
13, 48268, Note_on_c, 6, 59, 120
13, 48328, Note_on_c, 6, 50, 120
13, 48388, Note_on_c, 6, 55, 120
13, 48433, Note_on_c, 6, 59, 0
13, 48448, Note_on_c, 6, 59, 120
13, 48498, Note_on_c, 6, 59, 0
13, 48503, Note_on_c, 6, 50, 0
13, 48504, Note_on_c, 6, 43, 0
13, 48504, Note_on_c, 6, 55, 0
13, 48508, Note_on_c, 6, 48, 120
13, 48508, Note_on_c, 6, 62, 120
13, 48568, Note_on_c, 6, 55, 120
13, 48688, Note_on_c, 6, 60, 120
13, 48730, Note_on_c, 6, 60, 0
13, 48748, Note_on_c, 6, 48, 0
13, 48748, Note_on_c, 6, 62, 0
13, 48748, Note_on_c, 6, 55, 0
13, 48748, Note_on_c, 6, 52, 120
13, 48748, Note_on_c, 6, 67, 120
13, 48808, Note_on_c, 6, 59, 120
13, 48868, Note_on_c, 6, 64, 120
13, 48913, Note_on_c, 6, 67, 0
13, 48928, Note_on_c, 6, 67, 120
13, 48978, Note_on_c, 6, 67, 0
13, 48983, Note_on_c, 6, 59, 0
13, 48984, Note_on_c, 6, 52, 0
13, 48984, Note_on_c, 6, 64, 0
13, 48988, Note_on_c, 6, 50, 120
13, 48988, Note_on_c, 6, 65, 120
13, 49048, Note_on_c, 6, 57, 120
13, 49168, Note_on_c, 6, 62, 120
13, 49203, Note_on_c, 6, 62, 0
13, 49212, Note_on_c, 6, 57, 0
13, 49227, Note_on_c, 6, 65, 0
13, 49228, Note_on_c, 6, 50, 0
13, 49228, Note_on_c, 6, 43, 120
13, 49228, Note_on_c, 6, 59, 120
13, 49288, Note_on_c, 6, 50, 120
13, 49408, Note_on_c, 6, 55, 120
13, 49443, Note_on_c, 6, 55, 0
13, 49452, Note_on_c, 6, 50, 0
13, 49467, Note_on_c, 6, 59, 0
13, 49468, Note_on_c, 6, 43, 0
13, 49472, Note_on_c, 6, 52, 120
13, 49476, Note_on_c, 6, 55, 120
13, 49479, Note_on_c, 6, 60, 120
13, 49641, Note_on_c, 6, 60, 0
13, 49646, Note_on_c, 6, 60, 120
13, 49708, Note_on_c, 6, 60, 0
13, 49708, Note_on_c, 6, 55, 0
13, 49708, Note_on_c, 6, 52, 0
13, 49712, Note_on_c, 6, 48, 120
13, 49716, Note_on_c, 6, 52, 120
13, 49719, Note_on_c, 6, 57, 120
13, 49881, Note_on_c, 6, 57, 0
13, 49886, Note_on_c, 6, 57, 120
13, 49948, Note_on_c, 6, 57, 0
13, 49948, Note_on_c, 6, 52, 0
13, 49948, Note_on_c, 6, 48, 0
13, 49952, Note_on_c, 6, 53, 120
13, 49957, Note_on_c, 6, 57, 120
13, 50131, Note_on_c, 6, 62, 120
13, 50133, Note_on_c, 6, 57, 0
13, 50137, Note_on_c, 6, 57, 120
13, 50188, Note_on_c, 6, 57, 0
13, 50188, Note_on_c, 6, 62, 0
13, 50188, Note_on_c, 6, 53, 0
13, 50192, Note_on_c, 6, 47, 120
13, 50196, Note_on_c, 6, 50, 120
13, 50199, Note_on_c, 6, 55, 120
13, 50361, Note_on_c, 6, 55, 0
13, 50366, Note_on_c, 6, 55, 120
13, 50428, Note_on_c, 6, 55, 0
13, 50428, Note_on_c, 6, 50, 0
13, 50428, Note_on_c, 6, 47, 0
13, 50432, Note_on_c, 6, 52, 120
13, 50436, Note_on_c, 6, 55, 120
13, 50439, Note_on_c, 6, 60, 120
13, 50601, Note_on_c, 6, 60, 0
13, 50606, Note_on_c, 6, 60, 120
13, 50668, Note_on_c, 6, 60, 0
13, 50668, Note_on_c, 6, 55, 0
13, 50668, Note_on_c, 6, 52, 0
13, 50668, End_track
14, 0, Start_track
14, 0, MIDI_port, 0
14, 0, Title_t, "Strings"
14, 0, Program_c, 7, 48
14, 0, Control_c, 7, 7, 52
14, 0, Control_c, 7, 10, 64
14, 11220, Note_on_c, 7, 72, 120
14, 11484, Note_on_c, 7, 72, 0
14, 11550, Note_on_c, 7, 74, 120
14, 11666, Note_on_c, 7, 74, 0
14, 11695, Note_on_c, 7, 77, 120
14, 11757, Note_on_c, 7, 74, 120
14, 11759, Note_on_c, 7, 77, 0
14, 11893, Note_on_c, 7, 74, 0
14, 11940, Note_on_c, 7, 76, 120
14, 12012, Note_on_c, 7, 76, 0
14, 12030, Note_on_c, 7, 88, 120
14, 12107, Note_on_c, 7, 88, 0
14, 12126, Note_on_c, 7, 72, 120
14, 12190, Note_on_c, 7, 72, 0
14, 12214, Note_on_c, 7, 76, 120
14, 12406, Note_on_c, 7, 76, 0
14, 12468, Note_on_c, 7, 81, 120
14, 12574, Note_on_c, 7, 81, 0
14, 12600, Note_on_c, 7, 74, 120
14, 12672, Note_on_c, 7, 74, 0
14, 12690, Note_on_c, 7, 74, 120
14, 12900, Note_on_c, 7, 74, 0
14, 12953, Note_on_c, 7, 72, 120
14, 12996, Note_on_c, 7, 76, 120
14, 13085, Note_on_c, 7, 72, 0
14, 13201, Note_on_c, 7, 76, 0
14, 13263, Note_on_c, 7, 81, 120
14, 13390, Note_on_c, 7, 81, 0
14, 13453, Note_on_c, 7, 77, 120
14, 13453, Note_on_c, 7, 81, 120
14, 13587, Note_on_c, 7, 81, 0
14, 13587, Note_on_c, 7, 77, 0
14, 13620, Note_on_c, 7, 79, 120
14, 13716, Note_on_c, 7, 79, 0
14, 13740, Note_on_c, 7, 79, 120
14, 13836, Note_on_c, 7, 79, 0
14, 13860, Note_on_c, 7, 71, 120
14, 13873, Note_on_c, 7, 71, 0
14, 13916, Note_on_c, 7, 67, 120
14, 14037, Note_on_c, 7, 67, 0
14, 14042, Note_on_c, 7, 67, 120
14, 14112, Note_on_c, 7, 67, 0
14, 14130, Note_on_c, 7, 76, 120
14, 14206, Note_on_c, 7, 76, 0
14, 14225, Note_on_c, 7, 71, 120
14, 14289, Note_on_c, 7, 71, 0
14, 14407, Note_on_c, 7, 69, 120
14, 14587, Note_on_c, 7, 69, 0
14, 14640, Note_on_c, 7, 79, 120
14, 14697, Note_on_c, 7, 79, 0
14, 14711, Note_on_c, 7, 71, 120
14, 14769, Note_on_c, 7, 71, 0
14, 14880, Note_on_c, 7, 74, 120
14, 15032, Note_on_c, 7, 74, 0
14, 15070, Note_on_c, 7, 76, 120
14, 15247, Note_on_c, 7, 70, 120
14, 15318, Note_on_c, 7, 70, 0
14, 15350, Note_on_c, 7, 72, 120
14, 15356, Note_on_c, 7, 76, 0
14, 15599, Note_on_c, 7, 77, 120
14, 15726, Note_on_c, 7, 81, 120
14, 15770, Note_on_c, 7, 72, 0
14, 15783, Note_on_c, 7, 77, 0
14, 15801, Note_on_c, 7, 81, 0
14, 15908, Note_on_c, 7, 70, 120
14, 15974, Note_on_c, 7, 70, 0
14, 15990, Note_on_c, 7, 69, 120
14, 16014, Note_on_c, 7, 69, 0
14, 16020, Note_on_c, 7, 74, 120
14, 16092, Note_on_c, 7, 74, 0
14, 16110, Note_on_c, 7, 79, 120
14, 16328, Note_on_c, 7, 79, 0
14, 16383, Note_on_c, 7, 72, 120
14, 16390, Note_on_c, 7, 77, 120
14, 16561, Note_on_c, 7, 81, 120
14, 16574, Note_on_c, 7, 81, 0
14, 16623, Note_on_c, 7, 84, 120
14, 16687, Note_on_c, 7, 84, 0
14, 16717, Note_on_c, 7, 81, 120
14, 16756, Note_on_c, 7, 81, 0
14, 16806, Note_on_c, 7, 88, 120
14, 16873, Note_on_c, 7, 88, 0
14, 16890, Note_on_c, 7, 86, 120
14, 16900, Note_on_c, 7, 77, 0
14, 16908, Note_on_c, 7, 72, 0
14, 17060, Note_on_c, 7, 86, 0
14, 17102, Note_on_c, 7, 84, 120
14, 17102, Note_on_c, 7, 86, 120
14, 17172, Note_on_c, 7, 86, 0
14, 17172, Note_on_c, 7, 84, 0
14, 17190, Note_on_c, 7, 79, 120
14, 17214, Note_on_c, 7, 79, 0
14, 17220, Note_on_c, 7, 86, 120
14, 17271, Note_on_c, 7, 86, 0
14, 17284, Note_on_c, 7, 79, 120
14, 17425, Note_on_c, 7, 79, 0
14, 17460, Note_on_c, 7, 77, 120
14, 17693, Note_on_c, 7, 77, 0
14, 17760, Note_on_c, 7, 81, 120
14, 17829, Note_on_c, 7, 81, 0
14, 17846, Note_on_c, 7, 76, 120
14, 17891, Note_on_c, 7, 76, 0
14, 17997, Note_on_c, 7, 72, 120
14, 18073, Note_on_c, 7, 72, 0
14, 18073, Note_on_c, 7, 78, 120
14, 18097, Note_on_c, 7, 72, 120
14, 18135, Note_on_c, 7, 72, 0
14, 18137, Note_on_c, 7, 78, 0
14, 18167, Note_on_c, 7, 72, 120
14, 18206, Note_on_c, 7, 72, 0
14, 18243, Note_on_c, 7, 69, 120
14, 18243, Note_on_c, 7, 74, 120
14, 18409, Note_on_c, 7, 74, 0
14, 18409, Note_on_c, 7, 69, 0
14, 18450, Note_on_c, 7, 77, 120
14, 18690, Note_on_c, 7, 77, 0
14, 18750, Note_on_c, 7, 72, 120
14, 18763, Note_on_c, 7, 72, 0
14, 18766, Note_on_c, 7, 72, 120
14, 18847, Note_on_c, 7, 76, 120
14, 18860, Note_on_c, 7, 72, 0
14, 18969, Note_on_c, 7, 76, 0
14, 19020, Note_on_c, 7, 79, 120
14, 19090, Note_on_c, 7, 79, 0
14, 19110, Note_on_c, 7, 76, 120
14, 19128, Note_on_c, 7, 76, 0
14, 19132, Note_on_c, 7, 72, 120
14, 19201, Note_on_c, 7, 72, 0
14, 19263, Note_on_c, 7, 81, 120
14, 19322, Note_on_c, 7, 81, 0
14, 19347, Note_on_c, 7, 77, 120
14, 19396, Note_on_c, 7, 74, 120
14, 19460, Note_on_c, 7, 74, 0
14, 19460, Note_on_c, 7, 71, 120
14, 19461, Note_on_c, 7, 77, 0
14, 19565, Note_on_c, 7, 71, 0
14, 19628, Note_on_c, 7, 71, 120
14, 19679, Note_on_c, 7, 71, 0
14, 19755, Note_on_c, 7, 69, 120
14, 19815, Note_on_c, 7, 69, 0
14, 19830, Note_on_c, 7, 79, 120
14, 19895, Note_on_c, 7, 79, 0
14, 19911, Note_on_c, 7, 76, 120
14, 19950, Note_on_c, 7, 76, 0
14, 20019, Note_on_c, 7, 83, 120
14, 20100, Note_on_c, 7, 83, 0
14, 20137, Note_on_c, 7, 86, 120
14, 20270, Note_on_c, 7, 84, 120
14, 20290, Note_on_c, 7, 86, 0
14, 20340, Note_on_c, 7, 84, 0
14, 20340, Note_on_c, 7, 81, 120
14, 20391, Note_on_c, 7, 81, 0
14, 20391, Note_on_c, 7, 83, 120
14, 20428, Note_on_c, 7, 83, 0
14, 20435, Note_on_c, 7, 79, 120
14, 20479, Note_on_c, 7, 79, 0
14, 20585, Note_on_c, 7, 74, 120
14, 20642, Note_on_c, 7, 74, 0
14, 30420, Note_on_c, 7, 72, 120
14, 30684, Note_on_c, 7, 72, 0
14, 30750, Note_on_c, 7, 74, 120
14, 30866, Note_on_c, 7, 74, 0
14, 30895, Note_on_c, 7, 77, 120
14, 30957, Note_on_c, 7, 74, 120
14, 30959, Note_on_c, 7, 77, 0
14, 31093, Note_on_c, 7, 74, 0
14, 31140, Note_on_c, 7, 76, 120
14, 31212, Note_on_c, 7, 76, 0
14, 31230, Note_on_c, 7, 88, 120
14, 31307, Note_on_c, 7, 88, 0
14, 31326, Note_on_c, 7, 72, 120
14, 31390, Note_on_c, 7, 72, 0
14, 31414, Note_on_c, 7, 76, 120
14, 31606, Note_on_c, 7, 76, 0
14, 31668, Note_on_c, 7, 81, 120
14, 31774, Note_on_c, 7, 81, 0
14, 31800, Note_on_c, 7, 74, 120
14, 31872, Note_on_c, 7, 74, 0
14, 31890, Note_on_c, 7, 74, 120
14, 32100, Note_on_c, 7, 74, 0
14, 32153, Note_on_c, 7, 72, 120
14, 32196, Note_on_c, 7, 76, 120
14, 32285, Note_on_c, 7, 72, 0
14, 32401, Note_on_c, 7, 76, 0
14, 32463, Note_on_c, 7, 81, 120
14, 32590, Note_on_c, 7, 81, 0
14, 32653, Note_on_c, 7, 77, 120
14, 32653, Note_on_c, 7, 81, 120
14, 32787, Note_on_c, 7, 81, 0
14, 32787, Note_on_c, 7, 77, 0
14, 32820, Note_on_c, 7, 79, 120
14, 32916, Note_on_c, 7, 79, 0
14, 32940, Note_on_c, 7, 79, 120
14, 33036, Note_on_c, 7, 79, 0
14, 33060, Note_on_c, 7, 71, 120
14, 33073, Note_on_c, 7, 71, 0
14, 33116, Note_on_c, 7, 67, 120
14, 33237, Note_on_c, 7, 67, 0
14, 33242, Note_on_c, 7, 67, 120
14, 33312, Note_on_c, 7, 67, 0
14, 33330, Note_on_c, 7, 76, 120
14, 33406, Note_on_c, 7, 76, 0
14, 33425, Note_on_c, 7, 71, 120
14, 33489, Note_on_c, 7, 71, 0
14, 33607, Note_on_c, 7, 69, 120
14, 33787, Note_on_c, 7, 69, 0
14, 33840, Note_on_c, 7, 79, 120
14, 33897, Note_on_c, 7, 79, 0
14, 33911, Note_on_c, 7, 71, 120
14, 33969, Note_on_c, 7, 71, 0
14, 34080, Note_on_c, 7, 74, 120
14, 34232, Note_on_c, 7, 74, 0
14, 34270, Note_on_c, 7, 76, 120
14, 34447, Note_on_c, 7, 70, 120
14, 34518, Note_on_c, 7, 70, 0
14, 34550, Note_on_c, 7, 72, 120
14, 34556, Note_on_c, 7, 76, 0
14, 34799, Note_on_c, 7, 77, 120
14, 34926, Note_on_c, 7, 81, 120
14, 34970, Note_on_c, 7, 72, 0
14, 34983, Note_on_c, 7, 77, 0
14, 35001, Note_on_c, 7, 81, 0
14, 35108, Note_on_c, 7, 70, 120
14, 35174, Note_on_c, 7, 70, 0
14, 35190, Note_on_c, 7, 69, 120
14, 35214, Note_on_c, 7, 69, 0
14, 35220, Note_on_c, 7, 74, 120
14, 35292, Note_on_c, 7, 74, 0
14, 35310, Note_on_c, 7, 79, 120
14, 35528, Note_on_c, 7, 79, 0
14, 35583, Note_on_c, 7, 72, 120
14, 35590, Note_on_c, 7, 77, 120
14, 35761, Note_on_c, 7, 81, 120
14, 35774, Note_on_c, 7, 81, 0
14, 35823, Note_on_c, 7, 84, 120
14, 35887, Note_on_c, 7, 84, 0
14, 35917, Note_on_c, 7, 81, 120
14, 35956, Note_on_c, 7, 81, 0
14, 36006, Note_on_c, 7, 88, 120
14, 36073, Note_on_c, 7, 88, 0
14, 36090, Note_on_c, 7, 86, 120
14, 36100, Note_on_c, 7, 77, 0
14, 36108, Note_on_c, 7, 72, 0
14, 36260, Note_on_c, 7, 86, 0
14, 36302, Note_on_c, 7, 84, 120
14, 36302, Note_on_c, 7, 86, 120
14, 36372, Note_on_c, 7, 86, 0
14, 36372, Note_on_c, 7, 84, 0
14, 36390, Note_on_c, 7, 79, 120
14, 36414, Note_on_c, 7, 79, 0
14, 36420, Note_on_c, 7, 86, 120
14, 36471, Note_on_c, 7, 86, 0
14, 36484, Note_on_c, 7, 79, 120
14, 36625, Note_on_c, 7, 79, 0
14, 36660, Note_on_c, 7, 77, 120
14, 36893, Note_on_c, 7, 77, 0
14, 36960, Note_on_c, 7, 81, 120
14, 37029, Note_on_c, 7, 81, 0
14, 37046, Note_on_c, 7, 76, 120
14, 37091, Note_on_c, 7, 76, 0
14, 37197, Note_on_c, 7, 72, 120
14, 37273, Note_on_c, 7, 72, 0
14, 37273, Note_on_c, 7, 78, 120
14, 37297, Note_on_c, 7, 72, 120
14, 37335, Note_on_c, 7, 72, 0
14, 37337, Note_on_c, 7, 78, 0
14, 37367, Note_on_c, 7, 72, 120
14, 37406, Note_on_c, 7, 72, 0
14, 37443, Note_on_c, 7, 69, 120
14, 37443, Note_on_c, 7, 74, 120
14, 37609, Note_on_c, 7, 74, 0
14, 37609, Note_on_c, 7, 69, 0
14, 37650, Note_on_c, 7, 77, 120
14, 37890, Note_on_c, 7, 77, 0
14, 37950, Note_on_c, 7, 72, 120
14, 37963, Note_on_c, 7, 72, 0
14, 37966, Note_on_c, 7, 72, 120
14, 38047, Note_on_c, 7, 76, 120
14, 38060, Note_on_c, 7, 72, 0
14, 38169, Note_on_c, 7, 76, 0
14, 38220, Note_on_c, 7, 79, 120
14, 38290, Note_on_c, 7, 79, 0
14, 38310, Note_on_c, 7, 76, 120
14, 38328, Note_on_c, 7, 76, 0
14, 38332, Note_on_c, 7, 72, 120
14, 38401, Note_on_c, 7, 72, 0
14, 38463, Note_on_c, 7, 81, 120
14, 38522, Note_on_c, 7, 81, 0
14, 38547, Note_on_c, 7, 77, 120
14, 38596, Note_on_c, 7, 74, 120
14, 38660, Note_on_c, 7, 74, 0
14, 38660, Note_on_c, 7, 71, 120
14, 38661, Note_on_c, 7, 77, 0
14, 38765, Note_on_c, 7, 71, 0
14, 38828, Note_on_c, 7, 71, 120
14, 38879, Note_on_c, 7, 71, 0
14, 38955, Note_on_c, 7, 69, 120
14, 39015, Note_on_c, 7, 69, 0
14, 39030, Note_on_c, 7, 79, 120
14, 39095, Note_on_c, 7, 79, 0
14, 39111, Note_on_c, 7, 76, 120
14, 39150, Note_on_c, 7, 76, 0
14, 39219, Note_on_c, 7, 83, 120
14, 39300, Note_on_c, 7, 83, 0
14, 39337, Note_on_c, 7, 86, 120
14, 39470, Note_on_c, 7, 84, 120
14, 39490, Note_on_c, 7, 86, 0
14, 39540, Note_on_c, 7, 84, 0
14, 39540, Note_on_c, 7, 81, 120
14, 39591, Note_on_c, 7, 81, 0
14, 39591, Note_on_c, 7, 83, 120
14, 39628, Note_on_c, 7, 83, 0
14, 39635, Note_on_c, 7, 79, 120
14, 39679, Note_on_c, 7, 79, 0
14, 39785, Note_on_c, 7, 74, 120
14, 39842, Note_on_c, 7, 74, 0
14, 49545, Note_on_c, 7, 69, 120
14, 49703, Note_on_c, 7, 69, 0
14, 49787, Note_on_c, 7, 69, 120
14, 49801, Note_on_c, 7, 76, 120
14, 49859, Note_on_c, 7, 69, 0
14, 49890, Note_on_c, 7, 76, 0
14, 49990, Note_on_c, 7, 84, 120
14, 50054, Note_on_c, 7, 84, 0
14, 50070, Note_on_c, 7, 86, 120
14, 50094, Note_on_c, 7, 86, 0
14, 50100, Note_on_c, 7, 74, 120
14, 50340, Note_on_c, 7, 74, 0
14, 50400, Note_on_c, 7, 84, 120
14, 51168, Note_on_c, 7, 84, 0
14, 51168, End_track
15, 0, Start_track
15, 0, MIDI_port, 0
15, 0, Title_t, "Strings"
15, 0, Program_c, 7, 48
15, 0, Control_c, 7, 7, 52
15, 0, Control_c, 7, 10, 64
15, 11220, Note_on_c, 7, 69, 120
15, 11484, Note_on_c, 7, 69, 0
15, 11550, Note_on_c, 7, 69, 120
15, 11666, Note_on_c, 7, 69, 0
15, 11695, Note_on_c, 7, 72, 120
15, 11757, Note_on_c, 7, 71, 120
15, 11759, Note_on_c, 7, 72, 0
15, 11893, Note_on_c, 7, 71, 0
15, 11940, Note_on_c, 7, 72, 120
15, 12012, Note_on_c, 7, 72, 0
15, 12030, Note_on_c, 7, 84, 120
15, 12107, Note_on_c, 7, 84, 0
15, 12126, Note_on_c, 7, 67, 120
15, 12190, Note_on_c, 7, 67, 0
15, 12214, Note_on_c, 7, 71, 120
15, 12406, Note_on_c, 7, 71, 0
15, 12468, Note_on_c, 7, 77, 120
15, 12574, Note_on_c, 7, 77, 0
15, 12600, Note_on_c, 7, 69, 120
15, 12672, Note_on_c, 7, 69, 0
15, 12690, Note_on_c, 7, 71, 120
15, 12900, Note_on_c, 7, 71, 0
15, 12953, Note_on_c, 7, 67, 120
15, 12996, Note_on_c, 7, 72, 120
15, 13085, Note_on_c, 7, 67, 0
15, 13201, Note_on_c, 7, 72, 0
15, 13263, Note_on_c, 7, 76, 120
15, 13390, Note_on_c, 7, 76, 0
15, 13453, Note_on_c, 7, 72, 120
15, 13453, Note_on_c, 7, 77, 120
15, 13587, Note_on_c, 7, 77, 0
15, 13587, Note_on_c, 7, 72, 0
15, 13620, Note_on_c, 7, 74, 120
15, 13716, Note_on_c, 7, 74, 0
15, 13740, Note_on_c, 7, 74, 120
15, 13836, Note_on_c, 7, 74, 0
15, 13860, Note_on_c, 7, 65, 120
15, 13873, Note_on_c, 7, 65, 0
15, 13916, Note_on_c, 7, 64, 120
15, 14037, Note_on_c, 7, 64, 0
15, 14042, Note_on_c, 7, 64, 120
15, 14112, Note_on_c, 7, 64, 0
15, 14130, Note_on_c, 7, 71, 120
15, 14206, Note_on_c, 7, 71, 0
15, 14225, Note_on_c, 7, 67, 120
15, 14289, Note_on_c, 7, 67, 0
15, 14407, Note_on_c, 7, 65, 120
15, 14587, Note_on_c, 7, 65, 0
15, 14640, Note_on_c, 7, 74, 120
15, 14697, Note_on_c, 7, 74, 0
15, 14711, Note_on_c, 7, 65, 120
15, 14769, Note_on_c, 7, 65, 0
15, 14880, Note_on_c, 7, 70, 120
15, 15032, Note_on_c, 7, 70, 0
15, 15070, Note_on_c, 7, 70, 120
15, 15247, Note_on_c, 7, 67, 120
15, 15318, Note_on_c, 7, 67, 0
15, 15350, Note_on_c, 7, 69, 120
15, 15356, Note_on_c, 7, 70, 0
15, 15599, Note_on_c, 7, 72, 120
15, 15726, Note_on_c, 7, 77, 120
15, 15770, Note_on_c, 7, 69, 0
15, 15783, Note_on_c, 7, 72, 0
15, 15801, Note_on_c, 7, 77, 0
15, 15908, Note_on_c, 7, 65, 120
15, 15974, Note_on_c, 7, 65, 0
15, 15990, Note_on_c, 7, 65, 120
15, 16014, Note_on_c, 7, 65, 0
15, 16020, Note_on_c, 7, 69, 120
15, 16092, Note_on_c, 7, 69, 0
15, 16110, Note_on_c, 7, 76, 120
15, 16317, Note_on_c, 7, 76, 0
15, 16322, Note_on_c, 7, 72, 120
15, 16328, Note_on_c, 7, 72, 0
15, 16383, Note_on_c, 7, 69, 120
15, 16390, Note_on_c, 7, 72, 120
15, 16561, Note_on_c, 7, 77, 120
15, 16574, Note_on_c, 7, 77, 0
15, 16623, Note_on_c, 7, 81, 120
15, 16687, Note_on_c, 7, 81, 0
15, 16717, Note_on_c, 7, 77, 120
15, 16756, Note_on_c, 7, 77, 0
15, 16806, Note_on_c, 7, 84, 120
15, 16873, Note_on_c, 7, 84, 0
15, 16890, Note_on_c, 7, 81, 120
15, 16900, Note_on_c, 7, 72, 0
15, 16908, Note_on_c, 7, 69, 0
15, 17060, Note_on_c, 7, 81, 0
15, 17102, Note_on_c, 7, 81, 120
15, 17102, Note_on_c, 7, 81, 120
15, 17172, Note_on_c, 7, 81, 0
15, 17172, Note_on_c, 7, 81, 0
15, 17190, Note_on_c, 7, 74, 120
15, 17214, Note_on_c, 7, 74, 0
15, 17220, Note_on_c, 7, 81, 120
15, 17271, Note_on_c, 7, 81, 0
15, 17284, Note_on_c, 7, 74, 120
15, 17425, Note_on_c, 7, 74, 0
15, 17460, Note_on_c, 7, 74, 120
15, 17693, Note_on_c, 7, 74, 0
15, 17760, Note_on_c, 7, 76, 120
15, 17829, Note_on_c, 7, 76, 0
15, 17846, Note_on_c, 7, 72, 120
15, 17891, Note_on_c, 7, 72, 0
15, 17997, Note_on_c, 7, 69, 120
15, 18073, Note_on_c, 7, 69, 0
15, 18073, Note_on_c, 7, 72, 120
15, 18097, Note_on_c, 7, 69, 120
15, 18135, Note_on_c, 7, 69, 0
15, 18137, Note_on_c, 7, 72, 0
15, 18167, Note_on_c, 7, 69, 120
15, 18206, Note_on_c, 7, 69, 0
15, 18243, Note_on_c, 7, 65, 120
15, 18243, Note_on_c, 7, 69, 120
15, 18409, Note_on_c, 7, 69, 0
15, 18409, Note_on_c, 7, 65, 0
15, 18450, Note_on_c, 7, 74, 120
15, 18690, Note_on_c, 7, 74, 0
15, 18750, Note_on_c, 7, 67, 120
15, 18763, Note_on_c, 7, 67, 0
15, 18766, Note_on_c, 7, 67, 120
15, 18847, Note_on_c, 7, 72, 120
15, 18860, Note_on_c, 7, 67, 0
15, 18969, Note_on_c, 7, 72, 0
15, 19020, Note_on_c, 7, 76, 120
15, 19090, Note_on_c, 7, 76, 0
15, 19110, Note_on_c, 7, 72, 120
15, 19128, Note_on_c, 7, 72, 0
15, 19132, Note_on_c, 7, 69, 120
15, 19201, Note_on_c, 7, 69, 0
15, 19263, Note_on_c, 7, 77, 120
15, 19322, Note_on_c, 7, 77, 0
15, 19347, Note_on_c, 7, 72, 120
15, 19396, Note_on_c, 7, 71, 120
15, 19460, Note_on_c, 7, 71, 0
15, 19460, Note_on_c, 7, 65, 120
15, 19461, Note_on_c, 7, 72, 0
15, 19565, Note_on_c, 7, 65, 0
15, 19628, Note_on_c, 7, 64, 120
15, 19679, Note_on_c, 7, 64, 0
15, 19755, Note_on_c, 7, 65, 120
15, 19815, Note_on_c, 7, 65, 0
15, 19830, Note_on_c, 7, 76, 120
15, 19895, Note_on_c, 7, 76, 0
15, 19911, Note_on_c, 7, 71, 120
15, 19950, Note_on_c, 7, 71, 0
15, 20019, Note_on_c, 7, 79, 120
15, 20100, Note_on_c, 7, 79, 0
15, 20137, Note_on_c, 7, 81, 120
15, 20270, Note_on_c, 7, 81, 120
15, 20290, Note_on_c, 7, 81, 0
15, 20340, Note_on_c, 7, 81, 0
15, 20340, Note_on_c, 7, 77, 120
15, 20391, Note_on_c, 7, 77, 0
15, 20391, Note_on_c, 7, 77, 120
15, 20428, Note_on_c, 7, 77, 0
15, 20435, Note_on_c, 7, 74, 120
15, 20479, Note_on_c, 7, 74, 0
15, 20585, Note_on_c, 7, 67, 120
15, 20642, Note_on_c, 7, 67, 0
15, 30420, Note_on_c, 7, 69, 120
15, 30684, Note_on_c, 7, 69, 0
15, 30750, Note_on_c, 7, 69, 120
15, 30866, Note_on_c, 7, 69, 0
15, 30895, Note_on_c, 7, 72, 120
15, 30957, Note_on_c, 7, 71, 120
15, 30959, Note_on_c, 7, 72, 0
15, 31093, Note_on_c, 7, 71, 0
15, 31140, Note_on_c, 7, 72, 120
15, 31212, Note_on_c, 7, 72, 0
15, 31230, Note_on_c, 7, 84, 120
15, 31307, Note_on_c, 7, 84, 0
15, 31326, Note_on_c, 7, 67, 120
15, 31390, Note_on_c, 7, 67, 0
15, 31414, Note_on_c, 7, 71, 120
15, 31606, Note_on_c, 7, 71, 0
15, 31668, Note_on_c, 7, 77, 120
15, 31774, Note_on_c, 7, 77, 0
15, 31800, Note_on_c, 7, 69, 120
15, 31872, Note_on_c, 7, 69, 0
15, 31890, Note_on_c, 7, 71, 120
15, 32100, Note_on_c, 7, 71, 0
15, 32153, Note_on_c, 7, 67, 120
15, 32196, Note_on_c, 7, 72, 120
15, 32285, Note_on_c, 7, 67, 0
15, 32401, Note_on_c, 7, 72, 0
15, 32463, Note_on_c, 7, 76, 120
15, 32590, Note_on_c, 7, 76, 0
15, 32653, Note_on_c, 7, 72, 120
15, 32653, Note_on_c, 7, 77, 120
15, 32787, Note_on_c, 7, 77, 0
15, 32787, Note_on_c, 7, 72, 0
15, 32820, Note_on_c, 7, 74, 120
15, 32916, Note_on_c, 7, 74, 0
15, 32940, Note_on_c, 7, 74, 120
15, 33036, Note_on_c, 7, 74, 0
15, 33060, Note_on_c, 7, 65, 120
15, 33073, Note_on_c, 7, 65, 0
15, 33116, Note_on_c, 7, 64, 120
15, 33237, Note_on_c, 7, 64, 0
15, 33242, Note_on_c, 7, 64, 120
15, 33312, Note_on_c, 7, 64, 0
15, 33330, Note_on_c, 7, 71, 120
15, 33406, Note_on_c, 7, 71, 0
15, 33425, Note_on_c, 7, 67, 120
15, 33489, Note_on_c, 7, 67, 0
15, 33607, Note_on_c, 7, 65, 120
15, 33787, Note_on_c, 7, 65, 0
15, 33840, Note_on_c, 7, 74, 120
15, 33897, Note_on_c, 7, 74, 0
15, 33911, Note_on_c, 7, 65, 120
15, 33969, Note_on_c, 7, 65, 0
15, 34080, Note_on_c, 7, 70, 120
15, 34232, Note_on_c, 7, 70, 0
15, 34270, Note_on_c, 7, 70, 120
15, 34447, Note_on_c, 7, 67, 120
15, 34518, Note_on_c, 7, 67, 0
15, 34550, Note_on_c, 7, 69, 120
15, 34556, Note_on_c, 7, 70, 0
15, 34799, Note_on_c, 7, 72, 120
15, 34926, Note_on_c, 7, 77, 120
15, 34970, Note_on_c, 7, 69, 0
15, 34983, Note_on_c, 7, 72, 0
15, 35001, Note_on_c, 7, 77, 0
15, 35108, Note_on_c, 7, 65, 120
15, 35174, Note_on_c, 7, 65, 0
15, 35190, Note_on_c, 7, 65, 120
15, 35214, Note_on_c, 7, 65, 0
15, 35220, Note_on_c, 7, 69, 120
15, 35292, Note_on_c, 7, 69, 0
15, 35310, Note_on_c, 7, 76, 120
15, 35517, Note_on_c, 7, 76, 0
15, 35522, Note_on_c, 7, 72, 120
15, 35528, Note_on_c, 7, 72, 0
15, 35583, Note_on_c, 7, 69, 120
15, 35590, Note_on_c, 7, 72, 120
15, 35761, Note_on_c, 7, 77, 120
15, 35774, Note_on_c, 7, 77, 0
15, 35823, Note_on_c, 7, 81, 120
15, 35887, Note_on_c, 7, 81, 0
15, 35917, Note_on_c, 7, 77, 120
15, 35956, Note_on_c, 7, 77, 0
15, 36006, Note_on_c, 7, 84, 120
15, 36073, Note_on_c, 7, 84, 0
15, 36090, Note_on_c, 7, 81, 120
15, 36100, Note_on_c, 7, 72, 0
15, 36108, Note_on_c, 7, 69, 0
15, 36260, Note_on_c, 7, 81, 0
15, 36302, Note_on_c, 7, 81, 120
15, 36302, Note_on_c, 7, 81, 120
15, 36372, Note_on_c, 7, 81, 0
15, 36372, Note_on_c, 7, 81, 0
15, 36390, Note_on_c, 7, 74, 120
15, 36414, Note_on_c, 7, 74, 0
15, 36420, Note_on_c, 7, 81, 120
15, 36471, Note_on_c, 7, 81, 0
15, 36484, Note_on_c, 7, 74, 120
15, 36625, Note_on_c, 7, 74, 0
15, 36660, Note_on_c, 7, 74, 120
15, 36893, Note_on_c, 7, 74, 0
15, 36960, Note_on_c, 7, 76, 120
15, 37029, Note_on_c, 7, 76, 0
15, 37046, Note_on_c, 7, 72, 120
15, 37091, Note_on_c, 7, 72, 0
15, 37197, Note_on_c, 7, 69, 120
15, 37273, Note_on_c, 7, 69, 0
15, 37273, Note_on_c, 7, 72, 120
15, 37297, Note_on_c, 7, 69, 120
15, 37335, Note_on_c, 7, 69, 0
15, 37337, Note_on_c, 7, 72, 0
15, 37367, Note_on_c, 7, 69, 120
15, 37406, Note_on_c, 7, 69, 0
15, 37443, Note_on_c, 7, 65, 120
15, 37443, Note_on_c, 7, 69, 120
15, 37609, Note_on_c, 7, 69, 0
15, 37609, Note_on_c, 7, 65, 0
15, 37650, Note_on_c, 7, 74, 120
15, 37890, Note_on_c, 7, 74, 0
15, 37950, Note_on_c, 7, 67, 120
15, 37963, Note_on_c, 7, 67, 0
15, 37966, Note_on_c, 7, 67, 120
15, 38047, Note_on_c, 7, 72, 120
15, 38060, Note_on_c, 7, 67, 0
15, 38169, Note_on_c, 7, 72, 0
15, 38220, Note_on_c, 7, 76, 120
15, 38290, Note_on_c, 7, 76, 0
15, 38310, Note_on_c, 7, 72, 120
15, 38328, Note_on_c, 7, 72, 0
15, 38332, Note_on_c, 7, 69, 120
15, 38401, Note_on_c, 7, 69, 0
15, 38463, Note_on_c, 7, 77, 120
15, 38522, Note_on_c, 7, 77, 0
15, 38547, Note_on_c, 7, 72, 120
15, 38596, Note_on_c, 7, 71, 120
15, 38660, Note_on_c, 7, 71, 0
15, 38660, Note_on_c, 7, 65, 120
15, 38661, Note_on_c, 7, 72, 0
15, 38765, Note_on_c, 7, 65, 0
15, 38828, Note_on_c, 7, 64, 120
15, 38879, Note_on_c, 7, 64, 0
15, 38955, Note_on_c, 7, 65, 120
15, 39015, Note_on_c, 7, 65, 0
15, 39030, Note_on_c, 7, 76, 120
15, 39095, Note_on_c, 7, 76, 0
15, 39111, Note_on_c, 7, 71, 120
15, 39150, Note_on_c, 7, 71, 0
15, 39219, Note_on_c, 7, 79, 120
15, 39300, Note_on_c, 7, 79, 0
15, 39337, Note_on_c, 7, 81, 120
15, 39470, Note_on_c, 7, 81, 120
15, 39490, Note_on_c, 7, 81, 0
15, 39540, Note_on_c, 7, 81, 0
15, 39540, Note_on_c, 7, 77, 120
15, 39591, Note_on_c, 7, 77, 0
15, 39591, Note_on_c, 7, 77, 120
15, 39628, Note_on_c, 7, 77, 0
15, 39635, Note_on_c, 7, 74, 120
15, 39679, Note_on_c, 7, 74, 0
15, 39785, Note_on_c, 7, 67, 120
15, 39842, Note_on_c, 7, 67, 0
15, 49545, Note_on_c, 7, 64, 120
15, 49703, Note_on_c, 7, 64, 0
15, 49787, Note_on_c, 7, 64, 120
15, 49801, Note_on_c, 7, 72, 120
15, 49859, Note_on_c, 7, 64, 0
15, 49890, Note_on_c, 7, 72, 0
15, 49990, Note_on_c, 7, 81, 120
15, 50054, Note_on_c, 7, 81, 0
15, 50070, Note_on_c, 7, 81, 120
15, 50094, Note_on_c, 7, 81, 0
15, 50100, Note_on_c, 7, 69, 120
15, 50340, Note_on_c, 7, 69, 0
15, 50400, Note_on_c, 7, 79, 120
15, 51168, Note_on_c, 7, 79, 0
15, 51168, End_track
16, 0, Start_track
16, 0, MIDI_port, 0
16, 0, Title_t, "Strings"
16, 0, Program_c, 7, 48
16, 0, Control_c, 7, 7, 52
16, 0, Control_c, 7, 10, 64
16, 11220, Note_on_c, 7, 64, 120
16, 11484, Note_on_c, 7, 64, 0
16, 11550, Note_on_c, 7, 65, 120
16, 11666, Note_on_c, 7, 65, 0
16, 11695, Note_on_c, 7, 69, 120
16, 11757, Note_on_c, 7, 65, 120
16, 11759, Note_on_c, 7, 69, 0
16, 11893, Note_on_c, 7, 65, 0
16, 11940, Note_on_c, 7, 67, 120
16, 12012, Note_on_c, 7, 67, 0
16, 12030, Note_on_c, 7, 79, 120
16, 12107, Note_on_c, 7, 79, 0
16, 12126, Note_on_c, 7, 64, 120
16, 12190, Note_on_c, 7, 64, 0
16, 12214, Note_on_c, 7, 67, 120
16, 12406, Note_on_c, 7, 67, 0
16, 12468, Note_on_c, 7, 72, 120
16, 12574, Note_on_c, 7, 72, 0
16, 12600, Note_on_c, 7, 65, 120
16, 12672, Note_on_c, 7, 65, 0
16, 12690, Note_on_c, 7, 65, 120
16, 12900, Note_on_c, 7, 65, 0
16, 12953, Note_on_c, 7, 64, 120
16, 12996, Note_on_c, 7, 67, 120
16, 13085, Note_on_c, 7, 64, 0
16, 13201, Note_on_c, 7, 67, 0
16, 13263, Note_on_c, 7, 72, 120
16, 13390, Note_on_c, 7, 72, 0
16, 13453, Note_on_c, 7, 69, 120
16, 13453, Note_on_c, 7, 72, 120
16, 13587, Note_on_c, 7, 72, 0
16, 13587, Note_on_c, 7, 69, 0
16, 13620, Note_on_c, 7, 71, 120
16, 13716, Note_on_c, 7, 71, 0
16, 13740, Note_on_c, 7, 71, 120
16, 13836, Note_on_c, 7, 71, 0
16, 13860, Note_on_c, 7, 62, 120
16, 13873, Note_on_c, 7, 62, 0
16, 13916, Note_on_c, 7, 60, 120
16, 14037, Note_on_c, 7, 60, 0
16, 14042, Note_on_c, 7, 60, 120
16, 14112, Note_on_c, 7, 60, 0
16, 14130, Note_on_c, 7, 67, 120
16, 14206, Note_on_c, 7, 67, 0
16, 14225, Note_on_c, 7, 64, 120
16, 14289, Note_on_c, 7, 64, 0
16, 14407, Note_on_c, 7, 60, 120
16, 14587, Note_on_c, 7, 60, 0
16, 14640, Note_on_c, 7, 71, 120
16, 14697, Note_on_c, 7, 71, 0
16, 14711, Note_on_c, 7, 62, 120
16, 14769, Note_on_c, 7, 62, 0
16, 14880, Note_on_c, 7, 65, 120
16, 15032, Note_on_c, 7, 65, 0
16, 15070, Note_on_c, 7, 67, 120
16, 15247, Note_on_c, 7, 64, 120
16, 15318, Note_on_c, 7, 64, 0
16, 15350, Note_on_c, 7, 65, 120
16, 15356, Note_on_c, 7, 67, 0
16, 15599, Note_on_c, 7, 69, 120
16, 15726, Note_on_c, 7, 72, 120
16, 15770, Note_on_c, 7, 65, 0
16, 15783, Note_on_c, 7, 69, 0
16, 15801, Note_on_c, 7, 72, 0
16, 15908, Note_on_c, 7, 62, 120
16, 15974, Note_on_c, 7, 62, 0
16, 15990, Note_on_c, 7, 58, 120
16, 16014, Note_on_c, 7, 58, 0
16, 16020, Note_on_c, 7, 65, 120
16, 16092, Note_on_c, 7, 65, 0
16, 16110, Note_on_c, 7, 70, 120
16, 16317, Note_on_c, 7, 70, 0
16, 16322, Note_on_c, 7, 69, 120
16, 16328, Note_on_c, 7, 69, 0
16, 16383, Note_on_c, 7, 65, 120
16, 16390, Note_on_c, 7, 69, 120
16, 16561, Note_on_c, 7, 72, 120
16, 16574, Note_on_c, 7, 72, 0
16, 16623, Note_on_c, 7, 77, 120
16, 16687, Note_on_c, 7, 77, 0
16, 16717, Note_on_c, 7, 72, 120
16, 16756, Note_on_c, 7, 72, 0
16, 16802, Note_on_c, 7, 64, 120
16, 16802, Note_on_c, 7, 64, 0
16, 16806, Note_on_c, 7, 81, 120
16, 16873, Note_on_c, 7, 81, 0
16, 16890, Note_on_c, 7, 76, 120
16, 16900, Note_on_c, 7, 69, 0
16, 16908, Note_on_c, 7, 65, 0
16, 17037, Note_on_c, 7, 76, 0
16, 17042, Note_on_c, 7, 78, 120
16, 17060, Note_on_c, 7, 78, 0
16, 17102, Note_on_c, 7, 78, 120
16, 17102, Note_on_c, 7, 78, 120
16, 17172, Note_on_c, 7, 78, 0
16, 17172, Note_on_c, 7, 78, 0
16, 17190, Note_on_c, 7, 71, 120
16, 17214, Note_on_c, 7, 71, 0
16, 17220, Note_on_c, 7, 78, 120
16, 17271, Note_on_c, 7, 78, 0
16, 17284, Note_on_c, 7, 71, 120
16, 17425, Note_on_c, 7, 71, 0
16, 17460, Note_on_c, 7, 71, 120
16, 17693, Note_on_c, 7, 71, 0
16, 17760, Note_on_c, 7, 72, 120
16, 17829, Note_on_c, 7, 72, 0
16, 17846, Note_on_c, 7, 67, 120
16, 17891, Note_on_c, 7, 67, 0
16, 17997, Note_on_c, 7, 66, 120
16, 18073, Note_on_c, 7, 66, 0
16, 18073, Note_on_c, 7, 69, 120
16, 18097, Note_on_c, 7, 66, 120
16, 18135, Note_on_c, 7, 66, 0
16, 18137, Note_on_c, 7, 69, 0
16, 18167, Note_on_c, 7, 66, 120
16, 18206, Note_on_c, 7, 66, 0
16, 18243, Note_on_c, 7, 60, 120
16, 18243, Note_on_c, 7, 65, 120
16, 18409, Note_on_c, 7, 65, 0
16, 18409, Note_on_c, 7, 60, 0
16, 18450, Note_on_c, 7, 71, 120
16, 18690, Note_on_c, 7, 71, 0
16, 18750, Note_on_c, 7, 64, 120
16, 18763, Note_on_c, 7, 64, 0
16, 18766, Note_on_c, 7, 64, 120
16, 18847, Note_on_c, 7, 67, 120
16, 18860, Note_on_c, 7, 64, 0
16, 18957, Note_on_c, 7, 67, 0
16, 19020, Note_on_c, 7, 72, 120
16, 19090, Note_on_c, 7, 72, 0
16, 19110, Note_on_c, 7, 69, 120
16, 19128, Note_on_c, 7, 69, 0
16, 19132, Note_on_c, 7, 65, 120
16, 19201, Note_on_c, 7, 65, 0
16, 19263, Note_on_c, 7, 72, 120
16, 19322, Note_on_c, 7, 72, 0
16, 19347, Note_on_c, 7, 69, 120
16, 19396, Note_on_c, 7, 65, 120
16, 19460, Note_on_c, 7, 65, 0
16, 19460, Note_on_c, 7, 62, 120
16, 19461, Note_on_c, 7, 69, 0
16, 19565, Note_on_c, 7, 62, 0
16, 19628, Note_on_c, 7, 67, 120
16, 19679, Note_on_c, 7, 67, 0
16, 19755, Note_on_c, 7, 62, 120
16, 19815, Note_on_c, 7, 62, 0
16, 19830, Note_on_c, 7, 72, 120
16, 19895, Note_on_c, 7, 72, 0
16, 19911, Note_on_c, 7, 67, 120
16, 19950, Note_on_c, 7, 67, 0
16, 20019, Note_on_c, 7, 76, 120
16, 20100, Note_on_c, 7, 76, 0
16, 20137, Note_on_c, 7, 77, 120
16, 20270, Note_on_c, 7, 77, 120
16, 20290, Note_on_c, 7, 77, 0
16, 20340, Note_on_c, 7, 77, 0
16, 20340, Note_on_c, 7, 72, 120
16, 20391, Note_on_c, 7, 72, 0
16, 20391, Note_on_c, 7, 74, 120
16, 20428, Note_on_c, 7, 74, 0
16, 20435, Note_on_c, 7, 71, 120
16, 20479, Note_on_c, 7, 71, 0
16, 20585, Note_on_c, 7, 64, 120
16, 20642, Note_on_c, 7, 64, 0
16, 30420, Note_on_c, 7, 64, 120
16, 30684, Note_on_c, 7, 64, 0
16, 30750, Note_on_c, 7, 65, 120
16, 30866, Note_on_c, 7, 65, 0
16, 30895, Note_on_c, 7, 69, 120
16, 30957, Note_on_c, 7, 65, 120
16, 30959, Note_on_c, 7, 69, 0
16, 31093, Note_on_c, 7, 65, 0
16, 31140, Note_on_c, 7, 67, 120
16, 31212, Note_on_c, 7, 67, 0
16, 31230, Note_on_c, 7, 79, 120
16, 31307, Note_on_c, 7, 79, 0
16, 31326, Note_on_c, 7, 64, 120
16, 31390, Note_on_c, 7, 64, 0
16, 31414, Note_on_c, 7, 67, 120
16, 31606, Note_on_c, 7, 67, 0
16, 31668, Note_on_c, 7, 72, 120
16, 31774, Note_on_c, 7, 72, 0
16, 31800, Note_on_c, 7, 65, 120
16, 31872, Note_on_c, 7, 65, 0
16, 31890, Note_on_c, 7, 65, 120
16, 32100, Note_on_c, 7, 65, 0
16, 32153, Note_on_c, 7, 64, 120
16, 32196, Note_on_c, 7, 67, 120
16, 32285, Note_on_c, 7, 64, 0
16, 32401, Note_on_c, 7, 67, 0
16, 32463, Note_on_c, 7, 72, 120
16, 32590, Note_on_c, 7, 72, 0
16, 32653, Note_on_c, 7, 69, 120
16, 32653, Note_on_c, 7, 72, 120
16, 32787, Note_on_c, 7, 72, 0
16, 32787, Note_on_c, 7, 69, 0
16, 32820, Note_on_c, 7, 71, 120
16, 32916, Note_on_c, 7, 71, 0
16, 32940, Note_on_c, 7, 71, 120
16, 33036, Note_on_c, 7, 71, 0
16, 33060, Note_on_c, 7, 62, 120
16, 33073, Note_on_c, 7, 62, 0
16, 33116, Note_on_c, 7, 60, 120
16, 33237, Note_on_c, 7, 60, 0
16, 33242, Note_on_c, 7, 60, 120
16, 33312, Note_on_c, 7, 60, 0
16, 33330, Note_on_c, 7, 67, 120
16, 33406, Note_on_c, 7, 67, 0
16, 33425, Note_on_c, 7, 64, 120
16, 33489, Note_on_c, 7, 64, 0
16, 33607, Note_on_c, 7, 60, 120
16, 33787, Note_on_c, 7, 60, 0
16, 33840, Note_on_c, 7, 71, 120
16, 33897, Note_on_c, 7, 71, 0
16, 33911, Note_on_c, 7, 62, 120
16, 33969, Note_on_c, 7, 62, 0
16, 34080, Note_on_c, 7, 65, 120
16, 34232, Note_on_c, 7, 65, 0
16, 34270, Note_on_c, 7, 67, 120
16, 34447, Note_on_c, 7, 64, 120
16, 34518, Note_on_c, 7, 64, 0
16, 34550, Note_on_c, 7, 65, 120
16, 34556, Note_on_c, 7, 67, 0
16, 34799, Note_on_c, 7, 69, 120
16, 34926, Note_on_c, 7, 72, 120
16, 34970, Note_on_c, 7, 65, 0
16, 34983, Note_on_c, 7, 69, 0
16, 35001, Note_on_c, 7, 72, 0
16, 35108, Note_on_c, 7, 62, 120
16, 35174, Note_on_c, 7, 62, 0
16, 35190, Note_on_c, 7, 58, 120
16, 35214, Note_on_c, 7, 58, 0
16, 35220, Note_on_c, 7, 65, 120
16, 35292, Note_on_c, 7, 65, 0
16, 35310, Note_on_c, 7, 70, 120
16, 35517, Note_on_c, 7, 70, 0
16, 35522, Note_on_c, 7, 69, 120
16, 35528, Note_on_c, 7, 69, 0
16, 35583, Note_on_c, 7, 65, 120
16, 35590, Note_on_c, 7, 69, 120
16, 35761, Note_on_c, 7, 72, 120
16, 35774, Note_on_c, 7, 72, 0
16, 35823, Note_on_c, 7, 77, 120
16, 35887, Note_on_c, 7, 77, 0
16, 35917, Note_on_c, 7, 72, 120
16, 35956, Note_on_c, 7, 72, 0
16, 36002, Note_on_c, 7, 64, 120
16, 36002, Note_on_c, 7, 64, 0
16, 36006, Note_on_c, 7, 81, 120
16, 36073, Note_on_c, 7, 81, 0
16, 36090, Note_on_c, 7, 76, 120
16, 36100, Note_on_c, 7, 69, 0
16, 36108, Note_on_c, 7, 65, 0
16, 36237, Note_on_c, 7, 76, 0
16, 36242, Note_on_c, 7, 78, 120
16, 36260, Note_on_c, 7, 78, 0
16, 36302, Note_on_c, 7, 78, 120
16, 36302, Note_on_c, 7, 78, 120
16, 36372, Note_on_c, 7, 78, 0
16, 36372, Note_on_c, 7, 78, 0
16, 36390, Note_on_c, 7, 71, 120
16, 36414, Note_on_c, 7, 71, 0
16, 36420, Note_on_c, 7, 78, 120
16, 36471, Note_on_c, 7, 78, 0
16, 36484, Note_on_c, 7, 71, 120
16, 36625, Note_on_c, 7, 71, 0
16, 36660, Note_on_c, 7, 71, 120
16, 36893, Note_on_c, 7, 71, 0
16, 36960, Note_on_c, 7, 72, 120
16, 37029, Note_on_c, 7, 72, 0
16, 37046, Note_on_c, 7, 67, 120
16, 37091, Note_on_c, 7, 67, 0
16, 37197, Note_on_c, 7, 66, 120
16, 37273, Note_on_c, 7, 66, 0
16, 37273, Note_on_c, 7, 69, 120
16, 37297, Note_on_c, 7, 66, 120
16, 37335, Note_on_c, 7, 66, 0
16, 37337, Note_on_c, 7, 69, 0
16, 37367, Note_on_c, 7, 66, 120
16, 37406, Note_on_c, 7, 66, 0
16, 37443, Note_on_c, 7, 60, 120
16, 37443, Note_on_c, 7, 65, 120
16, 37609, Note_on_c, 7, 65, 0
16, 37609, Note_on_c, 7, 60, 0
16, 37650, Note_on_c, 7, 71, 120
16, 37890, Note_on_c, 7, 71, 0
16, 37950, Note_on_c, 7, 64, 120
16, 37963, Note_on_c, 7, 64, 0
16, 37966, Note_on_c, 7, 64, 120
16, 38047, Note_on_c, 7, 67, 120
16, 38060, Note_on_c, 7, 64, 0
16, 38157, Note_on_c, 7, 67, 0
16, 38220, Note_on_c, 7, 72, 120
16, 38290, Note_on_c, 7, 72, 0
16, 38310, Note_on_c, 7, 69, 120
16, 38328, Note_on_c, 7, 69, 0
16, 38332, Note_on_c, 7, 65, 120
16, 38401, Note_on_c, 7, 65, 0
16, 38463, Note_on_c, 7, 72, 120
16, 38522, Note_on_c, 7, 72, 0
16, 38547, Note_on_c, 7, 69, 120
16, 38596, Note_on_c, 7, 65, 120
16, 38660, Note_on_c, 7, 65, 0
16, 38660, Note_on_c, 7, 62, 120
16, 38661, Note_on_c, 7, 69, 0
16, 38765, Note_on_c, 7, 62, 0
16, 38828, Note_on_c, 7, 67, 120
16, 38879, Note_on_c, 7, 67, 0
16, 38955, Note_on_c, 7, 62, 120
16, 39015, Note_on_c, 7, 62, 0
16, 39030, Note_on_c, 7, 72, 120
16, 39095, Note_on_c, 7, 72, 0
16, 39111, Note_on_c, 7, 67, 120
16, 39150, Note_on_c, 7, 67, 0
16, 39219, Note_on_c, 7, 76, 120
16, 39300, Note_on_c, 7, 76, 0
16, 39337, Note_on_c, 7, 77, 120
16, 39470, Note_on_c, 7, 77, 120
16, 39490, Note_on_c, 7, 77, 0
16, 39540, Note_on_c, 7, 77, 0
16, 39540, Note_on_c, 7, 72, 120
16, 39591, Note_on_c, 7, 72, 0
16, 39591, Note_on_c, 7, 74, 120
16, 39628, Note_on_c, 7, 74, 0
16, 39635, Note_on_c, 7, 71, 120
16, 39679, Note_on_c, 7, 71, 0
16, 39785, Note_on_c, 7, 64, 120
16, 39842, Note_on_c, 7, 64, 0
16, 49545, Note_on_c, 7, 60, 120
16, 49703, Note_on_c, 7, 60, 0
16, 49787, Note_on_c, 7, 60, 120
16, 49801, Note_on_c, 7, 69, 120
16, 49859, Note_on_c, 7, 60, 0
16, 49890, Note_on_c, 7, 69, 0
16, 49990, Note_on_c, 7, 77, 120
16, 50054, Note_on_c, 7, 77, 0
16, 50070, Note_on_c, 7, 77, 120
16, 50094, Note_on_c, 7, 77, 0
16, 50100, Note_on_c, 7, 66, 120
16, 50340, Note_on_c, 7, 66, 0
16, 50400, Note_on_c, 7, 76, 120
16, 51168, Note_on_c, 7, 76, 0
16, 51168, End_track
17, 0, Start_track
17, 0, MIDI_port, 0
17, 0, Title_t, "Strings"
17, 0, Program_c, 7, 48
17, 0, Control_c, 7, 7, 52
17, 0, Control_c, 7, 10, 64
17, 11220, Note_on_c, 7, 60, 120
17, 11484, Note_on_c, 7, 60, 0
17, 11550, Note_on_c, 7, 62, 120
17, 11666, Note_on_c, 7, 62, 0
17, 11695, Note_on_c, 7, 65, 120
17, 11757, Note_on_c, 7, 62, 120
17, 11759, Note_on_c, 7, 65, 0
17, 11893, Note_on_c, 7, 62, 0
17, 11940, Note_on_c, 7, 64, 120
17, 12012, Note_on_c, 7, 64, 0
17, 12030, Note_on_c, 7, 76, 120
17, 12107, Note_on_c, 7, 76, 0
17, 12126, Note_on_c, 7, 60, 120
17, 12190, Note_on_c, 7, 60, 0
17, 12214, Note_on_c, 7, 64, 120
17, 12406, Note_on_c, 7, 64, 0
17, 12468, Note_on_c, 7, 69, 120
17, 12574, Note_on_c, 7, 69, 0
17, 12600, Note_on_c, 7, 62, 120
17, 12672, Note_on_c, 7, 62, 0
17, 12690, Note_on_c, 7, 62, 120
17, 12900, Note_on_c, 7, 62, 0
17, 12953, Note_on_c, 7, 60, 120
17, 12996, Note_on_c, 7, 64, 120
17, 13085, Note_on_c, 7, 60, 0
17, 13201, Note_on_c, 7, 64, 0
17, 13263, Note_on_c, 7, 69, 120
17, 13390, Note_on_c, 7, 69, 0
17, 13453, Note_on_c, 7, 65, 120
17, 13453, Note_on_c, 7, 69, 120
17, 13587, Note_on_c, 7, 69, 0
17, 13587, Note_on_c, 7, 65, 0
17, 13620, Note_on_c, 7, 67, 120
17, 13716, Note_on_c, 7, 67, 0
17, 13740, Note_on_c, 7, 67, 120
17, 13836, Note_on_c, 7, 67, 0
17, 13860, Note_on_c, 7, 59, 120
17, 13873, Note_on_c, 7, 59, 0
17, 13916, Note_on_c, 7, 55, 120
17, 14037, Note_on_c, 7, 55, 0
17, 14042, Note_on_c, 7, 55, 120
17, 14112, Note_on_c, 7, 55, 0
17, 14130, Note_on_c, 7, 64, 120
17, 14206, Note_on_c, 7, 64, 0
17, 14225, Note_on_c, 7, 59, 120
17, 14289, Note_on_c, 7, 59, 0
17, 14407, Note_on_c, 7, 57, 120
17, 14587, Note_on_c, 7, 57, 0
17, 14640, Note_on_c, 7, 67, 120
17, 14697, Note_on_c, 7, 67, 0
17, 14711, Note_on_c, 7, 59, 120
17, 14769, Note_on_c, 7, 59, 0
17, 14880, Note_on_c, 7, 62, 120
17, 15032, Note_on_c, 7, 62, 0
17, 15070, Note_on_c, 7, 64, 120
17, 15247, Note_on_c, 7, 58, 120
17, 15318, Note_on_c, 7, 58, 0
17, 15350, Note_on_c, 7, 60, 120
17, 15356, Note_on_c, 7, 64, 0
17, 15599, Note_on_c, 7, 65, 120
17, 15726, Note_on_c, 7, 69, 120
17, 15770, Note_on_c, 7, 60, 0
17, 15783, Note_on_c, 7, 65, 0
17, 15801, Note_on_c, 7, 69, 0
17, 15908, Note_on_c, 7, 58, 120
17, 15974, Note_on_c, 7, 58, 0
17, 15990, Note_on_c, 7, 57, 120
17, 16014, Note_on_c, 7, 57, 0
17, 16020, Note_on_c, 7, 62, 120
17, 16092, Note_on_c, 7, 62, 0
17, 16110, Note_on_c, 7, 67, 120
17, 16328, Note_on_c, 7, 67, 0
17, 16383, Note_on_c, 7, 60, 120
17, 16390, Note_on_c, 7, 65, 120
17, 16561, Note_on_c, 7, 69, 120
17, 16574, Note_on_c, 7, 69, 0
17, 16623, Note_on_c, 7, 72, 120
17, 16687, Note_on_c, 7, 72, 0
17, 16717, Note_on_c, 7, 69, 120
17, 16756, Note_on_c, 7, 69, 0
17, 16797, Note_on_c, 7, 65, 0
17, 16806, Note_on_c, 7, 76, 120
17, 16873, Note_on_c, 7, 76, 0
17, 16890, Note_on_c, 7, 74, 120
17, 16908, Note_on_c, 7, 60, 0
17, 17060, Note_on_c, 7, 74, 0
17, 17102, Note_on_c, 7, 72, 120
17, 17102, Note_on_c, 7, 74, 120
17, 17172, Note_on_c, 7, 74, 0
17, 17172, Note_on_c, 7, 72, 0
17, 17190, Note_on_c, 7, 67, 120
17, 17214, Note_on_c, 7, 67, 0
17, 17220, Note_on_c, 7, 74, 120
17, 17271, Note_on_c, 7, 74, 0
17, 17284, Note_on_c, 7, 67, 120
17, 17425, Note_on_c, 7, 67, 0
17, 17460, Note_on_c, 7, 65, 120
17, 17693, Note_on_c, 7, 65, 0
17, 17760, Note_on_c, 7, 69, 120
17, 17829, Note_on_c, 7, 69, 0
17, 17846, Note_on_c, 7, 64, 120
17, 17891, Note_on_c, 7, 64, 0
17, 17997, Note_on_c, 7, 60, 120
17, 18073, Note_on_c, 7, 60, 0
17, 18073, Note_on_c, 7, 66, 120
17, 18097, Note_on_c, 7, 60, 120
17, 18135, Note_on_c, 7, 60, 0
17, 18137, Note_on_c, 7, 66, 0
17, 18167, Note_on_c, 7, 60, 120
17, 18206, Note_on_c, 7, 60, 0
17, 18243, Note_on_c, 7, 57, 120
17, 18243, Note_on_c, 7, 62, 120
17, 18409, Note_on_c, 7, 62, 0
17, 18409, Note_on_c, 7, 57, 0
17, 18450, Note_on_c, 7, 65, 120
17, 18690, Note_on_c, 7, 65, 0
17, 18750, Note_on_c, 7, 60, 120
17, 18763, Note_on_c, 7, 60, 0
17, 18766, Note_on_c, 7, 60, 120
17, 18847, Note_on_c, 7, 64, 120
17, 18860, Note_on_c, 7, 60, 0
17, 18969, Note_on_c, 7, 64, 0
17, 19020, Note_on_c, 7, 67, 120
17, 19090, Note_on_c, 7, 67, 0
17, 19110, Note_on_c, 7, 64, 120
17, 19128, Note_on_c, 7, 64, 0
17, 19132, Note_on_c, 7, 60, 120
17, 19201, Note_on_c, 7, 60, 0
17, 19263, Note_on_c, 7, 69, 120
17, 19322, Note_on_c, 7, 69, 0
17, 19347, Note_on_c, 7, 65, 120
17, 19396, Note_on_c, 7, 62, 120
17, 19460, Note_on_c, 7, 62, 0
17, 19460, Note_on_c, 7, 59, 120
17, 19461, Note_on_c, 7, 65, 0
17, 19565, Note_on_c, 7, 59, 0
17, 19628, Note_on_c, 7, 59, 120
17, 19679, Note_on_c, 7, 59, 0
17, 19755, Note_on_c, 7, 57, 120
17, 19815, Note_on_c, 7, 57, 0
17, 19830, Note_on_c, 7, 67, 120
17, 19895, Note_on_c, 7, 67, 0
17, 19911, Note_on_c, 7, 64, 120
17, 19950, Note_on_c, 7, 64, 0
17, 20019, Note_on_c, 7, 71, 120
17, 20100, Note_on_c, 7, 71, 0
17, 20137, Note_on_c, 7, 74, 120
17, 20270, Note_on_c, 7, 72, 120
17, 20290, Note_on_c, 7, 74, 0
17, 20340, Note_on_c, 7, 72, 0
17, 20340, Note_on_c, 7, 69, 120
17, 20391, Note_on_c, 7, 69, 0
17, 20391, Note_on_c, 7, 71, 120
17, 20428, Note_on_c, 7, 71, 0
17, 20435, Note_on_c, 7, 67, 120
17, 20479, Note_on_c, 7, 67, 0
17, 20585, Note_on_c, 7, 62, 120
17, 20642, Note_on_c, 7, 62, 0
17, 30420, Note_on_c, 7, 60, 120
17, 30684, Note_on_c, 7, 60, 0
17, 30750, Note_on_c, 7, 62, 120
17, 30866, Note_on_c, 7, 62, 0
17, 30895, Note_on_c, 7, 65, 120
17, 30957, Note_on_c, 7, 62, 120
17, 30959, Note_on_c, 7, 65, 0
17, 31093, Note_on_c, 7, 62, 0
17, 31140, Note_on_c, 7, 64, 120
17, 31212, Note_on_c, 7, 64, 0
17, 31230, Note_on_c, 7, 76, 120
17, 31307, Note_on_c, 7, 76, 0
17, 31326, Note_on_c, 7, 60, 120
17, 31390, Note_on_c, 7, 60, 0
17, 31414, Note_on_c, 7, 64, 120
17, 31606, Note_on_c, 7, 64, 0
17, 31668, Note_on_c, 7, 69, 120
17, 31774, Note_on_c, 7, 69, 0
17, 31800, Note_on_c, 7, 62, 120
17, 31872, Note_on_c, 7, 62, 0
17, 31890, Note_on_c, 7, 62, 120
17, 32100, Note_on_c, 7, 62, 0
17, 32153, Note_on_c, 7, 60, 120
17, 32196, Note_on_c, 7, 64, 120
17, 32285, Note_on_c, 7, 60, 0
17, 32401, Note_on_c, 7, 64, 0
17, 32463, Note_on_c, 7, 69, 120
17, 32590, Note_on_c, 7, 69, 0
17, 32653, Note_on_c, 7, 65, 120
17, 32653, Note_on_c, 7, 69, 120
17, 32787, Note_on_c, 7, 69, 0
17, 32787, Note_on_c, 7, 65, 0
17, 32820, Note_on_c, 7, 67, 120
17, 32916, Note_on_c, 7, 67, 0
17, 32940, Note_on_c, 7, 67, 120
17, 33036, Note_on_c, 7, 67, 0
17, 33060, Note_on_c, 7, 59, 120
17, 33073, Note_on_c, 7, 59, 0
17, 33116, Note_on_c, 7, 55, 120
17, 33237, Note_on_c, 7, 55, 0
17, 33242, Note_on_c, 7, 55, 120
17, 33312, Note_on_c, 7, 55, 0
17, 33330, Note_on_c, 7, 64, 120
17, 33406, Note_on_c, 7, 64, 0
17, 33425, Note_on_c, 7, 59, 120
17, 33489, Note_on_c, 7, 59, 0
17, 33607, Note_on_c, 7, 57, 120
17, 33787, Note_on_c, 7, 57, 0
17, 33840, Note_on_c, 7, 67, 120
17, 33897, Note_on_c, 7, 67, 0
17, 33911, Note_on_c, 7, 59, 120
17, 33969, Note_on_c, 7, 59, 0
17, 34080, Note_on_c, 7, 62, 120
17, 34232, Note_on_c, 7, 62, 0
17, 34270, Note_on_c, 7, 64, 120
17, 34447, Note_on_c, 7, 58, 120
17, 34518, Note_on_c, 7, 58, 0
17, 34550, Note_on_c, 7, 60, 120
17, 34556, Note_on_c, 7, 64, 0
17, 34799, Note_on_c, 7, 65, 120
17, 34926, Note_on_c, 7, 69, 120
17, 34970, Note_on_c, 7, 60, 0
17, 34983, Note_on_c, 7, 65, 0
17, 35001, Note_on_c, 7, 69, 0
17, 35108, Note_on_c, 7, 58, 120
17, 35174, Note_on_c, 7, 58, 0
17, 35190, Note_on_c, 7, 57, 120
17, 35214, Note_on_c, 7, 57, 0
17, 35220, Note_on_c, 7, 62, 120
17, 35292, Note_on_c, 7, 62, 0
17, 35310, Note_on_c, 7, 67, 120
17, 35528, Note_on_c, 7, 67, 0
17, 35583, Note_on_c, 7, 60, 120
17, 35590, Note_on_c, 7, 65, 120
17, 35761, Note_on_c, 7, 69, 120
17, 35774, Note_on_c, 7, 69, 0
17, 35823, Note_on_c, 7, 72, 120
17, 35887, Note_on_c, 7, 72, 0
17, 35917, Note_on_c, 7, 69, 120
17, 35956, Note_on_c, 7, 69, 0
17, 35997, Note_on_c, 7, 65, 0
17, 36006, Note_on_c, 7, 76, 120
17, 36073, Note_on_c, 7, 76, 0
17, 36090, Note_on_c, 7, 74, 120
17, 36108, Note_on_c, 7, 60, 0
17, 36260, Note_on_c, 7, 74, 0
17, 36302, Note_on_c, 7, 72, 120
17, 36302, Note_on_c, 7, 74, 120
17, 36372, Note_on_c, 7, 74, 0
17, 36372, Note_on_c, 7, 72, 0
17, 36390, Note_on_c, 7, 67, 120
17, 36414, Note_on_c, 7, 67, 0
17, 36420, Note_on_c, 7, 74, 120
17, 36471, Note_on_c, 7, 74, 0
17, 36484, Note_on_c, 7, 67, 120
17, 36625, Note_on_c, 7, 67, 0
17, 36660, Note_on_c, 7, 65, 120
17, 36893, Note_on_c, 7, 65, 0
17, 36960, Note_on_c, 7, 69, 120
17, 37029, Note_on_c, 7, 69, 0
17, 37046, Note_on_c, 7, 64, 120
17, 37091, Note_on_c, 7, 64, 0
17, 37197, Note_on_c, 7, 60, 120
17, 37273, Note_on_c, 7, 60, 0
17, 37273, Note_on_c, 7, 66, 120
17, 37297, Note_on_c, 7, 60, 120
17, 37335, Note_on_c, 7, 60, 0
17, 37337, Note_on_c, 7, 66, 0
17, 37367, Note_on_c, 7, 60, 120
17, 37406, Note_on_c, 7, 60, 0
17, 37443, Note_on_c, 7, 57, 120
17, 37443, Note_on_c, 7, 62, 120
17, 37609, Note_on_c, 7, 62, 0
17, 37609, Note_on_c, 7, 57, 0
17, 37650, Note_on_c, 7, 65, 120
17, 37890, Note_on_c, 7, 65, 0
17, 37950, Note_on_c, 7, 60, 120
17, 37963, Note_on_c, 7, 60, 0
17, 37966, Note_on_c, 7, 60, 120
17, 38047, Note_on_c, 7, 64, 120
17, 38060, Note_on_c, 7, 60, 0
17, 38169, Note_on_c, 7, 64, 0
17, 38220, Note_on_c, 7, 67, 120
17, 38290, Note_on_c, 7, 67, 0
17, 38310, Note_on_c, 7, 64, 120
17, 38328, Note_on_c, 7, 64, 0
17, 38332, Note_on_c, 7, 60, 120
17, 38401, Note_on_c, 7, 60, 0
17, 38463, Note_on_c, 7, 69, 120
17, 38522, Note_on_c, 7, 69, 0
17, 38547, Note_on_c, 7, 65, 120
17, 38596, Note_on_c, 7, 62, 120
17, 38660, Note_on_c, 7, 62, 0
17, 38660, Note_on_c, 7, 59, 120
17, 38661, Note_on_c, 7, 65, 0
17, 38765, Note_on_c, 7, 59, 0
17, 38828, Note_on_c, 7, 59, 120
17, 38879, Note_on_c, 7, 59, 0
17, 38955, Note_on_c, 7, 57, 120
17, 39015, Note_on_c, 7, 57, 0
17, 39030, Note_on_c, 7, 67, 120
17, 39095, Note_on_c, 7, 67, 0
17, 39111, Note_on_c, 7, 64, 120
17, 39150, Note_on_c, 7, 64, 0
17, 39219, Note_on_c, 7, 71, 120
17, 39300, Note_on_c, 7, 71, 0
17, 39337, Note_on_c, 7, 74, 120
17, 39470, Note_on_c, 7, 72, 120
17, 39490, Note_on_c, 7, 74, 0
17, 39540, Note_on_c, 7, 72, 0
17, 39540, Note_on_c, 7, 69, 120
17, 39591, Note_on_c, 7, 69, 0
17, 39591, Note_on_c, 7, 71, 120
17, 39628, Note_on_c, 7, 71, 0
17, 39635, Note_on_c, 7, 67, 120
17, 39679, Note_on_c, 7, 67, 0
17, 39785, Note_on_c, 7, 62, 120
17, 39842, Note_on_c, 7, 62, 0
17, 49545, Note_on_c, 7, 57, 120
17, 49703, Note_on_c, 7, 57, 0
17, 49787, Note_on_c, 7, 57, 120
17, 49801, Note_on_c, 7, 64, 120
17, 49859, Note_on_c, 7, 57, 0
17, 49890, Note_on_c, 7, 64, 0
17, 49990, Note_on_c, 7, 72, 120
17, 50054, Note_on_c, 7, 72, 0
17, 50070, Note_on_c, 7, 74, 120
17, 50094, Note_on_c, 7, 74, 0
17, 50100, Note_on_c, 7, 62, 120
17, 50340, Note_on_c, 7, 62, 0
17, 50400, Note_on_c, 7, 72, 120
17, 51168, Note_on_c, 7, 72, 0
17, 51168, End_track
18, 0, Start_track
18, 0, MIDI_port, 0
18, 0, Title_t, "Accordion"
18, 0, Program_c, 8, 23
18, 0, Control_c, 8, 7, 127
18, 0, Control_c, 8, 10, 64
18, 16320, Note_on_c, 8, 60, 127
18, 16560, Note_on_c, 8, 60, 127
18, 16600, Note_on_c, 8, 60, 0
18, 16600, Note_on_c, 8, 60, 127
18, 16640, Note_on_c, 8, 60, 0
18, 16680, Note_on_c, 8, 60, 127
18, 16704, Note_on_c, 8, 60, 0
18, 16720, Note_on_c, 8, 60, 0
18, 16800, Note_on_c, 8, 60, 127
18, 16920, Note_on_c, 8, 60, 0
18, 16920, Note_on_c, 8, 55, 127
18, 16960, Note_on_c, 8, 55, 0
18, 17040, Note_on_c, 8, 57, 127
18, 17280, Note_on_c, 8, 57, 0
18, 17280, Note_on_c, 8, 55, 127
18, 17760, Note_on_c, 8, 55, 0
18, 18240, Note_on_c, 8, 55, 127
18, 18320, Note_on_c, 8, 55, 0
18, 18320, Note_on_c, 8, 57, 127
18, 18400, Note_on_c, 8, 57, 0
18, 18400, Note_on_c, 8, 62, 127
18, 18480, Note_on_c, 8, 62, 0
18, 18480, Note_on_c, 8, 55, 127
18, 18600, Note_on_c, 8, 55, 0
18, 18700, Note_on_c, 8, 64, 127
18, 18790, Note_on_c, 8, 64, 0
18, 18790, Note_on_c, 8, 64, 127
18, 18814, Note_on_c, 8, 64, 0
18, 18820, Note_on_c, 8, 64, 127
18, 18910, Note_on_c, 8, 64, 0
18, 18910, Note_on_c, 8, 62, 127
18, 18934, Note_on_c, 8, 62, 0
18, 18940, Note_on_c, 8, 60, 127
18, 19030, Note_on_c, 8, 60, 0
18, 19030, Note_on_c, 8, 60, 127
18, 19054, Note_on_c, 8, 60, 0
18, 19060, Note_on_c, 8, 60, 127
18, 19108, Note_on_c, 8, 60, 0
18, 19150, Note_on_c, 8, 59, 127
18, 19180, Note_on_c, 8, 57, 127
18, 19210, Note_on_c, 8, 59, 0
18, 19228, Note_on_c, 8, 57, 0
18, 19240, Note_on_c, 8, 57, 127
18, 19288, Note_on_c, 8, 57, 0
18, 19330, Note_on_c, 8, 57, 127
18, 19354, Note_on_c, 8, 57, 0
18, 19360, Note_on_c, 8, 55, 127
18, 19408, Note_on_c, 8, 55, 0
18, 19420, Note_on_c, 8, 53, 127
18, 19516, Note_on_c, 8, 53, 0
18, 19540, Note_on_c, 8, 55, 127
18, 19588, Note_on_c, 8, 55, 0
18, 19600, Note_on_c, 8, 53, 127
18, 19648, Note_on_c, 8, 53, 0
18, 19660, Note_on_c, 8, 52, 127
18, 19852, Note_on_c, 8, 52, 0
18, 19900, Note_on_c, 8, 55, 127
18, 20092, Note_on_c, 8, 55, 0
18, 20140, Note_on_c, 8, 60, 127
18, 20236, Note_on_c, 8, 60, 0
18, 20380, Note_on_c, 8, 62, 127
18, 20572, Note_on_c, 8, 62, 0
18, 20620, Note_on_c, 8, 64, 127
18, 20710, Note_on_c, 8, 64, 0
18, 20710, Note_on_c, 8, 64, 127
18, 20734, Note_on_c, 8, 64, 0
18, 20740, Note_on_c, 8, 64, 127
18, 20788, Note_on_c, 8, 64, 0
18, 20800, Note_on_c, 8, 62, 127
18, 20848, Note_on_c, 8, 62, 0
18, 20860, Note_on_c, 8, 60, 127
18, 20920, Note_on_c, 8, 60, 0
18, 20920, Note_on_c, 8, 60, 127
18, 21010, Note_on_c, 8, 60, 0
18, 21010, Note_on_c, 8, 60, 127
18, 21070, Note_on_c, 8, 60, 0
18, 21070, Note_on_c, 8, 59, 127
18, 21094, Note_on_c, 8, 59, 0
18, 21100, Note_on_c, 8, 57, 127
18, 21148, Note_on_c, 8, 57, 0
18, 21190, Note_on_c, 8, 57, 127
18, 21214, Note_on_c, 8, 57, 0
18, 21220, Note_on_c, 8, 57, 127
18, 21268, Note_on_c, 8, 57, 0
18, 21280, Note_on_c, 8, 57, 127
18, 21328, Note_on_c, 8, 57, 0
18, 21340, Note_on_c, 8, 53, 127
18, 21436, Note_on_c, 8, 53, 0
18, 21460, Note_on_c, 8, 55, 127
18, 21508, Note_on_c, 8, 55, 0
18, 21520, Note_on_c, 8, 52, 127
18, 21760, Note_on_c, 8, 52, 0
18, 21820, Note_on_c, 8, 55, 127
18, 22012, Note_on_c, 8, 55, 0
18, 22060, Note_on_c, 8, 60, 127
18, 22252, Note_on_c, 8, 60, 0
18, 22300, Note_on_c, 8, 62, 127
18, 22492, Note_on_c, 8, 62, 0
18, 22540, Note_on_c, 8, 64, 127
18, 22612, Note_on_c, 8, 64, 0
18, 22630, Note_on_c, 8, 64, 127
18, 22690, Note_on_c, 8, 64, 127
18, 22700, Note_on_c, 8, 64, 0
18, 22750, Note_on_c, 8, 62, 127
18, 22760, Note_on_c, 8, 64, 0
18, 22774, Note_on_c, 8, 62, 0
18, 22780, Note_on_c, 8, 60, 127
18, 22828, Note_on_c, 8, 60, 0
18, 22840, Note_on_c, 8, 60, 127
18, 22910, Note_on_c, 8, 60, 0
18, 22930, Note_on_c, 8, 60, 127
18, 22980, Note_on_c, 8, 60, 0
18, 22990, Note_on_c, 8, 59, 127
18, 23014, Note_on_c, 8, 59, 0
18, 23020, Note_on_c, 8, 57, 127
18, 23068, Note_on_c, 8, 57, 0
18, 23110, Note_on_c, 8, 57, 127
18, 23134, Note_on_c, 8, 57, 0
18, 23140, Note_on_c, 8, 57, 127
18, 23188, Note_on_c, 8, 57, 0
18, 23200, Note_on_c, 8, 57, 127
18, 23260, Note_on_c, 8, 57, 0
18, 23260, Note_on_c, 8, 53, 127
18, 23356, Note_on_c, 8, 53, 0
18, 23380, Note_on_c, 8, 55, 127
18, 23428, Note_on_c, 8, 55, 0
18, 23470, Note_on_c, 8, 53, 127
18, 23494, Note_on_c, 8, 53, 0
18, 23500, Note_on_c, 8, 52, 127
18, 23692, Note_on_c, 8, 52, 0
18, 23740, Note_on_c, 8, 55, 127
18, 23920, Note_on_c, 8, 57, 127
18, 23932, Note_on_c, 8, 55, 0
18, 23980, Note_on_c, 8, 60, 127
18, 24172, Note_on_c, 8, 60, 0
18, 24220, Note_on_c, 8, 62, 127
18, 24352, Note_on_c, 8, 57, 0
18, 24412, Note_on_c, 8, 62, 0
18, 24460, Note_on_c, 8, 60, 127
18, 24508, Note_on_c, 8, 60, 0
18, 24580, Note_on_c, 8, 60, 127
18, 24628, Note_on_c, 8, 60, 0
18, 24640, Note_on_c, 8, 60, 127
18, 24688, Note_on_c, 8, 60, 0
18, 24700, Note_on_c, 8, 60, 127
18, 24748, Note_on_c, 8, 60, 0
18, 24760, Note_on_c, 8, 62, 127
18, 24784, Note_on_c, 8, 62, 0
18, 24790, Note_on_c, 8, 60, 127
18, 24814, Note_on_c, 8, 60, 0
18, 24820, Note_on_c, 8, 60, 127
18, 24868, Note_on_c, 8, 60, 0
18, 24910, Note_on_c, 8, 60, 127
18, 24934, Note_on_c, 8, 60, 0
18, 24940, Note_on_c, 8, 60, 127
18, 24988, Note_on_c, 8, 60, 0
18, 25000, Note_on_c, 8, 57, 127
18, 25240, Note_on_c, 8, 57, 0
18, 25420, Note_on_c, 8, 60, 127
18, 25516, Note_on_c, 8, 60, 0
18, 25540, Note_on_c, 8, 60, 127
18, 25588, Note_on_c, 8, 60, 0
18, 25630, Note_on_c, 8, 60, 127
18, 25654, Note_on_c, 8, 60, 0
18, 25660, Note_on_c, 8, 60, 127
18, 25708, Note_on_c, 8, 60, 0
18, 25720, Note_on_c, 8, 60, 127
18, 25768, Note_on_c, 8, 60, 0
18, 25780, Note_on_c, 8, 60, 127
18, 25804, Note_on_c, 8, 60, 0
18, 25810, Note_on_c, 8, 60, 127
18, 25830, Note_on_c, 8, 62, 127
18, 25834, Note_on_c, 8, 60, 0
18, 25870, Note_on_c, 8, 62, 0
18, 25870, Note_on_c, 8, 60, 127
18, 25894, Note_on_c, 8, 60, 0
18, 25900, Note_on_c, 8, 57, 127
18, 26284, Note_on_c, 8, 57, 0
18, 26380, Note_on_c, 8, 62, 127
18, 26428, Note_on_c, 8, 62, 0
18, 26500, Note_on_c, 8, 62, 127
18, 26548, Note_on_c, 8, 62, 0
18, 26560, Note_on_c, 8, 62, 127
18, 26608, Note_on_c, 8, 62, 0
18, 26620, Note_on_c, 8, 62, 127
18, 26668, Note_on_c, 8, 62, 0
18, 26680, Note_on_c, 8, 62, 127
18, 26728, Note_on_c, 8, 62, 0
18, 26740, Note_on_c, 8, 62, 127
18, 26788, Note_on_c, 8, 62, 0
18, 26800, Note_on_c, 8, 62, 127
18, 26848, Note_on_c, 8, 62, 0
18, 26860, Note_on_c, 8, 62, 127
18, 26908, Note_on_c, 8, 62, 0
18, 26920, Note_on_c, 8, 59, 127
18, 27208, Note_on_c, 8, 59, 0
18, 27280, Note_on_c, 8, 59, 127
18, 27328, Note_on_c, 8, 59, 0
18, 27340, Note_on_c, 8, 62, 127
18, 27484, Note_on_c, 8, 62, 0
18, 27520, Note_on_c, 8, 62, 127
18, 27568, Note_on_c, 8, 62, 0
18, 27580, Note_on_c, 8, 62, 127
18, 27652, Note_on_c, 8, 62, 0
18, 27670, Note_on_c, 8, 57, 127
18, 27694, Note_on_c, 8, 57, 0
18, 27700, Note_on_c, 8, 59, 127
18, 27748, Note_on_c, 8, 59, 0
18, 27760, Note_on_c, 8, 60, 127
18, 27808, Note_on_c, 8, 60, 0
18, 27820, Note_on_c, 8, 62, 127
18, 28204, Note_on_c, 8, 62, 0
18, 28204, End_track
0, 0, End_of_file
