0, 0, Header, 1, 9, 480
1, 0, Start_track
1, 0, System_exclusive, 5, 126, 127, 9, 1, 247
1, 0, Tempo, 408163
1, 0, Time_signature, 4, 2, 24, 8
1, 0, Key_signature, 3, "major"
1, 0, End_track
2, 0, Start_track
2, 0, Title_t, "Bass"
2, 0, MIDI_port, 0
2, 0, Channel_prefix, 2
2, 0, Control_c, 2, 7, 127
2, 0, Control_c, 2, 10, 64
2, 0, Program_c, 2, 35
2, 45, Pitch_bend_c, 2, 8282
2, 45, Control_c, 2, 121, 0
2, 46, Control_c, 2, 91, 90
2, 48, Control_c, 2, 93, 80
2, 49, Control_c, 2, 2, 127
2, 53, Control_c, 2, 11, 127
2, 1920, Note_on_c, 2, 28, 100
2, 1920, Note_on_c, 2, 40, 100
2, 3840, Note_off_c, 2, 40, 64
2, 3840, Note_off_c, 2, 28, 64
2, 3840, Note_on_c, 2, 26, 100
2, 3840, Note_on_c, 2, 38, 100
2, 5760, Note_off_c, 2, 38, 64
2, 5760, Note_off_c, 2, 26, 64
2, 5760, Note_on_c, 2, 33, 100
2, 5760, Note_on_c, 2, 45, 100
2, 7680, Note_off_c, 2, 45, 64
2, 7680, Note_off_c, 2, 33, 64
2, 9600, Note_on_c, 2, 45, 100
2, 9840, Note_off_c, 2, 45, 64
2, 9840, Note_on_c, 2, 33, 100
2, 10080, Note_off_c, 2, 33, 64
2, 10080, Note_on_c, 2, 45, 100
2, 10320, Note_off_c, 2, 45, 64
2, 10320, Note_on_c, 2, 33, 100
2, 10560, Note_off_c, 2, 33, 64
2, 10560, Note_on_c, 2, 45, 100
2, 10800, Note_off_c, 2, 45, 64
2, 10800, Note_on_c, 2, 33, 100
2, 11040, Note_off_c, 2, 33, 64
2, 11040, Note_on_c, 2, 45, 100
2, 11280, Note_off_c, 2, 45, 64
2, 11280, Note_on_c, 2, 33, 100
2, 11520, Note_off_c, 2, 33, 64
2, 11520, Note_on_c, 2, 45, 100
2, 11760, Note_off_c, 2, 45, 64
2, 11760, Note_on_c, 2, 33, 100
2, 12000, Note_off_c, 2, 33, 64
2, 12000, Note_on_c, 2, 45, 100
2, 12240, Note_off_c, 2, 45, 64
2, 12240, Note_on_c, 2, 33, 100
2, 12480, Note_off_c, 2, 33, 64
2, 12480, Note_on_c, 2, 45, 100
2, 12720, Note_off_c, 2, 45, 64
2, 12720, Note_on_c, 2, 33, 100
2, 12960, Note_off_c, 2, 33, 64
2, 12960, Note_on_c, 2, 45, 100
2, 13200, Note_off_c, 2, 45, 64
2, 13200, Note_on_c, 2, 33, 100
2, 13440, Note_off_c, 2, 33, 64
2, 13440, Note_on_c, 2, 45, 100
2, 13680, Note_off_c, 2, 45, 64
2, 13680, Note_on_c, 2, 33, 100
2, 13920, Note_off_c, 2, 33, 64
2, 13920, Note_on_c, 2, 45, 100
2, 14160, Note_off_c, 2, 45, 64
2, 14160, Note_on_c, 2, 33, 100
2, 14400, Note_off_c, 2, 33, 64
2, 14400, Note_on_c, 2, 45, 100
2, 14640, Note_off_c, 2, 45, 64
2, 14640, Note_on_c, 2, 33, 100
2, 14880, Note_off_c, 2, 33, 64
2, 14880, Note_on_c, 2, 45, 100
2, 15120, Note_off_c, 2, 45, 64
2, 15120, Note_on_c, 2, 33, 100
2, 15360, Note_off_c, 2, 33, 64
2, 15360, Note_on_c, 2, 45, 100
2, 15600, Note_off_c, 2, 45, 64
2, 15600, Note_on_c, 2, 33, 100
2, 15840, Note_off_c, 2, 33, 64
2, 15840, Note_on_c, 2, 45, 100
2, 16080, Note_off_c, 2, 45, 64
2, 16080, Note_on_c, 2, 33, 100
2, 16320, Note_off_c, 2, 33, 64
2, 16320, Note_on_c, 2, 45, 100
2, 16560, Note_off_c, 2, 45, 64
2, 16560, Note_on_c, 2, 33, 100
2, 16800, Note_off_c, 2, 33, 64
2, 16800, Note_on_c, 2, 45, 100
2, 17040, Note_off_c, 2, 45, 64
2, 17040, Note_on_c, 2, 33, 100
2, 17280, Note_off_c, 2, 33, 64
2, 17280, Note_on_c, 2, 50, 100
2, 17520, Note_off_c, 2, 50, 64
2, 17520, Note_on_c, 2, 38, 100
2, 17760, Note_off_c, 2, 38, 64
2, 17760, Note_on_c, 2, 50, 100
2, 18000, Note_off_c, 2, 50, 64
2, 18000, Note_on_c, 2, 38, 100
2, 18240, Note_off_c, 2, 38, 64
2, 18240, Note_on_c, 2, 50, 100
2, 18480, Note_off_c, 2, 50, 64
2, 18480, Note_on_c, 2, 38, 100
2, 18720, Note_off_c, 2, 38, 64
2, 18720, Note_on_c, 2, 50, 100
2, 18960, Note_off_c, 2, 50, 64
2, 18960, Note_on_c, 2, 38, 100
2, 19200, Note_off_c, 2, 38, 64
2, 19200, Note_on_c, 2, 50, 100
2, 19440, Note_off_c, 2, 50, 64
2, 19440, Note_on_c, 2, 38, 100
2, 19680, Note_off_c, 2, 38, 64
2, 19680, Note_on_c, 2, 50, 100
2, 19920, Note_off_c, 2, 50, 64
2, 19920, Note_on_c, 2, 38, 100
2, 20160, Note_off_c, 2, 38, 64
2, 20160, Note_on_c, 2, 50, 100
2, 20400, Note_off_c, 2, 50, 64
2, 20400, Note_on_c, 2, 38, 100
2, 20640, Note_off_c, 2, 38, 64
2, 20640, Note_on_c, 2, 50, 100
2, 20880, Note_off_c, 2, 50, 64
2, 20880, Note_on_c, 2, 38, 100
2, 21120, Note_off_c, 2, 38, 64
2, 21120, Note_on_c, 2, 45, 100
2, 21360, Note_off_c, 2, 45, 64
2, 21360, Note_on_c, 2, 33, 100
2, 21600, Note_off_c, 2, 33, 64
2, 21600, Note_on_c, 2, 45, 100
2, 21840, Note_off_c, 2, 45, 64
2, 21840, Note_on_c, 2, 33, 100
2, 22080, Note_off_c, 2, 33, 64
2, 22080, Note_on_c, 2, 45, 100
2, 22320, Note_off_c, 2, 45, 64
2, 22320, Note_on_c, 2, 33, 100
2, 22560, Note_off_c, 2, 33, 64
2, 22560, Note_on_c, 2, 45, 100
2, 22800, Note_off_c, 2, 45, 64
2, 22800, Note_on_c, 2, 33, 100
2, 23040, Note_off_c, 2, 33, 64
2, 23040, Note_on_c, 2, 45, 100
2, 23280, Note_off_c, 2, 45, 64
2, 23280, Note_on_c, 2, 33, 100
2, 23520, Note_off_c, 2, 33, 64
2, 23520, Note_on_c, 2, 45, 100
2, 23760, Note_off_c, 2, 45, 64
2, 23760, Note_on_c, 2, 33, 100
2, 24000, Note_off_c, 2, 33, 64
2, 24000, Note_on_c, 2, 45, 100
2, 24240, Note_off_c, 2, 45, 64
2, 24240, Note_on_c, 2, 33, 100
2, 24480, Note_off_c, 2, 33, 64
2, 24480, Note_on_c, 2, 45, 100
2, 24720, Note_off_c, 2, 45, 64
2, 24720, Note_on_c, 2, 33, 100
2, 24960, Note_off_c, 2, 33, 64
2, 24960, Note_on_c, 2, 40, 100
2, 25200, Note_off_c, 2, 40, 64
2, 25200, Note_on_c, 2, 28, 100
2, 25440, Note_off_c, 2, 28, 64
2, 25440, Note_on_c, 2, 40, 100
2, 25680, Note_off_c, 2, 40, 64
2, 25680, Note_on_c, 2, 28, 100
2, 25920, Note_off_c, 2, 28, 64
2, 25920, Note_on_c, 2, 40, 100
2, 26160, Note_off_c, 2, 40, 64
2, 26160, Note_on_c, 2, 28, 100
2, 26400, Note_off_c, 2, 28, 64
2, 26400, Note_on_c, 2, 40, 100
2, 26640, Note_off_c, 2, 40, 64
2, 26640, Note_on_c, 2, 28, 100
2, 26880, Note_off_c, 2, 28, 64
2, 26880, Note_on_c, 2, 40, 100
2, 27120, Note_off_c, 2, 40, 64
2, 27120, Note_on_c, 2, 28, 100
2, 27360, Note_off_c, 2, 28, 64
2, 27360, Note_on_c, 2, 40, 100
2, 27600, Note_off_c, 2, 40, 64
2, 27600, Note_on_c, 2, 28, 100
2, 27840, Note_off_c, 2, 28, 64
2, 27840, Note_on_c, 2, 40, 100
2, 28080, Note_off_c, 2, 40, 64
2, 28080, Note_on_c, 2, 28, 100
2, 28320, Note_off_c, 2, 28, 64
2, 28320, Note_on_c, 2, 40, 100
2, 28560, Note_off_c, 2, 40, 64
2, 28560, Note_on_c, 2, 28, 100
2, 28800, Note_off_c, 2, 28, 64
2, 28800, Note_on_c, 2, 45, 100
2, 29040, Note_off_c, 2, 45, 64
2, 29040, Note_on_c, 2, 33, 100
2, 29280, Note_off_c, 2, 33, 64
2, 29280, Note_on_c, 2, 45, 100
2, 29520, Note_off_c, 2, 45, 64
2, 29520, Note_on_c, 2, 33, 100
2, 29760, Note_off_c, 2, 33, 64
2, 29760, Note_on_c, 2, 45, 100
2, 30000, Note_off_c, 2, 45, 64
2, 30000, Note_on_c, 2, 33, 100
2, 30240, Note_off_c, 2, 33, 64
2, 30240, Note_on_c, 2, 45, 100
2, 30480, Note_off_c, 2, 45, 64
2, 30480, Note_on_c, 2, 33, 100
2, 30720, Note_off_c, 2, 33, 64
2, 30720, Note_on_c, 2, 40, 100
2, 30960, Note_off_c, 2, 40, 64
2, 30960, Note_on_c, 2, 28, 100
2, 31200, Note_off_c, 2, 28, 64
2, 31200, Note_on_c, 2, 40, 100
2, 31440, Note_off_c, 2, 40, 64
2, 31440, Note_on_c, 2, 28, 100
2, 31680, Note_off_c, 2, 28, 64
2, 31680, Note_on_c, 2, 40, 100
2, 31920, Note_off_c, 2, 40, 64
2, 31920, Note_on_c, 2, 28, 100
2, 32160, Note_off_c, 2, 28, 64
2, 32160, Note_on_c, 2, 40, 100
2, 32400, Note_off_c, 2, 40, 64
2, 32400, Note_on_c, 2, 28, 100
2, 32640, Note_off_c, 2, 28, 64
2, 32640, Note_on_c, 2, 50, 100
2, 32880, Note_off_c, 2, 50, 64
2, 32880, Note_on_c, 2, 38, 100
2, 33120, Note_off_c, 2, 38, 64
2, 33120, Note_on_c, 2, 50, 100
2, 33360, Note_off_c, 2, 50, 64
2, 33360, Note_on_c, 2, 38, 100
2, 33600, Note_off_c, 2, 38, 64
2, 33600, Note_on_c, 2, 50, 100
2, 33840, Note_off_c, 2, 50, 64
2, 33840, Note_on_c, 2, 38, 100
2, 34080, Note_off_c, 2, 38, 64
2, 34080, Note_on_c, 2, 50, 100
2, 34320, Note_off_c, 2, 50, 64
2, 34320, Note_on_c, 2, 38, 100
2, 34560, Note_off_c, 2, 38, 64
2, 34560, Note_on_c, 2, 50, 100
2, 34800, Note_off_c, 2, 50, 64
2, 34800, Note_on_c, 2, 38, 100
2, 35040, Note_off_c, 2, 38, 64
2, 35040, Note_on_c, 2, 50, 100
2, 35280, Note_off_c, 2, 50, 64
2, 35280, Note_on_c, 2, 38, 100
2, 35520, Note_off_c, 2, 38, 64
2, 35520, Note_on_c, 2, 50, 100
2, 35760, Note_off_c, 2, 50, 64
2, 35760, Note_on_c, 2, 38, 100
2, 36000, Note_off_c, 2, 38, 64
2, 36000, Note_on_c, 2, 50, 100
2, 36240, Note_off_c, 2, 50, 64
2, 36240, Note_on_c, 2, 38, 100
2, 36480, Note_off_c, 2, 38, 64
2, 36480, Note_on_c, 2, 45, 100
2, 36720, Note_off_c, 2, 45, 64
2, 36720, Note_on_c, 2, 33, 100
2, 36960, Note_off_c, 2, 33, 64
2, 36960, Note_on_c, 2, 45, 100
2, 37200, Note_off_c, 2, 45, 64
2, 37200, Note_on_c, 2, 33, 100
2, 37440, Note_off_c, 2, 33, 64
2, 37440, Note_on_c, 2, 45, 100
2, 37680, Note_off_c, 2, 45, 64
2, 37680, Note_on_c, 2, 33, 100
2, 37920, Note_off_c, 2, 33, 64
2, 37920, Note_on_c, 2, 45, 100
2, 38160, Note_off_c, 2, 45, 64
2, 38160, Note_on_c, 2, 33, 100
2, 38400, Note_off_c, 2, 33, 64
2, 38400, Note_on_c, 2, 45, 100
2, 38640, Note_off_c, 2, 45, 64
2, 38640, Note_on_c, 2, 33, 100
2, 38880, Note_off_c, 2, 33, 64
2, 38880, Note_on_c, 2, 45, 100
2, 39120, Note_off_c, 2, 45, 64
2, 39120, Note_on_c, 2, 33, 100
2, 39360, Note_off_c, 2, 33, 64
2, 39360, Note_on_c, 2, 45, 100
2, 39600, Note_off_c, 2, 45, 64
2, 39600, Note_on_c, 2, 33, 100
2, 39840, Note_off_c, 2, 33, 64
2, 39840, Note_on_c, 2, 45, 100
2, 40080, Note_off_c, 2, 45, 64
2, 40080, Note_on_c, 2, 33, 100
2, 40320, Note_off_c, 2, 33, 64
2, 40320, Note_on_c, 2, 50, 100
2, 40560, Note_off_c, 2, 50, 64
2, 40560, Note_on_c, 2, 38, 100
2, 40800, Note_off_c, 2, 38, 64
2, 40800, Note_on_c, 2, 50, 100
2, 41040, Note_off_c, 2, 50, 64
2, 41040, Note_on_c, 2, 38, 100
2, 41280, Note_off_c, 2, 38, 64
2, 41280, Note_on_c, 2, 50, 100
2, 41520, Note_off_c, 2, 50, 64
2, 41520, Note_on_c, 2, 38, 100
2, 41760, Note_off_c, 2, 38, 64
2, 41760, Note_on_c, 2, 50, 100
2, 42000, Note_off_c, 2, 50, 64
2, 42000, Note_on_c, 2, 38, 100
2, 42240, Note_off_c, 2, 38, 64
2, 42240, Note_on_c, 2, 50, 100
2, 42480, Note_off_c, 2, 50, 64
2, 42480, Note_on_c, 2, 38, 100
2, 42720, Note_off_c, 2, 38, 64
2, 42720, Note_on_c, 2, 50, 100
2, 42960, Note_off_c, 2, 50, 64
2, 42960, Note_on_c, 2, 38, 100
2, 43200, Note_off_c, 2, 38, 64
2, 43200, Note_on_c, 2, 50, 100
2, 43440, Note_off_c, 2, 50, 64
2, 43440, Note_on_c, 2, 38, 100
2, 43680, Note_off_c, 2, 38, 64
2, 43680, Note_on_c, 2, 50, 100
2, 43920, Note_off_c, 2, 50, 64
2, 43920, Note_on_c, 2, 38, 100
2, 44160, Note_off_c, 2, 38, 64
2, 44160, Note_on_c, 2, 40, 100
2, 44400, Note_off_c, 2, 40, 64
2, 44400, Note_on_c, 2, 28, 100
2, 44640, Note_off_c, 2, 28, 64
2, 44640, Note_on_c, 2, 40, 100
2, 44880, Note_off_c, 2, 40, 64
2, 44880, Note_on_c, 2, 28, 100
2, 45120, Note_off_c, 2, 28, 64
2, 45120, Note_on_c, 2, 40, 100
2, 45360, Note_off_c, 2, 40, 64
2, 45360, Note_on_c, 2, 28, 100
2, 45600, Note_off_c, 2, 28, 64
2, 45600, Note_on_c, 2, 40, 100
2, 45840, Note_off_c, 2, 40, 64
2, 45840, Note_on_c, 2, 28, 100
2, 46080, Note_off_c, 2, 28, 64
2, 46080, Note_on_c, 2, 40, 100
2, 46320, Note_off_c, 2, 40, 64
2, 46320, Note_on_c, 2, 28, 100
2, 46560, Note_off_c, 2, 28, 64
2, 46560, Note_on_c, 2, 40, 100
2, 46800, Note_off_c, 2, 40, 64
2, 46800, Note_on_c, 2, 28, 100
2, 47040, Note_off_c, 2, 28, 64
2, 47040, Note_on_c, 2, 40, 100
2, 47280, Note_off_c, 2, 40, 64
2, 47280, Note_on_c, 2, 28, 100
2, 47520, Note_off_c, 2, 28, 64
2, 47520, Note_on_c, 2, 40, 100
2, 47760, Note_off_c, 2, 40, 64
2, 47760, Note_on_c, 2, 28, 100
2, 48000, Note_off_c, 2, 28, 64
2, 48000, Note_on_c, 2, 50, 100
2, 48240, Note_off_c, 2, 50, 64
2, 48240, Note_on_c, 2, 38, 100
2, 48480, Note_off_c, 2, 38, 64
2, 48480, Note_on_c, 2, 50, 100
2, 48720, Note_off_c, 2, 50, 64
2, 48720, Note_on_c, 2, 38, 100
2, 48960, Note_off_c, 2, 38, 64
2, 48960, Note_on_c, 2, 50, 100
2, 49200, Note_off_c, 2, 50, 64
2, 49200, Note_on_c, 2, 38, 100
2, 49440, Note_off_c, 2, 38, 64
2, 49440, Note_on_c, 2, 50, 100
2, 49680, Note_off_c, 2, 50, 64
2, 49680, Note_on_c, 2, 38, 100
2, 49920, Note_off_c, 2, 38, 64
2, 49920, Note_on_c, 2, 50, 100
2, 50160, Note_off_c, 2, 50, 64
2, 50160, Note_on_c, 2, 38, 100
2, 50400, Note_off_c, 2, 38, 64
2, 50400, Note_on_c, 2, 50, 100
2, 50640, Note_off_c, 2, 50, 64
2, 50640, Note_on_c, 2, 38, 100
2, 50880, Note_off_c, 2, 38, 64
2, 50880, Note_on_c, 2, 50, 100
2, 51120, Note_off_c, 2, 50, 64
2, 51120, Note_on_c, 2, 38, 100
2, 51360, Note_off_c, 2, 38, 64
2, 51360, Note_on_c, 2, 50, 100
2, 51600, Note_off_c, 2, 50, 64
2, 51600, Note_on_c, 2, 38, 100
2, 51840, Note_off_c, 2, 38, 64
2, 51840, Note_on_c, 2, 45, 100
2, 52080, Note_off_c, 2, 45, 64
2, 52080, Note_on_c, 2, 33, 100
2, 52320, Note_off_c, 2, 33, 64
2, 52320, Note_on_c, 2, 45, 100
2, 52560, Note_off_c, 2, 45, 64
2, 52560, Note_on_c, 2, 33, 100
2, 52800, Note_off_c, 2, 33, 64
2, 52800, Note_on_c, 2, 45, 100
2, 53040, Note_off_c, 2, 45, 64
2, 53040, Note_on_c, 2, 33, 100
2, 53280, Note_off_c, 2, 33, 64
2, 53280, Note_on_c, 2, 45, 100
2, 53520, Note_off_c, 2, 45, 64
2, 53520, Note_on_c, 2, 33, 100
2, 53760, Note_off_c, 2, 33, 64
2, 53760, Note_on_c, 2, 45, 100
2, 54000, Note_off_c, 2, 45, 64
2, 54000, Note_on_c, 2, 33, 100
2, 54240, Note_off_c, 2, 33, 64
2, 54240, Note_on_c, 2, 45, 100
2, 54480, Note_off_c, 2, 45, 64
2, 54480, Note_on_c, 2, 33, 100
2, 54720, Note_off_c, 2, 33, 64
2, 54720, Note_on_c, 2, 45, 100
2, 54960, Note_off_c, 2, 45, 64
2, 54960, Note_on_c, 2, 33, 100
2, 55200, Note_off_c, 2, 33, 64
2, 55200, Note_on_c, 2, 45, 100
2, 55440, Note_off_c, 2, 45, 64
2, 55440, Note_on_c, 2, 33, 100
2, 55680, Note_off_c, 2, 33, 64
2, 55680, Note_on_c, 2, 50, 100
2, 55920, Note_off_c, 2, 50, 64
2, 55920, Note_on_c, 2, 38, 100
2, 56160, Note_off_c, 2, 38, 64
2, 56160, Note_on_c, 2, 50, 100
2, 56400, Note_off_c, 2, 50, 64
2, 56400, Note_on_c, 2, 38, 100
2, 56640, Note_off_c, 2, 38, 64
2, 56640, Note_on_c, 2, 50, 100
2, 56880, Note_off_c, 2, 50, 64
2, 56880, Note_on_c, 2, 38, 100
2, 57120, Note_off_c, 2, 38, 64
2, 57120, Note_on_c, 2, 50, 100
2, 57360, Note_off_c, 2, 50, 64
2, 57360, Note_on_c, 2, 38, 100
2, 57600, Note_off_c, 2, 38, 64
2, 57600, Note_on_c, 2, 50, 100
2, 57840, Note_off_c, 2, 50, 64
2, 57840, Note_on_c, 2, 38, 100
2, 58080, Note_off_c, 2, 38, 64
2, 58080, Note_on_c, 2, 50, 100
2, 58320, Note_off_c, 2, 50, 64
2, 58320, Note_on_c, 2, 38, 100
2, 58560, Note_off_c, 2, 38, 64
2, 58560, Note_on_c, 2, 50, 100
2, 58800, Note_off_c, 2, 50, 64
2, 58800, Note_on_c, 2, 38, 100
2, 59040, Note_off_c, 2, 38, 64
2, 59040, Note_on_c, 2, 50, 100
2, 59280, Note_off_c, 2, 50, 64
2, 59280, Note_on_c, 2, 38, 100
2, 59520, Note_off_c, 2, 38, 64
2, 59520, Note_on_c, 2, 40, 100
2, 59760, Note_off_c, 2, 40, 64
2, 59760, Note_on_c, 2, 28, 100
2, 60000, Note_off_c, 2, 28, 64
2, 60000, Note_on_c, 2, 40, 100
2, 60240, Note_off_c, 2, 40, 64
2, 60240, Note_on_c, 2, 28, 100
2, 60480, Note_off_c, 2, 28, 64
2, 60480, Note_on_c, 2, 40, 100
2, 60720, Note_off_c, 2, 40, 64
2, 60720, Note_on_c, 2, 28, 100
2, 60960, Note_off_c, 2, 28, 64
2, 60960, Note_on_c, 2, 40, 100
2, 61200, Note_off_c, 2, 40, 64
2, 61200, Note_on_c, 2, 28, 100
2, 61440, Note_off_c, 2, 28, 64
2, 61440, Note_on_c, 2, 40, 100
2, 61680, Note_off_c, 2, 40, 64
2, 61680, Note_on_c, 2, 28, 100
2, 61920, Note_off_c, 2, 28, 64
2, 61920, Note_on_c, 2, 40, 100
2, 62160, Note_off_c, 2, 40, 64
2, 62160, Note_on_c, 2, 28, 100
2, 62400, Note_off_c, 2, 28, 64
2, 62400, Note_on_c, 2, 40, 100
2, 62640, Note_off_c, 2, 40, 64
2, 62640, Note_on_c, 2, 28, 100
2, 62880, Note_off_c, 2, 28, 64
2, 62880, Note_on_c, 2, 40, 100
2, 63120, Note_off_c, 2, 40, 64
2, 63120, Note_on_c, 2, 28, 100
2, 63360, Note_off_c, 2, 28, 64
2, 63360, Note_on_c, 2, 45, 100
2, 63600, Note_off_c, 2, 45, 64
2, 63600, Note_on_c, 2, 33, 100
2, 63840, Note_off_c, 2, 33, 64
2, 63840, Note_on_c, 2, 45, 100
2, 64080, Note_off_c, 2, 45, 64
2, 64080, Note_on_c, 2, 33, 100
2, 64320, Note_off_c, 2, 33, 64
2, 64320, Note_on_c, 2, 45, 100
2, 64560, Note_off_c, 2, 45, 64
2, 64560, Note_on_c, 2, 33, 100
2, 64800, Note_off_c, 2, 33, 64
2, 64800, Note_on_c, 2, 45, 100
2, 65040, Note_off_c, 2, 45, 64
2, 65040, Note_on_c, 2, 33, 100
2, 65280, Note_off_c, 2, 33, 64
2, 65280, Note_on_c, 2, 45, 100
2, 65520, Note_off_c, 2, 45, 64
2, 65520, Note_on_c, 2, 33, 100
2, 65760, Note_off_c, 2, 33, 64
2, 65760, Note_on_c, 2, 45, 100
2, 66000, Note_off_c, 2, 45, 64
2, 66000, Note_on_c, 2, 33, 100
2, 66240, Note_off_c, 2, 33, 64
2, 66240, Note_on_c, 2, 45, 100
2, 66480, Note_off_c, 2, 45, 64
2, 66480, Note_on_c, 2, 33, 100
2, 66720, Note_off_c, 2, 33, 64
2, 66720, Note_on_c, 2, 45, 100
2, 66960, Note_off_c, 2, 45, 64
2, 66960, Note_on_c, 2, 33, 100
2, 67200, Note_off_c, 2, 33, 64
2, 67200, Note_on_c, 2, 50, 100
2, 67440, Note_off_c, 2, 50, 64
2, 67440, Note_on_c, 2, 38, 100
2, 67680, Note_off_c, 2, 38, 64
2, 67680, Note_on_c, 2, 50, 100
2, 67920, Note_off_c, 2, 50, 64
2, 67920, Note_on_c, 2, 38, 100
2, 68160, Note_off_c, 2, 38, 64
2, 68160, Note_on_c, 2, 50, 100
2, 68400, Note_off_c, 2, 50, 64
2, 68400, Note_on_c, 2, 38, 100
2, 68640, Note_off_c, 2, 38, 64
2, 68640, Note_on_c, 2, 50, 100
2, 68880, Note_off_c, 2, 50, 64
2, 68880, Note_on_c, 2, 38, 100
2, 69120, Note_off_c, 2, 38, 64
2, 69120, Note_on_c, 2, 50, 100
2, 69360, Note_off_c, 2, 50, 64
2, 69360, Note_on_c, 2, 38, 100
2, 69600, Note_off_c, 2, 38, 64
2, 69600, Note_on_c, 2, 50, 100
2, 69840, Note_off_c, 2, 50, 64
2, 69840, Note_on_c, 2, 38, 100
2, 70080, Note_off_c, 2, 38, 64
2, 70080, Note_on_c, 2, 50, 100
2, 70320, Note_off_c, 2, 50, 64
2, 70320, Note_on_c, 2, 38, 100
2, 70560, Note_off_c, 2, 38, 64
2, 70560, Note_on_c, 2, 50, 100
2, 70800, Note_off_c, 2, 50, 64
2, 70800, Note_on_c, 2, 38, 100
2, 71040, Note_off_c, 2, 38, 64
2, 71040, Note_on_c, 2, 45, 100
2, 71280, Note_off_c, 2, 45, 64
2, 71280, Note_on_c, 2, 33, 100
2, 71520, Note_off_c, 2, 33, 64
2, 71520, Note_on_c, 2, 45, 100
2, 71760, Note_off_c, 2, 45, 64
2, 71760, Note_on_c, 2, 33, 100
2, 72000, Note_off_c, 2, 33, 64
2, 72000, Note_on_c, 2, 45, 100
2, 72240, Note_off_c, 2, 45, 64
2, 72240, Note_on_c, 2, 33, 100
2, 72480, Note_off_c, 2, 33, 64
2, 72480, Note_on_c, 2, 45, 100
2, 72720, Note_off_c, 2, 45, 64
2, 72720, Note_on_c, 2, 33, 100
2, 72960, Note_off_c, 2, 33, 64
2, 72960, Note_on_c, 2, 45, 100
2, 73200, Note_off_c, 2, 45, 64
2, 73200, Note_on_c, 2, 33, 100
2, 73440, Note_off_c, 2, 33, 64
2, 73440, Note_on_c, 2, 45, 100
2, 73680, Note_off_c, 2, 45, 64
2, 73680, Note_on_c, 2, 33, 100
2, 73920, Note_off_c, 2, 33, 64
2, 73920, Note_on_c, 2, 45, 100
2, 74160, Note_off_c, 2, 45, 64
2, 74160, Note_on_c, 2, 33, 100
2, 74400, Note_off_c, 2, 33, 64
2, 74400, Note_on_c, 2, 45, 100
2, 74640, Note_off_c, 2, 45, 64
2, 74640, Note_on_c, 2, 33, 100
2, 74880, Note_off_c, 2, 33, 64
2, 74880, Note_on_c, 2, 40, 100
2, 75120, Note_off_c, 2, 40, 64
2, 75120, Note_on_c, 2, 28, 100
2, 75360, Note_off_c, 2, 28, 64
2, 75360, Note_on_c, 2, 40, 100
2, 75600, Note_off_c, 2, 40, 64
2, 75600, Note_on_c, 2, 28, 100
2, 75840, Note_off_c, 2, 28, 64
2, 75840, Note_on_c, 2, 40, 100
2, 76080, Note_off_c, 2, 40, 64
2, 76080, Note_on_c, 2, 28, 100
2, 76320, Note_off_c, 2, 28, 64
2, 76320, Note_on_c, 2, 40, 100
2, 76560, Note_off_c, 2, 40, 64
2, 76560, Note_on_c, 2, 28, 100
2, 76800, Note_off_c, 2, 28, 64
2, 76800, Note_on_c, 2, 40, 100
2, 77040, Note_off_c, 2, 40, 64
2, 77040, Note_on_c, 2, 28, 100
2, 77280, Note_off_c, 2, 28, 64
2, 77280, Note_on_c, 2, 40, 100
2, 77520, Note_off_c, 2, 40, 64
2, 77520, Note_on_c, 2, 28, 100
2, 77760, Note_off_c, 2, 28, 64
2, 77760, Note_on_c, 2, 40, 100
2, 78000, Note_off_c, 2, 40, 64
2, 78000, Note_on_c, 2, 28, 100
2, 78240, Note_off_c, 2, 28, 64
2, 78240, Note_on_c, 2, 40, 100
2, 78480, Note_off_c, 2, 40, 64
2, 78480, Note_on_c, 2, 28, 100
2, 78720, Note_off_c, 2, 28, 64
2, 78720, Note_on_c, 2, 45, 100
2, 78960, Note_off_c, 2, 45, 64
2, 78960, Note_on_c, 2, 33, 100
2, 79200, Note_off_c, 2, 33, 64
2, 79200, Note_on_c, 2, 45, 100
2, 79440, Note_off_c, 2, 45, 64
2, 79440, Note_on_c, 2, 33, 100
2, 79680, Note_off_c, 2, 33, 64
2, 79680, Note_on_c, 2, 45, 100
2, 79920, Note_off_c, 2, 45, 64
2, 79920, Note_on_c, 2, 33, 100
2, 80160, Note_off_c, 2, 33, 64
2, 80160, Note_on_c, 2, 45, 100
2, 80400, Note_off_c, 2, 45, 64
2, 80400, Note_on_c, 2, 33, 100
2, 80640, Note_off_c, 2, 33, 64
2, 80640, Note_on_c, 2, 45, 100
2, 80880, Note_off_c, 2, 45, 64
2, 80880, Note_on_c, 2, 33, 100
2, 81120, Note_off_c, 2, 33, 64
2, 81120, Note_on_c, 2, 45, 100
2, 81360, Note_off_c, 2, 45, 64
2, 81360, Note_on_c, 2, 33, 100
2, 81600, Note_off_c, 2, 33, 64
2, 81600, Note_on_c, 2, 45, 100
2, 81840, Note_off_c, 2, 45, 64
2, 81840, Note_on_c, 2, 33, 100
2, 82080, Note_off_c, 2, 33, 64
2, 82080, Note_on_c, 2, 45, 100
2, 82320, Note_off_c, 2, 45, 64
2, 82320, Note_on_c, 2, 33, 100
2, 82560, Note_off_c, 2, 33, 64
2, 82560, Note_on_c, 2, 45, 100
2, 82800, Note_off_c, 2, 45, 64
2, 82800, Note_on_c, 2, 33, 100
2, 83040, Note_off_c, 2, 33, 64
2, 83040, Note_on_c, 2, 45, 100
2, 83280, Note_off_c, 2, 45, 64
2, 83280, Note_on_c, 2, 33, 100
2, 83520, Note_off_c, 2, 33, 64
2, 83520, Note_on_c, 2, 45, 100
2, 83760, Note_off_c, 2, 45, 64
2, 83760, Note_on_c, 2, 33, 100
2, 84000, Note_off_c, 2, 33, 64
2, 84000, Note_on_c, 2, 45, 100
2, 84240, Note_off_c, 2, 45, 64
2, 84240, Note_on_c, 2, 33, 100
2, 84480, Note_off_c, 2, 33, 64
2, 84480, Note_on_c, 2, 45, 100
2, 84720, Note_off_c, 2, 45, 64
2, 84720, Note_on_c, 2, 33, 100
2, 84960, Note_off_c, 2, 33, 64
2, 84960, Note_on_c, 2, 45, 100
2, 85200, Note_off_c, 2, 45, 64
2, 85200, Note_on_c, 2, 33, 100
2, 85440, Note_off_c, 2, 33, 64
2, 85440, Note_on_c, 2, 45, 100
2, 85680, Note_off_c, 2, 45, 64
2, 85680, Note_on_c, 2, 33, 100
2, 85920, Note_off_c, 2, 33, 64
2, 85920, Note_on_c, 2, 45, 100
2, 86160, Note_off_c, 2, 45, 64
2, 86160, Note_on_c, 2, 33, 100
2, 86400, Note_off_c, 2, 33, 64
2, 86400, Note_on_c, 2, 45, 100
2, 86640, Note_off_c, 2, 45, 64
2, 86640, Note_on_c, 2, 33, 100
2, 86880, Note_off_c, 2, 33, 64
2, 86880, Note_on_c, 2, 45, 100
2, 87120, Note_off_c, 2, 45, 64
2, 87120, Note_on_c, 2, 33, 100
2, 87360, Note_off_c, 2, 33, 64
2, 87360, Note_on_c, 2, 45, 100
2, 87600, Note_off_c, 2, 45, 64
2, 87600, Note_on_c, 2, 33, 100
2, 87840, Note_off_c, 2, 33, 64
2, 87840, Note_on_c, 2, 45, 100
2, 88080, Note_off_c, 2, 45, 64
2, 88080, Note_on_c, 2, 33, 100
2, 88320, Note_off_c, 2, 33, 64
2, 88320, Note_on_c, 2, 45, 100
2, 88560, Note_off_c, 2, 45, 64
2, 88560, Note_on_c, 2, 33, 100
2, 88800, Note_off_c, 2, 33, 64
2, 88800, Note_on_c, 2, 45, 100
2, 89040, Note_off_c, 2, 45, 64
2, 89040, Note_on_c, 2, 33, 100
2, 89280, Note_off_c, 2, 33, 64
2, 89280, Note_on_c, 2, 45, 100
2, 89520, Note_off_c, 2, 45, 64
2, 89520, Note_on_c, 2, 33, 100
2, 89760, Note_off_c, 2, 33, 64
2, 89760, Note_on_c, 2, 45, 100
2, 90000, Note_off_c, 2, 45, 64
2, 90000, Note_on_c, 2, 33, 100
2, 90240, Note_off_c, 2, 33, 64
2, 90240, Note_on_c, 2, 45, 100
2, 90480, Note_off_c, 2, 45, 64
2, 90480, Note_on_c, 2, 33, 100
2, 90720, Note_off_c, 2, 33, 64
2, 90720, Note_on_c, 2, 45, 100
2, 90960, Note_off_c, 2, 45, 64
2, 90960, Note_on_c, 2, 33, 100
2, 91200, Note_off_c, 2, 33, 64
2, 91200, Note_on_c, 2, 45, 100
2, 91440, Note_off_c, 2, 45, 64
2, 91440, Note_on_c, 2, 33, 100
2, 91680, Note_off_c, 2, 33, 64
2, 91680, Note_on_c, 2, 45, 100
2, 91920, Note_off_c, 2, 45, 64
2, 91920, Note_on_c, 2, 33, 100
2, 92160, Note_off_c, 2, 33, 64
2, 92160, Note_on_c, 2, 45, 100
2, 92400, Note_off_c, 2, 45, 64
2, 92400, Note_on_c, 2, 33, 100
2, 92640, Note_off_c, 2, 33, 64
2, 92640, Note_on_c, 2, 45, 100
2, 92880, Note_off_c, 2, 45, 64
2, 92880, Note_on_c, 2, 33, 100
2, 93120, Note_off_c, 2, 33, 64
2, 93120, Note_on_c, 2, 45, 100
2, 93360, Note_off_c, 2, 45, 64
2, 93360, Note_on_c, 2, 33, 100
2, 93600, Note_off_c, 2, 33, 64
2, 93600, Note_on_c, 2, 45, 100
2, 93840, Note_off_c, 2, 45, 64
2, 93840, Note_on_c, 2, 33, 100
2, 94080, Note_off_c, 2, 33, 64
2, 94080, Note_on_c, 2, 40, 100
2, 94320, Note_off_c, 2, 40, 64
2, 94320, Note_on_c, 2, 28, 100
2, 94560, Note_off_c, 2, 28, 64
2, 94560, Note_on_c, 2, 40, 100
2, 94800, Note_off_c, 2, 40, 64
2, 94800, Note_on_c, 2, 28, 100
2, 95040, Note_off_c, 2, 28, 64
2, 95040, Note_on_c, 2, 40, 100
2, 95280, Note_off_c, 2, 40, 64
2, 95280, Note_on_c, 2, 28, 100
2, 95520, Note_off_c, 2, 28, 64
2, 95520, Note_on_c, 2, 40, 100
2, 95760, Note_off_c, 2, 40, 64
2, 95760, Note_on_c, 2, 28, 100
2, 96000, Note_off_c, 2, 28, 64
2, 96000, Note_on_c, 2, 40, 100
2, 96240, Note_off_c, 2, 40, 64
2, 96240, Note_on_c, 2, 28, 100
2, 96480, Note_off_c, 2, 28, 64
2, 96480, Note_on_c, 2, 40, 100
2, 96720, Note_off_c, 2, 40, 64
2, 96720, Note_on_c, 2, 28, 100
2, 96960, Note_off_c, 2, 28, 64
2, 96960, Note_on_c, 2, 40, 100
2, 97200, Note_off_c, 2, 40, 64
2, 97200, Note_on_c, 2, 28, 100
2, 97440, Note_off_c, 2, 28, 64
2, 97440, Note_on_c, 2, 40, 100
2, 97680, Note_off_c, 2, 40, 64
2, 97680, Note_on_c, 2, 28, 100
2, 97920, Note_off_c, 2, 28, 64
2, 97920, Note_on_c, 2, 45, 100
2, 98160, Note_off_c, 2, 45, 64
2, 98160, Note_on_c, 2, 33, 100
2, 98400, Note_off_c, 2, 33, 64
2, 98400, Note_on_c, 2, 45, 100
2, 98640, Note_off_c, 2, 45, 64
2, 98640, Note_on_c, 2, 33, 100
2, 98880, Note_off_c, 2, 33, 64
2, 98880, Note_on_c, 2, 45, 100
2, 99120, Note_off_c, 2, 45, 64
2, 99120, Note_on_c, 2, 33, 100
2, 99360, Note_off_c, 2, 33, 64
2, 99360, Note_on_c, 2, 45, 100
2, 99600, Note_off_c, 2, 45, 64
2, 99600, Note_on_c, 2, 33, 100
2, 99840, Note_off_c, 2, 33, 64
2, 99840, Note_on_c, 2, 40, 100
2, 100080, Note_off_c, 2, 40, 64
2, 100080, Note_on_c, 2, 28, 100
2, 100320, Note_off_c, 2, 28, 64
2, 100320, Note_on_c, 2, 40, 100
2, 100560, Note_off_c, 2, 40, 64
2, 100560, Note_on_c, 2, 28, 100
2, 100800, Note_off_c, 2, 28, 64
2, 100800, Note_on_c, 2, 40, 100
2, 101040, Note_off_c, 2, 40, 64
2, 101040, Note_on_c, 2, 28, 100
2, 101280, Note_off_c, 2, 28, 64
2, 101280, Note_on_c, 2, 40, 100
2, 101520, Note_off_c, 2, 40, 64
2, 101520, Note_on_c, 2, 28, 100
2, 101760, Note_off_c, 2, 28, 64
2, 101760, Note_on_c, 2, 45, 100
2, 102000, Note_off_c, 2, 45, 64
2, 102000, Note_on_c, 2, 33, 100
2, 102240, Note_off_c, 2, 33, 64
2, 102240, Note_on_c, 2, 45, 100
2, 102480, Note_off_c, 2, 45, 64
2, 102480, Note_on_c, 2, 33, 100
2, 102720, Note_off_c, 2, 33, 64
2, 102720, Note_on_c, 2, 45, 100
2, 102960, Note_off_c, 2, 45, 64
2, 102960, Note_on_c, 2, 33, 100
2, 103200, Note_off_c, 2, 33, 64
2, 103200, Note_on_c, 2, 45, 100
2, 103440, Note_off_c, 2, 45, 64
2, 103440, Note_on_c, 2, 33, 100
2, 103680, Note_off_c, 2, 33, 64
2, 103680, Note_on_c, 2, 45, 100
2, 103920, Note_off_c, 2, 45, 64
2, 103920, Note_on_c, 2, 33, 100
2, 104160, Note_off_c, 2, 33, 64
2, 104160, Note_on_c, 2, 45, 100
2, 104400, Note_off_c, 2, 45, 64
2, 104400, Note_on_c, 2, 33, 100
2, 104640, Note_off_c, 2, 33, 64
2, 104640, Note_on_c, 2, 45, 100
2, 104880, Note_off_c, 2, 45, 64
2, 104880, Note_on_c, 2, 33, 100
2, 105120, Note_off_c, 2, 33, 64
2, 105120, Note_on_c, 2, 45, 100
2, 105360, Note_off_c, 2, 45, 64
2, 105360, Note_on_c, 2, 33, 100
2, 105600, Note_off_c, 2, 33, 64
2, 105600, Note_on_c, 2, 45, 100
2, 105840, Note_off_c, 2, 45, 64
2, 105840, Note_on_c, 2, 33, 100
2, 106080, Note_off_c, 2, 33, 64
2, 106080, Note_on_c, 2, 45, 100
2, 106320, Note_off_c, 2, 45, 64
2, 106320, Note_on_c, 2, 33, 100
2, 106560, Note_off_c, 2, 33, 64
2, 106560, Note_on_c, 2, 45, 100
2, 106800, Note_off_c, 2, 45, 64
2, 106800, Note_on_c, 2, 33, 100
2, 107040, Note_off_c, 2, 33, 64
2, 107040, Note_on_c, 2, 45, 100
2, 107280, Note_off_c, 2, 45, 64
2, 107280, Note_on_c, 2, 33, 100
2, 107520, Note_off_c, 2, 33, 64
2, 107520, Note_on_c, 2, 45, 100
2, 107760, Note_off_c, 2, 45, 64
2, 107760, Note_on_c, 2, 33, 100
2, 108000, Note_off_c, 2, 33, 64
2, 108000, Note_on_c, 2, 45, 100
2, 108240, Note_off_c, 2, 45, 64
2, 108240, Note_on_c, 2, 33, 100
2, 108480, Note_off_c, 2, 33, 64
2, 108480, Note_on_c, 2, 45, 100
2, 108720, Note_off_c, 2, 45, 64
2, 108720, Note_on_c, 2, 33, 100
2, 108960, Note_off_c, 2, 33, 64
2, 108960, Note_on_c, 2, 45, 100
2, 109200, Note_off_c, 2, 45, 64
2, 109200, Note_on_c, 2, 33, 100
2, 109440, Note_off_c, 2, 33, 64
2, 109440, Note_on_c, 2, 45, 100
2, 109680, Note_off_c, 2, 45, 64
2, 109680, Note_on_c, 2, 33, 100
2, 109920, Note_off_c, 2, 33, 64
2, 109920, Note_on_c, 2, 45, 100
2, 110160, Note_off_c, 2, 45, 64
2, 110160, Note_on_c, 2, 33, 100
2, 110400, Note_off_c, 2, 33, 64
2, 110400, Note_on_c, 2, 45, 100
2, 110640, Note_off_c, 2, 45, 64
2, 110640, Note_on_c, 2, 33, 100
2, 110880, Note_off_c, 2, 33, 64
2, 110880, Note_on_c, 2, 45, 100
2, 111120, Note_off_c, 2, 45, 64
2, 111120, Note_on_c, 2, 33, 100
2, 111360, Note_off_c, 2, 33, 64
2, 111360, Note_on_c, 2, 45, 100
2, 111600, Note_off_c, 2, 45, 64
2, 111600, Note_on_c, 2, 33, 100
2, 111840, Note_off_c, 2, 33, 64
2, 111840, Note_on_c, 2, 45, 100
2, 112080, Note_off_c, 2, 45, 64
2, 112080, Note_on_c, 2, 33, 100
2, 112320, Note_off_c, 2, 33, 64
2, 112320, Note_on_c, 2, 45, 100
2, 112560, Note_off_c, 2, 45, 64
2, 112560, Note_on_c, 2, 33, 100
2, 112800, Note_off_c, 2, 33, 64
2, 112800, Note_on_c, 2, 45, 100
2, 113040, Note_off_c, 2, 45, 64
2, 113040, Note_on_c, 2, 33, 100
2, 113280, Note_off_c, 2, 33, 64
2, 113280, Note_on_c, 2, 45, 100
2, 113520, Note_off_c, 2, 45, 64
2, 113520, Note_on_c, 2, 33, 100
2, 113760, Note_off_c, 2, 33, 64
2, 113760, Note_on_c, 2, 45, 100
2, 114000, Note_off_c, 2, 45, 64
2, 114000, Note_on_c, 2, 33, 100
2, 114240, Note_off_c, 2, 33, 64
2, 114240, Note_on_c, 2, 45, 100
2, 114480, Note_off_c, 2, 45, 64
2, 114480, Note_on_c, 2, 33, 100
2, 114720, Note_off_c, 2, 33, 64
2, 114720, Note_on_c, 2, 45, 100
2, 114960, Note_off_c, 2, 45, 64
2, 114960, Note_on_c, 2, 33, 100
2, 115200, Note_off_c, 2, 33, 64
2, 115200, Note_on_c, 2, 45, 100
2, 115440, Note_off_c, 2, 45, 64
2, 115440, Note_on_c, 2, 33, 100
2, 115680, Note_off_c, 2, 33, 64
2, 115680, Note_on_c, 2, 45, 100
2, 115920, Note_off_c, 2, 45, 64
2, 115920, Note_on_c, 2, 33, 100
2, 116160, Note_off_c, 2, 33, 64
2, 116160, Note_on_c, 2, 45, 100
2, 116400, Note_off_c, 2, 45, 64
2, 116400, Note_on_c, 2, 33, 100
2, 116640, Note_off_c, 2, 33, 64
2, 116640, Note_on_c, 2, 45, 100
2, 116880, Note_off_c, 2, 45, 64
2, 116880, Note_on_c, 2, 33, 100
2, 117120, Note_off_c, 2, 33, 64
2, 117120, Note_on_c, 2, 45, 100
2, 117360, Note_off_c, 2, 45, 64
2, 117360, Note_on_c, 2, 33, 100
2, 117600, Note_off_c, 2, 33, 64
2, 117600, Note_on_c, 2, 45, 100
2, 117840, Note_off_c, 2, 45, 64
2, 117840, Note_on_c, 2, 33, 100
2, 118080, Note_off_c, 2, 33, 64
2, 118080, Note_on_c, 2, 45, 100
2, 118320, Note_off_c, 2, 45, 64
2, 118320, Note_on_c, 2, 33, 100
2, 118560, Note_off_c, 2, 33, 64
2, 118560, Note_on_c, 2, 45, 100
2, 118800, Note_off_c, 2, 45, 64
2, 118800, Note_on_c, 2, 33, 100
2, 119040, Note_off_c, 2, 33, 64
2, 119040, Note_on_c, 2, 45, 100
2, 119280, Note_off_c, 2, 45, 64
2, 119280, Note_on_c, 2, 33, 100
2, 119520, Note_off_c, 2, 33, 64
2, 119520, Note_on_c, 2, 45, 100
2, 119760, Note_off_c, 2, 45, 64
2, 119760, Note_on_c, 2, 33, 100
2, 120000, Note_off_c, 2, 33, 64
2, 120000, Note_on_c, 2, 45, 100
2, 120240, Note_off_c, 2, 45, 64
2, 120240, Note_on_c, 2, 33, 100
2, 120480, Note_off_c, 2, 33, 64
2, 120480, Note_on_c, 2, 45, 100
2, 120720, Note_off_c, 2, 45, 64
2, 120720, Note_on_c, 2, 33, 100
2, 120960, Note_off_c, 2, 33, 64
2, 120960, Note_on_c, 2, 45, 100
2, 121200, Note_off_c, 2, 45, 64
2, 121200, Note_on_c, 2, 33, 100
2, 121440, Note_off_c, 2, 33, 64
2, 121440, Note_on_c, 2, 45, 100
2, 121680, Note_off_c, 2, 45, 64
2, 121680, Note_on_c, 2, 33, 100
2, 121920, Note_off_c, 2, 33, 64
2, 121920, Note_on_c, 2, 45, 100
2, 122160, Note_off_c, 2, 45, 64
2, 122160, Note_on_c, 2, 33, 100
2, 122400, Note_off_c, 2, 33, 64
2, 122400, Note_on_c, 2, 45, 100
2, 122640, Note_off_c, 2, 45, 64
2, 122640, Note_on_c, 2, 33, 100
2, 122880, Note_off_c, 2, 33, 64
2, 122880, Note_on_c, 2, 45, 100
2, 123120, Note_off_c, 2, 45, 64
2, 123120, Note_on_c, 2, 33, 100
2, 123360, Note_off_c, 2, 33, 64
2, 123360, Note_on_c, 2, 45, 100
2, 123600, Note_off_c, 2, 45, 64
2, 123600, Note_on_c, 2, 40, 100
2, 123840, Note_off_c, 2, 40, 64
2, 123840, Note_on_c, 2, 40, 100
2, 124080, Note_off_c, 2, 40, 64
2, 124080, Note_on_c, 2, 28, 100
2, 124320, Note_off_c, 2, 28, 64
2, 124320, Note_on_c, 2, 40, 100
2, 124560, Note_off_c, 2, 40, 64
2, 124560, Note_on_c, 2, 28, 100
2, 124800, Note_off_c, 2, 28, 64
2, 124800, Note_on_c, 2, 40, 100
2, 125040, Note_off_c, 2, 40, 64
2, 125040, Note_on_c, 2, 28, 100
2, 125280, Note_off_c, 2, 28, 64
2, 125280, Note_on_c, 2, 40, 100
2, 125520, Note_off_c, 2, 40, 64
2, 125520, Note_on_c, 2, 28, 100
2, 125760, Note_off_c, 2, 28, 64
2, 125760, Note_on_c, 2, 40, 100
2, 126000, Note_off_c, 2, 40, 64
2, 126000, Note_on_c, 2, 28, 100
2, 126240, Note_off_c, 2, 28, 64
2, 126240, Note_on_c, 2, 40, 100
2, 126480, Note_off_c, 2, 40, 64
2, 126480, Note_on_c, 2, 28, 100
2, 126720, Note_off_c, 2, 28, 64
2, 126720, Note_on_c, 2, 40, 100
2, 126960, Note_off_c, 2, 40, 64
2, 126960, Note_on_c, 2, 28, 100
2, 127200, Note_off_c, 2, 28, 64
2, 127200, Note_on_c, 2, 40, 100
2, 127440, Note_off_c, 2, 40, 64
2, 127440, Note_on_c, 2, 28, 100
2, 127680, Note_off_c, 2, 28, 64
2, 127680, Note_on_c, 2, 40, 100
2, 127920, Note_off_c, 2, 40, 64
2, 127920, Note_on_c, 2, 28, 100
2, 128160, Note_off_c, 2, 28, 64
2, 128160, Note_on_c, 2, 40, 100
2, 128400, Note_off_c, 2, 40, 64
2, 128400, Note_on_c, 2, 28, 100
2, 128640, Note_off_c, 2, 28, 64
2, 128640, Note_on_c, 2, 40, 100
2, 128880, Note_off_c, 2, 40, 64
2, 128880, Note_on_c, 2, 28, 100
2, 129120, Note_off_c, 2, 28, 64
2, 129120, Note_on_c, 2, 40, 100
2, 129360, Note_off_c, 2, 40, 64
2, 129360, Note_on_c, 2, 28, 100
2, 129600, Note_off_c, 2, 28, 64
2, 129600, Note_on_c, 2, 40, 100
2, 129840, Note_off_c, 2, 40, 64
2, 129840, Note_on_c, 2, 28, 100
2, 130080, Note_off_c, 2, 28, 64
2, 130080, Note_on_c, 2, 40, 100
2, 130320, Note_off_c, 2, 40, 64
2, 130320, Note_on_c, 2, 28, 100
2, 130560, Note_off_c, 2, 28, 64
2, 130560, Note_on_c, 2, 40, 100
2, 130800, Note_off_c, 2, 40, 64
2, 130800, Note_on_c, 2, 28, 100
2, 131040, Note_off_c, 2, 28, 64
2, 131040, Note_on_c, 2, 40, 100
2, 131280, Note_off_c, 2, 40, 64
2, 131280, Note_on_c, 2, 28, 100
2, 131520, Note_off_c, 2, 28, 64
2, 131520, Note_on_c, 2, 40, 100
2, 131760, Note_off_c, 2, 40, 64
2, 131760, Note_on_c, 2, 28, 100
2, 132000, Note_off_c, 2, 28, 64
2, 132000, Note_on_c, 2, 40, 100
2, 132240, Note_off_c, 2, 40, 64
2, 132240, Note_on_c, 2, 28, 100
2, 132480, Note_off_c, 2, 28, 64
2, 132480, Note_on_c, 2, 40, 100
2, 132720, Note_off_c, 2, 40, 64
2, 132720, Note_on_c, 2, 28, 100
2, 132960, Note_off_c, 2, 28, 64
2, 132960, Note_on_c, 2, 40, 100
2, 133200, Note_off_c, 2, 40, 64
2, 133200, Note_on_c, 2, 28, 100
2, 133440, Note_off_c, 2, 28, 64
2, 133440, Note_on_c, 2, 40, 100
2, 133680, Note_off_c, 2, 40, 64
2, 133680, Note_on_c, 2, 28, 100
2, 133920, Note_off_c, 2, 28, 64
2, 133920, Note_on_c, 2, 40, 100
2, 134160, Note_off_c, 2, 40, 64
2, 134160, Note_on_c, 2, 28, 100
2, 134400, Note_off_c, 2, 28, 64
2, 134400, Note_on_c, 2, 40, 100
2, 134640, Note_off_c, 2, 40, 64
2, 134640, Note_on_c, 2, 28, 100
2, 134880, Note_off_c, 2, 28, 64
2, 134880, Note_on_c, 2, 40, 100
2, 135120, Note_off_c, 2, 40, 64
2, 135120, Note_on_c, 2, 28, 100
2, 135360, Note_off_c, 2, 28, 64
2, 135360, Note_on_c, 2, 40, 100
2, 135600, Note_off_c, 2, 40, 64
2, 135600, Note_on_c, 2, 28, 100
2, 135840, Note_off_c, 2, 28, 64
2, 135840, Note_on_c, 2, 40, 100
2, 136080, Note_off_c, 2, 40, 64
2, 136080, Note_on_c, 2, 28, 100
2, 136320, Note_off_c, 2, 28, 64
2, 136320, Note_on_c, 2, 40, 100
2, 136560, Note_off_c, 2, 40, 64
2, 136560, Note_on_c, 2, 28, 100
2, 136800, Note_off_c, 2, 28, 64
2, 136800, Note_on_c, 2, 40, 100
2, 137040, Note_off_c, 2, 40, 64
2, 137040, Note_on_c, 2, 28, 100
2, 137280, Note_off_c, 2, 28, 64
2, 137280, Note_on_c, 2, 40, 100
2, 137520, Note_off_c, 2, 40, 64
2, 137520, Note_on_c, 2, 28, 100
2, 137760, Note_off_c, 2, 28, 64
2, 137760, Note_on_c, 2, 40, 100
2, 138000, Note_off_c, 2, 40, 64
2, 138000, Note_on_c, 2, 28, 100
2, 138240, Note_off_c, 2, 28, 64
2, 138240, Note_on_c, 2, 40, 100
2, 138480, Note_off_c, 2, 40, 64
2, 138480, Note_on_c, 2, 28, 100
2, 138720, Note_off_c, 2, 28, 64
2, 138720, Note_on_c, 2, 40, 100
2, 138960, Note_off_c, 2, 40, 64
2, 138960, Note_on_c, 2, 28, 100
2, 139200, Note_off_c, 2, 28, 64
2, 139200, Note_on_c, 2, 40, 100
2, 139440, Note_off_c, 2, 40, 64
2, 139440, Note_on_c, 2, 28, 100
2, 139680, Note_off_c, 2, 28, 64
2, 139680, Note_on_c, 2, 40, 100
2, 139920, Note_off_c, 2, 40, 64
2, 139920, Note_on_c, 2, 28, 100
2, 140160, Note_off_c, 2, 28, 64
2, 140160, Note_on_c, 2, 40, 100
2, 140400, Note_off_c, 2, 40, 64
2, 140400, Note_on_c, 2, 28, 100
2, 140640, Note_off_c, 2, 28, 64
2, 140640, Note_on_c, 2, 40, 100
2, 140880, Note_off_c, 2, 40, 64
2, 140880, Note_on_c, 2, 28, 100
2, 141120, Note_off_c, 2, 28, 64
2, 141120, Note_on_c, 2, 40, 100
2, 141360, Note_off_c, 2, 40, 64
2, 141360, Note_on_c, 2, 28, 100
2, 141600, Note_off_c, 2, 28, 64
2, 141600, Note_on_c, 2, 40, 100
2, 141840, Note_off_c, 2, 40, 64
2, 141840, Note_on_c, 2, 28, 100
2, 142080, Note_off_c, 2, 28, 64
2, 142080, Note_on_c, 2, 40, 100
2, 142320, Note_off_c, 2, 40, 64
2, 142320, Note_on_c, 2, 28, 100
2, 142560, Note_off_c, 2, 28, 64
2, 142560, Note_on_c, 2, 40, 100
2, 142800, Note_off_c, 2, 40, 64
2, 142800, Note_on_c, 2, 28, 100
2, 143040, Note_off_c, 2, 28, 64
2, 143040, Note_on_c, 2, 40, 100
2, 143280, Note_off_c, 2, 40, 64
2, 143280, Note_on_c, 2, 28, 100
2, 143520, Note_off_c, 2, 28, 64
2, 143520, Note_on_c, 2, 40, 100
2, 143760, Note_off_c, 2, 40, 64
2, 143760, Note_on_c, 2, 28, 100
2, 144000, Note_off_c, 2, 28, 64
2, 144000, Note_on_c, 2, 40, 100
2, 144240, Note_off_c, 2, 40, 64
2, 144240, Note_on_c, 2, 28, 100
2, 144480, Note_off_c, 2, 28, 64
2, 144480, Note_on_c, 2, 40, 100
2, 144720, Note_off_c, 2, 40, 64
2, 144720, Note_on_c, 2, 28, 100
2, 144960, Note_off_c, 2, 28, 64
2, 144960, Note_on_c, 2, 40, 100
2, 145200, Note_off_c, 2, 40, 64
2, 145200, Note_on_c, 2, 28, 100
2, 145440, Note_off_c, 2, 28, 64
2, 145440, Note_on_c, 2, 40, 100
2, 145680, Note_off_c, 2, 40, 64
2, 145680, Note_on_c, 2, 28, 100
2, 145920, Note_off_c, 2, 28, 64
2, 145920, Note_on_c, 2, 40, 100
2, 146160, Note_off_c, 2, 40, 64
2, 146160, Note_on_c, 2, 28, 100
2, 146400, Note_off_c, 2, 28, 64
2, 146400, Note_on_c, 2, 40, 100
2, 146640, Note_off_c, 2, 40, 64
2, 146640, Note_on_c, 2, 28, 100
2, 146880, Note_off_c, 2, 28, 64
2, 146880, Note_on_c, 2, 40, 100
2, 147120, Note_off_c, 2, 40, 64
2, 147120, Note_on_c, 2, 28, 100
2, 147360, Note_off_c, 2, 28, 64
2, 147360, Note_on_c, 2, 40, 100
2, 147600, Note_off_c, 2, 40, 64
2, 147600, Note_on_c, 2, 28, 100
2, 147840, Note_off_c, 2, 28, 64
2, 147840, Note_on_c, 2, 50, 100
2, 148080, Note_off_c, 2, 50, 64
2, 148080, Note_on_c, 2, 38, 100
2, 148320, Note_off_c, 2, 38, 64
2, 148320, Note_on_c, 2, 50, 100
2, 148560, Note_off_c, 2, 50, 64
2, 148560, Note_on_c, 2, 38, 100
2, 148800, Note_off_c, 2, 38, 64
2, 148800, Note_on_c, 2, 50, 100
2, 149040, Note_off_c, 2, 50, 64
2, 149040, Note_on_c, 2, 38, 100
2, 149280, Note_off_c, 2, 38, 64
2, 149280, Note_on_c, 2, 50, 100
2, 149520, Note_off_c, 2, 50, 64
2, 149520, Note_on_c, 2, 38, 100
2, 149760, Note_off_c, 2, 38, 64
2, 149760, Note_on_c, 2, 50, 100
2, 150000, Note_off_c, 2, 50, 64
2, 150000, Note_on_c, 2, 38, 100
2, 150240, Note_off_c, 2, 38, 64
2, 150240, Note_on_c, 2, 50, 100
2, 150480, Note_off_c, 2, 50, 64
2, 150480, Note_on_c, 2, 38, 100
2, 150720, Note_off_c, 2, 38, 64
2, 150720, Note_on_c, 2, 50, 100
2, 150960, Note_off_c, 2, 50, 64
2, 150960, Note_on_c, 2, 38, 100
2, 151200, Note_off_c, 2, 38, 64
2, 151200, Note_on_c, 2, 50, 100
2, 151440, Note_off_c, 2, 50, 64
2, 151440, Note_on_c, 2, 38, 100
2, 151680, Note_off_c, 2, 38, 64
2, 151680, Note_on_c, 2, 45, 100
2, 151920, Note_off_c, 2, 45, 64
2, 151920, Note_on_c, 2, 33, 100
2, 152160, Note_off_c, 2, 33, 64
2, 152160, Note_on_c, 2, 45, 100
2, 152400, Note_off_c, 2, 45, 64
2, 152400, Note_on_c, 2, 33, 100
2, 152640, Note_off_c, 2, 33, 64
2, 152640, Note_on_c, 2, 45, 100
2, 152880, Note_off_c, 2, 45, 64
2, 152880, Note_on_c, 2, 33, 100
2, 153120, Note_off_c, 2, 33, 64
2, 153120, Note_on_c, 2, 45, 100
2, 153360, Note_off_c, 2, 45, 64
2, 153360, Note_on_c, 2, 33, 100
2, 153600, Note_off_c, 2, 33, 64
2, 153600, Note_on_c, 2, 45, 100
2, 153840, Note_off_c, 2, 45, 64
2, 153840, Note_on_c, 2, 33, 100
2, 154080, Note_off_c, 2, 33, 64
2, 154080, Note_on_c, 2, 45, 100
2, 154320, Note_off_c, 2, 45, 64
2, 154320, Note_on_c, 2, 33, 100
2, 154560, Note_off_c, 2, 33, 64
2, 154560, Note_on_c, 2, 45, 100
2, 154800, Note_off_c, 2, 45, 64
2, 154800, Note_on_c, 2, 33, 100
2, 155040, Note_off_c, 2, 33, 64
2, 155040, Note_on_c, 2, 45, 100
2, 155280, Note_off_c, 2, 45, 64
2, 155280, Note_on_c, 2, 33, 100
2, 155520, Note_off_c, 2, 33, 64
2, 155520, Note_on_c, 2, 50, 100
2, 155760, Note_off_c, 2, 50, 64
2, 155760, Note_on_c, 2, 38, 100
2, 156000, Note_off_c, 2, 38, 64
2, 156000, Note_on_c, 2, 50, 100
2, 156240, Note_off_c, 2, 50, 64
2, 156240, Note_on_c, 2, 38, 100
2, 156480, Note_off_c, 2, 38, 64
2, 156480, Note_on_c, 2, 50, 100
2, 156720, Note_off_c, 2, 50, 64
2, 156720, Note_on_c, 2, 38, 100
2, 156960, Note_off_c, 2, 38, 64
2, 156960, Note_on_c, 2, 50, 100
2, 157200, Note_off_c, 2, 50, 64
2, 157200, Note_on_c, 2, 38, 100
2, 157440, Note_off_c, 2, 38, 64
2, 157440, Note_on_c, 2, 50, 100
2, 157680, Note_off_c, 2, 50, 64
2, 157680, Note_on_c, 2, 38, 100
2, 157920, Note_off_c, 2, 38, 64
2, 157920, Note_on_c, 2, 50, 100
2, 158160, Note_off_c, 2, 50, 64
2, 158160, Note_on_c, 2, 38, 100
2, 158400, Note_off_c, 2, 38, 64
2, 158400, Note_on_c, 2, 50, 100
2, 158640, Note_off_c, 2, 50, 64
2, 158640, Note_on_c, 2, 38, 100
2, 158880, Note_off_c, 2, 38, 64
2, 158880, Note_on_c, 2, 50, 100
2, 159120, Note_off_c, 2, 50, 64
2, 159120, Note_on_c, 2, 38, 100
2, 159360, Note_off_c, 2, 38, 64
2, 159360, Note_on_c, 2, 40, 100
2, 159600, Note_off_c, 2, 40, 64
2, 159600, Note_on_c, 2, 28, 100
2, 159840, Note_off_c, 2, 28, 64
2, 159840, Note_on_c, 2, 40, 100
2, 160080, Note_off_c, 2, 40, 64
2, 160080, Note_on_c, 2, 28, 100
2, 160320, Note_off_c, 2, 28, 64
2, 160320, Note_on_c, 2, 40, 100
2, 160560, Note_off_c, 2, 40, 64
2, 160560, Note_on_c, 2, 28, 100
2, 160800, Note_off_c, 2, 28, 64
2, 160800, Note_on_c, 2, 40, 100
2, 161040, Note_off_c, 2, 40, 64
2, 161040, Note_on_c, 2, 28, 100
2, 161280, Note_off_c, 2, 28, 64
2, 161280, Note_on_c, 2, 40, 100
2, 161520, Note_off_c, 2, 40, 64
2, 161520, Note_on_c, 2, 28, 100
2, 161760, Note_off_c, 2, 28, 64
2, 161760, Note_on_c, 2, 40, 100
2, 162000, Note_off_c, 2, 40, 64
2, 162000, Note_on_c, 2, 28, 100
2, 162240, Note_off_c, 2, 28, 64
2, 162240, Note_on_c, 2, 40, 100
2, 162480, Note_off_c, 2, 40, 64
2, 162480, Note_on_c, 2, 28, 100
2, 162720, Note_off_c, 2, 28, 64
2, 162720, Note_on_c, 2, 40, 100
2, 162960, Note_off_c, 2, 40, 64
2, 162960, Note_on_c, 2, 28, 100
2, 163200, Note_off_c, 2, 28, 64
2, 163200, Note_on_c, 2, 45, 100
2, 163440, Note_off_c, 2, 45, 64
2, 163440, Note_on_c, 2, 33, 100
2, 163680, Note_off_c, 2, 33, 64
2, 163680, Note_on_c, 2, 45, 100
2, 163920, Note_off_c, 2, 45, 64
2, 163920, Note_on_c, 2, 33, 100
2, 164160, Note_off_c, 2, 33, 64
2, 164160, Note_on_c, 2, 45, 100
2, 164400, Note_off_c, 2, 45, 64
2, 164400, Note_on_c, 2, 33, 100
2, 164640, Note_off_c, 2, 33, 64
2, 164640, Note_on_c, 2, 45, 100
2, 164880, Note_off_c, 2, 45, 64
2, 164880, Note_on_c, 2, 33, 100
2, 165120, Note_off_c, 2, 33, 64
2, 165120, Note_on_c, 2, 45, 100
2, 165360, Note_off_c, 2, 45, 64
2, 165360, Note_on_c, 2, 33, 100
2, 165600, Note_off_c, 2, 33, 64
2, 165600, Note_on_c, 2, 45, 100
2, 165840, Note_off_c, 2, 45, 64
2, 165840, Note_on_c, 2, 33, 100
2, 166080, Note_off_c, 2, 33, 64
2, 166080, Note_on_c, 2, 45, 100
2, 166320, Note_off_c, 2, 45, 64
2, 166320, Note_on_c, 2, 33, 100
2, 166560, Note_off_c, 2, 33, 64
2, 166560, Note_on_c, 2, 45, 100
2, 166800, Note_off_c, 2, 45, 64
2, 166800, Note_on_c, 2, 33, 100
2, 167040, Note_off_c, 2, 33, 64
2, 167040, Note_on_c, 2, 50, 100
2, 167280, Note_off_c, 2, 50, 64
2, 167280, Note_on_c, 2, 38, 100
2, 167520, Note_off_c, 2, 38, 64
2, 167520, Note_on_c, 2, 50, 100
2, 167760, Note_off_c, 2, 50, 64
2, 167760, Note_on_c, 2, 38, 100
2, 168000, Note_off_c, 2, 38, 64
2, 168000, Note_on_c, 2, 50, 100
2, 168240, Note_off_c, 2, 50, 64
2, 168240, Note_on_c, 2, 38, 100
2, 168480, Note_off_c, 2, 38, 64
2, 168480, Note_on_c, 2, 50, 100
2, 168720, Note_off_c, 2, 50, 64
2, 168720, Note_on_c, 2, 38, 100
2, 168960, Note_off_c, 2, 38, 64
2, 168960, Note_on_c, 2, 50, 100
2, 169200, Note_off_c, 2, 50, 64
2, 169200, Note_on_c, 2, 38, 100
2, 169440, Note_off_c, 2, 38, 64
2, 169440, Note_on_c, 2, 50, 100
2, 169680, Note_off_c, 2, 50, 64
2, 169680, Note_on_c, 2, 38, 100
2, 169920, Note_off_c, 2, 38, 64
2, 169920, Note_on_c, 2, 50, 100
2, 170160, Note_off_c, 2, 50, 64
2, 170160, Note_on_c, 2, 38, 100
2, 170400, Note_off_c, 2, 38, 64
2, 170400, Note_on_c, 2, 50, 100
2, 170640, Note_off_c, 2, 50, 64
2, 170640, Note_on_c, 2, 38, 100
2, 170880, Note_off_c, 2, 38, 64
2, 170880, Note_on_c, 2, 45, 100
2, 171120, Note_off_c, 2, 45, 64
2, 171120, Note_on_c, 2, 33, 100
2, 171360, Note_off_c, 2, 33, 64
2, 171360, Note_on_c, 2, 45, 100
2, 171600, Note_off_c, 2, 45, 64
2, 171600, Note_on_c, 2, 33, 100
2, 171840, Note_off_c, 2, 33, 64
2, 171840, Note_on_c, 2, 45, 100
2, 172080, Note_off_c, 2, 45, 64
2, 172080, Note_on_c, 2, 33, 100
2, 172320, Note_off_c, 2, 33, 64
2, 172320, Note_on_c, 2, 45, 100
2, 172560, Note_off_c, 2, 45, 64
2, 172560, Note_on_c, 2, 33, 100
2, 172800, Note_off_c, 2, 33, 64
2, 172800, Note_on_c, 2, 45, 100
2, 173040, Note_off_c, 2, 45, 64
2, 173040, Note_on_c, 2, 33, 100
2, 173280, Note_off_c, 2, 33, 64
2, 173280, Note_on_c, 2, 45, 100
2, 173520, Note_off_c, 2, 45, 64
2, 173520, Note_on_c, 2, 33, 100
2, 173760, Note_off_c, 2, 33, 64
2, 173760, Note_on_c, 2, 45, 100
2, 174000, Note_off_c, 2, 45, 64
2, 174000, Note_on_c, 2, 33, 100
2, 174240, Note_off_c, 2, 33, 64
2, 174240, Note_on_c, 2, 45, 100
2, 174480, Note_off_c, 2, 45, 64
2, 174480, Note_on_c, 2, 33, 100
2, 174720, Note_off_c, 2, 33, 64
2, 174720, Note_on_c, 2, 40, 100
2, 174960, Note_off_c, 2, 40, 64
2, 174960, Note_on_c, 2, 28, 100
2, 175200, Note_off_c, 2, 28, 64
2, 175200, Note_on_c, 2, 40, 100
2, 175440, Note_off_c, 2, 40, 64
2, 175440, Note_on_c, 2, 28, 100
2, 175680, Note_off_c, 2, 28, 64
2, 175680, Note_on_c, 2, 40, 100
2, 175920, Note_off_c, 2, 40, 64
2, 175920, Note_on_c, 2, 28, 100
2, 176160, Note_off_c, 2, 28, 64
2, 176160, Note_on_c, 2, 40, 100
2, 176400, Note_off_c, 2, 40, 64
2, 176400, Note_on_c, 2, 28, 100
2, 176640, Note_off_c, 2, 28, 64
2, 176640, Note_on_c, 2, 40, 100
2, 176880, Note_off_c, 2, 40, 64
2, 176880, Note_on_c, 2, 28, 100
2, 177120, Note_off_c, 2, 28, 64
2, 177120, Note_on_c, 2, 40, 100
2, 177360, Note_off_c, 2, 40, 64
2, 177360, Note_on_c, 2, 28, 100
2, 177600, Note_off_c, 2, 28, 64
2, 177600, Note_on_c, 2, 40, 100
2, 177840, Note_off_c, 2, 40, 64
2, 177840, Note_on_c, 2, 28, 100
2, 178080, Note_off_c, 2, 28, 64
2, 178080, Note_on_c, 2, 40, 100
2, 178320, Note_off_c, 2, 40, 64
2, 178320, Note_on_c, 2, 28, 100
2, 178560, Note_off_c, 2, 28, 64
2, 178560, Note_on_c, 2, 40, 100
2, 178800, Note_off_c, 2, 40, 64
2, 178800, Note_on_c, 2, 28, 100
2, 179040, Note_off_c, 2, 28, 64
2, 179040, Note_on_c, 2, 40, 100
2, 179280, Note_off_c, 2, 40, 64
2, 179280, Note_on_c, 2, 28, 100
2, 179520, Note_off_c, 2, 28, 64
2, 179520, Note_on_c, 2, 40, 100
2, 179760, Note_off_c, 2, 40, 64
2, 179760, Note_on_c, 2, 28, 100
2, 180000, Note_off_c, 2, 28, 64
2, 180000, Note_on_c, 2, 40, 100
2, 180240, Note_off_c, 2, 40, 64
2, 180240, Note_on_c, 2, 28, 100
2, 180480, Note_off_c, 2, 28, 64
2, 180480, Note_on_c, 2, 38, 100
2, 180720, Note_off_c, 2, 38, 64
2, 180720, Note_on_c, 2, 26, 100
2, 180960, Note_off_c, 2, 26, 64
2, 180960, Note_on_c, 2, 38, 100
2, 181200, Note_off_c, 2, 38, 64
2, 181200, Note_on_c, 2, 26, 100
2, 181440, Note_off_c, 2, 26, 64
2, 181440, Note_on_c, 2, 38, 100
2, 181680, Note_off_c, 2, 38, 64
2, 181680, Note_on_c, 2, 26, 100
2, 181920, Note_off_c, 2, 26, 64
2, 181920, Note_on_c, 2, 38, 100
2, 182160, Note_off_c, 2, 38, 64
2, 182160, Note_on_c, 2, 26, 100
2, 182400, Note_off_c, 2, 26, 64
2, 182400, Note_on_c, 2, 45, 100
2, 182640, Note_off_c, 2, 45, 64
2, 182640, Note_on_c, 2, 33, 100
2, 182880, Note_off_c, 2, 33, 64
2, 182880, Note_on_c, 2, 45, 100
2, 183120, Note_off_c, 2, 45, 64
2, 183120, Note_on_c, 2, 33, 100
2, 183360, Note_off_c, 2, 33, 64
2, 183360, Note_on_c, 2, 45, 100
2, 183600, Note_off_c, 2, 45, 64
2, 183600, Note_on_c, 2, 33, 100
2, 183840, Note_off_c, 2, 33, 64
2, 183840, Note_on_c, 2, 45, 100
2, 184080, Note_off_c, 2, 45, 64
2, 184080, Note_on_c, 2, 33, 100
2, 184320, Note_off_c, 2, 33, 64
2, 184320, Note_on_c, 2, 33, 100
2, 184320, Note_on_c, 2, 45, 100
2, 190080, Note_off_c, 2, 45, 64
2, 190080, Note_off_c, 2, 33, 64
2, 190080, End_track
3, 0, Start_track
3, 0, Title_t, "Drums"
3, 0, MIDI_port, 0
3, 0, Channel_prefix, 9
3, 0, Control_c, 9, 7, 127
3, 0, Control_c, 9, 10, 64
3, 0, Program_c, 9, 16
3, 45, Pitch_bend_c, 9, 8282
3, 45, Control_c, 9, 121, 0
3, 46, Control_c, 9, 91, 90
3, 48, Control_c, 9, 93, 80
3, 49, Control_c, 9, 2, 127
3, 53, Control_c, 9, 11, 127
3, 720, Note_on_c, 9, 38, 100
3, 720, Note_on_c, 9, 35, 100
3, 720, Note_on_c, 9, 38, 100
3, 720, Note_on_c, 9, 42, 100
3, 960, Note_off_c, 9, 42, 64
3, 960, Note_off_c, 9, 38, 64
3, 960, Note_off_c, 9, 35, 64
3, 960, Note_off_c, 9, 38, 64
3, 960, Note_on_c, 9, 38, 100
3, 960, Note_on_c, 9, 35, 100
3, 960, Note_on_c, 9, 38, 100
3, 960, Note_on_c, 9, 42, 100
3, 1200, Note_off_c, 9, 42, 64
3, 1200, Note_off_c, 9, 38, 64
3, 1200, Note_off_c, 9, 35, 64
3, 1200, Note_off_c, 9, 38, 64
3, 1200, Note_on_c, 9, 35, 100
3, 1200, Note_on_c, 9, 38, 100
3, 1200, Note_on_c, 9, 38, 100
3, 1200, Note_on_c, 9, 42, 100
3, 1440, Note_off_c, 9, 42, 64
3, 1440, Note_off_c, 9, 38, 64
3, 1440, Note_off_c, 9, 38, 64
3, 1440, Note_off_c, 9, 35, 64
3, 1440, Note_on_c, 9, 35, 100
3, 1440, Note_on_c, 9, 38, 100
3, 1440, Note_on_c, 9, 38, 100
3, 1440, Note_on_c, 9, 42, 100
3, 1680, Note_off_c, 9, 42, 64
3, 1680, Note_off_c, 9, 38, 64
3, 1680, Note_off_c, 9, 38, 64
3, 1680, Note_off_c, 9, 35, 64
3, 1680, Note_on_c, 9, 35, 100
3, 1680, Note_on_c, 9, 38, 100
3, 1680, Note_on_c, 9, 38, 100
3, 1680, Note_on_c, 9, 42, 100
3, 1920, Note_off_c, 9, 42, 64
3, 1920, Note_off_c, 9, 38, 64
3, 1920, Note_off_c, 9, 38, 64
3, 1920, Note_off_c, 9, 35, 64
3, 1920, Note_on_c, 9, 42, 100
3, 2160, Note_off_c, 9, 42, 64
3, 2160, Note_on_c, 9, 42, 100
3, 2400, Note_off_c, 9, 42, 64
3, 2400, Note_on_c, 9, 38, 100
3, 2400, Note_on_c, 9, 35, 100
3, 2400, Note_on_c, 9, 38, 100
3, 2400, Note_on_c, 9, 42, 100
3, 2640, Note_off_c, 9, 42, 64
3, 2640, Note_off_c, 9, 38, 64
3, 2640, Note_off_c, 9, 35, 64
3, 2640, Note_off_c, 9, 38, 64
3, 2640, Note_on_c, 9, 42, 100
3, 2880, Note_off_c, 9, 42, 64
3, 2880, Note_on_c, 9, 42, 100
3, 3120, Note_off_c, 9, 42, 64
3, 3120, Note_on_c, 9, 42, 100
3, 3360, Note_off_c, 9, 42, 64
3, 3360, Note_on_c, 9, 38, 100
3, 3360, Note_on_c, 9, 35, 100
3, 3360, Note_on_c, 9, 38, 100
3, 3360, Note_on_c, 9, 42, 100
3, 3600, Note_off_c, 9, 42, 64
3, 3600, Note_off_c, 9, 38, 64
3, 3600, Note_off_c, 9, 35, 64
3, 3600, Note_off_c, 9, 38, 64
3, 3600, Note_on_c, 9, 42, 100
3, 3840, Note_off_c, 9, 42, 64
3, 3840, Note_on_c, 9, 42, 100
3, 4080, Note_off_c, 9, 42, 64
3, 4080, Note_on_c, 9, 42, 100
3, 4320, Note_off_c, 9, 42, 64
3, 4320, Note_on_c, 9, 38, 100
3, 4320, Note_on_c, 9, 35, 100
3, 4320, Note_on_c, 9, 38, 100
3, 4320, Note_on_c, 9, 42, 100
3, 4560, Note_off_c, 9, 42, 64
3, 4560, Note_off_c, 9, 38, 64
3, 4560, Note_off_c, 9, 35, 64
3, 4560, Note_off_c, 9, 38, 64
3, 4560, Note_on_c, 9, 42, 100
3, 4800, Note_off_c, 9, 42, 64
3, 4800, Note_on_c, 9, 42, 100
3, 5040, Note_off_c, 9, 42, 64
3, 5040, Note_on_c, 9, 42, 100
3, 5280, Note_off_c, 9, 42, 64
3, 5280, Note_on_c, 9, 38, 100
3, 5280, Note_on_c, 9, 35, 100
3, 5280, Note_on_c, 9, 38, 100
3, 5280, Note_on_c, 9, 42, 100
3, 5520, Note_off_c, 9, 42, 64
3, 5520, Note_off_c, 9, 38, 64
3, 5520, Note_off_c, 9, 35, 64
3, 5520, Note_off_c, 9, 38, 64
3, 5520, Note_on_c, 9, 42, 100
3, 5760, Note_off_c, 9, 42, 64
3, 5760, Note_on_c, 9, 42, 100
3, 6000, Note_off_c, 9, 42, 64
3, 6000, Note_on_c, 9, 42, 100
3, 6240, Note_off_c, 9, 42, 64
3, 6240, Note_on_c, 9, 38, 100
3, 6240, Note_on_c, 9, 35, 100
3, 6240, Note_on_c, 9, 38, 100
3, 6240, Note_on_c, 9, 42, 100
3, 6480, Note_off_c, 9, 42, 64
3, 6480, Note_off_c, 9, 38, 64
3, 6480, Note_off_c, 9, 35, 64
3, 6480, Note_off_c, 9, 38, 64
3, 6480, Note_on_c, 9, 42, 100
3, 6720, Note_off_c, 9, 42, 64
3, 6720, Note_on_c, 9, 42, 100
3, 6960, Note_off_c, 9, 42, 64
3, 6960, Note_on_c, 9, 42, 100
3, 7200, Note_off_c, 9, 42, 64
3, 7200, Note_on_c, 9, 38, 100
3, 7200, Note_on_c, 9, 35, 100
3, 7200, Note_on_c, 9, 38, 100
3, 7200, Note_on_c, 9, 42, 100
3, 7440, Note_off_c, 9, 42, 64
3, 7440, Note_off_c, 9, 38, 64
3, 7440, Note_off_c, 9, 35, 64
3, 7440, Note_off_c, 9, 38, 64
3, 7440, Note_on_c, 9, 42, 100
3, 7680, Note_off_c, 9, 42, 64
3, 7680, Note_on_c, 9, 42, 100
3, 7920, Note_off_c, 9, 42, 64
3, 7920, Note_on_c, 9, 42, 100
3, 8160, Note_off_c, 9, 42, 64
3, 8160, Note_on_c, 9, 38, 100
3, 8160, Note_on_c, 9, 35, 100
3, 8160, Note_on_c, 9, 38, 100
3, 8160, Note_on_c, 9, 42, 100
3, 8400, Note_off_c, 9, 42, 64
3, 8400, Note_off_c, 9, 38, 64
3, 8400, Note_off_c, 9, 35, 64
3, 8400, Note_off_c, 9, 38, 64
3, 8400, Note_on_c, 9, 42, 100
3, 8640, Note_off_c, 9, 42, 64
3, 8640, Note_on_c, 9, 42, 100
3, 8880, Note_off_c, 9, 42, 64
3, 8880, Note_on_c, 9, 42, 100
3, 9120, Note_off_c, 9, 42, 64
3, 9120, Note_on_c, 9, 38, 100
3, 9120, Note_on_c, 9, 35, 100
3, 9120, Note_on_c, 9, 38, 100
3, 9120, Note_on_c, 9, 42, 100
3, 9240, Note_on_c, 9, 42, 100
3, 9240, Note_on_c, 9, 38, 100
3, 9360, Note_off_c, 9, 38, 64
3, 9360, Note_off_c, 9, 42, 64
3, 9360, Note_off_c, 9, 42, 64
3, 9360, Note_off_c, 9, 38, 64
3, 9360, Note_off_c, 9, 35, 64
3, 9360, Note_off_c, 9, 38, 64
3, 9360, Note_on_c, 9, 42, 100
3, 9360, Note_on_c, 9, 38, 100
3, 9360, Note_on_c, 9, 42, 100
3, 9480, Note_off_c, 9, 38, 64
3, 9480, Note_off_c, 9, 42, 64
3, 9480, Note_on_c, 9, 38, 100
3, 9480, Note_on_c, 9, 42, 100
3, 9600, Note_off_c, 9, 42, 64
3, 9600, Note_off_c, 9, 42, 64
3, 9600, Note_off_c, 9, 38, 64
3, 9600, Note_on_c, 9, 42, 100
3, 9840, Note_off_c, 9, 42, 64
3, 9840, Note_on_c, 9, 42, 100
3, 10080, Note_off_c, 9, 42, 64
3, 10080, Note_on_c, 9, 38, 100
3, 10080, Note_on_c, 9, 35, 100
3, 10080, Note_on_c, 9, 38, 100
3, 10080, Note_on_c, 9, 42, 100
3, 10320, Note_off_c, 9, 42, 64
3, 10320, Note_off_c, 9, 38, 64
3, 10320, Note_off_c, 9, 35, 64
3, 10320, Note_off_c, 9, 38, 64
3, 10320, Note_on_c, 9, 42, 100
3, 10560, Note_off_c, 9, 42, 64
3, 10560, Note_on_c, 9, 42, 100
3, 10800, Note_off_c, 9, 42, 64
3, 10800, Note_on_c, 9, 42, 100
3, 11040, Note_off_c, 9, 42, 64
3, 11040, Note_on_c, 9, 38, 100
3, 11040, Note_on_c, 9, 35, 100
3, 11040, Note_on_c, 9, 38, 100
3, 11040, Note_on_c, 9, 42, 100
3, 11280, Note_off_c, 9, 42, 64
3, 11280, Note_off_c, 9, 38, 64
3, 11280, Note_off_c, 9, 35, 64
3, 11280, Note_off_c, 9, 38, 64
3, 11280, Note_on_c, 9, 42, 100
3, 11520, Note_off_c, 9, 42, 64
3, 11520, Note_on_c, 9, 42, 100
3, 11760, Note_off_c, 9, 42, 64
3, 11760, Note_on_c, 9, 42, 100
3, 12000, Note_off_c, 9, 42, 64
3, 12000, Note_on_c, 9, 38, 100
3, 12000, Note_on_c, 9, 35, 100
3, 12000, Note_on_c, 9, 38, 100
3, 12000, Note_on_c, 9, 42, 100
3, 12240, Note_off_c, 9, 42, 64
3, 12240, Note_off_c, 9, 38, 64
3, 12240, Note_off_c, 9, 35, 64
3, 12240, Note_off_c, 9, 38, 64
3, 12240, Note_on_c, 9, 42, 100
3, 12480, Note_off_c, 9, 42, 64
3, 12480, Note_on_c, 9, 42, 100
3, 12720, Note_off_c, 9, 42, 64
3, 12720, Note_on_c, 9, 42, 100
3, 12960, Note_off_c, 9, 42, 64
3, 12960, Note_on_c, 9, 38, 100
3, 12960, Note_on_c, 9, 35, 100
3, 12960, Note_on_c, 9, 38, 100
3, 12960, Note_on_c, 9, 42, 100
3, 13200, Note_off_c, 9, 42, 64
3, 13200, Note_off_c, 9, 38, 64
3, 13200, Note_off_c, 9, 35, 64
3, 13200, Note_off_c, 9, 38, 64
3, 13200, Note_on_c, 9, 42, 100
3, 13440, Note_off_c, 9, 42, 64
3, 13440, Note_on_c, 9, 42, 100
3, 13680, Note_off_c, 9, 42, 64
3, 13680, Note_on_c, 9, 42, 100
3, 13920, Note_off_c, 9, 42, 64
3, 13920, Note_on_c, 9, 38, 100
3, 13920, Note_on_c, 9, 35, 100
3, 13920, Note_on_c, 9, 38, 100
3, 13920, Note_on_c, 9, 42, 100
3, 14160, Note_off_c, 9, 42, 64
3, 14160, Note_off_c, 9, 38, 64
3, 14160, Note_off_c, 9, 35, 64
3, 14160, Note_off_c, 9, 38, 64
3, 14160, Note_on_c, 9, 42, 100
3, 14400, Note_off_c, 9, 42, 64
3, 14400, Note_on_c, 9, 42, 100
3, 14640, Note_off_c, 9, 42, 64
3, 14640, Note_on_c, 9, 42, 100
3, 14880, Note_off_c, 9, 42, 64
3, 14880, Note_on_c, 9, 38, 100
3, 14880, Note_on_c, 9, 35, 100
3, 14880, Note_on_c, 9, 38, 100
3, 14880, Note_on_c, 9, 42, 100
3, 15120, Note_off_c, 9, 42, 64
3, 15120, Note_off_c, 9, 38, 64
3, 15120, Note_off_c, 9, 35, 64
3, 15120, Note_off_c, 9, 38, 64
3, 15120, Note_on_c, 9, 42, 100
3, 15360, Note_off_c, 9, 42, 64
3, 15360, Note_on_c, 9, 42, 100
3, 15600, Note_off_c, 9, 42, 64
3, 15600, Note_on_c, 9, 42, 100
3, 15840, Note_off_c, 9, 42, 64
3, 15840, Note_on_c, 9, 38, 100
3, 15840, Note_on_c, 9, 35, 100
3, 15840, Note_on_c, 9, 38, 100
3, 15840, Note_on_c, 9, 42, 100
3, 16080, Note_off_c, 9, 42, 64
3, 16080, Note_off_c, 9, 38, 64
3, 16080, Note_off_c, 9, 35, 64
3, 16080, Note_off_c, 9, 38, 64
3, 16080, Note_on_c, 9, 42, 100
3, 16320, Note_off_c, 9, 42, 64
3, 16320, Note_on_c, 9, 42, 100
3, 16560, Note_off_c, 9, 42, 64
3, 16560, Note_on_c, 9, 42, 100
3, 16800, Note_off_c, 9, 42, 64
3, 16800, Note_on_c, 9, 38, 100
3, 16800, Note_on_c, 9, 35, 100
3, 16800, Note_on_c, 9, 38, 100
3, 16800, Note_on_c, 9, 42, 100
3, 16920, Note_on_c, 9, 42, 100
3, 16920, Note_on_c, 9, 38, 100
3, 17040, Note_off_c, 9, 38, 64
3, 17040, Note_off_c, 9, 42, 64
3, 17040, Note_off_c, 9, 42, 64
3, 17040, Note_off_c, 9, 38, 64
3, 17040, Note_off_c, 9, 35, 64
3, 17040, Note_off_c, 9, 38, 64
3, 17040, Note_on_c, 9, 42, 100
3, 17040, Note_on_c, 9, 38, 100
3, 17040, Note_on_c, 9, 42, 100
3, 17160, Note_off_c, 9, 38, 64
3, 17160, Note_off_c, 9, 42, 64
3, 17160, Note_on_c, 9, 38, 100
3, 17160, Note_on_c, 9, 42, 100
3, 17280, Note_off_c, 9, 42, 64
3, 17280, Note_off_c, 9, 42, 64
3, 17280, Note_off_c, 9, 38, 64
3, 17280, Note_on_c, 9, 42, 100
3, 17520, Note_off_c, 9, 42, 64
3, 17520, Note_on_c, 9, 42, 100
3, 17760, Note_off_c, 9, 42, 64
3, 17760, Note_on_c, 9, 38, 100
3, 17760, Note_on_c, 9, 35, 100
3, 17760, Note_on_c, 9, 38, 100
3, 17760, Note_on_c, 9, 42, 100
3, 18000, Note_off_c, 9, 42, 64
3, 18000, Note_off_c, 9, 38, 64
3, 18000, Note_off_c, 9, 35, 64
3, 18000, Note_off_c, 9, 38, 64
3, 18000, Note_on_c, 9, 42, 100
3, 18240, Note_off_c, 9, 42, 64
3, 18240, Note_on_c, 9, 42, 100
3, 18480, Note_off_c, 9, 42, 64
3, 18480, Note_on_c, 9, 42, 100
3, 18720, Note_off_c, 9, 42, 64
3, 18720, Note_on_c, 9, 38, 100
3, 18720, Note_on_c, 9, 35, 100
3, 18720, Note_on_c, 9, 38, 100
3, 18720, Note_on_c, 9, 42, 100
3, 18960, Note_off_c, 9, 42, 64
3, 18960, Note_off_c, 9, 38, 64
3, 18960, Note_off_c, 9, 35, 64
3, 18960, Note_off_c, 9, 38, 64
3, 18960, Note_on_c, 9, 42, 100
3, 19200, Note_off_c, 9, 42, 64
3, 19200, Note_on_c, 9, 42, 100
3, 19440, Note_off_c, 9, 42, 64
3, 19440, Note_on_c, 9, 42, 100
3, 19680, Note_off_c, 9, 42, 64
3, 19680, Note_on_c, 9, 38, 100
3, 19680, Note_on_c, 9, 35, 100
3, 19680, Note_on_c, 9, 38, 100
3, 19680, Note_on_c, 9, 42, 100
3, 19920, Note_off_c, 9, 42, 64
3, 19920, Note_off_c, 9, 38, 64
3, 19920, Note_off_c, 9, 35, 64
3, 19920, Note_off_c, 9, 38, 64
3, 19920, Note_on_c, 9, 42, 100
3, 20160, Note_off_c, 9, 42, 64
3, 20160, Note_on_c, 9, 42, 100
3, 20400, Note_off_c, 9, 42, 64
3, 20400, Note_on_c, 9, 42, 100
3, 20640, Note_off_c, 9, 42, 64
3, 20640, Note_on_c, 9, 38, 100
3, 20640, Note_on_c, 9, 35, 100
3, 20640, Note_on_c, 9, 38, 100
3, 20640, Note_on_c, 9, 42, 100
3, 20880, Note_off_c, 9, 42, 64
3, 20880, Note_off_c, 9, 38, 64
3, 20880, Note_off_c, 9, 35, 64
3, 20880, Note_off_c, 9, 38, 64
3, 20880, Note_on_c, 9, 42, 100
3, 21120, Note_off_c, 9, 42, 64
3, 21120, Note_on_c, 9, 42, 100
3, 21360, Note_off_c, 9, 42, 64
3, 21360, Note_on_c, 9, 42, 100
3, 21600, Note_off_c, 9, 42, 64
3, 21600, Note_on_c, 9, 38, 100
3, 21600, Note_on_c, 9, 35, 100
3, 21600, Note_on_c, 9, 38, 100
3, 21600, Note_on_c, 9, 42, 100
3, 21840, Note_off_c, 9, 42, 64
3, 21840, Note_off_c, 9, 38, 64
3, 21840, Note_off_c, 9, 35, 64
3, 21840, Note_off_c, 9, 38, 64
3, 21840, Note_on_c, 9, 42, 100
3, 22080, Note_off_c, 9, 42, 64
3, 22080, Note_on_c, 9, 42, 100
3, 22320, Note_off_c, 9, 42, 64
3, 22320, Note_on_c, 9, 42, 100
3, 22560, Note_off_c, 9, 42, 64
3, 22560, Note_on_c, 9, 38, 100
3, 22560, Note_on_c, 9, 35, 100
3, 22560, Note_on_c, 9, 38, 100
3, 22560, Note_on_c, 9, 42, 100
3, 22800, Note_off_c, 9, 42, 64
3, 22800, Note_off_c, 9, 38, 64
3, 22800, Note_off_c, 9, 35, 64
3, 22800, Note_off_c, 9, 38, 64
3, 22800, Note_on_c, 9, 42, 100
3, 23040, Note_off_c, 9, 42, 64
3, 23040, Note_on_c, 9, 42, 100
3, 23280, Note_off_c, 9, 42, 64
3, 23280, Note_on_c, 9, 42, 100
3, 23520, Note_off_c, 9, 42, 64
3, 23520, Note_on_c, 9, 38, 100
3, 23520, Note_on_c, 9, 35, 100
3, 23520, Note_on_c, 9, 38, 100
3, 23520, Note_on_c, 9, 42, 100
3, 23760, Note_off_c, 9, 42, 64
3, 23760, Note_off_c, 9, 38, 64
3, 23760, Note_off_c, 9, 35, 64
3, 23760, Note_off_c, 9, 38, 64
3, 23760, Note_on_c, 9, 42, 100
3, 24000, Note_off_c, 9, 42, 64
3, 24000, Note_on_c, 9, 42, 100
3, 24240, Note_off_c, 9, 42, 64
3, 24240, Note_on_c, 9, 42, 100
3, 24480, Note_off_c, 9, 42, 64
3, 24480, Note_on_c, 9, 38, 100
3, 24480, Note_on_c, 9, 35, 100
3, 24480, Note_on_c, 9, 38, 100
3, 24480, Note_on_c, 9, 42, 100
3, 24600, Note_on_c, 9, 42, 100
3, 24600, Note_on_c, 9, 38, 100
3, 24720, Note_off_c, 9, 38, 64
3, 24720, Note_off_c, 9, 42, 64
3, 24720, Note_off_c, 9, 42, 64
3, 24720, Note_off_c, 9, 38, 64
3, 24720, Note_off_c, 9, 35, 64
3, 24720, Note_off_c, 9, 38, 64
3, 24720, Note_on_c, 9, 42, 100
3, 24720, Note_on_c, 9, 38, 100
3, 24720, Note_on_c, 9, 42, 100
3, 24840, Note_off_c, 9, 38, 64
3, 24840, Note_off_c, 9, 42, 64
3, 24840, Note_on_c, 9, 38, 100
3, 24840, Note_on_c, 9, 42, 100
3, 24960, Note_off_c, 9, 42, 64
3, 24960, Note_off_c, 9, 42, 64
3, 24960, Note_off_c, 9, 38, 64
3, 24960, Note_on_c, 9, 42, 100
3, 25200, Note_off_c, 9, 42, 64
3, 25200, Note_on_c, 9, 42, 100
3, 25440, Note_off_c, 9, 42, 64
3, 25440, Note_on_c, 9, 38, 100
3, 25440, Note_on_c, 9, 35, 100
3, 25440, Note_on_c, 9, 38, 100
3, 25440, Note_on_c, 9, 42, 100
3, 25680, Note_off_c, 9, 42, 64
3, 25680, Note_off_c, 9, 38, 64
3, 25680, Note_off_c, 9, 35, 64
3, 25680, Note_off_c, 9, 38, 64
3, 25680, Note_on_c, 9, 42, 100
3, 25920, Note_off_c, 9, 42, 64
3, 25920, Note_on_c, 9, 42, 100
3, 26160, Note_off_c, 9, 42, 64
3, 26160, Note_on_c, 9, 42, 100
3, 26400, Note_off_c, 9, 42, 64
3, 26400, Note_on_c, 9, 38, 100
3, 26400, Note_on_c, 9, 35, 100
3, 26400, Note_on_c, 9, 38, 100
3, 26400, Note_on_c, 9, 42, 100
3, 26640, Note_off_c, 9, 42, 64
3, 26640, Note_off_c, 9, 38, 64
3, 26640, Note_off_c, 9, 35, 64
3, 26640, Note_off_c, 9, 38, 64
3, 26640, Note_on_c, 9, 42, 100
3, 26880, Note_off_c, 9, 42, 64
3, 26880, Note_on_c, 9, 42, 100
3, 27120, Note_off_c, 9, 42, 64
3, 27120, Note_on_c, 9, 42, 100
3, 27360, Note_off_c, 9, 42, 64
3, 27360, Note_on_c, 9, 38, 100
3, 27360, Note_on_c, 9, 35, 100
3, 27360, Note_on_c, 9, 38, 100
3, 27360, Note_on_c, 9, 42, 100
3, 27600, Note_off_c, 9, 42, 64
3, 27600, Note_off_c, 9, 38, 64
3, 27600, Note_off_c, 9, 35, 64
3, 27600, Note_off_c, 9, 38, 64
3, 27600, Note_on_c, 9, 42, 100
3, 27840, Note_off_c, 9, 42, 64
3, 27840, Note_on_c, 9, 42, 100
3, 28080, Note_off_c, 9, 42, 64
3, 28080, Note_on_c, 9, 42, 100
3, 28320, Note_off_c, 9, 42, 64
3, 28320, Note_on_c, 9, 38, 100
3, 28320, Note_on_c, 9, 35, 100
3, 28320, Note_on_c, 9, 38, 100
3, 28320, Note_on_c, 9, 42, 100
3, 28560, Note_off_c, 9, 42, 64
3, 28560, Note_off_c, 9, 38, 64
3, 28560, Note_off_c, 9, 35, 64
3, 28560, Note_off_c, 9, 38, 64
3, 28560, Note_on_c, 9, 42, 100
3, 28800, Note_off_c, 9, 42, 64
3, 28800, Note_on_c, 9, 42, 100
3, 29040, Note_off_c, 9, 42, 64
3, 29040, Note_on_c, 9, 42, 100
3, 29280, Note_off_c, 9, 42, 64
3, 29280, Note_on_c, 9, 38, 100
3, 29280, Note_on_c, 9, 35, 100
3, 29280, Note_on_c, 9, 38, 100
3, 29280, Note_on_c, 9, 42, 100
3, 29520, Note_off_c, 9, 42, 64
3, 29520, Note_off_c, 9, 38, 64
3, 29520, Note_off_c, 9, 35, 64
3, 29520, Note_off_c, 9, 38, 64
3, 29520, Note_on_c, 9, 42, 100
3, 29760, Note_off_c, 9, 42, 64
3, 29760, Note_on_c, 9, 42, 100
3, 30000, Note_off_c, 9, 42, 64
3, 30000, Note_on_c, 9, 42, 100
3, 30240, Note_off_c, 9, 42, 64
3, 30240, Note_on_c, 9, 38, 100
3, 30240, Note_on_c, 9, 35, 100
3, 30240, Note_on_c, 9, 38, 100
3, 30240, Note_on_c, 9, 42, 100
3, 30480, Note_off_c, 9, 42, 64
3, 30480, Note_off_c, 9, 38, 64
3, 30480, Note_off_c, 9, 35, 64
3, 30480, Note_off_c, 9, 38, 64
3, 30480, Note_on_c, 9, 42, 100
3, 30720, Note_off_c, 9, 42, 64
3, 30720, Note_on_c, 9, 42, 100
3, 30960, Note_off_c, 9, 42, 64
3, 30960, Note_on_c, 9, 42, 100
3, 31200, Note_off_c, 9, 42, 64
3, 31200, Note_on_c, 9, 38, 100
3, 31200, Note_on_c, 9, 35, 100
3, 31200, Note_on_c, 9, 38, 100
3, 31200, Note_on_c, 9, 42, 100
3, 31440, Note_off_c, 9, 42, 64
3, 31440, Note_off_c, 9, 38, 64
3, 31440, Note_off_c, 9, 35, 64
3, 31440, Note_off_c, 9, 38, 64
3, 31440, Note_on_c, 9, 42, 100
3, 31680, Note_off_c, 9, 42, 64
3, 31680, Note_on_c, 9, 42, 100
3, 31920, Note_off_c, 9, 42, 64
3, 31920, Note_on_c, 9, 42, 100
3, 32160, Note_off_c, 9, 42, 64
3, 32160, Note_on_c, 9, 38, 100
3, 32160, Note_on_c, 9, 35, 100
3, 32160, Note_on_c, 9, 38, 100
3, 32160, Note_on_c, 9, 42, 100
3, 32280, Note_on_c, 9, 42, 100
3, 32280, Note_on_c, 9, 38, 100
3, 32400, Note_off_c, 9, 38, 64
3, 32400, Note_off_c, 9, 42, 64
3, 32400, Note_off_c, 9, 42, 64
3, 32400, Note_off_c, 9, 38, 64
3, 32400, Note_off_c, 9, 35, 64
3, 32400, Note_off_c, 9, 38, 64
3, 32400, Note_on_c, 9, 42, 100
3, 32400, Note_on_c, 9, 38, 100
3, 32400, Note_on_c, 9, 42, 100
3, 32520, Note_off_c, 9, 38, 64
3, 32520, Note_off_c, 9, 42, 64
3, 32520, Note_on_c, 9, 38, 100
3, 32520, Note_on_c, 9, 42, 100
3, 32640, Note_off_c, 9, 42, 64
3, 32640, Note_off_c, 9, 42, 64
3, 32640, Note_off_c, 9, 38, 64
3, 32640, Note_on_c, 9, 42, 100
3, 32880, Note_off_c, 9, 42, 64
3, 32880, Note_on_c, 9, 42, 100
3, 33120, Note_off_c, 9, 42, 64
3, 33120, Note_on_c, 9, 38, 100
3, 33120, Note_on_c, 9, 35, 100
3, 33120, Note_on_c, 9, 38, 100
3, 33120, Note_on_c, 9, 42, 100
3, 33360, Note_off_c, 9, 42, 64
3, 33360, Note_off_c, 9, 38, 64
3, 33360, Note_off_c, 9, 35, 64
3, 33360, Note_off_c, 9, 38, 64
3, 33360, Note_on_c, 9, 42, 100
3, 33600, Note_off_c, 9, 42, 64
3, 33600, Note_on_c, 9, 42, 100
3, 33840, Note_off_c, 9, 42, 64
3, 33840, Note_on_c, 9, 42, 100
3, 34080, Note_off_c, 9, 42, 64
3, 34080, Note_on_c, 9, 38, 100
3, 34080, Note_on_c, 9, 35, 100
3, 34080, Note_on_c, 9, 38, 100
3, 34080, Note_on_c, 9, 42, 100
3, 34320, Note_off_c, 9, 42, 64
3, 34320, Note_off_c, 9, 38, 64
3, 34320, Note_off_c, 9, 35, 64
3, 34320, Note_off_c, 9, 38, 64
3, 34320, Note_on_c, 9, 42, 100
3, 34560, Note_off_c, 9, 42, 64
3, 34560, Note_on_c, 9, 42, 100
3, 34800, Note_off_c, 9, 42, 64
3, 34800, Note_on_c, 9, 42, 100
3, 35040, Note_off_c, 9, 42, 64
3, 35040, Note_on_c, 9, 38, 100
3, 35040, Note_on_c, 9, 35, 100
3, 35040, Note_on_c, 9, 38, 100
3, 35040, Note_on_c, 9, 42, 100
3, 35280, Note_off_c, 9, 42, 64
3, 35280, Note_off_c, 9, 38, 64
3, 35280, Note_off_c, 9, 35, 64
3, 35280, Note_off_c, 9, 38, 64
3, 35280, Note_on_c, 9, 42, 100
3, 35520, Note_off_c, 9, 42, 64
3, 35520, Note_on_c, 9, 42, 100
3, 35760, Note_off_c, 9, 42, 64
3, 35760, Note_on_c, 9, 42, 100
3, 36000, Note_off_c, 9, 42, 64
3, 36000, Note_on_c, 9, 38, 100
3, 36000, Note_on_c, 9, 35, 100
3, 36000, Note_on_c, 9, 38, 100
3, 36000, Note_on_c, 9, 42, 100
3, 36240, Note_off_c, 9, 42, 64
3, 36240, Note_off_c, 9, 38, 64
3, 36240, Note_off_c, 9, 35, 64
3, 36240, Note_off_c, 9, 38, 64
3, 36240, Note_on_c, 9, 42, 100
3, 36480, Note_off_c, 9, 42, 64
3, 36480, Note_on_c, 9, 42, 100
3, 36720, Note_off_c, 9, 42, 64
3, 36720, Note_on_c, 9, 42, 100
3, 36960, Note_off_c, 9, 42, 64
3, 36960, Note_on_c, 9, 38, 100
3, 36960, Note_on_c, 9, 35, 100
3, 36960, Note_on_c, 9, 38, 100
3, 36960, Note_on_c, 9, 42, 100
3, 37200, Note_off_c, 9, 42, 64
3, 37200, Note_off_c, 9, 38, 64
3, 37200, Note_off_c, 9, 35, 64
3, 37200, Note_off_c, 9, 38, 64
3, 37200, Note_on_c, 9, 42, 100
3, 37440, Note_off_c, 9, 42, 64
3, 37440, Note_on_c, 9, 42, 100
3, 37680, Note_off_c, 9, 42, 64
3, 37680, Note_on_c, 9, 42, 100
3, 37920, Note_off_c, 9, 42, 64
3, 37920, Note_on_c, 9, 38, 100
3, 37920, Note_on_c, 9, 35, 100
3, 37920, Note_on_c, 9, 38, 100
3, 37920, Note_on_c, 9, 42, 100
3, 38160, Note_off_c, 9, 42, 64
3, 38160, Note_off_c, 9, 38, 64
3, 38160, Note_off_c, 9, 35, 64
3, 38160, Note_off_c, 9, 38, 64
3, 38160, Note_on_c, 9, 42, 100
3, 38400, Note_off_c, 9, 42, 64
3, 38400, Note_on_c, 9, 42, 100
3, 38640, Note_off_c, 9, 42, 64
3, 38640, Note_on_c, 9, 42, 100
3, 38880, Note_off_c, 9, 42, 64
3, 38880, Note_on_c, 9, 38, 100
3, 38880, Note_on_c, 9, 35, 100
3, 38880, Note_on_c, 9, 38, 100
3, 38880, Note_on_c, 9, 42, 100
3, 39120, Note_off_c, 9, 42, 64
3, 39120, Note_off_c, 9, 38, 64
3, 39120, Note_off_c, 9, 35, 64
3, 39120, Note_off_c, 9, 38, 64
3, 39120, Note_on_c, 9, 42, 100
3, 39360, Note_off_c, 9, 42, 64
3, 39360, Note_on_c, 9, 42, 100
3, 39600, Note_off_c, 9, 42, 64
3, 39600, Note_on_c, 9, 42, 100
3, 39840, Note_off_c, 9, 42, 64
3, 39840, Note_on_c, 9, 38, 100
3, 39840, Note_on_c, 9, 35, 100
3, 39840, Note_on_c, 9, 38, 100
3, 39840, Note_on_c, 9, 42, 100
3, 39960, Note_on_c, 9, 42, 100
3, 39960, Note_on_c, 9, 38, 100
3, 40080, Note_off_c, 9, 38, 64
3, 40080, Note_off_c, 9, 42, 64
3, 40080, Note_off_c, 9, 42, 64
3, 40080, Note_off_c, 9, 38, 64
3, 40080, Note_off_c, 9, 35, 64
3, 40080, Note_off_c, 9, 38, 64
3, 40080, Note_on_c, 9, 42, 100
3, 40080, Note_on_c, 9, 38, 100
3, 40080, Note_on_c, 9, 42, 100
3, 40200, Note_off_c, 9, 38, 64
3, 40200, Note_off_c, 9, 42, 64
3, 40200, Note_on_c, 9, 38, 100
3, 40200, Note_on_c, 9, 42, 100
3, 40320, Note_off_c, 9, 42, 64
3, 40320, Note_off_c, 9, 42, 64
3, 40320, Note_off_c, 9, 38, 64
3, 40320, Note_on_c, 9, 42, 100
3, 40560, Note_off_c, 9, 42, 64
3, 40560, Note_on_c, 9, 42, 100
3, 40800, Note_off_c, 9, 42, 64
3, 40800, Note_on_c, 9, 38, 100
3, 40800, Note_on_c, 9, 35, 100
3, 40800, Note_on_c, 9, 38, 100
3, 40800, Note_on_c, 9, 42, 100
3, 41040, Note_off_c, 9, 42, 64
3, 41040, Note_off_c, 9, 38, 64
3, 41040, Note_off_c, 9, 35, 64
3, 41040, Note_off_c, 9, 38, 64
3, 41040, Note_on_c, 9, 42, 100
3, 41280, Note_off_c, 9, 42, 64
3, 41280, Note_on_c, 9, 42, 100
3, 41520, Note_off_c, 9, 42, 64
3, 41520, Note_on_c, 9, 42, 100
3, 41760, Note_off_c, 9, 42, 64
3, 41760, Note_on_c, 9, 38, 100
3, 41760, Note_on_c, 9, 35, 100
3, 41760, Note_on_c, 9, 38, 100
3, 41760, Note_on_c, 9, 42, 100
3, 42000, Note_off_c, 9, 42, 64
3, 42000, Note_off_c, 9, 38, 64
3, 42000, Note_off_c, 9, 35, 64
3, 42000, Note_off_c, 9, 38, 64
3, 42000, Note_on_c, 9, 42, 100
3, 42240, Note_off_c, 9, 42, 64
3, 42240, Note_on_c, 9, 42, 100
3, 42480, Note_off_c, 9, 42, 64
3, 42480, Note_on_c, 9, 42, 100
3, 42720, Note_off_c, 9, 42, 64
3, 42720, Note_on_c, 9, 38, 100
3, 42720, Note_on_c, 9, 35, 100
3, 42720, Note_on_c, 9, 38, 100
3, 42720, Note_on_c, 9, 42, 100
3, 42960, Note_off_c, 9, 42, 64
3, 42960, Note_off_c, 9, 38, 64
3, 42960, Note_off_c, 9, 35, 64
3, 42960, Note_off_c, 9, 38, 64
3, 42960, Note_on_c, 9, 42, 100
3, 43200, Note_off_c, 9, 42, 64
3, 43200, Note_on_c, 9, 42, 100
3, 43440, Note_off_c, 9, 42, 64
3, 43440, Note_on_c, 9, 42, 100
3, 43680, Note_off_c, 9, 42, 64
3, 43680, Note_on_c, 9, 38, 100
3, 43680, Note_on_c, 9, 35, 100
3, 43680, Note_on_c, 9, 38, 100
3, 43680, Note_on_c, 9, 42, 100
3, 43920, Note_off_c, 9, 42, 64
3, 43920, Note_off_c, 9, 38, 64
3, 43920, Note_off_c, 9, 35, 64
3, 43920, Note_off_c, 9, 38, 64
3, 43920, Note_on_c, 9, 42, 100
3, 44160, Note_off_c, 9, 42, 64
3, 44160, Note_on_c, 9, 42, 100
3, 44400, Note_off_c, 9, 42, 64
3, 44400, Note_on_c, 9, 42, 100
3, 44640, Note_off_c, 9, 42, 64
3, 44640, Note_on_c, 9, 38, 100
3, 44640, Note_on_c, 9, 35, 100
3, 44640, Note_on_c, 9, 38, 100
3, 44640, Note_on_c, 9, 42, 100
3, 44880, Note_off_c, 9, 42, 64
3, 44880, Note_off_c, 9, 38, 64
3, 44880, Note_off_c, 9, 35, 64
3, 44880, Note_off_c, 9, 38, 64
3, 44880, Note_on_c, 9, 42, 100
3, 45120, Note_off_c, 9, 42, 64
3, 45120, Note_on_c, 9, 42, 100
3, 45360, Note_off_c, 9, 42, 64
3, 45360, Note_on_c, 9, 42, 100
3, 45600, Note_off_c, 9, 42, 64
3, 45600, Note_on_c, 9, 38, 100
3, 45600, Note_on_c, 9, 35, 100
3, 45600, Note_on_c, 9, 38, 100
3, 45600, Note_on_c, 9, 42, 100
3, 45840, Note_off_c, 9, 42, 64
3, 45840, Note_off_c, 9, 38, 64
3, 45840, Note_off_c, 9, 35, 64
3, 45840, Note_off_c, 9, 38, 64
3, 45840, Note_on_c, 9, 42, 100
3, 46080, Note_off_c, 9, 42, 64
3, 46080, Note_on_c, 9, 42, 100
3, 46320, Note_off_c, 9, 42, 64
3, 46320, Note_on_c, 9, 42, 100
3, 46560, Note_off_c, 9, 42, 64
3, 46560, Note_on_c, 9, 38, 100
3, 46560, Note_on_c, 9, 35, 100
3, 46560, Note_on_c, 9, 38, 100
3, 46560, Note_on_c, 9, 42, 100
3, 46800, Note_off_c, 9, 42, 64
3, 46800, Note_off_c, 9, 38, 64
3, 46800, Note_off_c, 9, 35, 64
3, 46800, Note_off_c, 9, 38, 64
3, 46800, Note_on_c, 9, 42, 100
3, 47040, Note_off_c, 9, 42, 64
3, 47040, Note_on_c, 9, 42, 100
3, 47280, Note_off_c, 9, 42, 64
3, 47280, Note_on_c, 9, 42, 100
3, 47520, Note_off_c, 9, 42, 64
3, 47520, Note_on_c, 9, 38, 100
3, 47520, Note_on_c, 9, 35, 100
3, 47520, Note_on_c, 9, 38, 100
3, 47520, Note_on_c, 9, 42, 100
3, 47640, Note_on_c, 9, 42, 100
3, 47640, Note_on_c, 9, 38, 100
3, 47760, Note_off_c, 9, 38, 64
3, 47760, Note_off_c, 9, 42, 64
3, 47760, Note_off_c, 9, 42, 64
3, 47760, Note_off_c, 9, 38, 64
3, 47760, Note_off_c, 9, 35, 64
3, 47760, Note_off_c, 9, 38, 64
3, 47760, Note_on_c, 9, 42, 100
3, 47760, Note_on_c, 9, 38, 100
3, 47760, Note_on_c, 9, 42, 100
3, 47880, Note_off_c, 9, 38, 64
3, 47880, Note_off_c, 9, 42, 64
3, 47880, Note_on_c, 9, 38, 100
3, 47880, Note_on_c, 9, 42, 100
3, 48000, Note_off_c, 9, 42, 64
3, 48000, Note_off_c, 9, 42, 64
3, 48000, Note_off_c, 9, 38, 64
3, 48000, Note_on_c, 9, 42, 100
3, 48240, Note_off_c, 9, 42, 64
3, 48240, Note_on_c, 9, 42, 100
3, 48480, Note_off_c, 9, 42, 64
3, 48480, Note_on_c, 9, 38, 100
3, 48480, Note_on_c, 9, 35, 100
3, 48480, Note_on_c, 9, 38, 100
3, 48480, Note_on_c, 9, 42, 100
3, 48720, Note_off_c, 9, 42, 64
3, 48720, Note_off_c, 9, 38, 64
3, 48720, Note_off_c, 9, 35, 64
3, 48720, Note_off_c, 9, 38, 64
3, 48720, Note_on_c, 9, 42, 100
3, 48960, Note_off_c, 9, 42, 64
3, 48960, Note_on_c, 9, 42, 100
3, 49200, Note_off_c, 9, 42, 64
3, 49200, Note_on_c, 9, 42, 100
3, 49440, Note_off_c, 9, 42, 64
3, 49440, Note_on_c, 9, 38, 100
3, 49440, Note_on_c, 9, 35, 100
3, 49440, Note_on_c, 9, 38, 100
3, 49440, Note_on_c, 9, 42, 100
3, 49680, Note_off_c, 9, 42, 64
3, 49680, Note_off_c, 9, 38, 64
3, 49680, Note_off_c, 9, 35, 64
3, 49680, Note_off_c, 9, 38, 64
3, 49680, Note_on_c, 9, 42, 100
3, 49920, Note_off_c, 9, 42, 64
3, 49920, Note_on_c, 9, 42, 100
3, 50160, Note_off_c, 9, 42, 64
3, 50160, Note_on_c, 9, 42, 100
3, 50400, Note_off_c, 9, 42, 64
3, 50400, Note_on_c, 9, 38, 100
3, 50400, Note_on_c, 9, 35, 100
3, 50400, Note_on_c, 9, 38, 100
3, 50400, Note_on_c, 9, 42, 100
3, 50640, Note_off_c, 9, 42, 64
3, 50640, Note_off_c, 9, 38, 64
3, 50640, Note_off_c, 9, 35, 64
3, 50640, Note_off_c, 9, 38, 64
3, 50640, Note_on_c, 9, 42, 100
3, 50880, Note_off_c, 9, 42, 64
3, 50880, Note_on_c, 9, 42, 100
3, 51120, Note_off_c, 9, 42, 64
3, 51120, Note_on_c, 9, 42, 100
3, 51360, Note_off_c, 9, 42, 64
3, 51360, Note_on_c, 9, 38, 100
3, 51360, Note_on_c, 9, 35, 100
3, 51360, Note_on_c, 9, 38, 100
3, 51360, Note_on_c, 9, 42, 100
3, 51600, Note_off_c, 9, 42, 64
3, 51600, Note_off_c, 9, 38, 64
3, 51600, Note_off_c, 9, 35, 64
3, 51600, Note_off_c, 9, 38, 64
3, 51600, Note_on_c, 9, 42, 100
3, 51840, Note_off_c, 9, 42, 64
3, 51840, Note_on_c, 9, 42, 100
3, 52080, Note_off_c, 9, 42, 64
3, 52080, Note_on_c, 9, 42, 100
3, 52320, Note_off_c, 9, 42, 64
3, 52320, Note_on_c, 9, 38, 100
3, 52320, Note_on_c, 9, 35, 100
3, 52320, Note_on_c, 9, 38, 100
3, 52320, Note_on_c, 9, 42, 100
3, 52560, Note_off_c, 9, 42, 64
3, 52560, Note_off_c, 9, 38, 64
3, 52560, Note_off_c, 9, 35, 64
3, 52560, Note_off_c, 9, 38, 64
3, 52560, Note_on_c, 9, 42, 100
3, 52800, Note_off_c, 9, 42, 64
3, 52800, Note_on_c, 9, 42, 100
3, 53040, Note_off_c, 9, 42, 64
3, 53040, Note_on_c, 9, 42, 100
3, 53280, Note_off_c, 9, 42, 64
3, 53280, Note_on_c, 9, 38, 100
3, 53280, Note_on_c, 9, 35, 100
3, 53280, Note_on_c, 9, 38, 100
3, 53280, Note_on_c, 9, 42, 100
3, 53520, Note_off_c, 9, 42, 64
3, 53520, Note_off_c, 9, 38, 64
3, 53520, Note_off_c, 9, 35, 64
3, 53520, Note_off_c, 9, 38, 64
3, 53520, Note_on_c, 9, 42, 100
3, 53760, Note_off_c, 9, 42, 64
3, 53760, Note_on_c, 9, 42, 100
3, 54000, Note_off_c, 9, 42, 64
3, 54000, Note_on_c, 9, 42, 100
3, 54240, Note_off_c, 9, 42, 64
3, 54240, Note_on_c, 9, 38, 100
3, 54240, Note_on_c, 9, 35, 100
3, 54240, Note_on_c, 9, 38, 100
3, 54240, Note_on_c, 9, 42, 100
3, 54480, Note_off_c, 9, 42, 64
3, 54480, Note_off_c, 9, 38, 64
3, 54480, Note_off_c, 9, 35, 64
3, 54480, Note_off_c, 9, 38, 64
3, 54480, Note_on_c, 9, 42, 100
3, 54720, Note_off_c, 9, 42, 64
3, 54720, Note_on_c, 9, 42, 100
3, 54960, Note_off_c, 9, 42, 64
3, 54960, Note_on_c, 9, 42, 100
3, 55200, Note_off_c, 9, 42, 64
3, 55200, Note_on_c, 9, 38, 100
3, 55200, Note_on_c, 9, 35, 100
3, 55200, Note_on_c, 9, 38, 100
3, 55200, Note_on_c, 9, 42, 100
3, 55320, Note_on_c, 9, 42, 100
3, 55320, Note_on_c, 9, 38, 100
3, 55440, Note_off_c, 9, 38, 64
3, 55440, Note_off_c, 9, 42, 64
3, 55440, Note_off_c, 9, 42, 64
3, 55440, Note_off_c, 9, 38, 64
3, 55440, Note_off_c, 9, 35, 64
3, 55440, Note_off_c, 9, 38, 64
3, 55440, Note_on_c, 9, 42, 100
3, 55440, Note_on_c, 9, 38, 100
3, 55440, Note_on_c, 9, 42, 100
3, 55560, Note_off_c, 9, 38, 64
3, 55560, Note_off_c, 9, 42, 64
3, 55560, Note_on_c, 9, 38, 100
3, 55560, Note_on_c, 9, 42, 100
3, 55680, Note_off_c, 9, 42, 64
3, 55680, Note_off_c, 9, 42, 64
3, 55680, Note_off_c, 9, 38, 64
3, 55680, Note_on_c, 9, 42, 100
3, 55920, Note_off_c, 9, 42, 64
3, 55920, Note_on_c, 9, 42, 100
3, 56160, Note_off_c, 9, 42, 64
3, 56160, Note_on_c, 9, 38, 100
3, 56160, Note_on_c, 9, 35, 100
3, 56160, Note_on_c, 9, 38, 100
3, 56160, Note_on_c, 9, 42, 100
3, 56400, Note_off_c, 9, 42, 64
3, 56400, Note_off_c, 9, 38, 64
3, 56400, Note_off_c, 9, 35, 64
3, 56400, Note_off_c, 9, 38, 64
3, 56400, Note_on_c, 9, 42, 100
3, 56640, Note_off_c, 9, 42, 64
3, 56640, Note_on_c, 9, 42, 100
3, 56880, Note_off_c, 9, 42, 64
3, 56880, Note_on_c, 9, 42, 100
3, 57120, Note_off_c, 9, 42, 64
3, 57120, Note_on_c, 9, 38, 100
3, 57120, Note_on_c, 9, 35, 100
3, 57120, Note_on_c, 9, 38, 100
3, 57120, Note_on_c, 9, 42, 100
3, 57360, Note_off_c, 9, 42, 64
3, 57360, Note_off_c, 9, 38, 64
3, 57360, Note_off_c, 9, 35, 64
3, 57360, Note_off_c, 9, 38, 64
3, 57360, Note_on_c, 9, 42, 100
3, 57600, Note_off_c, 9, 42, 64
3, 57600, Note_on_c, 9, 42, 100
3, 57840, Note_off_c, 9, 42, 64
3, 57840, Note_on_c, 9, 42, 100
3, 58080, Note_off_c, 9, 42, 64
3, 58080, Note_on_c, 9, 38, 100
3, 58080, Note_on_c, 9, 35, 100
3, 58080, Note_on_c, 9, 38, 100
3, 58080, Note_on_c, 9, 42, 100
3, 58320, Note_off_c, 9, 42, 64
3, 58320, Note_off_c, 9, 38, 64
3, 58320, Note_off_c, 9, 35, 64
3, 58320, Note_off_c, 9, 38, 64
3, 58320, Note_on_c, 9, 42, 100
3, 58560, Note_off_c, 9, 42, 64
3, 58560, Note_on_c, 9, 42, 100
3, 58800, Note_off_c, 9, 42, 64
3, 58800, Note_on_c, 9, 42, 100
3, 59040, Note_off_c, 9, 42, 64
3, 59040, Note_on_c, 9, 38, 100
3, 59040, Note_on_c, 9, 35, 100
3, 59040, Note_on_c, 9, 38, 100
3, 59040, Note_on_c, 9, 42, 100
3, 59280, Note_off_c, 9, 42, 64
3, 59280, Note_off_c, 9, 38, 64
3, 59280, Note_off_c, 9, 35, 64
3, 59280, Note_off_c, 9, 38, 64
3, 59280, Note_on_c, 9, 42, 100
3, 59520, Note_off_c, 9, 42, 64
3, 59520, Note_on_c, 9, 42, 100
3, 59760, Note_off_c, 9, 42, 64
3, 59760, Note_on_c, 9, 42, 100
3, 60000, Note_off_c, 9, 42, 64
3, 60000, Note_on_c, 9, 38, 100
3, 60000, Note_on_c, 9, 35, 100
3, 60000, Note_on_c, 9, 38, 100
3, 60000, Note_on_c, 9, 42, 100
3, 60240, Note_off_c, 9, 42, 64
3, 60240, Note_off_c, 9, 38, 64
3, 60240, Note_off_c, 9, 35, 64
3, 60240, Note_off_c, 9, 38, 64
3, 60240, Note_on_c, 9, 42, 100
3, 60480, Note_off_c, 9, 42, 64
3, 60480, Note_on_c, 9, 42, 100
3, 60720, Note_off_c, 9, 42, 64
3, 60720, Note_on_c, 9, 42, 100
3, 60960, Note_off_c, 9, 42, 64
3, 60960, Note_on_c, 9, 38, 100
3, 60960, Note_on_c, 9, 35, 100
3, 60960, Note_on_c, 9, 38, 100
3, 60960, Note_on_c, 9, 42, 100
3, 61200, Note_off_c, 9, 42, 64
3, 61200, Note_off_c, 9, 38, 64
3, 61200, Note_off_c, 9, 35, 64
3, 61200, Note_off_c, 9, 38, 64
3, 61200, Note_on_c, 9, 42, 100
3, 61440, Note_off_c, 9, 42, 64
3, 61440, Note_on_c, 9, 42, 100
3, 61680, Note_off_c, 9, 42, 64
3, 61680, Note_on_c, 9, 42, 100
3, 61920, Note_off_c, 9, 42, 64
3, 61920, Note_on_c, 9, 38, 100
3, 61920, Note_on_c, 9, 35, 100
3, 61920, Note_on_c, 9, 38, 100
3, 61920, Note_on_c, 9, 42, 100
3, 62160, Note_off_c, 9, 42, 64
3, 62160, Note_off_c, 9, 38, 64
3, 62160, Note_off_c, 9, 35, 64
3, 62160, Note_off_c, 9, 38, 64
3, 62160, Note_on_c, 9, 42, 100
3, 62400, Note_off_c, 9, 42, 64
3, 62400, Note_on_c, 9, 42, 100
3, 62640, Note_off_c, 9, 42, 64
3, 62640, Note_on_c, 9, 42, 100
3, 62880, Note_off_c, 9, 42, 64
3, 62880, Note_on_c, 9, 38, 100
3, 62880, Note_on_c, 9, 35, 100
3, 62880, Note_on_c, 9, 38, 100
3, 62880, Note_on_c, 9, 42, 100
3, 63000, Note_on_c, 9, 42, 100
3, 63000, Note_on_c, 9, 38, 100
3, 63120, Note_off_c, 9, 38, 64
3, 63120, Note_off_c, 9, 42, 64
3, 63120, Note_off_c, 9, 42, 64
3, 63120, Note_off_c, 9, 38, 64
3, 63120, Note_off_c, 9, 35, 64
3, 63120, Note_off_c, 9, 38, 64
3, 63120, Note_on_c, 9, 42, 100
3, 63120, Note_on_c, 9, 38, 100
3, 63120, Note_on_c, 9, 42, 100
3, 63240, Note_off_c, 9, 38, 64
3, 63240, Note_off_c, 9, 42, 64
3, 63240, Note_on_c, 9, 38, 100
3, 63240, Note_on_c, 9, 42, 100
3, 63360, Note_off_c, 9, 42, 64
3, 63360, Note_off_c, 9, 42, 64
3, 63360, Note_off_c, 9, 38, 64
3, 63360, Note_on_c, 9, 42, 100
3, 63600, Note_off_c, 9, 42, 64
3, 63600, Note_on_c, 9, 42, 100
3, 63840, Note_off_c, 9, 42, 64
3, 63840, Note_on_c, 9, 38, 100
3, 63840, Note_on_c, 9, 35, 100
3, 63840, Note_on_c, 9, 38, 100
3, 63840, Note_on_c, 9, 42, 100
3, 64080, Note_off_c, 9, 42, 64
3, 64080, Note_off_c, 9, 38, 64
3, 64080, Note_off_c, 9, 35, 64
3, 64080, Note_off_c, 9, 38, 64
3, 64080, Note_on_c, 9, 42, 100
3, 64320, Note_off_c, 9, 42, 64
3, 64320, Note_on_c, 9, 42, 100
3, 64560, Note_off_c, 9, 42, 64
3, 64560, Note_on_c, 9, 42, 100
3, 64800, Note_off_c, 9, 42, 64
3, 64800, Note_on_c, 9, 38, 100
3, 64800, Note_on_c, 9, 35, 100
3, 64800, Note_on_c, 9, 38, 100
3, 64800, Note_on_c, 9, 42, 100
3, 65040, Note_off_c, 9, 42, 64
3, 65040, Note_off_c, 9, 38, 64
3, 65040, Note_off_c, 9, 35, 64
3, 65040, Note_off_c, 9, 38, 64
3, 65040, Note_on_c, 9, 42, 100
3, 65280, Note_off_c, 9, 42, 64
3, 65280, Note_on_c, 9, 42, 100
3, 65520, Note_off_c, 9, 42, 64
3, 65520, Note_on_c, 9, 42, 100
3, 65760, Note_off_c, 9, 42, 64
3, 65760, Note_on_c, 9, 38, 100
3, 65760, Note_on_c, 9, 35, 100
3, 65760, Note_on_c, 9, 38, 100
3, 65760, Note_on_c, 9, 42, 100
3, 66000, Note_off_c, 9, 42, 64
3, 66000, Note_off_c, 9, 38, 64
3, 66000, Note_off_c, 9, 35, 64
3, 66000, Note_off_c, 9, 38, 64
3, 66000, Note_on_c, 9, 42, 100
3, 66240, Note_off_c, 9, 42, 64
3, 66240, Note_on_c, 9, 42, 100
3, 66480, Note_off_c, 9, 42, 64
3, 66480, Note_on_c, 9, 42, 100
3, 66720, Note_off_c, 9, 42, 64
3, 66720, Note_on_c, 9, 38, 100
3, 66720, Note_on_c, 9, 35, 100
3, 66720, Note_on_c, 9, 38, 100
3, 66720, Note_on_c, 9, 42, 100
3, 66960, Note_off_c, 9, 42, 64
3, 66960, Note_off_c, 9, 38, 64
3, 66960, Note_off_c, 9, 35, 64
3, 66960, Note_off_c, 9, 38, 64
3, 66960, Note_on_c, 9, 42, 100
3, 67200, Note_off_c, 9, 42, 64
3, 67200, Note_on_c, 9, 42, 100
3, 67440, Note_off_c, 9, 42, 64
3, 67440, Note_on_c, 9, 42, 100
3, 67680, Note_off_c, 9, 42, 64
3, 67680, Note_on_c, 9, 38, 100
3, 67680, Note_on_c, 9, 35, 100
3, 67680, Note_on_c, 9, 38, 100
3, 67680, Note_on_c, 9, 42, 100
3, 67920, Note_off_c, 9, 42, 64
3, 67920, Note_off_c, 9, 38, 64
3, 67920, Note_off_c, 9, 35, 64
3, 67920, Note_off_c, 9, 38, 64
3, 67920, Note_on_c, 9, 42, 100
3, 68160, Note_off_c, 9, 42, 64
3, 68160, Note_on_c, 9, 42, 100
3, 68400, Note_off_c, 9, 42, 64
3, 68400, Note_on_c, 9, 42, 100
3, 68640, Note_off_c, 9, 42, 64
3, 68640, Note_on_c, 9, 38, 100
3, 68640, Note_on_c, 9, 35, 100
3, 68640, Note_on_c, 9, 38, 100
3, 68640, Note_on_c, 9, 42, 100
3, 68880, Note_off_c, 9, 42, 64
3, 68880, Note_off_c, 9, 38, 64
3, 68880, Note_off_c, 9, 35, 64
3, 68880, Note_off_c, 9, 38, 64
3, 68880, Note_on_c, 9, 42, 100
3, 69120, Note_off_c, 9, 42, 64
3, 69120, Note_on_c, 9, 42, 100
3, 69360, Note_off_c, 9, 42, 64
3, 69360, Note_on_c, 9, 42, 100
3, 69600, Note_off_c, 9, 42, 64
3, 69600, Note_on_c, 9, 38, 100
3, 69600, Note_on_c, 9, 35, 100
3, 69600, Note_on_c, 9, 38, 100
3, 69600, Note_on_c, 9, 42, 100
3, 69840, Note_off_c, 9, 42, 64
3, 69840, Note_off_c, 9, 38, 64
3, 69840, Note_off_c, 9, 35, 64
3, 69840, Note_off_c, 9, 38, 64
3, 69840, Note_on_c, 9, 42, 100
3, 70080, Note_off_c, 9, 42, 64
3, 70080, Note_on_c, 9, 42, 100
3, 70320, Note_off_c, 9, 42, 64
3, 70320, Note_on_c, 9, 42, 100
3, 70560, Note_off_c, 9, 42, 64
3, 70560, Note_on_c, 9, 38, 100
3, 70560, Note_on_c, 9, 35, 100
3, 70560, Note_on_c, 9, 38, 100
3, 70560, Note_on_c, 9, 42, 100
3, 70680, Note_on_c, 9, 42, 100
3, 70680, Note_on_c, 9, 38, 100
3, 70800, Note_off_c, 9, 38, 64
3, 70800, Note_off_c, 9, 42, 64
3, 70800, Note_off_c, 9, 42, 64
3, 70800, Note_off_c, 9, 38, 64
3, 70800, Note_off_c, 9, 35, 64
3, 70800, Note_off_c, 9, 38, 64
3, 70800, Note_on_c, 9, 42, 100
3, 70800, Note_on_c, 9, 38, 100
3, 70800, Note_on_c, 9, 42, 100
3, 70920, Note_off_c, 9, 38, 64
3, 70920, Note_off_c, 9, 42, 64
3, 70920, Note_on_c, 9, 38, 100
3, 70920, Note_on_c, 9, 42, 100
3, 71040, Note_off_c, 9, 42, 64
3, 71040, Note_off_c, 9, 42, 64
3, 71040, Note_off_c, 9, 38, 64
3, 71040, Note_on_c, 9, 42, 100
3, 71280, Note_off_c, 9, 42, 64
3, 71280, Note_on_c, 9, 42, 100
3, 71520, Note_off_c, 9, 42, 64
3, 71520, Note_on_c, 9, 38, 100
3, 71520, Note_on_c, 9, 35, 100
3, 71520, Note_on_c, 9, 38, 100
3, 71520, Note_on_c, 9, 42, 100
3, 71760, Note_off_c, 9, 42, 64
3, 71760, Note_off_c, 9, 38, 64
3, 71760, Note_off_c, 9, 35, 64
3, 71760, Note_off_c, 9, 38, 64
3, 71760, Note_on_c, 9, 42, 100
3, 72000, Note_off_c, 9, 42, 64
3, 72000, Note_on_c, 9, 42, 100
3, 72240, Note_off_c, 9, 42, 64
3, 72240, Note_on_c, 9, 42, 100
3, 72480, Note_off_c, 9, 42, 64
3, 72480, Note_on_c, 9, 38, 100
3, 72480, Note_on_c, 9, 35, 100
3, 72480, Note_on_c, 9, 38, 100
3, 72480, Note_on_c, 9, 42, 100
3, 72720, Note_off_c, 9, 42, 64
3, 72720, Note_off_c, 9, 38, 64
3, 72720, Note_off_c, 9, 35, 64
3, 72720, Note_off_c, 9, 38, 64
3, 72720, Note_on_c, 9, 42, 100
3, 72960, Note_off_c, 9, 42, 64
3, 72960, Note_on_c, 9, 42, 100
3, 73200, Note_off_c, 9, 42, 64
3, 73200, Note_on_c, 9, 42, 100
3, 73440, Note_off_c, 9, 42, 64
3, 73440, Note_on_c, 9, 38, 100
3, 73440, Note_on_c, 9, 35, 100
3, 73440, Note_on_c, 9, 38, 100
3, 73440, Note_on_c, 9, 42, 100
3, 73680, Note_off_c, 9, 42, 64
3, 73680, Note_off_c, 9, 38, 64
3, 73680, Note_off_c, 9, 35, 64
3, 73680, Note_off_c, 9, 38, 64
3, 73680, Note_on_c, 9, 42, 100
3, 73920, Note_off_c, 9, 42, 64
3, 73920, Note_on_c, 9, 42, 100
3, 74160, Note_off_c, 9, 42, 64
3, 74160, Note_on_c, 9, 42, 100
3, 74400, Note_off_c, 9, 42, 64
3, 74400, Note_on_c, 9, 38, 100
3, 74400, Note_on_c, 9, 35, 100
3, 74400, Note_on_c, 9, 38, 100
3, 74400, Note_on_c, 9, 42, 100
3, 74640, Note_off_c, 9, 42, 64
3, 74640, Note_off_c, 9, 38, 64
3, 74640, Note_off_c, 9, 35, 64
3, 74640, Note_off_c, 9, 38, 64
3, 74640, Note_on_c, 9, 42, 100
3, 74880, Note_off_c, 9, 42, 64
3, 74880, Note_on_c, 9, 42, 100
3, 75120, Note_off_c, 9, 42, 64
3, 75120, Note_on_c, 9, 42, 100
3, 75360, Note_off_c, 9, 42, 64
3, 75360, Note_on_c, 9, 38, 100
3, 75360, Note_on_c, 9, 35, 100
3, 75360, Note_on_c, 9, 38, 100
3, 75360, Note_on_c, 9, 42, 100
3, 75600, Note_off_c, 9, 42, 64
3, 75600, Note_off_c, 9, 38, 64
3, 75600, Note_off_c, 9, 35, 64
3, 75600, Note_off_c, 9, 38, 64
3, 75600, Note_on_c, 9, 42, 100
3, 75840, Note_off_c, 9, 42, 64
3, 75840, Note_on_c, 9, 42, 100
3, 76080, Note_off_c, 9, 42, 64
3, 76080, Note_on_c, 9, 42, 100
3, 76320, Note_off_c, 9, 42, 64
3, 76320, Note_on_c, 9, 38, 100
3, 76320, Note_on_c, 9, 35, 100
3, 76320, Note_on_c, 9, 38, 100
3, 76320, Note_on_c, 9, 42, 100
3, 76560, Note_off_c, 9, 42, 64
3, 76560, Note_off_c, 9, 38, 64
3, 76560, Note_off_c, 9, 35, 64
3, 76560, Note_off_c, 9, 38, 64
3, 76560, Note_on_c, 9, 42, 100
3, 76800, Note_off_c, 9, 42, 64
3, 76800, Note_on_c, 9, 42, 100
3, 77040, Note_off_c, 9, 42, 64
3, 77040, Note_on_c, 9, 42, 100
3, 77280, Note_off_c, 9, 42, 64
3, 77280, Note_on_c, 9, 38, 100
3, 77280, Note_on_c, 9, 35, 100
3, 77280, Note_on_c, 9, 38, 100
3, 77280, Note_on_c, 9, 42, 100
3, 77520, Note_off_c, 9, 42, 64
3, 77520, Note_off_c, 9, 38, 64
3, 77520, Note_off_c, 9, 35, 64
3, 77520, Note_off_c, 9, 38, 64
3, 77520, Note_on_c, 9, 42, 100
3, 77760, Note_off_c, 9, 42, 64
3, 77760, Note_on_c, 9, 42, 100
3, 78000, Note_off_c, 9, 42, 64
3, 78000, Note_on_c, 9, 42, 100
3, 78240, Note_off_c, 9, 42, 64
3, 78240, Note_on_c, 9, 38, 100
3, 78240, Note_on_c, 9, 35, 100
3, 78240, Note_on_c, 9, 38, 100
3, 78240, Note_on_c, 9, 42, 100
3, 78360, Note_on_c, 9, 42, 100
3, 78360, Note_on_c, 9, 38, 100
3, 78480, Note_off_c, 9, 38, 64
3, 78480, Note_off_c, 9, 42, 64
3, 78480, Note_off_c, 9, 42, 64
3, 78480, Note_off_c, 9, 38, 64
3, 78480, Note_off_c, 9, 35, 64
3, 78480, Note_off_c, 9, 38, 64
3, 78480, Note_on_c, 9, 42, 100
3, 78480, Note_on_c, 9, 38, 100
3, 78480, Note_on_c, 9, 42, 100
3, 78600, Note_off_c, 9, 38, 64
3, 78600, Note_off_c, 9, 42, 64
3, 78600, Note_on_c, 9, 38, 100
3, 78600, Note_on_c, 9, 42, 100
3, 78720, Note_off_c, 9, 42, 64
3, 78720, Note_off_c, 9, 42, 64
3, 78720, Note_off_c, 9, 38, 64
3, 78720, Note_on_c, 9, 42, 100
3, 78960, Note_off_c, 9, 42, 64
3, 78960, Note_on_c, 9, 42, 100
3, 79200, Note_off_c, 9, 42, 64
3, 79200, Note_on_c, 9, 38, 100
3, 79200, Note_on_c, 9, 35, 100
3, 79200, Note_on_c, 9, 38, 100
3, 79200, Note_on_c, 9, 42, 100
3, 79440, Note_off_c, 9, 42, 64
3, 79440, Note_off_c, 9, 38, 64
3, 79440, Note_off_c, 9, 35, 64
3, 79440, Note_off_c, 9, 38, 64
3, 79440, Note_on_c, 9, 42, 100
3, 79680, Note_off_c, 9, 42, 64
3, 79680, Note_on_c, 9, 42, 100
3, 79920, Note_off_c, 9, 42, 64
3, 79920, Note_on_c, 9, 42, 100
3, 80160, Note_off_c, 9, 42, 64
3, 80160, Note_on_c, 9, 38, 100
3, 80160, Note_on_c, 9, 35, 100
3, 80160, Note_on_c, 9, 38, 100
3, 80160, Note_on_c, 9, 42, 100
3, 80400, Note_off_c, 9, 42, 64
3, 80400, Note_off_c, 9, 38, 64
3, 80400, Note_off_c, 9, 35, 64
3, 80400, Note_off_c, 9, 38, 64
3, 80400, Note_on_c, 9, 42, 100
3, 80640, Note_off_c, 9, 42, 64
3, 80640, Note_on_c, 9, 42, 100
3, 80880, Note_off_c, 9, 42, 64
3, 80880, Note_on_c, 9, 42, 100
3, 81120, Note_off_c, 9, 42, 64
3, 81120, Note_on_c, 9, 38, 100
3, 81120, Note_on_c, 9, 35, 100
3, 81120, Note_on_c, 9, 38, 100
3, 81120, Note_on_c, 9, 42, 100
3, 81360, Note_off_c, 9, 42, 64
3, 81360, Note_off_c, 9, 38, 64
3, 81360, Note_off_c, 9, 35, 64
3, 81360, Note_off_c, 9, 38, 64
3, 81360, Note_on_c, 9, 42, 100
3, 81600, Note_off_c, 9, 42, 64
3, 81600, Note_on_c, 9, 42, 100
3, 81840, Note_off_c, 9, 42, 64
3, 81840, Note_on_c, 9, 42, 100
3, 82080, Note_off_c, 9, 42, 64
3, 82080, Note_on_c, 9, 38, 100
3, 82080, Note_on_c, 9, 35, 100
3, 82080, Note_on_c, 9, 38, 100
3, 82080, Note_on_c, 9, 42, 100
3, 82320, Note_off_c, 9, 42, 64
3, 82320, Note_off_c, 9, 38, 64
3, 82320, Note_off_c, 9, 35, 64
3, 82320, Note_off_c, 9, 38, 64
3, 82320, Note_on_c, 9, 42, 100
3, 82560, Note_off_c, 9, 42, 64
3, 82560, Note_on_c, 9, 42, 100
3, 82800, Note_off_c, 9, 42, 64
3, 82800, Note_on_c, 9, 42, 100
3, 83040, Note_off_c, 9, 42, 64
3, 83040, Note_on_c, 9, 38, 100
3, 83040, Note_on_c, 9, 35, 100
3, 83040, Note_on_c, 9, 38, 100
3, 83040, Note_on_c, 9, 42, 100
3, 83280, Note_off_c, 9, 42, 64
3, 83280, Note_off_c, 9, 38, 64
3, 83280, Note_off_c, 9, 35, 64
3, 83280, Note_off_c, 9, 38, 64
3, 83280, Note_on_c, 9, 42, 100
3, 83520, Note_off_c, 9, 42, 64
3, 83520, Note_on_c, 9, 42, 100
3, 83760, Note_off_c, 9, 42, 64
3, 83760, Note_on_c, 9, 42, 100
3, 84000, Note_off_c, 9, 42, 64
3, 84000, Note_on_c, 9, 38, 100
3, 84000, Note_on_c, 9, 35, 100
3, 84000, Note_on_c, 9, 38, 100
3, 84000, Note_on_c, 9, 42, 100
3, 84240, Note_off_c, 9, 42, 64
3, 84240, Note_off_c, 9, 38, 64
3, 84240, Note_off_c, 9, 35, 64
3, 84240, Note_off_c, 9, 38, 64
3, 84240, Note_on_c, 9, 42, 100
3, 84480, Note_off_c, 9, 42, 64
3, 84480, Note_on_c, 9, 42, 100
3, 84720, Note_off_c, 9, 42, 64
3, 84720, Note_on_c, 9, 42, 100
3, 84960, Note_off_c, 9, 42, 64
3, 84960, Note_on_c, 9, 38, 100
3, 84960, Note_on_c, 9, 35, 100
3, 84960, Note_on_c, 9, 38, 100
3, 84960, Note_on_c, 9, 42, 100
3, 85200, Note_off_c, 9, 42, 64
3, 85200, Note_off_c, 9, 38, 64
3, 85200, Note_off_c, 9, 35, 64
3, 85200, Note_off_c, 9, 38, 64
3, 85200, Note_on_c, 9, 42, 100
3, 85440, Note_off_c, 9, 42, 64
3, 85440, Note_on_c, 9, 42, 100
3, 85680, Note_off_c, 9, 42, 64
3, 85680, Note_on_c, 9, 42, 100
3, 85920, Note_off_c, 9, 42, 64
3, 85920, Note_on_c, 9, 38, 100
3, 85920, Note_on_c, 9, 35, 100
3, 85920, Note_on_c, 9, 38, 100
3, 85920, Note_on_c, 9, 42, 100
3, 86040, Note_on_c, 9, 42, 100
3, 86040, Note_on_c, 9, 38, 100
3, 86160, Note_off_c, 9, 38, 64
3, 86160, Note_off_c, 9, 42, 64
3, 86160, Note_off_c, 9, 42, 64
3, 86160, Note_off_c, 9, 38, 64
3, 86160, Note_off_c, 9, 35, 64
3, 86160, Note_off_c, 9, 38, 64
3, 86160, Note_on_c, 9, 42, 100
3, 86160, Note_on_c, 9, 38, 100
3, 86160, Note_on_c, 9, 42, 100
3, 86280, Note_off_c, 9, 38, 64
3, 86280, Note_off_c, 9, 42, 64
3, 86280, Note_on_c, 9, 38, 100
3, 86280, Note_on_c, 9, 42, 100
3, 86400, Note_off_c, 9, 42, 64
3, 86400, Note_off_c, 9, 42, 64
3, 86400, Note_off_c, 9, 38, 64
3, 86400, Note_on_c, 9, 42, 100
3, 86640, Note_off_c, 9, 42, 64
3, 86640, Note_on_c, 9, 42, 100
3, 86880, Note_off_c, 9, 42, 64
3, 86880, Note_on_c, 9, 38, 100
3, 86880, Note_on_c, 9, 35, 100
3, 86880, Note_on_c, 9, 38, 100
3, 86880, Note_on_c, 9, 42, 100
3, 87120, Note_off_c, 9, 42, 64
3, 87120, Note_off_c, 9, 38, 64
3, 87120, Note_off_c, 9, 35, 64
3, 87120, Note_off_c, 9, 38, 64
3, 87120, Note_on_c, 9, 42, 100
3, 87360, Note_off_c, 9, 42, 64
3, 87360, Note_on_c, 9, 42, 100
3, 87600, Note_off_c, 9, 42, 64
3, 87600, Note_on_c, 9, 42, 100
3, 87840, Note_off_c, 9, 42, 64
3, 87840, Note_on_c, 9, 38, 100
3, 87840, Note_on_c, 9, 35, 100
3, 87840, Note_on_c, 9, 38, 100
3, 87840, Note_on_c, 9, 42, 100
3, 88080, Note_off_c, 9, 42, 64
3, 88080, Note_off_c, 9, 38, 64
3, 88080, Note_off_c, 9, 35, 64
3, 88080, Note_off_c, 9, 38, 64
3, 88080, Note_on_c, 9, 42, 100
3, 88320, Note_off_c, 9, 42, 64
3, 88320, Note_on_c, 9, 42, 100
3, 88560, Note_off_c, 9, 42, 64
3, 88560, Note_on_c, 9, 42, 100
3, 88800, Note_off_c, 9, 42, 64
3, 88800, Note_on_c, 9, 38, 100
3, 88800, Note_on_c, 9, 35, 100
3, 88800, Note_on_c, 9, 38, 100
3, 88800, Note_on_c, 9, 42, 100
3, 89040, Note_off_c, 9, 42, 64
3, 89040, Note_off_c, 9, 38, 64
3, 89040, Note_off_c, 9, 35, 64
3, 89040, Note_off_c, 9, 38, 64
3, 89040, Note_on_c, 9, 42, 100
3, 89280, Note_off_c, 9, 42, 64
3, 89280, Note_on_c, 9, 42, 100
3, 89520, Note_off_c, 9, 42, 64
3, 89520, Note_on_c, 9, 42, 100
3, 89760, Note_off_c, 9, 42, 64
3, 89760, Note_on_c, 9, 38, 100
3, 89760, Note_on_c, 9, 35, 100
3, 89760, Note_on_c, 9, 38, 100
3, 89760, Note_on_c, 9, 42, 100
3, 90000, Note_off_c, 9, 42, 64
3, 90000, Note_off_c, 9, 38, 64
3, 90000, Note_off_c, 9, 35, 64
3, 90000, Note_off_c, 9, 38, 64
3, 90000, Note_on_c, 9, 42, 100
3, 90240, Note_off_c, 9, 42, 64
3, 90240, Note_on_c, 9, 42, 100
3, 90480, Note_off_c, 9, 42, 64
3, 90480, Note_on_c, 9, 42, 100
3, 90720, Note_off_c, 9, 42, 64
3, 90720, Note_on_c, 9, 38, 100
3, 90720, Note_on_c, 9, 35, 100
3, 90720, Note_on_c, 9, 38, 100
3, 90720, Note_on_c, 9, 42, 100
3, 90960, Note_off_c, 9, 42, 64
3, 90960, Note_off_c, 9, 38, 64
3, 90960, Note_off_c, 9, 35, 64
3, 90960, Note_off_c, 9, 38, 64
3, 90960, Note_on_c, 9, 42, 100
3, 91200, Note_off_c, 9, 42, 64
3, 91200, Note_on_c, 9, 42, 100
3, 91440, Note_off_c, 9, 42, 64
3, 91440, Note_on_c, 9, 42, 100
3, 91680, Note_off_c, 9, 42, 64
3, 91680, Note_on_c, 9, 38, 100
3, 91680, Note_on_c, 9, 35, 100
3, 91680, Note_on_c, 9, 38, 100
3, 91680, Note_on_c, 9, 42, 100
3, 91920, Note_off_c, 9, 42, 64
3, 91920, Note_off_c, 9, 38, 64
3, 91920, Note_off_c, 9, 35, 64
3, 91920, Note_off_c, 9, 38, 64
3, 91920, Note_on_c, 9, 42, 100
3, 92160, Note_off_c, 9, 42, 64
3, 92160, Note_on_c, 9, 42, 100
3, 92400, Note_off_c, 9, 42, 64
3, 92400, Note_on_c, 9, 42, 100
3, 92640, Note_off_c, 9, 42, 64
3, 92640, Note_on_c, 9, 38, 100
3, 92640, Note_on_c, 9, 35, 100
3, 92640, Note_on_c, 9, 38, 100
3, 92640, Note_on_c, 9, 42, 100
3, 92880, Note_off_c, 9, 42, 64
3, 92880, Note_off_c, 9, 38, 64
3, 92880, Note_off_c, 9, 35, 64
3, 92880, Note_off_c, 9, 38, 64
3, 92880, Note_on_c, 9, 42, 100
3, 93120, Note_off_c, 9, 42, 64
3, 93120, Note_on_c, 9, 42, 100
3, 93360, Note_off_c, 9, 42, 64
3, 93360, Note_on_c, 9, 42, 100
3, 93600, Note_off_c, 9, 42, 64
3, 93600, Note_on_c, 9, 38, 100
3, 93600, Note_on_c, 9, 35, 100
3, 93600, Note_on_c, 9, 38, 100
3, 93600, Note_on_c, 9, 42, 100
3, 93720, Note_on_c, 9, 42, 100
3, 93720, Note_on_c, 9, 38, 100
3, 93840, Note_off_c, 9, 38, 64
3, 93840, Note_off_c, 9, 42, 64
3, 93840, Note_off_c, 9, 42, 64
3, 93840, Note_off_c, 9, 38, 64
3, 93840, Note_off_c, 9, 35, 64
3, 93840, Note_off_c, 9, 38, 64
3, 93840, Note_on_c, 9, 42, 100
3, 93840, Note_on_c, 9, 38, 100
3, 93840, Note_on_c, 9, 42, 100
3, 93960, Note_off_c, 9, 38, 64
3, 93960, Note_off_c, 9, 42, 64
3, 93960, Note_on_c, 9, 38, 100
3, 93960, Note_on_c, 9, 42, 100
3, 94080, Note_off_c, 9, 42, 64
3, 94080, Note_off_c, 9, 42, 64
3, 94080, Note_off_c, 9, 38, 64
3, 94080, Note_on_c, 9, 42, 100
3, 94320, Note_off_c, 9, 42, 64
3, 94320, Note_on_c, 9, 42, 100
3, 94560, Note_off_c, 9, 42, 64
3, 94560, Note_on_c, 9, 38, 100
3, 94560, Note_on_c, 9, 35, 100
3, 94560, Note_on_c, 9, 38, 100
3, 94560, Note_on_c, 9, 42, 100
3, 94800, Note_off_c, 9, 42, 64
3, 94800, Note_off_c, 9, 38, 64
3, 94800, Note_off_c, 9, 35, 64
3, 94800, Note_off_c, 9, 38, 64
3, 94800, Note_on_c, 9, 42, 100
3, 95040, Note_off_c, 9, 42, 64
3, 95040, Note_on_c, 9, 42, 100
3, 95280, Note_off_c, 9, 42, 64
3, 95280, Note_on_c, 9, 42, 100
3, 95520, Note_off_c, 9, 42, 64
3, 95520, Note_on_c, 9, 38, 100
3, 95520, Note_on_c, 9, 35, 100
3, 95520, Note_on_c, 9, 38, 100
3, 95520, Note_on_c, 9, 42, 100
3, 95760, Note_off_c, 9, 42, 64
3, 95760, Note_off_c, 9, 38, 64
3, 95760, Note_off_c, 9, 35, 64
3, 95760, Note_off_c, 9, 38, 64
3, 95760, Note_on_c, 9, 42, 100
3, 96000, Note_off_c, 9, 42, 64
3, 96000, Note_on_c, 9, 42, 100
3, 96240, Note_off_c, 9, 42, 64
3, 96240, Note_on_c, 9, 42, 100
3, 96480, Note_off_c, 9, 42, 64
3, 96480, Note_on_c, 9, 38, 100
3, 96480, Note_on_c, 9, 35, 100
3, 96480, Note_on_c, 9, 38, 100
3, 96480, Note_on_c, 9, 42, 100
3, 96720, Note_off_c, 9, 42, 64
3, 96720, Note_off_c, 9, 38, 64
3, 96720, Note_off_c, 9, 35, 64
3, 96720, Note_off_c, 9, 38, 64
3, 96720, Note_on_c, 9, 42, 100
3, 96960, Note_off_c, 9, 42, 64
3, 96960, Note_on_c, 9, 42, 100
3, 97200, Note_off_c, 9, 42, 64
3, 97200, Note_on_c, 9, 42, 100
3, 97440, Note_off_c, 9, 42, 64
3, 97440, Note_on_c, 9, 38, 100
3, 97440, Note_on_c, 9, 35, 100
3, 97440, Note_on_c, 9, 38, 100
3, 97440, Note_on_c, 9, 42, 100
3, 97680, Note_off_c, 9, 42, 64
3, 97680, Note_off_c, 9, 38, 64
3, 97680, Note_off_c, 9, 35, 64
3, 97680, Note_off_c, 9, 38, 64
3, 97680, Note_on_c, 9, 42, 100
3, 97920, Note_off_c, 9, 42, 64
3, 97920, Note_on_c, 9, 42, 100
3, 98160, Note_off_c, 9, 42, 64
3, 98160, Note_on_c, 9, 42, 100
3, 98400, Note_off_c, 9, 42, 64
3, 98400, Note_on_c, 9, 38, 100
3, 98400, Note_on_c, 9, 35, 100
3, 98400, Note_on_c, 9, 38, 100
3, 98400, Note_on_c, 9, 42, 100
3, 98640, Note_off_c, 9, 42, 64
3, 98640, Note_off_c, 9, 38, 64
3, 98640, Note_off_c, 9, 35, 64
3, 98640, Note_off_c, 9, 38, 64
3, 98640, Note_on_c, 9, 42, 100
3, 98880, Note_off_c, 9, 42, 64
3, 98880, Note_on_c, 9, 42, 100
3, 99120, Note_off_c, 9, 42, 64
3, 99120, Note_on_c, 9, 42, 100
3, 99360, Note_off_c, 9, 42, 64
3, 99360, Note_on_c, 9, 38, 100
3, 99360, Note_on_c, 9, 35, 100
3, 99360, Note_on_c, 9, 38, 100
3, 99360, Note_on_c, 9, 42, 100
3, 99600, Note_off_c, 9, 42, 64
3, 99600, Note_off_c, 9, 38, 64
3, 99600, Note_off_c, 9, 35, 64
3, 99600, Note_off_c, 9, 38, 64
3, 99600, Note_on_c, 9, 42, 100
3, 99840, Note_off_c, 9, 42, 64
3, 99840, Note_on_c, 9, 42, 100
3, 100080, Note_off_c, 9, 42, 64
3, 100080, Note_on_c, 9, 42, 100
3, 100320, Note_off_c, 9, 42, 64
3, 100320, Note_on_c, 9, 38, 100
3, 100320, Note_on_c, 9, 35, 100
3, 100320, Note_on_c, 9, 38, 100
3, 100320, Note_on_c, 9, 42, 100
3, 100560, Note_off_c, 9, 42, 64
3, 100560, Note_off_c, 9, 38, 64
3, 100560, Note_off_c, 9, 35, 64
3, 100560, Note_off_c, 9, 38, 64
3, 100560, Note_on_c, 9, 42, 100
3, 100800, Note_off_c, 9, 42, 64
3, 100800, Note_on_c, 9, 42, 100
3, 101040, Note_off_c, 9, 42, 64
3, 101040, Note_on_c, 9, 42, 100
3, 101280, Note_off_c, 9, 42, 64
3, 101280, Note_on_c, 9, 38, 100
3, 101280, Note_on_c, 9, 35, 100
3, 101280, Note_on_c, 9, 38, 100
3, 101280, Note_on_c, 9, 42, 100
3, 101400, Note_on_c, 9, 42, 100
3, 101400, Note_on_c, 9, 38, 100
3, 101520, Note_off_c, 9, 38, 64
3, 101520, Note_off_c, 9, 42, 64
3, 101520, Note_off_c, 9, 42, 64
3, 101520, Note_off_c, 9, 38, 64
3, 101520, Note_off_c, 9, 35, 64
3, 101520, Note_off_c, 9, 38, 64
3, 101520, Note_on_c, 9, 42, 100
3, 101520, Note_on_c, 9, 38, 100
3, 101520, Note_on_c, 9, 42, 100
3, 101640, Note_off_c, 9, 38, 64
3, 101640, Note_off_c, 9, 42, 64
3, 101640, Note_on_c, 9, 38, 100
3, 101640, Note_on_c, 9, 42, 100
3, 101760, Note_off_c, 9, 42, 64
3, 101760, Note_off_c, 9, 42, 64
3, 101760, Note_off_c, 9, 38, 64
3, 101760, Note_on_c, 9, 42, 100
3, 102000, Note_off_c, 9, 42, 64
3, 102000, Note_on_c, 9, 42, 100
3, 102240, Note_off_c, 9, 42, 64
3, 102240, Note_on_c, 9, 38, 100
3, 102240, Note_on_c, 9, 35, 100
3, 102240, Note_on_c, 9, 38, 100
3, 102240, Note_on_c, 9, 42, 100
3, 102480, Note_off_c, 9, 42, 64
3, 102480, Note_off_c, 9, 38, 64
3, 102480, Note_off_c, 9, 35, 64
3, 102480, Note_off_c, 9, 38, 64
3, 102480, Note_on_c, 9, 42, 100
3, 102720, Note_off_c, 9, 42, 64
3, 102720, Note_on_c, 9, 42, 100
3, 102960, Note_off_c, 9, 42, 64
3, 102960, Note_on_c, 9, 42, 100
3, 103200, Note_off_c, 9, 42, 64
3, 103200, Note_on_c, 9, 38, 100
3, 103200, Note_on_c, 9, 35, 100
3, 103200, Note_on_c, 9, 38, 100
3, 103200, Note_on_c, 9, 42, 100
3, 103440, Note_off_c, 9, 42, 64
3, 103440, Note_off_c, 9, 38, 64
3, 103440, Note_off_c, 9, 35, 64
3, 103440, Note_off_c, 9, 38, 64
3, 103440, Note_on_c, 9, 42, 100
3, 103680, Note_off_c, 9, 42, 64
3, 103680, Note_on_c, 9, 42, 100
3, 103920, Note_off_c, 9, 42, 64
3, 103920, Note_on_c, 9, 42, 100
3, 104160, Note_off_c, 9, 42, 64
3, 104160, Note_on_c, 9, 38, 100
3, 104160, Note_on_c, 9, 35, 100
3, 104160, Note_on_c, 9, 38, 100
3, 104160, Note_on_c, 9, 42, 100
3, 104400, Note_off_c, 9, 42, 64
3, 104400, Note_off_c, 9, 38, 64
3, 104400, Note_off_c, 9, 35, 64
3, 104400, Note_off_c, 9, 38, 64
3, 104400, Note_on_c, 9, 42, 100
3, 104640, Note_off_c, 9, 42, 64
3, 104640, Note_on_c, 9, 42, 100
3, 104880, Note_off_c, 9, 42, 64
3, 104880, Note_on_c, 9, 42, 100
3, 105120, Note_off_c, 9, 42, 64
3, 105120, Note_on_c, 9, 38, 100
3, 105120, Note_on_c, 9, 35, 100
3, 105120, Note_on_c, 9, 38, 100
3, 105120, Note_on_c, 9, 42, 100
3, 105360, Note_off_c, 9, 42, 64
3, 105360, Note_off_c, 9, 38, 64
3, 105360, Note_off_c, 9, 35, 64
3, 105360, Note_off_c, 9, 38, 64
3, 105360, Note_on_c, 9, 42, 100
3, 105600, Note_off_c, 9, 42, 64
3, 105600, Note_on_c, 9, 42, 100
3, 105840, Note_off_c, 9, 42, 64
3, 105840, Note_on_c, 9, 42, 100
3, 106080, Note_off_c, 9, 42, 64
3, 106080, Note_on_c, 9, 38, 100
3, 106080, Note_on_c, 9, 35, 100
3, 106080, Note_on_c, 9, 38, 100
3, 106080, Note_on_c, 9, 42, 100
3, 106320, Note_off_c, 9, 42, 64
3, 106320, Note_off_c, 9, 38, 64
3, 106320, Note_off_c, 9, 35, 64
3, 106320, Note_off_c, 9, 38, 64
3, 106320, Note_on_c, 9, 42, 100
3, 106560, Note_off_c, 9, 42, 64
3, 106560, Note_on_c, 9, 42, 100
3, 106800, Note_off_c, 9, 42, 64
3, 106800, Note_on_c, 9, 42, 100
3, 107040, Note_off_c, 9, 42, 64
3, 107040, Note_on_c, 9, 38, 100
3, 107040, Note_on_c, 9, 35, 100
3, 107040, Note_on_c, 9, 38, 100
3, 107040, Note_on_c, 9, 42, 100
3, 107280, Note_off_c, 9, 42, 64
3, 107280, Note_off_c, 9, 38, 64
3, 107280, Note_off_c, 9, 35, 64
3, 107280, Note_off_c, 9, 38, 64
3, 107280, Note_on_c, 9, 42, 100
3, 107520, Note_off_c, 9, 42, 64
3, 107520, Note_on_c, 9, 42, 100
3, 107760, Note_off_c, 9, 42, 64
3, 107760, Note_on_c, 9, 42, 100
3, 108000, Note_off_c, 9, 42, 64
3, 108000, Note_on_c, 9, 38, 100
3, 108000, Note_on_c, 9, 35, 100
3, 108000, Note_on_c, 9, 38, 100
3, 108000, Note_on_c, 9, 42, 100
3, 108240, Note_off_c, 9, 42, 64
3, 108240, Note_off_c, 9, 38, 64
3, 108240, Note_off_c, 9, 35, 64
3, 108240, Note_off_c, 9, 38, 64
3, 108240, Note_on_c, 9, 42, 100
3, 108480, Note_off_c, 9, 42, 64
3, 108480, Note_on_c, 9, 42, 100
3, 108720, Note_off_c, 9, 42, 64
3, 108720, Note_on_c, 9, 42, 100
3, 108960, Note_off_c, 9, 42, 64
3, 108960, Note_on_c, 9, 38, 100
3, 108960, Note_on_c, 9, 35, 100
3, 108960, Note_on_c, 9, 38, 100
3, 108960, Note_on_c, 9, 42, 100
3, 109080, Note_on_c, 9, 42, 100
3, 109080, Note_on_c, 9, 38, 100
3, 109200, Note_off_c, 9, 38, 64
3, 109200, Note_off_c, 9, 42, 64
3, 109200, Note_off_c, 9, 42, 64
3, 109200, Note_off_c, 9, 38, 64
3, 109200, Note_off_c, 9, 35, 64
3, 109200, Note_off_c, 9, 38, 64
3, 109200, Note_on_c, 9, 42, 100
3, 109200, Note_on_c, 9, 38, 100
3, 109200, Note_on_c, 9, 42, 100
3, 109320, Note_off_c, 9, 38, 64
3, 109320, Note_off_c, 9, 42, 64
3, 109320, Note_on_c, 9, 38, 100
3, 109320, Note_on_c, 9, 42, 100
3, 109440, Note_off_c, 9, 42, 64
3, 109440, Note_off_c, 9, 42, 64
3, 109440, Note_off_c, 9, 38, 64
3, 109440, Note_on_c, 9, 42, 100
3, 109680, Note_off_c, 9, 42, 64
3, 109680, Note_on_c, 9, 42, 100
3, 109920, Note_off_c, 9, 42, 64
3, 109920, Note_on_c, 9, 38, 100
3, 109920, Note_on_c, 9, 35, 100
3, 109920, Note_on_c, 9, 38, 100
3, 109920, Note_on_c, 9, 42, 100
3, 110160, Note_off_c, 9, 42, 64
3, 110160, Note_off_c, 9, 38, 64
3, 110160, Note_off_c, 9, 35, 64
3, 110160, Note_off_c, 9, 38, 64
3, 110160, Note_on_c, 9, 42, 100
3, 110400, Note_off_c, 9, 42, 64
3, 110400, Note_on_c, 9, 42, 100
3, 110640, Note_off_c, 9, 42, 64
3, 110640, Note_on_c, 9, 42, 100
3, 110880, Note_off_c, 9, 42, 64
3, 110880, Note_on_c, 9, 38, 100
3, 110880, Note_on_c, 9, 35, 100
3, 110880, Note_on_c, 9, 38, 100
3, 110880, Note_on_c, 9, 42, 100
3, 111120, Note_off_c, 9, 42, 64
3, 111120, Note_off_c, 9, 38, 64
3, 111120, Note_off_c, 9, 35, 64
3, 111120, Note_off_c, 9, 38, 64
3, 111120, Note_on_c, 9, 42, 100
3, 111360, Note_off_c, 9, 42, 64
3, 111360, Note_on_c, 9, 42, 100
3, 111600, Note_off_c, 9, 42, 64
3, 111600, Note_on_c, 9, 42, 100
3, 111840, Note_off_c, 9, 42, 64
3, 111840, Note_on_c, 9, 38, 100
3, 111840, Note_on_c, 9, 35, 100
3, 111840, Note_on_c, 9, 38, 100
3, 111840, Note_on_c, 9, 42, 100
3, 112080, Note_off_c, 9, 42, 64
3, 112080, Note_off_c, 9, 38, 64
3, 112080, Note_off_c, 9, 35, 64
3, 112080, Note_off_c, 9, 38, 64
3, 112080, Note_on_c, 9, 42, 100
3, 112320, Note_off_c, 9, 42, 64
3, 112320, Note_on_c, 9, 42, 100
3, 112560, Note_off_c, 9, 42, 64
3, 112560, Note_on_c, 9, 42, 100
3, 112800, Note_off_c, 9, 42, 64
3, 112800, Note_on_c, 9, 38, 100
3, 112800, Note_on_c, 9, 35, 100
3, 112800, Note_on_c, 9, 38, 100
3, 112800, Note_on_c, 9, 42, 100
3, 113040, Note_off_c, 9, 42, 64
3, 113040, Note_off_c, 9, 38, 64
3, 113040, Note_off_c, 9, 35, 64
3, 113040, Note_off_c, 9, 38, 64
3, 113040, Note_on_c, 9, 42, 100
3, 113280, Note_off_c, 9, 42, 64
3, 113280, Note_on_c, 9, 42, 100
3, 113520, Note_off_c, 9, 42, 64
3, 113520, Note_on_c, 9, 42, 100
3, 113760, Note_off_c, 9, 42, 64
3, 113760, Note_on_c, 9, 38, 100
3, 113760, Note_on_c, 9, 35, 100
3, 113760, Note_on_c, 9, 38, 100
3, 113760, Note_on_c, 9, 42, 100
3, 114000, Note_off_c, 9, 42, 64
3, 114000, Note_off_c, 9, 38, 64
3, 114000, Note_off_c, 9, 35, 64
3, 114000, Note_off_c, 9, 38, 64
3, 114000, Note_on_c, 9, 42, 100
3, 114240, Note_off_c, 9, 42, 64
3, 114240, Note_on_c, 9, 42, 100
3, 114480, Note_off_c, 9, 42, 64
3, 114480, Note_on_c, 9, 42, 100
3, 114720, Note_off_c, 9, 42, 64
3, 114720, Note_on_c, 9, 38, 100
3, 114720, Note_on_c, 9, 35, 100
3, 114720, Note_on_c, 9, 38, 100
3, 114720, Note_on_c, 9, 42, 100
3, 114960, Note_off_c, 9, 42, 64
3, 114960, Note_off_c, 9, 38, 64
3, 114960, Note_off_c, 9, 35, 64
3, 114960, Note_off_c, 9, 38, 64
3, 114960, Note_on_c, 9, 42, 100
3, 115200, Note_off_c, 9, 42, 64
3, 115200, Note_on_c, 9, 42, 100
3, 115440, Note_off_c, 9, 42, 64
3, 115440, Note_on_c, 9, 42, 100
3, 115680, Note_off_c, 9, 42, 64
3, 115680, Note_on_c, 9, 38, 100
3, 115680, Note_on_c, 9, 35, 100
3, 115680, Note_on_c, 9, 38, 100
3, 115680, Note_on_c, 9, 42, 100
3, 115920, Note_off_c, 9, 42, 64
3, 115920, Note_off_c, 9, 38, 64
3, 115920, Note_off_c, 9, 35, 64
3, 115920, Note_off_c, 9, 38, 64
3, 115920, Note_on_c, 9, 42, 100
3, 116160, Note_off_c, 9, 42, 64
3, 116160, Note_on_c, 9, 42, 100
3, 116400, Note_off_c, 9, 42, 64
3, 116400, Note_on_c, 9, 42, 100
3, 116640, Note_off_c, 9, 42, 64
3, 116640, Note_on_c, 9, 38, 100
3, 116640, Note_on_c, 9, 35, 100
3, 116640, Note_on_c, 9, 38, 100
3, 116640, Note_on_c, 9, 42, 100
3, 116760, Note_on_c, 9, 42, 100
3, 116760, Note_on_c, 9, 38, 100
3, 116880, Note_off_c, 9, 38, 64
3, 116880, Note_off_c, 9, 42, 64
3, 116880, Note_off_c, 9, 42, 64
3, 116880, Note_off_c, 9, 38, 64
3, 116880, Note_off_c, 9, 35, 64
3, 116880, Note_off_c, 9, 38, 64
3, 116880, Note_on_c, 9, 42, 100
3, 116880, Note_on_c, 9, 38, 100
3, 116880, Note_on_c, 9, 42, 100
3, 117000, Note_off_c, 9, 38, 64
3, 117000, Note_off_c, 9, 42, 64
3, 117000, Note_on_c, 9, 38, 100
3, 117000, Note_on_c, 9, 42, 100
3, 117120, Note_off_c, 9, 42, 64
3, 117120, Note_off_c, 9, 42, 64
3, 117120, Note_off_c, 9, 38, 64
3, 117120, Note_on_c, 9, 42, 100
3, 117360, Note_off_c, 9, 42, 64
3, 117360, Note_on_c, 9, 42, 100
3, 117600, Note_off_c, 9, 42, 64
3, 117600, Note_on_c, 9, 38, 100
3, 117600, Note_on_c, 9, 35, 100
3, 117600, Note_on_c, 9, 38, 100
3, 117600, Note_on_c, 9, 42, 100
3, 117840, Note_off_c, 9, 42, 64
3, 117840, Note_off_c, 9, 38, 64
3, 117840, Note_off_c, 9, 35, 64
3, 117840, Note_off_c, 9, 38, 64
3, 117840, Note_on_c, 9, 42, 100
3, 118080, Note_off_c, 9, 42, 64
3, 118080, Note_on_c, 9, 42, 100
3, 118320, Note_off_c, 9, 42, 64
3, 118320, Note_on_c, 9, 42, 100
3, 118560, Note_off_c, 9, 42, 64
3, 118560, Note_on_c, 9, 38, 100
3, 118560, Note_on_c, 9, 35, 100
3, 118560, Note_on_c, 9, 38, 100
3, 118560, Note_on_c, 9, 42, 100
3, 118800, Note_off_c, 9, 42, 64
3, 118800, Note_off_c, 9, 38, 64
3, 118800, Note_off_c, 9, 35, 64
3, 118800, Note_off_c, 9, 38, 64
3, 118800, Note_on_c, 9, 42, 100
3, 119040, Note_off_c, 9, 42, 64
3, 119040, Note_on_c, 9, 42, 100
3, 119280, Note_off_c, 9, 42, 64
3, 119280, Note_on_c, 9, 42, 100
3, 119520, Note_off_c, 9, 42, 64
3, 119520, Note_on_c, 9, 38, 100
3, 119520, Note_on_c, 9, 35, 100
3, 119520, Note_on_c, 9, 38, 100
3, 119520, Note_on_c, 9, 42, 100
3, 119760, Note_off_c, 9, 42, 64
3, 119760, Note_off_c, 9, 38, 64
3, 119760, Note_off_c, 9, 35, 64
3, 119760, Note_off_c, 9, 38, 64
3, 119760, Note_on_c, 9, 42, 100
3, 120000, Note_off_c, 9, 42, 64
3, 120000, Note_on_c, 9, 42, 100
3, 120240, Note_off_c, 9, 42, 64
3, 120240, Note_on_c, 9, 42, 100
3, 120480, Note_off_c, 9, 42, 64
3, 120480, Note_on_c, 9, 38, 100
3, 120480, Note_on_c, 9, 35, 100
3, 120480, Note_on_c, 9, 38, 100
3, 120480, Note_on_c, 9, 42, 100
3, 120720, Note_off_c, 9, 42, 64
3, 120720, Note_off_c, 9, 38, 64
3, 120720, Note_off_c, 9, 35, 64
3, 120720, Note_off_c, 9, 38, 64
3, 120720, Note_on_c, 9, 42, 100
3, 120960, Note_off_c, 9, 42, 64
3, 120960, Note_on_c, 9, 42, 100
3, 121200, Note_off_c, 9, 42, 64
3, 121200, Note_on_c, 9, 42, 100
3, 121440, Note_off_c, 9, 42, 64
3, 121440, Note_on_c, 9, 38, 100
3, 121440, Note_on_c, 9, 35, 100
3, 121440, Note_on_c, 9, 38, 100
3, 121440, Note_on_c, 9, 42, 100
3, 121680, Note_off_c, 9, 42, 64
3, 121680, Note_off_c, 9, 38, 64
3, 121680, Note_off_c, 9, 35, 64
3, 121680, Note_off_c, 9, 38, 64
3, 121680, Note_on_c, 9, 42, 100
3, 121920, Note_off_c, 9, 42, 64
3, 121920, Note_on_c, 9, 42, 100
3, 122160, Note_off_c, 9, 42, 64
3, 122160, Note_on_c, 9, 42, 100
3, 122400, Note_off_c, 9, 42, 64
3, 122400, Note_on_c, 9, 38, 100
3, 122400, Note_on_c, 9, 35, 100
3, 122400, Note_on_c, 9, 38, 100
3, 122400, Note_on_c, 9, 42, 100
3, 122640, Note_off_c, 9, 42, 64
3, 122640, Note_off_c, 9, 38, 64
3, 122640, Note_off_c, 9, 35, 64
3, 122640, Note_off_c, 9, 38, 64
3, 122640, Note_on_c, 9, 42, 100
3, 122880, Note_off_c, 9, 42, 64
3, 122880, Note_on_c, 9, 42, 100
3, 123120, Note_off_c, 9, 42, 64
3, 123120, Note_on_c, 9, 42, 100
3, 123360, Note_off_c, 9, 42, 64
3, 123360, Note_on_c, 9, 38, 100
3, 123360, Note_on_c, 9, 35, 100
3, 123360, Note_on_c, 9, 38, 100
3, 123360, Note_on_c, 9, 42, 100
3, 123600, Note_off_c, 9, 42, 64
3, 123600, Note_off_c, 9, 38, 64
3, 123600, Note_off_c, 9, 35, 64
3, 123600, Note_off_c, 9, 38, 64
3, 123600, Note_on_c, 9, 42, 100
3, 123840, Note_off_c, 9, 42, 64
3, 123840, Note_on_c, 9, 42, 100
3, 124080, Note_off_c, 9, 42, 64
3, 124080, Note_on_c, 9, 42, 100
3, 124320, Note_off_c, 9, 42, 64
3, 124320, Note_on_c, 9, 38, 100
3, 124320, Note_on_c, 9, 35, 100
3, 124320, Note_on_c, 9, 38, 100
3, 124320, Note_on_c, 9, 42, 100
3, 124440, Note_on_c, 9, 42, 100
3, 124440, Note_on_c, 9, 38, 100
3, 124560, Note_off_c, 9, 38, 64
3, 124560, Note_off_c, 9, 42, 64
3, 124560, Note_off_c, 9, 42, 64
3, 124560, Note_off_c, 9, 38, 64
3, 124560, Note_off_c, 9, 35, 64
3, 124560, Note_off_c, 9, 38, 64
3, 124560, Note_on_c, 9, 42, 100
3, 124560, Note_on_c, 9, 38, 100
3, 124560, Note_on_c, 9, 42, 100
3, 124680, Note_off_c, 9, 38, 64
3, 124680, Note_off_c, 9, 42, 64
3, 124680, Note_on_c, 9, 38, 100
3, 124680, Note_on_c, 9, 42, 100
3, 124800, Note_off_c, 9, 42, 64
3, 124800, Note_off_c, 9, 42, 64
3, 124800, Note_off_c, 9, 38, 64
3, 124800, Note_on_c, 9, 42, 100
3, 125040, Note_off_c, 9, 42, 64
3, 125040, Note_on_c, 9, 42, 100
3, 125280, Note_off_c, 9, 42, 64
3, 125280, Note_on_c, 9, 38, 100
3, 125280, Note_on_c, 9, 35, 100
3, 125280, Note_on_c, 9, 38, 100
3, 125280, Note_on_c, 9, 42, 100
3, 125520, Note_off_c, 9, 42, 64
3, 125520, Note_off_c, 9, 38, 64
3, 125520, Note_off_c, 9, 35, 64
3, 125520, Note_off_c, 9, 38, 64
3, 125520, Note_on_c, 9, 42, 100
3, 125760, Note_off_c, 9, 42, 64
3, 125760, Note_on_c, 9, 42, 100
3, 126000, Note_off_c, 9, 42, 64
3, 126000, Note_on_c, 9, 42, 100
3, 126240, Note_off_c, 9, 42, 64
3, 126240, Note_on_c, 9, 38, 100
3, 126240, Note_on_c, 9, 35, 100
3, 126240, Note_on_c, 9, 38, 100
3, 126240, Note_on_c, 9, 42, 100
3, 126480, Note_off_c, 9, 42, 64
3, 126480, Note_off_c, 9, 38, 64
3, 126480, Note_off_c, 9, 35, 64
3, 126480, Note_off_c, 9, 38, 64
3, 126480, Note_on_c, 9, 42, 100
3, 126720, Note_off_c, 9, 42, 64
3, 126720, Note_on_c, 9, 42, 100
3, 126960, Note_off_c, 9, 42, 64
3, 126960, Note_on_c, 9, 42, 100
3, 127200, Note_off_c, 9, 42, 64
3, 127200, Note_on_c, 9, 38, 100
3, 127200, Note_on_c, 9, 35, 100
3, 127200, Note_on_c, 9, 38, 100
3, 127200, Note_on_c, 9, 42, 100
3, 127440, Note_off_c, 9, 42, 64
3, 127440, Note_off_c, 9, 38, 64
3, 127440, Note_off_c, 9, 35, 64
3, 127440, Note_off_c, 9, 38, 64
3, 127440, Note_on_c, 9, 42, 100
3, 127680, Note_off_c, 9, 42, 64
3, 127680, Note_on_c, 9, 42, 100
3, 127920, Note_off_c, 9, 42, 64
3, 127920, Note_on_c, 9, 42, 100
3, 128160, Note_off_c, 9, 42, 64
3, 128160, Note_on_c, 9, 38, 100
3, 128160, Note_on_c, 9, 35, 100
3, 128160, Note_on_c, 9, 38, 100
3, 128160, Note_on_c, 9, 42, 100
3, 128400, Note_off_c, 9, 42, 64
3, 128400, Note_off_c, 9, 38, 64
3, 128400, Note_off_c, 9, 35, 64
3, 128400, Note_off_c, 9, 38, 64
3, 128400, Note_on_c, 9, 42, 100
3, 128640, Note_off_c, 9, 42, 64
3, 128640, Note_on_c, 9, 42, 100
3, 128880, Note_off_c, 9, 42, 64
3, 128880, Note_on_c, 9, 42, 100
3, 129120, Note_off_c, 9, 42, 64
3, 129120, Note_on_c, 9, 38, 100
3, 129120, Note_on_c, 9, 35, 100
3, 129120, Note_on_c, 9, 38, 100
3, 129120, Note_on_c, 9, 42, 100
3, 129360, Note_off_c, 9, 42, 64
3, 129360, Note_off_c, 9, 38, 64
3, 129360, Note_off_c, 9, 35, 64
3, 129360, Note_off_c, 9, 38, 64
3, 129360, Note_on_c, 9, 42, 100
3, 129600, Note_off_c, 9, 42, 64
3, 129600, Note_on_c, 9, 42, 100
3, 129840, Note_off_c, 9, 42, 64
3, 129840, Note_on_c, 9, 42, 100
3, 130080, Note_off_c, 9, 42, 64
3, 130080, Note_on_c, 9, 38, 100
3, 130080, Note_on_c, 9, 35, 100
3, 130080, Note_on_c, 9, 38, 100
3, 130080, Note_on_c, 9, 42, 100
3, 130320, Note_off_c, 9, 42, 64
3, 130320, Note_off_c, 9, 38, 64
3, 130320, Note_off_c, 9, 35, 64
3, 130320, Note_off_c, 9, 38, 64
3, 130320, Note_on_c, 9, 42, 100
3, 130560, Note_off_c, 9, 42, 64
3, 130560, Note_on_c, 9, 42, 100
3, 130800, Note_off_c, 9, 42, 64
3, 130800, Note_on_c, 9, 42, 100
3, 131040, Note_off_c, 9, 42, 64
3, 131040, Note_on_c, 9, 38, 100
3, 131040, Note_on_c, 9, 35, 100
3, 131040, Note_on_c, 9, 38, 100
3, 131040, Note_on_c, 9, 42, 100
3, 131280, Note_off_c, 9, 42, 64
3, 131280, Note_off_c, 9, 38, 64
3, 131280, Note_off_c, 9, 35, 64
3, 131280, Note_off_c, 9, 38, 64
3, 131280, Note_on_c, 9, 42, 100
3, 131520, Note_off_c, 9, 42, 64
3, 131520, Note_on_c, 9, 42, 100
3, 131760, Note_off_c, 9, 42, 64
3, 131760, Note_on_c, 9, 42, 100
3, 132000, Note_off_c, 9, 42, 64
3, 132000, Note_on_c, 9, 38, 100
3, 132000, Note_on_c, 9, 35, 100
3, 132000, Note_on_c, 9, 38, 100
3, 132000, Note_on_c, 9, 42, 100
3, 132120, Note_on_c, 9, 42, 100
3, 132120, Note_on_c, 9, 38, 100
3, 132240, Note_off_c, 9, 38, 64
3, 132240, Note_off_c, 9, 42, 64
3, 132240, Note_off_c, 9, 42, 64
3, 132240, Note_off_c, 9, 38, 64
3, 132240, Note_off_c, 9, 35, 64
3, 132240, Note_off_c, 9, 38, 64
3, 132240, Note_on_c, 9, 42, 100
3, 132240, Note_on_c, 9, 38, 100
3, 132240, Note_on_c, 9, 42, 100
3, 132360, Note_off_c, 9, 38, 64
3, 132360, Note_off_c, 9, 42, 64
3, 132360, Note_on_c, 9, 38, 100
3, 132360, Note_on_c, 9, 42, 100
3, 132480, Note_off_c, 9, 42, 64
3, 132480, Note_off_c, 9, 42, 64
3, 132480, Note_off_c, 9, 38, 64
3, 132480, Note_on_c, 9, 42, 100
3, 132720, Note_off_c, 9, 42, 64
3, 132720, Note_on_c, 9, 42, 100
3, 132960, Note_off_c, 9, 42, 64
3, 132960, Note_on_c, 9, 38, 100
3, 132960, Note_on_c, 9, 35, 100
3, 132960, Note_on_c, 9, 38, 100
3, 132960, Note_on_c, 9, 42, 100
3, 133200, Note_off_c, 9, 42, 64
3, 133200, Note_off_c, 9, 38, 64
3, 133200, Note_off_c, 9, 35, 64
3, 133200, Note_off_c, 9, 38, 64
3, 133200, Note_on_c, 9, 42, 100
3, 133440, Note_off_c, 9, 42, 64
3, 133440, Note_on_c, 9, 42, 100
3, 133680, Note_off_c, 9, 42, 64
3, 133680, Note_on_c, 9, 42, 100
3, 133920, Note_off_c, 9, 42, 64
3, 133920, Note_on_c, 9, 38, 100
3, 133920, Note_on_c, 9, 35, 100
3, 133920, Note_on_c, 9, 38, 100
3, 133920, Note_on_c, 9, 42, 100
3, 134160, Note_off_c, 9, 42, 64
3, 134160, Note_off_c, 9, 38, 64
3, 134160, Note_off_c, 9, 35, 64
3, 134160, Note_off_c, 9, 38, 64
3, 134160, Note_on_c, 9, 42, 100
3, 134400, Note_off_c, 9, 42, 64
3, 134400, Note_on_c, 9, 42, 100
3, 134640, Note_off_c, 9, 42, 64
3, 134640, Note_on_c, 9, 42, 100
3, 134880, Note_off_c, 9, 42, 64
3, 134880, Note_on_c, 9, 38, 100
3, 134880, Note_on_c, 9, 35, 100
3, 134880, Note_on_c, 9, 38, 100
3, 134880, Note_on_c, 9, 42, 100
3, 135120, Note_off_c, 9, 42, 64
3, 135120, Note_off_c, 9, 38, 64
3, 135120, Note_off_c, 9, 35, 64
3, 135120, Note_off_c, 9, 38, 64
3, 135120, Note_on_c, 9, 42, 100
3, 135360, Note_off_c, 9, 42, 64
3, 135360, Note_on_c, 9, 42, 100
3, 135600, Note_off_c, 9, 42, 64
3, 135600, Note_on_c, 9, 42, 100
3, 135840, Note_off_c, 9, 42, 64
3, 135840, Note_on_c, 9, 38, 100
3, 135840, Note_on_c, 9, 35, 100
3, 135840, Note_on_c, 9, 38, 100
3, 135840, Note_on_c, 9, 42, 100
3, 136080, Note_off_c, 9, 42, 64
3, 136080, Note_off_c, 9, 38, 64
3, 136080, Note_off_c, 9, 35, 64
3, 136080, Note_off_c, 9, 38, 64
3, 136080, Note_on_c, 9, 42, 100
3, 136320, Note_off_c, 9, 42, 64
3, 136320, Note_on_c, 9, 42, 100
3, 136560, Note_off_c, 9, 42, 64
3, 136560, Note_on_c, 9, 42, 100
3, 136800, Note_off_c, 9, 42, 64
3, 136800, Note_on_c, 9, 38, 100
3, 136800, Note_on_c, 9, 35, 100
3, 136800, Note_on_c, 9, 38, 100
3, 136800, Note_on_c, 9, 42, 100
3, 137040, Note_off_c, 9, 42, 64
3, 137040, Note_off_c, 9, 38, 64
3, 137040, Note_off_c, 9, 35, 64
3, 137040, Note_off_c, 9, 38, 64
3, 137040, Note_on_c, 9, 42, 100
3, 137280, Note_off_c, 9, 42, 64
3, 137280, Note_on_c, 9, 42, 100
3, 137520, Note_off_c, 9, 42, 64
3, 137520, Note_on_c, 9, 42, 100
3, 137760, Note_off_c, 9, 42, 64
3, 137760, Note_on_c, 9, 38, 100
3, 137760, Note_on_c, 9, 35, 100
3, 137760, Note_on_c, 9, 38, 100
3, 137760, Note_on_c, 9, 42, 100
3, 138000, Note_off_c, 9, 42, 64
3, 138000, Note_off_c, 9, 38, 64
3, 138000, Note_off_c, 9, 35, 64
3, 138000, Note_off_c, 9, 38, 64
3, 138000, Note_on_c, 9, 42, 100
3, 138240, Note_off_c, 9, 42, 64
3, 138240, Note_on_c, 9, 42, 100
3, 138480, Note_off_c, 9, 42, 64
3, 138480, Note_on_c, 9, 42, 100
3, 138720, Note_off_c, 9, 42, 64
3, 138720, Note_on_c, 9, 38, 100
3, 138720, Note_on_c, 9, 35, 100
3, 138720, Note_on_c, 9, 38, 100
3, 138720, Note_on_c, 9, 42, 100
3, 138960, Note_off_c, 9, 42, 64
3, 138960, Note_off_c, 9, 38, 64
3, 138960, Note_off_c, 9, 35, 64
3, 138960, Note_off_c, 9, 38, 64
3, 138960, Note_on_c, 9, 42, 100
3, 139200, Note_off_c, 9, 42, 64
3, 139200, Note_on_c, 9, 42, 100
3, 139440, Note_off_c, 9, 42, 64
3, 139440, Note_on_c, 9, 42, 100
3, 139680, Note_off_c, 9, 42, 64
3, 139680, Note_on_c, 9, 38, 100
3, 139680, Note_on_c, 9, 35, 100
3, 139680, Note_on_c, 9, 38, 100
3, 139680, Note_on_c, 9, 42, 100
3, 139800, Note_on_c, 9, 42, 100
3, 139800, Note_on_c, 9, 38, 100
3, 139920, Note_off_c, 9, 38, 64
3, 139920, Note_off_c, 9, 42, 64
3, 139920, Note_off_c, 9, 42, 64
3, 139920, Note_off_c, 9, 38, 64
3, 139920, Note_off_c, 9, 35, 64
3, 139920, Note_off_c, 9, 38, 64
3, 139920, Note_on_c, 9, 42, 100
3, 139920, Note_on_c, 9, 38, 100
3, 139920, Note_on_c, 9, 42, 100
3, 140040, Note_off_c, 9, 38, 64
3, 140040, Note_off_c, 9, 42, 64
3, 140040, Note_on_c, 9, 38, 100
3, 140040, Note_on_c, 9, 42, 100
3, 140160, Note_off_c, 9, 42, 64
3, 140160, Note_off_c, 9, 42, 64
3, 140160, Note_off_c, 9, 38, 64
3, 140160, Note_on_c, 9, 42, 100
3, 140400, Note_off_c, 9, 42, 64
3, 140400, Note_on_c, 9, 42, 100
3, 140640, Note_off_c, 9, 42, 64
3, 140640, Note_on_c, 9, 38, 100
3, 140640, Note_on_c, 9, 35, 100
3, 140640, Note_on_c, 9, 38, 100
3, 140640, Note_on_c, 9, 42, 100
3, 140880, Note_off_c, 9, 42, 64
3, 140880, Note_off_c, 9, 38, 64
3, 140880, Note_off_c, 9, 35, 64
3, 140880, Note_off_c, 9, 38, 64
3, 140880, Note_on_c, 9, 42, 100
3, 141120, Note_off_c, 9, 42, 64
3, 141120, Note_on_c, 9, 42, 100
3, 141360, Note_off_c, 9, 42, 64
3, 141360, Note_on_c, 9, 42, 100
3, 141600, Note_off_c, 9, 42, 64
3, 141600, Note_on_c, 9, 38, 100
3, 141600, Note_on_c, 9, 35, 100
3, 141600, Note_on_c, 9, 38, 100
3, 141600, Note_on_c, 9, 42, 100
3, 141840, Note_off_c, 9, 42, 64
3, 141840, Note_off_c, 9, 38, 64
3, 141840, Note_off_c, 9, 35, 64
3, 141840, Note_off_c, 9, 38, 64
3, 141840, Note_on_c, 9, 42, 100
3, 142080, Note_off_c, 9, 42, 64
3, 142080, Note_on_c, 9, 42, 100
3, 142320, Note_off_c, 9, 42, 64
3, 142320, Note_on_c, 9, 42, 100
3, 142560, Note_off_c, 9, 42, 64
3, 142560, Note_on_c, 9, 38, 100
3, 142560, Note_on_c, 9, 35, 100
3, 142560, Note_on_c, 9, 38, 100
3, 142560, Note_on_c, 9, 42, 100
3, 142800, Note_off_c, 9, 42, 64
3, 142800, Note_off_c, 9, 38, 64
3, 142800, Note_off_c, 9, 35, 64
3, 142800, Note_off_c, 9, 38, 64
3, 142800, Note_on_c, 9, 42, 100
3, 143040, Note_off_c, 9, 42, 64
3, 143040, Note_on_c, 9, 42, 100
3, 143280, Note_off_c, 9, 42, 64
3, 143280, Note_on_c, 9, 42, 100
3, 143520, Note_off_c, 9, 42, 64
3, 143520, Note_on_c, 9, 38, 100
3, 143520, Note_on_c, 9, 35, 100
3, 143520, Note_on_c, 9, 38, 100
3, 143520, Note_on_c, 9, 42, 100
3, 143760, Note_off_c, 9, 42, 64
3, 143760, Note_off_c, 9, 38, 64
3, 143760, Note_off_c, 9, 35, 64
3, 143760, Note_off_c, 9, 38, 64
3, 143760, Note_on_c, 9, 42, 100
3, 144000, Note_off_c, 9, 42, 64
3, 144000, Note_on_c, 9, 42, 100
3, 144240, Note_off_c, 9, 42, 64
3, 144240, Note_on_c, 9, 42, 100
3, 144480, Note_off_c, 9, 42, 64
3, 144480, Note_on_c, 9, 38, 100
3, 144480, Note_on_c, 9, 35, 100
3, 144480, Note_on_c, 9, 38, 100
3, 144480, Note_on_c, 9, 42, 100
3, 144720, Note_off_c, 9, 42, 64
3, 144720, Note_off_c, 9, 38, 64
3, 144720, Note_off_c, 9, 35, 64
3, 144720, Note_off_c, 9, 38, 64
3, 144720, Note_on_c, 9, 42, 100
3, 144960, Note_off_c, 9, 42, 64
3, 144960, Note_on_c, 9, 42, 100
3, 145200, Note_off_c, 9, 42, 64
3, 145200, Note_on_c, 9, 42, 100
3, 145440, Note_off_c, 9, 42, 64
3, 145440, Note_on_c, 9, 38, 100
3, 145440, Note_on_c, 9, 35, 100
3, 145440, Note_on_c, 9, 38, 100
3, 145440, Note_on_c, 9, 42, 100
3, 145680, Note_off_c, 9, 42, 64
3, 145680, Note_off_c, 9, 38, 64
3, 145680, Note_off_c, 9, 35, 64
3, 145680, Note_off_c, 9, 38, 64
3, 145680, Note_on_c, 9, 42, 100
3, 145920, Note_off_c, 9, 42, 64
3, 145920, Note_on_c, 9, 42, 100
3, 146160, Note_off_c, 9, 42, 64
3, 146160, Note_on_c, 9, 42, 100
3, 146400, Note_off_c, 9, 42, 64
3, 146400, Note_on_c, 9, 38, 100
3, 146400, Note_on_c, 9, 35, 100
3, 146400, Note_on_c, 9, 38, 100
3, 146400, Note_on_c, 9, 42, 100
3, 146640, Note_off_c, 9, 42, 64
3, 146640, Note_off_c, 9, 38, 64
3, 146640, Note_off_c, 9, 35, 64
3, 146640, Note_off_c, 9, 38, 64
3, 146640, Note_on_c, 9, 42, 100
3, 146880, Note_off_c, 9, 42, 64
3, 146880, Note_on_c, 9, 42, 100
3, 147120, Note_off_c, 9, 42, 64
3, 147120, Note_on_c, 9, 42, 100
3, 147360, Note_off_c, 9, 42, 64
3, 147360, Note_on_c, 9, 38, 100
3, 147360, Note_on_c, 9, 35, 100
3, 147360, Note_on_c, 9, 38, 100
3, 147360, Note_on_c, 9, 42, 100
3, 147480, Note_on_c, 9, 42, 100
3, 147480, Note_on_c, 9, 38, 100
3, 147600, Note_off_c, 9, 38, 64
3, 147600, Note_off_c, 9, 42, 64
3, 147600, Note_off_c, 9, 42, 64
3, 147600, Note_off_c, 9, 38, 64
3, 147600, Note_off_c, 9, 35, 64
3, 147600, Note_off_c, 9, 38, 64
3, 147600, Note_on_c, 9, 42, 100
3, 147600, Note_on_c, 9, 38, 100
3, 147600, Note_on_c, 9, 42, 100
3, 147720, Note_off_c, 9, 38, 64
3, 147720, Note_off_c, 9, 42, 64
3, 147720, Note_on_c, 9, 38, 100
3, 147720, Note_on_c, 9, 42, 100
3, 147840, Note_off_c, 9, 42, 64
3, 147840, Note_off_c, 9, 42, 64
3, 147840, Note_off_c, 9, 38, 64
3, 147840, Note_on_c, 9, 42, 100
3, 148080, Note_off_c, 9, 42, 64
3, 148080, Note_on_c, 9, 42, 100
3, 148320, Note_off_c, 9, 42, 64
3, 148320, Note_on_c, 9, 38, 100
3, 148320, Note_on_c, 9, 35, 100
3, 148320, Note_on_c, 9, 38, 100
3, 148320, Note_on_c, 9, 42, 100
3, 148560, Note_off_c, 9, 42, 64
3, 148560, Note_off_c, 9, 38, 64
3, 148560, Note_off_c, 9, 35, 64
3, 148560, Note_off_c, 9, 38, 64
3, 148560, Note_on_c, 9, 42, 100
3, 148800, Note_off_c, 9, 42, 64
3, 148800, Note_on_c, 9, 42, 100
3, 149040, Note_off_c, 9, 42, 64
3, 149040, Note_on_c, 9, 42, 100
3, 149280, Note_off_c, 9, 42, 64
3, 149280, Note_on_c, 9, 38, 100
3, 149280, Note_on_c, 9, 35, 100
3, 149280, Note_on_c, 9, 38, 100
3, 149280, Note_on_c, 9, 42, 100
3, 149520, Note_off_c, 9, 42, 64
3, 149520, Note_off_c, 9, 38, 64
3, 149520, Note_off_c, 9, 35, 64
3, 149520, Note_off_c, 9, 38, 64
3, 149520, Note_on_c, 9, 42, 100
3, 149760, Note_off_c, 9, 42, 64
3, 149760, Note_on_c, 9, 42, 100
3, 150000, Note_off_c, 9, 42, 64
3, 150000, Note_on_c, 9, 42, 100
3, 150240, Note_off_c, 9, 42, 64
3, 150240, Note_on_c, 9, 38, 100
3, 150240, Note_on_c, 9, 35, 100
3, 150240, Note_on_c, 9, 38, 100
3, 150240, Note_on_c, 9, 42, 100
3, 150480, Note_off_c, 9, 42, 64
3, 150480, Note_off_c, 9, 38, 64
3, 150480, Note_off_c, 9, 35, 64
3, 150480, Note_off_c, 9, 38, 64
3, 150480, Note_on_c, 9, 42, 100
3, 150720, Note_off_c, 9, 42, 64
3, 150720, Note_on_c, 9, 42, 100
3, 150960, Note_off_c, 9, 42, 64
3, 150960, Note_on_c, 9, 42, 100
3, 151200, Note_off_c, 9, 42, 64
3, 151200, Note_on_c, 9, 38, 100
3, 151200, Note_on_c, 9, 35, 100
3, 151200, Note_on_c, 9, 38, 100
3, 151200, Note_on_c, 9, 42, 100
3, 151440, Note_off_c, 9, 42, 64
3, 151440, Note_off_c, 9, 38, 64
3, 151440, Note_off_c, 9, 35, 64
3, 151440, Note_off_c, 9, 38, 64
3, 151440, Note_on_c, 9, 42, 100
3, 151680, Note_off_c, 9, 42, 64
3, 151680, Note_on_c, 9, 42, 100
3, 151920, Note_off_c, 9, 42, 64
3, 151920, Note_on_c, 9, 42, 100
3, 152160, Note_off_c, 9, 42, 64
3, 152160, Note_on_c, 9, 38, 100
3, 152160, Note_on_c, 9, 35, 100
3, 152160, Note_on_c, 9, 38, 100
3, 152160, Note_on_c, 9, 42, 100
3, 152400, Note_off_c, 9, 42, 64
3, 152400, Note_off_c, 9, 38, 64
3, 152400, Note_off_c, 9, 35, 64
3, 152400, Note_off_c, 9, 38, 64
3, 152400, Note_on_c, 9, 42, 100
3, 152640, Note_off_c, 9, 42, 64
3, 152640, Note_on_c, 9, 42, 100
3, 152880, Note_off_c, 9, 42, 64
3, 152880, Note_on_c, 9, 42, 100
3, 153120, Note_off_c, 9, 42, 64
3, 153120, Note_on_c, 9, 38, 100
3, 153120, Note_on_c, 9, 35, 100
3, 153120, Note_on_c, 9, 38, 100
3, 153120, Note_on_c, 9, 42, 100
3, 153360, Note_off_c, 9, 42, 64
3, 153360, Note_off_c, 9, 38, 64
3, 153360, Note_off_c, 9, 35, 64
3, 153360, Note_off_c, 9, 38, 64
3, 153360, Note_on_c, 9, 42, 100
3, 153600, Note_off_c, 9, 42, 64
3, 153600, Note_on_c, 9, 42, 100
3, 153840, Note_off_c, 9, 42, 64
3, 153840, Note_on_c, 9, 42, 100
3, 154080, Note_off_c, 9, 42, 64
3, 154080, Note_on_c, 9, 38, 100
3, 154080, Note_on_c, 9, 35, 100
3, 154080, Note_on_c, 9, 38, 100
3, 154080, Note_on_c, 9, 42, 100
3, 154320, Note_off_c, 9, 42, 64
3, 154320, Note_off_c, 9, 38, 64
3, 154320, Note_off_c, 9, 35, 64
3, 154320, Note_off_c, 9, 38, 64
3, 154320, Note_on_c, 9, 42, 100
3, 154560, Note_off_c, 9, 42, 64
3, 154560, Note_on_c, 9, 42, 100
3, 154800, Note_off_c, 9, 42, 64
3, 154800, Note_on_c, 9, 42, 100
3, 155040, Note_off_c, 9, 42, 64
3, 155040, Note_on_c, 9, 38, 100
3, 155040, Note_on_c, 9, 35, 100
3, 155040, Note_on_c, 9, 38, 100
3, 155040, Note_on_c, 9, 42, 100
3, 155160, Note_on_c, 9, 42, 100
3, 155160, Note_on_c, 9, 38, 100
3, 155280, Note_off_c, 9, 38, 64
3, 155280, Note_off_c, 9, 42, 64
3, 155280, Note_off_c, 9, 42, 64
3, 155280, Note_off_c, 9, 38, 64
3, 155280, Note_off_c, 9, 35, 64
3, 155280, Note_off_c, 9, 38, 64
3, 155280, Note_on_c, 9, 42, 100
3, 155280, Note_on_c, 9, 38, 100
3, 155280, Note_on_c, 9, 42, 100
3, 155400, Note_off_c, 9, 38, 64
3, 155400, Note_off_c, 9, 42, 64
3, 155400, Note_on_c, 9, 38, 100
3, 155400, Note_on_c, 9, 42, 100
3, 155520, Note_off_c, 9, 42, 64
3, 155520, Note_off_c, 9, 42, 64
3, 155520, Note_off_c, 9, 38, 64
3, 155520, Note_on_c, 9, 42, 100
3, 155760, Note_off_c, 9, 42, 64
3, 155760, Note_on_c, 9, 42, 100
3, 156000, Note_off_c, 9, 42, 64
3, 156000, Note_on_c, 9, 38, 100
3, 156000, Note_on_c, 9, 35, 100
3, 156000, Note_on_c, 9, 38, 100
3, 156000, Note_on_c, 9, 42, 100
3, 156240, Note_off_c, 9, 42, 64
3, 156240, Note_off_c, 9, 38, 64
3, 156240, Note_off_c, 9, 35, 64
3, 156240, Note_off_c, 9, 38, 64
3, 156240, Note_on_c, 9, 42, 100
3, 156480, Note_off_c, 9, 42, 64
3, 156480, Note_on_c, 9, 42, 100
3, 156720, Note_off_c, 9, 42, 64
3, 156720, Note_on_c, 9, 42, 100
3, 156960, Note_off_c, 9, 42, 64
3, 156960, Note_on_c, 9, 38, 100
3, 156960, Note_on_c, 9, 35, 100
3, 156960, Note_on_c, 9, 38, 100
3, 156960, Note_on_c, 9, 42, 100
3, 157200, Note_off_c, 9, 42, 64
3, 157200, Note_off_c, 9, 38, 64
3, 157200, Note_off_c, 9, 35, 64
3, 157200, Note_off_c, 9, 38, 64
3, 157200, Note_on_c, 9, 42, 100
3, 157440, Note_off_c, 9, 42, 64
3, 157440, Note_on_c, 9, 42, 100
3, 157680, Note_off_c, 9, 42, 64
3, 157680, Note_on_c, 9, 42, 100
3, 157920, Note_off_c, 9, 42, 64
3, 157920, Note_on_c, 9, 38, 100
3, 157920, Note_on_c, 9, 35, 100
3, 157920, Note_on_c, 9, 38, 100
3, 157920, Note_on_c, 9, 42, 100
3, 158160, Note_off_c, 9, 42, 64
3, 158160, Note_off_c, 9, 38, 64
3, 158160, Note_off_c, 9, 35, 64
3, 158160, Note_off_c, 9, 38, 64
3, 158160, Note_on_c, 9, 42, 100
3, 158400, Note_off_c, 9, 42, 64
3, 158400, Note_on_c, 9, 42, 100
3, 158640, Note_off_c, 9, 42, 64
3, 158640, Note_on_c, 9, 42, 100
3, 158880, Note_off_c, 9, 42, 64
3, 158880, Note_on_c, 9, 38, 100
3, 158880, Note_on_c, 9, 35, 100
3, 158880, Note_on_c, 9, 38, 100
3, 158880, Note_on_c, 9, 42, 100
3, 159120, Note_off_c, 9, 42, 64
3, 159120, Note_off_c, 9, 38, 64
3, 159120, Note_off_c, 9, 35, 64
3, 159120, Note_off_c, 9, 38, 64
3, 159120, Note_on_c, 9, 42, 100
3, 159360, Note_off_c, 9, 42, 64
3, 159360, Note_on_c, 9, 42, 100
3, 159600, Note_off_c, 9, 42, 64
3, 159600, Note_on_c, 9, 42, 100
3, 159840, Note_off_c, 9, 42, 64
3, 159840, Note_on_c, 9, 38, 100
3, 159840, Note_on_c, 9, 35, 100
3, 159840, Note_on_c, 9, 38, 100
3, 159840, Note_on_c, 9, 42, 100
3, 160080, Note_off_c, 9, 42, 64
3, 160080, Note_off_c, 9, 38, 64
3, 160080, Note_off_c, 9, 35, 64
3, 160080, Note_off_c, 9, 38, 64
3, 160080, Note_on_c, 9, 42, 100
3, 160320, Note_off_c, 9, 42, 64
3, 160320, Note_on_c, 9, 42, 100
3, 160560, Note_off_c, 9, 42, 64
3, 160560, Note_on_c, 9, 42, 100
3, 160800, Note_off_c, 9, 42, 64
3, 160800, Note_on_c, 9, 38, 100
3, 160800, Note_on_c, 9, 35, 100
3, 160800, Note_on_c, 9, 38, 100
3, 160800, Note_on_c, 9, 42, 100
3, 161040, Note_off_c, 9, 42, 64
3, 161040, Note_off_c, 9, 38, 64
3, 161040, Note_off_c, 9, 35, 64
3, 161040, Note_off_c, 9, 38, 64
3, 161040, Note_on_c, 9, 42, 100
3, 161280, Note_off_c, 9, 42, 64
3, 161280, Note_on_c, 9, 42, 100
3, 161520, Note_off_c, 9, 42, 64
3, 161520, Note_on_c, 9, 42, 100
3, 161760, Note_off_c, 9, 42, 64
3, 161760, Note_on_c, 9, 38, 100
3, 161760, Note_on_c, 9, 35, 100
3, 161760, Note_on_c, 9, 38, 100
3, 161760, Note_on_c, 9, 42, 100
3, 162000, Note_off_c, 9, 42, 64
3, 162000, Note_off_c, 9, 38, 64
3, 162000, Note_off_c, 9, 35, 64
3, 162000, Note_off_c, 9, 38, 64
3, 162000, Note_on_c, 9, 42, 100
3, 162240, Note_off_c, 9, 42, 64
3, 162240, Note_on_c, 9, 42, 100
3, 162480, Note_off_c, 9, 42, 64
3, 162480, Note_on_c, 9, 42, 100
3, 162720, Note_off_c, 9, 42, 64
3, 162720, Note_on_c, 9, 38, 100
3, 162720, Note_on_c, 9, 35, 100
3, 162720, Note_on_c, 9, 38, 100
3, 162720, Note_on_c, 9, 42, 100
3, 162840, Note_on_c, 9, 42, 100
3, 162840, Note_on_c, 9, 38, 100
3, 162960, Note_off_c, 9, 38, 64
3, 162960, Note_off_c, 9, 42, 64
3, 162960, Note_off_c, 9, 42, 64
3, 162960, Note_off_c, 9, 38, 64
3, 162960, Note_off_c, 9, 35, 64
3, 162960, Note_off_c, 9, 38, 64
3, 162960, Note_on_c, 9, 42, 100
3, 162960, Note_on_c, 9, 38, 100
3, 162960, Note_on_c, 9, 42, 100
3, 163080, Note_off_c, 9, 38, 64
3, 163080, Note_off_c, 9, 42, 64
3, 163080, Note_on_c, 9, 38, 100
3, 163080, Note_on_c, 9, 42, 100
3, 163200, Note_off_c, 9, 42, 64
3, 163200, Note_off_c, 9, 42, 64
3, 163200, Note_off_c, 9, 38, 64
3, 163200, Note_on_c, 9, 42, 100
3, 163440, Note_off_c, 9, 42, 64
3, 163440, Note_on_c, 9, 42, 100
3, 163680, Note_off_c, 9, 42, 64
3, 163680, Note_on_c, 9, 38, 100
3, 163680, Note_on_c, 9, 35, 100
3, 163680, Note_on_c, 9, 38, 100
3, 163680, Note_on_c, 9, 42, 100
3, 163920, Note_off_c, 9, 42, 64
3, 163920, Note_off_c, 9, 38, 64
3, 163920, Note_off_c, 9, 35, 64
3, 163920, Note_off_c, 9, 38, 64
3, 163920, Note_on_c, 9, 42, 100
3, 164160, Note_off_c, 9, 42, 64
3, 164160, Note_on_c, 9, 42, 100
3, 164400, Note_off_c, 9, 42, 64
3, 164400, Note_on_c, 9, 42, 100
3, 164640, Note_off_c, 9, 42, 64
3, 164640, Note_on_c, 9, 38, 100
3, 164640, Note_on_c, 9, 35, 100
3, 164640, Note_on_c, 9, 38, 100
3, 164640, Note_on_c, 9, 42, 100
3, 164880, Note_off_c, 9, 42, 64
3, 164880, Note_off_c, 9, 38, 64
3, 164880, Note_off_c, 9, 35, 64
3, 164880, Note_off_c, 9, 38, 64
3, 164880, Note_on_c, 9, 42, 100
3, 165120, Note_off_c, 9, 42, 64
3, 165120, Note_on_c, 9, 42, 100
3, 165360, Note_off_c, 9, 42, 64
3, 165360, Note_on_c, 9, 42, 100
3, 165600, Note_off_c, 9, 42, 64
3, 165600, Note_on_c, 9, 38, 100
3, 165600, Note_on_c, 9, 35, 100
3, 165600, Note_on_c, 9, 38, 100
3, 165600, Note_on_c, 9, 42, 100
3, 165840, Note_off_c, 9, 42, 64
3, 165840, Note_off_c, 9, 38, 64
3, 165840, Note_off_c, 9, 35, 64
3, 165840, Note_off_c, 9, 38, 64
3, 165840, Note_on_c, 9, 42, 100
3, 166080, Note_off_c, 9, 42, 64
3, 166080, Note_on_c, 9, 42, 100
3, 166320, Note_off_c, 9, 42, 64
3, 166320, Note_on_c, 9, 42, 100
3, 166560, Note_off_c, 9, 42, 64
3, 166560, Note_on_c, 9, 38, 100
3, 166560, Note_on_c, 9, 35, 100
3, 166560, Note_on_c, 9, 38, 100
3, 166560, Note_on_c, 9, 42, 100
3, 166800, Note_off_c, 9, 42, 64
3, 166800, Note_off_c, 9, 38, 64
3, 166800, Note_off_c, 9, 35, 64
3, 166800, Note_off_c, 9, 38, 64
3, 166800, Note_on_c, 9, 42, 100
3, 167040, Note_off_c, 9, 42, 64
3, 167040, Note_on_c, 9, 42, 100
3, 167280, Note_off_c, 9, 42, 64
3, 167280, Note_on_c, 9, 42, 100
3, 167520, Note_off_c, 9, 42, 64
3, 167520, Note_on_c, 9, 38, 100
3, 167520, Note_on_c, 9, 35, 100
3, 167520, Note_on_c, 9, 38, 100
3, 167520, Note_on_c, 9, 42, 100
3, 167760, Note_off_c, 9, 42, 64
3, 167760, Note_off_c, 9, 38, 64
3, 167760, Note_off_c, 9, 35, 64
3, 167760, Note_off_c, 9, 38, 64
3, 167760, Note_on_c, 9, 42, 100
3, 168000, Note_off_c, 9, 42, 64
3, 168000, Note_on_c, 9, 42, 100
3, 168240, Note_off_c, 9, 42, 64
3, 168240, Note_on_c, 9, 42, 100
3, 168480, Note_off_c, 9, 42, 64
3, 168480, Note_on_c, 9, 38, 100
3, 168480, Note_on_c, 9, 35, 100
3, 168480, Note_on_c, 9, 38, 100
3, 168480, Note_on_c, 9, 42, 100
3, 168720, Note_off_c, 9, 42, 64
3, 168720, Note_off_c, 9, 38, 64
3, 168720, Note_off_c, 9, 35, 64
3, 168720, Note_off_c, 9, 38, 64
3, 168720, Note_on_c, 9, 42, 100
3, 168960, Note_off_c, 9, 42, 64
3, 168960, Note_on_c, 9, 42, 100
3, 169200, Note_off_c, 9, 42, 64
3, 169200, Note_on_c, 9, 42, 100
3, 169440, Note_off_c, 9, 42, 64
3, 169440, Note_on_c, 9, 38, 100
3, 169440, Note_on_c, 9, 35, 100
3, 169440, Note_on_c, 9, 38, 100
3, 169440, Note_on_c, 9, 42, 100
3, 169680, Note_off_c, 9, 42, 64
3, 169680, Note_off_c, 9, 38, 64
3, 169680, Note_off_c, 9, 35, 64
3, 169680, Note_off_c, 9, 38, 64
3, 169680, Note_on_c, 9, 42, 100
3, 169920, Note_off_c, 9, 42, 64
3, 169920, Note_on_c, 9, 42, 100
3, 170160, Note_off_c, 9, 42, 64
3, 170160, Note_on_c, 9, 42, 100
3, 170400, Note_off_c, 9, 42, 64
3, 170400, Note_on_c, 9, 38, 100
3, 170400, Note_on_c, 9, 35, 100
3, 170400, Note_on_c, 9, 38, 100
3, 170400, Note_on_c, 9, 42, 100
3, 170520, Note_on_c, 9, 42, 100
3, 170520, Note_on_c, 9, 38, 100
3, 170640, Note_off_c, 9, 38, 64
3, 170640, Note_off_c, 9, 42, 64
3, 170640, Note_off_c, 9, 42, 64
3, 170640, Note_off_c, 9, 38, 64
3, 170640, Note_off_c, 9, 35, 64
3, 170640, Note_off_c, 9, 38, 64
3, 170640, Note_on_c, 9, 42, 100
3, 170640, Note_on_c, 9, 38, 100
3, 170640, Note_on_c, 9, 42, 100
3, 170760, Note_off_c, 9, 38, 64
3, 170760, Note_off_c, 9, 42, 64
3, 170760, Note_on_c, 9, 38, 100
3, 170760, Note_on_c, 9, 42, 100
3, 170880, Note_off_c, 9, 42, 64
3, 170880, Note_off_c, 9, 42, 64
3, 170880, Note_off_c, 9, 38, 64
3, 170880, Note_on_c, 9, 42, 100
3, 171120, Note_off_c, 9, 42, 64
3, 171120, Note_on_c, 9, 42, 100
3, 171360, Note_off_c, 9, 42, 64
3, 171360, Note_on_c, 9, 38, 100
3, 171360, Note_on_c, 9, 35, 100
3, 171360, Note_on_c, 9, 38, 100
3, 171360, Note_on_c, 9, 42, 100
3, 171600, Note_off_c, 9, 42, 64
3, 171600, Note_off_c, 9, 38, 64
3, 171600, Note_off_c, 9, 35, 64
3, 171600, Note_off_c, 9, 38, 64
3, 171600, Note_on_c, 9, 42, 100
3, 171840, Note_off_c, 9, 42, 64
3, 171840, Note_on_c, 9, 42, 100
3, 172080, Note_off_c, 9, 42, 64
3, 172080, Note_on_c, 9, 42, 100
3, 172320, Note_off_c, 9, 42, 64
3, 172320, Note_on_c, 9, 38, 100
3, 172320, Note_on_c, 9, 35, 100
3, 172320, Note_on_c, 9, 38, 100
3, 172320, Note_on_c, 9, 42, 100
3, 172560, Note_off_c, 9, 42, 64
3, 172560, Note_off_c, 9, 38, 64
3, 172560, Note_off_c, 9, 35, 64
3, 172560, Note_off_c, 9, 38, 64
3, 172560, Note_on_c, 9, 42, 100
3, 172800, Note_off_c, 9, 42, 64
3, 172800, Note_on_c, 9, 42, 100
3, 173040, Note_off_c, 9, 42, 64
3, 173040, Note_on_c, 9, 42, 100
3, 173280, Note_off_c, 9, 42, 64
3, 173280, Note_on_c, 9, 38, 100
3, 173280, Note_on_c, 9, 35, 100
3, 173280, Note_on_c, 9, 38, 100
3, 173280, Note_on_c, 9, 42, 100
3, 173520, Note_off_c, 9, 42, 64
3, 173520, Note_off_c, 9, 38, 64
3, 173520, Note_off_c, 9, 35, 64
3, 173520, Note_off_c, 9, 38, 64
3, 173520, Note_on_c, 9, 42, 100
3, 173760, Note_off_c, 9, 42, 64
3, 173760, Note_on_c, 9, 42, 100
3, 174000, Note_off_c, 9, 42, 64
3, 174000, Note_on_c, 9, 42, 100
3, 174240, Note_off_c, 9, 42, 64
3, 174240, Note_on_c, 9, 38, 100
3, 174240, Note_on_c, 9, 35, 100
3, 174240, Note_on_c, 9, 38, 100
3, 174240, Note_on_c, 9, 42, 100
3, 174480, Note_off_c, 9, 42, 64
3, 174480, Note_off_c, 9, 38, 64
3, 174480, Note_off_c, 9, 35, 64
3, 174480, Note_off_c, 9, 38, 64
3, 174480, Note_on_c, 9, 42, 100
3, 174720, Note_off_c, 9, 42, 64
3, 174720, Note_on_c, 9, 42, 100
3, 174960, Note_off_c, 9, 42, 64
3, 174960, Note_on_c, 9, 42, 100
3, 175200, Note_off_c, 9, 42, 64
3, 175200, Note_on_c, 9, 38, 100
3, 175200, Note_on_c, 9, 35, 100
3, 175200, Note_on_c, 9, 38, 100
3, 175200, Note_on_c, 9, 42, 100
3, 175440, Note_off_c, 9, 42, 64
3, 175440, Note_off_c, 9, 38, 64
3, 175440, Note_off_c, 9, 35, 64
3, 175440, Note_off_c, 9, 38, 64
3, 175440, Note_on_c, 9, 42, 100
3, 175680, Note_off_c, 9, 42, 64
3, 175680, Note_on_c, 9, 42, 100
3, 175920, Note_off_c, 9, 42, 64
3, 175920, Note_on_c, 9, 42, 100
3, 176160, Note_off_c, 9, 42, 64
3, 176160, Note_on_c, 9, 38, 100
3, 176160, Note_on_c, 9, 35, 100
3, 176160, Note_on_c, 9, 38, 100
3, 176160, Note_on_c, 9, 42, 100
3, 176400, Note_off_c, 9, 42, 64
3, 176400, Note_off_c, 9, 38, 64
3, 176400, Note_off_c, 9, 35, 64
3, 176400, Note_off_c, 9, 38, 64
3, 176400, Note_on_c, 9, 42, 100
3, 176640, Note_off_c, 9, 42, 64
3, 176640, Note_on_c, 9, 42, 100
3, 176880, Note_off_c, 9, 42, 64
3, 176880, Note_on_c, 9, 42, 100
3, 177120, Note_off_c, 9, 42, 64
3, 177120, Note_on_c, 9, 38, 100
3, 177120, Note_on_c, 9, 35, 100
3, 177120, Note_on_c, 9, 38, 100
3, 177120, Note_on_c, 9, 42, 100
3, 177360, Note_off_c, 9, 42, 64
3, 177360, Note_off_c, 9, 38, 64
3, 177360, Note_off_c, 9, 35, 64
3, 177360, Note_off_c, 9, 38, 64
3, 177360, Note_on_c, 9, 42, 100
3, 177600, Note_off_c, 9, 42, 64
3, 177600, Note_on_c, 9, 42, 100
3, 177840, Note_off_c, 9, 42, 64
3, 177840, Note_on_c, 9, 42, 100
3, 178080, Note_off_c, 9, 42, 64
3, 178080, Note_on_c, 9, 38, 100
3, 178080, Note_on_c, 9, 35, 100
3, 178080, Note_on_c, 9, 38, 100
3, 178080, Note_on_c, 9, 42, 100
3, 178200, Note_on_c, 9, 42, 100
3, 178200, Note_on_c, 9, 38, 100
3, 178320, Note_off_c, 9, 38, 64
3, 178320, Note_off_c, 9, 42, 64
3, 178320, Note_off_c, 9, 42, 64
3, 178320, Note_off_c, 9, 38, 64
3, 178320, Note_off_c, 9, 35, 64
3, 178320, Note_off_c, 9, 38, 64
3, 178320, Note_on_c, 9, 42, 100
3, 178320, Note_on_c, 9, 38, 100
3, 178320, Note_on_c, 9, 42, 100
3, 178440, Note_off_c, 9, 38, 64
3, 178440, Note_off_c, 9, 42, 64
3, 178440, Note_on_c, 9, 38, 100
3, 178440, Note_on_c, 9, 42, 100
3, 178560, Note_off_c, 9, 42, 64
3, 178560, Note_off_c, 9, 42, 64
3, 178560, Note_off_c, 9, 38, 64
3, 178560, Note_on_c, 9, 38, 100
3, 178560, Note_on_c, 9, 35, 100
3, 178560, Note_on_c, 9, 38, 100
3, 178560, Note_on_c, 9, 42, 100
3, 178680, Note_off_c, 9, 38, 64
3, 178680, Note_off_c, 9, 35, 64
3, 178680, Note_off_c, 9, 38, 64
3, 178800, Note_off_c, 9, 42, 64
3, 180000, Note_on_c, 9, 38, 100
3, 180000, Note_on_c, 9, 35, 100
3, 180000, Note_on_c, 9, 38, 100
3, 180000, Note_on_c, 9, 42, 100
3, 180120, Note_on_c, 9, 42, 100
3, 180120, Note_on_c, 9, 38, 100
3, 180240, Note_off_c, 9, 38, 64
3, 180240, Note_off_c, 9, 42, 64
3, 180240, Note_off_c, 9, 42, 64
3, 180240, Note_off_c, 9, 38, 64
3, 180240, Note_off_c, 9, 35, 64
3, 180240, Note_off_c, 9, 38, 64
3, 180240, Note_on_c, 9, 42, 100
3, 180240, Note_on_c, 9, 38, 100
3, 180240, Note_on_c, 9, 42, 100
3, 180360, Note_off_c, 9, 38, 64
3, 180360, Note_off_c, 9, 42, 64
3, 180360, Note_on_c, 9, 42, 100
3, 180360, Note_on_c, 9, 38, 100
3, 180480, Note_off_c, 9, 38, 64
3, 180480, Note_off_c, 9, 42, 64
3, 180480, Note_off_c, 9, 42, 64
3, 180480, Note_on_c, 9, 38, 100
3, 180480, Note_on_c, 9, 35, 100
3, 180480, Note_on_c, 9, 38, 100
3, 180480, Note_on_c, 9, 42, 100
3, 180720, Note_off_c, 9, 42, 64
3, 180720, Note_off_c, 9, 38, 64
3, 180720, Note_off_c, 9, 35, 64
3, 180720, Note_off_c, 9, 38, 64
3, 181920, Note_on_c, 9, 38, 100
3, 181920, Note_on_c, 9, 35, 100
3, 181920, Note_on_c, 9, 38, 100
3, 181920, Note_on_c, 9, 42, 100
3, 182040, Note_on_c, 9, 42, 100
3, 182040, Note_on_c, 9, 38, 100
3, 182160, Note_off_c, 9, 38, 64
3, 182160, Note_off_c, 9, 42, 64
3, 182160, Note_off_c, 9, 42, 64
3, 182160, Note_off_c, 9, 38, 64
3, 182160, Note_off_c, 9, 35, 64
3, 182160, Note_off_c, 9, 38, 64
3, 182160, Note_on_c, 9, 42, 100
3, 182160, Note_on_c, 9, 38, 100
3, 182160, Note_on_c, 9, 42, 100
3, 182280, Note_off_c, 9, 38, 64
3, 182280, Note_off_c, 9, 42, 64
3, 182280, Note_on_c, 9, 42, 100
3, 182280, Note_on_c, 9, 38, 100
3, 182400, Note_off_c, 9, 38, 64
3, 182400, Note_off_c, 9, 42, 64
3, 182400, Note_off_c, 9, 42, 64
3, 182400, Note_on_c, 9, 38, 100
3, 182400, Note_on_c, 9, 35, 100
3, 182400, Note_on_c, 9, 38, 100
3, 182400, Note_on_c, 9, 42, 100
3, 182520, Note_off_c, 9, 38, 64
3, 182520, Note_off_c, 9, 35, 64
3, 182520, Note_off_c, 9, 38, 64
3, 182640, Note_off_c, 9, 42, 64
3, 183840, Note_on_c, 9, 38, 100
3, 183840, Note_on_c, 9, 35, 100
3, 183840, Note_on_c, 9, 38, 100
3, 183840, Note_on_c, 9, 42, 100
3, 183960, Note_on_c, 9, 42, 100
3, 183960, Note_on_c, 9, 38, 100
3, 184080, Note_off_c, 9, 38, 64
3, 184080, Note_off_c, 9, 42, 64
3, 184080, Note_off_c, 9, 42, 64
3, 184080, Note_off_c, 9, 38, 64
3, 184080, Note_off_c, 9, 35, 64
3, 184080, Note_off_c, 9, 38, 64
3, 184080, Note_on_c, 9, 42, 100
3, 184080, Note_on_c, 9, 38, 100
3, 184080, Note_on_c, 9, 42, 100
3, 184200, Note_off_c, 9, 38, 64
3, 184200, Note_off_c, 9, 42, 64
3, 184200, Note_on_c, 9, 42, 100
3, 184200, Note_on_c, 9, 38, 100
3, 184320, Note_off_c, 9, 38, 64
3, 184320, Note_off_c, 9, 42, 64
3, 184320, Note_off_c, 9, 42, 64
3, 184320, Note_on_c, 9, 38, 100
3, 184320, Note_on_c, 9, 35, 100
3, 184320, Note_on_c, 9, 38, 100
3, 184320, Note_on_c, 9, 42, 100
3, 184440, Note_off_c, 9, 38, 64
3, 184440, Note_off_c, 9, 35, 64
3, 184440, Note_off_c, 9, 38, 64
3, 184560, Note_off_c, 9, 42, 64
3, 190080, Note_on_c, 9, 38, 100
3, 190080, Note_on_c, 9, 35, 100
3, 190080, Note_on_c, 9, 38, 100
3, 190080, Note_on_c, 9, 42, 100
3, 190320, Note_off_c, 9, 42, 64
3, 190320, Note_off_c, 9, 38, 64
3, 190320, Note_off_c, 9, 35, 64
3, 190320, Note_off_c, 9, 38, 64
3, 190320, Note_on_c, 9, 42, 100
3, 190320, Note_on_c, 9, 38, 100
3, 190320, Note_on_c, 9, 35, 100
3, 190320, Note_on_c, 9, 38, 100
3, 190560, Note_off_c, 9, 38, 64
3, 190560, Note_off_c, 9, 35, 64
3, 190560, Note_off_c, 9, 38, 64
3, 190560, Note_off_c, 9, 42, 64
3, 190560, End_track
4, 0, Start_track
4, 0, Title_t, "Vocal"
4, 0, MIDI_port, 0
4, 0, Channel_prefix, 4
4, 0, Control_c, 4, 7, 127
4, 0, Control_c, 4, 10, 0
4, 0, Program_c, 4, 66
4, 45, Pitch_bend_c, 4, 8282
4, 45, Control_c, 4, 121, 0
4, 46, Control_c, 4, 91, 90
4, 48, Control_c, 4, 93, 80
4, 49, Control_c, 4, 2, 127
4, 53, Control_c, 4, 11, 127
4, 8880, Note_on_c, 4, 76, 120
4, 9120, Note_off_c, 4, 76, 64
4, 9120, Note_on_c, 4, 76, 120
4, 9360, Note_off_c, 4, 76, 64
4, 9360, Note_on_c, 4, 76, 120
4, 9600, Note_off_c, 4, 76, 64
4, 9600, Note_on_c, 4, 76, 120
4, 10080, Note_off_c, 4, 76, 64
4, 10080, Note_on_c, 4, 76, 120
4, 10560, Note_off_c, 4, 76, 64
4, 10560, Note_on_c, 4, 76, 120
4, 10800, Note_off_c, 4, 76, 64
4, 10800, Note_on_c, 4, 76, 120
4, 11040, Note_off_c, 4, 76, 64
4, 11040, Note_on_c, 4, 76, 120
4, 11520, Note_off_c, 4, 76, 64
4, 11520, Note_on_c, 4, 76, 120
4, 12000, Note_off_c, 4, 76, 64
4, 12000, Note_on_c, 4, 75, 120
4, 12240, Note_off_c, 4, 75, 64
4, 12240, Note_on_c, 4, 76, 120
4, 12960, Note_off_c, 4, 76, 64
4, 13200, Note_on_c, 4, 76, 120
4, 13680, Note_off_c, 4, 76, 64
4, 13680, Note_on_c, 4, 74, 120
4, 13920, Note_off_c, 4, 74, 64
4, 13920, Note_on_c, 4, 76, 120
4, 14160, Note_off_c, 4, 76, 64
4, 14160, Note_on_c, 4, 74, 120
4, 14400, Note_off_c, 4, 74, 64
4, 14400, Note_on_c, 4, 76, 120
4, 14640, Note_off_c, 4, 76, 64
4, 14640, Note_on_c, 4, 74, 120
4, 14880, Note_off_c, 4, 74, 64
4, 14880, Note_on_c, 4, 76, 120
4, 15120, Note_off_c, 4, 76, 64
4, 15120, Note_on_c, 4, 76, 120
4, 15360, Note_off_c, 4, 76, 64
4, 15360, Note_on_c, 4, 76, 120
4, 15840, Note_off_c, 4, 76, 64
4, 15840, Note_on_c, 4, 69, 120
4, 15960, Note_off_c, 4, 69, 64
4, 15960, Note_on_c, 4, 69, 120
4, 16080, Note_off_c, 4, 69, 64
4, 16080, Note_on_c, 4, 69, 120
4, 16800, Note_off_c, 4, 69, 64
4, 17040, Note_on_c, 4, 74, 120
4, 17520, Note_off_c, 4, 74, 64
4, 17520, Note_on_c, 4, 74, 120
4, 17760, Note_off_c, 4, 74, 64
4, 17760, Note_on_c, 4, 74, 120
4, 18000, Note_off_c, 4, 74, 64
4, 18000, Note_on_c, 4, 74, 120
4, 18240, Note_off_c, 4, 74, 64
4, 18240, Note_on_c, 4, 74, 120
4, 18480, Note_off_c, 4, 74, 64
4, 18480, Note_on_c, 4, 73, 120
4, 18720, Note_off_c, 4, 73, 64
4, 18720, Note_on_c, 4, 74, 120
4, 18960, Note_off_c, 4, 74, 64
4, 18960, Note_on_c, 4, 73, 120
4, 19200, Note_off_c, 4, 73, 64
4, 19200, Note_on_c, 4, 74, 120
4, 19680, Note_off_c, 4, 74, 64
4, 19680, Note_on_c, 4, 73, 120
4, 19920, Note_off_c, 4, 73, 64
4, 19920, Note_on_c, 4, 76, 120
4, 20400, Note_off_c, 4, 76, 64
4, 20400, Note_on_c, 4, 76, 120
4, 20640, Note_off_c, 4, 76, 64
4, 20640, Note_on_c, 4, 74, 120
4, 20880, Note_off_c, 4, 74, 64
4, 20880, Note_on_c, 4, 73, 120
4, 21120, Note_off_c, 4, 73, 64
4, 21120, Note_on_c, 4, 76, 120
4, 21600, Note_off_c, 4, 76, 64
4, 21600, Note_on_c, 4, 74, 120
4, 22080, Note_off_c, 4, 74, 64
4, 22080, Note_on_c, 4, 74, 120
4, 22320, Note_off_c, 4, 74, 64
4, 22320, Note_on_c, 4, 73, 120
4, 22560, Note_off_c, 4, 73, 64
4, 22800, Note_on_c, 4, 74, 120
4, 23280, Note_off_c, 4, 74, 64
4, 23280, Note_on_c, 4, 69, 120
4, 23520, Note_off_c, 4, 69, 64
4, 23520, Note_on_c, 4, 69, 120
4, 23760, Note_off_c, 4, 69, 64
4, 23760, Note_on_c, 4, 69, 120
4, 24480, Note_off_c, 4, 69, 64
4, 24720, Note_on_c, 4, 74, 120
4, 25440, Note_off_c, 4, 74, 64
4, 25440, Note_on_c, 4, 74, 120
4, 25680, Note_off_c, 4, 74, 64
4, 25680, Note_on_c, 4, 73, 120
4, 25920, Note_off_c, 4, 73, 64
4, 25920, Note_on_c, 4, 74, 120
4, 26160, Note_off_c, 4, 74, 64
4, 26160, Note_on_c, 4, 76, 120
4, 26400, Note_off_c, 4, 76, 64
4, 26400, Note_on_c, 4, 76, 120
4, 26640, Note_off_c, 4, 76, 64
4, 26640, Note_on_c, 4, 76, 120
4, 26880, Note_off_c, 4, 76, 64
4, 26880, Note_on_c, 4, 76, 120
4, 27360, Note_off_c, 4, 76, 64
4, 27360, Note_on_c, 4, 74, 120
4, 27840, Note_off_c, 4, 74, 64
4, 27840, Note_on_c, 4, 74, 120
4, 28080, Note_off_c, 4, 74, 64
4, 28320, Note_on_c, 4, 69, 120
4, 28560, Note_off_c, 4, 69, 64
4, 28560, Note_on_c, 4, 69, 120
4, 29280, Note_off_c, 4, 69, 64
4, 32400, Note_on_c, 4, 74, 120
4, 33120, Note_off_c, 4, 74, 64
4, 33120, Note_on_c, 4, 74, 120
4, 33360, Note_off_c, 4, 74, 64
4, 33360, Note_on_c, 4, 73, 120
4, 33600, Note_off_c, 4, 73, 64
4, 33600, Note_on_c, 4, 74, 120
4, 33840, Note_off_c, 4, 74, 64
4, 33840, Note_on_c, 4, 74, 120
4, 34080, Note_off_c, 4, 74, 64
4, 34320, Note_on_c, 4, 73, 120
4, 34560, Note_off_c, 4, 73, 64
4, 34560, Note_on_c, 4, 74, 120
4, 34800, Note_off_c, 4, 74, 64
4, 34800, Note_on_c, 4, 74, 120
4, 35040, Note_off_c, 4, 74, 64
4, 35040, Note_on_c, 4, 74, 120
4, 35280, Note_off_c, 4, 74, 64
4, 35280, Note_on_c, 4, 76, 120
4, 36000, Note_off_c, 4, 76, 64
4, 36240, Note_on_c, 4, 74, 120
4, 36480, Note_off_c, 4, 74, 64
4, 36480, Note_on_c, 4, 76, 120
4, 36720, Note_off_c, 4, 76, 64
4, 36720, Note_on_c, 4, 73, 120
4, 36960, Note_off_c, 4, 73, 64
4, 36960, Note_on_c, 4, 74, 120
4, 37200, Note_off_c, 4, 74, 64
4, 37200, Note_on_c, 4, 73, 120
4, 37440, Note_off_c, 4, 73, 64
4, 37440, Note_on_c, 4, 74, 120
4, 37680, Note_off_c, 4, 74, 64
4, 37680, Note_on_c, 4, 73, 120
4, 37920, Note_off_c, 4, 73, 64
4, 37920, Note_on_c, 4, 74, 120
4, 38160, Note_off_c, 4, 74, 64
4, 38160, Note_on_c, 4, 73, 120
4, 38400, Note_off_c, 4, 73, 64
4, 38400, Note_on_c, 4, 74, 120
4, 38640, Note_off_c, 4, 74, 64
4, 38640, Note_on_c, 4, 73, 120
4, 38880, Note_off_c, 4, 73, 64
4, 38880, Note_on_c, 4, 69, 120
4, 39120, Note_off_c, 4, 69, 64
4, 39120, Note_on_c, 4, 69, 120
4, 39840, Note_off_c, 4, 69, 64
4, 40080, Note_on_c, 4, 73, 120
4, 40320, Note_off_c, 4, 73, 64
4, 40320, Note_on_c, 4, 74, 120
4, 40560, Note_off_c, 4, 74, 64
4, 40560, Note_on_c, 4, 73, 120
4, 40800, Note_off_c, 4, 73, 64
4, 40800, Note_on_c, 4, 74, 120
4, 41040, Note_off_c, 4, 74, 64
4, 41040, Note_on_c, 4, 73, 120
4, 41280, Note_off_c, 4, 73, 64
4, 41280, Note_on_c, 4, 74, 120
4, 41520, Note_off_c, 4, 74, 64
4, 41520, Note_on_c, 4, 73, 120
4, 41760, Note_off_c, 4, 73, 64
4, 41760, Note_on_c, 4, 74, 120
4, 42000, Note_off_c, 4, 74, 64
4, 42000, Note_on_c, 4, 73, 120
4, 42240, Note_off_c, 4, 73, 64
4, 42240, Note_on_c, 4, 74, 120
4, 42720, Note_off_c, 4, 74, 64
4, 42720, Note_on_c, 4, 73, 120
4, 42960, Note_off_c, 4, 73, 64
4, 42960, Note_on_c, 4, 76, 120
4, 43440, Note_off_c, 4, 76, 64
4, 43440, Note_on_c, 4, 76, 120
4, 43680, Note_off_c, 4, 76, 64
4, 43680, Note_on_c, 4, 74, 120
4, 43920, Note_off_c, 4, 74, 64
4, 43920, Note_on_c, 4, 73, 120
4, 44160, Note_off_c, 4, 73, 64
4, 44160, Note_on_c, 4, 76, 120
4, 44640, Note_off_c, 4, 76, 64
4, 44640, Note_on_c, 4, 76, 120
4, 44880, Note_off_c, 4, 76, 64
4, 44880, Note_on_c, 4, 74, 120
4, 45120, Note_off_c, 4, 74, 64
4, 45120, Note_on_c, 4, 76, 120
4, 45360, Note_off_c, 4, 76, 64
4, 45360, Note_on_c, 4, 76, 120
4, 45600, Note_off_c, 4, 76, 64
4, 45600, Note_on_c, 4, 76, 120
4, 45840, Note_off_c, 4, 76, 64
4, 45840, Note_on_c, 4, 80, 120
4, 46320, Note_off_c, 4, 80, 64
4, 46320, Note_on_c, 4, 76, 120
4, 46560, Note_off_c, 4, 76, 64
4, 46560, Note_on_c, 4, 76, 120
4, 46800, Note_off_c, 4, 76, 64
4, 46800, Note_on_c, 4, 76, 120
4, 47040, Note_off_c, 4, 76, 64
4, 48000, Note_on_c, 4, 74, 120
4, 48240, Note_off_c, 4, 74, 64
4, 48240, Note_on_c, 4, 73, 120
4, 48480, Note_off_c, 4, 73, 64
4, 48480, Note_on_c, 4, 74, 120
4, 48720, Note_off_c, 4, 74, 64
4, 48720, Note_on_c, 4, 73, 120
4, 48960, Note_off_c, 4, 73, 64
4, 48960, Note_on_c, 4, 74, 120
4, 49200, Note_off_c, 4, 74, 64
4, 49200, Note_on_c, 4, 73, 120
4, 49440, Note_off_c, 4, 73, 64
4, 49440, Note_on_c, 4, 74, 120
4, 49680, Note_off_c, 4, 74, 64
4, 49680, Note_on_c, 4, 73, 120
4, 49920, Note_off_c, 4, 73, 64
4, 49920, Note_on_c, 4, 74, 120
4, 50400, Note_off_c, 4, 74, 64
4, 50400, Note_on_c, 4, 73, 120
4, 50640, Note_off_c, 4, 73, 64
4, 50640, Note_on_c, 4, 74, 120
4, 51360, Note_off_c, 4, 74, 64
4, 51600, Note_on_c, 4, 76, 120
4, 52080, Note_off_c, 4, 76, 64
4, 52080, Note_on_c, 4, 76, 120
4, 52320, Note_off_c, 4, 76, 64
4, 52320, Note_on_c, 4, 74, 120
4, 52560, Note_off_c, 4, 74, 64
4, 52560, Note_on_c, 4, 73, 120
4, 52800, Note_off_c, 4, 73, 64
4, 52800, Note_on_c, 4, 74, 120
4, 53040, Note_off_c, 4, 74, 64
4, 53040, Note_on_c, 4, 73, 120
4, 53280, Note_off_c, 4, 73, 64
4, 53280, Note_on_c, 4, 73, 120
4, 53520, Note_off_c, 4, 73, 64
4, 53520, Note_on_c, 4, 74, 120
4, 54000, Note_off_c, 4, 74, 64
4, 54000, Note_on_c, 4, 69, 120
4, 54240, Note_off_c, 4, 69, 64
4, 54240, Note_on_c, 4, 69, 120
4, 54480, Note_off_c, 4, 69, 64
4, 54480, Note_on_c, 4, 68, 120
4, 54720, Note_off_c, 4, 68, 64
4, 54720, Note_on_c, 4, 69, 120
4, 55200, Note_off_c, 4, 69, 64
4, 55680, Note_on_c, 4, 74, 120
4, 55920, Note_off_c, 4, 74, 64
4, 55920, Note_on_c, 4, 73, 120
4, 56160, Note_off_c, 4, 73, 64
4, 56160, Note_on_c, 4, 74, 120
4, 56400, Note_off_c, 4, 74, 64
4, 56400, Note_on_c, 4, 73, 120
4, 56640, Note_off_c, 4, 73, 64
4, 56640, Note_on_c, 4, 74, 120
4, 56880, Note_off_c, 4, 74, 64
4, 56880, Note_on_c, 4, 73, 120
4, 57120, Note_off_c, 4, 73, 64
4, 57120, Note_on_c, 4, 74, 120
4, 57360, Note_off_c, 4, 74, 64
4, 57360, Note_on_c, 4, 73, 120
4, 57600, Note_off_c, 4, 73, 64
4, 57600, Note_on_c, 4, 74, 120
4, 57840, Note_off_c, 4, 74, 64
4, 57840, Note_on_c, 4, 73, 120
4, 58080, Note_off_c, 4, 73, 64
4, 58080, Note_on_c, 4, 74, 120
4, 58320, Note_off_c, 4, 74, 64
4, 58320, Note_on_c, 4, 73, 120
4, 58560, Note_off_c, 4, 73, 64
4, 58560, Note_on_c, 4, 76, 120
4, 59040, Note_off_c, 4, 76, 64
4, 59280, Note_on_c, 4, 76, 120
4, 59760, Note_off_c, 4, 76, 64
4, 59760, Note_on_c, 4, 76, 120
4, 60000, Note_off_c, 4, 76, 64
4, 60000, Note_on_c, 4, 76, 120
4, 60480, Note_off_c, 4, 76, 64
4, 60480, Note_on_c, 4, 76, 120
4, 60720, Note_off_c, 4, 76, 64
4, 60720, Note_on_c, 4, 76, 120
4, 60960, Note_off_c, 4, 76, 64
4, 60960, Note_on_c, 4, 76, 120
4, 61200, Note_off_c, 4, 76, 64
4, 61200, Note_on_c, 4, 79, 120
4, 61920, Note_off_c, 4, 79, 64
4, 61920, Note_on_c, 4, 76, 120
4, 62160, Note_off_c, 4, 76, 64
4, 62160, Note_on_c, 4, 76, 120
4, 62640, Note_off_c, 4, 76, 64
4, 62640, Note_on_c, 4, 69, 120
4, 63120, Note_off_c, 4, 69, 64
4, 63120, Note_on_c, 4, 68, 120
4, 63360, Note_off_c, 4, 68, 64
4, 63360, Note_on_c, 4, 69, 120
4, 63840, Note_off_c, 4, 69, 64
4, 63840, Note_on_c, 4, 69, 120
4, 64320, Note_off_c, 4, 69, 64
4, 64320, Note_on_c, 4, 69, 120
4, 64560, Note_off_c, 4, 69, 64
4, 64560, Note_on_c, 4, 69, 120
4, 64800, Note_off_c, 4, 69, 64
4, 66480, Note_on_c, 4, 69, 120
4, 66720, Note_off_c, 4, 69, 64
4, 66720, Note_on_c, 4, 69, 120
4, 66960, Note_off_c, 4, 69, 64
4, 66960, Note_on_c, 4, 68, 120
4, 67200, Note_off_c, 4, 68, 64
4, 67200, Note_on_c, 4, 69, 120
4, 67680, Note_off_c, 4, 69, 64
4, 67680, Note_on_c, 4, 69, 120
4, 68160, Note_off_c, 4, 69, 64
4, 68160, Note_on_c, 4, 69, 120
4, 68400, Note_off_c, 4, 69, 64
4, 68400, Note_on_c, 4, 62, 120
4, 68640, Note_off_c, 4, 62, 64
4, 70320, Note_on_c, 4, 68, 120
4, 70560, Note_off_c, 4, 68, 64
4, 70560, Note_on_c, 4, 69, 120
4, 70800, Note_off_c, 4, 69, 64
4, 70800, Note_on_c, 4, 68, 120
4, 71040, Note_off_c, 4, 68, 64
4, 71040, Note_on_c, 4, 69, 120
4, 71520, Note_off_c, 4, 69, 64
4, 71520, Note_on_c, 4, 69, 120
4, 72000, Note_off_c, 4, 69, 64
4, 72000, Note_on_c, 4, 69, 120
4, 72240, Note_off_c, 4, 69, 64
4, 72240, Note_on_c, 4, 69, 120
4, 72480, Note_off_c, 4, 69, 64
4, 74160, Note_on_c, 4, 76, 120
4, 74640, Note_off_c, 4, 76, 64
4, 74640, Note_on_c, 4, 74, 120
4, 74880, Note_off_c, 4, 74, 64
4, 74880, Note_on_c, 4, 76, 120
4, 75360, Note_off_c, 4, 76, 64
4, 75360, Note_on_c, 4, 74, 120
4, 75840, Note_off_c, 4, 74, 64
4, 75840, Note_on_c, 4, 74, 120
4, 76320, Note_off_c, 4, 74, 64
4, 76320, Note_on_c, 4, 69, 120
4, 76560, Note_off_c, 4, 69, 64
4, 76560, Note_on_c, 4, 69, 120
4, 77280, Note_off_c, 4, 69, 64
4, 147840, Note_on_c, 4, 74, 120
4, 148080, Note_off_c, 4, 74, 64
4, 148080, Note_on_c, 4, 73, 120
4, 148320, Note_off_c, 4, 73, 64
4, 148320, Note_on_c, 4, 74, 120
4, 148560, Note_off_c, 4, 74, 64
4, 148560, Note_on_c, 4, 73, 120
4, 148800, Note_off_c, 4, 73, 64
4, 148800, Note_on_c, 4, 74, 120
4, 149040, Note_off_c, 4, 74, 64
4, 149040, Note_on_c, 4, 73, 120
4, 149280, Note_off_c, 4, 73, 64
4, 149280, Note_on_c, 4, 74, 120
4, 149520, Note_off_c, 4, 74, 64
4, 149520, Note_on_c, 4, 73, 120
4, 149760, Note_off_c, 4, 73, 64
4, 149760, Note_on_c, 4, 74, 120
4, 150240, Note_off_c, 4, 74, 64
4, 150240, Note_on_c, 4, 73, 120
4, 150480, Note_off_c, 4, 73, 64
4, 150480, Note_on_c, 4, 74, 120
4, 151200, Note_off_c, 4, 74, 64
4, 151440, Note_on_c, 4, 76, 120
4, 151920, Note_off_c, 4, 76, 64
4, 151920, Note_on_c, 4, 76, 120
4, 152160, Note_off_c, 4, 76, 64
4, 152160, Note_on_c, 4, 74, 120
4, 152400, Note_off_c, 4, 74, 64
4, 152400, Note_on_c, 4, 73, 120
4, 152640, Note_off_c, 4, 73, 64
4, 152640, Note_on_c, 4, 74, 120
4, 152880, Note_off_c, 4, 74, 64
4, 152880, Note_on_c, 4, 73, 120
4, 153120, Note_off_c, 4, 73, 64
4, 153120, Note_on_c, 4, 73, 120
4, 153360, Note_off_c, 4, 73, 64
4, 153360, Note_on_c, 4, 74, 120
4, 153840, Note_off_c, 4, 74, 64
4, 153840, Note_on_c, 4, 69, 120
4, 154080, Note_off_c, 4, 69, 64
4, 154080, Note_on_c, 4, 69, 120
4, 154320, Note_off_c, 4, 69, 64
4, 154320, Note_on_c, 4, 68, 120
4, 154560, Note_off_c, 4, 68, 64
4, 154560, Note_on_c, 4, 69, 120
4, 155040, Note_off_c, 4, 69, 64
4, 155520, Note_on_c, 4, 74, 120
4, 155760, Note_off_c, 4, 74, 64
4, 155760, Note_on_c, 4, 73, 120
4, 156000, Note_off_c, 4, 73, 64
4, 156000, Note_on_c, 4, 74, 120
4, 156240, Note_off_c, 4, 74, 64
4, 156240, Note_on_c, 4, 73, 120
4, 156480, Note_off_c, 4, 73, 64
4, 156480, Note_on_c, 4, 74, 120
4, 156720, Note_off_c, 4, 74, 64
4, 156720, Note_on_c, 4, 73, 120
4, 156960, Note_off_c, 4, 73, 64
4, 156960, Note_on_c, 4, 74, 120
4, 157200, Note_off_c, 4, 74, 64
4, 157200, Note_on_c, 4, 73, 120
4, 157440, Note_off_c, 4, 73, 64
4, 157440, Note_on_c, 4, 74, 120
4, 157680, Note_off_c, 4, 74, 64
4, 157680, Note_on_c, 4, 73, 120
4, 157920, Note_off_c, 4, 73, 64
4, 157920, Note_on_c, 4, 74, 120
4, 158160, Note_off_c, 4, 74, 64
4, 158160, Note_on_c, 4, 73, 120
4, 158400, Note_off_c, 4, 73, 64
4, 158400, Note_on_c, 4, 76, 120
4, 158880, Note_off_c, 4, 76, 64
4, 159120, Note_on_c, 4, 76, 120
4, 159600, Note_off_c, 4, 76, 64
4, 159600, Note_on_c, 4, 76, 120
4, 159840, Note_off_c, 4, 76, 64
4, 159840, Note_on_c, 4, 76, 120
4, 160320, Note_off_c, 4, 76, 64
4, 160320, Note_on_c, 4, 76, 120
4, 160560, Note_off_c, 4, 76, 64
4, 160560, Note_on_c, 4, 76, 120
4, 160800, Note_off_c, 4, 76, 64
4, 160800, Note_on_c, 4, 76, 120
4, 161040, Note_off_c, 4, 76, 64
4, 161040, Note_on_c, 4, 79, 120
4, 161760, Note_off_c, 4, 79, 64
4, 161760, Note_on_c, 4, 76, 120
4, 162000, Note_off_c, 4, 76, 64
4, 162000, Note_on_c, 4, 76, 120
4, 162480, Note_off_c, 4, 76, 64
4, 162480, Note_on_c, 4, 69, 120
4, 162960, Note_off_c, 4, 69, 64
4, 162960, Note_on_c, 4, 68, 120
4, 163200, Note_off_c, 4, 68, 64
4, 163200, Note_on_c, 4, 69, 120
4, 163680, Note_off_c, 4, 69, 64
4, 163680, Note_on_c, 4, 69, 120
4, 164160, Note_off_c, 4, 69, 64
4, 164160, Note_on_c, 4, 69, 120
4, 164400, Note_off_c, 4, 69, 64
4, 164400, Note_on_c, 4, 69, 120
4, 164640, Note_off_c, 4, 69, 64
4, 166320, Note_on_c, 4, 69, 120
4, 166560, Note_off_c, 4, 69, 64
4, 166560, Note_on_c, 4, 69, 120
4, 166800, Note_off_c, 4, 69, 64
4, 166800, Note_on_c, 4, 68, 120
4, 167040, Note_off_c, 4, 68, 64
4, 167040, Note_on_c, 4, 69, 120
4, 167520, Note_off_c, 4, 69, 64
4, 167520, Note_on_c, 4, 69, 120
4, 168000, Note_off_c, 4, 69, 64
4, 168000, Note_on_c, 4, 69, 120
4, 168240, Note_off_c, 4, 69, 64
4, 168240, Note_on_c, 4, 62, 120
4, 168480, Note_off_c, 4, 62, 64
4, 170160, Note_on_c, 4, 68, 120
4, 170400, Note_off_c, 4, 68, 64
4, 170400, Note_on_c, 4, 69, 120
4, 170640, Note_off_c, 4, 69, 64
4, 170640, Note_on_c, 4, 68, 120
4, 170880, Note_off_c, 4, 68, 64
4, 170880, Note_on_c, 4, 69, 120
4, 171360, Note_off_c, 4, 69, 64
4, 171360, Note_on_c, 4, 69, 120
4, 171840, Note_off_c, 4, 69, 64
4, 171840, Note_on_c, 4, 69, 120
4, 172080, Note_off_c, 4, 69, 64
4, 172080, Note_on_c, 4, 69, 120
4, 172320, Note_off_c, 4, 69, 64
4, 174000, Note_on_c, 4, 76, 120
4, 174480, Note_off_c, 4, 76, 64
4, 174480, Note_on_c, 4, 74, 120
4, 174720, Note_off_c, 4, 74, 64
4, 174720, Note_on_c, 4, 76, 120
4, 175200, Note_off_c, 4, 76, 64
4, 175200, Note_on_c, 4, 74, 120
4, 175680, Note_off_c, 4, 74, 64
4, 175680, Note_on_c, 4, 74, 120
4, 176160, Note_off_c, 4, 74, 64
4, 176160, Note_on_c, 4, 69, 120
4, 176400, Note_off_c, 4, 69, 64
4, 176400, Note_on_c, 4, 69, 120
4, 177120, Note_off_c, 4, 69, 64
4, 177120, End_track
5, 0, Start_track
5, 0, Title_t, "Guitar"
5, 0, MIDI_port, 0
5, 0, Channel_prefix, 3
5, 0, Control_c, 3, 7, 109
5, 0, Control_c, 3, 10, 64
5, 0, Program_c, 3, 29
5, 45, Pitch_bend_c, 3, 8282
5, 45, Control_c, 3, 121, 0
5, 46, Control_c, 3, 91, 90
5, 48, Control_c, 3, 93, 80
5, 49, Control_c, 3, 2, 127
5, 53, Control_c, 3, 11, 127
5, 1200, Note_on_c, 3, 76, 100
5, 1200, Note_on_c, 3, 71, 100
5, 1440, Note_off_c, 3, 71, 64
5, 1440, Note_off_c, 3, 76, 64
5, 1440, Note_on_c, 3, 76, 100
5, 1440, Note_on_c, 3, 71, 100
5, 1680, Note_off_c, 3, 71, 64
5, 1680, Note_off_c, 3, 76, 64
5, 1680, Note_on_c, 3, 76, 100
5, 1680, Note_on_c, 3, 71, 100
5, 1920, Note_off_c, 3, 71, 64
5, 1920, Note_off_c, 3, 76, 64
5, 1920, Note_on_c, 3, 76, 100
5, 1920, Note_on_c, 3, 71, 100
5, 2160, Note_off_c, 3, 71, 64
5, 2160, Note_off_c, 3, 76, 64
5, 2160, Note_on_c, 3, 76, 100
5, 2160, Note_on_c, 3, 71, 100
5, 2400, Note_off_c, 3, 71, 64
5, 2400, Note_off_c, 3, 76, 64
5, 2400, Note_on_c, 3, 76, 100
5, 2400, Note_on_c, 3, 71, 100
5, 2640, Note_off_c, 3, 71, 64
5, 2640, Note_off_c, 3, 76, 64
5, 2640, Note_on_c, 3, 76, 100
5, 2640, Note_on_c, 3, 71, 100
5, 2760, Note_on_c, 3, 72, 100
5, 2820, Note_off_c, 3, 72, 64
5, 2820, Note_on_c, 3, 73, 100
5, 2880, Note_off_c, 3, 71, 64
5, 2880, Note_off_c, 3, 76, 64
5, 2880, Note_off_c, 3, 73, 64
5, 2880, Note_on_c, 3, 80, 100
5, 2880, Note_on_c, 3, 74, 100
5, 3360, Note_off_c, 3, 74, 64
5, 3360, Note_off_c, 3, 80, 64
5, 3840, Note_on_c, 3, 74, 100
5, 3840, Note_on_c, 3, 69, 100
5, 4080, Note_off_c, 3, 69, 64
5, 4080, Note_off_c, 3, 74, 64
5, 4080, Note_on_c, 3, 74, 100
5, 4080, Note_on_c, 3, 69, 100
5, 4320, Note_off_c, 3, 69, 64
5, 4320, Note_off_c, 3, 74, 64
5, 4320, Note_on_c, 3, 74, 100
5, 4320, Note_on_c, 3, 69, 100
5, 4560, Note_off_c, 3, 69, 64
5, 4560, Note_off_c, 3, 74, 64
5, 4560, Note_on_c, 3, 74, 100
5, 4560, Note_on_c, 3, 69, 100
5, 4680, Note_on_c, 3, 71, 100
5, 4740, Note_off_c, 3, 71, 64
5, 4740, Note_on_c, 3, 72, 100
5, 4800, Note_off_c, 3, 69, 64
5, 4800, Note_off_c, 3, 74, 64
5, 4800, Note_off_c, 3, 72, 64
5, 4800, Note_on_c, 3, 76, 100
5, 4800, Note_on_c, 3, 73, 100
5, 5280, Note_off_c, 3, 73, 64
5, 5280, Note_off_c, 3, 76, 64
5, 5520, Note_on_c, 3, 69, 100
5, 5520, Note_on_c, 3, 64, 100
5, 6240, Note_off_c, 3, 64, 64
5, 6240, Note_off_c, 3, 69, 64
5, 6240, Note_on_c, 3, 57, 100
5, 6240, Note_on_c, 3, 63, 100
5, 6240, Note_on_c, 3, 66, 100
5, 6240, Note_on_c, 3, 72, 100
5, 6480, Note_off_c, 3, 72, 64
5, 6480, Note_off_c, 3, 66, 64
5, 6480, Note_off_c, 3, 63, 64
5, 6480, Note_off_c, 3, 57, 64
5, 6480, Note_on_c, 3, 57, 100
5, 6480, Note_on_c, 3, 63, 100
5, 6480, Note_on_c, 3, 66, 100
5, 6480, Note_on_c, 3, 72, 100
5, 6720, Note_off_c, 3, 72, 64
5, 6720, Note_off_c, 3, 66, 64
5, 6720, Note_off_c, 3, 63, 64
5, 6720, Note_off_c, 3, 57, 64
5, 6720, Note_on_c, 3, 57, 100
5, 6720, Note_on_c, 3, 63, 100
5, 6720, Note_on_c, 3, 66, 100
5, 6720, Note_on_c, 3, 72, 100
5, 6960, Note_off_c, 3, 72, 64
5, 6960, Note_off_c, 3, 66, 64
5, 6960, Note_off_c, 3, 63, 64
5, 6960, Note_off_c, 3, 57, 64
5, 6960, Note_on_c, 3, 57, 100
5, 6960, Note_on_c, 3, 63, 100
5, 6960, Note_on_c, 3, 66, 100
5, 6960, Note_on_c, 3, 72, 100
5, 7200, Note_off_c, 3, 72, 64
5, 7200, Note_off_c, 3, 66, 64
5, 7200, Note_off_c, 3, 63, 64
5, 7200, Note_off_c, 3, 57, 64
5, 7200, Note_on_c, 3, 57, 100
5, 7200, Note_on_c, 3, 63, 100
5, 7200, Note_on_c, 3, 66, 100
5, 7200, Note_on_c, 3, 72, 100
5, 7440, Note_off_c, 3, 72, 64
5, 7440, Note_off_c, 3, 66, 64
5, 7440, Note_off_c, 3, 63, 64
5, 7440, Note_off_c, 3, 57, 64
5, 7440, Note_on_c, 3, 57, 100
5, 7440, Note_on_c, 3, 63, 100
5, 7440, Note_on_c, 3, 66, 100
5, 7440, Note_on_c, 3, 72, 100
5, 7680, Note_off_c, 3, 72, 64
5, 7680, Note_off_c, 3, 66, 64
5, 7680, Note_off_c, 3, 63, 64
5, 7680, Note_off_c, 3, 57, 64
5, 7680, Note_on_c, 3, 64, 100
5, 7680, Note_on_c, 3, 69, 100
5, 7920, Note_off_c, 3, 69, 64
5, 7920, Note_off_c, 3, 64, 64
5, 7920, Note_on_c, 3, 52, 100
5, 7920, Note_on_c, 3, 56, 100
5, 7920, Note_on_c, 3, 62, 100
5, 7920, Note_on_c, 3, 64, 100
5, 8400, Note_off_c, 3, 64, 64
5, 8400, Note_off_c, 3, 62, 64
5, 8400, Note_off_c, 3, 56, 64
5, 8400, Note_off_c, 3, 52, 64
5, 8400, Note_on_c, 3, 52, 100
5, 8400, Note_on_c, 3, 56, 100
5, 8400, Note_on_c, 3, 62, 100
5, 8400, Note_on_c, 3, 64, 100
5, 8640, Note_off_c, 3, 64, 64
5, 8640, Note_off_c, 3, 62, 64
5, 8640, Note_off_c, 3, 56, 64
5, 8640, Note_off_c, 3, 52, 64
5, 8640, Note_on_c, 3, 52, 100
5, 8640, Note_on_c, 3, 56, 100
5, 8640, Note_on_c, 3, 62, 100
5, 8640, Note_on_c, 3, 64, 100
5, 8880, Note_off_c, 3, 64, 64
5, 8880, Note_off_c, 3, 62, 64
5, 8880, Note_off_c, 3, 56, 64
5, 8880, Note_off_c, 3, 52, 64
5, 8880, Note_on_c, 3, 52, 100
5, 8880, Note_on_c, 3, 56, 100
5, 8880, Note_on_c, 3, 62, 100
5, 8880, Note_on_c, 3, 64, 100
5, 9120, Note_off_c, 3, 64, 64
5, 9120, Note_off_c, 3, 62, 64
5, 9120, Note_off_c, 3, 56, 64
5, 9120, Note_off_c, 3, 52, 64
5, 9120, Note_on_c, 3, 52, 100
5, 9120, Note_on_c, 3, 56, 100
5, 9120, Note_on_c, 3, 62, 100
5, 9120, Note_on_c, 3, 64, 100
5, 9360, Note_off_c, 3, 64, 64
5, 9360, Note_off_c, 3, 62, 64
5, 9360, Note_off_c, 3, 56, 64
5, 9360, Note_off_c, 3, 52, 64
5, 9360, Note_on_c, 3, 52, 100
5, 9360, Note_on_c, 3, 56, 100
5, 9360, Note_on_c, 3, 62, 100
5, 9360, Note_on_c, 3, 64, 100
5, 9600, Note_off_c, 3, 64, 64
5, 9600, Note_off_c, 3, 62, 64
5, 9600, Note_off_c, 3, 56, 64
5, 9600, Note_off_c, 3, 52, 64
5, 9600, Note_on_c, 3, 52, 100
5, 9600, Note_on_c, 3, 45, 100
5, 9840, Note_off_c, 3, 45, 64
5, 9840, Note_off_c, 3, 52, 64
5, 9840, Note_on_c, 3, 52, 100
5, 9840, Note_on_c, 3, 45, 100
5, 10080, Note_off_c, 3, 45, 64
5, 10080, Note_off_c, 3, 52, 64
5, 10080, Note_on_c, 3, 54, 100
5, 10080, Note_on_c, 3, 45, 100
5, 10320, Note_off_c, 3, 45, 64
5, 10320, Note_off_c, 3, 54, 64
5, 10320, Note_on_c, 3, 52, 100
5, 10320, Note_on_c, 3, 45, 100
5, 10560, Note_off_c, 3, 45, 64
5, 10560, Note_off_c, 3, 52, 64
5, 10560, Note_on_c, 3, 55, 100
5, 10560, Note_on_c, 3, 45, 100
5, 10800, Note_off_c, 3, 45, 64
5, 10800, Note_off_c, 3, 55, 64
5, 10800, Note_on_c, 3, 55, 100
5, 10800, Note_on_c, 3, 45, 100
5, 11040, Note_off_c, 3, 45, 64
5, 11040, Note_off_c, 3, 55, 64
5, 11040, Note_on_c, 3, 54, 100
5, 11040, Note_on_c, 3, 45, 100
5, 11280, Note_off_c, 3, 45, 64
5, 11280, Note_off_c, 3, 54, 64
5, 11280, Note_on_c, 3, 52, 100
5, 11280, Note_on_c, 3, 45, 100
5, 11520, Note_off_c, 3, 45, 64
5, 11520, Note_off_c, 3, 52, 64
5, 11520, Note_on_c, 3, 55, 100
5, 11520, Note_on_c, 3, 45, 100
5, 11760, Note_off_c, 3, 45, 64
5, 11760, Note_off_c, 3, 55, 64
5, 11760, Note_on_c, 3, 55, 100
5, 11760, Note_on_c, 3, 45, 100
5, 12000, Note_off_c, 3, 45, 64
5, 12000, Note_off_c, 3, 55, 64
5, 12000, Note_on_c, 3, 54, 100
5, 12000, Note_on_c, 3, 45, 100
5, 12240, Note_off_c, 3, 45, 64
5, 12240, Note_off_c, 3, 54, 64
5, 12240, Note_on_c, 3, 52, 100
5, 12240, Note_on_c, 3, 45, 100
5, 12480, Note_off_c, 3, 45, 64
5, 12480, Note_off_c, 3, 52, 64
5, 12480, Note_on_c, 3, 55, 100
5, 12480, Note_on_c, 3, 45, 100
5, 12720, Note_off_c, 3, 45, 64
5, 12720, Note_off_c, 3, 55, 64
5, 12720, Note_on_c, 3, 55, 100
5, 12720, Note_on_c, 3, 45, 100
5, 12960, Note_off_c, 3, 45, 64
5, 12960, Note_off_c, 3, 55, 64
5, 12960, Note_on_c, 3, 54, 100
5, 12960, Note_on_c, 3, 45, 100
5, 13200, Note_off_c, 3, 45, 64
5, 13200, Note_off_c, 3, 54, 64
5, 13200, Note_on_c, 3, 55, 100
5, 13200, Note_on_c, 3, 45, 100
5, 13680, Note_off_c, 3, 45, 64
5, 13680, Note_off_c, 3, 55, 64
5, 13680, Note_on_c, 3, 55, 100
5, 13680, Note_on_c, 3, 45, 100
5, 13920, Note_off_c, 3, 45, 64
5, 13920, Note_off_c, 3, 55, 64
5, 13920, Note_on_c, 3, 54, 100
5, 13920, Note_on_c, 3, 45, 100
5, 14160, Note_off_c, 3, 45, 64
5, 14160, Note_off_c, 3, 54, 64
5, 14160, Note_on_c, 3, 52, 100
5, 14160, Note_on_c, 3, 45, 100
5, 14400, Note_off_c, 3, 45, 64
5, 14400, Note_off_c, 3, 52, 64
5, 14400, Note_on_c, 3, 55, 100
5, 14400, Note_on_c, 3, 45, 100
5, 14640, Note_off_c, 3, 45, 64
5, 14640, Note_off_c, 3, 55, 64
5, 14640, Note_on_c, 3, 55, 100
5, 14640, Note_on_c, 3, 45, 100
5, 14880, Note_off_c, 3, 45, 64
5, 14880, Note_off_c, 3, 55, 64
5, 14880, Note_on_c, 3, 54, 100
5, 14880, Note_on_c, 3, 45, 100
5, 15120, Note_off_c, 3, 45, 64
5, 15120, Note_off_c, 3, 54, 64
5, 15120, Note_on_c, 3, 52, 100
5, 15120, Note_on_c, 3, 45, 100
5, 15360, Note_off_c, 3, 45, 64
5, 15360, Note_off_c, 3, 52, 64
5, 15360, Note_on_c, 3, 55, 100
5, 15360, Note_on_c, 3, 45, 100
5, 15600, Note_off_c, 3, 45, 64
5, 15600, Note_off_c, 3, 55, 64
5, 15600, Note_on_c, 3, 55, 100
5, 15600, Note_on_c, 3, 45, 100
5, 15840, Note_off_c, 3, 45, 64
5, 15840, Note_off_c, 3, 55, 64
5, 15840, Note_on_c, 3, 54, 100
5, 15840, Note_on_c, 3, 45, 100
5, 16080, Note_off_c, 3, 45, 64
5, 16080, Note_off_c, 3, 54, 64
5, 16080, Note_on_c, 3, 52, 100
5, 16080, Note_on_c, 3, 45, 100
5, 16320, Note_off_c, 3, 45, 64
5, 16320, Note_off_c, 3, 52, 64
5, 16320, Note_on_c, 3, 55, 100
5, 16320, Note_on_c, 3, 45, 100
5, 16560, Note_off_c, 3, 45, 64
5, 16560, Note_off_c, 3, 55, 64
5, 16560, Note_on_c, 3, 55, 100
5, 16560, Note_on_c, 3, 45, 100
5, 16800, Note_off_c, 3, 45, 64
5, 16800, Note_off_c, 3, 55, 64
5, 16800, Note_on_c, 3, 54, 100
5, 16800, Note_on_c, 3, 45, 100
5, 17040, Note_off_c, 3, 45, 64
5, 17040, Note_off_c, 3, 54, 64
5, 17040, Note_on_c, 3, 49, 100
5, 17040, Note_on_c, 3, 56, 100
5, 17220, Note_on_c, 3, 50, 100
5, 17220, Note_on_c, 3, 57, 100
5, 17280, Note_off_c, 3, 57, 64
5, 17280, Note_off_c, 3, 50, 64
5, 17280, Note_off_c, 3, 56, 64
5, 17280, Note_off_c, 3, 49, 64
5, 17280, Note_on_c, 3, 57, 100
5, 17280, Note_on_c, 3, 50, 100
5, 17520, Note_off_c, 3, 50, 64
5, 17520, Note_off_c, 3, 57, 64
5, 17520, Note_on_c, 3, 57, 100
5, 17520, Note_on_c, 3, 50, 100
5, 17760, Note_off_c, 3, 50, 64
5, 17760, Note_off_c, 3, 57, 64
5, 17760, Note_on_c, 3, 59, 100
5, 17760, Note_on_c, 3, 50, 100
5, 18000, Note_off_c, 3, 50, 64
5, 18000, Note_off_c, 3, 59, 64
5, 18000, Note_on_c, 3, 56, 100
5, 18000, Note_on_c, 3, 50, 100
5, 18240, Note_off_c, 3, 50, 64
5, 18240, Note_off_c, 3, 56, 64
5, 18240, Note_on_c, 3, 60, 100
5, 18240, Note_on_c, 3, 50, 100
5, 18480, Note_off_c, 3, 50, 64
5, 18480, Note_off_c, 3, 60, 64
5, 18480, Note_on_c, 3, 60, 100
5, 18480, Note_on_c, 3, 50, 100
5, 18720, Note_off_c, 3, 50, 64
5, 18720, Note_off_c, 3, 60, 64
5, 18720, Note_on_c, 3, 59, 100
5, 18720, Note_on_c, 3, 50, 100
5, 18960, Note_off_c, 3, 50, 64
5, 18960, Note_off_c, 3, 59, 64
5, 18960, Note_on_c, 3, 57, 100
5, 18960, Note_on_c, 3, 50, 100
5, 19200, Note_off_c, 3, 50, 64
5, 19200, Note_off_c, 3, 57, 64
5, 19200, Note_on_c, 3, 60, 100
5, 19200, Note_on_c, 3, 50, 100
5, 19440, Note_off_c, 3, 50, 64
5, 19440, Note_off_c, 3, 60, 64
5, 19440, Note_on_c, 3, 60, 100
5, 19440, Note_on_c, 3, 50, 100
5, 19680, Note_off_c, 3, 50, 64
5, 19680, Note_off_c, 3, 60, 64
5, 19680, Note_on_c, 3, 59, 100
5, 19680, Note_on_c, 3, 50, 100
5, 19920, Note_off_c, 3, 50, 64
5, 19920, Note_off_c, 3, 59, 64
5, 19920, Note_on_c, 3, 57, 100
5, 19920, Note_on_c, 3, 50, 100
5, 20160, Note_off_c, 3, 50, 64
5, 20160, Note_off_c, 3, 57, 64
5, 20160, Note_on_c, 3, 60, 100
5, 20160, Note_on_c, 3, 50, 100
5, 20400, Note_off_c, 3, 50, 64
5, 20400, Note_off_c, 3, 60, 64
5, 20400, Note_on_c, 3, 60, 100
5, 20400, Note_on_c, 3, 50, 100
5, 20640, Note_off_c, 3, 50, 64
5, 20640, Note_off_c, 3, 60, 64
5, 20640, Note_on_c, 3, 59, 100
5, 20640, Note_on_c, 3, 50, 100
5, 20880, Note_off_c, 3, 50, 64
5, 20880, Note_off_c, 3, 59, 64
5, 20880, Note_on_c, 3, 44, 100
5, 20880, Note_on_c, 3, 51, 100
5, 21120, Note_off_c, 3, 51, 64
5, 21120, Note_off_c, 3, 44, 64
5, 21120, Note_on_c, 3, 52, 100
5, 21120, Note_on_c, 3, 45, 100
5, 21360, Note_off_c, 3, 45, 64
5, 21360, Note_off_c, 3, 52, 64
5, 21360, Note_on_c, 3, 52, 100
5, 21360, Note_on_c, 3, 45, 100
5, 21600, Note_off_c, 3, 45, 64
5, 21600, Note_off_c, 3, 52, 64
5, 21600, Note_on_c, 3, 54, 100
5, 21600, Note_on_c, 3, 45, 100
5, 21840, Note_off_c, 3, 45, 64
5, 21840, Note_off_c, 3, 54, 64
5, 21840, Note_on_c, 3, 52, 100
5, 21840, Note_on_c, 3, 45, 100
5, 22080, Note_off_c, 3, 45, 64
5, 22080, Note_off_c, 3, 52, 64
5, 22080, Note_on_c, 3, 55, 100
5, 22080, Note_on_c, 3, 45, 100
5, 22320, Note_off_c, 3, 45, 64
5, 22320, Note_off_c, 3, 55, 64
5, 22320, Note_on_c, 3, 55, 100
5, 22320, Note_on_c, 3, 45, 100
5, 22560, Note_off_c, 3, 45, 64
5, 22560, Note_off_c, 3, 55, 64
5, 22560, Note_on_c, 3, 54, 100
5, 22560, Note_on_c, 3, 45, 100
5, 22800, Note_off_c, 3, 45, 64
5, 22800, Note_off_c, 3, 54, 64
5, 22800, Note_on_c, 3, 52, 100
5, 22800, Note_on_c, 3, 45, 100
5, 23040, Note_off_c, 3, 45, 64
5, 23040, Note_off_c, 3, 52, 64
5, 23040, Note_on_c, 3, 55, 100
5, 23040, Note_on_c, 3, 45, 100
5, 23280, Note_off_c, 3, 45, 64
5, 23280, Note_off_c, 3, 55, 64
5, 23280, Note_on_c, 3, 55, 100
5, 23280, Note_on_c, 3, 45, 100
5, 23520, Note_off_c, 3, 45, 64
5, 23520, Note_off_c, 3, 55, 64
5, 23520, Note_on_c, 3, 54, 100
5, 23520, Note_on_c, 3, 45, 100
5, 23760, Note_off_c, 3, 45, 64
5, 23760, Note_off_c, 3, 54, 64
5, 23760, Note_on_c, 3, 52, 100
5, 23760, Note_on_c, 3, 45, 100
5, 24000, Note_off_c, 3, 45, 64
5, 24000, Note_off_c, 3, 52, 64
5, 24000, Note_on_c, 3, 55, 100
5, 24000, Note_on_c, 3, 45, 100
5, 24240, Note_off_c, 3, 45, 64
5, 24240, Note_off_c, 3, 55, 64
5, 24240, Note_on_c, 3, 55, 100
5, 24240, Note_on_c, 3, 45, 100
5, 24480, Note_off_c, 3, 45, 64
5, 24480, Note_off_c, 3, 55, 64
5, 24480, Note_on_c, 3, 54, 100
5, 24480, Note_on_c, 3, 45, 100
5, 24720, Note_off_c, 3, 45, 64
5, 24720, Note_off_c, 3, 54, 64
5, 24720, Note_on_c, 3, 55, 100
5, 24720, Note_on_c, 3, 45, 100
5, 24960, Note_off_c, 3, 45, 64
5, 24960, Note_off_c, 3, 55, 64
5, 24960, Note_on_c, 3, 52, 100
5, 25200, Note_off_c, 3, 52, 64
5, 25200, Note_on_c, 3, 52, 100
5, 25200, Note_on_c, 3, 56, 100
5, 25200, Note_on_c, 3, 62, 100
5, 25200, Note_on_c, 3, 64, 100
5, 25680, Note_off_c, 3, 64, 64
5, 25680, Note_off_c, 3, 62, 64
5, 25680, Note_off_c, 3, 56, 64
5, 25680, Note_off_c, 3, 52, 64
5, 25680, Note_on_c, 3, 52, 100
5, 25920, Note_off_c, 3, 52, 64
5, 25920, Note_on_c, 3, 52, 100
5, 25920, Note_on_c, 3, 56, 100
5, 25920, Note_on_c, 3, 62, 100
5, 25920, Note_on_c, 3, 64, 100
5, 26160, Note_off_c, 3, 64, 64
5, 26160, Note_off_c, 3, 62, 64
5, 26160, Note_off_c, 3, 56, 64
5, 26160, Note_off_c, 3, 52, 64
5, 26160, Note_on_c, 3, 52, 100
5, 26160, Note_on_c, 3, 56, 100
5, 26160, Note_on_c, 3, 62, 100
5, 26160, Note_on_c, 3, 64, 100
5, 26400, Note_off_c, 3, 64, 64
5, 26400, Note_off_c, 3, 62, 64
5, 26400, Note_off_c, 3, 56, 64
5, 26400, Note_off_c, 3, 52, 64
5, 26400, Note_on_c, 3, 52, 100
5, 26400, Note_on_c, 3, 56, 100
5, 26400, Note_on_c, 3, 62, 100
5, 26400, Note_on_c, 3, 64, 100
5, 26640, Note_off_c, 3, 64, 64
5, 26640, Note_off_c, 3, 62, 64
5, 26640, Note_off_c, 3, 56, 64
5, 26640, Note_off_c, 3, 52, 64
5, 26640, Note_on_c, 3, 52, 100
5, 26640, Note_on_c, 3, 56, 100
5, 26640, Note_on_c, 3, 62, 100
5, 26640, Note_on_c, 3, 64, 100
5, 26880, Note_off_c, 3, 64, 64
5, 26880, Note_off_c, 3, 62, 64
5, 26880, Note_off_c, 3, 56, 64
5, 26880, Note_off_c, 3, 52, 64
5, 26880, Note_on_c, 3, 52, 100
5, 27120, Note_off_c, 3, 52, 64
5, 27120, Note_on_c, 3, 52, 100
5, 27120, Note_on_c, 3, 56, 100
5, 27120, Note_on_c, 3, 62, 100
5, 27120, Note_on_c, 3, 64, 100
5, 27600, Note_off_c, 3, 64, 64
5, 27600, Note_off_c, 3, 62, 64
5, 27600, Note_off_c, 3, 56, 64
5, 27600, Note_off_c, 3, 52, 64
5, 27600, Note_on_c, 3, 52, 100
5, 27840, Note_off_c, 3, 52, 64
5, 27840, Note_on_c, 3, 52, 100
5, 27840, Note_on_c, 3, 56, 100
5, 27840, Note_on_c, 3, 62, 100
5, 27840, Note_on_c, 3, 64, 100
5, 28080, Note_off_c, 3, 64, 64
5, 28080, Note_off_c, 3, 62, 64
5, 28080, Note_off_c, 3, 56, 64
5, 28080, Note_off_c, 3, 52, 64
5, 28080, Note_on_c, 3, 52, 100
5, 28080, Note_on_c, 3, 56, 100
5, 28080, Note_on_c, 3, 62, 100
5, 28080, Note_on_c, 3, 64, 100
5, 28320, Note_off_c, 3, 64, 64
5, 28320, Note_off_c, 3, 62, 64
5, 28320, Note_off_c, 3, 56, 64
5, 28320, Note_off_c, 3, 52, 64
5, 28320, Note_on_c, 3, 52, 100
5, 28320, Note_on_c, 3, 56, 100
5, 28320, Note_on_c, 3, 62, 100
5, 28320, Note_on_c, 3, 64, 100
5, 28800, Note_off_c, 3, 64, 64
5, 28800, Note_off_c, 3, 62, 64
5, 28800, Note_off_c, 3, 56, 64
5, 28800, Note_off_c, 3, 52, 64
5, 28800, Note_on_c, 3, 52, 100
5, 28800, Note_on_c, 3, 45, 100
5, 29040, Note_off_c, 3, 45, 64
5, 29040, Note_off_c, 3, 52, 64
5, 29040, Note_on_c, 3, 52, 100
5, 29040, Note_on_c, 3, 45, 100
5, 29280, Note_off_c, 3, 45, 64
5, 29280, Note_off_c, 3, 52, 64
5, 29280, Note_on_c, 3, 54, 100
5, 29280, Note_on_c, 3, 45, 100
5, 29520, Note_off_c, 3, 45, 64
5, 29520, Note_off_c, 3, 54, 64
5, 29520, Note_on_c, 3, 52, 100
5, 29520, Note_on_c, 3, 45, 100
5, 29760, Note_off_c, 3, 45, 64
5, 29760, Note_off_c, 3, 52, 64
5, 29760, Note_on_c, 3, 55, 100
5, 29760, Note_on_c, 3, 45, 100
5, 30000, Note_off_c, 3, 45, 64
5, 30000, Note_off_c, 3, 55, 64
5, 30000, Note_on_c, 3, 55, 100
5, 30000, Note_on_c, 3, 45, 100
5, 30240, Note_off_c, 3, 45, 64
5, 30240, Note_off_c, 3, 55, 64
5, 30240, Note_on_c, 3, 54, 100
5, 30240, Note_on_c, 3, 45, 100
5, 30480, Note_off_c, 3, 45, 64
5, 30480, Note_off_c, 3, 54, 64
5, 30480, Note_on_c, 3, 52, 100
5, 30480, Note_on_c, 3, 45, 100
5, 30720, Note_off_c, 3, 45, 64
5, 30720, Note_off_c, 3, 52, 64
5, 30720, Note_on_c, 3, 56, 100
5, 30720, Note_on_c, 3, 52, 100
5, 30960, Note_off_c, 3, 52, 64
5, 30960, Note_off_c, 3, 56, 64
5, 30960, Note_on_c, 3, 52, 100
5, 30960, Note_on_c, 3, 56, 100
5, 30960, Note_on_c, 3, 62, 100
5, 30960, Note_on_c, 3, 64, 100
5, 31440, Note_off_c, 3, 64, 64
5, 31440, Note_off_c, 3, 62, 64
5, 31440, Note_off_c, 3, 56, 64
5, 31440, Note_off_c, 3, 52, 64
5, 31440, Note_on_c, 3, 52, 100
5, 31440, Note_on_c, 3, 56, 100
5, 31440, Note_on_c, 3, 62, 100
5, 31440, Note_on_c, 3, 64, 100
5, 31920, Note_off_c, 3, 64, 64
5, 31920, Note_off_c, 3, 62, 64
5, 31920, Note_off_c, 3, 56, 64
5, 31920, Note_off_c, 3, 52, 64
5, 31920, Note_on_c, 3, 52, 100
5, 31920, Note_on_c, 3, 56, 100
5, 31920, Note_on_c, 3, 62, 100
5, 31920, Note_on_c, 3, 64, 100
5, 32160, Note_off_c, 3, 64, 64
5, 32160, Note_off_c, 3, 62, 64
5, 32160, Note_off_c, 3, 56, 64
5, 32160, Note_off_c, 3, 52, 64
5, 32160, Note_on_c, 3, 52, 100
5, 32160, Note_on_c, 3, 56, 100
5, 32160, Note_on_c, 3, 62, 100
5, 32160, Note_on_c, 3, 64, 100
5, 32640, Note_off_c, 3, 64, 64
5, 32640, Note_off_c, 3, 62, 64
5, 32640, Note_off_c, 3, 56, 64
5, 32640, Note_off_c, 3, 52, 64
5, 32640, Note_on_c, 3, 57, 100
5, 32640, Note_on_c, 3, 50, 100
5, 32880, Note_off_c, 3, 50, 64
5, 32880, Note_off_c, 3, 57, 64
5, 32880, Note_on_c, 3, 57, 100
5, 32880, Note_on_c, 3, 50, 100
5, 33120, Note_off_c, 3, 50, 64
5, 33120, Note_off_c, 3, 57, 64
5, 33120, Note_on_c, 3, 59, 100
5, 33120, Note_on_c, 3, 50, 100
5, 33360, Note_off_c, 3, 50, 64
5, 33360, Note_off_c, 3, 59, 64
5, 33360, Note_on_c, 3, 56, 100
5, 33360, Note_on_c, 3, 50, 100
5, 33600, Note_off_c, 3, 50, 64
5, 33600, Note_off_c, 3, 56, 64
5, 33600, Note_on_c, 3, 60, 100
5, 33600, Note_on_c, 3, 50, 100
5, 33840, Note_off_c, 3, 50, 64
5, 33840, Note_off_c, 3, 60, 64
5, 33840, Note_on_c, 3, 60, 100
5, 33840, Note_on_c, 3, 50, 100
5, 34080, Note_off_c, 3, 50, 64
5, 34080, Note_off_c, 3, 60, 64
5, 34080, Note_on_c, 3, 59, 100
5, 34080, Note_on_c, 3, 50, 100
5, 34320, Note_off_c, 3, 50, 64
5, 34320, Note_off_c, 3, 59, 64
5, 34320, Note_on_c, 3, 57, 100
5, 34320, Note_on_c, 3, 50, 100
5, 34560, Note_off_c, 3, 50, 64
5, 34560, Note_off_c, 3, 57, 64
5, 34560, Note_on_c, 3, 60, 100
5, 34560, Note_on_c, 3, 50, 100
5, 34800, Note_off_c, 3, 50, 64
5, 34800, Note_off_c, 3, 60, 64
5, 34800, Note_on_c, 3, 57, 100
5, 34800, Note_on_c, 3, 50, 100
5, 35040, Note_off_c, 3, 50, 64
5, 35040, Note_off_c, 3, 57, 64
5, 35040, Note_on_c, 3, 59, 100
5, 35040, Note_on_c, 3, 50, 100
5, 35280, Note_off_c, 3, 50, 64
5, 35280, Note_off_c, 3, 59, 64
5, 35280, Note_on_c, 3, 57, 100
5, 35280, Note_on_c, 3, 50, 100
5, 35520, Note_off_c, 3, 50, 64
5, 35520, Note_off_c, 3, 57, 64
5, 35520, Note_on_c, 3, 60, 100
5, 35520, Note_on_c, 3, 50, 100
5, 35760, Note_off_c, 3, 50, 64
5, 35760, Note_off_c, 3, 60, 64
5, 35760, Note_on_c, 3, 57, 100
5, 35760, Note_on_c, 3, 50, 100
5, 36000, Note_off_c, 3, 50, 64
5, 36000, Note_off_c, 3, 57, 64
5, 36000, Note_on_c, 3, 59, 100
5, 36000, Note_on_c, 3, 50, 100
5, 36240, Note_off_c, 3, 50, 64
5, 36240, Note_off_c, 3, 59, 64
5, 36240, Note_on_c, 3, 44, 100
5, 36240, Note_on_c, 3, 51, 100
5, 36480, Note_off_c, 3, 51, 64
5, 36480, Note_off_c, 3, 44, 64
5, 36480, Note_on_c, 3, 52, 100
5, 36480, Note_on_c, 3, 45, 100
5, 36720, Note_off_c, 3, 45, 64
5, 36720, Note_off_c, 3, 52, 64
5, 36720, Note_on_c, 3, 52, 100
5, 36720, Note_on_c, 3, 45, 100
5, 36960, Note_off_c, 3, 45, 64
5, 36960, Note_off_c, 3, 52, 64
5, 36960, Note_on_c, 3, 54, 100
5, 36960, Note_on_c, 3, 45, 100
5, 37200, Note_off_c, 3, 45, 64
5, 37200, Note_off_c, 3, 54, 64
5, 37200, Note_on_c, 3, 52, 100
5, 37200, Note_on_c, 3, 45, 100
5, 37440, Note_off_c, 3, 45, 64
5, 37440, Note_off_c, 3, 52, 64
5, 37440, Note_on_c, 3, 55, 100
5, 37440, Note_on_c, 3, 45, 100
5, 37680, Note_off_c, 3, 45, 64
5, 37680, Note_off_c, 3, 55, 64
5, 37680, Note_on_c, 3, 52, 100
5, 37680, Note_on_c, 3, 45, 100
5, 37920, Note_off_c, 3, 45, 64
5, 37920, Note_off_c, 3, 52, 64
5, 37920, Note_on_c, 3, 54, 100
5, 37920, Note_on_c, 3, 45, 100
5, 38160, Note_off_c, 3, 45, 64
5, 38160, Note_off_c, 3, 54, 64
5, 38160, Note_on_c, 3, 52, 100
5, 38160, Note_on_c, 3, 45, 100
5, 38400, Note_off_c, 3, 45, 64
5, 38400, Note_off_c, 3, 52, 64
5, 38400, Note_on_c, 3, 55, 100
5, 38400, Note_on_c, 3, 45, 100
5, 38640, Note_off_c, 3, 45, 64
5, 38640, Note_off_c, 3, 55, 64
5, 38640, Note_on_c, 3, 52, 100
5, 38640, Note_on_c, 3, 45, 100
5, 38880, Note_off_c, 3, 45, 64
5, 38880, Note_off_c, 3, 52, 64
5, 38880, Note_on_c, 3, 54, 100
5, 38880, Note_on_c, 3, 45, 100
5, 39120, Note_off_c, 3, 45, 64
5, 39120, Note_off_c, 3, 54, 64
5, 39120, Note_on_c, 3, 52, 100
5, 39120, Note_on_c, 3, 45, 100
5, 39360, Note_off_c, 3, 45, 64
5, 39360, Note_off_c, 3, 52, 64
5, 39360, Note_on_c, 3, 55, 100
5, 39360, Note_on_c, 3, 45, 100
5, 39600, Note_off_c, 3, 45, 64
5, 39600, Note_off_c, 3, 55, 64
5, 39600, Note_on_c, 3, 52, 100
5, 39600, Note_on_c, 3, 45, 100
5, 39840, Note_off_c, 3, 45, 64
5, 39840, Note_off_c, 3, 52, 64
5, 39840, Note_on_c, 3, 54, 100
5, 39840, Note_on_c, 3, 45, 100
5, 40080, Note_off_c, 3, 45, 64
5, 40080, Note_off_c, 3, 54, 64
5, 40080, Note_on_c, 3, 49, 100
5, 40080, Note_on_c, 3, 55, 100
5, 40260, Note_on_c, 3, 50, 100
5, 40260, Note_on_c, 3, 56, 100
5, 40320, Note_off_c, 3, 56, 64
5, 40320, Note_off_c, 3, 50, 64
5, 40320, Note_off_c, 3, 55, 64
5, 40320, Note_off_c, 3, 49, 64
5, 40320, Note_on_c, 3, 57, 100
5, 40320, Note_on_c, 3, 50, 100
5, 40560, Note_off_c, 3, 50, 64
5, 40560, Note_off_c, 3, 57, 64
5, 40560, Note_on_c, 3, 57, 100
5, 40560, Note_on_c, 3, 50, 100
5, 40800, Note_off_c, 3, 50, 64
5, 40800, Note_off_c, 3, 57, 64
5, 40800, Note_on_c, 3, 59, 100
5, 40800, Note_on_c, 3, 50, 100
5, 41040, Note_off_c, 3, 50, 64
5, 41040, Note_off_c, 3, 59, 64
5, 41040, Note_on_c, 3, 57, 100
5, 41040, Note_on_c, 3, 50, 100
5, 41280, Note_off_c, 3, 50, 64
5, 41280, Note_off_c, 3, 57, 64
5, 41280, Note_on_c, 3, 60, 100
5, 41280, Note_on_c, 3, 50, 100
5, 41520, Note_off_c, 3, 50, 64
5, 41520, Note_off_c, 3, 60, 64
5, 41520, Note_on_c, 3, 57, 100
5, 41520, Note_on_c, 3, 50, 100
5, 41760, Note_off_c, 3, 50, 64
5, 41760, Note_off_c, 3, 57, 64
5, 41760, Note_on_c, 3, 59, 100
5, 41760, Note_on_c, 3, 50, 100
5, 42000, Note_off_c, 3, 50, 64
5, 42000, Note_off_c, 3, 59, 64
5, 42000, Note_on_c, 3, 57, 100
5, 42000, Note_on_c, 3, 50, 100
5, 42240, Note_off_c, 3, 50, 64
5, 42240, Note_off_c, 3, 57, 64
5, 42240, Note_on_c, 3, 60, 100
5, 42240, Note_on_c, 3, 50, 100
5, 42480, Note_off_c, 3, 50, 64
5, 42480, Note_off_c, 3, 60, 64
5, 42480, Note_on_c, 3, 57, 100
5, 42480, Note_on_c, 3, 50, 100
5, 42720, Note_off_c, 3, 50, 64
5, 42720, Note_off_c, 3, 57, 64
5, 42720, Note_on_c, 3, 59, 100
5, 42720, Note_on_c, 3, 50, 100
5, 42960, Note_off_c, 3, 50, 64
5, 42960, Note_off_c, 3, 59, 64
5, 42960, Note_on_c, 3, 57, 100
5, 42960, Note_on_c, 3, 50, 100
5, 43200, Note_off_c, 3, 50, 64
5, 43200, Note_off_c, 3, 57, 64
5, 43200, Note_on_c, 3, 60, 100
5, 43200, Note_on_c, 3, 50, 100
5, 43440, Note_off_c, 3, 50, 64
5, 43440, Note_off_c, 3, 60, 64
5, 43440, Note_on_c, 3, 57, 100
5, 43440, Note_on_c, 3, 50, 100
5, 43680, Note_off_c, 3, 50, 64
5, 43680, Note_off_c, 3, 57, 64
5, 43680, Note_on_c, 3, 59, 100
5, 43680, Note_on_c, 3, 50, 100
5, 43920, Note_off_c, 3, 50, 64
5, 43920, Note_off_c, 3, 59, 64
5, 43920, Note_on_c, 3, 50, 100
5, 43920, Note_on_c, 3, 60, 100
5, 44160, Note_off_c, 3, 60, 64
5, 44160, Note_off_c, 3, 50, 64
5, 44160, Note_on_c, 3, 52, 100
5, 44400, Note_off_c, 3, 52, 64
5, 44400, Note_on_c, 3, 52, 100
5, 44400, Note_on_c, 3, 56, 100
5, 44400, Note_on_c, 3, 62, 100
5, 44400, Note_on_c, 3, 64, 100
5, 44880, Note_off_c, 3, 64, 64
5, 44880, Note_off_c, 3, 62, 64
5, 44880, Note_off_c, 3, 56, 64
5, 44880, Note_off_c, 3, 52, 64
5, 44880, Note_on_c, 3, 52, 100
5, 45120, Note_off_c, 3, 52, 64
5, 45120, Note_on_c, 3, 52, 100
5, 45120, Note_on_c, 3, 56, 100
5, 45120, Note_on_c, 3, 62, 100
5, 45120, Note_on_c, 3, 64, 100
5, 45360, Note_off_c, 3, 64, 64
5, 45360, Note_off_c, 3, 62, 64
5, 45360, Note_off_c, 3, 56, 64
5, 45360, Note_off_c, 3, 52, 64
5, 45360, Note_on_c, 3, 52, 100
5, 45360, Note_on_c, 3, 56, 100
5, 45360, Note_on_c, 3, 62, 100
5, 45360, Note_on_c, 3, 64, 100
5, 45600, Note_off_c, 3, 64, 64
5, 45600, Note_off_c, 3, 62, 64
5, 45600, Note_off_c, 3, 56, 64
5, 45600, Note_off_c, 3, 52, 64
5, 45600, Note_on_c, 3, 52, 100
5, 45600, Note_on_c, 3, 56, 100
5, 45600, Note_on_c, 3, 62, 100
5, 45600, Note_on_c, 3, 64, 100
5, 45840, Note_off_c, 3, 64, 64
5, 45840, Note_off_c, 3, 62, 64
5, 45840, Note_off_c, 3, 56, 64
5, 45840, Note_off_c, 3, 52, 64
5, 45840, Note_on_c, 3, 52, 100
5, 45840, Note_on_c, 3, 56, 100
5, 45840, Note_on_c, 3, 62, 100
5, 45840, Note_on_c, 3, 64, 100
5, 46080, Note_off_c, 3, 64, 64
5, 46080, Note_off_c, 3, 62, 64
5, 46080, Note_off_c, 3, 56, 64
5, 46080, Note_off_c, 3, 52, 64
5, 46080, Note_on_c, 3, 52, 100
5, 46320, Note_off_c, 3, 52, 64
5, 46320, Note_on_c, 3, 52, 100
5, 46320, Note_on_c, 3, 56, 100
5, 46320, Note_on_c, 3, 62, 100
5, 46320, Note_on_c, 3, 64, 100
5, 46800, Note_off_c, 3, 64, 64
5, 46800, Note_off_c, 3, 62, 64
5, 46800, Note_off_c, 3, 56, 64
5, 46800, Note_off_c, 3, 52, 64
5, 46800, Note_on_c, 3, 52, 100
5, 47040, Note_off_c, 3, 52, 64
5, 47040, Note_on_c, 3, 52, 100
5, 47040, Note_on_c, 3, 56, 100
5, 47040, Note_on_c, 3, 62, 100
5, 47040, Note_on_c, 3, 64, 100
5, 47280, Note_off_c, 3, 64, 64
5, 47280, Note_off_c, 3, 62, 64
5, 47280, Note_off_c, 3, 56, 64
5, 47280, Note_off_c, 3, 52, 64
5, 47280, Note_on_c, 3, 52, 100
5, 47280, Note_on_c, 3, 56, 100
5, 47280, Note_on_c, 3, 62, 100
5, 47280, Note_on_c, 3, 64, 100
5, 47520, Note_off_c, 3, 64, 64
5, 47520, Note_off_c, 3, 62, 64
5, 47520, Note_off_c, 3, 56, 64
5, 47520, Note_off_c, 3, 52, 64
5, 47520, Note_on_c, 3, 52, 100
5, 47520, Note_on_c, 3, 56, 100
5, 47520, Note_on_c, 3, 62, 100
5, 47520, Note_on_c, 3, 64, 100
5, 48000, Note_off_c, 3, 64, 64
5, 48000, Note_off_c, 3, 62, 64
5, 48000, Note_off_c, 3, 56, 64
5, 48000, Note_off_c, 3, 52, 64
5, 48000, Note_on_c, 3, 57, 100
5, 48000, Note_on_c, 3, 50, 100
5, 48240, Note_off_c, 3, 50, 64
5, 48240, Note_off_c, 3, 57, 64
5, 48240, Note_on_c, 3, 57, 100
5, 48240, Note_on_c, 3, 50, 100
5, 48480, Note_off_c, 3, 50, 64
5, 48480, Note_off_c, 3, 57, 64
5, 48480, Note_on_c, 3, 59, 100
5, 48480, Note_on_c, 3, 50, 100
5, 48720, Note_off_c, 3, 50, 64
5, 48720, Note_off_c, 3, 59, 64
5, 48720, Note_on_c, 3, 57, 100
5, 48720, Note_on_c, 3, 50, 100
5, 48960, Note_off_c, 3, 50, 64
5, 48960, Note_off_c, 3, 57, 64
5, 48960, Note_on_c, 3, 60, 100
5, 48960, Note_on_c, 3, 50, 100
5, 49200, Note_off_c, 3, 50, 64
5, 49200, Note_off_c, 3, 60, 64
5, 49200, Note_on_c, 3, 57, 100
5, 49200, Note_on_c, 3, 50, 100
5, 49440, Note_off_c, 3, 50, 64
5, 49440, Note_off_c, 3, 57, 64
5, 49440, Note_on_c, 3, 59, 100
5, 49440, Note_on_c, 3, 50, 100
5, 49680, Note_off_c, 3, 50, 64
5, 49680, Note_off_c, 3, 59, 64
5, 49680, Note_on_c, 3, 57, 100
5, 49680, Note_on_c, 3, 50, 100
5, 49920, Note_off_c, 3, 50, 64
5, 49920, Note_off_c, 3, 57, 64
5, 49920, Note_on_c, 3, 60, 100
5, 49920, Note_on_c, 3, 50, 100
5, 50160, Note_off_c, 3, 50, 64
5, 50160, Note_off_c, 3, 60, 64
5, 50160, Note_on_c, 3, 57, 100
5, 50160, Note_on_c, 3, 50, 100
5, 50400, Note_off_c, 3, 50, 64
5, 50400, Note_off_c, 3, 57, 64
5, 50400, Note_on_c, 3, 59, 100
5, 50400, Note_on_c, 3, 50, 100
5, 50640, Note_off_c, 3, 50, 64
5, 50640, Note_off_c, 3, 59, 64
5, 50640, Note_on_c, 3, 57, 100
5, 50640, Note_on_c, 3, 50, 100
5, 50880, Note_off_c, 3, 50, 64
5, 50880, Note_off_c, 3, 57, 64
5, 50880, Note_on_c, 3, 60, 100
5, 50880, Note_on_c, 3, 50, 100
5, 51120, Note_off_c, 3, 50, 64
5, 51120, Note_off_c, 3, 60, 64
5, 51120, Note_on_c, 3, 57, 100
5, 51120, Note_on_c, 3, 50, 100
5, 51360, Note_off_c, 3, 50, 64
5, 51360, Note_off_c, 3, 57, 64
5, 51360, Note_on_c, 3, 59, 100
5, 51360, Note_on_c, 3, 50, 100
5, 51600, Note_off_c, 3, 50, 64
5, 51600, Note_off_c, 3, 59, 64
5, 51600, Note_on_c, 3, 69, 100
5, 51600, Note_on_c, 3, 74, 100
5, 51840, Note_off_c, 3, 74, 64
5, 51840, Note_off_c, 3, 69, 64
5, 51840, Note_on_c, 3, 52, 100
5, 51840, Note_on_c, 3, 45, 100
5, 52080, Note_off_c, 3, 45, 64
5, 52080, Note_off_c, 3, 52, 64
5, 52080, Note_on_c, 3, 52, 100
5, 52080, Note_on_c, 3, 45, 100
5, 52320, Note_off_c, 3, 45, 64
5, 52320, Note_off_c, 3, 52, 64
5, 52320, Note_on_c, 3, 54, 100
5, 52320, Note_on_c, 3, 45, 100
5, 52560, Note_off_c, 3, 45, 64
5, 52560, Note_off_c, 3, 54, 64
5, 52560, Note_on_c, 3, 52, 100
5, 52560, Note_on_c, 3, 45, 100
5, 52800, Note_off_c, 3, 45, 64
5, 52800, Note_off_c, 3, 52, 64
5, 52800, Note_on_c, 3, 55, 100
5, 52800, Note_on_c, 3, 45, 100
5, 53040, Note_off_c, 3, 45, 64
5, 53040, Note_off_c, 3, 55, 64
5, 53040, Note_on_c, 3, 55, 100
5, 53040, Note_on_c, 3, 45, 100
5, 53280, Note_off_c, 3, 45, 64
5, 53280, Note_off_c, 3, 55, 64
5, 53280, Note_on_c, 3, 54, 100
5, 53280, Note_on_c, 3, 45, 100
5, 53520, Note_off_c, 3, 45, 64
5, 53520, Note_off_c, 3, 54, 64
5, 53520, Note_on_c, 3, 52, 100
5, 53520, Note_on_c, 3, 45, 100
5, 53760, Note_off_c, 3, 45, 64
5, 53760, Note_off_c, 3, 52, 64
5, 53760, Note_on_c, 3, 55, 100
5, 53760, Note_on_c, 3, 45, 100
5, 54000, Note_off_c, 3, 45, 64
5, 54000, Note_off_c, 3, 55, 64
5, 54000, Note_on_c, 3, 55, 100
5, 54000, Note_on_c, 3, 45, 100
5, 54240, Note_off_c, 3, 45, 64
5, 54240, Note_off_c, 3, 55, 64
5, 54240, Note_on_c, 3, 54, 100
5, 54240, Note_on_c, 3, 45, 100
5, 54480, Note_off_c, 3, 45, 64
5, 54480, Note_off_c, 3, 54, 64
5, 54480, Note_on_c, 3, 52, 100
5, 54480, Note_on_c, 3, 45, 100
5, 54720, Note_off_c, 3, 45, 64
5, 54720, Note_off_c, 3, 52, 64
5, 54720, Note_on_c, 3, 55, 100
5, 54720, Note_on_c, 3, 45, 100
5, 54960, Note_off_c, 3, 45, 64
5, 54960, Note_off_c, 3, 55, 64
5, 54960, Note_on_c, 3, 55, 100
5, 54960, Note_on_c, 3, 45, 100
5, 55200, Note_off_c, 3, 45, 64
5, 55200, Note_off_c, 3, 55, 64
5, 55200, Note_on_c, 3, 54, 100
5, 55200, Note_on_c, 3, 45, 100
5, 55440, Note_off_c, 3, 45, 64
5, 55440, Note_off_c, 3, 54, 64
5, 55440, Note_on_c, 3, 52, 100
5, 55440, Note_on_c, 3, 45, 100
5, 55680, Note_off_c, 3, 45, 64
5, 55680, Note_off_c, 3, 52, 64
5, 55680, Note_on_c, 3, 57, 100
5, 55680, Note_on_c, 3, 50, 100
5, 55920, Note_off_c, 3, 50, 64
5, 55920, Note_off_c, 3, 57, 64
5, 55920, Note_on_c, 3, 57, 100
5, 55920, Note_on_c, 3, 50, 100
5, 56160, Note_off_c, 3, 50, 64
5, 56160, Note_off_c, 3, 57, 64
5, 56160, Note_on_c, 3, 59, 100
5, 56160, Note_on_c, 3, 50, 100
5, 56400, Note_off_c, 3, 50, 64
5, 56400, Note_off_c, 3, 59, 64
5, 56400, Note_on_c, 3, 57, 100
5, 56400, Note_on_c, 3, 50, 100
5, 56640, Note_off_c, 3, 50, 64
5, 56640, Note_off_c, 3, 57, 64
5, 56640, Note_on_c, 3, 60, 100
5, 56640, Note_on_c, 3, 50, 100
5, 56880, Note_off_c, 3, 50, 64
5, 56880, Note_off_c, 3, 60, 64
5, 56880, Note_on_c, 3, 57, 100
5, 56880, Note_on_c, 3, 50, 100
5, 57120, Note_off_c, 3, 50, 64
5, 57120, Note_off_c, 3, 57, 64
5, 57120, Note_on_c, 3, 59, 100
5, 57120, Note_on_c, 3, 50, 100
5, 57360, Note_off_c, 3, 50, 64
5, 57360, Note_off_c, 3, 59, 64
5, 57360, Note_on_c, 3, 57, 100
5, 57360, Note_on_c, 3, 50, 100
5, 57600, Note_off_c, 3, 50, 64
5, 57600, Note_off_c, 3, 57, 64
5, 57600, Note_on_c, 3, 60, 100
5, 57600, Note_on_c, 3, 50, 100
5, 57840, Note_off_c, 3, 50, 64
5, 57840, Note_off_c, 3, 60, 64
5, 57840, Note_on_c, 3, 57, 100
5, 57840, Note_on_c, 3, 50, 100
5, 58080, Note_off_c, 3, 50, 64
5, 58080, Note_off_c, 3, 57, 64
5, 58080, Note_on_c, 3, 59, 100
5, 58080, Note_on_c, 3, 50, 100
5, 58320, Note_off_c, 3, 50, 64
5, 58320, Note_off_c, 3, 59, 64
5, 58320, Note_on_c, 3, 57, 100
5, 58320, Note_on_c, 3, 50, 100
5, 58560, Note_off_c, 3, 50, 64
5, 58560, Note_off_c, 3, 57, 64
5, 58560, Note_on_c, 3, 60, 100
5, 58560, Note_on_c, 3, 50, 100
5, 58800, Note_off_c, 3, 50, 64
5, 58800, Note_off_c, 3, 60, 64
5, 58800, Note_on_c, 3, 57, 100
5, 58800, Note_on_c, 3, 50, 100
5, 59040, Note_off_c, 3, 50, 64
5, 59040, Note_off_c, 3, 57, 64
5, 59040, Note_on_c, 3, 59, 100
5, 59040, Note_on_c, 3, 50, 100
5, 59280, Note_off_c, 3, 50, 64
5, 59280, Note_off_c, 3, 59, 64
5, 59280, Note_on_c, 3, 57, 100
5, 59280, Note_on_c, 3, 50, 100
5, 59520, Note_off_c, 3, 50, 64
5, 59520, Note_off_c, 3, 57, 64
5, 59520, Note_on_c, 3, 52, 100
5, 59760, Note_off_c, 3, 52, 64
5, 59760, Note_on_c, 3, 52, 100
5, 59760, Note_on_c, 3, 56, 100
5, 59760, Note_on_c, 3, 62, 100
5, 59760, Note_on_c, 3, 64, 100
5, 60240, Note_off_c, 3, 64, 64
5, 60240, Note_off_c, 3, 62, 64
5, 60240, Note_off_c, 3, 56, 64
5, 60240, Note_off_c, 3, 52, 64
5, 60240, Note_on_c, 3, 52, 100
5, 60480, Note_off_c, 3, 52, 64
5, 60480, Note_on_c, 3, 52, 100
5, 60480, Note_on_c, 3, 56, 100
5, 60480, Note_on_c, 3, 62, 100
5, 60480, Note_on_c, 3, 64, 100
5, 60720, Note_off_c, 3, 64, 64
5, 60720, Note_off_c, 3, 62, 64
5, 60720, Note_off_c, 3, 56, 64
5, 60720, Note_off_c, 3, 52, 64
5, 60720, Note_on_c, 3, 52, 100
5, 60720, Note_on_c, 3, 56, 100
5, 60720, Note_on_c, 3, 62, 100
5, 60720, Note_on_c, 3, 64, 100
5, 60960, Note_off_c, 3, 64, 64
5, 60960, Note_off_c, 3, 62, 64
5, 60960, Note_off_c, 3, 56, 64
5, 60960, Note_off_c, 3, 52, 64
5, 60960, Note_on_c, 3, 52, 100
5, 60960, Note_on_c, 3, 56, 100
5, 60960, Note_on_c, 3, 62, 100
5, 60960, Note_on_c, 3, 64, 100
5, 61200, Note_off_c, 3, 64, 64
5, 61200, Note_off_c, 3, 62, 64
5, 61200, Note_off_c, 3, 56, 64
5, 61200, Note_off_c, 3, 52, 64
5, 61200, Note_on_c, 3, 52, 100
5, 61200, Note_on_c, 3, 56, 100
5, 61200, Note_on_c, 3, 62, 100
5, 61200, Note_on_c, 3, 64, 100
5, 61440, Note_off_c, 3, 64, 64
5, 61440, Note_off_c, 3, 62, 64
5, 61440, Note_off_c, 3, 56, 64
5, 61440, Note_off_c, 3, 52, 64
5, 61440, Note_on_c, 3, 52, 100
5, 61680, Note_off_c, 3, 52, 64
5, 61680, Note_on_c, 3, 52, 100
5, 61680, Note_on_c, 3, 56, 100
5, 61680, Note_on_c, 3, 62, 100
5, 61680, Note_on_c, 3, 64, 100
5, 62160, Note_off_c, 3, 64, 64
5, 62160, Note_off_c, 3, 62, 64
5, 62160, Note_off_c, 3, 56, 64
5, 62160, Note_off_c, 3, 52, 64
5, 62160, Note_on_c, 3, 52, 100
5, 62400, Note_off_c, 3, 52, 64
5, 62400, Note_on_c, 3, 52, 100
5, 62400, Note_on_c, 3, 56, 100
5, 62400, Note_on_c, 3, 62, 100
5, 62400, Note_on_c, 3, 64, 100
5, 62640, Note_off_c, 3, 64, 64
5, 62640, Note_off_c, 3, 62, 64
5, 62640, Note_off_c, 3, 56, 64
5, 62640, Note_off_c, 3, 52, 64
5, 62640, Note_on_c, 3, 52, 100
5, 62640, Note_on_c, 3, 56, 100
5, 62640, Note_on_c, 3, 62, 100
5, 62640, Note_on_c, 3, 64, 100
5, 62880, Note_off_c, 3, 64, 64
5, 62880, Note_off_c, 3, 62, 64
5, 62880, Note_off_c, 3, 56, 64
5, 62880, Note_off_c, 3, 52, 64
5, 62880, Note_on_c, 3, 52, 100
5, 62880, Note_on_c, 3, 56, 100
5, 62880, Note_on_c, 3, 62, 100
5, 62880, Note_on_c, 3, 64, 100
5, 63360, Note_off_c, 3, 64, 64
5, 63360, Note_off_c, 3, 62, 64
5, 63360, Note_off_c, 3, 56, 64
5, 63360, Note_off_c, 3, 52, 64
5, 63360, Note_on_c, 3, 52, 100
5, 63360, Note_on_c, 3, 45, 100
5, 63600, Note_off_c, 3, 45, 64
5, 63600, Note_off_c, 3, 52, 64
5, 63600, Note_on_c, 3, 52, 100
5, 63600, Note_on_c, 3, 45, 100
5, 63840, Note_off_c, 3, 45, 64
5, 63840, Note_off_c, 3, 52, 64
5, 63840, Note_on_c, 3, 54, 100
5, 63840, Note_on_c, 3, 45, 100
5, 64080, Note_off_c, 3, 45, 64
5, 64080, Note_off_c, 3, 54, 64
5, 64080, Note_on_c, 3, 52, 100
5, 64080, Note_on_c, 3, 45, 100
5, 64320, Note_off_c, 3, 45, 64
5, 64320, Note_off_c, 3, 52, 64
5, 64320, Note_on_c, 3, 55, 100
5, 64320, Note_on_c, 3, 45, 100
5, 64560, Note_off_c, 3, 45, 64
5, 64560, Note_off_c, 3, 55, 64
5, 64560, Note_on_c, 3, 55, 100
5, 64560, Note_on_c, 3, 45, 100
5, 64800, Note_off_c, 3, 45, 64
5, 64800, Note_off_c, 3, 55, 64
5, 64800, Note_on_c, 3, 54, 100
5, 64800, Note_on_c, 3, 45, 100
5, 65040, Note_off_c, 3, 45, 64
5, 65040, Note_off_c, 3, 54, 64
5, 65040, Note_on_c, 3, 52, 100
5, 65040, Note_on_c, 3, 45, 100
5, 65280, Note_off_c, 3, 45, 64
5, 65280, Note_off_c, 3, 52, 64
5, 65280, Note_on_c, 3, 55, 100
5, 65280, Note_on_c, 3, 45, 100
5, 65520, Note_off_c, 3, 45, 64
5, 65520, Note_off_c, 3, 55, 64
5, 65520, Note_on_c, 3, 55, 100
5, 65520, Note_on_c, 3, 45, 100
5, 65760, Note_off_c, 3, 45, 64
5, 65760, Note_off_c, 3, 55, 64
5, 65760, Note_on_c, 3, 54, 100
5, 65760, Note_on_c, 3, 45, 100
5, 66000, Note_off_c, 3, 45, 64
5, 66000, Note_off_c, 3, 54, 64
5, 66000, Note_on_c, 3, 52, 100
5, 66000, Note_on_c, 3, 45, 100
5, 66240, Note_off_c, 3, 45, 64
5, 66240, Note_off_c, 3, 52, 64
5, 66240, Note_on_c, 3, 55, 100
5, 66240, Note_on_c, 3, 45, 100
5, 66480, Note_off_c, 3, 45, 64
5, 66480, Note_off_c, 3, 55, 64
5, 66480, Note_on_c, 3, 55, 100
5, 66480, Note_on_c, 3, 45, 100
5, 66720, Note_off_c, 3, 45, 64
5, 66720, Note_off_c, 3, 55, 64
5, 66720, Note_on_c, 3, 54, 100
5, 66720, Note_on_c, 3, 45, 100
5, 66960, Note_off_c, 3, 45, 64
5, 66960, Note_off_c, 3, 54, 64
5, 66960, Note_on_c, 3, 49, 100
5, 66960, Note_on_c, 3, 55, 100
5, 67140, Note_on_c, 3, 50, 100
5, 67140, Note_on_c, 3, 57, 100
5, 67200, Note_off_c, 3, 57, 64
5, 67200, Note_off_c, 3, 50, 64
5, 67200, Note_off_c, 3, 55, 64
5, 67200, Note_off_c, 3, 49, 64
5, 67200, Note_on_c, 3, 57, 100
5, 67200, Note_on_c, 3, 50, 100
5, 67440, Note_off_c, 3, 50, 64
5, 67440, Note_off_c, 3, 57, 64
5, 67440, Note_on_c, 3, 57, 100
5, 67440, Note_on_c, 3, 50, 100
5, 67680, Note_off_c, 3, 50, 64
5, 67680, Note_off_c, 3, 57, 64
5, 67680, Note_on_c, 3, 59, 100
5, 67680, Note_on_c, 3, 50, 100
5, 67920, Note_off_c, 3, 50, 64
5, 67920, Note_off_c, 3, 59, 64
5, 67920, Note_on_c, 3, 57, 100
5, 67920, Note_on_c, 3, 50, 100
5, 68160, Note_off_c, 3, 50, 64
5, 68160, Note_off_c, 3, 57, 64
5, 68160, Note_on_c, 3, 60, 100
5, 68160, Note_on_c, 3, 50, 100
5, 68400, Note_off_c, 3, 50, 64
5, 68400, Note_off_c, 3, 60, 64
5, 68400, Note_on_c, 3, 60, 100
5, 68400, Note_on_c, 3, 50, 100
5, 68640, Note_off_c, 3, 50, 64
5, 68640, Note_off_c, 3, 60, 64
5, 68640, Note_on_c, 3, 59, 100
5, 68640, Note_on_c, 3, 50, 100
5, 68880, Note_off_c, 3, 50, 64
5, 68880, Note_off_c, 3, 59, 64
5, 68880, Note_on_c, 3, 57, 100
5, 68880, Note_on_c, 3, 50, 100
5, 69120, Note_off_c, 3, 50, 64
5, 69120, Note_off_c, 3, 57, 64
5, 69120, Note_on_c, 3, 60, 100
5, 69120, Note_on_c, 3, 50, 100
5, 69360, Note_off_c, 3, 50, 64
5, 69360, Note_off_c, 3, 60, 64
5, 69360, Note_on_c, 3, 60, 100
5, 69360, Note_on_c, 3, 50, 100
5, 69600, Note_off_c, 3, 50, 64
5, 69600, Note_off_c, 3, 60, 64
5, 69600, Note_on_c, 3, 59, 100
5, 69600, Note_on_c, 3, 50, 100
5, 69840, Note_off_c, 3, 50, 64
5, 69840, Note_off_c, 3, 59, 64
5, 69840, Note_on_c, 3, 57, 100
5, 69840, Note_on_c, 3, 50, 100
5, 70080, Note_off_c, 3, 50, 64
5, 70080, Note_off_c, 3, 57, 64
5, 70080, Note_on_c, 3, 60, 100
5, 70080, Note_on_c, 3, 50, 100
5, 70320, Note_off_c, 3, 50, 64
5, 70320, Note_off_c, 3, 60, 64
5, 70320, Note_on_c, 3, 60, 100
5, 70320, Note_on_c, 3, 50, 100
5, 70560, Note_off_c, 3, 50, 64
5, 70560, Note_off_c, 3, 60, 64
5, 70560, Note_on_c, 3, 59, 100
5, 70560, Note_on_c, 3, 50, 100
5, 70800, Note_off_c, 3, 50, 64
5, 70800, Note_off_c, 3, 59, 64
5, 70800, Note_on_c, 3, 74, 100
5, 70800, Note_on_c, 3, 69, 100
5, 71040, Note_off_c, 3, 69, 64
5, 71040, Note_off_c, 3, 74, 64
5, 71040, Note_on_c, 3, 52, 100
5, 71040, Note_on_c, 3, 45, 100
5, 71280, Note_off_c, 3, 45, 64
5, 71280, Note_off_c, 3, 52, 64
5, 71280, Note_on_c, 3, 52, 100
5, 71280, Note_on_c, 3, 45, 100
5, 71520, Note_off_c, 3, 45, 64
5, 71520, Note_off_c, 3, 52, 64
5, 71520, Note_on_c, 3, 54, 100
5, 71520, Note_on_c, 3, 45, 100
5, 71760, Note_off_c, 3, 45, 64
5, 71760, Note_off_c, 3, 54, 64
5, 71760, Note_on_c, 3, 52, 100
5, 71760, Note_on_c, 3, 45, 100
5, 72000, Note_off_c, 3, 45, 64
5, 72000, Note_off_c, 3, 52, 64
5, 72000, Note_on_c, 3, 55, 100
5, 72000, Note_on_c, 3, 45, 100
5, 72240, Note_off_c, 3, 45, 64
5, 72240, Note_off_c, 3, 55, 64
5, 72240, Note_on_c, 3, 55, 100
5, 72240, Note_on_c, 3, 45, 100
5, 72480, Note_off_c, 3, 45, 64
5, 72480, Note_off_c, 3, 55, 64
5, 72480, Note_on_c, 3, 54, 100
5, 72480, Note_on_c, 3, 45, 100
5, 72720, Note_off_c, 3, 45, 64
5, 72720, Note_off_c, 3, 54, 64
5, 72720, Note_on_c, 3, 52, 100
5, 72720, Note_on_c, 3, 45, 100
5, 72960, Note_off_c, 3, 45, 64
5, 72960, Note_off_c, 3, 52, 64
5, 72960, Note_on_c, 3, 55, 100
5, 72960, Note_on_c, 3, 45, 100
5, 73200, Note_off_c, 3, 45, 64
5, 73200, Note_off_c, 3, 55, 64
5, 73200, Note_on_c, 3, 55, 100
5, 73200, Note_on_c, 3, 45, 100
5, 73440, Note_off_c, 3, 45, 64
5, 73440, Note_off_c, 3, 55, 64
5, 73440, Note_on_c, 3, 54, 100
5, 73440, Note_on_c, 3, 45, 100
5, 73680, Note_off_c, 3, 45, 64
5, 73680, Note_off_c, 3, 54, 64
5, 73680, Note_on_c, 3, 52, 100
5, 73680, Note_on_c, 3, 45, 100
5, 73920, Note_off_c, 3, 45, 64
5, 73920, Note_off_c, 3, 52, 64
5, 73920, Note_on_c, 3, 55, 100
5, 73920, Note_on_c, 3, 45, 100
5, 74160, Note_off_c, 3, 45, 64
5, 74160, Note_off_c, 3, 55, 64
5, 74160, Note_on_c, 3, 55, 100
5, 74160, Note_on_c, 3, 45, 100
5, 74400, Note_off_c, 3, 45, 64
5, 74400, Note_off_c, 3, 55, 64
5, 74400, Note_on_c, 3, 54, 100
5, 74400, Note_on_c, 3, 45, 100
5, 74640, Note_off_c, 3, 45, 64
5, 74640, Note_off_c, 3, 54, 64
5, 74640, Note_on_c, 3, 52, 100
5, 74640, Note_on_c, 3, 45, 100
5, 74880, Note_off_c, 3, 45, 64
5, 74880, Note_off_c, 3, 52, 64
5, 74880, Note_on_c, 3, 52, 100
5, 75120, Note_off_c, 3, 52, 64
5, 75120, Note_on_c, 3, 52, 100
5, 75120, Note_on_c, 3, 56, 100
5, 75120, Note_on_c, 3, 62, 100
5, 75120, Note_on_c, 3, 64, 100
5, 75600, Note_off_c, 3, 64, 64
5, 75600, Note_off_c, 3, 62, 64
5, 75600, Note_off_c, 3, 56, 64
5, 75600, Note_off_c, 3, 52, 64
5, 75600, Note_on_c, 3, 52, 100
5, 75840, Note_off_c, 3, 52, 64
5, 75840, Note_on_c, 3, 52, 100
5, 75840, Note_on_c, 3, 56, 100
5, 75840, Note_on_c, 3, 62, 100
5, 75840, Note_on_c, 3, 64, 100
5, 76080, Note_off_c, 3, 64, 64
5, 76080, Note_off_c, 3, 62, 64
5, 76080, Note_off_c, 3, 56, 64
5, 76080, Note_off_c, 3, 52, 64
5, 76080, Note_on_c, 3, 52, 100
5, 76080, Note_on_c, 3, 56, 100
5, 76080, Note_on_c, 3, 62, 100
5, 76080, Note_on_c, 3, 64, 100
5, 76320, Note_off_c, 3, 64, 64
5, 76320, Note_off_c, 3, 62, 64
5, 76320, Note_off_c, 3, 56, 64
5, 76320, Note_off_c, 3, 52, 64
5, 76320, Note_on_c, 3, 52, 100
5, 76320, Note_on_c, 3, 56, 100
5, 76320, Note_on_c, 3, 62, 100
5, 76320, Note_on_c, 3, 64, 100
5, 76560, Note_off_c, 3, 64, 64
5, 76560, Note_off_c, 3, 62, 64
5, 76560, Note_off_c, 3, 56, 64
5, 76560, Note_off_c, 3, 52, 64
5, 76560, Note_on_c, 3, 52, 100
5, 76560, Note_on_c, 3, 56, 100
5, 76560, Note_on_c, 3, 62, 100
5, 76560, Note_on_c, 3, 64, 100
5, 76800, Note_off_c, 3, 64, 64
5, 76800, Note_off_c, 3, 62, 64
5, 76800, Note_off_c, 3, 56, 64
5, 76800, Note_off_c, 3, 52, 64
5, 76800, Note_on_c, 3, 52, 100
5, 77040, Note_off_c, 3, 52, 64
5, 77040, Note_on_c, 3, 52, 100
5, 77040, Note_on_c, 3, 56, 100
5, 77040, Note_on_c, 3, 62, 100
5, 77040, Note_on_c, 3, 64, 100
5, 77520, Note_off_c, 3, 64, 64
5, 77520, Note_off_c, 3, 62, 64
5, 77520, Note_off_c, 3, 56, 64
5, 77520, Note_off_c, 3, 52, 64
5, 77520, Note_on_c, 3, 52, 100
5, 77760, Note_off_c, 3, 52, 64
5, 77760, Note_on_c, 3, 52, 100
5, 77760, Note_on_c, 3, 56, 100
5, 77760, Note_on_c, 3, 62, 100
5, 77760, Note_on_c, 3, 64, 100
5, 78000, Note_off_c, 3, 64, 64
5, 78000, Note_off_c, 3, 62, 64
5, 78000, Note_off_c, 3, 56, 64
5, 78000, Note_off_c, 3, 52, 64
5, 78000, Note_on_c, 3, 52, 100
5, 78000, Note_on_c, 3, 56, 100
5, 78000, Note_on_c, 3, 62, 100
5, 78000, Note_on_c, 3, 64, 100
5, 78240, Note_off_c, 3, 64, 64
5, 78240, Note_off_c, 3, 62, 64
5, 78240, Note_off_c, 3, 56, 64
5, 78240, Note_off_c, 3, 52, 64
5, 78240, Note_on_c, 3, 52, 100
5, 78240, Note_on_c, 3, 56, 100
5, 78240, Note_on_c, 3, 62, 100
5, 78240, Note_on_c, 3, 64, 100
5, 78720, Note_off_c, 3, 64, 64
5, 78720, Note_off_c, 3, 62, 64
5, 78720, Note_off_c, 3, 56, 64
5, 78720, Note_off_c, 3, 52, 64
5, 78720, Note_on_c, 3, 69, 100
5, 78720, Note_on_c, 3, 64, 100
5, 78960, Note_off_c, 3, 64, 64
5, 78960, Note_off_c, 3, 69, 64
5, 78960, Note_on_c, 3, 69, 100
5, 78960, Note_on_c, 3, 64, 100
5, 79200, Note_off_c, 3, 64, 64
5, 79200, Note_off_c, 3, 69, 64
5, 79200, Note_on_c, 3, 69, 100
5, 79200, Note_on_c, 3, 64, 100
5, 79440, Note_off_c, 3, 64, 64
5, 79440, Note_off_c, 3, 69, 64
5, 79440, Note_on_c, 3, 69, 100
5, 79440, Note_on_c, 3, 64, 100
5, 79680, Note_off_c, 3, 64, 64
5, 79680, Note_off_c, 3, 69, 64
5, 79680, Note_on_c, 3, 69, 100
5, 79680, Note_on_c, 3, 64, 100
5, 79920, Note_off_c, 3, 64, 64
5, 79920, Note_off_c, 3, 69, 64
5, 79920, Note_on_c, 3, 69, 100
5, 79920, Note_on_c, 3, 64, 100
5, 80160, Note_off_c, 3, 64, 64
5, 80160, Note_off_c, 3, 69, 64
5, 80160, Note_on_c, 3, 69, 100
5, 80160, Note_on_c, 3, 64, 100
5, 80400, Note_off_c, 3, 64, 64
5, 80400, Note_off_c, 3, 69, 64
5, 80400, Note_on_c, 3, 62, 100
5, 80580, Note_on_c, 3, 66, 100
5, 80580, Note_on_c, 3, 63, 100
5, 80640, Note_off_c, 3, 63, 64
5, 80640, Note_off_c, 3, 66, 64
5, 80640, Note_off_c, 3, 62, 64
5, 80640, Note_on_c, 3, 64, 100
5, 80640, Note_on_c, 3, 67, 100
5, 80640, Note_on_c, 3, 73, 100
5, 81120, Note_off_c, 3, 73, 64
5, 81120, Note_off_c, 3, 67, 64
5, 81120, Note_off_c, 3, 64, 64
5, 81120, Note_on_c, 3, 50, 100
5, 81300, Note_on_c, 3, 66, 100
5, 81300, Note_on_c, 3, 63, 100
5, 81360, Note_off_c, 3, 63, 64
5, 81360, Note_off_c, 3, 66, 64
5, 81360, Note_off_c, 3, 50, 64
5, 81360, Note_on_c, 3, 64, 100
5, 81360, Note_on_c, 3, 67, 100
5, 81360, Note_on_c, 3, 73, 100
5, 81840, Note_off_c, 3, 73, 64
5, 81840, Note_off_c, 3, 67, 64
5, 81840, Note_off_c, 3, 64, 64
5, 81840, Note_on_c, 3, 50, 100
5, 82080, Note_off_c, 3, 50, 64
5, 82080, Note_on_c, 3, 50, 100
5, 82260, Note_on_c, 3, 66, 100
5, 82260, Note_on_c, 3, 63, 100
5, 82320, Note_off_c, 3, 63, 64
5, 82320, Note_off_c, 3, 66, 64
5, 82320, Note_off_c, 3, 50, 64
5, 82320, Note_on_c, 3, 64, 100
5, 82320, Note_on_c, 3, 67, 100
5, 82320, Note_on_c, 3, 73, 100
5, 82800, Note_off_c, 3, 73, 64
5, 82800, Note_off_c, 3, 67, 64
5, 82800, Note_off_c, 3, 64, 64
5, 82800, Note_on_c, 3, 50, 100
5, 82980, Note_on_c, 3, 66, 100
5, 82980, Note_on_c, 3, 63, 100
5, 83040, Note_off_c, 3, 63, 64
5, 83040, Note_off_c, 3, 66, 64
5, 83040, Note_off_c, 3, 50, 64
5, 83040, Note_on_c, 3, 64, 100
5, 83040, Note_on_c, 3, 67, 100
5, 83040, Note_on_c, 3, 73, 100
5, 83280, Note_off_c, 3, 73, 64
5, 83280, Note_off_c, 3, 67, 64
5, 83280, Note_off_c, 3, 64, 64
5, 83280, Note_on_c, 3, 50, 100
5, 83460, Note_on_c, 3, 66, 100
5, 83460, Note_on_c, 3, 63, 100
5, 83520, Note_off_c, 3, 63, 64
5, 83520, Note_off_c, 3, 66, 64
5, 83520, Note_off_c, 3, 50, 64
5, 83520, Note_on_c, 3, 64, 100
5, 83520, Note_on_c, 3, 67, 100
5, 83520, Note_on_c, 3, 73, 100
5, 83700, Note_on_c, 3, 66, 100
5, 83700, Note_on_c, 3, 63, 100
5, 83760, Note_off_c, 3, 63, 64
5, 83760, Note_off_c, 3, 66, 64
5, 83760, Note_off_c, 3, 73, 64
5, 83760, Note_off_c, 3, 67, 64
5, 83760, Note_off_c, 3, 64, 64
5, 83760, Note_on_c, 3, 64, 100
5, 83760, Note_on_c, 3, 67, 100
5, 83760, Note_on_c, 3, 73, 100
5, 83940, Note_on_c, 3, 66, 100
5, 83940, Note_on_c, 3, 63, 100
5, 84000, Note_off_c, 3, 63, 64
5, 84000, Note_off_c, 3, 66, 64
5, 84000, Note_off_c, 3, 73, 64
5, 84000, Note_off_c, 3, 67, 64
5, 84000, Note_off_c, 3, 64, 64
5, 84000, Note_on_c, 3, 64, 100
5, 84000, Note_on_c, 3, 67, 100
5, 84000, Note_on_c, 3, 73, 100
5, 84180, Note_on_c, 3, 66, 100
5, 84180, Note_on_c, 3, 63, 100
5, 84240, Note_off_c, 3, 63, 64
5, 84240, Note_off_c, 3, 66, 64
5, 84240, Note_off_c, 3, 73, 64
5, 84240, Note_off_c, 3, 67, 64
5, 84240, Note_off_c, 3, 64, 64
5, 84240, Note_on_c, 3, 64, 100
5, 84240, Note_on_c, 3, 67, 100
5, 84240, Note_on_c, 3, 73, 100
5, 84480, Note_off_c, 3, 73, 64
5, 84480, Note_off_c, 3, 67, 64
5, 84480, Note_off_c, 3, 64, 64
5, 84480, Note_on_c, 3, 69, 100
5, 84480, Note_on_c, 3, 64, 100
5, 84720, Note_off_c, 3, 64, 64
5, 84720, Note_off_c, 3, 69, 64
5, 84720, Note_on_c, 3, 69, 100
5, 84720, Note_on_c, 3, 64, 100
5, 84840, Note_on_c, 3, 62, 100
5, 84900, Note_off_c, 3, 62, 64
5, 84900, Note_on_c, 3, 63, 100
5, 84960, Note_off_c, 3, 64, 64
5, 84960, Note_off_c, 3, 69, 64
5, 84960, Note_off_c, 3, 63, 64
5, 84960, Note_on_c, 3, 64, 100
5, 85200, Note_off_c, 3, 64, 64
5, 85200, Note_on_c, 3, 69, 100
5, 85200, Note_on_c, 3, 64, 100
5, 85440, Note_off_c, 3, 64, 64
5, 85440, Note_off_c, 3, 69, 64
5, 85440, Note_on_c, 3, 69, 100
5, 85440, Note_on_c, 3, 64, 100
5, 85680, Note_off_c, 3, 64, 64
5, 85680, Note_off_c, 3, 69, 64
5, 85680, Note_on_c, 3, 69, 100
5, 85680, Note_on_c, 3, 64, 100
5, 85920, Note_off_c, 3, 64, 64
5, 85920, Note_off_c, 3, 69, 64
5, 85920, Note_on_c, 3, 69, 100
5, 85920, Note_on_c, 3, 64, 100
5, 86160, Note_off_c, 3, 64, 64
5, 86160, Note_off_c, 3, 69, 64
5, 86160, Note_on_c, 3, 69, 100
5, 86160, Note_on_c, 3, 64, 100
5, 86400, Note_off_c, 3, 64, 64
5, 86400, Note_off_c, 3, 69, 64
5, 86400, Note_on_c, 3, 72, 100
5, 86640, Note_off_c, 3, 72, 64
5, 86640, Note_on_c, 3, 69, 100
5, 86880, Note_off_c, 3, 69, 64
5, 86880, Note_on_c, 3, 67, 100
5, 87120, Note_off_c, 3, 67, 64
5, 87120, Note_on_c, 3, 64, 100
5, 87240, Note_on_c, 3, 62, 100
5, 87300, Note_off_c, 3, 62, 64
5, 87300, Note_on_c, 3, 63, 100
5, 87360, Note_off_c, 3, 64, 64
5, 87360, Note_off_c, 3, 63, 64
5, 87360, Note_on_c, 3, 64, 100
5, 87360, Note_on_c, 3, 67, 100
5, 87600, Note_off_c, 3, 67, 64
5, 87600, Note_off_c, 3, 64, 64
5, 87600, Note_on_c, 3, 67, 100
5, 87840, Note_off_c, 3, 67, 64
5, 87840, Note_on_c, 3, 62, 100
5, 88080, Note_off_c, 3, 62, 64
5, 88080, Note_on_c, 3, 60, 100
5, 88320, Note_off_c, 3, 60, 64
5, 88320, Note_on_c, 3, 62, 100
5, 88440, Note_on_c, 3, 62, 100
5, 88500, Note_off_c, 3, 62, 64
5, 88500, Note_on_c, 3, 63, 100
5, 88560, Note_off_c, 3, 62, 64
5, 88560, Note_off_c, 3, 63, 64
5, 88560, Note_on_c, 3, 64, 100
5, 88560, Note_on_c, 3, 64, 100
5, 88560, Note_on_c, 3, 69, 100
5, 88800, Note_off_c, 3, 69, 64
5, 88800, Note_off_c, 3, 64, 64
5, 88800, Note_off_c, 3, 64, 64
5, 88920, Note_on_c, 3, 62, 100
5, 88980, Note_off_c, 3, 62, 64
5, 88980, Note_on_c, 3, 63, 100
5, 89040, Note_off_c, 3, 63, 64
5, 89040, Note_on_c, 3, 64, 100
5, 89040, Note_on_c, 3, 64, 100
5, 89040, Note_on_c, 3, 69, 100
5, 89160, Note_on_c, 3, 62, 100
5, 89220, Note_off_c, 3, 62, 64
5, 89220, Note_on_c, 3, 63, 100
5, 89280, Note_off_c, 3, 69, 64
5, 89280, Note_off_c, 3, 64, 64
5, 89280, Note_off_c, 3, 64, 64
5, 89280, Note_off_c, 3, 63, 64
5, 89280, Note_on_c, 3, 64, 100
5, 89280, Note_on_c, 3, 64, 100
5, 89280, Note_on_c, 3, 69, 100
5, 89520, Note_off_c, 3, 69, 64
5, 89520, Note_off_c, 3, 64, 64
5, 89520, Note_off_c, 3, 64, 64
5, 89520, Note_on_c, 3, 69, 100
5, 89520, Note_on_c, 3, 64, 100
5, 89760, Note_off_c, 3, 64, 64
5, 89760, Note_off_c, 3, 69, 64
5, 89760, Note_on_c, 3, 62, 100
5, 90000, Note_off_c, 3, 62, 64
5, 90000, Note_on_c, 3, 60, 100
5, 90240, Note_off_c, 3, 60, 64
5, 90240, Note_on_c, 3, 61, 100
5, 90240, Note_on_c, 3, 64, 100
5, 90240, Note_on_c, 3, 69, 100
5, 90480, Note_off_c, 3, 69, 64
5, 90480, Note_off_c, 3, 64, 64
5, 90480, Note_off_c, 3, 61, 64
5, 90480, Note_on_c, 3, 57, 100
5, 90720, Note_off_c, 3, 57, 64
5, 90720, Note_on_c, 3, 62, 100
5, 90720, Note_on_c, 3, 66, 100
5, 90960, Note_off_c, 3, 66, 64
5, 90960, Note_off_c, 3, 62, 64
5, 90960, Note_on_c, 3, 60, 100
5, 90960, Note_on_c, 3, 64, 100
5, 91200, Note_off_c, 3, 64, 64
5, 91200, Note_off_c, 3, 60, 64
5, 91200, Note_on_c, 3, 61, 100
5, 91200, Note_on_c, 3, 64, 100
5, 91200, Note_on_c, 3, 69, 100
5, 91440, Note_off_c, 3, 69, 64
5, 91440, Note_off_c, 3, 64, 64
5, 91440, Note_off_c, 3, 61, 64
5, 91440, Note_on_c, 3, 57, 100
5, 91680, Note_off_c, 3, 57, 64
5, 91680, Note_on_c, 3, 62, 100
5, 91800, Note_on_c, 3, 62, 100
5, 91860, Note_off_c, 3, 62, 64
5, 91860, Note_on_c, 3, 63, 100
5, 91920, Note_off_c, 3, 62, 64
5, 91920, Note_off_c, 3, 63, 64
5, 91920, Note_on_c, 3, 64, 100
5, 92400, Note_off_c, 3, 64, 64
5, 92400, Note_on_c, 3, 69, 100
5, 92640, Note_off_c, 3, 69, 64
5, 92640, Note_on_c, 3, 62, 100
5, 92880, Note_off_c, 3, 62, 64
5, 92880, Note_on_c, 3, 60, 100
5, 93120, Note_off_c, 3, 60, 64
5, 93120, Note_on_c, 3, 62, 100
5, 93360, Note_off_c, 3, 62, 64
5, 93360, Note_on_c, 3, 64, 100
5, 93600, Note_off_c, 3, 64, 64
5, 93600, Note_on_c, 3, 69, 100
5, 93600, Note_on_c, 3, 64, 100
5, 93840, Note_off_c, 3, 64, 64
5, 93840, Note_off_c, 3, 69, 64
5, 93840, Note_on_c, 3, 69, 100
5, 93840, Note_on_c, 3, 64, 100
5, 94080, Note_off_c, 3, 64, 64
5, 94080, Note_off_c, 3, 69, 64
5, 94080, Note_on_c, 3, 72, 100
5, 94080, Note_on_c, 3, 67, 100
5, 94320, Note_off_c, 3, 67, 64
5, 94320, Note_off_c, 3, 72, 64
5, 94320, Note_on_c, 3, 71, 100
5, 94320, Note_on_c, 3, 66, 100
5, 94560, Note_off_c, 3, 66, 64
5, 94560, Note_off_c, 3, 71, 64
5, 94560, Note_on_c, 3, 69, 100
5, 94560, Note_on_c, 3, 64, 100
5, 94800, Note_off_c, 3, 64, 64
5, 94800, Note_off_c, 3, 69, 64
5, 94800, Note_on_c, 3, 63, 100
5, 94800, Note_on_c, 3, 67, 100
5, 95040, Note_off_c, 3, 67, 64
5, 95040, Note_off_c, 3, 63, 64
5, 95040, Note_on_c, 3, 62, 100
5, 95040, Note_on_c, 3, 66, 100
5, 95280, Note_off_c, 3, 66, 64
5, 95280, Note_off_c, 3, 62, 64
5, 95280, Note_on_c, 3, 61, 100
5, 95280, Note_on_c, 3, 64, 100
5, 95520, Note_off_c, 3, 64, 64
5, 95520, Note_off_c, 3, 61, 64
5, 95520, Note_on_c, 3, 57, 100
5, 95760, Note_off_c, 3, 57, 64
5, 95760, Note_on_c, 3, 61, 100
5, 95760, Note_on_c, 3, 64, 100
5, 95760, Note_on_c, 3, 69, 100
5, 96000, Note_off_c, 3, 69, 64
5, 96000, Note_off_c, 3, 64, 64
5, 96000, Note_off_c, 3, 61, 64
5, 96000, Note_on_c, 3, 64, 100
5, 96000, Note_on_c, 3, 64, 100
5, 96240, Note_off_c, 3, 64, 64
5, 96240, Note_off_c, 3, 64, 64
5, 96240, Note_on_c, 3, 69, 100
5, 96240, Note_on_c, 3, 64, 100
5, 96480, Note_off_c, 3, 64, 64
5, 96480, Note_off_c, 3, 69, 64
5, 96480, Note_on_c, 3, 69, 100
5, 96480, Note_on_c, 3, 64, 100
5, 96600, Note_on_c, 3, 62, 100
5, 96660, Note_off_c, 3, 62, 64
5, 96660, Note_on_c, 3, 63, 100
5, 96720, Note_off_c, 3, 64, 64
5, 96720, Note_off_c, 3, 69, 64
5, 96720, Note_off_c, 3, 63, 64
5, 96720, Note_on_c, 3, 64, 100
5, 96960, Note_off_c, 3, 64, 64
5, 96960, Note_on_c, 3, 69, 100
5, 96960, Note_on_c, 3, 64, 100
5, 97200, Note_off_c, 3, 64, 64
5, 97200, Note_off_c, 3, 69, 64
5, 97200, Note_on_c, 3, 69, 100
5, 97200, Note_on_c, 3, 64, 100
5, 97440, Note_off_c, 3, 64, 64
5, 97440, Note_off_c, 3, 69, 64
5, 97440, Note_on_c, 3, 62, 100
5, 97680, Note_off_c, 3, 62, 64
5, 97680, Note_on_c, 3, 60, 100
5, 97920, Note_off_c, 3, 60, 64
5, 97920, Note_on_c, 3, 61, 100
5, 97920, Note_on_c, 3, 64, 100
5, 97920, Note_on_c, 3, 69, 100
5, 98160, Note_off_c, 3, 69, 64
5, 98160, Note_off_c, 3, 64, 64
5, 98160, Note_off_c, 3, 61, 64
5, 98160, Note_on_c, 3, 57, 100
5, 98160, Note_on_c, 3, 61, 100
5, 98400, Note_off_c, 3, 61, 64
5, 98400, Note_off_c, 3, 57, 64
5, 98400, Note_on_c, 3, 66, 100
5, 98400, Note_on_c, 3, 62, 100
5, 98640, Note_off_c, 3, 62, 64
5, 98640, Note_off_c, 3, 66, 64
5, 98640, Note_on_c, 3, 69, 100
5, 98640, Note_on_c, 3, 64, 100
5, 98640, Note_on_c, 3, 60, 100
5, 98880, Note_off_c, 3, 60, 64
5, 98880, Note_off_c, 3, 64, 64
5, 98880, Note_off_c, 3, 69, 64
5, 98880, Note_on_c, 3, 61, 100
5, 99120, Note_off_c, 3, 61, 64
5, 99120, Note_on_c, 3, 61, 100
5, 99360, Note_off_c, 3, 61, 64
5, 99360, Note_on_c, 3, 66, 100
5, 99360, Note_on_c, 3, 62, 100
5, 99600, Note_off_c, 3, 62, 64
5, 99600, Note_off_c, 3, 66, 64
5, 99600, Note_on_c, 3, 69, 100
5, 99600, Note_on_c, 3, 64, 100
5, 99600, Note_on_c, 3, 60, 100
5, 99840, Note_off_c, 3, 60, 64
5, 99840, Note_off_c, 3, 64, 64
5, 99840, Note_off_c, 3, 69, 64
5, 99840, Note_on_c, 3, 61, 100
5, 100080, Note_off_c, 3, 61, 64
5, 100080, Note_on_c, 3, 57, 100
5, 100320, Note_off_c, 3, 57, 64
5, 100320, Note_on_c, 3, 52, 100
5, 100320, Note_on_c, 3, 56, 100
5, 100320, Note_on_c, 3, 62, 100
5, 100560, Note_off_c, 3, 62, 64
5, 100560, Note_off_c, 3, 56, 64
5, 100560, Note_off_c, 3, 52, 64
5, 100560, Note_on_c, 3, 52, 100
5, 100560, Note_on_c, 3, 56, 100
5, 100560, Note_on_c, 3, 62, 100
5, 100800, Note_off_c, 3, 62, 64
5, 100800, Note_off_c, 3, 56, 64
5, 100800, Note_off_c, 3, 52, 64
5, 100980, Note_on_c, 3, 72, 100
5, 100980, Note_on_c, 3, 67, 100
5, 100980, Note_on_c, 3, 63, 100
5, 101040, Note_off_c, 3, 63, 64
5, 101040, Note_off_c, 3, 67, 64
5, 101040, Note_off_c, 3, 72, 64
5, 101040, Note_on_c, 3, 73, 100
5, 101040, Note_on_c, 3, 68, 100
5, 101040, Note_on_c, 3, 64, 100
5, 101280, Note_off_c, 3, 64, 64
5, 101280, Note_off_c, 3, 68, 64
5, 101280, Note_off_c, 3, 73, 64
5, 101520, Note_on_c, 3, 50, 100
5, 101700, Note_on_c, 3, 72, 100
5, 101700, Note_on_c, 3, 67, 100
5, 101700, Note_on_c, 3, 63, 100
5, 101760, Note_off_c, 3, 63, 64
5, 101760, Note_off_c, 3, 67, 64
5, 101760, Note_off_c, 3, 72, 64
5, 101760, Note_off_c, 3, 50, 64
5, 101760, Note_on_c, 3, 64, 100
5, 101760, Note_on_c, 3, 68, 100
5, 101760, Note_on_c, 3, 73, 100
5, 102240, Note_off_c, 3, 73, 64
5, 102240, Note_off_c, 3, 68, 64
5, 102240, Note_off_c, 3, 64, 64
5, 102240, Note_on_c, 3, 50, 100
5, 102420, Note_on_c, 3, 63, 100
5, 102420, Note_on_c, 3, 67, 100
5, 102420, Note_on_c, 3, 72, 100
5, 102480, Note_off_c, 3, 72, 64
5, 102480, Note_off_c, 3, 67, 64
5, 102480, Note_off_c, 3, 63, 64
5, 102480, Note_off_c, 3, 50, 64
5, 102480, Note_on_c, 3, 64, 100
5, 102480, Note_on_c, 3, 68, 100
5, 102480, Note_on_c, 3, 73, 100
5, 102720, Note_off_c, 3, 73, 64
5, 102720, Note_off_c, 3, 68, 64
5, 102720, Note_off_c, 3, 64, 64
5, 102960, Note_on_c, 3, 50, 100
5, 103200, Note_off_c, 3, 50, 64
5, 103200, Note_on_c, 3, 50, 100
5, 103380, Note_on_c, 3, 72, 100
5, 103380, Note_on_c, 3, 67, 100
5, 103380, Note_on_c, 3, 63, 100
5, 103440, Note_off_c, 3, 63, 64
5, 103440, Note_off_c, 3, 67, 64
5, 103440, Note_off_c, 3, 72, 64
5, 103440, Note_off_c, 3, 50, 64
5, 103440, Note_on_c, 3, 64, 100
5, 103440, Note_on_c, 3, 68, 100
5, 103440, Note_on_c, 3, 73, 100
5, 103680, Note_off_c, 3, 73, 64
5, 103680, Note_off_c, 3, 68, 64
5, 103680, Note_off_c, 3, 64, 64
5, 103920, Note_on_c, 3, 50, 100
5, 104100, Note_on_c, 3, 72, 100
5, 104100, Note_on_c, 3, 67, 100
5, 104100, Note_on_c, 3, 63, 100
5, 104160, Note_off_c, 3, 63, 64
5, 104160, Note_off_c, 3, 67, 64
5, 104160, Note_off_c, 3, 72, 64
5, 104160, Note_off_c, 3, 50, 64
5, 104160, Note_on_c, 3, 64, 100
5, 104160, Note_on_c, 3, 68, 100
5, 104160, Note_on_c, 3, 73, 100
5, 104400, Note_off_c, 3, 73, 64
5, 104400, Note_off_c, 3, 68, 64
5, 104400, Note_off_c, 3, 64, 64
5, 104400, Note_on_c, 3, 50, 100
5, 104580, Note_on_c, 3, 72, 100
5, 104580, Note_on_c, 3, 67, 100
5, 104580, Note_on_c, 3, 63, 100
5, 104640, Note_off_c, 3, 63, 64
5, 104640, Note_off_c, 3, 67, 64
5, 104640, Note_off_c, 3, 72, 64
5, 104640, Note_off_c, 3, 50, 64
5, 104640, Note_on_c, 3, 64, 100
5, 104640, Note_on_c, 3, 68, 100
5, 104640, Note_on_c, 3, 73, 100
5, 104820, Note_on_c, 3, 72, 100
5, 104820, Note_on_c, 3, 67, 100
5, 104820, Note_on_c, 3, 63, 100
5, 104880, Note_off_c, 3, 63, 64
5, 104880, Note_off_c, 3, 67, 64
5, 104880, Note_off_c, 3, 72, 64
5, 104880, Note_off_c, 3, 73, 64
5, 104880, Note_off_c, 3, 68, 64
5, 104880, Note_off_c, 3, 64, 64
5, 104880, Note_on_c, 3, 64, 100
5, 104880, Note_on_c, 3, 68, 100
5, 104880, Note_on_c, 3, 73, 100
5, 105120, Note_off_c, 3, 73, 64
5, 105120, Note_off_c, 3, 68, 64
5, 105120, Note_off_c, 3, 64, 64
5, 105120, Note_on_c, 3, 50, 100
5, 105360, Note_off_c, 3, 50, 64
5, 105360, Note_on_c, 3, 50, 100
5, 105540, Note_on_c, 3, 72, 100
5, 105540, Note_on_c, 3, 67, 100
5, 105540, Note_on_c, 3, 63, 100
5, 105600, Note_off_c, 3, 63, 64
5, 105600, Note_off_c, 3, 67, 64
5, 105600, Note_off_c, 3, 72, 64
5, 105600, Note_off_c, 3, 50, 64
5, 105600, Note_on_c, 3, 64, 100
5, 105600, Note_on_c, 3, 68, 100
5, 105600, Note_on_c, 3, 73, 100
5, 106080, Note_off_c, 3, 73, 64
5, 106080, Note_off_c, 3, 68, 64
5, 106080, Note_off_c, 3, 64, 64
5, 106080, Note_on_c, 3, 50, 100
5, 106260, Note_on_c, 3, 72, 100
5, 106260, Note_on_c, 3, 67, 100
5, 106260, Note_on_c, 3, 63, 100
5, 106320, Note_off_c, 3, 63, 64
5, 106320, Note_off_c, 3, 67, 64
5, 106320, Note_off_c, 3, 72, 64
5, 106320, Note_off_c, 3, 50, 64
5, 106320, Note_on_c, 3, 73, 100
5, 106320, Note_on_c, 3, 68, 100
5, 106320, Note_on_c, 3, 64, 100
5, 106560, Note_off_c, 3, 64, 64
5, 106560, Note_off_c, 3, 68, 64
5, 106560, Note_off_c, 3, 73, 64
5, 106560, Note_on_c, 3, 50, 100
5, 106800, Note_off_c, 3, 50, 64
5, 107280, Note_on_c, 3, 66, 100
5, 107280, Note_on_c, 3, 71, 100
5, 107280, Note_on_c, 3, 76, 100
5, 107760, Note_off_c, 3, 76, 64
5, 107760, Note_off_c, 3, 71, 64
5, 107760, Note_off_c, 3, 66, 64
5, 107760, Note_on_c, 3, 76, 100
5, 107760, Note_on_c, 3, 71, 100
5, 107760, Note_on_c, 3, 66, 100
5, 108000, Note_off_c, 3, 66, 64
5, 108000, Note_off_c, 3, 71, 64
5, 108000, Note_off_c, 3, 76, 64
5, 108000, Note_on_c, 3, 75, 100
5, 108000, Note_on_c, 3, 70, 100
5, 108000, Note_on_c, 3, 65, 100
5, 108240, Note_off_c, 3, 65, 64
5, 108240, Note_off_c, 3, 70, 64
5, 108240, Note_off_c, 3, 75, 64
5, 108240, Note_on_c, 3, 76, 100
5, 108240, Note_on_c, 3, 71, 100
5, 108240, Note_on_c, 3, 66, 100
5, 108480, Note_off_c, 3, 66, 64
5, 108480, Note_off_c, 3, 71, 64
5, 108480, Note_off_c, 3, 76, 64
5, 108480, Note_on_c, 3, 77, 100
5, 108480, Note_on_c, 3, 72, 100
5, 108480, Note_on_c, 3, 67, 100
5, 108720, Note_off_c, 3, 67, 64
5, 108720, Note_off_c, 3, 72, 64
5, 108720, Note_off_c, 3, 77, 64
5, 108720, Note_on_c, 3, 78, 100
5, 108720, Note_on_c, 3, 73, 100
5, 108720, Note_on_c, 3, 68, 100
5, 108960, Note_off_c, 3, 68, 64
5, 108960, Note_off_c, 3, 73, 64
5, 108960, Note_off_c, 3, 78, 64
5, 108960, Note_on_c, 3, 79, 100
5, 108960, Note_on_c, 3, 74, 100
5, 108960, Note_on_c, 3, 69, 100
5, 109200, Note_off_c, 3, 69, 64
5, 109200, Note_off_c, 3, 74, 64
5, 109200, Note_off_c, 3, 79, 64
5, 109200, Note_on_c, 3, 80, 100
5, 109200, Note_on_c, 3, 75, 100
5, 109200, Note_on_c, 3, 70, 100
5, 109440, Note_off_c, 3, 70, 64
5, 109440, Note_off_c, 3, 75, 64
5, 109440, Note_off_c, 3, 80, 64
5, 109440, Note_on_c, 3, 71, 100
5, 109440, Note_on_c, 3, 76, 100
5, 109440, Note_on_c, 3, 81, 100
5, 109920, Note_off_c, 3, 81, 64
5, 109920, Note_off_c, 3, 76, 64
5, 109920, Note_off_c, 3, 71, 64
5, 109920, Note_on_c, 3, 71, 100
5, 109920, Note_on_c, 3, 76, 100
5, 109920, Note_on_c, 3, 81, 100
5, 110400, Note_off_c, 3, 81, 64
5, 110400, Note_off_c, 3, 76, 64
5, 110400, Note_off_c, 3, 71, 64
5, 110400, Note_on_c, 3, 69, 100
5, 110400, Note_on_c, 3, 74, 100
5, 110400, Note_on_c, 3, 80, 100
5, 110640, Note_off_c, 3, 80, 64
5, 110640, Note_off_c, 3, 74, 64
5, 110640, Note_off_c, 3, 69, 64
5, 110640, Note_on_c, 3, 71, 100
5, 110640, Note_on_c, 3, 76, 100
5, 110640, Note_on_c, 3, 81, 100
5, 111120, Note_off_c, 3, 81, 64
5, 111120, Note_off_c, 3, 76, 64
5, 111120, Note_off_c, 3, 71, 64
5, 111120, Note_on_c, 3, 71, 100
5, 111120, Note_on_c, 3, 76, 100
5, 111120, Note_on_c, 3, 81, 100
5, 111360, Note_off_c, 3, 81, 64
5, 111360, Note_off_c, 3, 76, 64
5, 111360, Note_off_c, 3, 71, 64
5, 111840, Note_on_c, 3, 71, 100
5, 111840, Note_on_c, 3, 76, 100
5, 111840, Note_on_c, 3, 81, 100
5, 112320, Note_off_c, 3, 81, 64
5, 112320, Note_off_c, 3, 76, 64
5, 112320, Note_off_c, 3, 71, 64
5, 112320, Note_on_c, 3, 71, 100
5, 112320, Note_on_c, 3, 76, 100
5, 112320, Note_on_c, 3, 81, 100
5, 112560, Note_off_c, 3, 81, 64
5, 112560, Note_off_c, 3, 76, 64
5, 112560, Note_off_c, 3, 71, 64
5, 112560, Note_on_c, 3, 71, 100
5, 112560, Note_on_c, 3, 76, 100
5, 112560, Note_on_c, 3, 81, 100
5, 112800, Note_off_c, 3, 81, 64
5, 112800, Note_off_c, 3, 76, 64
5, 112800, Note_off_c, 3, 71, 64
5, 113040, Note_on_c, 3, 71, 100
5, 113040, Note_on_c, 3, 73, 100
5, 113040, Note_on_c, 3, 81, 100
5, 113520, Note_off_c, 3, 81, 64
5, 113520, Note_off_c, 3, 73, 64
5, 113520, Note_off_c, 3, 71, 64
5, 113760, Note_on_c, 3, 71, 100
5, 113760, Note_on_c, 3, 73, 100
5, 113760, Note_on_c, 3, 81, 100
5, 114000, Note_off_c, 3, 81, 64
5, 114000, Note_off_c, 3, 73, 64
5, 114000, Note_off_c, 3, 71, 64
5, 114000, Note_on_c, 3, 71, 100
5, 114000, Note_on_c, 3, 73, 100
5, 114000, Note_on_c, 3, 81, 100
5, 114240, Note_off_c, 3, 81, 64
5, 114240, Note_off_c, 3, 73, 64
5, 114240, Note_off_c, 3, 71, 64
5, 114240, Note_on_c, 3, 71, 100
5, 114240, Note_on_c, 3, 73, 100
5, 114240, Note_on_c, 3, 81, 100
5, 114480, Note_off_c, 3, 81, 64
5, 114480, Note_off_c, 3, 73, 64
5, 114480, Note_off_c, 3, 71, 64
5, 114480, Note_on_c, 3, 71, 100
5, 114480, Note_on_c, 3, 73, 100
5, 114480, Note_on_c, 3, 81, 100
5, 114720, Note_off_c, 3, 81, 64
5, 114720, Note_off_c, 3, 73, 64
5, 114720, Note_off_c, 3, 71, 64
5, 114960, Note_on_c, 3, 71, 100
5, 114960, Note_on_c, 3, 73, 100
5, 114960, Note_on_c, 3, 81, 100
5, 115440, Note_off_c, 3, 81, 64
5, 115440, Note_off_c, 3, 73, 64
5, 115440, Note_off_c, 3, 71, 64
5, 115440, Note_on_c, 3, 69, 100
5, 115440, Note_on_c, 3, 64, 100
5, 115680, Note_off_c, 3, 64, 64
5, 115680, Note_off_c, 3, 69, 64
5, 115680, Note_on_c, 3, 69, 100
5, 115680, Note_on_c, 3, 64, 100
5, 115920, Note_off_c, 3, 64, 64
5, 115920, Note_off_c, 3, 69, 64
5, 115920, Note_on_c, 3, 69, 100
5, 115920, Note_on_c, 3, 64, 100
5, 116040, Note_on_c, 3, 62, 100
5, 116100, Note_off_c, 3, 62, 64
5, 116100, Note_on_c, 3, 63, 100
5, 116160, Note_off_c, 3, 64, 64
5, 116160, Note_off_c, 3, 69, 64
5, 116160, Note_off_c, 3, 63, 64
5, 116160, Note_on_c, 3, 64, 100
5, 116400, Note_off_c, 3, 64, 64
5, 116400, Note_on_c, 3, 69, 100
5, 116400, Note_on_c, 3, 64, 100
5, 116640, Note_off_c, 3, 64, 64
5, 116640, Note_off_c, 3, 69, 64
5, 116640, Note_on_c, 3, 69, 100
5, 116640, Note_on_c, 3, 64, 100
5, 116880, Note_off_c, 3, 64, 64
5, 116880, Note_off_c, 3, 69, 64
5, 116880, Note_on_c, 3, 69, 100
5, 116880, Note_on_c, 3, 64, 100
5, 117120, Note_off_c, 3, 64, 64
5, 117120, Note_off_c, 3, 69, 64
5, 117120, Note_on_c, 3, 67, 100
5, 117120, Note_on_c, 3, 72, 100
5, 117360, Note_off_c, 3, 72, 64
5, 117360, Note_off_c, 3, 67, 64
5, 117360, Note_on_c, 3, 71, 100
5, 117360, Note_on_c, 3, 66, 100
5, 117600, Note_off_c, 3, 66, 64
5, 117600, Note_off_c, 3, 71, 64
5, 117600, Note_on_c, 3, 69, 100
5, 117600, Note_on_c, 3, 64, 100
5, 117840, Note_off_c, 3, 64, 64
5, 117840, Note_off_c, 3, 69, 64
5, 117840, Note_on_c, 3, 67, 100
5, 117840, Note_on_c, 3, 63, 100
5, 118080, Note_off_c, 3, 63, 64
5, 118080, Note_off_c, 3, 67, 64
5, 118080, Note_on_c, 3, 66, 100
5, 118080, Note_on_c, 3, 62, 100
5, 118320, Note_off_c, 3, 62, 64
5, 118320, Note_off_c, 3, 66, 64
5, 118320, Note_on_c, 3, 64, 100
5, 118320, Note_on_c, 3, 60, 100
5, 118560, Note_off_c, 3, 60, 64
5, 118560, Note_off_c, 3, 64, 64
5, 118560, Note_on_c, 3, 57, 100
5, 118800, Note_off_c, 3, 57, 64
5, 118800, Note_on_c, 3, 64, 100
5, 118800, Note_on_c, 3, 60, 100
5, 119040, Note_off_c, 3, 60, 64
5, 119040, Note_off_c, 3, 64, 64
5, 119040, Note_on_c, 3, 57, 100
5, 119160, Note_on_c, 3, 62, 100
5, 119220, Note_off_c, 3, 62, 64
5, 119220, Note_on_c, 3, 63, 100
5, 119280, Note_off_c, 3, 57, 64
5, 119280, Note_off_c, 3, 63, 64
5, 119280, Note_on_c, 3, 64, 100
5, 119280, Note_on_c, 3, 64, 100
5, 119520, Note_off_c, 3, 64, 64
5, 119520, Note_off_c, 3, 64, 64
5, 119760, Note_on_c, 3, 69, 100
5, 119760, Note_on_c, 3, 64, 100
5, 119880, Note_on_c, 3, 62, 100
5, 119940, Note_off_c, 3, 62, 64
5, 119940, Note_on_c, 3, 63, 100
5, 120000, Note_off_c, 3, 64, 64
5, 120000, Note_off_c, 3, 69, 64
5, 120000, Note_off_c, 3, 63, 64
5, 120000, Note_on_c, 3, 64, 100
5, 120000, Note_on_c, 3, 64, 100
5, 120240, Note_off_c, 3, 64, 64
5, 120240, Note_off_c, 3, 64, 64
5, 120240, Note_on_c, 3, 69, 100
5, 120240, Note_on_c, 3, 64, 100
5, 120480, Note_off_c, 3, 64, 64
5, 120480, Note_off_c, 3, 69, 64
5, 120480, Note_on_c, 3, 62, 100
5, 120480, Note_on_c, 3, 66, 100
5, 120720, Note_off_c, 3, 66, 64
5, 120720, Note_off_c, 3, 62, 64
5, 120720, Note_on_c, 3, 60, 100
5, 120720, Note_on_c, 3, 64, 100
5, 120960, Note_off_c, 3, 64, 64
5, 120960, Note_off_c, 3, 60, 64
5, 120960, Note_on_c, 3, 61, 100
5, 121200, Note_off_c, 3, 61, 64
5, 121200, Note_on_c, 3, 57, 100
5, 121440, Note_off_c, 3, 57, 64
5, 121440, Note_on_c, 3, 62, 100
5, 121440, Note_on_c, 3, 66, 100
5, 121680, Note_off_c, 3, 66, 64
5, 121680, Note_off_c, 3, 62, 64
5, 121680, Note_on_c, 3, 60, 100
5, 121680, Note_on_c, 3, 64, 100
5, 121680, Note_on_c, 3, 69, 100
5, 121920, Note_off_c, 3, 69, 64
5, 121920, Note_off_c, 3, 64, 64
5, 121920, Note_off_c, 3, 60, 64
5, 121920, Note_on_c, 3, 61, 100
5, 122160, Note_off_c, 3, 61, 64
5, 122160, Note_on_c, 3, 57, 100
5, 122400, Note_off_c, 3, 57, 64
5, 122400, Note_on_c, 3, 62, 100
5, 122400, Note_on_c, 3, 66, 100
5, 122640, Note_off_c, 3, 66, 64
5, 122640, Note_off_c, 3, 62, 64
5, 122640, Note_on_c, 3, 60, 100
5, 122640, Note_on_c, 3, 64, 100
5, 122640, Note_on_c, 3, 69, 100
5, 122880, Note_off_c, 3, 69, 64
5, 122880, Note_off_c, 3, 64, 64
5, 122880, Note_off_c, 3, 60, 64
5, 122880, Note_on_c, 3, 60, 100
5, 123120, Note_off_c, 3, 60, 64
5, 123120, Note_on_c, 3, 57, 100
5, 123360, Note_off_c, 3, 57, 64
5, 123360, Note_on_c, 3, 52, 100
5, 123600, Note_off_c, 3, 52, 64
5, 123600, Note_on_c, 3, 64, 100
5, 123600, Note_on_c, 3, 62, 100
5, 123600, Note_on_c, 3, 56, 100
5, 123840, Note_off_c, 3, 56, 64
5, 123840, Note_off_c, 3, 62, 64
5, 123840, Note_off_c, 3, 64, 64
5, 123840, Note_on_c, 3, 45, 100
5, 124080, Note_off_c, 3, 45, 64
5, 124080, Note_on_c, 3, 45, 100
5, 124320, Note_off_c, 3, 45, 64
5, 124320, Note_on_c, 3, 71, 100
5, 124320, Note_on_c, 3, 73, 100
5, 124320, Note_on_c, 3, 81, 100
5, 124560, Note_off_c, 3, 81, 64
5, 124560, Note_off_c, 3, 73, 64
5, 124560, Note_off_c, 3, 71, 64
5, 124560, Note_on_c, 3, 45, 100
5, 124800, Note_off_c, 3, 45, 64
5, 124800, Note_on_c, 3, 45, 100
5, 125040, Note_off_c, 3, 45, 64
5, 125040, Note_on_c, 3, 45, 100
5, 125280, Note_off_c, 3, 45, 64
5, 125280, Note_on_c, 3, 81, 100
5, 125280, Note_on_c, 3, 73, 100
5, 125280, Note_on_c, 3, 71, 100
5, 125520, Note_off_c, 3, 71, 64
5, 125520, Note_off_c, 3, 73, 64
5, 125520, Note_off_c, 3, 81, 64
5, 125520, Note_on_c, 3, 45, 100
5, 125760, Note_off_c, 3, 45, 64
5, 125760, Note_on_c, 3, 81, 100
5, 125760, Note_on_c, 3, 73, 100
5, 125760, Note_on_c, 3, 71, 100
5, 126000, Note_off_c, 3, 71, 64
5, 126000, Note_off_c, 3, 73, 64
5, 126000, Note_off_c, 3, 81, 64
5, 126000, Note_on_c, 3, 71, 100
5, 126000, Note_on_c, 3, 73, 100
5, 126000, Note_on_c, 3, 81, 100
5, 126240, Note_off_c, 3, 81, 64
5, 126240, Note_off_c, 3, 73, 64
5, 126240, Note_off_c, 3, 71, 64
5, 126240, Note_on_c, 3, 45, 100
5, 126480, Note_off_c, 3, 45, 64
5, 126480, Note_on_c, 3, 45, 100
5, 126720, Note_off_c, 3, 45, 64
5, 126720, Note_on_c, 3, 71, 100
5, 126720, Note_on_c, 3, 73, 100
5, 126720, Note_on_c, 3, 81, 100
5, 126960, Note_off_c, 3, 81, 64
5, 126960, Note_off_c, 3, 73, 64
5, 126960, Note_off_c, 3, 71, 64
5, 126960, Note_on_c, 3, 45, 100
5, 127200, Note_off_c, 3, 45, 64
5, 127200, Note_on_c, 3, 45, 100
5, 127440, Note_off_c, 3, 45, 64
5, 127440, Note_on_c, 3, 81, 100
5, 127440, Note_on_c, 3, 73, 100
5, 127440, Note_on_c, 3, 71, 100
5, 127680, Note_off_c, 3, 71, 64
5, 127680, Note_off_c, 3, 73, 64
5, 127680, Note_off_c, 3, 81, 64
5, 127680, Note_on_c, 3, 45, 100
5, 127920, Note_off_c, 3, 45, 64
5, 127920, Note_on_c, 3, 45, 100
5, 128160, Note_off_c, 3, 45, 64
5, 128160, Note_on_c, 3, 81, 100
5, 128160, Note_on_c, 3, 73, 100
5, 128160, Note_on_c, 3, 71, 100
5, 128400, Note_off_c, 3, 71, 64
5, 128400, Note_off_c, 3, 73, 64
5, 128400, Note_off_c, 3, 81, 64
5, 128400, Note_on_c, 3, 81, 100
5, 128400, Note_on_c, 3, 73, 100
5, 128400, Note_on_c, 3, 71, 100
5, 128640, Note_off_c, 3, 71, 64
5, 128640, Note_off_c, 3, 73, 64
5, 128640, Note_off_c, 3, 81, 64
5, 128640, Note_on_c, 3, 45, 100
5, 128880, Note_off_c, 3, 45, 64
5, 128880, Note_on_c, 3, 45, 100
5, 129120, Note_off_c, 3, 45, 64
5, 129120, Note_on_c, 3, 71, 100
5, 129120, Note_on_c, 3, 73, 100
5, 129120, Note_on_c, 3, 81, 100
5, 129360, Note_off_c, 3, 81, 64
5, 129360, Note_off_c, 3, 73, 64
5, 129360, Note_off_c, 3, 71, 64
5, 129360, Note_on_c, 3, 45, 100
5, 129600, Note_off_c, 3, 45, 64
5, 129600, Note_on_c, 3, 71, 100
5, 129600, Note_on_c, 3, 73, 100
5, 129600, Note_on_c, 3, 81, 100
5, 129840, Note_off_c, 3, 81, 64
5, 129840, Note_off_c, 3, 73, 64
5, 129840, Note_off_c, 3, 71, 64
5, 129840, Note_on_c, 3, 71, 100
5, 129840, Note_on_c, 3, 73, 100
5, 129840, Note_on_c, 3, 81, 100
5, 130080, Note_off_c, 3, 81, 64
5, 130080, Note_off_c, 3, 73, 64
5, 130080, Note_off_c, 3, 71, 64
5, 130080, Note_on_c, 3, 45, 100
5, 130320, Note_off_c, 3, 45, 64
5, 130320, Note_on_c, 3, 45, 100
5, 130560, Note_off_c, 3, 45, 64
5, 130560, Note_on_c, 3, 71, 100
5, 130560, Note_on_c, 3, 73, 100
5, 130560, Note_on_c, 3, 81, 100
5, 130800, Note_off_c, 3, 81, 64
5, 130800, Note_off_c, 3, 73, 64
5, 130800, Note_off_c, 3, 71, 64
5, 130800, Note_on_c, 3, 45, 100
5, 131040, Note_off_c, 3, 45, 64
5, 131040, Note_on_c, 3, 45, 100
5, 131280, Note_off_c, 3, 45, 64
5, 131280, Note_on_c, 3, 71, 100
5, 131280, Note_on_c, 3, 73, 100
5, 131280, Note_on_c, 3, 81, 100
5, 131280, Note_on_c, 3, 45, 100
5, 131520, Note_off_c, 3, 45, 64
5, 131520, Note_off_c, 3, 81, 64
5, 131520, Note_off_c, 3, 73, 64
5, 131520, Note_off_c, 3, 71, 64
5, 131520, Note_on_c, 3, 45, 100
5, 131760, Note_off_c, 3, 45, 64
5, 131760, Note_on_c, 3, 45, 100
5, 132000, Note_off_c, 3, 45, 64
5, 132000, Note_on_c, 3, 71, 100
5, 132000, Note_on_c, 3, 73, 100
5, 132000, Note_on_c, 3, 81, 100
5, 132240, Note_off_c, 3, 81, 64
5, 132240, Note_off_c, 3, 73, 64
5, 132240, Note_off_c, 3, 71, 64
5, 132240, Note_on_c, 3, 71, 100
5, 132240, Note_on_c, 3, 73, 100
5, 132240, Note_on_c, 3, 81, 100
5, 132480, Note_off_c, 3, 81, 64
5, 132480, Note_off_c, 3, 73, 64
5, 132480, Note_off_c, 3, 71, 64
5, 132480, Note_on_c, 3, 45, 100
5, 132720, Note_off_c, 3, 45, 64
5, 132720, Note_on_c, 3, 45, 100
5, 132960, Note_off_c, 3, 45, 64
5, 132960, Note_on_c, 3, 71, 100
5, 132960, Note_on_c, 3, 73, 100
5, 132960, Note_on_c, 3, 81, 100
5, 133200, Note_off_c, 3, 81, 64
5, 133200, Note_off_c, 3, 73, 64
5, 133200, Note_off_c, 3, 71, 64
5, 133200, Note_on_c, 3, 71, 100
5, 133200, Note_on_c, 3, 73, 100
5, 133200, Note_on_c, 3, 81, 100
5, 133440, Note_off_c, 3, 81, 64
5, 133440, Note_off_c, 3, 73, 64
5, 133440, Note_off_c, 3, 71, 64
5, 133440, Note_on_c, 3, 70, 100
5, 133440, Note_on_c, 3, 72, 100
5, 133440, Note_on_c, 3, 80, 100
5, 133680, Note_off_c, 3, 80, 64
5, 133680, Note_off_c, 3, 72, 64
5, 133680, Note_off_c, 3, 70, 64
5, 133680, Note_on_c, 3, 71, 100
5, 133680, Note_on_c, 3, 73, 100
5, 133680, Note_on_c, 3, 81, 100
5, 133920, Note_off_c, 3, 81, 64
5, 133920, Note_off_c, 3, 73, 64
5, 133920, Note_off_c, 3, 71, 64
5, 133920, Note_on_c, 3, 45, 100
5, 134160, Note_off_c, 3, 45, 64
5, 134160, Note_on_c, 3, 45, 100
5, 134400, Note_off_c, 3, 45, 64
5, 134400, Note_on_c, 3, 71, 100
5, 134400, Note_on_c, 3, 73, 100
5, 134400, Note_on_c, 3, 81, 100
5, 134640, Note_off_c, 3, 81, 64
5, 134640, Note_off_c, 3, 73, 64
5, 134640, Note_off_c, 3, 71, 64
5, 134640, Note_on_c, 3, 70, 100
5, 134640, Note_on_c, 3, 72, 100
5, 134640, Note_on_c, 3, 80, 100
5, 134880, Note_off_c, 3, 80, 64
5, 134880, Note_off_c, 3, 72, 64
5, 134880, Note_off_c, 3, 70, 64
5, 134880, Note_on_c, 3, 71, 100
5, 134880, Note_on_c, 3, 73, 100
5, 134880, Note_on_c, 3, 81, 100
5, 135120, Note_off_c, 3, 81, 64
5, 135120, Note_off_c, 3, 73, 64
5, 135120, Note_off_c, 3, 71, 64
5, 135120, Note_on_c, 3, 45, 100
5, 135360, Note_off_c, 3, 45, 64
5, 135360, Note_on_c, 3, 70, 100
5, 135360, Note_on_c, 3, 72, 100
5, 135360, Note_on_c, 3, 80, 100
5, 135600, Note_off_c, 3, 80, 64
5, 135600, Note_off_c, 3, 72, 64
5, 135600, Note_off_c, 3, 70, 64
5, 135600, Note_on_c, 3, 71, 100
5, 135600, Note_on_c, 3, 73, 100
5, 135600, Note_on_c, 3, 81, 100
5, 135840, Note_off_c, 3, 81, 64
5, 135840, Note_off_c, 3, 73, 64
5, 135840, Note_off_c, 3, 71, 64
5, 135840, Note_on_c, 3, 70, 100
5, 135840, Note_on_c, 3, 72, 100
5, 135840, Note_on_c, 3, 80, 100
5, 136080, Note_off_c, 3, 80, 64
5, 136080, Note_off_c, 3, 72, 64
5, 136080, Note_off_c, 3, 70, 64
5, 136080, Note_on_c, 3, 71, 100
5, 136080, Note_on_c, 3, 73, 100
5, 136080, Note_on_c, 3, 81, 100
5, 136320, Note_off_c, 3, 81, 64
5, 136320, Note_off_c, 3, 73, 64
5, 136320, Note_off_c, 3, 71, 64
5, 136320, Note_on_c, 3, 45, 100
5, 136560, Note_off_c, 3, 45, 64
5, 136560, Note_on_c, 3, 45, 100
5, 136800, Note_off_c, 3, 45, 64
5, 136800, Note_on_c, 3, 71, 100
5, 136800, Note_on_c, 3, 73, 100
5, 136800, Note_on_c, 3, 81, 100
5, 137040, Note_off_c, 3, 81, 64
5, 137040, Note_off_c, 3, 73, 64
5, 137040, Note_off_c, 3, 71, 64
5, 137040, Note_on_c, 3, 45, 100
5, 137280, Note_off_c, 3, 45, 64
5, 137280, Note_on_c, 3, 71, 100
5, 137280, Note_on_c, 3, 73, 100
5, 137280, Note_on_c, 3, 81, 100
5, 137520, Note_off_c, 3, 81, 64
5, 137520, Note_off_c, 3, 73, 64
5, 137520, Note_off_c, 3, 71, 64
5, 137520, Note_on_c, 3, 71, 100
5, 137520, Note_on_c, 3, 73, 100
5, 137520, Note_on_c, 3, 81, 100
5, 137760, Note_off_c, 3, 81, 64
5, 137760, Note_off_c, 3, 73, 64
5, 137760, Note_off_c, 3, 71, 64
5, 137760, Note_on_c, 3, 45, 100
5, 138000, Note_off_c, 3, 45, 64
5, 138000, Note_on_c, 3, 71, 100
5, 138000, Note_on_c, 3, 73, 100
5, 138000, Note_on_c, 3, 81, 100
5, 138480, Note_off_c, 3, 81, 64
5, 138480, Note_off_c, 3, 73, 64
5, 138480, Note_off_c, 3, 71, 64
5, 138480, Note_on_c, 3, 64, 100
5, 138480, Note_on_c, 3, 69, 100
5, 138720, Note_off_c, 3, 69, 64
5, 138720, Note_off_c, 3, 64, 64
5, 138720, Note_on_c, 3, 64, 100
5, 138720, Note_on_c, 3, 69, 100
5, 138840, Note_on_c, 3, 62, 100
5, 138900, Note_off_c, 3, 62, 64
5, 138900, Note_on_c, 3, 63, 100
5, 138960, Note_off_c, 3, 69, 64
5, 138960, Note_off_c, 3, 64, 64
5, 138960, Note_off_c, 3, 63, 64
5, 138960, Note_on_c, 3, 64, 100
5, 138960, Note_on_c, 3, 64, 100
5, 139440, Note_off_c, 3, 64, 64
5, 139440, Note_off_c, 3, 64, 64
5, 139440, Note_on_c, 3, 69, 100
5, 139440, Note_on_c, 3, 64, 100
5, 139680, Note_off_c, 3, 64, 64
5, 139680, Note_off_c, 3, 69, 64
5, 139680, Note_on_c, 3, 69, 100
5, 139680, Note_on_c, 3, 64, 100
5, 139920, Note_off_c, 3, 64, 64
5, 139920, Note_off_c, 3, 69, 64
5, 139920, Note_on_c, 3, 69, 100
5, 139920, Note_on_c, 3, 64, 100
5, 140160, Note_off_c, 3, 64, 64
5, 140160, Note_off_c, 3, 69, 64
5, 140160, Note_on_c, 3, 67, 100
5, 140160, Note_on_c, 3, 72, 100
5, 140400, Note_off_c, 3, 72, 64
5, 140400, Note_off_c, 3, 67, 64
5, 140400, Note_on_c, 3, 71, 100
5, 140400, Note_on_c, 3, 66, 100
5, 140640, Note_off_c, 3, 66, 64
5, 140640, Note_off_c, 3, 71, 64
5, 140640, Note_on_c, 3, 69, 100
5, 140640, Note_on_c, 3, 64, 100
5, 140880, Note_off_c, 3, 64, 64
5, 140880, Note_off_c, 3, 69, 64
5, 140880, Note_on_c, 3, 67, 100
5, 140880, Note_on_c, 3, 63, 100
5, 141120, Note_off_c, 3, 63, 64
5, 141120, Note_off_c, 3, 67, 64
5, 141120, Note_on_c, 3, 66, 100
5, 141120, Note_on_c, 3, 62, 100
5, 141360, Note_off_c, 3, 62, 64
5, 141360, Note_off_c, 3, 66, 64
5, 141360, Note_on_c, 3, 64, 100
5, 141360, Note_on_c, 3, 60, 100
5, 141600, Note_off_c, 3, 60, 64
5, 141600, Note_off_c, 3, 64, 64
5, 141600, Note_on_c, 3, 57, 100
5, 141840, Note_off_c, 3, 57, 64
5, 141840, Note_on_c, 3, 64, 100
5, 141840, Note_on_c, 3, 60, 100
5, 141960, Note_on_c, 3, 62, 100
5, 142020, Note_off_c, 3, 62, 64
5, 142020, Note_on_c, 3, 63, 100
5, 142080, Note_off_c, 3, 60, 64
5, 142080, Note_off_c, 3, 64, 64
5, 142080, Note_off_c, 3, 63, 64
5, 142080, Note_on_c, 3, 64, 100
5, 142080, Note_on_c, 3, 64, 100
5, 142320, Note_off_c, 3, 64, 64
5, 142320, Note_off_c, 3, 64, 64
5, 142320, Note_on_c, 3, 69, 100
5, 142320, Note_on_c, 3, 64, 100
5, 142560, Note_off_c, 3, 64, 64
5, 142560, Note_off_c, 3, 69, 64
5, 142560, Note_on_c, 3, 69, 100
5, 142560, Note_on_c, 3, 64, 100
5, 142680, Note_on_c, 3, 62, 100
5, 142740, Note_off_c, 3, 62, 64
5, 142740, Note_on_c, 3, 63, 100
5, 142800, Note_off_c, 3, 64, 64
5, 142800, Note_off_c, 3, 69, 64
5, 142800, Note_off_c, 3, 63, 64
5, 142800, Note_on_c, 3, 64, 100
5, 142800, Note_on_c, 3, 64, 100
5, 143040, Note_off_c, 3, 64, 64
5, 143040, Note_off_c, 3, 64, 64
5, 143040, Note_on_c, 3, 69, 100
5, 143040, Note_on_c, 3, 64, 100
5, 143280, Note_off_c, 3, 64, 64
5, 143280, Note_off_c, 3, 69, 64
5, 143280, Note_on_c, 3, 69, 100
5, 143280, Note_on_c, 3, 64, 100
5, 143520, Note_off_c, 3, 64, 64
5, 143520, Note_off_c, 3, 69, 64
5, 143520, Note_on_c, 3, 66, 100
5, 143520, Note_on_c, 3, 62, 100
5, 143760, Note_off_c, 3, 62, 64
5, 143760, Note_off_c, 3, 66, 64
5, 143760, Note_on_c, 3, 64, 100
5, 143760, Note_on_c, 3, 60, 100
5, 144000, Note_off_c, 3, 60, 64
5, 144000, Note_off_c, 3, 64, 64
5, 144000, Note_on_c, 3, 61, 100
5, 144000, Note_on_c, 3, 64, 100
5, 144000, Note_on_c, 3, 69, 100
5, 144240, Note_off_c, 3, 69, 64
5, 144240, Note_off_c, 3, 64, 64
5, 144240, Note_off_c, 3, 61, 64
5, 144240, Note_on_c, 3, 57, 100
5, 144240, Note_on_c, 3, 61, 100
5, 144480, Note_off_c, 3, 61, 64
5, 144480, Note_off_c, 3, 57, 64
5, 144480, Note_on_c, 3, 62, 100
5, 144480, Note_on_c, 3, 66, 100
5, 144720, Note_off_c, 3, 66, 64
5, 144720, Note_off_c, 3, 62, 64
5, 144720, Note_on_c, 3, 60, 100
5, 144720, Note_on_c, 3, 64, 100
5, 144720, Note_on_c, 3, 69, 100
5, 144960, Note_off_c, 3, 69, 64
5, 144960, Note_off_c, 3, 64, 64
5, 144960, Note_off_c, 3, 60, 64
5, 144960, Note_on_c, 3, 61, 100
5, 145200, Note_off_c, 3, 61, 64
5, 145200, Note_on_c, 3, 57, 100
5, 145200, Note_on_c, 3, 61, 100
5, 145440, Note_off_c, 3, 61, 64
5, 145440, Note_off_c, 3, 57, 64
5, 145440, Note_on_c, 3, 62, 100
5, 145440, Note_on_c, 3, 66, 100
5, 145680, Note_off_c, 3, 66, 64
5, 145680, Note_off_c, 3, 62, 64
5, 145680, Note_on_c, 3, 60, 100
5, 145680, Note_on_c, 3, 64, 100
5, 145680, Note_on_c, 3, 69, 100
5, 145920, Note_off_c, 3, 69, 64
5, 145920, Note_off_c, 3, 64, 64
5, 145920, Note_off_c, 3, 60, 64
5, 145920, Note_on_c, 3, 61, 100
5, 146160, Note_off_c, 3, 61, 64
5, 146160, Note_on_c, 3, 57, 100
5, 146160, Note_on_c, 3, 61, 100
5, 146400, Note_off_c, 3, 61, 64
5, 146400, Note_off_c, 3, 57, 64
5, 146400, Note_on_c, 3, 52, 100
5, 146400, Note_on_c, 3, 56, 100
5, 146400, Note_on_c, 3, 62, 100
5, 146400, Note_on_c, 3, 64, 100
5, 146640, Note_off_c, 3, 64, 64
5, 146640, Note_off_c, 3, 62, 64
5, 146640, Note_off_c, 3, 56, 64
5, 146640, Note_off_c, 3, 52, 64
5, 146640, Note_on_c, 3, 52, 100
5, 146640, Note_on_c, 3, 56, 100
5, 146640, Note_on_c, 3, 62, 100
5, 146640, Note_on_c, 3, 64, 100
5, 147120, Note_off_c, 3, 64, 64
5, 147120, Note_off_c, 3, 62, 64
5, 147120, Note_off_c, 3, 56, 64
5, 147120, Note_off_c, 3, 52, 64
5, 147120, Note_on_c, 3, 52, 100
5, 147120, Note_on_c, 3, 56, 100
5, 147120, Note_on_c, 3, 62, 100
5, 147120, Note_on_c, 3, 64, 100
5, 147360, Note_off_c, 3, 64, 64
5, 147360, Note_off_c, 3, 62, 64
5, 147360, Note_off_c, 3, 56, 64
5, 147360, Note_off_c, 3, 52, 64
5, 147360, Note_on_c, 3, 52, 100
5, 147600, Note_off_c, 3, 52, 64
5, 147600, Note_on_c, 3, 64, 100
5, 147600, Note_on_c, 3, 62, 100
5, 147600, Note_on_c, 3, 56, 100
5, 147840, Note_off_c, 3, 56, 64
5, 147840, Note_off_c, 3, 62, 64
5, 147840, Note_off_c, 3, 64, 64
5, 147840, Note_on_c, 3, 57, 100
5, 147840, Note_on_c, 3, 50, 100
5, 148080, Note_off_c, 3, 50, 64
5, 148080, Note_off_c, 3, 57, 64
5, 148080, Note_on_c, 3, 57, 100
5, 148080, Note_on_c, 3, 50, 100
5, 148320, Note_off_c, 3, 50, 64
5, 148320, Note_off_c, 3, 57, 64
5, 148320, Note_on_c, 3, 59, 100
5, 148320, Note_on_c, 3, 50, 100
5, 148560, Note_off_c, 3, 50, 64
5, 148560, Note_off_c, 3, 59, 64
5, 148560, Note_on_c, 3, 57, 100
5, 148560, Note_on_c, 3, 50, 100
5, 148800, Note_off_c, 3, 50, 64
5, 148800, Note_off_c, 3, 57, 64
5, 148800, Note_on_c, 3, 60, 100
5, 148800, Note_on_c, 3, 50, 100
5, 149040, Note_off_c, 3, 50, 64
5, 149040, Note_off_c, 3, 60, 64
5, 149040, Note_on_c, 3, 57, 100
5, 149040, Note_on_c, 3, 50, 100
5, 149280, Note_off_c, 3, 50, 64
5, 149280, Note_off_c, 3, 57, 64
5, 149280, Note_on_c, 3, 59, 100
5, 149280, Note_on_c, 3, 50, 100
5, 149520, Note_off_c, 3, 50, 64
5, 149520, Note_off_c, 3, 59, 64
5, 149520, Note_on_c, 3, 57, 100
5, 149520, Note_on_c, 3, 50, 100
5, 149760, Note_off_c, 3, 50, 64
5, 149760, Note_off_c, 3, 57, 64
5, 149760, Note_on_c, 3, 60, 100
5, 149760, Note_on_c, 3, 50, 100
5, 150000, Note_off_c, 3, 50, 64
5, 150000, Note_off_c, 3, 60, 64
5, 150000, Note_on_c, 3, 57, 100
5, 150000, Note_on_c, 3, 50, 100
5, 150240, Note_off_c, 3, 50, 64
5, 150240, Note_off_c, 3, 57, 64
5, 150240, Note_on_c, 3, 59, 100
5, 150240, Note_on_c, 3, 50, 100
5, 150480, Note_off_c, 3, 50, 64
5, 150480, Note_off_c, 3, 59, 64
5, 150480, Note_on_c, 3, 57, 100
5, 150480, Note_on_c, 3, 50, 100
5, 150720, Note_off_c, 3, 50, 64
5, 150720, Note_off_c, 3, 57, 64
5, 150720, Note_on_c, 3, 60, 100
5, 150720, Note_on_c, 3, 50, 100
5, 150960, Note_off_c, 3, 50, 64
5, 150960, Note_off_c, 3, 60, 64
5, 150960, Note_on_c, 3, 57, 100
5, 150960, Note_on_c, 3, 50, 100
5, 151200, Note_off_c, 3, 50, 64
5, 151200, Note_off_c, 3, 57, 64
5, 151200, Note_on_c, 3, 59, 100
5, 151200, Note_on_c, 3, 50, 100
5, 151440, Note_off_c, 3, 50, 64
5, 151440, Note_off_c, 3, 59, 64
5, 151440, Note_on_c, 3, 69, 100
5, 151440, Note_on_c, 3, 74, 100
5, 151680, Note_off_c, 3, 74, 64
5, 151680, Note_off_c, 3, 69, 64
5, 151680, Note_on_c, 3, 52, 100
5, 151680, Note_on_c, 3, 45, 100
5, 151920, Note_off_c, 3, 45, 64
5, 151920, Note_off_c, 3, 52, 64
5, 151920, Note_on_c, 3, 52, 100
5, 151920, Note_on_c, 3, 45, 100
5, 152160, Note_off_c, 3, 45, 64
5, 152160, Note_off_c, 3, 52, 64
5, 152160, Note_on_c, 3, 54, 100
5, 152160, Note_on_c, 3, 45, 100
5, 152400, Note_off_c, 3, 45, 64
5, 152400, Note_off_c, 3, 54, 64
5, 152400, Note_on_c, 3, 52, 100
5, 152400, Note_on_c, 3, 45, 100
5, 152640, Note_off_c, 3, 45, 64
5, 152640, Note_off_c, 3, 52, 64
5, 152640, Note_on_c, 3, 55, 100
5, 152640, Note_on_c, 3, 45, 100
5, 152880, Note_off_c, 3, 45, 64
5, 152880, Note_off_c, 3, 55, 64
5, 152880, Note_on_c, 3, 55, 100
5, 152880, Note_on_c, 3, 45, 100
5, 153120, Note_off_c, 3, 45, 64
5, 153120, Note_off_c, 3, 55, 64
5, 153120, Note_on_c, 3, 54, 100
5, 153120, Note_on_c, 3, 45, 100
5, 153360, Note_off_c, 3, 45, 64
5, 153360, Note_off_c, 3, 54, 64
5, 153360, Note_on_c, 3, 52, 100
5, 153360, Note_on_c, 3, 45, 100
5, 153600, Note_off_c, 3, 45, 64
5, 153600, Note_off_c, 3, 52, 64
5, 153600, Note_on_c, 3, 55, 100
5, 153600, Note_on_c, 3, 45, 100
5, 153840, Note_off_c, 3, 45, 64
5, 153840, Note_off_c, 3, 55, 64
5, 153840, Note_on_c, 3, 55, 100
5, 153840, Note_on_c, 3, 45, 100
5, 154080, Note_off_c, 3, 45, 64
5, 154080, Note_off_c, 3, 55, 64
5, 154080, Note_on_c, 3, 54, 100
5, 154080, Note_on_c, 3, 45, 100
5, 154320, Note_off_c, 3, 45, 64
5, 154320, Note_off_c, 3, 54, 64
5, 154320, Note_on_c, 3, 52, 100
5, 154320, Note_on_c, 3, 45, 100
5, 154560, Note_off_c, 3, 45, 64
5, 154560, Note_off_c, 3, 52, 64
5, 154560, Note_on_c, 3, 55, 100
5, 154560, Note_on_c, 3, 45, 100
5, 154800, Note_off_c, 3, 45, 64
5, 154800, Note_off_c, 3, 55, 64
5, 154800, Note_on_c, 3, 55, 100
5, 154800, Note_on_c, 3, 45, 100
5, 155040, Note_off_c, 3, 45, 64
5, 155040, Note_off_c, 3, 55, 64
5, 155040, Note_on_c, 3, 54, 100
5, 155040, Note_on_c, 3, 45, 100
5, 155280, Note_off_c, 3, 45, 64
5, 155280, Note_off_c, 3, 54, 64
5, 155280, Note_on_c, 3, 52, 100
5, 155280, Note_on_c, 3, 45, 100
5, 155520, Note_off_c, 3, 45, 64
5, 155520, Note_off_c, 3, 52, 64
5, 155520, Note_on_c, 3, 57, 100
5, 155520, Note_on_c, 3, 50, 100
5, 155760, Note_off_c, 3, 50, 64
5, 155760, Note_off_c, 3, 57, 64
5, 155760, Note_on_c, 3, 57, 100
5, 155760, Note_on_c, 3, 50, 100
5, 156000, Note_off_c, 3, 50, 64
5, 156000, Note_off_c, 3, 57, 64
5, 156000, Note_on_c, 3, 59, 100
5, 156000, Note_on_c, 3, 50, 100
5, 156240, Note_off_c, 3, 50, 64
5, 156240, Note_off_c, 3, 59, 64
5, 156240, Note_on_c, 3, 57, 100
5, 156240, Note_on_c, 3, 50, 100
5, 156480, Note_off_c, 3, 50, 64
5, 156480, Note_off_c, 3, 57, 64
5, 156480, Note_on_c, 3, 60, 100
5, 156480, Note_on_c, 3, 50, 100
5, 156720, Note_off_c, 3, 50, 64
5, 156720, Note_off_c, 3, 60, 64
5, 156720, Note_on_c, 3, 57, 100
5, 156720, Note_on_c, 3, 50, 100
5, 156960, Note_off_c, 3, 50, 64
5, 156960, Note_off_c, 3, 57, 64
5, 156960, Note_on_c, 3, 59, 100
5, 156960, Note_on_c, 3, 50, 100
5, 157200, Note_off_c, 3, 50, 64
5, 157200, Note_off_c, 3, 59, 64
5, 157200, Note_on_c, 3, 57, 100
5, 157200, Note_on_c, 3, 50, 100
5, 157440, Note_off_c, 3, 50, 64
5, 157440, Note_off_c, 3, 57, 64
5, 157440, Note_on_c, 3, 60, 100
5, 157440, Note_on_c, 3, 50, 100
5, 157680, Note_off_c, 3, 50, 64
5, 157680, Note_off_c, 3, 60, 64
5, 157680, Note_on_c, 3, 57, 100
5, 157680, Note_on_c, 3, 50, 100
5, 157920, Note_off_c, 3, 50, 64
5, 157920, Note_off_c, 3, 57, 64
5, 157920, Note_on_c, 3, 59, 100
5, 157920, Note_on_c, 3, 50, 100
5, 158160, Note_off_c, 3, 50, 64
5, 158160, Note_off_c, 3, 59, 64
5, 158160, Note_on_c, 3, 57, 100
5, 158160, Note_on_c, 3, 50, 100
5, 158400, Note_off_c, 3, 50, 64
5, 158400, Note_off_c, 3, 57, 64
5, 158400, Note_on_c, 3, 60, 100
5, 158400, Note_on_c, 3, 50, 100
5, 158640, Note_off_c, 3, 50, 64
5, 158640, Note_off_c, 3, 60, 64
5, 158640, Note_on_c, 3, 57, 100
5, 158640, Note_on_c, 3, 50, 100
5, 158880, Note_off_c, 3, 50, 64
5, 158880, Note_off_c, 3, 57, 64
5, 158880, Note_on_c, 3, 59, 100
5, 158880, Note_on_c, 3, 50, 100
5, 159120, Note_off_c, 3, 50, 64
5, 159120, Note_off_c, 3, 59, 64
5, 159120, Note_on_c, 3, 57, 100
5, 159120, Note_on_c, 3, 50, 100
5, 159360, Note_off_c, 3, 50, 64
5, 159360, Note_off_c, 3, 57, 64
5, 159360, Note_on_c, 3, 52, 100
5, 159600, Note_off_c, 3, 52, 64
5, 159600, Note_on_c, 3, 52, 100
5, 159600, Note_on_c, 3, 56, 100
5, 159600, Note_on_c, 3, 62, 100
5, 159600, Note_on_c, 3, 64, 100
5, 160080, Note_off_c, 3, 64, 64
5, 160080, Note_off_c, 3, 62, 64
5, 160080, Note_off_c, 3, 56, 64
5, 160080, Note_off_c, 3, 52, 64
5, 160080, Note_on_c, 3, 52, 100
5, 160320, Note_off_c, 3, 52, 64
5, 160320, Note_on_c, 3, 52, 100
5, 160320, Note_on_c, 3, 56, 100
5, 160320, Note_on_c, 3, 62, 100
5, 160320, Note_on_c, 3, 64, 100
5, 160560, Note_off_c, 3, 64, 64
5, 160560, Note_off_c, 3, 62, 64
5, 160560, Note_off_c, 3, 56, 64
5, 160560, Note_off_c, 3, 52, 64
5, 160560, Note_on_c, 3, 52, 100
5, 160560, Note_on_c, 3, 56, 100
5, 160560, Note_on_c, 3, 62, 100
5, 160560, Note_on_c, 3, 64, 100
5, 160800, Note_off_c, 3, 64, 64
5, 160800, Note_off_c, 3, 62, 64
5, 160800, Note_off_c, 3, 56, 64
5, 160800, Note_off_c, 3, 52, 64
5, 160800, Note_on_c, 3, 52, 100
5, 160800, Note_on_c, 3, 56, 100
5, 160800, Note_on_c, 3, 62, 100
5, 160800, Note_on_c, 3, 64, 100
5, 161040, Note_off_c, 3, 64, 64
5, 161040, Note_off_c, 3, 62, 64
5, 161040, Note_off_c, 3, 56, 64
5, 161040, Note_off_c, 3, 52, 64
5, 161040, Note_on_c, 3, 52, 100
5, 161040, Note_on_c, 3, 56, 100
5, 161040, Note_on_c, 3, 62, 100
5, 161040, Note_on_c, 3, 64, 100
5, 161280, Note_off_c, 3, 64, 64
5, 161280, Note_off_c, 3, 62, 64
5, 161280, Note_off_c, 3, 56, 64
5, 161280, Note_off_c, 3, 52, 64
5, 161280, Note_on_c, 3, 52, 100
5, 161520, Note_off_c, 3, 52, 64
5, 161520, Note_on_c, 3, 52, 100
5, 161520, Note_on_c, 3, 56, 100
5, 161520, Note_on_c, 3, 62, 100
5, 161520, Note_on_c, 3, 64, 100
5, 162000, Note_off_c, 3, 64, 64
5, 162000, Note_off_c, 3, 62, 64
5, 162000, Note_off_c, 3, 56, 64
5, 162000, Note_off_c, 3, 52, 64
5, 162000, Note_on_c, 3, 52, 100
5, 162240, Note_off_c, 3, 52, 64
5, 162240, Note_on_c, 3, 52, 100
5, 162240, Note_on_c, 3, 56, 100
5, 162240, Note_on_c, 3, 62, 100
5, 162240, Note_on_c, 3, 64, 100
5, 162480, Note_off_c, 3, 64, 64
5, 162480, Note_off_c, 3, 62, 64
5, 162480, Note_off_c, 3, 56, 64
5, 162480, Note_off_c, 3, 52, 64
5, 162480, Note_on_c, 3, 52, 100
5, 162480, Note_on_c, 3, 56, 100
5, 162480, Note_on_c, 3, 62, 100
5, 162480, Note_on_c, 3, 64, 100
5, 162720, Note_off_c, 3, 64, 64
5, 162720, Note_off_c, 3, 62, 64
5, 162720, Note_off_c, 3, 56, 64
5, 162720, Note_off_c, 3, 52, 64
5, 162720, Note_on_c, 3, 52, 100
5, 162720, Note_on_c, 3, 56, 100
5, 162720, Note_on_c, 3, 62, 100
5, 162720, Note_on_c, 3, 64, 100
5, 163200, Note_off_c, 3, 64, 64
5, 163200, Note_off_c, 3, 62, 64
5, 163200, Note_off_c, 3, 56, 64
5, 163200, Note_off_c, 3, 52, 64
5, 163200, Note_on_c, 3, 52, 100
5, 163200, Note_on_c, 3, 45, 100
5, 163440, Note_off_c, 3, 45, 64
5, 163440, Note_off_c, 3, 52, 64
5, 163440, Note_on_c, 3, 52, 100
5, 163440, Note_on_c, 3, 45, 100
5, 163680, Note_off_c, 3, 45, 64
5, 163680, Note_off_c, 3, 52, 64
5, 163680, Note_on_c, 3, 54, 100
5, 163680, Note_on_c, 3, 45, 100
5, 163920, Note_off_c, 3, 45, 64
5, 163920, Note_off_c, 3, 54, 64
5, 163920, Note_on_c, 3, 52, 100
5, 163920, Note_on_c, 3, 45, 100
5, 164160, Note_off_c, 3, 45, 64
5, 164160, Note_off_c, 3, 52, 64
5, 164160, Note_on_c, 3, 55, 100
5, 164160, Note_on_c, 3, 45, 100
5, 164400, Note_off_c, 3, 45, 64
5, 164400, Note_off_c, 3, 55, 64
5, 164400, Note_on_c, 3, 55, 100
5, 164400, Note_on_c, 3, 45, 100
5, 164640, Note_off_c, 3, 45, 64
5, 164640, Note_off_c, 3, 55, 64
5, 164640, Note_on_c, 3, 54, 100
5, 164640, Note_on_c, 3, 45, 100
5, 164880, Note_off_c, 3, 45, 64
5, 164880, Note_off_c, 3, 54, 64
5, 164880, Note_on_c, 3, 52, 100
5, 164880, Note_on_c, 3, 45, 100
5, 165120, Note_off_c, 3, 45, 64
5, 165120, Note_off_c, 3, 52, 64
5, 165120, Note_on_c, 3, 55, 100
5, 165120, Note_on_c, 3, 45, 100
5, 165360, Note_off_c, 3, 45, 64
5, 165360, Note_off_c, 3, 55, 64
5, 165360, Note_on_c, 3, 55, 100
5, 165360, Note_on_c, 3, 45, 100
5, 165600, Note_off_c, 3, 45, 64
5, 165600, Note_off_c, 3, 55, 64
5, 165600, Note_on_c, 3, 54, 100
5, 165600, Note_on_c, 3, 45, 100
5, 165840, Note_off_c, 3, 45, 64
5, 165840, Note_off_c, 3, 54, 64
5, 165840, Note_on_c, 3, 52, 100
5, 165840, Note_on_c, 3, 45, 100
5, 166080, Note_off_c, 3, 45, 64
5, 166080, Note_off_c, 3, 52, 64
5, 166080, Note_on_c, 3, 55, 100
5, 166080, Note_on_c, 3, 45, 100
5, 166320, Note_off_c, 3, 45, 64
5, 166320, Note_off_c, 3, 55, 64
5, 166320, Note_on_c, 3, 55, 100
5, 166320, Note_on_c, 3, 45, 100
5, 166560, Note_off_c, 3, 45, 64
5, 166560, Note_off_c, 3, 55, 64
5, 166560, Note_on_c, 3, 54, 100
5, 166560, Note_on_c, 3, 45, 100
5, 166800, Note_off_c, 3, 45, 64
5, 166800, Note_off_c, 3, 54, 64
5, 166800, Note_on_c, 3, 49, 100
5, 166800, Note_on_c, 3, 55, 100
5, 166980, Note_on_c, 3, 50, 100
5, 166980, Note_on_c, 3, 57, 100
5, 167040, Note_off_c, 3, 57, 64
5, 167040, Note_off_c, 3, 50, 64
5, 167040, Note_off_c, 3, 55, 64
5, 167040, Note_off_c, 3, 49, 64
5, 167040, Note_on_c, 3, 57, 100
5, 167040, Note_on_c, 3, 50, 100
5, 167280, Note_off_c, 3, 50, 64
5, 167280, Note_off_c, 3, 57, 64
5, 167280, Note_on_c, 3, 57, 100
5, 167280, Note_on_c, 3, 50, 100
5, 167520, Note_off_c, 3, 50, 64
5, 167520, Note_off_c, 3, 57, 64
5, 167520, Note_on_c, 3, 59, 100
5, 167520, Note_on_c, 3, 50, 100
5, 167760, Note_off_c, 3, 50, 64
5, 167760, Note_off_c, 3, 59, 64
5, 167760, Note_on_c, 3, 57, 100
5, 167760, Note_on_c, 3, 50, 100
5, 168000, Note_off_c, 3, 50, 64
5, 168000, Note_off_c, 3, 57, 64
5, 168000, Note_on_c, 3, 60, 100
5, 168000, Note_on_c, 3, 50, 100
5, 168240, Note_off_c, 3, 50, 64
5, 168240, Note_off_c, 3, 60, 64
5, 168240, Note_on_c, 3, 60, 100
5, 168240, Note_on_c, 3, 50, 100
5, 168480, Note_off_c, 3, 50, 64
5, 168480, Note_off_c, 3, 60, 64
5, 168480, Note_on_c, 3, 59, 100
5, 168480, Note_on_c, 3, 50, 100
5, 168720, Note_off_c, 3, 50, 64
5, 168720, Note_off_c, 3, 59, 64
5, 168720, Note_on_c, 3, 57, 100
5, 168720, Note_on_c, 3, 50, 100
5, 168960, Note_off_c, 3, 50, 64
5, 168960, Note_off_c, 3, 57, 64
5, 168960, Note_on_c, 3, 60, 100
5, 168960, Note_on_c, 3, 50, 100
5, 169200, Note_off_c, 3, 50, 64
5, 169200, Note_off_c, 3, 60, 64
5, 169200, Note_on_c, 3, 60, 100
5, 169200, Note_on_c, 3, 50, 100
5, 169440, Note_off_c, 3, 50, 64
5, 169440, Note_off_c, 3, 60, 64
5, 169440, Note_on_c, 3, 59, 100
5, 169440, Note_on_c, 3, 50, 100
5, 169680, Note_off_c, 3, 50, 64
5, 169680, Note_off_c, 3, 59, 64
5, 169680, Note_on_c, 3, 57, 100
5, 169680, Note_on_c, 3, 50, 100
5, 169920, Note_off_c, 3, 50, 64
5, 169920, Note_off_c, 3, 57, 64
5, 169920, Note_on_c, 3, 60, 100
5, 169920, Note_on_c, 3, 50, 100
5, 170160, Note_off_c, 3, 50, 64
5, 170160, Note_off_c, 3, 60, 64
5, 170160, Note_on_c, 3, 60, 100
5, 170160, Note_on_c, 3, 50, 100
5, 170400, Note_off_c, 3, 50, 64
5, 170400, Note_off_c, 3, 60, 64
5, 170400, Note_on_c, 3, 59, 100
5, 170400, Note_on_c, 3, 50, 100
5, 170640, Note_off_c, 3, 50, 64
5, 170640, Note_off_c, 3, 59, 64
5, 170640, Note_on_c, 3, 74, 100
5, 170640, Note_on_c, 3, 69, 100
5, 170880, Note_off_c, 3, 69, 64
5, 170880, Note_off_c, 3, 74, 64
5, 170880, Note_on_c, 3, 52, 100
5, 170880, Note_on_c, 3, 45, 100
5, 171120, Note_off_c, 3, 45, 64
5, 171120, Note_off_c, 3, 52, 64
5, 171120, Note_on_c, 3, 52, 100
5, 171120, Note_on_c, 3, 45, 100
5, 171360, Note_off_c, 3, 45, 64
5, 171360, Note_off_c, 3, 52, 64
5, 171360, Note_on_c, 3, 54, 100
5, 171360, Note_on_c, 3, 45, 100
5, 171600, Note_off_c, 3, 45, 64
5, 171600, Note_off_c, 3, 54, 64
5, 171600, Note_on_c, 3, 52, 100
5, 171600, Note_on_c, 3, 45, 100
5, 171840, Note_off_c, 3, 45, 64
5, 171840, Note_off_c, 3, 52, 64
5, 171840, Note_on_c, 3, 55, 100
5, 171840, Note_on_c, 3, 45, 100
5, 172080, Note_off_c, 3, 45, 64
5, 172080, Note_off_c, 3, 55, 64
5, 172080, Note_on_c, 3, 55, 100
5, 172080, Note_on_c, 3, 45, 100
5, 172320, Note_off_c, 3, 45, 64
5, 172320, Note_off_c, 3, 55, 64
5, 172320, Note_on_c, 3, 54, 100
5, 172320, Note_on_c, 3, 45, 100
5, 172560, Note_off_c, 3, 45, 64
5, 172560, Note_off_c, 3, 54, 64
5, 172560, Note_on_c, 3, 52, 100
5, 172560, Note_on_c, 3, 45, 100
5, 172800, Note_off_c, 3, 45, 64
5, 172800, Note_off_c, 3, 52, 64
5, 172800, Note_on_c, 3, 55, 100
5, 172800, Note_on_c, 3, 45, 100
5, 173040, Note_off_c, 3, 45, 64
5, 173040, Note_off_c, 3, 55, 64
5, 173040, Note_on_c, 3, 55, 100
5, 173040, Note_on_c, 3, 45, 100
5, 173280, Note_off_c, 3, 45, 64
5, 173280, Note_off_c, 3, 55, 64
5, 173280, Note_on_c, 3, 54, 100
5, 173280, Note_on_c, 3, 45, 100
5, 173520, Note_off_c, 3, 45, 64
5, 173520, Note_off_c, 3, 54, 64
5, 173520, Note_on_c, 3, 52, 100
5, 173520, Note_on_c, 3, 45, 100
5, 173760, Note_off_c, 3, 45, 64
5, 173760, Note_off_c, 3, 52, 64
5, 173760, Note_on_c, 3, 55, 100
5, 173760, Note_on_c, 3, 45, 100
5, 174000, Note_off_c, 3, 45, 64
5, 174000, Note_off_c, 3, 55, 64
5, 174000, Note_on_c, 3, 55, 100
5, 174000, Note_on_c, 3, 45, 100
5, 174240, Note_off_c, 3, 45, 64
5, 174240, Note_off_c, 3, 55, 64
5, 174240, Note_on_c, 3, 54, 100
5, 174240, Note_on_c, 3, 45, 100
5, 174480, Note_off_c, 3, 45, 64
5, 174480, Note_off_c, 3, 54, 64
5, 174480, Note_on_c, 3, 52, 100
5, 174480, Note_on_c, 3, 45, 100
5, 174720, Note_off_c, 3, 45, 64
5, 174720, Note_off_c, 3, 52, 64
5, 174720, Note_on_c, 3, 52, 100
5, 174960, Note_off_c, 3, 52, 64
5, 174960, Note_on_c, 3, 52, 100
5, 174960, Note_on_c, 3, 56, 100
5, 174960, Note_on_c, 3, 62, 100
5, 174960, Note_on_c, 3, 64, 100
5, 175440, Note_off_c, 3, 64, 64
5, 175440, Note_off_c, 3, 62, 64
5, 175440, Note_off_c, 3, 56, 64
5, 175440, Note_off_c, 3, 52, 64
5, 175440, Note_on_c, 3, 52, 100
5, 175680, Note_off_c, 3, 52, 64
5, 175680, Note_on_c, 3, 52, 100
5, 175680, Note_on_c, 3, 56, 100
5, 175680, Note_on_c, 3, 62, 100
5, 175680, Note_on_c, 3, 64, 100
5, 175920, Note_off_c, 3, 64, 64
5, 175920, Note_off_c, 3, 62, 64
5, 175920, Note_off_c, 3, 56, 64
5, 175920, Note_off_c, 3, 52, 64
5, 175920, Note_on_c, 3, 52, 100
5, 175920, Note_on_c, 3, 56, 100
5, 175920, Note_on_c, 3, 62, 100
5, 175920, Note_on_c, 3, 64, 100
5, 176160, Note_off_c, 3, 64, 64
5, 176160, Note_off_c, 3, 62, 64
5, 176160, Note_off_c, 3, 56, 64
5, 176160, Note_off_c, 3, 52, 64
5, 176160, Note_on_c, 3, 52, 100
5, 176160, Note_on_c, 3, 56, 100
5, 176160, Note_on_c, 3, 62, 100
5, 176160, Note_on_c, 3, 64, 100
5, 176400, Note_off_c, 3, 64, 64
5, 176400, Note_off_c, 3, 62, 64
5, 176400, Note_off_c, 3, 56, 64
5, 176400, Note_off_c, 3, 52, 64
5, 176400, Note_on_c, 3, 52, 100
5, 176400, Note_on_c, 3, 56, 100
5, 176400, Note_on_c, 3, 62, 100
5, 176400, Note_on_c, 3, 64, 100
5, 176640, Note_off_c, 3, 64, 64
5, 176640, Note_off_c, 3, 62, 64
5, 176640, Note_off_c, 3, 56, 64
5, 176640, Note_off_c, 3, 52, 64
5, 176640, Note_on_c, 3, 52, 100
5, 176880, Note_off_c, 3, 52, 64
5, 176880, Note_on_c, 3, 52, 100
5, 176880, Note_on_c, 3, 56, 100
5, 176880, Note_on_c, 3, 62, 100
5, 176880, Note_on_c, 3, 64, 100
5, 177360, Note_off_c, 3, 64, 64
5, 177360, Note_off_c, 3, 62, 64
5, 177360, Note_off_c, 3, 56, 64
5, 177360, Note_off_c, 3, 52, 64
5, 177360, Note_on_c, 3, 52, 100
5, 177600, Note_off_c, 3, 52, 64
5, 177600, Note_on_c, 3, 52, 100
5, 177600, Note_on_c, 3, 56, 100
5, 177600, Note_on_c, 3, 62, 100
5, 177600, Note_on_c, 3, 64, 100
5, 177840, Note_off_c, 3, 64, 64
5, 177840, Note_off_c, 3, 62, 64
5, 177840, Note_off_c, 3, 56, 64
5, 177840, Note_off_c, 3, 52, 64
5, 177840, Note_on_c, 3, 52, 100
5, 177840, Note_on_c, 3, 56, 100
5, 177840, Note_on_c, 3, 62, 100
5, 177840, Note_on_c, 3, 64, 100
5, 178080, Note_off_c, 3, 64, 64
5, 178080, Note_off_c, 3, 62, 64
5, 178080, Note_off_c, 3, 56, 64
5, 178080, Note_off_c, 3, 52, 64
5, 178080, Note_on_c, 3, 52, 100
5, 178080, Note_on_c, 3, 56, 100
5, 178080, Note_on_c, 3, 62, 100
5, 178080, Note_on_c, 3, 64, 100
5, 178440, Note_on_c, 3, 69, 100
5, 178500, Note_off_c, 3, 69, 64
5, 178500, Note_on_c, 3, 70, 100
5, 178560, Note_off_c, 3, 64, 64
5, 178560, Note_off_c, 3, 62, 64
5, 178560, Note_off_c, 3, 56, 64
5, 178560, Note_off_c, 3, 52, 64
5, 178560, Note_off_c, 3, 70, 64
5, 178560, Note_on_c, 3, 71, 100
5, 178800, Note_off_c, 3, 71, 64
5, 178800, Note_on_c, 3, 76, 100
5, 178800, Note_on_c, 3, 71, 100
5, 178860, Note_off_c, 3, 71, 64
5, 178860, Note_off_c, 3, 76, 64
5, 179040, Note_on_c, 3, 76, 100
5, 179040, Note_on_c, 3, 71, 100
5, 179280, Note_off_c, 3, 71, 64
5, 179280, Note_off_c, 3, 76, 64
5, 179280, Note_on_c, 3, 76, 100
5, 179280, Note_on_c, 3, 71, 100
5, 179520, Note_off_c, 3, 71, 64
5, 179520, Note_off_c, 3, 76, 64
5, 179520, Note_on_c, 3, 76, 100
5, 179520, Note_on_c, 3, 71, 100
5, 179760, Note_off_c, 3, 71, 64
5, 179760, Note_off_c, 3, 76, 64
5, 179760, Note_on_c, 3, 76, 100
5, 179760, Note_on_c, 3, 71, 100
5, 179880, Note_on_c, 3, 72, 100
5, 179940, Note_off_c, 3, 72, 64
5, 179940, Note_on_c, 3, 73, 100
5, 180000, Note_off_c, 3, 71, 64
5, 180000, Note_off_c, 3, 76, 64
5, 180000, Note_off_c, 3, 73, 64
5, 180000, Note_on_c, 3, 79, 100
5, 180000, Note_on_c, 3, 74, 100
5, 180480, Note_off_c, 3, 74, 64
5, 180480, Note_off_c, 3, 79, 64
5, 180480, Note_on_c, 3, 74, 100
5, 180480, Note_on_c, 3, 69, 100
5, 180720, Note_off_c, 3, 69, 64
5, 180720, Note_off_c, 3, 74, 64
5, 180720, Note_on_c, 3, 74, 100
5, 180720, Note_on_c, 3, 69, 100
5, 180960, Note_off_c, 3, 69, 64
5, 180960, Note_off_c, 3, 74, 64
5, 180960, Note_on_c, 3, 74, 100
5, 180960, Note_on_c, 3, 69, 100
5, 181200, Note_off_c, 3, 69, 64
5, 181200, Note_off_c, 3, 74, 64
5, 181200, Note_on_c, 3, 74, 100
5, 181200, Note_on_c, 3, 69, 100
5, 181440, Note_off_c, 3, 69, 64
5, 181440, Note_off_c, 3, 74, 64
5, 181440, Note_on_c, 3, 74, 100
5, 181440, Note_on_c, 3, 69, 100
5, 181680, Note_off_c, 3, 69, 64
5, 181680, Note_off_c, 3, 74, 64
5, 181680, Note_on_c, 3, 74, 100
5, 181680, Note_on_c, 3, 69, 100
5, 181800, Note_on_c, 3, 70, 100
5, 181860, Note_off_c, 3, 70, 64
5, 181860, Note_on_c, 3, 71, 100
5, 181920, Note_off_c, 3, 69, 64
5, 181920, Note_off_c, 3, 74, 64
5, 181920, Note_off_c, 3, 71, 64
5, 181920, Note_on_c, 3, 77, 100
5, 181920, Note_on_c, 3, 72, 100
5, 182400, Note_off_c, 3, 72, 64
5, 182400, Note_off_c, 3, 77, 64
5, 182400, Note_on_c, 3, 69, 100
5, 182400, Note_on_c, 3, 64, 100
5, 182640, Note_off_c, 3, 64, 64
5, 182640, Note_off_c, 3, 69, 64
5, 182640, Note_on_c, 3, 72, 100
5, 182880, Note_off_c, 3, 72, 64
5, 182880, Note_on_c, 3, 69, 100
5, 183000, Note_on_c, 3, 67, 100
5, 183060, Note_off_c, 3, 67, 64
5, 183060, Note_on_c, 3, 68, 100
5, 183120, Note_off_c, 3, 69, 64
5, 183120, Note_off_c, 3, 68, 64
5, 183120, Note_on_c, 3, 69, 100
5, 183360, Note_off_c, 3, 69, 64
5, 183360, Note_on_c, 3, 64, 100
5, 183360, Note_on_c, 3, 69, 100
5, 183600, Note_off_c, 3, 69, 64
5, 183600, Note_off_c, 3, 64, 64
5, 183600, Note_on_c, 3, 63, 100
5, 183840, Note_off_c, 3, 63, 64
5, 183840, Note_on_c, 3, 62, 100
5, 184080, Note_off_c, 3, 62, 64
5, 184080, Note_on_c, 3, 60, 100
5, 184320, Note_off_c, 3, 60, 64
5, 184320, Note_on_c, 3, 57, 100
5, 184560, Note_off_c, 3, 57, 64
5, 184560, Note_on_c, 3, 56, 100
5, 184800, Note_off_c, 3, 56, 64
5, 184800, Note_on_c, 3, 52, 100
5, 185040, Note_off_c, 3, 52, 64
5, 185040, Note_on_c, 3, 76, 100
5, 185040, Note_on_c, 3, 71, 100
5, 185040, Note_on_c, 3, 66, 100
5, 185040, Note_on_c, 3, 61, 100
5, 185040, Note_on_c, 3, 57, 100
5, 190080, Note_off_c, 3, 57, 64
5, 190080, Note_off_c, 3, 61, 64
5, 190080, Note_off_c, 3, 66, 64
5, 190080, Note_off_c, 3, 71, 64
5, 190080, Note_off_c, 3, 76, 64
5, 190080, End_track
6, 0, Start_track
6, 0, Title_t, "Guitar"
6, 0, MIDI_port, 0
6, 0, Channel_prefix, 1
6, 0, Control_c, 1, 7, 109
6, 0, Control_c, 1, 10, 33
6, 0, Program_c, 1, 29
6, 45, Pitch_bend_c, 1, 8282
6, 45, Control_c, 1, 121, 0
6, 46, Control_c, 1, 91, 90
6, 48, Control_c, 1, 93, 80
6, 49, Control_c, 1, 2, 127
6, 53, Control_c, 1, 11, 127
6, 1200, Note_on_c, 1, 76, 100
6, 1200, Note_on_c, 1, 71, 100
6, 1440, Note_off_c, 1, 71, 64
6, 1440, Note_off_c, 1, 76, 64
6, 1440, Note_on_c, 1, 76, 100
6, 1440, Note_on_c, 1, 71, 100
6, 1680, Note_off_c, 1, 71, 64
6, 1680, Note_off_c, 1, 76, 64
6, 1680, Note_on_c, 1, 76, 100
6, 1680, Note_on_c, 1, 71, 100
6, 1920, Note_off_c, 1, 71, 64
6, 1920, Note_off_c, 1, 76, 64
6, 1920, Note_on_c, 1, 76, 100
6, 1920, Note_on_c, 1, 71, 100
6, 2160, Note_off_c, 1, 71, 64
6, 2160, Note_off_c, 1, 76, 64
6, 2160, Note_on_c, 1, 76, 100
6, 2160, Note_on_c, 1, 71, 100
6, 2400, Note_off_c, 1, 71, 64
6, 2400, Note_off_c, 1, 76, 64
6, 2400, Note_on_c, 1, 76, 100
6, 2400, Note_on_c, 1, 71, 100
6, 2640, Note_off_c, 1, 71, 64
6, 2640, Note_off_c, 1, 76, 64
6, 2640, Note_on_c, 1, 76, 100
6, 2640, Note_on_c, 1, 71, 100
6, 2760, Note_on_c, 1, 72, 100
6, 2820, Note_off_c, 1, 72, 64
6, 2820, Note_on_c, 1, 73, 100
6, 2880, Note_off_c, 1, 71, 64
6, 2880, Note_off_c, 1, 76, 64
6, 2880, Note_off_c, 1, 73, 64
6, 2880, Note_on_c, 1, 80, 100
6, 2880, Note_on_c, 1, 74, 100
6, 3360, Note_off_c, 1, 74, 64
6, 3360, Note_off_c, 1, 80, 64
6, 3840, Note_on_c, 1, 74, 100
6, 3840, Note_on_c, 1, 69, 100
6, 4080, Note_off_c, 1, 69, 64
6, 4080, Note_off_c, 1, 74, 64
6, 4080, Note_on_c, 1, 74, 100
6, 4080, Note_on_c, 1, 69, 100
6, 4320, Note_off_c, 1, 69, 64
6, 4320, Note_off_c, 1, 74, 64
6, 4320, Note_on_c, 1, 74, 100
6, 4320, Note_on_c, 1, 69, 100
6, 4560, Note_off_c, 1, 69, 64
6, 4560, Note_off_c, 1, 74, 64
6, 4560, Note_on_c, 1, 74, 100
6, 4560, Note_on_c, 1, 69, 100
6, 4680, Note_on_c, 1, 71, 100
6, 4740, Note_off_c, 1, 71, 64
6, 4740, Note_on_c, 1, 72, 100
6, 4800, Note_off_c, 1, 69, 64
6, 4800, Note_off_c, 1, 74, 64
6, 4800, Note_off_c, 1, 72, 64
6, 4800, Note_on_c, 1, 76, 100
6, 4800, Note_on_c, 1, 73, 100
6, 5280, Note_off_c, 1, 73, 64
6, 5280, Note_off_c, 1, 76, 64
6, 5520, Note_on_c, 1, 69, 100
6, 5520, Note_on_c, 1, 64, 100
6, 6240, Note_off_c, 1, 64, 64
6, 6240, Note_off_c, 1, 69, 64
6, 6240, Note_on_c, 1, 57, 100
6, 6240, Note_on_c, 1, 63, 100
6, 6240, Note_on_c, 1, 66, 100
6, 6240, Note_on_c, 1, 72, 100
6, 6480, Note_off_c, 1, 72, 64
6, 6480, Note_off_c, 1, 66, 64
6, 6480, Note_off_c, 1, 63, 64
6, 6480, Note_off_c, 1, 57, 64
6, 6480, Note_on_c, 1, 57, 100
6, 6480, Note_on_c, 1, 63, 100
6, 6480, Note_on_c, 1, 66, 100
6, 6480, Note_on_c, 1, 72, 100
6, 6720, Note_off_c, 1, 72, 64
6, 6720, Note_off_c, 1, 66, 64
6, 6720, Note_off_c, 1, 63, 64
6, 6720, Note_off_c, 1, 57, 64
6, 6720, Note_on_c, 1, 57, 100
6, 6720, Note_on_c, 1, 63, 100
6, 6720, Note_on_c, 1, 66, 100
6, 6720, Note_on_c, 1, 72, 100
6, 6960, Note_off_c, 1, 72, 64
6, 6960, Note_off_c, 1, 66, 64
6, 6960, Note_off_c, 1, 63, 64
6, 6960, Note_off_c, 1, 57, 64
6, 6960, Note_on_c, 1, 57, 100
6, 6960, Note_on_c, 1, 63, 100
6, 6960, Note_on_c, 1, 66, 100
6, 6960, Note_on_c, 1, 72, 100
6, 7200, Note_off_c, 1, 72, 64
6, 7200, Note_off_c, 1, 66, 64
6, 7200, Note_off_c, 1, 63, 64
6, 7200, Note_off_c, 1, 57, 64
6, 7200, Note_on_c, 1, 57, 100
6, 7200, Note_on_c, 1, 63, 100
6, 7200, Note_on_c, 1, 66, 100
6, 7200, Note_on_c, 1, 72, 100
6, 7440, Note_off_c, 1, 72, 64
6, 7440, Note_off_c, 1, 66, 64
6, 7440, Note_off_c, 1, 63, 64
6, 7440, Note_off_c, 1, 57, 64
6, 7440, Note_on_c, 1, 57, 100
6, 7440, Note_on_c, 1, 63, 100
6, 7440, Note_on_c, 1, 66, 100
6, 7440, Note_on_c, 1, 72, 100
6, 7680, Note_off_c, 1, 72, 64
6, 7680, Note_off_c, 1, 66, 64
6, 7680, Note_off_c, 1, 63, 64
6, 7680, Note_off_c, 1, 57, 64
6, 7680, Note_on_c, 1, 64, 100
6, 7680, Note_on_c, 1, 69, 100
6, 7920, Note_off_c, 1, 69, 64
6, 7920, Note_off_c, 1, 64, 64
6, 7920, Note_on_c, 1, 52, 100
6, 7920, Note_on_c, 1, 56, 100
6, 7920, Note_on_c, 1, 62, 100
6, 7920, Note_on_c, 1, 64, 100
6, 8400, Note_off_c, 1, 64, 64
6, 8400, Note_off_c, 1, 62, 64
6, 8400, Note_off_c, 1, 56, 64
6, 8400, Note_off_c, 1, 52, 64
6, 8400, Note_on_c, 1, 52, 100
6, 8400, Note_on_c, 1, 56, 100
6, 8400, Note_on_c, 1, 62, 100
6, 8400, Note_on_c, 1, 64, 100
6, 8640, Note_off_c, 1, 64, 64
6, 8640, Note_off_c, 1, 62, 64
6, 8640, Note_off_c, 1, 56, 64
6, 8640, Note_off_c, 1, 52, 64
6, 8640, Note_on_c, 1, 52, 100
6, 8640, Note_on_c, 1, 56, 100
6, 8640, Note_on_c, 1, 62, 100
6, 8640, Note_on_c, 1, 64, 100
6, 8880, Note_off_c, 1, 64, 64
6, 8880, Note_off_c, 1, 62, 64
6, 8880, Note_off_c, 1, 56, 64
6, 8880, Note_off_c, 1, 52, 64
6, 8880, Note_on_c, 1, 52, 100
6, 8880, Note_on_c, 1, 56, 100
6, 8880, Note_on_c, 1, 62, 100
6, 8880, Note_on_c, 1, 64, 100
6, 9120, Note_off_c, 1, 64, 64
6, 9120, Note_off_c, 1, 62, 64
6, 9120, Note_off_c, 1, 56, 64
6, 9120, Note_off_c, 1, 52, 64
6, 9120, Note_on_c, 1, 52, 100
6, 9120, Note_on_c, 1, 56, 100
6, 9120, Note_on_c, 1, 62, 100
6, 9120, Note_on_c, 1, 64, 100
6, 9360, Note_off_c, 1, 64, 64
6, 9360, Note_off_c, 1, 62, 64
6, 9360, Note_off_c, 1, 56, 64
6, 9360, Note_off_c, 1, 52, 64
6, 9360, Note_on_c, 1, 52, 100
6, 9360, Note_on_c, 1, 56, 100
6, 9360, Note_on_c, 1, 62, 100
6, 9360, Note_on_c, 1, 64, 100
6, 9600, Note_off_c, 1, 64, 64
6, 9600, Note_off_c, 1, 62, 64
6, 9600, Note_off_c, 1, 56, 64
6, 9600, Note_off_c, 1, 52, 64
6, 9600, Note_on_c, 1, 52, 100
6, 9600, Note_on_c, 1, 45, 100
6, 9840, Note_off_c, 1, 45, 64
6, 9840, Note_off_c, 1, 52, 64
6, 9840, Note_on_c, 1, 52, 100
6, 9840, Note_on_c, 1, 45, 100
6, 10080, Note_off_c, 1, 45, 64
6, 10080, Note_off_c, 1, 52, 64
6, 10080, Note_on_c, 1, 54, 100
6, 10080, Note_on_c, 1, 45, 100
6, 10320, Note_off_c, 1, 45, 64
6, 10320, Note_off_c, 1, 54, 64
6, 10320, Note_on_c, 1, 52, 100
6, 10320, Note_on_c, 1, 45, 100
6, 10560, Note_off_c, 1, 45, 64
6, 10560, Note_off_c, 1, 52, 64
6, 10560, Note_on_c, 1, 55, 100
6, 10560, Note_on_c, 1, 45, 100
6, 10800, Note_off_c, 1, 45, 64
6, 10800, Note_off_c, 1, 55, 64
6, 10800, Note_on_c, 1, 55, 100
6, 10800, Note_on_c, 1, 45, 100
6, 11040, Note_off_c, 1, 45, 64
6, 11040, Note_off_c, 1, 55, 64
6, 11040, Note_on_c, 1, 54, 100
6, 11040, Note_on_c, 1, 45, 100
6, 11280, Note_off_c, 1, 45, 64
6, 11280, Note_off_c, 1, 54, 64
6, 11280, Note_on_c, 1, 52, 100
6, 11280, Note_on_c, 1, 45, 100
6, 11520, Note_off_c, 1, 45, 64
6, 11520, Note_off_c, 1, 52, 64
6, 11520, Note_on_c, 1, 55, 100
6, 11520, Note_on_c, 1, 45, 100
6, 11760, Note_off_c, 1, 45, 64
6, 11760, Note_off_c, 1, 55, 64
6, 11760, Note_on_c, 1, 55, 100
6, 11760, Note_on_c, 1, 45, 100
6, 12000, Note_off_c, 1, 45, 64
6, 12000, Note_off_c, 1, 55, 64
6, 12000, Note_on_c, 1, 54, 100
6, 12000, Note_on_c, 1, 45, 100
6, 12240, Note_off_c, 1, 45, 64
6, 12240, Note_off_c, 1, 54, 64
6, 12240, Note_on_c, 1, 52, 100
6, 12240, Note_on_c, 1, 45, 100
6, 12480, Note_off_c, 1, 45, 64
6, 12480, Note_off_c, 1, 52, 64
6, 12480, Note_on_c, 1, 55, 100
6, 12480, Note_on_c, 1, 45, 100
6, 12720, Note_off_c, 1, 45, 64
6, 12720, Note_off_c, 1, 55, 64
6, 12720, Note_on_c, 1, 55, 100
6, 12720, Note_on_c, 1, 45, 100
6, 12960, Note_off_c, 1, 45, 64
6, 12960, Note_off_c, 1, 55, 64
6, 12960, Note_on_c, 1, 54, 100
6, 12960, Note_on_c, 1, 45, 100
6, 13200, Note_off_c, 1, 45, 64
6, 13200, Note_off_c, 1, 54, 64
6, 13200, Note_on_c, 1, 55, 100
6, 13200, Note_on_c, 1, 45, 100
6, 13680, Note_off_c, 1, 45, 64
6, 13680, Note_off_c, 1, 55, 64
6, 13680, Note_on_c, 1, 55, 100
6, 13680, Note_on_c, 1, 45, 100
6, 13920, Note_off_c, 1, 45, 64
6, 13920, Note_off_c, 1, 55, 64
6, 13920, Note_on_c, 1, 54, 100
6, 13920, Note_on_c, 1, 45, 100
6, 14160, Note_off_c, 1, 45, 64
6, 14160, Note_off_c, 1, 54, 64
6, 14160, Note_on_c, 1, 52, 100
6, 14160, Note_on_c, 1, 45, 100
6, 14400, Note_off_c, 1, 45, 64
6, 14400, Note_off_c, 1, 52, 64
6, 14400, Note_on_c, 1, 55, 100
6, 14400, Note_on_c, 1, 45, 100
6, 14640, Note_off_c, 1, 45, 64
6, 14640, Note_off_c, 1, 55, 64
6, 14640, Note_on_c, 1, 55, 100
6, 14640, Note_on_c, 1, 45, 100
6, 14880, Note_off_c, 1, 45, 64
6, 14880, Note_off_c, 1, 55, 64
6, 14880, Note_on_c, 1, 54, 100
6, 14880, Note_on_c, 1, 45, 100
6, 15120, Note_off_c, 1, 45, 64
6, 15120, Note_off_c, 1, 54, 64
6, 15120, Note_on_c, 1, 52, 100
6, 15120, Note_on_c, 1, 45, 100
6, 15360, Note_off_c, 1, 45, 64
6, 15360, Note_off_c, 1, 52, 64
6, 15360, Note_on_c, 1, 55, 100
6, 15360, Note_on_c, 1, 45, 100
6, 15600, Note_off_c, 1, 45, 64
6, 15600, Note_off_c, 1, 55, 64
6, 15600, Note_on_c, 1, 55, 100
6, 15600, Note_on_c, 1, 45, 100
6, 15840, Note_off_c, 1, 45, 64
6, 15840, Note_off_c, 1, 55, 64
6, 15840, Note_on_c, 1, 54, 100
6, 15840, Note_on_c, 1, 45, 100
6, 16080, Note_off_c, 1, 45, 64
6, 16080, Note_off_c, 1, 54, 64
6, 16080, Note_on_c, 1, 52, 100
6, 16080, Note_on_c, 1, 45, 100
6, 16320, Note_off_c, 1, 45, 64
6, 16320, Note_off_c, 1, 52, 64
6, 16320, Note_on_c, 1, 55, 100
6, 16320, Note_on_c, 1, 45, 100
6, 16560, Note_off_c, 1, 45, 64
6, 16560, Note_off_c, 1, 55, 64
6, 16560, Note_on_c, 1, 55, 100
6, 16560, Note_on_c, 1, 45, 100
6, 16800, Note_off_c, 1, 45, 64
6, 16800, Note_off_c, 1, 55, 64
6, 16800, Note_on_c, 1, 54, 100
6, 16800, Note_on_c, 1, 45, 100
6, 17040, Note_off_c, 1, 45, 64
6, 17040, Note_off_c, 1, 54, 64
6, 17040, Note_on_c, 1, 49, 100
6, 17040, Note_on_c, 1, 56, 100
6, 17220, Note_on_c, 1, 50, 100
6, 17220, Note_on_c, 1, 57, 100
6, 17280, Note_off_c, 1, 57, 64
6, 17280, Note_off_c, 1, 50, 64
6, 17280, Note_off_c, 1, 56, 64
6, 17280, Note_off_c, 1, 49, 64
6, 17280, Note_on_c, 1, 57, 100
6, 17280, Note_on_c, 1, 50, 100
6, 17520, Note_off_c, 1, 50, 64
6, 17520, Note_off_c, 1, 57, 64
6, 17520, Note_on_c, 1, 57, 100
6, 17520, Note_on_c, 1, 50, 100
6, 17760, Note_off_c, 1, 50, 64
6, 17760, Note_off_c, 1, 57, 64
6, 17760, Note_on_c, 1, 59, 100
6, 17760, Note_on_c, 1, 50, 100
6, 18000, Note_off_c, 1, 50, 64
6, 18000, Note_off_c, 1, 59, 64
6, 18000, Note_on_c, 1, 56, 100
6, 18000, Note_on_c, 1, 50, 100
6, 18240, Note_off_c, 1, 50, 64
6, 18240, Note_off_c, 1, 56, 64
6, 18240, Note_on_c, 1, 60, 100
6, 18240, Note_on_c, 1, 50, 100
6, 18480, Note_off_c, 1, 50, 64
6, 18480, Note_off_c, 1, 60, 64
6, 18480, Note_on_c, 1, 60, 100
6, 18480, Note_on_c, 1, 50, 100
6, 18720, Note_off_c, 1, 50, 64
6, 18720, Note_off_c, 1, 60, 64
6, 18720, Note_on_c, 1, 59, 100
6, 18720, Note_on_c, 1, 50, 100
6, 18960, Note_off_c, 1, 50, 64
6, 18960, Note_off_c, 1, 59, 64
6, 18960, Note_on_c, 1, 57, 100
6, 18960, Note_on_c, 1, 50, 100
6, 19200, Note_off_c, 1, 50, 64
6, 19200, Note_off_c, 1, 57, 64
6, 19200, Note_on_c, 1, 60, 100
6, 19200, Note_on_c, 1, 50, 100
6, 19440, Note_off_c, 1, 50, 64
6, 19440, Note_off_c, 1, 60, 64
6, 19440, Note_on_c, 1, 60, 100
6, 19440, Note_on_c, 1, 50, 100
6, 19680, Note_off_c, 1, 50, 64
6, 19680, Note_off_c, 1, 60, 64
6, 19680, Note_on_c, 1, 59, 100
6, 19680, Note_on_c, 1, 50, 100
6, 19920, Note_off_c, 1, 50, 64
6, 19920, Note_off_c, 1, 59, 64
6, 19920, Note_on_c, 1, 57, 100
6, 19920, Note_on_c, 1, 50, 100
6, 20160, Note_off_c, 1, 50, 64
6, 20160, Note_off_c, 1, 57, 64
6, 20160, Note_on_c, 1, 60, 100
6, 20160, Note_on_c, 1, 50, 100
6, 20400, Note_off_c, 1, 50, 64
6, 20400, Note_off_c, 1, 60, 64
6, 20400, Note_on_c, 1, 60, 100
6, 20400, Note_on_c, 1, 50, 100
6, 20640, Note_off_c, 1, 50, 64
6, 20640, Note_off_c, 1, 60, 64
6, 20640, Note_on_c, 1, 59, 100
6, 20640, Note_on_c, 1, 50, 100
6, 20880, Note_off_c, 1, 50, 64
6, 20880, Note_off_c, 1, 59, 64
6, 20880, Note_on_c, 1, 44, 100
6, 20880, Note_on_c, 1, 51, 100
6, 21120, Note_off_c, 1, 51, 64
6, 21120, Note_off_c, 1, 44, 64
6, 21120, Note_on_c, 1, 52, 100
6, 21120, Note_on_c, 1, 45, 100
6, 21360, Note_off_c, 1, 45, 64
6, 21360, Note_off_c, 1, 52, 64
6, 21360, Note_on_c, 1, 52, 100
6, 21360, Note_on_c, 1, 45, 100
6, 21600, Note_off_c, 1, 45, 64
6, 21600, Note_off_c, 1, 52, 64
6, 21600, Note_on_c, 1, 54, 100
6, 21600, Note_on_c, 1, 45, 100
6, 21840, Note_off_c, 1, 45, 64
6, 21840, Note_off_c, 1, 54, 64
6, 21840, Note_on_c, 1, 52, 100
6, 21840, Note_on_c, 1, 45, 100
6, 22080, Note_off_c, 1, 45, 64
6, 22080, Note_off_c, 1, 52, 64
6, 22080, Note_on_c, 1, 55, 100
6, 22080, Note_on_c, 1, 45, 100
6, 22320, Note_off_c, 1, 45, 64
6, 22320, Note_off_c, 1, 55, 64
6, 22320, Note_on_c, 1, 55, 100
6, 22320, Note_on_c, 1, 45, 100
6, 22560, Note_off_c, 1, 45, 64
6, 22560, Note_off_c, 1, 55, 64
6, 22560, Note_on_c, 1, 54, 100
6, 22560, Note_on_c, 1, 45, 100
6, 22800, Note_off_c, 1, 45, 64
6, 22800, Note_off_c, 1, 54, 64
6, 22800, Note_on_c, 1, 52, 100
6, 22800, Note_on_c, 1, 45, 100
6, 23040, Note_off_c, 1, 45, 64
6, 23040, Note_off_c, 1, 52, 64
6, 23040, Note_on_c, 1, 55, 100
6, 23040, Note_on_c, 1, 45, 100
6, 23280, Note_off_c, 1, 45, 64
6, 23280, Note_off_c, 1, 55, 64
6, 23280, Note_on_c, 1, 55, 100
6, 23280, Note_on_c, 1, 45, 100
6, 23520, Note_off_c, 1, 45, 64
6, 23520, Note_off_c, 1, 55, 64
6, 23520, Note_on_c, 1, 54, 100
6, 23520, Note_on_c, 1, 45, 100
6, 23760, Note_off_c, 1, 45, 64
6, 23760, Note_off_c, 1, 54, 64
6, 23760, Note_on_c, 1, 52, 100
6, 23760, Note_on_c, 1, 45, 100
6, 24000, Note_off_c, 1, 45, 64
6, 24000, Note_off_c, 1, 52, 64
6, 24000, Note_on_c, 1, 55, 100
6, 24000, Note_on_c, 1, 45, 100
6, 24240, Note_off_c, 1, 45, 64
6, 24240, Note_off_c, 1, 55, 64
6, 24240, Note_on_c, 1, 55, 100
6, 24240, Note_on_c, 1, 45, 100
6, 24480, Note_off_c, 1, 45, 64
6, 24480, Note_off_c, 1, 55, 64
6, 24480, Note_on_c, 1, 54, 100
6, 24480, Note_on_c, 1, 45, 100
6, 24720, Note_off_c, 1, 45, 64
6, 24720, Note_off_c, 1, 54, 64
6, 24720, Note_on_c, 1, 55, 100
6, 24720, Note_on_c, 1, 45, 100
6, 24960, Note_off_c, 1, 45, 64
6, 24960, Note_off_c, 1, 55, 64
6, 24960, Note_on_c, 1, 52, 100
6, 25200, Note_off_c, 1, 52, 64
6, 25200, Note_on_c, 1, 52, 100
6, 25200, Note_on_c, 1, 56, 100
6, 25200, Note_on_c, 1, 62, 100
6, 25200, Note_on_c, 1, 64, 100
6, 25680, Note_off_c, 1, 64, 64
6, 25680, Note_off_c, 1, 62, 64
6, 25680, Note_off_c, 1, 56, 64
6, 25680, Note_off_c, 1, 52, 64
6, 25680, Note_on_c, 1, 52, 100
6, 25920, Note_off_c, 1, 52, 64
6, 25920, Note_on_c, 1, 52, 100
6, 25920, Note_on_c, 1, 56, 100
6, 25920, Note_on_c, 1, 62, 100
6, 25920, Note_on_c, 1, 64, 100
6, 26160, Note_off_c, 1, 64, 64
6, 26160, Note_off_c, 1, 62, 64
6, 26160, Note_off_c, 1, 56, 64
6, 26160, Note_off_c, 1, 52, 64
6, 26160, Note_on_c, 1, 52, 100
6, 26160, Note_on_c, 1, 56, 100
6, 26160, Note_on_c, 1, 62, 100
6, 26160, Note_on_c, 1, 64, 100
6, 26400, Note_off_c, 1, 64, 64
6, 26400, Note_off_c, 1, 62, 64
6, 26400, Note_off_c, 1, 56, 64
6, 26400, Note_off_c, 1, 52, 64
6, 26400, Note_on_c, 1, 52, 100
6, 26400, Note_on_c, 1, 56, 100
6, 26400, Note_on_c, 1, 62, 100
6, 26400, Note_on_c, 1, 64, 100
6, 26640, Note_off_c, 1, 64, 64
6, 26640, Note_off_c, 1, 62, 64
6, 26640, Note_off_c, 1, 56, 64
6, 26640, Note_off_c, 1, 52, 64
6, 26640, Note_on_c, 1, 52, 100
6, 26640, Note_on_c, 1, 56, 100
6, 26640, Note_on_c, 1, 62, 100
6, 26640, Note_on_c, 1, 64, 100
6, 26880, Note_off_c, 1, 64, 64
6, 26880, Note_off_c, 1, 62, 64
6, 26880, Note_off_c, 1, 56, 64
6, 26880, Note_off_c, 1, 52, 64
6, 26880, Note_on_c, 1, 52, 100
6, 27120, Note_off_c, 1, 52, 64
6, 27120, Note_on_c, 1, 52, 100
6, 27120, Note_on_c, 1, 56, 100
6, 27120, Note_on_c, 1, 62, 100
6, 27120, Note_on_c, 1, 64, 100
6, 27600, Note_off_c, 1, 64, 64
6, 27600, Note_off_c, 1, 62, 64
6, 27600, Note_off_c, 1, 56, 64
6, 27600, Note_off_c, 1, 52, 64
6, 27600, Note_on_c, 1, 52, 100
6, 27840, Note_off_c, 1, 52, 64
6, 27840, Note_on_c, 1, 52, 100
6, 27840, Note_on_c, 1, 56, 100
6, 27840, Note_on_c, 1, 62, 100
6, 27840, Note_on_c, 1, 64, 100
6, 28080, Note_off_c, 1, 64, 64
6, 28080, Note_off_c, 1, 62, 64
6, 28080, Note_off_c, 1, 56, 64
6, 28080, Note_off_c, 1, 52, 64
6, 28080, Note_on_c, 1, 52, 100
6, 28080, Note_on_c, 1, 56, 100
6, 28080, Note_on_c, 1, 62, 100
6, 28080, Note_on_c, 1, 64, 100
6, 28320, Note_off_c, 1, 64, 64
6, 28320, Note_off_c, 1, 62, 64
6, 28320, Note_off_c, 1, 56, 64
6, 28320, Note_off_c, 1, 52, 64
6, 28320, Note_on_c, 1, 52, 100
6, 28320, Note_on_c, 1, 56, 100
6, 28320, Note_on_c, 1, 62, 100
6, 28320, Note_on_c, 1, 64, 100
6, 28800, Note_off_c, 1, 64, 64
6, 28800, Note_off_c, 1, 62, 64
6, 28800, Note_off_c, 1, 56, 64
6, 28800, Note_off_c, 1, 52, 64
6, 28800, Note_on_c, 1, 52, 100
6, 28800, Note_on_c, 1, 45, 100
6, 29040, Note_off_c, 1, 45, 64
6, 29040, Note_off_c, 1, 52, 64
6, 29040, Note_on_c, 1, 52, 100
6, 29040, Note_on_c, 1, 45, 100
6, 29280, Note_off_c, 1, 45, 64
6, 29280, Note_off_c, 1, 52, 64
6, 29280, Note_on_c, 1, 54, 100
6, 29280, Note_on_c, 1, 45, 100
6, 29520, Note_off_c, 1, 45, 64
6, 29520, Note_off_c, 1, 54, 64
6, 29520, Note_on_c, 1, 52, 100
6, 29520, Note_on_c, 1, 45, 100
6, 29760, Note_off_c, 1, 45, 64
6, 29760, Note_off_c, 1, 52, 64
6, 29760, Note_on_c, 1, 55, 100
6, 29760, Note_on_c, 1, 45, 100
6, 30000, Note_off_c, 1, 45, 64
6, 30000, Note_off_c, 1, 55, 64
6, 30000, Note_on_c, 1, 55, 100
6, 30000, Note_on_c, 1, 45, 100
6, 30240, Note_off_c, 1, 45, 64
6, 30240, Note_off_c, 1, 55, 64
6, 30240, Note_on_c, 1, 54, 100
6, 30240, Note_on_c, 1, 45, 100
6, 30480, Note_off_c, 1, 45, 64
6, 30480, Note_off_c, 1, 54, 64
6, 30480, Note_on_c, 1, 52, 100
6, 30480, Note_on_c, 1, 45, 100
6, 30720, Note_off_c, 1, 45, 64
6, 30720, Note_off_c, 1, 52, 64
6, 30720, Note_on_c, 1, 56, 100
6, 30720, Note_on_c, 1, 52, 100
6, 30960, Note_off_c, 1, 52, 64
6, 30960, Note_off_c, 1, 56, 64
6, 30960, Note_on_c, 1, 52, 100
6, 30960, Note_on_c, 1, 56, 100
6, 30960, Note_on_c, 1, 62, 100
6, 30960, Note_on_c, 1, 64, 100
6, 31440, Note_off_c, 1, 64, 64
6, 31440, Note_off_c, 1, 62, 64
6, 31440, Note_off_c, 1, 56, 64
6, 31440, Note_off_c, 1, 52, 64
6, 31440, Note_on_c, 1, 52, 100
6, 31440, Note_on_c, 1, 56, 100
6, 31440, Note_on_c, 1, 62, 100
6, 31440, Note_on_c, 1, 64, 100
6, 31920, Note_off_c, 1, 64, 64
6, 31920, Note_off_c, 1, 62, 64
6, 31920, Note_off_c, 1, 56, 64
6, 31920, Note_off_c, 1, 52, 64
6, 31920, Note_on_c, 1, 52, 100
6, 31920, Note_on_c, 1, 56, 100
6, 31920, Note_on_c, 1, 62, 100
6, 31920, Note_on_c, 1, 64, 100
6, 32160, Note_off_c, 1, 64, 64
6, 32160, Note_off_c, 1, 62, 64
6, 32160, Note_off_c, 1, 56, 64
6, 32160, Note_off_c, 1, 52, 64
6, 32160, Note_on_c, 1, 52, 100
6, 32160, Note_on_c, 1, 56, 100
6, 32160, Note_on_c, 1, 62, 100
6, 32160, Note_on_c, 1, 64, 100
6, 32640, Note_off_c, 1, 64, 64
6, 32640, Note_off_c, 1, 62, 64
6, 32640, Note_off_c, 1, 56, 64
6, 32640, Note_off_c, 1, 52, 64
6, 32640, Note_on_c, 1, 57, 100
6, 32640, Note_on_c, 1, 50, 100
6, 32880, Note_off_c, 1, 50, 64
6, 32880, Note_off_c, 1, 57, 64
6, 32880, Note_on_c, 1, 57, 100
6, 32880, Note_on_c, 1, 50, 100
6, 33120, Note_off_c, 1, 50, 64
6, 33120, Note_off_c, 1, 57, 64
6, 33120, Note_on_c, 1, 59, 100
6, 33120, Note_on_c, 1, 50, 100
6, 33360, Note_off_c, 1, 50, 64
6, 33360, Note_off_c, 1, 59, 64
6, 33360, Note_on_c, 1, 56, 100
6, 33360, Note_on_c, 1, 50, 100
6, 33600, Note_off_c, 1, 50, 64
6, 33600, Note_off_c, 1, 56, 64
6, 33600, Note_on_c, 1, 60, 100
6, 33600, Note_on_c, 1, 50, 100
6, 33840, Note_off_c, 1, 50, 64
6, 33840, Note_off_c, 1, 60, 64
6, 33840, Note_on_c, 1, 60, 100
6, 33840, Note_on_c, 1, 50, 100
6, 34080, Note_off_c, 1, 50, 64
6, 34080, Note_off_c, 1, 60, 64
6, 34080, Note_on_c, 1, 59, 100
6, 34080, Note_on_c, 1, 50, 100
6, 34320, Note_off_c, 1, 50, 64
6, 34320, Note_off_c, 1, 59, 64
6, 34320, Note_on_c, 1, 57, 100
6, 34320, Note_on_c, 1, 50, 100
6, 34560, Note_off_c, 1, 50, 64
6, 34560, Note_off_c, 1, 57, 64
6, 34560, Note_on_c, 1, 60, 100
6, 34560, Note_on_c, 1, 50, 100
6, 34800, Note_off_c, 1, 50, 64
6, 34800, Note_off_c, 1, 60, 64
6, 34800, Note_on_c, 1, 57, 100
6, 34800, Note_on_c, 1, 50, 100
6, 35040, Note_off_c, 1, 50, 64
6, 35040, Note_off_c, 1, 57, 64
6, 35040, Note_on_c, 1, 59, 100
6, 35040, Note_on_c, 1, 50, 100
6, 35280, Note_off_c, 1, 50, 64
6, 35280, Note_off_c, 1, 59, 64
6, 35280, Note_on_c, 1, 57, 100
6, 35280, Note_on_c, 1, 50, 100
6, 35520, Note_off_c, 1, 50, 64
6, 35520, Note_off_c, 1, 57, 64
6, 35520, Note_on_c, 1, 60, 100
6, 35520, Note_on_c, 1, 50, 100
6, 35760, Note_off_c, 1, 50, 64
6, 35760, Note_off_c, 1, 60, 64
6, 35760, Note_on_c, 1, 57, 100
6, 35760, Note_on_c, 1, 50, 100
6, 36000, Note_off_c, 1, 50, 64
6, 36000, Note_off_c, 1, 57, 64
6, 36000, Note_on_c, 1, 59, 100
6, 36000, Note_on_c, 1, 50, 100
6, 36240, Note_off_c, 1, 50, 64
6, 36240, Note_off_c, 1, 59, 64
6, 36240, Note_on_c, 1, 44, 100
6, 36240, Note_on_c, 1, 51, 100
6, 36480, Note_off_c, 1, 51, 64
6, 36480, Note_off_c, 1, 44, 64
6, 36480, Note_on_c, 1, 52, 100
6, 36480, Note_on_c, 1, 45, 100
6, 36720, Note_off_c, 1, 45, 64
6, 36720, Note_off_c, 1, 52, 64
6, 36720, Note_on_c, 1, 52, 100
6, 36720, Note_on_c, 1, 45, 100
6, 36960, Note_off_c, 1, 45, 64
6, 36960, Note_off_c, 1, 52, 64
6, 36960, Note_on_c, 1, 54, 100
6, 36960, Note_on_c, 1, 45, 100
6, 37200, Note_off_c, 1, 45, 64
6, 37200, Note_off_c, 1, 54, 64
6, 37200, Note_on_c, 1, 52, 100
6, 37200, Note_on_c, 1, 45, 100
6, 37440, Note_off_c, 1, 45, 64
6, 37440, Note_off_c, 1, 52, 64
6, 37440, Note_on_c, 1, 55, 100
6, 37440, Note_on_c, 1, 45, 100
6, 37680, Note_off_c, 1, 45, 64
6, 37680, Note_off_c, 1, 55, 64
6, 37680, Note_on_c, 1, 52, 100
6, 37680, Note_on_c, 1, 45, 100
6, 37920, Note_off_c, 1, 45, 64
6, 37920, Note_off_c, 1, 52, 64
6, 37920, Note_on_c, 1, 54, 100
6, 37920, Note_on_c, 1, 45, 100
6, 38160, Note_off_c, 1, 45, 64
6, 38160, Note_off_c, 1, 54, 64
6, 38160, Note_on_c, 1, 52, 100
6, 38160, Note_on_c, 1, 45, 100
6, 38400, Note_off_c, 1, 45, 64
6, 38400, Note_off_c, 1, 52, 64
6, 38400, Note_on_c, 1, 55, 100
6, 38400, Note_on_c, 1, 45, 100
6, 38640, Note_off_c, 1, 45, 64
6, 38640, Note_off_c, 1, 55, 64
6, 38640, Note_on_c, 1, 52, 100
6, 38640, Note_on_c, 1, 45, 100
6, 38880, Note_off_c, 1, 45, 64
6, 38880, Note_off_c, 1, 52, 64
6, 38880, Note_on_c, 1, 54, 100
6, 38880, Note_on_c, 1, 45, 100
6, 39120, Note_off_c, 1, 45, 64
6, 39120, Note_off_c, 1, 54, 64
6, 39120, Note_on_c, 1, 52, 100
6, 39120, Note_on_c, 1, 45, 100
6, 39360, Note_off_c, 1, 45, 64
6, 39360, Note_off_c, 1, 52, 64
6, 39360, Note_on_c, 1, 55, 100
6, 39360, Note_on_c, 1, 45, 100
6, 39600, Note_off_c, 1, 45, 64
6, 39600, Note_off_c, 1, 55, 64
6, 39600, Note_on_c, 1, 52, 100
6, 39600, Note_on_c, 1, 45, 100
6, 39840, Note_off_c, 1, 45, 64
6, 39840, Note_off_c, 1, 52, 64
6, 39840, Note_on_c, 1, 54, 100
6, 39840, Note_on_c, 1, 45, 100
6, 40080, Note_off_c, 1, 45, 64
6, 40080, Note_off_c, 1, 54, 64
6, 40080, Note_on_c, 1, 49, 100
6, 40080, Note_on_c, 1, 55, 100
6, 40260, Note_on_c, 1, 50, 100
6, 40260, Note_on_c, 1, 56, 100
6, 40320, Note_off_c, 1, 56, 64
6, 40320, Note_off_c, 1, 50, 64
6, 40320, Note_off_c, 1, 55, 64
6, 40320, Note_off_c, 1, 49, 64
6, 40320, Note_on_c, 1, 57, 100
6, 40320, Note_on_c, 1, 50, 100
6, 40560, Note_off_c, 1, 50, 64
6, 40560, Note_off_c, 1, 57, 64
6, 40560, Note_on_c, 1, 57, 100
6, 40560, Note_on_c, 1, 50, 100
6, 40800, Note_off_c, 1, 50, 64
6, 40800, Note_off_c, 1, 57, 64
6, 40800, Note_on_c, 1, 59, 100
6, 40800, Note_on_c, 1, 50, 100
6, 41040, Note_off_c, 1, 50, 64
6, 41040, Note_off_c, 1, 59, 64
6, 41040, Note_on_c, 1, 57, 100
6, 41040, Note_on_c, 1, 50, 100
6, 41280, Note_off_c, 1, 50, 64
6, 41280, Note_off_c, 1, 57, 64
6, 41280, Note_on_c, 1, 60, 100
6, 41280, Note_on_c, 1, 50, 100
6, 41520, Note_off_c, 1, 50, 64
6, 41520, Note_off_c, 1, 60, 64
6, 41520, Note_on_c, 1, 57, 100
6, 41520, Note_on_c, 1, 50, 100
6, 41760, Note_off_c, 1, 50, 64
6, 41760, Note_off_c, 1, 57, 64
6, 41760, Note_on_c, 1, 59, 100
6, 41760, Note_on_c, 1, 50, 100
6, 42000, Note_off_c, 1, 50, 64
6, 42000, Note_off_c, 1, 59, 64
6, 42000, Note_on_c, 1, 57, 100
6, 42000, Note_on_c, 1, 50, 100
6, 42240, Note_off_c, 1, 50, 64
6, 42240, Note_off_c, 1, 57, 64
6, 42240, Note_on_c, 1, 60, 100
6, 42240, Note_on_c, 1, 50, 100
6, 42480, Note_off_c, 1, 50, 64
6, 42480, Note_off_c, 1, 60, 64
6, 42480, Note_on_c, 1, 57, 100
6, 42480, Note_on_c, 1, 50, 100
6, 42720, Note_off_c, 1, 50, 64
6, 42720, Note_off_c, 1, 57, 64
6, 42720, Note_on_c, 1, 59, 100
6, 42720, Note_on_c, 1, 50, 100
6, 42960, Note_off_c, 1, 50, 64
6, 42960, Note_off_c, 1, 59, 64
6, 42960, Note_on_c, 1, 57, 100
6, 42960, Note_on_c, 1, 50, 100
6, 43200, Note_off_c, 1, 50, 64
6, 43200, Note_off_c, 1, 57, 64
6, 43200, Note_on_c, 1, 60, 100
6, 43200, Note_on_c, 1, 50, 100
6, 43440, Note_off_c, 1, 50, 64
6, 43440, Note_off_c, 1, 60, 64
6, 43440, Note_on_c, 1, 57, 100
6, 43440, Note_on_c, 1, 50, 100
6, 43680, Note_off_c, 1, 50, 64
6, 43680, Note_off_c, 1, 57, 64
6, 43680, Note_on_c, 1, 59, 100
6, 43680, Note_on_c, 1, 50, 100
6, 43920, Note_off_c, 1, 50, 64
6, 43920, Note_off_c, 1, 59, 64
6, 43920, Note_on_c, 1, 50, 100
6, 43920, Note_on_c, 1, 60, 100
6, 44160, Note_off_c, 1, 60, 64
6, 44160, Note_off_c, 1, 50, 64
6, 44160, Note_on_c, 1, 52, 100
6, 44400, Note_off_c, 1, 52, 64
6, 44400, Note_on_c, 1, 52, 100
6, 44400, Note_on_c, 1, 56, 100
6, 44400, Note_on_c, 1, 62, 100
6, 44400, Note_on_c, 1, 64, 100
6, 44880, Note_off_c, 1, 64, 64
6, 44880, Note_off_c, 1, 62, 64
6, 44880, Note_off_c, 1, 56, 64
6, 44880, Note_off_c, 1, 52, 64
6, 44880, Note_on_c, 1, 52, 100
6, 45120, Note_off_c, 1, 52, 64
6, 45120, Note_on_c, 1, 52, 100
6, 45120, Note_on_c, 1, 56, 100
6, 45120, Note_on_c, 1, 62, 100
6, 45120, Note_on_c, 1, 64, 100
6, 45360, Note_off_c, 1, 64, 64
6, 45360, Note_off_c, 1, 62, 64
6, 45360, Note_off_c, 1, 56, 64
6, 45360, Note_off_c, 1, 52, 64
6, 45360, Note_on_c, 1, 52, 100
6, 45360, Note_on_c, 1, 56, 100
6, 45360, Note_on_c, 1, 62, 100
6, 45360, Note_on_c, 1, 64, 100
6, 45600, Note_off_c, 1, 64, 64
6, 45600, Note_off_c, 1, 62, 64
6, 45600, Note_off_c, 1, 56, 64
6, 45600, Note_off_c, 1, 52, 64
6, 45600, Note_on_c, 1, 52, 100
6, 45600, Note_on_c, 1, 56, 100
6, 45600, Note_on_c, 1, 62, 100
6, 45600, Note_on_c, 1, 64, 100
6, 45840, Note_off_c, 1, 64, 64
6, 45840, Note_off_c, 1, 62, 64
6, 45840, Note_off_c, 1, 56, 64
6, 45840, Note_off_c, 1, 52, 64
6, 45840, Note_on_c, 1, 52, 100
6, 45840, Note_on_c, 1, 56, 100
6, 45840, Note_on_c, 1, 62, 100
6, 45840, Note_on_c, 1, 64, 100
6, 46080, Note_off_c, 1, 64, 64
6, 46080, Note_off_c, 1, 62, 64
6, 46080, Note_off_c, 1, 56, 64
6, 46080, Note_off_c, 1, 52, 64
6, 46080, Note_on_c, 1, 52, 100
6, 46320, Note_off_c, 1, 52, 64
6, 46320, Note_on_c, 1, 52, 100
6, 46320, Note_on_c, 1, 56, 100
6, 46320, Note_on_c, 1, 62, 100
6, 46320, Note_on_c, 1, 64, 100
6, 46800, Note_off_c, 1, 64, 64
6, 46800, Note_off_c, 1, 62, 64
6, 46800, Note_off_c, 1, 56, 64
6, 46800, Note_off_c, 1, 52, 64
6, 46800, Note_on_c, 1, 52, 100
6, 47040, Note_off_c, 1, 52, 64
6, 47040, Note_on_c, 1, 52, 100
6, 47040, Note_on_c, 1, 56, 100
6, 47040, Note_on_c, 1, 62, 100
6, 47040, Note_on_c, 1, 64, 100
6, 47280, Note_off_c, 1, 64, 64
6, 47280, Note_off_c, 1, 62, 64
6, 47280, Note_off_c, 1, 56, 64
6, 47280, Note_off_c, 1, 52, 64
6, 47280, Note_on_c, 1, 52, 100
6, 47280, Note_on_c, 1, 56, 100
6, 47280, Note_on_c, 1, 62, 100
6, 47280, Note_on_c, 1, 64, 100
6, 47520, Note_off_c, 1, 64, 64
6, 47520, Note_off_c, 1, 62, 64
6, 47520, Note_off_c, 1, 56, 64
6, 47520, Note_off_c, 1, 52, 64
6, 47520, Note_on_c, 1, 52, 100
6, 47520, Note_on_c, 1, 56, 100
6, 47520, Note_on_c, 1, 62, 100
6, 47520, Note_on_c, 1, 64, 100
6, 48000, Note_off_c, 1, 64, 64
6, 48000, Note_off_c, 1, 62, 64
6, 48000, Note_off_c, 1, 56, 64
6, 48000, Note_off_c, 1, 52, 64
6, 48000, Note_on_c, 1, 57, 100
6, 48000, Note_on_c, 1, 50, 100
6, 48240, Note_off_c, 1, 50, 64
6, 48240, Note_off_c, 1, 57, 64
6, 48240, Note_on_c, 1, 57, 100
6, 48240, Note_on_c, 1, 50, 100
6, 48480, Note_off_c, 1, 50, 64
6, 48480, Note_off_c, 1, 57, 64
6, 48480, Note_on_c, 1, 59, 100
6, 48480, Note_on_c, 1, 50, 100
6, 48720, Note_off_c, 1, 50, 64
6, 48720, Note_off_c, 1, 59, 64
6, 48720, Note_on_c, 1, 57, 100
6, 48720, Note_on_c, 1, 50, 100
6, 48960, Note_off_c, 1, 50, 64
6, 48960, Note_off_c, 1, 57, 64
6, 48960, Note_on_c, 1, 60, 100
6, 48960, Note_on_c, 1, 50, 100
6, 49200, Note_off_c, 1, 50, 64
6, 49200, Note_off_c, 1, 60, 64
6, 49200, Note_on_c, 1, 57, 100
6, 49200, Note_on_c, 1, 50, 100
6, 49440, Note_off_c, 1, 50, 64
6, 49440, Note_off_c, 1, 57, 64
6, 49440, Note_on_c, 1, 59, 100
6, 49440, Note_on_c, 1, 50, 100
6, 49680, Note_off_c, 1, 50, 64
6, 49680, Note_off_c, 1, 59, 64
6, 49680, Note_on_c, 1, 57, 100
6, 49680, Note_on_c, 1, 50, 100
6, 49920, Note_off_c, 1, 50, 64
6, 49920, Note_off_c, 1, 57, 64
6, 49920, Note_on_c, 1, 60, 100
6, 49920, Note_on_c, 1, 50, 100
6, 50160, Note_off_c, 1, 50, 64
6, 50160, Note_off_c, 1, 60, 64
6, 50160, Note_on_c, 1, 57, 100
6, 50160, Note_on_c, 1, 50, 100
6, 50400, Note_off_c, 1, 50, 64
6, 50400, Note_off_c, 1, 57, 64
6, 50400, Note_on_c, 1, 59, 100
6, 50400, Note_on_c, 1, 50, 100
6, 50640, Note_off_c, 1, 50, 64
6, 50640, Note_off_c, 1, 59, 64
6, 50640, Note_on_c, 1, 57, 100
6, 50640, Note_on_c, 1, 50, 100
6, 50880, Note_off_c, 1, 50, 64
6, 50880, Note_off_c, 1, 57, 64
6, 50880, Note_on_c, 1, 60, 100
6, 50880, Note_on_c, 1, 50, 100
6, 51120, Note_off_c, 1, 50, 64
6, 51120, Note_off_c, 1, 60, 64
6, 51120, Note_on_c, 1, 57, 100
6, 51120, Note_on_c, 1, 50, 100
6, 51360, Note_off_c, 1, 50, 64
6, 51360, Note_off_c, 1, 57, 64
6, 51360, Note_on_c, 1, 59, 100
6, 51360, Note_on_c, 1, 50, 100
6, 51600, Note_off_c, 1, 50, 64
6, 51600, Note_off_c, 1, 59, 64
6, 51600, Note_on_c, 1, 69, 100
6, 51600, Note_on_c, 1, 74, 100
6, 51840, Note_off_c, 1, 74, 64
6, 51840, Note_off_c, 1, 69, 64
6, 51840, Note_on_c, 1, 52, 100
6, 51840, Note_on_c, 1, 45, 100
6, 52080, Note_off_c, 1, 45, 64
6, 52080, Note_off_c, 1, 52, 64
6, 52080, Note_on_c, 1, 52, 100
6, 52080, Note_on_c, 1, 45, 100
6, 52320, Note_off_c, 1, 45, 64
6, 52320, Note_off_c, 1, 52, 64
6, 52320, Note_on_c, 1, 54, 100
6, 52320, Note_on_c, 1, 45, 100
6, 52560, Note_off_c, 1, 45, 64
6, 52560, Note_off_c, 1, 54, 64
6, 52560, Note_on_c, 1, 52, 100
6, 52560, Note_on_c, 1, 45, 100
6, 52800, Note_off_c, 1, 45, 64
6, 52800, Note_off_c, 1, 52, 64
6, 52800, Note_on_c, 1, 55, 100
6, 52800, Note_on_c, 1, 45, 100
6, 53040, Note_off_c, 1, 45, 64
6, 53040, Note_off_c, 1, 55, 64
6, 53040, Note_on_c, 1, 55, 100
6, 53040, Note_on_c, 1, 45, 100
6, 53280, Note_off_c, 1, 45, 64
6, 53280, Note_off_c, 1, 55, 64
6, 53280, Note_on_c, 1, 54, 100
6, 53280, Note_on_c, 1, 45, 100
6, 53520, Note_off_c, 1, 45, 64
6, 53520, Note_off_c, 1, 54, 64
6, 53520, Note_on_c, 1, 52, 100
6, 53520, Note_on_c, 1, 45, 100
6, 53760, Note_off_c, 1, 45, 64
6, 53760, Note_off_c, 1, 52, 64
6, 53760, Note_on_c, 1, 55, 100
6, 53760, Note_on_c, 1, 45, 100
6, 54000, Note_off_c, 1, 45, 64
6, 54000, Note_off_c, 1, 55, 64
6, 54000, Note_on_c, 1, 55, 100
6, 54000, Note_on_c, 1, 45, 100
6, 54240, Note_off_c, 1, 45, 64
6, 54240, Note_off_c, 1, 55, 64
6, 54240, Note_on_c, 1, 54, 100
6, 54240, Note_on_c, 1, 45, 100
6, 54480, Note_off_c, 1, 45, 64
6, 54480, Note_off_c, 1, 54, 64
6, 54480, Note_on_c, 1, 52, 100
6, 54480, Note_on_c, 1, 45, 100
6, 54720, Note_off_c, 1, 45, 64
6, 54720, Note_off_c, 1, 52, 64
6, 54720, Note_on_c, 1, 55, 100
6, 54720, Note_on_c, 1, 45, 100
6, 54960, Note_off_c, 1, 45, 64
6, 54960, Note_off_c, 1, 55, 64
6, 54960, Note_on_c, 1, 55, 100
6, 54960, Note_on_c, 1, 45, 100
6, 55200, Note_off_c, 1, 45, 64
6, 55200, Note_off_c, 1, 55, 64
6, 55200, Note_on_c, 1, 54, 100
6, 55200, Note_on_c, 1, 45, 100
6, 55440, Note_off_c, 1, 45, 64
6, 55440, Note_off_c, 1, 54, 64
6, 55440, Note_on_c, 1, 52, 100
6, 55440, Note_on_c, 1, 45, 100
6, 55680, Note_off_c, 1, 45, 64
6, 55680, Note_off_c, 1, 52, 64
6, 55680, Note_on_c, 1, 57, 100
6, 55680, Note_on_c, 1, 50, 100
6, 55920, Note_off_c, 1, 50, 64
6, 55920, Note_off_c, 1, 57, 64
6, 55920, Note_on_c, 1, 57, 100
6, 55920, Note_on_c, 1, 50, 100
6, 56160, Note_off_c, 1, 50, 64
6, 56160, Note_off_c, 1, 57, 64
6, 56160, Note_on_c, 1, 59, 100
6, 56160, Note_on_c, 1, 50, 100
6, 56400, Note_off_c, 1, 50, 64
6, 56400, Note_off_c, 1, 59, 64
6, 56400, Note_on_c, 1, 57, 100
6, 56400, Note_on_c, 1, 50, 100
6, 56640, Note_off_c, 1, 50, 64
6, 56640, Note_off_c, 1, 57, 64
6, 56640, Note_on_c, 1, 60, 100
6, 56640, Note_on_c, 1, 50, 100
6, 56880, Note_off_c, 1, 50, 64
6, 56880, Note_off_c, 1, 60, 64
6, 56880, Note_on_c, 1, 57, 100
6, 56880, Note_on_c, 1, 50, 100
6, 57120, Note_off_c, 1, 50, 64
6, 57120, Note_off_c, 1, 57, 64
6, 57120, Note_on_c, 1, 59, 100
6, 57120, Note_on_c, 1, 50, 100
6, 57360, Note_off_c, 1, 50, 64
6, 57360, Note_off_c, 1, 59, 64
6, 57360, Note_on_c, 1, 57, 100
6, 57360, Note_on_c, 1, 50, 100
6, 57600, Note_off_c, 1, 50, 64
6, 57600, Note_off_c, 1, 57, 64
6, 57600, Note_on_c, 1, 60, 100
6, 57600, Note_on_c, 1, 50, 100
6, 57840, Note_off_c, 1, 50, 64
6, 57840, Note_off_c, 1, 60, 64
6, 57840, Note_on_c, 1, 57, 100
6, 57840, Note_on_c, 1, 50, 100
6, 58080, Note_off_c, 1, 50, 64
6, 58080, Note_off_c, 1, 57, 64
6, 58080, Note_on_c, 1, 59, 100
6, 58080, Note_on_c, 1, 50, 100
6, 58320, Note_off_c, 1, 50, 64
6, 58320, Note_off_c, 1, 59, 64
6, 58320, Note_on_c, 1, 57, 100
6, 58320, Note_on_c, 1, 50, 100
6, 58560, Note_off_c, 1, 50, 64
6, 58560, Note_off_c, 1, 57, 64
6, 58560, Note_on_c, 1, 60, 100
6, 58560, Note_on_c, 1, 50, 100
6, 58800, Note_off_c, 1, 50, 64
6, 58800, Note_off_c, 1, 60, 64
6, 58800, Note_on_c, 1, 57, 100
6, 58800, Note_on_c, 1, 50, 100
6, 59040, Note_off_c, 1, 50, 64
6, 59040, Note_off_c, 1, 57, 64
6, 59040, Note_on_c, 1, 59, 100
6, 59040, Note_on_c, 1, 50, 100
6, 59280, Note_off_c, 1, 50, 64
6, 59280, Note_off_c, 1, 59, 64
6, 59280, Note_on_c, 1, 57, 100
6, 59280, Note_on_c, 1, 50, 100
6, 59520, Note_off_c, 1, 50, 64
6, 59520, Note_off_c, 1, 57, 64
6, 59520, Note_on_c, 1, 52, 100
6, 59760, Note_off_c, 1, 52, 64
6, 59760, Note_on_c, 1, 52, 100
6, 59760, Note_on_c, 1, 56, 100
6, 59760, Note_on_c, 1, 62, 100
6, 59760, Note_on_c, 1, 64, 100
6, 60240, Note_off_c, 1, 64, 64
6, 60240, Note_off_c, 1, 62, 64
6, 60240, Note_off_c, 1, 56, 64
6, 60240, Note_off_c, 1, 52, 64
6, 60240, Note_on_c, 1, 52, 100
6, 60480, Note_off_c, 1, 52, 64
6, 60480, Note_on_c, 1, 52, 100
6, 60480, Note_on_c, 1, 56, 100
6, 60480, Note_on_c, 1, 62, 100
6, 60480, Note_on_c, 1, 64, 100
6, 60720, Note_off_c, 1, 64, 64
6, 60720, Note_off_c, 1, 62, 64
6, 60720, Note_off_c, 1, 56, 64
6, 60720, Note_off_c, 1, 52, 64
6, 60720, Note_on_c, 1, 52, 100
6, 60720, Note_on_c, 1, 56, 100
6, 60720, Note_on_c, 1, 62, 100
6, 60720, Note_on_c, 1, 64, 100
6, 60960, Note_off_c, 1, 64, 64
6, 60960, Note_off_c, 1, 62, 64
6, 60960, Note_off_c, 1, 56, 64
6, 60960, Note_off_c, 1, 52, 64
6, 60960, Note_on_c, 1, 52, 100
6, 60960, Note_on_c, 1, 56, 100
6, 60960, Note_on_c, 1, 62, 100
6, 60960, Note_on_c, 1, 64, 100
6, 61200, Note_off_c, 1, 64, 64
6, 61200, Note_off_c, 1, 62, 64
6, 61200, Note_off_c, 1, 56, 64
6, 61200, Note_off_c, 1, 52, 64
6, 61200, Note_on_c, 1, 52, 100
6, 61200, Note_on_c, 1, 56, 100
6, 61200, Note_on_c, 1, 62, 100
6, 61200, Note_on_c, 1, 64, 100
6, 61440, Note_off_c, 1, 64, 64
6, 61440, Note_off_c, 1, 62, 64
6, 61440, Note_off_c, 1, 56, 64
6, 61440, Note_off_c, 1, 52, 64
6, 61440, Note_on_c, 1, 52, 100
6, 61680, Note_off_c, 1, 52, 64
6, 61680, Note_on_c, 1, 52, 100
6, 61680, Note_on_c, 1, 56, 100
6, 61680, Note_on_c, 1, 62, 100
6, 61680, Note_on_c, 1, 64, 100
6, 62160, Note_off_c, 1, 64, 64
6, 62160, Note_off_c, 1, 62, 64
6, 62160, Note_off_c, 1, 56, 64
6, 62160, Note_off_c, 1, 52, 64
6, 62160, Note_on_c, 1, 52, 100
6, 62400, Note_off_c, 1, 52, 64
6, 62400, Note_on_c, 1, 52, 100
6, 62400, Note_on_c, 1, 56, 100
6, 62400, Note_on_c, 1, 62, 100
6, 62400, Note_on_c, 1, 64, 100
6, 62640, Note_off_c, 1, 64, 64
6, 62640, Note_off_c, 1, 62, 64
6, 62640, Note_off_c, 1, 56, 64
6, 62640, Note_off_c, 1, 52, 64
6, 62640, Note_on_c, 1, 52, 100
6, 62640, Note_on_c, 1, 56, 100
6, 62640, Note_on_c, 1, 62, 100
6, 62640, Note_on_c, 1, 64, 100
6, 62880, Note_off_c, 1, 64, 64
6, 62880, Note_off_c, 1, 62, 64
6, 62880, Note_off_c, 1, 56, 64
6, 62880, Note_off_c, 1, 52, 64
6, 62880, Note_on_c, 1, 52, 100
6, 62880, Note_on_c, 1, 56, 100
6, 62880, Note_on_c, 1, 62, 100
6, 62880, Note_on_c, 1, 64, 100
6, 63360, Note_off_c, 1, 64, 64
6, 63360, Note_off_c, 1, 62, 64
6, 63360, Note_off_c, 1, 56, 64
6, 63360, Note_off_c, 1, 52, 64
6, 63360, Note_on_c, 1, 52, 100
6, 63360, Note_on_c, 1, 45, 100
6, 63600, Note_off_c, 1, 45, 64
6, 63600, Note_off_c, 1, 52, 64
6, 63600, Note_on_c, 1, 52, 100
6, 63600, Note_on_c, 1, 45, 100
6, 63840, Note_off_c, 1, 45, 64
6, 63840, Note_off_c, 1, 52, 64
6, 63840, Note_on_c, 1, 54, 100
6, 63840, Note_on_c, 1, 45, 100
6, 64080, Note_off_c, 1, 45, 64
6, 64080, Note_off_c, 1, 54, 64
6, 64080, Note_on_c, 1, 52, 100
6, 64080, Note_on_c, 1, 45, 100
6, 64320, Note_off_c, 1, 45, 64
6, 64320, Note_off_c, 1, 52, 64
6, 64320, Note_on_c, 1, 55, 100
6, 64320, Note_on_c, 1, 45, 100
6, 64560, Note_off_c, 1, 45, 64
6, 64560, Note_off_c, 1, 55, 64
6, 64560, Note_on_c, 1, 55, 100
6, 64560, Note_on_c, 1, 45, 100
6, 64800, Note_off_c, 1, 45, 64
6, 64800, Note_off_c, 1, 55, 64
6, 64800, Note_on_c, 1, 54, 100
6, 64800, Note_on_c, 1, 45, 100
6, 65040, Note_off_c, 1, 45, 64
6, 65040, Note_off_c, 1, 54, 64
6, 65040, Note_on_c, 1, 52, 100
6, 65040, Note_on_c, 1, 45, 100
6, 65280, Note_off_c, 1, 45, 64
6, 65280, Note_off_c, 1, 52, 64
6, 65280, Note_on_c, 1, 55, 100
6, 65280, Note_on_c, 1, 45, 100
6, 65520, Note_off_c, 1, 45, 64
6, 65520, Note_off_c, 1, 55, 64
6, 65520, Note_on_c, 1, 55, 100
6, 65520, Note_on_c, 1, 45, 100
6, 65760, Note_off_c, 1, 45, 64
6, 65760, Note_off_c, 1, 55, 64
6, 65760, Note_on_c, 1, 54, 100
6, 65760, Note_on_c, 1, 45, 100
6, 66000, Note_off_c, 1, 45, 64
6, 66000, Note_off_c, 1, 54, 64
6, 66000, Note_on_c, 1, 52, 100
6, 66000, Note_on_c, 1, 45, 100
6, 66240, Note_off_c, 1, 45, 64
6, 66240, Note_off_c, 1, 52, 64
6, 66240, Note_on_c, 1, 55, 100
6, 66240, Note_on_c, 1, 45, 100
6, 66480, Note_off_c, 1, 45, 64
6, 66480, Note_off_c, 1, 55, 64
6, 66480, Note_on_c, 1, 55, 100
6, 66480, Note_on_c, 1, 45, 100
6, 66720, Note_off_c, 1, 45, 64
6, 66720, Note_off_c, 1, 55, 64
6, 66720, Note_on_c, 1, 54, 100
6, 66720, Note_on_c, 1, 45, 100
6, 66960, Note_off_c, 1, 45, 64
6, 66960, Note_off_c, 1, 54, 64
6, 66960, Note_on_c, 1, 49, 100
6, 66960, Note_on_c, 1, 55, 100
6, 67140, Note_on_c, 1, 50, 100
6, 67140, Note_on_c, 1, 57, 100
6, 67200, Note_off_c, 1, 57, 64
6, 67200, Note_off_c, 1, 50, 64
6, 67200, Note_off_c, 1, 55, 64
6, 67200, Note_off_c, 1, 49, 64
6, 67200, Note_on_c, 1, 57, 100
6, 67200, Note_on_c, 1, 50, 100
6, 67440, Note_off_c, 1, 50, 64
6, 67440, Note_off_c, 1, 57, 64
6, 67440, Note_on_c, 1, 57, 100
6, 67440, Note_on_c, 1, 50, 100
6, 67680, Note_off_c, 1, 50, 64
6, 67680, Note_off_c, 1, 57, 64
6, 67680, Note_on_c, 1, 59, 100
6, 67680, Note_on_c, 1, 50, 100
6, 67920, Note_off_c, 1, 50, 64
6, 67920, Note_off_c, 1, 59, 64
6, 67920, Note_on_c, 1, 57, 100
6, 67920, Note_on_c, 1, 50, 100
6, 68160, Note_off_c, 1, 50, 64
6, 68160, Note_off_c, 1, 57, 64
6, 68160, Note_on_c, 1, 60, 100
6, 68160, Note_on_c, 1, 50, 100
6, 68400, Note_off_c, 1, 50, 64
6, 68400, Note_off_c, 1, 60, 64
6, 68400, Note_on_c, 1, 60, 100
6, 68400, Note_on_c, 1, 50, 100
6, 68640, Note_off_c, 1, 50, 64
6, 68640, Note_off_c, 1, 60, 64
6, 68640, Note_on_c, 1, 59, 100
6, 68640, Note_on_c, 1, 50, 100
6, 68880, Note_off_c, 1, 50, 64
6, 68880, Note_off_c, 1, 59, 64
6, 68880, Note_on_c, 1, 57, 100
6, 68880, Note_on_c, 1, 50, 100
6, 69120, Note_off_c, 1, 50, 64
6, 69120, Note_off_c, 1, 57, 64
6, 69120, Note_on_c, 1, 60, 100
6, 69120, Note_on_c, 1, 50, 100
6, 69360, Note_off_c, 1, 50, 64
6, 69360, Note_off_c, 1, 60, 64
6, 69360, Note_on_c, 1, 60, 100
6, 69360, Note_on_c, 1, 50, 100
6, 69600, Note_off_c, 1, 50, 64
6, 69600, Note_off_c, 1, 60, 64
6, 69600, Note_on_c, 1, 59, 100
6, 69600, Note_on_c, 1, 50, 100
6, 69840, Note_off_c, 1, 50, 64
6, 69840, Note_off_c, 1, 59, 64
6, 69840, Note_on_c, 1, 57, 100
6, 69840, Note_on_c, 1, 50, 100
6, 70080, Note_off_c, 1, 50, 64
6, 70080, Note_off_c, 1, 57, 64
6, 70080, Note_on_c, 1, 60, 100
6, 70080, Note_on_c, 1, 50, 100
6, 70320, Note_off_c, 1, 50, 64
6, 70320, Note_off_c, 1, 60, 64
6, 70320, Note_on_c, 1, 60, 100
6, 70320, Note_on_c, 1, 50, 100
6, 70560, Note_off_c, 1, 50, 64
6, 70560, Note_off_c, 1, 60, 64
6, 70560, Note_on_c, 1, 59, 100
6, 70560, Note_on_c, 1, 50, 100
6, 70800, Note_off_c, 1, 50, 64
6, 70800, Note_off_c, 1, 59, 64
6, 70800, Note_on_c, 1, 74, 100
6, 70800, Note_on_c, 1, 69, 100
6, 71040, Note_off_c, 1, 69, 64
6, 71040, Note_off_c, 1, 74, 64
6, 71040, Note_on_c, 1, 52, 100
6, 71040, Note_on_c, 1, 45, 100
6, 71280, Note_off_c, 1, 45, 64
6, 71280, Note_off_c, 1, 52, 64
6, 71280, Note_on_c, 1, 52, 100
6, 71280, Note_on_c, 1, 45, 100
6, 71520, Note_off_c, 1, 45, 64
6, 71520, Note_off_c, 1, 52, 64
6, 71520, Note_on_c, 1, 54, 100
6, 71520, Note_on_c, 1, 45, 100
6, 71760, Note_off_c, 1, 45, 64
6, 71760, Note_off_c, 1, 54, 64
6, 71760, Note_on_c, 1, 52, 100
6, 71760, Note_on_c, 1, 45, 100
6, 72000, Note_off_c, 1, 45, 64
6, 72000, Note_off_c, 1, 52, 64
6, 72000, Note_on_c, 1, 55, 100
6, 72000, Note_on_c, 1, 45, 100
6, 72240, Note_off_c, 1, 45, 64
6, 72240, Note_off_c, 1, 55, 64
6, 72240, Note_on_c, 1, 55, 100
6, 72240, Note_on_c, 1, 45, 100
6, 72480, Note_off_c, 1, 45, 64
6, 72480, Note_off_c, 1, 55, 64
6, 72480, Note_on_c, 1, 54, 100
6, 72480, Note_on_c, 1, 45, 100
6, 72720, Note_off_c, 1, 45, 64
6, 72720, Note_off_c, 1, 54, 64
6, 72720, Note_on_c, 1, 52, 100
6, 72720, Note_on_c, 1, 45, 100
6, 72960, Note_off_c, 1, 45, 64
6, 72960, Note_off_c, 1, 52, 64
6, 72960, Note_on_c, 1, 55, 100
6, 72960, Note_on_c, 1, 45, 100
6, 73200, Note_off_c, 1, 45, 64
6, 73200, Note_off_c, 1, 55, 64
6, 73200, Note_on_c, 1, 55, 100
6, 73200, Note_on_c, 1, 45, 100
6, 73440, Note_off_c, 1, 45, 64
6, 73440, Note_off_c, 1, 55, 64
6, 73440, Note_on_c, 1, 54, 100
6, 73440, Note_on_c, 1, 45, 100
6, 73680, Note_off_c, 1, 45, 64
6, 73680, Note_off_c, 1, 54, 64
6, 73680, Note_on_c, 1, 52, 100
6, 73680, Note_on_c, 1, 45, 100
6, 73920, Note_off_c, 1, 45, 64
6, 73920, Note_off_c, 1, 52, 64
6, 73920, Note_on_c, 1, 55, 100
6, 73920, Note_on_c, 1, 45, 100
6, 74160, Note_off_c, 1, 45, 64
6, 74160, Note_off_c, 1, 55, 64
6, 74160, Note_on_c, 1, 55, 100
6, 74160, Note_on_c, 1, 45, 100
6, 74400, Note_off_c, 1, 45, 64
6, 74400, Note_off_c, 1, 55, 64
6, 74400, Note_on_c, 1, 54, 100
6, 74400, Note_on_c, 1, 45, 100
6, 74640, Note_off_c, 1, 45, 64
6, 74640, Note_off_c, 1, 54, 64
6, 74640, Note_on_c, 1, 52, 100
6, 74640, Note_on_c, 1, 45, 100
6, 74880, Note_off_c, 1, 45, 64
6, 74880, Note_off_c, 1, 52, 64
6, 74880, Note_on_c, 1, 52, 100
6, 75120, Note_off_c, 1, 52, 64
6, 75120, Note_on_c, 1, 52, 100
6, 75120, Note_on_c, 1, 56, 100
6, 75120, Note_on_c, 1, 62, 100
6, 75120, Note_on_c, 1, 64, 100
6, 75600, Note_off_c, 1, 64, 64
6, 75600, Note_off_c, 1, 62, 64
6, 75600, Note_off_c, 1, 56, 64
6, 75600, Note_off_c, 1, 52, 64
6, 75600, Note_on_c, 1, 52, 100
6, 75840, Note_off_c, 1, 52, 64
6, 75840, Note_on_c, 1, 52, 100
6, 75840, Note_on_c, 1, 56, 100
6, 75840, Note_on_c, 1, 62, 100
6, 75840, Note_on_c, 1, 64, 100
6, 76080, Note_off_c, 1, 64, 64
6, 76080, Note_off_c, 1, 62, 64
6, 76080, Note_off_c, 1, 56, 64
6, 76080, Note_off_c, 1, 52, 64
6, 76080, Note_on_c, 1, 52, 100
6, 76080, Note_on_c, 1, 56, 100
6, 76080, Note_on_c, 1, 62, 100
6, 76080, Note_on_c, 1, 64, 100
6, 76320, Note_off_c, 1, 64, 64
6, 76320, Note_off_c, 1, 62, 64
6, 76320, Note_off_c, 1, 56, 64
6, 76320, Note_off_c, 1, 52, 64
6, 76320, Note_on_c, 1, 52, 100
6, 76320, Note_on_c, 1, 56, 100
6, 76320, Note_on_c, 1, 62, 100
6, 76320, Note_on_c, 1, 64, 100
6, 76560, Note_off_c, 1, 64, 64
6, 76560, Note_off_c, 1, 62, 64
6, 76560, Note_off_c, 1, 56, 64
6, 76560, Note_off_c, 1, 52, 64
6, 76560, Note_on_c, 1, 52, 100
6, 76560, Note_on_c, 1, 56, 100
6, 76560, Note_on_c, 1, 62, 100
6, 76560, Note_on_c, 1, 64, 100
6, 76800, Note_off_c, 1, 64, 64
6, 76800, Note_off_c, 1, 62, 64
6, 76800, Note_off_c, 1, 56, 64
6, 76800, Note_off_c, 1, 52, 64
6, 76800, Note_on_c, 1, 52, 100
6, 77040, Note_off_c, 1, 52, 64
6, 77040, Note_on_c, 1, 52, 100
6, 77040, Note_on_c, 1, 56, 100
6, 77040, Note_on_c, 1, 62, 100
6, 77040, Note_on_c, 1, 64, 100
6, 77520, Note_off_c, 1, 64, 64
6, 77520, Note_off_c, 1, 62, 64
6, 77520, Note_off_c, 1, 56, 64
6, 77520, Note_off_c, 1, 52, 64
6, 77520, Note_on_c, 1, 52, 100
6, 77760, Note_off_c, 1, 52, 64
6, 77760, Note_on_c, 1, 52, 100
6, 77760, Note_on_c, 1, 56, 100
6, 77760, Note_on_c, 1, 62, 100
6, 77760, Note_on_c, 1, 64, 100
6, 78000, Note_off_c, 1, 64, 64
6, 78000, Note_off_c, 1, 62, 64
6, 78000, Note_off_c, 1, 56, 64
6, 78000, Note_off_c, 1, 52, 64
6, 78000, Note_on_c, 1, 52, 100
6, 78000, Note_on_c, 1, 56, 100
6, 78000, Note_on_c, 1, 62, 100
6, 78000, Note_on_c, 1, 64, 100
6, 78240, Note_off_c, 1, 64, 64
6, 78240, Note_off_c, 1, 62, 64
6, 78240, Note_off_c, 1, 56, 64
6, 78240, Note_off_c, 1, 52, 64
6, 78240, Note_on_c, 1, 52, 100
6, 78240, Note_on_c, 1, 56, 100
6, 78240, Note_on_c, 1, 62, 100
6, 78240, Note_on_c, 1, 64, 100
6, 78720, Note_off_c, 1, 64, 64
6, 78720, Note_off_c, 1, 62, 64
6, 78720, Note_off_c, 1, 56, 64
6, 78720, Note_off_c, 1, 52, 64
6, 78720, Note_on_c, 1, 69, 100
6, 78720, Note_on_c, 1, 64, 100
6, 78960, Note_off_c, 1, 64, 64
6, 78960, Note_off_c, 1, 69, 64
6, 78960, Note_on_c, 1, 69, 100
6, 78960, Note_on_c, 1, 64, 100
6, 79200, Note_off_c, 1, 64, 64
6, 79200, Note_off_c, 1, 69, 64
6, 79200, Note_on_c, 1, 69, 100
6, 79200, Note_on_c, 1, 64, 100
6, 79440, Note_off_c, 1, 64, 64
6, 79440, Note_off_c, 1, 69, 64
6, 79440, Note_on_c, 1, 69, 100
6, 79440, Note_on_c, 1, 64, 100
6, 79680, Note_off_c, 1, 64, 64
6, 79680, Note_off_c, 1, 69, 64
6, 79680, Note_on_c, 1, 69, 100
6, 79680, Note_on_c, 1, 64, 100
6, 79920, Note_off_c, 1, 64, 64
6, 79920, Note_off_c, 1, 69, 64
6, 79920, Note_on_c, 1, 69, 100
6, 79920, Note_on_c, 1, 64, 100
6, 80160, Note_off_c, 1, 64, 64
6, 80160, Note_off_c, 1, 69, 64
6, 80160, Note_on_c, 1, 69, 100
6, 80160, Note_on_c, 1, 64, 100
6, 80400, Note_off_c, 1, 64, 64
6, 80400, Note_off_c, 1, 69, 64
6, 80400, Note_on_c, 1, 62, 100
6, 80580, Note_on_c, 1, 66, 100
6, 80580, Note_on_c, 1, 63, 100
6, 80640, Note_off_c, 1, 63, 64
6, 80640, Note_off_c, 1, 66, 64
6, 80640, Note_off_c, 1, 62, 64
6, 80640, Note_on_c, 1, 64, 100
6, 80640, Note_on_c, 1, 67, 100
6, 80640, Note_on_c, 1, 73, 100
6, 81120, Note_off_c, 1, 73, 64
6, 81120, Note_off_c, 1, 67, 64
6, 81120, Note_off_c, 1, 64, 64
6, 81120, Note_on_c, 1, 50, 100
6, 81300, Note_on_c, 1, 66, 100
6, 81300, Note_on_c, 1, 63, 100
6, 81360, Note_off_c, 1, 63, 64
6, 81360, Note_off_c, 1, 66, 64
6, 81360, Note_off_c, 1, 50, 64
6, 81360, Note_on_c, 1, 64, 100
6, 81360, Note_on_c, 1, 67, 100
6, 81360, Note_on_c, 1, 73, 100
6, 81840, Note_off_c, 1, 73, 64
6, 81840, Note_off_c, 1, 67, 64
6, 81840, Note_off_c, 1, 64, 64
6, 81840, Note_on_c, 1, 50, 100
6, 82080, Note_off_c, 1, 50, 64
6, 82080, Note_on_c, 1, 50, 100
6, 82260, Note_on_c, 1, 66, 100
6, 82260, Note_on_c, 1, 63, 100
6, 82320, Note_off_c, 1, 63, 64
6, 82320, Note_off_c, 1, 66, 64
6, 82320, Note_off_c, 1, 50, 64
6, 82320, Note_on_c, 1, 64, 100
6, 82320, Note_on_c, 1, 67, 100
6, 82320, Note_on_c, 1, 73, 100
6, 82800, Note_off_c, 1, 73, 64
6, 82800, Note_off_c, 1, 67, 64
6, 82800, Note_off_c, 1, 64, 64
6, 82800, Note_on_c, 1, 50, 100
6, 82980, Note_on_c, 1, 66, 100
6, 82980, Note_on_c, 1, 63, 100
6, 83040, Note_off_c, 1, 63, 64
6, 83040, Note_off_c, 1, 66, 64
6, 83040, Note_off_c, 1, 50, 64
6, 83040, Note_on_c, 1, 64, 100
6, 83040, Note_on_c, 1, 67, 100
6, 83040, Note_on_c, 1, 73, 100
6, 83280, Note_off_c, 1, 73, 64
6, 83280, Note_off_c, 1, 67, 64
6, 83280, Note_off_c, 1, 64, 64
6, 83280, Note_on_c, 1, 50, 100
6, 83460, Note_on_c, 1, 66, 100
6, 83460, Note_on_c, 1, 63, 100
6, 83520, Note_off_c, 1, 63, 64
6, 83520, Note_off_c, 1, 66, 64
6, 83520, Note_off_c, 1, 50, 64
6, 83520, Note_on_c, 1, 64, 100
6, 83520, Note_on_c, 1, 67, 100
6, 83520, Note_on_c, 1, 73, 100
6, 83700, Note_on_c, 1, 66, 100
6, 83700, Note_on_c, 1, 63, 100
6, 83760, Note_off_c, 1, 63, 64
6, 83760, Note_off_c, 1, 66, 64
6, 83760, Note_off_c, 1, 73, 64
6, 83760, Note_off_c, 1, 67, 64
6, 83760, Note_off_c, 1, 64, 64
6, 83760, Note_on_c, 1, 64, 100
6, 83760, Note_on_c, 1, 67, 100
6, 83760, Note_on_c, 1, 73, 100
6, 83940, Note_on_c, 1, 66, 100
6, 83940, Note_on_c, 1, 63, 100
6, 84000, Note_off_c, 1, 63, 64
6, 84000, Note_off_c, 1, 66, 64
6, 84000, Note_off_c, 1, 73, 64
6, 84000, Note_off_c, 1, 67, 64
6, 84000, Note_off_c, 1, 64, 64
6, 84000, Note_on_c, 1, 64, 100
6, 84000, Note_on_c, 1, 67, 100
6, 84000, Note_on_c, 1, 73, 100
6, 84180, Note_on_c, 1, 66, 100
6, 84180, Note_on_c, 1, 63, 100
6, 84240, Note_off_c, 1, 63, 64
6, 84240, Note_off_c, 1, 66, 64
6, 84240, Note_off_c, 1, 73, 64
6, 84240, Note_off_c, 1, 67, 64
6, 84240, Note_off_c, 1, 64, 64
6, 84240, Note_on_c, 1, 64, 100
6, 84240, Note_on_c, 1, 67, 100
6, 84240, Note_on_c, 1, 73, 100
6, 84480, Note_off_c, 1, 73, 64
6, 84480, Note_off_c, 1, 67, 64
6, 84480, Note_off_c, 1, 64, 64
6, 84480, Note_on_c, 1, 69, 100
6, 84480, Note_on_c, 1, 64, 100
6, 84720, Note_off_c, 1, 64, 64
6, 84720, Note_off_c, 1, 69, 64
6, 84720, Note_on_c, 1, 69, 100
6, 84720, Note_on_c, 1, 64, 100
6, 84840, Note_on_c, 1, 62, 100
6, 84900, Note_off_c, 1, 62, 64
6, 84900, Note_on_c, 1, 63, 100
6, 84960, Note_off_c, 1, 64, 64
6, 84960, Note_off_c, 1, 69, 64
6, 84960, Note_off_c, 1, 63, 64
6, 84960, Note_on_c, 1, 64, 100
6, 85200, Note_off_c, 1, 64, 64
6, 85200, Note_on_c, 1, 69, 100
6, 85200, Note_on_c, 1, 64, 100
6, 85440, Note_off_c, 1, 64, 64
6, 85440, Note_off_c, 1, 69, 64
6, 85440, Note_on_c, 1, 69, 100
6, 85440, Note_on_c, 1, 64, 100
6, 85680, Note_off_c, 1, 64, 64
6, 85680, Note_off_c, 1, 69, 64
6, 85680, Note_on_c, 1, 69, 100
6, 85680, Note_on_c, 1, 64, 100
6, 85920, Note_off_c, 1, 64, 64
6, 85920, Note_off_c, 1, 69, 64
6, 85920, Note_on_c, 1, 69, 100
6, 85920, Note_on_c, 1, 64, 100
6, 86160, Note_off_c, 1, 64, 64
6, 86160, Note_off_c, 1, 69, 64
6, 86160, Note_on_c, 1, 69, 100
6, 86160, Note_on_c, 1, 64, 100
6, 86400, Note_off_c, 1, 64, 64
6, 86400, Note_off_c, 1, 69, 64
6, 86400, Note_on_c, 1, 72, 100
6, 86640, Note_off_c, 1, 72, 64
6, 86640, Note_on_c, 1, 69, 100
6, 86880, Note_off_c, 1, 69, 64
6, 86880, Note_on_c, 1, 67, 100
6, 87120, Note_off_c, 1, 67, 64
6, 87120, Note_on_c, 1, 64, 100
6, 87240, Note_on_c, 1, 62, 100
6, 87300, Note_off_c, 1, 62, 64
6, 87300, Note_on_c, 1, 63, 100
6, 87360, Note_off_c, 1, 64, 64
6, 87360, Note_off_c, 1, 63, 64
6, 87360, Note_on_c, 1, 64, 100
6, 87360, Note_on_c, 1, 67, 100
6, 87600, Note_off_c, 1, 67, 64
6, 87600, Note_off_c, 1, 64, 64
6, 87600, Note_on_c, 1, 67, 100
6, 87840, Note_off_c, 1, 67, 64
6, 87840, Note_on_c, 1, 62, 100
6, 88080, Note_off_c, 1, 62, 64
6, 88080, Note_on_c, 1, 60, 100
6, 88320, Note_off_c, 1, 60, 64
6, 88320, Note_on_c, 1, 62, 100
6, 88440, Note_on_c, 1, 62, 100
6, 88500, Note_off_c, 1, 62, 64
6, 88500, Note_on_c, 1, 63, 100
6, 88560, Note_off_c, 1, 62, 64
6, 88560, Note_off_c, 1, 63, 64
6, 88560, Note_on_c, 1, 64, 100
6, 88560, Note_on_c, 1, 64, 100
6, 88560, Note_on_c, 1, 69, 100
6, 88800, Note_off_c, 1, 69, 64
6, 88800, Note_off_c, 1, 64, 64
6, 88800, Note_off_c, 1, 64, 64
6, 88920, Note_on_c, 1, 62, 100
6, 88980, Note_off_c, 1, 62, 64
6, 88980, Note_on_c, 1, 63, 100
6, 89040, Note_off_c, 1, 63, 64
6, 89040, Note_on_c, 1, 64, 100
6, 89040, Note_on_c, 1, 64, 100
6, 89040, Note_on_c, 1, 69, 100
6, 89160, Note_on_c, 1, 62, 100
6, 89220, Note_off_c, 1, 62, 64
6, 89220, Note_on_c, 1, 63, 100
6, 89280, Note_off_c, 1, 69, 64
6, 89280, Note_off_c, 1, 64, 64
6, 89280, Note_off_c, 1, 64, 64
6, 89280, Note_off_c, 1, 63, 64
6, 89280, Note_on_c, 1, 64, 100
6, 89280, Note_on_c, 1, 64, 100
6, 89280, Note_on_c, 1, 69, 100
6, 89520, Note_off_c, 1, 69, 64
6, 89520, Note_off_c, 1, 64, 64
6, 89520, Note_off_c, 1, 64, 64
6, 89520, Note_on_c, 1, 69, 100
6, 89520, Note_on_c, 1, 64, 100
6, 89760, Note_off_c, 1, 64, 64
6, 89760, Note_off_c, 1, 69, 64
6, 89760, Note_on_c, 1, 62, 100
6, 90000, Note_off_c, 1, 62, 64
6, 90000, Note_on_c, 1, 60, 100
6, 90240, Note_off_c, 1, 60, 64
6, 90240, Note_on_c, 1, 61, 100
6, 90240, Note_on_c, 1, 64, 100
6, 90240, Note_on_c, 1, 69, 100
6, 90480, Note_off_c, 1, 69, 64
6, 90480, Note_off_c, 1, 64, 64
6, 90480, Note_off_c, 1, 61, 64
6, 90480, Note_on_c, 1, 57, 100
6, 90720, Note_off_c, 1, 57, 64
6, 90720, Note_on_c, 1, 62, 100
6, 90720, Note_on_c, 1, 66, 100
6, 90960, Note_off_c, 1, 66, 64
6, 90960, Note_off_c, 1, 62, 64
6, 90960, Note_on_c, 1, 60, 100
6, 90960, Note_on_c, 1, 64, 100
6, 91200, Note_off_c, 1, 64, 64
6, 91200, Note_off_c, 1, 60, 64
6, 91200, Note_on_c, 1, 61, 100
6, 91200, Note_on_c, 1, 64, 100
6, 91200, Note_on_c, 1, 69, 100
6, 91440, Note_off_c, 1, 69, 64
6, 91440, Note_off_c, 1, 64, 64
6, 91440, Note_off_c, 1, 61, 64
6, 91440, Note_on_c, 1, 57, 100
6, 91680, Note_off_c, 1, 57, 64
6, 91680, Note_on_c, 1, 62, 100
6, 91800, Note_on_c, 1, 62, 100
6, 91860, Note_off_c, 1, 62, 64
6, 91860, Note_on_c, 1, 63, 100
6, 91920, Note_off_c, 1, 62, 64
6, 91920, Note_off_c, 1, 63, 64
6, 91920, Note_on_c, 1, 64, 100
6, 92400, Note_off_c, 1, 64, 64
6, 92400, Note_on_c, 1, 69, 100
6, 92640, Note_off_c, 1, 69, 64
6, 92640, Note_on_c, 1, 62, 100
6, 92880, Note_off_c, 1, 62, 64
6, 92880, Note_on_c, 1, 60, 100
6, 93120, Note_off_c, 1, 60, 64
6, 93120, Note_on_c, 1, 62, 100
6, 93360, Note_off_c, 1, 62, 64
6, 93360, Note_on_c, 1, 64, 100
6, 93600, Note_off_c, 1, 64, 64
6, 93600, Note_on_c, 1, 69, 100
6, 93600, Note_on_c, 1, 64, 100
6, 93840, Note_off_c, 1, 64, 64
6, 93840, Note_off_c, 1, 69, 64
6, 93840, Note_on_c, 1, 69, 100
6, 93840, Note_on_c, 1, 64, 100
6, 94080, Note_off_c, 1, 64, 64
6, 94080, Note_off_c, 1, 69, 64
6, 94080, Note_on_c, 1, 72, 100
6, 94080, Note_on_c, 1, 67, 100
6, 94320, Note_off_c, 1, 67, 64
6, 94320, Note_off_c, 1, 72, 64
6, 94320, Note_on_c, 1, 71, 100
6, 94320, Note_on_c, 1, 66, 100
6, 94560, Note_off_c, 1, 66, 64
6, 94560, Note_off_c, 1, 71, 64
6, 94560, Note_on_c, 1, 69, 100
6, 94560, Note_on_c, 1, 64, 100
6, 94800, Note_off_c, 1, 64, 64
6, 94800, Note_off_c, 1, 69, 64
6, 94800, Note_on_c, 1, 63, 100
6, 94800, Note_on_c, 1, 67, 100
6, 95040, Note_off_c, 1, 67, 64
6, 95040, Note_off_c, 1, 63, 64
6, 95040, Note_on_c, 1, 62, 100
6, 95040, Note_on_c, 1, 66, 100
6, 95280, Note_off_c, 1, 66, 64
6, 95280, Note_off_c, 1, 62, 64
6, 95280, Note_on_c, 1, 61, 100
6, 95280, Note_on_c, 1, 64, 100
6, 95520, Note_off_c, 1, 64, 64
6, 95520, Note_off_c, 1, 61, 64
6, 95520, Note_on_c, 1, 57, 100
6, 95760, Note_off_c, 1, 57, 64
6, 95760, Note_on_c, 1, 61, 100
6, 95760, Note_on_c, 1, 64, 100
6, 95760, Note_on_c, 1, 69, 100
6, 96000, Note_off_c, 1, 69, 64
6, 96000, Note_off_c, 1, 64, 64
6, 96000, Note_off_c, 1, 61, 64
6, 96000, Note_on_c, 1, 64, 100
6, 96000, Note_on_c, 1, 64, 100
6, 96240, Note_off_c, 1, 64, 64
6, 96240, Note_off_c, 1, 64, 64
6, 96240, Note_on_c, 1, 69, 100
6, 96240, Note_on_c, 1, 64, 100
6, 96480, Note_off_c, 1, 64, 64
6, 96480, Note_off_c, 1, 69, 64
6, 96480, Note_on_c, 1, 69, 100
6, 96480, Note_on_c, 1, 64, 100
6, 96600, Note_on_c, 1, 62, 100
6, 96660, Note_off_c, 1, 62, 64
6, 96660, Note_on_c, 1, 63, 100
6, 96720, Note_off_c, 1, 64, 64
6, 96720, Note_off_c, 1, 69, 64
6, 96720, Note_off_c, 1, 63, 64
6, 96720, Note_on_c, 1, 64, 100
6, 96960, Note_off_c, 1, 64, 64
6, 96960, Note_on_c, 1, 69, 100
6, 96960, Note_on_c, 1, 64, 100
6, 97200, Note_off_c, 1, 64, 64
6, 97200, Note_off_c, 1, 69, 64
6, 97200, Note_on_c, 1, 69, 100
6, 97200, Note_on_c, 1, 64, 100
6, 97440, Note_off_c, 1, 64, 64
6, 97440, Note_off_c, 1, 69, 64
6, 97440, Note_on_c, 1, 62, 100
6, 97680, Note_off_c, 1, 62, 64
6, 97680, Note_on_c, 1, 60, 100
6, 97920, Note_off_c, 1, 60, 64
6, 97920, Note_on_c, 1, 61, 100
6, 97920, Note_on_c, 1, 64, 100
6, 97920, Note_on_c, 1, 69, 100
6, 98160, Note_off_c, 1, 69, 64
6, 98160, Note_off_c, 1, 64, 64
6, 98160, Note_off_c, 1, 61, 64
6, 98160, Note_on_c, 1, 57, 100
6, 98160, Note_on_c, 1, 61, 100
6, 98400, Note_off_c, 1, 61, 64
6, 98400, Note_off_c, 1, 57, 64
6, 98400, Note_on_c, 1, 66, 100
6, 98400, Note_on_c, 1, 62, 100
6, 98640, Note_off_c, 1, 62, 64
6, 98640, Note_off_c, 1, 66, 64
6, 98640, Note_on_c, 1, 69, 100
6, 98640, Note_on_c, 1, 64, 100
6, 98640, Note_on_c, 1, 60, 100
6, 98880, Note_off_c, 1, 60, 64
6, 98880, Note_off_c, 1, 64, 64
6, 98880, Note_off_c, 1, 69, 64
6, 98880, Note_on_c, 1, 61, 100
6, 99120, Note_off_c, 1, 61, 64
6, 99120, Note_on_c, 1, 61, 100
6, 99360, Note_off_c, 1, 61, 64
6, 99360, Note_on_c, 1, 66, 100
6, 99360, Note_on_c, 1, 62, 100
6, 99600, Note_off_c, 1, 62, 64
6, 99600, Note_off_c, 1, 66, 64
6, 99600, Note_on_c, 1, 69, 100
6, 99600, Note_on_c, 1, 64, 100
6, 99600, Note_on_c, 1, 60, 100
6, 99840, Note_off_c, 1, 60, 64
6, 99840, Note_off_c, 1, 64, 64
6, 99840, Note_off_c, 1, 69, 64
6, 99840, Note_on_c, 1, 61, 100
6, 100080, Note_off_c, 1, 61, 64
6, 100080, Note_on_c, 1, 57, 100
6, 100320, Note_off_c, 1, 57, 64
6, 100320, Note_on_c, 1, 52, 100
6, 100320, Note_on_c, 1, 56, 100
6, 100320, Note_on_c, 1, 62, 100
6, 100560, Note_off_c, 1, 62, 64
6, 100560, Note_off_c, 1, 56, 64
6, 100560, Note_off_c, 1, 52, 64
6, 100560, Note_on_c, 1, 52, 100
6, 100560, Note_on_c, 1, 56, 100
6, 100560, Note_on_c, 1, 62, 100
6, 100800, Note_off_c, 1, 62, 64
6, 100800, Note_off_c, 1, 56, 64
6, 100800, Note_off_c, 1, 52, 64
6, 100980, Note_on_c, 1, 72, 100
6, 100980, Note_on_c, 1, 67, 100
6, 100980, Note_on_c, 1, 63, 100
6, 101040, Note_off_c, 1, 63, 64
6, 101040, Note_off_c, 1, 67, 64
6, 101040, Note_off_c, 1, 72, 64
6, 101040, Note_on_c, 1, 73, 100
6, 101040, Note_on_c, 1, 68, 100
6, 101040, Note_on_c, 1, 64, 100
6, 101280, Note_off_c, 1, 64, 64
6, 101280, Note_off_c, 1, 68, 64
6, 101280, Note_off_c, 1, 73, 64
6, 101520, Note_on_c, 1, 50, 100
6, 101700, Note_on_c, 1, 72, 100
6, 101700, Note_on_c, 1, 67, 100
6, 101700, Note_on_c, 1, 63, 100
6, 101760, Note_off_c, 1, 63, 64
6, 101760, Note_off_c, 1, 67, 64
6, 101760, Note_off_c, 1, 72, 64
6, 101760, Note_off_c, 1, 50, 64
6, 101760, Note_on_c, 1, 64, 100
6, 101760, Note_on_c, 1, 68, 100
6, 101760, Note_on_c, 1, 73, 100
6, 102240, Note_off_c, 1, 73, 64
6, 102240, Note_off_c, 1, 68, 64
6, 102240, Note_off_c, 1, 64, 64
6, 102240, Note_on_c, 1, 50, 100
6, 102420, Note_on_c, 1, 63, 100
6, 102420, Note_on_c, 1, 67, 100
6, 102420, Note_on_c, 1, 72, 100
6, 102480, Note_off_c, 1, 72, 64
6, 102480, Note_off_c, 1, 67, 64
6, 102480, Note_off_c, 1, 63, 64
6, 102480, Note_off_c, 1, 50, 64
6, 102480, Note_on_c, 1, 64, 100
6, 102480, Note_on_c, 1, 68, 100
6, 102480, Note_on_c, 1, 73, 100
6, 102720, Note_off_c, 1, 73, 64
6, 102720, Note_off_c, 1, 68, 64
6, 102720, Note_off_c, 1, 64, 64
6, 102960, Note_on_c, 1, 50, 100
6, 103200, Note_off_c, 1, 50, 64
6, 103200, Note_on_c, 1, 50, 100
6, 103380, Note_on_c, 1, 72, 100
6, 103380, Note_on_c, 1, 67, 100
6, 103380, Note_on_c, 1, 63, 100
6, 103440, Note_off_c, 1, 63, 64
6, 103440, Note_off_c, 1, 67, 64
6, 103440, Note_off_c, 1, 72, 64
6, 103440, Note_off_c, 1, 50, 64
6, 103440, Note_on_c, 1, 64, 100
6, 103440, Note_on_c, 1, 68, 100
6, 103440, Note_on_c, 1, 73, 100
6, 103680, Note_off_c, 1, 73, 64
6, 103680, Note_off_c, 1, 68, 64
6, 103680, Note_off_c, 1, 64, 64
6, 103920, Note_on_c, 1, 50, 100
6, 104100, Note_on_c, 1, 72, 100
6, 104100, Note_on_c, 1, 67, 100
6, 104100, Note_on_c, 1, 63, 100
6, 104160, Note_off_c, 1, 63, 64
6, 104160, Note_off_c, 1, 67, 64
6, 104160, Note_off_c, 1, 72, 64
6, 104160, Note_off_c, 1, 50, 64
6, 104160, Note_on_c, 1, 64, 100
6, 104160, Note_on_c, 1, 68, 100
6, 104160, Note_on_c, 1, 73, 100
6, 104400, Note_off_c, 1, 73, 64
6, 104400, Note_off_c, 1, 68, 64
6, 104400, Note_off_c, 1, 64, 64
6, 104400, Note_on_c, 1, 50, 100
6, 104580, Note_on_c, 1, 72, 100
6, 104580, Note_on_c, 1, 67, 100
6, 104580, Note_on_c, 1, 63, 100
6, 104640, Note_off_c, 1, 63, 64
6, 104640, Note_off_c, 1, 67, 64
6, 104640, Note_off_c, 1, 72, 64
6, 104640, Note_off_c, 1, 50, 64
6, 104640, Note_on_c, 1, 64, 100
6, 104640, Note_on_c, 1, 68, 100
6, 104640, Note_on_c, 1, 73, 100
6, 104820, Note_on_c, 1, 72, 100
6, 104820, Note_on_c, 1, 67, 100
6, 104820, Note_on_c, 1, 63, 100
6, 104880, Note_off_c, 1, 63, 64
6, 104880, Note_off_c, 1, 67, 64
6, 104880, Note_off_c, 1, 72, 64
6, 104880, Note_off_c, 1, 73, 64
6, 104880, Note_off_c, 1, 68, 64
6, 104880, Note_off_c, 1, 64, 64
6, 104880, Note_on_c, 1, 64, 100
6, 104880, Note_on_c, 1, 68, 100
6, 104880, Note_on_c, 1, 73, 100
6, 105120, Note_off_c, 1, 73, 64
6, 105120, Note_off_c, 1, 68, 64
6, 105120, Note_off_c, 1, 64, 64
6, 105120, Note_on_c, 1, 50, 100
6, 105360, Note_off_c, 1, 50, 64
6, 105360, Note_on_c, 1, 50, 100
6, 105540, Note_on_c, 1, 72, 100
6, 105540, Note_on_c, 1, 67, 100
6, 105540, Note_on_c, 1, 63, 100
6, 105600, Note_off_c, 1, 63, 64
6, 105600, Note_off_c, 1, 67, 64
6, 105600, Note_off_c, 1, 72, 64
6, 105600, Note_off_c, 1, 50, 64
6, 105600, Note_on_c, 1, 64, 100
6, 105600, Note_on_c, 1, 68, 100
6, 105600, Note_on_c, 1, 73, 100
6, 106080, Note_off_c, 1, 73, 64
6, 106080, Note_off_c, 1, 68, 64
6, 106080, Note_off_c, 1, 64, 64
6, 106080, Note_on_c, 1, 50, 100
6, 106260, Note_on_c, 1, 72, 100
6, 106260, Note_on_c, 1, 67, 100
6, 106260, Note_on_c, 1, 63, 100
6, 106320, Note_off_c, 1, 63, 64
6, 106320, Note_off_c, 1, 67, 64
6, 106320, Note_off_c, 1, 72, 64
6, 106320, Note_off_c, 1, 50, 64
6, 106320, Note_on_c, 1, 73, 100
6, 106320, Note_on_c, 1, 68, 100
6, 106320, Note_on_c, 1, 64, 100
6, 106560, Note_off_c, 1, 64, 64
6, 106560, Note_off_c, 1, 68, 64
6, 106560, Note_off_c, 1, 73, 64
6, 106560, Note_on_c, 1, 50, 100
6, 106800, Note_off_c, 1, 50, 64
6, 107280, Note_on_c, 1, 66, 100
6, 107280, Note_on_c, 1, 71, 100
6, 107280, Note_on_c, 1, 76, 100
6, 107760, Note_off_c, 1, 76, 64
6, 107760, Note_off_c, 1, 71, 64
6, 107760, Note_off_c, 1, 66, 64
6, 107760, Note_on_c, 1, 76, 100
6, 107760, Note_on_c, 1, 71, 100
6, 107760, Note_on_c, 1, 66, 100
6, 108000, Note_off_c, 1, 66, 64
6, 108000, Note_off_c, 1, 71, 64
6, 108000, Note_off_c, 1, 76, 64
6, 108000, Note_on_c, 1, 75, 100
6, 108000, Note_on_c, 1, 70, 100
6, 108000, Note_on_c, 1, 65, 100
6, 108240, Note_off_c, 1, 65, 64
6, 108240, Note_off_c, 1, 70, 64
6, 108240, Note_off_c, 1, 75, 64
6, 108240, Note_on_c, 1, 76, 100
6, 108240, Note_on_c, 1, 71, 100
6, 108240, Note_on_c, 1, 66, 100
6, 108480, Note_off_c, 1, 66, 64
6, 108480, Note_off_c, 1, 71, 64
6, 108480, Note_off_c, 1, 76, 64
6, 108480, Note_on_c, 1, 77, 100
6, 108480, Note_on_c, 1, 72, 100
6, 108480, Note_on_c, 1, 67, 100
6, 108720, Note_off_c, 1, 67, 64
6, 108720, Note_off_c, 1, 72, 64
6, 108720, Note_off_c, 1, 77, 64
6, 108720, Note_on_c, 1, 78, 100
6, 108720, Note_on_c, 1, 73, 100
6, 108720, Note_on_c, 1, 68, 100
6, 108960, Note_off_c, 1, 68, 64
6, 108960, Note_off_c, 1, 73, 64
6, 108960, Note_off_c, 1, 78, 64
6, 108960, Note_on_c, 1, 79, 100
6, 108960, Note_on_c, 1, 74, 100
6, 108960, Note_on_c, 1, 69, 100
6, 109200, Note_off_c, 1, 69, 64
6, 109200, Note_off_c, 1, 74, 64
6, 109200, Note_off_c, 1, 79, 64
6, 109200, Note_on_c, 1, 80, 100
6, 109200, Note_on_c, 1, 75, 100
6, 109200, Note_on_c, 1, 70, 100
6, 109440, Note_off_c, 1, 70, 64
6, 109440, Note_off_c, 1, 75, 64
6, 109440, Note_off_c, 1, 80, 64
6, 109440, Note_on_c, 1, 71, 100
6, 109440, Note_on_c, 1, 76, 100
6, 109440, Note_on_c, 1, 81, 100
6, 109920, Note_off_c, 1, 81, 64
6, 109920, Note_off_c, 1, 76, 64
6, 109920, Note_off_c, 1, 71, 64
6, 109920, Note_on_c, 1, 71, 100
6, 109920, Note_on_c, 1, 76, 100
6, 109920, Note_on_c, 1, 81, 100
6, 110400, Note_off_c, 1, 81, 64
6, 110400, Note_off_c, 1, 76, 64
6, 110400, Note_off_c, 1, 71, 64
6, 110400, Note_on_c, 1, 69, 100
6, 110400, Note_on_c, 1, 74, 100
6, 110400, Note_on_c, 1, 80, 100
6, 110640, Note_off_c, 1, 80, 64
6, 110640, Note_off_c, 1, 74, 64
6, 110640, Note_off_c, 1, 69, 64
6, 110640, Note_on_c, 1, 71, 100
6, 110640, Note_on_c, 1, 76, 100
6, 110640, Note_on_c, 1, 81, 100
6, 111120, Note_off_c, 1, 81, 64
6, 111120, Note_off_c, 1, 76, 64
6, 111120, Note_off_c, 1, 71, 64
6, 111120, Note_on_c, 1, 71, 100
6, 111120, Note_on_c, 1, 76, 100
6, 111120, Note_on_c, 1, 81, 100
6, 111360, Note_off_c, 1, 81, 64
6, 111360, Note_off_c, 1, 76, 64
6, 111360, Note_off_c, 1, 71, 64
6, 111840, Note_on_c, 1, 71, 100
6, 111840, Note_on_c, 1, 76, 100
6, 111840, Note_on_c, 1, 81, 100
6, 112320, Note_off_c, 1, 81, 64
6, 112320, Note_off_c, 1, 76, 64
6, 112320, Note_off_c, 1, 71, 64
6, 112320, Note_on_c, 1, 71, 100
6, 112320, Note_on_c, 1, 76, 100
6, 112320, Note_on_c, 1, 81, 100
6, 112560, Note_off_c, 1, 81, 64
6, 112560, Note_off_c, 1, 76, 64
6, 112560, Note_off_c, 1, 71, 64
6, 112560, Note_on_c, 1, 71, 100
6, 112560, Note_on_c, 1, 76, 100
6, 112560, Note_on_c, 1, 81, 100
6, 112800, Note_off_c, 1, 81, 64
6, 112800, Note_off_c, 1, 76, 64
6, 112800, Note_off_c, 1, 71, 64
6, 113040, Note_on_c, 1, 71, 100
6, 113040, Note_on_c, 1, 73, 100
6, 113040, Note_on_c, 1, 81, 100
6, 113520, Note_off_c, 1, 81, 64
6, 113520, Note_off_c, 1, 73, 64
6, 113520, Note_off_c, 1, 71, 64
6, 113760, Note_on_c, 1, 71, 100
6, 113760, Note_on_c, 1, 73, 100
6, 113760, Note_on_c, 1, 81, 100
6, 114000, Note_off_c, 1, 81, 64
6, 114000, Note_off_c, 1, 73, 64
6, 114000, Note_off_c, 1, 71, 64
6, 114000, Note_on_c, 1, 71, 100
6, 114000, Note_on_c, 1, 73, 100
6, 114000, Note_on_c, 1, 81, 100
6, 114240, Note_off_c, 1, 81, 64
6, 114240, Note_off_c, 1, 73, 64
6, 114240, Note_off_c, 1, 71, 64
6, 114240, Note_on_c, 1, 71, 100
6, 114240, Note_on_c, 1, 73, 100
6, 114240, Note_on_c, 1, 81, 100
6, 114480, Note_off_c, 1, 81, 64
6, 114480, Note_off_c, 1, 73, 64
6, 114480, Note_off_c, 1, 71, 64
6, 114480, Note_on_c, 1, 71, 100
6, 114480, Note_on_c, 1, 73, 100
6, 114480, Note_on_c, 1, 81, 100
6, 114720, Note_off_c, 1, 81, 64
6, 114720, Note_off_c, 1, 73, 64
6, 114720, Note_off_c, 1, 71, 64
6, 114960, Note_on_c, 1, 71, 100
6, 114960, Note_on_c, 1, 73, 100
6, 114960, Note_on_c, 1, 81, 100
6, 115440, Note_off_c, 1, 81, 64
6, 115440, Note_off_c, 1, 73, 64
6, 115440, Note_off_c, 1, 71, 64
6, 115440, Note_on_c, 1, 69, 100
6, 115440, Note_on_c, 1, 64, 100
6, 115680, Note_off_c, 1, 64, 64
6, 115680, Note_off_c, 1, 69, 64
6, 115680, Note_on_c, 1, 69, 100
6, 115680, Note_on_c, 1, 64, 100
6, 115920, Note_off_c, 1, 64, 64
6, 115920, Note_off_c, 1, 69, 64
6, 115920, Note_on_c, 1, 69, 100
6, 115920, Note_on_c, 1, 64, 100
6, 116040, Note_on_c, 1, 62, 100
6, 116100, Note_off_c, 1, 62, 64
6, 116100, Note_on_c, 1, 63, 100
6, 116160, Note_off_c, 1, 64, 64
6, 116160, Note_off_c, 1, 69, 64
6, 116160, Note_off_c, 1, 63, 64
6, 116160, Note_on_c, 1, 64, 100
6, 116400, Note_off_c, 1, 64, 64
6, 116400, Note_on_c, 1, 69, 100
6, 116400, Note_on_c, 1, 64, 100
6, 116640, Note_off_c, 1, 64, 64
6, 116640, Note_off_c, 1, 69, 64
6, 116640, Note_on_c, 1, 69, 100
6, 116640, Note_on_c, 1, 64, 100
6, 116880, Note_off_c, 1, 64, 64
6, 116880, Note_off_c, 1, 69, 64
6, 116880, Note_on_c, 1, 69, 100
6, 116880, Note_on_c, 1, 64, 100
6, 117120, Note_off_c, 1, 64, 64
6, 117120, Note_off_c, 1, 69, 64
6, 117120, Note_on_c, 1, 67, 100
6, 117120, Note_on_c, 1, 72, 100
6, 117360, Note_off_c, 1, 72, 64
6, 117360, Note_off_c, 1, 67, 64
6, 117360, Note_on_c, 1, 71, 100
6, 117360, Note_on_c, 1, 66, 100
6, 117600, Note_off_c, 1, 66, 64
6, 117600, Note_off_c, 1, 71, 64
6, 117600, Note_on_c, 1, 69, 100
6, 117600, Note_on_c, 1, 64, 100
6, 117840, Note_off_c, 1, 64, 64
6, 117840, Note_off_c, 1, 69, 64
6, 117840, Note_on_c, 1, 67, 100
6, 117840, Note_on_c, 1, 63, 100
6, 118080, Note_off_c, 1, 63, 64
6, 118080, Note_off_c, 1, 67, 64
6, 118080, Note_on_c, 1, 66, 100
6, 118080, Note_on_c, 1, 62, 100
6, 118320, Note_off_c, 1, 62, 64
6, 118320, Note_off_c, 1, 66, 64
6, 118320, Note_on_c, 1, 64, 100
6, 118320, Note_on_c, 1, 60, 100
6, 118560, Note_off_c, 1, 60, 64
6, 118560, Note_off_c, 1, 64, 64
6, 118560, Note_on_c, 1, 57, 100
6, 118800, Note_off_c, 1, 57, 64
6, 118800, Note_on_c, 1, 64, 100
6, 118800, Note_on_c, 1, 60, 100
6, 119040, Note_off_c, 1, 60, 64
6, 119040, Note_off_c, 1, 64, 64
6, 119040, Note_on_c, 1, 57, 100
6, 119160, Note_on_c, 1, 62, 100
6, 119220, Note_off_c, 1, 62, 64
6, 119220, Note_on_c, 1, 63, 100
6, 119280, Note_off_c, 1, 57, 64
6, 119280, Note_off_c, 1, 63, 64
6, 119280, Note_on_c, 1, 64, 100
6, 119280, Note_on_c, 1, 64, 100
6, 119520, Note_off_c, 1, 64, 64
6, 119520, Note_off_c, 1, 64, 64
6, 119760, Note_on_c, 1, 69, 100
6, 119760, Note_on_c, 1, 64, 100
6, 119880, Note_on_c, 1, 62, 100
6, 119940, Note_off_c, 1, 62, 64
6, 119940, Note_on_c, 1, 63, 100
6, 120000, Note_off_c, 1, 64, 64
6, 120000, Note_off_c, 1, 69, 64
6, 120000, Note_off_c, 1, 63, 64
6, 120000, Note_on_c, 1, 64, 100
6, 120000, Note_on_c, 1, 64, 100
6, 120240, Note_off_c, 1, 64, 64
6, 120240, Note_off_c, 1, 64, 64
6, 120240, Note_on_c, 1, 69, 100
6, 120240, Note_on_c, 1, 64, 100
6, 120480, Note_off_c, 1, 64, 64
6, 120480, Note_off_c, 1, 69, 64
6, 120480, Note_on_c, 1, 62, 100
6, 120480, Note_on_c, 1, 66, 100
6, 120720, Note_off_c, 1, 66, 64
6, 120720, Note_off_c, 1, 62, 64
6, 120720, Note_on_c, 1, 60, 100
6, 120720, Note_on_c, 1, 64, 100
6, 120960, Note_off_c, 1, 64, 64
6, 120960, Note_off_c, 1, 60, 64
6, 120960, Note_on_c, 1, 61, 100
6, 121200, Note_off_c, 1, 61, 64
6, 121200, Note_on_c, 1, 57, 100
6, 121440, Note_off_c, 1, 57, 64
6, 121440, Note_on_c, 1, 62, 100
6, 121440, Note_on_c, 1, 66, 100
6, 121680, Note_off_c, 1, 66, 64
6, 121680, Note_off_c, 1, 62, 64
6, 121680, Note_on_c, 1, 60, 100
6, 121680, Note_on_c, 1, 64, 100
6, 121680, Note_on_c, 1, 69, 100
6, 121920, Note_off_c, 1, 69, 64
6, 121920, Note_off_c, 1, 64, 64
6, 121920, Note_off_c, 1, 60, 64
6, 121920, Note_on_c, 1, 61, 100
6, 122160, Note_off_c, 1, 61, 64
6, 122160, Note_on_c, 1, 57, 100
6, 122400, Note_off_c, 1, 57, 64
6, 122400, Note_on_c, 1, 62, 100
6, 122400, Note_on_c, 1, 66, 100
6, 122640, Note_off_c, 1, 66, 64
6, 122640, Note_off_c, 1, 62, 64
6, 122640, Note_on_c, 1, 60, 100
6, 122640, Note_on_c, 1, 64, 100
6, 122640, Note_on_c, 1, 69, 100
6, 122880, Note_off_c, 1, 69, 64
6, 122880, Note_off_c, 1, 64, 64
6, 122880, Note_off_c, 1, 60, 64
6, 122880, Note_on_c, 1, 60, 100
6, 123120, Note_off_c, 1, 60, 64
6, 123120, Note_on_c, 1, 57, 100
6, 123360, Note_off_c, 1, 57, 64
6, 123360, Note_on_c, 1, 52, 100
6, 123600, Note_off_c, 1, 52, 64
6, 123600, Note_on_c, 1, 64, 100
6, 123600, Note_on_c, 1, 62, 100
6, 123600, Note_on_c, 1, 56, 100
6, 123840, Note_off_c, 1, 56, 64
6, 123840, Note_off_c, 1, 62, 64
6, 123840, Note_off_c, 1, 64, 64
6, 123840, Note_on_c, 1, 45, 100
6, 124080, Note_off_c, 1, 45, 64
6, 124080, Note_on_c, 1, 45, 100
6, 124320, Note_off_c, 1, 45, 64
6, 124320, Note_on_c, 1, 71, 100
6, 124320, Note_on_c, 1, 73, 100
6, 124320, Note_on_c, 1, 81, 100
6, 124560, Note_off_c, 1, 81, 64
6, 124560, Note_off_c, 1, 73, 64
6, 124560, Note_off_c, 1, 71, 64
6, 124560, Note_on_c, 1, 45, 100
6, 124800, Note_off_c, 1, 45, 64
6, 124800, Note_on_c, 1, 45, 100
6, 125040, Note_off_c, 1, 45, 64
6, 125040, Note_on_c, 1, 45, 100
6, 125280, Note_off_c, 1, 45, 64
6, 125280, Note_on_c, 1, 81, 100
6, 125280, Note_on_c, 1, 73, 100
6, 125280, Note_on_c, 1, 71, 100
6, 125520, Note_off_c, 1, 71, 64
6, 125520, Note_off_c, 1, 73, 64
6, 125520, Note_off_c, 1, 81, 64
6, 125520, Note_on_c, 1, 45, 100
6, 125760, Note_off_c, 1, 45, 64
6, 125760, Note_on_c, 1, 81, 100
6, 125760, Note_on_c, 1, 73, 100
6, 125760, Note_on_c, 1, 71, 100
6, 126000, Note_off_c, 1, 71, 64
6, 126000, Note_off_c, 1, 73, 64
6, 126000, Note_off_c, 1, 81, 64
6, 126000, Note_on_c, 1, 71, 100
6, 126000, Note_on_c, 1, 73, 100
6, 126000, Note_on_c, 1, 81, 100
6, 126240, Note_off_c, 1, 81, 64
6, 126240, Note_off_c, 1, 73, 64
6, 126240, Note_off_c, 1, 71, 64
6, 126240, Note_on_c, 1, 45, 100
6, 126480, Note_off_c, 1, 45, 64
6, 126480, Note_on_c, 1, 45, 100
6, 126720, Note_off_c, 1, 45, 64
6, 126720, Note_on_c, 1, 71, 100
6, 126720, Note_on_c, 1, 73, 100
6, 126720, Note_on_c, 1, 81, 100
6, 126960, Note_off_c, 1, 81, 64
6, 126960, Note_off_c, 1, 73, 64
6, 126960, Note_off_c, 1, 71, 64
6, 126960, Note_on_c, 1, 45, 100
6, 127200, Note_off_c, 1, 45, 64
6, 127200, Note_on_c, 1, 45, 100
6, 127440, Note_off_c, 1, 45, 64
6, 127440, Note_on_c, 1, 81, 100
6, 127440, Note_on_c, 1, 73, 100
6, 127440, Note_on_c, 1, 71, 100
6, 127680, Note_off_c, 1, 71, 64
6, 127680, Note_off_c, 1, 73, 64
6, 127680, Note_off_c, 1, 81, 64
6, 127680, Note_on_c, 1, 45, 100
6, 127920, Note_off_c, 1, 45, 64
6, 127920, Note_on_c, 1, 45, 100
6, 128160, Note_off_c, 1, 45, 64
6, 128160, Note_on_c, 1, 81, 100
6, 128160, Note_on_c, 1, 73, 100
6, 128160, Note_on_c, 1, 71, 100
6, 128400, Note_off_c, 1, 71, 64
6, 128400, Note_off_c, 1, 73, 64
6, 128400, Note_off_c, 1, 81, 64
6, 128400, Note_on_c, 1, 81, 100
6, 128400, Note_on_c, 1, 73, 100
6, 128400, Note_on_c, 1, 71, 100
6, 128640, Note_off_c, 1, 71, 64
6, 128640, Note_off_c, 1, 73, 64
6, 128640, Note_off_c, 1, 81, 64
6, 128640, Note_on_c, 1, 45, 100
6, 128880, Note_off_c, 1, 45, 64
6, 128880, Note_on_c, 1, 45, 100
6, 129120, Note_off_c, 1, 45, 64
6, 129120, Note_on_c, 1, 71, 100
6, 129120, Note_on_c, 1, 73, 100
6, 129120, Note_on_c, 1, 81, 100
6, 129360, Note_off_c, 1, 81, 64
6, 129360, Note_off_c, 1, 73, 64
6, 129360, Note_off_c, 1, 71, 64
6, 129360, Note_on_c, 1, 45, 100
6, 129600, Note_off_c, 1, 45, 64
6, 129600, Note_on_c, 1, 71, 100
6, 129600, Note_on_c, 1, 73, 100
6, 129600, Note_on_c, 1, 81, 100
6, 129840, Note_off_c, 1, 81, 64
6, 129840, Note_off_c, 1, 73, 64
6, 129840, Note_off_c, 1, 71, 64
6, 129840, Note_on_c, 1, 71, 100
6, 129840, Note_on_c, 1, 73, 100
6, 129840, Note_on_c, 1, 81, 100
6, 130080, Note_off_c, 1, 81, 64
6, 130080, Note_off_c, 1, 73, 64
6, 130080, Note_off_c, 1, 71, 64
6, 130080, Note_on_c, 1, 45, 100
6, 130320, Note_off_c, 1, 45, 64
6, 130320, Note_on_c, 1, 45, 100
6, 130560, Note_off_c, 1, 45, 64
6, 130560, Note_on_c, 1, 71, 100
6, 130560, Note_on_c, 1, 73, 100
6, 130560, Note_on_c, 1, 81, 100
6, 130800, Note_off_c, 1, 81, 64
6, 130800, Note_off_c, 1, 73, 64
6, 130800, Note_off_c, 1, 71, 64
6, 130800, Note_on_c, 1, 45, 100
6, 131040, Note_off_c, 1, 45, 64
6, 131040, Note_on_c, 1, 45, 100
6, 131280, Note_off_c, 1, 45, 64
6, 131280, Note_on_c, 1, 71, 100
6, 131280, Note_on_c, 1, 73, 100
6, 131280, Note_on_c, 1, 81, 100
6, 131280, Note_on_c, 1, 45, 100
6, 131520, Note_off_c, 1, 45, 64
6, 131520, Note_off_c, 1, 81, 64
6, 131520, Note_off_c, 1, 73, 64
6, 131520, Note_off_c, 1, 71, 64
6, 131520, Note_on_c, 1, 45, 100
6, 131760, Note_off_c, 1, 45, 64
6, 131760, Note_on_c, 1, 45, 100
6, 132000, Note_off_c, 1, 45, 64
6, 132000, Note_on_c, 1, 71, 100
6, 132000, Note_on_c, 1, 73, 100
6, 132000, Note_on_c, 1, 81, 100
6, 132240, Note_off_c, 1, 81, 64
6, 132240, Note_off_c, 1, 73, 64
6, 132240, Note_off_c, 1, 71, 64
6, 132240, Note_on_c, 1, 71, 100
6, 132240, Note_on_c, 1, 73, 100
6, 132240, Note_on_c, 1, 81, 100
6, 132480, Note_off_c, 1, 81, 64
6, 132480, Note_off_c, 1, 73, 64
6, 132480, Note_off_c, 1, 71, 64
6, 132480, Note_on_c, 1, 45, 100
6, 132720, Note_off_c, 1, 45, 64
6, 132720, Note_on_c, 1, 45, 100
6, 132960, Note_off_c, 1, 45, 64
6, 132960, Note_on_c, 1, 71, 100
6, 132960, Note_on_c, 1, 73, 100
6, 132960, Note_on_c, 1, 81, 100
6, 133200, Note_off_c, 1, 81, 64
6, 133200, Note_off_c, 1, 73, 64
6, 133200, Note_off_c, 1, 71, 64
6, 133200, Note_on_c, 1, 71, 100
6, 133200, Note_on_c, 1, 73, 100
6, 133200, Note_on_c, 1, 81, 100
6, 133440, Note_off_c, 1, 81, 64
6, 133440, Note_off_c, 1, 73, 64
6, 133440, Note_off_c, 1, 71, 64
6, 133440, Note_on_c, 1, 70, 100
6, 133440, Note_on_c, 1, 72, 100
6, 133440, Note_on_c, 1, 80, 100
6, 133680, Note_off_c, 1, 80, 64
6, 133680, Note_off_c, 1, 72, 64
6, 133680, Note_off_c, 1, 70, 64
6, 133680, Note_on_c, 1, 71, 100
6, 133680, Note_on_c, 1, 73, 100
6, 133680, Note_on_c, 1, 81, 100
6, 133920, Note_off_c, 1, 81, 64
6, 133920, Note_off_c, 1, 73, 64
6, 133920, Note_off_c, 1, 71, 64
6, 133920, Note_on_c, 1, 45, 100
6, 134160, Note_off_c, 1, 45, 64
6, 134160, Note_on_c, 1, 45, 100
6, 134400, Note_off_c, 1, 45, 64
6, 134400, Note_on_c, 1, 71, 100
6, 134400, Note_on_c, 1, 73, 100
6, 134400, Note_on_c, 1, 81, 100
6, 134640, Note_off_c, 1, 81, 64
6, 134640, Note_off_c, 1, 73, 64
6, 134640, Note_off_c, 1, 71, 64
6, 134640, Note_on_c, 1, 70, 100
6, 134640, Note_on_c, 1, 72, 100
6, 134640, Note_on_c, 1, 80, 100
6, 134880, Note_off_c, 1, 80, 64
6, 134880, Note_off_c, 1, 72, 64
6, 134880, Note_off_c, 1, 70, 64
6, 134880, Note_on_c, 1, 71, 100
6, 134880, Note_on_c, 1, 73, 100
6, 134880, Note_on_c, 1, 81, 100
6, 135120, Note_off_c, 1, 81, 64
6, 135120, Note_off_c, 1, 73, 64
6, 135120, Note_off_c, 1, 71, 64
6, 135120, Note_on_c, 1, 45, 100
6, 135360, Note_off_c, 1, 45, 64
6, 135360, Note_on_c, 1, 70, 100
6, 135360, Note_on_c, 1, 72, 100
6, 135360, Note_on_c, 1, 80, 100
6, 135600, Note_off_c, 1, 80, 64
6, 135600, Note_off_c, 1, 72, 64
6, 135600, Note_off_c, 1, 70, 64
6, 135600, Note_on_c, 1, 71, 100
6, 135600, Note_on_c, 1, 73, 100
6, 135600, Note_on_c, 1, 81, 100
6, 135840, Note_off_c, 1, 81, 64
6, 135840, Note_off_c, 1, 73, 64
6, 135840, Note_off_c, 1, 71, 64
6, 135840, Note_on_c, 1, 70, 100
6, 135840, Note_on_c, 1, 72, 100
6, 135840, Note_on_c, 1, 80, 100
6, 136080, Note_off_c, 1, 80, 64
6, 136080, Note_off_c, 1, 72, 64
6, 136080, Note_off_c, 1, 70, 64
6, 136080, Note_on_c, 1, 71, 100
6, 136080, Note_on_c, 1, 73, 100
6, 136080, Note_on_c, 1, 81, 100
6, 136320, Note_off_c, 1, 81, 64
6, 136320, Note_off_c, 1, 73, 64
6, 136320, Note_off_c, 1, 71, 64
6, 136320, Note_on_c, 1, 45, 100
6, 136560, Note_off_c, 1, 45, 64
6, 136560, Note_on_c, 1, 45, 100
6, 136800, Note_off_c, 1, 45, 64
6, 136800, Note_on_c, 1, 71, 100
6, 136800, Note_on_c, 1, 73, 100
6, 136800, Note_on_c, 1, 81, 100
6, 137040, Note_off_c, 1, 81, 64
6, 137040, Note_off_c, 1, 73, 64
6, 137040, Note_off_c, 1, 71, 64
6, 137040, Note_on_c, 1, 45, 100
6, 137280, Note_off_c, 1, 45, 64
6, 137280, Note_on_c, 1, 71, 100
6, 137280, Note_on_c, 1, 73, 100
6, 137280, Note_on_c, 1, 81, 100
6, 137520, Note_off_c, 1, 81, 64
6, 137520, Note_off_c, 1, 73, 64
6, 137520, Note_off_c, 1, 71, 64
6, 137520, Note_on_c, 1, 71, 100
6, 137520, Note_on_c, 1, 73, 100
6, 137520, Note_on_c, 1, 81, 100
6, 137760, Note_off_c, 1, 81, 64
6, 137760, Note_off_c, 1, 73, 64
6, 137760, Note_off_c, 1, 71, 64
6, 137760, Note_on_c, 1, 45, 100
6, 138000, Note_off_c, 1, 45, 64
6, 138000, Note_on_c, 1, 71, 100
6, 138000, Note_on_c, 1, 73, 100
6, 138000, Note_on_c, 1, 81, 100
6, 138480, Note_off_c, 1, 81, 64
6, 138480, Note_off_c, 1, 73, 64
6, 138480, Note_off_c, 1, 71, 64
6, 138480, Note_on_c, 1, 64, 100
6, 138480, Note_on_c, 1, 69, 100
6, 138720, Note_off_c, 1, 69, 64
6, 138720, Note_off_c, 1, 64, 64
6, 138720, Note_on_c, 1, 64, 100
6, 138720, Note_on_c, 1, 69, 100
6, 138840, Note_on_c, 1, 62, 100
6, 138900, Note_off_c, 1, 62, 64
6, 138900, Note_on_c, 1, 63, 100
6, 138960, Note_off_c, 1, 69, 64
6, 138960, Note_off_c, 1, 64, 64
6, 138960, Note_off_c, 1, 63, 64
6, 138960, Note_on_c, 1, 64, 100
6, 138960, Note_on_c, 1, 64, 100
6, 139440, Note_off_c, 1, 64, 64
6, 139440, Note_off_c, 1, 64, 64
6, 139440, Note_on_c, 1, 69, 100
6, 139440, Note_on_c, 1, 64, 100
6, 139680, Note_off_c, 1, 64, 64
6, 139680, Note_off_c, 1, 69, 64
6, 139680, Note_on_c, 1, 69, 100
6, 139680, Note_on_c, 1, 64, 100
6, 139920, Note_off_c, 1, 64, 64
6, 139920, Note_off_c, 1, 69, 64
6, 139920, Note_on_c, 1, 69, 100
6, 139920, Note_on_c, 1, 64, 100
6, 140160, Note_off_c, 1, 64, 64
6, 140160, Note_off_c, 1, 69, 64
6, 140160, Note_on_c, 1, 67, 100
6, 140160, Note_on_c, 1, 72, 100
6, 140400, Note_off_c, 1, 72, 64
6, 140400, Note_off_c, 1, 67, 64
6, 140400, Note_on_c, 1, 71, 100
6, 140400, Note_on_c, 1, 66, 100
6, 140640, Note_off_c, 1, 66, 64
6, 140640, Note_off_c, 1, 71, 64
6, 140640, Note_on_c, 1, 69, 100
6, 140640, Note_on_c, 1, 64, 100
6, 140880, Note_off_c, 1, 64, 64
6, 140880, Note_off_c, 1, 69, 64
6, 140880, Note_on_c, 1, 67, 100
6, 140880, Note_on_c, 1, 63, 100
6, 141120, Note_off_c, 1, 63, 64
6, 141120, Note_off_c, 1, 67, 64
6, 141120, Note_on_c, 1, 66, 100
6, 141120, Note_on_c, 1, 62, 100
6, 141360, Note_off_c, 1, 62, 64
6, 141360, Note_off_c, 1, 66, 64
6, 141360, Note_on_c, 1, 64, 100
6, 141360, Note_on_c, 1, 60, 100
6, 141600, Note_off_c, 1, 60, 64
6, 141600, Note_off_c, 1, 64, 64
6, 141600, Note_on_c, 1, 57, 100
6, 141840, Note_off_c, 1, 57, 64
6, 141840, Note_on_c, 1, 64, 100
6, 141840, Note_on_c, 1, 60, 100
6, 141960, Note_on_c, 1, 62, 100
6, 142020, Note_off_c, 1, 62, 64
6, 142020, Note_on_c, 1, 63, 100
6, 142080, Note_off_c, 1, 60, 64
6, 142080, Note_off_c, 1, 64, 64
6, 142080, Note_off_c, 1, 63, 64
6, 142080, Note_on_c, 1, 64, 100
6, 142080, Note_on_c, 1, 64, 100
6, 142320, Note_off_c, 1, 64, 64
6, 142320, Note_off_c, 1, 64, 64
6, 142320, Note_on_c, 1, 69, 100
6, 142320, Note_on_c, 1, 64, 100
6, 142560, Note_off_c, 1, 64, 64
6, 142560, Note_off_c, 1, 69, 64
6, 142560, Note_on_c, 1, 69, 100
6, 142560, Note_on_c, 1, 64, 100
6, 142680, Note_on_c, 1, 62, 100
6, 142740, Note_off_c, 1, 62, 64
6, 142740, Note_on_c, 1, 63, 100
6, 142800, Note_off_c, 1, 64, 64
6, 142800, Note_off_c, 1, 69, 64
6, 142800, Note_off_c, 1, 63, 64
6, 142800, Note_on_c, 1, 64, 100
6, 142800, Note_on_c, 1, 64, 100
6, 143040, Note_off_c, 1, 64, 64
6, 143040, Note_off_c, 1, 64, 64
6, 143040, Note_on_c, 1, 69, 100
6, 143040, Note_on_c, 1, 64, 100
6, 143280, Note_off_c, 1, 64, 64
6, 143280, Note_off_c, 1, 69, 64
6, 143280, Note_on_c, 1, 69, 100
6, 143280, Note_on_c, 1, 64, 100
6, 143520, Note_off_c, 1, 64, 64
6, 143520, Note_off_c, 1, 69, 64
6, 143520, Note_on_c, 1, 66, 100
6, 143520, Note_on_c, 1, 62, 100
6, 143760, Note_off_c, 1, 62, 64
6, 143760, Note_off_c, 1, 66, 64
6, 143760, Note_on_c, 1, 64, 100
6, 143760, Note_on_c, 1, 60, 100
6, 144000, Note_off_c, 1, 60, 64
6, 144000, Note_off_c, 1, 64, 64
6, 144000, Note_on_c, 1, 61, 100
6, 144000, Note_on_c, 1, 64, 100
6, 144000, Note_on_c, 1, 69, 100
6, 144240, Note_off_c, 1, 69, 64
6, 144240, Note_off_c, 1, 64, 64
6, 144240, Note_off_c, 1, 61, 64
6, 144240, Note_on_c, 1, 57, 100
6, 144240, Note_on_c, 1, 61, 100
6, 144480, Note_off_c, 1, 61, 64
6, 144480, Note_off_c, 1, 57, 64
6, 144480, Note_on_c, 1, 62, 100
6, 144480, Note_on_c, 1, 66, 100
6, 144720, Note_off_c, 1, 66, 64
6, 144720, Note_off_c, 1, 62, 64
6, 144720, Note_on_c, 1, 60, 100
6, 144720, Note_on_c, 1, 64, 100
6, 144720, Note_on_c, 1, 69, 100
6, 144960, Note_off_c, 1, 69, 64
6, 144960, Note_off_c, 1, 64, 64
6, 144960, Note_off_c, 1, 60, 64
6, 144960, Note_on_c, 1, 61, 100
6, 145200, Note_off_c, 1, 61, 64
6, 145200, Note_on_c, 1, 57, 100
6, 145200, Note_on_c, 1, 61, 100
6, 145440, Note_off_c, 1, 61, 64
6, 145440, Note_off_c, 1, 57, 64
6, 145440, Note_on_c, 1, 62, 100
6, 145440, Note_on_c, 1, 66, 100
6, 145680, Note_off_c, 1, 66, 64
6, 145680, Note_off_c, 1, 62, 64
6, 145680, Note_on_c, 1, 60, 100
6, 145680, Note_on_c, 1, 64, 100
6, 145680, Note_on_c, 1, 69, 100
6, 145920, Note_off_c, 1, 69, 64
6, 145920, Note_off_c, 1, 64, 64
6, 145920, Note_off_c, 1, 60, 64
6, 145920, Note_on_c, 1, 61, 100
6, 146160, Note_off_c, 1, 61, 64
6, 146160, Note_on_c, 1, 57, 100
6, 146160, Note_on_c, 1, 61, 100
6, 146400, Note_off_c, 1, 61, 64
6, 146400, Note_off_c, 1, 57, 64
6, 146400, Note_on_c, 1, 52, 100
6, 146400, Note_on_c, 1, 56, 100
6, 146400, Note_on_c, 1, 62, 100
6, 146400, Note_on_c, 1, 64, 100
6, 146640, Note_off_c, 1, 64, 64
6, 146640, Note_off_c, 1, 62, 64
6, 146640, Note_off_c, 1, 56, 64
6, 146640, Note_off_c, 1, 52, 64
6, 146640, Note_on_c, 1, 52, 100
6, 146640, Note_on_c, 1, 56, 100
6, 146640, Note_on_c, 1, 62, 100
6, 146640, Note_on_c, 1, 64, 100
6, 147120, Note_off_c, 1, 64, 64
6, 147120, Note_off_c, 1, 62, 64
6, 147120, Note_off_c, 1, 56, 64
6, 147120, Note_off_c, 1, 52, 64
6, 147120, Note_on_c, 1, 52, 100
6, 147120, Note_on_c, 1, 56, 100
6, 147120, Note_on_c, 1, 62, 100
6, 147120, Note_on_c, 1, 64, 100
6, 147360, Note_off_c, 1, 64, 64
6, 147360, Note_off_c, 1, 62, 64
6, 147360, Note_off_c, 1, 56, 64
6, 147360, Note_off_c, 1, 52, 64
6, 147360, Note_on_c, 1, 52, 100
6, 147600, Note_off_c, 1, 52, 64
6, 147600, Note_on_c, 1, 64, 100
6, 147600, Note_on_c, 1, 62, 100
6, 147600, Note_on_c, 1, 56, 100
6, 147840, Note_off_c, 1, 56, 64
6, 147840, Note_off_c, 1, 62, 64
6, 147840, Note_off_c, 1, 64, 64
6, 147840, Note_on_c, 1, 57, 100
6, 147840, Note_on_c, 1, 50, 100
6, 148080, Note_off_c, 1, 50, 64
6, 148080, Note_off_c, 1, 57, 64
6, 148080, Note_on_c, 1, 57, 100
6, 148080, Note_on_c, 1, 50, 100
6, 148320, Note_off_c, 1, 50, 64
6, 148320, Note_off_c, 1, 57, 64
6, 148320, Note_on_c, 1, 59, 100
6, 148320, Note_on_c, 1, 50, 100
6, 148560, Note_off_c, 1, 50, 64
6, 148560, Note_off_c, 1, 59, 64
6, 148560, Note_on_c, 1, 57, 100
6, 148560, Note_on_c, 1, 50, 100
6, 148800, Note_off_c, 1, 50, 64
6, 148800, Note_off_c, 1, 57, 64
6, 148800, Note_on_c, 1, 60, 100
6, 148800, Note_on_c, 1, 50, 100
6, 149040, Note_off_c, 1, 50, 64
6, 149040, Note_off_c, 1, 60, 64
6, 149040, Note_on_c, 1, 57, 100
6, 149040, Note_on_c, 1, 50, 100
6, 149280, Note_off_c, 1, 50, 64
6, 149280, Note_off_c, 1, 57, 64
6, 149280, Note_on_c, 1, 59, 100
6, 149280, Note_on_c, 1, 50, 100
6, 149520, Note_off_c, 1, 50, 64
6, 149520, Note_off_c, 1, 59, 64
6, 149520, Note_on_c, 1, 57, 100
6, 149520, Note_on_c, 1, 50, 100
6, 149760, Note_off_c, 1, 50, 64
6, 149760, Note_off_c, 1, 57, 64
6, 149760, Note_on_c, 1, 60, 100
6, 149760, Note_on_c, 1, 50, 100
6, 150000, Note_off_c, 1, 50, 64
6, 150000, Note_off_c, 1, 60, 64
6, 150000, Note_on_c, 1, 57, 100
6, 150000, Note_on_c, 1, 50, 100
6, 150240, Note_off_c, 1, 50, 64
6, 150240, Note_off_c, 1, 57, 64
6, 150240, Note_on_c, 1, 59, 100
6, 150240, Note_on_c, 1, 50, 100
6, 150480, Note_off_c, 1, 50, 64
6, 150480, Note_off_c, 1, 59, 64
6, 150480, Note_on_c, 1, 57, 100
6, 150480, Note_on_c, 1, 50, 100
6, 150720, Note_off_c, 1, 50, 64
6, 150720, Note_off_c, 1, 57, 64
6, 150720, Note_on_c, 1, 60, 100
6, 150720, Note_on_c, 1, 50, 100
6, 150960, Note_off_c, 1, 50, 64
6, 150960, Note_off_c, 1, 60, 64
6, 150960, Note_on_c, 1, 57, 100
6, 150960, Note_on_c, 1, 50, 100
6, 151200, Note_off_c, 1, 50, 64
6, 151200, Note_off_c, 1, 57, 64
6, 151200, Note_on_c, 1, 59, 100
6, 151200, Note_on_c, 1, 50, 100
6, 151440, Note_off_c, 1, 50, 64
6, 151440, Note_off_c, 1, 59, 64
6, 151440, Note_on_c, 1, 69, 100
6, 151440, Note_on_c, 1, 74, 100
6, 151680, Note_off_c, 1, 74, 64
6, 151680, Note_off_c, 1, 69, 64
6, 151680, Note_on_c, 1, 52, 100
6, 151680, Note_on_c, 1, 45, 100
6, 151920, Note_off_c, 1, 45, 64
6, 151920, Note_off_c, 1, 52, 64
6, 151920, Note_on_c, 1, 52, 100
6, 151920, Note_on_c, 1, 45, 100
6, 152160, Note_off_c, 1, 45, 64
6, 152160, Note_off_c, 1, 52, 64
6, 152160, Note_on_c, 1, 54, 100
6, 152160, Note_on_c, 1, 45, 100
6, 152400, Note_off_c, 1, 45, 64
6, 152400, Note_off_c, 1, 54, 64
6, 152400, Note_on_c, 1, 52, 100
6, 152400, Note_on_c, 1, 45, 100
6, 152640, Note_off_c, 1, 45, 64
6, 152640, Note_off_c, 1, 52, 64
6, 152640, Note_on_c, 1, 55, 100
6, 152640, Note_on_c, 1, 45, 100
6, 152880, Note_off_c, 1, 45, 64
6, 152880, Note_off_c, 1, 55, 64
6, 152880, Note_on_c, 1, 55, 100
6, 152880, Note_on_c, 1, 45, 100
6, 153120, Note_off_c, 1, 45, 64
6, 153120, Note_off_c, 1, 55, 64
6, 153120, Note_on_c, 1, 54, 100
6, 153120, Note_on_c, 1, 45, 100
6, 153360, Note_off_c, 1, 45, 64
6, 153360, Note_off_c, 1, 54, 64
6, 153360, Note_on_c, 1, 52, 100
6, 153360, Note_on_c, 1, 45, 100
6, 153600, Note_off_c, 1, 45, 64
6, 153600, Note_off_c, 1, 52, 64
6, 153600, Note_on_c, 1, 55, 100
6, 153600, Note_on_c, 1, 45, 100
6, 153840, Note_off_c, 1, 45, 64
6, 153840, Note_off_c, 1, 55, 64
6, 153840, Note_on_c, 1, 55, 100
6, 153840, Note_on_c, 1, 45, 100
6, 154080, Note_off_c, 1, 45, 64
6, 154080, Note_off_c, 1, 55, 64
6, 154080, Note_on_c, 1, 54, 100
6, 154080, Note_on_c, 1, 45, 100
6, 154320, Note_off_c, 1, 45, 64
6, 154320, Note_off_c, 1, 54, 64
6, 154320, Note_on_c, 1, 52, 100
6, 154320, Note_on_c, 1, 45, 100
6, 154560, Note_off_c, 1, 45, 64
6, 154560, Note_off_c, 1, 52, 64
6, 154560, Note_on_c, 1, 55, 100
6, 154560, Note_on_c, 1, 45, 100
6, 154800, Note_off_c, 1, 45, 64
6, 154800, Note_off_c, 1, 55, 64
6, 154800, Note_on_c, 1, 55, 100
6, 154800, Note_on_c, 1, 45, 100
6, 155040, Note_off_c, 1, 45, 64
6, 155040, Note_off_c, 1, 55, 64
6, 155040, Note_on_c, 1, 54, 100
6, 155040, Note_on_c, 1, 45, 100
6, 155280, Note_off_c, 1, 45, 64
6, 155280, Note_off_c, 1, 54, 64
6, 155280, Note_on_c, 1, 52, 100
6, 155280, Note_on_c, 1, 45, 100
6, 155520, Note_off_c, 1, 45, 64
6, 155520, Note_off_c, 1, 52, 64
6, 155520, Note_on_c, 1, 57, 100
6, 155520, Note_on_c, 1, 50, 100
6, 155760, Note_off_c, 1, 50, 64
6, 155760, Note_off_c, 1, 57, 64
6, 155760, Note_on_c, 1, 57, 100
6, 155760, Note_on_c, 1, 50, 100
6, 156000, Note_off_c, 1, 50, 64
6, 156000, Note_off_c, 1, 57, 64
6, 156000, Note_on_c, 1, 59, 100
6, 156000, Note_on_c, 1, 50, 100
6, 156240, Note_off_c, 1, 50, 64
6, 156240, Note_off_c, 1, 59, 64
6, 156240, Note_on_c, 1, 57, 100
6, 156240, Note_on_c, 1, 50, 100
6, 156480, Note_off_c, 1, 50, 64
6, 156480, Note_off_c, 1, 57, 64
6, 156480, Note_on_c, 1, 60, 100
6, 156480, Note_on_c, 1, 50, 100
6, 156720, Note_off_c, 1, 50, 64
6, 156720, Note_off_c, 1, 60, 64
6, 156720, Note_on_c, 1, 57, 100
6, 156720, Note_on_c, 1, 50, 100
6, 156960, Note_off_c, 1, 50, 64
6, 156960, Note_off_c, 1, 57, 64
6, 156960, Note_on_c, 1, 59, 100
6, 156960, Note_on_c, 1, 50, 100
6, 157200, Note_off_c, 1, 50, 64
6, 157200, Note_off_c, 1, 59, 64
6, 157200, Note_on_c, 1, 57, 100
6, 157200, Note_on_c, 1, 50, 100
6, 157440, Note_off_c, 1, 50, 64
6, 157440, Note_off_c, 1, 57, 64
6, 157440, Note_on_c, 1, 60, 100
6, 157440, Note_on_c, 1, 50, 100
6, 157680, Note_off_c, 1, 50, 64
6, 157680, Note_off_c, 1, 60, 64
6, 157680, Note_on_c, 1, 57, 100
6, 157680, Note_on_c, 1, 50, 100
6, 157920, Note_off_c, 1, 50, 64
6, 157920, Note_off_c, 1, 57, 64
6, 157920, Note_on_c, 1, 59, 100
6, 157920, Note_on_c, 1, 50, 100
6, 158160, Note_off_c, 1, 50, 64
6, 158160, Note_off_c, 1, 59, 64
6, 158160, Note_on_c, 1, 57, 100
6, 158160, Note_on_c, 1, 50, 100
6, 158400, Note_off_c, 1, 50, 64
6, 158400, Note_off_c, 1, 57, 64
6, 158400, Note_on_c, 1, 60, 100
6, 158400, Note_on_c, 1, 50, 100
6, 158640, Note_off_c, 1, 50, 64
6, 158640, Note_off_c, 1, 60, 64
6, 158640, Note_on_c, 1, 57, 100
6, 158640, Note_on_c, 1, 50, 100
6, 158880, Note_off_c, 1, 50, 64
6, 158880, Note_off_c, 1, 57, 64
6, 158880, Note_on_c, 1, 59, 100
6, 158880, Note_on_c, 1, 50, 100
6, 159120, Note_off_c, 1, 50, 64
6, 159120, Note_off_c, 1, 59, 64
6, 159120, Note_on_c, 1, 57, 100
6, 159120, Note_on_c, 1, 50, 100
6, 159360, Note_off_c, 1, 50, 64
6, 159360, Note_off_c, 1, 57, 64
6, 159360, Note_on_c, 1, 52, 100
6, 159600, Note_off_c, 1, 52, 64
6, 159600, Note_on_c, 1, 52, 100
6, 159600, Note_on_c, 1, 56, 100
6, 159600, Note_on_c, 1, 62, 100
6, 159600, Note_on_c, 1, 64, 100
6, 160080, Note_off_c, 1, 64, 64
6, 160080, Note_off_c, 1, 62, 64
6, 160080, Note_off_c, 1, 56, 64
6, 160080, Note_off_c, 1, 52, 64
6, 160080, Note_on_c, 1, 52, 100
6, 160320, Note_off_c, 1, 52, 64
6, 160320, Note_on_c, 1, 52, 100
6, 160320, Note_on_c, 1, 56, 100
6, 160320, Note_on_c, 1, 62, 100
6, 160320, Note_on_c, 1, 64, 100
6, 160560, Note_off_c, 1, 64, 64
6, 160560, Note_off_c, 1, 62, 64
6, 160560, Note_off_c, 1, 56, 64
6, 160560, Note_off_c, 1, 52, 64
6, 160560, Note_on_c, 1, 52, 100
6, 160560, Note_on_c, 1, 56, 100
6, 160560, Note_on_c, 1, 62, 100
6, 160560, Note_on_c, 1, 64, 100
6, 160800, Note_off_c, 1, 64, 64
6, 160800, Note_off_c, 1, 62, 64
6, 160800, Note_off_c, 1, 56, 64
6, 160800, Note_off_c, 1, 52, 64
6, 160800, Note_on_c, 1, 52, 100
6, 160800, Note_on_c, 1, 56, 100
6, 160800, Note_on_c, 1, 62, 100
6, 160800, Note_on_c, 1, 64, 100
6, 161040, Note_off_c, 1, 64, 64
6, 161040, Note_off_c, 1, 62, 64
6, 161040, Note_off_c, 1, 56, 64
6, 161040, Note_off_c, 1, 52, 64
6, 161040, Note_on_c, 1, 52, 100
6, 161040, Note_on_c, 1, 56, 100
6, 161040, Note_on_c, 1, 62, 100
6, 161040, Note_on_c, 1, 64, 100
6, 161280, Note_off_c, 1, 64, 64
6, 161280, Note_off_c, 1, 62, 64
6, 161280, Note_off_c, 1, 56, 64
6, 161280, Note_off_c, 1, 52, 64
6, 161280, Note_on_c, 1, 52, 100
6, 161520, Note_off_c, 1, 52, 64
6, 161520, Note_on_c, 1, 52, 100
6, 161520, Note_on_c, 1, 56, 100
6, 161520, Note_on_c, 1, 62, 100
6, 161520, Note_on_c, 1, 64, 100
6, 162000, Note_off_c, 1, 64, 64
6, 162000, Note_off_c, 1, 62, 64
6, 162000, Note_off_c, 1, 56, 64
6, 162000, Note_off_c, 1, 52, 64
6, 162000, Note_on_c, 1, 52, 100
6, 162240, Note_off_c, 1, 52, 64
6, 162240, Note_on_c, 1, 52, 100
6, 162240, Note_on_c, 1, 56, 100
6, 162240, Note_on_c, 1, 62, 100
6, 162240, Note_on_c, 1, 64, 100
6, 162480, Note_off_c, 1, 64, 64
6, 162480, Note_off_c, 1, 62, 64
6, 162480, Note_off_c, 1, 56, 64
6, 162480, Note_off_c, 1, 52, 64
6, 162480, Note_on_c, 1, 52, 100
6, 162480, Note_on_c, 1, 56, 100
6, 162480, Note_on_c, 1, 62, 100
6, 162480, Note_on_c, 1, 64, 100
6, 162720, Note_off_c, 1, 64, 64
6, 162720, Note_off_c, 1, 62, 64
6, 162720, Note_off_c, 1, 56, 64
6, 162720, Note_off_c, 1, 52, 64
6, 162720, Note_on_c, 1, 52, 100
6, 162720, Note_on_c, 1, 56, 100
6, 162720, Note_on_c, 1, 62, 100
6, 162720, Note_on_c, 1, 64, 100
6, 163200, Note_off_c, 1, 64, 64
6, 163200, Note_off_c, 1, 62, 64
6, 163200, Note_off_c, 1, 56, 64
6, 163200, Note_off_c, 1, 52, 64
6, 163200, Note_on_c, 1, 52, 100
6, 163200, Note_on_c, 1, 45, 100
6, 163440, Note_off_c, 1, 45, 64
6, 163440, Note_off_c, 1, 52, 64
6, 163440, Note_on_c, 1, 52, 100
6, 163440, Note_on_c, 1, 45, 100
6, 163680, Note_off_c, 1, 45, 64
6, 163680, Note_off_c, 1, 52, 64
6, 163680, Note_on_c, 1, 54, 100
6, 163680, Note_on_c, 1, 45, 100
6, 163920, Note_off_c, 1, 45, 64
6, 163920, Note_off_c, 1, 54, 64
6, 163920, Note_on_c, 1, 52, 100
6, 163920, Note_on_c, 1, 45, 100
6, 164160, Note_off_c, 1, 45, 64
6, 164160, Note_off_c, 1, 52, 64
6, 164160, Note_on_c, 1, 55, 100
6, 164160, Note_on_c, 1, 45, 100
6, 164400, Note_off_c, 1, 45, 64
6, 164400, Note_off_c, 1, 55, 64
6, 164400, Note_on_c, 1, 55, 100
6, 164400, Note_on_c, 1, 45, 100
6, 164640, Note_off_c, 1, 45, 64
6, 164640, Note_off_c, 1, 55, 64
6, 164640, Note_on_c, 1, 54, 100
6, 164640, Note_on_c, 1, 45, 100
6, 164880, Note_off_c, 1, 45, 64
6, 164880, Note_off_c, 1, 54, 64
6, 164880, Note_on_c, 1, 52, 100
6, 164880, Note_on_c, 1, 45, 100
6, 165120, Note_off_c, 1, 45, 64
6, 165120, Note_off_c, 1, 52, 64
6, 165120, Note_on_c, 1, 55, 100
6, 165120, Note_on_c, 1, 45, 100
6, 165360, Note_off_c, 1, 45, 64
6, 165360, Note_off_c, 1, 55, 64
6, 165360, Note_on_c, 1, 55, 100
6, 165360, Note_on_c, 1, 45, 100
6, 165600, Note_off_c, 1, 45, 64
6, 165600, Note_off_c, 1, 55, 64
6, 165600, Note_on_c, 1, 54, 100
6, 165600, Note_on_c, 1, 45, 100
6, 165840, Note_off_c, 1, 45, 64
6, 165840, Note_off_c, 1, 54, 64
6, 165840, Note_on_c, 1, 52, 100
6, 165840, Note_on_c, 1, 45, 100
6, 166080, Note_off_c, 1, 45, 64
6, 166080, Note_off_c, 1, 52, 64
6, 166080, Note_on_c, 1, 55, 100
6, 166080, Note_on_c, 1, 45, 100
6, 166320, Note_off_c, 1, 45, 64
6, 166320, Note_off_c, 1, 55, 64
6, 166320, Note_on_c, 1, 55, 100
6, 166320, Note_on_c, 1, 45, 100
6, 166560, Note_off_c, 1, 45, 64
6, 166560, Note_off_c, 1, 55, 64
6, 166560, Note_on_c, 1, 54, 100
6, 166560, Note_on_c, 1, 45, 100
6, 166800, Note_off_c, 1, 45, 64
6, 166800, Note_off_c, 1, 54, 64
6, 166800, Note_on_c, 1, 49, 100
6, 166800, Note_on_c, 1, 55, 100
6, 166980, Note_on_c, 1, 50, 100
6, 166980, Note_on_c, 1, 57, 100
6, 167040, Note_off_c, 1, 57, 64
6, 167040, Note_off_c, 1, 50, 64
6, 167040, Note_off_c, 1, 55, 64
6, 167040, Note_off_c, 1, 49, 64
6, 167040, Note_on_c, 1, 57, 100
6, 167040, Note_on_c, 1, 50, 100
6, 167280, Note_off_c, 1, 50, 64
6, 167280, Note_off_c, 1, 57, 64
6, 167280, Note_on_c, 1, 57, 100
6, 167280, Note_on_c, 1, 50, 100
6, 167520, Note_off_c, 1, 50, 64
6, 167520, Note_off_c, 1, 57, 64
6, 167520, Note_on_c, 1, 59, 100
6, 167520, Note_on_c, 1, 50, 100
6, 167760, Note_off_c, 1, 50, 64
6, 167760, Note_off_c, 1, 59, 64
6, 167760, Note_on_c, 1, 57, 100
6, 167760, Note_on_c, 1, 50, 100
6, 168000, Note_off_c, 1, 50, 64
6, 168000, Note_off_c, 1, 57, 64
6, 168000, Note_on_c, 1, 60, 100
6, 168000, Note_on_c, 1, 50, 100
6, 168240, Note_off_c, 1, 50, 64
6, 168240, Note_off_c, 1, 60, 64
6, 168240, Note_on_c, 1, 60, 100
6, 168240, Note_on_c, 1, 50, 100
6, 168480, Note_off_c, 1, 50, 64
6, 168480, Note_off_c, 1, 60, 64
6, 168480, Note_on_c, 1, 59, 100
6, 168480, Note_on_c, 1, 50, 100
6, 168720, Note_off_c, 1, 50, 64
6, 168720, Note_off_c, 1, 59, 64
6, 168720, Note_on_c, 1, 57, 100
6, 168720, Note_on_c, 1, 50, 100
6, 168960, Note_off_c, 1, 50, 64
6, 168960, Note_off_c, 1, 57, 64
6, 168960, Note_on_c, 1, 60, 100
6, 168960, Note_on_c, 1, 50, 100
6, 169200, Note_off_c, 1, 50, 64
6, 169200, Note_off_c, 1, 60, 64
6, 169200, Note_on_c, 1, 60, 100
6, 169200, Note_on_c, 1, 50, 100
6, 169440, Note_off_c, 1, 50, 64
6, 169440, Note_off_c, 1, 60, 64
6, 169440, Note_on_c, 1, 59, 100
6, 169440, Note_on_c, 1, 50, 100
6, 169680, Note_off_c, 1, 50, 64
6, 169680, Note_off_c, 1, 59, 64
6, 169680, Note_on_c, 1, 57, 100
6, 169680, Note_on_c, 1, 50, 100
6, 169920, Note_off_c, 1, 50, 64
6, 169920, Note_off_c, 1, 57, 64
6, 169920, Note_on_c, 1, 60, 100
6, 169920, Note_on_c, 1, 50, 100
6, 170160, Note_off_c, 1, 50, 64
6, 170160, Note_off_c, 1, 60, 64
6, 170160, Note_on_c, 1, 60, 100
6, 170160, Note_on_c, 1, 50, 100
6, 170400, Note_off_c, 1, 50, 64
6, 170400, Note_off_c, 1, 60, 64
6, 170400, Note_on_c, 1, 59, 100
6, 170400, Note_on_c, 1, 50, 100
6, 170640, Note_off_c, 1, 50, 64
6, 170640, Note_off_c, 1, 59, 64
6, 170640, Note_on_c, 1, 74, 100
6, 170640, Note_on_c, 1, 69, 100
6, 170880, Note_off_c, 1, 69, 64
6, 170880, Note_off_c, 1, 74, 64
6, 170880, Note_on_c, 1, 52, 100
6, 170880, Note_on_c, 1, 45, 100
6, 171120, Note_off_c, 1, 45, 64
6, 171120, Note_off_c, 1, 52, 64
6, 171120, Note_on_c, 1, 52, 100
6, 171120, Note_on_c, 1, 45, 100
6, 171360, Note_off_c, 1, 45, 64
6, 171360, Note_off_c, 1, 52, 64
6, 171360, Note_on_c, 1, 54, 100
6, 171360, Note_on_c, 1, 45, 100
6, 171600, Note_off_c, 1, 45, 64
6, 171600, Note_off_c, 1, 54, 64
6, 171600, Note_on_c, 1, 52, 100
6, 171600, Note_on_c, 1, 45, 100
6, 171840, Note_off_c, 1, 45, 64
6, 171840, Note_off_c, 1, 52, 64
6, 171840, Note_on_c, 1, 55, 100
6, 171840, Note_on_c, 1, 45, 100
6, 172080, Note_off_c, 1, 45, 64
6, 172080, Note_off_c, 1, 55, 64
6, 172080, Note_on_c, 1, 55, 100
6, 172080, Note_on_c, 1, 45, 100
6, 172320, Note_off_c, 1, 45, 64
6, 172320, Note_off_c, 1, 55, 64
6, 172320, Note_on_c, 1, 54, 100
6, 172320, Note_on_c, 1, 45, 100
6, 172560, Note_off_c, 1, 45, 64
6, 172560, Note_off_c, 1, 54, 64
6, 172560, Note_on_c, 1, 52, 100
6, 172560, Note_on_c, 1, 45, 100
6, 172800, Note_off_c, 1, 45, 64
6, 172800, Note_off_c, 1, 52, 64
6, 172800, Note_on_c, 1, 55, 100
6, 172800, Note_on_c, 1, 45, 100
6, 173040, Note_off_c, 1, 45, 64
6, 173040, Note_off_c, 1, 55, 64
6, 173040, Note_on_c, 1, 55, 100
6, 173040, Note_on_c, 1, 45, 100
6, 173280, Note_off_c, 1, 45, 64
6, 173280, Note_off_c, 1, 55, 64
6, 173280, Note_on_c, 1, 54, 100
6, 173280, Note_on_c, 1, 45, 100
6, 173520, Note_off_c, 1, 45, 64
6, 173520, Note_off_c, 1, 54, 64
6, 173520, Note_on_c, 1, 52, 100
6, 173520, Note_on_c, 1, 45, 100
6, 173760, Note_off_c, 1, 45, 64
6, 173760, Note_off_c, 1, 52, 64
6, 173760, Note_on_c, 1, 55, 100
6, 173760, Note_on_c, 1, 45, 100
6, 174000, Note_off_c, 1, 45, 64
6, 174000, Note_off_c, 1, 55, 64
6, 174000, Note_on_c, 1, 55, 100
6, 174000, Note_on_c, 1, 45, 100
6, 174240, Note_off_c, 1, 45, 64
6, 174240, Note_off_c, 1, 55, 64
6, 174240, Note_on_c, 1, 54, 100
6, 174240, Note_on_c, 1, 45, 100
6, 174480, Note_off_c, 1, 45, 64
6, 174480, Note_off_c, 1, 54, 64
6, 174480, Note_on_c, 1, 52, 100
6, 174480, Note_on_c, 1, 45, 100
6, 174720, Note_off_c, 1, 45, 64
6, 174720, Note_off_c, 1, 52, 64
6, 174720, Note_on_c, 1, 52, 100
6, 174960, Note_off_c, 1, 52, 64
6, 174960, Note_on_c, 1, 52, 100
6, 174960, Note_on_c, 1, 56, 100
6, 174960, Note_on_c, 1, 62, 100
6, 174960, Note_on_c, 1, 64, 100
6, 175440, Note_off_c, 1, 64, 64
6, 175440, Note_off_c, 1, 62, 64
6, 175440, Note_off_c, 1, 56, 64
6, 175440, Note_off_c, 1, 52, 64
6, 175440, Note_on_c, 1, 52, 100
6, 175680, Note_off_c, 1, 52, 64
6, 175680, Note_on_c, 1, 52, 100
6, 175680, Note_on_c, 1, 56, 100
6, 175680, Note_on_c, 1, 62, 100
6, 175680, Note_on_c, 1, 64, 100
6, 175920, Note_off_c, 1, 64, 64
6, 175920, Note_off_c, 1, 62, 64
6, 175920, Note_off_c, 1, 56, 64
6, 175920, Note_off_c, 1, 52, 64
6, 175920, Note_on_c, 1, 52, 100
6, 175920, Note_on_c, 1, 56, 100
6, 175920, Note_on_c, 1, 62, 100
6, 175920, Note_on_c, 1, 64, 100
6, 176160, Note_off_c, 1, 64, 64
6, 176160, Note_off_c, 1, 62, 64
6, 176160, Note_off_c, 1, 56, 64
6, 176160, Note_off_c, 1, 52, 64
6, 176160, Note_on_c, 1, 52, 100
6, 176160, Note_on_c, 1, 56, 100
6, 176160, Note_on_c, 1, 62, 100
6, 176160, Note_on_c, 1, 64, 100
6, 176400, Note_off_c, 1, 64, 64
6, 176400, Note_off_c, 1, 62, 64
6, 176400, Note_off_c, 1, 56, 64
6, 176400, Note_off_c, 1, 52, 64
6, 176400, Note_on_c, 1, 52, 100
6, 176400, Note_on_c, 1, 56, 100
6, 176400, Note_on_c, 1, 62, 100
6, 176400, Note_on_c, 1, 64, 100
6, 176640, Note_off_c, 1, 64, 64
6, 176640, Note_off_c, 1, 62, 64
6, 176640, Note_off_c, 1, 56, 64
6, 176640, Note_off_c, 1, 52, 64
6, 176640, Note_on_c, 1, 52, 100
6, 176880, Note_off_c, 1, 52, 64
6, 176880, Note_on_c, 1, 52, 100
6, 176880, Note_on_c, 1, 56, 100
6, 176880, Note_on_c, 1, 62, 100
6, 176880, Note_on_c, 1, 64, 100
6, 177360, Note_off_c, 1, 64, 64
6, 177360, Note_off_c, 1, 62, 64
6, 177360, Note_off_c, 1, 56, 64
6, 177360, Note_off_c, 1, 52, 64
6, 177360, Note_on_c, 1, 52, 100
6, 177600, Note_off_c, 1, 52, 64
6, 177600, Note_on_c, 1, 52, 100
6, 177600, Note_on_c, 1, 56, 100
6, 177600, Note_on_c, 1, 62, 100
6, 177600, Note_on_c, 1, 64, 100
6, 177840, Note_off_c, 1, 64, 64
6, 177840, Note_off_c, 1, 62, 64
6, 177840, Note_off_c, 1, 56, 64
6, 177840, Note_off_c, 1, 52, 64
6, 177840, Note_on_c, 1, 52, 100
6, 177840, Note_on_c, 1, 56, 100
6, 177840, Note_on_c, 1, 62, 100
6, 177840, Note_on_c, 1, 64, 100
6, 178080, Note_off_c, 1, 64, 64
6, 178080, Note_off_c, 1, 62, 64
6, 178080, Note_off_c, 1, 56, 64
6, 178080, Note_off_c, 1, 52, 64
6, 178080, Note_on_c, 1, 52, 100
6, 178080, Note_on_c, 1, 56, 100
6, 178080, Note_on_c, 1, 62, 100
6, 178080, Note_on_c, 1, 64, 100
6, 178440, Note_on_c, 1, 69, 100
6, 178500, Note_off_c, 1, 69, 64
6, 178500, Note_on_c, 1, 70, 100
6, 178560, Note_off_c, 1, 64, 64
6, 178560, Note_off_c, 1, 62, 64
6, 178560, Note_off_c, 1, 56, 64
6, 178560, Note_off_c, 1, 52, 64
6, 178560, Note_off_c, 1, 70, 64
6, 178560, Note_on_c, 1, 71, 100
6, 178800, Note_off_c, 1, 71, 64
6, 178800, Note_on_c, 1, 76, 100
6, 178800, Note_on_c, 1, 71, 100
6, 178860, Note_off_c, 1, 71, 64
6, 178860, Note_off_c, 1, 76, 64
6, 179040, Note_on_c, 1, 76, 100
6, 179040, Note_on_c, 1, 71, 100
6, 179280, Note_off_c, 1, 71, 64
6, 179280, Note_off_c, 1, 76, 64
6, 179280, Note_on_c, 1, 76, 100
6, 179280, Note_on_c, 1, 71, 100
6, 179520, Note_off_c, 1, 71, 64
6, 179520, Note_off_c, 1, 76, 64
6, 179520, Note_on_c, 1, 76, 100
6, 179520, Note_on_c, 1, 71, 100
6, 179760, Note_off_c, 1, 71, 64
6, 179760, Note_off_c, 1, 76, 64
6, 179760, Note_on_c, 1, 76, 100
6, 179760, Note_on_c, 1, 71, 100
6, 179880, Note_on_c, 1, 72, 100
6, 179940, Note_off_c, 1, 72, 64
6, 179940, Note_on_c, 1, 73, 100
6, 180000, Note_off_c, 1, 71, 64
6, 180000, Note_off_c, 1, 76, 64
6, 180000, Note_off_c, 1, 73, 64
6, 180000, Note_on_c, 1, 79, 100
6, 180000, Note_on_c, 1, 74, 100
6, 180480, Note_off_c, 1, 74, 64
6, 180480, Note_off_c, 1, 79, 64
6, 180480, Note_on_c, 1, 74, 100
6, 180480, Note_on_c, 1, 69, 100
6, 180720, Note_off_c, 1, 69, 64
6, 180720, Note_off_c, 1, 74, 64
6, 180720, Note_on_c, 1, 74, 100
6, 180720, Note_on_c, 1, 69, 100
6, 180960, Note_off_c, 1, 69, 64
6, 180960, Note_off_c, 1, 74, 64
6, 180960, Note_on_c, 1, 74, 100
6, 180960, Note_on_c, 1, 69, 100
6, 181200, Note_off_c, 1, 69, 64
6, 181200, Note_off_c, 1, 74, 64
6, 181200, Note_on_c, 1, 74, 100
6, 181200, Note_on_c, 1, 69, 100
6, 181440, Note_off_c, 1, 69, 64
6, 181440, Note_off_c, 1, 74, 64
6, 181440, Note_on_c, 1, 74, 100
6, 181440, Note_on_c, 1, 69, 100
6, 181680, Note_off_c, 1, 69, 64
6, 181680, Note_off_c, 1, 74, 64
6, 181680, Note_on_c, 1, 74, 100
6, 181680, Note_on_c, 1, 69, 100
6, 181800, Note_on_c, 1, 70, 100
6, 181860, Note_off_c, 1, 70, 64
6, 181860, Note_on_c, 1, 71, 100
6, 181920, Note_off_c, 1, 69, 64
6, 181920, Note_off_c, 1, 74, 64
6, 181920, Note_off_c, 1, 71, 64
6, 181920, Note_on_c, 1, 77, 100
6, 181920, Note_on_c, 1, 72, 100
6, 182400, Note_off_c, 1, 72, 64
6, 182400, Note_off_c, 1, 77, 64
6, 182400, Note_on_c, 1, 69, 100
6, 182400, Note_on_c, 1, 64, 100
6, 182640, Note_off_c, 1, 64, 64
6, 182640, Note_off_c, 1, 69, 64
6, 182640, Note_on_c, 1, 72, 100
6, 182880, Note_off_c, 1, 72, 64
6, 182880, Note_on_c, 1, 69, 100
6, 183000, Note_on_c, 1, 67, 100
6, 183060, Note_off_c, 1, 67, 64
6, 183060, Note_on_c, 1, 68, 100
6, 183120, Note_off_c, 1, 69, 64
6, 183120, Note_off_c, 1, 68, 64
6, 183120, Note_on_c, 1, 69, 100
6, 183360, Note_off_c, 1, 69, 64
6, 183360, Note_on_c, 1, 64, 100
6, 183360, Note_on_c, 1, 69, 100
6, 183600, Note_off_c, 1, 69, 64
6, 183600, Note_off_c, 1, 64, 64
6, 183600, Note_on_c, 1, 63, 100
6, 183840, Note_off_c, 1, 63, 64
6, 183840, Note_on_c, 1, 62, 100
6, 184080, Note_off_c, 1, 62, 64
6, 184080, Note_on_c, 1, 60, 100
6, 184320, Note_off_c, 1, 60, 64
6, 184320, Note_on_c, 1, 57, 100
6, 184560, Note_off_c, 1, 57, 64
6, 184560, Note_on_c, 1, 56, 100
6, 184800, Note_off_c, 1, 56, 64
6, 184800, Note_on_c, 1, 52, 100
6, 185040, Note_off_c, 1, 52, 64
6, 185040, Note_on_c, 1, 76, 100
6, 185040, Note_on_c, 1, 71, 100
6, 185040, Note_on_c, 1, 66, 100
6, 185040, Note_on_c, 1, 61, 100
6, 185040, Note_on_c, 1, 57, 100
6, 190080, Note_off_c, 1, 57, 64
6, 190080, Note_off_c, 1, 61, 64
6, 190080, Note_off_c, 1, 66, 64
6, 190080, Note_off_c, 1, 71, 64
6, 190080, Note_off_c, 1, 76, 64
6, 190080, End_track
7, 0, Start_track
7, 0, Title_t, "Guitar"
7, 0, MIDI_port, 0
7, 0, Channel_prefix, 5
7, 0, Control_c, 5, 7, 109
7, 0, Control_c, 5, 10, 94
7, 0, Program_c, 5, 29
7, 45, Pitch_bend_c, 5, 8282
7, 45, Control_c, 5, 121, 0
7, 46, Control_c, 5, 91, 90
7, 48, Control_c, 5, 93, 80
7, 49, Control_c, 5, 2, 127
7, 53, Control_c, 5, 11, 127
7, 1200, Note_on_c, 5, 76, 100
7, 1200, Note_on_c, 5, 71, 100
7, 1440, Note_off_c, 5, 71, 64
7, 1440, Note_off_c, 5, 76, 64
7, 1440, Note_on_c, 5, 76, 100
7, 1440, Note_on_c, 5, 71, 100
7, 1680, Note_off_c, 5, 71, 64
7, 1680, Note_off_c, 5, 76, 64
7, 1680, Note_on_c, 5, 76, 100
7, 1680, Note_on_c, 5, 71, 100
7, 1920, Note_off_c, 5, 71, 64
7, 1920, Note_off_c, 5, 76, 64
7, 1920, Note_on_c, 5, 76, 100
7, 1920, Note_on_c, 5, 71, 100
7, 2160, Note_off_c, 5, 71, 64
7, 2160, Note_off_c, 5, 76, 64
7, 2160, Note_on_c, 5, 76, 100
7, 2160, Note_on_c, 5, 71, 100
7, 2400, Note_off_c, 5, 71, 64
7, 2400, Note_off_c, 5, 76, 64
7, 2400, Note_on_c, 5, 76, 100
7, 2400, Note_on_c, 5, 71, 100
7, 2640, Note_off_c, 5, 71, 64
7, 2640, Note_off_c, 5, 76, 64
7, 2640, Note_on_c, 5, 76, 100
7, 2640, Note_on_c, 5, 71, 100
7, 2760, Note_on_c, 5, 72, 100
7, 2820, Note_off_c, 5, 72, 64
7, 2820, Note_on_c, 5, 73, 100
7, 2880, Note_off_c, 5, 71, 64
7, 2880, Note_off_c, 5, 76, 64
7, 2880, Note_off_c, 5, 73, 64
7, 2880, Note_on_c, 5, 80, 100
7, 2880, Note_on_c, 5, 74, 100
7, 3360, Note_off_c, 5, 74, 64
7, 3360, Note_off_c, 5, 80, 64
7, 3840, Note_on_c, 5, 74, 100
7, 3840, Note_on_c, 5, 69, 100
7, 4080, Note_off_c, 5, 69, 64
7, 4080, Note_off_c, 5, 74, 64
7, 4080, Note_on_c, 5, 74, 100
7, 4080, Note_on_c, 5, 69, 100
7, 4320, Note_off_c, 5, 69, 64
7, 4320, Note_off_c, 5, 74, 64
7, 4320, Note_on_c, 5, 74, 100
7, 4320, Note_on_c, 5, 69, 100
7, 4560, Note_off_c, 5, 69, 64
7, 4560, Note_off_c, 5, 74, 64
7, 4560, Note_on_c, 5, 74, 100
7, 4560, Note_on_c, 5, 69, 100
7, 4680, Note_on_c, 5, 71, 100
7, 4740, Note_off_c, 5, 71, 64
7, 4740, Note_on_c, 5, 72, 100
7, 4800, Note_off_c, 5, 69, 64
7, 4800, Note_off_c, 5, 74, 64
7, 4800, Note_off_c, 5, 72, 64
7, 4800, Note_on_c, 5, 76, 100
7, 4800, Note_on_c, 5, 73, 100
7, 5280, Note_off_c, 5, 73, 64
7, 5280, Note_off_c, 5, 76, 64
7, 5520, Note_on_c, 5, 69, 100
7, 5520, Note_on_c, 5, 64, 100
7, 6240, Note_off_c, 5, 64, 64
7, 6240, Note_off_c, 5, 69, 64
7, 6240, Note_on_c, 5, 57, 100
7, 6240, Note_on_c, 5, 63, 100
7, 6240, Note_on_c, 5, 66, 100
7, 6240, Note_on_c, 5, 72, 100
7, 6480, Note_off_c, 5, 72, 64
7, 6480, Note_off_c, 5, 66, 64
7, 6480, Note_off_c, 5, 63, 64
7, 6480, Note_off_c, 5, 57, 64
7, 6480, Note_on_c, 5, 57, 100
7, 6480, Note_on_c, 5, 63, 100
7, 6480, Note_on_c, 5, 66, 100
7, 6480, Note_on_c, 5, 72, 100
7, 6720, Note_off_c, 5, 72, 64
7, 6720, Note_off_c, 5, 66, 64
7, 6720, Note_off_c, 5, 63, 64
7, 6720, Note_off_c, 5, 57, 64
7, 6720, Note_on_c, 5, 57, 100
7, 6720, Note_on_c, 5, 63, 100
7, 6720, Note_on_c, 5, 66, 100
7, 6720, Note_on_c, 5, 72, 100
7, 6960, Note_off_c, 5, 72, 64
7, 6960, Note_off_c, 5, 66, 64
7, 6960, Note_off_c, 5, 63, 64
7, 6960, Note_off_c, 5, 57, 64
7, 6960, Note_on_c, 5, 57, 100
7, 6960, Note_on_c, 5, 63, 100
7, 6960, Note_on_c, 5, 66, 100
7, 6960, Note_on_c, 5, 72, 100
7, 7200, Note_off_c, 5, 72, 64
7, 7200, Note_off_c, 5, 66, 64
7, 7200, Note_off_c, 5, 63, 64
7, 7200, Note_off_c, 5, 57, 64
7, 7200, Note_on_c, 5, 57, 100
7, 7200, Note_on_c, 5, 63, 100
7, 7200, Note_on_c, 5, 66, 100
7, 7200, Note_on_c, 5, 72, 100
7, 7440, Note_off_c, 5, 72, 64
7, 7440, Note_off_c, 5, 66, 64
7, 7440, Note_off_c, 5, 63, 64
7, 7440, Note_off_c, 5, 57, 64
7, 7440, Note_on_c, 5, 57, 100
7, 7440, Note_on_c, 5, 63, 100
7, 7440, Note_on_c, 5, 66, 100
7, 7440, Note_on_c, 5, 72, 100
7, 7680, Note_off_c, 5, 72, 64
7, 7680, Note_off_c, 5, 66, 64
7, 7680, Note_off_c, 5, 63, 64
7, 7680, Note_off_c, 5, 57, 64
7, 7680, Note_on_c, 5, 64, 100
7, 7680, Note_on_c, 5, 69, 100
7, 7920, Note_off_c, 5, 69, 64
7, 7920, Note_off_c, 5, 64, 64
7, 7920, Note_on_c, 5, 52, 100
7, 7920, Note_on_c, 5, 56, 100
7, 7920, Note_on_c, 5, 62, 100
7, 7920, Note_on_c, 5, 64, 100
7, 8400, Note_off_c, 5, 64, 64
7, 8400, Note_off_c, 5, 62, 64
7, 8400, Note_off_c, 5, 56, 64
7, 8400, Note_off_c, 5, 52, 64
7, 8400, Note_on_c, 5, 52, 100
7, 8400, Note_on_c, 5, 56, 100
7, 8400, Note_on_c, 5, 62, 100
7, 8400, Note_on_c, 5, 64, 100
7, 8640, Note_off_c, 5, 64, 64
7, 8640, Note_off_c, 5, 62, 64
7, 8640, Note_off_c, 5, 56, 64
7, 8640, Note_off_c, 5, 52, 64
7, 8640, Note_on_c, 5, 52, 100
7, 8640, Note_on_c, 5, 56, 100
7, 8640, Note_on_c, 5, 62, 100
7, 8640, Note_on_c, 5, 64, 100
7, 8880, Note_off_c, 5, 64, 64
7, 8880, Note_off_c, 5, 62, 64
7, 8880, Note_off_c, 5, 56, 64
7, 8880, Note_off_c, 5, 52, 64
7, 8880, Note_on_c, 5, 52, 100
7, 8880, Note_on_c, 5, 56, 100
7, 8880, Note_on_c, 5, 62, 100
7, 8880, Note_on_c, 5, 64, 100
7, 9120, Note_off_c, 5, 64, 64
7, 9120, Note_off_c, 5, 62, 64
7, 9120, Note_off_c, 5, 56, 64
7, 9120, Note_off_c, 5, 52, 64
7, 9120, Note_on_c, 5, 52, 100
7, 9120, Note_on_c, 5, 56, 100
7, 9120, Note_on_c, 5, 62, 100
7, 9120, Note_on_c, 5, 64, 100
7, 9360, Note_off_c, 5, 64, 64
7, 9360, Note_off_c, 5, 62, 64
7, 9360, Note_off_c, 5, 56, 64
7, 9360, Note_off_c, 5, 52, 64
7, 9360, Note_on_c, 5, 52, 100
7, 9360, Note_on_c, 5, 56, 100
7, 9360, Note_on_c, 5, 62, 100
7, 9360, Note_on_c, 5, 64, 100
7, 9600, Note_off_c, 5, 64, 64
7, 9600, Note_off_c, 5, 62, 64
7, 9600, Note_off_c, 5, 56, 64
7, 9600, Note_off_c, 5, 52, 64
7, 9600, Note_on_c, 5, 52, 100
7, 9600, Note_on_c, 5, 45, 100
7, 9840, Note_off_c, 5, 45, 64
7, 9840, Note_off_c, 5, 52, 64
7, 9840, Note_on_c, 5, 52, 100
7, 9840, Note_on_c, 5, 45, 100
7, 10080, Note_off_c, 5, 45, 64
7, 10080, Note_off_c, 5, 52, 64
7, 10080, Note_on_c, 5, 54, 100
7, 10080, Note_on_c, 5, 45, 100
7, 10320, Note_off_c, 5, 45, 64
7, 10320, Note_off_c, 5, 54, 64
7, 10320, Note_on_c, 5, 52, 100
7, 10320, Note_on_c, 5, 45, 100
7, 10560, Note_off_c, 5, 45, 64
7, 10560, Note_off_c, 5, 52, 64
7, 10560, Note_on_c, 5, 55, 100
7, 10560, Note_on_c, 5, 45, 100
7, 10800, Note_off_c, 5, 45, 64
7, 10800, Note_off_c, 5, 55, 64
7, 10800, Note_on_c, 5, 55, 100
7, 10800, Note_on_c, 5, 45, 100
7, 11040, Note_off_c, 5, 45, 64
7, 11040, Note_off_c, 5, 55, 64
7, 11040, Note_on_c, 5, 54, 100
7, 11040, Note_on_c, 5, 45, 100
7, 11280, Note_off_c, 5, 45, 64
7, 11280, Note_off_c, 5, 54, 64
7, 11280, Note_on_c, 5, 52, 100
7, 11280, Note_on_c, 5, 45, 100
7, 11520, Note_off_c, 5, 45, 64
7, 11520, Note_off_c, 5, 52, 64
7, 11520, Note_on_c, 5, 55, 100
7, 11520, Note_on_c, 5, 45, 100
7, 11760, Note_off_c, 5, 45, 64
7, 11760, Note_off_c, 5, 55, 64
7, 11760, Note_on_c, 5, 55, 100
7, 11760, Note_on_c, 5, 45, 100
7, 12000, Note_off_c, 5, 45, 64
7, 12000, Note_off_c, 5, 55, 64
7, 12000, Note_on_c, 5, 54, 100
7, 12000, Note_on_c, 5, 45, 100
7, 12240, Note_off_c, 5, 45, 64
7, 12240, Note_off_c, 5, 54, 64
7, 12240, Note_on_c, 5, 52, 100
7, 12240, Note_on_c, 5, 45, 100
7, 12480, Note_off_c, 5, 45, 64
7, 12480, Note_off_c, 5, 52, 64
7, 12480, Note_on_c, 5, 55, 100
7, 12480, Note_on_c, 5, 45, 100
7, 12720, Note_off_c, 5, 45, 64
7, 12720, Note_off_c, 5, 55, 64
7, 12720, Note_on_c, 5, 55, 100
7, 12720, Note_on_c, 5, 45, 100
7, 12960, Note_off_c, 5, 45, 64
7, 12960, Note_off_c, 5, 55, 64
7, 12960, Note_on_c, 5, 54, 100
7, 12960, Note_on_c, 5, 45, 100
7, 13200, Note_off_c, 5, 45, 64
7, 13200, Note_off_c, 5, 54, 64
7, 13200, Note_on_c, 5, 55, 100
7, 13200, Note_on_c, 5, 45, 100
7, 13680, Note_off_c, 5, 45, 64
7, 13680, Note_off_c, 5, 55, 64
7, 13680, Note_on_c, 5, 55, 100
7, 13680, Note_on_c, 5, 45, 100
7, 13920, Note_off_c, 5, 45, 64
7, 13920, Note_off_c, 5, 55, 64
7, 13920, Note_on_c, 5, 54, 100
7, 13920, Note_on_c, 5, 45, 100
7, 14160, Note_off_c, 5, 45, 64
7, 14160, Note_off_c, 5, 54, 64
7, 14160, Note_on_c, 5, 52, 100
7, 14160, Note_on_c, 5, 45, 100
7, 14400, Note_off_c, 5, 45, 64
7, 14400, Note_off_c, 5, 52, 64
7, 14400, Note_on_c, 5, 55, 100
7, 14400, Note_on_c, 5, 45, 100
7, 14640, Note_off_c, 5, 45, 64
7, 14640, Note_off_c, 5, 55, 64
7, 14640, Note_on_c, 5, 55, 100
7, 14640, Note_on_c, 5, 45, 100
7, 14880, Note_off_c, 5, 45, 64
7, 14880, Note_off_c, 5, 55, 64
7, 14880, Note_on_c, 5, 54, 100
7, 14880, Note_on_c, 5, 45, 100
7, 15120, Note_off_c, 5, 45, 64
7, 15120, Note_off_c, 5, 54, 64
7, 15120, Note_on_c, 5, 52, 100
7, 15120, Note_on_c, 5, 45, 100
7, 15360, Note_off_c, 5, 45, 64
7, 15360, Note_off_c, 5, 52, 64
7, 15360, Note_on_c, 5, 55, 100
7, 15360, Note_on_c, 5, 45, 100
7, 15600, Note_off_c, 5, 45, 64
7, 15600, Note_off_c, 5, 55, 64
7, 15600, Note_on_c, 5, 55, 100
7, 15600, Note_on_c, 5, 45, 100
7, 15840, Note_off_c, 5, 45, 64
7, 15840, Note_off_c, 5, 55, 64
7, 15840, Note_on_c, 5, 54, 100
7, 15840, Note_on_c, 5, 45, 100
7, 16080, Note_off_c, 5, 45, 64
7, 16080, Note_off_c, 5, 54, 64
7, 16080, Note_on_c, 5, 52, 100
7, 16080, Note_on_c, 5, 45, 100
7, 16320, Note_off_c, 5, 45, 64
7, 16320, Note_off_c, 5, 52, 64
7, 16320, Note_on_c, 5, 55, 100
7, 16320, Note_on_c, 5, 45, 100
7, 16560, Note_off_c, 5, 45, 64
7, 16560, Note_off_c, 5, 55, 64
7, 16560, Note_on_c, 5, 55, 100
7, 16560, Note_on_c, 5, 45, 100
7, 16800, Note_off_c, 5, 45, 64
7, 16800, Note_off_c, 5, 55, 64
7, 16800, Note_on_c, 5, 54, 100
7, 16800, Note_on_c, 5, 45, 100
7, 17040, Note_off_c, 5, 45, 64
7, 17040, Note_off_c, 5, 54, 64
7, 17040, Note_on_c, 5, 49, 100
7, 17040, Note_on_c, 5, 56, 100
7, 17220, Note_on_c, 5, 50, 100
7, 17220, Note_on_c, 5, 57, 100
7, 17280, Note_off_c, 5, 57, 64
7, 17280, Note_off_c, 5, 50, 64
7, 17280, Note_off_c, 5, 56, 64
7, 17280, Note_off_c, 5, 49, 64
7, 17280, Note_on_c, 5, 57, 100
7, 17280, Note_on_c, 5, 50, 100
7, 17520, Note_off_c, 5, 50, 64
7, 17520, Note_off_c, 5, 57, 64
7, 17520, Note_on_c, 5, 57, 100
7, 17520, Note_on_c, 5, 50, 100
7, 17760, Note_off_c, 5, 50, 64
7, 17760, Note_off_c, 5, 57, 64
7, 17760, Note_on_c, 5, 59, 100
7, 17760, Note_on_c, 5, 50, 100
7, 18000, Note_off_c, 5, 50, 64
7, 18000, Note_off_c, 5, 59, 64
7, 18000, Note_on_c, 5, 56, 100
7, 18000, Note_on_c, 5, 50, 100
7, 18240, Note_off_c, 5, 50, 64
7, 18240, Note_off_c, 5, 56, 64
7, 18240, Note_on_c, 5, 60, 100
7, 18240, Note_on_c, 5, 50, 100
7, 18480, Note_off_c, 5, 50, 64
7, 18480, Note_off_c, 5, 60, 64
7, 18480, Note_on_c, 5, 60, 100
7, 18480, Note_on_c, 5, 50, 100
7, 18720, Note_off_c, 5, 50, 64
7, 18720, Note_off_c, 5, 60, 64
7, 18720, Note_on_c, 5, 59, 100
7, 18720, Note_on_c, 5, 50, 100
7, 18960, Note_off_c, 5, 50, 64
7, 18960, Note_off_c, 5, 59, 64
7, 18960, Note_on_c, 5, 57, 100
7, 18960, Note_on_c, 5, 50, 100
7, 19200, Note_off_c, 5, 50, 64
7, 19200, Note_off_c, 5, 57, 64
7, 19200, Note_on_c, 5, 60, 100
7, 19200, Note_on_c, 5, 50, 100
7, 19440, Note_off_c, 5, 50, 64
7, 19440, Note_off_c, 5, 60, 64
7, 19440, Note_on_c, 5, 60, 100
7, 19440, Note_on_c, 5, 50, 100
7, 19680, Note_off_c, 5, 50, 64
7, 19680, Note_off_c, 5, 60, 64
7, 19680, Note_on_c, 5, 59, 100
7, 19680, Note_on_c, 5, 50, 100
7, 19920, Note_off_c, 5, 50, 64
7, 19920, Note_off_c, 5, 59, 64
7, 19920, Note_on_c, 5, 57, 100
7, 19920, Note_on_c, 5, 50, 100
7, 20160, Note_off_c, 5, 50, 64
7, 20160, Note_off_c, 5, 57, 64
7, 20160, Note_on_c, 5, 60, 100
7, 20160, Note_on_c, 5, 50, 100
7, 20400, Note_off_c, 5, 50, 64
7, 20400, Note_off_c, 5, 60, 64
7, 20400, Note_on_c, 5, 60, 100
7, 20400, Note_on_c, 5, 50, 100
7, 20640, Note_off_c, 5, 50, 64
7, 20640, Note_off_c, 5, 60, 64
7, 20640, Note_on_c, 5, 59, 100
7, 20640, Note_on_c, 5, 50, 100
7, 20880, Note_off_c, 5, 50, 64
7, 20880, Note_off_c, 5, 59, 64
7, 20880, Note_on_c, 5, 44, 100
7, 20880, Note_on_c, 5, 51, 100
7, 21120, Note_off_c, 5, 51, 64
7, 21120, Note_off_c, 5, 44, 64
7, 21120, Note_on_c, 5, 52, 100
7, 21120, Note_on_c, 5, 45, 100
7, 21360, Note_off_c, 5, 45, 64
7, 21360, Note_off_c, 5, 52, 64
7, 21360, Note_on_c, 5, 52, 100
7, 21360, Note_on_c, 5, 45, 100
7, 21600, Note_off_c, 5, 45, 64
7, 21600, Note_off_c, 5, 52, 64
7, 21600, Note_on_c, 5, 54, 100
7, 21600, Note_on_c, 5, 45, 100
7, 21840, Note_off_c, 5, 45, 64
7, 21840, Note_off_c, 5, 54, 64
7, 21840, Note_on_c, 5, 52, 100
7, 21840, Note_on_c, 5, 45, 100
7, 22080, Note_off_c, 5, 45, 64
7, 22080, Note_off_c, 5, 52, 64
7, 22080, Note_on_c, 5, 55, 100
7, 22080, Note_on_c, 5, 45, 100
7, 22320, Note_off_c, 5, 45, 64
7, 22320, Note_off_c, 5, 55, 64
7, 22320, Note_on_c, 5, 55, 100
7, 22320, Note_on_c, 5, 45, 100
7, 22560, Note_off_c, 5, 45, 64
7, 22560, Note_off_c, 5, 55, 64
7, 22560, Note_on_c, 5, 54, 100
7, 22560, Note_on_c, 5, 45, 100
7, 22800, Note_off_c, 5, 45, 64
7, 22800, Note_off_c, 5, 54, 64
7, 22800, Note_on_c, 5, 52, 100
7, 22800, Note_on_c, 5, 45, 100
7, 23040, Note_off_c, 5, 45, 64
7, 23040, Note_off_c, 5, 52, 64
7, 23040, Note_on_c, 5, 55, 100
7, 23040, Note_on_c, 5, 45, 100
7, 23280, Note_off_c, 5, 45, 64
7, 23280, Note_off_c, 5, 55, 64
7, 23280, Note_on_c, 5, 55, 100
7, 23280, Note_on_c, 5, 45, 100
7, 23520, Note_off_c, 5, 45, 64
7, 23520, Note_off_c, 5, 55, 64
7, 23520, Note_on_c, 5, 54, 100
7, 23520, Note_on_c, 5, 45, 100
7, 23760, Note_off_c, 5, 45, 64
7, 23760, Note_off_c, 5, 54, 64
7, 23760, Note_on_c, 5, 52, 100
7, 23760, Note_on_c, 5, 45, 100
7, 24000, Note_off_c, 5, 45, 64
7, 24000, Note_off_c, 5, 52, 64
7, 24000, Note_on_c, 5, 55, 100
7, 24000, Note_on_c, 5, 45, 100
7, 24240, Note_off_c, 5, 45, 64
7, 24240, Note_off_c, 5, 55, 64
7, 24240, Note_on_c, 5, 55, 100
7, 24240, Note_on_c, 5, 45, 100
7, 24480, Note_off_c, 5, 45, 64
7, 24480, Note_off_c, 5, 55, 64
7, 24480, Note_on_c, 5, 54, 100
7, 24480, Note_on_c, 5, 45, 100
7, 24720, Note_off_c, 5, 45, 64
7, 24720, Note_off_c, 5, 54, 64
7, 24720, Note_on_c, 5, 55, 100
7, 24720, Note_on_c, 5, 45, 100
7, 24960, Note_off_c, 5, 45, 64
7, 24960, Note_off_c, 5, 55, 64
7, 24960, Note_on_c, 5, 52, 100
7, 25200, Note_off_c, 5, 52, 64
7, 25200, Note_on_c, 5, 52, 100
7, 25200, Note_on_c, 5, 56, 100
7, 25200, Note_on_c, 5, 62, 100
7, 25200, Note_on_c, 5, 64, 100
7, 25680, Note_off_c, 5, 64, 64
7, 25680, Note_off_c, 5, 62, 64
7, 25680, Note_off_c, 5, 56, 64
7, 25680, Note_off_c, 5, 52, 64
7, 25680, Note_on_c, 5, 52, 100
7, 25920, Note_off_c, 5, 52, 64
7, 25920, Note_on_c, 5, 52, 100
7, 25920, Note_on_c, 5, 56, 100
7, 25920, Note_on_c, 5, 62, 100
7, 25920, Note_on_c, 5, 64, 100
7, 26160, Note_off_c, 5, 64, 64
7, 26160, Note_off_c, 5, 62, 64
7, 26160, Note_off_c, 5, 56, 64
7, 26160, Note_off_c, 5, 52, 64
7, 26160, Note_on_c, 5, 52, 100
7, 26160, Note_on_c, 5, 56, 100
7, 26160, Note_on_c, 5, 62, 100
7, 26160, Note_on_c, 5, 64, 100
7, 26400, Note_off_c, 5, 64, 64
7, 26400, Note_off_c, 5, 62, 64
7, 26400, Note_off_c, 5, 56, 64
7, 26400, Note_off_c, 5, 52, 64
7, 26400, Note_on_c, 5, 52, 100
7, 26400, Note_on_c, 5, 56, 100
7, 26400, Note_on_c, 5, 62, 100
7, 26400, Note_on_c, 5, 64, 100
7, 26640, Note_off_c, 5, 64, 64
7, 26640, Note_off_c, 5, 62, 64
7, 26640, Note_off_c, 5, 56, 64
7, 26640, Note_off_c, 5, 52, 64
7, 26640, Note_on_c, 5, 52, 100
7, 26640, Note_on_c, 5, 56, 100
7, 26640, Note_on_c, 5, 62, 100
7, 26640, Note_on_c, 5, 64, 100
7, 26880, Note_off_c, 5, 64, 64
7, 26880, Note_off_c, 5, 62, 64
7, 26880, Note_off_c, 5, 56, 64
7, 26880, Note_off_c, 5, 52, 64
7, 26880, Note_on_c, 5, 52, 100
7, 27120, Note_off_c, 5, 52, 64
7, 27120, Note_on_c, 5, 52, 100
7, 27120, Note_on_c, 5, 56, 100
7, 27120, Note_on_c, 5, 62, 100
7, 27120, Note_on_c, 5, 64, 100
7, 27600, Note_off_c, 5, 64, 64
7, 27600, Note_off_c, 5, 62, 64
7, 27600, Note_off_c, 5, 56, 64
7, 27600, Note_off_c, 5, 52, 64
7, 27600, Note_on_c, 5, 52, 100
7, 27840, Note_off_c, 5, 52, 64
7, 27840, Note_on_c, 5, 52, 100
7, 27840, Note_on_c, 5, 56, 100
7, 27840, Note_on_c, 5, 62, 100
7, 27840, Note_on_c, 5, 64, 100
7, 28080, Note_off_c, 5, 64, 64
7, 28080, Note_off_c, 5, 62, 64
7, 28080, Note_off_c, 5, 56, 64
7, 28080, Note_off_c, 5, 52, 64
7, 28080, Note_on_c, 5, 52, 100
7, 28080, Note_on_c, 5, 56, 100
7, 28080, Note_on_c, 5, 62, 100
7, 28080, Note_on_c, 5, 64, 100
7, 28320, Note_off_c, 5, 64, 64
7, 28320, Note_off_c, 5, 62, 64
7, 28320, Note_off_c, 5, 56, 64
7, 28320, Note_off_c, 5, 52, 64
7, 28320, Note_on_c, 5, 52, 100
7, 28320, Note_on_c, 5, 56, 100
7, 28320, Note_on_c, 5, 62, 100
7, 28320, Note_on_c, 5, 64, 100
7, 28800, Note_off_c, 5, 64, 64
7, 28800, Note_off_c, 5, 62, 64
7, 28800, Note_off_c, 5, 56, 64
7, 28800, Note_off_c, 5, 52, 64
7, 28800, Note_on_c, 5, 52, 100
7, 28800, Note_on_c, 5, 45, 100
7, 29040, Note_off_c, 5, 45, 64
7, 29040, Note_off_c, 5, 52, 64
7, 29040, Note_on_c, 5, 52, 100
7, 29040, Note_on_c, 5, 45, 100
7, 29280, Note_off_c, 5, 45, 64
7, 29280, Note_off_c, 5, 52, 64
7, 29280, Note_on_c, 5, 54, 100
7, 29280, Note_on_c, 5, 45, 100
7, 29520, Note_off_c, 5, 45, 64
7, 29520, Note_off_c, 5, 54, 64
7, 29520, Note_on_c, 5, 52, 100
7, 29520, Note_on_c, 5, 45, 100
7, 29760, Note_off_c, 5, 45, 64
7, 29760, Note_off_c, 5, 52, 64
7, 29760, Note_on_c, 5, 55, 100
7, 29760, Note_on_c, 5, 45, 100
7, 30000, Note_off_c, 5, 45, 64
7, 30000, Note_off_c, 5, 55, 64
7, 30000, Note_on_c, 5, 55, 100
7, 30000, Note_on_c, 5, 45, 100
7, 30240, Note_off_c, 5, 45, 64
7, 30240, Note_off_c, 5, 55, 64
7, 30240, Note_on_c, 5, 54, 100
7, 30240, Note_on_c, 5, 45, 100
7, 30480, Note_off_c, 5, 45, 64
7, 30480, Note_off_c, 5, 54, 64
7, 30480, Note_on_c, 5, 52, 100
7, 30480, Note_on_c, 5, 45, 100
7, 30720, Note_off_c, 5, 45, 64
7, 30720, Note_off_c, 5, 52, 64
7, 30720, Note_on_c, 5, 56, 100
7, 30720, Note_on_c, 5, 52, 100
7, 30960, Note_off_c, 5, 52, 64
7, 30960, Note_off_c, 5, 56, 64
7, 30960, Note_on_c, 5, 52, 100
7, 30960, Note_on_c, 5, 56, 100
7, 30960, Note_on_c, 5, 62, 100
7, 30960, Note_on_c, 5, 64, 100
7, 31440, Note_off_c, 5, 64, 64
7, 31440, Note_off_c, 5, 62, 64
7, 31440, Note_off_c, 5, 56, 64
7, 31440, Note_off_c, 5, 52, 64
7, 31440, Note_on_c, 5, 52, 100
7, 31440, Note_on_c, 5, 56, 100
7, 31440, Note_on_c, 5, 62, 100
7, 31440, Note_on_c, 5, 64, 100
7, 31920, Note_off_c, 5, 64, 64
7, 31920, Note_off_c, 5, 62, 64
7, 31920, Note_off_c, 5, 56, 64
7, 31920, Note_off_c, 5, 52, 64
7, 31920, Note_on_c, 5, 52, 100
7, 31920, Note_on_c, 5, 56, 100
7, 31920, Note_on_c, 5, 62, 100
7, 31920, Note_on_c, 5, 64, 100
7, 32160, Note_off_c, 5, 64, 64
7, 32160, Note_off_c, 5, 62, 64
7, 32160, Note_off_c, 5, 56, 64
7, 32160, Note_off_c, 5, 52, 64
7, 32160, Note_on_c, 5, 52, 100
7, 32160, Note_on_c, 5, 56, 100
7, 32160, Note_on_c, 5, 62, 100
7, 32160, Note_on_c, 5, 64, 100
7, 32640, Note_off_c, 5, 64, 64
7, 32640, Note_off_c, 5, 62, 64
7, 32640, Note_off_c, 5, 56, 64
7, 32640, Note_off_c, 5, 52, 64
7, 32640, Note_on_c, 5, 57, 100
7, 32640, Note_on_c, 5, 50, 100
7, 32880, Note_off_c, 5, 50, 64
7, 32880, Note_off_c, 5, 57, 64
7, 32880, Note_on_c, 5, 57, 100
7, 32880, Note_on_c, 5, 50, 100
7, 33120, Note_off_c, 5, 50, 64
7, 33120, Note_off_c, 5, 57, 64
7, 33120, Note_on_c, 5, 59, 100
7, 33120, Note_on_c, 5, 50, 100
7, 33360, Note_off_c, 5, 50, 64
7, 33360, Note_off_c, 5, 59, 64
7, 33360, Note_on_c, 5, 56, 100
7, 33360, Note_on_c, 5, 50, 100
7, 33600, Note_off_c, 5, 50, 64
7, 33600, Note_off_c, 5, 56, 64
7, 33600, Note_on_c, 5, 60, 100
7, 33600, Note_on_c, 5, 50, 100
7, 33840, Note_off_c, 5, 50, 64
7, 33840, Note_off_c, 5, 60, 64
7, 33840, Note_on_c, 5, 60, 100
7, 33840, Note_on_c, 5, 50, 100
7, 34080, Note_off_c, 5, 50, 64
7, 34080, Note_off_c, 5, 60, 64
7, 34080, Note_on_c, 5, 59, 100
7, 34080, Note_on_c, 5, 50, 100
7, 34320, Note_off_c, 5, 50, 64
7, 34320, Note_off_c, 5, 59, 64
7, 34320, Note_on_c, 5, 57, 100
7, 34320, Note_on_c, 5, 50, 100
7, 34560, Note_off_c, 5, 50, 64
7, 34560, Note_off_c, 5, 57, 64
7, 34560, Note_on_c, 5, 60, 100
7, 34560, Note_on_c, 5, 50, 100
7, 34800, Note_off_c, 5, 50, 64
7, 34800, Note_off_c, 5, 60, 64
7, 34800, Note_on_c, 5, 57, 100
7, 34800, Note_on_c, 5, 50, 100
7, 35040, Note_off_c, 5, 50, 64
7, 35040, Note_off_c, 5, 57, 64
7, 35040, Note_on_c, 5, 59, 100
7, 35040, Note_on_c, 5, 50, 100
7, 35280, Note_off_c, 5, 50, 64
7, 35280, Note_off_c, 5, 59, 64
7, 35280, Note_on_c, 5, 57, 100
7, 35280, Note_on_c, 5, 50, 100
7, 35520, Note_off_c, 5, 50, 64
7, 35520, Note_off_c, 5, 57, 64
7, 35520, Note_on_c, 5, 60, 100
7, 35520, Note_on_c, 5, 50, 100
7, 35760, Note_off_c, 5, 50, 64
7, 35760, Note_off_c, 5, 60, 64
7, 35760, Note_on_c, 5, 57, 100
7, 35760, Note_on_c, 5, 50, 100
7, 36000, Note_off_c, 5, 50, 64
7, 36000, Note_off_c, 5, 57, 64
7, 36000, Note_on_c, 5, 59, 100
7, 36000, Note_on_c, 5, 50, 100
7, 36240, Note_off_c, 5, 50, 64
7, 36240, Note_off_c, 5, 59, 64
7, 36240, Note_on_c, 5, 44, 100
7, 36240, Note_on_c, 5, 51, 100
7, 36480, Note_off_c, 5, 51, 64
7, 36480, Note_off_c, 5, 44, 64
7, 36480, Note_on_c, 5, 52, 100
7, 36480, Note_on_c, 5, 45, 100
7, 36720, Note_off_c, 5, 45, 64
7, 36720, Note_off_c, 5, 52, 64
7, 36720, Note_on_c, 5, 52, 100
7, 36720, Note_on_c, 5, 45, 100
7, 36960, Note_off_c, 5, 45, 64
7, 36960, Note_off_c, 5, 52, 64
7, 36960, Note_on_c, 5, 54, 100
7, 36960, Note_on_c, 5, 45, 100
7, 37200, Note_off_c, 5, 45, 64
7, 37200, Note_off_c, 5, 54, 64
7, 37200, Note_on_c, 5, 52, 100
7, 37200, Note_on_c, 5, 45, 100
7, 37440, Note_off_c, 5, 45, 64
7, 37440, Note_off_c, 5, 52, 64
7, 37440, Note_on_c, 5, 55, 100
7, 37440, Note_on_c, 5, 45, 100
7, 37680, Note_off_c, 5, 45, 64
7, 37680, Note_off_c, 5, 55, 64
7, 37680, Note_on_c, 5, 52, 100
7, 37680, Note_on_c, 5, 45, 100
7, 37920, Note_off_c, 5, 45, 64
7, 37920, Note_off_c, 5, 52, 64
7, 37920, Note_on_c, 5, 54, 100
7, 37920, Note_on_c, 5, 45, 100
7, 38160, Note_off_c, 5, 45, 64
7, 38160, Note_off_c, 5, 54, 64
7, 38160, Note_on_c, 5, 52, 100
7, 38160, Note_on_c, 5, 45, 100
7, 38400, Note_off_c, 5, 45, 64
7, 38400, Note_off_c, 5, 52, 64
7, 38400, Note_on_c, 5, 55, 100
7, 38400, Note_on_c, 5, 45, 100
7, 38640, Note_off_c, 5, 45, 64
7, 38640, Note_off_c, 5, 55, 64
7, 38640, Note_on_c, 5, 52, 100
7, 38640, Note_on_c, 5, 45, 100
7, 38880, Note_off_c, 5, 45, 64
7, 38880, Note_off_c, 5, 52, 64
7, 38880, Note_on_c, 5, 54, 100
7, 38880, Note_on_c, 5, 45, 100
7, 39120, Note_off_c, 5, 45, 64
7, 39120, Note_off_c, 5, 54, 64
7, 39120, Note_on_c, 5, 52, 100
7, 39120, Note_on_c, 5, 45, 100
7, 39360, Note_off_c, 5, 45, 64
7, 39360, Note_off_c, 5, 52, 64
7, 39360, Note_on_c, 5, 55, 100
7, 39360, Note_on_c, 5, 45, 100
7, 39600, Note_off_c, 5, 45, 64
7, 39600, Note_off_c, 5, 55, 64
7, 39600, Note_on_c, 5, 52, 100
7, 39600, Note_on_c, 5, 45, 100
7, 39840, Note_off_c, 5, 45, 64
7, 39840, Note_off_c, 5, 52, 64
7, 39840, Note_on_c, 5, 54, 100
7, 39840, Note_on_c, 5, 45, 100
7, 40080, Note_off_c, 5, 45, 64
7, 40080, Note_off_c, 5, 54, 64
7, 40080, Note_on_c, 5, 49, 100
7, 40080, Note_on_c, 5, 55, 100
7, 40260, Note_on_c, 5, 50, 100
7, 40260, Note_on_c, 5, 56, 100
7, 40320, Note_off_c, 5, 56, 64
7, 40320, Note_off_c, 5, 50, 64
7, 40320, Note_off_c, 5, 55, 64
7, 40320, Note_off_c, 5, 49, 64
7, 40320, Note_on_c, 5, 57, 100
7, 40320, Note_on_c, 5, 50, 100
7, 40560, Note_off_c, 5, 50, 64
7, 40560, Note_off_c, 5, 57, 64
7, 40560, Note_on_c, 5, 57, 100
7, 40560, Note_on_c, 5, 50, 100
7, 40800, Note_off_c, 5, 50, 64
7, 40800, Note_off_c, 5, 57, 64
7, 40800, Note_on_c, 5, 59, 100
7, 40800, Note_on_c, 5, 50, 100
7, 41040, Note_off_c, 5, 50, 64
7, 41040, Note_off_c, 5, 59, 64
7, 41040, Note_on_c, 5, 57, 100
7, 41040, Note_on_c, 5, 50, 100
7, 41280, Note_off_c, 5, 50, 64
7, 41280, Note_off_c, 5, 57, 64
7, 41280, Note_on_c, 5, 60, 100
7, 41280, Note_on_c, 5, 50, 100
7, 41520, Note_off_c, 5, 50, 64
7, 41520, Note_off_c, 5, 60, 64
7, 41520, Note_on_c, 5, 57, 100
7, 41520, Note_on_c, 5, 50, 100
7, 41760, Note_off_c, 5, 50, 64
7, 41760, Note_off_c, 5, 57, 64
7, 41760, Note_on_c, 5, 59, 100
7, 41760, Note_on_c, 5, 50, 100
7, 42000, Note_off_c, 5, 50, 64
7, 42000, Note_off_c, 5, 59, 64
7, 42000, Note_on_c, 5, 57, 100
7, 42000, Note_on_c, 5, 50, 100
7, 42240, Note_off_c, 5, 50, 64
7, 42240, Note_off_c, 5, 57, 64
7, 42240, Note_on_c, 5, 60, 100
7, 42240, Note_on_c, 5, 50, 100
7, 42480, Note_off_c, 5, 50, 64
7, 42480, Note_off_c, 5, 60, 64
7, 42480, Note_on_c, 5, 57, 100
7, 42480, Note_on_c, 5, 50, 100
7, 42720, Note_off_c, 5, 50, 64
7, 42720, Note_off_c, 5, 57, 64
7, 42720, Note_on_c, 5, 59, 100
7, 42720, Note_on_c, 5, 50, 100
7, 42960, Note_off_c, 5, 50, 64
7, 42960, Note_off_c, 5, 59, 64
7, 42960, Note_on_c, 5, 57, 100
7, 42960, Note_on_c, 5, 50, 100
7, 43200, Note_off_c, 5, 50, 64
7, 43200, Note_off_c, 5, 57, 64
7, 43200, Note_on_c, 5, 60, 100
7, 43200, Note_on_c, 5, 50, 100
7, 43440, Note_off_c, 5, 50, 64
7, 43440, Note_off_c, 5, 60, 64
7, 43440, Note_on_c, 5, 57, 100
7, 43440, Note_on_c, 5, 50, 100
7, 43680, Note_off_c, 5, 50, 64
7, 43680, Note_off_c, 5, 57, 64
7, 43680, Note_on_c, 5, 59, 100
7, 43680, Note_on_c, 5, 50, 100
7, 43920, Note_off_c, 5, 50, 64
7, 43920, Note_off_c, 5, 59, 64
7, 43920, Note_on_c, 5, 50, 100
7, 43920, Note_on_c, 5, 60, 100
7, 44160, Note_off_c, 5, 60, 64
7, 44160, Note_off_c, 5, 50, 64
7, 44160, Note_on_c, 5, 52, 100
7, 44400, Note_off_c, 5, 52, 64
7, 44400, Note_on_c, 5, 52, 100
7, 44400, Note_on_c, 5, 56, 100
7, 44400, Note_on_c, 5, 62, 100
7, 44400, Note_on_c, 5, 64, 100
7, 44880, Note_off_c, 5, 64, 64
7, 44880, Note_off_c, 5, 62, 64
7, 44880, Note_off_c, 5, 56, 64
7, 44880, Note_off_c, 5, 52, 64
7, 44880, Note_on_c, 5, 52, 100
7, 45120, Note_off_c, 5, 52, 64
7, 45120, Note_on_c, 5, 52, 100
7, 45120, Note_on_c, 5, 56, 100
7, 45120, Note_on_c, 5, 62, 100
7, 45120, Note_on_c, 5, 64, 100
7, 45360, Note_off_c, 5, 64, 64
7, 45360, Note_off_c, 5, 62, 64
7, 45360, Note_off_c, 5, 56, 64
7, 45360, Note_off_c, 5, 52, 64
7, 45360, Note_on_c, 5, 52, 100
7, 45360, Note_on_c, 5, 56, 100
7, 45360, Note_on_c, 5, 62, 100
7, 45360, Note_on_c, 5, 64, 100
7, 45600, Note_off_c, 5, 64, 64
7, 45600, Note_off_c, 5, 62, 64
7, 45600, Note_off_c, 5, 56, 64
7, 45600, Note_off_c, 5, 52, 64
7, 45600, Note_on_c, 5, 52, 100
7, 45600, Note_on_c, 5, 56, 100
7, 45600, Note_on_c, 5, 62, 100
7, 45600, Note_on_c, 5, 64, 100
7, 45840, Note_off_c, 5, 64, 64
7, 45840, Note_off_c, 5, 62, 64
7, 45840, Note_off_c, 5, 56, 64
7, 45840, Note_off_c, 5, 52, 64
7, 45840, Note_on_c, 5, 52, 100
7, 45840, Note_on_c, 5, 56, 100
7, 45840, Note_on_c, 5, 62, 100
7, 45840, Note_on_c, 5, 64, 100
7, 46080, Note_off_c, 5, 64, 64
7, 46080, Note_off_c, 5, 62, 64
7, 46080, Note_off_c, 5, 56, 64
7, 46080, Note_off_c, 5, 52, 64
7, 46080, Note_on_c, 5, 52, 100
7, 46320, Note_off_c, 5, 52, 64
7, 46320, Note_on_c, 5, 52, 100
7, 46320, Note_on_c, 5, 56, 100
7, 46320, Note_on_c, 5, 62, 100
7, 46320, Note_on_c, 5, 64, 100
7, 46800, Note_off_c, 5, 64, 64
7, 46800, Note_off_c, 5, 62, 64
7, 46800, Note_off_c, 5, 56, 64
7, 46800, Note_off_c, 5, 52, 64
7, 46800, Note_on_c, 5, 52, 100
7, 47040, Note_off_c, 5, 52, 64
7, 47040, Note_on_c, 5, 52, 100
7, 47040, Note_on_c, 5, 56, 100
7, 47040, Note_on_c, 5, 62, 100
7, 47040, Note_on_c, 5, 64, 100
7, 47280, Note_off_c, 5, 64, 64
7, 47280, Note_off_c, 5, 62, 64
7, 47280, Note_off_c, 5, 56, 64
7, 47280, Note_off_c, 5, 52, 64
7, 47280, Note_on_c, 5, 52, 100
7, 47280, Note_on_c, 5, 56, 100
7, 47280, Note_on_c, 5, 62, 100
7, 47280, Note_on_c, 5, 64, 100
7, 47520, Note_off_c, 5, 64, 64
7, 47520, Note_off_c, 5, 62, 64
7, 47520, Note_off_c, 5, 56, 64
7, 47520, Note_off_c, 5, 52, 64
7, 47520, Note_on_c, 5, 52, 100
7, 47520, Note_on_c, 5, 56, 100
7, 47520, Note_on_c, 5, 62, 100
7, 47520, Note_on_c, 5, 64, 100
7, 48000, Note_off_c, 5, 64, 64
7, 48000, Note_off_c, 5, 62, 64
7, 48000, Note_off_c, 5, 56, 64
7, 48000, Note_off_c, 5, 52, 64
7, 48000, Note_on_c, 5, 57, 100
7, 48000, Note_on_c, 5, 50, 100
7, 48240, Note_off_c, 5, 50, 64
7, 48240, Note_off_c, 5, 57, 64
7, 48240, Note_on_c, 5, 57, 100
7, 48240, Note_on_c, 5, 50, 100
7, 48480, Note_off_c, 5, 50, 64
7, 48480, Note_off_c, 5, 57, 64
7, 48480, Note_on_c, 5, 59, 100
7, 48480, Note_on_c, 5, 50, 100
7, 48720, Note_off_c, 5, 50, 64
7, 48720, Note_off_c, 5, 59, 64
7, 48720, Note_on_c, 5, 57, 100
7, 48720, Note_on_c, 5, 50, 100
7, 48960, Note_off_c, 5, 50, 64
7, 48960, Note_off_c, 5, 57, 64
7, 48960, Note_on_c, 5, 60, 100
7, 48960, Note_on_c, 5, 50, 100
7, 49200, Note_off_c, 5, 50, 64
7, 49200, Note_off_c, 5, 60, 64
7, 49200, Note_on_c, 5, 57, 100
7, 49200, Note_on_c, 5, 50, 100
7, 49440, Note_off_c, 5, 50, 64
7, 49440, Note_off_c, 5, 57, 64
7, 49440, Note_on_c, 5, 59, 100
7, 49440, Note_on_c, 5, 50, 100
7, 49680, Note_off_c, 5, 50, 64
7, 49680, Note_off_c, 5, 59, 64
7, 49680, Note_on_c, 5, 57, 100
7, 49680, Note_on_c, 5, 50, 100
7, 49920, Note_off_c, 5, 50, 64
7, 49920, Note_off_c, 5, 57, 64
7, 49920, Note_on_c, 5, 60, 100
7, 49920, Note_on_c, 5, 50, 100
7, 50160, Note_off_c, 5, 50, 64
7, 50160, Note_off_c, 5, 60, 64
7, 50160, Note_on_c, 5, 57, 100
7, 50160, Note_on_c, 5, 50, 100
7, 50400, Note_off_c, 5, 50, 64
7, 50400, Note_off_c, 5, 57, 64
7, 50400, Note_on_c, 5, 59, 100
7, 50400, Note_on_c, 5, 50, 100
7, 50640, Note_off_c, 5, 50, 64
7, 50640, Note_off_c, 5, 59, 64
7, 50640, Note_on_c, 5, 57, 100
7, 50640, Note_on_c, 5, 50, 100
7, 50880, Note_off_c, 5, 50, 64
7, 50880, Note_off_c, 5, 57, 64
7, 50880, Note_on_c, 5, 60, 100
7, 50880, Note_on_c, 5, 50, 100
7, 51120, Note_off_c, 5, 50, 64
7, 51120, Note_off_c, 5, 60, 64
7, 51120, Note_on_c, 5, 57, 100
7, 51120, Note_on_c, 5, 50, 100
7, 51360, Note_off_c, 5, 50, 64
7, 51360, Note_off_c, 5, 57, 64
7, 51360, Note_on_c, 5, 59, 100
7, 51360, Note_on_c, 5, 50, 100
7, 51600, Note_off_c, 5, 50, 64
7, 51600, Note_off_c, 5, 59, 64
7, 51600, Note_on_c, 5, 69, 100
7, 51600, Note_on_c, 5, 74, 100
7, 51840, Note_off_c, 5, 74, 64
7, 51840, Note_off_c, 5, 69, 64
7, 51840, Note_on_c, 5, 52, 100
7, 51840, Note_on_c, 5, 45, 100
7, 52080, Note_off_c, 5, 45, 64
7, 52080, Note_off_c, 5, 52, 64
7, 52080, Note_on_c, 5, 52, 100
7, 52080, Note_on_c, 5, 45, 100
7, 52320, Note_off_c, 5, 45, 64
7, 52320, Note_off_c, 5, 52, 64
7, 52320, Note_on_c, 5, 54, 100
7, 52320, Note_on_c, 5, 45, 100
7, 52560, Note_off_c, 5, 45, 64
7, 52560, Note_off_c, 5, 54, 64
7, 52560, Note_on_c, 5, 52, 100
7, 52560, Note_on_c, 5, 45, 100
7, 52800, Note_off_c, 5, 45, 64
7, 52800, Note_off_c, 5, 52, 64
7, 52800, Note_on_c, 5, 55, 100
7, 52800, Note_on_c, 5, 45, 100
7, 53040, Note_off_c, 5, 45, 64
7, 53040, Note_off_c, 5, 55, 64
7, 53040, Note_on_c, 5, 55, 100
7, 53040, Note_on_c, 5, 45, 100
7, 53280, Note_off_c, 5, 45, 64
7, 53280, Note_off_c, 5, 55, 64
7, 53280, Note_on_c, 5, 54, 100
7, 53280, Note_on_c, 5, 45, 100
7, 53520, Note_off_c, 5, 45, 64
7, 53520, Note_off_c, 5, 54, 64
7, 53520, Note_on_c, 5, 52, 100
7, 53520, Note_on_c, 5, 45, 100
7, 53760, Note_off_c, 5, 45, 64
7, 53760, Note_off_c, 5, 52, 64
7, 53760, Note_on_c, 5, 55, 100
7, 53760, Note_on_c, 5, 45, 100
7, 54000, Note_off_c, 5, 45, 64
7, 54000, Note_off_c, 5, 55, 64
7, 54000, Note_on_c, 5, 55, 100
7, 54000, Note_on_c, 5, 45, 100
7, 54240, Note_off_c, 5, 45, 64
7, 54240, Note_off_c, 5, 55, 64
7, 54240, Note_on_c, 5, 54, 100
7, 54240, Note_on_c, 5, 45, 100
7, 54480, Note_off_c, 5, 45, 64
7, 54480, Note_off_c, 5, 54, 64
7, 54480, Note_on_c, 5, 52, 100
7, 54480, Note_on_c, 5, 45, 100
7, 54720, Note_off_c, 5, 45, 64
7, 54720, Note_off_c, 5, 52, 64
7, 54720, Note_on_c, 5, 55, 100
7, 54720, Note_on_c, 5, 45, 100
7, 54960, Note_off_c, 5, 45, 64
7, 54960, Note_off_c, 5, 55, 64
7, 54960, Note_on_c, 5, 55, 100
7, 54960, Note_on_c, 5, 45, 100
7, 55200, Note_off_c, 5, 45, 64
7, 55200, Note_off_c, 5, 55, 64
7, 55200, Note_on_c, 5, 54, 100
7, 55200, Note_on_c, 5, 45, 100
7, 55440, Note_off_c, 5, 45, 64
7, 55440, Note_off_c, 5, 54, 64
7, 55440, Note_on_c, 5, 52, 100
7, 55440, Note_on_c, 5, 45, 100
7, 55680, Note_off_c, 5, 45, 64
7, 55680, Note_off_c, 5, 52, 64
7, 55680, Note_on_c, 5, 57, 100
7, 55680, Note_on_c, 5, 50, 100
7, 55920, Note_off_c, 5, 50, 64
7, 55920, Note_off_c, 5, 57, 64
7, 55920, Note_on_c, 5, 57, 100
7, 55920, Note_on_c, 5, 50, 100
7, 56160, Note_off_c, 5, 50, 64
7, 56160, Note_off_c, 5, 57, 64
7, 56160, Note_on_c, 5, 59, 100
7, 56160, Note_on_c, 5, 50, 100
7, 56400, Note_off_c, 5, 50, 64
7, 56400, Note_off_c, 5, 59, 64
7, 56400, Note_on_c, 5, 57, 100
7, 56400, Note_on_c, 5, 50, 100
7, 56640, Note_off_c, 5, 50, 64
7, 56640, Note_off_c, 5, 57, 64
7, 56640, Note_on_c, 5, 60, 100
7, 56640, Note_on_c, 5, 50, 100
7, 56880, Note_off_c, 5, 50, 64
7, 56880, Note_off_c, 5, 60, 64
7, 56880, Note_on_c, 5, 57, 100
7, 56880, Note_on_c, 5, 50, 100
7, 57120, Note_off_c, 5, 50, 64
7, 57120, Note_off_c, 5, 57, 64
7, 57120, Note_on_c, 5, 59, 100
7, 57120, Note_on_c, 5, 50, 100
7, 57360, Note_off_c, 5, 50, 64
7, 57360, Note_off_c, 5, 59, 64
7, 57360, Note_on_c, 5, 57, 100
7, 57360, Note_on_c, 5, 50, 100
7, 57600, Note_off_c, 5, 50, 64
7, 57600, Note_off_c, 5, 57, 64
7, 57600, Note_on_c, 5, 60, 100
7, 57600, Note_on_c, 5, 50, 100
7, 57840, Note_off_c, 5, 50, 64
7, 57840, Note_off_c, 5, 60, 64
7, 57840, Note_on_c, 5, 57, 100
7, 57840, Note_on_c, 5, 50, 100
7, 58080, Note_off_c, 5, 50, 64
7, 58080, Note_off_c, 5, 57, 64
7, 58080, Note_on_c, 5, 59, 100
7, 58080, Note_on_c, 5, 50, 100
7, 58320, Note_off_c, 5, 50, 64
7, 58320, Note_off_c, 5, 59, 64
7, 58320, Note_on_c, 5, 57, 100
7, 58320, Note_on_c, 5, 50, 100
7, 58560, Note_off_c, 5, 50, 64
7, 58560, Note_off_c, 5, 57, 64
7, 58560, Note_on_c, 5, 60, 100
7, 58560, Note_on_c, 5, 50, 100
7, 58800, Note_off_c, 5, 50, 64
7, 58800, Note_off_c, 5, 60, 64
7, 58800, Note_on_c, 5, 57, 100
7, 58800, Note_on_c, 5, 50, 100
7, 59040, Note_off_c, 5, 50, 64
7, 59040, Note_off_c, 5, 57, 64
7, 59040, Note_on_c, 5, 59, 100
7, 59040, Note_on_c, 5, 50, 100
7, 59280, Note_off_c, 5, 50, 64
7, 59280, Note_off_c, 5, 59, 64
7, 59280, Note_on_c, 5, 57, 100
7, 59280, Note_on_c, 5, 50, 100
7, 59520, Note_off_c, 5, 50, 64
7, 59520, Note_off_c, 5, 57, 64
7, 59520, Note_on_c, 5, 52, 100
7, 59760, Note_off_c, 5, 52, 64
7, 59760, Note_on_c, 5, 52, 100
7, 59760, Note_on_c, 5, 56, 100
7, 59760, Note_on_c, 5, 62, 100
7, 59760, Note_on_c, 5, 64, 100
7, 60240, Note_off_c, 5, 64, 64
7, 60240, Note_off_c, 5, 62, 64
7, 60240, Note_off_c, 5, 56, 64
7, 60240, Note_off_c, 5, 52, 64
7, 60240, Note_on_c, 5, 52, 100
7, 60480, Note_off_c, 5, 52, 64
7, 60480, Note_on_c, 5, 52, 100
7, 60480, Note_on_c, 5, 56, 100
7, 60480, Note_on_c, 5, 62, 100
7, 60480, Note_on_c, 5, 64, 100
7, 60720, Note_off_c, 5, 64, 64
7, 60720, Note_off_c, 5, 62, 64
7, 60720, Note_off_c, 5, 56, 64
7, 60720, Note_off_c, 5, 52, 64
7, 60720, Note_on_c, 5, 52, 100
7, 60720, Note_on_c, 5, 56, 100
7, 60720, Note_on_c, 5, 62, 100
7, 60720, Note_on_c, 5, 64, 100
7, 60960, Note_off_c, 5, 64, 64
7, 60960, Note_off_c, 5, 62, 64
7, 60960, Note_off_c, 5, 56, 64
7, 60960, Note_off_c, 5, 52, 64
7, 60960, Note_on_c, 5, 52, 100
7, 60960, Note_on_c, 5, 56, 100
7, 60960, Note_on_c, 5, 62, 100
7, 60960, Note_on_c, 5, 64, 100
7, 61200, Note_off_c, 5, 64, 64
7, 61200, Note_off_c, 5, 62, 64
7, 61200, Note_off_c, 5, 56, 64
7, 61200, Note_off_c, 5, 52, 64
7, 61200, Note_on_c, 5, 52, 100
7, 61200, Note_on_c, 5, 56, 100
7, 61200, Note_on_c, 5, 62, 100
7, 61200, Note_on_c, 5, 64, 100
7, 61440, Note_off_c, 5, 64, 64
7, 61440, Note_off_c, 5, 62, 64
7, 61440, Note_off_c, 5, 56, 64
7, 61440, Note_off_c, 5, 52, 64
7, 61440, Note_on_c, 5, 52, 100
7, 61680, Note_off_c, 5, 52, 64
7, 61680, Note_on_c, 5, 52, 100
7, 61680, Note_on_c, 5, 56, 100
7, 61680, Note_on_c, 5, 62, 100
7, 61680, Note_on_c, 5, 64, 100
7, 62160, Note_off_c, 5, 64, 64
7, 62160, Note_off_c, 5, 62, 64
7, 62160, Note_off_c, 5, 56, 64
7, 62160, Note_off_c, 5, 52, 64
7, 62160, Note_on_c, 5, 52, 100
7, 62400, Note_off_c, 5, 52, 64
7, 62400, Note_on_c, 5, 52, 100
7, 62400, Note_on_c, 5, 56, 100
7, 62400, Note_on_c, 5, 62, 100
7, 62400, Note_on_c, 5, 64, 100
7, 62640, Note_off_c, 5, 64, 64
7, 62640, Note_off_c, 5, 62, 64
7, 62640, Note_off_c, 5, 56, 64
7, 62640, Note_off_c, 5, 52, 64
7, 62640, Note_on_c, 5, 52, 100
7, 62640, Note_on_c, 5, 56, 100
7, 62640, Note_on_c, 5, 62, 100
7, 62640, Note_on_c, 5, 64, 100
7, 62880, Note_off_c, 5, 64, 64
7, 62880, Note_off_c, 5, 62, 64
7, 62880, Note_off_c, 5, 56, 64
7, 62880, Note_off_c, 5, 52, 64
7, 62880, Note_on_c, 5, 52, 100
7, 62880, Note_on_c, 5, 56, 100
7, 62880, Note_on_c, 5, 62, 100
7, 62880, Note_on_c, 5, 64, 100
7, 63360, Note_off_c, 5, 64, 64
7, 63360, Note_off_c, 5, 62, 64
7, 63360, Note_off_c, 5, 56, 64
7, 63360, Note_off_c, 5, 52, 64
7, 63360, Note_on_c, 5, 52, 100
7, 63360, Note_on_c, 5, 45, 100
7, 63600, Note_off_c, 5, 45, 64
7, 63600, Note_off_c, 5, 52, 64
7, 63600, Note_on_c, 5, 52, 100
7, 63600, Note_on_c, 5, 45, 100
7, 63840, Note_off_c, 5, 45, 64
7, 63840, Note_off_c, 5, 52, 64
7, 63840, Note_on_c, 5, 54, 100
7, 63840, Note_on_c, 5, 45, 100
7, 64080, Note_off_c, 5, 45, 64
7, 64080, Note_off_c, 5, 54, 64
7, 64080, Note_on_c, 5, 52, 100
7, 64080, Note_on_c, 5, 45, 100
7, 64320, Note_off_c, 5, 45, 64
7, 64320, Note_off_c, 5, 52, 64
7, 64320, Note_on_c, 5, 55, 100
7, 64320, Note_on_c, 5, 45, 100
7, 64560, Note_off_c, 5, 45, 64
7, 64560, Note_off_c, 5, 55, 64
7, 64560, Note_on_c, 5, 55, 100
7, 64560, Note_on_c, 5, 45, 100
7, 64800, Note_off_c, 5, 45, 64
7, 64800, Note_off_c, 5, 55, 64
7, 64800, Note_on_c, 5, 54, 100
7, 64800, Note_on_c, 5, 45, 100
7, 65040, Note_off_c, 5, 45, 64
7, 65040, Note_off_c, 5, 54, 64
7, 65040, Note_on_c, 5, 52, 100
7, 65040, Note_on_c, 5, 45, 100
7, 65280, Note_off_c, 5, 45, 64
7, 65280, Note_off_c, 5, 52, 64
7, 65280, Note_on_c, 5, 55, 100
7, 65280, Note_on_c, 5, 45, 100
7, 65520, Note_off_c, 5, 45, 64
7, 65520, Note_off_c, 5, 55, 64
7, 65520, Note_on_c, 5, 55, 100
7, 65520, Note_on_c, 5, 45, 100
7, 65760, Note_off_c, 5, 45, 64
7, 65760, Note_off_c, 5, 55, 64
7, 65760, Note_on_c, 5, 54, 100
7, 65760, Note_on_c, 5, 45, 100
7, 66000, Note_off_c, 5, 45, 64
7, 66000, Note_off_c, 5, 54, 64
7, 66000, Note_on_c, 5, 52, 100
7, 66000, Note_on_c, 5, 45, 100
7, 66240, Note_off_c, 5, 45, 64
7, 66240, Note_off_c, 5, 52, 64
7, 66240, Note_on_c, 5, 55, 100
7, 66240, Note_on_c, 5, 45, 100
7, 66480, Note_off_c, 5, 45, 64
7, 66480, Note_off_c, 5, 55, 64
7, 66480, Note_on_c, 5, 55, 100
7, 66480, Note_on_c, 5, 45, 100
7, 66720, Note_off_c, 5, 45, 64
7, 66720, Note_off_c, 5, 55, 64
7, 66720, Note_on_c, 5, 54, 100
7, 66720, Note_on_c, 5, 45, 100
7, 66960, Note_off_c, 5, 45, 64
7, 66960, Note_off_c, 5, 54, 64
7, 66960, Note_on_c, 5, 49, 100
7, 66960, Note_on_c, 5, 55, 100
7, 67140, Note_on_c, 5, 50, 100
7, 67140, Note_on_c, 5, 57, 100
7, 67200, Note_off_c, 5, 57, 64
7, 67200, Note_off_c, 5, 50, 64
7, 67200, Note_off_c, 5, 55, 64
7, 67200, Note_off_c, 5, 49, 64
7, 67200, Note_on_c, 5, 57, 100
7, 67200, Note_on_c, 5, 50, 100
7, 67440, Note_off_c, 5, 50, 64
7, 67440, Note_off_c, 5, 57, 64
7, 67440, Note_on_c, 5, 57, 100
7, 67440, Note_on_c, 5, 50, 100
7, 67680, Note_off_c, 5, 50, 64
7, 67680, Note_off_c, 5, 57, 64
7, 67680, Note_on_c, 5, 59, 100
7, 67680, Note_on_c, 5, 50, 100
7, 67920, Note_off_c, 5, 50, 64
7, 67920, Note_off_c, 5, 59, 64
7, 67920, Note_on_c, 5, 57, 100
7, 67920, Note_on_c, 5, 50, 100
7, 68160, Note_off_c, 5, 50, 64
7, 68160, Note_off_c, 5, 57, 64
7, 68160, Note_on_c, 5, 60, 100
7, 68160, Note_on_c, 5, 50, 100
7, 68400, Note_off_c, 5, 50, 64
7, 68400, Note_off_c, 5, 60, 64
7, 68400, Note_on_c, 5, 60, 100
7, 68400, Note_on_c, 5, 50, 100
7, 68640, Note_off_c, 5, 50, 64
7, 68640, Note_off_c, 5, 60, 64
7, 68640, Note_on_c, 5, 59, 100
7, 68640, Note_on_c, 5, 50, 100
7, 68880, Note_off_c, 5, 50, 64
7, 68880, Note_off_c, 5, 59, 64
7, 68880, Note_on_c, 5, 57, 100
7, 68880, Note_on_c, 5, 50, 100
7, 69120, Note_off_c, 5, 50, 64
7, 69120, Note_off_c, 5, 57, 64
7, 69120, Note_on_c, 5, 60, 100
7, 69120, Note_on_c, 5, 50, 100
7, 69360, Note_off_c, 5, 50, 64
7, 69360, Note_off_c, 5, 60, 64
7, 69360, Note_on_c, 5, 60, 100
7, 69360, Note_on_c, 5, 50, 100
7, 69600, Note_off_c, 5, 50, 64
7, 69600, Note_off_c, 5, 60, 64
7, 69600, Note_on_c, 5, 59, 100
7, 69600, Note_on_c, 5, 50, 100
7, 69840, Note_off_c, 5, 50, 64
7, 69840, Note_off_c, 5, 59, 64
7, 69840, Note_on_c, 5, 57, 100
7, 69840, Note_on_c, 5, 50, 100
7, 70080, Note_off_c, 5, 50, 64
7, 70080, Note_off_c, 5, 57, 64
7, 70080, Note_on_c, 5, 60, 100
7, 70080, Note_on_c, 5, 50, 100
7, 70320, Note_off_c, 5, 50, 64
7, 70320, Note_off_c, 5, 60, 64
7, 70320, Note_on_c, 5, 60, 100
7, 70320, Note_on_c, 5, 50, 100
7, 70560, Note_off_c, 5, 50, 64
7, 70560, Note_off_c, 5, 60, 64
7, 70560, Note_on_c, 5, 59, 100
7, 70560, Note_on_c, 5, 50, 100
7, 70800, Note_off_c, 5, 50, 64
7, 70800, Note_off_c, 5, 59, 64
7, 70800, Note_on_c, 5, 74, 100
7, 70800, Note_on_c, 5, 69, 100
7, 71040, Note_off_c, 5, 69, 64
7, 71040, Note_off_c, 5, 74, 64
7, 71040, Note_on_c, 5, 52, 100
7, 71040, Note_on_c, 5, 45, 100
7, 71280, Note_off_c, 5, 45, 64
7, 71280, Note_off_c, 5, 52, 64
7, 71280, Note_on_c, 5, 52, 100
7, 71280, Note_on_c, 5, 45, 100
7, 71520, Note_off_c, 5, 45, 64
7, 71520, Note_off_c, 5, 52, 64
7, 71520, Note_on_c, 5, 54, 100
7, 71520, Note_on_c, 5, 45, 100
7, 71760, Note_off_c, 5, 45, 64
7, 71760, Note_off_c, 5, 54, 64
7, 71760, Note_on_c, 5, 52, 100
7, 71760, Note_on_c, 5, 45, 100
7, 72000, Note_off_c, 5, 45, 64
7, 72000, Note_off_c, 5, 52, 64
7, 72000, Note_on_c, 5, 55, 100
7, 72000, Note_on_c, 5, 45, 100
7, 72240, Note_off_c, 5, 45, 64
7, 72240, Note_off_c, 5, 55, 64
7, 72240, Note_on_c, 5, 55, 100
7, 72240, Note_on_c, 5, 45, 100
7, 72480, Note_off_c, 5, 45, 64
7, 72480, Note_off_c, 5, 55, 64
7, 72480, Note_on_c, 5, 54, 100
7, 72480, Note_on_c, 5, 45, 100
7, 72720, Note_off_c, 5, 45, 64
7, 72720, Note_off_c, 5, 54, 64
7, 72720, Note_on_c, 5, 52, 100
7, 72720, Note_on_c, 5, 45, 100
7, 72960, Note_off_c, 5, 45, 64
7, 72960, Note_off_c, 5, 52, 64
7, 72960, Note_on_c, 5, 55, 100
7, 72960, Note_on_c, 5, 45, 100
7, 73200, Note_off_c, 5, 45, 64
7, 73200, Note_off_c, 5, 55, 64
7, 73200, Note_on_c, 5, 55, 100
7, 73200, Note_on_c, 5, 45, 100
7, 73440, Note_off_c, 5, 45, 64
7, 73440, Note_off_c, 5, 55, 64
7, 73440, Note_on_c, 5, 54, 100
7, 73440, Note_on_c, 5, 45, 100
7, 73680, Note_off_c, 5, 45, 64
7, 73680, Note_off_c, 5, 54, 64
7, 73680, Note_on_c, 5, 52, 100
7, 73680, Note_on_c, 5, 45, 100
7, 73920, Note_off_c, 5, 45, 64
7, 73920, Note_off_c, 5, 52, 64
7, 73920, Note_on_c, 5, 55, 100
7, 73920, Note_on_c, 5, 45, 100
7, 74160, Note_off_c, 5, 45, 64
7, 74160, Note_off_c, 5, 55, 64
7, 74160, Note_on_c, 5, 55, 100
7, 74160, Note_on_c, 5, 45, 100
7, 74400, Note_off_c, 5, 45, 64
7, 74400, Note_off_c, 5, 55, 64
7, 74400, Note_on_c, 5, 54, 100
7, 74400, Note_on_c, 5, 45, 100
7, 74640, Note_off_c, 5, 45, 64
7, 74640, Note_off_c, 5, 54, 64
7, 74640, Note_on_c, 5, 52, 100
7, 74640, Note_on_c, 5, 45, 100
7, 74880, Note_off_c, 5, 45, 64
7, 74880, Note_off_c, 5, 52, 64
7, 74880, Note_on_c, 5, 52, 100
7, 75120, Note_off_c, 5, 52, 64
7, 75120, Note_on_c, 5, 52, 100
7, 75120, Note_on_c, 5, 56, 100
7, 75120, Note_on_c, 5, 62, 100
7, 75120, Note_on_c, 5, 64, 100
7, 75600, Note_off_c, 5, 64, 64
7, 75600, Note_off_c, 5, 62, 64
7, 75600, Note_off_c, 5, 56, 64
7, 75600, Note_off_c, 5, 52, 64
7, 75600, Note_on_c, 5, 52, 100
7, 75840, Note_off_c, 5, 52, 64
7, 75840, Note_on_c, 5, 52, 100
7, 75840, Note_on_c, 5, 56, 100
7, 75840, Note_on_c, 5, 62, 100
7, 75840, Note_on_c, 5, 64, 100
7, 76080, Note_off_c, 5, 64, 64
7, 76080, Note_off_c, 5, 62, 64
7, 76080, Note_off_c, 5, 56, 64
7, 76080, Note_off_c, 5, 52, 64
7, 76080, Note_on_c, 5, 52, 100
7, 76080, Note_on_c, 5, 56, 100
7, 76080, Note_on_c, 5, 62, 100
7, 76080, Note_on_c, 5, 64, 100
7, 76320, Note_off_c, 5, 64, 64
7, 76320, Note_off_c, 5, 62, 64
7, 76320, Note_off_c, 5, 56, 64
7, 76320, Note_off_c, 5, 52, 64
7, 76320, Note_on_c, 5, 52, 100
7, 76320, Note_on_c, 5, 56, 100
7, 76320, Note_on_c, 5, 62, 100
7, 76320, Note_on_c, 5, 64, 100
7, 76560, Note_off_c, 5, 64, 64
7, 76560, Note_off_c, 5, 62, 64
7, 76560, Note_off_c, 5, 56, 64
7, 76560, Note_off_c, 5, 52, 64
7, 76560, Note_on_c, 5, 52, 100
7, 76560, Note_on_c, 5, 56, 100
7, 76560, Note_on_c, 5, 62, 100
7, 76560, Note_on_c, 5, 64, 100
7, 76800, Note_off_c, 5, 64, 64
7, 76800, Note_off_c, 5, 62, 64
7, 76800, Note_off_c, 5, 56, 64
7, 76800, Note_off_c, 5, 52, 64
7, 76800, Note_on_c, 5, 52, 100
7, 77040, Note_off_c, 5, 52, 64
7, 77040, Note_on_c, 5, 52, 100
7, 77040, Note_on_c, 5, 56, 100
7, 77040, Note_on_c, 5, 62, 100
7, 77040, Note_on_c, 5, 64, 100
7, 77520, Note_off_c, 5, 64, 64
7, 77520, Note_off_c, 5, 62, 64
7, 77520, Note_off_c, 5, 56, 64
7, 77520, Note_off_c, 5, 52, 64
7, 77520, Note_on_c, 5, 52, 100
7, 77760, Note_off_c, 5, 52, 64
7, 77760, Note_on_c, 5, 52, 100
7, 77760, Note_on_c, 5, 56, 100
7, 77760, Note_on_c, 5, 62, 100
7, 77760, Note_on_c, 5, 64, 100
7, 78000, Note_off_c, 5, 64, 64
7, 78000, Note_off_c, 5, 62, 64
7, 78000, Note_off_c, 5, 56, 64
7, 78000, Note_off_c, 5, 52, 64
7, 78000, Note_on_c, 5, 52, 100
7, 78000, Note_on_c, 5, 56, 100
7, 78000, Note_on_c, 5, 62, 100
7, 78000, Note_on_c, 5, 64, 100
7, 78240, Note_off_c, 5, 64, 64
7, 78240, Note_off_c, 5, 62, 64
7, 78240, Note_off_c, 5, 56, 64
7, 78240, Note_off_c, 5, 52, 64
7, 78240, Note_on_c, 5, 52, 100
7, 78240, Note_on_c, 5, 56, 100
7, 78240, Note_on_c, 5, 62, 100
7, 78240, Note_on_c, 5, 64, 100
7, 78720, Note_off_c, 5, 64, 64
7, 78720, Note_off_c, 5, 62, 64
7, 78720, Note_off_c, 5, 56, 64
7, 78720, Note_off_c, 5, 52, 64
7, 78720, Note_on_c, 5, 69, 100
7, 78720, Note_on_c, 5, 64, 100
7, 78960, Note_off_c, 5, 64, 64
7, 78960, Note_off_c, 5, 69, 64
7, 78960, Note_on_c, 5, 69, 100
7, 78960, Note_on_c, 5, 64, 100
7, 79200, Note_off_c, 5, 64, 64
7, 79200, Note_off_c, 5, 69, 64
7, 79200, Note_on_c, 5, 69, 100
7, 79200, Note_on_c, 5, 64, 100
7, 79440, Note_off_c, 5, 64, 64
7, 79440, Note_off_c, 5, 69, 64
7, 79440, Note_on_c, 5, 69, 100
7, 79440, Note_on_c, 5, 64, 100
7, 79680, Note_off_c, 5, 64, 64
7, 79680, Note_off_c, 5, 69, 64
7, 79680, Note_on_c, 5, 69, 100
7, 79680, Note_on_c, 5, 64, 100
7, 79920, Note_off_c, 5, 64, 64
7, 79920, Note_off_c, 5, 69, 64
7, 79920, Note_on_c, 5, 69, 100
7, 79920, Note_on_c, 5, 64, 100
7, 80160, Note_off_c, 5, 64, 64
7, 80160, Note_off_c, 5, 69, 64
7, 80160, Note_on_c, 5, 69, 100
7, 80160, Note_on_c, 5, 64, 100
7, 80400, Note_off_c, 5, 64, 64
7, 80400, Note_off_c, 5, 69, 64
7, 80400, Note_on_c, 5, 62, 100
7, 80580, Note_on_c, 5, 66, 100
7, 80580, Note_on_c, 5, 63, 100
7, 80640, Note_off_c, 5, 63, 64
7, 80640, Note_off_c, 5, 66, 64
7, 80640, Note_off_c, 5, 62, 64
7, 80640, Note_on_c, 5, 64, 100
7, 80640, Note_on_c, 5, 67, 100
7, 80640, Note_on_c, 5, 73, 100
7, 81120, Note_off_c, 5, 73, 64
7, 81120, Note_off_c, 5, 67, 64
7, 81120, Note_off_c, 5, 64, 64
7, 81120, Note_on_c, 5, 50, 100
7, 81300, Note_on_c, 5, 66, 100
7, 81300, Note_on_c, 5, 63, 100
7, 81360, Note_off_c, 5, 63, 64
7, 81360, Note_off_c, 5, 66, 64
7, 81360, Note_off_c, 5, 50, 64
7, 81360, Note_on_c, 5, 64, 100
7, 81360, Note_on_c, 5, 67, 100
7, 81360, Note_on_c, 5, 73, 100
7, 81840, Note_off_c, 5, 73, 64
7, 81840, Note_off_c, 5, 67, 64
7, 81840, Note_off_c, 5, 64, 64
7, 81840, Note_on_c, 5, 50, 100
7, 82080, Note_off_c, 5, 50, 64
7, 82080, Note_on_c, 5, 50, 100
7, 82260, Note_on_c, 5, 66, 100
7, 82260, Note_on_c, 5, 63, 100
7, 82320, Note_off_c, 5, 63, 64
7, 82320, Note_off_c, 5, 66, 64
7, 82320, Note_off_c, 5, 50, 64
7, 82320, Note_on_c, 5, 64, 100
7, 82320, Note_on_c, 5, 67, 100
7, 82320, Note_on_c, 5, 73, 100
7, 82800, Note_off_c, 5, 73, 64
7, 82800, Note_off_c, 5, 67, 64
7, 82800, Note_off_c, 5, 64, 64
7, 82800, Note_on_c, 5, 50, 100
7, 82980, Note_on_c, 5, 66, 100
7, 82980, Note_on_c, 5, 63, 100
7, 83040, Note_off_c, 5, 63, 64
7, 83040, Note_off_c, 5, 66, 64
7, 83040, Note_off_c, 5, 50, 64
7, 83040, Note_on_c, 5, 64, 100
7, 83040, Note_on_c, 5, 67, 100
7, 83040, Note_on_c, 5, 73, 100
7, 83280, Note_off_c, 5, 73, 64
7, 83280, Note_off_c, 5, 67, 64
7, 83280, Note_off_c, 5, 64, 64
7, 83280, Note_on_c, 5, 50, 100
7, 83460, Note_on_c, 5, 66, 100
7, 83460, Note_on_c, 5, 63, 100
7, 83520, Note_off_c, 5, 63, 64
7, 83520, Note_off_c, 5, 66, 64
7, 83520, Note_off_c, 5, 50, 64
7, 83520, Note_on_c, 5, 64, 100
7, 83520, Note_on_c, 5, 67, 100
7, 83520, Note_on_c, 5, 73, 100
7, 83700, Note_on_c, 5, 66, 100
7, 83700, Note_on_c, 5, 63, 100
7, 83760, Note_off_c, 5, 63, 64
7, 83760, Note_off_c, 5, 66, 64
7, 83760, Note_off_c, 5, 73, 64
7, 83760, Note_off_c, 5, 67, 64
7, 83760, Note_off_c, 5, 64, 64
7, 83760, Note_on_c, 5, 64, 100
7, 83760, Note_on_c, 5, 67, 100
7, 83760, Note_on_c, 5, 73, 100
7, 83940, Note_on_c, 5, 66, 100
7, 83940, Note_on_c, 5, 63, 100
7, 84000, Note_off_c, 5, 63, 64
7, 84000, Note_off_c, 5, 66, 64
7, 84000, Note_off_c, 5, 73, 64
7, 84000, Note_off_c, 5, 67, 64
7, 84000, Note_off_c, 5, 64, 64
7, 84000, Note_on_c, 5, 64, 100
7, 84000, Note_on_c, 5, 67, 100
7, 84000, Note_on_c, 5, 73, 100
7, 84180, Note_on_c, 5, 66, 100
7, 84180, Note_on_c, 5, 63, 100
7, 84240, Note_off_c, 5, 63, 64
7, 84240, Note_off_c, 5, 66, 64
7, 84240, Note_off_c, 5, 73, 64
7, 84240, Note_off_c, 5, 67, 64
7, 84240, Note_off_c, 5, 64, 64
7, 84240, Note_on_c, 5, 64, 100
7, 84240, Note_on_c, 5, 67, 100
7, 84240, Note_on_c, 5, 73, 100
7, 84480, Note_off_c, 5, 73, 64
7, 84480, Note_off_c, 5, 67, 64
7, 84480, Note_off_c, 5, 64, 64
7, 84480, Note_on_c, 5, 69, 100
7, 84480, Note_on_c, 5, 64, 100
7, 84720, Note_off_c, 5, 64, 64
7, 84720, Note_off_c, 5, 69, 64
7, 84720, Note_on_c, 5, 69, 100
7, 84720, Note_on_c, 5, 64, 100
7, 84840, Note_on_c, 5, 62, 100
7, 84900, Note_off_c, 5, 62, 64
7, 84900, Note_on_c, 5, 63, 100
7, 84960, Note_off_c, 5, 64, 64
7, 84960, Note_off_c, 5, 69, 64
7, 84960, Note_off_c, 5, 63, 64
7, 84960, Note_on_c, 5, 64, 100
7, 85200, Note_off_c, 5, 64, 64
7, 85200, Note_on_c, 5, 69, 100
7, 85200, Note_on_c, 5, 64, 100
7, 85440, Note_off_c, 5, 64, 64
7, 85440, Note_off_c, 5, 69, 64
7, 85440, Note_on_c, 5, 69, 100
7, 85440, Note_on_c, 5, 64, 100
7, 85680, Note_off_c, 5, 64, 64
7, 85680, Note_off_c, 5, 69, 64
7, 85680, Note_on_c, 5, 69, 100
7, 85680, Note_on_c, 5, 64, 100
7, 85920, Note_off_c, 5, 64, 64
7, 85920, Note_off_c, 5, 69, 64
7, 85920, Note_on_c, 5, 69, 100
7, 85920, Note_on_c, 5, 64, 100
7, 86160, Note_off_c, 5, 64, 64
7, 86160, Note_off_c, 5, 69, 64
7, 86160, Note_on_c, 5, 69, 100
7, 86160, Note_on_c, 5, 64, 100
7, 86400, Note_off_c, 5, 64, 64
7, 86400, Note_off_c, 5, 69, 64
7, 86400, Note_on_c, 5, 72, 100
7, 86640, Note_off_c, 5, 72, 64
7, 86640, Note_on_c, 5, 69, 100
7, 86880, Note_off_c, 5, 69, 64
7, 86880, Note_on_c, 5, 67, 100
7, 87120, Note_off_c, 5, 67, 64
7, 87120, Note_on_c, 5, 64, 100
7, 87240, Note_on_c, 5, 62, 100
7, 87300, Note_off_c, 5, 62, 64
7, 87300, Note_on_c, 5, 63, 100
7, 87360, Note_off_c, 5, 64, 64
7, 87360, Note_off_c, 5, 63, 64
7, 87360, Note_on_c, 5, 64, 100
7, 87360, Note_on_c, 5, 67, 100
7, 87600, Note_off_c, 5, 67, 64
7, 87600, Note_off_c, 5, 64, 64
7, 87600, Note_on_c, 5, 67, 100
7, 87840, Note_off_c, 5, 67, 64
7, 87840, Note_on_c, 5, 62, 100
7, 88080, Note_off_c, 5, 62, 64
7, 88080, Note_on_c, 5, 60, 100
7, 88320, Note_off_c, 5, 60, 64
7, 88320, Note_on_c, 5, 62, 100
7, 88440, Note_on_c, 5, 62, 100
7, 88500, Note_off_c, 5, 62, 64
7, 88500, Note_on_c, 5, 63, 100
7, 88560, Note_off_c, 5, 62, 64
7, 88560, Note_off_c, 5, 63, 64
7, 88560, Note_on_c, 5, 64, 100
7, 88560, Note_on_c, 5, 64, 100
7, 88560, Note_on_c, 5, 69, 100
7, 88800, Note_off_c, 5, 69, 64
7, 88800, Note_off_c, 5, 64, 64
7, 88800, Note_off_c, 5, 64, 64
7, 88920, Note_on_c, 5, 62, 100
7, 88980, Note_off_c, 5, 62, 64
7, 88980, Note_on_c, 5, 63, 100
7, 89040, Note_off_c, 5, 63, 64
7, 89040, Note_on_c, 5, 64, 100
7, 89040, Note_on_c, 5, 64, 100
7, 89040, Note_on_c, 5, 69, 100
7, 89160, Note_on_c, 5, 62, 100
7, 89220, Note_off_c, 5, 62, 64
7, 89220, Note_on_c, 5, 63, 100
7, 89280, Note_off_c, 5, 69, 64
7, 89280, Note_off_c, 5, 64, 64
7, 89280, Note_off_c, 5, 64, 64
7, 89280, Note_off_c, 5, 63, 64
7, 89280, Note_on_c, 5, 64, 100
7, 89280, Note_on_c, 5, 64, 100
7, 89280, Note_on_c, 5, 69, 100
7, 89520, Note_off_c, 5, 69, 64
7, 89520, Note_off_c, 5, 64, 64
7, 89520, Note_off_c, 5, 64, 64
7, 89520, Note_on_c, 5, 69, 100
7, 89520, Note_on_c, 5, 64, 100
7, 89760, Note_off_c, 5, 64, 64
7, 89760, Note_off_c, 5, 69, 64
7, 89760, Note_on_c, 5, 62, 100
7, 90000, Note_off_c, 5, 62, 64
7, 90000, Note_on_c, 5, 60, 100
7, 90240, Note_off_c, 5, 60, 64
7, 90240, Note_on_c, 5, 61, 100
7, 90240, Note_on_c, 5, 64, 100
7, 90240, Note_on_c, 5, 69, 100
7, 90480, Note_off_c, 5, 69, 64
7, 90480, Note_off_c, 5, 64, 64
7, 90480, Note_off_c, 5, 61, 64
7, 90480, Note_on_c, 5, 57, 100
7, 90720, Note_off_c, 5, 57, 64
7, 90720, Note_on_c, 5, 62, 100
7, 90720, Note_on_c, 5, 66, 100
7, 90960, Note_off_c, 5, 66, 64
7, 90960, Note_off_c, 5, 62, 64
7, 90960, Note_on_c, 5, 60, 100
7, 90960, Note_on_c, 5, 64, 100
7, 91200, Note_off_c, 5, 64, 64
7, 91200, Note_off_c, 5, 60, 64
7, 91200, Note_on_c, 5, 61, 100
7, 91200, Note_on_c, 5, 64, 100
7, 91200, Note_on_c, 5, 69, 100
7, 91440, Note_off_c, 5, 69, 64
7, 91440, Note_off_c, 5, 64, 64
7, 91440, Note_off_c, 5, 61, 64
7, 91440, Note_on_c, 5, 57, 100
7, 91680, Note_off_c, 5, 57, 64
7, 91680, Note_on_c, 5, 62, 100
7, 91800, Note_on_c, 5, 62, 100
7, 91860, Note_off_c, 5, 62, 64
7, 91860, Note_on_c, 5, 63, 100
7, 91920, Note_off_c, 5, 62, 64
7, 91920, Note_off_c, 5, 63, 64
7, 91920, Note_on_c, 5, 64, 100
7, 92400, Note_off_c, 5, 64, 64
7, 92400, Note_on_c, 5, 69, 100
7, 92640, Note_off_c, 5, 69, 64
7, 92640, Note_on_c, 5, 62, 100
7, 92880, Note_off_c, 5, 62, 64
7, 92880, Note_on_c, 5, 60, 100
7, 93120, Note_off_c, 5, 60, 64
7, 93120, Note_on_c, 5, 62, 100
7, 93360, Note_off_c, 5, 62, 64
7, 93360, Note_on_c, 5, 64, 100
7, 93600, Note_off_c, 5, 64, 64
7, 93600, Note_on_c, 5, 69, 100
7, 93600, Note_on_c, 5, 64, 100
7, 93840, Note_off_c, 5, 64, 64
7, 93840, Note_off_c, 5, 69, 64
7, 93840, Note_on_c, 5, 69, 100
7, 93840, Note_on_c, 5, 64, 100
7, 94080, Note_off_c, 5, 64, 64
7, 94080, Note_off_c, 5, 69, 64
7, 94080, Note_on_c, 5, 72, 100
7, 94080, Note_on_c, 5, 67, 100
7, 94320, Note_off_c, 5, 67, 64
7, 94320, Note_off_c, 5, 72, 64
7, 94320, Note_on_c, 5, 71, 100
7, 94320, Note_on_c, 5, 66, 100
7, 94560, Note_off_c, 5, 66, 64
7, 94560, Note_off_c, 5, 71, 64
7, 94560, Note_on_c, 5, 69, 100
7, 94560, Note_on_c, 5, 64, 100
7, 94800, Note_off_c, 5, 64, 64
7, 94800, Note_off_c, 5, 69, 64
7, 94800, Note_on_c, 5, 63, 100
7, 94800, Note_on_c, 5, 67, 100
7, 95040, Note_off_c, 5, 67, 64
7, 95040, Note_off_c, 5, 63, 64
7, 95040, Note_on_c, 5, 62, 100
7, 95040, Note_on_c, 5, 66, 100
7, 95280, Note_off_c, 5, 66, 64
7, 95280, Note_off_c, 5, 62, 64
7, 95280, Note_on_c, 5, 61, 100
7, 95280, Note_on_c, 5, 64, 100
7, 95520, Note_off_c, 5, 64, 64
7, 95520, Note_off_c, 5, 61, 64
7, 95520, Note_on_c, 5, 57, 100
7, 95760, Note_off_c, 5, 57, 64
7, 95760, Note_on_c, 5, 61, 100
7, 95760, Note_on_c, 5, 64, 100
7, 95760, Note_on_c, 5, 69, 100
7, 96000, Note_off_c, 5, 69, 64
7, 96000, Note_off_c, 5, 64, 64
7, 96000, Note_off_c, 5, 61, 64
7, 96000, Note_on_c, 5, 64, 100
7, 96000, Note_on_c, 5, 64, 100
7, 96240, Note_off_c, 5, 64, 64
7, 96240, Note_off_c, 5, 64, 64
7, 96240, Note_on_c, 5, 69, 100
7, 96240, Note_on_c, 5, 64, 100
7, 96480, Note_off_c, 5, 64, 64
7, 96480, Note_off_c, 5, 69, 64
7, 96480, Note_on_c, 5, 69, 100
7, 96480, Note_on_c, 5, 64, 100
7, 96600, Note_on_c, 5, 62, 100
7, 96660, Note_off_c, 5, 62, 64
7, 96660, Note_on_c, 5, 63, 100
7, 96720, Note_off_c, 5, 64, 64
7, 96720, Note_off_c, 5, 69, 64
7, 96720, Note_off_c, 5, 63, 64
7, 96720, Note_on_c, 5, 64, 100
7, 96960, Note_off_c, 5, 64, 64
7, 96960, Note_on_c, 5, 69, 100
7, 96960, Note_on_c, 5, 64, 100
7, 97200, Note_off_c, 5, 64, 64
7, 97200, Note_off_c, 5, 69, 64
7, 97200, Note_on_c, 5, 69, 100
7, 97200, Note_on_c, 5, 64, 100
7, 97440, Note_off_c, 5, 64, 64
7, 97440, Note_off_c, 5, 69, 64
7, 97440, Note_on_c, 5, 62, 100
7, 97680, Note_off_c, 5, 62, 64
7, 97680, Note_on_c, 5, 60, 100
7, 97920, Note_off_c, 5, 60, 64
7, 97920, Note_on_c, 5, 61, 100
7, 97920, Note_on_c, 5, 64, 100
7, 97920, Note_on_c, 5, 69, 100
7, 98160, Note_off_c, 5, 69, 64
7, 98160, Note_off_c, 5, 64, 64
7, 98160, Note_off_c, 5, 61, 64
7, 98160, Note_on_c, 5, 57, 100
7, 98160, Note_on_c, 5, 61, 100
7, 98400, Note_off_c, 5, 61, 64
7, 98400, Note_off_c, 5, 57, 64
7, 98400, Note_on_c, 5, 66, 100
7, 98400, Note_on_c, 5, 62, 100
7, 98640, Note_off_c, 5, 62, 64
7, 98640, Note_off_c, 5, 66, 64
7, 98640, Note_on_c, 5, 69, 100
7, 98640, Note_on_c, 5, 64, 100
7, 98640, Note_on_c, 5, 60, 100
7, 98880, Note_off_c, 5, 60, 64
7, 98880, Note_off_c, 5, 64, 64
7, 98880, Note_off_c, 5, 69, 64
7, 98880, Note_on_c, 5, 61, 100
7, 99120, Note_off_c, 5, 61, 64
7, 99120, Note_on_c, 5, 61, 100
7, 99360, Note_off_c, 5, 61, 64
7, 99360, Note_on_c, 5, 66, 100
7, 99360, Note_on_c, 5, 62, 100
7, 99600, Note_off_c, 5, 62, 64
7, 99600, Note_off_c, 5, 66, 64
7, 99600, Note_on_c, 5, 69, 100
7, 99600, Note_on_c, 5, 64, 100
7, 99600, Note_on_c, 5, 60, 100
7, 99840, Note_off_c, 5, 60, 64
7, 99840, Note_off_c, 5, 64, 64
7, 99840, Note_off_c, 5, 69, 64
7, 99840, Note_on_c, 5, 61, 100
7, 100080, Note_off_c, 5, 61, 64
7, 100080, Note_on_c, 5, 57, 100
7, 100320, Note_off_c, 5, 57, 64
7, 100320, Note_on_c, 5, 52, 100
7, 100320, Note_on_c, 5, 56, 100
7, 100320, Note_on_c, 5, 62, 100
7, 100560, Note_off_c, 5, 62, 64
7, 100560, Note_off_c, 5, 56, 64
7, 100560, Note_off_c, 5, 52, 64
7, 100560, Note_on_c, 5, 52, 100
7, 100560, Note_on_c, 5, 56, 100
7, 100560, Note_on_c, 5, 62, 100
7, 100800, Note_off_c, 5, 62, 64
7, 100800, Note_off_c, 5, 56, 64
7, 100800, Note_off_c, 5, 52, 64
7, 100980, Note_on_c, 5, 72, 100
7, 100980, Note_on_c, 5, 67, 100
7, 100980, Note_on_c, 5, 63, 100
7, 101040, Note_off_c, 5, 63, 64
7, 101040, Note_off_c, 5, 67, 64
7, 101040, Note_off_c, 5, 72, 64
7, 101040, Note_on_c, 5, 73, 100
7, 101040, Note_on_c, 5, 68, 100
7, 101040, Note_on_c, 5, 64, 100
7, 101280, Note_off_c, 5, 64, 64
7, 101280, Note_off_c, 5, 68, 64
7, 101280, Note_off_c, 5, 73, 64
7, 101520, Note_on_c, 5, 50, 100
7, 101700, Note_on_c, 5, 72, 100
7, 101700, Note_on_c, 5, 67, 100
7, 101700, Note_on_c, 5, 63, 100
7, 101760, Note_off_c, 5, 63, 64
7, 101760, Note_off_c, 5, 67, 64
7, 101760, Note_off_c, 5, 72, 64
7, 101760, Note_off_c, 5, 50, 64
7, 101760, Note_on_c, 5, 64, 100
7, 101760, Note_on_c, 5, 68, 100
7, 101760, Note_on_c, 5, 73, 100
7, 102240, Note_off_c, 5, 73, 64
7, 102240, Note_off_c, 5, 68, 64
7, 102240, Note_off_c, 5, 64, 64
7, 102240, Note_on_c, 5, 50, 100
7, 102420, Note_on_c, 5, 63, 100
7, 102420, Note_on_c, 5, 67, 100
7, 102420, Note_on_c, 5, 72, 100
7, 102480, Note_off_c, 5, 72, 64
7, 102480, Note_off_c, 5, 67, 64
7, 102480, Note_off_c, 5, 63, 64
7, 102480, Note_off_c, 5, 50, 64
7, 102480, Note_on_c, 5, 64, 100
7, 102480, Note_on_c, 5, 68, 100
7, 102480, Note_on_c, 5, 73, 100
7, 102720, Note_off_c, 5, 73, 64
7, 102720, Note_off_c, 5, 68, 64
7, 102720, Note_off_c, 5, 64, 64
7, 102960, Note_on_c, 5, 50, 100
7, 103200, Note_off_c, 5, 50, 64
7, 103200, Note_on_c, 5, 50, 100
7, 103380, Note_on_c, 5, 72, 100
7, 103380, Note_on_c, 5, 67, 100
7, 103380, Note_on_c, 5, 63, 100
7, 103440, Note_off_c, 5, 63, 64
7, 103440, Note_off_c, 5, 67, 64
7, 103440, Note_off_c, 5, 72, 64
7, 103440, Note_off_c, 5, 50, 64
7, 103440, Note_on_c, 5, 64, 100
7, 103440, Note_on_c, 5, 68, 100
7, 103440, Note_on_c, 5, 73, 100
7, 103680, Note_off_c, 5, 73, 64
7, 103680, Note_off_c, 5, 68, 64
7, 103680, Note_off_c, 5, 64, 64
7, 103920, Note_on_c, 5, 50, 100
7, 104100, Note_on_c, 5, 72, 100
7, 104100, Note_on_c, 5, 67, 100
7, 104100, Note_on_c, 5, 63, 100
7, 104160, Note_off_c, 5, 63, 64
7, 104160, Note_off_c, 5, 67, 64
7, 104160, Note_off_c, 5, 72, 64
7, 104160, Note_off_c, 5, 50, 64
7, 104160, Note_on_c, 5, 64, 100
7, 104160, Note_on_c, 5, 68, 100
7, 104160, Note_on_c, 5, 73, 100
7, 104400, Note_off_c, 5, 73, 64
7, 104400, Note_off_c, 5, 68, 64
7, 104400, Note_off_c, 5, 64, 64
7, 104400, Note_on_c, 5, 50, 100
7, 104580, Note_on_c, 5, 72, 100
7, 104580, Note_on_c, 5, 67, 100
7, 104580, Note_on_c, 5, 63, 100
7, 104640, Note_off_c, 5, 63, 64
7, 104640, Note_off_c, 5, 67, 64
7, 104640, Note_off_c, 5, 72, 64
7, 104640, Note_off_c, 5, 50, 64
7, 104640, Note_on_c, 5, 64, 100
7, 104640, Note_on_c, 5, 68, 100
7, 104640, Note_on_c, 5, 73, 100
7, 104820, Note_on_c, 5, 72, 100
7, 104820, Note_on_c, 5, 67, 100
7, 104820, Note_on_c, 5, 63, 100
7, 104880, Note_off_c, 5, 63, 64
7, 104880, Note_off_c, 5, 67, 64
7, 104880, Note_off_c, 5, 72, 64
7, 104880, Note_off_c, 5, 73, 64
7, 104880, Note_off_c, 5, 68, 64
7, 104880, Note_off_c, 5, 64, 64
7, 104880, Note_on_c, 5, 64, 100
7, 104880, Note_on_c, 5, 68, 100
7, 104880, Note_on_c, 5, 73, 100
7, 105120, Note_off_c, 5, 73, 64
7, 105120, Note_off_c, 5, 68, 64
7, 105120, Note_off_c, 5, 64, 64
7, 105120, Note_on_c, 5, 50, 100
7, 105360, Note_off_c, 5, 50, 64
7, 105360, Note_on_c, 5, 50, 100
7, 105540, Note_on_c, 5, 72, 100
7, 105540, Note_on_c, 5, 67, 100
7, 105540, Note_on_c, 5, 63, 100
7, 105600, Note_off_c, 5, 63, 64
7, 105600, Note_off_c, 5, 67, 64
7, 105600, Note_off_c, 5, 72, 64
7, 105600, Note_off_c, 5, 50, 64
7, 105600, Note_on_c, 5, 64, 100
7, 105600, Note_on_c, 5, 68, 100
7, 105600, Note_on_c, 5, 73, 100
7, 106080, Note_off_c, 5, 73, 64
7, 106080, Note_off_c, 5, 68, 64
7, 106080, Note_off_c, 5, 64, 64
7, 106080, Note_on_c, 5, 50, 100
7, 106260, Note_on_c, 5, 72, 100
7, 106260, Note_on_c, 5, 67, 100
7, 106260, Note_on_c, 5, 63, 100
7, 106320, Note_off_c, 5, 63, 64
7, 106320, Note_off_c, 5, 67, 64
7, 106320, Note_off_c, 5, 72, 64
7, 106320, Note_off_c, 5, 50, 64
7, 106320, Note_on_c, 5, 73, 100
7, 106320, Note_on_c, 5, 68, 100
7, 106320, Note_on_c, 5, 64, 100
7, 106560, Note_off_c, 5, 64, 64
7, 106560, Note_off_c, 5, 68, 64
7, 106560, Note_off_c, 5, 73, 64
7, 106560, Note_on_c, 5, 50, 100
7, 106800, Note_off_c, 5, 50, 64
7, 107280, Note_on_c, 5, 66, 100
7, 107280, Note_on_c, 5, 71, 100
7, 107280, Note_on_c, 5, 76, 100
7, 107760, Note_off_c, 5, 76, 64
7, 107760, Note_off_c, 5, 71, 64
7, 107760, Note_off_c, 5, 66, 64
7, 107760, Note_on_c, 5, 76, 100
7, 107760, Note_on_c, 5, 71, 100
7, 107760, Note_on_c, 5, 66, 100
7, 108000, Note_off_c, 5, 66, 64
7, 108000, Note_off_c, 5, 71, 64
7, 108000, Note_off_c, 5, 76, 64
7, 108000, Note_on_c, 5, 75, 100
7, 108000, Note_on_c, 5, 70, 100
7, 108000, Note_on_c, 5, 65, 100
7, 108240, Note_off_c, 5, 65, 64
7, 108240, Note_off_c, 5, 70, 64
7, 108240, Note_off_c, 5, 75, 64
7, 108240, Note_on_c, 5, 76, 100
7, 108240, Note_on_c, 5, 71, 100
7, 108240, Note_on_c, 5, 66, 100
7, 108480, Note_off_c, 5, 66, 64
7, 108480, Note_off_c, 5, 71, 64
7, 108480, Note_off_c, 5, 76, 64
7, 108480, Note_on_c, 5, 77, 100
7, 108480, Note_on_c, 5, 72, 100
7, 108480, Note_on_c, 5, 67, 100
7, 108720, Note_off_c, 5, 67, 64
7, 108720, Note_off_c, 5, 72, 64
7, 108720, Note_off_c, 5, 77, 64
7, 108720, Note_on_c, 5, 78, 100
7, 108720, Note_on_c, 5, 73, 100
7, 108720, Note_on_c, 5, 68, 100
7, 108960, Note_off_c, 5, 68, 64
7, 108960, Note_off_c, 5, 73, 64
7, 108960, Note_off_c, 5, 78, 64
7, 108960, Note_on_c, 5, 79, 100
7, 108960, Note_on_c, 5, 74, 100
7, 108960, Note_on_c, 5, 69, 100
7, 109200, Note_off_c, 5, 69, 64
7, 109200, Note_off_c, 5, 74, 64
7, 109200, Note_off_c, 5, 79, 64
7, 109200, Note_on_c, 5, 80, 100
7, 109200, Note_on_c, 5, 75, 100
7, 109200, Note_on_c, 5, 70, 100
7, 109440, Note_off_c, 5, 70, 64
7, 109440, Note_off_c, 5, 75, 64
7, 109440, Note_off_c, 5, 80, 64
7, 109440, Note_on_c, 5, 71, 100
7, 109440, Note_on_c, 5, 76, 100
7, 109440, Note_on_c, 5, 81, 100
7, 109920, Note_off_c, 5, 81, 64
7, 109920, Note_off_c, 5, 76, 64
7, 109920, Note_off_c, 5, 71, 64
7, 109920, Note_on_c, 5, 71, 100
7, 109920, Note_on_c, 5, 76, 100
7, 109920, Note_on_c, 5, 81, 100
7, 110400, Note_off_c, 5, 81, 64
7, 110400, Note_off_c, 5, 76, 64
7, 110400, Note_off_c, 5, 71, 64
7, 110400, Note_on_c, 5, 69, 100
7, 110400, Note_on_c, 5, 74, 100
7, 110400, Note_on_c, 5, 80, 100
7, 110640, Note_off_c, 5, 80, 64
7, 110640, Note_off_c, 5, 74, 64
7, 110640, Note_off_c, 5, 69, 64
7, 110640, Note_on_c, 5, 71, 100
7, 110640, Note_on_c, 5, 76, 100
7, 110640, Note_on_c, 5, 81, 100
7, 111120, Note_off_c, 5, 81, 64
7, 111120, Note_off_c, 5, 76, 64
7, 111120, Note_off_c, 5, 71, 64
7, 111120, Note_on_c, 5, 71, 100
7, 111120, Note_on_c, 5, 76, 100
7, 111120, Note_on_c, 5, 81, 100
7, 111360, Note_off_c, 5, 81, 64
7, 111360, Note_off_c, 5, 76, 64
7, 111360, Note_off_c, 5, 71, 64
7, 111840, Note_on_c, 5, 71, 100
7, 111840, Note_on_c, 5, 76, 100
7, 111840, Note_on_c, 5, 81, 100
7, 112320, Note_off_c, 5, 81, 64
7, 112320, Note_off_c, 5, 76, 64
7, 112320, Note_off_c, 5, 71, 64
7, 112320, Note_on_c, 5, 71, 100
7, 112320, Note_on_c, 5, 76, 100
7, 112320, Note_on_c, 5, 81, 100
7, 112560, Note_off_c, 5, 81, 64
7, 112560, Note_off_c, 5, 76, 64
7, 112560, Note_off_c, 5, 71, 64
7, 112560, Note_on_c, 5, 71, 100
7, 112560, Note_on_c, 5, 76, 100
7, 112560, Note_on_c, 5, 81, 100
7, 112800, Note_off_c, 5, 81, 64
7, 112800, Note_off_c, 5, 76, 64
7, 112800, Note_off_c, 5, 71, 64
7, 113040, Note_on_c, 5, 71, 100
7, 113040, Note_on_c, 5, 73, 100
7, 113040, Note_on_c, 5, 81, 100
7, 113520, Note_off_c, 5, 81, 64
7, 113520, Note_off_c, 5, 73, 64
7, 113520, Note_off_c, 5, 71, 64
7, 113760, Note_on_c, 5, 71, 100
7, 113760, Note_on_c, 5, 73, 100
7, 113760, Note_on_c, 5, 81, 100
7, 114000, Note_off_c, 5, 81, 64
7, 114000, Note_off_c, 5, 73, 64
7, 114000, Note_off_c, 5, 71, 64
7, 114000, Note_on_c, 5, 71, 100
7, 114000, Note_on_c, 5, 73, 100
7, 114000, Note_on_c, 5, 81, 100
7, 114240, Note_off_c, 5, 81, 64
7, 114240, Note_off_c, 5, 73, 64
7, 114240, Note_off_c, 5, 71, 64
7, 114240, Note_on_c, 5, 71, 100
7, 114240, Note_on_c, 5, 73, 100
7, 114240, Note_on_c, 5, 81, 100
7, 114480, Note_off_c, 5, 81, 64
7, 114480, Note_off_c, 5, 73, 64
7, 114480, Note_off_c, 5, 71, 64
7, 114480, Note_on_c, 5, 71, 100
7, 114480, Note_on_c, 5, 73, 100
7, 114480, Note_on_c, 5, 81, 100
7, 114720, Note_off_c, 5, 81, 64
7, 114720, Note_off_c, 5, 73, 64
7, 114720, Note_off_c, 5, 71, 64
7, 114960, Note_on_c, 5, 71, 100
7, 114960, Note_on_c, 5, 73, 100
7, 114960, Note_on_c, 5, 81, 100
7, 115440, Note_off_c, 5, 81, 64
7, 115440, Note_off_c, 5, 73, 64
7, 115440, Note_off_c, 5, 71, 64
7, 115440, Note_on_c, 5, 69, 100
7, 115440, Note_on_c, 5, 64, 100
7, 115680, Note_off_c, 5, 64, 64
7, 115680, Note_off_c, 5, 69, 64
7, 115680, Note_on_c, 5, 69, 100
7, 115680, Note_on_c, 5, 64, 100
7, 115920, Note_off_c, 5, 64, 64
7, 115920, Note_off_c, 5, 69, 64
7, 115920, Note_on_c, 5, 69, 100
7, 115920, Note_on_c, 5, 64, 100
7, 116040, Note_on_c, 5, 62, 100
7, 116100, Note_off_c, 5, 62, 64
7, 116100, Note_on_c, 5, 63, 100
7, 116160, Note_off_c, 5, 64, 64
7, 116160, Note_off_c, 5, 69, 64
7, 116160, Note_off_c, 5, 63, 64
7, 116160, Note_on_c, 5, 64, 100
7, 116400, Note_off_c, 5, 64, 64
7, 116400, Note_on_c, 5, 69, 100
7, 116400, Note_on_c, 5, 64, 100
7, 116640, Note_off_c, 5, 64, 64
7, 116640, Note_off_c, 5, 69, 64
7, 116640, Note_on_c, 5, 69, 100
7, 116640, Note_on_c, 5, 64, 100
7, 116880, Note_off_c, 5, 64, 64
7, 116880, Note_off_c, 5, 69, 64
7, 116880, Note_on_c, 5, 69, 100
7, 116880, Note_on_c, 5, 64, 100
7, 117120, Note_off_c, 5, 64, 64
7, 117120, Note_off_c, 5, 69, 64
7, 117120, Note_on_c, 5, 67, 100
7, 117120, Note_on_c, 5, 72, 100
7, 117360, Note_off_c, 5, 72, 64
7, 117360, Note_off_c, 5, 67, 64
7, 117360, Note_on_c, 5, 71, 100
7, 117360, Note_on_c, 5, 66, 100
7, 117600, Note_off_c, 5, 66, 64
7, 117600, Note_off_c, 5, 71, 64
7, 117600, Note_on_c, 5, 69, 100
7, 117600, Note_on_c, 5, 64, 100
7, 117840, Note_off_c, 5, 64, 64
7, 117840, Note_off_c, 5, 69, 64
7, 117840, Note_on_c, 5, 67, 100
7, 117840, Note_on_c, 5, 63, 100
7, 118080, Note_off_c, 5, 63, 64
7, 118080, Note_off_c, 5, 67, 64
7, 118080, Note_on_c, 5, 66, 100
7, 118080, Note_on_c, 5, 62, 100
7, 118320, Note_off_c, 5, 62, 64
7, 118320, Note_off_c, 5, 66, 64
7, 118320, Note_on_c, 5, 64, 100
7, 118320, Note_on_c, 5, 60, 100
7, 118560, Note_off_c, 5, 60, 64
7, 118560, Note_off_c, 5, 64, 64
7, 118560, Note_on_c, 5, 57, 100
7, 118800, Note_off_c, 5, 57, 64
7, 118800, Note_on_c, 5, 64, 100
7, 118800, Note_on_c, 5, 60, 100
7, 119040, Note_off_c, 5, 60, 64
7, 119040, Note_off_c, 5, 64, 64
7, 119040, Note_on_c, 5, 57, 100
7, 119160, Note_on_c, 5, 62, 100
7, 119220, Note_off_c, 5, 62, 64
7, 119220, Note_on_c, 5, 63, 100
7, 119280, Note_off_c, 5, 57, 64
7, 119280, Note_off_c, 5, 63, 64
7, 119280, Note_on_c, 5, 64, 100
7, 119280, Note_on_c, 5, 64, 100
7, 119520, Note_off_c, 5, 64, 64
7, 119520, Note_off_c, 5, 64, 64
7, 119760, Note_on_c, 5, 69, 100
7, 119760, Note_on_c, 5, 64, 100
7, 119880, Note_on_c, 5, 62, 100
7, 119940, Note_off_c, 5, 62, 64
7, 119940, Note_on_c, 5, 63, 100
7, 120000, Note_off_c, 5, 64, 64
7, 120000, Note_off_c, 5, 69, 64
7, 120000, Note_off_c, 5, 63, 64
7, 120000, Note_on_c, 5, 64, 100
7, 120000, Note_on_c, 5, 64, 100
7, 120240, Note_off_c, 5, 64, 64
7, 120240, Note_off_c, 5, 64, 64
7, 120240, Note_on_c, 5, 69, 100
7, 120240, Note_on_c, 5, 64, 100
7, 120480, Note_off_c, 5, 64, 64
7, 120480, Note_off_c, 5, 69, 64
7, 120480, Note_on_c, 5, 62, 100
7, 120480, Note_on_c, 5, 66, 100
7, 120720, Note_off_c, 5, 66, 64
7, 120720, Note_off_c, 5, 62, 64
7, 120720, Note_on_c, 5, 60, 100
7, 120720, Note_on_c, 5, 64, 100
7, 120960, Note_off_c, 5, 64, 64
7, 120960, Note_off_c, 5, 60, 64
7, 120960, Note_on_c, 5, 61, 100
7, 121200, Note_off_c, 5, 61, 64
7, 121200, Note_on_c, 5, 57, 100
7, 121440, Note_off_c, 5, 57, 64
7, 121440, Note_on_c, 5, 62, 100
7, 121440, Note_on_c, 5, 66, 100
7, 121680, Note_off_c, 5, 66, 64
7, 121680, Note_off_c, 5, 62, 64
7, 121680, Note_on_c, 5, 60, 100
7, 121680, Note_on_c, 5, 64, 100
7, 121680, Note_on_c, 5, 69, 100
7, 121920, Note_off_c, 5, 69, 64
7, 121920, Note_off_c, 5, 64, 64
7, 121920, Note_off_c, 5, 60, 64
7, 121920, Note_on_c, 5, 61, 100
7, 122160, Note_off_c, 5, 61, 64
7, 122160, Note_on_c, 5, 57, 100
7, 122400, Note_off_c, 5, 57, 64
7, 122400, Note_on_c, 5, 62, 100
7, 122400, Note_on_c, 5, 66, 100
7, 122640, Note_off_c, 5, 66, 64
7, 122640, Note_off_c, 5, 62, 64
7, 122640, Note_on_c, 5, 60, 100
7, 122640, Note_on_c, 5, 64, 100
7, 122640, Note_on_c, 5, 69, 100
7, 122880, Note_off_c, 5, 69, 64
7, 122880, Note_off_c, 5, 64, 64
7, 122880, Note_off_c, 5, 60, 64
7, 122880, Note_on_c, 5, 60, 100
7, 123120, Note_off_c, 5, 60, 64
7, 123120, Note_on_c, 5, 57, 100
7, 123360, Note_off_c, 5, 57, 64
7, 123360, Note_on_c, 5, 52, 100
7, 123600, Note_off_c, 5, 52, 64
7, 123600, Note_on_c, 5, 64, 100
7, 123600, Note_on_c, 5, 62, 100
7, 123600, Note_on_c, 5, 56, 100
7, 123840, Note_off_c, 5, 56, 64
7, 123840, Note_off_c, 5, 62, 64
7, 123840, Note_off_c, 5, 64, 64
7, 123840, Note_on_c, 5, 45, 100
7, 124080, Note_off_c, 5, 45, 64
7, 124080, Note_on_c, 5, 45, 100
7, 124320, Note_off_c, 5, 45, 64
7, 124320, Note_on_c, 5, 71, 100
7, 124320, Note_on_c, 5, 73, 100
7, 124320, Note_on_c, 5, 81, 100
7, 124560, Note_off_c, 5, 81, 64
7, 124560, Note_off_c, 5, 73, 64
7, 124560, Note_off_c, 5, 71, 64
7, 124560, Note_on_c, 5, 45, 100
7, 124800, Note_off_c, 5, 45, 64
7, 124800, Note_on_c, 5, 45, 100
7, 125040, Note_off_c, 5, 45, 64
7, 125040, Note_on_c, 5, 45, 100
7, 125280, Note_off_c, 5, 45, 64
7, 125280, Note_on_c, 5, 81, 100
7, 125280, Note_on_c, 5, 73, 100
7, 125280, Note_on_c, 5, 71, 100
7, 125520, Note_off_c, 5, 71, 64
7, 125520, Note_off_c, 5, 73, 64
7, 125520, Note_off_c, 5, 81, 64
7, 125520, Note_on_c, 5, 45, 100
7, 125760, Note_off_c, 5, 45, 64
7, 125760, Note_on_c, 5, 81, 100
7, 125760, Note_on_c, 5, 73, 100
7, 125760, Note_on_c, 5, 71, 100
7, 126000, Note_off_c, 5, 71, 64
7, 126000, Note_off_c, 5, 73, 64
7, 126000, Note_off_c, 5, 81, 64
7, 126000, Note_on_c, 5, 71, 100
7, 126000, Note_on_c, 5, 73, 100
7, 126000, Note_on_c, 5, 81, 100
7, 126240, Note_off_c, 5, 81, 64
7, 126240, Note_off_c, 5, 73, 64
7, 126240, Note_off_c, 5, 71, 64
7, 126240, Note_on_c, 5, 45, 100
7, 126480, Note_off_c, 5, 45, 64
7, 126480, Note_on_c, 5, 45, 100
7, 126720, Note_off_c, 5, 45, 64
7, 126720, Note_on_c, 5, 71, 100
7, 126720, Note_on_c, 5, 73, 100
7, 126720, Note_on_c, 5, 81, 100
7, 126960, Note_off_c, 5, 81, 64
7, 126960, Note_off_c, 5, 73, 64
7, 126960, Note_off_c, 5, 71, 64
7, 126960, Note_on_c, 5, 45, 100
7, 127200, Note_off_c, 5, 45, 64
7, 127200, Note_on_c, 5, 45, 100
7, 127440, Note_off_c, 5, 45, 64
7, 127440, Note_on_c, 5, 81, 100
7, 127440, Note_on_c, 5, 73, 100
7, 127440, Note_on_c, 5, 71, 100
7, 127680, Note_off_c, 5, 71, 64
7, 127680, Note_off_c, 5, 73, 64
7, 127680, Note_off_c, 5, 81, 64
7, 127680, Note_on_c, 5, 45, 100
7, 127920, Note_off_c, 5, 45, 64
7, 127920, Note_on_c, 5, 45, 100
7, 128160, Note_off_c, 5, 45, 64
7, 128160, Note_on_c, 5, 81, 100
7, 128160, Note_on_c, 5, 73, 100
7, 128160, Note_on_c, 5, 71, 100
7, 128400, Note_off_c, 5, 71, 64
7, 128400, Note_off_c, 5, 73, 64
7, 128400, Note_off_c, 5, 81, 64
7, 128400, Note_on_c, 5, 81, 100
7, 128400, Note_on_c, 5, 73, 100
7, 128400, Note_on_c, 5, 71, 100
7, 128640, Note_off_c, 5, 71, 64
7, 128640, Note_off_c, 5, 73, 64
7, 128640, Note_off_c, 5, 81, 64
7, 128640, Note_on_c, 5, 45, 100
7, 128880, Note_off_c, 5, 45, 64
7, 128880, Note_on_c, 5, 45, 100
7, 129120, Note_off_c, 5, 45, 64
7, 129120, Note_on_c, 5, 71, 100
7, 129120, Note_on_c, 5, 73, 100
7, 129120, Note_on_c, 5, 81, 100
7, 129360, Note_off_c, 5, 81, 64
7, 129360, Note_off_c, 5, 73, 64
7, 129360, Note_off_c, 5, 71, 64
7, 129360, Note_on_c, 5, 45, 100
7, 129600, Note_off_c, 5, 45, 64
7, 129600, Note_on_c, 5, 71, 100
7, 129600, Note_on_c, 5, 73, 100
7, 129600, Note_on_c, 5, 81, 100
7, 129840, Note_off_c, 5, 81, 64
7, 129840, Note_off_c, 5, 73, 64
7, 129840, Note_off_c, 5, 71, 64
7, 129840, Note_on_c, 5, 71, 100
7, 129840, Note_on_c, 5, 73, 100
7, 129840, Note_on_c, 5, 81, 100
7, 130080, Note_off_c, 5, 81, 64
7, 130080, Note_off_c, 5, 73, 64
7, 130080, Note_off_c, 5, 71, 64
7, 130080, Note_on_c, 5, 45, 100
7, 130320, Note_off_c, 5, 45, 64
7, 130320, Note_on_c, 5, 45, 100
7, 130560, Note_off_c, 5, 45, 64
7, 130560, Note_on_c, 5, 71, 100
7, 130560, Note_on_c, 5, 73, 100
7, 130560, Note_on_c, 5, 81, 100
7, 130800, Note_off_c, 5, 81, 64
7, 130800, Note_off_c, 5, 73, 64
7, 130800, Note_off_c, 5, 71, 64
7, 130800, Note_on_c, 5, 45, 100
7, 131040, Note_off_c, 5, 45, 64
7, 131040, Note_on_c, 5, 45, 100
7, 131280, Note_off_c, 5, 45, 64
7, 131280, Note_on_c, 5, 71, 100
7, 131280, Note_on_c, 5, 73, 100
7, 131280, Note_on_c, 5, 81, 100
7, 131280, Note_on_c, 5, 45, 100
7, 131520, Note_off_c, 5, 45, 64
7, 131520, Note_off_c, 5, 81, 64
7, 131520, Note_off_c, 5, 73, 64
7, 131520, Note_off_c, 5, 71, 64
7, 131520, Note_on_c, 5, 45, 100
7, 131760, Note_off_c, 5, 45, 64
7, 131760, Note_on_c, 5, 45, 100
7, 132000, Note_off_c, 5, 45, 64
7, 132000, Note_on_c, 5, 71, 100
7, 132000, Note_on_c, 5, 73, 100
7, 132000, Note_on_c, 5, 81, 100
7, 132240, Note_off_c, 5, 81, 64
7, 132240, Note_off_c, 5, 73, 64
7, 132240, Note_off_c, 5, 71, 64
7, 132240, Note_on_c, 5, 71, 100
7, 132240, Note_on_c, 5, 73, 100
7, 132240, Note_on_c, 5, 81, 100
7, 132480, Note_off_c, 5, 81, 64
7, 132480, Note_off_c, 5, 73, 64
7, 132480, Note_off_c, 5, 71, 64
7, 132480, Note_on_c, 5, 45, 100
7, 132720, Note_off_c, 5, 45, 64
7, 132720, Note_on_c, 5, 45, 100
7, 132960, Note_off_c, 5, 45, 64
7, 132960, Note_on_c, 5, 71, 100
7, 132960, Note_on_c, 5, 73, 100
7, 132960, Note_on_c, 5, 81, 100
7, 133200, Note_off_c, 5, 81, 64
7, 133200, Note_off_c, 5, 73, 64
7, 133200, Note_off_c, 5, 71, 64
7, 133200, Note_on_c, 5, 71, 100
7, 133200, Note_on_c, 5, 73, 100
7, 133200, Note_on_c, 5, 81, 100
7, 133440, Note_off_c, 5, 81, 64
7, 133440, Note_off_c, 5, 73, 64
7, 133440, Note_off_c, 5, 71, 64
7, 133440, Note_on_c, 5, 70, 100
7, 133440, Note_on_c, 5, 72, 100
7, 133440, Note_on_c, 5, 80, 100
7, 133680, Note_off_c, 5, 80, 64
7, 133680, Note_off_c, 5, 72, 64
7, 133680, Note_off_c, 5, 70, 64
7, 133680, Note_on_c, 5, 71, 100
7, 133680, Note_on_c, 5, 73, 100
7, 133680, Note_on_c, 5, 81, 100
7, 133920, Note_off_c, 5, 81, 64
7, 133920, Note_off_c, 5, 73, 64
7, 133920, Note_off_c, 5, 71, 64
7, 133920, Note_on_c, 5, 45, 100
7, 134160, Note_off_c, 5, 45, 64
7, 134160, Note_on_c, 5, 45, 100
7, 134400, Note_off_c, 5, 45, 64
7, 134400, Note_on_c, 5, 71, 100
7, 134400, Note_on_c, 5, 73, 100
7, 134400, Note_on_c, 5, 81, 100
7, 134640, Note_off_c, 5, 81, 64
7, 134640, Note_off_c, 5, 73, 64
7, 134640, Note_off_c, 5, 71, 64
7, 134640, Note_on_c, 5, 70, 100
7, 134640, Note_on_c, 5, 72, 100
7, 134640, Note_on_c, 5, 80, 100
7, 134880, Note_off_c, 5, 80, 64
7, 134880, Note_off_c, 5, 72, 64
7, 134880, Note_off_c, 5, 70, 64
7, 134880, Note_on_c, 5, 71, 100
7, 134880, Note_on_c, 5, 73, 100
7, 134880, Note_on_c, 5, 81, 100
7, 135120, Note_off_c, 5, 81, 64
7, 135120, Note_off_c, 5, 73, 64
7, 135120, Note_off_c, 5, 71, 64
7, 135120, Note_on_c, 5, 45, 100
7, 135360, Note_off_c, 5, 45, 64
7, 135360, Note_on_c, 5, 70, 100
7, 135360, Note_on_c, 5, 72, 100
7, 135360, Note_on_c, 5, 80, 100
7, 135600, Note_off_c, 5, 80, 64
7, 135600, Note_off_c, 5, 72, 64
7, 135600, Note_off_c, 5, 70, 64
7, 135600, Note_on_c, 5, 71, 100
7, 135600, Note_on_c, 5, 73, 100
7, 135600, Note_on_c, 5, 81, 100
7, 135840, Note_off_c, 5, 81, 64
7, 135840, Note_off_c, 5, 73, 64
7, 135840, Note_off_c, 5, 71, 64
7, 135840, Note_on_c, 5, 70, 100
7, 135840, Note_on_c, 5, 72, 100
7, 135840, Note_on_c, 5, 80, 100
7, 136080, Note_off_c, 5, 80, 64
7, 136080, Note_off_c, 5, 72, 64
7, 136080, Note_off_c, 5, 70, 64
7, 136080, Note_on_c, 5, 71, 100
7, 136080, Note_on_c, 5, 73, 100
7, 136080, Note_on_c, 5, 81, 100
7, 136320, Note_off_c, 5, 81, 64
7, 136320, Note_off_c, 5, 73, 64
7, 136320, Note_off_c, 5, 71, 64
7, 136320, Note_on_c, 5, 45, 100
7, 136560, Note_off_c, 5, 45, 64
7, 136560, Note_on_c, 5, 45, 100
7, 136800, Note_off_c, 5, 45, 64
7, 136800, Note_on_c, 5, 71, 100
7, 136800, Note_on_c, 5, 73, 100
7, 136800, Note_on_c, 5, 81, 100
7, 137040, Note_off_c, 5, 81, 64
7, 137040, Note_off_c, 5, 73, 64
7, 137040, Note_off_c, 5, 71, 64
7, 137040, Note_on_c, 5, 45, 100
7, 137280, Note_off_c, 5, 45, 64
7, 137280, Note_on_c, 5, 71, 100
7, 137280, Note_on_c, 5, 73, 100
7, 137280, Note_on_c, 5, 81, 100
7, 137520, Note_off_c, 5, 81, 64
7, 137520, Note_off_c, 5, 73, 64
7, 137520, Note_off_c, 5, 71, 64
7, 137520, Note_on_c, 5, 71, 100
7, 137520, Note_on_c, 5, 73, 100
7, 137520, Note_on_c, 5, 81, 100
7, 137760, Note_off_c, 5, 81, 64
7, 137760, Note_off_c, 5, 73, 64
7, 137760, Note_off_c, 5, 71, 64
7, 137760, Note_on_c, 5, 45, 100
7, 138000, Note_off_c, 5, 45, 64
7, 138000, Note_on_c, 5, 71, 100
7, 138000, Note_on_c, 5, 73, 100
7, 138000, Note_on_c, 5, 81, 100
7, 138480, Note_off_c, 5, 81, 64
7, 138480, Note_off_c, 5, 73, 64
7, 138480, Note_off_c, 5, 71, 64
7, 138480, Note_on_c, 5, 64, 100
7, 138480, Note_on_c, 5, 69, 100
7, 138720, Note_off_c, 5, 69, 64
7, 138720, Note_off_c, 5, 64, 64
7, 138720, Note_on_c, 5, 64, 100
7, 138720, Note_on_c, 5, 69, 100
7, 138840, Note_on_c, 5, 62, 100
7, 138900, Note_off_c, 5, 62, 64
7, 138900, Note_on_c, 5, 63, 100
7, 138960, Note_off_c, 5, 69, 64
7, 138960, Note_off_c, 5, 64, 64
7, 138960, Note_off_c, 5, 63, 64
7, 138960, Note_on_c, 5, 64, 100
7, 138960, Note_on_c, 5, 64, 100
7, 139440, Note_off_c, 5, 64, 64
7, 139440, Note_off_c, 5, 64, 64
7, 139440, Note_on_c, 5, 69, 100
7, 139440, Note_on_c, 5, 64, 100
7, 139680, Note_off_c, 5, 64, 64
7, 139680, Note_off_c, 5, 69, 64
7, 139680, Note_on_c, 5, 69, 100
7, 139680, Note_on_c, 5, 64, 100
7, 139920, Note_off_c, 5, 64, 64
7, 139920, Note_off_c, 5, 69, 64
7, 139920, Note_on_c, 5, 69, 100
7, 139920, Note_on_c, 5, 64, 100
7, 140160, Note_off_c, 5, 64, 64
7, 140160, Note_off_c, 5, 69, 64
7, 140160, Note_on_c, 5, 67, 100
7, 140160, Note_on_c, 5, 72, 100
7, 140400, Note_off_c, 5, 72, 64
7, 140400, Note_off_c, 5, 67, 64
7, 140400, Note_on_c, 5, 71, 100
7, 140400, Note_on_c, 5, 66, 100
7, 140640, Note_off_c, 5, 66, 64
7, 140640, Note_off_c, 5, 71, 64
7, 140640, Note_on_c, 5, 69, 100
7, 140640, Note_on_c, 5, 64, 100
7, 140880, Note_off_c, 5, 64, 64
7, 140880, Note_off_c, 5, 69, 64
7, 140880, Note_on_c, 5, 67, 100
7, 140880, Note_on_c, 5, 63, 100
7, 141120, Note_off_c, 5, 63, 64
7, 141120, Note_off_c, 5, 67, 64
7, 141120, Note_on_c, 5, 66, 100
7, 141120, Note_on_c, 5, 62, 100
7, 141360, Note_off_c, 5, 62, 64
7, 141360, Note_off_c, 5, 66, 64
7, 141360, Note_on_c, 5, 64, 100
7, 141360, Note_on_c, 5, 60, 100
7, 141600, Note_off_c, 5, 60, 64
7, 141600, Note_off_c, 5, 64, 64
7, 141600, Note_on_c, 5, 57, 100
7, 141840, Note_off_c, 5, 57, 64
7, 141840, Note_on_c, 5, 64, 100
7, 141840, Note_on_c, 5, 60, 100
7, 141960, Note_on_c, 5, 62, 100
7, 142020, Note_off_c, 5, 62, 64
7, 142020, Note_on_c, 5, 63, 100
7, 142080, Note_off_c, 5, 60, 64
7, 142080, Note_off_c, 5, 64, 64
7, 142080, Note_off_c, 5, 63, 64
7, 142080, Note_on_c, 5, 64, 100
7, 142080, Note_on_c, 5, 64, 100
7, 142320, Note_off_c, 5, 64, 64
7, 142320, Note_off_c, 5, 64, 64
7, 142320, Note_on_c, 5, 69, 100
7, 142320, Note_on_c, 5, 64, 100
7, 142560, Note_off_c, 5, 64, 64
7, 142560, Note_off_c, 5, 69, 64
7, 142560, Note_on_c, 5, 69, 100
7, 142560, Note_on_c, 5, 64, 100
7, 142680, Note_on_c, 5, 62, 100
7, 142740, Note_off_c, 5, 62, 64
7, 142740, Note_on_c, 5, 63, 100
7, 142800, Note_off_c, 5, 64, 64
7, 142800, Note_off_c, 5, 69, 64
7, 142800, Note_off_c, 5, 63, 64
7, 142800, Note_on_c, 5, 64, 100
7, 142800, Note_on_c, 5, 64, 100
7, 143040, Note_off_c, 5, 64, 64
7, 143040, Note_off_c, 5, 64, 64
7, 143040, Note_on_c, 5, 69, 100
7, 143040, Note_on_c, 5, 64, 100
7, 143280, Note_off_c, 5, 64, 64
7, 143280, Note_off_c, 5, 69, 64
7, 143280, Note_on_c, 5, 69, 100
7, 143280, Note_on_c, 5, 64, 100
7, 143520, Note_off_c, 5, 64, 64
7, 143520, Note_off_c, 5, 69, 64
7, 143520, Note_on_c, 5, 66, 100
7, 143520, Note_on_c, 5, 62, 100
7, 143760, Note_off_c, 5, 62, 64
7, 143760, Note_off_c, 5, 66, 64
7, 143760, Note_on_c, 5, 64, 100
7, 143760, Note_on_c, 5, 60, 100
7, 144000, Note_off_c, 5, 60, 64
7, 144000, Note_off_c, 5, 64, 64
7, 144000, Note_on_c, 5, 61, 100
7, 144000, Note_on_c, 5, 64, 100
7, 144000, Note_on_c, 5, 69, 100
7, 144240, Note_off_c, 5, 69, 64
7, 144240, Note_off_c, 5, 64, 64
7, 144240, Note_off_c, 5, 61, 64
7, 144240, Note_on_c, 5, 57, 100
7, 144240, Note_on_c, 5, 61, 100
7, 144480, Note_off_c, 5, 61, 64
7, 144480, Note_off_c, 5, 57, 64
7, 144480, Note_on_c, 5, 62, 100
7, 144480, Note_on_c, 5, 66, 100
7, 144720, Note_off_c, 5, 66, 64
7, 144720, Note_off_c, 5, 62, 64
7, 144720, Note_on_c, 5, 60, 100
7, 144720, Note_on_c, 5, 64, 100
7, 144720, Note_on_c, 5, 69, 100
7, 144960, Note_off_c, 5, 69, 64
7, 144960, Note_off_c, 5, 64, 64
7, 144960, Note_off_c, 5, 60, 64
7, 144960, Note_on_c, 5, 61, 100
7, 145200, Note_off_c, 5, 61, 64
7, 145200, Note_on_c, 5, 57, 100
7, 145200, Note_on_c, 5, 61, 100
7, 145440, Note_off_c, 5, 61, 64
7, 145440, Note_off_c, 5, 57, 64
7, 145440, Note_on_c, 5, 62, 100
7, 145440, Note_on_c, 5, 66, 100
7, 145680, Note_off_c, 5, 66, 64
7, 145680, Note_off_c, 5, 62, 64
7, 145680, Note_on_c, 5, 60, 100
7, 145680, Note_on_c, 5, 64, 100
7, 145680, Note_on_c, 5, 69, 100
7, 145920, Note_off_c, 5, 69, 64
7, 145920, Note_off_c, 5, 64, 64
7, 145920, Note_off_c, 5, 60, 64
7, 145920, Note_on_c, 5, 61, 100
7, 146160, Note_off_c, 5, 61, 64
7, 146160, Note_on_c, 5, 57, 100
7, 146160, Note_on_c, 5, 61, 100
7, 146400, Note_off_c, 5, 61, 64
7, 146400, Note_off_c, 5, 57, 64
7, 146400, Note_on_c, 5, 52, 100
7, 146400, Note_on_c, 5, 56, 100
7, 146400, Note_on_c, 5, 62, 100
7, 146400, Note_on_c, 5, 64, 100
7, 146640, Note_off_c, 5, 64, 64
7, 146640, Note_off_c, 5, 62, 64
7, 146640, Note_off_c, 5, 56, 64
7, 146640, Note_off_c, 5, 52, 64
7, 146640, Note_on_c, 5, 52, 100
7, 146640, Note_on_c, 5, 56, 100
7, 146640, Note_on_c, 5, 62, 100
7, 146640, Note_on_c, 5, 64, 100
7, 147120, Note_off_c, 5, 64, 64
7, 147120, Note_off_c, 5, 62, 64
7, 147120, Note_off_c, 5, 56, 64
7, 147120, Note_off_c, 5, 52, 64
7, 147120, Note_on_c, 5, 52, 100
7, 147120, Note_on_c, 5, 56, 100
7, 147120, Note_on_c, 5, 62, 100
7, 147120, Note_on_c, 5, 64, 100
7, 147360, Note_off_c, 5, 64, 64
7, 147360, Note_off_c, 5, 62, 64
7, 147360, Note_off_c, 5, 56, 64
7, 147360, Note_off_c, 5, 52, 64
7, 147360, Note_on_c, 5, 52, 100
7, 147600, Note_off_c, 5, 52, 64
7, 147600, Note_on_c, 5, 64, 100
7, 147600, Note_on_c, 5, 62, 100
7, 147600, Note_on_c, 5, 56, 100
7, 147840, Note_off_c, 5, 56, 64
7, 147840, Note_off_c, 5, 62, 64
7, 147840, Note_off_c, 5, 64, 64
7, 147840, Note_on_c, 5, 57, 100
7, 147840, Note_on_c, 5, 50, 100
7, 148080, Note_off_c, 5, 50, 64
7, 148080, Note_off_c, 5, 57, 64
7, 148080, Note_on_c, 5, 57, 100
7, 148080, Note_on_c, 5, 50, 100
7, 148320, Note_off_c, 5, 50, 64
7, 148320, Note_off_c, 5, 57, 64
7, 148320, Note_on_c, 5, 59, 100
7, 148320, Note_on_c, 5, 50, 100
7, 148560, Note_off_c, 5, 50, 64
7, 148560, Note_off_c, 5, 59, 64
7, 148560, Note_on_c, 5, 57, 100
7, 148560, Note_on_c, 5, 50, 100
7, 148800, Note_off_c, 5, 50, 64
7, 148800, Note_off_c, 5, 57, 64
7, 148800, Note_on_c, 5, 60, 100
7, 148800, Note_on_c, 5, 50, 100
7, 149040, Note_off_c, 5, 50, 64
7, 149040, Note_off_c, 5, 60, 64
7, 149040, Note_on_c, 5, 57, 100
7, 149040, Note_on_c, 5, 50, 100
7, 149280, Note_off_c, 5, 50, 64
7, 149280, Note_off_c, 5, 57, 64
7, 149280, Note_on_c, 5, 59, 100
7, 149280, Note_on_c, 5, 50, 100
7, 149520, Note_off_c, 5, 50, 64
7, 149520, Note_off_c, 5, 59, 64
7, 149520, Note_on_c, 5, 57, 100
7, 149520, Note_on_c, 5, 50, 100
7, 149760, Note_off_c, 5, 50, 64
7, 149760, Note_off_c, 5, 57, 64
7, 149760, Note_on_c, 5, 60, 100
7, 149760, Note_on_c, 5, 50, 100
7, 150000, Note_off_c, 5, 50, 64
7, 150000, Note_off_c, 5, 60, 64
7, 150000, Note_on_c, 5, 57, 100
7, 150000, Note_on_c, 5, 50, 100
7, 150240, Note_off_c, 5, 50, 64
7, 150240, Note_off_c, 5, 57, 64
7, 150240, Note_on_c, 5, 59, 100
7, 150240, Note_on_c, 5, 50, 100
7, 150480, Note_off_c, 5, 50, 64
7, 150480, Note_off_c, 5, 59, 64
7, 150480, Note_on_c, 5, 57, 100
7, 150480, Note_on_c, 5, 50, 100
7, 150720, Note_off_c, 5, 50, 64
7, 150720, Note_off_c, 5, 57, 64
7, 150720, Note_on_c, 5, 60, 100
7, 150720, Note_on_c, 5, 50, 100
7, 150960, Note_off_c, 5, 50, 64
7, 150960, Note_off_c, 5, 60, 64
7, 150960, Note_on_c, 5, 57, 100
7, 150960, Note_on_c, 5, 50, 100
7, 151200, Note_off_c, 5, 50, 64
7, 151200, Note_off_c, 5, 57, 64
7, 151200, Note_on_c, 5, 59, 100
7, 151200, Note_on_c, 5, 50, 100
7, 151440, Note_off_c, 5, 50, 64
7, 151440, Note_off_c, 5, 59, 64
7, 151440, Note_on_c, 5, 69, 100
7, 151440, Note_on_c, 5, 74, 100
7, 151680, Note_off_c, 5, 74, 64
7, 151680, Note_off_c, 5, 69, 64
7, 151680, Note_on_c, 5, 52, 100
7, 151680, Note_on_c, 5, 45, 100
7, 151920, Note_off_c, 5, 45, 64
7, 151920, Note_off_c, 5, 52, 64
7, 151920, Note_on_c, 5, 52, 100
7, 151920, Note_on_c, 5, 45, 100
7, 152160, Note_off_c, 5, 45, 64
7, 152160, Note_off_c, 5, 52, 64
7, 152160, Note_on_c, 5, 54, 100
7, 152160, Note_on_c, 5, 45, 100
7, 152400, Note_off_c, 5, 45, 64
7, 152400, Note_off_c, 5, 54, 64
7, 152400, Note_on_c, 5, 52, 100
7, 152400, Note_on_c, 5, 45, 100
7, 152640, Note_off_c, 5, 45, 64
7, 152640, Note_off_c, 5, 52, 64
7, 152640, Note_on_c, 5, 55, 100
7, 152640, Note_on_c, 5, 45, 100
7, 152880, Note_off_c, 5, 45, 64
7, 152880, Note_off_c, 5, 55, 64
7, 152880, Note_on_c, 5, 55, 100
7, 152880, Note_on_c, 5, 45, 100
7, 153120, Note_off_c, 5, 45, 64
7, 153120, Note_off_c, 5, 55, 64
7, 153120, Note_on_c, 5, 54, 100
7, 153120, Note_on_c, 5, 45, 100
7, 153360, Note_off_c, 5, 45, 64
7, 153360, Note_off_c, 5, 54, 64
7, 153360, Note_on_c, 5, 52, 100
7, 153360, Note_on_c, 5, 45, 100
7, 153600, Note_off_c, 5, 45, 64
7, 153600, Note_off_c, 5, 52, 64
7, 153600, Note_on_c, 5, 55, 100
7, 153600, Note_on_c, 5, 45, 100
7, 153840, Note_off_c, 5, 45, 64
7, 153840, Note_off_c, 5, 55, 64
7, 153840, Note_on_c, 5, 55, 100
7, 153840, Note_on_c, 5, 45, 100
7, 154080, Note_off_c, 5, 45, 64
7, 154080, Note_off_c, 5, 55, 64
7, 154080, Note_on_c, 5, 54, 100
7, 154080, Note_on_c, 5, 45, 100
7, 154320, Note_off_c, 5, 45, 64
7, 154320, Note_off_c, 5, 54, 64
7, 154320, Note_on_c, 5, 52, 100
7, 154320, Note_on_c, 5, 45, 100
7, 154560, Note_off_c, 5, 45, 64
7, 154560, Note_off_c, 5, 52, 64
7, 154560, Note_on_c, 5, 55, 100
7, 154560, Note_on_c, 5, 45, 100
7, 154800, Note_off_c, 5, 45, 64
7, 154800, Note_off_c, 5, 55, 64
7, 154800, Note_on_c, 5, 55, 100
7, 154800, Note_on_c, 5, 45, 100
7, 155040, Note_off_c, 5, 45, 64
7, 155040, Note_off_c, 5, 55, 64
7, 155040, Note_on_c, 5, 54, 100
7, 155040, Note_on_c, 5, 45, 100
7, 155280, Note_off_c, 5, 45, 64
7, 155280, Note_off_c, 5, 54, 64
7, 155280, Note_on_c, 5, 52, 100
7, 155280, Note_on_c, 5, 45, 100
7, 155520, Note_off_c, 5, 45, 64
7, 155520, Note_off_c, 5, 52, 64
7, 155520, Note_on_c, 5, 57, 100
7, 155520, Note_on_c, 5, 50, 100
7, 155760, Note_off_c, 5, 50, 64
7, 155760, Note_off_c, 5, 57, 64
7, 155760, Note_on_c, 5, 57, 100
7, 155760, Note_on_c, 5, 50, 100
7, 156000, Note_off_c, 5, 50, 64
7, 156000, Note_off_c, 5, 57, 64
7, 156000, Note_on_c, 5, 59, 100
7, 156000, Note_on_c, 5, 50, 100
7, 156240, Note_off_c, 5, 50, 64
7, 156240, Note_off_c, 5, 59, 64
7, 156240, Note_on_c, 5, 57, 100
7, 156240, Note_on_c, 5, 50, 100
7, 156480, Note_off_c, 5, 50, 64
7, 156480, Note_off_c, 5, 57, 64
7, 156480, Note_on_c, 5, 60, 100
7, 156480, Note_on_c, 5, 50, 100
7, 156720, Note_off_c, 5, 50, 64
7, 156720, Note_off_c, 5, 60, 64
7, 156720, Note_on_c, 5, 57, 100
7, 156720, Note_on_c, 5, 50, 100
7, 156960, Note_off_c, 5, 50, 64
7, 156960, Note_off_c, 5, 57, 64
7, 156960, Note_on_c, 5, 59, 100
7, 156960, Note_on_c, 5, 50, 100
7, 157200, Note_off_c, 5, 50, 64
7, 157200, Note_off_c, 5, 59, 64
7, 157200, Note_on_c, 5, 57, 100
7, 157200, Note_on_c, 5, 50, 100
7, 157440, Note_off_c, 5, 50, 64
7, 157440, Note_off_c, 5, 57, 64
7, 157440, Note_on_c, 5, 60, 100
7, 157440, Note_on_c, 5, 50, 100
7, 157680, Note_off_c, 5, 50, 64
7, 157680, Note_off_c, 5, 60, 64
7, 157680, Note_on_c, 5, 57, 100
7, 157680, Note_on_c, 5, 50, 100
7, 157920, Note_off_c, 5, 50, 64
7, 157920, Note_off_c, 5, 57, 64
7, 157920, Note_on_c, 5, 59, 100
7, 157920, Note_on_c, 5, 50, 100
7, 158160, Note_off_c, 5, 50, 64
7, 158160, Note_off_c, 5, 59, 64
7, 158160, Note_on_c, 5, 57, 100
7, 158160, Note_on_c, 5, 50, 100
7, 158400, Note_off_c, 5, 50, 64
7, 158400, Note_off_c, 5, 57, 64
7, 158400, Note_on_c, 5, 60, 100
7, 158400, Note_on_c, 5, 50, 100
7, 158640, Note_off_c, 5, 50, 64
7, 158640, Note_off_c, 5, 60, 64
7, 158640, Note_on_c, 5, 57, 100
7, 158640, Note_on_c, 5, 50, 100
7, 158880, Note_off_c, 5, 50, 64
7, 158880, Note_off_c, 5, 57, 64
7, 158880, Note_on_c, 5, 59, 100
7, 158880, Note_on_c, 5, 50, 100
7, 159120, Note_off_c, 5, 50, 64
7, 159120, Note_off_c, 5, 59, 64
7, 159120, Note_on_c, 5, 57, 100
7, 159120, Note_on_c, 5, 50, 100
7, 159360, Note_off_c, 5, 50, 64
7, 159360, Note_off_c, 5, 57, 64
7, 159360, Note_on_c, 5, 52, 100
7, 159600, Note_off_c, 5, 52, 64
7, 159600, Note_on_c, 5, 52, 100
7, 159600, Note_on_c, 5, 56, 100
7, 159600, Note_on_c, 5, 62, 100
7, 159600, Note_on_c, 5, 64, 100
7, 160080, Note_off_c, 5, 64, 64
7, 160080, Note_off_c, 5, 62, 64
7, 160080, Note_off_c, 5, 56, 64
7, 160080, Note_off_c, 5, 52, 64
7, 160080, Note_on_c, 5, 52, 100
7, 160320, Note_off_c, 5, 52, 64
7, 160320, Note_on_c, 5, 52, 100
7, 160320, Note_on_c, 5, 56, 100
7, 160320, Note_on_c, 5, 62, 100
7, 160320, Note_on_c, 5, 64, 100
7, 160560, Note_off_c, 5, 64, 64
7, 160560, Note_off_c, 5, 62, 64
7, 160560, Note_off_c, 5, 56, 64
7, 160560, Note_off_c, 5, 52, 64
7, 160560, Note_on_c, 5, 52, 100
7, 160560, Note_on_c, 5, 56, 100
7, 160560, Note_on_c, 5, 62, 100
7, 160560, Note_on_c, 5, 64, 100
7, 160800, Note_off_c, 5, 64, 64
7, 160800, Note_off_c, 5, 62, 64
7, 160800, Note_off_c, 5, 56, 64
7, 160800, Note_off_c, 5, 52, 64
7, 160800, Note_on_c, 5, 52, 100
7, 160800, Note_on_c, 5, 56, 100
7, 160800, Note_on_c, 5, 62, 100
7, 160800, Note_on_c, 5, 64, 100
7, 161040, Note_off_c, 5, 64, 64
7, 161040, Note_off_c, 5, 62, 64
7, 161040, Note_off_c, 5, 56, 64
7, 161040, Note_off_c, 5, 52, 64
7, 161040, Note_on_c, 5, 52, 100
7, 161040, Note_on_c, 5, 56, 100
7, 161040, Note_on_c, 5, 62, 100
7, 161040, Note_on_c, 5, 64, 100
7, 161280, Note_off_c, 5, 64, 64
7, 161280, Note_off_c, 5, 62, 64
7, 161280, Note_off_c, 5, 56, 64
7, 161280, Note_off_c, 5, 52, 64
7, 161280, Note_on_c, 5, 52, 100
7, 161520, Note_off_c, 5, 52, 64
7, 161520, Note_on_c, 5, 52, 100
7, 161520, Note_on_c, 5, 56, 100
7, 161520, Note_on_c, 5, 62, 100
7, 161520, Note_on_c, 5, 64, 100
7, 162000, Note_off_c, 5, 64, 64
7, 162000, Note_off_c, 5, 62, 64
7, 162000, Note_off_c, 5, 56, 64
7, 162000, Note_off_c, 5, 52, 64
7, 162000, Note_on_c, 5, 52, 100
7, 162240, Note_off_c, 5, 52, 64
7, 162240, Note_on_c, 5, 52, 100
7, 162240, Note_on_c, 5, 56, 100
7, 162240, Note_on_c, 5, 62, 100
7, 162240, Note_on_c, 5, 64, 100
7, 162480, Note_off_c, 5, 64, 64
7, 162480, Note_off_c, 5, 62, 64
7, 162480, Note_off_c, 5, 56, 64
7, 162480, Note_off_c, 5, 52, 64
7, 162480, Note_on_c, 5, 52, 100
7, 162480, Note_on_c, 5, 56, 100
7, 162480, Note_on_c, 5, 62, 100
7, 162480, Note_on_c, 5, 64, 100
7, 162720, Note_off_c, 5, 64, 64
7, 162720, Note_off_c, 5, 62, 64
7, 162720, Note_off_c, 5, 56, 64
7, 162720, Note_off_c, 5, 52, 64
7, 162720, Note_on_c, 5, 52, 100
7, 162720, Note_on_c, 5, 56, 100
7, 162720, Note_on_c, 5, 62, 100
7, 162720, Note_on_c, 5, 64, 100
7, 163200, Note_off_c, 5, 64, 64
7, 163200, Note_off_c, 5, 62, 64
7, 163200, Note_off_c, 5, 56, 64
7, 163200, Note_off_c, 5, 52, 64
7, 163200, Note_on_c, 5, 52, 100
7, 163200, Note_on_c, 5, 45, 100
7, 163440, Note_off_c, 5, 45, 64
7, 163440, Note_off_c, 5, 52, 64
7, 163440, Note_on_c, 5, 52, 100
7, 163440, Note_on_c, 5, 45, 100
7, 163680, Note_off_c, 5, 45, 64
7, 163680, Note_off_c, 5, 52, 64
7, 163680, Note_on_c, 5, 54, 100
7, 163680, Note_on_c, 5, 45, 100
7, 163920, Note_off_c, 5, 45, 64
7, 163920, Note_off_c, 5, 54, 64
7, 163920, Note_on_c, 5, 52, 100
7, 163920, Note_on_c, 5, 45, 100
7, 164160, Note_off_c, 5, 45, 64
7, 164160, Note_off_c, 5, 52, 64
7, 164160, Note_on_c, 5, 55, 100
7, 164160, Note_on_c, 5, 45, 100
7, 164400, Note_off_c, 5, 45, 64
7, 164400, Note_off_c, 5, 55, 64
7, 164400, Note_on_c, 5, 55, 100
7, 164400, Note_on_c, 5, 45, 100
7, 164640, Note_off_c, 5, 45, 64
7, 164640, Note_off_c, 5, 55, 64
7, 164640, Note_on_c, 5, 54, 100
7, 164640, Note_on_c, 5, 45, 100
7, 164880, Note_off_c, 5, 45, 64
7, 164880, Note_off_c, 5, 54, 64
7, 164880, Note_on_c, 5, 52, 100
7, 164880, Note_on_c, 5, 45, 100
7, 165120, Note_off_c, 5, 45, 64
7, 165120, Note_off_c, 5, 52, 64
7, 165120, Note_on_c, 5, 55, 100
7, 165120, Note_on_c, 5, 45, 100
7, 165360, Note_off_c, 5, 45, 64
7, 165360, Note_off_c, 5, 55, 64
7, 165360, Note_on_c, 5, 55, 100
7, 165360, Note_on_c, 5, 45, 100
7, 165600, Note_off_c, 5, 45, 64
7, 165600, Note_off_c, 5, 55, 64
7, 165600, Note_on_c, 5, 54, 100
7, 165600, Note_on_c, 5, 45, 100
7, 165840, Note_off_c, 5, 45, 64
7, 165840, Note_off_c, 5, 54, 64
7, 165840, Note_on_c, 5, 52, 100
7, 165840, Note_on_c, 5, 45, 100
7, 166080, Note_off_c, 5, 45, 64
7, 166080, Note_off_c, 5, 52, 64
7, 166080, Note_on_c, 5, 55, 100
7, 166080, Note_on_c, 5, 45, 100
7, 166320, Note_off_c, 5, 45, 64
7, 166320, Note_off_c, 5, 55, 64
7, 166320, Note_on_c, 5, 55, 100
7, 166320, Note_on_c, 5, 45, 100
7, 166560, Note_off_c, 5, 45, 64
7, 166560, Note_off_c, 5, 55, 64
7, 166560, Note_on_c, 5, 54, 100
7, 166560, Note_on_c, 5, 45, 100
7, 166800, Note_off_c, 5, 45, 64
7, 166800, Note_off_c, 5, 54, 64
7, 166800, Note_on_c, 5, 49, 100
7, 166800, Note_on_c, 5, 55, 100
7, 166980, Note_on_c, 5, 50, 100
7, 166980, Note_on_c, 5, 57, 100
7, 167040, Note_off_c, 5, 57, 64
7, 167040, Note_off_c, 5, 50, 64
7, 167040, Note_off_c, 5, 55, 64
7, 167040, Note_off_c, 5, 49, 64
7, 167040, Note_on_c, 5, 57, 100
7, 167040, Note_on_c, 5, 50, 100
7, 167280, Note_off_c, 5, 50, 64
7, 167280, Note_off_c, 5, 57, 64
7, 167280, Note_on_c, 5, 57, 100
7, 167280, Note_on_c, 5, 50, 100
7, 167520, Note_off_c, 5, 50, 64
7, 167520, Note_off_c, 5, 57, 64
7, 167520, Note_on_c, 5, 59, 100
7, 167520, Note_on_c, 5, 50, 100
7, 167760, Note_off_c, 5, 50, 64
7, 167760, Note_off_c, 5, 59, 64
7, 167760, Note_on_c, 5, 57, 100
7, 167760, Note_on_c, 5, 50, 100
7, 168000, Note_off_c, 5, 50, 64
7, 168000, Note_off_c, 5, 57, 64
7, 168000, Note_on_c, 5, 60, 100
7, 168000, Note_on_c, 5, 50, 100
7, 168240, Note_off_c, 5, 50, 64
7, 168240, Note_off_c, 5, 60, 64
7, 168240, Note_on_c, 5, 60, 100
7, 168240, Note_on_c, 5, 50, 100
7, 168480, Note_off_c, 5, 50, 64
7, 168480, Note_off_c, 5, 60, 64
7, 168480, Note_on_c, 5, 59, 100
7, 168480, Note_on_c, 5, 50, 100
7, 168720, Note_off_c, 5, 50, 64
7, 168720, Note_off_c, 5, 59, 64
7, 168720, Note_on_c, 5, 57, 100
7, 168720, Note_on_c, 5, 50, 100
7, 168960, Note_off_c, 5, 50, 64
7, 168960, Note_off_c, 5, 57, 64
7, 168960, Note_on_c, 5, 60, 100
7, 168960, Note_on_c, 5, 50, 100
7, 169200, Note_off_c, 5, 50, 64
7, 169200, Note_off_c, 5, 60, 64
7, 169200, Note_on_c, 5, 60, 100
7, 169200, Note_on_c, 5, 50, 100
7, 169440, Note_off_c, 5, 50, 64
7, 169440, Note_off_c, 5, 60, 64
7, 169440, Note_on_c, 5, 59, 100
7, 169440, Note_on_c, 5, 50, 100
7, 169680, Note_off_c, 5, 50, 64
7, 169680, Note_off_c, 5, 59, 64
7, 169680, Note_on_c, 5, 57, 100
7, 169680, Note_on_c, 5, 50, 100
7, 169920, Note_off_c, 5, 50, 64
7, 169920, Note_off_c, 5, 57, 64
7, 169920, Note_on_c, 5, 60, 100
7, 169920, Note_on_c, 5, 50, 100
7, 170160, Note_off_c, 5, 50, 64
7, 170160, Note_off_c, 5, 60, 64
7, 170160, Note_on_c, 5, 60, 100
7, 170160, Note_on_c, 5, 50, 100
7, 170400, Note_off_c, 5, 50, 64
7, 170400, Note_off_c, 5, 60, 64
7, 170400, Note_on_c, 5, 59, 100
7, 170400, Note_on_c, 5, 50, 100
7, 170640, Note_off_c, 5, 50, 64
7, 170640, Note_off_c, 5, 59, 64
7, 170640, Note_on_c, 5, 74, 100
7, 170640, Note_on_c, 5, 69, 100
7, 170880, Note_off_c, 5, 69, 64
7, 170880, Note_off_c, 5, 74, 64
7, 170880, Note_on_c, 5, 52, 100
7, 170880, Note_on_c, 5, 45, 100
7, 171120, Note_off_c, 5, 45, 64
7, 171120, Note_off_c, 5, 52, 64
7, 171120, Note_on_c, 5, 52, 100
7, 171120, Note_on_c, 5, 45, 100
7, 171360, Note_off_c, 5, 45, 64
7, 171360, Note_off_c, 5, 52, 64
7, 171360, Note_on_c, 5, 54, 100
7, 171360, Note_on_c, 5, 45, 100
7, 171600, Note_off_c, 5, 45, 64
7, 171600, Note_off_c, 5, 54, 64
7, 171600, Note_on_c, 5, 52, 100
7, 171600, Note_on_c, 5, 45, 100
7, 171840, Note_off_c, 5, 45, 64
7, 171840, Note_off_c, 5, 52, 64
7, 171840, Note_on_c, 5, 55, 100
7, 171840, Note_on_c, 5, 45, 100
7, 172080, Note_off_c, 5, 45, 64
7, 172080, Note_off_c, 5, 55, 64
7, 172080, Note_on_c, 5, 55, 100
7, 172080, Note_on_c, 5, 45, 100
7, 172320, Note_off_c, 5, 45, 64
7, 172320, Note_off_c, 5, 55, 64
7, 172320, Note_on_c, 5, 54, 100
7, 172320, Note_on_c, 5, 45, 100
7, 172560, Note_off_c, 5, 45, 64
7, 172560, Note_off_c, 5, 54, 64
7, 172560, Note_on_c, 5, 52, 100
7, 172560, Note_on_c, 5, 45, 100
7, 172800, Note_off_c, 5, 45, 64
7, 172800, Note_off_c, 5, 52, 64
7, 172800, Note_on_c, 5, 55, 100
7, 172800, Note_on_c, 5, 45, 100
7, 173040, Note_off_c, 5, 45, 64
7, 173040, Note_off_c, 5, 55, 64
7, 173040, Note_on_c, 5, 55, 100
7, 173040, Note_on_c, 5, 45, 100
7, 173280, Note_off_c, 5, 45, 64
7, 173280, Note_off_c, 5, 55, 64
7, 173280, Note_on_c, 5, 54, 100
7, 173280, Note_on_c, 5, 45, 100
7, 173520, Note_off_c, 5, 45, 64
7, 173520, Note_off_c, 5, 54, 64
7, 173520, Note_on_c, 5, 52, 100
7, 173520, Note_on_c, 5, 45, 100
7, 173760, Note_off_c, 5, 45, 64
7, 173760, Note_off_c, 5, 52, 64
7, 173760, Note_on_c, 5, 55, 100
7, 173760, Note_on_c, 5, 45, 100
7, 174000, Note_off_c, 5, 45, 64
7, 174000, Note_off_c, 5, 55, 64
7, 174000, Note_on_c, 5, 55, 100
7, 174000, Note_on_c, 5, 45, 100
7, 174240, Note_off_c, 5, 45, 64
7, 174240, Note_off_c, 5, 55, 64
7, 174240, Note_on_c, 5, 54, 100
7, 174240, Note_on_c, 5, 45, 100
7, 174480, Note_off_c, 5, 45, 64
7, 174480, Note_off_c, 5, 54, 64
7, 174480, Note_on_c, 5, 52, 100
7, 174480, Note_on_c, 5, 45, 100
7, 174720, Note_off_c, 5, 45, 64
7, 174720, Note_off_c, 5, 52, 64
7, 174720, Note_on_c, 5, 52, 100
7, 174960, Note_off_c, 5, 52, 64
7, 174960, Note_on_c, 5, 52, 100
7, 174960, Note_on_c, 5, 56, 100
7, 174960, Note_on_c, 5, 62, 100
7, 174960, Note_on_c, 5, 64, 100
7, 175440, Note_off_c, 5, 64, 64
7, 175440, Note_off_c, 5, 62, 64
7, 175440, Note_off_c, 5, 56, 64
7, 175440, Note_off_c, 5, 52, 64
7, 175440, Note_on_c, 5, 52, 100
7, 175680, Note_off_c, 5, 52, 64
7, 175680, Note_on_c, 5, 52, 100
7, 175680, Note_on_c, 5, 56, 100
7, 175680, Note_on_c, 5, 62, 100
7, 175680, Note_on_c, 5, 64, 100
7, 175920, Note_off_c, 5, 64, 64
7, 175920, Note_off_c, 5, 62, 64
7, 175920, Note_off_c, 5, 56, 64
7, 175920, Note_off_c, 5, 52, 64
7, 175920, Note_on_c, 5, 52, 100
7, 175920, Note_on_c, 5, 56, 100
7, 175920, Note_on_c, 5, 62, 100
7, 175920, Note_on_c, 5, 64, 100
7, 176160, Note_off_c, 5, 64, 64
7, 176160, Note_off_c, 5, 62, 64
7, 176160, Note_off_c, 5, 56, 64
7, 176160, Note_off_c, 5, 52, 64
7, 176160, Note_on_c, 5, 52, 100
7, 176160, Note_on_c, 5, 56, 100
7, 176160, Note_on_c, 5, 62, 100
7, 176160, Note_on_c, 5, 64, 100
7, 176400, Note_off_c, 5, 64, 64
7, 176400, Note_off_c, 5, 62, 64
7, 176400, Note_off_c, 5, 56, 64
7, 176400, Note_off_c, 5, 52, 64
7, 176400, Note_on_c, 5, 52, 100
7, 176400, Note_on_c, 5, 56, 100
7, 176400, Note_on_c, 5, 62, 100
7, 176400, Note_on_c, 5, 64, 100
7, 176640, Note_off_c, 5, 64, 64
7, 176640, Note_off_c, 5, 62, 64
7, 176640, Note_off_c, 5, 56, 64
7, 176640, Note_off_c, 5, 52, 64
7, 176640, Note_on_c, 5, 52, 100
7, 176880, Note_off_c, 5, 52, 64
7, 176880, Note_on_c, 5, 52, 100
7, 176880, Note_on_c, 5, 56, 100
7, 176880, Note_on_c, 5, 62, 100
7, 176880, Note_on_c, 5, 64, 100
7, 177360, Note_off_c, 5, 64, 64
7, 177360, Note_off_c, 5, 62, 64
7, 177360, Note_off_c, 5, 56, 64
7, 177360, Note_off_c, 5, 52, 64
7, 177360, Note_on_c, 5, 52, 100
7, 177600, Note_off_c, 5, 52, 64
7, 177600, Note_on_c, 5, 52, 100
7, 177600, Note_on_c, 5, 56, 100
7, 177600, Note_on_c, 5, 62, 100
7, 177600, Note_on_c, 5, 64, 100
7, 177840, Note_off_c, 5, 64, 64
7, 177840, Note_off_c, 5, 62, 64
7, 177840, Note_off_c, 5, 56, 64
7, 177840, Note_off_c, 5, 52, 64
7, 177840, Note_on_c, 5, 52, 100
7, 177840, Note_on_c, 5, 56, 100
7, 177840, Note_on_c, 5, 62, 100
7, 177840, Note_on_c, 5, 64, 100
7, 178080, Note_off_c, 5, 64, 64
7, 178080, Note_off_c, 5, 62, 64
7, 178080, Note_off_c, 5, 56, 64
7, 178080, Note_off_c, 5, 52, 64
7, 178080, Note_on_c, 5, 52, 100
7, 178080, Note_on_c, 5, 56, 100
7, 178080, Note_on_c, 5, 62, 100
7, 178080, Note_on_c, 5, 64, 100
7, 178440, Note_on_c, 5, 69, 100
7, 178500, Note_off_c, 5, 69, 64
7, 178500, Note_on_c, 5, 70, 100
7, 178560, Note_off_c, 5, 64, 64
7, 178560, Note_off_c, 5, 62, 64
7, 178560, Note_off_c, 5, 56, 64
7, 178560, Note_off_c, 5, 52, 64
7, 178560, Note_off_c, 5, 70, 64
7, 178560, Note_on_c, 5, 71, 100
7, 178800, Note_off_c, 5, 71, 64
7, 178800, Note_on_c, 5, 76, 100
7, 178800, Note_on_c, 5, 71, 100
7, 178860, Note_off_c, 5, 71, 64
7, 178860, Note_off_c, 5, 76, 64
7, 179040, Note_on_c, 5, 76, 100
7, 179040, Note_on_c, 5, 71, 100
7, 179280, Note_off_c, 5, 71, 64
7, 179280, Note_off_c, 5, 76, 64
7, 179280, Note_on_c, 5, 76, 100
7, 179280, Note_on_c, 5, 71, 100
7, 179520, Note_off_c, 5, 71, 64
7, 179520, Note_off_c, 5, 76, 64
7, 179520, Note_on_c, 5, 76, 100
7, 179520, Note_on_c, 5, 71, 100
7, 179760, Note_off_c, 5, 71, 64
7, 179760, Note_off_c, 5, 76, 64
7, 179760, Note_on_c, 5, 76, 100
7, 179760, Note_on_c, 5, 71, 100
7, 179880, Note_on_c, 5, 72, 100
7, 179940, Note_off_c, 5, 72, 64
7, 179940, Note_on_c, 5, 73, 100
7, 180000, Note_off_c, 5, 71, 64
7, 180000, Note_off_c, 5, 76, 64
7, 180000, Note_off_c, 5, 73, 64
7, 180000, Note_on_c, 5, 79, 100
7, 180000, Note_on_c, 5, 74, 100
7, 180480, Note_off_c, 5, 74, 64
7, 180480, Note_off_c, 5, 79, 64
7, 180480, Note_on_c, 5, 74, 100
7, 180480, Note_on_c, 5, 69, 100
7, 180720, Note_off_c, 5, 69, 64
7, 180720, Note_off_c, 5, 74, 64
7, 180720, Note_on_c, 5, 74, 100
7, 180720, Note_on_c, 5, 69, 100
7, 180960, Note_off_c, 5, 69, 64
7, 180960, Note_off_c, 5, 74, 64
7, 180960, Note_on_c, 5, 74, 100
7, 180960, Note_on_c, 5, 69, 100
7, 181200, Note_off_c, 5, 69, 64
7, 181200, Note_off_c, 5, 74, 64
7, 181200, Note_on_c, 5, 74, 100
7, 181200, Note_on_c, 5, 69, 100
7, 181440, Note_off_c, 5, 69, 64
7, 181440, Note_off_c, 5, 74, 64
7, 181440, Note_on_c, 5, 74, 100
7, 181440, Note_on_c, 5, 69, 100
7, 181680, Note_off_c, 5, 69, 64
7, 181680, Note_off_c, 5, 74, 64
7, 181680, Note_on_c, 5, 74, 100
7, 181680, Note_on_c, 5, 69, 100
7, 181800, Note_on_c, 5, 70, 100
7, 181860, Note_off_c, 5, 70, 64
7, 181860, Note_on_c, 5, 71, 100
7, 181920, Note_off_c, 5, 69, 64
7, 181920, Note_off_c, 5, 74, 64
7, 181920, Note_off_c, 5, 71, 64
7, 181920, Note_on_c, 5, 77, 100
7, 181920, Note_on_c, 5, 72, 100
7, 182400, Note_off_c, 5, 72, 64
7, 182400, Note_off_c, 5, 77, 64
7, 182400, Note_on_c, 5, 69, 100
7, 182400, Note_on_c, 5, 64, 100
7, 182640, Note_off_c, 5, 64, 64
7, 182640, Note_off_c, 5, 69, 64
7, 182640, Note_on_c, 5, 72, 100
7, 182880, Note_off_c, 5, 72, 64
7, 182880, Note_on_c, 5, 69, 100
7, 183000, Note_on_c, 5, 67, 100
7, 183060, Note_off_c, 5, 67, 64
7, 183060, Note_on_c, 5, 68, 100
7, 183120, Note_off_c, 5, 69, 64
7, 183120, Note_off_c, 5, 68, 64
7, 183120, Note_on_c, 5, 69, 100
7, 183360, Note_off_c, 5, 69, 64
7, 183360, Note_on_c, 5, 64, 100
7, 183360, Note_on_c, 5, 69, 100
7, 183600, Note_off_c, 5, 69, 64
7, 183600, Note_off_c, 5, 64, 64
7, 183600, Note_on_c, 5, 63, 100
7, 183840, Note_off_c, 5, 63, 64
7, 183840, Note_on_c, 5, 62, 100
7, 184080, Note_off_c, 5, 62, 64
7, 184080, Note_on_c, 5, 60, 100
7, 184320, Note_off_c, 5, 60, 64
7, 184320, Note_on_c, 5, 57, 100
7, 184560, Note_off_c, 5, 57, 64
7, 184560, Note_on_c, 5, 56, 100
7, 184800, Note_off_c, 5, 56, 64
7, 184800, Note_on_c, 5, 52, 100
7, 185040, Note_off_c, 5, 52, 64
7, 185040, Note_on_c, 5, 76, 100
7, 185040, Note_on_c, 5, 71, 100
7, 185040, Note_on_c, 5, 66, 100
7, 185040, Note_on_c, 5, 61, 100
7, 185040, Note_on_c, 5, 57, 100
7, 190080, Note_off_c, 5, 57, 64
7, 190080, Note_off_c, 5, 61, 64
7, 190080, Note_off_c, 5, 66, 64
7, 190080, Note_off_c, 5, 71, 64
7, 190080, Note_off_c, 5, 76, 64
7, 190080, End_track
8, 0, Start_track
8, 0, MIDI_port, 0
8, 0, Channel_prefix, 0
8, 0, Control_c, 0, 7, 127
8, 0, Control_c, 0, 10, 127
8, 0, Program_c, 0, 66
8, 95, Control_c, 0, 121, 0
8, 95, Pitch_bend_c, 0, 8282
8, 96, Control_c, 0, 91, 90
8, 98, Control_c, 0, 93, 80
8, 99, Control_c, 0, 2, 127
8, 103, Control_c, 0, 11, 127
8, 8930, Note_on_c, 0, 76, 120
8, 9170, Note_off_c, 0, 76, 64
8, 9170, Note_on_c, 0, 76, 120
8, 9410, Note_off_c, 0, 76, 64
8, 9410, Note_on_c, 0, 76, 120
8, 9650, Note_off_c, 0, 76, 64
8, 9650, Note_on_c, 0, 76, 120
8, 10130, Note_off_c, 0, 76, 64
8, 10130, Note_on_c, 0, 76, 120
8, 10610, Note_off_c, 0, 76, 64
8, 10610, Note_on_c, 0, 76, 120
8, 10850, Note_off_c, 0, 76, 64
8, 10850, Note_on_c, 0, 76, 120
8, 11090, Note_off_c, 0, 76, 64
8, 11090, Note_on_c, 0, 76, 120
8, 11570, Note_off_c, 0, 76, 64
8, 11570, Note_on_c, 0, 76, 120
8, 12050, Note_off_c, 0, 76, 64
8, 12050, Note_on_c, 0, 75, 120
8, 12290, Note_off_c, 0, 75, 64
8, 12290, Note_on_c, 0, 76, 120
8, 13010, Note_off_c, 0, 76, 64
8, 13250, Note_on_c, 0, 76, 120
8, 13730, Note_off_c, 0, 76, 64
8, 13730, Note_on_c, 0, 74, 120
8, 13970, Note_off_c, 0, 74, 64
8, 13970, Note_on_c, 0, 76, 120
8, 14210, Note_off_c, 0, 76, 64
8, 14210, Note_on_c, 0, 74, 120
8, 14450, Note_off_c, 0, 74, 64
8, 14450, Note_on_c, 0, 76, 120
8, 14690, Note_off_c, 0, 76, 64
8, 14690, Note_on_c, 0, 74, 120
8, 14930, Note_off_c, 0, 74, 64
8, 14930, Note_on_c, 0, 76, 120
8, 15170, Note_off_c, 0, 76, 64
8, 15170, Note_on_c, 0, 76, 120
8, 15410, Note_off_c, 0, 76, 64
8, 15410, Note_on_c, 0, 76, 120
8, 15890, Note_off_c, 0, 76, 64
8, 15890, Note_on_c, 0, 69, 120
8, 16010, Note_off_c, 0, 69, 64
8, 16010, Note_on_c, 0, 69, 120
8, 16130, Note_off_c, 0, 69, 64
8, 16130, Note_on_c, 0, 69, 120
8, 16850, Note_off_c, 0, 69, 64
8, 17090, Note_on_c, 0, 74, 120
8, 17570, Note_off_c, 0, 74, 64
8, 17570, Note_on_c, 0, 74, 120
8, 17810, Note_off_c, 0, 74, 64
8, 17810, Note_on_c, 0, 74, 120
8, 18050, Note_off_c, 0, 74, 64
8, 18050, Note_on_c, 0, 74, 120
8, 18290, Note_off_c, 0, 74, 64
8, 18290, Note_on_c, 0, 74, 120
8, 18530, Note_off_c, 0, 74, 64
8, 18530, Note_on_c, 0, 73, 120
8, 18770, Note_off_c, 0, 73, 64
8, 18770, Note_on_c, 0, 74, 120
8, 19010, Note_off_c, 0, 74, 64
8, 19010, Note_on_c, 0, 73, 120
8, 19250, Note_off_c, 0, 73, 64
8, 19250, Note_on_c, 0, 74, 120
8, 19730, Note_off_c, 0, 74, 64
8, 19730, Note_on_c, 0, 73, 120
8, 19970, Note_off_c, 0, 73, 64
8, 19970, Note_on_c, 0, 76, 120
8, 20450, Note_off_c, 0, 76, 64
8, 20450, Note_on_c, 0, 76, 120
8, 20690, Note_off_c, 0, 76, 64
8, 20690, Note_on_c, 0, 74, 120
8, 20930, Note_off_c, 0, 74, 64
8, 20930, Note_on_c, 0, 73, 120
8, 21170, Note_off_c, 0, 73, 64
8, 21170, Note_on_c, 0, 76, 120
8, 21650, Note_off_c, 0, 76, 64
8, 21650, Note_on_c, 0, 74, 120
8, 22130, Note_off_c, 0, 74, 64
8, 22130, Note_on_c, 0, 74, 120
8, 22370, Note_off_c, 0, 74, 64
8, 22370, Note_on_c, 0, 73, 120
8, 22610, Note_off_c, 0, 73, 64
8, 22850, Note_on_c, 0, 74, 120
8, 23330, Note_off_c, 0, 74, 64
8, 23330, Note_on_c, 0, 69, 120
8, 23570, Note_off_c, 0, 69, 64
8, 23570, Note_on_c, 0, 69, 120
8, 23810, Note_off_c, 0, 69, 64
8, 23810, Note_on_c, 0, 69, 120
8, 24530, Note_off_c, 0, 69, 64
8, 24770, Note_on_c, 0, 74, 120
8, 25490, Note_off_c, 0, 74, 64
8, 25490, Note_on_c, 0, 74, 120
8, 25730, Note_off_c, 0, 74, 64
8, 25730, Note_on_c, 0, 73, 120
8, 25970, Note_off_c, 0, 73, 64
8, 25970, Note_on_c, 0, 74, 120
8, 26210, Note_off_c, 0, 74, 64
8, 26210, Note_on_c, 0, 76, 120
8, 26450, Note_off_c, 0, 76, 64
8, 26450, Note_on_c, 0, 76, 120
8, 26690, Note_off_c, 0, 76, 64
8, 26690, Note_on_c, 0, 76, 120
8, 26930, Note_off_c, 0, 76, 64
8, 26930, Note_on_c, 0, 76, 120
8, 27410, Note_off_c, 0, 76, 64
8, 27410, Note_on_c, 0, 74, 120
8, 27890, Note_off_c, 0, 74, 64
8, 27890, Note_on_c, 0, 74, 120
8, 28130, Note_off_c, 0, 74, 64
8, 28370, Note_on_c, 0, 69, 120
8, 28610, Note_off_c, 0, 69, 64
8, 28610, Note_on_c, 0, 69, 120
8, 29330, Note_off_c, 0, 69, 64
8, 32450, Note_on_c, 0, 74, 120
8, 33170, Note_off_c, 0, 74, 64
8, 33170, Note_on_c, 0, 74, 120
8, 33410, Note_off_c, 0, 74, 64
8, 33410, Note_on_c, 0, 73, 120
8, 33650, Note_off_c, 0, 73, 64
8, 33650, Note_on_c, 0, 74, 120
8, 33890, Note_off_c, 0, 74, 64
8, 33890, Note_on_c, 0, 74, 120
8, 34130, Note_off_c, 0, 74, 64
8, 34370, Note_on_c, 0, 73, 120
8, 34610, Note_off_c, 0, 73, 64
8, 34610, Note_on_c, 0, 74, 120
8, 34850, Note_off_c, 0, 74, 64
8, 34850, Note_on_c, 0, 74, 120
8, 35090, Note_off_c, 0, 74, 64
8, 35090, Note_on_c, 0, 74, 120
8, 35330, Note_off_c, 0, 74, 64
8, 35330, Note_on_c, 0, 76, 120
8, 36050, Note_off_c, 0, 76, 64
8, 36290, Note_on_c, 0, 74, 120
8, 36530, Note_off_c, 0, 74, 64
8, 36530, Note_on_c, 0, 76, 120
8, 36770, Note_off_c, 0, 76, 64
8, 36770, Note_on_c, 0, 73, 120
8, 37010, Note_off_c, 0, 73, 64
8, 37010, Note_on_c, 0, 74, 120
8, 37250, Note_off_c, 0, 74, 64
8, 37250, Note_on_c, 0, 73, 120
8, 37490, Note_off_c, 0, 73, 64
8, 37490, Note_on_c, 0, 74, 120
8, 37730, Note_off_c, 0, 74, 64
8, 37730, Note_on_c, 0, 73, 120
8, 37970, Note_off_c, 0, 73, 64
8, 37970, Note_on_c, 0, 74, 120
8, 38210, Note_off_c, 0, 74, 64
8, 38210, Note_on_c, 0, 73, 120
8, 38450, Note_off_c, 0, 73, 64
8, 38450, Note_on_c, 0, 74, 120
8, 38690, Note_off_c, 0, 74, 64
8, 38690, Note_on_c, 0, 73, 120
8, 38930, Note_off_c, 0, 73, 64
8, 38930, Note_on_c, 0, 69, 120
8, 39170, Note_off_c, 0, 69, 64
8, 39170, Note_on_c, 0, 69, 120
8, 39890, Note_off_c, 0, 69, 64
8, 40130, Note_on_c, 0, 73, 120
8, 40370, Note_off_c, 0, 73, 64
8, 40370, Note_on_c, 0, 74, 120
8, 40610, Note_off_c, 0, 74, 64
8, 40610, Note_on_c, 0, 73, 120
8, 40850, Note_off_c, 0, 73, 64
8, 40850, Note_on_c, 0, 74, 120
8, 41090, Note_off_c, 0, 74, 64
8, 41090, Note_on_c, 0, 73, 120
8, 41330, Note_off_c, 0, 73, 64
8, 41330, Note_on_c, 0, 74, 120
8, 41570, Note_off_c, 0, 74, 64
8, 41570, Note_on_c, 0, 73, 120
8, 41810, Note_off_c, 0, 73, 64
8, 41810, Note_on_c, 0, 74, 120
8, 42050, Note_off_c, 0, 74, 64
8, 42050, Note_on_c, 0, 73, 120
8, 42290, Note_off_c, 0, 73, 64
8, 42290, Note_on_c, 0, 74, 120
8, 42770, Note_off_c, 0, 74, 64
8, 42770, Note_on_c, 0, 73, 120
8, 43010, Note_off_c, 0, 73, 64
8, 43010, Note_on_c, 0, 76, 120
8, 43490, Note_off_c, 0, 76, 64
8, 43490, Note_on_c, 0, 76, 120
8, 43730, Note_off_c, 0, 76, 64
8, 43730, Note_on_c, 0, 74, 120
8, 43970, Note_off_c, 0, 74, 64
8, 43970, Note_on_c, 0, 73, 120
8, 44210, Note_off_c, 0, 73, 64
8, 44210, Note_on_c, 0, 76, 120
8, 44690, Note_off_c, 0, 76, 64
8, 44690, Note_on_c, 0, 76, 120
8, 44930, Note_off_c, 0, 76, 64
8, 44930, Note_on_c, 0, 74, 120
8, 45170, Note_off_c, 0, 74, 64
8, 45170, Note_on_c, 0, 76, 120
8, 45410, Note_off_c, 0, 76, 64
8, 45410, Note_on_c, 0, 76, 120
8, 45650, Note_off_c, 0, 76, 64
8, 45650, Note_on_c, 0, 76, 120
8, 45890, Note_off_c, 0, 76, 64
8, 45890, Note_on_c, 0, 80, 120
8, 46370, Note_off_c, 0, 80, 64
8, 46370, Note_on_c, 0, 76, 120
8, 46610, Note_off_c, 0, 76, 64
8, 46610, Note_on_c, 0, 76, 120
8, 46850, Note_off_c, 0, 76, 64
8, 46850, Note_on_c, 0, 76, 120
8, 47090, Note_off_c, 0, 76, 64
8, 48050, Note_on_c, 0, 74, 120
8, 48290, Note_off_c, 0, 74, 64
8, 48290, Note_on_c, 0, 73, 120
8, 48530, Note_off_c, 0, 73, 64
8, 48530, Note_on_c, 0, 74, 120
8, 48770, Note_off_c, 0, 74, 64
8, 48770, Note_on_c, 0, 73, 120
8, 49010, Note_off_c, 0, 73, 64
8, 49010, Note_on_c, 0, 74, 120
8, 49250, Note_off_c, 0, 74, 64
8, 49250, Note_on_c, 0, 73, 120
8, 49490, Note_off_c, 0, 73, 64
8, 49490, Note_on_c, 0, 74, 120
8, 49730, Note_off_c, 0, 74, 64
8, 49730, Note_on_c, 0, 73, 120
8, 49970, Note_off_c, 0, 73, 64
8, 49970, Note_on_c, 0, 74, 120
8, 50450, Note_off_c, 0, 74, 64
8, 50450, Note_on_c, 0, 73, 120
8, 50690, Note_off_c, 0, 73, 64
8, 50690, Note_on_c, 0, 74, 120
8, 51410, Note_off_c, 0, 74, 64
8, 51650, Note_on_c, 0, 76, 120
8, 52130, Note_off_c, 0, 76, 64
8, 52130, Note_on_c, 0, 76, 120
8, 52370, Note_off_c, 0, 76, 64
8, 52370, Note_on_c, 0, 74, 120
8, 52610, Note_off_c, 0, 74, 64
8, 52610, Note_on_c, 0, 73, 120
8, 52850, Note_off_c, 0, 73, 64
8, 52850, Note_on_c, 0, 74, 120
8, 53090, Note_off_c, 0, 74, 64
8, 53090, Note_on_c, 0, 73, 120
8, 53330, Note_off_c, 0, 73, 64
8, 53330, Note_on_c, 0, 73, 120
8, 53570, Note_off_c, 0, 73, 64
8, 53570, Note_on_c, 0, 74, 120
8, 54050, Note_off_c, 0, 74, 64
8, 54050, Note_on_c, 0, 69, 120
8, 54290, Note_off_c, 0, 69, 64
8, 54290, Note_on_c, 0, 69, 120
8, 54530, Note_off_c, 0, 69, 64
8, 54530, Note_on_c, 0, 68, 120
8, 54770, Note_off_c, 0, 68, 64
8, 54770, Note_on_c, 0, 69, 120
8, 55250, Note_off_c, 0, 69, 64
8, 55730, Note_on_c, 0, 74, 120
8, 55970, Note_off_c, 0, 74, 64
8, 55970, Note_on_c, 0, 73, 120
8, 56210, Note_off_c, 0, 73, 64
8, 56210, Note_on_c, 0, 74, 120
8, 56450, Note_off_c, 0, 74, 64
8, 56450, Note_on_c, 0, 73, 120
8, 56690, Note_off_c, 0, 73, 64
8, 56690, Note_on_c, 0, 74, 120
8, 56930, Note_off_c, 0, 74, 64
8, 56930, Note_on_c, 0, 73, 120
8, 57170, Note_off_c, 0, 73, 64
8, 57170, Note_on_c, 0, 74, 120
8, 57410, Note_off_c, 0, 74, 64
8, 57410, Note_on_c, 0, 73, 120
8, 57650, Note_off_c, 0, 73, 64
8, 57650, Note_on_c, 0, 74, 120
8, 57890, Note_off_c, 0, 74, 64
8, 57890, Note_on_c, 0, 73, 120
8, 58130, Note_off_c, 0, 73, 64
8, 58130, Note_on_c, 0, 74, 120
8, 58370, Note_off_c, 0, 74, 64
8, 58370, Note_on_c, 0, 73, 120
8, 58610, Note_off_c, 0, 73, 64
8, 58610, Note_on_c, 0, 76, 120
8, 59090, Note_off_c, 0, 76, 64
8, 59330, Note_on_c, 0, 76, 120
8, 59810, Note_off_c, 0, 76, 64
8, 59810, Note_on_c, 0, 76, 120
8, 60050, Note_off_c, 0, 76, 64
8, 60050, Note_on_c, 0, 76, 120
8, 60530, Note_off_c, 0, 76, 64
8, 60530, Note_on_c, 0, 76, 120
8, 60770, Note_off_c, 0, 76, 64
8, 60770, Note_on_c, 0, 76, 120
8, 61010, Note_off_c, 0, 76, 64
8, 61010, Note_on_c, 0, 76, 120
8, 61250, Note_off_c, 0, 76, 64
8, 61250, Note_on_c, 0, 79, 120
8, 61970, Note_off_c, 0, 79, 64
8, 61970, Note_on_c, 0, 76, 120
8, 62210, Note_off_c, 0, 76, 64
8, 62210, Note_on_c, 0, 76, 120
8, 62690, Note_off_c, 0, 76, 64
8, 62690, Note_on_c, 0, 69, 120
8, 63170, Note_off_c, 0, 69, 64
8, 63170, Note_on_c, 0, 68, 120
8, 63410, Note_off_c, 0, 68, 64
8, 63410, Note_on_c, 0, 69, 120
8, 63890, Note_off_c, 0, 69, 64
8, 63890, Note_on_c, 0, 69, 120
8, 64370, Note_off_c, 0, 69, 64
8, 64370, Note_on_c, 0, 69, 120
8, 64610, Note_off_c, 0, 69, 64
8, 64610, Note_on_c, 0, 69, 120
8, 64850, Note_off_c, 0, 69, 64
8, 66530, Note_on_c, 0, 69, 120
8, 66770, Note_off_c, 0, 69, 64
8, 66770, Note_on_c, 0, 69, 120
8, 67010, Note_off_c, 0, 69, 64
8, 67010, Note_on_c, 0, 68, 120
8, 67250, Note_off_c, 0, 68, 64
8, 67250, Note_on_c, 0, 69, 120
8, 67730, Note_off_c, 0, 69, 64
8, 67730, Note_on_c, 0, 69, 120
8, 68210, Note_off_c, 0, 69, 64
8, 68210, Note_on_c, 0, 69, 120
8, 68450, Note_off_c, 0, 69, 64
8, 68450, Note_on_c, 0, 62, 120
8, 68690, Note_off_c, 0, 62, 64
8, 70370, Note_on_c, 0, 68, 120
8, 70610, Note_off_c, 0, 68, 64
8, 70610, Note_on_c, 0, 69, 120
8, 70850, Note_off_c, 0, 69, 64
8, 70850, Note_on_c, 0, 68, 120
8, 71090, Note_off_c, 0, 68, 64
8, 71090, Note_on_c, 0, 69, 120
8, 71570, Note_off_c, 0, 69, 64
8, 71570, Note_on_c, 0, 69, 120
8, 72050, Note_off_c, 0, 69, 64
8, 72050, Note_on_c, 0, 69, 120
8, 72290, Note_off_c, 0, 69, 64
8, 72290, Note_on_c, 0, 69, 120
8, 72530, Note_off_c, 0, 69, 64
8, 74210, Note_on_c, 0, 76, 120
8, 74690, Note_off_c, 0, 76, 64
8, 74690, Note_on_c, 0, 74, 120
8, 74930, Note_off_c, 0, 74, 64
8, 74930, Note_on_c, 0, 76, 120
8, 75410, Note_off_c, 0, 76, 64
8, 75410, Note_on_c, 0, 74, 120
8, 75890, Note_off_c, 0, 74, 64
8, 75890, Note_on_c, 0, 74, 120
8, 76370, Note_off_c, 0, 74, 64
8, 76370, Note_on_c, 0, 69, 120
8, 76610, Note_off_c, 0, 69, 64
8, 76610, Note_on_c, 0, 69, 120
8, 77330, Note_off_c, 0, 69, 64
8, 147890, Note_on_c, 0, 74, 120
8, 148130, Note_off_c, 0, 74, 64
8, 148130, Note_on_c, 0, 73, 120
8, 148370, Note_off_c, 0, 73, 64
8, 148370, Note_on_c, 0, 74, 120
8, 148610, Note_off_c, 0, 74, 64
8, 148610, Note_on_c, 0, 73, 120
8, 148850, Note_off_c, 0, 73, 64
8, 148850, Note_on_c, 0, 74, 120
8, 149090, Note_off_c, 0, 74, 64
8, 149090, Note_on_c, 0, 73, 120
8, 149330, Note_off_c, 0, 73, 64
8, 149330, Note_on_c, 0, 74, 120
8, 149570, Note_off_c, 0, 74, 64
8, 149570, Note_on_c, 0, 73, 120
8, 149810, Note_off_c, 0, 73, 64
8, 149810, Note_on_c, 0, 74, 120
8, 150290, Note_off_c, 0, 74, 64
8, 150290, Note_on_c, 0, 73, 120
8, 150530, Note_off_c, 0, 73, 64
8, 150530, Note_on_c, 0, 74, 120
8, 151250, Note_off_c, 0, 74, 64
8, 151490, Note_on_c, 0, 76, 120
8, 151970, Note_off_c, 0, 76, 64
8, 151970, Note_on_c, 0, 76, 120
8, 152210, Note_off_c, 0, 76, 64
8, 152210, Note_on_c, 0, 74, 120
8, 152450, Note_off_c, 0, 74, 64
8, 152450, Note_on_c, 0, 73, 120
8, 152690, Note_off_c, 0, 73, 64
8, 152690, Note_on_c, 0, 74, 120
8, 152930, Note_off_c, 0, 74, 64
8, 152930, Note_on_c, 0, 73, 120
8, 153170, Note_off_c, 0, 73, 64
8, 153170, Note_on_c, 0, 73, 120
8, 153410, Note_off_c, 0, 73, 64
8, 153410, Note_on_c, 0, 74, 120
8, 153890, Note_off_c, 0, 74, 64
8, 153890, Note_on_c, 0, 69, 120
8, 154130, Note_off_c, 0, 69, 64
8, 154130, Note_on_c, 0, 69, 120
8, 154370, Note_off_c, 0, 69, 64
8, 154370, Note_on_c, 0, 68, 120
8, 154610, Note_off_c, 0, 68, 64
8, 154610, Note_on_c, 0, 69, 120
8, 155090, Note_off_c, 0, 69, 64
8, 155570, Note_on_c, 0, 74, 120
8, 155810, Note_off_c, 0, 74, 64
8, 155810, Note_on_c, 0, 73, 120
8, 156050, Note_off_c, 0, 73, 64
8, 156050, Note_on_c, 0, 74, 120
8, 156290, Note_off_c, 0, 74, 64
8, 156290, Note_on_c, 0, 73, 120
8, 156530, Note_off_c, 0, 73, 64
8, 156530, Note_on_c, 0, 74, 120
8, 156770, Note_off_c, 0, 74, 64
8, 156770, Note_on_c, 0, 73, 120
8, 157010, Note_off_c, 0, 73, 64
8, 157010, Note_on_c, 0, 74, 120
8, 157250, Note_off_c, 0, 74, 64
8, 157250, Note_on_c, 0, 73, 120
8, 157490, Note_off_c, 0, 73, 64
8, 157490, Note_on_c, 0, 74, 120
8, 157730, Note_off_c, 0, 74, 64
8, 157730, Note_on_c, 0, 73, 120
8, 157970, Note_off_c, 0, 73, 64
8, 157970, Note_on_c, 0, 74, 120
8, 158210, Note_off_c, 0, 74, 64
8, 158210, Note_on_c, 0, 73, 120
8, 158450, Note_off_c, 0, 73, 64
8, 158450, Note_on_c, 0, 76, 120
8, 158930, Note_off_c, 0, 76, 64
8, 159170, Note_on_c, 0, 76, 120
8, 159650, Note_off_c, 0, 76, 64
8, 159650, Note_on_c, 0, 76, 120
8, 159890, Note_off_c, 0, 76, 64
8, 159890, Note_on_c, 0, 76, 120
8, 160370, Note_off_c, 0, 76, 64
8, 160370, Note_on_c, 0, 76, 120
8, 160610, Note_off_c, 0, 76, 64
8, 160610, Note_on_c, 0, 76, 120
8, 160850, Note_off_c, 0, 76, 64
8, 160850, Note_on_c, 0, 76, 120
8, 161090, Note_off_c, 0, 76, 64
8, 161090, Note_on_c, 0, 79, 120
8, 161810, Note_off_c, 0, 79, 64
8, 161810, Note_on_c, 0, 76, 120
8, 162050, Note_off_c, 0, 76, 64
8, 162050, Note_on_c, 0, 76, 120
8, 162530, Note_off_c, 0, 76, 64
8, 162530, Note_on_c, 0, 69, 120
8, 163010, Note_off_c, 0, 69, 64
8, 163010, Note_on_c, 0, 68, 120
8, 163250, Note_off_c, 0, 68, 64
8, 163250, Note_on_c, 0, 69, 120
8, 163730, Note_off_c, 0, 69, 64
8, 163730, Note_on_c, 0, 69, 120
8, 164210, Note_off_c, 0, 69, 64
8, 164210, Note_on_c, 0, 69, 120
8, 164450, Note_off_c, 0, 69, 64
8, 164450, Note_on_c, 0, 69, 120
8, 164690, Note_off_c, 0, 69, 64
8, 166370, Note_on_c, 0, 69, 120
8, 166610, Note_off_c, 0, 69, 64
8, 166610, Note_on_c, 0, 69, 120
8, 166850, Note_off_c, 0, 69, 64
8, 166850, Note_on_c, 0, 68, 120
8, 167090, Note_off_c, 0, 68, 64
8, 167090, Note_on_c, 0, 69, 120
8, 167570, Note_off_c, 0, 69, 64
8, 167570, Note_on_c, 0, 69, 120
8, 168050, Note_off_c, 0, 69, 64
8, 168050, Note_on_c, 0, 69, 120
8, 168290, Note_off_c, 0, 69, 64
8, 168290, Note_on_c, 0, 62, 120
8, 168530, Note_off_c, 0, 62, 64
8, 170210, Note_on_c, 0, 68, 120
8, 170450, Note_off_c, 0, 68, 64
8, 170450, Note_on_c, 0, 69, 120
8, 170690, Note_off_c, 0, 69, 64
8, 170690, Note_on_c, 0, 68, 120
8, 170930, Note_off_c, 0, 68, 64
8, 170930, Note_on_c, 0, 69, 120
8, 171410, Note_off_c, 0, 69, 64
8, 171410, Note_on_c, 0, 69, 120
8, 171890, Note_off_c, 0, 69, 64
8, 171890, Note_on_c, 0, 69, 120
8, 172130, Note_off_c, 0, 69, 64
8, 172130, Note_on_c, 0, 69, 120
8, 172370, Note_off_c, 0, 69, 64
8, 174050, Note_on_c, 0, 76, 120
8, 174530, Note_off_c, 0, 76, 64
8, 174530, Note_on_c, 0, 74, 120
8, 174770, Note_off_c, 0, 74, 64
8, 174770, Note_on_c, 0, 76, 120
8, 175250, Note_off_c, 0, 76, 64
8, 175250, Note_on_c, 0, 74, 120
8, 175730, Note_off_c, 0, 74, 64
8, 175730, Note_on_c, 0, 74, 120
8, 176210, Note_off_c, 0, 74, 64
8, 176210, Note_on_c, 0, 69, 120
8, 176450, Note_off_c, 0, 69, 64
8, 176450, Note_on_c, 0, 69, 120
8, 177170, Note_off_c, 0, 69, 64
8, 177170, End_track
9, 0, Start_track
9, 0, MIDI_port, 0
9, 0, Channel_prefix, 6
9, 0, Control_c, 6, 7, 127
9, 0, Control_c, 6, 10, 64
9, 0, Program_c, 6, 66
9, 45, Control_c, 6, 121, 0
9, 45, Pitch_bend_c, 6, 8282
9, 46, Control_c, 6, 91, 90
9, 48, Control_c, 6, 93, 80
9, 49, Control_c, 6, 2, 127
9, 53, Control_c, 6, 11, 127
9, 8880, Note_on_c, 6, 64, 120
9, 9120, Note_off_c, 6, 64, 64
9, 9120, Note_on_c, 6, 64, 120
9, 9360, Note_off_c, 6, 64, 64
9, 9360, Note_on_c, 6, 64, 120
9, 9600, Note_off_c, 6, 64, 64
9, 9600, Note_on_c, 6, 64, 120
9, 10080, Note_off_c, 6, 64, 64
9, 10080, Note_on_c, 6, 64, 120
9, 10560, Note_off_c, 6, 64, 64
9, 10560, Note_on_c, 6, 64, 120
9, 10800, Note_off_c, 6, 64, 64
9, 10800, Note_on_c, 6, 64, 120
9, 11040, Note_off_c, 6, 64, 64
9, 11040, Note_on_c, 6, 64, 120
9, 11520, Note_off_c, 6, 64, 64
9, 11520, Note_on_c, 6, 64, 120
9, 12000, Note_off_c, 6, 64, 64
9, 12000, Note_on_c, 6, 63, 120
9, 12240, Note_off_c, 6, 63, 64
9, 12240, Note_on_c, 6, 64, 120
9, 12960, Note_off_c, 6, 64, 64
9, 13200, Note_on_c, 6, 64, 120
9, 13680, Note_off_c, 6, 64, 64
9, 13680, Note_on_c, 6, 62, 120
9, 13920, Note_off_c, 6, 62, 64
9, 13920, Note_on_c, 6, 64, 120
9, 14160, Note_off_c, 6, 64, 64
9, 14160, Note_on_c, 6, 62, 120
9, 14400, Note_off_c, 6, 62, 64
9, 14400, Note_on_c, 6, 64, 120
9, 14640, Note_off_c, 6, 64, 64
9, 14640, Note_on_c, 6, 62, 120
9, 14880, Note_off_c, 6, 62, 64
9, 14880, Note_on_c, 6, 64, 120
9, 15120, Note_off_c, 6, 64, 64
9, 15120, Note_on_c, 6, 64, 120
9, 15360, Note_off_c, 6, 64, 64
9, 15360, Note_on_c, 6, 64, 120
9, 15840, Note_off_c, 6, 64, 64
9, 15840, Note_on_c, 6, 57, 120
9, 15960, Note_off_c, 6, 57, 64
9, 15960, Note_on_c, 6, 57, 120
9, 16080, Note_off_c, 6, 57, 64
9, 16080, Note_on_c, 6, 57, 120
9, 16800, Note_off_c, 6, 57, 64
9, 17040, Note_on_c, 6, 62, 120
9, 17520, Note_off_c, 6, 62, 64
9, 17520, Note_on_c, 6, 62, 120
9, 17760, Note_off_c, 6, 62, 64
9, 17760, Note_on_c, 6, 62, 120
9, 18000, Note_off_c, 6, 62, 64
9, 18000, Note_on_c, 6, 62, 120
9, 18240, Note_off_c, 6, 62, 64
9, 18240, Note_on_c, 6, 62, 120
9, 18480, Note_off_c, 6, 62, 64
9, 18480, Note_on_c, 6, 61, 120
9, 18720, Note_off_c, 6, 61, 64
9, 18720, Note_on_c, 6, 62, 120
9, 18960, Note_off_c, 6, 62, 64
9, 18960, Note_on_c, 6, 61, 120
9, 19200, Note_off_c, 6, 61, 64
9, 19200, Note_on_c, 6, 62, 120
9, 19680, Note_off_c, 6, 62, 64
9, 19680, Note_on_c, 6, 61, 120
9, 19920, Note_off_c, 6, 61, 64
9, 19920, Note_on_c, 6, 64, 120
9, 20400, Note_off_c, 6, 64, 64
9, 20400, Note_on_c, 6, 64, 120
9, 20640, Note_off_c, 6, 64, 64
9, 20640, Note_on_c, 6, 62, 120
9, 20880, Note_off_c, 6, 62, 64
9, 20880, Note_on_c, 6, 61, 120
9, 21120, Note_off_c, 6, 61, 64
9, 21120, Note_on_c, 6, 64, 120
9, 21600, Note_off_c, 6, 64, 64
9, 21600, Note_on_c, 6, 62, 120
9, 22080, Note_off_c, 6, 62, 64
9, 22080, Note_on_c, 6, 62, 120
9, 22320, Note_off_c, 6, 62, 64
9, 22320, Note_on_c, 6, 61, 120
9, 22560, Note_off_c, 6, 61, 64
9, 22800, Note_on_c, 6, 62, 120
9, 23280, Note_off_c, 6, 62, 64
9, 23280, Note_on_c, 6, 57, 120
9, 23520, Note_off_c, 6, 57, 64
9, 23520, Note_on_c, 6, 57, 120
9, 23760, Note_off_c, 6, 57, 64
9, 23760, Note_on_c, 6, 57, 120
9, 24480, Note_off_c, 6, 57, 64
9, 24720, Note_on_c, 6, 62, 120
9, 25440, Note_off_c, 6, 62, 64
9, 25440, Note_on_c, 6, 62, 120
9, 25680, Note_off_c, 6, 62, 64
9, 25680, Note_on_c, 6, 61, 120
9, 25920, Note_off_c, 6, 61, 64
9, 25920, Note_on_c, 6, 62, 120
9, 26160, Note_off_c, 6, 62, 64
9, 26160, Note_on_c, 6, 64, 120
9, 26400, Note_off_c, 6, 64, 64
9, 26400, Note_on_c, 6, 64, 120
9, 26640, Note_off_c, 6, 64, 64
9, 26640, Note_on_c, 6, 64, 120
9, 26880, Note_off_c, 6, 64, 64
9, 26880, Note_on_c, 6, 64, 120
9, 27360, Note_off_c, 6, 64, 64
9, 27360, Note_on_c, 6, 62, 120
9, 27840, Note_off_c, 6, 62, 64
9, 27840, Note_on_c, 6, 62, 120
9, 28080, Note_off_c, 6, 62, 64
9, 28320, Note_on_c, 6, 57, 120
9, 28560, Note_off_c, 6, 57, 64
9, 28560, Note_on_c, 6, 57, 120
9, 29280, Note_off_c, 6, 57, 64
9, 32400, Note_on_c, 6, 62, 120
9, 33120, Note_off_c, 6, 62, 64
9, 33120, Note_on_c, 6, 62, 120
9, 33360, Note_off_c, 6, 62, 64
9, 33360, Note_on_c, 6, 61, 120
9, 33600, Note_off_c, 6, 61, 64
9, 33600, Note_on_c, 6, 62, 120
9, 33840, Note_off_c, 6, 62, 64
9, 33840, Note_on_c, 6, 62, 120
9, 34080, Note_off_c, 6, 62, 64
9, 34320, Note_on_c, 6, 61, 120
9, 34560, Note_off_c, 6, 61, 64
9, 34560, Note_on_c, 6, 62, 120
9, 34800, Note_off_c, 6, 62, 64
9, 34800, Note_on_c, 6, 62, 120
9, 35040, Note_off_c, 6, 62, 64
9, 35040, Note_on_c, 6, 62, 120
9, 35280, Note_off_c, 6, 62, 64
9, 35280, Note_on_c, 6, 64, 120
9, 36000, Note_off_c, 6, 64, 64
9, 36240, Note_on_c, 6, 62, 120
9, 36480, Note_off_c, 6, 62, 64
9, 36480, Note_on_c, 6, 64, 120
9, 36720, Note_off_c, 6, 64, 64
9, 36720, Note_on_c, 6, 61, 120
9, 36960, Note_off_c, 6, 61, 64
9, 36960, Note_on_c, 6, 62, 120
9, 37200, Note_off_c, 6, 62, 64
9, 37200, Note_on_c, 6, 61, 120
9, 37440, Note_off_c, 6, 61, 64
9, 37440, Note_on_c, 6, 62, 120
9, 37680, Note_off_c, 6, 62, 64
9, 37680, Note_on_c, 6, 61, 120
9, 37920, Note_off_c, 6, 61, 64
9, 37920, Note_on_c, 6, 62, 120
9, 38160, Note_off_c, 6, 62, 64
9, 38160, Note_on_c, 6, 61, 120
9, 38400, Note_off_c, 6, 61, 64
9, 38400, Note_on_c, 6, 62, 120
9, 38640, Note_off_c, 6, 62, 64
9, 38640, Note_on_c, 6, 61, 120
9, 38880, Note_off_c, 6, 61, 64
9, 38880, Note_on_c, 6, 57, 120
9, 39120, Note_off_c, 6, 57, 64
9, 39120, Note_on_c, 6, 57, 120
9, 39840, Note_off_c, 6, 57, 64
9, 40080, Note_on_c, 6, 61, 120
9, 40320, Note_off_c, 6, 61, 64
9, 40320, Note_on_c, 6, 62, 120
9, 40560, Note_off_c, 6, 62, 64
9, 40560, Note_on_c, 6, 61, 120
9, 40800, Note_off_c, 6, 61, 64
9, 40800, Note_on_c, 6, 62, 120
9, 41040, Note_off_c, 6, 62, 64
9, 41040, Note_on_c, 6, 61, 120
9, 41280, Note_off_c, 6, 61, 64
9, 41280, Note_on_c, 6, 62, 120
9, 41520, Note_off_c, 6, 62, 64
9, 41520, Note_on_c, 6, 61, 120
9, 41760, Note_off_c, 6, 61, 64
9, 41760, Note_on_c, 6, 62, 120
9, 42000, Note_off_c, 6, 62, 64
9, 42000, Note_on_c, 6, 61, 120
9, 42240, Note_off_c, 6, 61, 64
9, 42240, Note_on_c, 6, 62, 120
9, 42720, Note_off_c, 6, 62, 64
9, 42720, Note_on_c, 6, 61, 120
9, 42960, Note_off_c, 6, 61, 64
9, 42960, Note_on_c, 6, 64, 120
9, 43440, Note_off_c, 6, 64, 64
9, 43440, Note_on_c, 6, 64, 120
9, 43680, Note_off_c, 6, 64, 64
9, 43680, Note_on_c, 6, 62, 120
9, 43920, Note_off_c, 6, 62, 64
9, 43920, Note_on_c, 6, 61, 120
9, 44160, Note_off_c, 6, 61, 64
9, 44160, Note_on_c, 6, 64, 120
9, 44640, Note_off_c, 6, 64, 64
9, 44640, Note_on_c, 6, 64, 120
9, 44880, Note_off_c, 6, 64, 64
9, 44880, Note_on_c, 6, 62, 120
9, 45120, Note_off_c, 6, 62, 64
9, 45120, Note_on_c, 6, 64, 120
9, 45360, Note_off_c, 6, 64, 64
9, 45360, Note_on_c, 6, 64, 120
9, 45600, Note_off_c, 6, 64, 64
9, 45600, Note_on_c, 6, 64, 120
9, 45840, Note_off_c, 6, 64, 64
9, 45840, Note_on_c, 6, 68, 120
9, 46320, Note_off_c, 6, 68, 64
9, 46320, Note_on_c, 6, 64, 120
9, 46560, Note_off_c, 6, 64, 64
9, 46560, Note_on_c, 6, 64, 120
9, 46800, Note_off_c, 6, 64, 64
9, 46800, Note_on_c, 6, 64, 120
9, 47040, Note_off_c, 6, 64, 64
9, 48000, Note_on_c, 6, 62, 120
9, 48240, Note_off_c, 6, 62, 64
9, 48240, Note_on_c, 6, 61, 120
9, 48480, Note_off_c, 6, 61, 64
9, 48480, Note_on_c, 6, 62, 120
9, 48720, Note_off_c, 6, 62, 64
9, 48720, Note_on_c, 6, 61, 120
9, 48960, Note_off_c, 6, 61, 64
9, 48960, Note_on_c, 6, 62, 120
9, 49200, Note_off_c, 6, 62, 64
9, 49200, Note_on_c, 6, 61, 120
9, 49440, Note_off_c, 6, 61, 64
9, 49440, Note_on_c, 6, 62, 120
9, 49680, Note_off_c, 6, 62, 64
9, 49680, Note_on_c, 6, 61, 120
9, 49920, Note_off_c, 6, 61, 64
9, 49920, Note_on_c, 6, 62, 120
9, 50400, Note_off_c, 6, 62, 64
9, 50400, Note_on_c, 6, 61, 120
9, 50640, Note_off_c, 6, 61, 64
9, 50640, Note_on_c, 6, 62, 120
9, 51360, Note_off_c, 6, 62, 64
9, 51600, Note_on_c, 6, 64, 120
9, 52080, Note_off_c, 6, 64, 64
9, 52080, Note_on_c, 6, 64, 120
9, 52320, Note_off_c, 6, 64, 64
9, 52320, Note_on_c, 6, 62, 120
9, 52560, Note_off_c, 6, 62, 64
9, 52560, Note_on_c, 6, 61, 120
9, 52800, Note_off_c, 6, 61, 64
9, 52800, Note_on_c, 6, 62, 120
9, 53040, Note_off_c, 6, 62, 64
9, 53040, Note_on_c, 6, 61, 120
9, 53280, Note_off_c, 6, 61, 64
9, 53280, Note_on_c, 6, 61, 120
9, 53520, Note_off_c, 6, 61, 64
9, 53520, Note_on_c, 6, 62, 120
9, 54000, Note_off_c, 6, 62, 64
9, 54000, Note_on_c, 6, 57, 120
9, 54240, Note_off_c, 6, 57, 64
9, 54240, Note_on_c, 6, 57, 120
9, 54480, Note_off_c, 6, 57, 64
9, 54480, Note_on_c, 6, 56, 120
9, 54720, Note_off_c, 6, 56, 64
9, 54720, Note_on_c, 6, 57, 120
9, 55200, Note_off_c, 6, 57, 64
9, 55680, Note_on_c, 6, 62, 120
9, 55920, Note_off_c, 6, 62, 64
9, 55920, Note_on_c, 6, 61, 120
9, 56160, Note_off_c, 6, 61, 64
9, 56160, Note_on_c, 6, 62, 120
9, 56400, Note_off_c, 6, 62, 64
9, 56400, Note_on_c, 6, 61, 120
9, 56640, Note_off_c, 6, 61, 64
9, 56640, Note_on_c, 6, 62, 120
9, 56880, Note_off_c, 6, 62, 64
9, 56880, Note_on_c, 6, 61, 120
9, 57120, Note_off_c, 6, 61, 64
9, 57120, Note_on_c, 6, 62, 120
9, 57360, Note_off_c, 6, 62, 64
9, 57360, Note_on_c, 6, 61, 120
9, 57600, Note_off_c, 6, 61, 64
9, 57600, Note_on_c, 6, 62, 120
9, 57840, Note_off_c, 6, 62, 64
9, 57840, Note_on_c, 6, 61, 120
9, 58080, Note_off_c, 6, 61, 64
9, 58080, Note_on_c, 6, 62, 120
9, 58320, Note_off_c, 6, 62, 64
9, 58320, Note_on_c, 6, 61, 120
9, 58560, Note_off_c, 6, 61, 64
9, 58560, Note_on_c, 6, 64, 120
9, 59040, Note_off_c, 6, 64, 64
9, 59280, Note_on_c, 6, 64, 120
9, 59760, Note_off_c, 6, 64, 64
9, 59760, Note_on_c, 6, 64, 120
9, 60000, Note_off_c, 6, 64, 64
9, 60000, Note_on_c, 6, 64, 120
9, 60480, Note_off_c, 6, 64, 64
9, 60480, Note_on_c, 6, 64, 120
9, 60720, Note_off_c, 6, 64, 64
9, 60720, Note_on_c, 6, 64, 120
9, 60960, Note_off_c, 6, 64, 64
9, 60960, Note_on_c, 6, 64, 120
9, 61200, Note_off_c, 6, 64, 64
9, 61200, Note_on_c, 6, 67, 120
9, 61920, Note_off_c, 6, 67, 64
9, 61920, Note_on_c, 6, 64, 120
9, 62160, Note_off_c, 6, 64, 64
9, 62160, Note_on_c, 6, 64, 120
9, 62640, Note_off_c, 6, 64, 64
9, 62640, Note_on_c, 6, 57, 120
9, 63120, Note_off_c, 6, 57, 64
9, 63120, Note_on_c, 6, 56, 120
9, 63360, Note_off_c, 6, 56, 64
9, 63360, Note_on_c, 6, 57, 120
9, 63840, Note_off_c, 6, 57, 64
9, 63840, Note_on_c, 6, 57, 120
9, 64320, Note_off_c, 6, 57, 64
9, 64320, Note_on_c, 6, 57, 120
9, 64560, Note_off_c, 6, 57, 64
9, 64560, Note_on_c, 6, 57, 120
9, 64800, Note_off_c, 6, 57, 64
9, 66480, Note_on_c, 6, 57, 120
9, 66720, Note_off_c, 6, 57, 64
9, 66720, Note_on_c, 6, 57, 120
9, 66960, Note_off_c, 6, 57, 64
9, 66960, Note_on_c, 6, 56, 120
9, 67200, Note_off_c, 6, 56, 64
9, 67200, Note_on_c, 6, 57, 120
9, 67680, Note_off_c, 6, 57, 64
9, 67680, Note_on_c, 6, 57, 120
9, 68160, Note_off_c, 6, 57, 64
9, 68160, Note_on_c, 6, 57, 120
9, 68400, Note_off_c, 6, 57, 64
9, 68400, Note_on_c, 6, 50, 120
9, 68640, Note_off_c, 6, 50, 64
9, 70320, Note_on_c, 6, 56, 120
9, 70560, Note_off_c, 6, 56, 64
9, 70560, Note_on_c, 6, 57, 120
9, 70800, Note_off_c, 6, 57, 64
9, 70800, Note_on_c, 6, 56, 120
9, 71040, Note_off_c, 6, 56, 64
9, 71040, Note_on_c, 6, 57, 120
9, 71520, Note_off_c, 6, 57, 64
9, 71520, Note_on_c, 6, 57, 120
9, 72000, Note_off_c, 6, 57, 64
9, 72000, Note_on_c, 6, 57, 120
9, 72240, Note_off_c, 6, 57, 64
9, 72240, Note_on_c, 6, 57, 120
9, 72480, Note_off_c, 6, 57, 64
9, 74160, Note_on_c, 6, 64, 120
9, 74640, Note_off_c, 6, 64, 64
9, 74640, Note_on_c, 6, 62, 120
9, 74880, Note_off_c, 6, 62, 64
9, 74880, Note_on_c, 6, 64, 120
9, 75360, Note_off_c, 6, 64, 64
9, 75360, Note_on_c, 6, 62, 120
9, 75840, Note_off_c, 6, 62, 64
9, 75840, Note_on_c, 6, 62, 120
9, 76320, Note_off_c, 6, 62, 64
9, 76320, Note_on_c, 6, 57, 120
9, 76560, Note_off_c, 6, 57, 64
9, 76560, Note_on_c, 6, 57, 120
9, 77280, Note_off_c, 6, 57, 64
9, 147840, Note_on_c, 6, 62, 120
9, 148080, Note_off_c, 6, 62, 64
9, 148080, Note_on_c, 6, 61, 120
9, 148320, Note_off_c, 6, 61, 64
9, 148320, Note_on_c, 6, 62, 120
9, 148560, Note_off_c, 6, 62, 64
9, 148560, Note_on_c, 6, 61, 120
9, 148800, Note_off_c, 6, 61, 64
9, 148800, Note_on_c, 6, 62, 120
9, 149040, Note_off_c, 6, 62, 64
9, 149040, Note_on_c, 6, 61, 120
9, 149280, Note_off_c, 6, 61, 64
9, 149280, Note_on_c, 6, 62, 120
9, 149520, Note_off_c, 6, 62, 64
9, 149520, Note_on_c, 6, 61, 120
9, 149760, Note_off_c, 6, 61, 64
9, 149760, Note_on_c, 6, 62, 120
9, 150240, Note_off_c, 6, 62, 64
9, 150240, Note_on_c, 6, 61, 120
9, 150480, Note_off_c, 6, 61, 64
9, 150480, Note_on_c, 6, 62, 120
9, 151200, Note_off_c, 6, 62, 64
9, 151440, Note_on_c, 6, 64, 120
9, 151920, Note_off_c, 6, 64, 64
9, 151920, Note_on_c, 6, 64, 120
9, 152160, Note_off_c, 6, 64, 64
9, 152160, Note_on_c, 6, 62, 120
9, 152400, Note_off_c, 6, 62, 64
9, 152400, Note_on_c, 6, 61, 120
9, 152640, Note_off_c, 6, 61, 64
9, 152640, Note_on_c, 6, 62, 120
9, 152880, Note_off_c, 6, 62, 64
9, 152880, Note_on_c, 6, 61, 120
9, 153120, Note_off_c, 6, 61, 64
9, 153120, Note_on_c, 6, 61, 120
9, 153360, Note_off_c, 6, 61, 64
9, 153360, Note_on_c, 6, 62, 120
9, 153840, Note_off_c, 6, 62, 64
9, 153840, Note_on_c, 6, 57, 120
9, 154080, Note_off_c, 6, 57, 64
9, 154080, Note_on_c, 6, 57, 120
9, 154320, Note_off_c, 6, 57, 64
9, 154320, Note_on_c, 6, 56, 120
9, 154560, Note_off_c, 6, 56, 64
9, 154560, Note_on_c, 6, 57, 120
9, 155040, Note_off_c, 6, 57, 64
9, 155520, Note_on_c, 6, 62, 120
9, 155760, Note_off_c, 6, 62, 64
9, 155760, Note_on_c, 6, 61, 120
9, 156000, Note_off_c, 6, 61, 64
9, 156000, Note_on_c, 6, 62, 120
9, 156240, Note_off_c, 6, 62, 64
9, 156240, Note_on_c, 6, 61, 120
9, 156480, Note_off_c, 6, 61, 64
9, 156480, Note_on_c, 6, 62, 120
9, 156720, Note_off_c, 6, 62, 64
9, 156720, Note_on_c, 6, 61, 120
9, 156960, Note_off_c, 6, 61, 64
9, 156960, Note_on_c, 6, 62, 120
9, 157200, Note_off_c, 6, 62, 64
9, 157200, Note_on_c, 6, 61, 120
9, 157440, Note_off_c, 6, 61, 64
9, 157440, Note_on_c, 6, 62, 120
9, 157680, Note_off_c, 6, 62, 64
9, 157680, Note_on_c, 6, 61, 120
9, 157920, Note_off_c, 6, 61, 64
9, 157920, Note_on_c, 6, 62, 120
9, 158160, Note_off_c, 6, 62, 64
9, 158160, Note_on_c, 6, 61, 120
9, 158400, Note_off_c, 6, 61, 64
9, 158400, Note_on_c, 6, 64, 120
9, 158880, Note_off_c, 6, 64, 64
9, 159120, Note_on_c, 6, 64, 120
9, 159600, Note_off_c, 6, 64, 64
9, 159600, Note_on_c, 6, 64, 120
9, 159840, Note_off_c, 6, 64, 64
9, 159840, Note_on_c, 6, 64, 120
9, 160320, Note_off_c, 6, 64, 64
9, 160320, Note_on_c, 6, 64, 120
9, 160560, Note_off_c, 6, 64, 64
9, 160560, Note_on_c, 6, 64, 120
9, 160800, Note_off_c, 6, 64, 64
9, 160800, Note_on_c, 6, 64, 120
9, 161040, Note_off_c, 6, 64, 64
9, 161040, Note_on_c, 6, 67, 120
9, 161760, Note_off_c, 6, 67, 64
9, 161760, Note_on_c, 6, 64, 120
9, 162000, Note_off_c, 6, 64, 64
9, 162000, Note_on_c, 6, 64, 120
9, 162480, Note_off_c, 6, 64, 64
9, 162480, Note_on_c, 6, 57, 120
9, 162960, Note_off_c, 6, 57, 64
9, 162960, Note_on_c, 6, 56, 120
9, 163200, Note_off_c, 6, 56, 64
9, 163200, Note_on_c, 6, 57, 120
9, 163680, Note_off_c, 6, 57, 64
9, 163680, Note_on_c, 6, 57, 120
9, 164160, Note_off_c, 6, 57, 64
9, 164160, Note_on_c, 6, 57, 120
9, 164400, Note_off_c, 6, 57, 64
9, 164400, Note_on_c, 6, 57, 120
9, 164640, Note_off_c, 6, 57, 64
9, 166320, Note_on_c, 6, 57, 120
9, 166560, Note_off_c, 6, 57, 64
9, 166560, Note_on_c, 6, 57, 120
9, 166800, Note_off_c, 6, 57, 64
9, 166800, Note_on_c, 6, 56, 120
9, 167040, Note_off_c, 6, 56, 64
9, 167040, Note_on_c, 6, 57, 120
9, 167520, Note_off_c, 6, 57, 64
9, 167520, Note_on_c, 6, 57, 120
9, 168000, Note_off_c, 6, 57, 64
9, 168000, Note_on_c, 6, 57, 120
9, 168240, Note_off_c, 6, 57, 64
9, 168240, Note_on_c, 6, 50, 120
9, 168480, Note_off_c, 6, 50, 64
9, 170160, Note_on_c, 6, 56, 120
9, 170400, Note_off_c, 6, 56, 64
9, 170400, Note_on_c, 6, 57, 120
9, 170640, Note_off_c, 6, 57, 64
9, 170640, Note_on_c, 6, 56, 120
9, 170880, Note_off_c, 6, 56, 64
9, 170880, Note_on_c, 6, 57, 120
9, 171360, Note_off_c, 6, 57, 64
9, 171360, Note_on_c, 6, 57, 120
9, 171840, Note_off_c, 6, 57, 64
9, 171840, Note_on_c, 6, 57, 120
9, 172080, Note_off_c, 6, 57, 64
9, 172080, Note_on_c, 6, 57, 120
9, 172320, Note_off_c, 6, 57, 64
9, 174000, Note_on_c, 6, 64, 120
9, 174480, Note_off_c, 6, 64, 64
9, 174480, Note_on_c, 6, 62, 120
9, 174720, Note_off_c, 6, 62, 64
9, 174720, Note_on_c, 6, 64, 120
9, 175200, Note_off_c, 6, 64, 64
9, 175200, Note_on_c, 6, 62, 120
9, 175680, Note_off_c, 6, 62, 64
9, 175680, Note_on_c, 6, 62, 120
9, 176160, Note_off_c, 6, 62, 64
9, 176160, Note_on_c, 6, 57, 120
9, 176400, Note_off_c, 6, 57, 64
9, 176400, Note_on_c, 6, 57, 120
9, 177120, Note_off_c, 6, 57, 64
9, 177120, End_track
0, 0, End_of_file
