0, 0, Header, 1, 6, 96
1, 0, Start_track
1, 0, Title_t, "LOVE ME TENDER                  ;Elvis Presley / Vera Matson"
1, 0, Copyright_t, "(C) 1994 Tune 1000 Corporation  ;Elvis Presley Music (BMI). Int'l Rights Secured."
1, 0, Time_signature, 4, 2, 24, 8
1, 0, Tempo, 789474
1, 0, Key_signature, 2, "major"
1, 0, System_exclusive, 5, 126, 127, 9, 1, 247
1, 0, Lyric_t, "ALL rights reserved. Not for broadcast or "
1, 0, Lyric_t, "\015"
1, 0, Lyric_t, "transmission of any kind. "
1, 0, Lyric_t, "\015"
1, 0, Lyric_t, "DO NOT DUPLICATE. NOT FOR RENTAL. "
1, 0, Lyric_t, "\015"
1, 384, Time_signature, 4, 2, 24, 8
1, 526, Lyric_t, "\012"
1, 769, Lyric_t, "Love "
1, 867, Lyric_t, "me "
1, 1006, Lyric_t, "ten"
1, 1053, Lyric_t, "der, "
1, 1209, Lyric_t, "love "
1, 1249, Lyric_t, "me "
1, 1302, Lyric_t, "sweet; "
1, 1302, Lyric_t, "\015"
1, 1623, Lyric_t, "nev"
1, 1658, Lyric_t, "er "
1, 1777, Lyric_t, "let "
1, 1826, Lyric_t, "me "
1, 1906, Lyric_t, "go. "
1, 1906, Lyric_t, "\015"
1, 2099, Lyric_t, "\012"
1, 2342, Lyric_t, "You "
1, 2394, Lyric_t, "have "
1, 2589, Lyric_t, "made "
1, 2633, Lyric_t, "my "
1, 2670, Lyric_t, "life "
1, 2828, Lyric_t, "com"
1, 2868, Lyric_t, "plete, "
1, 2868, Lyric_t, "\015"
1, 3073, Lyric_t, "and "
1, 3204, Lyric_t, "I "
1, 3299, Lyric_t, "love "
1, 3338, Lyric_t, "you "
1, 3448, Lyric_t, "so. "
1, 3448, Lyric_t, "\015"
1, 3593, Lyric_t, "\012"
1, 3836, Lyric_t, "Love "
1, 3888, Lyric_t, "me "
1, 4027, Lyric_t, "ten"
1, 4077, Lyric_t, "der, "
1, 4318, Lyric_t, "love "
1, 4371, Lyric_t, "me "
1, 4418, Lyric_t, "true; "
1, 4418, Lyric_t, "\015"
1, 4601, Lyric_t, "all "
1, 4749, Lyric_t, "my "
1, 4802, Lyric_t, "dreams "
1, 4951, Lyric_t, "ful"
1, 4998, Lyric_t, "fill, "
1, 4998, Lyric_t, "\015"
1, 5130, Lyric_t, "\012"
1, 5373, Lyric_t, "for, "
1, 5430, Lyric_t, "my "
1, 5571, Lyric_t, "dar"
1, 5644, Lyric_t, "ling, "
1, 5763, Lyric_t, "I "
1, 5853, Lyric_t, "love "
1, 5905, Lyric_t, "you "
1, 5905, Lyric_t, "\015"
1, 6149, Lyric_t, "and "
1, 6292, Lyric_t, "I "
1, 6343, Lyric_t, "al"
1, 6408, Lyric_t, "ways "
1, 6531, Lyric_t, "will. "
1, 6531, Lyric_t, "\015"
1, 6662, Lyric_t, "\012"
1, 6905, Lyric_t, "Love "
1, 6975, Lyric_t, "me "
1, 7145, Lyric_t, "ten"
1, 7198, Lyric_t, "der, "
1, 7294, Lyric_t, "love "
1, 7394, Lyric_t, "me "
1, 7442, Lyric_t, "long; "
1, 7442, Lyric_t, "\015"
1, 7687, Lyric_t, "take "
1, 7734, Lyric_t, "me "
1, 7920, Lyric_t, "to "
1, 7971, Lyric_t, "your "
1, 8061, Lyric_t, "heart, "
1, 8061, Lyric_t, "\015"
1, 8202, Lyric_t, "\012"
1, 8445, Lyric_t, "for "
1, 8504, Lyric_t, "it's "
1, 8689, Lyric_t, "there "
1, 8765, Lyric_t, "that "
1, 8810, Lyric_t, "I "
1, 8982, Lyric_t, "be"
1, 9015, Lyric_t, "long, "
1, 9015, Lyric_t, "\015"
1, 9216, Lyric_t, "and "
1, 9370, Lyric_t, "we'll "
1, 9473, Lyric_t, "nev"
1, 9507, Lyric_t, "er "
1, 9600, Lyric_t, "part. "
1, 9600, Lyric_t, "\015"
1, 9732, Lyric_t, "\012"
1, 9975, Lyric_t, "Love "
1, 10033, Lyric_t, "me "
1, 10225, Lyric_t, "ten"
1, 10276, Lyric_t, "der, "
1, 10422, Lyric_t, "love "
1, 10490, Lyric_t, "me "
1, 10550, Lyric_t, "true; "
1, 10550, Lyric_t, "\015"
1, 10752, Lyric_t, "all "
1, 10907, Lyric_t, "my "
1, 10953, Lyric_t, "dreams "
1, 11093, Lyric_t, "ful"
1, 11149, Lyric_t, "fill, "
1, 11149, Lyric_t, "\015"
1, 11278, Lyric_t, "\012"
1, 11521, Lyric_t, "for, "
1, 11569, Lyric_t, "my "
1, 11758, Lyric_t, "dar"
1, 11804, Lyric_t, "ling, "
1, 11950, Lyric_t, "I "
1, 12001, Lyric_t, "love "
1, 12051, Lyric_t, "you "
1, 12051, Lyric_t, "\015"
1, 12290, Lyric_t, "and "
1, 12341, Lyric_t, "I "
1, 12528, Lyric_t, "al"
1, 12580, Lyric_t, "ways "
1, 12675, Lyric_t, "will. "
1, 12675, Lyric_t, "\015"
1, 12810, Lyric_t, "\012"
1, 13053, Lyric_t, "Love "
1, 13112, Lyric_t, "me "
1, 13292, Lyric_t, "ten"
1, 13338, Lyric_t, "der, "
1, 13490, Lyric_t, "love "
1, 13548, Lyric_t, "me "
1, 13590, Lyric_t, "dear; "
1, 13590, Lyric_t, "\015"
1, 13821, Lyric_t, "tell "
1, 13873, Lyric_t, "me "
1, 14007, Lyric_t, "you "
1, 14058, Lyric_t, "are "
1, 14200, Lyric_t, "mine. "
1, 14200, Lyric_t, "\015"
1, 14346, Lyric_t, "\012"
1, 14589, Lyric_t, "I'll "
1, 14684, Lyric_t, "be "
1, 14739, Lyric_t, "yours "
1, 14877, Lyric_t, "through "
1, 14930, Lyric_t, "all "
1, 15069, Lyric_t, "the "
1, 15120, Lyric_t, "years, "
1, 15120, Lyric_t, "\015"
1, 15361, Lyric_t, "till "
1, 15416, Lyric_t, "the "
1, 15544, Lyric_t, "end "
1, 15603, Lyric_t, "of "
1, 15740, Lyric_t, "time. "
1, 15740, Lyric_t, "\015"
1, 15885, Lyric_t, "\012"
1, 16128, Lyric_t, "Love "
1, 16186, Lyric_t, "me "
1, 16314, Lyric_t, "ten"
1, 16373, Lyric_t, "der, "
1, 16561, Lyric_t, "love "
1, 16625, Lyric_t, "me "
1, 16694, Lyric_t, "true; "
1, 16694, Lyric_t, "\015"
1, 16897, Lyric_t, "all "
1, 17044, Lyric_t, "my "
1, 17091, Lyric_t, "dreams "
1, 17239, Lyric_t, "ful"
1, 17289, Lyric_t, "fill, "
1, 17289, Lyric_t, "\015"
1, 17421, Lyric_t, "\012"
1, 17664, Lyric_t, "for, "
1, 17728, Lyric_t, "my "
1, 17900, Lyric_t, "dar"
1, 17958, Lyric_t, "ling, "
1, 18085, Lyric_t, "I "
1, 18122, Lyric_t, "love "
1, 18167, Lyric_t, "you "
1, 18167, Lyric_t, "\015"
1, 18428, Tempo, 845070
1, 18431, Lyric_t, "and "
1, 18524, Tempo, 937500
1, 18528, Lyric_t, "I "
1, 18628, Tempo, 1016949
1, 18629, Lyric_t, "al"
1, 18712, Tempo, 1111111
1, 18718, Lyric_t, "ways "
1, 18816, Tempo, 909091
1, 18819, Lyric_t, "will. "
1, 18819, Lyric_t, "\015"
1, 19008, Tempo, 779221
1, 19008, End_track
2, 0, Start_track
2, 0, Title_t, "Soft karaoke"
2, 0, Text_t, "@KMIDI KARAOKR FILE"
2, 0, Title_t, "Soft karaoke"
2, 0, Text_t, "@KMIDI KARAOKE FILE"
2, 0, End_track
3, 0, Start_track
3, 0, Text_t, "@LENGL"
3, 0, Text_t, "@T>>> ELVIS PRESLEY - LOVE ME TENDER <<<"
3, 769, Text_t, "/"
3, 769, Text_t, "Love"
3, 867, Text_t, " me"
3, 1006, Text_t, " ten"
3, 1053, Text_t, "der,"
3, 1209, Text_t, " love"
3, 1249, Text_t, " me"
3, 1302, Text_t, " sweet"
3, 1623, Text_t, "/"
3, 1623, Text_t, "Ne"
3, 1648, Text_t, "ver"
3, 1777, Text_t, " let"
3, 1826, Text_t, " me"
3, 1906, Text_t, " go"
3, 2342, Text_t, "/"
3, 2342, Text_t, "You"
3, 2394, Text_t, " have"
3, 2589, Text_t, " made"
3, 2633, Text_t, " my"
3, 2670, Text_t, " life"
3, 2828, Text_t, " com"
3, 2868, Text_t, "plete"
3, 3073, Text_t, "/"
3, 3073, Text_t, "And"
3, 3204, Text_t, " I"
3, 3299, Text_t, " love"
3, 3338, Text_t, " you"
3, 3448, Text_t, " so"
3, 3836, Text_t, "/"
3, 3836, Text_t, "Love"
3, 3888, Text_t, " me"
3, 4027, Text_t, " ten"
3, 4077, Text_t, "der"
3, 4318, Text_t, " love"
3, 4371, Text_t, " me"
3, 4418, Text_t, " true"
3, 4601, Text_t, "/"
3, 4601, Text_t, "All"
3, 4749, Text_t, " my"
3, 4802, Text_t, " dreams"
3, 4951, Text_t, " ful"
3, 4998, Text_t, "fill"
3, 5373, Text_t, "/"
3, 5373, Text_t, "For"
3, 5430, Text_t, " my"
3, 5571, Text_t, " dar"
3, 5644, Text_t, "ling"
3, 5763, Text_t, " I"
3, 5853, Text_t, " love"
3, 5905, Text_t, " you"
3, 6149, Text_t, "/"
3, 6149, Text_t, "And"
3, 6292, Text_t, " I"
3, 6343, Text_t, " al"
3, 6408, Text_t, "ways"
3, 6531, Text_t, " will"
3, 6905, Text_t, "/"
3, 6905, Text_t, "When"
3, 6975, Text_t, " at"
3, 7145, Text_t, " last"
3, 7198, Text_t, " my"
3, 7294, Text_t, " dreams"
3, 7394, Text_t, " came"
3, 7442, Text_t, " true"
3, 7687, Text_t, "/"
3, 7687, Text_t, "Dar"
3, 7734, Text_t, "ling"
3, 7920, Text_t, " this"
3, 7971, Text_t, " I"
3, 8061, Text_t, " know"
3, 8445, Text_t, "/"
3, 8445, Text_t, "Hap"
3, 8504, Text_t, "pi"
3, 8689, Text_t, "ness"
3, 8765, Text_t, " will"
3, 8810, Text_t, " fol"
3, 8982, Text_t, "low"
3, 9015, Text_t, " you"
3, 9216, Text_t, "/"
3, 9216, Text_t, "Ev'"
3, 9370, Text_t, "ry"
3, 9473, Text_t, "where"
3, 9507, Text_t, " I"
3, 9600, Text_t, " go"
3, 9975, Text_t, "/"
3, 9975, Text_t, "Love"
3, 10033, Text_t, " me"
3, 10225, Text_t, " ten"
3, 10276, Text_t, "der,"
3, 10422, Text_t, " love"
3, 10490, Text_t, " me"
3, 10550, Text_t, " sweet"
3, 10752, Text_t, "/"
3, 10752, Text_t, "All"
3, 10907, Text_t, " my"
3, 10953, Text_t, " dreams"
3, 11093, Text_t, " ful"
3, 11149, Text_t, "fill"
3, 11521, Text_t, "/"
3, 11521, Text_t, "For"
3, 11569, Text_t, " my"
3, 11758, Text_t, " dar"
3, 11804, Text_t, "ling"
3, 11950, Text_t, " I"
3, 12001, Text_t, " love"
3, 12051, Text_t, " you"
3, 12290, Text_t, "/"
3, 12290, Text_t, "And"
3, 12341, Text_t, " I"
3, 12528, Text_t, " al"
3, 12580, Text_t, "ways"
3, 12675, Text_t, " will"
3, 13053, Text_t, "/"
3, 13053, Text_t, "Love"
3, 13112, Text_t, " me"
3, 13292, Text_t, " ten"
3, 13338, Text_t, "der,"
3, 13490, Text_t, " love"
3, 13548, Text_t, " me"
3, 13590, Text_t, " sweet"
3, 13821, Text_t, "/"
3, 13821, Text_t, "Ne"
3, 13873, Text_t, "ver"
3, 14007, Text_t, " let"
3, 14058, Text_t, " me"
3, 14200, Text_t, " go"
3, 14589, Text_t, "/"
3, 14589, Text_t, "You"
3, 14684, Text_t, " have"
3, 14739, Text_t, " made"
3, 14877, Text_t, " my"
3, 14930, Text_t, " life"
3, 15069, Text_t, " com"
3, 15120, Text_t, "plete"
3, 15361, Text_t, "/"
3, 15361, Text_t, "And"
3, 15416, Text_t, " I"
3, 15544, Text_t, " love"
3, 15603, Text_t, " you"
3, 15740, Text_t, " so"
3, 16128, Text_t, "/"
3, 16128, Text_t, "Love"
3, 16186, Text_t, " me"
3, 16314, Text_t, " ten"
3, 16373, Text_t, "der"
3, 16561, Text_t, " love"
3, 16625, Text_t, " me"
3, 16694, Text_t, " true"
3, 16897, Text_t, "/"
3, 16897, Text_t, "All"
3, 17044, Text_t, " my"
3, 17091, Text_t, " dreams"
3, 17239, Text_t, " ful"
3, 17289, Text_t, "fill"
3, 17664, Text_t, "/"
3, 17664, Text_t, "For"
3, 17728, Text_t, " my"
3, 17900, Text_t, " dar"
3, 17958, Text_t, "ling"
3, 18085, Text_t, " I"
3, 18122, Text_t, " love"
3, 18167, Text_t, " you"
3, 18431, Text_t, "/"
3, 18431, Text_t, "And"
3, 18528, Text_t, " I"
3, 18629, Text_t, " al"
3, 18718, Text_t, "ways"
3, 18819, Text_t, " will"
3, 18819, End_track
4, 0, Start_track
4, 98, Program_c, 0, 24
4, 99, Control_c, 0, 7, 105
4, 99, Control_c, 0, 10, 54
4, 99, Control_c, 0, 11, 127
4, 100, Control_c, 0, 91, 80
4, 100, Control_c, 0, 93, 20
4, 385, Note_on_c, 0, 50, 80
4, 386, Control_c, 0, 1, 0
4, 386, Pitch_bend_c, 0, 8192
4, 464, Note_on_c, 0, 57, 78
4, 472, Note_on_c, 0, 62, 91
4, 482, Note_on_c, 0, 66, 86
4, 544, Note_on_c, 0, 50, 0
4, 579, Note_on_c, 0, 45, 90
4, 586, Note_on_c, 0, 57, 0
4, 604, Note_on_c, 0, 62, 0
4, 612, Note_on_c, 0, 66, 0
4, 664, Note_on_c, 0, 57, 83
4, 671, Note_on_c, 0, 62, 99
4, 679, Note_on_c, 0, 66, 92
4, 758, Note_on_c, 0, 45, 0
4, 769, Note_on_c, 0, 50, 91
4, 772, Note_on_c, 0, 57, 0
4, 780, Note_on_c, 0, 62, 0
4, 788, Note_on_c, 0, 66, 0
4, 852, Note_on_c, 0, 57, 79
4, 857, Note_on_c, 0, 62, 94
4, 864, Note_on_c, 0, 66, 91
4, 960, Note_on_c, 0, 45, 93
4, 961, Note_on_c, 0, 50, 0
4, 997, Note_on_c, 0, 57, 0
4, 1051, Note_on_c, 0, 57, 88
4, 1054, Note_on_c, 0, 62, 0
4, 1055, Note_on_c, 0, 62, 103
4, 1058, Note_on_c, 0, 66, 0
4, 1061, Note_on_c, 0, 66, 98
4, 1140, Note_on_c, 0, 62, 0
4, 1146, Note_on_c, 0, 45, 0
4, 1146, Note_on_c, 0, 57, 0
4, 1146, Note_on_c, 0, 66, 0
4, 1152, Note_on_c, 0, 40, 87
4, 1226, Note_on_c, 0, 47, 35
4, 1232, Note_on_c, 0, 50, 56
4, 1236, Note_on_c, 0, 56, 80
4, 1242, Note_on_c, 0, 59, 86
4, 1254, Note_on_c, 0, 64, 93
4, 1334, Note_on_c, 0, 47, 0
4, 1343, Note_on_c, 0, 47, 97
4, 1345, Note_on_c, 0, 50, 0
4, 1372, Note_on_c, 0, 40, 0
4, 1424, Note_on_c, 0, 56, 0
4, 1424, Note_on_c, 0, 50, 58
4, 1430, Note_on_c, 0, 59, 0
4, 1430, Note_on_c, 0, 56, 81
4, 1436, Note_on_c, 0, 59, 94
4, 1439, Note_on_c, 0, 64, 0
4, 1444, Note_on_c, 0, 64, 81
4, 1505, Note_on_c, 0, 47, 0
4, 1508, Note_on_c, 0, 56, 0
4, 1518, Note_on_c, 0, 50, 0
4, 1532, Note_on_c, 0, 45, 99
4, 1539, Note_on_c, 0, 59, 0
4, 1539, Note_on_c, 0, 64, 0
4, 1614, Note_on_c, 0, 52, 72
4, 1621, Note_on_c, 0, 55, 80
4, 1626, Note_on_c, 0, 61, 88
4, 1634, Note_on_c, 0, 64, 81
4, 1721, Note_on_c, 0, 45, 0
4, 1727, Note_on_c, 0, 45, 91
4, 1733, Note_on_c, 0, 52, 0
4, 1813, Note_on_c, 0, 52, 60
4, 1814, Note_on_c, 0, 55, 0
4, 1818, Note_on_c, 0, 55, 81
4, 1820, Note_on_c, 0, 61, 0
4, 1821, Note_on_c, 0, 61, 102
4, 1826, Note_on_c, 0, 64, 0
4, 1827, Note_on_c, 0, 64, 80
4, 1903, Note_on_c, 0, 52, 0
4, 1906, Note_on_c, 0, 61, 0
4, 1914, Note_on_c, 0, 45, 0
4, 1917, Note_on_c, 0, 55, 0
4, 1917, Note_on_c, 0, 50, 88
4, 1935, Note_on_c, 0, 64, 0
4, 2011, Note_on_c, 0, 57, 68
4, 2014, Note_on_c, 0, 62, 88
4, 2020, Note_on_c, 0, 66, 85
4, 2116, Note_on_c, 0, 45, 86
4, 2119, Note_on_c, 0, 50, 0
4, 2187, Note_on_c, 0, 57, 0
4, 2197, Note_on_c, 0, 62, 0
4, 2198, Note_on_c, 0, 57, 68
4, 2202, Note_on_c, 0, 66, 0
4, 2203, Note_on_c, 0, 62, 87
4, 2211, Note_on_c, 0, 66, 94
4, 2302, Note_on_c, 0, 45, 0
4, 2303, Note_on_c, 0, 50, 96
4, 2304, Note_on_c, 0, 57, 0
4, 2374, Note_on_c, 0, 62, 0
4, 2377, Note_on_c, 0, 57, 74
4, 2387, Note_on_c, 0, 66, 0
4, 2387, Note_on_c, 0, 62, 98
4, 2395, Note_on_c, 0, 66, 91
4, 2494, Note_on_c, 0, 45, 97
4, 2495, Note_on_c, 0, 50, 0
4, 2563, Note_on_c, 0, 57, 0
4, 2564, Note_on_c, 0, 50, 66
4, 2575, Note_on_c, 0, 57, 74
4, 2579, Note_on_c, 0, 62, 0
4, 2584, Note_on_c, 0, 62, 93
4, 2591, Note_on_c, 0, 66, 0
4, 2592, Note_on_c, 0, 66, 98
4, 2665, Note_on_c, 0, 66, 0
4, 2668, Note_on_c, 0, 57, 0
4, 2670, Note_on_c, 0, 62, 0
4, 2685, Note_on_c, 0, 40, 101
4, 2686, Note_on_c, 0, 45, 0
4, 2690, Note_on_c, 0, 50, 0
4, 2769, Note_on_c, 0, 47, 55
4, 2772, Note_on_c, 0, 50, 68
4, 2779, Note_on_c, 0, 56, 79
4, 2781, Note_on_c, 0, 59, 94
4, 2786, Note_on_c, 0, 64, 81
4, 2874, Note_on_c, 0, 47, 0
4, 2882, Note_on_c, 0, 50, 0
4, 2882, Note_on_c, 0, 47, 94
4, 2890, Note_on_c, 0, 40, 0
4, 2961, Note_on_c, 0, 56, 0
4, 2961, Note_on_c, 0, 50, 53
4, 2970, Note_on_c, 0, 59, 0
4, 2970, Note_on_c, 0, 56, 81
4, 2973, Note_on_c, 0, 59, 101
4, 2976, Note_on_c, 0, 64, 0
4, 2982, Note_on_c, 0, 64, 91
4, 3051, Note_on_c, 0, 56, 0
4, 3056, Note_on_c, 0, 47, 0
4, 3071, Note_on_c, 0, 45, 96
4, 3073, Note_on_c, 0, 50, 0
4, 3091, Note_on_c, 0, 59, 0
4, 3091, Note_on_c, 0, 64, 0
4, 3154, Note_on_c, 0, 52, 70
4, 3159, Note_on_c, 0, 55, 83
4, 3167, Note_on_c, 0, 61, 93
4, 3173, Note_on_c, 0, 64, 87
4, 3259, Note_on_c, 0, 45, 0
4, 3259, Note_on_c, 0, 40, 96
4, 3326, Note_on_c, 0, 52, 0
4, 3335, Note_on_c, 0, 55, 0
4, 3336, Note_on_c, 0, 52, 62
4, 3344, Note_on_c, 0, 55, 80
4, 3346, Note_on_c, 0, 61, 0
4, 3357, Note_on_c, 0, 61, 90
4, 3358, Note_on_c, 0, 64, 0
4, 3368, Note_on_c, 0, 64, 87
4, 3440, Note_on_c, 0, 52, 0
4, 3440, Note_on_c, 0, 61, 0
4, 3449, Note_on_c, 0, 50, 87
4, 3450, Note_on_c, 0, 55, 0
4, 3464, Note_on_c, 0, 40, 0
4, 3472, Note_on_c, 0, 64, 0
4, 3532, Note_on_c, 0, 57, 82
4, 3539, Note_on_c, 0, 62, 97
4, 3547, Note_on_c, 0, 66, 97
4, 3645, Note_on_c, 0, 45, 103
4, 3646, Note_on_c, 0, 50, 0
4, 3706, Note_on_c, 0, 57, 0
4, 3726, Note_on_c, 0, 62, 0
4, 3727, Note_on_c, 0, 57, 76
4, 3736, Note_on_c, 0, 66, 0
4, 3736, Note_on_c, 0, 62, 97
4, 3746, Note_on_c, 0, 66, 97
4, 3835, Note_on_c, 0, 57, 0
4, 3835, Note_on_c, 0, 50, 97
4, 3860, Note_on_c, 0, 45, 0
4, 3921, Note_on_c, 0, 62, 0
4, 3921, Note_on_c, 0, 57, 89
4, 3928, Note_on_c, 0, 66, 0
4, 3930, Note_on_c, 0, 62, 96
4, 3935, Note_on_c, 0, 66, 100
4, 4012, Note_on_c, 0, 62, 0
4, 4013, Note_on_c, 0, 50, 0
4, 4016, Note_on_c, 0, 57, 0
4, 4016, Note_on_c, 0, 66, 0
4, 4026, Note_on_c, 0, 49, 101
4, 4103, Note_on_c, 0, 54, 69
4, 4109, Note_on_c, 0, 58, 84
4, 4117, Note_on_c, 0, 61, 97
4, 4127, Note_on_c, 0, 66, 87
4, 4200, Note_on_c, 0, 66, 0
4, 4202, Note_on_c, 0, 61, 0
4, 4215, Note_on_c, 0, 54, 0
4, 4215, Note_on_c, 0, 58, 0
4, 4218, Note_on_c, 0, 49, 0
4, 4226, Note_on_c, 0, 47, 104
4, 4301, Note_on_c, 0, 54, 74
4, 4306, Note_on_c, 0, 59, 90
4, 4315, Note_on_c, 0, 62, 98
4, 4323, Note_on_c, 0, 66, 90
4, 4400, Note_on_c, 0, 47, 0
4, 4405, Note_on_c, 0, 54, 0
4, 4407, Note_on_c, 0, 59, 0
4, 4407, Note_on_c, 0, 62, 0
4, 4410, Note_on_c, 0, 66, 0
4, 4412, Note_on_c, 0, 45, 106
4, 4504, Note_on_c, 0, 50, 72
4, 4510, Note_on_c, 0, 57, 82
4, 4515, Note_on_c, 0, 60, 96
4, 4520, Note_on_c, 0, 66, 84
4, 4579, Note_on_c, 0, 57, 0
4, 4581, Note_on_c, 0, 66, 0
4, 4583, Note_on_c, 0, 60, 0
4, 4602, Note_on_c, 0, 45, 0
4, 4609, Note_on_c, 0, 43, 100
4, 4676, Note_on_c, 0, 50, 0
4, 4689, Note_on_c, 0, 50, 60
4, 4693, Note_on_c, 0, 55, 78
4, 4699, Note_on_c, 0, 59, 89
4, 4707, Note_on_c, 0, 67, 87
4, 4749, Note_on_c, 0, 43, 0
4, 4785, Note_on_c, 0, 59, 0
4, 4786, Note_on_c, 0, 55, 0
4, 4790, Note_on_c, 0, 50, 0
4, 4792, Note_on_c, 0, 67, 0
4, 4797, Note_on_c, 0, 43, 107
4, 4862, Note_on_c, 0, 50, 66
4, 4869, Note_on_c, 0, 55, 61
4, 4878, Note_on_c, 0, 58, 76
4, 4889, Note_on_c, 0, 62, 81
4, 4903, Note_on_c, 0, 67, 80
4, 4972, Note_on_c, 0, 58, 0
4, 4973, Note_on_c, 0, 43, 0
4, 4973, Note_on_c, 0, 50, 0
4, 4975, Note_on_c, 0, 62, 0
4, 4978, Note_on_c, 0, 55, 0
4, 4983, Note_on_c, 0, 67, 0
4, 4987, Note_on_c, 0, 50, 86
4, 5073, Note_on_c, 0, 57, 74
4, 5083, Note_on_c, 0, 62, 84
4, 5092, Note_on_c, 0, 66, 81
4, 5183, Note_on_c, 0, 45, 97
4, 5185, Note_on_c, 0, 50, 0
4, 5258, Note_on_c, 0, 50, 49
4, 5259, Note_on_c, 0, 57, 0
4, 5268, Note_on_c, 0, 62, 0
4, 5268, Note_on_c, 0, 57, 66
4, 5274, Note_on_c, 0, 66, 0
4, 5274, Note_on_c, 0, 62, 87
4, 5281, Note_on_c, 0, 66, 83
4, 5348, Note_on_c, 0, 45, 0
4, 5354, Note_on_c, 0, 50, 0
4, 5358, Note_on_c, 0, 57, 0
4, 5359, Note_on_c, 0, 50, 79
4, 5365, Note_on_c, 0, 62, 0
4, 5367, Note_on_c, 0, 57, 90
4, 5373, Note_on_c, 0, 66, 0
4, 5375, Note_on_c, 0, 62, 100
4, 5382, Note_on_c, 0, 66, 96
4, 5509, Note_on_c, 0, 57, 0
4, 5514, Note_on_c, 0, 66, 0
4, 5516, Note_on_c, 0, 62, 0
4, 5554, Note_on_c, 0, 50, 0
4, 5567, Note_on_c, 0, 47, 100
4, 5659, Note_on_c, 0, 54, 53
4, 5665, Note_on_c, 0, 57, 90
4, 5669, Note_on_c, 0, 63, 101
4, 5675, Note_on_c, 0, 66, 102
4, 5744, Note_on_c, 0, 57, 0
4, 5747, Note_on_c, 0, 47, 0
4, 5752, Note_on_c, 0, 54, 0
4, 5756, Note_on_c, 0, 63, 0
4, 5756, Note_on_c, 0, 66, 0
4, 5760, Note_on_c, 0, 40, 97
4, 5838, Note_on_c, 0, 47, 35
4, 5841, Note_on_c, 0, 50, 54
4, 5848, Note_on_c, 0, 56, 63
4, 5850, Note_on_c, 0, 59, 68
4, 5858, Note_on_c, 0, 64, 78
4, 5940, Note_on_c, 0, 47, 0
4, 5949, Note_on_c, 0, 50, 0
4, 5950, Note_on_c, 0, 47, 97
4, 5962, Note_on_c, 0, 40, 0
4, 6020, Note_on_c, 0, 50, 65
4, 6025, Note_on_c, 0, 56, 0
4, 6030, Note_on_c, 0, 56, 76
4, 6034, Note_on_c, 0, 59, 0
4, 6035, Note_on_c, 0, 59, 90
4, 6037, Note_on_c, 0, 64, 0
4, 6049, Note_on_c, 0, 64, 83
4, 6128, Note_on_c, 0, 56, 0
4, 6132, Note_on_c, 0, 47, 0
4, 6148, Note_on_c, 0, 45, 94
4, 6151, Note_on_c, 0, 50, 0
4, 6165, Note_on_c, 0, 59, 0
4, 6222, Note_on_c, 0, 52, 55
4, 6231, Note_on_c, 0, 55, 74
4, 6237, Note_on_c, 0, 64, 0
4, 6238, Note_on_c, 0, 61, 87
4, 6244, Note_on_c, 0, 64, 83
4, 6332, Note_on_c, 0, 40, 96
4, 6334, Note_on_c, 0, 45, 0
4, 6402, Note_on_c, 0, 55, 0
4, 6414, Note_on_c, 0, 55, 79
4, 6415, Note_on_c, 0, 61, 0
4, 6423, Note_on_c, 0, 61, 87
4, 6425, Note_on_c, 0, 64, 0
4, 6434, Note_on_c, 0, 64, 87
4, 6505, Note_on_c, 0, 52, 0
4, 6511, Note_on_c, 0, 61, 0
4, 6522, Note_on_c, 0, 40, 0
4, 6524, Note_on_c, 0, 50, 90
4, 6525, Note_on_c, 0, 55, 0
4, 6552, Note_on_c, 0, 64, 0
4, 6604, Note_on_c, 0, 57, 84
4, 6609, Note_on_c, 0, 62, 100
4, 6620, Note_on_c, 0, 66, 95
4, 6712, Note_on_c, 0, 50, 0
4, 6712, Note_on_c, 0, 45, 86
4, 6790, Note_on_c, 0, 50, 59
4, 6792, Note_on_c, 0, 57, 0
4, 6799, Note_on_c, 0, 62, 0
4, 6800, Note_on_c, 0, 57, 66
4, 6805, Note_on_c, 0, 66, 0
4, 6805, Note_on_c, 0, 62, 84
4, 6818, Note_on_c, 0, 66, 87
4, 6862, Note_on_c, 0, 62, 0
4, 6863, Note_on_c, 0, 57, 0
4, 6863, Note_on_c, 0, 66, 0
4, 6866, Note_on_c, 0, 50, 0
4, 6872, Note_on_c, 0, 45, 0
4, 6917, Note_on_c, 0, 50, 87
4, 6997, Note_on_c, 0, 57, 72
4, 7005, Note_on_c, 0, 62, 94
4, 7014, Note_on_c, 0, 66, 95
4, 7097, Note_on_c, 0, 57, 0
4, 7100, Note_on_c, 0, 45, 100
4, 7104, Note_on_c, 0, 50, 0
4, 7184, Note_on_c, 0, 50, 68
4, 7191, Note_on_c, 0, 62, 0
4, 7193, Note_on_c, 0, 57, 79
4, 7198, Note_on_c, 0, 66, 0
4, 7198, Note_on_c, 0, 62, 91
4, 7206, Note_on_c, 0, 66, 87
4, 7275, Note_on_c, 0, 66, 0
4, 7276, Note_on_c, 0, 57, 0
4, 7280, Note_on_c, 0, 62, 0
4, 7295, Note_on_c, 0, 40, 99
4, 7297, Note_on_c, 0, 45, 0
4, 7317, Note_on_c, 0, 50, 0
4, 7372, Note_on_c, 0, 47, 78
4, 7376, Note_on_c, 0, 50, 74
4, 7386, Note_on_c, 0, 56, 74
4, 7392, Note_on_c, 0, 59, 91
4, 7403, Note_on_c, 0, 64, 71
4, 7482, Note_on_c, 0, 47, 0
4, 7496, Note_on_c, 0, 40, 0
4, 7497, Note_on_c, 0, 47, 94
4, 7498, Note_on_c, 0, 50, 0
4, 7567, Note_on_c, 0, 50, 58
4, 7572, Note_on_c, 0, 56, 0
4, 7573, Note_on_c, 0, 56, 80
4, 7575, Note_on_c, 0, 59, 0
4, 7581, Note_on_c, 0, 59, 93
4, 7589, Note_on_c, 0, 64, 0
4, 7590, Note_on_c, 0, 64, 84
4, 7654, Note_on_c, 0, 56, 0
4, 7659, Note_on_c, 0, 47, 0
4, 7667, Note_on_c, 0, 50, 0
4, 7678, Note_on_c, 0, 45, 104
4, 7687, Note_on_c, 0, 59, 0
4, 7687, Note_on_c, 0, 64, 0
4, 7754, Note_on_c, 0, 52, 76
4, 7760, Note_on_c, 0, 55, 82
4, 7768, Note_on_c, 0, 61, 88
4, 7774, Note_on_c, 0, 64, 81
4, 7868, Note_on_c, 0, 45, 0
4, 7868, Note_on_c, 0, 40, 100
4, 7943, Note_on_c, 0, 52, 0
4, 7951, Note_on_c, 0, 55, 0
4, 7952, Note_on_c, 0, 52, 66
4, 7956, Note_on_c, 0, 55, 81
4, 7958, Note_on_c, 0, 61, 0
4, 7966, Note_on_c, 0, 61, 90
4, 7970, Note_on_c, 0, 64, 0
4, 7971, Note_on_c, 0, 64, 76
4, 8045, Note_on_c, 0, 52, 0
4, 8048, Note_on_c, 0, 61, 0
4, 8049, Note_on_c, 0, 64, 0
4, 8062, Note_on_c, 0, 55, 0
4, 8062, Note_on_c, 0, 50, 97
4, 8097, Note_on_c, 0, 40, 0
4, 8150, Note_on_c, 0, 57, 76
4, 8155, Note_on_c, 0, 62, 91
4, 8162, Note_on_c, 0, 66, 89
4, 8249, Note_on_c, 0, 57, 0
4, 8253, Note_on_c, 0, 50, 0
4, 8253, Note_on_c, 0, 45, 97
4, 8335, Note_on_c, 0, 50, 59
4, 8342, Note_on_c, 0, 62, 0
4, 8345, Note_on_c, 0, 57, 65
4, 8349, Note_on_c, 0, 66, 0
4, 8351, Note_on_c, 0, 62, 93
4, 8356, Note_on_c, 0, 66, 86
4, 8441, Note_on_c, 0, 50, 0
4, 8448, Note_on_c, 0, 45, 0
4, 8448, Note_on_c, 0, 57, 0
4, 8448, Note_on_c, 0, 50, 94
4, 8525, Note_on_c, 0, 62, 0
4, 8526, Note_on_c, 0, 57, 81
4, 8534, Note_on_c, 0, 66, 0
4, 8534, Note_on_c, 0, 62, 97
4, 8544, Note_on_c, 0, 66, 101
4, 8635, Note_on_c, 0, 45, 101
4, 8637, Note_on_c, 0, 50, 0
4, 8708, Note_on_c, 0, 50, 65
4, 8710, Note_on_c, 0, 57, 0
4, 8722, Note_on_c, 0, 62, 0
4, 8722, Note_on_c, 0, 57, 74
4, 8729, Note_on_c, 0, 66, 0
4, 8730, Note_on_c, 0, 62, 90
4, 8740, Note_on_c, 0, 66, 87
4, 8806, Note_on_c, 0, 57, 0
4, 8806, Note_on_c, 0, 66, 0
4, 8809, Note_on_c, 0, 62, 0
4, 8825, Note_on_c, 0, 45, 0
4, 8825, Note_on_c, 0, 40, 99
4, 8850, Note_on_c, 0, 50, 0
4, 8906, Note_on_c, 0, 47, 47
4, 8910, Note_on_c, 0, 50, 60
4, 8918, Note_on_c, 0, 56, 76
4, 8921, Note_on_c, 0, 59, 91
4, 8930, Note_on_c, 0, 64, 88
4, 9013, Note_on_c, 0, 47, 0
4, 9022, Note_on_c, 0, 50, 0
4, 9023, Note_on_c, 0, 47, 99
4, 9052, Note_on_c, 0, 40, 0
4, 9104, Note_on_c, 0, 50, 66
4, 9106, Note_on_c, 0, 56, 0
4, 9112, Note_on_c, 0, 59, 0
4, 9113, Note_on_c, 0, 56, 74
4, 9116, Note_on_c, 0, 59, 91
4, 9120, Note_on_c, 0, 64, 0
4, 9121, Note_on_c, 0, 64, 85
4, 9188, Note_on_c, 0, 47, 0
4, 9194, Note_on_c, 0, 56, 0
4, 9201, Note_on_c, 0, 50, 0
4, 9217, Note_on_c, 0, 45, 97
4, 9225, Note_on_c, 0, 59, 0
4, 9225, Note_on_c, 0, 64, 0
4, 9296, Note_on_c, 0, 52, 68
4, 9299, Note_on_c, 0, 55, 81
4, 9307, Note_on_c, 0, 61, 91
4, 9311, Note_on_c, 0, 64, 81
4, 9403, Note_on_c, 0, 45, 0
4, 9412, Note_on_c, 0, 45, 90
4, 9415, Note_on_c, 0, 52, 0
4, 9484, Note_on_c, 0, 55, 0
4, 9485, Note_on_c, 0, 52, 70
4, 9490, Note_on_c, 0, 55, 80
4, 9491, Note_on_c, 0, 61, 0
4, 9498, Note_on_c, 0, 61, 91
4, 9501, Note_on_c, 0, 64, 0
4, 9502, Note_on_c, 0, 64, 82
4, 9580, Note_on_c, 0, 55, 0
4, 9583, Note_on_c, 0, 52, 0
4, 9585, Note_on_c, 0, 61, 0
4, 9590, Note_on_c, 0, 45, 0
4, 9600, Note_on_c, 0, 50, 94
4, 9620, Note_on_c, 0, 64, 0
4, 9687, Note_on_c, 0, 57, 78
4, 9690, Note_on_c, 0, 62, 99
4, 9697, Note_on_c, 0, 66, 96
4, 9788, Note_on_c, 0, 45, 96
4, 9789, Note_on_c, 0, 50, 0
4, 9859, Note_on_c, 0, 50, 51
4, 9861, Note_on_c, 0, 57, 0
4, 9867, Note_on_c, 0, 62, 0
4, 9867, Note_on_c, 0, 57, 69
4, 9877, Note_on_c, 0, 62, 81
4, 9879, Note_on_c, 0, 66, 0
4, 9886, Note_on_c, 0, 66, 86
4, 9972, Note_on_c, 0, 50, 0
4, 9980, Note_on_c, 0, 57, 0
4, 9982, Note_on_c, 0, 50, 100
4, 9994, Note_on_c, 0, 45, 0
4, 10063, Note_on_c, 0, 62, 0
4, 10066, Note_on_c, 0, 57, 81
4, 10071, Note_on_c, 0, 66, 0
4, 10071, Note_on_c, 0, 62, 94
4, 10078, Note_on_c, 0, 66, 88
4, 10162, Note_on_c, 0, 57, 0
4, 10166, Note_on_c, 0, 62, 0
4, 10166, Note_on_c, 0, 66, 0
4, 10168, Note_on_c, 0, 50, 0
4, 10175, Note_on_c, 0, 49, 99
4, 10253, Note_on_c, 0, 54, 74
4, 10259, Note_on_c, 0, 58, 72
4, 10264, Note_on_c, 0, 61, 87
4, 10274, Note_on_c, 0, 66, 88
4, 10355, Note_on_c, 0, 49, 0
4, 10356, Note_on_c, 0, 58, 0
4, 10356, Note_on_c, 0, 61, 0
4, 10360, Note_on_c, 0, 54, 0
4, 10362, Note_on_c, 0, 66, 0
4, 10367, Note_on_c, 0, 47, 94
4, 10440, Note_on_c, 0, 54, 72
4, 10446, Note_on_c, 0, 59, 85
4, 10455, Note_on_c, 0, 62, 94
4, 10465, Note_on_c, 0, 66, 87
4, 10550, Note_on_c, 0, 47, 0
4, 10550, Note_on_c, 0, 54, 0
4, 10552, Note_on_c, 0, 66, 0
4, 10553, Note_on_c, 0, 59, 0
4, 10553, Note_on_c, 0, 62, 0
4, 10560, Note_on_c, 0, 45, 102
4, 10640, Note_on_c, 0, 57, 83
4, 10651, Note_on_c, 0, 60, 98
4, 10662, Note_on_c, 0, 66, 96
4, 10742, Note_on_c, 0, 57, 0
4, 10744, Note_on_c, 0, 45, 0
4, 10748, Note_on_c, 0, 60, 0
4, 10748, Note_on_c, 0, 66, 0
4, 10752, Note_on_c, 0, 43, 102
4, 10821, Note_on_c, 0, 50, 56
4, 10829, Note_on_c, 0, 55, 56
4, 10837, Note_on_c, 0, 59, 74
4, 10845, Note_on_c, 0, 62, 82
4, 10855, Note_on_c, 0, 67, 70
4, 10931, Note_on_c, 0, 59, 0
4, 10941, Note_on_c, 0, 43, 0
4, 10942, Note_on_c, 0, 43, 101
4, 10943, Note_on_c, 0, 50, 0
4, 11017, Note_on_c, 0, 55, 0
4, 11025, Note_on_c, 0, 55, 66
4, 11029, Note_on_c, 0, 62, 0
4, 11031, Note_on_c, 0, 58, 81
4, 11038, Note_on_c, 0, 67, 0
4, 11039, Note_on_c, 0, 62, 96
4, 11052, Note_on_c, 0, 67, 85
4, 11113, Note_on_c, 0, 58, 0
4, 11123, Note_on_c, 0, 62, 0
4, 11124, Note_on_c, 0, 43, 0
4, 11126, Note_on_c, 0, 67, 0
4, 11129, Note_on_c, 0, 55, 0
4, 11134, Note_on_c, 0, 50, 87
4, 11214, Note_on_c, 0, 57, 65
4, 11220, Note_on_c, 0, 62, 80
4, 11228, Note_on_c, 0, 66, 80
4, 11323, Note_on_c, 0, 45, 90
4, 11325, Note_on_c, 0, 50, 0
4, 11396, Note_on_c, 0, 50, 41
4, 11398, Note_on_c, 0, 57, 0
4, 11405, Note_on_c, 0, 62, 0
4, 11406, Note_on_c, 0, 57, 68
4, 11413, Note_on_c, 0, 62, 91
4, 11416, Note_on_c, 0, 66, 0
4, 11419, Note_on_c, 0, 66, 81
4, 11492, Note_on_c, 0, 50, 0
4, 11500, Note_on_c, 0, 57, 0
4, 11500, Note_on_c, 0, 50, 75
4, 11507, Note_on_c, 0, 62, 0
4, 11508, Note_on_c, 0, 57, 83
4, 11513, Note_on_c, 0, 66, 0
4, 11515, Note_on_c, 0, 62, 101
4, 11521, Note_on_c, 0, 66, 99
4, 11540, Note_on_c, 0, 45, 0
4, 11686, Note_on_c, 0, 66, 0
4, 11688, Note_on_c, 0, 57, 0
4, 11689, Note_on_c, 0, 62, 0
4, 11699, Note_on_c, 0, 50, 0
4, 11705, Note_on_c, 0, 47, 101
4, 11778, Note_on_c, 0, 54, 70
4, 11788, Note_on_c, 0, 57, 82
4, 11799, Note_on_c, 0, 63, 91
4, 11814, Note_on_c, 0, 66, 87
4, 11884, Note_on_c, 0, 57, 0
4, 11885, Note_on_c, 0, 47, 0
4, 11889, Note_on_c, 0, 54, 0
4, 11892, Note_on_c, 0, 63, 0
4, 11896, Note_on_c, 0, 66, 0
4, 11900, Note_on_c, 0, 40, 98
4, 11985, Note_on_c, 0, 50, 49
4, 11986, Note_on_c, 0, 47, 51
4, 11993, Note_on_c, 0, 56, 54
4, 11997, Note_on_c, 0, 59, 84
4, 12008, Note_on_c, 0, 64, 63
4, 12081, Note_on_c, 0, 47, 0
4, 12088, Note_on_c, 0, 50, 0
4, 12089, Note_on_c, 0, 47, 88
4, 12110, Note_on_c, 0, 40, 0
4, 12163, Note_on_c, 0, 50, 46
4, 12166, Note_on_c, 0, 56, 0
4, 12176, Note_on_c, 0, 59, 0
4, 12176, Note_on_c, 0, 56, 58
4, 12183, Note_on_c, 0, 59, 79
4, 12191, Note_on_c, 0, 64, 0
4, 12194, Note_on_c, 0, 64, 81
4, 12264, Note_on_c, 0, 56, 0
4, 12265, Note_on_c, 0, 50, 0
4, 12269, Note_on_c, 0, 47, 0
4, 12281, Note_on_c, 0, 45, 99
4, 12304, Note_on_c, 0, 59, 0
4, 12354, Note_on_c, 0, 52, 51
4, 12361, Note_on_c, 0, 55, 74
4, 12371, Note_on_c, 0, 61, 85
4, 12372, Note_on_c, 0, 64, 0
4, 12381, Note_on_c, 0, 64, 87
4, 12479, Note_on_c, 0, 45, 0
4, 12485, Note_on_c, 0, 45, 80
4, 12487, Note_on_c, 0, 52, 0
4, 12550, Note_on_c, 0, 55, 0
4, 12550, Note_on_c, 0, 52, 46
4, 12556, Note_on_c, 0, 55, 72
4, 12558, Note_on_c, 0, 61, 0
4, 12566, Note_on_c, 0, 61, 83
4, 12570, Note_on_c, 0, 64, 0
4, 12573, Note_on_c, 0, 64, 82
4, 12653, Note_on_c, 0, 52, 0
4, 12655, Note_on_c, 0, 61, 0
4, 12656, Note_on_c, 0, 45, 0
4, 12671, Note_on_c, 0, 50, 91
4, 12673, Note_on_c, 0, 55, 0
4, 12694, Note_on_c, 0, 64, 0
4, 12749, Note_on_c, 0, 57, 55
4, 12756, Note_on_c, 0, 62, 85
4, 12766, Note_on_c, 0, 66, 87
4, 12863, Note_on_c, 0, 45, 94
4, 12869, Note_on_c, 0, 50, 0
4, 12933, Note_on_c, 0, 50, 61
4, 12934, Note_on_c, 0, 57, 0
4, 12944, Note_on_c, 0, 62, 0
4, 12945, Note_on_c, 0, 57, 79
4, 12953, Note_on_c, 0, 62, 87
4, 12958, Note_on_c, 0, 66, 0
4, 12959, Note_on_c, 0, 66, 90
4, 13046, Note_on_c, 0, 50, 0
4, 13054, Note_on_c, 0, 45, 0
4, 13054, Note_on_c, 0, 57, 0
4, 13054, Note_on_c, 0, 50, 93
4, 13136, Note_on_c, 0, 62, 0
4, 13138, Note_on_c, 0, 57, 76
4, 13144, Note_on_c, 0, 66, 0
4, 13145, Note_on_c, 0, 62, 93
4, 13155, Note_on_c, 0, 66, 91
4, 13246, Note_on_c, 0, 45, 91
4, 13248, Note_on_c, 0, 50, 0
4, 13319, Note_on_c, 0, 50, 65
4, 13320, Note_on_c, 0, 57, 0
4, 13332, Note_on_c, 0, 62, 0
4, 13333, Note_on_c, 0, 57, 74
4, 13340, Note_on_c, 0, 66, 0
4, 13341, Note_on_c, 0, 62, 88
4, 13347, Note_on_c, 0, 66, 88
4, 13366, Note_on_c, 0, 45, 0
4, 13429, Note_on_c, 0, 57, 0
4, 13429, Note_on_c, 0, 66, 0
4, 13431, Note_on_c, 0, 62, 0
4, 13438, Note_on_c, 0, 40, 78
4, 13440, Note_on_c, 0, 50, 0
4, 13521, Note_on_c, 0, 50, 56
4, 13530, Note_on_c, 0, 56, 72
4, 13536, Note_on_c, 0, 59, 82
4, 13546, Note_on_c, 0, 64, 69
4, 13623, Note_on_c, 0, 47, 72
4, 13636, Note_on_c, 0, 40, 0
4, 13709, Note_on_c, 0, 50, 0
4, 13710, Note_on_c, 0, 50, 60
4, 13714, Note_on_c, 0, 56, 0
4, 13715, Note_on_c, 0, 56, 76
4, 13716, Note_on_c, 0, 59, 0
4, 13719, Note_on_c, 0, 59, 97
4, 13722, Note_on_c, 0, 64, 0
4, 13728, Note_on_c, 0, 64, 80
4, 13796, Note_on_c, 0, 56, 0
4, 13806, Note_on_c, 0, 47, 0
4, 13822, Note_on_c, 0, 45, 99
4, 13824, Note_on_c, 0, 50, 0
4, 13838, Note_on_c, 0, 59, 0
4, 13843, Note_on_c, 0, 64, 0
4, 13901, Note_on_c, 0, 52, 75
4, 13904, Note_on_c, 0, 55, 85
4, 13913, Note_on_c, 0, 61, 85
4, 13921, Note_on_c, 0, 64, 80
4, 14009, Note_on_c, 0, 45, 0
4, 14018, Note_on_c, 0, 45, 91
4, 14020, Note_on_c, 0, 52, 0
4, 14086, Note_on_c, 0, 55, 0
4, 14087, Note_on_c, 0, 52, 66
4, 14096, Note_on_c, 0, 55, 75
4, 14097, Note_on_c, 0, 61, 0
4, 14105, Note_on_c, 0, 64, 0
4, 14105, Note_on_c, 0, 61, 81
4, 14113, Note_on_c, 0, 64, 85
4, 14185, Note_on_c, 0, 52, 0
4, 14186, Note_on_c, 0, 61, 0
4, 14190, Note_on_c, 0, 55, 0
4, 14204, Note_on_c, 0, 45, 0
4, 14205, Note_on_c, 0, 50, 90
4, 14224, Note_on_c, 0, 64, 0
4, 14288, Note_on_c, 0, 57, 69
4, 14293, Note_on_c, 0, 62, 88
4, 14303, Note_on_c, 0, 66, 83
4, 14395, Note_on_c, 0, 45, 100
4, 14397, Note_on_c, 0, 50, 0
4, 14476, Note_on_c, 0, 57, 0
4, 14476, Note_on_c, 0, 50, 68
4, 14483, Note_on_c, 0, 57, 78
4, 14484, Note_on_c, 0, 62, 0
4, 14485, Note_on_c, 0, 62, 91
4, 14488, Note_on_c, 0, 66, 0
4, 14491, Note_on_c, 0, 66, 85
4, 14579, Note_on_c, 0, 50, 0
4, 14589, Note_on_c, 0, 57, 0
4, 14589, Note_on_c, 0, 50, 92
4, 14590, Note_on_c, 0, 45, 0
4, 14660, Note_on_c, 0, 57, 75
4, 14661, Note_on_c, 0, 62, 0
4, 14671, Note_on_c, 0, 62, 97
4, 14672, Note_on_c, 0, 66, 0
4, 14683, Note_on_c, 0, 66, 94
4, 14773, Note_on_c, 0, 45, 99
4, 14774, Note_on_c, 0, 50, 0
4, 14851, Note_on_c, 0, 50, 55
4, 14853, Note_on_c, 0, 57, 0
4, 14860, Note_on_c, 0, 57, 72
4, 14862, Note_on_c, 0, 62, 0
4, 14868, Note_on_c, 0, 62, 91
4, 14874, Note_on_c, 0, 66, 0
4, 14877, Note_on_c, 0, 66, 85
4, 14962, Note_on_c, 0, 57, 0
4, 14963, Note_on_c, 0, 62, 0
4, 14963, Note_on_c, 0, 66, 0
4, 14974, Note_on_c, 0, 50, 0
4, 14975, Note_on_c, 0, 45, 0
4, 14976, Note_on_c, 0, 40, 101
4, 15042, Note_on_c, 0, 47, 54
4, 15050, Note_on_c, 0, 50, 58
4, 15057, Note_on_c, 0, 56, 63
4, 15066, Note_on_c, 0, 59, 81
4, 15075, Note_on_c, 0, 64, 62
4, 15157, Note_on_c, 0, 47, 0
4, 15163, Note_on_c, 0, 47, 87
4, 15164, Note_on_c, 0, 50, 0
4, 15166, Note_on_c, 0, 40, 0
4, 15245, Note_on_c, 0, 50, 54
4, 15250, Note_on_c, 0, 56, 0
4, 15251, Note_on_c, 0, 56, 72
4, 15253, Note_on_c, 0, 59, 0
4, 15258, Note_on_c, 0, 59, 83
4, 15260, Note_on_c, 0, 64, 0
4, 15264, Note_on_c, 0, 64, 78
4, 15342, Note_on_c, 0, 56, 0
4, 15344, Note_on_c, 0, 47, 0
4, 15358, Note_on_c, 0, 45, 94
4, 15359, Note_on_c, 0, 50, 0
4, 15376, Note_on_c, 0, 59, 0
4, 15437, Note_on_c, 0, 52, 55
4, 15441, Note_on_c, 0, 55, 76
4, 15450, Note_on_c, 0, 61, 81
4, 15451, Note_on_c, 0, 64, 0
4, 15456, Note_on_c, 0, 64, 78
4, 15544, Note_on_c, 0, 45, 0
4, 15549, Note_on_c, 0, 45, 87
4, 15550, Note_on_c, 0, 52, 0
4, 15626, Note_on_c, 0, 55, 0
4, 15626, Note_on_c, 0, 52, 46
4, 15630, Note_on_c, 0, 55, 74
4, 15631, Note_on_c, 0, 61, 0
4, 15639, Note_on_c, 0, 64, 0
4, 15640, Note_on_c, 0, 61, 83
4, 15646, Note_on_c, 0, 64, 76
4, 15724, Note_on_c, 0, 55, 0
4, 15725, Note_on_c, 0, 52, 0
4, 15727, Note_on_c, 0, 61, 0
4, 15743, Note_on_c, 0, 50, 88
4, 15744, Note_on_c, 0, 45, 0
4, 15747, Note_on_c, 0, 64, 0
4, 15828, Note_on_c, 0, 57, 76
4, 15835, Note_on_c, 0, 62, 92
4, 15843, Note_on_c, 0, 66, 84
4, 15935, Note_on_c, 0, 45, 94
4, 15936, Note_on_c, 0, 50, 0
4, 16004, Note_on_c, 0, 50, 33
4, 16005, Note_on_c, 0, 57, 0
4, 16014, Note_on_c, 0, 62, 0
4, 16015, Note_on_c, 0, 57, 59
4, 16023, Note_on_c, 0, 62, 83
4, 16028, Note_on_c, 0, 66, 0
4, 16033, Note_on_c, 0, 66, 77
4, 16115, Note_on_c, 0, 50, 0
4, 16120, Note_on_c, 0, 45, 0
4, 16124, Note_on_c, 0, 57, 0
4, 16124, Note_on_c, 0, 50, 95
4, 16196, Note_on_c, 0, 62, 0
4, 16199, Note_on_c, 0, 57, 76
4, 16207, Note_on_c, 0, 66, 0
4, 16207, Note_on_c, 0, 62, 91
4, 16220, Note_on_c, 0, 66, 96
4, 16300, Note_on_c, 0, 57, 0
4, 16302, Note_on_c, 0, 62, 0
4, 16310, Note_on_c, 0, 66, 0
4, 16314, Note_on_c, 0, 49, 89
4, 16318, Note_on_c, 0, 50, 0
4, 16391, Note_on_c, 0, 54, 74
4, 16397, Note_on_c, 0, 58, 86
4, 16406, Note_on_c, 0, 61, 94
4, 16414, Note_on_c, 0, 66, 81
4, 16495, Note_on_c, 0, 61, 0
4, 16502, Note_on_c, 0, 49, 0
4, 16506, Note_on_c, 0, 54, 0
4, 16506, Note_on_c, 0, 58, 0
4, 16506, Note_on_c, 0, 66, 0
4, 16512, Note_on_c, 0, 47, 98
4, 16584, Note_on_c, 0, 54, 74
4, 16590, Note_on_c, 0, 59, 85
4, 16598, Note_on_c, 0, 62, 91
4, 16606, Note_on_c, 0, 66, 81
4, 16692, Note_on_c, 0, 54, 0
4, 16693, Note_on_c, 0, 59, 0
4, 16693, Note_on_c, 0, 62, 0
4, 16694, Note_on_c, 0, 66, 0
4, 16700, Note_on_c, 0, 45, 97
4, 16702, Note_on_c, 0, 47, 0
4, 16776, Note_on_c, 0, 50, 70
4, 16785, Note_on_c, 0, 57, 74
4, 16792, Note_on_c, 0, 60, 91
4, 16803, Note_on_c, 0, 66, 86
4, 16868, Note_on_c, 0, 60, 0
4, 16882, Note_on_c, 0, 57, 0
4, 16882, Note_on_c, 0, 66, 0
4, 16884, Note_on_c, 0, 50, 0
4, 16885, Note_on_c, 0, 45, 0
4, 16891, Note_on_c, 0, 43, 105
4, 16966, Note_on_c, 0, 50, 56
4, 16970, Note_on_c, 0, 55, 53
4, 16977, Note_on_c, 0, 59, 73
4, 16984, Note_on_c, 0, 62, 87
4, 16993, Note_on_c, 0, 67, 81
4, 17074, Note_on_c, 0, 59, 0
4, 17080, Note_on_c, 0, 43, 0
4, 17087, Note_on_c, 0, 43, 88
4, 17089, Note_on_c, 0, 50, 0
4, 17157, Note_on_c, 0, 50, 37
4, 17160, Note_on_c, 0, 55, 0
4, 17164, Note_on_c, 0, 55, 61
4, 17172, Note_on_c, 0, 58, 74
4, 17179, Note_on_c, 0, 62, 0
4, 17180, Note_on_c, 0, 62, 78
4, 17184, Note_on_c, 0, 67, 0
4, 17189, Note_on_c, 0, 67, 74
4, 17263, Note_on_c, 0, 43, 0
4, 17264, Note_on_c, 0, 58, 0
4, 17267, Note_on_c, 0, 50, 0
4, 17270, Note_on_c, 0, 62, 0
4, 17271, Note_on_c, 0, 55, 0
4, 17276, Note_on_c, 0, 67, 0
4, 17281, Note_on_c, 0, 50, 78
4, 17356, Note_on_c, 0, 57, 68
4, 17362, Note_on_c, 0, 62, 81
4, 17371, Note_on_c, 0, 66, 83
4, 17466, Note_on_c, 0, 45, 87
4, 17469, Note_on_c, 0, 50, 0
4, 17535, Note_on_c, 0, 57, 0
4, 17543, Note_on_c, 0, 57, 65
4, 17545, Note_on_c, 0, 62, 0
4, 17551, Note_on_c, 0, 62, 87
4, 17554, Note_on_c, 0, 66, 0
4, 17563, Note_on_c, 0, 66, 85
4, 17639, Note_on_c, 0, 50, 77
4, 17640, Note_on_c, 0, 57, 0
4, 17646, Note_on_c, 0, 57, 87
4, 17647, Note_on_c, 0, 62, 0
4, 17650, Note_on_c, 0, 45, 0
4, 17652, Note_on_c, 0, 62, 97
4, 17654, Note_on_c, 0, 66, 0
4, 17664, Note_on_c, 0, 66, 90
4, 17746, Note_on_c, 0, 62, 0
4, 17748, Note_on_c, 0, 57, 0
4, 17748, Note_on_c, 0, 66, 0
4, 17756, Note_on_c, 0, 54, 68
4, 17756, Note_on_c, 0, 64, 68
4, 17756, Note_on_c, 0, 69, 68
4, 17756, Note_on_c, 0, 60, 68
4, 17838, Note_on_c, 0, 50, 0
4, 17851, Note_on_c, 0, 47, 63
4, 17856, Note_on_c, 0, 54, 0
4, 17856, Note_on_c, 0, 64, 0
4, 17856, Note_on_c, 0, 69, 0
4, 17856, Note_on_c, 0, 60, 0
4, 17858, Note_on_c, 0, 54, 72
4, 17866, Note_on_c, 0, 57, 83
4, 17929, Note_on_c, 0, 54, 0
4, 17934, Note_on_c, 0, 57, 0
4, 17938, Note_on_c, 0, 57, 81
4, 17947, Note_on_c, 0, 63, 95
4, 17956, Note_on_c, 0, 66, 88
4, 18024, Note_on_c, 0, 47, 0
4, 18028, Note_on_c, 0, 57, 0
4, 18037, Note_on_c, 0, 63, 0
4, 18043, Note_on_c, 0, 40, 93
4, 18048, Note_on_c, 0, 66, 0
4, 18123, Note_on_c, 0, 47, 40
4, 18128, Note_on_c, 0, 52, 50
4, 18136, Note_on_c, 0, 56, 63
4, 18139, Note_on_c, 0, 59, 78
4, 18150, Note_on_c, 0, 64, 86
4, 18219, Note_on_c, 0, 52, 0
4, 18227, Note_on_c, 0, 47, 0
4, 18235, Note_on_c, 0, 47, 83
4, 18246, Note_on_c, 0, 40, 0
4, 18306, Note_on_c, 0, 47, 0
4, 18318, Note_on_c, 0, 50, 49
4, 18320, Note_on_c, 0, 56, 0
4, 18326, Note_on_c, 0, 59, 0
4, 18328, Note_on_c, 0, 56, 54
4, 18330, Note_on_c, 0, 59, 76
4, 18336, Note_on_c, 0, 64, 0
4, 18337, Note_on_c, 0, 64, 80
4, 18405, Note_on_c, 0, 56, 0
4, 18432, Note_on_c, 0, 45, 96
4, 18433, Note_on_c, 0, 50, 0
4, 18436, Note_on_c, 0, 59, 0
4, 18513, Note_on_c, 0, 52, 60
4, 18521, Note_on_c, 0, 55, 72
4, 18529, Note_on_c, 0, 61, 81
4, 18534, Note_on_c, 0, 64, 0
4, 18535, Note_on_c, 0, 64, 67
4, 18610, Note_on_c, 0, 52, 0
4, 18615, Note_on_c, 0, 45, 0
4, 18616, Note_on_c, 0, 61, 0
4, 18618, Note_on_c, 0, 55, 0
4, 18621, Note_on_c, 0, 45, 100
4, 18624, Note_on_c, 0, 64, 0
4, 18647, Note_on_c, 0, 52, 44
4, 18669, Note_on_c, 0, 55, 77
4, 18686, Note_on_c, 0, 61, 84
4, 18703, Note_on_c, 0, 64, 83
4, 18796, Note_on_c, 0, 45, 0
4, 18796, Note_on_c, 0, 52, 0
4, 18800, Note_on_c, 0, 55, 0
4, 18800, Note_on_c, 0, 61, 0
4, 18808, Note_on_c, 0, 64, 0
4, 18816, Note_on_c, 0, 50, 87
4, 18847, Note_on_c, 0, 57, 70
4, 18858, Note_on_c, 0, 62, 83
4, 18878, Note_on_c, 0, 66, 83
4, 18984, Note_on_c, 0, 50, 0
4, 18988, Note_on_c, 0, 57, 0
4, 18988, Note_on_c, 0, 62, 0
4, 18988, Note_on_c, 0, 66, 0
4, 19033, Note_on_c, 0, 57, 87
4, 19129, Note_on_c, 0, 57, 0
4, 19131, Note_on_c, 0, 69, 87
4, 19211, Note_on_c, 0, 69, 0
4, 19219, Note_on_c, 0, 69, 87
4, 19313, Note_on_c, 0, 69, 0
4, 19315, Note_on_c, 0, 66, 87
4, 19555, Note_on_c, 0, 66, 0
4, 19555, End_track
5, 0, Start_track
5, 103, Program_c, 3, 99
5, 104, Control_c, 3, 7, 127
5, 104, Control_c, 3, 10, 64
5, 104, Control_c, 3, 11, 127
5, 105, Control_c, 3, 91, 60
5, 105, Control_c, 3, 93, 0
5, 769, Note_on_c, 3, 69, 86
5, 770, Control_c, 3, 1, 0
5, 770, Pitch_bend_c, 3, 8192
5, 867, Note_on_c, 3, 74, 87
5, 876, Note_on_c, 3, 69, 0
5, 984, Note_on_c, 3, 74, 0
5, 1006, Note_on_c, 3, 73, 83
5, 1053, Note_on_c, 3, 74, 90
5, 1055, Note_on_c, 3, 73, 0
5, 1184, Note_on_c, 3, 74, 0
5, 1209, Note_on_c, 3, 76, 89
5, 1249, Note_on_c, 3, 71, 84
5, 1270, Note_on_c, 3, 76, 0
5, 1302, Note_on_c, 3, 76, 86
5, 1303, Note_on_c, 3, 71, 0
5, 1472, Note_on_c, 3, 76, 0
5, 1623, Note_on_c, 3, 74, 89
5, 1634, Note_on_c, 3, 74, 0
5, 1636, Note_on_c, 3, 76, 87
5, 1648, Note_on_c, 3, 74, 89
5, 1650, Note_on_c, 3, 76, 0
5, 1656, Note_on_c, 3, 74, 0
5, 1658, Note_on_c, 3, 73, 77
5, 1774, Note_on_c, 3, 73, 0
5, 1777, Note_on_c, 3, 71, 83
5, 1818, Note_on_c, 3, 71, 0
5, 1826, Note_on_c, 3, 73, 79
5, 1906, Note_on_c, 3, 73, 0
5, 1906, Note_on_c, 3, 74, 82
5, 2128, Note_on_c, 3, 74, 0
5, 2342, Note_on_c, 3, 69, 87
5, 2394, Note_on_c, 3, 74, 86
5, 2398, Note_on_c, 3, 69, 0
5, 2550, Note_on_c, 3, 74, 0
5, 2589, Note_on_c, 3, 73, 86
5, 2632, Note_on_c, 3, 73, 0
5, 2633, Note_on_c, 3, 74, 91
5, 2670, Note_on_c, 3, 76, 86
5, 2672, Note_on_c, 3, 74, 0
5, 2790, Note_on_c, 3, 76, 0
5, 2828, Note_on_c, 3, 71, 84
5, 2868, Note_on_c, 3, 76, 88
5, 2874, Note_on_c, 3, 71, 0
5, 3016, Note_on_c, 3, 76, 0
5, 3073, Note_on_c, 3, 74, 87
5, 3197, Note_on_c, 3, 74, 0
5, 3204, Note_on_c, 3, 73, 82
5, 3283, Note_on_c, 3, 73, 0
5, 3299, Note_on_c, 3, 71, 85
5, 3338, Note_on_c, 3, 73, 82
5, 3341, Note_on_c, 3, 71, 0
5, 3448, Note_on_c, 3, 73, 0
5, 3448, Note_on_c, 3, 74, 81
5, 3656, Note_on_c, 3, 74, 0
5, 3836, Note_on_c, 3, 78, 84
5, 3879, Note_on_c, 3, 78, 0
5, 3888, Note_on_c, 3, 78, 84
5, 4017, Note_on_c, 3, 78, 0
5, 4027, Note_on_c, 3, 78, 86
5, 4069, Note_on_c, 3, 78, 0
5, 4077, Note_on_c, 3, 78, 86
5, 4268, Note_on_c, 3, 78, 0
5, 4318, Note_on_c, 3, 78, 87
5, 4362, Note_on_c, 3, 78, 0
5, 4371, Note_on_c, 3, 78, 83
5, 4410, Note_on_c, 3, 78, 0
5, 4418, Note_on_c, 3, 78, 90
5, 4516, Note_on_c, 3, 78, 0
5, 4601, Note_on_c, 3, 78, 88
5, 4741, Note_on_c, 3, 78, 0
5, 4749, Note_on_c, 3, 76, 88
5, 4798, Note_on_c, 3, 76, 0
5, 4802, Note_on_c, 3, 74, 82
5, 4938, Note_on_c, 3, 74, 0
5, 4951, Note_on_c, 3, 76, 80
5, 4998, Note_on_c, 3, 78, 84
5, 5004, Note_on_c, 3, 76, 0
5, 5202, Note_on_c, 3, 78, 0
5, 5373, Note_on_c, 3, 78, 92
5, 5420, Note_on_c, 3, 78, 0
5, 5430, Note_on_c, 3, 78, 86
5, 5563, Note_on_c, 3, 78, 0
5, 5571, Note_on_c, 3, 79, 89
5, 5644, Note_on_c, 3, 79, 0
5, 5644, Note_on_c, 3, 78, 83
5, 5743, Note_on_c, 3, 78, 0
5, 5763, Note_on_c, 3, 76, 85
5, 5852, Note_on_c, 3, 76, 0
5, 5853, Note_on_c, 3, 71, 84
5, 5901, Note_on_c, 3, 71, 0
5, 5905, Note_on_c, 3, 76, 82
5, 6050, Note_on_c, 3, 76, 0
5, 6149, Note_on_c, 3, 74, 80
5, 6269, Note_on_c, 3, 74, 0
5, 6292, Note_on_c, 3, 73, 81
5, 6342, Note_on_c, 3, 73, 0
5, 6343, Note_on_c, 3, 71, 83
5, 6408, Note_on_c, 3, 73, 78
5, 6415, Note_on_c, 3, 71, 0
5, 6531, Note_on_c, 3, 74, 83
5, 6534, Note_on_c, 3, 73, 0
5, 6726, Note_on_c, 3, 74, 0
5, 6905, Note_on_c, 3, 69, 90
5, 6975, Note_on_c, 3, 74, 82
5, 6978, Note_on_c, 3, 69, 0
5, 7124, Note_on_c, 3, 74, 0
5, 7145, Note_on_c, 3, 73, 86
5, 7198, Note_on_c, 3, 74, 87
5, 7200, Note_on_c, 3, 73, 0
5, 7283, Note_on_c, 3, 74, 0
5, 7294, Note_on_c, 3, 76, 88
5, 7394, Note_on_c, 3, 76, 0
5, 7394, Note_on_c, 3, 71, 82
5, 7442, Note_on_c, 3, 76, 86
5, 7446, Note_on_c, 3, 71, 0
5, 7613, Note_on_c, 3, 76, 0
5, 7687, Note_on_c, 3, 74, 88
5, 7734, Note_on_c, 3, 73, 83
5, 7736, Note_on_c, 3, 74, 0
5, 7886, Note_on_c, 3, 73, 0
5, 7920, Note_on_c, 3, 71, 86
5, 7971, Note_on_c, 3, 73, 80
5, 7976, Note_on_c, 3, 71, 0
5, 8061, Note_on_c, 3, 73, 0
5, 8061, Note_on_c, 3, 74, 85
5, 8234, Note_on_c, 3, 74, 0
5, 8445, Note_on_c, 3, 69, 86
5, 8492, Note_on_c, 3, 69, 0
5, 8504, Note_on_c, 3, 74, 87
5, 8684, Note_on_c, 3, 74, 0
5, 8689, Note_on_c, 3, 73, 83
5, 8764, Note_on_c, 3, 73, 0
5, 8765, Note_on_c, 3, 74, 85
5, 8810, Note_on_c, 3, 76, 83
5, 8814, Note_on_c, 3, 74, 0
5, 8921, Note_on_c, 3, 76, 0
5, 8982, Note_on_c, 3, 71, 88
5, 9015, Note_on_c, 3, 71, 0
5, 9015, Note_on_c, 3, 76, 78
5, 9129, Note_on_c, 3, 76, 0
5, 9216, Note_on_c, 3, 74, 89
5, 9359, Note_on_c, 3, 74, 0
5, 9370, Note_on_c, 3, 73, 87
5, 9471, Note_on_c, 3, 73, 0
5, 9473, Note_on_c, 3, 71, 85
5, 9507, Note_on_c, 3, 73, 83
5, 9512, Note_on_c, 3, 71, 0
5, 9585, Note_on_c, 3, 73, 0
5, 9600, Note_on_c, 3, 74, 84
5, 9812, Note_on_c, 3, 74, 0
5, 9975, Note_on_c, 3, 78, 81
5, 10024, Note_on_c, 3, 78, 0
5, 10033, Note_on_c, 3, 78, 87
5, 10213, Note_on_c, 3, 78, 0
5, 10225, Note_on_c, 3, 78, 93
5, 10268, Note_on_c, 3, 78, 0
5, 10276, Note_on_c, 3, 78, 84
5, 10356, Note_on_c, 3, 78, 0
5, 10422, Note_on_c, 3, 78, 95
5, 10477, Note_on_c, 3, 78, 0
5, 10490, Note_on_c, 3, 78, 87
5, 10537, Note_on_c, 3, 78, 0
5, 10550, Note_on_c, 3, 78, 83
5, 10703, Note_on_c, 3, 78, 0
5, 10752, Note_on_c, 3, 78, 98
5, 10893, Note_on_c, 3, 78, 0
5, 10907, Note_on_c, 3, 76, 91
5, 10950, Note_on_c, 3, 76, 0
5, 10953, Note_on_c, 3, 74, 85
5, 11085, Note_on_c, 3, 74, 0
5, 11093, Note_on_c, 3, 76, 89
5, 11146, Note_on_c, 3, 76, 0
5, 11149, Note_on_c, 3, 78, 84
5, 11412, Note_on_c, 3, 78, 0
5, 11521, Note_on_c, 3, 78, 91
5, 11559, Note_on_c, 3, 78, 0
5, 11569, Note_on_c, 3, 78, 89
5, 11752, Note_on_c, 3, 78, 0
5, 11758, Note_on_c, 3, 79, 88
5, 11801, Note_on_c, 3, 79, 0
5, 11804, Note_on_c, 3, 78, 85
5, 11904, Note_on_c, 3, 78, 0
5, 11950, Note_on_c, 3, 76, 92
5, 12001, Note_on_c, 3, 71, 84
5, 12014, Note_on_c, 3, 76, 0
5, 12045, Note_on_c, 3, 71, 0
5, 12051, Note_on_c, 3, 76, 89
5, 12213, Note_on_c, 3, 76, 0
5, 12290, Note_on_c, 3, 74, 92
5, 12334, Note_on_c, 3, 74, 0
5, 12341, Note_on_c, 3, 73, 87
5, 12513, Note_on_c, 3, 73, 0
5, 12528, Note_on_c, 3, 71, 86
5, 12580, Note_on_c, 3, 73, 83
5, 12581, Note_on_c, 3, 71, 0
5, 12670, Note_on_c, 3, 73, 0
5, 12675, Note_on_c, 3, 74, 79
5, 12950, Note_on_c, 3, 74, 0
5, 13053, Note_on_c, 3, 69, 89
5, 13106, Note_on_c, 3, 69, 0
5, 13112, Note_on_c, 3, 74, 86
5, 13260, Note_on_c, 3, 74, 0
5, 13292, Note_on_c, 3, 73, 84
5, 13338, Note_on_c, 3, 74, 89
5, 13340, Note_on_c, 3, 73, 0
5, 13430, Note_on_c, 3, 74, 0
5, 13490, Note_on_c, 3, 76, 89
5, 13543, Note_on_c, 3, 76, 0
5, 13548, Note_on_c, 3, 71, 87
5, 13590, Note_on_c, 3, 71, 0
5, 13590, Note_on_c, 3, 76, 93
5, 13737, Note_on_c, 3, 76, 0
5, 13821, Note_on_c, 3, 74, 92
5, 13866, Note_on_c, 3, 74, 0
5, 13873, Note_on_c, 3, 73, 86
5, 14000, Note_on_c, 3, 73, 0
5, 14007, Note_on_c, 3, 71, 90
5, 14057, Note_on_c, 3, 71, 0
5, 14058, Note_on_c, 3, 73, 86
5, 14189, Note_on_c, 3, 73, 0
5, 14200, Note_on_c, 3, 74, 87
5, 14416, Note_on_c, 3, 74, 0
5, 14589, Note_on_c, 3, 69, 86
5, 14678, Note_on_c, 3, 69, 0
5, 14684, Note_on_c, 3, 74, 83
5, 14739, Note_on_c, 3, 73, 84
5, 14744, Note_on_c, 3, 74, 0
5, 14870, Note_on_c, 3, 73, 0
5, 14877, Note_on_c, 3, 74, 87
5, 14930, Note_on_c, 3, 76, 88
5, 14940, Note_on_c, 3, 74, 0
5, 15065, Note_on_c, 3, 76, 0
5, 15069, Note_on_c, 3, 71, 80
5, 15120, Note_on_c, 3, 71, 0
5, 15120, Note_on_c, 3, 76, 87
5, 15248, Note_on_c, 3, 76, 0
5, 15361, Note_on_c, 3, 74, 90
5, 15411, Note_on_c, 3, 74, 0
5, 15416, Note_on_c, 3, 73, 84
5, 15537, Note_on_c, 3, 73, 0
5, 15544, Note_on_c, 3, 71, 90
5, 15602, Note_on_c, 3, 71, 0
5, 15603, Note_on_c, 3, 73, 84
5, 15719, Note_on_c, 3, 73, 0
5, 15740, Note_on_c, 3, 74, 89
5, 15949, Note_on_c, 3, 74, 0
5, 16128, Note_on_c, 3, 78, 95
5, 16177, Note_on_c, 3, 78, 0
5, 16186, Note_on_c, 3, 78, 86
5, 16306, Note_on_c, 3, 78, 0
5, 16314, Note_on_c, 3, 78, 91
5, 16365, Note_on_c, 3, 78, 0
5, 16373, Note_on_c, 3, 78, 87
5, 16505, Note_on_c, 3, 78, 0
5, 16561, Note_on_c, 3, 78, 90
5, 16613, Note_on_c, 3, 78, 0
5, 16625, Note_on_c, 3, 78, 84
5, 16683, Note_on_c, 3, 78, 0
5, 16694, Note_on_c, 3, 78, 84
5, 16854, Note_on_c, 3, 78, 0
5, 16897, Note_on_c, 3, 78, 84
5, 17035, Note_on_c, 3, 78, 0
5, 17044, Note_on_c, 3, 76, 83
5, 17085, Note_on_c, 3, 76, 0
5, 17091, Note_on_c, 3, 74, 85
5, 17223, Note_on_c, 3, 74, 0
5, 17239, Note_on_c, 3, 76, 86
5, 17282, Note_on_c, 3, 76, 0
5, 17289, Note_on_c, 3, 78, 83
5, 17559, Note_on_c, 3, 78, 0
5, 17664, Note_on_c, 3, 78, 87
5, 17715, Note_on_c, 3, 78, 0
5, 17728, Note_on_c, 3, 78, 89
5, 17883, Note_on_c, 3, 78, 0
5, 17900, Note_on_c, 3, 79, 90
5, 17956, Note_on_c, 3, 79, 0
5, 17958, Note_on_c, 3, 78, 86
5, 18036, Note_on_c, 3, 78, 0
5, 18085, Note_on_c, 3, 76, 90
5, 18117, Note_on_c, 3, 76, 0
5, 18122, Note_on_c, 3, 71, 82
5, 18167, Note_on_c, 3, 76, 89
5, 18169, Note_on_c, 3, 71, 0
5, 18337, Note_on_c, 3, 76, 0
5, 18431, Note_on_c, 3, 74, 94
5, 18521, Note_on_c, 3, 74, 0
5, 18528, Note_on_c, 3, 73, 84
5, 18627, Note_on_c, 3, 73, 0
5, 18629, Note_on_c, 3, 78, 85
5, 18718, Note_on_c, 3, 76, 89
5, 18720, Note_on_c, 3, 78, 0
5, 18793, Note_on_c, 3, 76, 0
5, 18819, Note_on_c, 3, 74, 84
5, 18956, Note_on_c, 3, 74, 0
5, 18956, End_track
6, 0, Start_track
6, 108, Program_c, 5, 54
6, 109, Control_c, 5, 7, 105
6, 109, Control_c, 5, 10, 64
6, 109, Control_c, 5, 11, 127
6, 110, Control_c, 5, 91, 60
6, 110, Control_c, 5, 93, 15
6, 3838, Note_on_c, 5, 62, 84
6, 3838, Note_on_c, 5, 57, 84
6, 3839, Control_c, 5, 1, 0
6, 3839, Pitch_bend_c, 5, 8192
6, 3839, Note_on_c, 5, 54, 85
6, 3839, Note_on_c, 5, 50, 78
6, 4021, Note_on_c, 5, 54, 0
6, 4028, Note_on_c, 5, 50, 0
6, 4028, Note_on_c, 5, 54, 69
6, 4028, Note_on_c, 5, 61, 76
6, 4029, Note_on_c, 5, 58, 79
6, 4029, Note_on_c, 5, 49, 79
6, 4031, Note_on_c, 5, 62, 0
6, 4031, Note_on_c, 5, 57, 0
6, 4218, Note_on_c, 5, 54, 0
6, 4219, Note_on_c, 5, 61, 0
6, 4219, Note_on_c, 5, 47, 79
6, 4221, Note_on_c, 5, 49, 0
6, 4221, Note_on_c, 5, 62, 72
6, 4222, Note_on_c, 5, 59, 78
6, 4222, Note_on_c, 5, 54, 82
6, 4225, Note_on_c, 5, 58, 0
6, 4414, Note_on_c, 5, 54, 0
6, 4416, Note_on_c, 5, 59, 0
6, 4417, Note_on_c, 5, 54, 74
6, 4417, Note_on_c, 5, 60, 77
6, 4417, Note_on_c, 5, 57, 81
6, 4417, Note_on_c, 5, 45, 72
6, 4422, Note_on_c, 5, 47, 0
6, 4422, Note_on_c, 5, 62, 0
6, 4592, Note_on_c, 5, 45, 0
6, 4602, Note_on_c, 5, 60, 0
6, 4604, Note_on_c, 5, 54, 0
6, 4604, Note_on_c, 5, 57, 0
6, 4608, Note_on_c, 5, 62, 79
6, 4609, Note_on_c, 5, 55, 78
6, 4609, Note_on_c, 5, 59, 79
6, 4609, Note_on_c, 5, 43, 78
6, 4791, Note_on_c, 5, 62, 0
6, 4793, Note_on_c, 5, 55, 0
6, 4793, Note_on_c, 5, 59, 0
6, 4798, Note_on_c, 5, 55, 71
6, 4798, Note_on_c, 5, 58, 76
6, 4798, Note_on_c, 5, 62, 79
6, 4982, Note_on_c, 5, 43, 0
6, 4988, Note_on_c, 5, 58, 0
6, 4989, Note_on_c, 5, 62, 0
6, 4992, Note_on_c, 5, 55, 0
6, 4993, Note_on_c, 5, 50, 72
6, 4993, Note_on_c, 5, 54, 72
6, 4993, Note_on_c, 5, 62, 72
6, 4994, Note_on_c, 5, 57, 75
6, 5284, Note_on_c, 5, 57, 0
6, 5285, Note_on_c, 5, 62, 0
6, 5293, Note_on_c, 5, 50, 0
6, 5294, Note_on_c, 5, 54, 0
6, 5373, Note_on_c, 5, 62, 79
6, 5373, Note_on_c, 5, 57, 75
6, 5373, Note_on_c, 5, 54, 85
6, 5375, Note_on_c, 5, 50, 72
6, 5558, Note_on_c, 5, 57, 0
6, 5561, Note_on_c, 5, 62, 0
6, 5563, Note_on_c, 5, 54, 0
6, 5565, Note_on_c, 5, 63, 77
6, 5565, Note_on_c, 5, 57, 70
6, 5566, Note_on_c, 5, 59, 72
6, 5567, Note_on_c, 5, 47, 73
6, 5568, Note_on_c, 5, 50, 0
6, 5755, Note_on_c, 5, 59, 0
6, 5759, Note_on_c, 5, 63, 0
6, 5761, Note_on_c, 5, 47, 0
6, 5762, Note_on_c, 5, 57, 0
6, 5762, Note_on_c, 5, 64, 75
6, 5762, Note_on_c, 5, 56, 71
6, 5762, Note_on_c, 5, 59, 72
6, 5763, Note_on_c, 5, 40, 67
6, 6056, Note_on_c, 5, 64, 0
6, 6057, Note_on_c, 5, 56, 0
6, 6057, Note_on_c, 5, 59, 0
6, 6058, Note_on_c, 5, 40, 0
6, 6141, Note_on_c, 5, 45, 66
6, 6143, Note_on_c, 5, 50, 74
6, 6143, Note_on_c, 5, 55, 76
6, 6143, Note_on_c, 5, 59, 77
6, 6237, Note_on_c, 5, 55, 0
6, 6239, Note_on_c, 5, 59, 0
6, 6239, Note_on_c, 5, 49, 64
6, 6239, Note_on_c, 5, 52, 67
6, 6241, Note_on_c, 5, 57, 72
6, 6242, Note_on_c, 5, 50, 0
6, 6329, Note_on_c, 5, 57, 0
6, 6333, Note_on_c, 5, 49, 0
6, 6333, Note_on_c, 5, 52, 0
6, 6337, Note_on_c, 5, 59, 71
6, 6338, Note_on_c, 5, 62, 71
6, 6338, Note_on_c, 5, 55, 71
6, 6426, Note_on_c, 5, 62, 0
6, 6426, Note_on_c, 5, 55, 0
6, 6427, Note_on_c, 5, 59, 0
6, 6431, Note_on_c, 5, 64, 72
6, 6432, Note_on_c, 5, 57, 70
6, 6432, Note_on_c, 5, 61, 68
6, 6519, Note_on_c, 5, 45, 0
6, 6525, Note_on_c, 5, 64, 0
6, 6525, Note_on_c, 5, 57, 0
6, 6525, Note_on_c, 5, 61, 0
6, 6525, Note_on_c, 5, 38, 78
6, 6527, Note_on_c, 5, 54, 65
6, 6527, Note_on_c, 5, 62, 72
6, 6528, Note_on_c, 5, 57, 65
6, 6817, Note_on_c, 5, 57, 0
6, 6819, Note_on_c, 5, 62, 0
6, 6820, Note_on_c, 5, 54, 0
6, 6822, Note_on_c, 5, 38, 0
6, 9982, Note_on_c, 5, 62, 84
6, 9982, Note_on_c, 5, 57, 82
6, 9983, Note_on_c, 5, 54, 84
6, 9983, Note_on_c, 5, 50, 78
6, 10165, Note_on_c, 5, 54, 0
6, 10172, Note_on_c, 5, 50, 0
6, 10172, Note_on_c, 5, 54, 73
6, 10172, Note_on_c, 5, 61, 75
6, 10173, Note_on_c, 5, 58, 74
6, 10173, Note_on_c, 5, 49, 85
6, 10175, Note_on_c, 5, 62, 0
6, 10175, Note_on_c, 5, 57, 0
6, 10362, Note_on_c, 5, 54, 0
6, 10363, Note_on_c, 5, 61, 0
6, 10363, Note_on_c, 5, 47, 72
6, 10365, Note_on_c, 5, 49, 0
6, 10365, Note_on_c, 5, 62, 72
6, 10366, Note_on_c, 5, 59, 78
6, 10366, Note_on_c, 5, 54, 82
6, 10369, Note_on_c, 5, 58, 0
6, 10558, Note_on_c, 5, 54, 0
6, 10560, Note_on_c, 5, 59, 0
6, 10561, Note_on_c, 5, 54, 74
6, 10561, Note_on_c, 5, 60, 77
6, 10561, Note_on_c, 5, 57, 81
6, 10561, Note_on_c, 5, 45, 72
6, 10566, Note_on_c, 5, 47, 0
6, 10566, Note_on_c, 5, 62, 0
6, 10736, Note_on_c, 5, 45, 0
6, 10746, Note_on_c, 5, 60, 0
6, 10748, Note_on_c, 5, 54, 0
6, 10748, Note_on_c, 5, 57, 0
6, 10752, Note_on_c, 5, 62, 79
6, 10753, Note_on_c, 5, 55, 78
6, 10753, Note_on_c, 5, 59, 79
6, 10753, Note_on_c, 5, 43, 78
6, 10935, Note_on_c, 5, 62, 0
6, 10937, Note_on_c, 5, 55, 0
6, 10937, Note_on_c, 5, 59, 0
6, 10942, Note_on_c, 5, 55, 71
6, 10942, Note_on_c, 5, 58, 76
6, 10942, Note_on_c, 5, 62, 79
6, 11126, Note_on_c, 5, 43, 0
6, 11132, Note_on_c, 5, 58, 0
6, 11133, Note_on_c, 5, 62, 0
6, 11136, Note_on_c, 5, 55, 0
6, 11137, Note_on_c, 5, 50, 72
6, 11137, Note_on_c, 5, 54, 72
6, 11137, Note_on_c, 5, 62, 72
6, 11138, Note_on_c, 5, 57, 75
6, 11428, Note_on_c, 5, 57, 0
6, 11429, Note_on_c, 5, 62, 0
6, 11437, Note_on_c, 5, 50, 0
6, 11438, Note_on_c, 5, 54, 0
6, 11517, Note_on_c, 5, 62, 79
6, 11517, Note_on_c, 5, 57, 75
6, 11517, Note_on_c, 5, 54, 85
6, 11519, Note_on_c, 5, 50, 72
6, 11702, Note_on_c, 5, 57, 0
6, 11705, Note_on_c, 5, 62, 0
6, 11707, Note_on_c, 5, 54, 0
6, 11709, Note_on_c, 5, 63, 77
6, 11709, Note_on_c, 5, 57, 70
6, 11710, Note_on_c, 5, 59, 72
6, 11711, Note_on_c, 5, 47, 73
6, 11712, Note_on_c, 5, 50, 0
6, 11899, Note_on_c, 5, 59, 0
6, 11903, Note_on_c, 5, 63, 0
6, 11905, Note_on_c, 5, 47, 0
6, 11906, Note_on_c, 5, 57, 0
6, 11906, Note_on_c, 5, 64, 75
6, 11906, Note_on_c, 5, 56, 71
6, 11906, Note_on_c, 5, 59, 72
6, 11907, Note_on_c, 5, 40, 67
6, 12200, Note_on_c, 5, 64, 0
6, 12201, Note_on_c, 5, 56, 0
6, 12201, Note_on_c, 5, 59, 0
6, 12202, Note_on_c, 5, 40, 0
6, 12285, Note_on_c, 5, 45, 66
6, 12287, Note_on_c, 5, 50, 74
6, 12287, Note_on_c, 5, 55, 76
6, 12287, Note_on_c, 5, 59, 77
6, 12381, Note_on_c, 5, 55, 0
6, 12383, Note_on_c, 5, 59, 0
6, 12383, Note_on_c, 5, 49, 64
6, 12383, Note_on_c, 5, 52, 67
6, 12385, Note_on_c, 5, 57, 72
6, 12386, Note_on_c, 5, 50, 0
6, 12473, Note_on_c, 5, 57, 0
6, 12477, Note_on_c, 5, 49, 0
6, 12477, Note_on_c, 5, 52, 0
6, 12481, Note_on_c, 5, 59, 71
6, 12482, Note_on_c, 5, 62, 71
6, 12482, Note_on_c, 5, 55, 71
6, 12570, Note_on_c, 5, 62, 0
6, 12570, Note_on_c, 5, 55, 0
6, 12571, Note_on_c, 5, 59, 0
6, 12575, Note_on_c, 5, 64, 72
6, 12576, Note_on_c, 5, 57, 70
6, 12576, Note_on_c, 5, 61, 68
6, 12663, Note_on_c, 5, 45, 0
6, 12669, Note_on_c, 5, 64, 0
6, 12669, Note_on_c, 5, 57, 0
6, 12669, Note_on_c, 5, 61, 0
6, 12669, Note_on_c, 5, 38, 78
6, 12671, Note_on_c, 5, 54, 65
6, 12671, Note_on_c, 5, 62, 72
6, 12672, Note_on_c, 5, 57, 65
6, 12961, Note_on_c, 5, 57, 0
6, 12963, Note_on_c, 5, 62, 0
6, 12964, Note_on_c, 5, 54, 0
6, 12966, Note_on_c, 5, 38, 0
6, 12966, End_track
0, 0, End_of_file
